500 0 13 0           
7 Unknown 11 ACIS 5.0 NT 24 Thu Mar 25 18:22:10 1999 
-1 9.9999999999999995e-007 1e-010 
body $-1 $13 $-1 $14 #
body $-1 $15 $-1 $16 #
body $-1 $17 $-1 $18 #
body $-1 $19 $-1 $20 #
body $-1 $21 $-1 $22 #
body $-1 $23 $-1 $24 #
body $-1 $25 $-1 $26 #
body $-1 $27 $-1 $28 #
body $-1 $29 $-1 $30 #
body $-1 $31 $-1 $32 #
body $-1 $33 $-1 $34 #
body $-1 $35 $-1 $36 #
body $-1 $37 $-1 $38 #
lump $-1 $-1 $39 $0 #
transform $-1 1 0 0 0 1 0 0 0 1 70.680867946409492 38.269741467672468 16.997548828082255 1 rotate no_reflect no_shear #
lump $-1 $-1 $40 $1 #
transform $-1 1 0 0 0 1 0 0 0 1 70.680867946409492 38.269741467672468 16.997548828082255 1 rotate no_reflect no_shear #
lump $-1 $-1 $41 $2 #
transform $-1 1 0 0 0 1 0 0 0 1 70.680867946409492 38.269741467672468 16.997548828082255 1 rotate no_reflect no_shear #
lump $-1 $-1 $42 $3 #
transform $-1 1 0 0 0 1 0 0 0 1 70.680867946409492 38.269741467672468 16.997548828082255 1 rotate no_reflect no_shear #
lump $-1 $-1 $43 $4 #
transform $-1 1 0 0 0 1 0 0 0 1 70.680867946409492 38.269741467672468 16.997548828082255 1 rotate no_reflect no_shear #
lump $-1 $-1 $44 $5 #
transform $-1 1 0 0 0 1 0 0 0 1 70.680867946409492 38.269741467672468 16.997548828082255 1 rotate no_reflect no_shear #
lump $-1 $-1 $45 $6 #
transform $-1 1 0 0 0 1 0 0 0 1 70.680867946409492 38.269741467672468 16.997548828082255 1 rotate no_reflect no_shear #
lump $-1 $-1 $46 $7 #
transform $-1 1 0 0 0 1 0 0 0 1 70.680867946409492 38.269741467672468 16.997548828082255 1 rotate no_reflect no_shear #
lump $-1 $-1 $47 $8 #
transform $-1 1 0 0 0 1 0 0 0 1 70.680867946409492 38.269741467672468 16.997548828082255 1 rotate no_reflect no_shear #
lump $-1 $-1 $48 $9 #
transform $-1 1 0 0 0 1 0 0 0 1 70.680867946409492 38.269741467672468 16.997548828082255 1 rotate no_reflect no_shear #
lump $-1 $-1 $49 $10 #
transform $-1 1 0 0 0 1 0 0 0 1 70.680867946409492 38.269741467672468 16.997548828082255 1 rotate no_reflect no_shear #
lump $-1 $-1 $50 $11 #
transform $-1 1 0 0 0 1 0 0 0 1 70.680867946409492 38.269741467672468 16.997548828082255 1 rotate no_reflect no_shear #
lump $-1 $-1 $51 $12 #
transform $-1 1 0 0 0 1 0 0 0 1 70.680867946409492 38.269741467672468 16.997548828082255 1 rotate no_reflect no_shear #
shell $-1 $-1 $-1 $52 $-1 $13 #
shell $-1 $-1 $-1 $53 $-1 $15 #
shell $-1 $-1 $-1 $54 $-1 $17 #
shell $-1 $-1 $-1 $55 $-1 $19 #
shell $-1 $-1 $-1 $56 $-1 $21 #
shell $-1 $-1 $-1 $57 $-1 $23 #
shell $-1 $-1 $-1 $58 $-1 $25 #
shell $-1 $-1 $-1 $59 $-1 $27 #
shell $-1 $-1 $-1 $60 $-1 $29 #
shell $-1 $-1 $-1 $61 $-1 $31 #
shell $-1 $-1 $-1 $62 $-1 $33 #
shell $-1 $-1 $-1 $63 $-1 $35 #
shell $-1 $-1 $-1 $64 $-1 $37 #
face $-1 $65 $66 $39 $-1 $67 forward single #
face $-1 $68 $69 $40 $-1 $70 forward single #
face $-1 $71 $72 $41 $-1 $73 forward single #
face $-1 $74 $75 $42 $-1 $76 reversed single #
face $-1 $77 $78 $43 $-1 $79 forward single #
face $-1 $80 $81 $44 $-1 $82 reversed single #
face $-1 $83 $84 $45 $-1 $85 forward single #
face $-1 $86 $87 $46 $-1 $88 reversed single #
face $-1 $89 $90 $47 $-1 $91 forward single #
face $-1 $92 $93 $48 $-1 $94 reversed single #
face $-1 $95 $96 $49 $-1 $97 forward single #
face $-1 $98 $99 $50 $-1 $100 reversed single #
face $-1 $101 $102 $51 $-1 $103 forward single #
face $-1 $104 $105 $39 $-1 $106 reversed single #
loop $-1 $-1 $107 $52 #
plane-surface $-1 0 0 16.997548828082255 0 0 1 1 0 0 forward_v I I I I #
face $-1 $108 $109 $40 $-1 $110 reversed single #
loop $-1 $-1 $111 $53 #
plane-surface $-1 0 -31.918980607322183 -11.783487049750825 0 0 1 1 0 0 forward_v I I I I #
face $-1 $112 $113 $41 $-1 $114 reversed single #
loop $-1 $-1 $115 $54 #
plane-surface $-1 0 31.918980607322176 -11.783487049750825 0 0 1 1 0 0 forward_v I I I I #
face $-1 $116 $117 $42 $-1 $118 reversed single #
loop $-1 $-1 $119 $55 #
plane-surface $-1 84.626283634946063 -12.784109873485949 199.45433042489532 0 -1 0 -0.75470958851134928 0 -0.65605901945558964 forward_v I I I I #
face $-1 $120 $121 $43 $-1 $122 forward single #
loop $-1 $123 $124 $56 #
cone-surface $-1 62.109665374661581 -16.061781648947605 7.4732519590063502 -0.75470958851134928 0 -0.65605901945558964 0.65605901945558964 0 -0.75470958851134928 1 I I 0 1 1 forward I I I I #
face $-1 $125 $126 $44 $-1 $127 reversed single #
loop $-1 $-1 $128 $57 #
plane-surface $-1 84.626283634946063 -2.0762554408542115 199.45433042489532 0 -1 0 -0.75470958851134928 0 -0.65605901945558964 forward_v I I I I #
face $-1 $129 $130 $45 $-1 $131 forward single #
loop $-1 $132 $133 $58 #
cone-surface $-1 62.109665374661581 -5.3539272163158671 7.4732519590063502 -0.75470958851134928 0 -0.65605901945558964 0.65605901945558964 0 -0.75470958851134928 1 I I 0 1 1 forward I I I I #
face $-1 $134 $135 $46 $-1 $136 reversed single #
loop $-1 $-1 $137 $59 #
plane-surface $-1 84.626283634946063 8.6315989917775227 199.45433042489532 0 -1 0 -0.75470958851134928 0 -0.65605901945558964 forward_v I I I I #
face $-1 $138 $139 $47 $-1 $140 forward single #
loop $-1 $141 $142 $60 #
cone-surface $-1 62.109665374661581 5.3539272163158671 7.4732519590063502 -0.75470958851134928 0 -0.65605901945558964 0.65605901945558964 0 -0.75470958851134928 1 I I 0 1 1 forward I I I I #
face $-1 $143 $144 $48 $-1 $145 reversed single #
loop $-1 $-1 $146 $61 #
plane-surface $-1 84.626283634946063 19.339453424409257 199.45433042489532 0 -1 0 -0.75470958851134928 0 -0.65605901945558964 forward_v I I I I #
face $-1 $147 $148 $49 $-1 $149 forward single #
loop $-1 $150 $151 $62 #
cone-surface $-1 62.109665374661581 16.061781648947601 7.4732519590063502 -0.75470958851134928 0 -0.65605901945558964 0.65605901945558964 0 -0.75470958851134928 1 I I 0 1 1 forward I I I I #
face $-1 $152 $153 $50 $-1 $154 reversed single #
loop $-1 $-1 $155 $63 #
plane-surface $-1 -145.59117601056789 -21.661934601310435 132.28399292795237 0 1 0 -0.52991927123019833 0 0.84804809178421925 forward_v I I I I #
face $-1 $156 $157 $51 $-1 $158 forward single #
loop $-1 $159 $160 $64 #
cone-surface $-1 -66.39053261082978 -17.079503719958328 13.718219625659939 0.52991927123019833 0 -0.84804809178421925 0.84804809178421925 0 0.52991927123019833 1 I I 0 1 1 forward I I I I #
face $-1 $161 $162 $39 $-1 $163 reversed single #
loop $-1 $-1 $164 $65 #
plane-surface $-1 0 0 -16.997548828082255 0 0 1 1 0 0 forward_v I I I I #
coedge $-1 $165 $166 $167 $168 forward $66 $-1 #
face $-1 $169 $170 $40 $-1 $171 reversed single #
loop $-1 $-1 $172 $68 #
plane-surface $-1 0 -25.568219746971899 -14.39051793891654 0 -1 0 0 0 -1 forward_v I I I I #
coedge $-1 $173 $174 $175 $176 reversed $69 $-1 #
face $-1 $177 $178 $41 $-1 $179 reversed single #
loop $-1 $-1 $180 $71 #
plane-surface $-1 0 25.568219746971891 -14.39051793891654 0 1 0 0 0 1 forward_v I I I I #
coedge $-1 $181 $182 $183 $184 reversed $72 $-1 #
face $-1 $185 $186 $42 $-1 $187 reversed single #
loop $-1 $-1 $188 $74 #
plane-surface $-1 -22.060773891973383 -16.061781648947605 106.71268858651246 0.75470958851134928 0 0.65605901945558964 0.65605901945558964 0 -0.75470958851134928 forward_v I I I I #
coedge $-1 $189 $190 $191 $192 reversed $75 $-1 #
face $-1 $-1 $193 $43 $-1 $194 forward single #
loop $-1 $195 $196 $77 #
cone-surface $-1 60.537839336160218 -16.061781648947605 6.1068844644472655 -0.75470958851134928 0 -0.65605901945558964 0.32802950972779482 0 -0.37735479425567464 1 I I -0.70710678118654746 0.70710678118654746 0.5 forward I I I I #
loop $-1 $-1 $197 $56 #
coedge $-1 $124 $124 $198 $199 reversed $78 $-1 #
face $-1 $200 $201 $44 $-1 $202 reversed single #
loop $-1 $-1 $203 $80 #
plane-surface $-1 -22.060773891973383 -5.3539272163158671 106.71268858651246 0.75470958851134928 0 0.65605901945558964 0.65605901945558964 0 -0.75470958851134928 forward_v I I I I #
coedge $-1 $204 $205 $206 $207 reversed $81 $-1 #
face $-1 $-1 $208 $45 $-1 $209 forward single #
loop $-1 $210 $211 $83 #
cone-surface $-1 60.537839336160218 -5.3539272163158671 6.1068844644472655 -0.75470958851134928 0 -0.65605901945558964 0.32802950972779482 0 -0.37735479425567464 1 I I -0.70710678118654746 0.70710678118654746 0.5 forward I I I I #
loop $-1 $-1 $212 $58 #
coedge $-1 $133 $133 $213 $214 reversed $84 $-1 #
face $-1 $215 $216 $46 $-1 $217 reversed single #
loop $-1 $-1 $218 $86 #
plane-surface $-1 -22.060773891973383 5.3539272163158671 106.71268858651246 0.75470958851134928 0 0.65605901945558964 0.65605901945558964 0 -0.75470958851134928 forward_v I I I I #
coedge $-1 $219 $220 $221 $222 reversed $87 $-1 #
face $-1 $-1 $223 $47 $-1 $224 forward single #
loop $-1 $225 $226 $89 #
cone-surface $-1 60.537839336160218 5.3539272163158671 6.1068844644472655 -0.75470958851134928 0 -0.65605901945558964 0.32802950972779482 0 -0.37735479425567464 1 I I -0.70710678118654746 0.70710678118654746 0.5 forward I I I I #
loop $-1 $-1 $227 $60 #
coedge $-1 $142 $142 $228 $229 reversed $90 $-1 #
face $-1 $230 $231 $48 $-1 $232 reversed single #
loop $-1 $-1 $233 $92 #
plane-surface $-1 -22.060773891973383 16.061781648947601 106.71268858651246 0.75470958851134928 0 0.65605901945558964 0.65605901945558964 0 -0.75470958851134928 forward_v I I I I #
coedge $-1 $234 $235 $236 $237 reversed $93 $-1 #
face $-1 $-1 $238 $49 $-1 $239 forward single #
loop $-1 $240 $241 $95 #
cone-surface $-1 60.537839336160218 16.061781648947601 6.1068844644472655 -0.75470958851134928 0 -0.65605901945558964 0.32802950972779482 0 -0.37735479425567464 1 I I -0.70710678118654746 0.70710678118654746 0.5 forward I I I I #
loop $-1 $-1 $242 $62 #
coedge $-1 $151 $151 $243 $244 reversed $96 $-1 #
face $-1 $245 $246 $50 $-1 $247 reversed single #
loop $-1 $-1 $248 $98 #
plane-surface $-1 -70.680867946409492 -17.079503719958325 12.402442552742457 -0.52991927123019833 0 0.84804809178421925 0.84804809178421925 0 0.52991927123019833 forward_v I I I I #
coedge $-1 $249 $250 $251 $252 reversed $99 $-1 #
face $-1 $-1 $253 $51 $-1 $254 forward single #
loop $-1 $255 $256 $101 #
cone-surface $-1 -65.512091190649528 -17.079503719958328 12.312419515015407 0.52991927123019833 0 -0.84804809178421925 0.42402404589210962 0 0.26495963561509916 1 I I -0.70710678118654746 0.70710678118654746 0.5 forward I I I I #
loop $-1 $-1 $257 $64 #
coedge $-1 $160 $160 $258 $259 reversed $102 $-1 #
face $-1 $260 $261 $39 $-1 $262 reversed single #
loop $-1 $-1 $263 $104 #
plane-surface $-1 0 -38.269741467672468 0 0 1 0 0 0 1 forward_v I I I I #
coedge $-1 $264 $265 $266 $267 forward $105 $-1 #
coedge $-1 $268 $107 $269 $270 forward $66 $-1 #
coedge $-1 $107 $268 $271 $272 forward $66 $-1 #
coedge $-1 $273 $274 $107 $168 reversed $275 $-1 #
edge $-1 $276 -38.269741467672468 $277 38.269741467672468 $167 $278 forward 7 unknown #
face $-1 $279 $280 $40 $-1 $281 reversed single #
loop $-1 $-1 $282 $108 #
plane-surface $-1 0 0 -16.997548828082255 0 0 1 1 0 0 forward_v I I I I #
coedge $-1 $283 $284 $285 $286 reversed $109 $-1 #
coedge $-1 $287 $111 $284 $288 forward $69 $-1 #
coedge $-1 $111 $287 $289 $290 reversed $69 $-1 #
coedge $-1 $291 $285 $111 $176 forward $280 $-1 #
edge $-1 $292 9.608729443310807 $293 22.310251164011376 $175 $294 forward 7 unknown #
face $-1 $295 $296 $41 $-1 $297 reversed single #
loop $-1 $-1 $183 $112 #
plane-surface $-1 70.680867946409492 0 0 -1 0 0 0 0 1 forward_v I I I I #
coedge $-1 $298 $299 $300 $301 reversed $113 $-1 #
coedge $-1 $302 $115 $303 $304 reversed $72 $-1 #
coedge $-1 $115 $302 $299 $305 forward $72 $-1 #
coedge $-1 $306 $307 $115 $184 forward $178 $-1 #
edge $-1 $308 -22.310251164011373 $309 -9.6087294433108035 $183 $310 forward 7 unknown #
face $-1 $311 $312 $42 $-1 $313 forward single #
loop $-1 $-1 $314 $116 #
plane-surface $-1 84.626283634946063 -19.33945342440926 199.45433042489532 0 1 0 0.75470958851134928 0 0.65605901945558964 forward_v I I I I #
coedge $-1 $315 $316 $317 $318 reversed $117 $-1 #
coedge $-1 $190 $119 $319 $320 reversed $75 $-1 #
coedge $-1 $119 $189 $315 $321 reversed $75 $-1 #
coedge $-1 $317 $322 $119 $192 forward $312 $-1 #
edge $-1 $323 -28.367726128936461 $324 -13.614263473932006 $191 $325 forward 7 unknown #
loop $-1 $-1 $198 $120 #
plane-surface $-1 -22.060773891973383 -16.061781648947605 106.71268858651246 0.75470958851134928 0 0.65605901945558964 0.65605901945558964 0 -0.75470958851134928 forward_v I I I I #
loop $-1 $-1 $326 $77 #
coedge $-1 $196 $196 $197 $327 reversed $121 $-1 #
coedge $-1 $197 $197 $196 $327 forward $123 $-1 #
coedge $-1 $198 $198 $124 $199 forward $193 $-1 #
edge $-1 $328 0 $328 6.2831853071796004 $198 $329 forward 7 unknown #
face $-1 $330 $331 $44 $-1 $332 reversed single #
loop $-1 $-1 $333 $125 #
plane-surface $-1 84.626283634946063 -8.6315989917775227 199.45433042489532 0 1 0 0.75470958851134928 0 0.65605901945558964 forward_v I I I I #
coedge $-1 $334 $335 $336 $337 reversed $126 $-1 #
coedge $-1 $205 $128 $338 $339 reversed $81 $-1 #
coedge $-1 $128 $204 $334 $340 reversed $81 $-1 #
coedge $-1 $336 $341 $128 $207 forward $342 $-1 #
edge $-1 $343 -28.367726128936461 $344 -13.614263473932006 $206 $345 forward 7 unknown #
loop $-1 $-1 $213 $129 #
plane-surface $-1 -22.060773891973383 -5.3539272163158671 106.71268858651246 0.75470958851134928 0 0.65605901945558964 0.65605901945558964 0 -0.75470958851134928 forward_v I I I I #
loop $-1 $-1 $346 $83 #
coedge $-1 $211 $211 $212 $347 reversed $130 $-1 #
coedge $-1 $212 $212 $211 $347 forward $132 $-1 #
coedge $-1 $213 $213 $133 $214 forward $208 $-1 #
edge $-1 $348 0 $348 6.2831853071796004 $213 $349 forward 7 unknown #
face $-1 $350 $351 $46 $-1 $352 reversed single #
loop $-1 $-1 $353 $134 #
plane-surface $-1 84.626283634946063 2.0762554408542115 199.45433042489532 0 1 0 0.75470958851134928 0 0.65605901945558964 forward_v I I I I #
coedge $-1 $354 $355 $356 $357 reversed $135 $-1 #
coedge $-1 $220 $137 $358 $359 reversed $87 $-1 #
coedge $-1 $137 $219 $354 $360 reversed $87 $-1 #
coedge $-1 $356 $361 $137 $222 forward $362 $-1 #
edge $-1 $363 -28.367726128936461 $364 -13.614263473932006 $221 $365 forward 7 unknown #
loop $-1 $-1 $228 $138 #
plane-surface $-1 -22.060773891973383 5.3539272163158671 106.71268858651246 0.75470958851134928 0 0.65605901945558964 0.65605901945558964 0 -0.75470958851134928 forward_v I I I I #
loop $-1 $-1 $366 $89 #
coedge $-1 $226 $226 $227 $367 reversed $139 $-1 #
coedge $-1 $227 $227 $226 $367 forward $141 $-1 #
coedge $-1 $228 $228 $142 $229 forward $223 $-1 #
edge $-1 $368 0 $368 6.2831853071796004 $228 $369 forward 7 unknown #
face $-1 $370 $371 $48 $-1 $372 reversed single #
loop $-1 $-1 $373 $143 #
plane-surface $-1 84.626283634946063 12.784109873485946 199.45433042489532 0 1 0 0.75470958851134928 0 0.65605901945558964 forward_v I I I I #
coedge $-1 $374 $375 $376 $377 reversed $144 $-1 #
coedge $-1 $235 $146 $378 $379 reversed $93 $-1 #
coedge $-1 $146 $234 $374 $380 reversed $93 $-1 #
coedge $-1 $376 $381 $146 $237 forward $382 $-1 #
edge $-1 $383 -28.367726128936461 $384 -13.614263473932006 $236 $385 forward 7 unknown #
loop $-1 $-1 $243 $147 #
plane-surface $-1 -22.060773891973383 16.061781648947601 106.71268858651246 0.75470958851134928 0 0.65605901945558964 0.65605901945558964 0 -0.75470958851134928 forward_v I I I I #
loop $-1 $-1 $386 $95 #
coedge $-1 $241 $241 $242 $387 reversed $148 $-1 #
coedge $-1 $242 $242 $241 $387 forward $150 $-1 #
coedge $-1 $243 $243 $151 $244 forward $238 $-1 #
edge $-1 $388 0 $388 6.2831853071796004 $243 $389 forward 7 unknown #
face $-1 $390 $391 $50 $-1 $392 reversed single #
loop $-1 $-1 $393 $152 #
plane-surface $-1 -145.59117601056789 -12.497072838606213 132.28399292795237 0 -1 0 0.52991927123019833 0 -0.84804809178421925 forward_v I I I I #
coedge $-1 $394 $395 $396 $397 reversed $153 $-1 #
coedge $-1 $250 $155 $398 $399 reversed $99 $-1 #
coedge $-1 $155 $249 $394 $400 reversed $99 $-1 #
coedge $-1 $396 $401 $155 $252 forward $402 $-1 #
edge $-1 $403 2.1147200588744539 $404 9.4684271609035804 $251 $405 forward 7 unknown #
loop $-1 $-1 $258 $156 #
plane-surface $-1 -70.680867946409492 -17.079503719958325 12.402442552742457 -0.52991927123019833 0 0.84804809178421925 0.84804809178421925 0 0.52991927123019833 forward_v I I I I #
loop $-1 $-1 $406 $101 #
coedge $-1 $256 $256 $257 $407 reversed $157 $-1 #
coedge $-1 $257 $257 $256 $407 forward $159 $-1 #
coedge $-1 $258 $258 $160 $259 forward $253 $-1 #
edge $-1 $408 0 $408 6.2831853071796004 $258 $409 forward 7 unknown #
face $-1 $410 $411 $39 $-1 $412 reversed single #
loop $-1 $-1 $413 $161 #
plane-surface $-1 -70.680867946409492 0 0 1 0 0 0 0 -1 forward_v I I I I #
coedge $-1 $414 $271 $415 $416 forward $162 $-1 #
coedge $-1 $417 $164 $414 $418 forward $105 $-1 #
coedge $-1 $164 $417 $419 $420 forward $105 $-1 #
coedge $-1 $274 $273 $164 $267 reversed $275 $-1 #
edge $-1 $421 -38.269741467672468 $422 38.269741467672468 $266 $423 forward 7 unknown #
coedge $-1 $166 $165 $424 $425 forward $66 $-1 #
coedge $-1 $426 $427 $165 $270 reversed $411 $-1 #
edge $-1 $277 -70.680867946409492 $428 70.680867946409492 $269 $429 forward 7 unknown #
coedge $-1 $263 $430 $166 $272 reversed $162 $-1 #
edge $-1 $431 -70.680867946409492 $276 70.680867946409492 $271 $432 forward 7 unknown #
coedge $-1 $266 $167 $430 $433 forward $275 $-1 #
coedge $-1 $167 $266 $426 $434 reversed $275 $-1 #
loop $-1 $-1 $273 $410 #
vertex $-1 $168 $435 #
vertex $-1 $168 $436 #
straight-curve $-1 70.680867946409492 0 16.997548828082255 0 1 0 I I #
face $-1 $437 $438 $40 $-1 $439 reversed single #
loop $-1 $-1 $285 $169 #
plane-surface $-1 70.680867946409492 0 0 -1 0 0 0 0 1 forward_v I I I I #
coedge $-1 $440 $441 $283 $442 forward $170 $-1 #
coedge $-1 $443 $172 $282 $442 reversed $109 $-1 #
coedge $-1 $172 $443 $173 $288 reversed $109 $-1 #
coedge $-1 $175 $444 $172 $286 forward $280 $-1 #
edge $-1 $445 -9.8022898586239862 $292 -4.5882280802925548 $285 $446 forward 7 unknown #
coedge $-1 $174 $173 $447 $448 reversed $69 $-1 #
edge $-1 $292 -70.680867946409492 $449 70.680867946409492 $284 $450 forward 7 unknown #
coedge $-1 $451 $452 $174 $290 forward $438 $-1 #
edge $-1 $293 -70.680867946409492 $453 70.680867946409492 $289 $454 forward 7 unknown #
coedge $-1 $444 $175 $452 $455 forward $280 $-1 #
vertex $-1 $176 $456 #
vertex $-1 $455 $457 #
straight-curve $-1 70.680867946409492 -15.959490303661092 -11.783487049750825 0 -1 0 I I #
face $-1 $458 $459 $41 $-1 $460 reversed single #
loop $-1 $-1 $461 $177 #
plane-surface $-1 0 0 -16.997548828082255 0 0 1 1 0 0 forward_v I I I I #
coedge $-1 $462 $180 $461 $463 reversed $113 $-1 #
coedge $-1 $180 $462 $182 $305 reversed $113 $-1 #
coedge $-1 $464 $465 $180 $301 forward $459 $-1 #
edge $-1 $466 -9.8022898586239862 $467 -4.5882280802925548 $300 $468 forward 7 unknown #
coedge $-1 $182 $181 $464 $469 reversed $72 $-1 #
coedge $-1 $470 $471 $181 $304 forward $472 $-1 #
edge $-1 $473 -70.680867946409492 $308 70.680867946409492 $303 $474 forward 7 unknown #
edge $-1 $467 -70.680867946409492 $309 70.680867946409492 $299 $475 forward 7 unknown #
coedge $-1 $476 $183 $462 $477 forward $178 $-1 #
coedge $-1 $183 $476 $470 $478 reversed $178 $-1 #
vertex $-1 $478 $479 #
vertex $-1 $184 $480 #
straight-curve $-1 70.680867946409492 15.959490303661088 -11.783487049750825 0 -1 0 I I #
face $-1 $-1 $481 $42 $-1 $482 reversed single #
loop $-1 $-1 $191 $185 #
plane-surface $-1 0 0 16.997548828082255 0 0 1 1 0 0 forward_v I I I I #
coedge $-1 $483 $484 $485 $486 reversed $186 $-1 #
coedge $-1 $487 $188 $190 $321 forward $117 $-1 #
coedge $-1 $188 $487 $483 $488 forward $117 $-1 #
coedge $-1 $485 $191 $188 $318 forward $312 $-1 #
edge $-1 $324 4.7532190490121469 $489 11.308562599935458 $317 $490 forward 7 unknown #
coedge $-1 $491 $492 $189 $320 forward $481 $-1 #
edge $-1 $493 -99.701534152854663 $323 -82.7296163843654 $319 $494 forward 7 unknown #
edge $-1 $324 118.87372457449716 $493 141.36173589281904 $190 $495 forward 7 unknown #
coedge $-1 $191 $485 $491 $496 forward $312 $-1 #
vertex $-1 $320 $497 #
vertex $-1 $192 $498 #
straight-curve $-1 42.313141817473031 -12.784109873485949 16.997548828082259 -1 0 0 I I #
coedge $-1 $326 $326 $-1 $499 reversed $195 $-1 #
edge $-1 $500 0 $500 6.2831853071796004 $196 $501 forward 7 unknown #
vertex $-1 $199 $502 #
ellipse-curve $-1 63.304136618907265 -16.061781648947605 8.5115899438376346 0.75470958851134928 0 0.65605901945558964 0.65605901945558964 0 -0.75470958851134928 1 I I #
face $-1 $-1 $342 $44 $-1 $503 forward single #
loop $-1 $-1 $504 $200 #
plane-surface $-1 70.680867946409492 0 0 -1 0 0 0 0 1 forward_v I I I I #
coedge $-1 $505 $506 $507 $508 reversed $201 $-1 #
coedge $-1 $509 $203 $205 $340 forward $126 $-1 #
coedge $-1 $203 $509 $505 $510 forward $126 $-1 #
coedge $-1 $507 $206 $203 $337 forward $342 $-1 #
edge $-1 $344 -0.60070816730372201 $511 5.9546353836195891 $336 $512 forward 7 unknown #
coedge $-1 $513 $514 $204 $339 forward $331 $-1 #
edge $-1 $515 -99.701534152854663 $343 -82.7296163843654 $338 $516 forward 7 unknown #
edge $-1 $344 118.87372457449716 $515 141.36173589281904 $205 $517 forward 7 unknown #
coedge $-1 $206 $507 $513 $518 forward $342 $-1 #
loop $-1 $-1 $507 $330 #
vertex $-1 $339 $519 #
vertex $-1 $207 $520 #
straight-curve $-1 42.313141817473031 -2.0762554408542115 16.997548828082259 -1 0 0 I I #
coedge $-1 $346 $346 $-1 $521 reversed $210 $-1 #
edge $-1 $522 0 $522 6.2831853071796004 $211 $523 forward 7 unknown #
vertex $-1 $214 $524 #
ellipse-curve $-1 63.304136618907265 -5.3539272163158671 8.5115899438376346 0.75470958851134928 0 0.65605901945558964 0.65605901945558964 0 -0.75470958851134928 1 I I #
face $-1 $-1 $362 $46 $-1 $525 forward single #
loop $-1 $-1 $526 $215 #
plane-surface $-1 70.680867946409492 0 0 -1 0 0 0 0 1 forward_v I I I I #
coedge $-1 $527 $528 $529 $530 reversed $216 $-1 #
coedge $-1 $531 $218 $220 $360 forward $135 $-1 #
coedge $-1 $218 $531 $527 $532 forward $135 $-1 #
coedge $-1 $529 $221 $218 $357 forward $362 $-1 #
edge $-1 $364 -5.9546353836195891 $533 0.60070816730372201 $356 $534 forward 7 unknown #
coedge $-1 $535 $536 $219 $359 forward $351 $-1 #
edge $-1 $537 -99.701534152854663 $363 -82.7296163843654 $358 $538 forward 7 unknown #
edge $-1 $364 118.87372457449716 $537 141.36173589281904 $220 $539 forward 7 unknown #
coedge $-1 $221 $529 $535 $540 forward $362 $-1 #
loop $-1 $-1 $529 $350 #
vertex $-1 $359 $541 #
vertex $-1 $222 $542 #
straight-curve $-1 42.313141817473031 8.6315989917775227 16.997548828082259 -1 0 0 I I #
coedge $-1 $366 $366 $-1 $543 reversed $225 $-1 #
edge $-1 $544 0 $544 6.2831853071796004 $226 $545 forward 7 unknown #
vertex $-1 $229 $546 #
ellipse-curve $-1 63.304136618907265 5.3539272163158671 8.5115899438376346 0.75470958851134928 0 0.65605901945558964 0.65605901945558964 0 -0.75470958851134928 1 I I #
face $-1 $-1 $382 $48 $-1 $547 forward single #
loop $-1 $-1 $548 $230 #
plane-surface $-1 70.680867946409492 0 0 -1 0 0 0 0 1 forward_v I I I I #
coedge $-1 $549 $550 $551 $552 reversed $231 $-1 #
coedge $-1 $553 $233 $235 $380 forward $144 $-1 #
coedge $-1 $233 $553 $549 $554 forward $144 $-1 #
coedge $-1 $551 $236 $233 $377 forward $382 $-1 #
edge $-1 $384 -11.308562599935456 $555 -4.7532190490121451 $376 $556 forward 7 unknown #
coedge $-1 $557 $558 $234 $379 forward $371 $-1 #
edge $-1 $559 -99.701534152854663 $383 -82.7296163843654 $378 $560 forward 7 unknown #
edge $-1 $384 118.87372457449716 $559 141.36173589281904 $235 $561 forward 7 unknown #
coedge $-1 $236 $551 $557 $562 forward $382 $-1 #
loop $-1 $-1 $551 $370 #
vertex $-1 $379 $563 #
vertex $-1 $237 $564 #
straight-curve $-1 42.313141817473031 19.339453424409257 16.997548828082259 -1 0 0 I I #
coedge $-1 $386 $386 $-1 $565 reversed $240 $-1 #
edge $-1 $566 0 $566 6.2831853071796004 $241 $567 forward 7 unknown #
vertex $-1 $244 $568 #
ellipse-curve $-1 63.304136618907265 16.061781648947601 8.5115899438376346 0.75470958851134928 0 0.65605901945558964 0.65605901945558964 0 -0.75470958851134928 1 I I #
face $-1 $-1 $402 $50 $-1 $569 forward single #
loop $-1 $-1 $570 $245 #
plane-surface $-1 -70.680867946409492 0 0 1 0 0 0 0 -1 forward_v I I I I #
coedge $-1 $571 $572 $573 $574 reversed $246 $-1 #
coedge $-1 $575 $248 $250 $400 forward $153 $-1 #
coedge $-1 $248 $575 $571 $576 forward $153 $-1 #
coedge $-1 $573 $251 $248 $397 forward $402 $-1 #
edge $-1 $404 -13.122182741331272 $577 -3.9573209786270507 $396 $578 forward 7 unknown #
coedge $-1 $579 $580 $249 $399 forward $391 $-1 #
edge $-1 $581 -53.739553911233727 $403 -49.144447635893926 $398 $582 forward 7 unknown #
edge $-1 $404 -8.6713326440692384 $581 0 $250 $583 forward 7 unknown #
coedge $-1 $251 $573 $579 $584 forward $402 $-1 #
loop $-1 $-1 $573 $390 #
vertex $-1 $399 $585 #
vertex $-1 $252 $586 #
straight-curve $-1 -72.795588005283946 -21.661934601310435 16.997548828082259 1 0 0 I I #
coedge $-1 $406 $406 $-1 $587 reversed $255 $-1 #
edge $-1 $588 0 $588 6.2831853071796004 $256 $589 forward 7 unknown #
vertex $-1 $259 $590 #
ellipse-curve $-1 -67.004014395394933 -17.079503719958328 14.699995690412356 -0.52991927123019833 0 0.84804809178421925 0.84804809178421925 0 0.52991927123019833 1 I I #
face $-1 $-1 $275 $39 $-1 $591 reversed single #
loop $-1 $-1 $426 $260 #
plane-surface $-1 0 38.269741467672468 0 0 -1 0 0 0 -1 forward_v I I I I #
coedge $-1 $592 $424 $427 $593 forward $261 $-1 #
coedge $-1 $430 $263 $264 $418 reversed $162 $-1 #
coedge $-1 $424 $592 $263 $416 reversed $261 $-1 #
edge $-1 $431 -16.997548828082255 $594 16.997548828082255 $415 $595 forward 7 unknown #
coedge $-1 $265 $264 $592 $596 forward $105 $-1 #
edge $-1 $422 -70.680867946409492 $594 70.680867946409492 $414 $597 forward 7 unknown #
coedge $-1 $427 $426 $265 $420 reversed $411 $-1 #
edge $-1 $598 -70.680867946409492 $421 70.680867946409492 $419 $599 forward 7 unknown #
vertex $-1 $267 $600 #
vertex $-1 $433 $601 #
straight-curve $-1 70.680867946409492 0 -16.997548828082255 0 -1 0 I I #
coedge $-1 $413 $415 $268 $425 reversed $261 $-1 #
edge $-1 $428 -38.269741467672468 $431 38.269741467672468 $424 $602 forward 7 unknown #
coedge $-1 $419 $269 $274 $434 forward $411 $-1 #
coedge $-1 $269 $419 $413 $593 reversed $411 $-1 #
vertex $-1 $270 $603 #
straight-curve $-1 0 38.269741467672468 16.997548828082255 -1 0 0 I I #
coedge $-1 $271 $414 $273 $433 reversed $162 $-1 #
vertex $-1 $425 $604 #
straight-curve $-1 0 -38.269741467672468 16.997548828082255 1 0 0 I I #
edge $-1 $276 -16.997548828082255 $422 16.997548828082255 $273 $605 forward 7 unknown #
edge $-1 $277 -16.997548828082255 $421 16.997548828082255 $274 $606 forward 7 unknown #
point $-1 70.680867946409492 -38.269741467672468 16.997548828082255 #
point $-1 70.680867946409492 38.269741467672468 16.997548828082255 #
face $-1 $-1 $607 $40 $-1 $608 reversed single #
loop $-1 $-1 $289 $279 #
plane-surface $-1 0 -38.269741467672468 0 0 1 0 0 0 1 forward_v I I I I #
coedge $-1 $609 $282 $444 $610 forward $170 $-1 #
coedge $-1 $282 $609 $611 $612 forward $170 $-1 #
edge $-1 $613 -70.680867946409492 $445 70.680867946409492 $282 $614 forward 7 unknown #
coedge $-1 $284 $283 $615 $616 reversed $109 $-1 #
coedge $-1 $285 $291 $440 $610 reversed $280 $-1 #
vertex $-1 $610 $617 #
straight-curve $-1 70.680867946409492 -25.568219746971899 -7.19525896945827 0 0 1 I I #
coedge $-1 $615 $618 $287 $448 forward $607 $-1 #
edge $-1 $453 -22.310251164011376 $449 -9.608729443310807 $447 $619 forward 7 unknown #
vertex $-1 $448 $620 #
straight-curve $-1 0 -25.568219746971899 -11.783487049750825 -1 0 0 I I #
coedge $-1 $621 $289 $618 $622 forward $438 $-1 #
coedge $-1 $289 $621 $291 $455 reversed $438 $-1 #
vertex $-1 $622 $623 #
straight-curve $-1 0 -38.269741467672468 -11.783487049750825 -1 0 0 I I #
edge $-1 $293 11.783487049750825 $624 16.997548828082255 $291 $625 forward 7 unknown #
point $-1 70.680867946409492 -25.568219746971899 -11.783487049750825 #
point $-1 70.680867946409492 -38.269741467672468 -11.783487049750825 #
face $-1 $-1 $472 $41 $-1 $626 reversed single #
loop $-1 $-1 $464 $295 #
plane-surface $-1 -70.680867946409492 0 0 1 0 0 0 0 -1 forward_v I I I I #
coedge $-1 $627 $628 $298 $463 forward $296 $-1 #
coedge $-1 $299 $298 $306 $477 reversed $113 $-1 #
edge $-1 $629 -70.680867946409492 $466 70.680867946409492 $461 $630 forward 7 unknown #
coedge $-1 $631 $300 $302 $469 forward $459 $-1 #
coedge $-1 $300 $631 $627 $632 reversed $459 $-1 #
vertex $-1 $632 $633 #
vertex $-1 $469 $634 #
straight-curve $-1 -70.680867946409492 25.568219746971891 -7.19525896945827 0 0 1 I I #
edge $-1 $467 9.6087294433108035 $473 22.310251164011373 $464 $635 forward 7 unknown #
coedge $-1 $636 $303 $307 $478 forward $472 $-1 #
coedge $-1 $303 $636 $631 $637 reversed $472 $-1 #
loop $-1 $-1 $303 $458 #
vertex $-1 $637 $638 #
straight-curve $-1 0 38.269741467672468 -11.783487049750825 1 0 0 I I #
straight-curve $-1 0 25.568219746971891 -11.783487049750825 1 0 0 I I #
coedge $-1 $307 $306 $628 $639 reversed $178 $-1 #
edge $-1 $309 4.5882280802925548 $629 9.8022898586239862 $306 $640 forward 7 unknown #
edge $-1 $308 11.783487049750825 $641 16.997548828082255 $307 $642 forward 7 unknown #
point $-1 70.680867946409492 38.269741467672461 -11.783487049750825 #
point $-1 70.680867946409492 25.568219746971891 -11.783487049750825 #
loop $-1 $-1 $319 $311 #
plane-surface $-1 70.680867946409492 0 0 -1 0 0 0 0 1 forward_v I I I I #
coedge $-1 $484 $314 $316 $488 reversed $186 $-1 #
coedge $-1 $314 $483 $643 $644 reversed $186 $-1 #
coedge $-1 $322 $317 $314 $486 forward $312 $-1 #
edge $-1 $489 13.614263473932006 $645 28.367726128936461 $485 $646 forward 7 unknown #
coedge $-1 $316 $315 $492 $647 reversed $117 $-1 #
edge $-1 $648 -141.36173589281904 $489 -118.87372457449716 $483 $649 forward 7 unknown #
vertex $-1 $318 $650 #
straight-curve $-1 55.927405291405037 -8.0308908244738024 16.997548828082259 0 -1 0 I I #
coedge $-1 $643 $319 $322 $496 reversed $481 $-1 #
coedge $-1 $319 $643 $487 $647 forward $481 $-1 #
vertex $-1 $320 $651 #
straight-curve $-1 70.680867946409492 -12.784109873485949 99.727165212447659 0 0 1 I I #
straight-curve $-1 -22.060773891973383 -12.784109873485949 106.71268858651246 0.65605901945558964 0 -0.75470958851134928 I I #
edge $-1 $645 -19.33945342440926 $323 -12.784109873485949 $491 $652 forward 7 unknown #
point $-1 70.680867946409492 -12.784109873485949 16.997548828082255 #
point $-1 55.927405291405037 -12.784109873485949 16.997548828082259 #
edge $-1 $653 1 $653 0 $326 $-1 forward 7 unknown #
vertex $-1 $327 $654 #
ellipse-curve $-1 60.915194130415891 -16.061781648947605 6.4349139741750605 0.75470958851134928 0 0.65605901945558964 0.65605901945558964 0 -0.75470958851134928 1 I I #
point $-1 63.960195638362862 -16.061781648947605 7.7568803553262908 #
plane-surface $-1 0 0 16.997548828082255 0 0 1 1 0 0 forward_v I I I I #
coedge $-1 $514 $513 $506 $655 forward $331 $-1 #
coedge $-1 $506 $333 $335 $510 reversed $201 $-1 #
coedge $-1 $333 $505 $504 $655 reversed $201 $-1 #
coedge $-1 $341 $336 $333 $508 forward $342 $-1 #
edge $-1 $511 13.614263473932006 $656 28.367726128936461 $507 $657 forward 7 unknown #
coedge $-1 $335 $334 $514 $658 reversed $126 $-1 #
edge $-1 $659 -141.36173589281904 $511 -118.87372457449716 $505 $660 forward 7 unknown #
vertex $-1 $337 $661 #
straight-curve $-1 55.927405291405037 -2.6769636081579335 16.997548828082259 0 -1 0 I I #
coedge $-1 $504 $338 $341 $518 reversed $331 $-1 #
coedge $-1 $338 $504 $509 $658 forward $331 $-1 #
vertex $-1 $339 $662 #
straight-curve $-1 70.680867946409492 -2.0762554408542115 99.727165212447659 0 0 1 I I #
straight-curve $-1 -22.060773891973383 -2.0762554408542115 106.71268858651246 0.65605901945558964 0 -0.75470958851134928 I I #
edge $-1 $656 -8.6315989917775227 $343 -2.0762554408542115 $513 $663 forward 7 unknown #
point $-1 70.680867946409492 -2.0762554408542115 16.997548828082255 #
point $-1 55.927405291405037 -2.0762554408542115 16.997548828082259 #
edge $-1 $664 1 $664 0 $346 $-1 forward 7 unknown #
vertex $-1 $347 $665 #
ellipse-curve $-1 60.915194130415891 -5.3539272163158671 6.4349139741750605 0.75470958851134928 0 0.65605901945558964 0.65605901945558964 0 -0.75470958851134928 1 I I #
point $-1 63.960195638362862 -5.3539272163158671 7.7568803553262908 #
plane-surface $-1 0 0 16.997548828082255 0 0 1 1 0 0 forward_v I I I I #
coedge $-1 $536 $535 $528 $666 forward $351 $-1 #
coedge $-1 $528 $353 $355 $532 reversed $216 $-1 #
coedge $-1 $353 $527 $526 $666 reversed $216 $-1 #
coedge $-1 $361 $356 $353 $530 forward $362 $-1 #
edge $-1 $533 13.614263473932006 $667 28.367726128936461 $529 $668 forward 7 unknown #
coedge $-1 $355 $354 $536 $669 reversed $135 $-1 #
edge $-1 $670 -141.36173589281904 $533 -118.87372457449716 $527 $671 forward 7 unknown #
vertex $-1 $357 $672 #
straight-curve $-1 55.927405291405037 2.6769636081579335 16.997548828082259 0 -1 0 I I #
coedge $-1 $526 $358 $361 $540 reversed $351 $-1 #
coedge $-1 $358 $526 $531 $669 forward $351 $-1 #
vertex $-1 $359 $673 #
straight-curve $-1 70.680867946409492 8.6315989917775227 99.727165212447659 0 0 1 I I #
straight-curve $-1 -22.060773891973383 8.6315989917775227 106.71268858651246 0.65605901945558964 0 -0.75470958851134928 I I #
edge $-1 $667 2.0762554408542115 $363 8.6315989917775227 $535 $674 forward 7 unknown #
point $-1 70.680867946409492 8.6315989917775227 16.997548828082255 #
point $-1 55.927405291405037 8.6315989917775227 16.997548828082259 #
edge $-1 $675 1 $675 0 $366 $-1 forward 7 unknown #
vertex $-1 $367 $676 #
ellipse-curve $-1 60.915194130415891 5.3539272163158671 6.4349139741750605 0.75470958851134928 0 0.65605901945558964 0.65605901945558964 0 -0.75470958851134928 1 I I #
point $-1 63.960195638362862 5.3539272163158671 7.7568803553262908 #
plane-surface $-1 0 0 16.997548828082255 0 0 1 1 0 0 forward_v I I I I #
coedge $-1 $558 $557 $550 $677 forward $371 $-1 #
coedge $-1 $550 $373 $375 $554 reversed $231 $-1 #
coedge $-1 $373 $549 $548 $677 reversed $231 $-1 #
coedge $-1 $381 $376 $373 $552 forward $382 $-1 #
edge $-1 $555 13.614263473932006 $678 28.367726128936461 $551 $679 forward 7 unknown #
coedge $-1 $375 $374 $558 $680 reversed $144 $-1 #
edge $-1 $681 -141.36173589281904 $555 -118.87372457449716 $549 $682 forward 7 unknown #
vertex $-1 $377 $683 #
straight-curve $-1 55.927405291405037 8.0308908244738006 16.997548828082259 0 -1 0 I I #
coedge $-1 $548 $378 $381 $562 reversed $371 $-1 #
coedge $-1 $378 $548 $553 $680 forward $371 $-1 #
vertex $-1 $379 $684 #
straight-curve $-1 70.680867946409492 19.339453424409257 99.727165212447659 0 0 1 I I #
straight-curve $-1 -22.060773891973383 19.339453424409257 106.71268858651246 0.65605901945558964 0 -0.75470958851134928 I I #
edge $-1 $678 12.784109873485946 $383 19.339453424409257 $557 $685 forward 7 unknown #
point $-1 70.680867946409492 19.339453424409257 16.997548828082255 #
point $-1 55.927405291405037 19.339453424409257 16.997548828082259 #
edge $-1 $686 1 $686 0 $386 $-1 forward 7 unknown #
vertex $-1 $387 $687 #
ellipse-curve $-1 60.915194130415891 16.061781648947601 6.4349139741750605 0.75470958851134928 0 0.65605901945558964 0.65605901945558964 0 -0.75470958851134928 1 I I #
point $-1 63.960195638362862 16.061781648947601 7.7568803553262908 #
plane-surface $-1 0 0 16.997548828082255 0 0 1 1 0 0 forward_v I I I I #
coedge $-1 $580 $579 $572 $688 forward $391 $-1 #
coedge $-1 $572 $393 $395 $576 reversed $246 $-1 #
coedge $-1 $393 $571 $570 $688 reversed $246 $-1 #
coedge $-1 $401 $396 $393 $574 forward $402 $-1 #
edge $-1 $577 -9.4684271609035804 $689 -2.1147200588744539 $573 $690 forward 7 unknown #
coedge $-1 $395 $394 $580 $691 reversed $153 $-1 #
edge $-1 $692 0 $577 8.6713326440692384 $571 $693 forward 7 unknown #
vertex $-1 $397 $694 #
straight-curve $-1 -63.327160844380373 -8.5397518599791624 16.997548828082252 0 1 0 I I #
coedge $-1 $570 $398 $401 $584 reversed $391 $-1 #
coedge $-1 $398 $570 $575 $691 forward $391 $-1 #
vertex $-1 $399 $695 #
straight-curve $-1 -70.680867946409492 -21.661934601310435 66.141996463976184 0 0 1 I I #
straight-curve $-1 -70.680867946409492 -21.661934601310435 12.402442552742457 -0.84804809178421925 0 -0.52991927123019833 I I #
edge $-1 $689 12.497072838606213 $403 21.661934601310435 $579 $696 forward 7 unknown #
point $-1 -70.680867946409492 -21.661934601310435 16.997548828082255 #
point $-1 -63.327160844380366 -21.661934601310435 16.997548828082255 #
edge $-1 $697 1 $697 0 $406 $-1 forward 7 unknown #
vertex $-1 $407 $698 #
ellipse-curve $-1 -65.777050826264627 -17.079503719958328 12.736443560907516 -0.52991927123019833 0 0.84804809178421925 0.84804809178421925 0 0.52991927123019833 1 I I #
point $-1 -66.155966303610711 -17.079503719958328 15.229914961642558 #
plane-surface $-1 70.680867946409492 0 0 -1 0 0 0 0 1 forward_v I I I I #
coedge $-1 $415 $413 $417 $596 reversed $261 $-1 #
edge $-1 $428 -16.997548828082255 $598 16.997548828082255 $427 $699 forward 7 unknown #
vertex $-1 $596 $700 #
straight-curve $-1 -70.680867946409492 -38.269741467672468 0 0 0 -1 I I #
edge $-1 $594 -38.269741467672468 $598 38.269741467672468 $592 $701 forward 7 unknown #
straight-curve $-1 0 -38.269741467672468 -16.997548828082255 -1 0 0 I I #
vertex $-1 $420 $702 #
straight-curve $-1 0 38.269741467672468 -16.997548828082255 1 0 0 I I #
point $-1 70.680867946409492 38.269741467672468 -16.997548828082255 #
point $-1 70.680867946409492 -38.269741467672468 -16.997548828082255 #
straight-curve $-1 -70.680867946409492 0 16.997548828082255 0 -1 0 I I #
point $-1 -70.680867946409492 38.269741467672468 16.997548828082255 #
point $-1 -70.680867946409492 -38.269741467672468 16.997548828082255 #
straight-curve $-1 70.680867946409492 -38.269741467672468 0 0 0 -1 I I #
straight-curve $-1 70.680867946409492 38.269741467672468 0 0 0 -1 I I #
loop $-1 $-1 $615 $437 #
plane-surface $-1 -70.680867946409492 0 0 1 0 0 0 0 -1 forward_v I I I I #
coedge $-1 $441 $440 $621 $703 forward $170 $-1 #
edge $-1 $445 25.568219746971899 $624 38.269741467672468 $444 $704 forward 7 unknown #
coedge $-1 $618 $615 $441 $612 reversed $607 $-1 #
edge $-1 $705 -38.269741467672468 $613 -25.568219746971899 $611 $706 forward 7 unknown #
vertex $-1 $616 $707 #
straight-curve $-1 0 -25.568219746971899 -16.997548828082255 1 0 0 I I #
coedge $-1 $611 $447 $443 $616 forward $607 $-1 #
edge $-1 $449 4.5882280802925548 $613 9.8022898586239862 $615 $708 forward 7 unknown #
point $-1 70.680867946409492 -25.568219746971899 -16.997548828082255 #
coedge $-1 $447 $611 $451 $622 reversed $607 $-1 #
straight-curve $-1 -70.680867946409492 -15.959490303661092 -11.783487049750825 0 1 0 I I #
point $-1 -70.680867946409492 -25.568219746971899 -11.783487049750825 #
coedge $-1 $452 $451 $609 $703 reversed $438 $-1 #
edge $-1 $453 11.783487049750825 $705 16.997548828082255 $618 $709 forward 7 unknown #
point $-1 -70.680867946409492 -38.269741467672468 -11.783487049750825 #
vertex $-1 $455 $710 #
straight-curve $-1 70.680867946409492 -38.269741467672468 0 0 0 -1 I I #
plane-surface $-1 0 38.269741467672468 0 0 -1 0 0 0 -1 forward_v I I I I #
coedge $-1 $711 $461 $465 $632 forward $296 $-1 #
coedge $-1 $461 $711 $476 $639 forward $296 $-1 #
vertex $-1 $463 $712 #
straight-curve $-1 0 25.568219746971891 -16.997548828082255 -1 0 0 I I #
coedge $-1 $465 $464 $471 $637 forward $459 $-1 #
edge $-1 $466 25.568219746971891 $713 38.269741467672468 $465 $714 forward 7 unknown #
point $-1 -70.680867946409492 25.568219746971891 -16.997548828082255 #
point $-1 -70.680867946409492 25.568219746971891 -11.783487049750825 #
straight-curve $-1 -70.680867946409492 15.959490303661088 -11.783487049750825 0 1 0 I I #
coedge $-1 $471 $470 $711 $715 reversed $472 $-1 #
edge $-1 $473 11.783487049750825 $713 16.997548828082255 $471 $716 forward 7 unknown #
point $-1 -70.680867946409492 38.269741467672461 -11.783487049750825 #
edge $-1 $641 -38.269741467672468 $629 -25.568219746971891 $476 $717 forward 7 unknown #
straight-curve $-1 70.680867946409492 25.568219746971891 -7.19525896945827 0 0 -1 I I #
vertex $-1 $639 $718 #
straight-curve $-1 70.680867946409492 38.269741467672468 0 0 0 -1 I I #
coedge $-1 $492 $491 $484 $644 forward $481 $-1 #
edge $-1 $645 82.7296163843654 $648 99.701534152854663 $643 $719 forward 7 unknown #
vertex $-1 $496 $720 #
straight-curve $-1 42.313141817473031 -19.33945342440926 16.997548828082259 1 0 0 I I #
edge $-1 $648 -11.308562599935458 $493 -4.7532190490121469 $492 $721 forward 7 unknown #
vertex $-1 $647 $722 #
straight-curve $-1 -22.060773891973383 -19.33945342440926 106.71268858651246 -0.65605901945558964 0 0.75470958851134928 I I #
point $-1 55.927405291405037 -19.33945342440926 16.997548828082259 #
point $-1 70.680867946409492 -12.784109873485949 0.025631059592996053 #
straight-curve $-1 70.680867946409492 0 16.997548828082255 0 1 0 I I #
vertex $-1 $499 $723 #
point $-1 61.571253149871481 -16.061781648947605 5.6802043856637114 #
edge $-1 $656 82.7296163843654 $659 99.701534152854663 $504 $724 forward 7 unknown #
vertex $-1 $518 $725 #
straight-curve $-1 42.313141817473031 -8.6315989917775227 16.997548828082259 1 0 0 I I #
edge $-1 $659 -5.9546353836195891 $515 0.60070816730372201 $514 $726 forward 7 unknown #
vertex $-1 $658 $727 #
straight-curve $-1 -22.060773891973383 -8.6315989917775227 106.71268858651246 -0.65605901945558964 0 0.75470958851134928 I I #
point $-1 55.927405291405037 -8.6315989917775227 16.997548828082259 #
point $-1 70.680867946409492 -2.0762554408542115 0.025631059592996053 #
straight-curve $-1 70.680867946409492 0 16.997548828082255 0 1 0 I I #
vertex $-1 $521 $728 #
point $-1 61.571253149871481 -5.3539272163158671 5.6802043856637114 #
edge $-1 $667 82.7296163843654 $670 99.701534152854663 $526 $729 forward 7 unknown #
vertex $-1 $540 $730 #
straight-curve $-1 42.313141817473031 2.0762554408542115 16.997548828082259 1 0 0 I I #
edge $-1 $670 -0.60070816730372201 $537 5.9546353836195891 $536 $731 forward 7 unknown #
vertex $-1 $669 $732 #
straight-curve $-1 -22.060773891973383 2.0762554408542115 106.71268858651246 -0.65605901945558964 0 0.75470958851134928 I I #
point $-1 55.927405291405037 2.0762554408542115 16.997548828082259 #
point $-1 70.680867946409492 8.6315989917775227 0.025631059592996053 #
straight-curve $-1 70.680867946409492 0 16.997548828082255 0 1 0 I I #
vertex $-1 $543 $733 #
point $-1 61.571253149871481 5.3539272163158671 5.6802043856637114 #
edge $-1 $678 82.7296163843654 $681 99.701534152854663 $548 $734 forward 7 unknown #
vertex $-1 $562 $735 #
straight-curve $-1 42.313141817473031 12.784109873485946 16.997548828082259 1 0 0 I I #
edge $-1 $681 4.7532190490121451 $559 11.308562599935456 $558 $736 forward 7 unknown #
vertex $-1 $680 $737 #
straight-curve $-1 -22.060773891973383 12.784109873485946 106.71268858651246 -0.65605901945558964 0 0.75470958851134928 I I #
point $-1 55.927405291405037 12.784109873485946 16.997548828082259 #
point $-1 70.680867946409492 19.339453424409257 0.025631059592996053 #
straight-curve $-1 70.680867946409492 0 16.997548828082255 0 1 0 I I #
vertex $-1 $565 $738 #
point $-1 61.571253149871481 16.061781648947601 5.6802043856637114 #
edge $-1 $689 49.144447635893926 $692 53.739553911233727 $570 $739 forward 7 unknown #
vertex $-1 $584 $740 #
straight-curve $-1 -72.795588005283946 -12.497072838606213 16.997548828082259 -1 0 0 I I #
edge $-1 $692 3.9573209786270507 $581 13.122182741331272 $580 $741 forward 7 unknown #
vertex $-1 $691 $742 #
straight-curve $-1 -70.680867946409492 -12.497072838606213 12.402442552742457 0.84804809178421925 0 0.52991927123019833 I I #
point $-1 -63.327160844380366 -12.497072838606213 16.997548828082255 #
point $-1 -70.680867946409492 -21.661934601310435 12.402442552742457 #
straight-curve $-1 -70.680867946409492 0 16.997548828082255 0 -1 0 I I #
vertex $-1 $587 $743 #
point $-1 -64.929002734480406 -17.079503719958328 13.266362832137714 #
straight-curve $-1 -70.680867946409492 38.269741467672468 0 0 0 -1 I I #
point $-1 -70.680867946409492 -38.269741467672468 -16.997548828082255 #
straight-curve $-1 -70.680867946409492 0 -16.997548828082255 0 1 0 I I #
point $-1 -70.680867946409492 38.269741467672468 -16.997548828082255 #
edge $-1 $624 -70.680867946409492 $705 70.680867946409492 $621 $744 forward 7 unknown #
straight-curve $-1 70.680867946409492 0 -16.997548828082255 0 -1 0 I I #
vertex $-1 $612 $745 #
straight-curve $-1 -70.680867946409492 0 -16.997548828082255 0 1 0 I I #
point $-1 -70.680867946409492 -25.568219746971899 -16.997548828082255 #
straight-curve $-1 -70.680867946409492 -25.568219746971899 -7.19525896945827 0 0 -1 I I #
straight-curve $-1 -70.680867946409492 -38.269741467672468 0 0 0 -1 I I #
point $-1 70.680867946409492 -38.269741467672468 -16.997548828082255 #
coedge $-1 $628 $627 $636 $715 forward $296 $-1 #
point $-1 70.680867946409492 25.568219746971891 -16.997548828082255 #
vertex $-1 $715 $746 #
straight-curve $-1 -70.680867946409492 0 -16.997548828082255 0 1 0 I I #
edge $-1 $713 -70.680867946409492 $641 70.680867946409492 $636 $747 forward 7 unknown #
straight-curve $-1 -70.680867946409492 38.269741467672468 0 0 0 -1 I I #
straight-curve $-1 70.680867946409492 0 -16.997548828082255 0 -1 0 I I #
point $-1 70.680867946409492 38.269741467672468 -16.997548828082255 #
straight-curve $-1 70.680867946409492 -19.33945342440926 99.727165212447659 0 0 -1 I I #
point $-1 70.680867946409492 -19.33945342440926 16.997548828082255 #
straight-curve $-1 70.680867946409492 -8.0308908244738024 0.025631059592996053 0 1 0 I I #
point $-1 70.680867946409492 -19.33945342440926 0.025631059592996053 #
point $-1 60.160484541904545 -16.061781648947605 5.7788549547194705 #
straight-curve $-1 70.680867946409492 -8.6315989917775227 99.727165212447659 0 0 -1 I I #
point $-1 70.680867946409492 -8.6315989917775227 16.997548828082255 #
straight-curve $-1 70.680867946409492 -2.6769636081579335 0.025631059592996053 0 1 0 I I #
point $-1 70.680867946409492 -8.6315989917775227 0.025631059592996053 #
point $-1 60.160484541904545 -5.3539272163158671 5.7788549547194705 #
straight-curve $-1 70.680867946409492 2.0762554408542115 99.727165212447659 0 0 -1 I I #
point $-1 70.680867946409492 2.0762554408542115 16.997548828082255 #
straight-curve $-1 70.680867946409492 2.6769636081579335 0.025631059592996053 0 1 0 I I #
point $-1 70.680867946409492 2.0762554408542115 0.025631059592996053 #
point $-1 60.160484541904545 5.3539272163158671 5.7788549547194705 #
straight-curve $-1 70.680867946409492 12.784109873485946 99.727165212447659 0 0 -1 I I #
point $-1 70.680867946409492 12.784109873485946 16.997548828082255 #
straight-curve $-1 70.680867946409492 8.0308908244738006 0.025631059592996053 0 1 0 I I #
point $-1 70.680867946409492 12.784109873485946 0.025631059592996053 #
point $-1 60.160484541904545 16.061781648947601 5.7788549547194705 #
straight-curve $-1 -70.680867946409492 -12.497072838606213 66.141996463976184 0 0 -1 I I #
point $-1 -70.680867946409492 -12.497072838606213 16.997548828082255 #
straight-curve $-1 -70.680867946409492 -8.5397518599791624 12.402442552742457 0 -1 0 I I #
point $-1 -70.680867946409492 -12.497072838606213 12.402442552742457 #
point $-1 -65.247131555034429 -17.079503719958328 11.888395469123298 #
straight-curve $-1 0 -38.269741467672468 -16.997548828082255 -1 0 0 I I #
point $-1 -70.680867946409492 -38.269741467672468 -16.997548828082255 #
point $-1 -70.680867946409492 38.269741467672468 -16.997548828082255 #
straight-curve $-1 0 38.269741467672468 -16.997548828082255 1 0 0 I I #
End-of-ACIS-data 