500 0 8 0           
7 Unknown 11 ACIS 5.0 NT 24 Fri Mar 26 15:50:45 1999 
-1 9.9999999999999995e-007 1e-010 
body $-1 $8 $-1 $9 #
body $-1 $10 $-1 $11 #
body $-1 $12 $-1 $13 #
body $-1 $14 $-1 $15 #
body $-1 $16 $-1 $17 #
body $-1 $18 $-1 $19 #
body $-1 $20 $-1 $21 #
body $-1 $22 $-1 $23 #
lump $-1 $-1 $24 $0 #
transform $-1 1 0 0 0 1 0 0 0 1 70.639362773522137 46.629697223387218 18.136301042617827 1 rotate no_reflect no_shear #
lump $-1 $-1 $25 $1 #
transform $-1 1 0 0 0 1 0 0 0 1 70.639362773522137 46.629697223387218 18.136301042617827 1 rotate no_reflect no_shear #
lump $-1 $-1 $26 $2 #
transform $-1 1 0 0 0 1 0 0 0 1 70.639362773522137 46.629697223387218 18.136301042617827 1 rotate no_reflect no_shear #
lump $-1 $-1 $27 $3 #
transform $-1 1 0 0 0 1 0 0 0 1 70.639362773522137 46.629697223387218 18.136301042617827 1 rotate no_reflect no_shear #
lump $-1 $-1 $28 $4 #
transform $-1 1 0 0 0 1 0 0 0 1 70.639362773522137 46.629697223387218 18.136301042617827 1 rotate no_reflect no_shear #
lump $-1 $-1 $29 $5 #
transform $-1 1 0 0 0 1 0 0 0 1 70.639362773522137 46.629697223387218 18.136301042617827 1 rotate no_reflect no_shear #
lump $-1 $-1 $30 $6 #
transform $-1 1 0 0 0 1 0 0 0 1 70.639362773522137 46.629697223387218 18.136301042617827 1 rotate no_reflect no_shear #
lump $-1 $-1 $31 $7 #
transform $-1 1 0 0 0 1 0 0 0 1 70.639362773522137 46.629697223387218 18.136301042617827 1 rotate no_reflect no_shear #
shell $-1 $-1 $-1 $32 $-1 $8 #
shell $-1 $-1 $-1 $33 $-1 $10 #
shell $-1 $-1 $-1 $34 $-1 $12 #
shell $-1 $-1 $-1 $35 $-1 $14 #
shell $-1 $-1 $-1 $36 $-1 $16 #
shell $-1 $-1 $-1 $37 $-1 $18 #
shell $-1 $-1 $-1 $38 $-1 $20 #
shell $-1 $-1 $-1 $39 $-1 $22 #
face $-1 $40 $41 $24 $-1 $42 reversed single #
face $-1 $43 $44 $25 $-1 $45 forward single #
face $-1 $46 $47 $26 $-1 $48 reversed single #
face $-1 $49 $50 $27 $-1 $51 forward single #
face $-1 $52 $53 $28 $-1 $54 reversed single #
face $-1 $55 $56 $29 $-1 $57 forward single #
face $-1 $58 $59 $30 $-1 $60 forward single #
face $-1 $61 $62 $31 $-1 $63 forward single #
face $-1 $64 $65 $24 $-1 $66 forward single #
loop $-1 $-1 $67 $32 #
plane-surface $-1 0 -46.629697223387218 0 0 1 0 0 0 1 forward_v I I I I #
face $-1 $68 $69 $25 $-1 $70 reversed single #
loop $-1 $-1 $71 $33 #
plane-surface $-1 0 -46.629697223387218 0 0 1 0 0 0 1 forward_v I I I I #
face $-1 $72 $73 $26 $-1 $74 reversed single #
loop $-1 $-1 $75 $34 #
plane-surface $-1 63.666505233247236 33.727010405986839 200.64941815334319 0 -1 0 -0.68199836817093118 0 -0.7313536940579346 forward_v I I I I #
face $-1 $76 $77 $27 $-1 $78 forward single #
loop $-1 $79 $80 $35 #
cone-surface $-1 60.918200851624256 27.310361940157954 8.9986729949461015 -0.68199836817093118 0 -0.7313536940579346 1.0970305410869019 0 -1.0229975522563968 1 I I 0 1 1.5 forward I I I I #
face $-1 $81 $82 $28 $-1 $83 reversed single #
loop $-1 $-1 $84 $36 #
plane-surface $-1 -186.36812076906369 -14.986829148324055 86.651304427449858 0 1 0 -0.81915205242281985 0 0.57357642473473569 forward_v I I I I #
face $-1 $85 $86 $29 $-1 $87 forward single #
loop $-1 $88 $89 $37 #
cone-surface $-1 -65.597219753765927 -12.99059663533933 11.415191981813328 0.81915205242281985 0 -0.57357642473473569 0.28678821236736785 0 0.40957602621140993 1 I I 0 1 0.5 forward I I I I #
face $-1 $90 $91 $30 $-1 $92 forward single #
loop $-1 $93 $94 $38 #
cone-surface $-1 -65.597219753765927 -9.9962478658622445 11.415191981813328 0.81915205242281985 0 -0.57357642473473569 0.28678821236736785 0 0.40957602621140993 1 I I 0 1 0.5 forward I I I I #
face $-1 $95 $96 $31 $-1 $97 forward single #
loop $-1 $98 $99 $39 #
cone-surface $-1 -65.597219753765927 -7.0018990963851593 11.415191981813328 0.81915205242281985 0 -0.57357642473473569 0.28678821236736785 0 0.40957602621140993 1 I I 0 1 0.5 forward I I I I #
face $-1 $100 $101 $24 $-1 $102 reversed single #
loop $-1 $-1 $103 $40 #
plane-surface $-1 0 0 18.136301042617827 0 0 1 1 0 0 forward_v I I I I #
coedge $-1 $104 $105 $106 $107 reversed $41 $-1 #
face $-1 $108 $109 $25 $-1 $110 reversed single #
loop $-1 $-1 $111 $43 #
plane-surface $-1 0 0 -18.136301042617827 0 0 1 1 0 0 forward_v I I I I #
coedge $-1 $112 $113 $114 $115 forward $44 $-1 #
face $-1 $116 $117 $26 $-1 $118 reversed single #
loop $-1 $-1 $119 $46 #
plane-surface $-1 -32.685355047105801 27.310361940157954 97.324700332715267 0.68199836817093118 0 0.7313536940579346 0.7313536940579346 0 -0.68199836817093118 forward_v I I I I #
coedge $-1 $120 $121 $122 $123 reversed $47 $-1 #
face $-1 $-1 $124 $27 $-1 $125 forward single #
loop $-1 $126 $127 $49 #
cone-surface $-1 59.88831920987927 27.310361940157954 7.894260171858722 -0.68199836817093118 0 -0.7313536940579346 0.54851527054345095 0 -0.51149877612819838 1 I I -0.70710678118654757 0.70710678118654757 0.75 forward I I I I #
loop $-1 $-1 $128 $35 #
coedge $-1 $80 $80 $129 $130 reversed $50 $-1 #
face $-1 $131 $132 $28 $-1 $133 reversed single #
loop $-1 $-1 $134 $52 #
plane-surface $-1 -70.639362773522109 -9.9962478658622445 5.61715813709624 -0.81915205242281985 0 0.57357642473473569 0.57357642473473569 0 0.81915205242281985 forward_v I I I I #
coedge $-1 $135 $136 $137 $138 reversed $53 $-1 #
face $-1 $-1 $139 $29 $-1 $140 forward single #
loop $-1 $141 $142 $55 #
cone-surface $-1 -64.733287705801786 -12.99059663533933 10.810260267585928 0.81915205242281985 0 -0.57357642473473569 0.14339410618368392 0 0.20478801310570496 1 I I -0.70710678118654746 0.70710678118654746 0.25 forward I I I I #
loop $-1 $-1 $143 $37 #
coedge $-1 $89 $89 $144 $145 reversed $56 $-1 #
face $-1 $-1 $146 $30 $-1 $147 forward single #
loop $-1 $148 $149 $58 #
cone-surface $-1 -64.733287705801786 -9.9962478658622445 10.810260267585928 0.81915205242281985 0 -0.57357642473473569 0.14339410618368392 0 0.20478801310570496 1 I I -0.70710678118654746 0.70710678118654746 0.25 forward I I I I #
loop $-1 $-1 $150 $38 #
coedge $-1 $94 $94 $151 $152 reversed $59 $-1 #
face $-1 $-1 $153 $31 $-1 $154 forward single #
loop $-1 $155 $156 $61 #
cone-surface $-1 -64.733287705801786 -7.0018990963851593 10.810260267585928 0.81915205242281985 0 -0.57357642473473569 0.14339410618368392 0 0.20478801310570496 1 I I -0.70710678118654746 0.70710678118654746 0.25 forward I I I I #
loop $-1 $-1 $157 $39 #
coedge $-1 $99 $99 $158 $159 reversed $62 $-1 #
face $-1 $160 $161 $24 $-1 $162 reversed single #
loop $-1 $-1 $163 $64 #
plane-surface $-1 0 0 -18.136301042617827 0 0 1 1 0 0 forward_v I I I I #
coedge $-1 $164 $165 $166 $167 forward $65 $-1 #
coedge $-1 $168 $67 $169 $170 reversed $41 $-1 #
coedge $-1 $67 $168 $171 $172 forward $41 $-1 #
coedge $-1 $173 $163 $67 $107 forward $101 $-1 #
edge $-1 $174 -70.639362773522137 $175 70.639362773522137 $67 $176 forward 7 unknown #
face $-1 $177 $178 $25 $-1 $179 reversed single #
loop $-1 $-1 $180 $68 #
plane-surface $-1 -39.747098880521818 -68.4723968858288 0 0 1 0 0 0 1 forward_v I I I I #
coedge $-1 $181 $182 $113 $183 forward $69 $-1 #
coedge $-1 $184 $71 $185 $186 reversed $44 $-1 #
coedge $-1 $71 $184 $111 $183 reversed $44 $-1 #
coedge $-1 $187 $188 $71 $115 reversed $178 $-1 #
edge $-1 $189 -18.136301042617827 $190 18.136301042617827 $114 $191 forward 7 unknown #
face $-1 $192 $193 $26 $-1 $194 forward single #
loop $-1 $-1 $195 $72 #
plane-surface $-1 63.666505233247236 20.893713474329068 200.64941815334319 0 1 0 0.68199836817093118 0 0.7313536940579346 forward_v I I I I #
coedge $-1 $196 $197 $198 $199 reversed $73 $-1 #
coedge $-1 $121 $75 $200 $201 reversed $47 $-1 #
coedge $-1 $75 $120 $196 $202 reversed $47 $-1 #
coedge $-1 $198 $203 $75 $123 forward $193 $-1 #
edge $-1 $204 -38.806110156898519 $205 -20.400552044336273 $122 $206 forward 7 unknown #
loop $-1 $-1 $129 $76 #
plane-surface $-1 -32.685355047105801 27.310361940157954 97.324700332715267 0.68199836817093118 0 0.7313536940579346 0.7313536940579346 0 -0.68199836817093118 forward_v I I I I #
loop $-1 $-1 $207 $49 #
coedge $-1 $127 $127 $128 $208 reversed $77 $-1 #
coedge $-1 $128 $128 $127 $208 forward $79 $-1 #
coedge $-1 $129 $129 $80 $130 forward $124 $-1 #
edge $-1 $209 0 $209 6.2831853071796004 $129 $210 forward 7 unknown #
face $-1 $211 $212 $28 $-1 $213 reversed single #
loop $-1 $-1 $214 $81 #
plane-surface $-1 -186.36812076906369 -5.0056665834004335 86.651304427449858 0 -1 0 0.81915205242281985 0 -0.57357642473473569 forward_v I I I I #
coedge $-1 $215 $216 $217 $218 reversed $82 $-1 #
coedge $-1 $136 $84 $219 $220 reversed $53 $-1 #
coedge $-1 $84 $135 $215 $221 reversed $53 $-1 #
coedge $-1 $217 $222 $84 $138 forward $223 $-1 #
edge $-1 $224 22.54469761100971 $225 31.310695580805294 $137 $226 forward 7 unknown #
loop $-1 $-1 $144 $85 #
plane-surface $-1 -70.639362773522109 -9.9962478658622445 5.61715813709624 -0.81915205242281985 0 0.57357642473473569 0.57357642473473569 0 0.81915205242281985 forward_v I I I I #
loop $-1 $-1 $227 $55 #
coedge $-1 $142 $142 $143 $228 reversed $86 $-1 #
coedge $-1 $143 $143 $142 $228 forward $88 $-1 #
coedge $-1 $144 $144 $89 $145 forward $139 $-1 #
edge $-1 $229 0 $229 6.2831853071796004 $144 $230 forward 7 unknown #
loop $-1 $-1 $151 $90 #
plane-surface $-1 -70.639362773522109 -9.9962478658622445 5.61715813709624 -0.81915205242281985 0 0.57357642473473569 0.57357642473473569 0 0.81915205242281985 forward_v I I I I #
loop $-1 $-1 $231 $58 #
coedge $-1 $149 $149 $150 $232 reversed $91 $-1 #
coedge $-1 $150 $150 $149 $232 forward $93 $-1 #
coedge $-1 $151 $151 $94 $152 forward $146 $-1 #
edge $-1 $233 0 $233 6.2831853071796004 $151 $234 forward 7 unknown #
loop $-1 $-1 $158 $95 #
plane-surface $-1 -70.639362773522109 -9.9962478658622445 5.61715813709624 -0.81915205242281985 0 0.57357642473473569 0.57357642473473569 0 0.81915205242281985 forward_v I I I I #
loop $-1 $-1 $235 $61 #
coedge $-1 $156 $156 $157 $236 reversed $96 $-1 #
coedge $-1 $157 $157 $156 $236 forward $98 $-1 #
coedge $-1 $158 $158 $99 $159 forward $153 $-1 #
edge $-1 $237 0 $237 6.2831853071796004 $158 $238 forward 7 unknown #
face $-1 $239 $240 $24 $-1 $241 reversed single #
loop $-1 $-1 $242 $100 #
plane-surface $-1 -70.639362773522137 0 0 1 0 0 0 0 -1 forward_v I I I I #
coedge $-1 $106 $243 $244 $245 forward $101 $-1 #
coedge $-1 $246 $103 $247 $248 forward $65 $-1 #
coedge $-1 $103 $246 $168 $249 forward $65 $-1 #
coedge $-1 $169 $250 $103 $167 reversed $251 $-1 #
edge $-1 $252 -46.629697223387218 $253 46.629697223387218 $166 $254 forward 7 unknown #
coedge $-1 $105 $104 $165 $249 reversed $41 $-1 #
coedge $-1 $244 $166 $104 $170 forward $251 $-1 #
edge $-1 $252 -18.136301042617827 $174 18.136301042617827 $169 $255 forward 7 unknown #
coedge $-1 $256 $257 $105 $172 reversed $161 $-1 #
edge $-1 $258 -18.136301042617827 $175 18.136301042617827 $171 $259 forward 7 unknown #
coedge $-1 $243 $106 $257 $260 forward $101 $-1 #
vertex $-1 $170 $261 #
vertex $-1 $260 $262 #
straight-curve $-1 0 -46.629697223387218 -18.136301042617827 -1 0 0 I I #
face $-1 $263 $264 $25 $-1 $265 reversed single #
loop $-1 $-1 $114 $108 #
plane-surface $-1 -45.127437072757147 -57.551047054608013 0 1 0 0 0 0 -1 forward_v I I I I #
coedge $-1 $266 $267 $268 $269 forward $109 $-1 #
coedge $-1 $270 $111 $271 $272 forward $69 $-1 #
coedge $-1 $111 $270 $187 $273 forward $69 $-1 #
edge $-1 $189 -45.127437072757147 $274 -34.36676068828649 $111 $275 forward 7 unknown #
coedge $-1 $113 $112 $276 $277 forward $44 $-1 #
coedge $-1 $278 $279 $112 $186 forward $280 $-1 #
edge $-1 $281 34.36676068828649 $190 45.127437072757147 $185 $282 forward 7 unknown #
coedge $-1 $268 $114 $182 $273 reversed $178 $-1 #
coedge $-1 $114 $268 $278 $283 reversed $178 $-1 #
vertex $-1 $183 $284 #
vertex $-1 $283 $285 #
straight-curve $-1 -45.127437072757147 -46.629697223387218 0 0 0 1 I I #
face $-1 $-1 $286 $26 $-1 $287 reversed single #
loop $-1 $-1 $122 $116 #
plane-surface $-1 0 0 18.136301042617827 0 0 1 1 0 0 forward_v I I I I #
coedge $-1 $288 $289 $290 $291 reversed $117 $-1 #
coedge $-1 $292 $119 $121 $202 forward $73 $-1 #
coedge $-1 $119 $292 $288 $293 forward $73 $-1 #
coedge $-1 $290 $122 $119 $199 forward $193 $-1 #
edge $-1 $205 -20.071829435907862 $294 -7.2385325042500916 $198 $295 forward 7 unknown #
coedge $-1 $296 $297 $120 $201 forward $286 $-1 #
edge $-1 $298 -99.351869024309394 $204 -82.188408034053765 $200 $299 forward 7 unknown #
edge $-1 $205 116.11230024270414 $298 141.2787255470443 $121 $300 forward 7 unknown #
coedge $-1 $122 $290 $296 $301 forward $193 $-1 #
vertex $-1 $123 $302 #
vertex $-1 $123 $303 #
straight-curve $-1 31.833252616623618 33.727010405986839 18.136301042617831 -1 0 0 I I #
coedge $-1 $207 $207 $-1 $304 reversed $126 $-1 #
edge $-1 $305 0 $305 6.2831853071796004 $127 $306 forward 7 unknown #
vertex $-1 $130 $307 #
ellipse-curve $-1 61.436583717241014 27.310361940157954 9.5545705474899982 0.68199836817093118 0 0.7313536940579346 1.0970305410869019 0 -1.0229975522563968 1 I I #
face $-1 $-1 $223 $28 $-1 $308 forward single #
loop $-1 $-1 $309 $131 #
plane-surface $-1 -70.639362773522137 0 0 1 0 0 0 0 -1 forward_v I I I I #
coedge $-1 $310 $311 $312 $313 reversed $132 $-1 #
coedge $-1 $314 $134 $136 $221 forward $82 $-1 #
coedge $-1 $134 $314 $310 $315 forward $82 $-1 #
coedge $-1 $312 $137 $134 $218 forward $223 $-1 #
edge $-1 $225 -9.9887052153929332 $316 -0.0075426504693112406 $217 $317 forward 7 unknown #
coedge $-1 $318 $319 $135 $220 forward $212 $-1 #
edge $-1 $320 -37.708494076628732 $224 -25.189351171107102 $219 $321 forward 7 unknown #
edge $-1 $225 -15.283051380379877 $320 4.9769468549031306e-014 $136 $322 forward 7 unknown #
coedge $-1 $137 $312 $318 $323 forward $223 $-1 #
loop $-1 $-1 $312 $211 #
vertex $-1 $220 $324 #
vertex $-1 $138 $325 #
straight-curve $-1 -93.184060384531847 -14.986829148324055 18.136301042617831 1 0 0 I I #
coedge $-1 $227 $227 $-1 $326 reversed $141 $-1 #
edge $-1 $327 0 $327 6.2831853071796004 $142 $328 forward 7 unknown #
vertex $-1 $145 $329 #
ellipse-curve $-1 -66.256363788624341 -12.99059663533933 11.876729589857025 -0.81915205242281985 0 0.57357642473473569 0.28678821236736785 0 0.40957602621140993 1 I I #
coedge $-1 $231 $231 $-1 $330 reversed $148 $-1 #
edge $-1 $331 0 $331 6.2831853071796004 $149 $332 forward 7 unknown #
vertex $-1 $152 $333 #
ellipse-curve $-1 -66.256363788624341 -9.9962478658622445 11.876729589857025 -0.81915205242281985 0 0.57357642473473569 0.28678821236736785 0 0.40957602621140993 1 I I #
coedge $-1 $235 $235 $-1 $334 reversed $155 $-1 #
edge $-1 $335 0 $335 6.2831853071796004 $156 $336 forward 7 unknown #
vertex $-1 $159 $337 #
ellipse-curve $-1 -66.256363788624341 -7.0018990963851593 11.876729589857025 -0.81915205242281985 0 0.57357642473473569 0.28678821236736785 0 0.40957602621140993 1 I I #
face $-1 $-1 $251 $24 $-1 $338 reversed single #
loop $-1 $-1 $339 $160 #
plane-surface $-1 0 46.629697223387218 0 0 -1 0 0 0 -1 forward_v I I I I #
coedge $-1 $257 $256 $340 $341 forward $161 $-1 #
coedge $-1 $163 $173 $342 $343 forward $101 $-1 #
coedge $-1 $250 $169 $163 $245 reversed $251 $-1 #
edge $-1 $344 -46.629697223387218 $174 46.629697223387218 $244 $345 forward 7 unknown #
coedge $-1 $165 $164 $256 $346 forward $65 $-1 #
coedge $-1 $339 $340 $164 $248 reversed $240 $-1 #
edge $-1 $253 -70.639362773522137 $347 70.639362773522137 $247 $348 forward 7 unknown #
edge $-1 $258 -70.639362773522137 $252 70.639362773522137 $168 $349 forward 7 unknown #
coedge $-1 $166 $244 $339 $350 reversed $251 $-1 #
loop $-1 $-1 $169 $239 #
vertex $-1 $167 $351 #
vertex $-1 $167 $352 #
straight-curve $-1 70.639362773522137 0 18.136301042617827 0 1 0 I I #
straight-curve $-1 70.639362773522137 -46.629697223387218 0 0 0 -1 I I #
coedge $-1 $242 $171 $246 $346 reversed $161 $-1 #
coedge $-1 $171 $242 $173 $260 reversed $161 $-1 #
vertex $-1 $346 $353 #
straight-curve $-1 -70.639362773522137 -46.629697223387218 0 0 0 -1 I I #
edge $-1 $175 -46.629697223387218 $354 46.629697223387218 $257 $355 forward 7 unknown #
point $-1 70.639362773522137 -46.629697223387218 -18.136301042617827 #
point $-1 -70.639362773522137 -46.629697223387218 -18.136301042617827 #
face $-1 $-1 $280 $25 $-1 $356 forward single #
loop $-1 $-1 $357 $177 #
plane-surface $-1 -34.36676068828649 -57.551047054608013 0 -1 0 0 0 0 1 forward_v I I I I #
coedge $-1 $358 $180 $270 $359 reversed $109 $-1 #
coedge $-1 $180 $358 $360 $361 reversed $109 $-1 #
coedge $-1 $188 $187 $180 $269 reversed $178 $-1 #
edge $-1 $362 -18.136301042617827 $363 18.136301042617827 $268 $364 forward 7 unknown #
coedge $-1 $182 $181 $266 $359 forward $69 $-1 #
coedge $-1 $276 $357 $181 $272 reversed $264 $-1 #
edge $-1 $274 -10.921349831220795 $365 10.921349831220788 $271 $366 forward 7 unknown #
edge $-1 $363 -10.921349831220788 $189 10.921349831220795 $187 $367 forward 7 unknown #
vertex $-1 $272 $368 #
straight-curve $-1 0 -46.629697223387218 -18.136301042617827 1 0 0 I I #
coedge $-1 $369 $271 $184 $277 reversed $264 $-1 #
edge $-1 $281 -18.136301042617827 $274 18.136301042617827 $276 $370 forward 7 unknown #
coedge $-1 $360 $185 $188 $283 forward $280 $-1 #
coedge $-1 $185 $360 $369 $371 forward $280 $-1 #
loop $-1 $-1 $185 $263 #
vertex $-1 $186 $372 #
straight-curve $-1 0 -46.629697223387218 18.136301042617827 -1 0 0 I I #
edge $-1 $190 -10.921349831220795 $362 10.921349831220788 $188 $373 forward 7 unknown #
point $-1 -45.127437072757147 -46.629697223387218 -18.136301042617827 #
point $-1 -45.127437072757147 -46.629697223387218 18.136301042617827 #
loop $-1 $-1 $200 $192 #
plane-surface $-1 70.639362773522137 0 0 -1 0 0 0 0 1 forward_v I I I I #
coedge $-1 $289 $195 $197 $293 reversed $117 $-1 #
coedge $-1 $195 $288 $374 $375 reversed $117 $-1 #
coedge $-1 $203 $198 $195 $291 forward $193 $-1 #
edge $-1 $294 20.400552044336273 $376 38.806110156898519 $290 $377 forward 7 unknown #
coedge $-1 $197 $196 $297 $378 reversed $73 $-1 #
edge $-1 $379 -141.2787255470443 $294 -116.11230024270414 $288 $380 forward 7 unknown #
vertex $-1 $199 $381 #
straight-curve $-1 52.233804660959876 13.655180970078977 18.136301042617823 0 -1 0 I I #
coedge $-1 $374 $200 $203 $301 reversed $286 $-1 #
coedge $-1 $200 $374 $292 $378 forward $286 $-1 #
vertex $-1 $201 $382 #
straight-curve $-1 70.639362773522137 33.727010405986839 100.3247090766716 0 0 1 I I #
straight-curve $-1 -32.685355047105801 33.727010405986839 97.324700332715267 0.7313536940579346 0 -0.68199836817093118 I I #
edge $-1 $376 20.893713474329068 $204 33.727010405986839 $296 $383 forward 7 unknown #
point $-1 70.639362773522137 33.727010405986839 18.136301042617827 #
point $-1 52.23380466095989 33.727010405986839 18.136301042617831 #
edge $-1 $384 1 $384 0 $207 $-1 forward 7 unknown #
vertex $-1 $208 $385 #
ellipse-curve $-1 60.39981798600747 27.310361940157954 8.4427754424021728 0.68199836817093118 0 0.7313536940579346 1.0970305410869019 0 -1.0229975522563968 1 I I #
point $-1 62.533614258327944 27.310361940157954 8.531572995233633 #
plane-surface $-1 0 0 18.136301042617827 0 0 1 1 0 0 forward_v I I I I #
coedge $-1 $319 $318 $311 $386 forward $212 $-1 #
coedge $-1 $311 $214 $216 $315 reversed $132 $-1 #
coedge $-1 $214 $310 $309 $386 reversed $132 $-1 #
coedge $-1 $222 $217 $214 $313 forward $223 $-1 #
edge $-1 $316 -31.310695580805294 $387 -22.54469761100971 $312 $388 forward 7 unknown #
coedge $-1 $216 $215 $319 $389 reversed $82 $-1 #
edge $-1 $390 -4.9769468549031306e-014 $316 15.283051380379877 $310 $391 forward 7 unknown #
vertex $-1 $218 $392 #
straight-curve $-1 -61.873364803726552 -4.9981239329311222 18.136301042617823 0 1 0 I I #
coedge $-1 $309 $219 $222 $323 reversed $212 $-1 #
coedge $-1 $219 $309 $314 $389 forward $212 $-1 #
vertex $-1 $220 $393 #
straight-curve $-1 -70.639362773522137 -14.986829148324055 43.325652213724929 0 0 1 I I #
straight-curve $-1 -70.639362773522109 -14.986829148324055 5.61715813709624 -0.57357642473473569 0 -0.81915205242281985 I I #
edge $-1 $387 5.0056665834004335 $224 14.986829148324055 $318 $394 forward 7 unknown #
point $-1 -70.639362773522137 -14.986829148324055 18.136301042617827 #
point $-1 -61.873364803726552 -14.986829148324055 18.136301042617827 #
edge $-1 $395 1 $395 0 $227 $-1 forward 7 unknown #
vertex $-1 $228 $396 #
ellipse-curve $-1 -64.938075718907484 -12.99059663533933 10.953654373769613 -0.81915205242281985 0 0.57357642473473569 0.28678821236736785 0 0.40957602621140993 1 I I #
point $-1 -65.969575576256986 -12.99059663533933 12.286305616068454 #
edge $-1 $397 1 $397 0 $231 $-1 forward 7 unknown #
vertex $-1 $232 $398 #
ellipse-curve $-1 -64.938075718907484 -9.9962478658622445 10.953654373769613 -0.81915205242281985 0 0.57357642473473569 0.28678821236736785 0 0.40957602621140993 1 I I #
point $-1 -65.969575576256986 -9.9962478658622445 12.286305616068454 #
edge $-1 $399 1 $399 0 $235 $-1 forward 7 unknown #
vertex $-1 $236 $400 #
ellipse-curve $-1 -64.938075718907484 -7.0018990963851593 10.953654373769613 -0.81915205242281985 0 0.57357642473473569 0.28678821236736785 0 0.40957602621140993 1 I I #
point $-1 -65.969575576256986 -7.0018990963851593 12.286305616068454 #
plane-surface $-1 70.639362773522137 0 0 -1 0 0 0 0 1 forward_v I I I I #
coedge $-1 $342 $247 $250 $350 forward $240 $-1 #
coedge $-1 $247 $342 $242 $341 reversed $240 $-1 #
edge $-1 $347 -18.136301042617827 $354 18.136301042617827 $340 $401 forward 7 unknown #
coedge $-1 $340 $339 $243 $343 reversed $240 $-1 #
edge $-1 $354 -70.639362773522137 $344 70.639362773522137 $342 $402 forward 7 unknown #
vertex $-1 $245 $403 #
straight-curve $-1 70.639362773522137 0 -18.136301042617827 0 -1 0 I I #
edge $-1 $347 -46.629697223387218 $258 46.629697223387218 $256 $404 forward 7 unknown #
vertex $-1 $248 $405 #
straight-curve $-1 0 46.629697223387218 18.136301042617827 -1 0 0 I I #
straight-curve $-1 0 -46.629697223387218 18.136301042617827 1 0 0 I I #
edge $-1 $253 -18.136301042617827 $344 18.136301042617827 $250 $406 forward 7 unknown #
point $-1 70.639362773522137 -46.629697223387218 18.136301042617827 #
point $-1 70.639362773522137 46.629697223387218 18.136301042617827 #
point $-1 -70.639362773522137 -46.629697223387218 18.136301042617827 #
vertex $-1 $343 $407 #
straight-curve $-1 -70.639362773522137 0 -18.136301042617827 0 1 0 I I #
plane-surface $-1 0 0 18.136301042617827 0 0 1 1 0 0 forward_v I I I I #
coedge $-1 $271 $369 $358 $408 forward $264 $-1 #
coedge $-1 $267 $266 $357 $408 reversed $109 $-1 #
edge $-1 $365 -5.3803381922353282 $363 5.3803381922353282 $266 $409 forward 7 unknown #
coedge $-1 $279 $278 $267 $361 forward $280 $-1 #
edge $-1 $362 -5.3803381922353282 $410 5.3803381922353282 $267 $411 forward 7 unknown #
vertex $-1 $283 $412 #
vertex $-1 $273 $413 #
straight-curve $-1 -45.127437072757147 -68.4723968858288 0 0 0 -1 I I #
vertex $-1 $408 $414 #
straight-curve $-1 -34.36676068828649 -57.551047054608013 -18.136301042617827 0 -1 0 I I #
straight-curve $-1 -45.127437072757147 -57.551047054608013 -18.136301042617827 0 1 0 I I #
point $-1 -34.36676068828649 -46.629697223387218 -18.136301042617827 #
coedge $-1 $357 $276 $279 $371 reversed $264 $-1 #
straight-curve $-1 -34.36676068828649 -46.629697223387218 0 0 0 -1 I I #
edge $-1 $410 -10.921349831220788 $281 10.921349831220795 $369 $415 forward 7 unknown #
point $-1 -34.36676068828649 -46.629697223387218 18.136301042617827 #
straight-curve $-1 -45.127437072757147 -57.551047054608013 18.136301042617827 0 -1 0 I I #
coedge $-1 $297 $296 $289 $375 forward $286 $-1 #
edge $-1 $376 82.188408034053765 $379 99.351869024309394 $374 $416 forward 7 unknown #
vertex $-1 $301 $417 #
straight-curve $-1 31.833252616623618 20.893713474329068 18.136301042617831 1 0 0 I I #
edge $-1 $379 7.2385325042500916 $298 20.071829435907862 $297 $418 forward 7 unknown #
vertex $-1 $378 $419 #
straight-curve $-1 -32.685355047105801 20.893713474329068 97.324700332715267 -0.7313536940579346 0 0.68199836817093118 I I #
point $-1 52.23380466095989 20.893713474329068 18.136301042617831 #
point $-1 70.639362773522151 33.727010405986839 0.97284005236220139 #
straight-curve $-1 70.639362773522137 0 18.136301042617827 0 1 0 I I #
vertex $-1 $304 $420 #
point $-1 61.496848527094372 27.310361940157954 7.4197778901457765 #
edge $-1 $387 25.189351171107102 $390 37.708494076628732 $309 $421 forward 7 unknown #
vertex $-1 $323 $422 #
straight-curve $-1 -93.184060384531847 -5.0056665834004335 18.136301042617831 -1 0 0 I I #
edge $-1 $390 0.0075426504693112406 $320 9.9887052153929332 $319 $423 forward 7 unknown #
vertex $-1 $389 $424 #
straight-curve $-1 -70.639362773522109 -5.0056665834004335 5.61715813709624 0.57357642473473569 0 0.81915205242281985 I I #
point $-1 -61.873364803726552 -5.0056665834004335 18.136301042617827 #
point $-1 -70.639362773522137 -14.986829148324055 5.6171581370961992 #
straight-curve $-1 -70.639362773522137 0 18.136301042617827 0 -1 0 I I #
vertex $-1 $326 $425 #
point $-1 -64.651287506540129 -12.99059663533933 11.363230399981022 #
vertex $-1 $330 $426 #
point $-1 -64.651287506540129 -9.9962478658622445 11.363230399981022 #
vertex $-1 $334 $427 #
point $-1 -64.651287506540129 -7.0018990963851593 11.363230399981022 #
straight-curve $-1 -70.639362773522137 46.629697223387218 0 0 0 -1 I I #
straight-curve $-1 0 46.629697223387218 -18.136301042617827 1 0 0 I I #
point $-1 70.639362773522137 46.629697223387218 -18.136301042617827 #
straight-curve $-1 -70.639362773522137 0 18.136301042617827 0 -1 0 I I #
point $-1 -70.639362773522137 46.629697223387218 18.136301042617827 #
straight-curve $-1 70.639362773522137 46.629697223387218 0 0 0 -1 I I #
point $-1 -70.639362773522137 46.629697223387218 -18.136301042617827 #
edge $-1 $410 -18.136301042617827 $365 18.136301042617827 $357 $428 forward 7 unknown #
straight-curve $-1 -39.747098880521818 -68.4723968858288 -18.136301042617827 -1 0 0 I I #
vertex $-1 $371 $429 #
straight-curve $-1 -39.747098880521818 -68.4723968858288 18.136301042617827 1 0 0 I I #
point $-1 -45.127437072757147 -68.4723968858288 18.136301042617827 #
point $-1 -45.127437072757147 -68.4723968858288 -18.136301042617827 #
point $-1 -34.36676068828649 -68.4723968858288 -18.136301042617827 #
straight-curve $-1 -34.36676068828649 -57.551047054608013 18.136301042617827 0 1 0 I I #
straight-curve $-1 70.639362773522137 20.893713474329068 100.3247090766716 0 0 -1 I I #
point $-1 70.639362773522137 20.893713474329068 18.136301042617827 #
straight-curve $-1 70.639362773522137 13.655180970078977 0.97284005236222271 0 1 0 I I #
point $-1 70.639362773522151 20.893713474329068 0.97284005236220139 #
point $-1 59.376820433751071 27.310361940157954 7.3457449013152711 #
straight-curve $-1 -70.639362773522137 -5.0056665834004335 43.325652213724929 0 0 -1 I I #
point $-1 -70.639362773522137 -5.0056665834004335 18.136301042617827 #
straight-curve $-1 -70.639362773522137 -4.9981239329311222 5.6171581370962063 0 -1 0 I I #
point $-1 -70.639362773522137 -5.0056665834004335 5.6171581370961992 #
point $-1 -64.528499692696087 -12.99059663533933 10.666866161402243 #
point $-1 -64.528499692696087 -9.9962478658622445 10.666866161402243 #
point $-1 -64.528499692696087 -7.0018990963851593 10.666866161402243 #
straight-curve $-1 -34.36676068828649 -68.4723968858288 0 0 0 -1 I I #
point $-1 -34.36676068828649 -68.4723968858288 18.136301042617827 #
End-of-ACIS-data 