500 0 9 0           
7 Unknown 11 ACIS 5.0 NT 24 Fri Mar 26 16:45:45 1999 
-1 9.9999999999999995e-007 1e-010 
body $-1 $9 $-1 $10 #
body $-1 $11 $-1 $12 #
body $-1 $13 $-1 $14 #
body $-1 $15 $-1 $16 #
body $-1 $17 $-1 $18 #
body $-1 $19 $-1 $20 #
body $-1 $21 $-1 $22 #
body $-1 $23 $-1 $24 #
body $-1 $25 $-1 $26 #
lump $-1 $-1 $27 $0 #
transform $-1 1 0 0 0 1 0 0 0 1 63.219702749717705 28.096273669316357 13.368002422765063 1 rotate no_reflect no_shear #
lump $-1 $-1 $28 $1 #
transform $-1 1 0 0 0 1 0 0 0 1 63.219702749717705 28.096273669316357 13.368002422765063 1 rotate no_reflect no_shear #
lump $-1 $-1 $29 $2 #
transform $-1 1 0 0 0 1 0 0 0 1 63.219702749717705 28.096273669316357 13.368002422765063 1 rotate no_reflect no_shear #
lump $-1 $-1 $30 $3 #
transform $-1 1 0 0 0 1 0 0 0 1 63.219702749717705 28.096273669316357 13.368002422765063 1 rotate no_reflect no_shear #
lump $-1 $-1 $31 $4 #
transform $-1 1 0 0 0 1 0 0 0 1 63.219702749717705 28.096273669316357 13.368002422765063 1 rotate no_reflect no_shear #
lump $-1 $-1 $32 $5 #
transform $-1 1 0 0 0 1 0 0 0 1 63.219702749717705 28.096273669316357 13.368002422765063 1 rotate no_reflect no_shear #
lump $-1 $-1 $33 $6 #
transform $-1 1 0 0 0 1 0 0 0 1 63.219702749717705 28.096273669316357 13.368002422765063 1 rotate no_reflect no_shear #
lump $-1 $-1 $34 $7 #
transform $-1 1 0 0 0 1 0 0 0 1 63.219702749717705 28.096273669316357 13.368002422765063 1 rotate no_reflect no_shear #
lump $-1 $-1 $35 $8 #
transform $-1 1 0 0 0 1 0 0 0 1 63.219702749717705 28.096273669316357 13.368002422765063 1 rotate no_reflect no_shear #
shell $-1 $-1 $-1 $36 $-1 $9 #
shell $-1 $-1 $-1 $37 $-1 $11 #
shell $-1 $-1 $-1 $38 $-1 $13 #
shell $-1 $-1 $-1 $39 $-1 $15 #
shell $-1 $-1 $-1 $40 $-1 $17 #
shell $-1 $-1 $-1 $41 $-1 $19 #
shell $-1 $-1 $-1 $42 $-1 $21 #
shell $-1 $-1 $-1 $43 $-1 $23 #
shell $-1 $-1 $-1 $44 $-1 $25 #
face $-1 $45 $46 $27 $-1 $47 forward single #
face $-1 $48 $49 $28 $-1 $50 forward single #
face $-1 $51 $52 $29 $-1 $53 reversed single #
face $-1 $54 $55 $30 $-1 $56 forward single #
face $-1 $57 $58 $31 $-1 $59 forward single #
face $-1 $60 $61 $32 $-1 $62 reversed single #
face $-1 $63 $64 $33 $-1 $65 forward single #
face $-1 $66 $67 $34 $-1 $68 reversed single #
face $-1 $69 $70 $35 $-1 $71 forward single #
face $-1 $72 $73 $27 $-1 $74 reversed single #
loop $-1 $-1 $75 $36 #
plane-surface $-1 0 0 13.368002422765063 0 0 1 1 0 0 forward_v I I I I #
face $-1 $76 $77 $28 $-1 $78 reversed single #
loop $-1 $-1 $79 $37 #
plane-surface $-1 -56.617552862108461 0 4.8958495301227281 0 0 1 1 0 0 forward_v I I I I #
face $-1 $80 $81 $29 $-1 $82 reversed single #
loop $-1 $-1 $83 $38 #
plane-surface $-1 40.827571030262092 56.954767032392795 139.18042028055038 1 0 0 0 -0.5877852598018023 -0.80901698891910034 forward_v I I I I #
face $-1 $84 $85 $30 $-1 $86 forward single #
loop $-1 $87 $88 $39 #
cone-surface $-1 44.309897712409544 20.606226087457621 7.3111041927389522 0 -0.5877852598018023 -0.80901698891910034 1 0 0 1 I I 0 1 1 forward I I I I #
face $-1 $89 $90 $31 $-1 $91 forward single #
loop $-1 $92 $93 $40 #
cone-surface $-1 49.533387735630733 20.606226087457621 7.3111041927389522 0 -0.5877852598018023 -0.80901698891910034 1 0 0 1 I I 0 1 1 forward I I I I #
face $-1 $94 $95 $32 $-1 $96 reversed single #
loop $-1 $-1 $97 $41 #
plane-surface $-1 -30.151618184785963 -126.35814806854505 80.253087674195086 -1 0 0 0 -0.77714596973225614 0.62932038083071107 forward_v I I I I #
face $-1 $98 $99 $33 $-1 $100 forward single #
loop $-1 $101 $102 $42 #
cone-surface $-1 -35.821408128451225 -21.157877197305595 5.5658558433811685 0 0.77714596973225614 -0.62932038083071107 1.5 0 0 1 I I 0 1 1.5 forward I I I I #
face $-1 $103 $104 $34 $-1 $105 reversed single #
loop $-1 $-1 $106 $43 #
plane-surface $-1 54.695497847334963 -126.35814806854505 80.253087674195086 -1 0 0 0 -0.77714596973225614 0.62932038083071107 forward_v I I I I #
face $-1 $107 $108 $35 $-1 $109 forward single #
loop $-1 $110 $111 $44 #
cone-surface $-1 49.025707903669705 -21.157877197305595 5.5658558433811685 0 0.77714596973225614 -0.62932038083071107 1.5 0 0 1 I I 0 1 1.5 forward I I I I #
face $-1 $112 $113 $27 $-1 $114 reversed single #
loop $-1 $-1 $115 $45 #
plane-surface $-1 0 0 -13.368002422765063 0 0 1 1 0 0 forward_v I I I I #
coedge $-1 $116 $117 $118 $119 forward $46 $-1 #
face $-1 $120 $121 $28 $-1 $122 reversed single #
loop $-1 $-1 $123 $48 #
plane-surface $-1 -56.617552862108461 0 -3.0180633882793622 0 0 1 1 0 0 forward_v I I I I #
coedge $-1 $124 $125 $126 $127 forward $49 $-1 #
face $-1 $128 $129 $29 $-1 $130 reversed single #
loop $-1 $-1 $131 $51 #
plane-surface $-1 46.921642724020153 -17.36445177827828 36.888793162675995 0 0.5877852598018023 0.80901698891910034 1 0 0 forward_v I I I I #
coedge $-1 $132 $133 $134 $135 reversed $52 $-1 #
face $-1 $-1 $136 $30 $-1 $137 forward single #
loop $-1 $138 $139 $54 #
cone-surface $-1 44.309897712409544 19.365853350652745 5.6038776164794655 0 -0.5877852598018023 -0.80901698891910034 0.5 0 0 1 I I -0.70710678118654746 0.70710678118654746 0.5 forward I I I I #
loop $-1 $-1 $140 $39 #
coedge $-1 $88 $88 $141 $142 reversed $55 $-1 #
face $-1 $-1 $143 $31 $-1 $144 forward single #
loop $-1 $145 $146 $57 #
cone-surface $-1 49.533387735630733 19.365853350652745 5.6038776164794655 0 -0.5877852598018023 -0.80901698891910034 0.5 0 0 1 I I -0.70710678118654746 0.70710678118654746 0.5 forward I I I I #
loop $-1 $-1 $147 $40 #
coedge $-1 $93 $93 $148 $149 reversed $58 $-1 #
face $-1 $150 $151 $32 $-1 $152 reversed single #
loop $-1 $-1 $153 $60 #
plane-surface $-1 -35.821408128451225 -28.096273669316361 0.68219285328169121 0 -0.77714596973225614 0.62932038083071107 1 0 0 forward_v I I I I #
coedge $-1 $154 $155 $156 $157 reversed $61 $-1 #
face $-1 $-1 $158 $33 $-1 $159 forward single #
loop $-1 $160 $161 $63 #
cone-surface $-1 -35.821408128451225 -18.773004128655511 3.6346237631159219 0 0.77714596973225614 -0.62932038083071107 0.75 0 0 1 I I -0.70710678118654757 0.70710678118654757 0.75 forward I I I I #
loop $-1 $-1 $162 $42 #
coedge $-1 $102 $102 $163 $164 reversed $64 $-1 #
face $-1 $165 $166 $34 $-1 $167 reversed single #
loop $-1 $-1 $168 $66 #
plane-surface $-1 49.025707903669705 -28.096273669316361 0.68219285328169121 0 -0.77714596973225614 0.62932038083071107 1 0 0 forward_v I I I I #
coedge $-1 $169 $170 $171 $172 reversed $67 $-1 #
face $-1 $-1 $173 $35 $-1 $174 forward single #
loop $-1 $175 $176 $69 #
cone-surface $-1 49.025707903669705 -18.773004128655511 3.6346237631159219 0 0.77714596973225614 -0.62932038083071107 0.75 0 0 1 I I -0.70710678118654757 0.70710678118654757 0.75 forward I I I I #
loop $-1 $-1 $177 $44 #
coedge $-1 $111 $111 $178 $179 reversed $70 $-1 #
face $-1 $180 $181 $27 $-1 $182 reversed single #
loop $-1 $-1 $183 $72 #
plane-surface $-1 0 -28.096273669316357 0 0 1 0 0 0 1 forward_v I I I I #
coedge $-1 $184 $185 $186 $187 forward $73 $-1 #
coedge $-1 $188 $75 $189 $190 forward $46 $-1 #
coedge $-1 $75 $188 $191 $192 forward $46 $-1 #
coedge $-1 $193 $194 $75 $119 reversed $195 $-1 #
edge $-1 $196 -28.096273669316357 $197 28.096273669316357 $118 $198 forward 7 unknown #
face $-1 $199 $200 $28 $-1 $201 reversed single #
loop $-1 $-1 $202 $76 #
plane-surface $-1 -50.015402974499217 0 0.93889307092168295 -1 0 0 0 0 1 forward_v I I I I #
coedge $-1 $203 $204 $205 $206 forward $77 $-1 #
coedge $-1 $207 $79 $208 $209 reversed $49 $-1 #
coedge $-1 $79 $207 $210 $211 reversed $49 $-1 #
coedge $-1 $202 $212 $79 $127 reversed $121 $-1 #
edge $-1 $213 -28.096273669316357 $214 28.096273669316357 $126 $215 forward 7 unknown #
face $-1 $216 $217 $29 $-1 $218 forward single #
loop $-1 $-1 $219 $80 #
plane-surface $-1 53.015714417778213 56.954767032392795 139.18042028055038 -1 0 0 0 0.5877852598018023 0.80901698891910034 forward_v I I I I #
coedge $-1 $220 $221 $222 $223 reversed $81 $-1 #
coedge $-1 $133 $83 $224 $225 reversed $52 $-1 #
coedge $-1 $83 $132 $220 $226 reversed $52 $-1 #
coedge $-1 $222 $227 $83 $135 forward $217 $-1 #
edge $-1 $228 0.38110984688004024 $229 13.46824479678957 $134 $230 forward 7 unknown #
loop $-1 $-1 $141 $84 #
plane-surface $-1 46.921642724020153 -17.36445177827828 36.888793162675995 0 0.5877852598018023 0.80901698891910034 1 0 0 forward_v I I I I #
loop $-1 $-1 $231 $54 #
coedge $-1 $139 $139 $140 $232 reversed $85 $-1 #
coedge $-1 $140 $140 $139 $232 forward $87 $-1 #
coedge $-1 $141 $141 $88 $142 forward $136 $-1 #
edge $-1 $233 7.8597299021971185e-016 $233 6.2831853071796013 $141 $234 forward 7 unknown #
loop $-1 $-1 $148 $89 #
plane-surface $-1 46.921642724020153 -17.36445177827828 36.888793162675995 0 0.5877852598018023 0.80901698891910034 1 0 0 forward_v I I I I #
loop $-1 $-1 $235 $57 #
coedge $-1 $146 $146 $147 $236 reversed $90 $-1 #
coedge $-1 $147 $147 $146 $236 forward $92 $-1 #
coedge $-1 $148 $148 $93 $149 forward $143 $-1 #
edge $-1 $237 7.8597299021971185e-016 $237 6.2831853071796013 $148 $238 forward 7 unknown #
face $-1 $239 $240 $32 $-1 $241 reversed single #
loop $-1 $-1 $242 $94 #
plane-surface $-1 -41.491198072116489 -126.35814806854505 80.253087674195086 1 0 0 0 0.77714596973225614 -0.62932038083071107 forward_v I I I I #
coedge $-1 $243 $244 $245 $246 reversed $95 $-1 #
coedge $-1 $155 $97 $247 $248 reversed $61 $-1 #
coedge $-1 $97 $154 $243 $249 reversed $61 $-1 #
coedge $-1 $245 $250 $97 $157 forward $251 $-1 #
edge $-1 $252 35.082800364956171 $253 45.35556612627591 $156 $254 forward 7 unknown #
loop $-1 $-1 $163 $98 #
plane-surface $-1 -35.821408128451225 -28.096273669316361 0.68219285328169121 0 -0.77714596973225614 0.62932038083071107 1 0 0 forward_v I I I I #
loop $-1 $-1 $255 $63 #
coedge $-1 $161 $161 $162 $256 reversed $99 $-1 #
coedge $-1 $162 $162 $161 $256 forward $101 $-1 #
coedge $-1 $163 $163 $102 $164 forward $158 $-1 #
edge $-1 $257 -1.0303672307013941e-015 $257 6.2831853071795996 $163 $258 forward 7 unknown #
face $-1 $259 $260 $34 $-1 $261 reversed single #
loop $-1 $-1 $262 $103 #
plane-surface $-1 43.355917960004447 -126.35814806854505 80.253087674195086 1 0 0 0 0.77714596973225614 -0.62932038083071107 forward_v I I I I #
coedge $-1 $263 $264 $265 $266 reversed $104 $-1 #
coedge $-1 $170 $106 $267 $268 reversed $67 $-1 #
coedge $-1 $106 $169 $263 $269 reversed $67 $-1 #
coedge $-1 $265 $270 $106 $172 forward $271 $-1 #
edge $-1 $272 35.082800364956171 $273 45.35556612627591 $171 $274 forward 7 unknown #
loop $-1 $-1 $178 $107 #
plane-surface $-1 49.025707903669705 -28.096273669316361 0.68219285328169121 0 -0.77714596973225614 0.62932038083071107 1 0 0 forward_v I I I I #
loop $-1 $-1 $275 $69 #
coedge $-1 $176 $176 $177 $276 reversed $108 $-1 #
coedge $-1 $177 $177 $176 $276 forward $110 $-1 #
coedge $-1 $178 $178 $111 $179 forward $173 $-1 #
edge $-1 $277 -1.0303672307013941e-015 $277 6.2831853071795996 $178 $278 forward 7 unknown #
face $-1 $279 $280 $27 $-1 $281 reversed single #
loop $-1 $-1 $282 $112 #
plane-surface $-1 -63.219702749717705 0 0 1 0 0 0 0 -1 forward_v I I I I #
coedge $-1 $283 $191 $284 $285 forward $113 $-1 #
coedge $-1 $286 $115 $283 $287 forward $73 $-1 #
coedge $-1 $115 $286 $288 $289 forward $73 $-1 #
coedge $-1 $194 $193 $115 $187 reversed $195 $-1 #
edge $-1 $290 -28.096273669316357 $291 28.096273669316357 $186 $292 forward 7 unknown #
coedge $-1 $117 $116 $293 $294 forward $46 $-1 #
coedge $-1 $295 $296 $116 $190 reversed $280 $-1 #
edge $-1 $197 -63.219702749717705 $297 63.219702749717705 $189 $298 forward 7 unknown #
coedge $-1 $183 $299 $117 $192 reversed $113 $-1 #
edge $-1 $300 -63.219702749717705 $196 63.219702749717705 $191 $301 forward 7 unknown #
coedge $-1 $186 $118 $299 $302 forward $195 $-1 #
coedge $-1 $118 $186 $295 $303 reversed $195 $-1 #
loop $-1 $-1 $193 $279 #
vertex $-1 $119 $304 #
vertex $-1 $119 $305 #
straight-curve $-1 63.219702749717705 0 13.368002422765063 0 1 0 I I #
face $-1 $306 $307 $28 $-1 $308 reversed single #
loop $-1 $-1 $309 $120 #
plane-surface $-1 0 -28.096273669316357 0 0 1 0 0 0 1 forward_v I I I I #
coedge $-1 $205 $126 $310 $311 reversed $121 $-1 #
coedge $-1 $312 $123 $309 $313 reversed $77 $-1 #
coedge $-1 $123 $312 $314 $315 reversed $77 $-1 #
coedge $-1 $212 $202 $123 $206 reversed $121 $-1 #
edge $-1 $316 -28.096273669316357 $317 28.096273669316357 $205 $318 forward 7 unknown #
coedge $-1 $125 $124 $319 $320 reversed $49 $-1 #
coedge $-1 $321 $322 $124 $209 forward $323 $-1 #
edge $-1 $324 -34.910926318663471 $214 -21.706626543444987 $208 $325 forward 7 unknown #
coedge $-1 $326 $310 $125 $211 forward $200 $-1 #
edge $-1 $213 21.706626543444987 $327 34.910926318663471 $210 $328 forward 7 unknown #
coedge $-1 $126 $205 $321 $329 reversed $121 $-1 #
vertex $-1 $211 $330 #
vertex $-1 $209 $331 #
straight-curve $-1 -50.015402974499217 0 4.8958495301227281 0 1 0 I I #
face $-1 $-1 $332 $29 $-1 $333 reversed single #
loop $-1 $-1 $134 $128 #
plane-surface $-1 0 0 13.368002422765063 0 0 1 1 0 0 forward_v I I I I #
coedge $-1 $334 $335 $336 $337 reversed $129 $-1 #
coedge $-1 $338 $131 $133 $226 forward $81 $-1 #
coedge $-1 $131 $338 $334 $339 forward $81 $-1 #
coedge $-1 $336 $134 $131 $223 forward $217 $-1 #
edge $-1 $229 17.366749668252016 $340 29.554893055768137 $222 $341 forward 7 unknown #
coedge $-1 $342 $343 $132 $225 forward $332 $-1 #
edge $-1 $344 -65.730568013962497 $228 -56.22220771751013 $224 $345 forward 7 unknown #
edge $-1 $229 40.015958800739575 $344 56.192547338632707 $133 $346 forward 7 unknown #
coedge $-1 $134 $336 $342 $347 forward $217 $-1 #
vertex $-1 $225 $348 #
vertex $-1 $135 $349 #
straight-curve $-1 40.827571030262092 28.477383516196397 13.368002422765059 0 -1 0 I I #
coedge $-1 $231 $231 $-1 $350 reversed $138 $-1 #
edge $-1 $351 0 $351 6.2831853071796004 $139 $352 forward 7 unknown #
vertex $-1 $142 $353 #
ellipse-curve $-1 44.309897712409544 21.552706194361591 8.6138222745388831 0 0.5877852598018023 0.80901698891910034 1 0 0 1 I I #
coedge $-1 $235 $235 $-1 $354 reversed $145 $-1 #
edge $-1 $355 0 $355 6.2831853071796004 $146 $356 forward 7 unknown #
vertex $-1 $149 $357 #
ellipse-curve $-1 49.533387735630733 21.552706194361591 8.6138222745388831 0 0.5877852598018023 0.80901698891910034 1 0 0 1 I I #
face $-1 $-1 $251 $32 $-1 $358 forward single #
loop $-1 $-1 $359 $150 #
plane-surface $-1 0 -28.096273669316357 0 0 1 0 0 0 1 forward_v I I I I #
coedge $-1 $360 $361 $362 $363 reversed $151 $-1 #
coedge $-1 $364 $153 $155 $249 forward $95 $-1 #
coedge $-1 $153 $364 $360 $365 forward $95 $-1 #
coedge $-1 $362 $156 $153 $246 forward $251 $-1 #
edge $-1 $253 12.240914120560351 $366 23.580494007890877 $245 $367 forward 7 unknown #
coedge $-1 $368 $369 $154 $248 forward $240 $-1 #
edge $-1 $370 -39.444350983815845 $252 -26.75854141433248 $247 $371 forward 7 unknown #
edge $-1 $253 -16.323586640813325 $370 -5.6870165216907905e-015 $155 $372 forward 7 unknown #
coedge $-1 $156 $362 $368 $373 forward $251 $-1 #
loop $-1 $-1 $362 $239 #
vertex $-1 $248 $374 #
vertex $-1 $157 $375 #
straight-curve $-1 -30.151618184785963 -63.179074034272524 13.368002422765066 0 1 0 I I #
coedge $-1 $255 $255 $-1 $376 reversed $160 $-1 #
edge $-1 $377 0 $377 6.2831853071796004 $161 $378 forward 7 unknown #
vertex $-1 $164 $379 #
ellipse-curve $-1 -35.821408128451225 -22.959890788656484 7.0250976380233796 0 -0.77714596973225614 0.62932038083071107 1.5 0 0 1 I I #
face $-1 $-1 $271 $34 $-1 $380 forward single #
loop $-1 $-1 $381 $165 #
plane-surface $-1 0 -28.096273669316357 0 0 1 0 0 0 1 forward_v I I I I #
coedge $-1 $382 $383 $384 $385 reversed $166 $-1 #
coedge $-1 $386 $168 $170 $269 forward $104 $-1 #
coedge $-1 $168 $386 $382 $387 forward $104 $-1 #
coedge $-1 $384 $171 $168 $266 forward $271 $-1 #
edge $-1 $273 -30.18264389550011 $388 -18.843064008169595 $265 $389 forward 7 unknown #
coedge $-1 $390 $391 $169 $268 forward $260 $-1 #
edge $-1 $392 -39.444350983815845 $272 -26.75854141433248 $267 $393 forward 7 unknown #
edge $-1 $273 -16.323586640813325 $392 -5.6870165216907905e-015 $170 $394 forward 7 unknown #
coedge $-1 $171 $384 $390 $395 forward $271 $-1 #
loop $-1 $-1 $384 $259 #
vertex $-1 $268 $396 #
vertex $-1 $172 $397 #
straight-curve $-1 54.695497847334963 -63.179074034272524 13.368002422765066 0 1 0 I I #
coedge $-1 $275 $275 $-1 $398 reversed $175 $-1 #
edge $-1 $399 0 $399 6.2831853071796004 $176 $400 forward 7 unknown #
vertex $-1 $179 $401 #
ellipse-curve $-1 49.025707903669705 -22.959890788656484 7.0250976380233796 0 -0.77714596973225614 0.62932038083071107 1.5 0 0 1 I I #
face $-1 $-1 $195 $27 $-1 $402 reversed single #
loop $-1 $-1 $295 $180 #
plane-surface $-1 0 28.096273669316357 0 0 -1 0 0 0 -1 forward_v I I I I #
coedge $-1 $403 $293 $296 $404 forward $181 $-1 #
coedge $-1 $299 $183 $184 $287 reversed $113 $-1 #
coedge $-1 $293 $403 $183 $285 reversed $181 $-1 #
edge $-1 $300 -13.368002422765063 $405 13.368002422765063 $284 $406 forward 7 unknown #
coedge $-1 $185 $184 $403 $407 forward $73 $-1 #
edge $-1 $291 -63.219702749717705 $405 63.219702749717705 $283 $408 forward 7 unknown #
coedge $-1 $296 $295 $185 $289 reversed $280 $-1 #
edge $-1 $409 -63.219702749717705 $290 63.219702749717705 $288 $410 forward 7 unknown #
vertex $-1 $187 $411 #
vertex $-1 $302 $412 #
straight-curve $-1 63.219702749717705 0 -13.368002422765063 0 -1 0 I I #
coedge $-1 $282 $284 $188 $294 reversed $181 $-1 #
edge $-1 $297 -28.096273669316357 $300 28.096273669316357 $293 $413 forward 7 unknown #
coedge $-1 $288 $189 $194 $303 forward $280 $-1 #
coedge $-1 $189 $288 $282 $404 reversed $280 $-1 #
vertex $-1 $190 $414 #
straight-curve $-1 0 28.096273669316357 13.368002422765063 -1 0 0 I I #
coedge $-1 $191 $283 $193 $302 reversed $113 $-1 #
vertex $-1 $294 $415 #
straight-curve $-1 0 -28.096273669316357 13.368002422765063 1 0 0 I I #
edge $-1 $196 -13.368002422765063 $291 13.368002422765063 $193 $416 forward 7 unknown #
edge $-1 $197 -13.368002422765063 $290 13.368002422765063 $194 $417 forward 7 unknown #
point $-1 63.219702749717705 -28.096273669316357 13.368002422765063 #
point $-1 63.219702749717705 28.096273669316357 13.368002422765063 #
face $-1 $-1 $323 $28 $-1 $418 reversed single #
loop $-1 $-1 $419 $199 #
plane-surface $-1 -63.219702749717705 0 0 1 0 0 0 0 -1 forward_v I I I I #
coedge $-1 $310 $326 $203 $313 forward $200 $-1 #
coedge $-1 $210 $309 $202 $311 forward $200 $-1 #
edge $-1 $317 -3.4875099237402036 $213 4.4264029946618866 $310 $420 forward 7 unknown #
coedge $-1 $204 $203 $419 $421 reversed $77 $-1 #
edge $-1 $422 -34.910926318663471 $317 -21.706626543444987 $309 $423 forward 7 unknown #
coedge $-1 $322 $321 $204 $315 forward $323 $-1 #
edge $-1 $316 21.706626543444987 $424 34.910926318663471 $314 $425 forward 7 unknown #
vertex $-1 $315 $426 #
vertex $-1 $313 $427 #
straight-curve $-1 -50.015402974499217 0 -3.0180633882793622 0 -1 0 I I #
coedge $-1 $428 $429 $207 $320 forward $307 $-1 #
edge $-1 $327 -28.096273669316357 $324 28.096273669316357 $319 $430 forward 7 unknown #
coedge $-1 $314 $208 $212 $329 forward $323 $-1 #
coedge $-1 $208 $314 $428 $431 reversed $323 $-1 #
loop $-1 $-1 $314 $306 #
vertex $-1 $431 $432 #
straight-curve $-1 -28.30877643105423 28.096273669316357 4.8958495301227281 1 0 0 I I #
coedge $-1 $309 $210 $429 $433 forward $200 $-1 #
vertex $-1 $433 $434 #
straight-curve $-1 -28.30877643105423 -28.096273669316357 4.8958495301227281 -1 0 0 I I #
edge $-1 $214 -4.4264029946618866 $316 3.4875099237402036 $321 $435 forward 7 unknown #
point $-1 -50.015402974499217 -28.096273669316357 4.8958495301227281 #
point $-1 -50.015402974499217 28.096273669316357 4.8958495301227281 #
loop $-1 $-1 $224 $216 #
plane-surface $-1 0 28.096273669316357 0 0 -1 0 0 0 -1 forward_v I I I I #
coedge $-1 $335 $219 $221 $339 reversed $129 $-1 #
coedge $-1 $219 $334 $436 $437 reversed $129 $-1 #
coedge $-1 $227 $222 $219 $337 forward $217 $-1 #
edge $-1 $340 -13.46824479678957 $438 -0.38110984688004024 $336 $439 forward 7 unknown #
coedge $-1 $221 $220 $343 $440 reversed $81 $-1 #
edge $-1 $441 -56.192547338632707 $340 -40.015958800739575 $334 $442 forward 7 unknown #
vertex $-1 $223 $443 #
straight-curve $-1 23.460821362010076 15.009138719406828 13.368002422765061 1 0 0 I I #
coedge $-1 $436 $224 $227 $347 reversed $332 $-1 #
coedge $-1 $224 $436 $338 $440 forward $332 $-1 #
vertex $-1 $225 $444 #
straight-curve $-1 40.827571030262092 28.096273669316357 69.59021014027519 0 0 1 I I #
straight-curve $-1 40.827571030262092 -17.36445177827828 36.888793162675995 0 0.80901698891910034 -0.5877852598018023 I I #
edge $-1 $438 -53.015714417778213 $228 -40.827571030262092 $342 $445 forward 7 unknown #
point $-1 40.827571030262092 28.096273669316357 13.368002422765063 #
point $-1 40.827571030262092 15.009138719406828 13.368002422765063 #
edge $-1 $446 1 $446 0 $231 $-1 forward 7 unknown #
vertex $-1 $232 $447 #
ellipse-curve $-1 44.309897712409544 19.659745980553648 6.008386110939016 0 0.5877852598018023 0.80901698891910034 1 0 0 1 I I #
point $-1 45.309897712409544 21.552706194361594 8.6138222745388866 #
edge $-1 $448 1 $448 0 $235 $-1 forward 7 unknown #
vertex $-1 $236 $449 #
ellipse-curve $-1 49.533387735630733 19.659745980553648 6.008386110939016 0 0.5877852598018023 0.80901698891910034 1 0 0 1 I I #
point $-1 50.533387735630733 21.552706194361594 8.6138222745388866 #
plane-surface $-1 0 0 13.368002422765063 0 0 1 1 0 0 forward_v I I I I #
coedge $-1 $369 $368 $361 $450 forward $240 $-1 #
coedge $-1 $361 $242 $244 $365 reversed $151 $-1 #
coedge $-1 $242 $360 $359 $450 reversed $151 $-1 #
coedge $-1 $250 $245 $242 $363 forward $251 $-1 #
edge $-1 $366 -45.35556612627591 $451 -35.082800364956171 $362 $452 forward 7 unknown #
coedge $-1 $244 $243 $369 $453 reversed $95 $-1 #
edge $-1 $454 5.6870165216907905e-015 $366 16.323586640813325 $360 $455 forward 7 unknown #
vertex $-1 $246 $456 #
straight-curve $-1 -17.910704064225612 -17.823507907996611 13.368002422765063 -1 0 0 I I #
coedge $-1 $359 $247 $250 $373 reversed $240 $-1 #
coedge $-1 $247 $359 $364 $453 forward $240 $-1 #
vertex $-1 $248 $457 #
straight-curve $-1 -30.151618184785963 -28.096273669316361 40.126543837097543 0 0 1 I I #
straight-curve $-1 -30.151618184785963 -28.096273669316361 0.68219285328169121 0 -0.62932038083071107 -0.77714596973225614 I I #
edge $-1 $451 -41.491198072116489 $252 -30.151618184785963 $368 $458 forward 7 unknown #
point $-1 -30.151618184785963 -28.096273669316357 13.368002422765063 #
point $-1 -30.151618184785963 -17.823507907996614 13.368002422765064 #
edge $-1 $459 1 $459 0 $255 $-1 forward 7 unknown #
vertex $-1 $256 $460 #
ellipse-curve $-1 -35.821408128451225 -19.355863605954703 4.1066140487389555 0 -0.77714596973225614 0.62932038083071107 1.5 0 0 1 I I #
point $-1 -34.321408128451225 -22.959890788656487 7.0250976380233805 #
plane-surface $-1 0 0 13.368002422765063 0 0 1 1 0 0 forward_v I I I I #
coedge $-1 $391 $390 $383 $461 forward $260 $-1 #
coedge $-1 $383 $262 $264 $387 reversed $166 $-1 #
coedge $-1 $262 $382 $381 $461 reversed $166 $-1 #
coedge $-1 $270 $265 $262 $385 forward $271 $-1 #
edge $-1 $388 -45.35556612627591 $462 -35.082800364956171 $384 $463 forward 7 unknown #
coedge $-1 $264 $263 $391 $464 reversed $104 $-1 #
edge $-1 $465 5.6870165216907905e-015 $388 16.323586640813325 $382 $466 forward 7 unknown #
vertex $-1 $266 $467 #
straight-curve $-1 24.512853951834852 -17.823507907996611 13.368002422765063 -1 0 0 I I #
coedge $-1 $381 $267 $270 $395 reversed $260 $-1 #
coedge $-1 $267 $381 $386 $464 forward $260 $-1 #
vertex $-1 $268 $468 #
straight-curve $-1 54.695497847334963 -28.096273669316361 40.126543837097543 0 0 1 I I #
straight-curve $-1 54.695497847334963 -28.096273669316361 0.68219285328169121 0 -0.62932038083071107 -0.77714596973225614 I I #
edge $-1 $462 43.355917960004447 $272 54.695497847334963 $390 $469 forward 7 unknown #
point $-1 54.695497847334963 -28.096273669316357 13.368002422765063 #
point $-1 54.695497847334963 -17.823507907996614 13.368002422765064 #
edge $-1 $470 1 $470 0 $275 $-1 forward 7 unknown #
vertex $-1 $276 $471 #
ellipse-curve $-1 49.025707903669705 -19.355863605954703 4.1066140487389555 0 -0.77714596973225614 0.62932038083071107 1.5 0 0 1 I I #
point $-1 50.525707903669705 -22.959890788656487 7.0250976380233805 #
plane-surface $-1 63.219702749717705 0 0 -1 0 0 0 0 1 forward_v I I I I #
coedge $-1 $284 $282 $286 $407 reversed $181 $-1 #
edge $-1 $297 -13.368002422765063 $409 13.368002422765063 $296 $472 forward 7 unknown #
vertex $-1 $407 $473 #
straight-curve $-1 -63.219702749717705 -28.096273669316357 0 0 0 -1 I I #
edge $-1 $405 -28.096273669316357 $409 28.096273669316357 $403 $474 forward 7 unknown #
straight-curve $-1 0 -28.096273669316357 -13.368002422765063 -1 0 0 I I #
vertex $-1 $289 $475 #
straight-curve $-1 0 28.096273669316357 -13.368002422765063 1 0 0 I I #
point $-1 63.219702749717705 28.096273669316357 -13.368002422765063 #
point $-1 63.219702749717705 -28.096273669316357 -13.368002422765063 #
straight-curve $-1 -63.219702749717705 0 13.368002422765063 0 -1 0 I I #
point $-1 -63.219702749717705 28.096273669316357 13.368002422765063 #
point $-1 -63.219702749717705 -28.096273669316357 13.368002422765063 #
straight-curve $-1 63.219702749717705 -28.096273669316357 0 0 0 -1 I I #
straight-curve $-1 63.219702749717705 28.096273669316357 0 0 0 -1 I I #
plane-surface $-1 0 28.096273669316357 0 0 -1 0 0 0 -1 forward_v I I I I #
coedge $-1 $429 $428 $312 $421 forward $307 $-1 #
straight-curve $-1 -50.015402974499217 -28.096273669316357 0.46944653546084147 0 0 1 I I #
edge $-1 $424 -28.096273669316357 $422 28.096273669316357 $419 $476 forward 7 unknown #
vertex $-1 $313 $477 #
straight-curve $-1 -28.30877643105423 -28.096273669316357 -3.0180633882793622 1 0 0 I I #
vertex $-1 $315 $478 #
straight-curve $-1 -28.30877643105423 28.096273669316357 -3.0180633882793622 -1 0 0 I I #
point $-1 -50.015402974499217 28.096273669316357 -3.0180633882793622 #
point $-1 -50.015402974499217 -28.096273669316357 -3.0180633882793622 #
coedge $-1 $419 $319 $322 $431 forward $307 $-1 #
coedge $-1 $319 $419 $326 $433 reversed $307 $-1 #
straight-curve $-1 -63.219702749717705 0 4.8958495301227281 0 1 0 I I #
edge $-1 $324 -4.8958495301227281 $424 3.0180633882793622 $322 $479 forward 7 unknown #
point $-1 -63.219702749717705 28.096273669316357 4.8958495301227281 #
edge $-1 $327 -4.8958495301227281 $422 3.0180633882793622 $429 $480 forward 7 unknown #
point $-1 -63.219702749717705 -28.096273669316357 4.8958495301227281 #
straight-curve $-1 -50.015402974499217 28.096273669316357 0.46944653546084147 0 0 -1 I I #
coedge $-1 $343 $342 $335 $437 forward $332 $-1 #
edge $-1 $438 56.22220771751013 $441 65.730568013962497 $436 $481 forward 7 unknown #
vertex $-1 $347 $482 #
straight-curve $-1 53.015714417778213 28.477383516196397 13.368002422765059 0 1 0 I I #
edge $-1 $441 -29.554893055768137 $344 -17.366749668252016 $343 $483 forward 7 unknown #
vertex $-1 $440 $484 #
straight-curve $-1 53.015714417778213 -17.36445177827828 36.888793162675995 0 -0.80901698891910034 0.5877852598018023 I I #
point $-1 53.015714417778213 15.009138719406828 13.368002422765063 #
point $-1 40.827571030262092 28.096273669316361 3.8596421263126928 #
straight-curve $-1 0 28.096273669316357 13.368002422765063 -1 0 0 I I #
vertex $-1 $350 $485 #
point $-1 45.309897712409544 19.659745980553648 6.008386110939016 #
vertex $-1 $354 $486 #
point $-1 50.533387735630733 19.659745980553648 6.008386110939016 #
edge $-1 $451 26.75854141433248 $454 39.444350983815845 $359 $487 forward 7 unknown #
vertex $-1 $373 $488 #
straight-curve $-1 -41.491198072116489 -63.179074034272524 13.368002422765066 0 -1 0 I I #
edge $-1 $454 -23.580494007890877 $370 -12.240914120560351 $369 $489 forward 7 unknown #
vertex $-1 $453 $490 #
straight-curve $-1 -41.491198072116489 -28.096273669316361 0.68219285328169121 0 0.62932038083071107 0.77714596973225614 I I #
point $-1 -41.491198072116489 -17.823507907996614 13.368002422765064 #
point $-1 -30.151618184785963 -28.096273669316357 0.68219285328169565 #
straight-curve $-1 0 -28.096273669316357 13.368002422765063 1 0 0 I I #
vertex $-1 $376 $491 #
point $-1 -34.321408128451225 -19.355863605954703 4.1066140487389555 #
edge $-1 $462 26.75854141433248 $465 39.444350983815845 $381 $492 forward 7 unknown #
vertex $-1 $395 $493 #
straight-curve $-1 43.355917960004447 -63.179074034272524 13.368002422765066 0 -1 0 I I #
edge $-1 $465 18.843064008169595 $392 30.18264389550011 $391 $494 forward 7 unknown #
vertex $-1 $464 $495 #
straight-curve $-1 43.355917960004447 -28.096273669316361 0.68219285328169121 0 0.62932038083071107 0.77714596973225614 I I #
point $-1 43.355917960004447 -17.823507907996614 13.368002422765064 #
point $-1 54.695497847334963 -28.096273669316357 0.68219285328169565 #
straight-curve $-1 0 -28.096273669316357 13.368002422765063 1 0 0 I I #
vertex $-1 $398 $496 #
point $-1 50.525707903669705 -19.355863605954703 4.1066140487389555 #
straight-curve $-1 -63.219702749717705 28.096273669316357 0 0 0 -1 I I #
point $-1 -63.219702749717705 -28.096273669316357 -13.368002422765063 #
straight-curve $-1 -63.219702749717705 0 -13.368002422765063 0 1 0 I I #
point $-1 -63.219702749717705 28.096273669316357 -13.368002422765063 #
straight-curve $-1 -63.219702749717705 0 -3.0180633882793622 0 -1 0 I I #
point $-1 -63.219702749717705 -28.096273669316357 -3.0180633882793622 #
point $-1 -63.219702749717705 28.096273669316357 -3.0180633882793622 #
straight-curve $-1 -63.219702749717705 28.096273669316357 0 0 0 -1 I I #
straight-curve $-1 -63.219702749717705 -28.096273669316357 0 0 0 -1 I I #
straight-curve $-1 53.015714417778213 28.096273669316357 69.59021014027519 0 0 -1 I I #
point $-1 53.015714417778213 28.096273669316357 13.368002422765063 #
straight-curve $-1 23.460821362010076 28.096273669316354 3.8596421263126963 -1 0 0 I I #
point $-1 53.015714417778213 28.096273669316361 3.8596421263126928 #
point $-1 44.309897712409544 19.071960720751843 5.199369122019915 #
point $-1 49.533387735630733 19.071960720751843 5.199369122019915 #
straight-curve $-1 -41.491198072116489 -28.096273669316361 40.126543837097543 0 0 -1 I I #
point $-1 -41.491198072116489 -28.096273669316357 13.368002422765063 #
straight-curve $-1 -17.910704064225612 -28.096273669316357 0.68219285328169565 1 0 0 I I #
point $-1 -41.491198072116489 -28.096273669316357 0.68219285328169565 #
point $-1 -35.821408128451225 -18.19014465135632 3.1626334774928888 #
straight-curve $-1 43.355917960004447 -28.096273669316361 40.126543837097543 0 0 -1 I I #
point $-1 43.355917960004447 -28.096273669316357 13.368002422765063 #
straight-curve $-1 24.512853951834852 -28.096273669316357 0.68219285328169565 1 0 0 I I #
point $-1 43.355917960004447 -28.096273669316357 0.68219285328169565 #
point $-1 49.025707903669705 -18.19014465135632 3.1626334774928888 #
End-of-ACIS-data 