500 0 9 0           
7 Unknown 11 ACIS 5.0 NT 24 Thu Mar 25 22:36:01 1999 
-1 9.9999999999999995e-007 1e-010 
body $-1 $9 $-1 $10 #
body $-1 $11 $-1 $12 #
body $-1 $13 $-1 $14 #
body $-1 $15 $-1 $16 #
body $-1 $17 $-1 $18 #
body $-1 $19 $-1 $20 #
body $-1 $21 $-1 $22 #
body $-1 $23 $-1 $24 #
body $-1 $25 $-1 $26 #
lump $-1 $-1 $27 $0 #
transform $-1 1 0 0 0 1 0 0 0 1 59.579454939420756 38.486178688444518 19.240622808523362 1 rotate no_reflect no_shear #
lump $-1 $-1 $28 $1 #
transform $-1 1 0 0 0 1 0 0 0 1 59.579454939420756 38.486178688444518 19.240622808523362 1 rotate no_reflect no_shear #
lump $-1 $-1 $29 $2 #
transform $-1 1 0 0 0 1 0 0 0 1 59.579454939420756 38.486178688444518 19.240622808523362 1 rotate no_reflect no_shear #
lump $-1 $-1 $30 $3 #
transform $-1 1 0 0 0 1 0 0 0 1 59.579454939420756 38.486178688444518 19.240622808523362 1 rotate no_reflect no_shear #
lump $-1 $-1 $31 $4 #
transform $-1 1 0 0 0 1 0 0 0 1 59.579454939420756 38.486178688444518 19.240622808523362 1 rotate no_reflect no_shear #
lump $-1 $-1 $32 $5 #
transform $-1 1 0 0 0 1 0 0 0 1 59.579454939420756 38.486178688444518 19.240622808523362 1 rotate no_reflect no_shear #
lump $-1 $-1 $33 $6 #
transform $-1 1 0 0 0 1 0 0 0 1 59.579454939420756 38.486178688444518 19.240622808523362 1 rotate no_reflect no_shear #
lump $-1 $-1 $34 $7 #
transform $-1 1 0 0 0 1 0 0 0 1 59.579454939420756 38.486178688444518 19.240622808523362 1 rotate no_reflect no_shear #
lump $-1 $-1 $35 $8 #
transform $-1 1 0 0 0 1 0 0 0 1 59.579454939420756 38.486178688444518 19.240622808523362 1 rotate no_reflect no_shear #
shell $-1 $-1 $-1 $36 $-1 $9 #
shell $-1 $-1 $-1 $37 $-1 $11 #
shell $-1 $-1 $-1 $38 $-1 $13 #
shell $-1 $-1 $-1 $39 $-1 $15 #
shell $-1 $-1 $-1 $40 $-1 $17 #
shell $-1 $-1 $-1 $41 $-1 $19 #
shell $-1 $-1 $-1 $42 $-1 $21 #
shell $-1 $-1 $-1 $43 $-1 $23 #
shell $-1 $-1 $-1 $44 $-1 $25 #
face $-1 $45 $46 $27 $-1 $47 forward single #
face $-1 $48 $49 $28 $-1 $50 reversed single #
face $-1 $51 $52 $29 $-1 $53 forward single #
face $-1 $54 $55 $30 $-1 $56 reversed single #
face $-1 $57 $58 $31 $-1 $59 forward single #
face $-1 $60 $61 $32 $-1 $62 forward single #
face $-1 $63 $64 $33 $-1 $65 reversed single #
face $-1 $66 $67 $34 $-1 $68 forward single #
face $-1 $69 $70 $35 $-1 $71 forward single #
face $-1 $72 $73 $27 $-1 $74 reversed single #
loop $-1 $-1 $75 $36 #
plane-surface $-1 0 0 19.240622808523362 0 0 1 1 0 0 forward_v I I I I #
face $-1 $76 $77 $28 $-1 $78 reversed single #
loop $-1 $-1 $79 $37 #
plane-surface $-1 -44.08737839976645 51.192684983494168 146.33253284940915 -1 0 0 0 0.61566148304635926 0.78801074757464917 forward_v I I I I #
face $-1 $80 $81 $29 $-1 $82 forward single #
loop $-1 $83 $84 $38 #
cone-surface $-1 -51.833416669593603 27.370614178341263 9.5434942440357986 0 -0.61566148304635926 -0.78801074757464917 3 0 0 1 I I 0 1 3 forward I I I I #
face $-1 $85 $86 $30 $-1 $87 reversed single #
loop $-1 $-1 $88 $39 #
plane-surface $-1 -9.9146495497886331 -138.42125026607653 68.184682776299752 -1 0 0 0 -0.83867057594974714 0.54463902268945019 forward_v I I I I #
face $-1 $89 $90 $31 $-1 $91 forward single #
loop $-1 $92 $93 $40 #
cone-surface $-1 -26.910206695518141 -30.232492900859551 9.2676046308595588 0 0.83867057594974714 -0.54463902268945019 2 0 0 1 I I 0 1 2 forward I I I I #
face $-1 $94 $95 $32 $-1 $96 forward single #
loop $-1 $97 $98 $41 #
cone-surface $-1 -16.712872408080443 -30.232492900859551 9.2676046308595588 0 0.83867057594974714 -0.54463902268945019 2 0 0 1 I I 0 1 2 forward I I I I #
face $-1 $99 $100 $33 $-1 $101 reversed single #
loop $-1 $-1 $102 $42 #
plane-surface $-1 33.70842955380995 -138.42125026607653 68.184682776299752 -1 0 0 0 -0.83867057594974714 0.54463902268945019 forward_v I I I I #
face $-1 $103 $104 $34 $-1 $105 forward single #
loop $-1 $106 $107 $43 #
cone-surface $-1 16.712872408080429 -30.232492900859551 9.2676046308595588 0 0.83867057594974714 -0.54463902268945019 2 0 0 1 I I 0 1 2 forward I I I I #
face $-1 $108 $109 $35 $-1 $110 forward single #
loop $-1 $111 $112 $44 #
cone-surface $-1 26.910206695518141 -30.232492900859551 9.2676046308595588 0 0.83867057594974714 -0.54463902268945019 2 0 0 1 I I 0 1 2 forward I I I I #
face $-1 $113 $114 $27 $-1 $115 reversed single #
loop $-1 $-1 $116 $45 #
plane-surface $-1 0 0 -19.240622808523362 0 0 1 1 0 0 forward_v I I I I #
coedge $-1 $117 $118 $119 $120 forward $46 $-1 #
face $-1 $121 $122 $28 $-1 $123 reversed single #
loop $-1 $-1 $124 $48 #
plane-surface $-1 -51.833416669593603 -22.168866190700861 52.434031195602998 0 0.61566148304635926 0.78801074757464917 1 0 0 forward_v I I I I #
coedge $-1 $125 $126 $127 $128 reversed $49 $-1 #
face $-1 $-1 $129 $29 $-1 $130 forward single #
loop $-1 $131 $132 $51 #
cone-surface $-1 -51.833416669593603 24.416267657741209 5.762103212761378 0 -0.61566148304635926 -0.78801074757464917 1.5 0 0 1 I I -0.70710678118654757 0.70710678118654757 1.5 forward I I I I #
loop $-1 $-1 $133 $38 #
coedge $-1 $84 $84 $134 $135 reversed $52 $-1 #
face $-1 $136 $137 $30 $-1 $138 reversed single #
loop $-1 $-1 $139 $54 #
plane-surface $-1 -21.811539551799285 -38.486178688444511 3.2860905551472399 0 -0.83867057594974714 0.54463902268945019 1 0 0 forward_v I I I I #
coedge $-1 $140 $141 $142 $143 reversed $55 $-1 #
face $-1 $-1 $144 $31 $-1 $145 forward single #
loop $-1 $146 $147 $57 #
cone-surface $-1 -26.910206695518141 -26.320633566271962 6.7272135571943608 0 0.83867057594974714 -0.54463902268945019 1 0 0 1 I I -0.70710678118654746 0.70710678118654746 1 forward I I I I #
loop $-1 $-1 $148 $40 #
coedge $-1 $93 $93 $149 $150 reversed $58 $-1 #
face $-1 $-1 $151 $32 $-1 $152 forward single #
loop $-1 $153 $154 $60 #
cone-surface $-1 -16.712872408080443 -26.320633566271962 6.7272135571943608 0 0.83867057594974714 -0.54463902268945019 1 0 0 1 I I -0.70710678118654746 0.70710678118654746 1 forward I I I I #
loop $-1 $-1 $155 $41 #
coedge $-1 $98 $98 $156 $157 reversed $61 $-1 #
face $-1 $158 $159 $33 $-1 $160 reversed single #
loop $-1 $-1 $161 $63 #
plane-surface $-1 21.811539551799299 -38.486178688444511 3.2860905551472399 0 -0.83867057594974714 0.54463902268945019 1 0 0 forward_v I I I I #
coedge $-1 $162 $163 $164 $165 reversed $64 $-1 #
face $-1 $-1 $166 $34 $-1 $167 forward single #
loop $-1 $168 $169 $66 #
cone-surface $-1 16.712872408080429 -26.320633566271962 6.7272135571943608 0 0.83867057594974714 -0.54463902268945019 1 0 0 1 I I -0.70710678118654746 0.70710678118654746 1 forward I I I I #
loop $-1 $-1 $170 $43 #
coedge $-1 $107 $107 $171 $172 reversed $67 $-1 #
face $-1 $-1 $173 $35 $-1 $174 forward single #
loop $-1 $175 $176 $69 #
cone-surface $-1 26.910206695518141 -26.320633566271962 6.7272135571943608 0 0.83867057594974714 -0.54463902268945019 1 0 0 1 I I -0.70710678118654746 0.70710678118654746 1 forward I I I I #
loop $-1 $-1 $177 $44 #
coedge $-1 $112 $112 $178 $179 reversed $70 $-1 #
face $-1 $180 $181 $27 $-1 $182 reversed single #
loop $-1 $-1 $183 $72 #
plane-surface $-1 0 -38.486178688444518 0 0 1 0 0 0 1 forward_v I I I I #
coedge $-1 $184 $185 $186 $187 forward $73 $-1 #
coedge $-1 $188 $75 $189 $190 forward $46 $-1 #
coedge $-1 $75 $188 $191 $192 forward $46 $-1 #
coedge $-1 $193 $194 $75 $120 reversed $195 $-1 #
edge $-1 $196 -38.486178688444518 $197 38.486178688444518 $119 $198 forward 7 unknown #
face $-1 $199 $200 $28 $-1 $201 forward single #
loop $-1 $-1 $127 $76 #
plane-surface $-1 0 38.486178688444518 0 0 -1 0 0 0 -1 forward_v I I I I #
coedge $-1 $202 $203 $204 $205 reversed $77 $-1 #
coedge $-1 $126 $79 $206 $207 reversed $49 $-1 #
coedge $-1 $79 $125 $202 $208 reversed $49 $-1 #
coedge $-1 $204 $209 $79 $128 forward $122 $-1 #
edge $-1 $210 53.925643616181212 $211 68.121150925331449 $127 $212 forward 7 unknown #
loop $-1 $-1 $134 $80 #
plane-surface $-1 -51.833416669593603 -22.168866190700861 52.434031195602998 0 0.61566148304635926 0.78801074757464917 1 0 0 forward_v I I I I #
loop $-1 $-1 $213 $51 #
coedge $-1 $132 $132 $133 $214 reversed $81 $-1 #
coedge $-1 $133 $133 $132 $214 forward $83 $-1 #
coedge $-1 $134 $134 $84 $135 forward $129 $-1 #
edge $-1 $215 -3.6454482872156721e-016 $215 6.2831853071796004 $134 $216 forward 7 unknown #
face $-1 $217 $218 $30 $-1 $219 reversed single #
loop $-1 $-1 $220 $85 #
plane-surface $-1 -33.708429553809935 -138.42125026607653 68.184682776299752 1 0 0 0 0.83867057594974714 -0.54463902268945019 forward_v I I I I #
coedge $-1 $221 $222 $223 $224 reversed $86 $-1 #
coedge $-1 $141 $88 $225 $226 reversed $55 $-1 #
coedge $-1 $88 $140 $221 $227 reversed $55 $-1 #
coedge $-1 $223 $228 $88 $143 forward $229 $-1 #
edge $-1 $230 30.724446444593745 $231 41.085440502488012 $142 $232 forward 7 unknown #
loop $-1 $-1 $149 $89 #
plane-surface $-1 -21.811539551799285 -38.486178688444511 3.2860905551472399 0 -0.83867057594974714 0.54463902268945019 1 0 0 forward_v I I I I #
loop $-1 $-1 $233 $57 #
coedge $-1 $147 $147 $148 $234 reversed $90 $-1 #
coedge $-1 $148 $148 $147 $234 forward $92 $-1 #
coedge $-1 $149 $149 $93 $150 forward $144 $-1 #
edge $-1 $235 -1.6352256914465713e-015 $235 6.2831853071795987 $149 $236 forward 7 unknown #
loop $-1 $-1 $156 $94 #
plane-surface $-1 -21.811539551799285 -38.486178688444511 3.2860905551472399 0 -0.83867057594974714 0.54463902268945019 1 0 0 forward_v I I I I #
loop $-1 $-1 $237 $60 #
coedge $-1 $154 $154 $155 $238 reversed $95 $-1 #
coedge $-1 $155 $155 $154 $238 forward $97 $-1 #
coedge $-1 $156 $156 $98 $157 forward $151 $-1 #
edge $-1 $239 -1.6352256914465713e-015 $239 6.2831853071795987 $156 $240 forward 7 unknown #
face $-1 $241 $242 $33 $-1 $243 reversed single #
loop $-1 $-1 $244 $99 #
plane-surface $-1 9.9146495497886473 -138.42125026607653 68.184682776299752 1 0 0 0 0.83867057594974714 -0.54463902268945019 forward_v I I I I #
coedge $-1 $245 $246 $247 $248 reversed $100 $-1 #
coedge $-1 $163 $102 $249 $250 reversed $64 $-1 #
coedge $-1 $102 $162 $245 $251 reversed $64 $-1 #
coedge $-1 $247 $252 $102 $165 forward $253 $-1 #
edge $-1 $254 30.724446444593745 $255 41.085440502488012 $164 $256 forward 7 unknown #
loop $-1 $-1 $171 $103 #
plane-surface $-1 21.811539551799299 -38.486178688444511 3.2860905551472399 0 -0.83867057594974714 0.54463902268945019 1 0 0 forward_v I I I I #
loop $-1 $-1 $257 $66 #
coedge $-1 $169 $169 $170 $258 reversed $104 $-1 #
coedge $-1 $170 $170 $169 $258 forward $106 $-1 #
coedge $-1 $171 $171 $107 $172 forward $166 $-1 #
edge $-1 $259 -1.6352256914465713e-015 $259 6.2831853071795987 $171 $260 forward 7 unknown #
loop $-1 $-1 $178 $108 #
plane-surface $-1 21.811539551799299 -38.486178688444511 3.2860905551472399 0 -0.83867057594974714 0.54463902268945019 1 0 0 forward_v I I I I #
loop $-1 $-1 $261 $69 #
coedge $-1 $176 $176 $177 $262 reversed $109 $-1 #
coedge $-1 $177 $177 $176 $262 forward $111 $-1 #
coedge $-1 $178 $178 $112 $179 forward $173 $-1 #
edge $-1 $263 -1.6352256914465713e-015 $263 6.2831853071795987 $178 $264 forward 7 unknown #
face $-1 $265 $266 $27 $-1 $267 reversed single #
loop $-1 $-1 $268 $113 #
plane-surface $-1 -59.579454939420756 0 0 1 0 0 0 0 -1 forward_v I I I I #
coedge $-1 $269 $191 $270 $271 forward $114 $-1 #
coedge $-1 $272 $116 $269 $273 forward $73 $-1 #
coedge $-1 $116 $272 $274 $275 forward $73 $-1 #
coedge $-1 $194 $193 $116 $187 reversed $195 $-1 #
edge $-1 $276 -38.486178688444518 $277 38.486178688444518 $186 $278 forward 7 unknown #
coedge $-1 $118 $117 $279 $280 forward $46 $-1 #
coedge $-1 $281 $282 $117 $190 reversed $266 $-1 #
edge $-1 $197 -59.579454939420756 $283 59.579454939420756 $189 $284 forward 7 unknown #
coedge $-1 $183 $285 $118 $192 reversed $114 $-1 #
edge $-1 $286 -59.579454939420756 $196 59.579454939420756 $191 $287 forward 7 unknown #
coedge $-1 $186 $119 $285 $288 forward $195 $-1 #
coedge $-1 $119 $186 $281 $289 reversed $195 $-1 #
loop $-1 $-1 $193 $265 #
vertex $-1 $120 $290 #
vertex $-1 $120 $291 #
straight-curve $-1 59.579454939420756 0 19.240622808523362 0 1 0 I I #
face $-1 $-1 $292 $28 $-1 $293 reversed single #
loop $-1 $-1 $206 $121 #
plane-surface $-1 0 0 19.240622808523362 0 0 1 1 0 0 forward_v I I I I #
coedge $-1 $294 $124 $126 $208 forward $77 $-1 #
coedge $-1 $124 $294 $295 $296 reversed $77 $-1 #
coedge $-1 $297 $127 $124 $205 forward $122 $-1 #
edge $-1 $211 18.170670064969649 $298 33.662746604623955 $204 $299 forward 7 unknown #
coedge $-1 $300 $301 $125 $207 forward $200 $-1 #
edge $-1 $302 -5.2795842314480588 $210 12.889836196697434 $206 $303 forward 7 unknown #
edge $-1 $211 -76.972357376889022 $302 -53.915031719761124 $126 $304 forward 7 unknown #
coedge $-1 $127 $297 $300 $305 reversed $122 $-1 #
vertex $-1 $305 $306 #
vertex $-1 $128 $307 #
straight-curve $-1 -44.08737839976645 38.486178688444518 73.166266424704574 0 0 -1 I I #
coedge $-1 $213 $213 $-1 $308 reversed $131 $-1 #
edge $-1 $309 0 $309 6.2831853071796004 $132 $310 forward 7 unknown #
vertex $-1 $135 $311 #
ellipse-curve $-1 -51.833416669593603 29.401468474371775 12.142869153948244 0 0.61566148304635926 0.78801074757464917 3 0 0 1 I I #
face $-1 $-1 $229 $30 $-1 $312 forward single #
loop $-1 $-1 $313 $136 #
plane-surface $-1 0 -38.486178688444518 0 0 1 0 0 0 1 forward_v I I I I #
coedge $-1 $314 $315 $316 $317 reversed $137 $-1 #
coedge $-1 $318 $139 $141 $227 forward $86 $-1 #
coedge $-1 $139 $318 $314 $319 forward $86 $-1 #
coedge $-1 $316 $142 $139 $224 forward $229 $-1 #
edge $-1 $231 -0.99112022611100947 $320 22.802659777910293 $223 $321 forward 7 unknown #
coedge $-1 $322 $323 $140 $226 forward $218 $-1 #
edge $-1 $324 -30.806250833002647 $230 -14.851718579626514 $225 $325 forward 7 unknown #
edge $-1 $231 -19.023598431730498 $324 1.3181006846785195e-014 $141 $326 forward 7 unknown #
coedge $-1 $142 $316 $322 $327 forward $229 $-1 #
loop $-1 $-1 $316 $217 #
vertex $-1 $226 $328 #
vertex $-1 $143 $329 #
straight-curve $-1 -9.9146495497886331 -69.210625133038263 19.240622808523362 0 1 0 I I #
coedge $-1 $233 $233 $-1 $330 reversed $146 $-1 #
edge $-1 $331 0 $331 6.2831853071796004 $147 $332 forward 7 unknown #
vertex $-1 $150 $333 #
ellipse-curve $-1 -26.910206695518141 -33.305681659497381 11.263356681835299 0 -0.83867057594974714 0.54463902268945019 2 0 0 1 I I #
coedge $-1 $237 $237 $-1 $334 reversed $153 $-1 #
edge $-1 $335 0 $335 6.2831853071796004 $154 $336 forward 7 unknown #
vertex $-1 $157 $337 #
ellipse-curve $-1 -16.712872408080443 -33.305681659497381 11.263356681835299 0 -0.83867057594974714 0.54463902268945019 2 0 0 1 I I #
face $-1 $-1 $253 $33 $-1 $338 forward single #
loop $-1 $-1 $339 $158 #
plane-surface $-1 0 -38.486178688444518 0 0 1 0 0 0 1 forward_v I I I I #
coedge $-1 $340 $341 $342 $343 reversed $159 $-1 #
coedge $-1 $344 $161 $163 $251 forward $100 $-1 #
coedge $-1 $161 $344 $340 $345 forward $100 $-1 #
coedge $-1 $342 $164 $161 $248 forward $253 $-1 #
edge $-1 $255 -22.8026597779103 $346 0.99112022611100237 $247 $347 forward 7 unknown #
coedge $-1 $348 $349 $162 $250 forward $242 $-1 #
edge $-1 $350 -30.806250833002647 $254 -14.851718579626514 $249 $351 forward 7 unknown #
edge $-1 $255 -19.023598431730498 $350 1.3181006846785195e-014 $163 $352 forward 7 unknown #
coedge $-1 $164 $342 $348 $353 forward $253 $-1 #
loop $-1 $-1 $342 $241 #
vertex $-1 $250 $354 #
vertex $-1 $165 $355 #
straight-curve $-1 33.70842955380995 -69.210625133038263 19.240622808523362 0 1 0 I I #
coedge $-1 $257 $257 $-1 $356 reversed $168 $-1 #
edge $-1 $357 0 $357 6.2831853071796004 $169 $358 forward 7 unknown #
vertex $-1 $172 $359 #
ellipse-curve $-1 16.712872408080429 -33.305681659497381 11.263356681835299 0 -0.83867057594974714 0.54463902268945019 2 0 0 1 I I #
coedge $-1 $261 $261 $-1 $360 reversed $175 $-1 #
edge $-1 $361 0 $361 6.2831853071796004 $176 $362 forward 7 unknown #
vertex $-1 $179 $363 #
ellipse-curve $-1 26.910206695518141 -33.305681659497381 11.263356681835299 0 -0.83867057594974714 0.54463902268945019 2 0 0 1 I I #
face $-1 $-1 $195 $27 $-1 $364 reversed single #
loop $-1 $-1 $281 $180 #
plane-surface $-1 0 38.486178688444518 0 0 -1 0 0 0 -1 forward_v I I I I #
coedge $-1 $365 $279 $282 $366 forward $181 $-1 #
coedge $-1 $285 $183 $184 $273 reversed $114 $-1 #
coedge $-1 $279 $365 $183 $271 reversed $181 $-1 #
edge $-1 $286 -19.240622808523362 $367 19.240622808523362 $270 $368 forward 7 unknown #
coedge $-1 $185 $184 $365 $369 forward $73 $-1 #
edge $-1 $277 -59.579454939420756 $367 59.579454939420756 $269 $370 forward 7 unknown #
coedge $-1 $282 $281 $185 $275 reversed $266 $-1 #
edge $-1 $371 -59.579454939420756 $276 59.579454939420756 $274 $372 forward 7 unknown #
vertex $-1 $187 $373 #
vertex $-1 $288 $374 #
straight-curve $-1 59.579454939420756 0 -19.240622808523362 0 -1 0 I I #
coedge $-1 $268 $270 $188 $280 reversed $181 $-1 #
edge $-1 $283 -38.486178688444518 $286 38.486178688444518 $279 $375 forward 7 unknown #
coedge $-1 $274 $189 $194 $289 forward $266 $-1 #
coedge $-1 $189 $274 $268 $366 reversed $266 $-1 #
vertex $-1 $190 $376 #
straight-curve $-1 0 38.486178688444518 19.240622808523362 -1 0 0 I I #
coedge $-1 $191 $269 $193 $288 reversed $114 $-1 #
vertex $-1 $280 $377 #
straight-curve $-1 0 -38.486178688444518 19.240622808523362 1 0 0 I I #
edge $-1 $196 -19.240622808523362 $277 19.240622808523362 $193 $378 forward 7 unknown #
edge $-1 $197 -19.240622808523362 $276 19.240622808523362 $194 $379 forward 7 unknown #
point $-1 59.579454939420756 -38.486178688444518 19.240622808523362 #
point $-1 59.579454939420756 38.486178688444518 19.240622808523362 #
loop $-1 $-1 $295 $199 #
plane-surface $-1 -59.579454939420756 0 0 1 0 0 0 0 -1 forward_v I I I I #
coedge $-1 $203 $202 $301 $380 reversed $77 $-1 #
coedge $-1 $381 $382 $203 $296 forward $292 $-1 #
edge $-1 $298 -52.096898262988738 $383 -29.03957260586084 $295 $384 forward 7 unknown #
coedge $-1 $209 $204 $382 $385 reversed $122 $-1 #
vertex $-1 $205 $386 #
straight-curve $-1 -25.916708334796802 38.486178688444518 5.0451154993731322 -1 0 0 I I #
coedge $-1 $387 $206 $209 $305 forward $200 $-1 #
coedge $-1 $206 $387 $294 $380 forward $200 $-1 #
vertex $-1 $207 $388 #
straight-curve $-1 -44.08737839976645 25.596342491747084 19.240622808523362 0 1 0 I I #
straight-curve $-1 -44.08737839976645 -22.168866190700861 52.434031195602998 0 -0.78801074757464917 0.61566148304635926 I I #
edge $-1 $210 44.08737839976645 $389 59.579454939420756 $209 $390 forward 7 unknown #
point $-1 -44.08737839976645 38.486178688444518 19.240622808523362 #
point $-1 -44.08737839976645 38.486178688444518 5.0451154993731322 #
edge $-1 $391 1 $391 0 $213 $-1 forward 7 unknown #
vertex $-1 $214 $392 #
ellipse-curve $-1 -51.833416669593603 25.339759882310748 6.9441193341233518 0 0.61566148304635926 0.78801074757464917 3 0 0 1 I I #
point $-1 -48.833416669593603 29.401468474371775 12.142869153948245 #
plane-surface $-1 0 0 19.240622808523362 0 0 1 1 0 0 forward_v I I I I #
coedge $-1 $323 $322 $315 $393 forward $218 $-1 #
coedge $-1 $315 $220 $222 $319 reversed $137 $-1 #
coedge $-1 $220 $314 $313 $393 reversed $137 $-1 #
coedge $-1 $228 $223 $220 $317 forward $229 $-1 #
edge $-1 $320 -41.085440502488012 $394 -30.724446444593745 $316 $395 forward 7 unknown #
coedge $-1 $222 $221 $323 $396 reversed $86 $-1 #
edge $-1 $397 -1.3181006846785195e-014 $320 19.023598431730498 $314 $398 forward 7 unknown #
vertex $-1 $224 $399 #
straight-curve $-1 -10.905769775899643 -28.125184630550262 19.240622808523362 -1 0 0 I I #
coedge $-1 $313 $225 $228 $327 reversed $218 $-1 #
coedge $-1 $225 $313 $318 $396 forward $218 $-1 #
vertex $-1 $226 $400 #
straight-curve $-1 -9.9146495497886331 -38.486178688444518 34.092341388149876 0 0 1 I I #
straight-curve $-1 -9.9146495497886331 -38.486178688444511 3.2860905551472399 0 -0.54463902268945019 -0.83867057594974714 I I #
edge $-1 $394 -33.708429553809935 $230 -9.9146495497886331 $322 $401 forward 7 unknown #
point $-1 -9.9146495497886331 -38.486178688444518 19.240622808523362 #
point $-1 -9.9146495497886331 -28.125184630550255 19.240622808523362 #
edge $-1 $402 1 $402 0 $233 $-1 forward 7 unknown #
vertex $-1 $234 $403 #
ellipse-curve $-1 -26.910206695518141 -27.159304142221711 7.2718525798838112 0 -0.83867057594974714 0.54463902268945019 2 0 0 1 I I #
point $-1 -24.910206695518141 -33.305681659497395 11.263356681835305 #
edge $-1 $404 1 $404 0 $237 $-1 forward 7 unknown #
vertex $-1 $238 $405 #
ellipse-curve $-1 -16.712872408080443 -27.159304142221711 7.2718525798838112 0 -0.83867057594974714 0.54463902268945019 2 0 0 1 I I #
point $-1 -14.712872408080443 -33.305681659497395 11.263356681835305 #
plane-surface $-1 0 0 19.240622808523362 0 0 1 1 0 0 forward_v I I I I #
coedge $-1 $349 $348 $341 $406 forward $242 $-1 #
coedge $-1 $341 $244 $246 $345 reversed $159 $-1 #
coedge $-1 $244 $340 $339 $406 reversed $159 $-1 #
coedge $-1 $252 $247 $244 $343 forward $253 $-1 #
edge $-1 $346 -41.085440502488012 $407 -30.724446444593745 $342 $408 forward 7 unknown #
coedge $-1 $246 $245 $349 $409 reversed $100 $-1 #
edge $-1 $410 -1.3181006846785195e-014 $346 19.023598431730498 $340 $411 forward 7 unknown #
vertex $-1 $248 $412 #
straight-curve $-1 10.90576977589965 -28.125184630550262 19.240622808523362 -1 0 0 I I #
coedge $-1 $339 $249 $252 $353 reversed $242 $-1 #
coedge $-1 $249 $339 $344 $409 forward $242 $-1 #
vertex $-1 $250 $413 #
straight-curve $-1 33.70842955380995 -38.486178688444518 34.092341388149876 0 0 1 I I #
straight-curve $-1 33.70842955380995 -38.486178688444511 3.2860905551472399 0 -0.54463902268945019 -0.83867057594974714 I I #
edge $-1 $407 9.9146495497886473 $254 33.70842955380995 $348 $414 forward 7 unknown #
point $-1 33.70842955380995 -38.486178688444518 19.240622808523362 #
point $-1 33.70842955380995 -28.125184630550255 19.240622808523362 #
edge $-1 $415 1 $415 0 $257 $-1 forward 7 unknown #
vertex $-1 $258 $416 #
ellipse-curve $-1 16.712872408080429 -27.159304142221711 7.2718525798838112 0 -0.83867057594974714 0.54463902268945019 2 0 0 1 I I #
point $-1 18.712872408080429 -33.305681659497395 11.263356681835305 #
edge $-1 $417 1 $417 0 $261 $-1 forward 7 unknown #
vertex $-1 $262 $418 #
ellipse-curve $-1 26.910206695518141 -27.159304142221711 7.2718525798838112 0 -0.83867057594974714 0.54463902268945019 2 0 0 1 I I #
point $-1 28.910206695518141 -33.305681659497395 11.263356681835305 #
plane-surface $-1 59.579454939420756 0 0 -1 0 0 0 0 1 forward_v I I I I #
coedge $-1 $270 $268 $272 $369 reversed $181 $-1 #
edge $-1 $283 -19.240622808523362 $371 19.240622808523362 $282 $419 forward 7 unknown #
vertex $-1 $369 $420 #
straight-curve $-1 -59.579454939420756 -38.486178688444518 0 0 0 -1 I I #
edge $-1 $367 -38.486178688444518 $371 38.486178688444518 $365 $421 forward 7 unknown #
straight-curve $-1 0 -38.486178688444518 -19.240622808523362 -1 0 0 I I #
vertex $-1 $275 $422 #
straight-curve $-1 0 38.486178688444518 -19.240622808523362 1 0 0 I I #
point $-1 59.579454939420756 38.486178688444518 -19.240622808523362 #
point $-1 59.579454939420756 -38.486178688444518 -19.240622808523362 #
straight-curve $-1 -59.579454939420756 0 19.240622808523362 0 -1 0 I I #
point $-1 -59.579454939420756 38.486178688444518 19.240622808523362 #
point $-1 -59.579454939420756 -38.486178688444518 19.240622808523362 #
straight-curve $-1 59.579454939420756 -38.486178688444518 0 0 0 -1 I I #
straight-curve $-1 59.579454939420756 38.486178688444518 0 0 0 -1 I I #
edge $-1 $383 -33.662746604623955 $302 -18.170670064969649 $301 $423 forward 7 unknown #
coedge $-1 $382 $295 $387 $424 reversed $292 $-1 #
coedge $-1 $295 $381 $297 $385 forward $292 $-1 #
vertex $-1 $296 $425 #
straight-curve $-1 -59.579454939420756 -2.5667370580936808 37.119169146080075 0 -0.78801074757464917 0.61566148304635926 I I #
edge $-1 $389 -19.240622808523362 $298 -5.045115499373134 $297 $426 forward 7 unknown #
point $-1 -59.579454939420756 38.486178688444518 5.045115499373134 #
coedge $-1 $301 $300 $381 $424 forward $200 $-1 #
point $-1 -44.08737839976645 20.316758260299025 19.240622808523362 #
vertex $-1 $305 $427 #
straight-curve $-1 0 38.486178688444518 19.240622808523362 -1 0 0 I I #
vertex $-1 $308 $428 #
point $-1 -48.833416669593603 25.339759882310748 6.9441193341233518 #
edge $-1 $394 14.851718579626514 $397 30.806250833002647 $313 $429 forward 7 unknown #
vertex $-1 $327 $430 #
straight-curve $-1 -33.708429553809935 -69.210625133038263 19.240622808523362 0 -1 0 I I #
edge $-1 $397 -22.802659777910293 $324 0.99112022611100947 $323 $431 forward 7 unknown #
vertex $-1 $396 $432 #
straight-curve $-1 -33.708429553809935 -38.486178688444511 3.2860905551472399 0 0.54463902268945019 0.83867057594974714 I I #
point $-1 -33.708429553809935 -28.125184630550255 19.240622808523362 #
point $-1 -9.9146495497886331 -38.486178688444518 3.2860905551472288 #
straight-curve $-1 0 -38.486178688444518 19.240622808523362 1 0 0 I I #
vertex $-1 $330 $433 #
point $-1 -24.910206695518141 -27.159304142221711 7.2718525798838112 #
vertex $-1 $334 $434 #
point $-1 -14.712872408080443 -27.159304142221711 7.2718525798838112 #
edge $-1 $407 14.851718579626514 $410 30.806250833002647 $339 $435 forward 7 unknown #
vertex $-1 $353 $436 #
straight-curve $-1 9.9146495497886473 -69.210625133038263 19.240622808523362 0 -1 0 I I #
edge $-1 $410 -0.99112022611100237 $350 22.8026597779103 $349 $437 forward 7 unknown #
vertex $-1 $409 $438 #
straight-curve $-1 9.9146495497886473 -38.486178688444511 3.2860905551472399 0 0.54463902268945019 0.83867057594974714 I I #
point $-1 9.9146495497886473 -28.125184630550255 19.240622808523362 #
point $-1 33.70842955380995 -38.486178688444518 3.2860905551472288 #
straight-curve $-1 0 -38.486178688444518 19.240622808523362 1 0 0 I I #
vertex $-1 $356 $439 #
point $-1 18.712872408080429 -27.159304142221711 7.2718525798838112 #
vertex $-1 $360 $440 #
point $-1 28.910206695518141 -27.159304142221711 7.2718525798838112 #
straight-curve $-1 -59.579454939420756 38.486178688444518 0 0 0 -1 I I #
point $-1 -59.579454939420756 -38.486178688444518 -19.240622808523362 #
straight-curve $-1 -59.579454939420756 0 -19.240622808523362 0 1 0 I I #
point $-1 -59.579454939420756 38.486178688444518 -19.240622808523362 #
straight-curve $-1 -25.916708334796802 20.316758260299018 19.240622808523359 1 0 0 I I #
edge $-1 $389 -38.486178688444518 $383 -20.316758260299025 $381 $441 forward 7 unknown #
point $-1 -59.579454939420756 20.316758260299025 19.240622808523362 #
straight-curve $-1 -59.579454939420756 38.486178688444518 0 0 0 -1 I I #
point $-1 -59.579454939420756 38.486178688444518 19.240622808523362 #
point $-1 -51.833416669593603 23.492775433171669 4.5800870913994043 #
straight-curve $-1 -33.708429553809935 -38.486178688444518 34.092341388149876 0 0 -1 I I #
point $-1 -33.708429553809935 -38.486178688444518 19.240622808523362 #
straight-curve $-1 -10.905769775899643 -38.486178688444518 3.2860905551472248 1 0 0 I I #
point $-1 -33.708429553809935 -38.486178688444518 3.2860905551472288 #
point $-1 -26.910206695518141 -25.481962990322213 6.1825745345049103 #
point $-1 -16.712872408080443 -25.481962990322213 6.1825745345049103 #
straight-curve $-1 9.9146495497886473 -38.486178688444518 34.092341388149876 0 0 -1 I I #
point $-1 9.9146495497886473 -38.486178688444518 19.240622808523362 #
straight-curve $-1 10.90576977589965 -38.486178688444518 3.2860905551472248 1 0 0 I I #
point $-1 9.9146495497886473 -38.486178688444518 3.2860905551472288 #
point $-1 16.712872408080429 -25.481962990322213 6.1825745345049103 #
point $-1 26.910206695518141 -25.481962990322213 6.1825745345049103 #
straight-curve $-1 -59.579454939420756 0 19.240622808523362 0 -1 0 I I #
End-of-ACIS-data 