500 0 9 0           
7 Unknown 11 ACIS 5.0 NT 24 Fri Mar 26 17:22:23 1999 
-1 9.9999999999999995e-007 1e-010 
body $-1 $9 $-1 $10 #
body $-1 $11 $-1 $12 #
body $-1 $13 $-1 $14 #
body $-1 $15 $-1 $16 #
body $-1 $17 $-1 $18 #
body $-1 $19 $-1 $20 #
body $-1 $21 $-1 $22 #
body $-1 $23 $-1 $24 #
body $-1 $25 $-1 $26 #
lump $-1 $-1 $27 $0 #
transform $-1 1 0 0 0 1 0 0 0 1 72.37891781365397 39.961812672571739 8.608491803662675 1 rotate no_reflect no_shear #
lump $-1 $-1 $28 $1 #
transform $-1 1 0 0 0 1 0 0 0 1 72.37891781365397 39.961812672571739 8.608491803662675 1 rotate no_reflect no_shear #
lump $-1 $-1 $29 $2 #
transform $-1 1 0 0 0 1 0 0 0 1 72.37891781365397 39.961812672571739 8.608491803662675 1 rotate no_reflect no_shear #
lump $-1 $-1 $30 $3 #
transform $-1 1 0 0 0 1 0 0 0 1 72.37891781365397 39.961812672571739 8.608491803662675 1 rotate no_reflect no_shear #
lump $-1 $-1 $31 $4 #
transform $-1 1 0 0 0 1 0 0 0 1 72.37891781365397 39.961812672571739 8.608491803662675 1 rotate no_reflect no_shear #
lump $-1 $-1 $32 $5 #
transform $-1 1 0 0 0 1 0 0 0 1 72.37891781365397 39.961812672571739 8.608491803662675 1 rotate no_reflect no_shear #
lump $-1 $-1 $33 $6 #
transform $-1 1 0 0 0 1 0 0 0 1 72.37891781365397 39.961812672571739 8.608491803662675 1 rotate no_reflect no_shear #
lump $-1 $-1 $34 $7 #
transform $-1 1 0 0 0 1 0 0 0 1 72.37891781365397 39.961812672571739 8.608491803662675 1 rotate no_reflect no_shear #
lump $-1 $-1 $35 $8 #
transform $-1 1 0 0 0 1 0 0 0 1 72.37891781365397 39.961812672571739 8.608491803662675 1 rotate no_reflect no_shear #
shell $-1 $-1 $-1 $36 $-1 $9 #
shell $-1 $-1 $-1 $37 $-1 $11 #
shell $-1 $-1 $-1 $38 $-1 $13 #
shell $-1 $-1 $-1 $39 $-1 $15 #
shell $-1 $-1 $-1 $40 $-1 $17 #
shell $-1 $-1 $-1 $41 $-1 $19 #
shell $-1 $-1 $-1 $42 $-1 $21 #
shell $-1 $-1 $-1 $43 $-1 $23 #
shell $-1 $-1 $-1 $44 $-1 $25 #
face $-1 $45 $46 $27 $-1 $47 reversed single #
face $-1 $48 $49 $28 $-1 $50 forward single #
face $-1 $51 $52 $29 $-1 $53 forward single #
face $-1 $54 $55 $30 $-1 $56 reversed single #
face $-1 $57 $58 $31 $-1 $59 forward single #
face $-1 $60 $61 $32 $-1 $62 forward single #
face $-1 $63 $64 $33 $-1 $65 reversed single #
face $-1 $66 $67 $34 $-1 $68 forward single #
face $-1 $69 $70 $35 $-1 $71 forward single #
face $-1 $72 $73 $27 $-1 $74 reversed single #
loop $-1 $-1 $75 $36 #
plane-surface $-1 0 39.961812672571739 0 0 -1 0 0 0 -1 forward_v I I I I #
face $-1 $76 $77 $28 $-1 $78 reversed single #
loop $-1 $-1 $79 $37 #
plane-surface $-1 0 -39.961812672571739 0 0 1 0 0 0 1 forward_v I I I I #
face $-1 $80 $81 $29 $-1 $82 reversed single #
loop $-1 $-1 $83 $38 #
plane-surface $-1 0 39.961812672571739 0 0 -1 0 0 0 -1 forward_v I I I I #
face $-1 $84 $85 $30 $-1 $86 reversed single #
loop $-1 $-1 $87 $39 #
plane-surface $-1 -161.50074157854351 -12.375934529105397 118.39823960166892 0 1 0 -0.61566148304635926 0 0.78801074757464917 forward_v I I I I #
face $-1 $88 $89 $31 $-1 $90 forward single #
loop $-1 $91 $92 $40 #
cone-surface $-1 -68.55732993125963 -8.839953235075285 5.0832521057950704 0.61566148304635926 0 -0.78801074757464917 1.1820161213619738 0 0.92349222456953894 1 I I 0 1 1.5 forward I I I I #
face $-1 $93 $94 $32 $-1 $95 forward single #
loop $-1 $96 $97 $41 #
cone-surface $-1 -68.55732993125963 -3.5359812940301154 5.0832521057950704 0.61566148304635926 0 -0.78801074757464917 1.1820161213619738 0 0.92349222456953894 1 I I 0 1 1.5 forward I I I I #
face $-1 $98 $99 $33 $-1 $100 reversed single #
loop $-1 $-1 $101 $42 #
plane-surface $-1 -161.50074157854351 17.466771655470279 118.39823960166892 0 1 0 -0.61566148304635926 0 0.78801074757464917 forward_v I I I I #
face $-1 $102 $103 $34 $-1 $104 forward single #
loop $-1 $105 $106 $43 #
cone-surface $-1 -68.55732993125963 21.00275294950039 5.0832521057950704 0.61566148304635926 0 -0.78801074757464917 1.1820161213619738 0 0.92349222456953894 1 I I 0 1 1.5 forward I I I I #
face $-1 $107 $108 $35 $-1 $109 forward single #
loop $-1 $110 $111 $44 #
cone-surface $-1 -68.55732993125963 26.306724890545553 5.0832521057950704 0.61566148304635926 0 -0.78801074757464917 1.1820161213619738 0 0.92349222456953894 1 I I 0 1 1.5 forward I I I I #
face $-1 $112 $113 $27 $-1 $114 forward single #
loop $-1 $-1 $115 $45 #
plane-surface $-1 0 -39.961812672571739 0 0 1 0 0 0 1 forward_v I I I I #
coedge $-1 $116 $117 $118 $119 reversed $46 $-1 #
face $-1 $120 $121 $28 $-1 $122 reversed single #
loop $-1 $-1 $123 $48 #
plane-surface $-1 0 0 -8.608491803662675 0 0 1 1 0 0 forward_v I I I I #
coedge $-1 $124 $125 $126 $127 forward $49 $-1 #
face $-1 $128 $129 $29 $-1 $130 reversed single #
loop $-1 $-1 $131 $51 #
plane-surface $-1 0 0 -8.608491803662675 0 0 1 1 0 0 forward_v I I I I #
coedge $-1 $132 $133 $134 $135 forward $52 $-1 #
face $-1 $136 $137 $30 $-1 $138 reversed single #
loop $-1 $-1 $139 $54 #
plane-surface $-1 -72.378917813653999 -6.1879672645526966 4.327509331705798 -0.61566148304635926 0 0.78801074757464917 0.78801074757464917 0 0.61566148304635926 forward_v I I I I #
coedge $-1 $140 $141 $142 $143 reversed $55 $-1 #
face $-1 $-1 $144 $31 $-1 $145 forward single #
loop $-1 $146 $147 $57 #
cone-surface $-1 -67.013699727524596 -8.839953235075285 3.1074955832249245 0.61566148304635926 0 -0.78801074757464917 0.59100806068098688 0 0.46174611228476947 1 I I -0.70710678118654757 0.70710678118654757 0.75 forward I I I I #
loop $-1 $-1 $148 $40 #
coedge $-1 $92 $92 $149 $150 reversed $58 $-1 #
face $-1 $-1 $151 $32 $-1 $152 forward single #
loop $-1 $153 $154 $60 #
cone-surface $-1 -67.013699727524596 -3.5359812940301154 3.1074955832249245 0.61566148304635926 0 -0.78801074757464917 0.59100806068098688 0 0.46174611228476947 1 I I -0.70710678118654757 0.70710678118654757 0.75 forward I I I I #
loop $-1 $-1 $155 $41 #
coedge $-1 $97 $97 $156 $157 reversed $61 $-1 #
face $-1 $158 $159 $33 $-1 $160 reversed single #
loop $-1 $-1 $161 $63 #
plane-surface $-1 -72.378917813653999 23.654738920022979 4.327509331705798 -0.61566148304635926 0 0.78801074757464917 0.78801074757464917 0 0.61566148304635926 forward_v I I I I #
coedge $-1 $162 $163 $164 $165 reversed $64 $-1 #
face $-1 $-1 $166 $34 $-1 $167 forward single #
loop $-1 $168 $169 $66 #
cone-surface $-1 -67.013699727524596 21.00275294950039 3.1074955832249245 0.61566148304635926 0 -0.78801074757464917 0.59100806068098688 0 0.46174611228476947 1 I I -0.70710678118654757 0.70710678118654757 0.75 forward I I I I #
loop $-1 $-1 $170 $43 #
coedge $-1 $106 $106 $171 $172 reversed $67 $-1 #
face $-1 $-1 $173 $35 $-1 $174 forward single #
loop $-1 $175 $176 $69 #
cone-surface $-1 -67.013699727524596 26.306724890545553 3.1074955832249245 0.61566148304635926 0 -0.78801074757464917 0.59100806068098688 0 0.46174611228476947 1 I I -0.70710678118654757 0.70710678118654757 0.75 forward I I I I #
loop $-1 $-1 $177 $44 #
coedge $-1 $111 $111 $178 $179 reversed $70 $-1 #
face $-1 $180 $181 $27 $-1 $182 reversed single #
loop $-1 $-1 $183 $72 #
plane-surface $-1 0 0 8.608491803662675 0 0 1 1 0 0 forward_v I I I I #
coedge $-1 $184 $185 $186 $187 reversed $73 $-1 #
coedge $-1 $188 $75 $189 $190 reversed $46 $-1 #
coedge $-1 $75 $188 $191 $192 forward $46 $-1 #
coedge $-1 $193 $194 $75 $119 forward $181 $-1 #
edge $-1 $195 -72.37891781365397 $196 72.37891781365397 $75 $197 forward 7 unknown #
face $-1 $198 $199 $28 $-1 $200 reversed single #
loop $-1 $-1 $201 $76 #
plane-surface $-1 -58.586494402952439 -50.080919160567802 0 0 1 0 0 0 1 forward_v I I I I #
coedge $-1 $202 $203 $125 $204 forward $77 $-1 #
coedge $-1 $205 $79 $206 $207 reversed $49 $-1 #
coedge $-1 $79 $205 $123 $204 reversed $49 $-1 #
coedge $-1 $208 $209 $79 $127 reversed $199 $-1 #
edge $-1 $210 -8.608491803662675 $211 8.608491803662675 $126 $212 forward 7 unknown #
face $-1 $213 $214 $29 $-1 $215 reversed single #
loop $-1 $-1 $216 $80 #
plane-surface $-1 -60.963123310190625 45.021365916569778 0 1 0 0 0 0 -1 forward_v I I I I #
coedge $-1 $217 $218 $133 $219 forward $81 $-1 #
coedge $-1 $220 $83 $221 $222 reversed $52 $-1 #
coedge $-1 $83 $220 $131 $219 reversed $52 $-1 #
coedge $-1 $223 $224 $83 $135 reversed $225 $-1 #
edge $-1 $226 -8.608491803662675 $227 8.608491803662675 $134 $228 forward 7 unknown #
face $-1 $229 $230 $30 $-1 $231 reversed single #
loop $-1 $-1 $232 $84 #
plane-surface $-1 -161.50074157854351 3.5527136788005009e-015 118.39823960166892 0 -1 0 0.61566148304635926 0 -0.78801074757464917 forward_v I I I I #
coedge $-1 $233 $234 $235 $236 reversed $85 $-1 #
coedge $-1 $141 $87 $237 $238 reversed $55 $-1 #
coedge $-1 $87 $140 $233 $239 reversed $55 $-1 #
coedge $-1 $235 $240 $87 $143 forward $241 $-1 #
edge $-1 $242 8.3714529756177853 $243 13.850860557505882 $142 $244 forward 7 unknown #
loop $-1 $-1 $149 $88 #
plane-surface $-1 -72.378917813653999 -6.1879672645526966 4.327509331705798 -0.61566148304635926 0 0.78801074757464917 0.78801074757464917 0 0.61566148304635926 forward_v I I I I #
loop $-1 $-1 $245 $57 #
coedge $-1 $147 $147 $148 $246 reversed $89 $-1 #
coedge $-1 $148 $148 $147 $246 forward $91 $-1 #
coedge $-1 $149 $149 $92 $150 forward $144 $-1 #
edge $-1 $247 0 $247 6.2831853071796004 $149 $248 forward 7 unknown #
loop $-1 $-1 $156 $93 #
plane-surface $-1 -72.378917813653999 -6.1879672645526966 4.327509331705798 -0.61566148304635926 0 0.78801074757464917 0.78801074757464917 0 0.61566148304635926 forward_v I I I I #
loop $-1 $-1 $249 $60 #
coedge $-1 $154 $154 $155 $250 reversed $94 $-1 #
coedge $-1 $155 $155 $154 $250 forward $96 $-1 #
coedge $-1 $156 $156 $97 $157 forward $151 $-1 #
edge $-1 $251 0 $251 6.2831853071796004 $156 $252 forward 7 unknown #
face $-1 $253 $254 $33 $-1 $255 forward single #
loop $-1 $-1 $256 $98 #
plane-surface $-1 -161.50074157854351 29.842706184575679 118.39823960166892 0 -1 0 0.61566148304635926 0 -0.78801074757464917 forward_v I I I I #
coedge $-1 $257 $258 $259 $260 reversed $99 $-1 #
coedge $-1 $163 $101 $261 $262 reversed $64 $-1 #
coedge $-1 $101 $162 $257 $263 reversed $64 $-1 #
coedge $-1 $259 $264 $101 $165 forward $254 $-1 #
edge $-1 $265 8.3714529756177853 $266 13.850860557505882 $164 $267 forward 7 unknown #
loop $-1 $-1 $171 $102 #
plane-surface $-1 -72.378917813653999 23.654738920022979 4.327509331705798 -0.61566148304635926 0 0.78801074757464917 0.78801074757464917 0 0.61566148304635926 forward_v I I I I #
loop $-1 $-1 $268 $66 #
coedge $-1 $169 $169 $170 $269 reversed $103 $-1 #
coedge $-1 $170 $170 $169 $269 forward $105 $-1 #
coedge $-1 $171 $171 $106 $172 forward $166 $-1 #
edge $-1 $270 0 $270 6.2831853071796004 $171 $271 forward 7 unknown #
loop $-1 $-1 $178 $107 #
plane-surface $-1 -72.378917813653999 23.654738920022979 4.327509331705798 -0.61566148304635926 0 0.78801074757464917 0.78801074757464917 0 0.61566148304635926 forward_v I I I I #
loop $-1 $-1 $272 $69 #
coedge $-1 $176 $176 $177 $273 reversed $108 $-1 #
coedge $-1 $177 $177 $176 $273 forward $110 $-1 #
coedge $-1 $178 $178 $111 $179 forward $173 $-1 #
edge $-1 $274 0 $274 6.2831853071796004 $178 $275 forward 7 unknown #
face $-1 $276 $277 $27 $-1 $278 reversed single #
loop $-1 $-1 $193 $112 #
plane-surface $-1 0 0 -8.608491803662675 0 0 1 1 0 0 forward_v I I I I #
coedge $-1 $279 $280 $281 $282 forward $113 $-1 #
coedge $-1 $283 $115 $284 $285 reversed $73 $-1 #
coedge $-1 $115 $283 $286 $287 forward $73 $-1 #
coedge $-1 $194 $193 $115 $187 forward $181 $-1 #
edge $-1 $288 -72.37891781365397 $289 72.37891781365397 $115 $290 forward 7 unknown #
coedge $-1 $117 $116 $279 $291 reversed $46 $-1 #
coedge $-1 $292 $293 $116 $190 forward $277 $-1 #
edge $-1 $294 -8.608491803662675 $195 8.608491803662675 $116 $295 forward 7 unknown #
coedge $-1 $281 $296 $117 $192 reversed $297 $-1 #
edge $-1 $298 -8.608491803662675 $196 8.608491803662675 $191 $299 forward 7 unknown #
coedge $-1 $186 $118 $296 $300 forward $181 $-1 #
coedge $-1 $118 $186 $292 $301 forward $181 $-1 #
vertex $-1 $119 $302 #
vertex $-1 $300 $303 #
straight-curve $-1 0 39.961812672571739 -8.608491803662675 1 0 0 I I #
face $-1 $304 $305 $28 $-1 $306 reversed single #
loop $-1 $-1 $126 $120 #
plane-surface $-1 -60.963123310190625 -45.021365916569771 0 1 0 0 0 0 -1 forward_v I I I I #
coedge $-1 $307 $308 $309 $310 forward $121 $-1 #
coedge $-1 $311 $123 $312 $313 forward $77 $-1 #
coedge $-1 $123 $311 $208 $314 forward $77 $-1 #
edge $-1 $210 -60.963123310190625 $315 -56.209865495714254 $123 $316 forward 7 unknown #
coedge $-1 $125 $124 $317 $318 forward $49 $-1 #
coedge $-1 $319 $320 $124 $207 forward $321 $-1 #
edge $-1 $322 56.209865495714254 $211 60.963123310190625 $206 $323 forward 7 unknown #
coedge $-1 $309 $126 $203 $314 reversed $199 $-1 #
coedge $-1 $126 $309 $319 $324 reversed $199 $-1 #
vertex $-1 $204 $325 #
vertex $-1 $324 $326 #
straight-curve $-1 -60.963123310190625 -39.961812672571739 0 0 0 1 I I #
face $-1 $327 $225 $29 $-1 $328 reversed single #
loop $-1 $-1 $329 $128 #
plane-surface $-1 -58.586494402952439 50.080919160567809 0 0 -1 0 0 0 -1 forward_v I I I I #
coedge $-1 $330 $331 $332 $333 forward $129 $-1 #
coedge $-1 $334 $131 $330 $335 forward $81 $-1 #
coedge $-1 $131 $334 $223 $336 forward $81 $-1 #
edge $-1 $226 56.209865495714254 $337 60.963123310190625 $131 $338 forward 7 unknown #
coedge $-1 $133 $132 $339 $340 forward $52 $-1 #
coedge $-1 $341 $342 $132 $222 forward $343 $-1 #
edge $-1 $344 -60.963123310190625 $227 -56.209865495714254 $221 $345 forward 7 unknown #
coedge $-1 $346 $134 $218 $336 reversed $225 $-1 #
coedge $-1 $134 $346 $341 $347 reversed $225 $-1 #
loop $-1 $-1 $134 $213 #
vertex $-1 $219 $348 #
vertex $-1 $347 $349 #
straight-curve $-1 -56.209865495714254 39.961812672571739 0 0 0 1 I I #
face $-1 $-1 $241 $30 $-1 $350 forward single #
loop $-1 $-1 $351 $136 #
plane-surface $-1 -72.37891781365397 0 0 1 0 0 0 0 -1 forward_v I I I I #
coedge $-1 $352 $353 $354 $355 reversed $137 $-1 #
coedge $-1 $356 $139 $141 $239 forward $85 $-1 #
coedge $-1 $139 $356 $352 $357 forward $85 $-1 #
coedge $-1 $354 $142 $139 $236 forward $241 $-1 #
edge $-1 $243 -9.2819508968290485 $358 3.0939836322763519 $235 $359 forward 7 unknown #
coedge $-1 $360 $361 $140 $238 forward $230 $-1 #
edge $-1 $362 -54.87161046912864 $242 -50.590627997171786 $237 $363 forward 7 unknown #
edge $-1 $243 -6.9534680824503026 $362 -3.606704357266089e-014 $141 $364 forward 7 unknown #
coedge $-1 $142 $354 $360 $365 forward $241 $-1 #
loop $-1 $-1 $354 $229 #
vertex $-1 $238 $366 #
vertex $-1 $143 $367 #
straight-curve $-1 -80.750370789271756 -12.375934529105397 8.6084918036626732 1 0 0 I I #
coedge $-1 $245 $245 $-1 $368 reversed $146 $-1 #
edge $-1 $369 0 $369 6.2831853071796004 $147 $370 forward 7 unknown #
vertex $-1 $150 $371 #
ellipse-curve $-1 -69.639214022709922 -8.839953235075285 6.4680005676842525 -0.61566148304635926 0 0.78801074757464917 1.1820161213619738 0 0.92349222456953894 1 I I #
coedge $-1 $249 $249 $-1 $372 reversed $153 $-1 #
edge $-1 $373 0 $373 6.2831853071796004 $154 $374 forward 7 unknown #
vertex $-1 $157 $375 #
ellipse-curve $-1 -69.639214022709922 -3.5359812940301154 6.4680005676842525 -0.61566148304635926 0 0.78801074757464917 1.1820161213619738 0 0.92349222456953894 1 I I #
face $-1 $-1 $376 $33 $-1 $377 reversed single #
loop $-1 $-1 $164 $158 #
plane-surface $-1 0 0 8.608491803662675 0 0 1 1 0 0 forward_v I I I I #
coedge $-1 $378 $379 $380 $381 reversed $159 $-1 #
coedge $-1 $382 $161 $163 $263 forward $99 $-1 #
coedge $-1 $161 $382 $378 $383 forward $99 $-1 #
coedge $-1 $380 $164 $161 $260 forward $254 $-1 #
edge $-1 $266 5.6394021954587892 $384 18.01533672456419 $259 $385 forward 7 unknown #
coedge $-1 $386 $387 $162 $262 forward $376 $-1 #
edge $-1 $388 -54.87161046912864 $265 -50.590627997171786 $261 $389 forward 7 unknown #
edge $-1 $266 -6.9534680824503026 $388 -3.606704357266089e-014 $163 $390 forward 7 unknown #
coedge $-1 $164 $380 $386 $391 forward $254 $-1 #
vertex $-1 $262 $392 #
vertex $-1 $165 $393 #
straight-curve $-1 -80.750370789271756 17.466771655470279 8.6084918036626732 1 0 0 I I #
coedge $-1 $268 $268 $-1 $394 reversed $168 $-1 #
edge $-1 $395 0 $395 6.2831853071796004 $169 $396 forward 7 unknown #
vertex $-1 $172 $397 #
ellipse-curve $-1 -69.639214022709922 21.00275294950039 6.4680005676842525 -0.61566148304635926 0 0.78801074757464917 1.1820161213619738 0 0.92349222456953894 1 I I #
coedge $-1 $272 $272 $-1 $398 reversed $175 $-1 #
edge $-1 $399 0 $399 6.2831853071796004 $176 $400 forward 7 unknown #
vertex $-1 $179 $401 #
ellipse-curve $-1 -69.639214022709922 26.306724890545553 6.4680005676842525 -0.61566148304635926 0 0.78801074757464917 1.1820161213619738 0 0.92349222456953894 1 I I #
face $-1 $-1 $297 $27 $-1 $402 reversed single #
loop $-1 $-1 $189 $180 #
plane-surface $-1 -72.37891781365397 0 0 1 0 0 0 0 -1 forward_v I I I I #
coedge $-1 $403 $183 $188 $291 forward $113 $-1 #
coedge $-1 $183 $403 $283 $404 forward $113 $-1 #
coedge $-1 $284 $191 $183 $282 reversed $297 $-1 #
edge $-1 $405 -39.961812672571739 $298 39.961812672571739 $281 $406 forward 7 unknown #
coedge $-1 $185 $184 $280 $404 reversed $73 $-1 #
coedge $-1 $296 $281 $184 $285 forward $297 $-1 #
edge $-1 $405 -8.608491803662675 $288 8.608491803662675 $284 $407 forward 7 unknown #
coedge $-1 $293 $292 $185 $287 reversed $277 $-1 #
edge $-1 $408 -8.608491803662675 $289 8.608491803662675 $286 $409 forward 7 unknown #
vertex $-1 $285 $410 #
vertex $-1 $301 $411 #
straight-curve $-1 0 -39.961812672571739 -8.608491803662675 -1 0 0 I I #
edge $-1 $298 -72.37891781365397 $294 72.37891781365397 $188 $412 forward 7 unknown #
coedge $-1 $286 $189 $194 $301 reversed $277 $-1 #
coedge $-1 $189 $286 $403 $413 reversed $277 $-1 #
vertex $-1 $291 $414 #
straight-curve $-1 -72.37891781365397 39.961812672571739 0 0 0 -1 I I #
coedge $-1 $191 $284 $193 $300 reversed $297 $-1 #
loop $-1 $-1 $284 $276 #
vertex $-1 $282 $415 #
straight-curve $-1 72.37891781365397 39.961812672571739 0 0 0 -1 I I #
edge $-1 $196 -39.961812672571739 $288 39.961812672571739 $296 $416 forward 7 unknown #
edge $-1 $289 -39.961812672571739 $195 39.961812672571739 $292 $417 forward 7 unknown #
point $-1 -72.37891781365397 39.961812672571739 -8.608491803662675 #
point $-1 72.37891781365397 39.961812672571739 -8.608491803662675 #
face $-1 $-1 $321 $28 $-1 $418 forward single #
loop $-1 $-1 $419 $198 #
plane-surface $-1 -56.209865495714254 -45.021365916569771 0 -1 0 0 0 0 1 forward_v I I I I #
coedge $-1 $420 $201 $311 $421 reversed $121 $-1 #
coedge $-1 $201 $420 $422 $423 reversed $121 $-1 #
coedge $-1 $209 $208 $201 $310 reversed $199 $-1 #
edge $-1 $424 -8.608491803662675 $425 8.608491803662675 $309 $426 forward 7 unknown #
coedge $-1 $203 $202 $307 $421 forward $77 $-1 #
coedge $-1 $317 $419 $202 $313 reversed $305 $-1 #
edge $-1 $315 -5.0595532439980317 $427 5.0595532439980317 $312 $428 forward 7 unknown #
edge $-1 $425 -5.0595532439980317 $210 5.0595532439980317 $208 $429 forward 7 unknown #
vertex $-1 $313 $430 #
straight-curve $-1 0 -39.961812672571739 -8.608491803662675 1 0 0 I I #
coedge $-1 $431 $312 $205 $318 reversed $305 $-1 #
edge $-1 $322 -8.608491803662675 $315 8.608491803662675 $317 $432 forward 7 unknown #
coedge $-1 $422 $206 $209 $324 forward $321 $-1 #
coedge $-1 $206 $422 $431 $433 forward $321 $-1 #
loop $-1 $-1 $206 $304 #
vertex $-1 $207 $434 #
straight-curve $-1 0 -39.961812672571739 8.608491803662675 -1 0 0 I I #
edge $-1 $211 -5.0595532439980317 $424 5.0595532439980317 $209 $435 forward 7 unknown #
point $-1 -60.963123310190625 -39.961812672571739 -8.608491803662675 #
point $-1 -60.963123310190625 -39.961812672571739 8.608491803662675 #
face $-1 $-1 $343 $29 $-1 $436 forward single #
plane-surface $-1 -56.209865495714254 45.021365916569778 0 -1 0 0 0 0 1 forward_v I I I I #
coedge $-1 $437 $438 $346 $439 forward $214 $-1 #
coedge $-1 $339 $216 $217 $335 reversed $129 $-1 #
coedge $-1 $216 $339 $342 $440 reversed $129 $-1 #
coedge $-1 $438 $437 $216 $333 reversed $214 $-1 #
edge $-1 $441 -8.608491803662675 $442 8.608491803662675 $332 $443 forward 7 unknown #
coedge $-1 $218 $217 $437 $444 forward $81 $-1 #
edge $-1 $337 -5.0595532439980317 $442 5.0595532439980317 $330 $445 forward 7 unknown #
edge $-1 $446 -5.0595532439980317 $226 5.0595532439980317 $223 $447 forward 7 unknown #
vertex $-1 $335 $448 #
straight-curve $-1 0 39.961812672571739 -8.608491803662675 -1 0 0 I I #
coedge $-1 $331 $330 $220 $340 reversed $129 $-1 #
edge $-1 $344 -8.608491803662675 $337 8.608491803662675 $339 $449 forward 7 unknown #
coedge $-1 $450 $221 $224 $347 forward $343 $-1 #
coedge $-1 $221 $450 $331 $440 forward $343 $-1 #
loop $-1 $-1 $221 $327 #
vertex $-1 $222 $451 #
straight-curve $-1 0 39.961812672571739 8.608491803662675 1 0 0 I I #
coedge $-1 $224 $223 $329 $439 reversed $225 $-1 #
edge $-1 $227 -5.0595532439980317 $452 5.0595532439980317 $224 $453 forward 7 unknown #
point $-1 -56.209865495714254 39.961812672571746 -8.608491803662675 #
point $-1 -56.209865495714254 39.961812672571746 8.608491803662675 #
plane-surface $-1 0 0 8.608491803662675 0 0 1 1 0 0 forward_v I I I I #
coedge $-1 $361 $360 $353 $454 forward $230 $-1 #
coedge $-1 $353 $232 $234 $357 reversed $137 $-1 #
coedge $-1 $232 $352 $351 $454 reversed $137 $-1 #
coedge $-1 $240 $235 $232 $355 forward $241 $-1 #
edge $-1 $358 -13.850860557505882 $455 -8.3714529756177853 $354 $456 forward 7 unknown #
coedge $-1 $234 $233 $361 $457 reversed $85 $-1 #
edge $-1 $458 3.606704357266089e-014 $358 6.9534680824503026 $352 $459 forward 7 unknown #
vertex $-1 $236 $460 #
straight-curve $-1 -66.899510231765873 -3.0939836322763483 8.608491803662675 0 1 0 I I #
coedge $-1 $351 $237 $240 $365 reversed $230 $-1 #
coedge $-1 $237 $351 $356 $457 forward $230 $-1 #
vertex $-1 $238 $461 #
straight-curve $-1 -72.37891781365397 -12.375934529105397 59.19911980083446 0 0 1 I I #
straight-curve $-1 -72.378917813653999 -12.375934529105397 4.327509331705798 -0.78801074757464917 0 -0.61566148304635926 I I #
edge $-1 $455 -3.5527136788005009e-015 $242 12.375934529105397 $360 $462 forward 7 unknown #
point $-1 -72.37891781365397 -12.375934529105397 8.608491803662675 #
point $-1 -66.899510231765873 -12.375934529105397 8.608491803662675 #
edge $-1 $463 1 $463 0 $245 $-1 forward 7 unknown #
vertex $-1 $246 $464 #
ellipse-curve $-1 -67.475445839809367 -8.839953235075285 3.6985036439059114 -0.61566148304635926 0 0.78801074757464917 1.1820161213619738 0 0.92349222456953894 1 I I #
point $-1 -68.457197901347925 -8.839953235075285 7.3914927922537688 #
edge $-1 $465 1 $465 0 $249 $-1 forward 7 unknown #
vertex $-1 $250 $466 #
ellipse-curve $-1 -67.475445839809367 -3.5359812940301154 3.6985036439059114 -0.61566148304635926 0 0.78801074757464917 1.1820161213619738 0 0.92349222456953894 1 I I #
point $-1 -68.457197901347925 -3.5359812940301154 7.3914927922537688 #
loop $-1 $-1 $261 $253 #
plane-surface $-1 -72.37891781365397 0 0 1 0 0 0 0 -1 forward_v I I I I #
coedge $-1 $379 $256 $258 $383 reversed $159 $-1 #
coedge $-1 $256 $378 $467 $468 reversed $159 $-1 #
coedge $-1 $264 $259 $256 $381 forward $254 $-1 #
edge $-1 $384 -13.850860557505882 $469 -8.3714529756177853 $380 $470 forward 7 unknown #
coedge $-1 $258 $257 $387 $471 reversed $99 $-1 #
edge $-1 $472 3.606704357266089e-014 $384 6.9534680824503026 $378 $473 forward 7 unknown #
vertex $-1 $260 $474 #
straight-curve $-1 -66.899510231765873 11.827369460011489 8.608491803662675 0 1 0 I I #
coedge $-1 $467 $261 $264 $391 reversed $376 $-1 #
coedge $-1 $261 $467 $382 $471 forward $376 $-1 #
vertex $-1 $262 $475 #
straight-curve $-1 -72.37891781365397 17.466771655470279 59.19911980083446 0 0 1 I I #
straight-curve $-1 -72.378917813653999 17.466771655470279 4.327509331705798 -0.78801074757464917 0 -0.61566148304635926 I I #
edge $-1 $469 -29.842706184575679 $265 -17.466771655470279 $386 $476 forward 7 unknown #
point $-1 -72.37891781365397 17.466771655470279 8.608491803662675 #
point $-1 -66.899510231765873 17.466771655470279 8.608491803662675 #
edge $-1 $477 1 $477 0 $268 $-1 forward 7 unknown #
vertex $-1 $269 $478 #
ellipse-curve $-1 -67.475445839809367 21.00275294950039 3.6985036439059114 -0.61566148304635926 0 0.78801074757464917 1.1820161213619738 0 0.92349222456953894 1 I I #
point $-1 -68.457197901347925 21.00275294950039 7.3914927922537688 #
edge $-1 $479 1 $479 0 $272 $-1 forward 7 unknown #
vertex $-1 $273 $480 #
ellipse-curve $-1 -67.475445839809367 26.306724890545553 3.6985036439059114 -0.61566148304635926 0 0.78801074757464917 1.1820161213619738 0 0.92349222456953894 1 I I #
point $-1 -68.457197901347925 26.306724890545553 7.3914927922537688 #
plane-surface $-1 72.37891781365397 0 0 -1 0 0 0 0 1 forward_v I I I I #
coedge $-1 $280 $279 $293 $413 forward $113 $-1 #
edge $-1 $408 -72.37891781365397 $405 72.37891781365397 $283 $481 forward 7 unknown #
vertex $-1 $282 $482 #
straight-curve $-1 72.37891781365397 0 8.608491803662675 0 1 0 I I #
straight-curve $-1 72.37891781365397 -39.961812672571739 0 0 0 -1 I I #
vertex $-1 $413 $483 #
straight-curve $-1 -72.37891781365397 -39.961812672571739 0 0 0 -1 I I #
point $-1 72.37891781365397 -39.961812672571739 -8.608491803662675 #
point $-1 -72.37891781365397 -39.961812672571739 -8.608491803662675 #
straight-curve $-1 0 39.961812672571739 8.608491803662675 -1 0 0 I I #
edge $-1 $294 -39.961812672571739 $408 39.961812672571739 $293 $484 forward 7 unknown #
point $-1 -72.37891781365397 39.961812672571739 8.608491803662675 #
point $-1 72.37891781365397 39.961812672571739 8.608491803662675 #
straight-curve $-1 72.37891781365397 0 -8.608491803662675 0 -1 0 I I #
straight-curve $-1 -72.37891781365397 0 -8.608491803662675 0 1 0 I I #
plane-surface $-1 0 0 8.608491803662675 0 0 1 1 0 0 forward_v I I I I #
coedge $-1 $312 $431 $420 $485 forward $305 $-1 #
coedge $-1 $308 $307 $419 $485 reversed $121 $-1 #
edge $-1 $427 -2.3766289072381852 $425 2.3766289072381852 $307 $486 forward 7 unknown #
coedge $-1 $320 $319 $308 $423 forward $321 $-1 #
edge $-1 $424 -2.3766289072381852 $487 2.3766289072381852 $308 $488 forward 7 unknown #
vertex $-1 $324 $489 #
vertex $-1 $314 $490 #
straight-curve $-1 -60.963123310190625 -50.080919160567802 0 0 0 -1 I I #
vertex $-1 $485 $491 #
straight-curve $-1 -56.209865495714254 -45.021365916569771 -8.608491803662675 0 -1 0 I I #
straight-curve $-1 -60.963123310190625 -45.021365916569771 -8.608491803662675 0 1 0 I I #
point $-1 -56.209865495714254 -39.961812672571739 -8.608491803662675 #
coedge $-1 $419 $317 $320 $433 reversed $305 $-1 #
straight-curve $-1 -56.209865495714254 -39.961812672571739 0 0 0 -1 I I #
edge $-1 $487 -5.0595532439980317 $322 5.0595532439980317 $431 $492 forward 7 unknown #
point $-1 -56.209865495714254 -39.961812672571739 8.608491803662675 #
straight-curve $-1 -60.963123310190625 -45.021365916569771 8.608491803662675 0 -1 0 I I #
plane-surface $-1 0 0 8.608491803662675 0 0 1 1 0 0 forward_v I I I I #
coedge $-1 $332 $329 $334 $444 reversed $214 $-1 #
coedge $-1 $329 $332 $450 $493 reversed $214 $-1 #
edge $-1 $452 -8.608491803662675 $446 8.608491803662675 $346 $494 forward 7 unknown #
edge $-1 $441 -5.0595532439980317 $344 5.0595532439980317 $331 $495 forward 7 unknown #
vertex $-1 $493 $496 #
vertex $-1 $444 $497 #
straight-curve $-1 -60.963123310190625 50.080919160567809 0 0 0 -1 I I #
edge $-1 $442 -2.3766289072381852 $446 2.3766289072381852 $437 $498 forward 7 unknown #
straight-curve $-1 -60.963123310190625 45.021365916569778 -8.608491803662675 0 1 0 I I #
vertex $-1 $336 $499 #
straight-curve $-1 -56.209865495714254 45.021365916569778 -8.608491803662675 0 -1 0 I I #
point $-1 -60.963123310190625 39.961812672571746 -8.608491803662675 #
straight-curve $-1 -60.963123310190625 39.961812672571739 0 0 0 -1 I I #
coedge $-1 $342 $341 $438 $493 forward $343 $-1 #
point $-1 -60.963123310190625 39.961812672571746 8.608491803662675 #
vertex $-1 $347 $500 #
straight-curve $-1 -56.209865495714254 45.021365916569778 8.608491803662675 0 1 0 I I #
edge $-1 $455 50.590627997171786 $458 54.87161046912864 $351 $501 forward 7 unknown #
vertex $-1 $365 $502 #
straight-curve $-1 -80.750370789271756 3.5527136788005009e-015 8.6084918036626732 -1 0 0 I I #
edge $-1 $458 -3.0939836322763519 $362 9.2819508968290485 $361 $503 forward 7 unknown #
vertex $-1 $457 $504 #
straight-curve $-1 -72.378917813653999 3.5527136788005009e-015 4.327509331705798 0.78801074757464917 0 0.61566148304635926 I I #
point $-1 -66.899510231765873 3.5527136788005009e-015 8.608491803662675 #
point $-1 -72.37891781365397 -12.375934529105397 4.3275093317058202 #
straight-curve $-1 -72.37891781365397 0 8.608491803662675 0 -1 0 I I #
vertex $-1 $368 $505 #
point $-1 -66.293429718447385 -8.839953235075285 4.6219958684754499 #
vertex $-1 $372 $506 #
point $-1 -66.293429718447385 -3.5359812940301154 4.6219958684754499 #
coedge $-1 $387 $386 $379 $468 forward $376 $-1 #
edge $-1 $469 50.590627997171786 $472 54.87161046912864 $467 $507 forward 7 unknown #
vertex $-1 $391 $508 #
straight-curve $-1 -80.750370789271756 29.842706184575679 8.6084918036626732 -1 0 0 I I #
edge $-1 $472 -18.01533672456419 $388 -5.6394021954587892 $387 $509 forward 7 unknown #
vertex $-1 $471 $510 #
straight-curve $-1 -72.378917813653999 29.842706184575679 4.327509331705798 0.78801074757464917 0 0.61566148304635926 I I #
point $-1 -66.899510231765873 29.842706184575679 8.608491803662675 #
point $-1 -72.37891781365397 17.466771655470279 4.3275093317058202 #
straight-curve $-1 -72.37891781365397 0 8.608491803662675 0 -1 0 I I #
vertex $-1 $394 $511 #
point $-1 -66.293429718447385 21.00275294950039 4.6219958684754499 #
vertex $-1 $398 $512 #
point $-1 -66.293429718447385 26.306724890545553 4.6219958684754499 #
straight-curve $-1 0 -39.961812672571739 8.608491803662675 1 0 0 I I #
point $-1 72.37891781365397 -39.961812672571739 8.608491803662675 #
point $-1 -72.37891781365397 -39.961812672571739 8.608491803662675 #
straight-curve $-1 -72.37891781365397 0 8.608491803662675 0 -1 0 I I #
edge $-1 $487 -8.608491803662675 $427 8.608491803662675 $419 $513 forward 7 unknown #
straight-curve $-1 -58.586494402952439 -50.080919160567802 -8.608491803662675 -1 0 0 I I #
vertex $-1 $433 $514 #
straight-curve $-1 -58.586494402952439 -50.080919160567802 8.608491803662675 1 0 0 I I #
point $-1 -60.963123310190625 -50.080919160567802 8.608491803662675 #
point $-1 -60.963123310190625 -50.080919160567802 -8.608491803662675 #
point $-1 -56.209865495714254 -50.080919160567802 -8.608491803662675 #
straight-curve $-1 -56.209865495714254 -45.021365916569771 8.608491803662675 0 1 0 I I #
edge $-1 $452 -2.3766289072381852 $441 2.3766289072381852 $438 $515 forward 7 unknown #
straight-curve $-1 -56.209865495714254 50.080919160567809 0 0 0 -1 I I #
straight-curve $-1 -60.963123310190625 45.021365916569778 8.608491803662675 0 -1 0 I I #
point $-1 -60.963123310190625 50.080919160567809 8.608491803662675 #
point $-1 -60.963123310190625 50.080919160567809 -8.608491803662675 #
straight-curve $-1 -58.586494402952439 50.080919160567809 -8.608491803662675 1 0 0 I I #
point $-1 -56.209865495714254 50.080919160567809 -8.608491803662675 #
point $-1 -56.209865495714254 50.080919160567809 8.608491803662675 #
straight-curve $-1 -72.37891781365397 3.5527136788005009e-015 59.19911980083446 0 0 -1 I I #
point $-1 -72.37891781365397 3.5527136788005009e-015 8.608491803662675 #
straight-curve $-1 -72.37891781365397 -3.0939836322763483 4.327509331705822 0 -1 0 I I #
point $-1 -72.37891781365397 3.5527136788005009e-015 4.3275093317058202 #
point $-1 -66.551953615239825 -8.839953235075285 2.5164875225439376 #
point $-1 -66.551953615239825 -3.5359812940301154 2.5164875225439376 #
straight-curve $-1 -72.37891781365397 29.842706184575679 59.19911980083446 0 0 -1 I I #
point $-1 -72.37891781365397 29.842706184575679 8.608491803662675 #
straight-curve $-1 -72.37891781365397 11.827369460011489 4.327509331705822 0 -1 0 I I #
point $-1 -72.37891781365397 29.842706184575679 4.3275093317058202 #
point $-1 -66.551953615239825 21.00275294950039 2.5164875225439376 #
point $-1 -66.551953615239825 26.306724890545553 2.5164875225439376 #
straight-curve $-1 -56.209865495714254 -50.080919160567802 0 0 0 -1 I I #
point $-1 -56.209865495714254 -50.080919160567802 8.608491803662675 #
straight-curve $-1 -58.586494402952439 50.080919160567809 8.608491803662675 -1 0 0 I I #
End-of-ACIS-data 