500 0 4 0           
7 Unknown 11 ACIS 5.0 NT 24 Fri Mar 26 19:34:09 1999 
-1 9.9999999999999995e-007 1e-010 
body $-1 $4 $-1 $5 #
body $-1 $6 $-1 $7 #
body $-1 $8 $-1 $9 #
body $-1 $10 $-1 $11 #
lump $-1 $-1 $12 $0 #
transform $-1 1 0 0 0 1 0 0 0 1 63.552964873195592 38.595717313079263 9.6796132003363979 1 rotate no_reflect no_shear #
lump $-1 $-1 $13 $1 #
transform $-1 1 0 0 0 1 0 0 0 1 63.552964873195592 38.595717313079263 9.6796132003363979 1 rotate no_reflect no_shear #
lump $-1 $-1 $14 $2 #
transform $-1 1 0 0 0 1 0 0 0 1 63.552964873195592 38.595717313079263 9.6796132003363979 1 rotate no_reflect no_shear #
lump $-1 $-1 $15 $3 #
transform $-1 1 0 0 0 1 0 0 0 1 63.552964873195592 38.595717313079263 9.6796132003363979 1 rotate no_reflect no_shear #
shell $-1 $-1 $-1 $16 $-1 $4 #
shell $-1 $-1 $-1 $17 $-1 $6 #
shell $-1 $-1 $-1 $18 $-1 $8 #
shell $-1 $-1 $-1 $19 $-1 $10 #
face $-1 $20 $21 $12 $-1 $22 forward single #
face $-1 $23 $24 $13 $-1 $25 reversed single #
face $-1 $26 $27 $14 $-1 $28 forward single #
face $-1 $29 $30 $15 $-1 $31 reversed single #
face $-1 $32 $33 $12 $-1 $34 reversed single #
loop $-1 $-1 $35 $16 #
plane-surface $-1 0 0 9.6796132003363979 0 0 1 1 0 0 forward_v I I I I #
face $-1 $36 $37 $13 $-1 $38 forward single #
loop $-1 $-1 $39 $17 #
plane-surface $-1 0 -34.647110428583382 -1.5233021895779597 0 0 1 1 0 0 forward_v I I I I #
face $-1 $40 $41 $14 $-1 $42 forward single #
loop $-1 $-1 $43 $18 #
plane-surface $-1 47.886292308995579 -26.478780720296601 182.14091678152047 0 1 0 0.64278761758704617 0 0.76604443648966558 forward_v I I I I #
face $-1 $44 $45 $15 $-1 $46 reversed single #
loop $-1 $47 $48 $19 #
cone-surface $-1 58.897319251839093 -22.717157887883339 5.5201618641161012 -0.64278761758704617 0 -0.76604443648966558 0.76604443648966558 0 -0.64278761758704617 1 I I 0 1 1 forward I I I I #
face $-1 $49 $50 $12 $-1 $51 reversed single #
loop $-1 $-1 $52 $20 #
plane-surface $-1 0 0 -9.6796132003363979 0 0 1 1 0 0 forward_v I I I I #
coedge $-1 $53 $54 $55 $56 forward $21 $-1 #
face $-1 $57 $58 $13 $-1 $59 forward single #
loop $-1 $-1 $60 $23 #
plane-surface $-1 0 -34.647110428583382 -6.679165131890386 0 0 1 1 0 0 forward_v I I I I #
coedge $-1 $61 $62 $63 $64 reversed $24 $-1 #
face $-1 $65 $66 $14 $-1 $67 forward single #
loop $-1 $-1 $68 $26 #
plane-surface $-1 -33.815825453873671 -22.717157887883339 84.772126454451211 0.64278761758704617 0 0.76604443648966558 0.76604443648966558 0 -0.64278761758704617 forward_v I I I I #
coedge $-1 $69 $70 $71 $72 reversed $27 $-1 #
face $-1 $73 $74 $15 $-1 $75 forward single #
loop $-1 $76 $77 $29 #
cone-surface $-1 57.858789698664651 -22.717157887883339 4.2824905640281727 -0.64278761758704617 0 -0.76604443648966558 0.38302221824483279 0 -0.32139380879352308 1 I I -0.70710678118654746 0.70710678118654746 0.5 forward I I I I #
loop $-1 $-1 $78 $19 #
coedge $-1 $48 $48 $79 $80 reversed $30 $-1 #
face $-1 $81 $82 $12 $-1 $83 reversed single #
loop $-1 $-1 $84 $32 #
plane-surface $-1 0 -38.595717313079263 0 0 1 0 0 0 1 forward_v I I I I #
coedge $-1 $85 $86 $87 $88 forward $33 $-1 #
coedge $-1 $89 $35 $90 $91 forward $21 $-1 #
coedge $-1 $35 $89 $92 $93 forward $21 $-1 #
coedge $-1 $94 $95 $35 $56 reversed $96 $-1 #
edge $-1 $97 -38.595717313079263 $98 38.595717313079263 $55 $99 forward 7 unknown #
face $-1 $100 $101 $13 $-1 $102 reversed single #
loop $-1 $-1 $103 $36 #
plane-surface $-1 0 -30.698503544087501 -4.1012336607341728 0 -1 0 0 0 -1 forward_v I I I I #
coedge $-1 $104 $105 $106 $107 reversed $37 $-1 #
coedge $-1 $108 $39 $109 $110 reversed $24 $-1 #
coedge $-1 $39 $108 $111 $112 reversed $24 $-1 #
coedge $-1 $113 $114 $39 $64 forward $101 $-1 #
edge $-1 $115 -21.272162098787572 $116 -13.37494832979581 $63 $117 forward 7 unknown #
face $-1 $118 $119 $14 $-1 $120 reversed single #
loop $-1 $-1 $121 $40 #
plane-surface $-1 47.886292308995579 -18.955535055470076 182.14091678152047 0 -1 0 -0.64278761758704617 0 -0.76604443648966558 forward_v I I I I #
coedge $-1 $122 $123 $124 $125 reversed $41 $-1 #
coedge $-1 $70 $43 $123 $126 forward $27 $-1 #
coedge $-1 $43 $69 $127 $128 reversed $27 $-1 #
coedge $-1 $129 $124 $43 $72 forward $119 $-1 #
edge $-1 $130 -88.00044969917829 $131 -81.390845190423846 $71 $132 forward 7 unknown #
face $-1 $133 $134 $15 $-1 $135 forward single #
loop $-1 $-1 $136 $44 #
plane-surface $-1 47.886292308995579 -26.478780720296601 182.14091678152047 0 1 0 0.64278761758704617 0 0.76604443648966558 forward_v I I I I #
loop $-1 $-1 $137 $29 #
coedge $-1 $77 $77 $78 $138 forward $45 $-1 #
coedge $-1 $78 $78 $77 $138 reversed $47 $-1 #
coedge $-1 $79 $79 $48 $80 forward $134 $-1 #
edge $-1 $139 0 $139 6.2831853071796004 $79 $140 forward 7 unknown #
face $-1 $141 $142 $12 $-1 $143 reversed single #
loop $-1 $-1 $144 $49 #
plane-surface $-1 -63.552964873195592 0 0 1 0 0 0 0 -1 forward_v I I I I #
coedge $-1 $145 $92 $146 $147 forward $50 $-1 #
coedge $-1 $148 $52 $145 $149 forward $33 $-1 #
coedge $-1 $52 $148 $150 $151 forward $33 $-1 #
coedge $-1 $95 $94 $52 $88 reversed $96 $-1 #
edge $-1 $152 -38.595717313079263 $153 38.595717313079263 $87 $154 forward 7 unknown #
coedge $-1 $54 $53 $155 $156 forward $21 $-1 #
coedge $-1 $157 $158 $53 $91 reversed $142 $-1 #
edge $-1 $98 -63.552964873195592 $159 63.552964873195592 $90 $160 forward 7 unknown #
coedge $-1 $84 $161 $54 $93 reversed $50 $-1 #
edge $-1 $162 -63.552964873195592 $97 63.552964873195592 $92 $163 forward 7 unknown #
coedge $-1 $87 $55 $161 $164 forward $96 $-1 #
coedge $-1 $55 $87 $157 $165 reversed $96 $-1 #
loop $-1 $-1 $94 $141 #
vertex $-1 $56 $166 #
vertex $-1 $56 $167 #
straight-curve $-1 63.552964873195592 0 9.6796132003363979 0 1 0 I I #
face $-1 $168 $169 $13 $-1 $170 reversed single #
loop $-1 $-1 $63 $57 #
plane-surface $-1 63.552964873195592 0 0 -1 0 0 0 0 1 forward_v I I I I #
coedge $-1 $111 $171 $113 $172 reversed $58 $-1 #
coedge $-1 $173 $60 $171 $174 reversed $37 $-1 #
coedge $-1 $60 $173 $175 $176 reversed $37 $-1 #
coedge $-1 $177 $113 $60 $107 forward $101 $-1 #
edge $-1 $178 13.37494832979581 $179 21.272162098787572 $106 $180 forward 7 unknown #
coedge $-1 $62 $61 $181 $182 reversed $24 $-1 #
coedge $-1 $183 $184 $61 $110 forward $185 $-1 #
edge $-1 $186 -63.552964873195592 $115 63.552964873195592 $109 $187 forward 7 unknown #
coedge $-1 $188 $103 $62 $112 forward $58 $-1 #
edge $-1 $116 -63.552964873195592 $189 63.552964873195592 $111 $190 forward 7 unknown #
coedge $-1 $106 $63 $103 $172 forward $101 $-1 #
coedge $-1 $63 $191 $183 $192 forward $101 $-1 #
vertex $-1 $110 $193 #
vertex $-1 $64 $194 #
straight-curve $-1 63.552964873195592 -17.323555214291691 -1.5233021895779597 0 1 0 I I #
face $-1 $195 $196 $14 $-1 $197 reversed single #
loop $-1 $-1 $198 $65 #
plane-surface $-1 63.552964873195592 0 0 -1 0 0 0 0 1 forward_v I I I I #
coedge $-1 $199 $200 $198 $201 reversed $66 $-1 #
coedge $-1 $202 $68 $200 $203 reversed $41 $-1 #
coedge $-1 $68 $202 $69 $126 reversed $41 $-1 #
coedge $-1 $71 $198 $68 $125 forward $119 $-1 #
edge $-1 $204 7.5969561115284066 $130 15.120201776354932 $124 $205 forward 7 unknown #
edge $-1 $130 -127.10592974639118 $206 -116.82321065238284 $69 $207 forward 7 unknown #
coedge $-1 $208 $209 $70 $128 forward $210 $-1 #
edge $-1 $131 -39.609818718697802 $206 -31.732798964746657 $127 $211 forward 7 unknown #
coedge $-1 $212 $71 $209 $213 reversed $119 $-1 #
vertex $-1 $125 $214 #
vertex $-1 $128 $215 #
straight-curve $-1 63.552964873195592 -26.478780720296601 91.070458390760237 0 0 1 I I #
face $-1 $216 $217 $15 $-1 $218 forward single #
loop $-1 $219 $79 $73 #
plane-surface $-1 -33.815825453873671 -22.717157887883339 84.772126454451211 0.64278761758704617 0 0.76604443648966558 0.76604443648966558 0 -0.64278761758704617 forward_v I I I I #
coedge $-1 $220 $221 $222 $223 reversed $74 $-1 #
coedge $-1 $137 $137 $-1 $224 forward $76 $-1 #
edge $-1 $225 0 $225 6.2831853071796004 $77 $226 forward 7 unknown #
vertex $-1 $80 $227 #
ellipse-curve $-1 59.614454996220005 -22.717157887883339 6.3748109459591884 -0.64278761758704617 0 -0.76604443648966558 0.76604443648966558 0 -0.64278761758704617 1 I I #
face $-1 $-1 $96 $12 $-1 $228 reversed single #
loop $-1 $-1 $157 $81 #
plane-surface $-1 0 38.595717313079263 0 0 -1 0 0 0 -1 forward_v I I I I #
coedge $-1 $229 $155 $158 $230 forward $82 $-1 #
coedge $-1 $161 $84 $85 $149 reversed $50 $-1 #
coedge $-1 $155 $229 $84 $147 reversed $82 $-1 #
edge $-1 $162 -9.6796132003363979 $231 9.6796132003363979 $146 $232 forward 7 unknown #
coedge $-1 $86 $85 $229 $233 forward $33 $-1 #
edge $-1 $153 -63.552964873195592 $231 63.552964873195592 $145 $234 forward 7 unknown #
coedge $-1 $158 $157 $86 $151 reversed $142 $-1 #
edge $-1 $235 -63.552964873195592 $152 63.552964873195592 $150 $236 forward 7 unknown #
vertex $-1 $88 $237 #
vertex $-1 $164 $238 #
straight-curve $-1 63.552964873195592 0 -9.6796132003363979 0 -1 0 I I #
coedge $-1 $144 $146 $89 $156 reversed $82 $-1 #
edge $-1 $159 -38.595717313079263 $162 38.595717313079263 $155 $239 forward 7 unknown #
coedge $-1 $150 $90 $95 $165 forward $142 $-1 #
coedge $-1 $90 $150 $144 $230 reversed $142 $-1 #
vertex $-1 $91 $240 #
straight-curve $-1 0 38.595717313079263 9.6796132003363979 -1 0 0 I I #
coedge $-1 $92 $145 $94 $164 reversed $50 $-1 #
vertex $-1 $156 $241 #
straight-curve $-1 0 -38.595717313079263 9.6796132003363979 1 0 0 I I #
edge $-1 $97 -9.6796132003363979 $153 9.6796132003363979 $94 $242 forward 7 unknown #
edge $-1 $98 -9.6796132003363979 $152 9.6796132003363979 $95 $243 forward 7 unknown #
point $-1 63.552964873195592 -38.595717313079263 9.6796132003363979 #
point $-1 63.552964873195592 38.595717313079263 9.6796132003363979 #
face $-1 $244 $245 $13 $-1 $246 forward single #
loop $-1 $-1 $175 $100 #
plane-surface $-1 0 -38.595717313079263 0 0 1 0 0 0 1 forward_v I I I I #
coedge $-1 $103 $188 $104 $174 forward $58 $-1 #
edge $-1 $116 -0.52731464078912671 $178 4.6285483015232991 $113 $247 forward 7 unknown #
coedge $-1 $105 $104 $248 $249 reversed $37 $-1 #
edge $-1 $250 -63.552964873195592 $178 63.552964873195592 $171 $251 forward 7 unknown #
coedge $-1 $252 $253 $105 $176 forward $169 $-1 #
edge $-1 $179 -63.552964873195592 $254 63.552964873195592 $175 $255 forward 7 unknown #
coedge $-1 $256 $106 $253 $257 forward $101 $-1 #
vertex $-1 $107 $258 #
vertex $-1 $257 $259 #
straight-curve $-1 63.552964873195592 -17.323555214291691 -6.679165131890386 0 -1 0 I I #
coedge $-1 $260 $261 $108 $182 forward $262 $-1 #
edge $-1 $189 13.37494832979581 $186 21.272162098787572 $181 $263 forward 7 unknown #
coedge $-1 $264 $109 $114 $192 reversed $185 $-1 #
coedge $-1 $109 $264 $260 $265 forward $185 $-1 #
loop $-1 $-1 $109 $266 #
vertex $-1 $182 $267 #
straight-curve $-1 0 -38.595717313079263 -1.5233021895779597 1 0 0 I I #
coedge $-1 $171 $111 $261 $268 reversed $58 $-1 #
vertex $-1 $182 $269 #
straight-curve $-1 0 -30.698503544087501 -1.5233021895779597 -1 0 0 I I #
coedge $-1 $114 $270 $271 $272 reversed $101 $-1 #
edge $-1 $273 -9.6796132003363979 $115 1.5233021895779597 $114 $274 forward 7 unknown #
point $-1 63.552964873195592 -38.595717313079263 -1.5233021895779597 #
point $-1 63.552964873195592 -30.698503544087501 -1.5233021895779597 #
face $-1 $275 $276 $14 $-1 $277 forward single #
loop $-1 $-1 $278 $118 #
plane-surface $-1 0 -34.647110428583382 -1.5233021895779597 0 0 1 1 0 0 forward_v I I I I #
coedge $-1 $124 $279 $121 $201 forward $119 $-1 #
coedge $-1 $200 $121 $280 $281 reversed $66 $-1 #
coedge $-1 $121 $199 $122 $203 forward $66 $-1 #
edge $-1 $282 81.390845190423846 $204 88.00044969917829 $198 $283 forward 7 unknown #
coedge $-1 $123 $122 $208 $284 reversed $41 $-1 #
edge $-1 $285 116.82321065238284 $204 127.10592974639118 $200 $286 forward 7 unknown #
vertex $-1 $125 $287 #
straight-curve $-1 63.552964873195592 -11.358578943941669 3.070008691581954 0 -1 0 I I #
vertex $-1 $284 $288 #
straight-curve $-1 -33.815825453873671 -26.478780720296601 84.772126454451211 -0.76604443648966558 0 0.64278761758704617 I I #
coedge $-1 $280 $127 $202 $284 forward $210 $-1 #
coedge $-1 $127 $289 $129 $213 forward $210 $-1 #
loop $-1 $-1 $280 $290 #
straight-curve $-1 23.943146154497789 -26.478780720296601 9.6796132003363908 -1 0 0 I I #
coedge $-1 $291 $129 $292 $293 forward $119 $-1 #
edge $-1 $294 -38.595717313079263 $131 -26.478780720296601 $129 $295 forward 7 unknown #
point $-1 63.552964873195592 -26.478780720296601 3.0700086915819469 #
point $-1 63.552964873195592 -26.478780720296601 9.6796132003363979 #
face $-1 $296 $297 $15 $-1 $298 reversed single #
loop $-1 $-1 $299 $133 #
plane-surface $-1 47.886292308995579 -18.955535055470076 182.14091678152047 0 -1 0 -0.64278761758704617 0 -0.76604443648966558 forward_v I I I I #
loop $-1 $-1 $300 $73 #
coedge $-1 $221 $136 $301 $302 forward $74 $-1 #
coedge $-1 $136 $220 $303 $304 reversed $74 $-1 #
coedge $-1 $305 $306 $136 $223 forward $297 $-1 #
edge $-1 $307 -88.00044969917829 $308 -81.390845190423846 $222 $309 forward 7 unknown #
edge $-1 $310 1 $310 0 $137 $-1 forward 7 unknown #
vertex $-1 $138 $311 #
ellipse-curve $-1 58.180183507458175 -22.717157887883339 4.6655127822730051 0.64278761758704617 0 0.76604443648966558 0.76604443648966558 0 -0.64278761758704617 1 I I #
point $-1 60.380499432709684 -22.717157887883339 5.7320233283721507 #
plane-surface $-1 63.552964873195592 0 0 -1 0 0 0 0 1 forward_v I I I I #
coedge $-1 $146 $144 $148 $233 reversed $82 $-1 #
edge $-1 $159 -9.6796132003363979 $235 9.6796132003363979 $158 $312 forward 7 unknown #
vertex $-1 $233 $313 #
straight-curve $-1 -63.552964873195592 -38.595717313079263 0 0 0 -1 I I #
edge $-1 $231 -38.595717313079263 $235 38.595717313079263 $229 $314 forward 7 unknown #
straight-curve $-1 0 -38.595717313079263 -9.6796132003363979 -1 0 0 I I #
vertex $-1 $151 $315 #
straight-curve $-1 0 38.595717313079263 -9.6796132003363979 1 0 0 I I #
point $-1 63.552964873195592 38.595717313079263 -9.6796132003363979 #
point $-1 63.552964873195592 -38.595717313079263 -9.6796132003363979 #
straight-curve $-1 -63.552964873195592 0 9.6796132003363979 0 -1 0 I I #
point $-1 -63.552964873195592 38.595717313079263 9.6796132003363979 #
point $-1 -63.552964873195592 -38.595717313079263 9.6796132003363979 #
straight-curve $-1 63.552964873195592 -38.595717313079263 0 0 0 -1 I I #
straight-curve $-1 63.552964873195592 38.595717313079263 0 0 0 -1 I I #
face $-1 $266 $316 $13 $-1 $317 reversed single #
loop $-1 $-1 $271 $168 #
plane-surface $-1 0 0 9.6796132003363979 0 0 1 1 0 0 forward_v I I I I #
straight-curve $-1 63.552964873195592 -30.698503544087501 -2.0506168303670864 0 0 -1 I I #
coedge $-1 $261 $318 $173 $249 forward $262 $-1 #
edge $-1 $254 -21.272162098787572 $250 -13.37494832979581 $248 $319 forward 7 unknown #
vertex $-1 $249 $320 #
straight-curve $-1 0 -30.698503544087501 -6.679165131890386 1 0 0 I I #
coedge $-1 $321 $175 $318 $322 forward $169 $-1 #
coedge $-1 $175 $321 $177 $257 reversed $169 $-1 #
vertex $-1 $322 $323 #
straight-curve $-1 0 -38.595717313079263 -6.679165131890386 -1 0 0 I I #
coedge $-1 $270 $177 $324 $325 reversed $101 $-1 #
edge $-1 $179 6.679165131890386 $326 9.6796132003363979 $177 $274 forward 7 unknown #
point $-1 63.552964873195592 -30.698503544087501 -6.679165131890386 #
point $-1 63.552964873195592 -38.595717313079263 -6.679165131890386 #
coedge $-1 $327 $181 $184 $265 reversed $262 $-1 #
coedge $-1 $181 $248 $188 $268 forward $262 $-1 #
loop $-1 $-1 $181 $328 #
straight-curve $-1 -63.552964873195592 -17.323555214291691 -1.5233021895779597 0 -1 0 I I #
coedge $-1 $184 $183 $329 $330 reversed $185 $-1 #
edge $-1 $331 -9.6796132003363979 $186 1.5233021895779597 $260 $332 forward 7 unknown #
face $-1 $328 $185 $13 $-1 $170 reversed single #
point $-1 -63.552964873195592 -38.595717313079263 -1.5233021895779597 #
edge $-1 $250 -4.6285483015232991 $189 0.52731464078912671 $261 $333 forward 7 unknown #
point $-1 -63.552964873195592 -30.698503544087501 -1.5233021895779597 #
coedge $-1 $191 $256 $334 $335 reversed $101 $-1 #
coedge $-1 $336 $329 $191 $272 forward $245 $-1 #
edge $-1 $273 -38.595717313079263 $337 38.595717313079263 $191 $338 forward 7 unknown #
vertex $-1 $272 $339 #
straight-curve $-1 63.552964873195592 -38.595717313079263 0 0 0 -1 I I #
face $-1 $340 $341 $14 $-1 $342 forward single #
loop $-1 $-1 $343 $195 #
plane-surface $-1 0 -34.647110428583382 -6.679165131890386 0 0 1 1 0 0 forward_v I I I I #
coedge $-1 $344 $345 $291 $346 reversed $196 $-1 #
coedge $-1 $198 $347 $348 $349 reversed $119 $-1 #
coedge $-1 $348 $208 $199 $281 forward $210 $-1 #
edge $-1 $285 31.732798964746657 $282 39.609818718697802 $280 $350 forward 7 unknown #
vertex $-1 $349 $351 #
straight-curve $-1 63.552964873195592 -18.955535055470076 91.070458390760237 0 0 -1 I I #
edge $-1 $206 -15.120201776354932 $285 -7.5969561115284066 $208 $352 forward 7 unknown #
vertex $-1 $284 $353 #
straight-curve $-1 -33.815825453873671 -18.955535055470076 84.772126454451211 0.76604443648966558 0 -0.64278761758704617 I I #
point $-1 63.552964873195592 -18.955535055470076 3.0700086915819469 #
point $-1 55.675945119244446 -26.478780720296601 9.679613200336405 #
coedge $-1 $209 $354 $355 $356 forward $210 $-1 #
face $-1 $357 $210 $14 $-1 $358 forward single #
coedge $-1 $359 $212 $278 $346 forward $119 $-1 #
coedge $-1 $355 $360 $212 $293 reversed $361 $-1 #
edge $-1 $294 -9.6796132003363979 $362 1.5233021895779597 $212 $363 forward 7 unknown #
vertex $-1 $213 $364 #
straight-curve $-1 63.552964873195592 0 9.6796132003363979 0 1 0 I I #
face $-1 $365 $366 $15 $-1 $367 reversed single #
loop $-1 $-1 $368 $216 #
plane-surface $-1 63.552964873195592 0 0 -1 0 0 0 0 1 forward_v I I I I #
coedge $-1 $369 $370 $368 $371 reversed $217 $-1 #
coedge $-1 $372 $301 $306 $373 reversed $219 $-1 #
coedge $-1 $300 $374 $220 $302 reversed $219 $-1 #
edge $-1 $307 -127.10592974639118 $375 -116.82321065238284 $220 $376 forward 7 unknown #
coedge $-1 $377 $378 $221 $304 forward $379 $-1 #
edge $-1 $308 -39.609818718697802 $375 -31.732798964746657 $303 $380 forward 7 unknown #
coedge $-1 $381 $222 $378 $382 reversed $297 $-1 #
coedge $-1 $222 $368 $300 $373 forward $297 $-1 #
vertex $-1 $373 $383 #
vertex $-1 $304 $384 #
straight-curve $-1 63.552964873195592 -26.478780720296601 91.070458390760237 0 0 1 I I #
vertex $-1 $224 $385 #
point $-1 58.946227943947839 -22.717157887883339 4.0227251646859594 #
straight-curve $-1 -63.552964873195592 38.595717313079263 0 0 0 -1 I I #
point $-1 -63.552964873195592 -38.595717313079263 -9.6796132003363979 #
straight-curve $-1 -63.552964873195592 0 -9.6796132003363979 0 1 0 I I #
point $-1 -63.552964873195592 38.595717313079263 -9.6796132003363979 #
loop $-1 $-1 $324 $244 #
plane-surface $-1 0 0 -9.6796132003363979 0 0 1 1 0 0 forward_v I I I I #
coedge $-1 $248 $386 $252 $322 reversed $262 $-1 #
straight-curve $-1 -63.552964873195592 -17.323555214291691 -6.679165131890386 0 1 0 I I #
point $-1 -63.552964873195592 -30.698503544087501 -6.679165131890386 #
coedge $-1 $253 $252 $387 $388 reversed $169 $-1 #
edge $-1 $254 6.679165131890386 $389 9.6796132003363979 $318 $332 forward 7 unknown #
point $-1 -63.552964873195592 -38.595717313079263 -6.679165131890386 #
coedge $-1 $387 $390 $256 $325 forward $316 $-1 #
edge $-1 $391 -38.595717313079263 $326 38.595717313079263 $256 $392 forward 7 unknown #
vertex $-1 $257 $393 #
coedge $-1 $394 $260 $395 $396 reversed $262 $-1 #
face $-1 $397 $262 $13 $-1 $398 reversed single #
coedge $-1 $271 $395 $264 $330 forward $245 $-1 #
edge $-1 $331 -63.552964873195592 $273 63.552964873195592 $264 $399 forward 7 unknown #
vertex $-1 $396 $400 #
straight-curve $-1 -63.552964873195592 -38.595717313079263 0 0 0 -1 I I #
straight-curve $-1 -63.552964873195592 -30.698503544087501 -2.0506168303670864 0 0 1 I I #
coedge $-1 $401 $402 $270 $335 forward $403 $-1 #
edge $-1 $337 -9.6796132003363979 $391 9.6796132003363979 $270 $404 forward 7 unknown #
coedge $-1 $395 $271 $402 $405 forward $245 $-1 #
vertex $-1 $272 $406 #
straight-curve $-1 63.552964873195592 0 9.6796132003363979 0 1 0 I I #
point $-1 63.552964873195592 -38.595717313079263 9.6796132003363979 #
face $-1 $290 $407 $14 $-1 $408 reversed single #
loop $-1 $-1 $409 $275 #
plane-surface $-1 0 -30.698503544087501 -4.1012336607341728 0 -1 0 0 0 -1 forward_v I I I I #
coedge $-1 $410 $411 $412 $413 reversed $276 $-1 #
coedge $-1 $414 $278 $360 $415 reversed $196 $-1 #
coedge $-1 $278 $414 $416 $417 reversed $196 $-1 #
edge $-1 $362 -21.272162098787572 $418 -13.37494832979581 $291 $419 forward 7 unknown #
coedge $-1 $279 $420 $421 $422 reversed $119 $-1 #
coedge $-1 $423 $280 $279 $349 forward $210 $-1 #
edge $-1 $282 -18.955535055470076 $424 38.595717313079263 $279 $295 forward 7 unknown #
straight-curve $-1 23.943146154497789 -18.955535055470076 9.6796132003363908 1 0 0 I I #
point $-1 63.552964873195592 -18.955535055470076 9.6796132003363979 #
straight-curve $-1 55.675945119244446 -11.358578943941669 9.679613200336405 0 1 0 I I #
point $-1 55.675945119244446 -18.955535055470076 9.679613200336405 #
coedge $-1 $289 $423 $425 $426 forward $210 $-1 #
coedge $-1 $427 $292 $289 $356 reversed $361 $-1 #
edge $-1 $428 -63.552964873195592 $294 63.552964873195592 $355 $429 forward 7 unknown #
face $-1 $430 $431 $14 $-1 $432 reversed single #
plane-surface $-1 0 0 9.6796132003363979 0 0 1 1 0 0 forward_v I I I I #
coedge $-1 $412 $291 $409 $433 forward $119 $-1 #
coedge $-1 $292 $427 $344 $415 forward $361 $-1 #
loop $-1 $-1 $360 $430 #
vertex $-1 $415 $434 #
straight-curve $-1 63.552964873195592 -38.595717313079263 0 0 0 -1 I I #
point $-1 63.552964873195592 -38.595717313079263 9.6796132003363979 #
face $-1 $435 $436 $15 $-1 $437 forward single #
loop $-1 $-1 $438 $296 #
plane-surface $-1 0 -34.647110428583382 -1.5233021895779597 0 0 1 1 0 0 forward_v I I I I #
coedge $-1 $306 $439 $299 $371 forward $297 $-1 #
coedge $-1 $370 $299 $440 $441 reversed $217 $-1 #
coedge $-1 $299 $369 $372 $442 forward $217 $-1 #
edge $-1 $443 81.390845190423846 $444 88.00044969917829 $368 $445 forward 7 unknown #
coedge $-1 $374 $300 $370 $442 reversed $219 $-1 #
edge $-1 $444 7.5969561115284066 $307 15.120201776354932 $306 $446 forward 7 unknown #
coedge $-1 $301 $372 $377 $447 reversed $219 $-1 #
vertex $-1 $447 $448 #
straight-curve $-1 -33.815825453873671 -26.478780720296601 84.772126454451211 -0.76604443648966558 0 0.64278761758704617 I I #
coedge $-1 $440 $303 $374 $447 forward $379 $-1 #
coedge $-1 $303 $449 $305 $382 forward $379 $-1 #
loop $-1 $-1 $440 $450 #
straight-curve $-1 23.943146154497789 -26.478780720296601 9.6796132003363908 -1 0 0 I I #
coedge $-1 $451 $305 $452 $453 forward $297 $-1 #
edge $-1 $454 -38.595717313079263 $308 -26.478780720296601 $305 $455 forward 7 unknown #
point $-1 63.552964873195592 -26.478780720296601 3.0700086915819469 #
point $-1 63.552964873195592 -26.478780720296601 9.6796132003363979 #
point $-1 57.537395889871128 -22.717157887883339 3.8994683457833399 #
coedge $-1 $318 $394 $456 $457 reversed $262 $-1 #
coedge $-1 $456 $324 $321 $388 forward $316 $-1 #
edge $-1 $326 -63.552964873195592 $389 63.552964873195592 $321 $458 forward 7 unknown #
vertex $-1 $457 $459 #
coedge $-1 $324 $456 $401 $460 forward $316 $-1 #
vertex $-1 $325 $461 #
straight-curve $-1 63.552964873195592 0 -9.6796132003363979 0 -1 0 I I #
point $-1 63.552964873195592 -38.595717313079263 -9.6796132003363979 #
coedge $-1 $386 $327 $462 $463 forward $262 $-1 #
coedge $-1 $329 $336 $327 $396 forward $245 $-1 #
edge $-1 $464 -38.595717313079263 $331 38.595717313079263 $327 $465 forward 7 unknown #
face $-1 $-1 $403 $13 $-1 $466 reversed single #
plane-surface $-1 -63.552964873195592 0 0 1 0 0 0 0 -1 forward_v I I I I #
straight-curve $-1 0 -38.595717313079263 9.6796132003363979 1 0 0 I I #
point $-1 -63.552964873195592 -38.595717313079263 9.6796132003363979 #
coedge $-1 $462 $334 $390 $460 reversed $403 $-1 #
coedge $-1 $334 $462 $336 $405 reversed $403 $-1 #
loop $-1 $-1 $334 $397 #
straight-curve $-1 63.552964873195592 38.595717313079263 0 0 0 -1 I I #
edge $-1 $337 -63.552964873195592 $464 63.552964873195592 $402 $467 forward 7 unknown #
point $-1 63.552964873195592 38.595717313079263 9.6796132003363979 #
loop $-1 $-1 $468 $340 #
plane-surface $-1 0 -38.595717313079263 0 0 1 0 0 0 1 forward_v I I I I #
coedge $-1 $416 $469 $359 $433 reversed $341 $-1 #
coedge $-1 $470 $343 $469 $471 reversed $276 $-1 #
coedge $-1 $343 $470 $468 $472 reversed $276 $-1 #
coedge $-1 $473 $359 $343 $413 forward $119 $-1 #
edge $-1 $474 13.37494832979581 $475 21.272162098787572 $412 $476 forward 7 unknown #
coedge $-1 $345 $344 $477 $478 reversed $196 $-1 #
edge $-1 $479 -63.552964873195592 $362 63.552964873195592 $360 $480 forward 7 unknown #
coedge $-1 $481 $409 $345 $417 forward $341 $-1 #
edge $-1 $418 -63.552964873195592 $482 63.552964873195592 $416 $483 forward 7 unknown #
vertex $-1 $346 $484 #
straight-curve $-1 63.552964873195592 -17.323555214291691 -1.5233021895779597 0 1 0 I I #
coedge $-1 $347 $473 $485 $486 reversed $119 $-1 #
coedge $-1 $487 $488 $347 $422 forward $489 $-1 #
edge $-1 $424 -9.6796132003363979 $490 9.6796132003363979 $347 $491 forward 7 unknown #
coedge $-1 $354 $348 $488 $492 forward $210 $-1 #
vertex $-1 $349 $493 #
coedge $-1 $494 $495 $354 $426 reversed $496 $-1 #
edge $-1 $497 -38.595717313079263 $428 38.595717313079263 $425 $498 forward 7 unknown #
coedge $-1 $360 $355 $495 $499 forward $361 $-1 #
vertex $-1 $426 $500 #
straight-curve $-1 0 -38.595717313079263 9.6796132003363979 1 0 0 I I #
face $-1 $501 $361 $14 $-1 $408 reversed single #
loop $-1 $-1 $485 $357 #
plane-surface $-1 0 0 -9.6796132003363979 0 0 1 1 0 0 forward_v I I I I #
edge $-1 $418 -0.52731464078912671 $474 4.6285483015232991 $359 $502 forward 7 unknown #
point $-1 63.552964873195592 -38.595717313079263 -1.5233021895779597 #
face $-1 $503 $504 $15 $-1 $505 forward single #
loop $-1 $-1 $506 $365 #
plane-surface $-1 0 -34.647110428583382 -6.679165131890386 0 0 1 1 0 0 forward_v I I I I #
coedge $-1 $507 $508 $451 $509 reversed $366 $-1 #
coedge $-1 $368 $510 $511 $512 reversed $297 $-1 #
coedge $-1 $511 $377 $369 $441 forward $379 $-1 #
edge $-1 $513 31.732798964746657 $443 39.609818718697802 $440 $514 forward 7 unknown #
edge $-1 $513 116.82321065238284 $444 127.10592974639118 $370 $515 forward 7 unknown #
vertex $-1 $512 $516 #
vertex $-1 $373 $517 #
straight-curve $-1 63.552964873195592 -18.955535055470076 91.070458390760237 0 0 -1 I I #
straight-curve $-1 63.552964873195592 -11.358578943941669 3.070008691581954 0 -1 0 I I #
edge $-1 $375 -15.120201776354932 $513 -7.5969561115284066 $377 $518 forward 7 unknown #
point $-1 55.675945119244446 -26.478780720296601 9.679613200336405 #
coedge $-1 $378 $519 $520 $521 forward $379 $-1 #
face $-1 $522 $379 $15 $-1 $523 forward single #
coedge $-1 $524 $381 $438 $509 forward $297 $-1 #
coedge $-1 $520 $525 $381 $453 reversed $526 $-1 #
edge $-1 $454 -9.6796132003363979 $527 1.5233021895779597 $381 $528 forward 7 unknown #
vertex $-1 $382 $529 #
straight-curve $-1 63.552964873195592 0 9.6796132003363979 0 1 0 I I #
coedge $-1 $390 $387 $386 $457 forward $316 $-1 #
edge $-1 $389 -38.595717313079263 $530 38.595717313079263 $386 $531 forward 7 unknown #
straight-curve $-1 0 -38.595717313079263 -9.6796132003363979 -1 0 0 I I #
point $-1 -63.552964873195592 -38.595717313079263 -9.6796132003363979 #
edge $-1 $530 -63.552964873195592 $391 63.552964873195592 $401 $532 forward 7 unknown #
point $-1 63.552964873195592 38.595717313079263 -9.6796132003363979 #
coedge $-1 $402 $401 $394 $463 reversed $403 $-1 #
edge $-1 $464 -9.6796132003363979 $530 9.6796132003363979 $462 $533 forward 7 unknown #
vertex $-1 $405 $534 #
straight-curve $-1 -63.552964873195592 0 9.6796132003363979 0 -1 0 I I #
plane-surface $-1 0 38.595717313079263 0 0 -1 0 0 0 -1 forward_v I I I I #
straight-curve $-1 0 38.595717313079263 9.6796132003363979 -1 0 0 I I #
coedge $-1 $535 $536 $411 $472 forward $407 $-1 #
coedge $-1 $409 $481 $410 $471 forward $341 $-1 #
coedge $-1 $411 $410 $537 $538 reversed $276 $-1 #
edge $-1 $539 -63.552964873195592 $474 63.552964873195592 $469 $540 forward 7 unknown #
edge $-1 $475 -63.552964873195592 $541 63.552964873195592 $468 $542 forward 7 unknown #
coedge $-1 $420 $412 $536 $543 forward $119 $-1 #
vertex $-1 $413 $544 #
vertex $-1 $543 $545 #
straight-curve $-1 63.552964873195592 -17.323555214291691 -6.679165131890386 0 -1 0 I I #
coedge $-1 $495 $546 $414 $478 forward $496 $-1 #
edge $-1 $482 13.37494832979581 $479 21.272162098787572 $477 $547 forward 7 unknown #
vertex $-1 $478 $548 #
straight-curve $-1 0 -38.595717313079263 -1.5233021895779597 1 0 0 I I #
coedge $-1 $469 $416 $546 $549 reversed $341 $-1 #
vertex $-1 $478 $550 #
straight-curve $-1 0 -30.698503544087501 -1.5233021895779597 -1 0 0 I I #
point $-1 63.552964873195592 -30.698503544087501 -1.5233021895779597 #
coedge $-1 $551 $552 $420 $486 forward $431 $-1 #
edge $-1 $490 -38.595717313079263 $553 38.595717313079263 $420 $554 forward 7 unknown #
coedge $-1 $555 $421 $552 $556 reversed $489 $-1 #
coedge $-1 $421 $555 $423 $492 reversed $489 $-1 #
loop $-1 $-1 $421 $557 #
vertex $-1 $486 $558 #
straight-curve $-1 63.552964873195592 38.595717313079263 0 0 0 -1 I I #
edge $-1 $424 -63.552964873195592 $497 63.552964873195592 $488 $559 forward 7 unknown #
point $-1 63.552964873195592 38.595717313079263 9.6796132003363979 #
coedge $-1 $560 $425 $555 $561 forward $496 $-1 #
coedge $-1 $425 $477 $427 $499 reversed $496 $-1 #
loop $-1 $-1 $477 $501 #
vertex $-1 $492 $562 #
straight-curve $-1 -63.552964873195592 0 9.6796132003363979 0 -1 0 I I #
edge $-1 $428 -9.6796132003363979 $479 1.5233021895779597 $495 $563 forward 7 unknown #
point $-1 -63.552964873195592 -38.595717313079263 9.6796132003363979 #
face $-1 $557 $496 $14 $-1 $564 reversed single #
straight-curve $-1 63.552964873195592 -30.698503544087501 -2.0506168303670864 0 0 -1 I I #
face $-1 $450 $565 $15 $-1 $566 reversed single #
loop $-1 $-1 $567 $435 #
plane-surface $-1 0 -30.698503544087501 -4.1012336607341728 0 -1 0 0 0 -1 forward_v I I I I #
coedge $-1 $568 $569 $570 $571 reversed $436 $-1 #
coedge $-1 $572 $438 $525 $573 reversed $366 $-1 #
coedge $-1 $438 $572 $574 $575 reversed $366 $-1 #
edge $-1 $527 -21.272162098787572 $576 -13.37494832979581 $451 $577 forward 7 unknown #
coedge $-1 $439 $578 $579 $580 reversed $297 $-1 #
coedge $-1 $581 $440 $439 $512 forward $379 $-1 #
edge $-1 $443 -18.955535055470076 $582 38.595717313079263 $439 $455 forward 7 unknown #
vertex $-1 $447 $583 #
straight-curve $-1 23.943146154497789 -18.955535055470076 9.6796132003363908 1 0 0 I I #
straight-curve $-1 -33.815825453873671 -18.955535055470076 84.772126454451211 0.76604443648966558 0 -0.64278761758704617 I I #
point $-1 63.552964873195592 -18.955535055470076 9.6796132003363979 #
point $-1 63.552964873195592 -18.955535055470076 3.0700086915819469 #
straight-curve $-1 55.675945119244446 -11.358578943941669 9.679613200336405 0 1 0 I I #
coedge $-1 $449 $581 $584 $585 forward $379 $-1 #
coedge $-1 $586 $452 $449 $521 reversed $526 $-1 #
edge $-1 $587 -63.552964873195592 $454 63.552964873195592 $520 $588 forward 7 unknown #
face $-1 $589 $590 $15 $-1 $591 reversed single #
plane-surface $-1 0 0 9.6796132003363979 0 0 1 1 0 0 forward_v I I I I #
coedge $-1 $570 $451 $567 $592 forward $297 $-1 #
coedge $-1 $452 $586 $507 $573 forward $526 $-1 #
loop $-1 $-1 $525 $589 #
vertex $-1 $573 $593 #
straight-curve $-1 63.552964873195592 -38.595717313079263 0 0 0 -1 I I #
point $-1 63.552964873195592 -38.595717313079263 9.6796132003363979 #
vertex $-1 $460 $594 #
straight-curve $-1 -63.552964873195592 0 -9.6796132003363979 0 1 0 I I #
straight-curve $-1 0 38.595717313079263 -9.6796132003363979 1 0 0 I I #
straight-curve $-1 -63.552964873195592 38.595717313079263 0 0 0 -1 I I #
point $-1 -63.552964873195592 38.595717313079263 9.6796132003363979 #
coedge $-1 $595 $468 $596 $597 forward $407 $-1 #
coedge $-1 $468 $595 $473 $543 reversed $407 $-1 #
coedge $-1 $546 $596 $470 $538 forward $496 $-1 #
edge $-1 $541 -21.272162098787572 $539 -13.37494832979581 $537 $598 forward 7 unknown #
vertex $-1 $538 $599 #
straight-curve $-1 0 -30.698503544087501 -6.679165131890386 1 0 0 I I #
vertex $-1 $597 $600 #
straight-curve $-1 0 -38.595717313079263 -6.679165131890386 -1 0 0 I I #
edge $-1 $475 6.679165131890386 $553 9.6796132003363979 $473 $363 forward 7 unknown #
point $-1 63.552964873195592 -30.698503544087501 -6.679165131890386 #
point $-1 63.552964873195592 -38.595717313079263 -6.679165131890386 #
coedge $-1 $477 $537 $481 $549 forward $496 $-1 #
straight-curve $-1 -63.552964873195592 -17.323555214291691 -1.5233021895779597 0 -1 0 I I #
point $-1 -63.552964873195592 -38.595717313079263 -1.5233021895779597 #
edge $-1 $539 -4.6285483015232991 $482 0.52731464078912671 $546 $601 forward 7 unknown #
point $-1 -63.552964873195592 -30.698503544087501 -1.5233021895779597 #
coedge $-1 $602 $485 $595 $603 forward $431 $-1 #
coedge $-1 $485 $602 $487 $556 forward $431 $-1 #
vertex $-1 $543 $604 #
straight-curve $-1 63.552964873195592 0 -9.6796132003363979 0 -1 0 I I #
coedge $-1 $488 $487 $494 $561 reversed $489 $-1 #
edge $-1 $605 -63.552964873195592 $490 63.552964873195592 $487 $606 forward 7 unknown #
face $-1 $-1 $489 $14 $-1 $607 reversed single #
point $-1 63.552964873195592 38.595717313079263 -9.6796132003363979 #
straight-curve $-1 0 38.595717313079263 9.6796132003363979 -1 0 0 I I #
coedge $-1 $596 $494 $602 $608 reversed $496 $-1 #
edge $-1 $497 -9.6796132003363979 $605 9.6796132003363979 $555 $609 forward 7 unknown #
point $-1 -63.552964873195592 38.595717313079263 9.6796132003363979 #
straight-curve $-1 -63.552964873195592 -38.595717313079263 0 0 0 -1 I I #
plane-surface $-1 -63.552964873195592 0 0 1 0 0 0 0 -1 forward_v I I I I #
loop $-1 $-1 $610 $503 #
plane-surface $-1 0 -38.595717313079263 0 0 1 0 0 0 1 forward_v I I I I #
coedge $-1 $574 $611 $524 $592 reversed $504 $-1 #
coedge $-1 $612 $506 $611 $613 reversed $436 $-1 #
coedge $-1 $506 $612 $610 $614 reversed $436 $-1 #
coedge $-1 $615 $524 $506 $571 forward $297 $-1 #
edge $-1 $616 13.37494832979581 $617 21.272162098787572 $570 $618 forward 7 unknown #
coedge $-1 $508 $507 $619 $620 reversed $366 $-1 #
edge $-1 $621 -63.552964873195592 $527 63.552964873195592 $525 $622 forward 7 unknown #
coedge $-1 $623 $567 $508 $575 forward $504 $-1 #
edge $-1 $576 -63.552964873195592 $624 63.552964873195592 $574 $625 forward 7 unknown #
vertex $-1 $509 $626 #
straight-curve $-1 63.552964873195592 -17.323555214291691 -1.5233021895779597 0 1 0 I I #
coedge $-1 $510 $615 $627 $628 reversed $297 $-1 #
coedge $-1 $629 $630 $510 $580 forward $631 $-1 #
edge $-1 $582 -9.6796132003363979 $632 9.6796132003363979 $510 $633 forward 7 unknown #
coedge $-1 $519 $511 $630 $634 forward $379 $-1 #
vertex $-1 $512 $635 #
point $-1 55.675945119244446 -18.955535055470076 9.679613200336405 #
coedge $-1 $636 $637 $519 $585 reversed $638 $-1 #
edge $-1 $639 -38.595717313079263 $587 38.595717313079263 $584 $640 forward 7 unknown #
coedge $-1 $525 $520 $637 $641 forward $526 $-1 #
vertex $-1 $585 $642 #
straight-curve $-1 0 -38.595717313079263 9.6796132003363979 1 0 0 I I #
face $-1 $643 $526 $15 $-1 $566 reversed single #
loop $-1 $-1 $627 $522 #
plane-surface $-1 0 0 -9.6796132003363979 0 0 1 1 0 0 forward_v I I I I #
edge $-1 $576 -0.52731464078912671 $616 4.6285483015232991 $524 $644 forward 7 unknown #
point $-1 63.552964873195592 -38.595717313079263 -1.5233021895779597 #
point $-1 -63.552964873195592 38.595717313079263 -9.6796132003363979 #
coedge $-1 $536 $535 $551 $603 reversed $407 $-1 #
coedge $-1 $537 $560 $535 $597 reversed $496 $-1 #
edge $-1 $541 6.679165131890386 $645 9.6796132003363979 $596 $563 forward 7 unknown #
straight-curve $-1 -63.552964873195592 -17.323555214291691 -6.679165131890386 0 1 0 I I #
point $-1 -63.552964873195592 -30.698503544087501 -6.679165131890386 #
point $-1 -63.552964873195592 -38.595717313079263 -6.679165131890386 #
straight-curve $-1 -63.552964873195592 -30.698503544087501 -2.0506168303670864 0 0 1 I I #
coedge $-1 $552 $551 $560 $608 forward $431 $-1 #
edge $-1 $553 -63.552964873195592 $645 63.552964873195592 $595 $646 forward 7 unknown #
point $-1 63.552964873195592 -38.595717313079263 -9.6796132003363979 #
vertex $-1 $556 $647 #
straight-curve $-1 0 38.595717313079263 -9.6796132003363979 1 0 0 I I #
plane-surface $-1 0 38.595717313079263 0 0 -1 0 0 0 -1 forward_v I I I I #
edge $-1 $645 -38.595717313079263 $605 38.595717313079263 $560 $648 forward 7 unknown #
straight-curve $-1 -63.552964873195592 38.595717313079263 0 0 0 -1 I I #
coedge $-1 $649 $650 $569 $614 forward $565 $-1 #
coedge $-1 $567 $623 $568 $613 forward $504 $-1 #
coedge $-1 $569 $568 $651 $652 reversed $436 $-1 #
edge $-1 $653 -63.552964873195592 $616 63.552964873195592 $611 $654 forward 7 unknown #
edge $-1 $617 -63.552964873195592 $655 63.552964873195592 $610 $656 forward 7 unknown #
coedge $-1 $578 $570 $650 $657 forward $297 $-1 #
vertex $-1 $571 $658 #
vertex $-1 $657 $659 #
straight-curve $-1 63.552964873195592 -17.323555214291691 -6.679165131890386 0 -1 0 I I #
coedge $-1 $637 $660 $572 $620 forward $638 $-1 #
edge $-1 $624 13.37494832979581 $621 21.272162098787572 $619 $661 forward 7 unknown #
vertex $-1 $620 $662 #
straight-curve $-1 0 -38.595717313079263 -1.5233021895779597 1 0 0 I I #
coedge $-1 $611 $574 $660 $663 reversed $504 $-1 #
vertex $-1 $620 $664 #
straight-curve $-1 0 -30.698503544087501 -1.5233021895779597 -1 0 0 I I #
point $-1 63.552964873195592 -30.698503544087501 -1.5233021895779597 #
coedge $-1 $665 $666 $578 $628 forward $590 $-1 #
edge $-1 $632 -38.595717313079263 $667 38.595717313079263 $578 $668 forward 7 unknown #
coedge $-1 $669 $579 $666 $670 reversed $631 $-1 #
coedge $-1 $579 $669 $581 $634 reversed $631 $-1 #
loop $-1 $-1 $579 $671 #
vertex $-1 $628 $672 #
straight-curve $-1 63.552964873195592 38.595717313079263 0 0 0 -1 I I #
edge $-1 $582 -63.552964873195592 $639 63.552964873195592 $630 $673 forward 7 unknown #
point $-1 63.552964873195592 38.595717313079263 9.6796132003363979 #
coedge $-1 $674 $584 $669 $675 forward $638 $-1 #
coedge $-1 $584 $619 $586 $641 reversed $638 $-1 #
loop $-1 $-1 $619 $643 #
vertex $-1 $634 $676 #
straight-curve $-1 -63.552964873195592 0 9.6796132003363979 0 -1 0 I I #
edge $-1 $587 -9.6796132003363979 $621 1.5233021895779597 $637 $677 forward 7 unknown #
point $-1 -63.552964873195592 -38.595717313079263 9.6796132003363979 #
face $-1 $671 $638 $15 $-1 $678 reversed single #
straight-curve $-1 63.552964873195592 -30.698503544087501 -2.0506168303670864 0 0 -1 I I #
vertex $-1 $608 $679 #
straight-curve $-1 0 -38.595717313079263 -9.6796132003363979 -1 0 0 I I #
point $-1 -63.552964873195592 38.595717313079263 -9.6796132003363979 #
straight-curve $-1 -63.552964873195592 0 -9.6796132003363979 0 1 0 I I #
coedge $-1 $680 $610 $681 $682 forward $565 $-1 #
coedge $-1 $610 $680 $615 $657 reversed $565 $-1 #
coedge $-1 $660 $681 $612 $652 forward $638 $-1 #
edge $-1 $655 -21.272162098787572 $653 -13.37494832979581 $651 $683 forward 7 unknown #
vertex $-1 $652 $684 #
straight-curve $-1 0 -30.698503544087501 -6.679165131890386 1 0 0 I I #
vertex $-1 $682 $685 #
straight-curve $-1 0 -38.595717313079263 -6.679165131890386 -1 0 0 I I #
edge $-1 $617 6.679165131890386 $667 9.6796132003363979 $615 $528 forward 7 unknown #
point $-1 63.552964873195592 -30.698503544087501 -6.679165131890386 #
point $-1 63.552964873195592 -38.595717313079263 -6.679165131890386 #
coedge $-1 $619 $651 $623 $663 forward $638 $-1 #
straight-curve $-1 -63.552964873195592 -17.323555214291691 -1.5233021895779597 0 -1 0 I I #
point $-1 -63.552964873195592 -38.595717313079263 -1.5233021895779597 #
edge $-1 $653 -4.6285483015232991 $624 0.52731464078912671 $660 $686 forward 7 unknown #
point $-1 -63.552964873195592 -30.698503544087501 -1.5233021895779597 #
coedge $-1 $687 $627 $680 $688 forward $590 $-1 #
coedge $-1 $627 $687 $629 $670 forward $590 $-1 #
vertex $-1 $657 $689 #
straight-curve $-1 63.552964873195592 0 -9.6796132003363979 0 -1 0 I I #
coedge $-1 $630 $629 $636 $675 reversed $631 $-1 #
edge $-1 $690 -63.552964873195592 $632 63.552964873195592 $629 $691 forward 7 unknown #
face $-1 $-1 $631 $15 $-1 $692 reversed single #
point $-1 63.552964873195592 38.595717313079263 -9.6796132003363979 #
straight-curve $-1 0 38.595717313079263 9.6796132003363979 -1 0 0 I I #
coedge $-1 $681 $636 $687 $693 reversed $638 $-1 #
edge $-1 $639 -9.6796132003363979 $690 9.6796132003363979 $669 $694 forward 7 unknown #
point $-1 -63.552964873195592 38.595717313079263 9.6796132003363979 #
straight-curve $-1 -63.552964873195592 -38.595717313079263 0 0 0 -1 I I #
plane-surface $-1 -63.552964873195592 0 0 1 0 0 0 0 -1 forward_v I I I I #
point $-1 -63.552964873195592 -38.595717313079263 -9.6796132003363979 #
coedge $-1 $650 $649 $665 $688 reversed $565 $-1 #
coedge $-1 $651 $674 $649 $682 reversed $638 $-1 #
edge $-1 $655 6.679165131890386 $695 9.6796132003363979 $681 $677 forward 7 unknown #
straight-curve $-1 -63.552964873195592 -17.323555214291691 -6.679165131890386 0 1 0 I I #
point $-1 -63.552964873195592 -30.698503544087501 -6.679165131890386 #
point $-1 -63.552964873195592 -38.595717313079263 -6.679165131890386 #
straight-curve $-1 -63.552964873195592 -30.698503544087501 -2.0506168303670864 0 0 1 I I #
coedge $-1 $666 $665 $674 $693 forward $590 $-1 #
edge $-1 $667 -63.552964873195592 $695 63.552964873195592 $680 $696 forward 7 unknown #
point $-1 63.552964873195592 -38.595717313079263 -9.6796132003363979 #
vertex $-1 $670 $697 #
straight-curve $-1 0 38.595717313079263 -9.6796132003363979 1 0 0 I I #
plane-surface $-1 0 38.595717313079263 0 0 -1 0 0 0 -1 forward_v I I I I #
edge $-1 $695 -38.595717313079263 $690 38.595717313079263 $674 $698 forward 7 unknown #
straight-curve $-1 -63.552964873195592 38.595717313079263 0 0 0 -1 I I #
vertex $-1 $693 $699 #
straight-curve $-1 0 -38.595717313079263 -9.6796132003363979 -1 0 0 I I #
point $-1 -63.552964873195592 38.595717313079263 -9.6796132003363979 #
straight-curve $-1 -63.552964873195592 0 -9.6796132003363979 0 1 0 I I #
point $-1 -63.552964873195592 -38.595717313079263 -9.6796132003363979 #
End-of-ACIS-data 