500 0 11 0           
7 Unknown 11 ACIS 5.0 NT 24 Thu Mar 25 20:39:31 1999 
-1 9.9999999999999995e-007 1e-010 
body $-1 $11 $-1 $12 #
body $-1 $13 $-1 $14 #
body $-1 $15 $-1 $16 #
body $-1 $17 $-1 $18 #
body $-1 $19 $-1 $20 #
body $-1 $21 $-1 $22 #
body $-1 $23 $-1 $24 #
body $-1 $25 $-1 $26 #
body $-1 $27 $-1 $28 #
body $-1 $29 $-1 $30 #
body $-1 $31 $-1 $32 #
lump $-1 $-1 $33 $0 #
transform $-1 1 0 0 0 1 0 0 0 1 74.661702322458581 41.684275290911273 16.187243034506409 1 rotate no_reflect no_shear #
lump $-1 $-1 $34 $1 #
transform $-1 1 0 0 0 1 0 0 0 1 74.661702322458581 41.684275290911273 16.187243034506409 1 rotate no_reflect no_shear #
lump $-1 $-1 $35 $2 #
transform $-1 1 0 0 0 1 0 0 0 1 74.661702322458581 41.684275290911273 16.187243034506409 1 rotate no_reflect no_shear #
lump $-1 $-1 $36 $3 #
transform $-1 1 0 0 0 1 0 0 0 1 74.661702322458581 41.684275290911273 16.187243034506409 1 rotate no_reflect no_shear #
lump $-1 $-1 $37 $4 #
transform $-1 1 0 0 0 1 0 0 0 1 74.661702322458581 41.684275290911273 16.187243034506409 1 rotate no_reflect no_shear #
lump $-1 $-1 $38 $5 #
transform $-1 1 0 0 0 1 0 0 0 1 74.661702322458581 41.684275290911273 16.187243034506409 1 rotate no_reflect no_shear #
lump $-1 $-1 $39 $6 #
transform $-1 1 0 0 0 1 0 0 0 1 74.661702322458581 41.684275290911273 16.187243034506409 1 rotate no_reflect no_shear #
lump $-1 $-1 $40 $7 #
transform $-1 1 0 0 0 1 0 0 0 1 74.661702322458581 41.684275290911273 16.187243034506409 1 rotate no_reflect no_shear #
lump $-1 $-1 $41 $8 #
transform $-1 1 0 0 0 1 0 0 0 1 74.661702322458581 41.684275290911273 16.187243034506409 1 rotate no_reflect no_shear #
lump $-1 $-1 $42 $9 #
transform $-1 1 0 0 0 1 0 0 0 1 74.661702322458581 41.684275290911273 16.187243034506409 1 rotate no_reflect no_shear #
lump $-1 $-1 $43 $10 #
transform $-1 1 0 0 0 1 0 0 0 1 74.661702322458581 41.684275290911273 16.187243034506409 1 rotate no_reflect no_shear #
shell $-1 $-1 $-1 $44 $-1 $11 #
shell $-1 $-1 $-1 $45 $-1 $13 #
shell $-1 $-1 $-1 $46 $-1 $15 #
shell $-1 $-1 $-1 $47 $-1 $17 #
shell $-1 $-1 $-1 $48 $-1 $19 #
shell $-1 $-1 $-1 $49 $-1 $21 #
shell $-1 $-1 $-1 $50 $-1 $23 #
shell $-1 $-1 $-1 $51 $-1 $25 #
shell $-1 $-1 $-1 $52 $-1 $27 #
shell $-1 $-1 $-1 $53 $-1 $29 #
shell $-1 $-1 $-1 $54 $-1 $31 #
face $-1 $55 $56 $33 $-1 $57 forward single #
face $-1 $58 $59 $34 $-1 $60 forward single #
face $-1 $61 $62 $35 $-1 $63 forward single #
face $-1 $64 $65 $36 $-1 $66 reversed single #
face $-1 $67 $68 $37 $-1 $69 forward single #
face $-1 $70 $71 $38 $-1 $72 forward single #
face $-1 $73 $74 $39 $-1 $75 forward single #
face $-1 $76 $77 $40 $-1 $78 reversed single #
face $-1 $79 $80 $41 $-1 $81 forward single #
face $-1 $82 $83 $42 $-1 $84 forward single #
face $-1 $85 $86 $43 $-1 $87 forward single #
face $-1 $88 $89 $33 $-1 $90 reversed single #
loop $-1 $-1 $91 $44 #
plane-surface $-1 0 0 16.187243034506409 0 0 1 1 0 0 forward_v I I I I #
face $-1 $92 $93 $34 $-1 $94 reversed single #
loop $-1 $-1 $95 $45 #
plane-surface $-1 0 -41.684275290911273 0 0 1 0 0 0 1 forward_v I I I I #
face $-1 $96 $97 $35 $-1 $98 reversed single #
loop $-1 $-1 $99 $46 #
plane-surface $-1 0 41.684275290911273 0 0 -1 0 0 0 -1 forward_v I I I I #
face $-1 $100 $101 $36 $-1 $102 reversed single #
loop $-1 $-1 $103 $47 #
plane-surface $-1 -185.63061904357238 -20.722399682819422 103.68343527940527 0 1 0 -0.74314483375859142 0 0.66913059716165679 forward_v I I I I #
face $-1 $104 $105 $37 $-1 $106 forward single #
loop $-1 $107 $108 $48 #
cone-surface $-1 -68.586929578837299 -18.858729709387845 9.5420473027512731 0.74314483375859142 0 -0.66913059716165679 0.3345652985808284 0 0.37157241687929571 1 I I 0 1 0.5 forward I I I I #
face $-1 $109 $110 $38 $-1 $111 forward single #
loop $-1 $112 $113 $49 #
cone-surface $-1 -68.586929578837299 -16.063224749240479 9.5420473027512731 0.74314483375859142 0 -0.66913059716165679 0.3345652985808284 0 0.37157241687929571 1 I I 0 1 0.5 forward I I I I #
face $-1 $114 $115 $39 $-1 $116 forward single #
loop $-1 $117 $118 $50 #
cone-surface $-1 -68.586929578837299 -13.267719789093114 9.5420473027512731 0.74314483375859142 0 -0.66913059716165679 0.3345652985808284 0 0.37157241687929571 1 I I 0 1 0.5 forward I I I I #
face $-1 $119 $120 $40 $-1 $121 reversed single #
loop $-1 $-1 $122 $51 #
plane-surface $-1 -185.63061904357238 2.6204304963128831 103.68343527940527 0 1 0 -0.74314483375859142 0 0.66913059716165679 forward_v I I I I #
face $-1 $123 $124 $41 $-1 $125 forward single #
loop $-1 $126 $127 $52 #
cone-surface $-1 -68.586929578837299 4.4841004697444617 9.5420473027512731 0.74314483375859142 0 -0.66913059716165679 0.3345652985808284 0 0.37157241687929571 1 I I 0 1 0.5 forward I I I I #
face $-1 $128 $129 $42 $-1 $130 forward single #
loop $-1 $131 $132 $53 #
cone-surface $-1 -68.586929578837299 7.2796054298918307 9.5420473027512731 0.74314483375859142 0 -0.66913059716165679 0.3345652985808284 0 0.37157241687929571 1 I I 0 1 0.5 forward I I I I #
face $-1 $133 $134 $43 $-1 $135 forward single #
loop $-1 $136 $137 $54 #
cone-surface $-1 -68.586929578837299 10.075110390039193 9.5420473027512731 0.74314483375859142 0 -0.66913059716165679 0.3345652985808284 0 0.37157241687929571 1 I I 0 1 0.5 forward I I I I #
face $-1 $138 $139 $33 $-1 $140 reversed single #
loop $-1 $-1 $141 $55 #
plane-surface $-1 0 0 -16.187243034506409 0 0 1 1 0 0 forward_v I I I I #
coedge $-1 $142 $143 $144 $145 forward $56 $-1 #
face $-1 $146 $147 $34 $-1 $148 reversed single #
loop $-1 $-1 $149 $58 #
plane-surface $-1 0 0 -16.187243034506409 0 0 1 1 0 0 forward_v I I I I #
coedge $-1 $150 $151 $152 $153 forward $59 $-1 #
face $-1 $154 $155 $35 $-1 $156 forward single #
loop $-1 $-1 $157 $61 #
plane-surface $-1 -74.661702322458581 0 0 1 0 0 0 0 -1 forward_v I I I I #
coedge $-1 $158 $159 $160 $161 forward $62 $-1 #
face $-1 $162 $163 $36 $-1 $164 reversed single #
loop $-1 $-1 $165 $64 #
plane-surface $-1 -74.661702322458538 -16.063224749240483 3.7665763591401316 -0.74314483375859142 0 0.66913059716165679 0.66913059716165679 0 0.74314483375859142 forward_v I I I I #
coedge $-1 $166 $167 $168 $169 reversed $65 $-1 #
face $-1 $-1 $170 $37 $-1 $171 forward single #
loop $-1 $172 $173 $67 #
cone-surface $-1 -67.918179741292477 -18.858729709387845 8.9399022593888517 0.74314483375859142 0 -0.66913059716165679 0.1672826492904142 0 0.18578620843964785 1 I I -0.70710678118654746 0.70710678118654746 0.25 forward I I I I #
loop $-1 $-1 $174 $48 #
coedge $-1 $108 $108 $175 $176 reversed $68 $-1 #
face $-1 $-1 $177 $38 $-1 $178 forward single #
loop $-1 $179 $180 $70 #
cone-surface $-1 -67.918179741292477 -16.063224749240479 8.9399022593888517 0.74314483375859142 0 -0.66913059716165679 0.1672826492904142 0 0.18578620843964785 1 I I -0.70710678118654746 0.70710678118654746 0.25 forward I I I I #
loop $-1 $-1 $181 $49 #
coedge $-1 $113 $113 $182 $183 reversed $71 $-1 #
face $-1 $-1 $184 $39 $-1 $185 forward single #
loop $-1 $186 $187 $73 #
cone-surface $-1 -67.918179741292477 -13.267719789093114 8.9399022593888517 0.74314483375859142 0 -0.66913059716165679 0.1672826492904142 0 0.18578620843964785 1 I I -0.70710678118654746 0.70710678118654746 0.25 forward I I I I #
loop $-1 $-1 $188 $50 #
coedge $-1 $118 $118 $189 $190 reversed $74 $-1 #
face $-1 $191 $192 $40 $-1 $193 reversed single #
loop $-1 $-1 $194 $76 #
plane-surface $-1 -74.661702322458538 7.2796054298918236 3.7665763591401316 -0.74314483375859142 0 0.66913059716165679 0.66913059716165679 0 0.74314483375859142 forward_v I I I I #
coedge $-1 $195 $196 $197 $198 reversed $77 $-1 #
face $-1 $-1 $199 $41 $-1 $200 forward single #
loop $-1 $201 $202 $79 #
cone-surface $-1 -67.918179741292477 4.4841004697444617 8.9399022593888517 0.74314483375859142 0 -0.66913059716165679 0.1672826492904142 0 0.18578620843964785 1 I I -0.70710678118654746 0.70710678118654746 0.25 forward I I I I #
loop $-1 $-1 $203 $52 #
coedge $-1 $127 $127 $204 $205 reversed $80 $-1 #
face $-1 $-1 $206 $42 $-1 $207 forward single #
loop $-1 $208 $209 $82 #
cone-surface $-1 -67.918179741292477 7.2796054298918307 8.9399022593888517 0.74314483375859142 0 -0.66913059716165679 0.1672826492904142 0 0.18578620843964785 1 I I -0.70710678118654746 0.70710678118654746 0.25 forward I I I I #
loop $-1 $-1 $210 $53 #
coedge $-1 $132 $132 $211 $212 reversed $83 $-1 #
face $-1 $-1 $213 $43 $-1 $214 forward single #
loop $-1 $215 $216 $85 #
cone-surface $-1 -67.918179741292477 10.075110390039193 8.9399022593888517 0.74314483375859142 0 -0.66913059716165679 0.1672826492904142 0 0.18578620843964785 1 I I -0.70710678118654746 0.70710678118654746 0.25 forward I I I I #
loop $-1 $-1 $217 $54 #
coedge $-1 $137 $137 $218 $219 reversed $86 $-1 #
face $-1 $220 $221 $33 $-1 $222 reversed single #
loop $-1 $-1 $223 $88 #
plane-surface $-1 0 -41.684275290911273 0 0 1 0 0 0 1 forward_v I I I I #
coedge $-1 $224 $225 $226 $227 forward $89 $-1 #
coedge $-1 $228 $91 $229 $230 forward $56 $-1 #
coedge $-1 $91 $228 $231 $232 forward $56 $-1 #
coedge $-1 $233 $234 $91 $145 reversed $235 $-1 #
edge $-1 $236 -41.684275290911273 $237 41.684275290911273 $144 $238 forward 7 unknown #
face $-1 $239 $240 $34 $-1 $241 forward single #
loop $-1 $-1 $242 $92 #
plane-surface $-1 74.661702322458581 0 0 -1 0 0 0 0 1 forward_v I I I I #
coedge $-1 $243 $244 $245 $246 forward $93 $-1 #
coedge $-1 $245 $95 $242 $247 reversed $59 $-1 #
coedge $-1 $95 $245 $248 $249 reversed $59 $-1 #
coedge $-1 $250 $251 $95 $153 reversed $240 $-1 #
edge $-1 $252 -74.661702322458581 $253 74.661702322458581 $152 $254 forward 7 unknown #
face $-1 $255 $256 $35 $-1 $257 reversed single #
loop $-1 $-1 $258 $96 #
plane-surface $-1 0 50.854997846800757 -7.7190133324005723 0 0 1 1 0 0 forward_v I I I I #
coedge $-1 $259 $260 $158 $261 forward $97 $-1 #
coedge $-1 $262 $99 $157 $261 reversed $62 $-1 #
coedge $-1 $99 $262 $263 $264 reversed $62 $-1 #
coedge $-1 $258 $265 $99 $161 reversed $155 $-1 #
edge $-1 $266 -74.661702322458581 $267 74.661702322458581 $160 $268 forward 7 unknown #
face $-1 $269 $270 $36 $-1 $271 reversed single #
loop $-1 $-1 $272 $100 #
plane-surface $-1 -185.63061904357238 -11.404049815661542 103.68343527940527 0 -1 0 0.74314483375859142 0 -0.66913059716165679 forward_v I I I I #
coedge $-1 $273 $274 $275 $276 reversed $101 $-1 #
coedge $-1 $167 $103 $277 $278 reversed $65 $-1 #
coedge $-1 $103 $166 $273 $279 reversed $65 $-1 #
coedge $-1 $275 $280 $103 $169 forward $281 $-1 #
edge $-1 $282 18.15360719932761 $283 29.337225428359908 $168 $284 forward 7 unknown #
loop $-1 $-1 $175 $104 #
plane-surface $-1 -74.661702322458538 -16.063224749240483 3.7665763591401316 -0.74314483375859142 0 0.66913059716165679 0.66913059716165679 0 0.74314483375859142 forward_v I I I I #
loop $-1 $-1 $285 $67 #
coedge $-1 $173 $173 $174 $286 reversed $105 $-1 #
coedge $-1 $174 $174 $173 $286 forward $107 $-1 #
coedge $-1 $175 $175 $108 $176 forward $170 $-1 #
edge $-1 $287 0 $287 6.2831853071796004 $175 $288 forward 7 unknown #
loop $-1 $-1 $182 $109 #
plane-surface $-1 -74.661702322458538 -16.063224749240483 3.7665763591401316 -0.74314483375859142 0 0.66913059716165679 0.66913059716165679 0 0.74314483375859142 forward_v I I I I #
loop $-1 $-1 $289 $70 #
coedge $-1 $180 $180 $181 $290 reversed $110 $-1 #
coedge $-1 $181 $181 $180 $290 forward $112 $-1 #
coedge $-1 $182 $182 $113 $183 forward $177 $-1 #
edge $-1 $291 0 $291 6.2831853071796004 $182 $292 forward 7 unknown #
loop $-1 $-1 $189 $114 #
plane-surface $-1 -74.661702322458538 -16.063224749240483 3.7665763591401316 -0.74314483375859142 0 0.66913059716165679 0.66913059716165679 0 0.74314483375859142 forward_v I I I I #
loop $-1 $-1 $293 $73 #
coedge $-1 $187 $187 $188 $294 reversed $115 $-1 #
coedge $-1 $188 $188 $187 $294 forward $117 $-1 #
coedge $-1 $189 $189 $118 $190 forward $184 $-1 #
edge $-1 $295 0 $295 6.2831853071796004 $189 $296 forward 7 unknown #
face $-1 $297 $298 $40 $-1 $299 forward single #
loop $-1 $-1 $300 $119 #
plane-surface $-1 -185.63061904357238 11.938780363470764 103.68343527940527 0 -1 0 0.74314483375859142 0 -0.66913059716165679 forward_v I I I I #
coedge $-1 $301 $302 $303 $304 reversed $120 $-1 #
coedge $-1 $196 $122 $305 $306 reversed $77 $-1 #
coedge $-1 $122 $195 $301 $307 reversed $77 $-1 #
coedge $-1 $303 $308 $122 $198 forward $298 $-1 #
edge $-1 $309 18.15360719932761 $310 29.337225428359908 $197 $311 forward 7 unknown #
loop $-1 $-1 $204 $123 #
plane-surface $-1 -74.661702322458538 7.2796054298918236 3.7665763591401316 -0.74314483375859142 0 0.66913059716165679 0.66913059716165679 0 0.74314483375859142 forward_v I I I I #
loop $-1 $-1 $312 $79 #
coedge $-1 $202 $202 $203 $313 reversed $124 $-1 #
coedge $-1 $203 $203 $202 $313 forward $126 $-1 #
coedge $-1 $204 $204 $127 $205 forward $199 $-1 #
edge $-1 $314 0 $314 6.2831853071796004 $204 $315 forward 7 unknown #
loop $-1 $-1 $211 $128 #
plane-surface $-1 -74.661702322458538 7.2796054298918236 3.7665763591401316 -0.74314483375859142 0 0.66913059716165679 0.66913059716165679 0 0.74314483375859142 forward_v I I I I #
loop $-1 $-1 $316 $82 #
coedge $-1 $209 $209 $210 $317 reversed $129 $-1 #
coedge $-1 $210 $210 $209 $317 forward $131 $-1 #
coedge $-1 $211 $211 $132 $212 forward $206 $-1 #
edge $-1 $318 0 $318 6.2831853071796004 $211 $319 forward 7 unknown #
loop $-1 $-1 $218 $133 #
plane-surface $-1 -74.661702322458538 7.2796054298918236 3.7665763591401316 -0.74314483375859142 0 0.66913059716165679 0.66913059716165679 0 0.74314483375859142 forward_v I I I I #
loop $-1 $-1 $320 $85 #
coedge $-1 $216 $216 $217 $321 reversed $134 $-1 #
coedge $-1 $217 $217 $216 $321 forward $136 $-1 #
coedge $-1 $218 $218 $137 $219 forward $213 $-1 #
edge $-1 $322 0 $322 6.2831853071796004 $218 $323 forward 7 unknown #
face $-1 $324 $325 $33 $-1 $326 reversed single #
loop $-1 $-1 $327 $138 #
plane-surface $-1 -74.661702322458581 0 0 1 0 0 0 0 -1 forward_v I I I I #
coedge $-1 $328 $231 $329 $330 forward $139 $-1 #
coedge $-1 $331 $141 $328 $332 forward $89 $-1 #
coedge $-1 $141 $331 $333 $334 forward $89 $-1 #
coedge $-1 $234 $233 $141 $227 reversed $235 $-1 #
edge $-1 $335 -41.684275290911273 $336 41.684275290911273 $226 $337 forward 7 unknown #
coedge $-1 $143 $142 $338 $339 forward $56 $-1 #
coedge $-1 $340 $341 $142 $230 reversed $325 $-1 #
edge $-1 $237 -74.661702322458581 $342 74.661702322458581 $229 $343 forward 7 unknown #
coedge $-1 $223 $344 $143 $232 reversed $139 $-1 #
edge $-1 $345 -74.661702322458581 $236 74.661702322458581 $231 $346 forward 7 unknown #
coedge $-1 $226 $144 $344 $347 forward $235 $-1 #
coedge $-1 $144 $226 $340 $348 reversed $235 $-1 #
loop $-1 $-1 $233 $324 #
vertex $-1 $145 $349 #
vertex $-1 $145 $350 #
straight-curve $-1 74.661702322458581 0 16.187243034506409 0 1 0 I I #
face $-1 $351 $352 $34 $-1 $353 reversed single #
loop $-1 $-1 $251 $146 #
plane-surface $-1 0 -50.854997846800757 -7.7190133324005723 0 0 1 1 0 0 forward_v I I I I #
coedge $-1 $354 $355 $150 $247 forward $147 $-1 #
coedge $-1 $356 $149 $355 $357 forward $93 $-1 #
coedge $-1 $149 $356 $358 $359 forward $93 $-1 #
coedge $-1 $151 $150 $149 $246 reversed $59 $-1 #
edge $-1 $360 -74.661702322458581 $361 74.661702322458581 $149 $362 forward 7 unknown #
edge $-1 $361 -16.187243034506409 $253 -7.7190133324005723 $242 $363 forward 7 unknown #
coedge $-1 $358 $364 $151 $249 forward $365 $-1 #
edge $-1 $252 7.7190133324005723 $360 16.187243034506409 $248 $366 forward 7 unknown #
coedge $-1 $367 $152 $364 $368 forward $240 $-1 #
coedge $-1 $152 $367 $354 $369 forward $240 $-1 #
vertex $-1 $249 $370 #
vertex $-1 $369 $371 #
straight-curve $-1 0 -41.684275290911273 -7.7190133324005723 1 0 0 I I #
face $-1 $372 $373 $35 $-1 $374 reversed single #
loop $-1 $-1 $375 $154 #
plane-surface $-1 0 60.02572040269024 -11.95312818345349 0 -1 0 0 0 -1 forward_v I I I I #
coedge $-1 $376 $160 $377 $378 forward $155 $-1 #
coedge $-1 $379 $157 $265 $380 reversed $97 $-1 #
coedge $-1 $157 $379 $381 $382 reversed $97 $-1 #
edge $-1 $383 -16.187243034506409 $267 -7.7190133324005723 $157 $384 forward 7 unknown #
coedge $-1 $159 $158 $385 $386 reversed $62 $-1 #
coedge $-1 $387 $377 $159 $264 forward $388 $-1 #
edge $-1 $266 7.7190133324005723 $389 16.187243034506409 $263 $390 forward 7 unknown #
coedge $-1 $160 $376 $259 $380 forward $155 $-1 #
vertex $-1 $264 $391 #
vertex $-1 $380 $392 #
straight-curve $-1 0 41.684275290911273 -7.7190133324005723 -1 0 0 I I #
face $-1 $-1 $281 $36 $-1 $393 forward single #
loop $-1 $-1 $394 $162 #
plane-surface $-1 -74.661702322458581 0 0 1 0 0 0 0 -1 forward_v I I I I #
coedge $-1 $395 $396 $397 $398 reversed $163 $-1 #
coedge $-1 $399 $165 $167 $279 forward $101 $-1 #
coedge $-1 $165 $399 $395 $400 forward $101 $-1 #
coedge $-1 $397 $168 $165 $276 forward $281 $-1 #
edge $-1 $283 -12.69078730819918 $401 -3.3724374410413009 $275 $402 forward 7 unknown #
coedge $-1 $403 $404 $166 $278 forward $270 $-1 #
edge $-1 $405 -48.075141280562555 $282 -35.654474605196228 $277 $406 forward 7 unknown #
edge $-1 $283 -16.713655415656291 $405 6.3839171522278943e-014 $167 $407 forward 7 unknown #
coedge $-1 $168 $397 $403 $408 forward $281 $-1 #
loop $-1 $-1 $397 $269 #
vertex $-1 $278 $409 #
vertex $-1 $169 $410 #
straight-curve $-1 -92.81530952178619 -20.722399682819422 16.187243034506409 1 0 0 I I #
coedge $-1 $285 $285 $-1 $411 reversed $172 $-1 #
edge $-1 $412 0 $412 6.2831853071796004 $173 $413 forward 7 unknown #
vertex $-1 $176 $414 #
ellipse-curve $-1 -69.069893207942428 -18.858729709387845 9.9769096968232454 -0.74314483375859142 0 0.66913059716165679 0.3345652985808284 0 0.37157241687929571 1 I I #
coedge $-1 $289 $289 $-1 $415 reversed $179 $-1 #
edge $-1 $416 0 $416 6.2831853071796004 $180 $417 forward 7 unknown #
vertex $-1 $183 $418 #
ellipse-curve $-1 -69.069893207942428 -16.063224749240479 9.9769096968232454 -0.74314483375859142 0 0.66913059716165679 0.3345652985808284 0 0.37157241687929571 1 I I #
coedge $-1 $293 $293 $-1 $419 reversed $186 $-1 #
edge $-1 $420 0 $420 6.2831853071796004 $187 $421 forward 7 unknown #
vertex $-1 $190 $422 #
ellipse-curve $-1 -69.069893207942428 -13.267719789093114 9.9769096968232454 -0.74314483375859142 0 0.66913059716165679 0.3345652985808284 0 0.37157241687929571 1 I I #
face $-1 $-1 $423 $40 $-1 $424 reversed single #
loop $-1 $-1 $197 $191 #
plane-surface $-1 0 0 16.187243034506409 0 0 1 1 0 0 forward_v I I I I #
coedge $-1 $425 $426 $427 $428 reversed $192 $-1 #
coedge $-1 $429 $194 $196 $307 forward $120 $-1 #
coedge $-1 $194 $429 $425 $430 forward $120 $-1 #
coedge $-1 $427 $197 $194 $304 forward $298 $-1 #
edge $-1 $310 -1.0193722186330287 $431 8.2989776485248523 $303 $432 forward 7 unknown #
coedge $-1 $433 $434 $195 $306 forward $423 $-1 #
edge $-1 $435 -48.075141280562555 $309 -35.654474605196228 $305 $436 forward 7 unknown #
edge $-1 $310 -16.713655415656291 $435 6.3839171522278943e-014 $196 $437 forward 7 unknown #
coedge $-1 $197 $427 $433 $438 forward $298 $-1 #
vertex $-1 $198 $439 #
vertex $-1 $198 $440 #
straight-curve $-1 -92.81530952178619 2.6204304963128831 16.187243034506409 1 0 0 I I #
coedge $-1 $312 $312 $-1 $441 reversed $201 $-1 #
edge $-1 $442 0 $442 6.2831853071796004 $202 $443 forward 7 unknown #
vertex $-1 $205 $444 #
ellipse-curve $-1 -69.069893207942428 4.4841004697444617 9.9769096968232454 -0.74314483375859142 0 0.66913059716165679 0.3345652985808284 0 0.37157241687929571 1 I I #
coedge $-1 $316 $316 $-1 $445 reversed $208 $-1 #
edge $-1 $446 0 $446 6.2831853071796004 $209 $447 forward 7 unknown #
vertex $-1 $212 $448 #
ellipse-curve $-1 -69.069893207942428 7.2796054298918307 9.9769096968232454 -0.74314483375859142 0 0.66913059716165679 0.3345652985808284 0 0.37157241687929571 1 I I #
coedge $-1 $320 $320 $-1 $449 reversed $215 $-1 #
edge $-1 $450 0 $450 6.2831853071796004 $216 $451 forward 7 unknown #
vertex $-1 $219 $452 #
ellipse-curve $-1 -69.069893207942428 10.075110390039193 9.9769096968232454 -0.74314483375859142 0 0.66913059716165679 0.3345652985808284 0 0.37157241687929571 1 I I #
face $-1 $-1 $235 $33 $-1 $453 reversed single #
loop $-1 $-1 $340 $220 #
plane-surface $-1 0 41.684275290911273 0 0 -1 0 0 0 -1 forward_v I I I I #
coedge $-1 $454 $338 $341 $455 forward $221 $-1 #
coedge $-1 $344 $223 $224 $332 reversed $139 $-1 #
coedge $-1 $338 $454 $223 $330 reversed $221 $-1 #
edge $-1 $345 -16.187243034506409 $456 16.187243034506409 $329 $457 forward 7 unknown #
coedge $-1 $225 $224 $454 $458 forward $89 $-1 #
edge $-1 $336 -74.661702322458581 $456 74.661702322458581 $328 $459 forward 7 unknown #
coedge $-1 $341 $340 $225 $334 reversed $325 $-1 #
edge $-1 $460 -74.661702322458581 $335 74.661702322458581 $333 $461 forward 7 unknown #
vertex $-1 $227 $462 #
vertex $-1 $347 $463 #
straight-curve $-1 74.661702322458581 0 -16.187243034506409 0 -1 0 I I #
coedge $-1 $327 $329 $228 $339 reversed $221 $-1 #
edge $-1 $342 -41.684275290911273 $345 41.684275290911273 $338 $464 forward 7 unknown #
coedge $-1 $333 $229 $234 $348 forward $325 $-1 #
coedge $-1 $229 $333 $327 $455 reversed $325 $-1 #
vertex $-1 $230 $465 #
straight-curve $-1 0 41.684275290911273 16.187243034506409 -1 0 0 I I #
coedge $-1 $231 $328 $233 $347 reversed $139 $-1 #
vertex $-1 $339 $466 #
straight-curve $-1 0 -41.684275290911273 16.187243034506409 1 0 0 I I #
edge $-1 $236 -16.187243034506409 $336 16.187243034506409 $233 $467 forward 7 unknown #
edge $-1 $237 -16.187243034506409 $335 16.187243034506409 $234 $468 forward 7 unknown #
point $-1 74.661702322458581 -41.684275290911273 16.187243034506409 #
point $-1 74.661702322458581 41.684275290911273 16.187243034506409 #
face $-1 $-1 $365 $34 $-1 $469 reversed single #
loop $-1 $-1 $470 $239 #
plane-surface $-1 0 -60.02572040269024 -11.95312818345349 0 1 0 0 0 1 forward_v I I I I #
coedge $-1 $471 $242 $251 $369 reversed $147 $-1 #
coedge $-1 $242 $471 $243 $357 reversed $147 $-1 #
coedge $-1 $244 $243 $472 $473 forward $93 $-1 #
edge $-1 $361 41.684275290911273 $474 60.02572040269024 $355 $475 forward 7 unknown #
coedge $-1 $476 $248 $244 $359 reversed $365 $-1 #
edge $-1 $477 -60.02572040269024 $360 -41.684275290911273 $358 $478 forward 7 unknown #
vertex $-1 $249 $479 #
vertex $-1 $357 $480 #
straight-curve $-1 0 -41.684275290911273 -16.187243034506409 1 0 0 I I #
straight-curve $-1 74.661702322458581 -41.684275290911273 0 0 0 1 I I #
coedge $-1 $248 $476 $250 $368 reversed $365 $-1 #
loop $-1 $-1 $248 $351 #
straight-curve $-1 -74.661702322458581 -41.684275290911273 0 0 0 -1 I I #
coedge $-1 $251 $250 $481 $482 forward $240 $-1 #
edge $-1 $252 -9.1707225558894834 $483 9.1707225558894834 $364 $484 forward 7 unknown #
edge $-1 $485 -9.1707225558894834 $253 9.1707225558894834 $354 $486 forward 7 unknown #
point $-1 -74.661702322458581 -41.684275290911273 -7.7190133324005723 #
point $-1 74.661702322458581 -41.684275290911273 -7.7190133324005723 #
face $-1 $-1 $388 $35 $-1 $487 reversed single #
loop $-1 $-1 $385 $255 #
plane-surface $-1 0 0 -16.187243034506409 0 0 1 1 0 0 forward_v I I I I #
coedge $-1 $488 $489 $490 $491 forward $256 $-1 #
coedge $-1 $265 $258 $489 $492 forward $155 $-1 #
coedge $-1 $263 $490 $258 $378 reversed $388 $-1 #
edge $-1 $266 -9.1707225558894834 $493 9.1707225558894834 $377 $494 forward 7 unknown #
coedge $-1 $260 $259 $495 $496 forward $97 $-1 #
edge $-1 $497 -9.1707225558894834 $267 9.1707225558894834 $259 $498 forward 7 unknown #
coedge $-1 $499 $385 $260 $382 forward $373 $-1 #
edge $-1 $383 -9.1707225558894834 $500 9.1707225558894834 $260 $501 forward 7 unknown #
vertex $-1 $382 $502 #
straight-curve $-1 -74.661702322458581 41.684275290911273 0 0 0 1 I I #
coedge $-1 $381 $503 $262 $386 forward $373 $-1 #
edge $-1 $389 -74.661702322458581 $383 74.661702322458581 $385 $504 forward 7 unknown #
coedge $-1 $490 $263 $503 $505 reversed $388 $-1 #
loop $-1 $-1 $263 $372 #
vertex $-1 $264 $506 #
straight-curve $-1 74.661702322458581 41.684275290911273 0 0 0 -1 I I #
point $-1 74.661702322458581 41.684275290911273 -7.7190133324005723 #
point $-1 -74.661702322458581 41.684275290911273 -7.7190133324005723 #
plane-surface $-1 0 0 16.187243034506409 0 0 1 1 0 0 forward_v I I I I #
coedge $-1 $404 $403 $396 $507 forward $270 $-1 #
coedge $-1 $396 $272 $274 $400 reversed $163 $-1 #
coedge $-1 $272 $395 $394 $507 reversed $163 $-1 #
coedge $-1 $280 $275 $272 $398 forward $281 $-1 #
edge $-1 $401 -29.337225428359908 $508 -18.15360719932761 $397 $509 forward 7 unknown #
coedge $-1 $274 $273 $404 $510 reversed $101 $-1 #
edge $-1 $511 -6.3839171522278943e-014 $401 16.713655415656291 $395 $512 forward 7 unknown #
vertex $-1 $276 $513 #
straight-curve $-1 -63.478084093426276 -8.0316123746202415 16.187243034506409 0 1 0 I I #
coedge $-1 $394 $277 $280 $408 reversed $270 $-1 #
coedge $-1 $277 $394 $399 $510 forward $270 $-1 #
vertex $-1 $278 $514 #
straight-curve $-1 -74.661702322458581 -20.722399682819422 51.841717639702637 0 0 1 I I #
straight-curve $-1 -74.661702322458538 -20.722399682819422 3.7665763591401316 -0.66913059716165679 0 -0.74314483375859142 I I #
edge $-1 $508 11.404049815661542 $282 20.722399682819422 $403 $515 forward 7 unknown #
point $-1 -74.661702322458581 -20.722399682819422 16.187243034506409 #
point $-1 -63.478084093426283 -20.722399682819422 16.187243034506409 #
edge $-1 $516 1 $516 0 $285 $-1 forward 7 unknown #
vertex $-1 $286 $517 #
ellipse-curve $-1 -68.103965949732128 -18.858729709387845 9.1071849086792653 -0.74314483375859142 0 0.66913059716165679 0.3345652985808284 0 0.37157241687929571 1 I I #
point $-1 -68.735327909361644 -18.858729709387845 10.348482113702577 #
edge $-1 $518 1 $518 0 $289 $-1 forward 7 unknown #
vertex $-1 $290 $519 #
ellipse-curve $-1 -68.103965949732128 -16.063224749240479 9.1071849086792653 -0.74314483375859142 0 0.66913059716165679 0.3345652985808284 0 0.37157241687929571 1 I I #
point $-1 -68.735327909361644 -16.063224749240479 10.348482113702577 #
edge $-1 $520 1 $520 0 $293 $-1 forward 7 unknown #
vertex $-1 $294 $521 #
ellipse-curve $-1 -68.103965949732128 -13.267719789093114 9.1071849086792653 -0.74314483375859142 0 0.66913059716165679 0.3345652985808284 0 0.37157241687929571 1 I I #
point $-1 -68.735327909361644 -13.267719789093114 10.348482113702577 #
loop $-1 $-1 $305 $297 #
plane-surface $-1 -74.661702322458581 0 0 1 0 0 0 0 -1 forward_v I I I I #
coedge $-1 $426 $300 $302 $430 reversed $192 $-1 #
coedge $-1 $300 $425 $522 $523 reversed $192 $-1 #
coedge $-1 $308 $303 $300 $428 forward $298 $-1 #
edge $-1 $431 -29.337225428359908 $524 -18.15360719932761 $427 $525 forward 7 unknown #
coedge $-1 $302 $301 $434 $526 reversed $120 $-1 #
edge $-1 $527 -6.3839171522278943e-014 $431 16.713655415656291 $425 $528 forward 7 unknown #
vertex $-1 $304 $529 #
straight-curve $-1 -63.478084093426276 3.6398027149459118 16.187243034506409 0 1 0 I I #
coedge $-1 $522 $305 $308 $438 reversed $423 $-1 #
coedge $-1 $305 $522 $429 $526 forward $423 $-1 #
vertex $-1 $306 $530 #
straight-curve $-1 -74.661702322458581 2.6204304963128831 51.841717639702637 0 0 1 I I #
straight-curve $-1 -74.661702322458538 2.6204304963128831 3.7665763591401316 -0.66913059716165679 0 -0.74314483375859142 I I #
edge $-1 $524 -11.938780363470764 $309 -2.6204304963128831 $433 $531 forward 7 unknown #
point $-1 -74.661702322458581 2.6204304963128831 16.187243034506409 #
point $-1 -63.478084093426283 2.6204304963128831 16.187243034506409 #
edge $-1 $532 1 $532 0 $312 $-1 forward 7 unknown #
vertex $-1 $313 $533 #
ellipse-curve $-1 -68.103965949732128 4.4841004697444617 9.1071849086792653 -0.74314483375859142 0 0.66913059716165679 0.3345652985808284 0 0.37157241687929571 1 I I #
point $-1 -68.735327909361644 4.4841004697444617 10.348482113702577 #
edge $-1 $534 1 $534 0 $316 $-1 forward 7 unknown #
vertex $-1 $317 $535 #
ellipse-curve $-1 -68.103965949732128 7.2796054298918307 9.1071849086792653 -0.74314483375859142 0 0.66913059716165679 0.3345652985808284 0 0.37157241687929571 1 I I #
point $-1 -68.735327909361644 7.2796054298918307 10.348482113702577 #
edge $-1 $536 1 $536 0 $320 $-1 forward 7 unknown #
vertex $-1 $321 $537 #
ellipse-curve $-1 -68.103965949732128 10.075110390039193 9.1071849086792653 -0.74314483375859142 0 0.66913059716165679 0.3345652985808284 0 0.37157241687929571 1 I I #
point $-1 -68.735327909361644 10.075110390039193 10.348482113702577 #
plane-surface $-1 74.661702322458581 0 0 -1 0 0 0 0 1 forward_v I I I I #
coedge $-1 $329 $327 $331 $458 reversed $221 $-1 #
edge $-1 $342 -16.187243034506409 $460 16.187243034506409 $341 $538 forward 7 unknown #
vertex $-1 $458 $539 #
straight-curve $-1 -74.661702322458581 -41.684275290911273 0 0 0 -1 I I #
edge $-1 $456 -41.684275290911273 $460 41.684275290911273 $454 $540 forward 7 unknown #
straight-curve $-1 0 -41.684275290911273 -16.187243034506409 -1 0 0 I I #
vertex $-1 $334 $541 #
straight-curve $-1 0 41.684275290911273 -16.187243034506409 1 0 0 I I #
point $-1 74.661702322458581 41.684275290911273 -16.187243034506409 #
point $-1 74.661702322458581 -41.684275290911273 -16.187243034506409 #
straight-curve $-1 -74.661702322458581 0 16.187243034506409 0 -1 0 I I #
point $-1 -74.661702322458581 41.684275290911273 16.187243034506409 #
point $-1 -74.661702322458581 -41.684275290911273 16.187243034506409 #
straight-curve $-1 74.661702322458581 -41.684275290911273 0 0 0 -1 I I #
straight-curve $-1 74.661702322458581 41.684275290911273 0 0 0 -1 I I #
plane-surface $-1 -74.661702322458581 0 0 1 0 0 0 0 -1 forward_v I I I I #
coedge $-1 $472 $481 $476 $542 forward $352 $-1 #
coedge $-1 $355 $354 $543 $544 forward $147 $-1 #
coedge $-1 $543 $470 $356 $473 reversed $352 $-1 #
edge $-1 $474 -74.661702322458581 $477 74.661702322458581 $472 $545 forward 7 unknown #
vertex $-1 $544 $546 #
straight-curve $-1 74.661702322458581 0 -16.187243034506409 0 -1 0 I I #
coedge $-1 $364 $358 $470 $542 reversed $365 $-1 #
vertex $-1 $359 $547 #
straight-curve $-1 -74.661702322458581 0 -16.187243034506409 0 1 0 I I #
point $-1 -74.661702322458581 -41.684275290911273 -16.187243034506409 #
point $-1 74.661702322458581 -41.684275290911273 -16.187243034506409 #
coedge $-1 $470 $543 $367 $482 reversed $352 $-1 #
edge $-1 $483 -74.661702322458581 $485 74.661702322458581 $481 $548 forward 7 unknown #
vertex $-1 $368 $549 #
straight-curve $-1 -74.661702322458581 -50.854997846800757 -7.7190133324005723 0 -1 0 I I #
vertex $-1 $369 $550 #
straight-curve $-1 74.661702322458581 -50.854997846800757 -7.7190133324005723 0 1 0 I I #
plane-surface $-1 74.661702322458581 0 0 -1 0 0 0 0 1 forward_v I I I I #
coedge $-1 $495 $375 $499 $551 reversed $256 $-1 #
coedge $-1 $375 $495 $376 $492 reversed $256 $-1 #
coedge $-1 $377 $387 $375 $491 reversed $388 $-1 #
edge $-1 $493 -4.2341148510529178 $552 4.2341148510529187 $490 $553 forward 7 unknown #
edge $-1 $493 -74.661702322458581 $497 74.661702322458581 $489 $554 forward 7 unknown #
vertex $-1 $378 $555 #
straight-curve $-1 74.661702322458581 50.854997846800757 -7.7190133324005723 0 1 0 I I #
coedge $-1 $489 $488 $379 $496 reversed $256 $-1 #
edge $-1 $497 -4.2341148510529178 $500 4.2341148510529187 $495 $556 forward 7 unknown #
vertex $-1 $492 $557 #
straight-curve $-1 -74.661702322458581 50.854997846800757 -7.7190133324005723 0 -1 0 I I #
coedge $-1 $503 $381 $488 $551 forward $373 $-1 #
vertex $-1 $551 $558 #
straight-curve $-1 -74.661702322458581 50.854997846800757 -16.187243034506409 0 1 0 I I #
point $-1 -74.661702322458581 41.684275290911273 -16.187243034506409 #
coedge $-1 $385 $499 $387 $505 forward $373 $-1 #
straight-curve $-1 0 41.684275290911273 -16.187243034506409 -1 0 0 I I #
edge $-1 $552 -60.02572040269024 $389 -41.684275290911273 $387 $559 forward 7 unknown #
point $-1 74.661702322458581 41.684275290911273 -16.187243034506409 #
edge $-1 $508 35.654474605196228 $511 48.075141280562555 $394 $560 forward 7 unknown #
vertex $-1 $408 $561 #
straight-curve $-1 -92.81530952178619 -11.404049815661542 16.187243034506409 -1 0 0 I I #
edge $-1 $511 3.3724374410413009 $405 12.69078730819918 $404 $562 forward 7 unknown #
vertex $-1 $510 $563 #
straight-curve $-1 -74.661702322458538 -11.404049815661542 3.7665763591401316 0.66913059716165679 0 0.74314483375859142 I I #
point $-1 -63.478084093426283 -11.404049815661542 16.187243034506409 #
point $-1 -74.661702322458581 -20.722399682819422 3.766576359140084 #
straight-curve $-1 -74.661702322458581 0 16.187243034506409 0 -1 0 I I #
vertex $-1 $411 $564 #
point $-1 -67.769400651151301 -18.858729709387845 9.4787573255585613 #
vertex $-1 $415 $565 #
point $-1 -67.769400651151301 -16.063224749240479 9.4787573255585613 #
vertex $-1 $419 $566 #
point $-1 -67.769400651151301 -13.267719789093114 9.4787573255585613 #
coedge $-1 $434 $433 $426 $523 forward $423 $-1 #
edge $-1 $524 35.654474605196228 $527 48.075141280562555 $522 $567 forward 7 unknown #
vertex $-1 $438 $568 #
straight-curve $-1 -92.81530952178619 11.938780363470764 16.187243034506409 -1 0 0 I I #
edge $-1 $527 -8.2989776485248523 $435 1.0193722186330287 $434 $569 forward 7 unknown #
vertex $-1 $526 $570 #
straight-curve $-1 -74.661702322458538 11.938780363470764 3.7665763591401316 0.66913059716165679 0 0.74314483375859142 I I #
point $-1 -63.478084093426283 11.938780363470764 16.187243034506409 #
point $-1 -74.661702322458581 2.6204304963128831 3.766576359140084 #
straight-curve $-1 -74.661702322458581 0 16.187243034506409 0 -1 0 I I #
vertex $-1 $441 $571 #
point $-1 -67.769400651151301 4.4841004697444617 9.4787573255585613 #
vertex $-1 $445 $572 #
point $-1 -67.769400651151301 7.2796054298918307 9.4787573255585613 #
vertex $-1 $449 $573 #
point $-1 -67.769400651151301 10.075110390039193 9.4787573255585613 #
straight-curve $-1 -74.661702322458581 41.684275290911273 0 0 0 -1 I I #
point $-1 -74.661702322458581 -41.684275290911273 -16.187243034506409 #
straight-curve $-1 -74.661702322458581 0 -16.187243034506409 0 1 0 I I #
point $-1 -74.661702322458581 41.684275290911273 -16.187243034506409 #
edge $-1 $483 -4.2341148510529178 $477 4.2341148510529187 $476 $574 forward 7 unknown #
coedge $-1 $481 $472 $471 $544 reversed $352 $-1 #
edge $-1 $485 -4.2341148510529178 $474 4.2341148510529187 $471 $575 forward 7 unknown #
straight-curve $-1 0 -60.02572040269024 -16.187243034506409 -1 0 0 I I #
point $-1 74.661702322458581 -60.02572040269024 -16.187243034506409 #
point $-1 -74.661702322458581 -60.02572040269024 -16.187243034506409 #
straight-curve $-1 0 -60.02572040269024 -7.7190133324005723 1 0 0 I I #
point $-1 -74.661702322458581 -60.02572040269024 -7.7190133324005723 #
point $-1 74.661702322458581 -60.02572040269024 -7.7190133324005723 #
edge $-1 $500 -74.661702322458581 $552 74.661702322458581 $488 $576 forward 7 unknown #
vertex $-1 $505 $577 #
straight-curve $-1 74.661702322458581 60.02572040269024 -11.95312818345349 0 0 -1 I I #
straight-curve $-1 0 60.02572040269024 -7.7190133324005723 -1 0 0 I I #
point $-1 74.661702322458581 60.02572040269024 -7.7190133324005723 #
straight-curve $-1 -74.661702322458581 60.02572040269024 -11.95312818345349 0 0 -1 I I #
point $-1 -74.661702322458581 60.02572040269024 -7.7190133324005723 #
point $-1 -74.661702322458581 60.02572040269024 -16.187243034506409 #
straight-curve $-1 74.661702322458581 0 -16.187243034506409 0 -1 0 I I #
straight-curve $-1 -74.661702322458581 -11.404049815661542 51.841717639702637 0 0 -1 I I #
point $-1 -74.661702322458581 -11.404049815661542 16.187243034506409 #
straight-curve $-1 -74.661702322458581 -8.0316123746202415 3.7665763591400698 0 -1 0 I I #
point $-1 -74.661702322458581 -11.404049815661542 3.766576359140084 #
point $-1 -67.732393532852825 -18.858729709387845 8.7726196100984382 #
point $-1 -67.732393532852825 -16.063224749240479 8.7726196100984382 #
point $-1 -67.732393532852825 -13.267719789093114 8.7726196100984382 #
straight-curve $-1 -74.661702322458581 11.938780363470764 51.841717639702637 0 0 -1 I I #
point $-1 -74.661702322458581 11.938780363470764 16.187243034506409 #
straight-curve $-1 -74.661702322458581 3.6398027149459118 3.7665763591400698 0 -1 0 I I #
point $-1 -74.661702322458581 11.938780363470764 3.766576359140084 #
point $-1 -67.732393532852825 4.4841004697444617 8.7726196100984382 #
point $-1 -67.732393532852825 7.2796054298918307 8.7726196100984382 #
point $-1 -67.732393532852825 10.075110390039193 8.7726196100984382 #
straight-curve $-1 -74.661702322458581 -60.02572040269024 -11.95312818345349 0 0 -1 I I #
straight-curve $-1 74.661702322458581 -60.02572040269024 -11.95312818345349 0 0 -1 I I #
straight-curve $-1 0 60.02572040269024 -16.187243034506409 1 0 0 I I #
point $-1 74.661702322458581 60.02572040269024 -16.187243034506409 #
End-of-ACIS-data 