500 0 8 0           
7 Unknown 11 ACIS 5.0 NT 24 Fri Mar 26 19:32:15 1999 
-1 9.9999999999999995e-007 1e-010 
body $-1 $8 $-1 $9 #
body $-1 $10 $-1 $11 #
body $-1 $12 $-1 $13 #
body $-1 $14 $-1 $15 #
body $-1 $16 $-1 $17 #
body $-1 $18 $-1 $19 #
body $-1 $20 $-1 $21 #
body $-1 $22 $-1 $23 #
lump $-1 $-1 $24 $0 #
transform $-1 1 0 0 0 1 0 0 0 1 76.265755180516976 32.280568412552512 15.86719928657169 1 rotate no_reflect no_shear #
lump $-1 $-1 $25 $1 #
transform $-1 1 0 0 0 1 0 0 0 1 76.265755180516976 32.280568412552512 15.86719928657169 1 rotate no_reflect no_shear #
lump $-1 $-1 $26 $2 #
transform $-1 1 0 0 0 1 0 0 0 1 76.265755180516976 32.280568412552512 15.86719928657169 1 rotate no_reflect no_shear #
lump $-1 $-1 $27 $3 #
transform $-1 1 0 0 0 1 0 0 0 1 76.265755180516976 32.280568412552512 15.86719928657169 1 rotate no_reflect no_shear #
lump $-1 $-1 $28 $4 #
transform $-1 1 0 0 0 1 0 0 0 1 76.265755180516976 32.280568412552512 15.86719928657169 1 rotate no_reflect no_shear #
lump $-1 $-1 $29 $5 #
transform $-1 1 0 0 0 1 0 0 0 1 76.265755180516976 32.280568412552512 15.86719928657169 1 rotate no_reflect no_shear #
lump $-1 $-1 $30 $6 #
transform $-1 1 0 0 0 1 0 0 0 1 76.265755180516976 32.280568412552512 15.86719928657169 1 rotate no_reflect no_shear #
lump $-1 $-1 $31 $7 #
transform $-1 1 0 0 0 1 0 0 0 1 76.265755180516976 32.280568412552512 15.86719928657169 1 rotate no_reflect no_shear #
shell $-1 $-1 $-1 $32 $-1 $8 #
shell $-1 $-1 $-1 $33 $-1 $10 #
shell $-1 $-1 $-1 $34 $-1 $12 #
shell $-1 $-1 $-1 $35 $-1 $14 #
shell $-1 $-1 $-1 $36 $-1 $16 #
shell $-1 $-1 $-1 $37 $-1 $18 #
shell $-1 $-1 $-1 $38 $-1 $20 #
shell $-1 $-1 $-1 $39 $-1 $22 #
face $-1 $40 $41 $24 $-1 $42 forward single #
face $-1 $43 $44 $25 $-1 $45 reversed single #
face $-1 $46 $47 $26 $-1 $48 forward single #
face $-1 $49 $50 $27 $-1 $51 forward single #
face $-1 $52 $53 $28 $-1 $54 reversed single #
face $-1 $55 $56 $29 $-1 $57 forward single #
face $-1 $58 $59 $30 $-1 $60 forward single #
face $-1 $61 $62 $31 $-1 $63 forward single #
face $-1 $64 $65 $24 $-1 $66 reversed single #
loop $-1 $-1 $67 $32 #
plane-surface $-1 0 0 15.86719928657169 0 0 1 1 0 0 forward_v I I I I #
face $-1 $68 $69 $25 $-1 $70 reversed single #
loop $-1 $-1 $71 $33 #
plane-surface $-1 98.813815525678933 12.162757001402694 223.38986490121323 0 -1 0 -0.77714596973225614 0 -0.62932038083071107 forward_v I I I I #
face $-1 $72 $73 $26 $-1 $74 forward single #
loop $-1 $75 $76 $34 #
cone-surface $-1 71.167201240021967 0.56903271757330032 10.532259730707146 -0.77714596973225614 0 -0.62932038083071107 1.2586407616614221 0 -1.5542919394645123 1 I I 0 1 2 forward I I I I #
face $-1 $77 $78 $27 $-1 $79 forward single #
loop $-1 $80 $81 $35 #
cone-surface $-1 71.167201240021967 7.5252672878709319 10.532259730707146 -0.77714596973225614 0 -0.62932038083071107 1.2586407616614221 0 -1.5542919394645123 1 I I 0 1 2 forward I I I I #
face $-1 $82 $83 $28 $-1 $84 reversed single #
loop $-1 $-1 $85 $36 #
plane-surface $-1 -193.11167235710565 -22.884575663716205 109.13565068838355 0 1 0 -0.7660444514056185 0 0.64278759981090561 forward_v I I I I #
face $-1 $86 $87 $29 $-1 $88 forward single #
loop $-1 $89 $90 $37 #
cone-surface $-1 -72.909551862135672 -20.002761340063294 12.34423796433491 0.7660444514056185 0 -0.64278759981090561 0.64278759981090561 0 0.7660444514056185 1 I I 0 1 1 forward I I I I #
face $-1 $91 $92 $30 $-1 $93 forward single #
loop $-1 $94 $95 $38 #
cone-surface $-1 -72.909551862135672 -15.680039854583917 12.34423796433491 0.7660444514056185 0 -0.64278759981090561 0.64278759981090561 0 0.7660444514056185 1 I I 0 1 1 forward I I I I #
face $-1 $96 $97 $31 $-1 $98 forward single #
loop $-1 $99 $100 $39 #
cone-surface $-1 -72.909551862135672 -11.357318369104544 12.34423796433491 0.7660444514056185 0 -0.64278759981090561 0.64278759981090561 0 0.7660444514056185 1 I I 0 1 1 forward I I I I #
face $-1 $101 $102 $24 $-1 $103 reversed single #
loop $-1 $-1 $104 $40 #
plane-surface $-1 0 0 -15.86719928657169 0 0 1 1 0 0 forward_v I I I I #
coedge $-1 $105 $106 $107 $108 forward $41 $-1 #
face $-1 $109 $110 $25 $-1 $111 reversed single #
loop $-1 $-1 $112 $43 #
plane-surface $-1 -19.725433008572466 4.0471500027221197 127.39867671212379 0.77714596973225614 0 0.62932038083071107 0.62932038083071107 0 -0.77714596973225614 forward_v I I I I #
coedge $-1 $113 $114 $115 $116 reversed $44 $-1 #
face $-1 $-1 $117 $26 $-1 $118 forward single #
loop $-1 $119 $120 $46 #
cone-surface $-1 68.128891829561724 0.56903271757330032 8.0718853483615476 -0.77714596973225614 0 -0.62932038083071107 0.62932038083071107 0 -0.77714596973225614 1 I I -0.70710678118654746 0.70710678118654746 1 forward I I I I #
loop $-1 $-1 $121 $34 #
coedge $-1 $76 $76 $122 $123 reversed $47 $-1 #
face $-1 $-1 $124 $27 $-1 $125 forward single #
loop $-1 $126 $127 $49 #
cone-surface $-1 68.128891829561724 7.5252672878709319 8.0718853483615476 -0.77714596973225614 0 -0.62932038083071107 0.62932038083071107 0 -0.77714596973225614 1 I I -0.70710678118654746 0.70710678118654746 1 forward I I I I #
loop $-1 $-1 $128 $35 #
coedge $-1 $81 $81 $129 $130 reversed $50 $-1 #
face $-1 $131 $132 $28 $-1 $133 reversed single #
loop $-1 $-1 $134 $52 #
plane-surface $-1 -76.265755180516976 -15.680039854583917 11.090287247882259 -0.7660444514056185 0 0.64278759981090561 0.64278759981090561 0 0.7660444514056185 forward_v I I I I #
coedge $-1 $135 $136 $137 $138 reversed $53 $-1 #
face $-1 $-1 $139 $29 $-1 $140 forward single #
loop $-1 $141 $142 $55 #
cone-surface $-1 -71.174478830495758 -20.002761340063294 10.888338861537399 0.7660444514056185 0 -0.64278759981090561 0.3213937999054528 0 0.38302222570280925 1 I I -0.70710678118654746 0.70710678118654746 0.5 forward I I I I #
loop $-1 $-1 $143 $37 #
coedge $-1 $90 $90 $144 $145 reversed $56 $-1 #
face $-1 $-1 $146 $30 $-1 $147 forward single #
loop $-1 $148 $149 $58 #
cone-surface $-1 -71.174478830495758 -15.680039854583917 10.888338861537399 0.7660444514056185 0 -0.64278759981090561 0.3213937999054528 0 0.38302222570280925 1 I I -0.70710678118654746 0.70710678118654746 0.5 forward I I I I #
loop $-1 $-1 $150 $38 #
coedge $-1 $95 $95 $151 $152 reversed $59 $-1 #
face $-1 $-1 $153 $31 $-1 $154 forward single #
loop $-1 $155 $156 $61 #
cone-surface $-1 -71.174478830495758 -11.357318369104544 10.888338861537399 0.7660444514056185 0 -0.64278759981090561 0.3213937999054528 0 0.38302222570280925 1 I I -0.70710678118654746 0.70710678118654746 0.5 forward I I I I #
loop $-1 $-1 $157 $39 #
coedge $-1 $100 $100 $158 $159 reversed $62 $-1 #
face $-1 $160 $161 $24 $-1 $162 reversed single #
loop $-1 $-1 $163 $64 #
plane-surface $-1 0 -32.280568412552512 0 0 1 0 0 0 1 forward_v I I I I #
coedge $-1 $164 $165 $166 $167 forward $65 $-1 #
coedge $-1 $168 $67 $169 $170 forward $41 $-1 #
coedge $-1 $67 $168 $171 $172 forward $41 $-1 #
coedge $-1 $173 $174 $67 $108 reversed $175 $-1 #
edge $-1 $176 -32.280568412552512 $177 32.280568412552512 $107 $178 forward 7 unknown #
face $-1 $179 $180 $25 $-1 $181 forward single #
loop $-1 $-1 $182 $68 #
plane-surface $-1 98.813815525678933 -4.0684569959584547 223.38986490121323 0 1 0 0.77714596973225614 0 0.62932038083071107 forward_v I I I I #
coedge $-1 $183 $184 $185 $186 reversed $69 $-1 #
coedge $-1 $114 $71 $187 $188 reversed $44 $-1 #
coedge $-1 $71 $113 $183 $189 reversed $44 $-1 #
coedge $-1 $185 $190 $71 $116 forward $180 $-1 #
edge $-1 $191 -26.858847417677509 $192 -21.184066418143416 $115 $193 forward 7 unknown #
loop $-1 $-1 $122 $72 #
plane-surface $-1 -19.725433008572466 4.0471500027221197 127.39867671212379 0.77714596973225614 0 0.62932038083071107 0.62932038083071107 0 -0.77714596973225614 forward_v I I I I #
loop $-1 $-1 $194 $46 #
coedge $-1 $120 $120 $121 $195 reversed $73 $-1 #
coedge $-1 $121 $121 $120 $195 forward $75 $-1 #
coedge $-1 $122 $122 $76 $123 forward $117 $-1 #
edge $-1 $196 0 $196 6.2831853071796004 $122 $197 forward 7 unknown #
loop $-1 $-1 $129 $77 #
plane-surface $-1 -19.725433008572466 4.0471500027221197 127.39867671212379 0.77714596973225614 0 0.62932038083071107 0.62932038083071107 0 -0.77714596973225614 forward_v I I I I #
loop $-1 $-1 $198 $49 #
coedge $-1 $127 $127 $128 $199 reversed $78 $-1 #
coedge $-1 $128 $128 $127 $199 forward $80 $-1 #
coedge $-1 $129 $129 $81 $130 forward $124 $-1 #
edge $-1 $200 0 $200 6.2831853071796004 $129 $201 forward 7 unknown #
face $-1 $202 $203 $28 $-1 $204 reversed single #
loop $-1 $-1 $205 $82 #
plane-surface $-1 -193.11167235710565 -8.4755040454516273 109.13565068838355 0 -1 0 0.7660444514056185 0 -0.64278759981090561 forward_v I I I I #
coedge $-1 $206 $207 $208 $209 reversed $83 $-1 #
coedge $-1 $136 $85 $210 $211 reversed $53 $-1 #
coedge $-1 $85 $135 $206 $212 reversed $53 $-1 #
coedge $-1 $208 $213 $85 $138 forward $214 $-1 #
edge $-1 $215 20.290080998035847 $216 24.29838602292422 $137 $217 forward 7 unknown #
loop $-1 $-1 $144 $86 #
plane-surface $-1 -76.265755180516976 -15.680039854583917 11.090287247882259 -0.7660444514056185 0 0.64278759981090561 0.64278759981090561 0 0.7660444514056185 forward_v I I I I #
loop $-1 $-1 $218 $55 #
coedge $-1 $142 $142 $143 $219 reversed $87 $-1 #
coedge $-1 $143 $143 $142 $219 forward $89 $-1 #
coedge $-1 $144 $144 $90 $145 forward $139 $-1 #
edge $-1 $220 0 $220 6.2831853071796004 $144 $221 forward 7 unknown #
loop $-1 $-1 $151 $91 #
plane-surface $-1 -76.265755180516976 -15.680039854583917 11.090287247882259 -0.7660444514056185 0 0.64278759981090561 0.64278759981090561 0 0.7660444514056185 forward_v I I I I #
loop $-1 $-1 $222 $58 #
coedge $-1 $149 $149 $150 $223 reversed $92 $-1 #
coedge $-1 $150 $150 $149 $223 forward $94 $-1 #
coedge $-1 $151 $151 $95 $152 forward $146 $-1 #
edge $-1 $224 0 $224 6.2831853071796004 $151 $225 forward 7 unknown #
loop $-1 $-1 $158 $96 #
plane-surface $-1 -76.265755180516976 -15.680039854583917 11.090287247882259 -0.7660444514056185 0 0.64278759981090561 0.64278759981090561 0 0.7660444514056185 forward_v I I I I #
loop $-1 $-1 $226 $61 #
coedge $-1 $156 $156 $157 $227 reversed $97 $-1 #
coedge $-1 $157 $157 $156 $227 forward $99 $-1 #
coedge $-1 $158 $158 $100 $159 forward $153 $-1 #
edge $-1 $228 0 $228 6.2831853071796004 $158 $229 forward 7 unknown #
face $-1 $230 $231 $24 $-1 $232 reversed single #
loop $-1 $-1 $233 $101 #
plane-surface $-1 -76.265755180516976 0 0 1 0 0 0 0 -1 forward_v I I I I #
coedge $-1 $234 $171 $235 $236 forward $102 $-1 #
coedge $-1 $237 $104 $234 $238 forward $65 $-1 #
coedge $-1 $104 $237 $239 $240 forward $65 $-1 #
coedge $-1 $174 $173 $104 $167 reversed $175 $-1 #
edge $-1 $241 -32.280568412552512 $242 32.280568412552512 $166 $243 forward 7 unknown #
coedge $-1 $106 $105 $244 $245 forward $41 $-1 #
coedge $-1 $246 $247 $105 $170 reversed $231 $-1 #
edge $-1 $177 -76.265755180516976 $248 76.265755180516976 $169 $249 forward 7 unknown #
coedge $-1 $163 $250 $106 $172 reversed $102 $-1 #
edge $-1 $251 -76.265755180516976 $176 76.265755180516976 $171 $252 forward 7 unknown #
coedge $-1 $166 $107 $250 $253 forward $175 $-1 #
coedge $-1 $107 $166 $246 $254 reversed $175 $-1 #
loop $-1 $-1 $173 $230 #
vertex $-1 $108 $255 #
vertex $-1 $108 $256 #
straight-curve $-1 76.265755180516976 0 15.86719928657169 0 1 0 I I #
face $-1 $-1 $257 $25 $-1 $258 reversed single #
loop $-1 $-1 $115 $109 #
plane-surface $-1 0 0 15.86719928657169 0 0 1 1 0 0 forward_v I I I I #
coedge $-1 $259 $260 $261 $262 reversed $110 $-1 #
coedge $-1 $263 $112 $114 $189 forward $69 $-1 #
coedge $-1 $112 $263 $259 $264 forward $69 $-1 #
coedge $-1 $261 $115 $112 $186 forward $180 $-1 #
edge $-1 $192 -10.139182000041634 $265 6.0920319973195145 $185 $266 forward 7 unknown #
coedge $-1 $267 $268 $113 $188 forward $257 $-1 #
edge $-1 $269 -102.83550427273423 $191 -95.827733164034925 $187 $270 forward 7 unknown #
edge $-1 $192 143.51419394734447 $269 152.53151036103395 $114 $271 forward 7 unknown #
coedge $-1 $115 $261 $267 $272 forward $180 $-1 #
vertex $-1 $188 $273 #
vertex $-1 $116 $274 #
straight-curve $-1 49.406907762839467 12.162757001402694 15.86719928657169 -1 0 0 I I #
coedge $-1 $194 $194 $-1 $275 reversed $119 $-1 #
edge $-1 $276 0 $276 6.2831853071796004 $120 $277 forward 7 unknown #
vertex $-1 $123 $278 #
ellipse-curve $-1 73.428364680749937 0.56903271757330032 12.363313732222027 0.77714596973225614 0 0.62932038083071107 1.2586407616614221 0 -1.5542919394645123 1 I I #
coedge $-1 $198 $198 $-1 $279 reversed $126 $-1 #
edge $-1 $280 0 $280 6.2831853071796004 $127 $281 forward 7 unknown #
vertex $-1 $130 $282 #
ellipse-curve $-1 73.428364680749937 7.5252672878709319 12.363313732222027 0.77714596973225614 0 0.62932038083071107 1.2586407616614221 0 -1.5542919394645123 1 I I #
face $-1 $-1 $214 $28 $-1 $283 forward single #
loop $-1 $-1 $284 $131 #
plane-surface $-1 -76.265755180516976 0 0 1 0 0 0 0 -1 forward_v I I I I #
coedge $-1 $285 $286 $287 $288 reversed $132 $-1 #
coedge $-1 $289 $134 $136 $212 forward $83 $-1 #
coedge $-1 $134 $289 $285 $290 forward $83 $-1 #
coedge $-1 $287 $137 $134 $209 forward $214 $-1 #
edge $-1 $216 -15.044555736424247 $291 -0.63548411815966865 $208 $292 forward 7 unknown #
coedge $-1 $293 $294 $135 $211 forward $203 $-1 #
edge $-1 $295 -43.477538096309516 $215 -38.700626057620084 $210 $296 forward 7 unknown #
edge $-1 $216 -6.2358157283487312 $295 0 $136 $297 forward 7 unknown #
coedge $-1 $137 $287 $293 $298 forward $214 $-1 #
loop $-1 $-1 $287 $202 #
vertex $-1 $211 $299 #
vertex $-1 $138 $300 #
straight-curve $-1 -96.555836178552823 -22.884575663716205 15.86719928657169 1 0 0 I I #
coedge $-1 $218 $218 $-1 $301 reversed $141 $-1 #
edge $-1 $302 0 $302 6.2831853071796004 $142 $303 forward 7 unknown #
vertex $-1 $145 $304 #
ellipse-curve $-1 -74.261602668072783 -20.002761340063294 13.478743267226976 -0.7660444514056185 0 0.64278759981090561 0.64278759981090561 0 0.7660444514056185 1 I I #
coedge $-1 $222 $222 $-1 $305 reversed $148 $-1 #
edge $-1 $306 0 $306 6.2831853071796004 $149 $307 forward 7 unknown #
vertex $-1 $152 $308 #
ellipse-curve $-1 -74.261602668072783 -15.680039854583917 13.478743267226976 -0.7660444514056185 0 0.64278759981090561 0.64278759981090561 0 0.7660444514056185 1 I I #
coedge $-1 $226 $226 $-1 $309 reversed $155 $-1 #
edge $-1 $310 0 $310 6.2831853071796004 $156 $311 forward 7 unknown #
vertex $-1 $159 $312 #
ellipse-curve $-1 -74.261602668072783 -11.357318369104544 13.478743267226976 -0.7660444514056185 0 0.64278759981090561 0.64278759981090561 0 0.7660444514056185 1 I I #
face $-1 $-1 $175 $24 $-1 $313 reversed single #
loop $-1 $-1 $246 $160 #
plane-surface $-1 0 32.280568412552512 0 0 -1 0 0 0 -1 forward_v I I I I #
coedge $-1 $314 $244 $247 $315 forward $161 $-1 #
coedge $-1 $250 $163 $164 $238 reversed $102 $-1 #
coedge $-1 $244 $314 $163 $236 reversed $161 $-1 #
edge $-1 $251 -15.86719928657169 $316 15.86719928657169 $235 $317 forward 7 unknown #
coedge $-1 $165 $164 $314 $318 forward $65 $-1 #
edge $-1 $242 -76.265755180516976 $316 76.265755180516976 $234 $319 forward 7 unknown #
coedge $-1 $247 $246 $165 $240 reversed $231 $-1 #
edge $-1 $320 -76.265755180516976 $241 76.265755180516976 $239 $321 forward 7 unknown #
vertex $-1 $167 $322 #
vertex $-1 $253 $323 #
straight-curve $-1 76.265755180516976 0 -15.86719928657169 0 -1 0 I I #
coedge $-1 $233 $235 $168 $245 reversed $161 $-1 #
edge $-1 $248 -32.280568412552512 $251 32.280568412552512 $244 $324 forward 7 unknown #
coedge $-1 $239 $169 $174 $254 forward $231 $-1 #
coedge $-1 $169 $239 $233 $315 reversed $231 $-1 #
vertex $-1 $170 $325 #
straight-curve $-1 0 32.280568412552512 15.86719928657169 -1 0 0 I I #
coedge $-1 $171 $234 $173 $253 reversed $102 $-1 #
vertex $-1 $245 $326 #
straight-curve $-1 0 -32.280568412552512 15.86719928657169 1 0 0 I I #
edge $-1 $176 -15.86719928657169 $242 15.86719928657169 $173 $327 forward 7 unknown #
edge $-1 $177 -15.86719928657169 $241 15.86719928657169 $174 $328 forward 7 unknown #
point $-1 76.265755180516976 -32.280568412552512 15.86719928657169 #
point $-1 76.265755180516976 32.280568412552512 15.86719928657169 #
loop $-1 $-1 $187 $179 #
plane-surface $-1 76.265755180516976 0 0 -1 0 0 0 0 1 forward_v I I I I #
coedge $-1 $260 $182 $184 $264 reversed $110 $-1 #
coedge $-1 $182 $259 $329 $330 reversed $110 $-1 #
coedge $-1 $190 $185 $182 $262 forward $180 $-1 #
edge $-1 $265 21.184066418143416 $331 26.858847417677509 $261 $332 forward 7 unknown #
coedge $-1 $184 $183 $268 $333 reversed $69 $-1 #
edge $-1 $334 -152.53151036103395 $265 -143.51419394734447 $259 $335 forward 7 unknown #
vertex $-1 $186 $336 #
straight-curve $-1 70.590974180982883 2.0235750013610598 15.86719928657169 0 -1 0 I I #
coedge $-1 $329 $187 $190 $272 reversed $257 $-1 #
coedge $-1 $187 $329 $263 $333 forward $257 $-1 #
vertex $-1 $188 $337 #
straight-curve $-1 76.265755180516976 12.162757001402694 111.69493245060661 0 0 1 I I #
straight-curve $-1 -19.725433008572466 12.162757001402694 127.39867671212379 0.62932038083071107 0 -0.77714596973225614 I I #
edge $-1 $331 -4.0684569959584547 $191 12.162757001402694 $267 $338 forward 7 unknown #
point $-1 76.265755180516976 12.162757001402694 15.86719928657169 #
point $-1 70.590974180982883 12.162757001402694 15.86719928657169 #
edge $-1 $339 1 $339 0 $194 $-1 forward 7 unknown #
vertex $-1 $195 $340 #
ellipse-curve $-1 68.906037799293983 0.56903271757330032 8.7012057291922584 0.77714596973225614 0 0.62932038083071107 1.2586407616614221 0 -1.5542919394645123 1 I I #
point $-1 74.687005442411362 0.56903271757330032 10.80902179275752 #
edge $-1 $341 1 $341 0 $198 $-1 forward 7 unknown #
vertex $-1 $199 $342 #
ellipse-curve $-1 68.906037799293983 7.5252672878709319 8.7012057291922584 0.77714596973225614 0 0.62932038083071107 1.2586407616614221 0 -1.5542919394645123 1 I I #
point $-1 74.687005442411362 7.5252672878709319 10.80902179275752 #
plane-surface $-1 0 0 15.86719928657169 0 0 1 1 0 0 forward_v I I I I #
coedge $-1 $294 $293 $286 $343 forward $203 $-1 #
coedge $-1 $286 $205 $207 $290 reversed $132 $-1 #
coedge $-1 $205 $285 $284 $343 reversed $132 $-1 #
coedge $-1 $213 $208 $205 $288 forward $214 $-1 #
edge $-1 $291 -24.29838602292422 $344 -20.290080998035847 $287 $345 forward 7 unknown #
coedge $-1 $207 $206 $294 $346 reversed $83 $-1 #
edge $-1 $347 0 $291 6.2358157283487312 $285 $348 forward 7 unknown #
vertex $-1 $209 $349 #
straight-curve $-1 -72.257450155628604 -7.8400199272919586 15.86719928657169 0 1 0 I I #
coedge $-1 $284 $210 $213 $298 reversed $203 $-1 #
coedge $-1 $210 $284 $289 $346 forward $203 $-1 #
vertex $-1 $211 $350 #
straight-curve $-1 -76.265755180516976 -22.884575663716205 54.567825344191775 0 0 1 I I #
straight-curve $-1 -76.265755180516976 -22.884575663716205 11.090287247882259 -0.64278759981090561 0 -0.7660444514056185 I I #
edge $-1 $344 8.4755040454516273 $215 22.884575663716205 $293 $351 forward 7 unknown #
point $-1 -76.265755180516976 -22.884575663716205 15.86719928657169 #
point $-1 -72.257450155628604 -22.884575663716205 15.86719928657169 #
edge $-1 $352 1 $352 0 $218 $-1 forward 7 unknown #
vertex $-1 $219 $353 #
ellipse-curve $-1 -71.557501056198561 -20.002761340063294 11.209732661442851 -0.7660444514056185 0 0.64278759981090561 0.64278759981090561 0 0.7660444514056185 1 I I #
point $-1 -73.618815068261867 -20.002761340063294 14.244787718632589 #
edge $-1 $354 1 $354 0 $222 $-1 forward 7 unknown #
vertex $-1 $223 $355 #
ellipse-curve $-1 -71.557501056198561 -15.680039854583917 11.209732661442851 -0.7660444514056185 0 0.64278759981090561 0.64278759981090561 0 0.7660444514056185 1 I I #
point $-1 -73.618815068261867 -15.680039854583917 14.244787718632589 #
edge $-1 $356 1 $356 0 $226 $-1 forward 7 unknown #
vertex $-1 $227 $357 #
ellipse-curve $-1 -71.557501056198561 -11.357318369104544 11.209732661442851 -0.7660444514056185 0 0.64278759981090561 0.64278759981090561 0 0.7660444514056185 1 I I #
point $-1 -73.618815068261867 -11.357318369104544 14.244787718632589 #
plane-surface $-1 76.265755180516976 0 0 -1 0 0 0 0 1 forward_v I I I I #
coedge $-1 $235 $233 $237 $318 reversed $161 $-1 #
edge $-1 $248 -15.86719928657169 $320 15.86719928657169 $247 $358 forward 7 unknown #
vertex $-1 $318 $359 #
straight-curve $-1 -76.265755180516976 -32.280568412552512 0 0 0 -1 I I #
edge $-1 $316 -32.280568412552512 $320 32.280568412552512 $314 $360 forward 7 unknown #
straight-curve $-1 0 -32.280568412552512 -15.86719928657169 -1 0 0 I I #
vertex $-1 $240 $361 #
straight-curve $-1 0 32.280568412552512 -15.86719928657169 1 0 0 I I #
point $-1 76.265755180516976 32.280568412552512 -15.86719928657169 #
point $-1 76.265755180516976 -32.280568412552512 -15.86719928657169 #
straight-curve $-1 -76.265755180516976 0 15.86719928657169 0 -1 0 I I #
point $-1 -76.265755180516976 32.280568412552512 15.86719928657169 #
point $-1 -76.265755180516976 -32.280568412552512 15.86719928657169 #
straight-curve $-1 76.265755180516976 -32.280568412552512 0 0 0 -1 I I #
straight-curve $-1 76.265755180516976 32.280568412552512 0 0 0 -1 I I #
coedge $-1 $268 $267 $260 $330 forward $257 $-1 #
edge $-1 $331 95.827733164034925 $334 102.83550427273423 $329 $362 forward 7 unknown #
vertex $-1 $272 $363 #
straight-curve $-1 49.406907762839467 -4.0684569959584547 15.86719928657169 1 0 0 I I #
edge $-1 $334 -6.0920319973195145 $269 10.139182000041634 $268 $364 forward 7 unknown #
vertex $-1 $333 $365 #
straight-curve $-1 -19.725433008572466 -4.0684569959584547 127.39867671212379 -0.62932038083071107 0 0.77714596973225614 I I #
point $-1 70.590974180982883 -4.0684569959584547 15.86719928657169 #
point $-1 76.265755180516976 12.162757001402694 8.8594281778723882 #
straight-curve $-1 76.265755180516976 0 15.86719928657169 0 1 0 I I #
vertex $-1 $275 $366 #
point $-1 70.164678560955409 0.56903271757330032 7.1469137897277459 #
vertex $-1 $279 $367 #
point $-1 70.164678560955409 7.5252672878709319 7.1469137897277459 #
edge $-1 $344 38.700626057620084 $347 43.477538096309516 $284 $368 forward 7 unknown #
vertex $-1 $298 $369 #
straight-curve $-1 -96.555836178552823 -8.4755040454516273 15.86719928657169 -1 0 0 I I #
edge $-1 $347 0.63548411815966865 $295 15.044555736424247 $294 $370 forward 7 unknown #
vertex $-1 $346 $371 #
straight-curve $-1 -76.265755180516976 -8.4755040454516273 11.090287247882259 0.64278759981090561 0 0.7660444514056185 I I #
point $-1 -72.257450155628604 -8.4755040454516273 15.86719928657169 #
point $-1 -76.265755180516976 -22.884575663716205 11.090287247882259 #
straight-curve $-1 -76.265755180516976 0 15.86719928657169 0 -1 0 I I #
vertex $-1 $301 $372 #
point $-1 -70.914713456387659 -20.002761340063294 11.975777112848469 #
vertex $-1 $305 $373 #
point $-1 -70.914713456387659 -15.680039854583917 11.975777112848469 #
vertex $-1 $309 $374 #
point $-1 -70.914713456387659 -11.357318369104544 11.975777112848469 #
straight-curve $-1 -76.265755180516976 32.280568412552512 0 0 0 -1 I I #
point $-1 -76.265755180516976 -32.280568412552512 -15.86719928657169 #
straight-curve $-1 -76.265755180516976 0 -15.86719928657169 0 1 0 I I #
point $-1 -76.265755180516976 32.280568412552512 -15.86719928657169 #
straight-curve $-1 76.265755180516976 -4.0684569959584547 111.69493245060661 0 0 -1 I I #
point $-1 76.265755180516976 -4.0684569959584547 15.86719928657169 #
straight-curve $-1 76.265755180516976 2.0235750013610598 8.8594281778723811 0 1 0 I I #
point $-1 76.265755180516976 -4.0684569959584547 8.8594281778723882 #
point $-1 67.351745859829464 0.56903271757330032 7.4425649675308367 #
point $-1 67.351745859829464 7.5252672878709319 7.4425649675308367 #
straight-curve $-1 -76.265755180516976 -8.4755040454516273 54.567825344191775 0 0 -1 I I #
point $-1 -76.265755180516976 -8.4755040454516273 15.86719928657169 #
straight-curve $-1 -76.265755180516976 -7.8400199272919586 11.090287247882262 0 -1 0 I I #
point $-1 -76.265755180516976 -8.4755040454516273 11.090287247882259 #
point $-1 -70.791456604792955 -20.002761340063294 10.566945061631946 #
point $-1 -70.791456604792955 -15.680039854583917 10.566945061631946 #
point $-1 -70.791456604792955 -11.357318369104544 10.566945061631946 #
End-of-ACIS-data 