500 0 6 0           
7 Unknown 11 ACIS 5.0 NT 24 Thu Mar 25 23:51:41 1999 
-1 9.9999999999999995e-007 1e-010 
body $-1 $6 $-1 $7 #
body $-1 $8 $-1 $9 #
body $-1 $10 $-1 $11 #
body $-1 $12 $-1 $13 #
body $-1 $14 $-1 $15 #
body $-1 $16 $-1 $17 #
lump $-1 $-1 $18 $0 #
transform $-1 1 0 0 0 1 0 0 0 1 78.071230201116975 35.387827587575607 7.825994257350624 1 rotate no_reflect no_shear #
lump $-1 $-1 $19 $1 #
transform $-1 1 0 0 0 1 0 0 0 1 78.071230201116975 35.387827587575607 7.825994257350624 1 rotate no_reflect no_shear #
lump $-1 $-1 $20 $2 #
transform $-1 1 0 0 0 1 0 0 0 1 78.071230201116975 35.387827587575607 7.825994257350624 1 rotate no_reflect no_shear #
lump $-1 $-1 $21 $3 #
transform $-1 1 0 0 0 1 0 0 0 1 78.071230201116975 35.387827587575607 7.825994257350624 1 rotate no_reflect no_shear #
lump $-1 $-1 $22 $4 #
transform $-1 1 0 0 0 1 0 0 0 1 78.071230201116975 35.387827587575607 7.825994257350624 1 rotate no_reflect no_shear #
lump $-1 $-1 $23 $5 #
transform $-1 1 0 0 0 1 0 0 0 1 78.071230201116975 35.387827587575607 7.825994257350624 1 rotate no_reflect no_shear #
shell $-1 $-1 $-1 $24 $-1 $6 #
shell $-1 $-1 $-1 $25 $-1 $8 #
shell $-1 $-1 $-1 $26 $-1 $10 #
shell $-1 $-1 $-1 $27 $-1 $12 #
shell $-1 $-1 $-1 $28 $-1 $14 #
shell $-1 $-1 $-1 $29 $-1 $16 #
face $-1 $30 $31 $18 $-1 $32 forward single #
face $-1 $33 $34 $19 $-1 $35 forward single #
face $-1 $36 $37 $20 $-1 $38 reversed single #
face $-1 $39 $40 $21 $-1 $41 forward single #
face $-1 $42 $43 $22 $-1 $44 forward single #
face $-1 $45 $46 $23 $-1 $47 forward single #
face $-1 $48 $49 $18 $-1 $50 reversed single #
loop $-1 $-1 $51 $24 #
plane-surface $-1 0 0 7.825994257350624 0 0 1 1 0 0 forward_v I I I I #
face $-1 $52 $53 $19 $-1 $54 reversed single #
loop $-1 $-1 $55 $25 #
plane-surface $-1 0 -31.343756340170046 -3.7546238631322595 0 0 1 1 0 0 forward_v I I I I #
face $-1 $56 $57 $20 $-1 $58 reversed single #
loop $-1 $-1 $59 $26 #
plane-surface $-1 -211.91144273244373 -12.807155783507348 84.58901517165944 0 1 0 -0.85716730853699208 0 0.51503806187062418 forward_v I I I I #
face $-1 $60 $61 $21 $-1 $62 forward single #
loop $-1 $63 $64 $27 #
cone-surface $-1 -76.5441864685518 -9.2076792489587866 5.7403305929310982 0.85716730853699208 0 -0.51503806187062418 0.25751903093531209 0 0.42858365426849604 1 I I 0 1 0.5 forward I I I I #
face $-1 $65 $66 $22 $-1 $67 forward single #
loop $-1 $68 $69 $28 #
cone-surface $-1 -76.5441864685518 -3.8084644471359468 5.7403305929310982 0.85716730853699208 0 -0.51503806187062418 0.25751903093531209 0 0.42858365426849604 1 I I 0 1 0.5 forward I I I I #
face $-1 $70 $71 $23 $-1 $72 forward single #
loop $-1 $73 $74 $29 #
cone-surface $-1 -76.5441864685518 1.5907503546868966 5.7403305929310982 0.85716730853699208 0 -0.51503806187062418 0.25751903093531209 0 0.42858365426849604 1 I I 0 1 0.5 forward I I I I #
face $-1 $75 $76 $18 $-1 $77 reversed single #
loop $-1 $-1 $78 $30 #
plane-surface $-1 0 0 -7.825994257350624 0 0 1 1 0 0 forward_v I I I I #
coedge $-1 $79 $80 $81 $82 forward $31 $-1 #
face $-1 $83 $84 $19 $-1 $85 reversed single #
loop $-1 $-1 $86 $33 #
plane-surface $-1 0 -27.299685092764484 -5.7903090602414418 0 -1 0 0 0 -1 forward_v I I I I #
coedge $-1 $87 $88 $89 $90 reversed $34 $-1 #
face $-1 $91 $92 $20 $-1 $93 reversed single #
loop $-1 $-1 $94 $36 #
plane-surface $-1 -78.071230201117004 -3.8084644471359468 4.1697049903821863 -0.85716730853699208 0 0.51503806187062418 0.51503806187062418 0 0.85716730853699208 forward_v I I I I #
coedge $-1 $95 $96 $97 $98 reversed $37 $-1 #
face $-1 $-1 $99 $21 $-1 $100 forward single #
loop $-1 $101 $102 $39 #
cone-surface $-1 -75.90131098714906 -9.2076792489587866 5.35405204652813 0.85716730853699208 0 -0.51503806187062418 0.12875951546765604 0 0.21429182713424802 1 I I -0.70710678118654746 0.70710678118654746 0.25 forward I I I I #
loop $-1 $-1 $103 $27 #
coedge $-1 $64 $64 $104 $105 reversed $40 $-1 #
face $-1 $-1 $106 $22 $-1 $107 forward single #
loop $-1 $108 $109 $42 #
cone-surface $-1 -75.90131098714906 -3.8084644471359468 5.35405204652813 0.85716730853699208 0 -0.51503806187062418 0.12875951546765604 0 0.21429182713424802 1 I I -0.70710678118654746 0.70710678118654746 0.25 forward I I I I #
loop $-1 $-1 $110 $28 #
coedge $-1 $69 $69 $111 $112 reversed $43 $-1 #
face $-1 $-1 $113 $23 $-1 $114 forward single #
loop $-1 $115 $116 $45 #
cone-surface $-1 -75.90131098714906 1.5907503546868966 5.35405204652813 0.85716730853699208 0 -0.51503806187062418 0.12875951546765604 0 0.21429182713424802 1 I I -0.70710678118654746 0.70710678118654746 0.25 forward I I I I #
loop $-1 $-1 $117 $29 #
coedge $-1 $74 $74 $118 $119 reversed $46 $-1 #
face $-1 $120 $121 $18 $-1 $122 reversed single #
loop $-1 $-1 $123 $48 #
plane-surface $-1 0 -35.387827587575607 0 0 1 0 0 0 1 forward_v I I I I #
coedge $-1 $124 $125 $126 $127 forward $49 $-1 #
coedge $-1 $128 $51 $129 $130 forward $31 $-1 #
coedge $-1 $51 $128 $131 $132 forward $31 $-1 #
coedge $-1 $133 $134 $51 $82 reversed $135 $-1 #
edge $-1 $136 -35.387827587575607 $137 35.387827587575607 $81 $138 forward 7 unknown #
face $-1 $139 $140 $19 $-1 $141 reversed single #
loop $-1 $-1 $142 $52 #
plane-surface $-1 0 0 -7.825994257350624 0 0 1 1 0 0 forward_v I I I I #
coedge $-1 $143 $144 $145 $146 reversed $53 $-1 #
coedge $-1 $147 $55 $144 $148 forward $34 $-1 #
coedge $-1 $55 $147 $149 $150 reversed $34 $-1 #
coedge $-1 $151 $145 $55 $90 forward $140 $-1 #
edge $-1 $152 11.627806922679461 $153 19.715949417490584 $89 $154 forward 7 unknown #
face $-1 $155 $156 $20 $-1 $157 forward single #
loop $-1 $-1 $158 $56 #
plane-surface $-1 -211.91144273244373 5.1902268892354542 84.58901517165944 0 -1 0 0.85716730853699208 0 -0.51503806187062418 forward_v I I I I #
coedge $-1 $159 $160 $161 $162 reversed $57 $-1 #
coedge $-1 $96 $59 $163 $164 reversed $37 $-1 #
coedge $-1 $59 $95 $159 $165 reversed $37 $-1 #
coedge $-1 $161 $166 $59 $98 forward $156 $-1 #
edge $-1 $167 27.88449116510489 $168 30.081411321698212 $97 $169 forward 7 unknown #
loop $-1 $-1 $104 $60 #
plane-surface $-1 -78.071230201117004 -3.8084644471359468 4.1697049903821863 -0.85716730853699208 0 0.51503806187062418 0.51503806187062418 0 0.85716730853699208 forward_v I I I I #
loop $-1 $-1 $170 $39 #
coedge $-1 $102 $102 $103 $171 reversed $61 $-1 #
coedge $-1 $103 $103 $102 $171 forward $63 $-1 #
coedge $-1 $104 $104 $64 $105 forward $99 $-1 #
edge $-1 $172 0 $172 6.2831853071796004 $104 $173 forward 7 unknown #
loop $-1 $-1 $111 $65 #
plane-surface $-1 -78.071230201117004 -3.8084644471359468 4.1697049903821863 -0.85716730853699208 0 0.51503806187062418 0.51503806187062418 0 0.85716730853699208 forward_v I I I I #
loop $-1 $-1 $174 $42 #
coedge $-1 $109 $109 $110 $175 reversed $66 $-1 #
coedge $-1 $110 $110 $109 $175 forward $68 $-1 #
coedge $-1 $111 $111 $69 $112 forward $106 $-1 #
edge $-1 $176 0 $176 6.2831853071796004 $111 $177 forward 7 unknown #
loop $-1 $-1 $118 $70 #
plane-surface $-1 -78.071230201117004 -3.8084644471359468 4.1697049903821863 -0.85716730853699208 0 0.51503806187062418 0.51503806187062418 0 0.85716730853699208 forward_v I I I I #
loop $-1 $-1 $178 $45 #
coedge $-1 $116 $116 $117 $179 reversed $71 $-1 #
coedge $-1 $117 $117 $116 $179 forward $73 $-1 #
coedge $-1 $118 $118 $74 $119 forward $113 $-1 #
edge $-1 $180 0 $180 6.2831853071796004 $118 $181 forward 7 unknown #
face $-1 $182 $183 $18 $-1 $184 reversed single #
loop $-1 $-1 $185 $75 #
plane-surface $-1 -78.071230201116975 0 0 1 0 0 0 0 -1 forward_v I I I I #
coedge $-1 $186 $131 $187 $188 forward $76 $-1 #
coedge $-1 $189 $78 $186 $190 forward $49 $-1 #
coedge $-1 $78 $189 $191 $192 forward $49 $-1 #
coedge $-1 $134 $133 $78 $127 reversed $135 $-1 #
edge $-1 $193 -35.387827587575607 $194 35.387827587575607 $126 $195 forward 7 unknown #
coedge $-1 $80 $79 $196 $197 forward $31 $-1 #
coedge $-1 $198 $199 $79 $130 reversed $183 $-1 #
edge $-1 $137 -78.071230201116975 $200 78.071230201116975 $129 $201 forward 7 unknown #
coedge $-1 $123 $202 $80 $132 reversed $76 $-1 #
edge $-1 $203 -78.071230201116975 $136 78.071230201116975 $131 $204 forward 7 unknown #
coedge $-1 $126 $81 $202 $205 forward $135 $-1 #
coedge $-1 $81 $126 $198 $206 reversed $135 $-1 #
loop $-1 $-1 $133 $182 #
vertex $-1 $82 $207 #
vertex $-1 $82 $208 #
straight-curve $-1 78.071230201116975 0 7.825994257350624 0 1 0 I I #
face $-1 $209 $210 $19 $-1 $211 reversed single #
loop $-1 $-1 $145 $83 #
plane-surface $-1 78.071230201116975 0 0 -1 0 0 0 0 1 forward_v I I I I #
coedge $-1 $212 $213 $143 $214 forward $84 $-1 #
coedge $-1 $215 $86 $142 $214 reversed $53 $-1 #
coedge $-1 $86 $215 $87 $148 reversed $53 $-1 #
coedge $-1 $89 $216 $86 $146 forward $140 $-1 #
edge $-1 $217 -4.9308397272299036 $152 -0.85946933301153861 $145 $218 forward 7 unknown #
coedge $-1 $88 $87 $219 $220 reversed $34 $-1 #
edge $-1 $152 -78.071230201116975 $221 78.071230201116975 $144 $222 forward 7 unknown #
coedge $-1 $223 $224 $88 $150 forward $210 $-1 #
edge $-1 $153 -78.071230201116975 $225 78.071230201116975 $149 $226 forward 7 unknown #
coedge $-1 $216 $89 $224 $227 forward $140 $-1 #
vertex $-1 $90 $228 #
vertex $-1 $227 $229 #
straight-curve $-1 78.071230201116975 -15.671878170085023 -3.7546238631322595 0 -1 0 I I #
face $-1 $-1 $230 $20 $-1 $231 reversed single #
loop $-1 $-1 $97 $91 #
plane-surface $-1 0 0 7.825994257350624 0 0 1 1 0 0 forward_v I I I I #
coedge $-1 $232 $233 $234 $235 reversed $92 $-1 #
coedge $-1 $236 $94 $96 $165 forward $57 $-1 #
coedge $-1 $94 $236 $232 $237 forward $57 $-1 #
coedge $-1 $234 $97 $94 $162 forward $156 $-1 #
edge $-1 $168 -10.902923559939374 $238 7.0944591128034276 $161 $239 forward 7 unknown #
coedge $-1 $240 $241 $95 $164 forward $230 $-1 #
edge $-1 $242 -38.124802595447484 $167 -34.468513328479098 $163 $243 forward 7 unknown #
edge $-1 $168 -4.2655491297363763 $242 -5.4988089932380084e-014 $96 $244 forward 7 unknown #
coedge $-1 $97 $234 $240 $245 forward $156 $-1 #
vertex $-1 $164 $246 #
vertex $-1 $98 $247 #
straight-curve $-1 -105.95572136622187 -12.807155783507348 7.8259942573506223 1 0 0 I I #
coedge $-1 $170 $170 $-1 $248 reversed $101 $-1 #
edge $-1 $249 0 $249 6.2831853071796004 $102 $250 forward 7 unknown #
vertex $-1 $105 $251 #
ellipse-curve $-1 -76.972770122820322 -9.2076792489587866 5.997849623866423 -0.85716730853699208 0 0.51503806187062418 0.25751903093531209 0 0.42858365426849604 1 I I #
coedge $-1 $174 $174 $-1 $252 reversed $108 $-1 #
edge $-1 $253 0 $253 6.2831853071796004 $109 $254 forward 7 unknown #
vertex $-1 $112 $255 #
ellipse-curve $-1 -76.972770122820322 -3.8084644471359468 5.997849623866423 -0.85716730853699208 0 0.51503806187062418 0.25751903093531209 0 0.42858365426849604 1 I I #
coedge $-1 $178 $178 $-1 $256 reversed $115 $-1 #
edge $-1 $257 0 $257 6.2831853071796004 $116 $258 forward 7 unknown #
vertex $-1 $119 $259 #
ellipse-curve $-1 -76.972770122820322 1.5907503546868966 5.997849623866423 -0.85716730853699208 0 0.51503806187062418 0.25751903093531209 0 0.42858365426849604 1 I I #
face $-1 $-1 $135 $18 $-1 $260 reversed single #
loop $-1 $-1 $198 $120 #
plane-surface $-1 0 35.387827587575607 0 0 -1 0 0 0 -1 forward_v I I I I #
coedge $-1 $261 $196 $199 $262 forward $121 $-1 #
coedge $-1 $202 $123 $124 $190 reversed $76 $-1 #
coedge $-1 $196 $261 $123 $188 reversed $121 $-1 #
edge $-1 $203 -7.825994257350624 $263 7.825994257350624 $187 $264 forward 7 unknown #
coedge $-1 $125 $124 $261 $265 forward $49 $-1 #
edge $-1 $194 -78.071230201116975 $263 78.071230201116975 $186 $266 forward 7 unknown #
coedge $-1 $199 $198 $125 $192 reversed $183 $-1 #
edge $-1 $267 -78.071230201116975 $193 78.071230201116975 $191 $268 forward 7 unknown #
vertex $-1 $127 $269 #
vertex $-1 $205 $270 #
straight-curve $-1 78.071230201116975 0 -7.825994257350624 0 -1 0 I I #
coedge $-1 $185 $187 $128 $197 reversed $121 $-1 #
edge $-1 $200 -35.387827587575607 $203 35.387827587575607 $196 $271 forward 7 unknown #
coedge $-1 $191 $129 $134 $206 forward $183 $-1 #
coedge $-1 $129 $191 $185 $262 reversed $183 $-1 #
vertex $-1 $130 $272 #
straight-curve $-1 0 35.387827587575607 7.825994257350624 -1 0 0 I I #
coedge $-1 $131 $186 $133 $205 reversed $76 $-1 #
vertex $-1 $197 $273 #
straight-curve $-1 0 -35.387827587575607 7.825994257350624 1 0 0 I I #
edge $-1 $136 -7.825994257350624 $194 7.825994257350624 $133 $274 forward 7 unknown #
edge $-1 $137 -7.825994257350624 $193 7.825994257350624 $134 $275 forward 7 unknown #
point $-1 78.071230201116975 -35.387827587575607 7.825994257350624 #
point $-1 78.071230201116975 35.387827587575607 7.825994257350624 #
face $-1 $-1 $276 $19 $-1 $277 reversed single #
loop $-1 $-1 $149 $139 #
plane-surface $-1 0 -35.387827587575607 0 0 1 0 0 0 1 forward_v I I I I #
coedge $-1 $278 $142 $216 $279 forward $84 $-1 #
coedge $-1 $142 $278 $280 $281 forward $84 $-1 #
edge $-1 $282 -78.071230201116975 $217 78.071230201116975 $142 $283 forward 7 unknown #
coedge $-1 $144 $143 $284 $285 reversed $53 $-1 #
coedge $-1 $145 $151 $212 $279 reversed $140 $-1 #
vertex $-1 $279 $286 #
straight-curve $-1 78.071230201116975 -27.299685092764484 -2.8951545301207209 0 0 1 I I #
coedge $-1 $284 $287 $147 $220 forward $276 $-1 #
edge $-1 $225 -19.715949417490584 $221 -11.627806922679461 $219 $288 forward 7 unknown #
vertex $-1 $220 $289 #
straight-curve $-1 0 -27.299685092764484 -3.7546238631322595 -1 0 0 I I #
coedge $-1 $290 $149 $287 $291 forward $210 $-1 #
coedge $-1 $149 $290 $151 $227 reversed $210 $-1 #
vertex $-1 $291 $292 #
straight-curve $-1 0 -35.387827587575607 -3.7546238631322595 -1 0 0 I I #
edge $-1 $153 3.7546238631322595 $293 7.825994257350624 $151 $294 forward 7 unknown #
point $-1 78.071230201116975 -27.299685092764484 -3.7546238631322595 #
point $-1 78.071230201116975 -35.387827587575607 -3.7546238631322595 #
loop $-1 $-1 $163 $155 #
plane-surface $-1 -78.071230201116975 0 0 1 0 0 0 0 -1 forward_v I I I I #
coedge $-1 $233 $158 $160 $237 reversed $92 $-1 #
coedge $-1 $158 $232 $295 $296 reversed $92 $-1 #
coedge $-1 $166 $161 $158 $235 forward $156 $-1 #
edge $-1 $238 -30.081411321698212 $297 -27.88449116510489 $234 $298 forward 7 unknown #
coedge $-1 $160 $159 $241 $299 reversed $57 $-1 #
edge $-1 $300 5.4988089932380084e-014 $238 4.2655491297363763 $232 $301 forward 7 unknown #
vertex $-1 $162 $302 #
straight-curve $-1 -75.874310044523639 -1.9042322235679734 7.8259942573506258 0 1 0 I I #
coedge $-1 $295 $163 $166 $245 reversed $230 $-1 #
coedge $-1 $163 $295 $236 $299 forward $230 $-1 #
vertex $-1 $164 $303 #
straight-curve $-1 -78.071230201116975 -12.807155783507348 42.29450758582972 0 0 1 I I #
straight-curve $-1 -78.071230201117004 -12.807155783507348 4.1697049903821863 -0.51503806187062418 0 -0.85716730853699208 I I #
edge $-1 $297 -5.1902268892354542 $167 12.807155783507348 $240 $304 forward 7 unknown #
point $-1 -78.071230201116975 -12.807155783507348 7.825994257350624 #
point $-1 -75.874310044523654 -12.807155783507348 7.825994257350624 #
edge $-1 $305 1 $305 0 $170 $-1 forward 7 unknown #
vertex $-1 $171 $306 #
ellipse-curve $-1 -76.115602814283307 -9.2076792489587866 5.4828115619957858 -0.85716730853699208 0 0.51503806187062418 0.25751903093531209 0 0.42858365426849604 1 I I #
point $-1 -76.715251091884994 -9.2076792489587866 6.4264332781349065 #
edge $-1 $307 1 $307 0 $174 $-1 forward 7 unknown #
vertex $-1 $175 $308 #
ellipse-curve $-1 -76.115602814283307 -3.8084644471359468 5.4828115619957858 -0.85716730853699208 0 0.51503806187062418 0.25751903093531209 0 0.42858365426849604 1 I I #
point $-1 -76.715251091884994 -3.8084644471359468 6.4264332781349065 #
edge $-1 $309 1 $309 0 $178 $-1 forward 7 unknown #
vertex $-1 $179 $310 #
ellipse-curve $-1 -76.115602814283307 1.5907503546868966 5.4828115619957858 -0.85716730853699208 0 0.51503806187062418 0.25751903093531209 0 0.42858365426849604 1 I I #
point $-1 -76.715251091884994 1.5907503546868966 6.4264332781349065 #
plane-surface $-1 78.071230201116975 0 0 -1 0 0 0 0 1 forward_v I I I I #
coedge $-1 $187 $185 $189 $265 reversed $121 $-1 #
edge $-1 $200 -7.825994257350624 $267 7.825994257350624 $199 $311 forward 7 unknown #
vertex $-1 $265 $312 #
straight-curve $-1 -78.071230201116975 -35.387827587575607 0 0 0 -1 I I #
edge $-1 $263 -35.387827587575607 $267 35.387827587575607 $261 $313 forward 7 unknown #
straight-curve $-1 0 -35.387827587575607 -7.825994257350624 -1 0 0 I I #
vertex $-1 $192 $314 #
straight-curve $-1 0 35.387827587575607 -7.825994257350624 1 0 0 I I #
point $-1 78.071230201116975 35.387827587575607 -7.825994257350624 #
point $-1 78.071230201116975 -35.387827587575607 -7.825994257350624 #
straight-curve $-1 -78.071230201116975 0 7.825994257350624 0 -1 0 I I #
point $-1 -78.071230201116975 35.387827587575607 7.825994257350624 #
point $-1 -78.071230201116975 -35.387827587575607 7.825994257350624 #
straight-curve $-1 78.071230201116975 -35.387827587575607 0 0 0 -1 I I #
straight-curve $-1 78.071230201116975 35.387827587575607 0 0 0 -1 I I #
loop $-1 $-1 $284 $209 #
plane-surface $-1 -78.071230201116975 0 0 1 0 0 0 0 -1 forward_v I I I I #
coedge $-1 $213 $212 $290 $315 forward $84 $-1 #
edge $-1 $217 27.299685092764484 $293 35.387827587575607 $216 $316 forward 7 unknown #
coedge $-1 $287 $284 $213 $281 reversed $276 $-1 #
edge $-1 $317 -35.387827587575607 $282 -27.299685092764484 $280 $318 forward 7 unknown #
vertex $-1 $285 $319 #
straight-curve $-1 0 -27.299685092764484 -7.825994257350624 1 0 0 I I #
coedge $-1 $280 $219 $215 $285 forward $276 $-1 #
edge $-1 $221 0.85946933301153861 $282 4.9308397272299036 $284 $320 forward 7 unknown #
point $-1 78.071230201116975 -27.299685092764484 -7.825994257350624 #
coedge $-1 $219 $280 $223 $291 reversed $276 $-1 #
straight-curve $-1 -78.071230201116975 -15.671878170085023 -3.7546238631322595 0 1 0 I I #
point $-1 -78.071230201116975 -27.299685092764484 -3.7546238631322595 #
coedge $-1 $224 $223 $278 $315 reversed $210 $-1 #
edge $-1 $225 3.7546238631322595 $317 7.825994257350624 $287 $321 forward 7 unknown #
point $-1 -78.071230201116975 -35.387827587575607 -3.7546238631322595 #
vertex $-1 $227 $322 #
straight-curve $-1 78.071230201116975 -35.387827587575607 0 0 0 -1 I I #
coedge $-1 $241 $240 $233 $296 forward $230 $-1 #
edge $-1 $297 34.468513328479098 $300 38.124802595447484 $295 $323 forward 7 unknown #
vertex $-1 $245 $324 #
straight-curve $-1 -105.95572136622187 5.1902268892354542 7.8259942573506223 -1 0 0 I I #
edge $-1 $300 -7.0944591128034276 $242 10.902923559939374 $241 $325 forward 7 unknown #
vertex $-1 $299 $326 #
straight-curve $-1 -78.071230201117004 5.1902268892354542 4.1697049903821863 0.51503806187062418 0 0.85716730853699208 I I #
point $-1 -75.874310044523654 5.1902268892354542 7.825994257350624 #
point $-1 -78.071230201116975 -12.807155783507348 4.1697049903822334 #
straight-curve $-1 -78.071230201116975 0 7.825994257350624 0 -1 0 I I #
vertex $-1 $248 $327 #
point $-1 -75.858083783347993 -9.2076792489587866 5.9113952162642818 #
vertex $-1 $252 $328 #
point $-1 -75.858083783347993 -3.8084644471359468 5.9113952162642818 #
vertex $-1 $256 $329 #
point $-1 -75.858083783347993 1.5907503546868966 5.9113952162642818 #
straight-curve $-1 -78.071230201116975 35.387827587575607 0 0 0 -1 I I #
point $-1 -78.071230201116975 -35.387827587575607 -7.825994257350624 #
straight-curve $-1 -78.071230201116975 0 -7.825994257350624 0 1 0 I I #
point $-1 -78.071230201116975 35.387827587575607 -7.825994257350624 #
edge $-1 $293 -78.071230201116975 $317 78.071230201116975 $290 $330 forward 7 unknown #
straight-curve $-1 78.071230201116975 0 -7.825994257350624 0 -1 0 I I #
vertex $-1 $281 $331 #
straight-curve $-1 -78.071230201116975 0 -7.825994257350624 0 1 0 I I #
point $-1 -78.071230201116975 -27.299685092764484 -7.825994257350624 #
straight-curve $-1 -78.071230201116975 -27.299685092764484 -2.8951545301207209 0 0 -1 I I #
straight-curve $-1 -78.071230201116975 -35.387827587575607 0 0 0 -1 I I #
point $-1 78.071230201116975 -35.387827587575607 -7.825994257350624 #
straight-curve $-1 -78.071230201116975 5.1902268892354542 42.29450758582972 0 0 -1 I I #
point $-1 -78.071230201116975 5.1902268892354542 7.825994257350624 #
straight-curve $-1 -78.071230201116975 -1.9042322235679734 4.1697049903822396 0 -1 0 I I #
point $-1 -78.071230201116975 5.1902268892354542 4.1697049903822334 #
point $-1 -75.687019160014813 -9.2076792489587866 5.2252925310604743 #
point $-1 -75.687019160014813 -3.8084644471359468 5.2252925310604743 #
point $-1 -75.687019160014813 1.5907503546868966 5.2252925310604743 #
straight-curve $-1 0 -35.387827587575607 -7.825994257350624 -1 0 0 I I #
point $-1 -78.071230201116975 -35.387827587575607 -7.825994257350624 #
End-of-ACIS-data 