500 0 12 0           
7 Unknown 11 ACIS 5.0 NT 24 Thu Mar 25 16:26:29 1999 
-1 9.9999999999999995e-007 1e-010 
body $-1 $12 $-1 $13 #
body $-1 $14 $-1 $15 #
body $-1 $16 $-1 $17 #
body $-1 $18 $-1 $19 #
body $-1 $20 $-1 $21 #
body $-1 $22 $-1 $23 #
body $-1 $24 $-1 $25 #
body $-1 $26 $-1 $27 #
body $-1 $28 $-1 $29 #
body $-1 $30 $-1 $31 #
body $-1 $32 $-1 $33 #
body $-1 $34 $-1 $35 #
lump $-1 $-1 $36 $0 #
transform $-1 1 0 0 0 1 0 0 0 1 75.264748069704268 50.272818234882337 24.573031974100342 1 rotate no_reflect no_shear #
lump $-1 $-1 $37 $1 #
transform $-1 1 0 0 0 1 0 0 0 1 75.264748069704268 50.272818234882337 24.573031974100342 1 rotate no_reflect no_shear #
lump $-1 $-1 $38 $2 #
transform $-1 1 0 0 0 1 0 0 0 1 75.264748069704268 50.272818234882337 24.573031974100342 1 rotate no_reflect no_shear #
lump $-1 $-1 $39 $3 #
transform $-1 1 0 0 0 1 0 0 0 1 75.264748069704268 50.272818234882337 24.573031974100342 1 rotate no_reflect no_shear #
lump $-1 $-1 $40 $4 #
transform $-1 1 0 0 0 1 0 0 0 1 75.264748069704268 50.272818234882337 24.573031974100342 1 rotate no_reflect no_shear #
lump $-1 $-1 $41 $5 #
transform $-1 1 0 0 0 1 0 0 0 1 75.264748069704268 50.272818234882337 24.573031974100342 1 rotate no_reflect no_shear #
lump $-1 $-1 $42 $6 #
transform $-1 1 0 0 0 1 0 0 0 1 75.264748069704268 50.272818234882337 24.573031974100342 1 rotate no_reflect no_shear #
lump $-1 $-1 $43 $7 #
transform $-1 1 0 0 0 1 0 0 0 1 75.264748069704268 50.272818234882337 24.573031974100342 1 rotate no_reflect no_shear #
lump $-1 $-1 $44 $8 #
transform $-1 1 0 0 0 1 0 0 0 1 75.264748069704268 50.272818234882337 24.573031974100342 1 rotate no_reflect no_shear #
lump $-1 $-1 $45 $9 #
transform $-1 1 0 0 0 1 0 0 0 1 75.264748069704268 50.272818234882337 24.573031974100342 1 rotate no_reflect no_shear #
lump $-1 $-1 $46 $10 #
transform $-1 1 0 0 0 1 0 0 0 1 75.264748069704268 50.272818234882337 24.573031974100342 1 rotate no_reflect no_shear #
lump $-1 $-1 $47 $11 #
transform $-1 1 0 0 0 1 0 0 0 1 75.264748069704268 50.272818234882337 24.573031974100342 1 rotate no_reflect no_shear #
shell $-1 $-1 $-1 $48 $-1 $12 #
shell $-1 $-1 $-1 $49 $-1 $14 #
shell $-1 $-1 $-1 $50 $-1 $16 #
shell $-1 $-1 $-1 $51 $-1 $18 #
shell $-1 $-1 $-1 $52 $-1 $20 #
shell $-1 $-1 $-1 $53 $-1 $22 #
shell $-1 $-1 $-1 $54 $-1 $24 #
shell $-1 $-1 $-1 $55 $-1 $26 #
shell $-1 $-1 $-1 $56 $-1 $28 #
shell $-1 $-1 $-1 $57 $-1 $30 #
shell $-1 $-1 $-1 $58 $-1 $32 #
shell $-1 $-1 $-1 $59 $-1 $34 #
face $-1 $60 $61 $36 $-1 $62 forward single #
face $-1 $63 $64 $37 $-1 $65 forward single #
face $-1 $66 $67 $38 $-1 $68 forward single #
face $-1 $69 $70 $39 $-1 $71 reversed single #
face $-1 $72 $73 $40 $-1 $74 forward single #
face $-1 $75 $76 $41 $-1 $77 forward single #
face $-1 $78 $79 $42 $-1 $80 reversed single #
face $-1 $81 $82 $43 $-1 $83 forward single #
face $-1 $84 $85 $44 $-1 $86 forward single #
face $-1 $87 $88 $45 $-1 $89 reversed single #
face $-1 $90 $91 $46 $-1 $92 forward single #
face $-1 $93 $94 $47 $-1 $95 forward single #
face $-1 $96 $97 $36 $-1 $98 reversed single #
loop $-1 $-1 $99 $48 #
plane-surface $-1 0 0 24.573031974100342 0 0 1 1 0 0 forward_v I I I I #
face $-1 $100 $101 $37 $-1 $102 reversed single #
loop $-1 $-1 $103 $49 #
plane-surface $-1 0 -37.990006913439395 -18.863497331575378 0 0 1 1 0 0 forward_v I I I I #
face $-1 $104 $105 $38 $-1 $106 reversed single #
loop $-1 $-1 $107 $50 #
plane-surface $-1 0 35.945841425143158 -18.257252052854017 0 0 1 1 0 0 forward_v I I I I #
face $-1 $108 $109 $39 $-1 $110 reversed single #
loop $-1 $-1 $111 $51 #
plane-surface $-1 -204.29371113095064 -8.0679276283520629 82.268074390460356 0 -1 0 0.85716730853699208 0 -0.51503806187062418 forward_v I I I I #
face $-1 $112 $113 $40 $-1 $114 forward single #
loop $-1 $115 $116 $52 #
cone-surface $-1 -68.467567200074811 -13.977483262991733 14.152441487837386 0.85716730853699208 0 -0.51503806187062418 0.51503806187062418 0 0.85716730853699208 1 I I 0 1 1 forward I I I I #
face $-1 $117 $118 $41 $-1 $119 forward single #
loop $-1 $120 $121 $53 #
cone-surface $-1 -68.467567200074811 -10.431749882207932 14.152441487837386 0.85716730853699208 0 -0.51503806187062418 0.51503806187062418 0 0.85716730853699208 1 I I 0 1 1 forward I I I I #
face $-1 $122 $123 $42 $-1 $124 reversed single #
loop $-1 $-1 $125 $54 #
plane-surface $-1 -204.29371113095064 12.252974540255128 82.268074390460356 0 -1 0 0.85716730853699208 0 -0.51503806187062418 forward_v I I I I #
face $-1 $126 $127 $43 $-1 $128 forward single #
loop $-1 $129 $130 $55 #
cone-surface $-1 -68.467567200074811 6.343418905615458 14.152441487837386 0.85716730853699208 0 -0.51503806187062418 0.51503806187062418 0 0.85716730853699208 1 I I 0 1 1 forward I I I I #
face $-1 $131 $132 $44 $-1 $133 forward single #
loop $-1 $134 $135 $56 #
cone-surface $-1 -68.467567200074811 9.8891522863992591 14.152441487837386 0.85716730853699208 0 -0.51503806187062418 0.51503806187062418 0 0.85716730853699208 1 I I 0 1 1 forward I I I I #
face $-1 $136 $137 $45 $-1 $138 reversed single #
loop $-1 $-1 $139 $57 #
plane-surface $-1 130.36237085666502 8.5203127612446572 206.64694052628664 0 -1 0 -0.86602541151947299 0 -0.49999998660252726 forward_v I I I I #
face $-1 $140 $141 $46 $-1 $142 forward single #
loop $-1 $143 $144 $58 #
cone-surface $-1 65.95658819139868 -0.58164510130203695 11.347894493954666 -0.86602541151947299 0 -0.49999998660252726 0.74999997990379086 0 -1.2990381172792094 1 I I 0 1 1.5 forward I I I I #
face $-1 $145 $146 $47 $-1 $147 forward single #
loop $-1 $148 $149 $59 #
cone-surface $-1 65.95658819139868 4.8795296162259802 11.347894493954666 -0.86602541151947299 0 -0.49999998660252726 0.74999997990379086 0 -1.2990381172792094 1 I I 0 1 1.5 forward I I I I #
face $-1 $150 $151 $36 $-1 $152 reversed single #
loop $-1 $-1 $153 $60 #
plane-surface $-1 0 0 -24.573031974100342 0 0 1 1 0 0 forward_v I I I I #
coedge $-1 $154 $155 $156 $157 forward $61 $-1 #
face $-1 $158 $159 $37 $-1 $160 reversed single #
loop $-1 $-1 $161 $63 #
plane-surface $-1 0 -25.707195591996452 -21.71826465283786 0 -1 0 0 0 -1 forward_v I I I I #
coedge $-1 $162 $163 $164 $165 reversed $64 $-1 #
face $-1 $166 $167 $38 $-1 $168 reversed single #
loop $-1 $-1 $169 $66 #
plane-surface $-1 0 21.618864615403979 -21.41514201347718 0 1 0 0 0 1 forward_v I I I I #
coedge $-1 $170 $171 $172 $173 reversed $67 $-1 #
face $-1 $174 $175 $39 $-1 $176 reversed single #
loop $-1 $-1 $177 $69 #
plane-surface $-1 -75.264748069704297 -12.204616572599832 4.7396544444577842 -0.85716730853699208 0 0.51503806187062418 0.51503806187062418 0 0.85716730853699208 forward_v I I I I #
coedge $-1 $178 $179 $180 $181 reversed $70 $-1 #
face $-1 $-1 $182 $40 $-1 $183 forward single #
loop $-1 $184 $185 $72 #
cone-surface $-1 -67.20035022079233 -13.977483262991733 13.391020735460398 0.85716730853699208 0 -0.51503806187062418 0.25751903093531209 0 0.42858365426849604 1 I I -0.70710678118654746 0.70710678118654746 0.5 forward I I I I #
loop $-1 $-1 $186 $52 #
coedge $-1 $116 $116 $187 $188 reversed $73 $-1 #
face $-1 $-1 $189 $41 $-1 $190 forward single #
loop $-1 $191 $192 $75 #
cone-surface $-1 -67.20035022079233 -10.431749882207932 13.391020735460398 0.85716730853699208 0 -0.51503806187062418 0.25751903093531209 0 0.42858365426849604 1 I I -0.70710678118654746 0.70710678118654746 0.5 forward I I I I #
loop $-1 $-1 $193 $53 #
coedge $-1 $121 $121 $194 $195 reversed $76 $-1 #
face $-1 $196 $197 $42 $-1 $198 reversed single #
loop $-1 $-1 $199 $78 #
plane-surface $-1 -75.264748069704297 8.1162855960073585 4.7396544444577842 -0.85716730853699208 0 0.51503806187062418 0.51503806187062418 0 0.85716730853699208 forward_v I I I I #
coedge $-1 $200 $201 $202 $203 reversed $79 $-1 #
face $-1 $-1 $204 $43 $-1 $205 forward single #
loop $-1 $206 $207 $81 #
cone-surface $-1 -67.20035022079233 6.343418905615458 13.391020735460398 0.85716730853699208 0 -0.51503806187062418 0.25751903093531209 0 0.42858365426849604 1 I I -0.70710678118654746 0.70710678118654746 0.5 forward I I I I #
loop $-1 $-1 $208 $55 #
coedge $-1 $130 $130 $209 $210 reversed $82 $-1 #
face $-1 $-1 $211 $44 $-1 $212 forward single #
loop $-1 $213 $214 $84 #
cone-surface $-1 -67.20035022079233 9.8891522863992591 13.391020735460398 0.85716730853699208 0 -0.51503806187062418 0.25751903093531209 0 0.42858365426849604 1 I I -0.70710678118654746 0.70710678118654746 0.5 forward I I I I #
loop $-1 $-1 $215 $56 #
coedge $-1 $135 $135 $216 $217 reversed $85 $-1 #
face $-1 $218 $219 $45 $-1 $220 reversed single #
loop $-1 $-1 $221 $87 #
plane-surface $-1 2.0167148306882154e-006 2.1489422574619681 131.3821944732972 0.86602541151947299 0 0.49999998660252726 0.49999998660252726 0 -0.86602541151947299 forward_v I I I I #
coedge $-1 $222 $223 $224 $225 reversed $88 $-1 #
face $-1 $-1 $226 $46 $-1 $227 forward single #
loop $-1 $228 $229 $90 #
cone-surface $-1 62.798134022096718 -0.58164510130203695 9.5243601942337541 -0.86602541151947299 0 -0.49999998660252726 0.37499998995189543 0 -0.64951905863960469 1 I I -0.70710678118654757 0.70710678118654757 0.75 forward I I I I #
loop $-1 $-1 $230 $58 #
coedge $-1 $144 $144 $231 $232 reversed $91 $-1 #
face $-1 $-1 $233 $47 $-1 $234 forward single #
loop $-1 $235 $236 $93 #
cone-surface $-1 62.798134022096718 4.8795296162259802 9.5243601942337541 -0.86602541151947299 0 -0.49999998660252726 0.37499998995189543 0 -0.64951905863960469 1 I I -0.70710678118654757 0.70710678118654757 0.75 forward I I I I #
loop $-1 $-1 $237 $59 #
coedge $-1 $149 $149 $238 $239 reversed $94 $-1 #
face $-1 $240 $241 $36 $-1 $242 reversed single #
loop $-1 $-1 $243 $96 #
plane-surface $-1 0 -50.272818234882337 0 0 1 0 0 0 1 forward_v I I I I #
coedge $-1 $244 $245 $246 $247 forward $97 $-1 #
coedge $-1 $248 $99 $249 $250 forward $61 $-1 #
coedge $-1 $99 $248 $251 $252 forward $61 $-1 #
coedge $-1 $253 $254 $99 $157 reversed $255 $-1 #
edge $-1 $256 -50.272818234882337 $257 50.272818234882337 $156 $258 forward 7 unknown #
face $-1 $259 $260 $37 $-1 $261 reversed single #
loop $-1 $-1 $262 $100 #
plane-surface $-1 0 0 -24.573031974100342 0 0 1 1 0 0 forward_v I I I I #
coedge $-1 $263 $264 $265 $266 reversed $101 $-1 #
coedge $-1 $267 $103 $264 $268 forward $64 $-1 #
coedge $-1 $103 $267 $269 $270 reversed $64 $-1 #
coedge $-1 $271 $265 $103 $165 forward $260 $-1 #
edge $-1 $272 6.7121921352767551 $273 31.277814778162639 $164 $274 forward 7 unknown #
face $-1 $275 $276 $38 $-1 $277 reversed single #
loop $-1 $-1 $172 $104 #
plane-surface $-1 75.264748069704268 0 0 -1 0 0 0 0 1 forward_v I I I I #
coedge $-1 $278 $279 $280 $281 reversed $105 $-1 #
coedge $-1 $282 $107 $283 $284 reversed $67 $-1 #
coedge $-1 $107 $282 $279 $285 forward $67 $-1 #
coedge $-1 $286 $287 $107 $173 forward $167 $-1 #
edge $-1 $288 -32.299897522310758 $289 -3.6459439028323999 $172 $290 forward 7 unknown #
face $-1 $291 $292 $39 $-1 $293 reversed single #
loop $-1 $-1 $294 $108 #
plane-surface $-1 -204.29371113095064 -16.341305516847601 82.268074390460356 0 1 0 -0.85716730853699208 0 0.51503806187062418 forward_v I I I I #
coedge $-1 $295 $296 $297 $298 reversed $109 $-1 #
coedge $-1 $179 $111 $299 $300 reversed $70 $-1 #
coedge $-1 $111 $178 $295 $301 reversed $70 $-1 #
coedge $-1 $297 $302 $111 $181 forward $292 $-1 #
edge $-1 $303 16.561005221129836 $304 36.394382750772344 $180 $305 forward 7 unknown #
loop $-1 $-1 $187 $112 #
plane-surface $-1 -75.264748069704297 -12.204616572599832 4.7396544444577842 -0.85716730853699208 0 0.51503806187062418 0.51503806187062418 0 0.85716730853699208 forward_v I I I I #
loop $-1 $-1 $306 $72 #
coedge $-1 $185 $185 $186 $307 reversed $113 $-1 #
coedge $-1 $186 $186 $185 $307 forward $115 $-1 #
coedge $-1 $187 $187 $116 $188 forward $182 $-1 #
edge $-1 $308 0 $308 6.2831853071796004 $187 $309 forward 7 unknown #
loop $-1 $-1 $194 $117 #
plane-surface $-1 -75.264748069704297 -12.204616572599832 4.7396544444577842 -0.85716730853699208 0 0.51503806187062418 0.51503806187062418 0 0.85716730853699208 forward_v I I I I #
loop $-1 $-1 $310 $75 #
coedge $-1 $192 $192 $193 $311 reversed $118 $-1 #
coedge $-1 $193 $193 $192 $311 forward $120 $-1 #
coedge $-1 $194 $194 $121 $195 forward $189 $-1 #
edge $-1 $312 0 $312 6.2831853071796004 $194 $313 forward 7 unknown #
face $-1 $314 $315 $42 $-1 $316 forward single #
loop $-1 $-1 $317 $122 #
plane-surface $-1 -204.29371113095064 3.9795966517595893 82.268074390460356 0 1 0 -0.85716730853699208 0 0.51503806187062418 forward_v I I I I #
coedge $-1 $318 $319 $320 $321 reversed $123 $-1 #
coedge $-1 $201 $125 $322 $323 reversed $79 $-1 #
coedge $-1 $125 $200 $318 $324 reversed $79 $-1 #
coedge $-1 $320 $325 $125 $203 forward $326 $-1 #
edge $-1 $327 16.561005221129836 $328 36.394382750772344 $202 $329 forward 7 unknown #
loop $-1 $-1 $209 $126 #
plane-surface $-1 -75.264748069704297 8.1162855960073585 4.7396544444577842 -0.85716730853699208 0 0.51503806187062418 0.51503806187062418 0 0.85716730853699208 forward_v I I I I #
loop $-1 $-1 $330 $81 #
coedge $-1 $207 $207 $208 $331 reversed $127 $-1 #
coedge $-1 $208 $208 $207 $331 forward $129 $-1 #
coedge $-1 $209 $209 $130 $210 forward $204 $-1 #
edge $-1 $332 0 $332 6.2831853071796004 $209 $333 forward 7 unknown #
loop $-1 $-1 $216 $131 #
plane-surface $-1 -75.264748069704297 8.1162855960073585 4.7396544444577842 -0.85716730853699208 0 0.51503806187062418 0.51503806187062418 0 0.85716730853699208 forward_v I I I I #
loop $-1 $-1 $334 $84 #
coedge $-1 $214 $214 $215 $335 reversed $132 $-1 #
coedge $-1 $215 $215 $214 $335 forward $134 $-1 #
coedge $-1 $216 $216 $135 $217 forward $211 $-1 #
edge $-1 $336 0 $336 6.2831853071796004 $216 $337 forward 7 unknown #
face $-1 $338 $339 $45 $-1 $340 forward single #
loop $-1 $-1 $341 $136 #
plane-surface $-1 130.36237085666502 -4.222428246320721 206.64694052628664 0 1 0 0.86602541151947299 0 0.49999998660252726 forward_v I I I I #
coedge $-1 $342 $343 $344 $345 reversed $137 $-1 #
coedge $-1 $223 $139 $346 $347 reversed $88 $-1 #
coedge $-1 $139 $222 $342 $348 reversed $88 $-1 #
coedge $-1 $344 $349 $139 $225 forward $339 $-1 #
edge $-1 $350 -10.083562641371756 $351 3.514886893914678 $224 $352 forward 7 unknown #
loop $-1 $-1 $231 $140 #
plane-surface $-1 2.0167148306882154e-006 2.1489422574619681 131.3821944732972 0.86602541151947299 0 0.49999998660252726 0.49999998660252726 0 -0.86602541151947299 forward_v I I I I #
loop $-1 $-1 $353 $90 #
coedge $-1 $229 $229 $230 $354 reversed $141 $-1 #
coedge $-1 $230 $230 $229 $354 forward $143 $-1 #
coedge $-1 $231 $231 $144 $232 forward $226 $-1 #
edge $-1 $355 0 $355 6.2831853071796004 $231 $356 forward 7 unknown #
loop $-1 $-1 $238 $145 #
plane-surface $-1 2.0167148306882154e-006 2.1489422574619681 131.3821944732972 0.86602541151947299 0 0.49999998660252726 0.49999998660252726 0 -0.86602541151947299 forward_v I I I I #
loop $-1 $-1 $357 $93 #
coedge $-1 $236 $236 $237 $358 reversed $146 $-1 #
coedge $-1 $237 $237 $236 $358 forward $148 $-1 #
coedge $-1 $238 $238 $149 $239 forward $233 $-1 #
edge $-1 $359 0 $359 6.2831853071796004 $238 $360 forward 7 unknown #
face $-1 $361 $362 $36 $-1 $363 reversed single #
loop $-1 $-1 $364 $150 #
plane-surface $-1 -75.264748069704268 0 0 1 0 0 0 0 -1 forward_v I I I I #
coedge $-1 $365 $251 $366 $367 forward $151 $-1 #
coedge $-1 $368 $153 $365 $369 forward $97 $-1 #
coedge $-1 $153 $368 $370 $371 forward $97 $-1 #
coedge $-1 $254 $253 $153 $247 reversed $255 $-1 #
edge $-1 $372 -50.272818234882337 $373 50.272818234882337 $246 $374 forward 7 unknown #
coedge $-1 $155 $154 $375 $376 forward $61 $-1 #
coedge $-1 $377 $378 $154 $250 reversed $362 $-1 #
edge $-1 $257 -75.264748069704268 $379 75.264748069704268 $249 $380 forward 7 unknown #
coedge $-1 $243 $381 $155 $252 reversed $151 $-1 #
edge $-1 $382 -75.264748069704268 $256 75.264748069704268 $251 $383 forward 7 unknown #
coedge $-1 $246 $156 $381 $384 forward $255 $-1 #
coedge $-1 $156 $246 $377 $385 reversed $255 $-1 #
loop $-1 $-1 $253 $361 #
vertex $-1 $157 $386 #
vertex $-1 $157 $387 #
straight-curve $-1 75.264748069704268 0 24.573031974100342 0 1 0 I I #
face $-1 $388 $389 $37 $-1 $390 reversed single #
loop $-1 $-1 $265 $158 #
plane-surface $-1 75.264748069704268 0 0 -1 0 0 0 0 1 forward_v I I I I #
coedge $-1 $391 $392 $263 $393 forward $159 $-1 #
coedge $-1 $394 $161 $262 $393 reversed $101 $-1 #
coedge $-1 $161 $394 $162 $268 reversed $101 $-1 #
coedge $-1 $164 $395 $161 $266 forward $260 $-1 #
edge $-1 $396 -13.713899647681412 $272 -8.0043650051564477 $265 $397 forward 7 unknown #
coedge $-1 $163 $162 $398 $399 reversed $64 $-1 #
edge $-1 $272 -75.264748069704268 $400 75.264748069704268 $264 $401 forward 7 unknown #
coedge $-1 $402 $403 $163 $270 forward $389 $-1 #
edge $-1 $273 -75.264748069704268 $404 75.264748069704268 $269 $405 forward 7 unknown #
coedge $-1 $395 $164 $403 $406 forward $260 $-1 #
vertex $-1 $165 $407 #
vertex $-1 $406 $408 #
straight-curve $-1 75.264748069704268 -18.995003456719697 -18.863497331575378 0 -1 0 I I #
face $-1 $409 $410 $38 $-1 $411 reversed single #
loop $-1 $-1 $412 $166 #
plane-surface $-1 0 0 -24.573031974100342 0 0 1 1 0 0 forward_v I I I I #
coedge $-1 $413 $169 $412 $414 reversed $105 $-1 #
coedge $-1 $169 $413 $171 $285 reversed $105 $-1 #
coedge $-1 $415 $416 $169 $281 forward $410 $-1 #
edge $-1 $417 -13.865460967361752 $418 -7.5496810461154276 $280 $419 forward 7 unknown #
coedge $-1 $171 $170 $415 $420 reversed $67 $-1 #
coedge $-1 $421 $422 $170 $284 forward $423 $-1 #
edge $-1 $424 -75.264748069704268 $288 75.264748069704268 $283 $425 forward 7 unknown #
edge $-1 $418 -75.264748069704268 $289 75.264748069704268 $279 $426 forward 7 unknown #
coedge $-1 $427 $172 $413 $428 forward $167 $-1 #
coedge $-1 $172 $427 $421 $429 reversed $167 $-1 #
vertex $-1 $429 $430 #
vertex $-1 $173 $431 #
straight-curve $-1 75.264748069704268 17.972920712571579 -18.257252052854017 0 -1 0 I I #
face $-1 $-1 $432 $39 $-1 $433 forward single #
loop $-1 $-1 $180 $174 #
plane-surface $-1 -75.264748069704268 0 0 1 0 0 0 0 -1 forward_v I I I I #
coedge $-1 $434 $435 $436 $437 reversed $175 $-1 #
coedge $-1 $438 $177 $179 $301 forward $109 $-1 #
coedge $-1 $177 $438 $434 $439 forward $109 $-1 #
coedge $-1 $436 $180 $177 $298 forward $292 $-1 #
edge $-1 $304 1.9656193420521468 $440 10.238997230547685 $297 $441 forward 7 unknown #
coedge $-1 $442 $443 $178 $300 forward $432 $-1 #
edge $-1 $444 -38.799202585001964 $303 -26.882107495771052 $299 $445 forward 7 unknown #
edge $-1 $304 5.4988089932380084e-014 $444 23.138280394167214 $179 $446 forward 7 unknown #
coedge $-1 $180 $436 $442 $447 reversed $292 $-1 #
vertex $-1 $447 $448 #
vertex $-1 $181 $449 #
straight-curve $-1 -75.264748069704268 -8.0679276283520629 41.134037195230178 0 0 -1 I I #
coedge $-1 $306 $306 $-1 $450 reversed $184 $-1 #
edge $-1 $451 0 $451 6.2831853071796004 $185 $452 forward 7 unknown #
vertex $-1 $188 $453 #
ellipse-curve $-1 -69.306200525088812 -13.977483262991733 14.656343209279077 -0.85716730853699208 0 0.51503806187062418 0.51503806187062418 0 0.85716730853699208 1 I I #
coedge $-1 $310 $310 $-1 $454 reversed $191 $-1 #
edge $-1 $455 0 $455 6.2831853071796004 $192 $456 forward 7 unknown #
vertex $-1 $195 $457 #
ellipse-curve $-1 -69.306200525088812 -10.431749882207932 14.656343209279077 -0.85716730853699208 0 0.51503806187062418 0.51503806187062418 0 0.85716730853699208 1 I I #
face $-1 $-1 $326 $42 $-1 $458 reversed single #
loop $-1 $-1 $459 $196 #
plane-surface $-1 0 0 24.573031974100342 0 0 1 1 0 0 forward_v I I I I #
coedge $-1 $460 $461 $462 $463 reversed $197 $-1 #
coedge $-1 $464 $199 $201 $324 forward $123 $-1 #
coedge $-1 $199 $464 $460 $465 forward $123 $-1 #
coedge $-1 $462 $202 $199 $321 forward $326 $-1 #
edge $-1 $328 -8.1948317422514485 $466 0.078546146244089954 $320 $467 forward 7 unknown #
coedge $-1 $468 $469 $200 $323 forward $315 $-1 #
edge $-1 $470 -38.799202585001964 $327 -26.882107495771052 $322 $471 forward 7 unknown #
edge $-1 $328 5.4988089932380084e-014 $470 23.138280394167214 $201 $472 forward 7 unknown #
coedge $-1 $202 $462 $468 $473 reversed $326 $-1 #
loop $-1 $-1 $462 $314 #
vertex $-1 $473 $474 #
vertex $-1 $203 $475 #
straight-curve $-1 -75.264748069704268 12.252974540255128 41.134037195230178 0 0 -1 I I #
coedge $-1 $330 $330 $-1 $476 reversed $206 $-1 #
edge $-1 $477 0 $477 6.2831853071796004 $207 $478 forward 7 unknown #
vertex $-1 $210 $479 #
ellipse-curve $-1 -69.306200525088812 6.343418905615458 14.656343209279077 -0.85716730853699208 0 0.51503806187062418 0.51503806187062418 0 0.85716730853699208 1 I I #
coedge $-1 $334 $334 $-1 $480 reversed $213 $-1 #
edge $-1 $481 0 $481 6.2831853071796004 $214 $482 forward 7 unknown #
vertex $-1 $217 $483 #
ellipse-curve $-1 -69.306200525088812 9.8891522863992591 14.656343209279077 -0.85716730853699208 0 0.51503806187062418 0.51503806187062418 0 0.85716730853699208 1 I I #
face $-1 $-1 $484 $45 $-1 $485 reversed single #
loop $-1 $-1 $224 $218 #
plane-surface $-1 0 0 24.573031974100342 0 0 1 1 0 0 forward_v I I I I #
coedge $-1 $486 $487 $488 $489 reversed $219 $-1 #
coedge $-1 $490 $221 $223 $348 forward $137 $-1 #
coedge $-1 $221 $490 $486 $491 forward $137 $-1 #
coedge $-1 $488 $224 $221 $345 forward $339 $-1 #
edge $-1 $351 -7.4458416325136731 $492 5.2968993750517051 $344 $493 forward 7 unknown #
coedge $-1 $494 $495 $222 $347 forward $484 $-1 #
edge $-1 $496 -102.30364462979628 $350 -78.750438289042975 $346 $497 forward 7 unknown #
edge $-1 $351 123.33259634009619 $496 150.52949613940848 $223 $498 forward 7 unknown #
coedge $-1 $224 $488 $494 $499 forward $339 $-1 #
vertex $-1 $225 $500 #
vertex $-1 $225 $501 #
straight-curve $-1 65.181185428332512 8.5203127612446572 24.573031974100346 -1 0 0 I I #
coedge $-1 $353 $353 $-1 $502 reversed $228 $-1 #
edge $-1 $503 0 $503 6.2831853071796004 $229 $504 forward 7 unknown #
vertex $-1 $232 $505 #
ellipse-curve $-1 68.465523302061044 -0.58164510130203695 12.796428803723687 0.86602541151947299 0 0.49999998660252726 0.74999997990379086 0 -1.2990381172792094 1 I I #
coedge $-1 $357 $357 $-1 $506 reversed $235 $-1 #
edge $-1 $507 0 $507 6.2831853071796004 $236 $508 forward 7 unknown #
vertex $-1 $239 $509 #
ellipse-curve $-1 68.465523302061044 4.8795296162259802 12.796428803723687 0.86602541151947299 0 0.49999998660252726 0.74999997990379086 0 -1.2990381172792094 1 I I #
face $-1 $-1 $255 $36 $-1 $510 reversed single #
loop $-1 $-1 $377 $240 #
plane-surface $-1 0 50.272818234882337 0 0 -1 0 0 0 -1 forward_v I I I I #
coedge $-1 $511 $375 $378 $512 forward $241 $-1 #
coedge $-1 $381 $243 $244 $369 reversed $151 $-1 #
coedge $-1 $375 $511 $243 $367 reversed $241 $-1 #
edge $-1 $382 -24.573031974100342 $513 24.573031974100342 $366 $514 forward 7 unknown #
coedge $-1 $245 $244 $511 $515 forward $97 $-1 #
edge $-1 $373 -75.264748069704268 $513 75.264748069704268 $365 $516 forward 7 unknown #
coedge $-1 $378 $377 $245 $371 reversed $362 $-1 #
edge $-1 $517 -75.264748069704268 $372 75.264748069704268 $370 $518 forward 7 unknown #
vertex $-1 $247 $519 #
vertex $-1 $384 $520 #
straight-curve $-1 75.264748069704268 0 -24.573031974100342 0 -1 0 I I #
coedge $-1 $364 $366 $248 $376 reversed $241 $-1 #
edge $-1 $379 -50.272818234882337 $382 50.272818234882337 $375 $521 forward 7 unknown #
coedge $-1 $370 $249 $254 $385 forward $362 $-1 #
coedge $-1 $249 $370 $364 $512 reversed $362 $-1 #
vertex $-1 $250 $522 #
straight-curve $-1 0 50.272818234882337 24.573031974100342 -1 0 0 I I #
coedge $-1 $251 $365 $253 $384 reversed $151 $-1 #
vertex $-1 $376 $523 #
straight-curve $-1 0 -50.272818234882337 24.573031974100342 1 0 0 I I #
edge $-1 $256 -24.573031974100342 $373 24.573031974100342 $253 $524 forward 7 unknown #
edge $-1 $257 -24.573031974100342 $372 24.573031974100342 $254 $525 forward 7 unknown #
point $-1 75.264748069704268 -50.272818234882337 24.573031974100342 #
point $-1 75.264748069704268 50.272818234882337 24.573031974100342 #
face $-1 $-1 $526 $37 $-1 $527 reversed single #
loop $-1 $-1 $269 $259 #
plane-surface $-1 0 -50.272818234882337 0 0 1 0 0 0 1 forward_v I I I I #
coedge $-1 $528 $262 $395 $529 forward $159 $-1 #
coedge $-1 $262 $528 $530 $531 forward $159 $-1 #
edge $-1 $532 -75.264748069704268 $396 75.264748069704268 $262 $533 forward 7 unknown #
coedge $-1 $264 $263 $534 $535 reversed $101 $-1 #
coedge $-1 $265 $271 $391 $529 reversed $260 $-1 #
vertex $-1 $529 $536 #
straight-curve $-1 75.264748069704268 -25.707195591996452 -10.85913232641893 0 0 1 I I #
coedge $-1 $534 $537 $267 $399 forward $526 $-1 #
edge $-1 $404 -31.277814778162639 $400 -6.7121921352767551 $398 $538 forward 7 unknown #
vertex $-1 $399 $539 #
straight-curve $-1 0 -25.707195591996452 -18.863497331575378 -1 0 0 I I #
coedge $-1 $540 $269 $537 $541 forward $389 $-1 #
coedge $-1 $269 $540 $271 $406 reversed $389 $-1 #
vertex $-1 $541 $542 #
straight-curve $-1 0 -50.272818234882337 -18.863497331575378 -1 0 0 I I #
edge $-1 $273 18.863497331575378 $543 24.573031974100342 $271 $544 forward 7 unknown #
point $-1 75.264748069704268 -25.707195591996452 -18.863497331575378 #
point $-1 75.264748069704268 -50.272818234882337 -18.863497331575378 #
face $-1 $-1 $423 $38 $-1 $545 reversed single #
loop $-1 $-1 $415 $275 #
plane-surface $-1 -75.264748069704268 0 0 1 0 0 0 0 -1 forward_v I I I I #
coedge $-1 $546 $547 $278 $414 forward $276 $-1 #
coedge $-1 $279 $278 $286 $428 reversed $105 $-1 #
edge $-1 $548 -75.264748069704268 $417 75.264748069704268 $412 $549 forward 7 unknown #
coedge $-1 $550 $280 $282 $420 forward $410 $-1 #
coedge $-1 $280 $550 $546 $551 reversed $410 $-1 #
vertex $-1 $551 $552 #
vertex $-1 $420 $553 #
straight-curve $-1 -75.264748069704268 21.618864615403979 -10.70757100673859 0 0 1 I I #
edge $-1 $418 3.6459439028323999 $424 32.299897522310758 $415 $554 forward 7 unknown #
coedge $-1 $555 $283 $287 $429 forward $423 $-1 #
coedge $-1 $283 $555 $550 $556 reversed $423 $-1 #
loop $-1 $-1 $283 $409 #
vertex $-1 $556 $557 #
straight-curve $-1 0 50.272818234882337 -18.257252052854017 1 0 0 I I #
straight-curve $-1 0 21.618864615403979 -18.257252052854017 1 0 0 I I #
coedge $-1 $287 $286 $547 $558 reversed $167 $-1 #
edge $-1 $289 7.5496810461154276 $548 13.865460967361752 $286 $559 forward 7 unknown #
edge $-1 $288 18.257252052854017 $560 24.573031974100342 $287 $561 forward 7 unknown #
point $-1 75.264748069704268 50.272818234882337 -18.257252052854017 #
point $-1 75.264748069704268 21.618864615403979 -18.257252052854017 #
loop $-1 $-1 $299 $291 #
plane-surface $-1 0 0 24.573031974100342 0 0 1 1 0 0 forward_v I I I I #
coedge $-1 $435 $294 $296 $439 reversed $175 $-1 #
coedge $-1 $294 $434 $562 $563 reversed $175 $-1 #
coedge $-1 $302 $297 $294 $437 forward $292 $-1 #
edge $-1 $440 -36.394382750772344 $564 -16.561005221129836 $436 $565 forward 7 unknown #
coedge $-1 $296 $295 $443 $566 reversed $109 $-1 #
edge $-1 $567 -23.138280394167214 $440 -5.4988089932380084e-014 $434 $568 forward 7 unknown #
vertex $-1 $298 $569 #
straight-curve $-1 -75.264748069704268 -6.1023082862999161 4.739654444457841 0 -1 0 I I #
coedge $-1 $562 $299 $302 $447 forward $432 $-1 #
coedge $-1 $299 $562 $438 $566 forward $432 $-1 #
vertex $-1 $300 $570 #
straight-curve $-1 -102.14685556547532 -8.0679276283520629 24.573031974100342 -1 0 0 I I #
straight-curve $-1 -75.264748069704297 -8.0679276283520629 4.7396544444577842 0.51503806187062418 0 0.85716730853699208 I I #
edge $-1 $303 8.0679276283520629 $564 16.341305516847601 $302 $571 forward 7 unknown #
point $-1 -75.264748069704268 -8.0679276283520629 24.573031974100342 #
point $-1 -75.264748069704268 -8.0679276283520629 4.7396544444578312 #
edge $-1 $572 1 $572 0 $306 $-1 forward 7 unknown #
vertex $-1 $307 $573 #
ellipse-curve $-1 -67.628933875060824 -13.977483262991733 13.648539766395709 -0.85716730853699208 0 0.51503806187062418 0.51503806187062418 0 0.85716730853699208 1 I I #
point $-1 -68.791162463218171 -13.977483262991733 15.513510517816055 #
edge $-1 $574 1 $574 0 $310 $-1 forward 7 unknown #
vertex $-1 $311 $575 #
ellipse-curve $-1 -67.628933875060824 -10.431749882207932 13.648539766395709 -0.85716730853699208 0 0.51503806187062418 0.51503806187062418 0 0.85716730853699208 1 I I #
point $-1 -68.791162463218171 -10.431749882207932 15.513510517816055 #
plane-surface $-1 -75.264748069704268 0 0 1 0 0 0 0 -1 forward_v I I I I #
coedge $-1 $469 $468 $461 $576 forward $315 $-1 #
coedge $-1 $461 $317 $319 $465 reversed $197 $-1 #
coedge $-1 $317 $460 $459 $576 reversed $197 $-1 #
coedge $-1 $325 $320 $317 $463 forward $326 $-1 #
edge $-1 $466 -36.394382750772344 $577 -16.561005221129836 $462 $578 forward 7 unknown #
coedge $-1 $319 $318 $469 $579 reversed $123 $-1 #
edge $-1 $580 -23.138280394167214 $466 -5.4988089932380084e-014 $460 $581 forward 7 unknown #
vertex $-1 $321 $582 #
straight-curve $-1 -75.264748069704268 4.0581427980036793 4.739654444457841 0 -1 0 I I #
coedge $-1 $459 $322 $325 $473 forward $315 $-1 #
coedge $-1 $322 $459 $464 $579 forward $315 $-1 #
vertex $-1 $323 $583 #
straight-curve $-1 -102.14685556547532 12.252974540255128 24.573031974100342 -1 0 0 I I #
straight-curve $-1 -75.264748069704297 12.252974540255128 4.7396544444577842 0.51503806187062418 0 0.85716730853699208 I I #
edge $-1 $327 -12.252974540255128 $577 -3.9795966517595893 $325 $584 forward 7 unknown #
point $-1 -75.264748069704268 12.252974540255128 24.573031974100342 #
point $-1 -75.264748069704268 12.252974540255128 4.7396544444578312 #
edge $-1 $585 1 $585 0 $330 $-1 forward 7 unknown #
vertex $-1 $331 $586 #
ellipse-curve $-1 -67.628933875060824 6.343418905615458 13.648539766395709 -0.85716730853699208 0 0.51503806187062418 0.51503806187062418 0 0.85716730853699208 1 I I #
point $-1 -68.791162463218171 6.343418905615458 15.513510517816055 #
edge $-1 $587 1 $587 0 $334 $-1 forward 7 unknown #
vertex $-1 $335 $588 #
ellipse-curve $-1 -67.628933875060824 9.8891522863992591 13.648539766395709 -0.85716730853699208 0 0.51503806187062418 0.51503806187062418 0 0.85716730853699208 1 I I #
point $-1 -68.791162463218171 9.8891522863992591 15.513510517816055 #
loop $-1 $-1 $346 $338 #
plane-surface $-1 75.264748069704268 0 0 -1 0 0 0 0 1 forward_v I I I I #
coedge $-1 $487 $341 $343 $491 reversed $219 $-1 #
coedge $-1 $341 $486 $589 $590 reversed $219 $-1 #
coedge $-1 $349 $344 $341 $489 forward $339 $-1 #
edge $-1 $492 -3.514886893914678 $591 10.083562641371756 $488 $592 forward 7 unknown #
coedge $-1 $343 $342 $495 $593 reversed $137 $-1 #
edge $-1 $594 -150.52949613940848 $492 -123.33259634009619 $486 $595 forward 7 unknown #
vertex $-1 $345 $596 #
straight-curve $-1 61.666298534417827 1.074471128730984 24.573031974100346 0 -1 0 I I #
coedge $-1 $589 $346 $349 $499 reversed $484 $-1 #
coedge $-1 $346 $589 $490 $593 forward $484 $-1 #
vertex $-1 $347 $597 #
straight-curve $-1 75.264748069704268 8.5203127612446572 103.32347026314332 0 0 1 I I #
straight-curve $-1 2.0167148306882154e-006 8.5203127612446572 131.3821944732972 0.49999998660252726 0 -0.86602541151947299 I I #
edge $-1 $591 -4.222428246320721 $350 8.5203127612446572 $494 $598 forward 7 unknown #
point $-1 75.264748069704268 8.5203127612446572 24.573031974100342 #
point $-1 61.666298534417834 8.5203127612446572 24.573031974100346 #
edge $-1 $599 1 $599 0 $353 $-1 forward 7 unknown #
vertex $-1 $354 $600 #
ellipse-curve $-1 63.447653080736323 -0.58164510130203695 9.8993601841856496 0.86602541151947299 0 0.49999998660252726 0.74999997990379086 0 -1.2990381172792094 1 I I #
point $-1 69.215523281964821 -0.58164510130203695 11.497390686444472 #
edge $-1 $601 1 $601 0 $357 $-1 forward 7 unknown #
vertex $-1 $358 $602 #
ellipse-curve $-1 63.447653080736323 4.8795296162259802 9.8993601841856496 0.86602541151947299 0 0.49999998660252726 0.74999997990379086 0 -1.2990381172792094 1 I I #
point $-1 69.215523281964821 4.8795296162259802 11.497390686444472 #
plane-surface $-1 75.264748069704268 0 0 -1 0 0 0 0 1 forward_v I I I I #
coedge $-1 $366 $364 $368 $515 reversed $241 $-1 #
edge $-1 $379 -24.573031974100342 $517 24.573031974100342 $378 $603 forward 7 unknown #
vertex $-1 $515 $604 #
straight-curve $-1 -75.264748069704268 -50.272818234882337 0 0 0 -1 I I #
edge $-1 $513 -50.272818234882337 $517 50.272818234882337 $511 $605 forward 7 unknown #
straight-curve $-1 0 -50.272818234882337 -24.573031974100342 -1 0 0 I I #
vertex $-1 $371 $606 #
straight-curve $-1 0 50.272818234882337 -24.573031974100342 1 0 0 I I #
point $-1 75.264748069704268 50.272818234882337 -24.573031974100342 #
point $-1 75.264748069704268 -50.272818234882337 -24.573031974100342 #
straight-curve $-1 -75.264748069704268 0 24.573031974100342 0 -1 0 I I #
point $-1 -75.264748069704268 50.272818234882337 24.573031974100342 #
point $-1 -75.264748069704268 -50.272818234882337 24.573031974100342 #
straight-curve $-1 75.264748069704268 -50.272818234882337 0 0 0 -1 I I #
straight-curve $-1 75.264748069704268 50.272818234882337 0 0 0 -1 I I #
loop $-1 $-1 $534 $388 #
plane-surface $-1 -75.264748069704268 0 0 1 0 0 0 0 -1 forward_v I I I I #
coedge $-1 $392 $391 $540 $607 forward $159 $-1 #
edge $-1 $396 25.707195591996452 $543 50.272818234882337 $395 $608 forward 7 unknown #
coedge $-1 $537 $534 $392 $531 reversed $526 $-1 #
edge $-1 $609 -50.272818234882337 $532 -25.707195591996452 $530 $610 forward 7 unknown #
vertex $-1 $535 $611 #
straight-curve $-1 0 -25.707195591996452 -24.573031974100342 1 0 0 I I #
coedge $-1 $530 $398 $394 $535 forward $526 $-1 #
edge $-1 $400 8.0043650051564477 $532 13.713899647681412 $534 $612 forward 7 unknown #
point $-1 75.264748069704268 -25.707195591996452 -24.573031974100342 #
coedge $-1 $398 $530 $402 $541 reversed $526 $-1 #
straight-curve $-1 -75.264748069704268 -18.995003456719697 -18.863497331575378 0 1 0 I I #
point $-1 -75.264748069704268 -25.707195591996452 -18.863497331575378 #
coedge $-1 $403 $402 $528 $607 reversed $389 $-1 #
edge $-1 $404 18.863497331575378 $609 24.573031974100342 $537 $613 forward 7 unknown #
point $-1 -75.264748069704268 -50.272818234882337 -18.863497331575378 #
vertex $-1 $406 $614 #
straight-curve $-1 75.264748069704268 -50.272818234882337 0 0 0 -1 I I #
plane-surface $-1 0 50.272818234882337 0 0 -1 0 0 0 -1 forward_v I I I I #
coedge $-1 $615 $412 $416 $551 forward $276 $-1 #
coedge $-1 $412 $615 $427 $558 forward $276 $-1 #
vertex $-1 $414 $616 #
straight-curve $-1 0 21.618864615403979 -24.573031974100342 -1 0 0 I I #
coedge $-1 $416 $415 $422 $556 forward $410 $-1 #
edge $-1 $417 21.618864615403979 $617 50.272818234882337 $416 $618 forward 7 unknown #
point $-1 -75.264748069704268 21.618864615403979 -24.573031974100342 #
point $-1 -75.264748069704268 21.618864615403979 -18.257252052854017 #
straight-curve $-1 -75.264748069704268 17.972920712571579 -18.257252052854017 0 1 0 I I #
coedge $-1 $422 $421 $615 $619 reversed $423 $-1 #
edge $-1 $424 18.257252052854017 $617 24.573031974100342 $422 $620 forward 7 unknown #
point $-1 -75.264748069704268 50.272818234882337 -18.257252052854017 #
edge $-1 $560 -50.272818234882337 $548 -21.618864615403979 $427 $621 forward 7 unknown #
straight-curve $-1 75.264748069704268 21.618864615403979 -10.70757100673859 0 0 -1 I I #
vertex $-1 $558 $622 #
straight-curve $-1 75.264748069704268 50.272818234882337 0 0 0 -1 I I #
coedge $-1 $443 $442 $435 $563 forward $432 $-1 #
edge $-1 $564 26.882107495771052 $567 38.799202585001964 $562 $623 forward 7 unknown #
vertex $-1 $563 $624 #
straight-curve $-1 -75.264748069704268 -16.341305516847601 41.134037195230178 0 0 1 I I #
edge $-1 $567 -10.238997230547685 $444 -1.9656193420521468 $443 $625 forward 7 unknown #
vertex $-1 $566 $626 #
straight-curve $-1 -75.264748069704297 -16.341305516847601 4.7396544444577842 -0.51503806187062418 0 -0.85716730853699208 I I #
point $-1 -75.264748069704268 -16.341305516847601 4.7396544444578312 #
point $-1 -63.347652980473356 -8.0679276283520629 24.573031974100342 #
straight-curve $-1 -75.264748069704268 0 24.573031974100342 0 -1 0 I I #
vertex $-1 $450 $627 #
point $-1 -67.113895813190197 -13.977483262991733 14.505707074932701 #
vertex $-1 $454 $628 #
point $-1 -67.113895813190197 -10.431749882207932 14.505707074932701 #
edge $-1 $577 26.882107495771052 $580 38.799202585001964 $459 $629 forward 7 unknown #
vertex $-1 $576 $630 #
straight-curve $-1 -75.264748069704268 3.9795966517595893 41.134037195230178 0 0 1 I I #
edge $-1 $580 -0.078546146244089954 $470 8.1948317422514485 $469 $631 forward 7 unknown #
vertex $-1 $579 $632 #
straight-curve $-1 -75.264748069704297 3.9795966517595893 4.7396544444577842 -0.51503806187062418 0 -0.85716730853699208 I I #
point $-1 -75.264748069704268 3.9795966517595893 4.7396544444578312 #
point $-1 -63.347652980473356 12.252974540255128 24.573031974100342 #
straight-curve $-1 -75.264748069704268 0 24.573031974100342 0 -1 0 I I #
vertex $-1 $476 $633 #
point $-1 -67.113895813190197 6.343418905615458 14.505707074932701 #
vertex $-1 $480 $634 #
point $-1 -67.113895813190197 9.8891522863992591 14.505707074932701 #
coedge $-1 $495 $494 $487 $590 forward $484 $-1 #
edge $-1 $591 78.750438289042975 $594 102.30364462979628 $589 $635 forward 7 unknown #
vertex $-1 $499 $636 #
straight-curve $-1 65.181185428332512 -4.222428246320721 24.573031974100346 1 0 0 I I #
edge $-1 $594 -5.2968993750517051 $496 7.4458416325136731 $495 $637 forward 7 unknown #
vertex $-1 $593 $638 #
straight-curve $-1 2.0167148306882154e-006 -4.222428246320721 131.3821944732972 -0.49999998660252726 0 0.86602541151947299 I I #
point $-1 61.666298534417834 -4.222428246320721 24.573031974100346 #
point $-1 75.264748069704268 8.5203127612446572 1.0198256333470397 #
straight-curve $-1 75.264748069704268 0 24.573031974100342 0 1 0 I I #
vertex $-1 $502 $639 #
point $-1 64.197653060640107 -0.58164510130203695 8.6003220669064397 #
vertex $-1 $506 $640 #
point $-1 64.197653060640107 4.8795296162259802 8.6003220669064397 #
straight-curve $-1 -75.264748069704268 50.272818234882337 0 0 0 -1 I I #
point $-1 -75.264748069704268 -50.272818234882337 -24.573031974100342 #
straight-curve $-1 -75.264748069704268 0 -24.573031974100342 0 1 0 I I #
point $-1 -75.264748069704268 50.272818234882337 -24.573031974100342 #
edge $-1 $543 -75.264748069704268 $609 75.264748069704268 $540 $641 forward 7 unknown #
straight-curve $-1 75.264748069704268 0 -24.573031974100342 0 -1 0 I I #
vertex $-1 $531 $642 #
straight-curve $-1 -75.264748069704268 0 -24.573031974100342 0 1 0 I I #
point $-1 -75.264748069704268 -25.707195591996452 -24.573031974100342 #
straight-curve $-1 -75.264748069704268 -25.707195591996452 -10.85913232641893 0 0 -1 I I #
straight-curve $-1 -75.264748069704268 -50.272818234882337 0 0 0 -1 I I #
point $-1 75.264748069704268 -50.272818234882337 -24.573031974100342 #
coedge $-1 $547 $546 $555 $619 forward $276 $-1 #
point $-1 75.264748069704268 21.618864615403979 -24.573031974100342 #
vertex $-1 $619 $643 #
straight-curve $-1 -75.264748069704268 0 -24.573031974100342 0 1 0 I I #
edge $-1 $617 -75.264748069704268 $560 75.264748069704268 $555 $644 forward 7 unknown #
straight-curve $-1 -75.264748069704268 50.272818234882337 0 0 0 -1 I I #
straight-curve $-1 75.264748069704268 0 -24.573031974100342 0 -1 0 I I #
point $-1 75.264748069704268 50.272818234882337 -24.573031974100342 #
straight-curve $-1 -102.14685556547532 -16.341305516847601 24.573031974100342 1 0 0 I I #
point $-1 -75.264748069704268 -16.341305516847601 24.573031974100342 #
straight-curve $-1 -63.347652980473349 -6.1023082862999161 24.573031974100342 0 1 0 I I #
point $-1 -63.347652980473356 -16.341305516847601 24.573031974100342 #
point $-1 -66.771766566523837 -13.977483262991733 13.133501704525086 #
point $-1 -66.771766566523837 -10.431749882207932 13.133501704525086 #
straight-curve $-1 -102.14685556547532 3.9795966517595893 24.573031974100342 1 0 0 I I #
point $-1 -75.264748069704268 3.9795966517595893 24.573031974100342 #
straight-curve $-1 -63.347652980473349 4.0581427980036793 24.573031974100342 0 1 0 I I #
point $-1 -63.347652980473356 3.9795966517595893 24.573031974100342 #
point $-1 -66.771766566523837 6.343418905615458 13.133501704525086 #
point $-1 -66.771766566523837 9.8891522863992591 13.133501704525086 #
straight-curve $-1 75.264748069704268 -4.222428246320721 103.32347026314332 0 0 -1 I I #
point $-1 75.264748069704268 -4.222428246320721 24.573031974100342 #
straight-curve $-1 75.264748069704268 1.074471128730984 1.0198256333470397 0 1 0 I I #
point $-1 75.264748069704268 -4.222428246320721 1.0198256333470397 #
point $-1 62.148614963457113 -0.58164510130203695 9.1493602042818587 #
point $-1 62.148614963457113 4.8795296162259802 9.1493602042818587 #
straight-curve $-1 0 -50.272818234882337 -24.573031974100342 -1 0 0 I I #
point $-1 -75.264748069704268 -50.272818234882337 -24.573031974100342 #
point $-1 -75.264748069704268 50.272818234882337 -24.573031974100342 #
straight-curve $-1 0 50.272818234882337 -24.573031974100342 1 0 0 I I #
End-of-ACIS-data 