500 0 10 0           
7 Unknown 11 ACIS 5.0 NT 24 Fri Mar 26 17:33:04 1999 
-1 9.9999999999999995e-007 1e-010 
body $-1 $10 $-1 $11 #
body $-1 $12 $-1 $13 #
body $-1 $14 $-1 $15 #
body $-1 $16 $-1 $17 #
body $-1 $18 $-1 $19 #
body $-1 $20 $-1 $21 #
body $-1 $22 $-1 $23 #
body $-1 $24 $-1 $25 #
body $-1 $26 $-1 $27 #
body $-1 $28 $-1 $29 #
lump $-1 $-1 $30 $0 #
transform $-1 1 0 0 0 1 0 0 0 1 54.211859492782374 36.737233156873785 13.901892835128528 1 rotate no_reflect no_shear #
lump $-1 $-1 $31 $1 #
transform $-1 1 0 0 0 1 0 0 0 1 54.211859492782374 36.737233156873785 13.901892835128528 1 rotate no_reflect no_shear #
lump $-1 $-1 $32 $2 #
transform $-1 1 0 0 0 1 0 0 0 1 54.211859492782374 36.737233156873785 13.901892835128528 1 rotate no_reflect no_shear #
lump $-1 $-1 $33 $3 #
transform $-1 1 0 0 0 1 0 0 0 1 54.211859492782374 36.737233156873785 13.901892835128528 1 rotate no_reflect no_shear #
lump $-1 $-1 $34 $4 #
transform $-1 1 0 0 0 1 0 0 0 1 54.211859492782374 36.737233156873785 13.901892835128528 1 rotate no_reflect no_shear #
lump $-1 $-1 $35 $5 #
transform $-1 1 0 0 0 1 0 0 0 1 54.211859492782374 36.737233156873785 13.901892835128528 1 rotate no_reflect no_shear #
lump $-1 $-1 $36 $6 #
transform $-1 1 0 0 0 1 0 0 0 1 54.211859492782374 36.737233156873785 13.901892835128528 1 rotate no_reflect no_shear #
lump $-1 $-1 $37 $7 #
transform $-1 1 0 0 0 1 0 0 0 1 54.211859492782374 36.737233156873785 13.901892835128528 1 rotate no_reflect no_shear #
lump $-1 $-1 $38 $8 #
transform $-1 1 0 0 0 1 0 0 0 1 54.211859492782374 36.737233156873785 13.901892835128528 1 rotate no_reflect no_shear #
lump $-1 $-1 $39 $9 #
transform $-1 1 0 0 0 1 0 0 0 1 54.211859492782374 36.737233156873785 13.901892835128528 1 rotate no_reflect no_shear #
shell $-1 $-1 $-1 $40 $-1 $10 #
shell $-1 $-1 $-1 $41 $-1 $12 #
shell $-1 $-1 $-1 $42 $-1 $14 #
shell $-1 $-1 $-1 $43 $-1 $16 #
shell $-1 $-1 $-1 $44 $-1 $18 #
shell $-1 $-1 $-1 $45 $-1 $20 #
shell $-1 $-1 $-1 $46 $-1 $22 #
shell $-1 $-1 $-1 $47 $-1 $24 #
shell $-1 $-1 $-1 $48 $-1 $26 #
shell $-1 $-1 $-1 $49 $-1 $28 #
face $-1 $50 $51 $30 $-1 $52 reversed single #
face $-1 $53 $54 $31 $-1 $55 forward single #
face $-1 $56 $57 $32 $-1 $58 reversed single #
face $-1 $59 $60 $33 $-1 $61 forward single #
face $-1 $62 $63 $34 $-1 $64 forward single #
face $-1 $65 $66 $35 $-1 $67 reversed single #
face $-1 $68 $69 $36 $-1 $70 forward single #
face $-1 $71 $72 $37 $-1 $73 forward single #
face $-1 $74 $75 $38 $-1 $76 reversed single #
face $-1 $77 $78 $39 $-1 $79 forward single #
face $-1 $80 $81 $30 $-1 $82 forward single #
loop $-1 $-1 $83 $40 #
plane-surface $-1 0 -36.737233156873785 0 0 1 0 0 0 1 forward_v I I I I #
face $-1 $84 $85 $31 $-1 $86 reversed single #
loop $-1 $-1 $87 $41 #
plane-surface $-1 0 -36.737233156873785 0 0 1 0 0 0 1 forward_v I I I I #
face $-1 $88 $89 $32 $-1 $90 reversed single #
loop $-1 $-1 $91 $42 #
plane-surface $-1 -148.10955534572776 -22.149293757694196 62.706930209108769 0 1 0 -0.86602541151947299 0 0.49999998660252726 forward_v I I I I #
face $-1 $92 $93 $33 $-1 $94 forward single #
loop $-1 $95 $96 $43 #
cone-surface $-1 -52.218032159240416 -20.245467919582261 10.948482508728112 0.86602541151947299 0 -0.49999998660252726 0.24999999330126363 0 0.43301270575973649 1 I I 0 1 0.5 forward I I I I #
face $-1 $97 $98 $34 $-1 $99 forward single #
loop $-1 $100 $101 $44 #
cone-surface $-1 -52.218032159240416 -17.389729162414362 10.948482508728112 0.86602541151947299 0 -0.49999998660252726 0.24999999330126363 0 0.43301270575973649 1 I I 0 1 0.5 forward I I I I #
face $-1 $102 $103 $35 $-1 $104 reversed single #
loop $-1 $-1 $105 $45 #
plane-surface $-1 -148.10955534572776 27.882164356296578 62.706930209108769 0 1 0 -0.86602541151947299 0 0.49999998660252726 forward_v I I I I #
face $-1 $106 $107 $36 $-1 $108 forward single #
loop $-1 $109 $110 $46 #
cone-surface $-1 -52.218032159240416 29.785990194408512 10.948482508728112 0.86602541151947299 0 -0.49999998660252726 0.24999999330126363 0 0.43301270575973649 1 I I 0 1 0.5 forward I I I I #
face $-1 $111 $112 $37 $-1 $113 forward single #
loop $-1 $114 $115 $47 #
cone-surface $-1 -52.218032159240416 32.641728951576411 10.948482508728112 0.86602541151947299 0 -0.49999998660252726 0.24999999330126363 0 0.43301270575973649 1 I I 0 1 0.5 forward I I I I #
face $-1 $116 $117 $38 $-1 $118 reversed single #
loop $-1 $-1 $119 $48 #
plane-surface $-1 48.860571508368956 14.651729729143668 162.57837949582256 0 -1 0 -0.68199836817093118 0 -0.7313536940579346 forward_v I I I I #
face $-1 $120 $121 $39 $-1 $122 forward single #
loop $-1 $123 $124 $49 #
cone-surface $-1 50.69709627859713 9.6732231653211898 10.475042867128566 -0.68199836817093118 0 -0.7313536940579346 0.7313536940579346 0 -0.68199836817093118 1 I I 0 1 1 forward I I I I #
face $-1 $125 $126 $30 $-1 $127 reversed single #
loop $-1 $-1 $128 $50 #
plane-surface $-1 0 0 13.901892835128528 0 0 1 1 0 0 forward_v I I I I #
coedge $-1 $129 $130 $131 $132 reversed $51 $-1 #
face $-1 $133 $134 $31 $-1 $135 reversed single #
loop $-1 $-1 $136 $53 #
plane-surface $-1 0 0 -13.901892835128528 0 0 1 1 0 0 forward_v I I I I #
coedge $-1 $137 $138 $139 $140 forward $54 $-1 #
face $-1 $141 $142 $32 $-1 $143 reversed single #
loop $-1 $-1 $144 $56 #
plane-surface $-1 -54.211859492782352 -18.817598540998311 8.4950721689302142 -0.86602541151947299 0 0.49999998660252726 0.49999998660252726 0 0.86602541151947299 forward_v I I I I #
coedge $-1 $145 $146 $147 $148 reversed $57 $-1 #
face $-1 $-1 $149 $33 $-1 $150 forward single #
loop $-1 $151 $152 $59 #
cone-surface $-1 -51.568513100600811 -20.245467919582261 10.573482518776217 0.86602541151947299 0 -0.49999998660252726 0.12499999665063181 0 0.21650635287986825 1 I I -0.70710678118654746 0.70710678118654746 0.25 forward I I I I #
loop $-1 $-1 $153 $43 #
coedge $-1 $96 $96 $154 $155 reversed $60 $-1 #
face $-1 $-1 $156 $34 $-1 $157 forward single #
loop $-1 $158 $159 $62 #
cone-surface $-1 -51.568513100600811 -17.389729162414362 10.573482518776217 0.86602541151947299 0 -0.49999998660252726 0.12499999665063181 0 0.21650635287986825 1 I I -0.70710678118654746 0.70710678118654746 0.25 forward I I I I #
loop $-1 $-1 $160 $44 #
coedge $-1 $101 $101 $161 $162 reversed $63 $-1 #
face $-1 $163 $164 $35 $-1 $165 reversed single #
loop $-1 $-1 $166 $65 #
plane-surface $-1 -54.211859492782352 31.213859572992462 8.4950721689302142 -0.86602541151947299 0 0.49999998660252726 0.49999998660252726 0 0.86602541151947299 forward_v I I I I #
coedge $-1 $167 $168 $169 $170 reversed $66 $-1 #
face $-1 $-1 $171 $36 $-1 $172 forward single #
loop $-1 $173 $174 $68 #
cone-surface $-1 -51.568513100600811 29.785990194408512 10.573482518776217 0.86602541151947299 0 -0.49999998660252726 0.12499999665063181 0 0.21650635287986825 1 I I -0.70710678118654746 0.70710678118654746 0.25 forward I I I I #
loop $-1 $-1 $175 $46 #
coedge $-1 $110 $110 $176 $177 reversed $69 $-1 #
face $-1 $-1 $178 $37 $-1 $179 forward single #
loop $-1 $180 $181 $71 #
cone-surface $-1 -51.568513100600811 32.641728951576411 10.573482518776217 0.86602541151947299 0 -0.49999998660252726 0.12499999665063181 0 0.21650635287986825 1 I I -0.70710678118654746 0.70710678118654746 0.25 forward I I I I #
loop $-1 $-1 $182 $47 #
coedge $-1 $115 $115 $183 $184 reversed $72 $-1 #
face $-1 $185 $186 $38 $-1 $187 reversed single #
loop $-1 $-1 $188 $74 #
plane-surface $-1 -25.084227910809808 9.6732231653211898 83.282292092230364 0.68199836817093118 0 0.7313536940579346 0.7313536940579346 0 -0.68199836817093118 forward_v I I I I #
coedge $-1 $189 $190 $191 $192 reversed $75 $-1 #
face $-1 $-1 $193 $39 $-1 $194 forward single #
loop $-1 $195 $196 $77 #
cone-surface $-1 49.288693782848163 9.6732231653211898 8.9647161331381113 -0.68199836817093118 0 -0.7313536940579346 0.3656768470289673 0 -0.34099918408546559 1 I I -0.70710678118654746 0.70710678118654746 0.5 forward I I I I #
loop $-1 $-1 $197 $49 #
coedge $-1 $124 $124 $198 $199 reversed $78 $-1 #
face $-1 $200 $201 $30 $-1 $202 reversed single #
loop $-1 $-1 $203 $80 #
plane-surface $-1 0 0 -13.901892835128528 0 0 1 1 0 0 forward_v I I I I #
coedge $-1 $204 $205 $206 $207 forward $81 $-1 #
coedge $-1 $208 $83 $209 $210 reversed $51 $-1 #
coedge $-1 $83 $208 $211 $212 forward $51 $-1 #
coedge $-1 $213 $203 $83 $132 forward $126 $-1 #
edge $-1 $214 -54.211859492782374 $215 54.211859492782374 $83 $216 forward 7 unknown #
face $-1 $217 $218 $31 $-1 $219 reversed single #
loop $-1 $-1 $220 $84 #
plane-surface $-1 -28.356256497461281 -49.133494188867942 0 0 1 0 0 0 1 forward_v I I I I #
coedge $-1 $221 $222 $138 $223 forward $85 $-1 #
coedge $-1 $224 $87 $225 $226 reversed $54 $-1 #
coedge $-1 $87 $224 $136 $223 reversed $54 $-1 #
coedge $-1 $227 $228 $87 $140 reversed $218 $-1 #
edge $-1 $229 -13.901892835128528 $230 13.901892835128528 $139 $231 forward 7 unknown #
face $-1 $232 $233 $32 $-1 $234 reversed single #
loop $-1 $-1 $235 $88 #
plane-surface $-1 -148.10955534572776 -15.485903324302427 62.706930209108769 0 -1 0 0.86602541151947299 0 -0.49999998660252726 forward_v I I I I #
coedge $-1 $236 $237 $238 $239 reversed $89 $-1 #
coedge $-1 $146 $91 $240 $241 reversed $57 $-1 #
coedge $-1 $91 $145 $236 $242 reversed $57 $-1 #
coedge $-1 $238 $243 $91 $148 forward $244 $-1 #
edge $-1 $245 19.842918180081504 $246 22.964547435645969 $147 $247 forward 7 unknown #
loop $-1 $-1 $154 $92 #
plane-surface $-1 -54.211859492782352 -18.817598540998311 8.4950721689302142 -0.86602541151947299 0 0.49999998660252726 0.49999998660252726 0 0.86602541151947299 forward_v I I I I #
loop $-1 $-1 $248 $59 #
coedge $-1 $152 $152 $153 $249 reversed $93 $-1 #
coedge $-1 $153 $153 $152 $249 forward $95 $-1 #
coedge $-1 $154 $154 $96 $155 forward $149 $-1 #
edge $-1 $250 0 $250 6.2831853071796004 $154 $251 forward 7 unknown #
loop $-1 $-1 $161 $97 #
plane-surface $-1 -54.211859492782352 -18.817598540998311 8.4950721689302142 -0.86602541151947299 0 0.49999998660252726 0.49999998660252726 0 0.86602541151947299 forward_v I I I I #
loop $-1 $-1 $252 $62 #
coedge $-1 $159 $159 $160 $253 reversed $98 $-1 #
coedge $-1 $160 $160 $159 $253 forward $100 $-1 #
coedge $-1 $161 $161 $101 $162 forward $156 $-1 #
edge $-1 $254 0 $254 6.2831853071796004 $161 $255 forward 7 unknown #
face $-1 $256 $257 $35 $-1 $258 forward single #
loop $-1 $-1 $259 $102 #
plane-surface $-1 -148.10955534572776 34.545554789688346 62.706930209108769 0 -1 0 0.86602541151947299 0 -0.49999998660252726 forward_v I I I I #
coedge $-1 $260 $261 $262 $263 reversed $103 $-1 #
coedge $-1 $168 $105 $264 $265 reversed $66 $-1 #
coedge $-1 $105 $167 $260 $266 reversed $66 $-1 #
coedge $-1 $262 $267 $105 $170 forward $257 $-1 #
edge $-1 $268 19.842918180081504 $269 22.964547435645969 $169 $270 forward 7 unknown #
loop $-1 $-1 $176 $106 #
plane-surface $-1 -54.211859492782352 31.213859572992462 8.4950721689302142 -0.86602541151947299 0 0.49999998660252726 0.49999998660252726 0 0.86602541151947299 forward_v I I I I #
loop $-1 $-1 $271 $68 #
coedge $-1 $174 $174 $175 $272 reversed $107 $-1 #
coedge $-1 $175 $175 $174 $272 forward $109 $-1 #
coedge $-1 $176 $176 $110 $177 forward $171 $-1 #
edge $-1 $273 0 $273 6.2831853071796004 $176 $274 forward 7 unknown #
loop $-1 $-1 $183 $111 #
plane-surface $-1 -54.211859492782352 31.213859572992462 8.4950721689302142 -0.86602541151947299 0 0.49999998660252726 0.49999998660252726 0 0.86602541151947299 forward_v I I I I #
loop $-1 $-1 $275 $71 #
coedge $-1 $181 $181 $182 $276 reversed $112 $-1 #
coedge $-1 $182 $182 $181 $276 forward $114 $-1 #
coedge $-1 $183 $183 $115 $184 forward $178 $-1 #
edge $-1 $277 0 $277 6.2831853071796004 $183 $278 forward 7 unknown #
face $-1 $279 $280 $38 $-1 $281 forward single #
loop $-1 $-1 $282 $116 #
plane-surface $-1 48.860571508368956 4.6947166014987118 162.57837949582256 0 1 0 0.68199836817093118 0 0.7313536940579346 forward_v I I I I #
coedge $-1 $283 $284 $285 $286 reversed $117 $-1 #
coedge $-1 $190 $119 $287 $288 reversed $75 $-1 #
coedge $-1 $119 $189 $283 $289 reversed $75 $-1 #
coedge $-1 $285 $290 $119 $192 forward $280 $-1 #
edge $-1 $291 -29.781573738597896 $292 -24.886853933554402 $191 $293 forward 7 unknown #
loop $-1 $-1 $198 $120 #
plane-surface $-1 -25.084227910809808 9.6732231653211898 83.282292092230364 0.68199836817093118 0 0.7313536940579346 0.7313536940579346 0 -0.68199836817093118 forward_v I I I I #
loop $-1 $-1 $294 $77 #
coedge $-1 $196 $196 $197 $295 reversed $121 $-1 #
coedge $-1 $197 $197 $196 $295 forward $123 $-1 #
coedge $-1 $198 $198 $124 $199 forward $193 $-1 #
edge $-1 $296 0 $296 6.2831853071796004 $198 $297 forward 7 unknown #
face $-1 $298 $299 $30 $-1 $300 reversed single #
loop $-1 $-1 $301 $125 #
plane-surface $-1 -54.211859492782374 0 0 1 0 0 0 0 -1 forward_v I I I I #
coedge $-1 $131 $302 $303 $304 forward $126 $-1 #
coedge $-1 $305 $128 $306 $307 forward $81 $-1 #
coedge $-1 $128 $305 $208 $308 forward $81 $-1 #
coedge $-1 $209 $309 $128 $207 reversed $310 $-1 #
edge $-1 $311 -36.737233156873785 $312 36.737233156873785 $206 $313 forward 7 unknown #
coedge $-1 $130 $129 $205 $308 reversed $51 $-1 #
coedge $-1 $303 $206 $129 $210 forward $310 $-1 #
edge $-1 $311 -13.901892835128528 $214 13.901892835128528 $209 $314 forward 7 unknown #
coedge $-1 $315 $316 $130 $212 reversed $201 $-1 #
edge $-1 $317 -13.901892835128528 $215 13.901892835128528 $211 $318 forward 7 unknown #
coedge $-1 $302 $131 $316 $319 forward $126 $-1 #
vertex $-1 $210 $320 #
vertex $-1 $319 $321 #
straight-curve $-1 0 -36.737233156873785 -13.901892835128528 -1 0 0 I I #
face $-1 $322 $323 $31 $-1 $324 reversed single #
loop $-1 $-1 $139 $133 #
plane-surface $-1 -30.304439172397245 -42.935363672870864 0 1 0 0 0 0 -1 forward_v I I I I #
coedge $-1 $325 $326 $327 $328 forward $134 $-1 #
coedge $-1 $329 $136 $330 $331 forward $85 $-1 #
coedge $-1 $136 $329 $227 $332 forward $85 $-1 #
edge $-1 $229 -30.304439172397245 $333 -26.408073822525317 $136 $334 forward 7 unknown #
coedge $-1 $138 $137 $335 $336 forward $54 $-1 #
coedge $-1 $337 $338 $137 $226 forward $339 $-1 #
edge $-1 $340 26.408073822525317 $230 30.304439172397245 $225 $341 forward 7 unknown #
coedge $-1 $327 $139 $222 $332 reversed $218 $-1 #
coedge $-1 $139 $327 $337 $342 reversed $218 $-1 #
vertex $-1 $223 $343 #
vertex $-1 $342 $344 #
straight-curve $-1 -30.304439172397245 -36.737233156873785 0 0 0 1 I I #
face $-1 $-1 $244 $32 $-1 $345 forward single #
loop $-1 $-1 $346 $141 #
plane-surface $-1 -54.211859492782374 0 0 1 0 0 0 0 -1 forward_v I I I I #
coedge $-1 $347 $348 $349 $350 reversed $142 $-1 #
coedge $-1 $351 $144 $146 $242 forward $89 $-1 #
coedge $-1 $144 $351 $347 $352 forward $89 $-1 #
coedge $-1 $349 $147 $144 $239 forward $244 $-1 #
edge $-1 $246 -12.74049448719504 $353 -6.0771040538032715 $238 $354 forward 7 unknown #
coedge $-1 $355 $356 $145 $241 forward $233 $-1 #
edge $-1 $357 -22.858392935624209 $245 -17.451572269425856 $240 $358 forward 7 unknown #
edge $-1 $246 -6.2432586784166642 $357 4.2963914170604875e-014 $146 $359 forward 7 unknown #
coedge $-1 $147 $349 $355 $360 forward $244 $-1 #
loop $-1 $-1 $349 $232 #
vertex $-1 $241 $361 #
vertex $-1 $148 $362 #
straight-curve $-1 -74.054777672863878 -22.149293757694196 13.901892835128528 1 0 0 I I #
coedge $-1 $248 $248 $-1 $363 reversed $151 $-1 #
edge $-1 $364 0 $364 6.2831853071796004 $152 $365 forward 7 unknown #
vertex $-1 $155 $366 #
ellipse-curve $-1 -52.651044865000131 -20.245467919582261 11.198482502029366 -0.86602541151947299 0 0.49999998660252726 0.24999999330126363 0 0.43301270575973649 1 I I #
coedge $-1 $252 $252 $-1 $367 reversed $158 $-1 #
edge $-1 $368 0 $368 6.2831853071796004 $159 $369 forward 7 unknown #
vertex $-1 $162 $370 #
ellipse-curve $-1 -52.651044865000131 -17.389729162414362 11.198482502029366 -0.86602541151947299 0 0.49999998660252726 0.24999999330126363 0 0.43301270575973649 1 I I #
face $-1 $-1 $371 $35 $-1 $372 reversed single #
loop $-1 $-1 $169 $163 #
plane-surface $-1 0 0 13.901892835128528 0 0 1 1 0 0 forward_v I I I I #
coedge $-1 $373 $374 $375 $376 reversed $164 $-1 #
coedge $-1 $377 $166 $168 $266 forward $103 $-1 #
coedge $-1 $166 $377 $373 $378 forward $103 $-1 #
coedge $-1 $375 $169 $166 $263 forward $257 $-1 #
edge $-1 $269 12.275234569800347 $379 18.938625003192115 $262 $380 forward 7 unknown #
coedge $-1 $381 $382 $167 $265 forward $371 $-1 #
edge $-1 $383 -22.858392935624209 $268 -17.451572269425856 $264 $384 forward 7 unknown #
edge $-1 $269 -6.2432586784166642 $383 4.2963914170604875e-014 $168 $385 forward 7 unknown #
coedge $-1 $169 $375 $381 $386 forward $257 $-1 #
vertex $-1 $170 $387 #
vertex $-1 $170 $388 #
straight-curve $-1 -74.054777672863878 27.882164356296578 13.901892835128528 1 0 0 I I #
coedge $-1 $271 $271 $-1 $389 reversed $173 $-1 #
edge $-1 $390 0 $390 6.2831853071796004 $174 $391 forward 7 unknown #
vertex $-1 $177 $392 #
ellipse-curve $-1 -52.651044865000131 29.785990194408512 11.198482502029366 -0.86602541151947299 0 0.49999998660252726 0.24999999330126363 0 0.43301270575973649 1 I I #
coedge $-1 $275 $275 $-1 $393 reversed $180 $-1 #
edge $-1 $394 0 $394 6.2831853071796004 $181 $395 forward 7 unknown #
vertex $-1 $184 $396 #
ellipse-curve $-1 -52.651044865000131 32.641728951576411 11.198482502029366 -0.86602541151947299 0 0.49999998660252726 0.24999999330126363 0 0.43301270575973649 1 I I #
face $-1 $-1 $397 $38 $-1 $398 reversed single #
loop $-1 $-1 $191 $185 #
plane-surface $-1 0 0 13.901892835128528 0 0 1 1 0 0 forward_v I I I I #
coedge $-1 $399 $400 $401 $402 reversed $186 $-1 #
coedge $-1 $403 $188 $190 $289 forward $117 $-1 #
coedge $-1 $188 $403 $399 $404 forward $117 $-1 #
coedge $-1 $401 $191 $188 $286 forward $280 $-1 #
edge $-1 $292 -9.8151181464830728 $405 0.14189498116188304 $285 $406 forward 7 unknown #
coedge $-1 $407 $408 $189 $288 forward $397 $-1 #
edge $-1 $409 -71.95169707485968 $291 -67.387296912782745 $287 $410 forward 7 unknown #
edge $-1 $292 101.73103411255204 $409 108.42371898556473 $190 $411 forward 7 unknown #
coedge $-1 $191 $401 $407 $412 forward $280 $-1 #
vertex $-1 $192 $413 #
vertex $-1 $192 $414 #
straight-curve $-1 24.430285754184478 14.651729729143668 13.901892835128535 -1 0 0 I I #
coedge $-1 $294 $294 $-1 $415 reversed $195 $-1 #
edge $-1 $416 0 $416 6.2831853071796004 $196 $417 forward 7 unknown #
vertex $-1 $199 $418 #
ellipse-curve $-1 51.764499590260634 9.6732231653211898 11.61969275409006 0.68199836817093118 0 0.7313536940579346 0.7313536940579346 0 -0.68199836817093118 1 I I #
face $-1 $-1 $310 $30 $-1 $419 reversed single #
loop $-1 $-1 $420 $200 #
plane-surface $-1 0 36.737233156873785 0 0 -1 0 0 0 -1 forward_v I I I I #
coedge $-1 $316 $315 $421 $422 forward $201 $-1 #
coedge $-1 $203 $213 $423 $424 forward $126 $-1 #
coedge $-1 $309 $209 $203 $304 reversed $310 $-1 #
edge $-1 $425 -36.737233156873785 $214 36.737233156873785 $303 $426 forward 7 unknown #
coedge $-1 $205 $204 $315 $427 forward $81 $-1 #
coedge $-1 $420 $421 $204 $307 reversed $299 $-1 #
edge $-1 $312 -54.211859492782374 $428 54.211859492782374 $306 $429 forward 7 unknown #
edge $-1 $317 -54.211859492782374 $311 54.211859492782374 $208 $430 forward 7 unknown #
coedge $-1 $206 $303 $420 $431 reversed $310 $-1 #
loop $-1 $-1 $209 $298 #
vertex $-1 $207 $432 #
vertex $-1 $207 $433 #
straight-curve $-1 54.211859492782374 0 13.901892835128528 0 1 0 I I #
straight-curve $-1 54.211859492782374 -36.737233156873785 0 0 0 -1 I I #
coedge $-1 $301 $211 $305 $427 reversed $201 $-1 #
coedge $-1 $211 $301 $213 $319 reversed $201 $-1 #
vertex $-1 $427 $434 #
straight-curve $-1 -54.211859492782374 -36.737233156873785 0 0 0 -1 I I #
edge $-1 $215 -36.737233156873785 $435 36.737233156873785 $316 $436 forward 7 unknown #
point $-1 54.211859492782374 -36.737233156873785 -13.901892835128528 #
point $-1 -54.211859492782374 -36.737233156873785 -13.901892835128528 #
face $-1 $-1 $339 $31 $-1 $437 forward single #
loop $-1 $-1 $438 $217 #
plane-surface $-1 -26.408073822525317 -42.935363672870864 0 -1 0 0 0 0 1 forward_v I I I I #
coedge $-1 $439 $220 $329 $440 reversed $134 $-1 #
coedge $-1 $220 $439 $441 $442 reversed $134 $-1 #
coedge $-1 $228 $227 $220 $328 reversed $218 $-1 #
edge $-1 $443 -13.901892835128528 $444 13.901892835128528 $327 $445 forward 7 unknown #
coedge $-1 $222 $221 $325 $440 forward $85 $-1 #
coedge $-1 $335 $438 $221 $331 reversed $323 $-1 #
edge $-1 $333 -6.1981305159970788 $446 6.1981305159970788 $330 $447 forward 7 unknown #
edge $-1 $444 -6.1981305159970788 $229 6.1981305159970788 $227 $448 forward 7 unknown #
vertex $-1 $331 $449 #
straight-curve $-1 0 -36.737233156873785 -13.901892835128528 1 0 0 I I #
coedge $-1 $450 $330 $224 $336 reversed $323 $-1 #
edge $-1 $340 -13.901892835128528 $333 13.901892835128528 $335 $451 forward 7 unknown #
coedge $-1 $441 $225 $228 $342 forward $339 $-1 #
coedge $-1 $225 $441 $450 $452 forward $339 $-1 #
loop $-1 $-1 $225 $322 #
vertex $-1 $226 $453 #
straight-curve $-1 0 -36.737233156873785 13.901892835128528 -1 0 0 I I #
edge $-1 $230 -6.1981305159970788 $443 6.1981305159970788 $228 $454 forward 7 unknown #
point $-1 -30.304439172397245 -36.737233156873785 -13.901892835128528 #
point $-1 -30.304439172397245 -36.737233156873785 13.901892835128528 #
plane-surface $-1 0 0 13.901892835128528 0 0 1 1 0 0 forward_v I I I I #
coedge $-1 $356 $355 $348 $455 forward $233 $-1 #
coedge $-1 $348 $235 $237 $352 reversed $142 $-1 #
coedge $-1 $235 $347 $346 $455 reversed $142 $-1 #
coedge $-1 $243 $238 $235 $350 forward $244 $-1 #
edge $-1 $353 -22.964547435645969 $456 -19.842918180081504 $349 $457 forward 7 unknown #
coedge $-1 $237 $236 $356 $458 reversed $89 $-1 #
edge $-1 $459 -4.2963914170604875e-014 $353 6.2432586784166642 $347 $460 forward 7 unknown #
vertex $-1 $239 $461 #
straight-curve $-1 -51.090230237217909 -9.4087992704991557 13.901892835128528 0 1 0 I I #
coedge $-1 $346 $240 $243 $360 reversed $233 $-1 #
coedge $-1 $240 $346 $351 $458 forward $233 $-1 #
vertex $-1 $241 $462 #
straight-curve $-1 -54.211859492782374 -22.149293757694196 31.353465104554385 0 0 1 I I #
straight-curve $-1 -54.211859492782352 -22.149293757694196 8.4950721689302142 -0.49999998660252726 0 -0.86602541151947299 I I #
edge $-1 $456 15.485903324302427 $245 22.149293757694196 $355 $463 forward 7 unknown #
point $-1 -54.211859492782374 -22.149293757694196 13.901892835128528 #
point $-1 -51.090230237217909 -22.149293757694196 13.901892835128528 #
edge $-1 $464 1 $464 0 $248 $-1 forward 7 unknown #
vertex $-1 $249 $465 #
ellipse-curve $-1 -51.785019453480679 -20.245467919582261 10.698482515426848 -0.86602541151947299 0 0.49999998660252726 0.24999999330126363 0 0.43301270575973649 1 I I #
point $-1 -52.401044871698886 -20.245467919582261 11.631495207789113 #
edge $-1 $466 1 $466 0 $252 $-1 forward 7 unknown #
vertex $-1 $253 $467 #
ellipse-curve $-1 -51.785019453480679 -17.389729162414362 10.698482515426848 -0.86602541151947299 0 0.49999998660252726 0.24999999330126363 0 0.43301270575973649 1 I I #
point $-1 -52.401044871698886 -17.389729162414362 11.631495207789113 #
loop $-1 $-1 $264 $256 #
plane-surface $-1 -54.211859492782374 0 0 1 0 0 0 0 -1 forward_v I I I I #
coedge $-1 $374 $259 $261 $378 reversed $164 $-1 #
coedge $-1 $259 $373 $468 $469 reversed $164 $-1 #
coedge $-1 $267 $262 $259 $376 forward $257 $-1 #
edge $-1 $379 -22.964547435645969 $470 -19.842918180081504 $375 $471 forward 7 unknown #
coedge $-1 $261 $260 $382 $472 reversed $103 $-1 #
edge $-1 $473 -4.2963914170604875e-014 $379 6.2432586784166642 $373 $474 forward 7 unknown #
vertex $-1 $263 $475 #
straight-curve $-1 -51.090230237217909 15.606929786496231 13.901892835128528 0 1 0 I I #
coedge $-1 $468 $264 $267 $386 reversed $371 $-1 #
coedge $-1 $264 $468 $377 $472 forward $371 $-1 #
vertex $-1 $265 $476 #
straight-curve $-1 -54.211859492782374 27.882164356296578 31.353465104554385 0 0 1 I I #
straight-curve $-1 -54.211859492782352 27.882164356296578 8.4950721689302142 -0.49999998660252726 0 -0.86602541151947299 I I #
edge $-1 $470 -34.545554789688346 $268 -27.882164356296578 $381 $477 forward 7 unknown #
point $-1 -54.211859492782374 27.882164356296578 13.901892835128528 #
point $-1 -51.090230237217909 27.882164356296578 13.901892835128528 #
edge $-1 $478 1 $478 0 $271 $-1 forward 7 unknown #
vertex $-1 $272 $479 #
ellipse-curve $-1 -51.785019453480679 29.785990194408512 10.698482515426848 -0.86602541151947299 0 0.49999998660252726 0.24999999330126363 0 0.43301270575973649 1 I I #
point $-1 -52.401044871698886 29.785990194408512 11.631495207789113 #
edge $-1 $480 1 $480 0 $275 $-1 forward 7 unknown #
vertex $-1 $276 $481 #
ellipse-curve $-1 -51.785019453480679 32.641728951576411 10.698482515426848 -0.86602541151947299 0 0.49999998660252726 0.24999999330126363 0 0.43301270575973649 1 I I #
point $-1 -52.401044871698886 32.641728951576411 11.631495207789113 #
loop $-1 $-1 $287 $279 #
plane-surface $-1 54.211859492782374 0 0 -1 0 0 0 0 1 forward_v I I I I #
coedge $-1 $400 $282 $284 $404 reversed $186 $-1 #
coedge $-1 $282 $399 $482 $483 reversed $186 $-1 #
coedge $-1 $290 $285 $282 $402 forward $280 $-1 #
edge $-1 $405 24.886853933554402 $484 29.781573738597896 $401 $485 forward 7 unknown #
coedge $-1 $284 $283 $408 $486 reversed $117 $-1 #
edge $-1 $487 -108.42371898556473 $405 -101.73103411255204 $399 $488 forward 7 unknown #
vertex $-1 $286 $489 #
straight-curve $-1 49.31713968773888 4.8366115826605949 13.901892835128535 0 -1 0 I I #
coedge $-1 $482 $287 $290 $412 reversed $397 $-1 #
coedge $-1 $287 $482 $403 $486 forward $397 $-1 #
vertex $-1 $288 $490 #
straight-curve $-1 54.211859492782374 14.651729729143668 81.28918974791128 0 0 1 I I #
straight-curve $-1 -25.084227910809808 14.651729729143668 83.282292092230364 0.7313536940579346 0 -0.68199836817093118 I I #
edge $-1 $484 4.6947166014987118 $291 14.651729729143668 $407 $491 forward 7 unknown #
point $-1 54.211859492782374 14.651729729143668 13.901892835128528 #
point $-1 49.31713968773888 14.651729729143668 13.901892835128535 #
edge $-1 $492 1 $492 0 $294 $-1 forward 7 unknown #
vertex $-1 $295 $493 #
ellipse-curve $-1 49.629692966933632 9.6732231653211898 9.330392980167078 0.68199836817093118 0 0.7313536940579346 0.7313536940579346 0 -0.68199836817093118 1 I I #
point $-1 52.495853284318571 9.6732231653211898 10.937694385919125 #
plane-surface $-1 54.211859492782374 0 0 -1 0 0 0 0 1 forward_v I I I I #
coedge $-1 $423 $306 $309 $431 forward $299 $-1 #
coedge $-1 $306 $423 $301 $422 reversed $299 $-1 #
edge $-1 $428 -13.901892835128528 $435 13.901892835128528 $421 $494 forward 7 unknown #
coedge $-1 $421 $420 $302 $424 reversed $299 $-1 #
edge $-1 $435 -54.211859492782374 $425 54.211859492782374 $423 $495 forward 7 unknown #
vertex $-1 $304 $496 #
straight-curve $-1 54.211859492782374 0 -13.901892835128528 0 -1 0 I I #
edge $-1 $428 -36.737233156873785 $317 36.737233156873785 $315 $497 forward 7 unknown #
vertex $-1 $307 $498 #
straight-curve $-1 0 36.737233156873785 13.901892835128528 -1 0 0 I I #
straight-curve $-1 0 -36.737233156873785 13.901892835128528 1 0 0 I I #
edge $-1 $312 -13.901892835128528 $425 13.901892835128528 $309 $499 forward 7 unknown #
point $-1 54.211859492782374 -36.737233156873785 13.901892835128528 #
point $-1 54.211859492782374 36.737233156873785 13.901892835128528 #
point $-1 -54.211859492782374 -36.737233156873785 13.901892835128528 #
vertex $-1 $424 $500 #
straight-curve $-1 -54.211859492782374 0 -13.901892835128528 0 1 0 I I #
plane-surface $-1 0 0 13.901892835128528 0 0 1 1 0 0 forward_v I I I I #
coedge $-1 $330 $450 $439 $501 forward $323 $-1 #
coedge $-1 $326 $325 $438 $501 reversed $134 $-1 #
edge $-1 $446 -1.9481826749359641 $444 1.9481826749359641 $325 $502 forward 7 unknown #
coedge $-1 $338 $337 $326 $442 forward $339 $-1 #
edge $-1 $443 -1.9481826749359641 $503 1.9481826749359641 $326 $504 forward 7 unknown #
vertex $-1 $342 $505 #
vertex $-1 $332 $506 #
straight-curve $-1 -30.304439172397245 -49.133494188867942 0 0 0 -1 I I #
vertex $-1 $501 $507 #
straight-curve $-1 -26.408073822525317 -42.935363672870864 -13.901892835128528 0 -1 0 I I #
straight-curve $-1 -30.304439172397245 -42.935363672870864 -13.901892835128528 0 1 0 I I #
point $-1 -26.408073822525317 -36.737233156873785 -13.901892835128528 #
coedge $-1 $438 $335 $338 $452 reversed $323 $-1 #
straight-curve $-1 -26.408073822525317 -36.737233156873785 0 0 0 -1 I I #
edge $-1 $503 -6.1981305159970788 $340 6.1981305159970788 $450 $508 forward 7 unknown #
point $-1 -26.408073822525317 -36.737233156873785 13.901892835128528 #
straight-curve $-1 -30.304439172397245 -42.935363672870864 13.901892835128528 0 -1 0 I I #
edge $-1 $456 17.451572269425856 $459 22.858392935624209 $346 $509 forward 7 unknown #
vertex $-1 $360 $510 #
straight-curve $-1 -74.054777672863878 -15.485903324302427 13.901892835128528 -1 0 0 I I #
edge $-1 $459 6.0771040538032715 $357 12.74049448719504 $356 $511 forward 7 unknown #
vertex $-1 $458 $512 #
straight-curve $-1 -54.211859492782352 -15.485903324302427 8.4950721689302142 0.49999998660252726 0 0.86602541151947299 I I #
point $-1 -51.090230237217909 -15.485903324302427 13.901892835128528 #
point $-1 -54.211859492782374 -22.149293757694196 8.4950721689301769 #
straight-curve $-1 -54.211859492782374 0 13.901892835128528 0 -1 0 I I #
vertex $-1 $363 $513 #
point $-1 -51.535019460179413 -20.245467919582261 11.131495221186585 #
vertex $-1 $367 $514 #
point $-1 -51.535019460179413 -17.389729162414362 11.131495221186585 #
coedge $-1 $382 $381 $374 $469 forward $371 $-1 #
edge $-1 $470 17.451572269425856 $473 22.858392935624209 $468 $515 forward 7 unknown #
vertex $-1 $386 $516 #
straight-curve $-1 -74.054777672863878 34.545554789688346 13.901892835128528 -1 0 0 I I #
edge $-1 $473 -18.938625003192115 $383 -12.275234569800347 $382 $517 forward 7 unknown #
vertex $-1 $472 $518 #
straight-curve $-1 -54.211859492782352 34.545554789688346 8.4950721689302142 0.49999998660252726 0 0.86602541151947299 I I #
point $-1 -51.090230237217909 34.545554789688346 13.901892835128528 #
point $-1 -54.211859492782374 27.882164356296578 8.4950721689301769 #
straight-curve $-1 -54.211859492782374 0 13.901892835128528 0 -1 0 I I #
vertex $-1 $389 $519 #
point $-1 -51.535019460179413 29.785990194408512 11.131495221186585 #
vertex $-1 $393 $520 #
point $-1 -51.535019460179413 32.641728951576411 11.131495221186585 #
coedge $-1 $408 $407 $400 $483 forward $397 $-1 #
edge $-1 $484 67.387296912782745 $487 71.95169707485968 $482 $521 forward 7 unknown #
vertex $-1 $412 $522 #
straight-curve $-1 24.430285754184478 4.6947166014987118 13.901892835128535 1 0 0 I I #
edge $-1 $487 -0.14189498116188304 $409 9.8151181464830728 $408 $523 forward 7 unknown #
vertex $-1 $486 $524 #
straight-curve $-1 -25.084227910809808 4.6947166014987118 83.282292092230364 -0.7313536940579346 0 0.68199836817093118 I I #
point $-1 49.31713968773888 4.6947166014987118 13.901892835128535 #
point $-1 54.211859492782374 14.651729729143668 9.3374926730515995 #
straight-curve $-1 54.211859492782374 0 13.901892835128528 0 1 0 I I #
vertex $-1 $415 $525 #
point $-1 50.361046660991562 9.6732231653211898 8.6483946119961477 #
straight-curve $-1 -54.211859492782374 36.737233156873785 0 0 0 -1 I I #
straight-curve $-1 0 36.737233156873785 -13.901892835128528 1 0 0 I I #
point $-1 54.211859492782374 36.737233156873785 -13.901892835128528 #
straight-curve $-1 -54.211859492782374 0 13.901892835128528 0 -1 0 I I #
point $-1 -54.211859492782374 36.737233156873785 13.901892835128528 #
straight-curve $-1 54.211859492782374 36.737233156873785 0 0 0 -1 I I #
point $-1 -54.211859492782374 36.737233156873785 -13.901892835128528 #
edge $-1 $503 -13.901892835128528 $446 13.901892835128528 $438 $526 forward 7 unknown #
straight-curve $-1 -28.356256497461281 -49.133494188867942 -13.901892835128528 -1 0 0 I I #
vertex $-1 $452 $527 #
straight-curve $-1 -28.356256497461281 -49.133494188867942 13.901892835128528 1 0 0 I I #
point $-1 -30.304439172397245 -49.133494188867942 13.901892835128528 #
point $-1 -30.304439172397245 -49.133494188867942 -13.901892835128528 #
point $-1 -26.408073822525317 -49.133494188867942 -13.901892835128528 #
straight-curve $-1 -26.408073822525317 -42.935363672870864 13.901892835128528 0 1 0 I I #
straight-curve $-1 -54.211859492782374 -15.485903324302427 31.353465104554385 0 0 -1 I I #
point $-1 -54.211859492782374 -15.485903324302427 13.901892835128528 #
straight-curve $-1 -54.211859492782374 -9.4087992704991557 8.4950721689301858 0 -1 0 I I #
point $-1 -54.211859492782374 -15.485903324302427 8.4950721689301769 #
point $-1 -51.352006747720942 -20.245467919582261 10.448482522125586 #
point $-1 -51.352006747720942 -17.389729162414362 10.448482522125586 #
straight-curve $-1 -54.211859492782374 34.545554789688346 31.353465104554385 0 0 -1 I I #
point $-1 -54.211859492782374 34.545554789688346 13.901892835128528 #
straight-curve $-1 -54.211859492782374 15.606929786496231 8.4950721689301858 0 -1 0 I I #
point $-1 -54.211859492782374 34.545554789688346 8.4950721689301769 #
point $-1 -51.352006747720942 29.785990194408512 10.448482522125586 #
point $-1 -51.352006747720942 32.641728951576411 10.448482522125586 #
straight-curve $-1 54.211859492782374 4.6947166014987118 81.28918974791128 0 0 -1 I I #
point $-1 54.211859492782374 4.6947166014987118 13.901892835128528 #
straight-curve $-1 54.211859492782366 4.8366115826605949 9.3374926730516208 0 1 0 I I #
point $-1 54.211859492782374 4.6947166014987118 9.3374926730515995 #
point $-1 48.947694598762695 9.6732231653211898 8.5990392861091447 #
straight-curve $-1 -26.408073822525317 -49.133494188867942 0 0 0 -1 I I #
point $-1 -26.408073822525317 -49.133494188867942 13.901892835128528 #
End-of-ACIS-data 