500 0 14 0           
7 Unknown 11 ACIS 5.0 NT 24 Thu Mar 25 21:18:02 1999 
-1 9.9999999999999995e-007 1e-010 
body $-1 $14 $-1 $15 #
body $-1 $16 $-1 $17 #
body $-1 $18 $-1 $19 #
body $-1 $20 $-1 $21 #
body $-1 $22 $-1 $23 #
body $-1 $24 $-1 $25 #
body $-1 $26 $-1 $27 #
body $-1 $28 $-1 $29 #
body $-1 $30 $-1 $31 #
body $-1 $32 $-1 $33 #
body $-1 $34 $-1 $35 #
body $-1 $36 $-1 $37 #
body $-1 $38 $-1 $39 #
body $-1 $40 $-1 $41 #
lump $-1 $-1 $42 $0 #
transform $-1 1 0 0 0 1 0 0 0 1 61.428876613666191 34.957674469050332 13.528375709471103 1 rotate no_reflect no_shear #
lump $-1 $-1 $43 $1 #
transform $-1 1 0 0 0 1 0 0 0 1 61.428876613666191 34.957674469050332 13.528375709471103 1 rotate no_reflect no_shear #
lump $-1 $-1 $44 $2 #
transform $-1 1 0 0 0 1 0 0 0 1 61.428876613666191 34.957674469050332 13.528375709471103 1 rotate no_reflect no_shear #
lump $-1 $-1 $45 $3 #
transform $-1 1 0 0 0 1 0 0 0 1 61.428876613666191 34.957674469050332 13.528375709471103 1 rotate no_reflect no_shear #
lump $-1 $-1 $46 $4 #
transform $-1 1 0 0 0 1 0 0 0 1 61.428876613666191 34.957674469050332 13.528375709471103 1 rotate no_reflect no_shear #
lump $-1 $-1 $47 $5 #
transform $-1 1 0 0 0 1 0 0 0 1 61.428876613666191 34.957674469050332 13.528375709471103 1 rotate no_reflect no_shear #
lump $-1 $-1 $48 $6 #
transform $-1 1 0 0 0 1 0 0 0 1 61.428876613666191 34.957674469050332 13.528375709471103 1 rotate no_reflect no_shear #
lump $-1 $-1 $49 $7 #
transform $-1 1 0 0 0 1 0 0 0 1 61.428876613666191 34.957674469050332 13.528375709471103 1 rotate no_reflect no_shear #
lump $-1 $-1 $50 $8 #
transform $-1 1 0 0 0 1 0 0 0 1 61.428876613666191 34.957674469050332 13.528375709471103 1 rotate no_reflect no_shear #
lump $-1 $-1 $51 $9 #
transform $-1 1 0 0 0 1 0 0 0 1 61.428876613666191 34.957674469050332 13.528375709471103 1 rotate no_reflect no_shear #
lump $-1 $-1 $52 $10 #
transform $-1 1 0 0 0 1 0 0 0 1 61.428876613666191 34.957674469050332 13.528375709471103 1 rotate no_reflect no_shear #
lump $-1 $-1 $53 $11 #
transform $-1 1 0 0 0 1 0 0 0 1 61.428876613666191 34.957674469050332 13.528375709471103 1 rotate no_reflect no_shear #
lump $-1 $-1 $54 $12 #
transform $-1 1 0 0 0 1 0 0 0 1 61.428876613666191 34.957674469050332 13.528375709471103 1 rotate no_reflect no_shear #
lump $-1 $-1 $55 $13 #
transform $-1 1 0 0 0 1 0 0 0 1 61.428876613666191 34.957674469050332 13.528375709471103 1 rotate no_reflect no_shear #
shell $-1 $-1 $-1 $56 $-1 $14 #
shell $-1 $-1 $-1 $57 $-1 $16 #
shell $-1 $-1 $-1 $58 $-1 $18 #
shell $-1 $-1 $-1 $59 $-1 $20 #
shell $-1 $-1 $-1 $60 $-1 $22 #
shell $-1 $-1 $-1 $61 $-1 $24 #
shell $-1 $-1 $-1 $62 $-1 $26 #
shell $-1 $-1 $-1 $63 $-1 $28 #
shell $-1 $-1 $-1 $64 $-1 $30 #
shell $-1 $-1 $-1 $65 $-1 $32 #
shell $-1 $-1 $-1 $66 $-1 $34 #
shell $-1 $-1 $-1 $67 $-1 $36 #
shell $-1 $-1 $-1 $68 $-1 $38 #
shell $-1 $-1 $-1 $69 $-1 $40 #
face $-1 $70 $71 $42 $-1 $72 forward single #
face $-1 $73 $74 $43 $-1 $75 forward single #
face $-1 $76 $77 $44 $-1 $78 forward single #
face $-1 $79 $80 $45 $-1 $81 reversed single #
face $-1 $82 $83 $46 $-1 $84 forward single #
face $-1 $85 $86 $47 $-1 $87 forward single #
face $-1 $88 $89 $48 $-1 $90 forward single #
face $-1 $91 $92 $49 $-1 $93 reversed single #
face $-1 $94 $95 $50 $-1 $96 forward single #
face $-1 $97 $98 $51 $-1 $99 forward single #
face $-1 $100 $101 $52 $-1 $102 forward single #
face $-1 $103 $104 $53 $-1 $105 reversed single #
face $-1 $106 $107 $54 $-1 $108 forward single #
face $-1 $109 $110 $55 $-1 $111 forward single #
face $-1 $112 $113 $42 $-1 $114 reversed single #
loop $-1 $-1 $115 $56 #
plane-surface $-1 0 0 13.528375709471103 0 0 1 1 0 0 forward_v I I I I #
face $-1 $116 $117 $43 $-1 $118 reversed single #
loop $-1 $-1 $119 $57 #
plane-surface $-1 -61.428876613666191 0 0 1 0 0 0 0 -1 forward_v I I I I #
face $-1 $120 $121 $44 $-1 $122 forward single #
loop $-1 $-1 $123 $58 #
plane-surface $-1 61.428876613666191 0 0 -1 0 0 0 0 1 forward_v I I I I #
face $-1 $124 $125 $45 $-1 $126 reversed single #
loop $-1 $-1 $127 $59 #
plane-surface $-1 -21.545809275483577 -115.55961373551264 99.144594776707223 -1 0 0 0 -0.6560590369687036 0.75470957328743171 forward_v I I I I #
face $-1 $128 $129 $46 $-1 $130 forward single #
loop $-1 $131 $132 $60 #
cone-surface $-1 -38.551678058868696 -29.643661476133694 8.5641086008163168 0 0.6560590369687036 -0.75470957328743171 2 0 0 1 I I 0 1 2 forward I I I I #
face $-1 $133 $134 $47 $-1 $135 forward single #
loop $-1 $136 $137 $61 #
cone-surface $-1 -32.174477265099277 -29.643661476133694 8.5641086008163168 0 0.6560590369687036 -0.75470957328743171 2 0 0 1 I I 0 1 2 forward I I I I #
face $-1 $138 $139 $48 $-1 $140 forward single #
loop $-1 $141 $142 $62 #
cone-surface $-1 -25.797276471329859 -29.643661476133694 8.5641086008163168 0 0.6560590369687036 -0.75470957328743171 2 0 0 1 I I 0 1 2 forward I I I I #
face $-1 $143 $144 $49 $-1 $145 reversed single #
loop $-1 $-1 $146 $63 #
plane-surface $-1 25.105037494066501 -115.55961373551264 99.144594776707223 -1 0 0 0 -0.6560590369687036 0.75470957328743171 forward_v I I I I #
face $-1 $147 $148 $50 $-1 $149 forward single #
loop $-1 $150 $151 $64 #
cone-surface $-1 8.0991687106813828 -29.643661476133694 8.5641086008163168 0 0.6560590369687036 -0.75470957328743171 2 0 0 1 I I 0 1 2 forward I I I I #
face $-1 $152 $153 $51 $-1 $154 forward single #
loop $-1 $155 $156 $65 #
cone-surface $-1 14.476369504450801 -29.643661476133694 8.5641086008163168 0 0.6560590369687036 -0.75470957328743171 2 0 0 1 I I 0 1 2 forward I I I I #
face $-1 $157 $158 $52 $-1 $159 forward single #
loop $-1 $160 $161 $66 #
cone-surface $-1 20.85357029822022 -29.643661476133694 8.5641086008163168 0 0.6560590369687036 -0.75470957328743171 2 0 0 1 I I 0 1 2 forward I I I I #
face $-1 $162 $163 $53 $-1 $164 reversed single #
loop $-1 $-1 $165 $67 #
plane-surface $-1 5.6700436917476722 72.393609135843221 138.41671395495317 1 0 0 0 -0.70710678939079041 -0.70710677298230451 forward_v I I I I #
face $-1 $166 $167 $54 $-1 $168 forward single #
loop $-1 $169 $170 $68 #
cone-surface $-1 13.101588320460507 28.226331829557115 6.7970329611114551 0 -0.70710678939079041 -0.70710677298230451 2 0 0 1 I I 0 1 2 forward I I I I #
face $-1 $171 $172 $55 $-1 $173 forward single #
loop $-1 $174 $175 $69 #
cone-surface $-1 24.248905263529778 28.226331829557115 6.7970329611114551 0 -0.70710678939079041 -0.70710677298230451 2 0 0 1 I I 0 1 2 forward I I I I #
face $-1 $176 $177 $42 $-1 $178 reversed single #
loop $-1 $-1 $179 $70 #
plane-surface $-1 0 0 -13.528375709471103 0 0 1 1 0 0 forward_v I I I I #
coedge $-1 $180 $181 $182 $183 forward $71 $-1 #
face $-1 $184 $185 $43 $-1 $186 reversed single #
loop $-1 $-1 $187 $73 #
plane-surface $-1 0 34.957674469050332 0 0 -1 0 0 0 -1 forward_v I I I I #
coedge $-1 $188 $189 $190 $191 forward $74 $-1 #
face $-1 $192 $193 $44 $-1 $194 reversed single #
loop $-1 $-1 $195 $76 #
plane-surface $-1 0 0 13.528375709471103 0 0 1 1 0 0 forward_v I I I I #
coedge $-1 $196 $197 $198 $199 forward $77 $-1 #
face $-1 $200 $201 $45 $-1 $202 reversed single #
loop $-1 $-1 $203 $79 #
plane-surface $-1 -32.174477265099277 -34.957674469050318 6.4226722634546149 0 -0.6560590369687036 0.75470957328743171 1 0 0 forward_v I I I I #
coedge $-1 $204 $205 $206 $207 reversed $80 $-1 #
face $-1 $-1 $208 $46 $-1 $209 forward single #
loop $-1 $210 $211 $82 #
cone-surface $-1 -38.551678058868696 -27.760677736677572 6.3979836418823339 0 0.6560590369687036 -0.75470957328743171 1 0 0 1 I I -0.70710678118654746 0.70710678118654746 1 forward I I I I #
loop $-1 $-1 $212 $60 #
coedge $-1 $132 $132 $213 $214 reversed $83 $-1 #
face $-1 $-1 $215 $47 $-1 $216 forward single #
loop $-1 $217 $218 $85 #
cone-surface $-1 -32.174477265099277 -27.760677736677572 6.3979836418823339 0 0.6560590369687036 -0.75470957328743171 1 0 0 1 I I -0.70710678118654746 0.70710678118654746 1 forward I I I I #
loop $-1 $-1 $219 $61 #
coedge $-1 $137 $137 $220 $221 reversed $86 $-1 #
face $-1 $-1 $222 $48 $-1 $223 forward single #
loop $-1 $224 $225 $88 #
cone-surface $-1 -25.797276471329859 -27.760677736677572 6.3979836418823339 0 0.6560590369687036 -0.75470957328743171 1 0 0 1 I I -0.70710678118654746 0.70710678118654746 1 forward I I I I #
loop $-1 $-1 $226 $62 #
coedge $-1 $142 $142 $227 $228 reversed $89 $-1 #
face $-1 $229 $230 $49 $-1 $231 reversed single #
loop $-1 $-1 $232 $91 #
plane-surface $-1 14.476369504450801 -34.957674469050318 6.4226722634546149 0 -0.6560590369687036 0.75470957328743171 1 0 0 forward_v I I I I #
coedge $-1 $233 $234 $235 $236 reversed $92 $-1 #
face $-1 $-1 $237 $50 $-1 $238 forward single #
loop $-1 $239 $240 $94 #
cone-surface $-1 8.0991687106813828 -27.760677736677572 6.3979836418823339 0 0.6560590369687036 -0.75470957328743171 1 0 0 1 I I -0.70710678118654746 0.70710678118654746 1 forward I I I I #
loop $-1 $-1 $241 $64 #
coedge $-1 $151 $151 $242 $243 reversed $95 $-1 #
face $-1 $-1 $244 $51 $-1 $245 forward single #
loop $-1 $246 $247 $97 #
cone-surface $-1 14.476369504450801 -27.760677736677572 6.3979836418823339 0 0.6560590369687036 -0.75470957328743171 1 0 0 1 I I -0.70710678118654746 0.70710678118654746 1 forward I I I I #
loop $-1 $-1 $248 $65 #
coedge $-1 $156 $156 $249 $250 reversed $98 $-1 #
face $-1 $-1 $251 $52 $-1 $252 forward single #
loop $-1 $253 $254 $100 #
cone-surface $-1 20.85357029822022 -27.760677736677572 6.3979836418823339 0 0.6560590369687036 -0.75470957328743171 1 0 0 1 I I -0.70710678118654746 0.70710678118654746 1 forward I I I I #
loop $-1 $-1 $255 $66 #
coedge $-1 $161 $161 $256 $257 reversed $101 $-1 #
face $-1 $258 $259 $53 $-1 $260 reversed single #
loop $-1 $-1 $261 $103 #
plane-surface $-1 18.67524679199515 -14.479942300501804 51.543164534517857 0 0.70710678939079041 0.70710677298230451 1 0 0 forward_v I I I I #
coedge $-1 $262 $263 $264 $265 reversed $104 $-1 #
face $-1 $-1 $266 $54 $-1 $267 forward single #
loop $-1 $268 $269 $106 #
cone-surface $-1 13.101588320460507 26.499296813994356 5.0699979856247204 0 -0.70710678939079041 -0.70710677298230451 1 0 0 1 I I -0.70710678118654746 0.70710678118654746 1 forward I I I I #
loop $-1 $-1 $270 $68 #
coedge $-1 $170 $170 $271 $272 reversed $107 $-1 #
face $-1 $-1 $273 $55 $-1 $274 forward single #
loop $-1 $275 $276 $109 #
cone-surface $-1 24.248905263529778 26.499296813994356 5.0699979856247204 0 -0.70710678939079041 -0.70710677298230451 1 0 0 1 I I -0.70710678118654746 0.70710678118654746 1 forward I I I I #
loop $-1 $-1 $277 $69 #
coedge $-1 $175 $175 $278 $279 reversed $110 $-1 #
face $-1 $280 $281 $42 $-1 $282 reversed single #
loop $-1 $-1 $283 $112 #
plane-surface $-1 0 -34.957674469050332 0 0 1 0 0 0 1 forward_v I I I I #
coedge $-1 $284 $285 $286 $287 forward $113 $-1 #
coedge $-1 $288 $115 $289 $290 forward $71 $-1 #
coedge $-1 $115 $288 $291 $292 forward $71 $-1 #
coedge $-1 $293 $294 $115 $183 reversed $295 $-1 #
edge $-1 $296 -34.957674469050332 $297 34.957674469050332 $182 $298 forward 7 unknown #
face $-1 $299 $300 $43 $-1 $301 reversed single #
loop $-1 $-1 $190 $116 #
plane-surface $-1 -68.817891535724243 0 10.172684553996413 0 0 1 1 0 0 forward_v I I I I #
coedge $-1 $302 $303 $188 $304 forward $117 $-1 #
coedge $-1 $305 $119 $187 $304 reversed $74 $-1 #
coedge $-1 $119 $305 $306 $307 reversed $74 $-1 #
coedge $-1 $308 $309 $119 $191 reversed $185 $-1 #
edge $-1 $310 -34.957674469050332 $311 34.957674469050332 $190 $312 forward 7 unknown #
face $-1 $313 $314 $44 $-1 $315 reversed single #
loop $-1 $-1 $316 $120 #
plane-surface $-1 0 -34.957674469050332 0 0 1 0 0 0 1 forward_v I I I I #
coedge $-1 $317 $318 $319 $320 forward $121 $-1 #
coedge $-1 $319 $123 $316 $321 reversed $77 $-1 #
coedge $-1 $123 $319 $322 $323 reversed $77 $-1 #
coedge $-1 $324 $325 $123 $199 reversed $314 $-1 #
edge $-1 $326 -34.957674469050332 $327 34.957674469050332 $198 $328 forward 7 unknown #
face $-1 $329 $330 $45 $-1 $331 reversed single #
loop $-1 $-1 $332 $124 #
plane-surface $-1 -42.803145254714977 -115.55961373551264 99.144594776707223 1 0 0 0 0.6560590369687036 -0.75470957328743171 forward_v I I I I #
coedge $-1 $333 $334 $335 $336 reversed $125 $-1 #
coedge $-1 $205 $127 $337 $338 reversed $80 $-1 #
coedge $-1 $127 $204 $333 $339 reversed $80 $-1 #
coedge $-1 $335 $340 $127 $207 forward $341 $-1 #
edge $-1 $342 22.822132398705989 $343 30.996308979564468 $206 $344 forward 7 unknown #
loop $-1 $-1 $213 $128 #
plane-surface $-1 -32.174477265099277 -34.957674469050318 6.4226722634546149 0 -0.6560590369687036 0.75470957328743171 1 0 0 forward_v I I I I #
loop $-1 $-1 $345 $82 #
coedge $-1 $211 $211 $212 $346 reversed $129 $-1 #
coedge $-1 $212 $212 $211 $346 forward $131 $-1 #
coedge $-1 $213 $213 $132 $214 forward $208 $-1 #
edge $-1 $347 4.6444073776859686e-016 $347 6.2831853071796013 $213 $348 forward 7 unknown #
loop $-1 $-1 $220 $133 #
plane-surface $-1 -32.174477265099277 -34.957674469050318 6.4226722634546149 0 -0.6560590369687036 0.75470957328743171 1 0 0 forward_v I I I I #
loop $-1 $-1 $349 $85 #
coedge $-1 $218 $218 $219 $350 reversed $134 $-1 #
coedge $-1 $219 $219 $218 $350 forward $136 $-1 #
coedge $-1 $220 $220 $137 $221 forward $215 $-1 #
edge $-1 $351 4.6444073776859686e-016 $351 6.2831853071796013 $220 $352 forward 7 unknown #
loop $-1 $-1 $227 $138 #
plane-surface $-1 -32.174477265099277 -34.957674469050318 6.4226722634546149 0 -0.6560590369687036 0.75470957328743171 1 0 0 forward_v I I I I #
loop $-1 $-1 $353 $88 #
coedge $-1 $225 $225 $226 $354 reversed $139 $-1 #
coedge $-1 $226 $226 $225 $354 forward $141 $-1 #
coedge $-1 $227 $227 $142 $228 forward $222 $-1 #
edge $-1 $355 4.6444073776859686e-016 $355 6.2831853071796013 $227 $356 forward 7 unknown #
face $-1 $357 $358 $49 $-1 $359 reversed single #
loop $-1 $-1 $360 $143 #
plane-surface $-1 3.8477015148351015 -115.55961373551264 99.144594776707223 1 0 0 0 0.6560590369687036 -0.75470957328743171 forward_v I I I I #
coedge $-1 $361 $362 $363 $364 reversed $144 $-1 #
coedge $-1 $234 $146 $365 $366 reversed $92 $-1 #
coedge $-1 $146 $233 $361 $367 reversed $92 $-1 #
coedge $-1 $363 $368 $146 $236 forward $369 $-1 #
edge $-1 $370 22.822132398705989 $371 30.996308979564468 $235 $372 forward 7 unknown #
loop $-1 $-1 $242 $147 #
plane-surface $-1 14.476369504450801 -34.957674469050318 6.4226722634546149 0 -0.6560590369687036 0.75470957328743171 1 0 0 forward_v I I I I #
loop $-1 $-1 $373 $94 #
coedge $-1 $240 $240 $241 $374 reversed $148 $-1 #
coedge $-1 $241 $241 $240 $374 forward $150 $-1 #
coedge $-1 $242 $242 $151 $243 forward $237 $-1 #
edge $-1 $375 4.6444073776859686e-016 $375 6.2831853071796013 $242 $376 forward 7 unknown #
loop $-1 $-1 $249 $152 #
plane-surface $-1 14.476369504450801 -34.957674469050318 6.4226722634546149 0 -0.6560590369687036 0.75470957328743171 1 0 0 forward_v I I I I #
loop $-1 $-1 $377 $97 #
coedge $-1 $247 $247 $248 $378 reversed $153 $-1 #
coedge $-1 $248 $248 $247 $378 forward $155 $-1 #
coedge $-1 $249 $249 $156 $250 forward $244 $-1 #
edge $-1 $379 4.6444073776859686e-016 $379 6.2831853071796013 $249 $380 forward 7 unknown #
loop $-1 $-1 $256 $157 #
plane-surface $-1 14.476369504450801 -34.957674469050318 6.4226722634546149 0 -0.6560590369687036 0.75470957328743171 1 0 0 forward_v I I I I #
loop $-1 $-1 $381 $100 #
coedge $-1 $254 $254 $255 $382 reversed $158 $-1 #
coedge $-1 $255 $255 $254 $382 forward $160 $-1 #
coedge $-1 $256 $256 $161 $257 forward $251 $-1 #
edge $-1 $383 4.6444073776859686e-016 $383 6.2831853071796013 $256 $384 forward 7 unknown #
face $-1 $385 $386 $53 $-1 $387 reversed single #
loop $-1 $-1 $388 $162 #
plane-surface $-1 31.680449892242628 72.393609135843221 138.41671395495317 -1 0 0 0 0.70710678939079041 0.70710677298230451 forward_v I I I I #
coedge $-1 $389 $390 $391 $392 reversed $163 $-1 #
coedge $-1 $263 $165 $393 $394 reversed $104 $-1 #
coedge $-1 $165 $262 $389 $395 reversed $104 $-1 #
coedge $-1 $391 $396 $165 $265 forward $397 $-1 #
edge $-1 $398 1.2391300988712786 $399 12.661958925513758 $264 $400 forward 7 unknown #
loop $-1 $-1 $271 $166 #
plane-surface $-1 18.67524679199515 -14.479942300501804 51.543164534517857 0 0.70710678939079041 0.70710677298230451 1 0 0 forward_v I I I I #
loop $-1 $-1 $401 $106 #
coedge $-1 $269 $269 $270 $402 reversed $167 $-1 #
coedge $-1 $270 $270 $269 $402 forward $169 $-1 #
coedge $-1 $271 $271 $170 $272 forward $266 $-1 #
edge $-1 $403 9.4205560272981645e-016 $403 6.2831853071796013 $271 $404 forward 7 unknown #
loop $-1 $-1 $278 $171 #
plane-surface $-1 18.67524679199515 -14.479942300501804 51.543164534517857 0 0.70710678939079041 0.70710677298230451 1 0 0 forward_v I I I I #
loop $-1 $-1 $405 $109 #
coedge $-1 $276 $276 $277 $406 reversed $172 $-1 #
coedge $-1 $277 $277 $276 $406 forward $174 $-1 #
coedge $-1 $278 $278 $175 $279 forward $273 $-1 #
edge $-1 $407 9.4205560272981645e-016 $407 6.2831853071796013 $278 $408 forward 7 unknown #
face $-1 $409 $410 $42 $-1 $411 reversed single #
loop $-1 $-1 $412 $176 #
plane-surface $-1 -61.428876613666191 0 0 1 0 0 0 0 -1 forward_v I I I I #
coedge $-1 $413 $291 $414 $415 forward $177 $-1 #
coedge $-1 $416 $179 $413 $417 forward $113 $-1 #
coedge $-1 $179 $416 $418 $419 forward $113 $-1 #
coedge $-1 $294 $293 $179 $287 reversed $295 $-1 #
edge $-1 $420 -34.957674469050332 $421 34.957674469050332 $286 $422 forward 7 unknown #
coedge $-1 $181 $180 $423 $424 forward $71 $-1 #
coedge $-1 $425 $426 $180 $290 reversed $410 $-1 #
edge $-1 $297 -61.428876613666191 $427 61.428876613666191 $289 $428 forward 7 unknown #
coedge $-1 $283 $429 $181 $292 reversed $177 $-1 #
edge $-1 $430 -61.428876613666191 $296 61.428876613666191 $291 $431 forward 7 unknown #
coedge $-1 $286 $182 $429 $432 forward $295 $-1 #
coedge $-1 $182 $286 $425 $433 reversed $295 $-1 #
loop $-1 $-1 $293 $409 #
vertex $-1 $183 $434 #
vertex $-1 $183 $435 #
straight-curve $-1 61.428876613666191 0 13.528375709471103 0 1 0 I I #
face $-1 $436 $437 $43 $-1 $438 forward single #
loop $-1 $-1 $439 $184 #
plane-surface $-1 -76.206906457782296 0 11.850530131733759 1 0 0 0 0 -1 forward_v I I I I #
coedge $-1 $440 $187 $309 $441 reversed $117 $-1 #
coedge $-1 $187 $440 $442 $443 reversed $117 $-1 #
edge $-1 $444 -13.528375709471103 $311 -10.172684553996413 $187 $445 forward 7 unknown #
coedge $-1 $189 $188 $446 $447 reversed $74 $-1 #
coedge $-1 $448 $449 $189 $307 forward $450 $-1 #
edge $-1 $310 10.172684553996413 $451 13.528375709471103 $306 $452 forward 7 unknown #
coedge $-1 $453 $190 $449 $454 forward $185 $-1 #
coedge $-1 $190 $453 $302 $441 forward $185 $-1 #
vertex $-1 $307 $455 #
vertex $-1 $304 $456 #
straight-curve $-1 -61.428876613666191 0 10.172684553996413 0 1 0 I I #
face $-1 $457 $458 $44 $-1 $459 reversed single #
loop $-1 $-1 $460 $192 #
plane-surface $-1 68.817891535724257 0 10.172684553996413 0 0 1 1 0 0 forward_v I I I I #
coedge $-1 $461 $462 $196 $321 forward $193 $-1 #
coedge $-1 $463 $195 $462 $464 forward $121 $-1 #
coedge $-1 $195 $463 $465 $466 forward $121 $-1 #
coedge $-1 $197 $196 $195 $320 reversed $77 $-1 #
edge $-1 $467 -34.957674469050332 $468 34.957674469050332 $195 $469 forward 7 unknown #
edge $-1 $468 -13.528375709471103 $327 -10.172684553996413 $316 $470 forward 7 unknown #
coedge $-1 $465 $471 $197 $323 forward $472 $-1 #
edge $-1 $326 10.172684553996413 $467 13.528375709471103 $322 $473 forward 7 unknown #
coedge $-1 $460 $198 $471 $474 forward $314 $-1 #
coedge $-1 $198 $460 $461 $475 forward $314 $-1 #
vertex $-1 $323 $476 #
vertex $-1 $321 $477 #
straight-curve $-1 61.428876613666191 0 10.172684553996413 0 -1 0 I I #
face $-1 $-1 $341 $45 $-1 $478 forward single #
loop $-1 $-1 $479 $200 #
plane-surface $-1 0 -34.957674469050332 0 0 1 0 0 0 1 forward_v I I I I #
coedge $-1 $480 $481 $482 $483 reversed $201 $-1 #
coedge $-1 $484 $203 $205 $339 forward $125 $-1 #
coedge $-1 $203 $484 $480 $485 forward $125 $-1 #
coedge $-1 $482 $206 $203 $336 forward $341 $-1 #
edge $-1 $343 5.4585706429339389 $486 26.715906622165338 $335 $487 forward 7 unknown #
coedge $-1 $488 $489 $204 $338 forward $330 $-1 #
edge $-1 $490 -43.149625124899011 $342 -36.043921678882505 $337 $491 forward 7 unknown #
edge $-1 $343 -10.830890279094586 $490 1.888283279974768e-014 $205 $492 forward 7 unknown #
coedge $-1 $206 $482 $488 $493 forward $341 $-1 #
loop $-1 $-1 $482 $329 #
vertex $-1 $338 $494 #
vertex $-1 $207 $495 #
straight-curve $-1 -21.545809275483577 -57.779806867756321 13.528375709471099 0 1 0 I I #
coedge $-1 $345 $345 $-1 $496 reversed $210 $-1 #
edge $-1 $497 0 $497 6.2831853071796004 $211 $498 forward 7 unknown #
vertex $-1 $214 $499 #
ellipse-curve $-1 -38.551678058868696 -30.870586178621096 9.97552398646285 0 -0.6560590369687036 0.75470957328743171 2 0 0 1 I I #
coedge $-1 $349 $349 $-1 $500 reversed $217 $-1 #
edge $-1 $501 0 $501 6.2831853071796004 $218 $502 forward 7 unknown #
vertex $-1 $221 $503 #
ellipse-curve $-1 -32.174477265099277 -30.870586178621096 9.97552398646285 0 -0.6560590369687036 0.75470957328743171 2 0 0 1 I I #
coedge $-1 $353 $353 $-1 $504 reversed $224 $-1 #
edge $-1 $505 0 $505 6.2831853071796004 $225 $506 forward 7 unknown #
vertex $-1 $228 $507 #
ellipse-curve $-1 -25.797276471329859 -30.870586178621096 9.97552398646285 0 -0.6560590369687036 0.75470957328743171 2 0 0 1 I I #
face $-1 $-1 $369 $49 $-1 $508 forward single #
loop $-1 $-1 $509 $229 #
plane-surface $-1 0 -34.957674469050332 0 0 1 0 0 0 1 forward_v I I I I #
coedge $-1 $510 $511 $512 $513 reversed $230 $-1 #
coedge $-1 $514 $232 $234 $367 forward $144 $-1 #
coedge $-1 $232 $514 $510 $515 forward $144 $-1 #
coedge $-1 $512 $235 $232 $364 forward $369 $-1 #
edge $-1 $371 -17.8668527418411 $516 3.3904832373902991 $363 $517 forward 7 unknown #
coedge $-1 $518 $519 $233 $366 forward $358 $-1 #
edge $-1 $520 -43.149625124899011 $370 -36.043921678882505 $365 $521 forward 7 unknown #
edge $-1 $371 -10.830890279094586 $520 1.888283279974768e-014 $234 $522 forward 7 unknown #
coedge $-1 $235 $512 $518 $523 forward $369 $-1 #
loop $-1 $-1 $512 $357 #
vertex $-1 $366 $524 #
vertex $-1 $236 $525 #
straight-curve $-1 25.105037494066501 -57.779806867756321 13.528375709471099 0 1 0 I I #
coedge $-1 $373 $373 $-1 $526 reversed $239 $-1 #
edge $-1 $527 0 $527 6.2831853071796004 $240 $528 forward 7 unknown #
vertex $-1 $243 $529 #
ellipse-curve $-1 8.0991687106813828 -30.870586178621096 9.97552398646285 0 -0.6560590369687036 0.75470957328743171 2 0 0 1 I I #
coedge $-1 $377 $377 $-1 $530 reversed $246 $-1 #
edge $-1 $531 0 $531 6.2831853071796004 $247 $532 forward 7 unknown #
vertex $-1 $250 $533 #
ellipse-curve $-1 14.476369504450801 -30.870586178621096 9.97552398646285 0 -0.6560590369687036 0.75470957328743171 2 0 0 1 I I #
coedge $-1 $381 $381 $-1 $534 reversed $253 $-1 #
edge $-1 $535 0 $535 6.2831853071796004 $254 $536 forward 7 unknown #
vertex $-1 $257 $537 #
ellipse-curve $-1 20.85357029822022 -30.870586178621096 9.97552398646285 0 -0.6560590369687036 0.75470957328743171 2 0 0 1 I I #
face $-1 $-1 $397 $53 $-1 $538 forward single #
loop $-1 $-1 $539 $258 #
plane-surface $-1 0 34.957674469050332 0 0 -1 0 0 0 -1 forward_v I I I I #
coedge $-1 $540 $541 $542 $543 reversed $259 $-1 #
coedge $-1 $544 $261 $263 $395 forward $163 $-1 #
coedge $-1 $261 $544 $540 $545 forward $163 $-1 #
coedge $-1 $542 $264 $261 $392 forward $397 $-1 #
edge $-1 $399 -3.6675797042499028 $546 22.342826496245053 $391 $547 forward 7 unknown #
coedge $-1 $548 $549 $262 $394 forward $386 $-1 #
edge $-1 $550 -67.102810359715875 $398 -55.679981268005477 $393 $551 forward 7 unknown #
edge $-1 $399 53.761029303365184 $550 69.915348938100678 $263 $552 forward 7 unknown #
coedge $-1 $264 $542 $548 $553 forward $397 $-1 #
loop $-1 $-1 $542 $385 #
vertex $-1 $394 $554 #
vertex $-1 $265 $555 #
straight-curve $-1 5.6700436917476722 36.19680456792161 13.528375709471106 0 -1 0 I I #
coedge $-1 $401 $401 $-1 $556 reversed $268 $-1 #
edge $-1 $557 0 $557 6.2831853071796004 $269 $558 forward 7 unknown #
vertex $-1 $272 $559 #
ellipse-curve $-1 13.101588320460507 29.246260055729099 7.8169611636159013 0 0.70710678939079041 0.70710677298230451 2 0 0 1 I I #
coedge $-1 $405 $405 $-1 $560 reversed $275 $-1 #
edge $-1 $561 0 $561 6.2831853071796004 $276 $562 forward 7 unknown #
vertex $-1 $279 $563 #
ellipse-curve $-1 24.248905263529778 29.246260055729099 7.8169611636159013 0 0.70710678939079041 0.70710677298230451 2 0 0 1 I I #
face $-1 $-1 $295 $42 $-1 $564 reversed single #
loop $-1 $-1 $425 $280 #
plane-surface $-1 0 34.957674469050332 0 0 -1 0 0 0 -1 forward_v I I I I #
coedge $-1 $565 $423 $426 $566 forward $281 $-1 #
coedge $-1 $429 $283 $284 $417 reversed $177 $-1 #
coedge $-1 $423 $565 $283 $415 reversed $281 $-1 #
edge $-1 $430 -13.528375709471103 $567 13.528375709471103 $414 $568 forward 7 unknown #
coedge $-1 $285 $284 $565 $569 forward $113 $-1 #
edge $-1 $421 -61.428876613666191 $567 61.428876613666191 $413 $570 forward 7 unknown #
coedge $-1 $426 $425 $285 $419 reversed $410 $-1 #
edge $-1 $571 -61.428876613666191 $420 61.428876613666191 $418 $572 forward 7 unknown #
vertex $-1 $287 $573 #
vertex $-1 $432 $574 #
straight-curve $-1 61.428876613666191 0 -13.528375709471103 0 -1 0 I I #
coedge $-1 $412 $414 $288 $424 reversed $281 $-1 #
edge $-1 $427 -34.957674469050332 $430 34.957674469050332 $423 $575 forward 7 unknown #
coedge $-1 $418 $289 $294 $433 forward $410 $-1 #
coedge $-1 $289 $418 $412 $566 reversed $410 $-1 #
vertex $-1 $290 $576 #
straight-curve $-1 0 34.957674469050332 13.528375709471103 -1 0 0 I I #
coedge $-1 $291 $413 $293 $432 reversed $177 $-1 #
vertex $-1 $424 $577 #
straight-curve $-1 0 -34.957674469050332 13.528375709471103 1 0 0 I I #
edge $-1 $296 -13.528375709471103 $421 13.528375709471103 $293 $578 forward 7 unknown #
edge $-1 $297 -13.528375709471103 $420 13.528375709471103 $294 $579 forward 7 unknown #
point $-1 61.428876613666191 -34.957674469050332 13.528375709471103 #
point $-1 61.428876613666191 34.957674469050332 13.528375709471103 #
face $-1 $-1 $450 $43 $-1 $580 reversed single #
loop $-1 $-1 $446 $299 #
plane-surface $-1 0 0 13.528375709471103 0 0 1 1 0 0 forward_v I I I I #
coedge $-1 $581 $582 $440 $583 forward $300 $-1 #
coedge $-1 $303 $302 $439 $583 reversed $117 $-1 #
edge $-1 $584 -7.3890149220580525 $311 7.3890149220580525 $302 $585 forward 7 unknown #
coedge $-1 $586 $446 $303 $443 forward $437 $-1 #
edge $-1 $444 61.428876613666191 $587 76.206906457782296 $303 $588 forward 7 unknown #
vertex $-1 $443 $589 #
straight-curve $-1 -61.428876613666191 34.957674469050332 0 0 0 -1 I I #
coedge $-1 $442 $590 $305 $447 forward $437 $-1 #
edge $-1 $451 -34.957674469050332 $444 34.957674469050332 $446 $591 forward 7 unknown #
coedge $-1 $592 $306 $590 $593 reversed $450 $-1 #
coedge $-1 $306 $592 $308 $454 reversed $450 $-1 #
loop $-1 $-1 $306 $436 #
vertex $-1 $307 $594 #
straight-curve $-1 -61.428876613666191 -34.957674469050332 0 0 0 1 I I #
coedge $-1 $309 $308 $581 $595 forward $185 $-1 #
edge $-1 $310 -7.3890149220580525 $596 7.3890149220580525 $449 $597 forward 7 unknown #
point $-1 -61.428876613666191 -34.957674469050332 10.172684553996413 #
point $-1 -61.428876613666191 34.957674469050332 10.172684553996413 #
face $-1 $-1 $472 $44 $-1 $598 reversed single #
loop $-1 $-1 $599 $313 #
plane-surface $-1 76.20690645778231 0 11.850530131733759 -1 0 0 0 0 1 forward_v I I I I #
coedge $-1 $325 $324 $600 $601 forward $314 $-1 #
coedge $-1 $602 $316 $325 $475 reversed $193 $-1 #
coedge $-1 $316 $602 $317 $464 reversed $193 $-1 #
coedge $-1 $318 $317 $603 $604 forward $121 $-1 #
edge $-1 $468 -7.3890149220580668 $605 7.3890149220580525 $462 $606 forward 7 unknown #
coedge $-1 $607 $322 $318 $466 reversed $472 $-1 #
edge $-1 $608 -76.20690645778231 $467 -61.428876613666191 $465 $609 forward 7 unknown #
vertex $-1 $323 $610 #
vertex $-1 $464 $611 #
straight-curve $-1 61.428876613666191 0 13.528375709471103 0 -1 0 I I #
straight-curve $-1 61.428876613666191 -34.957674469050332 0 0 0 -1 I I #
coedge $-1 $322 $607 $324 $474 reversed $472 $-1 #
loop $-1 $-1 $322 $457 #
straight-curve $-1 61.428876613666191 34.957674469050332 0 0 0 1 I I #
edge $-1 $326 -7.3890149220580525 $612 7.3890149220580525 $471 $613 forward 7 unknown #
edge $-1 $614 -7.3890149220580525 $327 7.3890149220580525 $461 $615 forward 7 unknown #
point $-1 61.428876613666205 34.957674469050332 10.172684553996413 #
point $-1 61.428876613666205 -34.957674469050332 10.172684553996413 #
plane-surface $-1 0 0 13.528375709471103 0 0 1 1 0 0 forward_v I I I I #
coedge $-1 $489 $488 $481 $616 forward $330 $-1 #
coedge $-1 $481 $332 $334 $485 reversed $201 $-1 #
coedge $-1 $332 $480 $479 $616 reversed $201 $-1 #
coedge $-1 $340 $335 $332 $483 forward $341 $-1 #
edge $-1 $486 -30.996308979564468 $617 -22.822132398705989 $482 $618 forward 7 unknown #
coedge $-1 $334 $333 $489 $619 reversed $125 $-1 #
edge $-1 $620 -1.888283279974768e-014 $486 10.830890279094586 $480 $621 forward 7 unknown #
vertex $-1 $336 $622 #
straight-curve $-1 -16.087238632549639 -26.783497888191853 13.528375709471103 -1 0 0 I I #
coedge $-1 $479 $337 $340 $493 reversed $330 $-1 #
coedge $-1 $337 $479 $484 $619 forward $330 $-1 #
vertex $-1 $338 $623 #
straight-curve $-1 -21.545809275483577 -34.957674469050332 49.572297388353611 0 0 1 I I #
straight-curve $-1 -21.545809275483577 -34.957674469050318 6.4226722634546149 0 -0.75470957328743171 -0.6560590369687036 I I #
edge $-1 $617 -111.62103679043923 $342 -90.363700811207835 $488 $624 forward 7 unknown #
point $-1 -21.545809275483577 -34.957674469050332 13.528375709471105 #
point $-1 -21.545809275483577 -26.783497888191853 13.528375709471103 #
edge $-1 $625 1 $625 0 $345 $-1 forward 7 unknown #
vertex $-1 $346 $626 #
ellipse-curve $-1 -38.551678058868696 -28.416736773646274 7.1526932151697658 0 -0.6560590369687036 0.75470957328743171 2 0 0 1 I I #
point $-1 -36.551678058868696 -30.87058617862111 9.9755239864628678 #
edge $-1 $627 1 $627 0 $349 $-1 forward 7 unknown #
vertex $-1 $350 $628 #
ellipse-curve $-1 -32.174477265099277 -28.416736773646274 7.1526932151697658 0 -0.6560590369687036 0.75470957328743171 2 0 0 1 I I #
point $-1 -30.174477265099277 -30.87058617862111 9.9755239864628678 #
edge $-1 $629 1 $629 0 $353 $-1 forward 7 unknown #
vertex $-1 $354 $630 #
ellipse-curve $-1 -25.797276471329859 -28.416736773646274 7.1526932151697658 0 -0.6560590369687036 0.75470957328743171 2 0 0 1 I I #
point $-1 -23.797276471329859 -30.87058617862111 9.9755239864628678 #
plane-surface $-1 0 0 13.528375709471103 0 0 1 1 0 0 forward_v I I I I #
coedge $-1 $519 $518 $511 $631 forward $358 $-1 #
coedge $-1 $511 $360 $362 $515 reversed $230 $-1 #
coedge $-1 $360 $510 $509 $631 reversed $230 $-1 #
coedge $-1 $368 $363 $360 $513 forward $369 $-1 #
edge $-1 $516 -30.996308979564468 $632 -22.822132398705989 $512 $633 forward 7 unknown #
coedge $-1 $362 $361 $519 $634 reversed $144 $-1 #
edge $-1 $635 -1.888283279974768e-014 $516 10.830890279094586 $510 $636 forward 7 unknown #
vertex $-1 $364 $637 #
straight-curve $-1 7.2381847522254006 -26.783497888191853 13.528375709471103 -1 0 0 I I #
coedge $-1 $509 $365 $368 $523 reversed $358 $-1 #
coedge $-1 $365 $509 $514 $634 forward $358 $-1 #
vertex $-1 $366 $638 #
straight-curve $-1 25.105037494066501 -34.957674469050332 49.572297388353611 0 0 1 I I #
straight-curve $-1 25.105037494066501 -34.957674469050318 6.4226722634546149 0 -0.75470957328743171 -0.6560590369687036 I I #
edge $-1 $632 -64.970190020889163 $370 -43.712854041657756 $518 $639 forward 7 unknown #
point $-1 25.105037494066501 -34.957674469050332 13.528375709471105 #
point $-1 25.105037494066501 -26.783497888191853 13.528375709471103 #
edge $-1 $640 1 $640 0 $373 $-1 forward 7 unknown #
vertex $-1 $374 $641 #
ellipse-curve $-1 8.0991687106813828 -28.416736773646274 7.1526932151697658 0 -0.6560590369687036 0.75470957328743171 2 0 0 1 I I #
point $-1 10.099168710681383 -30.87058617862111 9.9755239864628678 #
edge $-1 $642 1 $642 0 $377 $-1 forward 7 unknown #
vertex $-1 $378 $643 #
ellipse-curve $-1 14.476369504450801 -28.416736773646274 7.1526932151697658 0 -0.6560590369687036 0.75470957328743171 2 0 0 1 I I #
point $-1 16.476369504450801 -30.87058617862111 9.9755239864628678 #
edge $-1 $644 1 $644 0 $381 $-1 forward 7 unknown #
vertex $-1 $382 $645 #
ellipse-curve $-1 20.85357029822022 -28.416736773646274 7.1526932151697658 0 -0.6560590369687036 0.75470957328743171 2 0 0 1 I I #
point $-1 22.85357029822022 -30.87058617862111 9.9755239864628678 #
plane-surface $-1 0 0 13.528375709471103 0 0 1 1 0 0 forward_v I I I I #
coedge $-1 $549 $548 $541 $646 forward $386 $-1 #
coedge $-1 $541 $388 $390 $545 reversed $259 $-1 #
coedge $-1 $388 $540 $539 $646 reversed $259 $-1 #
coedge $-1 $396 $391 $388 $543 forward $397 $-1 #
edge $-1 $546 -12.661958925513758 $647 -1.2391300988712786 $542 $648 forward 7 unknown #
coedge $-1 $390 $389 $549 $649 reversed $163 $-1 #
edge $-1 $650 -69.915348938100678 $546 -53.761029303365184 $540 $651 forward 7 unknown #
vertex $-1 $392 $652 #
straight-curve $-1 9.337623395997575 23.534845642407859 13.528375709471096 1 0 0 I I #
coedge $-1 $539 $393 $396 $553 reversed $386 $-1 #
coedge $-1 $393 $539 $544 $649 forward $386 $-1 #
vertex $-1 $394 $653 #
straight-curve $-1 5.6700436917476722 34.957674469050332 69.208356977476583 0 0 1 I I #
straight-curve $-1 5.6700436917476722 -14.479942300501804 51.543164534517857 0 0.70710677298230451 -0.70710678939079041 I I #
edge $-1 $647 -31.680449892242628 $398 -5.6700436917476722 $548 $654 forward 7 unknown #
point $-1 5.6700436917476722 34.957674469050332 13.528375709471103 #
point $-1 5.6700436917476722 23.534845642407852 13.528375709471106 #
edge $-1 $655 1 $655 0 $401 $-1 forward 7 unknown #
vertex $-1 $402 $656 #
ellipse-curve $-1 13.101588320460507 27.206403603385144 5.7771047586070248 0 0.70710678939079041 0.70710677298230451 2 0 0 1 I I #
point $-1 15.101588320460507 29.246260055729085 7.8169611636158844 #
edge $-1 $657 1 $657 0 $405 $-1 forward 7 unknown #
vertex $-1 $406 $658 #
ellipse-curve $-1 24.248905263529778 27.206403603385144 5.7771047586070248 0 0.70710678939079041 0.70710677298230451 2 0 0 1 I I #
point $-1 26.248905263529778 29.246260055729085 7.8169611636158844 #
plane-surface $-1 61.428876613666191 0 0 -1 0 0 0 0 1 forward_v I I I I #
coedge $-1 $414 $412 $416 $569 reversed $281 $-1 #
edge $-1 $427 -13.528375709471103 $571 13.528375709471103 $426 $659 forward 7 unknown #
vertex $-1 $569 $660 #
straight-curve $-1 -61.428876613666191 -34.957674469050332 0 0 0 -1 I I #
edge $-1 $567 -34.957674469050332 $571 34.957674469050332 $565 $661 forward 7 unknown #
straight-curve $-1 0 -34.957674469050332 -13.528375709471103 -1 0 0 I I #
vertex $-1 $419 $662 #
straight-curve $-1 0 34.957674469050332 -13.528375709471103 1 0 0 I I #
point $-1 61.428876613666191 34.957674469050332 -13.528375709471103 #
point $-1 61.428876613666191 -34.957674469050332 -13.528375709471103 #
straight-curve $-1 -61.428876613666191 0 13.528375709471103 0 -1 0 I I #
point $-1 -61.428876613666191 34.957674469050332 13.528375709471103 #
point $-1 -61.428876613666191 -34.957674469050332 13.528375709471103 #
straight-curve $-1 61.428876613666191 -34.957674469050332 0 0 0 -1 I I #
straight-curve $-1 61.428876613666191 34.957674469050332 0 0 0 -1 I I #
plane-surface $-1 0 -34.957674469050332 0 0 1 0 0 0 1 forward_v I I I I #
coedge $-1 $663 $439 $453 $595 reversed $300 $-1 #
coedge $-1 $439 $663 $586 $664 reversed $300 $-1 #
edge $-1 $587 -1.6778455777373456 $584 1.6778455777373456 $440 $665 forward 7 unknown #
vertex $-1 $441 $666 #
straight-curve $-1 -68.817891535724243 34.957674469050332 10.172684553996413 1 0 0 I I #
coedge $-1 $590 $442 $582 $664 forward $437 $-1 #
vertex $-1 $443 $667 #
straight-curve $-1 0 34.957674469050332 13.528375709471103 -1 0 0 I I #
point $-1 -61.428876613666191 34.957674469050332 13.528375709471103 #
coedge $-1 $446 $586 $448 $593 forward $437 $-1 #
straight-curve $-1 -61.428876613666191 0 13.528375709471103 0 1 0 I I #
coedge $-1 $449 $448 $663 $668 forward $450 $-1 #
edge $-1 $669 -76.206906457782296 $451 -61.428876613666191 $448 $670 forward 7 unknown #
point $-1 -61.428876613666191 -34.957674469050332 13.528375709471103 #
edge $-1 $596 -34.957674469050332 $584 34.957674469050332 $581 $671 forward 7 unknown #
vertex $-1 $595 $672 #
straight-curve $-1 -68.817891535724243 -34.957674469050332 10.172684553996413 -1 0 0 I I #
plane-surface $-1 0 34.957674469050332 0 0 -1 0 0 0 -1 forward_v I I I I #
coedge $-1 $600 $603 $602 $673 forward $458 $-1 #
coedge $-1 $674 $599 $460 $601 reversed $458 $-1 #
edge $-1 $612 -34.957674469050332 $614 34.957674469050332 $600 $675 forward 7 unknown #
coedge $-1 $462 $461 $599 $673 reversed $193 $-1 #
coedge $-1 $599 $674 $463 $604 reversed $458 $-1 #
edge $-1 $605 -34.957674469050332 $608 34.957674469050332 $603 $676 forward 7 unknown #
vertex $-1 $604 $677 #
straight-curve $-1 68.817891535724257 -34.957674469050332 13.528375709471105 1 0 0 I I #
coedge $-1 $471 $465 $674 $678 forward $472 $-1 #
vertex $-1 $604 $679 #
straight-curve $-1 0 34.957674469050332 13.528375709471103 -1 0 0 I I #
point $-1 61.428876613666191 34.957674469050332 13.528375709471103 #
point $-1 61.428876613666191 -34.957674469050332 13.528375709471103 #
vertex $-1 $601 $680 #
straight-curve $-1 68.817891535724257 34.957674469050332 10.172684553996413 1 0 0 I I #
vertex $-1 $673 $681 #
straight-curve $-1 68.817891535724257 -34.957674469050332 10.172684553996413 -1 0 0 I I #
edge $-1 $617 36.043921678882505 $620 43.149625124899011 $479 $682 forward 7 unknown #
vertex $-1 $493 $683 #
straight-curve $-1 -42.803145254714977 -57.779806867756321 13.528375709471099 0 -1 0 I I #
edge $-1 $620 -26.715906622165338 $490 -5.4585706429339389 $489 $684 forward 7 unknown #
vertex $-1 $619 $685 #
straight-curve $-1 -42.803145254714977 -34.957674469050318 6.4226722634546149 0 0.75470957328743171 0.6560590369687036 I I #
point $-1 -42.803145254714977 -26.783497888191853 13.528375709471103 #
point $-1 -21.545809275483577 -34.957674469050332 6.4226722634546025 #
straight-curve $-1 68.817891535724257 -34.957674469050332 13.528375709471105 1 0 0 I I #
vertex $-1 $496 $686 #
point $-1 -36.551678058868696 -28.416736773646274 7.1526932151697658 #
vertex $-1 $500 $687 #
point $-1 -30.174477265099277 -28.416736773646274 7.1526932151697658 #
vertex $-1 $504 $688 #
point $-1 -23.797276471329859 -28.416736773646274 7.1526932151697658 #
edge $-1 $632 36.043921678882505 $635 43.149625124899011 $509 $689 forward 7 unknown #
vertex $-1 $523 $690 #
straight-curve $-1 3.8477015148351015 -57.779806867756321 13.528375709471099 0 -1 0 I I #
edge $-1 $635 -3.3904832373902991 $520 17.8668527418411 $519 $691 forward 7 unknown #
vertex $-1 $634 $692 #
straight-curve $-1 3.8477015148351015 -34.957674469050318 6.4226722634546149 0 0.75470957328743171 0.6560590369687036 I I #
point $-1 3.8477015148351015 -26.783497888191853 13.528375709471103 #
point $-1 25.105037494066501 -34.957674469050332 6.4226722634546025 #
straight-curve $-1 68.817891535724257 -34.957674469050332 13.528375709471105 1 0 0 I I #
vertex $-1 $526 $693 #
point $-1 10.099168710681383 -28.416736773646274 7.1526932151697658 #
vertex $-1 $530 $694 #
point $-1 16.476369504450801 -28.416736773646274 7.1526932151697658 #
vertex $-1 $534 $695 #
point $-1 22.85357029822022 -28.416736773646274 7.1526932151697658 #
edge $-1 $647 55.679981268005477 $650 67.102810359715875 $539 $696 forward 7 unknown #
vertex $-1 $553 $697 #
straight-curve $-1 31.680449892242628 36.19680456792161 13.528375709471106 0 1 0 I I #
edge $-1 $650 -22.342826496245053 $550 3.6675797042499028 $549 $698 forward 7 unknown #
vertex $-1 $649 $699 #
straight-curve $-1 31.680449892242628 -14.479942300501804 51.543164534517857 0 -0.70710677298230451 0.70710678939079041 I I #
point $-1 31.680449892242628 23.534845642407852 13.528375709471106 #
point $-1 5.6700436917476722 34.957674469050332 2.1055466177607016 #
straight-curve $-1 0 34.957674469050332 13.528375709471103 -1 0 0 I I #
vertex $-1 $556 $700 #
point $-1 15.101588320460507 27.206403603385144 5.7771047586070248 #
vertex $-1 $560 $701 #
point $-1 26.248905263529778 27.206403603385144 5.7771047586070248 #
straight-curve $-1 -61.428876613666191 34.957674469050332 0 0 0 -1 I I #
point $-1 -61.428876613666191 -34.957674469050332 -13.528375709471103 #
straight-curve $-1 -61.428876613666191 0 -13.528375709471103 0 1 0 I I #
point $-1 -61.428876613666191 34.957674469050332 -13.528375709471103 #
coedge $-1 $582 $581 $592 $668 reversed $300 $-1 #
edge $-1 $587 -34.957674469050332 $669 34.957674469050332 $582 $702 forward 7 unknown #
straight-curve $-1 -76.206906457782296 34.957674469050332 11.850530131733759 0 0 -1 I I #
point $-1 -76.206906457782296 34.957674469050332 10.172684553996413 #
point $-1 -76.206906457782296 34.957674469050332 13.528375709471105 #
edge $-1 $669 -1.6778455777373456 $596 1.6778455777373456 $663 $703 forward 7 unknown #
vertex $-1 $664 $704 #
straight-curve $-1 0 -34.957674469050332 13.528375709471103 1 0 0 I I #
straight-curve $-1 -76.206906457782296 0 10.172684553996413 0 1 0 I I #
point $-1 -76.206906457782296 -34.957674469050332 10.172684553996413 #
edge $-1 $605 -1.6778455777373456 $614 1.6778455777373456 $599 $705 forward 7 unknown #
coedge $-1 $603 $600 $607 $678 reversed $458 $-1 #
straight-curve $-1 76.20690645778231 0 10.172684553996413 0 -1 0 I I #
straight-curve $-1 76.20690645778231 0 13.528375709471105 0 1 0 I I #
point $-1 76.20690645778231 -34.957674469050332 13.528375709471105 #
edge $-1 $608 -1.6778455777373456 $612 1.6778455777373456 $674 $706 forward 7 unknown #
point $-1 76.20690645778231 34.957674469050332 13.528375709471105 #
point $-1 76.20690645778231 34.957674469050332 10.172684553996413 #
point $-1 76.20690645778231 -34.957674469050332 10.172684553996413 #
straight-curve $-1 -42.803145254714977 -34.957674469050332 49.572297388353611 0 0 -1 I I #
point $-1 -42.803145254714977 -34.957674469050332 13.528375709471105 #
straight-curve $-1 -16.087238632549639 -34.957674469050332 6.4226722634546034 1 0 0 I I #
point $-1 -42.803145254714977 -34.957674469050332 6.4226722634546025 #
point $-1 -38.551678058868696 -27.104618699708869 5.6432740685949021 #
point $-1 -32.174477265099277 -27.104618699708869 5.6432740685949021 #
point $-1 -25.797276471329859 -27.104618699708869 5.6432740685949021 #
straight-curve $-1 3.8477015148351015 -34.957674469050332 49.572297388353611 0 0 -1 I I #
point $-1 3.8477015148350944 -34.957674469050332 13.528375709471105 #
straight-curve $-1 7.2381847522254006 -34.957674469050332 6.4226722634546034 1 0 0 I I #
point $-1 3.8477015148351015 -34.957674469050332 6.4226722634546025 #
point $-1 8.0991687106813828 -27.104618699708869 5.6432740685949021 #
point $-1 14.476369504450801 -27.104618699708869 5.6432740685949021 #
point $-1 20.85357029822022 -27.104618699708869 5.6432740685949021 #
straight-curve $-1 31.680449892242628 34.957674469050332 69.208356977476583 0 0 -1 I I #
point $-1 31.680449892242628 34.957674469050332 13.528375709471103 #
straight-curve $-1 9.337623395997575 34.957674469050332 2.1055466177607052 -1 0 0 I I #
point $-1 31.680449892242628 34.957674469050332 2.1055466177607016 #
point $-1 13.101588320460507 25.792190024603567 4.362891212642416 #
point $-1 24.248905263529778 25.792190024603567 4.362891212642416 #
straight-curve $-1 -76.206906457782296 0 13.528375709471105 0 -1 0 I I #
straight-curve $-1 -76.206906457782296 -34.957674469050332 11.850530131733759 0 0 -1 I I #
point $-1 -76.206906457782296 -34.957674469050332 13.528375709471105 #
straight-curve $-1 76.20690645778231 -34.957674469050332 11.850530131733759 0 0 -1 I I #
straight-curve $-1 76.20690645778231 34.957674469050332 11.850530131733759 0 0 -1 I I #
End-of-ACIS-data 