500 0 6 0           
7 Unknown 11 ACIS 5.0 NT 24 Fri Mar 26 14:55:30 1999 
-1 9.9999999999999995e-007 1e-010 
body $-1 $6 $-1 $7 #
body $-1 $8 $-1 $9 #
body $-1 $10 $-1 $11 #
body $-1 $12 $-1 $13 #
body $-1 $14 $-1 $15 #
body $-1 $16 $-1 $17 #
lump $-1 $-1 $18 $0 #
transform $-1 1 0 0 0 1 0 0 0 1 70.193792535172577 30.722717826545949 11.852347668244494 1 rotate no_reflect no_shear #
lump $-1 $-1 $19 $1 #
transform $-1 1 0 0 0 1 0 0 0 1 70.193792535172577 30.722717826545949 11.852347668244494 1 rotate no_reflect no_shear #
lump $-1 $-1 $20 $2 #
transform $-1 1 0 0 0 1 0 0 0 1 70.193792535172577 30.722717826545949 11.852347668244494 1 rotate no_reflect no_shear #
lump $-1 $-1 $21 $3 #
transform $-1 1 0 0 0 1 0 0 0 1 70.193792535172577 30.722717826545949 11.852347668244494 1 rotate no_reflect no_shear #
lump $-1 $-1 $22 $4 #
transform $-1 1 0 0 0 1 0 0 0 1 70.193792535172577 30.722717826545949 11.852347668244494 1 rotate no_reflect no_shear #
lump $-1 $-1 $23 $5 #
transform $-1 1 0 0 0 1 0 0 0 1 70.193792535172577 30.722717826545949 11.852347668244494 1 rotate no_reflect no_shear #
shell $-1 $-1 $-1 $24 $-1 $6 #
shell $-1 $-1 $-1 $25 $-1 $8 #
shell $-1 $-1 $-1 $26 $-1 $10 #
shell $-1 $-1 $-1 $27 $-1 $12 #
shell $-1 $-1 $-1 $28 $-1 $14 #
shell $-1 $-1 $-1 $29 $-1 $16 #
face $-1 $30 $31 $18 $-1 $32 forward single #
face $-1 $33 $34 $19 $-1 $35 reversed single #
face $-1 $36 $37 $20 $-1 $38 reversed single #
face $-1 $39 $40 $21 $-1 $41 forward single #
face $-1 $42 $43 $22 $-1 $44 forward single #
face $-1 $45 $46 $23 $-1 $47 forward single #
face $-1 $48 $49 $18 $-1 $50 reversed single #
loop $-1 $-1 $51 $24 #
plane-surface $-1 0 0 11.852347668244494 0 0 1 1 0 0 forward_v I I I I #
face $-1 $52 $53 $19 $-1 $54 reversed single #
loop $-1 $-1 $55 $25 #
plane-surface $-1 0 -23.383721145232336 5.5932866134708146 0 0 1 1 0 0 forward_v I I I I #
face $-1 $56 $57 $20 $-1 $58 reversed single #
loop $-1 $-1 $59 $26 #
plane-surface $-1 118.22449125660037 11.685445074119375 199.82092277691788 0 -1 0 -0.85716730853699208 0 -0.51503806187062418 forward_v I I I I #
face $-1 $60 $61 $21 $-1 $62 forward single #
loop $-1 $63 $64 $27 #
cone-surface $-1 68.120433992858509 4.8288114881800546 9.1139150049274367 -0.85716730853699208 0 -0.51503806187062418 0.25751903093531209 0 -0.42858365426849604 1 I I 0 1 0.5 forward I I I I #
face $-1 $65 $66 $22 $-1 $67 forward single #
loop $-1 $68 $69 $28 #
cone-surface $-1 68.120433992858509 7.400049082907298 9.1139150049274367 -0.85716730853699208 0 -0.51503806187062418 0.25751903093531209 0 -0.42858365426849604 1 I I 0 1 0.5 forward I I I I #
face $-1 $70 $71 $23 $-1 $72 forward single #
loop $-1 $73 $74 $29 #
cone-surface $-1 68.120433992858509 9.9712866776345486 9.1139150049274367 -0.85716730853699208 0 -0.51503806187062418 0.25751903093531209 0 -0.42858365426849604 1 I I 0 1 0.5 forward I I I I #
face $-1 $75 $76 $18 $-1 $77 reversed single #
loop $-1 $-1 $78 $30 #
plane-surface $-1 0 0 -11.852347668244494 0 0 1 1 0 0 forward_v I I I I #
coedge $-1 $79 $80 $81 $82 forward $31 $-1 #
face $-1 $83 $84 $19 $-1 $85 reversed single #
loop $-1 $-1 $86 $33 #
plane-surface $-1 0 -16.044724463918723 8.7228171408576536 0 -1 0 0 0 -1 forward_v I I I I #
coedge $-1 $87 $88 $89 $90 reversed $34 $-1 #
face $-1 $91 $92 $20 $-1 $93 reversed single #
loop $-1 $-1 $94 $36 #
plane-surface $-1 -2.1111571901553958 7.400049082907298 127.51597305158994 0.85716730853699208 0 0.51503806187062418 0.51503806187062418 0 -0.85716730853699208 forward_v I I I I #
coedge $-1 $95 $96 $97 $98 reversed $37 $-1 #
face $-1 $-1 $99 $21 $-1 $100 forward single #
loop $-1 $101 $102 $39 #
cone-surface $-1 67.236400910040459 4.8288114881800546 8.5827343578478796 -0.85716730853699208 0 -0.51503806187062418 0.12875951546765604 0 -0.21429182713424802 1 I I -0.70710678118654746 0.70710678118654746 0.25 forward I I I I #
loop $-1 $-1 $103 $27 #
coedge $-1 $64 $64 $104 $105 reversed $40 $-1 #
face $-1 $-1 $106 $22 $-1 $107 forward single #
loop $-1 $108 $109 $42 #
cone-surface $-1 67.236400910040459 7.400049082907298 8.5827343578478796 -0.85716730853699208 0 -0.51503806187062418 0.12875951546765604 0 -0.21429182713424802 1 I I -0.70710678118654746 0.70710678118654746 0.25 forward I I I I #
loop $-1 $-1 $110 $28 #
coedge $-1 $69 $69 $111 $112 reversed $43 $-1 #
face $-1 $-1 $113 $23 $-1 $114 forward single #
loop $-1 $115 $116 $45 #
cone-surface $-1 67.236400910040459 9.9712866776345486 8.5827343578478796 -0.85716730853699208 0 -0.51503806187062418 0.12875951546765604 0 -0.21429182713424802 1 I I -0.70710678118654746 0.70710678118654746 0.25 forward I I I I #
loop $-1 $-1 $117 $29 #
coedge $-1 $74 $74 $118 $119 reversed $46 $-1 #
face $-1 $120 $121 $18 $-1 $122 reversed single #
loop $-1 $-1 $123 $48 #
plane-surface $-1 0 -30.722717826545949 0 0 1 0 0 0 1 forward_v I I I I #
coedge $-1 $124 $125 $126 $127 forward $49 $-1 #
coedge $-1 $128 $51 $129 $130 forward $31 $-1 #
coedge $-1 $51 $128 $131 $132 forward $31 $-1 #
coedge $-1 $133 $134 $51 $82 reversed $135 $-1 #
edge $-1 $136 -30.722717826545949 $137 30.722717826545949 $81 $138 forward 7 unknown #
face $-1 $139 $140 $19 $-1 $141 reversed single #
loop $-1 $-1 $142 $52 #
plane-surface $-1 -70.193792535172577 0 0 1 0 0 0 0 -1 forward_v I I I I #
coedge $-1 $143 $144 $145 $146 reversed $53 $-1 #
coedge $-1 $147 $55 $148 $149 reversed $34 $-1 #
coedge $-1 $55 $147 $143 $150 forward $34 $-1 #
coedge $-1 $145 $151 $55 $90 forward $152 $-1 #
edge $-1 $153 -19.030857253929781 $154 -4.3528638913025546 $89 $155 forward 7 unknown #
face $-1 $156 $157 $20 $-1 $158 reversed single #
loop $-1 $-1 $159 $56 #
plane-surface $-1 118.22449125660037 3.1146530916952209 199.82092277691788 0 1 0 0.85716730853699208 0 0.51503806187062418 forward_v I I I I #
coedge $-1 $160 $161 $162 $163 reversed $57 $-1 #
coedge $-1 $96 $59 $164 $165 reversed $37 $-1 #
coedge $-1 $59 $95 $160 $166 reversed $37 $-1 #
coedge $-1 $162 $167 $59 $98 forward $168 $-1 #
edge $-1 $169 -11.08154690687239 $170 -8.27431233361186 $97 $171 forward 7 unknown #
loop $-1 $-1 $104 $60 #
plane-surface $-1 -2.1111571901553958 7.400049082907298 127.51597305158994 0.85716730853699208 0 0.51503806187062418 0.51503806187062418 0 -0.85716730853699208 forward_v I I I I #
loop $-1 $-1 $172 $39 #
coedge $-1 $102 $102 $103 $173 reversed $61 $-1 #
coedge $-1 $103 $103 $102 $173 forward $63 $-1 #
coedge $-1 $104 $104 $64 $105 forward $99 $-1 #
edge $-1 $174 0 $174 6.2831853071796004 $104 $175 forward 7 unknown #
loop $-1 $-1 $111 $65 #
plane-surface $-1 -2.1111571901553958 7.400049082907298 127.51597305158994 0.85716730853699208 0 0.51503806187062418 0.51503806187062418 0 -0.85716730853699208 forward_v I I I I #
loop $-1 $-1 $176 $42 #
coedge $-1 $109 $109 $110 $177 reversed $66 $-1 #
coedge $-1 $110 $110 $109 $177 forward $68 $-1 #
coedge $-1 $111 $111 $69 $112 forward $106 $-1 #
edge $-1 $178 0 $178 6.2831853071796004 $111 $179 forward 7 unknown #
loop $-1 $-1 $118 $70 #
plane-surface $-1 -2.1111571901553958 7.400049082907298 127.51597305158994 0.85716730853699208 0 0.51503806187062418 0.51503806187062418 0 -0.85716730853699208 forward_v I I I I #
loop $-1 $-1 $180 $45 #
coedge $-1 $116 $116 $117 $181 reversed $71 $-1 #
coedge $-1 $117 $117 $116 $181 forward $73 $-1 #
coedge $-1 $118 $118 $74 $119 forward $113 $-1 #
edge $-1 $182 0 $182 6.2831853071796004 $118 $183 forward 7 unknown #
face $-1 $184 $185 $18 $-1 $186 reversed single #
loop $-1 $-1 $187 $75 #
plane-surface $-1 -70.193792535172577 0 0 1 0 0 0 0 -1 forward_v I I I I #
coedge $-1 $188 $131 $189 $190 forward $76 $-1 #
coedge $-1 $191 $78 $188 $192 forward $49 $-1 #
coedge $-1 $78 $191 $193 $194 forward $49 $-1 #
coedge $-1 $134 $133 $78 $127 reversed $135 $-1 #
edge $-1 $195 -30.722717826545949 $196 30.722717826545949 $126 $197 forward 7 unknown #
coedge $-1 $80 $79 $198 $199 forward $31 $-1 #
coedge $-1 $200 $201 $79 $130 reversed $185 $-1 #
edge $-1 $137 -70.193792535172577 $202 70.193792535172577 $129 $203 forward 7 unknown #
coedge $-1 $123 $204 $80 $132 reversed $76 $-1 #
edge $-1 $205 -70.193792535172577 $136 70.193792535172577 $131 $206 forward 7 unknown #
coedge $-1 $126 $81 $204 $207 forward $135 $-1 #
coedge $-1 $81 $126 $200 $208 reversed $135 $-1 #
loop $-1 $-1 $133 $184 #
vertex $-1 $82 $209 #
vertex $-1 $82 $210 #
straight-curve $-1 70.193792535172577 0 11.852347668244494 0 1 0 I I #
face $-1 $211 $212 $19 $-1 $213 forward single #
loop $-1 $-1 $148 $83 #
plane-surface $-1 0 -30.722717826545949 0 0 1 0 0 0 1 forward_v I I I I #
coedge $-1 $214 $215 $216 $217 forward $84 $-1 #
coedge $-1 $216 $86 $88 $150 reversed $53 $-1 #
coedge $-1 $86 $216 $218 $219 reversed $53 $-1 #
coedge $-1 $220 $89 $86 $146 forward $152 $-1 #
edge $-1 $154 1.2318780430419878 $221 7.4909390978156658 $145 $222 forward 7 unknown #
coedge $-1 $88 $87 $214 $223 reversed $34 $-1 #
coedge $-1 $224 $225 $87 $149 forward $140 $-1 #
edge $-1 $226 -70.193792535172577 $153 70.193792535172577 $148 $227 forward 7 unknown #
edge $-1 $228 -70.193792535172577 $154 70.193792535172577 $143 $229 forward 7 unknown #
coedge $-1 $89 $220 $224 $230 forward $152 $-1 #
loop $-1 $-1 $145 $211 #
vertex $-1 $149 $231 #
vertex $-1 $90 $232 #
straight-curve $-1 70.193792535172577 -11.691860572616168 5.5932866134708146 0 1 0 I I #
face $-1 $-1 $168 $20 $-1 $233 forward single #
loop $-1 $-1 $234 $91 #
plane-surface $-1 70.193792535172577 0 0 -1 0 0 0 0 1 forward_v I I I I #
coedge $-1 $235 $236 $237 $238 reversed $92 $-1 #
coedge $-1 $239 $94 $96 $166 forward $57 $-1 #
coedge $-1 $94 $239 $235 $240 forward $57 $-1 #
coedge $-1 $237 $97 $94 $163 forward $168 $-1 #
edge $-1 $170 -7.9854205326657262 $241 0.58537144975842814 $162 $242 forward 7 unknown #
coedge $-1 $243 $244 $95 $165 forward $157 $-1 #
edge $-1 $245 -92.730136783624815 $169 -88.05811372021445 $164 $246 forward 7 unknown #
edge $-1 $170 134.93704698183072 $245 140.38758507034524 $96 $247 forward 7 unknown #
coedge $-1 $97 $237 $243 $248 forward $168 $-1 #
loop $-1 $-1 $237 $156 #
vertex $-1 $165 $249 #
vertex $-1 $98 $250 #
straight-curve $-1 59.112245628300187 11.685445074119375 11.852347668244491 -1 0 0 I I #
coedge $-1 $172 $172 $-1 $251 reversed $101 $-1 #
edge $-1 $252 0 $252 6.2831853071796004 $102 $253 forward 7 unknown #
vertex $-1 $105 $254 #
ellipse-curve $-1 68.790175248542297 4.8288114881800546 9.5163361365393264 0.85716730853699208 0 0.51503806187062418 0.25751903093531209 0 -0.42858365426849604 1 I I #
coedge $-1 $176 $176 $-1 $255 reversed $108 $-1 #
edge $-1 $256 0 $256 6.2831853071796004 $109 $257 forward 7 unknown #
vertex $-1 $112 $258 #
ellipse-curve $-1 68.790175248542297 7.400049082907298 9.5163361365393264 0.85716730853699208 0 0.51503806187062418 0.25751903093531209 0 -0.42858365426849604 1 I I #
coedge $-1 $180 $180 $-1 $259 reversed $115 $-1 #
edge $-1 $260 0 $260 6.2831853071796004 $116 $261 forward 7 unknown #
vertex $-1 $119 $262 #
ellipse-curve $-1 68.790175248542297 9.9712866776345486 9.5163361365393264 0.85716730853699208 0 0.51503806187062418 0.25751903093531209 0 -0.42858365426849604 1 I I #
face $-1 $-1 $135 $18 $-1 $263 reversed single #
loop $-1 $-1 $200 $120 #
plane-surface $-1 0 30.722717826545949 0 0 -1 0 0 0 -1 forward_v I I I I #
coedge $-1 $264 $198 $201 $265 forward $121 $-1 #
coedge $-1 $204 $123 $124 $192 reversed $76 $-1 #
coedge $-1 $198 $264 $123 $190 reversed $121 $-1 #
edge $-1 $205 -11.852347668244494 $266 11.852347668244494 $189 $267 forward 7 unknown #
coedge $-1 $125 $124 $264 $268 forward $49 $-1 #
edge $-1 $196 -70.193792535172577 $266 70.193792535172577 $188 $269 forward 7 unknown #
coedge $-1 $201 $200 $125 $194 reversed $185 $-1 #
edge $-1 $270 -70.193792535172577 $195 70.193792535172577 $193 $271 forward 7 unknown #
vertex $-1 $127 $272 #
vertex $-1 $207 $273 #
straight-curve $-1 70.193792535172577 0 -11.852347668244494 0 -1 0 I I #
coedge $-1 $187 $189 $128 $199 reversed $121 $-1 #
edge $-1 $202 -30.722717826545949 $205 30.722717826545949 $198 $274 forward 7 unknown #
coedge $-1 $193 $129 $134 $208 forward $185 $-1 #
coedge $-1 $129 $193 $187 $265 reversed $185 $-1 #
vertex $-1 $130 $275 #
straight-curve $-1 0 30.722717826545949 11.852347668244494 -1 0 0 I I #
coedge $-1 $131 $188 $133 $207 reversed $76 $-1 #
vertex $-1 $199 $276 #
straight-curve $-1 0 -30.722717826545949 11.852347668244494 1 0 0 I I #
edge $-1 $136 -11.852347668244494 $196 11.852347668244494 $133 $277 forward 7 unknown #
edge $-1 $137 -11.852347668244494 $195 11.852347668244494 $134 $278 forward 7 unknown #
point $-1 70.193792535172577 -30.722717826545949 11.852347668244494 #
point $-1 70.193792535172577 30.722717826545949 11.852347668244494 #
face $-1 $-1 $152 $19 $-1 $279 reversed single #
loop $-1 $-1 $218 $139 #
plane-surface $-1 0 0 11.852347668244494 0 0 1 1 0 0 forward_v I I I I #
coedge $-1 $280 $142 $147 $223 forward $84 $-1 #
coedge $-1 $142 $280 $281 $282 reversed $84 $-1 #
coedge $-1 $144 $143 $142 $217 reversed $53 $-1 #
edge $-1 $283 -7.4909390978156658 $228 -1.2318780430419878 $142 $284 forward 7 unknown #
coedge $-1 $281 $285 $144 $219 forward $212 $-1 #
edge $-1 $221 -70.193792535172577 $283 70.193792535172577 $218 $286 forward 7 unknown #
coedge $-1 $151 $145 $285 $287 reversed $152 $-1 #
vertex $-1 $146 $288 #
straight-curve $-1 70.193792535172577 -16.044724463918723 4.3614085704288268 0 0 1 I I #
edge $-1 $228 4.3528638913025546 $226 19.030857253929781 $214 $289 forward 7 unknown #
coedge $-1 $290 $148 $151 $230 reversed $140 $-1 #
coedge $-1 $148 $290 $280 $291 forward $140 $-1 #
vertex $-1 $149 $292 #
straight-curve $-1 0 -30.722717826545949 5.5932866134708146 1 0 0 I I #
vertex $-1 $223 $293 #
straight-curve $-1 0 -16.044724463918723 5.5932866134708146 1 0 0 I I #
edge $-1 $294 -11.852347668244494 $153 -5.5932866134708146 $151 $295 forward 7 unknown #
point $-1 70.193792535172577 -30.722717826545949 5.5932866134708146 #
point $-1 70.193792535172577 -16.044724463918723 5.5932866134708146 #
plane-surface $-1 0 0 11.852347668244494 0 0 1 1 0 0 forward_v I I I I #
coedge $-1 $244 $243 $236 $296 forward $157 $-1 #
coedge $-1 $236 $159 $161 $240 reversed $92 $-1 #
coedge $-1 $159 $235 $234 $296 reversed $92 $-1 #
coedge $-1 $167 $162 $159 $238 forward $168 $-1 #
edge $-1 $241 8.27431233361186 $297 11.08154690687239 $237 $298 forward 7 unknown #
coedge $-1 $161 $160 $244 $299 reversed $57 $-1 #
edge $-1 $300 -140.38758507034524 $241 -134.93704698183072 $235 $301 forward 7 unknown #
vertex $-1 $163 $302 #
straight-curve $-1 67.386557961912033 3.700024541453649 11.852347668244491 0 -1 0 I I #
coedge $-1 $234 $164 $167 $248 reversed $157 $-1 #
coedge $-1 $164 $234 $239 $299 forward $157 $-1 #
vertex $-1 $165 $303 #
straight-curve $-1 70.193792535172577 11.685445074119375 99.910461388458941 0 0 1 I I #
straight-curve $-1 -2.1111571901553958 11.685445074119375 127.51597305158994 0.51503806187062418 0 -0.85716730853699208 I I #
edge $-1 $297 3.1146530916952209 $169 11.685445074119375 $243 $304 forward 7 unknown #
point $-1 70.193792535172577 11.685445074119375 11.852347668244494 #
point $-1 67.386557961912047 11.685445074119375 11.852347668244491 #
edge $-1 $305 1 $305 0 $172 $-1 forward 7 unknown #
vertex $-1 $173 $306 #
ellipse-curve $-1 67.450692737174705 4.8288114881800546 8.7114938733155363 0.85716730853699208 0 0.51503806187062418 0.25751903093531209 0 -0.42858365426849604 1 I I #
point $-1 69.047694279477625 4.8288114881800546 9.0877524822708438 #
edge $-1 $307 1 $307 0 $176 $-1 forward 7 unknown #
vertex $-1 $177 $308 #
ellipse-curve $-1 67.450692737174705 7.400049082907298 8.7114938733155363 0.85716730853699208 0 0.51503806187062418 0.25751903093531209 0 -0.42858365426849604 1 I I #
point $-1 69.047694279477625 7.400049082907298 9.0877524822708438 #
edge $-1 $309 1 $309 0 $180 $-1 forward 7 unknown #
vertex $-1 $181 $310 #
ellipse-curve $-1 67.450692737174705 9.9712866776345486 8.7114938733155363 0.85716730853699208 0 0.51503806187062418 0.25751903093531209 0 -0.42858365426849604 1 I I #
point $-1 69.047694279477625 9.9712866776345486 9.0877524822708438 #
plane-surface $-1 70.193792535172577 0 0 -1 0 0 0 0 1 forward_v I I I I #
coedge $-1 $189 $187 $191 $268 reversed $121 $-1 #
edge $-1 $202 -11.852347668244494 $270 11.852347668244494 $201 $311 forward 7 unknown #
vertex $-1 $268 $312 #
straight-curve $-1 -70.193792535172577 -30.722717826545949 0 0 0 -1 I I #
edge $-1 $266 -30.722717826545949 $270 30.722717826545949 $264 $313 forward 7 unknown #
straight-curve $-1 0 -30.722717826545949 -11.852347668244494 -1 0 0 I I #
vertex $-1 $194 $314 #
straight-curve $-1 0 30.722717826545949 -11.852347668244494 1 0 0 I I #
point $-1 70.193792535172577 30.722717826545949 -11.852347668244494 #
point $-1 70.193792535172577 -30.722717826545949 -11.852347668244494 #
straight-curve $-1 -70.193792535172577 0 11.852347668244494 0 -1 0 I I #
point $-1 -70.193792535172577 30.722717826545949 11.852347668244494 #
point $-1 -70.193792535172577 -30.722717826545949 11.852347668244494 #
straight-curve $-1 70.193792535172577 -30.722717826545949 0 0 0 -1 I I #
straight-curve $-1 70.193792535172577 30.722717826545949 0 0 0 -1 I I #
plane-surface $-1 70.193792535172577 0 0 -1 0 0 0 0 1 forward_v I I I I #
coedge $-1 $215 $214 $225 $291 reversed $84 $-1 #
coedge $-1 $315 $218 $215 $282 forward $212 $-1 #
edge $-1 $283 16.044724463918723 $316 30.722717826545949 $215 $317 forward 7 unknown #
vertex $-1 $282 $318 #
straight-curve $-1 -70.193792535172577 -16.044724463918723 4.3614085704288268 0 0 -1 I I #
coedge $-1 $218 $315 $220 $287 forward $212 $-1 #
straight-curve $-1 0 -16.044724463918723 11.852347668244494 -1 0 0 I I #
edge $-1 $294 -30.722717826545949 $221 -16.044724463918723 $220 $319 forward 7 unknown #
point $-1 70.193792535172577 -16.044724463918723 11.852347668244493 #
straight-curve $-1 -70.193792535172577 -11.691860572616168 5.5932866134708146 0 -1 0 I I #
coedge $-1 $225 $224 $315 $320 reversed $140 $-1 #
edge $-1 $316 -11.852347668244494 $226 -5.5932866134708146 $280 $321 forward 7 unknown #
point $-1 -70.193792535172577 -30.722717826545949 5.5932866134708146 #
point $-1 -70.193792535172577 -16.044724463918723 5.5932866134708146 #
vertex $-1 $287 $322 #
straight-curve $-1 70.193792535172577 -30.722717826545949 0 0 0 -1 I I #
edge $-1 $297 88.05811372021445 $300 92.730136783624815 $234 $323 forward 7 unknown #
vertex $-1 $248 $324 #
straight-curve $-1 59.112245628300187 3.1146530916952209 11.852347668244491 1 0 0 I I #
edge $-1 $300 -0.58537144975842814 $245 7.9854205326657262 $244 $325 forward 7 unknown #
vertex $-1 $299 $326 #
straight-curve $-1 -2.1111571901553958 3.1146530916952209 127.51597305158994 -0.51503806187062418 0 0.85716730853699208 I I #
point $-1 67.386557961912047 3.1146530916952209 11.852347668244491 #
point $-1 70.193792535172577 11.685445074119375 7.1803246048341265 #
straight-curve $-1 70.193792535172577 0 11.852347668244494 0 1 0 I I #
vertex $-1 $251 $327 #
point $-1 67.708211768110019 4.8288114881800546 8.2829102190470394 #
vertex $-1 $255 $328 #
point $-1 67.708211768110019 7.400049082907298 8.2829102190470394 #
vertex $-1 $259 $329 #
point $-1 67.708211768110019 9.9712866776345486 8.2829102190470394 #
straight-curve $-1 -70.193792535172577 30.722717826545949 0 0 0 -1 I I #
point $-1 -70.193792535172577 -30.722717826545949 -11.852347668244494 #
straight-curve $-1 -70.193792535172577 0 -11.852347668244494 0 1 0 I I #
point $-1 -70.193792535172577 30.722717826545949 -11.852347668244494 #
coedge $-1 $285 $281 $290 $320 forward $212 $-1 #
vertex $-1 $282 $330 #
straight-curve $-1 -70.193792535172577 0 11.852347668244494 0 -1 0 I I #
point $-1 -70.193792535172577 -16.044724463918723 11.852347668244493 #
straight-curve $-1 70.193792535172577 0 11.852347668244494 0 1 0 I I #
edge $-1 $316 -70.193792535172577 $294 70.193792535172577 $290 $331 forward 7 unknown #
straight-curve $-1 -70.193792535172577 -30.722717826545949 0 0 0 -1 I I #
point $-1 70.193792535172577 -30.722717826545949 11.852347668244494 #
straight-curve $-1 70.193792535172577 3.1146530916952209 99.910461388458941 0 0 -1 I I #
point $-1 70.193792535172577 3.1146530916952209 11.852347668244494 #
straight-curve $-1 70.193792535172577 3.700024541453649 7.1803246048341194 0 1 0 I I #
point $-1 70.193792535172577 3.1146530916952209 7.1803246048341265 #
point $-1 67.022109082906212 4.8288114881800546 8.453974842380223 #
point $-1 67.022109082906212 7.400049082907298 8.453974842380223 #
point $-1 67.022109082906212 9.9712866776345486 8.453974842380223 #
point $-1 -70.193792535172577 -30.722717826545949 11.852347668244494 #
straight-curve $-1 0 -30.722717826545949 11.852347668244494 1 0 0 I I #
End-of-ACIS-data 