500 0 11 0           
7 Unknown 11 ACIS 5.0 NT 24 Fri Mar 26 19:05:42 1999 
-1 9.9999999999999995e-007 1e-010 
body $-1 $11 $-1 $12 #
body $-1 $13 $-1 $14 #
body $-1 $15 $-1 $16 #
body $-1 $17 $-1 $18 #
body $-1 $19 $-1 $20 #
body $-1 $21 $-1 $22 #
body $-1 $23 $-1 $24 #
body $-1 $25 $-1 $26 #
body $-1 $27 $-1 $28 #
body $-1 $29 $-1 $30 #
body $-1 $31 $-1 $32 #
lump $-1 $-1 $33 $0 #
transform $-1 1 0 0 0 1 0 0 0 1 48.039796136356699 20.407420341197458 7.8128899793761946 1 rotate no_reflect no_shear #
lump $-1 $-1 $34 $1 #
transform $-1 1 0 0 0 1 0 0 0 1 48.039796136356699 20.407420341197458 7.8128899793761946 1 rotate no_reflect no_shear #
lump $-1 $-1 $35 $2 #
transform $-1 1 0 0 0 1 0 0 0 1 48.039796136356699 20.407420341197458 7.8128899793761946 1 rotate no_reflect no_shear #
lump $-1 $-1 $36 $3 #
transform $-1 1 0 0 0 1 0 0 0 1 48.039796136356699 20.407420341197458 7.8128899793761946 1 rotate no_reflect no_shear #
lump $-1 $-1 $37 $4 #
transform $-1 1 0 0 0 1 0 0 0 1 48.039796136356699 20.407420341197458 7.8128899793761946 1 rotate no_reflect no_shear #
lump $-1 $-1 $38 $5 #
transform $-1 1 0 0 0 1 0 0 0 1 48.039796136356699 20.407420341197458 7.8128899793761946 1 rotate no_reflect no_shear #
lump $-1 $-1 $39 $6 #
transform $-1 1 0 0 0 1 0 0 0 1 48.039796136356699 20.407420341197458 7.8128899793761946 1 rotate no_reflect no_shear #
lump $-1 $-1 $40 $7 #
transform $-1 1 0 0 0 1 0 0 0 1 48.039796136356699 20.407420341197458 7.8128899793761946 1 rotate no_reflect no_shear #
lump $-1 $-1 $41 $8 #
transform $-1 1 0 0 0 1 0 0 0 1 48.039796136356699 20.407420341197458 7.8128899793761946 1 rotate no_reflect no_shear #
lump $-1 $-1 $42 $9 #
transform $-1 1 0 0 0 1 0 0 0 1 48.039796136356699 20.407420341197458 7.8128899793761946 1 rotate no_reflect no_shear #
lump $-1 $-1 $43 $10 #
transform $-1 1 0 0 0 1 0 0 0 1 48.039796136356699 20.407420341197458 7.8128899793761946 1 rotate no_reflect no_shear #
shell $-1 $-1 $-1 $44 $-1 $11 #
shell $-1 $-1 $-1 $45 $-1 $13 #
shell $-1 $-1 $-1 $46 $-1 $15 #
shell $-1 $-1 $-1 $47 $-1 $17 #
shell $-1 $-1 $-1 $48 $-1 $19 #
shell $-1 $-1 $-1 $49 $-1 $21 #
shell $-1 $-1 $-1 $50 $-1 $23 #
shell $-1 $-1 $-1 $51 $-1 $25 #
shell $-1 $-1 $-1 $52 $-1 $27 #
shell $-1 $-1 $-1 $53 $-1 $29 #
shell $-1 $-1 $-1 $54 $-1 $31 #
face $-1 $55 $56 $33 $-1 $57 forward single #
face $-1 $58 $59 $34 $-1 $60 forward single #
face $-1 $61 $62 $35 $-1 $63 forward single #
face $-1 $64 $65 $36 $-1 $66 reversed single #
face $-1 $67 $68 $37 $-1 $69 forward single #
face $-1 $70 $71 $38 $-1 $72 reversed single #
face $-1 $73 $74 $39 $-1 $75 forward single #
face $-1 $76 $77 $40 $-1 $78 reversed single #
face $-1 $79 $80 $41 $-1 $81 forward single #
face $-1 $82 $83 $42 $-1 $84 reversed single #
face $-1 $85 $86 $43 $-1 $87 forward single #
face $-1 $88 $89 $33 $-1 $90 reversed single #
loop $-1 $-1 $91 $44 #
plane-surface $-1 0 0 7.8128899793761946 0 0 1 1 0 0 forward_v I I I I #
face $-1 $92 $93 $34 $-1 $94 reversed single #
loop $-1 $-1 $95 $45 #
plane-surface $-1 -48.039796136356699 0 0 1 0 0 0 0 -1 forward_v I I I I #
face $-1 $96 $97 $35 $-1 $98 reversed single #
loop $-1 $-1 $99 $46 #
plane-surface $-1 48.039796136356699 0 0 -1 0 0 0 0 1 forward_v I I I I #
face $-1 $100 $101 $36 $-1 $102 reversed single #
loop $-1 $-1 $103 $47 #
plane-surface $-1 -30.065654848104657 80.258966582358084 86.335519906462281 1 0 0 0 -0.84804810408105047 -0.52991925155115449 forward_v I I I I #
face $-1 $104 $105 $37 $-1 $106 forward single #
loop $-1 $107 $108 $48 #
cone-surface $-1 -23.588921942101855 14.951010320059812 2.2685167703258537 0 -0.84804810408105047 -0.52991925155115449 2 0 0 1 I I 0 1 2 forward I I I I #
face $-1 $109 $110 $38 $-1 $111 reversed single #
loop $-1 $-1 $112 $49 #
plane-surface $-1 17.112189036099046 80.258966582358084 86.335519906462281 1 0 0 0 -0.84804810408105047 -0.52991925155115449 forward_v I I I I #
face $-1 $113 $114 $39 $-1 $115 forward single #
loop $-1 $116 $117 $50 #
cone-surface $-1 23.588921942101848 14.951010320059812 2.2685167703258537 0 -0.84804810408105047 -0.52991925155115449 2 0 0 1 I I 0 1 2 forward I I I I #
face $-1 $118 $119 $40 $-1 $120 reversed single #
loop $-1 $-1 $121 $51 #
plane-surface $-1 -17.112189036099053 -101.8875364089524 51.722571647387142 -1 0 0 0 -0.84804810408105047 0.52991925155115449 forward_v I I I I #
face $-1 $122 $123 $41 $-1 $124 forward single #
loop $-1 $125 $126 $52 #
cone-surface $-1 -23.588921942101855 -14.951010320059812 2.2685167703258537 0 0.84804810408105047 -0.52991925155115449 2 0 0 1 I I 0 1 2 forward I I I I #
face $-1 $127 $128 $42 $-1 $129 reversed single #
loop $-1 $-1 $130 $53 #
plane-surface $-1 30.06565484810465 -101.8875364089524 51.722571647387142 -1 0 0 0 -0.84804810408105047 0.52991925155115449 forward_v I I I I #
face $-1 $131 $132 $43 $-1 $133 forward single #
loop $-1 $134 $135 $54 #
cone-surface $-1 23.588921942101848 -14.951010320059812 2.2685167703258537 0 0.84804810408105047 -0.52991925155115449 2 0 0 1 I I 0 1 2 forward I I I I #
face $-1 $136 $137 $33 $-1 $138 reversed single #
loop $-1 $-1 $139 $55 #
plane-surface $-1 0 0 -7.8128899793761946 0 0 1 1 0 0 forward_v I I I I #
coedge $-1 $140 $141 $142 $143 forward $56 $-1 #
face $-1 $144 $145 $34 $-1 $146 forward single #
loop $-1 $-1 $147 $58 #
plane-surface $-1 0 20.407420341197458 0 0 -1 0 0 0 -1 forward_v I I I I #
coedge $-1 $148 $149 $150 $151 forward $59 $-1 #
face $-1 $152 $153 $35 $-1 $154 forward single #
loop $-1 $-1 $155 $61 #
plane-surface $-1 0 -20.407420341197458 0 0 1 0 0 0 1 forward_v I I I I #
coedge $-1 $156 $157 $158 $159 forward $62 $-1 #
face $-1 $160 $161 $36 $-1 $162 reversed single #
loop $-1 $-1 $163 $64 #
plane-surface $-1 -23.588921942101855 -1.2211494853968645 35.421094279965914 0 0.84804810408105047 0.52991925155115449 1 0 0 forward_v I I I I #
coedge $-1 $164 $165 $166 $167 reversed $65 $-1 #
face $-1 $-1 $168 $37 $-1 $169 forward single #
loop $-1 $170 $171 $67 #
cone-surface $-1 -23.588921942101855 10.835077030829257 -0.30340371103292796 0 -0.84804810408105047 -0.52991925155115449 1 0 0 1 I I -0.70710678118654746 0.70710678118654746 1 forward I I I I #
loop $-1 $-1 $172 $48 #
coedge $-1 $108 $108 $173 $174 reversed $68 $-1 #
face $-1 $175 $176 $38 $-1 $177 reversed single #
loop $-1 $-1 $178 $70 #
plane-surface $-1 23.588921942101848 -1.2211494853968645 35.421094279965914 0 0.84804810408105047 0.52991925155115449 1 0 0 forward_v I I I I #
coedge $-1 $179 $180 $181 $182 reversed $71 $-1 #
face $-1 $-1 $183 $39 $-1 $184 forward single #
loop $-1 $185 $186 $73 #
cone-surface $-1 23.588921942101848 10.835077030829257 -0.30340371103292796 0 -0.84804810408105047 -0.52991925155115449 1 0 0 1 I I -0.70710678118654746 0.70710678118654746 1 forward I I I I #
loop $-1 $-1 $187 $50 #
coedge $-1 $117 $117 $188 $189 reversed $74 $-1 #
face $-1 $190 $191 $40 $-1 $192 reversed single #
loop $-1 $-1 $193 $76 #
plane-surface $-1 -23.588921942101855 -20.407420341197451 0.80814602089077425 0 -0.84804810408105047 0.52991925155115449 1 0 0 forward_v I I I I #
coedge $-1 $194 $195 $196 $197 reversed $77 $-1 #
face $-1 $-1 $198 $41 $-1 $199 forward single #
loop $-1 $200 $201 $79 #
cone-surface $-1 -23.588921942101855 -10.835077030829257 -0.30340371103292796 0 0.84804810408105047 -0.52991925155115449 1 0 0 1 I I -0.70710678118654746 0.70710678118654746 1 forward I I I I #
loop $-1 $-1 $202 $52 #
coedge $-1 $126 $126 $203 $204 reversed $80 $-1 #
face $-1 $205 $206 $42 $-1 $207 reversed single #
loop $-1 $-1 $208 $82 #
plane-surface $-1 23.588921942101848 -20.407420341197451 0.80814602089077425 0 -0.84804810408105047 0.52991925155115449 1 0 0 forward_v I I I I #
coedge $-1 $209 $210 $211 $212 reversed $83 $-1 #
face $-1 $-1 $213 $43 $-1 $214 forward single #
loop $-1 $215 $216 $85 #
cone-surface $-1 23.588921942101848 -10.835077030829257 -0.30340371103292796 0 0.84804810408105047 -0.52991925155115449 1 0 0 1 I I -0.70710678118654746 0.70710678118654746 1 forward I I I I #
loop $-1 $-1 $217 $54 #
coedge $-1 $135 $135 $218 $219 reversed $86 $-1 #
face $-1 $220 $221 $33 $-1 $222 reversed single #
loop $-1 $-1 $223 $88 #
plane-surface $-1 0 -20.407420341197458 0 0 1 0 0 0 1 forward_v I I I I #
coedge $-1 $224 $225 $226 $227 forward $89 $-1 #
coedge $-1 $228 $91 $229 $230 forward $56 $-1 #
coedge $-1 $91 $228 $231 $232 forward $56 $-1 #
coedge $-1 $233 $234 $91 $143 reversed $235 $-1 #
edge $-1 $236 -20.407420341197458 $237 20.407420341197458 $142 $238 forward 7 unknown #
face $-1 $239 $240 $34 $-1 $241 reversed single #
loop $-1 $-1 $150 $92 #
plane-surface $-1 -50.794853810647901 0 0.40511326173299622 0 0 1 1 0 0 forward_v I I I I #
coedge $-1 $242 $243 $149 $244 forward $93 $-1 #
coedge $-1 $245 $95 $246 $247 reversed $59 $-1 #
coedge $-1 $95 $245 $147 $244 reversed $59 $-1 #
coedge $-1 $248 $249 $95 $151 reversed $145 $-1 #
edge $-1 $250 -20.407420341197458 $251 20.407420341197458 $150 $252 forward 7 unknown #
face $-1 $253 $254 $35 $-1 $255 reversed single #
loop $-1 $-1 $256 $96 #
plane-surface $-1 50.794853810647908 0 0.40511326173299622 0 0 1 1 0 0 forward_v I I I I #
coedge $-1 $257 $258 $157 $259 forward $97 $-1 #
coedge $-1 $260 $99 $261 $262 reversed $62 $-1 #
coedge $-1 $99 $260 $155 $259 reversed $62 $-1 #
coedge $-1 $263 $264 $99 $159 reversed $153 $-1 #
edge $-1 $265 -20.407420341197458 $266 20.407420341197458 $158 $267 forward 7 unknown #
face $-1 $268 $269 $36 $-1 $270 reversed single #
loop $-1 $-1 $271 $100 #
plane-surface $-1 -17.112189036099053 80.258966582358084 86.335519906462281 -1 0 0 0 0.84804810408105047 0.52991925155115449 forward_v I I I I #
coedge $-1 $272 $273 $274 $275 reversed $101 $-1 #
coedge $-1 $165 $103 $276 $277 reversed $65 $-1 #
coedge $-1 $103 $164 $272 $278 reversed $65 $-1 #
coedge $-1 $274 $279 $103 $167 forward $280 $-1 #
edge $-1 $281 19.722062949981584 $282 24.099112621957854 $166 $283 forward 7 unknown #
loop $-1 $-1 $173 $104 #
plane-surface $-1 -23.588921942101855 -1.2211494853968645 35.421094279965914 0 0.84804810408105047 0.52991925155115449 1 0 0 forward_v I I I I #
loop $-1 $-1 $284 $67 #
coedge $-1 $171 $171 $172 $285 reversed $105 $-1 #
coedge $-1 $172 $172 $171 $285 forward $107 $-1 #
coedge $-1 $173 $173 $108 $174 forward $168 $-1 #
edge $-1 $286 3.7700270109167406e-016 $286 6.2831853071796004 $173 $287 forward 7 unknown #
face $-1 $288 $289 $38 $-1 $290 forward single #
loop $-1 $-1 $291 $109 #
plane-surface $-1 30.06565484810465 80.258966582358084 86.335519906462281 -1 0 0 0 0.84804810408105047 0.52991925155115449 forward_v I I I I #
coedge $-1 $292 $293 $294 $295 reversed $110 $-1 #
coedge $-1 $180 $112 $296 $297 reversed $71 $-1 #
coedge $-1 $112 $179 $292 $298 reversed $71 $-1 #
coedge $-1 $294 $299 $112 $182 forward $289 $-1 #
edge $-1 $300 19.722062949981584 $301 24.099112621957854 $181 $302 forward 7 unknown #
loop $-1 $-1 $188 $113 #
plane-surface $-1 23.588921942101848 -1.2211494853968645 35.421094279965914 0 0.84804810408105047 0.52991925155115449 1 0 0 forward_v I I I I #
loop $-1 $-1 $303 $73 #
coedge $-1 $186 $186 $187 $304 reversed $114 $-1 #
coedge $-1 $187 $187 $186 $304 forward $116 $-1 #
coedge $-1 $188 $188 $117 $189 forward $183 $-1 #
edge $-1 $305 3.7700270109167406e-016 $305 6.2831853071796004 $188 $306 forward 7 unknown #
face $-1 $307 $308 $40 $-1 $309 forward single #
loop $-1 $-1 $310 $118 #
plane-surface $-1 -30.065654848104657 -101.8875364089524 51.722571647387142 1 0 0 0 0.84804810408105047 -0.52991925155115449 forward_v I I I I #
coedge $-1 $311 $312 $313 $314 reversed $119 $-1 #
coedge $-1 $195 $121 $315 $316 reversed $77 $-1 #
coedge $-1 $121 $194 $311 $317 reversed $77 $-1 #
coedge $-1 $313 $318 $121 $197 forward $308 $-1 #
edge $-1 $319 30.536347863278742 $320 34.913397535255029 $196 $321 forward 7 unknown #
loop $-1 $-1 $203 $122 #
plane-surface $-1 -23.588921942101855 -20.407420341197451 0.80814602089077425 0 -0.84804810408105047 0.52991925155115449 1 0 0 forward_v I I I I #
loop $-1 $-1 $322 $79 #
coedge $-1 $201 $201 $202 $323 reversed $123 $-1 #
coedge $-1 $202 $202 $201 $323 forward $125 $-1 #
coedge $-1 $203 $203 $126 $204 forward $198 $-1 #
edge $-1 $324 -5.6471667436655775e-016 $324 6.2831853071795996 $203 $325 forward 7 unknown #
face $-1 $326 $327 $42 $-1 $328 reversed single #
loop $-1 $-1 $329 $127 #
plane-surface $-1 17.112189036099046 -101.8875364089524 51.722571647387142 1 0 0 0 0.84804810408105047 -0.52991925155115449 forward_v I I I I #
coedge $-1 $330 $331 $332 $333 reversed $128 $-1 #
coedge $-1 $210 $130 $334 $335 reversed $83 $-1 #
coedge $-1 $130 $209 $330 $336 reversed $83 $-1 #
coedge $-1 $332 $337 $130 $212 forward $338 $-1 #
edge $-1 $339 30.536347863278742 $340 34.913397535255029 $211 $341 forward 7 unknown #
loop $-1 $-1 $218 $131 #
plane-surface $-1 23.588921942101848 -20.407420341197451 0.80814602089077425 0 -0.84804810408105047 0.52991925155115449 1 0 0 forward_v I I I I #
loop $-1 $-1 $342 $85 #
coedge $-1 $216 $216 $217 $343 reversed $132 $-1 #
coedge $-1 $217 $217 $216 $343 forward $134 $-1 #
coedge $-1 $218 $218 $135 $219 forward $213 $-1 #
edge $-1 $344 -5.6471667436655775e-016 $344 6.2831853071795996 $218 $345 forward 7 unknown #
face $-1 $346 $347 $33 $-1 $348 reversed single #
loop $-1 $-1 $349 $136 #
plane-surface $-1 -48.039796136356699 0 0 1 0 0 0 0 -1 forward_v I I I I #
coedge $-1 $350 $231 $351 $352 forward $137 $-1 #
coedge $-1 $353 $139 $350 $354 forward $89 $-1 #
coedge $-1 $139 $353 $355 $356 forward $89 $-1 #
coedge $-1 $234 $233 $139 $227 reversed $235 $-1 #
edge $-1 $357 -20.407420341197458 $358 20.407420341197458 $226 $359 forward 7 unknown #
coedge $-1 $141 $140 $360 $361 forward $56 $-1 #
coedge $-1 $362 $363 $140 $230 reversed $347 $-1 #
edge $-1 $237 -48.039796136356699 $364 48.039796136356699 $229 $365 forward 7 unknown #
coedge $-1 $223 $366 $141 $232 reversed $137 $-1 #
edge $-1 $367 -48.039796136356699 $236 48.039796136356699 $231 $368 forward 7 unknown #
coedge $-1 $226 $142 $366 $369 forward $235 $-1 #
coedge $-1 $142 $226 $362 $370 reversed $235 $-1 #
loop $-1 $-1 $233 $346 #
vertex $-1 $143 $371 #
vertex $-1 $143 $372 #
straight-curve $-1 48.039796136356699 0 7.8128899793761946 0 1 0 I I #
face $-1 $373 $374 $34 $-1 $375 reversed single #
loop $-1 $-1 $376 $144 #
plane-surface $-1 -50.794853810647901 0 -2.5948867382670038 0 0 1 1 0 0 forward_v I I I I #
coedge $-1 $377 $147 $378 $379 reversed $93 $-1 #
coedge $-1 $147 $377 $248 $380 reversed $93 $-1 #
edge $-1 $250 -0.40511326173299622 $381 2.5948867382670038 $147 $382 forward 7 unknown #
coedge $-1 $149 $148 $376 $383 forward $59 $-1 #
coedge $-1 $384 $385 $148 $247 forward $386 $-1 #
edge $-1 $387 -2.5948867382670038 $251 0.40511326173299622 $246 $388 forward 7 unknown #
coedge $-1 $389 $150 $243 $380 forward $145 $-1 #
coedge $-1 $150 $389 $384 $390 forward $145 $-1 #
vertex $-1 $244 $391 #
vertex $-1 $390 $392 #
straight-curve $-1 -48.039796136356699 0 0.40511326173299622 0 -1 0 I I #
face $-1 $393 $394 $35 $-1 $395 reversed single #
loop $-1 $-1 $396 $152 #
plane-surface $-1 50.794853810647908 0 -2.5948867382670038 0 0 1 1 0 0 forward_v I I I I #
coedge $-1 $264 $263 $397 $398 forward $153 $-1 #
coedge $-1 $399 $155 $400 $401 reversed $97 $-1 #
coedge $-1 $155 $399 $263 $402 reversed $97 $-1 #
edge $-1 $265 -0.40511326173299622 $403 2.5948867382670038 $155 $404 forward 7 unknown #
coedge $-1 $157 $156 $405 $406 forward $62 $-1 #
coedge $-1 $407 $408 $156 $262 forward $409 $-1 #
edge $-1 $410 -2.5948867382670038 $266 0.40511326173299622 $261 $411 forward 7 unknown #
coedge $-1 $256 $158 $258 $402 forward $153 $-1 #
coedge $-1 $158 $256 $407 $412 forward $153 $-1 #
vertex $-1 $259 $413 #
vertex $-1 $412 $414 #
straight-curve $-1 48.039796136356699 0 0.40511326173299622 0 1 0 I I #
face $-1 $-1 $280 $36 $-1 $415 forward single #
loop $-1 $-1 $416 $160 #
plane-surface $-1 0 20.407420341197458 0 0 -1 0 0 0 -1 forward_v I I I I #
coedge $-1 $417 $418 $419 $420 reversed $161 $-1 #
coedge $-1 $421 $163 $165 $278 forward $101 $-1 #
coedge $-1 $163 $421 $417 $422 forward $101 $-1 #
coedge $-1 $419 $166 $163 $275 forward $280 $-1 #
edge $-1 $282 -18.271193877053729 $423 -5.3177280650481258 $274 $424 forward 7 unknown #
coedge $-1 $425 $426 $164 $277 forward $269 $-1 #
edge $-1 $427 -42.359613932340359 $281 -35.354869973854946 $276 $428 forward 7 unknown #
edge $-1 $282 32.554997962652266 $427 40.814840682394909 $165 $429 forward 7 unknown #
coedge $-1 $166 $419 $425 $430 forward $280 $-1 #
loop $-1 $-1 $419 $268 #
vertex $-1 $277 $431 #
vertex $-1 $167 $432 #
straight-curve $-1 -30.065654848104657 40.129483291179042 7.8128899793761946 0 -1 0 I I #
coedge $-1 $284 $284 $-1 $433 reversed $170 $-1 #
edge $-1 $434 0 $434 6.2831853071796004 $171 $435 forward 7 unknown #
vertex $-1 $174 $436 #
ellipse-curve $-1 -23.588921942101855 18.218895505209325 4.3105180001334862 0 0.84804810408105047 0.52991925155115449 2 0 0 1 I I #
face $-1 $-1 $437 $38 $-1 $438 reversed single #
loop $-1 $-1 $181 $175 #
plane-surface $-1 0 0 7.8128899793761946 0 0 1 1 0 0 forward_v I I I I #
coedge $-1 $439 $440 $441 $442 reversed $176 $-1 #
coedge $-1 $443 $178 $180 $298 forward $110 $-1 #
coedge $-1 $178 $443 $439 $444 forward $110 $-1 #
coedge $-1 $441 $181 $178 $295 forward $289 $-1 #
edge $-1 $301 5.3177280650481222 $445 18.271193877053726 $294 $446 forward 7 unknown #
coedge $-1 $447 $448 $179 $297 forward $437 $-1 #
edge $-1 $449 -42.359613932340359 $300 -35.354869973854946 $296 $450 forward 7 unknown #
edge $-1 $301 32.554997962652266 $449 40.814840682394909 $180 $451 forward 7 unknown #
coedge $-1 $181 $441 $447 $452 forward $289 $-1 #
vertex $-1 $182 $453 #
vertex $-1 $182 $454 #
straight-curve $-1 17.112189036099046 40.129483291179042 7.8128899793761946 0 -1 0 I I #
coedge $-1 $303 $303 $-1 $455 reversed $185 $-1 #
edge $-1 $456 0 $456 6.2831853071796004 $186 $457 forward 7 unknown #
vertex $-1 $189 $458 #
ellipse-curve $-1 23.588921942101848 18.218895505209325 4.3105180001334862 0 0.84804810408105047 0.52991925155115449 2 0 0 1 I I #
face $-1 $-1 $459 $40 $-1 $460 reversed single #
loop $-1 $-1 $196 $190 #
plane-surface $-1 0 0 7.8128899793761946 0 0 1 1 0 0 forward_v I I I I #
coedge $-1 $461 $462 $463 $464 reversed $191 $-1 #
coedge $-1 $465 $193 $195 $317 forward $119 $-1 #
coedge $-1 $193 $465 $461 $466 forward $119 $-1 #
coedge $-1 $463 $196 $193 $314 forward $308 $-1 #
edge $-1 $320 5.3177280650481258 $467 18.271193877053729 $313 $468 forward 7 unknown #
coedge $-1 $469 $470 $194 $316 forward $459 $-1 #
edge $-1 $471 -25.053139802802807 $319 -18.048395844317376 $315 $472 forward 7 unknown #
edge $-1 $320 -8.2598427197426485 $471 1.3368832564924053e-014 $195 $473 forward 7 unknown #
coedge $-1 $196 $463 $469 $474 forward $308 $-1 #
vertex $-1 $316 $475 #
vertex $-1 $197 $476 #
straight-curve $-1 -17.112189036099053 -50.9437682044762 7.8128899793761946 0 1 0 I I #
coedge $-1 $322 $322 $-1 $477 reversed $200 $-1 #
edge $-1 $478 0 $478 6.2831853071796004 $201 $479 forward 7 unknown #
vertex $-1 $204 $480 #
ellipse-curve $-1 -23.588921942101855 -18.218895505209314 4.31051800013348 0 -0.84804810408105047 0.52991925155115449 2 0 0 1 I I #
face $-1 $-1 $338 $42 $-1 $481 forward single #
loop $-1 $-1 $482 $205 #
plane-surface $-1 0 -20.407420341197458 0 0 1 0 0 0 1 forward_v I I I I #
coedge $-1 $483 $484 $485 $486 reversed $206 $-1 #
coedge $-1 $487 $208 $210 $336 forward $128 $-1 #
coedge $-1 $208 $487 $483 $488 forward $128 $-1 #
coedge $-1 $485 $211 $208 $333 forward $338 $-1 #
edge $-1 $340 -18.271193877053726 $489 -5.3177280650481222 $332 $490 forward 7 unknown #
coedge $-1 $491 $492 $209 $335 forward $327 $-1 #
edge $-1 $493 -25.053139802802807 $339 -18.048395844317376 $334 $494 forward 7 unknown #
edge $-1 $340 -8.2598427197426485 $493 1.3368832564924053e-014 $210 $495 forward 7 unknown #
coedge $-1 $211 $485 $491 $496 forward $338 $-1 #
loop $-1 $-1 $485 $326 #
vertex $-1 $335 $497 #
vertex $-1 $212 $498 #
straight-curve $-1 30.06565484810465 -50.9437682044762 7.8128899793761946 0 1 0 I I #
coedge $-1 $342 $342 $-1 $499 reversed $215 $-1 #
edge $-1 $500 0 $500 6.2831853071796004 $216 $501 forward 7 unknown #
vertex $-1 $219 $502 #
ellipse-curve $-1 23.588921942101848 -18.218895505209314 4.31051800013348 0 -0.84804810408105047 0.52991925155115449 2 0 0 1 I I #
face $-1 $-1 $235 $33 $-1 $503 reversed single #
loop $-1 $-1 $362 $220 #
plane-surface $-1 0 20.407420341197458 0 0 -1 0 0 0 -1 forward_v I I I I #
coedge $-1 $504 $360 $363 $505 forward $221 $-1 #
coedge $-1 $366 $223 $224 $354 reversed $137 $-1 #
coedge $-1 $360 $504 $223 $352 reversed $221 $-1 #
edge $-1 $367 -7.8128899793761946 $506 7.8128899793761946 $351 $507 forward 7 unknown #
coedge $-1 $225 $224 $504 $508 forward $89 $-1 #
edge $-1 $358 -48.039796136356699 $506 48.039796136356699 $350 $509 forward 7 unknown #
coedge $-1 $363 $362 $225 $356 reversed $347 $-1 #
edge $-1 $510 -48.039796136356699 $357 48.039796136356699 $355 $511 forward 7 unknown #
vertex $-1 $227 $512 #
vertex $-1 $369 $513 #
straight-curve $-1 48.039796136356699 0 -7.8128899793761946 0 -1 0 I I #
coedge $-1 $349 $351 $228 $361 reversed $221 $-1 #
edge $-1 $364 -20.407420341197458 $367 20.407420341197458 $360 $514 forward 7 unknown #
coedge $-1 $355 $229 $234 $370 forward $347 $-1 #
coedge $-1 $229 $355 $349 $505 reversed $347 $-1 #
vertex $-1 $230 $515 #
straight-curve $-1 0 20.407420341197458 7.8128899793761946 -1 0 0 I I #
coedge $-1 $231 $350 $233 $369 reversed $137 $-1 #
vertex $-1 $361 $516 #
straight-curve $-1 0 -20.407420341197458 7.8128899793761946 1 0 0 I I #
edge $-1 $236 -7.8128899793761946 $358 7.8128899793761946 $233 $517 forward 7 unknown #
edge $-1 $237 -7.8128899793761946 $357 7.8128899793761946 $234 $518 forward 7 unknown #
point $-1 48.039796136356699 -20.407420341197458 7.8128899793761946 #
point $-1 48.039796136356699 20.407420341197458 7.8128899793761946 #
face $-1 $-1 $386 $34 $-1 $519 reversed single #
loop $-1 $-1 $520 $239 #
plane-surface $-1 -53.549911484939102 0 -1.0948867382670038 1 0 0 0 0 -1 forward_v I I I I #
coedge $-1 $521 $378 $245 $383 reversed $240 $-1 #
coedge $-1 $243 $242 $520 $522 reversed $93 $-1 #
coedge $-1 $376 $523 $242 $379 forward $240 $-1 #
edge $-1 $524 -2.7550576742912014 $381 2.7550576742912014 $242 $525 forward 7 unknown #
edge $-1 $250 -2.7550576742912014 $526 2.7550576742912014 $243 $527 forward 7 unknown #
vertex $-1 $244 $528 #
straight-curve $-1 -48.039796136356699 20.407420341197458 0 0 0 -1 I I #
edge $-1 $387 -20.407420341197458 $381 20.407420341197458 $376 $529 forward 7 unknown #
coedge $-1 $530 $246 $249 $390 reversed $386 $-1 #
coedge $-1 $246 $530 $521 $531 reversed $386 $-1 #
loop $-1 $-1 $246 $373 #
vertex $-1 $247 $532 #
straight-curve $-1 -48.039796136356699 -20.407420341197458 0 0 0 1 I I #
coedge $-1 $249 $248 $533 $534 forward $145 $-1 #
edge $-1 $535 -2.7550576742912014 $251 2.7550576742912014 $384 $536 forward 7 unknown #
point $-1 -48.039796136356699 20.407420341197458 0.40511326173299622 #
point $-1 -48.039796136356699 -20.407420341197458 0.40511326173299622 #
face $-1 $-1 $409 $35 $-1 $537 reversed single #
loop $-1 $-1 $538 $253 #
plane-surface $-1 53.549911484939109 0 -1.0948867382670038 -1 0 0 0 0 1 forward_v I I I I #
coedge $-1 $400 $539 $540 $541 forward $254 $-1 #
coedge $-1 $538 $542 $256 $398 reversed $394 $-1 #
edge $-1 $543 -20.407420341197458 $544 20.407420341197458 $397 $545 forward 7 unknown #
coedge $-1 $258 $257 $538 $546 reversed $97 $-1 #
coedge $-1 $405 $396 $257 $401 forward $254 $-1 #
edge $-1 $547 -2.7550576742912014 $403 2.7550576742912014 $257 $548 forward 7 unknown #
edge $-1 $265 -2.7550576742912014 $543 2.7550576742912014 $258 $549 forward 7 unknown #
vertex $-1 $259 $550 #
straight-curve $-1 48.039796136356699 -20.407420341197458 0 0 0 -1 I I #
coedge $-1 $539 $400 $260 $406 reversed $254 $-1 #
edge $-1 $410 -20.407420341197458 $403 20.407420341197458 $405 $551 forward 7 unknown #
coedge $-1 $552 $261 $264 $412 reversed $409 $-1 #
coedge $-1 $261 $552 $539 $553 reversed $409 $-1 #
loop $-1 $-1 $261 $393 #
vertex $-1 $262 $554 #
straight-curve $-1 48.039796136356699 20.407420341197458 0 0 0 1 I I #
edge $-1 $544 -2.7550576742912014 $266 2.7550576742912014 $407 $555 forward 7 unknown #
point $-1 48.039796136356706 -20.407420341197458 0.40511326173299622 #
point $-1 48.039796136356706 20.407420341197458 0.40511326173299622 #
plane-surface $-1 0 0 7.8128899793761946 0 0 1 1 0 0 forward_v I I I I #
coedge $-1 $426 $425 $418 $556 forward $269 $-1 #
coedge $-1 $418 $271 $273 $422 reversed $161 $-1 #
coedge $-1 $271 $417 $416 $556 reversed $161 $-1 #
coedge $-1 $279 $274 $271 $420 forward $280 $-1 #
edge $-1 $423 -24.099112621957854 $557 -19.722062949981584 $419 $558 forward 7 unknown #
coedge $-1 $273 $272 $426 $559 reversed $101 $-1 #
edge $-1 $560 -40.814840682394909 $423 -32.554997962652266 $417 $561 forward 7 unknown #
vertex $-1 $275 $562 #
straight-curve $-1 -11.794460971050928 16.030370669221188 7.8128899793761946 1 0 0 I I #
coedge $-1 $416 $276 $279 $430 reversed $269 $-1 #
coedge $-1 $276 $416 $421 $559 forward $269 $-1 #
vertex $-1 $277 $563 #
straight-curve $-1 -30.065654848104657 20.407420341197458 43.16775995323114 0 0 1 I I #
straight-curve $-1 -30.065654848104657 -1.2211494853968645 35.421094279965914 0 0.52991925155115449 -0.84804810408105047 I I #
edge $-1 $557 17.112189036099053 $281 30.065654848104657 $425 $564 forward 7 unknown #
point $-1 -30.065654848104657 20.407420341197458 7.8128899793761946 #
point $-1 -30.065654848104657 16.030370669221188 7.8128899793761946 #
edge $-1 $565 1 $565 0 $284 $-1 forward 7 unknown #
vertex $-1 $285 $566 #
ellipse-curve $-1 -23.588921942101855 11.683125134910307 0.22651554051822653 0 0.84804810408105047 0.52991925155115449 2 0 0 1 I I #
point $-1 -21.588921942101855 18.218895505209318 4.3105180001334809 #
loop $-1 $-1 $296 $288 #
plane-surface $-1 0 20.407420341197458 0 0 -1 0 0 0 -1 forward_v I I I I #
coedge $-1 $440 $291 $293 $444 reversed $176 $-1 #
coedge $-1 $291 $439 $567 $568 reversed $176 $-1 #
coedge $-1 $299 $294 $291 $442 forward $289 $-1 #
edge $-1 $445 -24.099112621957854 $569 -19.722062949981584 $441 $570 forward 7 unknown #
coedge $-1 $293 $292 $448 $571 reversed $110 $-1 #
edge $-1 $572 -40.814840682394909 $445 -32.554997962652266 $439 $573 forward 7 unknown #
vertex $-1 $295 $574 #
straight-curve $-1 11.794460971050924 16.030370669221188 7.8128899793761946 1 0 0 I I #
coedge $-1 $567 $296 $299 $452 reversed $437 $-1 #
coedge $-1 $296 $567 $443 $571 forward $437 $-1 #
vertex $-1 $297 $575 #
straight-curve $-1 17.112189036099046 20.407420341197458 43.16775995323114 0 0 1 I I #
straight-curve $-1 17.112189036099046 -1.2211494853968645 35.421094279965914 0 0.52991925155115449 -0.84804810408105047 I I #
edge $-1 $569 -30.06565484810465 $300 -17.112189036099046 $447 $576 forward 7 unknown #
point $-1 17.112189036099046 20.407420341197458 7.8128899793761946 #
point $-1 17.112189036099046 16.030370669221188 7.8128899793761946 #
edge $-1 $577 1 $577 0 $303 $-1 forward 7 unknown #
vertex $-1 $304 $578 #
ellipse-curve $-1 23.588921942101848 11.683125134910307 0.22651554051822653 0 0.84804810408105047 0.52991925155115449 2 0 0 1 I I #
point $-1 25.588921942101848 18.218895505209318 4.3105180001334809 #
loop $-1 $-1 $315 $307 #
plane-surface $-1 0 -20.407420341197458 0 0 1 0 0 0 1 forward_v I I I I #
coedge $-1 $462 $310 $312 $466 reversed $191 $-1 #
coedge $-1 $310 $461 $579 $580 reversed $191 $-1 #
coedge $-1 $318 $313 $310 $464 forward $308 $-1 #
edge $-1 $467 -34.913397535255029 $581 -30.536347863278742 $463 $582 forward 7 unknown #
coedge $-1 $312 $311 $470 $583 reversed $119 $-1 #
edge $-1 $584 -1.3368832564924053e-014 $467 8.2598427197426485 $461 $585 forward 7 unknown #
vertex $-1 $314 $586 #
straight-curve $-1 -11.794460971050928 -16.030370669221174 7.8128899793761946 -1 0 0 I I #
coedge $-1 $579 $315 $318 $474 reversed $459 $-1 #
coedge $-1 $315 $579 $465 $583 forward $459 $-1 #
vertex $-1 $316 $587 #
straight-curve $-1 -17.112189036099053 -20.407420341197458 25.861285823693571 0 0 1 I I #
straight-curve $-1 -17.112189036099053 -20.407420341197451 0.80814602089077425 0 -0.52991925155115449 -0.84804810408105047 I I #
edge $-1 $581 -30.065654848104657 $319 -17.112189036099053 $469 $588 forward 7 unknown #
point $-1 -17.112189036099053 -20.407420341197458 7.8128899793761946 #
point $-1 -17.112189036099053 -16.030370669221174 7.8128899793761946 #
edge $-1 $589 1 $589 0 $322 $-1 forward 7 unknown #
vertex $-1 $323 $590 #
ellipse-curve $-1 -23.588921942101855 -11.683125134910307 0.22651554051822653 0 -0.84804810408105047 0.52991925155115449 2 0 0 1 I I #
point $-1 -21.588921942101855 -18.218895505209318 4.3105180001334809 #
plane-surface $-1 0 0 7.8128899793761946 0 0 1 1 0 0 forward_v I I I I #
coedge $-1 $492 $491 $484 $591 forward $327 $-1 #
coedge $-1 $484 $329 $331 $488 reversed $206 $-1 #
coedge $-1 $329 $483 $482 $591 reversed $206 $-1 #
coedge $-1 $337 $332 $329 $486 forward $338 $-1 #
edge $-1 $489 -34.913397535255029 $592 -30.536347863278742 $485 $593 forward 7 unknown #
coedge $-1 $331 $330 $492 $594 reversed $128 $-1 #
edge $-1 $595 -1.3368832564924053e-014 $489 8.2598427197426485 $483 $596 forward 7 unknown #
vertex $-1 $333 $597 #
straight-curve $-1 11.794460971050924 -16.030370669221174 7.8128899793761946 -1 0 0 I I #
coedge $-1 $482 $334 $337 $496 reversed $327 $-1 #
coedge $-1 $334 $482 $487 $594 forward $327 $-1 #
vertex $-1 $335 $598 #
straight-curve $-1 30.06565484810465 -20.407420341197458 25.861285823693571 0 0 1 I I #
straight-curve $-1 30.06565484810465 -20.407420341197451 0.80814602089077425 0 -0.52991925155115449 -0.84804810408105047 I I #
edge $-1 $592 17.112189036099046 $339 30.06565484810465 $491 $599 forward 7 unknown #
point $-1 30.06565484810465 -20.407420341197458 7.8128899793761946 #
point $-1 30.06565484810465 -16.030370669221174 7.8128899793761946 #
edge $-1 $600 1 $600 0 $342 $-1 forward 7 unknown #
vertex $-1 $343 $601 #
ellipse-curve $-1 23.588921942101848 -11.683125134910307 0.22651554051822653 0 -0.84804810408105047 0.52991925155115449 2 0 0 1 I I #
point $-1 25.588921942101848 -18.218895505209318 4.3105180001334809 #
plane-surface $-1 48.039796136356699 0 0 -1 0 0 0 0 1 forward_v I I I I #
coedge $-1 $351 $349 $353 $508 reversed $221 $-1 #
edge $-1 $364 -7.8128899793761946 $510 7.8128899793761946 $363 $602 forward 7 unknown #
vertex $-1 $508 $603 #
straight-curve $-1 -48.039796136356699 -20.407420341197458 0 0 0 -1 I I #
edge $-1 $506 -20.407420341197458 $510 20.407420341197458 $504 $604 forward 7 unknown #
straight-curve $-1 0 -20.407420341197458 -7.8128899793761946 -1 0 0 I I #
vertex $-1 $356 $605 #
straight-curve $-1 0 20.407420341197458 -7.8128899793761946 1 0 0 I I #
point $-1 48.039796136356699 20.407420341197458 -7.8128899793761946 #
point $-1 48.039796136356699 -20.407420341197458 -7.8128899793761946 #
straight-curve $-1 -48.039796136356699 0 7.8128899793761946 0 -1 0 I I #
point $-1 -48.039796136356699 20.407420341197458 7.8128899793761946 #
point $-1 -48.039796136356699 -20.407420341197458 7.8128899793761946 #
straight-curve $-1 48.039796136356699 -20.407420341197458 0 0 0 -1 I I #
straight-curve $-1 48.039796136356699 20.407420341197458 0 0 0 -1 I I #
plane-surface $-1 0 -20.407420341197458 0 0 1 0 0 0 1 forward_v I I I I #
coedge $-1 $606 $533 $377 $522 forward $374 $-1 #
coedge $-1 $523 $376 $385 $531 forward $240 $-1 #
edge $-1 $526 -1.5 $524 1.5 $377 $607 forward 7 unknown #
coedge $-1 $378 $521 $606 $608 forward $240 $-1 #
vertex $-1 $379 $609 #
straight-curve $-1 -50.794853810647901 20.407420341197458 -2.5948867382670038 1 0 0 I I #
vertex $-1 $380 $610 #
straight-curve $-1 -50.794853810647901 20.407420341197458 0.40511326173299622 -1 0 0 I I #
point $-1 -48.039796136356699 20.407420341197458 -2.5948867382670038 #
straight-curve $-1 -48.039796136356699 0 -2.5948867382670038 0 1 0 I I #
coedge $-1 $385 $384 $611 $612 forward $386 $-1 #
edge $-1 $387 -2.7550576742912014 $613 2.7550576742912014 $385 $614 forward 7 unknown #
point $-1 -48.039796136356699 -20.407420341197458 -2.5948867382670038 #
coedge $-1 $520 $611 $389 $534 reversed $374 $-1 #
edge $-1 $526 -20.407420341197458 $535 20.407420341197458 $533 $615 forward 7 unknown #
vertex $-1 $534 $616 #
straight-curve $-1 -50.794853810647901 -20.407420341197458 0.40511326173299622 1 0 0 I I #
plane-surface $-1 0 20.407420341197458 0 0 -1 0 0 0 -1 forward_v I I I I #
coedge $-1 $540 $397 $399 $546 forward $394 $-1 #
coedge $-1 $396 $405 $408 $553 forward $254 $-1 #
coedge $-1 $542 $538 $396 $541 reversed $394 $-1 #
edge $-1 $617 -20.407420341197458 $547 20.407420341197458 $540 $618 forward 7 unknown #
coedge $-1 $397 $540 $552 $619 reversed $394 $-1 #
vertex $-1 $398 $620 #
vertex $-1 $398 $621 #
straight-curve $-1 53.549911484939109 0 0.40511326173299622 0 1 0 I I #
edge $-1 $543 -1.5 $547 1.5 $538 $622 forward 7 unknown #
vertex $-1 $546 $623 #
straight-curve $-1 50.794853810647908 -20.407420341197458 -2.5948867382670038 -1 0 0 I I #
straight-curve $-1 50.794853810647908 -20.407420341197458 0.40511326173299622 1 0 0 I I #
point $-1 48.039796136356706 -20.407420341197458 -2.5948867382670038 #
straight-curve $-1 48.039796136356699 0 -2.5948867382670038 0 -1 0 I I #
coedge $-1 $408 $407 $542 $619 forward $409 $-1 #
edge $-1 $410 -2.7550576742912014 $617 2.7550576742912014 $408 $624 forward 7 unknown #
point $-1 48.039796136356706 20.407420341197458 -2.5948867382670038 #
straight-curve $-1 50.794853810647908 20.407420341197458 0.40511326173299622 -1 0 0 I I #
edge $-1 $557 35.354869973854946 $560 42.359613932340359 $416 $625 forward 7 unknown #
vertex $-1 $430 $626 #
straight-curve $-1 -17.112189036099053 40.129483291179042 7.8128899793761946 0 1 0 I I #
edge $-1 $560 5.3177280650481258 $427 18.271193877053729 $426 $627 forward 7 unknown #
vertex $-1 $559 $628 #
straight-curve $-1 -17.112189036099053 -1.2211494853968645 35.421094279965914 0 -0.52991925155115449 0.84804810408105047 I I #
point $-1 -17.112189036099053 16.030370669221188 7.8128899793761946 #
point $-1 -30.065654848104657 20.407420341197458 0.80814602089078136 #
straight-curve $-1 0 20.407420341197458 7.8128899793761946 -1 0 0 I I #
vertex $-1 $433 $629 #
point $-1 -21.588921942101855 11.683125134910307 0.22651554051822653 #
coedge $-1 $448 $447 $440 $568 forward $437 $-1 #
edge $-1 $569 35.354869973854946 $572 42.359613932340359 $567 $630 forward 7 unknown #
vertex $-1 $452 $631 #
straight-curve $-1 30.06565484810465 40.129483291179042 7.8128899793761946 0 1 0 I I #
edge $-1 $572 -18.271193877053726 $449 -5.3177280650481222 $448 $632 forward 7 unknown #
vertex $-1 $571 $633 #
straight-curve $-1 30.06565484810465 -1.2211494853968645 35.421094279965914 0 -0.52991925155115449 0.84804810408105047 I I #
point $-1 30.06565484810465 16.030370669221188 7.8128899793761946 #
point $-1 17.112189036099046 20.407420341197458 0.80814602089078136 #
straight-curve $-1 0 20.407420341197458 7.8128899793761946 -1 0 0 I I #
vertex $-1 $455 $634 #
point $-1 25.588921942101848 11.683125134910307 0.22651554051822653 #
coedge $-1 $470 $469 $462 $580 forward $459 $-1 #
edge $-1 $581 18.048395844317376 $584 25.053139802802807 $579 $635 forward 7 unknown #
vertex $-1 $474 $636 #
straight-curve $-1 -30.065654848104657 -50.9437682044762 7.8128899793761946 0 -1 0 I I #
edge $-1 $584 -18.271193877053729 $471 -5.3177280650481258 $470 $637 forward 7 unknown #
vertex $-1 $583 $638 #
straight-curve $-1 -30.065654848104657 -20.407420341197451 0.80814602089077425 0 0.52991925155115449 0.84804810408105047 I I #
point $-1 -30.065654848104657 -16.030370669221174 7.8128899793761946 #
point $-1 -17.112189036099053 -20.407420341197458 0.80814602089076293 #
straight-curve $-1 0 -20.407420341197458 7.8128899793761946 1 0 0 I I #
vertex $-1 $477 $639 #
point $-1 -21.588921942101855 -11.683125134910307 0.22651554051822653 #
edge $-1 $592 18.048395844317376 $595 25.053139802802807 $482 $640 forward 7 unknown #
vertex $-1 $496 $641 #
straight-curve $-1 17.112189036099046 -50.9437682044762 7.8128899793761946 0 -1 0 I I #
edge $-1 $595 5.3177280650481222 $493 18.271193877053726 $492 $642 forward 7 unknown #
vertex $-1 $594 $643 #
straight-curve $-1 17.112189036099046 -20.407420341197451 0.80814602089077425 0 0.52991925155115449 0.84804810408105047 I I #
point $-1 17.112189036099046 -16.030370669221174 7.8128899793761946 #
point $-1 30.06565484810465 -20.407420341197458 0.80814602089076293 #
straight-curve $-1 0 -20.407420341197458 7.8128899793761946 1 0 0 I I #
vertex $-1 $499 $644 #
point $-1 25.588921942101848 -11.683125134910307 0.22651554051822653 #
straight-curve $-1 -48.039796136356699 20.407420341197458 0 0 0 -1 I I #
point $-1 -48.039796136356699 -20.407420341197458 -7.8128899793761946 #
straight-curve $-1 -48.039796136356699 0 -7.8128899793761946 0 1 0 I I #
point $-1 -48.039796136356699 20.407420341197458 -7.8128899793761946 #
coedge $-1 $611 $520 $523 $608 reversed $374 $-1 #
straight-curve $-1 -53.549911484939102 20.407420341197458 -1.0948867382670038 0 0 -1 I I #
edge $-1 $613 -20.407420341197458 $524 20.407420341197458 $606 $645 forward 7 unknown #
point $-1 -53.549911484939102 20.407420341197458 -2.5948867382670038 #
point $-1 -53.549911484939102 20.407420341197458 0.40511326173299622 #
coedge $-1 $533 $606 $530 $612 reversed $374 $-1 #
edge $-1 $535 -1.5 $613 1.5 $611 $646 forward 7 unknown #
vertex $-1 $608 $647 #
straight-curve $-1 -50.794853810647901 -20.407420341197458 -2.5948867382670038 -1 0 0 I I #
straight-curve $-1 -53.549911484939102 0 0.40511326173299622 0 -1 0 I I #
point $-1 -53.549911484939102 -20.407420341197458 0.40511326173299622 #
vertex $-1 $541 $648 #
straight-curve $-1 53.549911484939109 0 -2.5948867382670038 0 -1 0 I I #
edge $-1 $544 -1.5 $617 1.5 $542 $649 forward 7 unknown #
point $-1 53.549911484939109 -20.407420341197458 0.40511326173299622 #
point $-1 53.549911484939109 20.407420341197458 0.40511326173299622 #
straight-curve $-1 53.549911484939109 -20.407420341197458 -1.0948867382670038 0 0 -1 I I #
point $-1 53.549911484939109 -20.407420341197458 -2.5948867382670038 #
straight-curve $-1 50.794853810647908 20.407420341197458 -2.5948867382670038 1 0 0 I I #
straight-curve $-1 -17.112189036099053 20.407420341197458 43.16775995323114 0 0 -1 I I #
point $-1 -17.112189036099053 20.407420341197458 7.8128899793761946 #
straight-curve $-1 -11.794460971050928 20.407420341197458 0.80814602089078136 -1 0 0 I I #
point $-1 -17.112189036099053 20.407420341197458 0.80814602089078136 #
point $-1 -23.588921942101855 9.9870289267482075 -0.83332296258408245 #
straight-curve $-1 30.06565484810465 20.407420341197458 43.16775995323114 0 0 -1 I I #
point $-1 30.06565484810465 20.407420341197458 7.8128899793761946 #
straight-curve $-1 11.794460971050924 20.407420341197458 0.80814602089078136 -1 0 0 I I #
point $-1 30.06565484810465 20.407420341197458 0.80814602089078136 #
point $-1 23.588921942101848 9.9870289267482075 -0.83332296258408245 #
straight-curve $-1 -30.065654848104657 -20.407420341197458 25.861285823693571 0 0 -1 I I #
point $-1 -30.065654848104657 -20.407420341197458 7.8128899793761946 #
straight-curve $-1 -11.794460971050928 -20.407420341197458 0.80814602089076215 1 0 0 I I #
point $-1 -30.065654848104657 -20.407420341197458 0.80814602089076293 #
point $-1 -23.588921942101855 -9.9870289267482075 -0.83332296258408245 #
straight-curve $-1 17.112189036099046 -20.407420341197458 25.861285823693571 0 0 -1 I I #
point $-1 17.112189036099046 -20.407420341197458 7.8128899793761946 #
straight-curve $-1 11.794460971050924 -20.407420341197458 0.80814602089076215 1 0 0 I I #
point $-1 17.112189036099046 -20.407420341197458 0.80814602089076293 #
point $-1 23.588921942101848 -9.9870289267482075 -0.83332296258408245 #
straight-curve $-1 -53.549911484939102 0 -2.5948867382670038 0 1 0 I I #
straight-curve $-1 -53.549911484939102 -20.407420341197458 -1.0948867382670038 0 0 -1 I I #
point $-1 -53.549911484939102 -20.407420341197458 -2.5948867382670038 #
point $-1 53.549911484939109 20.407420341197458 -2.5948867382670038 #
straight-curve $-1 53.549911484939109 20.407420341197458 -1.0948867382670038 0 0 -1 I I #
End-of-ACIS-data 