500 0 4 0           
7 Unknown 11 ACIS 5.0 NT 24 Thu Mar 25 16:57:07 1999 
-1 9.9999999999999995e-007 1e-010 
body $-1 $4 $-1 $5 #
body $-1 $6 $-1 $7 #
body $-1 $8 $-1 $9 #
body $-1 $10 $-1 $11 #
lump $-1 $-1 $12 $0 #
transform $-1 1 0 0 0 1 0 0 0 1 61.509445478682821 42.375196731200241 15.349450591213378 1 rotate no_reflect no_shear #
lump $-1 $-1 $13 $1 #
transform $-1 1 0 0 0 1 0 0 0 1 61.509445478682821 42.375196731200241 15.349450591213378 1 rotate no_reflect no_shear #
lump $-1 $-1 $14 $2 #
transform $-1 1 0 0 0 1 0 0 0 1 61.509445478682821 42.375196731200241 15.349450591213378 1 rotate no_reflect no_shear #
lump $-1 $-1 $15 $3 #
transform $-1 1 0 0 0 1 0 0 0 1 61.509445478682821 42.375196731200241 15.349450591213378 1 rotate no_reflect no_shear #
shell $-1 $-1 $-1 $16 $-1 $4 #
shell $-1 $-1 $-1 $17 $-1 $6 #
shell $-1 $-1 $-1 $18 $-1 $8 #
shell $-1 $-1 $-1 $19 $-1 $10 #
face $-1 $20 $21 $12 $-1 $22 reversed single #
face $-1 $23 $24 $13 $-1 $25 forward single #
face $-1 $26 $27 $14 $-1 $28 reversed single #
face $-1 $29 $30 $15 $-1 $31 forward single #
face $-1 $32 $33 $12 $-1 $34 forward single #
loop $-1 $-1 $35 $16 #
plane-surface $-1 -61.509445478682821 0 0 1 0 0 0 0 -1 forward_v I I I I #
face $-1 $36 $37 $13 $-1 $38 reversed single #
loop $-1 $-1 $39 $17 #
plane-surface $-1 -61.509445478682821 0 0 1 0 0 0 0 -1 forward_v I I I I #
face $-1 $40 $41 $14 $-1 $42 reversed single #
loop $-1 $-1 $43 $18 #
plane-surface $-1 100.64530409844993 10.811865392273795 179.69346768469245 0 -1 0 -0.84804810408105047 0 -0.52991925155115449 forward_v I I I I #
face $-1 $44 $45 $15 $-1 $46 forward single #
loop $-1 $47 $48 $19 #
cone-surface $-1 57.663146812281624 0.94311439964516808 11.369750797556424 -0.84804810408105047 0 -0.52991925155115449 0.79487887732673168 0 -1.2720721561215758 1 I I 0 1 1.5 forward I I I I #
face $-1 $49 $50 $12 $-1 $51 reversed single #
loop $-1 $-1 $52 $20 #
plane-surface $-1 0 0 15.349450591213378 0 0 1 1 0 0 forward_v I I I I #
coedge $-1 $53 $54 $55 $56 reversed $21 $-1 #
face $-1 $57 $58 $13 $-1 $59 reversed single #
loop $-1 $-1 $60 $23 #
plane-surface $-1 0 0 -15.349450591213378 0 0 1 1 0 0 forward_v I I I I #
coedge $-1 $61 $62 $63 $64 forward $24 $-1 #
face $-1 $65 $66 $14 $-1 $67 reversed single #
loop $-1 $-1 $68 $26 #
plane-surface $-1 -3.6806331440974702 0.94311439964516808 114.50338906191217 0.84804810408105047 0 0.52991925155115449 0.52991925155115449 0 -0.84804810408105047 forward_v I I I I #
coedge $-1 $69 $70 $71 $72 reversed $27 $-1 #
face $-1 $-1 $73 $15 $-1 $74 forward single #
loop $-1 $75 $76 $29 #
cone-surface $-1 54.796723774368033 0.94311439964516808 9.5786109511604192 -0.84804810408105047 0 -0.52991925155115449 0.39743943866336584 0 -0.63603607806078788 1 I I -0.70710678118654757 0.70710678118654757 0.75 forward I I I I #
loop $-1 $-1 $77 $19 #
coedge $-1 $48 $48 $78 $79 reversed $30 $-1 #
face $-1 $80 $81 $12 $-1 $82 reversed single #
loop $-1 $-1 $83 $32 #
plane-surface $-1 0 0 -15.349450591213378 0 0 1 1 0 0 forward_v I I I I #
coedge $-1 $84 $85 $86 $87 forward $33 $-1 #
coedge $-1 $88 $35 $89 $90 reversed $21 $-1 #
coedge $-1 $35 $88 $91 $92 forward $21 $-1 #
coedge $-1 $93 $94 $35 $56 forward $50 $-1 #
edge $-1 $95 -42.375196731200241 $96 42.375196731200241 $35 $97 forward 7 unknown #
face $-1 $98 $99 $13 $-1 $100 reversed single #
loop $-1 $-1 $101 $36 #
plane-surface $-1 -68.811468669141618 -15.655713340220908 0 0 1 0 0 0 1 forward_v I I I I #
coedge $-1 $102 $103 $62 $104 forward $37 $-1 #
coedge $-1 $105 $39 $106 $107 reversed $24 $-1 #
coedge $-1 $39 $105 $60 $104 reversed $24 $-1 #
coedge $-1 $108 $109 $39 $64 reversed $110 $-1 #
edge $-1 $111 -15.349450591213378 $112 15.349450591213378 $63 $113 forward 7 unknown #
face $-1 $114 $115 $14 $-1 $116 forward single #
loop $-1 $-1 $117 $40 #
plane-surface $-1 100.64530409844993 -8.9256365929834587 179.69346768469245 0 1 0 0.84804810408105047 0 0.52991925155115449 forward_v I I I I #
coedge $-1 $118 $119 $120 $121 reversed $41 $-1 #
coedge $-1 $70 $43 $122 $123 reversed $27 $-1 #
coedge $-1 $43 $69 $118 $124 reversed $27 $-1 #
coedge $-1 $120 $125 $43 $72 forward $115 $-1 #
edge $-1 $126 -11.186793429457857 $127 -7.954970016361024 $71 $128 forward 7 unknown #
loop $-1 $-1 $78 $44 #
plane-surface $-1 -3.6806331440974702 0.94311439964516808 114.50338906191217 0.84804810408105047 0 0.52991925155115449 0.52991925155115449 0 -0.84804810408105047 forward_v I I I I #
loop $-1 $-1 $129 $29 #
coedge $-1 $76 $76 $77 $130 reversed $45 $-1 #
coedge $-1 $77 $77 $76 $130 forward $47 $-1 #
coedge $-1 $78 $78 $48 $79 forward $73 $-1 #
edge $-1 $131 0 $131 6.2831853071796004 $78 $132 forward 7 unknown #
face $-1 $133 $134 $12 $-1 $135 reversed single #
loop $-1 $-1 $89 $49 #
plane-surface $-1 0 -42.375196731200241 0 0 1 0 0 0 1 forward_v I I I I #
coedge $-1 $94 $93 $136 $137 forward $50 $-1 #
coedge $-1 $138 $52 $139 $140 forward $33 $-1 #
coedge $-1 $52 $138 $141 $142 forward $33 $-1 #
coedge $-1 $143 $144 $52 $87 reversed $145 $-1 #
edge $-1 $146 -42.375196731200241 $147 42.375196731200241 $86 $148 forward 7 unknown #
coedge $-1 $54 $53 $138 $149 reversed $21 $-1 #
coedge $-1 $150 $141 $53 $90 forward $81 $-1 #
edge $-1 $151 -15.349450591213378 $95 15.349450591213378 $53 $152 forward 7 unknown #
coedge $-1 $139 $153 $54 $92 reversed $134 $-1 #
edge $-1 $154 -15.349450591213378 $96 15.349450591213378 $91 $155 forward 7 unknown #
coedge $-1 $83 $55 $153 $156 forward $50 $-1 #
coedge $-1 $55 $83 $150 $157 forward $50 $-1 #
vertex $-1 $56 $158 #
vertex $-1 $156 $159 #
straight-curve $-1 -61.509445478682821 0 -15.349450591213378 0 1 0 I I #
face $-1 $160 $110 $13 $-1 $161 reversed single #
loop $-1 $-1 $162 $57 #
plane-surface $-1 -76.113491859600416 -13.666004444497197 0 1 0 0 0 0 -1 forward_v I I I I #
coedge $-1 $163 $164 $165 $166 forward $58 $-1 #
coedge $-1 $167 $60 $163 $168 forward $37 $-1 #
coedge $-1 $60 $167 $108 $169 forward $37 $-1 #
edge $-1 $111 11.676295548773487 $170 15.655713340220908 $60 $171 forward 7 unknown #
coedge $-1 $62 $61 $172 $173 forward $24 $-1 #
coedge $-1 $174 $175 $61 $107 forward $176 $-1 #
edge $-1 $177 -15.655713340220908 $112 -11.676295548773487 $106 $178 forward 7 unknown #
coedge $-1 $179 $63 $103 $169 reversed $110 $-1 #
coedge $-1 $63 $179 $174 $180 reversed $110 $-1 #
loop $-1 $-1 $63 $98 #
vertex $-1 $104 $181 #
vertex $-1 $180 $182 #
straight-curve $-1 -61.509445478682821 -11.676295548773487 0 0 0 1 I I #
face $-1 $-1 $183 $14 $-1 $184 reversed single #
loop $-1 $-1 $71 $65 #
plane-surface $-1 0 0 15.349450591213378 0 0 1 1 0 0 forward_v I I I I #
coedge $-1 $185 $186 $187 $188 reversed $66 $-1 #
coedge $-1 $189 $68 $70 $124 forward $41 $-1 #
coedge $-1 $68 $189 $185 $190 forward $41 $-1 #
coedge $-1 $187 $71 $68 $121 forward $115 $-1 #
edge $-1 $127 -10.340308192451211 $191 9.3971937928060427 $120 $192 forward 7 unknown #
coedge $-1 $193 $194 $69 $123 forward $183 $-1 #
edge $-1 $195 -79.669282022981463 $126 -74.497283251132842 $122 $196 forward 7 unknown #
edge $-1 $127 116.92018176037612 $195 123.01889095736563 $70 $197 forward 7 unknown #
coedge $-1 $71 $187 $193 $198 forward $115 $-1 #
vertex $-1 $72 $199 #
vertex $-1 $72 $200 #
straight-curve $-1 50.322652049224963 10.811865392273795 15.349450591213383 -1 0 0 I I #
coedge $-1 $129 $129 $-1 $201 reversed $75 $-1 #
edge $-1 $202 0 $202 6.2831853071796004 $76 $203 forward 7 unknown #
vertex $-1 $79 $204 #
ellipse-curve $-1 59.893533772134411 0.94311439964516808 12.763451205289055 0.84804810408105047 0 0.52991925155115449 0.79487887732673168 0 -1.2720721561215758 1 I I #
face $-1 $-1 $145 $12 $-1 $205 reversed single #
loop $-1 $-1 $206 $80 #
plane-surface $-1 0 42.375196731200241 0 0 -1 0 0 0 -1 forward_v I I I I #
coedge $-1 $144 $143 $83 $137 reversed $145 $-1 #
edge $-1 $207 -42.375196731200241 $208 42.375196731200241 $136 $209 forward 7 unknown #
coedge $-1 $85 $84 $88 $149 forward $33 $-1 #
coedge $-1 $206 $91 $84 $140 reversed $134 $-1 #
edge $-1 $147 -61.509445478682821 $154 61.509445478682821 $139 $210 forward 7 unknown #
coedge $-1 $89 $211 $85 $142 reversed $81 $-1 #
edge $-1 $151 -61.509445478682821 $146 61.509445478682821 $141 $212 forward 7 unknown #
coedge $-1 $136 $86 $211 $213 forward $145 $-1 #
coedge $-1 $86 $136 $206 $214 reversed $145 $-1 #
loop $-1 $-1 $143 $133 #
vertex $-1 $87 $215 #
vertex $-1 $87 $216 #
straight-curve $-1 61.509445478682821 0 15.349450591213378 0 1 0 I I #
edge $-1 $154 -42.375196731200241 $151 42.375196731200241 $88 $217 forward 7 unknown #
coedge $-1 $211 $89 $94 $157 reversed $81 $-1 #
vertex $-1 $149 $218 #
straight-curve $-1 -61.509445478682821 -42.375196731200241 0 0 0 -1 I I #
coedge $-1 $91 $206 $93 $156 reversed $134 $-1 #
vertex $-1 $140 $219 #
straight-curve $-1 -61.509445478682821 42.375196731200241 0 0 0 -1 I I #
edge $-1 $96 -61.509445478682821 $207 61.509445478682821 $153 $220 forward 7 unknown #
edge $-1 $208 -61.509445478682821 $95 61.509445478682821 $150 $221 forward 7 unknown #
point $-1 -61.509445478682821 -42.375196731200241 -15.349450591213378 #
point $-1 -61.509445478682821 42.375196731200241 -15.349450591213378 #
face $-1 $-1 $176 $13 $-1 $222 forward single #
plane-surface $-1 -68.811468669141618 -11.676295548773487 0 0 -1 0 0 0 -1 forward_v I I I I #
coedge $-1 $223 $224 $179 $225 forward $99 $-1 #
coedge $-1 $172 $101 $102 $168 reversed $58 $-1 #
coedge $-1 $101 $172 $175 $226 reversed $58 $-1 #
coedge $-1 $224 $223 $101 $166 reversed $99 $-1 #
edge $-1 $227 -15.349450591213378 $228 15.349450591213378 $165 $229 forward 7 unknown #
coedge $-1 $103 $102 $223 $230 forward $37 $-1 #
edge $-1 $170 -7.3020231904587902 $228 7.3020231904587973 $163 $231 forward 7 unknown #
edge $-1 $232 -7.3020231904587973 $111 7.3020231904587902 $108 $233 forward 7 unknown #
vertex $-1 $168 $234 #
straight-curve $-1 -61.509445478682821 0 -15.349450591213378 0 -1 0 I I #
coedge $-1 $164 $163 $105 $173 reversed $58 $-1 #
edge $-1 $177 -15.349450591213378 $170 15.349450591213378 $172 $235 forward 7 unknown #
coedge $-1 $236 $106 $109 $180 forward $176 $-1 #
coedge $-1 $106 $236 $164 $226 forward $176 $-1 #
loop $-1 $-1 $106 $160 #
vertex $-1 $107 $237 #
straight-curve $-1 -61.509445478682821 0 15.349450591213378 0 1 0 I I #
coedge $-1 $109 $108 $162 $225 reversed $110 $-1 #
edge $-1 $112 -7.3020231904587902 $238 7.3020231904587973 $109 $239 forward 7 unknown #
point $-1 -61.509445478682828 -11.676295548773487 -15.349450591213378 #
point $-1 -61.509445478682828 -11.676295548773487 15.349450591213378 #
loop $-1 $-1 $122 $114 #
plane-surface $-1 61.509445478682821 0 0 -1 0 0 0 0 1 forward_v I I I I #
coedge $-1 $186 $117 $119 $190 reversed $66 $-1 #
coedge $-1 $117 $185 $240 $241 reversed $66 $-1 #
coedge $-1 $125 $120 $117 $188 forward $115 $-1 #
edge $-1 $191 7.954970016361024 $242 11.186793429457857 $187 $243 forward 7 unknown #
coedge $-1 $119 $118 $194 $244 reversed $41 $-1 #
edge $-1 $245 -123.01889095736563 $191 -116.92018176037612 $185 $246 forward 7 unknown #
vertex $-1 $121 $247 #
straight-curve $-1 58.277622065585994 0.47155719982258404 15.349450591213376 0 -1 0 I I #
coedge $-1 $240 $122 $125 $198 reversed $183 $-1 #
coedge $-1 $122 $240 $189 $244 forward $183 $-1 #
vertex $-1 $123 $248 #
straight-curve $-1 61.509445478682821 10.811865392273795 89.846733842346225 0 0 1 I I #
straight-curve $-1 -3.6806331440974702 10.811865392273795 114.50338906191217 0.52991925155115449 0 -0.84804810408105047 I I #
edge $-1 $242 -8.9256365929834587 $126 10.811865392273795 $193 $249 forward 7 unknown #
point $-1 61.509445478682821 10.811865392273795 15.349450591213378 #
point $-1 58.277622065585987 10.811865392273795 15.349450591213383 #
edge $-1 $250 1 $250 0 $129 $-1 forward 7 unknown #
vertex $-1 $130 $251 #
ellipse-curve $-1 55.432759852428823 0.94311439964516808 9.9760503898237847 0.84804810408105047 0 0.52991925155115449 0.79487887732673168 0 -1.2720721561215758 1 I I #
point $-1 60.688412649461156 0.94311439964516808 11.491379049167488 #
plane-surface $-1 61.509445478682821 0 0 -1 0 0 0 0 1 forward_v I I I I #
coedge $-1 $153 $139 $144 $214 forward $134 $-1 #
vertex $-1 $137 $252 #
vertex $-1 $213 $253 #
straight-curve $-1 61.509445478682821 0 -15.349450591213378 0 -1 0 I I #
straight-curve $-1 0 42.375196731200241 15.349450591213378 -1 0 0 I I #
coedge $-1 $141 $150 $143 $213 reversed $81 $-1 #
straight-curve $-1 0 -42.375196731200241 15.349450591213378 1 0 0 I I #
edge $-1 $146 -15.349450591213378 $208 15.349450591213378 $143 $254 forward 7 unknown #
edge $-1 $147 -15.349450591213378 $207 15.349450591213378 $144 $255 forward 7 unknown #
point $-1 61.509445478682821 -42.375196731200241 15.349450591213378 #
point $-1 61.509445478682821 42.375196731200241 15.349450591213378 #
straight-curve $-1 -61.509445478682821 0 15.349450591213378 0 -1 0 I I #
point $-1 -61.509445478682821 -42.375196731200241 15.349450591213378 #
point $-1 -61.509445478682821 42.375196731200241 15.349450591213378 #
straight-curve $-1 0 42.375196731200241 -15.349450591213378 1 0 0 I I #
straight-curve $-1 0 -42.375196731200241 -15.349450591213378 -1 0 0 I I #
plane-surface $-1 0 0 15.349450591213378 0 0 1 1 0 0 forward_v I I I I #
coedge $-1 $165 $162 $167 $230 reversed $99 $-1 #
coedge $-1 $162 $165 $236 $256 reversed $99 $-1 #
edge $-1 $238 -15.349450591213378 $232 15.349450591213378 $179 $257 forward 7 unknown #
edge $-1 $227 -7.3020231904587973 $177 7.3020231904587902 $164 $258 forward 7 unknown #
vertex $-1 $256 $259 #
vertex $-1 $230 $260 #
straight-curve $-1 -76.113491859600416 -15.655713340220908 0 0 0 -1 I I #
edge $-1 $228 -1.9897088957237106 $232 1.9897088957237106 $223 $261 forward 7 unknown #
straight-curve $-1 -68.811468669141618 -15.655713340220908 -15.349450591213378 -1 0 0 I I #
vertex $-1 $169 $262 #
straight-curve $-1 -68.811468669141618 -11.676295548773487 -15.349450591213378 1 0 0 I I #
point $-1 -61.509445478682828 -15.655713340220908 -15.349450591213378 #
straight-curve $-1 -61.509445478682821 -15.655713340220908 0 0 0 -1 I I #
coedge $-1 $175 $174 $224 $256 forward $176 $-1 #
point $-1 -61.509445478682828 -15.655713340220908 15.349450591213378 #
vertex $-1 $180 $263 #
straight-curve $-1 -68.811468669141618 -11.676295548773487 15.349450591213378 -1 0 0 I I #
coedge $-1 $194 $193 $186 $241 forward $183 $-1 #
edge $-1 $242 74.497283251132842 $245 79.669282022981463 $240 $264 forward 7 unknown #
vertex $-1 $198 $265 #
straight-curve $-1 50.322652049224963 -8.9256365929834587 15.349450591213383 1 0 0 I I #
edge $-1 $245 -9.3971937928060427 $195 10.340308192451211 $194 $266 forward 7 unknown #
vertex $-1 $244 $267 #
straight-curve $-1 -3.6806331440974702 -8.9256365929834587 114.50338906191217 -0.52991925155115449 0 0.84804810408105047 I I #
point $-1 58.277622065585987 -8.9256365929834587 15.349450591213383 #
point $-1 61.509445478682821 10.811865392273795 10.177451819364762 #
straight-curve $-1 61.509445478682821 0 15.349450591213378 0 1 0 I I #
vertex $-1 $201 $268 #
point $-1 56.227638729755554 0.94311439964516808 8.7039782337022089 #
point $-1 61.509445478682821 42.375196731200241 -15.349450591213378 #
point $-1 61.509445478682821 -42.375196731200241 -15.349450591213378 #
straight-curve $-1 61.509445478682821 -42.375196731200241 0 0 0 -1 I I #
straight-curve $-1 61.509445478682821 42.375196731200241 0 0 0 -1 I I #
edge $-1 $238 -1.9897088957237106 $227 1.9897088957237106 $224 $269 forward 7 unknown #
straight-curve $-1 -76.113491859600416 -11.676295548773487 0 0 0 -1 I I #
straight-curve $-1 -68.811468669141618 -15.655713340220908 15.349450591213378 1 0 0 I I #
point $-1 -76.113491859600416 -15.655713340220908 15.349450591213378 #
point $-1 -76.113491859600416 -15.655713340220908 -15.349450591213378 #
straight-curve $-1 -76.113491859600416 -13.666004444497197 -15.349450591213378 0 1 0 I I #
point $-1 -76.113491859600416 -11.676295548773487 -15.349450591213378 #
point $-1 -76.113491859600416 -11.676295548773487 15.349450591213378 #
straight-curve $-1 61.509445478682821 -8.9256365929834587 89.846733842346225 0 0 -1 I I #
point $-1 61.509445478682821 -8.9256365929834587 15.349450591213378 #
straight-curve $-1 61.509445478682821 0.47155719982258404 10.177451819364748 0 1 0 I I #
point $-1 61.509445478682821 -8.9256365929834587 10.177451819364762 #
point $-1 54.160687696307242 0.94311439964516808 9.1811715124970537 #
straight-curve $-1 -76.113491859600416 -13.666004444497197 15.349450591213378 0 -1 0 I I #
End-of-ACIS-data 