500 0 3 0           
7 Unknown 11 ACIS 5.0 NT 24 Fri Mar 26 19:57:42 1999 
-1 9.9999999999999995e-007 1e-010 
body $-1 $3 $-1 $4 #
body $-1 $5 $-1 $6 #
body $-1 $7 $-1 $8 #
lump $-1 $-1 $9 $0 #
transform $-1 1 0 0 0 1 0 0 0 1 49.353312784203617 25.624049615200171 10.767934616579494 1 rotate no_reflect no_shear #
lump $-1 $-1 $10 $1 #
transform $-1 1 0 0 0 1 0 0 0 1 49.353312784203617 25.624049615200171 10.767934616579494 1 rotate no_reflect no_shear #
lump $-1 $-1 $11 $2 #
transform $-1 1 0 0 0 1 0 0 0 1 49.353312784203617 25.624049615200171 10.767934616579494 1 rotate no_reflect no_shear #
shell $-1 $-1 $-1 $12 $-1 $3 #
shell $-1 $-1 $-1 $13 $-1 $5 #
shell $-1 $-1 $-1 $14 $-1 $7 #
face $-1 $15 $16 $9 $-1 $17 forward single #
face $-1 $18 $19 $10 $-1 $20 forward single #
face $-1 $21 $22 $11 $-1 $23 forward single #
face $-1 $24 $25 $9 $-1 $26 reversed single #
loop $-1 $-1 $27 $12 #
plane-surface $-1 0 0 10.767934616579494 0 0 1 1 0 0 forward_v I I I I #
face $-1 $28 $29 $10 $-1 $30 forward single #
loop $-1 $-1 $31 $13 #
plane-surface $-1 0 -18.746248679704319 5.7285267566824469 0 0 1 1 0 0 forward_v I I I I #
face $-1 $32 $33 $11 $-1 $34 forward single #
loop $-1 $-1 $35 $14 #
plane-surface $-1 0 18.746248679704316 5.7285267566824469 0 0 1 1 0 0 forward_v I I I I #
face $-1 $36 $37 $9 $-1 $38 reversed single #
loop $-1 $-1 $39 $15 #
plane-surface $-1 0 0 -10.767934616579494 0 0 1 1 0 0 forward_v I I I I #
coedge $-1 $40 $41 $42 $43 forward $16 $-1 #
face $-1 $44 $45 $10 $-1 $46 forward single #
loop $-1 $-1 $47 $18 #
plane-surface $-1 0 -11.868447744208467 8.2482306866309703 0 -1 0 0 0 -1 forward_v I I I I #
coedge $-1 $48 $49 $50 $51 reversed $19 $-1 #
face $-1 $52 $53 $11 $-1 $54 forward single #
loop $-1 $-1 $55 $21 #
plane-surface $-1 0 11.868447744208463 8.2482306866309703 0 1 0 0 0 1 forward_v I I I I #
coedge $-1 $56 $57 $58 $59 reversed $22 $-1 #
face $-1 $60 $61 $9 $-1 $62 reversed single #
loop $-1 $-1 $63 $24 #
plane-surface $-1 0 -25.624049615200171 0 0 1 0 0 0 1 forward_v I I I I #
coedge $-1 $64 $65 $66 $67 forward $25 $-1 #
coedge $-1 $68 $27 $69 $70 forward $16 $-1 #
coedge $-1 $27 $68 $71 $72 forward $16 $-1 #
coedge $-1 $73 $74 $27 $43 reversed $75 $-1 #
edge $-1 $76 -25.624049615200171 $77 25.624049615200171 $42 $78 forward 7 unknown #
face $-1 $79 $80 $10 $-1 $81 reversed single #
loop $-1 $-1 $82 $28 #
plane-surface $-1 0 0 10.767934616579494 0 0 1 1 0 0 forward_v I I I I #
coedge $-1 $83 $84 $85 $86 reversed $29 $-1 #
coedge $-1 $87 $31 $84 $88 reversed $19 $-1 #
coedge $-1 $31 $87 $89 $90 reversed $19 $-1 #
coedge $-1 $91 $85 $31 $51 forward $80 $-1 #
edge $-1 $92 2.4953234043563075 $93 16.25092527534801 $50 $94 forward 7 unknown #
face $-1 $95 $96 $11 $-1 $97 reversed single #
loop $-1 $-1 $98 $32 #
plane-surface $-1 0 0 10.767934616579494 0 0 1 1 0 0 forward_v I I I I #
coedge $-1 $99 $100 $101 $102 reversed $33 $-1 #
coedge $-1 $103 $35 $104 $105 reversed $22 $-1 #
coedge $-1 $35 $103 $100 $106 reversed $22 $-1 #
coedge $-1 $107 $108 $35 $59 forward $109 $-1 #
edge $-1 $110 -16.25092527534801 $111 -2.4953234043563057 $58 $112 forward 7 unknown #
face $-1 $113 $114 $9 $-1 $115 reversed single #
loop $-1 $-1 $116 $36 #
plane-surface $-1 -49.353312784203617 0 0 1 0 0 0 0 -1 forward_v I I I I #
coedge $-1 $117 $71 $118 $119 forward $37 $-1 #
coedge $-1 $120 $39 $117 $121 forward $25 $-1 #
coedge $-1 $39 $120 $122 $123 forward $25 $-1 #
coedge $-1 $74 $73 $39 $67 reversed $75 $-1 #
edge $-1 $124 -25.624049615200171 $125 25.624049615200171 $66 $126 forward 7 unknown #
coedge $-1 $41 $40 $127 $128 forward $16 $-1 #
coedge $-1 $129 $130 $40 $70 reversed $114 $-1 #
edge $-1 $77 -49.353312784203617 $131 49.353312784203617 $69 $132 forward 7 unknown #
coedge $-1 $63 $133 $41 $72 reversed $37 $-1 #
edge $-1 $134 -49.353312784203617 $76 49.353312784203617 $71 $135 forward 7 unknown #
coedge $-1 $66 $42 $133 $136 forward $75 $-1 #
coedge $-1 $42 $66 $129 $137 reversed $75 $-1 #
loop $-1 $-1 $73 $113 #
vertex $-1 $43 $138 #
vertex $-1 $43 $139 #
straight-curve $-1 49.353312784203617 0 10.767934616579494 0 1 0 I I #
face $-1 $140 $141 $10 $-1 $142 reversed single #
loop $-1 $-1 $85 $44 #
plane-surface $-1 49.353312784203617 0 0 -1 0 0 0 0 1 forward_v I I I I #
coedge $-1 $143 $144 $83 $145 forward $45 $-1 #
coedge $-1 $146 $47 $82 $145 reversed $29 $-1 #
coedge $-1 $47 $146 $48 $88 forward $29 $-1 #
coedge $-1 $50 $147 $47 $86 forward $80 $-1 #
edge $-1 $148 -6.6438192732640085 $92 -1.6044114133669618 $85 $149 forward 7 unknown #
coedge $-1 $49 $48 $150 $151 reversed $19 $-1 #
edge $-1 $152 -49.353312784203617 $92 49.353312784203617 $84 $153 forward 7 unknown #
coedge $-1 $154 $155 $49 $90 forward $156 $-1 #
edge $-1 $93 -49.353312784203617 $157 49.353312784203617 $89 $158 forward 7 unknown #
coedge $-1 $159 $50 $155 $160 forward $80 $-1 #
vertex $-1 $51 $161 #
vertex $-1 $160 $162 #
straight-curve $-1 49.353312784203617 -9.3731243398521595 5.7285267566824469 0 -1 0 I I #
face $-1 $163 $164 $11 $-1 $165 forward single #
loop $-1 $-1 $101 $52 #
plane-surface $-1 -49.353312784203617 0 0 1 0 0 0 0 -1 forward_v I I I I #
coedge $-1 $166 $167 $99 $168 forward $53 $-1 #
coedge $-1 $169 $55 $98 $168 reversed $33 $-1 #
coedge $-1 $55 $169 $57 $106 forward $33 $-1 #
coedge $-1 $170 $171 $55 $102 forward $96 $-1 #
edge $-1 $172 -6.6438192732640085 $173 -1.6044114133669618 $101 $174 forward 7 unknown #
coedge $-1 $57 $56 $170 $175 reversed $22 $-1 #
coedge $-1 $176 $177 $56 $105 forward $178 $-1 #
edge $-1 $179 -49.353312784203617 $110 49.353312784203617 $104 $180 forward 7 unknown #
edge $-1 $111 -49.353312784203617 $173 49.353312784203617 $100 $181 forward 7 unknown #
coedge $-1 $182 $58 $169 $183 forward $109 $-1 #
coedge $-1 $58 $184 $176 $185 reversed $109 $-1 #
loop $-1 $-1 $107 $186 #
vertex $-1 $185 $187 #
vertex $-1 $59 $188 #
straight-curve $-1 49.353312784203617 9.3731243398521578 5.7285267566824469 0 -1 0 I I #
face $-1 $-1 $75 $9 $-1 $189 reversed single #
loop $-1 $-1 $129 $60 #
plane-surface $-1 0 25.624049615200171 0 0 -1 0 0 0 -1 forward_v I I I I #
coedge $-1 $190 $127 $130 $191 forward $61 $-1 #
coedge $-1 $133 $63 $64 $121 reversed $37 $-1 #
coedge $-1 $127 $190 $63 $119 reversed $61 $-1 #
edge $-1 $134 -10.767934616579494 $192 10.767934616579494 $118 $193 forward 7 unknown #
coedge $-1 $65 $64 $190 $194 forward $25 $-1 #
edge $-1 $125 -49.353312784203617 $192 49.353312784203617 $117 $195 forward 7 unknown #
coedge $-1 $130 $129 $65 $123 reversed $114 $-1 #
edge $-1 $196 -49.353312784203617 $124 49.353312784203617 $122 $197 forward 7 unknown #
vertex $-1 $67 $198 #
vertex $-1 $136 $199 #
straight-curve $-1 49.353312784203617 0 -10.767934616579494 0 -1 0 I I #
coedge $-1 $116 $118 $68 $128 reversed $61 $-1 #
edge $-1 $131 -25.624049615200171 $134 25.624049615200171 $127 $200 forward 7 unknown #
coedge $-1 $122 $69 $74 $137 forward $114 $-1 #
coedge $-1 $69 $122 $116 $191 reversed $114 $-1 #
vertex $-1 $70 $201 #
straight-curve $-1 0 25.624049615200171 10.767934616579494 -1 0 0 I I #
coedge $-1 $71 $117 $73 $136 reversed $37 $-1 #
vertex $-1 $128 $202 #
straight-curve $-1 0 -25.624049615200171 10.767934616579494 1 0 0 I I #
edge $-1 $76 -10.767934616579494 $125 10.767934616579494 $73 $203 forward 7 unknown #
edge $-1 $77 -10.767934616579494 $124 10.767934616579494 $74 $204 forward 7 unknown #
point $-1 49.353312784203617 -25.624049615200171 10.767934616579494 #
point $-1 49.353312784203617 25.624049615200171 10.767934616579494 #
face $-1 $205 $156 $10 $-1 $206 reversed single #
loop $-1 $-1 $207 $79 #
plane-surface $-1 0 0 -10.767934616579494 0 0 1 1 0 0 forward_v I I I I #
coedge $-1 $208 $82 $147 $209 forward $45 $-1 #
coedge $-1 $82 $208 $210 $211 forward $45 $-1 #
edge $-1 $212 -49.353312784203617 $148 49.353312784203617 $82 $213 forward 7 unknown #
coedge $-1 $84 $83 $214 $215 reversed $29 $-1 #
coedge $-1 $85 $216 $143 $209 reversed $80 $-1 #
vertex $-1 $209 $217 #
straight-curve $-1 49.353312784203617 -11.868447744208467 4.1241153433154851 0 0 -1 I I #
coedge $-1 $214 $218 $87 $151 forward $219 $-1 #
edge $-1 $157 -16.25092527534801 $152 -2.4953234043563075 $150 $220 forward 7 unknown #
vertex $-1 $151 $221 #
straight-curve $-1 0 -11.868447744208467 5.7285267566824469 1 0 0 I I #
coedge $-1 $222 $89 $218 $223 forward $156 $-1 #
coedge $-1 $89 $222 $91 $160 reversed $156 $-1 #
loop $-1 $-1 $89 $140 #
vertex $-1 $223 $224 #
straight-curve $-1 0 -25.624049615200171 5.7285267566824469 -1 0 0 I I #
coedge $-1 $216 $91 $207 $225 reversed $80 $-1 #
edge $-1 $93 -5.7285267566824469 $226 10.767934616579494 $91 $227 forward 7 unknown #
point $-1 49.353312784203617 -11.868447744208467 5.7285267566824469 #
point $-1 49.353312784203617 -25.624049615200171 5.7285267566824469 #
face $-1 $186 $228 $11 $-1 $229 forward single #
loop $-1 $-1 $230 $95 #
plane-surface $-1 0 -18.746248679704319 5.7285267566824469 0 0 1 1 0 0 forward_v I I I I #
coedge $-1 $231 $98 $171 $232 forward $53 $-1 #
coedge $-1 $98 $231 $182 $233 forward $53 $-1 #
edge $-1 $234 -49.353312784203617 $172 49.353312784203617 $98 $235 forward 7 unknown #
coedge $-1 $100 $99 $107 $183 reversed $33 $-1 #
coedge $-1 $236 $101 $103 $175 forward $96 $-1 #
coedge $-1 $101 $237 $166 $232 reversed $96 $-1 #
vertex $-1 $232 $238 #
vertex $-1 $175 $239 #
straight-curve $-1 -49.353312784203617 11.868447744208463 4.1241153433154851 0 0 -1 I I #
edge $-1 $173 2.4953234043563057 $179 16.25092527534801 $170 $240 forward 7 unknown #
coedge $-1 $241 $104 $108 $185 forward $178 $-1 #
coedge $-1 $104 $241 $236 $242 reversed $178 $-1 #
loop $-1 $-1 $104 $243 #
vertex $-1 $242 $244 #
straight-curve $-1 0 25.624049615200171 5.7285267566824469 1 0 0 I I #
straight-curve $-1 0 11.868447744208463 5.7285267566824469 -1 0 0 I I #
coedge $-1 $245 $107 $167 $233 reversed $109 $-1 #
edge $-1 $111 1.6044114133669618 $234 6.6438192732640085 $107 $246 forward 7 unknown #
coedge $-1 $108 $247 $248 $249 reversed $109 $-1 #
edge $-1 $110 -5.7285267566824469 $250 10.767934616579494 $108 $251 forward 7 unknown #
face $-1 $252 $109 $11 $-1 $253 reversed single #
point $-1 49.353312784203617 25.624049615200168 5.7285267566824469 #
point $-1 49.353312784203617 11.868447744208463 5.7285267566824469 #
plane-surface $-1 49.353312784203617 0 0 -1 0 0 0 0 1 forward_v I I I I #
coedge $-1 $118 $116 $120 $194 reversed $61 $-1 #
edge $-1 $131 -10.767934616579494 $196 10.767934616579494 $130 $254 forward 7 unknown #
vertex $-1 $194 $255 #
straight-curve $-1 -49.353312784203617 -25.624049615200171 0 0 0 -1 I I #
edge $-1 $192 -25.624049615200171 $196 25.624049615200171 $190 $256 forward 7 unknown #
straight-curve $-1 0 -25.624049615200171 -10.767934616579494 -1 0 0 I I #
vertex $-1 $123 $257 #
straight-curve $-1 0 25.624049615200171 -10.767934616579494 1 0 0 I I #
point $-1 49.353312784203617 25.624049615200171 -10.767934616579494 #
point $-1 49.353312784203617 -25.624049615200171 -10.767934616579494 #
straight-curve $-1 -49.353312784203617 0 10.767934616579494 0 -1 0 I I #
point $-1 -49.353312784203617 25.624049615200171 10.767934616579494 #
point $-1 -49.353312784203617 -25.624049615200171 10.767934616579494 #
straight-curve $-1 49.353312784203617 -25.624049615200171 0 0 0 -1 I I #
straight-curve $-1 49.353312784203617 25.624049615200171 0 0 0 -1 I I #
face $-1 $258 $219 $10 $-1 $259 reversed single #
plane-surface $-1 0 -25.624049615200171 0 0 1 0 0 0 1 forward_v I I I I #
coedge $-1 $260 $261 $159 $225 forward $141 $-1 #
coedge $-1 $144 $143 $262 $263 forward $45 $-1 #
edge $-1 $148 -11.868447744208467 $264 25.624049615200171 $147 $265 forward 7 unknown #
coedge $-1 $266 $214 $144 $211 reversed $219 $-1 #
edge $-1 $267 -25.624049615200171 $212 11.868447744208467 $210 $268 forward 7 unknown #
vertex $-1 $215 $269 #
straight-curve $-1 0 -11.868447744208467 10.767934616579494 1 0 0 I I #
coedge $-1 $210 $150 $146 $215 forward $219 $-1 #
edge $-1 $152 1.6044114133669618 $212 6.6438192732640085 $214 $270 forward 7 unknown #
coedge $-1 $147 $159 $271 $272 reversed $80 $-1 #
point $-1 49.353312784203617 -11.868447744208467 10.767934616579494 #
coedge $-1 $150 $273 $154 $223 reversed $219 $-1 #
loop $-1 $-1 $214 $205 #
straight-curve $-1 -49.353312784203617 -9.3731243398521595 5.7285267566824469 0 1 0 I I #
point $-1 -49.353312784203617 -11.868447744208467 5.7285267566824469 #
coedge $-1 $155 $154 $260 $274 reversed $156 $-1 #
edge $-1 $157 -5.7285267566824469 $275 10.767934616579494 $218 $276 forward 7 unknown #
point $-1 -49.353312784203617 -25.624049615200171 5.7285267566824469 #
edge $-1 $277 -25.624049615200171 $226 25.624049615200171 $159 $278 forward 7 unknown #
vertex $-1 $160 $279 #
straight-curve $-1 49.353312784203617 -25.624049615200171 0 0 0 -1 I I #
loop $-1 $-1 $280 $163 #
plane-surface $-1 0 -11.868447744208467 8.2482306866309703 0 -1 0 0 0 -1 forward_v I I I I #
coedge $-1 $281 $282 $283 $284 reversed $164 $-1 #
coedge $-1 $167 $166 $285 $286 forward $53 $-1 #
edge $-1 $172 -11.868447744208463 $287 11.868447744208467 $171 $288 forward 7 unknown #
edge $-1 $289 -11.868447744208467 $234 11.868447744208463 $182 $290 forward 7 unknown #
vertex $-1 $168 $291 #
straight-curve $-1 0 11.868447744208463 10.767934616579494 -1 0 0 I I #
coedge $-1 $292 $170 $177 $242 forward $96 $-1 #
coedge $-1 $171 $293 $294 $295 forward $96 $-1 #
point $-1 -49.353312784203617 11.868447744208463 10.767934616579494 #
point $-1 -49.353312784203617 11.868447744208463 5.7285267566824469 #
straight-curve $-1 -49.353312784203617 9.3731243398521578 5.7285267566824469 0 1 0 I I #
coedge $-1 $177 $176 $296 $297 reversed $178 $-1 #
edge $-1 $179 -5.7285267566824469 $298 10.767934616579494 $177 $299 forward 7 unknown #
face $-1 $-1 $178 $11 $-1 $300 reversed single #
point $-1 -49.353312784203617 25.624049615200168 5.7285267566824469 #
coedge $-1 $283 $182 $280 $301 forward $109 $-1 #
straight-curve $-1 49.353312784203617 11.868447744208463 4.1241153433154851 0 0 1 I I #
coedge $-1 $184 $283 $302 $303 forward $109 $-1 #
coedge $-1 $304 $296 $184 $249 forward $305 $-1 #
edge $-1 $250 -25.624049615200171 $306 25.624049615200171 $184 $307 forward 7 unknown #
vertex $-1 $249 $308 #
straight-curve $-1 49.353312784203617 25.624049615200171 0 0 0 -1 I I #
face $-1 $309 $305 $11 $-1 $310 reversed single #
plane-surface $-1 49.353312784203617 0 0 -1 0 0 0 0 1 forward_v I I I I #
straight-curve $-1 -49.353312784203617 25.624049615200171 0 0 0 -1 I I #
point $-1 -49.353312784203617 -25.624049615200171 -10.767934616579494 #
straight-curve $-1 -49.353312784203617 0 -10.767934616579494 0 1 0 I I #
point $-1 -49.353312784203617 25.624049615200171 -10.767934616579494 #
face $-1 $-1 $311 $10 $-1 $312 reversed single #
plane-surface $-1 -49.353312784203617 0 0 1 0 0 0 0 -1 forward_v I I I I #
coedge $-1 $313 $207 $222 $274 forward $141 $-1 #
coedge $-1 $207 $313 $314 $315 forward $141 $-1 #
coedge $-1 $271 $316 $208 $263 reversed $311 $-1 #
edge $-1 $264 -49.353312784203617 $267 49.353312784203617 $262 $317 forward 7 unknown #
vertex $-1 $209 $318 #
straight-curve $-1 49.353312784203617 0 10.767934616579494 0 1 0 I I #
coedge $-1 $273 $210 $316 $319 forward $219 $-1 #
vertex $-1 $263 $320 #
straight-curve $-1 -49.353312784203617 0 10.767934616579494 0 -1 0 I I #
point $-1 -49.353312784203617 -11.868447744208467 10.767934616579494 #
straight-curve $-1 -49.353312784203617 -11.868447744208467 4.1241153433154851 0 0 1 I I #
coedge $-1 $314 $262 $216 $272 forward $311 $-1 #
edge $-1 $264 -10.767934616579494 $277 10.767934616579494 $216 $321 forward 7 unknown #
coedge $-1 $218 $266 $313 $322 reversed $219 $-1 #
edge $-1 $226 -49.353312784203617 $275 49.353312784203617 $222 $323 forward 7 unknown #
vertex $-1 $322 $324 #
straight-curve $-1 -49.353312784203617 -25.624049615200171 0 0 0 -1 I I #
vertex $-1 $225 $325 #
straight-curve $-1 49.353312784203617 0 -10.767934616579494 0 -1 0 I I #
point $-1 49.353312784203617 -25.624049615200171 -10.767934616579494 #
coedge $-1 $285 $326 $245 $301 reversed $228 $-1 #
coedge $-1 $327 $230 $326 $328 reversed $164 $-1 #
coedge $-1 $230 $327 $329 $330 reversed $164 $-1 #
coedge $-1 $247 $245 $230 $284 forward $109 $-1 #
edge $-1 $331 2.4953234043563075 $332 16.25092527534801 $283 $333 forward 7 unknown #
coedge $-1 $294 $280 $231 $286 reversed $228 $-1 #
edge $-1 $287 -49.353312784203617 $289 49.353312784203617 $231 $334 forward 7 unknown #
vertex $-1 $295 $335 #
straight-curve $-1 -49.353312784203617 0 10.767934616579494 0 -1 0 I I #
vertex $-1 $233 $336 #
straight-curve $-1 49.353312784203617 0 10.767934616579494 0 1 0 I I #
point $-1 49.353312784203617 11.868447744208463 10.767934616579494 #
coedge $-1 $337 $236 $338 $339 reversed $96 $-1 #
coedge $-1 $237 $337 $327 $340 forward $96 $-1 #
coedge $-1 $326 $285 $237 $295 reversed $228 $-1 #
edge $-1 $341 1.6044114133669618 $287 6.6438192732640085 $237 $342 forward 7 unknown #
coedge $-1 $248 $338 $241 $297 forward $305 $-1 #
edge $-1 $298 -49.353312784203617 $250 49.353312784203617 $241 $343 forward 7 unknown #
vertex $-1 $297 $344 #
straight-curve $-1 -49.353312784203617 25.624049615200171 0 0 0 -1 I I #
plane-surface $-1 0 25.624049615200171 0 0 -1 0 0 0 -1 forward_v I I I I #
edge $-1 $289 -6.6438192732640085 $331 -1.6044114133669618 $245 $345 forward 7 unknown #
coedge $-1 $329 $346 $247 $303 reversed $347 $-1 #
edge $-1 $332 -5.7285267566824469 $306 10.767934616579494 $247 $348 forward 7 unknown #
coedge $-1 $338 $248 $346 $349 forward $305 $-1 #
loop $-1 $-1 $248 $252 #
vertex $-1 $303 $350 #
straight-curve $-1 49.353312784203617 0 -10.767934616579494 0 -1 0 I I #
point $-1 49.353312784203617 25.624049615200171 -10.767934616579494 #
face $-1 $243 $347 $11 $-1 $351 reversed single #
plane-surface $-1 0 0 -10.767934616579494 0 0 1 1 0 0 forward_v I I I I #
loop $-1 $-1 $271 $258 #
plane-surface $-1 0 25.624049615200171 0 0 -1 0 0 0 -1 forward_v I I I I #
coedge $-1 $261 $260 $273 $322 forward $141 $-1 #
coedge $-1 $316 $271 $261 $315 reversed $311 $-1 #
edge $-1 $352 -49.353312784203617 $277 49.353312784203617 $314 $353 forward 7 unknown #
coedge $-1 $262 $314 $266 $319 reversed $311 $-1 #
straight-curve $-1 0 25.624049615200171 10.767934616579494 -1 0 0 I I #
point $-1 49.353312784203617 25.624049615200171 10.767934616579494 #
edge $-1 $267 -10.767934616579494 $352 10.767934616579494 $316 $354 forward 7 unknown #
point $-1 -49.353312784203617 25.624049615200171 10.767934616579494 #
straight-curve $-1 49.353312784203617 25.624049615200171 0 0 0 -1 I I #
edge $-1 $275 -25.624049615200171 $352 25.624049615200171 $273 $355 forward 7 unknown #
straight-curve $-1 0 -25.624049615200171 -10.767934616579494 -1 0 0 I I #
point $-1 -49.353312784203617 -25.624049615200171 -10.767934616579494 #
point $-1 49.353312784203617 25.624049615200171 -10.767934616579494 #
coedge $-1 $280 $294 $281 $328 forward $228 $-1 #
coedge $-1 $282 $281 $293 $340 reversed $164 $-1 #
edge $-1 $341 -49.353312784203617 $331 49.353312784203617 $326 $356 forward 7 unknown #
coedge $-1 $357 $302 $282 $330 forward $347 $-1 #
edge $-1 $332 -49.353312784203617 $358 49.353312784203617 $329 $359 forward 7 unknown #
vertex $-1 $284 $360 #
vertex $-1 $303 $361 #
straight-curve $-1 49.353312784203617 -9.3731243398521595 5.7285267566824469 0 -1 0 I I #
straight-curve $-1 0 -11.868447744208467 10.767934616579494 1 0 0 I I #
point $-1 -49.353312784203617 -11.868447744208467 10.767934616579494 #
point $-1 49.353312784203617 -11.868447744208467 10.767934616579494 #
coedge $-1 $293 $292 $357 $362 reversed $96 $-1 #
coedge $-1 $296 $304 $292 $339 forward $305 $-1 #
edge $-1 $363 -25.624049615200171 $298 25.624049615200171 $292 $364 forward 7 unknown #
edge $-1 $358 -16.25092527534801 $341 -2.4953234043563075 $293 $365 forward 7 unknown #
vertex $-1 $340 $366 #
straight-curve $-1 -49.353312784203617 -11.868447744208467 4.1241153433154851 0 0 1 I I #
straight-curve $-1 0 25.624049615200171 -10.767934616579494 1 0 0 I I #
point $-1 -49.353312784203617 25.624049615200171 -10.767934616579494 #
straight-curve $-1 49.353312784203617 -11.868447744208467 4.1241153433154851 0 0 -1 I I #
coedge $-1 $302 $357 $304 $349 reversed $347 $-1 #
loop $-1 $-1 $329 $309 #
straight-curve $-1 49.353312784203617 -25.624049615200171 0 0 0 -1 I I #
edge $-1 $306 -49.353312784203617 $363 49.353312784203617 $346 $367 forward 7 unknown #
point $-1 49.353312784203617 -25.624049615200171 -10.767934616579494 #
plane-surface $-1 0 -25.624049615200171 0 0 1 0 0 0 1 forward_v I I I I #
vertex $-1 $315 $368 #
straight-curve $-1 0 25.624049615200171 -10.767934616579494 1 0 0 I I #
straight-curve $-1 -49.353312784203617 25.624049615200171 0 0 0 -1 I I #
straight-curve $-1 -49.353312784203617 0 -10.767934616579494 0 1 0 I I #
straight-curve $-1 0 -11.868447744208467 5.7285267566824469 1 0 0 I I #
coedge $-1 $346 $329 $337 $362 forward $347 $-1 #
vertex $-1 $362 $369 #
straight-curve $-1 0 -25.624049615200171 5.7285267566824469 -1 0 0 I I #
point $-1 49.353312784203617 -11.868447744208467 5.7285267566824469 #
point $-1 49.353312784203617 -25.624049615200171 5.7285267566824469 #
edge $-1 $358 -5.7285267566824469 $363 10.767934616579494 $337 $370 forward 7 unknown #
vertex $-1 $339 $371 #
straight-curve $-1 -49.353312784203617 0 -10.767934616579494 0 1 0 I I #
straight-curve $-1 -49.353312784203617 -9.3731243398521595 5.7285267566824469 0 1 0 I I #
point $-1 -49.353312784203617 -11.868447744208467 5.7285267566824469 #
straight-curve $-1 0 -25.624049615200171 -10.767934616579494 -1 0 0 I I #
point $-1 -49.353312784203617 25.624049615200171 -10.767934616579494 #
point $-1 -49.353312784203617 -25.624049615200171 5.7285267566824469 #
straight-curve $-1 -49.353312784203617 -25.624049615200171 0 0 0 -1 I I #
point $-1 -49.353312784203617 -25.624049615200171 -10.767934616579494 #
End-of-ACIS-data 