500 0 14 0           
7 Unknown 11 ACIS 5.0 NT 24 Fri Mar 26 17:26:04 1999 
-1 9.9999999999999995e-007 1e-010 
body $-1 $14 $-1 $15 #
body $-1 $16 $-1 $17 #
body $-1 $18 $-1 $19 #
body $-1 $20 $-1 $21 #
body $-1 $22 $-1 $23 #
body $-1 $24 $-1 $25 #
body $-1 $26 $-1 $27 #
body $-1 $28 $-1 $29 #
body $-1 $30 $-1 $31 #
body $-1 $32 $-1 $33 #
body $-1 $34 $-1 $35 #
body $-1 $36 $-1 $37 #
body $-1 $38 $-1 $39 #
body $-1 $40 $-1 $41 #
lump $-1 $-1 $42 $0 #
transform $-1 1 0 0 0 1 0 0 0 1 45.669118320261241 25.345266571310116 8.7498292628150285 1 rotate no_reflect no_shear #
lump $-1 $-1 $43 $1 #
transform $-1 1 0 0 0 1 0 0 0 1 45.669118320261241 25.345266571310116 8.7498292628150285 1 rotate no_reflect no_shear #
lump $-1 $-1 $44 $2 #
transform $-1 1 0 0 0 1 0 0 0 1 45.669118320261241 25.345266571310116 8.7498292628150285 1 rotate no_reflect no_shear #
lump $-1 $-1 $45 $3 #
transform $-1 1 0 0 0 1 0 0 0 1 45.669118320261241 25.345266571310116 8.7498292628150285 1 rotate no_reflect no_shear #
lump $-1 $-1 $46 $4 #
transform $-1 1 0 0 0 1 0 0 0 1 45.669118320261241 25.345266571310116 8.7498292628150285 1 rotate no_reflect no_shear #
lump $-1 $-1 $47 $5 #
transform $-1 1 0 0 0 1 0 0 0 1 45.669118320261241 25.345266571310116 8.7498292628150285 1 rotate no_reflect no_shear #
lump $-1 $-1 $48 $6 #
transform $-1 1 0 0 0 1 0 0 0 1 45.669118320261241 25.345266571310116 8.7498292628150285 1 rotate no_reflect no_shear #
lump $-1 $-1 $49 $7 #
transform $-1 1 0 0 0 1 0 0 0 1 45.669118320261241 25.345266571310116 8.7498292628150285 1 rotate no_reflect no_shear #
lump $-1 $-1 $50 $8 #
transform $-1 1 0 0 0 1 0 0 0 1 45.669118320261241 25.345266571310116 8.7498292628150285 1 rotate no_reflect no_shear #
lump $-1 $-1 $51 $9 #
transform $-1 1 0 0 0 1 0 0 0 1 45.669118320261241 25.345266571310116 8.7498292628150285 1 rotate no_reflect no_shear #
lump $-1 $-1 $52 $10 #
transform $-1 1 0 0 0 1 0 0 0 1 45.669118320261241 25.345266571310116 8.7498292628150285 1 rotate no_reflect no_shear #
lump $-1 $-1 $53 $11 #
transform $-1 1 0 0 0 1 0 0 0 1 45.669118320261241 25.345266571310116 8.7498292628150285 1 rotate no_reflect no_shear #
lump $-1 $-1 $54 $12 #
transform $-1 1 0 0 0 1 0 0 0 1 45.669118320261241 25.345266571310116 8.7498292628150285 1 rotate no_reflect no_shear #
lump $-1 $-1 $55 $13 #
transform $-1 1 0 0 0 1 0 0 0 1 45.669118320261241 25.345266571310116 8.7498292628150285 1 rotate no_reflect no_shear #
shell $-1 $-1 $-1 $56 $-1 $14 #
shell $-1 $-1 $-1 $57 $-1 $16 #
shell $-1 $-1 $-1 $58 $-1 $18 #
shell $-1 $-1 $-1 $59 $-1 $20 #
shell $-1 $-1 $-1 $60 $-1 $22 #
shell $-1 $-1 $-1 $61 $-1 $24 #
shell $-1 $-1 $-1 $62 $-1 $26 #
shell $-1 $-1 $-1 $63 $-1 $28 #
shell $-1 $-1 $-1 $64 $-1 $30 #
shell $-1 $-1 $-1 $65 $-1 $32 #
shell $-1 $-1 $-1 $66 $-1 $34 #
shell $-1 $-1 $-1 $67 $-1 $36 #
shell $-1 $-1 $-1 $68 $-1 $38 #
shell $-1 $-1 $-1 $69 $-1 $40 #
face $-1 $70 $71 $42 $-1 $72 forward single #
face $-1 $73 $74 $43 $-1 $75 forward single #
face $-1 $76 $77 $44 $-1 $78 reversed single #
face $-1 $79 $80 $45 $-1 $81 reversed single #
face $-1 $82 $83 $46 $-1 $84 forward single #
face $-1 $85 $86 $47 $-1 $87 forward single #
face $-1 $88 $89 $48 $-1 $90 reversed single #
face $-1 $91 $92 $49 $-1 $93 forward single #
face $-1 $94 $95 $50 $-1 $96 forward single #
face $-1 $97 $98 $51 $-1 $99 forward single #
face $-1 $100 $101 $52 $-1 $102 reversed single #
face $-1 $103 $104 $53 $-1 $105 forward single #
face $-1 $106 $107 $54 $-1 $108 forward single #
face $-1 $109 $110 $55 $-1 $111 forward single #
face $-1 $112 $113 $42 $-1 $114 reversed single #
loop $-1 $-1 $115 $56 #
plane-surface $-1 0 0 8.7498292628150285 0 0 1 1 0 0 forward_v I I I I #
face $-1 $116 $117 $43 $-1 $118 forward single #
loop $-1 $-1 $119 $57 #
plane-surface $-1 0 -25.345266571310116 0 0 1 0 0 0 1 forward_v I I I I #
face $-1 $120 $121 $44 $-1 $122 reversed single #
loop $-1 $-1 $123 $58 #
plane-surface $-1 0 20.531949898503658 5.7498292628150285 0 0 1 1 0 0 forward_v I I I I #
face $-1 $124 $125 $45 $-1 $126 reversed single #
loop $-1 $-1 $127 $59 #
plane-surface $-1 -98.058579270310943 8.6149122932476665 75.164538086869186 0 1 0 -0.57357644374324357 0 0.81915203911291934 forward_v I I I I #
face $-1 $128 $129 $46 $-1 $130 forward single #
loop $-1 $131 $132 $60 #
cone-surface $-1 -39.380399707107074 10.644546845376102 4.1376562587544754 0.57357644374324357 0 -0.81915203911291934 0.40957601955645967 0 0.28678822187162178 1 I I 0 1 0.5 forward I I I I #
face $-1 $133 $134 $47 $-1 $135 forward single #
loop $-1 $136 $137 $61 #
cone-surface $-1 -39.380399707107074 13.688998673568758 4.1376562587544754 0.57357644374324357 0 -0.81915203911291934 0.40957601955645967 0 0.28678822187162178 1 I I 0 1 0.5 forward I I I I #
face $-1 $138 $139 $48 $-1 $140 reversed single #
loop $-1 $-1 $141 $62 #
plane-surface $-1 41.161089884924017 -8.3714323188152591 132.13970322777558 0 -1 0 -0.68199836817093118 0 -0.7313536940579346 forward_v I I I I #
face $-1 $142 $143 $49 $-1 $144 forward single #
loop $-1 $145 $146 $63 #
cone-surface $-1 42.240476862250532 -13.399006686090853 5.5007299301232822 -0.68199836817093118 0 -0.7313536940579346 0.3656768470289673 0 -0.34099918408546559 1 I I 0 1 0.5 forward I I I I #
face $-1 $147 $148 $50 $-1 $149 forward single #
loop $-1 $150 $151 $64 #
cone-surface $-1 42.240476862250532 -11.513666298362505 5.5007299301232822 -0.68199836817093118 0 -0.7313536940579346 0.3656768470289673 0 -0.34099918408546559 1 I I 0 1 0.5 forward I I I I #
face $-1 $152 $153 $51 $-1 $154 forward single #
loop $-1 $155 $156 $65 #
cone-surface $-1 42.240476862250532 -9.6283259106341568 5.5007299301232822 -0.68199836817093118 0 -0.7313536940579346 0.3656768470289673 0 -0.34099918408546559 1 I I 0 1 0.5 forward I I I I #
face $-1 $157 $158 $52 $-1 $159 reversed single #
loop $-1 $-1 $160 $66 #
plane-surface $-1 41.161089884924017 6.8158344329882192 132.13970322777558 0 -1 0 -0.68199836817093118 0 -0.7313536940579346 forward_v I I I I #
face $-1 $161 $162 $53 $-1 $163 forward single #
loop $-1 $164 $165 $67 #
cone-surface $-1 42.240476862250532 1.788260065712624 5.5007299301232822 -0.68199836817093118 0 -0.7313536940579346 0.3656768470289673 0 -0.34099918408546559 1 I I 0 1 0.5 forward I I I I #
face $-1 $166 $167 $54 $-1 $168 forward single #
loop $-1 $169 $170 $68 #
cone-surface $-1 42.240476862250532 3.6736004534409723 5.5007299301232822 -0.68199836817093118 0 -0.7313536940579346 0.3656768470289673 0 -0.34099918408546559 1 I I 0 1 0.5 forward I I I I #
face $-1 $171 $172 $55 $-1 $173 forward single #
loop $-1 $174 $175 $69 #
cone-surface $-1 42.240476862250532 5.5589408411693206 5.5007299301232822 -0.68199836817093118 0 -0.7313536940579346 0.3656768470289673 0 -0.34099918408546559 1 I I 0 1 0.5 forward I I I I #
face $-1 $176 $177 $42 $-1 $178 reversed single #
loop $-1 $-1 $179 $70 #
plane-surface $-1 0 0 -8.7498292628150285 0 0 1 1 0 0 forward_v I I I I #
coedge $-1 $180 $181 $182 $183 forward $71 $-1 #
face $-1 $184 $185 $43 $-1 $186 reversed single #
loop $-1 $-1 $187 $73 #
plane-surface $-1 0 0 8.7498292628150285 0 0 1 1 0 0 forward_v I I I I #
coedge $-1 $188 $189 $190 $191 forward $74 $-1 #
face $-1 $192 $193 $44 $-1 $194 reversed single #
loop $-1 $-1 $195 $76 #
plane-surface $-1 0 15.7186332256972 7.2498292628150285 0 1 0 0 0 1 forward_v I I I I #
coedge $-1 $196 $197 $198 $199 reversed $77 $-1 #
face $-1 $200 $201 $45 $-1 $202 forward single #
loop $-1 $-1 $203 $79 #
plane-surface $-1 -45.669118320261234 12.166772759472433 0.34463529380683156 -0.57357644374324357 0 0.81915203911291934 0.81915203911291934 0 0.57357644374324357 forward_v I I I I #
coedge $-1 $204 $205 $206 $207 reversed $80 $-1 #
face $-1 $-1 $208 $46 $-1 $209 forward single #
loop $-1 $210 $211 $82 #
cone-surface $-1 -38.95021737429964 10.644546845376102 3.5232922294197859 0.57357644374324357 0 -0.81915203911291934 0.20478800977822983 0 0.14339411093581089 1 I I -0.70710678118654746 0.70710678118654746 0.25 forward I I I I #
loop $-1 $-1 $212 $60 #
coedge $-1 $132 $132 $213 $214 reversed $83 $-1 #
face $-1 $-1 $215 $47 $-1 $216 forward single #
loop $-1 $217 $218 $85 #
cone-surface $-1 -38.95021737429964 13.688998673568758 3.5232922294197859 0.57357644374324357 0 -0.81915203911291934 0.20478800977822983 0 0.14339411093581089 1 I I -0.70710678118654746 0.70710678118654746 0.25 forward I I I I #
loop $-1 $-1 $219 $61 #
coedge $-1 $137 $137 $220 $221 reversed $86 $-1 #
face $-1 $222 $223 $48 $-1 $224 reversed single #
loop $-1 $-1 $225 $88 #
plane-surface $-1 -21.13143845552267 -11.513666298362505 65.339146451991667 0.68199836817093118 0 0.7313536940579346 0.7313536940579346 0 -0.68199836817093118 forward_v I I I I #
coedge $-1 $226 $227 $228 $229 reversed $89 $-1 #
face $-1 $-1 $230 $49 $-1 $231 forward single #
loop $-1 $232 $233 $91 #
cone-surface $-1 41.699308336867666 -13.399006686090853 4.9203977495520714 -0.68199836817093118 0 -0.7313536940579346 0.18283842351448365 0 -0.17049959204273279 1 I I -0.70710678118654746 0.70710678118654746 0.25 forward I I I I #
loop $-1 $-1 $234 $63 #
coedge $-1 $146 $146 $235 $236 reversed $92 $-1 #
face $-1 $-1 $237 $50 $-1 $238 forward single #
loop $-1 $239 $240 $94 #
cone-surface $-1 41.699308336867666 -11.513666298362505 4.9203977495520714 -0.68199836817093118 0 -0.7313536940579346 0.18283842351448365 0 -0.17049959204273279 1 I I -0.70710678118654746 0.70710678118654746 0.25 forward I I I I #
loop $-1 $-1 $241 $64 #
coedge $-1 $151 $151 $242 $243 reversed $95 $-1 #
face $-1 $-1 $244 $51 $-1 $245 forward single #
loop $-1 $246 $247 $97 #
cone-surface $-1 41.699308336867666 -9.6283259106341568 4.9203977495520714 -0.68199836817093118 0 -0.7313536940579346 0.18283842351448365 0 -0.17049959204273279 1 I I -0.70710678118654746 0.70710678118654746 0.25 forward I I I I #
loop $-1 $-1 $248 $65 #
coedge $-1 $156 $156 $249 $250 reversed $98 $-1 #
face $-1 $251 $252 $52 $-1 $253 reversed single #
loop $-1 $-1 $254 $100 #
plane-surface $-1 -21.13143845552267 3.6736004534409723 65.339146451991667 0.68199836817093118 0 0.7313536940579346 0.7313536940579346 0 -0.68199836817093118 forward_v I I I I #
coedge $-1 $255 $256 $257 $258 reversed $101 $-1 #
face $-1 $-1 $259 $53 $-1 $260 forward single #
loop $-1 $261 $262 $103 #
cone-surface $-1 41.699308336867666 1.788260065712624 4.9203977495520714 -0.68199836817093118 0 -0.7313536940579346 0.18283842351448365 0 -0.17049959204273279 1 I I -0.70710678118654746 0.70710678118654746 0.25 forward I I I I #
loop $-1 $-1 $263 $67 #
coedge $-1 $165 $165 $264 $265 reversed $104 $-1 #
face $-1 $-1 $266 $54 $-1 $267 forward single #
loop $-1 $268 $269 $106 #
cone-surface $-1 41.699308336867666 3.6736004534409723 4.9203977495520714 -0.68199836817093118 0 -0.7313536940579346 0.18283842351448365 0 -0.17049959204273279 1 I I -0.70710678118654746 0.70710678118654746 0.25 forward I I I I #
loop $-1 $-1 $270 $68 #
coedge $-1 $170 $170 $271 $272 reversed $107 $-1 #
face $-1 $-1 $273 $55 $-1 $274 forward single #
loop $-1 $275 $276 $109 #
cone-surface $-1 41.699308336867666 5.5589408411693206 4.9203977495520714 -0.68199836817093118 0 -0.7313536940579346 0.18283842351448365 0 -0.17049959204273279 1 I I -0.70710678118654746 0.70710678118654746 0.25 forward I I I I #
loop $-1 $-1 $277 $69 #
coedge $-1 $175 $175 $278 $279 reversed $110 $-1 #
face $-1 $280 $281 $42 $-1 $282 reversed single #
loop $-1 $-1 $283 $112 #
plane-surface $-1 0 -25.345266571310116 0 0 1 0 0 0 1 forward_v I I I I #
coedge $-1 $284 $285 $286 $287 forward $113 $-1 #
coedge $-1 $288 $115 $289 $290 forward $71 $-1 #
coedge $-1 $115 $288 $291 $292 forward $71 $-1 #
coedge $-1 $293 $294 $115 $183 reversed $295 $-1 #
edge $-1 $296 -25.345266571310116 $297 25.345266571310116 $182 $298 forward 7 unknown #
face $-1 $299 $300 $43 $-1 $301 reversed single #
loop $-1 $-1 $302 $116 #
plane-surface $-1 -45.669118320261241 0 0 1 0 0 0 0 -1 forward_v I I I I #
coedge $-1 $303 $304 $305 $306 forward $117 $-1 #
coedge $-1 $305 $119 $302 $307 reversed $74 $-1 #
coedge $-1 $119 $305 $308 $309 reversed $74 $-1 #
coedge $-1 $310 $311 $119 $191 reversed $300 $-1 #
edge $-1 $312 -45.669118320261241 $313 45.669118320261241 $190 $314 forward 7 unknown #
face $-1 $315 $316 $44 $-1 $317 reversed single #
loop $-1 $-1 $318 $120 #
plane-surface $-1 45.669118320261241 0 0 -1 0 0 0 0 1 forward_v I I I I #
coedge $-1 $319 $320 $321 $322 reversed $121 $-1 #
coedge $-1 $323 $123 $319 $324 forward $77 $-1 #
coedge $-1 $123 $323 $325 $326 reversed $77 $-1 #
coedge $-1 $327 $318 $123 $199 forward $193 $-1 #
edge $-1 $328 5.452658276445371 $329 15.079291622058287 $198 $330 forward 7 unknown #
face $-1 $331 $332 $45 $-1 $333 forward single #
loop $-1 $-1 $206 $124 #
plane-surface $-1 0 0 8.7498292628150285 0 0 1 1 0 0 forward_v I I I I #
coedge $-1 $334 $335 $336 $337 reversed $125 $-1 #
coedge $-1 $205 $127 $338 $339 reversed $80 $-1 #
coedge $-1 $127 $204 $334 $340 reversed $80 $-1 #
coedge $-1 $336 $341 $127 $207 forward $201 $-1 #
edge $-1 $342 3.3601713148942309 $343 15.364032097459337 $206 $344 forward 7 unknown #
loop $-1 $-1 $213 $128 #
plane-surface $-1 -45.669118320261234 12.166772759472433 0.34463529380683156 -0.57357644374324357 0 0.81915203911291934 0.81915203911291934 0 0.57357644374324357 forward_v I I I I #
loop $-1 $-1 $345 $82 #
coedge $-1 $211 $211 $212 $346 reversed $129 $-1 #
coedge $-1 $212 $212 $211 $346 forward $131 $-1 #
coedge $-1 $213 $213 $132 $214 forward $208 $-1 #
edge $-1 $347 0 $347 6.2831853071796004 $213 $348 forward 7 unknown #
loop $-1 $-1 $220 $133 #
plane-surface $-1 -45.669118320261234 12.166772759472433 0.34463529380683156 -0.57357644374324357 0 0.81915203911291934 0.81915203911291934 0 0.57357644374324357 forward_v I I I I #
loop $-1 $-1 $349 $85 #
coedge $-1 $218 $218 $219 $350 reversed $134 $-1 #
coedge $-1 $219 $219 $218 $350 forward $136 $-1 #
coedge $-1 $220 $220 $137 $221 forward $215 $-1 #
edge $-1 $351 0 $351 6.2831853071796004 $220 $352 forward 7 unknown #
face $-1 $353 $354 $48 $-1 $355 reversed single #
loop $-1 $-1 $356 $138 #
plane-surface $-1 41.161089884924017 -14.655900277909751 132.13970322777558 0 1 0 0.68199836817093118 0 0.7313536940579346 forward_v I I I I #
coedge $-1 $357 $358 $359 $360 reversed $139 $-1 #
coedge $-1 $227 $141 $361 $362 reversed $89 $-1 #
coedge $-1 $141 $226 $357 $363 reversed $89 $-1 #
coedge $-1 $359 $364 $141 $229 forward $365 $-1 #
edge $-1 $366 -25.088573377799232 $367 -18.972628328458068 $228 $368 forward 7 unknown #
loop $-1 $-1 $235 $142 #
plane-surface $-1 -21.13143845552267 -11.513666298362505 65.339146451991667 0.68199836817093118 0 0.7313536940579346 0.7313536940579346 0 -0.68199836817093118 forward_v I I I I #
loop $-1 $-1 $369 $91 #
coedge $-1 $233 $233 $234 $370 reversed $143 $-1 #
coedge $-1 $234 $234 $233 $370 forward $145 $-1 #
coedge $-1 $235 $235 $146 $236 forward $230 $-1 #
edge $-1 $371 0 $371 6.2831853071796004 $235 $372 forward 7 unknown #
loop $-1 $-1 $242 $147 #
plane-surface $-1 -21.13143845552267 -11.513666298362505 65.339146451991667 0.68199836817093118 0 0.7313536940579346 0.7313536940579346 0 -0.68199836817093118 forward_v I I I I #
loop $-1 $-1 $373 $94 #
coedge $-1 $240 $240 $241 $374 reversed $148 $-1 #
coedge $-1 $241 $241 $240 $374 forward $150 $-1 #
coedge $-1 $242 $242 $151 $243 forward $237 $-1 #
edge $-1 $375 0 $375 6.2831853071796004 $242 $376 forward 7 unknown #
loop $-1 $-1 $249 $152 #
plane-surface $-1 -21.13143845552267 -11.513666298362505 65.339146451991667 0.68199836817093118 0 0.7313536940579346 0.7313536940579346 0 -0.68199836817093118 forward_v I I I I #
loop $-1 $-1 $377 $97 #
coedge $-1 $247 $247 $248 $378 reversed $153 $-1 #
coedge $-1 $248 $248 $247 $378 forward $155 $-1 #
coedge $-1 $249 $249 $156 $250 forward $244 $-1 #
edge $-1 $379 0 $379 6.2831853071796004 $249 $380 forward 7 unknown #
face $-1 $381 $382 $52 $-1 $383 reversed single #
loop $-1 $-1 $384 $157 #
plane-surface $-1 41.161089884924017 0.53136647389372538 132.13970322777558 0 1 0 0.68199836817093118 0 0.7313536940579346 forward_v I I I I #
coedge $-1 $385 $386 $387 $388 reversed $158 $-1 #
coedge $-1 $256 $160 $389 $390 reversed $101 $-1 #
coedge $-1 $160 $255 $385 $391 reversed $101 $-1 #
coedge $-1 $387 $392 $160 $258 forward $393 $-1 #
edge $-1 $394 -25.088573377799232 $395 -18.972628328458068 $257 $396 forward 7 unknown #
loop $-1 $-1 $264 $161 #
plane-surface $-1 -21.13143845552267 3.6736004534409723 65.339146451991667 0.68199836817093118 0 0.7313536940579346 0.7313536940579346 0 -0.68199836817093118 forward_v I I I I #
loop $-1 $-1 $397 $103 #
coedge $-1 $262 $262 $263 $398 reversed $162 $-1 #
coedge $-1 $263 $263 $262 $398 forward $164 $-1 #
coedge $-1 $264 $264 $165 $265 forward $259 $-1 #
edge $-1 $399 0 $399 6.2831853071796004 $264 $400 forward 7 unknown #
loop $-1 $-1 $271 $166 #
plane-surface $-1 -21.13143845552267 3.6736004534409723 65.339146451991667 0.68199836817093118 0 0.7313536940579346 0.7313536940579346 0 -0.68199836817093118 forward_v I I I I #
loop $-1 $-1 $401 $106 #
coedge $-1 $269 $269 $270 $402 reversed $167 $-1 #
coedge $-1 $270 $270 $269 $402 forward $169 $-1 #
coedge $-1 $271 $271 $170 $272 forward $266 $-1 #
edge $-1 $403 0 $403 6.2831853071796004 $271 $404 forward 7 unknown #
loop $-1 $-1 $278 $171 #
plane-surface $-1 -21.13143845552267 3.6736004534409723 65.339146451991667 0.68199836817093118 0 0.7313536940579346 0.7313536940579346 0 -0.68199836817093118 forward_v I I I I #
loop $-1 $-1 $405 $109 #
coedge $-1 $276 $276 $277 $406 reversed $172 $-1 #
coedge $-1 $277 $277 $276 $406 forward $174 $-1 #
coedge $-1 $278 $278 $175 $279 forward $273 $-1 #
edge $-1 $407 0 $407 6.2831853071796004 $278 $408 forward 7 unknown #
face $-1 $409 $410 $42 $-1 $411 reversed single #
loop $-1 $-1 $412 $176 #
plane-surface $-1 -45.669118320261241 0 0 1 0 0 0 0 -1 forward_v I I I I #
coedge $-1 $413 $291 $414 $415 forward $177 $-1 #
coedge $-1 $416 $179 $413 $417 forward $113 $-1 #
coedge $-1 $179 $416 $418 $419 forward $113 $-1 #
coedge $-1 $294 $293 $179 $287 reversed $295 $-1 #
edge $-1 $420 -25.345266571310116 $421 25.345266571310116 $286 $422 forward 7 unknown #
coedge $-1 $181 $180 $423 $424 forward $71 $-1 #
coedge $-1 $425 $426 $180 $290 reversed $410 $-1 #
edge $-1 $297 -45.669118320261241 $427 45.669118320261241 $289 $428 forward 7 unknown #
coedge $-1 $283 $429 $181 $292 reversed $177 $-1 #
edge $-1 $430 -45.669118320261241 $296 45.669118320261241 $291 $431 forward 7 unknown #
coedge $-1 $286 $182 $429 $432 forward $295 $-1 #
coedge $-1 $182 $286 $425 $433 reversed $295 $-1 #
loop $-1 $-1 $293 $409 #
vertex $-1 $183 $434 #
vertex $-1 $183 $435 #
straight-curve $-1 45.669118320261241 0 8.7498292628150285 0 1 0 I I #
face $-1 $436 $437 $43 $-1 $438 reversed single #
loop $-1 $-1 $310 $184 #
plane-surface $-1 0 -30.689949718010297 5.1502947159570907 0 0 1 1 0 0 forward_v I I I I #
coedge $-1 $439 $440 $188 $307 forward $185 $-1 #
coedge $-1 $441 $187 $440 $442 forward $117 $-1 #
coedge $-1 $187 $441 $443 $444 forward $117 $-1 #
coedge $-1 $189 $188 $187 $306 reversed $74 $-1 #
edge $-1 $445 -45.669118320261241 $446 45.669118320261241 $187 $447 forward 7 unknown #
edge $-1 $446 -8.7498292628150285 $313 -5.1502947159570907 $302 $448 forward 7 unknown #
coedge $-1 $443 $449 $189 $309 forward $450 $-1 #
edge $-1 $312 5.1502947159570907 $445 8.7498292628150285 $308 $451 forward 7 unknown #
coedge $-1 $452 $190 $449 $453 forward $300 $-1 #
coedge $-1 $190 $452 $439 $454 forward $300 $-1 #
vertex $-1 $309 $455 #
vertex $-1 $307 $456 #
straight-curve $-1 0 -25.345266571310116 5.1502947159570907 -1 0 0 I I #
face $-1 $457 $458 $44 $-1 $459 forward single #
loop $-1 $-1 $325 $192 #
plane-surface $-1 0 25.345266571310116 0 0 -1 0 0 0 -1 forward_v I I I I #
coedge $-1 $198 $460 $461 $462 forward $193 $-1 #
coedge $-1 $461 $195 $196 $324 reversed $121 $-1 #
coedge $-1 $195 $461 $463 $464 reversed $121 $-1 #
coedge $-1 $465 $466 $195 $322 forward $467 $-1 #
edge $-1 $468 2.1249146314075142 $469 5.1249146314075142 $321 $470 forward 7 unknown #
coedge $-1 $197 $196 $466 $471 reversed $77 $-1 #
edge $-1 $328 -45.669118320261241 $468 45.669118320261241 $319 $472 forward 7 unknown #
coedge $-1 $473 $474 $197 $326 forward $316 $-1 #
edge $-1 $329 -45.669118320261241 $475 45.669118320261241 $325 $476 forward 7 unknown #
coedge $-1 $460 $198 $474 $477 reversed $193 $-1 #
vertex $-1 $199 $478 #
vertex $-1 $326 $479 #
straight-curve $-1 45.669118320261241 10.265974949251829 5.7498292628150285 0 1 0 I I #
face $-1 $-1 $480 $45 $-1 $481 reversed single #
loop $-1 $-1 $482 $200 #
plane-surface $-1 0 15.7186332256972 7.2498292628150285 0 1 0 0 0 1 forward_v I I I I #
coedge $-1 $483 $203 $205 $340 forward $125 $-1 #
coedge $-1 $203 $483 $482 $484 forward $125 $-1 #
coedge $-1 $485 $206 $203 $337 forward $201 $-1 #
edge $-1 $343 2.5315259135114498 $486 9.6352468459609835 $336 $487 forward 7 unknown #
coedge $-1 $488 $489 $204 $339 forward $480 $-1 #
edge $-1 $490 -37.237633749627769 $342 -28.832439780619566 $338 $491 forward 7 unknown #
edge $-1 $343 -14.654008302981683 $490 8.6860152927662243e-015 $205 $492 forward 7 unknown #
coedge $-1 $206 $485 $488 $493 forward $201 $-1 #
vertex $-1 $339 $494 #
vertex $-1 $207 $495 #
straight-curve $-1 -49.029289635155472 8.6149122932476665 8.7498292628150267 1 0 0 I I #
coedge $-1 $345 $345 $-1 $496 reversed $210 $-1 #
edge $-1 $497 0 $497 6.2831853071796004 $211 $498 forward 7 unknown #
vertex $-1 $214 $499 #
ellipse-curve $-1 -39.667187928978692 10.644546845376102 4.5472322783109274 -0.57357644374324357 0 0.81915203911291934 0.40957601955645967 0 0.28678822187162178 1 I I #
coedge $-1 $349 $349 $-1 $500 reversed $217 $-1 #
edge $-1 $501 0 $501 6.2831853071796004 $218 $502 forward 7 unknown #
vertex $-1 $221 $503 #
ellipse-curve $-1 -39.667187928978692 13.688998673568758 4.5472322783109274 -0.57357644374324357 0 0.81915203911291934 0.40957601955645967 0 0.28678822187162178 1 I I #
face $-1 $-1 $365 $48 $-1 $504 forward single #
loop $-1 $-1 $505 $222 #
plane-surface $-1 45.669118320261241 0 0 -1 0 0 0 0 1 forward_v I I I I #
coedge $-1 $506 $507 $508 $509 reversed $223 $-1 #
coedge $-1 $510 $225 $227 $363 forward $139 $-1 #
coedge $-1 $225 $510 $506 $511 forward $139 $-1 #
coedge $-1 $508 $228 $225 $360 forward $365 $-1 #
edge $-1 $367 2.6145991696340065 $512 8.8990671287284986 $359 $513 forward 7 unknown #
coedge $-1 $514 $515 $226 $362 forward $354 $-1 #
edge $-1 $516 -63.023233502342819 $366 -57.320022351072765 $361 $517 forward 7 unknown #
edge $-1 $367 82.975736937531053 $516 91.338236640522496 $227 $518 forward 7 unknown #
coedge $-1 $228 $508 $514 $519 forward $365 $-1 #
loop $-1 $-1 $508 $353 #
vertex $-1 $362 $520 #
vertex $-1 $229 $521 #
straight-curve $-1 20.580544942462009 -8.3714323188152591 8.7498292628150267 -1 0 0 I I #
coedge $-1 $369 $369 $-1 $522 reversed $232 $-1 #
edge $-1 $523 0 $523 6.2831853071796004 $233 $524 forward 7 unknown #
vertex $-1 $236 $525 #
ellipse-curve $-1 42.611145795590659 -13.399006686090853 5.8982236871800025 0.68199836817093118 0 0.7313536940579346 0.3656768470289673 0 -0.34099918408546559 1 I I #
coedge $-1 $373 $373 $-1 $526 reversed $239 $-1 #
edge $-1 $527 0 $527 6.2831853071796004 $240 $528 forward 7 unknown #
vertex $-1 $243 $529 #
ellipse-curve $-1 42.611145795590659 -11.513666298362505 5.8982236871800025 0.68199836817093118 0 0.7313536940579346 0.3656768470289673 0 -0.34099918408546559 1 I I #
coedge $-1 $377 $377 $-1 $530 reversed $246 $-1 #
edge $-1 $531 0 $531 6.2831853071796004 $247 $532 forward 7 unknown #
vertex $-1 $250 $533 #
ellipse-curve $-1 42.611145795590659 -9.6283259106341568 5.8982236871800025 0.68199836817093118 0 0.7313536940579346 0.3656768470289673 0 -0.34099918408546559 1 I I #
face $-1 $-1 $393 $52 $-1 $534 forward single #
loop $-1 $-1 $535 $251 #
plane-surface $-1 45.669118320261241 0 0 -1 0 0 0 0 1 forward_v I I I I #
coedge $-1 $536 $537 $538 $539 reversed $252 $-1 #
coedge $-1 $540 $254 $256 $391 forward $158 $-1 #
coedge $-1 $254 $540 $536 $541 forward $158 $-1 #
coedge $-1 $538 $257 $254 $388 forward $393 $-1 #
edge $-1 $395 -4.9790342062677331 $542 1.3054337528267608 $387 $543 forward 7 unknown #
coedge $-1 $544 $545 $255 $390 forward $382 $-1 #
edge $-1 $546 -63.023233502342819 $394 -57.320022351072765 $389 $547 forward 7 unknown #
edge $-1 $395 82.975736937531053 $546 91.338236640522496 $256 $548 forward 7 unknown #
coedge $-1 $257 $538 $544 $549 forward $393 $-1 #
loop $-1 $-1 $538 $381 #
vertex $-1 $390 $550 #
vertex $-1 $258 $551 #
straight-curve $-1 20.580544942462009 6.8158344329882192 8.7498292628150267 -1 0 0 I I #
coedge $-1 $397 $397 $-1 $552 reversed $261 $-1 #
edge $-1 $553 0 $553 6.2831853071796004 $262 $554 forward 7 unknown #
vertex $-1 $265 $555 #
ellipse-curve $-1 42.611145795590659 1.788260065712624 5.8982236871800025 0.68199836817093118 0 0.7313536940579346 0.3656768470289673 0 -0.34099918408546559 1 I I #
coedge $-1 $401 $401 $-1 $556 reversed $268 $-1 #
edge $-1 $557 0 $557 6.2831853071796004 $269 $558 forward 7 unknown #
vertex $-1 $272 $559 #
ellipse-curve $-1 42.611145795590659 3.6736004534409723 5.8982236871800025 0.68199836817093118 0 0.7313536940579346 0.3656768470289673 0 -0.34099918408546559 1 I I #
coedge $-1 $405 $405 $-1 $560 reversed $275 $-1 #
edge $-1 $561 0 $561 6.2831853071796004 $276 $562 forward 7 unknown #
vertex $-1 $279 $563 #
ellipse-curve $-1 42.611145795590659 5.5589408411693206 5.8982236871800025 0.68199836817093118 0 0.7313536940579346 0.3656768470289673 0 -0.34099918408546559 1 I I #
face $-1 $-1 $295 $42 $-1 $564 reversed single #
loop $-1 $-1 $425 $280 #
plane-surface $-1 0 25.345266571310116 0 0 -1 0 0 0 -1 forward_v I I I I #
coedge $-1 $565 $423 $426 $566 forward $281 $-1 #
coedge $-1 $429 $283 $284 $417 reversed $177 $-1 #
coedge $-1 $423 $565 $283 $415 reversed $281 $-1 #
edge $-1 $430 -8.7498292628150285 $567 8.7498292628150285 $414 $568 forward 7 unknown #
coedge $-1 $285 $284 $565 $569 forward $113 $-1 #
edge $-1 $421 -45.669118320261241 $567 45.669118320261241 $413 $570 forward 7 unknown #
coedge $-1 $426 $425 $285 $419 reversed $410 $-1 #
edge $-1 $571 -45.669118320261241 $420 45.669118320261241 $418 $572 forward 7 unknown #
vertex $-1 $287 $573 #
vertex $-1 $432 $574 #
straight-curve $-1 45.669118320261241 0 -8.7498292628150285 0 -1 0 I I #
coedge $-1 $412 $414 $288 $424 reversed $281 $-1 #
edge $-1 $427 -25.345266571310116 $430 25.345266571310116 $423 $575 forward 7 unknown #
coedge $-1 $418 $289 $294 $433 forward $410 $-1 #
coedge $-1 $289 $418 $412 $566 reversed $410 $-1 #
vertex $-1 $290 $576 #
straight-curve $-1 0 25.345266571310116 8.7498292628150285 -1 0 0 I I #
coedge $-1 $291 $413 $293 $432 reversed $177 $-1 #
vertex $-1 $424 $577 #
straight-curve $-1 0 -25.345266571310116 8.7498292628150285 1 0 0 I I #
edge $-1 $296 -8.7498292628150285 $421 8.7498292628150285 $293 $578 forward 7 unknown #
edge $-1 $297 -8.7498292628150285 $420 8.7498292628150285 $294 $579 forward 7 unknown #
point $-1 45.669118320261241 -25.345266571310116 8.7498292628150285 #
point $-1 45.669118320261241 25.345266571310116 8.7498292628150285 #
face $-1 $-1 $450 $43 $-1 $580 reversed single #
loop $-1 $-1 $581 $299 #
plane-surface $-1 0 -36.034632864710481 6.9500619893860591 0 1 0 0 0 1 forward_v I I I I #
coedge $-1 $582 $302 $311 $454 reversed $185 $-1 #
coedge $-1 $302 $582 $303 $442 reversed $185 $-1 #
coedge $-1 $304 $303 $583 $584 forward $117 $-1 #
edge $-1 $446 25.345266571310116 $585 36.034632864710481 $440 $586 forward 7 unknown #
coedge $-1 $587 $308 $304 $444 reversed $450 $-1 #
edge $-1 $588 -36.034632864710481 $445 -25.345266571310116 $443 $589 forward 7 unknown #
vertex $-1 $309 $590 #
vertex $-1 $442 $591 #
straight-curve $-1 0 -25.345266571310116 8.7498292628150285 -1 0 0 I I #
straight-curve $-1 -45.669118320261241 -25.345266571310116 0 0 0 -1 I I #
coedge $-1 $308 $587 $310 $453 reversed $450 $-1 #
loop $-1 $-1 $308 $436 #
straight-curve $-1 45.669118320261241 -25.345266571310116 0 0 0 1 I I #
coedge $-1 $311 $310 $592 $593 forward $300 $-1 #
edge $-1 $312 -5.3446831467001807 $594 5.3446831467001843 $449 $595 forward 7 unknown #
edge $-1 $596 -5.3446831467001843 $313 5.3446831467001807 $439 $597 forward 7 unknown #
point $-1 45.669118320261241 -25.345266571310116 5.1502947159570907 #
point $-1 -45.669118320261241 -25.345266571310116 5.1502947159570907 #
face $-1 $-1 $467 $44 $-1 $598 reversed single #
loop $-1 $-1 $463 $315 #
plane-surface $-1 0 0 8.7498292628150285 0 0 1 1 0 0 forward_v I I I I #
coedge $-1 $318 $327 $599 $600 reversed $193 $-1 #
coedge $-1 $320 $319 $318 $462 reversed $121 $-1 #
edge $-1 $601 -5.1249146314075142 $328 -2.1249146314075142 $318 $602 forward 7 unknown #
coedge $-1 $599 $603 $320 $464 forward $458 $-1 #
edge $-1 $469 -45.669118320261241 $601 45.669118320261241 $463 $604 forward 7 unknown #
coedge $-1 $605 $321 $603 $606 reversed $467 $-1 #
coedge $-1 $321 $605 $323 $471 forward $467 $-1 #
loop $-1 $-1 $321 $457 #
vertex $-1 $471 $607 #
vertex $-1 $322 $608 #
straight-curve $-1 -45.669118320261241 15.7186332256972 3.6249146314075142 0 0 1 I I #
edge $-1 $475 -15.079291622058287 $468 -5.452658276445371 $466 $609 forward 7 unknown #
straight-curve $-1 0 15.7186332256972 5.7498292628150285 -1 0 0 I I #
coedge $-1 $610 $325 $605 $611 reversed $316 $-1 #
coedge $-1 $325 $610 $327 $477 forward $316 $-1 #
vertex $-1 $326 $612 #
straight-curve $-1 0 25.345266571310116 5.7498292628150285 -1 0 0 I I #
edge $-1 $613 -8.7498292628150285 $329 -5.7498292628150285 $327 $614 forward 7 unknown #
point $-1 45.669118320261241 15.7186332256972 5.7498292628150285 #
point $-1 45.669118320261241 25.345266571310116 5.7498292628150285 #
loop $-1 $-1 $338 $331 #
plane-surface $-1 -45.669118320261241 0 0 1 0 0 0 0 -1 forward_v I I I I #
coedge $-1 $615 $616 $335 $484 reversed $332 $-1 #
coedge $-1 $335 $334 $489 $617 reversed $125 $-1 #
edge $-1 $618 -8.6860152927662243e-015 $486 14.654008302981683 $482 $619 forward 7 unknown #
coedge $-1 $341 $336 $616 $620 forward $201 $-1 #
vertex $-1 $620 $621 #
straight-curve $-1 -33.665257537696135 6.0833863797362167 8.7498292628150303 0 1 0 I I #
coedge $-1 $622 $338 $341 $493 reversed $480 $-1 #
coedge $-1 $338 $622 $483 $617 forward $480 $-1 #
vertex $-1 $339 $623 #
straight-curve $-1 -45.669118320261241 8.6149122932476665 37.582269043434593 0 0 1 I I #
straight-curve $-1 -45.669118320261234 8.6149122932476665 0.34463529380683156 -0.81915203911291934 0 -0.57357644374324357 I I #
edge $-1 $624 -15.7186332256972 $342 -8.6149122932476665 $488 $625 forward 7 unknown #
point $-1 -45.669118320261241 8.6149122932476665 8.7498292628150285 #
point $-1 -33.665257537696135 8.6149122932476665 8.7498292628150285 #
edge $-1 $626 1 $626 0 $345 $-1 forward 7 unknown #
vertex $-1 $346 $627 #
ellipse-curve $-1 -39.093611485235449 10.644546845376102 3.7280802391980159 -0.57357644374324357 0 0.81915203911291934 0.40957601955645967 0 0.28678822187162178 1 I I #
point $-1 -39.257611909422238 10.644546845376102 4.8340205001825574 #
edge $-1 $628 1 $628 0 $349 $-1 forward 7 unknown #
vertex $-1 $350 $629 #
ellipse-curve $-1 -39.093611485235449 13.688998673568758 3.7280802391980159 -0.57357644374324357 0 0.81915203911291934 0.40957601955645967 0 0.28678822187162178 1 I I #
point $-1 -39.257611909422238 13.688998673568758 4.8340205001825574 #
plane-surface $-1 0 0 8.7498292628150285 0 0 1 1 0 0 forward_v I I I I #
coedge $-1 $515 $514 $507 $630 forward $354 $-1 #
coedge $-1 $507 $356 $358 $511 reversed $223 $-1 #
coedge $-1 $356 $506 $505 $630 reversed $223 $-1 #
coedge $-1 $364 $359 $356 $509 forward $365 $-1 #
edge $-1 $512 18.972628328458068 $631 25.088573377799232 $508 $632 forward 7 unknown #
coedge $-1 $358 $357 $515 $633 reversed $139 $-1 #
edge $-1 $634 -91.338236640522496 $512 -82.975736937531053 $506 $635 forward 7 unknown #
vertex $-1 $360 $636 #
straight-curve $-1 39.553173270920084 -5.7568331491812526 8.7498292628150267 0 -1 0 I I #
coedge $-1 $505 $361 $364 $519 reversed $354 $-1 #
coedge $-1 $361 $505 $510 $633 forward $354 $-1 #
vertex $-1 $362 $637 #
straight-curve $-1 45.669118320261241 -8.3714323188152591 66.069851613887792 0 0 1 I I #
straight-curve $-1 -21.13143845552267 -8.3714323188152591 65.339146451991667 0.7313536940579346 0 -0.68199836817093118 I I #
edge $-1 $631 -14.655900277909751 $366 -8.3714323188152591 $514 $638 forward 7 unknown #
point $-1 45.669118320261241 -8.3714323188152591 8.7498292628150285 #
point $-1 39.553173270920077 -8.3714323188152591 8.7498292628150267 #
edge $-1 $639 1 $639 0 $369 $-1 forward 7 unknown #
vertex $-1 $370 $640 #
ellipse-curve $-1 41.869807928910397 -13.399006686090853 5.1032361730665547 0.68199836817093118 0 0.7313536940579346 0.3656768470289673 0 -0.34099918408546559 1 I I #
point $-1 42.976822642619631 -13.399006686090853 5.5572245030945426 #
edge $-1 $641 1 $641 0 $373 $-1 forward 7 unknown #
vertex $-1 $374 $642 #
ellipse-curve $-1 41.869807928910397 -11.513666298362505 5.1032361730665547 0.68199836817093118 0 0.7313536940579346 0.3656768470289673 0 -0.34099918408546559 1 I I #
point $-1 42.976822642619631 -11.513666298362505 5.5572245030945426 #
edge $-1 $643 1 $643 0 $377 $-1 forward 7 unknown #
vertex $-1 $378 $644 #
ellipse-curve $-1 41.869807928910397 -9.6283259106341568 5.1032361730665547 0.68199836817093118 0 0.7313536940579346 0.3656768470289673 0 -0.34099918408546559 1 I I #
point $-1 42.976822642619631 -9.6283259106341568 5.5572245030945426 #
plane-surface $-1 0 0 8.7498292628150285 0 0 1 1 0 0 forward_v I I I I #
coedge $-1 $545 $544 $537 $645 forward $382 $-1 #
coedge $-1 $537 $384 $386 $541 reversed $252 $-1 #
coedge $-1 $384 $536 $535 $645 reversed $252 $-1 #
coedge $-1 $392 $387 $384 $539 forward $393 $-1 #
edge $-1 $542 18.972628328458068 $646 25.088573377799232 $538 $647 forward 7 unknown #
coedge $-1 $386 $385 $545 $648 reversed $158 $-1 #
edge $-1 $649 -91.338236640522496 $542 -82.975736937531053 $536 $650 forward 7 unknown #
vertex $-1 $388 $651 #
straight-curve $-1 39.553173270920084 1.8368002267204862 8.7498292628150267 0 -1 0 I I #
coedge $-1 $535 $389 $392 $549 reversed $382 $-1 #
coedge $-1 $389 $535 $540 $648 forward $382 $-1 #
vertex $-1 $390 $652 #
straight-curve $-1 45.669118320261241 6.8158344329882192 66.069851613887792 0 0 1 I I #
straight-curve $-1 -21.13143845552267 6.8158344329882192 65.339146451991667 0.7313536940579346 0 -0.68199836817093118 I I #
edge $-1 $646 0.53136647389372538 $394 6.8158344329882192 $544 $653 forward 7 unknown #
point $-1 45.669118320261241 6.8158344329882192 8.7498292628150285 #
point $-1 39.553173270920077 6.8158344329882192 8.7498292628150267 #
edge $-1 $654 1 $654 0 $397 $-1 forward 7 unknown #
vertex $-1 $398 $655 #
ellipse-curve $-1 41.869807928910397 1.788260065712624 5.1032361730665547 0.68199836817093118 0 0.7313536940579346 0.3656768470289673 0 -0.34099918408546559 1 I I #
point $-1 42.976822642619631 1.788260065712624 5.5572245030945426 #
edge $-1 $656 1 $656 0 $401 $-1 forward 7 unknown #
vertex $-1 $402 $657 #
ellipse-curve $-1 41.869807928910397 3.6736004534409723 5.1032361730665547 0.68199836817093118 0 0.7313536940579346 0.3656768470289673 0 -0.34099918408546559 1 I I #
point $-1 42.976822642619631 3.6736004534409723 5.5572245030945426 #
edge $-1 $658 1 $658 0 $405 $-1 forward 7 unknown #
vertex $-1 $406 $659 #
ellipse-curve $-1 41.869807928910397 5.5589408411693206 5.1032361730665547 0.68199836817093118 0 0.7313536940579346 0.3656768470289673 0 -0.34099918408546559 1 I I #
point $-1 42.976822642619631 5.5589408411693206 5.5572245030945426 #
plane-surface $-1 45.669118320261241 0 0 -1 0 0 0 0 1 forward_v I I I I #
coedge $-1 $414 $412 $416 $569 reversed $281 $-1 #
edge $-1 $427 -8.7498292628150285 $571 8.7498292628150285 $426 $660 forward 7 unknown #
vertex $-1 $569 $661 #
straight-curve $-1 -45.669118320261241 -25.345266571310116 0 0 0 -1 I I #
edge $-1 $567 -25.345266571310116 $571 25.345266571310116 $565 $662 forward 7 unknown #
straight-curve $-1 0 -25.345266571310116 -8.7498292628150285 -1 0 0 I I #
vertex $-1 $419 $663 #
straight-curve $-1 0 25.345266571310116 -8.7498292628150285 1 0 0 I I #
point $-1 45.669118320261241 25.345266571310116 -8.7498292628150285 #
point $-1 45.669118320261241 -25.345266571310116 -8.7498292628150285 #
straight-curve $-1 -45.669118320261241 0 8.7498292628150285 0 -1 0 I I #
point $-1 -45.669118320261241 25.345266571310116 8.7498292628150285 #
point $-1 -45.669118320261241 -25.345266571310116 8.7498292628150285 #
straight-curve $-1 45.669118320261241 -25.345266571310116 0 0 0 -1 I I #
straight-curve $-1 45.669118320261241 25.345266571310116 0 0 0 -1 I I #
plane-surface $-1 45.669118320261241 0 0 -1 0 0 0 0 1 forward_v I I I I #
coedge $-1 $592 $583 $582 $664 forward $437 $-1 #
coedge $-1 $440 $439 $581 $664 reversed $185 $-1 #
coedge $-1 $581 $665 $441 $584 reversed $437 $-1 #
edge $-1 $585 -45.669118320261241 $588 45.669118320261241 $583 $666 forward 7 unknown #
vertex $-1 $442 $667 #
straight-curve $-1 -45.669118320261241 0 8.7498292628150285 0 -1 0 I I #
coedge $-1 $449 $443 $665 $668 forward $450 $-1 #
vertex $-1 $444 $669 #
straight-curve $-1 45.669118320261241 0 8.7498292628150285 0 1 0 I I #
point $-1 45.669118320261241 -25.345266571310116 8.7498292628150285 #
point $-1 -45.669118320261241 -25.345266571310116 8.7498292628150285 #
coedge $-1 $665 $581 $452 $593 reversed $437 $-1 #
edge $-1 $594 -45.669118320261241 $596 45.669118320261241 $592 $670 forward 7 unknown #
vertex $-1 $668 $671 #
straight-curve $-1 45.669118320261241 -30.689949718010297 5.1502947159570907 0 -1 0 I I #
vertex $-1 $454 $672 #
straight-curve $-1 -45.669118320261241 -30.689949718010297 5.1502947159570907 0 1 0 I I #
plane-surface $-1 -45.669118320261241 0 0 1 0 0 0 0 -1 forward_v I I I I #
coedge $-1 $673 $463 $460 $600 forward $458 $-1 #
edge $-1 $601 15.7186332256972 $613 25.345266571310116 $460 $674 forward 7 unknown #
vertex $-1 $600 $675 #
straight-curve $-1 45.669118320261241 15.7186332256972 3.6249146314075142 0 0 -1 I I #
coedge $-1 $463 $673 $465 $606 forward $458 $-1 #
straight-curve $-1 0 15.7186332256972 8.7498292628150285 1 0 0 I I #
coedge $-1 $466 $465 $473 $611 forward $467 $-1 #
edge $-1 $676 -25.345266571310116 $469 -15.7186332256972 $465 $677 forward 7 unknown #
point $-1 -45.669118320261241 15.7186332256972 5.7498292628150285 #
point $-1 -45.669118320261241 15.7186332256972 8.7498292628150285 #
straight-curve $-1 -45.669118320261241 10.265974949251829 5.7498292628150285 0 -1 0 I I #
coedge $-1 $474 $473 $673 $678 reversed $316 $-1 #
edge $-1 $676 -8.7498292628150285 $475 -5.7498292628150285 $473 $679 forward 7 unknown #
point $-1 -45.669118320261241 25.345266571310116 5.7498292628150285 #
vertex $-1 $600 $680 #
straight-curve $-1 45.669118320261241 25.345266571310116 0 0 0 -1 I I #
coedge $-1 $616 $482 $622 $681 reversed $332 $-1 #
coedge $-1 $482 $615 $485 $620 reversed $332 $-1 #
edge $-1 $618 -9.6352468459609835 $490 -2.5315259135114498 $489 $682 forward 7 unknown #
vertex $-1 $681 $683 #
straight-curve $-1 -45.669118320261234 15.7186332256972 0.34463529380683156 0.81915203911291934 0 0.57357644374324357 I I #
edge $-1 $486 33.665257537696135 $624 45.669118320261241 $485 $684 forward 7 unknown #
point $-1 -33.665257537696135 15.7186332256972 8.7498292628150285 #
coedge $-1 $489 $488 $615 $681 forward $480 $-1 #
point $-1 -45.669118320261241 8.6149122932476665 0.34463529380682656 #
vertex $-1 $493 $685 #
straight-curve $-1 -45.669118320261241 0 8.7498292628150285 0 -1 0 I I #
vertex $-1 $496 $686 #
point $-1 -38.684035465678988 10.644546845376102 4.0148684610696375 #
vertex $-1 $500 $687 #
point $-1 -38.684035465678988 13.688998673568758 4.0148684610696375 #
edge $-1 $631 57.320022351072765 $634 63.023233502342819 $505 $688 forward 7 unknown #
vertex $-1 $519 $689 #
straight-curve $-1 20.580544942462009 -14.655900277909751 8.7498292628150267 1 0 0 I I #
edge $-1 $634 -8.8990671287284986 $516 -2.6145991696340065 $515 $690 forward 7 unknown #
vertex $-1 $633 $691 #
straight-curve $-1 -21.13143845552267 -14.655900277909751 65.339146451991667 -0.7313536940579346 0 0.68199836817093118 I I #
point $-1 39.553173270920077 -14.655900277909751 8.7498292628150267 #
point $-1 45.669118320261248 -8.3714323188152591 3.0466181115449729 #
straight-curve $-1 45.669118320261241 0 8.7498292628150285 0 1 0 I I #
vertex $-1 $522 $692 #
point $-1 42.235484775939369 -13.399006686090853 4.7622369889810896 #
vertex $-1 $526 $693 #
point $-1 42.235484775939369 -11.513666298362505 4.7622369889810896 #
vertex $-1 $530 $694 #
point $-1 42.235484775939369 -9.6283259106341568 4.7622369889810896 #
edge $-1 $646 57.320022351072765 $649 63.023233502342819 $535 $695 forward 7 unknown #
vertex $-1 $549 $696 #
straight-curve $-1 20.580544942462009 0.53136647389372538 8.7498292628150267 1 0 0 I I #
edge $-1 $649 -1.3054337528267608 $546 4.9790342062677331 $545 $697 forward 7 unknown #
vertex $-1 $648 $698 #
straight-curve $-1 -21.13143845552267 0.53136647389372538 65.339146451991667 -0.7313536940579346 0 0.68199836817093118 I I #
point $-1 39.553173270920077 0.53136647389372538 8.7498292628150267 #
point $-1 45.669118320261248 6.8158344329882192 3.0466181115449729 #
straight-curve $-1 45.669118320261241 0 8.7498292628150285 0 1 0 I I #
vertex $-1 $552 $699 #
point $-1 42.235484775939369 1.788260065712624 4.7622369889810896 #
vertex $-1 $556 $700 #
point $-1 42.235484775939369 3.6736004534409723 4.7622369889810896 #
vertex $-1 $560 $701 #
point $-1 42.235484775939369 5.5589408411693206 4.7622369889810896 #
straight-curve $-1 -45.669118320261241 25.345266571310116 0 0 0 -1 I I #
point $-1 -45.669118320261241 -25.345266571310116 -8.7498292628150285 #
straight-curve $-1 -45.669118320261241 0 -8.7498292628150285 0 1 0 I I #
point $-1 -45.669118320261241 25.345266571310116 -8.7498292628150285 #
edge $-1 $585 -1.7997672734289676 $596 1.7997672734289685 $582 $702 forward 7 unknown #
coedge $-1 $583 $592 $587 $668 reversed $437 $-1 #
straight-curve $-1 0 -36.034632864710481 8.7498292628150267 1 0 0 I I #
point $-1 -45.669118320261241 -36.034632864710481 8.7498292628150267 #
edge $-1 $588 -1.7997672734289676 $594 1.7997672734289685 $587 $703 forward 7 unknown #
point $-1 45.669118320261241 -36.034632864710481 8.7498292628150267 #
straight-curve $-1 0 -36.034632864710481 5.1502947159570907 -1 0 0 I I #
point $-1 45.669118320261241 -36.034632864710481 5.1502947159570907 #
point $-1 -45.669118320261241 -36.034632864710481 5.1502947159570907 #
coedge $-1 $603 $599 $610 $678 forward $458 $-1 #
straight-curve $-1 45.669118320261241 0 8.7498292628150285 0 1 0 I I #
point $-1 45.669118320261241 15.7186332256972 8.7498292628150285 #
vertex $-1 $678 $704 #
straight-curve $-1 -45.669118320261241 0 8.7498292628150285 0 -1 0 I I #
edge $-1 $613 -45.669118320261241 $676 45.669118320261241 $610 $705 forward 7 unknown #
straight-curve $-1 -45.669118320261241 25.345266571310116 0 0 0 -1 I I #
point $-1 45.669118320261241 25.345266571310116 8.7498292628150285 #
edge $-1 $624 28.832439780619566 $618 37.237633749627769 $622 $706 forward 7 unknown #
straight-curve $-1 -45.669118320261241 6.0833863797362167 0.3446352938068224 0 -1 0 I I #
point $-1 -45.669118320261241 15.7186332256972 0.34463529380682656 #
straight-curve $-1 0 15.7186332256972 8.7498292628150285 -1 0 0 I I #
point $-1 -45.669118320261241 15.7186332256972 8.7498292628150285 #
point $-1 -38.806823263363832 10.644546845376102 3.318504219641556 #
point $-1 -38.806823263363832 13.688998673568758 3.318504219641556 #
straight-curve $-1 45.669118320261241 -14.655900277909751 66.069851613887792 0 0 -1 I I #
point $-1 45.669118320261241 -14.655900277909751 8.7498292628150285 #
straight-curve $-1 45.669118320261234 -5.7568331491812526 3.04661811154498 0 1 0 I I #
point $-1 45.669118320261248 -14.655900277909751 3.0466181115449729 #
point $-1 41.528808744824936 -13.399006686090853 4.7375593260375881 #
point $-1 41.528808744824936 -11.513666298362505 4.7375593260375881 #
point $-1 41.528808744824936 -9.6283259106341568 4.7375593260375881 #
straight-curve $-1 45.669118320261241 0.53136647389372538 66.069851613887792 0 0 -1 I I #
point $-1 45.669118320261241 0.53136647389372538 8.7498292628150285 #
straight-curve $-1 45.669118320261234 1.8368002267204862 3.04661811154498 0 1 0 I I #
point $-1 45.669118320261248 0.53136647389372538 3.0466181115449729 #
point $-1 41.528808744824936 1.788260065712624 4.7375593260375881 #
point $-1 41.528808744824936 3.6736004534409723 4.7375593260375881 #
point $-1 41.528808744824936 5.5589408411693206 4.7375593260375881 #
straight-curve $-1 -45.669118320261241 -36.034632864710481 6.9500619893860591 0 0 -1 I I #
straight-curve $-1 45.669118320261241 -36.034632864710481 6.9500619893860591 0 0 -1 I I #
point $-1 -45.669118320261241 25.345266571310116 8.7498292628150285 #
straight-curve $-1 0 25.345266571310116 8.7498292628150285 -1 0 0 I I #
straight-curve $-1 -45.669118320261241 15.7186332256972 37.582269043434593 0 0 -1 I I #
End-of-ACIS-data 