500 0 10 0           
7 Unknown 11 ACIS 5.0 NT 24 Fri Mar 26 17:32:01 1999 
-1 9.9999999999999995e-007 1e-010 
body $-1 $10 $-1 $11 #
body $-1 $12 $-1 $13 #
body $-1 $14 $-1 $15 #
body $-1 $16 $-1 $17 #
body $-1 $18 $-1 $19 #
body $-1 $20 $-1 $21 #
body $-1 $22 $-1 $23 #
body $-1 $24 $-1 $25 #
body $-1 $26 $-1 $27 #
body $-1 $28 $-1 $29 #
lump $-1 $-1 $30 $0 #
transform $-1 1 0 0 0 1 0 0 0 1 41.463667714468826 18.721224963178823 5.5052411040133631 1 rotate no_reflect no_shear #
lump $-1 $-1 $31 $1 #
transform $-1 1 0 0 0 1 0 0 0 1 41.463667714468826 18.721224963178823 5.5052411040133631 1 rotate no_reflect no_shear #
lump $-1 $-1 $32 $2 #
transform $-1 1 0 0 0 1 0 0 0 1 41.463667714468826 18.721224963178823 5.5052411040133631 1 rotate no_reflect no_shear #
lump $-1 $-1 $33 $3 #
transform $-1 1 0 0 0 1 0 0 0 1 41.463667714468826 18.721224963178823 5.5052411040133631 1 rotate no_reflect no_shear #
lump $-1 $-1 $34 $4 #
transform $-1 1 0 0 0 1 0 0 0 1 41.463667714468826 18.721224963178823 5.5052411040133631 1 rotate no_reflect no_shear #
lump $-1 $-1 $35 $5 #
transform $-1 1 0 0 0 1 0 0 0 1 41.463667714468826 18.721224963178823 5.5052411040133631 1 rotate no_reflect no_shear #
lump $-1 $-1 $36 $6 #
transform $-1 1 0 0 0 1 0 0 0 1 41.463667714468826 18.721224963178823 5.5052411040133631 1 rotate no_reflect no_shear #
lump $-1 $-1 $37 $7 #
transform $-1 1 0 0 0 1 0 0 0 1 41.463667714468826 18.721224963178823 5.5052411040133631 1 rotate no_reflect no_shear #
lump $-1 $-1 $38 $8 #
transform $-1 1 0 0 0 1 0 0 0 1 41.463667714468826 18.721224963178823 5.5052411040133631 1 rotate no_reflect no_shear #
lump $-1 $-1 $39 $9 #
transform $-1 1 0 0 0 1 0 0 0 1 41.463667714468826 18.721224963178823 5.5052411040133631 1 rotate no_reflect no_shear #
shell $-1 $-1 $-1 $40 $-1 $10 #
shell $-1 $-1 $-1 $41 $-1 $12 #
shell $-1 $-1 $-1 $42 $-1 $14 #
shell $-1 $-1 $-1 $43 $-1 $16 #
shell $-1 $-1 $-1 $44 $-1 $18 #
shell $-1 $-1 $-1 $45 $-1 $20 #
shell $-1 $-1 $-1 $46 $-1 $22 #
shell $-1 $-1 $-1 $47 $-1 $24 #
shell $-1 $-1 $-1 $48 $-1 $26 #
shell $-1 $-1 $-1 $49 $-1 $28 #
face $-1 $50 $51 $30 $-1 $52 forward single #
face $-1 $53 $54 $31 $-1 $55 reversed single #
face $-1 $56 $57 $32 $-1 $58 reversed single #
face $-1 $59 $60 $33 $-1 $61 forward single #
face $-1 $62 $63 $34 $-1 $64 forward single #
face $-1 $65 $66 $35 $-1 $67 forward single #
face $-1 $68 $69 $36 $-1 $70 reversed single #
face $-1 $71 $72 $37 $-1 $73 forward single #
face $-1 $74 $75 $38 $-1 $76 forward single #
face $-1 $77 $78 $39 $-1 $79 forward single #
face $-1 $80 $81 $30 $-1 $82 reversed single #
loop $-1 $-1 $83 $40 #
plane-surface $-1 0 0 5.5052411040133631 0 0 1 1 0 0 forward_v I I I I #
face $-1 $84 $85 $31 $-1 $86 reversed single #
loop $-1 $-1 $87 $41 #
plane-surface $-1 0 -16.45928105510842 2.5052411040133631 0 0 1 1 0 0 forward_v I I I I #
face $-1 $88 $89 $32 $-1 $90 reversed single #
loop $-1 $-1 $91 $42 #
plane-surface $-1 35.325867007372494 -7.5656219436565486 117.26616917639369 0 -1 0 -0.66913061440640931 0 -0.74314481823134659 forward_v I I I I #
face $-1 $92 $93 $33 $-1 $94 forward single #
loop $-1 $95 $96 $43 #
cone-surface $-1 37.961128973513475 -12.870994106361721 2.2404034974173364 -0.66913061440640931 0 -0.74314481823134659 0.3715724091156733 0 -0.33456530720320465 1 I I 0 1 0.5 forward I I I I #
face $-1 $97 $98 $34 $-1 $99 forward single #
loop $-1 $100 $101 $44 #
cone-surface $-1 37.961128973513475 -10.881479545347283 2.2404034974173364 -0.66913061440640931 0 -0.74314481823134659 0.3715724091156733 0 -0.33456530720320465 1 I I 0 1 0.5 forward I I I I #
face $-1 $102 $103 $35 $-1 $104 forward single #
loop $-1 $105 $106 $45 #
cone-surface $-1 37.961128973513475 -8.8919649843328425 2.2404034974173364 -0.66913061440640931 0 -0.74314481823134659 0.3715724091156733 0 -0.33456530720320465 1 I I 0 1 0.5 forward I I I I #
face $-1 $107 $108 $36 $-1 $109 reversed single #
loop $-1 $-1 $110 $46 #
plane-surface $-1 -41.463667714468826 -10.881479545347281 0.14993065599445998 -0.66913061440640931 0 0.74314481823134659 0.74314481823134659 0 0.66913061440640931 forward_v I I I I #
face $-1 $111 $112 $37 $-1 $113 forward single #
loop $-1 $114 $115 $47 #
cone-surface $-1 -37.961128973513468 -12.870994106361721 2.2404034974173381 0.66913061440640931 0 -0.74314481823134659 0.3715724091156733 0 0.33456530720320465 1 I I 0 1 0.5 forward I I I I #
face $-1 $116 $117 $38 $-1 $118 forward single #
loop $-1 $119 $120 $48 #
cone-surface $-1 -37.961128973513468 -10.881479545347283 2.2404034974173381 0.66913061440640931 0 -0.74314481823134659 0.3715724091156733 0 0.33456530720320465 1 I I 0 1 0.5 forward I I I I #
face $-1 $121 $122 $39 $-1 $123 forward single #
loop $-1 $124 $125 $49 #
cone-surface $-1 -37.961128973513468 -8.8919649843328425 2.2404034974173381 0.66913061440640931 0 -0.74314481823134659 0.3715724091156733 0 0.33456530720320465 1 I I 0 1 0.5 forward I I I I #
face $-1 $126 $127 $30 $-1 $128 reversed single #
loop $-1 $-1 $129 $50 #
plane-surface $-1 0 0 -5.5052411040133631 0 0 1 1 0 0 forward_v I I I I #
coedge $-1 $130 $131 $132 $133 forward $51 $-1 #
face $-1 $134 $135 $31 $-1 $136 reversed single #
loop $-1 $-1 $137 $53 #
plane-surface $-1 0 -14.197337147038015 4.0052411040133631 0 -1 0 0 0 -1 forward_v I I I I #
coedge $-1 $138 $139 $140 $141 reversed $54 $-1 #
face $-1 $142 $143 $32 $-1 $144 forward single #
loop $-1 $-1 $145 $56 #
plane-surface $-1 -20.16335189927895 -10.881479545347281 55.639149562645905 0.66913061440640931 0 0.74314481823134659 0.74314481823134659 0 -0.66913061440640931 forward_v I I I I #
coedge $-1 $146 $147 $148 $149 reversed $57 $-1 #
face $-1 $-1 $150 $33 $-1 $151 forward single #
loop $-1 $152 $153 $59 #
cone-surface $-1 37.265144916376741 -12.870994106361721 1.4674349102729298 -0.66913061440640931 0 -0.74314481823134659 0.18578620455783665 0 -0.16728265360160233 1 I I -0.70710678118654779 0.70710678118654713 0.25 forward I I I I #
loop $-1 $-1 $154 $43 #
coedge $-1 $96 $96 $155 $156 reversed $60 $-1 #
face $-1 $-1 $157 $34 $-1 $158 forward single #
loop $-1 $159 $160 $62 #
cone-surface $-1 37.265144916376741 -10.881479545347283 1.4674349102729298 -0.66913061440640931 0 -0.74314481823134659 0.18578620455783665 0 -0.16728265360160233 1 I I -0.70710678118654779 0.70710678118654713 0.25 forward I I I I #
loop $-1 $-1 $161 $44 #
coedge $-1 $101 $101 $162 $163 reversed $63 $-1 #
face $-1 $-1 $164 $35 $-1 $165 forward single #
loop $-1 $166 $167 $65 #
cone-surface $-1 37.265144916376741 -8.8919649843328425 1.4674349102729298 -0.66913061440640931 0 -0.74314481823134659 0.18578620455783665 0 -0.16728265360160233 1 I I -0.70710678118654779 0.70710678118654713 0.25 forward I I I I #
loop $-1 $-1 $168 $45 #
coedge $-1 $106 $106 $169 $170 reversed $66 $-1 #
face $-1 $171 $172 $36 $-1 $173 forward single #
loop $-1 $-1 $174 $68 #
plane-surface $-1 -96.952886621120271 -7.5656219436565486 61.776950269742244 0 -1 0 0.66913061440640931 0 -0.74314481823134659 forward_v I I I I #
coedge $-1 $175 $176 $177 $178 reversed $69 $-1 #
face $-1 $-1 $179 $37 $-1 $180 forward single #
loop $-1 $181 $182 $71 #
cone-surface $-1 -37.265144916376734 -12.870994106361721 1.4674349102729316 0.66913061440640931 0 -0.74314481823134659 0.18578620455783665 0 0.16728265360160233 1 I I -0.70710678118654779 0.70710678118654713 0.25 forward I I I I #
loop $-1 $-1 $183 $47 #
coedge $-1 $115 $115 $184 $185 reversed $72 $-1 #
face $-1 $-1 $186 $38 $-1 $187 forward single #
loop $-1 $188 $189 $74 #
cone-surface $-1 -37.265144916376734 -10.881479545347283 1.4674349102729316 0.66913061440640931 0 -0.74314481823134659 0.18578620455783665 0 0.16728265360160233 1 I I -0.70710678118654779 0.70710678118654713 0.25 forward I I I I #
loop $-1 $-1 $190 $48 #
coedge $-1 $120 $120 $191 $192 reversed $75 $-1 #
face $-1 $-1 $193 $39 $-1 $194 forward single #
loop $-1 $195 $196 $77 #
cone-surface $-1 -37.265144916376734 -8.8919649843328425 1.4674349102729316 0.66913061440640931 0 -0.74314481823134659 0.18578620455783665 0 0.16728265360160233 1 I I -0.70710678118654779 0.70710678118654713 0.25 forward I I I I #
loop $-1 $-1 $197 $49 #
coedge $-1 $125 $125 $198 $199 reversed $78 $-1 #
face $-1 $200 $201 $30 $-1 $202 reversed single #
loop $-1 $-1 $203 $80 #
plane-surface $-1 0 -18.721224963178823 0 0 1 0 0 0 1 forward_v I I I I #
coedge $-1 $204 $205 $206 $207 forward $81 $-1 #
coedge $-1 $208 $83 $209 $210 forward $51 $-1 #
coedge $-1 $83 $208 $211 $212 forward $51 $-1 #
coedge $-1 $213 $214 $83 $133 reversed $215 $-1 #
edge $-1 $216 -18.721224963178823 $217 18.721224963178823 $132 $218 forward 7 unknown #
face $-1 $219 $220 $31 $-1 $221 reversed single #
loop $-1 $-1 $222 $84 #
plane-surface $-1 -41.463667714468826 0 0 1 0 0 0 0 -1 forward_v I I I I #
coedge $-1 $223 $224 $225 $226 reversed $85 $-1 #
coedge $-1 $227 $87 $228 $229 reversed $54 $-1 #
coedge $-1 $87 $227 $230 $231 forward $54 $-1 #
coedge $-1 $232 $233 $87 $141 forward $234 $-1 #
edge $-1 $235 -10.491584435624613 $236 -5.9676966194838048 $140 $237 forward 7 unknown #
face $-1 $238 $239 $32 $-1 $240 forward single #
loop $-1 $-1 $241 $88 #
plane-surface $-1 0 -14.197337147038015 4.0052411040133631 0 -1 0 0 0 -1 forward_v I I I I #
coedge $-1 $242 $243 $244 $245 reversed $89 $-1 #
coedge $-1 $147 $91 $246 $247 reversed $57 $-1 #
coedge $-1 $91 $146 $242 $248 reversed $57 $-1 #
coedge $-1 $244 $249 $91 $149 forward $239 $-1 #
edge $-1 $250 -23.800734210782579 $251 -17.853059535942123 $148 $252 forward 7 unknown #
loop $-1 $-1 $155 $92 #
plane-surface $-1 -20.16335189927895 -10.881479545347281 55.639149562645905 0.66913061440640931 0 0.74314481823134659 0.74314481823134659 0 -0.66913061440640931 forward_v I I I I #
loop $-1 $-1 $253 $59 #
coedge $-1 $153 $153 $154 $254 reversed $93 $-1 #
coedge $-1 $154 $154 $153 $254 forward $95 $-1 #
coedge $-1 $155 $155 $96 $156 forward $150 $-1 #
edge $-1 $255 0 $255 6.2831853071796004 $155 $256 forward 7 unknown #
loop $-1 $-1 $162 $97 #
plane-surface $-1 -20.16335189927895 -10.881479545347281 55.639149562645905 0.66913061440640931 0 0.74314481823134659 0.74314481823134659 0 -0.66913061440640931 forward_v I I I I #
loop $-1 $-1 $257 $62 #
coedge $-1 $160 $160 $161 $258 reversed $98 $-1 #
coedge $-1 $161 $161 $160 $258 forward $100 $-1 #
coedge $-1 $162 $162 $101 $163 forward $157 $-1 #
edge $-1 $259 0 $259 6.2831853071796004 $162 $260 forward 7 unknown #
loop $-1 $-1 $169 $102 #
plane-surface $-1 -20.16335189927895 -10.881479545347281 55.639149562645905 0.66913061440640931 0 0.74314481823134659 0.74314481823134659 0 -0.66913061440640931 forward_v I I I I #
loop $-1 $-1 $261 $65 #
coedge $-1 $167 $167 $168 $262 reversed $103 $-1 #
coedge $-1 $168 $168 $167 $262 forward $105 $-1 #
coedge $-1 $169 $169 $106 $170 forward $164 $-1 #
edge $-1 $263 0 $263 6.2831853071796004 $169 $264 forward 7 unknown #
face $-1 $265 $266 $36 $-1 $267 reversed single #
loop $-1 $-1 $177 $107 #
plane-surface $-1 0 0 5.5052411040133631 0 0 1 1 0 0 forward_v I I I I #
coedge $-1 $268 $269 $270 $271 reversed $108 $-1 #
coedge $-1 $272 $110 $273 $274 reversed $69 $-1 #
coedge $-1 $110 $272 $268 $275 forward $69 $-1 #
coedge $-1 $270 $276 $110 $178 forward $172 $-1 #
edge $-1 $277 -8.7565973743643717 $278 -2.1248821709829082 $177 $279 forward 7 unknown #
loop $-1 $-1 $184 $111 #
plane-surface $-1 -41.463667714468826 -10.881479545347281 0.14993065599445998 -0.66913061440640931 0 0.74314481823134659 0.74314481823134659 0 0.66913061440640931 forward_v I I I I #
loop $-1 $-1 $280 $71 #
coedge $-1 $182 $182 $183 $281 reversed $112 $-1 #
coedge $-1 $183 $183 $182 $281 forward $114 $-1 #
coedge $-1 $184 $184 $115 $185 forward $179 $-1 #
edge $-1 $282 0 $282 6.2831853071796004 $184 $283 forward 7 unknown #
loop $-1 $-1 $191 $116 #
plane-surface $-1 -41.463667714468826 -10.881479545347281 0.14993065599445998 -0.66913061440640931 0 0.74314481823134659 0.74314481823134659 0 0.66913061440640931 forward_v I I I I #
loop $-1 $-1 $284 $74 #
coedge $-1 $189 $189 $190 $285 reversed $117 $-1 #
coedge $-1 $190 $190 $189 $285 forward $119 $-1 #
coedge $-1 $191 $191 $120 $192 forward $186 $-1 #
edge $-1 $286 0 $286 6.2831853071796004 $191 $287 forward 7 unknown #
loop $-1 $-1 $198 $121 #
plane-surface $-1 -41.463667714468826 -10.881479545347281 0.14993065599445998 -0.66913061440640931 0 0.74314481823134659 0.74314481823134659 0 0.66913061440640931 forward_v I I I I #
loop $-1 $-1 $288 $77 #
coedge $-1 $196 $196 $197 $289 reversed $122 $-1 #
coedge $-1 $197 $197 $196 $289 forward $124 $-1 #
coedge $-1 $198 $198 $125 $199 forward $193 $-1 #
edge $-1 $290 0 $290 6.2831853071796004 $198 $291 forward 7 unknown #
face $-1 $292 $293 $30 $-1 $294 reversed single #
loop $-1 $-1 $295 $126 #
plane-surface $-1 -41.463667714468826 0 0 1 0 0 0 0 -1 forward_v I I I I #
coedge $-1 $296 $211 $297 $298 forward $127 $-1 #
coedge $-1 $299 $129 $296 $300 forward $81 $-1 #
coedge $-1 $129 $299 $301 $302 forward $81 $-1 #
coedge $-1 $214 $213 $129 $207 reversed $215 $-1 #
edge $-1 $303 -18.721224963178823 $304 18.721224963178823 $206 $305 forward 7 unknown #
coedge $-1 $131 $130 $306 $307 forward $51 $-1 #
coedge $-1 $308 $309 $130 $210 reversed $293 $-1 #
edge $-1 $217 -41.463667714468826 $310 41.463667714468826 $209 $311 forward 7 unknown #
coedge $-1 $203 $312 $131 $212 reversed $127 $-1 #
edge $-1 $313 -41.463667714468826 $216 41.463667714468826 $211 $314 forward 7 unknown #
coedge $-1 $206 $132 $312 $315 forward $215 $-1 #
coedge $-1 $132 $206 $308 $316 reversed $215 $-1 #
loop $-1 $-1 $213 $292 #
vertex $-1 $133 $317 #
vertex $-1 $133 $318 #
straight-curve $-1 41.463667714468826 0 5.5052411040133631 0 1 0 I I #
face $-1 $319 $320 $31 $-1 $321 forward single #
loop $-1 $-1 $228 $134 #
plane-surface $-1 0 -18.721224963178823 0 0 1 0 0 0 1 forward_v I I I I #
coedge $-1 $322 $323 $224 $324 forward $135 $-1 #
coedge $-1 $230 $137 $232 $325 reversed $85 $-1 #
coedge $-1 $137 $230 $222 $324 reversed $85 $-1 #
coedge $-1 $326 $327 $137 $226 forward $320 $-1 #
edge $-1 $328 -41.463667714468826 $329 41.463667714468826 $225 $330 forward 7 unknown #
coedge $-1 $139 $138 $322 $331 reversed $54 $-1 #
coedge $-1 $332 $333 $138 $229 forward $220 $-1 #
edge $-1 $334 -41.463667714468826 $235 41.463667714468826 $228 $335 forward 7 unknown #
coedge $-1 $224 $223 $139 $231 reversed $85 $-1 #
edge $-1 $336 -41.463667714468826 $236 41.463667714468826 $230 $337 forward 7 unknown #
coedge $-1 $338 $140 $223 $325 forward $234 $-1 #
coedge $-1 $140 $338 $332 $339 forward $234 $-1 #
loop $-1 $-1 $232 $319 #
vertex $-1 $229 $340 #
vertex $-1 $141 $341 #
straight-curve $-1 41.463667714468826 -8.2296405275542099 2.5052411040133631 0 1 0 I I #
face $-1 $-1 $342 $32 $-1 $343 reversed single #
loop $-1 $-1 $244 $142 #
plane-surface $-1 0 0 5.5052411040133631 0 0 1 1 0 0 forward_v I I I I #
coedge $-1 $344 $345 $243 $346 reversed $143 $-1 #
coedge $-1 $347 $145 $147 $248 forward $89 $-1 #
coedge $-1 $145 $347 $241 $346 forward $89 $-1 #
coedge $-1 $348 $148 $145 $245 forward $239 $-1 #
edge $-1 $251 2.1248821709829082 $349 8.7565973743643752 $244 $350 forward 7 unknown #
coedge $-1 $351 $352 $146 $247 forward $342 $-1 #
edge $-1 $353 -58.483153932202384 $250 -53.127843484183479 $246 $354 forward 7 unknown #
edge $-1 $251 74.923949643384205 $353 82.927335428937653 $147 $355 forward 7 unknown #
coedge $-1 $148 $348 $351 $356 forward $239 $-1 #
vertex $-1 $247 $357 #
vertex $-1 $149 $358 #
straight-curve $-1 17.662933503686247 -7.5656219436565486 5.5052411040133649 -1 0 0 I I #
coedge $-1 $253 $253 $-1 $359 reversed $152 $-1 #
edge $-1 $360 0 $360 6.2831853071796004 $153 $361 forward 7 unknown #
vertex $-1 $156 $362 #
ellipse-curve $-1 38.489830377048605 -12.870994106361721 2.8275858800039049 0.66913061440640931 0 0.74314481823134659 0.3715724091156733 0 -0.33456530720320465 1 I I #
coedge $-1 $257 $257 $-1 $363 reversed $159 $-1 #
edge $-1 $364 0 $364 6.2831853071796004 $160 $365 forward 7 unknown #
vertex $-1 $163 $366 #
ellipse-curve $-1 38.489830377048605 -10.881479545347283 2.8275858800039049 0.66913061440640931 0 0.74314481823134659 0.3715724091156733 0 -0.33456530720320465 1 I I #
coedge $-1 $261 $261 $-1 $367 reversed $166 $-1 #
edge $-1 $368 0 $368 6.2831853071796004 $167 $369 forward 7 unknown #
vertex $-1 $170 $370 #
ellipse-curve $-1 38.489830377048605 -8.8919649843328425 2.8275858800039049 0.66913061440640931 0 0.74314481823134659 0.3715724091156733 0 -0.33456530720320465 1 I I #
face $-1 $-1 $371 $36 $-1 $372 forward single #
loop $-1 $-1 $373 $171 #
plane-surface $-1 -41.463667714468826 0 0 1 0 0 0 0 -1 forward_v I I I I #
coedge $-1 $269 $174 $176 $275 reversed $108 $-1 #
coedge $-1 $174 $268 $373 $374 reversed $108 $-1 #
coedge $-1 $375 $177 $174 $271 forward $172 $-1 #
edge $-1 $278 -12.960450270931773 $376 -7.0127755960913092 $270 $377 forward 7 unknown #
coedge $-1 $176 $175 $378 $379 reversed $69 $-1 #
coedge $-1 $380 $381 $175 $274 forward $371 $-1 #
edge $-1 $382 -16.696608027842114 $277 -8.6932222422886642 $273 $383 forward 7 unknown #
edge $-1 $384 0 $278 8.0033857855534514 $268 $385 forward 7 unknown #
coedge $-1 $177 $375 $380 $386 forward $172 $-1 #
vertex $-1 $274 $387 #
vertex $-1 $178 $388 #
straight-curve $-1 -35.515993039628363 -5.4407397726736404 5.5052411040133622 0 1 0 I I #
coedge $-1 $280 $280 $-1 $389 reversed $181 $-1 #
edge $-1 $390 0 $390 6.2831853071796004 $182 $391 forward 7 unknown #
vertex $-1 $185 $392 #
ellipse-curve $-1 -38.489830377048598 -12.870994106361721 2.8275858800039098 -0.66913061440640931 0 0.74314481823134659 0.3715724091156733 0 0.33456530720320465 1 I I #
coedge $-1 $284 $284 $-1 $393 reversed $188 $-1 #
edge $-1 $394 0 $394 6.2831853071796004 $189 $395 forward 7 unknown #
vertex $-1 $192 $396 #
ellipse-curve $-1 -38.489830377048598 -10.881479545347283 2.8275858800039098 -0.66913061440640931 0 0.74314481823134659 0.3715724091156733 0 0.33456530720320465 1 I I #
coedge $-1 $288 $288 $-1 $397 reversed $195 $-1 #
edge $-1 $398 0 $398 6.2831853071796004 $196 $399 forward 7 unknown #
vertex $-1 $199 $400 #
ellipse-curve $-1 -38.489830377048598 -8.8919649843328425 2.8275858800039098 -0.66913061440640931 0 0.74314481823134659 0.3715724091156733 0 0.33456530720320465 1 I I #
face $-1 $-1 $215 $30 $-1 $401 reversed single #
loop $-1 $-1 $308 $200 #
plane-surface $-1 0 18.721224963178823 0 0 -1 0 0 0 -1 forward_v I I I I #
coedge $-1 $402 $306 $309 $403 forward $201 $-1 #
coedge $-1 $312 $203 $204 $300 reversed $127 $-1 #
coedge $-1 $306 $402 $203 $298 reversed $201 $-1 #
edge $-1 $313 -5.5052411040133631 $404 5.5052411040133631 $297 $405 forward 7 unknown #
coedge $-1 $205 $204 $402 $406 forward $81 $-1 #
edge $-1 $304 -41.463667714468826 $404 41.463667714468826 $296 $407 forward 7 unknown #
coedge $-1 $309 $308 $205 $302 reversed $293 $-1 #
edge $-1 $408 -41.463667714468826 $303 41.463667714468826 $301 $409 forward 7 unknown #
vertex $-1 $207 $410 #
vertex $-1 $315 $411 #
straight-curve $-1 41.463667714468826 0 -5.5052411040133631 0 -1 0 I I #
coedge $-1 $295 $297 $208 $307 reversed $201 $-1 #
edge $-1 $310 -18.721224963178823 $313 18.721224963178823 $306 $412 forward 7 unknown #
coedge $-1 $301 $209 $214 $316 forward $293 $-1 #
coedge $-1 $209 $301 $295 $403 reversed $293 $-1 #
vertex $-1 $210 $413 #
straight-curve $-1 0 18.721224963178823 5.5052411040133631 -1 0 0 I I #
coedge $-1 $211 $296 $213 $315 reversed $127 $-1 #
vertex $-1 $307 $414 #
straight-curve $-1 0 -18.721224963178823 5.5052411040133631 1 0 0 I I #
edge $-1 $216 -5.5052411040133631 $304 5.5052411040133631 $213 $415 forward 7 unknown #
edge $-1 $217 -5.5052411040133631 $303 5.5052411040133631 $214 $416 forward 7 unknown #
point $-1 41.463667714468826 -18.721224963178823 5.5052411040133631 #
point $-1 41.463667714468826 18.721224963178823 5.5052411040133631 #
face $-1 $-1 $234 $31 $-1 $417 reversed single #
loop $-1 $-1 $225 $219 #
plane-surface $-1 0 0 5.5052411040133631 0 0 1 1 0 0 forward_v I I I I #
coedge $-1 $418 $222 $227 $331 forward $135 $-1 #
coedge $-1 $222 $418 $326 $419 reversed $135 $-1 #
edge $-1 $329 -3.5026205520066815 $336 -0.50262055200668154 $222 $420 forward 7 unknown #
edge $-1 $236 0.50262055200668154 $328 3.5026205520066815 $232 $421 forward 7 unknown #
coedge $-1 $422 $225 $323 $419 forward $320 $-1 #
coedge $-1 $225 $422 $338 $423 forward $320 $-1 #
vertex $-1 $325 $424 #
vertex $-1 $419 $425 #
straight-curve $-1 0 -14.197337147038015 5.5052411040133631 -1 0 0 I I #
edge $-1 $336 5.9676966194838048 $334 10.491584435624613 $322 $426 forward 7 unknown #
coedge $-1 $427 $228 $233 $339 reversed $220 $-1 #
coedge $-1 $228 $427 $418 $428 forward $220 $-1 #
vertex $-1 $229 $429 #
straight-curve $-1 0 -18.721224963178823 2.5052411040133631 1 0 0 I I #
vertex $-1 $331 $430 #
straight-curve $-1 0 -14.197337147038015 2.5052411040133631 1 0 0 I I #
coedge $-1 $233 $232 $327 $423 reversed $234 $-1 #
edge $-1 $431 -5.5052411040133631 $235 -2.5052411040133631 $233 $432 forward 7 unknown #
point $-1 41.463667714468826 -18.721224963178823 2.5052411040133631 #
point $-1 41.463667714468826 -14.197337147038015 2.5052411040133631 #
loop $-1 $-1 $246 $238 #
plane-surface $-1 41.463667714468826 0 0 -1 0 0 0 0 1 forward_v I I I I #
coedge $-1 $345 $241 $433 $434 reversed $143 $-1 #
coedge $-1 $241 $344 $348 $435 reversed $143 $-1 #
edge $-1 $436 -82.927335428937653 $349 -74.923949643384191 $241 $437 forward 7 unknown #
coedge $-1 $243 $242 $352 $438 reversed $89 $-1 #
coedge $-1 $249 $244 $345 $435 forward $239 $-1 #
vertex $-1 $435 $439 #
straight-curve $-1 35.51599303962837 -5.4407397726736404 5.5052411040133578 0 -1 0 I I #
coedge $-1 $433 $246 $249 $356 reversed $342 $-1 #
coedge $-1 $246 $433 $347 $438 forward $342 $-1 #
vertex $-1 $247 $440 #
straight-curve $-1 41.463667714468826 -7.5656219436565486 58.633084588196844 0 0 1 I I #
straight-curve $-1 -20.16335189927895 -7.5656219436565486 55.639149562645905 0.74314481823134659 0 -0.66913061440640931 I I #
edge $-1 $441 -14.197337147038015 $250 -7.5656219436565486 $351 $442 forward 7 unknown #
point $-1 41.463667714468826 -7.5656219436565486 5.5052411040133631 #
point $-1 35.51599303962837 -7.5656219436565486 5.5052411040133578 #
edge $-1 $443 1 $443 0 $253 $-1 forward 7 unknown #
vertex $-1 $254 $444 #
ellipse-curve $-1 37.432427569978344 -12.870994106361721 1.6532211148307663 0.66913061440640931 0 0.74314481823134659 0.3715724091156733 0 -0.33456530720320465 1 I I #
point $-1 38.861402786164277 -12.870994106361721 2.4930205728007016 #
edge $-1 $445 1 $445 0 $257 $-1 forward 7 unknown #
vertex $-1 $258 $446 #
ellipse-curve $-1 37.432427569978344 -10.881479545347283 1.6532211148307663 0.66913061440640931 0 0.74314481823134659 0.3715724091156733 0 -0.33456530720320465 1 I I #
point $-1 38.861402786164277 -10.881479545347283 2.4930205728007016 #
edge $-1 $447 1 $447 0 $261 $-1 forward 7 unknown #
vertex $-1 $262 $448 #
ellipse-curve $-1 37.432427569978344 -8.8919649843328425 1.6532211148307663 0.66913061440640931 0 0.74314481823134659 0.3715724091156733 0 -0.33456530720320465 1 I I #
point $-1 38.861402786164277 -8.8919649843328425 2.4930205728007016 #
loop $-1 $-1 $273 $265 #
plane-surface $-1 0 -14.197337147038015 4.0052411040133631 0 -1 0 0 0 -1 forward_v I I I I #
coedge $-1 $378 $449 $269 $374 forward $266 $-1 #
edge $-1 $376 25.383234030857757 $384 30.738544478876662 $373 $450 forward 7 unknown #
coedge $-1 $276 $270 $449 $451 forward $172 $-1 #
vertex $-1 $451 $452 #
straight-curve $-1 -48.476443310560136 -7.5656219436565486 5.5052411040133649 -1 0 0 I I #
coedge $-1 $453 $373 $272 $379 forward $266 $-1 #
edge $-1 $384 2.1248821709829082 $382 8.7565973743643717 $378 $454 forward 7 unknown #
coedge $-1 $381 $273 $276 $386 reversed $371 $-1 #
coedge $-1 $273 $380 $453 $455 reversed $371 $-1 #
vertex $-1 $455 $456 #
straight-curve $-1 -29.055669976538056 -14.197337147038015 11.322142244167441 0.74314481823134659 0 0.66913061440640931 I I #
vertex $-1 $379 $457 #
straight-curve $-1 -41.463667714468826 -7.5656219436565486 0.14993065599445998 0.74314481823134659 0 0.66913061440640931 I I #
edge $-1 $458 -41.463667714468826 $277 -35.515993039628363 $276 $459 forward 7 unknown #
point $-1 -35.515993039628363 -14.197337147038013 5.5052411040133622 #
point $-1 -35.515993039628363 -7.5656219436565486 5.5052411040133622 #
edge $-1 $460 1 $460 0 $280 $-1 forward 7 unknown #
vertex $-1 $281 $461 #
ellipse-curve $-1 -37.432427569978337 -12.870994106361721 1.6532211148307681 -0.66913061440640931 0 0.74314481823134659 0.3715724091156733 0 0.33456530720320465 1 I I #
point $-1 -38.118257967932919 -12.870994106361721 3.1621511872071126 #
edge $-1 $462 1 $462 0 $284 $-1 forward 7 unknown #
vertex $-1 $285 $463 #
ellipse-curve $-1 -37.432427569978337 -10.881479545347283 1.6532211148307681 -0.66913061440640931 0 0.74314481823134659 0.3715724091156733 0 0.33456530720320465 1 I I #
point $-1 -38.118257967932919 -10.881479545347283 3.1621511872071126 #
edge $-1 $464 1 $464 0 $288 $-1 forward 7 unknown #
vertex $-1 $289 $465 #
ellipse-curve $-1 -37.432427569978337 -8.8919649843328425 1.6532211148307681 -0.66913061440640931 0 0.74314481823134659 0.3715724091156733 0 0.33456530720320465 1 I I #
point $-1 -38.118257967932919 -8.8919649843328425 3.1621511872071126 #
plane-surface $-1 41.463667714468826 0 0 -1 0 0 0 0 1 forward_v I I I I #
coedge $-1 $297 $295 $299 $406 reversed $201 $-1 #
edge $-1 $310 -5.5052411040133631 $408 5.5052411040133631 $309 $466 forward 7 unknown #
vertex $-1 $406 $467 #
straight-curve $-1 -41.463667714468826 -18.721224963178823 0 0 0 -1 I I #
edge $-1 $404 -18.721224963178823 $408 18.721224963178823 $402 $468 forward 7 unknown #
straight-curve $-1 0 -18.721224963178823 -5.5052411040133631 -1 0 0 I I #
vertex $-1 $302 $469 #
straight-curve $-1 0 18.721224963178823 -5.5052411040133631 1 0 0 I I #
point $-1 41.463667714468826 18.721224963178823 -5.5052411040133631 #
point $-1 41.463667714468826 -18.721224963178823 -5.5052411040133631 #
straight-curve $-1 -41.463667714468826 0 5.5052411040133631 0 -1 0 I I #
point $-1 -41.463667714468826 18.721224963178823 5.5052411040133631 #
point $-1 -41.463667714468826 -18.721224963178823 5.5052411040133631 #
straight-curve $-1 41.463667714468826 -18.721224963178823 0 0 0 -1 I I #
straight-curve $-1 41.463667714468826 18.721224963178823 0 0 0 -1 I I #
plane-surface $-1 41.463667714468826 0 0 -1 0 0 0 0 1 forward_v I I I I #
coedge $-1 $323 $322 $333 $428 reversed $135 $-1 #
edge $-1 $329 14.197337147038015 $470 18.721224963178823 $323 $471 forward 7 unknown #
straight-curve $-1 -41.463667714468826 -14.197337147038015 2.0026205520066815 0 0 -1 I I #
straight-curve $-1 41.463667714468826 -14.197337147038015 2.0026205520066815 0 0 1 I I #
coedge $-1 $327 $326 $427 $472 forward $320 $-1 #
edge $-1 $431 -18.721224963178823 $328 -14.197337147038015 $338 $473 forward 7 unknown #
point $-1 41.463667714468826 -14.197337147038015 5.5052411040133631 #
point $-1 -41.463667714468826 -14.197337147038015 5.5052411040133631 #
straight-curve $-1 -41.463667714468826 -8.2296405275542099 2.5052411040133631 0 -1 0 I I #
coedge $-1 $333 $332 $422 $472 reversed $220 $-1 #
edge $-1 $470 -5.5052411040133631 $334 -2.5052411040133631 $418 $474 forward 7 unknown #
point $-1 -41.463667714468826 -18.721224963178823 2.5052411040133631 #
point $-1 -41.463667714468826 -14.197337147038015 2.5052411040133631 #
vertex $-1 $423 $475 #
straight-curve $-1 41.463667714468826 -18.721224963178823 0 0 0 -1 I I #
coedge $-1 $352 $351 $344 $434 forward $342 $-1 #
edge $-1 $441 53.127843484183479 $436 58.483153932202384 $433 $476 forward 7 unknown #
edge $-1 $349 35.515993039628363 $441 41.463667714468826 $348 $477 forward 7 unknown #
vertex $-1 $434 $478 #
straight-curve $-1 -20.16335189927895 -14.197337147038013 55.639149562645905 -0.74314481823134659 0 0.66913061440640931 I I #
edge $-1 $436 -8.7565973743643717 $353 -2.1248821709829082 $352 $479 forward 7 unknown #
point $-1 35.515993039628363 -14.197337147038015 5.5052411040133631 #
point $-1 41.463667714468833 -7.5656219436565486 0.14993065599445998 #
vertex $-1 $356 $480 #
straight-curve $-1 41.463667714468826 0 5.5052411040133631 0 1 0 I I #
vertex $-1 $359 $481 #
point $-1 37.803999979094016 -12.870994106361721 1.3186558076275616 #
vertex $-1 $363 $482 #
point $-1 37.803999979094016 -10.881479545347283 1.3186558076275616 #
vertex $-1 $367 $483 #
point $-1 37.803999979094016 -8.8919649843328425 1.3186558076275616 #
coedge $-1 $373 $453 $375 $451 reversed $266 $-1 #
straight-curve $-1 -41.463667714468826 -7.5656219436565486 30.888475134871122 0 0 -1 I I #
edge $-1 $376 7.5656219436565486 $458 14.197337147038015 $449 $484 forward 7 unknown #
point $-1 -41.463667714468826 -7.5656219436565486 5.5052411040133631 #
coedge $-1 $449 $378 $381 $455 forward $266 $-1 #
straight-curve $-1 -41.463667714468826 -5.4407397726736404 0.14993065599446095 0 -1 0 I I #
edge $-1 $382 -30.738544478876662 $458 -25.383234030857757 $453 $485 forward 7 unknown #
point $-1 -41.463667714468826 -14.197337147038013 0.14993065599445998 #
point $-1 -41.463667714468826 -7.5656219436565486 0.14993065599445998 #
vertex $-1 $455 $486 #
straight-curve $-1 0 -14.197337147038015 5.5052411040133631 1 0 0 I I #
vertex $-1 $389 $487 #
point $-1 -37.060855160862666 -12.870994106361721 1.9877864220339727 #
vertex $-1 $393 $488 #
point $-1 -37.060855160862666 -10.881479545347283 1.9877864220339727 #
vertex $-1 $397 $489 #
point $-1 -37.060855160862666 -8.8919649843328425 1.9877864220339727 #
straight-curve $-1 -41.463667714468826 18.721224963178823 0 0 0 -1 I I #
point $-1 -41.463667714468826 -18.721224963178823 -5.5052411040133631 #
straight-curve $-1 -41.463667714468826 0 -5.5052411040133631 0 1 0 I I #
point $-1 -41.463667714468826 18.721224963178823 -5.5052411040133631 #
vertex $-1 $419 $490 #
straight-curve $-1 -41.463667714468826 0 5.5052411040133631 0 -1 0 I I #
edge $-1 $470 -41.463667714468826 $431 41.463667714468826 $427 $491 forward 7 unknown #
straight-curve $-1 41.463667714468826 0 5.5052411040133631 0 1 0 I I #
straight-curve $-1 -41.463667714468826 -18.721224963178823 0 0 0 -1 I I #
point $-1 41.463667714468826 -18.721224963178823 5.5052411040133631 #
straight-curve $-1 41.463667714468826 -14.197337147038013 58.633084588196844 0 0 -1 I I #
straight-curve $-1 0 -14.197337147038015 5.5052411040133631 1 0 0 I I #
point $-1 41.463667714468833 -14.197337147038013 0.14993065599445998 #
straight-curve $-1 41.463667714468826 -5.4407397726736404 0.14993065599446709 0 1 0 I I #
point $-1 41.463667714468826 -14.197337147038015 5.5052411040133631 #
point $-1 37.097862262775138 -12.870994106361721 1.2816487057150934 #
point $-1 37.097862262775138 -10.881479545347283 1.2816487057150934 #
point $-1 37.097862262775138 -8.8919649843328425 1.2816487057150934 #
straight-curve $-1 -41.463667714468826 0 5.5052411040133631 0 -1 0 I I #
straight-curve $-1 -41.463667714468826 -14.197337147038013 30.888475134871122 0 0 1 I I #
point $-1 -41.463667714468826 -14.197337147038015 5.5052411040133631 #
point $-1 -37.097862262775131 -12.870994106361721 1.2816487057150951 #
point $-1 -37.097862262775131 -10.881479545347283 1.2816487057150951 #
point $-1 -37.097862262775131 -8.8919649843328425 1.2816487057150951 #
point $-1 -41.463667714468826 -18.721224963178823 5.5052411040133631 #
straight-curve $-1 0 -18.721224963178823 5.5052411040133631 1 0 0 I I #
End-of-ACIS-data 