500 0 7 0           
7 Unknown 11 ACIS 5.0 NT 24 Thu Mar 25 15:33:17 1999 
-1 9.9999999999999995e-007 1e-010 
body $-1 $7 $-1 $8 #
body $-1 $9 $-1 $10 #
body $-1 $11 $-1 $12 #
body $-1 $13 $-1 $14 #
body $-1 $15 $-1 $16 #
body $-1 $17 $-1 $18 #
body $-1 $19 $-1 $20 #
lump $-1 $-1 $21 $0 #
transform $-1 1 0 0 0 1 0 0 0 1 55.019989623706778 36.137354859663851 12.43549828153666 1 rotate no_reflect no_shear #
lump $-1 $-1 $22 $1 #
transform $-1 1 0 0 0 1 0 0 0 1 55.019989623706778 36.137354859663851 12.43549828153666 1 rotate no_reflect no_shear #
lump $-1 $-1 $23 $2 #
transform $-1 1 0 0 0 1 0 0 0 1 55.019989623706778 36.137354859663851 12.43549828153666 1 rotate no_reflect no_shear #
lump $-1 $-1 $24 $3 #
transform $-1 1 0 0 0 1 0 0 0 1 55.019989623706778 36.137354859663851 12.43549828153666 1 rotate no_reflect no_shear #
lump $-1 $-1 $25 $4 #
transform $-1 1 0 0 0 1 0 0 0 1 55.019989623706778 36.137354859663851 12.43549828153666 1 rotate no_reflect no_shear #
lump $-1 $-1 $26 $5 #
transform $-1 1 0 0 0 1 0 0 0 1 55.019989623706778 36.137354859663851 12.43549828153666 1 rotate no_reflect no_shear #
lump $-1 $-1 $27 $6 #
transform $-1 1 0 0 0 1 0 0 0 1 55.019989623706778 36.137354859663851 12.43549828153666 1 rotate no_reflect no_shear #
shell $-1 $-1 $-1 $28 $-1 $7 #
shell $-1 $-1 $-1 $29 $-1 $9 #
shell $-1 $-1 $-1 $30 $-1 $11 #
shell $-1 $-1 $-1 $31 $-1 $13 #
shell $-1 $-1 $-1 $32 $-1 $15 #
shell $-1 $-1 $-1 $33 $-1 $17 #
shell $-1 $-1 $-1 $34 $-1 $19 #
face $-1 $35 $36 $21 $-1 $37 forward single #
face $-1 $38 $39 $22 $-1 $40 forward single #
face $-1 $41 $42 $23 $-1 $43 forward single #
face $-1 $44 $45 $24 $-1 $46 reversed single #
face $-1 $47 $48 $25 $-1 $49 forward single #
face $-1 $50 $51 $26 $-1 $52 forward single #
face $-1 $53 $54 $27 $-1 $55 forward single #
face $-1 $56 $57 $21 $-1 $58 reversed single #
loop $-1 $-1 $59 $28 #
plane-surface $-1 0 0 12.43549828153666 0 0 1 1 0 0 forward_v I I I I #
face $-1 $60 $61 $22 $-1 $62 reversed single #
loop $-1 $-1 $63 $29 #
plane-surface $-1 0 -36.137354859663851 0 0 1 0 0 0 1 forward_v I I I I #
face $-1 $64 $65 $23 $-1 $66 reversed single #
loop $-1 $-1 $67 $30 #
plane-surface $-1 0 36.137354859663851 0 0 -1 0 0 0 -1 forward_v I I I I #
face $-1 $68 $69 $24 $-1 $70 reversed single #
loop $-1 $-1 $71 $31 #
plane-surface $-1 68.583171015290517 -0.19115537902261082 159.26312629032984 0 -1 0 -0.7660444514056185 0 -0.64278759981090561 forward_v I I I I #
face $-1 $72 $73 $25 $-1 $74 forward single #
loop $-1 $75 $76 $32 #
cone-surface $-1 50.503871700258358 -10.590548298269916 7.4327541315310572 -0.7660444514056185 0 -0.64278759981090561 0.64278759981090561 0 -0.7660444514056185 1 I I 0 1 1 forward I I I I #
face $-1 $77 $78 $26 $-1 $79 forward single #
loop $-1 $80 $81 $33 #
cone-surface $-1 50.503871700258358 -6.6907759535521762 7.4327541315310572 -0.7660444514056185 0 -0.64278759981090561 0.64278759981090561 0 -0.7660444514056185 1 I I 0 1 1 forward I I I I #
face $-1 $82 $83 $27 $-1 $84 forward single #
loop $-1 $85 $86 $34 #
cone-surface $-1 50.503871700258358 -2.791003608834437 7.4327541315310572 -0.7660444514056185 0 -0.64278759981090561 0.64278759981090561 0 -0.7660444514056185 1 I I 0 1 1 forward I I I I #
face $-1 $87 $88 $21 $-1 $89 reversed single #
loop $-1 $-1 $90 $35 #
plane-surface $-1 0 0 -12.43549828153666 0 0 1 1 0 0 forward_v I I I I #
coedge $-1 $91 $92 $93 $94 forward $36 $-1 #
face $-1 $95 $96 $22 $-1 $97 forward single #
loop $-1 $-1 $98 $38 #
plane-surface $-1 -55.019989623706778 0 0 1 0 0 0 0 -1 forward_v I I I I #
coedge $-1 $99 $100 $101 $102 forward $39 $-1 #
face $-1 $103 $104 $23 $-1 $105 forward single #
loop $-1 $-1 $106 $41 #
plane-surface $-1 55.019989623706778 0 0 -1 0 0 0 0 1 forward_v I I I I #
coedge $-1 $107 $108 $109 $110 forward $42 $-1 #
face $-1 $111 $112 $24 $-1 $113 reversed single #
loop $-1 $-1 $114 $44 #
plane-surface $-1 -15.71234451998005 -6.6907759535521762 88.530792146643009 0.7660444514056185 0 0.64278759981090561 0.64278759981090561 0 -0.7660444514056185 forward_v I I I I #
coedge $-1 $115 $116 $117 $118 reversed $45 $-1 #
face $-1 $-1 $119 $25 $-1 $120 forward single #
loop $-1 $121 $122 $47 #
cone-surface $-1 49.045132950536669 -10.590548298269916 6.2087270167020776 -0.7660444514056185 0 -0.64278759981090561 0.3213937999054528 0 -0.38302222570280925 1 I I -0.70710678118654746 0.70710678118654746 0.5 forward I I I I #
loop $-1 $-1 $123 $32 #
coedge $-1 $76 $76 $124 $125 reversed $48 $-1 #
face $-1 $-1 $126 $26 $-1 $127 forward single #
loop $-1 $128 $129 $50 #
cone-surface $-1 49.045132950536669 -6.6907759535521762 6.2087270167020776 -0.7660444514056185 0 -0.64278759981090561 0.3213937999054528 0 -0.38302222570280925 1 I I -0.70710678118654746 0.70710678118654746 0.5 forward I I I I #
loop $-1 $-1 $130 $33 #
coedge $-1 $81 $81 $131 $132 reversed $51 $-1 #
face $-1 $-1 $133 $27 $-1 $134 forward single #
loop $-1 $135 $136 $53 #
cone-surface $-1 49.045132950536669 -2.791003608834437 6.2087270167020776 -0.7660444514056185 0 -0.64278759981090561 0.3213937999054528 0 -0.38302222570280925 1 I I -0.70710678118654746 0.70710678118654746 0.5 forward I I I I #
loop $-1 $-1 $137 $34 #
coedge $-1 $86 $86 $138 $139 reversed $54 $-1 #
face $-1 $140 $141 $21 $-1 $142 reversed single #
loop $-1 $-1 $143 $56 #
plane-surface $-1 0 -36.137354859663851 0 0 1 0 0 0 1 forward_v I I I I #
coedge $-1 $144 $145 $146 $147 forward $57 $-1 #
coedge $-1 $148 $59 $149 $150 forward $36 $-1 #
coedge $-1 $59 $148 $151 $152 forward $36 $-1 #
coedge $-1 $153 $154 $59 $94 reversed $155 $-1 #
edge $-1 $156 -36.137354859663851 $157 36.137354859663851 $93 $158 forward 7 unknown #
face $-1 $159 $160 $22 $-1 $161 reversed single #
loop $-1 $-1 $162 $60 #
plane-surface $-1 0 -43.232408726452171 -2.5006542179185836 0 0 1 1 0 0 forward_v I I I I #
coedge $-1 $163 $164 $100 $165 forward $61 $-1 #
coedge $-1 $166 $63 $167 $168 reversed $39 $-1 #
coedge $-1 $63 $166 $98 $165 reversed $39 $-1 #
coedge $-1 $169 $162 $63 $102 reversed $96 $-1 #
edge $-1 $170 -55.019989623706778 $171 55.019989623706778 $101 $172 forward 7 unknown #
face $-1 $173 $174 $23 $-1 $175 reversed single #
loop $-1 $-1 $176 $64 #
plane-surface $-1 0 43.232408726452171 -2.5006542179185836 0 0 1 1 0 0 forward_v I I I I #
coedge $-1 $177 $178 $108 $179 forward $65 $-1 #
coedge $-1 $180 $67 $181 $182 reversed $42 $-1 #
coedge $-1 $67 $180 $106 $179 reversed $42 $-1 #
coedge $-1 $176 $183 $67 $110 reversed $104 $-1 #
edge $-1 $184 -55.019989623706778 $185 55.019989623706778 $109 $186 forward 7 unknown #
face $-1 $187 $188 $24 $-1 $189 forward single #
loop $-1 $-1 $190 $68 #
plane-surface $-1 68.583171015290517 -13.190396528081742 159.26312629032984 0 1 0 0.7660444514056185 0 0.64278759981090561 forward_v I I I I #
coedge $-1 $191 $192 $193 $194 reversed $69 $-1 #
coedge $-1 $116 $71 $195 $196 reversed $45 $-1 #
coedge $-1 $71 $115 $191 $197 reversed $45 $-1 #
coedge $-1 $193 $198 $71 $118 forward $188 $-1 #
edge $-1 $199 -20.728404116061519 $200 -13.847601317202468 $117 $201 forward 7 unknown #
loop $-1 $-1 $124 $72 #
plane-surface $-1 -15.71234451998005 -6.6907759535521762 88.530792146643009 0.7660444514056185 0 0.64278759981090561 0.64278759981090561 0 -0.7660444514056185 forward_v I I I I #
loop $-1 $-1 $202 $47 #
coedge $-1 $122 $122 $123 $203 reversed $73 $-1 #
coedge $-1 $123 $123 $122 $203 forward $75 $-1 #
coedge $-1 $124 $124 $76 $125 forward $119 $-1 #
edge $-1 $204 0 $204 6.2831853071796004 $124 $205 forward 7 unknown #
loop $-1 $-1 $131 $77 #
plane-surface $-1 -15.71234451998005 -6.6907759535521762 88.530792146643009 0.7660444514056185 0 0.64278759981090561 0.64278759981090561 0 -0.7660444514056185 forward_v I I I I #
loop $-1 $-1 $206 $50 #
coedge $-1 $129 $129 $130 $207 reversed $78 $-1 #
coedge $-1 $130 $130 $129 $207 forward $80 $-1 #
coedge $-1 $131 $131 $81 $132 forward $126 $-1 #
edge $-1 $208 0 $208 6.2831853071796004 $131 $209 forward 7 unknown #
loop $-1 $-1 $138 $82 #
plane-surface $-1 -15.71234451998005 -6.6907759535521762 88.530792146643009 0.7660444514056185 0 0.64278759981090561 0.64278759981090561 0 -0.7660444514056185 forward_v I I I I #
loop $-1 $-1 $210 $53 #
coedge $-1 $136 $136 $137 $211 reversed $83 $-1 #
coedge $-1 $137 $137 $136 $211 forward $85 $-1 #
coedge $-1 $138 $138 $86 $139 forward $133 $-1 #
edge $-1 $212 0 $212 6.2831853071796004 $138 $213 forward 7 unknown #
face $-1 $214 $215 $21 $-1 $216 reversed single #
loop $-1 $-1 $217 $87 #
plane-surface $-1 -55.019989623706778 0 0 1 0 0 0 0 -1 forward_v I I I I #
coedge $-1 $218 $151 $219 $220 forward $88 $-1 #
coedge $-1 $221 $90 $218 $222 forward $57 $-1 #
coedge $-1 $90 $221 $223 $224 forward $57 $-1 #
coedge $-1 $154 $153 $90 $147 reversed $155 $-1 #
edge $-1 $225 -36.137354859663851 $226 36.137354859663851 $146 $227 forward 7 unknown #
coedge $-1 $92 $91 $228 $229 forward $36 $-1 #
coedge $-1 $230 $231 $91 $150 reversed $215 $-1 #
edge $-1 $157 -55.019989623706778 $232 55.019989623706778 $149 $233 forward 7 unknown #
coedge $-1 $143 $234 $92 $152 reversed $88 $-1 #
edge $-1 $235 -55.019989623706778 $156 55.019989623706778 $151 $236 forward 7 unknown #
coedge $-1 $146 $93 $234 $237 forward $155 $-1 #
coedge $-1 $93 $146 $230 $238 reversed $155 $-1 #
loop $-1 $-1 $153 $214 #
vertex $-1 $94 $239 #
vertex $-1 $94 $240 #
straight-curve $-1 55.019989623706778 0 12.43549828153666 0 1 0 I I #
face $-1 $241 $242 $22 $-1 $243 reversed single #
loop $-1 $-1 $244 $95 #
plane-surface $-1 0 -43.232408726452171 -7.5324635845246792 0 0 1 1 0 0 forward_v I I I I #
coedge $-1 $101 $245 $246 $247 forward $96 $-1 #
coedge $-1 $248 $98 $249 $250 reversed $61 $-1 #
coedge $-1 $98 $248 $169 $251 reversed $61 $-1 #
edge $-1 $170 2.5006542179185836 $252 7.5324635845246792 $98 $253 forward 7 unknown #
coedge $-1 $100 $99 $254 $255 forward $39 $-1 #
coedge $-1 $246 $256 $99 $168 forward $257 $-1 #
edge $-1 $258 -7.5324635845246792 $171 -2.5006542179185836 $167 $259 forward 7 unknown #
coedge $-1 $245 $101 $164 $251 forward $96 $-1 #
vertex $-1 $165 $260 #
vertex $-1 $247 $261 #
straight-curve $-1 0 -36.137354859663851 -2.5006542179185836 1 0 0 I I #
face $-1 $262 $263 $23 $-1 $264 reversed single #
loop $-1 $-1 $265 $103 #
plane-surface $-1 0 43.232408726452171 -7.5324635845246792 0 0 1 1 0 0 forward_v I I I I #
coedge $-1 $266 $109 $178 $267 forward $104 $-1 #
coedge $-1 $268 $106 $265 $269 reversed $65 $-1 #
coedge $-1 $106 $268 $176 $267 reversed $65 $-1 #
edge $-1 $184 2.5006542179185836 $270 7.5324635845246792 $106 $271 forward 7 unknown #
coedge $-1 $108 $107 $272 $273 forward $42 $-1 #
coedge $-1 $274 $275 $107 $182 forward $276 $-1 #
edge $-1 $277 -7.5324635845246792 $185 -2.5006542179185836 $181 $278 forward 7 unknown #
coedge $-1 $109 $266 $274 $279 forward $104 $-1 #
vertex $-1 $179 $280 #
vertex $-1 $279 $281 #
straight-curve $-1 0 36.137354859663851 -2.5006542179185836 -1 0 0 I I #
face $-1 $-1 $282 $24 $-1 $283 reversed single #
loop $-1 $-1 $117 $111 #
plane-surface $-1 0 0 12.43549828153666 0 0 1 1 0 0 forward_v I I I I #
coedge $-1 $284 $285 $286 $287 reversed $112 $-1 #
coedge $-1 $288 $114 $116 $197 forward $69 $-1 #
coedge $-1 $114 $288 $284 $289 forward $69 $-1 #
coedge $-1 $286 $117 $114 $194 forward $188 $-1 #
edge $-1 $200 -3.1542325977534773 $290 9.8450085513056536 $193 $291 forward 7 unknown #
coedge $-1 $292 $293 $115 $196 forward $282 $-1 #
edge $-1 $294 -75.396286533792477 $199 -67.196064863628266 $195 $295 forward 7 unknown #
edge $-1 $200 99.335350220837412 $294 110.0399792474136 $116 $296 forward 7 unknown #
coedge $-1 $117 $286 $292 $297 forward $188 $-1 #
vertex $-1 $196 $298 #
vertex $-1 $118 $299 #
straight-curve $-1 34.291585507645259 -0.19115537902261082 12.435498281536667 -1 0 0 I I #
coedge $-1 $202 $202 $-1 $300 reversed $121 $-1 #
edge $-1 $301 0 $301 6.2831853071796004 $122 $302 forward 7 unknown #
vertex $-1 $125 $303 #
ellipse-curve $-1 51.579588224277224 -10.590548298269916 8.3353874464545719 0.7660444514056185 0 0.64278759981090561 0.64278759981090561 0 -0.7660444514056185 1 I I #
coedge $-1 $206 $206 $-1 $304 reversed $128 $-1 #
edge $-1 $305 0 $305 6.2831853071796004 $129 $306 forward 7 unknown #
vertex $-1 $132 $307 #
ellipse-curve $-1 51.579588224277224 -6.6907759535521762 8.3353874464545719 0.7660444514056185 0 0.64278759981090561 0.64278759981090561 0 -0.7660444514056185 1 I I #
coedge $-1 $210 $210 $-1 $308 reversed $135 $-1 #
edge $-1 $309 0 $309 6.2831853071796004 $136 $310 forward 7 unknown #
vertex $-1 $139 $311 #
ellipse-curve $-1 51.579588224277224 -2.791003608834437 8.3353874464545719 0.7660444514056185 0 0.64278759981090561 0.64278759981090561 0 -0.7660444514056185 1 I I #
face $-1 $-1 $155 $21 $-1 $312 reversed single #
loop $-1 $-1 $230 $140 #
plane-surface $-1 0 36.137354859663851 0 0 -1 0 0 0 -1 forward_v I I I I #
coedge $-1 $313 $228 $231 $314 forward $141 $-1 #
coedge $-1 $234 $143 $144 $222 reversed $88 $-1 #
coedge $-1 $228 $313 $143 $220 reversed $141 $-1 #
edge $-1 $235 -12.43549828153666 $315 12.43549828153666 $219 $316 forward 7 unknown #
coedge $-1 $145 $144 $313 $317 forward $57 $-1 #
edge $-1 $226 -55.019989623706778 $315 55.019989623706778 $218 $318 forward 7 unknown #
coedge $-1 $231 $230 $145 $224 reversed $215 $-1 #
edge $-1 $319 -55.019989623706778 $225 55.019989623706778 $223 $320 forward 7 unknown #
vertex $-1 $147 $321 #
vertex $-1 $237 $322 #
straight-curve $-1 55.019989623706778 0 -12.43549828153666 0 -1 0 I I #
coedge $-1 $217 $219 $148 $229 reversed $141 $-1 #
edge $-1 $232 -36.137354859663851 $235 36.137354859663851 $228 $323 forward 7 unknown #
coedge $-1 $223 $149 $154 $238 forward $215 $-1 #
coedge $-1 $149 $223 $217 $314 reversed $215 $-1 #
vertex $-1 $150 $324 #
straight-curve $-1 0 36.137354859663851 12.43549828153666 -1 0 0 I I #
coedge $-1 $151 $218 $153 $237 reversed $88 $-1 #
vertex $-1 $229 $325 #
straight-curve $-1 0 -36.137354859663851 12.43549828153666 1 0 0 I I #
edge $-1 $156 -12.43549828153666 $226 12.43549828153666 $153 $326 forward 7 unknown #
edge $-1 $157 -12.43549828153666 $225 12.43549828153666 $154 $327 forward 7 unknown #
point $-1 55.019989623706778 -36.137354859663851 12.43549828153666 #
point $-1 55.019989623706778 36.137354859663851 12.43549828153666 #
face $-1 $-1 $257 $22 $-1 $328 reversed single #
loop $-1 $-1 $329 $159 #
plane-surface $-1 0 -50.32746259324049 -5.0165589012216314 0 1 0 0 0 1 forward_v I I I I #
coedge $-1 $330 $254 $256 $331 forward $160 $-1 #
coedge $-1 $162 $169 $332 $333 forward $96 $-1 #
coedge $-1 $334 $167 $162 $247 reversed $257 $-1 #
edge $-1 $335 -7.0950538667883194 $171 7.0950538667883194 $246 $336 forward 7 unknown #
coedge $-1 $164 $163 $329 $337 reversed $61 $-1 #
coedge $-1 $254 $330 $163 $250 forward $160 $-1 #
edge $-1 $338 -7.0950538667883194 $252 7.0950538667883194 $163 $339 forward 7 unknown #
edge $-1 $170 -7.0950538667883194 $340 7.0950538667883194 $164 $341 forward 7 unknown #
vertex $-1 $165 $342 #
straight-curve $-1 -55.019989623706778 -36.137354859663851 0 0 0 -1 I I #
coedge $-1 $244 $249 $166 $255 reversed $160 $-1 #
edge $-1 $258 -55.019989623706778 $252 55.019989623706778 $254 $343 forward 7 unknown #
coedge $-1 $167 $334 $244 $331 reversed $257 $-1 #
loop $-1 $-1 $167 $241 #
vertex $-1 $168 $344 #
straight-curve $-1 55.019989623706778 -36.137354859663851 0 0 0 1 I I #
point $-1 -55.019989623706778 -36.137354859663851 -2.5006542179185836 #
point $-1 55.019989623706778 -36.137354859663851 -2.5006542179185836 #
face $-1 $-1 $276 $23 $-1 $345 reversed single #
loop $-1 $-1 $346 $173 #
plane-surface $-1 0 50.32746259324049 -5.0165589012216314 0 -1 0 0 0 -1 forward_v I I I I #
coedge $-1 $272 $347 $177 $269 forward $174 $-1 #
coedge $-1 $183 $176 $348 $349 forward $104 $-1 #
edge $-1 $184 -7.0950538667883194 $350 7.0950538667883194 $178 $351 forward 7 unknown #
coedge $-1 $178 $177 $346 $352 reversed $65 $-1 #
edge $-1 $353 -7.0950538667883194 $270 7.0950538667883194 $177 $354 forward 7 unknown #
vertex $-1 $179 $355 #
straight-curve $-1 55.019989623706778 36.137354859663851 0 0 0 -1 I I #
coedge $-1 $356 $265 $180 $273 reversed $174 $-1 #
edge $-1 $277 -55.019989623706778 $270 55.019989623706778 $272 $357 forward 7 unknown #
coedge $-1 $358 $181 $183 $279 reversed $276 $-1 #
coedge $-1 $181 $358 $356 $359 reversed $276 $-1 #
loop $-1 $-1 $181 $262 #
vertex $-1 $182 $360 #
straight-curve $-1 -55.019989623706778 36.137354859663851 0 0 0 1 I I #
edge $-1 $361 -7.0950538667883194 $185 7.0950538667883194 $274 $362 forward 7 unknown #
point $-1 55.019989623706778 36.137354859663851 -2.5006542179185836 #
point $-1 -55.019989623706778 36.137354859663851 -2.5006542179185836 #
loop $-1 $-1 $195 $187 #
plane-surface $-1 55.019989623706778 0 0 -1 0 0 0 0 1 forward_v I I I I #
coedge $-1 $285 $190 $192 $289 reversed $112 $-1 #
coedge $-1 $190 $284 $363 $364 reversed $112 $-1 #
coedge $-1 $198 $193 $190 $287 forward $188 $-1 #
edge $-1 $290 13.847601317202468 $365 20.728404116061519 $286 $366 forward 7 unknown #
coedge $-1 $192 $191 $293 $367 reversed $69 $-1 #
edge $-1 $368 -110.0399792474136 $290 -99.335350220837412 $284 $369 forward 7 unknown #
vertex $-1 $194 $370 #
straight-curve $-1 48.139186824847727 -3.3453879767760881 12.435498281536653 0 -1 0 I I #
coedge $-1 $363 $195 $198 $297 reversed $282 $-1 #
coedge $-1 $195 $363 $288 $367 forward $282 $-1 #
vertex $-1 $196 $371 #
straight-curve $-1 55.019989623706778 -0.19115537902261082 79.631563145164918 0 0 1 I I #
straight-curve $-1 -15.71234451998005 -0.19115537902261082 88.530792146643009 0.64278759981090561 0 -0.7660444514056185 I I #
edge $-1 $365 -13.190396528081742 $199 -0.19115537902261082 $292 $372 forward 7 unknown #
point $-1 55.019989623706778 -0.19115537902261082 12.43549828153666 #
point $-1 48.139186824847727 -0.19115537902261082 12.435498281536653 #
edge $-1 $373 1 $373 0 $202 $-1 forward 7 unknown #
vertex $-1 $203 $374 #
ellipse-curve $-1 49.428155176239478 -10.590548298269916 6.5301208166075302 0.7660444514056185 0 0.64278759981090561 0.64278759981090561 0 -0.7660444514056185 1 I I #
point $-1 52.222375824088147 -10.590548298269916 7.5693429950489657 #
edge $-1 $375 1 $375 0 $206 $-1 forward 7 unknown #
vertex $-1 $207 $376 #
ellipse-curve $-1 49.428155176239478 -6.6907759535521762 6.5301208166075302 0.7660444514056185 0 0.64278759981090561 0.64278759981090561 0 -0.7660444514056185 1 I I #
point $-1 52.222375824088147 -6.6907759535521762 7.5693429950489657 #
edge $-1 $377 1 $377 0 $210 $-1 forward 7 unknown #
vertex $-1 $211 $378 #
ellipse-curve $-1 49.428155176239478 -2.791003608834437 6.5301208166075302 0.7660444514056185 0 0.64278759981090561 0.64278759981090561 0 -0.7660444514056185 1 I I #
point $-1 52.222375824088147 -2.791003608834437 7.5693429950489657 #
plane-surface $-1 55.019989623706778 0 0 -1 0 0 0 0 1 forward_v I I I I #
coedge $-1 $219 $217 $221 $317 reversed $141 $-1 #
edge $-1 $232 -12.43549828153666 $319 12.43549828153666 $231 $379 forward 7 unknown #
vertex $-1 $317 $380 #
straight-curve $-1 -55.019989623706778 -36.137354859663851 0 0 0 -1 I I #
edge $-1 $315 -36.137354859663851 $319 36.137354859663851 $313 $381 forward 7 unknown #
straight-curve $-1 0 -36.137354859663851 -12.43549828153666 -1 0 0 I I #
vertex $-1 $224 $382 #
straight-curve $-1 0 36.137354859663851 -12.43549828153666 1 0 0 I I #
point $-1 55.019989623706778 36.137354859663851 -12.43549828153666 #
point $-1 55.019989623706778 -36.137354859663851 -12.43549828153666 #
straight-curve $-1 -55.019989623706778 0 12.43549828153666 0 -1 0 I I #
point $-1 -55.019989623706778 36.137354859663851 12.43549828153666 #
point $-1 -55.019989623706778 -36.137354859663851 12.43549828153666 #
straight-curve $-1 55.019989623706778 -36.137354859663851 0 0 0 -1 I I #
straight-curve $-1 55.019989623706778 36.137354859663851 0 0 0 -1 I I #
plane-surface $-1 55.019989623706778 0 0 -1 0 0 0 0 1 forward_v I I I I #
coedge $-1 $383 $332 $248 $337 forward $242 $-1 #
coedge $-1 $249 $244 $383 $384 forward $160 $-1 #
edge $-1 $258 -7.0950538667883194 $385 7.0950538667883194 $256 $386 forward 7 unknown #
coedge $-1 $329 $387 $245 $333 reversed $242 $-1 #
edge $-1 $340 -55.019989623706778 $335 55.019989623706778 $332 $388 forward 7 unknown #
coedge $-1 $256 $246 $387 $389 forward $257 $-1 #
vertex $-1 $247 $390 #
straight-curve $-1 55.019989623706778 -43.232408726452171 -2.5006542179185836 0 1 0 I I #
edge $-1 $340 -2.5159046833030478 $338 2.5159046833030478 $248 $391 forward 7 unknown #
vertex $-1 $250 $392 #
straight-curve $-1 -55.019989623706778 -43.232408726452171 -7.5324635845246792 0 1 0 I I #
vertex $-1 $251 $393 #
straight-curve $-1 -55.019989623706778 -43.232408726452171 -2.5006542179185836 0 -1 0 I I #
point $-1 -55.019989623706778 -36.137354859663851 -7.5324635845246792 #
straight-curve $-1 0 -36.137354859663851 -7.5324635845246792 -1 0 0 I I #
point $-1 55.019989623706778 -36.137354859663851 -7.5324635845246792 #
plane-surface $-1 -55.019989623706778 0 0 1 0 0 0 0 -1 forward_v I I I I #
coedge $-1 $394 $348 $268 $352 forward $263 $-1 #
coedge $-1 $265 $356 $394 $395 forward $174 $-1 #
coedge $-1 $346 $396 $266 $349 reversed $263 $-1 #
edge $-1 $350 -55.019989623706778 $361 55.019989623706778 $348 $397 forward 7 unknown #
vertex $-1 $267 $398 #
straight-curve $-1 55.019989623706778 43.232408726452171 -2.5006542179185836 0 1 0 I I #
edge $-1 $350 -2.5159046833030478 $353 2.5159046833030478 $268 $399 forward 7 unknown #
vertex $-1 $269 $400 #
straight-curve $-1 55.019989623706778 43.232408726452171 -7.5324635845246792 0 -1 0 I I #
point $-1 55.019989623706778 36.137354859663851 -7.5324635845246792 #
coedge $-1 $347 $272 $275 $359 forward $174 $-1 #
straight-curve $-1 0 36.137354859663851 -7.5324635845246792 1 0 0 I I #
coedge $-1 $275 $274 $396 $401 forward $276 $-1 #
edge $-1 $277 -7.0950538667883194 $402 7.0950538667883194 $275 $403 forward 7 unknown #
point $-1 -55.019989623706778 36.137354859663851 -7.5324635845246792 #
vertex $-1 $349 $404 #
straight-curve $-1 -55.019989623706778 43.232408726452171 -2.5006542179185836 0 -1 0 I I #
coedge $-1 $293 $292 $285 $364 forward $282 $-1 #
edge $-1 $365 67.196064863628266 $368 75.396286533792477 $363 $405 forward 7 unknown #
vertex $-1 $297 $406 #
straight-curve $-1 34.291585507645259 -13.190396528081742 12.435498281536667 1 0 0 I I #
edge $-1 $368 -9.8450085513056536 $294 3.1542325977534773 $293 $407 forward 7 unknown #
vertex $-1 $367 $408 #
straight-curve $-1 -15.71234451998005 -13.190396528081742 88.530792146643009 -0.64278759981090561 0 0.7660444514056185 I I #
point $-1 48.139186824847727 -13.190396528081742 12.435498281536653 #
point $-1 55.019989623706778 -0.19115537902261082 4.2352766113724414 #
straight-curve $-1 55.019989623706778 0 12.43549828153666 0 1 0 I I #
vertex $-1 $300 $409 #
point $-1 50.070942776050387 -10.590548298269916 5.7640763652019116 #
vertex $-1 $304 $410 #
point $-1 50.070942776050387 -6.6907759535521762 5.7640763652019116 #
vertex $-1 $308 $411 #
point $-1 50.070942776050387 -2.791003608834437 5.7640763652019116 #
straight-curve $-1 -55.019989623706778 36.137354859663851 0 0 0 -1 I I #
point $-1 -55.019989623706778 -36.137354859663851 -12.43549828153666 #
straight-curve $-1 -55.019989623706778 0 -12.43549828153666 0 1 0 I I #
point $-1 -55.019989623706778 36.137354859663851 -12.43549828153666 #
coedge $-1 $387 $329 $330 $384 reversed $242 $-1 #
edge $-1 $385 -55.019989623706778 $338 55.019989623706778 $383 $412 forward 7 unknown #
vertex $-1 $389 $413 #
straight-curve $-1 55.019989623706778 -43.232408726452171 -7.5324635845246792 0 -1 0 I I #
coedge $-1 $332 $383 $334 $389 reversed $242 $-1 #
straight-curve $-1 0 -50.32746259324049 -2.5006542179185836 1 0 0 I I #
edge $-1 $335 -2.5159046833030478 $385 2.5159046833030478 $334 $414 forward 7 unknown #
point $-1 55.019989623706778 -50.32746259324049 -2.5006542179185836 #
straight-curve $-1 -55.019989623706778 -50.32746259324049 -5.0165589012216314 0 0 -1 I I #
point $-1 -55.019989623706778 -50.32746259324049 -7.5324635845246792 #
point $-1 -55.019989623706778 -50.32746259324049 -2.5006542179185836 #
coedge $-1 $396 $346 $347 $395 reversed $263 $-1 #
edge $-1 $402 -55.019989623706778 $353 55.019989623706778 $394 $415 forward 7 unknown #
coedge $-1 $348 $394 $358 $401 reversed $263 $-1 #
straight-curve $-1 0 50.32746259324049 -2.5006542179185836 -1 0 0 I I #
point $-1 55.019989623706778 50.32746259324049 -2.5006542179185836 #
straight-curve $-1 55.019989623706778 50.32746259324049 -5.0165589012216314 0 0 -1 I I #
point $-1 55.019989623706778 50.32746259324049 -7.5324635845246792 #
edge $-1 $361 -2.5159046833030478 $402 2.5159046833030478 $396 $416 forward 7 unknown #
vertex $-1 $395 $417 #
straight-curve $-1 -55.019989623706778 43.232408726452171 -7.5324635845246792 0 1 0 I I #
point $-1 -55.019989623706778 50.32746259324049 -2.5006542179185836 #
straight-curve $-1 55.019989623706778 -13.190396528081742 79.631563145164918 0 0 -1 I I #
point $-1 55.019989623706778 -13.190396528081742 12.43549828153666 #
straight-curve $-1 55.019989623706763 -3.3453879767760881 4.2352766113724556 0 1 0 I I #
point $-1 55.019989623706778 -13.190396528081742 4.2352766113724414 #
point $-1 48.662110724833859 -10.590548298269916 5.887333216796625 #
point $-1 48.662110724833859 -6.6907759535521762 5.887333216796625 #
point $-1 48.662110724833859 -2.791003608834437 5.887333216796625 #
straight-curve $-1 0 -50.32746259324049 -7.5324635845246792 -1 0 0 I I #
point $-1 55.019989623706778 -50.32746259324049 -7.5324635845246792 #
straight-curve $-1 55.019989623706778 -50.32746259324049 -5.0165589012216314 0 0 -1 I I #
straight-curve $-1 0 50.32746259324049 -7.5324635845246792 1 0 0 I I #
straight-curve $-1 -55.019989623706778 50.32746259324049 -5.0165589012216314 0 0 -1 I I #
point $-1 -55.019989623706778 50.32746259324049 -7.5324635845246792 #
End-of-ACIS-data 