500 0 8 0           
7 Unknown 11 ACIS 5.0 NT 24 Thu Mar 25 16:26:52 1999 
-1 9.9999999999999995e-007 1e-010 
body $-1 $8 $-1 $9 #
body $-1 $10 $-1 $11 #
body $-1 $12 $-1 $13 #
body $-1 $14 $-1 $15 #
body $-1 $16 $-1 $17 #
body $-1 $18 $-1 $19 #
body $-1 $20 $-1 $21 #
body $-1 $22 $-1 $23 #
lump $-1 $-1 $24 $0 #
transform $-1 1 0 0 0 1 0 0 0 1 69.007232886745811 41.115186221645246 10.507604630838328 1 rotate no_reflect no_shear #
lump $-1 $-1 $25 $1 #
transform $-1 1 0 0 0 1 0 0 0 1 69.007232886745811 41.115186221645246 10.507604630838328 1 rotate no_reflect no_shear #
lump $-1 $-1 $26 $2 #
transform $-1 1 0 0 0 1 0 0 0 1 69.007232886745811 41.115186221645246 10.507604630838328 1 rotate no_reflect no_shear #
lump $-1 $-1 $27 $3 #
transform $-1 1 0 0 0 1 0 0 0 1 69.007232886745811 41.115186221645246 10.507604630838328 1 rotate no_reflect no_shear #
lump $-1 $-1 $28 $4 #
transform $-1 1 0 0 0 1 0 0 0 1 69.007232886745811 41.115186221645246 10.507604630838328 1 rotate no_reflect no_shear #
lump $-1 $-1 $29 $5 #
transform $-1 1 0 0 0 1 0 0 0 1 69.007232886745811 41.115186221645246 10.507604630838328 1 rotate no_reflect no_shear #
lump $-1 $-1 $30 $6 #
transform $-1 1 0 0 0 1 0 0 0 1 69.007232886745811 41.115186221645246 10.507604630838328 1 rotate no_reflect no_shear #
lump $-1 $-1 $31 $7 #
transform $-1 1 0 0 0 1 0 0 0 1 69.007232886745811 41.115186221645246 10.507604630838328 1 rotate no_reflect no_shear #
shell $-1 $-1 $-1 $32 $-1 $8 #
shell $-1 $-1 $-1 $33 $-1 $10 #
shell $-1 $-1 $-1 $34 $-1 $12 #
shell $-1 $-1 $-1 $35 $-1 $14 #
shell $-1 $-1 $-1 $36 $-1 $16 #
shell $-1 $-1 $-1 $37 $-1 $18 #
shell $-1 $-1 $-1 $38 $-1 $20 #
shell $-1 $-1 $-1 $39 $-1 $22 #
face $-1 $40 $41 $24 $-1 $42 forward single #
face $-1 $43 $44 $25 $-1 $45 forward single #
face $-1 $46 $47 $26 $-1 $48 reversed single #
face $-1 $49 $50 $27 $-1 $51 forward single #
face $-1 $52 $53 $28 $-1 $54 forward single #
face $-1 $55 $56 $29 $-1 $57 reversed single #
face $-1 $58 $59 $30 $-1 $60 forward single #
face $-1 $61 $62 $31 $-1 $63 forward single #
face $-1 $64 $65 $24 $-1 $66 reversed single #
loop $-1 $-1 $67 $32 #
plane-surface $-1 0 0 10.507604630838328 0 0 1 1 0 0 forward_v I I I I #
face $-1 $68 $69 $25 $-1 $70 reversed single #
loop $-1 $-1 $71 $33 #
plane-surface $-1 0 -37.034219473251916 -4.3742830667543391 0 0 1 1 0 0 forward_v I I I I #
face $-1 $72 $73 $26 $-1 $74 reversed single #
loop $-1 $-1 $75 $34 #
plane-surface $-1 -173.16807355927136 -19.373989139804188 92.826075434282529 0 1 0 -0.75470958851134928 0 0.65605901945558964 forward_v I I I I #
face $-1 $76 $77 $27 $-1 $78 forward single #
loop $-1 $79 $80 $35 #
cone-surface $-1 -62.602669466024736 -14.607715819684174 3.9350875764435829 0.75470958851134928 0 -0.65605901945558964 1.3121180389111793 0 1.5094191770226986 1 I I 0 1 2 forward I I I I #
face $-1 $81 $82 $28 $-1 $83 forward single #
loop $-1 $84 $85 $36 #
cone-surface $-1 -62.602669466024736 -7.4583058395041562 3.9350875764435829 0.75470958851134928 0 -0.65605901945558964 1.3121180389111793 0 1.5094191770226986 1 I I 0 1 2 forward I I I I #
face $-1 $86 $87 $29 $-1 $88 reversed single #
loop $-1 $-1 $89 $37 #
plane-surface $-1 79.222268210304577 16.222948321956284 198.25318892299674 0 -1 0 -0.74314483375859142 0 -0.66913059716165679 forward_v I I I I #
face $-1 $90 $91 $30 $-1 $92 forward single #
loop $-1 $93 $94 $38 #
cone-surface $-1 62.961192988109907 1.7891144132268693 4.3852921025719329 -0.74314483375859142 0 -0.66913059716165679 1.3382611943233136 0 -1.4862896675171828 1 I I 0 1 2 forward I I I I #
face $-1 $95 $96 $31 $-1 $97 forward single #
loop $-1 $98 $99 $39 #
cone-surface $-1 62.961192988109907 10.449414758464513 4.3852921025719329 -0.74314483375859142 0 -0.66913059716165679 1.3382611943233136 0 -1.4862896675171828 1 I I 0 1 2 forward I I I I #
face $-1 $100 $101 $24 $-1 $102 reversed single #
loop $-1 $-1 $103 $40 #
plane-surface $-1 0 0 -10.507604630838328 0 0 1 1 0 0 forward_v I I I I #
coedge $-1 $104 $105 $106 $107 forward $41 $-1 #
face $-1 $108 $109 $25 $-1 $110 reversed single #
loop $-1 $-1 $111 $43 #
plane-surface $-1 0 -32.953252724858586 -7.4409438487963335 0 -1 0 0 0 -1 forward_v I I I I #
coedge $-1 $112 $113 $114 $115 reversed $44 $-1 #
face $-1 $116 $117 $26 $-1 $118 reversed single #
loop $-1 $-1 $119 $46 #
plane-surface $-1 -69.007232886745797 -11.033010829594165 2.2804403482385851 -0.75470958851134928 0 0.65605901945558964 0.65605901945558964 0 0.75470958851134928 forward_v I I I I #
coedge $-1 $120 $121 $122 $123 reversed $47 $-1 #
face $-1 $-1 $124 $27 $-1 $125 forward single #
loop $-1 $126 $127 $49 #
cone-surface $-1 -59.019278765899386 -14.607715819684174 0.82009364389311479 0.75470958851134928 0 -0.65605901945558964 0.65605901945558964 0 0.75470958851134928 1 I I -0.70710678118654746 0.70710678118654746 1 forward I I I I #
loop $-1 $-1 $128 $35 #
coedge $-1 $80 $80 $129 $130 reversed $50 $-1 #
face $-1 $-1 $131 $28 $-1 $132 forward single #
loop $-1 $133 $134 $52 #
cone-surface $-1 -59.019278765899386 -7.4583058395041562 0.82009364389311479 0.75470958851134928 0 -0.65605901945558964 0.65605901945558964 0 0.75470958851134928 1 I I -0.70710678118654746 0.70710678118654746 1 forward I I I I #
loop $-1 $-1 $135 $36 #
coedge $-1 $85 $85 $136 $137 reversed $53 $-1 #
face $-1 $138 $139 $29 $-1 $140 reversed single #
loop $-1 $-1 $141 $55 #
plane-surface $-1 -23.342469013217666 6.1192645858456984 105.90348702303325 0.74314483375859142 0 0.66913059716165679 0.66913059716165679 0 -0.74314483375859142 forward_v I I I I #
coedge $-1 $142 $143 $144 $145 reversed $56 $-1 #
face $-1 $-1 $146 $30 $-1 $147 forward single #
loop $-1 $148 $149 $58 #
cone-surface $-1 59.399441116945269 1.7891144132268693 1.1782763928075486 -0.74314483375859142 0 -0.66913059716165679 0.66913059716165679 0 -0.74314483375859142 1 I I -0.70710678118654746 0.70710678118654746 1 forward I I I I #
loop $-1 $-1 $150 $38 #
coedge $-1 $94 $94 $151 $152 reversed $59 $-1 #
face $-1 $-1 $153 $31 $-1 $154 forward single #
loop $-1 $155 $156 $61 #
cone-surface $-1 59.399441116945269 10.449414758464513 1.1782763928075486 -0.74314483375859142 0 -0.66913059716165679 0.66913059716165679 0 -0.74314483375859142 1 I I -0.70710678118654746 0.70710678118654746 1 forward I I I I #
loop $-1 $-1 $157 $39 #
coedge $-1 $99 $99 $158 $159 reversed $62 $-1 #
face $-1 $160 $161 $24 $-1 $162 reversed single #
loop $-1 $-1 $163 $64 #
plane-surface $-1 0 -41.115186221645246 0 0 1 0 0 0 1 forward_v I I I I #
coedge $-1 $164 $165 $166 $167 forward $65 $-1 #
coedge $-1 $168 $67 $169 $170 forward $41 $-1 #
coedge $-1 $67 $168 $171 $172 forward $41 $-1 #
coedge $-1 $173 $174 $67 $107 reversed $175 $-1 #
edge $-1 $176 -41.115186221645246 $177 41.115186221645246 $106 $178 forward 7 unknown #
face $-1 $179 $180 $25 $-1 $181 reversed single #
loop $-1 $-1 $182 $68 #
plane-surface $-1 0 0 -10.507604630838328 0 0 1 1 0 0 forward_v I I I I #
coedge $-1 $183 $184 $185 $186 reversed $69 $-1 #
coedge $-1 $187 $71 $184 $188 forward $44 $-1 #
coedge $-1 $71 $187 $189 $190 reversed $44 $-1 #
coedge $-1 $191 $185 $71 $115 forward $180 $-1 #
edge $-1 $192 14.436142988232628 $193 22.598076485019288 $114 $194 forward 7 unknown #
face $-1 $195 $196 $26 $-1 $197 forward single #
loop $-1 $-1 $198 $72 #
plane-surface $-1 -173.16807355927136 -2.6920325193841421 92.826075434282529 0 -1 0 0.75470958851134928 0 -0.65605901945558964 forward_v I I I I #
coedge $-1 $199 $200 $201 $202 reversed $73 $-1 #
coedge $-1 $121 $75 $203 $204 reversed $47 $-1 #
coedge $-1 $75 $120 $199 $205 reversed $47 $-1 #
coedge $-1 $201 $206 $75 $123 forward $196 $-1 #
edge $-1 $207 17.57680389288987 $208 24.728568511104044 $122 $209 forward 7 unknown #
loop $-1 $-1 $129 $76 #
plane-surface $-1 -69.007232886745797 -11.033010829594165 2.2804403482385851 -0.75470958851134928 0 0.65605901945558964 0.65605901945558964 0 0.75470958851134928 forward_v I I I I #
loop $-1 $-1 $210 $49 #
coedge $-1 $127 $127 $128 $211 reversed $77 $-1 #
coedge $-1 $128 $128 $127 $211 forward $79 $-1 #
coedge $-1 $129 $129 $80 $130 forward $124 $-1 #
edge $-1 $212 0 $212 6.2831853071796004 $129 $213 forward 7 unknown #
loop $-1 $-1 $136 $81 #
plane-surface $-1 -69.007232886745797 -11.033010829594165 2.2804403482385851 -0.75470958851134928 0 0.65605901945558964 0.65605901945558964 0 0.75470958851134928 forward_v I I I I #
loop $-1 $-1 $214 $52 #
coedge $-1 $134 $134 $135 $215 reversed $82 $-1 #
coedge $-1 $135 $135 $134 $215 forward $84 $-1 #
coedge $-1 $136 $136 $85 $137 forward $131 $-1 #
edge $-1 $216 0 $216 6.2831853071796004 $136 $217 forward 7 unknown #
face $-1 $218 $219 $29 $-1 $220 reversed single #
loop $-1 $-1 $221 $86 #
plane-surface $-1 79.222268210304577 -3.9844191502648876 198.25318892299674 0 1 0 0.74314483375859142 0 0.66913059716165679 forward_v I I I I #
coedge $-1 $222 $223 $224 $225 reversed $87 $-1 #
coedge $-1 $143 $89 $226 $227 reversed $56 $-1 #
coedge $-1 $89 $142 $222 $228 reversed $56 $-1 #
coedge $-1 $224 $229 $89 $145 forward $230 $-1 #
edge $-1 $231 -29.396098781593523 $232 -22.941233059133936 $144 $233 forward 7 unknown #
loop $-1 $-1 $151 $90 #
plane-surface $-1 -23.342469013217666 6.1192645858456984 105.90348702303325 0.74314483375859142 0 0.66913059716165679 0.66913059716165679 0 -0.74314483375859142 forward_v I I I I #
loop $-1 $-1 $234 $58 #
coedge $-1 $149 $149 $150 $235 reversed $91 $-1 #
coedge $-1 $150 $150 $149 $235 forward $93 $-1 #
coedge $-1 $151 $151 $94 $152 forward $146 $-1 #
edge $-1 $236 0 $236 6.2831853071796004 $151 $237 forward 7 unknown #
loop $-1 $-1 $158 $95 #
plane-surface $-1 -23.342469013217666 6.1192645858456984 105.90348702303325 0.74314483375859142 0 0.66913059716165679 0.66913059716165679 0 -0.74314483375859142 forward_v I I I I #
loop $-1 $-1 $238 $61 #
coedge $-1 $156 $156 $157 $239 reversed $96 $-1 #
coedge $-1 $157 $157 $156 $239 forward $98 $-1 #
coedge $-1 $158 $158 $99 $159 forward $153 $-1 #
edge $-1 $240 0 $240 6.2831853071796004 $158 $241 forward 7 unknown #
face $-1 $242 $243 $24 $-1 $244 reversed single #
loop $-1 $-1 $245 $100 #
plane-surface $-1 -69.007232886745811 0 0 1 0 0 0 0 -1 forward_v I I I I #
coedge $-1 $246 $171 $247 $248 forward $101 $-1 #
coedge $-1 $249 $103 $246 $250 forward $65 $-1 #
coedge $-1 $103 $249 $251 $252 forward $65 $-1 #
coedge $-1 $174 $173 $103 $167 reversed $175 $-1 #
edge $-1 $253 -41.115186221645246 $254 41.115186221645246 $166 $255 forward 7 unknown #
coedge $-1 $105 $104 $256 $257 forward $41 $-1 #
coedge $-1 $258 $259 $104 $170 reversed $243 $-1 #
edge $-1 $177 -69.007232886745811 $260 69.007232886745811 $169 $261 forward 7 unknown #
coedge $-1 $163 $262 $105 $172 reversed $101 $-1 #
edge $-1 $263 -69.007232886745811 $176 69.007232886745811 $171 $264 forward 7 unknown #
coedge $-1 $166 $106 $262 $265 forward $175 $-1 #
coedge $-1 $106 $166 $258 $266 reversed $175 $-1 #
loop $-1 $-1 $173 $242 #
vertex $-1 $107 $267 #
vertex $-1 $107 $268 #
straight-curve $-1 69.007232886745811 0 10.507604630838328 0 1 0 I I #
face $-1 $269 $270 $25 $-1 $271 reversed single #
loop $-1 $-1 $185 $108 #
plane-surface $-1 69.007232886745811 0 0 -1 0 0 0 0 1 forward_v I I I I #
coedge $-1 $272 $273 $183 $274 forward $109 $-1 #
coedge $-1 $275 $111 $182 $274 reversed $69 $-1 #
coedge $-1 $111 $275 $112 $188 reversed $69 $-1 #
coedge $-1 $114 $276 $111 $186 forward $180 $-1 #
edge $-1 $277 -6.7871327064401612 $192 -0.65381114235617233 $185 $278 forward 7 unknown #
coedge $-1 $113 $112 $279 $280 reversed $44 $-1 #
edge $-1 $192 -69.007232886745811 $281 69.007232886745811 $184 $282 forward 7 unknown #
coedge $-1 $283 $284 $113 $190 forward $270 $-1 #
edge $-1 $193 -69.007232886745811 $285 69.007232886745811 $189 $286 forward 7 unknown #
coedge $-1 $276 $114 $284 $287 forward $180 $-1 #
vertex $-1 $115 $288 #
vertex $-1 $287 $289 #
straight-curve $-1 69.007232886745811 -18.517109736625958 -4.3742830667543391 0 -1 0 I I #
face $-1 $-1 $290 $26 $-1 $291 reversed single #
loop $-1 $-1 $122 $116 #
plane-surface $-1 0 0 10.507604630838328 0 0 1 1 0 0 forward_v I I I I #
coedge $-1 $292 $293 $294 $295 reversed $117 $-1 #
coedge $-1 $296 $119 $121 $205 forward $73 $-1 #
coedge $-1 $119 $296 $292 $297 forward $73 $-1 #
coedge $-1 $294 $122 $119 $202 forward $196 $-1 #
edge $-1 $208 -13.857483725007105 $298 2.8244728954129403 $201 $299 forward 7 unknown #
coedge $-1 $300 $301 $120 $204 forward $290 $-1 #
edge $-1 $302 -44.132597368902694 $207 -35.905433086302935 $203 $303 forward 7 unknown #
edge $-1 $208 -10.901099453138887 $302 2.1724019648727301e-014 $121 $304 forward 7 unknown #
coedge $-1 $122 $294 $300 $305 forward $196 $-1 #
vertex $-1 $204 $306 #
vertex $-1 $123 $307 #
straight-curve $-1 -86.584036779635682 -19.373989139804188 10.50760463083833 1 0 0 I I #
coedge $-1 $210 $210 $-1 $308 reversed $126 $-1 #
edge $-1 $309 0 $309 6.2831853071796004 $127 $310 forward 7 unknown #
vertex $-1 $130 $311 #
ellipse-curve $-1 -65.431350577638725 -14.607715819684174 6.3940224895384503 -0.75470958851134928 0 0.65605901945558964 1.3121180389111793 0 1.5094191770226986 1 I I #
coedge $-1 $214 $214 $-1 $312 reversed $133 $-1 #
edge $-1 $313 0 $313 6.2831853071796004 $134 $314 forward 7 unknown #
vertex $-1 $137 $315 #
ellipse-curve $-1 -65.431350577638725 -7.4583058395041562 6.3940224895384503 -0.75470958851134928 0 0.65605901945558964 1.3121180389111793 0 1.5094191770226986 1 I I #
face $-1 $-1 $230 $29 $-1 $316 forward single #
loop $-1 $-1 $317 $138 #
plane-surface $-1 69.007232886745811 0 0 -1 0 0 0 0 1 forward_v I I I I #
coedge $-1 $318 $319 $320 $321 reversed $139 $-1 #
coedge $-1 $322 $141 $143 $228 forward $87 $-1 #
coedge $-1 $141 $322 $318 $323 forward $87 $-1 #
coedge $-1 $320 $144 $141 $225 forward $230 $-1 #
edge $-1 $232 -13.163316029033435 $324 7.0440514431877368 $224 $325 forward 7 unknown #
coedge $-1 $326 $327 $142 $227 forward $219 $-1 #
edge $-1 $328 -95.787844661987336 $231 -88.618989830660041 $226 $329 forward 7 unknown #
edge $-1 $232 128.3678201861577 $328 138.01446577349159 $143 $330 forward 7 unknown #
coedge $-1 $144 $320 $326 $331 forward $230 $-1 #
loop $-1 $-1 $320 $218 #
vertex $-1 $227 $332 #
vertex $-1 $145 $333 #
straight-curve $-1 39.611134105152288 16.222948321956284 10.50760463083833 -1 0 0 I I #
coedge $-1 $234 $234 $-1 $334 reversed $148 $-1 #
edge $-1 $335 0 $335 6.2831853071796004 $149 $336 forward 7 unknown #
vertex $-1 $152 $337 #
ellipse-curve $-1 65.779800025515996 1.7891144132268693 6.9231772151746922 0.74314483375859142 0 0.66913059716165679 1.3382611943233136 0 -1.4862896675171828 1 I I #
coedge $-1 $238 $238 $-1 $338 reversed $155 $-1 #
edge $-1 $339 0 $339 6.2831853071796004 $156 $340 forward 7 unknown #
vertex $-1 $159 $341 #
ellipse-curve $-1 65.779800025515996 10.449414758464513 6.9231772151746922 0.74314483375859142 0 0.66913059716165679 1.3382611943233136 0 -1.4862896675171828 1 I I #
face $-1 $-1 $175 $24 $-1 $342 reversed single #
loop $-1 $-1 $258 $160 #
plane-surface $-1 0 41.115186221645246 0 0 -1 0 0 0 -1 forward_v I I I I #
coedge $-1 $343 $256 $259 $344 forward $161 $-1 #
coedge $-1 $262 $163 $164 $250 reversed $101 $-1 #
coedge $-1 $256 $343 $163 $248 reversed $161 $-1 #
edge $-1 $263 -10.507604630838328 $345 10.507604630838328 $247 $346 forward 7 unknown #
coedge $-1 $165 $164 $343 $347 forward $65 $-1 #
edge $-1 $254 -69.007232886745811 $345 69.007232886745811 $246 $348 forward 7 unknown #
coedge $-1 $259 $258 $165 $252 reversed $243 $-1 #
edge $-1 $349 -69.007232886745811 $253 69.007232886745811 $251 $350 forward 7 unknown #
vertex $-1 $167 $351 #
vertex $-1 $265 $352 #
straight-curve $-1 69.007232886745811 0 -10.507604630838328 0 -1 0 I I #
coedge $-1 $245 $247 $168 $257 reversed $161 $-1 #
edge $-1 $260 -41.115186221645246 $263 41.115186221645246 $256 $353 forward 7 unknown #
coedge $-1 $251 $169 $174 $266 forward $243 $-1 #
coedge $-1 $169 $251 $245 $344 reversed $243 $-1 #
vertex $-1 $170 $354 #
straight-curve $-1 0 41.115186221645246 10.507604630838328 -1 0 0 I I #
coedge $-1 $171 $246 $173 $265 reversed $101 $-1 #
vertex $-1 $257 $355 #
straight-curve $-1 0 -41.115186221645246 10.507604630838328 1 0 0 I I #
edge $-1 $176 -10.507604630838328 $254 10.507604630838328 $173 $356 forward 7 unknown #
edge $-1 $177 -10.507604630838328 $253 10.507604630838328 $174 $357 forward 7 unknown #
point $-1 69.007232886745811 -41.115186221645246 10.507604630838328 #
point $-1 69.007232886745811 41.115186221645246 10.507604630838328 #
face $-1 $-1 $358 $25 $-1 $359 reversed single #
loop $-1 $-1 $189 $179 #
plane-surface $-1 0 -41.115186221645246 0 0 1 0 0 0 1 forward_v I I I I #
coedge $-1 $360 $182 $276 $361 forward $109 $-1 #
coedge $-1 $182 $360 $362 $363 forward $109 $-1 #
edge $-1 $364 -69.007232886745811 $277 69.007232886745811 $182 $365 forward 7 unknown #
coedge $-1 $184 $183 $366 $367 reversed $69 $-1 #
coedge $-1 $185 $191 $272 $361 reversed $180 $-1 #
vertex $-1 $361 $368 #
straight-curve $-1 69.007232886745811 -32.953252724858586 -3.7204719243981668 0 0 1 I I #
coedge $-1 $366 $369 $187 $280 forward $358 $-1 #
edge $-1 $285 -22.598076485019288 $281 -14.436142988232628 $279 $370 forward 7 unknown #
vertex $-1 $280 $371 #
straight-curve $-1 0 -32.953252724858586 -4.3742830667543391 -1 0 0 I I #
coedge $-1 $372 $189 $369 $373 forward $270 $-1 #
coedge $-1 $189 $372 $191 $287 reversed $270 $-1 #
vertex $-1 $373 $374 #
straight-curve $-1 0 -41.115186221645246 -4.3742830667543391 -1 0 0 I I #
edge $-1 $193 4.3742830667543391 $375 10.507604630838328 $191 $376 forward 7 unknown #
point $-1 69.007232886745811 -32.953252724858586 -4.3742830667543391 #
point $-1 69.007232886745811 -41.115186221645246 -4.3742830667543391 #
loop $-1 $-1 $203 $195 #
plane-surface $-1 -69.007232886745811 0 0 1 0 0 0 0 -1 forward_v I I I I #
coedge $-1 $293 $198 $200 $297 reversed $117 $-1 #
coedge $-1 $198 $292 $377 $378 reversed $117 $-1 #
coedge $-1 $206 $201 $198 $295 forward $196 $-1 #
edge $-1 $298 -24.728568511104044 $379 -17.57680389288987 $294 $380 forward 7 unknown #
coedge $-1 $200 $199 $301 $381 reversed $73 $-1 #
edge $-1 $382 -2.1724019648727301e-014 $298 10.901099453138887 $292 $383 forward 7 unknown #
vertex $-1 $202 $384 #
straight-curve $-1 -61.855468268531631 -5.5165054147970825 10.507604630838328 0 1 0 I I #
coedge $-1 $377 $203 $206 $305 reversed $290 $-1 #
coedge $-1 $203 $377 $296 $381 forward $290 $-1 #
vertex $-1 $204 $385 #
straight-curve $-1 -69.007232886745811 -19.373989139804188 46.413037717141265 0 0 1 I I #
straight-curve $-1 -69.007232886745797 -19.373989139804188 2.2804403482385851 -0.65605901945558964 0 -0.75470958851134928 I I #
edge $-1 $379 2.6920325193841421 $207 19.373989139804188 $300 $386 forward 7 unknown #
point $-1 -69.007232886745811 -19.373989139804188 10.507604630838328 #
point $-1 -61.855468268531638 -19.373989139804188 10.507604630838328 #
edge $-1 $387 1 $387 0 $210 $-1 forward 7 unknown #
vertex $-1 $211 $388 #
ellipse-curve $-1 -59.773988354410733 -14.607715819684174 1.4761526633487043 -0.75470958851134928 0 0.65605901945558964 1.3121180389111793 0 1.5094191770226986 1 I I #
point $-1 -64.119232538727545 -14.607715819684174 7.9034416665611591 #
edge $-1 $389 1 $389 0 $214 $-1 forward 7 unknown #
vertex $-1 $215 $390 #
ellipse-curve $-1 -59.773988354410733 -7.4583058395041562 1.4761526633487043 -0.75470958851134928 0 0.65605901945558964 1.3121180389111793 0 1.5094191770226986 1 I I #
point $-1 -64.119232538727545 -7.4583058395041562 7.9034416665611591 #
plane-surface $-1 0 0 10.507604630838328 0 0 1 1 0 0 forward_v I I I I #
coedge $-1 $327 $326 $319 $391 forward $219 $-1 #
coedge $-1 $319 $221 $223 $323 reversed $139 $-1 #
coedge $-1 $221 $318 $317 $391 reversed $139 $-1 #
coedge $-1 $229 $224 $221 $321 forward $230 $-1 #
edge $-1 $324 22.941233059133936 $392 29.396098781593523 $320 $393 forward 7 unknown #
coedge $-1 $223 $222 $327 $394 reversed $87 $-1 #
edge $-1 $395 -138.01446577349159 $324 -128.3678201861577 $318 $396 forward 7 unknown #
vertex $-1 $225 $397 #
straight-curve $-1 62.55236716428621 3.0596322929228492 10.50760463083833 0 -1 0 I I #
coedge $-1 $317 $226 $229 $331 reversed $219 $-1 #
coedge $-1 $226 $317 $322 $394 forward $219 $-1 #
vertex $-1 $227 $398 #
straight-curve $-1 69.007232886745811 16.222948321956284 99.126594461498371 0 0 1 I I #
straight-curve $-1 -23.342469013217666 16.222948321956284 105.90348702303325 0.66913059716165679 0 -0.74314483375859142 I I #
edge $-1 $392 -3.9844191502648876 $231 16.222948321956284 $326 $399 forward 7 unknown #
point $-1 69.007232886745811 16.222948321956284 10.507604630838328 #
point $-1 62.552367164286224 16.222948321956284 10.50760463083833 #
edge $-1 $400 1 $400 0 $234 $-1 forward 7 unknown #
vertex $-1 $235 $401 #
ellipse-curve $-1 60.142585950703861 1.7891144132268693 1.8474069899692054 0.74314483375859142 0 0.66913059716165679 1.3382611943233136 0 -1.4862896675171828 1 I I #
point $-1 67.118061219839277 1.7891144132268693 5.4368875476574763 #
edge $-1 $402 1 $402 0 $238 $-1 forward 7 unknown #
vertex $-1 $239 $403 #
ellipse-curve $-1 60.142585950703861 10.449414758464513 1.8474069899692054 0.74314483375859142 0 0.66913059716165679 1.3382611943233136 0 -1.4862896675171828 1 I I #
point $-1 67.118061219839277 10.449414758464513 5.4368875476574763 #
plane-surface $-1 69.007232886745811 0 0 -1 0 0 0 0 1 forward_v I I I I #
coedge $-1 $247 $245 $249 $347 reversed $161 $-1 #
edge $-1 $260 -10.507604630838328 $349 10.507604630838328 $259 $404 forward 7 unknown #
vertex $-1 $347 $405 #
straight-curve $-1 -69.007232886745811 -41.115186221645246 0 0 0 -1 I I #
edge $-1 $345 -41.115186221645246 $349 41.115186221645246 $343 $406 forward 7 unknown #
straight-curve $-1 0 -41.115186221645246 -10.507604630838328 -1 0 0 I I #
vertex $-1 $252 $407 #
straight-curve $-1 0 41.115186221645246 -10.507604630838328 1 0 0 I I #
point $-1 69.007232886745811 41.115186221645246 -10.507604630838328 #
point $-1 69.007232886745811 -41.115186221645246 -10.507604630838328 #
straight-curve $-1 -69.007232886745811 0 10.507604630838328 0 -1 0 I I #
point $-1 -69.007232886745811 41.115186221645246 10.507604630838328 #
point $-1 -69.007232886745811 -41.115186221645246 10.507604630838328 #
straight-curve $-1 69.007232886745811 -41.115186221645246 0 0 0 -1 I I #
straight-curve $-1 69.007232886745811 41.115186221645246 0 0 0 -1 I I #
loop $-1 $-1 $366 $269 #
plane-surface $-1 -69.007232886745811 0 0 1 0 0 0 0 -1 forward_v I I I I #
coedge $-1 $273 $272 $372 $408 forward $109 $-1 #
edge $-1 $277 32.953252724858586 $375 41.115186221645246 $276 $409 forward 7 unknown #
coedge $-1 $369 $366 $273 $363 reversed $358 $-1 #
edge $-1 $410 -41.115186221645246 $364 -32.953252724858586 $362 $411 forward 7 unknown #
vertex $-1 $367 $412 #
straight-curve $-1 0 -32.953252724858586 -10.507604630838328 1 0 0 I I #
coedge $-1 $362 $279 $275 $367 forward $358 $-1 #
edge $-1 $281 0.65381114235617233 $364 6.7871327064401612 $366 $413 forward 7 unknown #
point $-1 69.007232886745811 -32.953252724858586 -10.507604630838328 #
coedge $-1 $279 $362 $283 $373 reversed $358 $-1 #
straight-curve $-1 -69.007232886745811 -18.517109736625958 -4.3742830667543391 0 1 0 I I #
point $-1 -69.007232886745811 -32.953252724858586 -4.3742830667543391 #
coedge $-1 $284 $283 $360 $408 reversed $270 $-1 #
edge $-1 $285 4.3742830667543391 $410 10.507604630838328 $369 $414 forward 7 unknown #
point $-1 -69.007232886745811 -41.115186221645246 -4.3742830667543391 #
vertex $-1 $287 $415 #
straight-curve $-1 69.007232886745811 -41.115186221645246 0 0 0 -1 I I #
coedge $-1 $301 $300 $293 $378 forward $290 $-1 #
edge $-1 $379 35.905433086302935 $382 44.132597368902694 $377 $416 forward 7 unknown #
vertex $-1 $305 $417 #
straight-curve $-1 -86.584036779635682 -2.6920325193841421 10.50760463083833 -1 0 0 I I #
edge $-1 $382 -2.8244728954129403 $302 13.857483725007105 $301 $418 forward 7 unknown #
vertex $-1 $381 $419 #
straight-curve $-1 -69.007232886745797 -2.6920325193841421 2.2804403482385851 0.65605901945558964 0 0.75470958851134928 I I #
point $-1 -61.855468268531638 -2.6920325193841421 10.507604630838328 #
point $-1 -69.007232886745811 -19.373989139804188 2.2804403482385687 #
straight-curve $-1 -69.007232886745811 0 10.507604630838328 0 -1 0 I I #
vertex $-1 $308 $420 #
point $-1 -58.461870315499553 -14.607715819684174 2.9855718403714029 #
vertex $-1 $312 $421 #
point $-1 -58.461870315499553 -7.4583058395041562 2.9855718403714029 #
edge $-1 $392 88.618989830660041 $395 95.787844661987336 $317 $422 forward 7 unknown #
vertex $-1 $331 $423 #
straight-curve $-1 39.611134105152288 -3.9844191502648876 10.50760463083833 1 0 0 I I #
edge $-1 $395 -7.0440514431877368 $328 13.163316029033435 $327 $424 forward 7 unknown #
vertex $-1 $394 $425 #
straight-curve $-1 -23.342469013217666 -3.9844191502648876 105.90348702303325 -0.66913059716165679 0 0.74314483375859142 I I #
point $-1 62.552367164286224 -3.9844191502648876 10.50760463083833 #
point $-1 69.007232886745811 16.222948321956284 3.3387497995110351 #
straight-curve $-1 69.007232886745811 0 10.507604630838328 0 1 0 I I #
vertex $-1 $334 $426 #
point $-1 61.480847145027177 1.7891144132268693 0.36111732245202255 #
vertex $-1 $338 $427 #
point $-1 61.480847145027177 10.449414758464513 0.36111732245202255 #
straight-curve $-1 -69.007232886745811 41.115186221645246 0 0 0 -1 I I #
point $-1 -69.007232886745811 -41.115186221645246 -10.507604630838328 #
straight-curve $-1 -69.007232886745811 0 -10.507604630838328 0 1 0 I I #
point $-1 -69.007232886745811 41.115186221645246 -10.507604630838328 #
edge $-1 $375 -69.007232886745811 $410 69.007232886745811 $372 $428 forward 7 unknown #
straight-curve $-1 69.007232886745811 0 -10.507604630838328 0 -1 0 I I #
vertex $-1 $363 $429 #
straight-curve $-1 -69.007232886745811 0 -10.507604630838328 0 1 0 I I #
point $-1 -69.007232886745811 -32.953252724858586 -10.507604630838328 #
straight-curve $-1 -69.007232886745811 -32.953252724858586 -3.7204719243981668 0 0 -1 I I #
straight-curve $-1 -69.007232886745811 -41.115186221645246 0 0 0 -1 I I #
point $-1 69.007232886745811 -41.115186221645246 -10.507604630838328 #
straight-curve $-1 -69.007232886745811 -2.6920325193841421 46.413037717141265 0 0 -1 I I #
point $-1 -69.007232886745811 -2.6920325193841421 10.507604630838328 #
straight-curve $-1 -69.007232886745811 -5.5165054147970825 2.280440348238582 0 -1 0 I I #
point $-1 -69.007232886745811 -2.6920325193841421 2.2804403482385687 #
point $-1 -58.26456917738804 -14.607715819684174 0.16403462443752514 #
point $-1 -58.26456917738804 -7.4583058395041562 0.16403462443752514 #
straight-curve $-1 69.007232886745811 -3.9844191502648876 99.126594461498371 0 0 -1 I I #
point $-1 69.007232886745811 -3.9844191502648876 10.507604630838328 #
straight-curve $-1 69.007232886745811 3.0596322929228492 3.3387497995110351 0 1 0 I I #
point $-1 69.007232886745811 -3.9844191502648876 3.3387497995110351 #
point $-1 58.656296283186677 1.7891144132268693 0.5091457956458918 #
point $-1 58.656296283186677 10.449414758464513 0.5091457956458918 #
straight-curve $-1 0 -41.115186221645246 -10.507604630838328 -1 0 0 I I #
point $-1 -69.007232886745811 -41.115186221645246 -10.507604630838328 #
End-of-ACIS-data 