500 0 9 0           
7 Unknown 11 ACIS 5.0 NT 24 Fri Mar 26 19:20:58 1999 
-1 9.9999999999999995e-007 1e-010 
body $-1 $9 $-1 $10 #
body $-1 $11 $-1 $12 #
body $-1 $13 $-1 $14 #
body $-1 $15 $-1 $16 #
body $-1 $17 $-1 $18 #
body $-1 $19 $-1 $20 #
body $-1 $21 $-1 $22 #
body $-1 $23 $-1 $24 #
body $-1 $25 $-1 $26 #
lump $-1 $-1 $27 $0 #
transform $-1 1 0 0 0 1 0 0 0 1 68.194219794305241 36.510661235250573 12.358380257344619 1 rotate no_reflect no_shear #
lump $-1 $-1 $28 $1 #
transform $-1 1 0 0 0 1 0 0 0 1 68.194219794305241 36.510661235250573 12.358380257344619 1 rotate no_reflect no_shear #
lump $-1 $-1 $29 $2 #
transform $-1 1 0 0 0 1 0 0 0 1 68.194219794305241 36.510661235250573 12.358380257344619 1 rotate no_reflect no_shear #
lump $-1 $-1 $30 $3 #
transform $-1 1 0 0 0 1 0 0 0 1 68.194219794305241 36.510661235250573 12.358380257344619 1 rotate no_reflect no_shear #
lump $-1 $-1 $31 $4 #
transform $-1 1 0 0 0 1 0 0 0 1 68.194219794305241 36.510661235250573 12.358380257344619 1 rotate no_reflect no_shear #
lump $-1 $-1 $32 $5 #
transform $-1 1 0 0 0 1 0 0 0 1 68.194219794305241 36.510661235250573 12.358380257344619 1 rotate no_reflect no_shear #
lump $-1 $-1 $33 $6 #
transform $-1 1 0 0 0 1 0 0 0 1 68.194219794305241 36.510661235250573 12.358380257344619 1 rotate no_reflect no_shear #
lump $-1 $-1 $34 $7 #
transform $-1 1 0 0 0 1 0 0 0 1 68.194219794305241 36.510661235250573 12.358380257344619 1 rotate no_reflect no_shear #
lump $-1 $-1 $35 $8 #
transform $-1 1 0 0 0 1 0 0 0 1 68.194219794305241 36.510661235250573 12.358380257344619 1 rotate no_reflect no_shear #
shell $-1 $-1 $-1 $36 $-1 $9 #
shell $-1 $-1 $-1 $37 $-1 $11 #
shell $-1 $-1 $-1 $38 $-1 $13 #
shell $-1 $-1 $-1 $39 $-1 $15 #
shell $-1 $-1 $-1 $40 $-1 $17 #
shell $-1 $-1 $-1 $41 $-1 $19 #
shell $-1 $-1 $-1 $42 $-1 $21 #
shell $-1 $-1 $-1 $43 $-1 $23 #
shell $-1 $-1 $-1 $44 $-1 $25 #
face $-1 $45 $46 $27 $-1 $47 forward single #
face $-1 $48 $49 $28 $-1 $50 forward single #
face $-1 $51 $52 $29 $-1 $53 reversed single #
face $-1 $54 $55 $30 $-1 $56 reversed single #
face $-1 $57 $58 $31 $-1 $59 forward single #
face $-1 $60 $61 $32 $-1 $62 forward single #
face $-1 $63 $64 $33 $-1 $65 reversed single #
face $-1 $66 $67 $34 $-1 $68 forward single #
face $-1 $69 $70 $35 $-1 $71 forward single #
face $-1 $72 $73 $27 $-1 $74 reversed single #
loop $-1 $-1 $75 $36 #
plane-surface $-1 0 0 12.358380257344619 0 0 1 1 0 0 forward_v I I I I #
face $-1 $76 $77 $28 $-1 $78 reversed single #
loop $-1 $-1 $79 $37 #
plane-surface $-1 -60.049637232507131 0 -9.1056826342667829 0 0 1 1 0 0 forward_v I I I I #
face $-1 $80 $81 $29 $-1 $82 reversed single #
loop $-1 $-1 $83 $38 #
plane-surface $-1 54.814989881058352 -34.10246110154376 0 1 0 0 0 0 -1 forward_v I I I I #
face $-1 $84 $85 $30 $-1 $86 reversed single #
loop $-1 $-1 $87 $39 #
plane-surface $-1 -23.563366922849081 -155.79867936540739 70.295668694423924 1 0 0 0 0.87461971476443456 -0.48480960649040278 forward_v I I I I #
face $-1 $88 $89 $31 $-1 $90 forward single #
loop $-1 $91 $92 $40 #
cone-surface $-1 -17.641325465394516 -33.255200138242138 7.7187566367378526 0 0.87461971476443456 -0.48480960649040278 1 0 0 1 I I 0 1 1 forward I I I I #
face $-1 $93 $94 $32 $-1 $95 forward single #
loop $-1 $96 $97 $41 #
cone-surface $-1 -8.7582632792126773 -33.255200138242138 7.7187566367378526 0 0.87461971476443456 -0.48480960649040278 1 0 0 1 I I 0 1 1 forward I I I I #
face $-1 $98 $99 $33 $-1 $100 reversed single #
loop $-1 $-1 $101 $42 #
plane-surface $-1 29.796655353034598 -155.79867936540739 70.295668694423924 1 0 0 0 0.87461971476443456 -0.48480960649040278 forward_v I I I I #
face $-1 $102 $103 $34 $-1 $104 forward single #
loop $-1 $105 $106 $43 #
cone-surface $-1 35.718696810489178 -33.255200138242138 7.7187566367378526 0 0.87461971476443456 -0.48480960649040278 1 0 0 1 I I 0 1 1 forward I I I I #
face $-1 $107 $108 $35 $-1 $109 forward single #
loop $-1 $110 $111 $44 #
cone-surface $-1 44.601758996671009 -33.255200138242138 7.7187566367378526 0 0.87461971476443456 -0.48480960649040278 1 0 0 1 I I 0 1 1 forward I I I I #
face $-1 $112 $113 $27 $-1 $114 reversed single #
loop $-1 $-1 $115 $45 #
plane-surface $-1 0 0 -12.358380257344619 0 0 1 1 0 0 forward_v I I I I #
coedge $-1 $116 $117 $118 $119 forward $46 $-1 #
face $-1 $120 $121 $28 $-1 $122 reversed single #
loop $-1 $-1 $123 $48 #
plane-surface $-1 -51.905054670709021 0 -10.732031445805701 -1 0 0 0 0 1 forward_v I I I I #
coedge $-1 $124 $125 $126 $127 forward $49 $-1 #
face $-1 $128 $129 $29 $-1 $130 reversed single #
loop $-1 $-1 $131 $51 #
plane-surface $-1 61.504604837681796 -31.694260967836946 0 0 -1 0 0 0 -1 forward_v I I I I #
coedge $-1 $132 $133 $134 $135 forward $52 $-1 #
face $-1 $136 $137 $30 $-1 $138 reversed single #
loop $-1 $-1 $139 $54 #
plane-surface $-1 -13.1997943723036 -36.510661235250581 4.173242967629605 0 -0.87461971476443456 0.48480960649040278 1 0 0 forward_v I I I I #
coedge $-1 $140 $141 $142 $143 reversed $55 $-1 #
face $-1 $-1 $144 $31 $-1 $145 forward single #
loop $-1 $146 $147 $57 #
cone-surface $-1 -17.641325465394516 -31.830976943242803 6.9292968577433864 0 0.87461971476443456 -0.48480960649040278 0.5 0 0 1 I I -0.70710678118654746 0.70710678118654746 0.5 forward I I I I #
loop $-1 $-1 $148 $40 #
coedge $-1 $92 $92 $149 $150 reversed $58 $-1 #
face $-1 $-1 $151 $32 $-1 $152 forward single #
loop $-1 $153 $154 $60 #
cone-surface $-1 -8.7582632792126773 -31.830976943242803 6.9292968577433864 0 0.87461971476443456 -0.48480960649040278 0.5 0 0 1 I I -0.70710678118654746 0.70710678118654746 0.5 forward I I I I #
loop $-1 $-1 $155 $41 #
coedge $-1 $97 $97 $156 $157 reversed $61 $-1 #
face $-1 $158 $159 $33 $-1 $160 reversed single #
loop $-1 $-1 $161 $63 #
plane-surface $-1 40.160227903580079 -36.510661235250581 4.173242967629605 0 -0.87461971476443456 0.48480960649040278 1 0 0 forward_v I I I I #
coedge $-1 $162 $163 $164 $165 reversed $64 $-1 #
face $-1 $-1 $166 $34 $-1 $167 forward single #
loop $-1 $168 $169 $66 #
cone-surface $-1 35.718696810489178 -31.830976943242803 6.9292968577433864 0 0.87461971476443456 -0.48480960649040278 0.5 0 0 1 I I -0.70710678118654746 0.70710678118654746 0.5 forward I I I I #
loop $-1 $-1 $170 $43 #
coedge $-1 $106 $106 $171 $172 reversed $67 $-1 #
face $-1 $-1 $173 $35 $-1 $174 forward single #
loop $-1 $175 $176 $69 #
cone-surface $-1 44.601758996671009 -31.830976943242803 6.9292968577433864 0 0.87461971476443456 -0.48480960649040278 0.5 0 0 1 I I -0.70710678118654746 0.70710678118654746 0.5 forward I I I I #
loop $-1 $-1 $177 $44 #
coedge $-1 $111 $111 $178 $179 reversed $70 $-1 #
face $-1 $180 $181 $27 $-1 $182 reversed single #
loop $-1 $-1 $183 $72 #
plane-surface $-1 0 -36.510661235250573 0 0 1 0 0 0 1 forward_v I I I I #
coedge $-1 $184 $185 $186 $187 forward $73 $-1 #
coedge $-1 $188 $75 $189 $190 forward $46 $-1 #
coedge $-1 $75 $188 $191 $192 forward $46 $-1 #
coedge $-1 $193 $194 $75 $119 reversed $195 $-1 #
edge $-1 $196 -36.510661235250573 $197 36.510661235250573 $118 $198 forward 7 unknown #
face $-1 $199 $200 $28 $-1 $201 reversed single #
loop $-1 $-1 $202 $76 #
plane-surface $-1 0 0 -12.358380257344619 0 0 1 1 0 0 forward_v I I I I #
coedge $-1 $203 $126 $204 $205 reversed $77 $-1 #
coedge $-1 $206 $79 $207 $208 reversed $49 $-1 #
coedge $-1 $79 $206 $209 $210 reversed $49 $-1 #
coedge $-1 $123 $211 $79 $127 reversed $77 $-1 #
edge $-1 $212 -36.510661235250573 $213 36.510661235250573 $126 $214 forward 7 unknown #
face $-1 $215 $216 $29 $-1 $217 forward single #
loop $-1 $-1 $218 $80 #
plane-surface $-1 68.194219794305241 0 0 -1 0 0 0 0 1 forward_v I I I I #
coedge $-1 $219 $220 $218 $221 reversed $81 $-1 #
coedge $-1 $222 $83 $223 $224 reversed $52 $-1 #
coedge $-1 $83 $222 $225 $226 reversed $52 $-1 #
coedge $-1 $220 $219 $83 $135 reversed $81 $-1 #
edge $-1 $227 -12.358380257344619 $228 12.358380257344619 $134 $229 forward 7 unknown #
face $-1 $230 $231 $30 $-1 $232 reversed single #
loop $-1 $-1 $233 $84 #
plane-surface $-1 -2.8362218217581194 -155.79867936540739 70.295668694423924 -1 0 0 0 -0.87461971476443456 0.48480960649040278 forward_v I I I I #
coedge $-1 $234 $235 $236 $237 reversed $85 $-1 #
coedge $-1 $141 $87 $238 $239 reversed $55 $-1 #
coedge $-1 $87 $140 $234 $240 reversed $55 $-1 #
coedge $-1 $236 $241 $87 $143 forward $231 $-1 #
edge $-1 $242 22.789454089867341 $243 30.974591379582343 $142 $244 forward 7 unknown #
loop $-1 $-1 $149 $88 #
plane-surface $-1 -13.1997943723036 -36.510661235250581 4.173242967629605 0 -0.87461971476443456 0.48480960649040278 1 0 0 forward_v I I I I #
loop $-1 $-1 $245 $57 #
coedge $-1 $147 $147 $148 $246 reversed $89 $-1 #
coedge $-1 $148 $148 $147 $246 forward $91 $-1 #
coedge $-1 $149 $149 $92 $150 forward $144 $-1 #
edge $-1 $247 -1.5536367121960996e-015 $247 6.2831853071795987 $149 $248 forward 7 unknown #
loop $-1 $-1 $156 $93 #
plane-surface $-1 -13.1997943723036 -36.510661235250581 4.173242967629605 0 -0.87461971476443456 0.48480960649040278 1 0 0 forward_v I I I I #
loop $-1 $-1 $249 $60 #
coedge $-1 $154 $154 $155 $250 reversed $94 $-1 #
coedge $-1 $155 $155 $154 $250 forward $96 $-1 #
coedge $-1 $156 $156 $97 $157 forward $151 $-1 #
edge $-1 $251 -1.5536367121960996e-015 $251 6.2831853071795987 $156 $252 forward 7 unknown #
face $-1 $253 $254 $33 $-1 $255 reversed single #
loop $-1 $-1 $256 $98 #
plane-surface $-1 50.523800454125563 -155.79867936540739 70.295668694423924 -1 0 0 0 -0.87461971476443456 0.48480960649040278 forward_v I I I I #
coedge $-1 $257 $258 $259 $260 reversed $99 $-1 #
coedge $-1 $163 $101 $261 $262 reversed $64 $-1 #
coedge $-1 $101 $162 $257 $263 reversed $64 $-1 #
coedge $-1 $259 $264 $101 $165 forward $254 $-1 #
edge $-1 $265 22.789454089867341 $266 30.974591379582343 $164 $267 forward 7 unknown #
loop $-1 $-1 $171 $102 #
plane-surface $-1 40.160227903580079 -36.510661235250581 4.173242967629605 0 -0.87461971476443456 0.48480960649040278 1 0 0 forward_v I I I I #
loop $-1 $-1 $268 $66 #
coedge $-1 $169 $169 $170 $269 reversed $103 $-1 #
coedge $-1 $170 $170 $169 $269 forward $105 $-1 #
coedge $-1 $171 $171 $106 $172 forward $166 $-1 #
edge $-1 $270 -1.5536367121960996e-015 $270 6.2831853071795987 $171 $271 forward 7 unknown #
loop $-1 $-1 $178 $107 #
plane-surface $-1 40.160227903580079 -36.510661235250581 4.173242967629605 0 -0.87461971476443456 0.48480960649040278 1 0 0 forward_v I I I I #
loop $-1 $-1 $272 $69 #
coedge $-1 $176 $176 $177 $273 reversed $108 $-1 #
coedge $-1 $177 $177 $176 $273 forward $110 $-1 #
coedge $-1 $178 $178 $111 $179 forward $173 $-1 #
edge $-1 $274 -1.5536367121960996e-015 $274 6.2831853071795987 $178 $275 forward 7 unknown #
face $-1 $276 $277 $27 $-1 $278 reversed single #
loop $-1 $-1 $279 $112 #
plane-surface $-1 -68.194219794305241 0 0 1 0 0 0 0 -1 forward_v I I I I #
coedge $-1 $280 $191 $281 $282 forward $113 $-1 #
coedge $-1 $283 $115 $280 $284 forward $73 $-1 #
coedge $-1 $115 $283 $285 $286 forward $73 $-1 #
coedge $-1 $194 $193 $115 $187 reversed $195 $-1 #
edge $-1 $287 -36.510661235250573 $288 36.510661235250573 $186 $289 forward 7 unknown #
coedge $-1 $117 $116 $290 $291 forward $46 $-1 #
coedge $-1 $292 $293 $116 $190 reversed $277 $-1 #
edge $-1 $197 -68.194219794305241 $294 68.194219794305241 $189 $295 forward 7 unknown #
coedge $-1 $183 $296 $117 $192 reversed $113 $-1 #
edge $-1 $297 -68.194219794305241 $196 68.194219794305241 $191 $298 forward 7 unknown #
coedge $-1 $186 $118 $296 $299 forward $195 $-1 #
coedge $-1 $118 $186 $292 $300 reversed $195 $-1 #
loop $-1 $-1 $193 $276 #
vertex $-1 $119 $301 #
vertex $-1 $119 $302 #
straight-curve $-1 68.194219794305241 0 12.358380257344619 0 1 0 I I #
face $-1 $303 $304 $28 $-1 $305 reversed single #
loop $-1 $-1 $204 $120 #
plane-surface $-1 0 -36.510661235250573 0 0 1 0 0 0 1 forward_v I I I I #
coedge $-1 $306 $307 $203 $308 forward $121 $-1 #
coedge $-1 $211 $123 $202 $308 reversed $77 $-1 #
coedge $-1 $209 $309 $123 $205 forward $200 $-1 #
edge $-1 $310 -6.9923645344417684 $212 -3.7396669113639325 $204 $311 forward 7 unknown #
coedge $-1 $125 $124 $312 $313 reversed $49 $-1 #
coedge $-1 $314 $315 $124 $208 forward $316 $-1 #
edge $-1 $317 -38.169401178051672 $213 -21.880236054455455 $207 $318 forward 7 unknown #
coedge $-1 $319 $204 $125 $210 forward $200 $-1 #
edge $-1 $212 21.880236054455455 $320 38.169401178051672 $209 $321 forward 7 unknown #
coedge $-1 $126 $203 $314 $322 reversed $77 $-1 #
vertex $-1 $210 $323 #
vertex $-1 $208 $324 #
straight-curve $-1 -51.905054670709021 0 -9.1056826342667829 0 1 0 I I #
face $-1 $325 $326 $29 $-1 $327 reversed single #
loop $-1 $-1 $328 $128 #
plane-surface $-1 0 0 12.358380257344619 0 0 1 1 0 0 forward_v I I I I #
coedge $-1 $329 $330 $131 $221 forward $129 $-1 #
coedge $-1 $134 $131 $331 $332 reversed $81 $-1 #
coedge $-1 $131 $134 $328 $333 reversed $81 $-1 #
edge $-1 $334 -12.358380257344619 $335 12.358380257344619 $218 $336 forward 7 unknown #
coedge $-1 $133 $132 $337 $338 reversed $52 $-1 #
coedge $-1 $331 $339 $132 $224 forward $340 $-1 #
edge $-1 $341 -19.459430684478694 $228 -14.643030417065066 $223 $342 forward 7 unknown #
coedge $-1 $343 $328 $133 $226 forward $216 $-1 #
edge $-1 $227 14.643030417065066 $344 19.459430684478694 $225 $345 forward 7 unknown #
vertex $-1 $226 $346 #
vertex $-1 $224 $347 #
straight-curve $-1 54.814989881058352 -31.694260967836946 0 0 0 -1 I I #
face $-1 $-1 $348 $30 $-1 $349 forward single #
loop $-1 $-1 $142 $136 #
plane-surface $-1 0 -36.510661235250573 0 0 1 0 0 0 1 forward_v I I I I #
coedge $-1 $350 $351 $352 $353 reversed $137 $-1 #
coedge $-1 $354 $139 $141 $240 forward $85 $-1 #
coedge $-1 $139 $354 $350 $355 forward $85 $-1 #
coedge $-1 $352 $142 $139 $237 forward $231 $-1 #
edge $-1 $243 -16.963469736697281 $356 3.7636753643936807 $236 $357 forward 7 unknown #
coedge $-1 $358 $359 $140 $239 forward $348 $-1 #
edge $-1 $360 -45.925773966235745 $242 -41.388678447453124 $238 $361 forward 7 unknown #
edge $-1 $243 1.4320236426557382e-014 $360 9.3585099347086587 $141 $362 forward 7 unknown #
coedge $-1 $142 $352 $358 $363 reversed $231 $-1 #
vertex $-1 $363 $364 #
vertex $-1 $143 $365 #
straight-curve $-1 -23.563366922849081 -36.510661235250573 35.147834347211962 0 0 -1 I I #
coedge $-1 $245 $245 $-1 $366 reversed $146 $-1 #
edge $-1 $367 0 $367 6.2831853071796004 $147 $368 forward 7 unknown #
vertex $-1 $150 $369 #
ellipse-curve $-1 -17.641325465394516 -34.242113475859263 8.2658116124871182 0 -0.87461971476443456 0.48480960649040278 1 0 0 1 I I #
coedge $-1 $249 $249 $-1 $370 reversed $153 $-1 #
edge $-1 $371 0 $371 6.2831853071796004 $154 $372 forward 7 unknown #
vertex $-1 $157 $373 #
ellipse-curve $-1 -8.7582632792126773 -34.242113475859263 8.2658116124871182 0 -0.87461971476443456 0.48480960649040278 1 0 0 1 I I #
face $-1 $-1 $374 $33 $-1 $375 forward single #
loop $-1 $-1 $164 $158 #
plane-surface $-1 0 -36.510661235250573 0 0 1 0 0 0 1 forward_v I I I I #
coedge $-1 $376 $377 $378 $379 reversed $159 $-1 #
coedge $-1 $380 $161 $163 $263 forward $99 $-1 #
coedge $-1 $161 $380 $376 $381 forward $99 $-1 #
coedge $-1 $378 $164 $161 $260 forward $254 $-1 #
edge $-1 $266 9.7165414012445588 $382 30.443686502335524 $259 $383 forward 7 unknown #
coedge $-1 $384 $385 $162 $262 forward $374 $-1 #
edge $-1 $386 -45.925773966235745 $265 -41.388678447453124 $261 $387 forward 7 unknown #
edge $-1 $266 1.4320236426557382e-014 $386 9.3585099347086587 $163 $388 forward 7 unknown #
coedge $-1 $164 $378 $384 $389 reversed $254 $-1 #
vertex $-1 $389 $390 #
vertex $-1 $165 $391 #
straight-curve $-1 29.796655353034598 -36.510661235250573 35.147834347211962 0 0 -1 I I #
coedge $-1 $268 $268 $-1 $392 reversed $168 $-1 #
edge $-1 $393 0 $393 6.2831853071796004 $169 $394 forward 7 unknown #
vertex $-1 $172 $395 #
ellipse-curve $-1 35.718696810489178 -34.242113475859263 8.2658116124871182 0 -0.87461971476443456 0.48480960649040278 1 0 0 1 I I #
coedge $-1 $272 $272 $-1 $396 reversed $175 $-1 #
edge $-1 $397 0 $397 6.2831853071796004 $176 $398 forward 7 unknown #
vertex $-1 $179 $399 #
ellipse-curve $-1 44.601758996671009 -34.242113475859263 8.2658116124871182 0 -0.87461971476443456 0.48480960649040278 1 0 0 1 I I #
face $-1 $-1 $195 $27 $-1 $400 reversed single #
loop $-1 $-1 $292 $180 #
plane-surface $-1 0 36.510661235250573 0 0 -1 0 0 0 -1 forward_v I I I I #
coedge $-1 $401 $290 $293 $402 forward $181 $-1 #
coedge $-1 $296 $183 $184 $284 reversed $113 $-1 #
coedge $-1 $290 $401 $183 $282 reversed $181 $-1 #
edge $-1 $297 -12.358380257344619 $403 12.358380257344619 $281 $404 forward 7 unknown #
coedge $-1 $185 $184 $401 $405 forward $73 $-1 #
edge $-1 $288 -68.194219794305241 $403 68.194219794305241 $280 $406 forward 7 unknown #
coedge $-1 $293 $292 $185 $286 reversed $277 $-1 #
edge $-1 $407 -68.194219794305241 $287 68.194219794305241 $285 $408 forward 7 unknown #
vertex $-1 $187 $409 #
vertex $-1 $299 $410 #
straight-curve $-1 68.194219794305241 0 -12.358380257344619 0 -1 0 I I #
coedge $-1 $279 $281 $188 $291 reversed $181 $-1 #
edge $-1 $294 -36.510661235250573 $297 36.510661235250573 $290 $411 forward 7 unknown #
coedge $-1 $285 $189 $194 $300 forward $277 $-1 #
coedge $-1 $189 $285 $279 $402 reversed $277 $-1 #
vertex $-1 $190 $412 #
straight-curve $-1 0 36.510661235250573 12.358380257344619 -1 0 0 I I #
coedge $-1 $191 $280 $193 $299 reversed $113 $-1 #
vertex $-1 $291 $413 #
straight-curve $-1 0 -36.510661235250573 12.358380257344619 1 0 0 I I #
edge $-1 $196 -12.358380257344619 $288 12.358380257344619 $193 $414 forward 7 unknown #
edge $-1 $197 -12.358380257344619 $287 12.358380257344619 $194 $415 forward 7 unknown #
point $-1 68.194219794305241 -36.510661235250573 12.358380257344619 #
point $-1 68.194219794305241 36.510661235250573 12.358380257344619 #
face $-1 $-1 $316 $28 $-1 $416 reversed single #
loop $-1 $-1 $312 $199 #
plane-surface $-1 -68.194219794305241 0 0 1 0 0 0 0 -1 forward_v I I I I #
coedge $-1 $417 $202 $309 $418 forward $121 $-1 #
coedge $-1 $202 $417 $419 $420 forward $121 $-1 #
edge $-1 $421 -36.510661235250573 $310 36.510661235250573 $202 $422 forward 7 unknown #
coedge $-1 $204 $319 $306 $418 reversed $200 $-1 #
vertex $-1 $418 $423 #
straight-curve $-1 -51.905054670709021 -36.510661235250573 -5.3660157229028504 0 0 1 I I #
coedge $-1 $424 $425 $206 $313 forward $304 $-1 #
edge $-1 $320 -36.510661235250573 $317 36.510661235250573 $312 $426 forward 7 unknown #
coedge $-1 $419 $207 $211 $322 forward $316 $-1 #
coedge $-1 $207 $419 $424 $427 reversed $316 $-1 #
loop $-1 $-1 $314 $303 #
vertex $-1 $427 $428 #
straight-curve $-1 -30.024818616253565 36.510661235250573 -9.1056826342667829 1 0 0 I I #
coedge $-1 $309 $209 $425 $429 forward $200 $-1 #
vertex $-1 $429 $430 #
straight-curve $-1 -30.024818616253565 -36.510661235250573 -9.1056826342667829 -1 0 0 I I #
edge $-1 $213 3.7396669113639325 $421 6.9923645344417684 $314 $431 forward 7 unknown #
point $-1 -51.905054670709021 -36.510661235250573 -9.1056826342667829 #
point $-1 -51.905054670709021 36.510661235250573 -9.1056826342667829 #
face $-1 $-1 $340 $29 $-1 $432 reversed single #
loop $-1 $-1 $337 $215 #
plane-surface $-1 0 -36.510661235250573 0 0 1 0 0 0 1 forward_v I I I I #
coedge $-1 $225 $433 $220 $333 forward $216 $-1 #
coedge $-1 $434 $218 $433 $435 reversed $129 $-1 #
coedge $-1 $218 $434 $436 $437 reversed $129 $-1 #
coedge $-1 $436 $223 $219 $332 forward $340 $-1 #
edge $-1 $228 24.062687462217454 $334 37.441917375464342 $331 $438 forward 7 unknown #
edge $-1 $335 -37.441917375464342 $227 -24.062687462217454 $328 $439 forward 7 unknown #
vertex $-1 $437 $440 #
vertex $-1 $333 $441 #
straight-curve $-1 68.194219794305241 -31.694260967836946 0 0 0 1 I I #
coedge $-1 $442 $443 $222 $338 forward $326 $-1 #
edge $-1 $344 -12.358380257344619 $341 12.358380257344619 $337 $444 forward 7 unknown #
coedge $-1 $223 $436 $442 $445 forward $340 $-1 #
loop $-1 $-1 $331 $325 #
vertex $-1 $338 $446 #
straight-curve $-1 54.814989881058352 -17.05123055077188 -12.358380257344619 0 1 0 I I #
coedge $-1 $433 $225 $443 $447 forward $216 $-1 #
vertex $-1 $447 $448 #
straight-curve $-1 54.814989881058352 -17.05123055077188 12.358380257344619 0 -1 0 I I #
point $-1 54.814989881058352 -31.694260967836946 12.358380257344619 #
point $-1 54.814989881058352 -31.694260967836946 -12.358380257344619 #
loop $-1 $-1 $238 $230 #
plane-surface $-1 0 0 12.358380257344619 0 0 1 1 0 0 forward_v I I I I #
coedge $-1 $351 $233 $235 $355 reversed $137 $-1 #
coedge $-1 $233 $350 $449 $450 reversed $137 $-1 #
coedge $-1 $241 $236 $233 $353 forward $231 $-1 #
edge $-1 $356 -30.974591379582343 $451 -22.789454089867341 $352 $452 forward 7 unknown #
coedge $-1 $235 $234 $359 $453 reversed $85 $-1 #
edge $-1 $454 -9.3585099347086587 $356 -1.4320236426557382e-014 $350 $455 forward 7 unknown #
vertex $-1 $237 $456 #
straight-curve $-1 -6.5998971861518001 -36.510661235250573 4.1732429676296201 1 0 0 I I #
coedge $-1 $449 $238 $241 $363 forward $348 $-1 #
coedge $-1 $238 $449 $354 $453 forward $348 $-1 #
vertex $-1 $239 $457 #
straight-curve $-1 -23.563366922849081 -77.899339682703697 12.358380257344621 0 -1 0 I I #
straight-curve $-1 -23.563366922849081 -36.510661235250581 4.173242967629605 0 0.48480960649040278 0.87461971476443456 I I #
edge $-1 $242 -23.563366922849081 $451 -2.8362218217581194 $241 $458 forward 7 unknown #
point $-1 -23.563366922849081 -36.510661235250573 12.358380257344619 #
point $-1 -23.563366922849081 -36.510661235250573 4.1732429676296174 #
edge $-1 $459 1 $459 0 $245 $-1 forward 7 unknown #
vertex $-1 $246 $460 #
ellipse-curve $-1 -17.641325465394516 -32.26828680062502 7.171701660988588 0 -0.87461971476443456 0.48480960649040278 1 0 0 1 I I #
point $-1 -16.641325465394516 -34.242113475859263 8.2658116124871164 #
edge $-1 $461 1 $461 0 $249 $-1 forward 7 unknown #
vertex $-1 $250 $462 #
ellipse-curve $-1 -8.7582632792126773 -32.26828680062502 7.171701660988588 0 -0.87461971476443456 0.48480960649040278 1 0 0 1 I I #
point $-1 -7.7582632792126773 -34.242113475859263 8.2658116124871164 #
loop $-1 $-1 $261 $253 #
plane-surface $-1 0 0 12.358380257344619 0 0 1 1 0 0 forward_v I I I I #
coedge $-1 $377 $256 $258 $381 reversed $159 $-1 #
coedge $-1 $256 $376 $463 $464 reversed $159 $-1 #
coedge $-1 $264 $259 $256 $379 forward $254 $-1 #
edge $-1 $382 -30.974591379582343 $465 -22.789454089867341 $378 $466 forward 7 unknown #
coedge $-1 $258 $257 $385 $467 reversed $99 $-1 #
edge $-1 $468 -9.3585099347086587 $382 -1.4320236426557382e-014 $376 $469 forward 7 unknown #
vertex $-1 $260 $470 #
straight-curve $-1 20.08011395179004 -36.510661235250573 4.1732429676296201 1 0 0 I I #
coedge $-1 $463 $261 $264 $389 forward $374 $-1 #
coedge $-1 $261 $463 $380 $467 forward $374 $-1 #
vertex $-1 $262 $471 #
straight-curve $-1 29.796655353034598 -77.899339682703697 12.358380257344621 0 -1 0 I I #
straight-curve $-1 29.796655353034598 -36.510661235250581 4.173242967629605 0 0.48480960649040278 0.87461971476443456 I I #
edge $-1 $265 29.796655353034598 $465 50.523800454125563 $264 $472 forward 7 unknown #
point $-1 29.796655353034598 -36.510661235250573 12.358380257344619 #
point $-1 29.796655353034598 -36.510661235250573 4.1732429676296174 #
edge $-1 $473 1 $473 0 $268 $-1 forward 7 unknown #
vertex $-1 $269 $474 #
ellipse-curve $-1 35.718696810489178 -32.26828680062502 7.171701660988588 0 -0.87461971476443456 0.48480960649040278 1 0 0 1 I I #
point $-1 36.718696810489178 -34.242113475859263 8.2658116124871164 #
edge $-1 $475 1 $475 0 $272 $-1 forward 7 unknown #
vertex $-1 $273 $476 #
ellipse-curve $-1 44.601758996671009 -32.26828680062502 7.171701660988588 0 -0.87461971476443456 0.48480960649040278 1 0 0 1 I I #
point $-1 45.601758996671009 -34.242113475859263 8.2658116124871164 #
plane-surface $-1 68.194219794305241 0 0 -1 0 0 0 0 1 forward_v I I I I #
coedge $-1 $281 $279 $283 $405 reversed $181 $-1 #
edge $-1 $294 -12.358380257344619 $407 12.358380257344619 $293 $477 forward 7 unknown #
vertex $-1 $405 $478 #
straight-curve $-1 -68.194219794305241 -36.510661235250573 0 0 0 -1 I I #
edge $-1 $403 -36.510661235250573 $407 36.510661235250573 $401 $479 forward 7 unknown #
straight-curve $-1 0 -36.510661235250573 -12.358380257344619 -1 0 0 I I #
vertex $-1 $286 $480 #
straight-curve $-1 0 36.510661235250573 -12.358380257344619 1 0 0 I I #
point $-1 68.194219794305241 36.510661235250573 -12.358380257344619 #
point $-1 68.194219794305241 -36.510661235250573 -12.358380257344619 #
straight-curve $-1 -68.194219794305241 0 12.358380257344619 0 -1 0 I I #
point $-1 -68.194219794305241 36.510661235250573 12.358380257344619 #
point $-1 -68.194219794305241 -36.510661235250573 12.358380257344619 #
straight-curve $-1 68.194219794305241 -36.510661235250573 0 0 0 -1 I I #
straight-curve $-1 68.194219794305241 36.510661235250573 0 0 0 -1 I I #
plane-surface $-1 0 36.510661235250573 0 0 -1 0 0 0 -1 forward_v I I I I #
coedge $-1 $307 $306 $481 $482 forward $121 $-1 #
edge $-1 $310 51.905054670709021 $483 68.194219794305241 $309 $484 forward 7 unknown #
coedge $-1 $315 $314 $307 $420 reversed $316 $-1 #
edge $-1 $485 -68.194219794305241 $421 -51.905054670709021 $419 $486 forward 7 unknown #
vertex $-1 $322 $487 #
straight-curve $-1 -51.905054670709021 0 -12.358380257344619 0 -1 0 I I #
point $-1 -51.905054670709021 -36.510661235250573 -12.358380257344619 #
coedge $-1 $481 $312 $315 $427 forward $304 $-1 #
coedge $-1 $312 $481 $319 $429 reversed $304 $-1 #
straight-curve $-1 -68.194219794305241 0 -9.1056826342667829 0 1 0 I I #
edge $-1 $317 9.1056826342667829 $485 12.358380257344619 $315 $488 forward 7 unknown #
point $-1 -68.194219794305241 36.510661235250573 -9.1056826342667829 #
edge $-1 $320 9.1056826342667829 $483 12.358380257344619 $425 $489 forward 7 unknown #
point $-1 -68.194219794305241 -36.510661235250573 -9.1056826342667829 #
straight-curve $-1 -51.905054670709021 36.510661235250573 -5.3660157229028504 0 0 -1 I I #
plane-surface $-1 0 0 -12.358380257344619 0 0 1 1 0 0 forward_v I I I I #
coedge $-1 $328 $343 $329 $435 forward $216 $-1 #
coedge $-1 $330 $329 $490 $491 forward $129 $-1 #
edge $-1 $492 -36.510661235250573 $335 -31.694260967836946 $329 $493 forward 7 unknown #
coedge $-1 $339 $331 $330 $437 forward $340 $-1 #
edge $-1 $334 31.694260967836946 $494 36.510661235250573 $330 $495 forward 7 unknown #
straight-curve $-1 30.752302418840898 -31.694260967836946 -12.358380257344619 1 0 0 I I #
straight-curve $-1 30.752302418840898 -31.694260967836946 12.358380257344619 -1 0 0 I I #
point $-1 68.194219794305241 -31.694260967836946 -12.358380257344619 #
point $-1 68.194219794305241 -31.694260967836946 12.358380257344619 #
coedge $-1 $490 $337 $339 $445 reversed $326 $-1 #
coedge $-1 $337 $490 $343 $447 reversed $326 $-1 #
straight-curve $-1 54.814989881058352 -36.510661235250573 0 0 0 -1 I I #
edge $-1 $494 -68.194219794305241 $341 -54.814989881058352 $442 $496 forward 7 unknown #
point $-1 54.814989881058352 -36.510661235250573 -12.358380257344619 #
edge $-1 $344 54.814989881058352 $492 68.194219794305241 $443 $497 forward 7 unknown #
point $-1 54.814989881058352 -36.510661235250573 12.358380257344619 #
coedge $-1 $359 $358 $351 $450 forward $348 $-1 #
edge $-1 $451 41.388678447453124 $454 45.925773966235745 $449 $498 forward 7 unknown #
vertex $-1 $450 $499 #
straight-curve $-1 -2.8362218217581194 -36.510661235250573 35.147834347211962 0 0 1 I I #
edge $-1 $454 -3.7636753643936807 $360 16.963469736697281 $359 $500 forward 7 unknown #
vertex $-1 $453 $501 #
straight-curve $-1 -2.8362218217581194 -36.510661235250581 4.173242967629605 0 -0.48480960649040278 -0.87461971476443456 I I #
point $-1 -2.8362218217581194 -36.510661235250573 4.1732429676296174 #
point $-1 -23.563366922849081 -31.973565716467952 12.358380257344619 #
straight-curve $-1 0 -36.510661235250573 12.358380257344619 1 0 0 I I #
vertex $-1 $366 $502 #
point $-1 -16.641325465394516 -32.26828680062502 7.171701660988588 #
vertex $-1 $370 $503 #
point $-1 -7.7582632792126773 -32.26828680062502 7.171701660988588 #
coedge $-1 $385 $384 $377 $464 forward $374 $-1 #
edge $-1 $465 41.388678447453124 $468 45.925773966235745 $463 $504 forward 7 unknown #
vertex $-1 $464 $505 #
straight-curve $-1 50.523800454125563 -36.510661235250573 35.147834347211962 0 0 1 I I #
edge $-1 $468 -30.443686502335524 $386 -9.7165414012445588 $385 $506 forward 7 unknown #
vertex $-1 $467 $507 #
straight-curve $-1 50.523800454125563 -36.510661235250581 4.173242967629605 0 -0.48480960649040278 -0.87461971476443456 I I #
point $-1 50.523800454125563 -36.510661235250573 4.1732429676296174 #
point $-1 29.796655353034598 -31.973565716467952 12.358380257344619 #
straight-curve $-1 0 -36.510661235250573 12.358380257344619 1 0 0 I I #
vertex $-1 $392 $508 #
point $-1 36.718696810489178 -32.26828680062502 7.171701660988588 #
vertex $-1 $396 $509 #
point $-1 45.601758996671009 -32.26828680062502 7.171701660988588 #
straight-curve $-1 -68.194219794305241 36.510661235250573 0 0 0 -1 I I #
point $-1 -68.194219794305241 -36.510661235250573 -12.358380257344619 #
straight-curve $-1 -68.194219794305241 0 -12.358380257344619 0 1 0 I I #
point $-1 -68.194219794305241 36.510661235250573 -12.358380257344619 #
coedge $-1 $425 $424 $417 $482 reversed $304 $-1 #
edge $-1 $483 -36.510661235250573 $485 36.510661235250573 $481 $510 forward 7 unknown #
vertex $-1 $482 $511 #
straight-curve $-1 0 -36.510661235250573 -12.358380257344619 -1 0 0 I I #
vertex $-1 $420 $512 #
straight-curve $-1 0 36.510661235250573 -12.358380257344619 1 0 0 I I #
point $-1 -51.905054670709021 36.510661235250573 -12.358380257344619 #
straight-curve $-1 -68.194219794305241 36.510661235250573 0 0 0 -1 I I #
straight-curve $-1 -68.194219794305241 -36.510661235250573 0 0 0 -1 I I #
coedge $-1 $443 $442 $434 $491 reversed $326 $-1 #
edge $-1 $492 -12.358380257344619 $494 12.358380257344619 $434 $513 forward 7 unknown #
vertex $-1 $435 $514 #
straight-curve $-1 68.194219794305241 0 12.358380257344619 0 1 0 I I #
vertex $-1 $491 $515 #
straight-curve $-1 68.194219794305241 0 -12.358380257344619 0 -1 0 I I #
straight-curve $-1 0 -36.510661235250573 -12.358380257344619 -1 0 0 I I #
straight-curve $-1 0 -36.510661235250573 12.358380257344619 1 0 0 I I #
straight-curve $-1 -2.8362218217581194 -77.899339682703697 12.358380257344621 0 1 0 I I #
point $-1 -2.8362218217581194 -36.510661235250573 12.358380257344619 #
straight-curve $-1 -6.5998971861518001 -31.973565716467952 12.358380257344619 -1 0 0 I I #
point $-1 -2.8362218217581194 -31.973565716467952 12.358380257344619 #
point $-1 -17.641325465394516 -31.393667085860585 6.6868920544981849 #
point $-1 -8.7582632792126773 -31.393667085860585 6.6868920544981849 #
straight-curve $-1 50.523800454125563 -77.899339682703697 12.358380257344621 0 1 0 I I #
point $-1 50.523800454125563 -36.510661235250573 12.358380257344619 #
straight-curve $-1 20.08011395179004 -31.973565716467952 12.358380257344619 -1 0 0 I I #
point $-1 50.523800454125563 -31.973565716467952 12.358380257344619 #
point $-1 35.718696810489178 -31.393667085860585 6.6868920544981849 #
point $-1 44.601758996671009 -31.393667085860585 6.6868920544981849 #
straight-curve $-1 -68.194219794305241 0 -12.358380257344619 0 1 0 I I #
point $-1 -68.194219794305241 -36.510661235250573 -12.358380257344619 #
point $-1 -68.194219794305241 36.510661235250573 -12.358380257344619 #
straight-curve $-1 68.194219794305241 -36.510661235250573 0 0 0 -1 I I #
point $-1 68.194219794305241 -36.510661235250573 12.358380257344619 #
point $-1 68.194219794305241 -36.510661235250573 -12.358380257344619 #
End-of-ACIS-data 