500 0 8 0           
7 Unknown 11 ACIS 5.0 NT 24 Fri Mar 26 18:20:51 1999 
-1 9.9999999999999995e-007 1e-010 
body $-1 $8 $-1 $9 #
body $-1 $10 $-1 $11 #
body $-1 $12 $-1 $13 #
body $-1 $14 $-1 $15 #
body $-1 $16 $-1 $17 #
body $-1 $18 $-1 $19 #
body $-1 $20 $-1 $21 #
body $-1 $22 $-1 $23 #
lump $-1 $-1 $24 $0 #
transform $-1 1 0 0 0 1 0 0 0 1 58.861659596545309 37.848979436668927 16.061472645311984 1 rotate no_reflect no_shear #
lump $-1 $-1 $25 $1 #
transform $-1 1 0 0 0 1 0 0 0 1 58.861659596545309 37.848979436668927 16.061472645311984 1 rotate no_reflect no_shear #
lump $-1 $-1 $26 $2 #
transform $-1 1 0 0 0 1 0 0 0 1 58.861659596545309 37.848979436668927 16.061472645311984 1 rotate no_reflect no_shear #
lump $-1 $-1 $27 $3 #
transform $-1 1 0 0 0 1 0 0 0 1 58.861659596545309 37.848979436668927 16.061472645311984 1 rotate no_reflect no_shear #
lump $-1 $-1 $28 $4 #
transform $-1 1 0 0 0 1 0 0 0 1 58.861659596545309 37.848979436668927 16.061472645311984 1 rotate no_reflect no_shear #
lump $-1 $-1 $29 $5 #
transform $-1 1 0 0 0 1 0 0 0 1 58.861659596545309 37.848979436668927 16.061472645311984 1 rotate no_reflect no_shear #
lump $-1 $-1 $30 $6 #
transform $-1 1 0 0 0 1 0 0 0 1 58.861659596545309 37.848979436668927 16.061472645311984 1 rotate no_reflect no_shear #
lump $-1 $-1 $31 $7 #
transform $-1 1 0 0 0 1 0 0 0 1 58.861659596545309 37.848979436668927 16.061472645311984 1 rotate no_reflect no_shear #
shell $-1 $-1 $-1 $32 $-1 $8 #
shell $-1 $-1 $-1 $33 $-1 $10 #
shell $-1 $-1 $-1 $34 $-1 $12 #
shell $-1 $-1 $-1 $35 $-1 $14 #
shell $-1 $-1 $-1 $36 $-1 $16 #
shell $-1 $-1 $-1 $37 $-1 $18 #
shell $-1 $-1 $-1 $38 $-1 $20 #
shell $-1 $-1 $-1 $39 $-1 $22 #
face $-1 $40 $41 $24 $-1 $42 forward single #
face $-1 $43 $44 $25 $-1 $45 forward single #
face $-1 $46 $47 $26 $-1 $48 forward single #
face $-1 $49 $50 $27 $-1 $51 reversed single #
face $-1 $52 $53 $28 $-1 $54 forward single #
face $-1 $55 $56 $29 $-1 $57 forward single #
face $-1 $58 $59 $30 $-1 $60 reversed single #
face $-1 $61 $62 $31 $-1 $63 forward single #
face $-1 $64 $65 $24 $-1 $66 reversed single #
loop $-1 $-1 $67 $32 #
plane-surface $-1 0 0 16.061472645311984 0 0 1 1 0 0 forward_v I I I I #
face $-1 $68 $69 $25 $-1 $70 reversed single #
loop $-1 $-1 $71 $33 #
plane-surface $-1 0 -28.027913643406237 -5.7216397751026422 0 0 1 1 0 0 forward_v I I I I #
face $-1 $72 $73 $26 $-1 $74 reversed single #
loop $-1 $-1 $75 $34 #
plane-surface $-1 0 28.027913643406237 -5.7216397751026422 0 0 1 1 0 0 forward_v I I I I #
face $-1 $76 $77 $27 $-1 $78 reversed single #
loop $-1 $-1 $79 $35 #
plane-surface $-1 -157.59274350693053 10.430225621368265 66.228584666220769 0 -1 0 0.83867057594974714 0 -0.54463902268945019 forward_v I I I I #
face $-1 $80 $81 $28 $-1 $82 forward single #
loop $-1 $83 $84 $36 #
cone-surface $-1 -53.870335431243014 3.4307331788760962 8.7867522689441131 0.83867057594974714 0 -0.54463902268945019 0.54463902268945019 0 0.83867057594974714 1 I I 0 1 1 forward I I I I #
face $-1 $85 $86 $29 $-1 $87 forward single #
loop $-1 $88 $89 $37 #
cone-surface $-1 -53.870335431243014 7.6304286443713991 8.7867522689441131 0.83867057594974714 0 -0.54463902268945019 0.54463902268945019 0 0.83867057594974714 1 I I 0 1 1 forward I I I I #
face $-1 $90 $91 $30 $-1 $92 reversed single #
loop $-1 $-1 $93 $38 #
plane-surface $-1 67.574861196279187 -12.08028099659162 173.60066914420895 0 1 0 0.74314483375859142 0 0.66913059716165679 forward_v I I I I #
face $-1 $94 $95 $31 $-1 $96 forward single #
loop $-1 $97 $98 $39 #
cone-surface $-1 52.67579354409412 -6.9240392342493031 9.6666022125262216 -0.74314483375859142 0 -0.66913059716165679 1.3382611943233136 0 -1.4862896675171828 1 I I 0 1 2 forward I I I I #
face $-1 $99 $100 $24 $-1 $101 reversed single #
loop $-1 $-1 $102 $40 #
plane-surface $-1 0 0 -16.061472645311984 0 0 1 1 0 0 forward_v I I I I #
coedge $-1 $103 $104 $105 $106 forward $41 $-1 #
face $-1 $107 $108 $25 $-1 $109 reversed single #
loop $-1 $-1 $110 $43 #
plane-surface $-1 0 -28.027913643406237 -9.2447034822139251 0 0 1 1 0 0 forward_v I I I I #
coedge $-1 $111 $112 $113 $114 reversed $44 $-1 #
face $-1 $115 $116 $26 $-1 $117 reversed single #
loop $-1 $-1 $118 $46 #
plane-surface $-1 0 28.027913643406237 -9.2447034822139251 0 0 1 1 0 0 forward_v I I I I #
coedge $-1 $119 $120 $121 $122 reversed $47 $-1 #
face $-1 $123 $124 $27 $-1 $125 reversed single #
loop $-1 $-1 $126 $49 #
plane-surface $-1 -58.861659596545309 5.5305809116237441 2.1118711531376988 -0.83867057594974714 0 0.54463902268945019 0.54463902268945019 0 0.83867057594974714 forward_v I I I I #
coedge $-1 $127 $128 $129 $130 reversed $50 $-1 #
face $-1 $-1 $131 $28 $-1 $132 forward single #
loop $-1 $133 $134 $52 #
cone-surface $-1 -52.989164397779163 3.4307331788760962 8.2145131273186642 0.83867057594974714 0 -0.54463902268945019 0.2723195113447251 0 0.41933528797487357 1 I I -0.70710678118654746 0.70710678118654746 0.5 forward I I I I #
loop $-1 $-1 $135 $36 #
coedge $-1 $84 $84 $136 $137 reversed $53 $-1 #
face $-1 $-1 $138 $29 $-1 $139 forward single #
loop $-1 $140 $141 $55 #
cone-surface $-1 -52.989164397779163 7.6304286443713991 8.2145131273186642 0.83867057594974714 0 -0.54463902268945019 0.2723195113447251 0 0.41933528797487357 1 I I -0.70710678118654746 0.70710678118654746 0.5 forward I I I I #
loop $-1 $-1 $142 $37 #
coedge $-1 $89 $89 $143 $144 reversed $56 $-1 #
face $-1 $145 $146 $30 $-1 $147 reversed single #
loop $-1 $-1 $148 $58 #
plane-surface $-1 -19.910615274979733 -6.9240392342492996 94.828394272683894 0.74314483375859142 0 0.66913059716165679 0.66913059716165679 0 -0.74314483375859142 forward_v I I I I #
coedge $-1 $149 $150 $151 $152 reversed $59 $-1 #
face $-1 $-1 $153 $31 $-1 $154 forward single #
loop $-1 $155 $156 $61 #
cone-surface $-1 49.671893581128586 -6.9240392342493031 6.9618786045223082 -0.74314483375859142 0 -0.66913059716165679 0.66913059716165679 0 -0.74314483375859142 1 I I -0.70710678118654724 0.70710678118654791 1 forward I I I I #
loop $-1 $-1 $157 $39 #
coedge $-1 $98 $98 $158 $159 reversed $62 $-1 #
face $-1 $160 $161 $24 $-1 $162 reversed single #
loop $-1 $-1 $163 $64 #
plane-surface $-1 0 -37.848979436668927 0 0 1 0 0 0 1 forward_v I I I I #
coedge $-1 $164 $165 $166 $167 forward $65 $-1 #
coedge $-1 $168 $67 $169 $170 forward $41 $-1 #
coedge $-1 $67 $168 $171 $172 forward $41 $-1 #
coedge $-1 $173 $174 $67 $106 reversed $175 $-1 #
edge $-1 $176 -37.848979436668927 $177 37.848979436668927 $105 $178 forward 7 unknown #
face $-1 $179 $180 $25 $-1 $181 reversed single #
loop $-1 $-1 $182 $68 #
plane-surface $-1 0 -18.206847850143546 -7.4831716286582832 0 -1 0 0 0 -1 forward_v I I I I #
coedge $-1 $183 $184 $185 $186 reversed $69 $-1 #
coedge $-1 $187 $71 $188 $189 forward $44 $-1 #
coedge $-1 $71 $187 $190 $191 reversed $44 $-1 #
coedge $-1 $192 $193 $71 $114 forward $194 $-1 #
edge $-1 $195 4.1928910284404282 $196 23.835022614965808 $113 $197 forward 7 unknown #
face $-1 $198 $199 $26 $-1 $200 reversed single #
loop $-1 $-1 $201 $72 #
plane-surface $-1 0 18.206847850143546 -7.4831716286582832 0 1 0 0 0 1 forward_v I I I I #
coedge $-1 $202 $203 $204 $205 reversed $73 $-1 #
coedge $-1 $206 $75 $207 $208 reversed $47 $-1 #
coedge $-1 $75 $206 $209 $210 forward $47 $-1 #
coedge $-1 $211 $212 $75 $122 forward $199 $-1 #
edge $-1 $213 -23.835022614965808 $214 -4.1928910284404282 $121 $215 forward 7 unknown #
face $-1 $216 $217 $27 $-1 $218 reversed single #
loop $-1 $-1 $219 $76 #
plane-surface $-1 -157.59274350693053 0.63093620187922284 66.228584666220769 0 1 0 -0.83867057594974714 0 0.54463902268945019 forward_v I I I I #
coedge $-1 $220 $221 $222 $223 reversed $77 $-1 #
coedge $-1 $128 $79 $224 $225 reversed $50 $-1 #
coedge $-1 $79 $127 $220 $226 reversed $50 $-1 #
coedge $-1 $222 $227 $79 $130 forward $217 $-1 #
edge $-1 $228 17.052819687798401 $229 31.002421179972686 $129 $230 forward 7 unknown #
loop $-1 $-1 $136 $80 #
plane-surface $-1 -58.861659596545309 5.5305809116237441 2.1118711531376988 -0.83867057594974714 0 0.54463902268945019 0.54463902268945019 0 0.83867057594974714 forward_v I I I I #
loop $-1 $-1 $231 $52 #
coedge $-1 $134 $134 $135 $232 reversed $81 $-1 #
coedge $-1 $135 $135 $134 $232 forward $83 $-1 #
coedge $-1 $136 $136 $84 $137 forward $131 $-1 #
edge $-1 $233 0 $233 6.2831853071796004 $136 $234 forward 7 unknown #
loop $-1 $-1 $143 $85 #
plane-surface $-1 -58.861659596545309 5.5305809116237441 2.1118711531376988 -0.83867057594974714 0 0.54463902268945019 0.54463902268945019 0 0.83867057594974714 forward_v I I I I #
loop $-1 $-1 $235 $55 #
coedge $-1 $141 $141 $142 $236 reversed $86 $-1 #
coedge $-1 $142 $142 $141 $236 forward $88 $-1 #
coedge $-1 $143 $143 $89 $144 forward $138 $-1 #
edge $-1 $237 0 $237 6.2831853071796004 $143 $238 forward 7 unknown #
face $-1 $239 $240 $30 $-1 $241 forward single #
loop $-1 $-1 $242 $90 #
plane-surface $-1 67.574861196279187 -1.7677974719069791 173.60066914420895 0 -1 0 -0.74314483375859142 0 -0.66913059716165679 forward_v I I I I #
coedge $-1 $243 $244 $245 $246 reversed $91 $-1 #
coedge $-1 $150 $93 $247 $248 reversed $59 $-1 #
coedge $-1 $93 $149 $243 $249 reversed $59 $-1 #
coedge $-1 $245 $250 $93 $152 forward $251 $-1 #
edge $-1 $252 70.738861926792495 $253 79.457416770679487 $151 $254 forward 7 unknown #
loop $-1 $-1 $158 $94 #
plane-surface $-1 -19.910615274979733 -6.9240392342492996 94.828394272683894 0.74314483375859142 0 0.66913059716165679 0.66913059716165679 0 -0.74314483375859142 forward_v I I I I #
loop $-1 $-1 $255 $61 #
coedge $-1 $156 $156 $157 $256 reversed $95 $-1 #
coedge $-1 $157 $157 $156 $256 forward $97 $-1 #
coedge $-1 $158 $158 $98 $159 forward $153 $-1 #
edge $-1 $257 0 $257 6.2831853071796004 $158 $258 forward 7 unknown #
face $-1 $259 $260 $24 $-1 $261 reversed single #
loop $-1 $-1 $262 $99 #
plane-surface $-1 -58.861659596545309 0 0 1 0 0 0 0 -1 forward_v I I I I #
coedge $-1 $263 $171 $264 $265 forward $100 $-1 #
coedge $-1 $266 $102 $263 $267 forward $65 $-1 #
coedge $-1 $102 $266 $268 $269 forward $65 $-1 #
coedge $-1 $174 $173 $102 $167 reversed $175 $-1 #
edge $-1 $270 -37.848979436668927 $271 37.848979436668927 $166 $272 forward 7 unknown #
coedge $-1 $104 $103 $273 $274 forward $41 $-1 #
coedge $-1 $275 $276 $103 $170 reversed $260 $-1 #
edge $-1 $177 -58.861659596545309 $277 58.861659596545309 $169 $278 forward 7 unknown #
coedge $-1 $163 $279 $104 $172 reversed $100 $-1 #
edge $-1 $280 -58.861659596545309 $176 58.861659596545309 $171 $281 forward 7 unknown #
coedge $-1 $166 $105 $279 $282 forward $175 $-1 #
coedge $-1 $105 $166 $275 $283 reversed $175 $-1 #
loop $-1 $-1 $173 $259 #
vertex $-1 $106 $284 #
vertex $-1 $106 $285 #
straight-curve $-1 58.861659596545309 0 16.061472645311984 0 1 0 I I #
face $-1 $286 $287 $25 $-1 $288 reversed single #
loop $-1 $-1 $289 $107 #
plane-surface $-1 -58.861659596545309 0 0 1 0 0 0 0 -1 forward_v I I I I #
coedge $-1 $290 $188 $193 $291 reversed $108 $-1 #
coedge $-1 $292 $110 $293 $294 reversed $69 $-1 #
coedge $-1 $110 $292 $290 $295 forward $69 $-1 #
coedge $-1 $193 $192 $110 $186 forward $194 $-1 #
edge $-1 $296 -23.835022614965808 $297 -4.1928910284404282 $185 $298 forward 7 unknown #
coedge $-1 $112 $111 $289 $299 reversed $44 $-1 #
coedge $-1 $182 $300 $111 $189 reversed $108 $-1 #
edge $-1 $195 -58.861659596545309 $301 58.861659596545309 $188 $302 forward 7 unknown #
coedge $-1 $303 $304 $112 $191 forward $287 $-1 #
edge $-1 $196 -58.861659596545309 $305 58.861659596545309 $190 $306 forward 7 unknown #
coedge $-1 $185 $113 $304 $307 forward $194 $-1 #
coedge $-1 $113 $185 $182 $291 forward $194 $-1 #
loop $-1 $-1 $113 $286 #
vertex $-1 $114 $308 #
vertex $-1 $307 $309 #
straight-curve $-1 58.861659596545309 -14.013956821703118 -5.7216397751026422 0 -1 0 I I #
face $-1 $310 $311 $26 $-1 $312 reversed single #
loop $-1 $-1 $121 $115 #
plane-surface $-1 58.861659596545309 0 0 -1 0 0 0 0 1 forward_v I I I I #
coedge $-1 $313 $209 $314 $315 reversed $116 $-1 #
coedge $-1 $316 $118 $313 $317 forward $73 $-1 #
coedge $-1 $118 $316 $318 $319 reversed $73 $-1 #
coedge $-1 $212 $211 $118 $205 forward $199 $-1 #
edge $-1 $320 4.1928910284404282 $321 23.835022614965808 $204 $322 forward 7 unknown #
coedge $-1 $120 $119 $323 $324 reversed $47 $-1 #
coedge $-1 $325 $326 $119 $208 forward $327 $-1 #
edge $-1 $328 -58.861659596545309 $213 58.861659596545309 $207 $329 forward 7 unknown #
coedge $-1 $201 $330 $120 $210 reversed $116 $-1 #
edge $-1 $331 -58.861659596545309 $214 58.861659596545309 $209 $332 forward 7 unknown #
coedge $-1 $204 $121 $330 $333 forward $199 $-1 #
coedge $-1 $121 $204 $325 $334 reversed $199 $-1 #
vertex $-1 $334 $335 #
vertex $-1 $122 $336 #
straight-curve $-1 58.861659596545309 14.013956821703118 -5.7216397751026422 0 -1 0 I I #
face $-1 $-1 $337 $27 $-1 $338 forward single #
loop $-1 $-1 $129 $123 #
plane-surface $-1 -58.861659596545309 0 0 1 0 0 0 0 -1 forward_v I I I I #
coedge $-1 $339 $340 $341 $342 reversed $124 $-1 #
coedge $-1 $343 $126 $128 $226 forward $77 $-1 #
coedge $-1 $126 $343 $339 $344 forward $77 $-1 #
coedge $-1 $341 $129 $126 $223 forward $217 $-1 #
edge $-1 $229 -7.6649351655563933 $345 2.1343542539326492 $222 $346 forward 7 unknown #
coedge $-1 $347 $348 $127 $225 forward $337 $-1 #
edge $-1 $349 -28.993688996546602 $228 -19.934712156919957 $224 $350 forward 7 unknown #
edge $-1 $229 0 $349 16.632992610211879 $128 $351 forward 7 unknown #
coedge $-1 $129 $341 $347 $352 reversed $217 $-1 #
vertex $-1 $352 $353 #
vertex $-1 $130 $354 #
straight-curve $-1 -58.861659596545309 10.430225621368265 33.114292333110384 0 0 -1 I I #
coedge $-1 $231 $231 $-1 $355 reversed $133 $-1 #
edge $-1 $356 0 $356 6.2831853071796004 $134 $357 forward 7 unknown #
vertex $-1 $137 $358 #
ellipse-curve $-1 -54.33217117673199 3.4307331788760962 9.0866718992248359 -0.83867057594974714 0 0.54463902268945019 0.54463902268945019 0 0.83867057594974714 1 I I #
coedge $-1 $235 $235 $-1 $359 reversed $140 $-1 #
edge $-1 $360 0 $360 6.2831853071796004 $141 $361 forward 7 unknown #
vertex $-1 $144 $362 #
ellipse-curve $-1 -54.33217117673199 7.6304286443713991 9.0866718992248359 -0.83867057594974714 0 0.54463902268945019 0.54463902268945019 0 0.83867057594974714 1 I I #
face $-1 $-1 $251 $30 $-1 $363 reversed single #
loop $-1 $-1 $364 $145 #
plane-surface $-1 0 0 16.061472645311984 0 0 1 1 0 0 forward_v I I I I #
coedge $-1 $365 $366 $367 $368 reversed $146 $-1 #
coedge $-1 $369 $148 $150 $249 forward $91 $-1 #
coedge $-1 $148 $369 $365 $370 forward $91 $-1 #
coedge $-1 $367 $151 $148 $246 forward $251 $-1 #
edge $-1 $253 -8.6182613794669702 $371 1.6942221452176707 $245 $372 forward 7 unknown #
coedge $-1 $373 $374 $149 $248 forward $240 $-1 #
edge $-1 $375 17.22400715191722 $252 25.074228998405715 $247 $376 forward 7 unknown #
edge $-1 $253 -117.72331919309059 $375 -105.99134657102269 $150 $377 forward 7 unknown #
coedge $-1 $151 $367 $373 $378 reversed $251 $-1 #
loop $-1 $-1 $367 $239 #
vertex $-1 $378 $379 #
vertex $-1 $152 $380 #
straight-curve $-1 58.861659596545309 -12.08028099659162 86.800334572104475 0 0 -1 I I #
coedge $-1 $255 $255 $-1 $381 reversed $155 $-1 #
edge $-1 $382 0 $382 6.2831853071796004 $156 $383 forward 7 unknown #
vertex $-1 $159 $384 #
ellipse-curve $-1 54.936548673301061 -6.9240392342493031 11.702195223368479 0.74314483375859142 0 0.66913059716165679 1.3382611943233136 0 -1.4862896675171828 1 I I #
face $-1 $-1 $175 $24 $-1 $385 reversed single #
loop $-1 $-1 $275 $160 #
plane-surface $-1 0 37.848979436668927 0 0 -1 0 0 0 -1 forward_v I I I I #
coedge $-1 $386 $273 $276 $387 forward $161 $-1 #
coedge $-1 $279 $163 $164 $267 reversed $100 $-1 #
coedge $-1 $273 $386 $163 $265 reversed $161 $-1 #
edge $-1 $280 -16.061472645311984 $388 16.061472645311984 $264 $389 forward 7 unknown #
coedge $-1 $165 $164 $386 $390 forward $65 $-1 #
edge $-1 $271 -58.861659596545309 $388 58.861659596545309 $263 $391 forward 7 unknown #
coedge $-1 $276 $275 $165 $269 reversed $260 $-1 #
edge $-1 $392 -58.861659596545309 $270 58.861659596545309 $268 $393 forward 7 unknown #
vertex $-1 $167 $394 #
vertex $-1 $282 $395 #
straight-curve $-1 58.861659596545309 0 -16.061472645311984 0 -1 0 I I #
coedge $-1 $262 $264 $168 $274 reversed $161 $-1 #
edge $-1 $277 -37.848979436668927 $280 37.848979436668927 $273 $396 forward 7 unknown #
coedge $-1 $268 $169 $174 $283 forward $260 $-1 #
coedge $-1 $169 $268 $262 $387 reversed $260 $-1 #
vertex $-1 $170 $397 #
straight-curve $-1 0 37.848979436668927 16.061472645311984 -1 0 0 I I #
coedge $-1 $171 $263 $173 $282 reversed $100 $-1 #
vertex $-1 $274 $398 #
straight-curve $-1 0 -37.848979436668927 16.061472645311984 1 0 0 I I #
edge $-1 $176 -16.061472645311984 $271 16.061472645311984 $173 $399 forward 7 unknown #
edge $-1 $177 -16.061472645311984 $270 16.061472645311984 $174 $400 forward 7 unknown #
point $-1 58.861659596545309 -37.848979436668927 16.061472645311984 #
point $-1 58.861659596545309 37.848979436668927 16.061472645311984 #
face $-1 $-1 $194 $25 $-1 $401 reversed single #
loop $-1 $-1 $190 $179 #
plane-surface $-1 0 -37.848979436668927 0 0 1 0 0 0 1 forward_v I I I I #
coedge $-1 $402 $403 $187 $299 forward $180 $-1 #
coedge $-1 $300 $182 $184 $295 reversed $108 $-1 #
edge $-1 $297 -5.5031176678847835 $195 -1.9800539607735006 $193 $404 forward 7 unknown #
coedge $-1 $184 $183 $405 $406 reversed $69 $-1 #
coedge $-1 $304 $303 $183 $294 forward $287 $-1 #
edge $-1 $407 -58.861659596545309 $296 58.861659596545309 $293 $408 forward 7 unknown #
edge $-1 $409 -58.861659596545309 $297 58.861659596545309 $290 $410 forward 7 unknown #
vertex $-1 $294 $411 #
vertex $-1 $186 $412 #
straight-curve $-1 58.861659596545309 -14.013956821703118 -9.2447034822139251 0 1 0 I I #
edge $-1 $305 -23.835022614965808 $301 -4.1928910284404282 $289 $413 forward 7 unknown #
coedge $-1 $188 $290 $402 $414 reversed $108 $-1 #
vertex $-1 $299 $415 #
straight-curve $-1 0 -18.206847850143546 -5.7216397751026422 -1 0 0 I I #
coedge $-1 $293 $190 $403 $416 forward $287 $-1 #
coedge $-1 $190 $293 $192 $307 reversed $287 $-1 #
vertex $-1 $416 $417 #
straight-curve $-1 0 -37.848979436668927 -5.7216397751026422 -1 0 0 I I #
edge $-1 $196 5.7216397751026422 $296 9.2447034822139251 $192 $418 forward 7 unknown #
point $-1 58.861659596545309 -18.206847850143546 -5.7216397751026422 #
point $-1 58.861659596545309 -37.848979436668927 -5.7216397751026422 #
face $-1 $-1 $327 $26 $-1 $419 reversed single #
loop $-1 $-1 $323 $198 #
plane-surface $-1 -58.861659596545309 0 0 1 0 0 0 0 -1 forward_v I I I I #
coedge $-1 $330 $201 $202 $317 reversed $116 $-1 #
coedge $-1 $323 $420 $201 $315 forward $311 $-1 #
edge $-1 $421 -5.5031176678847835 $331 -1.9800539607735006 $314 $422 forward 7 unknown #
coedge $-1 $203 $202 $420 $423 reversed $73 $-1 #
edge $-1 $320 -58.861659596545309 $421 58.861659596545309 $313 $424 forward 7 unknown #
coedge $-1 $326 $325 $203 $319 forward $327 $-1 #
edge $-1 $321 -58.861659596545309 $425 58.861659596545309 $318 $426 forward 7 unknown #
vertex $-1 $205 $427 #
vertex $-1 $319 $428 #
straight-curve $-1 58.861659596545309 14.013956821703118 -9.2447034822139251 0 1 0 I I #
coedge $-1 $429 $314 $206 $324 forward $311 $-1 #
edge $-1 $331 4.1928910284404282 $328 23.835022614965808 $323 $430 forward 7 unknown #
coedge $-1 $318 $207 $212 $334 forward $327 $-1 #
coedge $-1 $207 $318 $429 $431 reversed $327 $-1 #
loop $-1 $-1 $207 $310 #
vertex $-1 $431 $432 #
straight-curve $-1 0 37.848979436668927 -5.7216397751026422 1 0 0 I I #
coedge $-1 $209 $313 $211 $333 reversed $116 $-1 #
vertex $-1 $324 $433 #
straight-curve $-1 0 18.206847850143546 -5.7216397751026422 1 0 0 I I #
edge $-1 $214 1.9800539607735006 $320 5.5031176678847835 $211 $434 forward 7 unknown #
edge $-1 $213 5.7216397751026422 $321 9.2447034822139251 $212 $435 forward 7 unknown #
point $-1 58.861659596545309 37.848979436668927 -5.7216397751026422 #
point $-1 58.861659596545309 18.206847850143546 -5.7216397751026422 #
loop $-1 $-1 $224 $216 #
plane-surface $-1 0 0 16.061472645311984 0 0 1 1 0 0 forward_v I I I I #
coedge $-1 $340 $219 $221 $344 reversed $124 $-1 #
coedge $-1 $219 $339 $436 $437 reversed $124 $-1 #
coedge $-1 $227 $222 $219 $342 forward $217 $-1 #
edge $-1 $345 -31.002421179972686 $438 -17.052819687798401 $341 $439 forward 7 unknown #
coedge $-1 $221 $220 $348 $440 reversed $77 $-1 #
edge $-1 $441 -16.632992610211879 $345 0 $339 $442 forward 7 unknown #
vertex $-1 $223 $443 #
straight-curve $-1 -58.861659596545309 2.7652904558118721 2.111871153137697 0 -1 0 I I #
coedge $-1 $436 $224 $227 $352 forward $337 $-1 #
coedge $-1 $224 $436 $343 $440 forward $337 $-1 #
vertex $-1 $225 $444 #
straight-curve $-1 -78.796371753465266 10.430225621368265 16.061472645311984 -1 0 0 I I #
straight-curve $-1 -58.861659596545309 10.430225621368265 2.1118711531376988 0.54463902268945019 0 0.83867057594974714 I I #
edge $-1 $228 -10.430225621368265 $438 -0.63093620187922284 $227 $445 forward 7 unknown #
point $-1 -58.861659596545309 10.430225621368265 16.061472645311984 #
point $-1 -58.861659596545309 10.430225621368265 2.1118711531376988 #
edge $-1 $446 1 $446 0 $231 $-1 forward 7 unknown #
vertex $-1 $232 $447 #
ellipse-curve $-1 -53.408499685754038 3.4307331788760962 8.4868326386633886 -0.83867057594974714 0 0.54463902268945019 0.54463902268945019 0 0.83867057594974714 1 I I #
point $-1 -53.787532154042538 3.4307331788760962 9.9253424751745829 #
edge $-1 $448 1 $448 0 $235 $-1 forward 7 unknown #
vertex $-1 $236 $449 #
ellipse-curve $-1 -53.408499685754038 7.6304286443713991 8.4868326386633886 -0.83867057594974714 0 0.54463902268945019 0.54463902268945019 0 0.83867057594974714 1 I I #
point $-1 -53.787532154042538 7.6304286443713991 9.9253424751745829 #
plane-surface $-1 58.861659596545309 0 0 -1 0 0 0 0 1 forward_v I I I I #
coedge $-1 $374 $373 $366 $450 forward $240 $-1 #
coedge $-1 $366 $242 $244 $370 reversed $146 $-1 #
coedge $-1 $242 $365 $364 $450 reversed $146 $-1 #
coedge $-1 $250 $245 $242 $368 forward $251 $-1 #
edge $-1 $371 -79.457416770679487 $451 -70.738861926792495 $367 $452 forward 7 unknown #
coedge $-1 $244 $243 $374 $453 reversed $91 $-1 #
edge $-1 $454 105.99134657102269 $371 117.72331919309059 $365 $455 forward 7 unknown #
vertex $-1 $246 $456 #
straight-curve $-1 58.861659596545309 -3.4620196171246498 7.3429178014249956 0 1 0 I I #
coedge $-1 $364 $247 $250 $378 forward $240 $-1 #
coedge $-1 $247 $364 $369 $453 forward $240 $-1 #
vertex $-1 $248 $457 #
straight-curve $-1 33.787430598139593 -12.08028099659162 16.06147264531198 1 0 0 I I #
straight-curve $-1 -19.910615274979733 -12.08028099659162 94.828394272683894 -0.66913059716165679 0 0.74314483375859142 I I #
edge $-1 $252 -12.08028099659162 $451 -1.7677974719069791 $250 $458 forward 7 unknown #
point $-1 58.861659596545309 -12.08028099659162 16.061472645311984 #
point $-1 58.861659596545309 -12.08028099659162 7.3429178014249885 #
edge $-1 $459 1 $459 0 $255 $-1 forward 7 unknown #
vertex $-1 $256 $460 #
ellipse-curve $-1 50.415038414887178 -6.9240392342493031 7.6310092016839652 0.74314483375859142 0 0.66913059716165679 1.3382611943233136 0 -1.4862896675171828 1 I I #
point $-1 56.274809867624377 -6.9240392342493031 10.215905555851297 #
plane-surface $-1 58.861659596545309 0 0 -1 0 0 0 0 1 forward_v I I I I #
coedge $-1 $264 $262 $266 $390 reversed $161 $-1 #
edge $-1 $277 -16.061472645311984 $392 16.061472645311984 $276 $461 forward 7 unknown #
vertex $-1 $390 $462 #
straight-curve $-1 -58.861659596545309 -37.848979436668927 0 0 0 -1 I I #
edge $-1 $388 -37.848979436668927 $392 37.848979436668927 $386 $463 forward 7 unknown #
straight-curve $-1 0 -37.848979436668927 -16.061472645311984 -1 0 0 I I #
vertex $-1 $269 $464 #
straight-curve $-1 0 37.848979436668927 -16.061472645311984 1 0 0 I I #
point $-1 58.861659596545309 37.848979436668927 -16.061472645311984 #
point $-1 58.861659596545309 -37.848979436668927 -16.061472645311984 #
straight-curve $-1 -58.861659596545309 0 16.061472645311984 0 -1 0 I I #
point $-1 -58.861659596545309 37.848979436668927 16.061472645311984 #
point $-1 -58.861659596545309 -37.848979436668927 16.061472645311984 #
straight-curve $-1 58.861659596545309 -37.848979436668927 0 0 0 -1 I I #
straight-curve $-1 58.861659596545309 37.848979436668927 0 0 0 -1 I I #
plane-surface $-1 58.861659596545309 0 0 -1 0 0 0 0 1 forward_v I I I I #
coedge $-1 $405 $289 $300 $414 forward $180 $-1 #
coedge $-1 $289 $405 $303 $416 reversed $180 $-1 #
straight-curve $-1 58.861659596545309 -18.206847850143546 -3.7415858143291416 0 0 1 I I #
coedge $-1 $403 $402 $292 $406 forward $180 $-1 #
edge $-1 $409 4.1928910284404282 $407 23.835022614965808 $405 $465 forward 7 unknown #
vertex $-1 $294 $466 #
straight-curve $-1 0 -37.848979436668927 -9.2447034822139251 1 0 0 I I #
vertex $-1 $406 $467 #
straight-curve $-1 0 -18.206847850143546 -9.2447034822139251 1 0 0 I I #
point $-1 58.861659596545309 -37.848979436668927 -9.2447034822139251 #
point $-1 58.861659596545309 -18.206847850143546 -9.2447034822139251 #
straight-curve $-1 -58.861659596545309 -14.013956821703118 -5.7216397751026422 0 1 0 I I #
edge $-1 $301 1.9800539607735006 $409 5.5031176678847835 $402 $468 forward 7 unknown #
point $-1 -58.861659596545309 -18.206847850143546 -5.7216397751026422 #
edge $-1 $305 5.7216397751026422 $407 9.2447034822139251 $403 $469 forward 7 unknown #
point $-1 -58.861659596545309 -37.848979436668927 -5.7216397751026422 #
straight-curve $-1 58.861659596545309 -37.848979436668927 0 0 0 -1 I I #
plane-surface $-1 0 37.848979436668927 0 0 -1 0 0 0 -1 forward_v I I I I #
coedge $-1 $314 $429 $316 $423 forward $311 $-1 #
vertex $-1 $423 $470 #
straight-curve $-1 -58.861659596545309 18.206847850143546 -3.7415858143291416 0 0 1 I I #
edge $-1 $425 -23.835022614965808 $421 -4.1928910284404282 $420 $471 forward 7 unknown #
straight-curve $-1 0 18.206847850143546 -9.2447034822139251 -1 0 0 I I #
vertex $-1 $319 $472 #
straight-curve $-1 0 37.848979436668927 -9.2447034822139251 -1 0 0 I I #
point $-1 58.861659596545309 18.206847850143546 -9.2447034822139251 #
point $-1 58.861659596545309 37.848979436668927 -9.2447034822139251 #
coedge $-1 $420 $323 $326 $431 forward $311 $-1 #
straight-curve $-1 -58.861659596545309 14.013956821703118 -5.7216397751026422 0 1 0 I I #
edge $-1 $328 5.7216397751026422 $425 9.2447034822139251 $326 $473 forward 7 unknown #
point $-1 -58.861659596545309 37.848979436668927 -5.7216397751026422 #
point $-1 -58.861659596545309 18.206847850143546 -5.7216397751026422 #
straight-curve $-1 58.861659596545309 18.206847850143546 -3.7415858143291416 0 0 -1 I I #
straight-curve $-1 58.861659596545309 37.848979436668927 0 0 0 -1 I I #
coedge $-1 $348 $347 $340 $437 forward $337 $-1 #
edge $-1 $438 19.934712156919957 $441 28.993688996546602 $436 $474 forward 7 unknown #
vertex $-1 $437 $475 #
straight-curve $-1 -58.861659596545309 0.63093620187922284 33.114292333110384 0 0 1 I I #
edge $-1 $441 -2.1343542539326492 $349 7.6649351655563933 $348 $476 forward 7 unknown #
vertex $-1 $440 $477 #
straight-curve $-1 -58.861659596545309 0.63093620187922284 2.1118711531376988 -0.54463902268945019 0 -0.83867057594974714 I I #
point $-1 -58.861659596545309 0.63093620187922284 2.1118711531376988 #
point $-1 -49.802682756918664 10.430225621368265 16.061472645311984 #
straight-curve $-1 -58.861659596545309 0 16.061472645311984 0 -1 0 I I #
vertex $-1 $355 $478 #
point $-1 -52.863860663064585 3.4307331788760962 9.3255032146131356 #
vertex $-1 $359 $479 #
point $-1 -52.863860663064585 7.6304286443713991 9.3255032146131356 #
edge $-1 $451 -25.074228998405715 $454 -17.22400715191722 $364 $480 forward 7 unknown #
vertex $-1 $368 $481 #
straight-curve $-1 58.861659596545309 -1.7677974719069791 86.800334572104475 0 0 1 I I #
edge $-1 $454 -1.6942221452176707 $375 8.6182613794669702 $374 $482 forward 7 unknown #
vertex $-1 $453 $483 #
straight-curve $-1 -19.910615274979733 -1.7677974719069791 94.828394272683894 0.66913059716165679 0 -0.74314483375859142 I I #
point $-1 58.861659596545309 -1.7677974719069791 7.3429178014249885 #
point $-1 51.011437750056814 -12.08028099659162 16.06147264531198 #
straight-curve $-1 58.861659596545309 0 16.061472645311984 0 1 0 I I #
vertex $-1 $381 $484 #
point $-1 51.753299609210494 -6.9240392342493031 6.1447195341667831 #
straight-curve $-1 -58.861659596545309 37.848979436668927 0 0 0 -1 I I #
point $-1 -58.861659596545309 -37.848979436668927 -16.061472645311984 #
straight-curve $-1 -58.861659596545309 0 -16.061472645311984 0 1 0 I I #
point $-1 -58.861659596545309 37.848979436668927 -16.061472645311984 #
straight-curve $-1 -58.861659596545309 -14.013956821703118 -9.2447034822139251 0 -1 0 I I #
point $-1 -58.861659596545309 -37.848979436668927 -9.2447034822139251 #
point $-1 -58.861659596545309 -18.206847850143546 -9.2447034822139251 #
straight-curve $-1 -58.861659596545309 -18.206847850143546 -3.7415858143291416 0 0 -1 I I #
straight-curve $-1 -58.861659596545309 -37.848979436668927 0 0 0 -1 I I #
point $-1 -58.861659596545309 18.206847850143546 -9.2447034822139251 #
straight-curve $-1 -58.861659596545309 14.013956821703118 -9.2447034822139251 0 -1 0 I I #
point $-1 -58.861659596545309 37.848979436668927 -9.2447034822139251 #
straight-curve $-1 -58.861659596545309 37.848979436668927 0 0 0 -1 I I #
straight-curve $-1 -78.796371753465266 0.63093620187922284 16.061472645311984 1 0 0 I I #
point $-1 -58.861659596545309 0.63093620187922284 16.061472645311984 #
straight-curve $-1 -49.802682756918664 2.7652904558118721 16.061472645311984 0 1 0 I I #
point $-1 -49.802682756918664 0.63093620187922284 16.061472645311984 #
point $-1 -52.569829109804289 3.4307331788760962 7.942193615973939 #
point $-1 -52.569829109804289 7.6304286443713991 7.942193615973939 #
straight-curve $-1 33.787430598139593 -1.7677974719069791 16.06147264531198 -1 0 0 I I #
point $-1 58.861659596545309 -1.7677974719069791 16.061472645311984 #
straight-curve $-1 51.011437750056807 -3.4620196171246498 16.06147264531198 0 -1 0 I I #
point $-1 51.011437750056814 -1.7677974719069791 16.06147264531198 #
point $-1 48.928748747369994 -6.9240392342493031 6.2927480073606512 #
End-of-ACIS-data 