500 0 14 0           
7 Unknown 11 ACIS 5.0 NT 24 Fri Mar 26 00:46:03 1999 
-1 9.9999999999999995e-007 1e-010 
body $-1 $14 $-1 $15 #
body $-1 $16 $-1 $17 #
body $-1 $18 $-1 $19 #
body $-1 $20 $-1 $21 #
body $-1 $22 $-1 $23 #
body $-1 $24 $-1 $25 #
body $-1 $26 $-1 $27 #
body $-1 $28 $-1 $29 #
body $-1 $30 $-1 $31 #
body $-1 $32 $-1 $33 #
body $-1 $34 $-1 $35 #
body $-1 $36 $-1 $37 #
body $-1 $38 $-1 $39 #
body $-1 $40 $-1 $41 #
lump $-1 $-1 $42 $0 #
transform $-1 1 0 0 0 1 0 0 0 1 60.568254646443066 36.865728552938172 15.108906989051853 1 rotate no_reflect no_shear #
lump $-1 $-1 $43 $1 #
transform $-1 1 0 0 0 1 0 0 0 1 60.568254646443066 36.865728552938172 15.108906989051853 1 rotate no_reflect no_shear #
lump $-1 $-1 $44 $2 #
transform $-1 1 0 0 0 1 0 0 0 1 60.568254646443066 36.865728552938172 15.108906989051853 1 rotate no_reflect no_shear #
lump $-1 $-1 $45 $3 #
transform $-1 1 0 0 0 1 0 0 0 1 60.568254646443066 36.865728552938172 15.108906989051853 1 rotate no_reflect no_shear #
lump $-1 $-1 $46 $4 #
transform $-1 1 0 0 0 1 0 0 0 1 60.568254646443066 36.865728552938172 15.108906989051853 1 rotate no_reflect no_shear #
lump $-1 $-1 $47 $5 #
transform $-1 1 0 0 0 1 0 0 0 1 60.568254646443066 36.865728552938172 15.108906989051853 1 rotate no_reflect no_shear #
lump $-1 $-1 $48 $6 #
transform $-1 1 0 0 0 1 0 0 0 1 60.568254646443066 36.865728552938172 15.108906989051853 1 rotate no_reflect no_shear #
lump $-1 $-1 $49 $7 #
transform $-1 1 0 0 0 1 0 0 0 1 60.568254646443066 36.865728552938172 15.108906989051853 1 rotate no_reflect no_shear #
lump $-1 $-1 $50 $8 #
transform $-1 1 0 0 0 1 0 0 0 1 60.568254646443066 36.865728552938172 15.108906989051853 1 rotate no_reflect no_shear #
lump $-1 $-1 $51 $9 #
transform $-1 1 0 0 0 1 0 0 0 1 60.568254646443066 36.865728552938172 15.108906989051853 1 rotate no_reflect no_shear #
lump $-1 $-1 $52 $10 #
transform $-1 1 0 0 0 1 0 0 0 1 60.568254646443066 36.865728552938172 15.108906989051853 1 rotate no_reflect no_shear #
lump $-1 $-1 $53 $11 #
transform $-1 1 0 0 0 1 0 0 0 1 60.568254646443066 36.865728552938172 15.108906989051853 1 rotate no_reflect no_shear #
lump $-1 $-1 $54 $12 #
transform $-1 1 0 0 0 1 0 0 0 1 60.568254646443066 36.865728552938172 15.108906989051853 1 rotate no_reflect no_shear #
lump $-1 $-1 $55 $13 #
transform $-1 1 0 0 0 1 0 0 0 1 60.568254646443066 36.865728552938172 15.108906989051853 1 rotate no_reflect no_shear #
shell $-1 $-1 $-1 $56 $-1 $14 #
shell $-1 $-1 $-1 $57 $-1 $16 #
shell $-1 $-1 $-1 $58 $-1 $18 #
shell $-1 $-1 $-1 $59 $-1 $20 #
shell $-1 $-1 $-1 $60 $-1 $22 #
shell $-1 $-1 $-1 $61 $-1 $24 #
shell $-1 $-1 $-1 $62 $-1 $26 #
shell $-1 $-1 $-1 $63 $-1 $28 #
shell $-1 $-1 $-1 $64 $-1 $30 #
shell $-1 $-1 $-1 $65 $-1 $32 #
shell $-1 $-1 $-1 $66 $-1 $34 #
shell $-1 $-1 $-1 $67 $-1 $36 #
shell $-1 $-1 $-1 $68 $-1 $38 #
shell $-1 $-1 $-1 $69 $-1 $40 #
face $-1 $70 $71 $42 $-1 $72 forward single #
face $-1 $73 $74 $43 $-1 $75 reversed single #
face $-1 $76 $77 $44 $-1 $78 reversed single #
face $-1 $79 $80 $45 $-1 $81 forward single #
face $-1 $82 $83 $46 $-1 $84 forward single #
face $-1 $85 $86 $47 $-1 $87 forward single #
face $-1 $88 $89 $48 $-1 $90 reversed single #
face $-1 $91 $92 $49 $-1 $93 forward single #
face $-1 $94 $95 $50 $-1 $96 forward single #
face $-1 $97 $98 $51 $-1 $99 forward single #
face $-1 $100 $101 $52 $-1 $102 reversed single #
face $-1 $103 $104 $53 $-1 $105 forward single #
face $-1 $106 $107 $54 $-1 $108 forward single #
face $-1 $109 $110 $55 $-1 $111 forward single #
face $-1 $112 $113 $42 $-1 $114 reversed single #
loop $-1 $-1 $115 $56 #
plane-surface $-1 0 0 15.108906989051853 0 0 1 1 0 0 forward_v I I I I #
face $-1 $116 $117 $43 $-1 $118 reversed single #
loop $-1 $-1 $119 $57 #
plane-surface $-1 -56.032890137080066 -30.698240166253935 0 1 0 0 0 0 -1 forward_v I I I I #
face $-1 $120 $121 $44 $-1 $122 reversed single #
loop $-1 $-1 $123 $58 #
plane-surface $-1 104.90729693332726 34.056303320219953 177.1894108705911 0 -1 0 -0.86602541151947299 0 -0.49999998660252726 forward_v I I I I #
face $-1 $124 $125 $45 $-1 $126 forward single #
loop $-1 $127 $128 $59 #
cone-surface $-1 58.781472837499834 23.326431293653599 12.945626542971441 -0.86602541151947299 0 -0.49999998660252726 0.24999999330126363 0 -0.43301270575973649 1 I I 0 1 0.5 forward I I I I #
face $-1 $129 $130 $46 $-1 $131 forward single #
loop $-1 $132 $133 $60 #
cone-surface $-1 58.781472837499834 27.350133303615983 12.945626542971441 -0.86602541151947299 0 -0.49999998660252726 0.24999999330126363 0 -0.43301270575973649 1 I I 0 1 0.5 forward I I I I #
face $-1 $134 $135 $47 $-1 $136 forward single #
loop $-1 $137 $138 $61 #
cone-surface $-1 58.781472837499834 31.373835313578361 12.945626542971441 -0.86602541151947299 0 -0.49999998660252726 0.24999999330126363 0 -0.43301270575973649 1 I I 0 1 0.5 forward I I I I #
face $-1 $139 $140 $48 $-1 $141 reversed single #
loop $-1 $-1 $142 $62 #
plane-surface $-1 -128.30693187462117 -20.174496722278747 103.07894717227455 0 1 0 -0.55919291073839883 0 0.82903756765294845 forward_v I I I I #
face $-1 $143 $144 $49 $-1 $145 forward single #
loop $-1 $146 $147 $63 #
cone-surface $-1 -50.820160015540125 -18.475848899461937 8.1182307411049042 0.55919291073839883 0 -0.82903756765294845 0.41451878382647422 0 0.27959645536919941 1 I I 0 1 0.5 forward I I I I #
face $-1 $148 $149 $50 $-1 $150 forward single #
loop $-1 $151 $152 $64 #
cone-surface $-1 -50.820160015540125 -15.927877165236726 8.1182307411049042 0.55919291073839883 0 -0.82903756765294845 0.41451878382647422 0 0.27959645536919941 1 I I 0 1 0.5 forward I I I I #
face $-1 $153 $154 $51 $-1 $155 forward single #
loop $-1 $156 $157 $65 #
cone-surface $-1 -50.820160015540125 -13.379905431011515 8.1182307411049042 0.55919291073839883 0 -0.82903756765294845 0.41451878382647422 0 0.27959645536919941 1 I I 0 1 0.5 forward I I I I #
face $-1 $158 $159 $52 $-1 $160 reversed single #
loop $-1 $-1 $161 $66 #
plane-surface $-1 -128.30693187462117 10.523743443975189 103.07894717227455 0 1 0 -0.55919291073839883 0 0.82903756765294845 forward_v I I I I #
face $-1 $162 $163 $53 $-1 $164 forward single #
loop $-1 $165 $166 $67 #
cone-surface $-1 -50.820160015540125 12.222391266791995 8.1182307411049042 0.55919291073839883 0 -0.82903756765294845 0.41451878382647422 0 0.27959645536919941 1 I I 0 1 0.5 forward I I I I #
face $-1 $167 $168 $54 $-1 $169 forward single #
loop $-1 $170 $171 $68 #
cone-surface $-1 -50.820160015540125 14.770363001017209 8.1182307411049042 0.55919291073839883 0 -0.82903756765294845 0.41451878382647422 0 0.27959645536919941 1 I I 0 1 0.5 forward I I I I #
face $-1 $172 $173 $55 $-1 $174 forward single #
loop $-1 $175 $176 $69 #
cone-surface $-1 -50.820160015540125 17.318334735242424 8.1182307411049042 0.55919291073839883 0 -0.82903756765294845 0.41451878382647422 0 0.27959645536919941 1 I I 0 1 0.5 forward I I I I #
face $-1 $177 $178 $42 $-1 $179 reversed single #
loop $-1 $-1 $180 $70 #
plane-surface $-1 0 0 -15.108906989051853 0 0 1 1 0 0 forward_v I I I I #
coedge $-1 $181 $182 $183 $184 forward $71 $-1 #
face $-1 $185 $186 $43 $-1 $187 reversed single #
loop $-1 $-1 $188 $73 #
plane-surface $-1 -53.143214267769814 -24.530751779569698 0 0 -1 0 0 0 -1 forward_v I I I I #
coedge $-1 $189 $190 $191 $192 forward $74 $-1 #
face $-1 $193 $194 $44 $-1 $195 reversed single #
loop $-1 $-1 $196 $76 #
plane-surface $-1 1.6229230794806426e-006 27.350133303615983 116.62115784707112 0.86602541151947299 0 0.49999998660252726 0.49999998660252726 0 -0.86602541151947299 forward_v I I I I #
coedge $-1 $197 $198 $199 $200 reversed $77 $-1 #
face $-1 $-1 $201 $45 $-1 $202 forward single #
loop $-1 $203 $204 $79 #
cone-surface $-1 57.758249554909924 23.326431293653599 12.354868326432843 -0.86602541151947299 0 -0.49999998660252726 0.12499999665063181 0 -0.21650635287986825 1 I I -0.70710678118654746 0.70710678118654746 0.25 forward I I I I #
loop $-1 $-1 $205 $59 #
coedge $-1 $128 $128 $206 $207 reversed $80 $-1 #
face $-1 $-1 $208 $46 $-1 $209 forward single #
loop $-1 $210 $211 $82 #
cone-surface $-1 57.758249554909924 27.350133303615983 12.354868326432843 -0.86602541151947299 0 -0.49999998660252726 0.12499999665063181 0 -0.21650635287986825 1 I I -0.70710678118654746 0.70710678118654746 0.25 forward I I I I #
loop $-1 $-1 $212 $60 #
coedge $-1 $133 $133 $213 $214 reversed $83 $-1 #
face $-1 $-1 $215 $47 $-1 $216 forward single #
loop $-1 $217 $218 $85 #
cone-surface $-1 57.758249554909924 31.373835313578361 12.354868326432843 -0.86602541151947299 0 -0.49999998660252726 0.12499999665063181 0 -0.21650635287986825 1 I I -0.70710678118654746 0.70710678118654746 0.25 forward I I I I #
loop $-1 $-1 $219 $61 #
coedge $-1 $138 $138 $220 $221 reversed $86 $-1 #
face $-1 $222 $223 $48 $-1 $224 reversed single #
loop $-1 $-1 $225 $88 #
plane-surface $-1 -60.56825464644308 -15.927877165236726 2.6522301541314448 -0.55919291073839883 0 0.82903756765294845 0.82903756765294845 0 0.55919291073839883 forward_v I I I I #
coedge $-1 $226 $227 $228 $229 reversed $89 $-1 #
face $-1 $-1 $230 $49 $-1 $231 forward single #
loop $-1 $232 $233 $91 #
cone-surface $-1 -50.166158418757625 -18.475848899461937 7.1486335187049264 0.55919291073839883 0 -0.82903756765294845 0.20725939191323711 0 0.13979822768459971 1 I I -0.70710678118654746 0.70710678118654746 0.25 forward I I I I #
loop $-1 $-1 $234 $63 #
coedge $-1 $147 $147 $235 $236 reversed $92 $-1 #
face $-1 $-1 $237 $50 $-1 $238 forward single #
loop $-1 $239 $240 $94 #
cone-surface $-1 -50.166158418757625 -15.927877165236726 7.1486335187049264 0.55919291073839883 0 -0.82903756765294845 0.20725939191323711 0 0.13979822768459971 1 I I -0.70710678118654746 0.70710678118654746 0.25 forward I I I I #
loop $-1 $-1 $241 $64 #
coedge $-1 $152 $152 $242 $243 reversed $95 $-1 #
face $-1 $-1 $244 $51 $-1 $245 forward single #
loop $-1 $246 $247 $97 #
cone-surface $-1 -50.166158418757625 -13.379905431011515 7.1486335187049264 0.55919291073839883 0 -0.82903756765294845 0.20725939191323711 0 0.13979822768459971 1 I I -0.70710678118654746 0.70710678118654746 0.25 forward I I I I #
loop $-1 $-1 $248 $65 #
coedge $-1 $157 $157 $249 $250 reversed $98 $-1 #
face $-1 $251 $252 $52 $-1 $253 reversed single #
loop $-1 $-1 $254 $100 #
plane-surface $-1 -60.56825464644308 14.770363001017209 2.6522301541314448 -0.55919291073839883 0 0.82903756765294845 0.82903756765294845 0 0.55919291073839883 forward_v I I I I #
coedge $-1 $255 $256 $257 $258 reversed $101 $-1 #
face $-1 $-1 $259 $53 $-1 $260 forward single #
loop $-1 $261 $262 $103 #
cone-surface $-1 -50.166158418757625 12.222391266791995 7.1486335187049264 0.55919291073839883 0 -0.82903756765294845 0.20725939191323711 0 0.13979822768459971 1 I I -0.70710678118654746 0.70710678118654746 0.25 forward I I I I #
loop $-1 $-1 $263 $67 #
coedge $-1 $166 $166 $264 $265 reversed $104 $-1 #
face $-1 $-1 $266 $54 $-1 $267 forward single #
loop $-1 $268 $269 $106 #
cone-surface $-1 -50.166158418757625 14.770363001017209 7.1486335187049264 0.55919291073839883 0 -0.82903756765294845 0.20725939191323711 0 0.13979822768459971 1 I I -0.70710678118654746 0.70710678118654746 0.25 forward I I I I #
loop $-1 $-1 $270 $68 #
coedge $-1 $171 $171 $271 $272 reversed $107 $-1 #
face $-1 $-1 $273 $55 $-1 $274 forward single #
loop $-1 $275 $276 $109 #
cone-surface $-1 -50.166158418757625 17.318334735242424 7.1486335187049264 0.55919291073839883 0 -0.82903756765294845 0.20725939191323711 0 0.13979822768459971 1 I I -0.70710678118654746 0.70710678118654746 0.25 forward I I I I #
loop $-1 $-1 $277 $69 #
coedge $-1 $176 $176 $278 $279 reversed $110 $-1 #
face $-1 $280 $281 $42 $-1 $282 reversed single #
loop $-1 $-1 $283 $112 #
plane-surface $-1 0 -36.865728552938172 0 0 1 0 0 0 1 forward_v I I I I #
coedge $-1 $284 $285 $286 $287 forward $113 $-1 #
coedge $-1 $288 $115 $289 $290 forward $71 $-1 #
coedge $-1 $115 $288 $291 $292 forward $71 $-1 #
coedge $-1 $293 $294 $115 $184 reversed $295 $-1 #
edge $-1 $296 -36.865728552938172 $297 36.865728552938172 $183 $298 forward 7 unknown #
face $-1 $299 $300 $43 $-1 $301 forward single #
loop $-1 $-1 $302 $116 #
plane-surface $-1 -50.253538398459561 -30.698240166253935 0 -1 0 0 0 0 1 forward_v I I I I #
coedge $-1 $303 $304 $305 $306 forward $117 $-1 #
coedge $-1 $307 $119 $308 $309 reversed $74 $-1 #
coedge $-1 $119 $307 $310 $311 reversed $74 $-1 #
coedge $-1 $304 $303 $119 $192 reversed $117 $-1 #
edge $-1 $312 -15.108906989051853 $313 15.108906989051853 $191 $314 forward 7 unknown #
face $-1 $315 $316 $44 $-1 $317 reversed single #
loop $-1 $-1 $318 $120 #
plane-surface $-1 104.90729693332726 20.643963287012017 177.1894108705911 0 1 0 0.86602541151947299 0 0.49999998660252726 forward_v I I I I #
coedge $-1 $319 $320 $321 $322 reversed $121 $-1 #
coedge $-1 $198 $123 $323 $324 reversed $77 $-1 #
coedge $-1 $123 $197 $319 $325 reversed $77 $-1 #
coedge $-1 $321 $326 $123 $200 forward $327 $-1 #
edge $-1 $328 -8.114606179779436 $329 -6.1544764213130208 $199 $330 forward 7 unknown #
loop $-1 $-1 $206 $124 #
plane-surface $-1 1.6229230794806426e-006 27.350133303615983 116.62115784707112 0.86602541151947299 0 0.49999998660252726 0.49999998660252726 0 -0.86602541151947299 forward_v I I I I #
loop $-1 $-1 $331 $79 #
coedge $-1 $204 $204 $205 $332 reversed $125 $-1 #
coedge $-1 $205 $205 $204 $332 forward $127 $-1 #
coedge $-1 $206 $206 $128 $207 forward $201 $-1 #
edge $-1 $333 0 $333 6.2831853071796004 $206 $334 forward 7 unknown #
loop $-1 $-1 $213 $129 #
plane-surface $-1 1.6229230794806426e-006 27.350133303615983 116.62115784707112 0.86602541151947299 0 0.49999998660252726 0.49999998660252726 0 -0.86602541151947299 forward_v I I I I #
loop $-1 $-1 $335 $82 #
coedge $-1 $211 $211 $212 $336 reversed $130 $-1 #
coedge $-1 $212 $212 $211 $336 forward $132 $-1 #
coedge $-1 $213 $213 $133 $214 forward $208 $-1 #
edge $-1 $337 0 $337 6.2831853071796004 $213 $338 forward 7 unknown #
loop $-1 $-1 $220 $134 #
plane-surface $-1 1.6229230794806426e-006 27.350133303615983 116.62115784707112 0.86602541151947299 0 0.49999998660252726 0.49999998660252726 0 -0.86602541151947299 forward_v I I I I #
loop $-1 $-1 $339 $85 #
coedge $-1 $218 $218 $219 $340 reversed $135 $-1 #
coedge $-1 $219 $219 $218 $340 forward $137 $-1 #
coedge $-1 $220 $220 $138 $221 forward $215 $-1 #
edge $-1 $341 0 $341 6.2831853071796004 $220 $342 forward 7 unknown #
face $-1 $343 $344 $48 $-1 $345 reversed single #
loop $-1 $-1 $346 $139 #
plane-surface $-1 -128.30693187462117 -11.681257608194706 103.07894717227455 0 -1 0 0.55919291073839883 0 -0.82903756765294845 forward_v I I I I #
coedge $-1 $347 $348 $349 $350 reversed $140 $-1 #
coedge $-1 $227 $142 $351 $352 reversed $89 $-1 #
coedge $-1 $142 $226 $347 $353 reversed $89 $-1 #
coedge $-1 $349 $354 $142 $229 forward $355 $-1 #
edge $-1 $356 3.5852112908675196 $357 22.052993814477567 $228 $358 forward 7 unknown #
loop $-1 $-1 $235 $143 #
plane-surface $-1 -60.56825464644308 -15.927877165236726 2.6522301541314448 -0.55919291073839883 0 0.82903756765294845 0.82903756765294845 0 0.55919291073839883 forward_v I I I I #
loop $-1 $-1 $359 $91 #
coedge $-1 $233 $233 $234 $360 reversed $144 $-1 #
coedge $-1 $234 $234 $233 $360 forward $146 $-1 #
coedge $-1 $235 $235 $147 $236 forward $230 $-1 #
edge $-1 $361 0 $361 6.2831853071796004 $235 $362 forward 7 unknown #
loop $-1 $-1 $242 $148 #
plane-surface $-1 -60.56825464644308 -15.927877165236726 2.6522301541314448 -0.55919291073839883 0 0.82903756765294845 0.82903756765294845 0 0.55919291073839883 forward_v I I I I #
loop $-1 $-1 $363 $94 #
coedge $-1 $240 $240 $241 $364 reversed $149 $-1 #
coedge $-1 $241 $241 $240 $364 forward $151 $-1 #
coedge $-1 $242 $242 $152 $243 forward $237 $-1 #
edge $-1 $365 0 $365 6.2831853071796004 $242 $366 forward 7 unknown #
loop $-1 $-1 $249 $153 #
plane-surface $-1 -60.56825464644308 -15.927877165236726 2.6522301541314448 -0.55919291073839883 0 0.82903756765294845 0.82903756765294845 0 0.55919291073839883 forward_v I I I I #
loop $-1 $-1 $367 $97 #
coedge $-1 $247 $247 $248 $368 reversed $154 $-1 #
coedge $-1 $248 $248 $247 $368 forward $156 $-1 #
coedge $-1 $249 $249 $157 $250 forward $244 $-1 #
edge $-1 $369 0 $369 6.2831853071796004 $249 $370 forward 7 unknown #
face $-1 $371 $372 $52 $-1 $373 forward single #
loop $-1 $-1 $374 $158 #
plane-surface $-1 -128.30693187462117 19.01698255805923 103.07894717227455 0 -1 0 0.55919291073839883 0 -0.82903756765294845 forward_v I I I I #
coedge $-1 $375 $376 $377 $378 reversed $159 $-1 #
coedge $-1 $256 $161 $379 $380 reversed $101 $-1 #
coedge $-1 $161 $255 $375 $381 reversed $101 $-1 #
coedge $-1 $377 $382 $161 $258 forward $372 $-1 #
edge $-1 $383 3.5852112908675196 $384 22.052993814477567 $257 $385 forward 7 unknown #
loop $-1 $-1 $264 $162 #
plane-surface $-1 -60.56825464644308 14.770363001017209 2.6522301541314448 -0.55919291073839883 0 0.82903756765294845 0.82903756765294845 0 0.55919291073839883 forward_v I I I I #
loop $-1 $-1 $386 $103 #
coedge $-1 $262 $262 $263 $387 reversed $163 $-1 #
coedge $-1 $263 $263 $262 $387 forward $165 $-1 #
coedge $-1 $264 $264 $166 $265 forward $259 $-1 #
edge $-1 $388 0 $388 6.2831853071796004 $264 $389 forward 7 unknown #
loop $-1 $-1 $271 $167 #
plane-surface $-1 -60.56825464644308 14.770363001017209 2.6522301541314448 -0.55919291073839883 0 0.82903756765294845 0.82903756765294845 0 0.55919291073839883 forward_v I I I I #
loop $-1 $-1 $390 $106 #
coedge $-1 $269 $269 $270 $391 reversed $168 $-1 #
coedge $-1 $270 $270 $269 $391 forward $170 $-1 #
coedge $-1 $271 $271 $171 $272 forward $266 $-1 #
edge $-1 $392 0 $392 6.2831853071796004 $271 $393 forward 7 unknown #
loop $-1 $-1 $278 $172 #
plane-surface $-1 -60.56825464644308 14.770363001017209 2.6522301541314448 -0.55919291073839883 0 0.82903756765294845 0.82903756765294845 0 0.55919291073839883 forward_v I I I I #
loop $-1 $-1 $394 $109 #
coedge $-1 $276 $276 $277 $395 reversed $173 $-1 #
coedge $-1 $277 $277 $276 $395 forward $175 $-1 #
coedge $-1 $278 $278 $176 $279 forward $273 $-1 #
edge $-1 $396 0 $396 6.2831853071796004 $278 $397 forward 7 unknown #
face $-1 $398 $399 $42 $-1 $400 reversed single #
loop $-1 $-1 $401 $177 #
plane-surface $-1 -60.568254646443066 0 0 1 0 0 0 0 -1 forward_v I I I I #
coedge $-1 $402 $291 $403 $404 forward $178 $-1 #
coedge $-1 $405 $180 $402 $406 forward $113 $-1 #
coedge $-1 $180 $405 $407 $408 forward $113 $-1 #
coedge $-1 $294 $293 $180 $287 reversed $295 $-1 #
edge $-1 $409 -36.865728552938172 $410 36.865728552938172 $286 $411 forward 7 unknown #
coedge $-1 $182 $181 $412 $413 forward $71 $-1 #
coedge $-1 $414 $415 $181 $290 reversed $399 $-1 #
edge $-1 $297 -60.568254646443066 $416 60.568254646443066 $289 $417 forward 7 unknown #
coedge $-1 $283 $418 $182 $292 reversed $178 $-1 #
edge $-1 $419 -60.568254646443066 $296 60.568254646443066 $291 $420 forward 7 unknown #
coedge $-1 $286 $183 $418 $421 forward $295 $-1 #
coedge $-1 $183 $286 $414 $422 reversed $295 $-1 #
loop $-1 $-1 $293 $398 #
vertex $-1 $184 $423 #
vertex $-1 $184 $424 #
straight-curve $-1 60.568254646443066 0 15.108906989051853 0 1 0 I I #
face $-1 $425 $426 $43 $-1 $427 reversed single #
loop $-1 $-1 $428 $185 #
plane-surface $-1 0 0 15.108906989051853 0 0 1 1 0 0 forward_v I I I I #
coedge $-1 $429 $430 $431 $432 reversed $186 $-1 #
coedge $-1 $191 $188 $433 $434 reversed $117 $-1 #
coedge $-1 $188 $191 $435 $436 reversed $117 $-1 #
coedge $-1 $430 $429 $188 $306 reversed $186 $-1 #
edge $-1 $437 -15.108906989051853 $438 15.108906989051853 $305 $439 forward 7 unknown #
coedge $-1 $190 $189 $440 $441 reversed $74 $-1 #
coedge $-1 $433 $442 $189 $309 forward $426 $-1 #
edge $-1 $443 -21.516608469811203 $313 -9.1816316964427305 $308 $444 forward 7 unknown #
coedge $-1 $445 $435 $190 $311 forward $300 $-1 #
edge $-1 $312 9.1816316964427305 $446 21.516608469811203 $310 $447 forward 7 unknown #
vertex $-1 $311 $448 #
vertex $-1 $309 $449 #
straight-curve $-1 -56.032890137080066 -24.530751779569698 0 0 0 -1 I I #
face $-1 $-1 $327 $44 $-1 $450 forward single #
loop $-1 $-1 $451 $193 #
plane-surface $-1 60.568254646443066 0 0 -1 0 0 0 0 1 forward_v I I I I #
coedge $-1 $452 $453 $454 $455 reversed $194 $-1 #
coedge $-1 $456 $196 $198 $325 forward $121 $-1 #
coedge $-1 $196 $456 $452 $457 forward $121 $-1 #
coedge $-1 $454 $199 $196 $322 forward $327 $-1 #
edge $-1 $329 -20.381236668411962 $458 -6.9688966352040254 $321 $459 forward 7 unknown #
coedge $-1 $460 $461 $197 $324 forward $316 $-1 #
edge $-1 $462 -76.880842898628615 $328 -73.485798446243706 $323 $463 forward 7 unknown #
edge $-1 $329 117.21624967091016 $462 121.13650929288613 $198 $464 forward 7 unknown #
coedge $-1 $199 $454 $460 $465 forward $327 $-1 #
loop $-1 $-1 $454 $315 #
vertex $-1 $324 $466 #
vertex $-1 $200 $467 #
straight-curve $-1 52.45364846666363 34.056303320219953 15.10890698905186 -1 0 0 I I #
coedge $-1 $331 $331 $-1 $468 reversed $203 $-1 #
edge $-1 $469 0 $469 6.2831853071796004 $204 $470 forward 7 unknown #
vertex $-1 $207 $471 #
ellipse-curve $-1 59.588189767209855 23.326431293653599 13.411384762859395 0.86602541151947299 0 0.49999998660252726 0.24999999330126363 0 -0.43301270575973649 1 I I #
coedge $-1 $335 $335 $-1 $472 reversed $210 $-1 #
edge $-1 $473 0 $473 6.2831853071796004 $211 $474 forward 7 unknown #
vertex $-1 $214 $475 #
ellipse-curve $-1 59.588189767209855 27.350133303615983 13.411384762859395 0.86602541151947299 0 0.49999998660252726 0.24999999330126363 0 -0.43301270575973649 1 I I #
coedge $-1 $339 $339 $-1 $476 reversed $217 $-1 #
edge $-1 $477 0 $477 6.2831853071796004 $218 $478 forward 7 unknown #
vertex $-1 $221 $479 #
ellipse-curve $-1 59.588189767209855 31.373835313578361 13.411384762859395 0.86602541151947299 0 0.49999998660252726 0.24999999330126363 0 -0.43301270575973649 1 I I #
face $-1 $-1 $355 $48 $-1 $480 forward single #
loop $-1 $-1 $481 $222 #
plane-surface $-1 -60.568254646443066 0 0 1 0 0 0 0 -1 forward_v I I I I #
coedge $-1 $482 $483 $484 $485 reversed $223 $-1 #
coedge $-1 $486 $225 $227 $353 forward $140 $-1 #
coedge $-1 $225 $486 $482 $487 forward $140 $-1 #
coedge $-1 $484 $228 $225 $350 forward $355 $-1 #
edge $-1 $357 -12.210558139660384 $488 -3.7173190255763426 $349 $489 forward 7 unknown #
coedge $-1 $490 $491 $226 $352 forward $344 $-1 #
edge $-1 $492 -48.887243432005825 $356 -36.430566597085424 $351 $493 forward 7 unknown #
edge $-1 $357 -22.276170880764042 $492 -1.7244626260799089e-014 $227 $494 forward 7 unknown #
coedge $-1 $228 $484 $490 $495 forward $355 $-1 #
loop $-1 $-1 $484 $343 #
vertex $-1 $352 $496 #
vertex $-1 $229 $497 #
straight-curve $-1 -64.153465937310585 -20.174496722278747 15.108906989051853 1 0 0 I I #
coedge $-1 $359 $359 $-1 $498 reversed $232 $-1 #
edge $-1 $499 0 $499 6.2831853071796004 $233 $500 forward 7 unknown #
vertex $-1 $236 $501 #
ellipse-curve $-1 -51.334363384638038 -18.475848899461937 8.8805685715916578 -0.55919291073839883 0 0.82903756765294845 0.41451878382647422 0 0.27959645536919941 1 I I #
coedge $-1 $363 $363 $-1 $502 reversed $239 $-1 #
edge $-1 $503 0 $503 6.2831853071796004 $240 $504 forward 7 unknown #
vertex $-1 $243 $505 #
ellipse-curve $-1 -51.334363384638038 -15.927877165236726 8.8805685715916578 -0.55919291073839883 0 0.82903756765294845 0.41451878382647422 0 0.27959645536919941 1 I I #
coedge $-1 $367 $367 $-1 $506 reversed $246 $-1 #
edge $-1 $507 0 $507 6.2831853071796004 $247 $508 forward 7 unknown #
vertex $-1 $250 $509 #
ellipse-curve $-1 -51.334363384638038 -13.379905431011515 8.8805685715916578 -0.55919291073839883 0 0.82903756765294845 0.41451878382647422 0 0.27959645536919941 1 I I #
face $-1 $-1 $510 $52 $-1 $511 reversed single #
loop $-1 $-1 $257 $251 #
plane-surface $-1 0 0 15.108906989051853 0 0 1 1 0 0 forward_v I I I I #
coedge $-1 $512 $513 $514 $515 reversed $252 $-1 #
coedge $-1 $516 $254 $256 $381 forward $159 $-1 #
coedge $-1 $254 $516 $512 $517 forward $159 $-1 #
coedge $-1 $514 $257 $254 $378 forward $372 $-1 #
edge $-1 $384 3.1385619434665841 $518 11.631801057550625 $377 $519 forward 7 unknown #
coedge $-1 $520 $521 $255 $380 forward $510 $-1 #
edge $-1 $522 -48.887243432005825 $383 -36.430566597085424 $379 $523 forward 7 unknown #
edge $-1 $384 -22.276170880764042 $522 -1.7244626260799089e-014 $256 $524 forward 7 unknown #
coedge $-1 $257 $514 $520 $525 forward $372 $-1 #
vertex $-1 $380 $526 #
vertex $-1 $258 $527 #
straight-curve $-1 -64.153465937310585 10.523743443975189 15.108906989051853 1 0 0 I I #
coedge $-1 $386 $386 $-1 $528 reversed $261 $-1 #
edge $-1 $529 0 $529 6.2831853071796004 $262 $530 forward 7 unknown #
vertex $-1 $265 $531 #
ellipse-curve $-1 -51.334363384638038 12.222391266791995 8.8805685715916578 -0.55919291073839883 0 0.82903756765294845 0.41451878382647422 0 0.27959645536919941 1 I I #
coedge $-1 $390 $390 $-1 $532 reversed $268 $-1 #
edge $-1 $533 0 $533 6.2831853071796004 $269 $534 forward 7 unknown #
vertex $-1 $272 $535 #
ellipse-curve $-1 -51.334363384638038 14.770363001017209 8.8805685715916578 -0.55919291073839883 0 0.82903756765294845 0.41451878382647422 0 0.27959645536919941 1 I I #
coedge $-1 $394 $394 $-1 $536 reversed $275 $-1 #
edge $-1 $537 0 $537 6.2831853071796004 $276 $538 forward 7 unknown #
vertex $-1 $279 $539 #
ellipse-curve $-1 -51.334363384638038 17.318334735242424 8.8805685715916578 -0.55919291073839883 0 0.82903756765294845 0.41451878382647422 0 0.27959645536919941 1 I I #
face $-1 $-1 $295 $42 $-1 $540 reversed single #
loop $-1 $-1 $414 $280 #
plane-surface $-1 0 36.865728552938172 0 0 -1 0 0 0 -1 forward_v I I I I #
coedge $-1 $541 $412 $415 $542 forward $281 $-1 #
coedge $-1 $418 $283 $284 $406 reversed $178 $-1 #
coedge $-1 $412 $541 $283 $404 reversed $281 $-1 #
edge $-1 $419 -15.108906989051853 $543 15.108906989051853 $403 $544 forward 7 unknown #
coedge $-1 $285 $284 $541 $545 forward $113 $-1 #
edge $-1 $410 -60.568254646443066 $543 60.568254646443066 $402 $546 forward 7 unknown #
coedge $-1 $415 $414 $285 $408 reversed $399 $-1 #
edge $-1 $547 -60.568254646443066 $409 60.568254646443066 $407 $548 forward 7 unknown #
vertex $-1 $287 $549 #
vertex $-1 $421 $550 #
straight-curve $-1 60.568254646443066 0 -15.108906989051853 0 -1 0 I I #
coedge $-1 $401 $403 $288 $413 reversed $281 $-1 #
edge $-1 $416 -36.865728552938172 $419 36.865728552938172 $412 $551 forward 7 unknown #
coedge $-1 $407 $289 $294 $422 forward $399 $-1 #
coedge $-1 $289 $407 $401 $542 reversed $399 $-1 #
vertex $-1 $290 $552 #
straight-curve $-1 0 36.865728552938172 15.108906989051853 -1 0 0 I I #
coedge $-1 $291 $402 $293 $421 reversed $178 $-1 #
vertex $-1 $413 $553 #
straight-curve $-1 0 -36.865728552938172 15.108906989051853 1 0 0 I I #
edge $-1 $296 -15.108906989051853 $410 15.108906989051853 $293 $554 forward 7 unknown #
edge $-1 $297 -15.108906989051853 $409 15.108906989051853 $294 $555 forward 7 unknown #
point $-1 60.568254646443066 -36.865728552938172 15.108906989051853 #
point $-1 60.568254646443066 36.865728552938172 15.108906989051853 #
face $-1 $-1 $556 $43 $-1 $557 reversed single #
loop $-1 $-1 $558 $299 #
plane-surface $-1 0 0 -15.108906989051853 0 0 1 1 0 0 forward_v I I I I #
coedge $-1 $435 $445 $430 $559 forward $300 $-1 #
coedge $-1 $305 $302 $558 $560 reversed $186 $-1 #
coedge $-1 $302 $305 $428 $559 reversed $186 $-1 #
coedge $-1 $561 $562 $302 $432 forward $556 $-1 #
edge $-1 $563 -15.108906989051853 $564 15.108906989051853 $431 $565 forward 7 unknown #
coedge $-1 $558 $308 $303 $434 forward $426 $-1 #
edge $-1 $313 -29.46128300319516 $438 -23.681931264574654 $433 $566 forward 7 unknown #
coedge $-1 $310 $428 $304 $436 forward $300 $-1 #
edge $-1 $437 23.681931264574654 $312 29.46128300319516 $435 $567 forward 7 unknown #
vertex $-1 $436 $568 #
vertex $-1 $434 $569 #
straight-curve $-1 -50.253538398459561 -24.530751779569698 0 0 0 -1 I I #
coedge $-1 $562 $561 $307 $441 forward $556 $-1 #
edge $-1 $446 -15.108906989051853 $443 15.108906989051853 $440 $570 forward 7 unknown #
coedge $-1 $308 $558 $562 $571 forward $426 $-1 #
vertex $-1 $309 $572 #
straight-curve $-1 -56.032890137080066 -15.349120083126968 -15.108906989051853 0 1 0 I I #
coedge $-1 $428 $310 $561 $573 forward $300 $-1 #
vertex $-1 $573 $574 #
straight-curve $-1 -56.032890137080066 -15.349120083126968 15.108906989051853 0 -1 0 I I #
point $-1 -56.032890137080066 -24.530751779569698 15.108906989051853 #
point $-1 -56.032890137080066 -24.530751779569698 -15.108906989051853 #
plane-surface $-1 0 0 15.108906989051853 0 0 1 1 0 0 forward_v I I I I #
coedge $-1 $461 $460 $453 $575 forward $316 $-1 #
coedge $-1 $453 $318 $320 $457 reversed $194 $-1 #
coedge $-1 $318 $452 $451 $575 reversed $194 $-1 #
coedge $-1 $326 $321 $318 $455 forward $327 $-1 #
edge $-1 $458 6.1544764213130208 $576 8.114606179779436 $454 $577 forward 7 unknown #
coedge $-1 $320 $319 $461 $578 reversed $121 $-1 #
edge $-1 $579 -121.13650929288613 $458 -117.21624967091016 $452 $580 forward 7 unknown #
vertex $-1 $322 $581 #
straight-curve $-1 58.608124887976643 13.675066651807992 15.108906989051853 0 -1 0 I I #
coedge $-1 $451 $323 $326 $465 reversed $316 $-1 #
coedge $-1 $323 $451 $456 $578 forward $316 $-1 #
vertex $-1 $324 $582 #
straight-curve $-1 60.568254646443066 34.056303320219953 88.594705435295552 0 0 1 I I #
straight-curve $-1 1.6229230794806426e-006 34.056303320219953 116.62115784707112 0.49999998660252726 0 -0.86602541151947299 I I #
edge $-1 $576 20.643963287012017 $328 34.056303320219953 $460 $583 forward 7 unknown #
point $-1 60.568254646443066 34.056303320219953 15.108906989051853 #
point $-1 58.608124887976651 34.056303320219953 15.10890698905186 #
edge $-1 $584 1 $584 0 $331 $-1 forward 7 unknown #
vertex $-1 $332 $585 #
ellipse-curve $-1 57.974755907789792 23.326431293653599 12.479868323083474 0.86602541151947299 0 0.49999998660252726 0.24999999330126363 0 -0.43301270575973649 1 I I #
point $-1 59.838189760511135 23.326431293653599 12.978372057099669 #
edge $-1 $586 1 $586 0 $335 $-1 forward 7 unknown #
vertex $-1 $336 $587 #
ellipse-curve $-1 57.974755907789792 27.350133303615983 12.479868323083474 0.86602541151947299 0 0.49999998660252726 0.24999999330126363 0 -0.43301270575973649 1 I I #
point $-1 59.838189760511135 27.350133303615983 12.978372057099669 #
edge $-1 $588 1 $588 0 $339 $-1 forward 7 unknown #
vertex $-1 $340 $589 #
ellipse-curve $-1 57.974755907789792 31.373835313578361 12.479868323083474 0.86602541151947299 0 0.49999998660252726 0.24999999330126363 0 -0.43301270575973649 1 I I #
point $-1 59.838189760511135 31.373835313578361 12.978372057099669 #
plane-surface $-1 0 0 15.108906989051853 0 0 1 1 0 0 forward_v I I I I #
coedge $-1 $491 $490 $483 $590 forward $344 $-1 #
coedge $-1 $483 $346 $348 $487 reversed $223 $-1 #
coedge $-1 $346 $482 $481 $590 reversed $223 $-1 #
coedge $-1 $354 $349 $346 $485 forward $355 $-1 #
edge $-1 $488 -22.052993814477567 $591 -3.5852112908675196 $484 $592 forward 7 unknown #
coedge $-1 $348 $347 $491 $593 reversed $140 $-1 #
edge $-1 $594 1.7244626260799089e-014 $488 22.276170880764042 $482 $595 forward 7 unknown #
vertex $-1 $350 $596 #
straight-curve $-1 -42.100472122833011 -7.9639385826183631 15.108906989051853 0 1 0 I I #
coedge $-1 $481 $351 $354 $495 reversed $344 $-1 #
coedge $-1 $351 $481 $486 $593 forward $344 $-1 #
vertex $-1 $352 $597 #
straight-curve $-1 -60.568254646443066 -20.174496722278747 51.539473586137277 0 0 1 I I #
straight-curve $-1 -60.56825464644308 -20.174496722278747 2.6522301541314448 -0.82903756765294845 0 -0.55919291073839883 I I #
edge $-1 $591 11.681257608194706 $356 20.174496722278747 $490 $598 forward 7 unknown #
point $-1 -60.568254646443066 -20.174496722278747 15.108906989051853 #
point $-1 -42.100472122833018 -20.174496722278747 15.108906989051853 #
edge $-1 $599 1 $599 0 $359 $-1 forward 7 unknown #
vertex $-1 $360 $600 #
ellipse-curve $-1 -50.305956646442226 -18.475848899461937 7.3558929106181639 -0.55919291073839883 0 0.82903756765294845 0.41451878382647422 0 0.27959645536919941 1 I I #
point $-1 -50.919844600811558 -18.475848899461937 9.160165026960847 #
edge $-1 $601 1 $601 0 $363 $-1 forward 7 unknown #
vertex $-1 $364 $602 #
ellipse-curve $-1 -50.305956646442226 -15.927877165236726 7.3558929106181639 -0.55919291073839883 0 0.82903756765294845 0.41451878382647422 0 0.27959645536919941 1 I I #
point $-1 -50.919844600811558 -15.927877165236726 9.160165026960847 #
edge $-1 $603 1 $603 0 $367 $-1 forward 7 unknown #
vertex $-1 $368 $604 #
ellipse-curve $-1 -50.305956646442226 -13.379905431011515 7.3558929106181639 -0.55919291073839883 0 0.82903756765294845 0.41451878382647422 0 0.27959645536919941 1 I I #
point $-1 -50.919844600811558 -13.379905431011515 9.160165026960847 #
loop $-1 $-1 $379 $371 #
plane-surface $-1 -60.568254646443066 0 0 1 0 0 0 0 -1 forward_v I I I I #
coedge $-1 $513 $374 $376 $517 reversed $252 $-1 #
coedge $-1 $374 $512 $605 $606 reversed $252 $-1 #
coedge $-1 $382 $377 $374 $515 forward $372 $-1 #
edge $-1 $518 -22.052993814477567 $607 -3.5852112908675196 $514 $608 forward 7 unknown #
coedge $-1 $376 $375 $521 $609 reversed $159 $-1 #
edge $-1 $610 1.7244626260799089e-014 $518 22.276170880764042 $512 $611 forward 7 unknown #
vertex $-1 $378 $612 #
straight-curve $-1 -42.100472122833011 7.3851815005086046 15.108906989051853 0 1 0 I I #
coedge $-1 $605 $379 $382 $525 reversed $510 $-1 #
coedge $-1 $379 $605 $516 $609 forward $510 $-1 #
vertex $-1 $380 $613 #
straight-curve $-1 -60.568254646443066 10.523743443975189 51.539473586137277 0 0 1 I I #
straight-curve $-1 -60.56825464644308 10.523743443975189 2.6522301541314448 -0.82903756765294845 0 -0.55919291073839883 I I #
edge $-1 $607 -19.01698255805923 $383 -10.523743443975189 $520 $614 forward 7 unknown #
point $-1 -60.568254646443066 10.523743443975189 15.108906989051853 #
point $-1 -42.100472122833018 10.523743443975189 15.108906989051853 #
edge $-1 $615 1 $615 0 $386 $-1 forward 7 unknown #
vertex $-1 $387 $616 #
ellipse-curve $-1 -50.305956646442226 12.222391266791995 7.3558929106181639 -0.55919291073839883 0 0.82903756765294845 0.41451878382647422 0 0.27959645536919941 1 I I #
point $-1 -50.919844600811558 12.222391266791995 9.160165026960847 #
edge $-1 $617 1 $617 0 $390 $-1 forward 7 unknown #
vertex $-1 $391 $618 #
ellipse-curve $-1 -50.305956646442226 14.770363001017209 7.3558929106181639 -0.55919291073839883 0 0.82903756765294845 0.41451878382647422 0 0.27959645536919941 1 I I #
point $-1 -50.919844600811558 14.770363001017209 9.160165026960847 #
edge $-1 $619 1 $619 0 $394 $-1 forward 7 unknown #
vertex $-1 $395 $620 #
ellipse-curve $-1 -50.305956646442226 17.318334735242424 7.3558929106181639 -0.55919291073839883 0 0.82903756765294845 0.41451878382647422 0 0.27959645536919941 1 I I #
point $-1 -50.919844600811558 17.318334735242424 9.160165026960847 #
plane-surface $-1 60.568254646443066 0 0 -1 0 0 0 0 1 forward_v I I I I #
coedge $-1 $403 $401 $405 $545 reversed $281 $-1 #
edge $-1 $416 -15.108906989051853 $547 15.108906989051853 $415 $621 forward 7 unknown #
vertex $-1 $545 $622 #
straight-curve $-1 -60.568254646443066 -36.865728552938172 0 0 0 -1 I I #
edge $-1 $543 -36.865728552938172 $547 36.865728552938172 $541 $623 forward 7 unknown #
straight-curve $-1 0 -36.865728552938172 -15.108906989051853 -1 0 0 I I #
vertex $-1 $408 $624 #
straight-curve $-1 0 36.865728552938172 -15.108906989051853 1 0 0 I I #
point $-1 60.568254646443066 36.865728552938172 -15.108906989051853 #
point $-1 60.568254646443066 -36.865728552938172 -15.108906989051853 #
straight-curve $-1 -60.568254646443066 0 15.108906989051853 0 -1 0 I I #
point $-1 -60.568254646443066 36.865728552938172 15.108906989051853 #
point $-1 -60.568254646443066 -36.865728552938172 15.108906989051853 #
straight-curve $-1 60.568254646443066 -36.865728552938172 0 0 0 -1 I I #
straight-curve $-1 60.568254646443066 36.865728552938172 0 0 0 -1 I I #
loop $-1 $-1 $431 $425 #
plane-surface $-1 0 -36.865728552938172 0 0 1 0 0 0 1 forward_v I I I I #
coedge $-1 $442 $433 $429 $560 forward $426 $-1 #
edge $-1 $564 -21.516608469811203 $437 -9.1816316964427305 $428 $625 forward 7 unknown #
edge $-1 $438 9.1816316964427305 $563 21.516608469811203 $558 $626 forward 7 unknown #
coedge $-1 $440 $431 $445 $573 reversed $556 $-1 #
coedge $-1 $431 $440 $442 $571 reversed $556 $-1 #
vertex $-1 $571 $627 #
vertex $-1 $432 $628 #
straight-curve $-1 -50.253538398459561 -36.865728552938172 0 0 0 1 I I #
straight-curve $-1 -26.571607133884907 -24.530751779569698 -15.108906989051853 1 0 0 I I #
straight-curve $-1 -26.571607133884907 -24.530751779569698 15.108906989051853 -1 0 0 I I #
point $-1 -50.253538398459561 -24.530751779569698 15.108906989051853 #
point $-1 -50.253538398459561 -24.530751779569698 -15.108906989051853 #
straight-curve $-1 -56.032890137080066 -36.865728552938172 0 0 0 -1 I I #
edge $-1 $563 50.253538398459561 $443 56.032890137080066 $562 $629 forward 7 unknown #
point $-1 -56.032890137080066 -36.865728552938172 -15.108906989051853 #
edge $-1 $446 -56.032890137080066 $564 -50.253538398459561 $561 $630 forward 7 unknown #
point $-1 -56.032890137080066 -36.865728552938172 15.108906989051853 #
edge $-1 $576 73.485798446243706 $579 76.880842898628615 $451 $631 forward 7 unknown #
vertex $-1 $465 $632 #
straight-curve $-1 52.45364846666363 20.643963287012017 15.10890698905186 1 0 0 I I #
edge $-1 $579 6.9688966352040254 $462 20.381236668411962 $461 $633 forward 7 unknown #
vertex $-1 $578 $634 #
straight-curve $-1 1.6229230794806426e-006 20.643963287012017 116.62115784707112 -0.49999998660252726 0 0.86602541151947299 I I #
point $-1 58.608124887976651 20.643963287012017 15.10890698905186 #
point $-1 60.568254646443066 34.056303320219953 11.713862536666937 #
straight-curve $-1 60.568254646443066 0 15.108906989051853 0 1 0 I I #
vertex $-1 $468 $635 #
point $-1 58.224755901091058 23.326431293653599 12.046855617323738 #
vertex $-1 $472 $636 #
point $-1 58.224755901091058 27.350133303615983 12.046855617323738 #
vertex $-1 $476 $637 #
point $-1 58.224755901091058 31.373835313578361 12.046855617323738 #
edge $-1 $591 36.430566597085424 $594 48.887243432005825 $481 $638 forward 7 unknown #
vertex $-1 $495 $639 #
straight-curve $-1 -64.153465937310585 -11.681257608194706 15.108906989051853 -1 0 0 I I #
edge $-1 $594 3.7173190255763426 $492 12.210558139660384 $491 $640 forward 7 unknown #
vertex $-1 $593 $641 #
straight-curve $-1 -60.56825464644308 -11.681257608194706 2.6522301541314448 0.82903756765294845 0 0.55919291073839883 I I #
point $-1 -42.100472122833018 -11.681257608194706 15.108906989051853 #
point $-1 -60.568254646443066 -20.174496722278747 2.6522301541314546 #
straight-curve $-1 -60.568254646443066 0 15.108906989051853 0 -1 0 I I #
vertex $-1 $498 $642 #
point $-1 -49.891437862615753 -18.475848899461937 7.6354893659873628 #
vertex $-1 $502 $643 #
point $-1 -49.891437862615753 -15.927877165236726 7.6354893659873628 #
vertex $-1 $506 $644 #
point $-1 -49.891437862615753 -13.379905431011515 7.6354893659873628 #
coedge $-1 $521 $520 $513 $606 forward $510 $-1 #
edge $-1 $607 36.430566597085424 $610 48.887243432005825 $605 $645 forward 7 unknown #
vertex $-1 $525 $646 #
straight-curve $-1 -64.153465937310585 19.01698255805923 15.108906989051853 -1 0 0 I I #
edge $-1 $610 -11.631801057550625 $522 -3.1385619434665841 $521 $647 forward 7 unknown #
vertex $-1 $609 $648 #
straight-curve $-1 -60.56825464644308 19.01698255805923 2.6522301541314448 0.82903756765294845 0 0.55919291073839883 I I #
point $-1 -42.100472122833018 19.01698255805923 15.108906989051853 #
point $-1 -60.568254646443066 10.523743443975189 2.6522301541314546 #
straight-curve $-1 -60.568254646443066 0 15.108906989051853 0 -1 0 I I #
vertex $-1 $528 $649 #
point $-1 -49.891437862615753 12.222391266791995 7.6354893659873628 #
vertex $-1 $532 $650 #
point $-1 -49.891437862615753 14.770363001017209 7.6354893659873628 #
vertex $-1 $536 $651 #
point $-1 -49.891437862615753 17.318334735242424 7.6354893659873628 #
straight-curve $-1 -60.568254646443066 36.865728552938172 0 0 0 -1 I I #
point $-1 -60.568254646443066 -36.865728552938172 -15.108906989051853 #
straight-curve $-1 -60.568254646443066 0 -15.108906989051853 0 1 0 I I #
point $-1 -60.568254646443066 36.865728552938172 -15.108906989051853 #
straight-curve $-1 -50.253538398459561 -15.349120083126968 15.108906989051853 0 1 0 I I #
straight-curve $-1 -50.253538398459561 -15.349120083126968 -15.108906989051853 0 -1 0 I I #
point $-1 -50.253538398459561 -36.865728552938172 -15.108906989051853 #
point $-1 -50.253538398459561 -36.865728552938172 15.108906989051853 #
straight-curve $-1 0 -36.865728552938172 -15.108906989051853 -1 0 0 I I #
straight-curve $-1 0 -36.865728552938172 15.108906989051853 1 0 0 I I #
straight-curve $-1 60.568254646443066 20.643963287012017 88.594705435295552 0 0 -1 I I #
point $-1 60.568254646443066 20.643963287012017 15.108906989051853 #
straight-curve $-1 60.568254646443066 13.675066651807992 11.713862536666937 0 1 0 I I #
point $-1 60.568254646443066 20.643963287012017 11.713862536666937 #
point $-1 57.541743202030055 23.326431293653599 12.229868329782212 #
point $-1 57.541743202030055 27.350133303615983 12.229868329782212 #
point $-1 57.541743202030055 31.373835313578361 12.229868329782212 #
straight-curve $-1 -60.568254646443066 -11.681257608194706 51.539473586137277 0 0 -1 I I #
point $-1 -60.568254646443066 -11.681257608194706 15.108906989051853 #
straight-curve $-1 -60.568254646443066 -7.9639385826183631 2.6522301541314564 0 -1 0 I I #
point $-1 -60.568254646443066 -11.681257608194706 2.6522301541314546 #
point $-1 -50.026360191073024 -18.475848899461937 6.9413741267916889 #
point $-1 -50.026360191073024 -15.927877165236726 6.9413741267916889 #
point $-1 -50.026360191073024 -13.379905431011515 6.9413741267916889 #
straight-curve $-1 -60.568254646443066 19.01698255805923 51.539473586137277 0 0 -1 I I #
point $-1 -60.568254646443066 19.01698255805923 15.108906989051853 #
straight-curve $-1 -60.568254646443066 7.3851815005086046 2.6522301541314564 0 -1 0 I I #
point $-1 -60.568254646443066 19.01698255805923 2.6522301541314546 #
point $-1 -50.026360191073024 12.222391266791995 6.9413741267916889 #
point $-1 -50.026360191073024 14.770363001017209 6.9413741267916889 #
point $-1 -50.026360191073024 17.318334735242424 6.9413741267916889 #
End-of-ACIS-data 