500 0 17 0           
7 Unknown 11 ACIS 5.0 NT 24 Thu Mar 25 17:13:49 1999 
-1 9.9999999999999995e-007 1e-010 
body $-1 $17 $-1 $18 #
body $-1 $19 $-1 $20 #
body $-1 $21 $-1 $22 #
body $-1 $23 $-1 $24 #
body $-1 $25 $-1 $26 #
body $-1 $27 $-1 $28 #
body $-1 $29 $-1 $30 #
body $-1 $31 $-1 $32 #
body $-1 $33 $-1 $34 #
body $-1 $35 $-1 $36 #
body $-1 $37 $-1 $38 #
body $-1 $39 $-1 $40 #
body $-1 $41 $-1 $42 #
body $-1 $43 $-1 $44 #
body $-1 $45 $-1 $46 #
body $-1 $47 $-1 $48 #
body $-1 $49 $-1 $50 #
lump $-1 $-1 $51 $0 #
transform $-1 1 0 0 0 1 0 0 0 1 67.599719229712818 45.197551464229079 18.077503287598713 1 rotate no_reflect no_shear #
lump $-1 $-1 $52 $1 #
transform $-1 1 0 0 0 1 0 0 0 1 67.599719229712818 45.197551464229079 18.077503287598713 1 rotate no_reflect no_shear #
lump $-1 $-1 $53 $2 #
transform $-1 1 0 0 0 1 0 0 0 1 67.599719229712818 45.197551464229079 18.077503287598713 1 rotate no_reflect no_shear #
lump $-1 $-1 $54 $3 #
transform $-1 1 0 0 0 1 0 0 0 1 67.599719229712818 45.197551464229079 18.077503287598713 1 rotate no_reflect no_shear #
lump $-1 $-1 $55 $4 #
transform $-1 1 0 0 0 1 0 0 0 1 67.599719229712818 45.197551464229079 18.077503287598713 1 rotate no_reflect no_shear #
lump $-1 $-1 $56 $5 #
transform $-1 1 0 0 0 1 0 0 0 1 67.599719229712818 45.197551464229079 18.077503287598713 1 rotate no_reflect no_shear #
lump $-1 $-1 $57 $6 #
transform $-1 1 0 0 0 1 0 0 0 1 67.599719229712818 45.197551464229079 18.077503287598713 1 rotate no_reflect no_shear #
lump $-1 $-1 $58 $7 #
transform $-1 1 0 0 0 1 0 0 0 1 67.599719229712818 45.197551464229079 18.077503287598713 1 rotate no_reflect no_shear #
lump $-1 $-1 $59 $8 #
transform $-1 1 0 0 0 1 0 0 0 1 67.599719229712818 45.197551464229079 18.077503287598713 1 rotate no_reflect no_shear #
lump $-1 $-1 $60 $9 #
transform $-1 1 0 0 0 1 0 0 0 1 67.599719229712818 45.197551464229079 18.077503287598713 1 rotate no_reflect no_shear #
lump $-1 $-1 $61 $10 #
transform $-1 1 0 0 0 1 0 0 0 1 67.599719229712818 45.197551464229079 18.077503287598713 1 rotate no_reflect no_shear #
lump $-1 $-1 $62 $11 #
transform $-1 1 0 0 0 1 0 0 0 1 67.599719229712818 45.197551464229079 18.077503287598713 1 rotate no_reflect no_shear #
lump $-1 $-1 $63 $12 #
transform $-1 1 0 0 0 1 0 0 0 1 67.599719229712818 45.197551464229079 18.077503287598713 1 rotate no_reflect no_shear #
lump $-1 $-1 $64 $13 #
transform $-1 1 0 0 0 1 0 0 0 1 67.599719229712818 45.197551464229079 18.077503287598713 1 rotate no_reflect no_shear #
lump $-1 $-1 $65 $14 #
transform $-1 1 0 0 0 1 0 0 0 1 67.599719229712818 45.197551464229079 18.077503287598713 1 rotate no_reflect no_shear #
lump $-1 $-1 $66 $15 #
transform $-1 1 0 0 0 1 0 0 0 1 67.599719229712818 45.197551464229079 18.077503287598713 1 rotate no_reflect no_shear #
lump $-1 $-1 $67 $16 #
transform $-1 1 0 0 0 1 0 0 0 1 67.599719229712818 45.197551464229079 18.077503287598713 1 rotate no_reflect no_shear #
shell $-1 $-1 $-1 $68 $-1 $17 #
shell $-1 $-1 $-1 $69 $-1 $19 #
shell $-1 $-1 $-1 $70 $-1 $21 #
shell $-1 $-1 $-1 $71 $-1 $23 #
shell $-1 $-1 $-1 $72 $-1 $25 #
shell $-1 $-1 $-1 $73 $-1 $27 #
shell $-1 $-1 $-1 $74 $-1 $29 #
shell $-1 $-1 $-1 $75 $-1 $31 #
shell $-1 $-1 $-1 $76 $-1 $33 #
shell $-1 $-1 $-1 $77 $-1 $35 #
shell $-1 $-1 $-1 $78 $-1 $37 #
shell $-1 $-1 $-1 $79 $-1 $39 #
shell $-1 $-1 $-1 $80 $-1 $41 #
shell $-1 $-1 $-1 $81 $-1 $43 #
shell $-1 $-1 $-1 $82 $-1 $45 #
shell $-1 $-1 $-1 $83 $-1 $47 #
shell $-1 $-1 $-1 $84 $-1 $49 #
face $-1 $85 $86 $51 $-1 $87 forward single #
face $-1 $88 $89 $52 $-1 $90 reversed single #
face $-1 $91 $92 $53 $-1 $93 forward single #
face $-1 $94 $95 $54 $-1 $96 forward single #
face $-1 $97 $98 $55 $-1 $99 forward single #
face $-1 $100 $101 $56 $-1 $102 reversed single #
face $-1 $103 $104 $57 $-1 $105 forward single #
face $-1 $106 $107 $58 $-1 $108 forward single #
face $-1 $109 $110 $59 $-1 $111 forward single #
face $-1 $112 $113 $60 $-1 $114 reversed single #
face $-1 $115 $116 $61 $-1 $117 forward single #
face $-1 $118 $119 $62 $-1 $120 forward single #
face $-1 $121 $122 $63 $-1 $123 forward single #
face $-1 $124 $125 $64 $-1 $126 reversed single #
face $-1 $127 $128 $65 $-1 $129 forward single #
face $-1 $130 $131 $66 $-1 $132 forward single #
face $-1 $133 $134 $67 $-1 $135 forward single #
face $-1 $136 $137 $51 $-1 $138 reversed single #
loop $-1 $-1 $139 $68 #
plane-surface $-1 0 0 18.077503287598713 0 0 1 1 0 0 forward_v I I I I #
face $-1 $140 $141 $52 $-1 $142 reversed single #
loop $-1 $-1 $143 $69 #
plane-surface $-1 -43.998206740763003 -161.08609024420764 74.377390469992505 -1 0 0 0 -0.85716730853699208 0.51503806187062418 forward_v I I I I #
face $-1 $144 $145 $53 $-1 $146 forward single #
loop $-1 $147 $148 $70 #
cone-surface $-1 -56.503546200671671 -40.435888625458041 10.956746979749926 0 0.85716730853699208 -0.51503806187062418 1 0 0 1 I I 0 1 1 forward I I I I #
face $-1 $149 $150 $54 $-1 $151 forward single #
loop $-1 $152 $153 $71 #
cone-surface $-1 -51.814043903205921 -40.435888625458041 10.956746979749926 0 0.85716730853699208 -0.51503806187062418 1 0 0 1 I I 0 1 1 forward I I I I #
face $-1 $154 $155 $55 $-1 $156 forward single #
loop $-1 $157 $158 $72 #
cone-surface $-1 -47.124541605740177 -40.435888625458041 10.956746979749926 0 0.85716730853699208 -0.51503806187062418 1 0 0 1 I I 0 1 1 forward I I I I #
face $-1 $159 $160 $56 $-1 $161 reversed single #
loop $-1 $-1 $162 $73 #
plane-surface $-1 59.629881065648846 -161.08609024420764 74.377390469992505 -1 0 0 0 -0.85716730853699208 0.51503806187062418 forward_v I I I I #
face $-1 $163 $164 $57 $-1 $165 forward single #
loop $-1 $166 $167 $74 #
cone-surface $-1 47.124541605740163 -40.435888625458041 10.956746979749926 0 0.85716730853699208 -0.51503806187062418 1 0 0 1 I I 0 1 1 forward I I I I #
face $-1 $168 $169 $58 $-1 $170 forward single #
loop $-1 $171 $172 $75 #
cone-surface $-1 51.814043903205913 -40.435888625458041 10.956746979749926 0 0.85716730853699208 -0.51503806187062418 1 0 0 1 I I 0 1 1 forward I I I I #
face $-1 $173 $174 $59 $-1 $175 forward single #
loop $-1 $176 $177 $76 #
cone-surface $-1 56.503546200671664 -40.435888625458041 10.956746979749926 0 0.85716730853699208 -0.51503806187062418 1 0 0 1 I I 0 1 1 forward I I I I #
face $-1 $178 $179 $60 $-1 $180 reversed single #
loop $-1 $-1 $181 $77 #
plane-surface $-1 -59.629881065648839 114.52917162933893 151.86111755210337 1 0 0 0 -0.85716730853699208 -0.51503806187062418 forward_v I I I I #
face $-1 $182 $183 $61 $-1 $184 forward single #
loop $-1 $185 $186 $78 #
cone-surface $-1 -56.503546200671671 40.435888625458041 10.956746979749941 0 -0.85716730853699208 -0.51503806187062418 1 0 0 1 I I 0 1 1 forward I I I I #
face $-1 $187 $188 $62 $-1 $189 forward single #
loop $-1 $190 $191 $79 #
cone-surface $-1 -51.814043903205921 40.435888625458041 10.956746979749941 0 -0.85716730853699208 -0.51503806187062418 1 0 0 1 I I 0 1 1 forward I I I I #
face $-1 $192 $193 $63 $-1 $194 forward single #
loop $-1 $195 $196 $80 #
cone-surface $-1 -47.124541605740177 40.435888625458041 10.956746979749941 0 -0.85716730853699208 -0.51503806187062418 1 0 0 1 I I 0 1 1 forward I I I I #
face $-1 $197 $198 $64 $-1 $199 reversed single #
loop $-1 $-1 $200 $81 #
plane-surface $-1 43.99820674076301 114.52917162933893 151.86111755210337 1 0 0 0 -0.85716730853699208 -0.51503806187062418 forward_v I I I I #
face $-1 $201 $202 $65 $-1 $203 forward single #
loop $-1 $204 $205 $82 #
cone-surface $-1 47.124541605740163 40.435888625458041 10.956746979749941 0 -0.85716730853699208 -0.51503806187062418 1 0 0 1 I I 0 1 1 forward I I I I #
face $-1 $206 $207 $66 $-1 $208 forward single #
loop $-1 $209 $210 $83 #
cone-surface $-1 51.814043903205913 40.435888625458041 10.956746979749941 0 -0.85716730853699208 -0.51503806187062418 1 0 0 1 I I 0 1 1 forward I I I I #
face $-1 $211 $212 $67 $-1 $213 forward single #
loop $-1 $214 $215 $84 #
cone-surface $-1 56.503546200671664 40.435888625458041 10.956746979749941 0 -0.85716730853699208 -0.51503806187062418 1 0 0 1 I I 0 1 1 forward I I I I #
face $-1 $216 $217 $51 $-1 $218 reversed single #
loop $-1 $-1 $219 $85 #
plane-surface $-1 0 0 -18.077503287598713 0 0 1 1 0 0 forward_v I I I I #
coedge $-1 $220 $221 $222 $223 forward $86 $-1 #
face $-1 $224 $225 $52 $-1 $226 reversed single #
loop $-1 $-1 $227 $88 #
plane-surface $-1 -51.814043903205921 -45.197551464229079 4.7445337198531945 0 -0.85716730853699208 0.51503806187062418 1 0 0 forward_v I I I I #
coedge $-1 $228 $229 $230 $231 reversed $89 $-1 #
face $-1 $-1 $232 $53 $-1 $233 forward single #
loop $-1 $234 $235 $91 #
cone-surface $-1 -56.503546200671671 -39.251270168368791 10.244956424838573 0 0.85716730853699208 -0.51503806187062418 0.5 0 0 1 I I -0.70710678118654746 0.70710678118654746 0.5 forward I I I I #
loop $-1 $-1 $236 $70 #
coedge $-1 $148 $148 $237 $238 reversed $92 $-1 #
face $-1 $-1 $239 $54 $-1 $240 forward single #
loop $-1 $241 $242 $94 #
cone-surface $-1 -51.814043903205921 -39.251270168368791 10.244956424838573 0 0.85716730853699208 -0.51503806187062418 0.5 0 0 1 I I -0.70710678118654746 0.70710678118654746 0.5 forward I I I I #
loop $-1 $-1 $243 $71 #
coedge $-1 $153 $153 $244 $245 reversed $95 $-1 #
face $-1 $-1 $246 $55 $-1 $247 forward single #
loop $-1 $248 $249 $97 #
cone-surface $-1 -47.124541605740177 -39.251270168368791 10.244956424838573 0 0.85716730853699208 -0.51503806187062418 0.5 0 0 1 I I -0.70710678118654746 0.70710678118654746 0.5 forward I I I I #
loop $-1 $-1 $250 $72 #
coedge $-1 $158 $158 $251 $252 reversed $98 $-1 #
face $-1 $253 $254 $56 $-1 $255 reversed single #
loop $-1 $-1 $256 $100 #
plane-surface $-1 51.814043903205928 -45.197551464229079 4.7445337198531945 0 -0.85716730853699208 0.51503806187062418 1 0 0 forward_v I I I I #
coedge $-1 $257 $258 $259 $260 reversed $101 $-1 #
face $-1 $-1 $261 $57 $-1 $262 forward single #
loop $-1 $263 $264 $103 #
cone-surface $-1 47.124541605740163 -39.251270168368791 10.244956424838573 0 0.85716730853699208 -0.51503806187062418 0.5 0 0 1 I I -0.70710678118654746 0.70710678118654746 0.5 forward I I I I #
loop $-1 $-1 $265 $74 #
coedge $-1 $167 $167 $266 $267 reversed $104 $-1 #
face $-1 $-1 $268 $58 $-1 $269 forward single #
loop $-1 $270 $271 $106 #
cone-surface $-1 51.814043903205913 -39.251270168368791 10.244956424838573 0 0.85716730853699208 -0.51503806187062418 0.5 0 0 1 I I -0.70710678118654746 0.70710678118654746 0.5 forward I I I I #
loop $-1 $-1 $272 $75 #
coedge $-1 $172 $172 $273 $274 reversed $107 $-1 #
face $-1 $-1 $275 $59 $-1 $276 forward single #
loop $-1 $277 $278 $109 #
cone-surface $-1 56.503546200671664 -39.251270168368791 10.244956424838573 0 0.85716730853699208 -0.51503806187062418 0.5 0 0 1 I I -0.70710678118654746 0.70710678118654746 0.5 forward I I I I #
loop $-1 $-1 $279 $76 #
coedge $-1 $177 $177 $280 $281 reversed $110 $-1 #
face $-1 $282 $283 $60 $-1 $284 reversed single #
loop $-1 $-1 $285 $112 #
plane-surface $-1 -51.814043903205921 -1.3593671506396277 82.228260801964055 0 0.85716730853699208 0.51503806187062418 1 0 0 forward_v I I I I #
coedge $-1 $286 $287 $288 $289 reversed $113 $-1 #
face $-1 $-1 $290 $61 $-1 $291 forward single #
loop $-1 $292 $293 $115 #
cone-surface $-1 -56.503546200671671 39.251270168368791 10.244956424838588 0 -0.85716730853699208 -0.51503806187062418 0.5 0 0 1 I I -0.70710678118654746 0.70710678118654746 0.5 forward I I I I #
loop $-1 $-1 $294 $78 #
coedge $-1 $186 $186 $295 $296 reversed $116 $-1 #
face $-1 $-1 $297 $62 $-1 $298 forward single #
loop $-1 $299 $300 $118 #
cone-surface $-1 -51.814043903205921 39.251270168368791 10.244956424838588 0 -0.85716730853699208 -0.51503806187062418 0.5 0 0 1 I I -0.70710678118654746 0.70710678118654746 0.5 forward I I I I #
loop $-1 $-1 $301 $79 #
coedge $-1 $191 $191 $302 $303 reversed $119 $-1 #
face $-1 $-1 $304 $63 $-1 $305 forward single #
loop $-1 $306 $307 $121 #
cone-surface $-1 -47.124541605740177 39.251270168368791 10.244956424838588 0 -0.85716730853699208 -0.51503806187062418 0.5 0 0 1 I I -0.70710678118654746 0.70710678118654746 0.5 forward I I I I #
loop $-1 $-1 $308 $80 #
coedge $-1 $196 $196 $309 $310 reversed $122 $-1 #
face $-1 $311 $312 $64 $-1 $313 reversed single #
loop $-1 $-1 $314 $124 #
plane-surface $-1 51.814043903205928 -1.3593671506396277 82.228260801964055 0 0.85716730853699208 0.51503806187062418 1 0 0 forward_v I I I I #
coedge $-1 $315 $316 $317 $318 reversed $125 $-1 #
face $-1 $-1 $319 $65 $-1 $320 forward single #
loop $-1 $321 $322 $127 #
cone-surface $-1 47.124541605740163 39.251270168368791 10.244956424838588 0 -0.85716730853699208 -0.51503806187062418 0.5 0 0 1 I I -0.70710678118654746 0.70710678118654746 0.5 forward I I I I #
loop $-1 $-1 $323 $82 #
coedge $-1 $205 $205 $324 $325 reversed $128 $-1 #
face $-1 $-1 $326 $66 $-1 $327 forward single #
loop $-1 $328 $329 $130 #
cone-surface $-1 51.814043903205913 39.251270168368791 10.244956424838588 0 -0.85716730853699208 -0.51503806187062418 0.5 0 0 1 I I -0.70710678118654746 0.70710678118654746 0.5 forward I I I I #
loop $-1 $-1 $330 $83 #
coedge $-1 $210 $210 $331 $332 reversed $131 $-1 #
face $-1 $-1 $333 $67 $-1 $334 forward single #
loop $-1 $335 $336 $133 #
cone-surface $-1 56.503546200671664 39.251270168368791 10.244956424838588 0 -0.85716730853699208 -0.51503806187062418 0.5 0 0 1 I I -0.70710678118654746 0.70710678118654746 0.5 forward I I I I #
loop $-1 $-1 $337 $84 #
coedge $-1 $215 $215 $338 $339 reversed $134 $-1 #
face $-1 $340 $341 $51 $-1 $342 reversed single #
loop $-1 $-1 $343 $136 #
plane-surface $-1 0 -45.197551464229079 0 0 1 0 0 0 1 forward_v I I I I #
coedge $-1 $344 $345 $346 $347 forward $137 $-1 #
coedge $-1 $348 $139 $349 $350 forward $86 $-1 #
coedge $-1 $139 $348 $351 $352 forward $86 $-1 #
coedge $-1 $353 $354 $139 $223 reversed $355 $-1 #
edge $-1 $356 -45.197551464229079 $357 45.197551464229079 $222 $358 forward 7 unknown #
face $-1 $359 $360 $52 $-1 $361 reversed single #
loop $-1 $-1 $362 $140 #
plane-surface $-1 -59.629881065648839 -161.08609024420764 74.377390469992505 1 0 0 0 0.85716730853699208 -0.51503806187062418 forward_v I I I I #
coedge $-1 $363 $364 $365 $366 reversed $141 $-1 #
coedge $-1 $229 $143 $367 $368 reversed $89 $-1 #
coedge $-1 $143 $228 $363 $369 reversed $89 $-1 #
coedge $-1 $365 $370 $143 $231 forward $371 $-1 #
edge $-1 $372 35.345493657874741 $373 43.356749729775331 $230 $374 forward 7 unknown #
loop $-1 $-1 $237 $144 #
plane-surface $-1 -51.814043903205921 -45.197551464229079 4.7445337198531945 0 -0.85716730853699208 0.51503806187062418 1 0 0 forward_v I I I I #
loop $-1 $-1 $375 $91 #
coedge $-1 $235 $235 $236 $376 reversed $145 $-1 #
coedge $-1 $236 $236 $235 $376 forward $147 $-1 #
coedge $-1 $237 $237 $148 $238 forward $232 $-1 #
edge $-1 $377 -1.2285910259226982e-015 $377 6.2831853071795996 $237 $378 forward 7 unknown #
loop $-1 $-1 $244 $149 #
plane-surface $-1 -51.814043903205921 -45.197551464229079 4.7445337198531945 0 -0.85716730853699208 0.51503806187062418 1 0 0 forward_v I I I I #
loop $-1 $-1 $379 $94 #
coedge $-1 $242 $242 $243 $380 reversed $150 $-1 #
coedge $-1 $243 $243 $242 $380 forward $152 $-1 #
coedge $-1 $244 $244 $153 $245 forward $239 $-1 #
edge $-1 $381 -1.2285910259226982e-015 $381 6.2831853071795996 $244 $382 forward 7 unknown #
loop $-1 $-1 $251 $154 #
plane-surface $-1 -51.814043903205921 -45.197551464229079 4.7445337198531945 0 -0.85716730853699208 0.51503806187062418 1 0 0 forward_v I I I I #
loop $-1 $-1 $383 $97 #
coedge $-1 $249 $249 $250 $384 reversed $155 $-1 #
coedge $-1 $250 $250 $249 $384 forward $157 $-1 #
coedge $-1 $251 $251 $158 $252 forward $246 $-1 #
edge $-1 $385 -1.2285910259226982e-015 $385 6.2831853071795996 $251 $386 forward 7 unknown #
face $-1 $387 $388 $56 $-1 $389 reversed single #
loop $-1 $-1 $390 $159 #
plane-surface $-1 43.99820674076301 -161.08609024420764 74.377390469992505 1 0 0 0 0.85716730853699208 -0.51503806187062418 forward_v I I I I #
coedge $-1 $391 $392 $393 $394 reversed $160 $-1 #
coedge $-1 $258 $162 $395 $396 reversed $101 $-1 #
coedge $-1 $162 $257 $391 $397 reversed $101 $-1 #
coedge $-1 $393 $398 $162 $260 forward $399 $-1 #
edge $-1 $400 35.345493657874741 $401 43.356749729775331 $259 $402 forward 7 unknown #
loop $-1 $-1 $266 $163 #
plane-surface $-1 51.814043903205928 -45.197551464229079 4.7445337198531945 0 -0.85716730853699208 0.51503806187062418 1 0 0 forward_v I I I I #
loop $-1 $-1 $403 $103 #
coedge $-1 $264 $264 $265 $404 reversed $164 $-1 #
coedge $-1 $265 $265 $264 $404 forward $166 $-1 #
coedge $-1 $266 $266 $167 $267 forward $261 $-1 #
edge $-1 $405 -1.2285910259226982e-015 $405 6.2831853071795996 $266 $406 forward 7 unknown #
loop $-1 $-1 $273 $168 #
plane-surface $-1 51.814043903205928 -45.197551464229079 4.7445337198531945 0 -0.85716730853699208 0.51503806187062418 1 0 0 forward_v I I I I #
loop $-1 $-1 $407 $106 #
coedge $-1 $271 $271 $272 $408 reversed $169 $-1 #
coedge $-1 $272 $272 $271 $408 forward $171 $-1 #
coedge $-1 $273 $273 $172 $274 forward $268 $-1 #
edge $-1 $409 -1.2285910259226982e-015 $409 6.2831853071795996 $273 $410 forward 7 unknown #
loop $-1 $-1 $280 $173 #
plane-surface $-1 51.814043903205928 -45.197551464229079 4.7445337198531945 0 -0.85716730853699208 0.51503806187062418 1 0 0 forward_v I I I I #
loop $-1 $-1 $411 $109 #
coedge $-1 $278 $278 $279 $412 reversed $174 $-1 #
coedge $-1 $279 $279 $278 $412 forward $176 $-1 #
coedge $-1 $280 $280 $177 $281 forward $275 $-1 #
edge $-1 $413 -1.2285910259226982e-015 $413 6.2831853071795996 $280 $414 forward 7 unknown #
face $-1 $415 $416 $60 $-1 $417 reversed single #
loop $-1 $-1 $418 $178 #
plane-surface $-1 -43.998206740763003 114.52917162933893 151.86111755210337 -1 0 0 0 0.85716730853699208 0.51503806187062418 forward_v I I I I #
coedge $-1 $419 $420 $421 $422 reversed $179 $-1 #
coedge $-1 $287 $181 $423 $424 reversed $113 $-1 #
coedge $-1 $181 $286 $419 $425 reversed $113 $-1 #
coedge $-1 $421 $426 $181 $289 forward $427 $-1 #
edge $-1 $428 12.067034350440387 $429 20.078290422341006 $288 $430 forward 7 unknown #
loop $-1 $-1 $295 $182 #
plane-surface $-1 -51.814043903205921 -1.3593671506396277 82.228260801964055 0 0.85716730853699208 0.51503806187062418 1 0 0 forward_v I I I I #
loop $-1 $-1 $431 $115 #
coedge $-1 $293 $293 $294 $432 reversed $183 $-1 #
coedge $-1 $294 $294 $293 $432 forward $185 $-1 #
coedge $-1 $295 $295 $186 $296 forward $290 $-1 #
edge $-1 $433 -1.4964274682832253e-015 $433 6.2831853071795987 $295 $434 forward 7 unknown #
loop $-1 $-1 $302 $187 #
plane-surface $-1 -51.814043903205921 -1.3593671506396277 82.228260801964055 0 0.85716730853699208 0.51503806187062418 1 0 0 forward_v I I I I #
loop $-1 $-1 $435 $118 #
coedge $-1 $300 $300 $301 $436 reversed $188 $-1 #
coedge $-1 $301 $301 $300 $436 forward $190 $-1 #
coedge $-1 $302 $302 $191 $303 forward $297 $-1 #
edge $-1 $437 -1.4964274682832253e-015 $437 6.2831853071795987 $302 $438 forward 7 unknown #
loop $-1 $-1 $309 $192 #
plane-surface $-1 -51.814043903205921 -1.3593671506396277 82.228260801964055 0 0.85716730853699208 0.51503806187062418 1 0 0 forward_v I I I I #
loop $-1 $-1 $439 $121 #
coedge $-1 $307 $307 $308 $440 reversed $193 $-1 #
coedge $-1 $308 $308 $307 $440 forward $195 $-1 #
coedge $-1 $309 $309 $196 $310 forward $304 $-1 #
edge $-1 $441 -1.4964274682832253e-015 $441 6.2831853071795987 $309 $442 forward 7 unknown #
face $-1 $443 $444 $64 $-1 $445 forward single #
loop $-1 $-1 $446 $197 #
plane-surface $-1 59.629881065648846 114.52917162933893 151.86111755210337 -1 0 0 0 0.85716730853699208 0.51503806187062418 forward_v I I I I #
coedge $-1 $447 $448 $449 $450 reversed $198 $-1 #
coedge $-1 $316 $200 $451 $452 reversed $125 $-1 #
coedge $-1 $200 $315 $447 $453 reversed $125 $-1 #
coedge $-1 $449 $454 $200 $318 forward $444 $-1 #
edge $-1 $455 12.067034350440387 $456 20.078290422341006 $317 $457 forward 7 unknown #
loop $-1 $-1 $324 $201 #
plane-surface $-1 51.814043903205928 -1.3593671506396277 82.228260801964055 0 0.85716730853699208 0.51503806187062418 1 0 0 forward_v I I I I #
loop $-1 $-1 $458 $127 #
coedge $-1 $322 $322 $323 $459 reversed $202 $-1 #
coedge $-1 $323 $323 $322 $459 forward $204 $-1 #
coedge $-1 $324 $324 $205 $325 forward $319 $-1 #
edge $-1 $460 -1.4964274682832253e-015 $460 6.2831853071795987 $324 $461 forward 7 unknown #
loop $-1 $-1 $331 $206 #
plane-surface $-1 51.814043903205928 -1.3593671506396277 82.228260801964055 0 0.85716730853699208 0.51503806187062418 1 0 0 forward_v I I I I #
loop $-1 $-1 $462 $130 #
coedge $-1 $329 $329 $330 $463 reversed $207 $-1 #
coedge $-1 $330 $330 $329 $463 forward $209 $-1 #
coedge $-1 $331 $331 $210 $332 forward $326 $-1 #
edge $-1 $464 -1.4964274682832253e-015 $464 6.2831853071795987 $331 $465 forward 7 unknown #
loop $-1 $-1 $338 $211 #
plane-surface $-1 51.814043903205928 -1.3593671506396277 82.228260801964055 0 0.85716730853699208 0.51503806187062418 1 0 0 forward_v I I I I #
loop $-1 $-1 $466 $133 #
coedge $-1 $336 $336 $337 $467 reversed $212 $-1 #
coedge $-1 $337 $337 $336 $467 forward $214 $-1 #
coedge $-1 $338 $338 $215 $339 forward $333 $-1 #
edge $-1 $468 -1.4964274682832253e-015 $468 6.2831853071795987 $338 $469 forward 7 unknown #
face $-1 $470 $471 $51 $-1 $472 reversed single #
loop $-1 $-1 $473 $216 #
plane-surface $-1 -67.599719229712818 0 0 1 0 0 0 0 -1 forward_v I I I I #
coedge $-1 $474 $351 $475 $476 forward $217 $-1 #
coedge $-1 $477 $219 $474 $478 forward $137 $-1 #
coedge $-1 $219 $477 $479 $480 forward $137 $-1 #
coedge $-1 $354 $353 $219 $347 reversed $355 $-1 #
edge $-1 $481 -45.197551464229079 $482 45.197551464229079 $346 $483 forward 7 unknown #
coedge $-1 $221 $220 $484 $485 forward $86 $-1 #
coedge $-1 $486 $487 $220 $350 reversed $471 $-1 #
edge $-1 $357 -67.599719229712818 $488 67.599719229712818 $349 $489 forward 7 unknown #
coedge $-1 $343 $490 $221 $352 reversed $217 $-1 #
edge $-1 $491 -67.599719229712818 $356 67.599719229712818 $351 $492 forward 7 unknown #
coedge $-1 $346 $222 $490 $493 forward $355 $-1 #
coedge $-1 $222 $346 $486 $494 reversed $355 $-1 #
loop $-1 $-1 $353 $470 #
vertex $-1 $223 $495 #
vertex $-1 $223 $496 #
straight-curve $-1 67.599719229712818 0 18.077503287598713 0 1 0 I I #
face $-1 $-1 $371 $52 $-1 $497 forward single #
loop $-1 $-1 $498 $224 #
plane-surface $-1 0 -45.197551464229079 0 0 1 0 0 0 1 forward_v I I I I #
coedge $-1 $499 $500 $501 $502 reversed $225 $-1 #
coedge $-1 $503 $227 $229 $369 forward $141 $-1 #
coedge $-1 $227 $503 $499 $504 forward $141 $-1 #
coedge $-1 $501 $230 $227 $366 forward $371 $-1 #
edge $-1 $373 18.091184789160042 $505 33.722859114045875 $365 $506 forward 7 unknown #
coedge $-1 $507 $508 $228 $368 forward $360 $-1 #
edge $-1 $509 -32.444161515143058 $372 -19.11119194739754 $367 $510 forward 7 unknown #
edge $-1 $373 -15.554687439611003 $509 0 $229 $511 forward 7 unknown #
coedge $-1 $230 $501 $507 $512 forward $371 $-1 #
loop $-1 $-1 $501 $359 #
vertex $-1 $368 $513 #
vertex $-1 $231 $514 #
straight-curve $-1 -43.998206740763003 -80.54304512210382 18.077503287598713 0 1 0 I I #
coedge $-1 $375 $375 $-1 $515 reversed $234 $-1 #
edge $-1 $516 0 $516 6.2831853071796004 $235 $517 forward 7 unknown #
vertex $-1 $238 $518 #
ellipse-curve $-1 -56.503546200671671 -41.191923428278777 11.411018503725959 0 -0.85716730853699208 0.51503806187062418 1 0 0 1 I I #
coedge $-1 $379 $379 $-1 $519 reversed $241 $-1 #
edge $-1 $520 0 $520 6.2831853071796004 $242 $521 forward 7 unknown #
vertex $-1 $245 $522 #
ellipse-curve $-1 -51.814043903205921 -41.191923428278777 11.411018503725959 0 -0.85716730853699208 0.51503806187062418 1 0 0 1 I I #
coedge $-1 $383 $383 $-1 $523 reversed $248 $-1 #
edge $-1 $524 0 $524 6.2831853071796004 $249 $525 forward 7 unknown #
vertex $-1 $252 $526 #
ellipse-curve $-1 -47.124541605740177 -41.191923428278777 11.411018503725959 0 -0.85716730853699208 0.51503806187062418 1 0 0 1 I I #
face $-1 $-1 $399 $56 $-1 $527 forward single #
loop $-1 $-1 $528 $253 #
plane-surface $-1 0 -45.197551464229079 0 0 1 0 0 0 1 forward_v I I I I #
coedge $-1 $529 $530 $531 $532 reversed $254 $-1 #
coedge $-1 $533 $256 $258 $397 forward $160 $-1 #
coedge $-1 $256 $533 $529 $534 forward $160 $-1 #
coedge $-1 $531 $259 $256 $394 forward $399 $-1 #
edge $-1 $401 -33.722859114045882 $535 -18.091184789160046 $393 $536 forward 7 unknown #
coedge $-1 $537 $538 $257 $396 forward $388 $-1 #
edge $-1 $539 -32.444161515143058 $400 -19.11119194739754 $395 $540 forward 7 unknown #
edge $-1 $401 -15.554687439611003 $539 0 $258 $541 forward 7 unknown #
coedge $-1 $259 $531 $537 $542 forward $399 $-1 #
loop $-1 $-1 $531 $387 #
vertex $-1 $396 $543 #
vertex $-1 $260 $544 #
straight-curve $-1 59.629881065648846 -80.54304512210382 18.077503287598713 0 1 0 I I #
coedge $-1 $403 $403 $-1 $545 reversed $263 $-1 #
edge $-1 $546 0 $546 6.2831853071796004 $264 $547 forward 7 unknown #
vertex $-1 $267 $548 #
ellipse-curve $-1 47.124541605740163 -41.191923428278777 11.411018503725959 0 -0.85716730853699208 0.51503806187062418 1 0 0 1 I I #
coedge $-1 $407 $407 $-1 $549 reversed $270 $-1 #
edge $-1 $550 0 $550 6.2831853071796004 $271 $551 forward 7 unknown #
vertex $-1 $274 $552 #
ellipse-curve $-1 51.814043903205913 -41.191923428278777 11.411018503725959 0 -0.85716730853699208 0.51503806187062418 1 0 0 1 I I #
coedge $-1 $411 $411 $-1 $553 reversed $277 $-1 #
edge $-1 $554 0 $554 6.2831853071796004 $278 $555 forward 7 unknown #
vertex $-1 $281 $556 #
ellipse-curve $-1 56.503546200671664 -41.191923428278777 11.411018503725959 0 -0.85716730853699208 0.51503806187062418 1 0 0 1 I I #
face $-1 $-1 $427 $60 $-1 $557 forward single #
loop $-1 $-1 $558 $282 #
plane-surface $-1 0 45.197551464229079 0 0 -1 0 0 0 -1 forward_v I I I I #
coedge $-1 $559 $560 $561 $562 reversed $283 $-1 #
coedge $-1 $563 $285 $287 $425 forward $179 $-1 #
coedge $-1 $285 $563 $559 $564 forward $179 $-1 #
coedge $-1 $561 $288 $285 $422 forward $427 $-1 #
edge $-1 $429 -33.722859114045875 $565 -18.091184789160042 $421 $566 forward 7 unknown #
coedge $-1 $567 $568 $286 $424 forward $416 $-1 #
edge $-1 $569 -71.186025056198531 $428 -57.853055488452966 $423 $570 forward 7 unknown #
edge $-1 $429 74.840415488847171 $569 90.395102928458243 $287 $571 forward 7 unknown #
coedge $-1 $288 $561 $567 $572 forward $427 $-1 #
loop $-1 $-1 $561 $415 #
vertex $-1 $424 $573 #
vertex $-1 $289 $574 #
straight-curve $-1 -59.629881065648839 57.264585814669466 18.077503287598716 0 -1 0 I I #
coedge $-1 $431 $431 $-1 $575 reversed $292 $-1 #
edge $-1 $576 0 $576 6.2831853071796004 $293 $577 forward 7 unknown #
vertex $-1 $296 $578 #
ellipse-curve $-1 -56.503546200671671 41.191923428278756 11.411018503725957 0 0.85716730853699208 0.51503806187062418 1 0 0 1 I I #
coedge $-1 $435 $435 $-1 $579 reversed $299 $-1 #
edge $-1 $580 0 $580 6.2831853071796004 $300 $581 forward 7 unknown #
vertex $-1 $303 $582 #
ellipse-curve $-1 -51.814043903205921 41.191923428278756 11.411018503725957 0 0.85716730853699208 0.51503806187062418 1 0 0 1 I I #
coedge $-1 $439 $439 $-1 $583 reversed $306 $-1 #
edge $-1 $584 0 $584 6.2831853071796004 $307 $585 forward 7 unknown #
vertex $-1 $310 $586 #
ellipse-curve $-1 -47.124541605740177 41.191923428278756 11.411018503725957 0 0.85716730853699208 0.51503806187062418 1 0 0 1 I I #
face $-1 $-1 $587 $64 $-1 $588 reversed single #
loop $-1 $-1 $317 $311 #
plane-surface $-1 0 0 18.077503287598713 0 0 1 1 0 0 forward_v I I I I #
coedge $-1 $589 $590 $591 $592 reversed $312 $-1 #
coedge $-1 $593 $314 $316 $453 forward $198 $-1 #
coedge $-1 $314 $593 $589 $594 forward $198 $-1 #
coedge $-1 $591 $317 $314 $450 forward $444 $-1 #
edge $-1 $456 18.091184789160046 $595 33.722859114045882 $449 $596 forward 7 unknown #
coedge $-1 $597 $598 $315 $452 forward $587 $-1 #
edge $-1 $599 -71.186025056198531 $455 -57.853055488452966 $451 $600 forward 7 unknown #
edge $-1 $456 74.840415488847171 $599 90.395102928458243 $316 $601 forward 7 unknown #
coedge $-1 $317 $591 $597 $602 forward $444 $-1 #
vertex $-1 $318 $603 #
vertex $-1 $318 $604 #
straight-curve $-1 43.99820674076301 57.264585814669466 18.077503287598716 0 -1 0 I I #
coedge $-1 $458 $458 $-1 $605 reversed $321 $-1 #
edge $-1 $606 0 $606 6.2831853071796004 $322 $607 forward 7 unknown #
vertex $-1 $325 $608 #
ellipse-curve $-1 47.124541605740163 41.191923428278756 11.411018503725957 0 0.85716730853699208 0.51503806187062418 1 0 0 1 I I #
coedge $-1 $462 $462 $-1 $609 reversed $328 $-1 #
edge $-1 $610 0 $610 6.2831853071796004 $329 $611 forward 7 unknown #
vertex $-1 $332 $612 #
ellipse-curve $-1 51.814043903205913 41.191923428278756 11.411018503725957 0 0.85716730853699208 0.51503806187062418 1 0 0 1 I I #
coedge $-1 $466 $466 $-1 $613 reversed $335 $-1 #
edge $-1 $614 0 $614 6.2831853071796004 $336 $615 forward 7 unknown #
vertex $-1 $339 $616 #
ellipse-curve $-1 56.503546200671664 41.191923428278756 11.411018503725957 0 0.85716730853699208 0.51503806187062418 1 0 0 1 I I #
face $-1 $-1 $355 $51 $-1 $617 reversed single #
loop $-1 $-1 $486 $340 #
plane-surface $-1 0 45.197551464229079 0 0 -1 0 0 0 -1 forward_v I I I I #
coedge $-1 $618 $484 $487 $619 forward $341 $-1 #
coedge $-1 $490 $343 $344 $478 reversed $217 $-1 #
coedge $-1 $484 $618 $343 $476 reversed $341 $-1 #
edge $-1 $491 -18.077503287598713 $620 18.077503287598713 $475 $621 forward 7 unknown #
coedge $-1 $345 $344 $618 $622 forward $137 $-1 #
edge $-1 $482 -67.599719229712818 $620 67.599719229712818 $474 $623 forward 7 unknown #
coedge $-1 $487 $486 $345 $480 reversed $471 $-1 #
edge $-1 $624 -67.599719229712818 $481 67.599719229712818 $479 $625 forward 7 unknown #
vertex $-1 $347 $626 #
vertex $-1 $493 $627 #
straight-curve $-1 67.599719229712818 0 -18.077503287598713 0 -1 0 I I #
coedge $-1 $473 $475 $348 $485 reversed $341 $-1 #
edge $-1 $488 -45.197551464229079 $491 45.197551464229079 $484 $628 forward 7 unknown #
coedge $-1 $479 $349 $354 $494 forward $471 $-1 #
coedge $-1 $349 $479 $473 $619 reversed $471 $-1 #
vertex $-1 $350 $629 #
straight-curve $-1 0 45.197551464229079 18.077503287598713 -1 0 0 I I #
coedge $-1 $351 $474 $353 $493 reversed $217 $-1 #
vertex $-1 $485 $630 #
straight-curve $-1 0 -45.197551464229079 18.077503287598713 1 0 0 I I #
edge $-1 $356 -18.077503287598713 $482 18.077503287598713 $353 $631 forward 7 unknown #
edge $-1 $357 -18.077503287598713 $481 18.077503287598713 $354 $632 forward 7 unknown #
point $-1 67.599719229712818 -45.197551464229079 18.077503287598713 #
point $-1 67.599719229712818 45.197551464229079 18.077503287598713 #
plane-surface $-1 0 0 18.077503287598713 0 0 1 1 0 0 forward_v I I I I #
coedge $-1 $508 $507 $500 $633 forward $360 $-1 #
coedge $-1 $500 $362 $364 $504 reversed $225 $-1 #
coedge $-1 $362 $499 $498 $633 reversed $225 $-1 #
coedge $-1 $370 $365 $362 $502 forward $371 $-1 #
edge $-1 $505 -43.356749729775331 $634 -35.345493657874741 $501 $635 forward 7 unknown #
coedge $-1 $364 $363 $508 $636 reversed $141 $-1 #
edge $-1 $637 0 $505 15.554687439611003 $499 $638 forward 7 unknown #
vertex $-1 $366 $639 #
straight-curve $-1 -25.90702195160296 -37.186295392328482 18.077503287598713 -1 0 0 I I #
coedge $-1 $498 $367 $370 $512 reversed $360 $-1 #
coedge $-1 $367 $498 $503 $636 forward $360 $-1 #
vertex $-1 $368 $640 #
straight-curve $-1 -43.998206740763003 -45.197551464229079 37.188695234996253 0 0 1 I I #
straight-curve $-1 -43.998206740763003 -45.197551464229079 4.7445337198531945 0 -0.51503806187062418 -0.85716730853699208 I I #
edge $-1 $634 -59.629881065648839 $372 -43.998206740763003 $507 $641 forward 7 unknown #
point $-1 -43.998206740763003 -45.197551464229079 18.077503287598713 #
point $-1 -43.998206740763003 -37.186295392328489 18.077503287598713 #
edge $-1 $642 1 $642 0 $375 $-1 forward 7 unknown #
vertex $-1 $376 $643 #
ellipse-curve $-1 -56.503546200671671 -39.679853822637284 10.502475455773885 0 -0.85716730853699208 0.51503806187062418 1 0 0 1 I I #
point $-1 -55.503546200671671 -41.191923428278791 11.411018503725966 #
edge $-1 $644 1 $644 0 $379 $-1 forward 7 unknown #
vertex $-1 $380 $645 #
ellipse-curve $-1 -51.814043903205921 -39.679853822637284 10.502475455773885 0 -0.85716730853699208 0.51503806187062418 1 0 0 1 I I #
point $-1 -50.814043903205921 -41.191923428278791 11.411018503725966 #
edge $-1 $646 1 $646 0 $383 $-1 forward 7 unknown #
vertex $-1 $384 $647 #
ellipse-curve $-1 -47.124541605740177 -39.679853822637284 10.502475455773885 0 -0.85716730853699208 0.51503806187062418 1 0 0 1 I I #
point $-1 -46.124541605740177 -41.191923428278791 11.411018503725966 #
plane-surface $-1 0 0 18.077503287598713 0 0 1 1 0 0 forward_v I I I I #
coedge $-1 $538 $537 $530 $648 forward $388 $-1 #
coedge $-1 $530 $390 $392 $534 reversed $254 $-1 #
coedge $-1 $390 $529 $528 $648 reversed $254 $-1 #
coedge $-1 $398 $393 $390 $532 forward $399 $-1 #
edge $-1 $535 -43.356749729775331 $649 -35.345493657874741 $531 $650 forward 7 unknown #
coedge $-1 $392 $391 $538 $651 reversed $160 $-1 #
edge $-1 $652 0 $535 15.554687439611003 $529 $653 forward 7 unknown #
vertex $-1 $394 $654 #
straight-curve $-1 25.907021951602964 -37.186295392328482 18.077503287598713 -1 0 0 I I #
coedge $-1 $528 $395 $398 $542 reversed $388 $-1 #
coedge $-1 $395 $528 $533 $651 forward $388 $-1 #
vertex $-1 $396 $655 #
straight-curve $-1 59.629881065648846 -45.197551464229079 37.188695234996253 0 0 1 I I #
straight-curve $-1 59.629881065648846 -45.197551464229079 4.7445337198531945 0 -0.51503806187062418 -0.85716730853699208 I I #
edge $-1 $649 43.99820674076301 $400 59.629881065648846 $537 $656 forward 7 unknown #
point $-1 59.629881065648846 -45.197551464229079 18.077503287598713 #
point $-1 59.629881065648846 -37.186295392328489 18.077503287598713 #
edge $-1 $657 1 $657 0 $403 $-1 forward 7 unknown #
vertex $-1 $404 $658 #
ellipse-curve $-1 47.124541605740163 -39.679853822637284 10.502475455773885 0 -0.85716730853699208 0.51503806187062418 1 0 0 1 I I #
point $-1 48.124541605740163 -41.191923428278791 11.411018503725966 #
edge $-1 $659 1 $659 0 $407 $-1 forward 7 unknown #
vertex $-1 $408 $660 #
ellipse-curve $-1 51.814043903205913 -39.679853822637284 10.502475455773885 0 -0.85716730853699208 0.51503806187062418 1 0 0 1 I I #
point $-1 52.814043903205913 -41.191923428278791 11.411018503725966 #
edge $-1 $661 1 $661 0 $411 $-1 forward 7 unknown #
vertex $-1 $412 $662 #
ellipse-curve $-1 56.503546200671664 -39.679853822637284 10.502475455773885 0 -0.85716730853699208 0.51503806187062418 1 0 0 1 I I #
point $-1 57.503546200671664 -41.191923428278791 11.411018503725966 #
plane-surface $-1 0 0 18.077503287598713 0 0 1 1 0 0 forward_v I I I I #
coedge $-1 $568 $567 $560 $663 forward $416 $-1 #
coedge $-1 $560 $418 $420 $564 reversed $283 $-1 #
coedge $-1 $418 $559 $558 $663 reversed $283 $-1 #
coedge $-1 $426 $421 $418 $562 forward $427 $-1 #
edge $-1 $565 -20.078290422341006 $664 -12.067034350440387 $561 $665 forward 7 unknown #
coedge $-1 $420 $419 $568 $666 reversed $179 $-1 #
edge $-1 $667 -90.395102928458243 $565 -74.840415488847171 $559 $668 forward 7 unknown #
vertex $-1 $422 $669 #
straight-curve $-1 -25.90702195160296 37.186295392328461 18.077503287598709 1 0 0 I I #
coedge $-1 $558 $423 $426 $572 reversed $416 $-1 #
coedge $-1 $423 $558 $563 $666 forward $416 $-1 #
vertex $-1 $424 $670 #
straight-curve $-1 -59.629881065648839 45.197551464229079 75.930558776051683 0 0 1 I I #
straight-curve $-1 -59.629881065648839 -1.3593671506396277 82.228260801964055 0 0.51503806187062418 -0.85716730853699208 I I #
edge $-1 $664 43.998206740763003 $428 59.629881065648839 $567 $671 forward 7 unknown #
point $-1 -59.629881065648839 45.197551464229079 18.077503287598713 #
point $-1 -59.629881065648839 37.186295392328461 18.077503287598716 #
edge $-1 $672 1 $672 0 $431 $-1 forward 7 unknown #
vertex $-1 $432 $673 #
ellipse-curve $-1 -56.503546200671671 39.679853822637284 10.502475455773899 0 0.85716730853699208 0.51503806187062418 1 0 0 1 I I #
point $-1 -55.503546200671671 41.191923428278791 11.41101850372598 #
edge $-1 $674 1 $674 0 $435 $-1 forward 7 unknown #
vertex $-1 $436 $675 #
ellipse-curve $-1 -51.814043903205921 39.679853822637284 10.502475455773899 0 0.85716730853699208 0.51503806187062418 1 0 0 1 I I #
point $-1 -50.814043903205921 41.191923428278791 11.41101850372598 #
edge $-1 $676 1 $676 0 $439 $-1 forward 7 unknown #
vertex $-1 $440 $677 #
ellipse-curve $-1 -47.124541605740177 39.679853822637284 10.502475455773899 0 0.85716730853699208 0.51503806187062418 1 0 0 1 I I #
point $-1 -46.124541605740177 41.191923428278791 11.41101850372598 #
loop $-1 $-1 $451 $443 #
plane-surface $-1 0 45.197551464229079 0 0 -1 0 0 0 -1 forward_v I I I I #
coedge $-1 $590 $446 $448 $594 reversed $312 $-1 #
coedge $-1 $446 $589 $678 $679 reversed $312 $-1 #
coedge $-1 $454 $449 $446 $592 forward $444 $-1 #
edge $-1 $595 -20.078290422341006 $680 -12.067034350440387 $591 $681 forward 7 unknown #
coedge $-1 $448 $447 $598 $682 reversed $198 $-1 #
edge $-1 $683 -90.395102928458243 $595 -74.840415488847171 $589 $684 forward 7 unknown #
vertex $-1 $450 $685 #
straight-curve $-1 25.907021951602964 37.186295392328461 18.077503287598709 1 0 0 I I #
coedge $-1 $678 $451 $454 $602 reversed $587 $-1 #
coedge $-1 $451 $678 $593 $682 forward $587 $-1 #
vertex $-1 $452 $686 #
straight-curve $-1 43.99820674076301 45.197551464229079 75.930558776051683 0 0 1 I I #
straight-curve $-1 43.99820674076301 -1.3593671506396277 82.228260801964055 0 0.51503806187062418 -0.85716730853699208 I I #
edge $-1 $680 -59.629881065648846 $455 -43.99820674076301 $597 $687 forward 7 unknown #
point $-1 43.99820674076301 45.197551464229079 18.077503287598713 #
point $-1 43.99820674076301 37.186295392328461 18.077503287598716 #
edge $-1 $688 1 $688 0 $458 $-1 forward 7 unknown #
vertex $-1 $459 $689 #
ellipse-curve $-1 47.124541605740163 39.679853822637284 10.502475455773899 0 0.85716730853699208 0.51503806187062418 1 0 0 1 I I #
point $-1 48.124541605740163 41.191923428278791 11.41101850372598 #
edge $-1 $690 1 $690 0 $462 $-1 forward 7 unknown #
vertex $-1 $463 $691 #
ellipse-curve $-1 51.814043903205913 39.679853822637284 10.502475455773899 0 0.85716730853699208 0.51503806187062418 1 0 0 1 I I #
point $-1 52.814043903205913 41.191923428278791 11.41101850372598 #
edge $-1 $692 1 $692 0 $466 $-1 forward 7 unknown #
vertex $-1 $467 $693 #
ellipse-curve $-1 56.503546200671664 39.679853822637284 10.502475455773899 0 0.85716730853699208 0.51503806187062418 1 0 0 1 I I #
point $-1 57.503546200671664 41.191923428278791 11.41101850372598 #
plane-surface $-1 67.599719229712818 0 0 -1 0 0 0 0 1 forward_v I I I I #
coedge $-1 $475 $473 $477 $622 reversed $341 $-1 #
edge $-1 $488 -18.077503287598713 $624 18.077503287598713 $487 $694 forward 7 unknown #
vertex $-1 $622 $695 #
straight-curve $-1 -67.599719229712818 -45.197551464229079 0 0 0 -1 I I #
edge $-1 $620 -45.197551464229079 $624 45.197551464229079 $618 $696 forward 7 unknown #
straight-curve $-1 0 -45.197551464229079 -18.077503287598713 -1 0 0 I I #
vertex $-1 $480 $697 #
straight-curve $-1 0 45.197551464229079 -18.077503287598713 1 0 0 I I #
point $-1 67.599719229712818 45.197551464229079 -18.077503287598713 #
point $-1 67.599719229712818 -45.197551464229079 -18.077503287598713 #
straight-curve $-1 -67.599719229712818 0 18.077503287598713 0 -1 0 I I #
point $-1 -67.599719229712818 45.197551464229079 18.077503287598713 #
point $-1 -67.599719229712818 -45.197551464229079 18.077503287598713 #
straight-curve $-1 67.599719229712818 -45.197551464229079 0 0 0 -1 I I #
straight-curve $-1 67.599719229712818 45.197551464229079 0 0 0 -1 I I #
edge $-1 $634 19.11119194739754 $637 32.444161515143058 $498 $698 forward 7 unknown #
vertex $-1 $512 $699 #
straight-curve $-1 -59.629881065648839 -80.54304512210382 18.077503287598713 0 -1 0 I I #
edge $-1 $637 -33.722859114045875 $509 -18.091184789160042 $508 $700 forward 7 unknown #
vertex $-1 $636 $701 #
straight-curve $-1 -59.629881065648839 -45.197551464229079 4.7445337198531945 0 0.51503806187062418 0.85716730853699208 I I #
point $-1 -59.629881065648839 -37.186295392328489 18.077503287598713 #
point $-1 -43.998206740763003 -45.197551464229079 4.7445337198531945 #
straight-curve $-1 0 -45.197551464229079 18.077503287598713 1 0 0 I I #
vertex $-1 $515 $702 #
point $-1 -55.503546200671671 -39.679853822637284 10.502475455773885 #
vertex $-1 $519 $703 #
point $-1 -50.814043903205921 -39.679853822637284 10.502475455773885 #
vertex $-1 $523 $704 #
point $-1 -46.124541605740177 -39.679853822637284 10.502475455773885 #
edge $-1 $649 19.11119194739754 $652 32.444161515143058 $528 $705 forward 7 unknown #
vertex $-1 $542 $706 #
straight-curve $-1 43.99820674076301 -80.54304512210382 18.077503287598713 0 -1 0 I I #
edge $-1 $652 18.091184789160046 $539 33.722859114045882 $538 $707 forward 7 unknown #
vertex $-1 $651 $708 #
straight-curve $-1 43.99820674076301 -45.197551464229079 4.7445337198531945 0 0.51503806187062418 0.85716730853699208 I I #
point $-1 43.99820674076301 -37.186295392328489 18.077503287598713 #
point $-1 59.629881065648846 -45.197551464229079 4.7445337198531945 #
straight-curve $-1 0 -45.197551464229079 18.077503287598713 1 0 0 I I #
vertex $-1 $545 $709 #
point $-1 48.124541605740163 -39.679853822637284 10.502475455773885 #
vertex $-1 $549 $710 #
point $-1 52.814043903205913 -39.679853822637284 10.502475455773885 #
vertex $-1 $553 $711 #
point $-1 57.503546200671664 -39.679853822637284 10.502475455773885 #
edge $-1 $664 57.853055488452966 $667 71.186025056198531 $558 $712 forward 7 unknown #
vertex $-1 $572 $713 #
straight-curve $-1 -43.998206740763003 57.264585814669466 18.077503287598716 0 1 0 I I #
edge $-1 $667 18.091184789160042 $569 33.722859114045875 $568 $714 forward 7 unknown #
vertex $-1 $666 $715 #
straight-curve $-1 -43.998206740763003 -1.3593671506396277 82.228260801964055 0 -0.51503806187062418 0.85716730853699208 I I #
point $-1 -43.998206740763003 37.186295392328461 18.077503287598716 #
point $-1 -59.629881065648839 45.197551464229079 4.7445337198531519 #
straight-curve $-1 0 45.197551464229079 18.077503287598713 -1 0 0 I I #
vertex $-1 $575 $716 #
point $-1 -55.503546200671671 39.679853822637284 10.502475455773899 #
vertex $-1 $579 $717 #
point $-1 -50.814043903205921 39.679853822637284 10.502475455773899 #
vertex $-1 $583 $718 #
point $-1 -46.124541605740177 39.679853822637284 10.502475455773899 #
coedge $-1 $598 $597 $590 $679 forward $587 $-1 #
edge $-1 $680 57.853055488452966 $683 71.186025056198531 $678 $719 forward 7 unknown #
vertex $-1 $602 $720 #
straight-curve $-1 59.629881065648846 57.264585814669466 18.077503287598716 0 1 0 I I #
edge $-1 $683 -33.722859114045882 $599 -18.091184789160046 $598 $721 forward 7 unknown #
vertex $-1 $682 $722 #
straight-curve $-1 59.629881065648846 -1.3593671506396277 82.228260801964055 0 -0.51503806187062418 0.85716730853699208 I I #
point $-1 59.629881065648846 37.186295392328461 18.077503287598716 #
point $-1 43.99820674076301 45.197551464229079 4.7445337198531519 #
straight-curve $-1 0 45.197551464229079 18.077503287598713 -1 0 0 I I #
vertex $-1 $605 $723 #
point $-1 48.124541605740163 39.679853822637284 10.502475455773899 #
vertex $-1 $609 $724 #
point $-1 52.814043903205913 39.679853822637284 10.502475455773899 #
vertex $-1 $613 $725 #
point $-1 57.503546200671664 39.679853822637284 10.502475455773899 #
straight-curve $-1 -67.599719229712818 45.197551464229079 0 0 0 -1 I I #
point $-1 -67.599719229712818 -45.197551464229079 -18.077503287598713 #
straight-curve $-1 -67.599719229712818 0 -18.077503287598713 0 1 0 I I #
point $-1 -67.599719229712818 45.197551464229079 -18.077503287598713 #
straight-curve $-1 -59.629881065648839 -45.197551464229079 37.188695234996253 0 0 -1 I I #
point $-1 -59.629881065648839 -45.197551464229079 18.077503287598713 #
straight-curve $-1 -25.90702195160296 -45.197551464229079 4.7445337198531918 1 0 0 I I #
point $-1 -59.629881065648839 -45.197551464229079 4.7445337198531945 #
point $-1 -56.503546200671671 -38.822686514100297 9.9874373939032619 #
point $-1 -51.814043903205921 -38.822686514100297 9.9874373939032619 #
point $-1 -47.124541605740177 -38.822686514100297 9.9874373939032619 #
straight-curve $-1 43.99820674076301 -45.197551464229079 37.188695234996253 0 0 -1 I I #
point $-1 43.99820674076301 -45.197551464229079 18.077503287598713 #
straight-curve $-1 25.907021951602964 -45.197551464229079 4.7445337198531918 1 0 0 I I #
point $-1 43.99820674076301 -45.197551464229079 4.7445337198531945 #
point $-1 47.124541605740163 -38.822686514100297 9.9874373939032619 #
point $-1 51.814043903205913 -38.822686514100297 9.9874373939032619 #
point $-1 56.503546200671664 -38.822686514100297 9.9874373939032619 #
straight-curve $-1 -43.998206740763003 45.197551464229079 75.930558776051683 0 0 -1 I I #
point $-1 -43.998206740763003 45.197551464229079 18.077503287598713 #
straight-curve $-1 -25.90702195160296 45.197551464229079 4.7445337198531448 -1 0 0 I I #
point $-1 -43.998206740763003 45.197551464229079 4.7445337198531519 #
point $-1 -56.503546200671671 38.822686514100297 9.9874373939032761 #
point $-1 -51.814043903205921 38.822686514100297 9.9874373939032761 #
point $-1 -47.124541605740177 38.822686514100297 9.9874373939032761 #
straight-curve $-1 59.629881065648846 45.197551464229079 75.930558776051683 0 0 -1 I I #
point $-1 59.629881065648846 45.197551464229079 18.077503287598713 #
straight-curve $-1 25.907021951602964 45.197551464229079 4.7445337198531448 -1 0 0 I I #
point $-1 59.629881065648846 45.197551464229079 4.7445337198531519 #
point $-1 47.124541605740163 38.822686514100297 9.9874373939032761 #
point $-1 51.814043903205913 38.822686514100297 9.9874373939032761 #
point $-1 56.503546200671664 38.822686514100297 9.9874373939032761 #
End-of-ACIS-data 