500 0 7 0           
7 Unknown 11 ACIS 5.0 NT 24 Fri Mar 26 20:38:17 1999 
-1 9.9999999999999995e-007 1e-010 
body $-1 $7 $-1 $8 #
body $-1 $9 $-1 $10 #
body $-1 $11 $-1 $12 #
body $-1 $13 $-1 $14 #
body $-1 $15 $-1 $16 #
body $-1 $17 $-1 $18 #
body $-1 $19 $-1 $20 #
lump $-1 $-1 $21 $0 #
transform $-1 1 0 0 0 1 0 0 0 1 68.217413861506998 41.97493443202972 20.120862304266208 1 rotate no_reflect no_shear #
lump $-1 $-1 $22 $1 #
transform $-1 1 0 0 0 1 0 0 0 1 68.217413861506998 41.97493443202972 20.120862304266208 1 rotate no_reflect no_shear #
lump $-1 $-1 $23 $2 #
transform $-1 1 0 0 0 1 0 0 0 1 68.217413861506998 41.97493443202972 20.120862304266208 1 rotate no_reflect no_shear #
lump $-1 $-1 $24 $3 #
transform $-1 1 0 0 0 1 0 0 0 1 68.217413861506998 41.97493443202972 20.120862304266208 1 rotate no_reflect no_shear #
lump $-1 $-1 $25 $4 #
transform $-1 1 0 0 0 1 0 0 0 1 68.217413861506998 41.97493443202972 20.120862304266208 1 rotate no_reflect no_shear #
lump $-1 $-1 $26 $5 #
transform $-1 1 0 0 0 1 0 0 0 1 68.217413861506998 41.97493443202972 20.120862304266208 1 rotate no_reflect no_shear #
lump $-1 $-1 $27 $6 #
transform $-1 1 0 0 0 1 0 0 0 1 68.217413861506998 41.97493443202972 20.120862304266208 1 rotate no_reflect no_shear #
shell $-1 $-1 $-1 $28 $-1 $7 #
shell $-1 $-1 $-1 $29 $-1 $9 #
shell $-1 $-1 $-1 $30 $-1 $11 #
shell $-1 $-1 $-1 $31 $-1 $13 #
shell $-1 $-1 $-1 $32 $-1 $15 #
shell $-1 $-1 $-1 $33 $-1 $17 #
shell $-1 $-1 $-1 $34 $-1 $19 #
face $-1 $35 $36 $21 $-1 $37 forward single #
face $-1 $38 $39 $22 $-1 $40 reversed single #
face $-1 $41 $42 $23 $-1 $43 forward single #
face $-1 $44 $45 $24 $-1 $46 forward single #
face $-1 $47 $48 $25 $-1 $49 reversed single #
face $-1 $50 $51 $26 $-1 $52 forward single #
face $-1 $53 $54 $27 $-1 $55 forward single #
face $-1 $56 $57 $21 $-1 $58 reversed single #
loop $-1 $-1 $59 $28 #
plane-surface $-1 0 0 20.120862304266208 0 0 1 1 0 0 forward_v I I I I #
face $-1 $60 $61 $22 $-1 $62 reversed single #
loop $-1 $-1 $63 $29 #
plane-surface $-1 0 -133.26765453276269 114.21306373909792 -1 0 0 0 -0.66913061440640931 0.74314481823134659 forward_v I I I I #
face $-1 $64 $65 $23 $-1 $66 forward single #
loop $-1 $67 $68 $30 #
cone-surface $-1 -17.209380199483412 -35.574599022633095 13.864539760259307 0 0.66913061440640931 -0.74314481823134659 2 0 0 1 I I 0 1 2 forward I I I I #
face $-1 $69 $70 $24 $-1 $71 forward single #
loop $-1 $72 $73 $31 #
cone-surface $-1 -6.8837520797933678 -35.574599022633095 13.864539760259307 0 0.66913061440640931 -0.74314481823134659 2 0 0 1 I I 0 1 2 forward I I I I #
face $-1 $74 $75 $25 $-1 $76 reversed single #
loop $-1 $-1 $77 $32 #
plane-surface $-1 24.093132279276773 -133.26765453276269 114.21306373909792 -1 0 0 0 -0.66913061440640931 0.74314481823134659 forward_v I I I I #
face $-1 $78 $79 $26 $-1 $80 forward single #
loop $-1 $81 $82 $33 #
cone-surface $-1 6.8837520797933678 -35.574599022633095 13.864539760259307 0 0.66913061440640931 -0.74314481823134659 2 0 0 1 I I 0 1 2 forward I I I I #
face $-1 $83 $84 $27 $-1 $85 forward single #
loop $-1 $86 $87 $34 #
cone-surface $-1 17.209380199483405 -35.574599022633095 13.864539760259307 0 0.66913061440640931 -0.74314481823134659 2 0 0 1 I I 0 1 2 forward I I I I #
face $-1 $88 $89 $21 $-1 $90 reversed single #
loop $-1 $-1 $91 $35 #
plane-surface $-1 0 0 -20.120862304266208 0 0 1 1 0 0 forward_v I I I I #
coedge $-1 $92 $93 $94 $95 forward $36 $-1 #
face $-1 $96 $97 $22 $-1 $98 reversed single #
loop $-1 $-1 $99 $38 #
plane-surface $-1 -12.046566139638387 -41.974934432029727 12.822228490453597 0 -0.66913061440640931 0.74314481823134659 1 0 0 forward_v I I I I #
coedge $-1 $100 $101 $102 $103 reversed $39 $-1 #
face $-1 $-1 $104 $23 $-1 $105 forward single #
loop $-1 $106 $107 $41 #
cone-surface $-1 -17.209380199483412 -32.558109937954697 10.51438930492737 0 0.66913061440640931 -0.74314481823134659 1 0 0 1 I I -0.70710678118654746 0.70710678118654746 1 forward I I I I #
loop $-1 $-1 $108 $30 #
coedge $-1 $68 $68 $109 $110 reversed $42 $-1 #
face $-1 $-1 $111 $24 $-1 $112 forward single #
loop $-1 $113 $114 $44 #
cone-surface $-1 -6.8837520797933678 -32.558109937954697 10.51438930492737 0 0.66913061440640931 -0.74314481823134659 1 0 0 1 I I -0.70710678118654746 0.70710678118654746 1 forward I I I I #
loop $-1 $-1 $115 $31 #
coedge $-1 $73 $73 $116 $117 reversed $45 $-1 #
face $-1 $118 $119 $25 $-1 $120 reversed single #
loop $-1 $-1 $121 $47 #
plane-surface $-1 -12.046566139638387 -41.974934432029727 12.822228490453597 0 -0.66913061440640931 0.74314481823134659 1 0 0 forward_v I I I I #
coedge $-1 $122 $123 $124 $125 reversed $48 $-1 #
face $-1 $-1 $126 $26 $-1 $127 forward single #
loop $-1 $128 $129 $50 #
cone-surface $-1 6.8837520797933678 -32.558109937954697 10.51438930492737 0 0.66913061440640931 -0.74314481823134659 1 0 0 1 I I -0.70710678118654746 0.70710678118654746 1 forward I I I I #
loop $-1 $-1 $130 $33 #
coedge $-1 $82 $82 $131 $132 reversed $51 $-1 #
face $-1 $-1 $133 $27 $-1 $134 forward single #
loop $-1 $135 $136 $53 #
cone-surface $-1 17.209380199483405 -32.558109937954697 10.51438930492737 0 0.66913061440640931 -0.74314481823134659 1 0 0 1 I I -0.70710678118654746 0.70710678118654746 1 forward I I I I #
loop $-1 $-1 $137 $34 #
coedge $-1 $87 $87 $138 $139 reversed $54 $-1 #
face $-1 $140 $141 $21 $-1 $142 reversed single #
loop $-1 $-1 $143 $56 #
plane-surface $-1 0 -41.97493443202972 0 0 1 0 0 0 1 forward_v I I I I #
coedge $-1 $144 $145 $146 $147 forward $57 $-1 #
coedge $-1 $148 $59 $149 $150 forward $36 $-1 #
coedge $-1 $59 $148 $151 $152 forward $36 $-1 #
coedge $-1 $153 $154 $59 $95 reversed $155 $-1 #
edge $-1 $156 -41.97493443202972 $157 41.97493443202972 $94 $158 forward 7 unknown #
face $-1 $159 $160 $22 $-1 $161 reversed single #
loop $-1 $-1 $162 $60 #
plane-surface $-1 -24.093132279276773 -133.26765453276269 114.21306373909792 1 0 0 0 0.66913061440640931 -0.74314481823134659 forward_v I I I I #
coedge $-1 $163 $164 $165 $166 reversed $61 $-1 #
coedge $-1 $101 $63 $167 $168 reversed $39 $-1 #
coedge $-1 $63 $100 $163 $169 reversed $39 $-1 #
coedge $-1 $165 $170 $63 $103 forward $171 $-1 #
edge $-1 $172 24.658892834351626 $173 32.764846712600864 $102 $174 forward 7 unknown #
loop $-1 $-1 $109 $64 #
plane-surface $-1 -12.046566139638387 -41.974934432029727 12.822228490453597 0 -0.66913061440640931 0.74314481823134659 1 0 0 forward_v I I I I #
loop $-1 $-1 $175 $41 #
coedge $-1 $107 $107 $108 $176 reversed $65 $-1 #
coedge $-1 $108 $108 $107 $176 forward $67 $-1 #
coedge $-1 $109 $109 $68 $110 forward $104 $-1 #
edge $-1 $177 -2.1142782123514504e-015 $177 6.2831853071795987 $109 $178 forward 7 unknown #
loop $-1 $-1 $116 $69 #
plane-surface $-1 -12.046566139638387 -41.974934432029727 12.822228490453597 0 -0.66913061440640931 0.74314481823134659 1 0 0 forward_v I I I I #
loop $-1 $-1 $179 $44 #
coedge $-1 $114 $114 $115 $180 reversed $70 $-1 #
coedge $-1 $115 $115 $114 $180 forward $72 $-1 #
coedge $-1 $116 $116 $73 $117 forward $111 $-1 #
edge $-1 $181 -2.1142782123514504e-015 $181 6.2831853071795987 $116 $182 forward 7 unknown #
face $-1 $183 $184 $25 $-1 $185 forward single #
loop $-1 $-1 $186 $74 #
plane-surface $-1 0 -41.97493443202972 0 0 1 0 0 0 1 forward_v I I I I #
coedge $-1 $187 $188 $189 $190 reversed $75 $-1 #
coedge $-1 $123 $77 $191 $192 reversed $48 $-1 #
coedge $-1 $77 $122 $193 $194 reversed $48 $-1 #
coedge $-1 $195 $186 $77 $125 forward $119 $-1 #
edge $-1 $196 -44.284303379095356 $197 -36.985669565282748 $124 $198 forward 7 unknown #
loop $-1 $-1 $131 $78 #
plane-surface $-1 -12.046566139638387 -41.974934432029727 12.822228490453597 0 -0.66913061440640931 0.74314481823134659 1 0 0 forward_v I I I I #
loop $-1 $-1 $199 $50 #
coedge $-1 $129 $129 $130 $200 reversed $79 $-1 #
coedge $-1 $130 $130 $129 $200 forward $81 $-1 #
coedge $-1 $131 $131 $82 $132 forward $126 $-1 #
edge $-1 $201 -2.1142782123514504e-015 $201 6.2831853071795987 $131 $202 forward 7 unknown #
loop $-1 $-1 $138 $83 #
plane-surface $-1 -12.046566139638387 -41.974934432029727 12.822228490453597 0 -0.66913061440640931 0.74314481823134659 1 0 0 forward_v I I I I #
loop $-1 $-1 $203 $53 #
coedge $-1 $136 $136 $137 $204 reversed $84 $-1 #
coedge $-1 $137 $137 $136 $204 forward $86 $-1 #
coedge $-1 $138 $138 $87 $139 forward $133 $-1 #
edge $-1 $205 -2.1142782123514504e-015 $205 6.2831853071795987 $138 $206 forward 7 unknown #
face $-1 $207 $208 $21 $-1 $209 reversed single #
loop $-1 $-1 $210 $88 #
plane-surface $-1 -68.217413861506998 0 0 1 0 0 0 0 -1 forward_v I I I I #
coedge $-1 $211 $151 $212 $213 forward $89 $-1 #
coedge $-1 $214 $91 $211 $215 forward $57 $-1 #
coedge $-1 $91 $214 $216 $217 forward $57 $-1 #
coedge $-1 $154 $153 $91 $147 reversed $155 $-1 #
edge $-1 $218 -41.97493443202972 $219 41.97493443202972 $146 $220 forward 7 unknown #
coedge $-1 $93 $92 $221 $222 forward $36 $-1 #
coedge $-1 $223 $224 $92 $150 reversed $208 $-1 #
edge $-1 $157 -68.217413861506998 $225 68.217413861506998 $149 $226 forward 7 unknown #
coedge $-1 $143 $227 $93 $152 reversed $89 $-1 #
edge $-1 $228 -68.217413861506998 $156 68.217413861506998 $151 $229 forward 7 unknown #
coedge $-1 $146 $94 $227 $230 forward $155 $-1 #
coedge $-1 $94 $146 $223 $231 reversed $155 $-1 #
loop $-1 $-1 $153 $207 #
vertex $-1 $95 $232 #
vertex $-1 $95 $233 #
straight-curve $-1 68.217413861506998 0 20.120862304266208 0 1 0 I I #
face $-1 $-1 $171 $22 $-1 $234 forward single #
loop $-1 $-1 $235 $96 #
plane-surface $-1 0 -41.97493443202972 0 0 1 0 0 0 1 forward_v I I I I #
coedge $-1 $236 $237 $238 $239 reversed $97 $-1 #
coedge $-1 $240 $99 $101 $169 forward $61 $-1 #
coedge $-1 $99 $240 $236 $241 forward $61 $-1 #
coedge $-1 $238 $102 $99 $166 forward $171 $-1 #
edge $-1 $173 -6.0232830698191933 $242 18.06984920945758 $165 $243 forward 7 unknown #
coedge $-1 $244 $245 $100 $168 forward $160 $-1 #
edge $-1 $246 -44.284303379095356 $172 -36.985669565282748 $167 $247 forward 7 unknown #
edge $-1 $173 -10.907636949607042 $246 -1.0034820495532102e-014 $101 $248 forward 7 unknown #
coedge $-1 $102 $238 $244 $249 forward $171 $-1 #
loop $-1 $-1 $238 $159 #
vertex $-1 $168 $250 #
vertex $-1 $103 $251 #
straight-curve $-1 0 -66.633827266381346 20.120862304266211 0 1 0 I I #
coedge $-1 $175 $175 $-1 $252 reversed $106 $-1 #
edge $-1 $253 0 $253 6.2831853071796004 $107 $254 forward 7 unknown #
vertex $-1 $110 $255 #
ellipse-curve $-1 -17.209380199483412 -37.921957492905094 16.471545397359911 0 -0.66913061440640931 0.74314481823134659 2 0 0 1 I I #
coedge $-1 $179 $179 $-1 $256 reversed $113 $-1 #
edge $-1 $257 0 $257 6.2831853071796004 $114 $258 forward 7 unknown #
vertex $-1 $117 $259 #
ellipse-curve $-1 -6.8837520797933678 -37.921957492905094 16.471545397359911 0 -0.66913061440640931 0.74314481823134659 2 0 0 1 I I #
face $-1 $-1 $260 $25 $-1 $261 forward single #
loop $-1 $-1 $262 $118 #
plane-surface $-1 0 -133.26765453276269 114.21306373909792 -1 0 0 0 -0.66913061440640931 0.74314481823134659 forward_v I I I I #
coedge $-1 $124 $263 $188 $264 forward $119 $-1 #
coedge $-1 $191 $121 $265 $266 reversed $75 $-1 #
coedge $-1 $121 $191 $186 $264 reversed $75 $-1 #
coedge $-1 $267 $262 $121 $190 forward $184 $-1 #
edge $-1 $268 -10.907636949607042 $269 -1.0034820495532102e-014 $189 $270 forward 7 unknown #
coedge $-1 $188 $187 $122 $192 forward $75 $-1 #
edge $-1 $271 -10.907636949607042 $196 -1.0034820495532102e-014 $122 $272 forward 7 unknown #
coedge $-1 $265 $273 $123 $194 forward $260 $-1 #
edge $-1 $197 24.658892834351626 $271 32.764846712600864 $193 $274 forward 7 unknown #
coedge $-1 $263 $124 $273 $275 reversed $119 $-1 #
vertex $-1 $125 $276 #
vertex $-1 $125 $277 #
straight-curve $-1 24.093132279276773 -41.97493443202972 57.106531869548959 0 0 1 I I #
coedge $-1 $199 $199 $-1 $278 reversed $128 $-1 #
edge $-1 $279 0 $279 6.2831853071796004 $129 $280 forward 7 unknown #
vertex $-1 $132 $281 #
ellipse-curve $-1 6.8837520797933678 -37.921957492905094 16.471545397359911 0 -0.66913061440640931 0.74314481823134659 2 0 0 1 I I #
coedge $-1 $203 $203 $-1 $282 reversed $135 $-1 #
edge $-1 $283 0 $283 6.2831853071796004 $136 $284 forward 7 unknown #
vertex $-1 $139 $285 #
ellipse-curve $-1 17.209380199483405 -37.921957492905094 16.471545397359911 0 -0.66913061440640931 0.74314481823134659 2 0 0 1 I I #
face $-1 $-1 $155 $21 $-1 $286 reversed single #
loop $-1 $-1 $223 $140 #
plane-surface $-1 0 41.97493443202972 0 0 -1 0 0 0 -1 forward_v I I I I #
coedge $-1 $287 $221 $224 $288 forward $141 $-1 #
coedge $-1 $227 $143 $144 $215 reversed $89 $-1 #
coedge $-1 $221 $287 $143 $213 reversed $141 $-1 #
edge $-1 $228 -20.120862304266208 $289 20.120862304266208 $212 $290 forward 7 unknown #
coedge $-1 $145 $144 $287 $291 forward $57 $-1 #
edge $-1 $219 -68.217413861506998 $289 68.217413861506998 $211 $292 forward 7 unknown #
coedge $-1 $224 $223 $145 $217 reversed $208 $-1 #
edge $-1 $293 -68.217413861506998 $218 68.217413861506998 $216 $294 forward 7 unknown #
vertex $-1 $147 $295 #
vertex $-1 $230 $296 #
straight-curve $-1 68.217413861506998 0 -20.120862304266208 0 -1 0 I I #
coedge $-1 $210 $212 $148 $222 reversed $141 $-1 #
edge $-1 $225 -41.97493443202972 $228 41.97493443202972 $221 $297 forward 7 unknown #
coedge $-1 $216 $149 $154 $231 forward $208 $-1 #
coedge $-1 $149 $216 $210 $288 reversed $208 $-1 #
vertex $-1 $150 $298 #
straight-curve $-1 0 41.97493443202972 20.120862304266208 -1 0 0 I I #
coedge $-1 $151 $211 $153 $230 reversed $89 $-1 #
vertex $-1 $222 $299 #
straight-curve $-1 0 -41.97493443202972 20.120862304266208 1 0 0 I I #
edge $-1 $156 -20.120862304266208 $219 20.120862304266208 $153 $300 forward 7 unknown #
edge $-1 $157 -20.120862304266208 $218 20.120862304266208 $154 $301 forward 7 unknown #
point $-1 68.217413861506998 -41.97493443202972 20.120862304266208 #
point $-1 68.217413861506998 41.97493443202972 20.120862304266208 #
plane-surface $-1 0 0 20.120862304266208 0 0 1 1 0 0 forward_v I I I I #
coedge $-1 $245 $244 $237 $302 forward $160 $-1 #
coedge $-1 $237 $162 $164 $241 reversed $97 $-1 #
coedge $-1 $162 $236 $235 $302 reversed $97 $-1 #
coedge $-1 $170 $165 $162 $239 forward $171 $-1 #
edge $-1 $242 -32.764846712600864 $303 -24.658892834351626 $238 $304 forward 7 unknown #
coedge $-1 $164 $163 $245 $305 reversed $61 $-1 #
edge $-1 $306 1.0034820495532102e-014 $242 10.907636949607042 $236 $307 forward 7 unknown #
vertex $-1 $166 $308 #
straight-curve $-1 -6.0232830698191933 -33.868980553780482 20.120862304266208 -1 0 0 I I #
coedge $-1 $235 $167 $170 $249 reversed $160 $-1 #
coedge $-1 $167 $235 $240 $305 forward $160 $-1 #
vertex $-1 $168 $309 #
straight-curve $-1 0 -41.97493443202972 57.106531869548959 0 0 1 I I #
straight-curve $-1 0 -41.974934432029727 12.822228490453597 0 -0.74314481823134659 -0.66913061440640931 I I #
edge $-1 $303 -24.093132279276773 $172 0 $244 $310 forward 7 unknown #
point $-1 0 -41.97493443202972 20.120862304266208 #
point $-1 0 -33.868980553780482 20.120862304266208 #
edge $-1 $311 1 $311 0 $175 $-1 forward 7 unknown #
vertex $-1 $176 $312 #
ellipse-curve $-1 -17.209380199483412 -33.22724055236111 11.257534123158717 0 -0.66913061440640931 0.74314481823134659 2 0 0 1 I I #
point $-1 -15.209380199483412 -37.921957492905086 16.471545397359897 #
edge $-1 $313 1 $313 0 $179 $-1 forward 7 unknown #
vertex $-1 $180 $314 #
ellipse-curve $-1 -6.8837520797933678 -33.22724055236111 11.257534123158717 0 -0.66913061440640931 0.74314481823134659 2 0 0 1 I I #
point $-1 -4.8837520797933678 -37.921957492905086 16.471545397359897 #
loop $-1 $-1 $265 $183 #
plane-surface $-1 0 0 20.120862304266208 0 0 1 1 0 0 forward_v I I I I #
coedge $-1 $189 $267 $315 $316 reversed $184 $-1 #
coedge $-1 $186 $195 $267 $317 forward $119 $-1 #
edge $-1 $269 6.0232830698191933 $196 30.116415349095966 $186 $318 forward 7 unknown #
coedge $-1 $315 $193 $187 $266 forward $260 $-1 #
edge $-1 $271 -30.116415349095966 $268 -6.0232830698191933 $265 $319 forward 7 unknown #
coedge $-1 $262 $189 $263 $317 reversed $184 $-1 #
vertex $-1 $266 $320 #
vertex $-1 $264 $321 #
straight-curve $-1 0 -41.974934432029727 12.822228490453597 0 -0.74314481823134659 -0.66913061440640931 I I #
vertex $-1 $194 $322 #
straight-curve $-1 24.093132279276773 -41.974934432029727 12.822228490453597 0 -0.74314481823134659 -0.66913061440640931 I I #
coedge $-1 $193 $315 $195 $275 forward $260 $-1 #
straight-curve $-1 24.093132279276773 -66.633827266381346 20.120862304266211 0 1 0 I I #
edge $-1 $323 0 $197 24.093132279276773 $195 $324 forward 7 unknown #
point $-1 24.093132279276773 -41.97493443202972 12.822228490453604 #
point $-1 24.093132279276773 -41.97493443202972 20.120862304266208 #
edge $-1 $325 1 $325 0 $199 $-1 forward 7 unknown #
vertex $-1 $200 $326 #
ellipse-curve $-1 6.8837520797933678 -33.22724055236111 11.257534123158717 0 -0.66913061440640931 0.74314481823134659 2 0 0 1 I I #
point $-1 8.8837520797933678 -37.921957492905086 16.471545397359897 #
edge $-1 $327 1 $327 0 $203 $-1 forward 7 unknown #
vertex $-1 $204 $328 #
ellipse-curve $-1 17.209380199483405 -33.22724055236111 11.257534123158717 0 -0.66913061440640931 0.74314481823134659 2 0 0 1 I I #
point $-1 19.209380199483405 -37.921957492905086 16.471545397359897 #
plane-surface $-1 68.217413861506998 0 0 -1 0 0 0 0 1 forward_v I I I I #
coedge $-1 $212 $210 $214 $291 reversed $141 $-1 #
edge $-1 $225 -20.120862304266208 $293 20.120862304266208 $224 $329 forward 7 unknown #
vertex $-1 $291 $330 #
straight-curve $-1 -68.217413861506998 -41.97493443202972 0 0 0 -1 I I #
edge $-1 $289 -41.97493443202972 $293 41.97493443202972 $287 $331 forward 7 unknown #
straight-curve $-1 0 -41.97493443202972 -20.120862304266208 -1 0 0 I I #
vertex $-1 $217 $332 #
straight-curve $-1 0 41.97493443202972 -20.120862304266208 1 0 0 I I #
point $-1 68.217413861506998 41.97493443202972 -20.120862304266208 #
point $-1 68.217413861506998 -41.97493443202972 -20.120862304266208 #
straight-curve $-1 -68.217413861506998 0 20.120862304266208 0 -1 0 I I #
point $-1 -68.217413861506998 41.97493443202972 20.120862304266208 #
point $-1 -68.217413861506998 -41.97493443202972 20.120862304266208 #
straight-curve $-1 68.217413861506998 -41.97493443202972 0 0 0 -1 I I #
straight-curve $-1 68.217413861506998 41.97493443202972 0 0 0 -1 I I #
edge $-1 $303 36.985669565282748 $306 44.284303379095356 $235 $333 forward 7 unknown #
vertex $-1 $249 $334 #
straight-curve $-1 -24.093132279276773 -66.633827266381346 20.120862304266211 0 -1 0 I I #
edge $-1 $306 -18.06984920945758 $246 6.0232830698191933 $245 $335 forward 7 unknown #
vertex $-1 $305 $336 #
straight-curve $-1 -24.093132279276773 -41.974934432029727 12.822228490453597 0 0.74314481823134659 0.66913061440640931 I I #
point $-1 -24.093132279276773 -33.868980553780482 20.120862304266208 #
point $-1 0 -41.97493443202972 12.822228490453604 #
straight-curve $-1 0 -41.97493443202972 20.120862304266208 1 0 0 I I #
vertex $-1 $252 $337 #
point $-1 -15.209380199483412 -33.22724055236111 11.257534123158717 #
vertex $-1 $256 $338 #
point $-1 -4.8837520797933678 -33.22724055236111 11.257534123158717 #
coedge $-1 $273 $265 $262 $316 forward $260 $-1 #
edge $-1 $268 -32.764846712600864 $323 -24.658892834351626 $315 $339 forward 7 unknown #
edge $-1 $323 36.985669565282748 $269 44.284303379095356 $263 $340 forward 7 unknown #
straight-curve $-1 -6.0232830698191933 -41.97493443202972 12.822228490453604 1 0 0 I I #
straight-curve $-1 -6.0232830698191933 -33.868980553780482 20.120862304266208 -1 0 0 I I #
point $-1 0 -33.868980553780482 20.120862304266208 #
point $-1 0 -41.97493443202972 12.822228490453604 #
point $-1 24.093132279276773 -33.868980553780482 20.120862304266208 #
vertex $-1 $275 $341 #
straight-curve $-1 0 -41.97493443202972 20.120862304266208 1 0 0 I I #
vertex $-1 $278 $342 #
point $-1 8.8837520797933678 -33.22724055236111 11.257534123158717 #
vertex $-1 $282 $343 #
point $-1 19.209380199483405 -33.22724055236111 11.257534123158717 #
straight-curve $-1 -68.217413861506998 41.97493443202972 0 0 0 -1 I I #
point $-1 -68.217413861506998 -41.97493443202972 -20.120862304266208 #
straight-curve $-1 -68.217413861506998 0 -20.120862304266208 0 1 0 I I #
point $-1 -68.217413861506998 41.97493443202972 -20.120862304266208 #
straight-curve $-1 -24.093132279276773 -41.97493443202972 57.106531869548959 0 0 -1 I I #
point $-1 -24.093132279276773 -41.97493443202972 20.120862304266208 #
straight-curve $-1 -6.0232830698191933 -41.97493443202972 12.822228490453604 1 0 0 I I #
point $-1 -24.093132279276773 -41.97493443202972 12.822228490453604 #
point $-1 -17.209380199483412 -31.888979323548288 9.7712444866960233 #
point $-1 -6.8837520797933678 -31.888979323548288 9.7712444866960233 #
straight-curve $-1 0 -66.633827266381346 20.120862304266211 0 -1 0 I I #
straight-curve $-1 0 -41.97493443202972 57.106531869548959 0 0 -1 I I #
point $-1 0 -41.97493443202972 20.120862304266208 #
point $-1 6.8837520797933678 -31.888979323548288 9.7712444866960233 #
point $-1 17.209380199483405 -31.888979323548288 9.7712444866960233 #
End-of-ACIS-data 