500 0 14 0           
7 Unknown 11 ACIS 5.0 NT 24 Thu Mar 25 17:33:39 1999 
-1 9.9999999999999995e-007 1e-010 
body $-1 $14 $-1 $15 #
body $-1 $16 $-1 $17 #
body $-1 $18 $-1 $19 #
body $-1 $20 $-1 $21 #
body $-1 $22 $-1 $23 #
body $-1 $24 $-1 $25 #
body $-1 $26 $-1 $27 #
body $-1 $28 $-1 $29 #
body $-1 $30 $-1 $31 #
body $-1 $32 $-1 $33 #
body $-1 $34 $-1 $35 #
body $-1 $36 $-1 $37 #
body $-1 $38 $-1 $39 #
body $-1 $40 $-1 $41 #
lump $-1 $-1 $42 $0 #
transform $-1 1 0 0 0 1 0 0 0 1 41.975157933286539 26.260126118888333 10.171381043827482 1 rotate no_reflect no_shear #
lump $-1 $-1 $43 $1 #
transform $-1 1 0 0 0 1 0 0 0 1 41.975157933286539 26.260126118888333 10.171381043827482 1 rotate no_reflect no_shear #
lump $-1 $-1 $44 $2 #
transform $-1 1 0 0 0 1 0 0 0 1 41.975157933286539 26.260126118888333 10.171381043827482 1 rotate no_reflect no_shear #
lump $-1 $-1 $45 $3 #
transform $-1 1 0 0 0 1 0 0 0 1 41.975157933286539 26.260126118888333 10.171381043827482 1 rotate no_reflect no_shear #
lump $-1 $-1 $46 $4 #
transform $-1 1 0 0 0 1 0 0 0 1 41.975157933286539 26.260126118888333 10.171381043827482 1 rotate no_reflect no_shear #
lump $-1 $-1 $47 $5 #
transform $-1 1 0 0 0 1 0 0 0 1 41.975157933286539 26.260126118888333 10.171381043827482 1 rotate no_reflect no_shear #
lump $-1 $-1 $48 $6 #
transform $-1 1 0 0 0 1 0 0 0 1 41.975157933286539 26.260126118888333 10.171381043827482 1 rotate no_reflect no_shear #
lump $-1 $-1 $49 $7 #
transform $-1 1 0 0 0 1 0 0 0 1 41.975157933286539 26.260126118888333 10.171381043827482 1 rotate no_reflect no_shear #
lump $-1 $-1 $50 $8 #
transform $-1 1 0 0 0 1 0 0 0 1 41.975157933286539 26.260126118888333 10.171381043827482 1 rotate no_reflect no_shear #
lump $-1 $-1 $51 $9 #
transform $-1 1 0 0 0 1 0 0 0 1 41.975157933286539 26.260126118888333 10.171381043827482 1 rotate no_reflect no_shear #
lump $-1 $-1 $52 $10 #
transform $-1 1 0 0 0 1 0 0 0 1 41.975157933286539 26.260126118888333 10.171381043827482 1 rotate no_reflect no_shear #
lump $-1 $-1 $53 $11 #
transform $-1 1 0 0 0 1 0 0 0 1 41.975157933286539 26.260126118888333 10.171381043827482 1 rotate no_reflect no_shear #
lump $-1 $-1 $54 $12 #
transform $-1 1 0 0 0 1 0 0 0 1 41.975157933286539 26.260126118888333 10.171381043827482 1 rotate no_reflect no_shear #
lump $-1 $-1 $55 $13 #
transform $-1 1 0 0 0 1 0 0 0 1 41.975157933286539 26.260126118888333 10.171381043827482 1 rotate no_reflect no_shear #
shell $-1 $-1 $-1 $56 $-1 $14 #
shell $-1 $-1 $-1 $57 $-1 $16 #
shell $-1 $-1 $-1 $58 $-1 $18 #
shell $-1 $-1 $-1 $59 $-1 $20 #
shell $-1 $-1 $-1 $60 $-1 $22 #
shell $-1 $-1 $-1 $61 $-1 $24 #
shell $-1 $-1 $-1 $62 $-1 $26 #
shell $-1 $-1 $-1 $63 $-1 $28 #
shell $-1 $-1 $-1 $64 $-1 $30 #
shell $-1 $-1 $-1 $65 $-1 $32 #
shell $-1 $-1 $-1 $66 $-1 $34 #
shell $-1 $-1 $-1 $67 $-1 $36 #
shell $-1 $-1 $-1 $68 $-1 $38 #
shell $-1 $-1 $-1 $69 $-1 $40 #
face $-1 $70 $71 $42 $-1 $72 forward single #
face $-1 $73 $74 $43 $-1 $75 forward single #
face $-1 $76 $77 $44 $-1 $78 reversed single #
face $-1 $79 $80 $45 $-1 $81 forward single #
face $-1 $82 $83 $46 $-1 $84 forward single #
face $-1 $85 $86 $47 $-1 $87 reversed single #
face $-1 $88 $89 $48 $-1 $90 forward single #
face $-1 $91 $92 $49 $-1 $93 forward single #
face $-1 $94 $95 $50 $-1 $96 reversed single #
face $-1 $97 $98 $51 $-1 $99 forward single #
face $-1 $100 $101 $52 $-1 $102 forward single #
face $-1 $103 $104 $53 $-1 $105 reversed single #
face $-1 $106 $107 $54 $-1 $108 forward single #
face $-1 $109 $110 $55 $-1 $111 forward single #
face $-1 $112 $113 $42 $-1 $114 reversed single #
loop $-1 $-1 $115 $56 #
plane-surface $-1 0 0 10.171381043827482 0 0 1 1 0 0 forward_v I I I I #
face $-1 $116 $117 $43 $-1 $118 forward single #
loop $-1 $-1 $119 $57 #
plane-surface $-1 0 -26.260126118888333 0 0 1 0 0 0 1 forward_v I I I I #
face $-1 $120 $121 $44 $-1 $122 reversed single #
loop $-1 $-1 $123 $58 #
plane-surface $-1 -38.033539146567257 43.403699251593494 100.63467799272347 1 0 0 0 -0.66913061440640931 -0.74314481823134659 forward_v I I I I #
face $-1 $124 $125 $45 $-1 $126 forward single #
loop $-1 $127 $128 $59 #
cone-surface $-1 -34.040089720582962 21.351051381842392 5.5442155508065465 0 -0.66913061440640931 -0.74314481823134659 1 0 0 1 I I 0 1 1 forward I I I I #
face $-1 $129 $130 $46 $-1 $131 forward single #
loop $-1 $132 $133 $60 #
cone-surface $-1 -28.049915581606516 21.351051381842392 5.5442155508065465 0 -0.66913061440640931 -0.74314481823134659 1 0 0 1 I I 0 1 1 forward I I I I #
face $-1 $134 $135 $47 $-1 $136 reversed single #
loop $-1 $-1 $137 $61 #
plane-surface $-1 -17.045960179923988 43.403699251593494 100.63467799272347 1 0 0 0 -0.66913061440640931 -0.74314481823134659 forward_v I I I I #
face $-1 $138 $139 $48 $-1 $140 forward single #
loop $-1 $141 $142 $62 #
cone-surface $-1 -13.052510753939693 21.351051381842392 5.5442155508065465 0 -0.66913061440640931 -0.74314481823134659 1 0 0 1 I I 0 1 1 forward I I I I #
face $-1 $143 $144 $49 $-1 $145 forward single #
loop $-1 $146 $147 $63 #
cone-surface $-1 -7.0623366149632432 21.351051381842392 5.5442155508065465 0 -0.66913061440640931 -0.74314481823134659 1 0 0 1 I I 0 1 1 forward I I I I #
face $-1 $148 $149 $50 $-1 $150 reversed single #
loop $-1 $-1 $151 $64 #
plane-surface $-1 3.9416187867192853 43.403699251593494 100.63467799272347 1 0 0 0 -0.66913061440640931 -0.74314481823134659 forward_v I I I I #
face $-1 $152 $153 $51 $-1 $154 forward single #
loop $-1 $155 $156 $65 #
cone-surface $-1 7.9350682127035768 21.351051381842392 5.5442155508065465 0 -0.66913061440640931 -0.74314481823134659 1 0 0 1 I I 0 1 1 forward I I I I #
face $-1 $157 $158 $52 $-1 $159 forward single #
loop $-1 $160 $161 $66 #
cone-surface $-1 13.925242351680026 21.351051381842392 5.5442155508065465 0 -0.66913061440640931 -0.74314481823134659 1 0 0 1 I I 0 1 1 forward I I I I #
face $-1 $162 $163 $53 $-1 $164 reversed single #
loop $-1 $-1 $165 $67 #
plane-surface $-1 24.929197753362555 43.403699251593494 100.63467799272347 1 0 0 0 -0.66913061440640931 -0.74314481823134659 forward_v I I I I #
face $-1 $166 $167 $54 $-1 $168 forward single #
loop $-1 $169 $170 $68 #
cone-surface $-1 28.922647179346853 21.351051381842392 5.5442155508065465 0 -0.66913061440640931 -0.74314481823134659 1 0 0 1 I I 0 1 1 forward I I I I #
face $-1 $171 $172 $55 $-1 $173 forward single #
loop $-1 $174 $175 $69 #
cone-surface $-1 34.912821318323296 21.351051381842392 5.5442155508065465 0 -0.66913061440640931 -0.74314481823134659 1 0 0 1 I I 0 1 1 forward I I I I #
face $-1 $176 $177 $42 $-1 $178 reversed single #
loop $-1 $-1 $179 $70 #
plane-surface $-1 0 0 -10.171381043827482 0 0 1 1 0 0 forward_v I I I I #
coedge $-1 $180 $181 $182 $183 forward $71 $-1 #
face $-1 $184 $185 $43 $-1 $186 reversed single #
loop $-1 $-1 $187 $73 #
plane-surface $-1 0 0 10.171381043827482 0 0 1 1 0 0 forward_v I I I I #
coedge $-1 $188 $189 $190 $191 forward $74 $-1 #
face $-1 $192 $193 $44 $-1 $194 reversed single #
loop $-1 $-1 $195 $76 #
plane-surface $-1 -31.045002651094737 -12.770027183818684 38.247435767594887 0 0.66913061440640931 0.74314481823134659 1 0 0 forward_v I I I I #
coedge $-1 $196 $197 $198 $199 reversed $77 $-1 #
face $-1 $-1 $200 $45 $-1 $201 forward single #
loop $-1 $202 $203 $79 #
cone-surface $-1 -34.040089720582962 20.031679456851283 4.0789046111077933 0 -0.66913061440640931 -0.74314481823134659 0.5 0 0 1 I I -0.70710678118654746 0.70710678118654746 0.5 forward I I I I #
loop $-1 $-1 $204 $59 #
coedge $-1 $128 $128 $205 $206 reversed $80 $-1 #
face $-1 $-1 $207 $46 $-1 $208 forward single #
loop $-1 $209 $210 $82 #
cone-surface $-1 -28.049915581606516 20.031679456851283 4.0789046111077933 0 -0.66913061440640931 -0.74314481823134659 0.5 0 0 1 I I -0.70710678118654746 0.70710678118654746 0.5 forward I I I I #
loop $-1 $-1 $211 $60 #
coedge $-1 $133 $133 $212 $213 reversed $83 $-1 #
face $-1 $214 $215 $47 $-1 $216 reversed single #
loop $-1 $-1 $217 $85 #
plane-surface $-1 -10.057423684451468 -12.770027183818684 38.247435767594887 0 0.66913061440640931 0.74314481823134659 1 0 0 forward_v I I I I #
coedge $-1 $218 $219 $220 $221 reversed $86 $-1 #
face $-1 $-1 $222 $48 $-1 $223 forward single #
loop $-1 $224 $225 $88 #
cone-surface $-1 -13.052510753939693 20.031679456851283 4.0789046111077933 0 -0.66913061440640931 -0.74314481823134659 0.5 0 0 1 I I -0.70710678118654746 0.70710678118654746 0.5 forward I I I I #
loop $-1 $-1 $226 $62 #
coedge $-1 $142 $142 $227 $228 reversed $89 $-1 #
face $-1 $-1 $229 $49 $-1 $230 forward single #
loop $-1 $231 $232 $91 #
cone-surface $-1 -7.0623366149632432 20.031679456851283 4.0789046111077933 0 -0.66913061440640931 -0.74314481823134659 0.5 0 0 1 I I -0.70710678118654746 0.70710678118654746 0.5 forward I I I I #
loop $-1 $-1 $233 $63 #
coedge $-1 $147 $147 $234 $235 reversed $92 $-1 #
face $-1 $236 $237 $50 $-1 $238 reversed single #
loop $-1 $-1 $239 $94 #
plane-surface $-1 10.930155282191805 -12.770027183818684 38.247435767594887 0 0.66913061440640931 0.74314481823134659 1 0 0 forward_v I I I I #
coedge $-1 $240 $241 $242 $243 reversed $95 $-1 #
face $-1 $-1 $244 $51 $-1 $245 forward single #
loop $-1 $246 $247 $97 #
cone-surface $-1 7.9350682127035768 20.031679456851283 4.0789046111077933 0 -0.66913061440640931 -0.74314481823134659 0.5 0 0 1 I I -0.70710678118654746 0.70710678118654746 0.5 forward I I I I #
loop $-1 $-1 $248 $65 #
coedge $-1 $156 $156 $249 $250 reversed $98 $-1 #
face $-1 $-1 $251 $52 $-1 $252 forward single #
loop $-1 $253 $254 $100 #
cone-surface $-1 13.925242351680026 20.031679456851283 4.0789046111077933 0 -0.66913061440640931 -0.74314481823134659 0.5 0 0 1 I I -0.70710678118654746 0.70710678118654746 0.5 forward I I I I #
loop $-1 $-1 $255 $66 #
coedge $-1 $161 $161 $256 $257 reversed $101 $-1 #
face $-1 $258 $259 $53 $-1 $260 reversed single #
loop $-1 $-1 $261 $103 #
plane-surface $-1 31.917734248835075 -12.770027183818684 38.247435767594887 0 0.66913061440640931 0.74314481823134659 1 0 0 forward_v I I I I #
coedge $-1 $262 $263 $264 $265 reversed $104 $-1 #
face $-1 $-1 $266 $54 $-1 $267 forward single #
loop $-1 $268 $269 $106 #
cone-surface $-1 28.922647179346853 20.031679456851283 4.0789046111077933 0 -0.66913061440640931 -0.74314481823134659 0.5 0 0 1 I I -0.70710678118654746 0.70710678118654746 0.5 forward I I I I #
loop $-1 $-1 $270 $68 #
coedge $-1 $170 $170 $271 $272 reversed $107 $-1 #
face $-1 $-1 $273 $55 $-1 $274 forward single #
loop $-1 $275 $276 $109 #
cone-surface $-1 34.912821318323296 20.031679456851283 4.0789046111077933 0 -0.66913061440640931 -0.74314481823134659 0.5 0 0 1 I I -0.70710678118654746 0.70710678118654746 0.5 forward I I I I #
loop $-1 $-1 $277 $69 #
coedge $-1 $175 $175 $278 $279 reversed $110 $-1 #
face $-1 $280 $281 $42 $-1 $282 reversed single #
loop $-1 $-1 $283 $112 #
plane-surface $-1 0 -26.260126118888333 0 0 1 0 0 0 1 forward_v I I I I #
coedge $-1 $284 $285 $286 $287 forward $113 $-1 #
coedge $-1 $288 $115 $289 $290 forward $71 $-1 #
coedge $-1 $115 $288 $291 $292 forward $71 $-1 #
coedge $-1 $293 $294 $115 $183 reversed $295 $-1 #
edge $-1 $296 -26.260126118888333 $297 26.260126118888333 $182 $298 forward 7 unknown #
face $-1 $299 $300 $43 $-1 $301 reversed single #
loop $-1 $-1 $302 $116 #
plane-surface $-1 -41.975157933286539 0 0 1 0 0 0 0 -1 forward_v I I I I #
coedge $-1 $303 $304 $189 $305 forward $117 $-1 #
coedge $-1 $306 $119 $307 $308 reversed $74 $-1 #
coedge $-1 $119 $306 $187 $305 reversed $74 $-1 #
coedge $-1 $309 $310 $119 $191 reversed $311 $-1 #
edge $-1 $312 -10.171381043827482 $313 10.171381043827482 $190 $314 forward 7 unknown #
face $-1 $315 $316 $44 $-1 $317 reversed single #
loop $-1 $-1 $318 $120 #
plane-surface $-1 -24.056466155622218 43.403699251593494 100.63467799272347 -1 0 0 0 0.66913061440640931 0.74314481823134659 forward_v I I I I #
coedge $-1 $319 $320 $321 $322 reversed $121 $-1 #
coedge $-1 $197 $123 $323 $324 reversed $77 $-1 #
coedge $-1 $123 $196 $319 $325 reversed $77 $-1 #
coedge $-1 $321 $326 $123 $199 forward $327 $-1 #
edge $-1 $328 -4.5582764930915864 $329 3.2902597454244784 $198 $330 forward 7 unknown #
loop $-1 $-1 $205 $124 #
plane-surface $-1 -31.045002651094737 -12.770027183818684 38.247435767594887 0 0.66913061440640931 0.74314481823134659 1 0 0 forward_v I I I I #
loop $-1 $-1 $331 $79 #
coedge $-1 $203 $203 $204 $332 reversed $125 $-1 #
coedge $-1 $204 $204 $203 $332 forward $127 $-1 #
coedge $-1 $205 $205 $128 $206 forward $200 $-1 #
edge $-1 $333 -2.629512743543829e-016 $333 6.2831853071796004 $205 $334 forward 7 unknown #
loop $-1 $-1 $212 $129 #
plane-surface $-1 -31.045002651094737 -12.770027183818684 38.247435767594887 0 0.66913061440640931 0.74314481823134659 1 0 0 forward_v I I I I #
loop $-1 $-1 $335 $82 #
coedge $-1 $210 $210 $211 $336 reversed $130 $-1 #
coedge $-1 $211 $211 $210 $336 forward $132 $-1 #
coedge $-1 $212 $212 $133 $213 forward $207 $-1 #
edge $-1 $337 -2.629512743543829e-016 $337 6.2831853071796004 $212 $338 forward 7 unknown #
face $-1 $339 $340 $47 $-1 $341 forward single #
loop $-1 $-1 $342 $134 #
plane-surface $-1 -3.0688871889789482 43.403699251593494 100.63467799272347 -1 0 0 0 0.66913061440640931 0.74314481823134659 forward_v I I I I #
coedge $-1 $343 $344 $345 $346 reversed $135 $-1 #
coedge $-1 $219 $137 $347 $348 reversed $86 $-1 #
coedge $-1 $137 $218 $343 $349 reversed $86 $-1 #
coedge $-1 $345 $350 $137 $221 forward $340 $-1 #
edge $-1 $351 -4.5582764930915864 $352 3.2902597454244784 $220 $353 forward 7 unknown #
loop $-1 $-1 $227 $138 #
plane-surface $-1 -10.057423684451468 -12.770027183818684 38.247435767594887 0 0.66913061440640931 0.74314481823134659 1 0 0 forward_v I I I I #
loop $-1 $-1 $354 $88 #
coedge $-1 $225 $225 $226 $355 reversed $139 $-1 #
coedge $-1 $226 $226 $225 $355 forward $141 $-1 #
coedge $-1 $227 $227 $142 $228 forward $222 $-1 #
edge $-1 $356 -2.629512743543829e-016 $356 6.2831853071796004 $227 $357 forward 7 unknown #
loop $-1 $-1 $234 $143 #
plane-surface $-1 -10.057423684451468 -12.770027183818684 38.247435767594887 0 0.66913061440640931 0.74314481823134659 1 0 0 forward_v I I I I #
loop $-1 $-1 $358 $91 #
coedge $-1 $232 $232 $233 $359 reversed $144 $-1 #
coedge $-1 $233 $233 $232 $359 forward $146 $-1 #
coedge $-1 $234 $234 $147 $235 forward $229 $-1 #
edge $-1 $360 -2.629512743543829e-016 $360 6.2831853071796004 $234 $361 forward 7 unknown #
face $-1 $362 $363 $50 $-1 $364 forward single #
loop $-1 $-1 $365 $148 #
plane-surface $-1 17.918691777664325 43.403699251593494 100.63467799272347 -1 0 0 0 0.66913061440640931 0.74314481823134659 forward_v I I I I #
coedge $-1 $366 $367 $368 $369 reversed $149 $-1 #
coedge $-1 $241 $151 $370 $371 reversed $95 $-1 #
coedge $-1 $151 $240 $366 $372 reversed $95 $-1 #
coedge $-1 $368 $373 $151 $243 forward $363 $-1 #
edge $-1 $374 -4.5582764930915864 $375 3.2902597454244784 $242 $376 forward 7 unknown #
loop $-1 $-1 $249 $152 #
plane-surface $-1 10.930155282191805 -12.770027183818684 38.247435767594887 0 0.66913061440640931 0.74314481823134659 1 0 0 forward_v I I I I #
loop $-1 $-1 $377 $97 #
coedge $-1 $247 $247 $248 $378 reversed $153 $-1 #
coedge $-1 $248 $248 $247 $378 forward $155 $-1 #
coedge $-1 $249 $249 $156 $250 forward $244 $-1 #
edge $-1 $379 -2.629512743543829e-016 $379 6.2831853071796004 $249 $380 forward 7 unknown #
loop $-1 $-1 $256 $157 #
plane-surface $-1 10.930155282191805 -12.770027183818684 38.247435767594887 0 0.66913061440640931 0.74314481823134659 1 0 0 forward_v I I I I #
loop $-1 $-1 $381 $100 #
coedge $-1 $254 $254 $255 $382 reversed $158 $-1 #
coedge $-1 $255 $255 $254 $382 forward $160 $-1 #
coedge $-1 $256 $256 $161 $257 forward $251 $-1 #
edge $-1 $383 -2.629512743543829e-016 $383 6.2831853071796004 $256 $384 forward 7 unknown #
face $-1 $385 $386 $53 $-1 $387 forward single #
loop $-1 $-1 $388 $162 #
plane-surface $-1 38.906270744307591 43.403699251593494 100.63467799272347 -1 0 0 0 0.66913061440640931 0.74314481823134659 forward_v I I I I #
coedge $-1 $389 $390 $391 $392 reversed $163 $-1 #
coedge $-1 $263 $165 $393 $394 reversed $104 $-1 #
coedge $-1 $165 $262 $389 $395 reversed $104 $-1 #
coedge $-1 $391 $396 $165 $265 forward $386 $-1 #
edge $-1 $397 -4.5582764930915864 $398 3.2902597454244784 $264 $399 forward 7 unknown #
loop $-1 $-1 $271 $166 #
plane-surface $-1 31.917734248835075 -12.770027183818684 38.247435767594887 0 0.66913061440640931 0.74314481823134659 1 0 0 forward_v I I I I #
loop $-1 $-1 $400 $106 #
coedge $-1 $269 $269 $270 $401 reversed $167 $-1 #
coedge $-1 $270 $270 $269 $401 forward $169 $-1 #
coedge $-1 $271 $271 $170 $272 forward $266 $-1 #
edge $-1 $402 -2.629512743543829e-016 $402 6.2831853071796004 $271 $403 forward 7 unknown #
loop $-1 $-1 $278 $171 #
plane-surface $-1 31.917734248835075 -12.770027183818684 38.247435767594887 0 0.66913061440640931 0.74314481823134659 1 0 0 forward_v I I I I #
loop $-1 $-1 $404 $109 #
coedge $-1 $276 $276 $277 $405 reversed $172 $-1 #
coedge $-1 $277 $277 $276 $405 forward $174 $-1 #
coedge $-1 $278 $278 $175 $279 forward $273 $-1 #
edge $-1 $406 -2.629512743543829e-016 $406 6.2831853071796004 $278 $407 forward 7 unknown #
face $-1 $408 $409 $42 $-1 $410 reversed single #
loop $-1 $-1 $411 $176 #
plane-surface $-1 -41.975157933286539 0 0 1 0 0 0 0 -1 forward_v I I I I #
coedge $-1 $412 $291 $413 $414 forward $177 $-1 #
coedge $-1 $415 $179 $412 $416 forward $113 $-1 #
coedge $-1 $179 $415 $417 $418 forward $113 $-1 #
coedge $-1 $294 $293 $179 $287 reversed $295 $-1 #
edge $-1 $419 -26.260126118888333 $420 26.260126118888333 $286 $421 forward 7 unknown #
coedge $-1 $181 $180 $422 $423 forward $71 $-1 #
coedge $-1 $424 $425 $180 $290 reversed $409 $-1 #
edge $-1 $297 -41.975157933286539 $426 41.975157933286539 $289 $427 forward 7 unknown #
coedge $-1 $283 $428 $181 $292 reversed $177 $-1 #
edge $-1 $429 -41.975157933286539 $296 41.975157933286539 $291 $430 forward 7 unknown #
coedge $-1 $286 $182 $428 $431 forward $295 $-1 #
coedge $-1 $182 $286 $424 $432 reversed $295 $-1 #
loop $-1 $-1 $293 $408 #
vertex $-1 $183 $433 #
vertex $-1 $183 $434 #
straight-curve $-1 41.975157933286539 0 10.171381043827482 0 1 0 I I #
face $-1 $435 $311 $43 $-1 $436 reversed single #
loop $-1 $-1 $437 $184 #
plane-surface $-1 -40.475157933286539 -37.10288598216318 0 0 1 0 0 0 1 forward_v I I I I #
coedge $-1 $438 $439 $306 $440 forward $185 $-1 #
coedge $-1 $441 $187 $439 $442 forward $117 $-1 #
coedge $-1 $187 $441 $309 $443 forward $117 $-1 #
edge $-1 $312 38.975157933286539 $444 41.975157933286539 $187 $445 forward 7 unknown #
coedge $-1 $189 $188 $302 $440 reversed $74 $-1 #
coedge $-1 $446 $447 $188 $308 forward $448 $-1 #
edge $-1 $449 -41.975157933286539 $313 -38.975157933286539 $307 $450 forward 7 unknown #
coedge $-1 $451 $190 $304 $443 reversed $311 $-1 #
coedge $-1 $190 $451 $446 $452 reversed $311 $-1 #
loop $-1 $-1 $451 $299 #
vertex $-1 $305 $453 #
vertex $-1 $452 $454 #
straight-curve $-1 -38.975157933286539 -26.260126118888333 0 0 0 -1 I I #
face $-1 $-1 $327 $44 $-1 $455 forward single #
loop $-1 $-1 $456 $192 #
plane-surface $-1 0 26.260126118888333 0 0 -1 0 0 0 -1 forward_v I I I I #
coedge $-1 $457 $458 $459 $460 reversed $193 $-1 #
coedge $-1 $461 $195 $197 $325 forward $121 $-1 #
coedge $-1 $195 $461 $457 $462 forward $121 $-1 #
coedge $-1 $459 $198 $195 $322 forward $327 $-1 #
edge $-1 $329 -22.51103782101989 $463 -8.533964830074849 $321 $464 forward 7 unknown #
coedge $-1 $465 $466 $196 $324 forward $316 $-1 #
edge $-1 $467 -47.212811877409948 $328 -40.145957952534253 $323 $468 forward 7 unknown #
edge $-1 $329 41.959004892750094 $467 52.520252237776674 $197 $469 forward 7 unknown #
coedge $-1 $198 $459 $465 $470 forward $327 $-1 #
loop $-1 $-1 $459 $315 #
vertex $-1 $324 $471 #
vertex $-1 $199 $472 #
straight-curve $-1 -38.033539146567257 21.701849625796747 10.171381043827481 0 -1 0 I I #
coedge $-1 $331 $331 $-1 $473 reversed $202 $-1 #
edge $-1 $474 0 $474 6.2831853071796004 $203 $475 forward 7 unknown #
vertex $-1 $206 $476 #
ellipse-curve $-1 -34.040089720582962 22.335857999630299 6.6379540813896307 0 0.66913061440640931 0.74314481823134659 1 0 0 1 I I #
coedge $-1 $335 $335 $-1 $477 reversed $209 $-1 #
edge $-1 $478 0 $478 6.2831853071796004 $210 $479 forward 7 unknown #
vertex $-1 $213 $480 #
ellipse-curve $-1 -28.049915581606516 22.335857999630299 6.6379540813896307 0 0.66913061440640931 0.74314481823134659 1 0 0 1 I I #
face $-1 $-1 $481 $47 $-1 $482 reversed single #
loop $-1 $-1 $220 $214 #
plane-surface $-1 0 0 10.171381043827482 0 0 1 1 0 0 forward_v I I I I #
coedge $-1 $483 $484 $485 $486 reversed $215 $-1 #
coedge $-1 $487 $217 $219 $349 forward $135 $-1 #
coedge $-1 $217 $487 $483 $488 forward $135 $-1 #
coedge $-1 $485 $220 $217 $346 forward $340 $-1 #
edge $-1 $352 -12.017248337698254 $489 1.9598246532467858 $345 $490 forward 7 unknown #
coedge $-1 $491 $492 $218 $348 forward $481 $-1 #
edge $-1 $493 -47.212811877409948 $351 -40.145957952534253 $347 $494 forward 7 unknown #
edge $-1 $352 41.959004892750094 $493 52.520252237776674 $219 $495 forward 7 unknown #
coedge $-1 $220 $485 $491 $496 forward $340 $-1 #
vertex $-1 $221 $497 #
vertex $-1 $221 $498 #
straight-curve $-1 -17.045960179923988 21.701849625796747 10.171381043827481 0 -1 0 I I #
coedge $-1 $354 $354 $-1 $499 reversed $224 $-1 #
edge $-1 $500 0 $500 6.2831853071796004 $225 $501 forward 7 unknown #
vertex $-1 $228 $502 #
ellipse-curve $-1 -13.052510753939693 22.335857999630299 6.6379540813896307 0 0.66913061440640931 0.74314481823134659 1 0 0 1 I I #
coedge $-1 $358 $358 $-1 $503 reversed $231 $-1 #
edge $-1 $504 0 $504 6.2831853071796004 $232 $505 forward 7 unknown #
vertex $-1 $235 $506 #
ellipse-curve $-1 -7.0623366149632432 22.335857999630299 6.6379540813896307 0 0.66913061440640931 0.74314481823134659 1 0 0 1 I I #
face $-1 $-1 $507 $50 $-1 $508 reversed single #
loop $-1 $-1 $242 $236 #
plane-surface $-1 0 0 10.171381043827482 0 0 1 1 0 0 forward_v I I I I #
coedge $-1 $509 $510 $511 $512 reversed $237 $-1 #
coedge $-1 $513 $239 $241 $372 forward $149 $-1 #
coedge $-1 $239 $513 $509 $514 forward $149 $-1 #
coedge $-1 $511 $242 $239 $369 forward $363 $-1 #
edge $-1 $375 -1.5234588543766172 $515 12.453614136568422 $368 $516 forward 7 unknown #
coedge $-1 $517 $518 $240 $371 forward $507 $-1 #
edge $-1 $519 -47.212811877409948 $374 -40.145957952534253 $370 $520 forward 7 unknown #
edge $-1 $375 41.959004892750094 $519 52.520252237776674 $241 $521 forward 7 unknown #
coedge $-1 $242 $511 $517 $522 forward $363 $-1 #
vertex $-1 $243 $523 #
vertex $-1 $243 $524 #
straight-curve $-1 3.9416187867192853 21.701849625796747 10.171381043827481 0 -1 0 I I #
coedge $-1 $377 $377 $-1 $525 reversed $246 $-1 #
edge $-1 $526 0 $526 6.2831853071796004 $247 $527 forward 7 unknown #
vertex $-1 $250 $528 #
ellipse-curve $-1 7.9350682127035768 22.335857999630299 6.6379540813896307 0 0.66913061440640931 0.74314481823134659 1 0 0 1 I I #
coedge $-1 $381 $381 $-1 $529 reversed $253 $-1 #
edge $-1 $530 0 $530 6.2831853071796004 $254 $531 forward 7 unknown #
vertex $-1 $257 $532 #
ellipse-curve $-1 13.925242351680026 22.335857999630299 6.6379540813896307 0 0.66913061440640931 0.74314481823134659 1 0 0 1 I I #
face $-1 $-1 $533 $53 $-1 $534 reversed single #
loop $-1 $-1 $264 $258 #
plane-surface $-1 0 0 10.171381043827482 0 0 1 1 0 0 forward_v I I I I #
coedge $-1 $535 $536 $537 $538 reversed $259 $-1 #
coedge $-1 $539 $261 $263 $395 forward $163 $-1 #
coedge $-1 $261 $539 $535 $540 forward $163 $-1 #
coedge $-1 $537 $264 $261 $392 forward $386 $-1 #
edge $-1 $398 8.9703306289450175 $541 22.947403619890054 $391 $542 forward 7 unknown #
coedge $-1 $543 $544 $262 $394 forward $533 $-1 #
edge $-1 $545 -47.212811877409948 $397 -40.145957952534253 $393 $546 forward 7 unknown #
edge $-1 $398 41.959004892750094 $545 52.520252237776674 $263 $547 forward 7 unknown #
coedge $-1 $264 $537 $543 $548 forward $386 $-1 #
vertex $-1 $265 $549 #
vertex $-1 $265 $550 #
straight-curve $-1 24.929197753362555 21.701849625796747 10.171381043827481 0 -1 0 I I #
coedge $-1 $400 $400 $-1 $551 reversed $268 $-1 #
edge $-1 $552 0 $552 6.2831853071796004 $269 $553 forward 7 unknown #
vertex $-1 $272 $554 #
ellipse-curve $-1 28.922647179346853 22.335857999630299 6.6379540813896307 0 0.66913061440640931 0.74314481823134659 1 0 0 1 I I #
coedge $-1 $404 $404 $-1 $555 reversed $275 $-1 #
edge $-1 $556 0 $556 6.2831853071796004 $276 $557 forward 7 unknown #
vertex $-1 $279 $558 #
ellipse-curve $-1 34.912821318323296 22.335857999630299 6.6379540813896307 0 0.66913061440640931 0.74314481823134659 1 0 0 1 I I #
face $-1 $-1 $295 $42 $-1 $559 reversed single #
loop $-1 $-1 $424 $280 #
plane-surface $-1 0 26.260126118888333 0 0 -1 0 0 0 -1 forward_v I I I I #
coedge $-1 $560 $422 $425 $561 forward $281 $-1 #
coedge $-1 $428 $283 $284 $416 reversed $177 $-1 #
coedge $-1 $422 $560 $283 $414 reversed $281 $-1 #
edge $-1 $429 -10.171381043827482 $562 10.171381043827482 $413 $563 forward 7 unknown #
coedge $-1 $285 $284 $560 $564 forward $113 $-1 #
edge $-1 $420 -41.975157933286539 $562 41.975157933286539 $412 $565 forward 7 unknown #
coedge $-1 $425 $424 $285 $418 reversed $409 $-1 #
edge $-1 $566 -41.975157933286539 $419 41.975157933286539 $417 $567 forward 7 unknown #
vertex $-1 $287 $568 #
vertex $-1 $431 $569 #
straight-curve $-1 41.975157933286539 0 -10.171381043827482 0 -1 0 I I #
coedge $-1 $411 $413 $288 $423 reversed $281 $-1 #
edge $-1 $426 -26.260126118888333 $429 26.260126118888333 $422 $570 forward 7 unknown #
coedge $-1 $417 $289 $294 $432 forward $409 $-1 #
coedge $-1 $289 $417 $411 $561 reversed $409 $-1 #
vertex $-1 $290 $571 #
straight-curve $-1 0 26.260126118888333 10.171381043827482 -1 0 0 I I #
coedge $-1 $291 $412 $293 $431 reversed $177 $-1 #
vertex $-1 $423 $572 #
straight-curve $-1 0 -26.260126118888333 10.171381043827482 1 0 0 I I #
edge $-1 $296 -10.171381043827482 $420 10.171381043827482 $293 $573 forward 7 unknown #
edge $-1 $297 -10.171381043827482 $419 10.171381043827482 $294 $574 forward 7 unknown #
point $-1 41.975157933286539 -26.260126118888333 10.171381043827482 #
point $-1 41.975157933286539 26.260126118888333 10.171381043827482 #
face $-1 $-1 $448 $43 $-1 $575 reversed single #
plane-surface $-1 -38.975157933286539 -31.681506050525758 0 -1 0 0 0 0 1 forward_v I I I I #
coedge $-1 $576 $577 $578 $579 forward $300 $-1 #
coedge $-1 $578 $302 $447 $580 reversed $185 $-1 #
coedge $-1 $302 $578 $303 $442 reversed $185 $-1 #
edge $-1 $444 -10.171381043827482 $449 10.171381043827482 $302 $581 forward 7 unknown #
coedge $-1 $304 $303 $577 $582 forward $117 $-1 #
edge $-1 $444 26.260126118888333 $583 37.10288598216318 $439 $584 forward 7 unknown #
edge $-1 $585 -5.4213799316374214 $312 5.4213799316374249 $309 $586 forward 7 unknown #
vertex $-1 $442 $587 #
straight-curve $-1 0 -26.260126118888333 10.171381043827482 -1 0 0 I I #
coedge $-1 $588 $307 $310 $452 forward $448 $-1 #
coedge $-1 $307 $588 $438 $580 forward $448 $-1 #
loop $-1 $-1 $307 $435 #
vertex $-1 $440 $589 #
straight-curve $-1 0 -26.260126118888333 -10.171381043827482 1 0 0 I I #
coedge $-1 $310 $309 $590 $591 forward $311 $-1 #
edge $-1 $313 -5.4213799316374249 $592 5.4213799316374214 $310 $593 forward 7 unknown #
point $-1 -38.975157933286539 -26.260126118888333 10.171381043827482 #
point $-1 -38.975157933286539 -26.260126118888333 -10.171381043827482 #
plane-surface $-1 0 0 10.171381043827482 0 0 1 1 0 0 forward_v I I I I #
coedge $-1 $466 $465 $458 $594 forward $316 $-1 #
coedge $-1 $458 $318 $320 $462 reversed $193 $-1 #
coedge $-1 $318 $457 $456 $594 reversed $193 $-1 #
coedge $-1 $326 $321 $318 $460 forward $327 $-1 #
edge $-1 $463 -3.2902597454244784 $595 4.5582764930915864 $459 $596 forward 7 unknown #
coedge $-1 $320 $319 $466 $597 reversed $121 $-1 #
edge $-1 $598 -52.520252237776674 $463 -41.959004892750094 $457 $599 forward 7 unknown #
vertex $-1 $322 $600 #
straight-curve $-1 -15.522501325547369 18.411589880372265 10.171381043827481 1 0 0 I I #
coedge $-1 $456 $323 $326 $470 reversed $316 $-1 #
coedge $-1 $323 $456 $461 $597 forward $316 $-1 #
vertex $-1 $324 $601 #
straight-curve $-1 -38.033539146567257 26.260126118888333 50.317338996361734 0 0 1 I I #
straight-curve $-1 -38.033539146567257 -12.770027183818684 38.247435767594887 0 0.74314481823134659 -0.66913061440640931 I I #
edge $-1 $595 24.056466155622218 $328 38.033539146567257 $465 $602 forward 7 unknown #
point $-1 -38.033539146567257 26.260126118888333 10.171381043827482 #
point $-1 -38.033539146567257 18.411589880372269 10.171381043827481 #
edge $-1 $603 1 $603 0 $331 $-1 forward 7 unknown #
vertex $-1 $332 $604 #
ellipse-curve $-1 -34.040089720582962 20.366244764054485 4.4504770202234667 0 0.66913061440640931 0.74314481823134659 1 0 0 1 I I #
point $-1 -33.040089720582962 22.335857999630296 6.6379540813896272 #
edge $-1 $605 1 $605 0 $335 $-1 forward 7 unknown #
vertex $-1 $336 $606 #
ellipse-curve $-1 -28.049915581606516 20.366244764054485 4.4504770202234667 0 0.66913061440640931 0.74314481823134659 1 0 0 1 I I #
point $-1 -27.049915581606516 22.335857999630296 6.6379540813896272 #
loop $-1 $-1 $347 $339 #
plane-surface $-1 0 26.260126118888333 0 0 -1 0 0 0 -1 forward_v I I I I #
coedge $-1 $484 $342 $344 $488 reversed $215 $-1 #
coedge $-1 $342 $483 $607 $608 reversed $215 $-1 #
coedge $-1 $350 $345 $342 $486 forward $340 $-1 #
edge $-1 $489 -3.2902597454244784 $609 4.5582764930915864 $485 $610 forward 7 unknown #
coedge $-1 $344 $343 $492 $611 reversed $135 $-1 #
edge $-1 $612 -52.520252237776674 $489 -41.959004892750094 $483 $613 forward 7 unknown #
vertex $-1 $346 $614 #
straight-curve $-1 -5.028711842225734 18.411589880372265 10.171381043827481 1 0 0 I I #
coedge $-1 $607 $347 $350 $496 reversed $481 $-1 #
coedge $-1 $347 $607 $487 $611 forward $481 $-1 #
vertex $-1 $348 $615 #
straight-curve $-1 -17.045960179923988 26.260126118888333 50.317338996361734 0 0 1 I I #
straight-curve $-1 -17.045960179923988 -12.770027183818684 38.247435767594887 0 0.74314481823134659 -0.66913061440640931 I I #
edge $-1 $609 3.0688871889789482 $351 17.045960179923988 $491 $616 forward 7 unknown #
point $-1 -17.045960179923988 26.260126118888333 10.171381043827482 #
point $-1 -17.045960179923988 18.411589880372269 10.171381043827481 #
edge $-1 $617 1 $617 0 $354 $-1 forward 7 unknown #
vertex $-1 $355 $618 #
ellipse-curve $-1 -13.052510753939693 20.366244764054485 4.4504770202234667 0 0.66913061440640931 0.74314481823134659 1 0 0 1 I I #
point $-1 -12.052510753939693 22.335857999630296 6.6379540813896272 #
edge $-1 $619 1 $619 0 $358 $-1 forward 7 unknown #
vertex $-1 $359 $620 #
ellipse-curve $-1 -7.0623366149632432 20.366244764054485 4.4504770202234667 0 0.66913061440640931 0.74314481823134659 1 0 0 1 I I #
point $-1 -6.0623366149632432 22.335857999630296 6.6379540813896272 #
loop $-1 $-1 $370 $362 #
plane-surface $-1 0 26.260126118888333 0 0 -1 0 0 0 -1 forward_v I I I I #
coedge $-1 $510 $365 $367 $514 reversed $237 $-1 #
coedge $-1 $365 $509 $621 $622 reversed $237 $-1 #
coedge $-1 $373 $368 $365 $512 forward $363 $-1 #
edge $-1 $515 -3.2902597454244784 $623 4.5582764930915864 $511 $624 forward 7 unknown #
coedge $-1 $367 $366 $518 $625 reversed $149 $-1 #
edge $-1 $626 -52.520252237776674 $515 -41.959004892750094 $509 $627 forward 7 unknown #
vertex $-1 $369 $628 #
straight-curve $-1 5.4650776410959025 18.411589880372265 10.171381043827481 1 0 0 I I #
coedge $-1 $621 $370 $373 $522 reversed $507 $-1 #
coedge $-1 $370 $621 $513 $625 forward $507 $-1 #
vertex $-1 $371 $629 #
straight-curve $-1 3.9416187867192853 26.260126118888333 50.317338996361734 0 0 1 I I #
straight-curve $-1 3.9416187867192853 -12.770027183818684 38.247435767594887 0 0.74314481823134659 -0.66913061440640931 I I #
edge $-1 $623 -17.918691777664325 $374 -3.9416187867192853 $517 $630 forward 7 unknown #
point $-1 3.9416187867192853 26.260126118888333 10.171381043827482 #
point $-1 3.9416187867192853 18.411589880372269 10.171381043827481 #
edge $-1 $631 1 $631 0 $377 $-1 forward 7 unknown #
vertex $-1 $378 $632 #
ellipse-curve $-1 7.9350682127035768 20.366244764054485 4.4504770202234667 0 0.66913061440640931 0.74314481823134659 1 0 0 1 I I #
point $-1 8.9350682127035768 22.335857999630296 6.6379540813896272 #
edge $-1 $633 1 $633 0 $381 $-1 forward 7 unknown #
vertex $-1 $382 $634 #
ellipse-curve $-1 13.925242351680026 20.366244764054485 4.4504770202234667 0 0.66913061440640931 0.74314481823134659 1 0 0 1 I I #
point $-1 14.925242351680026 22.335857999630296 6.6379540813896272 #
loop $-1 $-1 $393 $385 #
plane-surface $-1 0 26.260126118888333 0 0 -1 0 0 0 -1 forward_v I I I I #
coedge $-1 $536 $388 $390 $540 reversed $259 $-1 #
coedge $-1 $388 $535 $635 $636 reversed $259 $-1 #
coedge $-1 $396 $391 $388 $538 forward $386 $-1 #
edge $-1 $541 -3.2902597454244784 $637 4.5582764930915864 $537 $638 forward 7 unknown #
coedge $-1 $390 $389 $544 $639 reversed $163 $-1 #
edge $-1 $640 -52.520252237776674 $541 -41.959004892750094 $535 $641 forward 7 unknown #
vertex $-1 $392 $642 #
straight-curve $-1 15.958867124417537 18.411589880372265 10.171381043827481 1 0 0 I I #
coedge $-1 $635 $393 $396 $548 reversed $533 $-1 #
coedge $-1 $393 $635 $539 $639 forward $533 $-1 #
vertex $-1 $394 $643 #
straight-curve $-1 24.929197753362555 26.260126118888333 50.317338996361734 0 0 1 I I #
straight-curve $-1 24.929197753362555 -12.770027183818684 38.247435767594887 0 0.74314481823134659 -0.66913061440640931 I I #
edge $-1 $637 -38.906270744307591 $397 -24.929197753362555 $543 $644 forward 7 unknown #
point $-1 24.929197753362555 26.260126118888333 10.171381043827482 #
point $-1 24.929197753362555 18.411589880372269 10.171381043827481 #
edge $-1 $645 1 $645 0 $400 $-1 forward 7 unknown #
vertex $-1 $401 $646 #
ellipse-curve $-1 28.922647179346853 20.366244764054485 4.4504770202234667 0 0.66913061440640931 0.74314481823134659 1 0 0 1 I I #
point $-1 29.922647179346853 22.335857999630296 6.6379540813896272 #
edge $-1 $647 1 $647 0 $404 $-1 forward 7 unknown #
vertex $-1 $405 $648 #
ellipse-curve $-1 34.912821318323296 20.366244764054485 4.4504770202234667 0 0.66913061440640931 0.74314481823134659 1 0 0 1 I I #
point $-1 35.912821318323296 22.335857999630296 6.6379540813896272 #
plane-surface $-1 41.975157933286539 0 0 -1 0 0 0 0 1 forward_v I I I I #
coedge $-1 $413 $411 $415 $564 reversed $281 $-1 #
edge $-1 $426 -10.171381043827482 $566 10.171381043827482 $425 $649 forward 7 unknown #
vertex $-1 $564 $650 #
straight-curve $-1 -41.975157933286539 -26.260126118888333 0 0 0 -1 I I #
edge $-1 $562 -26.260126118888333 $566 26.260126118888333 $560 $651 forward 7 unknown #
straight-curve $-1 0 -26.260126118888333 -10.171381043827482 -1 0 0 I I #
vertex $-1 $418 $652 #
straight-curve $-1 0 26.260126118888333 -10.171381043827482 1 0 0 I I #
point $-1 41.975157933286539 26.260126118888333 -10.171381043827482 #
point $-1 41.975157933286539 -26.260126118888333 -10.171381043827482 #
straight-curve $-1 -41.975157933286539 0 10.171381043827482 0 -1 0 I I #
point $-1 -41.975157933286539 26.260126118888333 10.171381043827482 #
point $-1 -41.975157933286539 -26.260126118888333 10.171381043827482 #
straight-curve $-1 41.975157933286539 -26.260126118888333 0 0 0 -1 I I #
straight-curve $-1 41.975157933286539 26.260126118888333 0 0 0 -1 I I #
plane-surface $-1 0 0 -10.171381043827482 0 0 1 1 0 0 forward_v I I I I #
coedge $-1 $590 $437 $588 $653 reversed $300 $-1 #
coedge $-1 $437 $590 $441 $582 reversed $300 $-1 #
coedge $-1 $439 $438 $437 $579 reversed $185 $-1 #
edge $-1 $583 -10.171381043827482 $654 10.171381043827482 $578 $655 forward 7 unknown #
edge $-1 $654 -37.10288598216318 $449 -26.260126118888333 $438 $656 forward 7 unknown #
straight-curve $-1 -41.975157933286539 -26.260126118888333 0 0 0 -1 I I #
edge $-1 $583 -1.5 $585 1.5 $577 $657 forward 7 unknown #
vertex $-1 $442 $658 #
straight-curve $-1 -41.975157933286539 0 10.171381043827482 0 -1 0 I I #
vertex $-1 $443 $659 #
straight-curve $-1 -38.975157933286539 -31.681506050525758 10.171381043827482 0 1 0 I I #
point $-1 -41.975157933286539 -26.260126118888333 10.171381043827482 #
coedge $-1 $447 $446 $576 $653 forward $448 $-1 #
point $-1 -41.975157933286539 -26.260126118888333 -10.171381043827482 #
coedge $-1 $577 $576 $451 $591 reversed $300 $-1 #
edge $-1 $585 -10.171381043827482 $592 10.171381043827482 $451 $660 forward 7 unknown #
vertex $-1 $591 $661 #
straight-curve $-1 -38.975157933286539 -31.681506050525758 -10.171381043827482 0 -1 0 I I #
edge $-1 $595 40.145957952534253 $598 47.212811877409948 $456 $662 forward 7 unknown #
vertex $-1 $470 $663 #
straight-curve $-1 -24.056466155622218 21.701849625796747 10.171381043827481 0 1 0 I I #
edge $-1 $598 8.533964830074849 $467 22.51103782101989 $466 $664 forward 7 unknown #
vertex $-1 $597 $665 #
straight-curve $-1 -24.056466155622218 -12.770027183818684 38.247435767594887 0 -0.74314481823134659 0.66913061440640931 I I #
point $-1 -24.056466155622218 18.411589880372269 10.171381043827481 #
point $-1 -38.033539146567257 26.260126118888337 3.1045271189517862 #
straight-curve $-1 0 26.260126118888333 10.171381043827482 -1 0 0 I I #
vertex $-1 $473 $666 #
point $-1 -33.040089720582962 20.366244764054485 4.4504770202234667 #
vertex $-1 $477 $667 #
point $-1 -27.049915581606516 20.366244764054485 4.4504770202234667 #
coedge $-1 $492 $491 $484 $608 forward $481 $-1 #
edge $-1 $609 40.145957952534253 $612 47.212811877409948 $607 $668 forward 7 unknown #
vertex $-1 $496 $669 #
straight-curve $-1 -3.0688871889789482 21.701849625796747 10.171381043827481 0 1 0 I I #
edge $-1 $612 -1.9598246532467858 $493 12.017248337698254 $492 $670 forward 7 unknown #
vertex $-1 $611 $671 #
straight-curve $-1 -3.0688871889789482 -12.770027183818684 38.247435767594887 0 -0.74314481823134659 0.66913061440640931 I I #
point $-1 -3.0688871889789482 18.411589880372269 10.171381043827481 #
point $-1 -17.045960179923988 26.260126118888337 3.1045271189517862 #
straight-curve $-1 0 26.260126118888333 10.171381043827482 -1 0 0 I I #
vertex $-1 $499 $672 #
point $-1 -12.052510753939693 20.366244764054485 4.4504770202234667 #
vertex $-1 $503 $673 #
point $-1 -6.0623366149632432 20.366244764054485 4.4504770202234667 #
coedge $-1 $518 $517 $510 $622 forward $507 $-1 #
edge $-1 $623 40.145957952534253 $626 47.212811877409948 $621 $674 forward 7 unknown #
vertex $-1 $522 $675 #
straight-curve $-1 17.918691777664325 21.701849625796747 10.171381043827481 0 1 0 I I #
edge $-1 $626 -12.453614136568422 $519 1.5234588543766172 $518 $676 forward 7 unknown #
vertex $-1 $625 $677 #
straight-curve $-1 17.918691777664325 -12.770027183818684 38.247435767594887 0 -0.74314481823134659 0.66913061440640931 I I #
point $-1 17.918691777664325 18.411589880372269 10.171381043827481 #
point $-1 3.9416187867192853 26.260126118888337 3.1045271189517862 #
straight-curve $-1 0 26.260126118888333 10.171381043827482 -1 0 0 I I #
vertex $-1 $525 $678 #
point $-1 8.9350682127035768 20.366244764054485 4.4504770202234667 #
vertex $-1 $529 $679 #
point $-1 14.925242351680026 20.366244764054485 4.4504770202234667 #
coedge $-1 $544 $543 $536 $636 forward $533 $-1 #
edge $-1 $637 40.145957952534253 $640 47.212811877409948 $635 $680 forward 7 unknown #
vertex $-1 $548 $681 #
straight-curve $-1 38.906270744307591 21.701849625796747 10.171381043827481 0 1 0 I I #
edge $-1 $640 -22.947403619890054 $545 -8.9703306289450175 $544 $682 forward 7 unknown #
vertex $-1 $639 $683 #
straight-curve $-1 38.906270744307591 -12.770027183818684 38.247435767594887 0 -0.74314481823134659 0.66913061440640931 I I #
point $-1 38.906270744307591 18.411589880372269 10.171381043827481 #
point $-1 24.929197753362555 26.260126118888337 3.1045271189517862 #
straight-curve $-1 0 26.260126118888333 10.171381043827482 -1 0 0 I I #
vertex $-1 $551 $684 #
point $-1 29.922647179346853 20.366244764054485 4.4504770202234667 #
vertex $-1 $555 $685 #
point $-1 35.912821318323296 20.366244764054485 4.4504770202234667 #
straight-curve $-1 -41.975157933286539 26.260126118888333 0 0 0 -1 I I #
point $-1 -41.975157933286539 -26.260126118888333 -10.171381043827482 #
straight-curve $-1 -41.975157933286539 0 -10.171381043827482 0 1 0 I I #
point $-1 -41.975157933286539 26.260126118888333 -10.171381043827482 #
edge $-1 $592 -1.5 $654 1.5 $576 $686 forward 7 unknown #
vertex $-1 $580 $687 #
straight-curve $-1 -41.975157933286539 -37.10288598216318 0 0 0 -1 I I #
straight-curve $-1 -41.975157933286539 0 -10.171381043827482 0 1 0 I I #
straight-curve $-1 -40.475157933286539 -37.10288598216318 10.171381043827482 1 0 0 I I #
point $-1 -41.975157933286539 -37.10288598216318 10.171381043827482 #
point $-1 -38.975157933286539 -37.10288598216318 10.171381043827482 #
straight-curve $-1 -38.975157933286539 -37.10288598216318 0 0 0 -1 I I #
point $-1 -38.975157933286539 -37.10288598216318 -10.171381043827482 #
straight-curve $-1 -24.056466155622218 26.260126118888333 50.317338996361734 0 0 -1 I I #
point $-1 -24.056466155622218 26.260126118888333 10.171381043827482 #
straight-curve $-1 -15.522501325547369 26.260126118888333 3.1045271189517933 -1 0 0 I I #
point $-1 -24.056466155622218 26.260126118888337 3.1045271189517862 #
point $-1 -34.040089720582962 19.69711414964808 3.70733220199212 #
point $-1 -28.049915581606516 19.69711414964808 3.70733220199212 #
straight-curve $-1 -3.0688871889789482 26.260126118888333 50.317338996361734 0 0 -1 I I #
point $-1 -3.0688871889789482 26.260126118888333 10.171381043827482 #
straight-curve $-1 -5.028711842225734 26.260126118888333 3.1045271189517933 -1 0 0 I I #
point $-1 -3.0688871889789482 26.260126118888337 3.1045271189517862 #
point $-1 -13.052510753939693 19.69711414964808 3.70733220199212 #
point $-1 -7.0623366149632432 19.69711414964808 3.70733220199212 #
straight-curve $-1 17.918691777664325 26.260126118888333 50.317338996361734 0 0 -1 I I #
point $-1 17.918691777664325 26.260126118888333 10.171381043827482 #
straight-curve $-1 5.4650776410959025 26.260126118888333 3.1045271189517933 -1 0 0 I I #
point $-1 17.918691777664325 26.260126118888337 3.1045271189517862 #
point $-1 7.9350682127035768 19.69711414964808 3.70733220199212 #
point $-1 13.925242351680026 19.69711414964808 3.70733220199212 #
straight-curve $-1 38.906270744307591 26.260126118888333 50.317338996361734 0 0 -1 I I #
point $-1 38.906270744307591 26.260126118888333 10.171381043827482 #
straight-curve $-1 15.958867124417537 26.260126118888333 3.1045271189517933 -1 0 0 I I #
point $-1 38.906270744307591 26.260126118888337 3.1045271189517862 #
point $-1 28.922647179346853 19.69711414964808 3.70733220199212 #
point $-1 34.912821318323296 19.69711414964808 3.70733220199212 #
straight-curve $-1 -40.475157933286539 -37.10288598216318 -10.171381043827482 -1 0 0 I I #
point $-1 -41.975157933286539 -37.10288598216318 -10.171381043827482 #
End-of-ACIS-data 