500 0 13 0           
7 Unknown 11 ACIS 5.0 NT 24 Fri Mar 26 18:52:39 1999 
-1 9.9999999999999995e-007 1e-010 
body $-1 $13 $-1 $14 #
body $-1 $15 $-1 $16 #
body $-1 $17 $-1 $18 #
body $-1 $19 $-1 $20 #
body $-1 $21 $-1 $22 #
body $-1 $23 $-1 $24 #
body $-1 $25 $-1 $26 #
body $-1 $27 $-1 $28 #
body $-1 $29 $-1 $30 #
body $-1 $31 $-1 $32 #
body $-1 $33 $-1 $34 #
body $-1 $35 $-1 $36 #
body $-1 $37 $-1 $38 #
lump $-1 $-1 $39 $0 #
transform $-1 1 0 0 0 1 0 0 0 1 48.364513077181314 20.826984126497745 4.3499775373065974 1 rotate no_reflect no_shear #
lump $-1 $-1 $40 $1 #
transform $-1 1 0 0 0 1 0 0 0 1 48.364513077181314 20.826984126497745 4.3499775373065974 1 rotate no_reflect no_shear #
lump $-1 $-1 $41 $2 #
transform $-1 1 0 0 0 1 0 0 0 1 48.364513077181314 20.826984126497745 4.3499775373065974 1 rotate no_reflect no_shear #
lump $-1 $-1 $42 $3 #
transform $-1 1 0 0 0 1 0 0 0 1 48.364513077181314 20.826984126497745 4.3499775373065974 1 rotate no_reflect no_shear #
lump $-1 $-1 $43 $4 #
transform $-1 1 0 0 0 1 0 0 0 1 48.364513077181314 20.826984126497745 4.3499775373065974 1 rotate no_reflect no_shear #
lump $-1 $-1 $44 $5 #
transform $-1 1 0 0 0 1 0 0 0 1 48.364513077181314 20.826984126497745 4.3499775373065974 1 rotate no_reflect no_shear #
lump $-1 $-1 $45 $6 #
transform $-1 1 0 0 0 1 0 0 0 1 48.364513077181314 20.826984126497745 4.3499775373065974 1 rotate no_reflect no_shear #
lump $-1 $-1 $46 $7 #
transform $-1 1 0 0 0 1 0 0 0 1 48.364513077181314 20.826984126497745 4.3499775373065974 1 rotate no_reflect no_shear #
lump $-1 $-1 $47 $8 #
transform $-1 1 0 0 0 1 0 0 0 1 48.364513077181314 20.826984126497745 4.3499775373065974 1 rotate no_reflect no_shear #
lump $-1 $-1 $48 $9 #
transform $-1 1 0 0 0 1 0 0 0 1 48.364513077181314 20.826984126497745 4.3499775373065974 1 rotate no_reflect no_shear #
lump $-1 $-1 $49 $10 #
transform $-1 1 0 0 0 1 0 0 0 1 48.364513077181314 20.826984126497745 4.3499775373065974 1 rotate no_reflect no_shear #
lump $-1 $-1 $50 $11 #
transform $-1 1 0 0 0 1 0 0 0 1 48.364513077181314 20.826984126497745 4.3499775373065974 1 rotate no_reflect no_shear #
lump $-1 $-1 $51 $12 #
transform $-1 1 0 0 0 1 0 0 0 1 48.364513077181314 20.826984126497745 4.3499775373065974 1 rotate no_reflect no_shear #
shell $-1 $-1 $-1 $52 $-1 $13 #
shell $-1 $-1 $-1 $53 $-1 $15 #
shell $-1 $-1 $-1 $54 $-1 $17 #
shell $-1 $-1 $-1 $55 $-1 $19 #
shell $-1 $-1 $-1 $56 $-1 $21 #
shell $-1 $-1 $-1 $57 $-1 $23 #
shell $-1 $-1 $-1 $58 $-1 $25 #
shell $-1 $-1 $-1 $59 $-1 $27 #
shell $-1 $-1 $-1 $60 $-1 $29 #
shell $-1 $-1 $-1 $61 $-1 $31 #
shell $-1 $-1 $-1 $62 $-1 $33 #
shell $-1 $-1 $-1 $63 $-1 $35 #
shell $-1 $-1 $-1 $64 $-1 $37 #
face $-1 $65 $66 $39 $-1 $67 forward single #
face $-1 $68 $69 $40 $-1 $70 forward single #
face $-1 $71 $72 $41 $-1 $73 reversed single #
face $-1 $74 $75 $42 $-1 $76 forward single #
face $-1 $77 $78 $43 $-1 $79 forward single #
face $-1 $80 $81 $44 $-1 $82 reversed single #
face $-1 $83 $84 $45 $-1 $85 forward single #
face $-1 $86 $87 $46 $-1 $88 forward single #
face $-1 $89 $90 $47 $-1 $91 forward single #
face $-1 $92 $93 $48 $-1 $94 reversed single #
face $-1 $95 $96 $49 $-1 $97 forward single #
face $-1 $98 $99 $50 $-1 $100 forward single #
face $-1 $101 $102 $51 $-1 $103 forward single #
face $-1 $104 $105 $39 $-1 $106 reversed single #
loop $-1 $-1 $107 $52 #
plane-surface $-1 0 0 4.3499775373065974 0 0 1 1 0 0 forward_v I I I I #
face $-1 $108 $109 $40 $-1 $110 reversed single #
loop $-1 $-1 $111 $53 #
plane-surface $-1 0 -18.937673133108611 -1.3499775373065974 0 0 1 1 0 0 forward_v I I I I #
face $-1 $112 $113 $41 $-1 $114 reversed single #
loop $-1 $-1 $115 $54 #
plane-surface $-1 -115.55814155103378 10.139472290592781 70.348457001822766 0 1 0 -0.69465837861970381 0 0.71933979245794832 forward_v I I I I #
face $-1 $116 $117 $42 $-1 $118 forward single #
loop $-1 $119 $120 $55 #
cone-surface $-1 -45.308178240921087 13.193047100851341 1.3146008809985499 0.69465837861970381 0 -0.71933979245794832 0.71933979245794832 0 0.69465837861970381 1 I I 0 1 1 forward I I I I #
face $-1 $121 $122 $43 $-1 $123 forward single #
loop $-1 $124 $125 $56 #
cone-surface $-1 -45.308178240921087 17.773409316239185 1.3146008809985499 0.69465837861970381 0 -0.71933979245794832 0.71933979245794832 0 0.69465837861970381 1 I I 0 1 1 forward I I I I #
face $-1 $126 $127 $44 $-1 $128 reversed single #
loop $-1 $-1 $129 $57 #
plane-surface $-1 72.118804390696013 -6.8969652275683355 135.12316481881041 0 -1 0 -0.81915205242281985 0 -0.57357642473473569 forward_v I I I I #
face $-1 $130 $131 $45 $-1 $132 forward single #
loop $-1 $133 $134 $58 #
cone-surface $-1 46.171404145822194 -11.974412869208569 1.8091782748759642 -0.81915205242281985 0 -0.57357642473473569 0.28678821236736785 0 -0.40957602621140993 1 I I 0 1 0.5 forward I I I I #
face $-1 $135 $136 $46 $-1 $137 forward single #
loop $-1 $138 $139 $59 #
cone-surface $-1 46.171404145822194 -10.070370003593482 1.8091782748759642 -0.81915205242281985 0 -0.57357642473473569 0.28678821236736785 0 -0.40957602621140993 1 I I 0 1 0.5 forward I I I I #
face $-1 $140 $141 $47 $-1 $142 forward single #
loop $-1 $143 $144 $60 #
cone-surface $-1 46.171404145822194 -8.1663271379783939 1.8091782748759642 -0.81915205242281985 0 -0.57357642473473569 0.28678821236736785 0 -0.40957602621140993 1 I I 0 1 0.5 forward I I I I #
face $-1 $145 $146 $48 $-1 $147 reversed single #
loop $-1 $-1 $148 $61 #
plane-surface $-1 72.118804390696013 12.040707905540275 135.12316481881041 0 -1 0 -0.81915205242281985 0 -0.57357642473473569 forward_v I I I I #
face $-1 $149 $150 $49 $-1 $151 forward single #
loop $-1 $152 $153 $62 #
cone-surface $-1 46.171404145822194 6.9632602639000432 1.8091782748759642 -0.81915205242281985 0 -0.57357642473473569 0.28678821236736785 0 -0.40957602621140993 1 I I 0 1 0.5 forward I I I I #
face $-1 $154 $155 $50 $-1 $156 forward single #
loop $-1 $157 $158 $63 #
cone-surface $-1 46.171404145822194 8.867303129515129 1.8091782748759642 -0.81915205242281985 0 -0.57357642473473569 0.28678821236736785 0 -0.40957602621140993 1 I I 0 1 0.5 forward I I I I #
face $-1 $159 $160 $51 $-1 $161 forward single #
loop $-1 $162 $163 $64 #
cone-surface $-1 46.171404145822194 10.771345995130215 1.8091782748759642 -0.81915205242281985 0 -0.57357642473473569 0.28678821236736785 0 -0.40957602621140993 1 I I 0 1 0.5 forward I I I I #
face $-1 $164 $165 $39 $-1 $166 reversed single #
loop $-1 $-1 $167 $65 #
plane-surface $-1 0 0 -4.3499775373065974 0 0 1 1 0 0 forward_v I I I I #
coedge $-1 $168 $169 $170 $171 forward $66 $-1 #
face $-1 $172 $173 $40 $-1 $174 reversed single #
loop $-1 $-1 $175 $68 #
plane-surface $-1 0 -17.048362139719472 -2.8499775373065974 0 -1 0 0 0 -1 forward_v I I I I #
coedge $-1 $176 $177 $178 $179 reversed $69 $-1 #
face $-1 $180 $181 $41 $-1 $182 reversed single #
loop $-1 $-1 $183 $71 #
plane-surface $-1 -48.364513077181314 15.483228208545267 0.76741940328409441 -0.69465837861970381 0 0.71933979245794832 0.71933979245794832 0 0.69465837861970381 forward_v I I I I #
coedge $-1 $184 $185 $186 $187 reversed $72 $-1 #
face $-1 $-1 $188 $42 $-1 $189 forward single #
loop $-1 $190 $191 $74 #
cone-surface $-1 -43.759437947586825 13.193047100851341 -0.28916660452722187 0.69465837861970381 0 -0.71933979245794832 0.35966989622897416 0 0.3473291893098519 1 I I -0.70710678118654746 0.70710678118654746 0.5 forward I I I I #
loop $-1 $-1 $192 $55 #
coedge $-1 $120 $120 $193 $194 reversed $75 $-1 #
face $-1 $-1 $195 $43 $-1 $196 forward single #
loop $-1 $197 $198 $77 #
cone-surface $-1 -43.759437947586825 17.773409316239185 -0.28916660452722187 0.69465837861970381 0 -0.71933979245794832 0.35966989622897416 0 0.3473291893098519 1 I I -0.70710678118654746 0.70710678118654746 0.5 forward I I I I #
loop $-1 $-1 $199 $56 #
coedge $-1 $125 $125 $200 $201 reversed $78 $-1 #
face $-1 $202 $203 $44 $-1 $204 reversed single #
loop $-1 $-1 $205 $80 #
plane-surface $-1 -7.1169759125107532 -10.070370003593482 79.641675829118356 0.81915205242281985 0 0.57357642473473569 0.57357642473473569 0 -0.81915205242281985 forward_v I I I I #
coedge $-1 $206 $207 $208 $209 reversed $81 $-1 #
face $-1 $-1 $210 $45 $-1 $211 forward single #
loop $-1 $212 $213 $83 #
cone-surface $-1 45.154345137528978 -11.974412869208569 1.0970259119591388 -0.81915205242281985 0 -0.57357642473473569 0.14339410618368392 0 -0.20478801310570496 1 I I -0.70710678118654746 0.70710678118654746 0.25 forward I I I I #
loop $-1 $-1 $214 $58 #
coedge $-1 $134 $134 $215 $216 reversed $84 $-1 #
face $-1 $-1 $217 $46 $-1 $218 forward single #
loop $-1 $219 $220 $86 #
cone-surface $-1 45.154345137528978 -10.070370003593482 1.0970259119591388 -0.81915205242281985 0 -0.57357642473473569 0.14339410618368392 0 -0.20478801310570496 1 I I -0.70710678118654746 0.70710678118654746 0.25 forward I I I I #
loop $-1 $-1 $221 $59 #
coedge $-1 $139 $139 $222 $223 reversed $87 $-1 #
face $-1 $-1 $224 $47 $-1 $225 forward single #
loop $-1 $226 $227 $89 #
cone-surface $-1 45.154345137528978 -8.1663271379783939 1.0970259119591388 -0.81915205242281985 0 -0.57357642473473569 0.14339410618368392 0 -0.20478801310570496 1 I I -0.70710678118654746 0.70710678118654746 0.25 forward I I I I #
loop $-1 $-1 $228 $60 #
coedge $-1 $144 $144 $229 $230 reversed $90 $-1 #
face $-1 $231 $232 $48 $-1 $233 reversed single #
loop $-1 $-1 $234 $92 #
plane-surface $-1 -7.1169759125107532 8.867303129515129 79.641675829118356 0.81915205242281985 0 0.57357642473473569 0.57357642473473569 0 -0.81915205242281985 forward_v I I I I #
coedge $-1 $235 $236 $237 $238 reversed $93 $-1 #
face $-1 $-1 $239 $49 $-1 $240 forward single #
loop $-1 $241 $242 $95 #
cone-surface $-1 45.154345137528978 6.9632602639000432 1.0970259119591388 -0.81915205242281985 0 -0.57357642473473569 0.14339410618368392 0 -0.20478801310570496 1 I I -0.70710678118654746 0.70710678118654746 0.25 forward I I I I #
loop $-1 $-1 $243 $62 #
coedge $-1 $153 $153 $244 $245 reversed $96 $-1 #
face $-1 $-1 $246 $50 $-1 $247 forward single #
loop $-1 $248 $249 $98 #
cone-surface $-1 45.154345137528978 8.867303129515129 1.0970259119591388 -0.81915205242281985 0 -0.57357642473473569 0.14339410618368392 0 -0.20478801310570496 1 I I -0.70710678118654746 0.70710678118654746 0.25 forward I I I I #
loop $-1 $-1 $250 $63 #
coedge $-1 $158 $158 $251 $252 reversed $99 $-1 #
face $-1 $-1 $253 $51 $-1 $254 forward single #
loop $-1 $255 $256 $101 #
cone-surface $-1 45.154345137528978 10.771345995130215 1.0970259119591388 -0.81915205242281985 0 -0.57357642473473569 0.14339410618368392 0 -0.20478801310570496 1 I I -0.70710678118654746 0.70710678118654746 0.25 forward I I I I #
loop $-1 $-1 $257 $64 #
coedge $-1 $163 $163 $258 $259 reversed $102 $-1 #
face $-1 $260 $261 $39 $-1 $262 reversed single #
loop $-1 $-1 $263 $104 #
plane-surface $-1 0 -20.826984126497745 0 0 1 0 0 0 1 forward_v I I I I #
coedge $-1 $264 $265 $266 $267 forward $105 $-1 #
coedge $-1 $268 $107 $269 $270 forward $66 $-1 #
coedge $-1 $107 $268 $271 $272 forward $66 $-1 #
coedge $-1 $273 $274 $107 $171 reversed $275 $-1 #
edge $-1 $276 -20.826984126497745 $277 20.826984126497745 $170 $278 forward 7 unknown #
face $-1 $279 $280 $40 $-1 $281 reversed single #
loop $-1 $-1 $282 $108 #
plane-surface $-1 0 0 -4.3499775373065974 0 0 1 1 0 0 forward_v I I I I #
coedge $-1 $283 $284 $285 $286 reversed $109 $-1 #
coedge $-1 $287 $111 $284 $288 forward $69 $-1 #
coedge $-1 $111 $287 $289 $290 reversed $69 $-1 #
coedge $-1 $291 $285 $111 $179 forward $280 $-1 #
edge $-1 $292 7.5795255731651672 $293 11.358147559943443 $178 $294 forward 7 unknown #
face $-1 $295 $296 $41 $-1 $297 reversed single #
loop $-1 $-1 $298 $112 #
plane-surface $-1 0 20.826984126497745 0 0 -1 0 0 0 -1 forward_v I I I I #
coedge $-1 $299 $300 $301 $302 reversed $113 $-1 #
coedge $-1 $185 $115 $303 $304 reversed $72 $-1 #
coedge $-1 $115 $184 $299 $305 reversed $72 $-1 #
coedge $-1 $301 $306 $115 $187 forward $307 $-1 #
edge $-1 $308 9.4145576983355781 $309 13.124405162807207 $186 $310 forward 7 unknown #
loop $-1 $-1 $193 $116 #
plane-surface $-1 -48.364513077181314 15.483228208545267 0.76741940328409441 -0.69465837861970381 0 0.71933979245794832 0.71933979245794832 0 0.69465837861970381 forward_v I I I I #
loop $-1 $-1 $311 $74 #
coedge $-1 $191 $191 $192 $312 reversed $117 $-1 #
coedge $-1 $192 $192 $191 $312 forward $119 $-1 #
coedge $-1 $193 $193 $120 $194 forward $188 $-1 #
edge $-1 $313 0 $313 6.2831853071796004 $193 $314 forward 7 unknown #
loop $-1 $-1 $200 $121 #
plane-surface $-1 -48.364513077181314 15.483228208545267 0.76741940328409441 -0.69465837861970381 0 0.71933979245794832 0.71933979245794832 0 0.69465837861970381 forward_v I I I I #
loop $-1 $-1 $315 $77 #
coedge $-1 $198 $198 $199 $316 reversed $122 $-1 #
coedge $-1 $199 $199 $198 $316 forward $124 $-1 #
coedge $-1 $200 $200 $125 $201 forward $195 $-1 #
edge $-1 $317 0 $317 6.2831853071796004 $200 $318 forward 7 unknown #
face $-1 $319 $320 $44 $-1 $321 forward single #
loop $-1 $-1 $322 $126 #
plane-surface $-1 72.118804390696013 -13.243774779618628 135.12316481881041 0 1 0 0.81915205242281985 0 0.57357642473473569 forward_v I I I I #
coedge $-1 $323 $324 $325 $326 reversed $127 $-1 #
coedge $-1 $207 $129 $327 $328 reversed $81 $-1 #
coedge $-1 $129 $206 $323 $329 reversed $81 $-1 #
coedge $-1 $325 $330 $129 $209 forward $320 $-1 #
edge $-1 $331 -12.305110881833308 $332 -9.5434350094900751 $208 $333 forward 7 unknown #
loop $-1 $-1 $215 $130 #
plane-surface $-1 -7.1169759125107532 -10.070370003593482 79.641675829118356 0.81915205242281985 0 0.57357642473473569 0.57357642473473569 0 -0.81915205242281985 forward_v I I I I #
loop $-1 $-1 $334 $83 #
coedge $-1 $213 $213 $214 $335 reversed $131 $-1 #
coedge $-1 $214 $214 $213 $335 forward $133 $-1 #
coedge $-1 $215 $215 $134 $216 forward $210 $-1 #
edge $-1 $336 0 $336 6.2831853071796004 $215 $337 forward 7 unknown #
loop $-1 $-1 $222 $135 #
plane-surface $-1 -7.1169759125107532 -10.070370003593482 79.641675829118356 0.81915205242281985 0 0.57357642473473569 0.57357642473473569 0 -0.81915205242281985 forward_v I I I I #
loop $-1 $-1 $338 $86 #
coedge $-1 $220 $220 $221 $339 reversed $136 $-1 #
coedge $-1 $221 $221 $220 $339 forward $138 $-1 #
coedge $-1 $222 $222 $139 $223 forward $217 $-1 #
edge $-1 $340 0 $340 6.2831853071796004 $222 $341 forward 7 unknown #
loop $-1 $-1 $229 $140 #
plane-surface $-1 -7.1169759125107532 -10.070370003593482 79.641675829118356 0.81915205242281985 0 0.57357642473473569 0.57357642473473569 0 -0.81915205242281985 forward_v I I I I #
loop $-1 $-1 $342 $89 #
coedge $-1 $227 $227 $228 $343 reversed $141 $-1 #
coedge $-1 $228 $228 $227 $343 forward $143 $-1 #
coedge $-1 $229 $229 $144 $230 forward $224 $-1 #
edge $-1 $344 0 $344 6.2831853071796004 $229 $345 forward 7 unknown #
face $-1 $346 $347 $48 $-1 $348 reversed single #
loop $-1 $-1 $349 $145 #
plane-surface $-1 72.118804390696013 5.693898353489983 135.12316481881041 0 1 0 0.81915205242281985 0 0.57357642473473569 forward_v I I I I #
coedge $-1 $350 $351 $352 $353 reversed $146 $-1 #
coedge $-1 $236 $148 $354 $355 reversed $93 $-1 #
coedge $-1 $148 $235 $350 $356 reversed $93 $-1 #
coedge $-1 $352 $357 $148 $238 forward $358 $-1 #
edge $-1 $359 -12.305110881833308 $360 -9.5434350094900751 $237 $361 forward 7 unknown #
loop $-1 $-1 $244 $149 #
plane-surface $-1 -7.1169759125107532 8.867303129515129 79.641675829118356 0.81915205242281985 0 0.57357642473473569 0.57357642473473569 0 -0.81915205242281985 forward_v I I I I #
loop $-1 $-1 $362 $95 #
coedge $-1 $242 $242 $243 $363 reversed $150 $-1 #
coedge $-1 $243 $243 $242 $363 forward $152 $-1 #
coedge $-1 $244 $244 $153 $245 forward $239 $-1 #
edge $-1 $364 0 $364 6.2831853071796004 $244 $365 forward 7 unknown #
loop $-1 $-1 $251 $154 #
plane-surface $-1 -7.1169759125107532 8.867303129515129 79.641675829118356 0.81915205242281985 0 0.57357642473473569 0.57357642473473569 0 -0.81915205242281985 forward_v I I I I #
loop $-1 $-1 $366 $98 #
coedge $-1 $249 $249 $250 $367 reversed $155 $-1 #
coedge $-1 $250 $250 $249 $367 forward $157 $-1 #
coedge $-1 $251 $251 $158 $252 forward $246 $-1 #
edge $-1 $368 0 $368 6.2831853071796004 $251 $369 forward 7 unknown #
loop $-1 $-1 $258 $159 #
plane-surface $-1 -7.1169759125107532 8.867303129515129 79.641675829118356 0.81915205242281985 0 0.57357642473473569 0.57357642473473569 0 -0.81915205242281985 forward_v I I I I #
loop $-1 $-1 $370 $101 #
coedge $-1 $256 $256 $257 $371 reversed $160 $-1 #
coedge $-1 $257 $257 $256 $371 forward $162 $-1 #
coedge $-1 $258 $258 $163 $259 forward $253 $-1 #
edge $-1 $372 0 $372 6.2831853071796004 $258 $373 forward 7 unknown #
face $-1 $374 $375 $39 $-1 $376 reversed single #
loop $-1 $-1 $377 $164 #
plane-surface $-1 -48.364513077181314 0 0 1 0 0 0 0 -1 forward_v I I I I #
coedge $-1 $378 $271 $379 $380 forward $165 $-1 #
coedge $-1 $381 $167 $378 $382 forward $105 $-1 #
coedge $-1 $167 $381 $383 $384 forward $105 $-1 #
coedge $-1 $274 $273 $167 $267 reversed $275 $-1 #
edge $-1 $385 -20.826984126497745 $386 20.826984126497745 $266 $387 forward 7 unknown #
coedge $-1 $169 $168 $388 $389 forward $66 $-1 #
coedge $-1 $390 $391 $168 $270 reversed $375 $-1 #
edge $-1 $277 -48.364513077181314 $392 48.364513077181314 $269 $393 forward 7 unknown #
coedge $-1 $263 $394 $169 $272 reversed $165 $-1 #
edge $-1 $395 -48.364513077181314 $276 48.364513077181314 $271 $396 forward 7 unknown #
coedge $-1 $266 $170 $394 $397 forward $275 $-1 #
coedge $-1 $170 $266 $390 $398 reversed $275 $-1 #
loop $-1 $-1 $273 $374 #
vertex $-1 $171 $399 #
vertex $-1 $171 $400 #
straight-curve $-1 48.364513077181314 0 4.3499775373065974 0 1 0 I I #
face $-1 $401 $402 $40 $-1 $403 reversed single #
loop $-1 $-1 $285 $172 #
plane-surface $-1 48.364513077181314 0 0 -1 0 0 0 0 1 forward_v I I I I #
coedge $-1 $404 $405 $283 $406 forward $173 $-1 #
coedge $-1 $407 $175 $282 $406 reversed $109 $-1 #
coedge $-1 $175 $407 $176 $288 reversed $109 $-1 #
coedge $-1 $178 $408 $175 $286 forward $280 $-1 #
edge $-1 $409 -2.9249887686532987 $292 0.07501123134670129 $285 $410 forward 7 unknown #
coedge $-1 $177 $176 $411 $412 reversed $69 $-1 #
edge $-1 $292 -48.364513077181314 $413 48.364513077181314 $284 $414 forward 7 unknown #
coedge $-1 $415 $416 $177 $290 forward $402 $-1 #
edge $-1 $293 -48.364513077181314 $417 48.364513077181314 $289 $418 forward 7 unknown #
coedge $-1 $408 $178 $416 $419 forward $280 $-1 #
vertex $-1 $179 $420 #
vertex $-1 $419 $421 #
straight-curve $-1 48.364513077181314 -9.4688365665543053 -1.3499775373065974 0 -1 0 I I #
face $-1 $-1 $307 $41 $-1 $422 forward single #
loop $-1 $-1 $423 $180 #
plane-surface $-1 -48.364513077181314 0 0 1 0 0 0 0 -1 forward_v I I I I #
coedge $-1 $424 $425 $300 $426 forward $181 $-1 #
coedge $-1 $427 $183 $185 $305 forward $113 $-1 #
coedge $-1 $183 $427 $298 $426 reversed $113 $-1 #
coedge $-1 $428 $186 $183 $302 forward $307 $-1 #
edge $-1 $309 2.397858186320148 $429 13.085370022225119 $301 $430 forward 7 unknown #
coedge $-1 $431 $423 $184 $304 forward $296 $-1 #
edge $-1 $432 -34.406809097627288 $308 -30.824250963604786 $303 $433 forward 7 unknown #
edge $-1 $309 -5.1572949298345705 $432 0 $185 $434 forward 7 unknown #
coedge $-1 $186 $428 $431 $435 forward $307 $-1 #
loop $-1 $-1 $301 $295 #
vertex $-1 $304 $436 #
vertex $-1 $187 $437 #
straight-curve $-1 -57.779070775516892 10.139472290592781 4.3499775373066001 1 0 0 I I #
coedge $-1 $311 $311 $-1 $438 reversed $190 $-1 #
edge $-1 $439 0 $439 6.2831853071796004 $191 $440 forward 7 unknown #
vertex $-1 $194 $441 #
ellipse-curve $-1 -46.509589344945496 13.193047100851341 2.5586984702953464 -0.69465837861970381 0 0.71933979245794832 0.71933979245794832 0 0.69465837861970381 1 I I #
coedge $-1 $315 $315 $-1 $442 reversed $197 $-1 #
edge $-1 $443 0 $443 6.2831853071796004 $198 $444 forward 7 unknown #
vertex $-1 $201 $445 #
ellipse-curve $-1 -46.509589344945496 17.773409316239185 2.5586984702953464 -0.69465837861970381 0 0.71933979245794832 0.71933979245794832 0 0.69465837861970381 1 I I #
face $-1 $-1 $446 $44 $-1 $447 reversed single #
loop $-1 $-1 $208 $202 #
plane-surface $-1 0 0 4.3499775373065974 0 0 1 1 0 0 forward_v I I I I #
coedge $-1 $448 $449 $450 $451 reversed $203 $-1 #
coedge $-1 $452 $205 $207 $329 forward $127 $-1 #
coedge $-1 $205 $452 $448 $453 forward $127 $-1 #
coedge $-1 $450 $208 $205 $326 forward $320 $-1 #
edge $-1 $332 1.8617802257715947 $454 8.2085897778218868 $325 $455 forward 7 unknown #
coedge $-1 $456 $457 $206 $328 forward $446 $-1 #
edge $-1 $458 -67.15568688349363 $331 -63.211604872098604 $327 $459 forward 7 unknown #
edge $-1 $332 91.914191106669676 $458 96.729026154362657 $207 $460 forward 7 unknown #
coedge $-1 $208 $450 $456 $461 forward $320 $-1 #
vertex $-1 $328 $462 #
vertex $-1 $209 $463 #
straight-curve $-1 36.059402195348007 -6.8969652275683355 4.3499775373066001 -1 0 0 I I #
coedge $-1 $334 $334 $-1 $464 reversed $212 $-1 #
edge $-1 $465 0 $465 6.2831853071796004 $213 $466 forward 7 unknown #
vertex $-1 $216 $467 #
ellipse-curve $-1 46.983675141009691 -11.974412869208569 2.3779365316090937 0.81915205242281985 0 0.57357642473473569 0.28678821236736785 0 -0.40957602621140993 1 I I #
coedge $-1 $338 $338 $-1 $468 reversed $219 $-1 #
edge $-1 $469 0 $469 6.2831853071796004 $220 $470 forward 7 unknown #
vertex $-1 $223 $471 #
ellipse-curve $-1 46.983675141009691 -10.070370003593482 2.3779365316090937 0.81915205242281985 0 0.57357642473473569 0.28678821236736785 0 -0.40957602621140993 1 I I #
coedge $-1 $342 $342 $-1 $472 reversed $226 $-1 #
edge $-1 $473 0 $473 6.2831853071796004 $227 $474 forward 7 unknown #
vertex $-1 $230 $475 #
ellipse-curve $-1 46.983675141009691 -8.1663271379783939 2.3779365316090937 0.81915205242281985 0 0.57357642473473569 0.28678821236736785 0 -0.40957602621140993 1 I I #
face $-1 $-1 $358 $48 $-1 $476 forward single #
loop $-1 $-1 $477 $231 #
plane-surface $-1 48.364513077181314 0 0 -1 0 0 0 0 1 forward_v I I I I #
coedge $-1 $478 $479 $480 $481 reversed $232 $-1 #
coedge $-1 $482 $234 $236 $356 forward $146 $-1 #
coedge $-1 $234 $482 $478 $483 forward $146 $-1 #
coedge $-1 $480 $237 $234 $353 forward $358 $-1 #
edge $-1 $360 -7.6070563407827105 $484 -1.2602467887324185 $352 $485 forward 7 unknown #
coedge $-1 $486 $487 $235 $355 forward $347 $-1 #
edge $-1 $488 -67.15568688349363 $359 -63.211604872098604 $354 $489 forward 7 unknown #
edge $-1 $360 91.914191106669676 $488 96.729026154362657 $236 $490 forward 7 unknown #
coedge $-1 $237 $480 $486 $491 forward $358 $-1 #
loop $-1 $-1 $480 $346 #
vertex $-1 $355 $492 #
vertex $-1 $238 $493 #
straight-curve $-1 36.059402195348007 12.040707905540275 4.3499775373066001 -1 0 0 I I #
coedge $-1 $362 $362 $-1 $494 reversed $241 $-1 #
edge $-1 $495 0 $495 6.2831853071796004 $242 $496 forward 7 unknown #
vertex $-1 $245 $497 #
ellipse-curve $-1 46.983675141009691 6.9632602639000432 2.3779365316090937 0.81915205242281985 0 0.57357642473473569 0.28678821236736785 0 -0.40957602621140993 1 I I #
coedge $-1 $366 $366 $-1 $498 reversed $248 $-1 #
edge $-1 $499 0 $499 6.2831853071796004 $249 $500 forward 7 unknown #
vertex $-1 $252 $501 #
ellipse-curve $-1 46.983675141009691 8.867303129515129 2.3779365316090937 0.81915205242281985 0 0.57357642473473569 0.28678821236736785 0 -0.40957602621140993 1 I I #
coedge $-1 $370 $370 $-1 $502 reversed $255 $-1 #
edge $-1 $503 0 $503 6.2831853071796004 $256 $504 forward 7 unknown #
vertex $-1 $259 $505 #
ellipse-curve $-1 46.983675141009691 10.771345995130215 2.3779365316090937 0.81915205242281985 0 0.57357642473473569 0.28678821236736785 0 -0.40957602621140993 1 I I #
face $-1 $-1 $275 $39 $-1 $506 reversed single #
loop $-1 $-1 $390 $260 #
plane-surface $-1 0 20.826984126497745 0 0 -1 0 0 0 -1 forward_v I I I I #
coedge $-1 $507 $388 $391 $508 forward $261 $-1 #
coedge $-1 $394 $263 $264 $382 reversed $165 $-1 #
coedge $-1 $388 $507 $263 $380 reversed $261 $-1 #
edge $-1 $395 -4.3499775373065974 $509 4.3499775373065974 $379 $510 forward 7 unknown #
coedge $-1 $265 $264 $507 $511 forward $105 $-1 #
edge $-1 $386 -48.364513077181314 $509 48.364513077181314 $378 $512 forward 7 unknown #
coedge $-1 $391 $390 $265 $384 reversed $375 $-1 #
edge $-1 $513 -48.364513077181314 $385 48.364513077181314 $383 $514 forward 7 unknown #
vertex $-1 $267 $515 #
vertex $-1 $397 $516 #
straight-curve $-1 48.364513077181314 0 -4.3499775373065974 0 -1 0 I I #
coedge $-1 $377 $379 $268 $389 reversed $261 $-1 #
edge $-1 $392 -20.826984126497745 $395 20.826984126497745 $388 $517 forward 7 unknown #
coedge $-1 $383 $269 $274 $398 forward $375 $-1 #
coedge $-1 $269 $383 $377 $508 reversed $375 $-1 #
vertex $-1 $270 $518 #
straight-curve $-1 0 20.826984126497745 4.3499775373065974 -1 0 0 I I #
coedge $-1 $271 $378 $273 $397 reversed $165 $-1 #
vertex $-1 $389 $519 #
straight-curve $-1 0 -20.826984126497745 4.3499775373065974 1 0 0 I I #
edge $-1 $276 -4.3499775373065974 $386 4.3499775373065974 $273 $520 forward 7 unknown #
edge $-1 $277 -4.3499775373065974 $385 4.3499775373065974 $274 $521 forward 7 unknown #
point $-1 48.364513077181314 -20.826984126497745 4.3499775373065974 #
point $-1 48.364513077181314 20.826984126497745 4.3499775373065974 #
face $-1 $-1 $522 $40 $-1 $523 reversed single #
loop $-1 $-1 $289 $279 #
plane-surface $-1 0 -20.826984126497745 0 0 1 0 0 0 1 forward_v I I I I #
coedge $-1 $524 $282 $408 $525 forward $173 $-1 #
coedge $-1 $282 $524 $526 $527 forward $173 $-1 #
edge $-1 $528 -48.364513077181314 $409 48.364513077181314 $282 $529 forward 7 unknown #
coedge $-1 $284 $283 $530 $531 reversed $109 $-1 #
coedge $-1 $285 $291 $404 $525 reversed $280 $-1 #
vertex $-1 $525 $532 #
straight-curve $-1 48.364513077181314 -17.048362139719472 -1.4249887686532987 0 0 1 I I #
coedge $-1 $530 $533 $287 $412 forward $522 $-1 #
edge $-1 $417 -11.358147559943443 $413 -7.5795255731651672 $411 $534 forward 7 unknown #
vertex $-1 $412 $535 #
straight-curve $-1 0 -17.048362139719472 -1.3499775373065974 -1 0 0 I I #
coedge $-1 $536 $289 $533 $537 forward $402 $-1 #
coedge $-1 $289 $536 $291 $419 reversed $402 $-1 #
vertex $-1 $537 $538 #
straight-curve $-1 0 -20.826984126497745 -1.3499775373065974 -1 0 0 I I #
edge $-1 $293 1.3499775373065974 $539 4.3499775373065974 $291 $540 forward 7 unknown #
point $-1 48.364513077181314 -17.048362139719472 -1.3499775373065974 #
point $-1 48.364513077181314 -20.826984126497749 -1.3499775373065974 #
plane-surface $-1 0 0 4.3499775373065974 0 0 1 1 0 0 forward_v I I I I #
coedge $-1 $303 $541 $427 $542 forward $296 $-1 #
coedge $-1 $425 $298 $541 $543 reversed $181 $-1 #
coedge $-1 $298 $424 $428 $544 reversed $181 $-1 #
edge $-1 $429 11.971417310596781 $545 17.128712240431355 $298 $546 forward 7 unknown #
coedge $-1 $300 $299 $423 $542 reversed $113 $-1 #
coedge $-1 $306 $301 $425 $544 forward $307 $-1 #
vertex $-1 $544 $547 #
straight-curve $-1 -44.654665612709685 7.7416141042726334 4.3499775373065983 0 1 0 I I #
coedge $-1 $541 $303 $306 $435 reversed $296 $-1 #
vertex $-1 $304 $548 #
straight-curve $-1 -48.364513077181314 10.139472290592781 35.174228500911383 0 0 1 I I #
straight-curve $-1 -48.364513077181314 10.139472290592781 0.76741940328409441 -0.71933979245794832 0 -0.69465837861970381 I I #
edge $-1 $549 -20.826984126497745 $308 -10.139472290592781 $431 $550 forward 7 unknown #
point $-1 -48.364513077181314 10.139472290592781 4.3499775373065974 #
point $-1 -44.654665612709685 10.139472290592781 4.3499775373065974 #
edge $-1 $551 1 $551 0 $311 $-1 forward 7 unknown #
vertex $-1 $312 $552 #
ellipse-curve $-1 -44.106767136896678 13.193047100851341 0.070503291701752291 -0.69465837861970381 0 0.71933979245794832 0.71933979245794832 0 0.69465837861970381 1 I I #
point $-1 -45.790249552487552 13.193047100851341 3.2533568489150513 #
edge $-1 $553 1 $553 0 $315 $-1 forward 7 unknown #
vertex $-1 $316 $554 #
ellipse-curve $-1 -44.106767136896678 17.773409316239185 0.070503291701752291 -0.69465837861970381 0 0.71933979245794832 0.71933979245794832 0 0.69465837861970381 1 I I #
point $-1 -45.790249552487552 17.773409316239185 3.2533568489150513 #
loop $-1 $-1 $327 $319 #
plane-surface $-1 48.364513077181314 0 0 -1 0 0 0 0 1 forward_v I I I I #
coedge $-1 $449 $322 $324 $453 reversed $203 $-1 #
coedge $-1 $322 $448 $555 $556 reversed $203 $-1 #
coedge $-1 $330 $325 $322 $451 forward $320 $-1 #
edge $-1 $454 9.5434350094900751 $557 12.305110881833308 $450 $558 forward 7 unknown #
coedge $-1 $324 $323 $457 $559 reversed $127 $-1 #
edge $-1 $560 -96.729026154362657 $454 -91.914191106669676 $448 $561 forward 7 unknown #
vertex $-1 $326 $562 #
straight-curve $-1 45.602837204838082 -5.0351850017967408 4.3499775373066001 0 -1 0 I I #
coedge $-1 $555 $327 $330 $461 reversed $446 $-1 #
coedge $-1 $327 $555 $452 $559 forward $446 $-1 #
vertex $-1 $328 $563 #
straight-curve $-1 48.364513077181314 -6.8969652275683355 67.561582409405204 0 0 1 I I #
straight-curve $-1 -7.1169759125107532 -6.8969652275683355 79.641675829118356 0.57357642473473569 0 -0.81915205242281985 I I #
edge $-1 $557 -13.243774779618628 $331 -6.8969652275683355 $456 $564 forward 7 unknown #
point $-1 48.364513077181314 -6.8969652275683355 4.3499775373065974 #
point $-1 45.602837204838082 -6.8969652275683355 4.3499775373066001 #
edge $-1 $565 1 $565 0 $334 $-1 forward 7 unknown #
vertex $-1 $335 $566 #
ellipse-curve $-1 45.359133150634683 -11.974412869208569 1.2404200181428227 0.81915205242281985 0 0.57357642473473569 0.28678821236736785 0 -0.40957602621140993 1 I I #
point $-1 47.270463353377068 -11.974412869208569 1.9683605053976956 #
edge $-1 $567 1 $567 0 $338 $-1 forward 7 unknown #
vertex $-1 $339 $568 #
ellipse-curve $-1 45.359133150634683 -10.070370003593482 1.2404200181428227 0.81915205242281985 0 0.57357642473473569 0.28678821236736785 0 -0.40957602621140993 1 I I #
point $-1 47.270463353377068 -10.070370003593482 1.9683605053976956 #
edge $-1 $569 1 $569 0 $342 $-1 forward 7 unknown #
vertex $-1 $343 $570 #
ellipse-curve $-1 45.359133150634683 -8.1663271379783939 1.2404200181428227 0.81915205242281985 0 0.57357642473473569 0.28678821236736785 0 -0.40957602621140993 1 I I #
point $-1 47.270463353377068 -8.1663271379783939 1.9683605053976956 #
plane-surface $-1 0 0 4.3499775373065974 0 0 1 1 0 0 forward_v I I I I #
coedge $-1 $487 $486 $479 $571 forward $347 $-1 #
coedge $-1 $479 $349 $351 $483 reversed $232 $-1 #
coedge $-1 $349 $478 $477 $571 reversed $232 $-1 #
coedge $-1 $357 $352 $349 $481 forward $358 $-1 #
edge $-1 $484 9.5434350094900751 $572 12.305110881833308 $480 $573 forward 7 unknown #
coedge $-1 $351 $350 $487 $574 reversed $146 $-1 #
edge $-1 $575 -96.729026154362657 $484 -91.914191106669676 $478 $576 forward 7 unknown #
vertex $-1 $353 $577 #
straight-curve $-1 45.602837204838082 4.4336515647575645 4.3499775373066001 0 -1 0 I I #
coedge $-1 $477 $354 $357 $491 reversed $347 $-1 #
coedge $-1 $354 $477 $482 $574 forward $347 $-1 #
vertex $-1 $355 $578 #
straight-curve $-1 48.364513077181314 12.040707905540275 67.561582409405204 0 0 1 I I #
straight-curve $-1 -7.1169759125107532 12.040707905540275 79.641675829118356 0.57357642473473569 0 -0.81915205242281985 I I #
edge $-1 $572 5.693898353489983 $359 12.040707905540275 $486 $579 forward 7 unknown #
point $-1 48.364513077181314 12.040707905540275 4.3499775373065974 #
point $-1 45.602837204838082 12.040707905540275 4.3499775373066001 #
edge $-1 $580 1 $580 0 $362 $-1 forward 7 unknown #
vertex $-1 $363 $581 #
ellipse-curve $-1 45.359133150634683 6.9632602639000432 1.2404200181428227 0.81915205242281985 0 0.57357642473473569 0.28678821236736785 0 -0.40957602621140993 1 I I #
point $-1 47.270463353377068 6.9632602639000432 1.9683605053976956 #
edge $-1 $582 1 $582 0 $366 $-1 forward 7 unknown #
vertex $-1 $367 $583 #
ellipse-curve $-1 45.359133150634683 8.867303129515129 1.2404200181428227 0.81915205242281985 0 0.57357642473473569 0.28678821236736785 0 -0.40957602621140993 1 I I #
point $-1 47.270463353377068 8.867303129515129 1.9683605053976956 #
edge $-1 $584 1 $584 0 $370 $-1 forward 7 unknown #
vertex $-1 $371 $585 #
ellipse-curve $-1 45.359133150634683 10.771345995130215 1.2404200181428227 0.81915205242281985 0 0.57357642473473569 0.28678821236736785 0 -0.40957602621140993 1 I I #
point $-1 47.270463353377068 10.771345995130215 1.9683605053976956 #
plane-surface $-1 48.364513077181314 0 0 -1 0 0 0 0 1 forward_v I I I I #
coedge $-1 $379 $377 $381 $511 reversed $261 $-1 #
edge $-1 $392 -4.3499775373065974 $513 4.3499775373065974 $391 $586 forward 7 unknown #
vertex $-1 $511 $587 #
straight-curve $-1 -48.364513077181314 -20.826984126497745 0 0 0 -1 I I #
edge $-1 $509 -20.826984126497745 $513 20.826984126497745 $507 $588 forward 7 unknown #
straight-curve $-1 0 -20.826984126497745 -4.3499775373065974 -1 0 0 I I #
vertex $-1 $384 $589 #
straight-curve $-1 0 20.826984126497745 -4.3499775373065974 1 0 0 I I #
point $-1 48.364513077181314 20.826984126497745 -4.3499775373065974 #
point $-1 48.364513077181314 -20.826984126497745 -4.3499775373065974 #
straight-curve $-1 -48.364513077181314 0 4.3499775373065974 0 -1 0 I I #
point $-1 -48.364513077181314 20.826984126497745 4.3499775373065974 #
point $-1 -48.364513077181314 -20.826984126497745 4.3499775373065974 #
straight-curve $-1 48.364513077181314 -20.826984126497745 0 0 0 -1 I I #
straight-curve $-1 48.364513077181314 20.826984126497745 0 0 0 -1 I I #
loop $-1 $-1 $530 $401 #
plane-surface $-1 -48.364513077181314 0 0 1 0 0 0 0 -1 forward_v I I I I #
coedge $-1 $405 $404 $536 $590 forward $173 $-1 #
edge $-1 $409 17.048362139719472 $539 20.826984126497745 $408 $591 forward 7 unknown #
coedge $-1 $533 $530 $405 $527 reversed $522 $-1 #
edge $-1 $592 -20.826984126497745 $528 -17.048362139719472 $526 $593 forward 7 unknown #
vertex $-1 $531 $594 #
straight-curve $-1 0 -17.048362139719472 -4.3499775373065974 1 0 0 I I #
coedge $-1 $526 $411 $407 $531 forward $522 $-1 #
edge $-1 $413 -0.07501123134670129 $528 2.9249887686532987 $530 $595 forward 7 unknown #
point $-1 48.364513077181314 -17.048362139719472 -4.3499775373065974 #
coedge $-1 $411 $526 $415 $537 reversed $522 $-1 #
straight-curve $-1 -48.364513077181314 -9.4688365665543053 -1.3499775373065974 0 1 0 I I #
point $-1 -48.364513077181314 -17.048362139719472 -1.3499775373065974 #
coedge $-1 $416 $415 $524 $590 reversed $402 $-1 #
edge $-1 $417 1.3499775373065974 $592 4.3499775373065974 $533 $596 forward 7 unknown #
point $-1 -48.364513077181314 -20.826984126497749 -1.3499775373065974 #
vertex $-1 $419 $597 #
straight-curve $-1 48.364513077181314 -20.826984126497745 0 0 0 -1 I I #
coedge $-1 $423 $431 $424 $543 forward $296 $-1 #
edge $-1 $545 -13.085370022225119 $432 -2.397858186320148 $423 $598 forward 7 unknown #
edge $-1 $549 -4.3499775373065974 $545 -0.76741940328409441 $424 $599 forward 7 unknown #
edge $-1 $429 44.654665612709685 $549 48.364513077181314 $425 $600 forward 7 unknown #
vertex $-1 $426 $601 #
straight-curve $-1 -36.043148769077504 20.826984126497745 12.666022876065613 -0.71933979245794832 0 -0.69465837861970381 I I #
point $-1 -44.654665612709685 20.826984126497752 4.3499775373065974 #
point $-1 -48.364513077181314 10.139472290592781 0.76741940328409441 #
vertex $-1 $544 $602 #
straight-curve $-1 -48.364513077181314 0 4.3499775373065974 0 -1 0 I I #
vertex $-1 $438 $603 #
point $-1 -43.387427344438727 13.193047100851341 0.7651616703214561 #
vertex $-1 $442 $604 #
point $-1 -43.387427344438727 17.773409316239185 0.7651616703214561 #
coedge $-1 $457 $456 $449 $556 forward $446 $-1 #
edge $-1 $557 63.211604872098604 $560 67.15568688349363 $555 $605 forward 7 unknown #
vertex $-1 $461 $606 #
straight-curve $-1 36.059402195348007 -13.243774779618628 4.3499775373066001 1 0 0 I I #
edge $-1 $560 -8.2085897778218868 $458 -1.8617802257715947 $457 $607 forward 7 unknown #
vertex $-1 $559 $608 #
straight-curve $-1 -7.1169759125107532 -13.243774779618628 79.641675829118356 -0.57357642473473569 0 0.81915205242281985 I I #
point $-1 45.602837204838082 -13.243774779618628 4.3499775373066001 #
point $-1 48.364513077181314 -6.8969652275683355 0.40589552591157485 #
straight-curve $-1 48.364513077181314 0 4.3499775373065974 0 1 0 I I #
vertex $-1 $464 $609 #
point $-1 45.645921363002053 -11.974412869208569 0.83084399193141278 #
vertex $-1 $468 $610 #
point $-1 45.645921363002053 -10.070370003593482 0.83084399193141278 #
vertex $-1 $472 $611 #
point $-1 45.645921363002053 -8.1663271379783939 0.83084399193141278 #
edge $-1 $572 63.211604872098604 $575 67.15568688349363 $477 $612 forward 7 unknown #
vertex $-1 $491 $613 #
straight-curve $-1 36.059402195348007 5.693898353489983 4.3499775373066001 1 0 0 I I #
edge $-1 $575 1.2602467887324185 $488 7.6070563407827105 $487 $614 forward 7 unknown #
vertex $-1 $574 $615 #
straight-curve $-1 -7.1169759125107532 5.693898353489983 79.641675829118356 -0.57357642473473569 0 0.81915205242281985 I I #
point $-1 45.602837204838082 5.693898353489983 4.3499775373066001 #
point $-1 48.364513077181314 12.040707905540275 0.40589552591157485 #
straight-curve $-1 48.364513077181314 0 4.3499775373065974 0 1 0 I I #
vertex $-1 $494 $616 #
point $-1 45.645921363002053 6.9632602639000432 0.83084399193141278 #
vertex $-1 $498 $617 #
point $-1 45.645921363002053 8.867303129515129 0.83084399193141278 #
vertex $-1 $502 $618 #
point $-1 45.645921363002053 10.771345995130215 0.83084399193141278 #
straight-curve $-1 -48.364513077181314 20.826984126497745 0 0 0 -1 I I #
point $-1 -48.364513077181314 -20.826984126497745 -4.3499775373065974 #
straight-curve $-1 -48.364513077181314 0 -4.3499775373065974 0 1 0 I I #
point $-1 -48.364513077181314 20.826984126497745 -4.3499775373065974 #
edge $-1 $539 -48.364513077181314 $592 48.364513077181314 $536 $619 forward 7 unknown #
straight-curve $-1 48.364513077181314 0 -4.3499775373065974 0 -1 0 I I #
vertex $-1 $527 $620 #
straight-curve $-1 -48.364513077181314 0 -4.3499775373065974 0 1 0 I I #
point $-1 -48.364513077181314 -17.048362139719472 -4.3499775373065974 #
straight-curve $-1 -48.364513077181314 -17.048362139719472 -1.4249887686532987 0 0 -1 I I #
straight-curve $-1 -48.364513077181314 -20.826984126497745 0 0 0 -1 I I #
point $-1 48.364513077181314 -20.826984126497745 -4.3499775373065974 #
straight-curve $-1 -48.364513077181314 7.7416141042726334 0.76741940328409719 0 -1 0 I I #
straight-curve $-1 -48.364513077181314 20.826984126497745 0 0 0 -1 I I #
straight-curve $-1 0 20.826984126497745 4.3499775373065974 -1 0 0 I I #
point $-1 -48.364513077181314 20.826984126497752 0.76741940328409441 #
point $-1 -48.364513077181314 20.826984126497745 4.3499775373065974 #
point $-1 -43.412108758276972 13.193047100851341 -0.64883650075619603 #
point $-1 -43.412108758276972 17.773409316239185 -0.64883650075619603 #
straight-curve $-1 48.364513077181314 -13.243774779618628 67.561582409405204 0 0 -1 I I #
point $-1 48.364513077181314 -13.243774779618628 4.3499775373065974 #
straight-curve $-1 48.364513077181321 -5.0351850017967408 0.40589552591156064 0 1 0 I I #
point $-1 48.364513077181314 -13.243774779618628 0.40589552591157485 #
point $-1 44.949557124423272 -11.974412869208569 0.95363180577545492 #
point $-1 44.949557124423272 -10.070370003593482 0.95363180577545492 #
point $-1 44.949557124423272 -8.1663271379783939 0.95363180577545492 #
straight-curve $-1 48.364513077181314 5.693898353489983 67.561582409405204 0 0 -1 I I #
point $-1 48.364513077181314 5.693898353489983 4.3499775373065974 #
straight-curve $-1 48.364513077181321 4.4336515647575645 0.40589552591156064 0 1 0 I I #
point $-1 48.364513077181314 5.693898353489983 0.40589552591157485 #
point $-1 44.949557124423272 6.9632602639000432 0.95363180577545492 #
point $-1 44.949557124423272 8.867303129515129 0.95363180577545492 #
point $-1 44.949557124423272 10.771345995130215 0.95363180577545492 #
straight-curve $-1 0 -20.826984126497745 -4.3499775373065974 -1 0 0 I I #
point $-1 -48.364513077181314 -20.826984126497745 -4.3499775373065974 #
End-of-ACIS-data 