500 0 13 0           
7 Unknown 11 ACIS 5.0 NT 24 Fri Mar 26 15:07:09 1999 
-1 9.9999999999999995e-007 1e-010 
body $-1 $13 $-1 $14 #
body $-1 $15 $-1 $16 #
body $-1 $17 $-1 $18 #
body $-1 $19 $-1 $20 #
body $-1 $21 $-1 $22 #
body $-1 $23 $-1 $24 #
body $-1 $25 $-1 $26 #
body $-1 $27 $-1 $28 #
body $-1 $29 $-1 $30 #
body $-1 $31 $-1 $32 #
body $-1 $33 $-1 $34 #
body $-1 $35 $-1 $36 #
body $-1 $37 $-1 $38 #
lump $-1 $-1 $39 $0 #
transform $-1 1 0 0 0 1 0 0 0 1 72.062746055482648 33.589988268801193 14.016108664291453 1 rotate no_reflect no_shear #
lump $-1 $-1 $40 $1 #
transform $-1 1 0 0 0 1 0 0 0 1 72.062746055482648 33.589988268801193 14.016108664291453 1 rotate no_reflect no_shear #
lump $-1 $-1 $41 $2 #
transform $-1 1 0 0 0 1 0 0 0 1 72.062746055482648 33.589988268801193 14.016108664291453 1 rotate no_reflect no_shear #
lump $-1 $-1 $42 $3 #
transform $-1 1 0 0 0 1 0 0 0 1 72.062746055482648 33.589988268801193 14.016108664291453 1 rotate no_reflect no_shear #
lump $-1 $-1 $43 $4 #
transform $-1 1 0 0 0 1 0 0 0 1 72.062746055482648 33.589988268801193 14.016108664291453 1 rotate no_reflect no_shear #
lump $-1 $-1 $44 $5 #
transform $-1 1 0 0 0 1 0 0 0 1 72.062746055482648 33.589988268801193 14.016108664291453 1 rotate no_reflect no_shear #
lump $-1 $-1 $45 $6 #
transform $-1 1 0 0 0 1 0 0 0 1 72.062746055482648 33.589988268801193 14.016108664291453 1 rotate no_reflect no_shear #
lump $-1 $-1 $46 $7 #
transform $-1 1 0 0 0 1 0 0 0 1 72.062746055482648 33.589988268801193 14.016108664291453 1 rotate no_reflect no_shear #
lump $-1 $-1 $47 $8 #
transform $-1 1 0 0 0 1 0 0 0 1 72.062746055482648 33.589988268801193 14.016108664291453 1 rotate no_reflect no_shear #
lump $-1 $-1 $48 $9 #
transform $-1 1 0 0 0 1 0 0 0 1 72.062746055482648 33.589988268801193 14.016108664291453 1 rotate no_reflect no_shear #
lump $-1 $-1 $49 $10 #
transform $-1 1 0 0 0 1 0 0 0 1 72.062746055482648 33.589988268801193 14.016108664291453 1 rotate no_reflect no_shear #
lump $-1 $-1 $50 $11 #
transform $-1 1 0 0 0 1 0 0 0 1 72.062746055482648 33.589988268801193 14.016108664291453 1 rotate no_reflect no_shear #
lump $-1 $-1 $51 $12 #
transform $-1 1 0 0 0 1 0 0 0 1 72.062746055482648 33.589988268801193 14.016108664291453 1 rotate no_reflect no_shear #
shell $-1 $-1 $-1 $52 $-1 $13 #
shell $-1 $-1 $-1 $53 $-1 $15 #
shell $-1 $-1 $-1 $54 $-1 $17 #
shell $-1 $-1 $-1 $55 $-1 $19 #
shell $-1 $-1 $-1 $56 $-1 $21 #
shell $-1 $-1 $-1 $57 $-1 $23 #
shell $-1 $-1 $-1 $58 $-1 $25 #
shell $-1 $-1 $-1 $59 $-1 $27 #
shell $-1 $-1 $-1 $60 $-1 $29 #
shell $-1 $-1 $-1 $61 $-1 $31 #
shell $-1 $-1 $-1 $62 $-1 $33 #
shell $-1 $-1 $-1 $63 $-1 $35 #
shell $-1 $-1 $-1 $64 $-1 $37 #
face $-1 $65 $66 $39 $-1 $67 forward single #
face $-1 $68 $69 $40 $-1 $70 forward single #
face $-1 $71 $72 $41 $-1 $73 reversed single #
face $-1 $74 $75 $42 $-1 $76 forward single #
face $-1 $77 $78 $43 $-1 $79 forward single #
face $-1 $80 $81 $44 $-1 $82 reversed single #
face $-1 $83 $84 $45 $-1 $85 forward single #
face $-1 $86 $87 $46 $-1 $88 forward single #
face $-1 $89 $90 $47 $-1 $91 forward single #
face $-1 $92 $93 $48 $-1 $94 reversed single #
face $-1 $95 $96 $49 $-1 $97 forward single #
face $-1 $98 $99 $50 $-1 $100 forward single #
face $-1 $101 $102 $51 $-1 $103 forward single #
face $-1 $104 $105 $39 $-1 $106 reversed single #
loop $-1 $-1 $107 $52 #
plane-surface $-1 0 0 14.016108664291453 0 0 1 1 0 0 forward_v I I I I #
face $-1 $108 $109 $40 $-1 $110 forward single #
loop $-1 $-1 $111 $53 #
plane-surface $-1 0 -33.589988268801193 0 0 1 0 0 0 1 forward_v I I I I #
face $-1 $112 $113 $41 $-1 $114 reversed single #
loop $-1 $-1 $115 $54 #
plane-surface $-1 128.24431974030614 6.348271394921273 197.45172044261449 0 -1 0 -0.87461971476443456 0 -0.48480960649040278 forward_v I I I I #
face $-1 $116 $117 $42 $-1 $118 forward single #
loop $-1 $119 $120 $55 #
cone-surface $-1 67.258336350041318 0.75899243218963619 7.0258376630286596 -0.87461971476443456 0 -0.48480960649040278 0.48480960649040278 0 -0.87461971476443456 1 I I 0 1 1 forward I I I I #
face $-1 $121 $122 $43 $-1 $123 forward single #
loop $-1 $124 $125 $56 #
cone-surface $-1 67.258336350041318 4.1125598098286176 7.0258376630286596 -0.87461971476443456 0 -0.48480960649040278 0.48480960649040278 0 -0.87461971476443456 1 I I 0 1 1 forward I I I I #
face $-1 $126 $127 $44 $-1 $128 reversed single #
loop $-1 $-1 $129 $57 #
plane-surface $-1 -164.70482776305064 -14.012781442682584 113.15896162673388 0 1 0 -0.64278761758704617 0 0.76604443648966558 forward_v I I I I #
face $-1 $130 $131 $45 $-1 $132 forward single #
loop $-1 $133 $134 $58 #
cone-surface $-1 -65.029587772560362 -12.188377990306698 8.0012472332977591 0.64278761758704617 0 -0.76604443648966558 0.38302221824483279 0 0.32139380879352308 1 I I 0 1 0.5 forward I I I I #
face $-1 $135 $136 $46 $-1 $137 forward single #
loop $-1 $138 $139 $59 #
cone-surface $-1 -65.029587772560362 -9.4517728117428703 8.0012472332977591 0.64278761758704617 0 -0.76604443648966558 0.38302221824483279 0 0.32139380879352308 1 I I 0 1 0.5 forward I I I I #
face $-1 $140 $141 $47 $-1 $142 forward single #
loop $-1 $143 $144 $60 #
cone-surface $-1 -65.029587772560362 -6.7151676331790426 8.0012472332977591 0.64278761758704617 0 -0.76604443648966558 0.38302221824483279 0 0.32139380879352308 1 I I 0 1 0.5 forward I I I I #
face $-1 $145 $146 $48 $-1 $147 reversed single #
loop $-1 $-1 $148 $61 #
plane-surface $-1 -164.70482776305064 13.236400881235316 113.15896162673388 0 1 0 -0.64278761758704617 0 0.76604443648966558 forward_v I I I I #
face $-1 $149 $150 $49 $-1 $151 forward single #
loop $-1 $152 $153 $62 #
cone-surface $-1 -65.029587772560362 15.060804333611202 8.0012472332977591 0.64278761758704617 0 -0.76604443648966558 0.38302221824483279 0 0.32139380879352308 1 I I 0 1 0.5 forward I I I I #
face $-1 $154 $155 $50 $-1 $156 forward single #
loop $-1 $157 $158 $63 #
cone-surface $-1 -65.029587772560362 17.79740951217503 8.0012472332977591 0.64278761758704617 0 -0.76604443648966558 0.38302221824483279 0 0.32139380879352308 1 I I 0 1 0.5 forward I I I I #
face $-1 $159 $160 $51 $-1 $161 forward single #
loop $-1 $162 $163 $64 #
cone-surface $-1 -65.029587772560362 20.534014690738857 8.0012472332977591 0.64278761758704617 0 -0.76604443648966558 0.38302221824483279 0 0.32139380879352308 1 I I 0 1 0.5 forward I I I I #
face $-1 $164 $165 $39 $-1 $166 reversed single #
loop $-1 $-1 $167 $65 #
plane-surface $-1 0 0 -14.016108664291453 0 0 1 1 0 0 forward_v I I I I #
coedge $-1 $168 $169 $170 $171 forward $66 $-1 #
face $-1 $172 $173 $40 $-1 $174 reversed single #
loop $-1 $-1 $175 $68 #
plane-surface $-1 0 0 14.016108664291453 0 0 1 1 0 0 forward_v I I I I #
coedge $-1 $176 $177 $178 $179 forward $69 $-1 #
face $-1 $180 $181 $41 $-1 $182 reversed single #
loop $-1 $-1 $183 $71 #
plane-surface $-1 2.1893229399299088 2.4357761210091269 127.57829732706175 0.87461971476443456 0 0.48480960649040278 0.48480960649040278 0 -0.87461971476443456 forward_v I I I I #
coedge $-1 $184 $185 $186 $187 reversed $72 $-1 #
face $-1 $-1 $188 $42 $-1 $189 forward single #
loop $-1 $190 $191 $74 #
cone-surface $-1 65.479054973157872 0.75899243218963619 6.0395659273236202 -0.87461971476443456 0 -0.48480960649040278 0.24240480324520139 0 -0.43730985738221728 1 I I -0.70710678118654746 0.70710678118654746 0.5 forward I I I I #
loop $-1 $-1 $192 $55 #
coedge $-1 $120 $120 $193 $194 reversed $75 $-1 #
face $-1 $-1 $195 $43 $-1 $196 forward single #
loop $-1 $197 $198 $77 #
cone-surface $-1 65.479054973157872 4.1125598098286176 6.0395659273236202 -0.87461971476443456 0 -0.48480960649040278 0.24240480324520139 0 -0.43730985738221728 1 I I -0.70710678118654746 0.70710678118654746 0.5 forward I I I I #
loop $-1 $-1 $199 $56 #
coedge $-1 $125 $125 $200 $201 reversed $78 $-1 #
face $-1 $202 $203 $44 $-1 $204 reversed single #
loop $-1 $-1 $205 $80 #
plane-surface $-1 -72.062746055482648 -9.4517728117428703 2.7524302387937354 -0.64278761758704617 0 0.76604443648966558 0.76604443648966558 0 0.64278761758704617 forward_v I I I I #
coedge $-1 $206 $207 $208 $209 reversed $81 $-1 #
face $-1 $-1 $210 $45 $-1 $211 forward single #
loop $-1 $212 $213 $83 #
cone-surface $-1 -64.547497059370073 -12.188377990306698 7.4267139059305105 0.64278761758704617 0 -0.76604443648966558 0.1915111091224164 0 0.16069690439676154 1 I I -0.70710678118654746 0.70710678118654746 0.25 forward I I I I #
loop $-1 $-1 $214 $58 #
coedge $-1 $134 $134 $215 $216 reversed $84 $-1 #
face $-1 $-1 $217 $46 $-1 $218 forward single #
loop $-1 $219 $220 $86 #
cone-surface $-1 -64.547497059370073 -9.4517728117428703 7.4267139059305105 0.64278761758704617 0 -0.76604443648966558 0.1915111091224164 0 0.16069690439676154 1 I I -0.70710678118654746 0.70710678118654746 0.25 forward I I I I #
loop $-1 $-1 $221 $59 #
coedge $-1 $139 $139 $222 $223 reversed $87 $-1 #
face $-1 $-1 $224 $47 $-1 $225 forward single #
loop $-1 $226 $227 $89 #
cone-surface $-1 -64.547497059370073 -6.7151676331790426 7.4267139059305105 0.64278761758704617 0 -0.76604443648966558 0.1915111091224164 0 0.16069690439676154 1 I I -0.70710678118654746 0.70710678118654746 0.25 forward I I I I #
loop $-1 $-1 $228 $60 #
coedge $-1 $144 $144 $229 $230 reversed $90 $-1 #
face $-1 $231 $232 $48 $-1 $233 reversed single #
loop $-1 $-1 $234 $92 #
plane-surface $-1 -72.062746055482648 17.79740951217503 2.7524302387937354 -0.64278761758704617 0 0.76604443648966558 0.76604443648966558 0 0.64278761758704617 forward_v I I I I #
coedge $-1 $235 $236 $237 $238 reversed $93 $-1 #
face $-1 $-1 $239 $49 $-1 $240 forward single #
loop $-1 $241 $242 $95 #
cone-surface $-1 -64.547497059370073 15.060804333611202 7.4267139059305105 0.64278761758704617 0 -0.76604443648966558 0.1915111091224164 0 0.16069690439676154 1 I I -0.70710678118654746 0.70710678118654746 0.25 forward I I I I #
loop $-1 $-1 $243 $62 #
coedge $-1 $153 $153 $244 $245 reversed $96 $-1 #
face $-1 $-1 $246 $50 $-1 $247 forward single #
loop $-1 $248 $249 $98 #
cone-surface $-1 -64.547497059370073 17.79740951217503 7.4267139059305105 0.64278761758704617 0 -0.76604443648966558 0.1915111091224164 0 0.16069690439676154 1 I I -0.70710678118654746 0.70710678118654746 0.25 forward I I I I #
loop $-1 $-1 $250 $63 #
coedge $-1 $158 $158 $251 $252 reversed $99 $-1 #
face $-1 $-1 $253 $51 $-1 $254 forward single #
loop $-1 $255 $256 $101 #
cone-surface $-1 -64.547497059370073 20.534014690738857 7.4267139059305105 0.64278761758704617 0 -0.76604443648966558 0.1915111091224164 0 0.16069690439676154 1 I I -0.70710678118654746 0.70710678118654746 0.25 forward I I I I #
loop $-1 $-1 $257 $64 #
coedge $-1 $163 $163 $258 $259 reversed $102 $-1 #
face $-1 $260 $261 $39 $-1 $262 reversed single #
loop $-1 $-1 $263 $104 #
plane-surface $-1 0 -33.589988268801193 0 0 1 0 0 0 1 forward_v I I I I #
coedge $-1 $264 $265 $266 $267 forward $105 $-1 #
coedge $-1 $268 $107 $269 $270 forward $66 $-1 #
coedge $-1 $107 $268 $271 $272 forward $66 $-1 #
coedge $-1 $273 $274 $107 $171 reversed $275 $-1 #
edge $-1 $276 -33.589988268801193 $277 33.589988268801193 $170 $278 forward 7 unknown #
face $-1 $279 $280 $40 $-1 $281 reversed single #
loop $-1 $-1 $282 $108 #
plane-surface $-1 -72.062746055482648 0 0 1 0 0 0 0 -1 forward_v I I I I #
coedge $-1 $283 $284 $177 $285 forward $109 $-1 #
coedge $-1 $286 $111 $287 $288 reversed $69 $-1 #
coedge $-1 $111 $286 $175 $285 reversed $69 $-1 #
coedge $-1 $289 $290 $111 $179 reversed $291 $-1 #
edge $-1 $292 -14.016108664291453 $293 14.016108664291453 $178 $294 forward 7 unknown #
face $-1 $295 $296 $41 $-1 $297 forward single #
loop $-1 $-1 $298 $112 #
plane-surface $-1 128.24431974030614 -1.4767191529030192 197.45172044261449 0 1 0 0.87461971476443456 0 0.48480960649040278 forward_v I I I I #
coedge $-1 $299 $300 $301 $302 reversed $113 $-1 #
coedge $-1 $185 $115 $303 $304 reversed $72 $-1 #
coedge $-1 $115 $184 $299 $305 reversed $72 $-1 #
coedge $-1 $301 $306 $115 $187 forward $296 $-1 #
edge $-1 $307 -7.9405861853295789 $308 -1.0157098134493765 $186 $309 forward 7 unknown #
loop $-1 $-1 $193 $116 #
plane-surface $-1 2.1893229399299088 2.4357761210091269 127.57829732706175 0.87461971476443456 0 0.48480960649040278 0.48480960649040278 0 -0.87461971476443456 forward_v I I I I #
loop $-1 $-1 $310 $74 #
coedge $-1 $191 $191 $192 $311 reversed $117 $-1 #
coedge $-1 $192 $192 $191 $311 forward $119 $-1 #
coedge $-1 $193 $193 $120 $194 forward $188 $-1 #
edge $-1 $312 0 $312 6.2831853071796004 $193 $313 forward 7 unknown #
loop $-1 $-1 $200 $121 #
plane-surface $-1 2.1893229399299088 2.4357761210091269 127.57829732706175 0.87461971476443456 0 0.48480960649040278 0.48480960649040278 0 -0.87461971476443456 forward_v I I I I #
loop $-1 $-1 $314 $77 #
coedge $-1 $198 $198 $199 $315 reversed $122 $-1 #
coedge $-1 $199 $199 $198 $315 forward $124 $-1 #
coedge $-1 $200 $200 $125 $201 forward $195 $-1 #
edge $-1 $316 0 $316 6.2831853071796004 $200 $317 forward 7 unknown #
face $-1 $318 $319 $44 $-1 $320 reversed single #
loop $-1 $-1 $321 $126 #
plane-surface $-1 -164.70482776305064 -4.8907641808031563 113.15896162673388 0 -1 0 0.64278761758704617 0 -0.76604443648966558 forward_v I I I I #
coedge $-1 $322 $323 $324 $325 reversed $127 $-1 #
coedge $-1 $207 $129 $326 $327 reversed $81 $-1 #
coedge $-1 $129 $206 $322 $328 reversed $81 $-1 #
coedge $-1 $324 $329 $129 $209 forward $330 $-1 #
edge $-1 $331 10.289667826042674 $332 23.713196774300201 $208 $333 forward 7 unknown #
loop $-1 $-1 $215 $130 #
plane-surface $-1 -72.062746055482648 -9.4517728117428703 2.7524302387937354 -0.64278761758704617 0 0.76604443648966558 0.76604443648966558 0 0.64278761758704617 forward_v I I I I #
loop $-1 $-1 $334 $83 #
coedge $-1 $213 $213 $214 $335 reversed $131 $-1 #
coedge $-1 $214 $214 $213 $335 forward $133 $-1 #
coedge $-1 $215 $215 $134 $216 forward $210 $-1 #
edge $-1 $336 0 $336 6.2831853071796004 $215 $337 forward 7 unknown #
loop $-1 $-1 $222 $135 #
plane-surface $-1 -72.062746055482648 -9.4517728117428703 2.7524302387937354 -0.64278761758704617 0 0.76604443648966558 0.76604443648966558 0 0.64278761758704617 forward_v I I I I #
loop $-1 $-1 $338 $86 #
coedge $-1 $220 $220 $221 $339 reversed $136 $-1 #
coedge $-1 $221 $221 $220 $339 forward $138 $-1 #
coedge $-1 $222 $222 $139 $223 forward $217 $-1 #
edge $-1 $340 0 $340 6.2831853071796004 $222 $341 forward 7 unknown #
loop $-1 $-1 $229 $140 #
plane-surface $-1 -72.062746055482648 -9.4517728117428703 2.7524302387937354 -0.64278761758704617 0 0.76604443648966558 0.76604443648966558 0 0.64278761758704617 forward_v I I I I #
loop $-1 $-1 $342 $89 #
coedge $-1 $227 $227 $228 $343 reversed $141 $-1 #
coedge $-1 $228 $228 $227 $343 forward $143 $-1 #
coedge $-1 $229 $229 $144 $230 forward $224 $-1 #
edge $-1 $344 0 $344 6.2831853071796004 $229 $345 forward 7 unknown #
face $-1 $346 $347 $48 $-1 $348 forward single #
loop $-1 $-1 $349 $145 #
plane-surface $-1 -164.70482776305064 22.358418143114744 113.15896162673388 0 -1 0 0.64278761758704617 0 -0.76604443648966558 forward_v I I I I #
coedge $-1 $350 $351 $352 $353 reversed $146 $-1 #
coedge $-1 $236 $148 $354 $355 reversed $93 $-1 #
coedge $-1 $148 $235 $350 $356 reversed $93 $-1 #
coedge $-1 $352 $357 $148 $238 forward $347 $-1 #
edge $-1 $358 10.289667826042674 $359 23.713196774300201 $237 $360 forward 7 unknown #
loop $-1 $-1 $244 $149 #
plane-surface $-1 -72.062746055482648 17.79740951217503 2.7524302387937354 -0.64278761758704617 0 0.76604443648966558 0.76604443648966558 0 0.64278761758704617 forward_v I I I I #
loop $-1 $-1 $361 $95 #
coedge $-1 $242 $242 $243 $362 reversed $150 $-1 #
coedge $-1 $243 $243 $242 $362 forward $152 $-1 #
coedge $-1 $244 $244 $153 $245 forward $239 $-1 #
edge $-1 $363 0 $363 6.2831853071796004 $244 $364 forward 7 unknown #
loop $-1 $-1 $251 $154 #
plane-surface $-1 -72.062746055482648 17.79740951217503 2.7524302387937354 -0.64278761758704617 0 0.76604443648966558 0.76604443648966558 0 0.64278761758704617 forward_v I I I I #
loop $-1 $-1 $365 $98 #
coedge $-1 $249 $249 $250 $366 reversed $155 $-1 #
coedge $-1 $250 $250 $249 $366 forward $157 $-1 #
coedge $-1 $251 $251 $158 $252 forward $246 $-1 #
edge $-1 $367 0 $367 6.2831853071796004 $251 $368 forward 7 unknown #
loop $-1 $-1 $258 $159 #
plane-surface $-1 -72.062746055482648 17.79740951217503 2.7524302387937354 -0.64278761758704617 0 0.76604443648966558 0.76604443648966558 0 0.64278761758704617 forward_v I I I I #
loop $-1 $-1 $369 $101 #
coedge $-1 $256 $256 $257 $370 reversed $160 $-1 #
coedge $-1 $257 $257 $256 $370 forward $162 $-1 #
coedge $-1 $258 $258 $163 $259 forward $253 $-1 #
edge $-1 $371 0 $371 6.2831853071796004 $258 $372 forward 7 unknown #
face $-1 $373 $374 $39 $-1 $375 reversed single #
loop $-1 $-1 $376 $164 #
plane-surface $-1 -72.062746055482648 0 0 1 0 0 0 0 -1 forward_v I I I I #
coedge $-1 $377 $271 $378 $379 forward $165 $-1 #
coedge $-1 $380 $167 $377 $381 forward $105 $-1 #
coedge $-1 $167 $380 $382 $383 forward $105 $-1 #
coedge $-1 $274 $273 $167 $267 reversed $275 $-1 #
edge $-1 $384 -33.589988268801193 $385 33.589988268801193 $266 $386 forward 7 unknown #
coedge $-1 $169 $168 $387 $388 forward $66 $-1 #
coedge $-1 $389 $390 $168 $270 reversed $374 $-1 #
edge $-1 $277 -72.062746055482648 $391 72.062746055482648 $269 $392 forward 7 unknown #
coedge $-1 $263 $393 $169 $272 reversed $165 $-1 #
edge $-1 $394 -72.062746055482648 $276 72.062746055482648 $271 $395 forward 7 unknown #
coedge $-1 $266 $170 $393 $396 forward $275 $-1 #
coedge $-1 $170 $266 $389 $397 reversed $275 $-1 #
loop $-1 $-1 $273 $373 #
vertex $-1 $171 $398 #
vertex $-1 $171 $399 #
straight-curve $-1 72.062746055482648 0 14.016108664291453 0 1 0 I I #
face $-1 $400 $291 $40 $-1 $401 reversed single #
loop $-1 $-1 $402 $172 #
plane-surface $-1 -68.314409051352897 -46.271600158567779 0 0 1 0 0 0 1 forward_v I I I I #
coedge $-1 $403 $404 $286 $405 forward $173 $-1 #
coedge $-1 $406 $175 $404 $407 forward $109 $-1 #
coedge $-1 $175 $406 $289 $408 forward $109 $-1 #
edge $-1 $292 64.566072047223145 $409 72.062746055482648 $175 $410 forward 7 unknown #
coedge $-1 $177 $176 $282 $405 reversed $69 $-1 #
coedge $-1 $411 $412 $176 $288 forward $413 $-1 #
edge $-1 $414 -72.062746055482648 $293 -64.566072047223145 $287 $415 forward 7 unknown #
coedge $-1 $416 $178 $284 $408 reversed $291 $-1 #
coedge $-1 $178 $416 $411 $417 reversed $291 $-1 #
loop $-1 $-1 $416 $279 #
vertex $-1 $285 $418 #
vertex $-1 $417 $419 #
straight-curve $-1 -64.566072047223145 -33.589988268801193 0 0 0 -1 I I #
face $-1 $-1 $420 $41 $-1 $421 reversed single #
loop $-1 $-1 $186 $180 #
plane-surface $-1 0 0 14.016108664291453 0 0 1 1 0 0 forward_v I I I I #
coedge $-1 $422 $423 $424 $425 reversed $181 $-1 #
coedge $-1 $426 $183 $185 $305 forward $113 $-1 #
coedge $-1 $183 $426 $422 $427 forward $113 $-1 #
coedge $-1 $424 $186 $183 $302 forward $296 $-1 #
edge $-1 $308 -5.1303833344167096 $428 2.6946072134075827 $301 $429 forward 7 unknown #
coedge $-1 $430 $431 $184 $304 forward $420 $-1 #
edge $-1 $432 -97.202559694621726 $307 -84.709751557015792 $303 $433 forward 7 unknown #
edge $-1 $308 129.84178923219969 $432 144.1254921109653 $185 $434 forward 7 unknown #
coedge $-1 $186 $424 $430 $435 forward $296 $-1 #
vertex $-1 $304 $436 #
vertex $-1 $187 $437 #
straight-curve $-1 64.12215987015307 6.348271394921273 14.016108664291451 -1 0 0 I I #
coedge $-1 $310 $310 $-1 $438 reversed $190 $-1 #
edge $-1 $439 0 $439 6.2831853071796004 $191 $440 forward 7 unknown #
vertex $-1 $194 $441 #
ellipse-curve $-1 68.600307869542533 0.75899243218963619 7.7697045954884931 0.87461971476443456 0 0.48480960649040278 0.48480960649040278 0 -0.87461971476443456 1 I I #
coedge $-1 $314 $314 $-1 $442 reversed $197 $-1 #
edge $-1 $443 0 $443 6.2831853071796004 $198 $444 forward 7 unknown #
vertex $-1 $201 $445 #
ellipse-curve $-1 68.600307869542533 4.1125598098286176 7.7697045954884931 0.87461971476443456 0 0.48480960649040278 0.48480960649040278 0 -0.87461971476443456 1 I I #
face $-1 $-1 $330 $44 $-1 $446 forward single #
loop $-1 $-1 $447 $202 #
plane-surface $-1 -72.062746055482648 0 0 1 0 0 0 0 -1 forward_v I I I I #
coedge $-1 $448 $449 $450 $451 reversed $203 $-1 #
coedge $-1 $452 $205 $207 $328 forward $127 $-1 #
coedge $-1 $205 $452 $448 $453 forward $127 $-1 #
coedge $-1 $450 $208 $205 $325 forward $330 $-1 #
edge $-1 $332 -9.2868950368111491 $454 -0.16487777493172118 $324 $455 forward 7 unknown #
coedge $-1 $456 $457 $206 $327 forward $319 $-1 #
edge $-1 $458 -53.827050574573207 $331 -42.563372149075491 $326 $459 forward 7 unknown #
edge $-1 $332 -17.523172689262939 $458 0 $207 $460 forward 7 unknown #
coedge $-1 $208 $450 $456 $461 forward $330 $-1 #
loop $-1 $-1 $450 $318 #
vertex $-1 $327 $462 #
vertex $-1 $209 $463 #
straight-curve $-1 -82.352413881525322 -14.012781442682584 14.016108664291451 1 0 0 I I #
coedge $-1 $334 $334 $-1 $464 reversed $212 $-1 #
edge $-1 $465 0 $465 6.2831853071796004 $213 $466 forward 7 unknown #
vertex $-1 $216 $467 #
ellipse-curve $-1 -65.350981581353892 -12.188377990306698 8.3842694515425933 -0.64278761758704617 0 0.76604443648966558 0.38302221824483279 0 0.32139380879352308 1 I I #
coedge $-1 $338 $338 $-1 $468 reversed $219 $-1 #
edge $-1 $469 0 $469 6.2831853071796004 $220 $470 forward 7 unknown #
vertex $-1 $223 $471 #
ellipse-curve $-1 -65.350981581353892 -9.4517728117428703 8.3842694515425933 -0.64278761758704617 0 0.76604443648966558 0.38302221824483279 0 0.32139380879352308 1 I I #
coedge $-1 $342 $342 $-1 $472 reversed $226 $-1 #
edge $-1 $473 0 $473 6.2831853071796004 $227 $474 forward 7 unknown #
vertex $-1 $230 $475 #
ellipse-curve $-1 -65.350981581353892 -6.7151676331790426 8.3842694515425933 -0.64278761758704617 0 0.76604443648966558 0.38302221824483279 0 0.32139380879352308 1 I I #
face $-1 $-1 $476 $48 $-1 $477 reversed single #
loop $-1 $-1 $237 $231 #
plane-surface $-1 0 0 14.016108664291453 0 0 1 1 0 0 forward_v I I I I #
coedge $-1 $478 $479 $480 $481 reversed $232 $-1 #
coedge $-1 $482 $234 $236 $356 forward $146 $-1 #
coedge $-1 $234 $482 $478 $483 forward $146 $-1 #
coedge $-1 $480 $237 $234 $353 forward $347 $-1 #
edge $-1 $359 4.3376961251478008 $484 13.459713387027229 $352 $485 forward 7 unknown #
coedge $-1 $486 $487 $235 $355 forward $476 $-1 #
edge $-1 $488 -53.827050574573207 $358 -42.563372149075491 $354 $489 forward 7 unknown #
edge $-1 $359 -17.523172689262939 $488 0 $236 $490 forward 7 unknown #
coedge $-1 $237 $480 $486 $491 forward $347 $-1 #
vertex $-1 $355 $492 #
vertex $-1 $238 $493 #
straight-curve $-1 -82.352413881525322 13.236400881235316 14.016108664291451 1 0 0 I I #
coedge $-1 $361 $361 $-1 $494 reversed $241 $-1 #
edge $-1 $495 0 $495 6.2831853071796004 $242 $496 forward 7 unknown #
vertex $-1 $245 $497 #
ellipse-curve $-1 -65.350981581353892 15.060804333611202 8.3842694515425933 -0.64278761758704617 0 0.76604443648966558 0.38302221824483279 0 0.32139380879352308 1 I I #
coedge $-1 $365 $365 $-1 $498 reversed $248 $-1 #
edge $-1 $499 0 $499 6.2831853071796004 $249 $500 forward 7 unknown #
vertex $-1 $252 $501 #
ellipse-curve $-1 -65.350981581353892 17.79740951217503 8.3842694515425933 -0.64278761758704617 0 0.76604443648966558 0.38302221824483279 0 0.32139380879352308 1 I I #
coedge $-1 $369 $369 $-1 $502 reversed $255 $-1 #
edge $-1 $503 0 $503 6.2831853071796004 $256 $504 forward 7 unknown #
vertex $-1 $259 $505 #
ellipse-curve $-1 -65.350981581353892 20.534014690738857 8.3842694515425933 -0.64278761758704617 0 0.76604443648966558 0.38302221824483279 0 0.32139380879352308 1 I I #
face $-1 $-1 $275 $39 $-1 $506 reversed single #
loop $-1 $-1 $389 $260 #
plane-surface $-1 0 33.589988268801193 0 0 -1 0 0 0 -1 forward_v I I I I #
coedge $-1 $507 $387 $390 $508 forward $261 $-1 #
coedge $-1 $393 $263 $264 $381 reversed $165 $-1 #
coedge $-1 $387 $507 $263 $379 reversed $261 $-1 #
edge $-1 $394 -14.016108664291453 $509 14.016108664291453 $378 $510 forward 7 unknown #
coedge $-1 $265 $264 $507 $511 forward $105 $-1 #
edge $-1 $385 -72.062746055482648 $509 72.062746055482648 $377 $512 forward 7 unknown #
coedge $-1 $390 $389 $265 $383 reversed $374 $-1 #
edge $-1 $513 -72.062746055482648 $384 72.062746055482648 $382 $514 forward 7 unknown #
vertex $-1 $267 $515 #
vertex $-1 $396 $516 #
straight-curve $-1 72.062746055482648 0 -14.016108664291453 0 -1 0 I I #
coedge $-1 $376 $378 $268 $388 reversed $261 $-1 #
edge $-1 $391 -33.589988268801193 $394 33.589988268801193 $387 $517 forward 7 unknown #
coedge $-1 $382 $269 $274 $397 forward $374 $-1 #
coedge $-1 $269 $382 $376 $508 reversed $374 $-1 #
vertex $-1 $270 $518 #
straight-curve $-1 0 33.589988268801193 14.016108664291453 -1 0 0 I I #
coedge $-1 $271 $377 $273 $396 reversed $165 $-1 #
vertex $-1 $388 $519 #
straight-curve $-1 0 -33.589988268801193 14.016108664291453 1 0 0 I I #
edge $-1 $276 -14.016108664291453 $385 14.016108664291453 $273 $520 forward 7 unknown #
edge $-1 $277 -14.016108664291453 $384 14.016108664291453 $274 $521 forward 7 unknown #
point $-1 72.062746055482648 -33.589988268801193 14.016108664291453 #
point $-1 72.062746055482648 33.589988268801193 14.016108664291453 #
face $-1 $-1 $413 $40 $-1 $522 reversed single #
plane-surface $-1 -64.566072047223145 -39.930794213684486 0 -1 0 0 0 0 1 forward_v I I I I #
coedge $-1 $523 $524 $525 $526 forward $280 $-1 #
coedge $-1 $525 $282 $412 $527 reversed $173 $-1 #
coedge $-1 $282 $525 $283 $407 reversed $173 $-1 #
edge $-1 $409 -14.016108664291453 $414 14.016108664291453 $282 $528 forward 7 unknown #
coedge $-1 $284 $283 $524 $529 forward $109 $-1 #
edge $-1 $409 33.589988268801193 $530 46.271600158567779 $404 $531 forward 7 unknown #
edge $-1 $532 -6.340805944883293 $292 6.340805944883293 $289 $533 forward 7 unknown #
vertex $-1 $407 $534 #
straight-curve $-1 0 -33.589988268801193 14.016108664291453 -1 0 0 I I #
coedge $-1 $535 $287 $290 $417 forward $413 $-1 #
coedge $-1 $287 $535 $403 $527 forward $413 $-1 #
loop $-1 $-1 $287 $400 #
vertex $-1 $405 $536 #
straight-curve $-1 0 -33.589988268801193 -14.016108664291453 1 0 0 I I #
coedge $-1 $290 $289 $537 $538 forward $291 $-1 #
edge $-1 $293 -6.340805944883293 $539 6.340805944883293 $290 $540 forward 7 unknown #
point $-1 -64.566072047223145 -33.589988268801193 14.016108664291453 #
point $-1 -64.566072047223145 -33.589988268801193 -14.016108664291453 #
loop $-1 $-1 $303 $295 #
plane-surface $-1 72.062746055482648 0 0 -1 0 0 0 0 1 forward_v I I I I #
coedge $-1 $423 $298 $300 $427 reversed $181 $-1 #
coedge $-1 $298 $422 $541 $542 reversed $181 $-1 #
coedge $-1 $306 $301 $298 $425 forward $296 $-1 #
edge $-1 $428 1.0157098134493765 $543 7.9405861853295789 $424 $544 forward 7 unknown #
coedge $-1 $300 $299 $431 $545 reversed $113 $-1 #
edge $-1 $546 -144.1254921109653 $428 -129.84178923219969 $422 $547 forward 7 unknown #
vertex $-1 $302 $548 #
straight-curve $-1 65.137869683602432 1.2178880605045634 14.016108664291465 0 -1 0 I I #
coedge $-1 $541 $303 $306 $435 reversed $420 $-1 #
coedge $-1 $303 $541 $426 $545 forward $420 $-1 #
vertex $-1 $304 $549 #
straight-curve $-1 72.062746055482648 6.348271394921273 98.725860221307244 0 0 1 I I #
straight-curve $-1 2.1893229399299088 6.348271394921273 127.57829732706175 0.48480960649040278 0 -0.87461971476443456 I I #
edge $-1 $543 -1.4767191529030192 $307 6.348271394921273 $430 $550 forward 7 unknown #
point $-1 72.062746055482648 6.348271394921273 14.016108664291453 #
point $-1 65.137869683602446 6.348271394921273 14.016108664291451 #
edge $-1 $551 1 $551 0 $310 $-1 forward 7 unknown #
vertex $-1 $311 $552 #
ellipse-curve $-1 65.91636483054009 0.75899243218963619 6.2819707305688217 0.87461971476443456 0 0.48480960649040278 0.48480960649040278 0 -0.87461971476443456 1 I I #
point $-1 69.085117476032949 0.75899243218963619 6.8950848807240623 #
edge $-1 $553 1 $553 0 $314 $-1 forward 7 unknown #
vertex $-1 $315 $554 #
ellipse-curve $-1 65.91636483054009 4.1125598098286176 6.2819707305688217 0.87461971476443456 0 0.48480960649040278 0.48480960649040278 0 -0.87461971476443456 1 I I #
point $-1 69.085117476032949 4.1125598098286176 6.8950848807240623 #
plane-surface $-1 0 0 14.016108664291453 0 0 1 1 0 0 forward_v I I I I #
coedge $-1 $457 $456 $449 $555 forward $319 $-1 #
coedge $-1 $449 $321 $323 $453 reversed $203 $-1 #
coedge $-1 $321 $448 $447 $555 reversed $203 $-1 #
coedge $-1 $329 $324 $321 $451 forward $330 $-1 #
edge $-1 $454 -23.713196774300201 $556 -10.289667826042674 $450 $557 forward 7 unknown #
coedge $-1 $323 $322 $457 $558 reversed $127 $-1 #
edge $-1 $559 0 $454 17.523172689262939 $448 $560 forward 7 unknown #
vertex $-1 $325 $561 #
straight-curve $-1 -58.639217107225129 -4.7258864058714352 14.016108664291455 0 1 0 I I #
coedge $-1 $447 $326 $329 $461 reversed $319 $-1 #
coedge $-1 $326 $447 $452 $558 forward $319 $-1 #
vertex $-1 $327 $562 #
straight-curve $-1 -72.062746055482648 -14.012781442682584 56.579480813366942 0 0 1 I I #
straight-curve $-1 -72.062746055482648 -14.012781442682584 2.7524302387937354 -0.76604443648966558 0 -0.64278761758704617 I I #
edge $-1 $556 4.8907641808031563 $331 14.012781442682584 $456 $563 forward 7 unknown #
point $-1 -72.062746055482648 -14.012781442682584 14.016108664291453 #
point $-1 -58.639217107225122 -14.012781442682584 14.016108664291453 #
edge $-1 $564 1 $564 0 $334 $-1 forward 7 unknown #
vertex $-1 $335 $565 #
ellipse-curve $-1 -64.708193963766831 -12.188377990306698 7.6182250150529267 -0.64278761758704617 0 0.76604443648966558 0.38302221824483279 0 0.32139380879352308 1 I I #
point $-1 -64.967959363109046 -12.188377990306698 8.7056632603361166 #
edge $-1 $566 1 $566 0 $338 $-1 forward 7 unknown #
vertex $-1 $339 $567 #
ellipse-curve $-1 -64.708193963766831 -9.4517728117428703 7.6182250150529267 -0.64278761758704617 0 0.76604443648966558 0.38302221824483279 0 0.32139380879352308 1 I I #
point $-1 -64.967959363109046 -9.4517728117428703 8.7056632603361166 #
edge $-1 $568 1 $568 0 $342 $-1 forward 7 unknown #
vertex $-1 $343 $569 #
ellipse-curve $-1 -64.708193963766831 -6.7151676331790426 7.6182250150529267 -0.64278761758704617 0 0.76604443648966558 0.38302221824483279 0 0.32139380879352308 1 I I #
point $-1 -64.967959363109046 -6.7151676331790426 8.7056632603361166 #
loop $-1 $-1 $354 $346 #
plane-surface $-1 -72.062746055482648 0 0 1 0 0 0 0 -1 forward_v I I I I #
coedge $-1 $479 $349 $351 $483 reversed $232 $-1 #
coedge $-1 $349 $478 $570 $571 reversed $232 $-1 #
coedge $-1 $357 $352 $349 $481 forward $347 $-1 #
edge $-1 $484 -23.713196774300201 $572 -10.289667826042674 $480 $573 forward 7 unknown #
coedge $-1 $351 $350 $487 $574 reversed $146 $-1 #
edge $-1 $575 0 $484 17.523172689262939 $478 $576 forward 7 unknown #
vertex $-1 $353 $577 #
straight-curve $-1 -58.639217107225129 8.8987047560875148 14.016108664291455 0 1 0 I I #
coedge $-1 $570 $354 $357 $491 reversed $476 $-1 #
coedge $-1 $354 $570 $482 $574 forward $476 $-1 #
vertex $-1 $355 $578 #
straight-curve $-1 -72.062746055482648 13.236400881235316 56.579480813366942 0 0 1 I I #
straight-curve $-1 -72.062746055482648 13.236400881235316 2.7524302387937354 -0.76604443648966558 0 -0.64278761758704617 I I #
edge $-1 $572 -22.358418143114744 $358 -13.236400881235316 $486 $579 forward 7 unknown #
point $-1 -72.062746055482648 13.236400881235316 14.016108664291453 #
point $-1 -58.639217107225122 13.236400881235316 14.016108664291453 #
edge $-1 $580 1 $580 0 $361 $-1 forward 7 unknown #
vertex $-1 $362 $581 #
ellipse-curve $-1 -64.708193963766831 15.060804333611202 7.6182250150529267 -0.64278761758704617 0 0.76604443648966558 0.38302221824483279 0 0.32139380879352308 1 I I #
point $-1 -64.967959363109046 15.060804333611202 8.7056632603361166 #
edge $-1 $582 1 $582 0 $365 $-1 forward 7 unknown #
vertex $-1 $366 $583 #
ellipse-curve $-1 -64.708193963766831 17.79740951217503 7.6182250150529267 -0.64278761758704617 0 0.76604443648966558 0.38302221824483279 0 0.32139380879352308 1 I I #
point $-1 -64.967959363109046 17.79740951217503 8.7056632603361166 #
edge $-1 $584 1 $584 0 $369 $-1 forward 7 unknown #
vertex $-1 $370 $585 #
ellipse-curve $-1 -64.708193963766831 20.534014690738857 7.6182250150529267 -0.64278761758704617 0 0.76604443648966558 0.38302221824483279 0 0.32139380879352308 1 I I #
point $-1 -64.967959363109046 20.534014690738857 8.7056632603361166 #
plane-surface $-1 72.062746055482648 0 0 -1 0 0 0 0 1 forward_v I I I I #
coedge $-1 $378 $376 $380 $511 reversed $261 $-1 #
edge $-1 $391 -14.016108664291453 $513 14.016108664291453 $390 $586 forward 7 unknown #
vertex $-1 $511 $587 #
straight-curve $-1 -72.062746055482648 -33.589988268801193 0 0 0 -1 I I #
edge $-1 $509 -33.589988268801193 $513 33.589988268801193 $507 $588 forward 7 unknown #
straight-curve $-1 0 -33.589988268801193 -14.016108664291453 -1 0 0 I I #
vertex $-1 $383 $589 #
straight-curve $-1 0 33.589988268801193 -14.016108664291453 1 0 0 I I #
point $-1 72.062746055482648 33.589988268801193 -14.016108664291453 #
point $-1 72.062746055482648 -33.589988268801193 -14.016108664291453 #
straight-curve $-1 -72.062746055482648 0 14.016108664291453 0 -1 0 I I #
point $-1 -72.062746055482648 33.589988268801193 14.016108664291453 #
point $-1 -72.062746055482648 -33.589988268801193 14.016108664291453 #
straight-curve $-1 72.062746055482648 -33.589988268801193 0 0 0 -1 I I #
straight-curve $-1 72.062746055482648 33.589988268801193 0 0 0 -1 I I #
plane-surface $-1 0 0 -14.016108664291453 0 0 1 1 0 0 forward_v I I I I #
coedge $-1 $537 $402 $535 $590 reversed $280 $-1 #
coedge $-1 $402 $537 $406 $529 reversed $280 $-1 #
coedge $-1 $404 $403 $402 $526 reversed $173 $-1 #
edge $-1 $530 -14.016108664291453 $591 14.016108664291453 $525 $592 forward 7 unknown #
edge $-1 $591 -46.271600158567779 $414 -33.589988268801193 $403 $593 forward 7 unknown #
straight-curve $-1 -72.062746055482648 -33.589988268801193 0 0 0 -1 I I #
edge $-1 $530 -3.7483370041297519 $532 3.7483370041297519 $524 $594 forward 7 unknown #
vertex $-1 $407 $595 #
straight-curve $-1 -72.062746055482648 0 14.016108664291453 0 -1 0 I I #
vertex $-1 $408 $596 #
straight-curve $-1 -64.566072047223145 -39.930794213684486 14.016108664291453 0 1 0 I I #
point $-1 -72.062746055482648 -33.589988268801193 14.016108664291453 #
coedge $-1 $412 $411 $523 $590 forward $413 $-1 #
point $-1 -72.062746055482648 -33.589988268801193 -14.016108664291453 #
coedge $-1 $524 $523 $416 $538 reversed $280 $-1 #
edge $-1 $532 -14.016108664291453 $539 14.016108664291453 $416 $597 forward 7 unknown #
vertex $-1 $538 $598 #
straight-curve $-1 -64.566072047223145 -39.930794213684486 -14.016108664291453 0 -1 0 I I #
coedge $-1 $431 $430 $423 $542 forward $420 $-1 #
edge $-1 $543 84.709751557015792 $546 97.202559694621726 $541 $599 forward 7 unknown #
vertex $-1 $435 $600 #
straight-curve $-1 64.12215987015307 -1.4767191529030192 14.016108664291451 1 0 0 I I #
edge $-1 $546 -2.6946072134075827 $432 5.1303833344167096 $431 $601 forward 7 unknown #
vertex $-1 $545 $602 #
straight-curve $-1 2.1893229399299088 -1.4767191529030192 127.57829732706175 -0.48480960649040278 0 0.87461971476443456 I I #
point $-1 65.137869683602446 -1.4767191529030192 14.016108664291451 #
point $-1 72.062746055482648 6.348271394921273 1.5233005266855173 #
straight-curve $-1 72.062746055482648 0 14.016108664291453 0 1 0 I I #
vertex $-1 $438 $603 #
point $-1 66.401174437030491 0.75899243218963619 5.4073510158043874 #
vertex $-1 $442 $604 #
point $-1 66.401174437030491 4.1125598098286176 5.4073510158043874 #
edge $-1 $556 42.563372149075491 $559 53.827050574573207 $447 $605 forward 7 unknown #
vertex $-1 $461 $606 #
straight-curve $-1 -82.352413881525322 -4.8907641808031563 14.016108664291451 -1 0 0 I I #
edge $-1 $559 0.16487777493172118 $458 9.2868950368111491 $457 $607 forward 7 unknown #
vertex $-1 $558 $608 #
straight-curve $-1 -72.062746055482648 -4.8907641808031563 2.7524302387937354 0.76604443648966558 0 0.64278761758704617 I I #
point $-1 -58.639217107225122 -4.8907641808031563 14.016108664291453 #
point $-1 -72.062746055482648 -14.012781442682584 2.7524302387937354 #
straight-curve $-1 -72.062746055482648 0 14.016108664291453 0 -1 0 I I #
vertex $-1 $464 $609 #
point $-1 -64.325171745521999 -12.188377990306698 7.93961882384645 #
vertex $-1 $468 $610 #
point $-1 -64.325171745521999 -9.4517728117428703 7.93961882384645 #
vertex $-1 $472 $611 #
point $-1 -64.325171745521999 -6.7151676331790426 7.93961882384645 #
coedge $-1 $487 $486 $479 $571 forward $476 $-1 #
edge $-1 $572 42.563372149075491 $575 53.827050574573207 $570 $612 forward 7 unknown #
vertex $-1 $491 $613 #
straight-curve $-1 -82.352413881525322 22.358418143114744 14.016108664291451 -1 0 0 I I #
edge $-1 $575 -13.459713387027229 $488 -4.3376961251478008 $487 $614 forward 7 unknown #
vertex $-1 $574 $615 #
straight-curve $-1 -72.062746055482648 22.358418143114744 2.7524302387937354 0.76604443648966558 0 0.64278761758704617 I I #
point $-1 -58.639217107225122 22.358418143114744 14.016108664291453 #
point $-1 -72.062746055482648 13.236400881235316 2.7524302387937354 #
straight-curve $-1 -72.062746055482648 0 14.016108664291453 0 -1 0 I I #
vertex $-1 $494 $616 #
point $-1 -64.325171745521999 15.060804333611202 7.93961882384645 #
vertex $-1 $498 $617 #
point $-1 -64.325171745521999 17.79740951217503 7.93961882384645 #
vertex $-1 $502 $618 #
point $-1 -64.325171745521999 20.534014690738857 7.93961882384645 #
straight-curve $-1 -72.062746055482648 33.589988268801193 0 0 0 -1 I I #
point $-1 -72.062746055482648 -33.589988268801193 -14.016108664291453 #
straight-curve $-1 -72.062746055482648 0 -14.016108664291453 0 1 0 I I #
point $-1 -72.062746055482648 33.589988268801193 -14.016108664291453 #
edge $-1 $539 -3.7483370041297519 $591 3.7483370041297519 $523 $619 forward 7 unknown #
vertex $-1 $527 $620 #
straight-curve $-1 -72.062746055482648 -46.271600158567779 0 0 0 -1 I I #
straight-curve $-1 -72.062746055482648 0 -14.016108664291453 0 1 0 I I #
straight-curve $-1 -68.314409051352897 -46.271600158567779 14.016108664291453 1 0 0 I I #
point $-1 -72.062746055482648 -46.271600158567779 14.016108664291453 #
point $-1 -64.566072047223145 -46.271600158567779 14.016108664291453 #
straight-curve $-1 -64.566072047223145 -46.271600158567779 0 0 0 -1 I I #
point $-1 -64.566072047223145 -46.271600158567779 -14.016108664291453 #
straight-curve $-1 72.062746055482648 -1.4767191529030192 98.725860221307244 0 0 -1 I I #
point $-1 72.062746055482648 -1.4767191529030192 14.016108664291453 #
straight-curve $-1 72.062746055482648 1.2178880605045634 1.5233005266855173 0 1 0 I I #
point $-1 72.062746055482648 -1.4767191529030192 1.5233005266855173 #
point $-1 65.041745115775655 0.75899243218963619 5.7971611240784187 #
point $-1 65.041745115775655 4.1125598098286176 5.7971611240784187 #
straight-curve $-1 -72.062746055482648 -4.8907641808031563 56.579480813366942 0 0 -1 I I #
point $-1 -72.062746055482648 -4.8907641808031563 14.016108664291453 #
straight-curve $-1 -72.062746055482648 -4.7258864058714352 2.7524302387937314 0 -1 0 I I #
point $-1 -72.062746055482648 -4.8907641808031563 2.7524302387937354 #
point $-1 -64.386800154973315 -12.188377990306698 7.2352027968080943 #
point $-1 -64.386800154973315 -9.4517728117428703 7.2352027968080943 #
point $-1 -64.386800154973315 -6.7151676331790426 7.2352027968080943 #
straight-curve $-1 -72.062746055482648 22.358418143114744 56.579480813366942 0 0 -1 I I #
point $-1 -72.062746055482648 22.358418143114744 14.016108664291453 #
straight-curve $-1 -72.062746055482648 8.8987047560875148 2.7524302387937314 0 -1 0 I I #
point $-1 -72.062746055482648 22.358418143114744 2.7524302387937354 #
point $-1 -64.386800154973315 15.060804333611202 7.2352027968080943 #
point $-1 -64.386800154973315 17.79740951217503 7.2352027968080943 #
point $-1 -64.386800154973315 20.534014690738857 7.2352027968080943 #
straight-curve $-1 -68.314409051352897 -46.271600158567779 -14.016108664291453 -1 0 0 I I #
point $-1 -72.062746055482648 -46.271600158567779 -14.016108664291453 #
End-of-ACIS-data 