500 0 8 0           
7 Unknown 11 ACIS 5.0 NT 24 Fri Mar 26 02:44:01 1999 
-1 9.9999999999999995e-007 1e-010 
body $-1 $8 $-1 $9 #
body $-1 $10 $-1 $11 #
body $-1 $12 $-1 $13 #
body $-1 $14 $-1 $15 #
body $-1 $16 $-1 $17 #
body $-1 $18 $-1 $19 #
body $-1 $20 $-1 $21 #
body $-1 $22 $-1 $23 #
lump $-1 $-1 $24 $0 #
transform $-1 1 0 0 0 1 0 0 0 1 75.313577684865862 32.744983809547456 9.569765738608611 1 rotate no_reflect no_shear #
lump $-1 $-1 $25 $1 #
transform $-1 1 0 0 0 1 0 0 0 1 75.313577684865862 32.744983809547456 9.569765738608611 1 rotate no_reflect no_shear #
lump $-1 $-1 $26 $2 #
transform $-1 1 0 0 0 1 0 0 0 1 75.313577684865862 32.744983809547456 9.569765738608611 1 rotate no_reflect no_shear #
lump $-1 $-1 $27 $3 #
transform $-1 1 0 0 0 1 0 0 0 1 75.313577684865862 32.744983809547456 9.569765738608611 1 rotate no_reflect no_shear #
lump $-1 $-1 $28 $4 #
transform $-1 1 0 0 0 1 0 0 0 1 75.313577684865862 32.744983809547456 9.569765738608611 1 rotate no_reflect no_shear #
lump $-1 $-1 $29 $5 #
transform $-1 1 0 0 0 1 0 0 0 1 75.313577684865862 32.744983809547456 9.569765738608611 1 rotate no_reflect no_shear #
lump $-1 $-1 $30 $6 #
transform $-1 1 0 0 0 1 0 0 0 1 75.313577684865862 32.744983809547456 9.569765738608611 1 rotate no_reflect no_shear #
lump $-1 $-1 $31 $7 #
transform $-1 1 0 0 0 1 0 0 0 1 75.313577684865862 32.744983809547456 9.569765738608611 1 rotate no_reflect no_shear #
shell $-1 $-1 $-1 $32 $-1 $8 #
shell $-1 $-1 $-1 $33 $-1 $10 #
shell $-1 $-1 $-1 $34 $-1 $12 #
shell $-1 $-1 $-1 $35 $-1 $14 #
shell $-1 $-1 $-1 $36 $-1 $16 #
shell $-1 $-1 $-1 $37 $-1 $18 #
shell $-1 $-1 $-1 $38 $-1 $20 #
shell $-1 $-1 $-1 $39 $-1 $22 #
face $-1 $40 $41 $24 $-1 $42 forward single #
face $-1 $43 $44 $25 $-1 $45 forward single #
face $-1 $46 $47 $26 $-1 $48 reversed single #
face $-1 $49 $50 $27 $-1 $51 forward single #
face $-1 $52 $53 $28 $-1 $54 forward single #
face $-1 $55 $56 $29 $-1 $57 reversed single #
face $-1 $58 $59 $30 $-1 $60 forward single #
face $-1 $61 $62 $31 $-1 $63 forward single #
face $-1 $64 $65 $24 $-1 $66 reversed single #
loop $-1 $-1 $67 $32 #
plane-surface $-1 0 0 9.569765738608611 0 0 1 1 0 0 forward_v I I I I #
face $-1 $68 $69 $25 $-1 $70 forward single #
loop $-1 $-1 $71 $33 #
plane-surface $-1 0 -32.744983809547456 0 0 1 0 0 0 1 forward_v I I I I #
face $-1 $72 $73 $26 $-1 $74 reversed single #
loop $-1 $-1 $75 $34 #
plane-surface $-1 38.323224326103343 6.1556474973888982 214.33527026721163 0 -1 0 -0.57357644374324357 0 -0.81915203911291934 forward_v I I I I #
face $-1 $76 $77 $27 $-1 $78 forward single #
loop $-1 $79 $80 $35 #
cone-surface $-1 70.609272365182164 -3.368611903394644 5.4592918656791465 -0.57357644374324357 0 -0.81915203911291934 1.228728058669379 0 -0.86036466561486535 1 I I 0 1 1.5 forward I I I I #
face $-1 $81 $82 $28 $-1 $83 forward single #
loop $-1 $84 $85 $36 #
cone-surface $-1 70.609272365182164 2.3459437370754799 5.4592918656791465 -0.57357644374324357 0 -0.81915203911291934 1.228728058669379 0 -0.86036466561486535 1 I I 0 1 1.5 forward I I I I #
face $-1 $86 $87 $29 $-1 $88 reversed single #
loop $-1 $-1 $89 $37 #
plane-surface $-1 -161.70976579299759 -7.1783156637080623 127.93908215907992 0 1 0 -0.57357644374324357 0 0.81915203911291934 forward_v I I I I #
face $-1 $90 $91 $30 $-1 $92 forward single #
loop $-1 $93 $94 $38 #
cone-surface $-1 -70.609272365182164 -3.368611903394644 5.4592918656791447 0.57357644374324357 0 -0.81915203911291934 1.228728058669379 0 0.86036466561486535 1 I I 0 1 1.5 forward I I I I #
face $-1 $95 $96 $31 $-1 $97 forward single #
loop $-1 $98 $99 $39 #
cone-surface $-1 -70.609272365182164 2.3459437370754799 5.4592918656791447 0.57357644374324357 0 -0.81915203911291934 1.228728058669379 0 0.86036466561486535 1 I I 0 1 1.5 forward I I I I #
face $-1 $100 $101 $24 $-1 $102 reversed single #
loop $-1 $-1 $103 $40 #
plane-surface $-1 0 0 -9.569765738608611 0 0 1 1 0 0 forward_v I I I I #
coedge $-1 $104 $105 $106 $107 forward $41 $-1 #
face $-1 $108 $109 $25 $-1 $110 reversed single #
loop $-1 $-1 $111 $43 #
plane-surface $-1 0 0 9.569765738608611 0 0 1 1 0 0 forward_v I I I I #
coedge $-1 $112 $113 $114 $115 forward $44 $-1 #
face $-1 $116 $117 $26 $-1 $118 reversed single #
loop $-1 $-1 $119 $46 #
plane-surface $-1 -48.072963782028395 -0.51133408315958206 90.948728800317369 0.57357644374324357 0 0.81915203911291934 0.81915203911291934 0 -0.57357644374324357 forward_v I I I I #
coedge $-1 $120 $121 $122 $123 reversed $47 $-1 #
face $-1 $-1 $124 $27 $-1 $125 forward single #
loop $-1 $126 $127 $49 #
cone-surface $-1 69.057454618592487 -3.368611903394644 3.2430664866264731 -0.57357644374324357 0 -0.81915203911291934 0.61436402933468948 0 -0.43018233280743268 1 I I -0.70710678118654757 0.70710678118654757 0.75 forward I I I I #
loop $-1 $-1 $128 $35 #
coedge $-1 $80 $80 $129 $130 reversed $50 $-1 #
face $-1 $-1 $131 $28 $-1 $132 forward single #
loop $-1 $133 $134 $52 #
cone-surface $-1 69.057454618592487 2.3459437370754799 3.2430664866264731 -0.57357644374324357 0 -0.81915203911291934 0.61436402933468948 0 -0.43018233280743268 1 I I -0.70710678118654757 0.70710678118654757 0.75 forward I I I I #
loop $-1 $-1 $135 $36 #
coedge $-1 $85 $85 $136 $137 reversed $53 $-1 #
face $-1 $138 $139 $29 $-1 $140 reversed single #
loop $-1 $-1 $141 $55 #
plane-surface $-1 -75.313577684865848 -0.51133408315958206 4.5525406921856586 -0.57357644374324357 0 0.81915203911291934 0.81915203911291934 0 0.57357644374324357 forward_v I I I I #
coedge $-1 $142 $143 $144 $145 reversed $56 $-1 #
face $-1 $-1 $146 $30 $-1 $147 forward single #
loop $-1 $148 $149 $58 #
cone-surface $-1 -69.057454618592487 -3.368611903394644 3.2430664866264713 0.57357644374324357 0 -0.81915203911291934 0.61436402933468948 0 0.43018233280743268 1 I I -0.70710678118654757 0.70710678118654757 0.75 forward I I I I #
loop $-1 $-1 $150 $38 #
coedge $-1 $94 $94 $151 $152 reversed $59 $-1 #
face $-1 $-1 $153 $31 $-1 $154 forward single #
loop $-1 $155 $156 $61 #
cone-surface $-1 -69.057454618592487 2.3459437370754799 3.2430664866264713 0.57357644374324357 0 -0.81915203911291934 0.61436402933468948 0 0.43018233280743268 1 I I -0.70710678118654757 0.70710678118654757 0.75 forward I I I I #
loop $-1 $-1 $157 $39 #
coedge $-1 $99 $99 $158 $159 reversed $62 $-1 #
face $-1 $160 $161 $24 $-1 $162 reversed single #
loop $-1 $-1 $163 $64 #
plane-surface $-1 0 -32.744983809547456 0 0 1 0 0 0 1 forward_v I I I I #
coedge $-1 $164 $165 $166 $167 forward $65 $-1 #
coedge $-1 $168 $67 $169 $170 forward $41 $-1 #
coedge $-1 $67 $168 $171 $172 forward $41 $-1 #
coedge $-1 $173 $174 $67 $107 reversed $175 $-1 #
edge $-1 $176 -32.744983809547456 $177 32.744983809547456 $106 $178 forward 7 unknown #
face $-1 $179 $180 $25 $-1 $181 reversed single #
loop $-1 $-1 $182 $68 #
plane-surface $-1 -75.313577684865862 0 0 1 0 0 0 0 -1 forward_v I I I I #
coedge $-1 $183 $184 $113 $185 forward $69 $-1 #
coedge $-1 $186 $71 $187 $188 reversed $44 $-1 #
coedge $-1 $71 $186 $111 $185 reversed $44 $-1 #
coedge $-1 $189 $190 $71 $115 reversed $191 $-1 #
edge $-1 $192 -9.569765738608611 $193 9.569765738608611 $114 $194 forward 7 unknown #
face $-1 $195 $196 $26 $-1 $197 forward single #
loop $-1 $-1 $198 $72 #
plane-surface $-1 38.323224326103343 -7.1783156637080623 214.33527026721163 0 1 0 0.57357644374324357 0 0.81915203911291934 forward_v I I I I #
coedge $-1 $199 $200 $201 $202 reversed $73 $-1 #
coedge $-1 $121 $75 $203 $204 reversed $47 $-1 #
coedge $-1 $75 $120 $199 $205 reversed $47 $-1 #
coedge $-1 $201 $206 $75 $123 forward $196 $-1 #
edge $-1 $207 -56.151965521814191 $208 -48.986625710011296 $122 $209 forward 7 unknown #
loop $-1 $-1 $129 $76 #
plane-surface $-1 -48.072963782028395 -0.51133408315958206 90.948728800317369 0.57357644374324357 0 0.81915203911291934 0.81915203911291934 0 -0.57357644374324357 forward_v I I I I #
loop $-1 $-1 $210 $49 #
coedge $-1 $127 $127 $128 $211 reversed $77 $-1 #
coedge $-1 $128 $128 $127 $211 forward $79 $-1 #
coedge $-1 $129 $129 $80 $130 forward $124 $-1 #
edge $-1 $212 0 $212 6.2831853071796004 $129 $213 forward 7 unknown #
loop $-1 $-1 $136 $81 #
plane-surface $-1 -48.072963782028395 -0.51133408315958206 90.948728800317369 0.57357644374324357 0 0.81915203911291934 0.81915203911291934 0 -0.57357644374324357 forward_v I I I I #
loop $-1 $-1 $214 $52 #
coedge $-1 $134 $134 $135 $215 reversed $82 $-1 #
coedge $-1 $135 $135 $134 $215 forward $84 $-1 #
coedge $-1 $136 $136 $85 $137 forward $131 $-1 #
edge $-1 $216 0 $216 6.2831853071796004 $136 $217 forward 7 unknown #
face $-1 $218 $219 $29 $-1 $220 reversed single #
loop $-1 $-1 $221 $86 #
plane-surface $-1 -161.70976579299759 6.1556474973888982 127.93908215907992 0 -1 0 0.57357644374324357 0 -0.81915203911291934 forward_v I I I I #
coedge $-1 $222 $223 $224 $225 reversed $87 $-1 #
coedge $-1 $143 $89 $226 $227 reversed $56 $-1 #
coedge $-1 $89 $142 $222 $228 reversed $56 $-1 #
coedge $-1 $224 $229 $89 $145 forward $230 $-1 #
edge $-1 $231 5.5413052116329311 $232 12.706645023435811 $144 $233 forward 7 unknown #
loop $-1 $-1 $151 $90 #
plane-surface $-1 -75.313577684865848 -0.51133408315958206 4.5525406921856586 -0.57357644374324357 0 0.81915203911291934 0.81915203911291934 0 0.57357644374324357 forward_v I I I I #
loop $-1 $-1 $234 $58 #
coedge $-1 $149 $149 $150 $235 reversed $91 $-1 #
coedge $-1 $150 $150 $149 $235 forward $93 $-1 #
coedge $-1 $151 $151 $94 $152 forward $146 $-1 #
edge $-1 $236 0 $236 6.2831853071796004 $151 $237 forward 7 unknown #
loop $-1 $-1 $158 $95 #
plane-surface $-1 -75.313577684865848 -0.51133408315958206 4.5525406921856586 -0.57357644374324357 0 0.81915203911291934 0.81915203911291934 0 0.57357644374324357 forward_v I I I I #
loop $-1 $-1 $238 $61 #
coedge $-1 $156 $156 $157 $239 reversed $96 $-1 #
coedge $-1 $157 $157 $156 $239 forward $98 $-1 #
coedge $-1 $158 $158 $99 $159 forward $153 $-1 #
edge $-1 $240 0 $240 6.2831853071796004 $158 $241 forward 7 unknown #
face $-1 $242 $243 $24 $-1 $244 reversed single #
loop $-1 $-1 $245 $100 #
plane-surface $-1 -75.313577684865862 0 0 1 0 0 0 0 -1 forward_v I I I I #
coedge $-1 $246 $171 $247 $248 forward $101 $-1 #
coedge $-1 $249 $103 $246 $250 forward $65 $-1 #
coedge $-1 $103 $249 $251 $252 forward $65 $-1 #
coedge $-1 $174 $173 $103 $167 reversed $175 $-1 #
edge $-1 $253 -32.744983809547456 $254 32.744983809547456 $166 $255 forward 7 unknown #
coedge $-1 $105 $104 $256 $257 forward $41 $-1 #
coedge $-1 $258 $259 $104 $170 reversed $243 $-1 #
edge $-1 $177 -75.313577684865862 $260 75.313577684865862 $169 $261 forward 7 unknown #
coedge $-1 $163 $262 $105 $172 reversed $101 $-1 #
edge $-1 $263 -75.313577684865862 $176 75.313577684865862 $171 $264 forward 7 unknown #
coedge $-1 $166 $106 $262 $265 forward $175 $-1 #
coedge $-1 $106 $166 $258 $266 reversed $175 $-1 #
loop $-1 $-1 $173 $242 #
vertex $-1 $107 $267 #
vertex $-1 $107 $268 #
straight-curve $-1 75.313577684865862 0 9.569765738608611 0 1 0 I I #
face $-1 $269 $191 $25 $-1 $270 reversed single #
loop $-1 $-1 $271 $108 #
plane-surface $-1 -72.498021588700325 -42.194282707375372 0 0 1 0 0 0 1 forward_v I I I I #
coedge $-1 $272 $273 $186 $274 forward $109 $-1 #
coedge $-1 $275 $111 $273 $276 forward $69 $-1 #
coedge $-1 $111 $275 $189 $277 forward $69 $-1 #
edge $-1 $192 69.682465492534789 $278 75.313577684865862 $111 $279 forward 7 unknown #
coedge $-1 $113 $112 $182 $274 reversed $44 $-1 #
coedge $-1 $280 $281 $112 $188 forward $282 $-1 #
edge $-1 $283 -75.313577684865862 $193 -69.682465492534789 $187 $284 forward 7 unknown #
coedge $-1 $285 $114 $184 $277 reversed $191 $-1 #
coedge $-1 $114 $285 $280 $286 reversed $191 $-1 #
loop $-1 $-1 $285 $179 #
vertex $-1 $185 $287 #
vertex $-1 $286 $288 #
straight-curve $-1 -69.682465492534789 -32.744983809547456 0 0 0 -1 I I #
face $-1 $-1 $289 $26 $-1 $290 reversed single #
loop $-1 $-1 $122 $116 #
plane-surface $-1 0 0 9.569765738608611 0 0 1 1 0 0 forward_v I I I I #
coedge $-1 $291 $292 $293 $294 reversed $117 $-1 #
coedge $-1 $295 $119 $121 $205 forward $73 $-1 #
coedge $-1 $119 $295 $291 $296 forward $73 $-1 #
coedge $-1 $293 $122 $119 $202 forward $196 $-1 #
edge $-1 $208 -6.4113145389686892 $297 6.9226486221282713 $201 $298 forward 7 unknown #
coedge $-1 $299 $300 $120 $204 forward $289 $-1 #
edge $-1 $301 -102.61509444142018 $207 -97.597869394997204 $203 $302 forward 7 unknown #
edge $-1 $208 141.87989055236957 $301 150.62715536973172 $121 $303 forward 7 unknown #
coedge $-1 $122 $293 $299 $304 forward $196 $-1 #
vertex $-1 $204 $305 #
vertex $-1 $123 $306 #
straight-curve $-1 19.161612163051672 6.1556474973888982 9.5697657386086092 -1 0 0 I I #
coedge $-1 $210 $210 $-1 $307 reversed $126 $-1 #
edge $-1 $308 0 $308 6.2831853071796004 $127 $309 forward 7 unknown #
vertex $-1 $130 $310 #
ellipse-curve $-1 71.730907778964408 -3.368611903394644 7.0611532153971144 0.57357644374324357 0 0.81915203911291934 1.228728058669379 0 -0.86036466561486535 1 I I #
coedge $-1 $214 $214 $-1 $311 reversed $133 $-1 #
edge $-1 $312 0 $312 6.2831853071796004 $134 $313 forward 7 unknown #
vertex $-1 $137 $314 #
ellipse-curve $-1 71.730907778964408 2.3459437370754799 7.0611532153971144 0.57357644374324357 0 0.81915203911291934 1.228728058669379 0 -0.86036466561486535 1 I I #
face $-1 $-1 $230 $29 $-1 $315 forward single #
loop $-1 $-1 $316 $138 #
plane-surface $-1 -75.313577684865862 0 0 1 0 0 0 0 -1 forward_v I I I I #
coedge $-1 $317 $318 $319 $320 reversed $139 $-1 #
coedge $-1 $321 $141 $143 $228 forward $87 $-1 #
coedge $-1 $141 $321 $317 $322 forward $87 $-1 #
coedge $-1 $319 $144 $141 $225 forward $230 $-1 #
edge $-1 $232 -6.9226486221282713 $323 6.4113145389686892 $224 $324 forward 7 unknown #
coedge $-1 $325 $326 $142 $227 forward $219 $-1 #
edge $-1 $327 -59.417000387354307 $231 -54.399775340931349 $226 $328 forward 7 unknown #
edge $-1 $232 -8.7472648173621064 $327 1.7244671030687178e-014 $143 $329 forward 7 unknown #
coedge $-1 $144 $319 $325 $330 forward $230 $-1 #
loop $-1 $-1 $319 $218 #
vertex $-1 $227 $331 #
vertex $-1 $145 $332 #
straight-curve $-1 -80.854882896498793 -7.1783156637080623 9.5697657386086092 1 0 0 I I #
coedge $-1 $234 $234 $-1 $333 reversed $148 $-1 #
edge $-1 $334 0 $334 6.2831853071796004 $149 $335 forward 7 unknown #
vertex $-1 $152 $336 #
ellipse-curve $-1 -71.730907778964422 -3.368611903394644 7.0611532153971321 -0.57357644374324357 0 0.81915203911291934 1.228728058669379 0 0.86036466561486535 1 I I #
coedge $-1 $238 $238 $-1 $337 reversed $155 $-1 #
edge $-1 $338 0 $338 6.2831853071796004 $156 $339 forward 7 unknown #
vertex $-1 $159 $340 #
ellipse-curve $-1 -71.730907778964422 2.3459437370754799 7.0611532153971321 -0.57357644374324357 0 0.81915203911291934 1.228728058669379 0 0.86036466561486535 1 I I #
face $-1 $-1 $175 $24 $-1 $341 reversed single #
loop $-1 $-1 $258 $160 #
plane-surface $-1 0 32.744983809547456 0 0 -1 0 0 0 -1 forward_v I I I I #
coedge $-1 $342 $256 $259 $343 forward $161 $-1 #
coedge $-1 $262 $163 $164 $250 reversed $101 $-1 #
coedge $-1 $256 $342 $163 $248 reversed $161 $-1 #
edge $-1 $263 -9.569765738608611 $344 9.569765738608611 $247 $345 forward 7 unknown #
coedge $-1 $165 $164 $342 $346 forward $65 $-1 #
edge $-1 $254 -75.313577684865862 $344 75.313577684865862 $246 $347 forward 7 unknown #
coedge $-1 $259 $258 $165 $252 reversed $243 $-1 #
edge $-1 $348 -75.313577684865862 $253 75.313577684865862 $251 $349 forward 7 unknown #
vertex $-1 $167 $350 #
vertex $-1 $265 $351 #
straight-curve $-1 75.313577684865862 0 -9.569765738608611 0 -1 0 I I #
coedge $-1 $245 $247 $168 $257 reversed $161 $-1 #
edge $-1 $260 -32.744983809547456 $263 32.744983809547456 $256 $352 forward 7 unknown #
coedge $-1 $251 $169 $174 $266 forward $243 $-1 #
coedge $-1 $169 $251 $245 $343 reversed $243 $-1 #
vertex $-1 $170 $353 #
straight-curve $-1 0 32.744983809547456 9.569765738608611 -1 0 0 I I #
coedge $-1 $171 $246 $173 $265 reversed $101 $-1 #
vertex $-1 $257 $354 #
straight-curve $-1 0 -32.744983809547456 9.569765738608611 1 0 0 I I #
edge $-1 $176 -9.569765738608611 $254 9.569765738608611 $173 $355 forward 7 unknown #
edge $-1 $177 -9.569765738608611 $253 9.569765738608611 $174 $356 forward 7 unknown #
point $-1 75.313577684865862 -32.744983809547456 9.569765738608611 #
point $-1 75.313577684865862 32.744983809547456 9.569765738608611 #
face $-1 $-1 $282 $25 $-1 $357 reversed single #
plane-surface $-1 -69.682465492534789 -37.469633258461414 0 -1 0 0 0 0 1 forward_v I I I I #
coedge $-1 $358 $359 $360 $361 forward $180 $-1 #
coedge $-1 $360 $182 $281 $362 reversed $109 $-1 #
coedge $-1 $182 $360 $183 $276 reversed $109 $-1 #
edge $-1 $278 -9.569765738608611 $283 9.569765738608611 $182 $363 forward 7 unknown #
coedge $-1 $184 $183 $359 $364 forward $69 $-1 #
edge $-1 $278 32.744983809547456 $365 42.194282707375372 $273 $366 forward 7 unknown #
edge $-1 $367 -4.7246494489139579 $192 4.7246494489139579 $189 $368 forward 7 unknown #
vertex $-1 $276 $369 #
straight-curve $-1 0 -32.744983809547456 9.569765738608611 -1 0 0 I I #
coedge $-1 $370 $187 $190 $286 forward $282 $-1 #
coedge $-1 $187 $370 $272 $362 forward $282 $-1 #
loop $-1 $-1 $187 $269 #
vertex $-1 $274 $371 #
straight-curve $-1 0 -32.744983809547456 -9.569765738608611 1 0 0 I I #
coedge $-1 $190 $189 $372 $373 forward $191 $-1 #
edge $-1 $193 -4.7246494489139579 $374 4.7246494489139579 $190 $375 forward 7 unknown #
point $-1 -69.682465492534789 -32.744983809547456 9.569765738608611 #
point $-1 -69.682465492534789 -32.744983809547456 -9.569765738608611 #
loop $-1 $-1 $203 $195 #
plane-surface $-1 75.313577684865862 0 0 -1 0 0 0 0 1 forward_v I I I I #
coedge $-1 $292 $198 $200 $296 reversed $117 $-1 #
coedge $-1 $198 $291 $376 $377 reversed $117 $-1 #
coedge $-1 $206 $201 $198 $294 forward $196 $-1 #
edge $-1 $297 48.986625710011296 $378 56.151965521814191 $293 $379 forward 7 unknown #
coedge $-1 $200 $199 $300 $380 reversed $73 $-1 #
edge $-1 $381 -150.62715536973172 $297 -141.87989055236957 $291 $382 forward 7 unknown #
vertex $-1 $202 $383 #
straight-curve $-1 68.148237873062939 -0.25566704157979103 9.5697657386086235 0 -1 0 I I #
coedge $-1 $376 $203 $206 $304 reversed $289 $-1 #
coedge $-1 $203 $376 $295 $380 forward $289 $-1 #
vertex $-1 $204 $384 #
straight-curve $-1 75.313577684865862 6.1556474973888982 107.16763513360581 0 0 1 I I #
straight-curve $-1 -48.072963782028395 6.1556474973888982 90.948728800317369 0.81915203911291934 0 -0.57357644374324357 I I #
edge $-1 $378 -7.1783156637080623 $207 6.1556474973888982 $299 $385 forward 7 unknown #
point $-1 75.313577684865862 6.1556474973888982 9.569765738608611 #
point $-1 68.148237873062968 6.1556474973888982 9.5697657386086092 #
edge $-1 $386 1 $386 0 $210 $-1 forward 7 unknown #
vertex $-1 $211 $387 #
ellipse-curve $-1 69.487636951399921 -3.368611903394644 3.8574305159611626 0.57357644374324357 0 0.81915203911291934 1.228728058669379 0 -0.86036466561486535 1 I I #
point $-1 72.959635837633797 -3.368611903394644 6.2007885497822652 #
edge $-1 $388 1 $388 0 $214 $-1 forward 7 unknown #
vertex $-1 $215 $389 #
ellipse-curve $-1 69.487636951399921 2.3459437370754799 3.8574305159611626 0.57357644374324357 0 0.81915203911291934 1.228728058669379 0 -0.86036466561486535 1 I I #
point $-1 72.959635837633797 2.3459437370754799 6.2007885497822652 #
plane-surface $-1 0 0 9.569765738608611 0 0 1 1 0 0 forward_v I I I I #
coedge $-1 $326 $325 $318 $390 forward $219 $-1 #
coedge $-1 $318 $221 $223 $322 reversed $139 $-1 #
coedge $-1 $221 $317 $316 $390 reversed $139 $-1 #
coedge $-1 $229 $224 $221 $320 forward $230 $-1 #
edge $-1 $323 -12.706645023435811 $391 -5.5413052116329311 $319 $392 forward 7 unknown #
coedge $-1 $223 $222 $326 $393 reversed $87 $-1 #
edge $-1 $394 -1.7244671030687178e-014 $323 8.7472648173621064 $317 $395 forward 7 unknown #
vertex $-1 $225 $396 #
straight-curve $-1 -68.148237873062982 -0.25566704157979103 9.5697657386086128 0 1 0 I I #
coedge $-1 $316 $226 $229 $330 reversed $219 $-1 #
coedge $-1 $226 $316 $321 $393 forward $219 $-1 #
vertex $-1 $227 $397 #
straight-curve $-1 -75.313577684865862 -7.1783156637080623 63.969541079539958 0 0 1 I I #
straight-curve $-1 -75.313577684865848 -7.1783156637080623 4.5525406921856586 -0.81915203911291934 0 -0.57357644374324357 I I #
edge $-1 $391 -6.1556474973888982 $231 7.1783156637080623 $325 $398 forward 7 unknown #
point $-1 -75.313577684865862 -7.1783156637080623 9.569765738608611 #
point $-1 -68.148237873062982 -7.1783156637080623 9.569765738608611 #
edge $-1 $399 1 $399 0 $234 $-1 forward 7 unknown #
vertex $-1 $235 $400 #
ellipse-curve $-1 -69.487636951399921 -3.368611903394644 3.8574305159611608 -0.57357644374324357 0 0.81915203911291934 1.228728058669379 0 0.86036466561486535 1 I I #
point $-1 -70.502179720295047 -3.368611903394644 7.9215178810119946 #
edge $-1 $401 1 $401 0 $238 $-1 forward 7 unknown #
vertex $-1 $239 $402 #
ellipse-curve $-1 -69.487636951399921 2.3459437370754799 3.8574305159611608 -0.57357644374324357 0 0.81915203911291934 1.228728058669379 0 0.86036466561486535 1 I I #
point $-1 -70.502179720295047 2.3459437370754799 7.9215178810119946 #
plane-surface $-1 75.313577684865862 0 0 -1 0 0 0 0 1 forward_v I I I I #
coedge $-1 $247 $245 $249 $346 reversed $161 $-1 #
edge $-1 $260 -9.569765738608611 $348 9.569765738608611 $259 $403 forward 7 unknown #
vertex $-1 $346 $404 #
straight-curve $-1 -75.313577684865862 -32.744983809547456 0 0 0 -1 I I #
edge $-1 $344 -32.744983809547456 $348 32.744983809547456 $342 $405 forward 7 unknown #
straight-curve $-1 0 -32.744983809547456 -9.569765738608611 -1 0 0 I I #
vertex $-1 $252 $406 #
straight-curve $-1 0 32.744983809547456 -9.569765738608611 1 0 0 I I #
point $-1 75.313577684865862 32.744983809547456 -9.569765738608611 #
point $-1 75.313577684865862 -32.744983809547456 -9.569765738608611 #
straight-curve $-1 -75.313577684865862 0 9.569765738608611 0 -1 0 I I #
point $-1 -75.313577684865862 32.744983809547456 9.569765738608611 #
point $-1 -75.313577684865862 -32.744983809547456 9.569765738608611 #
straight-curve $-1 75.313577684865862 -32.744983809547456 0 0 0 -1 I I #
straight-curve $-1 75.313577684865862 32.744983809547456 0 0 0 -1 I I #
plane-surface $-1 0 0 -9.569765738608611 0 0 1 1 0 0 forward_v I I I I #
coedge $-1 $372 $271 $370 $407 reversed $180 $-1 #
coedge $-1 $271 $372 $275 $364 reversed $180 $-1 #
coedge $-1 $273 $272 $271 $361 reversed $109 $-1 #
edge $-1 $365 -9.569765738608611 $408 9.569765738608611 $360 $409 forward 7 unknown #
edge $-1 $408 -42.194282707375372 $283 -32.744983809547456 $272 $410 forward 7 unknown #
straight-curve $-1 -75.313577684865862 -32.744983809547456 0 0 0 -1 I I #
edge $-1 $365 -2.8155560961655368 $367 2.8155560961655368 $359 $411 forward 7 unknown #
vertex $-1 $276 $412 #
straight-curve $-1 -75.313577684865862 0 9.569765738608611 0 -1 0 I I #
vertex $-1 $277 $413 #
straight-curve $-1 -69.682465492534789 -37.469633258461414 9.569765738608611 0 1 0 I I #
point $-1 -75.313577684865862 -32.744983809547456 9.569765738608611 #
coedge $-1 $281 $280 $358 $407 forward $282 $-1 #
point $-1 -75.313577684865862 -32.744983809547456 -9.569765738608611 #
coedge $-1 $359 $358 $285 $373 reversed $180 $-1 #
edge $-1 $367 -9.569765738608611 $374 9.569765738608611 $285 $414 forward 7 unknown #
vertex $-1 $373 $415 #
straight-curve $-1 -69.682465492534789 -37.469633258461414 -9.569765738608611 0 -1 0 I I #
coedge $-1 $300 $299 $292 $377 forward $289 $-1 #
edge $-1 $378 97.597869394997204 $381 102.61509444142018 $376 $416 forward 7 unknown #
vertex $-1 $304 $417 #
straight-curve $-1 19.161612163051672 -7.1783156637080623 9.5697657386086092 1 0 0 I I #
edge $-1 $381 -6.9226486221282713 $301 6.4113145389686892 $300 $418 forward 7 unknown #
vertex $-1 $380 $419 #
straight-curve $-1 -48.072963782028395 -7.1783156637080623 90.948728800317369 -0.81915203911291934 0 0.57357644374324357 I I #
point $-1 68.148237873062968 -7.1783156637080623 9.5697657386086092 #
point $-1 75.313577684865862 6.1556474973888982 4.5525406921856302 #
straight-curve $-1 75.313577684865862 0 9.569765738608611 0 1 0 I I #
vertex $-1 $307 $420 #
point $-1 70.716365010069296 -3.368611903394644 2.9970658503462975 #
vertex $-1 $311 $421 #
point $-1 70.716365010069296 2.3459437370754799 2.9970658503462975 #
edge $-1 $391 54.399775340931349 $394 59.417000387354307 $316 $422 forward 7 unknown #
vertex $-1 $330 $423 #
straight-curve $-1 -80.854882896498793 6.1556474973888982 9.5697657386086092 -1 0 0 I I #
edge $-1 $394 -6.4113145389686892 $327 6.9226486221282713 $326 $424 forward 7 unknown #
vertex $-1 $393 $425 #
straight-curve $-1 -75.313577684865848 6.1556474973888982 4.5525406921856586 0.81915203911291934 0 0.57357644374324357 I I #
point $-1 -68.148237873062982 6.1556474973888982 9.569765738608611 #
point $-1 -75.313577684865862 -7.1783156637080623 4.5525406921856488 #
straight-curve $-1 -75.313577684865862 0 9.569765738608611 0 -1 0 I I #
vertex $-1 $333 $426 #
point $-1 -68.258908892730545 -3.368611903394644 4.717795181576026 #
vertex $-1 $337 $427 #
point $-1 -68.258908892730545 2.3459437370754799 4.717795181576026 #
straight-curve $-1 -75.313577684865862 32.744983809547456 0 0 0 -1 I I #
point $-1 -75.313577684865862 -32.744983809547456 -9.569765738608611 #
straight-curve $-1 -75.313577684865862 0 -9.569765738608611 0 1 0 I I #
point $-1 -75.313577684865862 32.744983809547456 -9.569765738608611 #
edge $-1 $374 -2.8155560961655368 $408 2.8155560961655368 $358 $428 forward 7 unknown #
vertex $-1 $362 $429 #
straight-curve $-1 -75.313577684865862 -42.194282707375372 0 0 0 -1 I I #
straight-curve $-1 -75.313577684865862 0 -9.569765738608611 0 1 0 I I #
straight-curve $-1 -72.498021588700325 -42.194282707375372 9.569765738608611 1 0 0 I I #
point $-1 -75.313577684865862 -42.194282707375372 9.569765738608611 #
point $-1 -69.682465492534789 -42.194282707375372 9.569765738608611 #
straight-curve $-1 -69.682465492534789 -42.194282707375372 0 0 0 -1 I I #
point $-1 -69.682465492534789 -42.194282707375372 -9.569765738608611 #
straight-curve $-1 75.313577684865862 -7.1783156637080623 107.16763513360581 0 0 -1 I I #
point $-1 75.313577684865862 -7.1783156637080623 9.569765738608611 #
straight-curve $-1 75.313577684865862 -0.25566704157979103 4.5525406921856231 0 1 0 I I #
point $-1 75.313577684865862 -7.1783156637080623 4.5525406921856302 #
point $-1 68.627272285785054 -3.368611903394644 2.6287024572917836 #
point $-1 68.627272285785054 2.3459437370754799 2.6287024572917836 #
straight-curve $-1 -75.313577684865862 6.1556474973888982 63.969541079539958 0 0 -1 I I #
point $-1 -75.313577684865862 6.1556474973888982 9.569765738608611 #
straight-curve $-1 -75.313577684865862 -0.25566704157979103 4.5525406921856524 0 -1 0 I I #
point $-1 -75.313577684865862 6.1556474973888982 4.5525406921856488 #
point $-1 -68.627272285785054 -3.368611903394644 2.6287024572917819 #
point $-1 -68.627272285785054 2.3459437370754799 2.6287024572917819 #
straight-curve $-1 -72.498021588700325 -42.194282707375372 -9.569765738608611 -1 0 0 I I #
point $-1 -75.313577684865862 -42.194282707375372 -9.569765738608611 #
End-of-ACIS-data 