500 0 8 0           
7 Unknown 11 ACIS 5.0 NT 24 Fri Mar 26 15:30:30 1999 
-1 9.9999999999999995e-007 1e-010 
body $-1 $8 $-1 $9 #
body $-1 $10 $-1 $11 #
body $-1 $12 $-1 $13 #
body $-1 $14 $-1 $15 #
body $-1 $16 $-1 $17 #
body $-1 $18 $-1 $19 #
body $-1 $20 $-1 $21 #
body $-1 $22 $-1 $23 #
lump $-1 $-1 $24 $0 #
transform $-1 1 0 0 0 1 0 0 0 1 58.898281807916504 24.864288845257345 6.7459948809235604 1 rotate no_reflect no_shear #
lump $-1 $-1 $25 $1 #
transform $-1 1 0 0 0 1 0 0 0 1 58.898281807916504 24.864288845257345 6.7459948809235604 1 rotate no_reflect no_shear #
lump $-1 $-1 $26 $2 #
transform $-1 1 0 0 0 1 0 0 0 1 58.898281807916504 24.864288845257345 6.7459948809235604 1 rotate no_reflect no_shear #
lump $-1 $-1 $27 $3 #
transform $-1 1 0 0 0 1 0 0 0 1 58.898281807916504 24.864288845257345 6.7459948809235604 1 rotate no_reflect no_shear #
lump $-1 $-1 $28 $4 #
transform $-1 1 0 0 0 1 0 0 0 1 58.898281807916504 24.864288845257345 6.7459948809235604 1 rotate no_reflect no_shear #
lump $-1 $-1 $29 $5 #
transform $-1 1 0 0 0 1 0 0 0 1 58.898281807916504 24.864288845257345 6.7459948809235604 1 rotate no_reflect no_shear #
lump $-1 $-1 $30 $6 #
transform $-1 1 0 0 0 1 0 0 0 1 58.898281807916504 24.864288845257345 6.7459948809235604 1 rotate no_reflect no_shear #
lump $-1 $-1 $31 $7 #
transform $-1 1 0 0 0 1 0 0 0 1 58.898281807916504 24.864288845257345 6.7459948809235604 1 rotate no_reflect no_shear #
shell $-1 $-1 $-1 $32 $-1 $8 #
shell $-1 $-1 $-1 $33 $-1 $10 #
shell $-1 $-1 $-1 $34 $-1 $12 #
shell $-1 $-1 $-1 $35 $-1 $14 #
shell $-1 $-1 $-1 $36 $-1 $16 #
shell $-1 $-1 $-1 $37 $-1 $18 #
shell $-1 $-1 $-1 $38 $-1 $20 #
shell $-1 $-1 $-1 $39 $-1 $22 #
face $-1 $40 $41 $24 $-1 $42 forward single #
face $-1 $43 $44 $25 $-1 $45 reversed single #
face $-1 $46 $47 $26 $-1 $48 forward single #
face $-1 $49 $50 $27 $-1 $51 forward single #
face $-1 $52 $53 $28 $-1 $54 forward single #
face $-1 $55 $56 $29 $-1 $57 reversed single #
face $-1 $58 $59 $30 $-1 $60 forward single #
face $-1 $61 $62 $31 $-1 $63 forward single #
face $-1 $64 $65 $24 $-1 $66 reversed single #
loop $-1 $-1 $67 $32 #
plane-surface $-1 0 0 6.7459948809235604 0 0 1 1 0 0 forward_v I I I I #
face $-1 $68 $69 $25 $-1 $70 reversed single #
loop $-1 $-1 $71 $33 #
plane-surface $-1 45.476260869536631 -24.864288845257349 1.5865632177940228 0 -0.73135370988377701 0.68199835119979291 1 0 0 forward_v I I I I #
face $-1 $72 $73 $26 $-1 $74 forward single #
loop $-1 $75 $76 $34 #
cone-surface $-1 37.423048306508704 -21.199648277147965 2.9922270154686674 0 0.73135370988377701 -0.68199835119979291 1 0 0 1 I I 0 1 1 forward I I I I #
face $-1 $77 $78 $27 $-1 $79 forward single #
loop $-1 $80 $81 $35 #
cone-surface $-1 45.476260869536631 -21.199648277147965 2.9922270154686674 0 0.73135370988377701 -0.68199835119979291 1 0 0 1 I I 0 1 1 forward I I I I #
face $-1 $82 $83 $28 $-1 $84 forward single #
loop $-1 $85 $86 $36 #
cone-surface $-1 53.529473432564558 -21.199648277147965 2.9922270154686674 0 0.73135370988377701 -0.68199835119979291 1 0 0 1 I I 0 1 1 forward I I I I #
face $-1 $87 $88 $29 $-1 $89 reversed single #
loop $-1 $-1 $90 $37 #
plane-surface $-1 42.457559906121759 -1.4878418252036454 44.48256297017479 0 0.84804810408105047 0.52991925155115449 1 0 0 forward_v I I I I #
face $-1 $91 $92 $30 $-1 $93 forward single #
loop $-1 $94 $95 $38 #
cone-surface $-1 35.411536233924025 22.601788749883017 3.980376217455444 0 -0.84804810408105047 -0.52991925155115449 1 0 0 1 I I 0 1 1 forward I I I I #
face $-1 $96 $97 $31 $-1 $98 forward single #
loop $-1 $99 $100 $39 #
cone-surface $-1 49.503583578319521 22.601788749883017 3.980376217455444 0 -0.84804810408105047 -0.52991925155115449 1 0 0 1 I I 0 1 1 forward I I I I #
face $-1 $101 $102 $24 $-1 $103 reversed single #
loop $-1 $-1 $104 $40 #
plane-surface $-1 0 0 -6.7459948809235604 0 0 1 1 0 0 forward_v I I I I #
coedge $-1 $105 $106 $107 $108 forward $41 $-1 #
face $-1 $109 $110 $25 $-1 $111 reversed single #
loop $-1 $-1 $112 $43 #
plane-surface $-1 32.054239931156758 -111.01524265725716 81.923625380793652 1 0 0 0 0.73135370988377701 -0.68199835119979291 forward_v I I I I #
coedge $-1 $113 $114 $115 $116 reversed $44 $-1 #
face $-1 $-1 $117 $26 $-1 $118 forward single #
loop $-1 $119 $120 $46 #
cone-surface $-1 37.423048306508704 -19.574954726532866 1.4771758059786402 0 0.73135370988377701 -0.68199835119979291 0.5 0 0 1 I I -0.70710678118654746 0.70710678118654746 0.5 forward I I I I #
loop $-1 $-1 $121 $34 #
coedge $-1 $76 $76 $122 $123 reversed $47 $-1 #
face $-1 $-1 $124 $27 $-1 $125 forward single #
loop $-1 $126 $127 $49 #
cone-surface $-1 45.476260869536631 -19.574954726532866 1.4771758059786402 0 0.73135370988377701 -0.68199835119979291 0.5 0 0 1 I I -0.70710678118654746 0.70710678118654746 0.5 forward I I I I #
loop $-1 $-1 $128 $35 #
coedge $-1 $81 $81 $129 $130 reversed $50 $-1 #
face $-1 $-1 $131 $28 $-1 $132 forward single #
loop $-1 $133 $134 $52 #
cone-surface $-1 53.529473432564558 -19.574954726532866 1.4771758059786402 0 0.73135370988377701 -0.68199835119979291 0.5 0 0 1 I I -0.70710678118654746 0.70710678118654746 0.5 forward I I I I #
loop $-1 $-1 $135 $36 #
coedge $-1 $86 $86 $136 $137 reversed $53 $-1 #
face $-1 $138 $139 $29 $-1 $140 forward single #
loop $-1 $-1 $141 $55 #
plane-surface $-1 26.01683800432702 98.409310616466385 106.90522979677498 1 0 0 0 -0.84804810408105047 -0.52991925155115449 forward_v I I I I #
coedge $-1 $142 $143 $144 $145 reversed $56 $-1 #
face $-1 $-1 $146 $30 $-1 $147 forward single #
loop $-1 $148 $149 $58 #
cone-surface $-1 35.411536233924025 21.301117907430392 3.167626898130238 0 -0.84804810408105047 -0.52991925155115449 0.5 0 0 1 I I -0.70710678118654746 0.70710678118654746 0.5 forward I I I I #
loop $-1 $-1 $150 $38 #
coedge $-1 $95 $95 $151 $152 reversed $59 $-1 #
face $-1 $-1 $153 $31 $-1 $154 forward single #
loop $-1 $155 $156 $61 #
cone-surface $-1 49.503583578319521 21.301117907430392 3.167626898130238 0 -0.84804810408105047 -0.52991925155115449 0.5 0 0 1 I I -0.70710678118654746 0.70710678118654746 0.5 forward I I I I #
loop $-1 $-1 $157 $39 #
coedge $-1 $100 $100 $158 $159 reversed $62 $-1 #
face $-1 $160 $161 $24 $-1 $162 reversed single #
loop $-1 $-1 $163 $64 #
plane-surface $-1 0 -24.864288845257345 0 0 1 0 0 0 1 forward_v I I I I #
coedge $-1 $164 $165 $166 $167 forward $65 $-1 #
coedge $-1 $168 $67 $169 $170 forward $41 $-1 #
coedge $-1 $67 $168 $171 $172 forward $41 $-1 #
coedge $-1 $173 $174 $67 $108 reversed $175 $-1 #
edge $-1 $176 -24.864288845257345 $177 24.864288845257345 $107 $178 forward 7 unknown #
face $-1 $179 $180 $25 $-1 $181 forward single #
loop $-1 $-1 $182 $68 #
plane-surface $-1 0 -24.864288845257345 0 0 1 0 0 0 1 forward_v I I I I #
coedge $-1 $183 $184 $185 $186 reversed $69 $-1 #
coedge $-1 $187 $71 $188 $189 reversed $44 $-1 #
coedge $-1 $71 $187 $183 $190 forward $44 $-1 #
coedge $-1 $185 $191 $71 $116 forward $180 $-1 #
edge $-1 $192 -36.160151373148189 $193 -9.3161094963884423 $115 $194 forward 7 unknown #
loop $-1 $-1 $122 $72 #
plane-surface $-1 45.476260869536631 -24.864288845257349 1.5865632177940228 0 -0.73135370988377701 0.68199835119979291 1 0 0 forward_v I I I I #
loop $-1 $-1 $195 $46 #
coedge $-1 $120 $120 $121 $196 reversed $73 $-1 #
coedge $-1 $121 $121 $120 $196 forward $75 $-1 #
coedge $-1 $122 $122 $76 $123 forward $117 $-1 #
edge $-1 $197 8.2491804020509236e-016 $197 6.2831853071796013 $122 $198 forward 7 unknown #
loop $-1 $-1 $129 $77 #
plane-surface $-1 45.476260869536631 -24.864288845257349 1.5865632177940228 0 -0.73135370988377701 0.68199835119979291 1 0 0 forward_v I I I I #
loop $-1 $-1 $199 $49 #
coedge $-1 $127 $127 $128 $200 reversed $78 $-1 #
coedge $-1 $128 $128 $127 $200 forward $80 $-1 #
coedge $-1 $129 $129 $81 $130 forward $124 $-1 #
edge $-1 $201 8.2491804020509236e-016 $201 6.2831853071796013 $129 $202 forward 7 unknown #
loop $-1 $-1 $136 $82 #
plane-surface $-1 45.476260869536631 -24.864288845257349 1.5865632177940228 0 -0.73135370988377701 0.68199835119979291 1 0 0 forward_v I I I I #
loop $-1 $-1 $203 $52 #
coedge $-1 $134 $134 $135 $204 reversed $83 $-1 #
coedge $-1 $135 $135 $134 $204 forward $85 $-1 #
coedge $-1 $136 $136 $86 $137 forward $131 $-1 #
edge $-1 $205 8.2491804020509236e-016 $205 6.2831853071796013 $136 $206 forward 7 unknown #
face $-1 $207 $208 $29 $-1 $209 reversed single #
loop $-1 $-1 $210 $87 #
plane-surface $-1 0 0 6.7459948809235604 0 0 1 1 0 0 forward_v I I I I #
coedge $-1 $211 $212 $213 $214 reversed $88 $-1 #
coedge $-1 $215 $90 $216 $217 reversed $56 $-1 #
coedge $-1 $90 $215 $211 $218 forward $56 $-1 #
coedge $-1 $213 $219 $90 $145 forward $220 $-1 #
edge $-1 $221 -37.669501854855625 $222 -4.788058051266141 $144 $223 forward 7 unknown #
loop $-1 $-1 $151 $91 #
plane-surface $-1 42.457559906121759 -1.4878418252036454 44.48256297017479 0 0.84804810408105047 0.52991925155115449 1 0 0 forward_v I I I I #
loop $-1 $-1 $224 $58 #
coedge $-1 $149 $149 $150 $225 reversed $92 $-1 #
coedge $-1 $150 $150 $149 $225 forward $94 $-1 #
coedge $-1 $151 $151 $95 $152 forward $146 $-1 #
edge $-1 $226 -3.7700270109167406e-016 $226 6.2831853071796004 $151 $227 forward 7 unknown #
loop $-1 $-1 $158 $96 #
plane-surface $-1 42.457559906121759 -1.4878418252036454 44.48256297017479 0 0.84804810408105047 0.52991925155115449 1 0 0 forward_v I I I I #
loop $-1 $-1 $228 $61 #
coedge $-1 $156 $156 $157 $229 reversed $97 $-1 #
coedge $-1 $157 $157 $156 $229 forward $99 $-1 #
coedge $-1 $158 $158 $100 $159 forward $153 $-1 #
edge $-1 $230 -3.7700270109167406e-016 $230 6.2831853071796004 $158 $231 forward 7 unknown #
face $-1 $232 $233 $24 $-1 $234 reversed single #
loop $-1 $-1 $235 $101 #
plane-surface $-1 -58.898281807916504 0 0 1 0 0 0 0 -1 forward_v I I I I #
coedge $-1 $236 $171 $237 $238 forward $102 $-1 #
coedge $-1 $239 $104 $236 $240 forward $65 $-1 #
coedge $-1 $104 $239 $241 $242 forward $65 $-1 #
coedge $-1 $174 $173 $104 $167 reversed $175 $-1 #
edge $-1 $243 -24.864288845257345 $244 24.864288845257345 $166 $245 forward 7 unknown #
coedge $-1 $106 $105 $246 $247 forward $41 $-1 #
coedge $-1 $248 $249 $105 $170 reversed $233 $-1 #
edge $-1 $177 -58.898281807916504 $250 58.898281807916504 $169 $251 forward 7 unknown #
coedge $-1 $163 $252 $106 $172 reversed $102 $-1 #
edge $-1 $253 -58.898281807916504 $176 58.898281807916504 $171 $254 forward 7 unknown #
coedge $-1 $166 $107 $252 $255 forward $175 $-1 #
coedge $-1 $107 $166 $248 $256 reversed $175 $-1 #
loop $-1 $-1 $173 $232 #
vertex $-1 $108 $257 #
vertex $-1 $108 $258 #
straight-curve $-1 58.898281807916504 0 6.7459948809235604 0 1 0 I I #
face $-1 $-1 $259 $25 $-1 $260 reversed single #
loop $-1 $-1 $185 $109 #
plane-surface $-1 0 0 6.7459948809235604 0 0 1 1 0 0 forward_v I I I I #
coedge $-1 $261 $262 $184 $263 forward $110 $-1 #
coedge $-1 $184 $112 $114 $190 reversed $69 $-1 #
coedge $-1 $112 $183 $182 $263 reversed $69 $-1 #
coedge $-1 $264 $115 $112 $186 forward $180 $-1 #
edge $-1 $193 -35.454580228243586 $265 -30.643332483371235 $185 $266 forward 7 unknown #
coedge $-1 $114 $113 $261 $267 reversed $44 $-1 #
coedge $-1 $268 $269 $113 $189 forward $259 $-1 #
edge $-1 $270 -7.8985325504610522 $192 -0.84390003352277954 $188 $271 forward 7 unknown #
edge $-1 $272 5.1836283459440792e-015 $193 7.0546325169382778 $183 $273 forward 7 unknown #
coedge $-1 $115 $264 $268 $274 forward $180 $-1 #
vertex $-1 $189 $275 #
vertex $-1 $116 $276 #
straight-curve $-1 22.738130434768316 -20.053041100384998 6.7459948809235595 -1 0 0 I I #
coedge $-1 $195 $195 $-1 $277 reversed $119 $-1 #
edge $-1 $278 0 $278 6.2831853071796004 $120 $279 forward 7 unknown #
vertex $-1 $123 $280 #
ellipse-curve $-1 37.423048306508704 -22.458664972821172 4.1662790493587938 0 -0.73135370988377701 0.68199835119979291 1 0 0 1 I I #
coedge $-1 $199 $199 $-1 $281 reversed $126 $-1 #
edge $-1 $282 0 $282 6.2831853071796004 $127 $283 forward 7 unknown #
vertex $-1 $130 $284 #
ellipse-curve $-1 45.476260869536631 -22.458664972821172 4.1662790493587938 0 -0.73135370988377701 0.68199835119979291 1 0 0 1 I I #
coedge $-1 $203 $203 $-1 $285 reversed $133 $-1 #
edge $-1 $286 0 $286 6.2831853071796004 $134 $287 forward 7 unknown #
vertex $-1 $137 $288 #
ellipse-curve $-1 53.529473432564558 -22.458664972821172 4.1662790493587938 0 -0.73135370988377701 0.68199835119979291 1 0 0 1 I I #
face $-1 $-1 $220 $29 $-1 $289 reversed single #
loop $-1 $-1 $216 $138 #
plane-surface $-1 58.898281807916504 0 0 -1 0 0 0 0 1 forward_v I I I I #
coedge $-1 $290 $291 $212 $292 forward $139 $-1 #
coedge $-1 $212 $141 $143 $218 reversed $88 $-1 #
coedge $-1 $141 $211 $210 $292 reversed $88 $-1 #
coedge $-1 $293 $144 $141 $214 forward $220 $-1 #
edge $-1 $222 -51.142277957300919 $294 -46.706620017463926 $213 $295 forward 7 unknown #
coedge $-1 $143 $142 $290 $296 reversed $56 $-1 #
coedge $-1 $297 $298 $142 $217 forward $208 $-1 #
edge $-1 $299 25.242251083052782 $221 30.472683081534161 $216 $300 forward 7 unknown #
edge $-1 $301 44.498145692033326 $222 49.728577690514712 $211 $302 forward 7 unknown #
coedge $-1 $144 $293 $297 $303 forward $220 $-1 #
loop $-1 $-1 $213 $207 #
vertex $-1 $217 $304 #
vertex $-1 $145 $305 #
straight-curve $-1 21.228779953060879 24.864288845257345 2.3103369410865717 -1 0 0 I I #
coedge $-1 $224 $224 $-1 $306 reversed $148 $-1 #
edge $-1 $307 0 $307 6.2831853071796004 $149 $308 forward 7 unknown #
vertex $-1 $152 $309 #
ellipse-curve $-1 35.411536233924025 23.478435540295116 4.5281659110050709 0 0.84804810408105047 0.52991925155115449 1 0 0 1 I I #
coedge $-1 $228 $228 $-1 $310 reversed $155 $-1 #
edge $-1 $311 0 $311 6.2831853071796004 $156 $312 forward 7 unknown #
vertex $-1 $159 $313 #
ellipse-curve $-1 49.503583578319521 23.478435540295116 4.5281659110050709 0 0.84804810408105047 0.52991925155115449 1 0 0 1 I I #
face $-1 $-1 $175 $24 $-1 $314 reversed single #
loop $-1 $-1 $248 $160 #
plane-surface $-1 0 24.864288845257345 0 0 -1 0 0 0 -1 forward_v I I I I #
coedge $-1 $315 $246 $249 $316 forward $161 $-1 #
coedge $-1 $252 $163 $164 $240 reversed $102 $-1 #
coedge $-1 $246 $315 $163 $238 reversed $161 $-1 #
edge $-1 $253 -6.7459948809235604 $317 6.7459948809235604 $237 $318 forward 7 unknown #
coedge $-1 $165 $164 $315 $319 forward $65 $-1 #
edge $-1 $244 -58.898281807916504 $317 58.898281807916504 $236 $320 forward 7 unknown #
coedge $-1 $249 $248 $165 $242 reversed $233 $-1 #
edge $-1 $321 -58.898281807916504 $243 58.898281807916504 $241 $322 forward 7 unknown #
vertex $-1 $167 $323 #
vertex $-1 $255 $324 #
straight-curve $-1 58.898281807916504 0 -6.7459948809235604 0 -1 0 I I #
coedge $-1 $235 $237 $168 $247 reversed $161 $-1 #
edge $-1 $250 -24.864288845257345 $253 24.864288845257345 $246 $325 forward 7 unknown #
coedge $-1 $241 $169 $174 $256 forward $233 $-1 #
coedge $-1 $169 $241 $235 $316 reversed $233 $-1 #
vertex $-1 $170 $326 #
straight-curve $-1 0 24.864288845257345 6.7459948809235604 -1 0 0 I I #
coedge $-1 $171 $236 $173 $255 reversed $102 $-1 #
vertex $-1 $247 $327 #
straight-curve $-1 0 -24.864288845257345 6.7459948809235604 1 0 0 I I #
edge $-1 $176 -6.7459948809235604 $244 6.7459948809235604 $173 $328 forward 7 unknown #
edge $-1 $177 -6.7459948809235604 $243 6.7459948809235604 $174 $329 forward 7 unknown #
point $-1 58.898281807916504 -24.864288845257345 6.7459948809235604 #
point $-1 58.898281807916504 24.864288845257345 6.7459948809235604 #
loop $-1 $-1 $188 $179 #
plane-surface $-1 58.898281807916504 0 0 -1 0 0 0 0 1 forward_v I I I I #
coedge $-1 $330 $182 $187 $267 forward $110 $-1 #
coedge $-1 $182 $330 $264 $331 reversed $110 $-1 #
edge $-1 $265 34.215817809473265 $272 39.375249472602796 $182 $332 forward 7 unknown #
coedge $-1 $191 $185 $262 $331 forward $180 $-1 #
vertex $-1 $331 $333 #
straight-curve $-1 32.054239931156758 -55.507621328628581 6.7459948809235613 0 -1 0 I I #
edge $-1 $272 9.3161094963884423 $270 36.160151373148189 $261 $334 forward 7 unknown #
coedge $-1 $269 $188 $191 $274 reversed $259 $-1 #
coedge $-1 $188 $268 $330 $335 forward $259 $-1 #
vertex $-1 $267 $336 #
straight-curve $-1 58.898281807916504 -19.477502668945011 7.3631843012114873 0 0.68199835119979291 0.73135370988377701 I I #
vertex $-1 $267 $337 #
straight-curve $-1 32.054239931156758 -24.864288845257349 1.5865632177940228 0 0.68199835119979291 0.73135370988377701 I I #
edge $-1 $338 -24.864288845257345 $192 -20.053041100384998 $268 $339 forward 7 unknown #
point $-1 58.898281807916504 -20.053041100384998 6.7459948809235604 #
point $-1 32.054239931156758 -20.053041100384998 6.7459948809235604 #
edge $-1 $340 1 $340 0 $195 $-1 forward 7 unknown #
vertex $-1 $196 $341 #
ellipse-curve $-1 37.423048306508704 -19.940631581474754 1.8181749815785366 0 -0.73135370988377701 0.68199835119979291 1 0 0 1 I I #
point $-1 38.423048306508704 -22.458664972821175 4.1662790493587982 #
edge $-1 $342 1 $342 0 $199 $-1 forward 7 unknown #
vertex $-1 $200 $343 #
ellipse-curve $-1 45.476260869536631 -19.940631581474754 1.8181749815785366 0 -0.73135370988377701 0.68199835119979291 1 0 0 1 I I #
point $-1 46.476260869536631 -22.458664972821175 4.1662790493587982 #
edge $-1 $344 1 $344 0 $203 $-1 forward 7 unknown #
vertex $-1 $204 $345 #
ellipse-curve $-1 53.529473432564558 -19.940631581474754 1.8181749815785366 0 -0.73135370988377701 0.68199835119979291 1 0 0 1 I I #
point $-1 54.529473432564558 -22.458664972821175 4.1662790493587982 #
plane-surface $-1 0 24.864288845257345 0 0 -1 0 0 0 -1 forward_v I I I I #
coedge $-1 $346 $210 $215 $296 forward $139 $-1 #
coedge $-1 $210 $346 $293 $347 forward $139 $-1 #
edge $-1 $294 24.340366462975847 $301 27.112073072900305 $210 $348 forward 7 unknown #
coedge $-1 $219 $213 $291 $347 reversed $220 $-1 #
vertex $-1 $292 $349 #
straight-curve $-1 26.01683800432702 24.864288845257349 53.452614898387488 0 0 1 I I #
edge $-1 $301 4.788058051266141 $299 37.669501854855618 $290 $350 forward 7 unknown #
coedge $-1 $298 $216 $219 $303 reversed $208 $-1 #
coedge $-1 $216 $297 $346 $351 reversed $208 $-1 #
vertex $-1 $351 $352 #
straight-curve $-1 58.898281807916504 8.7162274339352361 28.152638054644317 0 0.52991925155115449 -0.84804810408105047 I I #
vertex $-1 $296 $353 #
straight-curve $-1 26.01683800432702 -1.4878418252036454 44.48256297017479 0 0.52991925155115449 -0.84804810408105047 I I #
edge $-1 $354 -6.7459948809235604 $221 -2.3103369410865695 $297 $355 forward 7 unknown #
point $-1 58.898281807916504 24.864288845257345 2.3103369410865695 #
point $-1 26.01683800432702 24.864288845257345 2.3103369410865682 #
edge $-1 $356 1 $356 0 $224 $-1 forward 7 unknown #
vertex $-1 $225 $357 #
ellipse-curve $-1 35.411536233924025 21.725141959470918 3.4325865239058153 0 0.84804810408105047 0.52991925155115449 1 0 0 1 I I #
point $-1 36.411536233924025 23.47843554029512 4.5281659110050736 #
edge $-1 $358 1 $358 0 $228 $-1 forward 7 unknown #
vertex $-1 $229 $359 #
ellipse-curve $-1 49.503583578319521 21.725141959470918 3.4325865239058153 0 0.84804810408105047 0.52991925155115449 1 0 0 1 I I #
point $-1 50.503583578319521 23.47843554029512 4.5281659110050736 #
plane-surface $-1 58.898281807916504 0 0 -1 0 0 0 0 1 forward_v I I I I #
coedge $-1 $237 $235 $239 $319 reversed $161 $-1 #
edge $-1 $250 -6.7459948809235604 $321 6.7459948809235604 $249 $360 forward 7 unknown #
vertex $-1 $319 $361 #
straight-curve $-1 -58.898281807916504 -24.864288845257345 0 0 0 -1 I I #
edge $-1 $317 -24.864288845257345 $321 24.864288845257345 $315 $362 forward 7 unknown #
straight-curve $-1 0 -24.864288845257345 -6.7459948809235604 -1 0 0 I I #
vertex $-1 $242 $363 #
straight-curve $-1 0 24.864288845257345 -6.7459948809235604 1 0 0 I I #
point $-1 58.898281807916504 24.864288845257345 -6.7459948809235604 #
point $-1 58.898281807916504 -24.864288845257345 -6.7459948809235604 #
straight-curve $-1 -58.898281807916504 0 6.7459948809235604 0 -1 0 I I #
point $-1 -58.898281807916504 24.864288845257345 6.7459948809235604 #
point $-1 -58.898281807916504 -24.864288845257345 6.7459948809235604 #
straight-curve $-1 58.898281807916504 -24.864288845257345 0 0 0 -1 I I #
straight-curve $-1 58.898281807916504 24.864288845257345 0 0 0 -1 I I #
coedge $-1 $262 $261 $269 $335 reversed $110 $-1 #
edge $-1 $265 32.054239931156758 $338 58.898281807916504 $262 $364 forward 7 unknown #
straight-curve $-1 32.054239931156758 -24.864288845257349 40.961812690396826 0 0 -1 I I #
point $-1 32.054239931156758 -24.864288845257345 6.7459948809235604 #
straight-curve $-1 22.738130434768316 -24.864288845257345 1.5865632177940303 1 0 0 I I #
edge $-1 $338 -6.7459948809235604 $270 -1.5865632177940265 $269 $365 forward 7 unknown #
point $-1 58.898281807916504 -24.864288845257345 1.5865632177940265 #
point $-1 32.054239931156758 -24.864288845257345 1.5865632177940265 #
vertex $-1 $274 $366 #
straight-curve $-1 58.898281807916504 0 6.7459948809235604 0 1 0 I I #
vertex $-1 $277 $367 #
point $-1 38.423048306508704 -19.940631581474754 1.8181749815785366 #
vertex $-1 $281 $368 #
point $-1 46.476260869536631 -19.940631581474754 1.8181749815785366 #
vertex $-1 $285 $369 #
point $-1 54.529473432564558 -19.940631581474754 1.8181749815785366 #
coedge $-1 $291 $290 $298 $351 forward $139 $-1 #
edge $-1 $354 -58.898281807916504 $294 -26.01683800432702 $293 $370 forward 7 unknown #
straight-curve $-1 26.01683800432702 49.204655308233193 6.7459948809235613 0 -1 0 I I #
point $-1 26.01683800432702 24.864288845257345 6.7459948809235604 #
straight-curve $-1 21.228779953060879 22.092582235332888 6.7459948809235613 1 0 0 I I #
edge $-1 $299 22.092582235332888 $354 24.864288845257345 $298 $371 forward 7 unknown #
point $-1 58.898281807916497 22.092582235332888 6.7459948809235613 #
point $-1 26.01683800432702 22.092582235332888 6.7459948809235613 #
vertex $-1 $351 $372 #
straight-curve $-1 58.898281807916504 24.864288845257345 0 0 0 -1 I I #
vertex $-1 $306 $373 #
point $-1 36.411536233924025 21.725141959470918 3.4325865239058153 #
vertex $-1 $310 $374 #
point $-1 50.503583578319521 21.725141959470918 3.4325865239058153 #
straight-curve $-1 -58.898281807916504 24.864288845257345 0 0 0 -1 I I #
point $-1 -58.898281807916504 -24.864288845257345 -6.7459948809235604 #
straight-curve $-1 -58.898281807916504 0 -6.7459948809235604 0 1 0 I I #
point $-1 -58.898281807916504 24.864288845257345 -6.7459948809235604 #
straight-curve $-1 0 -24.864288845257345 6.7459948809235604 1 0 0 I I #
straight-curve $-1 58.898281807916504 -24.864288845257345 0 0 0 -1 I I #
point $-1 58.898281807916504 -24.864288845257345 6.7459948809235604 #
point $-1 37.423048306508704 -19.209277871590977 1.1361766303787437 #
point $-1 45.476260869536631 -19.209277871590977 1.1361766303787437 #
point $-1 53.529473432564558 -19.209277871590977 1.1361766303787437 #
straight-curve $-1 0 24.864288845257345 6.7459948809235604 -1 0 0 I I #
straight-curve $-1 58.898281807916504 0 6.7459948809235604 0 1 0 I I #
point $-1 58.898281807916504 24.864288845257345 6.7459948809235604 #
point $-1 35.411536233924025 20.877093855389866 2.9026672723546607 #
point $-1 49.503583578319521 20.877093855389866 2.9026672723546607 #
End-of-ACIS-data 