500 0 5 0           
7 Unknown 11 ACIS 5.0 NT 24 Thu Mar 25 19:59:56 1999 
-1 9.9999999999999995e-007 1e-010 
body $-1 $5 $-1 $6 #
body $-1 $7 $-1 $8 #
body $-1 $9 $-1 $10 #
body $-1 $11 $-1 $12 #
body $-1 $13 $-1 $14 #
lump $-1 $-1 $15 $0 #
transform $-1 1 0 0 0 1 0 0 0 1 78.734092226935644 32.687371349783064 12.198483667696683 1 rotate no_reflect no_shear #
lump $-1 $-1 $16 $1 #
transform $-1 1 0 0 0 1 0 0 0 1 78.734092226935644 32.687371349783064 12.198483667696683 1 rotate no_reflect no_shear #
lump $-1 $-1 $17 $2 #
transform $-1 1 0 0 0 1 0 0 0 1 78.734092226935644 32.687371349783064 12.198483667696683 1 rotate no_reflect no_shear #
lump $-1 $-1 $18 $3 #
transform $-1 1 0 0 0 1 0 0 0 1 78.734092226935644 32.687371349783064 12.198483667696683 1 rotate no_reflect no_shear #
lump $-1 $-1 $19 $4 #
transform $-1 1 0 0 0 1 0 0 0 1 78.734092226935644 32.687371349783064 12.198483667696683 1 rotate no_reflect no_shear #
shell $-1 $-1 $-1 $20 $-1 $5 #
shell $-1 $-1 $-1 $21 $-1 $7 #
shell $-1 $-1 $-1 $22 $-1 $9 #
shell $-1 $-1 $-1 $23 $-1 $11 #
shell $-1 $-1 $-1 $24 $-1 $13 #
face $-1 $25 $26 $15 $-1 $27 forward single #
face $-1 $28 $29 $16 $-1 $30 forward single #
face $-1 $31 $32 $17 $-1 $33 reversed single #
face $-1 $34 $35 $18 $-1 $36 forward single #
face $-1 $37 $38 $19 $-1 $39 forward single #
face $-1 $40 $41 $15 $-1 $42 reversed single #
loop $-1 $-1 $43 $20 #
plane-surface $-1 0 0 12.198483667696683 0 0 1 1 0 0 forward_v I I I I #
face $-1 $44 $45 $16 $-1 $46 reversed single #
loop $-1 $-1 $47 $21 #
plane-surface $-1 0 -32.687371349783064 0 0 1 0 0 0 1 forward_v I I I I #
face $-1 $48 $49 $17 $-1 $50 reversed single #
loop $-1 $-1 $51 $22 #
plane-surface $-1 -43.978373476237465 113.92147828676394 155.48978271492138 1 0 0 0 -0.77714596973225614 -0.62932038083071107 forward_v I I I I #
face $-1 $52 $53 $18 $-1 $54 forward single #
loop $-1 $55 $56 $23 #
cone-surface $-1 -31.339260215802696 28.180027621763241 7.410357387498955 0 -0.77714596973225614 -0.62932038083071107 2 0 0 1 I I 0 1 2 forward I I I I #
face $-1 $57 $58 $19 $-1 $59 forward single #
loop $-1 $60 $61 $24 #
cone-surface $-1 -12.38059032515055 28.180027621763241 7.410357387498955 0 -0.77714596973225614 -0.62932038083071107 2 0 0 1 I I 0 1 2 forward I I I I #
face $-1 $62 $63 $15 $-1 $64 reversed single #
loop $-1 $-1 $65 $25 #
plane-surface $-1 0 0 -12.198483667696683 0 0 1 1 0 0 forward_v I I I I #
coedge $-1 $66 $67 $68 $69 forward $26 $-1 #
face $-1 $70 $71 $16 $-1 $72 reversed single #
loop $-1 $-1 $73 $28 #
plane-surface $-1 0 0 -12.198483667696683 0 0 1 1 0 0 forward_v I I I I #
coedge $-1 $74 $75 $76 $77 forward $29 $-1 #
face $-1 $78 $79 $17 $-1 $80 reversed single #
loop $-1 $-1 $81 $31 #
plane-surface $-1 -21.859925270476623 -8.4542866226176443 56.391844905690434 0 0.77714596973225614 0.62932038083071107 1 0 0 forward_v I I I I #
coedge $-1 $82 $83 $84 $85 reversed $32 $-1 #
face $-1 $-1 $86 $18 $-1 $87 forward single #
loop $-1 $88 $89 $34 #
cone-surface $-1 -31.339260215802696 25.572828239435673 5.2990890130991506 0 -0.77714596973225614 -0.62932038083071107 1 0 0 1 I I -0.70710678118654746 0.70710678118654746 1 forward I I I I #
loop $-1 $-1 $90 $23 #
coedge $-1 $56 $56 $91 $92 reversed $35 $-1 #
face $-1 $-1 $93 $19 $-1 $94 forward single #
loop $-1 $95 $96 $37 #
cone-surface $-1 -12.38059032515055 25.572828239435673 5.2990890130991506 0 -0.77714596973225614 -0.62932038083071107 1 0 0 1 I I -0.70710678118654746 0.70710678118654746 1 forward I I I I #
loop $-1 $-1 $97 $24 #
coedge $-1 $61 $61 $98 $99 reversed $38 $-1 #
face $-1 $100 $101 $15 $-1 $102 reversed single #
loop $-1 $-1 $103 $40 #
plane-surface $-1 0 -32.687371349783064 0 0 1 0 0 0 1 forward_v I I I I #
coedge $-1 $104 $105 $106 $107 forward $41 $-1 #
coedge $-1 $108 $43 $109 $110 forward $26 $-1 #
coedge $-1 $43 $108 $111 $112 forward $26 $-1 #
coedge $-1 $113 $114 $43 $69 reversed $115 $-1 #
edge $-1 $116 -32.687371349783064 $117 32.687371349783064 $68 $118 forward 7 unknown #
face $-1 $119 $120 $16 $-1 $121 reversed single #
loop $-1 $-1 $122 $44 #
plane-surface $-1 -61.02614032235789 -46.915627304589009 0 0 1 0 0 0 1 forward_v I I I I #
coedge $-1 $123 $124 $75 $125 forward $45 $-1 #
coedge $-1 $126 $47 $127 $128 reversed $29 $-1 #
coedge $-1 $47 $126 $73 $125 reversed $29 $-1 #
coedge $-1 $129 $130 $47 $77 reversed $120 $-1 #
edge $-1 $131 -12.198483667696683 $132 12.198483667696683 $76 $133 forward 7 unknown #
face $-1 $134 $135 $17 $-1 $136 forward single #
loop $-1 $-1 $137 $48 #
plane-surface $-1 0.2585229352842191 113.92147828676394 155.48978271492138 -1 0 0 0 0.77714596973225614 0.62932038083071107 forward_v I I I I #
coedge $-1 $138 $139 $140 $141 reversed $49 $-1 #
coedge $-1 $83 $51 $142 $143 reversed $32 $-1 #
coedge $-1 $51 $82 $138 $144 reversed $32 $-1 #
coedge $-1 $140 $145 $51 $85 forward $135 $-1 #
edge $-1 $146 24.273367793598908 $147 29.627948424447958 $84 $148 forward 7 unknown #
loop $-1 $-1 $91 $52 #
plane-surface $-1 -21.859925270476623 -8.4542866226176443 56.391844905690434 0 0.77714596973225614 0.62932038083071107 1 0 0 forward_v I I I I #
loop $-1 $-1 $149 $34 #
coedge $-1 $89 $89 $90 $150 reversed $53 $-1 #
coedge $-1 $90 $90 $89 $150 forward $55 $-1 #
coedge $-1 $91 $91 $56 $92 forward $86 $-1 #
edge $-1 $151 -1.9505741675554339e-016 $151 6.2831853071796004 $91 $152 forward 7 unknown #
loop $-1 $-1 $98 $57 #
plane-surface $-1 -21.859925270476623 -8.4542866226176443 56.391844905690434 0 0.77714596973225614 0.62932038083071107 1 0 0 forward_v I I I I #
loop $-1 $-1 $153 $37 #
coedge $-1 $96 $96 $97 $154 reversed $58 $-1 #
coedge $-1 $97 $97 $96 $154 forward $60 $-1 #
coedge $-1 $98 $98 $61 $99 forward $93 $-1 #
edge $-1 $155 -1.9505741675554339e-016 $155 6.2831853071796004 $98 $156 forward 7 unknown #
face $-1 $157 $158 $15 $-1 $159 reversed single #
loop $-1 $-1 $160 $62 #
plane-surface $-1 -78.734092226935644 0 0 1 0 0 0 0 -1 forward_v I I I I #
coedge $-1 $161 $111 $162 $163 forward $63 $-1 #
coedge $-1 $164 $65 $161 $165 forward $41 $-1 #
coedge $-1 $65 $164 $166 $167 forward $41 $-1 #
coedge $-1 $114 $113 $65 $107 reversed $115 $-1 #
edge $-1 $168 -32.687371349783064 $169 32.687371349783064 $106 $170 forward 7 unknown #
coedge $-1 $67 $66 $171 $172 forward $26 $-1 #
coedge $-1 $173 $174 $66 $110 reversed $158 $-1 #
edge $-1 $117 -78.734092226935644 $175 78.734092226935644 $109 $176 forward 7 unknown #
coedge $-1 $103 $177 $67 $112 reversed $63 $-1 #
edge $-1 $178 -78.734092226935644 $116 78.734092226935644 $111 $179 forward 7 unknown #
coedge $-1 $106 $68 $177 $180 forward $115 $-1 #
coedge $-1 $68 $106 $173 $181 reversed $115 $-1 #
loop $-1 $-1 $113 $157 #
vertex $-1 $69 $182 #
vertex $-1 $69 $183 #
straight-curve $-1 78.734092226935644 0 12.198483667696683 0 1 0 I I #
face $-1 $184 $185 $16 $-1 $186 reversed single #
loop $-1 $-1 $76 $70 #
plane-surface $-1 -62.711040289752781 -39.801499327186036 0 1 0 0 0 0 -1 forward_v I I I I #
coedge $-1 $187 $188 $189 $190 forward $71 $-1 #
coedge $-1 $191 $73 $192 $193 forward $45 $-1 #
coedge $-1 $73 $191 $129 $194 forward $45 $-1 #
edge $-1 $131 -62.711040289752781 $195 -59.341240354962999 $73 $196 forward 7 unknown #
coedge $-1 $75 $74 $197 $198 forward $29 $-1 #
coedge $-1 $199 $200 $74 $128 forward $201 $-1 #
edge $-1 $202 59.341240354962999 $132 62.711040289752781 $127 $203 forward 7 unknown #
coedge $-1 $189 $76 $124 $194 reversed $120 $-1 #
coedge $-1 $76 $189 $199 $204 reversed $120 $-1 #
vertex $-1 $125 $205 #
vertex $-1 $204 $206 #
straight-curve $-1 -62.711040289752781 -32.687371349783064 0 0 0 1 I I #
face $-1 $-1 $207 $17 $-1 $208 reversed single #
loop $-1 $-1 $84 $78 #
plane-surface $-1 0 0 12.198483667696683 0 0 1 1 0 0 forward_v I I I I #
coedge $-1 $209 $210 $211 $212 reversed $79 $-1 #
coedge $-1 $213 $81 $83 $144 forward $49 $-1 #
coedge $-1 $81 $213 $209 $214 forward $49 $-1 #
coedge $-1 $211 $84 $81 $141 forward $135 $-1 #
edge $-1 $147 -33.048410840999153 $215 11.188485570522531 $140 $216 forward 7 unknown #
coedge $-1 $217 $218 $82 $143 forward $207 $-1 #
edge $-1 $219 -72.158764263021311 $146 -65.54640768976401 $142 $220 forward 7 unknown #
edge $-1 $147 56.866229716431953 $219 65.374742699566141 $83 $221 forward 7 unknown #
coedge $-1 $84 $211 $217 $222 forward $135 $-1 #
vertex $-1 $143 $223 #
vertex $-1 $85 $224 #
straight-curve $-1 -43.978373476237465 56.960739143381971 12.198483667696678 0 -1 0 I I #
coedge $-1 $149 $149 $-1 $225 reversed $88 $-1 #
edge $-1 $226 0 $226 6.2831853071796004 $89 $227 forward 7 unknown #
vertex $-1 $92 $228 #
ellipse-curve $-1 -31.339260215802696 30.010081034358532 8.8923053810680308 0 0.77714596973225614 0.62932038083071107 2 0 0 1 I I #
coedge $-1 $153 $153 $-1 $229 reversed $95 $-1 #
edge $-1 $230 0 $230 6.2831853071796004 $96 $231 forward 7 unknown #
vertex $-1 $99 $232 #
ellipse-curve $-1 -12.38059032515055 30.010081034358532 8.8923053810680308 0 0.77714596973225614 0.62932038083071107 2 0 0 1 I I #
face $-1 $-1 $115 $15 $-1 $233 reversed single #
loop $-1 $-1 $173 $100 #
plane-surface $-1 0 32.687371349783064 0 0 -1 0 0 0 -1 forward_v I I I I #
coedge $-1 $234 $171 $174 $235 forward $101 $-1 #
coedge $-1 $177 $103 $104 $165 reversed $63 $-1 #
coedge $-1 $171 $234 $103 $163 reversed $101 $-1 #
edge $-1 $178 -12.198483667696683 $236 12.198483667696683 $162 $237 forward 7 unknown #
coedge $-1 $105 $104 $234 $238 forward $41 $-1 #
edge $-1 $169 -78.734092226935644 $236 78.734092226935644 $161 $239 forward 7 unknown #
coedge $-1 $174 $173 $105 $167 reversed $158 $-1 #
edge $-1 $240 -78.734092226935644 $168 78.734092226935644 $166 $241 forward 7 unknown #
vertex $-1 $107 $242 #
vertex $-1 $180 $243 #
straight-curve $-1 78.734092226935644 0 -12.198483667696683 0 -1 0 I I #
coedge $-1 $160 $162 $108 $172 reversed $101 $-1 #
edge $-1 $175 -32.687371349783064 $178 32.687371349783064 $171 $244 forward 7 unknown #
coedge $-1 $166 $109 $114 $181 forward $158 $-1 #
coedge $-1 $109 $166 $160 $235 reversed $158 $-1 #
vertex $-1 $110 $245 #
straight-curve $-1 0 32.687371349783064 12.198483667696683 -1 0 0 I I #
coedge $-1 $111 $161 $113 $180 reversed $63 $-1 #
vertex $-1 $172 $246 #
straight-curve $-1 0 -32.687371349783064 12.198483667696683 1 0 0 I I #
edge $-1 $116 -12.198483667696683 $169 12.198483667696683 $113 $247 forward 7 unknown #
edge $-1 $117 -12.198483667696683 $168 12.198483667696683 $114 $248 forward 7 unknown #
point $-1 78.734092226935644 -32.687371349783064 12.198483667696683 #
point $-1 78.734092226935644 32.687371349783064 12.198483667696683 #
face $-1 $-1 $201 $16 $-1 $249 forward single #
loop $-1 $-1 $250 $119 #
plane-surface $-1 -59.341240354962999 -39.801499327186036 0 -1 0 0 0 0 1 forward_v I I I I #
coedge $-1 $251 $122 $191 $252 reversed $71 $-1 #
coedge $-1 $122 $251 $253 $254 reversed $71 $-1 #
coedge $-1 $130 $129 $122 $190 reversed $120 $-1 #
edge $-1 $255 -12.198483667696683 $256 12.198483667696683 $189 $257 forward 7 unknown #
coedge $-1 $124 $123 $187 $252 forward $45 $-1 #
coedge $-1 $197 $250 $123 $193 reversed $185 $-1 #
edge $-1 $195 -7.1141279774029726 $258 7.1141279774029726 $192 $259 forward 7 unknown #
edge $-1 $256 -7.1141279774029726 $131 7.1141279774029726 $129 $260 forward 7 unknown #
vertex $-1 $193 $261 #
straight-curve $-1 0 -32.687371349783064 -12.198483667696683 1 0 0 I I #
coedge $-1 $262 $192 $126 $198 reversed $185 $-1 #
edge $-1 $202 -12.198483667696683 $195 12.198483667696683 $197 $263 forward 7 unknown #
coedge $-1 $253 $127 $130 $204 forward $201 $-1 #
coedge $-1 $127 $253 $262 $264 forward $201 $-1 #
loop $-1 $-1 $127 $184 #
vertex $-1 $128 $265 #
straight-curve $-1 0 -32.687371349783064 12.198483667696683 -1 0 0 I I #
edge $-1 $132 -7.1141279774029726 $255 7.1141279774029726 $130 $266 forward 7 unknown #
point $-1 -62.711040289752781 -32.687371349783064 -12.198483667696683 #
point $-1 -62.711040289752781 -32.687371349783064 12.198483667696683 #
loop $-1 $-1 $142 $134 #
plane-surface $-1 0 32.687371349783064 0 0 -1 0 0 0 -1 forward_v I I I I #
coedge $-1 $210 $137 $139 $214 reversed $79 $-1 #
coedge $-1 $137 $209 $267 $268 reversed $79 $-1 #
coedge $-1 $145 $140 $137 $212 forward $135 $-1 #
edge $-1 $215 -29.627948424447958 $269 -24.273367793598908 $211 $270 forward 7 unknown #
coedge $-1 $139 $138 $218 $271 reversed $49 $-1 #
edge $-1 $272 -65.374742699566141 $215 -56.866229716431953 $209 $273 forward 7 unknown #
vertex $-1 $141 $274 #
straight-curve $-1 -10.929962635238311 27.332790718934007 12.198483667696681 1 0 0 I I #
coedge $-1 $267 $142 $145 $222 reversed $207 $-1 #
coedge $-1 $142 $267 $213 $271 forward $207 $-1 #
vertex $-1 $143 $275 #
straight-curve $-1 -43.978373476237465 32.687371349783064 77.744891357460688 0 0 1 I I #
straight-curve $-1 -43.978373476237465 -8.4542866226176443 56.391844905690434 0 0.62932038083071107 -0.77714596973225614 I I #
edge $-1 $269 -0.2585229352842191 $146 43.978373476237465 $217 $276 forward 7 unknown #
point $-1 -43.978373476237465 32.687371349783064 12.198483667696683 #
point $-1 -43.978373476237465 27.332790718934014 12.198483667696685 #
edge $-1 $277 1 $277 0 $149 $-1 forward 7 unknown #
vertex $-1 $150 $278 #
ellipse-curve $-1 -31.339260215802696 26.349974209167929 5.9284093939298614 0 0.77714596973225614 0.62932038083071107 2 0 0 1 I I #
point $-1 -29.339260215802696 30.010081034358553 8.8923053810680486 #
edge $-1 $279 1 $279 0 $153 $-1 forward 7 unknown #
vertex $-1 $154 $280 #
ellipse-curve $-1 -12.38059032515055 26.349974209167929 5.9284093939298614 0 0.77714596973225614 0.62932038083071107 2 0 0 1 I I #
point $-1 -10.38059032515055 30.010081034358553 8.8923053810680486 #
plane-surface $-1 78.734092226935644 0 0 -1 0 0 0 0 1 forward_v I I I I #
coedge $-1 $162 $160 $164 $238 reversed $101 $-1 #
edge $-1 $175 -12.198483667696683 $240 12.198483667696683 $174 $281 forward 7 unknown #
vertex $-1 $238 $282 #
straight-curve $-1 -78.734092226935644 -32.687371349783064 0 0 0 -1 I I #
edge $-1 $236 -32.687371349783064 $240 32.687371349783064 $234 $283 forward 7 unknown #
straight-curve $-1 0 -32.687371349783064 -12.198483667696683 -1 0 0 I I #
vertex $-1 $167 $284 #
straight-curve $-1 0 32.687371349783064 -12.198483667696683 1 0 0 I I #
point $-1 78.734092226935644 32.687371349783064 -12.198483667696683 #
point $-1 78.734092226935644 -32.687371349783064 -12.198483667696683 #
straight-curve $-1 -78.734092226935644 0 12.198483667696683 0 -1 0 I I #
point $-1 -78.734092226935644 32.687371349783064 12.198483667696683 #
point $-1 -78.734092226935644 -32.687371349783064 12.198483667696683 #
straight-curve $-1 78.734092226935644 -32.687371349783064 0 0 0 -1 I I #
straight-curve $-1 78.734092226935644 32.687371349783064 0 0 0 -1 I I #
plane-surface $-1 0 0 12.198483667696683 0 0 1 1 0 0 forward_v I I I I #
coedge $-1 $192 $262 $251 $285 forward $185 $-1 #
coedge $-1 $188 $187 $250 $285 reversed $71 $-1 #
edge $-1 $258 -1.684899967394891 $256 1.684899967394891 $187 $286 forward 7 unknown #
coedge $-1 $200 $199 $188 $254 forward $201 $-1 #
edge $-1 $255 -1.684899967394891 $287 1.684899967394891 $188 $288 forward 7 unknown #
vertex $-1 $204 $289 #
vertex $-1 $194 $290 #
straight-curve $-1 -62.711040289752781 -46.915627304589009 0 0 0 -1 I I #
vertex $-1 $285 $291 #
straight-curve $-1 -59.341240354962999 -39.801499327186036 -12.198483667696683 0 -1 0 I I #
straight-curve $-1 -62.711040289752781 -39.801499327186036 -12.198483667696683 0 1 0 I I #
point $-1 -59.341240354962999 -32.687371349783064 -12.198483667696683 #
coedge $-1 $250 $197 $200 $264 reversed $185 $-1 #
straight-curve $-1 -59.341240354962999 -32.687371349783064 0 0 0 -1 I I #
edge $-1 $287 -7.1141279774029726 $202 7.1141279774029726 $262 $292 forward 7 unknown #
point $-1 -59.341240354962999 -32.687371349783064 12.198483667696683 #
straight-curve $-1 -62.711040289752781 -39.801499327186036 12.198483667696683 0 -1 0 I I #
coedge $-1 $218 $217 $210 $268 forward $207 $-1 #
edge $-1 $269 65.54640768976401 $272 72.158764263021311 $267 $293 forward 7 unknown #
vertex $-1 $222 $294 #
straight-curve $-1 0.2585229352842191 56.960739143381971 12.198483667696678 0 1 0 I I #
edge $-1 $272 -11.188485570522531 $219 33.048410840999153 $218 $295 forward 7 unknown #
vertex $-1 $271 $296 #
straight-curve $-1 0.2585229352842191 -8.4542866226176443 56.391844905690434 0 -0.62932038083071107 0.77714596973225614 I I #
point $-1 0.2585229352842191 27.332790718934014 12.198483667696685 #
point $-1 -43.978373476237465 32.687371349783071 5.5861270944393695 #
straight-curve $-1 0 32.687371349783064 12.198483667696683 -1 0 0 I I #
vertex $-1 $225 $297 #
point $-1 -29.339260215802696 26.349974209167929 5.9284093939298614 #
vertex $-1 $229 $298 #
point $-1 -10.38059032515055 26.349974209167929 5.9284093939298614 #
straight-curve $-1 -78.734092226935644 32.687371349783064 0 0 0 -1 I I #
point $-1 -78.734092226935644 -32.687371349783064 -12.198483667696683 #
straight-curve $-1 -78.734092226935644 0 -12.198483667696683 0 1 0 I I #
point $-1 -78.734092226935644 32.687371349783064 -12.198483667696683 #
edge $-1 $287 -12.198483667696683 $258 12.198483667696683 $250 $299 forward 7 unknown #
straight-curve $-1 -61.02614032235789 -46.915627304589009 -12.198483667696683 -1 0 0 I I #
vertex $-1 $264 $300 #
straight-curve $-1 -61.02614032235789 -46.915627304589009 12.198483667696683 1 0 0 I I #
point $-1 -62.711040289752781 -46.915627304589009 12.198483667696683 #
point $-1 -62.711040289752781 -46.915627304589009 -12.198483667696683 #
point $-1 -59.341240354962999 -46.915627304589009 -12.198483667696683 #
straight-curve $-1 -59.341240354962999 -39.801499327186036 12.198483667696683 0 1 0 I I #
straight-curve $-1 0.2585229352842191 32.687371349783064 77.744891357460688 0 0 -1 I I #
point $-1 0.2585229352842191 32.687371349783064 12.198483667696683 #
straight-curve $-1 -10.929962635238311 32.687371349783064 5.5861270944393802 -1 0 0 I I #
point $-1 0.2585229352842191 32.687371349783071 5.5861270944393695 #
point $-1 -31.339260215802696 24.795682269703416 4.6697686322684397 #
point $-1 -12.38059032515055 24.795682269703416 4.6697686322684397 #
straight-curve $-1 -59.341240354962999 -46.915627304589009 0 0 0 -1 I I #
point $-1 -59.341240354962999 -46.915627304589009 12.198483667696683 #
End-of-ACIS-data 