500 0 7 0           
7 Unknown 11 ACIS 5.0 NT 24 Thu Mar 25 18:01:14 1999 
-1 9.9999999999999995e-007 1e-010 
body $-1 $7 $-1 $8 #
body $-1 $9 $-1 $10 #
body $-1 $11 $-1 $12 #
body $-1 $13 $-1 $14 #
body $-1 $15 $-1 $16 #
body $-1 $17 $-1 $18 #
body $-1 $19 $-1 $20 #
lump $-1 $-1 $21 $0 #
transform $-1 1 0 0 0 1 0 0 0 1 60.949125644703514 36.764969423665825 17.727117463065458 1 rotate no_reflect no_shear #
lump $-1 $-1 $22 $1 #
transform $-1 1 0 0 0 1 0 0 0 1 60.949125644703514 36.764969423665825 17.727117463065458 1 rotate no_reflect no_shear #
lump $-1 $-1 $23 $2 #
transform $-1 1 0 0 0 1 0 0 0 1 60.949125644703514 36.764969423665825 17.727117463065458 1 rotate no_reflect no_shear #
lump $-1 $-1 $24 $3 #
transform $-1 1 0 0 0 1 0 0 0 1 60.949125644703514 36.764969423665825 17.727117463065458 1 rotate no_reflect no_shear #
lump $-1 $-1 $25 $4 #
transform $-1 1 0 0 0 1 0 0 0 1 60.949125644703514 36.764969423665825 17.727117463065458 1 rotate no_reflect no_shear #
lump $-1 $-1 $26 $5 #
transform $-1 1 0 0 0 1 0 0 0 1 60.949125644703514 36.764969423665825 17.727117463065458 1 rotate no_reflect no_shear #
lump $-1 $-1 $27 $6 #
transform $-1 1 0 0 0 1 0 0 0 1 60.949125644703514 36.764969423665825 17.727117463065458 1 rotate no_reflect no_shear #
shell $-1 $-1 $-1 $28 $-1 $7 #
shell $-1 $-1 $-1 $29 $-1 $9 #
shell $-1 $-1 $-1 $30 $-1 $11 #
shell $-1 $-1 $-1 $31 $-1 $13 #
shell $-1 $-1 $-1 $32 $-1 $15 #
shell $-1 $-1 $-1 $33 $-1 $17 #
shell $-1 $-1 $-1 $34 $-1 $19 #
face $-1 $35 $36 $21 $-1 $37 forward single #
face $-1 $38 $39 $22 $-1 $40 reversed single #
face $-1 $41 $42 $23 $-1 $43 forward single #
face $-1 $44 $45 $24 $-1 $46 reversed single #
face $-1 $47 $48 $25 $-1 $49 forward single #
face $-1 $50 $51 $26 $-1 $52 forward single #
face $-1 $53 $54 $27 $-1 $55 forward single #
face $-1 $56 $57 $21 $-1 $58 reversed single #
loop $-1 $-1 $59 $28 #
plane-surface $-1 0 0 17.727117463065458 0 0 1 1 0 0 forward_v I I I I #
face $-1 $60 $61 $22 $-1 $62 reversed single #
loop $-1 $-1 $63 $29 #
plane-surface $-1 -135.99718381429761 -24.947796813363908 97.140305840588226 0 1 0 -0.61566148304635926 0 0.78801074757464917 forward_v I I I I #
face $-1 $64 $65 $23 $-1 $66 forward single #
loop $-1 $67 $68 $30 #
cone-surface $-1 -48.278601937721469 -14.007393744442787 6.821089836488869 0.61566148304635926 0 -0.78801074757464917 3.1520429902985967 0 2.462645932185437 1 I I 0 1 4 forward I I I I #
face $-1 $69 $70 $24 $-1 $71 reversed single #
loop $-1 $-1 $72 $31 #
plane-surface $-1 28.05553384702992 16.176721187861098 182.543207686475 0 1 0 0.55919291073839883 0 0.82903756765294845 forward_v I I I I #
face $-1 $73 $74 $25 $-1 $75 forward single #
loop $-1 $76 $77 $32 #
cone-surface $-1 57.239150986826665 20.294370835022043 14.86648488380529 -0.55919291073839883 0 -0.82903756765294845 1.2435563514794228 0 -0.83878936610759824 1 I I 0 1 1.5 forward I I I I #
face $-1 $78 $79 $26 $-1 $80 forward single #
loop $-1 $81 $82 $33 #
cone-surface $-1 57.239150986826665 26.470845305763461 14.86648488380529 -0.55919291073839883 0 -0.82903756765294845 1.2435563514794228 0 -0.83878936610759824 1 I I 0 1 1.5 forward I I I I #
face $-1 $83 $84 $27 $-1 $85 forward single #
loop $-1 $86 $87 $34 #
cone-surface $-1 57.239150986826665 32.647319776504879 14.86648488380529 -0.55919291073839883 0 -0.82903756765294845 1.2435563514794228 0 -0.83878936610759824 1 I I 0 1 1.5 forward I I I I #
face $-1 $88 $89 $21 $-1 $90 reversed single #
loop $-1 $-1 $91 $35 #
plane-surface $-1 0 0 -17.727117463065458 0 0 1 1 0 0 forward_v I I I I #
coedge $-1 $92 $93 $94 $95 forward $36 $-1 #
face $-1 $96 $97 $22 $-1 $98 reversed single #
loop $-1 $-1 $99 $38 #
plane-surface $-1 -60.949125644703514 -14.007393744442787 1.0831737139801589 -0.61566148304635926 0 0.78801074757464917 0.78801074757464917 0 0.61566148304635926 forward_v I I I I #
coedge $-1 $100 $101 $102 $103 reversed $39 $-1 #
face $-1 $-1 $104 $23 $-1 $105 forward single #
loop $-1 $106 $107 $41 #
cone-surface $-1 -45.028393313700612 -14.007393744442787 2.6610125893056313 0.61566148304635926 0 -0.78801074757464917 1.5760214951492983 0 1.2313229660927185 1 I I -0.70710678118654746 0.70710678118654746 2 forward I I I I #
loop $-1 $-1 $108 $30 #
coedge $-1 $68 $68 $109 $110 reversed $42 $-1 #
face $-1 $111 $112 $24 $-1 $113 reversed single #
loop $-1 $-1 $114 $44 #
plane-surface $-1 -40.109104105414389 26.470845305763461 81.484977936357097 0.55919291073839883 0 0.82903756765294845 0.82903756765294845 0 -0.55919291073839883 forward_v I I I I #
coedge $-1 $115 $116 $117 $118 reversed $45 $-1 #
face $-1 $-1 $119 $25 $-1 $120 forward single #
loop $-1 $121 $122 $47 #
cone-surface $-1 56.376439727880921 20.294370835022043 13.587462868381731 -0.55919291073839883 0 -0.82903756765294845 0.62177817573971139 0 -0.41939468305379912 1 I I -0.70710678118654757 0.70710678118654757 0.75 forward I I I I #
loop $-1 $-1 $123 $32 #
coedge $-1 $77 $77 $124 $125 reversed $48 $-1 #
face $-1 $-1 $126 $26 $-1 $127 forward single #
loop $-1 $128 $129 $50 #
cone-surface $-1 56.376439727880921 26.470845305763461 13.587462868381731 -0.55919291073839883 0 -0.82903756765294845 0.62177817573971139 0 -0.41939468305379912 1 I I -0.70710678118654757 0.70710678118654757 0.75 forward I I I I #
loop $-1 $-1 $130 $33 #
coedge $-1 $82 $82 $131 $132 reversed $51 $-1 #
face $-1 $-1 $133 $27 $-1 $134 forward single #
loop $-1 $135 $136 $53 #
cone-surface $-1 56.376439727880921 32.647319776504879 13.587462868381731 -0.55919291073839883 0 -0.82903756765294845 0.62177817573971139 0 -0.41939468305379912 1 I I -0.70710678118654757 0.70710678118654757 0.75 forward I I I I #
loop $-1 $-1 $137 $34 #
coedge $-1 $87 $87 $138 $139 reversed $54 $-1 #
face $-1 $140 $141 $21 $-1 $142 reversed single #
loop $-1 $-1 $143 $56 #
plane-surface $-1 0 -36.764969423665825 0 0 1 0 0 0 1 forward_v I I I I #
coedge $-1 $144 $145 $146 $147 forward $57 $-1 #
coedge $-1 $148 $59 $149 $150 forward $36 $-1 #
coedge $-1 $59 $148 $151 $152 forward $36 $-1 #
coedge $-1 $153 $154 $59 $95 reversed $155 $-1 #
edge $-1 $156 -36.764969423665825 $157 36.764969423665825 $94 $158 forward 7 unknown #
face $-1 $159 $160 $22 $-1 $161 reversed single #
loop $-1 $-1 $162 $60 #
plane-surface $-1 -135.99718381429761 -3.0669906755216658 97.140305840588226 0 -1 0 0.61566148304635926 0 -0.78801074757464917 forward_v I I I I #
coedge $-1 $163 $164 $165 $166 reversed $61 $-1 #
coedge $-1 $101 $63 $167 $168 reversed $39 $-1 #
coedge $-1 $63 $100 $163 $169 reversed $39 $-1 #
coedge $-1 $165 $170 $63 $103 forward $171 $-1 #
edge $-1 $172 7.0494662624452928 $173 28.352742360553108 $102 $174 forward 7 unknown #
loop $-1 $-1 $109 $64 #
plane-surface $-1 -60.949125644703514 -14.007393744442787 1.0831737139801589 -0.61566148304635926 0 0.78801074757464917 0.78801074757464917 0 0.61566148304635926 forward_v I I I I #
loop $-1 $-1 $175 $41 #
coedge $-1 $107 $107 $108 $176 reversed $65 $-1 #
coedge $-1 $108 $108 $107 $176 forward $67 $-1 #
coedge $-1 $109 $109 $68 $110 forward $104 $-1 #
edge $-1 $177 0 $177 6.2831853071796004 $109 $178 forward 7 unknown #
face $-1 $179 $180 $24 $-1 $181 forward single #
loop $-1 $-1 $182 $69 #
plane-surface $-1 0 36.764969423665825 0 0 -1 0 0 0 -1 forward_v I I I I #
coedge $-1 $183 $184 $185 $186 reversed $70 $-1 #
coedge $-1 $116 $72 $187 $188 reversed $45 $-1 #
coedge $-1 $72 $115 $183 $189 reversed $45 $-1 #
coedge $-1 $185 $190 $72 $118 forward $191 $-1 #
edge $-1 $192 73.544486380172046 $193 77.951263859324712 $117 $194 forward 7 unknown #
loop $-1 $-1 $124 $73 #
plane-surface $-1 -40.109104105414389 26.470845305763461 81.484977936357097 0.55919291073839883 0 0.82903756765294845 0.82903756765294845 0 -0.55919291073839883 forward_v I I I I #
loop $-1 $-1 $195 $47 #
coedge $-1 $122 $122 $123 $196 reversed $74 $-1 #
coedge $-1 $123 $123 $122 $196 forward $76 $-1 #
coedge $-1 $124 $124 $77 $125 forward $119 $-1 #
edge $-1 $197 0 $197 6.2831853071796004 $124 $198 forward 7 unknown #
loop $-1 $-1 $131 $78 #
plane-surface $-1 -40.109104105414389 26.470845305763461 81.484977936357097 0.55919291073839883 0 0.82903756765294845 0.82903756765294845 0 -0.55919291073839883 forward_v I I I I #
loop $-1 $-1 $199 $50 #
coedge $-1 $129 $129 $130 $200 reversed $79 $-1 #
coedge $-1 $130 $130 $129 $200 forward $81 $-1 #
coedge $-1 $131 $131 $82 $132 forward $126 $-1 #
edge $-1 $201 0 $201 6.2831853071796004 $131 $202 forward 7 unknown #
loop $-1 $-1 $138 $83 #
plane-surface $-1 -40.109104105414389 26.470845305763461 81.484977936357097 0.55919291073839883 0 0.82903756765294845 0.82903756765294845 0 -0.55919291073839883 forward_v I I I I #
loop $-1 $-1 $203 $53 #
coedge $-1 $136 $136 $137 $204 reversed $84 $-1 #
coedge $-1 $137 $137 $136 $204 forward $86 $-1 #
coedge $-1 $138 $138 $87 $139 forward $133 $-1 #
edge $-1 $205 0 $205 6.2831853071796004 $138 $206 forward 7 unknown #
face $-1 $207 $208 $21 $-1 $209 reversed single #
loop $-1 $-1 $210 $88 #
plane-surface $-1 -60.949125644703514 0 0 1 0 0 0 0 -1 forward_v I I I I #
coedge $-1 $211 $151 $212 $213 forward $89 $-1 #
coedge $-1 $214 $91 $211 $215 forward $57 $-1 #
coedge $-1 $91 $214 $216 $217 forward $57 $-1 #
coedge $-1 $154 $153 $91 $147 reversed $155 $-1 #
edge $-1 $218 -36.764969423665825 $219 36.764969423665825 $146 $220 forward 7 unknown #
coedge $-1 $93 $92 $221 $222 forward $36 $-1 #
coedge $-1 $223 $224 $92 $150 reversed $208 $-1 #
edge $-1 $157 -60.949125644703514 $225 60.949125644703514 $149 $226 forward 7 unknown #
coedge $-1 $143 $227 $93 $152 reversed $89 $-1 #
edge $-1 $228 -60.949125644703514 $156 60.949125644703514 $151 $229 forward 7 unknown #
coedge $-1 $146 $94 $227 $230 forward $155 $-1 #
coedge $-1 $94 $146 $223 $231 reversed $155 $-1 #
loop $-1 $-1 $153 $207 #
vertex $-1 $95 $232 #
vertex $-1 $95 $233 #
straight-curve $-1 60.949125644703514 0 17.727117463065458 0 1 0 I I #
face $-1 $-1 $171 $22 $-1 $234 forward single #
loop $-1 $-1 $235 $96 #
plane-surface $-1 -60.949125644703514 0 0 1 0 0 0 0 -1 forward_v I I I I #
coedge $-1 $236 $237 $238 $239 reversed $97 $-1 #
coedge $-1 $240 $99 $101 $169 forward $61 $-1 #
coedge $-1 $99 $240 $236 $241 forward $61 $-1 #
coedge $-1 $238 $102 $99 $166 forward $171 $-1 #
edge $-1 $173 -17.944099941142515 $242 3.9367061966997277 $165 $243 forward 7 unknown #
coedge $-1 $244 $245 $100 $168 forward $160 $-1 #
edge $-1 $246 -47.486979206313954 $172 -30.843035457228655 $167 $247 forward 7 unknown #
edge $-1 $173 -27.03424561616113 $246 0 $101 $248 forward 7 unknown #
coedge $-1 $102 $238 $244 $249 forward $171 $-1 #
loop $-1 $-1 $238 $159 #
vertex $-1 $168 $250 #
vertex $-1 $103 $251 #
straight-curve $-1 -67.998591907148807 -24.947796813363908 17.727117463065454 1 0 0 I I #
coedge $-1 $175 $175 $-1 $252 reversed $106 $-1 #
edge $-1 $253 0 $253 6.2831853071796004 $107 $254 forward 7 unknown #
vertex $-1 $110 $255 #
ellipse-curve $-1 -50.297487595649606 -14.007393744442787 9.4051455885228066 -0.61566148304635926 0 0.78801074757464917 3.1520429902985967 0 2.462645932185437 1 I I #
face $-1 $-1 $191 $24 $-1 $256 reversed single #
loop $-1 $-1 $257 $111 #
plane-surface $-1 0 0 17.727117463065458 0 0 1 1 0 0 forward_v I I I I #
coedge $-1 $258 $259 $184 $260 forward $112 $-1 #
coedge $-1 $261 $114 $116 $189 forward $70 $-1 #
coedge $-1 $114 $261 $182 $260 reversed $70 $-1 #
coedge $-1 $262 $117 $114 $186 forward $191 $-1 #
edge $-1 $193 2.9412985349793672 $263 23.529546770784094 $185 $264 forward 7 unknown #
coedge $-1 $265 $257 $115 $188 forward $180 $-1 #
edge $-1 $266 40.388042557218739 $192 46.921358721188554 $187 $267 forward 7 unknown #
edge $-1 $193 -121.89825128940704 $266 -114.01764802257802 $116 $268 forward 7 unknown #
coedge $-1 $117 $262 $265 $269 reversed $191 $-1 #
loop $-1 $-1 $185 $179 #
vertex $-1 $269 $270 #
vertex $-1 $118 $271 #
straight-curve $-1 60.949125644703514 16.176721187861098 91.2716038432375 0 0 -1 I I #
coedge $-1 $195 $195 $-1 $272 reversed $121 $-1 #
edge $-1 $273 0 $273 6.2831853071796004 $122 $274 forward 7 unknown #
vertex $-1 $125 $275 #
ellipse-curve $-1 57.682467562718607 20.294370835022043 15.523728723489132 0.55919291073839883 0 0.82903756765294845 1.2435563514794228 0 -0.83878936610759824 1 I I #
coedge $-1 $199 $199 $-1 $276 reversed $128 $-1 #
edge $-1 $277 0 $277 6.2831853071796004 $129 $278 forward 7 unknown #
vertex $-1 $132 $279 #
ellipse-curve $-1 57.682467562718607 26.470845305763461 15.523728723489132 0.55919291073839883 0 0.82903756765294845 1.2435563514794228 0 -0.83878936610759824 1 I I #
coedge $-1 $203 $203 $-1 $280 reversed $135 $-1 #
edge $-1 $281 0 $281 6.2831853071796004 $136 $282 forward 7 unknown #
vertex $-1 $139 $283 #
ellipse-curve $-1 57.682467562718607 32.647319776504879 15.523728723489132 0.55919291073839883 0 0.82903756765294845 1.2435563514794228 0 -0.83878936610759824 1 I I #
face $-1 $-1 $155 $21 $-1 $284 reversed single #
loop $-1 $-1 $223 $140 #
plane-surface $-1 0 36.764969423665825 0 0 -1 0 0 0 -1 forward_v I I I I #
coedge $-1 $285 $221 $224 $286 forward $141 $-1 #
coedge $-1 $227 $143 $144 $215 reversed $89 $-1 #
coedge $-1 $221 $285 $143 $213 reversed $141 $-1 #
edge $-1 $228 -17.727117463065458 $287 17.727117463065458 $212 $288 forward 7 unknown #
coedge $-1 $145 $144 $285 $289 forward $57 $-1 #
edge $-1 $219 -60.949125644703514 $287 60.949125644703514 $211 $290 forward 7 unknown #
coedge $-1 $224 $223 $145 $217 reversed $208 $-1 #
edge $-1 $291 -60.949125644703514 $218 60.949125644703514 $216 $292 forward 7 unknown #
vertex $-1 $147 $293 #
vertex $-1 $230 $294 #
straight-curve $-1 60.949125644703514 0 -17.727117463065458 0 -1 0 I I #
coedge $-1 $210 $212 $148 $222 reversed $141 $-1 #
edge $-1 $225 -36.764969423665825 $228 36.764969423665825 $221 $295 forward 7 unknown #
coedge $-1 $216 $149 $154 $231 forward $208 $-1 #
coedge $-1 $149 $216 $210 $286 reversed $208 $-1 #
vertex $-1 $150 $296 #
straight-curve $-1 0 36.764969423665825 17.727117463065458 -1 0 0 I I #
coedge $-1 $151 $211 $153 $230 reversed $89 $-1 #
vertex $-1 $222 $297 #
straight-curve $-1 0 -36.764969423665825 17.727117463065458 1 0 0 I I #
edge $-1 $156 -17.727117463065458 $219 17.727117463065458 $153 $298 forward 7 unknown #
edge $-1 $157 -17.727117463065458 $218 17.727117463065458 $154 $299 forward 7 unknown #
point $-1 60.949125644703514 -36.764969423665825 17.727117463065458 #
point $-1 60.949125644703514 36.764969423665825 17.727117463065458 #
plane-surface $-1 0 0 17.727117463065458 0 0 1 1 0 0 forward_v I I I I #
coedge $-1 $245 $244 $237 $300 forward $160 $-1 #
coedge $-1 $237 $162 $164 $241 reversed $97 $-1 #
coedge $-1 $162 $236 $235 $300 reversed $97 $-1 #
coedge $-1 $170 $165 $162 $239 forward $171 $-1 #
edge $-1 $242 -28.352742360553108 $301 -7.0494662624452928 $238 $302 forward 7 unknown #
coedge $-1 $164 $163 $245 $303 reversed $61 $-1 #
edge $-1 $304 0 $242 27.03424561616113 $236 $305 forward 7 unknown #
vertex $-1 $166 $306 #
straight-curve $-1 -39.645849546595699 -7.0036968722213935 17.727117463065458 0 1 0 I I #
coedge $-1 $235 $167 $170 $249 reversed $160 $-1 #
coedge $-1 $167 $235 $240 $303 forward $160 $-1 #
vertex $-1 $168 $307 #
straight-curve $-1 -60.949125644703514 -24.947796813363908 48.570152920294113 0 0 1 I I #
straight-curve $-1 -60.949125644703514 -24.947796813363908 1.0831737139801589 -0.78801074757464917 0 -0.61566148304635926 I I #
edge $-1 $301 3.0669906755216658 $172 24.947796813363908 $244 $308 forward 7 unknown #
point $-1 -60.949125644703514 -24.947796813363908 17.727117463065458 #
point $-1 -39.645849546595699 -24.947796813363908 17.727117463065458 #
edge $-1 $309 1 $309 0 $175 $-1 forward 7 unknown #
vertex $-1 $176 $310 #
ellipse-curve $-1 -46.259716279793331 -14.007393744442787 4.2370340844549297 -0.61566148304635926 0 0.78801074757464917 3.1520429902985967 0 2.462645932185437 1 I I #
point $-1 -47.14544460535101 -14.007393744442787 11.867791520708245 #
plane-surface $-1 60.949125644703514 0 0 -1 0 0 0 0 1 forward_v I I I I #
coedge $-1 $187 $311 $261 $312 forward $180 $-1 #
coedge $-1 $259 $182 $311 $313 reversed $112 $-1 #
coedge $-1 $182 $258 $262 $314 forward $112 $-1 #
edge $-1 $263 -82.489363238418349 $315 -74.608759971589322 $182 $316 forward 7 unknown #
coedge $-1 $184 $183 $257 $312 reversed $70 $-1 #
coedge $-1 $190 $185 $259 $314 reversed $191 $-1 #
vertex $-1 $260 $317 #
straight-curve $-1 60.949125644703521 13.235422652881731 13.320339983912792 0 1 0 I I #
coedge $-1 $311 $187 $190 $269 forward $180 $-1 #
vertex $-1 $188 $318 #
straight-curve $-1 14.02776692351496 16.176721187861098 17.727117463065454 1 0 0 I I #
straight-curve $-1 -40.109104105414389 16.176721187861098 81.484977936357097 -0.82903756765294845 0 0.55919291073839883 I I #
edge $-1 $192 16.176721187861098 $319 36.764969423665825 $190 $320 forward 7 unknown #
point $-1 60.949125644703514 16.176721187861098 17.727117463065458 #
point $-1 60.949125644703514 16.176721187861098 13.320339983912788 #
edge $-1 $321 1 $321 0 $195 $-1 forward 7 unknown #
vertex $-1 $196 $322 #
ellipse-curve $-1 56.795834410934724 20.294370835022043 14.209241044121443 0.55919291073839883 0 0.82903756765294845 1.2435563514794228 0 -0.83878936610759824 1 I I #
point $-1 58.926023914198034 20.294370835022043 14.684939357381539 #
edge $-1 $323 1 $323 0 $199 $-1 forward 7 unknown #
vertex $-1 $200 $324 #
ellipse-curve $-1 56.795834410934724 26.470845305763461 14.209241044121443 0.55919291073839883 0 0.82903756765294845 1.2435563514794228 0 -0.83878936610759824 1 I I #
point $-1 58.926023914198034 26.470845305763461 14.684939357381539 #
edge $-1 $325 1 $325 0 $203 $-1 forward 7 unknown #
vertex $-1 $204 $326 #
ellipse-curve $-1 56.795834410934724 32.647319776504879 14.209241044121443 0.55919291073839883 0 0.82903756765294845 1.2435563514794228 0 -0.83878936610759824 1 I I #
point $-1 58.926023914198034 32.647319776504879 14.684939357381539 #
plane-surface $-1 60.949125644703514 0 0 -1 0 0 0 0 1 forward_v I I I I #
coedge $-1 $212 $210 $214 $289 reversed $141 $-1 #
edge $-1 $225 -17.727117463065458 $291 17.727117463065458 $224 $327 forward 7 unknown #
vertex $-1 $289 $328 #
straight-curve $-1 -60.949125644703514 -36.764969423665825 0 0 0 -1 I I #
edge $-1 $287 -36.764969423665825 $291 36.764969423665825 $285 $329 forward 7 unknown #
straight-curve $-1 0 -36.764969423665825 -17.727117463065458 -1 0 0 I I #
vertex $-1 $217 $330 #
straight-curve $-1 0 36.764969423665825 -17.727117463065458 1 0 0 I I #
point $-1 60.949125644703514 36.764969423665825 -17.727117463065458 #
point $-1 60.949125644703514 -36.764969423665825 -17.727117463065458 #
straight-curve $-1 -60.949125644703514 0 17.727117463065458 0 -1 0 I I #
point $-1 -60.949125644703514 36.764969423665825 17.727117463065458 #
point $-1 -60.949125644703514 -36.764969423665825 17.727117463065458 #
straight-curve $-1 60.949125644703514 -36.764969423665825 0 0 0 -1 I I #
straight-curve $-1 60.949125644703514 36.764969423665825 0 0 0 -1 I I #
edge $-1 $301 30.843035457228655 $304 47.486979206313954 $235 $331 forward 7 unknown #
vertex $-1 $249 $332 #
straight-curve $-1 -67.998591907148807 -3.0669906755216658 17.727117463065454 -1 0 0 I I #
edge $-1 $304 -3.9367061966997277 $246 17.944099941142515 $245 $333 forward 7 unknown #
vertex $-1 $303 $334 #
straight-curve $-1 -60.949125644703514 -3.0669906755216658 1.0831737139801589 0.78801074757464917 0 0.61566148304635926 I I #
point $-1 -39.645849546595699 -3.0669906755216658 17.727117463065458 #
point $-1 -60.949125644703514 -24.947796813363908 1.0831737139801589 #
straight-curve $-1 -60.949125644703514 0 17.727117463065458 0 -1 0 I I #
vertex $-1 $252 $335 #
point $-1 -43.107673289494734 -14.007393744442787 6.6996800166403663 #
coedge $-1 $257 $265 $258 $313 forward $180 $-1 #
edge $-1 $315 -23.529546770784094 $266 -2.9412985349793672 $257 $336 forward 7 unknown #
edge $-1 $319 -60.949125644703514 $315 -54.415809480733699 $258 $337 forward 7 unknown #
edge $-1 $319 -17.727117463065458 $263 -13.320339983912787 $262 $338 forward 7 unknown #
vertex $-1 $260 $339 #
straight-curve $-1 -7.4376554117153866 36.764969423665825 59.447807118161023 -0.82903756765294845 0 0.55919291073839883 I I #
point $-1 60.949125644703514 36.764969423665825 13.320339983912787 #
point $-1 54.415809480733699 16.176721187861098 17.727117463065454 #
vertex $-1 $269 $340 #
straight-curve $-1 60.949125644703514 0 17.727117463065458 0 1 0 I I #
vertex $-1 $272 $341 #
point $-1 58.039390762414143 20.294370835022043 13.370451678013845 #
vertex $-1 $276 $342 #
point $-1 58.039390762414143 26.470845305763461 13.370451678013845 #
vertex $-1 $280 $343 #
point $-1 58.039390762414143 32.647319776504879 13.370451678013845 #
straight-curve $-1 -60.949125644703514 36.764969423665825 0 0 0 -1 I I #
point $-1 -60.949125644703514 -36.764969423665825 -17.727117463065458 #
straight-curve $-1 -60.949125644703514 0 -17.727117463065458 0 1 0 I I #
point $-1 -60.949125644703514 36.764969423665825 -17.727117463065458 #
straight-curve $-1 -60.949125644703514 -3.0669906755216658 48.570152920294113 0 0 -1 I I #
point $-1 -60.949125644703514 -3.0669906755216658 17.727117463065458 #
straight-curve $-1 -60.949125644703514 -7.0036968722213935 1.0831737139801612 0 -1 0 I I #
point $-1 -60.949125644703514 -3.0669906755216658 1.0831737139801589 #
point $-1 -43.797070347607892 -14.007393744442787 1.084991094156333 #
straight-curve $-1 54.415809480733692 13.235422652881731 17.727117463065461 0 -1 0 I I #
straight-curve $-1 0 36.764969423665825 17.727117463065458 -1 0 0 I I #
straight-curve $-1 60.949125644703514 36.764969423665825 0 0 0 -1 I I #
point $-1 54.415809480733699 36.764969423665825 17.727117463065454 #
point $-1 60.949125644703514 36.764969423665825 17.727117463065458 #
point $-1 55.957045044827119 20.294370835022043 12.96568469264202 #
point $-1 55.957045044827119 26.470845305763461 12.96568469264202 #
point $-1 55.957045044827119 32.647319776504879 12.96568469264202 #
End-of-ACIS-data 