500 0 5 0           
7 Unknown 11 ACIS 5.0 NT 24 Fri Mar 26 01:54:32 1999 
-1 9.9999999999999995e-007 1e-010 
body $-1 $5 $-1 $6 #
body $-1 $7 $-1 $8 #
body $-1 $9 $-1 $10 #
body $-1 $11 $-1 $12 #
body $-1 $13 $-1 $14 #
lump $-1 $-1 $15 $0 #
transform $-1 1 0 0 0 1 0 0 0 1 76.975005340739159 39.021467290687276 17.803373262804548 1 rotate no_reflect no_shear #
lump $-1 $-1 $16 $1 #
transform $-1 1 0 0 0 1 0 0 0 1 76.975005340739159 39.021467290687276 17.803373262804548 1 rotate no_reflect no_shear #
lump $-1 $-1 $17 $2 #
transform $-1 1 0 0 0 1 0 0 0 1 76.975005340739159 39.021467290687276 17.803373262804548 1 rotate no_reflect no_shear #
lump $-1 $-1 $18 $3 #
transform $-1 1 0 0 0 1 0 0 0 1 76.975005340739159 39.021467290687276 17.803373262804548 1 rotate no_reflect no_shear #
lump $-1 $-1 $19 $4 #
transform $-1 1 0 0 0 1 0 0 0 1 76.975005340739159 39.021467290687276 17.803373262804548 1 rotate no_reflect no_shear #
shell $-1 $-1 $-1 $20 $-1 $5 #
shell $-1 $-1 $-1 $21 $-1 $7 #
shell $-1 $-1 $-1 $22 $-1 $9 #
shell $-1 $-1 $-1 $23 $-1 $11 #
shell $-1 $-1 $-1 $24 $-1 $13 #
face $-1 $25 $26 $15 $-1 $27 forward single #
face $-1 $28 $29 $16 $-1 $30 forward single #
face $-1 $31 $32 $17 $-1 $33 forward single #
face $-1 $34 $35 $18 $-1 $36 forward single #
face $-1 $37 $38 $19 $-1 $39 reversed single #
face $-1 $40 $41 $15 $-1 $42 reversed single #
loop $-1 $-1 $43 $20 #
plane-surface $-1 0 0 17.803373262804548 0 0 1 1 0 0 forward_v I I I I #
face $-1 $44 $45 $16 $-1 $46 forward single #
loop $-1 $-1 $47 $21 #
plane-surface $-1 -67.033195732808139 0 8.0841343456104084 0 0 1 1 0 0 forward_v I I I I #
face $-1 $48 $49 $17 $-1 $50 forward single #
loop $-1 $-1 $51 $22 #
plane-surface $-1 67.033195732808139 0 8.0841343456104084 0 0 1 1 0 0 forward_v I I I I #
face $-1 $52 $53 $18 $-1 $54 forward single #
loop $-1 $-1 $55 $23 #
plane-surface $-1 -29.459109046768976 -129.51101431559024 125.40248417928359 -1 0 0 0 -0.5877852598018023 0.80901698891910034 forward_v I I I I #
face $-1 $56 $57 $19 $-1 $58 reversed single #
loop $-1 $59 $60 $24 #
cone-surface $-1 -41.263315469616046 -22.521819220428441 2.6734072615163829 0 0.5877852598018023 -0.80901698891910034 5 0 0 1 I I 0 1 5 forward I I I I #
face $-1 $61 $62 $15 $-1 $63 reversed single #
loop $-1 $-1 $64 $25 #
plane-surface $-1 0 0 -17.803373262804548 0 0 1 1 0 0 forward_v I I I I #
coedge $-1 $65 $66 $67 $68 forward $26 $-1 #
face $-1 $69 $70 $16 $-1 $71 forward single #
loop $-1 $-1 $72 $28 #
plane-surface $-1 -57.091386124877118 0 12.943753804207478 -1 0 0 0 0 1 forward_v I I I I #
coedge $-1 $73 $74 $75 $76 reversed $29 $-1 #
face $-1 $77 $78 $17 $-1 $79 forward single #
loop $-1 $-1 $80 $31 #
plane-surface $-1 57.091386124877118 0 12.943753804207478 1 0 0 0 0 -1 forward_v I I I I #
coedge $-1 $81 $82 $83 $84 reversed $32 $-1 #
face $-1 $85 $86 $18 $-1 $87 forward single #
loop $-1 $-1 $88 $34 #
plane-surface $-1 -41.263315469616046 -39.021467290687269 0.85431009369067112 0 -0.5877852598018023 0.80901698891910034 1 0 0 forward_v I I I I #
coedge $-1 $89 $90 $91 $92 reversed $35 $-1 #
face $-1 $93 $94 $19 $-1 $95 forward single #
loop $-1 $96 $97 $37 #
cone-surface $-1 -41.263315469616046 -16.216899830432776 -6.0045696275126108 0 0.5877852598018023 -0.80901698891910034 2.5 0 0 1 I I -0.70710678118654746 0.70710678118654746 2.5 forward I I I I #
loop $-1 $-1 $98 $24 #
coedge $-1 $60 $60 $99 $100 reversed $38 $-1 #
face $-1 $101 $102 $15 $-1 $103 reversed single #
loop $-1 $-1 $104 $40 #
plane-surface $-1 0 -39.021467290687276 0 0 1 0 0 0 1 forward_v I I I I #
coedge $-1 $105 $106 $107 $108 forward $41 $-1 #
coedge $-1 $109 $43 $110 $111 forward $26 $-1 #
coedge $-1 $43 $109 $112 $113 forward $26 $-1 #
coedge $-1 $114 $115 $43 $68 reversed $116 $-1 #
edge $-1 $117 -39.021467290687276 $118 39.021467290687276 $67 $119 forward 7 unknown #
face $-1 $120 $121 $16 $-1 $122 reversed single #
loop $-1 $-1 $123 $44 #
plane-surface $-1 0 0 17.803373262804548 0 0 1 1 0 0 forward_v I I I I #
coedge $-1 $124 $75 $125 $126 reversed $45 $-1 #
coedge $-1 $127 $47 $128 $129 reversed $29 $-1 #
coedge $-1 $47 $127 $130 $131 reversed $29 $-1 #
coedge $-1 $72 $132 $47 $76 forward $45 $-1 #
edge $-1 $133 -39.021467290687276 $134 39.021467290687276 $75 $135 forward 7 unknown #
face $-1 $136 $137 $17 $-1 $138 reversed single #
loop $-1 $-1 $139 $48 #
plane-surface $-1 0 0 17.803373262804548 0 0 1 1 0 0 forward_v I I I I #
coedge $-1 $140 $141 $142 $143 reversed $49 $-1 #
coedge $-1 $144 $51 $145 $146 reversed $32 $-1 #
coedge $-1 $51 $144 $147 $148 reversed $32 $-1 #
coedge $-1 $149 $150 $51 $84 forward $151 $-1 #
edge $-1 $152 -39.021467290687276 $153 39.021467290687276 $83 $154 forward 7 unknown #
face $-1 $155 $156 $18 $-1 $157 forward single #
loop $-1 $-1 $158 $52 #
plane-surface $-1 -53.06752189246312 -129.51101431559024 125.40248417928359 1 0 0 0 0.5877852598018023 -0.80901698891910034 forward_v I I I I #
coedge $-1 $159 $160 $161 $162 reversed $53 $-1 #
coedge $-1 $90 $55 $160 $163 forward $35 $-1 #
coedge $-1 $55 $89 $164 $165 reversed $35 $-1 #
coedge $-1 $166 $161 $55 $92 forward $156 $-1 #
edge $-1 $167 -49.062423526643251 $168 -25.734039867107846 $91 $169 forward 7 unknown #
face $-1 $170 $171 $19 $-1 $172 forward single #
loop $-1 $-1 $173 $56 #
plane-surface $-1 -29.459109046768976 -129.51101431559024 125.40248417928359 -1 0 0 0 -0.5877852598018023 0.80901698891910034 forward_v I I I I #
loop $-1 $-1 $174 $37 #
coedge $-1 $97 $97 $98 $175 forward $57 $-1 #
coedge $-1 $98 $98 $97 $175 reversed $59 $-1 #
coedge $-1 $99 $99 $60 $100 forward $171 $-1 #
edge $-1 $176 3.1669776845510329e-016 $176 6.2831853071796004 $99 $177 forward 7 unknown #
face $-1 $178 $179 $15 $-1 $180 reversed single #
loop $-1 $-1 $181 $61 #
plane-surface $-1 -76.975005340739159 0 0 1 0 0 0 0 -1 forward_v I I I I #
coedge $-1 $182 $112 $183 $184 forward $62 $-1 #
coedge $-1 $185 $64 $182 $186 forward $41 $-1 #
coedge $-1 $64 $185 $187 $188 forward $41 $-1 #
coedge $-1 $115 $114 $64 $108 reversed $116 $-1 #
edge $-1 $189 -39.021467290687276 $190 39.021467290687276 $107 $191 forward 7 unknown #
coedge $-1 $66 $65 $192 $193 forward $26 $-1 #
coedge $-1 $194 $195 $65 $111 reversed $179 $-1 #
edge $-1 $118 -76.975005340739159 $196 76.975005340739159 $110 $197 forward 7 unknown #
coedge $-1 $104 $198 $66 $113 reversed $62 $-1 #
edge $-1 $199 -76.975005340739159 $117 76.975005340739159 $112 $200 forward 7 unknown #
coedge $-1 $107 $67 $198 $201 forward $116 $-1 #
coedge $-1 $67 $107 $194 $202 reversed $116 $-1 #
loop $-1 $-1 $114 $178 #
vertex $-1 $68 $203 #
vertex $-1 $68 $204 #
straight-curve $-1 76.975005340739159 0 17.803373262804548 0 1 0 I I #
face $-1 $205 $206 $16 $-1 $207 reversed single #
loop $-1 $-1 $125 $69 #
plane-surface $-1 0 -39.021467290687276 0 0 1 0 0 0 1 forward_v I I I I #
coedge $-1 $208 $209 $124 $210 forward $70 $-1 #
coedge $-1 $132 $72 $123 $210 reversed $45 $-1 #
coedge $-1 $130 $211 $72 $126 forward $121 $-1 #
edge $-1 $212 -11.331496360700809 $134 -1.6122574435066692 $125 $213 forward 7 unknown #
coedge $-1 $74 $73 $214 $215 reversed $29 $-1 #
coedge $-1 $216 $217 $73 $129 forward $218 $-1 #
edge $-1 $219 -43.45840747433509 $133 -23.574788258473049 $128 $220 forward 7 unknown #
coedge $-1 $221 $125 $74 $131 forward $121 $-1 #
edge $-1 $134 23.574788258473049 $222 43.45840747433509 $130 $223 forward 7 unknown #
coedge $-1 $75 $124 $216 $224 reversed $45 $-1 #
vertex $-1 $129 $225 #
vertex $-1 $131 $226 #
straight-curve $-1 -57.091386124877118 0 8.0841343456104084 0 -1 0 I I #
face $-1 $227 $228 $17 $-1 $229 forward single #
loop $-1 $-1 $142 $77 #
plane-surface $-1 0 39.021467290687276 0 0 -1 0 0 0 -1 forward_v I I I I #
coedge $-1 $230 $231 $140 $232 forward $78 $-1 #
coedge $-1 $233 $80 $139 $232 reversed $49 $-1 #
coedge $-1 $80 $233 $144 $234 forward $49 $-1 #
coedge $-1 $145 $235 $80 $143 forward $137 $-1 #
edge $-1 $236 -11.331496360700809 $237 -1.6122574435066692 $142 $238 forward 7 unknown #
coedge $-1 $82 $81 $141 $234 reversed $32 $-1 #
coedge $-1 $239 $142 $81 $146 forward $137 $-1 #
edge $-1 $237 23.574788258473049 $152 43.45840747433509 $145 $240 forward 7 unknown #
coedge $-1 $241 $242 $82 $148 forward $243 $-1 #
edge $-1 $153 -43.45840747433509 $244 -23.574788258473049 $147 $245 forward 7 unknown #
coedge $-1 $246 $83 $242 $247 forward $151 $-1 #
coedge $-1 $83 $246 $239 $248 reversed $151 $-1 #
loop $-1 $-1 $83 $249 #
vertex $-1 $248 $250 #
vertex $-1 $247 $251 #
straight-curve $-1 76.975005340739159 0 8.0841343456104084 0 -1 0 I I #
face $-1 $252 $253 $18 $-1 $254 forward single #
loop $-1 $-1 $255 $85 #
plane-surface $-1 0 0 17.803373262804548 0 0 1 1 0 0 forward_v I I I I #
coedge $-1 $256 $257 $255 $258 reversed $86 $-1 #
coedge $-1 $259 $88 $257 $260 reversed $53 $-1 #
coedge $-1 $88 $259 $89 $163 reversed $53 $-1 #
coedge $-1 $91 $255 $88 $162 forward $156 $-1 #
edge $-1 $261 -32.435864157655097 $167 -8.827451311960953 $161 $262 forward 7 unknown #
edge $-1 $167 -28.835468202841632 $263 8.7502459990790685e-015 $89 $264 forward 7 unknown #
coedge $-1 $265 $266 $90 $165 forward $267 $-1 #
edge $-1 $168 44.897868826837247 $263 61.846931995951131 $164 $268 forward 7 unknown #
coedge $-1 $269 $91 $266 $270 forward $156 $-1 #
vertex $-1 $162 $271 #
vertex $-1 $270 $272 #
straight-curve $-1 -29.459109046768976 -64.755507157795122 17.803373262804548 0 -1 0 I I #
face $-1 $273 $274 $19 $-1 $275 forward single #
loop $-1 $276 $99 $93 #
plane-surface $-1 -41.263315469616046 -39.021467290687269 0.85431009369067112 0 -0.5877852598018023 0.80901698891910034 1 0 0 forward_v I I I I #
coedge $-1 $277 $278 $279 $280 reversed $94 $-1 #
coedge $-1 $174 $174 $-1 $281 forward $96 $-1 #
edge $-1 $282 0 $282 6.2831853071796004 $97 $283 forward 7 unknown #
vertex $-1 $100 $284 #
ellipse-curve $-1 -41.263315469616046 -27.357275460919581 9.3288416782476009 0 0.5877852598018023 -0.80901698891910034 5 0 0 1 I I #
face $-1 $-1 $116 $15 $-1 $285 reversed single #
loop $-1 $-1 $194 $101 #
plane-surface $-1 0 39.021467290687276 0 0 -1 0 0 0 -1 forward_v I I I I #
coedge $-1 $286 $192 $195 $287 forward $102 $-1 #
coedge $-1 $198 $104 $105 $186 reversed $62 $-1 #
coedge $-1 $192 $286 $104 $184 reversed $102 $-1 #
edge $-1 $199 -17.803373262804548 $288 17.803373262804548 $183 $289 forward 7 unknown #
coedge $-1 $106 $105 $286 $290 forward $41 $-1 #
edge $-1 $190 -76.975005340739159 $288 76.975005340739159 $182 $291 forward 7 unknown #
coedge $-1 $195 $194 $106 $188 reversed $179 $-1 #
edge $-1 $292 -76.975005340739159 $189 76.975005340739159 $187 $293 forward 7 unknown #
vertex $-1 $108 $294 #
vertex $-1 $201 $295 #
straight-curve $-1 76.975005340739159 0 -17.803373262804548 0 -1 0 I I #
coedge $-1 $181 $183 $109 $193 reversed $102 $-1 #
edge $-1 $196 -39.021467290687276 $199 39.021467290687276 $192 $296 forward 7 unknown #
coedge $-1 $187 $110 $115 $202 forward $179 $-1 #
coedge $-1 $110 $187 $181 $287 reversed $179 $-1 #
vertex $-1 $111 $297 #
straight-curve $-1 0 39.021467290687276 17.803373262804548 -1 0 0 I I #
coedge $-1 $112 $182 $114 $201 reversed $62 $-1 #
vertex $-1 $193 $298 #
straight-curve $-1 0 -39.021467290687276 17.803373262804548 1 0 0 I I #
edge $-1 $117 -17.803373262804548 $190 17.803373262804548 $114 $299 forward 7 unknown #
edge $-1 $118 -17.803373262804548 $189 17.803373262804548 $115 $300 forward 7 unknown #
point $-1 76.975005340739159 -39.021467290687276 17.803373262804548 #
point $-1 76.975005340739159 39.021467290687276 17.803373262804548 #
face $-1 $301 $302 $16 $-1 $303 reversed single #
loop $-1 $-1 $304 $120 #
plane-surface $-1 0 0 -17.803373262804548 0 0 1 1 0 0 forward_v I I I I #
coedge $-1 $305 $123 $211 $306 forward $70 $-1 #
coedge $-1 $123 $305 $307 $308 forward $70 $-1 #
edge $-1 $309 -39.021467290687276 $212 39.021467290687276 $123 $310 forward 7 unknown #
coedge $-1 $125 $311 $208 $306 reversed $121 $-1 #
vertex $-1 $306 $312 #
straight-curve $-1 -57.091386124877118 -39.021467290687276 6.4718769021037392 0 0 -1 I I #
coedge $-1 $313 $314 $127 $215 forward $302 $-1 #
edge $-1 $222 -39.021467290687276 $219 39.021467290687276 $214 $315 forward 7 unknown #
coedge $-1 $307 $128 $132 $224 forward $218 $-1 #
coedge $-1 $128 $316 $313 $317 reversed $218 $-1 #
loop $-1 $-1 $216 $301 #
vertex $-1 $317 $318 #
straight-curve $-1 -33.516597866404069 39.021467290687276 8.0841343456104084 1 0 0 I I #
coedge $-1 $319 $130 $314 $320 forward $121 $-1 #
vertex $-1 $320 $321 #
straight-curve $-1 -33.516597866404069 -39.021467290687276 8.0841343456104084 -1 0 0 I I #
edge $-1 $133 1.6122574435066692 $309 11.331496360700809 $216 $322 forward 7 unknown #
point $-1 -57.091386124877118 39.021467290687276 8.0841343456104084 #
point $-1 -57.091386124877118 -39.021467290687276 8.0841343456104084 #
face $-1 $323 $324 $17 $-1 $325 forward single #
loop $-1 $-1 $326 $136 #
plane-surface $-1 -67.033195732808139 0 8.0841343456104084 0 0 1 1 0 0 forward_v I I I I #
coedge $-1 $327 $139 $235 $328 forward $78 $-1 #
coedge $-1 $139 $327 $329 $330 forward $78 $-1 #
edge $-1 $331 -39.021467290687276 $236 39.021467290687276 $139 $332 forward 7 unknown #
coedge $-1 $141 $140 $241 $333 reversed $49 $-1 #
edge $-1 $244 -39.021467290687276 $237 39.021467290687276 $141 $334 forward 7 unknown #
coedge $-1 $142 $335 $230 $328 reversed $137 $-1 #
vertex $-1 $328 $336 #
vertex $-1 $146 $337 #
straight-curve $-1 57.091386124877118 39.021467290687276 6.4718769021037392 0 0 -1 I I #
coedge $-1 $338 $145 $150 $248 forward $137 $-1 #
straight-curve $-1 33.516597866404069 39.021467290687276 8.0841343456104084 1 0 0 I I #
coedge $-1 $329 $147 $233 $333 forward $243 $-1 #
coedge $-1 $147 $339 $149 $247 reversed $243 $-1 #
loop $-1 $-1 $241 $323 #
vertex $-1 $148 $340 #
straight-curve $-1 33.516597866404069 -39.021467290687276 8.0841343456104084 -1 0 0 I I #
coedge $-1 $150 $149 $341 $342 reversed $151 $-1 #
edge $-1 $153 -8.0841343456104084 $343 17.803373262804548 $149 $344 forward 7 unknown #
edge $-1 $152 -8.0841343456104084 $345 17.803373262804548 $150 $346 forward 7 unknown #
face $-1 $-1 $151 $17 $-1 $347 reversed single #
point $-1 76.975005340739159 39.021467290687276 8.0841343456104084 #
point $-1 76.975005340739159 -39.021467290687276 8.0841343456104084 #
face $-1 $348 $349 $18 $-1 $350 forward single #
loop $-1 $-1 $351 $155 #
plane-surface $-1 67.033195732808139 0 8.0841343456104084 0 0 1 1 0 0 forward_v I I I I #
coedge $-1 $161 $352 $158 $258 forward $156 $-1 #
coedge $-1 $257 $158 $353 $354 reversed $86 $-1 #
coedge $-1 $158 $256 $159 $260 forward $86 $-1 #
edge $-1 $355 25.734039867107846 $261 49.062423526643251 $255 $356 forward 7 unknown #
coedge $-1 $160 $159 $265 $357 reversed $53 $-1 #
edge $-1 $358 -8.7502459990790685e-015 $261 28.835468202841632 $257 $359 forward 7 unknown #
vertex $-1 $162 $360 #
straight-curve $-1 -20.631657734808023 -15.693083631151872 17.803373262804548 1 0 0 I I #
vertex $-1 $357 $361 #
straight-curve $-1 -29.459109046768976 -39.021467290687269 0.85431009369067112 0 -0.80901698891910034 -0.5877852598018023 I I #
coedge $-1 $353 $164 $259 $357 forward $267 $-1 #
coedge $-1 $164 $362 $166 $270 reversed $267 $-1 #
loop $-1 $-1 $353 $363 #
straight-curve $-1 -29.459109046768976 -39.021467290687276 62.701242089641795 0 0 -1 I I #
coedge $-1 $364 $166 $365 $366 forward $156 $-1 #
edge $-1 $168 -29.459109046768976 $367 57.091386124877118 $266 $368 forward 7 unknown #
point $-1 -29.459109046768976 -15.693083631151872 17.803373262804548 #
point $-1 -29.459109046768976 -39.021467290687276 17.803373262804548 #
face $-1 $369 $370 $19 $-1 $371 forward single #
loop $-1 $-1 $372 $170 #
plane-surface $-1 -53.06752189246312 -129.51101431559024 125.40248417928359 1 0 0 0 0.5877852598018023 -0.80901698891910034 forward_v I I I I #
loop $-1 $-1 $373 $93 #
coedge $-1 $278 $173 $374 $375 forward $94 $-1 #
coedge $-1 $173 $277 $376 $377 reversed $94 $-1 #
coedge $-1 $378 $379 $173 $280 forward $370 $-1 #
edge $-1 $380 -49.062423526643251 $381 -25.734039867107846 $279 $382 forward 7 unknown #
edge $-1 $383 1 $383 0 $174 $-1 forward 7 unknown #
vertex $-1 $175 $384 #
ellipse-curve $-1 -41.263315469616046 -17.686362979937282 -3.9820271552148601 0 -0.5877852598018023 0.80901698891910034 5 0 0 1 I I #
point $-1 -36.263315469616046 -27.357275460919602 9.3288416782476276 #
plane-surface $-1 76.975005340739159 0 0 -1 0 0 0 0 1 forward_v I I I I #
coedge $-1 $183 $181 $185 $290 reversed $102 $-1 #
edge $-1 $196 -17.803373262804548 $292 17.803373262804548 $195 $385 forward 7 unknown #
vertex $-1 $290 $386 #
straight-curve $-1 -76.975005340739159 -39.021467290687276 0 0 0 -1 I I #
edge $-1 $288 -39.021467290687276 $292 39.021467290687276 $286 $387 forward 7 unknown #
straight-curve $-1 0 -39.021467290687276 -17.803373262804548 -1 0 0 I I #
vertex $-1 $188 $388 #
straight-curve $-1 0 39.021467290687276 -17.803373262804548 1 0 0 I I #
point $-1 76.975005340739159 39.021467290687276 -17.803373262804548 #
point $-1 76.975005340739159 -39.021467290687276 -17.803373262804548 #
straight-curve $-1 -76.975005340739159 0 17.803373262804548 0 -1 0 I I #
point $-1 -76.975005340739159 39.021467290687276 17.803373262804548 #
point $-1 -76.975005340739159 -39.021467290687276 17.803373262804548 #
straight-curve $-1 76.975005340739159 -39.021467290687276 0 0 0 -1 I I #
straight-curve $-1 76.975005340739159 39.021467290687276 0 0 0 -1 I I #
face $-1 $389 $218 $16 $-1 $390 reversed single #
loop $-1 $-1 $214 $205 #
plane-surface $-1 -76.975005340739159 0 0 1 0 0 0 0 -1 forward_v I I I I #
coedge $-1 $391 $392 $393 $394 forward $206 $-1 #
coedge $-1 $209 $208 $395 $396 forward $70 $-1 #
edge $-1 $212 -57.091386124877118 $397 76.975005340739159 $211 $398 forward 7 unknown #
coedge $-1 $399 $216 $209 $308 reversed $218 $-1 #
edge $-1 $400 -76.975005340739159 $309 57.091386124877118 $307 $401 forward 7 unknown #
vertex $-1 $210 $402 #
straight-curve $-1 -57.091386124877118 0 17.803373262804548 0 -1 0 I I #
coedge $-1 $211 $319 $403 $404 reversed $121 $-1 #
point $-1 -57.091386124877118 -39.021467290687276 17.803373262804548 #
coedge $-1 $405 $214 $217 $317 forward $302 $-1 #
coedge $-1 $214 $405 $221 $320 reversed $302 $-1 #
straight-curve $-1 -76.975005340739159 0 8.0841343456104084 0 1 0 I I #
coedge $-1 $217 $399 $392 $406 reversed $218 $-1 #
edge $-1 $219 -8.0841343456104084 $407 17.803373262804548 $217 $408 forward 7 unknown #
point $-1 -76.975005340739159 39.021467290687276 8.0841343456104084 #
coedge $-1 $311 $221 $391 $409 reversed $121 $-1 #
edge $-1 $222 -8.0841343456104084 $410 17.803373262804548 $314 $411 forward 7 unknown #
point $-1 -76.975005340739159 -39.021467290687276 8.0841343456104084 #
straight-curve $-1 -57.091386124877118 39.021467290687276 6.4718769021037392 0 0 1 I I #
face $-1 $412 $243 $17 $-1 $413 reversed single #
loop $-1 $-1 $414 $227 #
plane-surface $-1 -57.091386124877118 0 12.943753804207478 -1 0 0 0 0 1 forward_v I I I I #
coedge $-1 $415 $416 $417 $418 reversed $228 $-1 #
coedge $-1 $231 $230 $419 $420 forward $78 $-1 #
edge $-1 $236 -57.091386124877118 $421 57.091386124877118 $235 $422 forward 7 unknown #
coedge $-1 $423 $241 $231 $330 reversed $243 $-1 #
edge $-1 $424 -57.091386124877118 $331 57.091386124877118 $329 $425 forward 7 unknown #
vertex $-1 $232 $426 #
straight-curve $-1 57.091386124877118 0 17.803373262804548 0 1 0 I I #
edge $-1 $244 1.6122574435066692 $331 11.331496360700809 $241 $427 forward 7 unknown #
straight-curve $-1 57.091386124877118 0 8.0841343456104084 0 1 0 I I #
coedge $-1 $235 $428 $429 $430 forward $137 $-1 #
point $-1 57.091386124877118 39.021467290687276 17.803373262804548 #
point $-1 57.091386124877118 39.021467290687276 8.0841343456104084 #
coedge $-1 $431 $239 $432 $433 reversed $137 $-1 #
coedge $-1 $242 $434 $435 $436 reversed $243 $-1 #
point $-1 57.091386124877118 -39.021467290687276 8.0841343456104084 #
coedge $-1 $435 $432 $246 $342 forward $437 $-1 #
edge $-1 $345 -39.021467290687276 $343 39.021467290687276 $246 $438 forward 7 unknown #
vertex $-1 $247 $439 #
straight-curve $-1 76.975005340739159 -39.021467290687276 0 0 0 -1 I I #
vertex $-1 $342 $440 #
straight-curve $-1 76.975005340739159 39.021467290687276 0 0 0 -1 I I #
plane-surface $-1 76.975005340739159 0 0 -1 0 0 0 0 1 forward_v I I I I #
face $-1 $441 $442 $18 $-1 $443 reversed single #
loop $-1 $-1 $444 $252 #
plane-surface $-1 57.091386124877118 0 12.943753804207478 1 0 0 0 0 -1 forward_v I I I I #
coedge $-1 $445 $446 $447 $448 reversed $253 $-1 #
coedge $-1 $255 $449 $450 $451 forward $156 $-1 #
coedge $-1 $450 $265 $256 $354 forward $267 $-1 #
edge $-1 $358 -61.846931995951131 $355 -44.897868826837247 $353 $452 forward 7 unknown #
vertex $-1 $354 $453 #
straight-curve $-1 -53.06752189246312 -64.755507157795122 17.803373262804548 0 1 0 I I #
edge $-1 $263 8.827451311960953 $358 32.435864157655097 $265 $454 forward 7 unknown #
vertex $-1 $357 $455 #
straight-curve $-1 -53.06752189246312 -39.021467290687269 0.85431009369067112 0 0.80901698891910034 0.5877852598018023 I I #
point $-1 -53.06752189246312 -15.693083631151872 17.803373262804548 #
point $-1 -29.459109046768976 -39.021467290687276 0.85431009369066602 #
coedge $-1 $266 $456 $457 $458 forward $267 $-1 #
face $-1 $459 $267 $18 $-1 $460 reversed single #
coedge $-1 $449 $269 $461 $462 forward $156 $-1 #
coedge $-1 $457 $444 $269 $366 reversed $349 $-1 #
edge $-1 $367 -39.021467290687276 $463 39.021467290687276 $269 $464 forward 7 unknown #
vertex $-1 $366 $465 #
straight-curve $-1 0 -39.021467290687276 17.803373262804548 1 0 0 I I #
face $-1 $466 $467 $19 $-1 $468 forward single #
loop $-1 $-1 $469 $273 #
plane-surface $-1 0 0 17.803373262804548 0 0 1 1 0 0 forward_v I I I I #
coedge $-1 $470 $471 $469 $472 reversed $274 $-1 #
coedge $-1 $473 $374 $379 $474 reversed $276 $-1 #
coedge $-1 $373 $475 $277 $375 reversed $276 $-1 #
edge $-1 $380 -28.835468202841632 $476 8.7502459990790685e-015 $277 $477 forward 7 unknown #
coedge $-1 $478 $479 $278 $377 forward $480 $-1 #
edge $-1 $381 44.897868826837247 $476 61.846931995951131 $376 $481 forward 7 unknown #
coedge $-1 $482 $279 $479 $483 forward $370 $-1 #
coedge $-1 $279 $469 $373 $474 forward $370 $-1 #
vertex $-1 $474 $484 #
vertex $-1 $483 $485 #
straight-curve $-1 -29.459109046768976 -64.755507157795122 17.803373262804548 0 -1 0 I I #
vertex $-1 $281 $486 #
point $-1 -36.263315469616046 -17.686362979937282 -3.9820271552148601 #
straight-curve $-1 -76.975005340739159 39.021467290687276 0 0 0 -1 I I #
point $-1 -76.975005340739159 -39.021467290687276 -17.803373262804548 #
straight-curve $-1 -76.975005340739159 0 -17.803373262804548 0 1 0 I I #
point $-1 -76.975005340739159 39.021467290687276 -17.803373262804548 #
face $-1 $-1 $487 $16 $-1 $488 reversed single #
plane-surface $-1 0 39.021467290687276 0 0 -1 0 0 0 -1 forward_v I I I I #
coedge $-1 $489 $304 $319 $409 forward $206 $-1 #
coedge $-1 $304 $489 $316 $406 forward $206 $-1 #
coedge $-1 $490 $403 $304 $394 reversed $487 $-1 #
edge $-1 $491 -39.021467290687276 $492 39.021467290687276 $393 $493 forward 7 unknown #
coedge $-1 $403 $490 $305 $396 reversed $487 $-1 #
edge $-1 $397 -39.021467290687276 $400 39.021467290687276 $395 $494 forward 7 unknown #
vertex $-1 $396 $495 #
straight-curve $-1 0 -39.021467290687276 17.803373262804548 1 0 0 I I #
coedge $-1 $316 $307 $490 $496 forward $218 $-1 #
vertex $-1 $396 $497 #
straight-curve $-1 0 39.021467290687276 17.803373262804548 -1 0 0 I I #
point $-1 -57.091386124877118 39.021467290687276 17.803373262804548 #
coedge $-1 $393 $395 $311 $404 forward $487 $-1 #
edge $-1 $397 -17.803373262804548 $492 17.803373262804548 $403 $498 forward 7 unknown #
coedge $-1 $314 $313 $489 $499 reversed $302 $-1 #
edge $-1 $407 -76.975005340739159 $491 76.975005340739159 $316 $500 forward 7 unknown #
vertex $-1 $406 $501 #
straight-curve $-1 -76.975005340739159 39.021467290687276 0 0 0 -1 I I #
edge $-1 $492 -76.975005340739159 $410 76.975005340739159 $319 $502 forward 7 unknown #
vertex $-1 $499 $503 #
straight-curve $-1 -76.975005340739159 -39.021467290687276 0 0 0 -1 I I #
face $-1 $504 $437 $17 $-1 $505 reversed single #
plane-surface $-1 0 -39.021467290687276 0 0 1 0 0 0 1 forward_v I I I I #
coedge $-1 $419 $417 $423 $506 reversed $324 $-1 #
coedge $-1 $507 $326 $428 $508 reversed $228 $-1 #
coedge $-1 $326 $507 $509 $510 reversed $228 $-1 #
coedge $-1 $414 $429 $326 $418 forward $324 $-1 #
edge $-1 $511 -39.021467290687276 $512 39.021467290687276 $417 $513 forward 7 unknown #
coedge $-1 $429 $414 $327 $420 reversed $324 $-1 #
edge $-1 $421 -39.021467290687276 $424 39.021467290687276 $327 $514 forward 7 unknown #
vertex $-1 $420 $515 #
straight-curve $-1 0 39.021467290687276 17.803373262804548 -1 0 0 I I #
coedge $-1 $509 $329 $414 $506 forward $243 $-1 #
vertex $-1 $330 $516 #
straight-curve $-1 0 -39.021467290687276 17.803373262804548 1 0 0 I I #
point $-1 57.091386124877118 -39.021467290687276 17.803373262804548 #
straight-curve $-1 57.091386124877118 -39.021467290687276 6.4718769021037392 0 0 1 I I #
coedge $-1 $335 $431 $415 $508 forward $137 $-1 #
coedge $-1 $417 $419 $335 $430 reversed $324 $-1 #
edge $-1 $511 1.6122574435066692 $421 11.331496360700809 $335 $517 forward 7 unknown #
coedge $-1 $428 $338 $518 $519 reversed $137 $-1 #
coedge $-1 $341 $520 $338 $433 forward $437 $-1 #
edge $-1 $521 -76.975005340739159 $345 76.975005340739159 $338 $522 forward 7 unknown #
coedge $-1 $339 $509 $523 $524 forward $243 $-1 #
coedge $-1 $520 $341 $339 $436 forward $437 $-1 #
edge $-1 $343 -76.975005340739159 $525 76.975005340739159 $339 $526 forward 7 unknown #
loop $-1 $-1 $341 $412 #
straight-curve $-1 76.975005340739159 0 -17.803373262804548 0 -1 0 I I #
point $-1 76.975005340739159 -39.021467290687276 -17.803373262804548 #
point $-1 76.975005340739159 39.021467290687276 -17.803373262804548 #
face $-1 $527 $528 $18 $-1 $529 forward single #
loop $-1 $-1 $530 $348 #
plane-surface $-1 0 39.021467290687276 0 0 -1 0 0 0 -1 forward_v I I I I #
coedge $-1 $365 $531 $530 $532 reversed $349 $-1 #
coedge $-1 $533 $351 $534 $535 reversed $253 $-1 #
coedge $-1 $351 $533 $456 $536 reversed $253 $-1 #
coedge $-1 $537 $538 $351 $448 forward $539 $-1 #
edge $-1 $540 -39.021467290687276 $541 39.021467290687276 $447 $542 forward 7 unknown #
coedge $-1 $352 $364 $543 $544 forward $156 $-1 #
coedge $-1 $545 $353 $352 $451 reversed $267 $-1 #
edge $-1 $546 -57.091386124877118 $355 -53.06752189246312 $450 $368 forward 7 unknown #
straight-curve $-1 -53.06752189246312 -39.021467290687276 62.701242089641795 0 0 1 I I #
point $-1 -53.06752189246312 -39.021467290687276 17.803373262804548 #
straight-curve $-1 -20.631657734808023 -39.021467290687276 0.85431009369066191 -1 0 0 I I #
point $-1 -53.06752189246312 -39.021467290687276 0.85431009369066602 #
coedge $-1 $362 $547 $446 $536 forward $267 $-1 #
coedge $-1 $531 $365 $362 $458 reversed $349 $-1 #
edge $-1 $548 1.6122574435066692 $367 11.331496360700809 $362 $549 forward 7 unknown #
face $-1 $550 $551 $18 $-1 $552 reversed single #
plane-surface $-1 0 -39.021467290687276 0 0 1 0 0 0 1 forward_v I I I I #
coedge $-1 $530 $553 $364 $462 reversed $442 $-1 #
edge $-1 $463 -57.091386124877118 $554 57.091386124877118 $461 $555 forward 7 unknown #
vertex $-1 $462 $556 #
straight-curve $-1 57.091386124877118 0 17.803373262804548 0 1 0 I I #
point $-1 57.091386124877118 -39.021467290687276 17.803373262804548 #
face $-1 $557 $558 $19 $-1 $559 forward single #
loop $-1 $-1 $560 $369 #
plane-surface $-1 67.033195732808139 0 8.0841343456104084 0 0 1 1 0 0 forward_v I I I I #
coedge $-1 $379 $561 $372 $472 forward $370 $-1 #
coedge $-1 $471 $372 $562 $563 reversed $274 $-1 #
coedge $-1 $372 $470 $473 $564 forward $274 $-1 #
edge $-1 $565 25.734039867107846 $566 49.062423526643251 $469 $567 forward 7 unknown #
coedge $-1 $475 $373 $471 $564 reversed $276 $-1 #
edge $-1 $566 -32.435864157655097 $380 -8.827451311960953 $379 $568 forward 7 unknown #
coedge $-1 $374 $473 $478 $569 reversed $276 $-1 #
vertex $-1 $569 $570 #
straight-curve $-1 -29.459109046768976 -39.021467290687269 0.85431009369067112 0 -0.80901698891910034 -0.5877852598018023 I I #
coedge $-1 $562 $376 $475 $569 forward $480 $-1 #
coedge $-1 $376 $571 $378 $483 reversed $480 $-1 #
loop $-1 $-1 $562 $572 #
straight-curve $-1 -29.459109046768976 -39.021467290687276 62.701242089641795 0 0 -1 I I #
coedge $-1 $573 $378 $574 $575 forward $370 $-1 #
edge $-1 $381 -29.459109046768976 $576 57.091386124877118 $479 $577 forward 7 unknown #
point $-1 -29.459109046768976 -15.693083631151872 17.803373262804548 #
point $-1 -29.459109046768976 -39.021467290687276 17.803373262804548 #
point $-1 -41.263315469616046 -14.747436680928271 -8.0271120998103616 #
loop $-1 $-1 $403 $389 #
plane-surface $-1 76.975005340739159 0 0 -1 0 0 0 0 1 forward_v I I I I #
coedge $-1 $392 $391 $405 $499 forward $206 $-1 #
coedge $-1 $395 $393 $399 $496 reversed $487 $-1 #
vertex $-1 $394 $578 #
vertex $-1 $404 $579 #
straight-curve $-1 76.975005340739159 0 -17.803373262804548 0 -1 0 I I #
straight-curve $-1 76.975005340739159 0 17.803373262804548 0 1 0 I I #
point $-1 76.975005340739159 -39.021467290687276 17.803373262804548 #
edge $-1 $400 -17.803373262804548 $491 17.803373262804548 $490 $580 forward 7 unknown #
point $-1 76.975005340739159 39.021467290687276 17.803373262804548 #
straight-curve $-1 76.975005340739159 -39.021467290687276 0 0 0 -1 I I #
edge $-1 $410 -39.021467290687276 $407 39.021467290687276 $405 $581 forward 7 unknown #
straight-curve $-1 0 39.021467290687276 -17.803373262804548 1 0 0 I I #
point $-1 -76.975005340739159 39.021467290687276 -17.803373262804548 #
straight-curve $-1 0 -39.021467290687276 -17.803373262804548 -1 0 0 I I #
point $-1 -76.975005340739159 -39.021467290687276 -17.803373262804548 #
face $-1 $249 $582 $17 $-1 $583 reversed single #
plane-surface $-1 0 0 -17.803373262804548 0 0 1 1 0 0 forward_v I I I I #
edge $-1 $424 -11.331496360700809 $512 -1.6122574435066692 $423 $584 forward 7 unknown #
coedge $-1 $416 $415 $585 $586 reversed $228 $-1 #
edge $-1 $587 -43.45840747433509 $511 -23.574788258473049 $428 $588 forward 7 unknown #
coedge $-1 $434 $423 $416 $510 forward $243 $-1 #
edge $-1 $512 23.574788258473049 $589 43.45840747433509 $509 $590 forward 7 unknown #
vertex $-1 $508 $591 #
vertex $-1 $510 $592 #
straight-curve $-1 -57.091386124877118 0 8.0841343456104084 0 -1 0 I I #
straight-curve $-1 -57.091386124877118 0 17.803373262804548 0 -1 0 I I #
point $-1 -57.091386124877118 39.021467290687276 17.803373262804548 #
point $-1 -57.091386124877118 -39.021467290687276 17.803373262804548 #
straight-curve $-1 -57.091386124877118 39.021467290687276 6.4718769021037392 0 0 1 I I #
coedge $-1 $593 $585 $431 $519 forward $582 $-1 #
edge $-1 $587 -8.0841343456104084 $521 17.803373262804548 $431 $594 forward 7 unknown #
coedge $-1 $432 $435 $593 $595 forward $437 $-1 #
vertex $-1 $433 $596 #
straight-curve $-1 0 39.021467290687276 -17.803373262804548 1 0 0 I I #
coedge $-1 $585 $593 $434 $524 reversed $582 $-1 #
edge $-1 $589 -8.0841343456104084 $525 17.803373262804548 $523 $597 forward 7 unknown #
vertex $-1 $595 $598 #
straight-curve $-1 0 -39.021467290687276 -17.803373262804548 -1 0 0 I I #
face $-1 $363 $599 $18 $-1 $600 forward single #
loop $-1 $-1 $601 $441 #
plane-surface $-1 -67.033195732808139 0 8.0841343456104084 0 0 1 1 0 0 forward_v I I I I #
coedge $-1 $534 $461 $444 $532 forward $442 $-1 #
coedge $-1 $444 $457 $533 $602 forward $349 $-1 #
edge $-1 $463 -11.331496360700809 $603 -1.6122574435066692 $530 $604 forward 7 unknown #
coedge $-1 $446 $445 $531 $602 reversed $253 $-1 #
coedge $-1 $605 $530 $445 $535 forward $442 $-1 #
edge $-1 $603 23.574788258473049 $540 43.45840747433509 $534 $606 forward 7 unknown #
edge $-1 $541 -43.45840747433509 $548 -23.574788258473049 $456 $607 forward 7 unknown #
coedge $-1 $608 $447 $547 $609 forward $539 $-1 #
coedge $-1 $447 $608 $605 $610 reversed $539 $-1 #
loop $-1 $-1 $447 $611 #
vertex $-1 $610 $612 #
vertex $-1 $609 $613 #
straight-curve $-1 76.975005340739159 0 8.0841343456104084 0 -1 0 I I #
coedge $-1 $614 $615 $449 $544 reversed $599 $-1 #
edge $-1 $554 -39.021467290687276 $546 39.021467290687276 $449 $616 forward 7 unknown #
coedge $-1 $617 $450 $615 $618 forward $267 $-1 #
vertex $-1 $451 $619 #
coedge $-1 $456 $620 $537 $609 reversed $267 $-1 #
vertex $-1 $536 $621 #
straight-curve $-1 57.091386124877118 -39.021467290687276 6.4718769021037392 0 0 1 I I #
face $-1 $611 $622 $18 $-1 $623 reversed single #
loop $-1 $-1 $624 $459 #
plane-surface $-1 0 0 -17.803373262804548 0 0 1 1 0 0 forward_v I I I I #
coedge $-1 $461 $625 $614 $626 forward $442 $-1 #
vertex $-1 $544 $627 #
straight-curve $-1 0 39.021467290687276 17.803373262804548 -1 0 0 I I #
point $-1 57.091386124877118 39.021467290687276 17.803373262804548 #
face $-1 $628 $629 $19 $-1 $630 reversed single #
loop $-1 $-1 $631 $466 #
plane-surface $-1 57.091386124877118 0 12.943753804207478 1 0 0 0 0 -1 forward_v I I I I #
coedge $-1 $632 $633 $634 $635 reversed $467 $-1 #
coedge $-1 $469 $636 $637 $638 forward $370 $-1 #
coedge $-1 $637 $478 $470 $563 forward $480 $-1 #
edge $-1 $639 -61.846931995951131 $565 -44.897868826837247 $562 $640 forward 7 unknown #
edge $-1 $639 -8.7502459990790685e-015 $566 28.835468202841632 $471 $641 forward 7 unknown #
vertex $-1 $563 $642 #
vertex $-1 $474 $643 #
straight-curve $-1 -53.06752189246312 -64.755507157795122 17.803373262804548 0 1 0 I I #
straight-curve $-1 -20.631657734808023 -15.693083631151872 17.803373262804548 1 0 0 I I #
edge $-1 $476 8.827451311960953 $639 32.435864157655097 $478 $644 forward 7 unknown #
point $-1 -29.459109046768976 -39.021467290687276 0.85431009369066602 #
coedge $-1 $479 $645 $646 $647 forward $480 $-1 #
face $-1 $648 $480 $19 $-1 $649 reversed single #
coedge $-1 $636 $482 $650 $651 forward $370 $-1 #
coedge $-1 $646 $631 $482 $575 reversed $558 $-1 #
edge $-1 $576 -39.021467290687276 $652 39.021467290687276 $482 $653 forward 7 unknown #
vertex $-1 $575 $654 #
straight-curve $-1 0 -39.021467290687276 17.803373262804548 1 0 0 I I #
point $-1 76.975005340739159 39.021467290687276 -17.803373262804548 #
point $-1 76.975005340739159 -39.021467290687276 -17.803373262804548 #
straight-curve $-1 76.975005340739159 39.021467290687276 0 0 0 -1 I I #
straight-curve $-1 -76.975005340739159 0 -17.803373262804548 0 1 0 I I #
loop $-1 $-1 $585 $504 #
plane-surface $-1 -76.975005340739159 0 0 1 0 0 0 0 -1 forward_v I I I I #
straight-curve $-1 -57.091386124877118 -39.021467290687276 6.4718769021037392 0 0 -1 I I #
coedge $-1 $518 $523 $507 $586 forward $582 $-1 #
edge $-1 $589 -39.021467290687276 $587 39.021467290687276 $585 $655 forward 7 unknown #
vertex $-1 $519 $656 #
straight-curve $-1 -33.516597866404069 39.021467290687276 8.0841343456104084 1 0 0 I I #
vertex $-1 $524 $657 #
straight-curve $-1 -33.516597866404069 -39.021467290687276 8.0841343456104084 -1 0 0 I I #
point $-1 -57.091386124877118 39.021467290687276 8.0841343456104084 #
point $-1 -57.091386124877118 -39.021467290687276 8.0841343456104084 #
coedge $-1 $523 $518 $520 $595 reversed $582 $-1 #
straight-curve $-1 -76.975005340739159 39.021467290687276 0 0 0 -1 I I #
edge $-1 $525 -39.021467290687276 $521 39.021467290687276 $593 $658 forward 7 unknown #
point $-1 -76.975005340739159 39.021467290687276 -17.803373262804548 #
straight-curve $-1 -76.975005340739159 -39.021467290687276 0 0 0 -1 I I #
point $-1 -76.975005340739159 -39.021467290687276 -17.803373262804548 #
loop $-1 $-1 $615 $527 #
plane-surface $-1 -57.091386124877118 0 12.943753804207478 -1 0 0 0 0 1 forward_v I I I I #
coedge $-1 $659 $660 $661 $662 reversed $528 $-1 #
edge $-1 $548 -39.021467290687276 $603 39.021467290687276 $531 $663 forward 7 unknown #
vertex $-1 $535 $664 #
straight-curve $-1 57.091386124877118 39.021467290687276 6.4718769021037392 0 0 -1 I I #
coedge $-1 $665 $534 $538 $610 forward $442 $-1 #
straight-curve $-1 33.516597866404069 39.021467290687276 8.0841343456104084 1 0 0 I I #
straight-curve $-1 33.516597866404069 -39.021467290687276 8.0841343456104084 -1 0 0 I I #
coedge $-1 $538 $537 $624 $666 reversed $539 $-1 #
edge $-1 $541 -8.0841343456104084 $667 17.803373262804548 $537 $668 forward 7 unknown #
edge $-1 $540 -8.0841343456104084 $669 17.803373262804548 $538 $670 forward 7 unknown #
face $-1 $-1 $539 $18 $-1 $671 reversed single #
point $-1 76.975005340739159 39.021467290687276 8.0841343456104084 #
point $-1 76.975005340739159 -39.021467290687276 8.0841343456104084 #
coedge $-1 $661 $543 $553 $626 reversed $599 $-1 #
coedge $-1 $543 $661 $545 $618 reversed $599 $-1 #
straight-curve $-1 -57.091386124877118 0 17.803373262804548 0 -1 0 I I #
coedge $-1 $672 $545 $660 $673 forward $267 $-1 #
edge $-1 $546 -11.331496360700809 $674 -1.6122574435066692 $545 $675 forward 7 unknown #
point $-1 -57.091386124877118 -39.021467290687276 17.803373262804548 #
coedge $-1 $547 $672 $676 $677 reversed $267 $-1 #
point $-1 57.091386124877118 -39.021467290687276 8.0841343456104084 #
loop $-1 $-1 $678 $550 #
plane-surface $-1 -76.975005340739159 0 0 1 0 0 0 0 -1 forward_v I I I I #
coedge $-1 $676 $679 $608 $666 forward $551 $-1 #
coedge $-1 $553 $680 $659 $681 forward $442 $-1 #
edge $-1 $682 1.6122574435066692 $554 11.331496360700809 $553 $683 forward 7 unknown #
point $-1 -57.091386124877118 39.021467290687276 17.803373262804548 #
face $-1 $684 $685 $19 $-1 $686 forward single #
loop $-1 $-1 $687 $557 #
plane-surface $-1 0 39.021467290687276 0 0 -1 0 0 0 -1 forward_v I I I I #
coedge $-1 $574 $688 $687 $689 reversed $558 $-1 #
coedge $-1 $690 $560 $691 $692 reversed $467 $-1 #
coedge $-1 $560 $690 $645 $693 reversed $467 $-1 #
coedge $-1 $694 $695 $560 $635 forward $696 $-1 #
edge $-1 $697 -39.021467290687276 $698 39.021467290687276 $634 $699 forward 7 unknown #
coedge $-1 $561 $573 $700 $701 forward $370 $-1 #
coedge $-1 $702 $562 $561 $638 reversed $480 $-1 #
edge $-1 $703 -57.091386124877118 $565 -53.06752189246312 $637 $577 forward 7 unknown #
vertex $-1 $569 $704 #
straight-curve $-1 -53.06752189246312 -39.021467290687276 62.701242089641795 0 0 1 I I #
straight-curve $-1 -53.06752189246312 -39.021467290687269 0.85431009369067112 0 0.80901698891910034 0.5877852598018023 I I #
point $-1 -53.06752189246312 -39.021467290687276 17.803373262804548 #
point $-1 -53.06752189246312 -15.693083631151872 17.803373262804548 #
straight-curve $-1 -20.631657734808023 -39.021467290687276 0.85431009369066191 -1 0 0 I I #
coedge $-1 $571 $705 $633 $693 forward $480 $-1 #
coedge $-1 $688 $574 $571 $647 reversed $558 $-1 #
edge $-1 $706 1.6122574435066692 $576 11.331496360700809 $571 $707 forward 7 unknown #
face $-1 $708 $709 $19 $-1 $710 reversed single #
plane-surface $-1 0 -39.021467290687276 0 0 1 0 0 0 1 forward_v I I I I #
coedge $-1 $687 $711 $573 $651 reversed $629 $-1 #
edge $-1 $652 -57.091386124877118 $712 57.091386124877118 $650 $713 forward 7 unknown #
vertex $-1 $651 $714 #
straight-curve $-1 57.091386124877118 0 17.803373262804548 0 1 0 I I #
point $-1 57.091386124877118 -39.021467290687276 17.803373262804548 #
straight-curve $-1 -76.975005340739159 0 8.0841343456104084 0 1 0 I I #
point $-1 -76.975005340739159 39.021467290687276 8.0841343456104084 #
point $-1 -76.975005340739159 -39.021467290687276 8.0841343456104084 #
straight-curve $-1 -76.975005340739159 0 -17.803373262804548 0 1 0 I I #
coedge $-1 $715 $601 $625 $681 reversed $528 $-1 #
coedge $-1 $601 $715 $617 $673 reversed $528 $-1 #
coedge $-1 $615 $614 $601 $662 forward $599 $-1 #
edge $-1 $682 -39.021467290687276 $674 39.021467290687276 $661 $716 forward 7 unknown #
straight-curve $-1 57.091386124877118 0 8.0841343456104084 0 1 0 I I #
point $-1 57.091386124877118 39.021467290687276 8.0841343456104084 #
coedge $-1 $680 $605 $679 $717 reversed $442 $-1 #
edge $-1 $669 -39.021467290687276 $667 39.021467290687276 $608 $718 forward 7 unknown #
vertex $-1 $609 $719 #
straight-curve $-1 76.975005340739159 -39.021467290687276 0 0 0 -1 I I #
vertex $-1 $666 $720 #
straight-curve $-1 76.975005340739159 39.021467290687276 0 0 0 -1 I I #
plane-surface $-1 76.975005340739159 0 0 -1 0 0 0 0 1 forward_v I I I I #
coedge $-1 $620 $617 $721 $722 forward $267 $-1 #
edge $-1 $674 23.574788258473049 $723 43.45840747433509 $617 $724 forward 7 unknown #
vertex $-1 $673 $725 #
straight-curve $-1 -57.091386124877118 -39.021467290687276 6.4718769021037392 0 0 -1 I I #
coedge $-1 $726 $624 $620 $677 forward $551 $-1 #
edge $-1 $667 -76.975005340739159 $727 76.975005340739159 $620 $728 forward 7 unknown #
coedge $-1 $729 $721 $715 $730 forward $622 $-1 #
coedge $-1 $624 $726 $665 $717 forward $551 $-1 #
coedge $-1 $625 $665 $729 $731 reversed $442 $-1 #
edge $-1 $732 -43.45840747433509 $682 -23.574788258473049 $625 $733 forward 7 unknown #
vertex $-1 $681 $734 #
straight-curve $-1 -57.091386124877118 39.021467290687276 6.4718769021037392 0 0 1 I I #
face $-1 $572 $735 $19 $-1 $736 forward single #
loop $-1 $-1 $737 $628 #
plane-surface $-1 -67.033195732808139 0 8.0841343456104084 0 0 1 1 0 0 forward_v I I I I #
coedge $-1 $691 $650 $631 $689 forward $629 $-1 #
coedge $-1 $631 $646 $690 $738 forward $558 $-1 #
edge $-1 $652 -11.331496360700809 $739 -1.6122574435066692 $687 $740 forward 7 unknown #
coedge $-1 $633 $632 $688 $738 reversed $467 $-1 #
coedge $-1 $741 $687 $632 $692 forward $629 $-1 #
edge $-1 $739 23.574788258473049 $697 43.45840747433509 $691 $742 forward 7 unknown #
edge $-1 $698 -43.45840747433509 $706 -23.574788258473049 $645 $743 forward 7 unknown #
coedge $-1 $744 $634 $705 $745 forward $696 $-1 #
coedge $-1 $634 $744 $741 $746 reversed $696 $-1 #
loop $-1 $-1 $634 $747 #
vertex $-1 $746 $748 #
vertex $-1 $745 $749 #
straight-curve $-1 76.975005340739159 0 8.0841343456104084 0 -1 0 I I #
coedge $-1 $750 $751 $636 $701 reversed $735 $-1 #
edge $-1 $712 -39.021467290687276 $703 39.021467290687276 $636 $752 forward 7 unknown #
coedge $-1 $753 $637 $751 $754 forward $480 $-1 #
vertex $-1 $638 $755 #
point $-1 -53.06752189246312 -39.021467290687276 0.85431009369066602 #
coedge $-1 $645 $756 $694 $745 reversed $480 $-1 #
vertex $-1 $693 $757 #
straight-curve $-1 57.091386124877118 -39.021467290687276 6.4718769021037392 0 0 1 I I #
face $-1 $747 $758 $19 $-1 $759 reversed single #
loop $-1 $-1 $760 $648 #
plane-surface $-1 0 0 -17.803373262804548 0 0 1 1 0 0 forward_v I I I I #
coedge $-1 $650 $761 $750 $762 forward $629 $-1 #
vertex $-1 $701 $763 #
straight-curve $-1 0 39.021467290687276 17.803373262804548 -1 0 0 I I #
point $-1 57.091386124877118 39.021467290687276 17.803373262804548 #
coedge $-1 $660 $659 $678 $730 reversed $528 $-1 #
straight-curve $-1 -57.091386124877118 0 8.0841343456104084 0 -1 0 I I #
edge $-1 $764 -76.975005340739159 $669 76.975005340739159 $665 $765 forward 7 unknown #
straight-curve $-1 76.975005340739159 0 -17.803373262804548 0 -1 0 I I #
point $-1 76.975005340739159 -39.021467290687276 -17.803373262804548 #
point $-1 76.975005340739159 39.021467290687276 -17.803373262804548 #
coedge $-1 $678 $766 $672 $722 reversed $622 $-1 #
edge $-1 $723 -8.0841343456104084 $727 17.803373262804548 $721 $767 forward 7 unknown #
vertex $-1 $722 $768 #
straight-curve $-1 -33.516597866404069 -39.021467290687276 8.0841343456104084 -1 0 0 I I #
point $-1 -57.091386124877118 -39.021467290687276 8.0841343456104084 #
coedge $-1 $679 $676 $766 $769 forward $551 $-1 #
vertex $-1 $769 $770 #
straight-curve $-1 0 -39.021467290687276 -17.803373262804548 -1 0 0 I I #
coedge $-1 $766 $678 $680 $731 forward $622 $-1 #
edge $-1 $723 -39.021467290687276 $732 39.021467290687276 $678 $771 forward 7 unknown #
edge $-1 $732 -8.0841343456104084 $764 17.803373262804548 $680 $772 forward 7 unknown #
vertex $-1 $731 $773 #
straight-curve $-1 -33.516597866404069 39.021467290687276 8.0841343456104084 1 0 0 I I #
point $-1 -57.091386124877118 39.021467290687276 8.0841343456104084 #
loop $-1 $-1 $751 $684 #
plane-surface $-1 -57.091386124877118 0 12.943753804207478 -1 0 0 0 0 1 forward_v I I I I #
coedge $-1 $774 $775 $776 $777 reversed $685 $-1 #
edge $-1 $706 -39.021467290687276 $739 39.021467290687276 $688 $778 forward 7 unknown #
vertex $-1 $692 $779 #
straight-curve $-1 57.091386124877118 39.021467290687276 6.4718769021037392 0 0 -1 I I #
coedge $-1 $780 $691 $695 $746 forward $629 $-1 #
straight-curve $-1 33.516597866404069 39.021467290687276 8.0841343456104084 1 0 0 I I #
straight-curve $-1 33.516597866404069 -39.021467290687276 8.0841343456104084 -1 0 0 I I #
coedge $-1 $695 $694 $760 $781 reversed $696 $-1 #
edge $-1 $698 -8.0841343456104084 $782 17.803373262804548 $694 $783 forward 7 unknown #
edge $-1 $697 -8.0841343456104084 $784 17.803373262804548 $695 $785 forward 7 unknown #
face $-1 $-1 $696 $19 $-1 $786 reversed single #
point $-1 76.975005340739159 39.021467290687276 8.0841343456104084 #
point $-1 76.975005340739159 -39.021467290687276 8.0841343456104084 #
coedge $-1 $776 $700 $711 $762 reversed $735 $-1 #
coedge $-1 $700 $776 $702 $754 reversed $735 $-1 #
straight-curve $-1 -57.091386124877118 0 17.803373262804548 0 -1 0 I I #
coedge $-1 $787 $702 $775 $788 forward $480 $-1 #
edge $-1 $703 -11.331496360700809 $789 -1.6122574435066692 $702 $790 forward 7 unknown #
point $-1 -57.091386124877118 -39.021467290687276 17.803373262804548 #
coedge $-1 $705 $787 $791 $792 reversed $480 $-1 #
point $-1 57.091386124877118 -39.021467290687276 8.0841343456104084 #
loop $-1 $-1 $793 $708 #
plane-surface $-1 -76.975005340739159 0 0 1 0 0 0 0 -1 forward_v I I I I #
coedge $-1 $791 $794 $744 $781 forward $709 $-1 #
coedge $-1 $711 $795 $774 $796 forward $629 $-1 #
edge $-1 $797 1.6122574435066692 $712 11.331496360700809 $711 $798 forward 7 unknown #
point $-1 -57.091386124877118 39.021467290687276 17.803373262804548 #
vertex $-1 $717 $799 #
straight-curve $-1 0 39.021467290687276 -17.803373262804548 1 0 0 I I #
coedge $-1 $721 $729 $726 $769 reversed $622 $-1 #
straight-curve $-1 -76.975005340739159 -39.021467290687276 0 0 0 -1 I I #
point $-1 -76.975005340739159 -39.021467290687276 8.0841343456104084 #
edge $-1 $727 -39.021467290687276 $764 39.021467290687276 $766 $800 forward 7 unknown #
point $-1 -76.975005340739159 -39.021467290687276 -17.803373262804548 #
straight-curve $-1 -76.975005340739159 0 8.0841343456104084 0 1 0 I I #
straight-curve $-1 -76.975005340739159 39.021467290687276 0 0 0 -1 I I #
point $-1 -76.975005340739159 39.021467290687276 8.0841343456104084 #
coedge $-1 $801 $737 $761 $796 reversed $685 $-1 #
coedge $-1 $737 $801 $753 $788 reversed $685 $-1 #
coedge $-1 $751 $750 $737 $777 forward $735 $-1 #
edge $-1 $797 -39.021467290687276 $789 39.021467290687276 $776 $802 forward 7 unknown #
straight-curve $-1 57.091386124877118 0 8.0841343456104084 0 1 0 I I #
point $-1 57.091386124877118 39.021467290687276 8.0841343456104084 #
coedge $-1 $795 $741 $794 $803 reversed $629 $-1 #
edge $-1 $784 -39.021467290687276 $782 39.021467290687276 $744 $804 forward 7 unknown #
vertex $-1 $745 $805 #
straight-curve $-1 76.975005340739159 -39.021467290687276 0 0 0 -1 I I #
vertex $-1 $781 $806 #
straight-curve $-1 76.975005340739159 39.021467290687276 0 0 0 -1 I I #
plane-surface $-1 76.975005340739159 0 0 -1 0 0 0 0 1 forward_v I I I I #
coedge $-1 $756 $753 $807 $808 forward $480 $-1 #
edge $-1 $789 23.574788258473049 $809 43.45840747433509 $753 $810 forward 7 unknown #
vertex $-1 $788 $811 #
straight-curve $-1 -57.091386124877118 -39.021467290687276 6.4718769021037392 0 0 -1 I I #
coedge $-1 $812 $760 $756 $792 forward $709 $-1 #
edge $-1 $782 -76.975005340739159 $813 76.975005340739159 $756 $814 forward 7 unknown #
coedge $-1 $815 $807 $801 $816 forward $758 $-1 #
coedge $-1 $760 $812 $780 $803 forward $709 $-1 #
coedge $-1 $761 $780 $815 $817 reversed $629 $-1 #
edge $-1 $818 -43.45840747433509 $797 -23.574788258473049 $761 $819 forward 7 unknown #
vertex $-1 $796 $820 #
straight-curve $-1 -57.091386124877118 39.021467290687276 6.4718769021037392 0 0 1 I I #
point $-1 -76.975005340739159 39.021467290687276 -17.803373262804548 #
straight-curve $-1 -76.975005340739159 0 -17.803373262804548 0 1 0 I I #
coedge $-1 $775 $774 $793 $816 reversed $685 $-1 #
straight-curve $-1 -57.091386124877118 0 8.0841343456104084 0 -1 0 I I #
edge $-1 $821 -76.975005340739159 $784 76.975005340739159 $780 $822 forward 7 unknown #
straight-curve $-1 76.975005340739159 0 -17.803373262804548 0 -1 0 I I #
point $-1 76.975005340739159 -39.021467290687276 -17.803373262804548 #
point $-1 76.975005340739159 39.021467290687276 -17.803373262804548 #
coedge $-1 $793 $823 $787 $808 reversed $758 $-1 #
edge $-1 $809 -8.0841343456104084 $813 17.803373262804548 $807 $824 forward 7 unknown #
vertex $-1 $808 $825 #
straight-curve $-1 -33.516597866404069 -39.021467290687276 8.0841343456104084 -1 0 0 I I #
point $-1 -57.091386124877118 -39.021467290687276 8.0841343456104084 #
coedge $-1 $794 $791 $823 $826 forward $709 $-1 #
vertex $-1 $826 $827 #
straight-curve $-1 0 -39.021467290687276 -17.803373262804548 -1 0 0 I I #
coedge $-1 $823 $793 $795 $817 forward $758 $-1 #
edge $-1 $809 -39.021467290687276 $818 39.021467290687276 $793 $828 forward 7 unknown #
edge $-1 $818 -8.0841343456104084 $821 17.803373262804548 $795 $829 forward 7 unknown #
vertex $-1 $817 $830 #
straight-curve $-1 -33.516597866404069 39.021467290687276 8.0841343456104084 1 0 0 I I #
point $-1 -57.091386124877118 39.021467290687276 8.0841343456104084 #
vertex $-1 $803 $831 #
straight-curve $-1 0 39.021467290687276 -17.803373262804548 1 0 0 I I #
coedge $-1 $807 $815 $812 $826 reversed $758 $-1 #
straight-curve $-1 -76.975005340739159 -39.021467290687276 0 0 0 -1 I I #
point $-1 -76.975005340739159 -39.021467290687276 8.0841343456104084 #
edge $-1 $813 -39.021467290687276 $821 39.021467290687276 $823 $832 forward 7 unknown #
point $-1 -76.975005340739159 -39.021467290687276 -17.803373262804548 #
straight-curve $-1 -76.975005340739159 0 8.0841343456104084 0 1 0 I I #
straight-curve $-1 -76.975005340739159 39.021467290687276 0 0 0 -1 I I #
point $-1 -76.975005340739159 39.021467290687276 8.0841343456104084 #
point $-1 -76.975005340739159 39.021467290687276 -17.803373262804548 #
straight-curve $-1 -76.975005340739159 0 -17.803373262804548 0 1 0 I I #
End-of-ACIS-data 