500 0 12 0           
7 Unknown 11 ACIS 5.0 NT 24 Fri Mar 26 03:28:08 1999 
-1 9.9999999999999995e-007 1e-010 
body $-1 $12 $-1 $13 #
body $-1 $14 $-1 $15 #
body $-1 $16 $-1 $17 #
body $-1 $18 $-1 $19 #
body $-1 $20 $-1 $21 #
body $-1 $22 $-1 $23 #
body $-1 $24 $-1 $25 #
body $-1 $26 $-1 $27 #
body $-1 $28 $-1 $29 #
body $-1 $30 $-1 $31 #
body $-1 $32 $-1 $33 #
body $-1 $34 $-1 $35 #
lump $-1 $-1 $36 $0 #
transform $-1 1 0 0 0 1 0 0 0 1 77.238685262611767 41.645056807247791 19.463252661097833 1 rotate no_reflect no_shear #
lump $-1 $-1 $37 $1 #
transform $-1 1 0 0 0 1 0 0 0 1 77.238685262611767 41.645056807247791 19.463252661097833 1 rotate no_reflect no_shear #
lump $-1 $-1 $38 $2 #
transform $-1 1 0 0 0 1 0 0 0 1 77.238685262611767 41.645056807247791 19.463252661097833 1 rotate no_reflect no_shear #
lump $-1 $-1 $39 $3 #
transform $-1 1 0 0 0 1 0 0 0 1 77.238685262611767 41.645056807247791 19.463252661097833 1 rotate no_reflect no_shear #
lump $-1 $-1 $40 $4 #
transform $-1 1 0 0 0 1 0 0 0 1 77.238685262611767 41.645056807247791 19.463252661097833 1 rotate no_reflect no_shear #
lump $-1 $-1 $41 $5 #
transform $-1 1 0 0 0 1 0 0 0 1 77.238685262611767 41.645056807247791 19.463252661097833 1 rotate no_reflect no_shear #
lump $-1 $-1 $42 $6 #
transform $-1 1 0 0 0 1 0 0 0 1 77.238685262611767 41.645056807247791 19.463252661097833 1 rotate no_reflect no_shear #
lump $-1 $-1 $43 $7 #
transform $-1 1 0 0 0 1 0 0 0 1 77.238685262611767 41.645056807247791 19.463252661097833 1 rotate no_reflect no_shear #
lump $-1 $-1 $44 $8 #
transform $-1 1 0 0 0 1 0 0 0 1 77.238685262611767 41.645056807247791 19.463252661097833 1 rotate no_reflect no_shear #
lump $-1 $-1 $45 $9 #
transform $-1 1 0 0 0 1 0 0 0 1 77.238685262611767 41.645056807247791 19.463252661097833 1 rotate no_reflect no_shear #
lump $-1 $-1 $46 $10 #
transform $-1 1 0 0 0 1 0 0 0 1 77.238685262611767 41.645056807247791 19.463252661097833 1 rotate no_reflect no_shear #
lump $-1 $-1 $47 $11 #
transform $-1 1 0 0 0 1 0 0 0 1 77.238685262611767 41.645056807247791 19.463252661097833 1 rotate no_reflect no_shear #
shell $-1 $-1 $-1 $48 $-1 $12 #
shell $-1 $-1 $-1 $49 $-1 $14 #
shell $-1 $-1 $-1 $50 $-1 $16 #
shell $-1 $-1 $-1 $51 $-1 $18 #
shell $-1 $-1 $-1 $52 $-1 $20 #
shell $-1 $-1 $-1 $53 $-1 $22 #
shell $-1 $-1 $-1 $54 $-1 $24 #
shell $-1 $-1 $-1 $55 $-1 $26 #
shell $-1 $-1 $-1 $56 $-1 $28 #
shell $-1 $-1 $-1 $57 $-1 $30 #
shell $-1 $-1 $-1 $58 $-1 $32 #
shell $-1 $-1 $-1 $59 $-1 $34 #
face $-1 $60 $61 $36 $-1 $62 forward single #
face $-1 $63 $64 $37 $-1 $65 reversed single #
face $-1 $66 $67 $38 $-1 $68 reversed single #
face $-1 $69 $70 $39 $-1 $71 reversed single #
face $-1 $72 $73 $40 $-1 $74 forward single #
face $-1 $75 $76 $41 $-1 $77 forward single #
face $-1 $78 $79 $42 $-1 $80 reversed single #
face $-1 $81 $82 $43 $-1 $83 forward single #
face $-1 $84 $85 $44 $-1 $86 forward single #
face $-1 $87 $88 $45 $-1 $89 reversed single #
face $-1 $90 $91 $46 $-1 $92 forward single #
face $-1 $93 $94 $47 $-1 $95 forward single #
face $-1 $96 $97 $36 $-1 $98 reversed single #
loop $-1 $-1 $99 $48 #
plane-surface $-1 0 0 19.463252661097833 0 0 1 1 0 0 forward_v I I I I #
face $-1 $100 $101 $37 $-1 $102 reversed single #
loop $-1 $-1 $103 $49 #
plane-surface $-1 -60.726645477778419 0 16.909513772403173 -1 0 0 0 0 1 forward_v I I I I #
face $-1 $104 $105 $38 $-1 $106 reversed single #
loop $-1 $-1 $107 $50 #
plane-surface $-1 68.982665370195093 0 14.355774883708513 0 0 1 1 0 0 forward_v I I I I #
face $-1 $108 $109 $39 $-1 $110 reversed single #
loop $-1 $-1 $111 $51 #
plane-surface $-1 -44.783561265395932 -134.61186030329785 135.57824753350127 -1 0 0 0 -0.6018150307709319 0.79863550430605224 forward_v I I I I #
face $-1 $112 $113 $40 $-1 $114 forward single #
loop $-1 $115 $116 $52 #
cone-surface $-1 -56.171478559954849 -35.532770611919283 14.113101659733655 0 0.6018150307709319 -0.79863550430605224 1.5 0 0 1 I I 0 1 1.5 forward I I I I #
face $-1 $117 $118 $41 $-1 $119 forward single #
loop $-1 $120 $121 $53 #
cone-surface $-1 -49.338728183219501 -35.532770611919283 14.113101659733655 0 0.6018150307709319 -0.79863550430605224 1.5 0 0 1 I I 0 1 1.5 forward I I I I #
face $-1 $122 $123 $42 $-1 $124 reversed single #
loop $-1 $-1 $125 $54 #
plane-surface $-1 -53.396062578670204 -4.9301826582468209 81.517527444520411 0 0.82903758062907751 0.55919289150049634 1 0 0 forward_v I I I I #
face $-1 $126 $127 $43 $-1 $128 forward single #
loop $-1 $129 $130 $55 #
cone-surface $-1 -56.537740964002296 38.415833874044679 15.378472452573012 0 -0.82903758062907751 -0.55919289150049634 1 0 0 1 I I 0 1 1 forward I I I I #
face $-1 $131 $132 $44 $-1 $133 forward single #
loop $-1 $134 $135 $56 #
cone-surface $-1 -50.254384193338112 38.415833874044679 15.378472452573012 0 -0.82903758062907751 -0.55919289150049634 1 0 0 1 I I 0 1 1 forward I I I I #
face $-1 $136 $137 $45 $-1 $138 reversed single #
loop $-1 $-1 $139 $57 #
plane-surface $-1 0 123.13736286392606 167.90017493991371 1 0 0 0 -0.82903758062907751 -0.55919289150049634 forward_v I I I I #
face $-1 $140 $141 $46 $-1 $142 forward single #
loop $-1 $143 $144 $58 #
cone-surface $-1 4.1889045137761229 38.415833874044679 15.378472452573012 0 -0.82903758062907751 -0.55919289150049634 1 0 0 1 I I 0 1 1 forward I I I I #
face $-1 $145 $146 $47 $-1 $147 forward single #
loop $-1 $148 $149 $59 #
cone-surface $-1 10.472261284440307 38.415833874044679 15.378472452573012 0 -0.82903758062907751 -0.55919289150049634 1 0 0 1 I I 0 1 1 forward I I I I #
face $-1 $150 $151 $36 $-1 $152 reversed single #
loop $-1 $-1 $153 $60 #
plane-surface $-1 0 0 -19.463252661097833 0 0 1 1 0 0 forward_v I I I I #
coedge $-1 $154 $155 $156 $157 forward $61 $-1 #
face $-1 $158 $159 $37 $-1 $160 reversed single #
loop $-1 $-1 $161 $63 #
plane-surface $-1 -68.982665370195093 0 14.355774883708513 0 0 1 1 0 0 forward_v I I I I #
coedge $-1 $162 $163 $164 $165 reversed $64 $-1 #
face $-1 $166 $167 $38 $-1 $168 forward single #
loop $-1 $-1 $169 $66 #
plane-surface $-1 60.726645477778419 0 16.909513772403173 1 0 0 0 0 -1 forward_v I I I I #
coedge $-1 $170 $171 $172 $173 reversed $67 $-1 #
face $-1 $174 $175 $39 $-1 $176 forward single #
loop $-1 $-1 $177 $69 #
plane-surface $-1 -52.755103371587168 -41.645056807247798 12.207134820216481 0 -0.6018150307709319 0.79863550430605224 1 0 0 forward_v I I I I #
coedge $-1 $178 $179 $180 $181 reversed $70 $-1 #
face $-1 $-1 $182 $40 $-1 $183 forward single #
loop $-1 $184 $185 $72 #
cone-surface $-1 -56.171478559954849 -33.783719850853842 11.792032950580619 0 0.6018150307709319 -0.79863550430605224 0.75 0 0 1 I I -0.70710678118654757 0.70710678118654757 0.75 forward I I I I #
loop $-1 $-1 $186 $52 #
coedge $-1 $116 $116 $187 $188 reversed $73 $-1 #
face $-1 $-1 $189 $41 $-1 $190 forward single #
loop $-1 $191 $192 $75 #
cone-surface $-1 -49.338728183219501 -33.783719850853842 11.792032950580619 0 0.6018150307709319 -0.79863550430605224 0.75 0 0 1 I I -0.70710678118654757 0.70710678118654757 0.75 forward I I I I #
loop $-1 $-1 $193 $53 #
coedge $-1 $121 $121 $194 $195 reversed $76 $-1 #
face $-1 $196 $197 $42 $-1 $198 reversed single #
loop $-1 $-1 $199 $78 #
plane-surface $-1 -46.065479679561996 123.13736286392606 167.90017493991371 -1 0 0 0 0.82903758062907751 0.55919289150049634 forward_v I I I I #
coedge $-1 $200 $201 $202 $203 reversed $79 $-1 #
face $-1 $-1 $204 $43 $-1 $205 forward single #
loop $-1 $206 $207 $81 #
cone-surface $-1 -56.537740964002296 37.131644111136886 14.512275547227851 0 -0.82903758062907751 -0.55919289150049634 0.5 0 0 1 I I -0.70710678118654746 0.70710678118654746 0.5 forward I I I I #
loop $-1 $-1 $208 $55 #
coedge $-1 $130 $130 $209 $210 reversed $82 $-1 #
face $-1 $-1 $211 $44 $-1 $212 forward single #
loop $-1 $213 $214 $84 #
cone-surface $-1 -50.254384193338112 37.131644111136886 14.512275547227851 0 -0.82903758062907751 -0.55919289150049634 0.5 0 0 1 I I -0.70710678118654746 0.70710678118654746 0.5 forward I I I I #
loop $-1 $-1 $215 $56 #
coedge $-1 $135 $135 $216 $217 reversed $85 $-1 #
face $-1 $218 $219 $45 $-1 $220 reversed single #
loop $-1 $-1 $221 $87 #
plane-surface $-1 7.330582899108208 -4.9301826582468209 81.517527444520411 0 0.82903758062907751 0.55919289150049634 1 0 0 forward_v I I I I #
coedge $-1 $222 $223 $224 $225 reversed $88 $-1 #
face $-1 $-1 $226 $46 $-1 $227 forward single #
loop $-1 $228 $229 $90 #
cone-surface $-1 4.1889045137761229 37.131644111136886 14.512275547227851 0 -0.82903758062907751 -0.55919289150049634 0.5 0 0 1 I I -0.70710678118654746 0.70710678118654746 0.5 forward I I I I #
loop $-1 $-1 $230 $58 #
coedge $-1 $144 $144 $231 $232 reversed $91 $-1 #
face $-1 $-1 $233 $47 $-1 $234 forward single #
loop $-1 $235 $236 $93 #
cone-surface $-1 10.472261284440307 37.131644111136886 14.512275547227851 0 -0.82903758062907751 -0.55919289150049634 0.5 0 0 1 I I -0.70710678118654746 0.70710678118654746 0.5 forward I I I I #
loop $-1 $-1 $237 $59 #
coedge $-1 $149 $149 $238 $239 reversed $94 $-1 #
face $-1 $240 $241 $36 $-1 $242 reversed single #
loop $-1 $-1 $243 $96 #
plane-surface $-1 0 -41.645056807247791 0 0 1 0 0 0 1 forward_v I I I I #
coedge $-1 $244 $245 $246 $247 forward $97 $-1 #
coedge $-1 $248 $99 $249 $250 forward $61 $-1 #
coedge $-1 $99 $248 $251 $252 forward $61 $-1 #
coedge $-1 $253 $254 $99 $157 reversed $255 $-1 #
edge $-1 $256 -41.645056807247791 $257 41.645056807247791 $156 $258 forward 7 unknown #
face $-1 $259 $260 $37 $-1 $261 reversed single #
loop $-1 $-1 $262 $100 #
plane-surface $-1 0 41.645056807247791 0 0 -1 0 0 0 -1 forward_v I I I I #
coedge $-1 $263 $264 $265 $266 forward $101 $-1 #
coedge $-1 $265 $103 $267 $268 reversed $64 $-1 #
coedge $-1 $103 $265 $262 $269 reversed $64 $-1 #
coedge $-1 $270 $271 $103 $165 forward $272 $-1 #
edge $-1 $273 -41.645056807247791 $274 41.645056807247791 $164 $275 forward 7 unknown #
face $-1 $276 $277 $38 $-1 $278 reversed single #
loop $-1 $-1 $279 $104 #
plane-surface $-1 0 0 19.463252661097833 0 0 1 1 0 0 forward_v I I I I #
coedge $-1 $280 $281 $282 $283 reversed $105 $-1 #
coedge $-1 $284 $107 $285 $286 reversed $67 $-1 #
coedge $-1 $107 $284 $287 $288 reversed $67 $-1 #
coedge $-1 $289 $290 $107 $173 forward $291 $-1 #
edge $-1 $292 -41.645056807247791 $293 41.645056807247791 $172 $294 forward 7 unknown #
face $-1 $295 $296 $39 $-1 $297 forward single #
loop $-1 $-1 $180 $108 #
plane-surface $-1 0 0 19.463252661097833 0 0 1 1 0 0 forward_v I I I I #
coedge $-1 $298 $299 $300 $301 reversed $109 $-1 #
coedge $-1 $179 $111 $302 $303 reversed $70 $-1 #
coedge $-1 $111 $178 $298 $304 reversed $70 $-1 #
coedge $-1 $300 $305 $111 $181 forward $175 $-1 #
edge $-1 $306 25.660873344401132 $307 35.290066759083658 $180 $308 forward 7 unknown #
loop $-1 $-1 $187 $112 #
plane-surface $-1 -52.755103371587168 -41.645056807247798 12.207134820216481 0 -0.6018150307709319 0.79863550430605224 1 0 0 forward_v I I I I #
loop $-1 $-1 $309 $72 #
coedge $-1 $185 $185 $186 $310 reversed $113 $-1 #
coedge $-1 $186 $186 $185 $310 forward $115 $-1 #
coedge $-1 $187 $187 $116 $188 forward $182 $-1 #
edge $-1 $311 3.2900424308749935e-015 $311 6.283185307179604 $187 $312 forward 7 unknown #
loop $-1 $-1 $194 $117 #
plane-surface $-1 -52.755103371587168 -41.645056807247798 12.207134820216481 0 -0.6018150307709319 0.79863550430605224 1 0 0 forward_v I I I I #
loop $-1 $-1 $313 $75 #
coedge $-1 $192 $192 $193 $314 reversed $118 $-1 #
coedge $-1 $193 $193 $192 $314 forward $120 $-1 #
coedge $-1 $194 $194 $121 $195 forward $189 $-1 #
edge $-1 $315 3.2900424308749935e-015 $315 6.283185307179604 $194 $316 forward 7 unknown #
face $-1 $317 $318 $42 $-1 $319 forward single #
loop $-1 $-1 $320 $122 #
plane-surface $-1 0 41.645056807247791 0 0 -1 0 0 0 -1 forward_v I I I I #
coedge $-1 $321 $322 $323 $324 reversed $123 $-1 #
coedge $-1 $325 $125 $326 $327 reversed $79 $-1 #
coedge $-1 $125 $325 $321 $328 forward $79 $-1 #
coedge $-1 $323 $329 $125 $203 forward $318 $-1 #
edge $-1 $330 -34.028614188443314 $331 -19.367448390226894 $202 $332 forward 7 unknown #
loop $-1 $-1 $209 $126 #
plane-surface $-1 -53.396062578670204 -4.9301826582468209 81.517527444520411 0 0.82903758062907751 0.55919289150049634 1 0 0 forward_v I I I I #
loop $-1 $-1 $333 $81 #
coedge $-1 $207 $207 $208 $334 reversed $127 $-1 #
coedge $-1 $208 $208 $207 $334 forward $129 $-1 #
coedge $-1 $209 $209 $130 $210 forward $204 $-1 #
edge $-1 $335 4.4469525996725958e-016 $335 6.2831853071796013 $209 $336 forward 7 unknown #
loop $-1 $-1 $216 $131 #
plane-surface $-1 -53.396062578670204 -4.9301826582468209 81.517527444520411 0 0.82903758062907751 0.55919289150049634 1 0 0 forward_v I I I I #
loop $-1 $-1 $337 $84 #
coedge $-1 $214 $214 $215 $338 reversed $132 $-1 #
coedge $-1 $215 $215 $214 $338 forward $134 $-1 #
coedge $-1 $216 $216 $135 $217 forward $211 $-1 #
edge $-1 $339 4.4469525996725958e-016 $339 6.2831853071796013 $216 $340 forward 7 unknown #
face $-1 $341 $342 $45 $-1 $343 forward single #
loop $-1 $-1 $344 $136 #
plane-surface $-1 14.661165798216416 123.13736286392606 167.90017493991371 -1 0 0 0 0.82903758062907751 0.55919289150049634 forward_v I I I I #
coedge $-1 $345 $346 $347 $348 reversed $137 $-1 #
coedge $-1 $223 $139 $349 $350 reversed $88 $-1 #
coedge $-1 $139 $222 $345 $351 reversed $88 $-1 #
coedge $-1 $347 $352 $139 $225 forward $342 $-1 #
edge $-1 $353 19.923624624715238 $354 24.642728545934936 $224 $355 forward 7 unknown #
loop $-1 $-1 $231 $140 #
plane-surface $-1 7.330582899108208 -4.9301826582468209 81.517527444520411 0 0.82903758062907751 0.55919289150049634 1 0 0 forward_v I I I I #
loop $-1 $-1 $356 $90 #
coedge $-1 $229 $229 $230 $357 reversed $141 $-1 #
coedge $-1 $230 $230 $229 $357 forward $143 $-1 #
coedge $-1 $231 $231 $144 $232 forward $226 $-1 #
edge $-1 $358 4.4469525996725958e-016 $358 6.2831853071796013 $231 $359 forward 7 unknown #
loop $-1 $-1 $238 $145 #
plane-surface $-1 7.330582899108208 -4.9301826582468209 81.517527444520411 0 0.82903758062907751 0.55919289150049634 1 0 0 forward_v I I I I #
loop $-1 $-1 $360 $93 #
coedge $-1 $236 $236 $237 $361 reversed $146 $-1 #
coedge $-1 $237 $237 $236 $361 forward $148 $-1 #
coedge $-1 $238 $238 $149 $239 forward $233 $-1 #
edge $-1 $362 4.4469525996725958e-016 $362 6.2831853071796013 $238 $363 forward 7 unknown #
face $-1 $364 $365 $36 $-1 $366 reversed single #
loop $-1 $-1 $367 $150 #
plane-surface $-1 -77.238685262611767 0 0 1 0 0 0 0 -1 forward_v I I I I #
coedge $-1 $368 $251 $369 $370 forward $151 $-1 #
coedge $-1 $371 $153 $368 $372 forward $97 $-1 #
coedge $-1 $153 $371 $373 $374 forward $97 $-1 #
coedge $-1 $254 $253 $153 $247 reversed $255 $-1 #
edge $-1 $375 -41.645056807247791 $376 41.645056807247791 $246 $377 forward 7 unknown #
coedge $-1 $155 $154 $378 $379 forward $61 $-1 #
coedge $-1 $380 $381 $154 $250 reversed $365 $-1 #
edge $-1 $257 -77.238685262611767 $382 77.238685262611767 $249 $383 forward 7 unknown #
coedge $-1 $243 $384 $155 $252 reversed $151 $-1 #
edge $-1 $385 -77.238685262611767 $256 77.238685262611767 $251 $386 forward 7 unknown #
coedge $-1 $246 $156 $384 $387 forward $255 $-1 #
coedge $-1 $156 $246 $380 $388 reversed $255 $-1 #
loop $-1 $-1 $253 $364 #
vertex $-1 $157 $389 #
vertex $-1 $157 $390 #
straight-curve $-1 77.238685262611767 0 19.463252661097833 0 1 0 I I #
face $-1 $391 $272 $37 $-1 $392 forward single #
loop $-1 $-1 $393 $158 #
plane-surface $-1 -77.238685262611767 0 0 1 0 0 0 0 -1 forward_v I I I I #
coedge $-1 $394 $395 $163 $269 forward $159 $-1 #
coedge $-1 $396 $161 $397 $398 reversed $101 $-1 #
coedge $-1 $161 $396 $394 $399 reversed $101 $-1 #
coedge $-1 $163 $162 $161 $266 reversed $64 $-1 #
edge $-1 $400 -41.645056807247791 $401 41.645056807247791 $265 $402 forward 7 unknown #
coedge $-1 $403 $397 $162 $268 forward $404 $-1 #
edge $-1 $401 5.9010179975069263 $273 11.008495774896247 $267 $405 forward 7 unknown #
edge $-1 $274 -11.008495774896247 $400 -5.9010179975069263 $262 $406 forward 7 unknown #
coedge $-1 $407 $164 $395 $408 forward $272 $-1 #
coedge $-1 $164 $407 $403 $409 forward $272 $-1 #
loop $-1 $-1 $164 $259 #
vertex $-1 $268 $410 #
vertex $-1 $408 $411 #
straight-curve $-1 -60.726645477778419 0 19.463252661097833 0 1 0 I I #
face $-1 $412 $413 $38 $-1 $414 reversed single #
loop $-1 $-1 $415 $166 #
plane-surface $-1 0 -41.645056807247791 0 0 1 0 0 0 1 forward_v I I I I #
coedge $-1 $416 $417 $281 $418 forward $167 $-1 #
coedge $-1 $419 $169 $284 $420 reversed $105 $-1 #
coedge $-1 $169 $419 $279 $418 reversed $105 $-1 #
coedge $-1 $421 $287 $169 $283 forward $413 $-1 #
edge $-1 $422 5.9010179975069263 $423 11.008495774896247 $282 $424 forward 7 unknown #
coedge $-1 $171 $170 $280 $420 forward $67 $-1 #
coedge $-1 $425 $415 $170 $286 forward $277 $-1 #
edge $-1 $426 26.235312792680872 $292 42.747352577514221 $285 $427 forward 7 unknown #
coedge $-1 $282 $428 $171 $288 forward $413 $-1 #
edge $-1 $293 -42.747352577514221 $422 -26.235312792680872 $287 $429 forward 7 unknown #
coedge $-1 $430 $172 $428 $431 reversed $291 $-1 #
coedge $-1 $172 $430 $425 $432 forward $291 $-1 #
loop $-1 $-1 $172 $412 #
vertex $-1 $286 $433 #
vertex $-1 $173 $434 #
straight-curve $-1 77.238685262611767 0 14.355774883708513 0 1 0 I I #
face $-1 $-1 $435 $39 $-1 $436 reversed single #
loop $-1 $-1 $437 $174 #
plane-surface $-1 -60.726645477778419 0 16.909513772403173 -1 0 0 0 0 1 forward_v I I I I #
coedge $-1 $438 $177 $179 $304 forward $109 $-1 #
coedge $-1 $177 $438 $437 $439 forward $109 $-1 #
coedge $-1 $440 $180 $177 $301 forward $175 $-1 #
edge $-1 $307 18.406009579602348 $441 34.349093791984821 $300 $442 forward 7 unknown #
coedge $-1 $443 $444 $178 $303 forward $435 $-1 #
edge $-1 $445 -55.581988946534146 $306 -48.325871105652801 $302 $446 forward 7 unknown #
edge $-1 $307 -12.05705652048302 $445 -8.8817612989391469e-015 $179 $447 forward 7 unknown #
coedge $-1 $180 $440 $443 $448 forward $175 $-1 #
vertex $-1 $303 $449 #
vertex $-1 $181 $450 #
straight-curve $-1 -44.783561265395932 -67.305930151648923 19.463252661097833 0 1 0 I I #
coedge $-1 $309 $309 $-1 $451 reversed $184 $-1 #
edge $-1 $452 0 $452 6.2831853071796004 $185 $453 forward 7 unknown #
vertex $-1 $188 $454 #
ellipse-curve $-1 -56.171478559954849 -36.830460099906531 15.835193740657161 0 -0.6018150307709319 0.79863550430605224 1.5 0 0 1 I I #
coedge $-1 $313 $313 $-1 $455 reversed $191 $-1 #
edge $-1 $456 0 $456 6.2831853071796004 $192 $457 forward 7 unknown #
vertex $-1 $195 $458 #
ellipse-curve $-1 -49.338728183219501 -36.830460099906531 15.835193740657161 0 -0.6018150307709319 0.79863550430605224 1.5 0 0 1 I I #
face $-1 $-1 $459 $42 $-1 $460 forward single #
loop $-1 $-1 $323 $196 #
plane-surface $-1 0 0 19.463252661097833 0 0 1 1 0 0 forward_v I I I I #
coedge $-1 $461 $462 $322 $463 forward $197 $-1 #
coedge $-1 $322 $199 $201 $328 reversed $123 $-1 #
coedge $-1 $199 $321 $320 $463 reversed $123 $-1 #
coedge $-1 $464 $202 $199 $324 forward $318 $-1 #
edge $-1 $331 -24.642728545934936 $465 -19.923624624715238 $323 $466 forward 7 unknown #
coedge $-1 $201 $200 $461 $467 reversed $79 $-1 #
coedge $-1 $468 $469 $200 $327 forward $459 $-1 #
edge $-1 $470 -55.130416394358988 $330 -46.691282076043876 $326 $471 forward 7 unknown #
edge $-1 $472 -83.290113614495525 $331 -74.850979296180412 $321 $473 forward 7 unknown #
coedge $-1 $202 $464 $468 $474 forward $318 $-1 #
vertex $-1 $327 $475 #
vertex $-1 $203 $476 #
straight-curve $-1 -26.698031289335102 36.925952886028085 19.463252661097833 1 0 0 I I #
coedge $-1 $333 $333 $-1 $477 reversed $206 $-1 #
edge $-1 $478 0 $478 6.2831853071796004 $207 $479 forward 7 unknown #
vertex $-1 $210 $480 #
ellipse-curve $-1 -56.537740964002296 39.285504846637949 15.965072912167933 0 0.82903758062907751 0.55919289150049634 1 0 0 1 I I #
coedge $-1 $337 $337 $-1 $481 reversed $213 $-1 #
edge $-1 $482 0 $482 6.2831853071796004 $214 $483 forward 7 unknown #
vertex $-1 $217 $484 #
ellipse-curve $-1 -50.254384193338112 39.285504846637949 15.965072912167933 0 0.82903758062907751 0.55919289150049634 1 0 0 1 I I #
face $-1 $-1 $485 $45 $-1 $486 reversed single #
loop $-1 $-1 $224 $218 #
plane-surface $-1 0 0 19.463252661097833 0 0 1 1 0 0 forward_v I I I I #
coedge $-1 $487 $488 $489 $490 reversed $219 $-1 #
coedge $-1 $491 $221 $223 $351 forward $137 $-1 #
coedge $-1 $221 $491 $487 $492 forward $137 $-1 #
coedge $-1 $489 $224 $221 $348 forward $342 $-1 #
edge $-1 $354 -3.665291449554104 $493 10.995874348662312 $347 $494 forward 7 unknown #
coedge $-1 $495 $496 $222 $350 forward $485 $-1 #
edge $-1 $497 -71.483194306718801 $353 -64.486834808859015 $349 $498 forward 7 unknown #
edge $-1 $354 74.850979296180412 $497 83.290113614495525 $223 $499 forward 7 unknown #
coedge $-1 $224 $489 $495 $500 forward $342 $-1 #
vertex $-1 $350 $501 #
vertex $-1 $225 $502 #
straight-curve $-1 0 61.568681431963029 19.46325266109784 0 -1 0 I I #
coedge $-1 $356 $356 $-1 $503 reversed $228 $-1 #
edge $-1 $504 0 $504 6.2831853071796004 $229 $505 forward 7 unknown #
vertex $-1 $232 $506 #
ellipse-curve $-1 4.1889045137761229 39.285504846637949 15.965072912167933 0 0.82903758062907751 0.55919289150049634 1 0 0 1 I I #
coedge $-1 $360 $360 $-1 $507 reversed $235 $-1 #
edge $-1 $508 0 $508 6.2831853071796004 $236 $509 forward 7 unknown #
vertex $-1 $239 $510 #
ellipse-curve $-1 10.472261284440307 39.285504846637949 15.965072912167933 0 0.82903758062907751 0.55919289150049634 1 0 0 1 I I #
face $-1 $-1 $255 $36 $-1 $511 reversed single #
loop $-1 $-1 $380 $240 #
plane-surface $-1 0 41.645056807247791 0 0 -1 0 0 0 -1 forward_v I I I I #
coedge $-1 $512 $378 $381 $513 forward $241 $-1 #
coedge $-1 $384 $243 $244 $372 reversed $151 $-1 #
coedge $-1 $378 $512 $243 $370 reversed $241 $-1 #
edge $-1 $385 -19.463252661097833 $514 19.463252661097833 $369 $515 forward 7 unknown #
coedge $-1 $245 $244 $512 $516 forward $97 $-1 #
edge $-1 $376 -77.238685262611767 $514 77.238685262611767 $368 $517 forward 7 unknown #
coedge $-1 $381 $380 $245 $374 reversed $365 $-1 #
edge $-1 $518 -77.238685262611767 $375 77.238685262611767 $373 $519 forward 7 unknown #
vertex $-1 $247 $520 #
vertex $-1 $387 $521 #
straight-curve $-1 77.238685262611767 0 -19.463252661097833 0 -1 0 I I #
coedge $-1 $367 $369 $248 $379 reversed $241 $-1 #
edge $-1 $382 -41.645056807247791 $385 41.645056807247791 $378 $522 forward 7 unknown #
coedge $-1 $373 $249 $254 $388 forward $365 $-1 #
coedge $-1 $249 $373 $367 $513 reversed $365 $-1 #
vertex $-1 $250 $523 #
straight-curve $-1 0 41.645056807247791 19.463252661097833 -1 0 0 I I #
coedge $-1 $251 $368 $253 $387 reversed $151 $-1 #
vertex $-1 $379 $524 #
straight-curve $-1 0 -41.645056807247791 19.463252661097833 1 0 0 I I #
edge $-1 $256 -19.463252661097833 $376 19.463252661097833 $253 $525 forward 7 unknown #
edge $-1 $257 -19.463252661097833 $375 19.463252661097833 $254 $526 forward 7 unknown #
point $-1 77.238685262611767 -41.645056807247791 19.463252661097833 #
point $-1 77.238685262611767 41.645056807247791 19.463252661097833 #
face $-1 $-1 $404 $37 $-1 $527 reversed single #
plane-surface $-1 0 0 19.463252661097833 0 0 1 1 0 0 forward_v I I I I #
coedge $-1 $528 $529 $396 $530 forward $260 $-1 #
coedge $-1 $531 $262 $264 $399 forward $159 $-1 #
coedge $-1 $262 $531 $270 $408 reversed $159 $-1 #
coedge $-1 $264 $263 $393 $530 reversed $101 $-1 #
coedge $-1 $267 $532 $263 $398 forward $404 $-1 #
edge $-1 $533 -42.747352577514221 $401 -26.235312792680872 $397 $534 forward 7 unknown #
edge $-1 $400 26.235312792680872 $535 42.747352577514221 $394 $536 forward 7 unknown #
vertex $-1 $399 $537 #
vertex $-1 $398 $538 #
straight-curve $-1 -60.726645477778419 0 14.355774883708513 0 -1 0 I I #
coedge $-1 $532 $267 $271 $409 reversed $404 $-1 #
loop $-1 $-1 $267 $391 #
straight-curve $-1 -60.726645477778419 -41.645056807247791 8.4547568862015865 0 0 1 I I #
straight-curve $-1 -60.726645477778419 41.645056807247791 8.4547568862015865 0 0 -1 I I #
coedge $-1 $271 $270 $539 $540 forward $272 $-1 #
edge $-1 $274 60.726645477778419 $541 77.238685262611767 $395 $542 forward 7 unknown #
edge $-1 $543 -77.238685262611767 $273 -60.726645477778419 $403 $544 forward 7 unknown #
point $-1 -60.726645477778419 -41.645056807247791 19.463252661097833 #
point $-1 -60.726645477778419 41.645056807247791 19.463252661097833 #
face $-1 $-1 $291 $38 $-1 $545 reversed single #
loop $-1 $-1 $282 $276 #
plane-surface $-1 0 41.645056807247791 0 0 -1 0 0 0 -1 forward_v I I I I #
coedge $-1 $285 $546 $419 $547 forward $277 $-1 #
coedge $-1 $548 $279 $546 $549 forward $167 $-1 #
coedge $-1 $279 $548 $421 $550 forward $167 $-1 #
edge $-1 $423 -41.645056807247791 $551 41.645056807247791 $279 $552 forward 7 unknown #
coedge $-1 $281 $280 $415 $547 reversed $105 $-1 #
edge $-1 $426 -41.645056807247791 $422 41.645056807247791 $280 $553 forward 7 unknown #
coedge $-1 $428 $282 $417 $550 reversed $413 $-1 #
vertex $-1 $288 $554 #
vertex $-1 $283 $555 #
straight-curve $-1 60.726645477778419 41.645056807247791 8.4547568862015865 0 0 1 I I #
coedge $-1 $546 $285 $290 $432 reversed $277 $-1 #
vertex $-1 $286 $556 #
straight-curve $-1 34.491332685097547 -41.645056807247791 14.355774883708513 1 0 0 I I #
coedge $-1 $287 $421 $289 $431 forward $413 $-1 #
straight-curve $-1 34.491332685097547 41.645056807247791 14.355774883708513 -1 0 0 I I #
coedge $-1 $290 $289 $548 $557 reversed $291 $-1 #
edge $-1 $558 -19.463252661097833 $293 -14.355774883708513 $289 $559 forward 7 unknown #
edge $-1 $560 -19.463252661097833 $292 -14.355774883708513 $290 $561 forward 7 unknown #
point $-1 77.238685262611767 -41.645056807247791 14.355774883708513 #
point $-1 77.238685262611767 41.645056807247791 14.355774883708513 #
loop $-1 $-1 $302 $295 #
plane-surface $-1 0 -41.645056807247791 0 0 1 0 0 0 1 forward_v I I I I #
coedge $-1 $562 $563 $299 $439 reversed $296 $-1 #
coedge $-1 $299 $298 $444 $564 reversed $109 $-1 #
edge $-1 $565 8.8817612989391469e-015 $441 12.05705652048302 $437 $566 forward 7 unknown #
coedge $-1 $305 $300 $563 $567 forward $175 $-1 #
vertex $-1 $567 $568 #
straight-curve $-1 -26.377551685793584 -32.015863392565272 19.463252661097833 -1 0 0 I I #
coedge $-1 $569 $302 $305 $448 reversed $435 $-1 #
coedge $-1 $302 $569 $438 $564 forward $435 $-1 #
vertex $-1 $303 $570 #
straight-curve $-1 -44.783561265395932 -41.645056807247791 67.789123766750635 0 0 1 I I #
straight-curve $-1 -44.783561265395932 -41.645056807247798 12.207134820216481 0 -0.79863550430605224 -0.6018150307709319 I I #
edge $-1 $571 -60.726645477778419 $306 -44.783561265395932 $443 $572 forward 7 unknown #
point $-1 -44.783561265395932 -41.645056807247791 19.463252661097833 #
point $-1 -44.783561265395932 -32.015863392565265 19.463252661097833 #
edge $-1 $573 1 $573 0 $309 $-1 forward 7 unknown #
vertex $-1 $310 $574 #
ellipse-curve $-1 -56.171478559954849 -34.235081123932041 12.391009578810159 0 -0.6018150307709319 0.79863550430605224 1.5 0 0 1 I I #
point $-1 -54.671478559954849 -36.830460099906517 15.83519374065715 #
edge $-1 $575 1 $575 0 $313 $-1 forward 7 unknown #
vertex $-1 $314 $576 #
ellipse-curve $-1 -49.338728183219501 -34.235081123932041 12.391009578810159 0 -0.6018150307709319 0.79863550430605224 1.5 0 0 1 I I #
point $-1 -47.838728183219501 -36.830460099906517 15.83519374065715 #
loop $-1 $-1 $326 $317 #
plane-surface $-1 -60.726645477778419 0 16.909513772403173 -1 0 0 0 0 1 forward_v I I I I #
coedge $-1 $577 $320 $325 $467 forward $197 $-1 #
coedge $-1 $320 $577 $464 $578 reversed $197 $-1 #
edge $-1 $465 64.486834808859015 $472 71.483194306718801 $320 $579 forward 7 unknown #
coedge $-1 $329 $323 $462 $578 forward $318 $-1 #
vertex $-1 $578 $580 #
straight-curve $-1 -46.065479679561996 61.568681431963029 19.46325266109784 0 1 0 I I #
edge $-1 $472 19.367448390226894 $470 34.028614188443314 $461 $581 forward 7 unknown #
coedge $-1 $469 $326 $329 $474 reversed $459 $-1 #
coedge $-1 $326 $468 $577 $582 reversed $459 $-1 #
vertex $-1 $582 $583 #
straight-curve $-1 -60.726645477778419 10.816519854059822 58.172080189891055 0 -0.55919289150049634 0.82903758062907751 I I #
vertex $-1 $467 $584 #
straight-curve $-1 -46.065479679561996 -4.9301826582468209 81.517527444520411 0 -0.55919289150049634 0.82903758062907751 I I #
edge $-1 $585 -41.645056807247791 $330 -36.925952886028092 $329 $586 forward 7 unknown #
point $-1 -60.726645477778412 36.925952886028092 19.463252661097833 #
point $-1 -46.065479679561996 36.925952886028092 19.463252661097833 #
edge $-1 $587 1 $587 0 $333 $-1 forward 7 unknown #
vertex $-1 $334 $588 #
ellipse-curve $-1 -56.537740964002296 37.546162901451424 14.7918719929781 0 0.82903758062907751 0.55919289150049634 1 0 0 1 I I #
point $-1 -55.537740964002296 39.285504846637942 15.965072912167928 #
edge $-1 $589 1 $589 0 $337 $-1 forward 7 unknown #
vertex $-1 $338 $590 #
ellipse-curve $-1 -50.254384193338112 37.546162901451424 14.7918719929781 0 0.82903758062907751 0.55919289150049634 1 0 0 1 I I #
point $-1 -49.254384193338112 39.285504846637942 15.965072912167928 #
loop $-1 $-1 $349 $341 #
plane-surface $-1 0 41.645056807247791 0 0 -1 0 0 0 -1 forward_v I I I I #
coedge $-1 $488 $344 $346 $492 reversed $219 $-1 #
coedge $-1 $344 $487 $591 $592 reversed $219 $-1 #
coedge $-1 $352 $347 $344 $490 forward $342 $-1 #
edge $-1 $493 -24.642728545934936 $593 -19.923624624715238 $489 $594 forward 7 unknown #
coedge $-1 $346 $345 $496 $595 reversed $137 $-1 #
edge $-1 $596 -83.290113614495525 $493 -74.850979296180412 $487 $597 forward 7 unknown #
vertex $-1 $348 $598 #
straight-curve $-1 3.665291449554104 36.925952886028085 19.463252661097833 1 0 0 I I #
coedge $-1 $591 $349 $352 $500 reversed $485 $-1 #
coedge $-1 $349 $591 $491 $595 forward $485 $-1 #
vertex $-1 $350 $599 #
straight-curve $-1 0 41.645056807247791 83.950087469956856 0 0 1 I I #
straight-curve $-1 0 -4.9301826582468209 81.517527444520411 0 0.55919289150049634 -0.82903758062907751 I I #
edge $-1 $593 -14.661165798216416 $353 0 $495 $600 forward 7 unknown #
point $-1 0 41.645056807247791 19.463252661097833 #
point $-1 0 36.925952886028092 19.463252661097833 #
edge $-1 $601 1 $601 0 $356 $-1 forward 7 unknown #
vertex $-1 $357 $602 #
ellipse-curve $-1 4.1889045137761229 37.546162901451424 14.7918719929781 0 0.82903758062907751 0.55919289150049634 1 0 0 1 I I #
point $-1 5.1889045137761229 39.285504846637942 15.965072912167928 #
edge $-1 $603 1 $603 0 $360 $-1 forward 7 unknown #
vertex $-1 $361 $604 #
ellipse-curve $-1 10.472261284440307 37.546162901451424 14.7918719929781 0 0.82903758062907751 0.55919289150049634 1 0 0 1 I I #
point $-1 11.472261284440307 39.285504846637942 15.965072912167928 #
plane-surface $-1 77.238685262611767 0 0 -1 0 0 0 0 1 forward_v I I I I #
coedge $-1 $369 $367 $371 $516 reversed $241 $-1 #
edge $-1 $382 -19.463252661097833 $518 19.463252661097833 $381 $605 forward 7 unknown #
vertex $-1 $516 $606 #
straight-curve $-1 -77.238685262611767 -41.645056807247791 0 0 0 -1 I I #
edge $-1 $514 -41.645056807247791 $518 41.645056807247791 $512 $607 forward 7 unknown #
straight-curve $-1 0 -41.645056807247791 -19.463252661097833 -1 0 0 I I #
vertex $-1 $374 $608 #
straight-curve $-1 0 41.645056807247791 -19.463252661097833 1 0 0 I I #
point $-1 77.238685262611767 41.645056807247791 -19.463252661097833 #
point $-1 77.238685262611767 -41.645056807247791 -19.463252661097833 #
straight-curve $-1 -77.238685262611767 0 19.463252661097833 0 -1 0 I I #
point $-1 -77.238685262611767 41.645056807247791 19.463252661097833 #
point $-1 -77.238685262611767 -41.645056807247791 19.463252661097833 #
straight-curve $-1 77.238685262611767 -41.645056807247791 0 0 0 -1 I I #
straight-curve $-1 77.238685262611767 41.645056807247791 0 0 0 -1 I I #
plane-surface $-1 0 -41.645056807247791 0 0 1 0 0 0 1 forward_v I I I I #
coedge $-1 $539 $393 $532 $609 reversed $260 $-1 #
coedge $-1 $393 $539 $531 $610 forward $260 $-1 #
edge $-1 $535 -41.645056807247791 $533 41.645056807247791 $393 $611 forward 7 unknown #
coedge $-1 $395 $394 $529 $610 reversed $159 $-1 #
coedge $-1 $397 $403 $528 $609 forward $404 $-1 #
vertex $-1 $530 $612 #
straight-curve $-1 -34.491332685097547 -41.645056807247791 14.355774883708513 1 0 0 I I #
vertex $-1 $530 $613 #
straight-curve $-1 -34.491332685097547 41.645056807247791 14.355774883708513 -1 0 0 I I #
point $-1 -60.726645477778419 41.645056807247791 14.355774883708513 #
point $-1 -60.726645477778419 -41.645056807247791 14.355774883708513 #
coedge $-1 $529 $528 $407 $540 reversed $260 $-1 #
edge $-1 $541 -41.645056807247791 $543 41.645056807247791 $539 $614 forward 7 unknown #
vertex $-1 $408 $615 #
straight-curve $-1 0 41.645056807247791 19.463252661097833 -1 0 0 I I #
vertex $-1 $540 $616 #
straight-curve $-1 0 -41.645056807247791 19.463252661097833 1 0 0 I I #
plane-surface $-1 77.238685262611767 0 0 -1 0 0 0 0 1 forward_v I I I I #
coedge $-1 $415 $425 $416 $549 reversed $277 $-1 #
edge $-1 $551 -11.008495774896247 $426 -5.9010179975069263 $415 $617 forward 7 unknown #
coedge $-1 $417 $416 $430 $557 forward $167 $-1 #
edge $-1 $551 60.726645477778419 $560 77.238685262611767 $546 $618 forward 7 unknown #
edge $-1 $558 -77.238685262611767 $423 -60.726645477778419 $421 $619 forward 7 unknown #
vertex $-1 $549 $620 #
straight-curve $-1 60.726645477778419 0 19.463252661097833 0 -1 0 I I #
straight-curve $-1 60.726645477778419 0 14.355774883708513 0 1 0 I I #
point $-1 60.726645477778419 41.645056807247791 14.355774883708513 #
point $-1 60.726645477778419 41.645056807247791 19.463252661097833 #
point $-1 60.726645477778419 -41.645056807247791 14.355774883708513 #
edge $-1 $560 -41.645056807247791 $558 41.645056807247791 $430 $621 forward 7 unknown #
vertex $-1 $557 $622 #
straight-curve $-1 77.238685262611767 41.645056807247791 0 0 0 -1 I I #
vertex $-1 $557 $623 #
straight-curve $-1 77.238685262611767 -41.645056807247791 0 0 0 -1 I I #
coedge $-1 $563 $437 $569 $624 reversed $296 $-1 #
coedge $-1 $437 $562 $440 $567 reversed $296 $-1 #
edge $-1 $565 -34.349093791984821 $445 -18.406009579602348 $444 $625 forward 7 unknown #
vertex $-1 $624 $626 #
straight-curve $-1 -60.726645477778405 -41.645056807247798 12.207134820216481 0 0.79863550430605224 0.6018150307709319 I I #
edge $-1 $441 32.015863392565265 $571 41.645056807247791 $440 $627 forward 7 unknown #
point $-1 -60.726645477778405 -32.015863392565265 19.463252661097833 #
coedge $-1 $444 $443 $562 $624 forward $435 $-1 #
point $-1 -44.783561265395932 -41.645056807247791 12.207134820216487 #
vertex $-1 $448 $628 #
straight-curve $-1 0 -41.645056807247791 19.463252661097833 1 0 0 I I #
vertex $-1 $451 $629 #
point $-1 -54.671478559954849 -34.235081123932041 12.391009578810159 #
vertex $-1 $455 $630 #
point $-1 -47.838728183219501 -34.235081123932041 12.391009578810159 #
coedge $-1 $462 $461 $469 $582 forward $197 $-1 #
edge $-1 $465 46.065479679561996 $585 60.726645477778419 $462 $631 forward 7 unknown #
straight-curve $-1 -46.065479679561996 41.645056807247791 83.950087469956856 0 0 -1 I I #
point $-1 -46.065479679561996 41.645056807247791 19.463252661097833 #
straight-curve $-1 -26.698031289335102 41.645056807247791 12.466893163238048 -1 0 0 I I #
edge $-1 $470 -71.483194306718801 $585 -64.486834808859015 $577 $632 forward 7 unknown #
point $-1 -60.726645477778412 41.645056807247791 12.466893163238055 #
point $-1 -46.065479679561996 41.645056807247791 12.466893163238055 #
vertex $-1 $474 $633 #
straight-curve $-1 -60.726645477778419 0 19.463252661097833 0 -1 0 I I #
vertex $-1 $477 $634 #
point $-1 -55.537740964002296 37.546162901451424 14.7918719929781 #
vertex $-1 $481 $635 #
point $-1 -49.254384193338112 37.546162901451424 14.7918719929781 #
coedge $-1 $496 $495 $488 $592 forward $485 $-1 #
edge $-1 $593 64.486834808859015 $596 71.483194306718801 $591 $636 forward 7 unknown #
vertex $-1 $500 $637 #
straight-curve $-1 14.661165798216416 61.568681431963029 19.46325266109784 0 1 0 I I #
edge $-1 $596 -10.995874348662312 $497 3.665291449554104 $496 $638 forward 7 unknown #
vertex $-1 $595 $639 #
straight-curve $-1 14.661165798216416 -4.9301826582468209 81.517527444520411 0 -0.55919289150049634 0.82903758062907751 I I #
point $-1 14.661165798216416 36.925952886028092 19.463252661097833 #
point $-1 0 41.645056807247791 12.466893163238055 #
straight-curve $-1 0 41.645056807247791 19.463252661097833 -1 0 0 I I #
vertex $-1 $503 $640 #
point $-1 5.1889045137761229 37.546162901451424 14.7918719929781 #
vertex $-1 $507 $641 #
point $-1 11.472261284440307 37.546162901451424 14.7918719929781 #
straight-curve $-1 -77.238685262611767 41.645056807247791 0 0 0 -1 I I #
point $-1 -77.238685262611767 -41.645056807247791 -19.463252661097833 #
straight-curve $-1 -77.238685262611767 0 -19.463252661097833 0 1 0 I I #
point $-1 -77.238685262611767 41.645056807247791 -19.463252661097833 #
edge $-1 $543 -19.463252661097833 $533 -14.355774883708513 $528 $642 forward 7 unknown #
edge $-1 $541 -19.463252661097833 $535 -14.355774883708513 $531 $643 forward 7 unknown #
straight-curve $-1 -77.238685262611767 0 14.355774883708513 0 -1 0 I I #
point $-1 -77.238685262611767 -41.645056807247791 14.355774883708513 #
point $-1 -77.238685262611767 41.645056807247791 14.355774883708513 #
straight-curve $-1 -77.238685262611767 0 19.463252661097833 0 -1 0 I I #
point $-1 -77.238685262611767 41.645056807247791 19.463252661097833 #
point $-1 -77.238685262611767 -41.645056807247791 19.463252661097833 #
straight-curve $-1 60.726645477778419 -41.645056807247791 8.4547568862015865 0 0 -1 I I #
straight-curve $-1 0 -41.645056807247791 19.463252661097833 1 0 0 I I #
straight-curve $-1 0 41.645056807247791 19.463252661097833 -1 0 0 I I #
point $-1 60.726645477778419 -41.645056807247791 19.463252661097833 #
straight-curve $-1 77.238685262611767 0 19.463252661097833 0 1 0 I I #
point $-1 77.238685262611767 41.645056807247791 19.463252661097833 #
point $-1 77.238685262611767 -41.645056807247791 19.463252661097833 #
edge $-1 $571 48.325871105652801 $565 55.581988946534146 $569 $644 forward 7 unknown #
straight-curve $-1 -26.377551685793584 -41.645056807247791 12.207134820216488 1 0 0 I I #
point $-1 -60.726645477778405 -41.645056807247791 12.207134820216487 #
straight-curve $-1 -60.726645477778419 0 19.463252661097833 0 -1 0 I I #
point $-1 -60.726645477778419 -41.645056807247791 19.463252661097833 #
point $-1 -56.171478559954849 -33.332358577775643 11.19305632235108 #
point $-1 -49.338728183219501 -33.332358577775643 11.19305632235108 #
straight-curve $-1 0 41.645056807247791 19.463252661097833 -1 0 0 I I #
straight-curve $-1 -60.726645477778412 41.645056807247791 83.950087469956856 0 0 1 I I #
point $-1 -60.726645477778419 41.645056807247791 19.463252661097833 #
point $-1 -56.537740964002296 36.717125320822348 14.232679101477602 #
point $-1 -50.254384193338112 36.717125320822348 14.232679101477602 #
straight-curve $-1 14.661165798216416 41.645056807247791 83.950087469956856 0 0 -1 I I #
point $-1 14.661165798216416 41.645056807247791 19.463252661097833 #
straight-curve $-1 3.665291449554104 41.645056807247791 12.466893163238048 -1 0 0 I I #
point $-1 14.661165798216416 41.645056807247791 12.466893163238055 #
point $-1 4.1889045137761229 36.717125320822348 14.232679101477602 #
point $-1 10.472261284440307 36.717125320822348 14.232679101477602 #
straight-curve $-1 -77.238685262611767 -41.645056807247791 0 0 0 -1 I I #
straight-curve $-1 -77.238685262611767 41.645056807247791 0 0 0 -1 I I #
straight-curve $-1 -60.726645477778405 -41.645056807247791 67.789123766750635 0 0 -1 I I #
End-of-ACIS-data 