500 0 10 0           
7 Unknown 11 ACIS 5.0 NT 24 Thu Mar 25 17:06:42 1999 
-1 9.9999999999999995e-007 1e-010 
body $-1 $10 $-1 $11 #
body $-1 $12 $-1 $13 #
body $-1 $14 $-1 $15 #
body $-1 $16 $-1 $17 #
body $-1 $18 $-1 $19 #
body $-1 $20 $-1 $21 #
body $-1 $22 $-1 $23 #
body $-1 $24 $-1 $25 #
body $-1 $26 $-1 $27 #
body $-1 $28 $-1 $29 #
lump $-1 $-1 $30 $0 #
transform $-1 1 0 0 0 1 0 0 0 1 75.284279915768906 42.971339679086455 14.138038931801121 1 rotate no_reflect no_shear #
lump $-1 $-1 $31 $1 #
transform $-1 1 0 0 0 1 0 0 0 1 75.284279915768906 42.971339679086455 14.138038931801121 1 rotate no_reflect no_shear #
lump $-1 $-1 $32 $2 #
transform $-1 1 0 0 0 1 0 0 0 1 75.284279915768906 42.971339679086455 14.138038931801121 1 rotate no_reflect no_shear #
lump $-1 $-1 $33 $3 #
transform $-1 1 0 0 0 1 0 0 0 1 75.284279915768906 42.971339679086455 14.138038931801121 1 rotate no_reflect no_shear #
lump $-1 $-1 $34 $4 #
transform $-1 1 0 0 0 1 0 0 0 1 75.284279915768906 42.971339679086455 14.138038931801121 1 rotate no_reflect no_shear #
lump $-1 $-1 $35 $5 #
transform $-1 1 0 0 0 1 0 0 0 1 75.284279915768906 42.971339679086455 14.138038931801121 1 rotate no_reflect no_shear #
lump $-1 $-1 $36 $6 #
transform $-1 1 0 0 0 1 0 0 0 1 75.284279915768906 42.971339679086455 14.138038931801121 1 rotate no_reflect no_shear #
lump $-1 $-1 $37 $7 #
transform $-1 1 0 0 0 1 0 0 0 1 75.284279915768906 42.971339679086455 14.138038931801121 1 rotate no_reflect no_shear #
lump $-1 $-1 $38 $8 #
transform $-1 1 0 0 0 1 0 0 0 1 75.284279915768906 42.971339679086455 14.138038931801121 1 rotate no_reflect no_shear #
lump $-1 $-1 $39 $9 #
transform $-1 1 0 0 0 1 0 0 0 1 75.284279915768906 42.971339679086455 14.138038931801121 1 rotate no_reflect no_shear #
shell $-1 $-1 $-1 $40 $-1 $10 #
shell $-1 $-1 $-1 $41 $-1 $12 #
shell $-1 $-1 $-1 $42 $-1 $14 #
shell $-1 $-1 $-1 $43 $-1 $16 #
shell $-1 $-1 $-1 $44 $-1 $18 #
shell $-1 $-1 $-1 $45 $-1 $20 #
shell $-1 $-1 $-1 $46 $-1 $22 #
shell $-1 $-1 $-1 $47 $-1 $24 #
shell $-1 $-1 $-1 $48 $-1 $26 #
shell $-1 $-1 $-1 $49 $-1 $28 #
face $-1 $50 $51 $30 $-1 $52 forward single #
face $-1 $53 $54 $31 $-1 $55 reversed single #
face $-1 $56 $57 $32 $-1 $58 reversed single #
face $-1 $59 $60 $33 $-1 $61 reversed single #
face $-1 $62 $63 $34 $-1 $64 forward single #
face $-1 $65 $66 $35 $-1 $67 forward single #
face $-1 $68 $69 $36 $-1 $70 reversed single #
face $-1 $71 $72 $37 $-1 $73 forward single #
face $-1 $74 $75 $38 $-1 $76 forward single #
face $-1 $77 $78 $39 $-1 $79 forward single #
face $-1 $80 $81 $30 $-1 $82 reversed single #
loop $-1 $-1 $83 $40 #
plane-surface $-1 0 0 14.138038931801121 0 0 1 1 0 0 forward_v I I I I #
face $-1 $84 $85 $31 $-1 $86 reversed single #
loop $-1 $-1 $87 $41 #
plane-surface $-1 -68.508143558694499 0 9.830655202556132 0 0 1 1 0 0 forward_v I I I I #
face $-1 $88 $89 $32 $-1 $90 reversed single #
loop $-1 $-1 $91 $42 #
plane-surface $-1 68.508143558694513 0 9.830655202556132 0 0 1 1 0 0 forward_v I I I I #
face $-1 $92 $93 $33 $-1 $94 reversed single #
loop $-1 $-1 $95 $43 #
plane-surface $-1 -0.9944024106447813 127.77003585157492 151.73892564573609 1 0 0 0 -0.85716730853699208 -0.51503806187062418 forward_v I I I I #
face $-1 $96 $97 $34 $-1 $98 forward single #
loop $-1 $99 $100 $44 #
cone-surface $-1 4.2173013516554931 37.37137211839363 6.4235038387613272 0 -0.85716730853699208 -0.51503806187062418 2 0 0 1 I I 0 1 2 forward I I I I #
face $-1 $101 $102 $35 $-1 $103 forward single #
loop $-1 $104 $105 $45 #
cone-surface $-1 12.034856995105912 37.37137211839363 6.4235038387613272 0 -0.85716730853699208 -0.51503806187062418 2 0 0 1 I I 0 1 2 forward I I I I #
face $-1 $106 $107 $36 $-1 $108 reversed single #
loop $-1 $-1 $109 $46 #
plane-surface $-1 23.265647207458102 -167.79833424062906 86.361455636948094 -1 0 0 0 -0.82903758062907751 0.55919289150049634 forward_v I I I I #
face $-1 $110 $111 $37 $-1 $112 forward single #
loop $-1 $113 $114 $47 #
cone-surface $-1 0.61491583918471804 -36.858339585548578 6.7517736368046215 0 0.82903758062907751 -0.55919289150049634 1.5 0 0 1 I I 0 1 1.5 forward I I I I #
face $-1 $115 $116 $38 $-1 $117 forward single #
loop $-1 $118 $119 $48 #
cone-surface $-1 9.1089401022872352 -36.858339585548578 6.7517736368046215 0 0.82903758062907751 -0.55919289150049634 1.5 0 0 1 I I 0 1 1.5 forward I I I I #
face $-1 $120 $121 $39 $-1 $122 forward single #
loop $-1 $123 $124 $49 #
cone-surface $-1 17.602964365389752 -36.858339585548578 6.7517736368046215 0 0.82903758062907751 -0.55919289150049634 1.5 0 0 1 I I 0 1 1.5 forward I I I I #
face $-1 $125 $126 $30 $-1 $127 reversed single #
loop $-1 $-1 $128 $50 #
plane-surface $-1 0 0 -14.138038931801121 0 0 1 1 0 0 forward_v I I I I #
coedge $-1 $129 $130 $131 $132 forward $51 $-1 #
face $-1 $133 $134 $31 $-1 $135 reversed single #
loop $-1 $-1 $136 $53 #
plane-surface $-1 -61.732007201620092 0 11.984347067178627 -1 0 0 0 0 1 forward_v I I I I #
coedge $-1 $137 $138 $139 $140 forward $54 $-1 #
face $-1 $141 $142 $32 $-1 $143 forward single #
loop $-1 $-1 $144 $56 #
plane-surface $-1 61.732007201620107 0 11.984347067178627 1 0 0 0 0 -1 forward_v I I I I #
coedge $-1 $145 $146 $147 $148 reversed $57 $-1 #
face $-1 $149 $150 $33 $-1 $151 reversed single #
loop $-1 $-1 $152 $59 #
plane-surface $-1 8.1260791733807025 -1.2924113295154172 74.190386411449737 0 0.85716730853699208 0.51503806187062418 1 0 0 forward_v I I I I #
coedge $-1 $153 $154 $155 $156 reversed $60 $-1 #
face $-1 $-1 $157 $34 $-1 $158 forward single #
loop $-1 $159 $160 $62 #
cone-surface $-1 4.2173013516554931 35.004568034797543 5.0013845209779912 0 -0.85716730853699208 -0.51503806187062418 1 0 0 1 I I -0.70710678118654746 0.70710678118654746 1 forward I I I I #
loop $-1 $-1 $161 $44 #
coedge $-1 $100 $100 $162 $163 reversed $63 $-1 #
face $-1 $-1 $164 $35 $-1 $165 forward single #
loop $-1 $166 $167 $65 #
cone-surface $-1 12.034856995105912 35.004568034797543 5.0013845209779912 0 -0.85716730853699208 -0.51503806187062418 1 0 0 1 I I -0.70710678118654746 0.70710678118654746 1 forward I I I I #
loop $-1 $-1 $168 $45 #
coedge $-1 $105 $105 $169 $170 reversed $66 $-1 #
face $-1 $171 $172 $36 $-1 $173 reversed single #
loop $-1 $-1 $174 $68 #
plane-surface $-1 9.1089401022872352 -42.971339679086455 2.1645872956849814 0 -0.82903758062907751 0.55919289150049634 1 0 0 forward_v I I I I #
coedge $-1 $175 $176 $177 $178 reversed $69 $-1 #
face $-1 $-1 $179 $37 $-1 $180 forward single #
loop $-1 $181 $182 $71 #
cone-surface $-1 0.61491583918471804 -34.161658733051567 4.9328394912408253 0 0.82903758062907751 -0.55919289150049634 0.75 0 0 1 I I -0.70710678118654757 0.70710678118654757 0.75 forward I I I I #
loop $-1 $-1 $183 $47 #
coedge $-1 $114 $114 $184 $185 reversed $72 $-1 #
face $-1 $-1 $186 $38 $-1 $187 forward single #
loop $-1 $188 $189 $74 #
cone-surface $-1 9.1089401022872352 -34.161658733051567 4.9328394912408253 0 0.82903758062907751 -0.55919289150049634 0.75 0 0 1 I I -0.70710678118654757 0.70710678118654757 0.75 forward I I I I #
loop $-1 $-1 $190 $48 #
coedge $-1 $119 $119 $191 $192 reversed $75 $-1 #
face $-1 $-1 $193 $39 $-1 $194 forward single #
loop $-1 $195 $196 $77 #
cone-surface $-1 17.602964365389752 -34.161658733051567 4.9328394912408253 0 0.82903758062907751 -0.55919289150049634 0.75 0 0 1 I I -0.70710678118654757 0.70710678118654757 0.75 forward I I I I #
loop $-1 $-1 $197 $49 #
coedge $-1 $124 $124 $198 $199 reversed $78 $-1 #
face $-1 $200 $201 $30 $-1 $202 reversed single #
loop $-1 $-1 $203 $80 #
plane-surface $-1 0 -42.971339679086455 0 0 1 0 0 0 1 forward_v I I I I #
coedge $-1 $204 $205 $206 $207 forward $81 $-1 #
coedge $-1 $208 $83 $209 $210 forward $51 $-1 #
coedge $-1 $83 $208 $211 $212 forward $51 $-1 #
coedge $-1 $213 $214 $83 $132 reversed $215 $-1 #
edge $-1 $216 -42.971339679086455 $217 42.971339679086455 $131 $218 forward 7 unknown #
face $-1 $219 $220 $31 $-1 $221 reversed single #
loop $-1 $-1 $222 $84 #
plane-surface $-1 0 42.971339679086455 0 0 -1 0 0 0 -1 forward_v I I I I #
coedge $-1 $139 $223 $224 $225 reversed $85 $-1 #
coedge $-1 $226 $87 $227 $228 reversed $54 $-1 #
coedge $-1 $87 $226 $229 $230 reversed $54 $-1 #
coedge $-1 $231 $136 $87 $140 reversed $85 $-1 #
edge $-1 $232 -42.971339679086455 $233 42.971339679086455 $139 $234 forward 7 unknown #
face $-1 $235 $236 $32 $-1 $237 reversed single #
loop $-1 $-1 $238 $88 #
plane-surface $-1 0 0 14.138038931801121 0 0 1 1 0 0 forward_v I I I I #
coedge $-1 $239 $240 $241 $242 reversed $89 $-1 #
coedge $-1 $243 $91 $244 $245 reversed $57 $-1 #
coedge $-1 $91 $243 $246 $247 reversed $57 $-1 #
coedge $-1 $248 $249 $91 $148 forward $250 $-1 #
edge $-1 $251 -42.971339679086455 $252 42.971339679086455 $147 $253 forward 7 unknown #
face $-1 $254 $255 $33 $-1 $256 reversed single #
loop $-1 $-1 $257 $92 #
plane-surface $-1 17.246560757406186 127.77003585157492 151.73892564573609 -1 0 0 0 0.85716730853699208 0.51503806187062418 forward_v I I I I #
coedge $-1 $258 $259 $260 $261 reversed $93 $-1 #
coedge $-1 $154 $95 $262 $263 reversed $60 $-1 #
coedge $-1 $95 $153 $258 $264 reversed $60 $-1 #
coedge $-1 $260 $265 $95 $156 forward $266 $-1 #
edge $-1 $267 20.913678246701004 $268 29.094339817968489 $155 $269 forward 7 unknown #
loop $-1 $-1 $162 $96 #
plane-surface $-1 8.1260791733807025 -1.2924113295154172 74.190386411449737 0 0.85716730853699208 0.51503806187062418 1 0 0 forward_v I I I I #
loop $-1 $-1 $270 $62 #
coedge $-1 $160 $160 $161 $271 reversed $97 $-1 #
coedge $-1 $161 $161 $160 $271 forward $99 $-1 #
coedge $-1 $162 $162 $100 $163 forward $157 $-1 #
edge $-1 $272 -2.2104415202681628e-015 $272 6.2831853071795987 $162 $273 forward 7 unknown #
loop $-1 $-1 $169 $101 #
plane-surface $-1 8.1260791733807025 -1.2924113295154172 74.190386411449737 0 0.85716730853699208 0.51503806187062418 1 0 0 forward_v I I I I #
loop $-1 $-1 $274 $65 #
coedge $-1 $167 $167 $168 $275 reversed $102 $-1 #
coedge $-1 $168 $168 $167 $275 forward $104 $-1 #
coedge $-1 $169 $169 $105 $170 forward $164 $-1 #
edge $-1 $276 -2.2104415202681628e-015 $276 6.2831853071795987 $169 $277 forward 7 unknown #
face $-1 $278 $279 $36 $-1 $280 forward single #
loop $-1 $-1 $281 $106 #
plane-surface $-1 -5.0477670028836314 -167.79833424062906 86.361455636948094 1 0 0 0 0.82903758062907751 -0.55919289150049634 forward_v I I I I #
coedge $-1 $282 $283 $284 $285 reversed $107 $-1 #
coedge $-1 $176 $109 $286 $287 reversed $69 $-1 #
coedge $-1 $109 $175 $282 $288 reversed $69 $-1 #
coedge $-1 $284 $289 $109 $178 forward $279 $-1 #
edge $-1 $290 40.927827441228075 $291 49.00402229425341 $177 $292 forward 7 unknown #
loop $-1 $-1 $184 $110 #
plane-surface $-1 9.1089401022872352 -42.971339679086455 2.1645872956849814 0 -0.82903758062907751 0.55919289150049634 1 0 0 forward_v I I I I #
loop $-1 $-1 $293 $71 #
coedge $-1 $182 $182 $183 $294 reversed $111 $-1 #
coedge $-1 $183 $183 $182 $294 forward $113 $-1 #
coedge $-1 $184 $184 $114 $185 forward $179 $-1 #
edge $-1 $295 -2.9646350664483967e-016 $295 6.2831853071796004 $184 $296 forward 7 unknown #
loop $-1 $-1 $191 $115 #
plane-surface $-1 9.1089401022872352 -42.971339679086455 2.1645872956849814 0 -0.82903758062907751 0.55919289150049634 1 0 0 forward_v I I I I #
loop $-1 $-1 $297 $74 #
coedge $-1 $189 $189 $190 $298 reversed $116 $-1 #
coedge $-1 $190 $190 $189 $298 forward $118 $-1 #
coedge $-1 $191 $191 $119 $192 forward $186 $-1 #
edge $-1 $299 -2.9646350664483967e-016 $299 6.2831853071796004 $191 $300 forward 7 unknown #
loop $-1 $-1 $198 $120 #
plane-surface $-1 9.1089401022872352 -42.971339679086455 2.1645872956849814 0 -0.82903758062907751 0.55919289150049634 1 0 0 forward_v I I I I #
loop $-1 $-1 $301 $77 #
coedge $-1 $196 $196 $197 $302 reversed $121 $-1 #
coedge $-1 $197 $197 $196 $302 forward $123 $-1 #
coedge $-1 $198 $198 $124 $199 forward $193 $-1 #
edge $-1 $303 -2.9646350664483967e-016 $303 6.2831853071796004 $198 $304 forward 7 unknown #
face $-1 $305 $306 $30 $-1 $307 reversed single #
loop $-1 $-1 $308 $125 #
plane-surface $-1 -75.284279915768906 0 0 1 0 0 0 0 -1 forward_v I I I I #
coedge $-1 $309 $211 $310 $311 forward $126 $-1 #
coedge $-1 $312 $128 $309 $313 forward $81 $-1 #
coedge $-1 $128 $312 $314 $315 forward $81 $-1 #
coedge $-1 $214 $213 $128 $207 reversed $215 $-1 #
edge $-1 $316 -42.971339679086455 $317 42.971339679086455 $206 $318 forward 7 unknown #
coedge $-1 $130 $129 $319 $320 forward $51 $-1 #
coedge $-1 $321 $322 $129 $210 reversed $306 $-1 #
edge $-1 $217 -75.284279915768906 $323 75.284279915768906 $209 $324 forward 7 unknown #
coedge $-1 $203 $325 $130 $212 reversed $126 $-1 #
edge $-1 $326 -75.284279915768906 $216 75.284279915768906 $211 $327 forward 7 unknown #
coedge $-1 $206 $131 $325 $328 forward $215 $-1 #
coedge $-1 $131 $206 $321 $329 reversed $215 $-1 #
loop $-1 $-1 $213 $305 #
vertex $-1 $132 $330 #
vertex $-1 $132 $331 #
straight-curve $-1 75.284279915768906 0 14.138038931801121 0 1 0 I I #
face $-1 $332 $333 $31 $-1 $334 forward single #
loop $-1 $-1 $335 $133 #
plane-surface $-1 -75.284279915768906 0 0 1 0 0 0 0 -1 forward_v I I I I #
coedge $-1 $229 $336 $231 $337 forward $134 $-1 #
coedge $-1 $136 $231 $338 $339 reversed $85 $-1 #
coedge $-1 $340 $227 $136 $225 forward $341 $-1 #
edge $-1 $233 3.8384816689668186 $342 8.1458653982118072 $224 $343 forward 7 unknown #
coedge $-1 $138 $137 $335 $344 reversed $54 $-1 #
coedge $-1 $224 $345 $137 $228 forward $341 $-1 #
edge $-1 $346 -41.030208136421656 $233 -27.477935422272843 $227 $347 forward 7 unknown #
coedge $-1 $348 $222 $138 $230 forward $134 $-1 #
edge $-1 $232 27.477935422272843 $349 41.030208136421656 $229 $350 forward 7 unknown #
coedge $-1 $223 $139 $222 $337 reversed $85 $-1 #
vertex $-1 $230 $351 #
vertex $-1 $228 $352 #
straight-curve $-1 -61.732007201620092 0 9.830655202556132 0 -1 0 I I #
face $-1 $353 $354 $32 $-1 $355 reversed single #
loop $-1 $-1 $356 $141 #
plane-surface $-1 0 -42.971339679086455 0 0 1 0 0 0 1 forward_v I I I I #
coedge $-1 $357 $358 $240 $359 forward $142 $-1 #
coedge $-1 $360 $144 $243 $361 reversed $89 $-1 #
coedge $-1 $144 $360 $238 $359 reversed $89 $-1 #
coedge $-1 $362 $246 $144 $242 forward $354 $-1 #
edge $-1 $363 3.8384816689668186 $364 8.1458653982118072 $241 $365 forward 7 unknown #
coedge $-1 $146 $145 $239 $361 forward $57 $-1 #
coedge $-1 $366 $356 $145 $245 forward $236 $-1 #
edge $-1 $367 27.47793542227285 $251 41.030208136421663 $244 $368 forward 7 unknown #
coedge $-1 $241 $369 $146 $247 forward $354 $-1 #
edge $-1 $252 -41.030208136421663 $363 -27.47793542227285 $246 $370 forward 7 unknown #
coedge $-1 $371 $147 $369 $372 reversed $250 $-1 #
coedge $-1 $147 $371 $366 $373 forward $250 $-1 #
loop $-1 $-1 $147 $353 #
vertex $-1 $245 $374 #
vertex $-1 $148 $375 #
straight-curve $-1 75.284279915768906 0 9.830655202556132 0 1 0 I I #
face $-1 $-1 $266 $33 $-1 $376 forward single #
loop $-1 $-1 $377 $149 #
plane-surface $-1 0 42.971339679086455 0 0 -1 0 0 0 -1 forward_v I I I I #
coedge $-1 $378 $379 $380 $381 reversed $150 $-1 #
coedge $-1 $382 $152 $154 $264 forward $93 $-1 #
coedge $-1 $152 $382 $378 $383 forward $93 $-1 #
coedge $-1 $380 $155 $152 $261 forward $266 $-1 #
edge $-1 $268 -5.0574419973351326 $384 13.183521170715835 $260 $385 forward 7 unknown #
coedge $-1 $386 $387 $153 $263 forward $255 $-1 #
edge $-1 $388 -75.346331565321066 $267 -61.731423891066925 $262 $389 forward 7 unknown #
edge $-1 $268 70.059073510567742 $388 85.94267935817291 $154 $390 forward 7 unknown #
coedge $-1 $155 $380 $386 $391 forward $266 $-1 #
loop $-1 $-1 $380 $254 #
vertex $-1 $263 $392 #
vertex $-1 $156 $393 #
straight-curve $-1 -0.9944024106447813 63.885017925787459 14.13803893180112 0 -1 0 I I #
coedge $-1 $270 $270 $-1 $394 reversed $159 $-1 #
edge $-1 $395 0 $395 6.2831853071796004 $160 $396 forward 7 unknown #
vertex $-1 $163 $397 #
ellipse-curve $-1 4.2173013516554931 38.881008893452723 7.3305850946740394 0 0.85716730853699208 0.51503806187062418 2 0 0 1 I I #
coedge $-1 $274 $274 $-1 $398 reversed $166 $-1 #
edge $-1 $399 0 $399 6.2831853071796004 $167 $400 forward 7 unknown #
vertex $-1 $170 $401 #
ellipse-curve $-1 12.034856995105912 38.881008893452723 7.3305850946740394 0 0.85716730853699208 0.51503806187062418 2 0 0 1 I I #
face $-1 $-1 $402 $36 $-1 $403 reversed single #
loop $-1 $-1 $177 $171 #
plane-surface $-1 0 0 14.138038931801121 0 0 1 1 0 0 forward_v I I I I #
coedge $-1 $404 $405 $406 $407 reversed $172 $-1 #
coedge $-1 $408 $174 $176 $288 forward $107 $-1 #
coedge $-1 $174 $408 $404 $409 forward $107 $-1 #
coedge $-1 $406 $177 $174 $285 forward $279 $-1 #
edge $-1 $291 -18.711177156314484 $410 9.602237054027249 $284 $411 forward 7 unknown #
coedge $-1 $412 $413 $175 $287 forward $402 $-1 #
edge $-1 $414 -41.016140522789065 $290 -29.042688886672927 $286 $415 forward 7 unknown #
edge $-1 $291 -14.442592128369657 $414 0 $176 $416 forward 7 unknown #
coedge $-1 $177 $406 $412 $417 forward $279 $-1 #
vertex $-1 $287 $418 #
vertex $-1 $178 $419 #
straight-curve $-1 23.265647207458102 -83.89916712031453 14.13803893180112 0 1 0 I I #
coedge $-1 $293 $293 $-1 $420 reversed $181 $-1 #
edge $-1 $421 0 $421 6.2831853071796004 $182 $422 forward 7 unknown #
vertex $-1 $185 $423 #
ellipse-curve $-1 0.61491583918471804 -38.933242252573791 8.1513131137430506 0 -0.82903758062907751 0.55919289150049634 1.5 0 0 1 I I #
coedge $-1 $297 $297 $-1 $424 reversed $188 $-1 #
edge $-1 $425 0 $425 6.2831853071796004 $189 $426 forward 7 unknown #
vertex $-1 $192 $427 #
ellipse-curve $-1 9.1089401022872352 -38.933242252573791 8.1513131137430506 0 -0.82903758062907751 0.55919289150049634 1.5 0 0 1 I I #
coedge $-1 $301 $301 $-1 $428 reversed $195 $-1 #
edge $-1 $429 0 $429 6.2831853071796004 $196 $430 forward 7 unknown #
vertex $-1 $199 $431 #
ellipse-curve $-1 17.602964365389752 -38.933242252573791 8.1513131137430506 0 -0.82903758062907751 0.55919289150049634 1.5 0 0 1 I I #
face $-1 $-1 $215 $30 $-1 $432 reversed single #
loop $-1 $-1 $321 $200 #
plane-surface $-1 0 42.971339679086455 0 0 -1 0 0 0 -1 forward_v I I I I #
coedge $-1 $433 $319 $322 $434 forward $201 $-1 #
coedge $-1 $325 $203 $204 $313 reversed $126 $-1 #
coedge $-1 $319 $433 $203 $311 reversed $201 $-1 #
edge $-1 $326 -14.138038931801121 $435 14.138038931801121 $310 $436 forward 7 unknown #
coedge $-1 $205 $204 $433 $437 forward $81 $-1 #
edge $-1 $317 -75.284279915768906 $435 75.284279915768906 $309 $438 forward 7 unknown #
coedge $-1 $322 $321 $205 $315 reversed $306 $-1 #
edge $-1 $439 -75.284279915768906 $316 75.284279915768906 $314 $440 forward 7 unknown #
vertex $-1 $207 $441 #
vertex $-1 $328 $442 #
straight-curve $-1 75.284279915768906 0 -14.138038931801121 0 -1 0 I I #
coedge $-1 $308 $310 $208 $320 reversed $201 $-1 #
edge $-1 $323 -42.971339679086455 $326 42.971339679086455 $319 $443 forward 7 unknown #
coedge $-1 $314 $209 $214 $329 forward $306 $-1 #
coedge $-1 $209 $314 $308 $434 reversed $306 $-1 #
vertex $-1 $210 $444 #
straight-curve $-1 0 42.971339679086455 14.138038931801121 -1 0 0 I I #
coedge $-1 $211 $309 $213 $328 reversed $126 $-1 #
vertex $-1 $320 $445 #
straight-curve $-1 0 -42.971339679086455 14.138038931801121 1 0 0 I I #
edge $-1 $216 -14.138038931801121 $317 14.138038931801121 $213 $446 forward 7 unknown #
edge $-1 $217 -14.138038931801121 $316 14.138038931801121 $214 $447 forward 7 unknown #
point $-1 75.284279915768906 -42.971339679086455 14.138038931801121 #
point $-1 75.284279915768906 42.971339679086455 14.138038931801121 #
face $-1 $-1 $341 $31 $-1 $448 reversed single #
loop $-1 $-1 $338 $219 #
plane-surface $-1 0 0 14.138038931801121 0 0 1 1 0 0 forward_v I I I I #
coedge $-1 $449 $450 $226 $344 forward $220 $-1 #
coedge $-1 $222 $348 $451 $452 reversed $134 $-1 #
edge $-1 $453 -8.1458653982118072 $232 -3.8384816689668186 $222 $454 forward 7 unknown #
coedge $-1 $451 $455 $223 $339 forward $333 $-1 #
edge $-1 $342 -42.971339679086455 $453 42.971339679086455 $338 $456 forward 7 unknown #
coedge $-1 $345 $224 $455 $457 reversed $341 $-1 #
loop $-1 $-1 $224 $332 #
vertex $-1 $225 $458 #
straight-curve $-1 -61.732007201620092 -42.971339679086455 5.9921735335893134 0 0 1 I I #
edge $-1 $349 -42.971339679086455 $346 42.971339679086455 $335 $459 forward 7 unknown #
coedge $-1 $227 $340 $449 $460 forward $341 $-1 #
vertex $-1 $344 $461 #
straight-curve $-1 -34.25407177934725 -42.971339679086455 9.830655202556132 1 0 0 I I #
coedge $-1 $336 $229 $450 $462 reversed $134 $-1 #
vertex $-1 $344 $463 #
straight-curve $-1 -34.25407177934725 42.971339679086455 9.830655202556132 -1 0 0 I I #
point $-1 -61.732007201620092 42.971339679086455 9.830655202556132 #
point $-1 -61.732007201620092 -42.971339679086455 9.830655202556132 #
face $-1 $-1 $250 $32 $-1 $464 reversed single #
loop $-1 $-1 $241 $235 #
plane-surface $-1 0 42.971339679086455 0 0 -1 0 0 0 -1 forward_v I I I I #
coedge $-1 $244 $465 $360 $466 forward $236 $-1 #
coedge $-1 $467 $238 $465 $468 forward $142 $-1 #
coedge $-1 $238 $467 $362 $469 forward $142 $-1 #
edge $-1 $364 -42.971339679086455 $470 42.971339679086455 $238 $471 forward 7 unknown #
coedge $-1 $240 $239 $356 $466 reversed $89 $-1 #
edge $-1 $367 -42.971339679086455 $363 42.971339679086455 $239 $472 forward 7 unknown #
coedge $-1 $369 $241 $358 $469 reversed $354 $-1 #
vertex $-1 $247 $473 #
vertex $-1 $242 $474 #
straight-curve $-1 61.732007201620107 42.971339679086455 5.9921735335893134 0 0 1 I I #
coedge $-1 $465 $244 $249 $373 reversed $236 $-1 #
vertex $-1 $245 $475 #
straight-curve $-1 34.254071779347257 -42.971339679086455 9.830655202556132 1 0 0 I I #
coedge $-1 $246 $362 $248 $372 forward $354 $-1 #
straight-curve $-1 34.254071779347257 42.971339679086455 9.830655202556132 -1 0 0 I I #
coedge $-1 $249 $248 $467 $476 reversed $250 $-1 #
edge $-1 $477 -14.138038931801121 $252 -9.830655202556132 $248 $478 forward 7 unknown #
edge $-1 $479 -14.138038931801121 $251 -9.830655202556132 $249 $480 forward 7 unknown #
point $-1 75.28427991576892 -42.971339679086455 9.830655202556132 #
point $-1 75.28427991576892 42.971339679086455 9.830655202556132 #
plane-surface $-1 0 0 14.138038931801121 0 0 1 1 0 0 forward_v I I I I #
coedge $-1 $387 $386 $379 $481 forward $255 $-1 #
coedge $-1 $379 $257 $259 $383 reversed $150 $-1 #
coedge $-1 $257 $378 $377 $481 reversed $150 $-1 #
coedge $-1 $265 $260 $257 $381 forward $266 $-1 #
edge $-1 $384 -29.094339817968489 $482 -20.913678246701004 $380 $483 forward 7 unknown #
coedge $-1 $259 $258 $387 $484 reversed $93 $-1 #
edge $-1 $485 -85.94267935817291 $384 -70.059073510567742 $378 $486 forward 7 unknown #
vertex $-1 $261 $487 #
straight-curve $-1 4.0630395866903513 34.79067810781897 14.13803893180112 1 0 0 I I #
coedge $-1 $377 $262 $265 $391 reversed $255 $-1 #
coedge $-1 $262 $377 $382 $484 forward $255 $-1 #
vertex $-1 $263 $488 #
straight-curve $-1 -0.9944024106447813 42.971339679086455 75.869462822868044 0 0 1 I I #
straight-curve $-1 -0.9944024106447813 -1.2924113295154172 74.190386411449737 0 0.51503806187062418 -0.85716730853699208 I I #
edge $-1 $482 -17.246560757406186 $267 0.9944024106447813 $386 $489 forward 7 unknown #
point $-1 -0.9944024106447813 42.971339679086455 14.138038931801121 #
point $-1 -0.9944024106447813 34.79067810781897 14.138038931801127 #
edge $-1 $490 1 $490 0 $270 $-1 forward 7 unknown #
vertex $-1 $271 $491 #
ellipse-curve $-1 4.2173013516554931 35.861735343334537 5.5164225828486151 0 0.85716730853699208 0.51503806187062418 2 0 0 1 I I #
point $-1 6.2173013516554931 38.881008893452716 7.3305850946740403 #
edge $-1 $492 1 $492 0 $274 $-1 forward 7 unknown #
vertex $-1 $275 $493 #
ellipse-curve $-1 12.034856995105912 35.861735343334537 5.5164225828486151 0 0.85716730853699208 0.51503806187062418 2 0 0 1 I I #
point $-1 14.034856995105912 38.881008893452716 7.3305850946740403 #
loop $-1 $-1 $286 $278 #
plane-surface $-1 0 -42.971339679086455 0 0 1 0 0 0 1 forward_v I I I I #
coedge $-1 $405 $281 $283 $409 reversed $172 $-1 #
coedge $-1 $281 $404 $494 $495 reversed $172 $-1 #
coedge $-1 $289 $284 $281 $407 forward $279 $-1 #
edge $-1 $410 -49.00402229425341 $496 -40.927827441228075 $406 $497 forward 7 unknown #
coedge $-1 $283 $282 $413 $498 reversed $107 $-1 #
edge $-1 $499 0 $410 14.442592128369657 $404 $500 forward 7 unknown #
vertex $-1 $285 $501 #
straight-curve $-1 4.5544700511436176 -34.89514482606112 14.138038931801121 -1 0 0 I I #
coedge $-1 $494 $286 $289 $417 reversed $402 $-1 #
coedge $-1 $286 $494 $408 $498 forward $402 $-1 #
vertex $-1 $287 $502 #
straight-curve $-1 23.265647207458102 -42.971339679086455 43.180727818474047 0 0 1 I I #
straight-curve $-1 23.265647207458102 -42.971339679086455 2.1645872956849814 0 -0.55919289150049634 -0.82903758062907751 I I #
edge $-1 $496 -5.0477670028836314 $290 23.265647207458102 $412 $503 forward 7 unknown #
point $-1 23.265647207458102 -42.971339679086455 14.138038931801121 #
point $-1 23.265647207458102 -34.89514482606112 14.138038931801121 #
edge $-1 $504 1 $504 0 $293 $-1 forward 7 unknown #
vertex $-1 $294 $505 #
ellipse-curve $-1 0.61491583918471804 -34.783436918523378 5.3522341598661978 0 -0.82903758062907751 0.55919289150049634 1.5 0 0 1 I I #
point $-1 2.114915839184718 -38.933242252573784 8.1513131137430452 #
edge $-1 $506 1 $506 0 $297 $-1 forward 7 unknown #
vertex $-1 $298 $507 #
ellipse-curve $-1 9.1089401022872352 -34.783436918523378 5.3522341598661978 0 -0.82903758062907751 0.55919289150049634 1.5 0 0 1 I I #
point $-1 10.608940102287235 -38.933242252573784 8.1513131137430452 #
edge $-1 $508 1 $508 0 $301 $-1 forward 7 unknown #
vertex $-1 $302 $509 #
ellipse-curve $-1 17.602964365389752 -34.783436918523378 5.3522341598661978 0 -0.82903758062907751 0.55919289150049634 1.5 0 0 1 I I #
point $-1 19.102964365389752 -38.933242252573784 8.1513131137430452 #
plane-surface $-1 75.284279915768906 0 0 -1 0 0 0 0 1 forward_v I I I I #
coedge $-1 $310 $308 $312 $437 reversed $201 $-1 #
edge $-1 $323 -14.138038931801121 $439 14.138038931801121 $322 $510 forward 7 unknown #
vertex $-1 $437 $511 #
straight-curve $-1 -75.284279915768906 -42.971339679086455 0 0 0 -1 I I #
edge $-1 $435 -42.971339679086455 $439 42.971339679086455 $433 $512 forward 7 unknown #
straight-curve $-1 0 -42.971339679086455 -14.138038931801121 -1 0 0 I I #
vertex $-1 $315 $513 #
straight-curve $-1 0 42.971339679086455 -14.138038931801121 1 0 0 I I #
point $-1 75.284279915768906 42.971339679086455 -14.138038931801121 #
point $-1 75.284279915768906 -42.971339679086455 -14.138038931801121 #
straight-curve $-1 -75.284279915768906 0 14.138038931801121 0 -1 0 I I #
point $-1 -75.284279915768906 42.971339679086455 14.138038931801121 #
point $-1 -75.284279915768906 -42.971339679086455 14.138038931801121 #
straight-curve $-1 75.284279915768906 -42.971339679086455 0 0 0 -1 I I #
straight-curve $-1 75.284279915768906 42.971339679086455 0 0 0 -1 I I #
plane-surface $-1 0 -42.971339679086455 0 0 1 0 0 0 1 forward_v I I I I #
coedge $-1 $514 $335 $345 $460 reversed $220 $-1 #
coedge $-1 $335 $514 $348 $462 forward $220 $-1 #
coedge $-1 $515 $338 $336 $452 forward $333 $-1 #
edge $-1 $453 61.732007201620092 $516 75.284279915768906 $336 $517 forward 7 unknown #
vertex $-1 $452 $518 #
straight-curve $-1 -61.732007201620092 42.971339679086455 5.9921735335893134 0 0 -1 I I #
coedge $-1 $338 $515 $340 $457 forward $333 $-1 #
straight-curve $-1 -61.732007201620092 0 14.138038931801121 0 1 0 I I #
edge $-1 $519 -75.284279915768906 $342 -61.732007201620092 $340 $520 forward 7 unknown #
point $-1 -61.732007201620092 -42.971339679086455 14.138038931801121 #
straight-curve $-1 -75.284279915768906 0 9.830655202556132 0 -1 0 I I #
edge $-1 $519 -14.138038931801121 $346 -9.830655202556132 $449 $521 forward 7 unknown #
point $-1 -75.284279915768906 -42.971339679086455 9.830655202556132 #
edge $-1 $516 -14.138038931801121 $349 -9.830655202556132 $348 $522 forward 7 unknown #
point $-1 -75.284279915768906 42.971339679086455 9.830655202556132 #
plane-surface $-1 75.284279915768906 0 0 -1 0 0 0 0 1 forward_v I I I I #
coedge $-1 $356 $366 $357 $468 reversed $236 $-1 #
edge $-1 $470 -8.1458653982118072 $367 -3.8384816689668186 $356 $523 forward 7 unknown #
coedge $-1 $358 $357 $371 $476 forward $142 $-1 #
edge $-1 $470 61.732007201620107 $479 75.284279915768906 $465 $524 forward 7 unknown #
edge $-1 $477 -75.284279915768906 $364 -61.732007201620107 $362 $525 forward 7 unknown #
vertex $-1 $468 $526 #
straight-curve $-1 61.732007201620107 0 14.138038931801121 0 -1 0 I I #
straight-curve $-1 61.732007201620107 0 9.830655202556132 0 1 0 I I #
point $-1 61.732007201620107 42.971339679086455 9.830655202556132 #
point $-1 61.732007201620107 42.971339679086455 14.138038931801121 #
point $-1 61.732007201620107 -42.971339679086455 9.830655202556132 #
edge $-1 $479 -42.971339679086455 $477 42.971339679086455 $371 $527 forward 7 unknown #
vertex $-1 $476 $528 #
straight-curve $-1 75.284279915768906 42.971339679086455 0 0 0 -1 I I #
vertex $-1 $476 $529 #
straight-curve $-1 75.284279915768906 -42.971339679086455 0 0 0 -1 I I #
edge $-1 $482 61.731423891066925 $485 75.346331565321066 $377 $530 forward 7 unknown #
vertex $-1 $391 $531 #
straight-curve $-1 17.246560757406186 63.885017925787459 14.13803893180112 0 1 0 I I #
edge $-1 $485 -13.183521170715835 $388 5.0574419973351326 $387 $532 forward 7 unknown #
vertex $-1 $484 $533 #
straight-curve $-1 17.246560757406186 -1.2924113295154172 74.190386411449737 0 -0.51503806187062418 0.85716730853699208 I I #
point $-1 17.246560757406186 34.79067810781897 14.138038931801127 #
point $-1 -0.9944024106447813 42.971339679086455 0.52313125754697865 #
straight-curve $-1 0 42.971339679086455 14.138038931801121 -1 0 0 I I #
vertex $-1 $394 $534 #
point $-1 6.2173013516554931 35.861735343334537 5.5164225828486151 #
vertex $-1 $398 $535 #
point $-1 14.034856995105912 35.861735343334537 5.5164225828486151 #
coedge $-1 $413 $412 $405 $495 forward $402 $-1 #
edge $-1 $496 29.042688886672927 $499 41.016140522789065 $494 $536 forward 7 unknown #
vertex $-1 $417 $537 #
straight-curve $-1 -5.0477670028836314 -83.89916712031453 14.13803893180112 0 -1 0 I I #
edge $-1 $499 -9.602237054027249 $414 18.711177156314484 $413 $538 forward 7 unknown #
vertex $-1 $498 $539 #
straight-curve $-1 -5.0477670028836314 -42.971339679086455 2.1645872956849814 0 0.55919289150049634 0.82903758062907751 I I #
point $-1 -5.0477670028836314 -34.89514482606112 14.138038931801121 #
point $-1 23.265647207458102 -42.971339679086455 2.1645872956849814 #
straight-curve $-1 0 -42.971339679086455 14.138038931801121 1 0 0 I I #
vertex $-1 $420 $540 #
point $-1 2.114915839184718 -34.783436918523378 5.3522341598661978 #
vertex $-1 $424 $541 #
point $-1 10.608940102287235 -34.783436918523378 5.3522341598661978 #
vertex $-1 $428 $542 #
point $-1 19.102964365389752 -34.783436918523378 5.3522341598661978 #
straight-curve $-1 -75.284279915768906 42.971339679086455 0 0 0 -1 I I #
point $-1 -75.284279915768906 -42.971339679086455 -14.138038931801121 #
straight-curve $-1 -75.284279915768906 0 -14.138038931801121 0 1 0 I I #
point $-1 -75.284279915768906 42.971339679086455 -14.138038931801121 #
coedge $-1 $450 $449 $515 $543 reversed $220 $-1 #
coedge $-1 $455 $451 $514 $543 forward $333 $-1 #
vertex $-1 $452 $544 #
straight-curve $-1 0 42.971339679086455 14.138038931801121 -1 0 0 I I #
point $-1 -61.732007201620092 42.971339679086455 14.138038931801121 #
vertex $-1 $543 $545 #
straight-curve $-1 0 -42.971339679086455 14.138038931801121 1 0 0 I I #
straight-curve $-1 -75.284279915768906 -42.971339679086455 0 0 0 -1 I I #
straight-curve $-1 -75.284279915768906 42.971339679086455 0 0 0 -1 I I #
straight-curve $-1 61.732007201620107 -42.971339679086455 5.9921735335893134 0 0 -1 I I #
straight-curve $-1 0 -42.971339679086455 14.138038931801121 1 0 0 I I #
straight-curve $-1 0 42.971339679086455 14.138038931801121 -1 0 0 I I #
point $-1 61.732007201620107 -42.971339679086455 14.138038931801121 #
straight-curve $-1 75.284279915768906 0 14.138038931801121 0 1 0 I I #
point $-1 75.284279915768906 42.971339679086455 14.138038931801121 #
point $-1 75.284279915768906 -42.971339679086455 14.138038931801121 #
straight-curve $-1 17.246560757406186 42.971339679086455 75.869462822868044 0 0 -1 I I #
point $-1 17.246560757406186 42.971339679086455 14.138038931801121 #
straight-curve $-1 4.0630395866903513 42.971339679086455 0.52313125754696443 -1 0 0 I I #
point $-1 17.246560757406186 42.971339679086455 0.52313125754697865 #
point $-1 4.2173013516554931 34.14740072626055 4.4863464591073674 #
point $-1 12.034856995105912 34.14740072626055 4.4863464591073674 #
straight-curve $-1 -5.0477670028836314 -42.971339679086455 43.180727818474047 0 0 -1 I I #
point $-1 -5.0477670028836314 -42.971339679086455 14.138038931801121 #
straight-curve $-1 4.5544700511436176 -42.971339679086455 2.1645872956849868 1 0 0 I I #
point $-1 -5.0477670028836314 -42.971339679086455 2.1645872956849814 #
point $-1 0.61491583918471804 -33.539880547579756 4.5134448226154529 #
point $-1 9.1089401022872352 -33.539880547579756 4.5134448226154529 #
point $-1 17.602964365389752 -33.539880547579756 4.5134448226154529 #
edge $-1 $516 -42.971339679086455 $519 42.971339679086455 $514 $546 forward 7 unknown #
point $-1 -75.284279915768906 42.971339679086455 14.138038931801121 #
point $-1 -75.284279915768906 -42.971339679086455 14.138038931801121 #
straight-curve $-1 -75.284279915768906 0 14.138038931801121 0 -1 0 I I #
End-of-ACIS-data 