500 0 3 0           
7 Unknown 11 ACIS 5.0 NT 24 Fri Mar 26 18:16:14 1999 
-1 9.9999999999999995e-007 1e-010 
body $-1 $3 $-1 $4 #
body $-1 $5 $-1 $6 #
body $-1 $7 $-1 $8 #
lump $-1 $-1 $9 $0 #
transform $-1 1 0 0 0 1 0 0 0 1 62.971892452772607 41.759741198867061 17.290141205993521 1 rotate no_reflect no_shear #
lump $-1 $-1 $10 $1 #
transform $-1 1 0 0 0 1 0 0 0 1 62.971892452772607 41.759741198867061 17.290141205993521 1 rotate no_reflect no_shear #
lump $-1 $-1 $11 $2 #
transform $-1 1 0 0 0 1 0 0 0 1 62.971892452772607 41.759741198867061 17.290141205993521 1 rotate no_reflect no_shear #
shell $-1 $-1 $-1 $12 $-1 $3 #
shell $-1 $-1 $-1 $13 $-1 $5 #
shell $-1 $-1 $-1 $14 $-1 $7 #
face $-1 $15 $16 $9 $-1 $17 forward single #
face $-1 $18 $19 $10 $-1 $20 forward single #
face $-1 $21 $22 $11 $-1 $23 reversed single #
face $-1 $24 $25 $9 $-1 $26 reversed single #
loop $-1 $-1 $27 $12 #
plane-surface $-1 0 0 17.290141205993521 0 0 1 1 0 0 forward_v I I I I #
face $-1 $28 $29 $10 $-1 $30 forward single #
loop $-1 $-1 $31 $13 #
plane-surface $-1 -54.279452973282361 0 12.641268802262815 0 0 1 1 0 0 forward_v I I I I #
face $-1 $32 $33 $11 $-1 $34 reversed single #
loop $-1 $-1 $35 $14 #
plane-surface $-1 69.5965277130488 -35.969203414927989 0 0 -1 0 0 0 -1 forward_v I I I I #
face $-1 $36 $37 $9 $-1 $38 reversed single #
loop $-1 $-1 $39 $15 #
plane-surface $-1 0 0 -17.290141205993521 0 0 1 1 0 0 forward_v I I I I #
coedge $-1 $40 $41 $42 $43 forward $16 $-1 #
face $-1 $44 $45 $10 $-1 $46 forward single #
loop $-1 $-1 $47 $18 #
plane-surface $-1 -45.587013493792114 0 14.965705004128168 -1 0 0 0 0 1 forward_v I I I I #
coedge $-1 $48 $49 $50 $51 reversed $19 $-1 #
face $-1 $52 $53 $11 $-1 $54 reversed single #
loop $-1 $-1 $55 $21 #
plane-surface $-1 76.221162973324994 -38.864472306897525 0 -1 0 0 0 0 1 forward_v I I I I #
coedge $-1 $56 $57 $58 $59 forward $22 $-1 #
face $-1 $60 $61 $9 $-1 $62 reversed single #
loop $-1 $-1 $63 $24 #
plane-surface $-1 0 -41.759741198867061 0 0 1 0 0 0 1 forward_v I I I I #
coedge $-1 $64 $65 $66 $67 forward $25 $-1 #
coedge $-1 $68 $27 $69 $70 forward $16 $-1 #
coedge $-1 $27 $68 $71 $72 forward $16 $-1 #
coedge $-1 $73 $74 $27 $43 reversed $75 $-1 #
edge $-1 $76 -41.759741198867061 $77 41.759741198867061 $42 $78 forward 7 unknown #
face $-1 $79 $80 $10 $-1 $81 reversed single #
loop $-1 $-1 $82 $28 #
plane-surface $-1 0 0 17.290141205993521 0 0 1 1 0 0 forward_v I I I I #
coedge $-1 $83 $50 $84 $85 reversed $29 $-1 #
coedge $-1 $86 $31 $87 $88 reversed $19 $-1 #
coedge $-1 $31 $86 $89 $90 reversed $19 $-1 #
coedge $-1 $47 $91 $31 $51 forward $29 $-1 #
edge $-1 $92 -41.759741198867061 $93 41.759741198867061 $50 $94 forward 7 unknown #
face $-1 $95 $96 $11 $-1 $97 forward single #
loop $-1 $-1 $98 $32 #
plane-surface $-1 62.971892452772607 0 0 -1 0 0 0 0 1 forward_v I I I I #
coedge $-1 $99 $100 $101 $102 forward $33 $-1 #
coedge $-1 $103 $35 $104 $105 reversed $22 $-1 #
coedge $-1 $35 $103 $106 $107 reversed $22 $-1 #
coedge $-1 $100 $99 $35 $59 reversed $33 $-1 #
edge $-1 $108 -17.290141205993521 $109 17.290141205993521 $58 $110 forward 7 unknown #
face $-1 $111 $112 $9 $-1 $113 reversed single #
loop $-1 $-1 $114 $36 #
plane-surface $-1 -62.971892452772607 0 0 1 0 0 0 0 -1 forward_v I I I I #
coedge $-1 $115 $71 $116 $117 forward $37 $-1 #
coedge $-1 $118 $39 $115 $119 forward $25 $-1 #
coedge $-1 $39 $118 $120 $121 forward $25 $-1 #
coedge $-1 $74 $73 $39 $67 reversed $75 $-1 #
edge $-1 $122 -41.759741198867061 $123 41.759741198867061 $66 $124 forward 7 unknown #
coedge $-1 $41 $40 $125 $126 forward $16 $-1 #
coedge $-1 $127 $128 $40 $70 reversed $112 $-1 #
edge $-1 $77 -62.971892452772607 $129 62.971892452772607 $69 $130 forward 7 unknown #
coedge $-1 $63 $131 $41 $72 reversed $37 $-1 #
edge $-1 $132 -62.971892452772607 $76 62.971892452772607 $71 $133 forward 7 unknown #
coedge $-1 $66 $42 $131 $134 forward $75 $-1 #
coedge $-1 $42 $66 $127 $135 reversed $75 $-1 #
loop $-1 $-1 $73 $111 #
vertex $-1 $43 $136 #
vertex $-1 $43 $137 #
straight-curve $-1 62.971892452772607 0 17.290141205993521 0 1 0 I I #
face $-1 $138 $139 $10 $-1 $140 reversed single #
loop $-1 $-1 $84 $44 #
plane-surface $-1 0 -41.759741198867061 0 0 1 0 0 0 1 forward_v I I I I #
coedge $-1 $141 $142 $83 $143 forward $45 $-1 #
coedge $-1 $91 $47 $82 $143 reversed $29 $-1 #
coedge $-1 $89 $144 $47 $85 forward $80 $-1 #
edge $-1 $145 -9.8072887039294372 $93 -5.1584163001987307 $84 $146 forward 7 unknown #
coedge $-1 $49 $48 $147 $148 reversed $19 $-1 #
coedge $-1 $149 $150 $48 $88 forward $151 $-1 #
edge $-1 $152 -35.832165966131427 $92 -18.447287007150933 $87 $153 forward 7 unknown #
coedge $-1 $154 $84 $49 $90 forward $80 $-1 #
edge $-1 $93 18.447287007150933 $155 35.832165966131427 $89 $156 forward 7 unknown #
coedge $-1 $50 $83 $149 $157 reversed $29 $-1 #
vertex $-1 $88 $158 #
vertex $-1 $90 $159 #
straight-curve $-1 -45.587013493792114 0 12.641268802262815 0 -1 0 I I #
face $-1 $160 $161 $11 $-1 $162 forward single #
loop $-1 $-1 $163 $52 #
plane-surface $-1 -54.279452973282361 0 12.641268802262815 0 0 1 1 0 0 forward_v I I I I #
coedge $-1 $164 $165 $103 $166 forward $53 $-1 #
coedge $-1 $58 $55 $167 $168 reversed $33 $-1 #
coedge $-1 $55 $58 $169 $170 reversed $33 $-1 #
coedge $-1 $171 $172 $55 $102 reversed $173 $-1 #
edge $-1 $174 -17.290141205993521 $175 17.290141205993521 $55 $176 forward 7 unknown #
coedge $-1 $57 $56 $98 $166 reversed $22 $-1 #
coedge $-1 $167 $177 $56 $105 forward $178 $-1 #
edge $-1 $179 -6.6246352602761931 $109 6.6246352602761931 $56 $180 forward 7 unknown #
coedge $-1 $181 $169 $57 $107 forward $182 $-1 #
edge $-1 $108 -6.6246352602761931 $183 6.6246352602761931 $57 $184 forward 7 unknown #
vertex $-1 $170 $185 #
vertex $-1 $168 $186 #
straight-curve $-1 76.221162973324994 -35.969203414927989 0 0 0 -1 I I #
face $-1 $-1 $75 $9 $-1 $187 reversed single #
loop $-1 $-1 $127 $60 #
plane-surface $-1 0 41.759741198867061 0 0 -1 0 0 0 -1 forward_v I I I I #
coedge $-1 $188 $125 $128 $189 forward $61 $-1 #
coedge $-1 $131 $63 $64 $119 reversed $37 $-1 #
coedge $-1 $125 $188 $63 $117 reversed $61 $-1 #
edge $-1 $132 -17.290141205993521 $190 17.290141205993521 $116 $191 forward 7 unknown #
coedge $-1 $65 $64 $188 $192 forward $25 $-1 #
edge $-1 $123 -62.971892452772607 $190 62.971892452772607 $115 $193 forward 7 unknown #
coedge $-1 $128 $127 $65 $121 reversed $112 $-1 #
edge $-1 $194 -62.971892452772607 $122 62.971892452772607 $120 $195 forward 7 unknown #
vertex $-1 $67 $196 #
vertex $-1 $134 $197 #
straight-curve $-1 62.971892452772607 0 -17.290141205993521 0 -1 0 I I #
coedge $-1 $114 $116 $68 $126 reversed $61 $-1 #
edge $-1 $129 -41.759741198867061 $132 41.759741198867061 $125 $198 forward 7 unknown #
coedge $-1 $120 $69 $74 $135 forward $112 $-1 #
coedge $-1 $69 $120 $114 $189 reversed $112 $-1 #
vertex $-1 $70 $199 #
straight-curve $-1 0 41.759741198867061 17.290141205993521 -1 0 0 I I #
coedge $-1 $71 $115 $73 $134 reversed $37 $-1 #
vertex $-1 $126 $200 #
straight-curve $-1 0 -41.759741198867061 17.290141205993521 1 0 0 I I #
edge $-1 $76 -17.290141205993521 $123 17.290141205993521 $73 $201 forward 7 unknown #
edge $-1 $77 -17.290141205993521 $122 17.290141205993521 $74 $202 forward 7 unknown #
point $-1 62.971892452772607 -41.759741198867061 17.290141205993521 #
point $-1 62.971892452772607 41.759741198867061 17.290141205993521 #
face $-1 $203 $204 $10 $-1 $205 reversed single #
loop $-1 $-1 $206 $79 #
plane-surface $-1 0 0 -17.290141205993521 0 0 1 1 0 0 forward_v I I I I #
coedge $-1 $207 $82 $144 $208 forward $45 $-1 #
coedge $-1 $82 $207 $209 $210 forward $45 $-1 #
edge $-1 $211 -41.759741198867061 $145 41.759741198867061 $82 $212 forward 7 unknown #
coedge $-1 $84 $213 $141 $208 reversed $80 $-1 #
vertex $-1 $208 $214 #
straight-curve $-1 -45.587013493792114 -41.759741198867061 7.4828525020640839 0 0 -1 I I #
coedge $-1 $215 $216 $86 $148 forward $204 $-1 #
edge $-1 $155 -41.759741198867061 $152 41.759741198867061 $147 $217 forward 7 unknown #
coedge $-1 $209 $87 $91 $157 forward $151 $-1 #
coedge $-1 $87 $218 $215 $219 reversed $151 $-1 #
loop $-1 $-1 $149 $203 #
vertex $-1 $219 $220 #
straight-curve $-1 -27.13972648664118 41.759741198867061 12.641268802262815 1 0 0 I I #
coedge $-1 $221 $89 $216 $222 forward $80 $-1 #
vertex $-1 $222 $223 #
straight-curve $-1 -27.13972648664118 -41.759741198867061 12.641268802262815 -1 0 0 I I #
edge $-1 $92 5.1584163001987307 $211 9.8072887039294372 $149 $224 forward 7 unknown #
point $-1 -45.587013493792114 41.759741198867061 12.641268802262815 #
point $-1 -45.587013493792114 -41.759741198867061 12.641268802262815 #
face $-1 $225 $182 $11 $-1 $226 forward single #
loop $-1 $-1 $227 $95 #
plane-surface $-1 -45.587013493792114 0 14.965705004128168 -1 0 0 0 0 1 forward_v I I I I #
coedge $-1 $228 $229 $230 $231 reversed $96 $-1 #
coedge $-1 $232 $98 $177 $233 reversed $53 $-1 #
coedge $-1 $98 $232 $181 $234 reversed $53 $-1 #
edge $-1 $183 -17.290141205993521 $179 17.290141205993521 $98 $235 forward 7 unknown #
coedge $-1 $236 $104 $99 $168 forward $178 $-1 #
edge $-1 $109 -2.8952688919695362 $175 2.8952688919695362 $99 $237 forward 7 unknown #
coedge $-1 $106 $238 $100 $170 forward $182 $-1 #
edge $-1 $174 -2.8952688919695362 $108 2.8952688919695362 $100 $239 forward 7 unknown #
coedge $-1 $240 $101 $238 $241 reversed $173 $-1 #
coedge $-1 $101 $242 $236 $243 reversed $173 $-1 #
loop $-1 $-1 $240 $225 #
vertex $-1 $170 $244 #
vertex $-1 $102 $245 #
straight-curve $-1 76.221162973324994 -41.759741198867061 0 0 0 -1 I I #
coedge $-1 $104 $246 $164 $233 forward $178 $-1 #
loop $-1 $-1 $177 $247 #
vertex $-1 $105 $248 #
straight-curve $-1 69.5965277130488 -35.969203414927989 -17.290141205993521 1 0 0 I I #
coedge $-1 $249 $106 $165 $234 forward $182 $-1 #
loop $-1 $-1 $250 $160 #
vertex $-1 $234 $251 #
straight-curve $-1 69.5965277130488 -35.969203414927989 17.290141205993521 -1 0 0 I I #
point $-1 76.221162973324994 -35.969203414927989 17.290141205993521 #
point $-1 76.221162973324994 -35.969203414927989 -17.290141205993521 #
plane-surface $-1 62.971892452772607 0 0 -1 0 0 0 0 1 forward_v I I I I #
coedge $-1 $116 $114 $118 $192 reversed $61 $-1 #
edge $-1 $129 -17.290141205993521 $194 17.290141205993521 $128 $252 forward 7 unknown #
vertex $-1 $192 $253 #
straight-curve $-1 -62.971892452772607 -41.759741198867061 0 0 0 -1 I I #
edge $-1 $190 -41.759741198867061 $194 41.759741198867061 $188 $254 forward 7 unknown #
straight-curve $-1 0 -41.759741198867061 -17.290141205993521 -1 0 0 I I #
vertex $-1 $121 $255 #
straight-curve $-1 0 41.759741198867061 -17.290141205993521 1 0 0 I I #
point $-1 62.971892452772607 41.759741198867061 -17.290141205993521 #
point $-1 62.971892452772607 -41.759741198867061 -17.290141205993521 #
straight-curve $-1 -62.971892452772607 0 17.290141205993521 0 -1 0 I I #
point $-1 -62.971892452772607 41.759741198867061 17.290141205993521 #
point $-1 -62.971892452772607 -41.759741198867061 17.290141205993521 #
straight-curve $-1 62.971892452772607 -41.759741198867061 0 0 0 -1 I I #
straight-curve $-1 62.971892452772607 41.759741198867061 0 0 0 -1 I I #
face $-1 $256 $151 $10 $-1 $257 reversed single #
loop $-1 $-1 $147 $138 #
plane-surface $-1 -62.971892452772607 0 0 1 0 0 0 0 -1 forward_v I I I I #
coedge $-1 $258 $259 $260 $261 forward $139 $-1 #
coedge $-1 $142 $141 $262 $263 forward $45 $-1 #
edge $-1 $145 -45.587013493792114 $264 62.971892452772607 $144 $265 forward 7 unknown #
coedge $-1 $266 $149 $142 $210 reversed $151 $-1 #
edge $-1 $267 -62.971892452772607 $211 45.587013493792114 $209 $268 forward 7 unknown #
vertex $-1 $143 $269 #
straight-curve $-1 -45.587013493792114 0 17.290141205993521 0 -1 0 I I #
coedge $-1 $144 $221 $270 $271 reversed $80 $-1 #
point $-1 -45.587013493792114 -41.759741198867061 17.290141205993521 #
coedge $-1 $272 $147 $150 $219 forward $204 $-1 #
coedge $-1 $147 $272 $154 $222 reversed $204 $-1 #
straight-curve $-1 -62.971892452772607 0 12.641268802262815 0 1 0 I I #
coedge $-1 $150 $266 $259 $273 reversed $151 $-1 #
edge $-1 $152 -12.641268802262815 $274 17.290141205993521 $150 $275 forward 7 unknown #
point $-1 -62.971892452772607 41.759741198867061 12.641268802262815 #
coedge $-1 $213 $154 $258 $276 reversed $80 $-1 #
edge $-1 $155 -12.641268802262815 $277 17.290141205993521 $216 $278 forward 7 unknown #
point $-1 -62.971892452772607 -41.759741198867061 12.641268802262815 #
straight-curve $-1 -45.587013493792114 41.759741198867061 7.4828525020640839 0 0 1 I I #
face $-1 $247 $173 $11 $-1 $279 reversed single #
plane-surface $-1 0 0 17.290141205993521 0 0 1 1 0 0 forward_v I I I I #
coedge $-1 $280 $230 $240 $281 reversed $161 $-1 #
coedge $-1 $282 $163 $283 $284 reversed $96 $-1 #
coedge $-1 $163 $282 $285 $286 reversed $96 $-1 #
coedge $-1 $227 $287 $163 $231 forward $161 $-1 #
edge $-1 $288 -41.759741198867061 $289 41.759741198867061 $230 $290 forward 7 unknown #
coedge $-1 $165 $164 $291 $292 reversed $53 $-1 #
edge $-1 $293 -41.759741198867061 $179 35.969203414927989 $164 $294 forward 7 unknown #
edge $-1 $183 -35.969203414927989 $295 41.759741198867061 $165 $296 forward 7 unknown #
straight-curve $-1 62.971892452772607 -35.969203414927989 0 0 0 -1 I I #
coedge $-1 $297 $167 $172 $243 forward $178 $-1 #
straight-curve $-1 76.221162973324994 -38.864472306897525 -17.290141205993521 0 -1 0 I I #
coedge $-1 $169 $250 $171 $241 forward $182 $-1 #
straight-curve $-1 76.221162973324994 -38.864472306897525 17.290141205993521 0 1 0 I I #
coedge $-1 $285 $171 $227 $281 forward $173 $-1 #
edge $-1 $298 -115.18354120684091 $174 6.6246352602761931 $171 $299 forward 7 unknown #
coedge $-1 $172 $285 $300 $301 forward $173 $-1 #
edge $-1 $175 -6.6246352602761931 $302 132.56842016582141 $172 $303 forward 7 unknown #
point $-1 76.221162973324994 -41.759741198867061 17.290141205993521 #
point $-1 76.221162973324994 -41.759741198867061 -17.290141205993521 #
coedge $-1 $177 $297 $304 $305 forward $178 $-1 #
face $-1 $306 $178 $11 $-1 $307 reversed single #
point $-1 62.971892452772607 -35.969203414927989 -17.290141205993521 #
coedge $-1 $250 $181 $308 $309 forward $182 $-1 #
coedge $-1 $238 $249 $280 $310 forward $182 $-1 #
point $-1 62.971892452772607 -35.969203414927989 17.290141205993521 #
straight-curve $-1 -62.971892452772607 41.759741198867061 0 0 0 -1 I I #
point $-1 -62.971892452772607 -41.759741198867061 -17.290141205993521 #
straight-curve $-1 -62.971892452772607 0 -17.290141205993521 0 1 0 I I #
point $-1 -62.971892452772607 41.759741198867061 -17.290141205993521 #
face $-1 $-1 $311 $10 $-1 $312 reversed single #
plane-surface $-1 0 41.759741198867061 0 0 -1 0 0 0 -1 forward_v I I I I #
coedge $-1 $313 $206 $221 $276 forward $139 $-1 #
coedge $-1 $206 $313 $218 $273 forward $139 $-1 #
coedge $-1 $314 $270 $206 $261 reversed $311 $-1 #
edge $-1 $315 -41.759741198867061 $316 41.759741198867061 $260 $317 forward 7 unknown #
coedge $-1 $270 $314 $207 $263 reversed $311 $-1 #
edge $-1 $264 -41.759741198867061 $267 41.759741198867061 $262 $318 forward 7 unknown #
vertex $-1 $263 $319 #
straight-curve $-1 0 -41.759741198867061 17.290141205993521 1 0 0 I I #
coedge $-1 $218 $209 $314 $320 forward $151 $-1 #
vertex $-1 $263 $321 #
straight-curve $-1 0 41.759741198867061 17.290141205993521 -1 0 0 I I #
point $-1 -45.587013493792114 41.759741198867061 17.290141205993521 #
coedge $-1 $260 $262 $213 $271 forward $311 $-1 #
edge $-1 $264 -17.290141205993521 $316 17.290141205993521 $270 $322 forward 7 unknown #
coedge $-1 $216 $215 $313 $323 reversed $204 $-1 #
edge $-1 $274 -62.971892452772607 $315 62.971892452772607 $218 $324 forward 7 unknown #
vertex $-1 $273 $325 #
straight-curve $-1 -62.971892452772607 41.759741198867061 0 0 0 -1 I I #
edge $-1 $316 -62.971892452772607 $277 62.971892452772607 $221 $326 forward 7 unknown #
vertex $-1 $323 $327 #
straight-curve $-1 -62.971892452772607 -41.759741198867061 0 0 0 -1 I I #
plane-surface $-1 0 -41.759741198867061 0 0 1 0 0 0 1 forward_v I I I I #
coedge $-1 $287 $227 $250 $310 reversed $161 $-1 #
edge $-1 $298 -9.8072887039294372 $289 -5.1584163001987307 $240 $328 forward 7 unknown #
coedge $-1 $229 $228 $329 $330 reversed $96 $-1 #
coedge $-1 $331 $332 $228 $284 forward $333 $-1 #
edge $-1 $334 -35.832165966131427 $288 -18.447287007150933 $283 $335 forward 7 unknown #
coedge $-1 $242 $240 $229 $286 forward $173 $-1 #
edge $-1 $289 18.447287007150933 $336 35.832165966131427 $285 $337 forward 7 unknown #
coedge $-1 $230 $280 $331 $338 reversed $161 $-1 #
vertex $-1 $284 $339 #
vertex $-1 $286 $340 #
straight-curve $-1 -45.587013493792114 0 12.641268802262815 0 -1 0 I I #
coedge $-1 $304 $308 $232 $292 forward $333 $-1 #
edge $-1 $295 -17.290141205993521 $293 17.290141205993521 $232 $341 forward 7 unknown #
vertex $-1 $233 $342 #
straight-curve $-1 62.971892452772607 0 -17.290141205993521 0 -1 0 I I #
vertex $-1 $234 $343 #
straight-curve $-1 62.971892452772607 0 17.290141205993521 0 1 0 I I #
coedge $-1 $246 $236 $344 $345 forward $178 $-1 #
vertex $-1 $241 $346 #
straight-curve $-1 69.5965277130488 -41.759741198867061 17.290141205993521 1 0 0 I I #
coedge $-1 $329 $344 $242 $301 reversed $347 $-1 #
edge $-1 $336 -12.641268802262815 $302 17.290141205993521 $300 $348 forward 7 unknown #
vertex $-1 $345 $349 #
straight-curve $-1 69.5965277130488 -41.759741198867061 -17.290141205993521 -1 0 0 I I #
coedge $-1 $332 $291 $246 $305 reversed $333 $-1 #
edge $-1 $350 -62.971892452772607 $293 62.971892452772607 $304 $351 forward 7 unknown #
face $-1 $352 $347 $11 $-1 $353 reversed single #
plane-surface $-1 0 0 -17.290141205993521 0 0 1 1 0 0 forward_v I I I I #
coedge $-1 $291 $331 $249 $309 reversed $333 $-1 #
edge $-1 $295 -62.971892452772607 $354 45.587013493792114 $308 $355 forward 7 unknown #
edge $-1 $354 -41.759741198867061 $298 41.759741198867061 $250 $356 forward 7 unknown #
loop $-1 $-1 $270 $256 #
plane-surface $-1 62.971892452772607 0 0 -1 0 0 0 0 1 forward_v I I I I #
coedge $-1 $259 $258 $272 $323 forward $139 $-1 #
coedge $-1 $262 $260 $266 $320 reversed $311 $-1 #
vertex $-1 $261 $357 #
vertex $-1 $271 $358 #
straight-curve $-1 62.971892452772607 0 -17.290141205993521 0 -1 0 I I #
straight-curve $-1 62.971892452772607 0 17.290141205993521 0 1 0 I I #
point $-1 62.971892452772607 -41.759741198867061 17.290141205993521 #
edge $-1 $267 -17.290141205993521 $315 17.290141205993521 $314 $359 forward 7 unknown #
point $-1 62.971892452772607 41.759741198867061 17.290141205993521 #
straight-curve $-1 62.971892452772607 -41.759741198867061 0 0 0 -1 I I #
edge $-1 $277 -41.759741198867061 $274 41.759741198867061 $272 $360 forward 7 unknown #
straight-curve $-1 0 41.759741198867061 -17.290141205993521 1 0 0 I I #
point $-1 -62.971892452772607 41.759741198867061 -17.290141205993521 #
straight-curve $-1 0 -41.759741198867061 -17.290141205993521 -1 0 0 I I #
point $-1 -62.971892452772607 -41.759741198867061 -17.290141205993521 #
straight-curve $-1 -45.587013493792114 -41.759741198867061 7.4828525020640839 0 0 -1 I I #
coedge $-1 $361 $300 $282 $330 forward $347 $-1 #
edge $-1 $336 -41.759741198867061 $334 41.759741198867061 $329 $362 forward 7 unknown #
coedge $-1 $308 $283 $287 $338 forward $333 $-1 #
coedge $-1 $283 $304 $361 $363 reversed $333 $-1 #
loop $-1 $-1 $331 $352 #
vertex $-1 $363 $364 #
straight-curve $-1 -27.13972648664118 41.759741198867061 12.641268802262815 1 0 0 I I #
vertex $-1 $301 $365 #
straight-curve $-1 -27.13972648664118 -41.759741198867061 12.641268802262815 -1 0 0 I I #
edge $-1 $288 5.1584163001987307 $354 9.8072887039294372 $331 $366 forward 7 unknown #
point $-1 -45.587013493792114 41.759741198867061 12.641268802262815 #
point $-1 -45.587013493792114 -41.759741198867061 12.641268802262815 #
straight-curve $-1 62.971892452772607 41.759741198867061 0 0 0 -1 I I #
point $-1 62.971892452772607 41.759741198867061 -17.290141205993521 #
point $-1 62.971892452772607 41.759741198867061 17.290141205993521 #
coedge $-1 $300 $361 $297 $345 reversed $347 $-1 #
edge $-1 $302 -41.759741198867061 $350 41.759741198867061 $344 $367 forward 7 unknown #
point $-1 -45.587013493792114 -41.759741198867061 17.290141205993521 #
loop $-1 $-1 $329 $306 #
straight-curve $-1 -62.971892452772607 -41.759741198867061 0 0 0 -1 I I #
point $-1 -62.971892452772607 -41.759741198867061 -17.290141205993521 #
vertex $-1 $305 $368 #
straight-curve $-1 0 41.759741198867061 -17.290141205993521 1 0 0 I I #
face $-1 $-1 $333 $11 $-1 $369 reversed single #
plane-surface $-1 -62.971892452772607 0 0 1 0 0 0 0 -1 forward_v I I I I #
vertex $-1 $310 $370 #
straight-curve $-1 0 41.759741198867061 17.290141205993521 -1 0 0 I I #
straight-curve $-1 -45.587013493792114 0 17.290141205993521 0 -1 0 I I #
point $-1 62.971892452772607 41.759741198867061 -17.290141205993521 #
point $-1 62.971892452772607 -41.759741198867061 -17.290141205993521 #
straight-curve $-1 62.971892452772607 41.759741198867061 0 0 0 -1 I I #
straight-curve $-1 -62.971892452772607 0 -17.290141205993521 0 1 0 I I #
coedge $-1 $344 $329 $332 $363 forward $347 $-1 #
straight-curve $-1 -62.971892452772607 0 12.641268802262815 0 1 0 I I #
edge $-1 $334 -12.641268802262815 $350 17.290141205993521 $332 $371 forward 7 unknown #
point $-1 -62.971892452772607 41.759741198867061 12.641268802262815 #
point $-1 -62.971892452772607 -41.759741198867061 12.641268802262815 #
straight-curve $-1 -45.587013493792114 41.759741198867061 7.4828525020640839 0 0 1 I I #
straight-curve $-1 -62.971892452772607 0 -17.290141205993521 0 1 0 I I #
point $-1 -62.971892452772607 41.759741198867061 -17.290141205993521 #
plane-surface $-1 0 41.759741198867061 0 0 -1 0 0 0 -1 forward_v I I I I #
point $-1 -45.587013493792114 41.759741198867061 17.290141205993521 #
straight-curve $-1 -62.971892452772607 41.759741198867061 0 0 0 -1 I I #
End-of-ACIS-data 