500 0 12 0           
7 Unknown 11 ACIS 5.0 NT 24 Fri Mar 26 15:14:00 1999 
-1 9.9999999999999995e-007 1e-010 
body $-1 $12 $-1 $13 #
body $-1 $14 $-1 $15 #
body $-1 $16 $-1 $17 #
body $-1 $18 $-1 $19 #
body $-1 $20 $-1 $21 #
body $-1 $22 $-1 $23 #
body $-1 $24 $-1 $25 #
body $-1 $26 $-1 $27 #
body $-1 $28 $-1 $29 #
body $-1 $30 $-1 $31 #
body $-1 $32 $-1 $33 #
body $-1 $34 $-1 $35 #
lump $-1 $-1 $36 $0 #
transform $-1 1 0 0 0 1 0 0 0 1 55.945310831019015 29.471724079398015 11.318735841925367 1 rotate no_reflect no_shear #
lump $-1 $-1 $37 $1 #
transform $-1 1 0 0 0 1 0 0 0 1 55.945310831019015 29.471724079398015 11.318735841925367 1 rotate no_reflect no_shear #
lump $-1 $-1 $38 $2 #
transform $-1 1 0 0 0 1 0 0 0 1 55.945310831019015 29.471724079398015 11.318735841925367 1 rotate no_reflect no_shear #
lump $-1 $-1 $39 $3 #
transform $-1 1 0 0 0 1 0 0 0 1 55.945310831019015 29.471724079398015 11.318735841925367 1 rotate no_reflect no_shear #
lump $-1 $-1 $40 $4 #
transform $-1 1 0 0 0 1 0 0 0 1 55.945310831019015 29.471724079398015 11.318735841925367 1 rotate no_reflect no_shear #
lump $-1 $-1 $41 $5 #
transform $-1 1 0 0 0 1 0 0 0 1 55.945310831019015 29.471724079398015 11.318735841925367 1 rotate no_reflect no_shear #
lump $-1 $-1 $42 $6 #
transform $-1 1 0 0 0 1 0 0 0 1 55.945310831019015 29.471724079398015 11.318735841925367 1 rotate no_reflect no_shear #
lump $-1 $-1 $43 $7 #
transform $-1 1 0 0 0 1 0 0 0 1 55.945310831019015 29.471724079398015 11.318735841925367 1 rotate no_reflect no_shear #
lump $-1 $-1 $44 $8 #
transform $-1 1 0 0 0 1 0 0 0 1 55.945310831019015 29.471724079398015 11.318735841925367 1 rotate no_reflect no_shear #
lump $-1 $-1 $45 $9 #
transform $-1 1 0 0 0 1 0 0 0 1 55.945310831019015 29.471724079398015 11.318735841925367 1 rotate no_reflect no_shear #
lump $-1 $-1 $46 $10 #
transform $-1 1 0 0 0 1 0 0 0 1 55.945310831019015 29.471724079398015 11.318735841925367 1 rotate no_reflect no_shear #
lump $-1 $-1 $47 $11 #
transform $-1 1 0 0 0 1 0 0 0 1 55.945310831019015 29.471724079398015 11.318735841925367 1 rotate no_reflect no_shear #
shell $-1 $-1 $-1 $48 $-1 $12 #
shell $-1 $-1 $-1 $49 $-1 $14 #
shell $-1 $-1 $-1 $50 $-1 $16 #
shell $-1 $-1 $-1 $51 $-1 $18 #
shell $-1 $-1 $-1 $52 $-1 $20 #
shell $-1 $-1 $-1 $53 $-1 $22 #
shell $-1 $-1 $-1 $54 $-1 $24 #
shell $-1 $-1 $-1 $55 $-1 $26 #
shell $-1 $-1 $-1 $56 $-1 $28 #
shell $-1 $-1 $-1 $57 $-1 $30 #
shell $-1 $-1 $-1 $58 $-1 $32 #
shell $-1 $-1 $-1 $59 $-1 $34 #
face $-1 $60 $61 $36 $-1 $62 forward single #
face $-1 $63 $64 $37 $-1 $65 reversed single #
face $-1 $66 $67 $38 $-1 $68 reversed single #
face $-1 $69 $70 $39 $-1 $71 forward single #
face $-1 $72 $73 $40 $-1 $74 forward single #
face $-1 $75 $76 $41 $-1 $77 forward single #
face $-1 $78 $79 $42 $-1 $80 reversed single #
face $-1 $81 $82 $43 $-1 $83 forward single #
face $-1 $84 $85 $44 $-1 $86 forward single #
face $-1 $87 $88 $45 $-1 $89 forward single #
face $-1 $90 $91 $46 $-1 $92 reversed single #
face $-1 $93 $94 $47 $-1 $95 forward single #
face $-1 $96 $97 $36 $-1 $98 reversed single #
loop $-1 $-1 $99 $48 #
plane-surface $-1 0 0 11.318735841925367 0 0 1 1 0 0 forward_v I I I I #
face $-1 $100 $101 $37 $-1 $102 reversed single #
loop $-1 $-1 $103 $49 #
plane-surface $-1 -42.277198462844169 -23.819648205727518 0 1 0 0 0 0 -1 forward_v I I I I #
face $-1 $104 $105 $38 $-1 $106 reversed single #
loop $-1 $-1 $107 $50 #
plane-surface $-1 96.900123169087692 5.6520758736704977 157.9272552565225 0 -1 0 -0.86602541151947299 0 -0.49999998660252726 forward_v I I I I #
face $-1 $108 $109 $39 $-1 $110 forward single #
loop $-1 $111 $112 $51 #
cone-surface $-1 53.711856897632394 0.29108716888985242 7.950280054920853 -0.86602541151947299 0 -0.49999998660252726 0.24999999330126363 0 -0.43301270575973649 1 I I 0 1 0.5 forward I I I I #
face $-1 $113 $114 $40 $-1 $115 forward single #
loop $-1 $116 $117 $52 #
cone-surface $-1 53.711856897632394 2.3014579331825971 7.950280054920853 -0.86602541151947299 0 -0.49999998660252726 0.24999999330126363 0 -0.43301270575973649 1 I I 0 1 0.5 forward I I I I #
face $-1 $118 $119 $41 $-1 $120 forward single #
loop $-1 $121 $122 $53 #
cone-surface $-1 53.711856897632394 4.3118286974753417 7.950280054920853 -0.86602541151947299 0 -0.49999998660252726 0.24999999330126363 0 -0.43301270575973649 1 I I 0 1 0.5 forward I I I I #
face $-1 $123 $124 $42 $-1 $125 reversed single #
loop $-1 $-1 $126 $54 #
plane-surface $-1 1.4990515495583168e-006 2.3014579331825935 101.98194592455505 0.86602541151947299 0 0.49999998660252726 0.49999998660252726 0 -0.86602541151947299 forward_v I I I I #
face $-1 $127 $128 $43 $-1 $129 forward single #
loop $-1 $130 $131 $55 #
cone-surface $-1 53.711856897632394 6.9923230498656608 7.950280054920853 -0.86602541151947299 0 -0.49999998660252726 0.24999999330126363 0 -0.43301270575973649 1 I I 0 1 0.5 forward I I I I #
face $-1 $132 $133 $44 $-1 $134 forward single #
loop $-1 $135 $136 $56 #
cone-surface $-1 53.711856897632394 9.0026938141584054 7.950280054920853 -0.86602541151947299 0 -0.49999998660252726 0.24999999330126363 0 -0.43301270575973649 1 I I 0 1 0.5 forward I I I I #
face $-1 $137 $138 $45 $-1 $139 forward single #
loop $-1 $140 $141 $57 #
cone-surface $-1 53.711856897632394 11.01306457845115 7.950280054920853 -0.86602541151947299 0 -0.49999998660252726 0.24999999330126363 0 -0.43301270575973649 1 I I 0 1 0.5 forward I I I I #
face $-1 $142 $143 $46 $-1 $144 reversed single #
loop $-1 $-1 $145 $58 #
plane-surface $-1 -145.30513545177109 17.234472778245543 69.399685870365374 0 1 0 -0.79863551827123203 0 0.60181501223851219 forward_v I I I I #
face $-1 $146 $147 $47 $-1 $148 forward single #
loop $-1 $149 $150 $59 #
cone-surface $-1 -51.52244946780273 23.353098428821774 5.9857420713998897 0.79863551827123203 0 -0.60181501223851219 1.2036300244770244 0 1.5972710365424641 1 I I 0 1 2 forward I I I I #
face $-1 $151 $152 $36 $-1 $153 reversed single #
loop $-1 $-1 $154 $60 #
plane-surface $-1 0 0 -11.318735841925367 0 0 1 1 0 0 forward_v I I I I #
coedge $-1 $155 $156 $157 $158 forward $61 $-1 #
face $-1 $159 $160 $37 $-1 $161 reversed single #
loop $-1 $-1 $162 $63 #
plane-surface $-1 -39.995247083549657 -18.16757233205702 0 0 -1 0 0 0 -1 forward_v I I I I #
coedge $-1 $163 $164 $165 $166 forward $64 $-1 #
face $-1 $167 $168 $38 $-1 $169 reversed single #
loop $-1 $-1 $170 $66 #
plane-surface $-1 1.4990515495583168e-006 2.3014579331825935 101.98194592455505 0.86602541151947299 0 0.49999998660252726 0.49999998660252726 0 -0.86602541151947299 forward_v I I I I #
coedge $-1 $171 $172 $173 $174 reversed $67 $-1 #
face $-1 $-1 $175 $39 $-1 $176 forward single #
loop $-1 $177 $178 $69 #
cone-surface $-1 53.062337838992789 0.29108716888985242 7.5752800649689576 -0.86602541151947299 0 -0.49999998660252726 0.12499999665063181 0 -0.21650635287986825 1 I I -0.70710678118654746 0.70710678118654746 0.25 forward I I I I #
loop $-1 $-1 $179 $51 #
coedge $-1 $112 $112 $180 $181 reversed $70 $-1 #
face $-1 $-1 $182 $40 $-1 $183 forward single #
loop $-1 $184 $185 $72 #
cone-surface $-1 53.062337838992789 2.3014579331825971 7.5752800649689576 -0.86602541151947299 0 -0.49999998660252726 0.12499999665063181 0 -0.21650635287986825 1 I I -0.70710678118654746 0.70710678118654746 0.25 forward I I I I #
loop $-1 $-1 $186 $52 #
coedge $-1 $117 $117 $187 $188 reversed $73 $-1 #
face $-1 $-1 $189 $41 $-1 $190 forward single #
loop $-1 $191 $192 $75 #
cone-surface $-1 53.062337838992789 4.3118286974753417 7.5752800649689576 -0.86602541151947299 0 -0.49999998660252726 0.12499999665063181 0 -0.21650635287986825 1 I I -0.70710678118654746 0.70710678118654746 0.25 forward I I I I #
loop $-1 $-1 $193 $53 #
coedge $-1 $122 $122 $194 $195 reversed $76 $-1 #
face $-1 $196 $197 $42 $-1 $198 reversed single #
loop $-1 $-1 $199 $78 #
plane-surface $-1 96.900123169087692 12.35331175464631 157.9272552565225 0 -1 0 -0.86602541151947299 0 -0.49999998660252726 forward_v I I I I #
coedge $-1 $200 $201 $202 $203 reversed $79 $-1 #
face $-1 $-1 $204 $43 $-1 $205 forward single #
loop $-1 $206 $207 $81 #
cone-surface $-1 53.062337838992789 6.9923230498656608 7.5752800649689576 -0.86602541151947299 0 -0.49999998660252726 0.12499999665063181 0 -0.21650635287986825 1 I I -0.70710678118654746 0.70710678118654746 0.25 forward I I I I #
loop $-1 $-1 $208 $55 #
coedge $-1 $131 $131 $209 $210 reversed $82 $-1 #
face $-1 $-1 $211 $44 $-1 $212 forward single #
loop $-1 $213 $214 $84 #
cone-surface $-1 53.062337838992789 9.0026938141584054 7.5752800649689576 -0.86602541151947299 0 -0.49999998660252726 0.12499999665063181 0 -0.21650635287986825 1 I I -0.70710678118654746 0.70710678118654746 0.25 forward I I I I #
loop $-1 $-1 $215 $56 #
coedge $-1 $136 $136 $216 $217 reversed $85 $-1 #
face $-1 $-1 $218 $45 $-1 $219 forward single #
loop $-1 $220 $221 $87 #
cone-surface $-1 53.062337838992789 11.01306457845115 7.5752800649689576 -0.86602541151947299 0 -0.49999998660252726 0.12499999665063181 0 -0.21650635287986825 1 I I -0.70710678118654746 0.70710678118654746 0.25 forward I I I I #
loop $-1 $-1 $222 $57 #
coedge $-1 $141 $141 $223 $224 reversed $88 $-1 #
face $-1 $225 $226 $46 $-1 $227 forward single #
loop $-1 $-1 $228 $90 #
plane-surface $-1 -55.945310831019015 23.353098428821781 2.062230025451214 -0.79863551827123203 0 0.60181501223851219 0.60181501223851219 0 0.79863551827123203 forward_v I I I I #
coedge $-1 $229 $230 $231 $232 reversed $91 $-1 #
face $-1 $-1 $233 $47 $-1 $234 forward single #
loop $-1 $235 $236 $93 #
cone-surface $-1 -49.788591211057259 23.353098428821774 4.6791861968729798 0.79863551827123203 0 -0.60181501223851219 0.60181501223851219 0 0.79863551827123203 1 I I -0.70710678118654746 0.70710678118654746 1 forward I I I I #
loop $-1 $-1 $237 $59 #
coedge $-1 $150 $150 $238 $239 reversed $94 $-1 #
face $-1 $240 $241 $36 $-1 $242 reversed single #
loop $-1 $-1 $243 $96 #
plane-surface $-1 0 -29.471724079398015 0 0 1 0 0 0 1 forward_v I I I I #
coedge $-1 $244 $245 $246 $247 forward $97 $-1 #
coedge $-1 $248 $99 $249 $250 forward $61 $-1 #
coedge $-1 $99 $248 $251 $252 forward $61 $-1 #
coedge $-1 $253 $254 $99 $158 reversed $255 $-1 #
edge $-1 $256 -29.471724079398015 $257 29.471724079398015 $157 $258 forward 7 unknown #
face $-1 $259 $260 $37 $-1 $261 forward single #
loop $-1 $-1 $262 $100 #
plane-surface $-1 -37.713295704255145 -23.819648205727518 0 -1 0 0 0 0 1 forward_v I I I I #
coedge $-1 $263 $264 $265 $266 forward $101 $-1 #
coedge $-1 $267 $103 $268 $269 reversed $64 $-1 #
coedge $-1 $103 $267 $270 $271 reversed $64 $-1 #
coedge $-1 $264 $263 $103 $166 reversed $101 $-1 #
edge $-1 $272 -11.318735841925367 $273 11.318735841925367 $165 $274 forward 7 unknown #
face $-1 $275 $276 $38 $-1 $277 reversed single #
loop $-1 $-1 $278 $104 #
plane-surface $-1 96.900123169087692 -1.0491600073053107 157.9272552565225 0 1 0 0.86602541151947299 0 0.49999998660252726 forward_v I I I I #
coedge $-1 $279 $280 $281 $282 reversed $105 $-1 #
coedge $-1 $172 $107 $283 $284 reversed $67 $-1 #
coedge $-1 $107 $171 $279 $285 reversed $67 $-1 #
coedge $-1 $281 $286 $107 $174 forward $287 $-1 #
edge $-1 $288 -7.4952492464751685 $289 -3.8943667912214224 $173 $290 forward 7 unknown #
loop $-1 $-1 $180 $108 #
plane-surface $-1 1.4990515495583168e-006 2.3014579331825935 101.98194592455505 0.86602541151947299 0 0.49999998660252726 0.49999998660252726 0 -0.86602541151947299 forward_v I I I I #
loop $-1 $-1 $291 $69 #
coedge $-1 $178 $178 $179 $292 reversed $109 $-1 #
coedge $-1 $179 $179 $178 $292 forward $111 $-1 #
coedge $-1 $180 $180 $112 $181 forward $175 $-1 #
edge $-1 $293 0 $293 6.2831853071796004 $180 $294 forward 7 unknown #
loop $-1 $-1 $187 $113 #
plane-surface $-1 1.4990515495583168e-006 2.3014579331825935 101.98194592455505 0.86602541151947299 0 0.49999998660252726 0.49999998660252726 0 -0.86602541151947299 forward_v I I I I #
loop $-1 $-1 $295 $72 #
coedge $-1 $185 $185 $186 $296 reversed $114 $-1 #
coedge $-1 $186 $186 $185 $296 forward $116 $-1 #
coedge $-1 $187 $187 $117 $188 forward $182 $-1 #
edge $-1 $297 0 $297 6.2831853071796004 $187 $298 forward 7 unknown #
loop $-1 $-1 $194 $118 #
plane-surface $-1 1.4990515495583168e-006 2.3014579331825935 101.98194592455505 0.86602541151947299 0 0.49999998660252726 0.49999998660252726 0 -0.86602541151947299 forward_v I I I I #
loop $-1 $-1 $299 $75 #
coedge $-1 $192 $192 $193 $300 reversed $119 $-1 #
coedge $-1 $193 $193 $192 $300 forward $121 $-1 #
coedge $-1 $194 $194 $122 $195 forward $189 $-1 #
edge $-1 $301 0 $301 6.2831853071796004 $194 $302 forward 7 unknown #
face $-1 $303 $304 $42 $-1 $305 forward single #
loop $-1 $-1 $306 $123 #
plane-surface $-1 55.945310831019015 0 0 -1 0 0 0 0 1 forward_v I I I I #
coedge $-1 $307 $308 $309 $310 reversed $124 $-1 #
coedge $-1 $311 $126 $312 $313 reversed $79 $-1 #
coedge $-1 $126 $311 $306 $314 reversed $79 $-1 #
coedge $-1 $315 $316 $126 $203 forward $304 $-1 #
edge $-1 $317 104.68885655855965 $318 111.89062166203804 $202 $319 forward 7 unknown #
loop $-1 $-1 $209 $127 #
plane-surface $-1 1.4990515495583168e-006 2.3014579331825935 101.98194592455505 0.86602541151947299 0 0.49999998660252726 0.49999998660252726 0 -0.86602541151947299 forward_v I I I I #
loop $-1 $-1 $320 $81 #
coedge $-1 $207 $207 $208 $321 reversed $128 $-1 #
coedge $-1 $208 $208 $207 $321 forward $130 $-1 #
coedge $-1 $209 $209 $131 $210 forward $204 $-1 #
edge $-1 $322 0 $322 6.2831853071796004 $209 $323 forward 7 unknown #
loop $-1 $-1 $216 $132 #
plane-surface $-1 1.4990515495583168e-006 2.3014579331825935 101.98194592455505 0.86602541151947299 0 0.49999998660252726 0.49999998660252726 0 -0.86602541151947299 forward_v I I I I #
loop $-1 $-1 $324 $84 #
coedge $-1 $214 $214 $215 $325 reversed $133 $-1 #
coedge $-1 $215 $215 $214 $325 forward $135 $-1 #
coedge $-1 $216 $216 $136 $217 forward $211 $-1 #
edge $-1 $326 0 $326 6.2831853071796004 $216 $327 forward 7 unknown #
loop $-1 $-1 $223 $137 #
plane-surface $-1 1.4990515495583168e-006 2.3014579331825935 101.98194592455505 0.86602541151947299 0 0.49999998660252726 0.49999998660252726 0 -0.86602541151947299 forward_v I I I I #
loop $-1 $-1 $328 $87 #
coedge $-1 $221 $221 $222 $329 reversed $138 $-1 #
coedge $-1 $222 $222 $221 $329 forward $140 $-1 #
coedge $-1 $223 $223 $141 $224 forward $218 $-1 #
edge $-1 $330 0 $330 6.2831853071796004 $223 $331 forward 7 unknown #
face $-1 $332 $333 $46 $-1 $334 reversed single #
loop $-1 $-1 $231 $142 #
plane-surface $-1 0 0 11.318735841925367 0 0 1 1 0 0 forward_v I I I I #
coedge $-1 $335 $336 $337 $338 reversed $143 $-1 #
coedge $-1 $230 $145 $339 $340 reversed $91 $-1 #
coedge $-1 $145 $229 $335 $341 reversed $91 $-1 #
coedge $-1 $337 $342 $145 $232 forward $226 $-1 #
edge $-1 $343 16.707256894866532 $344 23.682534144350612 $231 $345 forward 7 unknown #
loop $-1 $-1 $238 $146 #
plane-surface $-1 -55.945310831019015 23.353098428821781 2.062230025451214 -0.79863551827123203 0 0.60181501223851219 0.60181501223851219 0 0.79863551827123203 forward_v I I I I #
loop $-1 $-1 $346 $93 #
coedge $-1 $236 $236 $237 $347 reversed $147 $-1 #
coedge $-1 $237 $237 $236 $347 forward $149 $-1 #
coedge $-1 $238 $238 $150 $239 forward $233 $-1 #
edge $-1 $348 0 $348 6.2831853071796004 $238 $349 forward 7 unknown #
face $-1 $350 $351 $36 $-1 $352 reversed single #
loop $-1 $-1 $353 $151 #
plane-surface $-1 -55.945310831019015 0 0 1 0 0 0 0 -1 forward_v I I I I #
coedge $-1 $354 $251 $355 $356 forward $152 $-1 #
coedge $-1 $357 $154 $354 $358 forward $97 $-1 #
coedge $-1 $154 $357 $359 $360 forward $97 $-1 #
coedge $-1 $254 $253 $154 $247 reversed $255 $-1 #
edge $-1 $361 -29.471724079398015 $362 29.471724079398015 $246 $363 forward 7 unknown #
coedge $-1 $156 $155 $364 $365 forward $61 $-1 #
coedge $-1 $366 $367 $155 $250 reversed $351 $-1 #
edge $-1 $257 -55.945310831019015 $368 55.945310831019015 $249 $369 forward 7 unknown #
coedge $-1 $243 $370 $156 $252 reversed $152 $-1 #
edge $-1 $371 -55.945310831019015 $256 55.945310831019015 $251 $372 forward 7 unknown #
coedge $-1 $246 $157 $370 $373 forward $255 $-1 #
coedge $-1 $157 $246 $366 $374 reversed $255 $-1 #
loop $-1 $-1 $253 $350 #
vertex $-1 $158 $375 #
vertex $-1 $158 $376 #
straight-curve $-1 55.945310831019015 0 11.318735841925367 0 1 0 I I #
face $-1 $377 $378 $37 $-1 $379 reversed single #
loop $-1 $-1 $380 $159 #
plane-surface $-1 0 0 11.318735841925367 0 0 1 1 0 0 forward_v I I I I #
coedge $-1 $381 $382 $383 $384 reversed $160 $-1 #
coedge $-1 $165 $162 $385 $386 reversed $101 $-1 #
coedge $-1 $162 $165 $387 $388 reversed $101 $-1 #
coedge $-1 $382 $381 $162 $266 reversed $160 $-1 #
edge $-1 $389 -11.318735841925367 $390 11.318735841925367 $265 $391 forward 7 unknown #
coedge $-1 $164 $163 $392 $393 reversed $64 $-1 #
coedge $-1 $385 $394 $163 $269 forward $378 $-1 #
edge $-1 $395 -17.561899976534256 $273 -6.2577482291932611 $268 $396 forward 7 unknown #
coedge $-1 $397 $387 $164 $271 forward $260 $-1 #
edge $-1 $272 6.2577482291932611 $398 17.561899976534256 $270 $399 forward 7 unknown #
vertex $-1 $271 $400 #
vertex $-1 $269 $401 #
straight-curve $-1 -42.277198462844169 -18.16757233205702 0 0 0 -1 I I #
face $-1 $-1 $287 $38 $-1 $402 forward single #
loop $-1 $-1 $403 $167 #
plane-surface $-1 55.945310831019015 0 0 -1 0 0 0 0 1 forward_v I I I I #
coedge $-1 $404 $405 $406 $407 reversed $168 $-1 #
coedge $-1 $408 $170 $172 $285 forward $105 $-1 #
coedge $-1 $170 $408 $404 $409 forward $105 $-1 #
coedge $-1 $406 $173 $170 $282 forward $287 $-1 #
edge $-1 $289 -4.5013469070792009 $410 2.1998889738966074 $281 $411 forward 7 unknown #
coedge $-1 $412 $413 $171 $284 forward $276 $-1 #
edge $-1 $414 -73.881803373742358 $288 -67.644891786335876 $283 $415 forward 7 unknown #
edge $-1 $289 104.68885655855965 $414 111.89062166203804 $172 $416 forward 7 unknown #
coedge $-1 $173 $406 $412 $417 forward $287 $-1 #
loop $-1 $-1 $406 $275 #
vertex $-1 $284 $418 #
vertex $-1 $174 $419 #
straight-curve $-1 48.450061584543846 5.6520758736704977 11.31873584192536 -1 0 0 I I #
coedge $-1 $291 $291 $-1 $420 reversed $177 $-1 #
edge $-1 $421 0 $421 6.2831853071796004 $178 $422 forward 7 unknown #
vertex $-1 $181 $423 #
ellipse-curve $-1 54.144869603392145 0.29108716888985242 8.2002800482221243 0.86602541151947299 0 0.49999998660252726 0.24999999330126363 0 -0.43301270575973649 1 I I #
coedge $-1 $295 $295 $-1 $424 reversed $184 $-1 #
edge $-1 $425 0 $425 6.2831853071796004 $185 $426 forward 7 unknown #
vertex $-1 $188 $427 #
ellipse-curve $-1 54.144869603392145 2.3014579331825971 8.2002800482221243 0.86602541151947299 0 0.49999998660252726 0.24999999330126363 0 -0.43301270575973649 1 I I #
coedge $-1 $299 $299 $-1 $428 reversed $191 $-1 #
edge $-1 $429 0 $429 6.2831853071796004 $192 $430 forward 7 unknown #
vertex $-1 $195 $431 #
ellipse-curve $-1 54.144869603392145 4.3118286974753417 8.2002800482221243 0.86602541151947299 0 0.49999998660252726 0.24999999330126363 0 -0.43301270575973649 1 I I #
face $-1 $-1 $432 $42 $-1 $433 forward single #
loop $-1 $-1 $316 $196 #
plane-surface $-1 96.900123169087692 5.6520758736704977 157.9272552565225 0 -1 0 -0.86602541151947299 0 -0.49999998660252726 forward_v I I I I #
coedge $-1 $309 $434 $201 $314 forward $197 $-1 #
coedge $-1 $308 $199 $311 $435 reversed $124 $-1 #
coedge $-1 $199 $307 $436 $437 reversed $124 $-1 #
coedge $-1 $438 $306 $199 $310 forward $197 $-1 #
edge $-1 $439 -73.881803373742358 $440 -67.644891786335876 $309 $441 forward 7 unknown #
coedge $-1 $201 $200 $307 $435 forward $79 $-1 #
coedge $-1 $442 $436 $200 $313 forward $432 $-1 #
edge $-1 $443 -11.202582788055013 $317 -4.5013469070792009 $312 $444 forward 7 unknown #
edge $-1 $318 4.5013469070792009 $439 11.202582788055013 $306 $445 forward 7 unknown #
coedge $-1 $316 $202 $434 $446 reversed $304 $-1 #
coedge $-1 $202 $315 $442 $447 reversed $304 $-1 #
vertex $-1 $313 $448 #
vertex $-1 $314 $449 #
straight-curve $-1 1.4990515495583168e-006 5.6520758736704977 101.98194592455505 0.49999998660252726 0 -0.86602541151947299 I I #
coedge $-1 $320 $320 $-1 $450 reversed $206 $-1 #
edge $-1 $451 0 $451 6.2831853071796004 $207 $452 forward 7 unknown #
vertex $-1 $210 $453 #
ellipse-curve $-1 54.144869603392145 6.9923230498656608 8.2002800482221243 0.86602541151947299 0 0.49999998660252726 0.24999999330126363 0 -0.43301270575973649 1 I I #
coedge $-1 $324 $324 $-1 $454 reversed $213 $-1 #
edge $-1 $455 0 $455 6.2831853071796004 $214 $456 forward 7 unknown #
vertex $-1 $217 $457 #
ellipse-curve $-1 54.144869603392145 9.0026938141584054 8.2002800482221243 0.86602541151947299 0 0.49999998660252726 0.24999999330126363 0 -0.43301270575973649 1 I I #
coedge $-1 $328 $328 $-1 $458 reversed $220 $-1 #
edge $-1 $459 0 $459 6.2831853071796004 $221 $460 forward 7 unknown #
vertex $-1 $224 $461 #
ellipse-curve $-1 54.144869603392145 11.01306457845115 8.2002800482221243 0.86602541151947299 0 0.49999998660252726 0.24999999330126363 0 -0.43301270575973649 1 I I #
face $-1 $-1 $462 $46 $-1 $463 reversed single #
loop $-1 $-1 $464 $225 #
plane-surface $-1 0 29.471724079398015 0 0 -1 0 0 0 -1 forward_v I I I I #
coedge $-1 $465 $228 $230 $341 forward $143 $-1 #
coedge $-1 $228 $465 $464 $466 reversed $143 $-1 #
coedge $-1 $467 $231 $228 $338 forward $226 $-1 #
edge $-1 $344 5.5579235638346525 $468 17.795174864987128 $337 $469 forward 7 unknown #
coedge $-1 $470 $471 $229 $340 forward $462 $-1 #
edge $-1 $472 -32.637612909731473 $343 -23.38110709325732 $339 $473 forward 7 unknown #
edge $-1 $344 -11.590400883385787 $472 0 $230 $474 forward 7 unknown #
coedge $-1 $231 $467 $470 $475 forward $226 $-1 #
vertex $-1 $340 $476 #
vertex $-1 $232 $477 #
straight-curve $-1 -72.652567725885547 17.234472778245543 11.318735841925367 1 0 0 I I #
coedge $-1 $346 $346 $-1 $478 reversed $235 $-1 #
edge $-1 $479 0 $479 6.2831853071796004 $236 $480 forward 7 unknown #
vertex $-1 $239 $481 #
ellipse-curve $-1 -52.457672206276975 23.353098428821774 6.6904829336882914 -0.79863551827123203 0 0.60181501223851219 1.2036300244770244 0 1.5972710365424641 1 I I #
face $-1 $-1 $255 $36 $-1 $482 reversed single #
loop $-1 $-1 $366 $240 #
plane-surface $-1 0 29.471724079398015 0 0 -1 0 0 0 -1 forward_v I I I I #
coedge $-1 $483 $364 $367 $484 forward $241 $-1 #
coedge $-1 $370 $243 $244 $358 reversed $152 $-1 #
coedge $-1 $364 $483 $243 $356 reversed $241 $-1 #
edge $-1 $371 -11.318735841925367 $485 11.318735841925367 $355 $486 forward 7 unknown #
coedge $-1 $245 $244 $483 $487 forward $97 $-1 #
edge $-1 $362 -55.945310831019015 $485 55.945310831019015 $354 $488 forward 7 unknown #
coedge $-1 $367 $366 $245 $360 reversed $351 $-1 #
edge $-1 $489 -55.945310831019015 $361 55.945310831019015 $359 $490 forward 7 unknown #
vertex $-1 $247 $491 #
vertex $-1 $373 $492 #
straight-curve $-1 55.945310831019015 0 -11.318735841925367 0 -1 0 I I #
coedge $-1 $353 $355 $248 $365 reversed $241 $-1 #
edge $-1 $368 -29.471724079398015 $371 29.471724079398015 $364 $493 forward 7 unknown #
coedge $-1 $359 $249 $254 $374 forward $351 $-1 #
coedge $-1 $249 $359 $353 $484 reversed $351 $-1 #
vertex $-1 $250 $494 #
straight-curve $-1 0 29.471724079398015 11.318735841925367 -1 0 0 I I #
coedge $-1 $251 $354 $253 $373 reversed $152 $-1 #
vertex $-1 $365 $495 #
straight-curve $-1 0 -29.471724079398015 11.318735841925367 1 0 0 I I #
edge $-1 $256 -11.318735841925367 $362 11.318735841925367 $253 $496 forward 7 unknown #
edge $-1 $257 -11.318735841925367 $361 11.318735841925367 $254 $497 forward 7 unknown #
point $-1 55.945310831019015 -29.471724079398015 11.318735841925367 #
point $-1 55.945310831019015 29.471724079398015 11.318735841925367 #
face $-1 $-1 $498 $37 $-1 $499 reversed single #
loop $-1 $-1 $500 $259 #
plane-surface $-1 0 0 -11.318735841925367 0 0 1 1 0 0 forward_v I I I I #
coedge $-1 $387 $397 $382 $501 forward $260 $-1 #
coedge $-1 $265 $262 $500 $502 reversed $160 $-1 #
coedge $-1 $262 $265 $380 $501 reversed $160 $-1 #
coedge $-1 $503 $504 $262 $384 forward $498 $-1 #
edge $-1 $505 -11.318735841925367 $506 11.318735841925367 $383 $507 forward 7 unknown #
coedge $-1 $500 $268 $263 $386 forward $378 $-1 #
edge $-1 $273 -22.27957492106934 $390 -17.715672162480317 $385 $508 forward 7 unknown #
coedge $-1 $270 $380 $264 $388 forward $260 $-1 #
edge $-1 $389 17.715672162480317 $272 22.27957492106934 $387 $509 forward 7 unknown #
vertex $-1 $388 $510 #
vertex $-1 $386 $511 #
straight-curve $-1 -37.713295704255145 -18.16757233205702 0 0 0 -1 I I #
coedge $-1 $504 $503 $267 $393 forward $498 $-1 #
edge $-1 $398 -11.318735841925367 $395 11.318735841925367 $392 $512 forward 7 unknown #
coedge $-1 $268 $500 $504 $513 forward $378 $-1 #
vertex $-1 $269 $514 #
straight-curve $-1 -42.277198462844169 -11.909824102863759 -11.318735841925367 0 1 0 I I #
coedge $-1 $380 $270 $503 $515 forward $260 $-1 #
vertex $-1 $515 $516 #
straight-curve $-1 -42.277198462844169 -11.909824102863759 11.318735841925367 0 -1 0 I I #
point $-1 -42.277198462844169 -18.16757233205702 11.318735841925367 #
point $-1 -42.277198462844169 -18.16757233205702 -11.318735841925367 #
plane-surface $-1 0 0 11.318735841925367 0 0 1 1 0 0 forward_v I I I I #
coedge $-1 $413 $412 $405 $517 forward $276 $-1 #
coedge $-1 $405 $278 $280 $409 reversed $168 $-1 #
coedge $-1 $278 $404 $403 $517 reversed $168 $-1 #
coedge $-1 $286 $281 $278 $407 forward $287 $-1 #
edge $-1 $410 3.8943667912214224 $518 7.4952492464751685 $406 $519 forward 7 unknown #
coedge $-1 $280 $279 $413 $520 reversed $105 $-1 #
edge $-1 $521 -111.89062166203804 $410 -104.68885655855965 $404 $522 forward 7 unknown #
vertex $-1 $282 $523 #
straight-curve $-1 52.344428375765261 1.1507289665912968 11.318735841925374 0 -1 0 I I #
coedge $-1 $403 $283 $286 $417 reversed $276 $-1 #
coedge $-1 $283 $403 $408 $520 forward $276 $-1 #
vertex $-1 $284 $524 #
straight-curve $-1 55.945310831019015 5.6520758736704977 78.96362762826125 0 0 1 I I #
straight-curve $-1 1.4990515495583168e-006 5.6520758736704977 101.98194592455505 0.49999998660252726 0 -0.86602541151947299 I I #
edge $-1 $518 -1.0491600073053107 $288 5.6520758736704977 $412 $525 forward 7 unknown #
point $-1 55.945310831019015 5.6520758736704977 11.318735841925367 #
point $-1 52.344428375765268 5.6520758736704977 11.31873584192536 #
edge $-1 $526 1 $526 0 $291 $-1 forward 7 unknown #
vertex $-1 $292 $527 #
ellipse-curve $-1 53.278844191872658 0.29108716888985242 7.7002800616195897 0.86602541151947299 0 0.49999998660252726 0.24999999330126363 0 -0.43301270575973649 1 I I #
point $-1 54.394869596693397 0.29108716888985242 7.7672673424623806 #
edge $-1 $528 1 $528 0 $295 $-1 forward 7 unknown #
vertex $-1 $296 $529 #
ellipse-curve $-1 53.278844191872658 2.3014579331825971 7.7002800616195897 0.86602541151947299 0 0.49999998660252726 0.24999999330126363 0 -0.43301270575973649 1 I I #
point $-1 54.394869596693397 2.3014579331825971 7.7672673424623806 #
edge $-1 $530 1 $530 0 $299 $-1 forward 7 unknown #
vertex $-1 $300 $531 #
ellipse-curve $-1 53.278844191872658 4.3118286974753417 7.7002800616195897 0.86602541151947299 0 0.49999998660252726 0.24999999330126363 0 -0.43301270575973649 1 I I #
point $-1 54.394869596693397 4.3118286974753417 7.7672673424623806 #
loop $-1 $-1 $312 $303 #
plane-surface $-1 0 0 11.318735841925367 0 0 1 1 0 0 forward_v I I I I #
coedge $-1 $306 $438 $315 $446 forward $197 $-1 #
edge $-1 $443 104.68885655855965 $439 111.89062166203804 $307 $532 forward 7 unknown #
coedge $-1 $312 $533 $308 $437 forward $432 $-1 #
edge $-1 $440 -7.4952492464751685 $443 -3.8943667912214224 $436 $534 forward 7 unknown #
coedge $-1 $434 $309 $533 $535 reversed $197 $-1 #
vertex $-1 $310 $536 #
vertex $-1 $310 $537 #
straight-curve $-1 55.945310831019015 12.35331175464631 78.96362762826125 0 0 1 I I #
coedge $-1 $533 $312 $316 $447 forward $432 $-1 #
vertex $-1 $437 $538 #
straight-curve $-1 52.344428375765261 1.1507289665912968 11.318735841925374 0 -1 0 I I #
straight-curve $-1 55.945310831019015 1.1507289665912968 5.0818242545188994 0 1 0 I I #
edge $-1 $539 67.644891786335876 $318 73.881803373742358 $434 $540 forward 7 unknown #
edge $-1 $317 3.8943667912214224 $539 7.4952492464751685 $442 $541 forward 7 unknown #
point $-1 52.344428375765268 5.6520758736704977 11.31873584192536 #
point $-1 55.945310831019015 5.6520758736704977 5.0818242545188923 #
edge $-1 $542 1 $542 0 $320 $-1 forward 7 unknown #
vertex $-1 $321 $543 #
ellipse-curve $-1 53.278844191872658 6.9923230498656608 7.7002800616195897 0.86602541151947299 0 0.49999998660252726 0.24999999330126363 0 -0.43301270575973649 1 I I #
point $-1 54.394869596693397 6.9923230498656608 7.7672673424623806 #
edge $-1 $544 1 $544 0 $324 $-1 forward 7 unknown #
vertex $-1 $325 $545 #
ellipse-curve $-1 53.278844191872658 9.0026938141584054 7.7002800616195897 0.86602541151947299 0 0.49999998660252726 0.24999999330126363 0 -0.43301270575973649 1 I I #
point $-1 54.394869596693397 9.0026938141584054 7.7672673424623806 #
edge $-1 $546 1 $546 0 $328 $-1 forward 7 unknown #
vertex $-1 $329 $547 #
ellipse-curve $-1 53.278844191872658 11.01306457845115 7.7002800616195897 0.86602541151947299 0 0.49999998660252726 0.24999999330126363 0 -0.43301270575973649 1 I I #
point $-1 54.394869596693397 11.01306457845115 7.7672673424623806 #
loop $-1 $-1 $339 $332 #
plane-surface $-1 -55.945310831019015 0 0 1 0 0 0 0 -1 forward_v I I I I #
coedge $-1 $548 $549 $336 $466 forward $333 $-1 #
coedge $-1 $336 $335 $471 $550 reversed $143 $-1 #
edge $-1 $468 4.4204780052573867 $551 16.010878888643173 $464 $552 forward 7 unknown #
coedge $-1 $342 $337 $549 $553 forward $226 $-1 #
vertex $-1 $553 $554 #
straight-curve $-1 -48.970033581534935 11.67654921441089 11.318735841925367 0 1 0 I I #
coedge $-1 $555 $339 $342 $475 reversed $462 $-1 #
coedge $-1 $339 $555 $465 $550 forward $462 $-1 #
vertex $-1 $340 $556 #
straight-curve $-1 -55.945310831019015 17.234472778245543 34.699842935182687 0 0 1 I I #
straight-curve $-1 -55.945310831019015 17.234472778245543 2.062230025451214 -0.60181501223851219 0 -0.79863551827123203 I I #
edge $-1 $557 -29.471724079398015 $343 -17.234472778245543 $470 $558 forward 7 unknown #
point $-1 -55.945310831019015 17.234472778245543 11.318735841925367 #
point $-1 -48.970033581534935 17.234472778245543 11.318735841925367 #
edge $-1 $559 1 $559 0 $346 $-1 forward 7 unknown #
vertex $-1 $347 $560 #
ellipse-curve $-1 -50.587226729328492 23.353098428821774 5.2810012091114924 -0.79863551827123203 0 0.60181501223851219 1.2036300244770244 0 1.5972710365424641 1 I I #
point $-1 -51.254042181799946 23.353098428821774 8.287753970230753 #
plane-surface $-1 55.945310831019015 0 0 -1 0 0 0 0 1 forward_v I I I I #
coedge $-1 $355 $353 $357 $487 reversed $241 $-1 #
edge $-1 $368 -11.318735841925367 $489 11.318735841925367 $367 $561 forward 7 unknown #
vertex $-1 $487 $562 #
straight-curve $-1 -55.945310831019015 -29.471724079398015 0 0 0 -1 I I #
edge $-1 $485 -29.471724079398015 $489 29.471724079398015 $483 $563 forward 7 unknown #
straight-curve $-1 0 -29.471724079398015 -11.318735841925367 -1 0 0 I I #
vertex $-1 $360 $564 #
straight-curve $-1 0 29.471724079398015 -11.318735841925367 1 0 0 I I #
point $-1 55.945310831019015 29.471724079398015 -11.318735841925367 #
point $-1 55.945310831019015 -29.471724079398015 -11.318735841925367 #
straight-curve $-1 -55.945310831019015 0 11.318735841925367 0 -1 0 I I #
point $-1 -55.945310831019015 29.471724079398015 11.318735841925367 #
point $-1 -55.945310831019015 -29.471724079398015 11.318735841925367 #
straight-curve $-1 55.945310831019015 -29.471724079398015 0 0 0 -1 I I #
straight-curve $-1 55.945310831019015 29.471724079398015 0 0 0 -1 I I #
loop $-1 $-1 $383 $377 #
plane-surface $-1 0 -29.471724079398015 0 0 1 0 0 0 1 forward_v I I I I #
coedge $-1 $394 $385 $381 $502 forward $378 $-1 #
edge $-1 $506 -17.561899976534256 $389 -6.2577482291932611 $380 $565 forward 7 unknown #
edge $-1 $390 6.2577482291932611 $505 17.561899976534256 $500 $566 forward 7 unknown #
coedge $-1 $392 $383 $397 $515 reversed $498 $-1 #
coedge $-1 $383 $392 $394 $513 reversed $498 $-1 #
vertex $-1 $513 $567 #
vertex $-1 $384 $568 #
straight-curve $-1 -37.713295704255145 -29.471724079398015 0 0 0 1 I I #
straight-curve $-1 -19.997623541774828 -18.16757233205702 -11.318735841925367 1 0 0 I I #
straight-curve $-1 -19.997623541774828 -18.16757233205702 11.318735841925367 -1 0 0 I I #
point $-1 -37.713295704255145 -18.16757233205702 11.318735841925367 #
point $-1 -37.713295704255145 -18.16757233205702 -11.318735841925367 #
straight-curve $-1 -42.277198462844169 -29.471724079398015 0 0 0 -1 I I #
edge $-1 $505 37.713295704255145 $395 42.277198462844169 $504 $569 forward 7 unknown #
point $-1 -42.277198462844169 -29.471724079398015 -11.318735841925367 #
edge $-1 $398 -42.277198462844169 $506 -37.713295704255145 $503 $570 forward 7 unknown #
point $-1 -42.277198462844169 -29.471724079398015 11.318735841925367 #
edge $-1 $518 67.644891786335876 $521 73.881803373742358 $403 $571 forward 7 unknown #
vertex $-1 $417 $572 #
straight-curve $-1 48.450061584543846 -1.0491600073053107 11.31873584192536 1 0 0 I I #
edge $-1 $521 -2.1998889738966074 $414 4.5013469070792009 $413 $573 forward 7 unknown #
vertex $-1 $520 $574 #
straight-curve $-1 1.4990515495583168e-006 -1.0491600073053107 101.98194592455505 -0.49999998660252726 0 0.86602541151947299 I I #
point $-1 52.344428375765268 -1.0491600073053107 11.31873584192536 #
point $-1 55.945310831019015 5.6520758736704977 5.0818242545188923 #
straight-curve $-1 55.945310831019015 0 11.318735841925367 0 1 0 I I #
vertex $-1 $420 $575 #
point $-1 53.528844185173924 0.29108716888985242 7.2672673558598531 #
vertex $-1 $424 $576 #
point $-1 53.528844185173924 2.3014579331825971 7.2672673558598531 #
vertex $-1 $428 $577 #
point $-1 53.528844185173924 4.3118286974753417 7.2672673558598531 #
straight-curve $-1 1.4990515495583168e-006 12.35331175464631 101.98194592455505 0.49999998660252726 0 -0.86602541151947299 I I #
coedge $-1 $436 $442 $438 $535 forward $432 $-1 #
straight-curve $-1 48.450061584543846 12.35331175464631 11.31873584192536 -1 0 0 I I #
edge $-1 $539 5.6520758736704977 $440 12.35331175464631 $438 $578 forward 7 unknown #
point $-1 55.945310831019015 12.35331175464631 5.0818242545188923 #
point $-1 55.945310831019015 12.35331175464631 11.318735841925367 #
point $-1 52.344428375765268 12.35331175464631 11.31873584192536 #
vertex $-1 $535 $579 #
straight-curve $-1 55.945310831019015 5.6520758736704977 78.96362762826125 0 0 -1 I I #
straight-curve $-1 48.450061584543846 5.6520758736704977 11.31873584192536 1 0 0 I I #
vertex $-1 $450 $580 #
point $-1 53.528844185173924 6.9923230498656608 7.2672673558598531 #
vertex $-1 $454 $581 #
point $-1 53.528844185173924 9.0026938141584054 7.2672673558598531 #
vertex $-1 $458 $582 #
point $-1 53.528844185173924 11.01306457845115 7.2672673558598531 #
coedge $-1 $549 $464 $555 $583 reversed $333 $-1 #
coedge $-1 $464 $548 $467 $553 reversed $333 $-1 #
edge $-1 $551 -17.795174864987128 $472 -5.5579235638346525 $471 $584 forward 7 unknown #
vertex $-1 $466 $585 #
straight-curve $-1 -46.309723556700888 29.471724079398015 14.849086584660682 -0.60181501223851219 0 -0.79863551827123203 I I #
edge $-1 $468 48.970033581534935 $557 55.945310831019015 $549 $586 forward 7 unknown #
point $-1 -48.970033581534935 29.471724079398019 11.318735841925367 #
coedge $-1 $471 $470 $548 $583 forward $462 $-1 #
point $-1 -55.945310831019015 17.234472778245543 2.062230025451214 #
vertex $-1 $553 $587 #
straight-curve $-1 -55.945310831019015 0 11.318735841925367 0 -1 0 I I #
vertex $-1 $478 $588 #
point $-1 -49.383596704851463 23.353098428821774 6.8782722456539558 #
straight-curve $-1 -55.945310831019015 29.471724079398015 0 0 0 -1 I I #
point $-1 -55.945310831019015 -29.471724079398015 -11.318735841925367 #
straight-curve $-1 -55.945310831019015 0 -11.318735841925367 0 1 0 I I #
point $-1 -55.945310831019015 29.471724079398015 -11.318735841925367 #
straight-curve $-1 -37.713295704255145 -11.909824102863759 11.318735841925367 0 1 0 I I #
straight-curve $-1 -37.713295704255145 -11.909824102863759 -11.318735841925367 0 -1 0 I I #
point $-1 -37.713295704255145 -29.471724079398015 -11.318735841925367 #
point $-1 -37.713295704255145 -29.471724079398015 11.318735841925367 #
straight-curve $-1 0 -29.471724079398015 -11.318735841925367 -1 0 0 I I #
straight-curve $-1 0 -29.471724079398015 11.318735841925367 1 0 0 I I #
straight-curve $-1 55.945310831019015 -1.0491600073053107 78.96362762826125 0 0 -1 I I #
point $-1 55.945310831019015 -1.0491600073053107 11.318735841925367 #
straight-curve $-1 55.945310831019015 1.1507289665912968 5.0818242545188994 0 1 0 I I #
point $-1 55.945310831019015 -1.0491600073053107 5.0818242545188923 #
point $-1 52.845831486112921 0.29108716888985242 7.4502800683183255 #
point $-1 52.845831486112921 2.3014579331825971 7.4502800683183255 #
point $-1 52.845831486112921 4.3118286974753417 7.4502800683183255 #
straight-curve $-1 55.945310831019015 0 11.318735841925367 0 1 0 I I #
point $-1 55.945310831019015 5.6520758736704977 11.318735841925367 #
point $-1 52.845831486112921 6.9923230498656608 7.4502800683183255 #
point $-1 52.845831486112921 9.0026938141584054 7.4502800683183255 #
point $-1 52.845831486112921 11.01306457845115 7.4502800683183255 #
edge $-1 $557 -11.318735841925367 $551 -2.062230025451214 $548 $589 forward 7 unknown #
straight-curve $-1 -55.945310831019015 11.67654921441089 2.06223002545121 0 -1 0 I I #
point $-1 -55.945310831019015 29.471724079398019 2.062230025451214 #
straight-curve $-1 0 29.471724079398015 11.318735841925367 -1 0 0 I I #
point $-1 -55.945310831019015 29.471724079398015 11.318735841925367 #
point $-1 -48.989955692786026 23.353098428821774 4.0773711846344671 #
straight-curve $-1 -55.945310831019015 29.471724079398015 0 0 0 -1 I I #
End-of-ACIS-data 