500 0 4 0           
7 Unknown 11 ACIS 5.0 NT 24 Fri Mar 26 02:15:52 1999 
-1 9.9999999999999995e-007 1e-010 
body $-1 $4 $-1 $5 #
body $-1 $6 $-1 $7 #
body $-1 $8 $-1 $9 #
body $-1 $10 $-1 $11 #
lump $-1 $-1 $12 $0 #
transform $-1 1 0 0 0 1 0 0 0 1 72.168950468459116 40.362589476910756 18.235287509974786 1 rotate no_reflect no_shear #
lump $-1 $-1 $13 $1 #
transform $-1 1 0 0 0 1 0 0 0 1 72.168950468459116 40.362589476910756 18.235287509974786 1 rotate no_reflect no_shear #
lump $-1 $-1 $14 $2 #
transform $-1 1 0 0 0 1 0 0 0 1 72.168950468459116 40.362589476910756 18.235287509974786 1 rotate no_reflect no_shear #
lump $-1 $-1 $15 $3 #
transform $-1 1 0 0 0 1 0 0 0 1 72.168950468459116 40.362589476910756 18.235287509974786 1 rotate no_reflect no_shear #
shell $-1 $-1 $-1 $16 $-1 $4 #
shell $-1 $-1 $-1 $17 $-1 $6 #
shell $-1 $-1 $-1 $18 $-1 $8 #
shell $-1 $-1 $-1 $19 $-1 $10 #
face $-1 $20 $21 $12 $-1 $22 forward single #
face $-1 $23 $24 $13 $-1 $25 reversed single #
face $-1 $26 $27 $14 $-1 $28 forward single #
face $-1 $29 $30 $15 $-1 $31 reversed single #
face $-1 $32 $33 $12 $-1 $34 reversed single #
loop $-1 $-1 $35 $16 #
plane-surface $-1 0 0 18.235287509974786 0 0 1 1 0 0 forward_v I I I I #
face $-1 $36 $37 $13 $-1 $38 reversed single #
loop $-1 $-1 $39 $17 #
plane-surface $-1 -50.663152596714156 -60.603341227636776 0 0 1 0 0 0 1 forward_v I I I I #
face $-1 $40 $41 $14 $-1 $42 forward single #
loop $-1 $-1 $43 $18 #
plane-surface $-1 -20.461520842032467 59.894238871187852 167.45792373638969 1 0 0 0 -0.5877852598018023 -0.80901698891910034 forward_v I I I I #
face $-1 $44 $45 $15 $-1 $46 reversed single #
loop $-1 $47 $48 $19 #
cone-surface $-1 -6.7019125696363204 27.273495079843066 6.9271148648457288 0 -0.5877852598018023 -0.80901698891910034 3 0 0 1 I I 0 1 3 forward I I I I #
face $-1 $49 $50 $12 $-1 $51 reversed single #
loop $-1 $-1 $52 $20 #
plane-surface $-1 0 0 -18.235287509974786 0 0 1 1 0 0 forward_v I I I I #
coedge $-1 $53 $54 $55 $56 forward $21 $-1 #
face $-1 $57 $58 $13 $-1 $59 reversed single #
loop $-1 $-1 $60 $23 #
plane-surface $-1 -53.999953658180196 -50.482965352273766 0 1 0 0 0 0 -1 forward_v I I I I #
coedge $-1 $61 $62 $63 $64 forward $24 $-1 #
face $-1 $65 $66 $14 $-1 $67 forward single #
loop $-1 $-1 $68 $26 #
plane-surface $-1 -6.7019125696363204 -24.945451730265432 50.686109733500714 0 0.5877852598018023 0.80901698891910034 1 0 0 forward_v I I I I #
coedge $-1 $69 $70 $71 $72 reversed $27 $-1 #
face $-1 $73 $74 $15 $-1 $75 forward single #
loop $-1 $76 $77 $29 #
cone-surface $-1 -6.7019125696363204 23.624381326133189 1.9045407665345486 0 -0.5877852598018023 -0.80901698891910034 1.5 0 0 1 I I -0.70710678118654757 0.70710678118654757 1.5 forward I I I I #
loop $-1 $-1 $78 $19 #
coedge $-1 $48 $48 $79 $80 reversed $30 $-1 #
face $-1 $81 $82 $12 $-1 $83 reversed single #
loop $-1 $-1 $84 $32 #
plane-surface $-1 0 -40.362589476910756 0 0 1 0 0 0 1 forward_v I I I I #
coedge $-1 $85 $86 $87 $88 forward $33 $-1 #
coedge $-1 $89 $35 $90 $91 forward $21 $-1 #
coedge $-1 $35 $89 $92 $93 forward $21 $-1 #
coedge $-1 $94 $95 $35 $56 reversed $96 $-1 #
edge $-1 $97 -40.362589476910756 $98 40.362589476910756 $55 $99 forward 7 unknown #
face $-1 $100 $101 $13 $-1 $102 reversed single #
loop $-1 $-1 $103 $36 #
plane-surface $-1 -47.326351535248115 -50.482965352273766 0 -1 0 0 0 0 1 forward_v I I I I #
coedge $-1 $104 $105 $106 $107 reversed $37 $-1 #
coedge $-1 $108 $39 $109 $110 reversed $24 $-1 #
coedge $-1 $39 $108 $111 $112 reversed $24 $-1 #
coedge $-1 $105 $104 $39 $64 reversed $37 $-1 #
edge $-1 $113 -18.235287509974786 $114 18.235287509974786 $63 $115 forward 7 unknown #
face $-1 $116 $117 $14 $-1 $118 forward single #
loop $-1 $-1 $119 $40 #
plane-surface $-1 7.0576957027598262 59.894238871187852 167.45792373638969 -1 0 0 0 0.5877852598018023 0.80901698891910034 forward_v I I I I #
coedge $-1 $120 $121 $122 $123 reversed $41 $-1 #
coedge $-1 $70 $43 $121 $124 forward $27 $-1 #
coedge $-1 $43 $69 $125 $126 reversed $27 $-1 #
coedge $-1 $127 $122 $43 $72 forward $117 $-1 #
edge $-1 $128 -10.227847024804134 $129 10.41547004131683 $71 $130 forward 7 unknown #
face $-1 $131 $132 $15 $-1 $133 forward single #
loop $-1 $-1 $134 $44 #
plane-surface $-1 -20.461520842032467 59.894238871187852 167.45792373638969 1 0 0 0 -0.5877852598018023 -0.80901698891910034 forward_v I I I I #
loop $-1 $-1 $135 $29 #
coedge $-1 $77 $77 $78 $136 forward $45 $-1 #
coedge $-1 $78 $78 $77 $136 reversed $47 $-1 #
coedge $-1 $79 $79 $48 $80 forward $132 $-1 #
edge $-1 $137 -1.6824796347321695e-016 $137 6.2831853071796004 $79 $138 forward 7 unknown #
face $-1 $139 $140 $12 $-1 $141 reversed single #
loop $-1 $-1 $142 $49 #
plane-surface $-1 -72.168950468459116 0 0 1 0 0 0 0 -1 forward_v I I I I #
coedge $-1 $143 $92 $144 $145 forward $50 $-1 #
coedge $-1 $146 $52 $143 $147 forward $33 $-1 #
coedge $-1 $52 $146 $148 $149 forward $33 $-1 #
coedge $-1 $95 $94 $52 $88 reversed $96 $-1 #
edge $-1 $150 -40.362589476910756 $151 40.362589476910756 $87 $152 forward 7 unknown #
coedge $-1 $54 $53 $153 $154 forward $21 $-1 #
coedge $-1 $155 $156 $53 $91 reversed $140 $-1 #
edge $-1 $98 -72.168950468459116 $157 72.168950468459116 $90 $158 forward 7 unknown #
coedge $-1 $84 $159 $54 $93 reversed $50 $-1 #
edge $-1 $160 -72.168950468459116 $97 72.168950468459116 $92 $161 forward 7 unknown #
coedge $-1 $87 $55 $159 $162 forward $96 $-1 #
coedge $-1 $55 $87 $155 $163 reversed $96 $-1 #
loop $-1 $-1 $94 $139 #
vertex $-1 $56 $164 #
vertex $-1 $56 $165 #
straight-curve $-1 72.168950468459116 0 18.235287509974786 0 1 0 I I #
face $-1 $166 $167 $13 $-1 $102 reversed single #
loop $-1 $-1 $106 $57 #
plane-surface $-1 0 -40.362589476910756 0 0 1 0 0 0 1 forward_v I I I I #
coedge $-1 $168 $169 $108 $170 forward $58 $-1 #
coedge $-1 $63 $60 $171 $172 reversed $37 $-1 #
coedge $-1 $60 $63 $173 $174 reversed $37 $-1 #
coedge $-1 $175 $176 $60 $107 forward $101 $-1 #
edge $-1 $177 -18.235287509974786 $178 18.235287509974786 $106 $179 forward 7 unknown #
coedge $-1 $62 $61 $103 $170 reversed $24 $-1 #
coedge $-1 $171 $180 $61 $110 forward $181 $-1 #
edge $-1 $182 -3.3368010614660406 $114 3.3368010614660406 $61 $183 forward 7 unknown #
coedge $-1 $184 $173 $62 $112 forward $185 $-1 #
edge $-1 $113 -3.3368010614660406 $186 3.3368010614660406 $62 $187 forward 7 unknown #
vertex $-1 $174 $188 #
vertex $-1 $172 $189 #
straight-curve $-1 -53.999953658180196 -60.603341227636776 0 0 0 -1 I I #
face $-1 $190 $191 $14 $-1 $192 reversed single #
loop $-1 $-1 $193 $65 #
plane-surface $-1 0 0 18.235287509974786 0 0 1 1 0 0 forward_v I I I I #
coedge $-1 $194 $195 $193 $196 reversed $66 $-1 #
coedge $-1 $197 $68 $195 $198 reversed $41 $-1 #
coedge $-1 $68 $197 $69 $124 reversed $41 $-1 #
coedge $-1 $71 $193 $68 $123 forward $117 $-1 #
edge $-1 $199 -10.408651987577986 $128 17.110564557214307 $122 $200 forward 7 unknown #
edge $-1 $128 55.208635606936035 $201 80.725178953821484 $69 $202 forward 7 unknown #
coedge $-1 $203 $204 $70 $126 forward $205 $-1 #
edge $-1 $129 65.493674358220062 $201 80.491922418613072 $125 $206 forward 7 unknown #
coedge $-1 $207 $71 $204 $208 forward $117 $-1 #
vertex $-1 $123 $209 #
vertex $-1 $208 $210 #
straight-curve $-1 -20.461520842032467 29.947119435593926 18.235287509974782 0 1 0 I I #
face $-1 $211 $212 $15 $-1 $213 forward single #
loop $-1 $214 $79 $73 #
plane-surface $-1 -6.7019125696363204 -24.945451730265432 50.686109733500714 0 0.5877852598018023 0.80901698891910034 1 0 0 forward_v I I I I #
coedge $-1 $215 $216 $217 $218 reversed $74 $-1 #
coedge $-1 $135 $135 $-1 $219 forward $76 $-1 #
edge $-1 $220 0 $220 6.2831853071796004 $77 $221 forward 7 unknown #
vertex $-1 $80 $222 #
ellipse-curve $-1 -6.7019125696363204 30.04093094385026 10.736163479778288 0 -0.5877852598018023 -0.80901698891910034 3 0 0 1 I I #
face $-1 $-1 $96 $12 $-1 $223 reversed single #
loop $-1 $-1 $155 $81 #
plane-surface $-1 0 40.362589476910756 0 0 -1 0 0 0 -1 forward_v I I I I #
coedge $-1 $224 $153 $156 $225 forward $82 $-1 #
coedge $-1 $159 $84 $85 $147 reversed $50 $-1 #
coedge $-1 $153 $224 $84 $145 reversed $82 $-1 #
edge $-1 $160 -18.235287509974786 $226 18.235287509974786 $144 $227 forward 7 unknown #
coedge $-1 $86 $85 $224 $228 forward $33 $-1 #
edge $-1 $151 -72.168950468459116 $226 72.168950468459116 $143 $229 forward 7 unknown #
coedge $-1 $156 $155 $86 $149 reversed $140 $-1 #
edge $-1 $230 -72.168950468459116 $150 72.168950468459116 $148 $231 forward 7 unknown #
vertex $-1 $88 $232 #
vertex $-1 $162 $233 #
straight-curve $-1 72.168950468459116 0 -18.235287509974786 0 -1 0 I I #
coedge $-1 $142 $144 $89 $154 reversed $82 $-1 #
edge $-1 $157 -40.362589476910756 $160 40.362589476910756 $153 $234 forward 7 unknown #
coedge $-1 $148 $90 $95 $163 forward $140 $-1 #
coedge $-1 $90 $148 $142 $225 reversed $140 $-1 #
vertex $-1 $91 $235 #
straight-curve $-1 0 40.362589476910756 18.235287509974786 -1 0 0 I I #
coedge $-1 $92 $143 $94 $162 reversed $50 $-1 #
vertex $-1 $154 $236 #
straight-curve $-1 0 -40.362589476910756 18.235287509974786 1 0 0 I I #
edge $-1 $97 -18.235287509974786 $151 18.235287509974786 $94 $237 forward 7 unknown #
edge $-1 $98 -18.235287509974786 $150 18.235287509974786 $95 $238 forward 7 unknown #
point $-1 72.168950468459116 -40.362589476910756 18.235287509974786 #
point $-1 72.168950468459116 40.362589476910756 18.235287509974786 #
face $-1 $239 $185 $13 $-1 $240 forward single #
loop $-1 $-1 $241 $100 #
coedge $-1 $242 $103 $180 $243 reversed $58 $-1 #
coedge $-1 $103 $242 $184 $244 reversed $58 $-1 #
edge $-1 $186 -18.235287509974786 $182 18.235287509974786 $103 $245 forward 7 unknown #
coedge $-1 $246 $109 $104 $172 forward $181 $-1 #
edge $-1 $114 -10.12037587536301 $177 10.12037587536301 $104 $247 forward 7 unknown #
coedge $-1 $111 $248 $105 $174 forward $185 $-1 #
edge $-1 $178 -10.12037587536301 $113 10.12037587536301 $105 $249 forward 7 unknown #
coedge $-1 $250 $106 $248 $251 reversed $101 $-1 #
coedge $-1 $106 $250 $246 $252 reversed $101 $-1 #
vertex $-1 $252 $253 #
vertex $-1 $174 $254 #
straight-curve $-1 -53.999953658180196 -40.362589476910756 0 0 0 1 I I #
coedge $-1 $109 $255 $168 $243 forward $181 $-1 #
loop $-1 $-1 $256 $239 #
vertex $-1 $170 $257 #
straight-curve $-1 -50.663152596714156 -60.603341227636776 -18.235287509974786 -1 0 0 I I #
coedge $-1 $258 $111 $169 $244 forward $185 $-1 #
loop $-1 $-1 $259 $166 #
vertex $-1 $244 $260 #
straight-curve $-1 -50.663152596714156 -60.603341227636776 18.235287509974786 1 0 0 I I #
point $-1 -53.999953658180196 -60.603341227636776 18.235287509974786 #
point $-1 -53.999953658180196 -60.603341227636776 -18.235287509974786 #
face $-1 $261 $262 $14 $-1 $263 reversed single #
loop $-1 $-1 $264 $116 #
plane-surface $-1 -50.663152596714156 -60.603341227636776 0 0 1 0 0 0 1 forward_v I I I I #
coedge $-1 $122 $265 $119 $196 forward $117 $-1 #
coedge $-1 $195 $119 $266 $267 reversed $66 $-1 #
coedge $-1 $119 $194 $120 $198 forward $66 $-1 #
edge $-1 $268 -10.41547004131683 $199 10.227847024804134 $193 $269 forward 7 unknown #
coedge $-1 $121 $120 $203 $270 reversed $41 $-1 #
edge $-1 $271 -80.725178953821484 $199 -55.208635606936035 $195 $272 forward 7 unknown #
vertex $-1 $123 $273 #
straight-curve $-1 -3.3509562848181602 19.719272410789777 18.235287509974786 -1 0 0 I I #
vertex $-1 $270 $274 #
straight-curve $-1 -20.461520842032467 -24.945451730265432 50.686109733500714 0 0.80901698891910034 -0.5877852598018023 I I #
coedge $-1 $266 $125 $197 $270 forward $205 $-1 #
coedge $-1 $125 $275 $127 $208 reversed $205 $-1 #
loop $-1 $-1 $266 $276 #
straight-curve $-1 -20.461520842032467 40.362589476910756 83.728961868194844 0 0 -1 I I #
coedge $-1 $277 $127 $278 $279 forward $117 $-1 #
edge $-1 $129 20.461520842032467 $280 72.168950468459116 $204 $281 forward 7 unknown #
point $-1 -20.461520842032467 19.719272410789792 18.235287509974782 #
point $-1 -20.461520842032467 40.362589476910756 18.235287509974786 #
face $-1 $282 $283 $15 $-1 $284 forward single #
loop $-1 $-1 $285 $131 #
plane-surface $-1 7.0576957027598262 59.894238871187852 167.45792373638969 -1 0 0 0 0.5877852598018023 0.80901698891910034 forward_v I I I I #
loop $-1 $-1 $286 $73 #
coedge $-1 $216 $134 $287 $288 forward $74 $-1 #
coedge $-1 $134 $215 $289 $290 reversed $74 $-1 #
coedge $-1 $291 $292 $134 $218 forward $283 $-1 #
edge $-1 $293 -10.227847024804134 $294 10.41547004131683 $217 $295 forward 7 unknown #
edge $-1 $296 1 $296 0 $135 $-1 forward 7 unknown #
vertex $-1 $136 $297 #
ellipse-curve $-1 -6.7019125696363204 24.506059215835894 3.1180662499131993 0 0.5877852598018023 0.80901698891910034 3 0 0 1 I I #
point $-1 -3.7019125696363204 30.040930943850238 10.736163479778257 #
plane-surface $-1 72.168950468459116 0 0 -1 0 0 0 0 1 forward_v I I I I #
coedge $-1 $144 $142 $146 $228 reversed $82 $-1 #
edge $-1 $157 -18.235287509974786 $230 18.235287509974786 $156 $298 forward 7 unknown #
vertex $-1 $228 $299 #
straight-curve $-1 -72.168950468459116 -40.362589476910756 0 0 0 -1 I I #
edge $-1 $226 -40.362589476910756 $230 40.362589476910756 $224 $300 forward 7 unknown #
straight-curve $-1 0 -40.362589476910756 -18.235287509974786 -1 0 0 I I #
vertex $-1 $149 $301 #
straight-curve $-1 0 40.362589476910756 -18.235287509974786 1 0 0 I I #
point $-1 72.168950468459116 40.362589476910756 -18.235287509974786 #
point $-1 72.168950468459116 -40.362589476910756 -18.235287509974786 #
straight-curve $-1 -72.168950468459116 0 18.235287509974786 0 -1 0 I I #
point $-1 -72.168950468459116 40.362589476910756 18.235287509974786 #
point $-1 -72.168950468459116 -40.362589476910756 18.235287509974786 #
straight-curve $-1 72.168950468459116 -40.362589476910756 0 0 0 -1 I I #
straight-curve $-1 72.168950468459116 40.362589476910756 0 0 0 -1 I I #
face $-1 $302 $181 $13 $-1 $303 reversed single #
plane-surface $-1 0 0 18.235287509974786 0 0 1 1 0 0 forward_v I I I I #
coedge $-1 $304 $305 $242 $306 forward $167 $-1 #
coedge $-1 $169 $168 $241 $306 reversed $58 $-1 #
edge $-1 $307 -10.12037587536301 $182 10.12037587536301 $168 $308 forward 7 unknown #
edge $-1 $186 -10.12037587536301 $309 10.12037587536301 $169 $310 forward 7 unknown #
straight-curve $-1 -47.326351535248115 -60.603341227636776 0 0 0 -1 I I #
coedge $-1 $311 $171 $176 $252 forward $181 $-1 #
straight-curve $-1 -53.999953658180196 -50.482965352273766 -18.235287509974786 0 1 0 I I #
coedge $-1 $173 $312 $175 $251 forward $185 $-1 #
straight-curve $-1 -53.999953658180196 -50.482965352273766 18.235287509974786 0 -1 0 I I #
coedge $-1 $176 $175 $313 $314 forward $101 $-1 #
edge $-1 $315 -72.168950468459116 $178 -53.999953658180196 $175 $316 forward 7 unknown #
edge $-1 $177 53.999953658180196 $317 72.168950468459116 $176 $318 forward 7 unknown #
point $-1 -53.999953658180196 -40.362589476910756 -18.235287509974786 #
point $-1 -53.999953658180196 -40.362589476910756 18.235287509974786 #
coedge $-1 $180 $256 $304 $319 forward $181 $-1 #
coedge $-1 $255 $320 $321 $322 forward $181 $-1 #
point $-1 -47.326351535248115 -60.603341227636776 -18.235287509974786 #
coedge $-1 $259 $184 $305 $323 forward $185 $-1 #
coedge $-1 $324 $258 $325 $326 forward $185 $-1 #
point $-1 -47.326351535248115 -60.603341227636776 18.235287509974786 #
face $-1 $327 $328 $14 $-1 $329 reversed single #
loop $-1 $-1 $330 $190 #
plane-surface $-1 -53.999953658180196 -50.482965352273766 0 1 0 0 0 0 -1 forward_v I I I I #
coedge $-1 $331 $332 $333 $334 forward $191 $-1 #
coedge $-1 $193 $335 $336 $337 forward $117 $-1 #
coedge $-1 $336 $203 $194 $267 forward $205 $-1 #
edge $-1 $271 -80.491922418613072 $268 -65.493674358220062 $266 $338 forward 7 unknown #
vertex $-1 $267 $339 #
straight-curve $-1 7.0576957027598262 29.947119435593926 18.235287509974782 0 -1 0 I I #
edge $-1 $201 -17.110564557214307 $271 10.408651987577986 $203 $340 forward 7 unknown #
vertex $-1 $270 $341 #
straight-curve $-1 7.0576957027598262 -24.945451730265432 50.686109733500714 0 -0.80901698891910034 0.5877852598018023 I I #
point $-1 7.0576957027598262 19.719272410789792 18.235287509974782 #
point $-1 -20.461520842032467 40.362589476910756 3.237039449581772 #
coedge $-1 $204 $342 $343 $344 reversed $205 $-1 #
face $-1 $345 $205 $14 $-1 $346 reversed single #
coedge $-1 $347 $207 $348 $349 forward $117 $-1 #
coedge $-1 $343 $350 $207 $279 reversed $351 $-1 #
edge $-1 $280 -40.362589476910756 $352 40.362589476910756 $278 $353 forward 7 unknown #
vertex $-1 $208 $354 #
straight-curve $-1 0 40.362589476910756 18.235287509974786 -1 0 0 I I #
face $-1 $355 $356 $15 $-1 $357 reversed single #
loop $-1 $-1 $358 $211 #
plane-surface $-1 0 0 18.235287509974786 0 0 1 1 0 0 forward_v I I I I #
coedge $-1 $359 $360 $358 $361 reversed $212 $-1 #
coedge $-1 $362 $287 $292 $363 reversed $214 $-1 #
coedge $-1 $286 $364 $215 $288 reversed $214 $-1 #
edge $-1 $293 55.208635606936035 $365 80.725178953821484 $215 $366 forward 7 unknown #
coedge $-1 $367 $368 $216 $290 forward $369 $-1 #
edge $-1 $294 65.493674358220062 $365 80.491922418613072 $289 $370 forward 7 unknown #
coedge $-1 $371 $217 $368 $372 forward $283 $-1 #
coedge $-1 $217 $358 $286 $363 forward $283 $-1 #
vertex $-1 $363 $373 #
vertex $-1 $372 $374 #
straight-curve $-1 -20.461520842032467 29.947119435593926 18.235287509974782 0 1 0 I I #
vertex $-1 $219 $375 #
point $-1 -3.7019125696363204 24.506059215835894 3.1180662499131993 #
straight-curve $-1 -72.168950468459116 40.362589476910756 0 0 0 -1 I I #
point $-1 -72.168950468459116 -40.362589476910756 -18.235287509974786 #
straight-curve $-1 -72.168950468459116 0 -18.235287509974786 0 1 0 I I #
point $-1 -72.168950468459116 40.362589476910756 -18.235287509974786 #
face $-1 $376 $377 $13 $-1 $378 reversed single #
plane-surface $-1 0 0 -18.235287509974786 0 0 1 1 0 0 forward_v I I I I #
coedge $-1 $379 $241 $255 $319 reversed $167 $-1 #
coedge $-1 $241 $379 $258 $323 reversed $167 $-1 #
edge $-1 $309 -18.235287509974786 $307 18.235287509974786 $241 $380 forward 7 unknown #
vertex $-1 $243 $381 #
straight-curve $-1 -47.326351535248115 -50.482965352273766 -18.235287509974786 0 -1 0 I I #
vertex $-1 $323 $382 #
straight-curve $-1 -47.326351535248115 -50.482965352273766 18.235287509974786 0 1 0 I I #
coedge $-1 $320 $246 $383 $384 forward $181 $-1 #
coedge $-1 $248 $324 $385 $386 forward $185 $-1 #
coedge $-1 $385 $383 $250 $314 reversed $377 $-1 #
edge $-1 $315 -18.235287509974786 $317 18.235287509974786 $313 $387 forward 7 unknown #
vertex $-1 $386 $388 #
straight-curve $-1 0 -40.362589476910756 18.235287509974786 1 0 0 I I #
vertex $-1 $384 $389 #
straight-curve $-1 0 -40.362589476910756 -18.235287509974786 -1 0 0 I I #
edge $-1 $390 -72.168950468459116 $307 47.326351535248115 $304 $318 forward 7 unknown #
coedge $-1 $256 $311 $391 $392 forward $181 $-1 #
coedge $-1 $393 $394 $256 $322 reversed $395 $-1 #
edge $-1 $396 -40.362589476910756 $390 40.362589476910756 $321 $397 forward 7 unknown #
edge $-1 $309 -47.326351535248115 $398 72.168950468459116 $305 $316 forward 7 unknown #
coedge $-1 $312 $259 $399 $400 forward $185 $-1 #
coedge $-1 $394 $393 $259 $326 reversed $395 $-1 #
edge $-1 $398 -40.362589476910756 $401 40.362589476910756 $325 $402 forward 7 unknown #
face $-1 $403 $404 $14 $-1 $405 reversed single #
loop $-1 $-1 $406 $261 #
plane-surface $-1 -47.326351535248115 -50.482965352273766 0 -1 0 0 0 0 1 forward_v I I I I #
coedge $-1 $407 $408 $409 $410 reversed $262 $-1 #
coedge $-1 $411 $264 $412 $413 reversed $191 $-1 #
coedge $-1 $264 $411 $414 $415 reversed $191 $-1 #
coedge $-1 $408 $407 $264 $334 reversed $262 $-1 #
edge $-1 $416 -18.235287509974786 $417 18.235287509974786 $333 $418 forward 7 unknown #
coedge $-1 $265 $419 $420 $421 forward $117 $-1 #
coedge $-1 $422 $266 $265 $337 reversed $205 $-1 #
edge $-1 $423 -72.168950468459116 $268 -7.0576957027598262 $336 $281 forward 7 unknown #
straight-curve $-1 7.0576957027598262 40.362589476910756 83.728961868194844 0 0 1 I I #
point $-1 7.0576957027598262 40.362589476910756 18.235287509974786 #
straight-curve $-1 -3.3509562848181602 40.362589476910756 3.2370394495817685 1 0 0 I I #
point $-1 7.0576957027598262 40.362589476910756 3.237039449581772 #
coedge $-1 $275 $422 $424 $425 reversed $205 $-1 #
coedge $-1 $426 $278 $275 $344 forward $351 $-1 #
edge $-1 $280 -18.235287509974786 $427 18.235287509974786 $275 $428 forward 7 unknown #
face $-1 $-1 $429 $14 $-1 $430 reversed single #
plane-surface $-1 0 40.362589476910756 0 0 -1 0 0 0 -1 forward_v I I I I #
coedge $-1 $414 $277 $408 $431 forward $117 $-1 #
coedge $-1 $432 $409 $277 $349 reversed $404 $-1 #
edge $-1 $352 -72.168950468459116 $433 -53.999953658180196 $348 $434 forward 7 unknown #
coedge $-1 $278 $426 $432 $435 reversed $351 $-1 #
loop $-1 $-1 $343 $436 #
vertex $-1 $279 $437 #
straight-curve $-1 -72.168950468459116 0 18.235287509974786 0 -1 0 I I #
point $-1 -72.168950468459116 40.362589476910756 18.235287509974786 #
face $-1 $438 $439 $15 $-1 $440 reversed single #
loop $-1 $-1 $441 $282 #
plane-surface $-1 -50.663152596714156 -60.603341227636776 0 0 1 0 0 0 1 forward_v I I I I #
coedge $-1 $292 $442 $285 $361 forward $283 $-1 #
coedge $-1 $360 $285 $443 $444 reversed $212 $-1 #
coedge $-1 $285 $359 $362 $445 forward $212 $-1 #
edge $-1 $446 -10.41547004131683 $447 10.227847024804134 $358 $448 forward 7 unknown #
coedge $-1 $364 $286 $360 $445 reversed $214 $-1 #
edge $-1 $447 -10.408651987577986 $293 17.110564557214307 $292 $449 forward 7 unknown #
coedge $-1 $287 $362 $367 $450 reversed $214 $-1 #
vertex $-1 $450 $451 #
straight-curve $-1 -20.461520842032467 -24.945451730265432 50.686109733500714 0 0.80901698891910034 -0.5877852598018023 I I #
coedge $-1 $443 $289 $364 $450 forward $369 $-1 #
coedge $-1 $289 $452 $291 $372 reversed $369 $-1 #
loop $-1 $-1 $443 $453 #
straight-curve $-1 -20.461520842032467 40.362589476910756 83.728961868194844 0 0 -1 I I #
coedge $-1 $454 $291 $455 $456 forward $283 $-1 #
edge $-1 $294 20.461520842032467 $457 72.168950468459116 $368 $458 forward 7 unknown #
point $-1 -20.461520842032467 19.719272410789792 18.235287509974782 #
point $-1 -20.461520842032467 40.362589476910756 18.235287509974786 #
point $-1 -6.7019125696363204 22.742703436430485 0.691015283155898 #
face $-1 $459 $460 $13 $-1 $461 reversed single #
loop $-1 $-1 $462 $302 #
plane-surface $-1 -72.168950468459116 0 0 1 0 0 0 0 -1 forward_v I I I I #
coedge $-1 $305 $304 $394 $463 reversed $167 $-1 #
straight-curve $-1 -47.326351535248115 -40.362589476910756 0 0 0 -1 I I #
point $-1 -47.326351535248115 -40.362589476910756 -18.235287509974786 #
point $-1 -47.326351535248115 -40.362589476910756 18.235287509974786 #
coedge $-1 $313 $462 $311 $384 reversed $377 $-1 #
edge $-1 $317 -40.362589476910756 $464 40.362589476910756 $383 $465 forward 7 unknown #
coedge $-1 $462 $313 $312 $386 reversed $377 $-1 #
edge $-1 $466 -40.362589476910756 $315 40.362589476910756 $385 $467 forward 7 unknown #
straight-curve $-1 -72.168950468459116 -40.362589476910756 0 0 0 -1 I I #
point $-1 -72.168950468459116 -40.362589476910756 18.235287509974786 #
point $-1 -72.168950468459116 -40.362589476910756 -18.235287509974786 #
vertex $-1 $463 $468 #
coedge $-1 $469 $470 $320 $392 reversed $460 $-1 #
edge $-1 $464 -72.168950468459116 $396 72.168950468459116 $391 $471 forward 7 unknown #
coedge $-1 $325 $321 $470 $472 reversed $395 $-1 #
coedge $-1 $321 $325 $379 $463 forward $395 $-1 #
loop $-1 $-1 $394 $459 #
vertex $-1 $322 $473 #
straight-curve $-1 72.168950468459116 0 -18.235287509974786 0 -1 0 I I #
vertex $-1 $326 $474 #
coedge $-1 $470 $469 $324 $400 reversed $460 $-1 #
edge $-1 $401 -72.168950468459116 $466 72.168950468459116 $399 $475 forward 7 unknown #
vertex $-1 $326 $476 #
straight-curve $-1 72.168950468459116 0 18.235287509974786 0 1 0 I I #
face $-1 $477 $478 $14 $-1 $405 reversed single #
loop $-1 $-1 $409 $327 #
plane-surface $-1 0 -40.362589476910756 0 0 1 0 0 0 1 forward_v I I I I #
coedge $-1 $479 $480 $411 $481 forward $328 $-1 #
coedge $-1 $333 $330 $482 $483 reversed $262 $-1 #
coedge $-1 $330 $333 $347 $431 reversed $262 $-1 #
coedge $-1 $348 $484 $330 $410 forward $404 $-1 #
edge $-1 $485 -18.235287509974786 $433 18.235287509974786 $409 $486 forward 7 unknown #
coedge $-1 $332 $331 $406 $481 reversed $191 $-1 #
coedge $-1 $482 $487 $331 $413 forward $488 $-1 #
edge $-1 $489 -3.3368010614660406 $417 3.3368010614660406 $331 $490 forward 7 unknown #
coedge $-1 $491 $347 $332 $415 forward $117 $-1 #
edge $-1 $416 -3.3368010614660406 $492 3.3368010614660406 $332 $493 forward 7 unknown #
vertex $-1 $431 $494 #
vertex $-1 $483 $495 #
straight-curve $-1 -53.999953658180196 -60.603341227636776 0 0 0 -1 I I #
coedge $-1 $335 $491 $496 $497 forward $117 $-1 #
coedge $-1 $498 $499 $335 $421 reversed $429 $-1 #
edge $-1 $500 -40.362589476910756 $423 40.362589476910756 $420 $501 forward 7 unknown #
coedge $-1 $342 $336 $499 $502 forward $205 $-1 #
vertex $-1 $421 $503 #
coedge $-1 $504 $505 $342 $425 forward $488 $-1 #
edge $-1 $427 -72.168950468459116 $506 72.168950468459116 $342 $507 forward 7 unknown #
coedge $-1 $350 $343 $505 $508 reversed $351 $-1 #
vertex $-1 $425 $509 #
straight-curve $-1 -72.168950468459116 40.362589476910756 0 0 0 -1 I I #
loop $-1 $-1 $498 $345 #
plane-surface $-1 72.168950468459116 0 0 -1 0 0 0 0 1 forward_v I I I I #
edge $-1 $433 -10.12037587536301 $416 10.12037587536301 $408 $510 forward 7 unknown #
coedge $-1 $484 $348 $350 $435 forward $404 $-1 #
vertex $-1 $431 $511 #
straight-curve $-1 0 -40.362589476910756 18.235287509974786 1 0 0 I I #
edge $-1 $352 -18.235287509974786 $512 18.235287509974786 $350 $513 forward 7 unknown #
face $-1 $276 $351 $14 $-1 $514 reversed single #
point $-1 -72.168950468459116 -40.362589476910756 18.235287509974786 #
face $-1 $515 $516 $15 $-1 $517 reversed single #
loop $-1 $-1 $518 $355 #
plane-surface $-1 -53.999953658180196 -50.482965352273766 0 1 0 0 0 0 -1 forward_v I I I I #
coedge $-1 $519 $520 $521 $522 forward $356 $-1 #
coedge $-1 $358 $523 $524 $525 forward $283 $-1 #
coedge $-1 $524 $367 $359 $444 forward $369 $-1 #
edge $-1 $526 -80.491922418613072 $446 -65.493674358220062 $443 $527 forward 7 unknown #
edge $-1 $526 -80.725178953821484 $447 -55.208635606936035 $360 $528 forward 7 unknown #
vertex $-1 $444 $529 #
vertex $-1 $363 $530 #
straight-curve $-1 7.0576957027598262 29.947119435593926 18.235287509974782 0 -1 0 I I #
straight-curve $-1 -3.3509562848181602 19.719272410789777 18.235287509974786 -1 0 0 I I #
edge $-1 $365 -17.110564557214307 $526 10.408651987577986 $367 $531 forward 7 unknown #
point $-1 -20.461520842032467 40.362589476910756 3.237039449581772 #
coedge $-1 $368 $532 $533 $534 reversed $369 $-1 #
face $-1 $535 $369 $15 $-1 $536 reversed single #
coedge $-1 $537 $371 $538 $539 forward $283 $-1 #
coedge $-1 $533 $540 $371 $456 reversed $541 $-1 #
edge $-1 $457 -40.362589476910756 $542 40.362589476910756 $455 $543 forward 7 unknown #
vertex $-1 $372 $544 #
straight-curve $-1 0 40.362589476910756 18.235287509974786 -1 0 0 I I #
face $-1 $-1 $395 $13 $-1 $545 reversed single #
loop $-1 $-1 $470 $376 #
plane-surface $-1 0 40.362589476910756 0 0 -1 0 0 0 -1 forward_v I I I I #
coedge $-1 $383 $385 $469 $546 forward $377 $-1 #
edge $-1 $398 -18.235287509974786 $390 18.235287509974786 $394 $547 forward 7 unknown #
vertex $-1 $392 $548 #
straight-curve $-1 -72.168950468459116 0 -18.235287509974786 0 1 0 I I #
vertex $-1 $400 $549 #
straight-curve $-1 -72.168950468459116 0 18.235287509974786 0 -1 0 I I #
point $-1 72.168950468459116 -40.362589476910756 -18.235287509974786 #
coedge $-1 $399 $391 $462 $546 reversed $460 $-1 #
coedge $-1 $391 $399 $393 $472 forward $460 $-1 #
straight-curve $-1 0 40.362589476910756 -18.235287509974786 1 0 0 I I #
edge $-1 $401 -18.235287509974786 $396 18.235287509974786 $393 $550 forward 7 unknown #
point $-1 72.168950468459116 40.362589476910756 -18.235287509974786 #
point $-1 72.168950468459116 -40.362589476910756 18.235287509974786 #
straight-curve $-1 0 40.362589476910756 18.235287509974786 -1 0 0 I I #
point $-1 72.168950468459116 40.362589476910756 18.235287509974786 #
face $-1 $436 $488 $14 $-1 $551 reversed single #
loop $-1 $-1 $552 $403 #
coedge $-1 $553 $406 $487 $554 reversed $328 $-1 #
coedge $-1 $406 $553 $491 $555 reversed $328 $-1 #
edge $-1 $492 -18.235287509974786 $489 18.235287509974786 $406 $556 forward 7 unknown #
coedge $-1 $557 $412 $407 $483 forward $488 $-1 #
edge $-1 $417 -10.12037587536301 $485 10.12037587536301 $407 $558 forward 7 unknown #
coedge $-1 $409 $432 $557 $559 reversed $404 $-1 #
vertex $-1 $559 $560 #
straight-curve $-1 -53.999953658180196 -40.362589476910756 0 0 0 1 I I #
coedge $-1 $412 $561 $479 $554 forward $488 $-1 #
loop $-1 $-1 $504 $477 #
vertex $-1 $481 $562 #
straight-curve $-1 -50.663152596714156 -60.603341227636776 -18.235287509974786 -1 0 0 I I #
coedge $-1 $419 $414 $480 $555 forward $117 $-1 #
vertex $-1 $555 $563 #
straight-curve $-1 -50.663152596714156 -60.603341227636776 18.235287509974786 1 0 0 I I #
point $-1 -53.999953658180196 -60.603341227636776 18.235287509974786 #
point $-1 -53.999953658180196 -60.603341227636776 -18.235287509974786 #
coedge $-1 $552 $564 $419 $497 reversed $478 $-1 #
edge $-1 $565 -47.326351535248115 $500 72.168950468459116 $496 $434 forward 7 unknown #
coedge $-1 $566 $420 $564 $567 forward $429 $-1 #
coedge $-1 $420 $566 $422 $502 reversed $429 $-1 #
vertex $-1 $421 $568 #
straight-curve $-1 72.168950468459116 0 18.235287509974786 0 1 0 I I #
edge $-1 $423 -18.235287509974786 $506 18.235287509974786 $499 $569 forward 7 unknown #
point $-1 72.168950468459116 40.362589476910756 18.235287509974786 #
coedge $-1 $561 $424 $566 $570 forward $488 $-1 #
coedge $-1 $424 $557 $426 $508 forward $488 $-1 #
vertex $-1 $570 $571 #
straight-curve $-1 0 40.362589476910756 -18.235287509974786 1 0 0 I I #
edge $-1 $512 -40.362589476910756 $427 40.362589476910756 $426 $572 forward 7 unknown #
point $-1 -72.168950468459116 40.362589476910756 -18.235287509974786 #
straight-curve $-1 -53.999953658180196 -50.482965352273766 18.235287509974786 0 -1 0 I I #
point $-1 -53.999953658180196 -40.362589476910756 18.235287509974786 #
vertex $-1 $508 $573 #
straight-curve $-1 -72.168950468459116 -40.362589476910756 0 0 0 -1 I I #
plane-surface $-1 -72.168950468459116 0 0 1 0 0 0 0 -1 forward_v I I I I #
face $-1 $574 $575 $15 $-1 $576 reversed single #
loop $-1 $-1 $577 $438 #
plane-surface $-1 -47.326351535248115 -50.482965352273766 0 -1 0 0 0 0 1 forward_v I I I I #
coedge $-1 $578 $579 $580 $581 reversed $439 $-1 #
coedge $-1 $582 $441 $583 $584 reversed $356 $-1 #
coedge $-1 $441 $582 $585 $586 reversed $356 $-1 #
coedge $-1 $579 $578 $441 $522 reversed $439 $-1 #
edge $-1 $587 -18.235287509974786 $588 18.235287509974786 $521 $589 forward 7 unknown #
coedge $-1 $442 $590 $591 $592 forward $283 $-1 #
coedge $-1 $593 $443 $442 $525 reversed $369 $-1 #
edge $-1 $594 -72.168950468459116 $446 -7.0576957027598262 $524 $458 forward 7 unknown #
vertex $-1 $450 $595 #
straight-curve $-1 7.0576957027598262 40.362589476910756 83.728961868194844 0 0 1 I I #
straight-curve $-1 7.0576957027598262 -24.945451730265432 50.686109733500714 0 -0.80901698891910034 0.5877852598018023 I I #
point $-1 7.0576957027598262 40.362589476910756 18.235287509974786 #
point $-1 7.0576957027598262 19.719272410789792 18.235287509974782 #
straight-curve $-1 -3.3509562848181602 40.362589476910756 3.2370394495817685 1 0 0 I I #
coedge $-1 $452 $593 $596 $597 reversed $369 $-1 #
coedge $-1 $598 $455 $452 $534 forward $541 $-1 #
edge $-1 $457 -18.235287509974786 $599 18.235287509974786 $452 $600 forward 7 unknown #
face $-1 $-1 $601 $15 $-1 $602 reversed single #
plane-surface $-1 0 40.362589476910756 0 0 -1 0 0 0 -1 forward_v I I I I #
coedge $-1 $585 $454 $579 $603 forward $283 $-1 #
coedge $-1 $604 $580 $454 $539 reversed $575 $-1 #
edge $-1 $542 -72.168950468459116 $605 -53.999953658180196 $538 $606 forward 7 unknown #
coedge $-1 $455 $598 $604 $607 reversed $541 $-1 #
loop $-1 $-1 $533 $608 #
vertex $-1 $456 $609 #
straight-curve $-1 -72.168950468459116 0 18.235287509974786 0 -1 0 I I #
point $-1 -72.168950468459116 40.362589476910756 18.235287509974786 #
plane-surface $-1 72.168950468459116 0 0 -1 0 0 0 0 1 forward_v I I I I #
edge $-1 $466 -18.235287509974786 $464 18.235287509974786 $469 $610 forward 7 unknown #
straight-curve $-1 72.168950468459116 -40.362589476910756 0 0 0 -1 I I #
point $-1 -72.168950468459116 40.362589476910756 -18.235287509974786 #
point $-1 -72.168950468459116 40.362589476910756 18.235287509974786 #
straight-curve $-1 72.168950468459116 40.362589476910756 0 0 0 -1 I I #
plane-surface $-1 0 0 -18.235287509974786 0 0 1 1 0 0 forward_v I I I I #
coedge $-1 $611 $496 $553 $612 forward $478 $-1 #
coedge $-1 $480 $479 $552 $612 reversed $328 $-1 #
edge $-1 $613 -10.12037587536301 $489 10.12037587536301 $479 $614 forward 7 unknown #
edge $-1 $492 -10.12037587536301 $565 10.12037587536301 $480 $615 forward 7 unknown #
straight-curve $-1 -47.326351535248115 -60.603341227636776 0 0 0 -1 I I #
coedge $-1 $505 $482 $484 $559 forward $488 $-1 #
straight-curve $-1 -53.999953658180196 -50.482965352273766 -18.235287509974786 0 1 0 I I #
edge $-1 $485 53.999953658180196 $512 72.168950468459116 $484 $616 forward 7 unknown #
point $-1 -53.999953658180196 -40.362589476910756 -18.235287509974786 #
coedge $-1 $487 $504 $611 $617 forward $488 $-1 #
point $-1 -47.326351535248115 -60.603341227636776 -18.235287509974786 #
point $-1 -47.326351535248115 -60.603341227636776 18.235287509974786 #
coedge $-1 $496 $611 $498 $567 reversed $478 $-1 #
vertex $-1 $497 $618 #
coedge $-1 $499 $498 $504 $570 reversed $429 $-1 #
edge $-1 $500 -18.235287509974786 $619 18.235287509974786 $498 $620 forward 7 unknown #
point $-1 72.168950468459116 -40.362589476910756 18.235287509974786 #
straight-curve $-1 72.168950468459116 40.362589476910756 0 0 0 -1 I I #
edge $-1 $506 -40.362589476910756 $619 40.362589476910756 $566 $621 forward 7 unknown #
point $-1 72.168950468459116 40.362589476910756 -18.235287509974786 #
straight-curve $-1 -72.168950468459116 0 -18.235287509974786 0 1 0 I I #
point $-1 -72.168950468459116 -40.362589476910756 -18.235287509974786 #
face $-1 $622 $623 $15 $-1 $576 reversed single #
loop $-1 $-1 $580 $515 #
plane-surface $-1 0 -40.362589476910756 0 0 1 0 0 0 1 forward_v I I I I #
coedge $-1 $624 $625 $582 $626 forward $516 $-1 #
coedge $-1 $521 $518 $627 $628 reversed $439 $-1 #
coedge $-1 $518 $521 $537 $603 reversed $439 $-1 #
coedge $-1 $538 $629 $518 $581 forward $575 $-1 #
edge $-1 $630 -18.235287509974786 $605 18.235287509974786 $580 $631 forward 7 unknown #
coedge $-1 $520 $519 $577 $626 reversed $356 $-1 #
coedge $-1 $627 $632 $519 $584 forward $633 $-1 #
edge $-1 $634 -3.3368010614660406 $588 3.3368010614660406 $519 $635 forward 7 unknown #
coedge $-1 $636 $537 $520 $586 forward $283 $-1 #
edge $-1 $587 -3.3368010614660406 $637 3.3368010614660406 $520 $638 forward 7 unknown #
vertex $-1 $603 $639 #
vertex $-1 $628 $640 #
straight-curve $-1 -53.999953658180196 -60.603341227636776 0 0 0 -1 I I #
coedge $-1 $523 $636 $641 $642 forward $283 $-1 #
coedge $-1 $643 $644 $523 $592 reversed $601 $-1 #
edge $-1 $645 -40.362589476910756 $594 40.362589476910756 $591 $646 forward 7 unknown #
coedge $-1 $532 $524 $644 $647 forward $369 $-1 #
vertex $-1 $592 $648 #
point $-1 7.0576957027598262 40.362589476910756 3.237039449581772 #
coedge $-1 $649 $650 $532 $597 forward $633 $-1 #
edge $-1 $599 -72.168950468459116 $651 72.168950468459116 $532 $652 forward 7 unknown #
coedge $-1 $540 $533 $650 $653 reversed $541 $-1 #
vertex $-1 $597 $654 #
straight-curve $-1 -72.168950468459116 40.362589476910756 0 0 0 -1 I I #
loop $-1 $-1 $643 $535 #
plane-surface $-1 72.168950468459116 0 0 -1 0 0 0 0 1 forward_v I I I I #
edge $-1 $605 -10.12037587536301 $587 10.12037587536301 $579 $655 forward 7 unknown #
coedge $-1 $629 $538 $540 $607 forward $575 $-1 #
vertex $-1 $603 $656 #
straight-curve $-1 0 -40.362589476910756 18.235287509974786 1 0 0 I I #
edge $-1 $542 -18.235287509974786 $657 18.235287509974786 $540 $658 forward 7 unknown #
face $-1 $453 $541 $15 $-1 $659 reversed single #
point $-1 -72.168950468459116 -40.362589476910756 18.235287509974786 #
straight-curve $-1 -72.168950468459116 40.362589476910756 0 0 0 -1 I I #
coedge $-1 $564 $552 $561 $617 reversed $478 $-1 #
edge $-1 $565 -18.235287509974786 $613 18.235287509974786 $552 $660 forward 7 unknown #
vertex $-1 $554 $661 #
straight-curve $-1 -47.326351535248115 -50.482965352273766 -18.235287509974786 0 -1 0 I I #
straight-curve $-1 -47.326351535248115 -50.482965352273766 18.235287509974786 0 1 0 I I #
straight-curve $-1 0 -40.362589476910756 -18.235287509974786 -1 0 0 I I #
edge $-1 $619 -72.168950468459116 $613 47.326351535248115 $611 $616 forward 7 unknown #
point $-1 -47.326351535248115 -40.362589476910756 18.235287509974786 #
vertex $-1 $567 $662 #
straight-curve $-1 72.168950468459116 -40.362589476910756 0 0 0 -1 I I #
straight-curve $-1 72.168950468459116 0 -18.235287509974786 0 -1 0 I I #
face $-1 $608 $633 $15 $-1 $663 reversed single #
loop $-1 $-1 $664 $574 #
coedge $-1 $665 $577 $632 $666 reversed $516 $-1 #
coedge $-1 $577 $665 $636 $667 reversed $516 $-1 #
edge $-1 $637 -18.235287509974786 $634 18.235287509974786 $577 $668 forward 7 unknown #
coedge $-1 $669 $583 $578 $628 forward $633 $-1 #
edge $-1 $588 -10.12037587536301 $630 10.12037587536301 $578 $670 forward 7 unknown #
coedge $-1 $580 $604 $669 $671 reversed $575 $-1 #
vertex $-1 $671 $672 #
straight-curve $-1 -53.999953658180196 -40.362589476910756 0 0 0 1 I I #
coedge $-1 $583 $673 $624 $666 forward $633 $-1 #
loop $-1 $-1 $649 $622 #
vertex $-1 $626 $674 #
straight-curve $-1 -50.663152596714156 -60.603341227636776 -18.235287509974786 -1 0 0 I I #
coedge $-1 $590 $585 $625 $667 forward $283 $-1 #
vertex $-1 $667 $675 #
straight-curve $-1 -50.663152596714156 -60.603341227636776 18.235287509974786 1 0 0 I I #
point $-1 -53.999953658180196 -60.603341227636776 18.235287509974786 #
point $-1 -53.999953658180196 -60.603341227636776 -18.235287509974786 #
coedge $-1 $664 $676 $590 $642 reversed $623 $-1 #
edge $-1 $677 -47.326351535248115 $645 72.168950468459116 $641 $606 forward 7 unknown #
coedge $-1 $678 $591 $676 $679 forward $601 $-1 #
coedge $-1 $591 $678 $593 $647 reversed $601 $-1 #
vertex $-1 $592 $680 #
straight-curve $-1 72.168950468459116 0 18.235287509974786 0 1 0 I I #
edge $-1 $594 -18.235287509974786 $651 18.235287509974786 $644 $681 forward 7 unknown #
point $-1 72.168950468459116 40.362589476910756 18.235287509974786 #
coedge $-1 $673 $596 $678 $682 forward $633 $-1 #
coedge $-1 $596 $669 $598 $653 forward $633 $-1 #
vertex $-1 $682 $683 #
straight-curve $-1 0 40.362589476910756 -18.235287509974786 1 0 0 I I #
edge $-1 $657 -40.362589476910756 $599 40.362589476910756 $598 $684 forward 7 unknown #
point $-1 -72.168950468459116 40.362589476910756 -18.235287509974786 #
straight-curve $-1 -53.999953658180196 -50.482965352273766 18.235287509974786 0 -1 0 I I #
point $-1 -53.999953658180196 -40.362589476910756 18.235287509974786 #
vertex $-1 $653 $685 #
straight-curve $-1 -72.168950468459116 -40.362589476910756 0 0 0 -1 I I #
plane-surface $-1 -72.168950468459116 0 0 1 0 0 0 0 -1 forward_v I I I I #
straight-curve $-1 -47.326351535248115 -40.362589476910756 0 0 0 -1 I I #
point $-1 -47.326351535248115 -40.362589476910756 -18.235287509974786 #
point $-1 72.168950468459116 -40.362589476910756 -18.235287509974786 #
plane-surface $-1 0 0 -18.235287509974786 0 0 1 1 0 0 forward_v I I I I #
coedge $-1 $686 $641 $665 $687 forward $623 $-1 #
coedge $-1 $625 $624 $664 $687 reversed $516 $-1 #
edge $-1 $688 -10.12037587536301 $634 10.12037587536301 $624 $689 forward 7 unknown #
edge $-1 $637 -10.12037587536301 $677 10.12037587536301 $625 $690 forward 7 unknown #
straight-curve $-1 -47.326351535248115 -60.603341227636776 0 0 0 -1 I I #
coedge $-1 $650 $627 $629 $671 forward $633 $-1 #
straight-curve $-1 -53.999953658180196 -50.482965352273766 -18.235287509974786 0 1 0 I I #
edge $-1 $630 53.999953658180196 $657 72.168950468459116 $629 $691 forward 7 unknown #
point $-1 -53.999953658180196 -40.362589476910756 -18.235287509974786 #
coedge $-1 $632 $649 $686 $692 forward $633 $-1 #
point $-1 -47.326351535248115 -60.603341227636776 -18.235287509974786 #
point $-1 -47.326351535248115 -60.603341227636776 18.235287509974786 #
coedge $-1 $641 $686 $643 $679 reversed $623 $-1 #
vertex $-1 $642 $693 #
coedge $-1 $644 $643 $649 $682 reversed $601 $-1 #
edge $-1 $645 -18.235287509974786 $694 18.235287509974786 $643 $695 forward 7 unknown #
point $-1 72.168950468459116 -40.362589476910756 18.235287509974786 #
straight-curve $-1 72.168950468459116 40.362589476910756 0 0 0 -1 I I #
edge $-1 $651 -40.362589476910756 $694 40.362589476910756 $678 $696 forward 7 unknown #
point $-1 72.168950468459116 40.362589476910756 -18.235287509974786 #
straight-curve $-1 -72.168950468459116 0 -18.235287509974786 0 1 0 I I #
point $-1 -72.168950468459116 -40.362589476910756 -18.235287509974786 #
coedge $-1 $676 $664 $673 $692 reversed $623 $-1 #
edge $-1 $677 -18.235287509974786 $688 18.235287509974786 $664 $697 forward 7 unknown #
vertex $-1 $666 $698 #
straight-curve $-1 -47.326351535248115 -50.482965352273766 -18.235287509974786 0 -1 0 I I #
straight-curve $-1 -47.326351535248115 -50.482965352273766 18.235287509974786 0 1 0 I I #
straight-curve $-1 0 -40.362589476910756 -18.235287509974786 -1 0 0 I I #
edge $-1 $694 -72.168950468459116 $688 47.326351535248115 $686 $691 forward 7 unknown #
point $-1 -47.326351535248115 -40.362589476910756 18.235287509974786 #
vertex $-1 $679 $699 #
straight-curve $-1 72.168950468459116 -40.362589476910756 0 0 0 -1 I I #
straight-curve $-1 72.168950468459116 0 -18.235287509974786 0 -1 0 I I #
straight-curve $-1 -47.326351535248115 -40.362589476910756 0 0 0 -1 I I #
point $-1 -47.326351535248115 -40.362589476910756 -18.235287509974786 #
point $-1 72.168950468459116 -40.362589476910756 -18.235287509974786 #
End-of-ACIS-data 