500 0 12 0           
7 Unknown 11 ACIS 5.0 NT 24 Thu Mar 25 19:47:06 1999 
-1 9.9999999999999995e-007 1e-010 
body $-1 $12 $-1 $13 #
body $-1 $14 $-1 $15 #
body $-1 $16 $-1 $17 #
body $-1 $18 $-1 $19 #
body $-1 $20 $-1 $21 #
body $-1 $22 $-1 $23 #
body $-1 $24 $-1 $25 #
body $-1 $26 $-1 $27 #
body $-1 $28 $-1 $29 #
body $-1 $30 $-1 $31 #
body $-1 $32 $-1 $33 #
body $-1 $34 $-1 $35 #
lump $-1 $-1 $36 $0 #
transform $-1 1 0 0 0 1 0 0 0 1 59.131443220313116 29.817824720538276 7.7514332331924534 1 rotate no_reflect no_shear #
lump $-1 $-1 $37 $1 #
transform $-1 1 0 0 0 1 0 0 0 1 59.131443220313116 29.817824720538276 7.7514332331924534 1 rotate no_reflect no_shear #
lump $-1 $-1 $38 $2 #
transform $-1 1 0 0 0 1 0 0 0 1 59.131443220313116 29.817824720538276 7.7514332331924534 1 rotate no_reflect no_shear #
lump $-1 $-1 $39 $3 #
transform $-1 1 0 0 0 1 0 0 0 1 59.131443220313116 29.817824720538276 7.7514332331924534 1 rotate no_reflect no_shear #
lump $-1 $-1 $40 $4 #
transform $-1 1 0 0 0 1 0 0 0 1 59.131443220313116 29.817824720538276 7.7514332331924534 1 rotate no_reflect no_shear #
lump $-1 $-1 $41 $5 #
transform $-1 1 0 0 0 1 0 0 0 1 59.131443220313116 29.817824720538276 7.7514332331924534 1 rotate no_reflect no_shear #
lump $-1 $-1 $42 $6 #
transform $-1 1 0 0 0 1 0 0 0 1 59.131443220313116 29.817824720538276 7.7514332331924534 1 rotate no_reflect no_shear #
lump $-1 $-1 $43 $7 #
transform $-1 1 0 0 0 1 0 0 0 1 59.131443220313116 29.817824720538276 7.7514332331924534 1 rotate no_reflect no_shear #
lump $-1 $-1 $44 $8 #
transform $-1 1 0 0 0 1 0 0 0 1 59.131443220313116 29.817824720538276 7.7514332331924534 1 rotate no_reflect no_shear #
lump $-1 $-1 $45 $9 #
transform $-1 1 0 0 0 1 0 0 0 1 59.131443220313116 29.817824720538276 7.7514332331924534 1 rotate no_reflect no_shear #
lump $-1 $-1 $46 $10 #
transform $-1 1 0 0 0 1 0 0 0 1 59.131443220313116 29.817824720538276 7.7514332331924534 1 rotate no_reflect no_shear #
lump $-1 $-1 $47 $11 #
transform $-1 1 0 0 0 1 0 0 0 1 59.131443220313116 29.817824720538276 7.7514332331924534 1 rotate no_reflect no_shear #
shell $-1 $-1 $-1 $48 $-1 $12 #
shell $-1 $-1 $-1 $49 $-1 $14 #
shell $-1 $-1 $-1 $50 $-1 $16 #
shell $-1 $-1 $-1 $51 $-1 $18 #
shell $-1 $-1 $-1 $52 $-1 $20 #
shell $-1 $-1 $-1 $53 $-1 $22 #
shell $-1 $-1 $-1 $54 $-1 $24 #
shell $-1 $-1 $-1 $55 $-1 $26 #
shell $-1 $-1 $-1 $56 $-1 $28 #
shell $-1 $-1 $-1 $57 $-1 $30 #
shell $-1 $-1 $-1 $58 $-1 $32 #
shell $-1 $-1 $-1 $59 $-1 $34 #
face $-1 $60 $61 $36 $-1 $62 forward single #
face $-1 $63 $64 $37 $-1 $65 reversed single #
face $-1 $66 $67 $38 $-1 $68 forward single #
face $-1 $69 $70 $39 $-1 $71 reversed single #
face $-1 $72 $73 $40 $-1 $74 forward single #
face $-1 $75 $76 $41 $-1 $77 forward single #
face $-1 $78 $79 $42 $-1 $80 reversed single #
face $-1 $81 $82 $43 $-1 $83 forward single #
face $-1 $84 $85 $44 $-1 $86 forward single #
face $-1 $87 $88 $45 $-1 $89 reversed single #
face $-1 $90 $91 $46 $-1 $92 forward single #
face $-1 $93 $94 $47 $-1 $95 forward single #
face $-1 $96 $97 $36 $-1 $98 reversed single #
loop $-1 $-1 $99 $48 #
plane-surface $-1 0 0 7.7514332331924534 0 0 1 1 0 0 forward_v I I I I #
face $-1 $100 $101 $37 $-1 $102 reversed single #
loop $-1 $-1 $103 $49 #
plane-surface $-1 -46.915419114492884 -24.981977880397217 0 1 0 0 0 0 -1 forward_v I I I I #
face $-1 $104 $105 $38 $-1 $106 reversed single #
loop $-1 $-1 $107 $50 #
plane-surface $-1 0 29.817824720538276 0 0 -1 0 0 0 -1 forward_v I I I I #
face $-1 $108 $109 $39 $-1 $110 reversed single #
loop $-1 $-1 $111 $51 #
plane-surface $-1 -139.78653878800435 12.36661432097959 90.455465910233869 0 1 0 -0.68199836817093118 0 0.7313536940579346 forward_v I I I I #
face $-1 $112 $113 $40 $-1 $114 forward single #
loop $-1 $115 $116 $52 #
cone-surface $-1 -56.641570231803293 15.173486534269507 5.3654207632304773 0.68199836817093118 0 -0.7313536940579346 0.7313536940579346 0 0.68199836817093118 1 I I 0 1 1 forward I I I I #
face $-1 $117 $118 $41 $-1 $119 forward single #
loop $-1 $120 $121 $53 #
cone-surface $-1 -56.641570231803293 19.383794854204389 5.3654207632304773 0.68199836817093118 0 -0.7313536940579346 0.7313536940579346 0 0.68199836817093118 1 I I 0 1 1 forward I I I I #
face $-1 $122 $123 $42 $-1 $124 reversed single #
loop $-1 $-1 $125 $54 #
plane-surface $-1 88.173925790174508 -7.0326644631449673 168.74014492888992 0 -1 0 -0.81915205242281985 0 -0.57357642473473569 forward_v I I I I #
face $-1 $126 $127 $43 $-1 $128 forward single #
loop $-1 $129 $130 $55 #
cone-surface $-1 56.40947726268697 -14.284820660302019 4.8975911721827146 -0.81915205242281985 0 -0.57357642473473569 0.57357642473473569 0 -0.81915205242281985 1 I I 0 1 1 forward I I I I #
face $-1 $131 $132 $44 $-1 $133 forward single #
loop $-1 $134 $135 $56 #
cone-surface $-1 56.40947726268697 -9.9335269420077879 4.8975911721827146 -0.81915205242281985 0 -0.57357642473473569 0.57357642473473569 0 -0.81915205242281985 1 I I 0 1 1 forward I I I I #
face $-1 $136 $137 $45 $-1 $138 reversed single #
loop $-1 $-1 $139 $57 #
plane-surface $-1 88.173925790174508 19.230219166402989 168.74014492888992 0 -1 0 -0.81915205242281985 0 -0.57357642473473569 forward_v I I I I #
face $-1 $140 $141 $46 $-1 $142 forward single #
loop $-1 $143 $144 $58 #
cone-surface $-1 56.40947726268697 11.978062969245933 4.8975911721827146 -0.81915205242281985 0 -0.57357642473473569 0.57357642473473569 0 -0.81915205242281985 1 I I 0 1 1 forward I I I I #
face $-1 $145 $146 $47 $-1 $147 forward single #
loop $-1 $148 $149 $59 #
cone-surface $-1 56.40947726268697 16.329356687540162 4.8975911721827146 -0.81915205242281985 0 -0.57357642473473569 0.57357642473473569 0 -0.81915205242281985 1 I I 0 1 1 forward I I I I #
face $-1 $150 $151 $36 $-1 $152 reversed single #
loop $-1 $-1 $153 $60 #
plane-surface $-1 0 0 -7.7514332331924534 0 0 1 1 0 0 forward_v I I I I #
coedge $-1 $154 $155 $156 $157 forward $61 $-1 #
face $-1 $158 $159 $37 $-1 $160 reversed single #
loop $-1 $-1 $161 $63 #
plane-surface $-1 -45.271997934210546 -20.146131040256158 0 0 -1 0 0 0 -1 forward_v I I I I #
coedge $-1 $162 $163 $164 $165 forward $64 $-1 #
face $-1 $166 $167 $38 $-1 $168 forward single #
loop $-1 $-1 $169 $66 #
plane-surface $-1 59.131443220313116 0 0 -1 0 0 0 0 1 forward_v I I I I #
coedge $-1 $170 $171 $172 $173 forward $67 $-1 #
face $-1 $174 $175 $39 $-1 $176 reversed single #
loop $-1 $-1 $177 $69 #
plane-surface $-1 -59.131443220313116 17.278640694236948 3.9634670419278422 -0.68199836817093118 0 0.7313536940579346 0.7313536940579346 0 0.68199836817093118 forward_v I I I I #
coedge $-1 $178 $179 $180 $181 reversed $70 $-1 #
face $-1 $-1 $182 $40 $-1 $183 forward single #
loop $-1 $184 $185 $72 #
cone-surface $-1 -55.841746223133825 15.173486534269507 4.5077145418718461 0.68199836817093118 0 -0.7313536940579346 0.3656768470289673 0 0.34099918408546559 1 I I -0.70710678118654746 0.70710678118654746 0.5 forward I I I I #
loop $-1 $-1 $186 $52 #
coedge $-1 $116 $116 $187 $188 reversed $73 $-1 #
face $-1 $-1 $189 $41 $-1 $190 forward single #
loop $-1 $191 $192 $75 #
cone-surface $-1 -55.841746223133825 19.383794854204389 4.5077145418718461 0.68199836817093118 0 -0.7313536940579346 0.3656768470289673 0 0.34099918408546559 1 I I -0.70710678118654746 0.70710678118654746 0.5 forward I I I I #
loop $-1 $-1 $193 $53 #
coedge $-1 $121 $121 $194 $195 reversed $76 $-1 #
face $-1 $196 $197 $42 $-1 $198 reversed single #
loop $-1 $-1 $199 $78 #
plane-surface $-1 -8.7013603631113483 -12.109173801154903 100.90734134546547 0.81915205242281985 0 0.57357642473473569 0.57357642473473569 0 -0.81915205242281985 forward_v I I I I #
coedge $-1 $200 $201 $202 $203 reversed $79 $-1 #
face $-1 $-1 $204 $43 $-1 $205 forward single #
loop $-1 $206 $207 $81 #
cone-surface $-1 54.580103510431812 -14.284820660302019 3.6166499193120289 -0.81915205242281985 0 -0.57357642473473569 0.28678821236736785 0 -0.40957602621140993 1 I I -0.70710678118654779 0.70710678118654713 0.5 forward I I I I #
loop $-1 $-1 $208 $55 #
coedge $-1 $130 $130 $209 $210 reversed $82 $-1 #
face $-1 $-1 $211 $44 $-1 $212 forward single #
loop $-1 $213 $214 $84 #
cone-surface $-1 54.580103510431812 -9.9335269420077879 3.6166499193120289 -0.81915205242281985 0 -0.57357642473473569 0.28678821236736785 0 -0.40957602621140993 1 I I -0.70710678118654779 0.70710678118654713 0.5 forward I I I I #
loop $-1 $-1 $215 $56 #
coedge $-1 $135 $135 $216 $217 reversed $85 $-1 #
face $-1 $218 $219 $45 $-1 $220 reversed single #
loop $-1 $-1 $221 $87 #
plane-surface $-1 -8.7013603631113483 14.153709828393055 100.90734134546547 0.81915205242281985 0 0.57357642473473569 0.57357642473473569 0 -0.81915205242281985 forward_v I I I I #
coedge $-1 $222 $223 $224 $225 reversed $88 $-1 #
face $-1 $-1 $226 $46 $-1 $227 forward single #
loop $-1 $228 $229 $90 #
cone-surface $-1 54.580103510431812 11.978062969245933 3.6166499193120289 -0.81915205242281985 0 -0.57357642473473569 0.28678821236736785 0 -0.40957602621140993 1 I I -0.70710678118654779 0.70710678118654713 0.5 forward I I I I #
loop $-1 $-1 $230 $58 #
coedge $-1 $144 $144 $231 $232 reversed $91 $-1 #
face $-1 $-1 $233 $47 $-1 $234 forward single #
loop $-1 $235 $236 $93 #
cone-surface $-1 54.580103510431812 16.329356687540162 3.6166499193120289 -0.81915205242281985 0 -0.57357642473473569 0.28678821236736785 0 -0.40957602621140993 1 I I -0.70710678118654779 0.70710678118654713 0.5 forward I I I I #
loop $-1 $-1 $237 $59 #
coedge $-1 $149 $149 $238 $239 reversed $94 $-1 #
face $-1 $240 $241 $36 $-1 $242 reversed single #
loop $-1 $-1 $243 $96 #
plane-surface $-1 0 -29.817824720538276 0 0 1 0 0 0 1 forward_v I I I I #
coedge $-1 $244 $245 $246 $247 forward $97 $-1 #
coedge $-1 $248 $99 $249 $250 forward $61 $-1 #
coedge $-1 $99 $248 $251 $252 forward $61 $-1 #
coedge $-1 $253 $254 $99 $157 reversed $255 $-1 #
edge $-1 $256 -29.817824720538276 $257 29.817824720538276 $156 $258 forward 7 unknown #
face $-1 $259 $260 $37 $-1 $261 forward single #
loop $-1 $-1 $262 $100 #
plane-surface $-1 -43.628576753928208 -24.981977880397217 0 -1 0 0 0 0 1 forward_v I I I I #
coedge $-1 $263 $264 $265 $266 forward $101 $-1 #
coedge $-1 $267 $103 $268 $269 reversed $64 $-1 #
coedge $-1 $103 $267 $270 $271 reversed $64 $-1 #
coedge $-1 $264 $263 $103 $165 reversed $101 $-1 #
edge $-1 $272 -7.7514332331924534 $273 7.7514332331924534 $164 $274 forward 7 unknown #
face $-1 $275 $276 $38 $-1 $277 reversed single #
loop $-1 $-1 $278 $104 #
plane-surface $-1 0 33.631403547060259 -4.7514332331924534 0 0 1 1 0 0 forward_v I I I I #
coedge $-1 $279 $280 $171 $281 forward $105 $-1 #
coedge $-1 $282 $107 $283 $284 reversed $67 $-1 #
coedge $-1 $107 $282 $169 $281 reversed $67 $-1 #
coedge $-1 $278 $285 $107 $173 reversed $167 $-1 #
edge $-1 $286 -59.131443220313116 $287 59.131443220313116 $172 $288 forward 7 unknown #
face $-1 $289 $290 $39 $-1 $291 reversed single #
loop $-1 $-1 $292 $108 #
plane-surface $-1 -139.78653878800435 22.190667067494307 90.455465910233869 0 -1 0 0.68199836817093118 0 -0.7313536940579346 forward_v I I I I #
coedge $-1 $293 $294 $295 $296 reversed $109 $-1 #
coedge $-1 $179 $111 $297 $298 reversed $70 $-1 #
coedge $-1 $111 $178 $293 $299 reversed $70 $-1 #
coedge $-1 $295 $300 $111 $181 forward $301 $-1 #
edge $-1 $302 10.761826173689059 $303 14.823922501540679 $180 $304 forward 7 unknown #
loop $-1 $-1 $187 $112 #
plane-surface $-1 -59.131443220313116 17.278640694236948 3.9634670419278422 -0.68199836817093118 0 0.7313536940579346 0.7313536940579346 0 0.68199836817093118 forward_v I I I I #
loop $-1 $-1 $305 $72 #
coedge $-1 $185 $185 $186 $306 reversed $113 $-1 #
coedge $-1 $186 $186 $185 $306 forward $115 $-1 #
coedge $-1 $187 $187 $116 $188 forward $182 $-1 #
edge $-1 $307 0 $307 6.2831853071796004 $187 $308 forward 7 unknown #
loop $-1 $-1 $194 $117 #
plane-surface $-1 -59.131443220313116 17.278640694236948 3.9634670419278422 -0.68199836817093118 0 0.7313536940579346 0.7313536940579346 0 0.68199836817093118 forward_v I I I I #
loop $-1 $-1 $309 $75 #
coedge $-1 $192 $192 $193 $310 reversed $118 $-1 #
coedge $-1 $193 $193 $192 $310 forward $120 $-1 #
coedge $-1 $194 $194 $121 $195 forward $189 $-1 #
edge $-1 $311 0 $311 6.2831853071796004 $194 $312 forward 7 unknown #
face $-1 $313 $314 $42 $-1 $315 forward single #
loop $-1 $-1 $316 $122 #
plane-surface $-1 88.173925790174508 -17.185683139164837 168.74014492888992 0 1 0 0.81915205242281985 0 0.57357642473473569 forward_v I I I I #
coedge $-1 $317 $318 $319 $320 reversed $123 $-1 #
coedge $-1 $201 $125 $321 $322 reversed $79 $-1 #
coedge $-1 $125 $200 $317 $323 reversed $79 $-1 #
coedge $-1 $319 $324 $125 $203 forward $314 $-1 #
edge $-1 $325 -15.044480325225862 $326 -12.440143862061049 $202 $327 forward 7 unknown #
loop $-1 $-1 $209 $126 #
plane-surface $-1 -8.7013603631113483 -12.109173801154903 100.90734134546547 0.81915205242281985 0 0.57357642473473569 0.57357642473473569 0 -0.81915205242281985 forward_v I I I I #
loop $-1 $-1 $328 $81 #
coedge $-1 $207 $207 $208 $329 reversed $127 $-1 #
coedge $-1 $208 $208 $207 $329 forward $129 $-1 #
coedge $-1 $209 $209 $130 $210 forward $204 $-1 #
edge $-1 $330 0 $330 6.2831853071796004 $209 $331 forward 7 unknown #
loop $-1 $-1 $216 $131 #
plane-surface $-1 -8.7013603631113483 -12.109173801154903 100.90734134546547 0.81915205242281985 0 0.57357642473473569 0.57357642473473569 0 -0.81915205242281985 forward_v I I I I #
loop $-1 $-1 $332 $84 #
coedge $-1 $214 $214 $215 $333 reversed $132 $-1 #
coedge $-1 $215 $215 $214 $333 forward $134 $-1 #
coedge $-1 $216 $216 $135 $217 forward $211 $-1 #
edge $-1 $334 0 $334 6.2831853071796004 $216 $335 forward 7 unknown #
face $-1 $336 $337 $45 $-1 $338 reversed single #
loop $-1 $-1 $339 $136 #
plane-surface $-1 88.173925790174508 9.0772004903831203 168.74014492888992 0 1 0 0.81915205242281985 0 0.57357642473473569 forward_v I I I I #
coedge $-1 $340 $341 $342 $343 reversed $137 $-1 #
coedge $-1 $223 $139 $344 $345 reversed $88 $-1 #
coedge $-1 $139 $222 $340 $346 reversed $88 $-1 #
coedge $-1 $342 $347 $139 $225 forward $348 $-1 #
edge $-1 $349 -15.044480325225862 $350 -12.440143862061049 $224 $351 forward 7 unknown #
loop $-1 $-1 $231 $140 #
plane-surface $-1 -8.7013603631113483 14.153709828393055 100.90734134546547 0.81915205242281985 0 0.57357642473473569 0.57357642473473569 0 -0.81915205242281985 forward_v I I I I #
loop $-1 $-1 $352 $90 #
coedge $-1 $229 $229 $230 $353 reversed $141 $-1 #
coedge $-1 $230 $230 $229 $353 forward $143 $-1 #
coedge $-1 $231 $231 $144 $232 forward $226 $-1 #
edge $-1 $354 0 $354 6.2831853071796004 $231 $355 forward 7 unknown #
loop $-1 $-1 $238 $145 #
plane-surface $-1 -8.7013603631113483 14.153709828393055 100.90734134546547 0.81915205242281985 0 0.57357642473473569 0.57357642473473569 0 -0.81915205242281985 forward_v I I I I #
loop $-1 $-1 $356 $93 #
coedge $-1 $236 $236 $237 $357 reversed $146 $-1 #
coedge $-1 $237 $237 $236 $357 forward $148 $-1 #
coedge $-1 $238 $238 $149 $239 forward $233 $-1 #
edge $-1 $358 0 $358 6.2831853071796004 $238 $359 forward 7 unknown #
face $-1 $360 $361 $36 $-1 $362 reversed single #
loop $-1 $-1 $363 $150 #
plane-surface $-1 -59.131443220313116 0 0 1 0 0 0 0 -1 forward_v I I I I #
coedge $-1 $364 $251 $365 $366 forward $151 $-1 #
coedge $-1 $367 $153 $364 $368 forward $97 $-1 #
coedge $-1 $153 $367 $369 $370 forward $97 $-1 #
coedge $-1 $254 $253 $153 $247 reversed $255 $-1 #
edge $-1 $371 -29.817824720538276 $372 29.817824720538276 $246 $373 forward 7 unknown #
coedge $-1 $155 $154 $374 $375 forward $61 $-1 #
coedge $-1 $376 $377 $154 $250 reversed $361 $-1 #
edge $-1 $257 -59.131443220313116 $378 59.131443220313116 $249 $379 forward 7 unknown #
coedge $-1 $243 $380 $155 $252 reversed $151 $-1 #
edge $-1 $381 -59.131443220313116 $256 59.131443220313116 $251 $382 forward 7 unknown #
coedge $-1 $246 $156 $380 $383 forward $255 $-1 #
coedge $-1 $156 $246 $376 $384 reversed $255 $-1 #
loop $-1 $-1 $253 $360 #
vertex $-1 $157 $385 #
vertex $-1 $157 $386 #
straight-curve $-1 59.131443220313116 0 7.7514332331924534 0 1 0 I I #
face $-1 $387 $388 $37 $-1 $389 reversed single #
loop $-1 $-1 $390 $158 #
plane-surface $-1 0 0 7.7514332331924534 0 0 1 1 0 0 forward_v I I I I #
coedge $-1 $391 $392 $393 $394 reversed $159 $-1 #
coedge $-1 $164 $161 $395 $396 reversed $101 $-1 #
coedge $-1 $161 $164 $397 $398 reversed $101 $-1 #
coedge $-1 $392 $391 $161 $266 reversed $159 $-1 #
edge $-1 $399 -7.7514332331924534 $400 7.7514332331924534 $265 $401 forward 7 unknown #
coedge $-1 $163 $162 $402 $403 reversed $64 $-1 #
coedge $-1 $395 $404 $162 $269 forward $388 $-1 #
edge $-1 $405 -17.326835780339668 $273 -7.6551421000575495 $268 $406 forward 7 unknown #
coedge $-1 $407 $397 $163 $271 forward $260 $-1 #
edge $-1 $272 7.6551421000575495 $408 17.326835780339668 $270 $409 forward 7 unknown #
vertex $-1 $271 $410 #
vertex $-1 $269 $411 #
straight-curve $-1 -46.915419114492884 -20.146131040256158 0 0 0 -1 I I #
face $-1 $412 $413 $38 $-1 $414 reversed single #
loop $-1 $-1 $415 $166 #
plane-surface $-1 0 37.444982373582242 -6.2514332331924534 0 -1 0 0 0 -1 forward_v I I I I #
coedge $-1 $416 $172 $280 $417 forward $167 $-1 #
coedge $-1 $418 $169 $419 $420 reversed $105 $-1 #
coedge $-1 $169 $418 $278 $417 reversed $105 $-1 #
edge $-1 $286 4.7514332331924534 $421 7.7514332331924534 $169 $422 forward 7 unknown #
coedge $-1 $171 $170 $423 $424 reversed $67 $-1 #
coedge $-1 $425 $426 $170 $284 forward $427 $-1 #
edge $-1 $428 -7.7514332331924534 $287 -4.7514332331924534 $283 $429 forward 7 unknown #
coedge $-1 $172 $416 $425 $430 forward $167 $-1 #
vertex $-1 $281 $431 #
vertex $-1 $430 $432 #
straight-curve $-1 0 29.817824720538276 -4.7514332331924534 -1 0 0 I I #
face $-1 $-1 $301 $39 $-1 $433 forward single #
loop $-1 $-1 $434 $174 #
plane-surface $-1 -59.131443220313116 0 0 1 0 0 0 0 -1 forward_v I I I I #
coedge $-1 $435 $436 $437 $438 reversed $175 $-1 #
coedge $-1 $439 $177 $179 $299 forward $109 $-1 #
coedge $-1 $177 $439 $435 $440 forward $109 $-1 #
coedge $-1 $437 $180 $177 $296 forward $301 $-1 #
edge $-1 $303 3.7272939738611157 $441 13.551346720375832 $295 $442 forward 7 unknown #
coedge $-1 $443 $444 $178 $298 forward $290 $-1 #
edge $-1 $445 -41.264265913189092 $302 -37.476299721924484 $297 $446 forward 7 unknown #
edge $-1 $303 -5.5542159161225761 $445 0 $179 $447 forward 7 unknown #
coedge $-1 $180 $437 $443 $448 forward $301 $-1 #
loop $-1 $-1 $437 $289 #
vertex $-1 $298 $449 #
vertex $-1 $181 $450 #
straight-curve $-1 -69.893269394002175 12.36661432097959 7.7514332331924507 1 0 0 I I #
coedge $-1 $305 $305 $-1 $451 reversed $184 $-1 #
edge $-1 $452 0 $452 6.2831853071796004 $185 $453 forward 7 unknown #
vertex $-1 $188 $454 #
ellipse-curve $-1 -57.100395056387306 15.173486534269507 5.8574501375601491 -0.68199836817093118 0 0.7313536940579346 0.7313536940579346 0 0.68199836817093118 1 I I #
coedge $-1 $309 $309 $-1 $455 reversed $191 $-1 #
edge $-1 $456 0 $456 6.2831853071796004 $192 $457 forward 7 unknown #
vertex $-1 $195 $458 #
ellipse-curve $-1 -57.100395056387306 19.383794854204389 5.8574501375601491 -0.68199836817093118 0 0.7313536940579346 0.7313536940579346 0 0.68199836817093118 1 I I #
face $-1 $-1 $459 $42 $-1 $460 reversed single #
loop $-1 $-1 $202 $196 #
plane-surface $-1 0 0 7.7514332331924534 0 0 1 1 0 0 forward_v I I I I #
coedge $-1 $461 $462 $463 $464 reversed $197 $-1 #
coedge $-1 $465 $199 $201 $323 forward $123 $-1 #
coedge $-1 $199 $465 $461 $466 forward $123 $-1 #
coedge $-1 $463 $202 $199 $320 forward $314 $-1 #
edge $-1 $326 0.97807756256751599 $467 11.131096238587386 $319 $468 forward 7 unknown #
coedge $-1 $469 $470 $200 $322 forward $459 $-1 #
edge $-1 $471 -80.338017272265361 $325 -76.618639231252502 $321 $472 forward 7 unknown #
edge $-1 $326 113.72236428724584 $471 118.26288644062626 $201 $473 forward 7 unknown #
coedge $-1 $202 $463 $469 $474 forward $314 $-1 #
vertex $-1 $322 $475 #
vertex $-1 $203 $476 #
straight-curve $-1 44.086962895087254 -7.0326644631449673 7.7514332331924578 -1 0 0 I I #
coedge $-1 $328 $328 $-1 $477 reversed $206 $-1 #
edge $-1 $478 0 $478 6.2831853071796004 $207 $479 forward 7 unknown #
vertex $-1 $210 $480 #
ellipse-curve $-1 57.829274988730702 -14.284820660302019 5.8917442126860244 0.81915205242281985 0 0.57357642473473569 0.57357642473473569 0 -0.81915205242281985 1 I I #
coedge $-1 $332 $332 $-1 $481 reversed $213 $-1 #
edge $-1 $482 0 $482 6.2831853071796004 $214 $483 forward 7 unknown #
vertex $-1 $217 $484 #
ellipse-curve $-1 57.829274988730702 -9.9335269420077879 5.8917442126860244 0.81915205242281985 0 0.57357642473473569 0.57357642473473569 0 -0.81915205242281985 1 I I #
face $-1 $-1 $348 $45 $-1 $485 forward single #
loop $-1 $-1 $486 $218 #
plane-surface $-1 59.131443220313116 0 0 -1 0 0 0 0 1 forward_v I I I I #
coedge $-1 $487 $488 $489 $490 reversed $219 $-1 #
coedge $-1 $491 $221 $223 $346 forward $137 $-1 #
coedge $-1 $221 $491 $487 $492 forward $137 $-1 #
coedge $-1 $489 $224 $221 $343 forward $348 $-1 #
edge $-1 $350 -12.153364252206462 $493 -2.0003455761865929 $342 $494 forward 7 unknown #
coedge $-1 $495 $496 $222 $345 forward $337 $-1 #
edge $-1 $497 -80.338017272265361 $349 -76.618639231252502 $344 $498 forward 7 unknown #
edge $-1 $350 113.72236428724584 $497 118.26288644062626 $223 $499 forward 7 unknown #
coedge $-1 $224 $489 $495 $500 forward $348 $-1 #
loop $-1 $-1 $489 $336 #
vertex $-1 $345 $501 #
vertex $-1 $225 $502 #
straight-curve $-1 44.086962895087254 19.230219166402989 7.7514332331924578 -1 0 0 I I #
coedge $-1 $352 $352 $-1 $503 reversed $228 $-1 #
edge $-1 $504 0 $504 6.2831853071796004 $229 $505 forward 7 unknown #
vertex $-1 $232 $506 #
ellipse-curve $-1 57.829274988730702 11.978062969245933 5.8917442126860244 0.81915205242281985 0 0.57357642473473569 0.57357642473473569 0 -0.81915205242281985 1 I I #
coedge $-1 $356 $356 $-1 $507 reversed $235 $-1 #
edge $-1 $508 0 $508 6.2831853071796004 $236 $509 forward 7 unknown #
vertex $-1 $239 $510 #
ellipse-curve $-1 57.829274988730702 16.329356687540162 5.8917442126860244 0.81915205242281985 0 0.57357642473473569 0.57357642473473569 0 -0.81915205242281985 1 I I #
face $-1 $-1 $255 $36 $-1 $511 reversed single #
loop $-1 $-1 $377 $240 #
plane-surface $-1 0 29.817824720538276 0 0 -1 0 0 0 -1 forward_v I I I I #
coedge $-1 $512 $374 $377 $513 forward $241 $-1 #
coedge $-1 $380 $243 $244 $368 reversed $151 $-1 #
coedge $-1 $374 $512 $243 $366 reversed $241 $-1 #
edge $-1 $381 -7.7514332331924534 $514 7.7514332331924534 $365 $515 forward 7 unknown #
coedge $-1 $245 $244 $512 $516 forward $97 $-1 #
edge $-1 $372 -59.131443220313116 $514 59.131443220313116 $364 $517 forward 7 unknown #
coedge $-1 $377 $376 $245 $370 reversed $361 $-1 #
edge $-1 $518 -59.131443220313116 $371 59.131443220313116 $369 $519 forward 7 unknown #
vertex $-1 $247 $520 #
vertex $-1 $383 $521 #
straight-curve $-1 59.131443220313116 0 -7.7514332331924534 0 -1 0 I I #
coedge $-1 $363 $365 $248 $375 reversed $241 $-1 #
edge $-1 $378 -29.817824720538276 $381 29.817824720538276 $374 $522 forward 7 unknown #
coedge $-1 $369 $249 $254 $384 forward $361 $-1 #
coedge $-1 $249 $369 $363 $513 reversed $361 $-1 #
vertex $-1 $250 $523 #
straight-curve $-1 0 29.817824720538276 7.7514332331924534 -1 0 0 I I #
coedge $-1 $251 $364 $253 $383 reversed $151 $-1 #
vertex $-1 $375 $524 #
straight-curve $-1 0 -29.817824720538276 7.7514332331924534 1 0 0 I I #
edge $-1 $256 -7.7514332331924534 $372 7.7514332331924534 $253 $525 forward 7 unknown #
edge $-1 $257 -7.7514332331924534 $371 7.7514332331924534 $254 $526 forward 7 unknown #
point $-1 59.131443220313116 -29.817824720538276 7.7514332331924534 #
point $-1 59.131443220313116 29.817824720538276 7.7514332331924534 #
face $-1 $-1 $527 $37 $-1 $528 reversed single #
loop $-1 $-1 $529 $259 #
plane-surface $-1 0 0 -7.7514332331924534 0 0 1 1 0 0 forward_v I I I I #
coedge $-1 $397 $407 $392 $530 forward $260 $-1 #
coedge $-1 $265 $262 $529 $531 reversed $159 $-1 #
coedge $-1 $262 $265 $390 $530 reversed $159 $-1 #
coedge $-1 $532 $533 $262 $394 forward $527 $-1 #
edge $-1 $534 -7.7514332331924534 $535 7.7514332331924534 $393 $536 forward 7 unknown #
coedge $-1 $529 $268 $263 $396 forward $388 $-1 #
edge $-1 $273 -24.279420147387611 $400 -20.992577786822935 $395 $537 forward 7 unknown #
coedge $-1 $270 $390 $264 $398 forward $260 $-1 #
edge $-1 $399 20.992577786822935 $272 24.279420147387611 $397 $538 forward 7 unknown #
vertex $-1 $398 $539 #
vertex $-1 $396 $540 #
straight-curve $-1 -43.628576753928208 -20.146131040256158 0 0 0 -1 I I #
coedge $-1 $533 $532 $267 $403 forward $527 $-1 #
edge $-1 $408 -7.7514332331924534 $405 7.7514332331924534 $402 $541 forward 7 unknown #
coedge $-1 $268 $529 $533 $542 forward $388 $-1 #
vertex $-1 $269 $543 #
straight-curve $-1 -46.915419114492884 -12.490988940198609 -7.7514332331924534 0 1 0 I I #
coedge $-1 $390 $270 $532 $544 forward $260 $-1 #
vertex $-1 $544 $545 #
straight-curve $-1 -46.915419114492884 -12.490988940198609 7.7514332331924534 0 -1 0 I I #
point $-1 -46.915419114492884 -20.146131040256158 7.7514332331924534 #
point $-1 -46.915419114492884 -20.146131040256158 -7.7514332331924534 #
face $-1 $-1 $427 $38 $-1 $546 reversed single #
loop $-1 $-1 $423 $275 #
plane-surface $-1 0 0 -7.7514332331924534 0 0 1 1 0 0 forward_v I I I I #
coedge $-1 $547 $548 $418 $549 forward $276 $-1 #
coedge $-1 $285 $278 $548 $550 forward $167 $-1 #
edge $-1 $286 -3.813578826521983 $551 3.813578826521983 $280 $552 forward 7 unknown #
coedge $-1 $280 $279 $415 $549 reversed $105 $-1 #
coedge $-1 $423 $553 $279 $420 forward $413 $-1 #
edge $-1 $554 -37.444982373582242 $421 -29.817824720538276 $279 $555 forward 7 unknown #
vertex $-1 $281 $556 #
straight-curve $-1 59.131443220313116 29.817824720538276 0 0 0 -1 I I #
coedge $-1 $557 $419 $282 $424 forward $413 $-1 #
edge $-1 $421 -59.131443220313116 $428 59.131443220313116 $423 $558 forward 7 unknown #
coedge $-1 $559 $283 $285 $430 reversed $427 $-1 #
coedge $-1 $283 $559 $557 $560 reversed $427 $-1 #
loop $-1 $-1 $283 $412 #
vertex $-1 $560 $561 #
straight-curve $-1 -59.131443220313116 29.817824720538276 0 0 0 1 I I #
edge $-1 $562 -3.813578826521983 $287 3.813578826521983 $425 $563 forward 7 unknown #
point $-1 59.131443220313116 29.817824720538276 -4.7514332331924534 #
point $-1 -59.131443220313116 29.817824720538276 -4.7514332331924534 #
plane-surface $-1 0 0 7.7514332331924534 0 0 1 1 0 0 forward_v I I I I #
coedge $-1 $444 $443 $436 $564 forward $290 $-1 #
coedge $-1 $436 $292 $294 $440 reversed $175 $-1 #
coedge $-1 $292 $435 $434 $564 reversed $175 $-1 #
coedge $-1 $300 $295 $292 $438 forward $301 $-1 #
edge $-1 $441 -14.823922501540679 $565 -10.761826173689059 $437 $566 forward 7 unknown #
coedge $-1 $294 $293 $444 $567 reversed $109 $-1 #
edge $-1 $568 0 $441 5.5542159161225761 $435 $569 forward 7 unknown #
vertex $-1 $296 $570 #
straight-curve $-1 -55.069346892461496 8.6393203471184741 7.751433233192456 0 1 0 I I #
coedge $-1 $434 $297 $300 $448 reversed $290 $-1 #
coedge $-1 $297 $434 $439 $567 forward $290 $-1 #
vertex $-1 $298 $571 #
straight-curve $-1 -59.131443220313116 12.36661432097959 45.227732955116934 0 0 1 I I #
straight-curve $-1 -59.131443220313116 12.36661432097959 3.9634670419278422 -0.7313536940579346 0 -0.68199836817093118 I I #
edge $-1 $565 -22.190667067494307 $302 -12.36661432097959 $443 $572 forward 7 unknown #
point $-1 -59.131443220313116 12.36661432097959 7.7514332331924534 #
point $-1 -55.069346892461496 12.36661432097959 7.7514332331924534 #
edge $-1 $573 1 $573 0 $305 $-1 forward 7 unknown #
vertex $-1 $306 $574 #
ellipse-curve $-1 -56.182745407219294 15.173486534269507 4.8733913889008136 -0.68199836817093118 0 0.7313536940579346 0.7313536940579346 0 0.68199836817093118 1 I I #
point $-1 -56.369041362329362 15.173486534269507 6.5394485057310732 #
edge $-1 $575 1 $575 0 $309 $-1 forward 7 unknown #
vertex $-1 $310 $576 #
ellipse-curve $-1 -56.182745407219294 19.383794854204389 4.8733913889008136 -0.68199836817093118 0 0.7313536940579346 0.7313536940579346 0 0.68199836817093118 1 I I #
point $-1 -56.369041362329362 19.383794854204389 6.5394485057310732 #
loop $-1 $-1 $321 $313 #
plane-surface $-1 59.131443220313116 0 0 -1 0 0 0 0 1 forward_v I I I I #
coedge $-1 $462 $316 $318 $466 reversed $197 $-1 #
coedge $-1 $316 $461 $577 $578 reversed $197 $-1 #
coedge $-1 $324 $319 $316 $464 forward $314 $-1 #
edge $-1 $467 12.440143862061049 $579 15.044480325225862 $463 $580 forward 7 unknown #
coedge $-1 $318 $317 $470 $581 reversed $123 $-1 #
edge $-1 $582 -118.26288644062626 $467 -113.72236428724584 $461 $583 forward 7 unknown #
vertex $-1 $320 $584 #
straight-curve $-1 56.527106757148317 -6.0545869005774513 7.7514332331924436 0 -1 0 I I #
coedge $-1 $577 $321 $324 $474 reversed $459 $-1 #
coedge $-1 $321 $577 $465 $581 forward $459 $-1 #
vertex $-1 $322 $585 #
straight-curve $-1 59.131443220313116 -7.0326644631449673 84.370072464444959 0 0 1 I I #
straight-curve $-1 -8.7013603631113483 -7.0326644631449673 100.90734134546547 0.57357642473473569 0 -0.81915205242281985 I I #
edge $-1 $579 -17.185683139164837 $325 -7.0326644631449673 $469 $586 forward 7 unknown #
point $-1 59.131443220313116 -7.0326644631449673 7.7514332331924534 #
point $-1 56.527106757148303 -7.0326644631449673 7.7514332331924578 #
edge $-1 $587 1 $587 0 $328 $-1 forward 7 unknown #
vertex $-1 $329 $588 #
ellipse-curve $-1 54.989679536643223 -14.284820660302019 3.9034381316793967 0.81915205242281985 0 0.57357642473473569 0.57357642473473569 0 -0.81915205242281985 1 I I #
point $-1 58.402851413465449 -14.284820660302019 5.0725921602632127 #
edge $-1 $589 1 $589 0 $332 $-1 forward 7 unknown #
vertex $-1 $333 $590 #
ellipse-curve $-1 54.989679536643223 -9.9335269420077879 3.9034381316793967 0.81915205242281985 0 0.57357642473473569 0.57357642473473569 0 -0.81915205242281985 1 I I #
point $-1 58.402851413465449 -9.9335269420077879 5.0725921602632127 #
plane-surface $-1 0 0 7.7514332331924534 0 0 1 1 0 0 forward_v I I I I #
coedge $-1 $496 $495 $488 $591 forward $337 $-1 #
coedge $-1 $488 $339 $341 $492 reversed $219 $-1 #
coedge $-1 $339 $487 $486 $591 reversed $219 $-1 #
coedge $-1 $347 $342 $339 $490 forward $348 $-1 #
edge $-1 $493 12.440143862061049 $592 15.044480325225862 $489 $593 forward 7 unknown #
coedge $-1 $341 $340 $496 $594 reversed $137 $-1 #
edge $-1 $595 -118.26288644062626 $493 -113.72236428724584 $487 $596 forward 7 unknown #
vertex $-1 $343 $597 #
straight-curve $-1 56.527106757148317 7.0768549141965273 7.7514332331924436 0 -1 0 I I #
coedge $-1 $486 $344 $347 $500 reversed $337 $-1 #
coedge $-1 $344 $486 $491 $594 forward $337 $-1 #
vertex $-1 $345 $598 #
straight-curve $-1 59.131443220313116 19.230219166402989 84.370072464444959 0 0 1 I I #
straight-curve $-1 -8.7013603631113483 19.230219166402989 100.90734134546547 0.57357642473473569 0 -0.81915205242281985 I I #
edge $-1 $592 9.0772004903831203 $349 19.230219166402989 $495 $599 forward 7 unknown #
point $-1 59.131443220313116 19.230219166402989 7.7514332331924534 #
point $-1 56.527106757148303 19.230219166402989 7.7514332331924578 #
edge $-1 $600 1 $600 0 $352 $-1 forward 7 unknown #
vertex $-1 $353 $601 #
ellipse-curve $-1 54.989679536643223 11.978062969245933 3.9034381316793967 0.81915205242281985 0 0.57357642473473569 0.57357642473473569 0 -0.81915205242281985 1 I I #
point $-1 58.402851413465449 11.978062969245933 5.0725921602632127 #
edge $-1 $602 1 $602 0 $356 $-1 forward 7 unknown #
vertex $-1 $357 $603 #
ellipse-curve $-1 54.989679536643223 16.329356687540162 3.9034381316793967 0.81915205242281985 0 0.57357642473473569 0.57357642473473569 0 -0.81915205242281985 1 I I #
point $-1 58.402851413465449 16.329356687540162 5.0725921602632127 #
plane-surface $-1 59.131443220313116 0 0 -1 0 0 0 0 1 forward_v I I I I #
coedge $-1 $365 $363 $367 $516 reversed $241 $-1 #
edge $-1 $378 -7.7514332331924534 $518 7.7514332331924534 $377 $604 forward 7 unknown #
vertex $-1 $516 $605 #
straight-curve $-1 -59.131443220313116 -29.817824720538276 0 0 0 -1 I I #
edge $-1 $514 -29.817824720538276 $518 29.817824720538276 $512 $606 forward 7 unknown #
straight-curve $-1 0 -29.817824720538276 -7.7514332331924534 -1 0 0 I I #
vertex $-1 $370 $607 #
straight-curve $-1 0 29.817824720538276 -7.7514332331924534 1 0 0 I I #
point $-1 59.131443220313116 29.817824720538276 -7.7514332331924534 #
point $-1 59.131443220313116 -29.817824720538276 -7.7514332331924534 #
straight-curve $-1 -59.131443220313116 0 7.7514332331924534 0 -1 0 I I #
point $-1 -59.131443220313116 29.817824720538276 7.7514332331924534 #
point $-1 -59.131443220313116 -29.817824720538276 7.7514332331924534 #
straight-curve $-1 59.131443220313116 -29.817824720538276 0 0 0 -1 I I #
straight-curve $-1 59.131443220313116 29.817824720538276 0 0 0 -1 I I #
loop $-1 $-1 $393 $387 #
plane-surface $-1 0 -29.817824720538276 0 0 1 0 0 0 1 forward_v I I I I #
coedge $-1 $404 $395 $391 $531 forward $388 $-1 #
edge $-1 $535 -17.326835780339668 $399 -7.6551421000575495 $390 $608 forward 7 unknown #
edge $-1 $400 7.6551421000575495 $534 17.326835780339668 $529 $609 forward 7 unknown #
coedge $-1 $402 $393 $407 $544 reversed $527 $-1 #
coedge $-1 $393 $402 $404 $542 reversed $527 $-1 #
vertex $-1 $542 $610 #
vertex $-1 $394 $611 #
straight-curve $-1 -43.628576753928208 -29.817824720538276 0 0 0 1 I I #
straight-curve $-1 -22.635998967105273 -20.146131040256158 -7.7514332331924534 1 0 0 I I #
straight-curve $-1 -22.635998967105273 -20.146131040256158 7.7514332331924534 -1 0 0 I I #
point $-1 -43.628576753928208 -20.146131040256158 7.7514332331924534 #
point $-1 -43.628576753928208 -20.146131040256158 -7.7514332331924534 #
straight-curve $-1 -46.915419114492884 -29.817824720538276 0 0 0 -1 I I #
edge $-1 $534 43.628576753928208 $405 46.915419114492884 $533 $612 forward 7 unknown #
point $-1 -46.915419114492884 -29.817824720538276 -7.7514332331924534 #
edge $-1 $408 -46.915419114492884 $535 -43.628576753928208 $532 $613 forward 7 unknown #
point $-1 -46.915419114492884 -29.817824720538276 7.7514332331924534 #
plane-surface $-1 -59.131443220313116 0 0 1 0 0 0 0 -1 forward_v I I I I #
coedge $-1 $614 $415 $553 $615 reversed $276 $-1 #
coedge $-1 $415 $614 $416 $550 reversed $276 $-1 #
edge $-1 $551 -1.5 $554 1.5 $418 $616 forward 7 unknown #
edge $-1 $551 -59.131443220313116 $562 59.131443220313116 $548 $617 forward 7 unknown #
vertex $-1 $417 $618 #
straight-curve $-1 59.131443220313116 33.631403547060259 -4.7514332331924534 0 1 0 I I #
coedge $-1 $419 $557 $547 $615 forward $413 $-1 #
vertex $-1 $420 $619 #
straight-curve $-1 59.131443220313116 0 -7.7514332331924534 0 -1 0 I I #
point $-1 59.131443220313116 29.817824720538276 -7.7514332331924534 #
coedge $-1 $553 $423 $426 $560 forward $413 $-1 #
straight-curve $-1 0 29.817824720538276 -7.7514332331924534 -1 0 0 I I #
coedge $-1 $426 $425 $614 $620 forward $427 $-1 #
edge $-1 $428 -3.813578826521983 $621 3.813578826521983 $426 $622 forward 7 unknown #
point $-1 -59.131443220313116 29.817824720538276 -7.7514332331924534 #
vertex $-1 $550 $623 #
straight-curve $-1 -59.131443220313116 33.631403547060259 -4.7514332331924534 0 -1 0 I I #
edge $-1 $565 37.476299721924484 $568 41.264265913189092 $434 $624 forward 7 unknown #
vertex $-1 $448 $625 #
straight-curve $-1 -69.893269394002175 22.190667067494307 7.7514332331924507 -1 0 0 I I #
edge $-1 $568 -13.551346720375832 $445 -3.7272939738611157 $444 $626 forward 7 unknown #
vertex $-1 $567 $627 #
straight-curve $-1 -59.131443220313116 22.190667067494307 3.9634670419278422 0.7313536940579346 0 0.68199836817093118 I I #
point $-1 -55.069346892461496 22.190667067494307 7.7514332331924534 #
point $-1 -59.131443220313116 12.36661432097959 3.9634670419278422 #
straight-curve $-1 -59.131443220313116 0 7.7514332331924534 0 -1 0 I I #
vertex $-1 $451 $628 #
point $-1 -55.451391713161357 15.173486534269507 5.5553897570717448 #
vertex $-1 $455 $629 #
point $-1 -55.451391713161357 19.383794854204389 5.5553897570717448 #
coedge $-1 $470 $469 $462 $578 forward $459 $-1 #
edge $-1 $579 76.618639231252502 $582 80.338017272265361 $577 $630 forward 7 unknown #
vertex $-1 $474 $631 #
straight-curve $-1 44.086962895087254 -17.185683139164837 7.7514332331924578 1 0 0 I I #
edge $-1 $582 -11.131096238587386 $471 -0.97807756256751599 $470 $632 forward 7 unknown #
vertex $-1 $581 $633 #
straight-curve $-1 -8.7013603631113483 -17.185683139164837 100.90734134546547 -0.57357642473473569 0 0.81915205242281985 I I #
point $-1 56.527106757148303 -17.185683139164837 7.7514332331924578 #
point $-1 59.131443220313116 -7.0326644631449673 4.0320551921795982 #
straight-curve $-1 59.131443220313116 0 7.7514332331924534 0 1 0 I I #
vertex $-1 $477 $634 #
point $-1 55.563255961377955 -14.284820660302019 3.0842860792565769 #
vertex $-1 $481 $635 #
point $-1 55.563255961377955 -9.9335269420077879 3.0842860792565769 #
edge $-1 $592 76.618639231252502 $595 80.338017272265361 $486 $636 forward 7 unknown #
vertex $-1 $500 $637 #
straight-curve $-1 44.086962895087254 9.0772004903831203 7.7514332331924578 1 0 0 I I #
edge $-1 $595 2.0003455761865929 $497 12.153364252206462 $496 $638 forward 7 unknown #
vertex $-1 $594 $639 #
straight-curve $-1 -8.7013603631113483 9.0772004903831203 100.90734134546547 -0.57357642473473569 0 0.81915205242281985 I I #
point $-1 56.527106757148303 9.0772004903831203 7.7514332331924578 #
point $-1 59.131443220313116 19.230219166402989 4.0320551921795982 #
straight-curve $-1 59.131443220313116 0 7.7514332331924534 0 1 0 I I #
vertex $-1 $503 $640 #
point $-1 55.563255961377955 11.978062969245933 3.0842860792565769 #
vertex $-1 $507 $641 #
point $-1 55.563255961377955 16.329356687540162 3.0842860792565769 #
straight-curve $-1 -59.131443220313116 29.817824720538276 0 0 0 -1 I I #
point $-1 -59.131443220313116 -29.817824720538276 -7.7514332331924534 #
straight-curve $-1 -59.131443220313116 0 -7.7514332331924534 0 1 0 I I #
point $-1 -59.131443220313116 29.817824720538276 -7.7514332331924534 #
straight-curve $-1 -43.628576753928208 -12.490988940198609 7.7514332331924534 0 1 0 I I #
straight-curve $-1 -43.628576753928208 -12.490988940198609 -7.7514332331924534 0 -1 0 I I #
point $-1 -43.628576753928208 -29.817824720538276 -7.7514332331924534 #
point $-1 -43.628576753928208 -29.817824720538276 7.7514332331924534 #
straight-curve $-1 0 -29.817824720538276 -7.7514332331924534 -1 0 0 I I #
straight-curve $-1 0 -29.817824720538276 7.7514332331924534 1 0 0 I I #
coedge $-1 $548 $547 $559 $620 reversed $276 $-1 #
edge $-1 $621 -59.131443220313116 $554 59.131443220313116 $547 $642 forward 7 unknown #
straight-curve $-1 59.131443220313116 37.444982373582242 -6.2514332331924534 0 0 -1 I I #
straight-curve $-1 0 37.444982373582242 -4.7514332331924534 -1 0 0 I I #
point $-1 59.131443220313116 37.444982373582242 -4.7514332331924534 #
point $-1 59.131443220313116 37.444982373582242 -7.7514332331924534 #
edge $-1 $562 -1.5 $621 1.5 $614 $643 forward 7 unknown #
vertex $-1 $615 $644 #
straight-curve $-1 -59.131443220313116 33.631403547060259 -7.7514332331924534 0 1 0 I I #
point $-1 -59.131443220313116 37.444982373582242 -4.7514332331924534 #
straight-curve $-1 -59.131443220313116 22.190667067494307 45.227732955116934 0 0 -1 I I #
point $-1 -59.131443220313116 22.190667067494307 7.7514332331924534 #
straight-curve $-1 -59.131443220313116 8.6393203471184741 3.9634670419278422 0 -1 0 I I #
point $-1 -59.131443220313116 22.190667067494307 3.9634670419278422 #
point $-1 -55.500747039048356 15.173486534269507 4.1420376948428785 #
point $-1 -55.500747039048356 19.383794854204389 4.1420376948428785 #
straight-curve $-1 59.131443220313116 -17.185683139164837 84.370072464444959 0 0 -1 I I #
point $-1 59.131443220313116 -17.185683139164837 7.7514332331924534 #
straight-curve $-1 59.13144322031313 -6.0545869005774513 4.0320551921795698 0 1 0 I I #
point $-1 59.131443220313116 -17.185683139164837 4.0320551921795982 #
point $-1 54.170527484220401 -14.284820660302019 3.3298617069446612 #
point $-1 54.170527484220401 -9.9335269420077879 3.3298617069446612 #
straight-curve $-1 59.131443220313116 9.0772004903831203 84.370072464444959 0 0 -1 I I #
point $-1 59.131443220313116 9.0772004903831203 7.7514332331924534 #
straight-curve $-1 59.13144322031313 7.0768549141965273 4.0320551921795698 0 1 0 I I #
point $-1 59.131443220313116 9.0772004903831203 4.0320551921795982 #
point $-1 54.170527484220401 11.978062969245933 3.3298617069446612 #
point $-1 54.170527484220401 16.329356687540162 3.3298617069446612 #
straight-curve $-1 0 37.444982373582242 -7.7514332331924534 1 0 0 I I #
straight-curve $-1 -59.131443220313116 37.444982373582242 -6.2514332331924534 0 0 -1 I I #
point $-1 -59.131443220313116 37.444982373582242 -7.7514332331924534 #
End-of-ACIS-data 