500 0 12 0           
7 Unknown 11 ACIS 5.0 NT 24 Thu Mar 25 15:10:05 1999 
-1 9.9999999999999995e-007 1e-010 
body $-1 $12 $-1 $13 #
body $-1 $14 $-1 $15 #
body $-1 $16 $-1 $17 #
body $-1 $18 $-1 $19 #
body $-1 $20 $-1 $21 #
body $-1 $22 $-1 $23 #
body $-1 $24 $-1 $25 #
body $-1 $26 $-1 $27 #
body $-1 $28 $-1 $29 #
body $-1 $30 $-1 $31 #
body $-1 $32 $-1 $33 #
body $-1 $34 $-1 $35 #
lump $-1 $-1 $36 $0 #
transform $-1 1 0 0 0 1 0 0 0 1 66.252021851252778 38.450314314429271 10.576388682130876 1 rotate no_reflect no_shear #
lump $-1 $-1 $37 $1 #
transform $-1 1 0 0 0 1 0 0 0 1 66.252021851252778 38.450314314429271 10.576388682130876 1 rotate no_reflect no_shear #
lump $-1 $-1 $38 $2 #
transform $-1 1 0 0 0 1 0 0 0 1 66.252021851252778 38.450314314429271 10.576388682130876 1 rotate no_reflect no_shear #
lump $-1 $-1 $39 $3 #
transform $-1 1 0 0 0 1 0 0 0 1 66.252021851252778 38.450314314429271 10.576388682130876 1 rotate no_reflect no_shear #
lump $-1 $-1 $40 $4 #
transform $-1 1 0 0 0 1 0 0 0 1 66.252021851252778 38.450314314429271 10.576388682130876 1 rotate no_reflect no_shear #
lump $-1 $-1 $41 $5 #
transform $-1 1 0 0 0 1 0 0 0 1 66.252021851252778 38.450314314429271 10.576388682130876 1 rotate no_reflect no_shear #
lump $-1 $-1 $42 $6 #
transform $-1 1 0 0 0 1 0 0 0 1 66.252021851252778 38.450314314429271 10.576388682130876 1 rotate no_reflect no_shear #
lump $-1 $-1 $43 $7 #
transform $-1 1 0 0 0 1 0 0 0 1 66.252021851252778 38.450314314429271 10.576388682130876 1 rotate no_reflect no_shear #
lump $-1 $-1 $44 $8 #
transform $-1 1 0 0 0 1 0 0 0 1 66.252021851252778 38.450314314429271 10.576388682130876 1 rotate no_reflect no_shear #
lump $-1 $-1 $45 $9 #
transform $-1 1 0 0 0 1 0 0 0 1 66.252021851252778 38.450314314429271 10.576388682130876 1 rotate no_reflect no_shear #
lump $-1 $-1 $46 $10 #
transform $-1 1 0 0 0 1 0 0 0 1 66.252021851252778 38.450314314429271 10.576388682130876 1 rotate no_reflect no_shear #
lump $-1 $-1 $47 $11 #
transform $-1 1 0 0 0 1 0 0 0 1 66.252021851252778 38.450314314429271 10.576388682130876 1 rotate no_reflect no_shear #
shell $-1 $-1 $-1 $48 $-1 $12 #
shell $-1 $-1 $-1 $49 $-1 $14 #
shell $-1 $-1 $-1 $50 $-1 $16 #
shell $-1 $-1 $-1 $51 $-1 $18 #
shell $-1 $-1 $-1 $52 $-1 $20 #
shell $-1 $-1 $-1 $53 $-1 $22 #
shell $-1 $-1 $-1 $54 $-1 $24 #
shell $-1 $-1 $-1 $55 $-1 $26 #
shell $-1 $-1 $-1 $56 $-1 $28 #
shell $-1 $-1 $-1 $57 $-1 $30 #
shell $-1 $-1 $-1 $58 $-1 $32 #
shell $-1 $-1 $-1 $59 $-1 $34 #
face $-1 $60 $61 $36 $-1 $62 forward single #
face $-1 $63 $64 $37 $-1 $65 reversed single #
face $-1 $66 $67 $38 $-1 $68 reversed single #
face $-1 $69 $70 $39 $-1 $71 reversed single #
face $-1 $72 $73 $40 $-1 $74 forward single #
face $-1 $75 $76 $41 $-1 $77 forward single #
face $-1 $78 $79 $42 $-1 $80 reversed single #
face $-1 $81 $82 $43 $-1 $83 forward single #
face $-1 $84 $85 $44 $-1 $86 forward single #
face $-1 $87 $88 $45 $-1 $89 reversed single #
face $-1 $90 $91 $46 $-1 $92 forward single #
face $-1 $93 $94 $47 $-1 $95 forward single #
face $-1 $96 $97 $36 $-1 $98 reversed single #
loop $-1 $-1 $99 $48 #
plane-surface $-1 0 0 10.576388682130876 0 0 1 1 0 0 forward_v I I I I #
face $-1 $100 $101 $37 $-1 $102 reversed single #
loop $-1 $-1 $103 $49 #
plane-surface $-1 -59.561861295728434 -32.303181775725399 0 0 -1 0 0 0 -1 forward_v I I I I #
face $-1 $104 $105 $38 $-1 $106 reversed single #
loop $-1 $-1 $107 $50 #
plane-surface $-1 52.871700740204091 -35.376748045077335 0 1 0 0 0 0 -1 forward_v I I I I #
face $-1 $108 $109 $39 $-1 $110 reversed single #
loop $-1 $-1 $111 $51 #
plane-surface $-1 -14.634822808108934 -120.02795036995346 108.31459978915404 -1 0 0 0 -0.61566148304635926 0.78801074757464917 forward_v I I I I #
face $-1 $112 $113 $40 $-1 $114 forward single #
loop $-1 $115 $116 $52 #
cone-surface $-1 -30.717230147127282 -33.656724200507519 6.571480940257878 0 0.61566148304635926 -0.78801074757464917 1.5 0 0 1 I I 0 1 1.5 forward I I I I #
face $-1 $117 $118 $41 $-1 $119 forward single #
loop $-1 $120 $121 $53 #
cone-surface $-1 -21.067785743716271 -33.656724200507519 6.571480940257878 0 0.61566148304635926 -0.78801074757464917 1.5 0 0 1 I I 0 1 1.5 forward I I I I #
face $-1 $122 $123 $42 $-1 $124 reversed single #
loop $-1 $-1 $125 $54 #
plane-surface $-1 38.236877932095148 -120.02795036995346 108.31459978915404 -1 0 0 0 -0.61566148304635926 0.78801074757464917 forward_v I I I I #
face $-1 $126 $127 $43 $-1 $128 forward single #
loop $-1 $129 $130 $55 #
cone-surface $-1 22.154470593076809 -33.656724200507519 6.571480940257878 0 0.61566148304635926 -0.78801074757464917 1.5 0 0 1 I I 0 1 1.5 forward I I I I #
face $-1 $131 $132 $44 $-1 $133 forward single #
loop $-1 $134 $135 $56 #
cone-surface $-1 31.803914996487819 -33.656724200507519 6.571480940257878 0 0.61566148304635926 -0.78801074757464917 1.5 0 0 1 I I 0 1 1.5 forward I I I I #
face $-1 $136 $137 $45 $-1 $138 reversed single #
loop $-1 $-1 $139 $57 #
plane-surface $-1 -21.774290359520606 97.992797170388002 148.67916072335936 1 0 0 0 -0.79863551827123203 -0.60181501223851219 forward_v I I I I #
face $-1 $140 $141 $46 $-1 $142 forward single #
loop $-1 $143 $144 $58 #
cone-surface $-1 -16.985873381566272 36.696787743518456 8.5947364328837565 0 -0.79863551827123203 -0.60181501223851219 0.5 0 0 1 I I 0 1 0.5 forward I I I I #
face $-1 $145 $146 $47 $-1 $147 forward single #
loop $-1 $148 $149 $59 #
cone-surface $-1 -9.8032479146347669 36.696787743518456 8.5947364328837565 0 -0.79863551827123203 -0.60181501223851219 0.5 0 0 1 I I 0 1 0.5 forward I I I I #
face $-1 $150 $151 $36 $-1 $152 reversed single #
loop $-1 $-1 $153 $60 #
plane-surface $-1 0 0 -10.576388682130876 0 0 1 1 0 0 forward_v I I I I #
coedge $-1 $154 $155 $156 $157 forward $61 $-1 #
face $-1 $158 $159 $37 $-1 $160 forward single #
loop $-1 $-1 $161 $63 #
plane-surface $-1 -52.871700740204091 -35.376748045077335 0 -1 0 0 0 0 1 forward_v I I I I #
coedge $-1 $162 $163 $164 $165 forward $64 $-1 #
face $-1 $166 $167 $38 $-1 $168 forward single #
loop $-1 $-1 $169 $66 #
plane-surface $-1 59.561861295728434 -32.303181775725399 0 0 -1 0 0 0 -1 forward_v I I I I #
coedge $-1 $170 $171 $172 $173 forward $67 $-1 #
face $-1 $174 $175 $39 $-1 $176 reversed single #
loop $-1 $-1 $177 $69 #
plane-surface $-1 -25.892507945421777 -38.450314314429292 3.8999892544786547 0 -0.61566148304635926 0.78801074757464917 1 0 0 forward_v I I I I #
coedge $-1 $178 $179 $180 $181 reversed $70 $-1 #
face $-1 $-1 $182 $40 $-1 $183 forward single #
loop $-1 $184 $185 $72 #
cone-surface $-1 -30.717230147127282 -32.674088678313566 5.3137648515300153 0 0.61566148304635926 -0.78801074757464917 0.75 0 0 1 I I -0.70710678118654757 0.70710678118654757 0.75 forward I I I I #
loop $-1 $-1 $186 $52 #
coedge $-1 $116 $116 $187 $188 reversed $73 $-1 #
face $-1 $-1 $189 $41 $-1 $190 forward single #
loop $-1 $191 $192 $75 #
cone-surface $-1 -21.067785743716271 -32.674088678313566 5.3137648515300153 0 0.61566148304635926 -0.78801074757464917 0.75 0 0 1 I I -0.70710678118654757 0.70710678118654757 0.75 forward I I I I #
loop $-1 $-1 $193 $53 #
coedge $-1 $121 $121 $194 $195 reversed $76 $-1 #
face $-1 $196 $197 $42 $-1 $198 reversed single #
loop $-1 $-1 $199 $78 #
plane-surface $-1 26.979192794782307 -38.450314314429292 3.8999892544786547 0 -0.61566148304635926 0.78801074757464917 1 0 0 forward_v I I I I #
coedge $-1 $200 $201 $202 $203 reversed $79 $-1 #
face $-1 $-1 $204 $43 $-1 $205 forward single #
loop $-1 $206 $207 $81 #
cone-surface $-1 22.154470593076809 -32.674088678313566 5.3137648515300153 0 0.61566148304635926 -0.78801074757464917 0.75 0 0 1 I I -0.70710678118654757 0.70710678118654757 0.75 forward I I I I #
loop $-1 $-1 $208 $55 #
coedge $-1 $130 $130 $209 $210 reversed $82 $-1 #
face $-1 $-1 $211 $44 $-1 $212 forward single #
loop $-1 $213 $214 $84 #
cone-surface $-1 31.803914996487819 -32.674088678313566 5.3137648515300153 0 0.61566148304635926 -0.78801074757464917 0.75 0 0 1 I I -0.70710678118654757 0.70710678118654757 0.75 forward I I I I #
loop $-1 $-1 $215 $56 #
coedge $-1 $135 $135 $216 $217 reversed $85 $-1 #
face $-1 $218 $219 $45 $-1 $220 reversed single #
loop $-1 $-1 $221 $87 #
plane-surface $-1 -13.394560648100523 -7.8296384449965046 68.936238040883623 0 0.79863551827123203 0.60181501223851219 1 0 0 forward_v I I I I #
coedge $-1 $222 $223 $224 $225 reversed $88 $-1 #
face $-1 $-1 $226 $46 $-1 $227 forward single #
loop $-1 $228 $229 $90 #
cone-surface $-1 -16.985873381566272 35.894928874092365 7.9904924513966549 0 -0.79863551827123203 -0.60181501223851219 0.25 0 0 1 I I -0.70710678118654746 0.70710678118654746 0.25 forward I I I I #
loop $-1 $-1 $230 $58 #
coedge $-1 $144 $144 $231 $232 reversed $91 $-1 #
face $-1 $-1 $233 $47 $-1 $234 forward single #
loop $-1 $235 $236 $93 #
cone-surface $-1 -9.8032479146347669 35.894928874092365 7.9904924513966549 0 -0.79863551827123203 -0.60181501223851219 0.25 0 0 1 I I -0.70710678118654746 0.70710678118654746 0.25 forward I I I I #
loop $-1 $-1 $237 $59 #
coedge $-1 $149 $149 $238 $239 reversed $94 $-1 #
face $-1 $240 $241 $36 $-1 $242 reversed single #
loop $-1 $-1 $243 $96 #
plane-surface $-1 0 -38.450314314429271 0 0 1 0 0 0 1 forward_v I I I I #
coedge $-1 $244 $245 $246 $247 forward $97 $-1 #
coedge $-1 $248 $99 $249 $250 forward $61 $-1 #
coedge $-1 $99 $248 $251 $252 forward $61 $-1 #
coedge $-1 $253 $254 $99 $157 reversed $255 $-1 #
edge $-1 $256 -38.450314314429271 $257 38.450314314429271 $156 $258 forward 7 unknown #
face $-1 $259 $260 $37 $-1 $261 reversed single #
loop $-1 $-1 $262 $100 #
plane-surface $-1 0 0 10.576388682130876 0 0 1 1 0 0 forward_v I I I I #
coedge $-1 $263 $264 $265 $266 reversed $101 $-1 #
coedge $-1 $267 $103 $268 $269 reversed $64 $-1 #
coedge $-1 $103 $267 $270 $271 reversed $64 $-1 #
coedge $-1 $264 $263 $103 $165 reversed $101 $-1 #
edge $-1 $272 -10.576388682130876 $273 10.576388682130876 $164 $274 forward 7 unknown #
face $-1 $275 $276 $38 $-1 $277 reversed single #
loop $-1 $-1 $278 $104 #
plane-surface $-1 0 0 10.576388682130876 0 0 1 1 0 0 forward_v I I I I #
coedge $-1 $279 $280 $281 $282 reversed $105 $-1 #
coedge $-1 $283 $107 $284 $285 reversed $67 $-1 #
coedge $-1 $107 $283 $286 $287 reversed $67 $-1 #
coedge $-1 $280 $279 $107 $173 reversed $105 $-1 #
edge $-1 $288 -10.576388682130876 $289 10.576388682130876 $172 $290 forward 7 unknown #
face $-1 $291 $292 $39 $-1 $293 forward single #
loop $-1 $-1 $294 $108 #
plane-surface $-1 -37.150193082734617 -120.02795036995346 108.31459978915404 1 0 0 0 0.61566148304635926 -0.78801074757464917 forward_v I I I I #
coedge $-1 $295 $296 $297 $298 reversed $109 $-1 #
coedge $-1 $179 $111 $299 $300 reversed $70 $-1 #
coedge $-1 $111 $178 $295 $301 reversed $70 $-1 #
coedge $-1 $297 $302 $111 $181 forward $292 $-1 #
edge $-1 $303 21.563660870547459 $304 30.109062278572551 $180 $305 forward 7 unknown #
loop $-1 $-1 $187 $112 #
plane-surface $-1 -25.892507945421777 -38.450314314429292 3.8999892544786547 0 -0.61566148304635926 0.78801074757464917 1 0 0 forward_v I I I I #
loop $-1 $-1 $306 $72 #
coedge $-1 $185 $185 $186 $307 reversed $113 $-1 #
coedge $-1 $186 $186 $185 $307 forward $115 $-1 #
coedge $-1 $187 $187 $116 $188 forward $182 $-1 #
edge $-1 $308 1.7201407010403112e-015 $308 6.2831853071796022 $187 $309 forward 7 unknown #
loop $-1 $-1 $194 $117 #
plane-surface $-1 -25.892507945421777 -38.450314314429292 3.8999892544786547 0 -0.61566148304635926 0.78801074757464917 1 0 0 forward_v I I I I #
loop $-1 $-1 $310 $75 #
coedge $-1 $192 $192 $193 $311 reversed $118 $-1 #
coedge $-1 $193 $193 $192 $311 forward $120 $-1 #
coedge $-1 $194 $194 $121 $195 forward $189 $-1 #
edge $-1 $312 1.7201407010403112e-015 $312 6.2831853071796022 $194 $313 forward 7 unknown #
face $-1 $314 $315 $42 $-1 $316 reversed single #
loop $-1 $-1 $317 $122 #
plane-surface $-1 15.721507657469465 -120.02795036995346 108.31459978915404 1 0 0 0 0.61566148304635926 -0.78801074757464917 forward_v I I I I #
coedge $-1 $318 $319 $320 $321 reversed $123 $-1 #
coedge $-1 $201 $125 $322 $323 reversed $79 $-1 #
coedge $-1 $125 $200 $318 $324 reversed $79 $-1 #
coedge $-1 $320 $325 $125 $203 forward $326 $-1 #
edge $-1 $327 21.563660870547459 $328 30.109062278572551 $202 $329 forward 7 unknown #
loop $-1 $-1 $209 $126 #
plane-surface $-1 26.979192794782307 -38.450314314429292 3.8999892544786547 0 -0.61566148304635926 0.78801074757464917 1 0 0 forward_v I I I I #
loop $-1 $-1 $330 $81 #
coedge $-1 $207 $207 $208 $331 reversed $127 $-1 #
coedge $-1 $208 $208 $207 $331 forward $129 $-1 #
coedge $-1 $209 $209 $130 $210 forward $204 $-1 #
edge $-1 $332 1.7201407010403112e-015 $332 6.2831853071796022 $209 $333 forward 7 unknown #
loop $-1 $-1 $216 $131 #
plane-surface $-1 26.979192794782307 -38.450314314429292 3.8999892544786547 0 -0.61566148304635926 0.78801074757464917 1 0 0 forward_v I I I I #
loop $-1 $-1 $334 $84 #
coedge $-1 $214 $214 $215 $335 reversed $132 $-1 #
coedge $-1 $215 $215 $214 $335 forward $134 $-1 #
coedge $-1 $216 $216 $135 $217 forward $211 $-1 #
edge $-1 $336 1.7201407010403112e-015 $336 6.2831853071796022 $216 $337 forward 7 unknown #
face $-1 $338 $339 $45 $-1 $340 reversed single #
loop $-1 $-1 $341 $136 #
plane-surface $-1 -5.0148309366804398 97.992797170388002 148.67916072335936 -1 0 0 0 0.79863551827123203 0.60181501223851219 forward_v I I I I #
coedge $-1 $342 $343 $344 $345 reversed $137 $-1 #
coedge $-1 $223 $139 $346 $347 reversed $88 $-1 #
coedge $-1 $139 $222 $342 $348 reversed $88 $-1 #
coedge $-1 $344 $349 $139 $225 forward $350 $-1 #
edge $-1 $351 10.54608427076473 $352 12.84873743286974 $224 $353 forward 7 unknown #
loop $-1 $-1 $231 $140 #
plane-surface $-1 -13.394560648100523 -7.8296384449965046 68.936238040883623 0 0.79863551827123203 0.60181501223851219 1 0 0 forward_v I I I I #
loop $-1 $-1 $354 $90 #
coedge $-1 $229 $229 $230 $355 reversed $141 $-1 #
coedge $-1 $230 $230 $229 $355 forward $143 $-1 #
coedge $-1 $231 $231 $144 $232 forward $226 $-1 #
edge $-1 $356 8.3909628486105647e-015 $356 6.2831853071796084 $231 $357 forward 7 unknown #
loop $-1 $-1 $238 $145 #
plane-surface $-1 -13.394560648100523 -7.8296384449965046 68.936238040883623 0 0.79863551827123203 0.60181501223851219 1 0 0 forward_v I I I I #
loop $-1 $-1 $358 $93 #
coedge $-1 $236 $236 $237 $359 reversed $146 $-1 #
coedge $-1 $237 $237 $236 $359 forward $148 $-1 #
coedge $-1 $238 $238 $149 $239 forward $233 $-1 #
edge $-1 $360 8.3909628486105647e-015 $360 6.2831853071796084 $238 $361 forward 7 unknown #
face $-1 $362 $363 $36 $-1 $364 reversed single #
loop $-1 $-1 $365 $150 #
plane-surface $-1 -66.252021851252778 0 0 1 0 0 0 0 -1 forward_v I I I I #
coedge $-1 $366 $251 $367 $368 forward $151 $-1 #
coedge $-1 $369 $153 $366 $370 forward $97 $-1 #
coedge $-1 $153 $369 $371 $372 forward $97 $-1 #
coedge $-1 $254 $253 $153 $247 reversed $255 $-1 #
edge $-1 $373 -38.450314314429271 $374 38.450314314429271 $246 $375 forward 7 unknown #
coedge $-1 $155 $154 $376 $377 forward $61 $-1 #
coedge $-1 $378 $379 $154 $250 reversed $363 $-1 #
edge $-1 $257 -66.252021851252778 $380 66.252021851252778 $249 $381 forward 7 unknown #
coedge $-1 $243 $382 $155 $252 reversed $151 $-1 #
edge $-1 $383 -66.252021851252778 $256 66.252021851252778 $251 $384 forward 7 unknown #
coedge $-1 $246 $156 $382 $385 forward $255 $-1 #
coedge $-1 $156 $246 $378 $386 reversed $255 $-1 #
loop $-1 $-1 $253 $362 #
vertex $-1 $157 $387 #
vertex $-1 $157 $388 #
straight-curve $-1 66.252021851252778 0 10.576388682130876 0 1 0 I I #
face $-1 $389 $390 $37 $-1 $391 reversed single #
loop $-1 $-1 $392 $158 #
plane-surface $-1 -66.252021851252778 0 0 1 0 0 0 0 -1 forward_v I I I I #
coedge $-1 $270 $393 $264 $394 forward $159 $-1 #
coedge $-1 $164 $161 $395 $396 reversed $101 $-1 #
coedge $-1 $161 $164 $262 $394 reversed $101 $-1 #
coedge $-1 $397 $398 $161 $266 forward $399 $-1 #
edge $-1 $400 -10.576388682130876 $401 10.576388682130876 $265 $402 forward 7 unknown #
coedge $-1 $163 $162 $392 $403 reversed $64 $-1 #
coedge $-1 $395 $404 $162 $269 forward $390 $-1 #
edge $-1 $405 -36.471091203388561 $273 -23.090770092339874 $268 $406 forward 7 unknown #
coedge $-1 $407 $262 $163 $271 forward $159 $-1 #
edge $-1 $272 23.090770092339874 $408 36.471091203388561 $270 $409 forward 7 unknown #
vertex $-1 $271 $410 #
vertex $-1 $269 $411 #
straight-curve $-1 -52.871700740204091 -32.303181775725399 0 0 0 -1 I I #
face $-1 $412 $413 $38 $-1 $414 reversed single #
loop $-1 $-1 $415 $166 #
plane-surface $-1 0 -38.450314314429271 0 0 1 0 0 0 1 forward_v I I I I #
coedge $-1 $286 $416 $280 $417 forward $167 $-1 #
coedge $-1 $172 $169 $418 $419 reversed $105 $-1 #
coedge $-1 $169 $172 $278 $417 reversed $105 $-1 #
coedge $-1 $420 $421 $169 $282 forward $422 $-1 #
edge $-1 $423 -10.576388682130876 $424 10.576388682130876 $281 $425 forward 7 unknown #
coedge $-1 $171 $170 $415 $426 reversed $67 $-1 #
coedge $-1 $418 $427 $170 $285 forward $413 $-1 #
edge $-1 $428 -20.761940291890603 $289 -14.614807753186732 $284 $429 forward 7 unknown #
coedge $-1 $430 $278 $171 $287 forward $167 $-1 #
edge $-1 $288 14.614807753186732 $431 20.761940291890603 $286 $432 forward 7 unknown #
vertex $-1 $287 $433 #
vertex $-1 $285 $434 #
straight-curve $-1 52.871700740204091 -32.303181775725399 0 0 0 -1 I I #
face $-1 $-1 $435 $39 $-1 $436 reversed single #
loop $-1 $-1 $180 $174 #
plane-surface $-1 0 0 10.576388682130876 0 0 1 1 0 0 forward_v I I I I #
coedge $-1 $437 $438 $439 $440 reversed $175 $-1 #
coedge $-1 $441 $177 $179 $301 forward $109 $-1 #
coedge $-1 $177 $441 $437 $442 forward $109 $-1 #
coedge $-1 $439 $180 $177 $298 forward $292 $-1 #
edge $-1 $304 1.6885688353980459 $443 24.203939110023729 $297 $444 forward 7 unknown #
coedge $-1 $445 $446 $178 $300 forward $435 $-1 #
edge $-1 $447 -50.257310640098353 $303 -43.580911212446146 $299 $448 forward 7 unknown #
edge $-1 $304 -10.844270124901561 $447 -2.7186986990266253e-014 $179 $449 forward 7 unknown #
coedge $-1 $180 $439 $445 $450 forward $292 $-1 #
vertex $-1 $300 $451 #
vertex $-1 $181 $452 #
straight-curve $-1 -14.634822808108934 -60.013975184976729 10.576388682130876 0 1 0 I I #
coedge $-1 $306 $306 $-1 $453 reversed $184 $-1 #
edge $-1 $454 0 $454 6.2831853071796004 $185 $455 forward 7 unknown #
vertex $-1 $188 $456 #
ellipse-curve $-1 -30.717230147127282 -34.177613610416721 7.2381889683047778 0 -0.61566148304635926 0.78801074757464917 1.5 0 0 1 I I #
coedge $-1 $310 $310 $-1 $457 reversed $191 $-1 #
edge $-1 $458 0 $458 6.2831853071796004 $192 $459 forward 7 unknown #
vertex $-1 $195 $460 #
ellipse-curve $-1 -21.067785743716271 -34.177613610416721 7.2381889683047778 0 -0.61566148304635926 0.78801074757464917 1.5 0 0 1 I I #
face $-1 $-1 $326 $42 $-1 $461 forward single #
loop $-1 $-1 $462 $196 #
plane-surface $-1 0 -38.450314314429271 0 0 1 0 0 0 1 forward_v I I I I #
coedge $-1 $463 $464 $465 $466 reversed $197 $-1 #
coedge $-1 $467 $199 $201 $324 forward $123 $-1 #
coedge $-1 $199 $467 $463 $468 forward $123 $-1 #
coedge $-1 $465 $202 $199 $321 forward $326 $-1 #
edge $-1 $328 -24.747281534703994 $469 -2.2319112600783111 $320 $470 forward 7 unknown #
coedge $-1 $471 $472 $200 $323 forward $315 $-1 #
edge $-1 $473 -50.257310640098353 $327 -43.580911212446146 $322 $474 forward 7 unknown #
edge $-1 $328 -10.844270124901561 $473 -2.7186986990266253e-014 $201 $475 forward 7 unknown #
coedge $-1 $202 $465 $471 $476 forward $326 $-1 #
loop $-1 $-1 $465 $314 #
vertex $-1 $323 $477 #
vertex $-1 $203 $478 #
straight-curve $-1 38.236877932095148 -60.013975184976729 10.576388682130876 0 1 0 I I #
coedge $-1 $330 $330 $-1 $479 reversed $206 $-1 #
edge $-1 $480 0 $480 6.2831853071796004 $207 $481 forward 7 unknown #
vertex $-1 $210 $482 #
ellipse-curve $-1 22.154470593076809 -34.177613610416721 7.2381889683047778 0 -0.61566148304635926 0.78801074757464917 1.5 0 0 1 I I #
coedge $-1 $334 $334 $-1 $483 reversed $213 $-1 #
edge $-1 $484 0 $484 6.2831853071796004 $214 $485 forward 7 unknown #
vertex $-1 $217 $486 #
ellipse-curve $-1 31.803914996487819 -34.177613610416721 7.2381889683047778 0 -0.61566148304635926 0.78801074757464917 1.5 0 0 1 I I #
face $-1 $-1 $350 $45 $-1 $487 forward single #
loop $-1 $-1 $488 $218 #
plane-surface $-1 0 38.450314314429271 0 0 -1 0 0 0 -1 forward_v I I I I #
coedge $-1 $489 $490 $491 $492 reversed $219 $-1 #
coedge $-1 $493 $221 $223 $348 forward $137 $-1 #
coedge $-1 $221 $493 $489 $494 forward $137 $-1 #
coedge $-1 $491 $224 $221 $345 forward $350 $-1 #
edge $-1 $352 -15.077010035470344 $495 1.6824493873698216 $344 $496 forward 7 unknown #
coedge $-1 $497 $498 $222 $347 forward $339 $-1 #
edge $-1 $499 -66.818915721188034 $351 -63.763191679548804 $346 $500 forward 7 unknown #
edge $-1 $352 73.074447634236833 $499 76.900628628858527 $223 $501 forward 7 unknown #
coedge $-1 $224 $491 $497 $502 forward $350 $-1 #
loop $-1 $-1 $491 $338 #
vertex $-1 $347 $503 #
vertex $-1 $225 $504 #
straight-curve $-1 -21.774290359520606 48.996398585194001 10.576388682130869 0 -1 0 I I #
coedge $-1 $354 $354 $-1 $505 reversed $228 $-1 #
edge $-1 $506 0 $506 6.2831853071796004 $229 $507 forward 7 unknown #
vertex $-1 $232 $508 #
ellipse-curve $-1 -16.985873381566272 37.298987733376769 9.0485266613112518 0 0.79863551827123203 0.60181501223851219 0.5 0 0 1 I I #
coedge $-1 $358 $358 $-1 $509 reversed $235 $-1 #
edge $-1 $510 0 $510 6.2831853071796004 $236 $511 forward 7 unknown #
vertex $-1 $239 $512 #
ellipse-curve $-1 -9.8032479146347669 37.298987733376769 9.0485266613112518 0 0.79863551827123203 0.60181501223851219 0.5 0 0 1 I I #
face $-1 $-1 $255 $36 $-1 $513 reversed single #
loop $-1 $-1 $378 $240 #
plane-surface $-1 0 38.450314314429271 0 0 -1 0 0 0 -1 forward_v I I I I #
coedge $-1 $514 $376 $379 $515 forward $241 $-1 #
coedge $-1 $382 $243 $244 $370 reversed $151 $-1 #
coedge $-1 $376 $514 $243 $368 reversed $241 $-1 #
edge $-1 $383 -10.576388682130876 $516 10.576388682130876 $367 $517 forward 7 unknown #
coedge $-1 $245 $244 $514 $518 forward $97 $-1 #
edge $-1 $374 -66.252021851252778 $516 66.252021851252778 $366 $519 forward 7 unknown #
coedge $-1 $379 $378 $245 $372 reversed $363 $-1 #
edge $-1 $520 -66.252021851252778 $373 66.252021851252778 $371 $521 forward 7 unknown #
vertex $-1 $247 $522 #
vertex $-1 $385 $523 #
straight-curve $-1 66.252021851252778 0 -10.576388682130876 0 -1 0 I I #
coedge $-1 $365 $367 $248 $377 reversed $241 $-1 #
edge $-1 $380 -38.450314314429271 $383 38.450314314429271 $376 $524 forward 7 unknown #
coedge $-1 $371 $249 $254 $386 forward $363 $-1 #
coedge $-1 $249 $371 $365 $515 reversed $363 $-1 #
vertex $-1 $250 $525 #
straight-curve $-1 0 38.450314314429271 10.576388682130876 -1 0 0 I I #
coedge $-1 $251 $366 $253 $385 reversed $151 $-1 #
vertex $-1 $377 $526 #
straight-curve $-1 0 -38.450314314429271 10.576388682130876 1 0 0 I I #
edge $-1 $256 -10.576388682130876 $374 10.576388682130876 $253 $527 forward 7 unknown #
edge $-1 $257 -10.576388682130876 $373 10.576388682130876 $254 $528 forward 7 unknown #
point $-1 66.252021851252778 -38.450314314429271 10.576388682130876 #
point $-1 66.252021851252778 38.450314314429271 10.576388682130876 #
face $-1 $-1 $399 $37 $-1 $529 reversed single #
loop $-1 $-1 $395 $259 #
plane-surface $-1 0 0 -10.576388682130876 0 0 1 1 0 0 forward_v I I I I #
coedge $-1 $530 $531 $267 $403 forward $260 $-1 #
coedge $-1 $262 $407 $397 $532 forward $159 $-1 #
edge $-1 $401 -20.761940291890603 $272 -14.614807753186732 $262 $533 forward 7 unknown #
coedge $-1 $534 $268 $263 $396 forward $390 $-1 #
edge $-1 $273 14.614807753186732 $400 20.761940291890603 $395 $535 forward 7 unknown #
coedge $-1 $536 $265 $393 $532 reversed $399 $-1 #
coedge $-1 $265 $536 $534 $537 reversed $399 $-1 #
loop $-1 $-1 $265 $389 #
vertex $-1 $537 $538 #
vertex $-1 $266 $539 #
straight-curve $-1 -52.871700740204091 -38.450314314429271 0 0 0 1 I I #
edge $-1 $408 -10.576388682130876 $405 10.576388682130876 $392 $540 forward 7 unknown #
coedge $-1 $268 $534 $530 $541 forward $390 $-1 #
vertex $-1 $269 $542 #
straight-curve $-1 -29.780930647864217 -32.303181775725399 -10.576388682130876 1 0 0 I I #
coedge $-1 $393 $270 $531 $543 forward $159 $-1 #
vertex $-1 $543 $544 #
straight-curve $-1 -29.780930647864217 -32.303181775725399 10.576388682130876 -1 0 0 I I #
point $-1 -52.871700740204091 -32.303181775725399 10.576388682130876 #
point $-1 -52.871700740204091 -32.303181775725399 -10.576388682130876 #
face $-1 $-1 $422 $38 $-1 $545 reversed single #
loop $-1 $-1 $418 $275 #
plane-surface $-1 0 0 -10.576388682130876 0 0 1 1 0 0 forward_v I I I I #
coedge $-1 $546 $547 $283 $426 forward $276 $-1 #
coedge $-1 $278 $430 $420 $548 forward $167 $-1 #
edge $-1 $424 -36.471091203388561 $288 -23.090770092339874 $278 $549 forward 7 unknown #
coedge $-1 $550 $284 $279 $419 forward $413 $-1 #
edge $-1 $289 23.090770092339874 $423 36.471091203388561 $418 $551 forward 7 unknown #
coedge $-1 $552 $281 $416 $548 reversed $422 $-1 #
coedge $-1 $281 $552 $550 $553 reversed $422 $-1 #
loop $-1 $-1 $281 $412 #
vertex $-1 $553 $554 #
vertex $-1 $282 $555 #
straight-curve $-1 66.252021851252778 -32.303181775725399 0 0 0 1 I I #
edge $-1 $431 -10.576388682130876 $428 10.576388682130876 $415 $556 forward 7 unknown #
coedge $-1 $284 $550 $546 $557 forward $413 $-1 #
vertex $-1 $285 $558 #
straight-curve $-1 52.871700740204091 -17.688374022538667 -10.576388682130876 0 1 0 I I #
coedge $-1 $416 $286 $547 $559 forward $167 $-1 #
vertex $-1 $559 $560 #
straight-curve $-1 52.871700740204091 -17.688374022538667 10.576388682130876 0 -1 0 I I #
point $-1 52.871700740204091 -32.303181775725399 10.576388682130876 #
point $-1 52.871700740204091 -32.303181775725399 -10.576388682130876 #
loop $-1 $-1 $299 $291 #
plane-surface $-1 0 -38.450314314429271 0 0 1 0 0 0 1 forward_v I I I I #
coedge $-1 $438 $294 $296 $442 reversed $175 $-1 #
coedge $-1 $294 $437 $561 $562 reversed $175 $-1 #
coedge $-1 $302 $297 $294 $440 forward $292 $-1 #
edge $-1 $443 -30.109062278572551 $563 -21.563660870547459 $439 $564 forward 7 unknown #
coedge $-1 $296 $295 $446 $565 reversed $109 $-1 #
edge $-1 $566 2.7186986990266253e-014 $443 10.844270124901561 $437 $567 forward 7 unknown #
vertex $-1 $298 $568 #
straight-curve $-1 -12.946253972710888 -29.904912906404178 10.576388682130876 -1 0 0 I I #
coedge $-1 $561 $299 $302 $450 reversed $435 $-1 #
coedge $-1 $299 $561 $441 $565 forward $435 $-1 #
vertex $-1 $300 $569 #
straight-curve $-1 -14.634822808108934 -38.450314314429271 54.157299894577022 0 0 1 I I #
straight-curve $-1 -14.634822808108934 -38.450314314429292 3.8999892544786547 0 -0.78801074757464917 -0.61566148304635926 I I #
edge $-1 $563 -37.150193082734617 $303 -14.634822808108934 $445 $570 forward 7 unknown #
point $-1 -14.634822808108934 -38.450314314429271 10.576388682130876 #
point $-1 -14.634822808108934 -29.904912906404178 10.576388682130876 #
edge $-1 $571 1 $571 0 $306 $-1 forward 7 unknown #
vertex $-1 $307 $572 #
ellipse-curve $-1 -30.717230147127282 -33.135834790598338 5.9047729122110022 0 -0.61566148304635926 0.78801074757464917 1.5 0 0 1 I I #
point $-1 -29.217230147127282 -34.177613610416699 7.2381889683047547 #
edge $-1 $573 1 $573 0 $310 $-1 forward 7 unknown #
vertex $-1 $311 $574 #
ellipse-curve $-1 -21.067785743716271 -33.135834790598338 5.9047729122110022 0 -0.61566148304635926 0.78801074757464917 1.5 0 0 1 I I #
point $-1 -19.567785743716271 -34.177613610416699 7.2381889683047547 #
plane-surface $-1 0 0 10.576388682130876 0 0 1 1 0 0 forward_v I I I I #
coedge $-1 $472 $471 $464 $575 forward $315 $-1 #
coedge $-1 $464 $317 $319 $468 reversed $197 $-1 #
coedge $-1 $317 $463 $462 $575 reversed $197 $-1 #
coedge $-1 $325 $320 $317 $466 forward $326 $-1 #
edge $-1 $469 -30.109062278572551 $576 -21.563660870547459 $465 $577 forward 7 unknown #
coedge $-1 $319 $318 $472 $578 reversed $123 $-1 #
edge $-1 $579 2.7186986990266253e-014 $469 10.844270124901561 $463 $580 forward 7 unknown #
vertex $-1 $321 $581 #
straight-curve $-1 13.489596397391153 -29.904912906404178 10.576388682130876 -1 0 0 I I #
coedge $-1 $462 $322 $325 $476 reversed $315 $-1 #
coedge $-1 $322 $462 $467 $578 forward $315 $-1 #
vertex $-1 $323 $582 #
straight-curve $-1 38.236877932095148 -38.450314314429271 54.157299894577022 0 0 1 I I #
straight-curve $-1 38.236877932095148 -38.450314314429292 3.8999892544786547 0 -0.78801074757464917 -0.61566148304635926 I I #
edge $-1 $576 15.721507657469465 $327 38.236877932095148 $471 $583 forward 7 unknown #
point $-1 38.236877932095148 -38.450314314429271 10.576388682130876 #
point $-1 38.236877932095148 -29.904912906404178 10.576388682130876 #
edge $-1 $584 1 $584 0 $330 $-1 forward 7 unknown #
vertex $-1 $331 $585 #
ellipse-curve $-1 22.154470593076809 -33.135834790598338 5.9047729122110022 0 -0.61566148304635926 0.78801074757464917 1.5 0 0 1 I I #
point $-1 23.654470593076809 -34.177613610416699 7.2381889683047547 #
edge $-1 $586 1 $586 0 $334 $-1 forward 7 unknown #
vertex $-1 $335 $587 #
ellipse-curve $-1 31.803914996487819 -33.135834790598338 5.9047729122110022 0 -0.61566148304635926 0.78801074757464917 1.5 0 0 1 I I #
point $-1 33.303914996487819 -34.177613610416699 7.2381889683047547 #
plane-surface $-1 0 0 10.576388682130876 0 0 1 1 0 0 forward_v I I I I #
coedge $-1 $498 $497 $490 $588 forward $339 $-1 #
coedge $-1 $490 $341 $343 $494 reversed $219 $-1 #
coedge $-1 $341 $489 $488 $588 reversed $219 $-1 #
coedge $-1 $349 $344 $341 $492 forward $350 $-1 #
edge $-1 $495 -12.84873743286974 $589 -10.54608427076473 $491 $590 forward 7 unknown #
coedge $-1 $343 $342 $498 $591 reversed $137 $-1 #
edge $-1 $592 -76.900628628858527 $495 -73.074447634236833 $489 $593 forward 7 unknown #
vertex $-1 $345 $594 #
straight-curve $-1 -6.6972803240502614 36.147661152324261 10.576388682130876 1 0 0 I I #
coedge $-1 $488 $346 $349 $502 reversed $339 $-1 #
coedge $-1 $346 $488 $493 $591 forward $339 $-1 #
vertex $-1 $347 $595 #
straight-curve $-1 -21.774290359520606 38.450314314429271 74.33958036167968 0 0 1 I I #
straight-curve $-1 -21.774290359520606 -7.8296384449965046 68.936238040883623 0 0.60181501223851219 -0.79863551827123203 I I #
edge $-1 $589 5.0148309366804398 $351 21.774290359520606 $497 $596 forward 7 unknown #
point $-1 -21.774290359520606 38.450314314429271 10.576388682130876 #
point $-1 -21.774290359520606 36.147661152324261 10.576388682130876 #
edge $-1 $597 1 $597 0 $354 $-1 forward 7 unknown #
vertex $-1 $355 $598 #
ellipse-curve $-1 -16.985873381566272 36.094587753660171 8.1409462044562826 0 0.79863551827123203 0.60181501223851219 0.5 0 0 1 I I #
point $-1 -16.485873381566272 37.298987733376748 9.0485266613112305 #
edge $-1 $599 1 $599 0 $358 $-1 forward 7 unknown #
vertex $-1 $359 $600 #
ellipse-curve $-1 -9.8032479146347669 36.094587753660171 8.1409462044562826 0 0.79863551827123203 0.60181501223851219 0.5 0 0 1 I I #
point $-1 -9.3032479146347669 37.298987733376748 9.0485266613112305 #
plane-surface $-1 66.252021851252778 0 0 -1 0 0 0 0 1 forward_v I I I I #
coedge $-1 $367 $365 $369 $518 reversed $241 $-1 #
edge $-1 $380 -10.576388682130876 $520 10.576388682130876 $379 $601 forward 7 unknown #
vertex $-1 $518 $602 #
straight-curve $-1 -66.252021851252778 -38.450314314429271 0 0 0 -1 I I #
edge $-1 $516 -38.450314314429271 $520 38.450314314429271 $514 $603 forward 7 unknown #
straight-curve $-1 0 -38.450314314429271 -10.576388682130876 -1 0 0 I I #
vertex $-1 $372 $604 #
straight-curve $-1 0 38.450314314429271 -10.576388682130876 1 0 0 I I #
point $-1 66.252021851252778 38.450314314429271 -10.576388682130876 #
point $-1 66.252021851252778 -38.450314314429271 -10.576388682130876 #
straight-curve $-1 -66.252021851252778 0 10.576388682130876 0 -1 0 I I #
point $-1 -66.252021851252778 38.450314314429271 10.576388682130876 #
point $-1 -66.252021851252778 -38.450314314429271 10.576388682130876 #
straight-curve $-1 66.252021851252778 -38.450314314429271 0 0 0 -1 I I #
straight-curve $-1 66.252021851252778 38.450314314429271 0 0 0 -1 I I #
plane-surface $-1 0 -38.450314314429271 0 0 1 0 0 0 1 forward_v I I I I #
coedge $-1 $605 $392 $404 $541 reversed $260 $-1 #
coedge $-1 $392 $605 $407 $543 reversed $260 $-1 #
edge $-1 $606 -66.252021851252778 $401 -52.871700740204091 $397 $607 forward 7 unknown #
straight-curve $-1 -52.871700740204091 -17.688374022538667 10.576388682130876 0 1 0 I I #
coedge $-1 $404 $395 $398 $537 forward $390 $-1 #
straight-curve $-1 -52.871700740204091 -17.688374022538667 -10.576388682130876 0 -1 0 I I #
coedge $-1 $398 $397 $605 $608 forward $399 $-1 #
edge $-1 $400 52.871700740204091 $609 66.252021851252778 $398 $610 forward 7 unknown #
point $-1 -52.871700740204091 -38.450314314429271 -10.576388682130876 #
point $-1 -52.871700740204091 -38.450314314429271 10.576388682130876 #
straight-curve $-1 -66.252021851252778 -32.303181775725399 0 0 0 -1 I I #
edge $-1 $609 -38.450314314429271 $405 -32.303181775725399 $530 $611 forward 7 unknown #
point $-1 -66.252021851252778 -32.303181775725399 -10.576388682130876 #
edge $-1 $408 32.303181775725399 $606 38.450314314429271 $531 $612 forward 7 unknown #
point $-1 -66.252021851252778 -32.303181775725399 10.576388682130876 #
plane-surface $-1 66.252021851252778 0 0 -1 0 0 0 0 1 forward_v I I I I #
coedge $-1 $613 $415 $427 $557 reversed $276 $-1 #
coedge $-1 $415 $613 $430 $559 reversed $276 $-1 #
edge $-1 $614 -38.450314314429271 $424 -32.303181775725399 $420 $615 forward 7 unknown #
straight-curve $-1 29.780930647864217 -32.303181775725399 10.576388682130876 -1 0 0 I I #
coedge $-1 $427 $418 $421 $553 forward $413 $-1 #
straight-curve $-1 29.780930647864217 -32.303181775725399 -10.576388682130876 1 0 0 I I #
coedge $-1 $421 $420 $613 $616 forward $422 $-1 #
edge $-1 $423 32.303181775725399 $617 38.450314314429271 $421 $618 forward 7 unknown #
point $-1 66.252021851252778 -32.303181775725399 -10.576388682130876 #
point $-1 66.252021851252778 -32.303181775725399 10.576388682130876 #
straight-curve $-1 52.871700740204091 -38.450314314429271 0 0 0 -1 I I #
edge $-1 $617 -66.252021851252778 $428 -52.871700740204091 $546 $619 forward 7 unknown #
point $-1 52.871700740204091 -38.450314314429271 -10.576388682130876 #
edge $-1 $431 52.871700740204091 $614 66.252021851252778 $547 $620 forward 7 unknown #
point $-1 52.871700740204091 -38.450314314429271 10.576388682130876 #
coedge $-1 $446 $445 $438 $562 forward $435 $-1 #
edge $-1 $563 43.580911212446146 $566 50.257310640098353 $561 $621 forward 7 unknown #
vertex $-1 $450 $622 #
straight-curve $-1 -37.150193082734617 -60.013975184976729 10.576388682130876 0 -1 0 I I #
edge $-1 $566 -24.203939110023729 $447 -1.6885688353980459 $446 $623 forward 7 unknown #
vertex $-1 $565 $624 #
straight-curve $-1 -37.150193082734617 -38.450314314429292 3.8999892544786547 0 0.78801074757464917 0.61566148304635926 I I #
point $-1 -37.150193082734617 -29.904912906404178 10.576388682130876 #
point $-1 -14.634822808108934 -38.450314314429271 3.8999892544786716 #
straight-curve $-1 0 -38.450314314429271 10.576388682130876 1 0 0 I I #
vertex $-1 $453 $625 #
point $-1 -29.217230147127282 -33.135834790598338 5.9047729122110022 #
vertex $-1 $457 $626 #
point $-1 -19.567785743716271 -33.135834790598338 5.9047729122110022 #
edge $-1 $576 43.580911212446146 $579 50.257310640098353 $462 $627 forward 7 unknown #
vertex $-1 $476 $628 #
straight-curve $-1 15.721507657469465 -60.013975184976729 10.576388682130876 0 -1 0 I I #
edge $-1 $579 2.2319112600783111 $473 24.747281534703994 $472 $629 forward 7 unknown #
vertex $-1 $578 $630 #
straight-curve $-1 15.721507657469465 -38.450314314429292 3.8999892544786547 0 0.78801074757464917 0.61566148304635926 I I #
point $-1 15.721507657469465 -29.904912906404178 10.576388682130876 #
point $-1 38.236877932095148 -38.450314314429271 3.8999892544786716 #
straight-curve $-1 0 -38.450314314429271 10.576388682130876 1 0 0 I I #
vertex $-1 $479 $631 #
point $-1 23.654470593076809 -33.135834790598338 5.9047729122110022 #
vertex $-1 $483 $632 #
point $-1 33.303914996487819 -33.135834790598338 5.9047729122110022 #
edge $-1 $589 63.763191679548804 $592 66.818915721188034 $488 $633 forward 7 unknown #
vertex $-1 $502 $634 #
straight-curve $-1 -5.0148309366804398 48.996398585194001 10.576388682130869 0 1 0 I I #
edge $-1 $592 -1.6824493873698216 $499 15.077010035470344 $498 $635 forward 7 unknown #
vertex $-1 $591 $636 #
straight-curve $-1 -5.0148309366804398 -7.8296384449965046 68.936238040883623 0 -0.60181501223851219 0.79863551827123203 I I #
point $-1 -5.0148309366804398 36.147661152324261 10.576388682130876 #
point $-1 -21.774290359520606 38.450314314429271 7.5206646404916526 #
straight-curve $-1 0 38.450314314429271 10.576388682130876 -1 0 0 I I #
vertex $-1 $505 $637 #
point $-1 -16.485873381566272 36.094587753660171 8.1409462044562826 #
vertex $-1 $509 $638 #
point $-1 -9.3032479146347669 36.094587753660171 8.1409462044562826 #
straight-curve $-1 -66.252021851252778 38.450314314429271 0 0 0 -1 I I #
point $-1 -66.252021851252778 -38.450314314429271 -10.576388682130876 #
straight-curve $-1 -66.252021851252778 0 -10.576388682130876 0 1 0 I I #
point $-1 -66.252021851252778 38.450314314429271 -10.576388682130876 #
coedge $-1 $531 $530 $536 $608 reversed $260 $-1 #
vertex $-1 $543 $639 #
straight-curve $-1 0 -38.450314314429271 10.576388682130876 1 0 0 I I #
edge $-1 $606 -10.576388682130876 $609 10.576388682130876 $605 $640 forward 7 unknown #
vertex $-1 $541 $641 #
straight-curve $-1 0 -38.450314314429271 -10.576388682130876 -1 0 0 I I #
straight-curve $-1 -66.252021851252778 0 -10.576388682130876 0 1 0 I I #
straight-curve $-1 -66.252021851252778 0 10.576388682130876 0 -1 0 I I #
coedge $-1 $547 $546 $552 $616 reversed $276 $-1 #
vertex $-1 $548 $642 #
straight-curve $-1 66.252021851252778 0 10.576388682130876 0 1 0 I I #
edge $-1 $614 -10.576388682130876 $617 10.576388682130876 $552 $643 forward 7 unknown #
vertex $-1 $616 $644 #
straight-curve $-1 66.252021851252778 0 -10.576388682130876 0 -1 0 I I #
straight-curve $-1 0 -38.450314314429271 -10.576388682130876 -1 0 0 I I #
straight-curve $-1 0 -38.450314314429271 10.576388682130876 1 0 0 I I #
straight-curve $-1 -37.150193082734617 -38.450314314429271 54.157299894577022 0 0 -1 I I #
point $-1 -37.150193082734617 -38.450314314429271 10.576388682130876 #
straight-curve $-1 -12.946253972710888 -38.450314314429271 3.8999892544786712 1 0 0 I I #
point $-1 -37.150193082734617 -38.450314314429271 3.8999892544786716 #
point $-1 -30.717230147127282 -32.212342566028795 4.7227567908490284 #
point $-1 -21.067785743716271 -32.212342566028795 4.7227567908490284 #
straight-curve $-1 15.721507657469465 -38.450314314429271 54.157299894577022 0 0 -1 I I #
point $-1 15.721507657469465 -38.450314314429271 10.576388682130876 #
straight-curve $-1 13.489596397391153 -38.450314314429271 3.8999892544786712 1 0 0 I I #
point $-1 15.721507657469465 -38.450314314429271 3.8999892544786716 #
point $-1 22.154470593076809 -32.212342566028795 4.7227567908490284 #
point $-1 31.803914996487819 -32.212342566028795 4.7227567908490284 #
straight-curve $-1 -5.0148309366804398 38.450314314429271 74.33958036167968 0 0 -1 I I #
point $-1 -5.0148309366804398 38.450314314429271 10.576388682130876 #
straight-curve $-1 -6.6972803240502614 38.450314314429271 7.5206646404916526 -1 0 0 I I #
point $-1 -5.0148309366804398 38.450314314429271 7.5206646404916526 #
point $-1 -16.985873381566272 35.695269994524558 7.8400386983370272 #
point $-1 -9.8032479146347669 35.695269994524558 7.8400386983370272 #
point $-1 -66.252021851252778 -38.450314314429271 10.576388682130876 #
straight-curve $-1 -66.252021851252778 -38.450314314429271 0 0 0 -1 I I #
point $-1 -66.252021851252778 -38.450314314429271 -10.576388682130876 #
point $-1 66.252021851252778 -38.450314314429271 10.576388682130876 #
straight-curve $-1 66.252021851252778 -38.450314314429271 0 0 0 -1 I I #
point $-1 66.252021851252778 -38.450314314429271 -10.576388682130876 #
End-of-ACIS-data 