500 0 8 0           
7 Unknown 11 ACIS 5.0 NT 24 Thu Mar 25 16:15:50 1999 
-1 9.9999999999999995e-007 1e-010 
body $-1 $8 $-1 $9 #
body $-1 $10 $-1 $11 #
body $-1 $12 $-1 $13 #
body $-1 $14 $-1 $15 #
body $-1 $16 $-1 $17 #
body $-1 $18 $-1 $19 #
body $-1 $20 $-1 $21 #
body $-1 $22 $-1 $23 #
lump $-1 $-1 $24 $0 #
transform $-1 1 0 0 0 1 0 0 0 1 74.847254860072638 31.57600718888559 6.5060046673495338 1 rotate no_reflect no_shear #
lump $-1 $-1 $25 $1 #
transform $-1 1 0 0 0 1 0 0 0 1 74.847254860072638 31.57600718888559 6.5060046673495338 1 rotate no_reflect no_shear #
lump $-1 $-1 $26 $2 #
transform $-1 1 0 0 0 1 0 0 0 1 74.847254860072638 31.57600718888559 6.5060046673495338 1 rotate no_reflect no_shear #
lump $-1 $-1 $27 $3 #
transform $-1 1 0 0 0 1 0 0 0 1 74.847254860072638 31.57600718888559 6.5060046673495338 1 rotate no_reflect no_shear #
lump $-1 $-1 $28 $4 #
transform $-1 1 0 0 0 1 0 0 0 1 74.847254860072638 31.57600718888559 6.5060046673495338 1 rotate no_reflect no_shear #
lump $-1 $-1 $29 $5 #
transform $-1 1 0 0 0 1 0 0 0 1 74.847254860072638 31.57600718888559 6.5060046673495338 1 rotate no_reflect no_shear #
lump $-1 $-1 $30 $6 #
transform $-1 1 0 0 0 1 0 0 0 1 74.847254860072638 31.57600718888559 6.5060046673495338 1 rotate no_reflect no_shear #
lump $-1 $-1 $31 $7 #
transform $-1 1 0 0 0 1 0 0 0 1 74.847254860072638 31.57600718888559 6.5060046673495338 1 rotate no_reflect no_shear #
shell $-1 $-1 $-1 $32 $-1 $8 #
shell $-1 $-1 $-1 $33 $-1 $10 #
shell $-1 $-1 $-1 $34 $-1 $12 #
shell $-1 $-1 $-1 $35 $-1 $14 #
shell $-1 $-1 $-1 $36 $-1 $16 #
shell $-1 $-1 $-1 $37 $-1 $18 #
shell $-1 $-1 $-1 $38 $-1 $20 #
shell $-1 $-1 $-1 $39 $-1 $22 #
face $-1 $40 $41 $24 $-1 $42 reversed single #
face $-1 $43 $44 $25 $-1 $45 forward single #
face $-1 $46 $47 $26 $-1 $48 reversed single #
face $-1 $49 $50 $27 $-1 $51 forward single #
face $-1 $52 $53 $28 $-1 $54 forward single #
face $-1 $55 $56 $29 $-1 $57 reversed single #
face $-1 $58 $59 $30 $-1 $60 forward single #
face $-1 $61 $62 $31 $-1 $63 forward single #
face $-1 $64 $65 $24 $-1 $66 forward single #
loop $-1 $-1 $67 $32 #
plane-surface $-1 -74.847254860072638 0 0 1 0 0 0 0 -1 forward_v I I I I #
face $-1 $68 $69 $25 $-1 $70 reversed single #
loop $-1 $-1 $71 $33 #
plane-surface $-1 -74.847254860072638 0 0 1 0 0 0 0 -1 forward_v I I I I #
face $-1 $72 $73 $26 $-1 $74 reversed single #
loop $-1 $-1 $75 $34 #
plane-surface $-1 58.71980358303162 73.972684986415402 158.58681830973919 1 0 0 0 -0.61566148304635926 -0.78801074757464917 forward_v I I I I #
face $-1 $76 $77 $27 $-1 $78 forward single #
loop $-1 $79 $80 $35 #
cone-surface $-1 63.327646805043344 27.036901919687324 2.2153570585642042 0 -0.61566148304635926 -0.78801074757464917 1.5 0 0 1 I I 0 1 1.5 forward I I I I #
face $-1 $81 $82 $28 $-1 $83 forward single #
loop $-1 $84 $85 $36 #
cone-surface $-1 70.239411638060915 27.036901919687324 2.2153570585642042 0 -0.61566148304635926 -0.78801074757464917 1.5 0 0 1 I I 0 1 1.5 forward I I I I #
face $-1 $86 $87 $29 $-1 $88 reversed single #
loop $-1 $-1 $89 $37 #
plane-surface $-1 66.783529221552129 -31.576007188885598 1.7456729681633334 0 -0.61566148304635926 0.78801074757464917 1 0 0 forward_v I I I I #
face $-1 $90 $91 $30 $-1 $92 forward single #
loop $-1 $93 $94 $38 #
cone-surface $-1 63.327646805043344 -27.03690191968732 2.2153570585642077 0 0.61566148304635926 -0.78801074757464917 1.5 0 0 1 I I 0 1 1.5 forward I I I I #
face $-1 $95 $96 $31 $-1 $97 forward single #
loop $-1 $98 $99 $39 #
cone-surface $-1 70.239411638060915 -27.03690191968732 2.2153570585642077 0 0.61566148304635926 -0.78801074757464917 1.5 0 0 1 I I 0 1 1.5 forward I I I I #
face $-1 $100 $101 $24 $-1 $102 reversed single #
loop $-1 $-1 $103 $40 #
plane-surface $-1 0 0 6.5060046673495338 0 0 1 1 0 0 forward_v I I I I #
coedge $-1 $104 $105 $106 $107 reversed $41 $-1 #
face $-1 $108 $109 $25 $-1 $110 reversed single #
loop $-1 $-1 $111 $43 #
plane-surface $-1 0 0 -6.5060046673495338 0 0 1 1 0 0 forward_v I I I I #
coedge $-1 $112 $113 $114 $115 forward $44 $-1 #
face $-1 $116 $117 $26 $-1 $118 forward single #
loop $-1 $-1 $119 $46 #
plane-surface $-1 66.783529221552129 -18.188458871786878 40.625935797346926 0 0.61566148304635926 0.78801074757464917 1 0 0 forward_v I I I I #
coedge $-1 $120 $121 $122 $123 reversed $47 $-1 #
face $-1 $-1 $124 $27 $-1 $125 forward single #
loop $-1 $126 $127 $49 #
cone-surface $-1 63.327646805043344 25.082523839098243 -0.28613276130900278 0 -0.61566148304635926 -0.78801074757464917 0.75 0 0 1 I I -0.70710678118654757 0.70710678118654757 0.75 forward I I I I #
loop $-1 $-1 $128 $35 #
coedge $-1 $80 $80 $129 $130 reversed $50 $-1 #
face $-1 $-1 $131 $28 $-1 $132 forward single #
loop $-1 $133 $134 $52 #
cone-surface $-1 70.239411638060915 25.082523839098243 -0.28613276130900278 0 -0.61566148304635926 -0.78801074757464917 0.75 0 0 1 I I -0.70710678118654757 0.70710678118654757 0.75 forward I I I I #
loop $-1 $-1 $135 $36 #
coedge $-1 $85 $85 $136 $137 reversed $53 $-1 #
face $-1 $138 $139 $29 $-1 $140 reversed single #
loop $-1 $-1 $141 $55 #
plane-surface $-1 58.71980358303162 -123.73715104708788 119.70655548055559 1 0 0 0 0.61566148304635926 -0.78801074757464917 forward_v I I I I #
coedge $-1 $142 $143 $144 $145 reversed $56 $-1 #
face $-1 $-1 $146 $30 $-1 $147 forward single #
loop $-1 $148 $149 $58 #
cone-surface $-1 63.327646805043344 -25.08252383909824 -0.28613276130899923 0 0.61566148304635926 -0.78801074757464917 0.75 0 0 1 I I -0.70710678118654757 0.70710678118654757 0.75 forward I I I I #
loop $-1 $-1 $150 $38 #
coedge $-1 $94 $94 $151 $152 reversed $59 $-1 #
face $-1 $-1 $153 $31 $-1 $154 forward single #
loop $-1 $155 $156 $61 #
cone-surface $-1 70.239411638060915 -25.08252383909824 -0.28613276130899923 0 0.61566148304635926 -0.78801074757464917 0.75 0 0 1 I I -0.70710678118654757 0.70710678118654757 0.75 forward I I I I #
loop $-1 $-1 $157 $39 #
coedge $-1 $99 $99 $158 $159 reversed $62 $-1 #
face $-1 $160 $161 $24 $-1 $162 reversed single #
loop $-1 $-1 $163 $64 #
plane-surface $-1 0 0 -6.5060046673495338 0 0 1 1 0 0 forward_v I I I I #
coedge $-1 $164 $165 $166 $167 forward $65 $-1 #
coedge $-1 $168 $67 $169 $170 reversed $41 $-1 #
coedge $-1 $67 $168 $171 $172 forward $41 $-1 #
coedge $-1 $173 $174 $67 $107 forward $101 $-1 #
edge $-1 $175 -31.57600718888559 $176 31.57600718888559 $67 $177 forward 7 unknown #
face $-1 $178 $179 $25 $-1 $180 reversed single #
loop $-1 $-1 $181 $68 #
plane-surface $-1 -78.983963516970945 -21.563997854186525 0 0 1 0 0 0 1 forward_v I I I I #
coedge $-1 $182 $183 $113 $184 forward $69 $-1 #
coedge $-1 $185 $71 $186 $187 reversed $44 $-1 #
coedge $-1 $71 $185 $111 $184 reversed $44 $-1 #
coedge $-1 $188 $189 $71 $115 reversed $190 $-1 #
edge $-1 $191 -6.5060046673495338 $192 6.5060046673495338 $114 $193 forward 7 unknown #
face $-1 $194 $195 $26 $-1 $196 reversed single #
loop $-1 $-1 $122 $72 #
plane-surface $-1 0 0 6.5060046673495338 0 0 1 1 0 0 forward_v I I I I #
coedge $-1 $197 $198 $199 $200 reversed $73 $-1 #
coedge $-1 $121 $75 $201 $202 reversed $47 $-1 #
coedge $-1 $75 $120 $197 $203 reversed $47 $-1 #
coedge $-1 $199 $204 $75 $123 forward $117 $-1 #
edge $-1 $205 5.4103353043221105 $206 11.503281906110047 $122 $207 forward 7 unknown #
loop $-1 $-1 $129 $76 #
plane-surface $-1 66.783529221552129 -18.188458871786878 40.625935797346926 0 0.61566148304635926 0.78801074757464917 1 0 0 forward_v I I I I #
loop $-1 $-1 $208 $49 #
coedge $-1 $127 $127 $128 $209 reversed $77 $-1 #
coedge $-1 $128 $128 $127 $209 forward $79 $-1 #
coedge $-1 $129 $129 $80 $130 forward $124 $-1 #
edge $-1 $210 -6.8542942641746076e-016 $210 6.2831853071795996 $129 $211 forward 7 unknown #
loop $-1 $-1 $136 $81 #
plane-surface $-1 66.783529221552129 -18.188458871786878 40.625935797346926 0 0.61566148304635926 0.78801074757464917 1 0 0 forward_v I I I I #
loop $-1 $-1 $212 $52 #
coedge $-1 $134 $134 $135 $213 reversed $82 $-1 #
coedge $-1 $135 $135 $134 $213 forward $84 $-1 #
coedge $-1 $136 $136 $85 $137 forward $131 $-1 #
edge $-1 $214 -6.8542942641746076e-016 $214 6.2831853071795996 $136 $215 forward 7 unknown #
face $-1 $216 $217 $29 $-1 $218 forward single #
loop $-1 $-1 $219 $86 #
plane-surface $-1 74.847254860072638 0 0 -1 0 0 0 0 1 forward_v I I I I #
coedge $-1 $220 $221 $222 $223 reversed $87 $-1 #
coedge $-1 $224 $89 $219 $225 reversed $56 $-1 #
coedge $-1 $89 $224 $220 $226 forward $56 $-1 #
coedge $-1 $222 $227 $89 $145 forward $217 $-1 #
edge $-1 $228 -41.455490249296574 $229 -25.328038972255555 $144 $230 forward 7 unknown #
loop $-1 $-1 $151 $90 #
plane-surface $-1 66.783529221552129 -31.576007188885598 1.7456729681633334 0 -0.61566148304635926 0.78801074757464917 1 0 0 forward_v I I I I #
loop $-1 $-1 $231 $58 #
coedge $-1 $149 $149 $150 $232 reversed $91 $-1 #
coedge $-1 $150 $150 $149 $232 forward $93 $-1 #
coedge $-1 $151 $151 $94 $152 forward $146 $-1 #
edge $-1 $233 1.5891600079632903e-015 $233 6.2831853071796022 $151 $234 forward 7 unknown #
loop $-1 $-1 $158 $95 #
plane-surface $-1 66.783529221552129 -31.576007188885598 1.7456729681633334 0 -0.61566148304635926 0.78801074757464917 1 0 0 forward_v I I I I #
loop $-1 $-1 $235 $61 #
coedge $-1 $156 $156 $157 $236 reversed $96 $-1 #
coedge $-1 $157 $157 $156 $236 forward $98 $-1 #
coedge $-1 $158 $158 $99 $159 forward $153 $-1 #
edge $-1 $237 1.5891600079632903e-015 $237 6.2831853071796022 $158 $238 forward 7 unknown #
face $-1 $239 $240 $24 $-1 $241 reversed single #
loop $-1 $-1 $169 $100 #
plane-surface $-1 0 -31.57600718888559 0 0 1 0 0 0 1 forward_v I I I I #
coedge $-1 $174 $173 $242 $243 forward $101 $-1 #
coedge $-1 $244 $103 $245 $246 forward $65 $-1 #
coedge $-1 $103 $244 $247 $248 forward $65 $-1 #
coedge $-1 $249 $250 $103 $167 reversed $251 $-1 #
edge $-1 $252 -31.57600718888559 $253 31.57600718888559 $166 $254 forward 7 unknown #
coedge $-1 $105 $104 $244 $255 reversed $41 $-1 #
coedge $-1 $256 $247 $104 $170 forward $161 $-1 #
edge $-1 $257 -6.5060046673495338 $175 6.5060046673495338 $104 $258 forward 7 unknown #
coedge $-1 $245 $259 $105 $172 reversed $240 $-1 #
edge $-1 $260 -6.5060046673495338 $176 6.5060046673495338 $171 $261 forward 7 unknown #
coedge $-1 $163 $106 $259 $262 forward $101 $-1 #
coedge $-1 $106 $163 $256 $263 forward $101 $-1 #
vertex $-1 $107 $264 #
vertex $-1 $262 $265 #
straight-curve $-1 -74.847254860072638 0 -6.5060046673495338 0 1 0 I I #
face $-1 $266 $190 $25 $-1 $267 reversed single #
loop $-1 $-1 $268 $108 #
plane-surface $-1 -83.120672173869252 -20.063997854186525 0 1 0 0 0 0 -1 forward_v I I I I #
coedge $-1 $269 $270 $271 $272 forward $109 $-1 #
coedge $-1 $273 $111 $269 $274 forward $69 $-1 #
coedge $-1 $111 $273 $188 $275 forward $69 $-1 #
edge $-1 $191 18.563997854186525 $276 21.563997854186525 $111 $277 forward 7 unknown #
coedge $-1 $113 $112 $278 $279 forward $44 $-1 #
coedge $-1 $280 $281 $112 $187 forward $282 $-1 #
edge $-1 $283 -21.563997854186525 $192 -18.563997854186525 $186 $284 forward 7 unknown #
coedge $-1 $285 $114 $183 $275 reversed $190 $-1 #
coedge $-1 $114 $285 $280 $286 reversed $190 $-1 #
loop $-1 $-1 $114 $178 #
vertex $-1 $184 $287 #
vertex $-1 $286 $288 #
straight-curve $-1 -74.847254860072638 -18.563997854186525 0 0 0 1 I I #
face $-1 $-1 $289 $26 $-1 $290 reversed single #
loop $-1 $-1 $201 $116 #
plane-surface $-1 0 31.57600718888559 0 0 -1 0 0 0 -1 forward_v I I I I #
coedge $-1 $291 $119 $121 $203 forward $73 $-1 #
coedge $-1 $119 $291 $292 $293 reversed $73 $-1 #
coedge $-1 $294 $122 $119 $200 forward $117 $-1 #
edge $-1 $206 25.328038972255555 $295 41.455490249296574 $199 $296 forward 7 unknown #
coedge $-1 $297 $298 $120 $202 forward $195 $-1 #
edge $-1 $299 -77.547736186706288 $205 -72.787404487520064 $201 $300 forward 7 unknown #
edge $-1 $206 55.419954097450272 $299 63.152014377771188 $121 $301 forward 7 unknown #
coedge $-1 $122 $294 $297 $302 forward $117 $-1 #
vertex $-1 $123 $303 #
vertex $-1 $123 $304 #
straight-curve $-1 58.71980358303162 36.986342493207701 6.5060046673495293 0 -1 0 I I #
coedge $-1 $208 $208 $-1 $305 reversed $126 $-1 #
edge $-1 $306 0 $306 6.2831853071796004 $127 $307 forward 7 unknown #
vertex $-1 $130 $308 #
ellipse-curve $-1 63.327646805043344 28.529533887991629 4.125838817756418 0 0.61566148304635926 0.78801074757464917 1.5 0 0 1 I I #
coedge $-1 $212 $212 $-1 $309 reversed $133 $-1 #
edge $-1 $310 0 $310 6.2831853071796004 $134 $311 forward 7 unknown #
vertex $-1 $137 $312 #
ellipse-curve $-1 70.239411638060915 28.529533887991629 4.125838817756418 0 0.61566148304635926 0.78801074757464917 1.5 0 0 1 I I #
face $-1 $-1 $313 $29 $-1 $314 reversed single #
loop $-1 $-1 $144 $138 #
plane-surface $-1 0 0 6.5060046673495338 0 0 1 1 0 0 forward_v I I I I #
coedge $-1 $315 $316 $142 $225 forward $139 $-1 #
coedge $-1 $221 $141 $143 $226 reversed $87 $-1 #
coedge $-1 $141 $220 $317 $318 reversed $87 $-1 #
coedge $-1 $319 $144 $141 $223 forward $217 $-1 #
edge $-1 $229 -36.385514936446249 $320 -30.292568334658348 $222 $321 forward 7 unknown #
coedge $-1 $143 $142 $322 $323 reversed $56 $-1 #
edge $-1 $324 -11.903744710921419 $228 -4.1716844306005498 $219 $325 forward 7 unknown #
edge $-1 $326 9.0167608931652224e-015 $229 7.7320602803208782 $220 $327 forward 7 unknown #
coedge $-1 $144 $319 $315 $328 forward $217 $-1 #
vertex $-1 $145 $329 #
vertex $-1 $145 $330 #
straight-curve $-1 33.391764610776065 -25.48306058709769 6.5060046673495329 -1 0 0 I I #
coedge $-1 $231 $231 $-1 $331 reversed $148 $-1 #
edge $-1 $332 0 $332 6.2831853071796004 $149 $333 forward 7 unknown #
vertex $-1 $152 $334 #
ellipse-curve $-1 63.327646805043344 -28.52953388799164 4.1258388177564376 0 -0.61566148304635926 0.78801074757464917 1.5 0 0 1 I I #
coedge $-1 $235 $235 $-1 $335 reversed $155 $-1 #
edge $-1 $336 0 $336 6.2831853071796004 $156 $337 forward 7 unknown #
vertex $-1 $159 $338 #
ellipse-curve $-1 70.239411638060915 -28.52953388799164 4.1258388177564376 0 -0.61566148304635926 0.78801074757464917 1.5 0 0 1 I I #
face $-1 $-1 $251 $24 $-1 $339 reversed single #
loop $-1 $-1 $340 $160 #
plane-surface $-1 0 31.57600718888559 0 0 -1 0 0 0 -1 forward_v I I I I #
coedge $-1 $250 $249 $163 $243 reversed $251 $-1 #
edge $-1 $341 -31.57600718888559 $342 31.57600718888559 $242 $343 forward 7 unknown #
coedge $-1 $165 $164 $168 $255 forward $65 $-1 #
coedge $-1 $340 $171 $164 $246 reversed $240 $-1 #
edge $-1 $253 -74.847254860072638 $260 74.847254860072638 $245 $344 forward 7 unknown #
coedge $-1 $169 $345 $165 $248 reversed $161 $-1 #
edge $-1 $257 -74.847254860072638 $252 74.847254860072638 $247 $346 forward 7 unknown #
coedge $-1 $242 $166 $345 $347 forward $251 $-1 #
coedge $-1 $166 $242 $340 $348 reversed $251 $-1 #
loop $-1 $-1 $249 $239 #
vertex $-1 $167 $349 #
vertex $-1 $167 $350 #
straight-curve $-1 74.847254860072638 0 6.5060046673495338 0 1 0 I I #
edge $-1 $260 -31.57600718888559 $257 31.57600718888559 $168 $351 forward 7 unknown #
coedge $-1 $345 $169 $174 $263 reversed $161 $-1 #
vertex $-1 $255 $352 #
straight-curve $-1 -74.847254860072638 -31.57600718888559 0 0 0 -1 I I #
coedge $-1 $171 $340 $173 $262 reversed $240 $-1 #
vertex $-1 $246 $353 #
straight-curve $-1 -74.847254860072638 31.57600718888559 0 0 0 -1 I I #
edge $-1 $176 -74.847254860072638 $341 74.847254860072638 $259 $354 forward 7 unknown #
edge $-1 $342 -74.847254860072638 $175 74.847254860072638 $256 $355 forward 7 unknown #
point $-1 -74.847254860072638 -31.57600718888559 -6.5060046673495338 #
point $-1 -74.847254860072638 31.57600718888559 -6.5060046673495338 #
face $-1 $-1 $282 $25 $-1 $356 forward single #
plane-surface $-1 -78.983963516970945 -18.563997854186525 0 0 -1 0 0 0 -1 forward_v I I I I #
coedge $-1 $357 $358 $285 $359 forward $179 $-1 #
coedge $-1 $278 $181 $182 $274 reversed $109 $-1 #
coedge $-1 $181 $278 $281 $360 reversed $109 $-1 #
coedge $-1 $358 $357 $181 $272 reversed $179 $-1 #
edge $-1 $361 -6.5060046673495338 $362 6.5060046673495338 $271 $363 forward 7 unknown #
coedge $-1 $183 $182 $357 $364 forward $69 $-1 #
edge $-1 $276 -4.1367086568983069 $362 4.1367086568983069 $269 $365 forward 7 unknown #
edge $-1 $366 -4.1367086568983069 $191 4.1367086568983069 $188 $367 forward 7 unknown #
vertex $-1 $274 $368 #
straight-curve $-1 -74.847254860072638 0 -6.5060046673495338 0 -1 0 I I #
coedge $-1 $270 $269 $185 $279 reversed $109 $-1 #
edge $-1 $283 -6.5060046673495338 $276 6.5060046673495338 $278 $369 forward 7 unknown #
coedge $-1 $370 $186 $189 $286 forward $282 $-1 #
coedge $-1 $186 $370 $270 $360 forward $282 $-1 #
loop $-1 $-1 $186 $266 #
vertex $-1 $187 $371 #
straight-curve $-1 -74.847254860072638 0 6.5060046673495338 0 1 0 I I #
coedge $-1 $189 $188 $268 $359 reversed $190 $-1 #
edge $-1 $192 -4.1367086568983069 $372 4.1367086568983069 $189 $373 forward 7 unknown #
point $-1 -74.847254860072638 -18.563997854186525 -6.5060046673495338 #
point $-1 -74.847254860072638 -18.563997854186525 6.5060046673495338 #
loop $-1 $-1 $292 $194 #
plane-surface $-1 74.847254860072638 0 0 -1 0 0 0 0 1 forward_v I I I I #
coedge $-1 $198 $197 $298 $374 reversed $73 $-1 #
coedge $-1 $375 $376 $198 $293 forward $289 $-1 #
edge $-1 $295 35.747691619486112 $377 43.479751899807027 $292 $378 forward 7 unknown #
coedge $-1 $204 $199 $376 $379 forward $117 $-1 #
vertex $-1 $379 $380 #
straight-curve $-1 33.391764610776065 25.483060587097654 6.5060046673495293 1 0 0 I I #
coedge $-1 $381 $201 $204 $302 reversed $195 $-1 #
coedge $-1 $201 $381 $291 $374 forward $195 $-1 #
vertex $-1 $202 $382 #
straight-curve $-1 58.71980358303162 31.57600718888559 79.293409154869593 0 0 1 I I #
straight-curve $-1 58.71980358303162 -18.188458871786878 40.625935797346926 0 0.78801074757464917 -0.61566148304635926 I I #
edge $-1 $383 -74.847254860072638 $205 -58.71980358303162 $297 $384 forward 7 unknown #
point $-1 58.71980358303162 31.57600718888559 6.5060046673495338 #
point $-1 58.71980358303162 25.483060587097654 6.5060046673495364 #
edge $-1 $385 1 $385 0 $208 $-1 forward 7 unknown #
vertex $-1 $209 $386 #
ellipse-curve $-1 63.327646805043344 25.544269951383011 0.3048752993719841 0 0.61566148304635926 0.78801074757464917 1.5 0 0 1 I I #
point $-1 64.827646805043344 28.529533887991633 4.1258388177564242 #
edge $-1 $387 1 $387 0 $212 $-1 forward 7 unknown #
vertex $-1 $213 $388 #
ellipse-curve $-1 70.239411638060915 25.544269951383011 0.3048752993719841 0 0.61566148304635926 0.78801074757464917 1.5 0 0 1 I I #
point $-1 71.739411638060915 28.529533887991633 4.1258388177564242 #
loop $-1 $-1 $322 $216 #
plane-surface $-1 0 -31.57600718888559 0 0 1 0 0 0 1 forward_v I I I I #
coedge $-1 $316 $219 $227 $328 reversed $139 $-1 #
coedge $-1 $219 $315 $389 $390 forward $139 $-1 #
coedge $-1 $322 $391 $221 $318 forward $313 $-1 #
edge $-1 $320 53.34727307292826 $326 58.107604772114456 $317 $392 forward 7 unknown #
coedge $-1 $227 $222 $391 $393 forward $217 $-1 #
vertex $-1 $393 $394 #
straight-curve $-1 58.71980358303162 -61.868575523543939 6.5060046673495364 0 -1 0 I I #
coedge $-1 $389 $317 $224 $323 forward $313 $-1 #
edge $-1 $326 25.328038972255555 $324 41.455490249296574 $322 $395 forward 7 unknown #
vertex $-1 $323 $396 #
straight-curve $-1 74.847254860072638 -22.195728420294625 9.074350090694475 0 0.78801074757464917 0.61566148304635926 I I #
vertex $-1 $323 $397 #
straight-curve $-1 58.71980358303162 -31.576007188885598 1.7456729681633334 0 0.78801074757464917 0.61566148304635926 I I #
edge $-1 $398 -31.57600718888559 $228 -25.48306058709769 $315 $399 forward 7 unknown #
point $-1 74.847254860072638 -25.48306058709769 6.5060046673495338 #
point $-1 58.71980358303162 -25.48306058709769 6.5060046673495338 #
edge $-1 $400 1 $400 0 $231 $-1 forward 7 unknown #
vertex $-1 $232 $401 #
ellipse-curve $-1 63.327646805043344 -25.544269951383008 0.30487529937198765 0 -0.61566148304635926 0.78801074757464917 1.5 0 0 1 I I #
point $-1 64.827646805043344 -28.529533887991629 4.1258388177564278 #
edge $-1 $402 1 $402 0 $235 $-1 forward 7 unknown #
vertex $-1 $236 $403 #
ellipse-curve $-1 70.239411638060915 -25.544269951383008 0.30487529937198765 0 -0.61566148304635926 0.78801074757464917 1.5 0 0 1 I I #
point $-1 71.739411638060915 -28.529533887991629 4.1258388177564278 #
plane-surface $-1 74.847254860072638 0 0 -1 0 0 0 0 1 forward_v I I I I #
coedge $-1 $259 $245 $250 $348 forward $240 $-1 #
vertex $-1 $243 $404 #
vertex $-1 $347 $405 #
straight-curve $-1 74.847254860072638 0 -6.5060046673495338 0 -1 0 I I #
straight-curve $-1 0 31.57600718888559 6.5060046673495338 -1 0 0 I I #
coedge $-1 $247 $256 $249 $347 reversed $161 $-1 #
straight-curve $-1 0 -31.57600718888559 6.5060046673495338 1 0 0 I I #
edge $-1 $252 -6.5060046673495338 $342 6.5060046673495338 $249 $406 forward 7 unknown #
edge $-1 $253 -6.5060046673495338 $341 6.5060046673495338 $250 $407 forward 7 unknown #
point $-1 74.847254860072638 -31.57600718888559 6.5060046673495338 #
point $-1 74.847254860072638 31.57600718888559 6.5060046673495338 #
straight-curve $-1 -74.847254860072638 0 6.5060046673495338 0 -1 0 I I #
point $-1 -74.847254860072638 -31.57600718888559 6.5060046673495338 #
point $-1 -74.847254860072638 31.57600718888559 6.5060046673495338 #
straight-curve $-1 0 31.57600718888559 -6.5060046673495338 1 0 0 I I #
straight-curve $-1 0 -31.57600718888559 -6.5060046673495338 -1 0 0 I I #
plane-surface $-1 0 0 6.5060046673495338 0 0 1 1 0 0 forward_v I I I I #
coedge $-1 $271 $268 $273 $364 reversed $179 $-1 #
coedge $-1 $268 $271 $370 $408 reversed $179 $-1 #
edge $-1 $372 -6.5060046673495338 $366 6.5060046673495338 $285 $409 forward 7 unknown #
edge $-1 $361 -4.1367086568983069 $283 4.1367086568983069 $270 $410 forward 7 unknown #
vertex $-1 $408 $411 #
vertex $-1 $364 $412 #
straight-curve $-1 -83.120672173869252 -21.563997854186525 0 0 0 -1 I I #
edge $-1 $362 -1.5 $366 1.5 $357 $413 forward 7 unknown #
straight-curve $-1 -78.983963516970945 -21.563997854186525 -6.5060046673495338 -1 0 0 I I #
vertex $-1 $275 $414 #
straight-curve $-1 -78.983963516970945 -18.563997854186525 -6.5060046673495338 1 0 0 I I #
point $-1 -74.847254860072638 -21.563997854186525 -6.5060046673495338 #
straight-curve $-1 -74.847254860072638 -21.563997854186525 0 0 0 -1 I I #
coedge $-1 $281 $280 $358 $408 forward $282 $-1 #
point $-1 -74.847254860072638 -21.563997854186525 6.5060046673495338 #
vertex $-1 $286 $415 #
straight-curve $-1 -78.983963516970945 -18.563997854186525 6.5060046673495338 -1 0 0 I I #
edge $-1 $377 -41.455490249296574 $299 -25.328038972255555 $298 $416 forward 7 unknown #
coedge $-1 $376 $292 $381 $417 reversed $289 $-1 #
coedge $-1 $292 $375 $294 $379 reversed $289 $-1 #
vertex $-1 $293 $418 #
straight-curve $-1 74.847254860072638 -2.6865046100416183 28.514481505286263 0 0.78801074757464917 -0.61566148304635926 I I #
edge $-1 $295 25.483060587097654 $383 31.57600718888559 $376 $419 forward 7 unknown #
point $-1 74.847254860072638 25.483060587097654 6.5060046673495364 #
coedge $-1 $298 $297 $375 $417 forward $195 $-1 #
point $-1 58.71980358303162 31.57600718888559 1.7456729681633121 #
vertex $-1 $379 $420 #
straight-curve $-1 0 31.57600718888559 6.5060046673495338 -1 0 0 I I #
vertex $-1 $305 $421 #
point $-1 64.827646805043344 25.544269951383011 0.3048752993719841 #
vertex $-1 $309 $422 #
point $-1 71.739411638060915 25.544269951383011 0.3048752993719841 #
coedge $-1 $391 $322 $316 $390 reversed $313 $-1 #
edge $-1 $398 -6.5060046673495338 $324 -1.7456729681633389 $316 $423 forward 7 unknown #
coedge $-1 $317 $389 $319 $393 reversed $313 $-1 #
straight-curve $-1 58.71980358303162 -31.57600718888559 59.853277740277797 0 0 -1 I I #
edge $-1 $320 58.71980358303162 $398 74.847254860072638 $391 $424 forward 7 unknown #
point $-1 58.71980358303162 -31.57600718888559 6.5060046673495338 #
straight-curve $-1 33.391764610776065 -31.57600718888559 1.7456729681633389 1 0 0 I I #
point $-1 74.847254860072638 -31.57600718888559 1.7456729681633389 #
point $-1 58.71980358303162 -31.57600718888559 1.7456729681633389 #
vertex $-1 $328 $425 #
straight-curve $-1 74.847254860072638 0 6.5060046673495338 0 1 0 I I #
vertex $-1 $331 $426 #
point $-1 64.827646805043344 -25.544269951383008 0.30487529937198765 #
vertex $-1 $335 $427 #
point $-1 71.739411638060915 -25.544269951383008 0.30487529937198765 #
point $-1 74.847254860072638 31.57600718888559 -6.5060046673495338 #
point $-1 74.847254860072638 -31.57600718888559 -6.5060046673495338 #
straight-curve $-1 74.847254860072638 -31.57600718888559 0 0 0 -1 I I #
straight-curve $-1 74.847254860072638 31.57600718888559 0 0 0 -1 I I #
edge $-1 $372 -1.5 $361 1.5 $358 $428 forward 7 unknown #
straight-curve $-1 -83.120672173869252 -18.563997854186525 0 0 0 -1 I I #
straight-curve $-1 -78.983963516970945 -21.563997854186525 6.5060046673495338 1 0 0 I I #
point $-1 -83.120672173869252 -21.563997854186525 6.5060046673495338 #
point $-1 -83.120672173869252 -21.563997854186525 -6.5060046673495338 #
straight-curve $-1 -83.120672173869252 -20.063997854186525 -6.5060046673495338 0 1 0 I I #
point $-1 -83.120672173869252 -18.563997854186525 -6.5060046673495338 #
point $-1 -83.120672173869252 -18.563997854186525 6.5060046673495338 #
straight-curve $-1 33.391764610776065 31.57600718888559 1.7456729681633085 -1 0 0 I I #
edge $-1 $383 -6.5060046673495338 $377 -1.7456729681633121 $375 $429 forward 7 unknown #
point $-1 74.847254860072638 31.57600718888559 1.7456729681633121 #
straight-curve $-1 74.847254860072638 0 6.5060046673495338 0 1 0 I I #
point $-1 74.847254860072638 31.57600718888559 6.5060046673495338 #
point $-1 63.327646805043344 24.620777726813476 -0.87714082198998966 #
point $-1 70.239411638060915 24.620777726813476 -0.87714082198998966 #
straight-curve $-1 74.847254860072638 -31.57600718888559 0 0 0 -1 I I #
straight-curve $-1 0 -31.57600718888559 6.5060046673495338 1 0 0 I I #
point $-1 74.847254860072638 -31.57600718888559 6.5060046673495338 #
point $-1 63.327646805043344 -24.620777726813472 -0.87714082198998611 #
point $-1 70.239411638060915 -24.620777726813472 -0.87714082198998611 #
straight-curve $-1 -83.120672173869252 -20.063997854186525 6.5060046673495338 0 -1 0 I I #
straight-curve $-1 74.847254860072638 31.57600718888559 0 0 0 -1 I I #
End-of-ACIS-data 