500 0 4 0           
7 Unknown 11 ACIS 5.0 NT 24 Thu Mar 25 15:45:24 1999 
-1 9.9999999999999995e-007 1e-010 
body $-1 $4 $-1 $5 #
body $-1 $6 $-1 $7 #
body $-1 $8 $-1 $9 #
body $-1 $10 $-1 $11 #
lump $-1 $-1 $12 $0 #
transform $-1 1 0 0 0 1 0 0 0 1 63.612781151768544 40.192320611077584 9.4861089107281593 1 rotate no_reflect no_shear #
lump $-1 $-1 $13 $1 #
transform $-1 1 0 0 0 1 0 0 0 1 63.612781151768544 40.192320611077584 9.4861089107281593 1 rotate no_reflect no_shear #
lump $-1 $-1 $14 $2 #
transform $-1 1 0 0 0 1 0 0 0 1 63.612781151768544 40.192320611077584 9.4861089107281593 1 rotate no_reflect no_shear #
lump $-1 $-1 $15 $3 #
transform $-1 1 0 0 0 1 0 0 0 1 63.612781151768544 40.192320611077584 9.4861089107281593 1 rotate no_reflect no_shear #
shell $-1 $-1 $-1 $16 $-1 $4 #
shell $-1 $-1 $-1 $17 $-1 $6 #
shell $-1 $-1 $-1 $18 $-1 $8 #
shell $-1 $-1 $-1 $19 $-1 $10 #
face $-1 $20 $21 $12 $-1 $22 forward single #
face $-1 $23 $24 $13 $-1 $25 forward single #
face $-1 $26 $27 $14 $-1 $28 reversed single #
face $-1 $29 $30 $15 $-1 $31 forward single #
face $-1 $32 $33 $12 $-1 $34 reversed single #
loop $-1 $-1 $35 $16 #
plane-surface $-1 0 0 9.4861089107281593 0 0 1 1 0 0 forward_v I I I I #
face $-1 $36 $37 $13 $-1 $38 reversed single #
loop $-1 $-1 $39 $17 #
plane-surface $-1 -58.532960710763618 0 -6.0275454562494151 0 0 1 1 0 0 forward_v I I I I #
face $-1 $40 $41 $14 $-1 $42 reversed single #
loop $-1 $-1 $43 $18 #
plane-surface $-1 7.8022473854853303 49.941090406202342 154.58283488860923 1 0 0 0 -0.5877852598018023 -0.80901698891910034 forward_v I I I I #
face $-1 $44 $45 $15 $-1 $46 forward single #
loop $-1 $47 $48 $19 #
cone-surface $-1 21.757661337348438 35.699662488271557 5.5742611469022645 0 -0.5877852598018023 -0.80901698891910034 1 0 0 1 I I 0 1 1 forward I I I I #
face $-1 $49 $50 $12 $-1 $51 reversed single #
loop $-1 $-1 $52 $20 #
plane-surface $-1 0 0 -9.4861089107281593 0 0 1 1 0 0 forward_v I I I I #
coedge $-1 $53 $54 $55 $56 forward $21 $-1 #
face $-1 $57 $58 $13 $-1 $59 reversed single #
loop $-1 $-1 $60 $23 #
plane-surface $-1 -53.453140269758691 0 -7.7568271834887872 -1 0 0 0 0 1 forward_v I I I I #
coedge $-1 $61 $62 $63 $64 forward $24 $-1 #
face $-1 $65 $66 $14 $-1 $67 reversed single #
loop $-1 $-1 $68 $26 #
plane-surface $-1 21.757661337348438 -24.840219785812586 51.655193560262262 0 0.5877852598018023 0.80901698891910034 1 0 0 forward_v I I I I #
coedge $-1 $69 $70 $71 $72 reversed $27 $-1 #
face $-1 $-1 $73 $15 $-1 $74 forward single #
loop $-1 $75 $76 $29 #
cone-surface $-1 21.757661337348438 34.408999643252493 3.7978161762693325 0 -0.5877852598018023 -0.80901698891910034 0.5 0 0 1 I I -0.70710678118654746 0.70710678118654746 0.5 forward I I I I #
loop $-1 $-1 $77 $19 #
coedge $-1 $48 $48 $78 $79 reversed $30 $-1 #
face $-1 $80 $81 $12 $-1 $82 reversed single #
loop $-1 $-1 $83 $32 #
plane-surface $-1 0 -40.192320611077584 0 0 1 0 0 0 1 forward_v I I I I #
coedge $-1 $84 $85 $86 $87 forward $33 $-1 #
coedge $-1 $88 $35 $89 $90 forward $21 $-1 #
coedge $-1 $35 $88 $91 $92 forward $21 $-1 #
coedge $-1 $93 $94 $35 $56 reversed $95 $-1 #
edge $-1 $96 -40.192320611077584 $97 40.192320611077584 $55 $98 forward 7 unknown #
face $-1 $99 $100 $13 $-1 $101 reversed single #
loop $-1 $-1 $102 $36 #
plane-surface $-1 0 0 -9.4861089107281593 0 0 1 1 0 0 forward_v I I I I #
coedge $-1 $103 $63 $104 $105 reversed $37 $-1 #
coedge $-1 $106 $39 $107 $108 reversed $24 $-1 #
coedge $-1 $39 $106 $109 $110 reversed $24 $-1 #
coedge $-1 $60 $111 $39 $64 reversed $37 $-1 #
edge $-1 $112 -40.192320611077584 $113 40.192320611077584 $63 $114 forward 7 unknown #
face $-1 $115 $116 $14 $-1 $117 reversed single #
loop $-1 $-1 $118 $40 #
plane-surface $-1 35.713075289211545 49.941090406202342 154.58283488860923 -1 0 0 0 0.5877852598018023 0.80901698891910034 forward_v I I I I #
coedge $-1 $119 $120 $121 $122 reversed $41 $-1 #
coedge $-1 $70 $43 $123 $124 reversed $27 $-1 #
coedge $-1 $43 $69 $119 $125 reversed $27 $-1 #
coedge $-1 $121 $126 $43 $72 forward $127 $-1 #
edge $-1 $128 -15.221775407976413 $129 -8.2299995926007163 $71 $130 forward 7 unknown #
loop $-1 $-1 $78 $44 #
plane-surface $-1 21.757661337348438 -24.840219785812586 51.655193560262262 0 0.5877852598018023 0.80901698891910034 1 0 0 forward_v I I I I #
loop $-1 $-1 $131 $29 #
coedge $-1 $76 $76 $77 $132 reversed $45 $-1 #
coedge $-1 $77 $77 $76 $132 forward $47 $-1 #
coedge $-1 $78 $78 $48 $79 forward $73 $-1 #
edge $-1 $133 -1.0498877972656314e-015 $133 6.2831853071795996 $78 $134 forward 7 unknown #
face $-1 $135 $136 $12 $-1 $137 reversed single #
loop $-1 $-1 $138 $49 #
plane-surface $-1 -63.612781151768544 0 0 1 0 0 0 0 -1 forward_v I I I I #
coedge $-1 $139 $91 $140 $141 forward $50 $-1 #
coedge $-1 $142 $52 $139 $143 forward $33 $-1 #
coedge $-1 $52 $142 $144 $145 forward $33 $-1 #
coedge $-1 $94 $93 $52 $87 reversed $95 $-1 #
edge $-1 $146 -40.192320611077584 $147 40.192320611077584 $86 $148 forward 7 unknown #
coedge $-1 $54 $53 $149 $150 forward $21 $-1 #
coedge $-1 $151 $152 $53 $90 reversed $136 $-1 #
edge $-1 $97 -63.612781151768544 $153 63.612781151768544 $89 $154 forward 7 unknown #
coedge $-1 $83 $155 $54 $92 reversed $50 $-1 #
edge $-1 $156 -63.612781151768544 $96 63.612781151768544 $91 $157 forward 7 unknown #
coedge $-1 $86 $55 $155 $158 forward $95 $-1 #
coedge $-1 $55 $86 $151 $159 reversed $95 $-1 #
loop $-1 $-1 $93 $135 #
vertex $-1 $56 $160 #
vertex $-1 $56 $161 #
straight-curve $-1 63.612781151768544 0 9.4861089107281593 0 1 0 I I #
face $-1 $162 $163 $13 $-1 $164 reversed single #
loop $-1 $-1 $104 $57 #
plane-surface $-1 0 -40.192320611077584 0 0 1 0 0 0 1 forward_v I I I I #
coedge $-1 $165 $166 $103 $167 forward $58 $-1 #
coedge $-1 $111 $60 $102 $167 reversed $37 $-1 #
coedge $-1 $109 $168 $60 $105 forward $100 $-1 #
edge $-1 $169 -5.6076953189837653 $112 -2.1491318645050215 $104 $170 forward 7 unknown #
coedge $-1 $62 $61 $171 $172 reversed $24 $-1 #
coedge $-1 $173 $174 $61 $108 forward $175 $-1 #
edge $-1 $176 -34.346300796386735 $113 -24.186659914376882 $107 $177 forward 7 unknown #
coedge $-1 $178 $104 $62 $110 forward $100 $-1 #
edge $-1 $112 24.186659914376882 $179 34.346300796386735 $109 $180 forward 7 unknown #
coedge $-1 $63 $103 $173 $181 reversed $37 $-1 #
vertex $-1 $110 $182 #
vertex $-1 $108 $183 #
straight-curve $-1 -53.453140269758691 0 -6.0275454562494151 0 1 0 I I #
face $-1 $-1 $127 $14 $-1 $184 forward single #
loop $-1 $-1 $185 $65 #
plane-surface $-1 0 40.192320611077584 0 0 -1 0 0 0 -1 forward_v I I I I #
coedge $-1 $186 $187 $188 $189 reversed $66 $-1 #
coedge $-1 $190 $68 $70 $125 forward $41 $-1 #
coedge $-1 $68 $190 $186 $191 forward $41 $-1 #
coedge $-1 $188 $71 $68 $122 forward $127 $-1 #
edge $-1 $129 -3.0765832831888886 $192 24.834244620537326 $121 $193 forward 7 unknown #
coedge $-1 $194 $195 $69 $124 forward $116 $-1 #
edge $-1 $196 -72.885131108881495 $128 -67.805308533576451 $123 $197 forward 7 unknown #
edge $-1 $129 71.742330972629787 $196 80.384641222155167 $70 $198 forward 7 unknown #
coedge $-1 $71 $188 $194 $199 forward $127 $-1 #
loop $-1 $-1 $188 $115 #
vertex $-1 $124 $200 #
vertex $-1 $72 $201 #
straight-curve $-1 7.8022473854853303 24.970545203101171 9.4861089107281629 0 -1 0 I I #
coedge $-1 $131 $131 $-1 $202 reversed $75 $-1 #
edge $-1 $203 0 $203 6.2831853071796004 $76 $204 forward 7 unknown #
vertex $-1 $79 $205 #
ellipse-curve $-1 21.757661337348438 36.696432703389725 6.946197623075653 0 0.5877852598018023 0.80901698891910034 1 0 0 1 I I #
face $-1 $-1 $95 $12 $-1 $206 reversed single #
loop $-1 $-1 $151 $80 #
plane-surface $-1 0 40.192320611077584 0 0 -1 0 0 0 -1 forward_v I I I I #
coedge $-1 $207 $149 $152 $208 forward $81 $-1 #
coedge $-1 $155 $83 $84 $143 reversed $50 $-1 #
coedge $-1 $149 $207 $83 $141 reversed $81 $-1 #
edge $-1 $156 -9.4861089107281593 $209 9.4861089107281593 $140 $210 forward 7 unknown #
coedge $-1 $85 $84 $207 $211 forward $33 $-1 #
edge $-1 $147 -63.612781151768544 $209 63.612781151768544 $139 $212 forward 7 unknown #
coedge $-1 $152 $151 $85 $145 reversed $136 $-1 #
edge $-1 $213 -63.612781151768544 $146 63.612781151768544 $144 $214 forward 7 unknown #
vertex $-1 $87 $215 #
vertex $-1 $158 $216 #
straight-curve $-1 63.612781151768544 0 -9.4861089107281593 0 -1 0 I I #
coedge $-1 $138 $140 $88 $150 reversed $81 $-1 #
edge $-1 $153 -40.192320611077584 $156 40.192320611077584 $149 $217 forward 7 unknown #
coedge $-1 $144 $89 $94 $159 forward $136 $-1 #
coedge $-1 $89 $144 $138 $208 reversed $136 $-1 #
vertex $-1 $90 $218 #
straight-curve $-1 0 40.192320611077584 9.4861089107281593 -1 0 0 I I #
coedge $-1 $91 $139 $93 $158 reversed $50 $-1 #
vertex $-1 $150 $219 #
straight-curve $-1 0 -40.192320611077584 9.4861089107281593 1 0 0 I I #
edge $-1 $96 -9.4861089107281593 $147 9.4861089107281593 $93 $220 forward 7 unknown #
edge $-1 $97 -9.4861089107281593 $146 9.4861089107281593 $94 $221 forward 7 unknown #
point $-1 63.612781151768544 -40.192320611077584 9.4861089107281593 #
point $-1 63.612781151768544 40.192320611077584 9.4861089107281593 #
face $-1 $-1 $175 $13 $-1 $222 reversed single #
loop $-1 $-1 $171 $99 #
plane-surface $-1 -63.612781151768544 0 0 1 0 0 0 0 -1 forward_v I I I I #
coedge $-1 $223 $102 $168 $224 forward $58 $-1 #
coedge $-1 $102 $223 $225 $226 forward $58 $-1 #
edge $-1 $227 -40.192320611077584 $169 40.192320611077584 $102 $228 forward 7 unknown #
coedge $-1 $104 $178 $165 $224 reversed $100 $-1 #
vertex $-1 $224 $229 #
straight-curve $-1 -53.453140269758691 -40.192320611077584 -3.8784135917443936 0 0 1 I I #
coedge $-1 $230 $231 $106 $172 forward $163 $-1 #
edge $-1 $179 -40.192320611077584 $176 40.192320611077584 $171 $232 forward 7 unknown #
coedge $-1 $225 $107 $111 $181 forward $175 $-1 #
coedge $-1 $107 $225 $230 $233 reversed $175 $-1 #
loop $-1 $-1 $173 $162 #
vertex $-1 $233 $234 #
straight-curve $-1 -29.266480355381809 40.192320611077584 -6.0275454562494151 1 0 0 I I #
coedge $-1 $168 $109 $231 $235 forward $100 $-1 #
vertex $-1 $235 $236 #
straight-curve $-1 -29.266480355381809 -40.192320611077584 -6.0275454562494151 -1 0 0 I I #
edge $-1 $113 2.1491318645050215 $227 5.6076953189837653 $173 $237 forward 7 unknown #
point $-1 -53.453140269758691 -40.192320611077584 -6.0275454562494151 #
point $-1 -53.453140269758691 40.192320611077584 -6.0275454562494151 #
plane-surface $-1 0 0 9.4861089107281593 0 0 1 1 0 0 forward_v I I I I #
coedge $-1 $195 $194 $187 $238 forward $116 $-1 #
coedge $-1 $187 $118 $120 $191 reversed $66 $-1 #
coedge $-1 $118 $186 $185 $238 reversed $66 $-1 #
coedge $-1 $126 $121 $118 $189 forward $127 $-1 #
edge $-1 $192 8.2299995926007163 $239 15.221775407976413 $188 $240 forward 7 unknown #
coedge $-1 $120 $119 $195 $241 reversed $41 $-1 #
edge $-1 $242 -80.384641222155167 $192 -71.742330972629787 $186 $243 forward 7 unknown #
vertex $-1 $122 $244 #
straight-curve $-1 10.878830668674219 33.200544795701894 9.4861089107281629 1 0 0 I I #
coedge $-1 $185 $123 $126 $199 reversed $116 $-1 #
coedge $-1 $123 $185 $190 $241 forward $116 $-1 #
vertex $-1 $124 $245 #
straight-curve $-1 7.8022473854853303 40.192320611077584 77.291417444304614 0 0 1 I I #
straight-curve $-1 7.8022473854853303 -24.840219785812586 51.655193560262262 0 0.80901698891910034 -0.5877852598018023 I I #
edge $-1 $239 -35.713075289211545 $128 -7.8022473854853303 $194 $246 forward 7 unknown #
point $-1 7.8022473854853303 40.192320611077584 9.4861089107281593 #
point $-1 7.8022473854853303 33.200544795701887 9.48610891072817 #
edge $-1 $247 1 $247 0 $131 $-1 forward 7 unknown #
vertex $-1 $132 $248 #
ellipse-curve $-1 21.757661337348438 34.702892273153395 4.202324670728883 0 0.5877852598018023 0.80901698891910034 1 0 0 1 I I #
point $-1 22.757661337348438 36.696432703389718 6.946197623075645 #
plane-surface $-1 63.612781151768544 0 0 -1 0 0 0 0 1 forward_v I I I I #
coedge $-1 $140 $138 $142 $211 reversed $81 $-1 #
edge $-1 $153 -9.4861089107281593 $213 9.4861089107281593 $152 $249 forward 7 unknown #
vertex $-1 $211 $250 #
straight-curve $-1 -63.612781151768544 -40.192320611077584 0 0 0 -1 I I #
edge $-1 $209 -40.192320611077584 $213 40.192320611077584 $207 $251 forward 7 unknown #
straight-curve $-1 0 -40.192320611077584 -9.4861089107281593 -1 0 0 I I #
vertex $-1 $145 $252 #
straight-curve $-1 0 40.192320611077584 -9.4861089107281593 1 0 0 I I #
point $-1 63.612781151768544 40.192320611077584 -9.4861089107281593 #
point $-1 63.612781151768544 -40.192320611077584 -9.4861089107281593 #
straight-curve $-1 -63.612781151768544 0 9.4861089107281593 0 -1 0 I I #
point $-1 -63.612781151768544 40.192320611077584 9.4861089107281593 #
point $-1 -63.612781151768544 -40.192320611077584 9.4861089107281593 #
straight-curve $-1 63.612781151768544 -40.192320611077584 0 0 0 -1 I I #
straight-curve $-1 63.612781151768544 40.192320611077584 0 0 0 -1 I I #
plane-surface $-1 0 40.192320611077584 0 0 -1 0 0 0 -1 forward_v I I I I #
coedge $-1 $166 $165 $253 $254 forward $58 $-1 #
edge $-1 $169 53.453140269758691 $255 63.612781151768544 $168 $256 forward 7 unknown #
coedge $-1 $174 $173 $166 $226 reversed $175 $-1 #
edge $-1 $257 -63.612781151768544 $227 -53.453140269758691 $225 $258 forward 7 unknown #
vertex $-1 $181 $259 #
straight-curve $-1 -53.453140269758691 0 -9.4861089107281593 0 -1 0 I I #
point $-1 -53.453140269758691 -40.192320611077584 -9.4861089107281593 #
coedge $-1 $253 $171 $174 $233 forward $163 $-1 #
coedge $-1 $171 $253 $178 $235 reversed $163 $-1 #
straight-curve $-1 -63.612781151768544 0 -6.0275454562494151 0 1 0 I I #
edge $-1 $176 6.0275454562494151 $257 9.4861089107281593 $174 $260 forward 7 unknown #
point $-1 -63.612781151768544 40.192320611077584 -6.0275454562494151 #
edge $-1 $179 6.0275454562494151 $255 9.4861089107281593 $231 $261 forward 7 unknown #
point $-1 -63.612781151768544 -40.192320611077584 -6.0275454562494151 #
straight-curve $-1 -53.453140269758691 40.192320611077584 -3.8784135917443936 0 0 -1 I I #
edge $-1 $239 67.805308533576451 $242 72.885131108881495 $185 $262 forward 7 unknown #
vertex $-1 $199 $263 #
straight-curve $-1 35.713075289211545 24.970545203101171 9.4861089107281629 0 1 0 I I #
edge $-1 $242 -24.834244620537326 $196 3.0765832831888886 $195 $264 forward 7 unknown #
vertex $-1 $241 $265 #
straight-curve $-1 35.713075289211545 -24.840219785812586 51.655193560262262 0 -0.80901698891910034 0.5877852598018023 I I #
point $-1 35.713075289211545 33.200544795701887 9.48610891072817 #
point $-1 7.8022473854853303 40.192320611077584 4.4062863354231112 #
straight-curve $-1 0 40.192320611077584 9.4861089107281593 -1 0 0 I I #
vertex $-1 $202 $266 #
point $-1 22.757661337348438 34.702892273153395 4.202324670728883 #
straight-curve $-1 -63.612781151768544 40.192320611077584 0 0 0 -1 I I #
point $-1 -63.612781151768544 -40.192320611077584 -9.4861089107281593 #
straight-curve $-1 -63.612781151768544 0 -9.4861089107281593 0 1 0 I I #
point $-1 -63.612781151768544 40.192320611077584 -9.4861089107281593 #
coedge $-1 $231 $230 $223 $254 reversed $163 $-1 #
edge $-1 $255 -40.192320611077584 $257 40.192320611077584 $253 $267 forward 7 unknown #
vertex $-1 $254 $268 #
straight-curve $-1 0 -40.192320611077584 -9.4861089107281593 -1 0 0 I I #
vertex $-1 $226 $269 #
straight-curve $-1 0 40.192320611077584 -9.4861089107281593 1 0 0 I I #
point $-1 -53.453140269758691 40.192320611077584 -9.4861089107281593 #
straight-curve $-1 -63.612781151768544 40.192320611077584 0 0 0 -1 I I #
straight-curve $-1 -63.612781151768544 -40.192320611077584 0 0 0 -1 I I #
straight-curve $-1 35.713075289211545 40.192320611077584 77.291417444304614 0 0 -1 I I #
point $-1 35.713075289211545 40.192320611077584 9.4861089107281593 #
straight-curve $-1 10.878830668674219 40.192320611077584 4.4062863354231183 -1 0 0 I I #
point $-1 35.713075289211545 40.192320611077584 4.4062863354231112 #
point $-1 21.757661337348438 34.11510701335159 3.3933076818097825 #
straight-curve $-1 -63.612781151768544 0 -9.4861089107281593 0 1 0 I I #
point $-1 -63.612781151768544 -40.192320611077584 -9.4861089107281593 #
point $-1 -63.612781151768544 40.192320611077584 -9.4861089107281593 #
End-of-ACIS-data 