500 0 15 0           
7 Unknown 11 ACIS 5.0 NT 24 Thu Mar 25 22:39:59 1999 
-1 9.9999999999999995e-007 1e-010 
body $-1 $15 $-1 $16 #
body $-1 $17 $-1 $18 #
body $-1 $19 $-1 $20 #
body $-1 $21 $-1 $22 #
body $-1 $23 $-1 $24 #
body $-1 $25 $-1 $26 #
body $-1 $27 $-1 $28 #
body $-1 $29 $-1 $30 #
body $-1 $31 $-1 $32 #
body $-1 $33 $-1 $34 #
body $-1 $35 $-1 $36 #
body $-1 $37 $-1 $38 #
body $-1 $39 $-1 $40 #
body $-1 $41 $-1 $42 #
body $-1 $43 $-1 $44 #
lump $-1 $-1 $45 $0 #
transform $-1 1 0 0 0 1 0 0 0 1 62.741172521134068 29.35586835148969 6.5293894507428822 1 rotate no_reflect no_shear #
lump $-1 $-1 $46 $1 #
transform $-1 1 0 0 0 1 0 0 0 1 62.741172521134068 29.35586835148969 6.5293894507428822 1 rotate no_reflect no_shear #
lump $-1 $-1 $47 $2 #
transform $-1 1 0 0 0 1 0 0 0 1 62.741172521134068 29.35586835148969 6.5293894507428822 1 rotate no_reflect no_shear #
lump $-1 $-1 $48 $3 #
transform $-1 1 0 0 0 1 0 0 0 1 62.741172521134068 29.35586835148969 6.5293894507428822 1 rotate no_reflect no_shear #
lump $-1 $-1 $49 $4 #
transform $-1 1 0 0 0 1 0 0 0 1 62.741172521134068 29.35586835148969 6.5293894507428822 1 rotate no_reflect no_shear #
lump $-1 $-1 $50 $5 #
transform $-1 1 0 0 0 1 0 0 0 1 62.741172521134068 29.35586835148969 6.5293894507428822 1 rotate no_reflect no_shear #
lump $-1 $-1 $51 $6 #
transform $-1 1 0 0 0 1 0 0 0 1 62.741172521134068 29.35586835148969 6.5293894507428822 1 rotate no_reflect no_shear #
lump $-1 $-1 $52 $7 #
transform $-1 1 0 0 0 1 0 0 0 1 62.741172521134068 29.35586835148969 6.5293894507428822 1 rotate no_reflect no_shear #
lump $-1 $-1 $53 $8 #
transform $-1 1 0 0 0 1 0 0 0 1 62.741172521134068 29.35586835148969 6.5293894507428822 1 rotate no_reflect no_shear #
lump $-1 $-1 $54 $9 #
transform $-1 1 0 0 0 1 0 0 0 1 62.741172521134068 29.35586835148969 6.5293894507428822 1 rotate no_reflect no_shear #
lump $-1 $-1 $55 $10 #
transform $-1 1 0 0 0 1 0 0 0 1 62.741172521134068 29.35586835148969 6.5293894507428822 1 rotate no_reflect no_shear #
lump $-1 $-1 $56 $11 #
transform $-1 1 0 0 0 1 0 0 0 1 62.741172521134068 29.35586835148969 6.5293894507428822 1 rotate no_reflect no_shear #
lump $-1 $-1 $57 $12 #
transform $-1 1 0 0 0 1 0 0 0 1 62.741172521134068 29.35586835148969 6.5293894507428822 1 rotate no_reflect no_shear #
lump $-1 $-1 $58 $13 #
transform $-1 1 0 0 0 1 0 0 0 1 62.741172521134068 29.35586835148969 6.5293894507428822 1 rotate no_reflect no_shear #
lump $-1 $-1 $59 $14 #
transform $-1 1 0 0 0 1 0 0 0 1 62.741172521134068 29.35586835148969 6.5293894507428822 1 rotate no_reflect no_shear #
shell $-1 $-1 $-1 $60 $-1 $15 #
shell $-1 $-1 $-1 $61 $-1 $17 #
shell $-1 $-1 $-1 $62 $-1 $19 #
shell $-1 $-1 $-1 $63 $-1 $21 #
shell $-1 $-1 $-1 $64 $-1 $23 #
shell $-1 $-1 $-1 $65 $-1 $25 #
shell $-1 $-1 $-1 $66 $-1 $27 #
shell $-1 $-1 $-1 $67 $-1 $29 #
shell $-1 $-1 $-1 $68 $-1 $31 #
shell $-1 $-1 $-1 $69 $-1 $33 #
shell $-1 $-1 $-1 $70 $-1 $35 #
shell $-1 $-1 $-1 $71 $-1 $37 #
shell $-1 $-1 $-1 $72 $-1 $39 #
shell $-1 $-1 $-1 $73 $-1 $41 #
shell $-1 $-1 $-1 $74 $-1 $43 #
face $-1 $75 $76 $45 $-1 $77 reversed single #
face $-1 $78 $79 $46 $-1 $80 forward single #
face $-1 $81 $82 $47 $-1 $83 forward single #
face $-1 $84 $85 $48 $-1 $86 reversed single #
face $-1 $87 $88 $49 $-1 $89 forward single #
face $-1 $90 $91 $50 $-1 $92 forward single #
face $-1 $93 $94 $51 $-1 $95 reversed single #
face $-1 $96 $97 $52 $-1 $98 forward single #
face $-1 $99 $100 $53 $-1 $101 forward single #
face $-1 $102 $103 $54 $-1 $104 reversed single #
face $-1 $105 $106 $55 $-1 $107 forward single #
face $-1 $108 $109 $56 $-1 $110 forward single #
face $-1 $111 $112 $57 $-1 $113 reversed single #
face $-1 $114 $115 $58 $-1 $116 forward single #
face $-1 $117 $118 $59 $-1 $119 forward single #
face $-1 $120 $121 $45 $-1 $122 forward single #
loop $-1 $-1 $123 $60 #
plane-surface $-1 0 29.35586835148969 0 0 -1 0 0 0 -1 forward_v I I I I #
face $-1 $124 $125 $46 $-1 $126 reversed single #
loop $-1 $-1 $127 $61 #
plane-surface $-1 0 -29.35586835148969 0 0 1 0 0 0 1 forward_v I I I I #
face $-1 $128 $129 $47 $-1 $130 reversed single #
loop $-1 $-1 $131 $62 #
plane-surface $-1 0 29.35586835148969 0 0 -1 0 0 0 -1 forward_v I I I I #
face $-1 $132 $133 $48 $-1 $134 reversed single #
loop $-1 $-1 $135 $63 #
plane-surface $-1 28.880432174370107 -11.282937609839085 174.29740294495582 0 -1 0 -0.55919291073839883 0 -0.82903756765294845 forward_v I I I I #
face $-1 $136 $137 $49 $-1 $138 forward single #
loop $-1 $139 $140 $64 #
cone-surface $-1 57.694844355697789 -16.39774218814286 2.8996694701748713 -0.55919291073839883 0 -0.82903756765294845 0.20725939191323711 0 -0.13979822768459971 1 I I 0 1 0.25 forward I I I I #
face $-1 $141 $142 $50 $-1 $143 forward single #
loop $-1 $144 $145 $65 #
cone-surface $-1 57.694844355697789 -13.328859441160596 2.8996694701748713 -0.55919291073839883 0 -0.82903756765294845 0.20725939191323711 0 -0.13979822768459971 1 I I 0 1 0.25 forward I I I I #
face $-1 $146 $147 $51 $-1 $148 reversed single #
loop $-1 $-1 $149 $66 #
plane-surface $-1 28.880432174370107 0.65015119647307706 174.29740294495582 0 -1 0 -0.55919291073839883 0 -0.82903756765294845 forward_v I I I I #
face $-1 $150 $151 $52 $-1 $152 forward single #
loop $-1 $153 $154 $67 #
cone-surface $-1 57.694844355697789 -4.464653381830697 2.8996694701748713 -0.55919291073839883 0 -0.82903756765294845 0.20725939191323711 0 -0.13979822768459971 1 I I 0 1 0.25 forward I I I I #
face $-1 $155 $156 $53 $-1 $157 forward single #
loop $-1 $158 $159 $68 #
cone-surface $-1 57.694844355697789 -1.3957706348484322 2.8996694701748713 -0.55919291073839883 0 -0.82903756765294845 0.20725939191323711 0 -0.13979822768459971 1 I I 0 1 0.25 forward I I I I #
face $-1 $160 $161 $54 $-1 $162 reversed single #
loop $-1 $-1 $163 $69 #
plane-surface $-1 28.880432174370107 12.58324000278524 174.29740294495582 0 -1 0 -0.55919291073839883 0 -0.82903756765294845 forward_v I I I I #
face $-1 $164 $165 $55 $-1 $166 forward single #
loop $-1 $167 $168 $70 #
cone-surface $-1 57.694844355697789 7.4684354244814699 2.8996694701748713 -0.55919291073839883 0 -0.82903756765294845 0.20725939191323711 0 -0.13979822768459971 1 I I 0 1 0.25 forward I I I I #
face $-1 $169 $170 $56 $-1 $171 forward single #
loop $-1 $172 $173 $71 #
cone-surface $-1 57.694844355697789 10.537318171463731 2.8996694701748713 -0.55919291073839883 0 -0.82903756765294845 0.20725939191323711 0 -0.13979822768459971 1 I I 0 1 0.25 forward I I I I #
face $-1 $174 $175 $57 $-1 $176 reversed single #
loop $-1 $-1 $177 $72 #
plane-surface $-1 28.880432174370107 24.516328809097402 174.29740294495582 0 -1 0 -0.55919291073839883 0 -0.82903756765294845 forward_v I I I I #
face $-1 $178 $179 $58 $-1 $180 forward single #
loop $-1 $181 $182 $73 #
cone-surface $-1 57.694844355697789 19.401524230793633 2.8996694701748713 -0.55919291073839883 0 -0.82903756765294845 0.20725939191323711 0 -0.13979822768459971 1 I I 0 1 0.25 forward I I I I #
face $-1 $183 $184 $59 $-1 $185 forward single #
loop $-1 $186 $187 $74 #
cone-surface $-1 57.694844355697789 22.470406977775895 2.8996694701748713 -0.55919291073839883 0 -0.82903756765294845 0.20725939191323711 0 -0.13979822768459971 1 I I 0 1 0.25 forward I I I I #
face $-1 $188 $189 $45 $-1 $190 reversed single #
loop $-1 $-1 $191 $75 #
plane-surface $-1 0 0 6.5293894507428822 0 0 1 1 0 0 forward_v I I I I #
coedge $-1 $192 $193 $194 $195 reversed $76 $-1 #
face $-1 $196 $197 $46 $-1 $198 forward single #
loop $-1 $-1 $199 $78 #
plane-surface $-1 -62.741172521134068 0 0 1 0 0 0 0 -1 forward_v I I I I #
coedge $-1 $200 $201 $202 $203 forward $79 $-1 #
face $-1 $204 $205 $47 $-1 $206 reversed single #
loop $-1 $-1 $207 $81 #
plane-surface $-1 0 0 -6.5293894507428822 0 0 1 1 0 0 forward_v I I I I #
coedge $-1 $208 $209 $210 $211 forward $82 $-1 #
face $-1 $212 $213 $48 $-1 $214 reversed single #
loop $-1 $-1 $215 $84 #
plane-surface $-1 -41.288405596095906 -14.863300814651728 70.267824827725818 0.55919291073839883 0 0.82903756765294845 0.82903756765294845 0 -0.55919291073839883 forward_v I I I I #
coedge $-1 $216 $217 $218 $219 reversed $85 $-1 #
face $-1 $-1 $220 $49 $-1 $221 forward single #
loop $-1 $222 $223 $87 #
cone-surface $-1 57.345348786486291 -16.39774218814286 2.3815209903917784 -0.55919291073839883 0 -0.82903756765294845 0.10362969595661856 0 -0.069899113842299854 1 I I -0.70710678118654746 0.70710678118654746 0.125 forward I I I I #
loop $-1 $-1 $224 $64 #
coedge $-1 $140 $140 $225 $226 reversed $88 $-1 #
face $-1 $-1 $227 $50 $-1 $228 forward single #
loop $-1 $229 $230 $90 #
cone-surface $-1 57.345348786486291 -13.328859441160596 2.3815209903917784 -0.55919291073839883 0 -0.82903756765294845 0.10362969595661856 0 -0.069899113842299854 1 I I -0.70710678118654746 0.70710678118654746 0.125 forward I I I I #
loop $-1 $-1 $231 $65 #
coedge $-1 $145 $145 $232 $233 reversed $91 $-1 #
face $-1 $234 $235 $51 $-1 $236 reversed single #
loop $-1 $-1 $237 $93 #
plane-surface $-1 -41.288405596095906 -2.9302120083395664 70.267824827725818 0.55919291073839883 0 0.82903756765294845 0.82903756765294845 0 -0.55919291073839883 forward_v I I I I #
coedge $-1 $238 $239 $240 $241 reversed $94 $-1 #
face $-1 $-1 $242 $52 $-1 $243 forward single #
loop $-1 $244 $245 $96 #
cone-surface $-1 57.345348786486291 -4.464653381830697 2.3815209903917784 -0.55919291073839883 0 -0.82903756765294845 0.10362969595661856 0 -0.069899113842299854 1 I I -0.70710678118654746 0.70710678118654746 0.125 forward I I I I #
loop $-1 $-1 $246 $67 #
coedge $-1 $154 $154 $247 $248 reversed $97 $-1 #
face $-1 $-1 $249 $53 $-1 $250 forward single #
loop $-1 $251 $252 $99 #
cone-surface $-1 57.345348786486291 -1.3957706348484322 2.3815209903917784 -0.55919291073839883 0 -0.82903756765294845 0.10362969595661856 0 -0.069899113842299854 1 I I -0.70710678118654746 0.70710678118654746 0.125 forward I I I I #
loop $-1 $-1 $253 $68 #
coedge $-1 $159 $159 $254 $255 reversed $100 $-1 #
face $-1 $256 $257 $54 $-1 $258 reversed single #
loop $-1 $-1 $259 $102 #
plane-surface $-1 -41.288405596095906 9.002876797972597 70.267824827725818 0.55919291073839883 0 0.82903756765294845 0.82903756765294845 0 -0.55919291073839883 forward_v I I I I #
coedge $-1 $260 $261 $262 $263 reversed $103 $-1 #
face $-1 $-1 $264 $55 $-1 $265 forward single #
loop $-1 $266 $267 $105 #
cone-surface $-1 57.345348786486291 7.4684354244814699 2.3815209903917784 -0.55919291073839883 0 -0.82903756765294845 0.10362969595661856 0 -0.069899113842299854 1 I I -0.70710678118654746 0.70710678118654746 0.125 forward I I I I #
loop $-1 $-1 $268 $70 #
coedge $-1 $168 $168 $269 $270 reversed $106 $-1 #
face $-1 $-1 $271 $56 $-1 $272 forward single #
loop $-1 $273 $274 $108 #
cone-surface $-1 57.345348786486291 10.537318171463731 2.3815209903917784 -0.55919291073839883 0 -0.82903756765294845 0.10362969595661856 0 -0.069899113842299854 1 I I -0.70710678118654746 0.70710678118654746 0.125 forward I I I I #
loop $-1 $-1 $275 $71 #
coedge $-1 $173 $173 $276 $277 reversed $109 $-1 #
face $-1 $278 $279 $57 $-1 $280 reversed single #
loop $-1 $-1 $281 $111 #
plane-surface $-1 -41.288405596095906 20.93596560428476 70.267824827725818 0.55919291073839883 0 0.82903756765294845 0.82903756765294845 0 -0.55919291073839883 forward_v I I I I #
coedge $-1 $282 $283 $284 $285 reversed $112 $-1 #
face $-1 $-1 $286 $58 $-1 $287 forward single #
loop $-1 $288 $289 $114 #
cone-surface $-1 57.345348786486291 19.401524230793633 2.3815209903917784 -0.55919291073839883 0 -0.82903756765294845 0.10362969595661856 0 -0.069899113842299854 1 I I -0.70710678118654746 0.70710678118654746 0.125 forward I I I I #
loop $-1 $-1 $290 $73 #
coedge $-1 $182 $182 $291 $292 reversed $115 $-1 #
face $-1 $-1 $293 $59 $-1 $294 forward single #
loop $-1 $295 $296 $117 #
cone-surface $-1 57.345348786486291 22.470406977775895 2.3815209903917784 -0.55919291073839883 0 -0.82903756765294845 0.10362969595661856 0 -0.069899113842299854 1 I I -0.70710678118654746 0.70710678118654746 0.125 forward I I I I #
loop $-1 $-1 $297 $74 #
coedge $-1 $187 $187 $298 $299 reversed $118 $-1 #
face $-1 $300 $301 $45 $-1 $302 reversed single #
loop $-1 $-1 $303 $120 #
plane-surface $-1 0 0 -6.5293894507428822 0 0 1 1 0 0 forward_v I I I I #
coedge $-1 $304 $305 $306 $307 forward $121 $-1 #
coedge $-1 $308 $123 $309 $310 reversed $76 $-1 #
coedge $-1 $123 $308 $311 $312 forward $76 $-1 #
coedge $-1 $303 $313 $123 $195 forward $189 $-1 #
edge $-1 $314 -62.741172521134068 $315 62.741172521134068 $123 $316 forward 7 unknown #
face $-1 $317 $318 $46 $-1 $319 reversed single #
loop $-1 $-1 $320 $124 #
plane-surface $-1 0 -32.425789319158909 6.0293894507428831 0 0 1 1 0 0 forward_v I I I I #
coedge $-1 $321 $322 $201 $323 forward $125 $-1 #
coedge $-1 $324 $127 $325 $326 reversed $79 $-1 #
coedge $-1 $127 $324 $199 $323 reversed $79 $-1 #
coedge $-1 $327 $320 $127 $203 reversed $197 $-1 #
edge $-1 $328 -62.741172521134068 $329 62.741172521134068 $202 $330 forward 7 unknown #
face $-1 $331 $332 $47 $-1 $333 reversed single #
loop $-1 $-1 $334 $128 #
plane-surface $-1 -56.347722153958429 31.775638122685834 0 1 0 0 0 0 -1 forward_v I I I I #
coedge $-1 $335 $336 $209 $337 forward $129 $-1 #
coedge $-1 $338 $131 $339 $340 reversed $82 $-1 #
coedge $-1 $131 $338 $207 $337 reversed $82 $-1 #
coedge $-1 $341 $342 $131 $211 reversed $343 $-1 #
edge $-1 $344 -6.5293894507428822 $345 6.5293894507428822 $210 $346 forward 7 unknown #
face $-1 $347 $348 $48 $-1 $349 reversed single #
loop $-1 $-1 $350 $132 #
plane-surface $-1 28.880432174370107 -18.443664019464372 174.29740294495582 0 1 0 0.55919291073839883 0 0.82903756765294845 forward_v I I I I #
coedge $-1 $351 $352 $353 $354 reversed $133 $-1 #
coedge $-1 $217 $135 $355 $356 reversed $85 $-1 #
coedge $-1 $135 $216 $351 $357 reversed $85 $-1 #
coedge $-1 $353 $358 $135 $219 forward $359 $-1 #
edge $-1 $360 -48.300956433949011 $361 -38.767493013814814 $218 $362 forward 7 unknown #
loop $-1 $-1 $225 $136 #
plane-surface $-1 -41.288405596095906 -14.863300814651728 70.267824827725818 0.55919291073839883 0 0.82903756765294845 0.82903756765294845 0 -0.55919291073839883 forward_v I I I I #
loop $-1 $-1 $363 $87 #
coedge $-1 $223 $223 $224 $364 reversed $137 $-1 #
coedge $-1 $224 $224 $223 $364 forward $139 $-1 #
coedge $-1 $225 $225 $140 $226 forward $220 $-1 #
edge $-1 $365 0 $365 6.2831853071796004 $225 $366 forward 7 unknown #
loop $-1 $-1 $232 $141 #
plane-surface $-1 -41.288405596095906 -14.863300814651728 70.267824827725818 0.55919291073839883 0 0.82903756765294845 0.82903756765294845 0 -0.55919291073839883 forward_v I I I I #
loop $-1 $-1 $367 $90 #
coedge $-1 $230 $230 $231 $368 reversed $142 $-1 #
coedge $-1 $231 $231 $230 $368 forward $144 $-1 #
coedge $-1 $232 $232 $145 $233 forward $227 $-1 #
edge $-1 $369 0 $369 6.2831853071796004 $232 $370 forward 7 unknown #
face $-1 $371 $372 $51 $-1 $373 reversed single #
loop $-1 $-1 $374 $146 #
plane-surface $-1 28.880432174370107 -6.5105752131522099 174.29740294495582 0 1 0 0.55919291073839883 0 0.82903756765294845 forward_v I I I I #
coedge $-1 $375 $376 $377 $378 reversed $147 $-1 #
coedge $-1 $239 $149 $379 $380 reversed $94 $-1 #
coedge $-1 $149 $238 $375 $381 reversed $94 $-1 #
coedge $-1 $377 $382 $149 $241 forward $383 $-1 #
edge $-1 $384 -48.300956433949011 $385 -38.767493013814814 $240 $386 forward 7 unknown #
loop $-1 $-1 $247 $150 #
plane-surface $-1 -41.288405596095906 -2.9302120083395664 70.267824827725818 0.55919291073839883 0 0.82903756765294845 0.82903756765294845 0 -0.55919291073839883 forward_v I I I I #
loop $-1 $-1 $387 $96 #
coedge $-1 $245 $245 $246 $388 reversed $151 $-1 #
coedge $-1 $246 $246 $245 $388 forward $153 $-1 #
coedge $-1 $247 $247 $154 $248 forward $242 $-1 #
edge $-1 $389 0 $389 6.2831853071796004 $247 $390 forward 7 unknown #
loop $-1 $-1 $254 $155 #
plane-surface $-1 -41.288405596095906 -2.9302120083395664 70.267824827725818 0.55919291073839883 0 0.82903756765294845 0.82903756765294845 0 -0.55919291073839883 forward_v I I I I #
loop $-1 $-1 $391 $99 #
coedge $-1 $252 $252 $253 $392 reversed $156 $-1 #
coedge $-1 $253 $253 $252 $392 forward $158 $-1 #
coedge $-1 $254 $254 $159 $255 forward $249 $-1 #
edge $-1 $393 0 $393 6.2831853071796004 $254 $394 forward 7 unknown #
face $-1 $395 $396 $54 $-1 $397 reversed single #
loop $-1 $-1 $398 $160 #
plane-surface $-1 28.880432174370107 5.4225135931599535 174.29740294495582 0 1 0 0.55919291073839883 0 0.82903756765294845 forward_v I I I I #
coedge $-1 $399 $400 $401 $402 reversed $161 $-1 #
coedge $-1 $261 $163 $403 $404 reversed $103 $-1 #
coedge $-1 $163 $260 $399 $405 reversed $103 $-1 #
coedge $-1 $401 $406 $163 $263 forward $407 $-1 #
edge $-1 $408 -48.300956433949011 $409 -38.767493013814814 $262 $410 forward 7 unknown #
loop $-1 $-1 $269 $164 #
plane-surface $-1 -41.288405596095906 9.002876797972597 70.267824827725818 0.55919291073839883 0 0.82903756765294845 0.82903756765294845 0 -0.55919291073839883 forward_v I I I I #
loop $-1 $-1 $411 $105 #
coedge $-1 $267 $267 $268 $412 reversed $165 $-1 #
coedge $-1 $268 $268 $267 $412 forward $167 $-1 #
coedge $-1 $269 $269 $168 $270 forward $264 $-1 #
edge $-1 $413 0 $413 6.2831853071796004 $269 $414 forward 7 unknown #
loop $-1 $-1 $276 $169 #
plane-surface $-1 -41.288405596095906 9.002876797972597 70.267824827725818 0.55919291073839883 0 0.82903756765294845 0.82903756765294845 0 -0.55919291073839883 forward_v I I I I #
loop $-1 $-1 $415 $108 #
coedge $-1 $274 $274 $275 $416 reversed $170 $-1 #
coedge $-1 $275 $275 $274 $416 forward $172 $-1 #
coedge $-1 $276 $276 $173 $277 forward $271 $-1 #
edge $-1 $417 0 $417 6.2831853071796004 $276 $418 forward 7 unknown #
face $-1 $419 $420 $57 $-1 $421 reversed single #
loop $-1 $-1 $422 $174 #
plane-surface $-1 28.880432174370107 17.355602399472119 174.29740294495582 0 1 0 0.55919291073839883 0 0.82903756765294845 forward_v I I I I #
coedge $-1 $423 $424 $425 $426 reversed $175 $-1 #
coedge $-1 $283 $177 $427 $428 reversed $112 $-1 #
coedge $-1 $177 $282 $423 $429 reversed $112 $-1 #
coedge $-1 $425 $430 $177 $285 forward $431 $-1 #
edge $-1 $432 -48.300956433949011 $433 -38.767493013814814 $284 $434 forward 7 unknown #
loop $-1 $-1 $291 $178 #
plane-surface $-1 -41.288405596095906 20.93596560428476 70.267824827725818 0.55919291073839883 0 0.82903756765294845 0.82903756765294845 0 -0.55919291073839883 forward_v I I I I #
loop $-1 $-1 $435 $114 #
coedge $-1 $289 $289 $290 $436 reversed $179 $-1 #
coedge $-1 $290 $290 $289 $436 forward $181 $-1 #
coedge $-1 $291 $291 $182 $292 forward $286 $-1 #
edge $-1 $437 0 $437 6.2831853071796004 $291 $438 forward 7 unknown #
loop $-1 $-1 $298 $183 #
plane-surface $-1 -41.288405596095906 20.93596560428476 70.267824827725818 0.55919291073839883 0 0.82903756765294845 0.82903756765294845 0 -0.55919291073839883 forward_v I I I I #
loop $-1 $-1 $439 $117 #
coedge $-1 $296 $296 $297 $440 reversed $184 $-1 #
coedge $-1 $297 $297 $296 $440 forward $186 $-1 #
coedge $-1 $298 $298 $187 $299 forward $293 $-1 #
edge $-1 $441 0 $441 6.2831853071796004 $298 $442 forward 7 unknown #
face $-1 $443 $444 $45 $-1 $445 reversed single #
loop $-1 $-1 $446 $188 #
plane-surface $-1 0 -29.35586835148969 0 0 1 0 0 0 1 forward_v I I I I #
coedge $-1 $447 $194 $448 $449 forward $189 $-1 #
coedge $-1 $450 $191 $308 $451 forward $121 $-1 #
coedge $-1 $191 $450 $452 $453 forward $121 $-1 #
coedge $-1 $454 $311 $191 $307 reversed $455 $-1 #
edge $-1 $456 -29.35586835148969 $457 29.35586835148969 $306 $458 forward 7 unknown #
coedge $-1 $193 $192 $304 $451 reversed $76 $-1 #
coedge $-1 $459 $460 $192 $310 forward $444 $-1 #
edge $-1 $461 -6.5293894507428822 $314 6.5293894507428822 $192 $462 forward 7 unknown #
coedge $-1 $306 $448 $193 $312 reversed $455 $-1 #
edge $-1 $457 -6.5293894507428822 $315 6.5293894507428822 $311 $463 forward 7 unknown #
coedge $-1 $194 $447 $459 $464 forward $189 $-1 #
vertex $-1 $195 $465 #
vertex $-1 $449 $466 #
straight-curve $-1 0 29.35586835148969 -6.5293894507428822 1 0 0 I I #
face $-1 $467 $468 $46 $-1 $469 reversed single #
loop $-1 $-1 $470 $196 #
plane-surface $-1 0 -32.425789319158909 2.5099714203729793 0 0 1 1 0 0 forward_v I I I I #
coedge $-1 $202 $471 $472 $473 forward $197 $-1 #
coedge $-1 $474 $199 $475 $476 reversed $125 $-1 #
coedge $-1 $199 $474 $327 $477 reversed $125 $-1 #
edge $-1 $328 -6.0293894507428831 $478 -2.5099714203729793 $199 $479 forward 7 unknown #
coedge $-1 $201 $200 $480 $481 forward $79 $-1 #
coedge $-1 $472 $482 $200 $326 forward $483 $-1 #
edge $-1 $484 2.5099714203729793 $329 6.0293894507428831 $325 $485 forward 7 unknown #
coedge $-1 $471 $202 $322 $477 forward $197 $-1 #
vertex $-1 $323 $486 #
vertex $-1 $473 $487 #
straight-curve $-1 0 -29.35586835148969 6.0293894507428831 1 0 0 I I #
face $-1 $488 $343 $47 $-1 $489 reversed single #
loop $-1 $-1 $490 $204 #
plane-surface $-1 -54.847722153958429 34.195407893881978 0 0 -1 0 0 0 -1 forward_v I I I I #
coedge $-1 $491 $492 $493 $494 forward $205 $-1 #
coedge $-1 $495 $207 $491 $496 forward $129 $-1 #
coedge $-1 $207 $495 $341 $497 forward $129 $-1 #
edge $-1 $344 53.347722153958429 $498 56.347722153958429 $207 $499 forward 7 unknown #
coedge $-1 $209 $208 $500 $501 forward $82 $-1 #
coedge $-1 $502 $503 $208 $340 forward $504 $-1 #
edge $-1 $505 -56.347722153958429 $345 -53.347722153958429 $339 $506 forward 7 unknown #
coedge $-1 $507 $210 $336 $497 reversed $343 $-1 #
coedge $-1 $210 $507 $502 $508 reversed $343 $-1 #
loop $-1 $-1 $210 $331 #
vertex $-1 $337 $509 #
vertex $-1 $508 $510 #
straight-curve $-1 -53.347722153958429 29.35586835148969 0 0 0 1 I I #
face $-1 $-1 $359 $48 $-1 $511 forward single #
loop $-1 $-1 $512 $212 #
plane-surface $-1 62.741172521134068 0 0 -1 0 0 0 0 1 forward_v I I I I #
coedge $-1 $513 $514 $515 $516 reversed $213 $-1 #
coedge $-1 $517 $215 $217 $357 forward $133 $-1 #
coedge $-1 $215 $517 $513 $518 forward $133 $-1 #
coedge $-1 $515 $218 $215 $354 forward $359 $-1 #
edge $-1 $361 3.8512872025132205 $519 11.012013612138507 $353 $520 forward 7 unknown #
coedge $-1 $521 $522 $216 $356 forward $348 $-1 #
edge $-1 $523 -87.049714415218091 $360 -80.619312021735027 $355 $524 forward 7 unknown #
edge $-1 $361 113.98291028550074 $523 125.48234504226811 $217 $525 forward 7 unknown #
coedge $-1 $218 $515 $521 $526 forward $359 $-1 #
loop $-1 $-1 $515 $347 #
vertex $-1 $356 $527 #
vertex $-1 $219 $528 #
straight-curve $-1 14.440216087185053 -11.282937609839085 6.5293894507428831 -1 0 0 I I #
coedge $-1 $363 $363 $-1 $529 reversed $222 $-1 #
edge $-1 $530 0 $530 6.2831853071796004 $223 $531 forward 7 unknown #
vertex $-1 $226 $532 #
ellipse-curve $-1 57.974440811066984 -16.39774218814286 3.3141882540013397 0.55919291073839883 0 0.82903756765294845 0.20725939191323711 0 -0.13979822768459971 1 I I #
coedge $-1 $367 $367 $-1 $533 reversed $229 $-1 #
edge $-1 $534 0 $534 6.2831853071796004 $230 $535 forward 7 unknown #
vertex $-1 $233 $536 #
ellipse-curve $-1 57.974440811066984 -13.328859441160596 3.3141882540013397 0.55919291073839883 0 0.82903756765294845 0.20725939191323711 0 -0.13979822768459971 1 I I #
face $-1 $-1 $383 $51 $-1 $537 forward single #
loop $-1 $-1 $538 $234 #
plane-surface $-1 62.741172521134068 0 0 -1 0 0 0 0 1 forward_v I I I I #
coedge $-1 $539 $540 $541 $542 reversed $235 $-1 #
coedge $-1 $543 $237 $239 $381 forward $147 $-1 #
coedge $-1 $237 $543 $539 $544 forward $147 $-1 #
coedge $-1 $541 $240 $237 $378 forward $383 $-1 #
edge $-1 $385 -2.1152572006428603 $545 5.0454692089824267 $377 $546 forward 7 unknown #
coedge $-1 $547 $548 $238 $380 forward $372 $-1 #
edge $-1 $549 -87.049714415218091 $384 -80.619312021735027 $379 $550 forward 7 unknown #
edge $-1 $385 113.98291028550074 $549 125.48234504226811 $239 $551 forward 7 unknown #
coedge $-1 $240 $541 $547 $552 forward $383 $-1 #
loop $-1 $-1 $541 $371 #
vertex $-1 $380 $553 #
vertex $-1 $241 $554 #
straight-curve $-1 14.440216087185053 0.65015119647307706 6.5293894507428831 -1 0 0 I I #
coedge $-1 $387 $387 $-1 $555 reversed $244 $-1 #
edge $-1 $556 0 $556 6.2831853071796004 $245 $557 forward 7 unknown #
vertex $-1 $248 $558 #
ellipse-curve $-1 57.974440811066984 -4.464653381830697 3.3141882540013397 0.55919291073839883 0 0.82903756765294845 0.20725939191323711 0 -0.13979822768459971 1 I I #
coedge $-1 $391 $391 $-1 $559 reversed $251 $-1 #
edge $-1 $560 0 $560 6.2831853071796004 $252 $561 forward 7 unknown #
vertex $-1 $255 $562 #
ellipse-curve $-1 57.974440811066984 -1.3957706348484322 3.3141882540013397 0.55919291073839883 0 0.82903756765294845 0.20725939191323711 0 -0.13979822768459971 1 I I #
face $-1 $-1 $407 $54 $-1 $563 forward single #
loop $-1 $-1 $564 $256 #
plane-surface $-1 62.741172521134068 0 0 -1 0 0 0 0 1 forward_v I I I I #
coedge $-1 $565 $566 $567 $568 reversed $257 $-1 #
coedge $-1 $569 $259 $261 $405 forward $161 $-1 #
coedge $-1 $259 $569 $565 $570 forward $161 $-1 #
coedge $-1 $567 $262 $259 $402 forward $407 $-1 #
edge $-1 $409 -8.081801603798942 $571 -0.92107519417365502 $401 $572 forward 7 unknown #
coedge $-1 $573 $574 $260 $404 forward $396 $-1 #
edge $-1 $575 -87.049714415218091 $408 -80.619312021735027 $403 $576 forward 7 unknown #
edge $-1 $409 113.98291028550074 $575 125.48234504226811 $261 $577 forward 7 unknown #
coedge $-1 $262 $567 $573 $578 forward $407 $-1 #
loop $-1 $-1 $567 $395 #
vertex $-1 $404 $579 #
vertex $-1 $263 $580 #
straight-curve $-1 14.440216087185053 12.58324000278524 6.5293894507428831 -1 0 0 I I #
coedge $-1 $411 $411 $-1 $581 reversed $266 $-1 #
edge $-1 $582 0 $582 6.2831853071796004 $267 $583 forward 7 unknown #
vertex $-1 $270 $584 #
ellipse-curve $-1 57.974440811066984 7.4684354244814699 3.3141882540013397 0.55919291073839883 0 0.82903756765294845 0.20725939191323711 0 -0.13979822768459971 1 I I #
coedge $-1 $415 $415 $-1 $585 reversed $273 $-1 #
edge $-1 $586 0 $586 6.2831853071796004 $274 $587 forward 7 unknown #
vertex $-1 $277 $588 #
ellipse-curve $-1 57.974440811066984 10.537318171463731 3.3141882540013397 0.55919291073839883 0 0.82903756765294845 0.20725939191323711 0 -0.13979822768459971 1 I I #
face $-1 $-1 $431 $57 $-1 $589 forward single #
loop $-1 $-1 $590 $278 #
plane-surface $-1 62.741172521134068 0 0 -1 0 0 0 0 1 forward_v I I I I #
coedge $-1 $591 $592 $593 $594 reversed $279 $-1 #
coedge $-1 $595 $281 $283 $429 forward $175 $-1 #
coedge $-1 $281 $595 $591 $596 forward $175 $-1 #
coedge $-1 $593 $284 $281 $426 forward $431 $-1 #
edge $-1 $433 -14.048346006955022 $597 -6.8876195973297385 $425 $598 forward 7 unknown #
coedge $-1 $599 $600 $282 $428 forward $420 $-1 #
edge $-1 $601 -87.049714415218091 $432 -80.619312021735027 $427 $602 forward 7 unknown #
edge $-1 $433 113.98291028550074 $601 125.48234504226811 $283 $603 forward 7 unknown #
coedge $-1 $284 $593 $599 $604 forward $431 $-1 #
loop $-1 $-1 $593 $419 #
vertex $-1 $428 $605 #
vertex $-1 $285 $606 #
straight-curve $-1 14.440216087185053 24.516328809097402 6.5293894507428831 -1 0 0 I I #
coedge $-1 $435 $435 $-1 $607 reversed $288 $-1 #
edge $-1 $608 0 $608 6.2831853071796004 $289 $609 forward 7 unknown #
vertex $-1 $292 $610 #
ellipse-curve $-1 57.974440811066984 19.401524230793633 3.3141882540013397 0.55919291073839883 0 0.82903756765294845 0.20725939191323711 0 -0.13979822768459971 1 I I #
coedge $-1 $439 $439 $-1 $611 reversed $295 $-1 #
edge $-1 $612 0 $612 6.2831853071796004 $296 $613 forward 7 unknown #
vertex $-1 $299 $614 #
ellipse-curve $-1 57.974440811066984 22.470406977775895 3.3141882540013397 0.55919291073839883 0 0.82903756765294845 0.20725939191323711 0 -0.13979822768459971 1 I I #
face $-1 $-1 $455 $45 $-1 $615 reversed single #
loop $-1 $-1 $309 $300 #
plane-surface $-1 -62.741172521134068 0 0 1 0 0 0 0 -1 forward_v I I I I #
coedge $-1 $616 $452 $617 $618 forward $301 $-1 #
coedge $-1 $313 $303 $616 $619 forward $189 $-1 #
coedge $-1 $311 $454 $303 $449 reversed $455 $-1 #
edge $-1 $315 -29.35586835148969 $620 29.35586835148969 $448 $621 forward 7 unknown #
coedge $-1 $305 $304 $460 $622 forward $121 $-1 #
edge $-1 $457 -62.741172521134068 $461 62.741172521134068 $308 $623 forward 7 unknown #
coedge $-1 $446 $624 $305 $453 reversed $301 $-1 #
edge $-1 $625 -62.741172521134068 $456 62.741172521134068 $452 $626 forward 7 unknown #
coedge $-1 $448 $306 $624 $627 forward $455 $-1 #
loop $-1 $-1 $454 $443 #
vertex $-1 $307 $628 #
vertex $-1 $307 $629 #
straight-curve $-1 62.741172521134068 0 6.5293894507428822 0 1 0 I I #
coedge $-1 $617 $309 $313 $464 reversed $444 $-1 #
coedge $-1 $309 $617 $450 $622 reversed $444 $-1 #
vertex $-1 $451 $630 #
straight-curve $-1 -62.741172521134068 29.35586835148969 0 0 0 -1 I I #
straight-curve $-1 62.741172521134068 29.35586835148969 0 0 0 -1 I I #
edge $-1 $631 -29.35586835148969 $314 29.35586835148969 $459 $632 forward 7 unknown #
point $-1 -62.741172521134068 29.35586835148969 -6.5293894507428822 #
point $-1 62.741172521134068 29.35586835148969 -6.5293894507428822 #
face $-1 $-1 $483 $46 $-1 $633 reversed single #
loop $-1 $-1 $634 $317 #
plane-surface $-1 0 -35.495710286828128 4.2696804355579312 0 1 0 0 0 1 forward_v I I I I #
coedge $-1 $635 $480 $482 $636 forward $318 $-1 #
coedge $-1 $320 $327 $637 $638 forward $197 $-1 #
coedge $-1 $639 $325 $320 $473 reversed $483 $-1 #
edge $-1 $640 -3.0699209676692192 $329 3.0699209676692227 $472 $641 forward 7 unknown #
coedge $-1 $322 $321 $634 $642 reversed $125 $-1 #
coedge $-1 $480 $635 $321 $476 forward $318 $-1 #
edge $-1 $643 -3.0699209676692192 $478 3.0699209676692227 $321 $644 forward 7 unknown #
edge $-1 $328 -3.0699209676692227 $645 3.0699209676692192 $322 $646 forward 7 unknown #
vertex $-1 $323 $647 #
straight-curve $-1 -62.741172521134068 -29.35586835148969 0 0 0 -1 I I #
coedge $-1 $470 $475 $324 $481 reversed $318 $-1 #
edge $-1 $484 -62.741172521134068 $478 62.741172521134068 $480 $648 forward 7 unknown #
coedge $-1 $325 $639 $470 $636 reversed $483 $-1 #
loop $-1 $-1 $325 $467 #
vertex $-1 $326 $649 #
straight-curve $-1 62.741172521134068 -29.35586835148969 0 0 0 1 I I #
point $-1 -62.741172521134068 -29.355868351489686 6.0293894507428831 #
point $-1 62.741172521134068 -29.355868351489686 6.0293894507428831 #
face $-1 $-1 $504 $47 $-1 $650 forward single #
plane-surface $-1 -53.347722153958429 31.775638122685834 0 -1 0 0 0 0 1 forward_v I I I I #
coedge $-1 $651 $652 $507 $653 forward $332 $-1 #
coedge $-1 $500 $334 $335 $496 reversed $205 $-1 #
coedge $-1 $334 $500 $503 $654 reversed $205 $-1 #
coedge $-1 $652 $651 $334 $494 reversed $332 $-1 #
edge $-1 $655 -6.5293894507428822 $656 6.5293894507428822 $493 $657 forward 7 unknown #
coedge $-1 $336 $335 $651 $658 forward $129 $-1 #
edge $-1 $498 -2.4197697711961439 $656 2.4197697711961439 $491 $659 forward 7 unknown #
edge $-1 $660 -2.4197697711961439 $344 2.4197697711961439 $341 $661 forward 7 unknown #
vertex $-1 $496 $662 #
straight-curve $-1 0 29.35586835148969 -6.5293894507428822 -1 0 0 I I #
coedge $-1 $492 $491 $338 $501 reversed $205 $-1 #
edge $-1 $505 -6.5293894507428822 $498 6.5293894507428822 $500 $663 forward 7 unknown #
coedge $-1 $664 $339 $342 $508 forward $504 $-1 #
coedge $-1 $339 $664 $492 $654 forward $504 $-1 #
loop $-1 $-1 $339 $488 #
vertex $-1 $340 $665 #
straight-curve $-1 0 29.35586835148969 6.5293894507428822 1 0 0 I I #
coedge $-1 $342 $341 $490 $653 reversed $343 $-1 #
edge $-1 $345 -2.4197697711961439 $666 2.4197697711961439 $342 $667 forward 7 unknown #
point $-1 -53.347722153958429 29.35586835148969 -6.5293894507428822 #
point $-1 -53.347722153958429 29.35586835148969 6.5293894507428822 #
plane-surface $-1 0 0 6.5293894507428822 0 0 1 1 0 0 forward_v I I I I #
coedge $-1 $522 $521 $514 $668 forward $348 $-1 #
coedge $-1 $514 $350 $352 $518 reversed $213 $-1 #
coedge $-1 $350 $513 $512 $668 reversed $213 $-1 #
coedge $-1 $358 $353 $350 $516 forward $359 $-1 #
edge $-1 $519 38.767493013814814 $669 48.300956433949011 $515 $670 forward 7 unknown #
coedge $-1 $352 $351 $522 $671 reversed $133 $-1 #
edge $-1 $672 -125.48234504226811 $519 -113.98291028550074 $513 $673 forward 7 unknown #
vertex $-1 $354 $674 #
straight-curve $-1 53.207709100999864 -7.431650407325864 6.5293894507428831 0 -1 0 I I #
coedge $-1 $512 $355 $358 $526 reversed $348 $-1 #
coedge $-1 $355 $512 $517 $671 forward $348 $-1 #
vertex $-1 $356 $675 #
straight-curve $-1 62.741172521134068 -11.282937609839085 87.14870147247791 0 0 1 I I #
straight-curve $-1 -41.288405596095906 -11.282937609839085 70.267824827725818 0.82903756765294845 0 -0.55919291073839883 I I #
edge $-1 $669 -18.443664019464372 $360 -11.282937609839085 $521 $676 forward 7 unknown #
point $-1 62.741172521134068 -11.282937609839085 6.5293894507428822 #
point $-1 53.207709100999871 -11.282937609839085 6.5293894507428831 #
edge $-1 $677 1 $677 0 $363 $-1 forward 7 unknown #
vertex $-1 $364 $678 #
ellipse-curve $-1 57.415247900328588 -16.39774218814286 2.4851506863483972 0.55919291073839883 0 0.82903756765294845 0.20725939191323711 0 -0.13979822768459971 1 I I #
point $-1 58.181700202980224 -16.39774218814286 3.1743900263167459 #
edge $-1 $679 1 $679 0 $367 $-1 forward 7 unknown #
vertex $-1 $368 $680 #
ellipse-curve $-1 57.415247900328588 -13.328859441160596 2.4851506863483972 0.55919291073839883 0 0.82903756765294845 0.20725939191323711 0 -0.13979822768459971 1 I I #
point $-1 58.181700202980224 -13.328859441160596 3.1743900263167459 #
plane-surface $-1 0 0 6.5293894507428822 0 0 1 1 0 0 forward_v I I I I #
coedge $-1 $548 $547 $540 $681 forward $372 $-1 #
coedge $-1 $540 $374 $376 $544 reversed $235 $-1 #
coedge $-1 $374 $539 $538 $681 reversed $235 $-1 #
coedge $-1 $382 $377 $374 $542 forward $383 $-1 #
edge $-1 $545 38.767493013814814 $682 48.300956433949011 $541 $683 forward 7 unknown #
coedge $-1 $376 $375 $548 $684 reversed $147 $-1 #
edge $-1 $685 -125.48234504226811 $545 -113.98291028550074 $539 $686 forward 7 unknown #
vertex $-1 $378 $687 #
straight-curve $-1 53.207709100999864 -1.4651060041697832 6.5293894507428831 0 -1 0 I I #
coedge $-1 $538 $379 $382 $552 reversed $372 $-1 #
coedge $-1 $379 $538 $543 $684 forward $372 $-1 #
vertex $-1 $380 $688 #
straight-curve $-1 62.741172521134068 0.65015119647307706 87.14870147247791 0 0 1 I I #
straight-curve $-1 -41.288405596095906 0.65015119647307706 70.267824827725818 0.82903756765294845 0 -0.55919291073839883 I I #
edge $-1 $682 -6.5105752131522099 $384 0.65015119647307706 $547 $689 forward 7 unknown #
point $-1 62.741172521134068 0.65015119647307706 6.5293894507428822 #
point $-1 53.207709100999871 0.65015119647307706 6.5293894507428831 #
edge $-1 $690 1 $690 0 $387 $-1 forward 7 unknown #
vertex $-1 $388 $691 #
ellipse-curve $-1 57.415247900328588 -4.464653381830697 2.4851506863483972 0.55919291073839883 0 0.82903756765294845 0.20725939191323711 0 -0.13979822768459971 1 I I #
point $-1 58.181700202980224 -4.464653381830697 3.1743900263167459 #
edge $-1 $692 1 $692 0 $391 $-1 forward 7 unknown #
vertex $-1 $392 $693 #
ellipse-curve $-1 57.415247900328588 -1.3957706348484322 2.4851506863483972 0.55919291073839883 0 0.82903756765294845 0.20725939191323711 0 -0.13979822768459971 1 I I #
point $-1 58.181700202980224 -1.3957706348484322 3.1743900263167459 #
plane-surface $-1 0 0 6.5293894507428822 0 0 1 1 0 0 forward_v I I I I #
coedge $-1 $574 $573 $566 $694 forward $396 $-1 #
coedge $-1 $566 $398 $400 $570 reversed $257 $-1 #
coedge $-1 $398 $565 $564 $694 reversed $257 $-1 #
coedge $-1 $406 $401 $398 $568 forward $407 $-1 #
edge $-1 $571 38.767493013814814 $695 48.300956433949011 $567 $696 forward 7 unknown #
coedge $-1 $400 $399 $574 $697 reversed $161 $-1 #
edge $-1 $698 -125.48234504226811 $571 -113.98291028550074 $565 $699 forward 7 unknown #
vertex $-1 $402 $700 #
straight-curve $-1 53.207709100999864 4.5014383989862985 6.5293894507428831 0 -1 0 I I #
coedge $-1 $564 $403 $406 $578 reversed $396 $-1 #
coedge $-1 $403 $564 $569 $697 forward $396 $-1 #
vertex $-1 $404 $701 #
straight-curve $-1 62.741172521134068 12.58324000278524 87.14870147247791 0 0 1 I I #
straight-curve $-1 -41.288405596095906 12.58324000278524 70.267824827725818 0.82903756765294845 0 -0.55919291073839883 I I #
edge $-1 $695 5.4225135931599535 $408 12.58324000278524 $573 $702 forward 7 unknown #
point $-1 62.741172521134068 12.58324000278524 6.5293894507428822 #
point $-1 53.207709100999871 12.58324000278524 6.5293894507428831 #
edge $-1 $703 1 $703 0 $411 $-1 forward 7 unknown #
vertex $-1 $412 $704 #
ellipse-curve $-1 57.415247900328588 7.4684354244814699 2.4851506863483972 0.55919291073839883 0 0.82903756765294845 0.20725939191323711 0 -0.13979822768459971 1 I I #
point $-1 58.181700202980224 7.4684354244814699 3.1743900263167459 #
edge $-1 $705 1 $705 0 $415 $-1 forward 7 unknown #
vertex $-1 $416 $706 #
ellipse-curve $-1 57.415247900328588 10.537318171463731 2.4851506863483972 0.55919291073839883 0 0.82903756765294845 0.20725939191323711 0 -0.13979822768459971 1 I I #
point $-1 58.181700202980224 10.537318171463731 3.1743900263167459 #
plane-surface $-1 0 0 6.5293894507428822 0 0 1 1 0 0 forward_v I I I I #
coedge $-1 $600 $599 $592 $707 forward $420 $-1 #
coedge $-1 $592 $422 $424 $596 reversed $279 $-1 #
coedge $-1 $422 $591 $590 $707 reversed $279 $-1 #
coedge $-1 $430 $425 $422 $594 forward $431 $-1 #
edge $-1 $597 38.767493013814814 $708 48.300956433949011 $593 $709 forward 7 unknown #
coedge $-1 $424 $423 $600 $710 reversed $175 $-1 #
edge $-1 $711 -125.48234504226811 $597 -113.98291028550074 $591 $712 forward 7 unknown #
vertex $-1 $426 $713 #
straight-curve $-1 53.207709100999864 10.46798280214238 6.5293894507428831 0 -1 0 I I #
coedge $-1 $590 $427 $430 $604 reversed $420 $-1 #
coedge $-1 $427 $590 $595 $710 forward $420 $-1 #
vertex $-1 $428 $714 #
straight-curve $-1 62.741172521134068 24.516328809097402 87.14870147247791 0 0 1 I I #
straight-curve $-1 -41.288405596095906 24.516328809097402 70.267824827725818 0.82903756765294845 0 -0.55919291073839883 I I #
edge $-1 $708 17.355602399472119 $432 24.516328809097402 $599 $715 forward 7 unknown #
point $-1 62.741172521134068 24.516328809097402 6.5293894507428822 #
point $-1 53.207709100999871 24.516328809097402 6.5293894507428831 #
edge $-1 $716 1 $716 0 $435 $-1 forward 7 unknown #
vertex $-1 $436 $717 #
ellipse-curve $-1 57.415247900328588 19.401524230793633 2.4851506863483972 0.55919291073839883 0 0.82903756765294845 0.20725939191323711 0 -0.13979822768459971 1 I I #
point $-1 58.181700202980224 19.401524230793633 3.1743900263167459 #
edge $-1 $718 1 $718 0 $439 $-1 forward 7 unknown #
vertex $-1 $440 $719 #
ellipse-curve $-1 57.415247900328588 22.470406977775895 2.4851506863483972 0.55919291073839883 0 0.82903756765294845 0.20725939191323711 0 -0.13979822768459971 1 I I #
point $-1 58.181700202980224 22.470406977775895 3.1743900263167459 #
plane-surface $-1 62.741172521134068 0 0 -1 0 0 0 0 1 forward_v I I I I #
coedge $-1 $624 $446 $447 $619 reversed $301 $-1 #
coedge $-1 $460 $459 $446 $618 reversed $444 $-1 #
edge $-1 $625 -6.5293894507428822 $631 6.5293894507428822 $617 $720 forward 7 unknown #
edge $-1 $620 -62.741172521134068 $631 62.741172521134068 $616 $721 forward 7 unknown #
vertex $-1 $627 $722 #
straight-curve $-1 62.741172521134068 0 -6.5293894507428822 0 -1 0 I I #
edge $-1 $461 -29.35586835148969 $625 29.35586835148969 $460 $723 forward 7 unknown #
straight-curve $-1 0 29.35586835148969 6.5293894507428822 -1 0 0 I I #
coedge $-1 $452 $616 $454 $627 reversed $301 $-1 #
vertex $-1 $622 $724 #
straight-curve $-1 0 -29.35586835148969 6.5293894507428822 1 0 0 I I #
edge $-1 $456 -6.5293894507428822 $620 6.5293894507428822 $454 $725 forward 7 unknown #
point $-1 62.741172521134068 -29.35586835148969 6.5293894507428822 #
point $-1 62.741172521134068 29.35586835148969 6.5293894507428822 #
point $-1 -62.741172521134068 29.35586835148969 6.5293894507428822 #
vertex $-1 $464 $726 #
straight-curve $-1 -62.741172521134068 0 -6.5293894507428822 0 1 0 I I #
plane-surface $-1 62.741172521134068 0 0 -1 0 0 0 0 1 forward_v I I I I #
coedge $-1 $727 $637 $474 $642 forward $468 $-1 #
coedge $-1 $475 $470 $727 $728 forward $318 $-1 #
edge $-1 $484 -3.0699209676692227 $729 3.0699209676692192 $482 $730 forward 7 unknown #
coedge $-1 $634 $731 $471 $638 reversed $468 $-1 #
edge $-1 $645 -62.741172521134068 $640 62.741172521134068 $637 $732 forward 7 unknown #
coedge $-1 $482 $472 $731 $733 forward $483 $-1 #
vertex $-1 $473 $734 #
straight-curve $-1 62.741172521134068 -32.425789319158909 6.0293894507428831 0 1 0 I I #
edge $-1 $645 -1.7597090151849519 $643 1.7597090151849519 $474 $735 forward 7 unknown #
vertex $-1 $476 $736 #
straight-curve $-1 -62.741172521134068 -32.425789319158909 2.5099714203729793 0 1 0 I I #
vertex $-1 $477 $737 #
straight-curve $-1 -62.741172521134068 -32.425789319158909 6.0293894507428831 0 -1 0 I I #
point $-1 -62.741172521134068 -29.355868351489686 2.5099714203729793 #
straight-curve $-1 0 -29.35586835148969 2.5099714203729793 -1 0 0 I I #
point $-1 62.741172521134068 -29.355868351489686 2.5099714203729793 #
plane-surface $-1 0 0 6.5293894507428822 0 0 1 1 0 0 forward_v I I I I #
coedge $-1 $493 $490 $495 $658 reversed $332 $-1 #
coedge $-1 $490 $493 $664 $738 reversed $332 $-1 #
edge $-1 $666 -6.5293894507428822 $660 6.5293894507428822 $507 $739 forward 7 unknown #
edge $-1 $655 -2.4197697711961439 $505 2.4197697711961439 $492 $740 forward 7 unknown #
vertex $-1 $738 $741 #
vertex $-1 $658 $742 #
straight-curve $-1 -56.347722153958429 34.195407893881978 0 0 0 -1 I I #
edge $-1 $656 -1.5 $660 1.5 $651 $743 forward 7 unknown #
straight-curve $-1 -56.347722153958429 31.775638122685834 -6.5293894507428822 0 1 0 I I #
vertex $-1 $497 $744 #
straight-curve $-1 -53.347722153958429 31.775638122685834 -6.5293894507428822 0 -1 0 I I #
point $-1 -56.347722153958429 29.35586835148969 -6.5293894507428822 #
straight-curve $-1 -56.347722153958429 29.35586835148969 0 0 0 -1 I I #
coedge $-1 $503 $502 $652 $738 forward $504 $-1 #
point $-1 -56.347722153958429 29.35586835148969 6.5293894507428822 #
vertex $-1 $508 $745 #
straight-curve $-1 -53.347722153958429 31.775638122685834 6.5293894507428822 0 1 0 I I #
edge $-1 $669 80.619312021735027 $672 87.049714415218091 $512 $746 forward 7 unknown #
vertex $-1 $526 $747 #
straight-curve $-1 14.440216087185053 -18.443664019464372 6.5293894507428831 1 0 0 I I #
edge $-1 $672 -11.012013612138507 $523 -3.8512872025132205 $522 $748 forward 7 unknown #
vertex $-1 $671 $749 #
straight-curve $-1 -41.288405596095906 -18.443664019464372 70.267824827725818 -0.82903756765294845 0 0.55919291073839883 I I #
point $-1 53.207709100999871 -18.443664019464372 6.5293894507428831 #
point $-1 62.741172521134068 -11.282937609839085 0.098987057259819267 #
straight-curve $-1 62.741172521134068 0 6.5293894507428822 0 1 0 I I #
vertex $-1 $529 $750 #
point $-1 57.622507292241828 -16.39774218814286 2.3453524586637973 #
vertex $-1 $533 $751 #
point $-1 57.622507292241828 -13.328859441160596 2.3453524586637973 #
edge $-1 $682 80.619312021735027 $685 87.049714415218091 $538 $752 forward 7 unknown #
vertex $-1 $552 $753 #
straight-curve $-1 14.440216087185053 -6.5105752131522099 6.5293894507428831 1 0 0 I I #
edge $-1 $685 -5.0454692089824267 $549 2.1152572006428603 $548 $754 forward 7 unknown #
vertex $-1 $684 $755 #
straight-curve $-1 -41.288405596095906 -6.5105752131522099 70.267824827725818 -0.82903756765294845 0 0.55919291073839883 I I #
point $-1 53.207709100999871 -6.5105752131522099 6.5293894507428831 #
point $-1 62.741172521134068 0.65015119647307706 0.098987057259819267 #
straight-curve $-1 62.741172521134068 0 6.5293894507428822 0 1 0 I I #
vertex $-1 $555 $756 #
point $-1 57.622507292241828 -4.464653381830697 2.3453524586637973 #
vertex $-1 $559 $757 #
point $-1 57.622507292241828 -1.3957706348484322 2.3453524586637973 #
edge $-1 $695 80.619312021735027 $698 87.049714415218091 $564 $758 forward 7 unknown #
vertex $-1 $578 $759 #
straight-curve $-1 14.440216087185053 5.4225135931599535 6.5293894507428831 1 0 0 I I #
edge $-1 $698 0.92107519417365502 $575 8.081801603798942 $574 $760 forward 7 unknown #
vertex $-1 $697 $761 #
straight-curve $-1 -41.288405596095906 5.4225135931599535 70.267824827725818 -0.82903756765294845 0 0.55919291073839883 I I #
point $-1 53.207709100999871 5.4225135931599535 6.5293894507428831 #
point $-1 62.741172521134068 12.58324000278524 0.098987057259819267 #
straight-curve $-1 62.741172521134068 0 6.5293894507428822 0 1 0 I I #
vertex $-1 $581 $762 #
point $-1 57.622507292241828 7.4684354244814699 2.3453524586637973 #
vertex $-1 $585 $763 #
point $-1 57.622507292241828 10.537318171463731 2.3453524586637973 #
edge $-1 $708 80.619312021735027 $711 87.049714415218091 $590 $764 forward 7 unknown #
vertex $-1 $604 $765 #
straight-curve $-1 14.440216087185053 17.355602399472119 6.5293894507428831 1 0 0 I I #
edge $-1 $711 6.8876195973297385 $601 14.048346006955022 $600 $766 forward 7 unknown #
vertex $-1 $710 $767 #
straight-curve $-1 -41.288405596095906 17.355602399472119 70.267824827725818 -0.82903756765294845 0 0.55919291073839883 I I #
point $-1 53.207709100999871 17.355602399472119 6.5293894507428831 #
point $-1 62.741172521134068 24.516328809097402 0.098987057259819267 #
straight-curve $-1 62.741172521134068 0 6.5293894507428822 0 1 0 I I #
vertex $-1 $607 $768 #
point $-1 57.622507292241828 19.401524230793633 2.3453524586637973 #
vertex $-1 $611 $769 #
point $-1 57.622507292241828 22.470406977775895 2.3453524586637973 #
straight-curve $-1 -62.741172521134068 -29.35586835148969 0 0 0 -1 I I #
straight-curve $-1 0 -29.35586835148969 -6.5293894507428822 -1 0 0 I I #
point $-1 62.741172521134068 -29.35586835148969 -6.5293894507428822 #
straight-curve $-1 -62.741172521134068 0 6.5293894507428822 0 -1 0 I I #
point $-1 -62.741172521134068 -29.35586835148969 6.5293894507428822 #
straight-curve $-1 62.741172521134068 -29.35586835148969 0 0 0 -1 I I #
point $-1 -62.741172521134068 -29.35586835148969 -6.5293894507428822 #
coedge $-1 $731 $634 $635 $728 reversed $468 $-1 #
edge $-1 $729 -62.741172521134068 $643 62.741172521134068 $727 $770 forward 7 unknown #
vertex $-1 $733 $771 #
straight-curve $-1 62.741172521134068 -32.425789319158909 2.5099714203729793 0 -1 0 I I #
coedge $-1 $637 $727 $639 $733 reversed $468 $-1 #
straight-curve $-1 0 -35.495710286828128 6.0293894507428831 1 0 0 I I #
edge $-1 $640 -1.7597090151849519 $729 1.7597090151849519 $639 $772 forward 7 unknown #
point $-1 62.741172521134068 -35.495710286828128 6.0293894507428831 #
straight-curve $-1 -62.741172521134068 -35.495710286828128 4.2696804355579312 0 0 -1 I I #
point $-1 -62.741172521134068 -35.495710286828128 2.5099714203729793 #
point $-1 -62.741172521134068 -35.495710286828128 6.0293894507428831 #
edge $-1 $666 -1.5 $655 1.5 $652 $773 forward 7 unknown #
straight-curve $-1 -53.347722153958429 34.195407893881978 0 0 0 -1 I I #
straight-curve $-1 -56.347722153958429 31.775638122685834 6.5293894507428822 0 -1 0 I I #
point $-1 -56.347722153958429 34.195407893881978 6.5293894507428822 #
point $-1 -56.347722153958429 34.195407893881978 -6.5293894507428822 #
straight-curve $-1 -54.847722153958429 34.195407893881978 -6.5293894507428822 1 0 0 I I #
point $-1 -53.347722153958429 34.195407893881978 -6.5293894507428822 #
point $-1 -53.347722153958429 34.195407893881978 6.5293894507428822 #
straight-curve $-1 62.741172521134068 -18.443664019464372 87.14870147247791 0 0 -1 I I #
point $-1 62.741172521134068 -18.443664019464372 6.5293894507428822 #
straight-curve $-1 62.741172521134075 -7.431650407325864 0.098987057259819267 0 1 0 I I #
point $-1 62.741172521134068 -18.443664019464372 0.098987057259819267 #
point $-1 57.275449672643994 -16.39774218814286 2.2778912944351597 #
point $-1 57.275449672643994 -13.328859441160596 2.2778912944351597 #
straight-curve $-1 62.741172521134068 -6.5105752131522099 87.14870147247791 0 0 -1 I I #
point $-1 62.741172521134068 -6.5105752131522099 6.5293894507428822 #
straight-curve $-1 62.741172521134075 -1.4651060041697832 0.098987057259819267 0 1 0 I I #
point $-1 62.741172521134068 -6.5105752131522099 0.098987057259819267 #
point $-1 57.275449672643994 -4.464653381830697 2.2778912944351597 #
point $-1 57.275449672643994 -1.3957706348484322 2.2778912944351597 #
straight-curve $-1 62.741172521134068 5.4225135931599535 87.14870147247791 0 0 -1 I I #
point $-1 62.741172521134068 5.4225135931599535 6.5293894507428822 #
straight-curve $-1 62.741172521134075 4.5014383989862985 0.098987057259819267 0 1 0 I I #
point $-1 62.741172521134068 5.4225135931599535 0.098987057259819267 #
point $-1 57.275449672643994 7.4684354244814699 2.2778912944351597 #
point $-1 57.275449672643994 10.537318171463731 2.2778912944351597 #
straight-curve $-1 62.741172521134068 17.355602399472119 87.14870147247791 0 0 -1 I I #
point $-1 62.741172521134068 17.355602399472119 6.5293894507428822 #
straight-curve $-1 62.741172521134075 10.46798280214238 0.098987057259819267 0 1 0 I I #
point $-1 62.741172521134068 17.355602399472119 0.098987057259819267 #
point $-1 57.275449672643994 19.401524230793633 2.2778912944351597 #
point $-1 57.275449672643994 22.470406977775895 2.2778912944351597 #
straight-curve $-1 0 -35.495710286828128 2.5099714203729793 -1 0 0 I I #
point $-1 62.741172521134068 -35.495710286828128 2.5099714203729793 #
straight-curve $-1 62.741172521134068 -35.495710286828128 4.2696804355579312 0 0 -1 I I #
straight-curve $-1 -54.847722153958429 34.195407893881978 6.5293894507428822 -1 0 0 I I #
End-of-ACIS-data 