500 0 12 0           
7 Unknown 11 ACIS 5.0 NT 24 Fri Mar 26 00:30:36 1999 
-1 9.9999999999999995e-007 1e-010 
body $-1 $12 $-1 $13 #
body $-1 $14 $-1 $15 #
body $-1 $16 $-1 $17 #
body $-1 $18 $-1 $19 #
body $-1 $20 $-1 $21 #
body $-1 $22 $-1 $23 #
body $-1 $24 $-1 $25 #
body $-1 $26 $-1 $27 #
body $-1 $28 $-1 $29 #
body $-1 $30 $-1 $31 #
body $-1 $32 $-1 $33 #
body $-1 $34 $-1 $35 #
lump $-1 $-1 $36 $0 #
transform $-1 1 0 0 0 1 0 0 0 1 51.041596728415783 30.919521651092364 14.646173632102418 1 rotate no_reflect no_shear #
lump $-1 $-1 $37 $1 #
transform $-1 1 0 0 0 1 0 0 0 1 51.041596728415783 30.919521651092364 14.646173632102418 1 rotate no_reflect no_shear #
lump $-1 $-1 $38 $2 #
transform $-1 1 0 0 0 1 0 0 0 1 51.041596728415783 30.919521651092364 14.646173632102418 1 rotate no_reflect no_shear #
lump $-1 $-1 $39 $3 #
transform $-1 1 0 0 0 1 0 0 0 1 51.041596728415783 30.919521651092364 14.646173632102418 1 rotate no_reflect no_shear #
lump $-1 $-1 $40 $4 #
transform $-1 1 0 0 0 1 0 0 0 1 51.041596728415783 30.919521651092364 14.646173632102418 1 rotate no_reflect no_shear #
lump $-1 $-1 $41 $5 #
transform $-1 1 0 0 0 1 0 0 0 1 51.041596728415783 30.919521651092364 14.646173632102418 1 rotate no_reflect no_shear #
lump $-1 $-1 $42 $6 #
transform $-1 1 0 0 0 1 0 0 0 1 51.041596728415783 30.919521651092364 14.646173632102418 1 rotate no_reflect no_shear #
lump $-1 $-1 $43 $7 #
transform $-1 1 0 0 0 1 0 0 0 1 51.041596728415783 30.919521651092364 14.646173632102418 1 rotate no_reflect no_shear #
lump $-1 $-1 $44 $8 #
transform $-1 1 0 0 0 1 0 0 0 1 51.041596728415783 30.919521651092364 14.646173632102418 1 rotate no_reflect no_shear #
lump $-1 $-1 $45 $9 #
transform $-1 1 0 0 0 1 0 0 0 1 51.041596728415783 30.919521651092364 14.646173632102418 1 rotate no_reflect no_shear #
lump $-1 $-1 $46 $10 #
transform $-1 1 0 0 0 1 0 0 0 1 51.041596728415783 30.919521651092364 14.646173632102418 1 rotate no_reflect no_shear #
lump $-1 $-1 $47 $11 #
transform $-1 1 0 0 0 1 0 0 0 1 51.041596728415783 30.919521651092364 14.646173632102418 1 rotate no_reflect no_shear #
shell $-1 $-1 $-1 $48 $-1 $12 #
shell $-1 $-1 $-1 $49 $-1 $14 #
shell $-1 $-1 $-1 $50 $-1 $16 #
shell $-1 $-1 $-1 $51 $-1 $18 #
shell $-1 $-1 $-1 $52 $-1 $20 #
shell $-1 $-1 $-1 $53 $-1 $22 #
shell $-1 $-1 $-1 $54 $-1 $24 #
shell $-1 $-1 $-1 $55 $-1 $26 #
shell $-1 $-1 $-1 $56 $-1 $28 #
shell $-1 $-1 $-1 $57 $-1 $30 #
shell $-1 $-1 $-1 $58 $-1 $32 #
shell $-1 $-1 $-1 $59 $-1 $34 #
face $-1 $60 $61 $36 $-1 $62 forward single #
face $-1 $63 $64 $37 $-1 $65 forward single #
face $-1 $66 $67 $38 $-1 $68 reversed single #
face $-1 $69 $70 $39 $-1 $71 forward single #
face $-1 $72 $73 $40 $-1 $74 reversed single #
face $-1 $75 $76 $41 $-1 $77 forward single #
face $-1 $78 $79 $42 $-1 $80 reversed single #
face $-1 $81 $82 $43 $-1 $83 forward single #
face $-1 $84 $85 $44 $-1 $86 reversed single #
face $-1 $87 $88 $45 $-1 $89 forward single #
face $-1 $90 $91 $46 $-1 $92 reversed single #
face $-1 $93 $94 $47 $-1 $95 forward single #
face $-1 $96 $97 $36 $-1 $98 reversed single #
loop $-1 $-1 $99 $48 #
plane-surface $-1 0 0 14.646173632102418 0 0 1 1 0 0 forward_v I I I I #
face $-1 $100 $101 $37 $-1 $102 reversed single #
loop $-1 $-1 $103 $49 #
plane-surface $-1 0 -30.919521651092364 0 0 1 0 0 0 1 forward_v I I I I #
face $-1 $104 $105 $38 $-1 $106 reversed single #
loop $-1 $-1 $107 $50 #
plane-surface $-1 -123.22531590443489 -11.826434673038211 74.943228352749173 0 1 0 -0.70710678939079041 0 0.70710677298230451 forward_v I I I I #
face $-1 $108 $109 $39 $-1 $110 forward single #
loop $-1 $111 $112 $51 #
cone-surface $-1 -43.635529615328572 -5.0281250155423791 7.2401064150425265 0.70710678939079041 0 -0.70710677298230451 1.7677669324557612 0 1.7677669734769761 1 I I 0 1 2.5 forward I I I I #
face $-1 $113 $114 $40 $-1 $115 reversed single #
loop $-1 $-1 $116 $52 #
plane-surface $-1 66.132104918122266 -9.4984446387819013 152.06125494932866 0 -1 0 -0.77714596973225614 0 -0.62932038083071107 forward_v I I I I #
face $-1 $117 $118 $41 $-1 $119 forward single #
loop $-1 $120 $121 $53 #
cone-surface $-1 47.297522138467336 -13.406725652278311 10.553734970967328 -0.77714596973225614 0 -0.62932038083071107 0.62932038083071107 0 -0.77714596973225614 1 I I 0 1 1 forward I I I I #
face $-1 $122 $123 $42 $-1 $124 reversed single #
loop $-1 $-1 $125 $54 #
plane-surface $-1 66.132104918122266 3.9742107911761835 152.06125494932866 0 -1 0 -0.77714596973225614 0 -0.62932038083071107 forward_v I I I I #
face $-1 $126 $127 $43 $-1 $128 forward single #
loop $-1 $129 $130 $55 #
cone-surface $-1 47.297522138467336 0.065929777679773593 10.553734970967328 -0.77714596973225614 0 -0.62932038083071107 0.62932038083071107 0 -0.77714596973225614 1 I I 0 1 1 forward I I I I #
face $-1 $131 $132 $44 $-1 $133 reversed single #
loop $-1 $-1 $134 $56 #
plane-surface $-1 66.132104918122266 17.446866221134272 152.06125494932866 0 -1 0 -0.77714596973225614 0 -0.62932038083071107 forward_v I I I I #
face $-1 $135 $136 $45 $-1 $137 forward single #
loop $-1 $138 $139 $57 #
cone-surface $-1 47.297522138467336 13.538585207637862 10.553734970967328 -0.77714596973225614 0 -0.62932038083071107 0.62932038083071107 0 -0.77714596973225614 1 I I 0 1 1 forward I I I I #
face $-1 $140 $141 $46 $-1 $142 reversed single #
loop $-1 $-1 $143 $58 #
plane-surface $-1 66.132104918122266 23.10295962409954 152.06125494932866 0 1 0 0.77714596973225614 0 0.62932038083071107 forward_v I I I I #
face $-1 $144 $145 $47 $-1 $146 forward single #
loop $-1 $147 $148 $59 #
cone-surface $-1 47.297522138467336 27.01124063759595 10.553734970967328 -0.77714596973225614 0 -0.62932038083071107 0.62932038083071107 0 -0.77714596973225614 1 I I 0 1 1 forward I I I I #
face $-1 $149 $150 $36 $-1 $151 reversed single #
loop $-1 $-1 $152 $60 #
plane-surface $-1 0 0 -14.646173632102418 0 0 1 1 0 0 forward_v I I I I #
coedge $-1 $153 $154 $155 $156 forward $61 $-1 #
face $-1 $157 $158 $37 $-1 $159 forward single #
loop $-1 $-1 $160 $63 #
plane-surface $-1 -51.041596728415783 0 0 1 0 0 0 0 -1 forward_v I I I I #
coedge $-1 $161 $162 $163 $164 forward $64 $-1 #
face $-1 $165 $166 $38 $-1 $167 reversed single #
loop $-1 $-1 $168 $66 #
plane-surface $-1 -51.041596728415783 -5.0281250155423791 2.7595108517607088 -0.70710678939079041 0 0.70710677298230451 0.70710677298230451 0 0.70710678939079041 forward_v I I I I #
coedge $-1 $169 $170 $171 $172 reversed $67 $-1 #
face $-1 $-1 $173 $39 $-1 $174 forward single #
loop $-1 $175 $176 $69 #
cone-surface $-1 -41.288910267758112 -5.0281250155423791 4.8934871219256095 0.70710678939079041 0 -0.70710677298230451 0.88388346622788061 0 0.88388348673848804 1 I I -0.70710678118654746 0.70710678118654746 1.25 forward I I I I #
loop $-1 $-1 $177 $51 #
coedge $-1 $112 $112 $178 $179 reversed $70 $-1 #
face $-1 $180 $181 $40 $-1 $182 reversed single #
loop $-1 $-1 $183 $72 #
plane-surface $-1 -13.201437454252613 -13.406725652278311 87.818220766660261 0.77714596973225614 0 0.62932038083071107 0.62932038083071107 0 -0.77714596973225614 forward_v I I I I #
coedge $-1 $184 $185 $186 $187 reversed $73 $-1 #
face $-1 $-1 $188 $41 $-1 $189 forward single #
loop $-1 $190 $191 $75 #
cone-surface $-1 45.659614728673191 -13.406725652278311 9.2273837383253863 -0.77714596973225614 0 -0.62932038083071107 0.31466019041535553 0 -0.38857298486612807 1 I I -0.70710678118654746 0.70710678118654746 0.5 forward I I I I #
loop $-1 $-1 $192 $53 #
coedge $-1 $121 $121 $193 $194 reversed $76 $-1 #
face $-1 $195 $196 $42 $-1 $197 reversed single #
loop $-1 $-1 $198 $78 #
plane-surface $-1 -13.201437454252613 0.065929777679773593 87.818220766660261 0.77714596973225614 0 0.62932038083071107 0.62932038083071107 0 -0.77714596973225614 forward_v I I I I #
coedge $-1 $199 $200 $201 $202 reversed $79 $-1 #
face $-1 $-1 $203 $43 $-1 $204 forward single #
loop $-1 $205 $206 $81 #
cone-surface $-1 45.659614728673191 0.065929777679773593 9.2273837383253863 -0.77714596973225614 0 -0.62932038083071107 0.31466019041535553 0 -0.38857298486612807 1 I I -0.70710678118654746 0.70710678118654746 0.5 forward I I I I #
loop $-1 $-1 $207 $55 #
coedge $-1 $130 $130 $208 $209 reversed $82 $-1 #
face $-1 $210 $211 $44 $-1 $212 reversed single #
loop $-1 $-1 $213 $84 #
plane-surface $-1 -13.201437454252613 13.538585207637862 87.818220766660261 0.77714596973225614 0 0.62932038083071107 0.62932038083071107 0 -0.77714596973225614 forward_v I I I I #
coedge $-1 $214 $215 $216 $217 reversed $85 $-1 #
face $-1 $-1 $218 $45 $-1 $219 forward single #
loop $-1 $220 $221 $87 #
cone-surface $-1 45.659614728673191 13.538585207637862 9.2273837383253863 -0.77714596973225614 0 -0.62932038083071107 0.31466019041535553 0 -0.38857298486612807 1 I I -0.70710678118654746 0.70710678118654746 0.5 forward I I I I #
loop $-1 $-1 $222 $57 #
coedge $-1 $139 $139 $223 $224 reversed $88 $-1 #
face $-1 $225 $226 $46 $-1 $227 reversed single #
loop $-1 $-1 $228 $90 #
plane-surface $-1 -13.201437454252613 27.01124063759595 87.818220766660261 0.77714596973225614 0 0.62932038083071107 0.62932038083071107 0 -0.77714596973225614 forward_v I I I I #
coedge $-1 $229 $230 $231 $232 reversed $91 $-1 #
face $-1 $-1 $233 $47 $-1 $234 forward single #
loop $-1 $235 $236 $93 #
cone-surface $-1 45.659614728673191 27.01124063759595 9.2273837383253863 -0.77714596973225614 0 -0.62932038083071107 0.31466019041535553 0 -0.38857298486612807 1 I I -0.70710678118654746 0.70710678118654746 0.5 forward I I I I #
loop $-1 $-1 $237 $59 #
coedge $-1 $148 $148 $238 $239 reversed $94 $-1 #
face $-1 $240 $241 $36 $-1 $242 reversed single #
loop $-1 $-1 $243 $96 #
plane-surface $-1 0 -30.919521651092364 0 0 1 0 0 0 1 forward_v I I I I #
coedge $-1 $244 $245 $246 $247 forward $97 $-1 #
coedge $-1 $248 $99 $249 $250 forward $61 $-1 #
coedge $-1 $99 $248 $251 $252 forward $61 $-1 #
coedge $-1 $253 $254 $99 $156 reversed $255 $-1 #
edge $-1 $256 -30.919521651092364 $257 30.919521651092364 $155 $258 forward 7 unknown #
face $-1 $259 $260 $37 $-1 $261 reversed single #
loop $-1 $-1 $262 $100 #
plane-surface $-1 0 -37.721779143751185 -5.0083477678990889 0 0 1 1 0 0 forward_v I I I I #
coedge $-1 $263 $264 $162 $265 forward $101 $-1 #
coedge $-1 $266 $103 $267 $268 reversed $64 $-1 #
coedge $-1 $103 $266 $160 $265 reversed $64 $-1 #
coedge $-1 $269 $262 $103 $164 reversed $158 $-1 #
edge $-1 $270 -51.041596728415783 $271 51.041596728415783 $163 $272 forward 7 unknown #
face $-1 $273 $274 $38 $-1 $275 forward single #
loop $-1 $-1 $276 $104 #
plane-surface $-1 -123.22531590443489 1.7701846419534526 74.943228352749173 0 -1 0 0.70710678939079041 0 -0.70710677298230451 forward_v I I I I #
coedge $-1 $277 $278 $279 $280 reversed $105 $-1 #
coedge $-1 $170 $107 $281 $282 reversed $67 $-1 #
coedge $-1 $107 $169 $277 $283 reversed $67 $-1 #
coedge $-1 $279 $284 $107 $172 forward $274 $-1 #
edge $-1 $285 10.571061223801664 $286 22.457723728312139 $171 $287 forward 7 unknown #
loop $-1 $-1 $178 $108 #
plane-surface $-1 -51.041596728415783 -5.0281250155423791 2.7595108517607088 -0.70710678939079041 0 0.70710677298230451 0.70710677298230451 0 0.70710678939079041 forward_v I I I I #
loop $-1 $-1 $288 $69 #
coedge $-1 $176 $176 $177 $289 reversed $109 $-1 #
coedge $-1 $177 $177 $176 $289 forward $111 $-1 #
coedge $-1 $178 $178 $112 $179 forward $173 $-1 #
edge $-1 $290 0 $290 6.2831853071796004 $178 $291 forward 7 unknown #
face $-1 $292 $293 $40 $-1 $294 reversed single #
loop $-1 $-1 $295 $113 #
plane-surface $-1 66.132104918122266 -17.315006665774721 152.06125494932866 0 1 0 0.77714596973225614 0 0.62932038083071107 forward_v I I I I #
coedge $-1 $296 $297 $298 $299 reversed $114 $-1 #
coedge $-1 $185 $116 $300 $301 reversed $73 $-1 #
coedge $-1 $116 $184 $296 $302 reversed $73 $-1 #
coedge $-1 $298 $303 $116 $187 forward $304 $-1 #
edge $-1 $305 -17.97554426935465 $306 -12.98606393931378 $186 $307 forward 7 unknown #
loop $-1 $-1 $193 $117 #
plane-surface $-1 -13.201437454252613 -13.406725652278311 87.818220766660261 0.77714596973225614 0 0.62932038083071107 0.62932038083071107 0 -0.77714596973225614 forward_v I I I I #
loop $-1 $-1 $308 $75 #
coedge $-1 $191 $191 $192 $309 reversed $118 $-1 #
coedge $-1 $192 $192 $191 $309 forward $120 $-1 #
coedge $-1 $193 $193 $121 $194 forward $188 $-1 #
edge $-1 $310 0 $310 6.2831853071796004 $193 $311 forward 7 unknown #
face $-1 $312 $313 $42 $-1 $314 reversed single #
loop $-1 $-1 $315 $122 #
plane-surface $-1 66.132104918122266 -3.8423512358166363 152.06125494932866 0 1 0 0.77714596973225614 0 0.62932038083071107 forward_v I I I I #
coedge $-1 $316 $317 $318 $319 reversed $123 $-1 #
coedge $-1 $200 $125 $320 $321 reversed $79 $-1 #
coedge $-1 $125 $199 $316 $322 reversed $79 $-1 #
coedge $-1 $318 $323 $125 $202 forward $324 $-1 #
edge $-1 $325 -17.97554426935465 $326 -12.98606393931378 $201 $327 forward 7 unknown #
loop $-1 $-1 $208 $126 #
plane-surface $-1 -13.201437454252613 0.065929777679773593 87.818220766660261 0.77714596973225614 0 0.62932038083071107 0.62932038083071107 0 -0.77714596973225614 forward_v I I I I #
loop $-1 $-1 $328 $81 #
coedge $-1 $206 $206 $207 $329 reversed $127 $-1 #
coedge $-1 $207 $207 $206 $329 forward $129 $-1 #
coedge $-1 $208 $208 $130 $209 forward $203 $-1 #
edge $-1 $330 0 $330 6.2831853071796004 $208 $331 forward 7 unknown #
face $-1 $332 $333 $44 $-1 $334 reversed single #
loop $-1 $-1 $335 $131 #
plane-surface $-1 66.132104918122266 9.630304194141452 152.06125494932866 0 1 0 0.77714596973225614 0 0.62932038083071107 forward_v I I I I #
coedge $-1 $336 $337 $338 $339 reversed $132 $-1 #
coedge $-1 $215 $134 $340 $341 reversed $85 $-1 #
coedge $-1 $134 $214 $336 $342 reversed $85 $-1 #
coedge $-1 $338 $343 $134 $217 forward $344 $-1 #
edge $-1 $345 -17.97554426935465 $346 -12.98606393931378 $216 $347 forward 7 unknown #
loop $-1 $-1 $223 $135 #
plane-surface $-1 -13.201437454252613 13.538585207637862 87.818220766660261 0.77714596973225614 0 0.62932038083071107 0.62932038083071107 0 -0.77714596973225614 forward_v I I I I #
loop $-1 $-1 $348 $87 #
coedge $-1 $221 $221 $222 $349 reversed $136 $-1 #
coedge $-1 $222 $222 $221 $349 forward $138 $-1 #
coedge $-1 $223 $223 $139 $224 forward $218 $-1 #
edge $-1 $350 0 $350 6.2831853071796004 $223 $351 forward 7 unknown #
face $-1 $352 $353 $46 $-1 $354 reversed single #
loop $-1 $-1 $231 $140 #
plane-surface $-1 51.041596728415783 0 0 -1 0 0 0 0 1 forward_v I I I I #
coedge $-1 $355 $356 $357 $358 reversed $141 $-1 #
coedge $-1 $230 $143 $359 $360 reversed $91 $-1 #
coedge $-1 $143 $229 $355 $361 reversed $91 $-1 #
coedge $-1 $357 $362 $143 $232 forward $226 $-1 #
edge $-1 $363 61.384453842561911 $364 67.545949080378946 $231 $365 forward 7 unknown #
loop $-1 $-1 $238 $144 #
plane-surface $-1 -13.201437454252613 27.01124063759595 87.818220766660261 0.77714596973225614 0 0.62932038083071107 0.62932038083071107 0 -0.77714596973225614 forward_v I I I I #
loop $-1 $-1 $366 $93 #
coedge $-1 $236 $236 $237 $367 reversed $145 $-1 #
coedge $-1 $237 $237 $236 $367 forward $147 $-1 #
coedge $-1 $238 $238 $148 $239 forward $233 $-1 #
edge $-1 $368 0 $368 6.2831853071796004 $238 $369 forward 7 unknown #
face $-1 $370 $371 $36 $-1 $372 reversed single #
loop $-1 $-1 $373 $149 #
plane-surface $-1 -51.041596728415783 0 0 1 0 0 0 0 -1 forward_v I I I I #
coedge $-1 $374 $251 $375 $376 forward $150 $-1 #
coedge $-1 $377 $152 $374 $378 forward $97 $-1 #
coedge $-1 $152 $377 $379 $380 forward $97 $-1 #
coedge $-1 $254 $253 $152 $247 reversed $255 $-1 #
edge $-1 $381 -30.919521651092364 $382 30.919521651092364 $246 $383 forward 7 unknown #
coedge $-1 $154 $153 $384 $385 forward $61 $-1 #
coedge $-1 $386 $387 $153 $250 reversed $371 $-1 #
edge $-1 $257 -51.041596728415783 $388 51.041596728415783 $249 $389 forward 7 unknown #
coedge $-1 $243 $390 $154 $252 reversed $150 $-1 #
edge $-1 $391 -51.041596728415783 $256 51.041596728415783 $251 $392 forward 7 unknown #
coedge $-1 $246 $155 $390 $393 forward $255 $-1 #
coedge $-1 $155 $246 $386 $394 reversed $255 $-1 #
loop $-1 $-1 $253 $370 #
vertex $-1 $156 $395 #
vertex $-1 $156 $396 #
straight-curve $-1 51.041596728415783 0 14.646173632102418 0 1 0 I I #
face $-1 $397 $398 $37 $-1 $399 reversed single #
loop $-1 $-1 $400 $157 #
plane-surface $-1 0 -37.721779143751185 -9.3444948184385215 0 0 1 1 0 0 forward_v I I I I #
coedge $-1 $163 $401 $402 $403 forward $158 $-1 #
coedge $-1 $404 $160 $405 $406 reversed $101 $-1 #
coedge $-1 $160 $404 $269 $407 reversed $101 $-1 #
edge $-1 $270 5.0083477678990889 $408 9.3444948184385215 $160 $409 forward 7 unknown #
coedge $-1 $162 $161 $410 $411 forward $64 $-1 #
coedge $-1 $402 $412 $161 $268 forward $413 $-1 #
edge $-1 $414 -9.3444948184385215 $271 -5.0083477678990889 $267 $415 forward 7 unknown #
coedge $-1 $401 $163 $264 $407 forward $158 $-1 #
vertex $-1 $265 $416 #
vertex $-1 $403 $417 #
straight-curve $-1 0 -30.919521651092364 -5.0083477678990889 1 0 0 I I #
face $-1 $-1 $418 $38 $-1 $419 reversed single #
loop $-1 $-1 $171 $165 #
plane-surface $-1 0 0 14.646173632102418 0 0 1 1 0 0 forward_v I I I I #
coedge $-1 $420 $421 $422 $423 reversed $166 $-1 #
coedge $-1 $424 $168 $170 $283 forward $105 $-1 #
coedge $-1 $168 $424 $420 $425 forward $105 $-1 #
coedge $-1 $422 $171 $168 $280 forward $274 $-1 #
edge $-1 $286 -9.3123721652670213 $426 4.2842471497246422 $279 $427 forward 7 unknown #
coedge $-1 $428 $429 $169 $282 forward $418 $-1 #
edge $-1 $430 -34.712103324613878 $285 -22.825440544272169 $281 $431 forward 7 unknown #
edge $-1 $286 -16.810279520272598 $430 0 $170 $432 forward 7 unknown #
coedge $-1 $171 $422 $428 $433 forward $274 $-1 #
vertex $-1 $282 $434 #
vertex $-1 $172 $435 #
straight-curve $-1 -61.612657952217447 -11.826434673038211 14.646173632102418 1 0 0 I I #
coedge $-1 $288 $288 $-1 $436 reversed $175 $-1 #
edge $-1 $437 0 $437 6.2831853071796004 $176 $438 forward 7 unknown #
vertex $-1 $179 $439 #
ellipse-curve $-1 -45.098265476160549 -5.0281250155423791 8.7028422419315632 -0.70710678939079041 0 0.70710677298230451 1.7677669324557612 0 1.7677669734769761 1 I I #
face $-1 $-1 $304 $40 $-1 $440 forward single #
loop $-1 $-1 $441 $180 #
plane-surface $-1 51.041596728415783 0 0 -1 0 0 0 0 1 forward_v I I I I #
coedge $-1 $442 $443 $444 $445 reversed $181 $-1 #
coedge $-1 $446 $183 $185 $302 forward $114 $-1 #
coedge $-1 $183 $446 $442 $447 forward $114 $-1 #
coedge $-1 $444 $186 $183 $299 forward $304 $-1 #
edge $-1 $306 2.7950818126427457 $448 10.611643839635565 $298 $449 forward 7 unknown #
coedge $-1 $450 $451 $184 $301 forward $293 $-1 #
edge $-1 $452 -67.545949080378946 $305 -61.384453842561911 $300 $453 forward 7 unknown #
edge $-1 $306 94.154830603788909 $452 102.08319345683157 $185 $454 forward 7 unknown #
coedge $-1 $186 $444 $450 $455 forward $304 $-1 #
loop $-1 $-1 $444 $292 #
vertex $-1 $301 $456 #
vertex $-1 $187 $457 #
straight-curve $-1 33.066052459061133 -9.4984446387819013 14.646173632102418 -1 0 0 I I #
coedge $-1 $308 $308 $-1 $458 reversed $190 $-1 #
edge $-1 $459 0 $459 6.2831853071796004 $191 $460 forward 7 unknown #
vertex $-1 $194 $461 #
ellipse-curve $-1 48.546856563395345 -13.406725652278311 11.565426013193907 0.77714596973225614 0 0.62932038083071107 0.62932038083071107 0 -0.77714596973225614 1 I I #
face $-1 $-1 $324 $42 $-1 $462 forward single #
loop $-1 $-1 $463 $195 #
plane-surface $-1 51.041596728415783 0 0 -1 0 0 0 0 1 forward_v I I I I #
coedge $-1 $464 $465 $466 $467 reversed $196 $-1 #
coedge $-1 $468 $198 $200 $322 forward $123 $-1 #
coedge $-1 $198 $468 $464 $469 forward $123 $-1 #
coedge $-1 $466 $201 $198 $319 forward $324 $-1 #
edge $-1 $326 -3.9412459023362967 $470 3.8753161246565231 $318 $471 forward 7 unknown #
coedge $-1 $472 $473 $199 $321 forward $313 $-1 #
edge $-1 $474 -67.545949080378946 $325 -61.384453842561911 $320 $475 forward 7 unknown #
edge $-1 $326 94.154830603788909 $474 102.08319345683157 $200 $476 forward 7 unknown #
coedge $-1 $201 $466 $472 $477 forward $324 $-1 #
loop $-1 $-1 $466 $312 #
vertex $-1 $321 $478 #
vertex $-1 $202 $479 #
straight-curve $-1 33.066052459061133 3.9742107911761835 14.646173632102418 -1 0 0 I I #
coedge $-1 $328 $328 $-1 $480 reversed $205 $-1 #
edge $-1 $481 0 $481 6.2831853071796004 $206 $482 forward 7 unknown #
vertex $-1 $209 $483 #
ellipse-curve $-1 48.546856563395345 0.065929777679773593 11.565426013193907 0.77714596973225614 0 0.62932038083071107 0.62932038083071107 0 -0.77714596973225614 1 I I #
face $-1 $-1 $344 $44 $-1 $484 forward single #
loop $-1 $-1 $485 $210 #
plane-surface $-1 51.041596728415783 0 0 -1 0 0 0 0 1 forward_v I I I I #
coedge $-1 $486 $487 $488 $489 reversed $211 $-1 #
coedge $-1 $490 $213 $215 $342 forward $132 $-1 #
coedge $-1 $213 $490 $486 $491 forward $132 $-1 #
coedge $-1 $488 $216 $213 $339 forward $344 $-1 #
edge $-1 $346 -10.677573617315341 $492 -2.8610115903225211 $338 $493 forward 7 unknown #
coedge $-1 $494 $495 $214 $341 forward $333 $-1 #
edge $-1 $496 -67.545949080378946 $345 -61.384453842561911 $340 $497 forward 7 unknown #
edge $-1 $346 94.154830603788909 $496 102.08319345683157 $215 $498 forward 7 unknown #
coedge $-1 $216 $488 $494 $499 forward $344 $-1 #
loop $-1 $-1 $488 $332 #
vertex $-1 $341 $500 #
vertex $-1 $217 $501 #
straight-curve $-1 33.066052459061133 17.446866221134272 14.646173632102418 -1 0 0 I I #
coedge $-1 $348 $348 $-1 $502 reversed $220 $-1 #
edge $-1 $503 0 $503 6.2831853071796004 $221 $504 forward 7 unknown #
vertex $-1 $224 $505 #
ellipse-curve $-1 48.546856563395345 13.538585207637862 11.565426013193907 0.77714596973225614 0 0.62932038083071107 0.62932038083071107 0 -0.77714596973225614 1 I I #
face $-1 $-1 $506 $46 $-1 $507 forward single #
loop $-1 $-1 $508 $225 #
plane-surface $-1 0 30.919521651092364 0 0 -1 0 0 0 -1 forward_v I I I I #
coedge $-1 $509 $228 $230 $361 forward $141 $-1 #
coedge $-1 $228 $509 $508 $510 reversed $141 $-1 #
coedge $-1 $511 $231 $228 $358 forward $226 $-1 #
edge $-1 $364 9.5973393053015652 $512 17.413901332294387 $357 $513 forward 7 unknown #
coedge $-1 $514 $515 $229 $360 forward $506 $-1 #
edge $-1 $516 12.98606393931378 $363 17.97554426935465 $359 $517 forward 7 unknown #
edge $-1 $364 -102.08319345683157 $516 -94.154830603788909 $230 $518 forward 7 unknown #
coedge $-1 $231 $511 $514 $519 reversed $226 $-1 #
vertex $-1 $519 $520 #
vertex $-1 $232 $521 #
straight-curve $-1 51.041596728415783 23.10295962409954 76.030627474664328 0 0 -1 I I #
coedge $-1 $366 $366 $-1 $522 reversed $235 $-1 #
edge $-1 $523 0 $523 6.2831853071796004 $236 $524 forward 7 unknown #
vertex $-1 $239 $525 #
ellipse-curve $-1 48.546856563395345 27.01124063759595 11.565426013193907 0.77714596973225614 0 0.62932038083071107 0.62932038083071107 0 -0.77714596973225614 1 I I #
face $-1 $-1 $255 $36 $-1 $526 reversed single #
loop $-1 $-1 $386 $240 #
plane-surface $-1 0 30.919521651092364 0 0 -1 0 0 0 -1 forward_v I I I I #
coedge $-1 $527 $384 $387 $528 forward $241 $-1 #
coedge $-1 $390 $243 $244 $378 reversed $150 $-1 #
coedge $-1 $384 $527 $243 $376 reversed $241 $-1 #
edge $-1 $391 -14.646173632102418 $529 14.646173632102418 $375 $530 forward 7 unknown #
coedge $-1 $245 $244 $527 $531 forward $97 $-1 #
edge $-1 $382 -51.041596728415783 $529 51.041596728415783 $374 $532 forward 7 unknown #
coedge $-1 $387 $386 $245 $380 reversed $371 $-1 #
edge $-1 $533 -51.041596728415783 $381 51.041596728415783 $379 $534 forward 7 unknown #
vertex $-1 $247 $535 #
vertex $-1 $393 $536 #
straight-curve $-1 51.041596728415783 0 -14.646173632102418 0 -1 0 I I #
coedge $-1 $373 $375 $248 $385 reversed $241 $-1 #
edge $-1 $388 -30.919521651092364 $391 30.919521651092364 $384 $537 forward 7 unknown #
coedge $-1 $379 $249 $254 $394 forward $371 $-1 #
coedge $-1 $249 $379 $373 $528 reversed $371 $-1 #
vertex $-1 $250 $538 #
straight-curve $-1 0 30.919521651092364 14.646173632102418 -1 0 0 I I #
coedge $-1 $251 $374 $253 $393 reversed $150 $-1 #
vertex $-1 $385 $539 #
straight-curve $-1 0 -30.919521651092364 14.646173632102418 1 0 0 I I #
edge $-1 $256 -14.646173632102418 $382 14.646173632102418 $253 $540 forward 7 unknown #
edge $-1 $257 -14.646173632102418 $381 14.646173632102418 $254 $541 forward 7 unknown #
point $-1 51.041596728415783 -30.919521651092364 14.646173632102418 #
point $-1 51.041596728415783 30.919521651092364 14.646173632102418 #
face $-1 $-1 $413 $37 $-1 $542 reversed single #
loop $-1 $-1 $543 $259 #
plane-surface $-1 0 -44.524036636410003 -7.1764212931688052 0 1 0 0 0 1 forward_v I I I I #
coedge $-1 $544 $410 $412 $545 forward $260 $-1 #
coedge $-1 $262 $269 $546 $547 forward $158 $-1 #
coedge $-1 $548 $267 $262 $403 reversed $413 $-1 #
edge $-1 $549 -6.8022574926588177 $271 6.8022574926588213 $402 $550 forward 7 unknown #
coedge $-1 $264 $263 $543 $551 reversed $101 $-1 #
coedge $-1 $410 $544 $263 $406 forward $260 $-1 #
edge $-1 $552 -6.8022574926588177 $408 6.8022574926588213 $263 $553 forward 7 unknown #
edge $-1 $270 -6.8022574926588213 $554 6.8022574926588177 $264 $555 forward 7 unknown #
vertex $-1 $265 $556 #
straight-curve $-1 -51.041596728415783 -30.919521651092364 0 0 0 -1 I I #
coedge $-1 $400 $405 $266 $411 reversed $260 $-1 #
edge $-1 $414 -51.041596728415783 $408 51.041596728415783 $410 $557 forward 7 unknown #
coedge $-1 $267 $548 $400 $545 reversed $413 $-1 #
loop $-1 $-1 $267 $397 #
vertex $-1 $268 $558 #
straight-curve $-1 51.041596728415783 -30.919521651092364 0 0 0 1 I I #
point $-1 -51.041596728415783 -30.919521651092364 -5.0083477678990889 #
point $-1 51.041596728415783 -30.919521651092364 -5.0083477678990889 #
loop $-1 $-1 $281 $273 #
plane-surface $-1 -51.041596728415783 0 0 1 0 0 0 0 -1 forward_v I I I I #
coedge $-1 $421 $276 $278 $425 reversed $166 $-1 #
coedge $-1 $276 $420 $559 $560 reversed $166 $-1 #
coedge $-1 $284 $279 $276 $423 forward $274 $-1 #
edge $-1 $426 -22.457723728312139 $561 -10.571061223801664 $422 $562 forward 7 unknown #
coedge $-1 $278 $277 $429 $563 reversed $105 $-1 #
edge $-1 $564 0 $426 16.810279520272598 $420 $565 forward 7 unknown #
vertex $-1 $280 $566 #
straight-curve $-1 -39.1549342239053 -2.5140625077711896 14.646173632102418 0 1 0 I I #
coedge $-1 $559 $281 $284 $433 reversed $418 $-1 #
coedge $-1 $281 $559 $424 $563 forward $418 $-1 #
vertex $-1 $282 $567 #
straight-curve $-1 -51.041596728415783 -11.826434673038211 37.471614176374587 0 0 1 I I #
straight-curve $-1 -51.041596728415783 -11.826434673038211 2.7595108517607088 -0.70710677298230451 0 -0.70710678939079041 I I #
edge $-1 $561 -1.7701846419534526 $285 11.826434673038211 $428 $568 forward 7 unknown #
point $-1 -51.041596728415783 -11.826434673038211 14.646173632102418 #
point $-1 -39.154934223905308 -11.826434673038211 14.646173632102419 #
edge $-1 $569 1 $569 0 $288 $-1 forward 7 unknown #
vertex $-1 $289 $570 #
ellipse-curve $-1 -42.172793754496603 -5.0281250155423791 5.7773705881534898 -0.70710678939079041 0 0.70710677298230451 1.7677669324557612 0 1.7677669734769761 1 I I #
point $-1 -43.330498543704785 -5.0281250155423791 10.470609215408539 #
plane-surface $-1 0 0 14.646173632102418 0 0 1 1 0 0 forward_v I I I I #
coedge $-1 $451 $450 $443 $571 forward $293 $-1 #
coedge $-1 $443 $295 $297 $447 reversed $181 $-1 #
coedge $-1 $295 $442 $441 $571 reversed $181 $-1 #
coedge $-1 $303 $298 $295 $445 forward $304 $-1 #
edge $-1 $448 12.98606393931378 $572 17.97554426935465 $444 $573 forward 7 unknown #
coedge $-1 $297 $296 $451 $574 reversed $114 $-1 #
edge $-1 $575 -102.08319345683157 $448 -94.154830603788909 $442 $576 forward 7 unknown #
vertex $-1 $299 $577 #
straight-curve $-1 46.052116398374913 -6.7033628261391556 14.646173632102418 0 -1 0 I I #
coedge $-1 $441 $300 $303 $455 reversed $293 $-1 #
coedge $-1 $300 $441 $446 $574 forward $293 $-1 #
vertex $-1 $301 $578 #
straight-curve $-1 51.041596728415783 -9.4984446387819013 76.030627474664328 0 0 1 I I #
straight-curve $-1 -13.201437454252613 -9.4984446387819013 87.818220766660261 0.62932038083071107 0 -0.77714596973225614 I I #
edge $-1 $572 -17.315006665774721 $305 -9.4984446387819013 $450 $579 forward 7 unknown #
point $-1 51.041596728415783 -9.4984446387819013 14.646173632102418 #
point $-1 46.052116398374913 -9.4984446387819013 14.646173632102418 #
edge $-1 $580 1 $580 0 $308 $-1 forward 7 unknown #
vertex $-1 $309 $581 #
ellipse-curve $-1 46.04818771353932 -13.406725652278311 9.5420439287407426 0.77714596973225614 0 0.62932038083071107 0.62932038083071107 0 -0.77714596973225614 1 I I #
point $-1 49.176176944226064 -13.406725652278311 10.788280043461658 #
plane-surface $-1 0 0 14.646173632102418 0 0 1 1 0 0 forward_v I I I I #
coedge $-1 $473 $472 $465 $582 forward $313 $-1 #
coedge $-1 $465 $315 $317 $469 reversed $196 $-1 #
coedge $-1 $315 $464 $463 $582 reversed $196 $-1 #
coedge $-1 $323 $318 $315 $467 forward $324 $-1 #
edge $-1 $470 12.98606393931378 $583 17.97554426935465 $466 $584 forward 7 unknown #
coedge $-1 $317 $316 $473 $585 reversed $123 $-1 #
edge $-1 $586 -102.08319345683157 $470 -94.154830603788909 $464 $587 forward 7 unknown #
vertex $-1 $319 $588 #
straight-curve $-1 46.052116398374913 0.032964888839886797 14.646173632102418 0 -1 0 I I #
coedge $-1 $463 $320 $323 $477 reversed $313 $-1 #
coedge $-1 $320 $463 $468 $585 forward $313 $-1 #
vertex $-1 $321 $589 #
straight-curve $-1 51.041596728415783 3.9742107911761835 76.030627474664328 0 0 1 I I #
straight-curve $-1 -13.201437454252613 3.9742107911761835 87.818220766660261 0.62932038083071107 0 -0.77714596973225614 I I #
edge $-1 $583 -3.8423512358166363 $325 3.9742107911761835 $472 $590 forward 7 unknown #
point $-1 51.041596728415783 3.9742107911761835 14.646173632102418 #
point $-1 46.052116398374913 3.9742107911761835 14.646173632102418 #
edge $-1 $591 1 $591 0 $328 $-1 forward 7 unknown #
vertex $-1 $329 $592 #
ellipse-curve $-1 46.04818771353932 0.065929777679773593 9.5420439287407426 0.77714596973225614 0 0.62932038083071107 0.62932038083071107 0 -0.77714596973225614 1 I I #
point $-1 49.176176944226064 0.065929777679773593 10.788280043461658 #
plane-surface $-1 0 0 14.646173632102418 0 0 1 1 0 0 forward_v I I I I #
coedge $-1 $495 $494 $487 $593 forward $333 $-1 #
coedge $-1 $487 $335 $337 $491 reversed $211 $-1 #
coedge $-1 $335 $486 $485 $593 reversed $211 $-1 #
coedge $-1 $343 $338 $335 $489 forward $344 $-1 #
edge $-1 $492 12.98606393931378 $594 17.97554426935465 $488 $595 forward 7 unknown #
coedge $-1 $337 $336 $495 $596 reversed $132 $-1 #
edge $-1 $597 -102.08319345683157 $492 -94.154830603788909 $486 $598 forward 7 unknown #
vertex $-1 $339 $599 #
straight-curve $-1 46.052116398374913 6.7692926038189309 14.646173632102418 0 -1 0 I I #
coedge $-1 $485 $340 $343 $499 reversed $333 $-1 #
coedge $-1 $340 $485 $490 $596 forward $333 $-1 #
vertex $-1 $341 $600 #
straight-curve $-1 51.041596728415783 17.446866221134272 76.030627474664328 0 0 1 I I #
straight-curve $-1 -13.201437454252613 17.446866221134272 87.818220766660261 0.62932038083071107 0 -0.77714596973225614 I I #
edge $-1 $594 9.630304194141452 $345 17.446866221134272 $494 $601 forward 7 unknown #
point $-1 51.041596728415783 17.446866221134272 14.646173632102418 #
point $-1 46.052116398374913 17.446866221134272 14.646173632102418 #
edge $-1 $602 1 $602 0 $348 $-1 forward 7 unknown #
vertex $-1 $349 $603 #
ellipse-curve $-1 46.04818771353932 13.538585207637862 9.5420439287407426 0.77714596973225614 0 0.62932038083071107 0.62932038083071107 0 -0.77714596973225614 1 I I #
point $-1 49.176176944226064 13.538585207637862 10.788280043461658 #
loop $-1 $-1 $359 $352 #
plane-surface $-1 0 0 14.646173632102418 0 0 1 1 0 0 forward_v I I I I #
coedge $-1 $604 $605 $356 $510 forward $353 $-1 #
coedge $-1 $356 $355 $515 $606 reversed $141 $-1 #
edge $-1 $512 -63.805438464786263 $607 -55.877075611743606 $508 $608 forward 7 unknown #
coedge $-1 $362 $357 $605 $609 reversed $226 $-1 #
vertex $-1 $510 $610 #
straight-curve $-1 51.041596728415783 13.505620318797975 8.4846783942853889 0 1 0 I I #
coedge $-1 $611 $359 $362 $519 forward $506 $-1 #
coedge $-1 $359 $611 $509 $606 forward $506 $-1 #
vertex $-1 $360 $612 #
straight-curve $-1 33.066052459061133 23.10295962409954 14.646173632102418 1 0 0 I I #
straight-curve $-1 -13.201437454252613 23.10295962409954 87.818220766660261 -0.62932038083071107 0 0.77714596973225614 I I #
edge $-1 $363 23.10295962409954 $613 30.919521651092364 $362 $614 forward 7 unknown #
point $-1 51.041596728415783 23.10295962409954 14.646173632102418 #
point $-1 51.041596728415783 23.10295962409954 8.4846783942853818 #
edge $-1 $615 1 $615 0 $366 $-1 forward 7 unknown #
vertex $-1 $367 $616 #
ellipse-curve $-1 46.04818771353932 27.01124063759595 9.5420439287407426 0.77714596973225614 0 0.62932038083071107 0.62932038083071107 0 -0.77714596973225614 1 I I #
point $-1 49.176176944226064 27.01124063759595 10.788280043461658 #
plane-surface $-1 51.041596728415783 0 0 -1 0 0 0 0 1 forward_v I I I I #
coedge $-1 $375 $373 $377 $531 reversed $241 $-1 #
edge $-1 $388 -14.646173632102418 $533 14.646173632102418 $387 $617 forward 7 unknown #
vertex $-1 $531 $618 #
straight-curve $-1 -51.041596728415783 -30.919521651092364 0 0 0 -1 I I #
edge $-1 $529 -30.919521651092364 $533 30.919521651092364 $527 $619 forward 7 unknown #
straight-curve $-1 0 -30.919521651092364 -14.646173632102418 -1 0 0 I I #
vertex $-1 $380 $620 #
straight-curve $-1 0 30.919521651092364 -14.646173632102418 1 0 0 I I #
point $-1 51.041596728415783 30.919521651092364 -14.646173632102418 #
point $-1 51.041596728415783 -30.919521651092364 -14.646173632102418 #
straight-curve $-1 -51.041596728415783 0 14.646173632102418 0 -1 0 I I #
point $-1 -51.041596728415783 30.919521651092364 14.646173632102418 #
point $-1 -51.041596728415783 -30.919521651092364 14.646173632102418 #
straight-curve $-1 51.041596728415783 -30.919521651092364 0 0 0 -1 I I #
straight-curve $-1 51.041596728415783 30.919521651092364 0 0 0 -1 I I #
plane-surface $-1 51.041596728415783 0 0 -1 0 0 0 0 1 forward_v I I I I #
coedge $-1 $621 $546 $404 $551 forward $398 $-1 #
coedge $-1 $405 $400 $621 $622 forward $260 $-1 #
edge $-1 $414 -6.8022574926588213 $623 6.8022574926588177 $412 $624 forward 7 unknown #
coedge $-1 $543 $625 $401 $547 reversed $398 $-1 #
edge $-1 $554 -51.041596728415783 $549 51.041596728415783 $546 $626 forward 7 unknown #
coedge $-1 $412 $402 $625 $627 forward $413 $-1 #
vertex $-1 $403 $628 #
straight-curve $-1 51.041596728415783 -37.721779143751185 -5.0083477678990889 0 1 0 I I #
edge $-1 $554 -2.1680735252697163 $552 2.1680735252697163 $404 $629 forward 7 unknown #
vertex $-1 $406 $630 #
straight-curve $-1 -51.041596728415783 -37.721779143751185 -9.3444948184385215 0 1 0 I I #
vertex $-1 $407 $631 #
straight-curve $-1 -51.041596728415783 -37.721779143751185 -5.0083477678990889 0 -1 0 I I #
point $-1 -51.041596728415783 -30.919521651092364 -9.3444948184385215 #
straight-curve $-1 0 -30.919521651092364 -9.3444948184385215 -1 0 0 I I #
point $-1 51.041596728415783 -30.919521651092364 -9.3444948184385215 #
coedge $-1 $429 $428 $421 $560 forward $418 $-1 #
edge $-1 $561 22.825440544272169 $564 34.712103324613878 $559 $632 forward 7 unknown #
vertex $-1 $433 $633 #
straight-curve $-1 -61.612657952217447 1.7701846419534526 14.646173632102418 -1 0 0 I I #
edge $-1 $564 -4.2842471497246422 $430 9.3123721652670213 $429 $634 forward 7 unknown #
vertex $-1 $563 $635 #
straight-curve $-1 -51.041596728415783 1.7701846419534526 2.7595108517607088 0.70710677298230451 0 0.70710678939079041 I I #
point $-1 -39.154934223905308 1.7701846419534526 14.646173632102419 #
point $-1 -51.041596728415783 -11.826434673038211 2.7595108517607088 #
straight-curve $-1 -51.041596728415783 0 14.646173632102418 0 -1 0 I I #
vertex $-1 $436 $636 #
point $-1 -40.405026822040838 -5.0281250155423791 7.5451375616304661 #
edge $-1 $572 61.384453842561911 $575 67.545949080378946 $441 $637 forward 7 unknown #
vertex $-1 $455 $638 #
straight-curve $-1 33.066052459061133 -17.315006665774721 14.646173632102418 1 0 0 I I #
edge $-1 $575 -10.611643839635565 $452 -2.7950818126427457 $451 $639 forward 7 unknown #
vertex $-1 $574 $640 #
straight-curve $-1 -13.201437454252613 -17.315006665774721 87.818220766660261 -0.62932038083071107 0 0.77714596973225614 I I #
point $-1 46.052116398374913 -17.315006665774721 14.646173632102418 #
point $-1 51.041596728415783 -9.4984446387819013 8.4846783942853818 #
straight-curve $-1 51.041596728415783 0 14.646173632102418 0 1 0 I I #
vertex $-1 $458 $641 #
point $-1 46.677508094370033 -13.406725652278311 8.7648979590084863 #
edge $-1 $583 61.384453842561911 $586 67.545949080378946 $463 $642 forward 7 unknown #
vertex $-1 $477 $643 #
straight-curve $-1 33.066052459061133 -3.8423512358166363 14.646173632102418 1 0 0 I I #
edge $-1 $586 -3.8753161246565231 $474 3.9412459023362967 $473 $644 forward 7 unknown #
vertex $-1 $585 $645 #
straight-curve $-1 -13.201437454252613 -3.8423512358166363 87.818220766660261 -0.62932038083071107 0 0.77714596973225614 I I #
point $-1 46.052116398374913 -3.8423512358166363 14.646173632102418 #
point $-1 51.041596728415783 3.9742107911761835 8.4846783942853818 #
straight-curve $-1 51.041596728415783 0 14.646173632102418 0 1 0 I I #
vertex $-1 $480 $646 #
point $-1 46.677508094370033 0.065929777679773593 8.7648979590084863 #
edge $-1 $594 61.384453842561911 $597 67.545949080378946 $485 $647 forward 7 unknown #
vertex $-1 $499 $648 #
straight-curve $-1 33.066052459061133 9.630304194141452 14.646173632102418 1 0 0 I I #
edge $-1 $597 2.8610115903225211 $496 10.677573617315341 $495 $649 forward 7 unknown #
vertex $-1 $596 $650 #
straight-curve $-1 -13.201437454252613 9.630304194141452 87.818220766660261 -0.62932038083071107 0 0.77714596973225614 I I #
point $-1 46.052116398374913 9.630304194141452 14.646173632102418 #
point $-1 51.041596728415783 17.446866221134272 8.4846783942853818 #
straight-curve $-1 51.041596728415783 0 14.646173632102418 0 1 0 I I #
vertex $-1 $502 $651 #
point $-1 46.677508094370033 13.538585207637862 8.7648979590084863 #
coedge $-1 $605 $508 $611 $652 reversed $353 $-1 #
coedge $-1 $508 $604 $511 $609 forward $353 $-1 #
edge $-1 $607 -17.413901332294387 $516 -9.5973393053015652 $515 $653 forward 7 unknown #
vertex $-1 $510 $654 #
straight-curve $-1 10.887533894685991 30.919521651092364 58.070817744193505 -0.62932038083071107 0 0.77714596973225614 I I #
edge $-1 $613 -14.646173632102418 $512 -8.4846783942853925 $511 $655 forward 7 unknown #
point $-1 51.041596728415783 30.919521651092364 8.4846783942853925 #
coedge $-1 $515 $514 $604 $652 forward $506 $-1 #
point $-1 46.052116398374913 23.10295962409954 14.646173632102418 #
vertex $-1 $519 $656 #
straight-curve $-1 51.041596728415783 0 14.646173632102418 0 1 0 I I #
vertex $-1 $522 $657 #
point $-1 46.677508094370033 27.01124063759595 8.7648979590084863 #
straight-curve $-1 -51.041596728415783 30.919521651092364 0 0 0 -1 I I #
point $-1 -51.041596728415783 -30.919521651092364 -14.646173632102418 #
straight-curve $-1 -51.041596728415783 0 -14.646173632102418 0 1 0 I I #
point $-1 -51.041596728415783 30.919521651092364 -14.646173632102418 #
coedge $-1 $625 $543 $544 $622 reversed $398 $-1 #
edge $-1 $623 -51.041596728415783 $552 51.041596728415783 $621 $658 forward 7 unknown #
vertex $-1 $627 $659 #
straight-curve $-1 51.041596728415783 -37.721779143751185 -9.3444948184385215 0 -1 0 I I #
coedge $-1 $546 $621 $548 $627 reversed $398 $-1 #
straight-curve $-1 0 -44.524036636410003 -5.0083477678990889 1 0 0 I I #
edge $-1 $549 -2.1680735252697163 $623 2.1680735252697163 $548 $660 forward 7 unknown #
point $-1 51.041596728415783 -44.524036636410003 -5.0083477678990889 #
straight-curve $-1 -51.041596728415783 -44.524036636410003 -7.1764212931688052 0 0 -1 I I #
point $-1 -51.041596728415783 -44.524036636410003 -9.3444948184385215 #
point $-1 -51.041596728415783 -44.524036636410003 -5.0083477678990889 #
straight-curve $-1 -51.041596728415783 1.7701846419534526 37.471614176374587 0 0 -1 I I #
point $-1 -51.041596728415783 1.7701846419534526 14.646173632102418 #
straight-curve $-1 -51.041596728415783 -2.5140625077711896 2.7595108517607052 0 -1 0 I I #
point $-1 -51.041596728415783 1.7701846419534526 2.7595108517607088 #
point $-1 -40.405026781019622 -5.0281250155423791 4.0096036556977293 #
straight-curve $-1 51.041596728415783 -17.315006665774721 76.030627474664328 0 0 -1 I I #
point $-1 51.041596728415783 -17.315006665774721 14.646173632102418 #
straight-curve $-1 51.041596728415783 -6.7033628261391556 8.4846783942853889 0 1 0 I I #
point $-1 51.041596728415783 -17.315006665774721 8.4846783942853818 #
point $-1 45.271041743807061 -13.406725652278311 8.91272354791003 #
straight-curve $-1 51.041596728415783 -3.8423512358166363 76.030627474664328 0 0 -1 I I #
point $-1 51.041596728415783 -3.8423512358166363 14.646173632102418 #
straight-curve $-1 51.041596728415783 0.032964888839886797 8.4846783942853889 0 1 0 I I #
point $-1 51.041596728415783 -3.8423512358166363 8.4846783942853818 #
point $-1 45.271041743807061 0.065929777679773593 8.91272354791003 #
straight-curve $-1 51.041596728415783 9.630304194141452 76.030627474664328 0 0 -1 I I #
point $-1 51.041596728415783 9.630304194141452 14.646173632102418 #
straight-curve $-1 51.041596728415783 6.7692926038189309 8.4846783942853889 0 1 0 I I #
point $-1 51.041596728415783 9.630304194141452 8.4846783942853818 #
point $-1 45.271041743807061 13.538585207637862 8.91272354791003 #
edge $-1 $613 -51.041596728415783 $607 -46.052116398374913 $604 $661 forward 7 unknown #
straight-curve $-1 46.052116398374913 13.505620318797975 14.646173632102418 0 -1 0 I I #
point $-1 46.052116398374913 30.91952165109236 14.646173632102418 #
straight-curve $-1 51.041596728415783 30.919521651092364 0 0 0 -1 I I #
point $-1 51.041596728415783 30.919521651092364 14.646173632102418 #
point $-1 45.271041743807061 27.01124063759595 8.91272354791003 #
straight-curve $-1 0 -44.524036636410003 -9.3444948184385215 -1 0 0 I I #
point $-1 51.041596728415783 -44.524036636410003 -9.3444948184385215 #
straight-curve $-1 51.041596728415783 -44.524036636410003 -7.1764212931688052 0 0 -1 I I #
straight-curve $-1 0 30.919521651092364 14.646173632102418 -1 0 0 I I #
End-of-ACIS-data 