500 0 6 0           
7 Unknown 11 ACIS 5.0 NT 24 Thu Mar 25 22:33:28 1999 
-1 9.9999999999999995e-007 1e-010 
body $-1 $6 $-1 $7 #
body $-1 $8 $-1 $9 #
body $-1 $10 $-1 $11 #
body $-1 $12 $-1 $13 #
body $-1 $14 $-1 $15 #
body $-1 $16 $-1 $17 #
lump $-1 $-1 $18 $0 #
transform $-1 1 0 0 0 1 0 0 0 1 75.356303598132257 33.612172467375778 12.747944948303651 1 rotate no_reflect no_shear #
lump $-1 $-1 $19 $1 #
transform $-1 1 0 0 0 1 0 0 0 1 75.356303598132257 33.612172467375778 12.747944948303651 1 rotate no_reflect no_shear #
lump $-1 $-1 $20 $2 #
transform $-1 1 0 0 0 1 0 0 0 1 75.356303598132257 33.612172467375778 12.747944948303651 1 rotate no_reflect no_shear #
lump $-1 $-1 $21 $3 #
transform $-1 1 0 0 0 1 0 0 0 1 75.356303598132257 33.612172467375778 12.747944948303651 1 rotate no_reflect no_shear #
lump $-1 $-1 $22 $4 #
transform $-1 1 0 0 0 1 0 0 0 1 75.356303598132257 33.612172467375778 12.747944948303651 1 rotate no_reflect no_shear #
lump $-1 $-1 $23 $5 #
transform $-1 1 0 0 0 1 0 0 0 1 75.356303598132257 33.612172467375778 12.747944948303651 1 rotate no_reflect no_shear #
shell $-1 $-1 $-1 $24 $-1 $6 #
shell $-1 $-1 $-1 $25 $-1 $8 #
shell $-1 $-1 $-1 $26 $-1 $10 #
shell $-1 $-1 $-1 $27 $-1 $12 #
shell $-1 $-1 $-1 $28 $-1 $14 #
shell $-1 $-1 $-1 $29 $-1 $16 #
face $-1 $30 $31 $18 $-1 $32 forward single #
face $-1 $33 $34 $19 $-1 $35 reversed single #
face $-1 $36 $37 $20 $-1 $38 forward single #
face $-1 $39 $40 $21 $-1 $41 reversed single #
face $-1 $42 $43 $22 $-1 $44 forward single #
face $-1 $45 $46 $23 $-1 $47 forward single #
face $-1 $48 $49 $18 $-1 $50 reversed single #
loop $-1 $-1 $51 $24 #
plane-surface $-1 0 0 12.747944948303651 0 0 1 1 0 0 forward_v I I I I #
face $-1 $52 $53 $19 $-1 $54 reversed single #
loop $-1 $-1 $55 $25 #
plane-surface $-1 -207.17252111553339 -24.057727544263152 78.529184175786853 0 -1 0 0.87461971476443456 0 -0.48480960649040278 forward_v I I I I #
face $-1 $56 $57 $20 $-1 $58 forward single #
loop $-1 $59 $60 $26 #
cone-surface $-1 -72.370710596510435 -28.834950005819465 8.5694571512394333 0.87461971476443456 0 -0.48480960649040278 0.48480960649040278 0 0.87461971476443456 1 I I 0 1 1 forward I I I I #
face $-1 $61 $62 $21 $-1 $63 reversed single #
loop $-1 $-1 $64 $27 #
plane-surface $-1 38.344965356193526 -1.5662174166304812 219.64016594804514 0 -1 0 -0.57357644374324357 0 -0.81915203911291934 forward_v I I I I #
face $-1 $65 $66 $22 $-1 $67 forward single #
loop $-1 $68 $69 $28 #
cone-surface $-1 72.282134257034187 -9.1616314052538463 9.921934599039183 -0.57357644374324357 0 -0.81915203911291934 0.81915203911291934 0 -0.57357644374324357 1 I I 0 1 1 forward I I I I #
face $-1 $70 $71 $23 $-1 $72 forward single #
loop $-1 $73 $74 $29 #
cone-surface $-1 72.282134257034187 -4.6043830120798219 9.921934599039183 -0.57357644374324357 0 -0.81915203911291934 0.81915203911291934 0 -0.57357644374324357 1 I I 0 1 1 forward I I I I #
face $-1 $75 $76 $18 $-1 $77 reversed single #
loop $-1 $-1 $78 $30 #
plane-surface $-1 0 0 -12.747944948303651 0 0 1 1 0 0 forward_v I I I I #
coedge $-1 $79 $80 $81 $82 forward $31 $-1 #
face $-1 $83 $84 $19 $-1 $85 forward single #
loop $-1 $-1 $86 $33 #
plane-surface $-1 -75.356303598132257 -28.834950005819465 5.4622643878232111 -0.87461971476443456 0 0.48480960649040278 0.48480960649040278 0 0.87461971476443456 forward_v I I I I #
coedge $-1 $87 $88 $89 $90 reversed $34 $-1 #
face $-1 $-1 $91 $20 $-1 $92 forward single #
loop $-1 $93 $94 $36 #
cone-surface $-1 -70.967067002941903 -28.834950005819465 7.7914048311702295 0.87461971476443456 0 -0.48480960649040278 0.24240480324520139 0 0.43730985738221728 1 I I -0.70710678118654813 0.70710678118654691 0.5 forward I I I I #
loop $-1 $-1 $95 $26 #
coedge $-1 $60 $60 $96 $97 reversed $37 $-1 #
face $-1 $98 $99 $21 $-1 $100 reversed single #
loop $-1 $-1 $101 $39 #
plane-surface $-1 -48.100235906712257 -6.8830072086668395 96.183626443200623 0.57357644374324357 0 0.81915203911291934 0.81915203911291934 0 -0.57357644374324357 forward_v I I I I #
coedge $-1 $102 $103 $104 $105 reversed $40 $-1 #
face $-1 $-1 $106 $22 $-1 $107 forward single #
loop $-1 $108 $109 $42 #
cone-surface $-1 71.070196481755289 -9.1616314052538463 8.1911081142226614 -0.57357644374324357 0 -0.81915203911291934 0.40957601955645967 0 -0.28678822187162178 1 I I -0.70710678118654746 0.70710678118654746 0.5 forward I I I I #
loop $-1 $-1 $110 $28 #
coedge $-1 $69 $69 $111 $112 reversed $43 $-1 #
face $-1 $-1 $113 $23 $-1 $114 forward single #
loop $-1 $115 $116 $45 #
cone-surface $-1 71.070196481755289 -4.6043830120798219 8.1911081142226614 -0.57357644374324357 0 -0.81915203911291934 0.40957601955645967 0 -0.28678822187162178 1 I I -0.70710678118654746 0.70710678118654746 0.5 forward I I I I #
loop $-1 $-1 $117 $29 #
coedge $-1 $74 $74 $118 $119 reversed $46 $-1 #
face $-1 $120 $121 $18 $-1 $122 reversed single #
loop $-1 $-1 $123 $48 #
plane-surface $-1 0 -33.612172467375778 0 0 1 0 0 0 1 forward_v I I I I #
coedge $-1 $124 $125 $126 $127 forward $49 $-1 #
coedge $-1 $128 $51 $129 $130 forward $31 $-1 #
coedge $-1 $51 $128 $131 $132 forward $31 $-1 #
coedge $-1 $133 $134 $51 $82 reversed $135 $-1 #
edge $-1 $136 -33.612172467375778 $137 33.612172467375778 $81 $138 forward 7 unknown #
face $-1 $139 $140 $19 $-1 $141 reversed single #
loop $-1 $-1 $142 $52 #
plane-surface $-1 0 0 12.747944948303651 0 0 1 1 0 0 forward_v I I I I #
coedge $-1 $143 $144 $145 $146 reversed $53 $-1 #
coedge $-1 $88 $55 $147 $148 reversed $34 $-1 #
coedge $-1 $55 $87 $143 $149 reversed $34 $-1 #
coedge $-1 $145 $150 $55 $90 forward $140 $-1 #
edge $-1 $151 26.516647139589775 $152 33.802327700070215 $89 $153 forward 7 unknown #
loop $-1 $-1 $96 $56 #
plane-surface $-1 -75.356303598132257 -28.834950005819465 5.4622643878232111 -0.87461971476443456 0 0.48480960649040278 0.48480960649040278 0 0.87461971476443456 forward_v I I I I #
loop $-1 $-1 $154 $36 #
coedge $-1 $94 $94 $95 $155 reversed $57 $-1 #
coedge $-1 $95 $95 $94 $155 forward $59 $-1 #
coedge $-1 $96 $96 $60 $97 forward $91 $-1 #
edge $-1 $156 0 $156 6.2831853071796004 $96 $157 forward 7 unknown #
face $-1 $158 $159 $21 $-1 $160 reversed single #
loop $-1 $-1 $161 $61 #
plane-surface $-1 38.344965356193526 -12.199797000703198 219.64016594804514 0 1 0 0.57357644374324357 0 0.81915203911291934 forward_v I I I I #
coedge $-1 $162 $163 $164 $165 reversed $62 $-1 #
coedge $-1 $103 $64 $166 $167 reversed $40 $-1 #
coedge $-1 $64 $102 $162 $168 reversed $40 $-1 #
coedge $-1 $164 $169 $64 $105 forward $170 $-1 #
edge $-1 $171 -56.183820920035494 $172 -51.885781344653957 $104 $173 forward 7 unknown #
loop $-1 $-1 $111 $65 #
plane-surface $-1 -48.100235906712257 -6.8830072086668395 96.183626443200623 0.57357644374324357 0 0.81915203911291934 0.81915203911291934 0 -0.57357644374324357 forward_v I I I I #
loop $-1 $-1 $174 $42 #
coedge $-1 $109 $109 $110 $175 reversed $66 $-1 #
coedge $-1 $110 $110 $109 $175 forward $68 $-1 #
coedge $-1 $111 $111 $69 $112 forward $106 $-1 #
edge $-1 $176 0 $176 6.2831853071796004 $111 $177 forward 7 unknown #
loop $-1 $-1 $118 $70 #
plane-surface $-1 -48.100235906712257 -6.8830072086668395 96.183626443200623 0.57357644374324357 0 0.81915203911291934 0.81915203911291934 0 -0.57357644374324357 forward_v I I I I #
loop $-1 $-1 $178 $45 #
coedge $-1 $116 $116 $117 $179 reversed $71 $-1 #
coedge $-1 $117 $117 $116 $179 forward $73 $-1 #
coedge $-1 $118 $118 $74 $119 forward $113 $-1 #
edge $-1 $180 0 $180 6.2831853071796004 $118 $181 forward 7 unknown #
face $-1 $182 $183 $18 $-1 $184 reversed single #
loop $-1 $-1 $185 $75 #
plane-surface $-1 -75.356303598132257 0 0 1 0 0 0 0 -1 forward_v I I I I #
coedge $-1 $186 $131 $187 $188 forward $76 $-1 #
coedge $-1 $189 $78 $186 $190 forward $49 $-1 #
coedge $-1 $78 $189 $191 $192 forward $49 $-1 #
coedge $-1 $134 $133 $78 $127 reversed $135 $-1 #
edge $-1 $193 -33.612172467375778 $194 33.612172467375778 $126 $195 forward 7 unknown #
coedge $-1 $80 $79 $196 $197 forward $31 $-1 #
coedge $-1 $198 $199 $79 $130 reversed $183 $-1 #
edge $-1 $137 -75.356303598132257 $200 75.356303598132257 $129 $201 forward 7 unknown #
coedge $-1 $123 $202 $80 $132 reversed $76 $-1 #
edge $-1 $203 -75.356303598132257 $136 75.356303598132257 $131 $204 forward 7 unknown #
coedge $-1 $126 $81 $202 $205 forward $135 $-1 #
coedge $-1 $81 $126 $198 $206 reversed $135 $-1 #
loop $-1 $-1 $133 $182 #
vertex $-1 $82 $207 #
vertex $-1 $82 $208 #
straight-curve $-1 75.356303598132257 0 12.747944948303651 0 1 0 I I #
face $-1 $-1 $209 $19 $-1 $210 reversed single #
loop $-1 $-1 $89 $83 #
plane-surface $-1 -75.356303598132257 0 0 1 0 0 0 0 -1 forward_v I I I I #
coedge $-1 $147 $211 $212 $213 forward $84 $-1 #
coedge $-1 $212 $86 $88 $149 forward $53 $-1 #
coedge $-1 $86 $212 $214 $215 reversed $53 $-1 #
coedge $-1 $216 $89 $86 $146 forward $140 $-1 #
edge $-1 $152 9.6402525413534192 $217 19.194697464466046 $145 $218 forward 7 unknown #
coedge $-1 $219 $142 $87 $148 forward $84 $-1 #
edge $-1 $220 -32.268475490505466 $151 -28.229956959634436 $147 $221 forward 7 unknown #
edge $-1 $152 0 $220 8.3301124334279724 $88 $222 forward 7 unknown #
coedge $-1 $89 $216 $219 $223 reversed $140 $-1 #
vertex $-1 $223 $224 #
vertex $-1 $90 $225 #
straight-curve $-1 -75.356303598132257 -24.057727544263152 39.264592087893426 0 0 -1 I I #
coedge $-1 $154 $154 $-1 $226 reversed $93 $-1 #
edge $-1 $227 0 $227 6.2831853071796004 $94 $228 forward 7 unknown #
vertex $-1 $97 $229 #
ellipse-curve $-1 -73.337044332696749 -28.834950005819465 9.1051046680634347 -0.87461971476443456 0 0.48480960649040278 0.48480960649040278 0 0.87461971476443456 1 I I #
face $-1 $-1 $170 $21 $-1 $230 forward single #
loop $-1 $-1 $231 $98 #
plane-surface $-1 75.356303598132257 0 0 -1 0 0 0 0 1 forward_v I I I I #
coedge $-1 $232 $233 $234 $235 reversed $99 $-1 #
coedge $-1 $236 $101 $103 $168 forward $62 $-1 #
coedge $-1 $101 $236 $232 $237 forward $62 $-1 #
coedge $-1 $234 $104 $101 $165 forward $170 $-1 #
edge $-1 $172 -1.8752861877029385 $238 8.758293396369778 $164 $239 forward 7 unknown #
coedge $-1 $240 $241 $102 $167 forward $159 $-1 #
edge $-1 $242 -100.08165779372773 $171 -97.072138025718914 $166 $243 forward 7 unknown #
edge $-1 $172 145.46566966799321 $242 150.71260719626451 $103 $244 forward 7 unknown #
coedge $-1 $104 $234 $240 $245 forward $170 $-1 #
loop $-1 $-1 $234 $158 #
vertex $-1 $167 $246 #
vertex $-1 $105 $247 #
straight-curve $-1 19.172482678096763 -1.5662174166304812 12.747944948303655 -1 0 0 I I #
coedge $-1 $174 $174 $-1 $248 reversed $108 $-1 #
edge $-1 $249 0 $249 6.2831853071796004 $109 $250 forward 7 unknown #
vertex $-1 $112 $251 #
ellipse-curve $-1 73.207283810441467 -9.1616314052538463 11.243185064299265 0.57357644374324357 0 0.81915203911291934 0.81915203911291934 0 -0.57357644374324357 1 I I #
coedge $-1 $178 $178 $-1 $252 reversed $115 $-1 #
edge $-1 $253 0 $253 6.2831853071796004 $116 $254 forward 7 unknown #
vertex $-1 $119 $255 #
ellipse-curve $-1 73.207283810441467 -4.6043830120798219 11.243185064299265 0.57357644374324357 0 0.81915203911291934 0.81915203911291934 0 -0.57357644374324357 1 I I #
face $-1 $-1 $135 $18 $-1 $256 reversed single #
loop $-1 $-1 $198 $120 #
plane-surface $-1 0 33.612172467375778 0 0 -1 0 0 0 -1 forward_v I I I I #
coedge $-1 $257 $196 $199 $258 forward $121 $-1 #
coedge $-1 $202 $123 $124 $190 reversed $76 $-1 #
coedge $-1 $196 $257 $123 $188 reversed $121 $-1 #
edge $-1 $203 -12.747944948303651 $259 12.747944948303651 $187 $260 forward 7 unknown #
coedge $-1 $125 $124 $257 $261 forward $49 $-1 #
edge $-1 $194 -75.356303598132257 $259 75.356303598132257 $186 $262 forward 7 unknown #
coedge $-1 $199 $198 $125 $192 reversed $183 $-1 #
edge $-1 $263 -75.356303598132257 $193 75.356303598132257 $191 $264 forward 7 unknown #
vertex $-1 $127 $265 #
vertex $-1 $205 $266 #
straight-curve $-1 75.356303598132257 0 -12.747944948303651 0 -1 0 I I #
coedge $-1 $185 $187 $128 $197 reversed $121 $-1 #
edge $-1 $200 -33.612172467375778 $203 33.612172467375778 $196 $267 forward 7 unknown #
coedge $-1 $191 $129 $134 $206 forward $183 $-1 #
coedge $-1 $129 $191 $185 $258 reversed $183 $-1 #
vertex $-1 $130 $268 #
straight-curve $-1 0 33.612172467375778 12.747944948303651 -1 0 0 I I #
coedge $-1 $131 $186 $133 $205 reversed $76 $-1 #
vertex $-1 $197 $269 #
straight-curve $-1 0 -33.612172467375778 12.747944948303651 1 0 0 I I #
edge $-1 $136 -12.747944948303651 $194 12.747944948303651 $133 $270 forward 7 unknown #
edge $-1 $137 -12.747944948303651 $193 12.747944948303651 $134 $271 forward 7 unknown #
point $-1 75.356303598132257 -33.612172467375778 12.747944948303651 #
point $-1 75.356303598132257 33.612172467375778 12.747944948303651 #
loop $-1 $-1 $214 $139 #
plane-surface $-1 0 -33.612172467375778 0 0 1 0 0 0 1 forward_v I I I I #
coedge $-1 $142 $219 $272 $273 forward $84 $-1 #
coedge $-1 $144 $143 $142 $213 reversed $53 $-1 #
edge $-1 $274 -19.194697464466046 $220 -9.6402525413534192 $142 $275 forward 7 unknown #
coedge $-1 $272 $276 $144 $215 forward $209 $-1 #
edge $-1 $217 -15.878027886567978 $274 -7.5479154531400052 $214 $277 forward 7 unknown #
coedge $-1 $150 $145 $276 $278 reversed $140 $-1 #
vertex $-1 $146 $279 #
straight-curve $-1 -75.356303598132257 -14.417475002909732 5.4622643878232022 0 -1 0 I I #
coedge $-1 $211 $147 $150 $223 forward $84 $-1 #
vertex $-1 $148 $280 #
straight-curve $-1 -103.58626055776669 -24.057727544263152 12.747944948303648 -1 0 0 I I #
straight-curve $-1 -75.356303598132257 -24.057727544263152 5.4622643878232111 0.48480960649040278 0 0.87461971476443456 I I #
edge $-1 $151 24.057727544263152 $281 33.612172467375778 $150 $282 forward 7 unknown #
point $-1 -75.356303598132257 -24.057727544263152 12.747944948303651 #
point $-1 -75.356303598132257 -24.057727544263152 5.4622643878232111 #
edge $-1 $283 1 $283 0 $154 $-1 forward 7 unknown #
vertex $-1 $155 $284 #
ellipse-curve $-1 -71.40437686032412 -28.834950005819465 8.0338096344154302 -0.87461971476443456 0 0.48480960649040278 0.48480960649040278 0 0.87461971476443456 1 I I #
point $-1 -72.852234726206333 -28.834950005819465 9.9797243828278681 #
plane-surface $-1 0 0 12.747944948303651 0 0 1 1 0 0 forward_v I I I I #
coedge $-1 $241 $240 $233 $285 forward $159 $-1 #
coedge $-1 $233 $161 $163 $237 reversed $99 $-1 #
coedge $-1 $161 $232 $231 $285 reversed $99 $-1 #
coedge $-1 $169 $164 $161 $235 forward $170 $-1 #
edge $-1 $238 51.885781344653957 $286 56.183820920035494 $234 $287 forward 7 unknown #
coedge $-1 $163 $162 $241 $288 reversed $62 $-1 #
edge $-1 $289 -150.71260719626451 $238 -145.46566966799321 $232 $290 forward 7 unknown #
vertex $-1 $165 $291 #
straight-curve $-1 71.05826402275072 -3.4415036043334197 12.747944948303655 0 -1 0 I I #
coedge $-1 $231 $166 $169 $245 reversed $159 $-1 #
coedge $-1 $166 $231 $236 $288 forward $159 $-1 #
vertex $-1 $167 $292 #
straight-curve $-1 75.356303598132257 -1.5662174166304812 109.82008297402257 0 0 1 I I #
straight-curve $-1 -48.100235906712257 -1.5662174166304812 96.183626443200623 0.81915203911291934 0 -0.57357644374324357 I I #
edge $-1 $286 -12.199797000703198 $171 -1.5662174166304812 $240 $293 forward 7 unknown #
point $-1 75.356303598132257 -1.5662174166304812 12.747944948303651 #
point $-1 71.05826402275072 -1.5662174166304812 12.747944948303669 #
edge $-1 $294 1 $294 0 $174 $-1 forward 7 unknown #
vertex $-1 $175 $295 #
ellipse-curve $-1 71.356984703626907 -9.1616314052538463 8.6006841337791204 0.57357644374324357 0 0.81915203911291934 0.81915203911291934 0 -0.57357644374324357 1 I I #
point $-1 74.026435849554375 -9.1616314052538463 10.669608620556001 #
edge $-1 $296 1 $296 0 $178 $-1 forward 7 unknown #
vertex $-1 $179 $297 #
ellipse-curve $-1 71.356984703626907 -4.6043830120798219 8.6006841337791204 0.57357644374324357 0 0.81915203911291934 0.81915203911291934 0 -0.57357644374324357 1 I I #
point $-1 74.026435849554375 -4.6043830120798219 10.669608620556001 #
plane-surface $-1 75.356303598132257 0 0 -1 0 0 0 0 1 forward_v I I I I #
coedge $-1 $187 $185 $189 $261 reversed $121 $-1 #
edge $-1 $200 -12.747944948303651 $263 12.747944948303651 $199 $298 forward 7 unknown #
vertex $-1 $261 $299 #
straight-curve $-1 -75.356303598132257 -33.612172467375778 0 0 0 -1 I I #
edge $-1 $259 -33.612172467375778 $263 33.612172467375778 $257 $300 forward 7 unknown #
straight-curve $-1 0 -33.612172467375778 -12.747944948303651 -1 0 0 I I #
vertex $-1 $192 $301 #
straight-curve $-1 0 33.612172467375778 -12.747944948303651 1 0 0 I I #
point $-1 75.356303598132257 33.612172467375778 -12.747944948303651 #
point $-1 75.356303598132257 -33.612172467375778 -12.747944948303651 #
straight-curve $-1 -75.356303598132257 0 12.747944948303651 0 -1 0 I I #
point $-1 -75.356303598132257 33.612172467375778 12.747944948303651 #
point $-1 -75.356303598132257 -33.612172467375778 12.747944948303651 #
straight-curve $-1 75.356303598132257 -33.612172467375778 0 0 0 -1 I I #
straight-curve $-1 75.356303598132257 33.612172467375778 0 0 0 -1 I I #
coedge $-1 $276 $214 $211 $273 reversed $209 $-1 #
edge $-1 $281 -75.356303598132257 $274 -71.317785067261227 $272 $302 forward 7 unknown #
vertex $-1 $215 $303 #
straight-curve $-1 -71.317785067261227 -14.417475002909732 12.747944948303651 0 1 0 I I #
coedge $-1 $214 $272 $216 $278 forward $209 $-1 #
straight-curve $-1 -67.658483146601597 -33.612172467375778 19.349500608995033 0.48480960649040278 0 0.87461971476443456 I I #
edge $-1 $281 -12.747944948303651 $217 -5.4622643878232111 $216 $304 forward 7 unknown #
point $-1 -75.356303598132257 -33.612172467375778 5.4622643878232111 #
point $-1 -71.317785067261227 -24.057727544263152 12.747944948303651 #
vertex $-1 $223 $305 #
straight-curve $-1 -75.356303598132257 0 12.747944948303651 0 -1 0 I I #
vertex $-1 $226 $306 #
point $-1 -70.919567253833719 -28.834950005819465 8.9084293491798654 #
edge $-1 $286 97.072138025718914 $289 100.08165779372773 $231 $307 forward 7 unknown #
vertex $-1 $245 $308 #
straight-curve $-1 19.172482678096763 -12.199797000703198 12.747944948303655 1 0 0 I I #
edge $-1 $289 -8.758293396369778 $242 1.8752861877029385 $241 $309 forward 7 unknown #
vertex $-1 $288 $310 #
straight-curve $-1 -48.100235906712257 -12.199797000703198 96.183626443200623 -0.81915203911291934 0 0.57357644374324357 I I #
point $-1 71.05826402275072 -12.199797000703198 12.747944948303669 #
point $-1 75.356303598132257 -1.5662174166304812 9.7384251802948398 #
straight-curve $-1 75.356303598132257 0 12.747944948303651 0 1 0 I I #
vertex $-1 $248 $311 #
point $-1 72.176136742739828 -9.1616314052538463 8.0271076900358782 #
vertex $-1 $252 $312 #
point $-1 72.176136742739828 -4.6043830120798219 8.0271076900358782 #
straight-curve $-1 -75.356303598132257 33.612172467375778 0 0 0 -1 I I #
point $-1 -75.356303598132257 -33.612172467375778 -12.747944948303651 #
straight-curve $-1 -75.356303598132257 0 -12.747944948303651 0 1 0 I I #
point $-1 -75.356303598132257 33.612172467375778 -12.747944948303651 #
straight-curve $-1 0 -33.612172467375778 12.747944948303651 1 0 0 I I #
point $-1 -71.317785067261227 -33.612172467375778 12.747944948303651 #
straight-curve $-1 -75.356303598132257 -33.612172467375778 0 0 0 -1 I I #
point $-1 -75.356303598132257 -33.612172467375778 12.747944948303651 #
point $-1 -70.529757145559685 -28.834950005819465 7.5490000279250289 #
straight-curve $-1 75.356303598132257 -12.199797000703198 109.82008297402257 0 0 -1 I I #
point $-1 75.356303598132257 -12.199797000703198 12.747944948303651 #
straight-curve $-1 75.356303598132257 -3.4415036043334197 9.7384251802948398 0 1 0 I I #
point $-1 75.356303598132257 -12.199797000703198 9.7384251802948398 #
point $-1 70.783408259883672 -9.1616314052538463 7.7815320946662014 #
point $-1 70.783408259883672 -4.6043830120798219 7.7815320946662014 #
End-of-ACIS-data 