500 0 8 0           
7 Unknown 11 ACIS 5.0 NT 24 Fri Mar 26 03:25:11 1999 
-1 9.9999999999999995e-007 1e-010 
body $-1 $8 $-1 $9 #
body $-1 $10 $-1 $11 #
body $-1 $12 $-1 $13 #
body $-1 $14 $-1 $15 #
body $-1 $16 $-1 $17 #
body $-1 $18 $-1 $19 #
body $-1 $20 $-1 $21 #
body $-1 $22 $-1 $23 #
lump $-1 $-1 $24 $0 #
transform $-1 1 0 0 0 1 0 0 0 1 75.286721396526985 40.539534053173078 14.453289734061054 1 rotate no_reflect no_shear #
lump $-1 $-1 $25 $1 #
transform $-1 1 0 0 0 1 0 0 0 1 75.286721396526985 40.539534053173078 14.453289734061054 1 rotate no_reflect no_shear #
lump $-1 $-1 $26 $2 #
transform $-1 1 0 0 0 1 0 0 0 1 75.286721396526985 40.539534053173078 14.453289734061054 1 rotate no_reflect no_shear #
lump $-1 $-1 $27 $3 #
transform $-1 1 0 0 0 1 0 0 0 1 75.286721396526985 40.539534053173078 14.453289734061054 1 rotate no_reflect no_shear #
lump $-1 $-1 $28 $4 #
transform $-1 1 0 0 0 1 0 0 0 1 75.286721396526985 40.539534053173078 14.453289734061054 1 rotate no_reflect no_shear #
lump $-1 $-1 $29 $5 #
transform $-1 1 0 0 0 1 0 0 0 1 75.286721396526985 40.539534053173078 14.453289734061054 1 rotate no_reflect no_shear #
lump $-1 $-1 $30 $6 #
transform $-1 1 0 0 0 1 0 0 0 1 75.286721396526985 40.539534053173078 14.453289734061054 1 rotate no_reflect no_shear #
lump $-1 $-1 $31 $7 #
transform $-1 1 0 0 0 1 0 0 0 1 75.286721396526985 40.539534053173078 14.453289734061054 1 rotate no_reflect no_shear #
shell $-1 $-1 $-1 $32 $-1 $8 #
shell $-1 $-1 $-1 $33 $-1 $10 #
shell $-1 $-1 $-1 $34 $-1 $12 #
shell $-1 $-1 $-1 $35 $-1 $14 #
shell $-1 $-1 $-1 $36 $-1 $16 #
shell $-1 $-1 $-1 $37 $-1 $18 #
shell $-1 $-1 $-1 $38 $-1 $20 #
shell $-1 $-1 $-1 $39 $-1 $22 #
face $-1 $40 $41 $24 $-1 $42 forward single #
face $-1 $43 $44 $25 $-1 $45 reversed single #
face $-1 $46 $47 $26 $-1 $48 reversed single #
face $-1 $49 $50 $27 $-1 $51 forward single #
face $-1 $52 $53 $28 $-1 $54 forward single #
face $-1 $55 $56 $29 $-1 $57 reversed single #
face $-1 $58 $59 $30 $-1 $60 forward single #
face $-1 $61 $62 $31 $-1 $63 forward single #
face $-1 $64 $65 $24 $-1 $66 reversed single #
loop $-1 $-1 $67 $32 #
plane-surface $-1 0 0 14.453289734061054 0 0 1 1 0 0 forward_v I I I I #
face $-1 $68 $69 $25 $-1 $70 reversed single #
loop $-1 $-1 $71 $33 #
plane-surface $-1 -67.773492971253489 -31.145050108534292 0 1 0 0 0 0 -1 forward_v I I I I #
face $-1 $72 $73 $26 $-1 $74 reversed single #
loop $-1 $-1 $75 $34 #
plane-surface $-1 -201.56823738651386 7.6533891522371604 88.18030292154198 0 1 0 -0.83867057594974714 0 0.54463902268945019 forward_v I I I I #
face $-1 $76 $77 $27 $-1 $78 forward single #
loop $-1 $79 $80 $35 #
cone-surface $-1 -71.625418810559566 9.8293835411880792 9.6812398543967841 0.83867057594974714 0 -0.54463902268945019 0.54463902268945019 0 0.83867057594974714 1 I I 0 1 1 forward I I I I #
face $-1 $81 $82 $28 $-1 $83 forward single #
loop $-1 $84 $85 $36 #
cone-surface $-1 -71.625418810559566 13.093375124614461 9.6812398543967841 0.83867057594974714 0 -0.54463902268945019 0.54463902268945019 0 0.83867057594974714 1 I I 0 1 1 forward I I I I #
face $-1 $86 $87 $29 $-1 $88 reversed single #
loop $-1 $-1 $89 $37 #
plane-surface $-1 41.975098288275092 22.21521498147321 221.36845084609936 0 1 0 0.5877852598018023 0 0.80901698891910034 forward_v I I I I #
face $-1 $90 $91 $30 $-1 $92 forward single #
loop $-1 $93 $94 $38 #
cone-surface $-1 72.210227207563918 27.450734716244604 11.742140834983715 -0.5877852598018023 0 -0.80901698891910034 0.80901698891910034 0 -0.5877852598018023 1 I I 0 1 1 forward I I I I #
face $-1 $95 $96 $31 $-1 $97 forward single #
loop $-1 $98 $99 $39 #
cone-surface $-1 72.210227207563918 35.304014318401691 11.742140834983715 -0.5877852598018023 0 -0.80901698891910034 0.80901698891910034 0 -0.5877852598018023 1 I I 0 1 1 forward I I I I #
face $-1 $100 $101 $24 $-1 $102 reversed single #
loop $-1 $-1 $103 $40 #
plane-surface $-1 0 0 -14.453289734061054 0 0 1 1 0 0 forward_v I I I I #
coedge $-1 $104 $105 $106 $107 forward $41 $-1 #
face $-1 $108 $109 $25 $-1 $110 reversed single #
loop $-1 $-1 $111 $43 #
plane-surface $-1 -65.184586649767709 -21.750566163895506 0 0 -1 0 0 0 -1 forward_v I I I I #
coedge $-1 $112 $113 $114 $115 forward $44 $-1 #
face $-1 $116 $117 $26 $-1 $118 reversed single #
loop $-1 $-1 $119 $46 #
plane-surface $-1 -75.286721396526985 11.461379332901274 6.1721301957472292 -0.83867057594974714 0 0.54463902268945019 0.54463902268945019 0 0.83867057594974714 forward_v I I I I #
coedge $-1 $120 $121 $122 $123 reversed $47 $-1 #
face $-1 $-1 $124 $27 $-1 $125 forward single #
loop $-1 $126 $127 $49 #
cone-surface $-1 -70.233704792432192 9.8293835411880792 8.7774502325446928 0.83867057594974714 0 -0.54463902268945019 0.2723195113447251 0 0.41933528797487357 1 I I -0.70710678118654746 0.70710678118654746 0.5 forward I I I I #
loop $-1 $-1 $128 $35 #
coedge $-1 $80 $80 $129 $130 reversed $50 $-1 #
face $-1 $-1 $131 $28 $-1 $132 forward single #
loop $-1 $133 $134 $52 #
cone-surface $-1 -70.233704792432192 13.093375124614461 8.7774502325446928 0.83867057594974714 0 -0.54463902268945019 0.2723195113447251 0 0.41933528797487357 1 I I -0.70710678118654746 0.70710678118654746 0.5 forward I I I I #
loop $-1 $-1 $135 $36 #
coedge $-1 $85 $85 $136 $137 reversed $53 $-1 #
face $-1 $138 $139 $29 $-1 $140 forward single #
loop $-1 $-1 $141 $55 #
plane-surface $-1 -46.529751903091949 31.37737451732314 99.55197754648043 0.5877852598018023 0 0.80901698891910034 0.80901698891910034 0 -0.5877852598018023 forward_v I I I I #
coedge $-1 $142 $143 $144 $145 reversed $56 $-1 #
face $-1 $-1 $146 $30 $-1 $147 forward single #
loop $-1 $148 $149 $58 #
cone-surface $-1 71.183930501231004 27.450734716244604 10.329564630920663 -0.5877852598018023 0 -0.80901698891910034 0.40450849445955017 0 -0.29389262990090115 1 I I -0.70710678118654746 0.70710678118654746 0.5 forward I I I I #
loop $-1 $-1 $150 $38 #
coedge $-1 $94 $94 $151 $152 reversed $59 $-1 #
face $-1 $-1 $153 $31 $-1 $154 forward single #
loop $-1 $155 $156 $61 #
cone-surface $-1 71.183930501231004 35.304014318401691 10.329564630920663 -0.5877852598018023 0 -0.80901698891910034 0.40450849445955017 0 -0.29389262990090115 1 I I -0.70710678118654746 0.70710678118654746 0.5 forward I I I I #
loop $-1 $-1 $157 $39 #
coedge $-1 $99 $99 $158 $159 reversed $62 $-1 #
face $-1 $160 $161 $24 $-1 $162 reversed single #
loop $-1 $-1 $163 $64 #
plane-surface $-1 0 -40.539534053173078 0 0 1 0 0 0 1 forward_v I I I I #
coedge $-1 $164 $165 $166 $167 forward $65 $-1 #
coedge $-1 $168 $67 $169 $170 forward $41 $-1 #
coedge $-1 $67 $168 $171 $172 forward $41 $-1 #
coedge $-1 $173 $174 $67 $107 reversed $175 $-1 #
edge $-1 $176 -40.539534053173078 $177 40.539534053173078 $106 $178 forward 7 unknown #
face $-1 $179 $180 $25 $-1 $181 forward single #
loop $-1 $-1 $182 $68 #
plane-surface $-1 -62.595680328281929 -31.145050108534292 0 -1 0 0 0 0 1 forward_v I I I I #
coedge $-1 $183 $184 $185 $186 forward $69 $-1 #
coedge $-1 $187 $71 $188 $189 reversed $44 $-1 #
coedge $-1 $71 $187 $190 $191 reversed $44 $-1 #
coedge $-1 $184 $183 $71 $115 reversed $69 $-1 #
edge $-1 $192 -14.453289734061054 $193 14.453289734061054 $114 $194 forward 7 unknown #
face $-1 $195 $196 $26 $-1 $197 reversed single #
loop $-1 $-1 $198 $72 #
plane-surface $-1 -201.56823738651386 15.269369513565387 88.18030292154198 0 -1 0 0.83867057594974714 0 -0.54463902268945019 forward_v I I I I #
coedge $-1 $199 $200 $201 $202 reversed $73 $-1 #
coedge $-1 $121 $75 $203 $204 reversed $47 $-1 #
coedge $-1 $75 $120 $199 $205 reversed $47 $-1 #
coedge $-1 $201 $206 $75 $123 forward $207 $-1 #
edge $-1 $208 25.497397296729943 $209 30.875245008359826 $122 $210 forward 7 unknown #
loop $-1 $-1 $129 $76 #
plane-surface $-1 -75.286721396526985 11.461379332901274 6.1721301957472292 -0.83867057594974714 0 0.54463902268945019 0.54463902268945019 0 0.83867057594974714 forward_v I I I I #
loop $-1 $-1 $211 $49 #
coedge $-1 $127 $127 $128 $212 reversed $77 $-1 #
coedge $-1 $128 $128 $127 $212 forward $79 $-1 #
coedge $-1 $129 $129 $80 $130 forward $124 $-1 #
edge $-1 $213 0 $213 6.2831853071796004 $129 $214 forward 7 unknown #
loop $-1 $-1 $136 $81 #
plane-surface $-1 -75.286721396526985 11.461379332901274 6.1721301957472292 -0.83867057594974714 0 0.54463902268945019 0.54463902268945019 0 0.83867057594974714 forward_v I I I I #
loop $-1 $-1 $215 $52 #
coedge $-1 $134 $134 $135 $216 reversed $82 $-1 #
coedge $-1 $135 $135 $134 $216 forward $84 $-1 #
coedge $-1 $136 $136 $85 $137 forward $131 $-1 #
edge $-1 $217 0 $217 6.2831853071796004 $136 $218 forward 7 unknown #
face $-1 $219 $220 $29 $-1 $221 reversed single #
loop $-1 $-1 $222 $86 #
plane-surface $-1 0 0 14.453289734061054 0 0 1 1 0 0 forward_v I I I I #
coedge $-1 $223 $224 $225 $226 reversed $87 $-1 #
coedge $-1 $143 $89 $227 $228 reversed $56 $-1 #
coedge $-1 $89 $142 $223 $229 reversed $56 $-1 #
coedge $-1 $225 $230 $89 $145 forward $231 $-1 #
edge $-1 $232 96.230935688988623 $233 99.637098067936293 $144 $234 forward 7 unknown #
loop $-1 $-1 $151 $90 #
plane-surface $-1 -46.529751903091949 31.37737451732314 99.55197754648043 0.5877852598018023 0 0.80901698891910034 0.80901698891910034 0 -0.5877852598018023 forward_v I I I I #
loop $-1 $-1 $235 $58 #
coedge $-1 $149 $149 $150 $236 reversed $91 $-1 #
coedge $-1 $150 $150 $149 $236 forward $93 $-1 #
coedge $-1 $151 $151 $94 $152 forward $146 $-1 #
edge $-1 $237 0 $237 6.2831853071796004 $151 $238 forward 7 unknown #
loop $-1 $-1 $158 $95 #
plane-surface $-1 -46.529751903091949 31.37737451732314 99.55197754648043 0.5877852598018023 0 0.80901698891910034 0.80901698891910034 0 -0.5877852598018023 forward_v I I I I #
loop $-1 $-1 $239 $61 #
coedge $-1 $156 $156 $157 $240 reversed $96 $-1 #
coedge $-1 $157 $157 $156 $240 forward $98 $-1 #
coedge $-1 $158 $158 $99 $159 forward $153 $-1 #
edge $-1 $241 0 $241 6.2831853071796004 $158 $242 forward 7 unknown #
face $-1 $243 $244 $24 $-1 $245 reversed single #
loop $-1 $-1 $246 $100 #
plane-surface $-1 -75.286721396526985 0 0 1 0 0 0 0 -1 forward_v I I I I #
coedge $-1 $247 $171 $248 $249 forward $101 $-1 #
coedge $-1 $250 $103 $247 $251 forward $65 $-1 #
coedge $-1 $103 $250 $252 $253 forward $65 $-1 #
coedge $-1 $174 $173 $103 $167 reversed $175 $-1 #
edge $-1 $254 -40.539534053173078 $255 40.539534053173078 $166 $256 forward 7 unknown #
coedge $-1 $105 $104 $257 $258 forward $41 $-1 #
coedge $-1 $259 $260 $104 $170 reversed $244 $-1 #
edge $-1 $177 -75.286721396526985 $261 75.286721396526985 $169 $262 forward 7 unknown #
coedge $-1 $163 $263 $105 $172 reversed $101 $-1 #
edge $-1 $264 -75.286721396526985 $176 75.286721396526985 $171 $265 forward 7 unknown #
coedge $-1 $166 $106 $263 $266 forward $175 $-1 #
coedge $-1 $106 $166 $259 $267 reversed $175 $-1 #
loop $-1 $-1 $173 $243 #
vertex $-1 $107 $268 #
vertex $-1 $107 $269 #
straight-curve $-1 75.286721396526985 0 14.453289734061054 0 1 0 I I #
face $-1 $270 $271 $25 $-1 $272 reversed single #
loop $-1 $-1 $273 $108 #
plane-surface $-1 0 0 14.453289734061054 0 0 1 1 0 0 forward_v I I I I #
coedge $-1 $274 $275 $276 $277 reversed $109 $-1 #
coedge $-1 $114 $111 $278 $279 reversed $69 $-1 #
coedge $-1 $111 $114 $280 $281 reversed $69 $-1 #
coedge $-1 $275 $274 $111 $186 reversed $109 $-1 #
edge $-1 $282 -14.453289734061054 $283 14.453289734061054 $185 $284 forward 7 unknown #
coedge $-1 $113 $112 $285 $286 reversed $44 $-1 #
coedge $-1 $278 $287 $112 $189 forward $271 $-1 #
edge $-1 $288 -24.967008998905932 $193 -6.1780411096283601 $188 $289 forward 7 unknown #
coedge $-1 $290 $280 $113 $191 forward $180 $-1 #
edge $-1 $192 6.1780411096283601 $291 24.967008998905932 $190 $292 forward 7 unknown #
vertex $-1 $191 $293 #
vertex $-1 $189 $294 #
straight-curve $-1 -67.773492971253489 -21.750566163895506 0 0 0 -1 I I #
face $-1 $-1 $207 $26 $-1 $295 forward single #
loop $-1 $-1 $296 $116 #
plane-surface $-1 -75.286721396526985 0 0 1 0 0 0 0 -1 forward_v I I I I #
coedge $-1 $297 $298 $299 $300 reversed $117 $-1 #
coedge $-1 $301 $119 $121 $205 forward $73 $-1 #
coedge $-1 $119 $301 $297 $302 forward $73 $-1 #
coedge $-1 $299 $122 $119 $202 forward $207 $-1 #
edge $-1 $209 1.9226994857865236 $303 9.53867984711475 $201 $304 forward 7 unknown #
coedge $-1 $305 $306 $120 $204 forward $196 $-1 #
edge $-1 $307 -37.918021265023761 $208 -29.636861726709938 $203 $308 forward 7 unknown #
edge $-1 $209 -9.8741505613641927 $307 0 $121 $309 forward 7 unknown #
coedge $-1 $122 $299 $305 $310 forward $207 $-1 #
loop $-1 $-1 $299 $195 #
vertex $-1 $204 $311 #
vertex $-1 $123 $312 #
straight-curve $-1 -100.78411869325693 7.6533891522371604 14.453289734061052 1 0 0 I I #
coedge $-1 $211 $211 $-1 $313 reversed $126 $-1 #
edge $-1 $314 0 $314 6.2831853071796004 $127 $315 forward 7 unknown #
vertex $-1 $130 $316 #
ellipse-curve $-1 -72.597797540712051 9.8293835411880792 10.31270996490414 -0.83867057594974714 0 0.54463902268945019 0.54463902268945019 0 0.83867057594974714 1 I I #
coedge $-1 $215 $215 $-1 $317 reversed $133 $-1 #
edge $-1 $318 0 $318 6.2831853071796004 $134 $319 forward 7 unknown #
vertex $-1 $137 $320 #
ellipse-curve $-1 -72.597797540712051 13.093375124614461 10.31270996490414 -0.83867057594974714 0 0.54463902268945019 0.54463902268945019 0 0.83867057594974714 1 I I #
face $-1 $-1 $231 $29 $-1 $321 reversed single #
loop $-1 $-1 $322 $138 #
plane-surface $-1 0 40.539534053173078 0 0 -1 0 0 0 -1 forward_v I I I I #
coedge $-1 $227 $323 $324 $325 forward $139 $-1 #
coedge $-1 $324 $141 $143 $229 forward $87 $-1 #
coedge $-1 $141 $324 $322 $326 reversed $87 $-1 #
coedge $-1 $327 $144 $141 $226 forward $231 $-1 #
edge $-1 $233 6.5265277228116396 $328 24.850846794511508 $225 $329 forward 7 unknown #
coedge $-1 $330 $222 $142 $228 forward $139 $-1 #
edge $-1 $331 49.610992027327384 $232 54.29917225238944 $227 $332 forward 7 unknown #
edge $-1 $233 -150.57344279305397 $331 -144.77853330502728 $143 $333 forward 7 unknown #
coedge $-1 $144 $327 $330 $334 reversed $231 $-1 #
loop $-1 $-1 $225 $219 #
vertex $-1 $334 $335 #
vertex $-1 $145 $336 #
straight-curve $-1 75.286721396526985 22.21521498147321 110.68422542304968 0 0 -1 I I #
coedge $-1 $235 $235 $-1 $337 reversed $148 $-1 #
edge $-1 $338 0 $338 6.2831853071796004 $149 $339 forward 7 unknown #
vertex $-1 $152 $340 #
ellipse-curve $-1 72.942631283995951 27.450734716244604 12.750208544587235 0.5877852598018023 0 0.80901698891910034 0.80901698891910034 0 -0.5877852598018023 1 I I #
coedge $-1 $239 $239 $-1 $341 reversed $155 $-1 #
edge $-1 $342 0 $342 6.2831853071796004 $156 $343 forward 7 unknown #
vertex $-1 $159 $344 #
ellipse-curve $-1 72.942631283995951 35.304014318401691 12.750208544587235 0.5877852598018023 0 0.80901698891910034 0.80901698891910034 0 -0.5877852598018023 1 I I #
face $-1 $-1 $175 $24 $-1 $345 reversed single #
loop $-1 $-1 $259 $160 #
plane-surface $-1 0 40.539534053173078 0 0 -1 0 0 0 -1 forward_v I I I I #
coedge $-1 $346 $257 $260 $347 forward $161 $-1 #
coedge $-1 $263 $163 $164 $251 reversed $101 $-1 #
coedge $-1 $257 $346 $163 $249 reversed $161 $-1 #
edge $-1 $264 -14.453289734061054 $348 14.453289734061054 $248 $349 forward 7 unknown #
coedge $-1 $165 $164 $346 $350 forward $65 $-1 #
edge $-1 $255 -75.286721396526985 $348 75.286721396526985 $247 $351 forward 7 unknown #
coedge $-1 $260 $259 $165 $253 reversed $244 $-1 #
edge $-1 $352 -75.286721396526985 $254 75.286721396526985 $252 $353 forward 7 unknown #
vertex $-1 $167 $354 #
vertex $-1 $266 $355 #
straight-curve $-1 75.286721396526985 0 -14.453289734061054 0 -1 0 I I #
coedge $-1 $246 $248 $168 $258 reversed $161 $-1 #
edge $-1 $261 -40.539534053173078 $264 40.539534053173078 $257 $356 forward 7 unknown #
coedge $-1 $252 $169 $174 $267 forward $244 $-1 #
coedge $-1 $169 $252 $246 $347 reversed $244 $-1 #
vertex $-1 $170 $357 #
straight-curve $-1 0 40.539534053173078 14.453289734061054 -1 0 0 I I #
coedge $-1 $171 $247 $173 $266 reversed $101 $-1 #
vertex $-1 $258 $358 #
straight-curve $-1 0 -40.539534053173078 14.453289734061054 1 0 0 I I #
edge $-1 $176 -14.453289734061054 $255 14.453289734061054 $173 $359 forward 7 unknown #
edge $-1 $177 -14.453289734061054 $254 14.453289734061054 $174 $360 forward 7 unknown #
point $-1 75.286721396526985 -40.539534053173078 14.453289734061054 #
point $-1 75.286721396526985 40.539534053173078 14.453289734061054 #
face $-1 $-1 $361 $25 $-1 $362 reversed single #
loop $-1 $-1 $363 $179 #
plane-surface $-1 0 0 -14.453289734061054 0 0 1 1 0 0 forward_v I I I I #
coedge $-1 $280 $290 $275 $364 forward $180 $-1 #
coedge $-1 $185 $182 $363 $365 reversed $109 $-1 #
coedge $-1 $182 $185 $273 $364 reversed $109 $-1 #
coedge $-1 $366 $367 $182 $277 forward $361 $-1 #
edge $-1 $368 -14.453289734061054 $369 14.453289734061054 $276 $370 forward 7 unknown #
coedge $-1 $363 $188 $183 $279 forward $271 $-1 #
edge $-1 $193 -35.181199646369635 $283 -30.003387003398075 $278 $371 forward 7 unknown #
coedge $-1 $190 $273 $184 $281 forward $180 $-1 #
edge $-1 $282 30.003387003398075 $192 35.181199646369635 $280 $372 forward 7 unknown #
vertex $-1 $281 $373 #
vertex $-1 $279 $374 #
straight-curve $-1 -62.595680328281929 -21.750566163895506 0 0 0 -1 I I #
coedge $-1 $367 $366 $187 $286 forward $361 $-1 #
edge $-1 $291 -14.453289734061054 $288 14.453289734061054 $285 $375 forward 7 unknown #
coedge $-1 $188 $363 $367 $376 forward $271 $-1 #
vertex $-1 $189 $377 #
straight-curve $-1 -67.773492971253489 -15.572525054267146 -14.453289734061054 0 1 0 I I #
coedge $-1 $273 $190 $366 $378 forward $180 $-1 #
vertex $-1 $378 $379 #
straight-curve $-1 -67.773492971253489 -15.572525054267146 14.453289734061054 0 -1 0 I I #
point $-1 -67.773492971253489 -21.750566163895506 14.453289734061054 #
point $-1 -67.773492971253489 -21.750566163895506 -14.453289734061054 #
plane-surface $-1 0 0 14.453289734061054 0 0 1 1 0 0 forward_v I I I I #
coedge $-1 $306 $305 $298 $380 forward $196 $-1 #
coedge $-1 $298 $198 $200 $302 reversed $117 $-1 #
coedge $-1 $198 $297 $296 $380 reversed $117 $-1 #
coedge $-1 $206 $201 $198 $300 forward $207 $-1 #
edge $-1 $303 -30.875245008359826 $381 -25.497397296729943 $299 $382 forward 7 unknown #
coedge $-1 $200 $199 $306 $383 reversed $73 $-1 #
edge $-1 $384 0 $303 9.8741505613641927 $297 $385 forward 7 unknown #
vertex $-1 $202 $386 #
straight-curve $-1 -69.908873684897117 5.7306896664506368 14.453289734061054 0 1 0 I I #
coedge $-1 $296 $203 $206 $310 reversed $196 $-1 #
coedge $-1 $203 $296 $301 $383 forward $196 $-1 #
vertex $-1 $204 $387 #
straight-curve $-1 -75.286721396526985 7.6533891522371604 44.09015146077099 0 0 1 I I #
straight-curve $-1 -75.286721396526985 7.6533891522371604 6.1721301957472292 -0.54463902268945019 0 -0.83867057594974714 I I #
edge $-1 $381 -15.269369513565387 $208 -7.6533891522371604 $305 $388 forward 7 unknown #
point $-1 -75.286721396526985 7.6533891522371604 14.453289734061054 #
point $-1 -69.908873684897102 7.6533891522371604 14.453289734061054 #
edge $-1 $389 1 $389 0 $211 $-1 forward 7 unknown #
vertex $-1 $212 $390 #
ellipse-curve $-1 -70.653040080407067 9.8293835411880792 9.0497697438894171 -0.83867057594974714 0 0.54463902268945019 0.54463902268945019 0 0.83867057594974714 1 I I #
point $-1 -72.053158518022613 9.8293835411880792 11.151380540853898 #
edge $-1 $391 1 $391 0 $215 $-1 forward 7 unknown #
vertex $-1 $216 $392 #
ellipse-curve $-1 -70.653040080407067 13.093375124614461 9.0497697438894171 -0.83867057594974714 0 0.54463902268945019 0.54463902268945019 0 0.83867057594974714 1 I I #
point $-1 -72.053158518022613 13.093375124614461 11.151380540853898 #
plane-surface $-1 75.286721396526985 0 0 -1 0 0 0 0 1 forward_v I I I I #
coedge $-1 $393 $394 $224 $326 forward $220 $-1 #
coedge $-1 $222 $330 $393 $395 forward $139 $-1 #
coedge $-1 $224 $223 $222 $325 reversed $87 $-1 #
edge $-1 $396 -24.850846794511501 $331 -6.5265277228116396 $222 $397 forward 7 unknown #
edge $-1 $328 -102.49417041018725 $396 -96.69926092216059 $322 $398 forward 7 unknown #
coedge $-1 $230 $225 $394 $399 reversed $231 $-1 #
vertex $-1 $226 $400 #
straight-curve $-1 75.286721396526985 15.68868725866157 11.047127355113382 0 1 0 I I #
coedge $-1 $323 $227 $230 $334 forward $139 $-1 #
vertex $-1 $228 $401 #
straight-curve $-1 20.987549144137546 22.21521498147321 14.453289734061059 1 0 0 I I #
straight-curve $-1 -46.529751903091949 22.21521498147321 99.55197754648043 -0.80901698891910034 0 0.5877852598018023 I I #
edge $-1 $232 22.21521498147321 $402 40.539534053173078 $230 $403 forward 7 unknown #
point $-1 75.286721396526985 22.21521498147321 14.453289734061054 #
point $-1 75.286721396526985 22.21521498147321 11.047127355113389 #
edge $-1 $404 1 $404 0 $235 $-1 forward 7 unknown #
vertex $-1 $236 $405 #
ellipse-curve $-1 71.477823131131899 27.450734716244604 10.734073125380213 0.5877852598018023 0 0.80901698891910034 0.80901698891910034 0 -0.5877852598018023 1 I I #
point $-1 73.751648272915034 27.450734716244604 12.162423284785415 #
edge $-1 $406 1 $406 0 $239 $-1 forward 7 unknown #
vertex $-1 $240 $407 #
ellipse-curve $-1 71.477823131131899 35.304014318401691 10.734073125380213 0.5877852598018023 0 0.80901698891910034 0.80901698891910034 0 -0.5877852598018023 1 I I #
point $-1 73.751648272915034 35.304014318401691 12.162423284785415 #
plane-surface $-1 75.286721396526985 0 0 -1 0 0 0 0 1 forward_v I I I I #
coedge $-1 $248 $246 $250 $350 reversed $161 $-1 #
edge $-1 $261 -14.453289734061054 $352 14.453289734061054 $260 $408 forward 7 unknown #
vertex $-1 $350 $409 #
straight-curve $-1 -75.286721396526985 -40.539534053173078 0 0 0 -1 I I #
edge $-1 $348 -40.539534053173078 $352 40.539534053173078 $346 $410 forward 7 unknown #
straight-curve $-1 0 -40.539534053173078 -14.453289734061054 -1 0 0 I I #
vertex $-1 $253 $411 #
straight-curve $-1 0 40.539534053173078 -14.453289734061054 1 0 0 I I #
point $-1 75.286721396526985 40.539534053173078 -14.453289734061054 #
point $-1 75.286721396526985 -40.539534053173078 -14.453289734061054 #
straight-curve $-1 -75.286721396526985 0 14.453289734061054 0 -1 0 I I #
point $-1 -75.286721396526985 40.539534053173078 14.453289734061054 #
point $-1 -75.286721396526985 -40.539534053173078 14.453289734061054 #
straight-curve $-1 75.286721396526985 -40.539534053173078 0 0 0 -1 I I #
straight-curve $-1 75.286721396526985 40.539534053173078 0 0 0 -1 I I #
loop $-1 $-1 $276 $270 #
plane-surface $-1 0 -40.539534053173078 0 0 1 0 0 0 1 forward_v I I I I #
coedge $-1 $287 $278 $274 $365 forward $271 $-1 #
edge $-1 $369 -24.967008998905932 $282 -6.1780411096283601 $273 $412 forward 7 unknown #
edge $-1 $283 6.1780411096283601 $368 24.967008998905932 $363 $413 forward 7 unknown #
coedge $-1 $285 $276 $290 $378 reversed $361 $-1 #
coedge $-1 $276 $285 $287 $376 reversed $361 $-1 #
vertex $-1 $376 $414 #
vertex $-1 $277 $415 #
straight-curve $-1 -62.595680328281929 -40.539534053173078 0 0 0 1 I I #
straight-curve $-1 -32.592293324883855 -21.750566163895506 -14.453289734061054 1 0 0 I I #
straight-curve $-1 -32.592293324883855 -21.750566163895506 14.453289734061054 -1 0 0 I I #
point $-1 -62.595680328281929 -21.750566163895506 14.453289734061054 #
point $-1 -62.595680328281929 -21.750566163895506 -14.453289734061054 #
straight-curve $-1 -67.773492971253489 -40.539534053173078 0 0 0 -1 I I #
edge $-1 $368 62.595680328281929 $288 67.773492971253489 $367 $416 forward 7 unknown #
point $-1 -67.773492971253489 -40.539534053173078 -14.453289734061054 #
edge $-1 $291 -67.773492971253489 $369 -62.595680328281929 $366 $417 forward 7 unknown #
point $-1 -67.773492971253489 -40.539534053173078 14.453289734061054 #
edge $-1 $381 29.636861726709938 $384 37.918021265023761 $296 $418 forward 7 unknown #
vertex $-1 $310 $419 #
straight-curve $-1 -100.78411869325693 15.269369513565387 14.453289734061052 -1 0 0 I I #
edge $-1 $384 -9.53867984711475 $307 -1.9226994857865236 $306 $420 forward 7 unknown #
vertex $-1 $383 $421 #
straight-curve $-1 -75.286721396526985 15.269369513565387 6.1721301957472292 0.54463902268945019 0 0.83867057594974714 I I #
point $-1 -69.908873684897102 15.269369513565387 14.453289734061054 #
point $-1 -75.286721396526985 7.6533891522371604 6.1721301957472292 #
straight-curve $-1 -75.286721396526985 0 14.453289734061054 0 -1 0 I I #
vertex $-1 $313 $422 #
point $-1 -70.108401057717614 9.8293835411880792 9.8884403198391659 #
vertex $-1 $317 $423 #
point $-1 -70.108401057717614 13.093375124614461 9.8884403198391659 #
coedge $-1 $394 $322 $323 $395 reversed $220 $-1 #
coedge $-1 $322 $393 $327 $399 forward $220 $-1 #
edge $-1 $402 -75.286721396526985 $396 -70.59854117146493 $393 $424 forward 7 unknown #
vertex $-1 $326 $425 #
straight-curve $-1 70.59854117146493 15.68868725866157 14.453289734061059 0 -1 0 I I #
straight-curve $-1 -7.6328037304838663 40.539534053173078 71.2916899378355 -0.80901698891910034 0 0.5877852598018023 I I #
edge $-1 $402 -14.453289734061054 $328 -11.047127355113387 $327 $426 forward 7 unknown #
point $-1 75.286721396526985 40.539534053173078 11.047127355113387 #
point $-1 70.59854117146493 22.21521498147321 14.453289734061073 #
vertex $-1 $334 $427 #
straight-curve $-1 75.286721396526985 0 14.453289734061054 0 1 0 I I #
vertex $-1 $337 $428 #
point $-1 72.286840120051011 27.450734716244604 10.14628786557841 #
vertex $-1 $341 $429 #
point $-1 72.286840120051011 35.304014318401691 10.14628786557841 #
straight-curve $-1 -75.286721396526985 40.539534053173078 0 0 0 -1 I I #
point $-1 -75.286721396526985 -40.539534053173078 -14.453289734061054 #
straight-curve $-1 -75.286721396526985 0 -14.453289734061054 0 1 0 I I #
point $-1 -75.286721396526985 40.539534053173078 -14.453289734061054 #
straight-curve $-1 -62.595680328281929 -15.572525054267146 14.453289734061054 0 1 0 I I #
straight-curve $-1 -62.595680328281929 -15.572525054267146 -14.453289734061054 0 -1 0 I I #
point $-1 -62.595680328281929 -40.539534053173078 -14.453289734061054 #
point $-1 -62.595680328281929 -40.539534053173078 14.453289734061054 #
straight-curve $-1 0 -40.539534053173078 -14.453289734061054 -1 0 0 I I #
straight-curve $-1 0 -40.539534053173078 14.453289734061054 1 0 0 I I #
straight-curve $-1 -75.286721396526985 15.269369513565387 44.09015146077099 0 0 -1 I I #
point $-1 -75.286721396526985 15.269369513565387 14.453289734061054 #
straight-curve $-1 -75.286721396526985 5.7306896664506368 6.1721301957472292 0 -1 0 I I #
point $-1 -75.286721396526985 15.269369513565387 6.1721301957472292 #
point $-1 -69.814369504457318 9.8293835411880792 8.5051307211999685 #
point $-1 -69.814369504457318 13.093375124614461 8.5051307211999685 #
straight-curve $-1 0 40.539534053173078 14.453289734061054 -1 0 0 I I #
point $-1 70.59854117146493 40.539534053173071 14.453289734061073 #
straight-curve $-1 75.286721396526985 40.539534053173078 0 0 0 -1 I I #
point $-1 75.286721396526985 40.539534053173078 14.453289734061054 #
point $-1 70.890037871330108 27.450734716244604 9.9250561364611123 #
point $-1 70.890037871330108 35.304014318401691 9.9250561364611123 #
End-of-ACIS-data 