500 0 9 0           
7 Unknown 11 ACIS 5.0 NT 24 Fri Mar 26 03:25:44 1999 
-1 9.9999999999999995e-007 1e-010 
body $-1 $9 $-1 $10 #
body $-1 $11 $-1 $12 #
body $-1 $13 $-1 $14 #
body $-1 $15 $-1 $16 #
body $-1 $17 $-1 $18 #
body $-1 $19 $-1 $20 #
body $-1 $21 $-1 $22 #
body $-1 $23 $-1 $24 #
body $-1 $25 $-1 $26 #
lump $-1 $-1 $27 $0 #
transform $-1 1 0 0 0 1 0 0 0 1 61.580248420667132 41.466076149885062 20.036389772671598 1 rotate no_reflect no_shear #
lump $-1 $-1 $28 $1 #
transform $-1 1 0 0 0 1 0 0 0 1 61.580248420667132 41.466076149885062 20.036389772671598 1 rotate no_reflect no_shear #
lump $-1 $-1 $29 $2 #
transform $-1 1 0 0 0 1 0 0 0 1 61.580248420667132 41.466076149885062 20.036389772671598 1 rotate no_reflect no_shear #
lump $-1 $-1 $30 $3 #
transform $-1 1 0 0 0 1 0 0 0 1 61.580248420667132 41.466076149885062 20.036389772671598 1 rotate no_reflect no_shear #
lump $-1 $-1 $31 $4 #
transform $-1 1 0 0 0 1 0 0 0 1 61.580248420667132 41.466076149885062 20.036389772671598 1 rotate no_reflect no_shear #
lump $-1 $-1 $32 $5 #
transform $-1 1 0 0 0 1 0 0 0 1 61.580248420667132 41.466076149885062 20.036389772671598 1 rotate no_reflect no_shear #
lump $-1 $-1 $33 $6 #
transform $-1 1 0 0 0 1 0 0 0 1 61.580248420667132 41.466076149885062 20.036389772671598 1 rotate no_reflect no_shear #
lump $-1 $-1 $34 $7 #
transform $-1 1 0 0 0 1 0 0 0 1 61.580248420667132 41.466076149885062 20.036389772671598 1 rotate no_reflect no_shear #
lump $-1 $-1 $35 $8 #
transform $-1 1 0 0 0 1 0 0 0 1 61.580248420667132 41.466076149885062 20.036389772671598 1 rotate no_reflect no_shear #
shell $-1 $-1 $-1 $36 $-1 $9 #
shell $-1 $-1 $-1 $37 $-1 $11 #
shell $-1 $-1 $-1 $38 $-1 $13 #
shell $-1 $-1 $-1 $39 $-1 $15 #
shell $-1 $-1 $-1 $40 $-1 $17 #
shell $-1 $-1 $-1 $41 $-1 $19 #
shell $-1 $-1 $-1 $42 $-1 $21 #
shell $-1 $-1 $-1 $43 $-1 $23 #
shell $-1 $-1 $-1 $44 $-1 $25 #
face $-1 $45 $46 $27 $-1 $47 forward single #
face $-1 $48 $49 $28 $-1 $50 reversed single #
face $-1 $51 $52 $29 $-1 $53 reversed single #
face $-1 $54 $55 $30 $-1 $56 forward single #
face $-1 $57 $58 $31 $-1 $59 forward single #
face $-1 $60 $61 $32 $-1 $62 forward single #
face $-1 $63 $64 $33 $-1 $65 reversed single #
face $-1 $66 $67 $34 $-1 $68 forward single #
face $-1 $69 $70 $35 $-1 $71 forward single #
face $-1 $72 $73 $27 $-1 $74 reversed single #
loop $-1 $-1 $75 $36 #
plane-surface $-1 0 0 20.036389772671598 0 0 1 1 0 0 forward_v I I I I #
face $-1 $76 $77 $28 $-1 $78 reversed single #
loop $-1 $-1 $79 $37 #
plane-surface $-1 -50.508105311662895 0 11.892322240511067 0 0 1 1 0 0 forward_v I I I I #
face $-1 $80 $81 $29 $-1 $82 reversed single #
loop $-1 $-1 $83 $38 #
plane-surface $-1 -22.281882935685218 82.504732263626664 153.12545523616853 1 0 0 0 -0.7660444514056185 -0.64278759981090561 forward_v I I I I #
face $-1 $84 $85 $30 $-1 $86 forward single #
loop $-1 $87 $88 $39 #
cone-surface $-1 -19.648438694874116 36.093745243816002 14.107102352608258 0 -0.7660444514056185 -0.64278759981090561 1 0 0 1 I I 0 1 1 forward I I I I #
face $-1 $89 $90 $31 $-1 $91 forward single #
loop $-1 $92 $93 $40 #
cone-surface $-1 -15.698272333657464 36.093745243816002 14.107102352608258 0 -0.7660444514056185 -0.64278759981090561 1 0 0 1 I I 0 1 1 forward I I I I #
face $-1 $94 $95 $32 $-1 $96 forward single #
loop $-1 $97 $98 $41 #
cone-surface $-1 -11.748105972440811 36.093745243816002 14.107102352608258 0 -0.7660444514056185 -0.64278759981090561 1 0 0 1 I I 0 1 1 forward I I I I #
face $-1 $99 $100 $33 $-1 $101 reversed single #
loop $-1 $-1 $102 $42 #
plane-surface $-1 49.472761778877569 -41.466076149885041 6.2531406535820082 0 -0.82903758062907751 0.55919289150049634 1 0 0 forward_v I I I I #
face $-1 $103 $104 $34 $-1 $105 forward single #
loop $-1 $106 $107 $43 #
cone-surface $-1 44.283838932396321 -33.602645175903504 10.976239515623927 0 0.82903758062907751 -0.55919289150049634 2 0 0 1 I I 0 1 2 forward I I I I #
face $-1 $108 $109 $35 $-1 $110 forward single #
loop $-1 $111 $112 $44 #
cone-surface $-1 54.661684625358802 -33.602645175903504 10.976239515623927 0 0.82903758062907751 -0.55919289150049634 2 0 0 1 I I 0 1 2 forward I I I I #
face $-1 $113 $114 $27 $-1 $115 reversed single #
loop $-1 $-1 $116 $45 #
plane-surface $-1 0 0 -20.036389772671598 0 0 1 1 0 0 forward_v I I I I #
coedge $-1 $117 $118 $119 $120 forward $46 $-1 #
face $-1 $121 $122 $28 $-1 $123 reversed single #
loop $-1 $-1 $124 $48 #
plane-surface $-1 -39.435962202658658 0 15.964356006591331 -1 0 0 0 0 1 forward_v I I I I #
coedge $-1 $125 $126 $127 $128 forward $49 $-1 #
face $-1 $129 $130 $29 $-1 $131 reversed single #
loop $-1 $-1 $132 $51 #
plane-surface $-1 -15.698272333657464 -11.841682974036658 73.959415080008654 0 0.7660444514056185 0.64278759981090561 1 0 0 forward_v I I I I #
coedge $-1 $133 $134 $135 $136 reversed $52 $-1 #
face $-1 $-1 $137 $30 $-1 $138 forward single #
loop $-1 $139 $140 $54 #
cone-surface $-1 -19.648438694874116 34.36887694263779 12.65976603515324 0 -0.7660444514056185 -0.64278759981090561 0.5 0 0 1 I I -0.70710678118654746 0.70710678118654746 0.5 forward I I I I #
loop $-1 $-1 $141 $39 #
coedge $-1 $88 $88 $142 $143 reversed $55 $-1 #
face $-1 $-1 $144 $31 $-1 $145 forward single #
loop $-1 $146 $147 $57 #
cone-surface $-1 -15.698272333657464 34.36887694263779 12.65976603515324 0 -0.7660444514056185 -0.64278759981090561 0.5 0 0 1 I I -0.70710678118654746 0.70710678118654746 0.5 forward I I I I #
loop $-1 $-1 $148 $40 #
coedge $-1 $93 $93 $149 $150 reversed $58 $-1 #
face $-1 $-1 $151 $32 $-1 $152 forward single #
loop $-1 $153 $154 $60 #
cone-surface $-1 -11.748105972440811 34.36887694263779 12.65976603515324 0 -0.7660444514056185 -0.64278759981090561 0.5 0 0 1 I I -0.70710678118654746 0.70710678118654746 0.5 forward I I I I #
loop $-1 $-1 $155 $41 #
coedge $-1 $98 $98 $156 $157 reversed $61 $-1 #
face $-1 $158 $159 $33 $-1 $160 reversed single #
loop $-1 $-1 $161 $63 #
plane-surface $-1 37.365275137088005 -143.57075648029993 75.123615000925454 1 0 0 0 0.82903758062907751 -0.55919289150049634 forward_v I I I I #
coedge $-1 $162 $163 $164 $165 reversed $64 $-1 #
face $-1 $-1 $166 $34 $-1 $167 forward single #
loop $-1 $168 $169 $66 #
cone-surface $-1 44.283838932396321 -29.558635936808404 8.2485209266205608 0 0.82903758062907751 -0.55919289150049634 1 0 0 1 I I -0.70710678118654746 0.70710678118654746 1 forward I I I I #
loop $-1 $-1 $170 $43 #
coedge $-1 $107 $107 $171 $172 reversed $67 $-1 #
face $-1 $-1 $173 $35 $-1 $174 forward single #
loop $-1 $175 $176 $69 #
cone-surface $-1 54.661684625358802 -29.558635936808404 8.2485209266205608 0 0.82903758062907751 -0.55919289150049634 1 0 0 1 I I -0.70710678118654746 0.70710678118654746 1 forward I I I I #
loop $-1 $-1 $177 $44 #
coedge $-1 $112 $112 $178 $179 reversed $70 $-1 #
face $-1 $180 $181 $27 $-1 $182 reversed single #
loop $-1 $-1 $183 $72 #
plane-surface $-1 0 -41.466076149885062 0 0 1 0 0 0 1 forward_v I I I I #
coedge $-1 $184 $185 $186 $187 forward $73 $-1 #
coedge $-1 $188 $75 $189 $190 forward $46 $-1 #
coedge $-1 $75 $188 $191 $192 forward $46 $-1 #
coedge $-1 $193 $194 $75 $120 reversed $195 $-1 #
edge $-1 $196 -41.466076149885062 $197 41.466076149885062 $119 $198 forward 7 unknown #
face $-1 $199 $200 $28 $-1 $201 reversed single #
loop $-1 $-1 $202 $76 #
plane-surface $-1 0 41.466076149885062 0 0 -1 0 0 0 -1 forward_v I I I I #
coedge $-1 $127 $203 $204 $205 reversed $77 $-1 #
coedge $-1 $206 $79 $207 $208 reversed $49 $-1 #
coedge $-1 $79 $206 $209 $210 reversed $49 $-1 #
coedge $-1 $211 $124 $79 $128 reversed $77 $-1 #
edge $-1 $212 -41.466076149885062 $213 41.466076149885062 $127 $214 forward 7 unknown #
face $-1 $215 $216 $29 $-1 $217 forward single #
loop $-1 $-1 $218 $80 #
plane-surface $-1 -9.1146617316297096 82.504732263626664 153.12545523616853 -1 0 0 0 0.7660444514056185 0.64278759981090561 forward_v I I I I #
coedge $-1 $219 $220 $221 $222 reversed $81 $-1 #
coedge $-1 $134 $83 $223 $224 reversed $52 $-1 #
coedge $-1 $83 $133 $219 $225 reversed $52 $-1 #
coedge $-1 $221 $226 $83 $136 forward $216 $-1 #
edge $-1 $227 -0.21371001807172973 $228 7.8472596431155708 $135 $229 forward 7 unknown #
loop $-1 $-1 $142 $84 #
plane-surface $-1 -15.698272333657464 -11.841682974036658 73.959415080008654 0 0.7660444514056185 0.64278759981090561 1 0 0 forward_v I I I I #
loop $-1 $-1 $230 $54 #
coedge $-1 $140 $140 $141 $231 reversed $85 $-1 #
coedge $-1 $141 $141 $140 $231 forward $87 $-1 #
coedge $-1 $142 $142 $88 $143 forward $137 $-1 #
edge $-1 $232 3.2065122962841098e-015 $232 6.283185307179604 $142 $233 forward 7 unknown #
loop $-1 $-1 $149 $89 #
plane-surface $-1 -15.698272333657464 -11.841682974036658 73.959415080008654 0 0.7660444514056185 0.64278759981090561 1 0 0 forward_v I I I I #
loop $-1 $-1 $234 $57 #
coedge $-1 $147 $147 $148 $235 reversed $90 $-1 #
coedge $-1 $148 $148 $147 $235 forward $92 $-1 #
coedge $-1 $149 $149 $93 $150 forward $144 $-1 #
edge $-1 $236 3.2065122962841098e-015 $236 6.283185307179604 $149 $237 forward 7 unknown #
loop $-1 $-1 $156 $94 #
plane-surface $-1 -15.698272333657464 -11.841682974036658 73.959415080008654 0 0.7660444514056185 0.64278759981090561 1 0 0 forward_v I I I I #
loop $-1 $-1 $238 $60 #
coedge $-1 $154 $154 $155 $239 reversed $95 $-1 #
coedge $-1 $155 $155 $154 $239 forward $97 $-1 #
coedge $-1 $156 $156 $98 $157 forward $151 $-1 #
edge $-1 $240 3.2065122962841098e-015 $240 6.283185307179604 $156 $241 forward 7 unknown #
face $-1 $242 $243 $33 $-1 $244 forward single #
loop $-1 $-1 $245 $99 #
plane-surface $-1 61.580248420667132 0 0 -1 0 0 0 0 1 forward_v I I I I #
coedge $-1 $246 $247 $248 $249 reversed $100 $-1 #
coedge $-1 $250 $102 $245 $251 reversed $64 $-1 #
coedge $-1 $102 $250 $246 $252 forward $64 $-1 #
coedge $-1 $248 $253 $102 $165 forward $243 $-1 #
edge $-1 $254 -36.843867531228348 $255 -12.628894247649221 $164 $256 forward 7 unknown #
loop $-1 $-1 $171 $103 #
plane-surface $-1 49.472761778877569 -41.466076149885041 6.2531406535820082 0 -0.82903758062907751 0.55919289150049634 1 0 0 forward_v I I I I #
loop $-1 $-1 $257 $66 #
coedge $-1 $169 $169 $170 $258 reversed $104 $-1 #
coedge $-1 $170 $170 $169 $258 forward $106 $-1 #
coedge $-1 $171 $171 $107 $172 forward $166 $-1 #
edge $-1 $259 2.2234762998362979e-016 $259 6.2831853071796004 $171 $260 forward 7 unknown #
loop $-1 $-1 $178 $108 #
plane-surface $-1 49.472761778877569 -41.466076149885041 6.2531406535820082 0 -0.82903758062907751 0.55919289150049634 1 0 0 forward_v I I I I #
loop $-1 $-1 $261 $69 #
coedge $-1 $176 $176 $177 $262 reversed $109 $-1 #
coedge $-1 $177 $177 $176 $262 forward $111 $-1 #
coedge $-1 $178 $178 $112 $179 forward $173 $-1 #
edge $-1 $263 2.2234762998362979e-016 $263 6.2831853071796004 $178 $264 forward 7 unknown #
face $-1 $265 $266 $27 $-1 $267 reversed single #
loop $-1 $-1 $268 $113 #
plane-surface $-1 -61.580248420667132 0 0 1 0 0 0 0 -1 forward_v I I I I #
coedge $-1 $269 $191 $270 $271 forward $114 $-1 #
coedge $-1 $272 $116 $269 $273 forward $73 $-1 #
coedge $-1 $116 $272 $274 $275 forward $73 $-1 #
coedge $-1 $194 $193 $116 $187 reversed $195 $-1 #
edge $-1 $276 -41.466076149885062 $277 41.466076149885062 $186 $278 forward 7 unknown #
coedge $-1 $118 $117 $279 $280 forward $46 $-1 #
coedge $-1 $281 $282 $117 $190 reversed $266 $-1 #
edge $-1 $197 -61.580248420667132 $283 61.580248420667132 $189 $284 forward 7 unknown #
coedge $-1 $183 $285 $118 $192 reversed $114 $-1 #
edge $-1 $286 -61.580248420667132 $196 61.580248420667132 $191 $287 forward 7 unknown #
coedge $-1 $186 $119 $285 $288 forward $195 $-1 #
coedge $-1 $119 $186 $281 $289 reversed $195 $-1 #
loop $-1 $-1 $193 $265 #
vertex $-1 $120 $290 #
vertex $-1 $120 $291 #
straight-curve $-1 61.580248420667132 0 20.036389772671598 0 1 0 I I #
face $-1 $292 $293 $28 $-1 $294 forward single #
loop $-1 $-1 $295 $121 #
plane-surface $-1 -61.580248420667132 0 0 1 0 0 0 0 -1 forward_v I I I I #
coedge $-1 $209 $296 $211 $297 forward $122 $-1 #
coedge $-1 $124 $211 $298 $299 reversed $77 $-1 #
coedge $-1 $300 $207 $124 $205 forward $301 $-1 #
edge $-1 $213 3.9101442372154018 $302 12.054211769375929 $204 $303 forward 7 unknown #
coedge $-1 $126 $125 $295 $304 reversed $49 $-1 #
coedge $-1 $204 $305 $125 $208 forward $301 $-1 #
edge $-1 $306 -36.326195764835688 $213 -14.18190954682721 $207 $307 forward 7 unknown #
coedge $-1 $308 $202 $126 $210 forward $122 $-1 #
edge $-1 $212 14.18190954682721 $309 36.326195764835688 $209 $310 forward 7 unknown #
coedge $-1 $203 $127 $202 $297 reversed $77 $-1 #
vertex $-1 $210 $311 #
vertex $-1 $208 $312 #
straight-curve $-1 -39.435962202658658 0 11.892322240511067 0 -1 0 I I #
face $-1 $-1 $313 $29 $-1 $314 reversed single #
loop $-1 $-1 $135 $129 #
plane-surface $-1 0 0 20.036389772671598 0 0 1 1 0 0 forward_v I I I I #
coedge $-1 $315 $316 $317 $318 reversed $130 $-1 #
coedge $-1 $319 $132 $134 $225 forward $81 $-1 #
coedge $-1 $132 $319 $315 $320 forward $81 $-1 #
coedge $-1 $317 $135 $132 $222 forward $216 $-1 #
edge $-1 $228 -14.432746768856486 $321 -1.2655255648009778 $221 $322 forward 7 unknown #
coedge $-1 $323 $324 $133 $224 forward $313 $-1 #
edge $-1 $325 -66.133027650440226 $227 -56.526337845412669 $223 $326 forward 7 unknown #
edge $-1 $228 70.39150953759075 $325 82.932152299770152 $134 $327 forward 7 unknown #
coedge $-1 $135 $317 $323 $328 forward $216 $-1 #
vertex $-1 $224 $329 #
vertex $-1 $136 $330 #
straight-curve $-1 -22.281882935685218 41.252366131813332 20.036389772671598 0 -1 0 I I #
coedge $-1 $230 $230 $-1 $331 reversed $139 $-1 #
edge $-1 $332 0 $332 6.2831853071796004 $140 $333 forward 7 unknown #
vertex $-1 $143 $334 #
ellipse-curve $-1 -19.648438694874116 37.435591319291404 15.233044870157824 0 0.7660444514056185 0.64278759981090561 1 0 0 1 I I #
coedge $-1 $234 $234 $-1 $335 reversed $146 $-1 #
edge $-1 $336 0 $336 6.2831853071796004 $147 $337 forward 7 unknown #
vertex $-1 $150 $338 #
ellipse-curve $-1 -15.698272333657464 37.435591319291404 15.233044870157824 0 0.7660444514056185 0.64278759981090561 1 0 0 1 I I #
coedge $-1 $238 $238 $-1 $339 reversed $153 $-1 #
edge $-1 $340 0 $340 6.2831853071796004 $154 $341 forward 7 unknown #
vertex $-1 $157 $342 #
ellipse-curve $-1 -11.748105972440811 37.435591319291404 15.233044870157824 0 0.7660444514056185 0.64278759981090561 1 0 0 1 I I #
face $-1 $-1 $343 $33 $-1 $344 reversed single #
loop $-1 $-1 $164 $158 #
plane-surface $-1 0 0 20.036389772671598 0 0 1 1 0 0 forward_v I I I I #
coedge $-1 $345 $346 $162 $251 forward $159 $-1 #
coedge $-1 $247 $161 $163 $252 reversed $100 $-1 #
coedge $-1 $161 $246 $347 $348 reversed $100 $-1 #
coedge $-1 $349 $164 $161 $249 forward $243 $-1 #
edge $-1 $255 -39.616220721295974 $350 -30.319302090264905 $248 $351 forward 7 unknown #
coedge $-1 $163 $162 $352 $353 reversed $64 $-1 #
edge $-1 $354 -9.0017232113275529 $254 7.623879102901471 $245 $355 forward 7 unknown #
edge $-1 $356 -3.8427911784796275e-014 $255 16.625602314228985 $246 $357 forward 7 unknown #
coedge $-1 $164 $349 $345 $358 forward $243 $-1 #
vertex $-1 $165 $359 #
vertex $-1 $165 $360 #
straight-curve $-1 24.736380889438784 -32.169157518853993 20.036389772671598 -1 0 0 I I #
coedge $-1 $257 $257 $-1 $361 reversed $168 $-1 #
edge $-1 $362 0 $362 6.2831853071796004 $169 $363 forward 7 unknown #
vertex $-1 $172 $364 #
ellipse-curve $-1 44.283838932396321 -36.817616834369524 13.144765213126794 0 -0.82903758062907751 0.55919289150049634 2 0 0 1 I I #
coedge $-1 $261 $261 $-1 $365 reversed $175 $-1 #
edge $-1 $366 0 $366 6.2831853071796004 $176 $367 forward 7 unknown #
vertex $-1 $179 $368 #
ellipse-curve $-1 54.661684625358802 -36.817616834369524 13.144765213126794 0 -0.82903758062907751 0.55919289150049634 2 0 0 1 I I #
face $-1 $-1 $195 $27 $-1 $369 reversed single #
loop $-1 $-1 $281 $180 #
plane-surface $-1 0 41.466076149885062 0 0 -1 0 0 0 -1 forward_v I I I I #
coedge $-1 $370 $279 $282 $371 forward $181 $-1 #
coedge $-1 $285 $183 $184 $273 reversed $114 $-1 #
coedge $-1 $279 $370 $183 $271 reversed $181 $-1 #
edge $-1 $286 -20.036389772671598 $372 20.036389772671598 $270 $373 forward 7 unknown #
coedge $-1 $185 $184 $370 $374 forward $73 $-1 #
edge $-1 $277 -61.580248420667132 $372 61.580248420667132 $269 $375 forward 7 unknown #
coedge $-1 $282 $281 $185 $275 reversed $266 $-1 #
edge $-1 $376 -61.580248420667132 $276 61.580248420667132 $274 $377 forward 7 unknown #
vertex $-1 $187 $378 #
vertex $-1 $288 $379 #
straight-curve $-1 61.580248420667132 0 -20.036389772671598 0 -1 0 I I #
coedge $-1 $268 $270 $188 $280 reversed $181 $-1 #
edge $-1 $283 -41.466076149885062 $286 41.466076149885062 $279 $380 forward 7 unknown #
coedge $-1 $274 $189 $194 $289 forward $266 $-1 #
coedge $-1 $189 $274 $268 $371 reversed $266 $-1 #
vertex $-1 $190 $381 #
straight-curve $-1 0 41.466076149885062 20.036389772671598 -1 0 0 I I #
coedge $-1 $191 $269 $193 $288 reversed $114 $-1 #
vertex $-1 $280 $382 #
straight-curve $-1 0 -41.466076149885062 20.036389772671598 1 0 0 I I #
edge $-1 $196 -20.036389772671598 $277 20.036389772671598 $193 $383 forward 7 unknown #
edge $-1 $197 -20.036389772671598 $276 20.036389772671598 $194 $384 forward 7 unknown #
point $-1 61.580248420667132 -41.466076149885062 20.036389772671598 #
point $-1 61.580248420667132 41.466076149885062 20.036389772671598 #
face $-1 $-1 $301 $28 $-1 $385 reversed single #
loop $-1 $-1 $298 $199 #
plane-surface $-1 0 0 20.036389772671598 0 0 1 1 0 0 forward_v I I I I #
coedge $-1 $386 $387 $206 $304 forward $200 $-1 #
coedge $-1 $202 $308 $388 $389 reversed $122 $-1 #
edge $-1 $390 -12.054211769375929 $212 -3.9101442372154018 $202 $391 forward 7 unknown #
coedge $-1 $388 $392 $203 $299 forward $293 $-1 #
edge $-1 $302 -41.466076149885062 $390 41.466076149885062 $298 $393 forward 7 unknown #
coedge $-1 $305 $204 $392 $394 reversed $301 $-1 #
loop $-1 $-1 $204 $292 #
vertex $-1 $205 $395 #
straight-curve $-1 -39.435962202658658 -41.466076149885062 7.9821780032956653 0 0 1 I I #
edge $-1 $309 -41.466076149885062 $306 41.466076149885062 $295 $396 forward 7 unknown #
coedge $-1 $207 $300 $386 $397 forward $301 $-1 #
vertex $-1 $304 $398 #
straight-curve $-1 -25.254052655831448 -41.466076149885062 11.892322240511067 1 0 0 I I #
coedge $-1 $296 $209 $387 $399 reversed $122 $-1 #
vertex $-1 $304 $400 #
straight-curve $-1 -25.254052655831448 41.466076149885062 11.892322240511067 -1 0 0 I I #
point $-1 -39.435962202658658 41.466076149885062 11.892322240511067 #
point $-1 -39.435962202658658 -41.466076149885062 11.892322240511067 #
loop $-1 $-1 $223 $215 #
plane-surface $-1 0 41.466076149885062 0 0 -1 0 0 0 -1 forward_v I I I I #
coedge $-1 $316 $218 $220 $320 reversed $130 $-1 #
coedge $-1 $218 $315 $401 $402 reversed $130 $-1 #
coedge $-1 $226 $221 $218 $318 forward $216 $-1 #
edge $-1 $321 -7.8472596431155708 $403 0.21371001807172973 $317 $404 forward 7 unknown #
coedge $-1 $220 $219 $324 $405 reversed $81 $-1 #
edge $-1 $406 -82.932152299770152 $321 -70.39150953759075 $315 $407 forward 7 unknown #
vertex $-1 $222 $408 #
straight-curve $-1 -7.8491361668287318 33.405106488697761 20.036389772671598 1 0 0 I I #
coedge $-1 $401 $223 $226 $328 reversed $313 $-1 #
coedge $-1 $223 $401 $319 $405 forward $313 $-1 #
vertex $-1 $224 $409 #
straight-curve $-1 -22.281882935685218 41.466076149885062 76.562727618084267 0 0 1 I I #
straight-curve $-1 -22.281882935685218 -11.841682974036658 73.959415080008654 0 0.64278759981090561 -0.7660444514056185 I I #
edge $-1 $403 9.1146617316297096 $227 22.281882935685218 $323 $410 forward 7 unknown #
point $-1 -22.281882935685218 41.466076149885062 20.036389772671598 #
point $-1 -22.281882935685218 33.405106488697761 20.036389772671598 #
edge $-1 $411 1 $411 0 $230 $-1 forward 7 unknown #
vertex $-1 $231 $412 #
ellipse-curve $-1 -19.648438694874116 34.7518991683406 12.981159835058692 0 0.7660444514056185 0.64278759981090561 1 0 0 1 I I #
point $-1 -18.648438694874116 37.435591319291412 15.233044870157826 #
edge $-1 $413 1 $413 0 $234 $-1 forward 7 unknown #
vertex $-1 $235 $414 #
ellipse-curve $-1 -15.698272333657464 34.7518991683406 12.981159835058692 0 0.7660444514056185 0.64278759981090561 1 0 0 1 I I #
point $-1 -14.698272333657464 37.435591319291412 15.233044870157826 #
edge $-1 $415 1 $415 0 $238 $-1 forward 7 unknown #
vertex $-1 $239 $416 #
ellipse-curve $-1 -11.748105972440811 34.7518991683406 12.981159835058692 0 0.7660444514056185 0.64278759981090561 1 0 0 1 I I #
point $-1 -10.748105972440811 37.435591319291412 15.233044870157826 #
loop $-1 $-1 $352 $242 #
plane-surface $-1 0 -41.466076149885062 0 0 1 0 0 0 1 forward_v I I I I #
coedge $-1 $346 $245 $253 $358 reversed $159 $-1 #
coedge $-1 $245 $345 $417 $418 forward $159 $-1 #
coedge $-1 $352 $419 $247 $348 forward $343 $-1 #
edge $-1 $350 17.52541772779113 $356 31.308666846880751 $347 $420 forward 7 unknown #
coedge $-1 $253 $248 $419 $421 forward $243 $-1 #
vertex $-1 $421 $422 #
straight-curve $-1 37.365275137088005 -71.785378240149967 20.036389772671598 0 -1 0 I I #
coedge $-1 $417 $347 $250 $353 forward $343 $-1 #
edge $-1 $356 12.628894247649221 $354 36.843867531228348 $352 $423 forward 7 unknown #
vertex $-1 $353 $424 #
straight-curve $-1 61.580248420667132 -36.432376518855676 13.715907486193581 0 0.55919289150049634 0.82903758062907751 I I #
vertex $-1 $353 $425 #
straight-curve $-1 37.365275137088005 -41.466076149885041 6.2531406535820082 0 0.55919289150049634 0.82903758062907751 I I #
edge $-1 $426 -41.466076149885062 $254 -32.169157518853993 $345 $427 forward 7 unknown #
point $-1 61.580248420667132 -32.169157518853993 20.036389772671598 #
point $-1 37.365275137088005 -32.169157518853993 20.036389772671598 #
edge $-1 $428 1 $428 0 $257 $-1 forward 7 unknown #
vertex $-1 $258 $429 #
ellipse-curve $-1 44.283838932396321 -30.387673517437481 8.8077138181210568 0 -0.82903758062907751 0.55919289150049634 2 0 0 1 I I #
point $-1 46.283838932396321 -36.817616834369531 13.144765213126799 #
edge $-1 $430 1 $430 0 $261 $-1 forward 7 unknown #
vertex $-1 $262 $431 #
ellipse-curve $-1 54.661684625358802 -30.387673517437481 8.8077138181210568 0 -0.82903758062907751 0.55919289150049634 2 0 0 1 I I #
point $-1 56.661684625358802 -36.817616834369531 13.144765213126799 #
plane-surface $-1 61.580248420667132 0 0 -1 0 0 0 0 1 forward_v I I I I #
coedge $-1 $270 $268 $272 $374 reversed $181 $-1 #
edge $-1 $283 -20.036389772671598 $376 20.036389772671598 $282 $432 forward 7 unknown #
vertex $-1 $374 $433 #
straight-curve $-1 -61.580248420667132 -41.466076149885062 0 0 0 -1 I I #
edge $-1 $372 -41.466076149885062 $376 41.466076149885062 $370 $434 forward 7 unknown #
straight-curve $-1 0 -41.466076149885062 -20.036389772671598 -1 0 0 I I #
vertex $-1 $275 $435 #
straight-curve $-1 0 41.466076149885062 -20.036389772671598 1 0 0 I I #
point $-1 61.580248420667132 41.466076149885062 -20.036389772671598 #
point $-1 61.580248420667132 -41.466076149885062 -20.036389772671598 #
straight-curve $-1 -61.580248420667132 0 20.036389772671598 0 -1 0 I I #
point $-1 -61.580248420667132 41.466076149885062 20.036389772671598 #
point $-1 -61.580248420667132 -41.466076149885062 20.036389772671598 #
straight-curve $-1 61.580248420667132 -41.466076149885062 0 0 0 -1 I I #
straight-curve $-1 61.580248420667132 41.466076149885062 0 0 0 -1 I I #
plane-surface $-1 0 -41.466076149885062 0 0 1 0 0 0 1 forward_v I I I I #
coedge $-1 $436 $295 $305 $397 reversed $200 $-1 #
coedge $-1 $295 $436 $308 $399 forward $200 $-1 #
coedge $-1 $437 $298 $296 $389 forward $293 $-1 #
edge $-1 $390 39.435962202658658 $438 61.580248420667132 $296 $439 forward 7 unknown #
vertex $-1 $389 $440 #
straight-curve $-1 -39.435962202658658 41.466076149885062 7.9821780032956653 0 0 -1 I I #
coedge $-1 $298 $437 $300 $394 forward $293 $-1 #
straight-curve $-1 -39.435962202658658 0 20.036389772671598 0 1 0 I I #
edge $-1 $441 -61.580248420667132 $302 -39.435962202658658 $300 $442 forward 7 unknown #
point $-1 -39.435962202658658 -41.466076149885062 20.036389772671594 #
straight-curve $-1 -61.580248420667132 0 11.892322240511067 0 -1 0 I I #
edge $-1 $441 -20.036389772671598 $306 -11.892322240511067 $386 $443 forward 7 unknown #
point $-1 -61.580248420667132 -41.466076149885062 11.892322240511067 #
edge $-1 $438 -20.036389772671598 $309 -11.892322240511067 $308 $444 forward 7 unknown #
point $-1 -61.580248420667132 41.466076149885062 11.892322240511067 #
coedge $-1 $324 $323 $316 $402 forward $313 $-1 #
edge $-1 $403 56.526337845412669 $406 66.133027650440226 $401 $445 forward 7 unknown #
vertex $-1 $328 $446 #
straight-curve $-1 -9.1146617316297096 41.252366131813332 20.036389772671598 0 1 0 I I #
edge $-1 $406 1.2655255648009778 $325 14.432746768856486 $324 $447 forward 7 unknown #
vertex $-1 $405 $448 #
straight-curve $-1 -9.1146617316297096 -11.841682974036658 73.959415080008654 0 -0.64278759981090561 0.7660444514056185 I I #
point $-1 -9.1146617316297096 33.405106488697761 20.036389772671598 #
point $-1 -22.281882935685218 41.466076149885062 10.429699967644041 #
straight-curve $-1 0 41.466076149885062 20.036389772671598 -1 0 0 I I #
vertex $-1 $331 $449 #
point $-1 -18.648438694874116 34.7518991683406 12.981159835058692 #
vertex $-1 $335 $450 #
point $-1 -14.698272333657464 34.7518991683406 12.981159835058692 #
vertex $-1 $339 $451 #
point $-1 -10.748105972440811 34.7518991683406 12.981159835058692 #
coedge $-1 $419 $352 $346 $418 reversed $343 $-1 #
edge $-1 $426 -20.036389772671598 $354 -6.2531406535819762 $346 $452 forward 7 unknown #
coedge $-1 $347 $417 $349 $421 reversed $343 $-1 #
straight-curve $-1 37.365275137088005 -41.466076149885062 37.561807500462727 0 0 -1 I I #
edge $-1 $350 37.365275137088005 $426 61.580248420667132 $419 $453 forward 7 unknown #
point $-1 37.365275137088005 -41.466076149885062 20.036389772671598 #
straight-curve $-1 24.736380889438784 -41.466076149885062 6.2531406535819851 1 0 0 I I #
point $-1 61.580248420667132 -41.466076149885062 6.2531406535819762 #
point $-1 37.365275137088005 -41.466076149885062 6.2531406535819762 #
vertex $-1 $358 $454 #
straight-curve $-1 61.580248420667132 0 20.036389772671598 0 1 0 I I #
vertex $-1 $361 $455 #
point $-1 46.283838932396321 -30.387673517437481 8.8077138181210568 #
vertex $-1 $365 $456 #
point $-1 56.661684625358802 -30.387673517437481 8.8077138181210568 #
straight-curve $-1 -61.580248420667132 41.466076149885062 0 0 0 -1 I I #
point $-1 -61.580248420667132 -41.466076149885062 -20.036389772671598 #
straight-curve $-1 -61.580248420667132 0 -20.036389772671598 0 1 0 I I #
point $-1 -61.580248420667132 41.466076149885062 -20.036389772671598 #
coedge $-1 $387 $386 $437 $457 reversed $200 $-1 #
coedge $-1 $392 $388 $436 $457 forward $293 $-1 #
vertex $-1 $389 $458 #
straight-curve $-1 0 41.466076149885062 20.036389772671598 -1 0 0 I I #
point $-1 -39.435962202658658 41.466076149885062 20.036389772671594 #
vertex $-1 $457 $459 #
straight-curve $-1 0 -41.466076149885062 20.036389772671598 1 0 0 I I #
straight-curve $-1 -61.580248420667132 -41.466076149885062 0 0 0 -1 I I #
straight-curve $-1 -61.580248420667132 41.466076149885062 0 0 0 -1 I I #
straight-curve $-1 -9.1146617316297096 41.466076149885062 76.562727618084267 0 0 -1 I I #
point $-1 -9.1146617316297096 41.466076149885062 20.036389772671598 #
straight-curve $-1 -7.8491361668287318 41.466076149885062 10.429699967644034 -1 0 0 I I #
point $-1 -9.1146617316297096 41.466076149885062 10.429699967644041 #
point $-1 -19.648438694874116 33.985854716934981 12.338372235247787 #
point $-1 -15.698272333657464 33.985854716934981 12.338372235247787 #
point $-1 -11.748105972440811 33.985854716934981 12.338372235247787 #
straight-curve $-1 61.580248420667132 -41.466076149885062 0 0 0 -1 I I #
straight-curve $-1 0 -41.466076149885062 20.036389772671598 1 0 0 I I #
point $-1 61.580248420667132 -41.466076149885062 20.036389772671598 #
point $-1 44.283838932396321 -28.729598356179327 7.6893280351200648 #
point $-1 54.661684625358802 -28.729598356179327 7.6893280351200648 #
edge $-1 $438 -41.466076149885062 $441 41.466076149885062 $436 $460 forward 7 unknown #
point $-1 -61.580248420667132 41.466076149885062 20.036389772671598 #
point $-1 -61.580248420667132 -41.466076149885062 20.036389772671598 #
straight-curve $-1 -61.580248420667132 0 20.036389772671598 0 -1 0 I I #
End-of-ACIS-data 