500 0 10 0           
7 Unknown 11 ACIS 5.0 NT 24 Thu Mar 25 22:45:40 1999 
-1 9.9999999999999995e-007 1e-010 
body $-1 $10 $-1 $11 #
body $-1 $12 $-1 $13 #
body $-1 $14 $-1 $15 #
body $-1 $16 $-1 $17 #
body $-1 $18 $-1 $19 #
body $-1 $20 $-1 $21 #
body $-1 $22 $-1 $23 #
body $-1 $24 $-1 $25 #
body $-1 $26 $-1 $27 #
body $-1 $28 $-1 $29 #
lump $-1 $-1 $30 $0 #
transform $-1 1 0 0 0 1 0 0 0 1 66.15070039979247 33.25865912644737 8.4537711762552217 1 rotate no_reflect no_shear #
lump $-1 $-1 $31 $1 #
transform $-1 1 0 0 0 1 0 0 0 1 66.15070039979247 33.25865912644737 8.4537711762552217 1 rotate no_reflect no_shear #
lump $-1 $-1 $32 $2 #
transform $-1 1 0 0 0 1 0 0 0 1 66.15070039979247 33.25865912644737 8.4537711762552217 1 rotate no_reflect no_shear #
lump $-1 $-1 $33 $3 #
transform $-1 1 0 0 0 1 0 0 0 1 66.15070039979247 33.25865912644737 8.4537711762552217 1 rotate no_reflect no_shear #
lump $-1 $-1 $34 $4 #
transform $-1 1 0 0 0 1 0 0 0 1 66.15070039979247 33.25865912644737 8.4537711762552217 1 rotate no_reflect no_shear #
lump $-1 $-1 $35 $5 #
transform $-1 1 0 0 0 1 0 0 0 1 66.15070039979247 33.25865912644737 8.4537711762552217 1 rotate no_reflect no_shear #
lump $-1 $-1 $36 $6 #
transform $-1 1 0 0 0 1 0 0 0 1 66.15070039979247 33.25865912644737 8.4537711762552217 1 rotate no_reflect no_shear #
lump $-1 $-1 $37 $7 #
transform $-1 1 0 0 0 1 0 0 0 1 66.15070039979247 33.25865912644737 8.4537711762552217 1 rotate no_reflect no_shear #
lump $-1 $-1 $38 $8 #
transform $-1 1 0 0 0 1 0 0 0 1 66.15070039979247 33.25865912644737 8.4537711762552217 1 rotate no_reflect no_shear #
lump $-1 $-1 $39 $9 #
transform $-1 1 0 0 0 1 0 0 0 1 66.15070039979247 33.25865912644737 8.4537711762552217 1 rotate no_reflect no_shear #
shell $-1 $-1 $-1 $40 $-1 $10 #
shell $-1 $-1 $-1 $41 $-1 $12 #
shell $-1 $-1 $-1 $42 $-1 $14 #
shell $-1 $-1 $-1 $43 $-1 $16 #
shell $-1 $-1 $-1 $44 $-1 $18 #
shell $-1 $-1 $-1 $45 $-1 $20 #
shell $-1 $-1 $-1 $46 $-1 $22 #
shell $-1 $-1 $-1 $47 $-1 $24 #
shell $-1 $-1 $-1 $48 $-1 $26 #
shell $-1 $-1 $-1 $49 $-1 $28 #
face $-1 $50 $51 $30 $-1 $52 forward single #
face $-1 $53 $54 $31 $-1 $55 forward single #
face $-1 $56 $57 $32 $-1 $58 reversed single #
face $-1 $59 $60 $33 $-1 $61 forward single #
face $-1 $62 $63 $34 $-1 $64 forward single #
face $-1 $65 $66 $35 $-1 $67 forward single #
face $-1 $68 $69 $36 $-1 $70 reversed single #
face $-1 $71 $72 $37 $-1 $73 forward single #
face $-1 $74 $75 $38 $-1 $76 forward single #
face $-1 $77 $78 $39 $-1 $79 forward single #
face $-1 $80 $81 $30 $-1 $82 reversed single #
loop $-1 $-1 $83 $40 #
plane-surface $-1 0 0 8.4537711762552217 0 0 1 1 0 0 forward_v I I I I #
face $-1 $84 $85 $31 $-1 $86 reversed single #
loop $-1 $-1 $87 $41 #
plane-surface $-1 -66.15070039979247 0 0 1 0 0 0 0 -1 forward_v I I I I #
face $-1 $88 $89 $32 $-1 $90 reversed single #
loop $-1 $-1 $91 $42 #
plane-surface $-1 45.018865576024716 82.221512114808817 139.82872642036287 1 0 0 0 -0.71933980857756763 -0.69465836192734942 forward_v I I I I #
face $-1 $92 $93 $33 $-1 $94 forward single #
loop $-1 $95 $96 $43 #
cone-surface $-1 49.245232540778261 27.912575711486262 3.0085947143841412 0 -0.71933980857756763 -0.69465836192734942 1.5 0 0 1 I I 0 1 1.5 forward I I I I #
face $-1 $97 $98 $34 $-1 $99 forward single #
loop $-1 $100 $101 $44 #
cone-surface $-1 55.584782987908582 27.912575711486262 3.0085947143841412 0 -0.71933980857756763 -0.69465836192734942 1.5 0 0 1 I I 0 1 1.5 forward I I I I #
face $-1 $102 $103 $35 $-1 $104 forward single #
loop $-1 $105 $106 $45 #
cone-surface $-1 61.924333435038903 27.912575711486262 3.0085947143841412 0 -0.71933980857756763 -0.69465836192734942 1.5 0 0 1 I I 0 1 1.5 forward I I I I #
face $-1 $107 $108 $36 $-1 $109 reversed single #
loop $-1 $-1 $110 $46 #
plane-surface $-1 55.584782987908596 -33.258659126447398 0.075897081099057573 0 -0.71933980857756763 0.69465836192734942 1 0 0 forward_v I I I I #
face $-1 $111 $112 $37 $-1 $113 forward single #
loop $-1 $114 $115 $47 #
cone-surface $-1 49.245232540778261 -27.912575711486255 3.0085947143841412 0 0.71933980857756763 -0.69465836192734942 1.5 0 0 1 I I 0 1 1.5 forward I I I I #
face $-1 $116 $117 $38 $-1 $118 forward single #
loop $-1 $119 $120 $48 #
cone-surface $-1 55.584782987908582 -27.912575711486255 3.0085947143841412 0 0.71933980857756763 -0.69465836192734942 1.5 0 0 1 I I 0 1 1.5 forward I I I I #
face $-1 $121 $122 $39 $-1 $123 forward single #
loop $-1 $124 $125 $49 #
cone-surface $-1 61.924333435038903 -27.912575711486255 3.0085947143841412 0 0.71933980857756763 -0.69465836192734942 1.5 0 0 1 I I 0 1 1.5 forward I I I I #
face $-1 $126 $127 $30 $-1 $128 reversed single #
loop $-1 $-1 $129 $50 #
plane-surface $-1 0 0 -8.4537711762552217 0 0 1 1 0 0 forward_v I I I I #
coedge $-1 $130 $131 $132 $133 forward $51 $-1 #
face $-1 $134 $135 $31 $-1 $136 forward single #
loop $-1 $-1 $137 $53 #
plane-surface $-1 0 33.25865912644737 0 0 -1 0 0 0 -1 forward_v I I I I #
coedge $-1 $138 $139 $140 $141 forward $54 $-1 #
face $-1 $142 $143 $32 $-1 $144 reversed single #
loop $-1 $-1 $145 $56 #
plane-surface $-1 55.584782987908596 -12.94815221090866 47.924452060229484 0 0.71933980857756763 0.69465836192734942 1 0 0 forward_v I I I I #
coedge $-1 $146 $147 $148 $149 reversed $57 $-1 #
face $-1 $-1 $150 $33 $-1 $151 forward single #
loop $-1 $152 $153 $59 #
cone-surface $-1 49.245232540778261 26.072196829297638 1.2313615286456372 0 -0.71933980857756763 -0.69465836192734942 0.75 0 0 1 I I -0.70710678118654757 0.70710678118654757 0.75 forward I I I I #
loop $-1 $-1 $154 $43 #
coedge $-1 $96 $96 $155 $156 reversed $60 $-1 #
face $-1 $-1 $157 $34 $-1 $158 forward single #
loop $-1 $159 $160 $62 #
cone-surface $-1 55.584782987908582 26.072196829297638 1.2313615286456372 0 -0.71933980857756763 -0.69465836192734942 0.75 0 0 1 I I -0.70710678118654757 0.70710678118654757 0.75 forward I I I I #
loop $-1 $-1 $161 $44 #
coedge $-1 $101 $101 $162 $163 reversed $63 $-1 #
face $-1 $-1 $164 $35 $-1 $165 forward single #
loop $-1 $166 $167 $65 #
cone-surface $-1 61.924333435038903 26.072196829297638 1.2313615286456372 0 -0.71933980857756763 -0.69465836192734942 0.75 0 0 1 I I -0.70710678118654757 0.70710678118654757 0.75 forward I I I I #
loop $-1 $-1 $168 $45 #
coedge $-1 $106 $106 $169 $170 reversed $66 $-1 #
face $-1 $171 $172 $36 $-1 $173 forward single #
loop $-1 $-1 $174 $68 #
plane-surface $-1 45.018865576024716 -128.42832345216488 91.980171441232443 1 0 0 0 0.71933980857756763 -0.69465836192734942 forward_v I I I I #
coedge $-1 $175 $176 $177 $178 reversed $69 $-1 #
face $-1 $-1 $179 $37 $-1 $180 forward single #
loop $-1 $181 $182 $71 #
cone-surface $-1 49.245232540778261 -26.072196829297631 1.2313615286456372 0 0.71933980857756763 -0.69465836192734942 0.75 0 0 1 I I -0.70710678118654757 0.70710678118654757 0.75 forward I I I I #
loop $-1 $-1 $183 $47 #
coedge $-1 $115 $115 $184 $185 reversed $72 $-1 #
face $-1 $-1 $186 $38 $-1 $187 forward single #
loop $-1 $188 $189 $74 #
cone-surface $-1 55.584782987908582 -26.072196829297631 1.2313615286456372 0 0.71933980857756763 -0.69465836192734942 0.75 0 0 1 I I -0.70710678118654757 0.70710678118654757 0.75 forward I I I I #
loop $-1 $-1 $190 $48 #
coedge $-1 $120 $120 $191 $192 reversed $75 $-1 #
face $-1 $-1 $193 $39 $-1 $194 forward single #
loop $-1 $195 $196 $77 #
cone-surface $-1 61.924333435038903 -26.072196829297631 1.2313615286456372 0 0.71933980857756763 -0.69465836192734942 0.75 0 0 1 I I -0.70710678118654757 0.70710678118654757 0.75 forward I I I I #
loop $-1 $-1 $197 $49 #
coedge $-1 $125 $125 $198 $199 reversed $78 $-1 #
face $-1 $200 $201 $30 $-1 $202 reversed single #
loop $-1 $-1 $203 $80 #
plane-surface $-1 0 -33.25865912644737 0 0 1 0 0 0 1 forward_v I I I I #
coedge $-1 $204 $205 $206 $207 forward $81 $-1 #
coedge $-1 $208 $83 $209 $210 forward $51 $-1 #
coedge $-1 $83 $208 $211 $212 forward $51 $-1 #
coedge $-1 $213 $214 $83 $133 reversed $215 $-1 #
edge $-1 $216 -33.25865912644737 $217 33.25865912644737 $132 $218 forward 7 unknown #
face $-1 $219 $220 $31 $-1 $221 reversed single #
loop $-1 $-1 $140 $84 #
plane-surface $-1 -69.478011546432256 0 -5.4537711762552217 0 0 1 1 0 0 forward_v I I I I #
coedge $-1 $222 $223 $139 $224 forward $85 $-1 #
coedge $-1 $225 $87 $226 $227 reversed $54 $-1 #
coedge $-1 $87 $225 $137 $224 reversed $54 $-1 #
coedge $-1 $228 $229 $87 $141 reversed $135 $-1 #
edge $-1 $230 -33.25865912644737 $231 33.25865912644737 $140 $232 forward 7 unknown #
face $-1 $233 $234 $32 $-1 $235 reversed single #
loop $-1 $-1 $236 $88 #
plane-surface $-1 66.15070039979247 0 0 -1 0 0 0 0 1 forward_v I I I I #
coedge $-1 $237 $238 $239 $240 reversed $89 $-1 #
coedge $-1 $147 $91 $241 $242 reversed $57 $-1 #
coedge $-1 $91 $146 $237 $243 reversed $57 $-1 #
coedge $-1 $239 $244 $91 $149 forward $245 $-1 #
edge $-1 $246 7.852096930957039 $247 15.942515709368365 $148 $248 forward 7 unknown #
loop $-1 $-1 $155 $92 #
plane-surface $-1 55.584782987908596 -12.94815221090866 47.924452060229484 0 0.71933980857756763 0.69465836192734942 1 0 0 forward_v I I I I #
loop $-1 $-1 $249 $59 #
coedge $-1 $153 $153 $154 $250 reversed $93 $-1 #
coedge $-1 $154 $154 $153 $250 forward $95 $-1 #
coedge $-1 $155 $155 $96 $156 forward $150 $-1 #
edge $-1 $251 -8.5186945921308608e-016 $251 6.2831853071795996 $155 $252 forward 7 unknown #
loop $-1 $-1 $162 $97 #
plane-surface $-1 55.584782987908596 -12.94815221090866 47.924452060229484 0 0.71933980857756763 0.69465836192734942 1 0 0 forward_v I I I I #
loop $-1 $-1 $253 $62 #
coedge $-1 $160 $160 $161 $254 reversed $98 $-1 #
coedge $-1 $161 $161 $160 $254 forward $100 $-1 #
coedge $-1 $162 $162 $101 $163 forward $157 $-1 #
edge $-1 $255 -8.5186945921308608e-016 $255 6.2831853071795996 $162 $256 forward 7 unknown #
loop $-1 $-1 $169 $102 #
plane-surface $-1 55.584782987908596 -12.94815221090866 47.924452060229484 0 0.71933980857756763 0.69465836192734942 1 0 0 forward_v I I I I #
loop $-1 $-1 $257 $65 #
coedge $-1 $167 $167 $168 $258 reversed $103 $-1 #
coedge $-1 $168 $168 $167 $258 forward $105 $-1 #
coedge $-1 $169 $169 $106 $170 forward $164 $-1 #
edge $-1 $259 -8.5186945921308608e-016 $259 6.2831853071795996 $169 $260 forward 7 unknown #
face $-1 $261 $262 $36 $-1 $263 reversed single #
loop $-1 $-1 $177 $107 #
plane-surface $-1 0 0 8.4537711762552217 0 0 1 1 0 0 forward_v I I I I #
coedge $-1 $264 $265 $266 $267 reversed $108 $-1 #
coedge $-1 $268 $110 $269 $270 reversed $69 $-1 #
coedge $-1 $110 $268 $264 $271 forward $69 $-1 #
coedge $-1 $266 $272 $110 $178 forward $172 $-1 #
edge $-1 $273 -38.358308905838172 $274 -17.226474082070418 $177 $275 forward 7 unknown #
loop $-1 $-1 $184 $111 #
plane-surface $-1 55.584782987908596 -33.258659126447398 0.075897081099057573 0 -0.71933980857756763 0.69465836192734942 1 0 0 forward_v I I I I #
loop $-1 $-1 $276 $71 #
coedge $-1 $182 $182 $183 $277 reversed $112 $-1 #
coedge $-1 $183 $183 $182 $277 forward $114 $-1 #
coedge $-1 $184 $184 $115 $185 forward $179 $-1 #
edge $-1 $278 7.5190277099282764e-017 $278 6.2831853071796004 $184 $279 forward 7 unknown #
loop $-1 $-1 $191 $116 #
plane-surface $-1 55.584782987908596 -33.258659126447398 0.075897081099057573 0 -0.71933980857756763 0.69465836192734942 1 0 0 forward_v I I I I #
loop $-1 $-1 $280 $74 #
coedge $-1 $189 $189 $190 $281 reversed $117 $-1 #
coedge $-1 $190 $190 $189 $281 forward $119 $-1 #
coedge $-1 $191 $191 $120 $192 forward $186 $-1 #
edge $-1 $282 7.5190277099282764e-017 $282 6.2831853071796004 $191 $283 forward 7 unknown #
loop $-1 $-1 $198 $121 #
plane-surface $-1 55.584782987908596 -33.258659126447398 0.075897081099057573 0 -0.71933980857756763 0.69465836192734942 1 0 0 forward_v I I I I #
loop $-1 $-1 $284 $77 #
coedge $-1 $196 $196 $197 $285 reversed $122 $-1 #
coedge $-1 $197 $197 $196 $285 forward $124 $-1 #
coedge $-1 $198 $198 $125 $199 forward $193 $-1 #
edge $-1 $286 7.5190277099282764e-017 $286 6.2831853071796004 $198 $287 forward 7 unknown #
face $-1 $288 $289 $30 $-1 $290 reversed single #
loop $-1 $-1 $291 $126 #
plane-surface $-1 -66.15070039979247 0 0 1 0 0 0 0 -1 forward_v I I I I #
coedge $-1 $292 $211 $293 $294 forward $127 $-1 #
coedge $-1 $295 $129 $292 $296 forward $81 $-1 #
coedge $-1 $129 $295 $297 $298 forward $81 $-1 #
coedge $-1 $214 $213 $129 $207 reversed $215 $-1 #
edge $-1 $299 -33.25865912644737 $300 33.25865912644737 $206 $301 forward 7 unknown #
coedge $-1 $131 $130 $302 $303 forward $51 $-1 #
coedge $-1 $304 $305 $130 $210 reversed $289 $-1 #
edge $-1 $217 -66.15070039979247 $306 66.15070039979247 $209 $307 forward 7 unknown #
coedge $-1 $203 $308 $131 $212 reversed $127 $-1 #
edge $-1 $309 -66.15070039979247 $216 66.15070039979247 $211 $310 forward 7 unknown #
coedge $-1 $206 $132 $308 $311 forward $215 $-1 #
coedge $-1 $132 $206 $304 $312 reversed $215 $-1 #
loop $-1 $-1 $213 $288 #
vertex $-1 $133 $313 #
vertex $-1 $133 $314 #
straight-curve $-1 66.15070039979247 0 8.4537711762552217 0 1 0 I I #
face $-1 $315 $316 $31 $-1 $317 reversed single #
loop $-1 $-1 $318 $134 #
plane-surface $-1 -72.805322693072043 0 -6.9537711762552217 1 0 0 0 0 -1 forward_v I I I I #
coedge $-1 $319 $137 $320 $321 reversed $85 $-1 #
coedge $-1 $137 $319 $228 $322 reversed $85 $-1 #
edge $-1 $230 5.4537711762552217 $323 8.4537711762552217 $137 $324 forward 7 unknown #
coedge $-1 $139 $138 $325 $326 reversed $54 $-1 #
coedge $-1 $327 $328 $138 $227 forward $329 $-1 #
edge $-1 $330 -8.4537711762552217 $231 -5.4537711762552217 $226 $331 forward 7 unknown #
coedge $-1 $332 $140 $223 $322 forward $135 $-1 #
coedge $-1 $140 $332 $327 $333 forward $135 $-1 #
vertex $-1 $224 $334 #
vertex $-1 $333 $335 #
straight-curve $-1 -66.15070039979247 0 -5.4537711762552217 0 -1 0 I I #
face $-1 $-1 $245 $32 $-1 $336 forward single #
loop $-1 $-1 $337 $142 #
plane-surface $-1 0 33.25865912644737 0 0 -1 0 0 0 -1 forward_v I I I I #
coedge $-1 $338 $339 $238 $340 forward $143 $-1 #
coedge $-1 $341 $145 $147 $243 forward $89 $-1 #
coedge $-1 $145 $341 $236 $340 reversed $89 $-1 #
coedge $-1 $342 $148 $145 $240 forward $245 $-1 #
edge $-1 $247 17.226474082070418 $343 38.358308905838172 $239 $344 forward 7 unknown #
coedge $-1 $345 $337 $146 $242 forward $234 $-1 #
edge $-1 $346 -69.838466129082377 $246 -61.460592033926211 $241 $347 forward 7 unknown #
edge $-1 $247 54.870702849080644 $346 66.517318252894725 $147 $348 forward 7 unknown #
coedge $-1 $148 $342 $345 $349 forward $245 $-1 #
loop $-1 $-1 $239 $233 #
vertex $-1 $242 $350 #
vertex $-1 $149 $351 #
straight-curve $-1 45.018865576024716 41.110756057404409 8.4537711762552163 0 -1 0 I I #
coedge $-1 $249 $249 $-1 $352 reversed $152 $-1 #
edge $-1 $353 0 $353 6.2831853071796004 $153 $354 forward 7 unknown #
vertex $-1 $156 $355 #
ellipse-curve $-1 49.245232540778261 29.21344973724171 4.2648341286771316 0 0.71933980857756763 0.69465836192734942 1.5 0 0 1 I I #
coedge $-1 $253 $253 $-1 $356 reversed $159 $-1 #
edge $-1 $357 0 $357 6.2831853071796004 $160 $358 forward 7 unknown #
vertex $-1 $163 $359 #
ellipse-curve $-1 55.584782987908582 29.21344973724171 4.2648341286771316 0 0.71933980857756763 0.69465836192734942 1.5 0 0 1 I I #
coedge $-1 $257 $257 $-1 $360 reversed $166 $-1 #
edge $-1 $361 0 $361 6.2831853071796004 $167 $362 forward 7 unknown #
vertex $-1 $170 $363 #
ellipse-curve $-1 61.924333435038903 29.21344973724171 4.2648341286771316 0 0.71933980857756763 0.69465836192734942 1.5 0 0 1 I I #
face $-1 $-1 $364 $36 $-1 $365 reversed single #
loop $-1 $-1 $366 $171 #
plane-surface $-1 0 -33.25865912644737 0 0 1 0 0 0 1 forward_v I I I I #
coedge $-1 $265 $174 $176 $271 reversed $108 $-1 #
coedge $-1 $174 $264 $367 $368 reversed $108 $-1 #
coedge $-1 $369 $177 $174 $267 forward $172 $-1 #
edge $-1 $274 -39.045921378046359 $370 -30.955502599635068 $266 $371 forward 7 unknown #
coedge $-1 $176 $175 $366 $372 reversed $69 $-1 #
coedge $-1 $373 $374 $175 $270 forward $364 $-1 #
edge $-1 $375 -11.524404938444283 $273 0.12221046536974815 $269 $376 forward 7 unknown #
edge $-1 $377 4.0916992838649807e-014 $274 11.646615403814071 $264 $378 forward 7 unknown #
coedge $-1 $177 $369 $373 $379 forward $172 $-1 #
vertex $-1 $270 $380 #
vertex $-1 $178 $381 #
straight-curve $-1 27.792391493954298 -25.168240348036079 8.4537711762552217 -1 0 0 I I #
coedge $-1 $276 $276 $-1 $382 reversed $181 $-1 #
edge $-1 $383 0 $383 6.2831853071796004 $182 $384 forward 7 unknown #
vertex $-1 $185 $385 #
ellipse-curve $-1 49.245232540778261 -29.213449737241724 4.2648341286771538 0 -0.71933980857756763 0.69465836192734942 1.5 0 0 1 I I #
coedge $-1 $280 $280 $-1 $386 reversed $188 $-1 #
edge $-1 $387 0 $387 6.2831853071796004 $189 $388 forward 7 unknown #
vertex $-1 $192 $389 #
ellipse-curve $-1 55.584782987908582 -29.213449737241724 4.2648341286771538 0 -0.71933980857756763 0.69465836192734942 1.5 0 0 1 I I #
coedge $-1 $284 $284 $-1 $390 reversed $195 $-1 #
edge $-1 $391 0 $391 6.2831853071796004 $196 $392 forward 7 unknown #
vertex $-1 $199 $393 #
ellipse-curve $-1 61.924333435038903 -29.213449737241724 4.2648341286771538 0 -0.71933980857756763 0.69465836192734942 1.5 0 0 1 I I #
face $-1 $-1 $215 $30 $-1 $394 reversed single #
loop $-1 $-1 $304 $200 #
plane-surface $-1 0 33.25865912644737 0 0 -1 0 0 0 -1 forward_v I I I I #
coedge $-1 $395 $302 $305 $396 forward $201 $-1 #
coedge $-1 $308 $203 $204 $296 reversed $127 $-1 #
coedge $-1 $302 $395 $203 $294 reversed $201 $-1 #
edge $-1 $309 -8.4537711762552217 $397 8.4537711762552217 $293 $398 forward 7 unknown #
coedge $-1 $205 $204 $395 $399 forward $81 $-1 #
edge $-1 $300 -66.15070039979247 $397 66.15070039979247 $292 $400 forward 7 unknown #
coedge $-1 $305 $304 $205 $298 reversed $289 $-1 #
edge $-1 $401 -66.15070039979247 $299 66.15070039979247 $297 $402 forward 7 unknown #
vertex $-1 $207 $403 #
vertex $-1 $311 $404 #
straight-curve $-1 66.15070039979247 0 -8.4537711762552217 0 -1 0 I I #
coedge $-1 $291 $293 $208 $303 reversed $201 $-1 #
edge $-1 $306 -33.25865912644737 $309 33.25865912644737 $302 $405 forward 7 unknown #
coedge $-1 $297 $209 $214 $312 forward $289 $-1 #
coedge $-1 $209 $297 $291 $396 reversed $289 $-1 #
vertex $-1 $210 $406 #
straight-curve $-1 0 33.25865912644737 8.4537711762552217 -1 0 0 I I #
coedge $-1 $211 $292 $213 $311 reversed $127 $-1 #
vertex $-1 $303 $407 #
straight-curve $-1 0 -33.25865912644737 8.4537711762552217 1 0 0 I I #
edge $-1 $216 -8.4537711762552217 $300 8.4537711762552217 $213 $408 forward 7 unknown #
edge $-1 $217 -8.4537711762552217 $299 8.4537711762552217 $214 $409 forward 7 unknown #
point $-1 66.15070039979247 -33.25865912644737 8.4537711762552217 #
point $-1 66.15070039979247 33.25865912644737 8.4537711762552217 #
face $-1 $-1 $329 $31 $-1 $410 reversed single #
loop $-1 $-1 $325 $219 #
plane-surface $-1 0 0 -8.4537711762552217 0 0 1 1 0 0 forward_v I I I I #
coedge $-1 $411 $412 $319 $413 forward $220 $-1 #
coedge $-1 $223 $222 $318 $413 reversed $85 $-1 #
coedge $-1 $325 $414 $222 $321 forward $316 $-1 #
edge $-1 $415 -72.805322693072043 $323 -66.15070039979247 $222 $416 forward 7 unknown #
edge $-1 $230 -3.3273111466397864 $417 3.3273111466397864 $223 $418 forward 7 unknown #
vertex $-1 $224 $419 #
straight-curve $-1 -66.15070039979247 33.25865912644737 0 0 0 -1 I I #
coedge $-1 $420 $320 $225 $326 forward $316 $-1 #
edge $-1 $323 -33.25865912644737 $330 33.25865912644737 $325 $421 forward 7 unknown #
coedge $-1 $422 $226 $229 $333 reversed $329 $-1 #
coedge $-1 $226 $422 $420 $423 reversed $329 $-1 #
loop $-1 $-1 $226 $315 #
vertex $-1 $423 $424 #
straight-curve $-1 -66.15070039979247 -33.25865912644737 0 0 0 1 I I #
coedge $-1 $229 $228 $412 $425 forward $135 $-1 #
edge $-1 $426 -3.3273111466397864 $231 3.3273111466397864 $327 $427 forward 7 unknown #
point $-1 -66.15070039979247 33.25865912644737 -5.4537711762552217 #
point $-1 -66.15070039979247 -33.25865912644737 -5.4537711762552217 #
plane-surface $-1 0 0 8.4537711762552217 0 0 1 1 0 0 forward_v I I I I #
coedge $-1 $241 $428 $341 $429 forward $234 $-1 #
coedge $-1 $339 $236 $428 $430 reversed $143 $-1 #
coedge $-1 $236 $338 $342 $431 reversed $143 $-1 #
edge $-1 $343 33.136448661077594 $432 44.783064064891676 $236 $433 forward 7 unknown #
coedge $-1 $238 $237 $337 $429 reversed $89 $-1 #
coedge $-1 $244 $239 $339 $431 forward $245 $-1 #
vertex $-1 $431 $434 #
straight-curve $-1 27.792391493954298 25.168240348036036 8.453771176255227 1 0 0 I I #
coedge $-1 $428 $241 $244 $349 reversed $234 $-1 #
vertex $-1 $242 $435 #
straight-curve $-1 45.018865576024716 33.25865912644737 69.914363210181435 0 0 1 I I #
straight-curve $-1 45.018865576024716 -12.94815221090866 47.924452060229484 0 0.69465836192734942 -0.71933980857756763 I I #
edge $-1 $436 -66.15070039979247 $246 -45.018865576024716 $345 $437 forward 7 unknown #
point $-1 45.018865576024716 33.25865912644737 8.4537711762552217 #
point $-1 45.018865576024716 25.168240348036043 8.4537711762552235 #
edge $-1 $438 1 $438 0 $249 $-1 forward 7 unknown #
vertex $-1 $250 $439 #
ellipse-curve $-1 49.245232540778261 26.611701685730814 1.7523553000911494 0 0.71933980857756763 0.69465836192734942 1.5 0 0 1 I I #
point $-1 50.745232540778261 29.21344973724171 4.2648341286771334 #
edge $-1 $440 1 $440 0 $253 $-1 forward 7 unknown #
vertex $-1 $254 $441 #
ellipse-curve $-1 55.584782987908582 26.611701685730814 1.7523553000911494 0 0.71933980857756763 0.69465836192734942 1.5 0 0 1 I I #
point $-1 57.084782987908582 29.21344973724171 4.2648341286771334 #
edge $-1 $442 1 $442 0 $257 $-1 forward 7 unknown #
vertex $-1 $258 $443 #
ellipse-curve $-1 61.924333435038903 26.611701685730814 1.7523553000911494 0 0.71933980857756763 0.69465836192734942 1.5 0 0 1 I I #
point $-1 63.424333435038903 29.21344973724171 4.2648341286771334 #
loop $-1 $-1 $269 $261 #
plane-surface $-1 66.15070039979247 0 0 -1 0 0 0 0 1 forward_v I I I I #
coedge $-1 $444 $367 $268 $372 forward $262 $-1 #
coedge $-1 $366 $445 $265 $368 forward $262 $-1 #
edge $-1 $370 37.536314544360998 $377 45.914188639517135 $367 $446 forward 7 unknown #
coedge $-1 $272 $266 $445 $447 forward $172 $-1 #
vertex $-1 $447 $448 #
straight-curve $-1 45.018865576024716 -64.214161726082438 8.4537711762552235 0 -1 0 I I #
edge $-1 $377 17.226474082070418 $375 38.358308905838172 $366 $449 forward 7 unknown #
coedge $-1 $374 $269 $272 $379 reversed $364 $-1 #
coedge $-1 $269 $373 $444 $450 forward $364 $-1 #
vertex $-1 $372 $451 #
straight-curve $-1 66.15070039979247 -25.25313486972021 8.365860323489974 0 0.69465836192734942 0.71933980857756763 I I #
vertex $-1 $372 $452 #
straight-curve $-1 45.018865576024716 -33.258659126447398 0.075897081099057573 0 0.69465836192734942 0.71933980857756763 I I #
edge $-1 $453 -33.25865912644737 $273 -25.168240348036079 $373 $454 forward 7 unknown #
point $-1 66.15070039979247 -25.168240348036079 8.4537711762552217 #
point $-1 45.018865576024716 -25.168240348036079 8.4537711762552217 #
edge $-1 $455 1 $455 0 $276 $-1 forward 7 unknown #
vertex $-1 $277 $456 #
ellipse-curve $-1 49.245232540778261 -26.611701685730807 1.7523553000911494 0 -0.71933980857756763 0.69465836192734942 1.5 0 0 1 I I #
point $-1 50.745232540778261 -29.213449737241703 4.2648341286771334 #
edge $-1 $457 1 $457 0 $280 $-1 forward 7 unknown #
vertex $-1 $281 $458 #
ellipse-curve $-1 55.584782987908582 -26.611701685730807 1.7523553000911494 0 -0.71933980857756763 0.69465836192734942 1.5 0 0 1 I I #
point $-1 57.084782987908582 -29.213449737241703 4.2648341286771334 #
edge $-1 $459 1 $459 0 $284 $-1 forward 7 unknown #
vertex $-1 $285 $460 #
ellipse-curve $-1 61.924333435038903 -26.611701685730807 1.7523553000911494 0 -0.71933980857756763 0.69465836192734942 1.5 0 0 1 I I #
point $-1 63.424333435038903 -29.213449737241703 4.2648341286771334 #
plane-surface $-1 66.15070039979247 0 0 -1 0 0 0 0 1 forward_v I I I I #
coedge $-1 $293 $291 $295 $399 reversed $201 $-1 #
edge $-1 $306 -8.4537711762552217 $401 8.4537711762552217 $305 $461 forward 7 unknown #
vertex $-1 $399 $462 #
straight-curve $-1 -66.15070039979247 -33.25865912644737 0 0 0 -1 I I #
edge $-1 $397 -33.25865912644737 $401 33.25865912644737 $395 $463 forward 7 unknown #
straight-curve $-1 0 -33.25865912644737 -8.4537711762552217 -1 0 0 I I #
vertex $-1 $298 $464 #
straight-curve $-1 0 33.25865912644737 -8.4537711762552217 1 0 0 I I #
point $-1 66.15070039979247 33.25865912644737 -8.4537711762552217 #
point $-1 66.15070039979247 -33.25865912644737 -8.4537711762552217 #
straight-curve $-1 -66.15070039979247 0 8.4537711762552217 0 -1 0 I I #
point $-1 -66.15070039979247 33.25865912644737 8.4537711762552217 #
point $-1 -66.15070039979247 -33.25865912644737 8.4537711762552217 #
straight-curve $-1 66.15070039979247 -33.25865912644737 0 0 0 -1 I I #
straight-curve $-1 66.15070039979247 33.25865912644737 0 0 0 -1 I I #
plane-surface $-1 0 -33.25865912644737 0 0 1 0 0 0 1 forward_v I I I I #
coedge $-1 $465 $318 $414 $466 reversed $220 $-1 #
coedge $-1 $318 $465 $332 $425 reversed $220 $-1 #
edge $-1 $417 -1.5 $415 1.5 $319 $467 forward 7 unknown #
coedge $-1 $320 $420 $411 $466 forward $316 $-1 #
vertex $-1 $321 $468 #
straight-curve $-1 0 33.25865912644737 -8.4537711762552217 1 0 0 I I #
vertex $-1 $322 $469 #
straight-curve $-1 -69.478011546432256 33.25865912644737 -5.4537711762552217 -1 0 0 I I #
point $-1 -66.15070039979247 33.25865912644737 -8.4537711762552217 #
coedge $-1 $414 $325 $328 $423 forward $316 $-1 #
straight-curve $-1 -66.15070039979247 0 -8.4537711762552217 0 -1 0 I I #
coedge $-1 $328 $327 $465 $470 forward $329 $-1 #
edge $-1 $330 -3.3273111466397864 $471 3.3273111466397864 $328 $472 forward 7 unknown #
point $-1 -66.15070039979247 -33.25865912644737 -8.4537711762552217 #
edge $-1 $417 -33.25865912644737 $426 33.25865912644737 $412 $473 forward 7 unknown #
vertex $-1 $425 $474 #
straight-curve $-1 -69.478011546432256 -33.25865912644737 -5.4537711762552217 1 0 0 I I #
coedge $-1 $337 $345 $338 $430 forward $234 $-1 #
edge $-1 $432 -38.358308905838172 $346 -17.226474082070418 $337 $475 forward 7 unknown #
edge $-1 $436 -8.4537711762552217 $432 -0.075897081099050467 $338 $476 forward 7 unknown #
edge $-1 $343 25.168240348036043 $436 33.25865912644737 $339 $477 forward 7 unknown #
vertex $-1 $340 $478 #
straight-curve $-1 66.15070039979247 2.1497292010421685 32.290137813055175 0 0.69465836192734942 -0.71933980857756763 I I #
point $-1 66.15070039979247 25.168240348036043 8.4537711762552235 #
point $-1 45.018865576024716 33.25865912644737 0.075897081099050467 #
vertex $-1 $431 $479 #
straight-curve $-1 0 33.25865912644737 8.4537711762552217 -1 0 0 I I #
vertex $-1 $352 $480 #
point $-1 50.745232540778261 26.611701685730814 1.7523553000911494 #
vertex $-1 $356 $481 #
point $-1 57.084782987908582 26.611701685730814 1.7523553000911494 #
vertex $-1 $360 $482 #
point $-1 63.424333435038903 26.611701685730814 1.7523553000911494 #
coedge $-1 $445 $366 $374 $450 reversed $262 $-1 #
coedge $-1 $367 $444 $369 $447 reversed $262 $-1 #
straight-curve $-1 45.018865576024716 -33.25865912644737 45.990085720616221 0 0 -1 I I #
edge $-1 $370 45.018865576024716 $453 66.15070039979247 $445 $483 forward 7 unknown #
point $-1 45.018865576024716 -33.25865912644737 8.4537711762552217 #
straight-curve $-1 27.792391493954298 -33.25865912644737 0.075897081099088382 1 0 0 I I #
edge $-1 $453 -8.4537711762552217 $375 -0.075897081099087008 $374 $484 forward 7 unknown #
point $-1 66.15070039979247 -33.25865912644737 0.075897081099087008 #
point $-1 45.018865576024716 -33.25865912644737 0.075897081099087008 #
vertex $-1 $379 $485 #
straight-curve $-1 66.15070039979247 0 8.4537711762552217 0 1 0 I I #
vertex $-1 $382 $486 #
point $-1 50.745232540778261 -26.611701685730807 1.7523553000911494 #
vertex $-1 $386 $487 #
point $-1 57.084782987908582 -26.611701685730807 1.7523553000911494 #
vertex $-1 $390 $488 #
point $-1 63.424333435038903 -26.611701685730807 1.7523553000911494 #
straight-curve $-1 -66.15070039979247 33.25865912644737 0 0 0 -1 I I #
point $-1 -66.15070039979247 -33.25865912644737 -8.4537711762552217 #
straight-curve $-1 -66.15070039979247 0 -8.4537711762552217 0 1 0 I I #
point $-1 -66.15070039979247 33.25865912644737 -8.4537711762552217 #
coedge $-1 $412 $411 $422 $470 reversed $220 $-1 #
edge $-1 $471 -33.25865912644737 $415 33.25865912644737 $411 $489 forward 7 unknown #
straight-curve $-1 -72.805322693072043 33.25865912644737 -6.9537711762552217 0 0 -1 I I #
point $-1 -72.805322693072043 33.25865912644737 -8.4537711762552217 #
point $-1 -72.805322693072043 33.25865912644737 -5.4537711762552217 #
edge $-1 $426 -1.5 $471 1.5 $465 $490 forward 7 unknown #
vertex $-1 $466 $491 #
straight-curve $-1 -69.478011546432256 -33.25865912644737 -8.4537711762552217 -1 0 0 I I #
straight-curve $-1 -72.805322693072043 0 -5.4537711762552217 0 -1 0 I I #
point $-1 -72.805322693072043 -33.25865912644737 -5.4537711762552217 #
straight-curve $-1 27.792391493954298 33.25865912644737 0.075897081099043362 -1 0 0 I I #
straight-curve $-1 66.15070039979247 33.25865912644737 0 0 0 -1 I I #
straight-curve $-1 66.15070039979247 0 8.4537711762552217 0 1 0 I I #
point $-1 66.15070039979247 33.25865912644737 0.075897081099050467 #
point $-1 66.15070039979247 33.25865912644737 8.4537711762552217 #
point $-1 49.245232540778261 25.532691972864463 0.71036775720012513 #
point $-1 55.584782987908582 25.532691972864463 0.71036775720012513 #
point $-1 61.924333435038903 25.532691972864463 0.71036775720012513 #
straight-curve $-1 0 -33.25865912644737 8.4537711762552217 1 0 0 I I #
straight-curve $-1 66.15070039979247 -33.25865912644737 0 0 0 -1 I I #
point $-1 66.15070039979247 -33.25865912644737 8.4537711762552217 #
point $-1 49.245232540778261 -25.532691972864455 0.71036775720012513 #
point $-1 55.584782987908582 -25.532691972864455 0.71036775720012513 #
point $-1 61.924333435038903 -25.532691972864455 0.71036775720012513 #
straight-curve $-1 -72.805322693072043 0 -8.4537711762552217 0 1 0 I I #
straight-curve $-1 -72.805322693072043 -33.25865912644737 -6.9537711762552217 0 0 -1 I I #
point $-1 -72.805322693072043 -33.25865912644737 -8.4537711762552217 #
End-of-ACIS-data 