500 0 12 0           
7 Unknown 11 ACIS 5.0 NT 24 Fri Mar 26 02:57:58 1999 
-1 9.9999999999999995e-007 1e-010 
body $-1 $12 $-1 $13 #
body $-1 $14 $-1 $15 #
body $-1 $16 $-1 $17 #
body $-1 $18 $-1 $19 #
body $-1 $20 $-1 $21 #
body $-1 $22 $-1 $23 #
body $-1 $24 $-1 $25 #
body $-1 $26 $-1 $27 #
body $-1 $28 $-1 $29 #
body $-1 $30 $-1 $31 #
body $-1 $32 $-1 $33 #
body $-1 $34 $-1 $35 #
lump $-1 $-1 $36 $0 #
transform $-1 1 0 0 0 1 0 0 0 1 77.608569597460871 52.994429217575842 14.019013394600334 1 rotate no_reflect no_shear #
lump $-1 $-1 $37 $1 #
transform $-1 1 0 0 0 1 0 0 0 1 77.608569597460871 52.994429217575842 14.019013394600334 1 rotate no_reflect no_shear #
lump $-1 $-1 $38 $2 #
transform $-1 1 0 0 0 1 0 0 0 1 77.608569597460871 52.994429217575842 14.019013394600334 1 rotate no_reflect no_shear #
lump $-1 $-1 $39 $3 #
transform $-1 1 0 0 0 1 0 0 0 1 77.608569597460871 52.994429217575842 14.019013394600334 1 rotate no_reflect no_shear #
lump $-1 $-1 $40 $4 #
transform $-1 1 0 0 0 1 0 0 0 1 77.608569597460871 52.994429217575842 14.019013394600334 1 rotate no_reflect no_shear #
lump $-1 $-1 $41 $5 #
transform $-1 1 0 0 0 1 0 0 0 1 77.608569597460871 52.994429217575842 14.019013394600334 1 rotate no_reflect no_shear #
lump $-1 $-1 $42 $6 #
transform $-1 1 0 0 0 1 0 0 0 1 77.608569597460871 52.994429217575842 14.019013394600334 1 rotate no_reflect no_shear #
lump $-1 $-1 $43 $7 #
transform $-1 1 0 0 0 1 0 0 0 1 77.608569597460871 52.994429217575842 14.019013394600334 1 rotate no_reflect no_shear #
lump $-1 $-1 $44 $8 #
transform $-1 1 0 0 0 1 0 0 0 1 77.608569597460871 52.994429217575842 14.019013394600334 1 rotate no_reflect no_shear #
lump $-1 $-1 $45 $9 #
transform $-1 1 0 0 0 1 0 0 0 1 77.608569597460871 52.994429217575842 14.019013394600334 1 rotate no_reflect no_shear #
lump $-1 $-1 $46 $10 #
transform $-1 1 0 0 0 1 0 0 0 1 77.608569597460871 52.994429217575842 14.019013394600334 1 rotate no_reflect no_shear #
lump $-1 $-1 $47 $11 #
transform $-1 1 0 0 0 1 0 0 0 1 77.608569597460871 52.994429217575842 14.019013394600334 1 rotate no_reflect no_shear #
shell $-1 $-1 $-1 $48 $-1 $12 #
shell $-1 $-1 $-1 $49 $-1 $14 #
shell $-1 $-1 $-1 $50 $-1 $16 #
shell $-1 $-1 $-1 $51 $-1 $18 #
shell $-1 $-1 $-1 $52 $-1 $20 #
shell $-1 $-1 $-1 $53 $-1 $22 #
shell $-1 $-1 $-1 $54 $-1 $24 #
shell $-1 $-1 $-1 $55 $-1 $26 #
shell $-1 $-1 $-1 $56 $-1 $28 #
shell $-1 $-1 $-1 $57 $-1 $30 #
shell $-1 $-1 $-1 $58 $-1 $32 #
shell $-1 $-1 $-1 $59 $-1 $34 #
face $-1 $60 $61 $36 $-1 $62 forward single #
face $-1 $63 $64 $37 $-1 $65 reversed single #
face $-1 $66 $67 $38 $-1 $68 reversed single #
face $-1 $69 $70 $39 $-1 $71 forward single #
face $-1 $72 $73 $40 $-1 $74 forward single #
face $-1 $75 $76 $41 $-1 $77 forward single #
face $-1 $78 $79 $42 $-1 $80 reversed single #
face $-1 $81 $82 $43 $-1 $83 forward single #
face $-1 $84 $85 $44 $-1 $86 forward single #
face $-1 $87 $88 $45 $-1 $89 forward single #
face $-1 $90 $91 $46 $-1 $92 reversed single #
face $-1 $93 $94 $47 $-1 $95 forward single #
face $-1 $96 $97 $36 $-1 $98 reversed single #
loop $-1 $-1 $99 $48 #
plane-surface $-1 0 0 14.019013394600334 0 0 1 1 0 0 forward_v I I I I #
face $-1 $100 $101 $37 $-1 $102 reversed single #
loop $-1 $-1 $103 $49 #
plane-surface $-1 -68.783393805213379 -40.87604015500618 0 0 1 0 0 0 1 forward_v I I I I #
face $-1 $104 $105 $38 $-1 $106 reversed single #
loop $-1 $-1 $107 $50 #
plane-surface $-1 8.8251757922474781 -164.64829641400848 108.23415882272089 -1 0 0 0 -0.71933980857756763 0.69465836192734942 forward_v I I I I #
face $-1 $108 $109 $39 $-1 $110 forward single #
loop $-1 $111 $112 $51 #
cone-surface $-1 -5.8609299972444404 -45.939568549047578 6.7473252531077561 0 0.71933980857756763 -0.69465836192734942 1 0 0 1 I I 0 1 1 forward I I I I #
face $-1 $113 $114 $40 $-1 $115 forward single #
loop $-1 $116 $117 $52 #
cone-surface $-1 -0.35364032618497276 -45.939568549047578 6.7473252531077561 0 0.71933980857756763 -0.69465836192734942 1 0 0 1 I I 0 1 1 forward I I I I #
face $-1 $118 $119 $41 $-1 $120 forward single #
loop $-1 $121 $122 $53 #
cone-surface $-1 5.1536493448744949 -45.939568549047578 6.7473252531077561 0 0.71933980857756763 -0.69465836192734942 1 0 0 1 I I 0 1 1 forward I I I I #
face $-1 $123 $124 $42 $-1 $125 reversed single #
loop $-1 $-1 $126 $54 #
plane-surface $-1 -0.35364032618497276 -52.994429217575814 0.41127516652716167 0 -0.71933980857756763 0.69465836192734942 1 0 0 forward_v I I I I #
face $-1 $127 $128 $43 $-1 $129 forward single #
loop $-1 $130 $131 $55 #
cone-surface $-1 12.496702239620461 -45.939568549047578 6.7473252531077561 0 0.71933980857756763 -0.69465836192734942 1 0 0 1 I I 0 1 1 forward I I I I #
face $-1 $132 $133 $44 $-1 $134 forward single #
loop $-1 $135 $136 $56 #
cone-surface $-1 18.003991910679929 -45.939568549047578 6.7473252531077561 0 0.71933980857756763 -0.69465836192734942 1 0 0 1 I I 0 1 1 forward I I I I #
face $-1 $137 $138 $45 $-1 $139 forward single #
loop $-1 $140 $141 $57 #
cone-surface $-1 23.511281581739397 -45.939568549047578 6.7473252531077561 0 0.71933980857756763 -0.69465836192734942 1 0 0 1 I I 0 1 1 forward I I I I #
face $-1 $142 $143 $46 $-1 $144 reversed single #
loop $-1 $-1 $145 $58 #
plane-surface $-1 41.402562954388266 74.835229956018111 188.97798206602195 1 0 0 0 -0.6560590369687036 -0.75470957328743171 forward_v I I I I #
face $-1 $146 $147 $47 $-1 $148 forward single #
loop $-1 $149 $150 $59 #
cone-surface $-1 59.505566275924565 42.56468940849895 3.9157605666912474 0 -0.6560590369687036 -0.75470957328743171 3 0 0 1 I I 0 1 3 forward I I I I #
face $-1 $151 $152 $36 $-1 $153 reversed single #
loop $-1 $-1 $154 $60 #
plane-surface $-1 0 0 -14.019013394600334 0 0 1 1 0 0 forward_v I I I I #
coedge $-1 $155 $156 $157 $158 forward $61 $-1 #
face $-1 $159 $160 $37 $-1 $161 reversed single #
loop $-1 $-1 $162 $63 #
plane-surface $-1 -68.783393805213379 -34.460930726577686 0 0 -1 0 0 0 -1 forward_v I I I I #
coedge $-1 $163 $164 $165 $166 reversed $64 $-1 #
face $-1 $167 $168 $38 $-1 $169 reversed single #
loop $-1 $-1 $170 $66 #
plane-surface $-1 -0.35364032618497276 -52.994429217575814 0.41127516652716167 0 -0.71933980857756763 0.69465836192734942 1 0 0 forward_v I I I I #
coedge $-1 $171 $172 $173 $174 reversed $67 $-1 #
face $-1 $-1 $175 $39 $-1 $176 forward single #
loop $-1 $177 $178 $69 #
cone-surface $-1 -5.8609299972444404 -45.095457848961772 5.9321770446880802 0 0.71933980857756763 -0.69465836192734942 0.5 0 0 1 I I -0.70710678118654746 0.70710678118654746 0.5 forward I I I I #
loop $-1 $-1 $179 $51 #
coedge $-1 $112 $112 $180 $181 reversed $70 $-1 #
face $-1 $-1 $182 $40 $-1 $183 forward single #
loop $-1 $184 $185 $72 #
cone-surface $-1 -0.35364032618497276 -45.095457848961772 5.9321770446880802 0 0.71933980857756763 -0.69465836192734942 0.5 0 0 1 I I -0.70710678118654746 0.70710678118654746 0.5 forward I I I I #
loop $-1 $-1 $186 $52 #
coedge $-1 $117 $117 $187 $188 reversed $73 $-1 #
face $-1 $-1 $189 $41 $-1 $190 forward single #
loop $-1 $191 $192 $75 #
cone-surface $-1 5.1536493448744949 -45.095457848961772 5.9321770446880802 0 0.71933980857756763 -0.69465836192734942 0.5 0 0 1 I I -0.70710678118654746 0.70710678118654746 0.5 forward I I I I #
loop $-1 $-1 $193 $53 #
coedge $-1 $122 $122 $194 $195 reversed $76 $-1 #
face $-1 $196 $197 $42 $-1 $198 reversed single #
loop $-1 $-1 $199 $78 #
plane-surface $-1 27.18280802911238 -164.64829641400848 108.23415882272089 -1 0 0 0 -0.71933980857756763 0.69465836192734942 forward_v I I I I #
coedge $-1 $200 $201 $202 $203 reversed $79 $-1 #
face $-1 $-1 $204 $43 $-1 $205 forward single #
loop $-1 $206 $207 $81 #
cone-surface $-1 12.496702239620461 -45.095457848961772 5.9321770446880802 0 0.71933980857756763 -0.69465836192734942 0.5 0 0 1 I I -0.70710678118654746 0.70710678118654746 0.5 forward I I I I #
loop $-1 $-1 $208 $55 #
coedge $-1 $131 $131 $209 $210 reversed $82 $-1 #
face $-1 $-1 $211 $44 $-1 $212 forward single #
loop $-1 $213 $214 $84 #
cone-surface $-1 18.003991910679929 -45.095457848961772 5.9321770446880802 0 0.71933980857756763 -0.69465836192734942 0.5 0 0 1 I I -0.70710678118654746 0.70710678118654746 0.5 forward I I I I #
loop $-1 $-1 $215 $56 #
coedge $-1 $136 $136 $216 $217 reversed $85 $-1 #
face $-1 $-1 $218 $45 $-1 $219 forward single #
loop $-1 $220 $221 $87 #
cone-surface $-1 23.511281581739397 -45.095457848961772 5.9321770446880802 0 0.71933980857756763 -0.69465836192734942 0.5 0 0 1 I I -0.70710678118654746 0.70710678118654746 0.5 forward I I I I #
loop $-1 $-1 $222 $57 #
coedge $-1 $141 $141 $223 $224 reversed $88 $-1 #
face $-1 $225 $226 $46 $-1 $227 forward single #
loop $-1 $-1 $228 $90 #
plane-surface $-1 59.505566275924565 -26.996376905239458 71.834121177326665 0 0.6560590369687036 0.75470957328743171 1 0 0 forward_v I I I I #
coedge $-1 $229 $230 $231 $232 reversed $91 $-1 #
face $-1 $-1 $233 $47 $-1 $234 forward single #
loop $-1 $235 $236 $93 #
cone-surface $-1 59.505566275924565 37.891928088700681 -1.4596363153232002 0 -0.6560590369687036 -0.75470957328743171 1.5 0 0 1 I I -0.70710678118654757 0.70710678118654757 1.5 forward I I I I #
loop $-1 $-1 $237 $59 #
coedge $-1 $150 $150 $238 $239 reversed $94 $-1 #
face $-1 $240 $241 $36 $-1 $242 reversed single #
loop $-1 $-1 $243 $96 #
plane-surface $-1 0 -52.994429217575842 0 0 1 0 0 0 1 forward_v I I I I #
coedge $-1 $244 $245 $246 $247 forward $97 $-1 #
coedge $-1 $248 $99 $249 $250 forward $61 $-1 #
coedge $-1 $99 $248 $251 $252 forward $61 $-1 #
coedge $-1 $253 $254 $99 $158 reversed $255 $-1 #
edge $-1 $256 -52.994429217575842 $257 52.994429217575842 $157 $258 forward 7 unknown #
face $-1 $259 $260 $37 $-1 $261 reversed single #
loop $-1 $-1 $262 $100 #
plane-surface $-1 -59.958218012965894 -37.668485440791933 0 -1 0 0 0 0 1 forward_v I I I I #
coedge $-1 $263 $264 $265 $266 forward $101 $-1 #
coedge $-1 $267 $103 $268 $269 reversed $64 $-1 #
coedge $-1 $103 $267 $270 $271 reversed $64 $-1 #
coedge $-1 $272 $273 $103 $166 forward $274 $-1 #
edge $-1 $275 -14.019013394600334 $276 14.019013394600334 $165 $277 forward 7 unknown #
face $-1 $278 $279 $38 $-1 $280 reversed single #
loop $-1 $-1 $281 $104 #
plane-surface $-1 -9.5324564446174236 -164.64829641400848 108.23415882272089 1 0 0 0 0.71933980857756763 -0.69465836192734942 forward_v I I I I #
coedge $-1 $282 $283 $284 $285 reversed $105 $-1 #
coedge $-1 $172 $107 $286 $287 reversed $67 $-1 #
coedge $-1 $107 $171 $282 $288 reversed $67 $-1 #
coedge $-1 $284 $289 $107 $174 forward $290 $-1 #
edge $-1 $291 29.3297189894284 $292 42.470558734890922 $173 $293 forward 7 unknown #
loop $-1 $-1 $180 $108 #
plane-surface $-1 -0.35364032618497276 -52.994429217575814 0.41127516652716167 0 -0.71933980857756763 0.69465836192734942 1 0 0 forward_v I I I I #
loop $-1 $-1 $294 $69 #
coedge $-1 $178 $178 $179 $295 reversed $109 $-1 #
coedge $-1 $179 $179 $178 $295 forward $111 $-1 #
coedge $-1 $180 $180 $112 $181 forward $175 $-1 #
edge $-1 $296 -2.4930215670345513e-015 $296 6.2831853071795978 $180 $297 forward 7 unknown #
loop $-1 $-1 $187 $113 #
plane-surface $-1 -0.35364032618497276 -52.994429217575814 0.41127516652716167 0 -0.71933980857756763 0.69465836192734942 1 0 0 forward_v I I I I #
loop $-1 $-1 $298 $72 #
coedge $-1 $185 $185 $186 $299 reversed $114 $-1 #
coedge $-1 $186 $186 $185 $299 forward $116 $-1 #
coedge $-1 $187 $187 $117 $188 forward $182 $-1 #
edge $-1 $300 -2.4930215670345513e-015 $300 6.2831853071795978 $187 $301 forward 7 unknown #
loop $-1 $-1 $194 $118 #
plane-surface $-1 -0.35364032618497276 -52.994429217575814 0.41127516652716167 0 -0.71933980857756763 0.69465836192734942 1 0 0 forward_v I I I I #
loop $-1 $-1 $302 $75 #
coedge $-1 $192 $192 $193 $303 reversed $119 $-1 #
coedge $-1 $193 $193 $192 $303 forward $121 $-1 #
coedge $-1 $194 $194 $122 $195 forward $189 $-1 #
edge $-1 $304 -2.4930215670345513e-015 $304 6.2831853071795978 $194 $305 forward 7 unknown #
face $-1 $306 $307 $42 $-1 $308 forward single #
loop $-1 $-1 $309 $123 #
plane-surface $-1 0 -52.994429217575842 0 0 1 0 0 0 1 forward_v I I I I #
coedge $-1 $310 $311 $312 $313 reversed $124 $-1 #
coedge $-1 $314 $126 $315 $316 reversed $79 $-1 #
coedge $-1 $126 $314 $309 $317 reversed $79 $-1 #
coedge $-1 $318 $319 $126 $203 forward $307 $-1 #
edge $-1 $320 -18.91698202408859 $321 4.0907009993424656e-014 $202 $322 forward 7 unknown #
loop $-1 $-1 $209 $127 #
plane-surface $-1 -0.35364032618497276 -52.994429217575814 0.41127516652716167 0 -0.71933980857756763 0.69465836192734942 1 0 0 forward_v I I I I #
loop $-1 $-1 $323 $81 #
coedge $-1 $207 $207 $208 $324 reversed $128 $-1 #
coedge $-1 $208 $208 $207 $324 forward $130 $-1 #
coedge $-1 $209 $209 $131 $210 forward $204 $-1 #
edge $-1 $325 -2.4930215670345513e-015 $325 6.2831853071795978 $209 $326 forward 7 unknown #
loop $-1 $-1 $216 $132 #
plane-surface $-1 -0.35364032618497276 -52.994429217575814 0.41127516652716167 0 -0.71933980857756763 0.69465836192734942 1 0 0 forward_v I I I I #
loop $-1 $-1 $327 $84 #
coedge $-1 $214 $214 $215 $328 reversed $133 $-1 #
coedge $-1 $215 $215 $214 $328 forward $135 $-1 #
coedge $-1 $216 $216 $136 $217 forward $211 $-1 #
edge $-1 $329 -2.4930215670345513e-015 $329 6.2831853071795978 $216 $330 forward 7 unknown #
loop $-1 $-1 $223 $137 #
plane-surface $-1 -0.35364032618497276 -52.994429217575814 0.41127516652716167 0 -0.71933980857756763 0.69465836192734942 1 0 0 forward_v I I I I #
loop $-1 $-1 $331 $87 #
coedge $-1 $221 $221 $222 $332 reversed $138 $-1 #
coedge $-1 $222 $222 $221 $332 forward $140 $-1 #
coedge $-1 $223 $223 $141 $224 forward $218 $-1 #
edge $-1 $333 -2.4930215670345513e-015 $333 6.2831853071795978 $223 $334 forward 7 unknown #
face $-1 $335 $336 $46 $-1 $337 reversed single #
loop $-1 $-1 $231 $142 #
plane-surface $-1 0 0 14.019013394600334 0 0 1 1 0 0 forward_v I I I I #
coedge $-1 $338 $339 $340 $341 reversed $143 $-1 #
coedge $-1 $230 $145 $342 $343 reversed $91 $-1 #
coedge $-1 $145 $229 $338 $344 reversed $91 $-1 #
coedge $-1 $340 $345 $145 $232 forward $226 $-1 #
edge $-1 $346 -15.576814239566787 $347 -2.0946801501034855 $231 $348 forward 7 unknown #
loop $-1 $-1 $238 $146 #
plane-surface $-1 59.505566275924565 -26.996376905239458 71.834121177326665 0 0.6560590369687036 0.75470957328743171 1 0 0 forward_v I I I I #
loop $-1 $-1 $349 $93 #
coedge $-1 $236 $236 $237 $350 reversed $147 $-1 #
coedge $-1 $237 $237 $236 $350 forward $149 $-1 #
coedge $-1 $238 $238 $150 $239 forward $233 $-1 #
edge $-1 $351 8.529057235584958e-016 $351 6.2831853071796013 $238 $352 forward 7 unknown #
face $-1 $353 $354 $36 $-1 $355 reversed single #
loop $-1 $-1 $356 $151 #
plane-surface $-1 -77.608569597460871 0 0 1 0 0 0 0 -1 forward_v I I I I #
coedge $-1 $357 $251 $358 $359 forward $152 $-1 #
coedge $-1 $360 $154 $357 $361 forward $97 $-1 #
coedge $-1 $154 $360 $362 $363 forward $97 $-1 #
coedge $-1 $254 $253 $154 $247 reversed $255 $-1 #
edge $-1 $364 -52.994429217575842 $365 52.994429217575842 $246 $366 forward 7 unknown #
coedge $-1 $156 $155 $367 $368 forward $61 $-1 #
coedge $-1 $369 $370 $155 $250 reversed $354 $-1 #
edge $-1 $257 -77.608569597460871 $371 77.608569597460871 $249 $372 forward 7 unknown #
coedge $-1 $243 $373 $156 $252 reversed $152 $-1 #
edge $-1 $374 -77.608569597460871 $256 77.608569597460871 $251 $375 forward 7 unknown #
coedge $-1 $246 $157 $373 $376 forward $255 $-1 #
coedge $-1 $157 $246 $369 $377 reversed $255 $-1 #
loop $-1 $-1 $253 $353 #
vertex $-1 $158 $378 #
vertex $-1 $158 $379 #
straight-curve $-1 77.608569597460871 0 14.019013394600334 0 1 0 I I #
face $-1 $380 $381 $37 $-1 $382 forward single #
loop $-1 $-1 $383 $159 #
plane-surface $-1 0 0 -14.019013394600334 0 0 1 1 0 0 forward_v I I I I #
coedge $-1 $384 $385 $267 $386 forward $160 $-1 #
coedge $-1 $387 $162 $383 $388 reversed $101 $-1 #
coedge $-1 $162 $387 $389 $390 reversed $101 $-1 #
coedge $-1 $385 $384 $162 $266 reversed $160 $-1 #
edge $-1 $391 -14.019013394600334 $392 14.019013394600334 $265 $393 forward 7 unknown #
coedge $-1 $164 $163 $262 $386 reversed $64 $-1 #
coedge $-1 $394 $395 $163 $269 forward $260 $-1 #
edge $-1 $396 25.566521110359204 $275 43.216872694854182 $268 $397 forward 7 unknown #
coedge $-1 $398 $399 $164 $271 forward $381 $-1 #
edge $-1 $276 -43.216872694854182 $400 -25.566521110359204 $270 $401 forward 7 unknown #
coedge $-1 $402 $165 $399 $403 reversed $274 $-1 #
coedge $-1 $165 $402 $394 $404 reversed $274 $-1 #
loop $-1 $-1 $402 $380 #
vertex $-1 $404 $405 #
vertex $-1 $166 $406 #
straight-curve $-1 -77.608569597460871 -40.87604015500618 0 0 0 1 I I #
face $-1 $-1 $290 $38 $-1 $407 forward single #
loop $-1 $-1 $408 $167 #
plane-surface $-1 0 -52.994429217575842 0 0 1 0 0 0 1 forward_v I I I I #
coedge $-1 $409 $410 $411 $412 reversed $168 $-1 #
coedge $-1 $413 $170 $172 $288 forward $105 $-1 #
coedge $-1 $170 $413 $409 $414 forward $105 $-1 #
coedge $-1 $411 $173 $170 $285 forward $290 $-1 #
edge $-1 $292 -9.0019959553399644 $415 9.3556362815249372 $284 $416 forward 7 unknown #
coedge $-1 $417 $418 $171 $287 forward $279 $-1 #
edge $-1 $419 -53.70580424483331 $291 -40.098066016760107 $286 $420 forward 7 unknown #
edge $-1 $292 -18.91698202408859 $419 4.0907009993424656e-014 $172 $421 forward 7 unknown #
coedge $-1 $173 $411 $417 $422 forward $290 $-1 #
loop $-1 $-1 $411 $278 #
vertex $-1 $287 $423 #
vertex $-1 $174 $424 #
straight-curve $-1 8.8251757922474781 -82.324148207004242 14.019013394600336 0 1 0 I I #
coedge $-1 $294 $294 $-1 $425 reversed $177 $-1 #
edge $-1 $426 0 $426 6.2831853071796004 $178 $427 forward 7 unknown #
vertex $-1 $181 $428 #
ellipse-curve $-1 -5.8609299972444404 -46.424009344844578 7.2151442805637336 0 -0.71933980857756763 0.69465836192734942 1 0 0 1 I I #
coedge $-1 $298 $298 $-1 $429 reversed $184 $-1 #
edge $-1 $430 0 $430 6.2831853071796004 $185 $431 forward 7 unknown #
vertex $-1 $188 $432 #
ellipse-curve $-1 -0.35364032618497276 -46.424009344844578 7.2151442805637336 0 -0.71933980857756763 0.69465836192734942 1 0 0 1 I I #
coedge $-1 $302 $302 $-1 $433 reversed $191 $-1 #
edge $-1 $434 0 $434 6.2831853071796004 $192 $435 forward 7 unknown #
vertex $-1 $195 $436 #
ellipse-curve $-1 5.1536493448744949 -46.424009344844578 7.2151442805637336 0 -0.71933980857756763 0.69465836192734942 1 0 0 1 I I #
face $-1 $-1 $437 $42 $-1 $438 forward single #
loop $-1 $-1 $319 $196 #
plane-surface $-1 8.8251757922474781 -164.64829641400848 108.23415882272089 -1 0 0 0 -0.71933980857756763 0.69465836192734942 forward_v I I I I #
coedge $-1 $312 $439 $201 $317 forward $197 $-1 #
coedge $-1 $311 $199 $314 $440 reversed $124 $-1 #
coedge $-1 $199 $310 $441 $442 reversed $124 $-1 #
coedge $-1 $443 $309 $199 $313 forward $197 $-1 #
edge $-1 $444 -53.70580424483331 $445 -40.098066016760107 $312 $446 forward 7 unknown #
coedge $-1 $201 $200 $310 $440 forward $79 $-1 #
coedge $-1 $447 $441 $200 $316 forward $437 $-1 #
edge $-1 $448 -27.359628192204866 $320 -9.0019959553399644 $315 $449 forward 7 unknown #
edge $-1 $321 9.0019959553399644 $444 27.359628192204866 $309 $450 forward 7 unknown #
coedge $-1 $319 $202 $439 $451 reversed $307 $-1 #
coedge $-1 $202 $318 $447 $452 reversed $307 $-1 #
vertex $-1 $316 $453 #
vertex $-1 $317 $454 #
straight-curve $-1 8.8251757922474781 -52.994429217575814 0.41127516652716167 0 -0.69465836192734942 -0.71933980857756763 I I #
coedge $-1 $323 $323 $-1 $455 reversed $206 $-1 #
edge $-1 $456 0 $456 6.2831853071796004 $207 $457 forward 7 unknown #
vertex $-1 $210 $458 #
ellipse-curve $-1 12.496702239620461 -46.424009344844578 7.2151442805637336 0 -0.71933980857756763 0.69465836192734942 1 0 0 1 I I #
coedge $-1 $327 $327 $-1 $459 reversed $213 $-1 #
edge $-1 $460 0 $460 6.2831853071796004 $214 $461 forward 7 unknown #
vertex $-1 $217 $462 #
ellipse-curve $-1 18.003991910679929 -46.424009344844578 7.2151442805637336 0 -0.71933980857756763 0.69465836192734942 1 0 0 1 I I #
coedge $-1 $331 $331 $-1 $463 reversed $220 $-1 #
edge $-1 $464 0 $464 6.2831853071796004 $221 $465 forward 7 unknown #
vertex $-1 $224 $466 #
ellipse-curve $-1 23.511281581739397 -46.424009344844578 7.2151442805637336 0 -0.71933980857756763 0.69465836192734942 1 0 0 1 I I #
face $-1 $-1 $467 $46 $-1 $468 reversed single #
loop $-1 $-1 $469 $225 #
plane-surface $-1 77.608569597460871 0 0 -1 0 0 0 0 1 forward_v I I I I #
coedge $-1 $470 $228 $230 $344 forward $143 $-1 #
coedge $-1 $228 $470 $469 $471 reversed $143 $-1 #
coedge $-1 $472 $231 $228 $341 forward $226 $-1 #
edge $-1 $347 11.649779816425983 $473 47.855786459498589 $340 $474 forward 7 unknown #
coedge $-1 $475 $476 $229 $343 forward $467 $-1 #
edge $-1 $477 -92.18981825006216 $346 -80.46997763841064 $342 $478 forward 7 unknown #
edge $-1 $347 88.124855424382076 $477 105.98885843515166 $230 $479 forward 7 unknown #
coedge $-1 $231 $472 $475 $480 forward $226 $-1 #
vertex $-1 $343 $481 #
vertex $-1 $232 $482 #
straight-curve $-1 41.402562954388266 37.417614978009055 14.019013394600336 0 -1 0 I I #
coedge $-1 $349 $349 $-1 $483 reversed $235 $-1 #
edge $-1 $484 0 $484 6.2831853071796004 $236 $485 forward 7 unknown #
vertex $-1 $239 $486 #
ellipse-curve $-1 59.505566275924565 46.253362172844191 8.1590930887745756 0 0.6560590369687036 0.75470957328743171 3 0 0 1 I I #
face $-1 $-1 $255 $36 $-1 $487 reversed single #
loop $-1 $-1 $369 $240 #
plane-surface $-1 0 52.994429217575842 0 0 -1 0 0 0 -1 forward_v I I I I #
coedge $-1 $488 $367 $370 $489 forward $241 $-1 #
coedge $-1 $373 $243 $244 $361 reversed $152 $-1 #
coedge $-1 $367 $488 $243 $359 reversed $241 $-1 #
edge $-1 $374 -14.019013394600334 $490 14.019013394600334 $358 $491 forward 7 unknown #
coedge $-1 $245 $244 $488 $492 forward $97 $-1 #
edge $-1 $365 -77.608569597460871 $490 77.608569597460871 $357 $493 forward 7 unknown #
coedge $-1 $370 $369 $245 $363 reversed $354 $-1 #
edge $-1 $494 -77.608569597460871 $364 77.608569597460871 $362 $495 forward 7 unknown #
vertex $-1 $247 $496 #
vertex $-1 $376 $497 #
straight-curve $-1 77.608569597460871 0 -14.019013394600334 0 -1 0 I I #
coedge $-1 $356 $358 $248 $368 reversed $241 $-1 #
edge $-1 $371 -52.994429217575842 $374 52.994429217575842 $367 $498 forward 7 unknown #
coedge $-1 $362 $249 $254 $377 forward $354 $-1 #
coedge $-1 $249 $362 $356 $489 reversed $354 $-1 #
vertex $-1 $250 $499 #
straight-curve $-1 0 52.994429217575842 14.019013394600334 -1 0 0 I I #
coedge $-1 $251 $357 $253 $376 reversed $152 $-1 #
vertex $-1 $368 $500 #
straight-curve $-1 0 -52.994429217575842 14.019013394600334 1 0 0 I I #
edge $-1 $256 -14.019013394600334 $365 14.019013394600334 $253 $501 forward 7 unknown #
edge $-1 $257 -14.019013394600334 $364 14.019013394600334 $254 $502 forward 7 unknown #
point $-1 77.608569597460871 -52.994429217575842 14.019013394600334 #
point $-1 77.608569597460871 52.994429217575842 14.019013394600334 #
face $-1 $-1 $274 $37 $-1 $503 reversed single #
loop $-1 $-1 $389 $259 #
plane-surface $-1 0 0 14.019013394600334 0 0 1 1 0 0 forward_v I I I I #
coedge $-1 $395 $394 $263 $388 forward $260 $-1 #
coedge $-1 $265 $262 $395 $504 reversed $160 $-1 #
coedge $-1 $262 $265 $398 $505 reversed $160 $-1 #
edge $-1 $400 -14.019013394600334 $396 14.019013394600334 $262 $506 forward 7 unknown #
coedge $-1 $264 $263 $402 $507 reversed $101 $-1 #
edge $-1 $508 -43.216872694854182 $392 -25.566521110359204 $383 $509 forward 7 unknown #
coedge $-1 $399 $398 $264 $390 forward $381 $-1 #
edge $-1 $391 25.566521110359204 $510 43.216872694854182 $389 $511 forward 7 unknown #
vertex $-1 $390 $512 #
vertex $-1 $388 $513 #
straight-curve $-1 -59.958218012965894 -34.460930726577686 0 0 0 -1 I I #
coedge $-1 $383 $268 $273 $404 forward $260 $-1 #
coedge $-1 $268 $383 $384 $504 forward $260 $-1 #
vertex $-1 $269 $514 #
straight-curve $-1 -34.391696902606689 -40.87604015500618 -14.019013394600334 -1 0 0 I I #
coedge $-1 $389 $270 $385 $505 forward $381 $-1 #
coedge $-1 $270 $389 $272 $403 forward $381 $-1 #
vertex $-1 $271 $515 #
straight-curve $-1 -34.391696902606689 -40.87604015500618 14.019013394600334 1 0 0 I I #
coedge $-1 $273 $272 $387 $507 forward $274 $-1 #
edge $-1 $510 34.460930726577686 $276 40.87604015500618 $272 $516 forward 7 unknown #
edge $-1 $275 -40.87604015500618 $508 -34.460930726577686 $273 $517 forward 7 unknown #
point $-1 -77.608569597460871 -40.87604015500618 -14.019013394600334 #
point $-1 -77.608569597460871 -40.87604015500618 14.019013394600334 #
plane-surface $-1 0 0 14.019013394600334 0 0 1 1 0 0 forward_v I I I I #
coedge $-1 $418 $417 $410 $518 forward $279 $-1 #
coedge $-1 $410 $281 $283 $414 reversed $168 $-1 #
coedge $-1 $281 $409 $408 $518 reversed $168 $-1 #
coedge $-1 $289 $284 $281 $412 forward $290 $-1 #
edge $-1 $415 -42.470558734890922 $519 -29.3297189894284 $411 $520 forward 7 unknown #
coedge $-1 $283 $282 $418 $521 reversed $105 $-1 #
edge $-1 $522 -4.0907009993424656e-014 $415 18.91698202408859 $409 $523 forward 7 unknown #
vertex $-1 $285 $524 #
straight-curve $-1 -0.17682016309248638 -39.85358947211332 14.019013394600334 -1 0 0 I I #
coedge $-1 $408 $286 $289 $422 reversed $279 $-1 #
coedge $-1 $286 $408 $413 $521 forward $279 $-1 #
vertex $-1 $287 $525 #
straight-curve $-1 8.8251757922474781 -52.994429217575842 54.117079411360443 0 0 1 I I #
straight-curve $-1 8.8251757922474781 -52.994429217575814 0.41127516652716167 0 -0.69465836192734942 -0.71933980857756763 I I #
edge $-1 $519 -9.5324564446174236 $291 8.8251757922474781 $417 $526 forward 7 unknown #
point $-1 8.8251757922474781 -52.994429217575842 14.019013394600334 #
point $-1 8.8251757922474781 -39.85358947211332 14.019013394600334 #
edge $-1 $527 1 $527 0 $294 $-1 forward 7 unknown #
vertex $-1 $295 $528 #
ellipse-curve $-1 -5.8609299972444404 -45.455127753250558 6.2795062256517546 0 -0.71933980857756763 0.69465836192734942 1 0 0 1 I I #
point $-1 -4.8609299972444404 -46.424009344844606 7.2151442805637576 #
edge $-1 $529 1 $529 0 $298 $-1 forward 7 unknown #
vertex $-1 $299 $530 #
ellipse-curve $-1 -0.35364032618497276 -45.455127753250558 6.2795062256517546 0 -0.71933980857756763 0.69465836192734942 1 0 0 1 I I #
point $-1 0.64635967381502724 -46.424009344844606 7.2151442805637576 #
edge $-1 $531 1 $531 0 $302 $-1 forward 7 unknown #
vertex $-1 $303 $532 #
ellipse-curve $-1 5.1536493448744949 -45.455127753250558 6.2795062256517546 0 -0.71933980857756763 0.69465836192734942 1 0 0 1 I I #
point $-1 6.1536493448744949 -46.424009344844606 7.2151442805637576 #
loop $-1 $-1 $315 $306 #
plane-surface $-1 0 0 14.019013394600334 0 0 1 1 0 0 forward_v I I I I #
coedge $-1 $309 $443 $318 $451 forward $197 $-1 #
edge $-1 $448 -18.91698202408859 $444 4.0907009993424656e-014 $310 $533 forward 7 unknown #
coedge $-1 $315 $534 $311 $442 forward $437 $-1 #
edge $-1 $445 29.3297189894284 $448 42.470558734890922 $441 $535 forward 7 unknown #
coedge $-1 $439 $312 $534 $536 reversed $197 $-1 #
vertex $-1 $313 $537 #
vertex $-1 $313 $538 #
straight-curve $-1 27.18280802911238 -52.994429217575842 54.117079411360443 0 0 1 I I #
coedge $-1 $534 $315 $319 $452 forward $437 $-1 #
vertex $-1 $442 $539 #
straight-curve $-1 -0.17682016309248638 -39.85358947211332 14.019013394600334 -1 0 0 I I #
straight-curve $-1 -0.17682016309248638 -52.994429217575842 0.41127516652713003 1 0 0 I I #
edge $-1 $540 40.098066016760107 $321 53.70580424483331 $439 $541 forward 7 unknown #
edge $-1 $320 -42.470558734890922 $540 -29.3297189894284 $447 $542 forward 7 unknown #
point $-1 8.8251757922474781 -39.85358947211332 14.019013394600334 #
point $-1 8.8251757922474781 -52.994429217575842 0.41127516652713225 #
edge $-1 $543 1 $543 0 $323 $-1 forward 7 unknown #
vertex $-1 $324 $544 #
ellipse-curve $-1 12.496702239620461 -45.455127753250558 6.2795062256517546 0 -0.71933980857756763 0.69465836192734942 1 0 0 1 I I #
point $-1 13.496702239620461 -46.424009344844606 7.2151442805637576 #
edge $-1 $545 1 $545 0 $327 $-1 forward 7 unknown #
vertex $-1 $328 $546 #
ellipse-curve $-1 18.003991910679929 -45.455127753250558 6.2795062256517546 0 -0.71933980857756763 0.69465836192734942 1 0 0 1 I I #
point $-1 19.003991910679929 -46.424009344844606 7.2151442805637576 #
edge $-1 $547 1 $547 0 $331 $-1 forward 7 unknown #
vertex $-1 $332 $548 #
ellipse-curve $-1 23.511281581739397 -45.455127753250558 6.2795062256517546 0 -0.71933980857756763 0.69465836192734942 1 0 0 1 I I #
point $-1 24.511281581739397 -46.424009344844606 7.2151442805637576 #
loop $-1 $-1 $342 $335 #
plane-surface $-1 0 52.994429217575842 0 0 -1 0 0 0 -1 forward_v I I I I #
coedge $-1 $549 $550 $339 $471 forward $336 $-1 #
coedge $-1 $339 $338 $476 $551 reversed $143 $-1 #
edge $-1 $473 54.373931196607046 $552 72.23793420737664 $469 $553 forward 7 unknown #
coedge $-1 $345 $340 $550 $554 forward $226 $-1 #
vertex $-1 $554 $555 #
straight-curve $-1 29.752783137962282 39.512295128112541 14.019013394600343 1 0 0 I I #
coedge $-1 $556 $342 $345 $480 reversed $467 $-1 #
coedge $-1 $342 $556 $470 $551 forward $467 $-1 #
vertex $-1 $343 $557 #
straight-curve $-1 41.402562954388266 52.994429217575842 94.488991033010976 0 0 1 I I #
straight-curve $-1 41.402562954388266 -26.996376905239458 71.834121177326665 0 0.75470957328743171 -0.6560590369687036 I I #
edge $-1 $558 -77.608569597460871 $346 -41.402562954388266 $475 $559 forward 7 unknown #
point $-1 41.402562954388266 52.994429217575842 14.019013394600334 #
point $-1 41.402562954388266 39.512295128112541 14.019013394600336 #
edge $-1 $560 1 $560 0 $349 $-1 forward 7 unknown #
vertex $-1 $350 $561 #
ellipse-curve $-1 59.505566275924565 38.876016644153736 -0.32757195539205264 0 0.6560590369687036 0.75470957328743171 3 0 0 1 I I #
point $-1 62.505566275924565 46.25336217284417 8.1590930887745472 #
plane-surface $-1 77.608569597460871 0 0 -1 0 0 0 0 1 forward_v I I I I #
coedge $-1 $358 $356 $360 $492 reversed $241 $-1 #
edge $-1 $371 -14.019013394600334 $494 14.019013394600334 $370 $562 forward 7 unknown #
vertex $-1 $492 $563 #
straight-curve $-1 -77.608569597460871 -52.994429217575842 0 0 0 -1 I I #
edge $-1 $490 -52.994429217575842 $494 52.994429217575842 $488 $564 forward 7 unknown #
straight-curve $-1 0 -52.994429217575842 -14.019013394600334 -1 0 0 I I #
vertex $-1 $363 $565 #
straight-curve $-1 0 52.994429217575842 -14.019013394600334 1 0 0 I I #
point $-1 77.608569597460871 52.994429217575842 -14.019013394600334 #
point $-1 77.608569597460871 -52.994429217575842 -14.019013394600334 #
straight-curve $-1 -77.608569597460871 0 14.019013394600334 0 -1 0 I I #
point $-1 -77.608569597460871 52.994429217575842 14.019013394600334 #
point $-1 -77.608569597460871 -52.994429217575842 14.019013394600334 #
straight-curve $-1 77.608569597460871 -52.994429217575842 0 0 0 -1 I I #
straight-curve $-1 77.608569597460871 52.994429217575842 0 0 0 -1 I I #
plane-surface $-1 -77.608569597460871 0 0 1 0 0 0 0 -1 forward_v I I I I #
edge $-1 $392 15.62668800618172 $396 22.041797434610213 $395 $566 forward 7 unknown #
edge $-1 $400 -22.041797434610213 $391 -15.62668800618172 $398 $567 forward 7 unknown #
straight-curve $-1 -59.958218012965894 -40.87604015500618 0 0 0 -1 I I #
edge $-1 $510 -14.019013394600334 $508 14.019013394600334 $402 $568 forward 7 unknown #
vertex $-1 $507 $569 #
straight-curve $-1 -34.391696902606689 -34.460930726577686 -14.019013394600334 1 0 0 I I #
vertex $-1 $403 $570 #
straight-curve $-1 -34.391696902606689 -34.460930726577686 14.019013394600334 -1 0 0 I I #
point $-1 -59.958218012965894 -34.460930726577686 14.019013394600334 #
point $-1 -59.958218012965894 -34.460930726577686 -14.019013394600334 #
point $-1 -59.958218012965894 -40.87604015500618 -14.019013394600334 #
point $-1 -59.958218012965894 -40.87604015500618 14.019013394600334 #
straight-curve $-1 -77.608569597460871 0 14.019013394600334 0 -1 0 I I #
straight-curve $-1 -77.608569597460871 0 -14.019013394600334 0 1 0 I I #
edge $-1 $519 40.098066016760107 $522 53.70580424483331 $408 $571 forward 7 unknown #
vertex $-1 $422 $572 #
straight-curve $-1 -9.5324564446174236 -82.324148207004242 14.019013394600336 0 -1 0 I I #
edge $-1 $522 -9.3556362815249372 $419 9.0019959553399644 $418 $573 forward 7 unknown #
vertex $-1 $521 $574 #
straight-curve $-1 -9.5324564446174236 -52.994429217575814 0.41127516652716167 0 0.69465836192734942 0.71933980857756763 I I #
point $-1 -9.5324564446174236 -39.85358947211332 14.019013394600334 #
point $-1 8.8251757922474781 -52.994429217575842 0.41127516652713225 #
straight-curve $-1 0 -52.994429217575842 14.019013394600334 1 0 0 I I #
vertex $-1 $425 $575 #
point $-1 -4.8609299972444404 -45.455127753250558 6.2795062256517546 #
vertex $-1 $429 $576 #
point $-1 0.64635967381502724 -45.455127753250558 6.2795062256517546 #
vertex $-1 $433 $577 #
point $-1 6.1536493448744949 -45.455127753250558 6.2795062256517546 #
straight-curve $-1 27.18280802911238 -52.994429217575814 0.41127516652716167 0 -0.69465836192734942 -0.71933980857756763 I I #
coedge $-1 $441 $447 $443 $536 forward $437 $-1 #
straight-curve $-1 27.18280802911238 -82.324148207004242 14.019013394600336 0 1 0 I I #
edge $-1 $540 8.8251757922474781 $445 27.18280802911238 $443 $578 forward 7 unknown #
point $-1 27.18280802911238 -52.994429217575842 0.41127516652713225 #
point $-1 27.18280802911238 -52.994429217575842 14.019013394600334 #
point $-1 27.18280802911238 -39.85358947211332 14.019013394600334 #
vertex $-1 $536 $579 #
straight-curve $-1 8.8251757922474781 -52.994429217575842 54.117079411360443 0 0 -1 I I #
straight-curve $-1 8.8251757922474781 -82.324148207004242 14.019013394600336 0 -1 0 I I #
vertex $-1 $455 $580 #
point $-1 13.496702239620461 -45.455127753250558 6.2795062256517546 #
vertex $-1 $459 $581 #
point $-1 19.003991910679929 -45.455127753250558 6.2795062256517546 #
vertex $-1 $463 $582 #
point $-1 24.511281581739397 -45.455127753250558 6.2795062256517546 #
coedge $-1 $550 $469 $556 $583 reversed $336 $-1 #
coedge $-1 $469 $549 $472 $554 reversed $336 $-1 #
edge $-1 $552 -47.855786459498589 $477 -11.649779816425983 $476 $584 forward 7 unknown #
vertex $-1 $471 $585 #
straight-curve $-1 77.608569597460871 -1.5242312832389331 49.691522331648905 0 0.75470957328743171 -0.6560590369687036 I I #
edge $-1 $473 39.512295128112541 $558 52.994429217575842 $550 $586 forward 7 unknown #
point $-1 77.608569597460871 39.512295128112541 14.019013394600336 #
coedge $-1 $476 $475 $549 $583 forward $467 $-1 #
point $-1 41.402562954388266 52.994429217575842 2.2991727829488156 #
vertex $-1 $554 $587 #
straight-curve $-1 0 52.994429217575842 14.019013394600334 -1 0 0 I I #
vertex $-1 $483 $588 #
point $-1 62.505566275924565 38.876016644153736 -0.32757195539205264 #
straight-curve $-1 -77.608569597460871 52.994429217575842 0 0 0 -1 I I #
point $-1 -77.608569597460871 -52.994429217575842 -14.019013394600334 #
straight-curve $-1 -77.608569597460871 0 -14.019013394600334 0 1 0 I I #
point $-1 -77.608569597460871 52.994429217575842 -14.019013394600334 #
straight-curve $-1 -59.958218012965894 -18.834242720395967 -14.019013394600334 0 -1 0 I I #
straight-curve $-1 -59.958218012965894 -18.834242720395967 14.019013394600334 0 1 0 I I #
straight-curve $-1 -77.608569597460871 -34.460930726577686 0 0 0 -1 I I #
point $-1 -77.608569597460871 -34.460930726577686 -14.019013394600334 #
point $-1 -77.608569597460871 -34.460930726577686 14.019013394600334 #
straight-curve $-1 -9.5324564446174236 -52.994429217575842 54.117079411360443 0 0 -1 I I #
point $-1 -9.5324564446174236 -52.994429217575842 14.019013394600334 #
straight-curve $-1 -0.17682016309248638 -52.994429217575842 0.41127516652713003 1 0 0 I I #
point $-1 -9.5324564446174236 -52.994429217575842 0.41127516652713225 #
point $-1 -5.8609299972444404 -44.735787944672985 5.5848478637244057 #
point $-1 -0.35364032618497276 -44.735787944672985 5.5848478637244057 #
point $-1 5.1536493448744949 -44.735787944672985 5.5848478637244057 #
straight-curve $-1 0 -52.994429217575842 14.019013394600334 1 0 0 I I #
point $-1 8.8251757922474781 -52.994429217575842 14.019013394600334 #
point $-1 12.496702239620461 -44.735787944672985 5.5848478637244057 #
point $-1 18.003991910679929 -44.735787944672985 5.5848478637244057 #
point $-1 23.511281581739397 -44.735787944672985 5.5848478637244057 #
edge $-1 $558 -14.019013394600334 $552 -2.2991727829488156 $549 $589 forward 7 unknown #
straight-curve $-1 29.752783137962282 52.994429217575842 2.2991727829488156 -1 0 0 I I #
point $-1 77.608569597460871 52.994429217575842 2.2991727829488156 #
straight-curve $-1 77.608569597460871 0 14.019013394600334 0 1 0 I I #
point $-1 77.608569597460871 52.994429217575842 14.019013394600334 #
point $-1 59.505566275924565 36.907839533247625 -2.5917006752543479 #
straight-curve $-1 77.608569597460871 52.994429217575842 0 0 0 -1 I I #
End-of-ACIS-data 