500 0 8 0           
7 Unknown 11 ACIS 5.0 NT 24 Thu Mar 25 19:40:57 1999 
-1 9.9999999999999995e-007 1e-010 
body $-1 $8 $-1 $9 #
body $-1 $10 $-1 $11 #
body $-1 $12 $-1 $13 #
body $-1 $14 $-1 $15 #
body $-1 $16 $-1 $17 #
body $-1 $18 $-1 $19 #
body $-1 $20 $-1 $21 #
body $-1 $22 $-1 $23 #
lump $-1 $-1 $24 $0 #
transform $-1 1 0 0 0 1 0 0 0 1 71.091036713766897 35.530331209540194 10.906869396169347 1 rotate no_reflect no_shear #
lump $-1 $-1 $25 $1 #
transform $-1 1 0 0 0 1 0 0 0 1 71.091036713766897 35.530331209540194 10.906869396169347 1 rotate no_reflect no_shear #
lump $-1 $-1 $26 $2 #
transform $-1 1 0 0 0 1 0 0 0 1 71.091036713766897 35.530331209540194 10.906869396169347 1 rotate no_reflect no_shear #
lump $-1 $-1 $27 $3 #
transform $-1 1 0 0 0 1 0 0 0 1 71.091036713766897 35.530331209540194 10.906869396169347 1 rotate no_reflect no_shear #
lump $-1 $-1 $28 $4 #
transform $-1 1 0 0 0 1 0 0 0 1 71.091036713766897 35.530331209540194 10.906869396169347 1 rotate no_reflect no_shear #
lump $-1 $-1 $29 $5 #
transform $-1 1 0 0 0 1 0 0 0 1 71.091036713766897 35.530331209540194 10.906869396169347 1 rotate no_reflect no_shear #
lump $-1 $-1 $30 $6 #
transform $-1 1 0 0 0 1 0 0 0 1 71.091036713766897 35.530331209540194 10.906869396169347 1 rotate no_reflect no_shear #
lump $-1 $-1 $31 $7 #
transform $-1 1 0 0 0 1 0 0 0 1 71.091036713766897 35.530331209540194 10.906869396169347 1 rotate no_reflect no_shear #
shell $-1 $-1 $-1 $32 $-1 $8 #
shell $-1 $-1 $-1 $33 $-1 $10 #
shell $-1 $-1 $-1 $34 $-1 $12 #
shell $-1 $-1 $-1 $35 $-1 $14 #
shell $-1 $-1 $-1 $36 $-1 $16 #
shell $-1 $-1 $-1 $37 $-1 $18 #
shell $-1 $-1 $-1 $38 $-1 $20 #
shell $-1 $-1 $-1 $39 $-1 $22 #
face $-1 $40 $41 $24 $-1 $42 forward single #
face $-1 $43 $44 $25 $-1 $45 forward single #
face $-1 $46 $47 $26 $-1 $48 reversed single #
face $-1 $49 $50 $27 $-1 $51 forward single #
face $-1 $52 $53 $28 $-1 $54 forward single #
face $-1 $55 $56 $29 $-1 $57 reversed single #
face $-1 $58 $59 $30 $-1 $60 forward single #
face $-1 $61 $62 $31 $-1 $63 forward single #
face $-1 $64 $65 $24 $-1 $66 reversed single #
loop $-1 $-1 $67 $32 #
plane-surface $-1 0 0 10.906869396169347 0 0 1 1 0 0 forward_v I I I I #
face $-1 $68 $69 $25 $-1 $70 reversed single #
loop $-1 $-1 $71 $33 #
plane-surface $-1 0 -29.729345940984548 -5.8687458631470992 0 0 1 1 0 0 forward_v I I I I #
face $-1 $72 $73 $26 $-1 $74 reversed single #
loop $-1 $-1 $75 $34 #
plane-surface $-1 88.615951437653024 25.144199020395757 201.89628301565196 0 1 0 0.7660444514056185 0 0.64278759981090561 forward_v I I I I #
face $-1 $76 $77 $27 $-1 $78 forward single #
loop $-1 $79 $80 $35 #
cone-surface $-1 65.871987456304865 28.111665360151306 5.1484332742953871 -0.7660444514056185 0 -0.64278759981090561 0.64278759981090561 0 -0.7660444514056185 1 I I 0 1 1 forward I I I I #
face $-1 $81 $82 $28 $-1 $83 forward single #
loop $-1 $84 $85 $36 #
cone-surface $-1 65.871987456304865 32.562864869784633 5.1484332742953871 -0.7660444514056185 0 -0.64278759981090561 0.64278759981090561 0 -0.7660444514056185 1 I I 0 1 1 forward I I I I #
face $-1 $86 $87 $29 $-1 $88 reversed single #
loop $-1 $-1 $89 $37 #
plane-surface $-1 -180.00882515227539 25.144199020395757 92.978494577143508 0 1 0 -0.7660444514056185 0 0.64278759981090561 forward_v I I I I #
face $-1 $90 $91 $30 $-1 $92 forward single #
loop $-1 $93 $94 $38 #
cone-surface $-1 -65.871987456304865 28.111665360151306 5.1484332742953907 0.7660444514056185 0 -0.64278759981090561 0.64278759981090561 0 0.7660444514056185 1 I I 0 1 1 forward I I I I #
face $-1 $95 $96 $31 $-1 $97 forward single #
loop $-1 $98 $99 $39 #
cone-surface $-1 -65.871987456304865 32.562864869784633 5.1484332742953907 0.7660444514056185 0 -0.64278759981090561 0.64278759981090561 0 0.7660444514056185 1 I I 0 1 1 forward I I I I #
face $-1 $100 $101 $24 $-1 $102 reversed single #
loop $-1 $-1 $103 $40 #
plane-surface $-1 0 0 -10.906869396169347 0 0 1 1 0 0 forward_v I I I I #
coedge $-1 $104 $105 $106 $107 forward $41 $-1 #
face $-1 $108 $109 $25 $-1 $110 reversed single #
loop $-1 $-1 $111 $43 #
plane-surface $-1 0 -23.928360672428902 -8.3878076296582229 0 -1 0 0 0 -1 forward_v I I I I #
coedge $-1 $112 $113 $114 $115 reversed $44 $-1 #
face $-1 $116 $117 $26 $-1 $118 forward single #
loop $-1 $-1 $119 $46 #
plane-surface $-1 -20.301837000855471 30.337265114967977 110.50340930102958 0.7660444514056185 0 0.64278759981090561 0.64278759981090561 0 -0.7660444514056185 forward_v I I I I #
coedge $-1 $120 $121 $122 $123 reversed $47 $-1 #
face $-1 $-1 $124 $27 $-1 $125 forward single #
loop $-1 $126 $127 $49 #
cone-surface $-1 64.180643974100491 28.111665360151306 3.7292276193401026 -0.7660444514056185 0 -0.64278759981090561 0.3213937999054528 0 -0.38302222570280925 1 I I -0.70710678118654746 0.70710678118654746 0.5 forward I I I I #
loop $-1 $-1 $128 $35 #
coedge $-1 $80 $80 $129 $130 reversed $50 $-1 #
face $-1 $-1 $131 $28 $-1 $132 forward single #
loop $-1 $133 $134 $52 #
cone-surface $-1 64.180643974100491 32.562864869784633 3.7292276193401026 -0.7660444514056185 0 -0.64278759981090561 0.3213937999054528 0 -0.38302222570280925 1 I I -0.70710678118654746 0.70710678118654746 0.5 forward I I I I #
loop $-1 $-1 $135 $36 #
coedge $-1 $85 $85 $136 $137 reversed $53 $-1 #
face $-1 $138 $139 $29 $-1 $140 reversed single #
loop $-1 $-1 $141 $55 #
plane-surface $-1 -71.091036713766897 30.337265114967977 1.5856208625211252 -0.7660444514056185 0 0.64278759981090561 0.64278759981090561 0 0.7660444514056185 forward_v I I I I #
coedge $-1 $142 $143 $144 $145 reversed $56 $-1 #
face $-1 $-1 $146 $30 $-1 $147 forward single #
loop $-1 $148 $149 $58 #
cone-surface $-1 -64.180643974100491 28.111665360151306 3.7292276193401062 0.7660444514056185 0 -0.64278759981090561 0.3213937999054528 0 0.38302222570280925 1 I I -0.70710678118654746 0.70710678118654746 0.5 forward I I I I #
loop $-1 $-1 $150 $38 #
coedge $-1 $94 $94 $151 $152 reversed $59 $-1 #
face $-1 $-1 $153 $31 $-1 $154 forward single #
loop $-1 $155 $156 $61 #
cone-surface $-1 -64.180643974100491 32.562864869784633 3.7292276193401062 0.7660444514056185 0 -0.64278759981090561 0.3213937999054528 0 0.38302222570280925 1 I I -0.70710678118654746 0.70710678118654746 0.5 forward I I I I #
loop $-1 $-1 $157 $39 #
coedge $-1 $99 $99 $158 $159 reversed $62 $-1 #
face $-1 $160 $161 $24 $-1 $162 reversed single #
loop $-1 $-1 $163 $64 #
plane-surface $-1 0 -35.530331209540194 0 0 1 0 0 0 1 forward_v I I I I #
coedge $-1 $164 $165 $166 $167 forward $65 $-1 #
coedge $-1 $168 $67 $169 $170 forward $41 $-1 #
coedge $-1 $67 $168 $171 $172 forward $41 $-1 #
coedge $-1 $173 $174 $67 $107 reversed $175 $-1 #
edge $-1 $176 -35.530331209540194 $177 35.530331209540194 $106 $178 forward 7 unknown #
face $-1 $179 $180 $25 $-1 $181 reversed single #
loop $-1 $-1 $182 $68 #
plane-surface $-1 0 0 -10.906869396169347 0 0 1 1 0 0 forward_v I I I I #
coedge $-1 $183 $184 $185 $186 reversed $69 $-1 #
coedge $-1 $187 $71 $184 $188 forward $44 $-1 #
coedge $-1 $71 $187 $189 $190 reversed $44 $-1 #
coedge $-1 $191 $185 $71 $115 forward $180 $-1 #
edge $-1 $192 9.0636877019366278 $193 20.665658239047922 $114 $194 forward 7 unknown #
face $-1 $195 $196 $26 $-1 $197 reversed single #
loop $-1 $-1 $198 $72 #
plane-surface $-1 0 0 10.906869396169347 0 0 1 1 0 0 forward_v I I I I #
coedge $-1 $199 $200 $201 $202 reversed $73 $-1 #
coedge $-1 $121 $75 $203 $204 reversed $47 $-1 #
coedge $-1 $75 $120 $199 $205 reversed $47 $-1 #
coedge $-1 $201 $206 $75 $123 forward $207 $-1 #
edge $-1 $208 90.041272111656639 $209 99.362520645304869 $122 $210 forward 7 unknown #
loop $-1 $-1 $129 $76 #
plane-surface $-1 -20.301837000855471 30.337265114967977 110.50340930102958 0.7660444514056185 0 0.64278759981090561 0.64278759981090561 0 -0.7660444514056185 forward_v I I I I #
loop $-1 $-1 $211 $49 #
coedge $-1 $127 $127 $128 $212 reversed $77 $-1 #
coedge $-1 $128 $128 $127 $212 forward $79 $-1 #
coedge $-1 $129 $129 $80 $130 forward $124 $-1 #
edge $-1 $213 0 $213 6.2831853071796004 $129 $214 forward 7 unknown #
loop $-1 $-1 $136 $81 #
plane-surface $-1 -20.301837000855471 30.337265114967977 110.50340930102958 0.7660444514056185 0 0.64278759981090561 0.64278759981090561 0 -0.7660444514056185 forward_v I I I I #
loop $-1 $-1 $215 $52 #
coedge $-1 $134 $134 $135 $216 reversed $82 $-1 #
coedge $-1 $135 $135 $134 $216 forward $84 $-1 #
coedge $-1 $136 $136 $85 $137 forward $131 $-1 #
edge $-1 $217 0 $217 6.2831853071796004 $136 $218 forward 7 unknown #
face $-1 $219 $220 $29 $-1 $221 reversed single #
loop $-1 $-1 $222 $86 #
plane-surface $-1 0 35.530331209540194 0 0 -1 0 0 0 -1 forward_v I I I I #
coedge $-1 $223 $224 $225 $226 reversed $87 $-1 #
coedge $-1 $143 $89 $227 $228 reversed $56 $-1 #
coedge $-1 $89 $142 $223 $229 reversed $56 $-1 #
coedge $-1 $225 $230 $89 $145 forward $231 $-1 #
edge $-1 $232 18.913375862370799 $233 26.734831864291678 $144 $234 forward 7 unknown #
loop $-1 $-1 $151 $90 #
plane-surface $-1 -71.091036713766897 30.337265114967977 1.5856208625211252 -0.7660444514056185 0 0.64278759981090561 0.64278759981090561 0 0.7660444514056185 forward_v I I I I #
loop $-1 $-1 $235 $58 #
coedge $-1 $149 $149 $150 $236 reversed $91 $-1 #
coedge $-1 $150 $150 $149 $236 forward $93 $-1 #
coedge $-1 $151 $151 $94 $152 forward $146 $-1 #
edge $-1 $237 0 $237 6.2831853071796004 $151 $238 forward 7 unknown #
loop $-1 $-1 $158 $95 #
plane-surface $-1 -71.091036713766897 30.337265114967977 1.5856208625211252 -0.7660444514056185 0 0.64278759981090561 0.64278759981090561 0 0.7660444514056185 forward_v I I I I #
loop $-1 $-1 $239 $61 #
coedge $-1 $156 $156 $157 $240 reversed $96 $-1 #
coedge $-1 $157 $157 $156 $240 forward $98 $-1 #
coedge $-1 $158 $158 $99 $159 forward $153 $-1 #
edge $-1 $241 0 $241 6.2831853071796004 $158 $242 forward 7 unknown #
face $-1 $243 $244 $24 $-1 $245 reversed single #
loop $-1 $-1 $246 $100 #
plane-surface $-1 -71.091036713766897 0 0 1 0 0 0 0 -1 forward_v I I I I #
coedge $-1 $247 $171 $248 $249 forward $101 $-1 #
coedge $-1 $250 $103 $247 $251 forward $65 $-1 #
coedge $-1 $103 $250 $252 $253 forward $65 $-1 #
coedge $-1 $174 $173 $103 $167 reversed $175 $-1 #
edge $-1 $254 -35.530331209540194 $255 35.530331209540194 $166 $256 forward 7 unknown #
coedge $-1 $105 $104 $257 $258 forward $41 $-1 #
coedge $-1 $259 $260 $104 $170 reversed $244 $-1 #
edge $-1 $177 -71.091036713766897 $261 71.091036713766897 $169 $262 forward 7 unknown #
coedge $-1 $163 $263 $105 $172 reversed $101 $-1 #
edge $-1 $264 -71.091036713766897 $176 71.091036713766897 $171 $265 forward 7 unknown #
coedge $-1 $166 $106 $263 $266 forward $175 $-1 #
coedge $-1 $106 $166 $259 $267 reversed $175 $-1 #
loop $-1 $-1 $173 $243 #
vertex $-1 $107 $268 #
vertex $-1 $107 $269 #
straight-curve $-1 71.091036713766897 0 10.906869396169347 0 1 0 I I #
face $-1 $270 $271 $25 $-1 $272 reversed single #
loop $-1 $-1 $185 $108 #
plane-surface $-1 71.091036713766897 0 0 -1 0 0 0 0 1 forward_v I I I I #
coedge $-1 $273 $274 $183 $275 forward $109 $-1 #
coedge $-1 $276 $111 $182 $275 reversed $69 $-1 #
coedge $-1 $111 $276 $112 $188 reversed $69 $-1 #
coedge $-1 $114 $277 $111 $186 forward $180 $-1 #
edge $-1 $278 -6.7129655813402351 $192 -1.6748420483179878 $185 $279 forward 7 unknown #
coedge $-1 $113 $112 $280 $281 reversed $44 $-1 #
edge $-1 $192 -71.091036713766897 $282 71.091036713766897 $184 $283 forward 7 unknown #
coedge $-1 $284 $285 $113 $190 forward $271 $-1 #
edge $-1 $193 -71.091036713766897 $286 71.091036713766897 $189 $287 forward 7 unknown #
coedge $-1 $277 $114 $285 $288 forward $180 $-1 #
vertex $-1 $115 $289 #
vertex $-1 $288 $290 #
straight-curve $-1 71.091036713766897 -14.864672970492274 -5.8687458631470992 0 -1 0 I I #
face $-1 $-1 $207 $26 $-1 $291 reversed single #
loop $-1 $-1 $292 $116 #
plane-surface $-1 0 35.530331209540194 0 0 -1 0 0 0 -1 forward_v I I I I #
coedge $-1 $203 $293 $294 $295 forward $117 $-1 #
coedge $-1 $294 $119 $121 $205 forward $73 $-1 #
coedge $-1 $119 $294 $292 $296 reversed $73 $-1 #
coedge $-1 $297 $122 $119 $202 forward $207 $-1 #
edge $-1 $209 9.9755664629117682 $298 20.361698652056205 $201 $299 forward 7 unknown #
coedge $-1 $300 $198 $120 $204 forward $117 $-1 #
edge $-1 $301 18.961604993019492 $208 26.783060994940385 $203 $302 forward 7 unknown #
edge $-1 $209 -142.18207342753379 $301 -130.01404777765848 $121 $303 forward 7 unknown #
coedge $-1 $122 $297 $300 $304 reversed $207 $-1 #
loop $-1 $-1 $201 $195 #
vertex $-1 $304 $305 #
vertex $-1 $123 $306 #
straight-curve $-1 71.091036713766897 25.144199020395757 100.94814150782598 0 0 -1 I I #
coedge $-1 $211 $211 $-1 $307 reversed $126 $-1 #
edge $-1 $308 0 $308 6.2831853071796004 $127 $309 forward 7 unknown #
vertex $-1 $130 $310 #
ellipse-curve $-1 67.18030871280645 28.111665360151306 6.2462451293452323 0.7660444514056185 0 0.64278759981090561 0.64278759981090561 0 -0.7660444514056185 1 I I #
coedge $-1 $215 $215 $-1 $311 reversed $133 $-1 #
edge $-1 $312 0 $312 6.2831853071796004 $134 $313 forward 7 unknown #
vertex $-1 $137 $314 #
ellipse-curve $-1 67.18030871280645 32.562864869784633 6.2462451293452323 0.7660444514056185 0 0.64278759981090561 0.64278759981090561 0 -0.7660444514056185 1 I I #
face $-1 $-1 $231 $29 $-1 $315 forward single #
loop $-1 $-1 $316 $138 #
plane-surface $-1 -71.091036713766897 0 0 1 0 0 0 0 -1 forward_v I I I I #
coedge $-1 $317 $318 $224 $319 forward $139 $-1 #
coedge $-1 $320 $141 $143 $229 forward $87 $-1 #
coedge $-1 $141 $320 $222 $319 reversed $87 $-1 #
coedge $-1 $321 $144 $141 $226 forward $231 $-1 #
edge $-1 $233 9.9755664629117682 $322 20.361698652056205 $225 $323 forward 7 unknown #
coedge $-1 $324 $316 $142 $228 forward $220 $-1 #
edge $-1 $325 -44.903626426050629 $232 -35.582377892402405 $227 $326 forward 7 unknown #
edge $-1 $233 -12.168025649875306 $325 0 $143 $327 forward 7 unknown #
coedge $-1 $144 $321 $324 $328 forward $231 $-1 #
loop $-1 $-1 $225 $219 #
vertex $-1 $228 $329 #
vertex $-1 $145 $330 #
straight-curve $-1 -90.004412576137696 25.144199020395757 10.906869396169348 1 0 0 I I #
coedge $-1 $235 $235 $-1 $331 reversed $148 $-1 #
edge $-1 $332 0 $332 6.2831853071796004 $149 $333 forward 7 unknown #
vertex $-1 $152 $334 #
ellipse-curve $-1 -67.18030871280645 28.111665360151306 6.2462451293452386 -0.7660444514056185 0 0.64278759981090561 0.64278759981090561 0 0.7660444514056185 1 I I #
coedge $-1 $239 $239 $-1 $335 reversed $155 $-1 #
edge $-1 $336 0 $336 6.2831853071796004 $156 $337 forward 7 unknown #
vertex $-1 $159 $338 #
ellipse-curve $-1 -67.18030871280645 32.562864869784633 6.2462451293452386 -0.7660444514056185 0 0.64278759981090561 0.64278759981090561 0 0.7660444514056185 1 I I #
face $-1 $-1 $175 $24 $-1 $339 reversed single #
loop $-1 $-1 $259 $160 #
plane-surface $-1 0 35.530331209540194 0 0 -1 0 0 0 -1 forward_v I I I I #
coedge $-1 $340 $257 $260 $341 forward $161 $-1 #
coedge $-1 $263 $163 $164 $251 reversed $101 $-1 #
coedge $-1 $257 $340 $163 $249 reversed $161 $-1 #
edge $-1 $264 -10.906869396169347 $342 10.906869396169347 $248 $343 forward 7 unknown #
coedge $-1 $165 $164 $340 $344 forward $65 $-1 #
edge $-1 $255 -71.091036713766897 $342 71.091036713766897 $247 $345 forward 7 unknown #
coedge $-1 $260 $259 $165 $253 reversed $244 $-1 #
edge $-1 $346 -71.091036713766897 $254 71.091036713766897 $252 $347 forward 7 unknown #
vertex $-1 $167 $348 #
vertex $-1 $266 $349 #
straight-curve $-1 71.091036713766897 0 -10.906869396169347 0 -1 0 I I #
coedge $-1 $246 $248 $168 $258 reversed $161 $-1 #
edge $-1 $261 -35.530331209540194 $264 35.530331209540194 $257 $350 forward 7 unknown #
coedge $-1 $252 $169 $174 $267 forward $244 $-1 #
coedge $-1 $169 $252 $246 $341 reversed $244 $-1 #
vertex $-1 $170 $351 #
straight-curve $-1 0 35.530331209540194 10.906869396169347 -1 0 0 I I #
coedge $-1 $171 $247 $173 $266 reversed $101 $-1 #
vertex $-1 $258 $352 #
straight-curve $-1 0 -35.530331209540194 10.906869396169347 1 0 0 I I #
edge $-1 $176 -10.906869396169347 $255 10.906869396169347 $173 $353 forward 7 unknown #
edge $-1 $177 -10.906869396169347 $254 10.906869396169347 $174 $354 forward 7 unknown #
point $-1 71.091036713766897 -35.530331209540194 10.906869396169347 #
point $-1 71.091036713766897 35.530331209540194 10.906869396169347 #
face $-1 $-1 $355 $25 $-1 $356 reversed single #
loop $-1 $-1 $189 $179 #
plane-surface $-1 0 -35.530331209540194 0 0 1 0 0 0 1 forward_v I I I I #
coedge $-1 $357 $182 $277 $358 forward $109 $-1 #
coedge $-1 $182 $357 $359 $360 forward $109 $-1 #
edge $-1 $361 -71.091036713766897 $278 71.091036713766897 $182 $362 forward 7 unknown #
coedge $-1 $184 $183 $363 $364 reversed $69 $-1 #
coedge $-1 $185 $191 $273 $358 reversed $180 $-1 #
vertex $-1 $358 $365 #
straight-curve $-1 71.091036713766897 -23.928360672428902 -4.1939038148291115 0 0 1 I I #
coedge $-1 $363 $366 $187 $281 forward $355 $-1 #
edge $-1 $286 -20.665658239047922 $282 -9.0636877019366278 $280 $367 forward 7 unknown #
vertex $-1 $281 $368 #
straight-curve $-1 0 -23.928360672428902 -5.8687458631470992 -1 0 0 I I #
coedge $-1 $369 $189 $366 $370 forward $271 $-1 #
coedge $-1 $189 $369 $191 $288 reversed $271 $-1 #
vertex $-1 $370 $371 #
straight-curve $-1 0 -35.530331209540194 -5.8687458631470992 -1 0 0 I I #
edge $-1 $193 5.8687458631470992 $372 10.906869396169347 $191 $373 forward 7 unknown #
point $-1 71.091036713766897 -23.928360672428902 -5.8687458631470992 #
point $-1 71.091036713766897 -35.530331209540194 -5.8687458631470992 #
plane-surface $-1 71.091036713766897 0 0 -1 0 0 0 0 1 forward_v I I I I #
coedge $-1 $374 $375 $200 $296 forward $196 $-1 #
coedge $-1 $198 $300 $374 $376 forward $117 $-1 #
coedge $-1 $200 $199 $198 $295 reversed $73 $-1 #
edge $-1 $377 -20.361698652056205 $301 -9.9755664629117682 $198 $378 forward 7 unknown #
edge $-1 $298 -93.331927110538842 $377 -81.163901460663524 $292 $379 forward 7 unknown #
coedge $-1 $206 $201 $375 $380 reversed $207 $-1 #
vertex $-1 $202 $381 #
straight-curve $-1 71.091036713766883 15.168632557483988 1.5856208625211181 0 1 0 I I #
coedge $-1 $293 $203 $206 $304 forward $117 $-1 #
vertex $-1 $204 $382 #
straight-curve $-1 44.307975718826512 25.144199020395757 10.906869396169341 1 0 0 I I #
straight-curve $-1 -20.301837000855471 25.144199020395757 110.50340930102958 -0.64278759981090561 0 0.7660444514056185 I I #
edge $-1 $208 25.144199020395757 $383 35.530331209540194 $206 $384 forward 7 unknown #
point $-1 71.091036713766897 25.144199020395757 10.906869396169347 #
point $-1 71.091036713766897 25.144199020395757 1.585620862521111 #
edge $-1 $385 1 $385 0 $211 $-1 forward 7 unknown #
vertex $-1 $212 $386 #
ellipse-curve $-1 64.563666199803293 28.111665360151306 4.0506214192455552 0.7660444514056185 0 0.64278759981090561 0.64278759981090561 0 -0.7660444514056185 1 I I #
point $-1 67.823096312617352 28.111665360151306 5.4802006779395995 #
edge $-1 $387 1 $387 0 $215 $-1 forward 7 unknown #
vertex $-1 $216 $388 #
ellipse-curve $-1 64.563666199803293 32.562864869784633 4.0506214192455552 0.7660444514056185 0 0.64278759981090561 0.64278759981090561 0 -0.7660444514056185 1 I I #
point $-1 67.823096312617352 32.562864869784633 5.4802006779395995 #
plane-surface $-1 0 0 10.906869396169347 0 0 1 1 0 0 forward_v I I I I #
coedge $-1 $227 $389 $320 $390 forward $220 $-1 #
coedge $-1 $318 $222 $389 $391 reversed $139 $-1 #
coedge $-1 $222 $317 $321 $392 reversed $139 $-1 #
edge $-1 $322 10.072864746896647 $393 22.240890396771949 $222 $394 forward 7 unknown #
coedge $-1 $224 $223 $316 $390 reversed $87 $-1 #
coedge $-1 $230 $225 $318 $392 forward $231 $-1 #
vertex $-1 $392 $395 #
straight-curve $-1 -63.269580711846018 15.168632557483988 10.906869396169347 0 1 0 I I #
coedge $-1 $389 $227 $230 $328 reversed $220 $-1 #
vertex $-1 $228 $396 #
straight-curve $-1 -71.091036713766897 25.144199020395757 46.489247288571754 0 0 1 I I #
straight-curve $-1 -71.091036713766897 25.144199020395757 1.5856208625211252 -0.64278759981090561 0 -0.7660444514056185 I I #
edge $-1 $397 -35.530331209540194 $232 -25.144199020395757 $324 $398 forward 7 unknown #
point $-1 -71.091036713766897 25.144199020395757 10.906869396169347 #
point $-1 -63.269580711846018 25.144199020395757 10.906869396169347 #
edge $-1 $399 1 $399 0 $235 $-1 forward 7 unknown #
vertex $-1 $236 $400 #
ellipse-curve $-1 -64.563666199803293 28.111665360151306 4.0506214192455587 -0.7660444514056185 0 0.64278759981090561 0.64278759981090561 0 0.7660444514056185 1 I I #
point $-1 -66.537521112995535 28.111665360151306 7.0122895807508403 #
edge $-1 $401 1 $401 0 $239 $-1 forward 7 unknown #
vertex $-1 $240 $402 #
ellipse-curve $-1 -64.563666199803293 32.562864869784633 4.0506214192455587 -0.7660444514056185 0 0.64278759981090561 0.64278759981090561 0 0.7660444514056185 1 I I #
point $-1 -66.537521112995535 32.562864869784633 7.0122895807508403 #
plane-surface $-1 71.091036713766897 0 0 -1 0 0 0 0 1 forward_v I I I I #
coedge $-1 $248 $246 $250 $344 reversed $161 $-1 #
edge $-1 $261 -10.906869396169347 $346 10.906869396169347 $260 $403 forward 7 unknown #
vertex $-1 $344 $404 #
straight-curve $-1 -71.091036713766897 -35.530331209540194 0 0 0 -1 I I #
edge $-1 $342 -35.530331209540194 $346 35.530331209540194 $340 $405 forward 7 unknown #
straight-curve $-1 0 -35.530331209540194 -10.906869396169347 -1 0 0 I I #
vertex $-1 $253 $406 #
straight-curve $-1 0 35.530331209540194 -10.906869396169347 1 0 0 I I #
point $-1 71.091036713766897 35.530331209540194 -10.906869396169347 #
point $-1 71.091036713766897 -35.530331209540194 -10.906869396169347 #
straight-curve $-1 -71.091036713766897 0 10.906869396169347 0 -1 0 I I #
point $-1 -71.091036713766897 35.530331209540194 10.906869396169347 #
point $-1 -71.091036713766897 -35.530331209540194 10.906869396169347 #
straight-curve $-1 71.091036713766897 -35.530331209540194 0 0 0 -1 I I #
straight-curve $-1 71.091036713766897 35.530331209540194 0 0 0 -1 I I #
loop $-1 $-1 $363 $270 #
plane-surface $-1 -71.091036713766897 0 0 1 0 0 0 0 -1 forward_v I I I I #
coedge $-1 $274 $273 $369 $407 forward $109 $-1 #
edge $-1 $278 23.928360672428902 $372 35.530331209540194 $277 $408 forward 7 unknown #
coedge $-1 $366 $363 $274 $360 reversed $355 $-1 #
edge $-1 $409 -35.530331209540194 $361 -23.928360672428902 $359 $410 forward 7 unknown #
vertex $-1 $364 $411 #
straight-curve $-1 0 -23.928360672428902 -10.906869396169347 1 0 0 I I #
coedge $-1 $359 $280 $276 $364 forward $355 $-1 #
edge $-1 $282 1.6748420483179878 $361 6.7129655813402351 $363 $412 forward 7 unknown #
point $-1 71.091036713766897 -23.928360672428902 -10.906869396169347 #
coedge $-1 $280 $359 $284 $370 reversed $355 $-1 #
straight-curve $-1 -71.091036713766897 -14.864672970492274 -5.8687458631470992 0 1 0 I I #
point $-1 -71.091036713766897 -23.928360672428902 -5.8687458631470992 #
coedge $-1 $285 $284 $357 $407 reversed $271 $-1 #
edge $-1 $286 5.8687458631470992 $409 10.906869396169347 $366 $413 forward 7 unknown #
point $-1 -71.091036713766897 -35.530331209540194 -5.8687458631470992 #
vertex $-1 $288 $414 #
straight-curve $-1 71.091036713766897 -35.530331209540194 0 0 0 -1 I I #
coedge $-1 $375 $292 $293 $376 reversed $196 $-1 #
coedge $-1 $292 $374 $297 $380 forward $196 $-1 #
edge $-1 $383 -71.091036713766897 $377 -63.269580711846004 $374 $415 forward 7 unknown #
vertex $-1 $295 $416 #
straight-curve $-1 63.269580711846011 15.168632557483988 10.906869396169327 0 -1 0 I I #
straight-curve $-1 11.098431300657246 35.530331209540194 73.082025764543005 -0.64278759981090572 0 0.76604445140561861 I I #
edge $-1 $383 -10.906869396169347 $298 -1.5856208625211055 $297 $417 forward 7 unknown #
point $-1 71.091036713766897 35.530331209540194 1.5856208625211055 #
point $-1 63.269580711846004 25.144199020395757 10.906869396169341 #
vertex $-1 $304 $418 #
straight-curve $-1 71.091036713766897 0 10.906869396169347 0 1 0 I I #
vertex $-1 $307 $419 #
point $-1 65.206453799614209 28.111665360151306 3.284576967839937 #
vertex $-1 $311 $420 #
point $-1 65.206453799614209 32.562864869784633 3.284576967839937 #
coedge $-1 $316 $324 $317 $391 forward $220 $-1 #
edge $-1 $393 -20.361698652056205 $325 -9.9755664629117682 $316 $421 forward 7 unknown #
edge $-1 $397 -10.906869396169347 $393 -1.5856208625211252 $317 $422 forward 7 unknown #
edge $-1 $322 63.269580711846018 $397 71.091036713766897 $318 $423 forward 7 unknown #
vertex $-1 $390 $424 #
straight-curve $-1 -56.794868157968438 35.530331209540194 18.623131545288782 -0.64278759981090572 0 -0.76604445140561861 I I #
point $-1 -63.269580711846018 35.530331209540194 10.906869396169347 #
point $-1 -71.091036713766897 25.144199020395757 1.5856208625211252 #
vertex $-1 $392 $425 #
straight-curve $-1 -71.091036713766897 0 10.906869396169347 0 -1 0 I I #
vertex $-1 $331 $426 #
point $-1 -63.920878599992392 28.111665360151306 4.8166658706511774 #
vertex $-1 $335 $427 #
point $-1 -63.920878599992392 32.562864869784633 4.8166658706511774 #
straight-curve $-1 -71.091036713766897 35.530331209540194 0 0 0 -1 I I #
point $-1 -71.091036713766897 -35.530331209540194 -10.906869396169347 #
straight-curve $-1 -71.091036713766897 0 -10.906869396169347 0 1 0 I I #
point $-1 -71.091036713766897 35.530331209540194 -10.906869396169347 #
edge $-1 $372 -71.091036713766897 $409 71.091036713766897 $369 $428 forward 7 unknown #
straight-curve $-1 71.091036713766897 0 -10.906869396169347 0 -1 0 I I #
vertex $-1 $360 $429 #
straight-curve $-1 -71.091036713766897 0 -10.906869396169347 0 1 0 I I #
point $-1 -71.091036713766897 -23.928360672428902 -10.906869396169347 #
straight-curve $-1 -71.091036713766897 -23.928360672428902 -4.1939038148291115 0 0 -1 I I #
straight-curve $-1 -71.091036713766897 -35.530331209540194 0 0 0 -1 I I #
point $-1 71.091036713766897 -35.530331209540194 -10.906869396169347 #
straight-curve $-1 0 35.530331209540194 10.906869396169347 -1 0 0 I I #
point $-1 63.269580711846004 35.530331209540194 10.906869396169341 #
straight-curve $-1 71.091036713766897 35.530331209540194 0 0 0 -1 I I #
point $-1 71.091036713766897 35.530331209540194 10.906869396169347 #
point $-1 63.797621748397681 28.111665360151306 3.40783381943465 #
point $-1 63.797621748397681 32.562864869784633 3.40783381943465 #
straight-curve $-1 -71.091036713766897 15.168632557483988 1.5856208625211223 0 -1 0 I I #
straight-curve $-1 -71.091036713766897 35.530331209540194 0 0 0 -1 I I #
straight-curve $-1 0 35.530331209540194 10.906869396169347 -1 0 0 I I #
point $-1 -71.091036713766897 35.530331209540194 1.5856208625211252 #
point $-1 -71.091036713766897 35.530331209540194 10.906869396169347 #
point $-1 -63.797621748397681 28.111665360151306 3.4078338194346536 #
point $-1 -63.797621748397681 32.562864869784633 3.4078338194346536 #
straight-curve $-1 0 -35.530331209540194 -10.906869396169347 -1 0 0 I I #
point $-1 -71.091036713766897 -35.530331209540194 -10.906869396169347 #
End-of-ACIS-data 