500 0 11 0           
7 Unknown 11 ACIS 5.0 NT 24 Fri Mar 26 17:10:37 1999 
-1 9.9999999999999995e-007 1e-010 
body $-1 $11 $-1 $12 #
body $-1 $13 $-1 $14 #
body $-1 $15 $-1 $16 #
body $-1 $17 $-1 $18 #
body $-1 $19 $-1 $20 #
body $-1 $21 $-1 $22 #
body $-1 $23 $-1 $24 #
body $-1 $25 $-1 $26 #
body $-1 $27 $-1 $28 #
body $-1 $29 $-1 $30 #
body $-1 $31 $-1 $32 #
lump $-1 $-1 $33 $0 #
transform $-1 1 0 0 0 1 0 0 0 1 69.043855098117007 42.089000898109617 19.518136736562862 1 rotate no_reflect no_shear #
lump $-1 $-1 $34 $1 #
transform $-1 1 0 0 0 1 0 0 0 1 69.043855098117007 42.089000898109617 19.518136736562862 1 rotate no_reflect no_shear #
lump $-1 $-1 $35 $2 #
transform $-1 1 0 0 0 1 0 0 0 1 69.043855098117007 42.089000898109617 19.518136736562862 1 rotate no_reflect no_shear #
lump $-1 $-1 $36 $3 #
transform $-1 1 0 0 0 1 0 0 0 1 69.043855098117007 42.089000898109617 19.518136736562862 1 rotate no_reflect no_shear #
lump $-1 $-1 $37 $4 #
transform $-1 1 0 0 0 1 0 0 0 1 69.043855098117007 42.089000898109617 19.518136736562862 1 rotate no_reflect no_shear #
lump $-1 $-1 $38 $5 #
transform $-1 1 0 0 0 1 0 0 0 1 69.043855098117007 42.089000898109617 19.518136736562862 1 rotate no_reflect no_shear #
lump $-1 $-1 $39 $6 #
transform $-1 1 0 0 0 1 0 0 0 1 69.043855098117007 42.089000898109617 19.518136736562862 1 rotate no_reflect no_shear #
lump $-1 $-1 $40 $7 #
transform $-1 1 0 0 0 1 0 0 0 1 69.043855098117007 42.089000898109617 19.518136736562862 1 rotate no_reflect no_shear #
lump $-1 $-1 $41 $8 #
transform $-1 1 0 0 0 1 0 0 0 1 69.043855098117007 42.089000898109617 19.518136736562862 1 rotate no_reflect no_shear #
lump $-1 $-1 $42 $9 #
transform $-1 1 0 0 0 1 0 0 0 1 69.043855098117007 42.089000898109617 19.518136736562862 1 rotate no_reflect no_shear #
lump $-1 $-1 $43 $10 #
transform $-1 1 0 0 0 1 0 0 0 1 69.043855098117007 42.089000898109617 19.518136736562862 1 rotate no_reflect no_shear #
shell $-1 $-1 $-1 $44 $-1 $11 #
shell $-1 $-1 $-1 $45 $-1 $13 #
shell $-1 $-1 $-1 $46 $-1 $15 #
shell $-1 $-1 $-1 $47 $-1 $17 #
shell $-1 $-1 $-1 $48 $-1 $19 #
shell $-1 $-1 $-1 $49 $-1 $21 #
shell $-1 $-1 $-1 $50 $-1 $23 #
shell $-1 $-1 $-1 $51 $-1 $25 #
shell $-1 $-1 $-1 $52 $-1 $27 #
shell $-1 $-1 $-1 $53 $-1 $29 #
shell $-1 $-1 $-1 $54 $-1 $31 #
face $-1 $55 $56 $33 $-1 $57 forward single #
face $-1 $58 $59 $34 $-1 $60 forward single #
face $-1 $61 $62 $35 $-1 $63 forward single #
face $-1 $64 $65 $36 $-1 $66 reversed single #
face $-1 $67 $68 $37 $-1 $69 forward single #
face $-1 $70 $71 $38 $-1 $72 reversed single #
face $-1 $73 $74 $39 $-1 $75 forward single #
face $-1 $76 $77 $40 $-1 $78 forward single #
face $-1 $79 $80 $41 $-1 $81 reversed single #
face $-1 $82 $83 $42 $-1 $84 forward single #
face $-1 $85 $86 $43 $-1 $87 forward single #
face $-1 $88 $89 $33 $-1 $90 reversed single #
loop $-1 $-1 $91 $44 #
plane-surface $-1 0 0 19.518136736562862 0 0 1 1 0 0 forward_v I I I I #
face $-1 $92 $93 $34 $-1 $94 reversed single #
loop $-1 $-1 $95 $45 #
plane-surface $-1 -59.013711756048686 0 2.6041885124961404 0 0 1 1 0 0 forward_v I I I I #
face $-1 $96 $97 $35 $-1 $98 reversed single #
loop $-1 $-1 $99 $46 #
plane-surface $-1 59.013711756048679 0 2.6041885124961404 0 0 1 1 0 0 forward_v I I I I #
face $-1 $100 $101 $36 $-1 $102 reversed single #
loop $-1 $-1 $103 $47 #
plane-surface $-1 20.558538354332832 -141.42098791758323 103.09977293694536 1 0 0 0 0.71933980857756763 -0.69465836192734942 forward_v I I I I #
face $-1 $104 $105 $37 $-1 $106 forward single #
loop $-1 $107 $108 $48 #
cone-surface $-1 34.771053384156602 -31.909846868877622 9.2720327089648329 0 0.71933980857756763 -0.69465836192734942 3 0 0 1 I I 0 1 3 forward I I I I #
face $-1 $109 $110 $38 $-1 $111 reversed single #
loop $-1 $-1 $112 $49 #
plane-surface $-1 -9.8987664074609683 49.519943640919067 165.27045267608563 -1 0 0 0 0.55919291073839883 0.82903756765294845 forward_v I I I I #
face $-1 $113 $114 $39 $-1 $115 forward single #
loop $-1 $116 $117 $50 #
cone-surface $-1 -26.963005874585527 28.78623122413169 9.2596627138280976 0 -0.55919291073839883 -0.82903756765294845 2.5 0 0 1 I I 0 1 2.5 forward I I I I #
face $-1 $118 $119 $40 $-1 $120 forward single #
loop $-1 $121 $122 $51 #
cone-surface $-1 -16.724462194310789 28.78623122413169 9.2596627138280976 0 -0.55919291073839883 -0.82903756765294845 2.5 0 0 1 I I 0 1 2.5 forward I I I I #
face $-1 $123 $124 $41 $-1 $125 reversed single #
loop $-1 $-1 $126 $52 #
plane-surface $-1 33.78870166143534 49.519943640919067 165.27045267608563 -1 0 0 0 0.55919291073839883 0.82903756765294845 forward_v I I I I #
face $-1 $127 $128 $42 $-1 $129 forward single #
loop $-1 $130 $131 $53 #
cone-surface $-1 16.724462194310789 28.78623122413169 9.2596627138280976 0 -0.55919291073839883 -0.82903756765294845 2.5 0 0 1 I I 0 1 2.5 forward I I I I #
face $-1 $132 $133 $43 $-1 $134 forward single #
loop $-1 $135 $136 $54 #
cone-surface $-1 26.963005874585519 28.78623122413169 9.2596627138280976 0 -0.55919291073839883 -0.82903756765294845 2.5 0 0 1 I I 0 1 2.5 forward I I I I #
face $-1 $137 $138 $33 $-1 $139 reversed single #
loop $-1 $-1 $140 $55 #
plane-surface $-1 0 0 -19.518136736562862 0 0 1 1 0 0 forward_v I I I I #
coedge $-1 $141 $142 $143 $144 forward $56 $-1 #
face $-1 $145 $146 $34 $-1 $147 reversed single #
loop $-1 $-1 $148 $58 #
plane-surface $-1 -59.013711756048686 0 -5.7376154514362803 0 0 1 1 0 0 forward_v I I I I #
coedge $-1 $149 $150 $151 $152 forward $59 $-1 #
face $-1 $153 $154 $35 $-1 $155 reversed single #
loop $-1 $-1 $156 $61 #
plane-surface $-1 59.013711756048679 0 -5.7376154514362803 0 0 1 1 0 0 forward_v I I I I #
coedge $-1 $157 $158 $159 $160 reversed $62 $-1 #
face $-1 $161 $162 $36 $-1 $163 reversed single #
loop $-1 $-1 $164 $64 #
plane-surface $-1 34.771053384156602 -42.089000898109617 7.1759903697308971 0 -0.71933980857756763 0.69465836192734942 1 0 0 forward_v I I I I #
coedge $-1 $165 $166 $167 $168 reversed $65 $-1 #
face $-1 $-1 $169 $37 $-1 $170 forward single #
loop $-1 $171 $172 $67 #
cone-surface $-1 34.771053384156602 -26.611019087070829 4.155014321891759 0 0.71933980857756763 -0.69465836192734942 1.5 0 0 1 I I -0.70710678118654757 0.70710678118654757 1.5 forward I I I I #
loop $-1 $-1 $173 $48 #
coedge $-1 $108 $108 $174 $175 reversed $68 $-1 #
face $-1 $176 $177 $38 $-1 $178 reversed single #
loop $-1 $-1 $179 $70 #
plane-surface $-1 -21.843734034448161 -27.697724960913504 50.790553292234534 0 0.55919291073839883 0.82903756765294845 1 0 0 forward_v I I I I #
coedge $-1 $180 $181 $182 $183 reversed $71 $-1 #
face $-1 $-1 $184 $39 $-1 $185 forward single #
loop $-1 $186 $187 $73 #
cone-surface $-1 -26.963005874585527 26.496201691344211 5.8645543759763079 0 -0.55919291073839883 -0.82903756765294845 1.25 0 0 1 I I -0.70710678118654779 0.70710678118654724 1.25 forward I I I I #
loop $-1 $-1 $188 $50 #
coedge $-1 $117 $117 $189 $190 reversed $74 $-1 #
face $-1 $-1 $191 $40 $-1 $192 forward single #
loop $-1 $193 $194 $76 #
cone-surface $-1 -16.724462194310789 26.496201691344211 5.8645543759763079 0 -0.55919291073839883 -0.82903756765294845 1.25 0 0 1 I I -0.70710678118654779 0.70710678118654724 1.25 forward I I I I #
loop $-1 $-1 $195 $51 #
coedge $-1 $122 $122 $196 $197 reversed $77 $-1 #
face $-1 $198 $199 $41 $-1 $200 reversed single #
loop $-1 $-1 $201 $79 #
plane-surface $-1 21.843734034448147 -27.697724960913504 50.790553292234534 0 0.55919291073839883 0.82903756765294845 1 0 0 forward_v I I I I #
coedge $-1 $202 $203 $204 $205 reversed $80 $-1 #
face $-1 $-1 $206 $42 $-1 $207 forward single #
loop $-1 $208 $209 $82 #
cone-surface $-1 16.724462194310789 26.496201691344211 5.8645543759763079 0 -0.55919291073839883 -0.82903756765294845 1.25 0 0 1 I I -0.70710678118654779 0.70710678118654724 1.25 forward I I I I #
loop $-1 $-1 $210 $53 #
coedge $-1 $131 $131 $211 $212 reversed $83 $-1 #
face $-1 $-1 $213 $43 $-1 $214 forward single #
loop $-1 $215 $216 $85 #
cone-surface $-1 26.963005874585519 26.496201691344211 5.8645543759763079 0 -0.55919291073839883 -0.82903756765294845 1.25 0 0 1 I I -0.70710678118654779 0.70710678118654724 1.25 forward I I I I #
loop $-1 $-1 $217 $54 #
coedge $-1 $136 $136 $218 $219 reversed $86 $-1 #
face $-1 $220 $221 $33 $-1 $222 reversed single #
loop $-1 $-1 $223 $88 #
plane-surface $-1 0 -42.089000898109617 0 0 1 0 0 0 1 forward_v I I I I #
coedge $-1 $224 $225 $226 $227 forward $89 $-1 #
coedge $-1 $228 $91 $229 $230 forward $56 $-1 #
coedge $-1 $91 $228 $231 $232 forward $56 $-1 #
coedge $-1 $233 $234 $91 $144 reversed $235 $-1 #
edge $-1 $236 -42.089000898109617 $237 42.089000898109617 $143 $238 forward 7 unknown #
face $-1 $239 $240 $34 $-1 $241 reversed single #
loop $-1 $-1 $242 $92 #
plane-surface $-1 -48.983568413980365 0 -1.56671346947007 -1 0 0 0 0 1 forward_v I I I I #
coedge $-1 $243 $244 $245 $246 forward $93 $-1 #
coedge $-1 $247 $95 $248 $249 reversed $59 $-1 #
coedge $-1 $95 $247 $250 $251 reversed $59 $-1 #
coedge $-1 $242 $252 $95 $152 reversed $146 $-1 #
edge $-1 $253 -42.089000898109617 $254 42.089000898109617 $151 $255 forward 7 unknown #
face $-1 $256 $257 $35 $-1 $258 reversed single #
loop $-1 $-1 $259 $96 #
plane-surface $-1 48.983568413980358 0 -1.56671346947007 1 0 0 0 0 -1 forward_v I I I I #
coedge $-1 $260 $261 $262 $263 reversed $97 $-1 #
coedge $-1 $264 $99 $265 $266 reversed $62 $-1 #
coedge $-1 $99 $264 $267 $268 reversed $62 $-1 #
coedge $-1 $269 $270 $99 $160 forward $271 $-1 #
edge $-1 $272 -42.089000898109617 $273 42.089000898109617 $159 $274 forward 7 unknown #
face $-1 $275 $276 $36 $-1 $277 forward single #
loop $-1 $-1 $278 $100 #
plane-surface $-1 48.983568413980372 -141.42098791758323 103.09977293694536 -1 0 0 0 -0.71933980857756763 0.69465836192734942 forward_v I I I I #
coedge $-1 $279 $280 $281 $282 reversed $101 $-1 #
coedge $-1 $166 $103 $283 $284 reversed $65 $-1 #
coedge $-1 $103 $165 $279 $285 reversed $65 $-1 #
coedge $-1 $281 $286 $103 $168 forward $287 $-1 #
edge $-1 $288 32.031749731909812 $289 44.373896098741781 $167 $290 forward 7 unknown #
loop $-1 $-1 $174 $104 #
plane-surface $-1 34.771053384156602 -42.089000898109617 7.1759903697308971 0 -0.71933980857756763 0.69465836192734942 1 0 0 forward_v I I I I #
loop $-1 $-1 $291 $67 #
coedge $-1 $172 $172 $173 $292 reversed $105 $-1 #
coedge $-1 $173 $173 $172 $292 forward $107 $-1 #
coedge $-1 $174 $174 $108 $175 forward $169 $-1 #
edge $-1 $293 -4.2593472960654304e-016 $293 6.2831853071796004 $174 $294 forward 7 unknown #
face $-1 $295 $296 $38 $-1 $297 reversed single #
loop $-1 $-1 $298 $109 #
plane-surface $-1 -33.788701661435354 49.519943640919067 165.27045267608563 1 0 0 0 -0.55919291073839883 -0.82903756765294845 forward_v I I I I #
coedge $-1 $299 $300 $301 $302 reversed $110 $-1 #
coedge $-1 $181 $112 $303 $304 reversed $71 $-1 #
coedge $-1 $112 $180 $299 $305 reversed $71 $-1 #
coedge $-1 $301 $306 $112 $183 forward $296 $-1 #
edge $-1 $307 63.117089601479947 $308 78.916414890378277 $182 $309 forward 7 unknown #
loop $-1 $-1 $189 $113 #
plane-surface $-1 -21.843734034448161 -27.697724960913504 50.790553292234534 0 0.55919291073839883 0.82903756765294845 1 0 0 forward_v I I I I #
loop $-1 $-1 $310 $73 #
coedge $-1 $187 $187 $188 $311 reversed $114 $-1 #
coedge $-1 $188 $188 $187 $311 forward $116 $-1 #
coedge $-1 $189 $189 $117 $190 forward $184 $-1 #
edge $-1 $312 3.8347232150861939e-016 $312 6.2831853071796004 $189 $313 forward 7 unknown #
loop $-1 $-1 $196 $118 #
plane-surface $-1 -21.843734034448161 -27.697724960913504 50.790553292234534 0 0.55919291073839883 0.82903756765294845 1 0 0 forward_v I I I I #
loop $-1 $-1 $314 $76 #
coedge $-1 $194 $194 $195 $315 reversed $119 $-1 #
coedge $-1 $195 $195 $194 $315 forward $121 $-1 #
coedge $-1 $196 $196 $122 $197 forward $191 $-1 #
edge $-1 $316 3.8347232150861939e-016 $316 6.2831853071796004 $196 $317 forward 7 unknown #
face $-1 $318 $319 $41 $-1 $320 reversed single #
loop $-1 $-1 $321 $123 #
plane-surface $-1 9.898766407460954 49.519943640919067 165.27045267608563 1 0 0 0 -0.55919291073839883 -0.82903756765294845 forward_v I I I I #
coedge $-1 $322 $323 $324 $325 reversed $124 $-1 #
coedge $-1 $203 $126 $326 $327 reversed $80 $-1 #
coedge $-1 $126 $202 $322 $328 reversed $80 $-1 #
coedge $-1 $324 $329 $126 $205 forward $319 $-1 #
edge $-1 $330 63.117089601479947 $331 78.916414890378277 $204 $332 forward 7 unknown #
loop $-1 $-1 $211 $127 #
plane-surface $-1 21.843734034448147 -27.697724960913504 50.790553292234534 0 0.55919291073839883 0.82903756765294845 1 0 0 forward_v I I I I #
loop $-1 $-1 $333 $82 #
coedge $-1 $209 $209 $210 $334 reversed $128 $-1 #
coedge $-1 $210 $210 $209 $334 forward $130 $-1 #
coedge $-1 $211 $211 $131 $212 forward $206 $-1 #
edge $-1 $335 3.8347232150861939e-016 $335 6.2831853071796004 $211 $336 forward 7 unknown #
loop $-1 $-1 $218 $132 #
plane-surface $-1 21.843734034448147 -27.697724960913504 50.790553292234534 0 0.55919291073839883 0.82903756765294845 1 0 0 forward_v I I I I #
loop $-1 $-1 $337 $85 #
coedge $-1 $216 $216 $217 $338 reversed $133 $-1 #
coedge $-1 $217 $217 $216 $338 forward $135 $-1 #
coedge $-1 $218 $218 $136 $219 forward $213 $-1 #
edge $-1 $339 3.8347232150861939e-016 $339 6.2831853071796004 $218 $340 forward 7 unknown #
face $-1 $341 $342 $33 $-1 $343 reversed single #
loop $-1 $-1 $344 $137 #
plane-surface $-1 -69.043855098117007 0 0 1 0 0 0 0 -1 forward_v I I I I #
coedge $-1 $345 $231 $346 $347 forward $138 $-1 #
coedge $-1 $348 $140 $345 $349 forward $89 $-1 #
coedge $-1 $140 $348 $350 $351 forward $89 $-1 #
coedge $-1 $234 $233 $140 $227 reversed $235 $-1 #
edge $-1 $352 -42.089000898109617 $353 42.089000898109617 $226 $354 forward 7 unknown #
coedge $-1 $142 $141 $355 $356 forward $56 $-1 #
coedge $-1 $357 $358 $141 $230 reversed $342 $-1 #
edge $-1 $237 -69.043855098117007 $359 69.043855098117007 $229 $360 forward 7 unknown #
coedge $-1 $223 $361 $142 $232 reversed $138 $-1 #
edge $-1 $362 -69.043855098117007 $236 69.043855098117007 $231 $363 forward 7 unknown #
coedge $-1 $226 $143 $361 $364 forward $235 $-1 #
coedge $-1 $143 $226 $357 $365 reversed $235 $-1 #
loop $-1 $-1 $233 $341 #
vertex $-1 $144 $366 #
vertex $-1 $144 $367 #
straight-curve $-1 69.043855098117007 0 19.518136736562862 0 1 0 I I #
face $-1 $368 $369 $34 $-1 $370 reversed single #
loop $-1 $-1 $371 $145 #
plane-surface $-1 0 -42.089000898109617 0 0 1 0 0 0 1 forward_v I I I I #
coedge $-1 $245 $151 $372 $373 reversed $146 $-1 #
coedge $-1 $374 $148 $371 $375 reversed $93 $-1 #
coedge $-1 $148 $374 $376 $377 reversed $93 $-1 #
coedge $-1 $252 $242 $148 $246 reversed $146 $-1 #
edge $-1 $378 -42.089000898109617 $379 42.089000898109617 $245 $380 forward 7 unknown #
coedge $-1 $150 $149 $381 $382 reversed $59 $-1 #
coedge $-1 $383 $384 $149 $249 forward $385 $-1 #
edge $-1 $386 -39.536999220092667 $254 -19.476712535956022 $248 $387 forward 7 unknown #
coedge $-1 $388 $372 $150 $251 forward $240 $-1 #
edge $-1 $253 19.476712535956022 $389 39.536999220092667 $250 $390 forward 7 unknown #
coedge $-1 $151 $245 $383 $391 reversed $146 $-1 #
vertex $-1 $251 $392 #
vertex $-1 $249 $393 #
straight-curve $-1 -48.983568413980365 0 2.6041885124961404 0 1 0 I I #
face $-1 $394 $395 $35 $-1 $396 reversed single #
loop $-1 $-1 $267 $153 #
plane-surface $-1 0 -42.089000898109617 0 0 1 0 0 0 1 forward_v I I I I #
coedge $-1 $397 $398 $399 $400 reversed $154 $-1 #
coedge $-1 $401 $156 $402 $403 reversed $97 $-1 #
coedge $-1 $156 $401 $404 $405 reversed $97 $-1 #
coedge $-1 $270 $269 $156 $263 forward $271 $-1 #
edge $-1 $406 -42.089000898109617 $407 42.089000898109617 $262 $408 forward 7 unknown #
coedge $-1 $158 $157 $398 $409 forward $62 $-1 #
coedge $-1 $410 $399 $157 $266 forward $395 $-1 #
edge $-1 $411 19.476712535956018 $272 39.536999220092667 $265 $412 forward 7 unknown #
coedge $-1 $413 $414 $158 $268 forward $257 $-1 #
edge $-1 $273 -39.536999220092667 $415 -19.476712535956018 $267 $416 forward 7 unknown #
coedge $-1 $262 $159 $414 $417 forward $271 $-1 #
coedge $-1 $159 $262 $410 $418 reversed $271 $-1 #
loop $-1 $-1 $159 $394 #
vertex $-1 $418 $419 #
vertex $-1 $417 $420 #
straight-curve $-1 69.043855098117007 0 2.6041885124961404 0 -1 0 I I #
face $-1 $-1 $287 $36 $-1 $421 reversed single #
loop $-1 $-1 $422 $161 #
plane-surface $-1 0 0 19.518136736562862 0 0 1 1 0 0 forward_v I I I I #
coedge $-1 $423 $424 $425 $426 reversed $162 $-1 #
coedge $-1 $427 $164 $166 $285 forward $101 $-1 #
coedge $-1 $164 $427 $423 $428 forward $101 $-1 #
coedge $-1 $425 $167 $164 $282 forward $287 $-1 #
edge $-1 $289 3.173011662254531 $429 31.598041721902071 $281 $430 forward 7 unknown #
coedge $-1 $431 $432 $165 $284 forward $276 $-1 #
edge $-1 $433 -40.5401649812651 $288 -28.621493060681999 $283 $434 forward 7 unknown #
edge $-1 $289 0 $433 17.157602317654977 $166 $435 forward 7 unknown #
coedge $-1 $167 $425 $431 $436 reversed $287 $-1 #
loop $-1 $-1 $425 $275 #
vertex $-1 $436 $437 #
vertex $-1 $168 $438 #
straight-curve $-1 20.558538354332832 -42.089000898109617 51.549886468472678 0 0 -1 I I #
coedge $-1 $291 $291 $-1 $439 reversed $171 $-1 #
edge $-1 $440 0 $440 6.2831853071796004 $172 $441 forward 7 unknown #
vertex $-1 $175 $442 #
ellipse-curve $-1 34.771053384156602 -36.129664937818063 13.347063553146882 0 -0.71933980857756763 0.69465836192734942 3 0 0 1 I I #
face $-1 $-1 $443 $38 $-1 $444 forward single #
loop $-1 $-1 $182 $176 #
plane-surface $-1 0 42.089000898109617 0 0 -1 0 0 0 -1 forward_v I I I I #
coedge $-1 $445 $446 $447 $448 reversed $177 $-1 #
coedge $-1 $449 $179 $181 $305 forward $110 $-1 #
coedge $-1 $179 $449 $445 $450 forward $110 $-1 #
coedge $-1 $447 $182 $179 $302 forward $296 $-1 #
edge $-1 $308 -1.0231006097631123 $451 22.866834644211274 $301 $452 forward 7 unknown #
coedge $-1 $453 $454 $180 $304 forward $443 $-1 #
edge $-1 $455 -6.0944334815768073 $307 17.329029077650084 $303 $456 forward 7 unknown #
edge $-1 $308 -84.178001796219235 $455 -55.924200674106018 $181 $457 forward 7 unknown #
coedge $-1 $182 $447 $453 $458 reversed $296 $-1 #
vertex $-1 $458 $459 #
vertex $-1 $183 $460 #
straight-curve $-1 -9.8987664074609683 42.089000898109617 82.635226338042813 0 0 -1 I I #
coedge $-1 $310 $310 $-1 $461 reversed $186 $-1 #
edge $-1 $462 0 $462 6.2831853071796004 $187 $463 forward 7 unknown #
vertex $-1 $190 $464 #
ellipse-curve $-1 -26.963005874585527 30.377269618496168 11.618474092113699 0 0.55919291073839883 0.82903756765294845 2.5 0 0 1 I I #
coedge $-1 $314 $314 $-1 $465 reversed $193 $-1 #
edge $-1 $466 0 $466 6.2831853071796004 $194 $467 forward 7 unknown #
vertex $-1 $197 $468 #
ellipse-curve $-1 -16.724462194310789 30.377269618496168 11.618474092113699 0 0.55919291073839883 0.82903756765294845 2.5 0 0 1 I I #
face $-1 $-1 $469 $41 $-1 $470 forward single #
loop $-1 $-1 $204 $198 #
plane-surface $-1 0 42.089000898109617 0 0 -1 0 0 0 -1 forward_v I I I I #
coedge $-1 $471 $472 $473 $474 reversed $199 $-1 #
coedge $-1 $475 $201 $203 $328 forward $124 $-1 #
coedge $-1 $201 $475 $471 $476 forward $124 $-1 #
coedge $-1 $473 $204 $201 $325 forward $319 $-1 #
edge $-1 $331 -22.866834644211266 $477 1.0231006097631195 $324 $478 forward 7 unknown #
coedge $-1 $479 $480 $202 $327 forward $469 $-1 #
edge $-1 $481 -6.0944334815768073 $330 17.329029077650084 $326 $482 forward 7 unknown #
edge $-1 $331 -84.178001796219235 $481 -55.924200674106018 $203 $483 forward 7 unknown #
coedge $-1 $204 $473 $479 $484 reversed $319 $-1 #
vertex $-1 $484 $485 #
vertex $-1 $205 $486 #
straight-curve $-1 33.78870166143534 42.089000898109617 82.635226338042813 0 0 -1 I I #
coedge $-1 $333 $333 $-1 $487 reversed $208 $-1 #
edge $-1 $488 0 $488 6.2831853071796004 $209 $489 forward 7 unknown #
vertex $-1 $212 $490 #
ellipse-curve $-1 16.724462194310789 30.377269618496168 11.618474092113699 0 0.55919291073839883 0.82903756765294845 2.5 0 0 1 I I #
coedge $-1 $337 $337 $-1 $491 reversed $215 $-1 #
edge $-1 $492 0 $492 6.2831853071796004 $216 $493 forward 7 unknown #
vertex $-1 $219 $494 #
ellipse-curve $-1 26.963005874585519 30.377269618496168 11.618474092113699 0 0.55919291073839883 0.82903756765294845 2.5 0 0 1 I I #
face $-1 $-1 $235 $33 $-1 $495 reversed single #
loop $-1 $-1 $357 $220 #
plane-surface $-1 0 42.089000898109617 0 0 -1 0 0 0 -1 forward_v I I I I #
coedge $-1 $496 $355 $358 $497 forward $221 $-1 #
coedge $-1 $361 $223 $224 $349 reversed $138 $-1 #
coedge $-1 $355 $496 $223 $347 reversed $221 $-1 #
edge $-1 $362 -19.518136736562862 $498 19.518136736562862 $346 $499 forward 7 unknown #
coedge $-1 $225 $224 $496 $500 forward $89 $-1 #
edge $-1 $353 -69.043855098117007 $498 69.043855098117007 $345 $501 forward 7 unknown #
coedge $-1 $358 $357 $225 $351 reversed $342 $-1 #
edge $-1 $502 -69.043855098117007 $352 69.043855098117007 $350 $503 forward 7 unknown #
vertex $-1 $227 $504 #
vertex $-1 $364 $505 #
straight-curve $-1 69.043855098117007 0 -19.518136736562862 0 -1 0 I I #
coedge $-1 $344 $346 $228 $356 reversed $221 $-1 #
edge $-1 $359 -42.089000898109617 $362 42.089000898109617 $355 $506 forward 7 unknown #
coedge $-1 $350 $229 $234 $365 forward $342 $-1 #
coedge $-1 $229 $350 $344 $497 reversed $342 $-1 #
vertex $-1 $230 $507 #
straight-curve $-1 0 42.089000898109617 19.518136736562862 -1 0 0 I I #
coedge $-1 $231 $345 $233 $364 reversed $138 $-1 #
vertex $-1 $356 $508 #
straight-curve $-1 0 -42.089000898109617 19.518136736562862 1 0 0 I I #
edge $-1 $236 -19.518136736562862 $353 19.518136736562862 $233 $509 forward 7 unknown #
edge $-1 $237 -19.518136736562862 $352 19.518136736562862 $234 $510 forward 7 unknown #
point $-1 69.043855098117007 -42.089000898109617 19.518136736562862 #
point $-1 69.043855098117007 42.089000898109617 19.518136736562862 #
face $-1 $-1 $385 $34 $-1 $511 reversed single #
loop $-1 $-1 $512 $239 #
plane-surface $-1 -69.043855098117007 0 0 1 0 0 0 0 -1 forward_v I I I I #
coedge $-1 $372 $388 $243 $375 forward $240 $-1 #
coedge $-1 $250 $371 $242 $373 forward $240 $-1 #
edge $-1 $379 -4.9542587167012453 $253 3.3875452472311753 $372 $513 forward 7 unknown #
coedge $-1 $244 $243 $512 $514 reversed $93 $-1 #
edge $-1 $515 -39.536999220092667 $379 -19.476712535956022 $371 $516 forward 7 unknown #
coedge $-1 $384 $383 $244 $377 forward $385 $-1 #
edge $-1 $378 19.476712535956022 $517 39.536999220092667 $376 $518 forward 7 unknown #
vertex $-1 $377 $519 #
vertex $-1 $375 $520 #
straight-curve $-1 -48.983568413980365 0 -5.7376154514362803 0 -1 0 I I #
coedge $-1 $521 $522 $247 $382 forward $369 $-1 #
edge $-1 $389 -42.089000898109617 $386 42.089000898109617 $381 $523 forward 7 unknown #
coedge $-1 $376 $248 $252 $391 forward $385 $-1 #
coedge $-1 $248 $376 $521 $524 reversed $385 $-1 #
loop $-1 $-1 $376 $368 #
vertex $-1 $524 $525 #
straight-curve $-1 -29.506855878024343 42.089000898109617 2.6041885124961404 1 0 0 I I #
coedge $-1 $371 $250 $522 $526 forward $240 $-1 #
vertex $-1 $526 $527 #
straight-curve $-1 -29.506855878024343 -42.089000898109617 2.6041885124961404 -1 0 0 I I #
edge $-1 $254 -3.3875452472311753 $378 4.9542587167012453 $383 $528 forward 7 unknown #
point $-1 -48.983568413980365 -42.089000898109617 2.6041885124961404 #
point $-1 -48.983568413980365 42.089000898109617 2.6041885124961404 #
face $-1 $-1 $271 $35 $-1 $529 reversed single #
loop $-1 $-1 $265 $256 #
plane-surface $-1 0 42.089000898109617 0 0 -1 0 0 0 -1 forward_v I I I I #
coedge $-1 $530 $259 $401 $531 reversed $154 $-1 #
coedge $-1 $259 $530 $264 $409 reversed $154 $-1 #
coedge $-1 $265 $404 $259 $400 forward $395 $-1 #
edge $-1 $532 -4.9542587167012453 $411 3.3875452472311753 $399 $533 forward 7 unknown #
coedge $-1 $261 $260 $397 $531 forward $97 $-1 #
coedge $-1 $414 $413 $260 $403 forward $257 $-1 #
edge $-1 $534 19.476712535956018 $406 39.536999220092667 $402 $535 forward 7 unknown #
coedge $-1 $399 $410 $261 $405 forward $395 $-1 #
edge $-1 $407 -39.536999220092667 $532 -19.476712535956018 $404 $536 forward 7 unknown #
vertex $-1 $263 $537 #
vertex $-1 $263 $538 #
straight-curve $-1 69.043855098117007 0 -5.7376154514362803 0 1 0 I I #
edge $-1 $411 -42.089000898109617 $415 42.089000898109617 $398 $539 forward 7 unknown #
coedge $-1 $404 $265 $270 $418 forward $395 $-1 #
vertex $-1 $266 $540 #
straight-curve $-1 29.506855878024339 42.089000898109617 2.6041885124961404 1 0 0 I I #
coedge $-1 $402 $267 $530 $541 forward $257 $-1 #
coedge $-1 $267 $402 $269 $417 reversed $257 $-1 #
vertex $-1 $268 $542 #
straight-curve $-1 29.506855878024339 -42.089000898109617 2.6041885124961404 -1 0 0 I I #
edge $-1 $273 -2.6041885124961404 $406 5.7376154514362803 $269 $543 forward 7 unknown #
edge $-1 $272 -2.6041885124961404 $407 5.7376154514362803 $270 $544 forward 7 unknown #
point $-1 69.043855098117007 42.089000898109617 2.6041885124961404 #
point $-1 69.043855098117007 -42.089000898109617 2.6041885124961404 #
plane-surface $-1 0 -42.089000898109617 0 0 1 0 0 0 1 forward_v I I I I #
coedge $-1 $432 $431 $424 $545 forward $276 $-1 #
coedge $-1 $424 $278 $280 $428 reversed $162 $-1 #
coedge $-1 $278 $423 $422 $545 reversed $162 $-1 #
coedge $-1 $286 $281 $278 $426 forward $287 $-1 #
edge $-1 $429 -44.373896098741781 $546 -32.031749731909812 $425 $547 forward 7 unknown #
coedge $-1 $280 $279 $432 $548 reversed $101 $-1 #
edge $-1 $549 -17.157602317654977 $429 0 $423 $550 forward 7 unknown #
vertex $-1 $282 $551 #
straight-curve $-1 17.385526692078301 -42.089000898109617 7.1759903697308953 1 0 0 I I #
coedge $-1 $422 $283 $286 $436 forward $276 $-1 #
coedge $-1 $283 $422 $427 $548 forward $276 $-1 #
vertex $-1 $284 $552 #
straight-curve $-1 20.558538354332832 -70.710493958791616 19.518136736562866 0 -1 0 I I #
straight-curve $-1 20.558538354332832 -42.089000898109617 7.1759903697308971 0 0.69465836192734942 0.71933980857756763 I I #
edge $-1 $288 20.558538354332832 $546 48.983568413980372 $286 $553 forward 7 unknown #
point $-1 20.558538354332832 -42.089000898109617 19.518136736562862 #
point $-1 20.558538354332832 -42.089000898109617 7.1759903697308971 #
edge $-1 $554 1 $554 0 $291 $-1 forward 7 unknown #
vertex $-1 $292 $555 #
ellipse-curve $-1 34.771053384156602 -27.690028799937181 5.1970018647827834 0 -0.71933980857756763 0.69465836192734942 3 0 0 1 I I #
point $-1 37.771053384156602 -36.129664937818063 13.34706355314688 #
loop $-1 $-1 $303 $295 #
plane-surface $-1 0 0 19.518136736562862 0 0 1 1 0 0 forward_v I I I I #
coedge $-1 $446 $298 $300 $450 reversed $177 $-1 #
coedge $-1 $298 $445 $556 $557 reversed $177 $-1 #
coedge $-1 $306 $301 $298 $448 forward $296 $-1 #
edge $-1 $451 -78.916414890378277 $558 -63.117089601479947 $447 $559 forward 7 unknown #
coedge $-1 $300 $299 $454 $560 reversed $110 $-1 #
edge $-1 $561 55.924200674106018 $451 84.178001796219235 $445 $562 forward 7 unknown #
vertex $-1 $302 $563 #
straight-curve $-1 -10.921867017224081 42.089000898109617 3.7188114476645318 -1 0 0 I I #
coedge $-1 $556 $303 $306 $458 forward $443 $-1 #
coedge $-1 $303 $556 $449 $560 forward $443 $-1 #
vertex $-1 $304 $564 #
straight-curve $-1 -9.8987664074609683 24.759971820459533 19.518136736562866 0 1 0 I I #
straight-curve $-1 -9.8987664074609683 -27.697724960913504 50.790553292234534 0 -0.82903756765294845 0.55919291073839883 I I #
edge $-1 $307 9.8987664074609683 $558 33.788701661435354 $306 $565 forward 7 unknown #
point $-1 -9.8987664074609683 42.089000898109617 19.518136736562862 #
point $-1 -9.8987664074609683 42.089000898109617 3.7188114476645353 #
edge $-1 $566 1 $566 0 $310 $-1 forward 7 unknown #
vertex $-1 $311 $567 #
ellipse-curve $-1 -26.963005874585527 27.195192829767208 6.9008513355424927 0 0.55919291073839883 0.82903756765294845 2.5 0 0 1 I I #
point $-1 -24.463005874585527 30.377269618496172 11.618474092113702 #
edge $-1 $568 1 $568 0 $314 $-1 forward 7 unknown #
vertex $-1 $315 $569 #
ellipse-curve $-1 -16.724462194310789 27.195192829767208 6.9008513355424927 0 0.55919291073839883 0.82903756765294845 2.5 0 0 1 I I #
point $-1 -14.224462194310789 30.377269618496172 11.618474092113702 #
loop $-1 $-1 $326 $318 #
plane-surface $-1 0 0 19.518136736562862 0 0 1 1 0 0 forward_v I I I I #
coedge $-1 $472 $321 $323 $476 reversed $199 $-1 #
coedge $-1 $321 $471 $570 $571 reversed $199 $-1 #
coedge $-1 $329 $324 $321 $474 forward $319 $-1 #
edge $-1 $477 -78.916414890378277 $572 -63.117089601479947 $473 $573 forward 7 unknown #
coedge $-1 $323 $322 $480 $574 reversed $124 $-1 #
edge $-1 $575 55.924200674106018 $477 84.178001796219235 $471 $576 forward 7 unknown #
vertex $-1 $325 $577 #
straight-curve $-1 10.921867017224073 42.089000898109617 3.7188114476645318 -1 0 0 I I #
coedge $-1 $570 $326 $329 $484 forward $469 $-1 #
coedge $-1 $326 $570 $475 $574 forward $469 $-1 #
vertex $-1 $327 $578 #
straight-curve $-1 33.78870166143534 24.759971820459533 19.518136736562866 0 1 0 I I #
straight-curve $-1 33.78870166143534 -27.697724960913504 50.790553292234534 0 -0.82903756765294845 0.55919291073839883 I I #
edge $-1 $330 -33.78870166143534 $572 -9.898766407460954 $329 $579 forward 7 unknown #
point $-1 33.78870166143534 42.089000898109617 19.518136736562862 #
point $-1 33.78870166143534 42.089000898109617 3.7188114476645353 #
edge $-1 $580 1 $580 0 $333 $-1 forward 7 unknown #
vertex $-1 $334 $581 #
ellipse-curve $-1 16.724462194310789 27.195192829767208 6.9008513355424927 0 0.55919291073839883 0.82903756765294845 2.5 0 0 1 I I #
point $-1 19.224462194310789 30.377269618496172 11.618474092113702 #
edge $-1 $582 1 $582 0 $337 $-1 forward 7 unknown #
vertex $-1 $338 $583 #
ellipse-curve $-1 26.963005874585519 27.195192829767208 6.9008513355424927 0 0.55919291073839883 0.82903756765294845 2.5 0 0 1 I I #
point $-1 29.463005874585519 30.377269618496172 11.618474092113702 #
plane-surface $-1 69.043855098117007 0 0 -1 0 0 0 0 1 forward_v I I I I #
coedge $-1 $346 $344 $348 $500 reversed $221 $-1 #
edge $-1 $359 -19.518136736562862 $502 19.518136736562862 $358 $584 forward 7 unknown #
vertex $-1 $500 $585 #
straight-curve $-1 -69.043855098117007 -42.089000898109617 0 0 0 -1 I I #
edge $-1 $498 -42.089000898109617 $502 42.089000898109617 $496 $586 forward 7 unknown #
straight-curve $-1 0 -42.089000898109617 -19.518136736562862 -1 0 0 I I #
vertex $-1 $351 $587 #
straight-curve $-1 0 42.089000898109617 -19.518136736562862 1 0 0 I I #
point $-1 69.043855098117007 42.089000898109617 -19.518136736562862 #
point $-1 69.043855098117007 -42.089000898109617 -19.518136736562862 #
straight-curve $-1 -69.043855098117007 0 19.518136736562862 0 -1 0 I I #
point $-1 -69.043855098117007 42.089000898109617 19.518136736562862 #
point $-1 -69.043855098117007 -42.089000898109617 19.518136736562862 #
straight-curve $-1 69.043855098117007 -42.089000898109617 0 0 0 -1 I I #
straight-curve $-1 69.043855098117007 42.089000898109617 0 0 0 -1 I I #
plane-surface $-1 0 42.089000898109617 0 0 -1 0 0 0 -1 forward_v I I I I #
coedge $-1 $522 $521 $374 $514 forward $369 $-1 #
straight-curve $-1 -48.983568413980365 -42.089000898109617 -0.78335673473503498 0 0 1 I I #
edge $-1 $517 -42.089000898109617 $515 42.089000898109617 $512 $588 forward 7 unknown #
vertex $-1 $375 $589 #
straight-curve $-1 -29.506855878024343 -42.089000898109617 -5.7376154514362803 1 0 0 I I #
vertex $-1 $377 $590 #
straight-curve $-1 -29.506855878024343 42.089000898109617 -5.7376154514362803 -1 0 0 I I #
point $-1 -48.983568413980365 42.089000898109617 -5.7376154514362803 #
point $-1 -48.983568413980365 -42.089000898109617 -5.7376154514362803 #
coedge $-1 $512 $381 $384 $524 forward $369 $-1 #
coedge $-1 $381 $512 $388 $526 reversed $369 $-1 #
straight-curve $-1 -69.043855098117007 0 2.6041885124961404 0 1 0 I I #
edge $-1 $386 -2.6041885124961404 $517 5.7376154514362803 $384 $591 forward 7 unknown #
point $-1 -69.043855098117007 42.089000898109617 2.6041885124961404 #
edge $-1 $389 -2.6041885124961404 $515 5.7376154514362803 $522 $592 forward 7 unknown #
point $-1 -69.043855098117007 -42.089000898109617 2.6041885124961404 #
straight-curve $-1 -48.983568413980365 42.089000898109617 -0.78335673473503498 0 0 -1 I I #
plane-surface $-1 69.043855098117007 0 0 -1 0 0 0 0 1 forward_v I I I I #
coedge $-1 $398 $397 $413 $541 reversed $154 $-1 #
edge $-1 $534 -42.089000898109617 $532 42.089000898109617 $397 $593 forward 7 unknown #
vertex $-1 $405 $594 #
straight-curve $-1 48.983568413980358 42.089000898109617 -0.78335673473503498 0 0 1 I I #
vertex $-1 $403 $595 #
straight-curve $-1 29.506855878024339 -42.089000898109617 -5.7376154514362803 1 0 0 I I #
straight-curve $-1 29.506855878024339 42.089000898109617 -5.7376154514362803 -1 0 0 I I #
point $-1 69.043855098117007 -42.089000898109617 -5.7376154514362803 #
point $-1 69.043855098117007 42.089000898109617 -5.7376154514362803 #
straight-curve $-1 48.983568413980358 0 2.6041885124961404 0 -1 0 I I #
point $-1 48.983568413980358 42.089000898109617 2.6041885124961404 #
edge $-1 $415 -3.3875452472311753 $534 4.9542587167012453 $413 $596 forward 7 unknown #
point $-1 48.983568413980358 -42.089000898109617 2.6041885124961404 #
straight-curve $-1 69.043855098117007 -42.089000898109617 0 0 0 -1 I I #
straight-curve $-1 69.043855098117007 42.089000898109617 0 0 0 -1 I I #
edge $-1 $546 28.621493060681999 $549 40.5401649812651 $422 $597 forward 7 unknown #
vertex $-1 $545 $598 #
straight-curve $-1 48.983568413980372 -42.089000898109617 51.549886468472678 0 0 1 I I #
edge $-1 $549 -31.598041721902071 $433 -3.173011662254531 $432 $599 forward 7 unknown #
vertex $-1 $548 $600 #
straight-curve $-1 48.983568413980372 -42.089000898109617 7.1759903697308971 0 -0.69465836192734942 -0.71933980857756763 I I #
point $-1 48.983568413980372 -42.089000898109617 7.1759903697308971 #
point $-1 20.558538354332832 -30.170328977526516 19.518136736562859 #
straight-curve $-1 0 -42.089000898109617 19.518136736562862 1 0 0 I I #
vertex $-1 $439 $601 #
point $-1 37.771053384156602 -27.690028799937181 5.1970018647827834 #
coedge $-1 $454 $453 $446 $557 forward $443 $-1 #
edge $-1 $558 -17.329029077650084 $561 6.0944334815768073 $556 $602 forward 7 unknown #
vertex $-1 $557 $603 #
straight-curve $-1 -33.788701661435354 42.089000898109617 82.635226338042813 0 0 1 I I #
edge $-1 $561 -22.866834644211274 $455 1.0231006097631123 $454 $604 forward 7 unknown #
vertex $-1 $560 $605 #
straight-curve $-1 -33.788701661435354 -27.697724960913504 50.790553292234534 0 0.82903756765294845 -0.55919291073839883 I I #
point $-1 -33.788701661435354 42.089000898109617 3.7188114476645353 #
point $-1 -9.8987664074609683 18.665538338882726 19.518136736562866 #
straight-curve $-1 0 42.089000898109617 19.518136736562862 -1 0 0 I I #
vertex $-1 $461 $606 #
point $-1 -24.463005874585527 27.195192829767208 6.9008513355424927 #
vertex $-1 $465 $607 #
point $-1 -14.224462194310789 27.195192829767208 6.9008513355424927 #
coedge $-1 $480 $479 $472 $571 forward $469 $-1 #
edge $-1 $572 -17.329029077650084 $575 6.0944334815768073 $570 $608 forward 7 unknown #
vertex $-1 $571 $609 #
straight-curve $-1 9.898766407460954 42.089000898109617 82.635226338042813 0 0 1 I I #
edge $-1 $575 -1.0231006097631195 $481 22.866834644211266 $480 $610 forward 7 unknown #
vertex $-1 $574 $611 #
straight-curve $-1 9.898766407460954 -27.697724960913504 50.790553292234534 0 0.82903756765294845 -0.55919291073839883 I I #
point $-1 9.898766407460954 42.089000898109617 3.7188114476645353 #
point $-1 33.78870166143534 18.665538338882726 19.518136736562866 #
straight-curve $-1 0 42.089000898109617 19.518136736562862 -1 0 0 I I #
vertex $-1 $487 $612 #
point $-1 19.224462194310789 27.195192829767208 6.9008513355424927 #
vertex $-1 $491 $613 #
point $-1 29.463005874585519 27.195192829767208 6.9008513355424927 #
straight-curve $-1 -69.043855098117007 42.089000898109617 0 0 0 -1 I I #
point $-1 -69.043855098117007 -42.089000898109617 -19.518136736562862 #
straight-curve $-1 -69.043855098117007 0 -19.518136736562862 0 1 0 I I #
point $-1 -69.043855098117007 42.089000898109617 -19.518136736562862 #
straight-curve $-1 -69.043855098117007 0 -5.7376154514362803 0 -1 0 I I #
point $-1 -69.043855098117007 -42.089000898109617 -5.7376154514362803 #
point $-1 -69.043855098117007 42.089000898109617 -5.7376154514362803 #
straight-curve $-1 -69.043855098117007 42.089000898109617 0 0 0 -1 I I #
straight-curve $-1 -69.043855098117007 -42.089000898109617 0 0 0 -1 I I #
straight-curve $-1 48.983568413980358 0 -5.7376154514362803 0 1 0 I I #
point $-1 48.983568413980358 42.089000898109617 -5.7376154514362803 #
point $-1 48.983568413980358 -42.089000898109617 -5.7376154514362803 #
straight-curve $-1 48.983568413980358 -42.089000898109617 -0.78335673473503498 0 0 -1 I I #
straight-curve $-1 48.983568413980372 -70.710493958791616 19.518136736562866 0 1 0 I I #
point $-1 48.983568413980372 -42.089000898109617 19.518136736562862 #
straight-curve $-1 17.385526692078301 -30.170328977526513 19.518136736562862 -1 0 0 I I #
point $-1 48.983568413980372 -30.170328977526516 19.518136736562859 #
point $-1 34.771053384156602 -25.532009374204478 3.1130267790007347 #
straight-curve $-1 -33.788701661435354 24.759971820459533 19.518136736562866 0 -1 0 I I #
point $-1 -33.788701661435354 42.089000898109617 19.518136736562862 #
straight-curve $-1 -10.921867017224081 18.665538338882744 19.518136736562862 1 0 0 I I #
point $-1 -33.788701661435354 18.665538338882726 19.518136736562866 #
point $-1 -26.963005874585527 25.797210552921214 4.8282574164101231 #
point $-1 -16.724462194310789 25.797210552921214 4.8282574164101231 #
straight-curve $-1 9.898766407460954 24.759971820459533 19.518136736562866 0 -1 0 I I #
point $-1 9.898766407460954 42.089000898109617 19.518136736562862 #
straight-curve $-1 10.921867017224073 18.665538338882744 19.518136736562862 1 0 0 I I #
point $-1 9.898766407460954 18.665538338882726 19.518136736562866 #
point $-1 16.724462194310789 25.797210552921214 4.8282574164101231 #
point $-1 26.963005874585519 25.797210552921214 4.8282574164101231 #
End-of-ACIS-data 