500 0 11 0           
7 Unknown 11 ACIS 5.0 NT 24 Fri Mar 26 02:37:13 1999 
-1 9.9999999999999995e-007 1e-010 
body $-1 $11 $-1 $12 #
body $-1 $13 $-1 $14 #
body $-1 $15 $-1 $16 #
body $-1 $17 $-1 $18 #
body $-1 $19 $-1 $20 #
body $-1 $21 $-1 $22 #
body $-1 $23 $-1 $24 #
body $-1 $25 $-1 $26 #
body $-1 $27 $-1 $28 #
body $-1 $29 $-1 $30 #
body $-1 $31 $-1 $32 #
lump $-1 $-1 $33 $0 #
transform $-1 1 0 0 0 1 0 0 0 1 55.352031006805632 34.889330961093805 10.5861600476512 1 rotate no_reflect no_shear #
lump $-1 $-1 $34 $1 #
transform $-1 1 0 0 0 1 0 0 0 1 55.352031006805632 34.889330961093805 10.5861600476512 1 rotate no_reflect no_shear #
lump $-1 $-1 $35 $2 #
transform $-1 1 0 0 0 1 0 0 0 1 55.352031006805632 34.889330961093805 10.5861600476512 1 rotate no_reflect no_shear #
lump $-1 $-1 $36 $3 #
transform $-1 1 0 0 0 1 0 0 0 1 55.352031006805632 34.889330961093805 10.5861600476512 1 rotate no_reflect no_shear #
lump $-1 $-1 $37 $4 #
transform $-1 1 0 0 0 1 0 0 0 1 55.352031006805632 34.889330961093805 10.5861600476512 1 rotate no_reflect no_shear #
lump $-1 $-1 $38 $5 #
transform $-1 1 0 0 0 1 0 0 0 1 55.352031006805632 34.889330961093805 10.5861600476512 1 rotate no_reflect no_shear #
lump $-1 $-1 $39 $6 #
transform $-1 1 0 0 0 1 0 0 0 1 55.352031006805632 34.889330961093805 10.5861600476512 1 rotate no_reflect no_shear #
lump $-1 $-1 $40 $7 #
transform $-1 1 0 0 0 1 0 0 0 1 55.352031006805632 34.889330961093805 10.5861600476512 1 rotate no_reflect no_shear #
lump $-1 $-1 $41 $8 #
transform $-1 1 0 0 0 1 0 0 0 1 55.352031006805632 34.889330961093805 10.5861600476512 1 rotate no_reflect no_shear #
lump $-1 $-1 $42 $9 #
transform $-1 1 0 0 0 1 0 0 0 1 55.352031006805632 34.889330961093805 10.5861600476512 1 rotate no_reflect no_shear #
lump $-1 $-1 $43 $10 #
transform $-1 1 0 0 0 1 0 0 0 1 55.352031006805632 34.889330961093805 10.5861600476512 1 rotate no_reflect no_shear #
shell $-1 $-1 $-1 $44 $-1 $11 #
shell $-1 $-1 $-1 $45 $-1 $13 #
shell $-1 $-1 $-1 $46 $-1 $15 #
shell $-1 $-1 $-1 $47 $-1 $17 #
shell $-1 $-1 $-1 $48 $-1 $19 #
shell $-1 $-1 $-1 $49 $-1 $21 #
shell $-1 $-1 $-1 $50 $-1 $23 #
shell $-1 $-1 $-1 $51 $-1 $25 #
shell $-1 $-1 $-1 $52 $-1 $27 #
shell $-1 $-1 $-1 $53 $-1 $29 #
shell $-1 $-1 $-1 $54 $-1 $31 #
face $-1 $55 $56 $33 $-1 $57 forward single #
face $-1 $58 $59 $34 $-1 $60 forward single #
face $-1 $61 $62 $35 $-1 $63 forward single #
face $-1 $64 $65 $36 $-1 $66 reversed single #
face $-1 $67 $68 $37 $-1 $69 forward single #
face $-1 $70 $71 $38 $-1 $72 forward single #
face $-1 $73 $74 $39 $-1 $75 forward single #
face $-1 $76 $77 $40 $-1 $78 reversed single #
face $-1 $79 $80 $41 $-1 $81 forward single #
face $-1 $82 $83 $42 $-1 $84 forward single #
face $-1 $85 $86 $43 $-1 $87 forward single #
face $-1 $88 $89 $33 $-1 $90 reversed single #
loop $-1 $-1 $91 $44 #
plane-surface $-1 0 0 10.5861600476512 0 0 1 1 0 0 forward_v I I I I #
face $-1 $92 $93 $34 $-1 $94 reversed single #
loop $-1 $-1 $95 $45 #
plane-surface $-1 -48.767954436844796 0 2.2632545775167312 0 0 1 1 0 0 forward_v I I I I #
face $-1 $96 $97 $35 $-1 $98 reversed single #
loop $-1 $-1 $99 $46 #
plane-surface $-1 49.211256956080135 0 -0.28994607707719444 0 0 1 1 0 0 forward_v I I I I #
face $-1 $100 $101 $36 $-1 $102 reversed single #
loop $-1 $-1 $103 $47 #
plane-surface $-1 -42.183877866883961 -128.77170086580787 61.017134141392226 1 0 0 0 0.84804810408105047 -0.52991925155115449 forward_v I I I I #
face $-1 $104 $105 $37 $-1 $106 forward single #
loop $-1 $107 $108 $48 #
cone-surface $-1 -37.437660641214777 -31.761972879098415 6.1227323841958157 0 0.84804810408105047 -0.52991925155115449 1 0 0 1 I I 0 1 1 forward I I I I #
face $-1 $109 $110 $38 $-1 $111 forward single #
loop $-1 $112 $113 $49 #
cone-surface $-1 -30.318334802711 -31.761972879098415 6.1227323841958157 0 0.84804810408105047 -0.52991925155115449 1 0 0 1 I I 0 1 1 forward I I I I #
face $-1 $114 $115 $39 $-1 $116 forward single #
loop $-1 $117 $118 $50 #
cone-surface $-1 -23.199008964207223 -31.761972879098415 6.1227323841958157 0 0.84804810408105047 -0.52991925155115449 1 0 0 1 I I 0 1 1 forward I I I I #
face $-1 $119 $120 $40 $-1 $121 reversed single #
loop $-1 $-1 $122 $51 #
plane-surface $-1 8.9378595321011609 89.729388176147893 119.98793442025452 -1 0 0 0 0.83867057594974714 0.54463902268945019 forward_v I I I I #
face $-1 $123 $124 $41 $-1 $125 forward single #
loop $-1 $126 $127 $52 #
cone-surface $-1 -2.5990976614725483 30.83020699334298 5.2284239956088108 0 -0.83867057594974714 -0.54463902268945019 1 0 0 1 I I 0 1 1 forward I I I I #
face $-1 $128 $129 $42 $-1 $130 forward single #
loop $-1 $131 $132 $53 #
cone-surface $-1 1.7272612861175887 30.83020699334298 5.2284239956088108 0 -0.83867057594974714 -0.54463902268945019 1 0 0 1 I I 0 1 1 forward I I I I #
face $-1 $133 $134 $43 $-1 $135 forward single #
loop $-1 $136 $137 $54 #
cone-surface $-1 6.0536202337077256 30.83020699334298 5.2284239956088108 0 -0.83867057594974714 -0.54463902268945019 1 0 0 1 I I 0 1 1 forward I I I I #
face $-1 $138 $139 $33 $-1 $140 reversed single #
loop $-1 $-1 $141 $55 #
plane-surface $-1 0 0 -10.5861600476512 0 0 1 1 0 0 forward_v I I I I #
coedge $-1 $142 $143 $144 $145 forward $56 $-1 #
face $-1 $146 $147 $34 $-1 $148 reversed single #
loop $-1 $-1 $149 $58 #
plane-surface $-1 -48.767954436844796 0 -3.263569359223558 0 0 1 1 0 0 forward_v I I I I #
coedge $-1 $150 $151 $152 $153 forward $59 $-1 #
face $-1 $154 $155 $35 $-1 $156 reversed single #
loop $-1 $-1 $157 $61 #
plane-surface $-1 49.211256956080135 0 -3.2899460770771953 0 0 1 1 0 0 forward_v I I I I #
coedge $-1 $158 $159 $160 $161 reversed $62 $-1 #
face $-1 $162 $163 $36 $-1 $164 reversed single #
loop $-1 $-1 $165 $64 #
plane-surface $-1 -30.318334802711 -34.889330961093805 2.3529204554667515 0 -0.84804810408105047 0.52991925155115449 1 0 0 forward_v I I I I #
coedge $-1 $166 $167 $168 $169 reversed $65 $-1 #
face $-1 $-1 $170 $37 $-1 $171 forward single #
loop $-1 $172 $173 $67 #
cone-surface $-1 -37.437660641214777 -30.78294020350474 5.5109648910570765 0 0.84804810408105047 -0.52991925155115449 0.5 0 0 1 I I -0.70710678118654746 0.70710678118654746 0.5 forward I I I I #
loop $-1 $-1 $174 $48 #
coedge $-1 $108 $108 $175 $176 reversed $68 $-1 #
face $-1 $-1 $177 $38 $-1 $178 forward single #
loop $-1 $179 $180 $70 #
cone-surface $-1 -30.318334802711 -30.78294020350474 5.5109648910570765 0 0.84804810408105047 -0.52991925155115449 0.5 0 0 1 I I -0.70710678118654746 0.70710678118654746 0.5 forward I I I I #
loop $-1 $-1 $181 $49 #
coedge $-1 $113 $113 $182 $183 reversed $71 $-1 #
face $-1 $-1 $184 $39 $-1 $185 forward single #
loop $-1 $186 $187 $73 #
cone-surface $-1 -23.199008964207223 -30.78294020350474 5.5109648910570765 0 0.84804810408105047 -0.52991925155115449 0.5 0 0 1 I I -0.70710678118654746 0.70710678118654746 0.5 forward I I I I #
loop $-1 $-1 $188 $50 #
coedge $-1 $118 $118 $189 $190 reversed $74 $-1 #
face $-1 $191 $192 $40 $-1 $193 reversed single #
loop $-1 $-1 $194 $76 #
plane-surface $-1 1.7272612861175958 -3.1148512727839943 59.694182277408991 0 0.83867057594974714 0.54463902268945019 1 0 0 forward_v I I I I #
coedge $-1 $195 $196 $197 $198 reversed $77 $-1 #
face $-1 $-1 $199 $41 $-1 $200 forward single #
loop $-1 $201 $202 $79 #
cone-surface $-1 -2.5990976614725483 29.408278106142802 4.3050126089846952 0 -0.83867057594974714 -0.54463902268945019 0.5 0 0 1 I I -0.70710678118654746 0.70710678118654746 0.5 forward I I I I #
loop $-1 $-1 $203 $52 #
coedge $-1 $127 $127 $204 $205 reversed $80 $-1 #
face $-1 $-1 $206 $42 $-1 $207 forward single #
loop $-1 $208 $209 $82 #
cone-surface $-1 1.7272612861175887 29.408278106142802 4.3050126089846952 0 -0.83867057594974714 -0.54463902268945019 0.5 0 0 1 I I -0.70710678118654746 0.70710678118654746 0.5 forward I I I I #
loop $-1 $-1 $210 $53 #
coedge $-1 $132 $132 $211 $212 reversed $83 $-1 #
face $-1 $-1 $213 $43 $-1 $214 forward single #
loop $-1 $215 $216 $85 #
cone-surface $-1 6.0536202337077256 29.408278106142802 4.3050126089846952 0 -0.83867057594974714 -0.54463902268945019 0.5 0 0 1 I I -0.70710678118654746 0.70710678118654746 0.5 forward I I I I #
loop $-1 $-1 $217 $54 #
coedge $-1 $137 $137 $218 $219 reversed $86 $-1 #
face $-1 $220 $221 $33 $-1 $222 reversed single #
loop $-1 $-1 $223 $88 #
plane-surface $-1 0 -34.889330961093805 0 0 1 0 0 0 1 forward_v I I I I #
coedge $-1 $224 $225 $226 $227 forward $89 $-1 #
coedge $-1 $228 $91 $229 $230 forward $56 $-1 #
coedge $-1 $91 $228 $231 $232 forward $56 $-1 #
coedge $-1 $233 $234 $91 $145 reversed $235 $-1 #
edge $-1 $236 -34.889330961093805 $237 34.889330961093805 $144 $238 forward 7 unknown #
face $-1 $239 $240 $34 $-1 $241 reversed single #
loop $-1 $-1 $242 $92 #
plane-surface $-1 -42.183877866883961 0 -0.50015739085341337 -1 0 0 0 0 1 forward_v I I I I #
coedge $-1 $243 $244 $245 $246 forward $93 $-1 #
coedge $-1 $247 $95 $248 $249 reversed $59 $-1 #
coedge $-1 $95 $247 $250 $251 reversed $59 $-1 #
coedge $-1 $242 $252 $95 $153 reversed $147 $-1 #
edge $-1 $253 -34.889330961093805 $254 34.889330961093805 $152 $255 forward 7 unknown #
face $-1 $256 $257 $35 $-1 $258 reversed single #
loop $-1 $-1 $259 $96 #
plane-surface $-1 43.070482905354631 0 -1.7899460770771949 1 0 0 0 0 -1 forward_v I I I I #
coedge $-1 $260 $261 $262 $263 reversed $97 $-1 #
coedge $-1 $264 $99 $265 $266 reversed $62 $-1 #
coedge $-1 $99 $264 $267 $268 reversed $62 $-1 #
coedge $-1 $269 $270 $99 $161 forward $271 $-1 #
edge $-1 $272 -34.889330961093805 $273 34.889330961093805 $160 $274 forward 7 unknown #
face $-1 $275 $276 $36 $-1 $277 forward single #
loop $-1 $-1 $278 $100 #
plane-surface $-1 -18.452791738538039 -128.77170086580787 61.017134141392226 -1 0 0 0 -0.84804810408105047 0.52991925155115449 forward_v I I I I #
coedge $-1 $279 $280 $281 $282 reversed $101 $-1 #
coedge $-1 $167 $103 $283 $284 reversed $65 $-1 #
coedge $-1 $103 $166 $279 $285 reversed $65 $-1 #
coedge $-1 $281 $286 $103 $169 forward $287 $-1 #
edge $-1 $288 19.922407023044912 $289 28.155646615229362 $168 $290 forward 7 unknown #
loop $-1 $-1 $175 $104 #
plane-surface $-1 -30.318334802711 -34.889330961093805 2.3529204554667515 0 -0.84804810408105047 0.52991925155115449 1 0 0 forward_v I I I I #
loop $-1 $-1 $291 $67 #
coedge $-1 $173 $173 $174 $292 reversed $105 $-1 #
coedge $-1 $174 $174 $173 $292 forward $107 $-1 #
coedge $-1 $175 $175 $108 $176 forward $170 $-1 #
edge $-1 $293 0 $293 6.2831853071796004 $175 $294 forward 7 unknown #
loop $-1 $-1 $182 $109 #
plane-surface $-1 -30.318334802711 -34.889330961093805 2.3529204554667515 0 -0.84804810408105047 0.52991925155115449 1 0 0 forward_v I I I I #
loop $-1 $-1 $295 $70 #
coedge $-1 $180 $180 $181 $296 reversed $110 $-1 #
coedge $-1 $181 $181 $180 $296 forward $112 $-1 #
coedge $-1 $182 $182 $113 $183 forward $177 $-1 #
edge $-1 $297 0 $297 6.2831853071796004 $182 $298 forward 7 unknown #
loop $-1 $-1 $189 $114 #
plane-surface $-1 -30.318334802711 -34.889330961093805 2.3529204554667515 0 -0.84804810408105047 0.52991925155115449 1 0 0 forward_v I I I I #
loop $-1 $-1 $299 $73 #
coedge $-1 $187 $187 $188 $300 reversed $115 $-1 #
coedge $-1 $188 $188 $187 $300 forward $117 $-1 #
coedge $-1 $189 $189 $118 $190 forward $184 $-1 #
edge $-1 $301 0 $301 6.2831853071796004 $189 $302 forward 7 unknown #
face $-1 $303 $304 $40 $-1 $305 reversed single #
loop $-1 $-1 $306 $119 #
plane-surface $-1 -5.4833369598659694 89.729388176147893 119.98793442025452 1 0 0 0 -0.83867057594974714 -0.54463902268945019 forward_v I I I I #
coedge $-1 $307 $308 $309 $310 reversed $120 $-1 #
coedge $-1 $196 $122 $311 $312 reversed $77 $-1 #
coedge $-1 $122 $195 $307 $313 reversed $77 $-1 #
coedge $-1 $309 $314 $122 $198 forward $304 $-1 #
edge $-1 $315 49.407807162476061 $316 58.821095516002018 $197 $317 forward 7 unknown #
loop $-1 $-1 $204 $123 #
plane-surface $-1 1.7272612861175958 -3.1148512727839943 59.694182277408991 0 0.83867057594974714 0.54463902268945019 1 0 0 forward_v I I I I #
loop $-1 $-1 $318 $79 #
coedge $-1 $202 $202 $203 $319 reversed $124 $-1 #
coedge $-1 $203 $203 $202 $319 forward $126 $-1 #
coedge $-1 $204 $204 $127 $205 forward $199 $-1 #
edge $-1 $320 -1.0357840625050222e-015 $320 6.2831853071795996 $204 $321 forward 7 unknown #
loop $-1 $-1 $211 $128 #
plane-surface $-1 1.7272612861175958 -3.1148512727839943 59.694182277408991 0 0.83867057594974714 0.54463902268945019 1 0 0 forward_v I I I I #
loop $-1 $-1 $322 $82 #
coedge $-1 $209 $209 $210 $323 reversed $129 $-1 #
coedge $-1 $210 $210 $209 $323 forward $131 $-1 #
coedge $-1 $211 $211 $132 $212 forward $206 $-1 #
edge $-1 $324 -1.0357840625050222e-015 $324 6.2831853071795996 $211 $325 forward 7 unknown #
loop $-1 $-1 $218 $133 #
plane-surface $-1 1.7272612861175958 -3.1148512727839943 59.694182277408991 0 0.83867057594974714 0.54463902268945019 1 0 0 forward_v I I I I #
loop $-1 $-1 $326 $85 #
coedge $-1 $216 $216 $217 $327 reversed $134 $-1 #
coedge $-1 $217 $217 $216 $327 forward $136 $-1 #
coedge $-1 $218 $218 $137 $219 forward $213 $-1 #
edge $-1 $328 -1.0357840625050222e-015 $328 6.2831853071795996 $218 $329 forward 7 unknown #
face $-1 $330 $331 $33 $-1 $332 reversed single #
loop $-1 $-1 $333 $138 #
plane-surface $-1 -55.352031006805632 0 0 1 0 0 0 0 -1 forward_v I I I I #
coedge $-1 $334 $231 $335 $336 forward $139 $-1 #
coedge $-1 $337 $141 $334 $338 forward $89 $-1 #
coedge $-1 $141 $337 $339 $340 forward $89 $-1 #
coedge $-1 $234 $233 $141 $227 reversed $235 $-1 #
edge $-1 $341 -34.889330961093805 $342 34.889330961093805 $226 $343 forward 7 unknown #
coedge $-1 $143 $142 $344 $345 forward $56 $-1 #
coedge $-1 $346 $347 $142 $230 reversed $331 $-1 #
edge $-1 $237 -55.352031006805632 $348 55.352031006805632 $229 $349 forward 7 unknown #
coedge $-1 $223 $350 $143 $232 reversed $139 $-1 #
edge $-1 $351 -55.352031006805632 $236 55.352031006805632 $231 $352 forward 7 unknown #
coedge $-1 $226 $144 $350 $353 forward $235 $-1 #
coedge $-1 $144 $226 $346 $354 reversed $235 $-1 #
loop $-1 $-1 $233 $330 #
vertex $-1 $145 $355 #
vertex $-1 $145 $356 #
straight-curve $-1 55.352031006805632 0 10.5861600476512 0 1 0 I I #
face $-1 $357 $358 $34 $-1 $359 reversed single #
loop $-1 $-1 $360 $146 #
plane-surface $-1 0 -34.889330961093805 0 0 1 0 0 0 1 forward_v I I I I #
coedge $-1 $245 $152 $361 $362 reversed $147 $-1 #
coedge $-1 $363 $149 $360 $364 reversed $93 $-1 #
coedge $-1 $149 $363 $365 $366 reversed $93 $-1 #
coedge $-1 $252 $242 $149 $246 reversed $147 $-1 #
edge $-1 $367 -34.889330961093805 $368 34.889330961093805 $245 $369 forward 7 unknown #
coedge $-1 $151 $150 $370 $371 reversed $59 $-1 #
coedge $-1 $372 $373 $150 $249 forward $374 $-1 #
edge $-1 $375 -30.968053788383234 $254 -17.799900648461563 $248 $376 forward 7 unknown #
coedge $-1 $377 $361 $151 $251 forward $240 $-1 #
edge $-1 $253 17.799900648461563 $378 30.968053788383234 $250 $379 forward 7 unknown #
coedge $-1 $152 $245 $372 $380 reversed $147 $-1 #
vertex $-1 $251 $381 #
vertex $-1 $249 $382 #
straight-curve $-1 -42.183877866883961 0 2.2632545775167312 0 1 0 I I #
face $-1 $383 $384 $35 $-1 $385 reversed single #
loop $-1 $-1 $267 $154 #
plane-surface $-1 0 -34.889330961093805 0 0 1 0 0 0 1 forward_v I I I I #
coedge $-1 $386 $387 $388 $389 reversed $155 $-1 #
coedge $-1 $390 $157 $391 $392 reversed $97 $-1 #
coedge $-1 $157 $390 $393 $394 reversed $97 $-1 #
coedge $-1 $270 $269 $157 $263 forward $271 $-1 #
edge $-1 $395 -34.889330961093805 $396 34.889330961093805 $262 $397 forward 7 unknown #
coedge $-1 $159 $158 $387 $398 forward $62 $-1 #
coedge $-1 $399 $388 $158 $266 forward $384 $-1 #
edge $-1 $400 18.464854427314563 $272 30.746402528765572 $265 $401 forward 7 unknown #
coedge $-1 $402 $403 $159 $268 forward $257 $-1 #
edge $-1 $273 -30.746402528765572 $404 -18.464854427314563 $267 $405 forward 7 unknown #
coedge $-1 $262 $160 $403 $406 forward $271 $-1 #
coedge $-1 $160 $262 $399 $407 reversed $271 $-1 #
loop $-1 $-1 $160 $383 #
vertex $-1 $407 $408 #
vertex $-1 $406 $409 #
straight-curve $-1 55.352031006805632 0 -0.28994607707719444 0 -1 0 I I #
face $-1 $-1 $287 $36 $-1 $410 reversed single #
loop $-1 $-1 $411 $162 #
plane-surface $-1 0 0 10.5861600476512 0 0 1 1 0 0 forward_v I I I I #
coedge $-1 $412 $413 $414 $415 reversed $163 $-1 #
coedge $-1 $416 $165 $167 $285 forward $101 $-1 #
coedge $-1 $165 $416 $412 $417 forward $101 $-1 #
coedge $-1 $414 $168 $165 $282 forward $287 $-1 #
edge $-1 $289 -27.024710465528461 $418 -3.2936243371825391 $281 $419 forward 7 unknown #
coedge $-1 $420 $421 $166 $284 forward $276 $-1 #
edge $-1 $422 -34.641218388694611 $288 -29.496519471810132 $283 $423 forward 7 unknown #
edge $-1 $289 0 $422 9.7084582260885206 $167 $424 forward 7 unknown #
coedge $-1 $168 $414 $420 $425 reversed $287 $-1 #
loop $-1 $-1 $414 $275 #
vertex $-1 $425 $426 #
vertex $-1 $169 $427 #
straight-curve $-1 -42.183877866883961 -34.889330961093805 30.508567070696113 0 0 -1 I I #
coedge $-1 $291 $291 $-1 $428 reversed $172 $-1 #
edge $-1 $429 0 $429 6.2831853071796004 $173 $430 forward 7 unknown #
vertex $-1 $176 $431 #
ellipse-curve $-1 -37.437660641214777 -32.316981502651565 6.4695402515589775 0 -0.84804810408105047 0.52991925155115449 1 0 0 1 I I #
coedge $-1 $295 $295 $-1 $432 reversed $179 $-1 #
edge $-1 $433 0 $433 6.2831853071796004 $180 $434 forward 7 unknown #
vertex $-1 $183 $435 #
ellipse-curve $-1 -30.318334802711 -32.316981502651565 6.4695402515589775 0 -0.84804810408105047 0.52991925155115449 1 0 0 1 I I #
coedge $-1 $299 $299 $-1 $436 reversed $186 $-1 #
edge $-1 $437 0 $437 6.2831853071796004 $187 $438 forward 7 unknown #
vertex $-1 $190 $439 #
ellipse-curve $-1 -23.199008964207223 -32.316981502651565 6.4695402515589775 0 -0.84804810408105047 0.52991925155115449 1 0 0 1 I I #
face $-1 $-1 $440 $40 $-1 $441 forward single #
loop $-1 $-1 $197 $191 #
plane-surface $-1 0 34.889330961093805 0 0 -1 0 0 0 -1 forward_v I I I I #
coedge $-1 $442 $443 $444 $445 reversed $192 $-1 #
coedge $-1 $446 $194 $196 $313 forward $120 $-1 #
coedge $-1 $194 $446 $442 $447 forward $120 $-1 #
coedge $-1 $444 $197 $194 $310 forward $304 $-1 #
edge $-1 $316 -8.074228889042363 $448 6.3469676029247672 $309 $449 forward 7 unknown #
coedge $-1 $450 $451 $195 $312 forward $440 $-1 #
edge $-1 $452 -16.08842386403116 $315 -9.9753631269801417 $311 $453 forward 7 unknown #
edge $-1 $316 -69.778661922187581 $452 -58.554602531686207 $196 $454 forward 7 unknown #
coedge $-1 $197 $444 $450 $455 reversed $304 $-1 #
vertex $-1 $455 $456 #
vertex $-1 $198 $457 #
straight-curve $-1 8.9378595321011609 34.889330961093805 59.993967210127259 0 0 -1 I I #
coedge $-1 $318 $318 $-1 $458 reversed $201 $-1 #
edge $-1 $459 0 $459 6.2831853071796004 $202 $460 forward 7 unknown #
vertex $-1 $205 $461 #
ellipse-curve $-1 -2.5990976614725483 31.832800592568297 5.87951587088821 0 0.83867057594974714 0.54463902268945019 1 0 0 1 I I #
coedge $-1 $322 $322 $-1 $462 reversed $208 $-1 #
edge $-1 $463 0 $463 6.2831853071796004 $209 $464 forward 7 unknown #
vertex $-1 $212 $465 #
ellipse-curve $-1 1.7272612861175887 31.832800592568297 5.87951587088821 0 0.83867057594974714 0.54463902268945019 1 0 0 1 I I #
coedge $-1 $326 $326 $-1 $466 reversed $215 $-1 #
edge $-1 $467 0 $467 6.2831853071796004 $216 $468 forward 7 unknown #
vertex $-1 $219 $469 #
ellipse-curve $-1 6.0536202337077256 31.832800592568297 5.87951587088821 0 0.83867057594974714 0.54463902268945019 1 0 0 1 I I #
face $-1 $-1 $235 $33 $-1 $470 reversed single #
loop $-1 $-1 $346 $220 #
plane-surface $-1 0 34.889330961093805 0 0 -1 0 0 0 -1 forward_v I I I I #
coedge $-1 $471 $344 $347 $472 forward $221 $-1 #
coedge $-1 $350 $223 $224 $338 reversed $139 $-1 #
coedge $-1 $344 $471 $223 $336 reversed $221 $-1 #
edge $-1 $351 -10.5861600476512 $473 10.5861600476512 $335 $474 forward 7 unknown #
coedge $-1 $225 $224 $471 $475 forward $89 $-1 #
edge $-1 $342 -55.352031006805632 $473 55.352031006805632 $334 $476 forward 7 unknown #
coedge $-1 $347 $346 $225 $340 reversed $331 $-1 #
edge $-1 $477 -55.352031006805632 $341 55.352031006805632 $339 $478 forward 7 unknown #
vertex $-1 $227 $479 #
vertex $-1 $353 $480 #
straight-curve $-1 55.352031006805632 0 -10.5861600476512 0 -1 0 I I #
coedge $-1 $333 $335 $228 $345 reversed $221 $-1 #
edge $-1 $348 -34.889330961093805 $351 34.889330961093805 $344 $481 forward 7 unknown #
coedge $-1 $339 $229 $234 $354 forward $331 $-1 #
coedge $-1 $229 $339 $333 $472 reversed $331 $-1 #
vertex $-1 $230 $482 #
straight-curve $-1 0 34.889330961093805 10.5861600476512 -1 0 0 I I #
coedge $-1 $231 $334 $233 $353 reversed $139 $-1 #
vertex $-1 $345 $483 #
straight-curve $-1 0 -34.889330961093805 10.5861600476512 1 0 0 I I #
edge $-1 $236 -10.5861600476512 $342 10.5861600476512 $233 $484 forward 7 unknown #
edge $-1 $237 -10.5861600476512 $341 10.5861600476512 $234 $485 forward 7 unknown #
point $-1 55.352031006805632 -34.889330961093805 10.5861600476512 #
point $-1 55.352031006805632 34.889330961093805 10.5861600476512 #
face $-1 $-1 $374 $34 $-1 $486 reversed single #
loop $-1 $-1 $487 $239 #
plane-surface $-1 -55.352031006805632 0 0 1 0 0 0 0 -1 forward_v I I I I #
coedge $-1 $361 $377 $243 $364 forward $240 $-1 #
coedge $-1 $250 $360 $242 $362 forward $240 $-1 #
edge $-1 $368 -3.0134906637968513 $253 2.5133332729434379 $361 $488 forward 7 unknown #
coedge $-1 $244 $243 $487 $489 reversed $93 $-1 #
edge $-1 $490 -30.968053788383234 $368 -17.799900648461563 $360 $491 forward 7 unknown #
coedge $-1 $373 $372 $244 $366 forward $374 $-1 #
edge $-1 $367 17.799900648461563 $492 30.968053788383234 $365 $493 forward 7 unknown #
vertex $-1 $366 $494 #
vertex $-1 $364 $495 #
straight-curve $-1 -42.183877866883961 0 -3.263569359223558 0 -1 0 I I #
coedge $-1 $496 $497 $247 $371 forward $358 $-1 #
edge $-1 $378 -34.889330961093805 $375 34.889330961093805 $370 $498 forward 7 unknown #
coedge $-1 $365 $248 $252 $380 forward $374 $-1 #
coedge $-1 $248 $365 $496 $499 reversed $374 $-1 #
loop $-1 $-1 $365 $357 #
vertex $-1 $499 $500 #
straight-curve $-1 -24.383977218422398 34.889330961093805 2.2632545775167312 1 0 0 I I #
coedge $-1 $360 $250 $497 $501 forward $240 $-1 #
vertex $-1 $501 $502 #
straight-curve $-1 -24.383977218422398 -34.889330961093805 2.2632545775167312 -1 0 0 I I #
edge $-1 $254 -2.5133332729434379 $367 3.0134906637968513 $372 $503 forward 7 unknown #
point $-1 -42.183877866883961 -34.889330961093805 2.2632545775167312 #
point $-1 -42.183877866883961 34.889330961093805 2.2632545775167312 #
face $-1 $-1 $271 $35 $-1 $504 reversed single #
loop $-1 $-1 $265 $256 #
plane-surface $-1 0 34.889330961093805 0 0 -1 0 0 0 -1 forward_v I I I I #
coedge $-1 $505 $259 $390 $506 reversed $155 $-1 #
coedge $-1 $259 $505 $264 $398 reversed $155 $-1 #
coedge $-1 $265 $393 $259 $389 forward $384 $-1 #
edge $-1 $507 -2.3949730385385979 $400 0.605026961461403 $388 $508 forward 7 unknown #
coedge $-1 $261 $260 $386 $506 forward $97 $-1 #
coedge $-1 $403 $402 $260 $392 forward $257 $-1 #
edge $-1 $509 18.464854427314563 $395 30.746402528765572 $391 $510 forward 7 unknown #
coedge $-1 $388 $399 $261 $394 forward $384 $-1 #
edge $-1 $396 -30.746402528765572 $507 -18.464854427314563 $393 $511 forward 7 unknown #
vertex $-1 $263 $512 #
vertex $-1 $263 $513 #
straight-curve $-1 55.352031006805632 0 -3.2899460770771953 0 1 0 I I #
edge $-1 $400 -34.889330961093805 $404 34.889330961093805 $387 $514 forward 7 unknown #
coedge $-1 $393 $265 $270 $407 forward $384 $-1 #
vertex $-1 $266 $515 #
straight-curve $-1 24.605628478040067 34.889330961093805 -0.28994607707719444 1 0 0 I I #
coedge $-1 $391 $267 $505 $516 forward $257 $-1 #
coedge $-1 $267 $391 $269 $406 reversed $257 $-1 #
vertex $-1 $268 $517 #
straight-curve $-1 24.605628478040067 -34.889330961093805 -0.28994607707719444 -1 0 0 I I #
edge $-1 $273 0.28994607707719444 $395 3.2899460770771953 $269 $518 forward 7 unknown #
edge $-1 $272 0.28994607707719444 $396 3.2899460770771953 $270 $519 forward 7 unknown #
point $-1 55.352031006805639 34.889330961093805 -0.28994607707719444 #
point $-1 55.352031006805639 -34.889330961093805 -0.28994607707719444 #
plane-surface $-1 0 -34.889330961093805 0 0 1 0 0 0 1 forward_v I I I I #
coedge $-1 $421 $420 $413 $520 forward $276 $-1 #
coedge $-1 $413 $278 $280 $417 reversed $163 $-1 #
coedge $-1 $278 $412 $411 $520 reversed $163 $-1 #
coedge $-1 $286 $281 $278 $415 forward $287 $-1 #
edge $-1 $418 -28.155646615229362 $521 -19.922407023044912 $414 $522 forward 7 unknown #
coedge $-1 $280 $279 $421 $523 reversed $101 $-1 #
edge $-1 $524 -9.7084582260885206 $418 0 $412 $525 forward 7 unknown #
vertex $-1 $282 $526 #
straight-curve $-1 -15.1591674013555 -34.889330961093805 2.3529204554667533 1 0 0 I I #
coedge $-1 $411 $283 $286 $425 forward $276 $-1 #
coedge $-1 $283 $411 $416 $523 forward $276 $-1 #
vertex $-1 $284 $527 #
straight-curve $-1 -42.183877866883961 -64.385850432903936 10.586160047651198 0 -1 0 I I #
straight-curve $-1 -42.183877866883961 -34.889330961093805 2.3529204554667515 0 0.52991925155115449 0.84804810408105047 I I #
edge $-1 $288 -42.183877866883961 $521 -18.452791738538039 $286 $528 forward 7 unknown #
point $-1 -42.183877866883961 -34.889330961093805 10.5861600476512 #
point $-1 -42.183877866883961 -34.889330961093805 2.3529204554667515 #
edge $-1 $529 1 $529 0 $291 $-1 forward 7 unknown #
vertex $-1 $292 $530 #
ellipse-curve $-1 -37.437660641214777 -31.206964255545266 5.7759245168326538 0 -0.84804810408105047 0.52991925155115449 1 0 0 1 I I #
point $-1 -36.437660641214777 -32.316981502651565 6.4695402515589775 #
edge $-1 $531 1 $531 0 $295 $-1 forward 7 unknown #
vertex $-1 $296 $532 #
ellipse-curve $-1 -30.318334802711 -31.206964255545266 5.7759245168326538 0 -0.84804810408105047 0.52991925155115449 1 0 0 1 I I #
point $-1 -29.318334802711 -32.316981502651565 6.4695402515589775 #
edge $-1 $533 1 $533 0 $299 $-1 forward 7 unknown #
vertex $-1 $300 $534 #
ellipse-curve $-1 -23.199008964207223 -31.206964255545266 5.7759245168326538 0 -0.84804810408105047 0.52991925155115449 1 0 0 1 I I #
point $-1 -22.199008964207223 -32.316981502651565 6.4695402515589775 #
loop $-1 $-1 $311 $303 #
plane-surface $-1 0 0 10.5861600476512 0 0 1 1 0 0 forward_v I I I I #
coedge $-1 $443 $306 $308 $447 reversed $192 $-1 #
coedge $-1 $306 $442 $535 $536 reversed $192 $-1 #
coedge $-1 $314 $309 $306 $445 forward $304 $-1 #
edge $-1 $448 -58.821095516002018 $537 -49.407807162476061 $444 $538 forward 7 unknown #
coedge $-1 $308 $307 $451 $539 reversed $120 $-1 #
edge $-1 $540 58.554602531686207 $448 69.778661922187581 $442 $541 forward 7 unknown #
vertex $-1 $310 $542 #
straight-curve $-1 0.86363064305879789 34.889330961093805 1.1728716941252344 -1 0 0 I I #
coedge $-1 $535 $311 $314 $455 forward $440 $-1 #
coedge $-1 $311 $535 $446 $539 forward $440 $-1 #
vertex $-1 $312 $543 #
straight-curve $-1 8.9378595321011609 44.864694088073946 10.586160047651198 0 1 0 I I #
straight-curve $-1 8.9378595321011609 -3.1148512727839943 59.694182277408991 0 -0.54463902268945019 0.83867057594974714 I I #
edge $-1 $315 -8.9378595321011609 $537 5.4833369598659694 $314 $544 forward 7 unknown #
point $-1 8.9378595321011609 34.889330961093805 10.5861600476512 #
point $-1 8.9378595321011609 34.889330961093805 1.1728716941252415 #
edge $-1 $545 1 $545 0 $318 $-1 forward 7 unknown #
vertex $-1 $319 $546 #
ellipse-curve $-1 -2.5990976614725483 29.827613394117677 4.5773321203294204 0 0.83867057594974714 0.54463902268945019 1 0 0 1 I I #
point $-1 -1.5990976614725483 31.832800592568283 5.879515870888202 #
edge $-1 $547 1 $547 0 $322 $-1 forward 7 unknown #
vertex $-1 $323 $548 #
ellipse-curve $-1 1.7272612861175887 29.827613394117677 4.5773321203294204 0 0.83867057594974714 0.54463902268945019 1 0 0 1 I I #
point $-1 2.7272612861175887 31.832800592568283 5.879515870888202 #
edge $-1 $549 1 $549 0 $326 $-1 forward 7 unknown #
vertex $-1 $327 $550 #
ellipse-curve $-1 6.0536202337077256 29.827613394117677 4.5773321203294204 0 0.83867057594974714 0.54463902268945019 1 0 0 1 I I #
point $-1 7.0536202337077256 31.832800592568283 5.879515870888202 #
plane-surface $-1 55.352031006805632 0 0 -1 0 0 0 0 1 forward_v I I I I #
coedge $-1 $335 $333 $337 $475 reversed $221 $-1 #
edge $-1 $348 -10.5861600476512 $477 10.5861600476512 $347 $551 forward 7 unknown #
vertex $-1 $475 $552 #
straight-curve $-1 -55.352031006805632 -34.889330961093805 0 0 0 -1 I I #
edge $-1 $473 -34.889330961093805 $477 34.889330961093805 $471 $553 forward 7 unknown #
straight-curve $-1 0 -34.889330961093805 -10.5861600476512 -1 0 0 I I #
vertex $-1 $340 $554 #
straight-curve $-1 0 34.889330961093805 -10.5861600476512 1 0 0 I I #
point $-1 55.352031006805632 34.889330961093805 -10.5861600476512 #
point $-1 55.352031006805632 -34.889330961093805 -10.5861600476512 #
straight-curve $-1 -55.352031006805632 0 10.5861600476512 0 -1 0 I I #
point $-1 -55.352031006805632 34.889330961093805 10.5861600476512 #
point $-1 -55.352031006805632 -34.889330961093805 10.5861600476512 #
straight-curve $-1 55.352031006805632 -34.889330961093805 0 0 0 -1 I I #
straight-curve $-1 55.352031006805632 34.889330961093805 0 0 0 -1 I I #
plane-surface $-1 0 34.889330961093805 0 0 -1 0 0 0 -1 forward_v I I I I #
coedge $-1 $497 $496 $363 $489 forward $358 $-1 #
straight-curve $-1 -42.183877866883961 -34.889330961093805 -0.25007869542670669 0 0 1 I I #
edge $-1 $492 -34.889330961093805 $490 34.889330961093805 $487 $555 forward 7 unknown #
vertex $-1 $364 $556 #
straight-curve $-1 -24.383977218422398 -34.889330961093805 -3.263569359223558 1 0 0 I I #
vertex $-1 $366 $557 #
straight-curve $-1 -24.383977218422398 34.889330961093805 -3.263569359223558 -1 0 0 I I #
point $-1 -42.183877866883961 34.889330961093805 -3.263569359223558 #
point $-1 -42.183877866883961 -34.889330961093805 -3.263569359223558 #
coedge $-1 $487 $370 $373 $499 forward $358 $-1 #
coedge $-1 $370 $487 $377 $501 reversed $358 $-1 #
straight-curve $-1 -55.352031006805632 0 2.2632545775167312 0 1 0 I I #
edge $-1 $375 -2.2632545775167312 $492 3.263569359223558 $373 $558 forward 7 unknown #
point $-1 -55.352031006805632 34.889330961093805 2.2632545775167312 #
edge $-1 $378 -2.2632545775167312 $490 3.263569359223558 $497 $559 forward 7 unknown #
point $-1 -55.352031006805632 -34.889330961093805 2.2632545775167312 #
straight-curve $-1 -42.183877866883961 34.889330961093805 -0.25007869542670669 0 0 -1 I I #
plane-surface $-1 55.352031006805632 0 0 -1 0 0 0 0 1 forward_v I I I I #
coedge $-1 $387 $386 $402 $516 reversed $155 $-1 #
edge $-1 $509 -34.889330961093805 $507 34.889330961093805 $386 $560 forward 7 unknown #
vertex $-1 $394 $561 #
straight-curve $-1 43.070482905354631 34.889330961093805 -0.89497303853859744 0 0 1 I I #
vertex $-1 $392 $562 #
straight-curve $-1 24.605628478040067 -34.889330961093805 -3.2899460770771953 1 0 0 I I #
straight-curve $-1 24.605628478040067 34.889330961093805 -3.2899460770771953 -1 0 0 I I #
point $-1 55.352031006805639 -34.889330961093805 -3.2899460770771953 #
point $-1 55.352031006805639 34.889330961093805 -3.2899460770771953 #
straight-curve $-1 43.070482905354631 0 -0.28994607707719444 0 -1 0 I I #
point $-1 43.070482905354631 34.889330961093805 -0.28994607707719444 #
edge $-1 $404 -0.605026961461403 $509 2.3949730385385979 $402 $563 forward 7 unknown #
point $-1 43.070482905354631 -34.889330961093805 -0.28994607707719444 #
straight-curve $-1 55.352031006805632 -34.889330961093805 0 0 0 -1 I I #
straight-curve $-1 55.352031006805632 34.889330961093805 0 0 0 -1 I I #
edge $-1 $521 29.496519471810132 $524 34.641218388694611 $411 $564 forward 7 unknown #
vertex $-1 $520 $565 #
straight-curve $-1 -18.452791738538039 -34.889330961093805 30.508567070696113 0 0 1 I I #
edge $-1 $524 3.2936243371825391 $422 27.024710465528461 $421 $566 forward 7 unknown #
vertex $-1 $523 $567 #
straight-curve $-1 -18.452791738538039 -34.889330961093805 2.3529204554667515 0 -0.52991925155115449 -0.84804810408105047 I I #
point $-1 -18.452791738538039 -34.889330961093805 2.3529204554667515 #
point $-1 -42.183877866883961 -29.744632044209325 10.5861600476512 #
straight-curve $-1 0 -34.889330961093805 10.5861600476512 1 0 0 I I #
vertex $-1 $428 $568 #
point $-1 -36.437660641214777 -31.206964255545266 5.7759245168326538 #
vertex $-1 $432 $569 #
point $-1 -29.318334802711 -31.206964255545266 5.7759245168326538 #
vertex $-1 $436 $570 #
point $-1 -22.199008964207223 -31.206964255545266 5.7759245168326538 #
coedge $-1 $451 $450 $443 $536 forward $440 $-1 #
edge $-1 $537 9.9753631269801417 $540 16.08842386403116 $535 $571 forward 7 unknown #
vertex $-1 $536 $572 #
straight-curve $-1 -5.4833369598659694 34.889330961093805 59.993967210127259 0 0 1 I I #
edge $-1 $540 -6.3469676029247672 $452 8.074228889042363 $451 $573 forward 7 unknown #
vertex $-1 $539 $574 #
straight-curve $-1 -5.4833369598659694 -3.1148512727839943 59.694182277408991 0 0.54463902268945019 -0.83867057594974714 I I #
point $-1 -5.4833369598659694 34.889330961093805 1.1728716941252415 #
point $-1 8.9378595321011609 28.776270224042786 10.586160047651198 #
straight-curve $-1 0 34.889330961093805 10.5861600476512 -1 0 0 I I #
vertex $-1 $458 $575 #
point $-1 -1.5990976614725483 29.827613394117677 4.5773321203294204 #
vertex $-1 $462 $576 #
point $-1 2.7272612861175887 29.827613394117677 4.5773321203294204 #
vertex $-1 $466 $577 #
point $-1 7.0536202337077256 29.827613394117677 4.5773321203294204 #
straight-curve $-1 -55.352031006805632 34.889330961093805 0 0 0 -1 I I #
point $-1 -55.352031006805632 -34.889330961093805 -10.5861600476512 #
straight-curve $-1 -55.352031006805632 0 -10.5861600476512 0 1 0 I I #
point $-1 -55.352031006805632 34.889330961093805 -10.5861600476512 #
straight-curve $-1 -55.352031006805632 0 -3.263569359223558 0 -1 0 I I #
point $-1 -55.352031006805632 -34.889330961093805 -3.263569359223558 #
point $-1 -55.352031006805632 34.889330961093805 -3.263569359223558 #
straight-curve $-1 -55.352031006805632 34.889330961093805 0 0 0 -1 I I #
straight-curve $-1 -55.352031006805632 -34.889330961093805 0 0 0 -1 I I #
straight-curve $-1 43.070482905354631 0 -3.2899460770771953 0 1 0 I I #
point $-1 43.070482905354631 34.889330961093805 -3.2899460770771953 #
point $-1 43.070482905354631 -34.889330961093805 -3.2899460770771953 #
straight-curve $-1 43.070482905354631 -34.889330961093805 -0.89497303853859744 0 0 -1 I I #
straight-curve $-1 -18.452791738538039 -64.385850432903936 10.586160047651198 0 1 0 I I #
point $-1 -18.452791738538039 -34.889330961093805 10.5861600476512 #
straight-curve $-1 -15.1591674013555 -29.744632044209325 10.5861600476512 -1 0 0 I I #
point $-1 -18.452791738538039 -29.744632044209325 10.5861600476512 #
point $-1 -37.437660641214777 -30.358916151464214 5.2460052652814992 #
point $-1 -30.318334802711 -30.358916151464214 5.2460052652814992 #
point $-1 -23.199008964207223 -30.358916151464214 5.2460052652814992 #
straight-curve $-1 -5.4833369598659694 44.864694088073946 10.586160047651198 0 -1 0 I I #
point $-1 -5.4833369598659694 34.889330961093805 10.5861600476512 #
straight-curve $-1 0.86363064305879789 28.776270224042786 10.586160047651198 1 0 0 I I #
point $-1 -5.4833369598659694 28.776270224042786 10.586160047651198 #
point $-1 -2.5990976614725483 28.988942818167928 4.03269309763997 #
point $-1 1.7272612861175887 28.988942818167928 4.03269309763997 #
point $-1 6.0536202337077256 28.988942818167928 4.03269309763997 #
End-of-ACIS-data 