500 0 10 0           
7 Unknown 11 ACIS 5.0 NT 24 Thu Mar 25 16:52:17 1999 
-1 9.9999999999999995e-007 1e-010 
body $-1 $10 $-1 $11 #
body $-1 $12 $-1 $13 #
body $-1 $14 $-1 $15 #
body $-1 $16 $-1 $17 #
body $-1 $18 $-1 $19 #
body $-1 $20 $-1 $21 #
body $-1 $22 $-1 $23 #
body $-1 $24 $-1 $25 #
body $-1 $26 $-1 $27 #
body $-1 $28 $-1 $29 #
lump $-1 $-1 $30 $0 #
transform $-1 1 0 0 0 1 0 0 0 1 73.826715903195293 31.203599247966633 7.3474681953676368 1 rotate no_reflect no_shear #
lump $-1 $-1 $31 $1 #
transform $-1 1 0 0 0 1 0 0 0 1 73.826715903195293 31.203599247966633 7.3474681953676368 1 rotate no_reflect no_shear #
lump $-1 $-1 $32 $2 #
transform $-1 1 0 0 0 1 0 0 0 1 73.826715903195293 31.203599247966633 7.3474681953676368 1 rotate no_reflect no_shear #
lump $-1 $-1 $33 $3 #
transform $-1 1 0 0 0 1 0 0 0 1 73.826715903195293 31.203599247966633 7.3474681953676368 1 rotate no_reflect no_shear #
lump $-1 $-1 $34 $4 #
transform $-1 1 0 0 0 1 0 0 0 1 73.826715903195293 31.203599247966633 7.3474681953676368 1 rotate no_reflect no_shear #
lump $-1 $-1 $35 $5 #
transform $-1 1 0 0 0 1 0 0 0 1 73.826715903195293 31.203599247966633 7.3474681953676368 1 rotate no_reflect no_shear #
lump $-1 $-1 $36 $6 #
transform $-1 1 0 0 0 1 0 0 0 1 73.826715903195293 31.203599247966633 7.3474681953676368 1 rotate no_reflect no_shear #
lump $-1 $-1 $37 $7 #
transform $-1 1 0 0 0 1 0 0 0 1 73.826715903195293 31.203599247966633 7.3474681953676368 1 rotate no_reflect no_shear #
lump $-1 $-1 $38 $8 #
transform $-1 1 0 0 0 1 0 0 0 1 73.826715903195293 31.203599247966633 7.3474681953676368 1 rotate no_reflect no_shear #
lump $-1 $-1 $39 $9 #
transform $-1 1 0 0 0 1 0 0 0 1 73.826715903195293 31.203599247966633 7.3474681953676368 1 rotate no_reflect no_shear #
shell $-1 $-1 $-1 $40 $-1 $10 #
shell $-1 $-1 $-1 $41 $-1 $12 #
shell $-1 $-1 $-1 $42 $-1 $14 #
shell $-1 $-1 $-1 $43 $-1 $16 #
shell $-1 $-1 $-1 $44 $-1 $18 #
shell $-1 $-1 $-1 $45 $-1 $20 #
shell $-1 $-1 $-1 $46 $-1 $22 #
shell $-1 $-1 $-1 $47 $-1 $24 #
shell $-1 $-1 $-1 $48 $-1 $26 #
shell $-1 $-1 $-1 $49 $-1 $28 #
face $-1 $50 $51 $30 $-1 $52 forward single #
face $-1 $53 $54 $31 $-1 $55 forward single #
face $-1 $56 $57 $32 $-1 $58 forward single #
face $-1 $59 $60 $33 $-1 $61 reversed single #
face $-1 $62 $63 $34 $-1 $64 forward single #
face $-1 $65 $66 $35 $-1 $67 reversed single #
face $-1 $68 $69 $36 $-1 $70 forward single #
face $-1 $71 $72 $37 $-1 $73 reversed single #
face $-1 $74 $75 $38 $-1 $76 forward single #
face $-1 $77 $78 $39 $-1 $79 forward single #
face $-1 $80 $81 $30 $-1 $82 reversed single #
loop $-1 $-1 $83 $40 #
plane-surface $-1 0 0 7.3474681953676368 0 0 1 1 0 0 forward_v I I I I #
face $-1 $84 $85 $31 $-1 $86 reversed single #
loop $-1 $-1 $87 $41 #
plane-surface $-1 0 -27.204867439832668 -3.7384255425632267 0 0 1 1 0 0 forward_v I I I I #
face $-1 $88 $89 $32 $-1 $90 reversed single #
loop $-1 $-1 $91 $42 #
plane-surface $-1 0 27.204867439832672 -3.7384255425632267 0 0 1 1 0 0 forward_v I I I I #
face $-1 $92 $93 $33 $-1 $94 reversed single #
loop $-1 $-1 $95 $43 #
plane-surface $-1 66.539232658056449 3.5527136788005009e-015 209.61967382267588 0 -1 0 -0.68199836817093118 0 -0.7313536940579346 forward_v I I I I #
face $-1 $96 $97 $34 $-1 $98 forward single #
loop $-1 $99 $100 $44 #
cone-surface $-1 69.19499143788758 -3.5112818619156307 2.8615262074704795 -0.68199836817093118 0 -0.7313536940579346 0.7313536940579346 0 -0.68199836817093118 1 I I 0 1 1 forward I I I I #
face $-1 $101 $102 $35 $-1 $103 reversed single #
loop $-1 $-1 $104 $45 #
plane-surface $-1 66.539232658056449 7.0225637238312721 209.61967382267588 0 -1 0 -0.68199836817093118 0 -0.7313536940579346 forward_v I I I I #
face $-1 $105 $106 $36 $-1 $107 forward single #
loop $-1 $108 $109 $46 #
cone-surface $-1 69.19499143788758 3.5112818619156378 2.8615262074704795 -0.68199836817093118 0 -0.7313536940579346 0.7313536940579346 0 -0.68199836817093118 1 I I 0 1 1 forward I I I I #
face $-1 $110 $111 $37 $-1 $112 reversed single #
loop $-1 $-1 $113 $47 #
plane-surface $-1 -191.74799093841804 10.480411835330113 92.911514890762845 0 1 0 -0.79863551827123203 0 0.60181501223851219 forward_v I I I I #
face $-1 $114 $115 $38 $-1 $116 forward single #
loop $-1 $117 $118 $48 #
cone-surface $-1 -71.871442169766595 13.007209205657109 5.1618690533143505 0.79863551827123203 0 -0.60181501223851219 0.3009075061192561 0 0.39931775913561601 1 I I 0 1 0.5 forward I I I I #
face $-1 $119 $120 $39 $-1 $121 forward single #
loop $-1 $122 $123 $49 #
cone-surface $-1 -71.871442169766595 16.797405261147599 5.1618690533143505 0.79863551827123203 0 -0.60181501223851219 0.3009075061192561 0 0.39931775913561601 1 I I 0 1 0.5 forward I I I I #
face $-1 $124 $125 $30 $-1 $126 reversed single #
loop $-1 $-1 $127 $50 #
plane-surface $-1 0 0 -7.3474681953676368 0 0 1 1 0 0 forward_v I I I I #
coedge $-1 $128 $129 $130 $131 forward $51 $-1 #
face $-1 $132 $133 $31 $-1 $134 reversed single #
loop $-1 $-1 $135 $53 #
plane-surface $-1 0 -23.206135631698704 -5.5429468689654318 0 -1 0 0 0 -1 forward_v I I I I #
coedge $-1 $136 $137 $138 $139 reversed $54 $-1 #
face $-1 $140 $141 $32 $-1 $142 reversed single #
loop $-1 $-1 $143 $56 #
plane-surface $-1 0 23.206135631698707 -5.5429468689654318 0 1 0 0 0 1 forward_v I I I I #
coedge $-1 $144 $145 $146 $147 reversed $57 $-1 #
face $-1 $148 $149 $33 $-1 $150 reversed single #
loop $-1 $-1 $151 $59 #
plane-surface $-1 -34.160166888739795 -3.5112818619156307 101.63279103074079 0.68199836817093118 0 0.7313536940579346 0.7313536940579346 0 -0.68199836817093118 forward_v I I I I #
coedge $-1 $152 $153 $154 $155 reversed $60 $-1 #
face $-1 $-1 $156 $34 $-1 $157 forward single #
loop $-1 $158 $159 $62 #
cone-surface $-1 67.661395296563853 -3.5112818619156307 1.2169457282559106 -0.68199836817093118 0 -0.7313536940579346 0.3656768470289673 0 -0.34099918408546559 1 I I -0.70710678118654746 0.70710678118654746 0.5 forward I I I I #
loop $-1 $-1 $160 $44 #
coedge $-1 $100 $100 $161 $162 reversed $63 $-1 #
face $-1 $163 $164 $35 $-1 $165 reversed single #
loop $-1 $-1 $166 $65 #
plane-surface $-1 -34.160166888739795 -3.5112818619156307 101.63279103074079 0.68199836817093118 0 0.7313536940579346 0.7313536940579346 0 -0.68199836817093118 forward_v I I I I #
coedge $-1 $167 $168 $169 $170 reversed $66 $-1 #
face $-1 $-1 $171 $36 $-1 $172 forward single #
loop $-1 $173 $174 $68 #
cone-surface $-1 67.661395296563853 3.5112818619156378 1.2169457282559106 -0.68199836817093118 0 -0.7313536940579346 0.3656768470289673 0 -0.34099918408546559 1 I I -0.70710678118654746 0.70710678118654746 0.5 forward I I I I #
loop $-1 $-1 $175 $46 #
coedge $-1 $109 $109 $176 $177 reversed $69 $-1 #
face $-1 $178 $179 $37 $-1 $180 reversed single #
loop $-1 $-1 $181 $71 #
plane-surface $-1 -73.826715903195279 14.90230723340235 4.0514630211415721 -0.79863551827123203 0 0.60181501223851219 0.60181501223851219 0 0.79863551827123203 forward_v I I I I #
coedge $-1 $182 $183 $184 $185 reversed $72 $-1 #
face $-1 $-1 $186 $38 $-1 $187 forward single #
loop $-1 $188 $189 $74 #
cone-surface $-1 -70.958368545560646 13.007209205657109 4.4738187453144667 0.79863551827123203 0 -0.60181501223851219 0.15045375305962805 0 0.19965887956780801 1 I I -0.70710678118654746 0.70710678118654746 0.25 forward I I I I #
loop $-1 $-1 $190 $48 #
coedge $-1 $118 $118 $191 $192 reversed $75 $-1 #
face $-1 $-1 $193 $39 $-1 $194 forward single #
loop $-1 $195 $196 $77 #
cone-surface $-1 -70.958368545560646 16.797405261147599 4.4738187453144667 0.79863551827123203 0 -0.60181501223851219 0.15045375305962805 0 0.19965887956780801 1 I I -0.70710678118654746 0.70710678118654746 0.25 forward I I I I #
loop $-1 $-1 $197 $49 #
coedge $-1 $123 $123 $198 $199 reversed $78 $-1 #
face $-1 $200 $201 $30 $-1 $202 reversed single #
loop $-1 $-1 $203 $80 #
plane-surface $-1 0 -31.203599247966633 0 0 1 0 0 0 1 forward_v I I I I #
coedge $-1 $204 $205 $206 $207 forward $81 $-1 #
coedge $-1 $208 $83 $209 $210 forward $51 $-1 #
coedge $-1 $83 $208 $211 $212 forward $51 $-1 #
coedge $-1 $213 $214 $83 $131 reversed $215 $-1 #
edge $-1 $216 -31.203599247966633 $217 31.203599247966633 $130 $218 forward 7 unknown #
face $-1 $219 $220 $31 $-1 $221 reversed single #
loop $-1 $-1 $222 $84 #
plane-surface $-1 0 0 -7.3474681953676368 0 0 1 1 0 0 forward_v I I I I #
coedge $-1 $223 $224 $225 $226 reversed $85 $-1 #
coedge $-1 $227 $87 $224 $228 forward $54 $-1 #
coedge $-1 $87 $227 $229 $230 reversed $54 $-1 #
coedge $-1 $231 $225 $87 $139 forward $220 $-1 #
edge $-1 $232 9.6037019117823696 $233 17.601165528050299 $138 $234 forward 7 unknown #
face $-1 $235 $236 $32 $-1 $237 reversed single #
loop $-1 $-1 $146 $88 #
plane-surface $-1 73.826715903195293 0 0 -1 0 0 0 0 1 forward_v I I I I #
coedge $-1 $238 $239 $240 $241 reversed $89 $-1 #
coedge $-1 $242 $91 $243 $244 reversed $57 $-1 #
coedge $-1 $91 $242 $239 $245 forward $57 $-1 #
coedge $-1 $246 $247 $91 $147 forward $141 $-1 #
edge $-1 $248 -17.601165528050302 $249 -9.6037019117823714 $146 $250 forward 7 unknown #
face $-1 $251 $252 $33 $-1 $253 forward single #
loop $-1 $-1 $254 $92 #
plane-surface $-1 66.539232658056449 -7.022563723831265 209.61967382267588 0 1 0 0.68199836817093118 0 0.7313536940579346 forward_v I I I I #
coedge $-1 $255 $256 $257 $258 reversed $93 $-1 #
coedge $-1 $153 $95 $259 $260 reversed $60 $-1 #
coedge $-1 $95 $152 $255 $261 reversed $60 $-1 #
coedge $-1 $257 $262 $95 $155 forward $252 $-1 #
edge $-1 $263 -40.557099574167069 $264 -33.678844558028175 $154 $265 forward 7 unknown #
loop $-1 $-1 $161 $96 #
plane-surface $-1 -34.160166888739795 -3.5112818619156307 101.63279103074079 0.68199836817093118 0 0.7313536940579346 0.7313536940579346 0 -0.68199836817093118 forward_v I I I I #
loop $-1 $-1 $266 $62 #
coedge $-1 $159 $159 $160 $267 reversed $97 $-1 #
coedge $-1 $160 $160 $159 $267 forward $99 $-1 #
coedge $-1 $161 $161 $100 $162 forward $156 $-1 #
edge $-1 $268 0 $268 6.2831853071796004 $161 $269 forward 7 unknown #
face $-1 $270 $271 $35 $-1 $272 forward single #
loop $-1 $-1 $273 $101 #
plane-surface $-1 73.826715903195293 0 0 -1 0 0 0 0 1 forward_v I I I I #
coedge $-1 $274 $275 $276 $277 reversed $102 $-1 #
coedge $-1 $168 $104 $278 $279 reversed $66 $-1 #
coedge $-1 $104 $167 $280 $281 reversed $66 $-1 #
coedge $-1 $282 $273 $104 $170 forward $164 $-1 #
edge $-1 $283 -103.87644542739339 $284 -97.4623687159703 $169 $285 forward 7 unknown #
loop $-1 $-1 $176 $105 #
plane-surface $-1 -34.160166888739795 -3.5112818619156307 101.63279103074079 0.68199836817093118 0 0.7313536940579346 0.7313536940579346 0 -0.68199836817093118 forward_v I I I I #
loop $-1 $-1 $286 $68 #
coedge $-1 $174 $174 $175 $287 reversed $106 $-1 #
coedge $-1 $175 $175 $174 $287 forward $108 $-1 #
coedge $-1 $176 $176 $109 $177 forward $171 $-1 #
edge $-1 $288 0 $288 6.2831853071796004 $176 $289 forward 7 unknown #
face $-1 $290 $291 $37 $-1 $292 reversed single #
loop $-1 $-1 $293 $110 #
plane-surface $-1 -191.74799093841804 19.324202631474588 92.911514890762845 0 -1 0 0.79863551827123203 0 -0.60181501223851219 forward_v I I I I #
coedge $-1 $294 $295 $296 $297 reversed $111 $-1 #
coedge $-1 $183 $113 $298 $299 reversed $72 $-1 #
coedge $-1 $113 $182 $294 $300 reversed $72 $-1 #
coedge $-1 $296 $301 $113 $185 forward $302 $-1 #
edge $-1 $303 22.047279566013728 $304 24.530997543594836 $184 $305 forward 7 unknown #
loop $-1 $-1 $191 $114 #
plane-surface $-1 -73.826715903195279 14.90230723340235 4.0514630211415721 -0.79863551827123203 0 0.60181501223851219 0.60181501223851219 0 0.79863551827123203 forward_v I I I I #
loop $-1 $-1 $306 $74 #
coedge $-1 $189 $189 $190 $307 reversed $115 $-1 #
coedge $-1 $190 $190 $189 $307 forward $117 $-1 #
coedge $-1 $191 $191 $118 $192 forward $186 $-1 #
edge $-1 $308 0 $308 6.2831853071796004 $191 $309 forward 7 unknown #
loop $-1 $-1 $198 $119 #
plane-surface $-1 -73.826715903195279 14.90230723340235 4.0514630211415721 -0.79863551827123203 0 0.60181501223851219 0.60181501223851219 0 0.79863551827123203 forward_v I I I I #
loop $-1 $-1 $310 $77 #
coedge $-1 $196 $196 $197 $311 reversed $120 $-1 #
coedge $-1 $197 $197 $196 $311 forward $122 $-1 #
coedge $-1 $198 $198 $123 $199 forward $193 $-1 #
edge $-1 $312 0 $312 6.2831853071796004 $198 $313 forward 7 unknown #
face $-1 $314 $315 $30 $-1 $316 reversed single #
loop $-1 $-1 $317 $124 #
plane-surface $-1 -73.826715903195293 0 0 1 0 0 0 0 -1 forward_v I I I I #
coedge $-1 $318 $211 $319 $320 forward $125 $-1 #
coedge $-1 $321 $127 $318 $322 forward $81 $-1 #
coedge $-1 $127 $321 $323 $324 forward $81 $-1 #
coedge $-1 $214 $213 $127 $207 reversed $215 $-1 #
edge $-1 $325 -31.203599247966633 $326 31.203599247966633 $206 $327 forward 7 unknown #
coedge $-1 $129 $128 $328 $329 forward $51 $-1 #
coedge $-1 $330 $331 $128 $210 reversed $315 $-1 #
edge $-1 $217 -73.826715903195293 $332 73.826715903195293 $209 $333 forward 7 unknown #
coedge $-1 $203 $334 $129 $212 reversed $125 $-1 #
edge $-1 $335 -73.826715903195293 $216 73.826715903195293 $211 $336 forward 7 unknown #
coedge $-1 $206 $130 $334 $337 forward $215 $-1 #
coedge $-1 $130 $206 $330 $338 reversed $215 $-1 #
loop $-1 $-1 $213 $314 #
vertex $-1 $131 $339 #
vertex $-1 $131 $340 #
straight-curve $-1 73.826715903195293 0 7.3474681953676368 0 1 0 I I #
face $-1 $341 $342 $31 $-1 $343 reversed single #
loop $-1 $-1 $225 $132 #
plane-surface $-1 73.826715903195293 0 0 -1 0 0 0 0 1 forward_v I I I I #
coedge $-1 $344 $345 $223 $346 forward $133 $-1 #
coedge $-1 $347 $135 $222 $346 reversed $85 $-1 #
coedge $-1 $135 $347 $136 $228 reversed $85 $-1 #
coedge $-1 $138 $348 $135 $226 forward $220 $-1 #
edge $-1 $349 -4.575994760884921 $232 -0.9669521080805108 $225 $350 forward 7 unknown #
coedge $-1 $137 $136 $351 $352 reversed $54 $-1 #
edge $-1 $232 -73.826715903195293 $353 73.826715903195293 $224 $354 forward 7 unknown #
coedge $-1 $355 $356 $137 $230 forward $342 $-1 #
edge $-1 $233 -73.826715903195293 $357 73.826715903195293 $229 $358 forward 7 unknown #
coedge $-1 $348 $138 $356 $359 forward $220 $-1 #
vertex $-1 $139 $360 #
vertex $-1 $359 $361 #
straight-curve $-1 73.826715903195293 -13.602433719916334 -3.7384255425632267 0 -1 0 I I #
face $-1 $362 $363 $32 $-1 $364 reversed single #
loop $-1 $-1 $365 $140 #
plane-surface $-1 0 0 -7.3474681953676368 0 0 1 1 0 0 forward_v I I I I #
coedge $-1 $366 $143 $365 $367 reversed $89 $-1 #
coedge $-1 $143 $366 $145 $245 reversed $89 $-1 #
coedge $-1 $368 $369 $143 $241 forward $363 $-1 #
edge $-1 $370 -4.575994760884921 $371 -0.9669521080805108 $240 $372 forward 7 unknown #
coedge $-1 $145 $144 $368 $373 reversed $57 $-1 #
coedge $-1 $374 $375 $144 $244 forward $376 $-1 #
edge $-1 $377 -73.826715903195293 $248 73.826715903195293 $243 $378 forward 7 unknown #
edge $-1 $371 -73.826715903195293 $249 73.826715903195293 $239 $379 forward 7 unknown #
coedge $-1 $380 $146 $366 $381 forward $141 $-1 #
coedge $-1 $146 $380 $374 $382 reversed $141 $-1 #
vertex $-1 $382 $383 #
vertex $-1 $147 $384 #
straight-curve $-1 73.826715903195293 13.602433719916336 -3.7384255425632267 0 -1 0 I I #
face $-1 $-1 $385 $33 $-1 $386 reversed single #
loop $-1 $-1 $154 $148 #
plane-surface $-1 0 0 7.3474681953676368 0 0 1 1 0 0 forward_v I I I I #
coedge $-1 $387 $388 $389 $390 reversed $149 $-1 #
coedge $-1 $391 $151 $153 $261 forward $93 $-1 #
coedge $-1 $151 $391 $387 $392 forward $93 $-1 #
coedge $-1 $389 $154 $151 $258 forward $252 $-1 #
edge $-1 $264 -1.7556409309578189 $393 5.2669227928734497 $257 $394 forward 7 unknown #
coedge $-1 $395 $396 $152 $260 forward $385 $-1 #
edge $-1 $397 -103.87644542739339 $263 -97.4623687159703 $259 $398 forward 7 unknown #
edge $-1 $264 138.24860474115115 $397 147.65343180639059 $153 $399 forward 7 unknown #
coedge $-1 $154 $389 $395 $400 forward $252 $-1 #
vertex $-1 $260 $401 #
vertex $-1 $155 $402 #
straight-curve $-1 33.269616329028224 3.5527136788005009e-015 7.3474681953676395 -1 0 0 I I #
coedge $-1 $266 $266 $-1 $403 reversed $158 $-1 #
edge $-1 $404 0 $404 6.2831853071796004 $159 $405 forward 7 unknown #
vertex $-1 $162 $406 #
ellipse-curve $-1 70.387588395125846 -3.5112818619156307 4.1404298396560861 0.68199836817093118 0 0.7313536940579346 0.7313536940579346 0 -0.68199836817093118 1 I I #
face $-1 $-1 $407 $35 $-1 $408 forward single #
loop $-1 $-1 $409 $163 #
plane-surface $-1 66.539232658056449 3.5527136788005009e-015 209.61967382267588 0 -1 0 -0.68199836817093118 0 -0.7313536940579346 forward_v I I I I #
coedge $-1 $169 $410 $275 $411 forward $164 $-1 #
coedge $-1 $278 $166 $412 $413 reversed $102 $-1 #
coedge $-1 $166 $278 $273 $411 reversed $102 $-1 #
coedge $-1 $414 $409 $166 $277 forward $271 $-1 #
edge $-1 $415 138.24860474115115 $416 147.65343180639059 $276 $417 forward 7 unknown #
coedge $-1 $275 $274 $167 $279 forward $102 $-1 #
edge $-1 $418 138.24860474115115 $283 147.65343180639059 $167 $419 forward 7 unknown #
coedge $-1 $412 $420 $168 $281 forward $407 $-1 #
edge $-1 $284 -40.557099574167069 $418 -33.678844558028175 $280 $421 forward 7 unknown #
coedge $-1 $410 $169 $420 $422 reversed $164 $-1 #
vertex $-1 $170 $423 #
vertex $-1 $170 $424 #
straight-curve $-1 73.826715903195293 7.0225637238312721 104.80983691133794 0 0 1 I I #
coedge $-1 $286 $286 $-1 $425 reversed $173 $-1 #
edge $-1 $426 0 $426 6.2831853071796004 $174 $427 forward 7 unknown #
vertex $-1 $177 $428 #
ellipse-curve $-1 70.387588395125846 3.5112818619156378 4.1404298396560861 0.68199836817093118 0 0.7313536940579346 0.7313536940579346 0 -0.68199836817093118 1 I I #
face $-1 $-1 $302 $37 $-1 $429 forward single #
loop $-1 $-1 $430 $178 #
plane-surface $-1 -73.826715903195293 0 0 1 0 0 0 0 -1 forward_v I I I I #
coedge $-1 $431 $432 $433 $434 reversed $179 $-1 #
coedge $-1 $435 $181 $183 $300 forward $111 $-1 #
coedge $-1 $181 $435 $431 $436 forward $111 $-1 #
coedge $-1 $433 $184 $181 $297 forward $302 $-1 #
edge $-1 $304 3.0292582186289376 $437 11.873049014773413 $296 $438 forward 7 unknown #
coedge $-1 $439 $440 $182 $299 forward $291 $-1 #
edge $-1 $441 -42.404294424239872 $303 -39.108289250013783 $298 $442 forward 7 unknown #
edge $-1 $304 -4.1270455656176743 $441 2.3448253187574213e-014 $183 $443 forward 7 unknown #
coedge $-1 $184 $433 $439 $444 forward $302 $-1 #
loop $-1 $-1 $433 $290 #
vertex $-1 $299 $445 #
vertex $-1 $185 $446 #
straight-curve $-1 -95.873995469209021 10.480411835330113 7.3474681953676395 1 0 0 I I #
coedge $-1 $306 $306 $-1 $447 reversed $188 $-1 #
edge $-1 $448 0 $448 6.2831853071796004 $189 $449 forward 7 unknown #
vertex $-1 $192 $450 #
ellipse-curve $-1 -72.584856914404725 13.007209205657109 5.6994656082546005 -0.79863551827123203 0 0.60181501223851219 0.3009075061192561 0 0.39931775913561601 1 I I #
coedge $-1 $310 $310 $-1 $451 reversed $195 $-1 #
edge $-1 $452 0 $452 6.2831853071796004 $196 $453 forward 7 unknown #
vertex $-1 $199 $454 #
ellipse-curve $-1 -72.584856914404725 16.797405261147599 5.6994656082546005 -0.79863551827123203 0 0.60181501223851219 0.3009075061192561 0 0.39931775913561601 1 I I #
face $-1 $-1 $215 $30 $-1 $455 reversed single #
loop $-1 $-1 $330 $200 #
plane-surface $-1 0 31.203599247966633 0 0 -1 0 0 0 -1 forward_v I I I I #
coedge $-1 $456 $328 $331 $457 forward $201 $-1 #
coedge $-1 $334 $203 $204 $322 reversed $125 $-1 #
coedge $-1 $328 $456 $203 $320 reversed $201 $-1 #
edge $-1 $335 -7.3474681953676368 $458 7.3474681953676368 $319 $459 forward 7 unknown #
coedge $-1 $205 $204 $456 $460 forward $81 $-1 #
edge $-1 $326 -73.826715903195293 $458 73.826715903195293 $318 $461 forward 7 unknown #
coedge $-1 $331 $330 $205 $324 reversed $315 $-1 #
edge $-1 $462 -73.826715903195293 $325 73.826715903195293 $323 $463 forward 7 unknown #
vertex $-1 $207 $464 #
vertex $-1 $337 $465 #
straight-curve $-1 73.826715903195293 0 -7.3474681953676368 0 -1 0 I I #
coedge $-1 $317 $319 $208 $329 reversed $201 $-1 #
edge $-1 $332 -31.203599247966633 $335 31.203599247966633 $328 $466 forward 7 unknown #
coedge $-1 $323 $209 $214 $338 forward $315 $-1 #
coedge $-1 $209 $323 $317 $457 reversed $315 $-1 #
vertex $-1 $210 $467 #
straight-curve $-1 0 31.203599247966633 7.3474681953676368 -1 0 0 I I #
coedge $-1 $211 $318 $213 $337 reversed $125 $-1 #
vertex $-1 $329 $468 #
straight-curve $-1 0 -31.203599247966633 7.3474681953676368 1 0 0 I I #
edge $-1 $216 -7.3474681953676368 $326 7.3474681953676368 $213 $469 forward 7 unknown #
edge $-1 $217 -7.3474681953676368 $325 7.3474681953676368 $214 $470 forward 7 unknown #
point $-1 73.826715903195293 -31.203599247966633 7.3474681953676368 #
point $-1 73.826715903195293 31.203599247966633 7.3474681953676368 #
face $-1 $-1 $471 $31 $-1 $472 reversed single #
loop $-1 $-1 $229 $219 #
plane-surface $-1 0 -31.203599247966633 0 0 1 0 0 0 1 forward_v I I I I #
coedge $-1 $473 $222 $348 $474 forward $133 $-1 #
coedge $-1 $222 $473 $475 $476 forward $133 $-1 #
edge $-1 $477 -73.826715903195293 $349 73.826715903195293 $222 $478 forward 7 unknown #
coedge $-1 $224 $223 $479 $480 reversed $85 $-1 #
coedge $-1 $225 $231 $344 $474 reversed $220 $-1 #
vertex $-1 $474 $481 #
straight-curve $-1 73.826715903195293 -23.206135631698704 -2.7714734344827159 0 0 1 I I #
coedge $-1 $479 $482 $227 $352 forward $471 $-1 #
edge $-1 $357 -17.601165528050299 $353 -9.6037019117823696 $351 $483 forward 7 unknown #
vertex $-1 $352 $484 #
straight-curve $-1 0 -23.206135631698704 -3.7384255425632267 -1 0 0 I I #
coedge $-1 $485 $229 $482 $486 forward $342 $-1 #
coedge $-1 $229 $485 $231 $359 reversed $342 $-1 #
vertex $-1 $486 $487 #
straight-curve $-1 0 -31.203599247966633 -3.7384255425632267 -1 0 0 I I #
edge $-1 $233 3.7384255425632267 $488 7.3474681953676368 $231 $489 forward 7 unknown #
point $-1 73.826715903195293 -23.206135631698704 -3.7384255425632267 #
point $-1 73.826715903195293 -31.203599247966633 -3.7384255425632267 #
face $-1 $-1 $376 $32 $-1 $490 reversed single #
loop $-1 $-1 $368 $235 #
plane-surface $-1 -73.826715903195293 0 0 1 0 0 0 0 -1 forward_v I I I I #
coedge $-1 $491 $492 $238 $367 forward $236 $-1 #
coedge $-1 $239 $238 $246 $381 reversed $89 $-1 #
edge $-1 $493 -73.826715903195293 $370 73.826715903195293 $365 $494 forward 7 unknown #
coedge $-1 $495 $240 $242 $373 forward $363 $-1 #
coedge $-1 $240 $495 $491 $496 reversed $363 $-1 #
vertex $-1 $496 $497 #
vertex $-1 $373 $498 #
straight-curve $-1 -73.826715903195293 23.206135631698707 -2.7714734344827159 0 0 1 I I #
edge $-1 $371 9.6037019117823714 $377 17.601165528050302 $368 $499 forward 7 unknown #
coedge $-1 $500 $243 $247 $382 forward $376 $-1 #
coedge $-1 $243 $500 $495 $501 reversed $376 $-1 #
loop $-1 $-1 $243 $362 #
vertex $-1 $501 $502 #
straight-curve $-1 0 31.203599247966633 -3.7384255425632267 1 0 0 I I #
straight-curve $-1 0 23.206135631698707 -3.7384255425632267 1 0 0 I I #
coedge $-1 $247 $246 $492 $503 reversed $141 $-1 #
edge $-1 $249 0.9669521080805108 $493 4.575994760884921 $246 $504 forward 7 unknown #
edge $-1 $248 3.7384255425632267 $505 7.3474681953676368 $247 $506 forward 7 unknown #
point $-1 73.826715903195293 31.203599247966636 -3.7384255425632267 #
point $-1 73.826715903195293 23.206135631698707 -3.7384255425632267 #
loop $-1 $-1 $259 $251 #
plane-surface $-1 73.826715903195293 0 0 -1 0 0 0 0 1 forward_v I I I I #
coedge $-1 $388 $254 $256 $392 reversed $149 $-1 #
coedge $-1 $254 $387 $507 $508 reversed $149 $-1 #
coedge $-1 $262 $257 $254 $390 forward $252 $-1 #
edge $-1 $393 33.678844558028175 $509 40.557099574167069 $389 $510 forward 7 unknown #
coedge $-1 $256 $255 $396 $511 reversed $93 $-1 #
edge $-1 $512 -147.65343180639059 $393 -138.24860474115115 $387 $513 forward 7 unknown #
vertex $-1 $258 $514 #
straight-curve $-1 66.948460887056399 -1.7556409309578154 7.3474681953676395 0 -1 0 I I #
coedge $-1 $507 $259 $262 $400 reversed $385 $-1 #
coedge $-1 $259 $507 $391 $511 forward $385 $-1 #
vertex $-1 $260 $515 #
straight-curve $-1 73.826715903195293 3.5527136788005009e-015 104.80983691133794 0 0 1 I I #
straight-curve $-1 -34.160166888739795 3.5527136788005009e-015 101.63279103074079 0.7313536940579346 0 -0.68199836817093118 I I #
edge $-1 $509 -7.022563723831265 $263 3.5527136788005009e-015 $395 $516 forward 7 unknown #
point $-1 73.826715903195293 3.5527136788005009e-015 7.3474681953676368 #
point $-1 66.948460887056399 3.5527136788005009e-015 7.3474681953676395 #
edge $-1 $517 1 $517 0 $266 $-1 forward 7 unknown #
vertex $-1 $267 $518 #
ellipse-curve $-1 68.002394480649315 -3.5112818619156307 1.5826225752848779 0.68199836817093118 0 0.7313536940579346 0.7313536940579346 0 -0.68199836817093118 1 I I #
point $-1 71.118942089183776 -3.5112818619156307 3.4584314714851492 #
loop $-1 $-1 $412 $270 #
plane-surface $-1 0 0 7.3474681953676368 0 0 1 1 0 0 forward_v I I I I #
coedge $-1 $276 $414 $519 $520 reversed $271 $-1 #
coedge $-1 $273 $282 $414 $521 forward $164 $-1 #
edge $-1 $416 1.7556409309578189 $283 8.7782046547890875 $273 $522 forward 7 unknown #
coedge $-1 $519 $280 $274 $413 forward $407 $-1 #
edge $-1 $418 -8.7782046547890875 $415 -1.7556409309578189 $412 $523 forward 7 unknown #
coedge $-1 $409 $276 $410 $521 reversed $271 $-1 #
vertex $-1 $413 $524 #
vertex $-1 $411 $525 #
straight-curve $-1 -34.160166888739795 3.5527136788005009e-015 101.63279103074079 0.7313536940579346 0 -0.68199836817093118 I I #
vertex $-1 $281 $526 #
straight-curve $-1 -34.160166888739795 7.0225637238312721 101.63279103074079 0.7313536940579346 0 -0.68199836817093118 I I #
coedge $-1 $280 $519 $282 $422 forward $407 $-1 #
straight-curve $-1 33.269616329028224 7.0225637238312721 7.3474681953676395 -1 0 0 I I #
edge $-1 $527 3.5527136788005009e-015 $284 7.0225637238312721 $282 $528 forward 7 unknown #
point $-1 73.826715903195293 7.0225637238312721 0.93339148394454696 #
point $-1 73.826715903195293 7.0225637238312721 7.3474681953676368 #
edge $-1 $529 1 $529 0 $286 $-1 forward 7 unknown #
vertex $-1 $287 $530 #
ellipse-curve $-1 68.002394480649315 3.5112818619156378 1.5826225752848779 0.68199836817093118 0 0.7313536940579346 0.7313536940579346 0 -0.68199836817093118 1 I I #
point $-1 71.118942089183776 3.5112818619156378 3.4584314714851492 #
plane-surface $-1 0 0 7.3474681953676368 0 0 1 1 0 0 forward_v I I I I #
coedge $-1 $440 $439 $432 $531 forward $291 $-1 #
coedge $-1 $432 $293 $295 $436 reversed $179 $-1 #
coedge $-1 $293 $431 $430 $531 reversed $179 $-1 #
coedge $-1 $301 $296 $293 $434 forward $302 $-1 #
edge $-1 $437 -24.530997543594836 $532 -22.047279566013728 $433 $533 forward 7 unknown #
coedge $-1 $295 $294 $440 $534 reversed $111 $-1 #
edge $-1 $535 -2.3448253187574213e-014 $437 4.1270455656176743 $431 $536 forward 7 unknown #
vertex $-1 $297 $537 #
straight-curve $-1 -71.342997925614171 7.4511536167011752 7.3474681953676377 0 1 0 I I #
coedge $-1 $430 $298 $301 $444 reversed $291 $-1 #
coedge $-1 $298 $430 $435 $534 forward $291 $-1 #
vertex $-1 $299 $538 #
straight-curve $-1 -73.826715903195293 10.480411835330113 46.455757445381423 0 0 1 I I #
straight-curve $-1 -73.826715903195279 10.480411835330113 4.0514630211415721 -0.60181501223851219 0 -0.79863551827123203 I I #
edge $-1 $532 -19.324202631474588 $303 -10.480411835330113 $439 $539 forward 7 unknown #
point $-1 -73.826715903195293 10.480411835330113 7.3474681953676368 #
point $-1 -71.342997925614185 10.480411835330113 7.3474681953676368 #
edge $-1 $540 1 $540 0 $306 $-1 forward 7 unknown #
vertex $-1 $307 $541 #
ellipse-curve $-1 -71.158027425128452 13.007209205657109 4.6242724983740944 -0.79863551827123203 0 0.60181501223851219 0.3009075061192561 0 0.39931775913561601 1 I I #
point $-1 -72.283949408285494 13.007209205657109 6.0987833673902223 #
edge $-1 $542 1 $542 0 $310 $-1 forward 7 unknown #
vertex $-1 $311 $543 #
ellipse-curve $-1 -71.158027425128452 16.797405261147599 4.6242724983740944 -0.79863551827123203 0 0.60181501223851219 0.3009075061192561 0 0.39931775913561601 1 I I #
point $-1 -72.283949408285494 16.797405261147599 6.0987833673902223 #
plane-surface $-1 73.826715903195293 0 0 -1 0 0 0 0 1 forward_v I I I I #
coedge $-1 $319 $317 $321 $460 reversed $201 $-1 #
edge $-1 $332 -7.3474681953676368 $462 7.3474681953676368 $331 $544 forward 7 unknown #
vertex $-1 $460 $545 #
straight-curve $-1 -73.826715903195293 -31.203599247966633 0 0 0 -1 I I #
edge $-1 $458 -31.203599247966633 $462 31.203599247966633 $456 $546 forward 7 unknown #
straight-curve $-1 0 -31.203599247966633 -7.3474681953676368 -1 0 0 I I #
vertex $-1 $324 $547 #
straight-curve $-1 0 31.203599247966633 -7.3474681953676368 1 0 0 I I #
point $-1 73.826715903195293 31.203599247966633 -7.3474681953676368 #
point $-1 73.826715903195293 -31.203599247966633 -7.3474681953676368 #
straight-curve $-1 -73.826715903195293 0 7.3474681953676368 0 -1 0 I I #
point $-1 -73.826715903195293 31.203599247966633 7.3474681953676368 #
point $-1 -73.826715903195293 -31.203599247966633 7.3474681953676368 #
straight-curve $-1 73.826715903195293 -31.203599247966633 0 0 0 -1 I I #
straight-curve $-1 73.826715903195293 31.203599247966633 0 0 0 -1 I I #
loop $-1 $-1 $479 $341 #
plane-surface $-1 -73.826715903195293 0 0 1 0 0 0 0 -1 forward_v I I I I #
coedge $-1 $345 $344 $485 $548 forward $133 $-1 #
edge $-1 $349 23.206135631698704 $488 31.203599247966633 $348 $549 forward 7 unknown #
coedge $-1 $482 $479 $345 $476 reversed $471 $-1 #
edge $-1 $550 -31.203599247966633 $477 -23.206135631698704 $475 $551 forward 7 unknown #
vertex $-1 $480 $552 #
straight-curve $-1 0 -23.206135631698704 -7.3474681953676368 1 0 0 I I #
coedge $-1 $475 $351 $347 $480 forward $471 $-1 #
edge $-1 $353 0.9669521080805108 $477 4.575994760884921 $479 $553 forward 7 unknown #
point $-1 73.826715903195293 -23.206135631698704 -7.3474681953676368 #
coedge $-1 $351 $475 $355 $486 reversed $471 $-1 #
straight-curve $-1 -73.826715903195293 -13.602433719916334 -3.7384255425632267 0 1 0 I I #
point $-1 -73.826715903195293 -23.206135631698704 -3.7384255425632267 #
coedge $-1 $356 $355 $473 $548 reversed $342 $-1 #
edge $-1 $357 3.7384255425632267 $550 7.3474681953676368 $482 $554 forward 7 unknown #
point $-1 -73.826715903195293 -31.203599247966633 -3.7384255425632267 #
vertex $-1 $359 $555 #
straight-curve $-1 73.826715903195293 -31.203599247966633 0 0 0 -1 I I #
plane-surface $-1 0 31.203599247966633 0 0 -1 0 0 0 -1 forward_v I I I I #
coedge $-1 $556 $365 $369 $496 forward $236 $-1 #
coedge $-1 $365 $556 $380 $503 forward $236 $-1 #
vertex $-1 $367 $557 #
straight-curve $-1 0 23.206135631698707 -7.3474681953676368 -1 0 0 I I #
coedge $-1 $369 $368 $375 $501 forward $363 $-1 #
edge $-1 $370 23.206135631698707 $558 31.203599247966633 $369 $559 forward 7 unknown #
point $-1 -73.826715903195293 23.206135631698707 -7.3474681953676368 #
point $-1 -73.826715903195293 23.206135631698707 -3.7384255425632267 #
straight-curve $-1 -73.826715903195293 13.602433719916336 -3.7384255425632267 0 1 0 I I #
coedge $-1 $375 $374 $556 $560 reversed $376 $-1 #
edge $-1 $377 3.7384255425632267 $558 7.3474681953676368 $375 $561 forward 7 unknown #
point $-1 -73.826715903195293 31.203599247966636 -3.7384255425632267 #
edge $-1 $505 -31.203599247966633 $493 -23.206135631698707 $380 $562 forward 7 unknown #
straight-curve $-1 73.826715903195293 23.206135631698707 -2.7714734344827159 0 0 -1 I I #
vertex $-1 $503 $563 #
straight-curve $-1 73.826715903195293 31.203599247966633 0 0 0 -1 I I #
coedge $-1 $396 $395 $388 $508 forward $385 $-1 #
edge $-1 $509 97.4623687159703 $512 103.87644542739339 $507 $564 forward 7 unknown #
vertex $-1 $400 $565 #
straight-curve $-1 33.269616329028224 -7.022563723831265 7.3474681953676395 1 0 0 I I #
edge $-1 $512 -5.2669227928734497 $397 1.7556409309578189 $396 $566 forward 7 unknown #
vertex $-1 $511 $567 #
straight-curve $-1 -34.160166888739795 -7.022563723831265 101.63279103074079 -0.7313536940579346 0 0.68199836817093118 I I #
point $-1 66.948460887056399 -7.022563723831265 7.3474681953676395 #
point $-1 73.826715903195293 3.5527136788005009e-015 0.93339148394454696 #
straight-curve $-1 73.826715903195293 0 7.3474681953676368 0 1 0 I I #
vertex $-1 $403 $568 #
point $-1 68.733748174707259 -3.5112818619156307 0.90062420711394675 #
coedge $-1 $420 $412 $409 $520 forward $407 $-1 #
edge $-1 $415 33.678844558028175 $527 40.557099574167069 $519 $569 forward 7 unknown #
edge $-1 $527 97.4623687159703 $416 103.87644542739339 $410 $570 forward 7 unknown #
straight-curve $-1 73.826715903195293 -1.7556409309578154 0.93339148394455407 0 1 0 I I #
straight-curve $-1 66.948460887056399 -1.7556409309578154 7.3474681953676395 0 -1 0 I I #
point $-1 66.948460887056399 3.5527136788005009e-015 7.3474681953676395 #
point $-1 73.826715903195293 3.5527136788005009e-015 0.93339148394454696 #
point $-1 66.948460887056399 7.0225637238312721 7.3474681953676395 #
vertex $-1 $422 $571 #
straight-curve $-1 73.826715903195293 0 7.3474681953676368 0 1 0 I I #
vertex $-1 $425 $572 #
point $-1 68.733748174707259 3.5112818619156378 0.90062420711394675 #
edge $-1 $532 39.108289250013783 $535 42.404294424239872 $430 $573 forward 7 unknown #
vertex $-1 $444 $574 #
straight-curve $-1 -95.873995469209021 19.324202631474588 7.3474681953676395 -1 0 0 I I #
edge $-1 $535 -11.873049014773413 $441 -3.0292582186289376 $440 $575 forward 7 unknown #
vertex $-1 $534 $576 #
straight-curve $-1 -73.826715903195279 19.324202631474588 4.0514630211415721 0.60181501223851219 0 0.79863551827123203 I I #
point $-1 -71.342997925614185 19.324202631474588 7.3474681953676368 #
point $-1 -73.826715903195293 10.480411835330113 4.0514630211415534 #
straight-curve $-1 -73.826715903195293 0 7.3474681953676368 0 -1 0 I I #
vertex $-1 $447 $577 #
point $-1 -70.857119919009193 13.007209205657109 5.0235902575097109 #
vertex $-1 $451 $578 #
point $-1 -70.857119919009193 16.797405261147599 5.0235902575097109 #
straight-curve $-1 -73.826715903195293 31.203599247966633 0 0 0 -1 I I #
point $-1 -73.826715903195293 -31.203599247966633 -7.3474681953676368 #
straight-curve $-1 -73.826715903195293 0 -7.3474681953676368 0 1 0 I I #
point $-1 -73.826715903195293 31.203599247966633 -7.3474681953676368 #
edge $-1 $488 -73.826715903195293 $550 73.826715903195293 $485 $579 forward 7 unknown #
straight-curve $-1 73.826715903195293 0 -7.3474681953676368 0 -1 0 I I #
vertex $-1 $476 $580 #
straight-curve $-1 -73.826715903195293 0 -7.3474681953676368 0 1 0 I I #
point $-1 -73.826715903195293 -23.206135631698704 -7.3474681953676368 #
straight-curve $-1 -73.826715903195293 -23.206135631698704 -2.7714734344827159 0 0 -1 I I #
straight-curve $-1 -73.826715903195293 -31.203599247966633 0 0 0 -1 I I #
point $-1 73.826715903195293 -31.203599247966633 -7.3474681953676368 #
coedge $-1 $492 $491 $500 $560 forward $236 $-1 #
point $-1 73.826715903195293 23.206135631698707 -7.3474681953676368 #
vertex $-1 $560 $581 #
straight-curve $-1 -73.826715903195293 0 -7.3474681953676368 0 1 0 I I #
edge $-1 $558 -73.826715903195293 $505 73.826715903195293 $500 $582 forward 7 unknown #
straight-curve $-1 -73.826715903195293 31.203599247966633 0 0 0 -1 I I #
straight-curve $-1 73.826715903195293 0 -7.3474681953676368 0 -1 0 I I #
point $-1 73.826715903195293 31.203599247966633 -7.3474681953676368 #
straight-curve $-1 73.826715903195293 -7.022563723831265 104.80983691133794 0 0 -1 I I #
point $-1 73.826715903195293 -7.022563723831265 7.3474681953676368 #
straight-curve $-1 73.826715903195293 -1.7556409309578154 0.93339148394455407 0 1 0 I I #
point $-1 73.826715903195293 -7.022563723831265 0.93339148394454696 #
point $-1 67.320396112478392 -3.5112818619156307 0.85126888122694333 #
straight-curve $-1 33.269616329028224 3.5527136788005009e-015 7.3474681953676395 1 0 0 I I #
straight-curve $-1 73.826715903195293 3.5527136788005009e-015 104.80983691133794 0 0 -1 I I #
point $-1 73.826715903195293 3.5527136788005009e-015 7.3474681953676368 #
point $-1 67.320396112478392 3.5112818619156378 0.85126888122694333 #
straight-curve $-1 -73.826715903195293 19.324202631474588 46.455757445381423 0 0 -1 I I #
point $-1 -73.826715903195293 19.324202631474588 7.3474681953676368 #
straight-curve $-1 -73.826715903195293 7.4511536167011752 4.0514630211415614 0 -1 0 I I #
point $-1 -73.826715903195293 19.324202631474588 4.0514630211415534 #
point $-1 -70.758709665992839 13.007209205657109 4.3233649922548389 #
point $-1 -70.758709665992839 16.797405261147599 4.3233649922548389 #
straight-curve $-1 0 -31.203599247966633 -7.3474681953676368 -1 0 0 I I #
point $-1 -73.826715903195293 -31.203599247966633 -7.3474681953676368 #
point $-1 -73.826715903195293 31.203599247966633 -7.3474681953676368 #
straight-curve $-1 0 31.203599247966633 -7.3474681953676368 1 0 0 I I #
End-of-ACIS-data 