500 0 8 0           
7 Unknown 11 ACIS 5.0 NT 24 Fri Mar 26 00:51:45 1999 
-1 9.9999999999999995e-007 1e-010 
body $-1 $8 $-1 $9 #
body $-1 $10 $-1 $11 #
body $-1 $12 $-1 $13 #
body $-1 $14 $-1 $15 #
body $-1 $16 $-1 $17 #
body $-1 $18 $-1 $19 #
body $-1 $20 $-1 $21 #
body $-1 $22 $-1 $23 #
lump $-1 $-1 $24 $0 #
transform $-1 1 0 0 0 1 0 0 0 1 68.76430555131688 33.552162759924748 10.112546287445932 1 rotate no_reflect no_shear #
lump $-1 $-1 $25 $1 #
transform $-1 1 0 0 0 1 0 0 0 1 68.76430555131688 33.552162759924748 10.112546287445932 1 rotate no_reflect no_shear #
lump $-1 $-1 $26 $2 #
transform $-1 1 0 0 0 1 0 0 0 1 68.76430555131688 33.552162759924748 10.112546287445932 1 rotate no_reflect no_shear #
lump $-1 $-1 $27 $3 #
transform $-1 1 0 0 0 1 0 0 0 1 68.76430555131688 33.552162759924748 10.112546287445932 1 rotate no_reflect no_shear #
lump $-1 $-1 $28 $4 #
transform $-1 1 0 0 0 1 0 0 0 1 68.76430555131688 33.552162759924748 10.112546287445932 1 rotate no_reflect no_shear #
lump $-1 $-1 $29 $5 #
transform $-1 1 0 0 0 1 0 0 0 1 68.76430555131688 33.552162759924748 10.112546287445932 1 rotate no_reflect no_shear #
lump $-1 $-1 $30 $6 #
transform $-1 1 0 0 0 1 0 0 0 1 68.76430555131688 33.552162759924748 10.112546287445932 1 rotate no_reflect no_shear #
lump $-1 $-1 $31 $7 #
transform $-1 1 0 0 0 1 0 0 0 1 68.76430555131688 33.552162759924748 10.112546287445932 1 rotate no_reflect no_shear #
shell $-1 $-1 $-1 $32 $-1 $8 #
shell $-1 $-1 $-1 $33 $-1 $10 #
shell $-1 $-1 $-1 $34 $-1 $12 #
shell $-1 $-1 $-1 $35 $-1 $14 #
shell $-1 $-1 $-1 $36 $-1 $16 #
shell $-1 $-1 $-1 $37 $-1 $18 #
shell $-1 $-1 $-1 $38 $-1 $20 #
shell $-1 $-1 $-1 $39 $-1 $22 #
face $-1 $40 $41 $24 $-1 $42 forward single #
face $-1 $43 $44 $25 $-1 $45 reversed single #
face $-1 $46 $47 $26 $-1 $48 forward single #
face $-1 $49 $50 $27 $-1 $51 forward single #
face $-1 $52 $53 $28 $-1 $54 reversed single #
face $-1 $55 $56 $29 $-1 $57 forward single #
face $-1 $58 $59 $30 $-1 $60 reversed single #
face $-1 $61 $62 $31 $-1 $63 forward single #
face $-1 $64 $65 $24 $-1 $66 reversed single #
loop $-1 $-1 $67 $32 #
plane-surface $-1 0 0 10.112546287445932 0 0 1 1 0 0 forward_v I I I I #
face $-1 $68 $69 $25 $-1 $70 reversed single #
loop $-1 $-1 $71 $33 #
plane-surface $-1 -52.365549594436473 -120.10172315430989 107.18933754076886 -1 0 0 0 -0.62932039886446345 0.77714595512881146 forward_v I I I I #
face $-1 $72 $73 $26 $-1 $74 forward single #
loop $-1 $75 $76 $34 #
cone-surface $-1 -64.078946706493909 -27.123485250934852 4.746939162979789 0 0.62932039886446345 -0.77714595512881146 1 0 0 1 I I 0 1 1 forward I I I I #
face $-1 $77 $78 $27 $-1 $79 forward single #
loop $-1 $80 $81 $35 #
cone-surface $-1 -57.050908439259445 -27.123485250934852 4.746939162979789 0 0.62932039886446345 -0.77714595512881146 1 0 0 1 I I 0 1 1 forward I I I I #
face $-1 $82 $83 $28 $-1 $84 reversed single #
loop $-1 $-1 $85 $36 #
plane-surface $-1 -43.812164209911515 114.62316670708975 131.56342608288389 1 0 0 0 -0.84804810408105047 -0.52991925155115449 forward_v I I I I #
face $-1 $86 $87 $29 $-1 $88 forward single #
loop $-1 $89 $90 $37 #
cone-surface $-1 -30.201796960756404 30.067631607107408 5.3946520497297392 0 -0.84804810408105047 -0.52991925155115449 2 0 0 1 I I 0 1 2 forward I I I I #
face $-1 $91 $92 $30 $-1 $93 reversed single #
loop $-1 $-1 $94 $38 #
plane-surface $-1 16.5914297116013 114.62316670708975 131.56342608288389 1 0 0 0 -0.84804810408105047 -0.52991925155115449 forward_v I I I I #
face $-1 $95 $96 $31 $-1 $97 forward single #
loop $-1 $98 $99 $39 #
cone-surface $-1 30.201796960756411 30.067631607107408 5.3946520497297392 0 -0.84804810408105047 -0.52991925155115449 2 0 0 1 I I 0 1 2 forward I I I I #
face $-1 $100 $101 $24 $-1 $102 reversed single #
loop $-1 $-1 $103 $40 #
plane-surface $-1 0 0 -10.112546287445932 0 0 1 1 0 0 forward_v I I I I #
coedge $-1 $104 $105 $106 $107 forward $41 $-1 #
face $-1 $108 $109 $25 $-1 $110 forward single #
loop $-1 $-1 $111 $43 #
plane-surface $-1 -60.564927572876677 -33.552162759924741 0.30953370787368328 0 -0.62932039886446345 0.77714595512881146 1 0 0 forward_v I I I I #
coedge $-1 $112 $113 $114 $115 reversed $44 $-1 #
face $-1 $-1 $116 $26 $-1 $117 forward single #
loop $-1 $118 $119 $46 #
cone-surface $-1 -64.078946706493909 -26.433003598059223 3.8942653507353526 0 0.62932039886446345 -0.77714595512881146 0.5 0 0 1 I I -0.70710678118654746 0.70710678118654746 0.5 forward I I I I #
loop $-1 $-1 $120 $34 #
coedge $-1 $76 $76 $121 $122 reversed $47 $-1 #
face $-1 $-1 $123 $27 $-1 $124 forward single #
loop $-1 $125 $126 $49 #
cone-surface $-1 -57.050908439259445 -26.433003598059223 3.8942653507353526 0 0.62932039886446345 -0.77714595512881146 0.5 0 0 1 I I -0.70710678118654746 0.70710678118654746 0.5 forward I I I I #
loop $-1 $-1 $127 $35 #
coedge $-1 $81 $81 $128 $129 reversed $50 $-1 #
face $-1 $130 $131 $28 $-1 $132 reversed single #
loop $-1 $-1 $133 $52 #
plane-surface $-1 -30.201796960756404 -2.0077111953989117 58.684367420506419 0 0.84804810408105047 0.52991925155115449 1 0 0 forward_v I I I I #
coedge $-1 $134 $135 $136 $137 reversed $53 $-1 #
face $-1 $-1 $138 $29 $-1 $139 forward single #
loop $-1 $140 $141 $55 #
cone-surface $-1 -30.201796960756404 28.339468636624787 4.3147760103051578 0 -0.84804810408105047 -0.52991925155115449 1 0 0 1 I I -0.70710678118654746 0.70710678118654746 1 forward I I I I #
loop $-1 $-1 $142 $37 #
coedge $-1 $90 $90 $143 $144 reversed $56 $-1 #
face $-1 $145 $146 $30 $-1 $147 reversed single #
loop $-1 $-1 $148 $58 #
plane-surface $-1 30.201796960756411 -2.0077111953989117 58.684367420506419 0 0.84804810408105047 0.52991925155115449 1 0 0 forward_v I I I I #
coedge $-1 $149 $150 $151 $152 reversed $59 $-1 #
face $-1 $-1 $153 $31 $-1 $154 forward single #
loop $-1 $155 $156 $61 #
cone-surface $-1 30.201796960756411 28.339468636624787 4.3147760103051578 0 -0.84804810408105047 -0.52991925155115449 1 0 0 1 I I -0.70710678118654746 0.70710678118654746 1 forward I I I I #
loop $-1 $-1 $157 $39 #
coedge $-1 $99 $99 $158 $159 reversed $62 $-1 #
face $-1 $160 $161 $24 $-1 $162 reversed single #
loop $-1 $-1 $163 $64 #
plane-surface $-1 0 -33.552162759924748 0 0 1 0 0 0 1 forward_v I I I I #
coedge $-1 $164 $165 $166 $167 forward $65 $-1 #
coedge $-1 $168 $67 $169 $170 forward $41 $-1 #
coedge $-1 $67 $168 $171 $172 forward $41 $-1 #
coedge $-1 $173 $174 $67 $107 reversed $175 $-1 #
edge $-1 $176 -33.552162759924748 $177 33.552162759924748 $106 $178 forward 7 unknown #
face $-1 $179 $180 $25 $-1 $181 reversed single #
loop $-1 $-1 $114 $68 #
plane-surface $-1 0 0 10.112546287445932 0 0 1 1 0 0 forward_v I I I I #
coedge $-1 $182 $183 $184 $185 reversed $69 $-1 #
coedge $-1 $113 $71 $186 $187 reversed $44 $-1 #
coedge $-1 $71 $112 $182 $188 reversed $44 $-1 #
coedge $-1 $184 $189 $71 $115 forward $109 $-1 #
edge $-1 $190 26.498698817230199 $191 38.604410928323233 $114 $192 forward 7 unknown #
loop $-1 $-1 $121 $72 #
plane-surface $-1 -60.564927572876677 -33.552162759924741 0.30953370787368328 0 -0.62932039886446345 0.77714595512881146 1 0 0 forward_v I I I I #
loop $-1 $-1 $193 $46 #
coedge $-1 $119 $119 $120 $194 reversed $73 $-1 #
coedge $-1 $120 $120 $119 $194 forward $75 $-1 #
coedge $-1 $121 $121 $76 $122 forward $116 $-1 #
edge $-1 $195 6.940164834758896e-016 $195 6.2831853071796013 $121 $196 forward 7 unknown #
loop $-1 $-1 $128 $77 #
plane-surface $-1 -60.564927572876677 -33.552162759924741 0.30953370787368328 0 -0.62932039886446345 0.77714595512881146 1 0 0 forward_v I I I I #
loop $-1 $-1 $197 $49 #
coedge $-1 $126 $126 $127 $198 reversed $78 $-1 #
coedge $-1 $127 $127 $126 $198 forward $80 $-1 #
coedge $-1 $128 $128 $81 $129 forward $123 $-1 #
edge $-1 $199 6.940164834758896e-016 $199 6.2831853071796013 $128 $200 forward 7 unknown #
face $-1 $201 $202 $28 $-1 $203 forward single #
loop $-1 $-1 $204 $82 #
plane-surface $-1 -16.591429711601293 114.62316670708975 131.56342608288389 -1 0 0 0 0.84804810408105047 0.52991925155115449 forward_v I I I I #
coedge $-1 $205 $206 $207 $208 reversed $83 $-1 #
coedge $-1 $135 $85 $209 $210 reversed $53 $-1 #
coedge $-1 $85 $134 $205 $211 reversed $53 $-1 #
coedge $-1 $207 $212 $85 $137 forward $202 $-1 #
edge $-1 $213 23.759420593620128 $214 28.96825316645165 $136 $215 forward 7 unknown #
loop $-1 $-1 $143 $86 #
plane-surface $-1 -30.201796960756404 -2.0077111953989117 58.684367420506419 0 0.84804810408105047 0.52991925155115449 1 0 0 forward_v I I I I #
loop $-1 $-1 $216 $55 #
coedge $-1 $141 $141 $142 $217 reversed $87 $-1 #
coedge $-1 $142 $142 $141 $217 forward $89 $-1 #
coedge $-1 $143 $143 $90 $144 forward $138 $-1 #
edge $-1 $218 -9.4053830955180178e-016 $218 6.2831853071795996 $143 $219 forward 7 unknown #
face $-1 $220 $221 $30 $-1 $222 forward single #
loop $-1 $-1 $223 $91 #
plane-surface $-1 43.812164209911522 114.62316670708975 131.56342608288389 -1 0 0 0 0.84804810408105047 0.52991925155115449 forward_v I I I I #
coedge $-1 $224 $225 $226 $227 reversed $92 $-1 #
coedge $-1 $150 $94 $228 $229 reversed $59 $-1 #
coedge $-1 $94 $149 $224 $230 reversed $59 $-1 #
coedge $-1 $226 $231 $94 $152 forward $221 $-1 #
edge $-1 $232 23.759420593620128 $233 28.96825316645165 $151 $234 forward 7 unknown #
loop $-1 $-1 $158 $95 #
plane-surface $-1 30.201796960756411 -2.0077111953989117 58.684367420506419 0 0.84804810408105047 0.52991925155115449 1 0 0 forward_v I I I I #
loop $-1 $-1 $235 $61 #
coedge $-1 $156 $156 $157 $236 reversed $96 $-1 #
coedge $-1 $157 $157 $156 $236 forward $98 $-1 #
coedge $-1 $158 $158 $99 $159 forward $153 $-1 #
edge $-1 $237 -9.4053830955180178e-016 $237 6.2831853071795996 $158 $238 forward 7 unknown #
face $-1 $239 $240 $24 $-1 $241 reversed single #
loop $-1 $-1 $242 $100 #
plane-surface $-1 -68.76430555131688 0 0 1 0 0 0 0 -1 forward_v I I I I #
coedge $-1 $243 $171 $244 $245 forward $101 $-1 #
coedge $-1 $246 $103 $243 $247 forward $65 $-1 #
coedge $-1 $103 $246 $248 $249 forward $65 $-1 #
coedge $-1 $174 $173 $103 $167 reversed $175 $-1 #
edge $-1 $250 -33.552162759924748 $251 33.552162759924748 $166 $252 forward 7 unknown #
coedge $-1 $105 $104 $253 $254 forward $41 $-1 #
coedge $-1 $255 $256 $104 $170 reversed $240 $-1 #
edge $-1 $177 -68.76430555131688 $257 68.76430555131688 $169 $258 forward 7 unknown #
coedge $-1 $163 $259 $105 $172 reversed $101 $-1 #
edge $-1 $260 -68.76430555131688 $176 68.76430555131688 $171 $261 forward 7 unknown #
coedge $-1 $166 $106 $259 $262 forward $175 $-1 #
coedge $-1 $106 $166 $255 $263 reversed $175 $-1 #
loop $-1 $-1 $173 $239 #
vertex $-1 $107 $264 #
vertex $-1 $107 $265 #
straight-curve $-1 68.76430555131688 0 10.112546287445932 0 1 0 I I #
face $-1 $-1 $266 $25 $-1 $267 reversed single #
loop $-1 $-1 $268 $108 #
plane-surface $-1 -68.76430555131688 0 0 1 0 0 0 0 -1 forward_v I I I I #
coedge $-1 $269 $111 $113 $188 forward $69 $-1 #
coedge $-1 $111 $269 $268 $270 reversed $69 $-1 #
coedge $-1 $271 $114 $111 $185 forward $109 $-1 #
edge $-1 $191 22.083085807998135 $272 38.481841764878538 $184 $273 forward 7 unknown #
coedge $-1 $274 $275 $112 $187 forward $266 $-1 #
edge $-1 $276 -53.285135062510754 $190 -43.4821224829385 $186 $277 forward 7 unknown #
edge $-1 $191 -15.577140987739572 $276 9.1551213131864128e-015 $113 $278 forward 7 unknown #
coedge $-1 $114 $271 $274 $279 forward $109 $-1 #
vertex $-1 $187 $280 #
vertex $-1 $115 $281 #
straight-curve $-1 -52.365549594436473 -60.050861577154947 10.11254628744593 0 1 0 I I #
coedge $-1 $193 $193 $-1 $282 reversed $118 $-1 #
edge $-1 $283 0 $283 6.2831853071796004 $119 $284 forward 7 unknown #
vertex $-1 $122 $285 #
ellipse-curve $-1 -64.078946706493909 -27.499306704378235 5.2110399976598014 0 -0.62932039886446345 0.77714595512881146 1 0 0 1 I I #
coedge $-1 $197 $197 $-1 $286 reversed $125 $-1 #
edge $-1 $287 0 $287 6.2831853071796004 $126 $288 forward 7 unknown #
vertex $-1 $129 $289 #
ellipse-curve $-1 -57.050908439259445 -27.499306704378235 5.2110399976598014 0 -0.62932039886446345 0.77714595512881146 1 0 0 1 I I #
face $-1 $-1 $290 $28 $-1 $291 reversed single #
loop $-1 $-1 $136 $130 #
plane-surface $-1 0 0 10.112546287445932 0 0 1 1 0 0 forward_v I I I I #
coedge $-1 $292 $293 $294 $295 reversed $131 $-1 #
coedge $-1 $296 $133 $135 $211 forward $83 $-1 #
coedge $-1 $133 $296 $292 $297 forward $83 $-1 #
coedge $-1 $294 $136 $133 $208 forward $202 $-1 #
edge $-1 $214 -28.711265729533313 $298 -1.4905312312230912 $207 $299 forward 7 unknown #
coedge $-1 $300 $301 $134 $210 forward $290 $-1 #
edge $-1 $302 -64.005041653681502 $213 -55.669166753996016 $209 $303 forward 7 unknown #
edge $-1 $214 57.274841956864194 $302 67.104325519849453 $135 $304 forward 7 unknown #
coedge $-1 $136 $294 $300 $305 forward $202 $-1 #
vertex $-1 $210 $306 #
vertex $-1 $137 $307 #
straight-curve $-1 -43.812164209911515 57.311583353544876 10.11254628744593 0 -1 0 I I #
coedge $-1 $216 $216 $-1 $308 reversed $140 $-1 #
edge $-1 $309 0 $309 6.2831853071796004 $141 $310 forward 7 unknown #
vertex $-1 $144 $311 #
ellipse-curve $-1 -30.201796960756404 30.947746473508992 5.944608837603174 0 0.84804810408105047 0.52991925155115449 2 0 0 1 I I #
face $-1 $-1 $312 $30 $-1 $313 reversed single #
loop $-1 $-1 $151 $145 #
plane-surface $-1 0 0 10.112546287445932 0 0 1 1 0 0 forward_v I I I I #
coedge $-1 $314 $315 $316 $317 reversed $146 $-1 #
coedge $-1 $318 $148 $150 $230 forward $92 $-1 #
coedge $-1 $148 $318 $314 $319 forward $92 $-1 #
coedge $-1 $316 $151 $148 $227 forward $221 $-1 #
edge $-1 $233 1.4905312312230947 $320 28.711265729533316 $226 $321 forward 7 unknown #
coedge $-1 $322 $323 $149 $229 forward $312 $-1 #
edge $-1 $324 -64.005041653681502 $232 -55.669166753996016 $228 $325 forward 7 unknown #
edge $-1 $233 57.274841956864194 $324 67.104325519849453 $150 $326 forward 7 unknown #
coedge $-1 $151 $316 $322 $327 forward $221 $-1 #
vertex $-1 $152 $328 #
vertex $-1 $152 $329 #
straight-curve $-1 16.5914297116013 57.311583353544876 10.11254628744593 0 -1 0 I I #
coedge $-1 $235 $235 $-1 $330 reversed $155 $-1 #
edge $-1 $331 0 $331 6.2831853071796004 $156 $332 forward 7 unknown #
vertex $-1 $159 $333 #
ellipse-curve $-1 30.201796960756411 30.947746473508992 5.944608837603174 0 0.84804810408105047 0.52991925155115449 2 0 0 1 I I #
face $-1 $-1 $175 $24 $-1 $334 reversed single #
loop $-1 $-1 $255 $160 #
plane-surface $-1 0 33.552162759924748 0 0 -1 0 0 0 -1 forward_v I I I I #
coedge $-1 $335 $253 $256 $336 forward $161 $-1 #
coedge $-1 $259 $163 $164 $247 reversed $101 $-1 #
coedge $-1 $253 $335 $163 $245 reversed $161 $-1 #
edge $-1 $260 -10.112546287445932 $337 10.112546287445932 $244 $338 forward 7 unknown #
coedge $-1 $165 $164 $335 $339 forward $65 $-1 #
edge $-1 $251 -68.76430555131688 $337 68.76430555131688 $243 $340 forward 7 unknown #
coedge $-1 $256 $255 $165 $249 reversed $240 $-1 #
edge $-1 $341 -68.76430555131688 $250 68.76430555131688 $248 $342 forward 7 unknown #
vertex $-1 $167 $343 #
vertex $-1 $262 $344 #
straight-curve $-1 68.76430555131688 0 -10.112546287445932 0 -1 0 I I #
coedge $-1 $242 $244 $168 $254 reversed $161 $-1 #
edge $-1 $257 -33.552162759924748 $260 33.552162759924748 $253 $345 forward 7 unknown #
coedge $-1 $248 $169 $174 $263 forward $240 $-1 #
coedge $-1 $169 $248 $242 $336 reversed $240 $-1 #
vertex $-1 $170 $346 #
straight-curve $-1 0 33.552162759924748 10.112546287445932 -1 0 0 I I #
coedge $-1 $171 $243 $173 $262 reversed $101 $-1 #
vertex $-1 $254 $347 #
straight-curve $-1 0 -33.552162759924748 10.112546287445932 1 0 0 I I #
edge $-1 $176 -10.112546287445932 $251 10.112546287445932 $173 $348 forward 7 unknown #
edge $-1 $177 -10.112546287445932 $250 10.112546287445932 $174 $349 forward 7 unknown #
point $-1 68.76430555131688 -33.552162759924748 10.112546287445932 #
point $-1 68.76430555131688 33.552162759924748 10.112546287445932 #
loop $-1 $-1 $186 $179 #
plane-surface $-1 0 -33.552162759924748 0 0 1 0 0 0 1 forward_v I I I I #
coedge $-1 $350 $351 $183 $270 forward $180 $-1 #
coedge $-1 $183 $182 $275 $352 reversed $69 $-1 #
edge $-1 $272 -2.6370751386405766 $353 12.940065849099003 $268 $354 forward 7 unknown #
coedge $-1 $189 $184 $351 $355 forward $109 $-1 #
vertex $-1 $355 $356 #
straight-curve $-1 -30.282463786438338 -21.446450648831714 10.112546287445932 -1 0 0 I I #
coedge $-1 $357 $186 $189 $279 reversed $266 $-1 #
coedge $-1 $186 $357 $269 $352 forward $266 $-1 #
vertex $-1 $187 $358 #
straight-curve $-1 -52.365549594436473 -33.552162759924748 53.59466877038443 0 0 1 I I #
straight-curve $-1 -52.365549594436473 -33.552162759924741 0.30953370787368328 0 -0.77714595512881146 -0.62932039886446345 I I #
edge $-1 $359 -68.76430555131688 $190 -52.365549594436473 $274 $360 forward 7 unknown #
point $-1 -52.365549594436473 -33.552162759924748 10.112546287445932 #
point $-1 -52.365549594436473 -21.446450648831714 10.112546287445932 #
edge $-1 $361 1 $361 0 $193 $-1 forward 7 unknown #
vertex $-1 $194 $362 #
ellipse-curve $-1 -64.078946706493909 -26.747663797491455 4.282838328299758 0 -0.62932039886446345 0.77714595512881146 1 0 0 1 I I #
point $-1 -63.078946706493909 -27.499306704378249 5.2110399976598201 #
edge $-1 $363 1 $363 0 $197 $-1 forward 7 unknown #
vertex $-1 $198 $364 #
ellipse-curve $-1 -57.050908439259445 -26.747663797491455 4.282838328299758 0 -0.62932039886446345 0.77714595512881146 1 0 0 1 I I #
point $-1 -56.050908439259445 -27.499306704378249 5.2110399976598201 #
loop $-1 $-1 $209 $201 #
plane-surface $-1 0 33.552162759924748 0 0 -1 0 0 0 -1 forward_v I I I I #
coedge $-1 $293 $204 $206 $297 reversed $131 $-1 #
coedge $-1 $204 $292 $365 $366 reversed $131 $-1 #
coedge $-1 $212 $207 $204 $295 forward $202 $-1 #
edge $-1 $298 -28.96825316645165 $367 -23.759420593620128 $294 $368 forward 7 unknown #
coedge $-1 $206 $205 $301 $369 reversed $83 $-1 #
edge $-1 $370 -67.104325519849453 $298 -57.274841956864194 $292 $371 forward 7 unknown #
vertex $-1 $208 $372 #
straight-curve $-1 -15.100898480378202 28.343330187093223 10.11254628744593 1 0 0 I I #
coedge $-1 $365 $209 $212 $305 reversed $290 $-1 #
coedge $-1 $209 $365 $296 $369 forward $290 $-1 #
vertex $-1 $210 $373 #
straight-curve $-1 -43.812164209911515 33.552162759924748 65.781713041441947 0 0 1 I I #
straight-curve $-1 -43.812164209911515 -2.0077111953989117 58.684367420506419 0 0.52991925155115449 -0.84804810408105047 I I #
edge $-1 $367 16.591429711601293 $213 43.812164209911515 $300 $374 forward 7 unknown #
point $-1 -43.812164209911515 33.552162759924748 10.112546287445932 #
point $-1 -43.812164209911515 28.343330187093226 10.11254628744593 #
edge $-1 $375 1 $375 0 $216 $-1 forward 7 unknown #
vertex $-1 $217 $376 #
ellipse-curve $-1 -30.201796960756404 29.187516740705838 4.8446952618563124 0 0.84804810408105047 0.52991925155115449 2 0 0 1 I I #
point $-1 -28.201796960756404 30.947746473508975 5.9446088376031652 #
loop $-1 $-1 $228 $220 #
plane-surface $-1 0 33.552162759924748 0 0 -1 0 0 0 -1 forward_v I I I I #
coedge $-1 $315 $223 $225 $319 reversed $146 $-1 #
coedge $-1 $223 $314 $377 $378 reversed $146 $-1 #
coedge $-1 $231 $226 $223 $317 forward $221 $-1 #
edge $-1 $320 -28.96825316645165 $379 -23.759420593620128 $316 $380 forward 7 unknown #
coedge $-1 $225 $224 $323 $381 reversed $92 $-1 #
edge $-1 $382 -67.104325519849453 $320 -57.274841956864194 $314 $383 forward 7 unknown #
vertex $-1 $227 $384 #
straight-curve $-1 15.100898480378206 28.343330187093223 10.11254628744593 1 0 0 I I #
coedge $-1 $377 $228 $231 $327 reversed $312 $-1 #
coedge $-1 $228 $377 $318 $381 forward $312 $-1 #
vertex $-1 $229 $385 #
straight-curve $-1 16.5914297116013 33.552162759924748 65.781713041441947 0 0 1 I I #
straight-curve $-1 16.5914297116013 -2.0077111953989117 58.684367420506419 0 0.52991925155115449 -0.84804810408105047 I I #
edge $-1 $379 -43.812164209911522 $232 -16.5914297116013 $322 $386 forward 7 unknown #
point $-1 16.5914297116013 33.552162759924748 10.112546287445932 #
point $-1 16.5914297116013 28.343330187093226 10.11254628744593 #
edge $-1 $387 1 $387 0 $235 $-1 forward 7 unknown #
vertex $-1 $236 $388 #
ellipse-curve $-1 30.201796960756411 29.187516740705838 4.8446952618563124 0 0.84804810408105047 0.52991925155115449 2 0 0 1 I I #
point $-1 32.201796960756411 30.947746473508975 5.9446088376031652 #
plane-surface $-1 68.76430555131688 0 0 -1 0 0 0 0 1 forward_v I I I I #
coedge $-1 $244 $242 $246 $339 reversed $161 $-1 #
edge $-1 $257 -10.112546287445932 $341 10.112546287445932 $256 $389 forward 7 unknown #
vertex $-1 $339 $390 #
straight-curve $-1 -68.76430555131688 -33.552162759924748 0 0 0 -1 I I #
edge $-1 $337 -33.552162759924748 $341 33.552162759924748 $335 $391 forward 7 unknown #
straight-curve $-1 0 -33.552162759924748 -10.112546287445932 -1 0 0 I I #
vertex $-1 $249 $392 #
straight-curve $-1 0 33.552162759924748 -10.112546287445932 1 0 0 I I #
point $-1 68.76430555131688 33.552162759924748 -10.112546287445932 #
point $-1 68.76430555131688 -33.552162759924748 -10.112546287445932 #
straight-curve $-1 -68.76430555131688 0 10.112546287445932 0 -1 0 I I #
point $-1 -68.76430555131688 33.552162759924748 10.112546287445932 #
point $-1 -68.76430555131688 -33.552162759924748 10.112546287445932 #
straight-curve $-1 68.76430555131688 -33.552162759924748 0 0 0 -1 I I #
straight-curve $-1 68.76430555131688 33.552162759924748 0 0 0 -1 I I #
coedge $-1 $351 $268 $357 $393 reversed $180 $-1 #
coedge $-1 $268 $350 $271 $355 reversed $180 $-1 #
edge $-1 $353 -38.481841764878538 $276 -22.083085807998135 $275 $394 forward 7 unknown #
vertex $-1 $270 $395 #
straight-curve $-1 -68.76430555131688 -23.495842926196989 8.4529811093610849 0 -0.77714595512881146 -0.62932039886446345 I I #
edge $-1 $272 21.446450648831714 $359 33.552162759924748 $351 $396 forward 7 unknown #
point $-1 -68.76430555131688 -21.446450648831714 10.112546287445932 #
coedge $-1 $275 $274 $350 $393 forward $266 $-1 #
point $-1 -52.365549594436473 -33.552162759924748 0.30953370787367751 #
vertex $-1 $355 $397 #
straight-curve $-1 0 -33.552162759924748 10.112546287445932 1 0 0 I I #
vertex $-1 $282 $398 #
point $-1 -63.078946706493909 -26.747663797491455 4.282838328299758 #
vertex $-1 $286 $399 #
point $-1 -56.050908439259445 -26.747663797491455 4.282838328299758 #
coedge $-1 $301 $300 $293 $366 forward $290 $-1 #
edge $-1 $367 55.669166753996016 $370 64.005041653681502 $365 $400 forward 7 unknown #
vertex $-1 $305 $401 #
straight-curve $-1 -16.591429711601293 57.311583353544876 10.11254628744593 0 1 0 I I #
edge $-1 $370 1.4905312312230912 $302 28.711265729533313 $301 $402 forward 7 unknown #
vertex $-1 $369 $403 #
straight-curve $-1 -16.591429711601293 -2.0077111953989117 58.684367420506419 0 -0.52991925155115449 0.84804810408105047 I I #
point $-1 -16.591429711601293 28.343330187093226 10.11254628744593 #
point $-1 -43.812164209911515 33.552162759924748 1.7766713877604374 #
straight-curve $-1 0 33.552162759924748 10.112546287445932 -1 0 0 I I #
vertex $-1 $308 $404 #
point $-1 -28.201796960756404 29.187516740705838 4.8446952618563124 #
coedge $-1 $323 $322 $315 $378 forward $312 $-1 #
edge $-1 $379 55.669166753996016 $382 64.005041653681502 $377 $405 forward 7 unknown #
vertex $-1 $327 $406 #
straight-curve $-1 43.812164209911522 57.311583353544876 10.11254628744593 0 1 0 I I #
edge $-1 $382 -28.711265729533316 $324 -1.4905312312230947 $323 $407 forward 7 unknown #
vertex $-1 $381 $408 #
straight-curve $-1 43.812164209911522 -2.0077111953989117 58.684367420506419 0 -0.52991925155115449 0.84804810408105047 I I #
point $-1 43.812164209911522 28.343330187093226 10.11254628744593 #
point $-1 16.5914297116013 33.552162759924748 1.7766713877604374 #
straight-curve $-1 0 33.552162759924748 10.112546287445932 -1 0 0 I I #
vertex $-1 $330 $409 #
point $-1 32.201796960756411 29.187516740705838 4.8446952618563124 #
straight-curve $-1 -68.76430555131688 33.552162759924748 0 0 0 -1 I I #
point $-1 -68.76430555131688 -33.552162759924748 -10.112546287445932 #
straight-curve $-1 -68.76430555131688 0 -10.112546287445932 0 1 0 I I #
point $-1 -68.76430555131688 33.552162759924748 -10.112546287445932 #
edge $-1 $359 -10.112546287445932 $353 -0.30953370787367751 $350 $410 forward 7 unknown #
straight-curve $-1 -30.282463786438338 -33.552162759924748 0.30953370787367673 1 0 0 I I #
point $-1 -68.76430555131688 -33.552162759924748 0.30953370787367751 #
straight-curve $-1 -68.76430555131688 0 10.112546287445932 0 -1 0 I I #
point $-1 -68.76430555131688 -33.552162759924748 10.112546287445932 #
point $-1 -64.078946706493909 -26.11834339862699 3.5056923731709468 #
point $-1 -57.050908439259445 -26.11834339862699 3.5056923731709468 #
straight-curve $-1 -16.591429711601293 33.552162759924748 65.781713041441947 0 0 -1 I I #
point $-1 -16.591429711601293 33.552162759924748 10.112546287445932 #
straight-curve $-1 -15.100898480378202 33.552162759924741 1.7766713877604339 -1 0 0 I I #
point $-1 -16.591429711601293 33.552162759924748 1.7766713877604374 #
point $-1 -30.201796960756404 27.491420532543735 3.7848567587540032 #
straight-curve $-1 43.812164209911522 33.552162759924748 65.781713041441947 0 0 -1 I I #
point $-1 43.812164209911522 33.552162759924748 10.112546287445932 #
straight-curve $-1 15.100898480378206 33.552162759924741 1.7766713877604339 -1 0 0 I I #
point $-1 43.812164209911522 33.552162759924748 1.7766713877604374 #
point $-1 30.201796960756411 27.491420532543735 3.7848567587540032 #
straight-curve $-1 -68.76430555131688 -33.552162759924748 0 0 0 -1 I I #
End-of-ACIS-data 