500 0 9 0           
7 Unknown 11 ACIS 5.0 NT 24 Fri Mar 26 17:13:26 1999 
-1 9.9999999999999995e-007 1e-010 
body $-1 $9 $-1 $10 #
body $-1 $11 $-1 $12 #
body $-1 $13 $-1 $14 #
body $-1 $15 $-1 $16 #
body $-1 $17 $-1 $18 #
body $-1 $19 $-1 $20 #
body $-1 $21 $-1 $22 #
body $-1 $23 $-1 $24 #
body $-1 $25 $-1 $26 #
lump $-1 $-1 $27 $0 #
transform $-1 1 0 0 0 1 0 0 0 1 69.430829798272654 38.669753549898871 9.0113377531149581 1 rotate no_reflect no_shear #
lump $-1 $-1 $28 $1 #
transform $-1 1 0 0 0 1 0 0 0 1 69.430829798272654 38.669753549898871 9.0113377531149581 1 rotate no_reflect no_shear #
lump $-1 $-1 $29 $2 #
transform $-1 1 0 0 0 1 0 0 0 1 69.430829798272654 38.669753549898871 9.0113377531149581 1 rotate no_reflect no_shear #
lump $-1 $-1 $30 $3 #
transform $-1 1 0 0 0 1 0 0 0 1 69.430829798272654 38.669753549898871 9.0113377531149581 1 rotate no_reflect no_shear #
lump $-1 $-1 $31 $4 #
transform $-1 1 0 0 0 1 0 0 0 1 69.430829798272654 38.669753549898871 9.0113377531149581 1 rotate no_reflect no_shear #
lump $-1 $-1 $32 $5 #
transform $-1 1 0 0 0 1 0 0 0 1 69.430829798272654 38.669753549898871 9.0113377531149581 1 rotate no_reflect no_shear #
lump $-1 $-1 $33 $6 #
transform $-1 1 0 0 0 1 0 0 0 1 69.430829798272654 38.669753549898871 9.0113377531149581 1 rotate no_reflect no_shear #
lump $-1 $-1 $34 $7 #
transform $-1 1 0 0 0 1 0 0 0 1 69.430829798272654 38.669753549898871 9.0113377531149581 1 rotate no_reflect no_shear #
lump $-1 $-1 $35 $8 #
transform $-1 1 0 0 0 1 0 0 0 1 69.430829798272654 38.669753549898871 9.0113377531149581 1 rotate no_reflect no_shear #
shell $-1 $-1 $-1 $36 $-1 $9 #
shell $-1 $-1 $-1 $37 $-1 $11 #
shell $-1 $-1 $-1 $38 $-1 $13 #
shell $-1 $-1 $-1 $39 $-1 $15 #
shell $-1 $-1 $-1 $40 $-1 $17 #
shell $-1 $-1 $-1 $41 $-1 $19 #
shell $-1 $-1 $-1 $42 $-1 $21 #
shell $-1 $-1 $-1 $43 $-1 $23 #
shell $-1 $-1 $-1 $44 $-1 $25 #
face $-1 $45 $46 $27 $-1 $47 reversed single #
face $-1 $48 $49 $28 $-1 $50 forward single #
face $-1 $51 $52 $29 $-1 $53 forward single #
face $-1 $54 $55 $30 $-1 $56 reversed single #
face $-1 $57 $58 $31 $-1 $59 forward single #
face $-1 $60 $61 $32 $-1 $62 forward single #
face $-1 $63 $64 $33 $-1 $65 reversed single #
face $-1 $66 $67 $34 $-1 $68 forward single #
face $-1 $69 $70 $35 $-1 $71 forward single #
face $-1 $72 $73 $27 $-1 $74 reversed single #
loop $-1 $-1 $75 $36 #
plane-surface $-1 69.430829798272654 0 0 -1 0 0 0 0 1 forward_v I I I I #
face $-1 $76 $77 $28 $-1 $78 reversed single #
loop $-1 $-1 $79 $37 #
plane-surface $-1 -69.430829798272654 0 0 1 0 0 0 0 -1 forward_v I I I I #
face $-1 $80 $81 $29 $-1 $82 reversed single #
loop $-1 $-1 $83 $38 #
plane-surface $-1 69.430829798272654 0 0 -1 0 0 0 0 1 forward_v I I I I #
face $-1 $84 $85 $30 $-1 $86 reversed single #
loop $-1 $-1 $87 $39 #
plane-surface $-1 27.545319524626187 -110.18879633869139 124.0903546092905 -1 0 0 0 -0.51503808176128008 0.85716729658548041 forward_v I I I I #
face $-1 $88 $89 $31 $-1 $90 forward single #
loop $-1 $91 $92 $40 #
cone-surface $-1 4.1422168282245764 -34.971717818118016 6.3509905278583076 0 0.51503808176128008 -0.85716729658548041 1.5 0 0 1 I I 0 1 1.5 forward I I I I #
face $-1 $93 $94 $32 $-1 $95 forward single #
loop $-1 $96 $97 $41 #
cone-surface $-1 18.184078446065556 -34.971717818118016 6.3509905278583076 0 0.51503808176128008 -0.85716729658548041 1.5 0 0 1 I I 0 1 1.5 forward I I I I #
face $-1 $98 $99 $33 $-1 $100 reversed single #
loop $-1 $-1 $101 $42 #
plane-surface $-1 -56.399358500760513 76.810644582193163 157.32137486015574 1 0 0 0 -0.68199836817093118 -0.7313536940579346 forward_v I I I I #
face $-1 $102 $103 $34 $-1 $104 forward single #
loop $-1 $105 $106 $43 #
cone-surface $-1 -48.652834200824522 33.164644722543514 3.5571829448121259 0 -0.68199836817093118 -0.7313536940579346 2 0 0 1 I I 0 1 2 forward I I I I #
face $-1 $107 $108 $35 $-1 $109 forward single #
loop $-1 $110 $111 $44 #
cone-surface $-1 -37.033047750920531 33.164644722543514 3.5571829448121259 0 -0.68199836817093118 -0.7313536940579346 2 0 0 1 I I 0 1 2 forward I I I I #
face $-1 $112 $113 $27 $-1 $114 forward single #
loop $-1 $-1 $115 $45 #
plane-surface $-1 -69.430829798272654 0 0 1 0 0 0 0 -1 forward_v I I I I #
coedge $-1 $116 $117 $118 $119 reversed $46 $-1 #
face $-1 $120 $121 $28 $-1 $122 reversed single #
loop $-1 $-1 $123 $48 #
plane-surface $-1 0 0 -9.0113377531149581 0 0 1 1 0 0 forward_v I I I I #
coedge $-1 $124 $125 $126 $127 forward $49 $-1 #
face $-1 $128 $129 $29 $-1 $130 reversed single #
loop $-1 $-1 $131 $51 #
plane-surface $-1 0 0 -9.0113377531149581 0 0 1 1 0 0 forward_v I I I I #
coedge $-1 $132 $133 $134 $135 forward $52 $-1 #
face $-1 $136 $137 $30 $-1 $138 reversed single #
loop $-1 $-1 $139 $54 #
plane-surface $-1 11.163147637145059 -38.669753549898843 5.0626812535465291 0 -0.51503808176128008 0.85716729658548041 1 0 0 forward_v I I I I #
coedge $-1 $140 $141 $142 $143 reversed $55 $-1 #
face $-1 $-1 $144 $31 $-1 $145 forward single #
loop $-1 $146 $147 $57 #
cone-surface $-1 4.1422168282245764 -34.173237463067125 5.022096079946742 0 0.51503808176128008 -0.85716729658548041 0.75 0 0 1 I I -0.70710678118654757 0.70710678118654757 0.75 forward I I I I #
loop $-1 $-1 $148 $40 #
coedge $-1 $92 $92 $149 $150 reversed $58 $-1 #
face $-1 $-1 $151 $32 $-1 $152 forward single #
loop $-1 $153 $154 $60 #
cone-surface $-1 18.184078446065556 -34.173237463067125 5.022096079946742 0 0.51503808176128008 -0.85716729658548041 0.75 0 0 1 I I -0.70710678118654757 0.70710678118654757 0.75 forward I I I I #
loop $-1 $-1 $155 $41 #
coedge $-1 $97 $97 $156 $157 reversed $61 $-1 #
face $-1 $158 $159 $33 $-1 $160 reversed single #
loop $-1 $-1 $161 $63 #
plane-surface $-1 -42.84294097587253 -17.892780664158067 55.76438715120689 0 0.68199836817093118 0.7313536940579346 1 0 0 forward_v I I I I #
coedge $-1 $162 $163 $164 $165 reversed $64 $-1 #
face $-1 $-1 $166 $34 $-1 $167 forward single #
loop $-1 $168 $169 $66 #
cone-surface $-1 -48.652834200824522 30.190551554884564 0.3678585620085002 0 -0.68199836817093118 -0.7313536940579346 1 0 0 1 I I -0.70710678118654735 0.70710678118654768 1 forward I I I I #
loop $-1 $-1 $170 $43 #
coedge $-1 $106 $106 $171 $172 reversed $67 $-1 #
face $-1 $-1 $173 $35 $-1 $174 forward single #
loop $-1 $175 $176 $69 #
cone-surface $-1 -37.033047750920531 30.190551554884564 0.3678585620085002 0 -0.68199836817093118 -0.7313536940579346 1 0 0 1 I I -0.70710678118654735 0.70710678118654768 1 forward I I I I #
loop $-1 $-1 $177 $44 #
coedge $-1 $111 $111 $178 $179 reversed $70 $-1 #
face $-1 $180 $181 $27 $-1 $182 reversed single #
loop $-1 $-1 $183 $72 #
plane-surface $-1 0 0 9.0113377531149581 0 0 1 1 0 0 forward_v I I I I #
coedge $-1 $184 $185 $186 $187 reversed $73 $-1 #
coedge $-1 $188 $75 $189 $190 reversed $46 $-1 #
coedge $-1 $75 $188 $191 $192 forward $46 $-1 #
coedge $-1 $193 $194 $75 $119 forward $181 $-1 #
edge $-1 $195 -38.669753549898871 $196 38.669753549898871 $75 $197 forward 7 unknown #
face $-1 $198 $199 $28 $-1 $200 reversed single #
loop $-1 $-1 $201 $76 #
plane-surface $-1 -73.571851222607236 -25.817149852376176 0 0 1 0 0 0 1 forward_v I I I I #
coedge $-1 $202 $203 $125 $204 forward $77 $-1 #
coedge $-1 $205 $79 $206 $207 reversed $49 $-1 #
coedge $-1 $79 $205 $123 $204 reversed $49 $-1 #
coedge $-1 $208 $209 $79 $127 reversed $210 $-1 #
edge $-1 $211 -9.0113377531149581 $212 9.0113377531149581 $126 $213 forward 7 unknown #
face $-1 $214 $215 $29 $-1 $216 reversed single #
loop $-1 $-1 $134 $80 #
plane-surface $-1 73.571851222607236 -25.817149852376176 0 0 1 0 0 0 1 forward_v I I I I #
coedge $-1 $217 $218 $133 $219 forward $81 $-1 #
coedge $-1 $220 $83 $221 $222 reversed $52 $-1 #
coedge $-1 $83 $220 $131 $219 reversed $52 $-1 #
coedge $-1 $223 $224 $83 $135 reversed $129 $-1 #
edge $-1 $225 -9.0113377531149581 $226 9.0113377531149581 $134 $227 forward 7 unknown #
face $-1 $228 $229 $30 $-1 $230 forward single #
loop $-1 $-1 $231 $84 #
plane-surface $-1 -5.2190242503360693 -110.18879633869139 124.0903546092905 1 0 0 0 0.51503808176128008 -0.85716729658548041 forward_v I I I I #
coedge $-1 $232 $233 $234 $235 reversed $85 $-1 #
coedge $-1 $141 $87 $236 $237 reversed $55 $-1 #
coedge $-1 $87 $140 $232 $238 reversed $55 $-1 #
coedge $-1 $234 $239 $87 $143 forward $229 $-1 #
edge $-1 $240 16.424644619446823 $241 22.996312495548764 $142 $242 forward 7 unknown #
loop $-1 $-1 $149 $88 #
plane-surface $-1 11.163147637145059 -38.669753549898843 5.0626812535465291 0 -0.51503808176128008 0.85716729658548041 1 0 0 forward_v I I I I #
loop $-1 $-1 $243 $57 #
coedge $-1 $147 $147 $148 $244 reversed $89 $-1 #
coedge $-1 $148 $148 $147 $244 forward $91 $-1 #
coedge $-1 $149 $149 $92 $150 forward $144 $-1 #
edge $-1 $245 -1.6031771857865399e-015 $245 6.2831853071795987 $149 $246 forward 7 unknown #
loop $-1 $-1 $156 $93 #
plane-surface $-1 11.163147637145059 -38.669753549898843 5.0626812535465291 0 -0.51503808176128008 0.85716729658548041 1 0 0 forward_v I I I I #
loop $-1 $-1 $247 $60 #
coedge $-1 $154 $154 $155 $248 reversed $94 $-1 #
coedge $-1 $155 $155 $154 $248 forward $96 $-1 #
coedge $-1 $156 $156 $97 $157 forward $151 $-1 #
edge $-1 $249 -1.6031771857865399e-015 $249 6.2831853071795987 $156 $250 forward 7 unknown #
face $-1 $251 $252 $33 $-1 $253 reversed single #
loop $-1 $-1 $254 $98 #
plane-surface $-1 -29.286523450984546 76.810644582193163 157.32137486015574 -1 0 0 0 0.68199836817093118 0.7313536940579346 forward_v I I I I #
coedge $-1 $255 $256 $257 $258 reversed $99 $-1 #
coedge $-1 $163 $101 $259 $260 reversed $64 $-1 #
coedge $-1 $101 $162 $255 $261 reversed $64 $-1 #
coedge $-1 $257 $262 $101 $165 forward $263 $-1 #
edge $-1 $264 -0.2644312588022899 $265 6.161596796932379 $164 $266 forward 7 unknown #
loop $-1 $-1 $171 $102 #
plane-surface $-1 -42.84294097587253 -17.892780664158067 55.76438715120689 0 0.68199836817093118 0.7313536940579346 1 0 0 forward_v I I I I #
loop $-1 $-1 $267 $66 #
coedge $-1 $169 $169 $170 $268 reversed $103 $-1 #
coedge $-1 $170 $170 $169 $268 forward $105 $-1 #
coedge $-1 $171 $171 $106 $172 forward $166 $-1 #
edge $-1 $269 -2.4707674978812531e-015 $269 6.2831853071795978 $171 $270 forward 7 unknown #
loop $-1 $-1 $178 $107 #
plane-surface $-1 -42.84294097587253 -17.892780664158067 55.76438715120689 0 0.68199836817093118 0.7313536940579346 1 0 0 forward_v I I I I #
loop $-1 $-1 $271 $69 #
coedge $-1 $176 $176 $177 $272 reversed $108 $-1 #
coedge $-1 $177 $177 $176 $272 forward $110 $-1 #
coedge $-1 $178 $178 $111 $179 forward $173 $-1 #
edge $-1 $273 -2.4707674978812531e-015 $273 6.2831853071795978 $178 $274 forward 7 unknown #
face $-1 $275 $276 $27 $-1 $277 reversed single #
loop $-1 $-1 $118 $112 #
plane-surface $-1 0 0 -9.0113377531149581 0 0 1 1 0 0 forward_v I I I I #
coedge $-1 $278 $279 $188 $280 forward $113 $-1 #
coedge $-1 $281 $115 $282 $283 reversed $73 $-1 #
coedge $-1 $115 $281 $284 $285 forward $73 $-1 #
coedge $-1 $194 $193 $115 $187 forward $181 $-1 #
edge $-1 $286 -38.669753549898871 $287 38.669753549898871 $115 $288 forward 7 unknown #
coedge $-1 $117 $116 $183 $280 reversed $46 $-1 #
coedge $-1 $289 $290 $116 $190 forward $291 $-1 #
edge $-1 $292 -9.0113377531149581 $195 9.0113377531149581 $116 $293 forward 7 unknown #
coedge $-1 $294 $295 $117 $192 reversed $276 $-1 #
edge $-1 $296 -9.0113377531149581 $196 9.0113377531149581 $117 $297 forward 7 unknown #
coedge $-1 $186 $118 $295 $298 forward $181 $-1 #
coedge $-1 $118 $186 $289 $299 forward $181 $-1 #
vertex $-1 $119 $300 #
vertex $-1 $192 $301 #
straight-curve $-1 69.430829798272654 0 -9.0113377531149581 0 -1 0 I I #
face $-1 $302 $210 $28 $-1 $303 reversed single #
loop $-1 $-1 $304 $120 #
plane-surface $-1 -77.712872646941818 -23.232113948022565 0 1 0 0 0 0 -1 forward_v I I I I #
coedge $-1 $305 $306 $307 $308 forward $121 $-1 #
coedge $-1 $309 $123 $305 $310 forward $77 $-1 #
coedge $-1 $123 $309 $208 $311 forward $77 $-1 #
edge $-1 $211 20.647078043668955 $312 25.817149852376176 $123 $313 forward 7 unknown #
coedge $-1 $125 $124 $314 $315 forward $49 $-1 #
coedge $-1 $316 $317 $124 $207 forward $318 $-1 #
edge $-1 $319 -25.817149852376176 $212 -20.647078043668955 $206 $320 forward 7 unknown #
coedge $-1 $321 $126 $203 $311 reversed $210 $-1 #
coedge $-1 $126 $321 $316 $322 reversed $210 $-1 #
loop $-1 $-1 $126 $198 #
vertex $-1 $204 $323 #
vertex $-1 $322 $324 #
straight-curve $-1 -69.430829798272654 -20.647078043668955 0 0 0 1 I I #
face $-1 $325 $326 $29 $-1 $327 reversed single #
loop $-1 $-1 $328 $128 #
plane-surface $-1 73.571851222607236 -20.647078043668955 0 0 -1 0 0 0 -1 forward_v I I I I #
coedge $-1 $329 $131 $330 $331 forward $81 $-1 #
coedge $-1 $131 $329 $223 $332 forward $81 $-1 #
edge $-1 $225 -25.817149852376176 $333 -20.647078043668955 $131 $334 forward 7 unknown #
coedge $-1 $133 $132 $335 $336 forward $52 $-1 #
coedge $-1 $337 $338 $132 $222 forward $339 $-1 #
edge $-1 $340 20.647078043668955 $226 25.817149852376176 $221 $341 forward 7 unknown #
coedge $-1 $342 $134 $218 $332 reversed $129 $-1 #
coedge $-1 $134 $342 $337 $343 reversed $129 $-1 #
vertex $-1 $219 $344 #
vertex $-1 $343 $345 #
straight-curve $-1 69.430829798272654 -25.817149852376176 0 0 0 1 I I #
face $-1 $-1 $346 $30 $-1 $347 reversed single #
loop $-1 $-1 $142 $136 #
plane-surface $-1 0 0 9.0113377531149581 0 0 1 1 0 0 forward_v I I I I #
coedge $-1 $348 $349 $350 $351 reversed $137 $-1 #
coedge $-1 $352 $139 $141 $238 forward $85 $-1 #
coedge $-1 $139 $352 $348 $353 forward $85 $-1 #
coedge $-1 $350 $142 $139 $235 forward $229 $-1 #
edge $-1 $241 -21.963745706053658 $354 10.800598068908599 $234 $355 forward 7 unknown #
coedge $-1 $356 $357 $140 $237 forward $346 $-1 #
edge $-1 $358 -56.982496051098735 $240 -53.033839551530292 $236 $359 forward 7 unknown #
edge $-1 $241 -7.6667272564878566 $358 3.3053628318135693e-014 $141 $360 forward 7 unknown #
coedge $-1 $142 $350 $356 $361 forward $229 $-1 #
vertex $-1 $143 $362 #
vertex $-1 $143 $363 #
straight-curve $-1 27.545319524626187 -55.094398169345695 9.0113377531149581 0 1 0 I I #
coedge $-1 $243 $243 $-1 $364 reversed $146 $-1 #
edge $-1 $365 0 $365 6.2831853071796004 $147 $366 forward 7 unknown #
vertex $-1 $150 $367 #
ellipse-curve $-1 4.1422168282245764 -35.383919611847922 7.0370095033307205 0 -0.51503808176128008 0.85716729658548041 1.5 0 0 1 I I #
coedge $-1 $247 $247 $-1 $368 reversed $153 $-1 #
edge $-1 $369 0 $369 6.2831853071796004 $154 $370 forward 7 unknown #
vertex $-1 $157 $371 #
ellipse-curve $-1 18.184078446065556 -35.383919611847922 7.0370095033307205 0 -0.51503808176128008 0.85716729658548041 1.5 0 0 1 I I #
face $-1 $-1 $263 $33 $-1 $372 forward single #
loop $-1 $-1 $373 $158 #
plane-surface $-1 0 38.669753549898871 0 0 -1 0 0 0 -1 forward_v I I I I #
coedge $-1 $374 $375 $376 $377 reversed $159 $-1 #
coedge $-1 $378 $161 $163 $261 forward $99 $-1 #
coedge $-1 $161 $378 $374 $379 forward $99 $-1 #
coedge $-1 $376 $164 $161 $258 forward $263 $-1 #
edge $-1 $265 -34.977888012824252 $380 -7.8650529630482815 $257 $381 forward 7 unknown #
coedge $-1 $382 $383 $162 $260 forward $252 $-1 #
edge $-1 $384 -75.641717916077198 $264 -69.649349676962913 $259 $385 forward 7 unknown #
edge $-1 $265 68.553022382561011 $384 77.339507099797743 $163 $386 forward 7 unknown #
coedge $-1 $164 $376 $382 $387 forward $263 $-1 #
loop $-1 $-1 $376 $251 #
vertex $-1 $260 $388 #
vertex $-1 $165 $389 #
straight-curve $-1 -56.399358500760513 38.405322291096581 9.0113377531149581 0 -1 0 I I #
coedge $-1 $267 $267 $-1 $390 reversed $168 $-1 #
edge $-1 $391 0 $391 6.2831853071796004 $169 $392 forward 7 unknown #
vertex $-1 $172 $393 #
ellipse-curve $-1 -48.652834200824522 35.45673952203154 6.0151536335578246 0 0.68199836817093118 0.7313536940579346 2 0 0 1 I I #
coedge $-1 $271 $271 $-1 $394 reversed $175 $-1 #
edge $-1 $395 0 $395 6.2831853071796004 $176 $396 forward 7 unknown #
vertex $-1 $179 $397 #
ellipse-curve $-1 -37.033047750920531 35.45673952203154 6.0151536335578246 0 0.68199836817093118 0.7313536940579346 2 0 0 1 I I #
face $-1 $-1 $291 $27 $-1 $398 reversed single #
loop $-1 $-1 $282 $180 #
plane-surface $-1 0 -38.669753549898871 0 0 1 0 0 0 1 forward_v I I I I #
coedge $-1 $399 $183 $290 $400 forward $113 $-1 #
coedge $-1 $183 $399 $294 $401 forward $113 $-1 #
edge $-1 $296 -38.669753549898871 $292 38.669753549898871 $188 $402 forward 7 unknown #
coedge $-1 $185 $184 $399 $403 reversed $73 $-1 #
coedge $-1 $295 $294 $184 $283 forward $276 $-1 #
edge $-1 $404 -9.0113377531149581 $286 9.0113377531149581 $184 $405 forward 7 unknown #
coedge $-1 $290 $289 $185 $285 reversed $291 $-1 #
edge $-1 $406 -9.0113377531149581 $287 9.0113377531149581 $284 $407 forward 7 unknown #
vertex $-1 $187 $408 #
vertex $-1 $299 $409 #
straight-curve $-1 -69.430829798272654 0 -9.0113377531149581 0 1 0 I I #
coedge $-1 $284 $189 $194 $299 reversed $291 $-1 #
coedge $-1 $189 $284 $278 $400 reversed $291 $-1 #
loop $-1 $-1 $189 $275 #
vertex $-1 $280 $410 #
straight-curve $-1 69.430829798272654 38.669753549898871 0 0 0 -1 I I #
coedge $-1 $282 $191 $279 $401 reversed $276 $-1 #
coedge $-1 $191 $282 $193 $298 reversed $276 $-1 #
vertex $-1 $280 $411 #
straight-curve $-1 69.430829798272654 -38.669753549898871 0 0 0 -1 I I #
edge $-1 $196 -69.430829798272654 $286 69.430829798272654 $295 $412 forward 7 unknown #
edge $-1 $287 -69.430829798272654 $195 69.430829798272654 $289 $413 forward 7 unknown #
point $-1 69.430829798272654 38.669753549898871 -9.0113377531149581 #
point $-1 69.430829798272654 -38.669753549898871 -9.0113377531149581 #
face $-1 $-1 $318 $28 $-1 $414 forward single #
plane-surface $-1 -73.571851222607236 -20.647078043668955 0 0 -1 0 0 0 -1 forward_v I I I I #
coedge $-1 $415 $416 $321 $417 forward $199 $-1 #
coedge $-1 $314 $201 $202 $310 reversed $121 $-1 #
coedge $-1 $201 $314 $317 $418 reversed $121 $-1 #
coedge $-1 $416 $415 $201 $308 reversed $199 $-1 #
edge $-1 $419 -9.0113377531149581 $420 9.0113377531149581 $307 $421 forward 7 unknown #
coedge $-1 $203 $202 $415 $422 forward $77 $-1 #
edge $-1 $312 -4.141021424334582 $420 4.141021424334582 $305 $423 forward 7 unknown #
edge $-1 $424 -4.141021424334582 $211 4.141021424334582 $208 $425 forward 7 unknown #
vertex $-1 $310 $426 #
straight-curve $-1 -69.430829798272654 0 -9.0113377531149581 0 -1 0 I I #
coedge $-1 $306 $305 $205 $315 reversed $121 $-1 #
edge $-1 $319 -9.0113377531149581 $312 9.0113377531149581 $314 $427 forward 7 unknown #
coedge $-1 $428 $206 $209 $322 forward $318 $-1 #
coedge $-1 $206 $428 $306 $418 forward $318 $-1 #
loop $-1 $-1 $206 $302 #
vertex $-1 $207 $429 #
straight-curve $-1 -69.430829798272654 0 9.0113377531149581 0 1 0 I I #
coedge $-1 $209 $208 $304 $417 reversed $210 $-1 #
edge $-1 $212 -4.141021424334582 $430 4.141021424334582 $209 $431 forward 7 unknown #
point $-1 -69.430829798272654 -20.647078043668955 -9.0113377531149581 #
point $-1 -69.430829798272654 -20.647078043668955 9.0113377531149581 #
face $-1 $-1 $339 $29 $-1 $432 forward single #
loop $-1 $-1 $433 $214 #
plane-surface $-1 77.712872646941818 -23.232113948022565 0 -1 0 0 0 0 1 forward_v I I I I #
coedge $-1 $330 $434 $435 $436 forward $215 $-1 #
coedge $-1 $218 $217 $437 $438 forward $81 $-1 #
coedge $-1 $335 $328 $217 $331 reversed $215 $-1 #
edge $-1 $333 -4.141021424334582 $439 4.141021424334582 $330 $440 forward 7 unknown #
edge $-1 $441 -4.141021424334582 $225 4.141021424334582 $223 $442 forward 7 unknown #
vertex $-1 $331 $443 #
straight-curve $-1 69.430829798272654 0 -9.0113377531149581 0 1 0 I I #
coedge $-1 $434 $330 $220 $336 reversed $215 $-1 #
edge $-1 $340 -9.0113377531149581 $333 9.0113377531149581 $335 $444 forward 7 unknown #
coedge $-1 $445 $221 $224 $343 forward $339 $-1 #
coedge $-1 $221 $445 $434 $446 forward $339 $-1 #
loop $-1 $-1 $221 $325 #
vertex $-1 $222 $447 #
straight-curve $-1 69.430829798272654 0 9.0113377531149581 0 -1 0 I I #
coedge $-1 $224 $223 $433 $448 reversed $129 $-1 #
edge $-1 $226 -4.141021424334582 $449 4.141021424334582 $224 $450 forward 7 unknown #
point $-1 69.430829798272654 -25.817149852376176 -9.0113377531149581 #
point $-1 69.430829798272654 -25.817149852376176 9.0113377531149581 #
loop $-1 $-1 $236 $228 #
plane-surface $-1 0 -38.669753549898871 0 0 1 0 0 0 1 forward_v I I I I #
coedge $-1 $349 $231 $233 $353 reversed $137 $-1 #
coedge $-1 $231 $348 $451 $452 reversed $137 $-1 #
coedge $-1 $239 $234 $231 $351 forward $229 $-1 #
edge $-1 $354 -22.996312495548764 $453 -16.424644619446823 $350 $454 forward 7 unknown #
coedge $-1 $233 $232 $357 $455 reversed $85 $-1 #
edge $-1 $456 -3.3053628318135693e-014 $354 7.6667272564878566 $348 $457 forward 7 unknown #
vertex $-1 $235 $458 #
straight-curve $-1 5.5815738185725294 -32.098085673796923 9.0113377531149581 -1 0 0 I I #
coedge $-1 $451 $236 $239 $361 reversed $346 $-1 #
coedge $-1 $236 $451 $352 $455 forward $346 $-1 #
vertex $-1 $237 $459 #
straight-curve $-1 27.545319524626187 -38.669753549898871 62.04517730464525 0 0 1 I I #
straight-curve $-1 27.545319524626187 -38.669753549898843 5.0626812535465291 0 -0.85716729658548041 -0.51503808176128008 I I #
edge $-1 $453 -5.2190242503360693 $240 27.545319524626187 $356 $460 forward 7 unknown #
point $-1 27.545319524626187 -38.669753549898871 9.0113377531149581 #
point $-1 27.545319524626187 -32.09808567379693 9.0113377531149581 #
edge $-1 $461 1 $461 0 $243 $-1 forward 7 unknown #
vertex $-1 $244 $462 #
ellipse-curve $-1 4.1422168282245764 -34.559516024388081 5.6649715523858521 0 -0.51503808176128008 0.85716729658548041 1.5 0 0 1 I I #
point $-1 5.6422168282245764 -35.383919611847951 7.0370095033307631 #
edge $-1 $463 1 $463 0 $247 $-1 forward 7 unknown #
vertex $-1 $248 $464 #
ellipse-curve $-1 18.184078446065556 -34.559516024388081 5.6649715523858521 0 -0.51503808176128008 0.85716729658548041 1.5 0 0 1 I I #
point $-1 19.684078446065556 -35.383919611847951 7.0370095033307631 #
plane-surface $-1 0 0 9.0113377531149581 0 0 1 1 0 0 forward_v I I I I #
coedge $-1 $383 $382 $375 $465 forward $252 $-1 #
coedge $-1 $375 $254 $256 $379 reversed $159 $-1 #
coedge $-1 $254 $374 $373 $465 reversed $159 $-1 #
coedge $-1 $262 $257 $254 $377 forward $263 $-1 #
edge $-1 $380 -6.161596796932379 $466 0.2644312588022899 $376 $467 forward 7 unknown #
coedge $-1 $256 $255 $383 $468 reversed $99 $-1 #
edge $-1 $469 -77.339507099797743 $380 -68.553022382561011 $374 $470 forward 7 unknown #
vertex $-1 $258 $471 #
straight-curve $-1 -21.421470487936265 32.24372549416421 9.0113377531149546 1 0 0 I I #
coedge $-1 $373 $259 $262 $387 reversed $252 $-1 #
coedge $-1 $259 $373 $378 $468 forward $252 $-1 #
vertex $-1 $260 $472 #
straight-curve $-1 -56.399358500760513 38.669753549898871 78.660687430077871 0 0 1 I I #
straight-curve $-1 -56.399358500760513 -17.892780664158067 55.76438715120689 0 0.7313536940579346 -0.68199836817093118 I I #
edge $-1 $466 29.286523450984546 $264 56.399358500760513 $382 $473 forward 7 unknown #
point $-1 -56.399358500760513 38.669753549898871 9.0113377531149581 #
point $-1 -56.399358500760513 32.243725494164202 9.0113377531149581 #
edge $-1 $474 1 $474 0 $267 $-1 forward 7 unknown #
vertex $-1 $268 $475 #
ellipse-curve $-1 -48.652834200824522 30.872549923055495 1.0992122560664352 0 0.68199836817093118 0.7313536940579346 2 0 0 1 I I #
point $-1 -46.652834200824522 35.456739522031526 6.0151536335578166 #
edge $-1 $476 1 $476 0 $271 $-1 forward 7 unknown #
vertex $-1 $272 $477 #
ellipse-curve $-1 -37.033047750920531 30.872549923055495 1.0992122560664352 0 0.68199836817093118 0.7313536940579346 2 0 0 1 I I #
point $-1 -35.033047750920531 35.456739522031526 6.0151536335578166 #
plane-surface $-1 0 38.669753549898871 0 0 -1 0 0 0 -1 forward_v I I I I #
coedge $-1 $279 $278 $281 $403 forward $113 $-1 #
edge $-1 $292 -69.430829798272654 $406 69.430829798272654 $290 $478 forward 7 unknown #
edge $-1 $404 -69.430829798272654 $296 69.430829798272654 $294 $479 forward 7 unknown #
straight-curve $-1 69.430829798272654 0 9.0113377531149581 0 1 0 I I #
edge $-1 $406 -38.669753549898871 $404 38.669753549898871 $281 $480 forward 7 unknown #
vertex $-1 $403 $481 #
straight-curve $-1 -69.430829798272654 -38.669753549898871 0 0 0 -1 I I #
vertex $-1 $400 $482 #
straight-curve $-1 -69.430829798272654 38.669753549898871 0 0 0 -1 I I #
point $-1 -69.430829798272654 -38.669753549898871 -9.0113377531149581 #
point $-1 -69.430829798272654 38.669753549898871 -9.0113377531149581 #
point $-1 69.430829798272654 38.669753549898871 9.0113377531149581 #
point $-1 69.430829798272654 -38.669753549898871 9.0113377531149581 #
straight-curve $-1 0 -38.669753549898871 -9.0113377531149581 -1 0 0 I I #
straight-curve $-1 0 38.669753549898871 -9.0113377531149581 1 0 0 I I #
plane-surface $-1 0 0 9.0113377531149581 0 0 1 1 0 0 forward_v I I I I #
coedge $-1 $307 $304 $309 $422 reversed $199 $-1 #
coedge $-1 $304 $307 $428 $483 reversed $199 $-1 #
edge $-1 $430 -9.0113377531149581 $424 9.0113377531149581 $321 $484 forward 7 unknown #
edge $-1 $419 -4.141021424334582 $319 4.141021424334582 $306 $485 forward 7 unknown #
vertex $-1 $483 $486 #
vertex $-1 $422 $487 #
straight-curve $-1 -77.712872646941818 -25.817149852376176 0 0 0 -1 I I #
edge $-1 $420 -2.5850359043536102 $424 2.5850359043536102 $415 $488 forward 7 unknown #
straight-curve $-1 -73.571851222607236 -25.817149852376176 -9.0113377531149581 -1 0 0 I I #
vertex $-1 $311 $489 #
straight-curve $-1 -73.571851222607236 -20.647078043668955 -9.0113377531149581 1 0 0 I I #
point $-1 -69.430829798272654 -25.817149852376176 -9.0113377531149581 #
straight-curve $-1 -69.430829798272654 -25.817149852376176 0 0 0 -1 I I #
coedge $-1 $317 $316 $416 $483 forward $318 $-1 #
point $-1 -69.430829798272654 -25.817149852376176 9.0113377531149581 #
vertex $-1 $322 $490 #
straight-curve $-1 -73.571851222607236 -20.647078043668955 9.0113377531149581 -1 0 0 I I #
plane-surface $-1 0 0 9.0113377531149581 0 0 1 1 0 0 forward_v I I I I #
coedge $-1 $437 $491 $342 $448 forward $326 $-1 #
coedge $-1 $328 $335 $338 $446 reversed $215 $-1 #
coedge $-1 $491 $437 $328 $436 reversed $326 $-1 #
edge $-1 $492 -9.0113377531149581 $439 9.0113377531149581 $435 $493 forward 7 unknown #
coedge $-1 $435 $433 $329 $438 reversed $326 $-1 #
edge $-1 $439 -2.5850359043536102 $441 2.5850359043536102 $437 $494 forward 7 unknown #
vertex $-1 $438 $495 #
straight-curve $-1 73.571851222607236 -20.647078043668955 -9.0113377531149581 1 0 0 I I #
vertex $-1 $448 $496 #
straight-curve $-1 73.571851222607236 -25.817149852376176 -9.0113377531149581 -1 0 0 I I #
point $-1 69.430829798272654 -20.647078043668955 -9.0113377531149581 #
straight-curve $-1 69.430829798272654 -20.647078043668955 0 0 0 -1 I I #
coedge $-1 $338 $337 $491 $497 forward $339 $-1 #
edge $-1 $492 -4.141021424334582 $340 4.141021424334582 $434 $498 forward 7 unknown #
point $-1 69.430829798272654 -20.647078043668955 9.0113377531149581 #
edge $-1 $449 -9.0113377531149581 $441 9.0113377531149581 $433 $499 forward 7 unknown #
vertex $-1 $497 $500 #
straight-curve $-1 73.571851222607236 -25.817149852376176 9.0113377531149581 1 0 0 I I #
coedge $-1 $357 $356 $349 $452 forward $346 $-1 #
edge $-1 $453 53.033839551530292 $456 56.982496051098735 $451 $501 forward 7 unknown #
vertex $-1 $361 $502 #
straight-curve $-1 -5.2190242503360693 -55.094398169345695 9.0113377531149581 0 -1 0 I I #
edge $-1 $456 -10.800598068908599 $358 21.963745706053658 $357 $503 forward 7 unknown #
vertex $-1 $455 $504 #
straight-curve $-1 -5.2190242503360693 -38.669753549898843 5.0626812535465291 0 0.85716729658548041 0.51503808176128008 I I #
point $-1 -5.2190242503360693 -32.09808567379693 9.0113377531149581 #
point $-1 27.545319524626187 -38.669753549898871 5.0626812535465122 #
straight-curve $-1 0 -38.669753549898871 9.0113377531149581 1 0 0 I I #
vertex $-1 $364 $505 #
point $-1 5.6422168282245764 -34.559516024388081 5.6649715523858521 #
vertex $-1 $368 $506 #
point $-1 19.684078446065556 -34.559516024388081 5.6649715523858521 #
edge $-1 $466 69.649349676962913 $469 75.641717916077198 $373 $507 forward 7 unknown #
vertex $-1 $387 $508 #
straight-curve $-1 -29.286523450984546 38.405322291096581 9.0113377531149581 0 1 0 I I #
edge $-1 $469 7.8650529630482815 $384 34.977888012824252 $383 $509 forward 7 unknown #
vertex $-1 $468 $510 #
straight-curve $-1 -29.286523450984546 -17.892780664158067 55.76438715120689 0 -0.7313536940579346 0.68199836817093118 I I #
point $-1 -29.286523450984546 32.243725494164202 9.0113377531149581 #
point $-1 -56.399358500760513 38.669753549898871 3.0189695140006805 #
straight-curve $-1 0 38.669753549898871 9.0113377531149581 -1 0 0 I I #
vertex $-1 $390 $511 #
point $-1 -46.652834200824522 30.872549923055495 1.0992122560664352 #
vertex $-1 $394 $512 #
point $-1 -35.033047750920531 30.872549923055495 1.0992122560664352 #
straight-curve $-1 0 38.669753549898871 9.0113377531149581 -1 0 0 I I #
straight-curve $-1 0 -38.669753549898871 9.0113377531149581 1 0 0 I I #
straight-curve $-1 -69.430829798272654 0 9.0113377531149581 0 -1 0 I I #
point $-1 -69.430829798272654 -38.669753549898871 9.0113377531149581 #
point $-1 -69.430829798272654 38.669753549898871 9.0113377531149581 #
edge $-1 $430 -2.5850359043536102 $419 2.5850359043536102 $416 $513 forward 7 unknown #
straight-curve $-1 -77.712872646941818 -20.647078043668955 0 0 0 -1 I I #
straight-curve $-1 -73.571851222607236 -25.817149852376176 9.0113377531149581 1 0 0 I I #
point $-1 -77.712872646941818 -25.817149852376176 9.0113377531149581 #
point $-1 -77.712872646941818 -25.817149852376176 -9.0113377531149581 #
straight-curve $-1 -77.712872646941818 -23.232113948022565 -9.0113377531149581 0 1 0 I I #
point $-1 -77.712872646941818 -20.647078043668955 -9.0113377531149581 #
point $-1 -77.712872646941818 -20.647078043668955 9.0113377531149581 #
coedge $-1 $433 $435 $445 $497 reversed $326 $-1 #
vertex $-1 $497 $514 #
straight-curve $-1 77.712872646941818 -20.647078043668955 0 0 0 -1 I I #
straight-curve $-1 77.712872646941818 -23.232113948022565 -9.0113377531149581 0 -1 0 I I #
point $-1 77.712872646941818 -20.647078043668955 -9.0113377531149581 #
point $-1 77.712872646941818 -25.817149852376176 -9.0113377531149581 #
edge $-1 $449 -2.5850359043536102 $492 2.5850359043536102 $491 $515 forward 7 unknown #
straight-curve $-1 73.571851222607236 -20.647078043668955 9.0113377531149581 -1 0 0 I I #
straight-curve $-1 77.712872646941818 -25.817149852376176 0 0 0 -1 I I #
point $-1 77.712872646941818 -25.817149852376176 9.0113377531149581 #
straight-curve $-1 -5.2190242503360693 -38.669753549898871 62.04517730464525 0 0 -1 I I #
point $-1 -5.2190242503360693 -38.669753549898871 9.0113377531149581 #
straight-curve $-1 5.5815738185725294 -38.669753549898871 5.0626812535465122 1 0 0 I I #
point $-1 -5.2190242503360693 -38.669753549898871 5.0626812535465122 #
point $-1 4.1422168282245764 -33.786958901746168 4.3792206075076319 #
point $-1 18.184078446065556 -33.786958901746168 4.3792206075076319 #
straight-curve $-1 -29.286523450984546 38.669753549898871 78.660687430077871 0 0 -1 I I #
point $-1 -29.286523450984546 38.669753549898871 9.0113377531149581 #
straight-curve $-1 -21.421470487936265 38.669753549898871 3.0189695140006805 -1 0 0 I I #
point $-1 -29.286523450984546 38.669753549898871 3.0189695140006805 #
point $-1 -48.652834200824522 29.508553186713634 -0.36349513204943473 #
point $-1 -37.033047750920531 29.508553186713634 -0.36349513204943473 #
straight-curve $-1 -77.712872646941818 -23.232113948022565 9.0113377531149581 0 -1 0 I I #
point $-1 77.712872646941818 -20.647078043668955 9.0113377531149581 #
straight-curve $-1 77.712872646941818 -23.232113948022565 9.0113377531149581 0 1 0 I I #
End-of-ACIS-data 