500 0 9 0           
7 Unknown 11 ACIS 5.0 NT 24 Fri Mar 26 14:31:41 1999 
-1 9.9999999999999995e-007 1e-010 
body $-1 $9 $-1 $10 #
body $-1 $11 $-1 $12 #
body $-1 $13 $-1 $14 #
body $-1 $15 $-1 $16 #
body $-1 $17 $-1 $18 #
body $-1 $19 $-1 $20 #
body $-1 $21 $-1 $22 #
body $-1 $23 $-1 $24 #
body $-1 $25 $-1 $26 #
lump $-1 $-1 $27 $0 #
transform $-1 1 0 0 0 1 0 0 0 1 58.208563493758966 33.88609916112248 7.5152949984372448 1 rotate no_reflect no_shear #
lump $-1 $-1 $28 $1 #
transform $-1 1 0 0 0 1 0 0 0 1 58.208563493758966 33.88609916112248 7.5152949984372448 1 rotate no_reflect no_shear #
lump $-1 $-1 $29 $2 #
transform $-1 1 0 0 0 1 0 0 0 1 58.208563493758966 33.88609916112248 7.5152949984372448 1 rotate no_reflect no_shear #
lump $-1 $-1 $30 $3 #
transform $-1 1 0 0 0 1 0 0 0 1 58.208563493758966 33.88609916112248 7.5152949984372448 1 rotate no_reflect no_shear #
lump $-1 $-1 $31 $4 #
transform $-1 1 0 0 0 1 0 0 0 1 58.208563493758966 33.88609916112248 7.5152949984372448 1 rotate no_reflect no_shear #
lump $-1 $-1 $32 $5 #
transform $-1 1 0 0 0 1 0 0 0 1 58.208563493758966 33.88609916112248 7.5152949984372448 1 rotate no_reflect no_shear #
lump $-1 $-1 $33 $6 #
transform $-1 1 0 0 0 1 0 0 0 1 58.208563493758966 33.88609916112248 7.5152949984372448 1 rotate no_reflect no_shear #
lump $-1 $-1 $34 $7 #
transform $-1 1 0 0 0 1 0 0 0 1 58.208563493758966 33.88609916112248 7.5152949984372448 1 rotate no_reflect no_shear #
lump $-1 $-1 $35 $8 #
transform $-1 1 0 0 0 1 0 0 0 1 58.208563493758966 33.88609916112248 7.5152949984372448 1 rotate no_reflect no_shear #
shell $-1 $-1 $-1 $36 $-1 $9 #
shell $-1 $-1 $-1 $37 $-1 $11 #
shell $-1 $-1 $-1 $38 $-1 $13 #
shell $-1 $-1 $-1 $39 $-1 $15 #
shell $-1 $-1 $-1 $40 $-1 $17 #
shell $-1 $-1 $-1 $41 $-1 $19 #
shell $-1 $-1 $-1 $42 $-1 $21 #
shell $-1 $-1 $-1 $43 $-1 $23 #
shell $-1 $-1 $-1 $44 $-1 $25 #
face $-1 $45 $46 $27 $-1 $47 forward single #
face $-1 $48 $49 $28 $-1 $50 reversed single #
face $-1 $51 $52 $29 $-1 $53 forward single #
face $-1 $54 $55 $30 $-1 $56 forward single #
face $-1 $57 $58 $31 $-1 $59 forward single #
face $-1 $60 $61 $32 $-1 $62 reversed single #
face $-1 $63 $64 $33 $-1 $65 forward single #
face $-1 $66 $67 $34 $-1 $68 forward single #
face $-1 $69 $70 $35 $-1 $71 forward single #
face $-1 $72 $73 $27 $-1 $74 reversed single #
loop $-1 $-1 $75 $36 #
plane-surface $-1 0 0 7.5152949984372448 0 0 1 1 0 0 forward_v I I I I #
face $-1 $76 $77 $28 $-1 $78 reversed single #
loop $-1 $-1 $79 $37 #
plane-surface $-1 -6.8598970541133735 -124.35920020728031 76.35287273192634 -1 0 0 0 -0.77714596973225614 0.62932038083071107 forward_v I I I I #
face $-1 $80 $81 $29 $-1 $82 forward single #
loop $-1 $83 $84 $38 #
cone-surface $-1 -28.193645563111136 -31.54498873884442 4.8576602804260371 0 0.77714596973225614 -0.62932038083071107 1 0 0 1 I I 0 1 1 forward I I I I #
face $-1 $85 $86 $30 $-1 $87 forward single #
loop $-1 $88 $89 $39 #
cone-surface $-1 -20.193489872236974 -31.54498873884442 4.8576602804260371 0 0.77714596973225614 -0.62932038083071107 1 0 0 1 I I 0 1 1 forward I I I I #
face $-1 $90 $91 $31 $-1 $92 forward single #
loop $-1 $93 $94 $40 #
cone-surface $-1 -12.193334181362815 -31.54498873884442 4.8576602804260371 0 0.77714596973225614 -0.62932038083071107 1 0 0 1 I I 0 1 1 forward I I I I #
face $-1 $95 $96 $32 $-1 $97 reversed single #
loop $-1 $-1 $98 $41 #
plane-surface $-1 51.348666439645584 -124.35920020728031 76.35287273192634 -1 0 0 0 -0.77714596973225614 0.62932038083071107 forward_v I I I I #
face $-1 $99 $100 $33 $-1 $101 forward single #
loop $-1 $102 $103 $42 #
cone-surface $-1 30.014917930647833 -31.54498873884442 4.8576602804260371 0 0.77714596973225614 -0.62932038083071107 1 0 0 1 I I 0 1 1 forward I I I I #
face $-1 $104 $105 $34 $-1 $106 forward single #
loop $-1 $107 $108 $43 #
cone-surface $-1 38.015073621521985 -31.54498873884442 4.8576602804260371 0 0.77714596973225614 -0.62932038083071107 1 0 0 1 I I 0 1 1 forward I I I I #
face $-1 $109 $110 $35 $-1 $111 forward single #
loop $-1 $112 $113 $44 #
cone-surface $-1 46.015229312396151 -31.54498873884442 4.8576602804260371 0 0.77714596973225614 -0.62932038083071107 1 0 0 1 I I 0 1 1 forward I I I I #
face $-1 $114 $115 $27 $-1 $116 reversed single #
loop $-1 $-1 $117 $45 #
plane-surface $-1 0 0 -7.5152949984372448 0 0 1 1 0 0 forward_v I I I I #
coedge $-1 $118 $119 $120 $121 forward $46 $-1 #
face $-1 $122 $123 $28 $-1 $124 reversed single #
loop $-1 $-1 $125 $48 #
plane-surface $-1 -20.193489872236974 -33.886099161122488 3.0892020409243059 0 -0.77714596973225614 0.62932038083071107 1 0 0 forward_v I I I I #
coedge $-1 $126 $127 $128 $129 reversed $49 $-1 #
face $-1 $-1 $130 $29 $-1 $131 forward single #
loop $-1 $132 $133 $51 #
cone-surface $-1 -28.193645563111136 -30.607394986732373 4.0984118507559533 0 0.77714596973225614 -0.62932038083071107 0.5 0 0 1 I I -0.70710678118654813 0.70710678118654691 0.5 forward I I I I #
loop $-1 $-1 $134 $38 #
coedge $-1 $84 $84 $135 $136 reversed $52 $-1 #
face $-1 $-1 $137 $30 $-1 $138 forward single #
loop $-1 $139 $140 $54 #
cone-surface $-1 -20.193489872236974 -30.607394986732373 4.0984118507559533 0 0.77714596973225614 -0.62932038083071107 0.5 0 0 1 I I -0.70710678118654813 0.70710678118654691 0.5 forward I I I I #
loop $-1 $-1 $141 $39 #
coedge $-1 $89 $89 $142 $143 reversed $55 $-1 #
face $-1 $-1 $144 $31 $-1 $145 forward single #
loop $-1 $146 $147 $57 #
cone-surface $-1 -12.193334181362815 -30.607394986732373 4.0984118507559533 0 0.77714596973225614 -0.62932038083071107 0.5 0 0 1 I I -0.70710678118654813 0.70710678118654691 0.5 forward I I I I #
loop $-1 $-1 $148 $40 #
coedge $-1 $94 $94 $149 $150 reversed $58 $-1 #
face $-1 $151 $152 $32 $-1 $153 reversed single #
loop $-1 $-1 $154 $60 #
plane-surface $-1 38.015073621521985 -33.886099161122488 3.0892020409243059 0 -0.77714596973225614 0.62932038083071107 1 0 0 forward_v I I I I #
coedge $-1 $155 $156 $157 $158 reversed $61 $-1 #
face $-1 $-1 $159 $33 $-1 $160 forward single #
loop $-1 $161 $162 $63 #
cone-surface $-1 30.014917930647833 -30.607394986732373 4.0984118507559533 0 0.77714596973225614 -0.62932038083071107 0.5 0 0 1 I I -0.70710678118654813 0.70710678118654691 0.5 forward I I I I #
loop $-1 $-1 $163 $42 #
coedge $-1 $103 $103 $164 $165 reversed $64 $-1 #
face $-1 $-1 $166 $34 $-1 $167 forward single #
loop $-1 $168 $169 $66 #
cone-surface $-1 38.015073621521985 -30.607394986732373 4.0984118507559533 0 0.77714596973225614 -0.62932038083071107 0.5 0 0 1 I I -0.70710678118654813 0.70710678118654691 0.5 forward I I I I #
loop $-1 $-1 $170 $43 #
coedge $-1 $108 $108 $171 $172 reversed $67 $-1 #
face $-1 $-1 $173 $35 $-1 $174 forward single #
loop $-1 $175 $176 $69 #
cone-surface $-1 46.015229312396151 -30.607394986732373 4.0984118507559533 0 0.77714596973225614 -0.62932038083071107 0.5 0 0 1 I I -0.70710678118654813 0.70710678118654691 0.5 forward I I I I #
loop $-1 $-1 $177 $44 #
coedge $-1 $113 $113 $178 $179 reversed $70 $-1 #
face $-1 $180 $181 $27 $-1 $182 reversed single #
loop $-1 $-1 $183 $72 #
plane-surface $-1 0 -33.88609916112248 0 0 1 0 0 0 1 forward_v I I I I #
coedge $-1 $184 $185 $186 $187 forward $73 $-1 #
coedge $-1 $188 $75 $189 $190 forward $46 $-1 #
coedge $-1 $75 $188 $191 $192 forward $46 $-1 #
coedge $-1 $193 $194 $75 $121 reversed $195 $-1 #
edge $-1 $196 -33.88609916112248 $197 33.88609916112248 $120 $198 forward 7 unknown #
face $-1 $199 $200 $28 $-1 $201 reversed single #
loop $-1 $-1 $202 $76 #
plane-surface $-1 -33.527082690360572 -124.35920020728031 76.35287273192634 1 0 0 0 0.77714596973225614 -0.62932038083071107 forward_v I I I I #
coedge $-1 $203 $204 $205 $206 reversed $77 $-1 #
coedge $-1 $127 $79 $207 $208 reversed $49 $-1 #
coedge $-1 $79 $126 $203 $209 reversed $49 $-1 #
coedge $-1 $205 $210 $79 $129 forward $211 $-1 #
edge $-1 $212 28.293500942517674 $213 31.877680252581918 $128 $214 forward 7 unknown #
loop $-1 $-1 $135 $80 #
plane-surface $-1 -20.193489872236974 -33.886099161122488 3.0892020409243059 0 -0.77714596973225614 0.62932038083071107 1 0 0 forward_v I I I I #
loop $-1 $-1 $215 $51 #
coedge $-1 $133 $133 $134 $216 reversed $81 $-1 #
coedge $-1 $134 $134 $133 $216 forward $83 $-1 #
coedge $-1 $135 $135 $84 $136 forward $130 $-1 #
edge $-1 $217 -1.4104836877959184e-015 $217 6.2831853071795987 $135 $218 forward 7 unknown #
loop $-1 $-1 $142 $85 #
plane-surface $-1 -20.193489872236974 -33.886099161122488 3.0892020409243059 0 -0.77714596973225614 0.62932038083071107 1 0 0 forward_v I I I I #
loop $-1 $-1 $219 $54 #
coedge $-1 $140 $140 $141 $220 reversed $86 $-1 #
coedge $-1 $141 $141 $140 $220 forward $88 $-1 #
coedge $-1 $142 $142 $89 $143 forward $137 $-1 #
edge $-1 $221 -1.4104836877959184e-015 $221 6.2831853071795987 $142 $222 forward 7 unknown #
loop $-1 $-1 $149 $90 #
plane-surface $-1 -20.193489872236974 -33.886099161122488 3.0892020409243059 0 -0.77714596973225614 0.62932038083071107 1 0 0 forward_v I I I I #
loop $-1 $-1 $223 $57 #
coedge $-1 $147 $147 $148 $224 reversed $91 $-1 #
coedge $-1 $148 $148 $147 $224 forward $93 $-1 #
coedge $-1 $149 $149 $94 $150 forward $144 $-1 #
edge $-1 $225 -1.4104836877959184e-015 $225 6.2831853071795987 $149 $226 forward 7 unknown #
face $-1 $227 $228 $32 $-1 $229 reversed single #
loop $-1 $-1 $230 $95 #
plane-surface $-1 24.681480803398387 -124.35920020728031 76.35287273192634 1 0 0 0 0.77714596973225614 -0.62932038083071107 forward_v I I I I #
coedge $-1 $231 $232 $233 $234 reversed $96 $-1 #
coedge $-1 $156 $98 $235 $236 reversed $61 $-1 #
coedge $-1 $98 $155 $231 $237 reversed $61 $-1 #
coedge $-1 $233 $238 $98 $158 forward $239 $-1 #
edge $-1 $240 28.293500942517674 $241 31.877680252581918 $157 $242 forward 7 unknown #
loop $-1 $-1 $164 $99 #
plane-surface $-1 38.015073621521985 -33.886099161122488 3.0892020409243059 0 -0.77714596973225614 0.62932038083071107 1 0 0 forward_v I I I I #
loop $-1 $-1 $243 $63 #
coedge $-1 $162 $162 $163 $244 reversed $100 $-1 #
coedge $-1 $163 $163 $162 $244 forward $102 $-1 #
coedge $-1 $164 $164 $103 $165 forward $159 $-1 #
edge $-1 $245 -1.4104836877959184e-015 $245 6.2831853071795987 $164 $246 forward 7 unknown #
loop $-1 $-1 $171 $104 #
plane-surface $-1 38.015073621521985 -33.886099161122488 3.0892020409243059 0 -0.77714596973225614 0.62932038083071107 1 0 0 forward_v I I I I #
loop $-1 $-1 $247 $66 #
coedge $-1 $169 $169 $170 $248 reversed $105 $-1 #
coedge $-1 $170 $170 $169 $248 forward $107 $-1 #
coedge $-1 $171 $171 $108 $172 forward $166 $-1 #
edge $-1 $249 -1.4104836877959184e-015 $249 6.2831853071795987 $171 $250 forward 7 unknown #
loop $-1 $-1 $178 $109 #
plane-surface $-1 38.015073621521985 -33.886099161122488 3.0892020409243059 0 -0.77714596973225614 0.62932038083071107 1 0 0 forward_v I I I I #
loop $-1 $-1 $251 $69 #
coedge $-1 $176 $176 $177 $252 reversed $110 $-1 #
coedge $-1 $177 $177 $176 $252 forward $112 $-1 #
coedge $-1 $178 $178 $113 $179 forward $173 $-1 #
edge $-1 $253 -1.4104836877959184e-015 $253 6.2831853071795987 $178 $254 forward 7 unknown #
face $-1 $255 $256 $27 $-1 $257 reversed single #
loop $-1 $-1 $258 $114 #
plane-surface $-1 -58.208563493758966 0 0 1 0 0 0 0 -1 forward_v I I I I #
coedge $-1 $259 $191 $260 $261 forward $115 $-1 #
coedge $-1 $262 $117 $259 $263 forward $73 $-1 #
coedge $-1 $117 $262 $264 $265 forward $73 $-1 #
coedge $-1 $194 $193 $117 $187 reversed $195 $-1 #
edge $-1 $266 -33.88609916112248 $267 33.88609916112248 $186 $268 forward 7 unknown #
coedge $-1 $119 $118 $269 $270 forward $46 $-1 #
coedge $-1 $271 $272 $118 $190 reversed $256 $-1 #
edge $-1 $197 -58.208563493758966 $273 58.208563493758966 $189 $274 forward 7 unknown #
coedge $-1 $183 $275 $119 $192 reversed $115 $-1 #
edge $-1 $276 -58.208563493758966 $196 58.208563493758966 $191 $277 forward 7 unknown #
coedge $-1 $186 $120 $275 $278 forward $195 $-1 #
coedge $-1 $120 $186 $271 $279 reversed $195 $-1 #
loop $-1 $-1 $193 $255 #
vertex $-1 $121 $280 #
vertex $-1 $121 $281 #
straight-curve $-1 58.208563493758966 0 7.5152949984372448 0 1 0 I I #
face $-1 $-1 $211 $28 $-1 $282 forward single #
loop $-1 $-1 $283 $122 #
plane-surface $-1 0 -33.88609916112248 0 0 1 0 0 0 1 forward_v I I I I #
coedge $-1 $284 $285 $286 $287 reversed $123 $-1 #
coedge $-1 $288 $125 $127 $209 forward $77 $-1 #
coedge $-1 $125 $288 $284 $289 forward $77 $-1 #
coedge $-1 $286 $128 $125 $206 forward $211 $-1 #
edge $-1 $213 -3.2368478820051134 $290 23.430337754242085 $205 $291 forward 7 unknown #
coedge $-1 $292 $293 $126 $208 forward $200 $-1 #
edge $-1 $294 -35.087234325038857 $212 -30.661141367525925 $207 $295 forward 7 unknown #
edge $-1 $213 -5.6953173919666913 $294 -1.1374033043381581e-014 $127 $296 forward 7 unknown #
coedge $-1 $128 $286 $292 $297 forward $211 $-1 #
loop $-1 $-1 $286 $199 #
vertex $-1 $208 $298 #
vertex $-1 $129 $299 #
straight-curve $-1 -6.8598970541133735 -62.179600103640155 7.5152949984372412 0 1 0 I I #
coedge $-1 $215 $215 $-1 $300 reversed $132 $-1 #
edge $-1 $301 0 $301 6.2831853071796004 $133 $302 forward 7 unknown #
vertex $-1 $136 $303 #
ellipse-curve $-1 -28.193645563111136 -32.094009506090359 5.3022485196807798 0 -0.77714596973225614 0.62932038083071107 1 0 0 1 I I #
coedge $-1 $219 $219 $-1 $304 reversed $139 $-1 #
edge $-1 $305 0 $305 6.2831853071796004 $140 $306 forward 7 unknown #
vertex $-1 $143 $307 #
ellipse-curve $-1 -20.193489872236974 -32.094009506090359 5.3022485196807798 0 -0.77714596973225614 0.62932038083071107 1 0 0 1 I I #
coedge $-1 $223 $223 $-1 $308 reversed $146 $-1 #
edge $-1 $309 0 $309 6.2831853071796004 $147 $310 forward 7 unknown #
vertex $-1 $150 $311 #
ellipse-curve $-1 -12.193334181362815 -32.094009506090359 5.3022485196807798 0 -0.77714596973225614 0.62932038083071107 1 0 0 1 I I #
face $-1 $-1 $239 $32 $-1 $312 forward single #
loop $-1 $-1 $313 $151 #
plane-surface $-1 0 -33.88609916112248 0 0 1 0 0 0 1 forward_v I I I I #
coedge $-1 $314 $315 $316 $317 reversed $152 $-1 #
coedge $-1 $318 $154 $156 $237 forward $96 $-1 #
coedge $-1 $154 $318 $314 $319 forward $96 $-1 #
coedge $-1 $316 $157 $154 $234 forward $239 $-1 #
edge $-1 $241 -32.341129628884588 $320 -5.673943992637394 $233 $321 forward 7 unknown #
coedge $-1 $322 $323 $155 $236 forward $228 $-1 #
edge $-1 $324 -35.087234325038857 $240 -30.661141367525925 $235 $325 forward 7 unknown #
edge $-1 $241 -5.6953173919666913 $324 -1.1374033043381581e-014 $156 $326 forward 7 unknown #
coedge $-1 $157 $316 $322 $327 forward $239 $-1 #
loop $-1 $-1 $316 $227 #
vertex $-1 $236 $328 #
vertex $-1 $158 $329 #
straight-curve $-1 51.348666439645584 -62.179600103640155 7.5152949984372412 0 1 0 I I #
coedge $-1 $243 $243 $-1 $330 reversed $161 $-1 #
edge $-1 $331 0 $331 6.2831853071796004 $162 $332 forward 7 unknown #
vertex $-1 $165 $333 #
ellipse-curve $-1 30.014917930647833 -32.094009506090359 5.3022485196807798 0 -0.77714596973225614 0.62932038083071107 1 0 0 1 I I #
coedge $-1 $247 $247 $-1 $334 reversed $168 $-1 #
edge $-1 $335 0 $335 6.2831853071796004 $169 $336 forward 7 unknown #
vertex $-1 $172 $337 #
ellipse-curve $-1 38.015073621521985 -32.094009506090359 5.3022485196807798 0 -0.77714596973225614 0.62932038083071107 1 0 0 1 I I #
coedge $-1 $251 $251 $-1 $338 reversed $175 $-1 #
edge $-1 $339 0 $339 6.2831853071796004 $176 $340 forward 7 unknown #
vertex $-1 $179 $341 #
ellipse-curve $-1 46.015229312396151 -32.094009506090359 5.3022485196807798 0 -0.77714596973225614 0.62932038083071107 1 0 0 1 I I #
face $-1 $-1 $195 $27 $-1 $342 reversed single #
loop $-1 $-1 $271 $180 #
plane-surface $-1 0 33.88609916112248 0 0 -1 0 0 0 -1 forward_v I I I I #
coedge $-1 $343 $269 $272 $344 forward $181 $-1 #
coedge $-1 $275 $183 $184 $263 reversed $115 $-1 #
coedge $-1 $269 $343 $183 $261 reversed $181 $-1 #
edge $-1 $276 -7.5152949984372448 $345 7.5152949984372448 $260 $346 forward 7 unknown #
coedge $-1 $185 $184 $343 $347 forward $73 $-1 #
edge $-1 $267 -58.208563493758966 $345 58.208563493758966 $259 $348 forward 7 unknown #
coedge $-1 $272 $271 $185 $265 reversed $256 $-1 #
edge $-1 $349 -58.208563493758966 $266 58.208563493758966 $264 $350 forward 7 unknown #
vertex $-1 $187 $351 #
vertex $-1 $278 $352 #
straight-curve $-1 58.208563493758966 0 -7.5152949984372448 0 -1 0 I I #
coedge $-1 $258 $260 $188 $270 reversed $181 $-1 #
edge $-1 $273 -33.88609916112248 $276 33.88609916112248 $269 $353 forward 7 unknown #
coedge $-1 $264 $189 $194 $279 forward $256 $-1 #
coedge $-1 $189 $264 $258 $344 reversed $256 $-1 #
vertex $-1 $190 $354 #
straight-curve $-1 0 33.88609916112248 7.5152949984372448 -1 0 0 I I #
coedge $-1 $191 $259 $193 $278 reversed $115 $-1 #
vertex $-1 $270 $355 #
straight-curve $-1 0 -33.88609916112248 7.5152949984372448 1 0 0 I I #
edge $-1 $196 -7.5152949984372448 $267 7.5152949984372448 $193 $356 forward 7 unknown #
edge $-1 $197 -7.5152949984372448 $266 7.5152949984372448 $194 $357 forward 7 unknown #
point $-1 58.208563493758966 -33.88609916112248 7.5152949984372448 #
point $-1 58.208563493758966 33.88609916112248 7.5152949984372448 #
plane-surface $-1 0 0 7.5152949984372448 0 0 1 1 0 0 forward_v I I I I #
coedge $-1 $293 $292 $285 $358 forward $200 $-1 #
coedge $-1 $285 $202 $204 $289 reversed $123 $-1 #
coedge $-1 $202 $284 $283 $358 reversed $123 $-1 #
coedge $-1 $210 $205 $202 $287 forward $211 $-1 #
edge $-1 $290 -31.877680252581918 $359 -28.293500942517674 $286 $360 forward 7 unknown #
coedge $-1 $204 $203 $293 $361 reversed $77 $-1 #
edge $-1 $362 1.1374033043381581e-014 $290 5.6953173919666913 $284 $363 forward 7 unknown #
vertex $-1 $206 $364 #
straight-curve $-1 -10.096744936118487 -30.301919851058233 7.5152949984372448 -1 0 0 I I #
coedge $-1 $283 $207 $210 $297 reversed $200 $-1 #
coedge $-1 $207 $283 $288 $361 forward $200 $-1 #
vertex $-1 $208 $365 #
straight-curve $-1 -6.8598970541133735 -33.88609916112248 38.17643636596317 0 0 1 I I #
straight-curve $-1 -6.8598970541133735 -33.886099161122488 3.0892020409243059 0 -0.62932038083071107 -0.77714596973225614 I I #
edge $-1 $359 -33.527082690360572 $212 -6.8598970541133735 $292 $366 forward 7 unknown #
point $-1 -6.8598970541133735 -33.88609916112248 7.5152949984372448 #
point $-1 -6.8598970541133735 -30.301919851058237 7.5152949984372448 #
edge $-1 $367 1 $367 0 $215 $-1 forward 7 unknown #
vertex $-1 $216 $368 #
ellipse-curve $-1 -28.193645563111136 -30.9959679715985 4.4130720411713078 0 -0.77714596973225614 0.62932038083071107 1 0 0 1 I I #
point $-1 -27.193645563111136 -32.094009506090345 5.3022485196807665 #
edge $-1 $369 1 $369 0 $219 $-1 forward 7 unknown #
vertex $-1 $220 $370 #
ellipse-curve $-1 -20.193489872236974 -30.9959679715985 4.4130720411713078 0 -0.77714596973225614 0.62932038083071107 1 0 0 1 I I #
point $-1 -19.193489872236974 -32.094009506090345 5.3022485196807665 #
edge $-1 $371 1 $371 0 $223 $-1 forward 7 unknown #
vertex $-1 $224 $372 #
ellipse-curve $-1 -12.193334181362815 -30.9959679715985 4.4130720411713078 0 -0.77714596973225614 0.62932038083071107 1 0 0 1 I I #
point $-1 -11.193334181362815 -32.094009506090345 5.3022485196807665 #
plane-surface $-1 0 0 7.5152949984372448 0 0 1 1 0 0 forward_v I I I I #
coedge $-1 $323 $322 $315 $373 forward $228 $-1 #
coedge $-1 $315 $230 $232 $319 reversed $152 $-1 #
coedge $-1 $230 $314 $313 $373 reversed $152 $-1 #
coedge $-1 $238 $233 $230 $317 forward $239 $-1 #
edge $-1 $320 -31.877680252581918 $374 -28.293500942517674 $316 $375 forward 7 unknown #
coedge $-1 $232 $231 $323 $376 reversed $96 $-1 #
edge $-1 $377 1.1374033043381581e-014 $320 5.6953173919666913 $314 $378 forward 7 unknown #
vertex $-1 $234 $379 #
straight-curve $-1 19.007536810760993 -30.301919851058233 7.5152949984372448 -1 0 0 I I #
coedge $-1 $313 $235 $238 $327 reversed $228 $-1 #
coedge $-1 $235 $313 $318 $376 forward $228 $-1 #
vertex $-1 $236 $380 #
straight-curve $-1 51.348666439645584 -33.88609916112248 38.17643636596317 0 0 1 I I #
straight-curve $-1 51.348666439645584 -33.886099161122488 3.0892020409243059 0 -0.62932038083071107 -0.77714596973225614 I I #
edge $-1 $374 24.681480803398387 $240 51.348666439645584 $322 $381 forward 7 unknown #
point $-1 51.348666439645584 -33.88609916112248 7.5152949984372448 #
point $-1 51.348666439645584 -30.301919851058237 7.5152949984372448 #
edge $-1 $382 1 $382 0 $243 $-1 forward 7 unknown #
vertex $-1 $244 $383 #
ellipse-curve $-1 30.014917930647833 -30.9959679715985 4.4130720411713078 0 -0.77714596973225614 0.62932038083071107 1 0 0 1 I I #
point $-1 31.014917930647833 -32.094009506090345 5.3022485196807665 #
edge $-1 $384 1 $384 0 $247 $-1 forward 7 unknown #
vertex $-1 $248 $385 #
ellipse-curve $-1 38.015073621521985 -30.9959679715985 4.4130720411713078 0 -0.77714596973225614 0.62932038083071107 1 0 0 1 I I #
point $-1 39.015073621521985 -32.094009506090345 5.3022485196807665 #
edge $-1 $386 1 $386 0 $251 $-1 forward 7 unknown #
vertex $-1 $252 $387 #
ellipse-curve $-1 46.015229312396151 -30.9959679715985 4.4130720411713078 0 -0.77714596973225614 0.62932038083071107 1 0 0 1 I I #
point $-1 47.015229312396151 -32.094009506090345 5.3022485196807665 #
plane-surface $-1 58.208563493758966 0 0 -1 0 0 0 0 1 forward_v I I I I #
coedge $-1 $260 $258 $262 $347 reversed $181 $-1 #
edge $-1 $273 -7.5152949984372448 $349 7.5152949984372448 $272 $388 forward 7 unknown #
vertex $-1 $347 $389 #
straight-curve $-1 -58.208563493758966 -33.88609916112248 0 0 0 -1 I I #
edge $-1 $345 -33.88609916112248 $349 33.88609916112248 $343 $390 forward 7 unknown #
straight-curve $-1 0 -33.88609916112248 -7.5152949984372448 -1 0 0 I I #
vertex $-1 $265 $391 #
straight-curve $-1 0 33.88609916112248 -7.5152949984372448 1 0 0 I I #
point $-1 58.208563493758966 33.88609916112248 -7.5152949984372448 #
point $-1 58.208563493758966 -33.88609916112248 -7.5152949984372448 #
straight-curve $-1 -58.208563493758966 0 7.5152949984372448 0 -1 0 I I #
point $-1 -58.208563493758966 33.88609916112248 7.5152949984372448 #
point $-1 -58.208563493758966 -33.88609916112248 7.5152949984372448 #
straight-curve $-1 58.208563493758966 -33.88609916112248 0 0 0 -1 I I #
straight-curve $-1 58.208563493758966 33.88609916112248 0 0 0 -1 I I #
edge $-1 $359 30.661141367525925 $362 35.087234325038857 $283 $392 forward 7 unknown #
vertex $-1 $297 $393 #
straight-curve $-1 -33.527082690360572 -62.179600103640155 7.5152949984372412 0 -1 0 I I #
edge $-1 $362 -23.430337754242085 $294 3.2368478820051134 $293 $394 forward 7 unknown #
vertex $-1 $361 $395 #
straight-curve $-1 -33.527082690360572 -33.886099161122488 3.0892020409243059 0 0.62932038083071107 0.77714596973225614 I I #
point $-1 -33.527082690360572 -30.301919851058237 7.5152949984372448 #
point $-1 -6.8598970541133735 -33.88609916112248 3.0892020409243148 #
straight-curve $-1 0 -33.88609916112248 7.5152949984372448 1 0 0 I I #
vertex $-1 $300 $396 #
point $-1 -27.193645563111136 -30.9959679715985 4.4130720411713078 #
vertex $-1 $304 $397 #
point $-1 -19.193489872236974 -30.9959679715985 4.4130720411713078 #
vertex $-1 $308 $398 #
point $-1 -11.193334181362815 -30.9959679715985 4.4130720411713078 #
edge $-1 $374 30.661141367525925 $377 35.087234325038857 $313 $399 forward 7 unknown #
vertex $-1 $327 $400 #
straight-curve $-1 24.681480803398387 -62.179600103640155 7.5152949984372412 0 -1 0 I I #
edge $-1 $377 5.673943992637394 $324 32.341129628884588 $323 $401 forward 7 unknown #
vertex $-1 $376 $402 #
straight-curve $-1 24.681480803398387 -33.886099161122488 3.0892020409243059 0 0.62932038083071107 0.77714596973225614 I I #
point $-1 24.681480803398387 -30.301919851058237 7.5152949984372448 #
point $-1 51.348666439645584 -33.88609916112248 3.0892020409243148 #
straight-curve $-1 0 -33.88609916112248 7.5152949984372448 1 0 0 I I #
vertex $-1 $330 $403 #
point $-1 31.014917930647833 -30.9959679715985 4.4130720411713078 #
vertex $-1 $334 $404 #
point $-1 39.015073621521985 -30.9959679715985 4.4130720411713078 #
vertex $-1 $338 $405 #
point $-1 47.015229312396151 -30.9959679715985 4.4130720411713078 #
straight-curve $-1 -58.208563493758966 33.88609916112248 0 0 0 -1 I I #
point $-1 -58.208563493758966 -33.88609916112248 -7.5152949984372448 #
straight-curve $-1 -58.208563493758966 0 -7.5152949984372448 0 1 0 I I #
point $-1 -58.208563493758966 33.88609916112248 -7.5152949984372448 #
straight-curve $-1 -33.527082690360572 -33.88609916112248 38.17643636596317 0 0 -1 I I #
point $-1 -33.527082690360572 -33.88609916112248 7.5152949984372448 #
straight-curve $-1 -10.096744936118487 -33.88609916112248 3.0892020409243157 1 0 0 I I #
point $-1 -33.527082690360572 -33.88609916112248 3.0892020409243148 #
point $-1 -28.193645563111136 -30.218822001866247 3.7837516603405983 #
point $-1 -20.193489872236974 -30.218822001866247 3.7837516603405983 #
point $-1 -12.193334181362815 -30.218822001866247 3.7837516603405983 #
straight-curve $-1 24.681480803398387 -33.88609916112248 38.17643636596317 0 0 -1 I I #
point $-1 24.681480803398387 -33.88609916112248 7.5152949984372448 #
straight-curve $-1 19.007536810760993 -33.88609916112248 3.0892020409243157 1 0 0 I I #
point $-1 24.681480803398387 -33.88609916112248 3.0892020409243148 #
point $-1 30.014917930647833 -30.218822001866247 3.7837516603405983 #
point $-1 38.015073621521985 -30.218822001866247 3.7837516603405983 #
point $-1 46.015229312396151 -30.218822001866247 3.7837516603405983 #
End-of-ACIS-data 