500 0 8 0           
7 Unknown 11 ACIS 5.0 NT 24 Fri Mar 26 15:50:45 1999 
-1 9.9999999999999995e-007 1e-010 
body $-1 $8 $-1 $9 #
body $-1 $10 $-1 $11 #
body $-1 $12 $-1 $13 #
body $-1 $14 $-1 $15 #
body $-1 $16 $-1 $17 #
body $-1 $18 $-1 $19 #
body $-1 $20 $-1 $21 #
body $-1 $22 $-1 $23 #
lump $-1 $-1 $24 $0 #
transform $-1 1 0 0 0 1 0 0 0 1 70.639362773522137 46.629697223387218 18.136301042617827 1 rotate no_reflect no_shear #
lump $-1 $-1 $25 $1 #
transform $-1 1 0 0 0 1 0 0 0 1 70.639362773522137 46.629697223387218 18.136301042617827 1 rotate no_reflect no_shear #
lump $-1 $-1 $26 $2 #
transform $-1 1 0 0 0 1 0 0 0 1 70.639362773522137 46.629697223387218 18.136301042617827 1 rotate no_reflect no_shear #
lump $-1 $-1 $27 $3 #
transform $-1 1 0 0 0 1 0 0 0 1 70.639362773522137 46.629697223387218 18.136301042617827 1 rotate no_reflect no_shear #
lump $-1 $-1 $28 $4 #
transform $-1 1 0 0 0 1 0 0 0 1 70.639362773522137 46.629697223387218 18.136301042617827 1 rotate no_reflect no_shear #
lump $-1 $-1 $29 $5 #
transform $-1 1 0 0 0 1 0 0 0 1 70.639362773522137 46.629697223387218 18.136301042617827 1 rotate no_reflect no_shear #
lump $-1 $-1 $30 $6 #
transform $-1 1 0 0 0 1 0 0 0 1 70.639362773522137 46.629697223387218 18.136301042617827 1 rotate no_reflect no_shear #
lump $-1 $-1 $31 $7 #
transform $-1 1 0 0 0 1 0 0 0 1 70.639362773522137 46.629697223387218 18.136301042617827 1 rotate no_reflect no_shear #
shell $-1 $-1 $-1 $32 $-1 $8 #
shell $-1 $-1 $-1 $33 $-1 $10 #
shell $-1 $-1 $-1 $34 $-1 $12 #
shell $-1 $-1 $-1 $35 $-1 $14 #
shell $-1 $-1 $-1 $36 $-1 $16 #
shell $-1 $-1 $-1 $37 $-1 $18 #
shell $-1 $-1 $-1 $38 $-1 $20 #
shell $-1 $-1 $-1 $39 $-1 $22 #
face $-1 $40 $41 $24 $-1 $42 forward single #
face $-1 $43 $44 $25 $-1 $45 forward single #
face $-1 $46 $47 $26 $-1 $48 reversed single #
face $-1 $49 $50 $27 $-1 $51 forward single #
face $-1 $52 $53 $28 $-1 $54 reversed single #
face $-1 $55 $56 $29 $-1 $57 forward single #
face $-1 $58 $59 $30 $-1 $60 forward single #
face $-1 $61 $62 $31 $-1 $63 forward single #
face $-1 $64 $65 $24 $-1 $66 reversed single #
loop $-1 $-1 $67 $32 #
plane-surface $-1 0 0 18.136301042617827 0 0 1 1 0 0 forward_v I I I I #
face $-1 $68 $69 $25 $-1 $70 reversed single #
loop $-1 $-1 $71 $33 #
plane-surface $-1 0 -46.629697223387218 0 0 1 0 0 0 1 forward_v I I I I #
face $-1 $72 $73 $26 $-1 $74 reversed single #
loop $-1 $-1 $75 $34 #
plane-surface $-1 63.666505233247236 33.727010405986839 200.64941815334319 0 -1 0 -0.68199836817093118 0 -0.7313536940579346 forward_v I I I I #
face $-1 $76 $77 $27 $-1 $78 forward single #
loop $-1 $79 $80 $35 #
cone-surface $-1 60.918200851624256 27.310361940157954 8.9986729949461015 -0.68199836817093118 0 -0.7313536940579346 1.0970305410869019 0 -1.0229975522563968 1 I I 0 1 1.5 forward I I I I #
face $-1 $81 $82 $28 $-1 $83 reversed single #
loop $-1 $-1 $84 $36 #
plane-surface $-1 -186.36812076906369 -14.986829148324055 86.651304427449858 0 1 0 -0.81915205242281985 0 0.57357642473473569 forward_v I I I I #
face $-1 $85 $86 $29 $-1 $87 forward single #
loop $-1 $88 $89 $37 #
cone-surface $-1 -65.597219753765927 -12.99059663533933 11.415191981813328 0.81915205242281985 0 -0.57357642473473569 0.28678821236736785 0 0.40957602621140993 1 I I 0 1 0.5 forward I I I I #
face $-1 $90 $91 $30 $-1 $92 forward single #
loop $-1 $93 $94 $38 #
cone-surface $-1 -65.597219753765927 -9.9962478658622445 11.415191981813328 0.81915205242281985 0 -0.57357642473473569 0.28678821236736785 0 0.40957602621140993 1 I I 0 1 0.5 forward I I I I #
face $-1 $95 $96 $31 $-1 $97 forward single #
loop $-1 $98 $99 $39 #
cone-surface $-1 -65.597219753765927 -7.0018990963851593 11.415191981813328 0.81915205242281985 0 -0.57357642473473569 0.28678821236736785 0 0.40957602621140993 1 I I 0 1 0.5 forward I I I I #
face $-1 $100 $101 $24 $-1 $102 reversed single #
loop $-1 $-1 $103 $40 #
plane-surface $-1 0 0 -18.136301042617827 0 0 1 1 0 0 forward_v I I I I #
coedge $-1 $104 $105 $106 $107 forward $41 $-1 #
face $-1 $108 $109 $25 $-1 $110 reversed single #
loop $-1 $-1 $111 $43 #
plane-surface $-1 0 0 -18.136301042617827 0 0 1 1 0 0 forward_v I I I I #
coedge $-1 $112 $113 $114 $115 forward $44 $-1 #
face $-1 $116 $117 $26 $-1 $118 reversed single #
loop $-1 $-1 $119 $46 #
plane-surface $-1 -32.685355047105801 27.310361940157954 97.324700332715267 0.68199836817093118 0 0.7313536940579346 0.7313536940579346 0 -0.68199836817093118 forward_v I I I I #
coedge $-1 $120 $121 $122 $123 reversed $47 $-1 #
face $-1 $-1 $124 $27 $-1 $125 forward single #
loop $-1 $126 $127 $49 #
cone-surface $-1 59.88831920987927 27.310361940157954 7.894260171858722 -0.68199836817093118 0 -0.7313536940579346 0.54851527054345095 0 -0.51149877612819838 1 I I -0.70710678118654757 0.70710678118654757 0.75 forward I I I I #
loop $-1 $-1 $128 $35 #
coedge $-1 $80 $80 $129 $130 reversed $50 $-1 #
face $-1 $131 $132 $28 $-1 $133 reversed single #
loop $-1 $-1 $134 $52 #
plane-surface $-1 -70.639362773522109 -9.9962478658622445 5.61715813709624 -0.81915205242281985 0 0.57357642473473569 0.57357642473473569 0 0.81915205242281985 forward_v I I I I #
coedge $-1 $135 $136 $137 $138 reversed $53 $-1 #
face $-1 $-1 $139 $29 $-1 $140 forward single #
loop $-1 $141 $142 $55 #
cone-surface $-1 -64.733287705801786 -12.99059663533933 10.810260267585928 0.81915205242281985 0 -0.57357642473473569 0.14339410618368392 0 0.20478801310570496 1 I I -0.70710678118654746 0.70710678118654746 0.25 forward I I I I #
loop $-1 $-1 $143 $37 #
coedge $-1 $89 $89 $144 $145 reversed $56 $-1 #
face $-1 $-1 $146 $30 $-1 $147 forward single #
loop $-1 $148 $149 $58 #
cone-surface $-1 -64.733287705801786 -9.9962478658622445 10.810260267585928 0.81915205242281985 0 -0.57357642473473569 0.14339410618368392 0 0.20478801310570496 1 I I -0.70710678118654746 0.70710678118654746 0.25 forward I I I I #
loop $-1 $-1 $150 $38 #
coedge $-1 $94 $94 $151 $152 reversed $59 $-1 #
face $-1 $-1 $153 $31 $-1 $154 forward single #
loop $-1 $155 $156 $61 #
cone-surface $-1 -64.733287705801786 -7.0018990963851593 10.810260267585928 0.81915205242281985 0 -0.57357642473473569 0.14339410618368392 0 0.20478801310570496 1 I I -0.70710678118654746 0.70710678118654746 0.25 forward I I I I #
loop $-1 $-1 $157 $39 #
coedge $-1 $99 $99 $158 $159 reversed $62 $-1 #
face $-1 $160 $161 $24 $-1 $162 reversed single #
loop $-1 $-1 $163 $64 #
plane-surface $-1 0 -46.629697223387218 0 0 1 0 0 0 1 forward_v I I I I #
coedge $-1 $164 $165 $166 $167 forward $65 $-1 #
coedge $-1 $168 $67 $169 $170 forward $41 $-1 #
coedge $-1 $67 $168 $171 $172 forward $41 $-1 #
coedge $-1 $173 $174 $67 $107 reversed $175 $-1 #
edge $-1 $176 -46.629697223387218 $177 46.629697223387218 $106 $178 forward 7 unknown #
face $-1 $179 $180 $25 $-1 $181 reversed single #
loop $-1 $-1 $182 $68 #
plane-surface $-1 -39.747098880521818 -68.4723968858288 0 0 1 0 0 0 1 forward_v I I I I #
coedge $-1 $183 $184 $113 $185 forward $69 $-1 #
coedge $-1 $186 $71 $187 $188 reversed $44 $-1 #
coedge $-1 $71 $186 $111 $185 reversed $44 $-1 #
coedge $-1 $189 $190 $71 $115 reversed $180 $-1 #
edge $-1 $191 -18.136301042617827 $192 18.136301042617827 $114 $193 forward 7 unknown #
face $-1 $194 $195 $26 $-1 $196 forward single #
loop $-1 $-1 $197 $72 #
plane-surface $-1 63.666505233247236 20.893713474329068 200.64941815334319 0 1 0 0.68199836817093118 0 0.7313536940579346 forward_v I I I I #
coedge $-1 $198 $199 $200 $201 reversed $73 $-1 #
coedge $-1 $121 $75 $202 $203 reversed $47 $-1 #
coedge $-1 $75 $120 $198 $204 reversed $47 $-1 #
coedge $-1 $200 $205 $75 $123 forward $195 $-1 #
edge $-1 $206 -38.806110156898519 $207 -20.400552044336273 $122 $208 forward 7 unknown #
loop $-1 $-1 $129 $76 #
plane-surface $-1 -32.685355047105801 27.310361940157954 97.324700332715267 0.68199836817093118 0 0.7313536940579346 0.7313536940579346 0 -0.68199836817093118 forward_v I I I I #
loop $-1 $-1 $209 $49 #
coedge $-1 $127 $127 $128 $210 reversed $77 $-1 #
coedge $-1 $128 $128 $127 $210 forward $79 $-1 #
coedge $-1 $129 $129 $80 $130 forward $124 $-1 #
edge $-1 $211 0 $211 6.2831853071796004 $129 $212 forward 7 unknown #
face $-1 $213 $214 $28 $-1 $215 reversed single #
loop $-1 $-1 $216 $81 #
plane-surface $-1 -186.36812076906369 -5.0056665834004335 86.651304427449858 0 -1 0 0.81915205242281985 0 -0.57357642473473569 forward_v I I I I #
coedge $-1 $217 $218 $219 $220 reversed $82 $-1 #
coedge $-1 $136 $84 $221 $222 reversed $53 $-1 #
coedge $-1 $84 $135 $217 $223 reversed $53 $-1 #
coedge $-1 $219 $224 $84 $138 forward $225 $-1 #
edge $-1 $226 22.54469761100971 $227 31.310695580805294 $137 $228 forward 7 unknown #
loop $-1 $-1 $144 $85 #
plane-surface $-1 -70.639362773522109 -9.9962478658622445 5.61715813709624 -0.81915205242281985 0 0.57357642473473569 0.57357642473473569 0 0.81915205242281985 forward_v I I I I #
loop $-1 $-1 $229 $55 #
coedge $-1 $142 $142 $143 $230 reversed $86 $-1 #
coedge $-1 $143 $143 $142 $230 forward $88 $-1 #
coedge $-1 $144 $144 $89 $145 forward $139 $-1 #
edge $-1 $231 0 $231 6.2831853071796004 $144 $232 forward 7 unknown #
loop $-1 $-1 $151 $90 #
plane-surface $-1 -70.639362773522109 -9.9962478658622445 5.61715813709624 -0.81915205242281985 0 0.57357642473473569 0.57357642473473569 0 0.81915205242281985 forward_v I I I I #
loop $-1 $-1 $233 $58 #
coedge $-1 $149 $149 $150 $234 reversed $91 $-1 #
coedge $-1 $150 $150 $149 $234 forward $93 $-1 #
coedge $-1 $151 $151 $94 $152 forward $146 $-1 #
edge $-1 $235 0 $235 6.2831853071796004 $151 $236 forward 7 unknown #
loop $-1 $-1 $158 $95 #
plane-surface $-1 -70.639362773522109 -9.9962478658622445 5.61715813709624 -0.81915205242281985 0 0.57357642473473569 0.57357642473473569 0 0.81915205242281985 forward_v I I I I #
loop $-1 $-1 $237 $61 #
coedge $-1 $156 $156 $157 $238 reversed $96 $-1 #
coedge $-1 $157 $157 $156 $238 forward $98 $-1 #
coedge $-1 $158 $158 $99 $159 forward $153 $-1 #
edge $-1 $239 0 $239 6.2831853071796004 $158 $240 forward 7 unknown #
face $-1 $241 $242 $24 $-1 $243 reversed single #
loop $-1 $-1 $244 $100 #
plane-surface $-1 -70.639362773522137 0 0 1 0 0 0 0 -1 forward_v I I I I #
coedge $-1 $245 $171 $246 $247 forward $101 $-1 #
coedge $-1 $248 $103 $245 $249 forward $65 $-1 #
coedge $-1 $103 $248 $250 $251 forward $65 $-1 #
coedge $-1 $174 $173 $103 $167 reversed $175 $-1 #
edge $-1 $252 -46.629697223387218 $253 46.629697223387218 $166 $254 forward 7 unknown #
coedge $-1 $105 $104 $255 $256 forward $41 $-1 #
coedge $-1 $257 $258 $104 $170 reversed $242 $-1 #
edge $-1 $177 -70.639362773522137 $259 70.639362773522137 $169 $260 forward 7 unknown #
coedge $-1 $163 $261 $105 $172 reversed $101 $-1 #
edge $-1 $262 -70.639362773522137 $176 70.639362773522137 $171 $263 forward 7 unknown #
coedge $-1 $166 $106 $261 $264 forward $175 $-1 #
coedge $-1 $106 $166 $257 $265 reversed $175 $-1 #
loop $-1 $-1 $173 $241 #
vertex $-1 $107 $266 #
vertex $-1 $107 $267 #
straight-curve $-1 70.639362773522137 0 18.136301042617827 0 1 0 I I #
face $-1 $268 $269 $25 $-1 $270 reversed single #
loop $-1 $-1 $114 $108 #
plane-surface $-1 -45.127437072757147 -57.551047054608013 0 1 0 0 0 0 -1 forward_v I I I I #
coedge $-1 $271 $272 $273 $274 forward $109 $-1 #
coedge $-1 $275 $111 $276 $277 forward $69 $-1 #
coedge $-1 $111 $275 $189 $278 forward $69 $-1 #
edge $-1 $191 -45.127437072757147 $279 -34.36676068828649 $111 $280 forward 7 unknown #
coedge $-1 $113 $112 $281 $282 forward $44 $-1 #
coedge $-1 $283 $284 $112 $188 forward $285 $-1 #
edge $-1 $286 34.36676068828649 $192 45.127437072757147 $187 $287 forward 7 unknown #
coedge $-1 $273 $114 $184 $278 reversed $180 $-1 #
coedge $-1 $114 $273 $283 $288 reversed $180 $-1 #
vertex $-1 $185 $289 #
vertex $-1 $288 $290 #
straight-curve $-1 -45.127437072757147 -46.629697223387218 0 0 0 1 I I #
face $-1 $-1 $291 $26 $-1 $292 reversed single #
loop $-1 $-1 $122 $116 #
plane-surface $-1 0 0 18.136301042617827 0 0 1 1 0 0 forward_v I I I I #
coedge $-1 $293 $294 $295 $296 reversed $117 $-1 #
coedge $-1 $297 $119 $121 $204 forward $73 $-1 #
coedge $-1 $119 $297 $293 $298 forward $73 $-1 #
coedge $-1 $295 $122 $119 $201 forward $195 $-1 #
edge $-1 $207 -20.071829435907862 $299 -7.2385325042500916 $200 $300 forward 7 unknown #
coedge $-1 $301 $302 $120 $203 forward $291 $-1 #
edge $-1 $303 -99.351869024309394 $206 -82.188408034053765 $202 $304 forward 7 unknown #
edge $-1 $207 116.11230024270414 $303 141.2787255470443 $121 $305 forward 7 unknown #
coedge $-1 $122 $295 $301 $306 forward $195 $-1 #
vertex $-1 $123 $307 #
vertex $-1 $123 $308 #
straight-curve $-1 31.833252616623618 33.727010405986839 18.136301042617831 -1 0 0 I I #
coedge $-1 $209 $209 $-1 $309 reversed $126 $-1 #
edge $-1 $310 0 $310 6.2831853071796004 $127 $311 forward 7 unknown #
vertex $-1 $130 $312 #
ellipse-curve $-1 61.436583717241014 27.310361940157954 9.5545705474899982 0.68199836817093118 0 0.7313536940579346 1.0970305410869019 0 -1.0229975522563968 1 I I #
face $-1 $-1 $225 $28 $-1 $313 forward single #
loop $-1 $-1 $314 $131 #
plane-surface $-1 -70.639362773522137 0 0 1 0 0 0 0 -1 forward_v I I I I #
coedge $-1 $315 $316 $317 $318 reversed $132 $-1 #
coedge $-1 $319 $134 $136 $223 forward $82 $-1 #
coedge $-1 $134 $319 $315 $320 forward $82 $-1 #
coedge $-1 $317 $137 $134 $220 forward $225 $-1 #
edge $-1 $227 -9.9887052153929332 $321 -0.0075426504693112406 $219 $322 forward 7 unknown #
coedge $-1 $323 $324 $135 $222 forward $214 $-1 #
edge $-1 $325 -37.708494076628732 $226 -25.189351171107102 $221 $326 forward 7 unknown #
edge $-1 $227 -15.283051380379877 $325 4.9769468549031306e-014 $136 $327 forward 7 unknown #
coedge $-1 $137 $317 $323 $328 forward $225 $-1 #
loop $-1 $-1 $317 $213 #
vertex $-1 $222 $329 #
vertex $-1 $138 $330 #
straight-curve $-1 -93.184060384531847 -14.986829148324055 18.136301042617831 1 0 0 I I #
coedge $-1 $229 $229 $-1 $331 reversed $141 $-1 #
edge $-1 $332 0 $332 6.2831853071796004 $142 $333 forward 7 unknown #
vertex $-1 $145 $334 #
ellipse-curve $-1 -66.256363788624341 -12.99059663533933 11.876729589857025 -0.81915205242281985 0 0.57357642473473569 0.28678821236736785 0 0.40957602621140993 1 I I #
coedge $-1 $233 $233 $-1 $335 reversed $148 $-1 #
edge $-1 $336 0 $336 6.2831853071796004 $149 $337 forward 7 unknown #
vertex $-1 $152 $338 #
ellipse-curve $-1 -66.256363788624341 -9.9962478658622445 11.876729589857025 -0.81915205242281985 0 0.57357642473473569 0.28678821236736785 0 0.40957602621140993 1 I I #
coedge $-1 $237 $237 $-1 $339 reversed $155 $-1 #
edge $-1 $340 0 $340 6.2831853071796004 $156 $341 forward 7 unknown #
vertex $-1 $159 $342 #
ellipse-curve $-1 -66.256363788624341 -7.0018990963851593 11.876729589857025 -0.81915205242281985 0 0.57357642473473569 0.28678821236736785 0 0.40957602621140993 1 I I #
face $-1 $-1 $175 $24 $-1 $343 reversed single #
loop $-1 $-1 $257 $160 #
plane-surface $-1 0 46.629697223387218 0 0 -1 0 0 0 -1 forward_v I I I I #
coedge $-1 $344 $255 $258 $345 forward $161 $-1 #
coedge $-1 $261 $163 $164 $249 reversed $101 $-1 #
coedge $-1 $255 $344 $163 $247 reversed $161 $-1 #
edge $-1 $262 -18.136301042617827 $346 18.136301042617827 $246 $347 forward 7 unknown #
coedge $-1 $165 $164 $344 $348 forward $65 $-1 #
edge $-1 $253 -70.639362773522137 $346 70.639362773522137 $245 $349 forward 7 unknown #
coedge $-1 $258 $257 $165 $251 reversed $242 $-1 #
edge $-1 $350 -70.639362773522137 $252 70.639362773522137 $250 $351 forward 7 unknown #
vertex $-1 $167 $352 #
vertex $-1 $264 $353 #
straight-curve $-1 70.639362773522137 0 -18.136301042617827 0 -1 0 I I #
coedge $-1 $244 $246 $168 $256 reversed $161 $-1 #
edge $-1 $259 -46.629697223387218 $262 46.629697223387218 $255 $354 forward 7 unknown #
coedge $-1 $250 $169 $174 $265 forward $242 $-1 #
coedge $-1 $169 $250 $244 $345 reversed $242 $-1 #
vertex $-1 $170 $355 #
straight-curve $-1 0 46.629697223387218 18.136301042617827 -1 0 0 I I #
coedge $-1 $171 $245 $173 $264 reversed $101 $-1 #
vertex $-1 $256 $356 #
straight-curve $-1 0 -46.629697223387218 18.136301042617827 1 0 0 I I #
edge $-1 $176 -18.136301042617827 $253 18.136301042617827 $173 $357 forward 7 unknown #
edge $-1 $177 -18.136301042617827 $252 18.136301042617827 $174 $358 forward 7 unknown #
point $-1 70.639362773522137 -46.629697223387218 18.136301042617827 #
point $-1 70.639362773522137 46.629697223387218 18.136301042617827 #
face $-1 $-1 $285 $25 $-1 $359 forward single #
loop $-1 $-1 $360 $179 #
plane-surface $-1 -34.36676068828649 -57.551047054608013 0 -1 0 0 0 0 1 forward_v I I I I #
coedge $-1 $361 $182 $275 $362 reversed $109 $-1 #
coedge $-1 $182 $361 $363 $364 reversed $109 $-1 #
coedge $-1 $190 $189 $182 $274 reversed $180 $-1 #
edge $-1 $365 -18.136301042617827 $366 18.136301042617827 $273 $367 forward 7 unknown #
coedge $-1 $184 $183 $271 $362 forward $69 $-1 #
coedge $-1 $281 $360 $183 $277 reversed $269 $-1 #
edge $-1 $279 -10.921349831220795 $368 10.921349831220788 $276 $369 forward 7 unknown #
edge $-1 $366 -10.921349831220788 $191 10.921349831220795 $189 $370 forward 7 unknown #
vertex $-1 $277 $371 #
straight-curve $-1 0 -46.629697223387218 -18.136301042617827 1 0 0 I I #
coedge $-1 $372 $276 $186 $282 reversed $269 $-1 #
edge $-1 $286 -18.136301042617827 $279 18.136301042617827 $281 $373 forward 7 unknown #
coedge $-1 $363 $187 $190 $288 forward $285 $-1 #
coedge $-1 $187 $363 $372 $374 forward $285 $-1 #
loop $-1 $-1 $187 $268 #
vertex $-1 $188 $375 #
straight-curve $-1 0 -46.629697223387218 18.136301042617827 -1 0 0 I I #
edge $-1 $192 -10.921349831220795 $365 10.921349831220788 $190 $376 forward 7 unknown #
point $-1 -45.127437072757147 -46.629697223387218 -18.136301042617827 #
point $-1 -45.127437072757147 -46.629697223387218 18.136301042617827 #
loop $-1 $-1 $202 $194 #
plane-surface $-1 70.639362773522137 0 0 -1 0 0 0 0 1 forward_v I I I I #
coedge $-1 $294 $197 $199 $298 reversed $117 $-1 #
coedge $-1 $197 $293 $377 $378 reversed $117 $-1 #
coedge $-1 $205 $200 $197 $296 forward $195 $-1 #
edge $-1 $299 20.400552044336273 $379 38.806110156898519 $295 $380 forward 7 unknown #
coedge $-1 $199 $198 $302 $381 reversed $73 $-1 #
edge $-1 $382 -141.2787255470443 $299 -116.11230024270414 $293 $383 forward 7 unknown #
vertex $-1 $201 $384 #
straight-curve $-1 52.233804660959876 13.655180970078977 18.136301042617823 0 -1 0 I I #
coedge $-1 $377 $202 $205 $306 reversed $291 $-1 #
coedge $-1 $202 $377 $297 $381 forward $291 $-1 #
vertex $-1 $203 $385 #
straight-curve $-1 70.639362773522137 33.727010405986839 100.3247090766716 0 0 1 I I #
straight-curve $-1 -32.685355047105801 33.727010405986839 97.324700332715267 0.7313536940579346 0 -0.68199836817093118 I I #
edge $-1 $379 20.893713474329068 $206 33.727010405986839 $301 $386 forward 7 unknown #
point $-1 70.639362773522137 33.727010405986839 18.136301042617827 #
point $-1 52.23380466095989 33.727010405986839 18.136301042617831 #
edge $-1 $387 1 $387 0 $209 $-1 forward 7 unknown #
vertex $-1 $210 $388 #
ellipse-curve $-1 60.39981798600747 27.310361940157954 8.4427754424021728 0.68199836817093118 0 0.7313536940579346 1.0970305410869019 0 -1.0229975522563968 1 I I #
point $-1 62.533614258327944 27.310361940157954 8.531572995233633 #
plane-surface $-1 0 0 18.136301042617827 0 0 1 1 0 0 forward_v I I I I #
coedge $-1 $324 $323 $316 $389 forward $214 $-1 #
coedge $-1 $316 $216 $218 $320 reversed $132 $-1 #
coedge $-1 $216 $315 $314 $389 reversed $132 $-1 #
coedge $-1 $224 $219 $216 $318 forward $225 $-1 #
edge $-1 $321 -31.310695580805294 $390 -22.54469761100971 $317 $391 forward 7 unknown #
coedge $-1 $218 $217 $324 $392 reversed $82 $-1 #
edge $-1 $393 -4.9769468549031306e-014 $321 15.283051380379877 $315 $394 forward 7 unknown #
vertex $-1 $220 $395 #
straight-curve $-1 -61.873364803726552 -4.9981239329311222 18.136301042617823 0 1 0 I I #
coedge $-1 $314 $221 $224 $328 reversed $214 $-1 #
coedge $-1 $221 $314 $319 $392 forward $214 $-1 #
vertex $-1 $222 $396 #
straight-curve $-1 -70.639362773522137 -14.986829148324055 43.325652213724929 0 0 1 I I #
straight-curve $-1 -70.639362773522109 -14.986829148324055 5.61715813709624 -0.57357642473473569 0 -0.81915205242281985 I I #
edge $-1 $390 5.0056665834004335 $226 14.986829148324055 $323 $397 forward 7 unknown #
point $-1 -70.639362773522137 -14.986829148324055 18.136301042617827 #
point $-1 -61.873364803726552 -14.986829148324055 18.136301042617827 #
edge $-1 $398 1 $398 0 $229 $-1 forward 7 unknown #
vertex $-1 $230 $399 #
ellipse-curve $-1 -64.938075718907484 -12.99059663533933 10.953654373769613 -0.81915205242281985 0 0.57357642473473569 0.28678821236736785 0 0.40957602621140993 1 I I #
point $-1 -65.969575576256986 -12.99059663533933 12.286305616068454 #
edge $-1 $400 1 $400 0 $233 $-1 forward 7 unknown #
vertex $-1 $234 $401 #
ellipse-curve $-1 -64.938075718907484 -9.9962478658622445 10.953654373769613 -0.81915205242281985 0 0.57357642473473569 0.28678821236736785 0 0.40957602621140993 1 I I #
point $-1 -65.969575576256986 -9.9962478658622445 12.286305616068454 #
edge $-1 $402 1 $402 0 $237 $-1 forward 7 unknown #
vertex $-1 $238 $403 #
ellipse-curve $-1 -64.938075718907484 -7.0018990963851593 10.953654373769613 -0.81915205242281985 0 0.57357642473473569 0.28678821236736785 0 0.40957602621140993 1 I I #
point $-1 -65.969575576256986 -7.0018990963851593 12.286305616068454 #
plane-surface $-1 70.639362773522137 0 0 -1 0 0 0 0 1 forward_v I I I I #
coedge $-1 $246 $244 $248 $348 reversed $161 $-1 #
edge $-1 $259 -18.136301042617827 $350 18.136301042617827 $258 $404 forward 7 unknown #
vertex $-1 $348 $405 #
straight-curve $-1 -70.639362773522137 -46.629697223387218 0 0 0 -1 I I #
edge $-1 $346 -46.629697223387218 $350 46.629697223387218 $344 $406 forward 7 unknown #
straight-curve $-1 0 -46.629697223387218 -18.136301042617827 -1 0 0 I I #
vertex $-1 $251 $407 #
straight-curve $-1 0 46.629697223387218 -18.136301042617827 1 0 0 I I #
point $-1 70.639362773522137 46.629697223387218 -18.136301042617827 #
point $-1 70.639362773522137 -46.629697223387218 -18.136301042617827 #
straight-curve $-1 -70.639362773522137 0 18.136301042617827 0 -1 0 I I #
point $-1 -70.639362773522137 46.629697223387218 18.136301042617827 #
point $-1 -70.639362773522137 -46.629697223387218 18.136301042617827 #
straight-curve $-1 70.639362773522137 -46.629697223387218 0 0 0 -1 I I #
straight-curve $-1 70.639362773522137 46.629697223387218 0 0 0 -1 I I #
plane-surface $-1 0 0 18.136301042617827 0 0 1 1 0 0 forward_v I I I I #
coedge $-1 $276 $372 $361 $408 forward $269 $-1 #
coedge $-1 $272 $271 $360 $408 reversed $109 $-1 #
edge $-1 $368 -5.3803381922353282 $366 5.3803381922353282 $271 $409 forward 7 unknown #
coedge $-1 $284 $283 $272 $364 forward $285 $-1 #
edge $-1 $365 -5.3803381922353282 $410 5.3803381922353282 $272 $411 forward 7 unknown #
vertex $-1 $288 $412 #
vertex $-1 $278 $413 #
straight-curve $-1 -45.127437072757147 -68.4723968858288 0 0 0 -1 I I #
vertex $-1 $408 $414 #
straight-curve $-1 -34.36676068828649 -57.551047054608013 -18.136301042617827 0 -1 0 I I #
straight-curve $-1 -45.127437072757147 -57.551047054608013 -18.136301042617827 0 1 0 I I #
point $-1 -34.36676068828649 -46.629697223387218 -18.136301042617827 #
coedge $-1 $360 $281 $284 $374 reversed $269 $-1 #
straight-curve $-1 -34.36676068828649 -46.629697223387218 0 0 0 -1 I I #
edge $-1 $410 -10.921349831220788 $286 10.921349831220795 $372 $415 forward 7 unknown #
point $-1 -34.36676068828649 -46.629697223387218 18.136301042617827 #
straight-curve $-1 -45.127437072757147 -57.551047054608013 18.136301042617827 0 -1 0 I I #
coedge $-1 $302 $301 $294 $378 forward $291 $-1 #
edge $-1 $379 82.188408034053765 $382 99.351869024309394 $377 $416 forward 7 unknown #
vertex $-1 $306 $417 #
straight-curve $-1 31.833252616623618 20.893713474329068 18.136301042617831 1 0 0 I I #
edge $-1 $382 7.2385325042500916 $303 20.071829435907862 $302 $418 forward 7 unknown #
vertex $-1 $381 $419 #
straight-curve $-1 -32.685355047105801 20.893713474329068 97.324700332715267 -0.7313536940579346 0 0.68199836817093118 I I #
point $-1 52.23380466095989 20.893713474329068 18.136301042617831 #
point $-1 70.639362773522151 33.727010405986839 0.97284005236220139 #
straight-curve $-1 70.639362773522137 0 18.136301042617827 0 1 0 I I #
vertex $-1 $309 $420 #
point $-1 61.496848527094372 27.310361940157954 7.4197778901457765 #
edge $-1 $390 25.189351171107102 $393 37.708494076628732 $314 $421 forward 7 unknown #
vertex $-1 $328 $422 #
straight-curve $-1 -93.184060384531847 -5.0056665834004335 18.136301042617831 -1 0 0 I I #
edge $-1 $393 0.0075426504693112406 $325 9.9887052153929332 $324 $423 forward 7 unknown #
vertex $-1 $392 $424 #
straight-curve $-1 -70.639362773522109 -5.0056665834004335 5.61715813709624 0.57357642473473569 0 0.81915205242281985 I I #
point $-1 -61.873364803726552 -5.0056665834004335 18.136301042617827 #
point $-1 -70.639362773522137 -14.986829148324055 5.6171581370961992 #
straight-curve $-1 -70.639362773522137 0 18.136301042617827 0 -1 0 I I #
vertex $-1 $331 $425 #
point $-1 -64.651287506540129 -12.99059663533933 11.363230399981022 #
vertex $-1 $335 $426 #
point $-1 -64.651287506540129 -9.9962478658622445 11.363230399981022 #
vertex $-1 $339 $427 #
point $-1 -64.651287506540129 -7.0018990963851593 11.363230399981022 #
straight-curve $-1 -70.639362773522137 46.629697223387218 0 0 0 -1 I I #
point $-1 -70.639362773522137 -46.629697223387218 -18.136301042617827 #
straight-curve $-1 -70.639362773522137 0 -18.136301042617827 0 1 0 I I #
point $-1 -70.639362773522137 46.629697223387218 -18.136301042617827 #
edge $-1 $410 -18.136301042617827 $368 18.136301042617827 $360 $428 forward 7 unknown #
straight-curve $-1 -39.747098880521818 -68.4723968858288 -18.136301042617827 -1 0 0 I I #
vertex $-1 $374 $429 #
straight-curve $-1 -39.747098880521818 -68.4723968858288 18.136301042617827 1 0 0 I I #
point $-1 -45.127437072757147 -68.4723968858288 18.136301042617827 #
point $-1 -45.127437072757147 -68.4723968858288 -18.136301042617827 #
point $-1 -34.36676068828649 -68.4723968858288 -18.136301042617827 #
straight-curve $-1 -34.36676068828649 -57.551047054608013 18.136301042617827 0 1 0 I I #
straight-curve $-1 70.639362773522137 20.893713474329068 100.3247090766716 0 0 -1 I I #
point $-1 70.639362773522137 20.893713474329068 18.136301042617827 #
straight-curve $-1 70.639362773522137 13.655180970078977 0.97284005236222271 0 1 0 I I #
point $-1 70.639362773522151 20.893713474329068 0.97284005236220139 #
point $-1 59.376820433751071 27.310361940157954 7.3457449013152711 #
straight-curve $-1 -70.639362773522137 -5.0056665834004335 43.325652213724929 0 0 -1 I I #
point $-1 -70.639362773522137 -5.0056665834004335 18.136301042617827 #
straight-curve $-1 -70.639362773522137 -4.9981239329311222 5.6171581370962063 0 -1 0 I I #
point $-1 -70.639362773522137 -5.0056665834004335 5.6171581370961992 #
point $-1 -64.528499692696087 -12.99059663533933 10.666866161402243 #
point $-1 -64.528499692696087 -9.9962478658622445 10.666866161402243 #
point $-1 -64.528499692696087 -7.0018990963851593 10.666866161402243 #
straight-curve $-1 -34.36676068828649 -68.4723968858288 0 0 0 -1 I I #
point $-1 -34.36676068828649 -68.4723968858288 18.136301042617827 #
End-of-ACIS-data 