500 0 18 0           
7 Unknown 11 ACIS 5.0 NT 24 Fri Mar 26 15:06:11 1999 
-1 9.9999999999999995e-007 1e-010 
body $-1 $18 $-1 $19 #
body $-1 $20 $-1 $21 #
body $-1 $22 $-1 $23 #
body $-1 $24 $-1 $25 #
body $-1 $26 $-1 $27 #
body $-1 $28 $-1 $29 #
body $-1 $30 $-1 $31 #
body $-1 $32 $-1 $33 #
body $-1 $34 $-1 $35 #
body $-1 $36 $-1 $37 #
body $-1 $38 $-1 $39 #
body $-1 $40 $-1 $41 #
body $-1 $42 $-1 $43 #
body $-1 $44 $-1 $45 #
body $-1 $46 $-1 $47 #
body $-1 $48 $-1 $49 #
body $-1 $50 $-1 $51 #
body $-1 $52 $-1 $53 #
lump $-1 $-1 $54 $0 #
transform $-1 1 0 0 0 1 0 0 0 1 40.385753959776608 28.168345448112998 13.900550220082472 1 rotate no_reflect no_shear #
lump $-1 $-1 $55 $1 #
transform $-1 1 0 0 0 1 0 0 0 1 40.385753959776608 28.168345448112998 13.900550220082472 1 rotate no_reflect no_shear #
lump $-1 $-1 $56 $2 #
transform $-1 1 0 0 0 1 0 0 0 1 40.385753959776608 28.168345448112998 13.900550220082472 1 rotate no_reflect no_shear #
lump $-1 $-1 $57 $3 #
transform $-1 1 0 0 0 1 0 0 0 1 40.385753959776608 28.168345448112998 13.900550220082472 1 rotate no_reflect no_shear #
lump $-1 $-1 $58 $4 #
transform $-1 1 0 0 0 1 0 0 0 1 40.385753959776608 28.168345448112998 13.900550220082472 1 rotate no_reflect no_shear #
lump $-1 $-1 $59 $5 #
transform $-1 1 0 0 0 1 0 0 0 1 40.385753959776608 28.168345448112998 13.900550220082472 1 rotate no_reflect no_shear #
lump $-1 $-1 $60 $6 #
transform $-1 1 0 0 0 1 0 0 0 1 40.385753959776608 28.168345448112998 13.900550220082472 1 rotate no_reflect no_shear #
lump $-1 $-1 $61 $7 #
transform $-1 1 0 0 0 1 0 0 0 1 40.385753959776608 28.168345448112998 13.900550220082472 1 rotate no_reflect no_shear #
lump $-1 $-1 $62 $8 #
transform $-1 1 0 0 0 1 0 0 0 1 40.385753959776608 28.168345448112998 13.900550220082472 1 rotate no_reflect no_shear #
lump $-1 $-1 $63 $9 #
transform $-1 1 0 0 0 1 0 0 0 1 40.385753959776608 28.168345448112998 13.900550220082472 1 rotate no_reflect no_shear #
lump $-1 $-1 $64 $10 #
transform $-1 1 0 0 0 1 0 0 0 1 40.385753959776608 28.168345448112998 13.900550220082472 1 rotate no_reflect no_shear #
lump $-1 $-1 $65 $11 #
transform $-1 1 0 0 0 1 0 0 0 1 40.385753959776608 28.168345448112998 13.900550220082472 1 rotate no_reflect no_shear #
lump $-1 $-1 $66 $12 #
transform $-1 1 0 0 0 1 0 0 0 1 40.385753959776608 28.168345448112998 13.900550220082472 1 rotate no_reflect no_shear #
lump $-1 $-1 $67 $13 #
transform $-1 1 0 0 0 1 0 0 0 1 40.385753959776608 28.168345448112998 13.900550220082472 1 rotate no_reflect no_shear #
lump $-1 $-1 $68 $14 #
transform $-1 1 0 0 0 1 0 0 0 1 40.385753959776608 28.168345448112998 13.900550220082472 1 rotate no_reflect no_shear #
lump $-1 $-1 $69 $15 #
transform $-1 1 0 0 0 1 0 0 0 1 40.385753959776608 28.168345448112998 13.900550220082472 1 rotate no_reflect no_shear #
lump $-1 $-1 $70 $16 #
transform $-1 1 0 0 0 1 0 0 0 1 40.385753959776608 28.168345448112998 13.900550220082472 1 rotate no_reflect no_shear #
lump $-1 $-1 $71 $17 #
transform $-1 1 0 0 0 1 0 0 0 1 40.385753959776608 28.168345448112998 13.900550220082472 1 rotate no_reflect no_shear #
shell $-1 $-1 $-1 $72 $-1 $18 #
shell $-1 $-1 $-1 $73 $-1 $20 #
shell $-1 $-1 $-1 $74 $-1 $22 #
shell $-1 $-1 $-1 $75 $-1 $24 #
shell $-1 $-1 $-1 $76 $-1 $26 #
shell $-1 $-1 $-1 $77 $-1 $28 #
shell $-1 $-1 $-1 $78 $-1 $30 #
shell $-1 $-1 $-1 $79 $-1 $32 #
shell $-1 $-1 $-1 $80 $-1 $34 #
shell $-1 $-1 $-1 $81 $-1 $36 #
shell $-1 $-1 $-1 $82 $-1 $38 #
shell $-1 $-1 $-1 $83 $-1 $40 #
shell $-1 $-1 $-1 $84 $-1 $42 #
shell $-1 $-1 $-1 $85 $-1 $44 #
shell $-1 $-1 $-1 $86 $-1 $46 #
shell $-1 $-1 $-1 $87 $-1 $48 #
shell $-1 $-1 $-1 $88 $-1 $50 #
shell $-1 $-1 $-1 $89 $-1 $52 #
face $-1 $90 $91 $54 $-1 $92 forward single #
face $-1 $93 $94 $55 $-1 $95 forward single #
face $-1 $96 $97 $56 $-1 $98 reversed single #
face $-1 $99 $100 $57 $-1 $101 forward single #
face $-1 $102 $103 $58 $-1 $104 forward single #
face $-1 $105 $106 $59 $-1 $107 forward single #
face $-1 $108 $109 $60 $-1 $110 reversed single #
face $-1 $111 $112 $61 $-1 $113 forward single #
face $-1 $114 $115 $62 $-1 $116 forward single #
face $-1 $117 $118 $63 $-1 $119 forward single #
face $-1 $120 $121 $64 $-1 $122 reversed single #
face $-1 $123 $124 $65 $-1 $125 forward single #
face $-1 $126 $127 $66 $-1 $128 forward single #
face $-1 $129 $130 $67 $-1 $131 forward single #
face $-1 $132 $133 $68 $-1 $134 reversed single #
face $-1 $135 $136 $69 $-1 $137 forward single #
face $-1 $138 $139 $70 $-1 $140 forward single #
face $-1 $141 $142 $71 $-1 $143 forward single #
face $-1 $144 $145 $54 $-1 $146 reversed single #
loop $-1 $-1 $147 $72 #
plane-surface $-1 0 0 13.900550220082472 0 0 1 1 0 0 forward_v I I I I #
face $-1 $148 $149 $55 $-1 $150 reversed single #
loop $-1 $-1 $151 $73 #
plane-surface $-1 0 -23.25735788233759 -10.224893649829065 0 0 1 1 0 0 forward_v I I I I #
face $-1 $152 $153 $56 $-1 $154 reversed single #
loop $-1 $-1 $155 $74 #
plane-surface $-1 52.325849684450375 -5.7002197350023636 114.75144512815137 0 1 0 0.77714596973225614 0 0.62932038083071107 forward_v I I I I #
face $-1 $156 $157 $57 $-1 $158 forward single #
loop $-1 $159 $160 $75 #
cone-surface $-1 34.591555061652471 -4.4013781607737634 7.0136473325411099 -0.77714596973225614 0 -0.62932038083071107 0.31466019041535553 0 -0.38857298486612807 1 I I 0 1 0.5 forward I I I I #
face $-1 $161 $162 $58 $-1 $163 forward single #
loop $-1 $164 $165 $76 #
cone-surface $-1 34.591555061652471 -2.453115799430865 7.0136473325411099 -0.77714596973225614 0 -0.62932038083071107 0.31466019041535553 0 -0.38857298486612807 1 I I 0 1 0.5 forward I I I I #
face $-1 $166 $167 $59 $-1 $168 forward single #
loop $-1 $169 $170 $77 #
cone-surface $-1 34.591555061652471 -0.50485343808796657 7.0136473325411099 -0.77714596973225614 0 -0.62932038083071107 0.31466019041535553 0 -0.38857298486612807 1 I I 0 1 0.5 forward I I I I #
face $-1 $171 $172 $60 $-1 $173 reversed single #
loop $-1 $-1 $174 $78 #
plane-surface $-1 52.325849684450375 9.0279869954101812 114.75144512815137 0 1 0 0.77714596973225614 0 0.62932038083071107 forward_v I I I I #
face $-1 $175 $176 $61 $-1 $177 forward single #
loop $-1 $178 $179 $79 #
cone-surface $-1 34.591555061652471 10.326828569638781 7.0136473325411099 -0.77714596973225614 0 -0.62932038083071107 0.31466019041535553 0 -0.38857298486612807 1 I I 0 1 0.5 forward I I I I #
face $-1 $180 $181 $62 $-1 $182 forward single #
loop $-1 $183 $184 $80 #
cone-surface $-1 34.591555061652471 12.27509093098168 7.0136473325411099 -0.77714596973225614 0 -0.62932038083071107 0.31466019041535553 0 -0.38857298486612807 1 I I 0 1 0.5 forward I I I I #
face $-1 $185 $186 $63 $-1 $187 forward single #
loop $-1 $188 $189 $81 #
cone-surface $-1 34.591555061652471 14.223353292324578 7.0136473325411099 -0.77714596973225614 0 -0.62932038083071107 0.31466019041535553 0 -0.38857298486612807 1 I I 0 1 0.5 forward I I I I #
face $-1 $190 $191 $64 $-1 $192 reversed single #
loop $-1 $-1 $193 $82 #
plane-surface $-1 -103.15700580865439 -5.7002197350023636 51.9801932792736 0 1 0 -0.77714596973225614 0 0.62932038083071107 forward_v I I I I #
face $-1 $194 $195 $65 $-1 $196 forward single #
loop $-1 $197 $198 $83 #
cone-surface $-1 -34.591555061652478 -4.4013781607737634 7.0136473325411242 0.77714596973225614 0 -0.62932038083071107 0.31466019041535553 0 0.38857298486612807 1 I I 0 1 0.5 forward I I I I #
face $-1 $199 $200 $66 $-1 $201 forward single #
loop $-1 $202 $203 $84 #
cone-surface $-1 -34.591555061652478 -2.453115799430865 7.0136473325411242 0.77714596973225614 0 -0.62932038083071107 0.31466019041535553 0 0.38857298486612807 1 I I 0 1 0.5 forward I I I I #
face $-1 $204 $205 $67 $-1 $206 forward single #
loop $-1 $207 $208 $85 #
cone-surface $-1 -34.591555061652478 -0.50485343808796657 7.0136473325411242 0.77714596973225614 0 -0.62932038083071107 0.31466019041535553 0 0.38857298486612807 1 I I 0 1 0.5 forward I I I I #
face $-1 $209 $210 $68 $-1 $211 reversed single #
loop $-1 $-1 $212 $86 #
plane-surface $-1 -103.15700580865439 9.0279869954101812 51.9801932792736 0 1 0 -0.77714596973225614 0 0.62932038083071107 forward_v I I I I #
face $-1 $213 $214 $69 $-1 $215 forward single #
loop $-1 $216 $217 $87 #
cone-surface $-1 -34.591555061652478 10.326828569638781 7.0136473325411242 0.77714596973225614 0 -0.62932038083071107 0.31466019041535553 0 0.38857298486612807 1 I I 0 1 0.5 forward I I I I #
face $-1 $218 $219 $70 $-1 $220 forward single #
loop $-1 $221 $222 $88 #
cone-surface $-1 -34.591555061652478 12.27509093098168 7.0136473325411242 0.77714596973225614 0 -0.62932038083071107 0.31466019041535553 0 0.38857298486612807 1 I I 0 1 0.5 forward I I I I #
face $-1 $223 $224 $71 $-1 $225 forward single #
loop $-1 $226 $227 $89 #
cone-surface $-1 -34.591555061652478 14.223353292324578 7.0136473325411242 0.77714596973225614 0 -0.62932038083071107 0.31466019041535553 0 0.38857298486612807 1 I I 0 1 0.5 forward I I I I #
face $-1 $228 $229 $54 $-1 $230 reversed single #
loop $-1 $-1 $231 $90 #
plane-surface $-1 0 0 -13.900550220082472 0 0 1 1 0 0 forward_v I I I I #
coedge $-1 $232 $233 $234 $235 forward $91 $-1 #
face $-1 $236 $237 $55 $-1 $238 reversed single #
loop $-1 $-1 $239 $93 #
plane-surface $-1 0 -23.25735788233759 -13.40055022008247 0 0 1 1 0 0 forward_v I I I I #
coedge $-1 $240 $241 $242 $243 reversed $94 $-1 #
face $-1 $244 $245 $56 $-1 $246 reversed single #
loop $-1 $-1 $247 $96 #
plane-surface $-1 -10.445402164427414 -2.453115799430865 63.920289003947353 0.77714596973225614 0 0.62932038083071107 0.62932038083071107 0 -0.77714596973225614 forward_v I I I I #
coedge $-1 $248 $249 $250 $251 reversed $97 $-1 #
face $-1 $-1 $252 $57 $-1 $253 forward single #
loop $-1 $254 $255 $99 #
cone-surface $-1 33.766055371842342 -4.4013781607737634 6.3451708822985324 -0.77714596973225614 0 -0.62932038083071107 0.15733009520767777 0 -0.19428649243306403 1 I I -0.70710678118654746 0.70710678118654746 0.25 forward I I I I #
loop $-1 $-1 $256 $75 #
coedge $-1 $160 $160 $257 $258 reversed $100 $-1 #
face $-1 $-1 $259 $58 $-1 $260 forward single #
loop $-1 $261 $262 $102 #
cone-surface $-1 33.766055371842342 -2.453115799430865 6.3451708822985324 -0.77714596973225614 0 -0.62932038083071107 0.15733009520767777 0 -0.19428649243306403 1 I I -0.70710678118654746 0.70710678118654746 0.25 forward I I I I #
loop $-1 $-1 $263 $76 #
coedge $-1 $165 $165 $264 $265 reversed $103 $-1 #
face $-1 $-1 $266 $59 $-1 $267 forward single #
loop $-1 $268 $269 $105 #
cone-surface $-1 33.766055371842342 -0.50485343808796657 6.3451708822985324 -0.77714596973225614 0 -0.62932038083071107 0.15733009520767777 0 -0.19428649243306403 1 I I -0.70710678118654746 0.70710678118654746 0.25 forward I I I I #
loop $-1 $-1 $270 $77 #
coedge $-1 $170 $170 $271 $272 reversed $106 $-1 #
face $-1 $273 $274 $60 $-1 $275 reversed single #
loop $-1 $-1 $276 $108 #
plane-surface $-1 -10.445402164427414 12.27509093098168 63.920289003947353 0.77714596973225614 0 0.62932038083071107 0.62932038083071107 0 -0.77714596973225614 forward_v I I I I #
coedge $-1 $277 $278 $279 $280 reversed $109 $-1 #
face $-1 $-1 $281 $61 $-1 $282 forward single #
loop $-1 $283 $284 $111 #
cone-surface $-1 33.766055371842342 10.326828569638781 6.3451708822985324 -0.77714596973225614 0 -0.62932038083071107 0.15733009520767777 0 -0.19428649243306403 1 I I -0.70710678118654746 0.70710678118654746 0.25 forward I I I I #
loop $-1 $-1 $285 $79 #
coedge $-1 $179 $179 $286 $287 reversed $112 $-1 #
face $-1 $-1 $288 $62 $-1 $289 forward single #
loop $-1 $290 $291 $114 #
cone-surface $-1 33.766055371842342 12.27509093098168 6.3451708822985324 -0.77714596973225614 0 -0.62932038083071107 0.15733009520767777 0 -0.19428649243306403 1 I I -0.70710678118654746 0.70710678118654746 0.25 forward I I I I #
loop $-1 $-1 $292 $80 #
coedge $-1 $184 $184 $293 $294 reversed $115 $-1 #
face $-1 $-1 $295 $63 $-1 $296 forward single #
loop $-1 $297 $298 $117 #
cone-surface $-1 33.766055371842342 14.223353292324578 6.3451708822985324 -0.77714596973225614 0 -0.62932038083071107 0.15733009520767777 0 -0.19428649243306403 1 I I -0.70710678118654746 0.70710678118654746 0.25 forward I I I I #
loop $-1 $-1 $299 $81 #
coedge $-1 $189 $189 $300 $301 reversed $118 $-1 #
face $-1 $302 $303 $64 $-1 $304 reversed single #
loop $-1 $-1 $305 $120 #
plane-surface $-1 -40.385753959776601 -2.453115799430865 1.1490371550695784 -0.77714596973225614 0 0.62932038083071107 0.62932038083071107 0 0.77714596973225614 forward_v I I I I #
coedge $-1 $306 $307 $308 $309 reversed $121 $-1 #
face $-1 $-1 $310 $65 $-1 $311 forward single #
loop $-1 $312 $313 $123 #
cone-surface $-1 -33.766055371842349 -4.4013781607737634 6.3451708822985466 0.77714596973225614 0 -0.62932038083071107 0.15733009520767777 0 0.19428649243306403 1 I I -0.70710678118654746 0.70710678118654746 0.25 forward I I I I #
loop $-1 $-1 $314 $83 #
coedge $-1 $198 $198 $315 $316 reversed $124 $-1 #
face $-1 $-1 $317 $66 $-1 $318 forward single #
loop $-1 $319 $320 $126 #
cone-surface $-1 -33.766055371842349 -2.453115799430865 6.3451708822985466 0.77714596973225614 0 -0.62932038083071107 0.15733009520767777 0 0.19428649243306403 1 I I -0.70710678118654746 0.70710678118654746 0.25 forward I I I I #
loop $-1 $-1 $321 $84 #
coedge $-1 $203 $203 $322 $323 reversed $127 $-1 #
face $-1 $-1 $324 $67 $-1 $325 forward single #
loop $-1 $326 $327 $129 #
cone-surface $-1 -33.766055371842349 -0.50485343808796657 6.3451708822985466 0.77714596973225614 0 -0.62932038083071107 0.15733009520767777 0 0.19428649243306403 1 I I -0.70710678118654746 0.70710678118654746 0.25 forward I I I I #
loop $-1 $-1 $328 $85 #
coedge $-1 $208 $208 $329 $330 reversed $130 $-1 #
face $-1 $331 $332 $68 $-1 $333 reversed single #
loop $-1 $-1 $334 $132 #
plane-surface $-1 -40.385753959776601 12.27509093098168 1.1490371550695784 -0.77714596973225614 0 0.62932038083071107 0.62932038083071107 0 0.77714596973225614 forward_v I I I I #
coedge $-1 $335 $336 $337 $338 reversed $133 $-1 #
face $-1 $-1 $339 $69 $-1 $340 forward single #
loop $-1 $341 $342 $135 #
cone-surface $-1 -33.766055371842349 10.326828569638781 6.3451708822985466 0.77714596973225614 0 -0.62932038083071107 0.15733009520767777 0 0.19428649243306403 1 I I -0.70710678118654746 0.70710678118654746 0.25 forward I I I I #
loop $-1 $-1 $343 $87 #
coedge $-1 $217 $217 $344 $345 reversed $136 $-1 #
face $-1 $-1 $346 $70 $-1 $347 forward single #
loop $-1 $348 $349 $138 #
cone-surface $-1 -33.766055371842349 12.27509093098168 6.3451708822985466 0.77714596973225614 0 -0.62932038083071107 0.15733009520767777 0 0.19428649243306403 1 I I -0.70710678118654746 0.70710678118654746 0.25 forward I I I I #
loop $-1 $-1 $350 $88 #
coedge $-1 $222 $222 $351 $352 reversed $139 $-1 #
face $-1 $-1 $353 $71 $-1 $354 forward single #
loop $-1 $355 $356 $141 #
cone-surface $-1 -33.766055371842349 14.223353292324578 6.3451708822985466 0.77714596973225614 0 -0.62932038083071107 0.15733009520767777 0 0.19428649243306403 1 I I -0.70710678118654746 0.70710678118654746 0.25 forward I I I I #
loop $-1 $-1 $357 $89 #
coedge $-1 $227 $227 $358 $359 reversed $142 $-1 #
face $-1 $360 $361 $54 $-1 $362 reversed single #
loop $-1 $-1 $363 $144 #
plane-surface $-1 0 -28.168345448112998 0 0 1 0 0 0 1 forward_v I I I I #
coedge $-1 $364 $365 $366 $367 forward $145 $-1 #
coedge $-1 $368 $147 $369 $370 forward $91 $-1 #
coedge $-1 $147 $368 $371 $372 forward $91 $-1 #
coedge $-1 $373 $374 $147 $235 reversed $375 $-1 #
edge $-1 $376 -28.168345448112998 $377 28.168345448112998 $234 $378 forward 7 unknown #
face $-1 $379 $380 $55 $-1 $381 reversed single #
loop $-1 $-1 $382 $148 #
plane-surface $-1 0 -18.346370316562183 -11.812721934955768 0 -1 0 0 0 -1 forward_v I I I I #
coedge $-1 $383 $384 $385 $386 reversed $149 $-1 #
coedge $-1 $387 $151 $388 $389 forward $94 $-1 #
coedge $-1 $151 $387 $390 $391 reversed $94 $-1 #
coedge $-1 $392 $393 $151 $243 forward $394 $-1 #
edge $-1 $395 6.7176913753933878 $396 16.539666506944201 $242 $397 forward 7 unknown #
face $-1 $398 $399 $56 $-1 $400 forward single #
loop $-1 $-1 $401 $152 #
plane-surface $-1 52.325849684450375 0.79398813614063357 114.75144512815137 0 -1 0 -0.77714596973225614 0 -0.62932038083071107 forward_v I I I I #
coedge $-1 $402 $403 $404 $405 reversed $153 $-1 #
coedge $-1 $249 $155 $406 $407 reversed $97 $-1 #
coedge $-1 $155 $248 $402 $408 reversed $97 $-1 #
coedge $-1 $404 $409 $155 $251 forward $410 $-1 #
edge $-1 $411 43.475172343993215 $412 56.226685409006123 $250 $413 forward 7 unknown #
loop $-1 $-1 $257 $156 #
plane-surface $-1 -10.445402164427414 -2.453115799430865 63.920289003947353 0.77714596973225614 0 0.62932038083071107 0.62932038083071107 0 -0.77714596973225614 forward_v I I I I #
loop $-1 $-1 $414 $99 #
coedge $-1 $255 $255 $256 $415 reversed $157 $-1 #
coedge $-1 $256 $256 $255 $415 forward $159 $-1 #
coedge $-1 $257 $257 $160 $258 forward $252 $-1 #
edge $-1 $416 0 $416 6.2831853071796004 $257 $417 forward 7 unknown #
loop $-1 $-1 $264 $161 #
plane-surface $-1 -10.445402164427414 -2.453115799430865 63.920289003947353 0.77714596973225614 0 0.62932038083071107 0.62932038083071107 0 -0.77714596973225614 forward_v I I I I #
loop $-1 $-1 $418 $102 #
coedge $-1 $262 $262 $263 $419 reversed $162 $-1 #
coedge $-1 $263 $263 $262 $419 forward $164 $-1 #
coedge $-1 $264 $264 $165 $265 forward $259 $-1 #
edge $-1 $420 0 $420 6.2831853071796004 $264 $421 forward 7 unknown #
loop $-1 $-1 $271 $166 #
plane-surface $-1 -10.445402164427414 -2.453115799430865 63.920289003947353 0.77714596973225614 0 0.62932038083071107 0.62932038083071107 0 -0.77714596973225614 forward_v I I I I #
loop $-1 $-1 $422 $105 #
coedge $-1 $269 $269 $270 $423 reversed $167 $-1 #
coedge $-1 $270 $270 $269 $423 forward $169 $-1 #
coedge $-1 $271 $271 $170 $272 forward $266 $-1 #
edge $-1 $424 0 $424 6.2831853071796004 $271 $425 forward 7 unknown #
face $-1 $426 $427 $60 $-1 $428 reversed single #
loop $-1 $-1 $429 $171 #
plane-surface $-1 52.325849684450375 15.522194866553178 114.75144512815137 0 -1 0 -0.77714596973225614 0 -0.62932038083071107 forward_v I I I I #
coedge $-1 $430 $431 $432 $433 reversed $172 $-1 #
coedge $-1 $278 $174 $434 $435 reversed $109 $-1 #
coedge $-1 $174 $277 $430 $436 reversed $109 $-1 #
coedge $-1 $432 $437 $174 $280 forward $427 $-1 #
edge $-1 $438 43.475172343993215 $439 56.226685409006123 $279 $440 forward 7 unknown #
loop $-1 $-1 $286 $175 #
plane-surface $-1 -10.445402164427414 12.27509093098168 63.920289003947353 0.77714596973225614 0 0.62932038083071107 0.62932038083071107 0 -0.77714596973225614 forward_v I I I I #
loop $-1 $-1 $441 $111 #
coedge $-1 $284 $284 $285 $442 reversed $176 $-1 #
coedge $-1 $285 $285 $284 $442 forward $178 $-1 #
coedge $-1 $286 $286 $179 $287 forward $281 $-1 #
edge $-1 $443 0 $443 6.2831853071796004 $286 $444 forward 7 unknown #
loop $-1 $-1 $293 $180 #
plane-surface $-1 -10.445402164427414 12.27509093098168 63.920289003947353 0.77714596973225614 0 0.62932038083071107 0.62932038083071107 0 -0.77714596973225614 forward_v I I I I #
loop $-1 $-1 $445 $114 #
coedge $-1 $291 $291 $292 $446 reversed $181 $-1 #
coedge $-1 $292 $292 $291 $446 forward $183 $-1 #
coedge $-1 $293 $293 $184 $294 forward $288 $-1 #
edge $-1 $447 0 $447 6.2831853071796004 $293 $448 forward 7 unknown #
loop $-1 $-1 $300 $185 #
plane-surface $-1 -10.445402164427414 12.27509093098168 63.920289003947353 0.77714596973225614 0 0.62932038083071107 0.62932038083071107 0 -0.77714596973225614 forward_v I I I I #
loop $-1 $-1 $449 $117 #
coedge $-1 $298 $298 $299 $450 reversed $186 $-1 #
coedge $-1 $299 $299 $298 $450 forward $188 $-1 #
coedge $-1 $300 $300 $189 $301 forward $295 $-1 #
edge $-1 $451 0 $451 6.2831853071796004 $300 $452 forward 7 unknown #
face $-1 $453 $454 $64 $-1 $455 reversed single #
loop $-1 $-1 $456 $190 #
plane-surface $-1 -103.15700580865439 0.79398813614063357 51.9801932792736 0 -1 0 0.77714596973225614 0 -0.62932038083071107 forward_v I I I I #
coedge $-1 $457 $458 $459 $460 reversed $191 $-1 #
coedge $-1 $307 $193 $461 $462 reversed $121 $-1 #
coedge $-1 $193 $306 $457 $463 reversed $121 $-1 #
coedge $-1 $459 $464 $193 $309 forward $465 $-1 #
edge $-1 $466 11.192748944550587 $467 21.518720346044727 $308 $468 forward 7 unknown #
loop $-1 $-1 $315 $194 #
plane-surface $-1 -40.385753959776601 -2.453115799430865 1.1490371550695784 -0.77714596973225614 0 0.62932038083071107 0.62932038083071107 0 0.77714596973225614 forward_v I I I I #
loop $-1 $-1 $469 $123 #
coedge $-1 $313 $313 $314 $470 reversed $195 $-1 #
coedge $-1 $314 $314 $313 $470 forward $197 $-1 #
coedge $-1 $315 $315 $198 $316 forward $310 $-1 #
edge $-1 $471 0 $471 6.2831853071796004 $315 $472 forward 7 unknown #
loop $-1 $-1 $322 $199 #
plane-surface $-1 -40.385753959776601 -2.453115799430865 1.1490371550695784 -0.77714596973225614 0 0.62932038083071107 0.62932038083071107 0 0.77714596973225614 forward_v I I I I #
loop $-1 $-1 $473 $126 #
coedge $-1 $320 $320 $321 $474 reversed $200 $-1 #
coedge $-1 $321 $321 $320 $474 forward $202 $-1 #
coedge $-1 $322 $322 $203 $323 forward $317 $-1 #
edge $-1 $475 0 $475 6.2831853071796004 $322 $476 forward 7 unknown #
loop $-1 $-1 $329 $204 #
plane-surface $-1 -40.385753959776601 -2.453115799430865 1.1490371550695784 -0.77714596973225614 0 0.62932038083071107 0.62932038083071107 0 0.77714596973225614 forward_v I I I I #
loop $-1 $-1 $477 $129 #
coedge $-1 $327 $327 $328 $478 reversed $205 $-1 #
coedge $-1 $328 $328 $327 $478 forward $207 $-1 #
coedge $-1 $329 $329 $208 $330 forward $324 $-1 #
edge $-1 $479 0 $479 6.2831853071796004 $329 $480 forward 7 unknown #
face $-1 $481 $482 $68 $-1 $483 forward single #
loop $-1 $-1 $484 $209 #
plane-surface $-1 -103.15700580865439 15.522194866553178 51.9801932792736 0 -1 0 0.77714596973225614 0 -0.62932038083071107 forward_v I I I I #
coedge $-1 $485 $486 $487 $488 reversed $210 $-1 #
coedge $-1 $336 $212 $489 $490 reversed $133 $-1 #
coedge $-1 $212 $335 $485 $491 reversed $133 $-1 #
coedge $-1 $487 $492 $212 $338 forward $482 $-1 #
edge $-1 $493 11.192748944550587 $494 21.518720346044727 $337 $495 forward 7 unknown #
loop $-1 $-1 $344 $213 #
plane-surface $-1 -40.385753959776601 12.27509093098168 1.1490371550695784 -0.77714596973225614 0 0.62932038083071107 0.62932038083071107 0 0.77714596973225614 forward_v I I I I #
loop $-1 $-1 $496 $135 #
coedge $-1 $342 $342 $343 $497 reversed $214 $-1 #
coedge $-1 $343 $343 $342 $497 forward $216 $-1 #
coedge $-1 $344 $344 $217 $345 forward $339 $-1 #
edge $-1 $498 0 $498 6.2831853071796004 $344 $499 forward 7 unknown #
loop $-1 $-1 $351 $218 #
plane-surface $-1 -40.385753959776601 12.27509093098168 1.1490371550695784 -0.77714596973225614 0 0.62932038083071107 0.62932038083071107 0 0.77714596973225614 forward_v I I I I #
loop $-1 $-1 $500 $138 #
coedge $-1 $349 $349 $350 $501 reversed $219 $-1 #
coedge $-1 $350 $350 $349 $501 forward $221 $-1 #
coedge $-1 $351 $351 $222 $352 forward $346 $-1 #
edge $-1 $502 0 $502 6.2831853071796004 $351 $503 forward 7 unknown #
loop $-1 $-1 $358 $223 #
plane-surface $-1 -40.385753959776601 12.27509093098168 1.1490371550695784 -0.77714596973225614 0 0.62932038083071107 0.62932038083071107 0 0.77714596973225614 forward_v I I I I #
loop $-1 $-1 $504 $141 #
coedge $-1 $356 $356 $357 $505 reversed $224 $-1 #
coedge $-1 $357 $357 $356 $505 forward $226 $-1 #
coedge $-1 $358 $358 $227 $359 forward $353 $-1 #
edge $-1 $506 0 $506 6.2831853071796004 $358 $507 forward 7 unknown #
face $-1 $508 $509 $54 $-1 $510 reversed single #
loop $-1 $-1 $511 $228 #
plane-surface $-1 -40.385753959776608 0 0 1 0 0 0 0 -1 forward_v I I I I #
coedge $-1 $512 $371 $513 $514 forward $229 $-1 #
coedge $-1 $515 $231 $512 $516 forward $145 $-1 #
coedge $-1 $231 $515 $517 $518 forward $145 $-1 #
coedge $-1 $374 $373 $231 $367 reversed $375 $-1 #
edge $-1 $519 -28.168345448112998 $520 28.168345448112998 $366 $521 forward 7 unknown #
coedge $-1 $233 $232 $522 $523 forward $91 $-1 #
coedge $-1 $524 $525 $232 $370 reversed $509 $-1 #
edge $-1 $377 -40.385753959776608 $526 40.385753959776608 $369 $527 forward 7 unknown #
coedge $-1 $363 $528 $233 $372 reversed $229 $-1 #
edge $-1 $529 -40.385753959776608 $376 40.385753959776608 $371 $530 forward 7 unknown #
coedge $-1 $366 $234 $528 $531 forward $375 $-1 #
coedge $-1 $234 $366 $524 $532 reversed $375 $-1 #
loop $-1 $-1 $373 $508 #
vertex $-1 $235 $533 #
vertex $-1 $235 $534 #
straight-curve $-1 40.385753959776608 0 13.900550220082472 0 1 0 I I #
face $-1 $535 $536 $55 $-1 $537 reversed single #
loop $-1 $-1 $538 $236 #
plane-surface $-1 -40.385753959776608 0 0 1 0 0 0 0 -1 forward_v I I I I #
coedge $-1 $539 $388 $393 $540 reversed $237 $-1 #
coedge $-1 $541 $239 $542 $543 reversed $149 $-1 #
coedge $-1 $239 $541 $539 $544 forward $149 $-1 #
coedge $-1 $393 $392 $239 $386 forward $394 $-1 #
edge $-1 $545 -16.539666506944201 $546 -6.7176913753933878 $385 $547 forward 7 unknown #
coedge $-1 $241 $240 $538 $548 reversed $94 $-1 #
coedge $-1 $382 $549 $240 $389 reversed $237 $-1 #
edge $-1 $395 -40.385753959776608 $550 40.385753959776608 $388 $551 forward 7 unknown #
coedge $-1 $552 $553 $241 $391 forward $536 $-1 #
edge $-1 $396 -40.385753959776608 $554 40.385753959776608 $390 $555 forward 7 unknown #
coedge $-1 $385 $242 $553 $556 forward $394 $-1 #
coedge $-1 $242 $385 $382 $540 forward $394 $-1 #
loop $-1 $-1 $242 $535 #
vertex $-1 $243 $557 #
vertex $-1 $556 $558 #
straight-curve $-1 40.385753959776608 -11.628678941168795 -10.224893649829065 0 -1 0 I I #
face $-1 $-1 $410 $56 $-1 $559 reversed single #
loop $-1 $-1 $560 $244 #
plane-surface $-1 0 0 13.900550220082472 0 0 1 1 0 0 forward_v I I I I #
coedge $-1 $561 $562 $563 $564 reversed $245 $-1 #
coedge $-1 $565 $247 $249 $408 forward $153 $-1 #
coedge $-1 $247 $565 $561 $566 forward $153 $-1 #
coedge $-1 $563 $250 $247 $405 forward $410 $-1 #
edge $-1 $412 -4.4736618352869311 $567 2.0205460358560661 $404 $568 forward 7 unknown #
coedge $-1 $569 $570 $248 $407 forward $399 $-1 #
edge $-1 $571 3.8968577160572764 $411 14.22282911755142 $406 $572 forward 7 unknown #
edge $-1 $412 -80.771507919553216 $571 -64.363376678254895 $249 $573 forward 7 unknown #
coedge $-1 $250 $563 $569 $574 reversed $410 $-1 #
loop $-1 $-1 $563 $398 #
vertex $-1 $574 $575 #
vertex $-1 $251 $576 #
straight-curve $-1 40.385753959776608 -5.7002197350023636 57.375722564075687 0 0 -1 I I #
coedge $-1 $414 $414 $-1 $577 reversed $254 $-1 #
edge $-1 $578 0 $578 6.2831853071796004 $255 $579 forward 7 unknown #
vertex $-1 $258 $580 #
ellipse-curve $-1 35.222768259029543 -4.4013781607737634 7.5247936875760129 0.77714596973225614 0 0.62932038083071107 0.31466019041535553 0 -0.38857298486612807 1 I I #
coedge $-1 $418 $418 $-1 $581 reversed $261 $-1 #
edge $-1 $582 0 $582 6.2831853071796004 $262 $583 forward 7 unknown #
vertex $-1 $265 $584 #
ellipse-curve $-1 35.222768259029543 -2.453115799430865 7.5247936875760129 0.77714596973225614 0 0.62932038083071107 0.31466019041535553 0 -0.38857298486612807 1 I I #
coedge $-1 $422 $422 $-1 $585 reversed $268 $-1 #
edge $-1 $586 0 $586 6.2831853071796004 $269 $587 forward 7 unknown #
vertex $-1 $272 $588 #
ellipse-curve $-1 35.222768259029543 -0.50485343808796657 7.5247936875760129 0.77714596973225614 0 0.62932038083071107 0.31466019041535553 0 -0.38857298486612807 1 I I #
face $-1 $-1 $589 $60 $-1 $590 forward single #
loop $-1 $-1 $279 $273 #
plane-surface $-1 40.385753959776608 0 0 -1 0 0 0 0 1 forward_v I I I I #
coedge $-1 $591 $592 $593 $594 reversed $274 $-1 #
coedge $-1 $595 $276 $278 $436 forward $172 $-1 #
coedge $-1 $276 $595 $591 $596 forward $172 $-1 #
coedge $-1 $593 $279 $276 $433 forward $427 $-1 #
edge $-1 $439 2.8904415299193413 $597 9.3846494010623385 $432 $598 forward 7 unknown #
coedge $-1 $599 $600 $277 $435 forward $589 $-1 #
edge $-1 $601 3.8968577160572764 $438 14.22282911755142 $434 $602 forward 7 unknown #
edge $-1 $439 -80.771507919553216 $601 -64.363376678254895 $278 $603 forward 7 unknown #
coedge $-1 $279 $593 $599 $604 reversed $427 $-1 #
vertex $-1 $604 $605 #
vertex $-1 $280 $606 #
straight-curve $-1 40.385753959776608 9.0279869954101812 57.375722564075687 0 0 -1 I I #
coedge $-1 $441 $441 $-1 $607 reversed $283 $-1 #
edge $-1 $608 0 $608 6.2831853071796004 $284 $609 forward 7 unknown #
vertex $-1 $287 $610 #
ellipse-curve $-1 35.222768259029543 10.326828569638781 7.5247936875760129 0.77714596973225614 0 0.62932038083071107 0.31466019041535553 0 -0.38857298486612807 1 I I #
coedge $-1 $445 $445 $-1 $611 reversed $290 $-1 #
edge $-1 $612 0 $612 6.2831853071796004 $291 $613 forward 7 unknown #
vertex $-1 $294 $614 #
ellipse-curve $-1 35.222768259029543 12.27509093098168 7.5247936875760129 0.77714596973225614 0 0.62932038083071107 0.31466019041535553 0 -0.38857298486612807 1 I I #
coedge $-1 $449 $449 $-1 $615 reversed $297 $-1 #
edge $-1 $616 0 $616 6.2831853071796004 $298 $617 forward 7 unknown #
vertex $-1 $301 $618 #
ellipse-curve $-1 35.222768259029543 14.223353292324578 7.5247936875760129 0.77714596973225614 0 0.62932038083071107 0.31466019041535553 0 -0.38857298486612807 1 I I #
face $-1 $-1 $465 $64 $-1 $619 forward single #
loop $-1 $-1 $620 $302 #
plane-surface $-1 -40.385753959776608 0 0 1 0 0 0 0 -1 forward_v I I I I #
coedge $-1 $621 $622 $623 $624 reversed $303 $-1 #
coedge $-1 $625 $305 $307 $463 forward $191 $-1 #
coedge $-1 $305 $625 $621 $626 forward $191 $-1 #
coedge $-1 $623 $308 $305 $460 forward $465 $-1 #
edge $-1 $467 -4.4736618352869311 $627 2.0205460358560661 $459 $628 forward 7 unknown #
coedge $-1 $629 $630 $306 $462 forward $454 $-1 #
edge $-1 $631 -24.841059484567232 $466 -12.089546419554328 $461 $632 forward 7 unknown #
edge $-1 $467 -16.4081312412983 $631 1.1374033043381581e-014 $307 $633 forward 7 unknown #
coedge $-1 $308 $623 $629 $634 forward $465 $-1 #
loop $-1 $-1 $623 $453 #
vertex $-1 $462 $635 #
vertex $-1 $309 $636 #
straight-curve $-1 -51.578502904327195 -5.7002197350023636 13.900550220082472 1 0 0 I I #
coedge $-1 $469 $469 $-1 $637 reversed $312 $-1 #
edge $-1 $638 0 $638 6.2831853071796004 $313 $639 forward 7 unknown #
vertex $-1 $316 $640 #
ellipse-curve $-1 -35.222768259029536 -4.4013781607737634 7.52479368757602 -0.77714596973225614 0 0.62932038083071107 0.31466019041535553 0 0.38857298486612807 1 I I #
coedge $-1 $473 $473 $-1 $641 reversed $319 $-1 #
edge $-1 $642 0 $642 6.2831853071796004 $320 $643 forward 7 unknown #
vertex $-1 $323 $644 #
ellipse-curve $-1 -35.222768259029536 -2.453115799430865 7.52479368757602 -0.77714596973225614 0 0.62932038083071107 0.31466019041535553 0 0.38857298486612807 1 I I #
coedge $-1 $477 $477 $-1 $645 reversed $326 $-1 #
edge $-1 $646 0 $646 6.2831853071796004 $327 $647 forward 7 unknown #
vertex $-1 $330 $648 #
ellipse-curve $-1 -35.222768259029536 -0.50485343808796657 7.52479368757602 -0.77714596973225614 0 0.62932038083071107 0.31466019041535553 0 0.38857298486612807 1 I I #
face $-1 $-1 $649 $68 $-1 $650 reversed single #
loop $-1 $-1 $337 $331 #
plane-surface $-1 0 0 13.900550220082472 0 0 1 1 0 0 forward_v I I I I #
coedge $-1 $651 $652 $653 $654 reversed $332 $-1 #
coedge $-1 $655 $334 $336 $491 forward $210 $-1 #
coedge $-1 $334 $655 $651 $656 forward $210 $-1 #
coedge $-1 $653 $337 $334 $488 forward $482 $-1 #
edge $-1 $494 2.8904415299193413 $657 9.3846494010623385 $487 $658 forward 7 unknown #
coedge $-1 $659 $660 $335 $490 forward $649 $-1 #
edge $-1 $661 -24.841059484567232 $493 -12.089546419554328 $489 $662 forward 7 unknown #
edge $-1 $494 -16.4081312412983 $661 1.1374033043381581e-014 $336 $663 forward 7 unknown #
coedge $-1 $337 $653 $659 $664 forward $482 $-1 #
vertex $-1 $338 $665 #
vertex $-1 $338 $666 #
straight-curve $-1 -51.578502904327195 9.0279869954101812 13.900550220082472 1 0 0 I I #
coedge $-1 $496 $496 $-1 $667 reversed $341 $-1 #
edge $-1 $668 0 $668 6.2831853071796004 $342 $669 forward 7 unknown #
vertex $-1 $345 $670 #
ellipse-curve $-1 -35.222768259029536 10.326828569638781 7.52479368757602 -0.77714596973225614 0 0.62932038083071107 0.31466019041535553 0 0.38857298486612807 1 I I #
coedge $-1 $500 $500 $-1 $671 reversed $348 $-1 #
edge $-1 $672 0 $672 6.2831853071796004 $349 $673 forward 7 unknown #
vertex $-1 $352 $674 #
ellipse-curve $-1 -35.222768259029536 12.27509093098168 7.52479368757602 -0.77714596973225614 0 0.62932038083071107 0.31466019041535553 0 0.38857298486612807 1 I I #
coedge $-1 $504 $504 $-1 $675 reversed $355 $-1 #
edge $-1 $676 0 $676 6.2831853071796004 $356 $677 forward 7 unknown #
vertex $-1 $359 $678 #
ellipse-curve $-1 -35.222768259029536 14.223353292324578 7.52479368757602 -0.77714596973225614 0 0.62932038083071107 0.31466019041535553 0 0.38857298486612807 1 I I #
face $-1 $-1 $375 $54 $-1 $679 reversed single #
loop $-1 $-1 $524 $360 #
plane-surface $-1 0 28.168345448112998 0 0 -1 0 0 0 -1 forward_v I I I I #
coedge $-1 $680 $522 $525 $681 forward $361 $-1 #
coedge $-1 $528 $363 $364 $516 reversed $229 $-1 #
coedge $-1 $522 $680 $363 $514 reversed $361 $-1 #
edge $-1 $529 -13.900550220082472 $682 13.900550220082472 $513 $683 forward 7 unknown #
coedge $-1 $365 $364 $680 $684 forward $145 $-1 #
edge $-1 $520 -40.385753959776608 $682 40.385753959776608 $512 $685 forward 7 unknown #
coedge $-1 $525 $524 $365 $518 reversed $509 $-1 #
edge $-1 $686 -40.385753959776608 $519 40.385753959776608 $517 $687 forward 7 unknown #
vertex $-1 $367 $688 #
vertex $-1 $531 $689 #
straight-curve $-1 40.385753959776608 0 -13.900550220082472 0 -1 0 I I #
coedge $-1 $511 $513 $368 $523 reversed $361 $-1 #
edge $-1 $526 -28.168345448112998 $529 28.168345448112998 $522 $690 forward 7 unknown #
coedge $-1 $517 $369 $374 $532 forward $509 $-1 #
coedge $-1 $369 $517 $511 $681 reversed $509 $-1 #
vertex $-1 $370 $691 #
straight-curve $-1 0 28.168345448112998 13.900550220082472 -1 0 0 I I #
coedge $-1 $371 $512 $373 $531 reversed $229 $-1 #
vertex $-1 $523 $692 #
straight-curve $-1 0 -28.168345448112998 13.900550220082472 1 0 0 I I #
edge $-1 $376 -13.900550220082472 $520 13.900550220082472 $373 $693 forward 7 unknown #
edge $-1 $377 -13.900550220082472 $519 13.900550220082472 $374 $694 forward 7 unknown #
point $-1 40.385753959776608 -28.168345448112998 13.900550220082472 #
point $-1 40.385753959776608 28.168345448112998 13.900550220082472 #
face $-1 $-1 $394 $55 $-1 $695 reversed single #
loop $-1 $-1 $390 $379 #
plane-surface $-1 0 -28.168345448112998 0 0 1 0 0 0 1 forward_v I I I I #
coedge $-1 $696 $697 $387 $548 forward $380 $-1 #
coedge $-1 $549 $382 $384 $544 reversed $237 $-1 #
edge $-1 $546 -7.4941892526045866 $395 -4.3185326823511812 $393 $698 forward 7 unknown #
coedge $-1 $384 $383 $699 $700 reversed $149 $-1 #
coedge $-1 $553 $552 $383 $543 forward $536 $-1 #
edge $-1 $701 -40.385753959776608 $545 40.385753959776608 $542 $702 forward 7 unknown #
edge $-1 $703 -40.385753959776608 $546 40.385753959776608 $539 $704 forward 7 unknown #
vertex $-1 $543 $705 #
vertex $-1 $386 $706 #
straight-curve $-1 40.385753959776608 -11.628678941168795 -13.40055022008247 0 1 0 I I #
edge $-1 $554 -16.539666506944201 $550 -6.7176913753933878 $538 $707 forward 7 unknown #
coedge $-1 $388 $539 $696 $708 reversed $237 $-1 #
vertex $-1 $548 $709 #
straight-curve $-1 0 -18.346370316562183 -10.224893649829065 -1 0 0 I I #
coedge $-1 $542 $390 $697 $710 forward $536 $-1 #
coedge $-1 $390 $542 $392 $556 reversed $536 $-1 #
vertex $-1 $710 $711 #
straight-curve $-1 0 -28.168345448112998 -10.224893649829065 -1 0 0 I I #
edge $-1 $396 10.224893649829065 $545 13.40055022008247 $392 $712 forward 7 unknown #
point $-1 40.385753959776608 -18.346370316562183 -10.224893649829065 #
point $-1 40.385753959776608 -28.168345448112998 -10.224893649829065 #
plane-surface $-1 40.385753959776608 0 0 -1 0 0 0 0 1 forward_v I I I I #
coedge $-1 $570 $569 $562 $713 forward $399 $-1 #
coedge $-1 $562 $401 $403 $566 reversed $245 $-1 #
coedge $-1 $401 $561 $560 $713 reversed $245 $-1 #
coedge $-1 $409 $404 $401 $564 forward $410 $-1 #
edge $-1 $567 -56.226685409006123 $714 -43.475172343993215 $563 $715 forward 7 unknown #
coedge $-1 $403 $402 $570 $716 reversed $153 $-1 #
edge $-1 $717 64.363376678254895 $567 80.771507919553216 $561 $718 forward 7 unknown #
vertex $-1 $405 $719 #
straight-curve $-1 40.385753959776608 -1.2265578997154325 1.1490371550695677 0 1 0 I I #
coedge $-1 $560 $406 $409 $574 forward $399 $-1 #
coedge $-1 $406 $560 $565 $716 forward $399 $-1 #
vertex $-1 $407 $720 #
straight-curve $-1 26.162924842225188 -5.7002197350023636 13.900550220082472 1 0 0 I I #
straight-curve $-1 -10.445402164427414 -5.7002197350023636 63.920289003947353 -0.62932038083071107 0 0.77714596973225614 I I #
edge $-1 $411 -5.7002197350023636 $714 0.79398813614063357 $409 $721 forward 7 unknown #
point $-1 40.385753959776608 -5.7002197350023636 13.900550220082472 #
point $-1 40.385753959776608 -5.7002197350023636 1.1490371550695642 #
edge $-1 $722 1 $722 0 $414 $-1 forward 7 unknown #
vertex $-1 $415 $723 #
ellipse-curve $-1 33.960341864275406 -4.4013781607737634 6.5025009775062106 0.77714596973225614 0 0.62932038083071107 0.31466019041535553 0 -0.38857298486612807 1 I I #
point $-1 35.537428449444889 -4.4013781607737634 7.1362207027098803 #
edge $-1 $724 1 $724 0 $418 $-1 forward 7 unknown #
vertex $-1 $419 $725 #
ellipse-curve $-1 33.960341864275406 -2.453115799430865 6.5025009775062106 0.77714596973225614 0 0.62932038083071107 0.31466019041535553 0 -0.38857298486612807 1 I I #
point $-1 35.537428449444889 -2.453115799430865 7.1362207027098803 #
edge $-1 $726 1 $726 0 $422 $-1 forward 7 unknown #
vertex $-1 $423 $727 #
ellipse-curve $-1 33.960341864275406 -0.50485343808796657 6.5025009775062106 0.77714596973225614 0 0.62932038083071107 0.31466019041535553 0 -0.38857298486612807 1 I I #
point $-1 35.537428449444889 -0.50485343808796657 7.1362207027098803 #
loop $-1 $-1 $434 $426 #
plane-surface $-1 0 0 13.900550220082472 0 0 1 1 0 0 forward_v I I I I #
coedge $-1 $592 $429 $431 $596 reversed $274 $-1 #
coedge $-1 $429 $591 $728 $729 reversed $274 $-1 #
coedge $-1 $437 $432 $429 $594 forward $427 $-1 #
edge $-1 $597 -56.226685409006123 $730 -43.475172343993215 $593 $731 forward 7 unknown #
coedge $-1 $431 $430 $600 $732 reversed $172 $-1 #
edge $-1 $733 64.363376678254895 $597 80.771507919553216 $591 $734 forward 7 unknown #
vertex $-1 $433 $735 #
straight-curve $-1 40.385753959776608 6.1375454654908399 1.1490371550695677 0 1 0 I I #
coedge $-1 $728 $434 $437 $604 forward $589 $-1 #
coedge $-1 $434 $728 $595 $732 forward $589 $-1 #
vertex $-1 $435 $736 #
straight-curve $-1 26.162924842225188 9.0279869954101812 13.900550220082472 1 0 0 I I #
straight-curve $-1 -10.445402164427414 9.0279869954101812 63.920289003947353 -0.62932038083071107 0 0.77714596973225614 I I #
edge $-1 $438 9.0279869954101812 $730 15.522194866553178 $437 $737 forward 7 unknown #
point $-1 40.385753959776608 9.0279869954101812 13.900550220082472 #
point $-1 40.385753959776608 9.0279869954101812 1.1490371550695642 #
edge $-1 $738 1 $738 0 $441 $-1 forward 7 unknown #
vertex $-1 $442 $739 #
ellipse-curve $-1 33.960341864275406 10.326828569638781 6.5025009775062106 0.77714596973225614 0 0.62932038083071107 0.31466019041535553 0 -0.38857298486612807 1 I I #
point $-1 35.537428449444889 10.326828569638781 7.1362207027098803 #
edge $-1 $740 1 $740 0 $445 $-1 forward 7 unknown #
vertex $-1 $446 $741 #
ellipse-curve $-1 33.960341864275406 12.27509093098168 6.5025009775062106 0.77714596973225614 0 0.62932038083071107 0.31466019041535553 0 -0.38857298486612807 1 I I #
point $-1 35.537428449444889 12.27509093098168 7.1362207027098803 #
edge $-1 $742 1 $742 0 $449 $-1 forward 7 unknown #
vertex $-1 $450 $743 #
ellipse-curve $-1 33.960341864275406 14.223353292324578 6.5025009775062106 0.77714596973225614 0 0.62932038083071107 0.31466019041535553 0 -0.38857298486612807 1 I I #
point $-1 35.537428449444889 14.223353292324578 7.1362207027098803 #
plane-surface $-1 0 0 13.900550220082472 0 0 1 1 0 0 forward_v I I I I #
coedge $-1 $630 $629 $622 $744 forward $454 $-1 #
coedge $-1 $622 $456 $458 $626 reversed $303 $-1 #
coedge $-1 $456 $621 $620 $744 reversed $303 $-1 #
coedge $-1 $464 $459 $456 $624 forward $465 $-1 #
edge $-1 $627 -21.518720346044727 $745 -11.192748944550587 $623 $746 forward 7 unknown #
coedge $-1 $458 $457 $630 $747 reversed $191 $-1 #
edge $-1 $748 -1.1374033043381581e-014 $627 16.4081312412983 $621 $749 forward 7 unknown #
vertex $-1 $460 $750 #
straight-curve $-1 -30.059782558282468 -1.2265578997154325 13.900550220082472 0 1 0 I I #
coedge $-1 $620 $461 $464 $634 reversed $454 $-1 #
coedge $-1 $461 $620 $625 $747 forward $454 $-1 #
vertex $-1 $462 $751 #
straight-curve $-1 -40.385753959776608 -5.7002197350023636 25.9900966396368 0 0 1 I I #
straight-curve $-1 -40.385753959776601 -5.7002197350023636 1.1490371550695784 -0.62932038083071107 0 -0.77714596973225614 I I #
edge $-1 $745 -0.79398813614063357 $466 5.7002197350023636 $629 $752 forward 7 unknown #
point $-1 -40.385753959776608 -5.7002197350023636 13.900550220082472 #
point $-1 -30.059782558282468 -5.7002197350023636 13.900550220082472 #
edge $-1 $753 1 $753 0 $469 $-1 forward 7 unknown #
vertex $-1 $470 $754 #
ellipse-curve $-1 -33.960341864275414 -4.4013781607737634 6.5025009775062248 -0.77714596973225614 0 0.62932038083071107 0.31466019041535553 0 0.38857298486612807 1 I I #
point $-1 -34.908108068614183 -4.4013781607737634 7.9133666724421508 #
edge $-1 $755 1 $755 0 $473 $-1 forward 7 unknown #
vertex $-1 $474 $756 #
ellipse-curve $-1 -33.960341864275414 -2.453115799430865 6.5025009775062248 -0.77714596973225614 0 0.62932038083071107 0.31466019041535553 0 0.38857298486612807 1 I I #
point $-1 -34.908108068614183 -2.453115799430865 7.9133666724421508 #
edge $-1 $757 1 $757 0 $477 $-1 forward 7 unknown #
vertex $-1 $478 $758 #
ellipse-curve $-1 -33.960341864275414 -0.50485343808796657 6.5025009775062248 -0.77714596973225614 0 0.62932038083071107 0.31466019041535553 0 0.38857298486612807 1 I I #
point $-1 -34.908108068614183 -0.50485343808796657 7.9133666724421508 #
loop $-1 $-1 $489 $481 #
plane-surface $-1 -40.385753959776608 0 0 1 0 0 0 0 -1 forward_v I I I I #
coedge $-1 $652 $484 $486 $656 reversed $332 $-1 #
coedge $-1 $484 $651 $759 $760 reversed $332 $-1 #
coedge $-1 $492 $487 $484 $654 forward $482 $-1 #
edge $-1 $657 -21.518720346044727 $761 -11.192748944550587 $653 $762 forward 7 unknown #
coedge $-1 $486 $485 $660 $763 reversed $210 $-1 #
edge $-1 $764 -1.1374033043381581e-014 $657 16.4081312412983 $651 $765 forward 7 unknown #
vertex $-1 $488 $766 #
straight-curve $-1 -30.059782558282468 6.1375454654908399 13.900550220082472 0 1 0 I I #
coedge $-1 $759 $489 $492 $664 reversed $649 $-1 #
coedge $-1 $489 $759 $655 $763 forward $649 $-1 #
vertex $-1 $490 $767 #
straight-curve $-1 -40.385753959776608 9.0279869954101812 25.9900966396368 0 0 1 I I #
straight-curve $-1 -40.385753959776601 9.0279869954101812 1.1490371550695784 -0.62932038083071107 0 -0.77714596973225614 I I #
edge $-1 $761 -15.522194866553178 $493 -9.0279869954101812 $659 $768 forward 7 unknown #
point $-1 -40.385753959776608 9.0279869954101812 13.900550220082472 #
point $-1 -30.059782558282468 9.0279869954101812 13.900550220082472 #
edge $-1 $769 1 $769 0 $496 $-1 forward 7 unknown #
vertex $-1 $497 $770 #
ellipse-curve $-1 -33.960341864275414 10.326828569638781 6.5025009775062248 -0.77714596973225614 0 0.62932038083071107 0.31466019041535553 0 0.38857298486612807 1 I I #
point $-1 -34.908108068614183 10.326828569638781 7.9133666724421508 #
edge $-1 $771 1 $771 0 $500 $-1 forward 7 unknown #
vertex $-1 $501 $772 #
ellipse-curve $-1 -33.960341864275414 12.27509093098168 6.5025009775062248 -0.77714596973225614 0 0.62932038083071107 0.31466019041535553 0 0.38857298486612807 1 I I #
point $-1 -34.908108068614183 12.27509093098168 7.9133666724421508 #
edge $-1 $773 1 $773 0 $504 $-1 forward 7 unknown #
vertex $-1 $505 $774 #
ellipse-curve $-1 -33.960341864275414 14.223353292324578 6.5025009775062248 -0.77714596973225614 0 0.62932038083071107 0.31466019041535553 0 0.38857298486612807 1 I I #
point $-1 -34.908108068614183 14.223353292324578 7.9133666724421508 #
plane-surface $-1 40.385753959776608 0 0 -1 0 0 0 0 1 forward_v I I I I #
coedge $-1 $513 $511 $515 $684 reversed $361 $-1 #
edge $-1 $526 -13.900550220082472 $686 13.900550220082472 $525 $775 forward 7 unknown #
vertex $-1 $684 $776 #
straight-curve $-1 -40.385753959776608 -28.168345448112998 0 0 0 -1 I I #
edge $-1 $682 -28.168345448112998 $686 28.168345448112998 $680 $777 forward 7 unknown #
straight-curve $-1 0 -28.168345448112998 -13.900550220082472 -1 0 0 I I #
vertex $-1 $518 $778 #
straight-curve $-1 0 28.168345448112998 -13.900550220082472 1 0 0 I I #
point $-1 40.385753959776608 28.168345448112998 -13.900550220082472 #
point $-1 40.385753959776608 -28.168345448112998 -13.900550220082472 #
straight-curve $-1 -40.385753959776608 0 13.900550220082472 0 -1 0 I I #
point $-1 -40.385753959776608 28.168345448112998 13.900550220082472 #
point $-1 -40.385753959776608 -28.168345448112998 13.900550220082472 #
straight-curve $-1 40.385753959776608 -28.168345448112998 0 0 0 -1 I I #
straight-curve $-1 40.385753959776608 28.168345448112998 0 0 0 -1 I I #
plane-surface $-1 40.385753959776608 0 0 -1 0 0 0 0 1 forward_v I I I I #
coedge $-1 $699 $538 $549 $708 forward $380 $-1 #
coedge $-1 $538 $699 $552 $710 reversed $380 $-1 #
straight-curve $-1 40.385753959776608 -18.346370316562183 -5.9063609674778839 0 0 1 I I #
coedge $-1 $697 $696 $541 $700 forward $380 $-1 #
edge $-1 $703 6.7176913753933878 $701 16.539666506944201 $699 $779 forward 7 unknown #
vertex $-1 $543 $780 #
straight-curve $-1 0 -28.168345448112998 -13.40055022008247 1 0 0 I I #
vertex $-1 $700 $781 #
straight-curve $-1 0 -18.346370316562183 -13.40055022008247 1 0 0 I I #
point $-1 40.385753959776608 -28.168345448112998 -13.40055022008247 #
point $-1 40.385753959776608 -18.346370316562183 -13.40055022008247 #
straight-curve $-1 -40.385753959776608 -11.628678941168795 -10.224893649829065 0 1 0 I I #
edge $-1 $550 4.3185326823511812 $703 7.4941892526045866 $696 $782 forward 7 unknown #
point $-1 -40.385753959776608 -18.346370316562183 -10.224893649829065 #
edge $-1 $554 10.224893649829065 $701 13.40055022008247 $697 $783 forward 7 unknown #
point $-1 -40.385753959776608 -28.168345448112998 -10.224893649829065 #
straight-curve $-1 40.385753959776608 -28.168345448112998 0 0 0 -1 I I #
edge $-1 $714 -14.22282911755142 $717 -3.8968577160572764 $560 $784 forward 7 unknown #
vertex $-1 $713 $785 #
straight-curve $-1 40.385753959776608 0.79398813614063357 57.375722564075687 0 0 1 I I #
edge $-1 $717 -2.0205460358560661 $571 4.4736618352869311 $570 $786 forward 7 unknown #
vertex $-1 $716 $787 #
straight-curve $-1 -10.445402164427414 0.79398813614063357 63.920289003947353 0.62932038083071107 0 -0.77714596973225614 I I #
point $-1 40.385753959776608 0.79398813614063357 1.1490371550695642 #
point $-1 30.059782558282464 -5.7002197350023636 13.900550220082472 #
straight-curve $-1 40.385753959776608 0 13.900550220082472 0 1 0 I I #
vertex $-1 $577 $788 #
point $-1 34.275002054690759 -4.4013781607737634 6.1139279926400825 #
vertex $-1 $581 $789 #
point $-1 34.275002054690759 -2.453115799430865 6.1139279926400825 #
vertex $-1 $585 $790 #
point $-1 34.275002054690759 -0.50485343808796657 6.1139279926400825 #
coedge $-1 $600 $599 $592 $729 forward $589 $-1 #
edge $-1 $730 -14.22282911755142 $733 -3.8968577160572764 $728 $791 forward 7 unknown #
vertex $-1 $729 $792 #
straight-curve $-1 40.385753959776608 15.522194866553178 57.375722564075687 0 0 1 I I #
edge $-1 $733 -9.3846494010623385 $601 -2.8904415299193413 $600 $793 forward 7 unknown #
vertex $-1 $732 $794 #
straight-curve $-1 -10.445402164427414 15.522194866553178 63.920289003947353 0.62932038083071107 0 -0.77714596973225614 I I #
point $-1 40.385753959776608 15.522194866553178 1.1490371550695642 #
point $-1 30.059782558282464 9.0279869954101812 13.900550220082472 #
straight-curve $-1 40.385753959776608 0 13.900550220082472 0 1 0 I I #
vertex $-1 $607 $795 #
point $-1 34.275002054690759 10.326828569638781 6.1139279926400825 #
vertex $-1 $611 $796 #
point $-1 34.275002054690759 12.27509093098168 6.1139279926400825 #
vertex $-1 $615 $797 #
point $-1 34.275002054690759 14.223353292324578 6.1139279926400825 #
edge $-1 $745 12.089546419554328 $748 24.841059484567232 $620 $798 forward 7 unknown #
vertex $-1 $634 $799 #
straight-curve $-1 -51.578502904327195 0.79398813614063357 13.900550220082472 -1 0 0 I I #
edge $-1 $748 -2.0205460358560661 $631 4.4736618352869311 $630 $800 forward 7 unknown #
vertex $-1 $747 $801 #
straight-curve $-1 -40.385753959776601 0.79398813614063357 1.1490371550695784 0.62932038083071107 0 0.77714596973225614 I I #
point $-1 -30.059782558282468 0.79398813614063357 13.900550220082472 #
point $-1 -40.385753959776608 -5.7002197350023636 1.1490371550695695 #
straight-curve $-1 -40.385753959776608 0 13.900550220082472 0 -1 0 I I #
vertex $-1 $637 $802 #
point $-1 -33.645681673860054 -4.4013781607737634 6.8910739623723529 #
vertex $-1 $641 $803 #
point $-1 -33.645681673860054 -2.453115799430865 6.8910739623723529 #
vertex $-1 $645 $804 #
point $-1 -33.645681673860054 -0.50485343808796657 6.8910739623723529 #
coedge $-1 $660 $659 $652 $760 forward $649 $-1 #
edge $-1 $761 12.089546419554328 $764 24.841059484567232 $759 $805 forward 7 unknown #
vertex $-1 $664 $806 #
straight-curve $-1 -51.578502904327195 15.522194866553178 13.900550220082472 -1 0 0 I I #
edge $-1 $764 -9.3846494010623385 $661 -2.8904415299193413 $660 $807 forward 7 unknown #
vertex $-1 $763 $808 #
straight-curve $-1 -40.385753959776601 15.522194866553178 1.1490371550695784 0.62932038083071107 0 0.77714596973225614 I I #
point $-1 -30.059782558282468 15.522194866553178 13.900550220082472 #
point $-1 -40.385753959776608 9.0279869954101812 1.1490371550695695 #
straight-curve $-1 -40.385753959776608 0 13.900550220082472 0 -1 0 I I #
vertex $-1 $667 $809 #
point $-1 -33.645681673860054 10.326828569638781 6.8910739623723529 #
vertex $-1 $671 $810 #
point $-1 -33.645681673860054 12.27509093098168 6.8910739623723529 #
vertex $-1 $675 $811 #
point $-1 -33.645681673860054 14.223353292324578 6.8910739623723529 #
straight-curve $-1 -40.385753959776608 28.168345448112998 0 0 0 -1 I I #
point $-1 -40.385753959776608 -28.168345448112998 -13.900550220082472 #
straight-curve $-1 -40.385753959776608 0 -13.900550220082472 0 1 0 I I #
point $-1 -40.385753959776608 28.168345448112998 -13.900550220082472 #
straight-curve $-1 -40.385753959776608 -11.628678941168795 -13.40055022008247 0 -1 0 I I #
point $-1 -40.385753959776608 -28.168345448112998 -13.40055022008247 #
point $-1 -40.385753959776608 -18.346370316562183 -13.40055022008247 #
straight-curve $-1 -40.385753959776608 -18.346370316562183 -5.9063609674778839 0 0 -1 I I #
straight-curve $-1 -40.385753959776608 -28.168345448112998 0 0 0 -1 I I #
straight-curve $-1 26.162924842225188 0.79398813614063357 13.900550220082472 -1 0 0 I I #
point $-1 40.385753959776608 0.79398813614063357 13.900550220082472 #
straight-curve $-1 30.059782558282464 -1.2265578997154325 13.900550220082472 0 -1 0 I I #
point $-1 30.059782558282464 0.79398813614063357 13.900550220082472 #
point $-1 33.571768879409277 -4.4013781607737634 6.1878407870908543 #
point $-1 33.571768879409277 -2.453115799430865 6.1878407870908543 #
point $-1 33.571768879409277 -0.50485343808796657 6.1878407870908543 #
straight-curve $-1 26.162924842225188 15.522194866553178 13.900550220082472 -1 0 0 I I #
point $-1 40.385753959776608 15.522194866553178 13.900550220082472 #
straight-curve $-1 30.059782558282464 6.1375454654908399 13.900550220082472 0 -1 0 I I #
point $-1 30.059782558282464 15.522194866553178 13.900550220082472 #
point $-1 33.571768879409277 10.326828569638781 6.1878407870908543 #
point $-1 33.571768879409277 12.27509093098168 6.1878407870908543 #
point $-1 33.571768879409277 14.223353292324578 6.1878407870908543 #
straight-curve $-1 -40.385753959776608 0.79398813614063357 25.9900966396368 0 0 -1 I I #
point $-1 -40.385753959776608 0.79398813614063357 13.900550220082472 #
straight-curve $-1 -40.385753959776608 -1.2265578997154325 1.1490371550695779 0 -1 0 I I #
point $-1 -40.385753959776608 0.79398813614063357 1.1490371550695695 #
point $-1 -33.571768879409284 -4.4013781607737634 6.1878407870908685 #
point $-1 -33.571768879409284 -2.453115799430865 6.1878407870908685 #
point $-1 -33.571768879409284 -0.50485343808796657 6.1878407870908685 #
straight-curve $-1 -40.385753959776608 15.522194866553178 25.9900966396368 0 0 -1 I I #
point $-1 -40.385753959776608 15.522194866553178 13.900550220082472 #
straight-curve $-1 -40.385753959776608 6.1375454654908399 1.1490371550695779 0 -1 0 I I #
point $-1 -40.385753959776608 15.522194866553178 1.1490371550695695 #
point $-1 -33.571768879409284 10.326828569638781 6.1878407870908685 #
point $-1 -33.571768879409284 12.27509093098168 6.1878407870908685 #
point $-1 -33.571768879409284 14.223353292324578 6.1878407870908685 #
End-of-ACIS-data 