500 0 18 0           
7 Unknown 11 ACIS 5.0 NT 24 Fri Mar 26 02:06:46 1999 
-1 9.9999999999999995e-007 1e-010 
body $-1 $18 $-1 $19 #
body $-1 $20 $-1 $21 #
body $-1 $22 $-1 $23 #
body $-1 $24 $-1 $25 #
body $-1 $26 $-1 $27 #
body $-1 $28 $-1 $29 #
body $-1 $30 $-1 $31 #
body $-1 $32 $-1 $33 #
body $-1 $34 $-1 $35 #
body $-1 $36 $-1 $37 #
body $-1 $38 $-1 $39 #
body $-1 $40 $-1 $41 #
body $-1 $42 $-1 $43 #
body $-1 $44 $-1 $45 #
body $-1 $46 $-1 $47 #
body $-1 $48 $-1 $49 #
body $-1 $50 $-1 $51 #
body $-1 $52 $-1 $53 #
lump $-1 $-1 $54 $0 #
transform $-1 1 0 0 0 1 0 0 0 1 57.245399334696494 27.267168024421188 6.073054971227938 1 rotate no_reflect no_shear #
lump $-1 $-1 $55 $1 #
transform $-1 1 0 0 0 1 0 0 0 1 57.245399334696494 27.267168024421188 6.073054971227938 1 rotate no_reflect no_shear #
lump $-1 $-1 $56 $2 #
transform $-1 1 0 0 0 1 0 0 0 1 57.245399334696494 27.267168024421188 6.073054971227938 1 rotate no_reflect no_shear #
lump $-1 $-1 $57 $3 #
transform $-1 1 0 0 0 1 0 0 0 1 57.245399334696494 27.267168024421188 6.073054971227938 1 rotate no_reflect no_shear #
lump $-1 $-1 $58 $4 #
transform $-1 1 0 0 0 1 0 0 0 1 57.245399334696494 27.267168024421188 6.073054971227938 1 rotate no_reflect no_shear #
lump $-1 $-1 $59 $5 #
transform $-1 1 0 0 0 1 0 0 0 1 57.245399334696494 27.267168024421188 6.073054971227938 1 rotate no_reflect no_shear #
lump $-1 $-1 $60 $6 #
transform $-1 1 0 0 0 1 0 0 0 1 57.245399334696494 27.267168024421188 6.073054971227938 1 rotate no_reflect no_shear #
lump $-1 $-1 $61 $7 #
transform $-1 1 0 0 0 1 0 0 0 1 57.245399334696494 27.267168024421188 6.073054971227938 1 rotate no_reflect no_shear #
lump $-1 $-1 $62 $8 #
transform $-1 1 0 0 0 1 0 0 0 1 57.245399334696494 27.267168024421188 6.073054971227938 1 rotate no_reflect no_shear #
lump $-1 $-1 $63 $9 #
transform $-1 1 0 0 0 1 0 0 0 1 57.245399334696494 27.267168024421188 6.073054971227938 1 rotate no_reflect no_shear #
lump $-1 $-1 $64 $10 #
transform $-1 1 0 0 0 1 0 0 0 1 57.245399334696494 27.267168024421188 6.073054971227938 1 rotate no_reflect no_shear #
lump $-1 $-1 $65 $11 #
transform $-1 1 0 0 0 1 0 0 0 1 57.245399334696494 27.267168024421188 6.073054971227938 1 rotate no_reflect no_shear #
lump $-1 $-1 $66 $12 #
transform $-1 1 0 0 0 1 0 0 0 1 57.245399334696494 27.267168024421188 6.073054971227938 1 rotate no_reflect no_shear #
lump $-1 $-1 $67 $13 #
transform $-1 1 0 0 0 1 0 0 0 1 57.245399334696494 27.267168024421188 6.073054971227938 1 rotate no_reflect no_shear #
lump $-1 $-1 $68 $14 #
transform $-1 1 0 0 0 1 0 0 0 1 57.245399334696494 27.267168024421188 6.073054971227938 1 rotate no_reflect no_shear #
lump $-1 $-1 $69 $15 #
transform $-1 1 0 0 0 1 0 0 0 1 57.245399334696494 27.267168024421188 6.073054971227938 1 rotate no_reflect no_shear #
lump $-1 $-1 $70 $16 #
transform $-1 1 0 0 0 1 0 0 0 1 57.245399334696494 27.267168024421188 6.073054971227938 1 rotate no_reflect no_shear #
lump $-1 $-1 $71 $17 #
transform $-1 1 0 0 0 1 0 0 0 1 57.245399334696494 27.267168024421188 6.073054971227938 1 rotate no_reflect no_shear #
shell $-1 $-1 $-1 $72 $-1 $18 #
shell $-1 $-1 $-1 $73 $-1 $20 #
shell $-1 $-1 $-1 $74 $-1 $22 #
shell $-1 $-1 $-1 $75 $-1 $24 #
shell $-1 $-1 $-1 $76 $-1 $26 #
shell $-1 $-1 $-1 $77 $-1 $28 #
shell $-1 $-1 $-1 $78 $-1 $30 #
shell $-1 $-1 $-1 $79 $-1 $32 #
shell $-1 $-1 $-1 $80 $-1 $34 #
shell $-1 $-1 $-1 $81 $-1 $36 #
shell $-1 $-1 $-1 $82 $-1 $38 #
shell $-1 $-1 $-1 $83 $-1 $40 #
shell $-1 $-1 $-1 $84 $-1 $42 #
shell $-1 $-1 $-1 $85 $-1 $44 #
shell $-1 $-1 $-1 $86 $-1 $46 #
shell $-1 $-1 $-1 $87 $-1 $48 #
shell $-1 $-1 $-1 $88 $-1 $50 #
shell $-1 $-1 $-1 $89 $-1 $52 #
face $-1 $90 $91 $54 $-1 $92 reversed single #
face $-1 $93 $94 $55 $-1 $95 forward single #
face $-1 $96 $97 $56 $-1 $98 reversed single #
face $-1 $99 $100 $57 $-1 $101 forward single #
face $-1 $102 $103 $58 $-1 $104 forward single #
face $-1 $105 $106 $59 $-1 $107 forward single #
face $-1 $108 $109 $60 $-1 $110 reversed single #
face $-1 $111 $112 $61 $-1 $113 forward single #
face $-1 $114 $115 $62 $-1 $116 forward single #
face $-1 $117 $118 $63 $-1 $119 reversed single #
face $-1 $120 $121 $64 $-1 $122 forward single #
face $-1 $123 $124 $65 $-1 $125 forward single #
face $-1 $126 $127 $66 $-1 $128 reversed single #
face $-1 $129 $130 $67 $-1 $131 forward single #
face $-1 $132 $133 $68 $-1 $134 forward single #
face $-1 $135 $136 $69 $-1 $137 reversed single #
face $-1 $138 $139 $70 $-1 $140 forward single #
face $-1 $141 $142 $71 $-1 $143 forward single #
face $-1 $144 $145 $54 $-1 $146 forward single #
loop $-1 $-1 $147 $72 #
plane-surface $-1 -57.245399334696494 0 0 1 0 0 0 0 -1 forward_v I I I I #
face $-1 $148 $149 $55 $-1 $150 reversed single #
loop $-1 $-1 $151 $73 #
plane-surface $-1 -57.245399334696494 0 0 1 0 0 0 0 -1 forward_v I I I I #
face $-1 $152 $153 $56 $-1 $154 reversed single #
loop $-1 $-1 $155 $74 #
plane-surface $-1 -25.910179202432978 -87.938048617869285 99.273174284087673 -1 0 0 0 -0.52991927123019833 0.84804809178421925 forward_v I I I I #
face $-1 $156 $157 $57 $-1 $158 forward single #
loop $-1 $159 $160 $75 #
cone-surface $-1 -44.929737122557597 -23.712348030877568 3.4232334973019323 0 0.52991927123019833 -0.84804809178421925 0.5 0 0 1 I I 0 1 0.5 forward I I I I #
face $-1 $161 $162 $58 $-1 $163 forward single #
loop $-1 $164 $165 $76 #
cone-surface $-1 -37.797402902510868 -23.712348030877568 3.4232334973019323 0 0.52991927123019833 -0.84804809178421925 0.5 0 0 1 I I 0 1 0.5 forward I I I I #
face $-1 $166 $167 $59 $-1 $168 forward single #
loop $-1 $169 $170 $77 #
cone-surface $-1 -30.665068682464135 -23.712348030877568 3.4232334973019323 0 0.52991927123019833 -0.84804809178421925 0.5 0 0 1 I I 0 1 0.5 forward I I I I #
face $-1 $171 $172 $60 $-1 $173 reversed single #
loop $-1 $-1 $174 $78 #
plane-surface $-1 -47.271791173452996 79.9182141059907 117.38574508975 1 0 0 0 -0.7660444514056185 -0.64278759981090561 forward_v I I I I #
face $-1 $175 $176 $61 $-1 $177 forward single #
loop $-1 $178 $179 $79 #
cone-surface $-1 -43.468269326060664 24.049565315781333 2.7730120229687114 0 -0.7660444514056185 -0.64278759981090561 1 0 0 1 I I 0 1 1 forward I I I I #
face $-1 $180 $181 $62 $-1 $182 forward single #
loop $-1 $183 $184 $80 #
cone-surface $-1 -37.762986554972187 24.049565315781333 2.7730120229687114 0 -0.7660444514056185 -0.64278759981090561 1 0 0 1 I I 0 1 1 forward I I I I #
face $-1 $185 $186 $63 $-1 $187 reversed single #
loop $-1 $-1 $188 $81 #
plane-surface $-1 -20.53928468913168 79.9182141059907 117.38574508975 1 0 0 0 -0.7660444514056185 -0.64278759981090561 forward_v I I I I #
face $-1 $189 $190 $64 $-1 $191 forward single #
loop $-1 $192 $193 $82 #
cone-surface $-1 -16.735762841739351 24.049565315781333 2.7730120229687114 0 -0.7660444514056185 -0.64278759981090561 1 0 0 1 I I 0 1 1 forward I I I I #
face $-1 $194 $195 $65 $-1 $196 forward single #
loop $-1 $197 $198 $83 #
cone-surface $-1 -11.030480070650874 24.049565315781333 2.7730120229687114 0 -0.7660444514056185 -0.64278759981090561 1 0 0 1 I I 0 1 1 forward I I I I #
face $-1 $199 $200 $66 $-1 $201 reversed single #
loop $-1 $-1 $202 $84 #
plane-surface $-1 6.1932217951896256 79.9182141059907 117.38574508975 1 0 0 0 -0.7660444514056185 -0.64278759981090561 forward_v I I I I #
face $-1 $203 $204 $67 $-1 $205 forward single #
loop $-1 $206 $207 $85 #
cone-surface $-1 9.9967436425819685 24.049565315781333 2.7730120229687114 0 -0.7660444514056185 -0.64278759981090561 1 0 0 1 I I 0 1 1 forward I I I I #
face $-1 $208 $209 $68 $-1 $210 forward single #
loop $-1 $211 $212 $86 #
cone-surface $-1 15.702026413670431 24.049565315781333 2.7730120229687114 0 -0.7660444514056185 -0.64278759981090561 1 0 0 1 I I 0 1 1 forward I I I I #
face $-1 $213 $214 $69 $-1 $215 reversed single #
loop $-1 $-1 $216 $87 #
plane-surface $-1 32.925728279510935 79.9182141059907 117.38574508975 1 0 0 0 -0.7660444514056185 -0.64278759981090561 forward_v I I I I #
face $-1 $217 $218 $70 $-1 $219 forward single #
loop $-1 $220 $221 $88 #
cone-surface $-1 36.729250126903274 24.049565315781333 2.7730120229687114 0 -0.7660444514056185 -0.64278759981090561 1 0 0 1 I I 0 1 1 forward I I I I #
face $-1 $222 $223 $71 $-1 $224 forward single #
loop $-1 $225 $226 $89 #
cone-surface $-1 42.434532897991737 24.049565315781333 2.7730120229687114 0 -0.7660444514056185 -0.64278759981090561 1 0 0 1 I I 0 1 1 forward I I I I #
face $-1 $227 $228 $54 $-1 $229 reversed single #
loop $-1 $-1 $230 $90 #
plane-surface $-1 0 0 6.073054971227938 0 0 1 1 0 0 forward_v I I I I #
coedge $-1 $231 $232 $233 $234 reversed $91 $-1 #
face $-1 $235 $236 $55 $-1 $237 reversed single #
loop $-1 $-1 $238 $93 #
plane-surface $-1 0 0 -6.073054971227938 0 0 1 1 0 0 forward_v I I I I #
coedge $-1 $239 $240 $241 $242 forward $94 $-1 #
face $-1 $243 $244 $56 $-1 $245 reversed single #
loop $-1 $-1 $246 $96 #
plane-surface $-1 -37.797402902510868 -27.267168024421196 2.1794709456577266 0 -0.52991927123019833 0.84804809178421925 1 0 0 forward_v I I I I #
coedge $-1 $247 $248 $249 $250 reversed $97 $-1 #
face $-1 $-1 $251 $57 $-1 $252 forward single #
loop $-1 $253 $254 $99 #
cone-surface $-1 -44.929737122557597 -23.140566641248391 2.5081920132149857 0 0.52991927123019833 -0.84804809178421925 0.25 0 0 1 I I -0.70710678118654746 0.70710678118654746 0.25 forward I I I I #
loop $-1 $-1 $255 $75 #
coedge $-1 $160 $160 $256 $257 reversed $100 $-1 #
face $-1 $-1 $258 $58 $-1 $259 forward single #
loop $-1 $260 $261 $102 #
cone-surface $-1 -37.797402902510868 -23.140566641248391 2.5081920132149857 0 0.52991927123019833 -0.84804809178421925 0.25 0 0 1 I I -0.70710678118654746 0.70710678118654746 0.25 forward I I I I #
loop $-1 $-1 $262 $76 #
coedge $-1 $165 $165 $263 $264 reversed $103 $-1 #
face $-1 $-1 $265 $59 $-1 $266 forward single #
loop $-1 $267 $268 $105 #
cone-surface $-1 -30.665068682464135 -23.140566641248391 2.5081920132149857 0 0.52991927123019833 -0.84804809178421925 0.25 0 0 1 I I -0.70710678118654746 0.70710678118654746 0.25 forward I I I I #
loop $-1 $-1 $269 $77 #
coedge $-1 $170 $170 $270 $271 reversed $106 $-1 #
face $-1 $272 $273 $60 $-1 $274 reversed single #
loop $-1 $-1 $275 $108 #
plane-surface $-1 -40.615627940516433 -7.7868269516955735 43.792479412617254 0 0.7660444514056185 0.64278759981090561 1 0 0 forward_v I I I I #
coedge $-1 $276 $277 $278 $279 reversed $109 $-1 #
face $-1 $-1 $280 $61 $-1 $281 forward single #
loop $-1 $282 $283 $111 #
cone-surface $-1 -43.468269326060664 22.150760715324644 1.1797258247619258 0 -0.7660444514056185 -0.64278759981090561 0.5 0 0 1 I I -0.70710678118654746 0.70710678118654746 0.5 forward I I I I #
loop $-1 $-1 $284 $79 #
coedge $-1 $179 $179 $285 $286 reversed $112 $-1 #
face $-1 $-1 $287 $62 $-1 $288 forward single #
loop $-1 $289 $290 $114 #
cone-surface $-1 -37.762986554972187 22.150760715324644 1.1797258247619258 0 -0.7660444514056185 -0.64278759981090561 0.5 0 0 1 I I -0.70710678118654746 0.70710678118654746 0.5 forward I I I I #
loop $-1 $-1 $291 $80 #
coedge $-1 $184 $184 $292 $293 reversed $115 $-1 #
face $-1 $294 $295 $63 $-1 $296 reversed single #
loop $-1 $-1 $297 $117 #
plane-surface $-1 -13.88312145619512 -7.7868269516955735 43.792479412617254 0 0.7660444514056185 0.64278759981090561 1 0 0 forward_v I I I I #
coedge $-1 $298 $299 $300 $301 reversed $118 $-1 #
face $-1 $-1 $302 $64 $-1 $303 forward single #
loop $-1 $304 $305 $120 #
cone-surface $-1 -16.735762841739351 22.150760715324644 1.1797258247619258 0 -0.7660444514056185 -0.64278759981090561 0.5 0 0 1 I I -0.70710678118654746 0.70710678118654746 0.5 forward I I I I #
loop $-1 $-1 $306 $82 #
coedge $-1 $193 $193 $307 $308 reversed $121 $-1 #
face $-1 $-1 $309 $65 $-1 $310 forward single #
loop $-1 $311 $312 $123 #
cone-surface $-1 -11.030480070650874 22.150760715324644 1.1797258247619258 0 -0.7660444514056185 -0.64278759981090561 0.5 0 0 1 I I -0.70710678118654746 0.70710678118654746 0.5 forward I I I I #
loop $-1 $-1 $313 $83 #
coedge $-1 $198 $198 $314 $315 reversed $124 $-1 #
face $-1 $316 $317 $66 $-1 $318 reversed single #
loop $-1 $-1 $319 $126 #
plane-surface $-1 12.849385028126186 -7.7868269516955735 43.792479412617254 0 0.7660444514056185 0.64278759981090561 1 0 0 forward_v I I I I #
coedge $-1 $320 $321 $322 $323 reversed $127 $-1 #
face $-1 $-1 $324 $67 $-1 $325 forward single #
loop $-1 $326 $327 $129 #
cone-surface $-1 9.9967436425819685 22.150760715324644 1.1797258247619258 0 -0.7660444514056185 -0.64278759981090561 0.5 0 0 1 I I -0.70710678118654746 0.70710678118654746 0.5 forward I I I I #
loop $-1 $-1 $328 $85 #
coedge $-1 $207 $207 $329 $330 reversed $130 $-1 #
face $-1 $-1 $331 $68 $-1 $332 forward single #
loop $-1 $333 $334 $132 #
cone-surface $-1 15.702026413670431 22.150760715324644 1.1797258247619258 0 -0.7660444514056185 -0.64278759981090561 0.5 0 0 1 I I -0.70710678118654746 0.70710678118654746 0.5 forward I I I I #
loop $-1 $-1 $335 $86 #
coedge $-1 $212 $212 $336 $337 reversed $133 $-1 #
face $-1 $338 $339 $69 $-1 $340 reversed single #
loop $-1 $-1 $341 $135 #
plane-surface $-1 39.581891512447491 -7.7868269516955735 43.792479412617254 0 0.7660444514056185 0.64278759981090561 1 0 0 forward_v I I I I #
coedge $-1 $342 $343 $344 $345 reversed $136 $-1 #
face $-1 $-1 $346 $70 $-1 $347 forward single #
loop $-1 $348 $349 $138 #
cone-surface $-1 36.729250126903274 22.150760715324644 1.1797258247619258 0 -0.7660444514056185 -0.64278759981090561 0.5 0 0 1 I I -0.70710678118654746 0.70710678118654746 0.5 forward I I I I #
loop $-1 $-1 $350 $88 #
coedge $-1 $221 $221 $351 $352 reversed $139 $-1 #
face $-1 $-1 $353 $71 $-1 $354 forward single #
loop $-1 $355 $356 $141 #
cone-surface $-1 42.434532897991737 22.150760715324644 1.1797258247619258 0 -0.7660444514056185 -0.64278759981090561 0.5 0 0 1 I I -0.70710678118654746 0.70710678118654746 0.5 forward I I I I #
loop $-1 $-1 $357 $89 #
coedge $-1 $226 $226 $358 $359 reversed $142 $-1 #
face $-1 $360 $361 $54 $-1 $362 reversed single #
loop $-1 $-1 $363 $144 #
plane-surface $-1 0 0 -6.073054971227938 0 0 1 1 0 0 forward_v I I I I #
coedge $-1 $364 $365 $366 $367 forward $145 $-1 #
coedge $-1 $368 $147 $369 $370 reversed $91 $-1 #
coedge $-1 $147 $368 $371 $372 forward $91 $-1 #
coedge $-1 $373 $374 $147 $234 forward $228 $-1 #
edge $-1 $375 -27.267168024421188 $376 27.267168024421188 $147 $377 forward 7 unknown #
face $-1 $378 $379 $55 $-1 $380 reversed single #
loop $-1 $-1 $381 $148 #
plane-surface $-1 -61.025785700750362 -18.121058081965312 0 0 1 0 0 0 1 forward_v I I I I #
coedge $-1 $382 $383 $240 $384 forward $149 $-1 #
coedge $-1 $385 $151 $386 $387 reversed $94 $-1 #
coedge $-1 $151 $385 $238 $384 reversed $94 $-1 #
coedge $-1 $388 $389 $151 $242 reversed $390 $-1 #
edge $-1 $391 -6.073054971227938 $392 6.073054971227938 $241 $393 forward 7 unknown #
face $-1 $394 $395 $56 $-1 $396 forward single #
loop $-1 $-1 $397 $152 #
plane-surface $-1 -49.684626602588757 -87.938048617869285 99.273174284087673 1 0 0 0 0.52991927123019833 -0.84804809178421925 forward_v I I I I #
coedge $-1 $398 $399 $400 $401 reversed $153 $-1 #
coedge $-1 $248 $155 $402 $403 reversed $97 $-1 #
coedge $-1 $155 $247 $398 $404 reversed $97 $-1 #
coedge $-1 $400 $405 $155 $250 forward $395 $-1 #
edge $-1 $406 16.701856284513454 $407 22.932893127957403 $249 $408 forward 7 unknown #
loop $-1 $-1 $256 $156 #
plane-surface $-1 -37.797402902510868 -27.267168024421196 2.1794709456577266 0 -0.52991927123019833 0.84804809178421925 1 0 0 forward_v I I I I #
loop $-1 $-1 $409 $99 #
coedge $-1 $254 $254 $255 $410 reversed $157 $-1 #
coedge $-1 $255 $255 $254 $410 forward $159 $-1 #
coedge $-1 $256 $256 $160 $257 forward $251 $-1 #
edge $-1 $411 -4.8923747681858315e-015 $411 6.2831853071795951 $256 $412 forward 7 unknown #
loop $-1 $-1 $263 $161 #
plane-surface $-1 -37.797402902510868 -27.267168024421196 2.1794709456577266 0 -0.52991927123019833 0.84804809178421925 1 0 0 forward_v I I I I #
loop $-1 $-1 $413 $102 #
coedge $-1 $261 $261 $262 $414 reversed $162 $-1 #
coedge $-1 $262 $262 $261 $414 forward $164 $-1 #
coedge $-1 $263 $263 $165 $264 forward $258 $-1 #
edge $-1 $415 -4.8923747681858315e-015 $415 6.2831853071795951 $263 $416 forward 7 unknown #
loop $-1 $-1 $270 $166 #
plane-surface $-1 -37.797402902510868 -27.267168024421196 2.1794709456577266 0 -0.52991927123019833 0.84804809178421925 1 0 0 forward_v I I I I #
loop $-1 $-1 $417 $105 #
coedge $-1 $268 $268 $269 $418 reversed $167 $-1 #
coedge $-1 $269 $269 $268 $418 forward $169 $-1 #
coedge $-1 $270 $270 $170 $271 forward $265 $-1 #
edge $-1 $419 -4.8923747681858315e-015 $419 6.2831853071795951 $270 $420 forward 7 unknown #
face $-1 $421 $422 $60 $-1 $423 reversed single #
loop $-1 $-1 $424 $171 #
plane-surface $-1 -33.959464707579869 79.9182141059907 117.38574508975 -1 0 0 0 0.7660444514056185 0.64278759981090561 forward_v I I I I #
coedge $-1 $425 $426 $427 $428 reversed $172 $-1 #
coedge $-1 $277 $174 $429 $430 reversed $109 $-1 #
coedge $-1 $174 $276 $425 $431 reversed $109 $-1 #
coedge $-1 $427 $432 $174 $279 forward $433 $-1 #
edge $-1 $434 12.691939028574161 $435 16.095579696346121 $278 $436 forward 7 unknown #
loop $-1 $-1 $285 $175 #
plane-surface $-1 -40.615627940516433 -7.7868269516955735 43.792479412617254 0 0.7660444514056185 0.64278759981090561 1 0 0 forward_v I I I I #
loop $-1 $-1 $437 $111 #
coedge $-1 $283 $283 $284 $438 reversed $176 $-1 #
coedge $-1 $284 $284 $283 $438 forward $178 $-1 #
coedge $-1 $285 $285 $179 $286 forward $280 $-1 #
edge $-1 $439 4.7079392539723723e-017 $439 6.2831853071796004 $285 $440 forward 7 unknown #
loop $-1 $-1 $292 $180 #
plane-surface $-1 -40.615627940516433 -7.7868269516955735 43.792479412617254 0 0.7660444514056185 0.64278759981090561 1 0 0 forward_v I I I I #
loop $-1 $-1 $441 $114 #
coedge $-1 $290 $290 $291 $442 reversed $181 $-1 #
coedge $-1 $291 $291 $290 $442 forward $183 $-1 #
coedge $-1 $292 $292 $184 $293 forward $287 $-1 #
edge $-1 $443 4.7079392539723723e-017 $443 6.2831853071796004 $292 $444 forward 7 unknown #
face $-1 $445 $446 $63 $-1 $447 forward single #
loop $-1 $-1 $448 $185 #
plane-surface $-1 -7.2269582232585599 79.9182141059907 117.38574508975 -1 0 0 0 0.7660444514056185 0.64278759981090561 forward_v I I I I #
coedge $-1 $449 $450 $451 $452 reversed $186 $-1 #
coedge $-1 $299 $188 $453 $454 reversed $118 $-1 #
coedge $-1 $188 $298 $449 $455 reversed $118 $-1 #
coedge $-1 $451 $456 $188 $301 forward $446 $-1 #
edge $-1 $457 12.691939028574161 $458 16.095579696346121 $300 $459 forward 7 unknown #
loop $-1 $-1 $307 $189 #
plane-surface $-1 -13.88312145619512 -7.7868269516955735 43.792479412617254 0 0.7660444514056185 0.64278759981090561 1 0 0 forward_v I I I I #
loop $-1 $-1 $460 $120 #
coedge $-1 $305 $305 $306 $461 reversed $190 $-1 #
coedge $-1 $306 $306 $305 $461 forward $192 $-1 #
coedge $-1 $307 $307 $193 $308 forward $302 $-1 #
edge $-1 $462 4.7079392539723723e-017 $462 6.2831853071796004 $307 $463 forward 7 unknown #
loop $-1 $-1 $314 $194 #
plane-surface $-1 -13.88312145619512 -7.7868269516955735 43.792479412617254 0 0.7660444514056185 0.64278759981090561 1 0 0 forward_v I I I I #
loop $-1 $-1 $464 $123 #
coedge $-1 $312 $312 $313 $465 reversed $195 $-1 #
coedge $-1 $313 $313 $312 $465 forward $197 $-1 #
coedge $-1 $314 $314 $198 $315 forward $309 $-1 #
edge $-1 $466 4.7079392539723723e-017 $466 6.2831853071796004 $314 $467 forward 7 unknown #
face $-1 $468 $469 $66 $-1 $470 forward single #
loop $-1 $-1 $471 $199 #
plane-surface $-1 19.505548261062746 79.9182141059907 117.38574508975 -1 0 0 0 0.7660444514056185 0.64278759981090561 forward_v I I I I #
coedge $-1 $472 $473 $474 $475 reversed $200 $-1 #
coedge $-1 $321 $202 $476 $477 reversed $127 $-1 #
coedge $-1 $202 $320 $472 $478 reversed $127 $-1 #
coedge $-1 $474 $479 $202 $323 forward $469 $-1 #
edge $-1 $480 12.691939028574161 $481 16.095579696346121 $322 $482 forward 7 unknown #
loop $-1 $-1 $329 $203 #
plane-surface $-1 12.849385028126186 -7.7868269516955735 43.792479412617254 0 0.7660444514056185 0.64278759981090561 1 0 0 forward_v I I I I #
loop $-1 $-1 $483 $129 #
coedge $-1 $327 $327 $328 $484 reversed $204 $-1 #
coedge $-1 $328 $328 $327 $484 forward $206 $-1 #
coedge $-1 $329 $329 $207 $330 forward $324 $-1 #
edge $-1 $485 4.7079392539723723e-017 $485 6.2831853071796004 $329 $486 forward 7 unknown #
loop $-1 $-1 $336 $208 #
plane-surface $-1 12.849385028126186 -7.7868269516955735 43.792479412617254 0 0.7660444514056185 0.64278759981090561 1 0 0 forward_v I I I I #
loop $-1 $-1 $487 $132 #
coedge $-1 $334 $334 $335 $488 reversed $209 $-1 #
coedge $-1 $335 $335 $334 $488 forward $211 $-1 #
coedge $-1 $336 $336 $212 $337 forward $331 $-1 #
edge $-1 $489 4.7079392539723723e-017 $489 6.2831853071796004 $336 $490 forward 7 unknown #
face $-1 $491 $492 $69 $-1 $493 forward single #
loop $-1 $-1 $494 $213 #
plane-surface $-1 46.238054745384048 79.9182141059907 117.38574508975 -1 0 0 0 0.7660444514056185 0.64278759981090561 forward_v I I I I #
coedge $-1 $495 $496 $497 $498 reversed $214 $-1 #
coedge $-1 $343 $216 $499 $500 reversed $136 $-1 #
coedge $-1 $216 $342 $495 $501 reversed $136 $-1 #
coedge $-1 $497 $502 $216 $345 forward $492 $-1 #
edge $-1 $503 12.691939028574161 $504 16.095579696346121 $344 $505 forward 7 unknown #
loop $-1 $-1 $351 $217 #
plane-surface $-1 39.581891512447491 -7.7868269516955735 43.792479412617254 0 0.7660444514056185 0.64278759981090561 1 0 0 forward_v I I I I #
loop $-1 $-1 $506 $138 #
coedge $-1 $349 $349 $350 $507 reversed $218 $-1 #
coedge $-1 $350 $350 $349 $507 forward $220 $-1 #
coedge $-1 $351 $351 $221 $352 forward $346 $-1 #
edge $-1 $508 4.7079392539723723e-017 $508 6.2831853071796004 $351 $509 forward 7 unknown #
loop $-1 $-1 $358 $222 #
plane-surface $-1 39.581891512447491 -7.7868269516955735 43.792479412617254 0 0.7660444514056185 0.64278759981090561 1 0 0 forward_v I I I I #
loop $-1 $-1 $510 $141 #
coedge $-1 $356 $356 $357 $511 reversed $223 $-1 #
coedge $-1 $357 $357 $356 $511 forward $225 $-1 #
coedge $-1 $358 $358 $226 $359 forward $353 $-1 #
edge $-1 $512 4.7079392539723723e-017 $512 6.2831853071796004 $358 $513 forward 7 unknown #
face $-1 $514 $515 $54 $-1 $516 reversed single #
loop $-1 $-1 $369 $227 #
plane-surface $-1 0 -27.267168024421188 0 0 1 0 0 0 1 forward_v I I I I #
coedge $-1 $374 $373 $517 $518 forward $228 $-1 #
coedge $-1 $519 $230 $520 $521 forward $145 $-1 #
coedge $-1 $230 $519 $522 $523 forward $145 $-1 #
coedge $-1 $524 $525 $230 $367 reversed $526 $-1 #
edge $-1 $527 -27.267168024421188 $528 27.267168024421188 $366 $529 forward 7 unknown #
coedge $-1 $232 $231 $519 $530 reversed $91 $-1 #
coedge $-1 $531 $522 $231 $370 forward $361 $-1 #
edge $-1 $532 -6.073054971227938 $375 6.073054971227938 $231 $533 forward 7 unknown #
coedge $-1 $520 $534 $232 $372 reversed $515 $-1 #
edge $-1 $535 -6.073054971227938 $376 6.073054971227938 $371 $536 forward 7 unknown #
coedge $-1 $363 $233 $534 $537 forward $228 $-1 #
coedge $-1 $233 $363 $531 $538 forward $228 $-1 #
vertex $-1 $234 $539 #
vertex $-1 $537 $540 #
straight-curve $-1 -57.245399334696494 0 -6.073054971227938 0 1 0 I I #
face $-1 $541 $390 $55 $-1 $542 reversed single #
loop $-1 $-1 $543 $235 #
plane-surface $-1 -64.806172066804237 -16.621058081965312 0 1 0 0 0 0 -1 forward_v I I I I #
coedge $-1 $544 $545 $546 $547 forward $236 $-1 #
coedge $-1 $548 $238 $544 $549 forward $149 $-1 #
coedge $-1 $238 $548 $388 $550 forward $149 $-1 #
edge $-1 $391 15.121058081965312 $551 18.121058081965312 $238 $552 forward 7 unknown #
coedge $-1 $240 $239 $553 $554 forward $94 $-1 #
coedge $-1 $555 $556 $239 $387 forward $557 $-1 #
edge $-1 $558 -18.121058081965312 $392 -15.121058081965312 $386 $559 forward 7 unknown #
coedge $-1 $560 $241 $383 $550 reversed $390 $-1 #
coedge $-1 $241 $560 $555 $561 reversed $390 $-1 #
loop $-1 $-1 $241 $378 #
vertex $-1 $384 $562 #
vertex $-1 $561 $563 #
straight-curve $-1 -57.245399334696494 -15.121058081965312 0 0 0 1 I I #
face $-1 $-1 $564 $56 $-1 $565 reversed single #
loop $-1 $-1 $249 $243 #
plane-surface $-1 0 0 6.073054971227938 0 0 1 1 0 0 forward_v I I I I #
coedge $-1 $566 $567 $568 $569 reversed $244 $-1 #
coedge $-1 $570 $246 $248 $404 forward $153 $-1 #
coedge $-1 $246 $570 $566 $571 forward $153 $-1 #
coedge $-1 $568 $249 $246 $401 forward $395 $-1 #
edge $-1 $407 7.0114777511775443 $572 30.785925151333323 $400 $573 forward 7 unknown #
coedge $-1 $574 $575 $247 $403 forward $564 $-1 #
edge $-1 $576 -47.457116196386103 $406 -43.563532170815897 $402 $577 forward 7 unknown #
edge $-1 $407 -7.3475041142235202 $576 -8.3790584163743152e-015 $248 $578 forward 7 unknown #
coedge $-1 $249 $568 $574 $579 forward $395 $-1 #
vertex $-1 $250 $580 #
vertex $-1 $250 $581 #
straight-curve $-1 -25.910179202432978 -43.969024308934642 6.0730549712279398 0 1 0 I I #
coedge $-1 $409 $409 $-1 $582 reversed $253 $-1 #
edge $-1 $583 0 $583 6.2831853071796004 $254 $584 forward 7 unknown #
vertex $-1 $257 $585 #
ellipse-curve $-1 -44.929737122557597 -24.151649602699205 4.1262629584428394 0 -0.52991927123019833 0.84804809178421925 0.5 0 0 1 I I #
coedge $-1 $413 $413 $-1 $586 reversed $260 $-1 #
edge $-1 $587 0 $587 6.2831853071796004 $261 $588 forward 7 unknown #
vertex $-1 $264 $589 #
ellipse-curve $-1 -37.797402902510868 -24.151649602699205 4.1262629584428394 0 -0.52991927123019833 0.84804809178421925 0.5 0 0 1 I I #
coedge $-1 $417 $417 $-1 $590 reversed $267 $-1 #
edge $-1 $591 0 $591 6.2831853071796004 $268 $592 forward 7 unknown #
vertex $-1 $271 $593 #
ellipse-curve $-1 -30.665068682464135 -24.151649602699205 4.1262629584428394 0 -0.52991927123019833 0.84804809178421925 0.5 0 0 1 I I #
face $-1 $-1 $433 $60 $-1 $594 forward single #
loop $-1 $-1 $595 $272 #
plane-surface $-1 0 27.267168024421188 0 0 -1 0 0 0 -1 forward_v I I I I #
coedge $-1 $596 $597 $598 $599 reversed $273 $-1 #
coedge $-1 $600 $275 $277 $431 forward $172 $-1 #
coedge $-1 $275 $600 $596 $601 forward $172 $-1 #
coedge $-1 $598 $278 $275 $428 forward $433 $-1 #
edge $-1 $435 -26.96397720319478 $602 -13.651650737321653 $427 $603 forward 7 unknown #
coedge $-1 $604 $605 $276 $430 forward $422 $-1 #
edge $-1 $606 -56.676118673562875 $434 -52.619817573647062 $429 $607 forward 7 unknown #
edge $-1 $435 49.239211082565483 $606 54.534336048842427 $277 $608 forward 7 unknown #
coedge $-1 $278 $598 $604 $609 forward $433 $-1 #
loop $-1 $-1 $598 $421 #
vertex $-1 $430 $610 #
vertex $-1 $279 $611 #
straight-curve $-1 -47.271791173452996 39.95910705299535 6.0730549712279398 0 -1 0 I I #
coedge $-1 $437 $437 $-1 $612 reversed $282 $-1 #
edge $-1 $613 0 $613 6.2831853071796004 $283 $614 forward 7 unknown #
vertex $-1 $286 $615 #
ellipse-curve $-1 -43.468269326060664 25.565347690535202 4.0449044212700356 0 0.7660444514056185 0.64278759981090561 1 0 0 1 I I #
coedge $-1 $441 $441 $-1 $616 reversed $289 $-1 #
edge $-1 $617 0 $617 6.2831853071796004 $290 $618 forward 7 unknown #
vertex $-1 $293 $619 #
ellipse-curve $-1 -37.762986554972187 25.565347690535202 4.0449044212700356 0 0.7660444514056185 0.64278759981090561 1 0 0 1 I I #
face $-1 $-1 $620 $63 $-1 $621 reversed single #
loop $-1 $-1 $300 $294 #
plane-surface $-1 0 0 6.073054971227938 0 0 1 1 0 0 forward_v I I I I #
coedge $-1 $622 $623 $624 $625 reversed $295 $-1 #
coedge $-1 $626 $297 $299 $455 forward $186 $-1 #
coedge $-1 $297 $626 $622 $627 forward $186 $-1 #
coedge $-1 $624 $300 $297 $452 forward $446 $-1 #
edge $-1 $458 -13.59772396103412 $628 -0.28539749516099988 $451 $629 forward 7 unknown #
coedge $-1 $630 $631 $298 $454 forward $620 $-1 #
edge $-1 $632 -56.676118673562875 $457 -52.619817573647062 $453 $633 forward 7 unknown #
edge $-1 $458 49.239211082565483 $632 54.534336048842427 $299 $634 forward 7 unknown #
coedge $-1 $300 $624 $630 $635 forward $446 $-1 #
vertex $-1 $301 $636 #
vertex $-1 $301 $637 #
straight-curve $-1 -20.53928468913168 39.95910705299535 6.0730549712279398 0 -1 0 I I #
coedge $-1 $460 $460 $-1 $638 reversed $304 $-1 #
edge $-1 $639 0 $639 6.2831853071796004 $305 $640 forward 7 unknown #
vertex $-1 $308 $641 #
ellipse-curve $-1 -16.735762841739351 25.565347690535202 4.0449044212700356 0 0.7660444514056185 0.64278759981090561 1 0 0 1 I I #
coedge $-1 $464 $464 $-1 $642 reversed $311 $-1 #
edge $-1 $643 0 $643 6.2831853071796004 $312 $644 forward 7 unknown #
vertex $-1 $315 $645 #
ellipse-curve $-1 -11.030480070650874 25.565347690535202 4.0449044212700356 0 0.7660444514056185 0.64278759981090561 1 0 0 1 I I #
face $-1 $-1 $646 $66 $-1 $647 reversed single #
loop $-1 $-1 $322 $316 #
plane-surface $-1 0 0 6.073054971227938 0 0 1 1 0 0 forward_v I I I I #
coedge $-1 $648 $649 $650 $651 reversed $317 $-1 #
coedge $-1 $652 $319 $321 $478 forward $200 $-1 #
coedge $-1 $319 $652 $648 $653 forward $200 $-1 #
coedge $-1 $650 $322 $319 $475 forward $469 $-1 #
edge $-1 $481 -0.23147071887346726 $654 13.080855746999653 $474 $655 forward 7 unknown #
coedge $-1 $656 $657 $320 $477 forward $646 $-1 #
edge $-1 $658 -56.676118673562875 $480 -52.619817573647062 $476 $659 forward 7 unknown #
edge $-1 $481 49.239211082565483 $658 54.534336048842427 $321 $660 forward 7 unknown #
coedge $-1 $322 $650 $656 $661 forward $469 $-1 #
vertex $-1 $323 $662 #
vertex $-1 $323 $663 #
straight-curve $-1 6.1932217951896256 39.95910705299535 6.0730549712279398 0 -1 0 I I #
coedge $-1 $483 $483 $-1 $664 reversed $326 $-1 #
edge $-1 $665 0 $665 6.2831853071796004 $327 $666 forward 7 unknown #
vertex $-1 $330 $667 #
ellipse-curve $-1 9.9967436425819685 25.565347690535202 4.0449044212700356 0 0.7660444514056185 0.64278759981090561 1 0 0 1 I I #
coedge $-1 $487 $487 $-1 $668 reversed $333 $-1 #
edge $-1 $669 0 $669 6.2831853071796004 $334 $670 forward 7 unknown #
vertex $-1 $337 $671 #
ellipse-curve $-1 15.702026413670431 25.565347690535202 4.0449044212700356 0 0.7660444514056185 0.64278759981090561 1 0 0 1 I I #
face $-1 $-1 $672 $69 $-1 $673 reversed single #
loop $-1 $-1 $344 $338 #
plane-surface $-1 0 0 6.073054971227938 0 0 1 1 0 0 forward_v I I I I #
coedge $-1 $674 $675 $676 $677 reversed $339 $-1 #
coedge $-1 $678 $341 $343 $501 forward $214 $-1 #
coedge $-1 $341 $678 $674 $679 forward $214 $-1 #
coedge $-1 $676 $344 $341 $498 forward $492 $-1 #
edge $-1 $504 13.134782523287189 $680 26.447108989160302 $497 $681 forward 7 unknown #
coedge $-1 $682 $683 $342 $500 forward $672 $-1 #
edge $-1 $684 -56.676118673562875 $503 -52.619817573647062 $499 $685 forward 7 unknown #
edge $-1 $504 49.239211082565483 $684 54.534336048842427 $343 $686 forward 7 unknown #
coedge $-1 $344 $676 $682 $687 forward $492 $-1 #
vertex $-1 $345 $688 #
vertex $-1 $345 $689 #
straight-curve $-1 32.925728279510935 39.95910705299535 6.0730549712279398 0 -1 0 I I #
coedge $-1 $506 $506 $-1 $690 reversed $348 $-1 #
edge $-1 $691 0 $691 6.2831853071796004 $349 $692 forward 7 unknown #
vertex $-1 $352 $693 #
ellipse-curve $-1 36.729250126903274 25.565347690535202 4.0449044212700356 0 0.7660444514056185 0.64278759981090561 1 0 0 1 I I #
coedge $-1 $510 $510 $-1 $694 reversed $355 $-1 #
edge $-1 $695 0 $695 6.2831853071796004 $356 $696 forward 7 unknown #
vertex $-1 $359 $697 #
ellipse-curve $-1 42.434532897991737 25.565347690535202 4.0449044212700356 0 0.7660444514056185 0.64278759981090561 1 0 0 1 I I #
face $-1 $-1 $526 $54 $-1 $698 reversed single #
loop $-1 $-1 $699 $360 #
plane-surface $-1 0 27.267168024421188 0 0 -1 0 0 0 -1 forward_v I I I I #
coedge $-1 $525 $524 $363 $518 reversed $526 $-1 #
edge $-1 $700 -27.267168024421188 $701 27.267168024421188 $517 $702 forward 7 unknown #
coedge $-1 $365 $364 $368 $530 forward $145 $-1 #
coedge $-1 $699 $371 $364 $521 reversed $515 $-1 #
edge $-1 $528 -57.245399334696494 $535 57.245399334696494 $520 $703 forward 7 unknown #
coedge $-1 $369 $704 $365 $523 reversed $361 $-1 #
edge $-1 $532 -57.245399334696494 $527 57.245399334696494 $522 $705 forward 7 unknown #
coedge $-1 $517 $366 $704 $706 forward $526 $-1 #
coedge $-1 $366 $517 $699 $707 reversed $526 $-1 #
loop $-1 $-1 $524 $514 #
vertex $-1 $367 $708 #
vertex $-1 $367 $709 #
straight-curve $-1 57.245399334696494 0 6.073054971227938 0 1 0 I I #
edge $-1 $535 -27.267168024421188 $532 27.267168024421188 $368 $710 forward 7 unknown #
coedge $-1 $704 $369 $374 $538 reversed $361 $-1 #
vertex $-1 $530 $711 #
straight-curve $-1 -57.245399334696494 -27.267168024421188 0 0 0 -1 I I #
coedge $-1 $371 $699 $373 $537 reversed $515 $-1 #
vertex $-1 $521 $712 #
straight-curve $-1 -57.245399334696494 27.267168024421188 0 0 0 -1 I I #
edge $-1 $376 -57.245399334696494 $700 57.245399334696494 $534 $713 forward 7 unknown #
edge $-1 $701 -57.245399334696494 $375 57.245399334696494 $531 $714 forward 7 unknown #
point $-1 -57.245399334696494 -27.267168024421188 -6.073054971227938 #
point $-1 -57.245399334696494 27.267168024421188 -6.073054971227938 #
face $-1 $-1 $557 $55 $-1 $715 forward single #
plane-surface $-1 -61.025785700750362 -15.121058081965312 0 0 -1 0 0 0 -1 forward_v I I I I #
coedge $-1 $716 $717 $560 $718 forward $379 $-1 #
coedge $-1 $553 $381 $382 $549 reversed $236 $-1 #
coedge $-1 $381 $553 $556 $719 reversed $236 $-1 #
coedge $-1 $717 $716 $381 $547 reversed $379 $-1 #
edge $-1 $720 -6.073054971227938 $721 6.073054971227938 $546 $722 forward 7 unknown #
coedge $-1 $383 $382 $716 $723 forward $149 $-1 #
edge $-1 $551 -3.7803863660538681 $721 3.7803863660538752 $544 $724 forward 7 unknown #
edge $-1 $725 -3.7803863660538752 $391 3.7803863660538681 $388 $726 forward 7 unknown #
vertex $-1 $549 $727 #
straight-curve $-1 -57.245399334696494 0 -6.073054971227938 0 -1 0 I I #
coedge $-1 $545 $544 $385 $554 reversed $236 $-1 #
edge $-1 $558 -6.073054971227938 $551 6.073054971227938 $553 $728 forward 7 unknown #
coedge $-1 $729 $386 $389 $561 forward $557 $-1 #
coedge $-1 $386 $729 $545 $719 forward $557 $-1 #
loop $-1 $-1 $386 $541 #
vertex $-1 $387 $730 #
straight-curve $-1 -57.245399334696494 0 6.073054971227938 0 1 0 I I #
coedge $-1 $389 $388 $543 $718 reversed $390 $-1 #
edge $-1 $392 -3.7803863660538681 $731 3.7803863660538752 $389 $732 forward 7 unknown #
point $-1 -57.245399334696494 -15.121058081965312 -6.073054971227938 #
point $-1 -57.245399334696494 -15.121058081965312 6.073054971227938 #
loop $-1 $-1 $402 $394 #
plane-surface $-1 0 -27.267168024421188 0 0 1 0 0 0 1 forward_v I I I I #
coedge $-1 $567 $397 $399 $571 reversed $244 $-1 #
coedge $-1 $397 $566 $733 $734 reversed $244 $-1 #
coedge $-1 $405 $400 $397 $569 forward $395 $-1 #
edge $-1 $572 -22.932893127957403 $735 -16.701856284513454 $568 $736 forward 7 unknown #
coedge $-1 $399 $398 $575 $737 reversed $153 $-1 #
edge $-1 $738 8.3790584163743152e-015 $572 7.3475041142235202 $566 $739 forward 7 unknown #
vertex $-1 $401 $740 #
straight-curve $-1 -18.898701451255434 -21.03613118097724 6.073054971227938 -1 0 0 I I #
coedge $-1 $733 $402 $405 $579 reversed $564 $-1 #
coedge $-1 $402 $733 $570 $737 forward $564 $-1 #
vertex $-1 $403 $741 #
straight-curve $-1 -25.910179202432978 -27.267168024421188 49.636587142043837 0 0 1 I I #
straight-curve $-1 -25.910179202432978 -27.267168024421196 2.1794709456577266 0 -0.84804809178421925 -0.52991927123019833 I I #
edge $-1 $735 -49.684626602588757 $406 -25.910179202432978 $574 $742 forward 7 unknown #
point $-1 -25.910179202432978 -27.267168024421188 6.073054971227938 #
point $-1 -25.910179202432978 -21.03613118097724 6.073054971227938 #
edge $-1 $743 1 $743 0 $409 $-1 forward 7 unknown #
vertex $-1 $410 $744 #
ellipse-curve $-1 -44.929737122557597 -23.273046459055941 2.7202040361610407 0 -0.52991927123019833 0.84804809178421925 0.5 0 0 1 I I #
point $-1 -44.429737122557597 -24.151649602699198 4.1262629584428234 #
edge $-1 $745 1 $745 0 $413 $-1 forward 7 unknown #
vertex $-1 $414 $746 #
ellipse-curve $-1 -37.797402902510868 -23.273046459055941 2.7202040361610407 0 -0.52991927123019833 0.84804809178421925 0.5 0 0 1 I I #
point $-1 -37.297402902510868 -24.151649602699198 4.1262629584428234 #
edge $-1 $747 1 $747 0 $417 $-1 forward 7 unknown #
vertex $-1 $418 $748 #
ellipse-curve $-1 -30.665068682464135 -23.273046459055941 2.7202040361610407 0 -0.52991927123019833 0.84804809178421925 0.5 0 0 1 I I #
point $-1 -30.165068682464135 -24.151649602699198 4.1262629584428234 #
plane-surface $-1 0 0 6.073054971227938 0 0 1 1 0 0 forward_v I I I I #
coedge $-1 $605 $604 $597 $749 forward $422 $-1 #
coedge $-1 $597 $424 $426 $601 reversed $273 $-1 #
coedge $-1 $424 $596 $595 $749 reversed $273 $-1 #
coedge $-1 $432 $427 $424 $599 forward $433 $-1 #
edge $-1 $602 -16.095579696346121 $750 -12.691939028574161 $598 $751 forward 7 unknown #
coedge $-1 $426 $425 $605 $752 reversed $172 $-1 #
edge $-1 $753 -54.534336048842427 $602 -49.239211082565483 $596 $754 forward 7 unknown #
vertex $-1 $428 $755 #
straight-curve $-1 -20.307813970258216 23.863527356649222 6.0730549712279434 1 0 0 I I #
coedge $-1 $595 $429 $432 $609 reversed $422 $-1 #
coedge $-1 $429 $595 $600 $752 forward $422 $-1 #
vertex $-1 $430 $756 #
straight-curve $-1 -47.271791173452996 27.267168024421188 58.692872544875001 0 0 1 I I #
straight-curve $-1 -47.271791173452996 -7.7868269516955735 43.792479412617254 0 0.64278759981090561 -0.7660444514056185 I I #
edge $-1 $750 33.959464707579869 $434 47.271791173452996 $604 $757 forward 7 unknown #
point $-1 -47.271791173452996 27.267168024421188 6.073054971227938 #
point $-1 -47.271791173452996 23.863527356649229 6.0730549712279398 #
edge $-1 $758 1 $758 0 $437 $-1 forward 7 unknown #
vertex $-1 $438 $759 #
ellipse-curve $-1 -43.468269326060664 22.533782941027454 1.5011196246673786 0 0.7660444514056185 0.64278759981090561 1 0 0 1 I I #
point $-1 -42.468269326060664 25.565347690535212 4.0449044212700445 #
edge $-1 $760 1 $760 0 $441 $-1 forward 7 unknown #
vertex $-1 $442 $761 #
ellipse-curve $-1 -37.762986554972187 22.533782941027454 1.5011196246673786 0 0.7660444514056185 0.64278759981090561 1 0 0 1 I I #
point $-1 -36.762986554972187 25.565347690535212 4.0449044212700445 #
loop $-1 $-1 $453 $445 #
plane-surface $-1 0 27.267168024421188 0 0 -1 0 0 0 -1 forward_v I I I I #
coedge $-1 $623 $448 $450 $627 reversed $295 $-1 #
coedge $-1 $448 $622 $762 $763 reversed $295 $-1 #
coedge $-1 $456 $451 $448 $625 forward $446 $-1 #
edge $-1 $628 -16.095579696346121 $764 -12.691939028574161 $624 $765 forward 7 unknown #
coedge $-1 $450 $449 $631 $766 reversed $186 $-1 #
edge $-1 $767 -54.534336048842427 $628 -49.239211082565483 $622 $768 forward 7 unknown #
vertex $-1 $452 $769 #
straight-curve $-1 -6.94156072809756 23.863527356649222 6.0730549712279434 1 0 0 I I #
coedge $-1 $762 $453 $456 $635 reversed $620 $-1 #
coedge $-1 $453 $762 $626 $766 forward $620 $-1 #
vertex $-1 $454 $770 #
straight-curve $-1 -20.53928468913168 27.267168024421188 58.692872544875001 0 0 1 I I #
straight-curve $-1 -20.53928468913168 -7.7868269516955735 43.792479412617254 0 0.64278759981090561 -0.7660444514056185 I I #
edge $-1 $764 7.2269582232585599 $457 20.53928468913168 $630 $771 forward 7 unknown #
point $-1 -20.53928468913168 27.267168024421188 6.073054971227938 #
point $-1 -20.53928468913168 23.863527356649229 6.0730549712279398 #
edge $-1 $772 1 $772 0 $460 $-1 forward 7 unknown #
vertex $-1 $461 $773 #
ellipse-curve $-1 -16.735762841739351 22.533782941027454 1.5011196246673786 0 0.7660444514056185 0.64278759981090561 1 0 0 1 I I #
point $-1 -15.735762841739351 25.565347690535212 4.0449044212700445 #
edge $-1 $774 1 $774 0 $464 $-1 forward 7 unknown #
vertex $-1 $465 $775 #
ellipse-curve $-1 -11.030480070650874 22.533782941027454 1.5011196246673786 0 0.7660444514056185 0.64278759981090561 1 0 0 1 I I #
point $-1 -10.030480070650874 25.565347690535212 4.0449044212700445 #
loop $-1 $-1 $476 $468 #
plane-surface $-1 0 27.267168024421188 0 0 -1 0 0 0 -1 forward_v I I I I #
coedge $-1 $649 $471 $473 $653 reversed $317 $-1 #
coedge $-1 $471 $648 $776 $777 reversed $317 $-1 #
coedge $-1 $479 $474 $471 $651 forward $469 $-1 #
edge $-1 $654 -16.095579696346121 $778 -12.691939028574161 $650 $779 forward 7 unknown #
coedge $-1 $473 $472 $657 $780 reversed $200 $-1 #
edge $-1 $781 -54.534336048842427 $654 -49.239211082565483 $648 $782 forward 7 unknown #
vertex $-1 $475 $783 #
straight-curve $-1 6.4246925140630928 23.863527356649222 6.0730549712279434 1 0 0 I I #
coedge $-1 $776 $476 $479 $661 reversed $646 $-1 #
coedge $-1 $476 $776 $652 $780 forward $646 $-1 #
vertex $-1 $477 $784 #
straight-curve $-1 6.1932217951896256 27.267168024421188 58.692872544875001 0 0 1 I I #
straight-curve $-1 6.1932217951896256 -7.7868269516955735 43.792479412617254 0 0.64278759981090561 -0.7660444514056185 I I #
edge $-1 $778 -19.505548261062746 $480 -6.1932217951896256 $656 $785 forward 7 unknown #
point $-1 6.1932217951896256 27.267168024421188 6.073054971227938 #
point $-1 6.1932217951896256 23.863527356649229 6.0730549712279398 #
edge $-1 $786 1 $786 0 $483 $-1 forward 7 unknown #
vertex $-1 $484 $787 #
ellipse-curve $-1 9.9967436425819685 22.533782941027454 1.5011196246673786 0 0.7660444514056185 0.64278759981090561 1 0 0 1 I I #
point $-1 10.996743642581968 25.565347690535212 4.0449044212700445 #
edge $-1 $788 1 $788 0 $487 $-1 forward 7 unknown #
vertex $-1 $488 $789 #
ellipse-curve $-1 15.702026413670431 22.533782941027454 1.5011196246673786 0 0.7660444514056185 0.64278759981090561 1 0 0 1 I I #
point $-1 16.702026413670431 25.565347690535212 4.0449044212700445 #
loop $-1 $-1 $499 $491 #
plane-surface $-1 0 27.267168024421188 0 0 -1 0 0 0 -1 forward_v I I I I #
coedge $-1 $675 $494 $496 $679 reversed $339 $-1 #
coedge $-1 $494 $674 $790 $791 reversed $339 $-1 #
coedge $-1 $502 $497 $494 $677 forward $492 $-1 #
edge $-1 $680 -16.095579696346121 $792 -12.691939028574161 $676 $793 forward 7 unknown #
coedge $-1 $496 $495 $683 $794 reversed $214 $-1 #
edge $-1 $795 -54.534336048842427 $680 -49.239211082565483 $674 $796 forward 7 unknown #
vertex $-1 $498 $797 #
straight-curve $-1 19.790945756223746 23.863527356649222 6.0730549712279434 1 0 0 I I #
coedge $-1 $790 $499 $502 $687 reversed $672 $-1 #
coedge $-1 $499 $790 $678 $794 forward $672 $-1 #
vertex $-1 $500 $798 #
straight-curve $-1 32.925728279510935 27.267168024421188 58.692872544875001 0 0 1 I I #
straight-curve $-1 32.925728279510935 -7.7868269516955735 43.792479412617254 0 0.64278759981090561 -0.7660444514056185 I I #
edge $-1 $792 -46.238054745384048 $503 -32.925728279510935 $682 $799 forward 7 unknown #
point $-1 32.925728279510935 27.267168024421188 6.073054971227938 #
point $-1 32.925728279510935 23.863527356649229 6.0730549712279398 #
edge $-1 $800 1 $800 0 $506 $-1 forward 7 unknown #
vertex $-1 $507 $801 #
ellipse-curve $-1 36.729250126903274 22.533782941027454 1.5011196246673786 0 0.7660444514056185 0.64278759981090561 1 0 0 1 I I #
point $-1 37.729250126903274 25.565347690535212 4.0449044212700445 #
edge $-1 $802 1 $802 0 $510 $-1 forward 7 unknown #
vertex $-1 $511 $803 #
ellipse-curve $-1 42.434532897991737 22.533782941027454 1.5011196246673786 0 0.7660444514056185 0.64278759981090561 1 0 0 1 I I #
point $-1 43.434532897991737 25.565347690535212 4.0449044212700445 #
plane-surface $-1 57.245399334696494 0 0 -1 0 0 0 0 1 forward_v I I I I #
coedge $-1 $534 $520 $525 $707 forward $515 $-1 #
vertex $-1 $518 $804 #
vertex $-1 $706 $805 #
straight-curve $-1 57.245399334696494 0 -6.073054971227938 0 -1 0 I I #
straight-curve $-1 0 27.267168024421188 6.073054971227938 -1 0 0 I I #
coedge $-1 $522 $531 $524 $706 reversed $361 $-1 #
straight-curve $-1 0 -27.267168024421188 6.073054971227938 1 0 0 I I #
edge $-1 $527 -6.073054971227938 $701 6.073054971227938 $524 $806 forward 7 unknown #
edge $-1 $528 -6.073054971227938 $700 6.073054971227938 $525 $807 forward 7 unknown #
point $-1 57.245399334696494 -27.267168024421188 6.073054971227938 #
point $-1 57.245399334696494 27.267168024421188 6.073054971227938 #
straight-curve $-1 -57.245399334696494 0 6.073054971227938 0 -1 0 I I #
point $-1 -57.245399334696494 -27.267168024421188 6.073054971227938 #
point $-1 -57.245399334696494 27.267168024421188 6.073054971227938 #
straight-curve $-1 0 27.267168024421188 -6.073054971227938 1 0 0 I I #
straight-curve $-1 0 -27.267168024421188 -6.073054971227938 -1 0 0 I I #
plane-surface $-1 0 0 6.073054971227938 0 0 1 1 0 0 forward_v I I I I #
coedge $-1 $546 $543 $548 $723 reversed $379 $-1 #
coedge $-1 $543 $546 $729 $808 reversed $379 $-1 #
edge $-1 $731 -6.073054971227938 $725 6.073054971227938 $560 $809 forward 7 unknown #
edge $-1 $720 -3.7803863660538752 $558 3.7803863660538681 $545 $810 forward 7 unknown #
vertex $-1 $808 $811 #
vertex $-1 $723 $812 #
straight-curve $-1 -64.806172066804237 -18.121058081965312 0 0 0 -1 I I #
edge $-1 $721 -1.5 $725 1.5 $716 $813 forward 7 unknown #
straight-curve $-1 -61.025785700750362 -18.121058081965312 -6.073054971227938 -1 0 0 I I #
vertex $-1 $550 $814 #
straight-curve $-1 -61.025785700750362 -15.121058081965312 -6.073054971227938 1 0 0 I I #
point $-1 -57.245399334696494 -18.121058081965312 -6.073054971227938 #
straight-curve $-1 -57.245399334696494 -18.121058081965312 0 0 0 -1 I I #
coedge $-1 $556 $555 $717 $808 forward $557 $-1 #
point $-1 -57.245399334696494 -18.121058081965312 6.073054971227938 #
vertex $-1 $561 $815 #
straight-curve $-1 -61.025785700750362 -15.121058081965312 6.073054971227938 -1 0 0 I I #
coedge $-1 $575 $574 $567 $734 forward $564 $-1 #
edge $-1 $735 43.563532170815897 $738 47.457116196386103 $733 $816 forward 7 unknown #
vertex $-1 $579 $817 #
straight-curve $-1 -49.684626602588757 -43.969024308934642 6.0730549712279398 0 -1 0 I I #
edge $-1 $738 -30.785925151333323 $576 -7.0114777511775443 $575 $818 forward 7 unknown #
vertex $-1 $737 $819 #
straight-curve $-1 -49.684626602588757 -27.267168024421196 2.1794709456577266 0 0.84804809178421925 0.52991927123019833 I I #
point $-1 -49.684626602588757 -21.03613118097724 6.073054971227938 #
point $-1 -25.910179202432978 -27.267168024421188 2.179470945657731 #
straight-curve $-1 0 -27.267168024421188 6.073054971227938 1 0 0 I I #
vertex $-1 $582 $820 #
point $-1 -44.429737122557597 -23.273046459055941 2.7202040361610407 #
vertex $-1 $586 $821 #
point $-1 -37.297402902510868 -23.273046459055941 2.7202040361610407 #
vertex $-1 $590 $822 #
point $-1 -30.165068682464135 -23.273046459055941 2.7202040361610407 #
edge $-1 $750 52.619817573647062 $753 56.676118673562875 $595 $823 forward 7 unknown #
vertex $-1 $609 $824 #
straight-curve $-1 -33.959464707579869 39.95910705299535 6.0730549712279398 0 1 0 I I #
edge $-1 $753 13.651650737321653 $606 26.96397720319478 $605 $825 forward 7 unknown #
vertex $-1 $752 $826 #
straight-curve $-1 -33.959464707579869 -7.7868269516955735 43.792479412617254 0 -0.64278759981090561 0.7660444514056185 I I #
point $-1 -33.959464707579869 23.863527356649229 6.0730549712279398 #
point $-1 -47.271791173452996 27.267168024421188 2.016753871312126 #
straight-curve $-1 0 27.267168024421188 6.073054971227938 -1 0 0 I I #
vertex $-1 $612 $827 #
point $-1 -42.468269326060664 22.533782941027454 1.5011196246673786 #
vertex $-1 $616 $828 #
point $-1 -36.762986554972187 22.533782941027454 1.5011196246673786 #
coedge $-1 $631 $630 $623 $763 forward $620 $-1 #
edge $-1 $764 52.619817573647062 $767 56.676118673562875 $762 $829 forward 7 unknown #
vertex $-1 $635 $830 #
straight-curve $-1 -7.2269582232585599 39.95910705299535 6.0730549712279398 0 1 0 I I #
edge $-1 $767 0.28539749516099988 $632 13.59772396103412 $631 $831 forward 7 unknown #
vertex $-1 $766 $832 #
straight-curve $-1 -7.2269582232585599 -7.7868269516955735 43.792479412617254 0 -0.64278759981090561 0.7660444514056185 I I #
point $-1 -7.2269582232585599 23.863527356649229 6.0730549712279398 #
point $-1 -20.53928468913168 27.267168024421188 2.016753871312126 #
straight-curve $-1 0 27.267168024421188 6.073054971227938 -1 0 0 I I #
vertex $-1 $638 $833 #
point $-1 -15.735762841739351 22.533782941027454 1.5011196246673786 #
vertex $-1 $642 $834 #
point $-1 -10.030480070650874 22.533782941027454 1.5011196246673786 #
coedge $-1 $657 $656 $649 $777 forward $646 $-1 #
edge $-1 $778 52.619817573647062 $781 56.676118673562875 $776 $835 forward 7 unknown #
vertex $-1 $661 $836 #
straight-curve $-1 19.505548261062746 39.95910705299535 6.0730549712279398 0 1 0 I I #
edge $-1 $781 -13.080855746999653 $658 0.23147071887346726 $657 $837 forward 7 unknown #
vertex $-1 $780 $838 #
straight-curve $-1 19.505548261062746 -7.7868269516955735 43.792479412617254 0 -0.64278759981090561 0.7660444514056185 I I #
point $-1 19.505548261062746 23.863527356649229 6.0730549712279398 #
point $-1 6.1932217951896256 27.267168024421188 2.016753871312126 #
straight-curve $-1 0 27.267168024421188 6.073054971227938 -1 0 0 I I #
vertex $-1 $664 $839 #
point $-1 10.996743642581968 22.533782941027454 1.5011196246673786 #
vertex $-1 $668 $840 #
point $-1 16.702026413670431 22.533782941027454 1.5011196246673786 #
coedge $-1 $683 $682 $675 $791 forward $672 $-1 #
edge $-1 $792 52.619817573647062 $795 56.676118673562875 $790 $841 forward 7 unknown #
vertex $-1 $687 $842 #
straight-curve $-1 46.238054745384048 39.95910705299535 6.0730549712279398 0 1 0 I I #
edge $-1 $795 -26.447108989160302 $684 -13.134782523287189 $683 $843 forward 7 unknown #
vertex $-1 $794 $844 #
straight-curve $-1 46.238054745384048 -7.7868269516955735 43.792479412617254 0 -0.64278759981090561 0.7660444514056185 I I #
point $-1 46.238054745384048 23.863527356649229 6.0730549712279398 #
point $-1 32.925728279510935 27.267168024421188 2.016753871312126 #
straight-curve $-1 0 27.267168024421188 6.073054971227938 -1 0 0 I I #
vertex $-1 $690 $845 #
point $-1 37.729250126903274 22.533782941027454 1.5011196246673786 #
vertex $-1 $694 $846 #
point $-1 43.434532897991737 22.533782941027454 1.5011196246673786 #
point $-1 57.245399334696494 27.267168024421188 -6.073054971227938 #
point $-1 57.245399334696494 -27.267168024421188 -6.073054971227938 #
straight-curve $-1 57.245399334696494 -27.267168024421188 0 0 0 -1 I I #
straight-curve $-1 57.245399334696494 27.267168024421188 0 0 0 -1 I I #
edge $-1 $731 -1.5 $720 1.5 $717 $847 forward 7 unknown #
straight-curve $-1 -64.806172066804237 -15.121058081965312 0 0 0 -1 I I #
straight-curve $-1 -61.025785700750362 -18.121058081965312 6.073054971227938 1 0 0 I I #
point $-1 -64.806172066804237 -18.121058081965312 6.073054971227938 #
point $-1 -64.806172066804237 -18.121058081965312 -6.073054971227938 #
straight-curve $-1 -64.806172066804237 -16.621058081965312 -6.073054971227938 0 1 0 I I #
point $-1 -64.806172066804237 -15.121058081965312 -6.073054971227938 #
point $-1 -64.806172066804237 -15.121058081965312 6.073054971227938 #
straight-curve $-1 -49.684626602588757 -27.267168024421188 49.636587142043837 0 0 -1 I I #
point $-1 -49.684626602588757 -27.267168024421188 6.073054971227938 #
straight-curve $-1 -18.898701451255434 -27.267168024421188 2.1794709456577301 1 0 0 I I #
point $-1 -49.684626602588757 -27.267168024421188 2.179470945657731 #
point $-1 -44.929737122557597 -23.008086823440841 2.2961799902689308 #
point $-1 -37.797402902510868 -23.008086823440841 2.2961799902689308 #
point $-1 -30.665068682464135 -23.008086823440841 2.2961799902689308 #
straight-curve $-1 -33.959464707579869 27.267168024421188 58.692872544875001 0 0 -1 I I #
point $-1 -33.959464707579869 27.267168024421188 6.073054971227938 #
straight-curve $-1 -20.307813970258216 27.267168024421181 2.0167538713121296 -1 0 0 I I #
point $-1 -33.959464707579869 27.267168024421188 2.016753871312126 #
point $-1 -43.468269326060664 21.767738489621834 0.85833202485647297 #
point $-1 -37.762986554972187 21.767738489621834 0.85833202485647297 #
straight-curve $-1 -7.2269582232585599 27.267168024421188 58.692872544875001 0 0 -1 I I #
point $-1 -7.2269582232585599 27.267168024421188 6.073054971227938 #
straight-curve $-1 -6.94156072809756 27.267168024421181 2.0167538713121296 -1 0 0 I I #
point $-1 -7.2269582232585599 27.267168024421188 2.016753871312126 #
point $-1 -16.735762841739351 21.767738489621834 0.85833202485647297 #
point $-1 -11.030480070650874 21.767738489621834 0.85833202485647297 #
straight-curve $-1 19.505548261062746 27.267168024421188 58.692872544875001 0 0 -1 I I #
point $-1 19.505548261062746 27.267168024421188 6.073054971227938 #
straight-curve $-1 6.4246925140630928 27.267168024421181 2.0167538713121296 -1 0 0 I I #
point $-1 19.505548261062746 27.267168024421188 2.016753871312126 #
point $-1 9.9967436425819685 21.767738489621834 0.85833202485647297 #
point $-1 15.702026413670431 21.767738489621834 0.85833202485647297 #
straight-curve $-1 46.238054745384048 27.267168024421188 58.692872544875001 0 0 -1 I I #
point $-1 46.238054745384048 27.267168024421188 6.073054971227938 #
straight-curve $-1 19.790945756223746 27.267168024421181 2.0167538713121296 -1 0 0 I I #
point $-1 46.238054745384048 27.267168024421188 2.016753871312126 #
point $-1 36.729250126903274 21.767738489621834 0.85833202485647297 #
point $-1 42.434532897991737 21.767738489621834 0.85833202485647297 #
straight-curve $-1 -64.806172066804237 -16.621058081965312 6.073054971227938 0 -1 0 I I #
End-of-ACIS-data 