500 0 10 0           
7 Unknown 11 ACIS 5.0 NT 24 Fri Mar 26 15:28:27 1999 
-1 9.9999999999999995e-007 1e-010 
body $-1 $10 $-1 $11 #
body $-1 $12 $-1 $13 #
body $-1 $14 $-1 $15 #
body $-1 $16 $-1 $17 #
body $-1 $18 $-1 $19 #
body $-1 $20 $-1 $21 #
body $-1 $22 $-1 $23 #
body $-1 $24 $-1 $25 #
body $-1 $26 $-1 $27 #
body $-1 $28 $-1 $29 #
lump $-1 $-1 $30 $0 #
transform $-1 1 0 0 0 1 0 0 0 1 60.689107943968011 24.454560009381002 8.5889859879745245 1 rotate no_reflect no_shear #
lump $-1 $-1 $31 $1 #
transform $-1 1 0 0 0 1 0 0 0 1 60.689107943968011 24.454560009381002 8.5889859879745245 1 rotate no_reflect no_shear #
lump $-1 $-1 $32 $2 #
transform $-1 1 0 0 0 1 0 0 0 1 60.689107943968011 24.454560009381002 8.5889859879745245 1 rotate no_reflect no_shear #
lump $-1 $-1 $33 $3 #
transform $-1 1 0 0 0 1 0 0 0 1 60.689107943968011 24.454560009381002 8.5889859879745245 1 rotate no_reflect no_shear #
lump $-1 $-1 $34 $4 #
transform $-1 1 0 0 0 1 0 0 0 1 60.689107943968011 24.454560009381002 8.5889859879745245 1 rotate no_reflect no_shear #
lump $-1 $-1 $35 $5 #
transform $-1 1 0 0 0 1 0 0 0 1 60.689107943968011 24.454560009381002 8.5889859879745245 1 rotate no_reflect no_shear #
lump $-1 $-1 $36 $6 #
transform $-1 1 0 0 0 1 0 0 0 1 60.689107943968011 24.454560009381002 8.5889859879745245 1 rotate no_reflect no_shear #
lump $-1 $-1 $37 $7 #
transform $-1 1 0 0 0 1 0 0 0 1 60.689107943968011 24.454560009381002 8.5889859879745245 1 rotate no_reflect no_shear #
lump $-1 $-1 $38 $8 #
transform $-1 1 0 0 0 1 0 0 0 1 60.689107943968011 24.454560009381002 8.5889859879745245 1 rotate no_reflect no_shear #
lump $-1 $-1 $39 $9 #
transform $-1 1 0 0 0 1 0 0 0 1 60.689107943968011 24.454560009381002 8.5889859879745245 1 rotate no_reflect no_shear #
shell $-1 $-1 $-1 $40 $-1 $10 #
shell $-1 $-1 $-1 $41 $-1 $12 #
shell $-1 $-1 $-1 $42 $-1 $14 #
shell $-1 $-1 $-1 $43 $-1 $16 #
shell $-1 $-1 $-1 $44 $-1 $18 #
shell $-1 $-1 $-1 $45 $-1 $20 #
shell $-1 $-1 $-1 $46 $-1 $22 #
shell $-1 $-1 $-1 $47 $-1 $24 #
shell $-1 $-1 $-1 $48 $-1 $26 #
shell $-1 $-1 $-1 $49 $-1 $28 #
face $-1 $50 $51 $30 $-1 $52 forward single #
face $-1 $53 $54 $31 $-1 $55 forward single #
face $-1 $56 $57 $32 $-1 $58 reversed single #
face $-1 $59 $60 $33 $-1 $61 forward single #
face $-1 $62 $63 $34 $-1 $64 forward single #
face $-1 $65 $66 $35 $-1 $67 forward single #
face $-1 $68 $69 $36 $-1 $70 reversed single #
face $-1 $71 $72 $37 $-1 $73 forward single #
face $-1 $74 $75 $38 $-1 $76 forward single #
face $-1 $77 $78 $39 $-1 $79 forward single #
face $-1 $80 $81 $30 $-1 $82 reversed single #
loop $-1 $-1 $83 $40 #
plane-surface $-1 0 0 8.5889859879745245 0 0 1 1 0 0 forward_v I I I I #
face $-1 $84 $85 $31 $-1 $86 reversed single #
loop $-1 $-1 $87 $41 #
plane-surface $-1 0 -24.454560009381002 0 0 1 0 0 0 1 forward_v I I I I #
face $-1 $88 $89 $32 $-1 $90 reversed single #
loop $-1 $-1 $91 $42 #
plane-surface $-1 -130.30879336087003 18.139694271932331 103.79135366216677 0 1 0 -0.57357644374324357 0 0.81915203911291934 forward_v I I I I #
face $-1 $92 $93 $33 $-1 $94 forward single #
loop $-1 $95 $96 $43 #
cone-surface $-1 -57.293401570157471 19.402667419422063 5.935503466768937 0.57357644374324357 0 -0.81915203911291934 0.40957601955645967 0 0.28678822187162178 1 I I 0 1 0.5 forward I I I I #
face $-1 $97 $98 $34 $-1 $99 forward single #
loop $-1 $100 $101 $44 #
cone-surface $-1 -57.293401570157471 21.297127140656666 5.935503466768937 0.57357644374324357 0 -0.81915203911291934 0.40957601955645967 0 0.28678822187162178 1 I I 0 1 0.5 forward I I I I #
face $-1 $102 $103 $35 $-1 $104 forward single #
loop $-1 $105 $106 $45 #
cone-surface $-1 -57.293401570157471 23.19158686189127 5.935503466768937 0.57357644374324357 0 -0.81915203911291934 0.40957601955645967 0 0.28678822187162178 1 I I 0 1 0.5 forward I I I I #
face $-1 $107 $108 $36 $-1 $109 reversed single #
loop $-1 $-1 $110 $46 #
plane-surface $-1 25.000086490696106 20.306627982742214 168.35719097220993 0 -1 0 -0.54463904215088732 0 -0.83867056331134215 forward_v I I I I #
face $-1 $111 $112 $37 $-1 $113 forward single #
loop $-1 $114 $115 $47 #
cone-surface $-1 53.670702288761326 10.433445794322513 3.3591866376003159 -0.54463904215088732 0 -0.83867056331134215 0.83867056331134215 0 -0.54463904215088732 1 I I 0 1 1 forward I I I I #
face $-1 $116 $117 $38 $-1 $118 forward single #
loop $-1 $119 $120 $48 #
cone-surface $-1 53.670702288761326 14.1358891149799 3.3591866376003159 -0.54463904215088732 0 -0.83867056331134215 0.83867056331134215 0 -0.54463904215088732 1 I I 0 1 1 forward I I I I #
face $-1 $121 $122 $39 $-1 $123 forward single #
loop $-1 $124 $125 $49 #
cone-surface $-1 53.670702288761326 17.838332435637287 3.3591866376003159 -0.54463904215088732 0 -0.83867056331134215 0.83867056331134215 0 -0.54463904215088732 1 I I 0 1 1 forward I I I I #
face $-1 $126 $127 $30 $-1 $128 reversed single #
loop $-1 $-1 $129 $50 #
plane-surface $-1 0 0 -8.5889859879745245 0 0 1 1 0 0 forward_v I I I I #
coedge $-1 $130 $131 $132 $133 forward $51 $-1 #
face $-1 $134 $135 $31 $-1 $136 reversed single #
loop $-1 $-1 $137 $53 #
plane-surface $-1 0 0 -8.5889859879745245 0 0 1 1 0 0 forward_v I I I I #
coedge $-1 $138 $139 $140 $141 forward $54 $-1 #
face $-1 $142 $143 $32 $-1 $144 reversed single #
loop $-1 $-1 $145 $56 #
plane-surface $-1 -60.689107943968011 21.297127140656666 4.3641406136758292 -0.57357644374324357 0 0.81915203911291934 0.81915203911291934 0 0.57357644374324357 forward_v I I I I #
coedge $-1 $146 $147 $148 $149 reversed $57 $-1 #
face $-1 $-1 $150 $33 $-1 $151 forward single #
loop $-1 $152 $153 $59 #
cone-surface $-1 -56.77115327751644 19.402667419422063 5.189655622934465 0.57357644374324357 0 -0.81915203911291934 0.20478800977822983 0 0.14339411093581089 1 I I -0.70710678118654746 0.70710678118654746 0.25 forward I I I I #
loop $-1 $-1 $154 $43 #
coedge $-1 $96 $96 $155 $156 reversed $60 $-1 #
face $-1 $-1 $157 $34 $-1 $158 forward single #
loop $-1 $159 $160 $62 #
cone-surface $-1 -56.77115327751644 21.297127140656666 5.189655622934465 0.57357644374324357 0 -0.81915203911291934 0.20478800977822983 0 0.14339411093581089 1 I I -0.70710678118654746 0.70710678118654746 0.25 forward I I I I #
loop $-1 $-1 $161 $44 #
coedge $-1 $101 $101 $162 $163 reversed $63 $-1 #
face $-1 $-1 $164 $35 $-1 $165 forward single #
loop $-1 $166 $167 $65 #
cone-surface $-1 -56.77115327751644 23.19158686189127 5.189655622934465 0.57357644374324357 0 -0.81915203911291934 0.20478800977822983 0 0.14339411093581089 1 I I -0.70710678118654746 0.70710678118654746 0.25 forward I I I I #
loop $-1 $-1 $168 $45 #
coedge $-1 $106 $106 $169 $170 reversed $66 $-1 #
face $-1 $171 $172 $36 $-1 $173 reversed single #
loop $-1 $-1 $174 $68 #
plane-surface $-1 -41.107228748492986 14.1358891149799 66.560854279748938 0.54463904215088732 0 0.83867056331134215 0.83867056331134215 0 -0.54463904215088732 forward_v I I I I #
coedge $-1 $175 $176 $177 $178 reversed $69 $-1 #
face $-1 $-1 $179 $37 $-1 $180 forward single #
loop $-1 $181 $182 $71 #
cone-surface $-1 52.643721855449314 10.433445794322513 1.7777754792777785 -0.54463904215088732 0 -0.83867056331134215 0.41933528165567108 0 -0.27231952107544366 1 I I -0.70710678118654746 0.70710678118654746 0.5 forward I I I I #
loop $-1 $-1 $183 $47 #
coedge $-1 $115 $115 $184 $185 reversed $72 $-1 #
face $-1 $-1 $186 $38 $-1 $187 forward single #
loop $-1 $188 $189 $74 #
cone-surface $-1 52.643721855449314 14.1358891149799 1.7777754792777785 -0.54463904215088732 0 -0.83867056331134215 0.41933528165567108 0 -0.27231952107544366 1 I I -0.70710678118654746 0.70710678118654746 0.5 forward I I I I #
loop $-1 $-1 $190 $48 #
coedge $-1 $120 $120 $191 $192 reversed $75 $-1 #
face $-1 $-1 $193 $39 $-1 $194 forward single #
loop $-1 $195 $196 $77 #
cone-surface $-1 52.643721855449314 17.838332435637287 1.7777754792777785 -0.54463904215088732 0 -0.83867056331134215 0.41933528165567108 0 -0.27231952107544366 1 I I -0.70710678118654746 0.70710678118654746 0.5 forward I I I I #
loop $-1 $-1 $197 $49 #
coedge $-1 $125 $125 $198 $199 reversed $78 $-1 #
face $-1 $200 $201 $30 $-1 $202 reversed single #
loop $-1 $-1 $203 $80 #
plane-surface $-1 0 -24.454560009381002 0 0 1 0 0 0 1 forward_v I I I I #
coedge $-1 $204 $205 $206 $207 forward $81 $-1 #
coedge $-1 $208 $83 $209 $210 forward $51 $-1 #
coedge $-1 $83 $208 $211 $212 forward $51 $-1 #
coedge $-1 $213 $214 $83 $133 reversed $215 $-1 #
edge $-1 $216 -24.454560009381002 $217 24.454560009381002 $132 $218 forward 7 unknown #
face $-1 $219 $220 $31 $-1 $221 reversed single #
loop $-1 $-1 $222 $84 #
plane-surface $-1 -45.011135968018962 -31.032066134245721 0 0 1 0 0 0 1 forward_v I I I I #
coedge $-1 $223 $224 $139 $225 forward $85 $-1 #
coedge $-1 $226 $87 $227 $228 reversed $54 $-1 #
coedge $-1 $87 $226 $137 $225 reversed $54 $-1 #
coedge $-1 $229 $230 $87 $141 reversed $220 $-1 #
edge $-1 $231 -8.5889859879745245 $232 8.5889859879745245 $140 $233 forward 7 unknown #
face $-1 $234 $235 $32 $-1 $236 forward single #
loop $-1 $-1 $237 $88 #
plane-surface $-1 -60.689107943968011 0 0 1 0 0 0 0 -1 forward_v I I I I #
coedge $-1 $238 $239 $240 $241 reversed $89 $-1 #
coedge $-1 $147 $91 $242 $243 reversed $57 $-1 #
coedge $-1 $91 $146 $238 $244 reversed $57 $-1 #
coedge $-1 $240 $245 $91 $149 forward $235 $-1 #
edge $-1 $246 4.4652887364670022 $247 10.498993120677653 $148 $248 forward 7 unknown #
loop $-1 $-1 $155 $92 #
plane-surface $-1 -60.689107943968011 21.297127140656666 4.3641406136758292 -0.57357644374324357 0 0.81915203911291934 0.81915203911291934 0 0.57357644374324357 forward_v I I I I #
loop $-1 $-1 $249 $59 #
coedge $-1 $153 $153 $154 $250 reversed $93 $-1 #
coedge $-1 $154 $154 $153 $250 forward $95 $-1 #
coedge $-1 $155 $155 $96 $156 forward $150 $-1 #
edge $-1 $251 0 $251 6.2831853071796004 $155 $252 forward 7 unknown #
loop $-1 $-1 $162 $97 #
plane-surface $-1 -60.689107943968011 21.297127140656666 4.3641406136758292 -0.57357644374324357 0 0.81915203911291934 0.81915203911291934 0 0.57357644374324357 forward_v I I I I #
loop $-1 $-1 $253 $62 #
coedge $-1 $160 $160 $161 $254 reversed $98 $-1 #
coedge $-1 $161 $161 $160 $254 forward $100 $-1 #
coedge $-1 $162 $162 $101 $163 forward $157 $-1 #
edge $-1 $255 0 $255 6.2831853071796004 $162 $256 forward 7 unknown #
loop $-1 $-1 $169 $102 #
plane-surface $-1 -60.689107943968011 21.297127140656666 4.3641406136758292 -0.57357644374324357 0 0.81915203911291934 0.81915203911291934 0 0.57357644374324357 forward_v I I I I #
loop $-1 $-1 $257 $65 #
coedge $-1 $167 $167 $168 $258 reversed $103 $-1 #
coedge $-1 $168 $168 $167 $258 forward $105 $-1 #
coedge $-1 $169 $169 $106 $170 forward $164 $-1 #
edge $-1 $259 0 $259 6.2831853071796004 $169 $260 forward 7 unknown #
face $-1 $261 $262 $36 $-1 $263 forward single #
loop $-1 $-1 $264 $107 #
plane-surface $-1 25.000086490696106 7.9651502472175864 168.35719097220993 0 1 0 0.54463904215088732 0 0.83867056331134215 forward_v I I I I #
coedge $-1 $265 $266 $267 $268 reversed $108 $-1 #
coedge $-1 $176 $110 $269 $270 reversed $69 $-1 #
coedge $-1 $110 $175 $265 $271 reversed $69 $-1 #
coedge $-1 $267 $272 $110 $178 forward $262 $-1 #
edge $-1 $273 -48.189064698619958 $274 -35.661575212679722 $177 $275 forward 7 unknown #
loop $-1 $-1 $184 $111 #
plane-surface $-1 -41.107228748492986 14.1358891149799 66.560854279748938 0.54463904215088732 0 0.83867056331134215 0.83867056331134215 0 -0.54463904215088732 forward_v I I I I #
loop $-1 $-1 $276 $71 #
coedge $-1 $182 $182 $183 $277 reversed $112 $-1 #
coedge $-1 $183 $183 $182 $277 forward $114 $-1 #
coedge $-1 $184 $184 $115 $185 forward $179 $-1 #
edge $-1 $278 0 $278 6.2831853071796004 $184 $279 forward 7 unknown #
loop $-1 $-1 $191 $116 #
plane-surface $-1 -41.107228748492986 14.1358891149799 66.560854279748938 0.54463904215088732 0 0.83867056331134215 0.83867056331134215 0 -0.54463904215088732 forward_v I I I I #
loop $-1 $-1 $280 $74 #
coedge $-1 $189 $189 $190 $281 reversed $117 $-1 #
coedge $-1 $190 $190 $189 $281 forward $119 $-1 #
coedge $-1 $191 $191 $120 $192 forward $186 $-1 #
edge $-1 $282 0 $282 6.2831853071796004 $191 $283 forward 7 unknown #
loop $-1 $-1 $198 $121 #
plane-surface $-1 -41.107228748492986 14.1358891149799 66.560854279748938 0.54463904215088732 0 0.83867056331134215 0.83867056331134215 0 -0.54463904215088732 forward_v I I I I #
loop $-1 $-1 $284 $77 #
coedge $-1 $196 $196 $197 $285 reversed $122 $-1 #
coedge $-1 $197 $197 $196 $285 forward $124 $-1 #
coedge $-1 $198 $198 $125 $199 forward $193 $-1 #
edge $-1 $286 0 $286 6.2831853071796004 $198 $287 forward 7 unknown #
face $-1 $288 $289 $30 $-1 $290 reversed single #
loop $-1 $-1 $291 $126 #
plane-surface $-1 -60.689107943968011 0 0 1 0 0 0 0 -1 forward_v I I I I #
coedge $-1 $292 $211 $293 $294 forward $127 $-1 #
coedge $-1 $295 $129 $292 $296 forward $81 $-1 #
coedge $-1 $129 $295 $297 $298 forward $81 $-1 #
coedge $-1 $214 $213 $129 $207 reversed $215 $-1 #
edge $-1 $299 -24.454560009381002 $300 24.454560009381002 $206 $301 forward 7 unknown #
coedge $-1 $131 $130 $302 $303 forward $51 $-1 #
coedge $-1 $304 $305 $130 $210 reversed $289 $-1 #
edge $-1 $217 -60.689107943968011 $306 60.689107943968011 $209 $307 forward 7 unknown #
coedge $-1 $203 $308 $131 $212 reversed $127 $-1 #
edge $-1 $309 -60.689107943968011 $216 60.689107943968011 $211 $310 forward 7 unknown #
coedge $-1 $206 $132 $308 $311 forward $215 $-1 #
coedge $-1 $132 $206 $304 $312 reversed $215 $-1 #
loop $-1 $-1 $213 $288 #
vertex $-1 $133 $313 #
vertex $-1 $133 $314 #
straight-curve $-1 60.689107943968011 0 8.5889859879745245 0 1 0 I I #
face $-1 $315 $316 $31 $-1 $317 reversed single #
loop $-1 $-1 $140 $134 #
plane-surface $-1 -46.511135968018962 -27.743313071813361 0 1 0 0 0 0 -1 forward_v I I I I #
coedge $-1 $318 $319 $320 $321 forward $135 $-1 #
coedge $-1 $322 $137 $323 $324 forward $85 $-1 #
coedge $-1 $137 $322 $229 $325 forward $85 $-1 #
edge $-1 $231 -46.511135968018962 $326 -43.511135968018962 $137 $327 forward 7 unknown #
coedge $-1 $139 $138 $328 $329 forward $54 $-1 #
coedge $-1 $330 $331 $138 $228 forward $332 $-1 #
edge $-1 $333 43.511135968018962 $232 46.511135968018962 $227 $334 forward 7 unknown #
coedge $-1 $320 $140 $224 $325 reversed $220 $-1 #
coedge $-1 $140 $320 $330 $335 reversed $220 $-1 #
vertex $-1 $225 $336 #
vertex $-1 $335 $337 #
straight-curve $-1 -46.511135968018962 -24.454560009381002 0 0 0 1 I I #
face $-1 $-1 $338 $32 $-1 $339 reversed single #
loop $-1 $-1 $240 $142 #
plane-surface $-1 0 0 8.5889859879745245 0 0 1 1 0 0 forward_v I I I I #
coedge $-1 $242 $340 $341 $342 forward $143 $-1 #
coedge $-1 $341 $145 $147 $244 forward $89 $-1 #
coedge $-1 $145 $341 $343 $344 reversed $89 $-1 #
coedge $-1 $345 $148 $145 $241 forward $235 $-1 #
edge $-1 $247 7.4911307016039981 $346 13.805996439052668 $240 $347 forward 7 unknown #
coedge $-1 $348 $237 $146 $243 forward $143 $-1 #
edge $-1 $349 -47.531536217407556 $246 -43.306690843108861 $242 $350 forward 7 unknown #
edge $-1 $247 -7.365793034886055 $349 0 $147 $351 forward 7 unknown #
coedge $-1 $148 $345 $348 $352 forward $235 $-1 #
vertex $-1 $243 $353 #
vertex $-1 $149 $354 #
straight-curve $-1 -65.154396680435013 18.139694271932331 8.5889859879745245 1 0 0 I I #
coedge $-1 $249 $249 $-1 $355 reversed $152 $-1 #
edge $-1 $356 0 $356 6.2831853071796004 $153 $357 forward 7 unknown #
vertex $-1 $156 $358 #
ellipse-curve $-1 -57.672255751862693 19.402667419422063 6.4765633008251751 -0.57357644374324357 0 0.81915203911291934 0.40957601955645967 0 0.28678822187162178 1 I I #
coedge $-1 $253 $253 $-1 $359 reversed $159 $-1 #
edge $-1 $360 0 $360 6.2831853071796004 $160 $361 forward 7 unknown #
vertex $-1 $163 $362 #
ellipse-curve $-1 -57.672255751862693 21.297127140656666 6.4765633008251751 -0.57357644374324357 0 0.81915203911291934 0.40957601955645967 0 0.28678822187162178 1 I I #
coedge $-1 $257 $257 $-1 $363 reversed $166 $-1 #
edge $-1 $364 0 $364 6.2831853071796004 $167 $365 forward 7 unknown #
vertex $-1 $170 $366 #
ellipse-curve $-1 -57.672255751862693 23.19158686189127 6.4765633008251751 -0.57357644374324357 0 0.81915203911291934 0.40957601955645967 0 0.28678822187162178 1 I I #
face $-1 $-1 $367 $36 $-1 $368 reversed single #
loop $-1 $-1 $177 $171 #
plane-surface $-1 0 0 8.5889859879745245 0 0 1 1 0 0 forward_v I I I I #
coedge $-1 $369 $370 $371 $372 reversed $172 $-1 #
coedge $-1 $373 $174 $176 $271 forward $108 $-1 #
coedge $-1 $174 $373 $369 $374 forward $108 $-1 #
coedge $-1 $371 $177 $174 $268 forward $262 $-1 #
edge $-1 $274 -13.238683425252264 $375 -0.89720568972763637 $267 $376 forward 7 unknown #
coedge $-1 $377 $378 $175 $270 forward $367 $-1 #
edge $-1 $379 -83.725056445545107 $273 -75.589609498130443 $269 $380 forward 7 unknown #
edge $-1 $274 106.44089719097632 $379 121.37821588793601 $176 $381 forward 7 unknown #
coedge $-1 $177 $371 $377 $382 forward $262 $-1 #
vertex $-1 $178 $383 #
vertex $-1 $178 $384 #
straight-curve $-1 12.500043245348053 20.306627982742214 8.5889859879745245 -1 0 0 I I #
coedge $-1 $276 $276 $-1 $385 reversed $181 $-1 #
edge $-1 $386 0 $386 6.2831853071796004 $182 $387 forward 7 unknown #
vertex $-1 $185 $388 #
ellipse-curve $-1 54.4253632009979 10.433445794322513 4.5212625142671854 0.54463904215088732 0 0.83867056331134215 0.83867056331134215 0 -0.54463904215088732 1 I I #
coedge $-1 $280 $280 $-1 $389 reversed $188 $-1 #
edge $-1 $390 0 $390 6.2831853071796004 $189 $391 forward 7 unknown #
vertex $-1 $192 $392 #
ellipse-curve $-1 54.4253632009979 14.1358891149799 4.5212625142671854 0.54463904215088732 0 0.83867056331134215 0.83867056331134215 0 -0.54463904215088732 1 I I #
coedge $-1 $284 $284 $-1 $393 reversed $195 $-1 #
edge $-1 $394 0 $394 6.2831853071796004 $196 $395 forward 7 unknown #
vertex $-1 $199 $396 #
ellipse-curve $-1 54.4253632009979 17.838332435637287 4.5212625142671854 0.54463904215088732 0 0.83867056331134215 0.83867056331134215 0 -0.54463904215088732 1 I I #
face $-1 $-1 $215 $30 $-1 $397 reversed single #
loop $-1 $-1 $304 $200 #
plane-surface $-1 0 24.454560009381002 0 0 -1 0 0 0 -1 forward_v I I I I #
coedge $-1 $398 $302 $305 $399 forward $201 $-1 #
coedge $-1 $308 $203 $204 $296 reversed $127 $-1 #
coedge $-1 $302 $398 $203 $294 reversed $201 $-1 #
edge $-1 $309 -8.5889859879745245 $400 8.5889859879745245 $293 $401 forward 7 unknown #
coedge $-1 $205 $204 $398 $402 forward $81 $-1 #
edge $-1 $300 -60.689107943968011 $400 60.689107943968011 $292 $403 forward 7 unknown #
coedge $-1 $305 $304 $205 $298 reversed $289 $-1 #
edge $-1 $404 -60.689107943968011 $299 60.689107943968011 $297 $405 forward 7 unknown #
vertex $-1 $207 $406 #
vertex $-1 $311 $407 #
straight-curve $-1 60.689107943968011 0 -8.5889859879745245 0 -1 0 I I #
coedge $-1 $291 $293 $208 $303 reversed $201 $-1 #
edge $-1 $306 -24.454560009381002 $309 24.454560009381002 $302 $408 forward 7 unknown #
coedge $-1 $297 $209 $214 $312 forward $289 $-1 #
coedge $-1 $209 $297 $291 $399 reversed $289 $-1 #
vertex $-1 $210 $409 #
straight-curve $-1 0 24.454560009381002 8.5889859879745245 -1 0 0 I I #
coedge $-1 $211 $292 $213 $311 reversed $127 $-1 #
vertex $-1 $303 $410 #
straight-curve $-1 0 -24.454560009381002 8.5889859879745245 1 0 0 I I #
edge $-1 $216 -8.5889859879745245 $300 8.5889859879745245 $213 $411 forward 7 unknown #
edge $-1 $217 -8.5889859879745245 $299 8.5889859879745245 $214 $412 forward 7 unknown #
point $-1 60.689107943968011 -24.454560009381002 8.5889859879745245 #
point $-1 60.689107943968011 24.454560009381002 8.5889859879745245 #
face $-1 $-1 $332 $31 $-1 $413 forward single #
loop $-1 $-1 $414 $219 #
plane-surface $-1 -43.511135968018962 -27.743313071813361 0 -1 0 0 0 0 1 forward_v I I I I #
coedge $-1 $415 $222 $322 $416 reversed $135 $-1 #
coedge $-1 $222 $415 $417 $418 reversed $135 $-1 #
coedge $-1 $230 $229 $222 $321 reversed $220 $-1 #
edge $-1 $419 -8.5889859879745245 $420 8.5889859879745245 $320 $421 forward 7 unknown #
coedge $-1 $224 $223 $318 $416 forward $85 $-1 #
coedge $-1 $328 $414 $223 $324 reversed $316 $-1 #
edge $-1 $326 -3.2887530624323595 $422 3.2887530624323595 $323 $423 forward 7 unknown #
edge $-1 $420 -3.2887530624323595 $231 3.2887530624323595 $229 $424 forward 7 unknown #
vertex $-1 $324 $425 #
straight-curve $-1 0 -24.454560009381002 -8.5889859879745245 1 0 0 I I #
coedge $-1 $426 $323 $226 $329 reversed $316 $-1 #
edge $-1 $333 -8.5889859879745245 $326 8.5889859879745245 $328 $427 forward 7 unknown #
coedge $-1 $417 $227 $230 $335 forward $332 $-1 #
coedge $-1 $227 $417 $426 $428 forward $332 $-1 #
loop $-1 $-1 $227 $315 #
vertex $-1 $228 $429 #
straight-curve $-1 0 -24.454560009381002 8.5889859879745245 -1 0 0 I I #
edge $-1 $232 -3.2887530624323595 $419 3.2887530624323595 $230 $430 forward 7 unknown #
point $-1 -46.511135968018962 -24.454560009381002 -8.5889859879745245 #
point $-1 -46.511135968018962 -24.454560009381002 8.5889859879745245 #
loop $-1 $-1 $343 $234 #
plane-surface $-1 0 24.454560009381002 0 0 -1 0 0 0 -1 forward_v I I I I #
coedge $-1 $237 $348 $431 $432 forward $143 $-1 #
coedge $-1 $239 $238 $237 $342 reversed $89 $-1 #
edge $-1 $433 -13.805996439052668 $349 -7.4911307016039981 $237 $434 forward 7 unknown #
coedge $-1 $431 $435 $239 $344 forward $338 $-1 #
edge $-1 $346 16.239426100642863 $433 23.605219135528916 $343 $436 forward 7 unknown #
coedge $-1 $245 $240 $435 $437 forward $235 $-1 #
vertex $-1 $437 $438 #
straight-curve $-1 -54.65540355975736 10.648563570328333 8.5889859879745263 0 1 0 I I #
coedge $-1 $340 $242 $245 $352 reversed $143 $-1 #
vertex $-1 $243 $439 #
straight-curve $-1 -60.689107943968011 18.139694271932331 51.895676831083385 0 0 1 I I #
straight-curve $-1 -60.689107943968011 18.139694271932331 4.3641406136758292 -0.81915203911291934 0 -0.57357644374324357 I I #
edge $-1 $440 -24.454560009381002 $246 -18.139694271932331 $348 $441 forward 7 unknown #
point $-1 -60.689107943968011 18.139694271932331 8.5889859879745245 #
point $-1 -54.65540355975736 18.139694271932331 8.5889859879745245 #
edge $-1 $442 1 $442 0 $249 $-1 forward 7 unknown #
vertex $-1 $250 $443 #
ellipse-curve $-1 -56.914547388452249 19.402667419422063 5.3944436327126946 -0.57357644374324357 0 0.81915203911291934 0.40957601955645967 0 0.28678822187162178 1 I I #
point $-1 -57.262679732306232 19.402667419422063 6.7633515226968015 #
edge $-1 $444 1 $444 0 $253 $-1 forward 7 unknown #
vertex $-1 $254 $445 #
ellipse-curve $-1 -56.914547388452249 21.297127140656666 5.3944436327126946 -0.57357644374324357 0 0.81915203911291934 0.40957601955645967 0 0.28678822187162178 1 I I #
point $-1 -57.262679732306232 21.297127140656666 6.7633515226968015 #
edge $-1 $446 1 $446 0 $257 $-1 forward 7 unknown #
vertex $-1 $258 $447 #
ellipse-curve $-1 -56.914547388452249 23.19158686189127 5.3944436327126946 -0.57357644374324357 0 0.81915203911291934 0.40957601955645967 0 0.28678822187162178 1 I I #
point $-1 -57.262679732306232 23.19158686189127 6.7633515226968015 #
loop $-1 $-1 $269 $261 #
plane-surface $-1 60.689107943968011 0 0 -1 0 0 0 0 1 forward_v I I I I #
coedge $-1 $370 $264 $266 $374 reversed $172 $-1 #
coedge $-1 $264 $369 $448 $449 reversed $172 $-1 #
coedge $-1 $272 $267 $264 $372 forward $262 $-1 #
edge $-1 $375 35.661575212679722 $450 48.189064698619958 $371 $451 forward 7 unknown #
coedge $-1 $266 $265 $378 $452 reversed $108 $-1 #
edge $-1 $453 -121.37821588793601 $375 -106.44089719097632 $369 $454 forward 7 unknown #
vertex $-1 $268 $455 #
straight-curve $-1 48.161618458027775 7.06794455748995 8.5889859879745245 0 -1 0 I I #
coedge $-1 $448 $269 $272 $382 reversed $367 $-1 #
coedge $-1 $269 $448 $373 $452 forward $367 $-1 #
vertex $-1 $270 $456 #
straight-curve $-1 60.689107943968011 20.306627982742214 84.178595486104967 0 0 1 I I #
straight-curve $-1 -41.107228748492986 20.306627982742214 66.560854279748938 0.83867056331134215 0 -0.54463904215088732 I I #
edge $-1 $450 7.9651502472175864 $273 20.306627982742214 $377 $457 forward 7 unknown #
point $-1 60.689107943968011 20.306627982742214 8.5889859879745245 #
point $-1 48.161618458027775 20.306627982742214 8.5889859879745245 #
edge $-1 $458 1 $458 0 $276 $-1 forward 7 unknown #
vertex $-1 $277 $459 #
ellipse-curve $-1 52.91604137652476 10.433445794322513 2.1971107609334495 0.54463904215088732 0 0.83867056331134215 0.83867056331134215 0 -0.54463904215088732 1 I I #
point $-1 55.264033764309239 10.433445794322513 3.9766234721162945 #
edge $-1 $460 1 $460 0 $280 $-1 forward 7 unknown #
vertex $-1 $281 $461 #
ellipse-curve $-1 52.91604137652476 14.1358891149799 2.1971107609334495 0.54463904215088732 0 0.83867056331134215 0.83867056331134215 0 -0.54463904215088732 1 I I #
point $-1 55.264033764309239 14.1358891149799 3.9766234721162945 #
edge $-1 $462 1 $462 0 $284 $-1 forward 7 unknown #
vertex $-1 $285 $463 #
ellipse-curve $-1 52.91604137652476 17.838332435637287 2.1971107609334495 0.54463904215088732 0 0.83867056331134215 0.83867056331134215 0 -0.54463904215088732 1 I I #
point $-1 55.264033764309239 17.838332435637287 3.9766234721162945 #
plane-surface $-1 60.689107943968011 0 0 -1 0 0 0 0 1 forward_v I I I I #
coedge $-1 $293 $291 $295 $402 reversed $201 $-1 #
edge $-1 $306 -8.5889859879745245 $404 8.5889859879745245 $305 $464 forward 7 unknown #
vertex $-1 $402 $465 #
straight-curve $-1 -60.689107943968011 -24.454560009381002 0 0 0 -1 I I #
edge $-1 $400 -24.454560009381002 $404 24.454560009381002 $398 $466 forward 7 unknown #
straight-curve $-1 0 -24.454560009381002 -8.5889859879745245 -1 0 0 I I #
vertex $-1 $298 $467 #
straight-curve $-1 0 24.454560009381002 -8.5889859879745245 1 0 0 I I #
point $-1 60.689107943968011 24.454560009381002 -8.5889859879745245 #
point $-1 60.689107943968011 -24.454560009381002 -8.5889859879745245 #
straight-curve $-1 -60.689107943968011 0 8.5889859879745245 0 -1 0 I I #
point $-1 -60.689107943968011 24.454560009381002 8.5889859879745245 #
point $-1 -60.689107943968011 -24.454560009381002 8.5889859879745245 #
straight-curve $-1 60.689107943968011 -24.454560009381002 0 0 0 -1 I I #
straight-curve $-1 60.689107943968011 24.454560009381002 0 0 0 -1 I I #
plane-surface $-1 0 0 8.5889859879745245 0 0 1 1 0 0 forward_v I I I I #
coedge $-1 $323 $426 $415 $468 forward $316 $-1 #
coedge $-1 $319 $318 $414 $468 reversed $135 $-1 #
edge $-1 $422 -1.5 $420 1.5 $318 $469 forward 7 unknown #
coedge $-1 $331 $330 $319 $418 forward $332 $-1 #
edge $-1 $419 -1.5 $470 1.5 $319 $471 forward 7 unknown #
vertex $-1 $335 $472 #
vertex $-1 $325 $473 #
straight-curve $-1 -46.511135968018962 -31.032066134245721 0 0 0 -1 I I #
vertex $-1 $468 $474 #
straight-curve $-1 -43.511135968018962 -27.743313071813361 -8.5889859879745245 0 -1 0 I I #
straight-curve $-1 -46.511135968018962 -27.743313071813361 -8.5889859879745245 0 1 0 I I #
point $-1 -43.511135968018962 -24.454560009381002 -8.5889859879745245 #
coedge $-1 $414 $328 $331 $428 reversed $316 $-1 #
straight-curve $-1 -43.511135968018962 -24.454560009381002 0 0 0 -1 I I #
edge $-1 $470 -3.2887530624323595 $333 3.2887530624323595 $426 $475 forward 7 unknown #
point $-1 -43.511135968018962 -24.454560009381002 8.5889859879745245 #
straight-curve $-1 -46.511135968018962 -27.743313071813361 8.5889859879745245 0 -1 0 I I #
coedge $-1 $435 $343 $340 $432 reversed $338 $-1 #
edge $-1 $440 -8.5889859879745245 $433 -4.3641406136758292 $431 $476 forward 7 unknown #
vertex $-1 $344 $477 #
straight-curve $-1 -60.689107943968011 10.648563570328333 4.3641406136758309 0 -1 0 I I #
coedge $-1 $343 $431 $345 $437 reversed $338 $-1 #
straight-curve $-1 -41.352844555392196 24.454560009381002 17.903538259212468 -0.81915203911291934 0 -0.57357644374324357 I I #
edge $-1 $346 54.65540355975736 $440 60.689107943968011 $435 $478 forward 7 unknown #
point $-1 -54.65540355975736 24.454560009381002 8.5889859879745245 #
point $-1 -60.689107943968011 18.139694271932331 4.3641406136758292 #
vertex $-1 $437 $479 #
straight-curve $-1 -60.689107943968011 0 8.5889859879745245 0 -1 0 I I #
vertex $-1 $355 $480 #
point $-1 -56.504971368895788 19.402667419422063 5.6812318545843166 #
vertex $-1 $359 $481 #
point $-1 -56.504971368895788 21.297127140656666 5.6812318545843166 #
vertex $-1 $363 $482 #
point $-1 -56.504971368895788 23.19158686189127 5.6812318545843166 #
coedge $-1 $378 $377 $370 $449 forward $367 $-1 #
edge $-1 $450 75.589609498130443 $453 83.725056445545107 $448 $483 forward 7 unknown #
vertex $-1 $382 $484 #
straight-curve $-1 12.500043245348053 7.9651502472175864 8.5889859879745245 1 0 0 I I #
edge $-1 $453 0.89720568972763637 $379 13.238683425252264 $378 $485 forward 7 unknown #
vertex $-1 $452 $486 #
straight-curve $-1 -41.107228748492986 7.9651502472175864 66.560854279748938 -0.83867056331134215 0 0.54463904215088732 I I #
point $-1 48.161618458027775 7.9651502472175864 8.5889859879745245 #
point $-1 60.689107943968011 20.306627982742214 0.4535390405598605 #
straight-curve $-1 60.689107943968011 0 8.5889859879745245 0 1 0 I I #
vertex $-1 $385 $487 #
point $-1 53.754711939836099 10.433445794322513 1.6524717187825622 #
vertex $-1 $389 $488 #
point $-1 53.754711939836099 14.1358891149799 1.6524717187825622 #
vertex $-1 $393 $489 #
point $-1 53.754711939836099 17.838332435637287 1.6524717187825622 #
straight-curve $-1 -60.689107943968011 24.454560009381002 0 0 0 -1 I I #
point $-1 -60.689107943968011 -24.454560009381002 -8.5889859879745245 #
straight-curve $-1 -60.689107943968011 0 -8.5889859879745245 0 1 0 I I #
point $-1 -60.689107943968011 24.454560009381002 -8.5889859879745245 #
edge $-1 $470 -8.5889859879745245 $422 8.5889859879745245 $414 $490 forward 7 unknown #
straight-curve $-1 -45.011135968018962 -31.032066134245721 -8.5889859879745245 -1 0 0 I I #
vertex $-1 $428 $491 #
straight-curve $-1 -45.011135968018962 -31.032066134245721 8.5889859879745245 1 0 0 I I #
point $-1 -46.511135968018962 -31.032066134245721 8.5889859879745245 #
point $-1 -46.511135968018962 -31.032066134245721 -8.5889859879745245 #
point $-1 -43.511135968018962 -31.032066134245721 -8.5889859879745245 #
straight-curve $-1 -43.511135968018962 -27.743313071813361 8.5889859879745245 0 1 0 I I #
straight-curve $-1 -60.689107943968011 24.454560009381002 0 0 0 -1 I I #
point $-1 -60.689107943968011 24.454560009381002 4.3641406136758292 #
straight-curve $-1 0 24.454560009381002 8.5889859879745245 -1 0 0 I I #
point $-1 -60.689107943968011 24.454560009381002 8.5889859879745245 #
point $-1 -56.627759166580631 19.402667419422063 4.9848676131562355 #
point $-1 -56.627759166580631 21.297127140656666 4.9848676131562355 #
point $-1 -56.627759166580631 23.19158686189127 4.9848676131562355 #
straight-curve $-1 60.689107943968011 7.9651502472175864 84.178595486104967 0 0 -1 I I #
point $-1 60.689107943968011 7.9651502472175864 8.5889859879745245 #
straight-curve $-1 60.689107943968011 7.06794455748995 0.45353904055985339 0 1 0 I I #
point $-1 60.689107943968011 7.9651502472175864 0.4535390405598605 #
point $-1 52.371402334373869 10.433445794322513 1.3584401976221074 #
point $-1 52.371402334373869 14.1358891149799 1.3584401976221074 #
point $-1 52.371402334373869 17.838332435637287 1.3584401976221074 #
straight-curve $-1 -43.511135968018962 -31.032066134245721 0 0 0 -1 I I #
point $-1 -43.511135968018962 -31.032066134245721 8.5889859879745245 #
End-of-ACIS-data 