500 0 5 0           
7 Unknown 11 ACIS 5.0 NT 24 Fri Mar 26 19:09:49 1999 
-1 9.9999999999999995e-007 1e-010 
body $-1 $5 $-1 $6 #
body $-1 $7 $-1 $8 #
body $-1 $9 $-1 $10 #
body $-1 $11 $-1 $12 #
body $-1 $13 $-1 $14 #
lump $-1 $-1 $15 $0 #
transform $-1 1 0 0 0 1 0 0 0 1 59.645374919888908 37.626079828610237 16.870474551407693 1 rotate no_reflect no_shear #
lump $-1 $-1 $16 $1 #
transform $-1 1 0 0 0 1 0 0 0 1 59.645374919888908 37.626079828610237 16.870474551407693 1 rotate no_reflect no_shear #
lump $-1 $-1 $17 $2 #
transform $-1 1 0 0 0 1 0 0 0 1 59.645374919888908 37.626079828610237 16.870474551407693 1 rotate no_reflect no_shear #
lump $-1 $-1 $18 $3 #
transform $-1 1 0 0 0 1 0 0 0 1 59.645374919888908 37.626079828610237 16.870474551407693 1 rotate no_reflect no_shear #
lump $-1 $-1 $19 $4 #
transform $-1 1 0 0 0 1 0 0 0 1 59.645374919888908 37.626079828610237 16.870474551407693 1 rotate no_reflect no_shear #
shell $-1 $-1 $-1 $20 $-1 $5 #
shell $-1 $-1 $-1 $21 $-1 $7 #
shell $-1 $-1 $-1 $22 $-1 $9 #
shell $-1 $-1 $-1 $23 $-1 $11 #
shell $-1 $-1 $-1 $24 $-1 $13 #
face $-1 $25 $26 $15 $-1 $27 forward single #
face $-1 $28 $29 $16 $-1 $30 forward single #
face $-1 $31 $32 $17 $-1 $33 forward single #
face $-1 $34 $35 $18 $-1 $36 reversed single #
face $-1 $37 $38 $19 $-1 $39 reversed single #
face $-1 $40 $41 $15 $-1 $42 reversed single #
loop $-1 $-1 $43 $20 #
plane-surface $-1 0 0 16.870474551407693 0 0 1 1 0 0 forward_v I I I I #
face $-1 $44 $45 $16 $-1 $46 forward single #
loop $-1 $-1 $47 $21 #
plane-surface $-1 -55.781389066412558 -15.452539678581735 0 0 -1 0 0 0 -1 forward_v I I I I #
face $-1 $48 $49 $17 $-1 $50 forward single #
loop $-1 $-1 $51 $22 #
plane-surface $-1 -157.36263748620007 26.122937077685364 77.429471312844854 0 1 0 -0.81915205242281985 0 0.57357642473473569 forward_v I I I I #
face $-1 $52 $53 $18 $-1 $54 reversed single #
loop $-1 $55 $56 $23 #
cone-surface $-1 -55.556806180731392 29.409549292235319 12.003612319167868 0.81915205242281985 0 -0.57357642473473569 0.57357642473473569 0 0.81915205242281985 1 I I 0 1 1 forward I I I I #
face $-1 $57 $58 $19 $-1 $59 reversed single #
loop $-1 $60 $61 $24 #
cone-surface $-1 -55.556806180731392 34.339467614060261 12.003612319167868 0.81915205242281985 0 -0.57357642473473569 0.57357642473473569 0 0.81915205242281985 1 I I 0 1 1 forward I I I I #
face $-1 $62 $63 $15 $-1 $64 reversed single #
loop $-1 $-1 $65 $25 #
plane-surface $-1 0 0 -16.870474551407693 0 0 1 1 0 0 forward_v I I I I #
coedge $-1 $66 $67 $68 $69 forward $26 $-1 #
face $-1 $70 $71 $16 $-1 $72 forward single #
loop $-1 $-1 $73 $28 #
plane-surface $-1 -51.917403212936208 -26.539309753595987 0 -1 0 0 0 0 1 forward_v I I I I #
coedge $-1 $74 $75 $76 $77 reversed $29 $-1 #
face $-1 $78 $79 $17 $-1 $80 forward single #
loop $-1 $-1 $81 $31 #
plane-surface $-1 -59.645374919888923 31.874508453147804 9.0071095158193515 -0.81915205242281985 0 0.57357642473473569 0.57357642473473569 0 0.81915205242281985 forward_v I I I I #
coedge $-1 $82 $83 $84 $85 reversed $32 $-1 #
face $-1 $86 $87 $18 $-1 $88 forward single #
loop $-1 $89 $90 $34 #
cone-surface $-1 -53.811655069078441 29.409549292235319 10.781644392354842 0.81915205242281985 0 -0.57357642473473569 0.28678821236736785 0 0.40957602621140993 1 I I -0.70710678118654746 0.70710678118654746 0.5 forward I I I I #
loop $-1 $-1 $91 $23 #
coedge $-1 $56 $56 $92 $93 reversed $35 $-1 #
face $-1 $94 $95 $19 $-1 $96 reversed single #
loop $-1 $97 $98 $37 #
cone-surface $-1 -53.811655069078441 34.339467614060261 10.781644392354842 0.81915205242281985 0 -0.57357642473473569 0.28678821236736785 0 0.40957602621140993 1 I I -0.70710678118654746 0.70710678118654746 0.5 forward I I I I #
loop $-1 $-1 $99 $24 #
coedge $-1 $61 $61 $100 $101 reversed $38 $-1 #
face $-1 $102 $103 $15 $-1 $104 reversed single #
loop $-1 $-1 $105 $40 #
plane-surface $-1 0 -37.626079828610237 0 0 1 0 0 0 1 forward_v I I I I #
coedge $-1 $106 $107 $108 $109 forward $41 $-1 #
coedge $-1 $110 $43 $111 $112 forward $26 $-1 #
coedge $-1 $43 $110 $113 $114 forward $26 $-1 #
coedge $-1 $115 $116 $43 $69 reversed $117 $-1 #
edge $-1 $118 -37.626079828610237 $119 37.626079828610237 $68 $120 forward 7 unknown #
face $-1 $121 $122 $16 $-1 $123 reversed single #
loop $-1 $-1 $124 $44 #
plane-surface $-1 0 0 16.870474551407693 0 0 1 1 0 0 forward_v I I I I #
coedge $-1 $125 $126 $127 $128 reversed $45 $-1 #
coedge $-1 $129 $47 $124 $130 reversed $29 $-1 #
coedge $-1 $47 $129 $131 $132 reversed $29 $-1 #
coedge $-1 $126 $125 $47 $77 forward $45 $-1 #
edge $-1 $133 -16.870474551407693 $134 16.870474551407693 $76 $135 forward 7 unknown #
face $-1 $136 $137 $17 $-1 $138 reversed single #
loop $-1 $-1 $139 $48 #
plane-surface $-1 0 0 16.870474551407693 0 0 1 1 0 0 forward_v I I I I #
coedge $-1 $140 $141 $139 $142 reversed $49 $-1 #
coedge $-1 $83 $51 $141 $143 forward $32 $-1 #
coedge $-1 $51 $82 $144 $145 reversed $32 $-1 #
coedge $-1 $146 $139 $51 $85 forward $79 $-1 #
edge $-1 $147 -24.541931130643079 $148 -19.035943823211127 $84 $149 forward 7 unknown #
face $-1 $150 $151 $18 $-1 $152 forward single #
loop $-1 $-1 $153 $52 #
plane-surface $-1 -157.36263748620007 26.122937077685364 77.429471312844854 0 1 0 -0.81915205242281985 0 0.57357642473473569 forward_v I I I I #
loop $-1 $-1 $154 $34 #
coedge $-1 $90 $90 $91 $155 forward $53 $-1 #
coedge $-1 $91 $91 $90 $155 reversed $55 $-1 #
coedge $-1 $92 $92 $56 $93 forward $151 $-1 #
edge $-1 $156 0 $156 6.2831853071796004 $92 $157 forward 7 unknown #
face $-1 $158 $159 $19 $-1 $160 reversed single #
loop $-1 $161 $162 $57 #
cone-surface $-1 -55.556806180731392 29.409549292235319 12.003612319167868 0.81915205242281985 0 -0.57357642473473569 0.57357642473473569 0 0.81915205242281985 1 I I 0 1 1 forward I I I I #
loop $-1 $-1 $163 $37 #
coedge $-1 $98 $98 $99 $164 forward $58 $-1 #
coedge $-1 $99 $99 $98 $164 reversed $60 $-1 #
coedge $-1 $100 $100 $61 $101 forward $165 $-1 #
edge $-1 $166 0 $166 6.2831853071796004 $100 $167 forward 7 unknown #
face $-1 $168 $169 $15 $-1 $170 reversed single #
loop $-1 $-1 $171 $62 #
plane-surface $-1 -59.645374919888908 0 0 1 0 0 0 0 -1 forward_v I I I I #
coedge $-1 $172 $113 $173 $174 forward $63 $-1 #
coedge $-1 $175 $65 $172 $176 forward $41 $-1 #
coedge $-1 $65 $175 $177 $178 forward $41 $-1 #
coedge $-1 $116 $115 $65 $109 reversed $117 $-1 #
edge $-1 $179 -37.626079828610237 $180 37.626079828610237 $108 $181 forward 7 unknown #
coedge $-1 $67 $66 $182 $183 forward $26 $-1 #
coedge $-1 $184 $185 $66 $112 reversed $169 $-1 #
edge $-1 $119 -59.645374919888908 $186 59.645374919888908 $111 $187 forward 7 unknown #
coedge $-1 $105 $188 $67 $114 reversed $63 $-1 #
edge $-1 $189 -59.645374919888908 $118 59.645374919888908 $113 $190 forward 7 unknown #
coedge $-1 $108 $68 $188 $191 forward $117 $-1 #
coedge $-1 $68 $108 $184 $192 reversed $117 $-1 #
loop $-1 $-1 $115 $168 #
vertex $-1 $69 $193 #
vertex $-1 $69 $194 #
straight-curve $-1 59.645374919888908 0 16.870474551407693 0 1 0 I I #
face $-1 $195 $196 $16 $-1 $197 reversed single #
loop $-1 $-1 $127 $70 #
plane-surface $-1 0 -37.626079828610237 0 0 1 0 0 0 1 forward_v I I I I #
coedge $-1 $198 $199 $74 $130 forward $71 $-1 #
coedge $-1 $76 $73 $198 $200 reversed $45 $-1 #
coedge $-1 $73 $76 $201 $202 reversed $45 $-1 #
coedge $-1 $203 $204 $73 $128 forward $122 $-1 #
edge $-1 $205 -16.870474551407693 $206 16.870474551407693 $127 $207 forward 7 unknown #
coedge $-1 $75 $74 $208 $209 reversed $29 $-1 #
edge $-1 $210 -31.754680386682629 $133 -24.026708679729929 $124 $211 forward 7 unknown #
coedge $-1 $212 $201 $75 $132 forward $196 $-1 #
edge $-1 $134 24.026708679729929 $213 31.754680386682629 $131 $214 forward 7 unknown #
vertex $-1 $130 $215 #
vertex $-1 $132 $216 #
straight-curve $-1 -51.917403212936208 -15.452539678581735 0 0 0 -1 I I #
face $-1 $217 $218 $17 $-1 $219 forward single #
loop $-1 $-1 $144 $78 #
plane-surface $-1 -59.645374919888908 0 0 1 0 0 0 0 -1 forward_v I I I I #
coedge $-1 $84 $220 $81 $142 forward $79 $-1 #
coedge $-1 $221 $81 $222 $223 reversed $49 $-1 #
coedge $-1 $81 $221 $82 $143 reversed $49 $-1 #
edge $-1 $224 -21.688825602036342 $147 -10.185682851111462 $139 $225 forward 7 unknown #
edge $-1 $147 -9.5993961222836894 $226 -2.4157181099100639e-014 $82 $227 forward 7 unknown #
coedge $-1 $228 $229 $83 $145 forward $137 $-1 #
edge $-1 $148 21.844261105014734 $226 29.707626140603054 $144 $230 forward 7 unknown #
coedge $-1 $231 $84 $229 $232 forward $79 $-1 #
vertex $-1 $142 $233 #
vertex $-1 $232 $234 #
straight-curve $-1 -78.681318743100036 26.122937077685364 16.870474551407693 -1 0 0 I I #
face $-1 $235 $236 $18 $-1 $237 forward single #
loop $-1 $238 $92 $86 #
plane-surface $-1 -59.645374919888923 31.874508453147804 9.0071095158193515 -0.81915205242281985 0 0.57357642473473569 0.57357642473473569 0 0.81915205242281985 forward_v I I I I #
coedge $-1 $239 $240 $241 $242 reversed $87 $-1 #
coedge $-1 $154 $154 $-1 $243 forward $89 $-1 #
edge $-1 $244 0 $244 6.2831853071796004 $90 $245 forward 7 unknown #
vertex $-1 $93 $246 #
ellipse-curve $-1 -56.892381266172933 29.409549292235319 12.938792033613529 0.81915205242281985 0 -0.57357642473473569 0.57357642473473569 0 0.81915205242281985 1 I I #
face $-1 $247 $248 $19 $-1 $249 forward single #
loop $-1 $250 $251 $94 #
cone-surface $-1 -53.811655069078441 29.409549292235319 10.781644392354842 0.81915205242281985 0 -0.57357642473473569 0.28678821236736785 0 0.40957602621140993 1 I I -0.70710678118654746 0.70710678118654746 0.5 forward I I I I #
loop $-1 $-1 $252 $57 #
coedge $-1 $162 $162 $253 $254 reversed $95 $-1 #
coedge $-1 $163 $163 $-1 $255 forward $97 $-1 #
edge $-1 $256 0 $256 6.2831853071796004 $98 $257 forward 7 unknown #
loop $-1 $258 $100 $247 #
vertex $-1 $101 $259 #
ellipse-curve $-1 -56.892381266172933 34.339467614060261 12.938792033613529 0.81915205242281985 0 -0.57357642473473569 0.57357642473473569 0 0.81915205242281985 1 I I #
face $-1 $-1 $117 $15 $-1 $260 reversed single #
loop $-1 $-1 $184 $102 #
plane-surface $-1 0 37.626079828610237 0 0 -1 0 0 0 -1 forward_v I I I I #
coedge $-1 $261 $182 $185 $262 forward $103 $-1 #
coedge $-1 $188 $105 $106 $176 reversed $63 $-1 #
coedge $-1 $182 $261 $105 $174 reversed $103 $-1 #
edge $-1 $189 -16.870474551407693 $263 16.870474551407693 $173 $264 forward 7 unknown #
coedge $-1 $107 $106 $261 $265 forward $41 $-1 #
edge $-1 $180 -59.645374919888908 $263 59.645374919888908 $172 $266 forward 7 unknown #
coedge $-1 $185 $184 $107 $178 reversed $169 $-1 #
edge $-1 $267 -59.645374919888908 $179 59.645374919888908 $177 $268 forward 7 unknown #
vertex $-1 $109 $269 #
vertex $-1 $191 $270 #
straight-curve $-1 59.645374919888908 0 -16.870474551407693 0 -1 0 I I #
coedge $-1 $171 $173 $110 $183 reversed $103 $-1 #
edge $-1 $186 -37.626079828610237 $189 37.626079828610237 $182 $271 forward 7 unknown #
coedge $-1 $177 $111 $116 $192 forward $169 $-1 #
coedge $-1 $111 $177 $171 $262 reversed $169 $-1 #
vertex $-1 $112 $272 #
straight-curve $-1 0 37.626079828610237 16.870474551407693 -1 0 0 I I #
coedge $-1 $113 $172 $115 $191 reversed $63 $-1 #
vertex $-1 $183 $273 #
straight-curve $-1 0 -37.626079828610237 16.870474551407693 1 0 0 I I #
edge $-1 $118 -16.870474551407693 $180 16.870474551407693 $115 $274 forward 7 unknown #
edge $-1 $119 -16.870474551407693 $179 16.870474551407693 $116 $275 forward 7 unknown #
point $-1 59.645374919888908 -37.626079828610237 16.870474551407693 #
point $-1 59.645374919888908 37.626079828610237 16.870474551407693 #
face $-1 $276 $277 $16 $-1 $278 reversed single #
loop $-1 $-1 $131 $121 #
plane-surface $-1 0 0 -16.870474551407693 0 0 1 1 0 0 forward_v I I I I #
coedge $-1 $279 $124 $125 $200 forward $71 $-1 #
coedge $-1 $124 $280 $281 $282 forward $71 $-1 #
edge $-1 $133 2.1828848017837412 $205 24.356424951812244 $198 $283 forward 7 unknown #
coedge $-1 $131 $284 $126 $202 forward $196 $-1 #
edge $-1 $206 -24.356424951812244 $134 -2.1828848017837412 $201 $285 forward 7 unknown #
coedge $-1 $286 $127 $284 $287 reversed $122 $-1 #
coedge $-1 $127 $286 $279 $288 reversed $122 $-1 #
vertex $-1 $288 $289 #
vertex $-1 $128 $290 #
straight-curve $-1 -51.917403212936208 -37.626079828610237 0 0 0 -1 I I #
coedge $-1 $281 $291 $129 $209 forward $277 $-1 #
edge $-1 $213 -16.870474551407693 $210 16.870474551407693 $208 $292 forward 7 unknown #
vertex $-1 $209 $293 #
straight-curve $-1 -27.890694533206279 -15.452539678581735 16.870474551407693 1 0 0 I I #
coedge $-1 $294 $131 $291 $295 forward $196 $-1 #
vertex $-1 $295 $296 #
straight-curve $-1 -27.890694533206279 -15.452539678581735 -16.870474551407693 -1 0 0 I I #
point $-1 -51.917403212936208 -15.452539678581735 16.870474551407693 #
point $-1 -51.917403212936208 -15.452539678581735 -16.870474551407693 #
face $-1 $297 $298 $17 $-1 $299 forward single #
loop $-1 $-1 $300 $136 #
plane-surface $-1 -55.781389066412558 -15.452539678581735 0 0 -1 0 0 0 -1 forward_v I I I I #
coedge $-1 $139 $301 $302 $303 forward $79 $-1 #
coedge $-1 $141 $140 $228 $304 reversed $49 $-1 #
coedge $-1 $302 $305 $140 $223 forward $306 $-1 #
edge $-1 $307 -13.416494326116091 $224 -3.8170982038324235 $222 $308 forward 7 unknown #
vertex $-1 $223 $309 #
straight-curve $-1 -54.139387612456957 15.937254226573902 16.870474551407693 0 -1 0 I I #
vertex $-1 $304 $310 #
straight-curve $-1 -59.645374919888923 26.122937077685364 9.0071095158193515 -0.57357642473473569 0 -0.81915205242281985 I I #
coedge $-1 $311 $144 $221 $304 forward $137 $-1 #
coedge $-1 $144 $312 $146 $232 reversed $137 $-1 #
straight-curve $-1 -59.645374919888908 26.122937077685364 38.714735656422427 0 0 -1 I I #
coedge $-1 $313 $146 $314 $315 forward $79 $-1 #
edge $-1 $148 -26.122937077685364 $316 15.452539678581735 $229 $317 forward 7 unknown #
point $-1 -54.139387612456957 26.122937077685364 16.870474551407693 #
point $-1 -59.645374919888908 26.122937077685364 16.870474551407693 #
face $-1 $318 $319 $18 $-1 $320 reversed single #
loop $-1 $-1 $321 $150 #
plane-surface $-1 0 0 16.870474551407693 0 0 1 1 0 0 forward_v I I I I #
loop $-1 $-1 $322 $86 #
coedge $-1 $240 $153 $323 $324 forward $87 $-1 #
coedge $-1 $153 $239 $325 $326 reversed $87 $-1 #
coedge $-1 $327 $321 $153 $242 forward $236 $-1 #
edge $-1 $328 -24.541931130643079 $329 -19.035943823211127 $241 $330 forward 7 unknown #
edge $-1 $331 1 $331 0 $154 $-1 forward 7 unknown #
vertex $-1 $155 $332 #
ellipse-curve $-1 -54.221231095289852 29.409549292235319 11.06843260472221 -0.81915205242281985 0 0.57357642473473569 0.57357642473473569 0 0.81915205242281985 1 I I #
point $-1 -56.318804841438194 29.409549292235319 13.757944086036346 #
face $-1 $333 $165 $19 $-1 $334 forward single #
loop $-1 $-1 $335 $158 #
plane-surface $-1 -157.36263748620007 26.122937077685364 77.429471312844854 0 1 0 -0.81915205242281985 0 0.57357642473473569 forward_v I I I I #
loop $-1 $-1 $336 $94 #
coedge $-1 $251 $251 $252 $337 forward $159 $-1 #
coedge $-1 $252 $252 $251 $337 reversed $161 $-1 #
coedge $-1 $253 $253 $162 $254 forward $258 $-1 #
edge $-1 $338 0 $338 6.2831853071796004 $253 $339 forward 7 unknown #
edge $-1 $340 1 $340 0 $163 $-1 forward 7 unknown #
vertex $-1 $164 $341 #
ellipse-curve $-1 -54.221231095289852 34.339467614060261 11.06843260472221 -0.81915205242281985 0 0.57357642473473569 0.57357642473473569 0 0.81915205242281985 1 I I #
loop $-1 $342 $253 $247 #
point $-1 -56.318804841438194 34.339467614060261 13.757944086036346 #
plane-surface $-1 59.645374919888908 0 0 -1 0 0 0 0 1 forward_v I I I I #
coedge $-1 $173 $171 $175 $265 reversed $103 $-1 #
edge $-1 $186 -16.870474551407693 $267 16.870474551407693 $185 $343 forward 7 unknown #
vertex $-1 $265 $344 #
straight-curve $-1 -59.645374919888908 -37.626079828610237 0 0 0 -1 I I #
edge $-1 $263 -37.626079828610237 $267 37.626079828610237 $261 $345 forward 7 unknown #
straight-curve $-1 0 -37.626079828610237 -16.870474551407693 -1 0 0 I I #
vertex $-1 $178 $346 #
straight-curve $-1 0 37.626079828610237 -16.870474551407693 1 0 0 I I #
point $-1 59.645374919888908 37.626079828610237 -16.870474551407693 #
point $-1 59.645374919888908 -37.626079828610237 -16.870474551407693 #
straight-curve $-1 -59.645374919888908 0 16.870474551407693 0 -1 0 I I #
point $-1 -59.645374919888908 37.626079828610237 16.870474551407693 #
point $-1 -59.645374919888908 -37.626079828610237 16.870474551407693 #
straight-curve $-1 59.645374919888908 -37.626079828610237 0 0 0 -1 I I #
straight-curve $-1 59.645374919888908 37.626079828610237 0 0 0 -1 I I #
face $-1 $347 $348 $16 $-1 $349 reversed single #
loop $-1 $-1 $208 $195 #
plane-surface $-1 -59.645374919888908 0 0 1 0 0 0 0 -1 forward_v I I I I #
coedge $-1 $350 $198 $204 $288 forward $71 $-1 #
coedge $-1 $199 $350 $351 $352 forward $71 $-1 #
coedge $-1 $353 $208 $199 $282 reversed $277 $-1 #
edge $-1 $354 -37.626079828610237 $210 15.452539678581735 $281 $355 forward 7 unknown #
straight-curve $-1 -51.917403212936208 -13.269654876797993 16.870474551407693 0 -1 0 I I #
coedge $-1 $201 $356 $203 $287 forward $196 $-1 #
straight-curve $-1 -51.917403212936208 -13.269654876797993 -16.870474551407693 0 1 0 I I #
coedge $-1 $204 $203 $357 $358 reversed $122 $-1 #
edge $-1 $359 -59.645374919888908 $206 51.917403212936208 $203 $360 forward 7 unknown #
edge $-1 $205 -51.917403212936208 $361 59.645374919888908 $204 $362 forward 7 unknown #
point $-1 -51.917403212936208 -37.626079828610237 16.870474551407693 #
point $-1 -51.917403212936208 -37.626079828610237 -16.870474551407693 #
coedge $-1 $208 $353 $212 $295 reversed $277 $-1 #
straight-curve $-1 -59.645374919888908 -15.452539678581735 0 0 0 1 I I #
point $-1 -59.645374919888908 -15.452539678581735 16.870474551407693 #
coedge $-1 $356 $212 $363 $364 forward $196 $-1 #
edge $-1 $213 -15.452539678581735 $365 37.626079828610237 $291 $366 forward 7 unknown #
point $-1 -59.645374919888908 -15.452539678581735 -16.870474551407693 #
face $-1 $367 $368 $17 $-1 $369 reversed single #
loop $-1 $-1 $370 $217 #
plane-surface $-1 -51.917403212936208 -26.539309753595987 0 -1 0 0 0 0 1 forward_v I I I I #
coedge $-1 $314 $371 $372 $373 reversed $218 $-1 #
coedge $-1 $220 $374 $375 $376 forward $79 $-1 #
coedge $-1 $377 $222 $220 $303 reversed $306 $-1 #
edge $-1 $378 -59.645374919888908 $224 54.139387612456957 $302 $379 forward 7 unknown #
edge $-1 $226 10.185682851111462 $307 21.688825602036342 $228 $380 forward 7 unknown #
coedge $-1 $222 $381 $311 $382 reversed $306 $-1 #
loop $-1 $-1 $222 $383 #
vertex $-1 $382 $384 #
straight-curve $-1 -51.949990071841377 37.626079828610237 19.997258379376483 0.57357642473473569 0 0.81915205242281985 I I #
point $-1 -54.139387612456957 37.626079828610244 16.870474551407693 #
point $-1 -59.645374919888908 26.122937077685364 9.007109515819371 #
coedge $-1 $385 $228 $305 $382 forward $137 $-1 #
coedge $-1 $229 $385 $386 $387 forward $137 $-1 #
coedge $-1 $374 $231 $388 $389 forward $79 $-1 #
coedge $-1 $386 $300 $231 $315 reversed $218 $-1 #
edge $-1 $316 -31.754680386682629 $390 -24.026708679729929 $231 $391 forward 7 unknown #
vertex $-1 $387 $392 #
straight-curve $-1 -59.645374919888908 0 16.870474551407693 0 -1 0 I I #
face $-1 $393 $394 $18 $-1 $395 forward single #
loop $-1 $-1 $325 $235 #
plane-surface $-1 -59.645374919888908 0 0 1 0 0 0 0 -1 forward_v I I I I #
coedge $-1 $241 $396 $322 $397 forward $236 $-1 #
coedge $-1 $398 $323 $321 $397 reversed $238 $-1 #
coedge $-1 $322 $399 $239 $324 reversed $238 $-1 #
edge $-1 $328 -9.5993961222836894 $400 -2.4157181099100639e-014 $239 $401 forward 7 unknown #
coedge $-1 $402 $403 $240 $326 forward $319 $-1 #
edge $-1 $329 21.844261105014734 $400 29.707626140603054 $325 $404 forward 7 unknown #
coedge $-1 $405 $241 $403 $406 forward $236 $-1 #
vertex $-1 $397 $407 #
vertex $-1 $406 $408 #
straight-curve $-1 -78.681318743100036 26.122937077685364 16.870474551407693 -1 0 0 I I #
vertex $-1 $243 $409 #
point $-1 -53.647654670555113 29.409549292235319 11.88758465714503 #
face $-1 $410 $411 $19 $-1 $412 forward single #
plane-surface $-1 -59.645374919888923 31.874508453147804 9.0071095158193515 -0.81915205242281985 0 0.57357642473473569 0.57357642473473569 0 0.81915205242281985 forward_v I I I I #
coedge $-1 $413 $414 $415 $416 reversed $248 $-1 #
coedge $-1 $336 $336 $-1 $417 forward $250 $-1 #
edge $-1 $418 0 $418 6.2831853071796004 $251 $419 forward 7 unknown #
vertex $-1 $254 $420 #
ellipse-curve $-1 -56.892381266172933 29.409549292235319 12.938792033613529 0.81915205242281985 0 -0.57357642473473569 0.57357642473473569 0 0.81915205242281985 1 I I #
vertex $-1 $255 $421 #
point $-1 -53.647654670555113 34.339467614060261 11.88758465714503 #
loop $-1 $-1 $422 $247 #
straight-curve $-1 -59.645374919888908 37.626079828610237 0 0 0 -1 I I #
point $-1 -59.645374919888908 -37.626079828610237 -16.870474551407693 #
straight-curve $-1 -59.645374919888908 0 -16.870474551407693 0 1 0 I I #
point $-1 -59.645374919888908 37.626079828610237 -16.870474551407693 #
face $-1 $-1 $423 $16 $-1 $424 reversed single #
loop $-1 $-1 $425 $276 #
plane-surface $-1 0 37.626079828610237 0 0 -1 0 0 0 -1 forward_v I I I I #
coedge $-1 $280 $279 $426 $427 forward $71 $-1 #
coedge $-1 $425 $428 $280 $352 reversed $348 $-1 #
edge $-1 $429 -59.645374919888908 $354 59.645374919888908 $351 $430 forward 7 unknown #
coedge $-1 $291 $281 $428 $431 forward $277 $-1 #
vertex $-1 $352 $432 #
straight-curve $-1 -59.645374919888908 0 16.870474551407693 0 -1 0 I I #
coedge $-1 $284 $294 $433 $434 forward $196 $-1 #
coedge $-1 $433 $426 $286 $358 forward $423 $-1 #
edge $-1 $361 -16.870474551407693 $359 16.870474551407693 $357 $435 forward 7 unknown #
vertex $-1 $358 $436 #
straight-curve $-1 0 -37.626079828610237 -16.870474551407693 -1 0 0 I I #
vertex $-1 $427 $437 #
straight-curve $-1 0 -37.626079828610237 16.870474551407693 1 0 0 I I #
coedge $-1 $428 $425 $294 $364 reversed $348 $-1 #
edge $-1 $365 -59.645374919888908 $438 59.645374919888908 $363 $439 forward 7 unknown #
vertex $-1 $364 $440 #
straight-curve $-1 -59.645374919888908 0 -16.870474551407693 0 1 0 I I #
face $-1 $383 $441 $17 $-1 $442 reversed single #
loop $-1 $-1 $443 $297 #
plane-surface $-1 0 -37.626079828610237 0 0 1 0 0 0 1 forward_v I I I I #
coedge $-1 $388 $444 $443 $445 reversed $298 $-1 #
coedge $-1 $300 $386 $446 $447 reversed $218 $-1 #
coedge $-1 $444 $388 $300 $373 forward $298 $-1 #
edge $-1 $390 -16.870474551407693 $448 16.870474551407693 $372 $449 forward 7 unknown #
coedge $-1 $301 $313 $450 $451 forward $79 $-1 #
coedge $-1 $452 $453 $301 $376 reversed $454 $-1 #
edge $-1 $455 -37.626079828610237 $378 37.626079828610237 $375 $456 forward 7 unknown #
coedge $-1 $381 $302 $453 $457 forward $306 $-1 #
vertex $-1 $376 $458 #
straight-curve $-1 0 37.626079828610237 16.870474551407693 -1 0 0 I I #
straight-curve $-1 -59.645374919888908 15.937254226573902 9.0071095158193728 0 1 0 I I #
coedge $-1 $305 $377 $459 $460 reversed $306 $-1 #
edge $-1 $307 -9.007109515819371 $461 16.870474551407693 $305 $462 forward 7 unknown #
face $-1 $463 $306 $17 $-1 $464 reversed single #
point $-1 -59.645374919888908 37.626079828610244 9.007109515819371 #
coedge $-1 $312 $311 $465 $466 reversed $137 $-1 #
coedge $-1 $371 $314 $312 $387 reversed $218 $-1 #
edge $-1 $467 -16.870474551407693 $316 16.870474551407693 $312 $468 forward 7 unknown #
coedge $-1 $372 $370 $313 $389 reversed $298 $-1 #
edge $-1 $390 2.1828848017837412 $469 24.356424951812244 $313 $470 forward 7 unknown #
vertex $-1 $315 $471 #
straight-curve $-1 -27.890694533206279 -15.452539678581735 16.870474551407693 1 0 0 I I #
point $-1 -59.645374919888908 -15.452539678581735 16.870474551407693 #
face $-1 $472 $473 $18 $-1 $474 forward single #
loop $-1 $-1 $475 $318 #
plane-surface $-1 -55.781389066412558 -15.452539678581735 0 0 -1 0 0 0 -1 forward_v I I I I #
coedge $-1 $321 $476 $477 $478 forward $236 $-1 #
edge $-1 $479 -21.688825602036342 $328 -10.185682851111462 $321 $480 forward 7 unknown #
coedge $-1 $399 $322 $481 $482 reversed $238 $-1 #
coedge $-1 $323 $398 $402 $483 reversed $238 $-1 #
vertex $-1 $483 $484 #
straight-curve $-1 -59.645374919888923 26.122937077685364 9.0071095158193515 -0.57357642473473569 0 -0.81915205242281985 I I #
coedge $-1 $485 $325 $399 $483 forward $319 $-1 #
coedge $-1 $325 $486 $327 $406 reversed $319 $-1 #
straight-curve $-1 -59.645374919888908 26.122937077685364 38.714735656422427 0 0 -1 I I #
coedge $-1 $487 $327 $488 $489 forward $236 $-1 #
edge $-1 $329 -26.122937077685364 $490 15.452539678581735 $403 $491 forward 7 unknown #
point $-1 -54.139387612456957 26.122937077685364 16.870474551407693 #
point $-1 -59.645374919888908 26.122937077685364 16.870474551407693 #
point $-1 -53.40207904286703 29.409549292235319 10.494856179987474 #
face $-1 $492 $493 $19 $-1 $494 reversed single #
loop $-1 $-1 $495 $333 #
plane-surface $-1 0 0 16.870474551407693 0 0 1 1 0 0 forward_v I I I I #
coedge $-1 $414 $335 $496 $497 forward $248 $-1 #
coedge $-1 $335 $413 $498 $499 reversed $248 $-1 #
coedge $-1 $500 $495 $335 $416 forward $411 $-1 #
edge $-1 $501 -24.541931130643079 $502 -19.035943823211127 $415 $503 forward 7 unknown #
edge $-1 $504 1 $504 0 $336 $-1 forward 7 unknown #
vertex $-1 $337 $505 #
ellipse-curve $-1 -54.221231095289852 29.409549292235319 11.06843260472221 -0.81915205242281985 0 0.57357642473473569 0.57357642473473569 0 0.81915205242281985 1 I I #
point $-1 -56.318804841438194 29.409549292235319 13.757944086036346 #
point $-1 -53.40207904286703 34.339467614060261 10.494856179987474 #
coedge $-1 $506 $496 $495 $507 reversed $342 $-1 #
loop $-1 $-1 $357 $347 #
plane-surface $-1 59.645374919888908 0 0 -1 0 0 0 0 1 forward_v I I I I #
coedge $-1 $363 $351 $508 $509 forward $348 $-1 #
coedge $-1 $357 $508 $350 $427 reversed $423 $-1 #
edge $-1 $361 -37.626079828610237 $429 37.626079828610237 $426 $510 forward 7 unknown #
coedge $-1 $351 $363 $353 $431 reversed $348 $-1 #
vertex $-1 $427 $511 #
straight-curve $-1 0 37.626079828610237 16.870474551407693 -1 0 0 I I #
edge $-1 $354 -16.870474551407693 $365 16.870474551407693 $428 $512 forward 7 unknown #
point $-1 -59.645374919888908 37.626079828610237 16.870474551407693 #
coedge $-1 $508 $357 $356 $434 reversed $423 $-1 #
edge $-1 $438 -37.626079828610237 $359 37.626079828610237 $433 $513 forward 7 unknown #
straight-curve $-1 59.645374919888908 -37.626079828610237 0 0 0 -1 I I #
point $-1 59.645374919888908 -37.626079828610237 -16.870474551407693 #
point $-1 59.645374919888908 -37.626079828610237 16.870474551407693 #
vertex $-1 $434 $514 #
straight-curve $-1 0 37.626079828610237 -16.870474551407693 1 0 0 I I #
point $-1 -59.645374919888908 37.626079828610237 -16.870474551407693 #
loop $-1 $-1 $446 $367 #
plane-surface $-1 0 0 -16.870474551407693 0 0 1 1 0 0 forward_v I I I I #
coedge $-1 $515 $450 $370 $445 forward $368 $-1 #
coedge $-1 $370 $372 $516 $517 reversed $298 $-1 #
edge $-1 $469 -16.870474551407693 $518 16.870474551407693 $443 $519 forward 7 unknown #
coedge $-1 $465 $516 $371 $447 forward $441 $-1 #
edge $-1 $448 24.026708679729929 $467 31.754680386682629 $446 $520 forward 7 unknown #
vertex $-1 $447 $521 #
straight-curve $-1 -51.917403212936208 -15.452539678581735 0 0 0 -1 I I #
coedge $-1 $443 $522 $374 $451 reversed $368 $-1 #
edge $-1 $469 -51.917403212936208 $455 59.645374919888908 $450 $523 forward 7 unknown #
coedge $-1 $524 $375 $522 $525 forward $454 $-1 #
coedge $-1 $375 $524 $377 $457 reversed $454 $-1 #
loop $-1 $-1 $452 $463 #
vertex $-1 $376 $526 #
straight-curve $-1 59.645374919888908 0 16.870474551407693 0 1 0 I I #
edge $-1 $378 -16.870474551407693 $527 16.870474551407693 $453 $528 forward 7 unknown #
point $-1 59.645374919888908 37.626079828610237 16.870474551407693 #
coedge $-1 $529 $465 $381 $460 forward $441 $-1 #
edge $-1 $461 -59.645374919888908 $527 59.645374919888908 $381 $530 forward 7 unknown #
vertex $-1 $460 $531 #
straight-curve $-1 -59.645374919888908 37.626079828610237 0 0 0 -1 I I #
face $-1 $-1 $454 $17 $-1 $532 reversed single #
plane-surface $-1 0 37.626079828610237 0 0 -1 0 0 0 -1 forward_v I I I I #
coedge $-1 $459 $446 $385 $466 forward $441 $-1 #
edge $-1 $467 -15.452539678581735 $461 37.626079828610237 $385 $533 forward 7 unknown #
vertex $-1 $466 $534 #
straight-curve $-1 -59.645374919888908 -15.452539678581735 0 0 0 1 I I #
vertex $-1 $451 $535 #
straight-curve $-1 -51.917403212936208 -13.269654876797993 16.870474551407693 0 -1 0 I I #
point $-1 -51.917403212936208 -15.452539678581735 16.870474551407693 #
face $-1 $536 $537 $18 $-1 $538 reversed single #
loop $-1 $-1 $539 $393 #
plane-surface $-1 -51.917403212936208 -26.539309753595987 0 -1 0 0 0 0 1 forward_v I I I I #
coedge $-1 $488 $540 $541 $542 reversed $394 $-1 #
coedge $-1 $396 $543 $544 $545 forward $236 $-1 #
coedge $-1 $546 $481 $396 $478 reversed $547 $-1 #
edge $-1 $548 -59.645374919888908 $479 54.139387612456957 $477 $549 forward 7 unknown #
vertex $-1 $482 $550 #
straight-curve $-1 -54.139387612456957 15.937254226573902 16.870474551407693 0 -1 0 I I #
coedge $-1 $477 $551 $398 $482 forward $547 $-1 #
edge $-1 $552 -13.416494326116091 $479 -3.8170982038324235 $481 $553 forward 7 unknown #
edge $-1 $400 10.185682851111462 $552 21.688825602036342 $402 $554 forward 7 unknown #
point $-1 -59.645374919888908 26.122937077685364 9.007109515819371 #
coedge $-1 $555 $402 $551 $556 forward $319 $-1 #
coedge $-1 $403 $555 $557 $558 forward $319 $-1 #
coedge $-1 $543 $405 $559 $560 forward $236 $-1 #
coedge $-1 $557 $475 $405 $489 reversed $394 $-1 #
edge $-1 $490 -31.754680386682629 $561 -24.026708679729929 $405 $562 forward 7 unknown #
vertex $-1 $558 $563 #
straight-curve $-1 -59.645374919888908 0 16.870474551407693 0 -1 0 I I #
face $-1 $564 $565 $19 $-1 $566 forward single #
loop $-1 $-1 $498 $410 #
plane-surface $-1 -59.645374919888908 0 0 1 0 0 0 0 -1 forward_v I I I I #
coedge $-1 $415 $567 $422 $507 forward $411 $-1 #
coedge $-1 $422 $568 $413 $497 reversed $342 $-1 #
edge $-1 $501 -9.5993961222836894 $569 -2.4157181099100639e-014 $413 $570 forward 7 unknown #
coedge $-1 $571 $572 $414 $499 forward $493 $-1 #
edge $-1 $502 21.844261105014734 $569 29.707626140603054 $498 $573 forward 7 unknown #
coedge $-1 $574 $415 $572 $575 forward $411 $-1 #
vertex $-1 $507 $576 #
vertex $-1 $575 $577 #
straight-curve $-1 -78.681318743100036 26.122937077685364 16.870474551407693 -1 0 0 I I #
vertex $-1 $417 $578 #
point $-1 -53.647654670555113 29.409549292235319 11.88758465714503 #
coedge $-1 $568 $422 $579 $580 reversed $342 $-1 #
edge $-1 $581 -21.688825602036342 $501 -10.185682851111462 $495 $582 forward 7 unknown #
coedge $-1 $426 $433 $425 $509 reversed $423 $-1 #
edge $-1 $429 -16.870474551407693 $438 16.870474551407693 $508 $583 forward 7 unknown #
straight-curve $-1 59.645374919888908 0 16.870474551407693 0 1 0 I I #
point $-1 59.645374919888908 37.626079828610237 16.870474551407693 #
straight-curve $-1 -59.645374919888908 37.626079828610237 0 0 0 -1 I I #
straight-curve $-1 59.645374919888908 0 -16.870474551407693 0 -1 0 I I #
point $-1 59.645374919888908 37.626079828610237 -16.870474551407693 #
coedge $-1 $522 $443 $584 $585 reversed $368 $-1 #
coedge $-1 $446 $584 $444 $517 forward $441 $-1 #
edge $-1 $518 -24.356424951812244 $448 -2.1828848017837412 $516 $586 forward 7 unknown #
vertex $-1 $445 $587 #
straight-curve $-1 -51.917403212936208 -37.626079828610237 0 0 0 -1 I I #
straight-curve $-1 -27.890694533206279 -15.452539678581735 -16.870474551407693 -1 0 0 I I #
point $-1 -51.917403212936208 -15.452539678581735 -16.870474551407693 #
coedge $-1 $450 $515 $452 $525 reversed $368 $-1 #
straight-curve $-1 0 -37.626079828610237 16.870474551407693 1 0 0 I I #
coedge $-1 $453 $452 $529 $588 reversed $454 $-1 #
edge $-1 $455 -16.870474551407693 $589 16.870474551407693 $452 $590 forward 7 unknown #
point $-1 59.645374919888908 -37.626079828610237 16.870474551407693 #
vertex $-1 $588 $591 #
straight-curve $-1 59.645374919888908 37.626079828610237 0 0 0 -1 I I #
coedge $-1 $584 $459 $524 $588 forward $441 $-1 #
straight-curve $-1 0 37.626079828610237 -16.870474551407693 1 0 0 I I #
point $-1 -59.645374919888908 37.626079828610237 -16.870474551407693 #
plane-surface $-1 59.645374919888908 0 0 -1 0 0 0 0 1 forward_v I I I I #
straight-curve $-1 -59.645374919888908 0 -16.870474551407693 0 1 0 I I #
point $-1 -59.645374919888908 -15.452539678581735 -16.870474551407693 #
point $-1 -51.917403212936208 -37.626079828610237 16.870474551407693 #
face $-1 $592 $593 $18 $-1 $594 reversed single #
loop $-1 $-1 $595 $472 #
plane-surface $-1 0 -37.626079828610237 0 0 1 0 0 0 1 forward_v I I I I #
coedge $-1 $559 $596 $595 $597 reversed $473 $-1 #
coedge $-1 $475 $557 $598 $599 reversed $394 $-1 #
coedge $-1 $596 $559 $475 $542 forward $473 $-1 #
edge $-1 $561 -16.870474551407693 $600 16.870474551407693 $541 $601 forward 7 unknown #
coedge $-1 $476 $487 $602 $603 forward $236 $-1 #
coedge $-1 $604 $605 $476 $545 reversed $606 $-1 #
edge $-1 $607 -37.626079828610237 $548 37.626079828610237 $544 $608 forward 7 unknown #
coedge $-1 $609 $477 $605 $610 forward $547 $-1 #
loop $-1 $-1 $481 $592 #
vertex $-1 $545 $611 #
straight-curve $-1 0 37.626079828610237 16.870474551407693 -1 0 0 I I #
point $-1 -54.139387612456957 37.626079828610244 16.870474551407693 #
coedge $-1 $481 $609 $485 $556 reversed $547 $-1 #
vertex $-1 $556 $612 #
straight-curve $-1 -51.949990071841377 37.626079828610237 19.997258379376483 0.57357642473473569 0 0.81915205242281985 I I #
straight-curve $-1 -59.645374919888908 15.937254226573902 9.0071095158193728 0 1 0 I I #
coedge $-1 $486 $485 $613 $614 reversed $319 $-1 #
edge $-1 $552 -9.007109515819371 $615 16.870474551407693 $551 $616 forward 7 unknown #
coedge $-1 $540 $488 $486 $558 reversed $394 $-1 #
edge $-1 $617 -16.870474551407693 $490 16.870474551407693 $486 $618 forward 7 unknown #
coedge $-1 $541 $539 $487 $560 reversed $473 $-1 #
edge $-1 $561 2.1828848017837412 $619 24.356424951812244 $487 $620 forward 7 unknown #
vertex $-1 $489 $621 #
straight-curve $-1 -27.890694533206279 -15.452539678581735 16.870474551407693 1 0 0 I I #
point $-1 -59.645374919888908 -15.452539678581735 16.870474551407693 #
face $-1 $622 $623 $19 $-1 $624 forward single #
loop $-1 $-1 $625 $492 #
plane-surface $-1 -55.781389066412558 -15.452539678581735 0 0 -1 0 0 0 -1 forward_v I I I I #
coedge $-1 $495 $626 $627 $628 forward $411 $-1 #
coedge $-1 $496 $506 $571 $629 reversed $342 $-1 #
vertex $-1 $629 $630 #
straight-curve $-1 -59.645374919888923 26.122937077685364 9.0071095158193515 -0.57357642473473569 0 -0.81915205242281985 I I #
coedge $-1 $631 $498 $568 $629 forward $493 $-1 #
coedge $-1 $498 $632 $500 $575 reversed $493 $-1 #
straight-curve $-1 -59.645374919888908 26.122937077685364 38.714735656422427 0 0 -1 I I #
coedge $-1 $633 $500 $634 $635 forward $411 $-1 #
edge $-1 $502 -26.122937077685364 $636 15.452539678581735 $572 $637 forward 7 unknown #
point $-1 -54.139387612456957 26.122937077685364 16.870474551407693 #
point $-1 -59.645374919888908 26.122937077685364 16.870474551407693 #
point $-1 -53.40207904286703 29.409549292235319 10.494856179987474 #
coedge $-1 $627 $638 $506 $580 forward $639 $-1 #
edge $-1 $640 -13.416494326116091 $581 -3.8170982038324235 $579 $641 forward 7 unknown #
vertex $-1 $580 $642 #
straight-curve $-1 -54.139387612456957 15.937254226573902 16.870474551407693 0 -1 0 I I #
straight-curve $-1 59.645374919888908 37.626079828610237 0 0 0 -1 I I #
coedge $-1 $516 $529 $515 $585 forward $441 $-1 #
edge $-1 $589 -59.645374919888908 $518 51.917403212936208 $515 $643 forward 7 unknown #
straight-curve $-1 -51.917403212936208 -13.269654876797993 -16.870474551407693 0 1 0 I I #
point $-1 -51.917403212936208 -37.626079828610237 -16.870474551407693 #
edge $-1 $527 -37.626079828610237 $589 37.626079828610237 $524 $644 forward 7 unknown #
vertex $-1 $525 $645 #
straight-curve $-1 59.645374919888908 -37.626079828610237 0 0 0 -1 I I #
point $-1 59.645374919888908 37.626079828610237 -16.870474551407693 #
face $-1 $646 $547 $18 $-1 $647 reversed single #
loop $-1 $-1 $598 $536 #
plane-surface $-1 0 0 -16.870474551407693 0 0 1 1 0 0 forward_v I I I I #
coedge $-1 $648 $602 $539 $597 forward $537 $-1 #
coedge $-1 $539 $541 $649 $650 reversed $473 $-1 #
edge $-1 $619 -16.870474551407693 $651 16.870474551407693 $595 $652 forward 7 unknown #
coedge $-1 $613 $649 $540 $599 forward $593 $-1 #
edge $-1 $600 24.026708679729929 $617 31.754680386682629 $598 $653 forward 7 unknown #
vertex $-1 $599 $654 #
straight-curve $-1 -51.917403212936208 -15.452539678581735 0 0 0 -1 I I #
coedge $-1 $595 $655 $543 $603 reversed $537 $-1 #
edge $-1 $619 -51.917403212936208 $607 59.645374919888908 $602 $656 forward 7 unknown #
coedge $-1 $657 $544 $655 $658 forward $606 $-1 #
coedge $-1 $544 $657 $546 $610 reversed $606 $-1 #
loop $-1 $-1 $604 $646 #
vertex $-1 $545 $659 #
straight-curve $-1 59.645374919888908 0 16.870474551407693 0 1 0 I I #
coedge $-1 $551 $546 $660 $661 reversed $547 $-1 #
edge $-1 $548 -16.870474551407693 $662 16.870474551407693 $605 $663 forward 7 unknown #
point $-1 59.645374919888908 37.626079828610237 16.870474551407693 #
point $-1 -59.645374919888908 37.626079828610244 9.007109515819371 #
coedge $-1 $660 $598 $555 $614 forward $593 $-1 #
edge $-1 $617 -15.452539678581735 $615 37.626079828610237 $555 $664 forward 7 unknown #
vertex $-1 $661 $665 #
straight-curve $-1 -59.645374919888908 37.626079828610237 0 0 0 -1 I I #
vertex $-1 $614 $666 #
straight-curve $-1 -59.645374919888908 -15.452539678581735 0 0 0 1 I I #
vertex $-1 $603 $667 #
straight-curve $-1 -51.917403212936208 -13.269654876797993 16.870474551407693 0 -1 0 I I #
point $-1 -51.917403212936208 -15.452539678581735 16.870474551407693 #
face $-1 $668 $669 $19 $-1 $670 reversed single #
loop $-1 $-1 $671 $564 #
plane-surface $-1 -51.917403212936208 -26.539309753595987 0 -1 0 0 0 0 1 forward_v I I I I #
coedge $-1 $634 $672 $673 $674 reversed $565 $-1 #
coedge $-1 $567 $675 $676 $677 forward $411 $-1 #
coedge $-1 $678 $579 $567 $628 reversed $639 $-1 #
edge $-1 $679 -59.645374919888908 $581 54.139387612456957 $627 $680 forward 7 unknown #
edge $-1 $569 10.185682851111462 $640 21.688825602036342 $571 $681 forward 7 unknown #
point $-1 -59.645374919888908 26.122937077685364 9.007109515819371 #
coedge $-1 $682 $571 $638 $683 forward $493 $-1 #
coedge $-1 $572 $682 $684 $685 forward $493 $-1 #
coedge $-1 $675 $574 $686 $687 forward $411 $-1 #
coedge $-1 $684 $625 $574 $635 reversed $565 $-1 #
edge $-1 $636 -31.754680386682629 $688 -24.026708679729929 $574 $689 forward 7 unknown #
vertex $-1 $685 $690 #
straight-curve $-1 -59.645374919888908 0 16.870474551407693 0 -1 0 I I #
coedge $-1 $579 $691 $631 $683 reversed $639 $-1 #
loop $-1 $-1 $579 $692 #
vertex $-1 $683 $693 #
straight-curve $-1 -51.949990071841377 37.626079828610237 19.997258379376483 0.57357642473473569 0 0.81915205242281985 I I #
point $-1 -54.139387612456957 37.626079828610244 16.870474551407693 #
straight-curve $-1 0 -37.626079828610237 -16.870474551407693 -1 0 0 I I #
straight-curve $-1 59.645374919888908 0 -16.870474551407693 0 -1 0 I I #
point $-1 59.645374919888908 -37.626079828610237 -16.870474551407693 #
face $-1 $-1 $606 $18 $-1 $694 reversed single #
plane-surface $-1 0 37.626079828610237 0 0 -1 0 0 0 -1 forward_v I I I I #
coedge $-1 $655 $595 $695 $696 reversed $537 $-1 #
coedge $-1 $598 $695 $596 $650 forward $593 $-1 #
edge $-1 $651 -24.356424951812244 $600 -2.1828848017837412 $649 $697 forward 7 unknown #
vertex $-1 $597 $698 #
straight-curve $-1 -51.917403212936208 -37.626079828610237 0 0 0 -1 I I #
straight-curve $-1 -27.890694533206279 -15.452539678581735 -16.870474551407693 -1 0 0 I I #
point $-1 -51.917403212936208 -15.452539678581735 -16.870474551407693 #
coedge $-1 $602 $648 $604 $658 reversed $537 $-1 #
straight-curve $-1 0 -37.626079828610237 16.870474551407693 1 0 0 I I #
coedge $-1 $605 $604 $699 $700 reversed $606 $-1 #
edge $-1 $607 -16.870474551407693 $701 16.870474551407693 $604 $702 forward 7 unknown #
point $-1 59.645374919888908 -37.626079828610237 16.870474551407693 #
coedge $-1 $699 $613 $609 $661 forward $593 $-1 #
edge $-1 $615 -59.645374919888908 $662 59.645374919888908 $609 $703 forward 7 unknown #
vertex $-1 $700 $704 #
straight-curve $-1 59.645374919888908 37.626079828610237 0 0 0 -1 I I #
straight-curve $-1 -59.645374919888908 0 -16.870474551407693 0 1 0 I I #
point $-1 -59.645374919888908 37.626079828610237 -16.870474551407693 #
point $-1 -59.645374919888908 -15.452539678581735 -16.870474551407693 #
point $-1 -51.917403212936208 -37.626079828610237 16.870474551407693 #
face $-1 $692 $705 $19 $-1 $706 reversed single #
loop $-1 $-1 $707 $622 #
plane-surface $-1 0 -37.626079828610237 0 0 1 0 0 0 1 forward_v I I I I #
coedge $-1 $686 $708 $707 $709 reversed $623 $-1 #
coedge $-1 $625 $684 $710 $711 reversed $565 $-1 #
coedge $-1 $708 $686 $625 $674 forward $623 $-1 #
edge $-1 $688 -16.870474551407693 $712 16.870474551407693 $673 $713 forward 7 unknown #
coedge $-1 $626 $633 $714 $715 forward $411 $-1 #
coedge $-1 $716 $717 $626 $677 reversed $718 $-1 #
edge $-1 $719 -37.626079828610237 $679 37.626079828610237 $676 $720 forward 7 unknown #
coedge $-1 $691 $627 $717 $721 forward $639 $-1 #
vertex $-1 $677 $722 #
straight-curve $-1 0 37.626079828610237 16.870474551407693 -1 0 0 I I #
straight-curve $-1 -59.645374919888908 15.937254226573902 9.0071095158193728 0 1 0 I I #
coedge $-1 $632 $631 $723 $724 reversed $493 $-1 #
edge $-1 $640 -9.007109515819371 $725 16.870474551407693 $638 $726 forward 7 unknown #
coedge $-1 $672 $634 $632 $685 reversed $565 $-1 #
edge $-1 $727 -16.870474551407693 $636 16.870474551407693 $632 $728 forward 7 unknown #
coedge $-1 $673 $671 $633 $687 reversed $623 $-1 #
edge $-1 $688 2.1828848017837412 $729 24.356424951812244 $633 $730 forward 7 unknown #
vertex $-1 $635 $731 #
straight-curve $-1 -27.890694533206279 -15.452539678581735 16.870474551407693 1 0 0 I I #
point $-1 -59.645374919888908 -15.452539678581735 16.870474551407693 #
coedge $-1 $638 $678 $732 $733 reversed $639 $-1 #
face $-1 $734 $639 $19 $-1 $735 reversed single #
point $-1 -59.645374919888908 37.626079828610244 9.007109515819371 #
plane-surface $-1 59.645374919888908 0 0 -1 0 0 0 0 1 forward_v I I I I #
coedge $-1 $649 $699 $648 $696 forward $593 $-1 #
edge $-1 $701 -59.645374919888908 $651 51.917403212936208 $648 $736 forward 7 unknown #
straight-curve $-1 -51.917403212936208 -13.269654876797993 -16.870474551407693 0 1 0 I I #
point $-1 -51.917403212936208 -37.626079828610237 -16.870474551407693 #
coedge $-1 $695 $660 $657 $700 forward $593 $-1 #
edge $-1 $662 -37.626079828610237 $701 37.626079828610237 $657 $737 forward 7 unknown #
vertex $-1 $658 $738 #
straight-curve $-1 59.645374919888908 -37.626079828610237 0 0 0 -1 I I #
straight-curve $-1 0 37.626079828610237 -16.870474551407693 1 0 0 I I #
point $-1 59.645374919888908 37.626079828610237 -16.870474551407693 #
loop $-1 $-1 $710 $668 #
plane-surface $-1 0 0 -16.870474551407693 0 0 1 1 0 0 forward_v I I I I #
coedge $-1 $739 $714 $671 $709 forward $669 $-1 #
coedge $-1 $671 $673 $740 $741 reversed $623 $-1 #
edge $-1 $729 -16.870474551407693 $742 16.870474551407693 $707 $743 forward 7 unknown #
coedge $-1 $723 $740 $672 $711 forward $705 $-1 #
edge $-1 $712 24.026708679729929 $727 31.754680386682629 $710 $744 forward 7 unknown #
vertex $-1 $711 $745 #
straight-curve $-1 -51.917403212936208 -15.452539678581735 0 0 0 -1 I I #
coedge $-1 $707 $746 $675 $715 reversed $669 $-1 #
edge $-1 $729 -51.917403212936208 $719 59.645374919888908 $714 $747 forward 7 unknown #
coedge $-1 $748 $676 $746 $749 forward $718 $-1 #
coedge $-1 $676 $748 $678 $721 reversed $718 $-1 #
loop $-1 $-1 $716 $734 #
vertex $-1 $677 $750 #
straight-curve $-1 59.645374919888908 0 16.870474551407693 0 1 0 I I #
edge $-1 $679 -16.870474551407693 $751 16.870474551407693 $717 $752 forward 7 unknown #
point $-1 59.645374919888908 37.626079828610237 16.870474551407693 #
coedge $-1 $732 $710 $682 $724 forward $705 $-1 #
edge $-1 $727 -15.452539678581735 $725 37.626079828610237 $682 $753 forward 7 unknown #
vertex $-1 $733 $754 #
straight-curve $-1 -59.645374919888908 37.626079828610237 0 0 0 -1 I I #
vertex $-1 $724 $755 #
straight-curve $-1 -59.645374919888908 -15.452539678581735 0 0 0 1 I I #
vertex $-1 $715 $756 #
straight-curve $-1 -51.917403212936208 -13.269654876797993 16.870474551407693 0 -1 0 I I #
point $-1 -51.917403212936208 -15.452539678581735 16.870474551407693 #
coedge $-1 $757 $723 $691 $733 forward $705 $-1 #
edge $-1 $725 -59.645374919888908 $751 59.645374919888908 $691 $758 forward 7 unknown #
face $-1 $-1 $718 $19 $-1 $759 reversed single #
plane-surface $-1 0 37.626079828610237 0 0 -1 0 0 0 -1 forward_v I I I I #
straight-curve $-1 0 -37.626079828610237 -16.870474551407693 -1 0 0 I I #
straight-curve $-1 59.645374919888908 0 -16.870474551407693 0 -1 0 I I #
point $-1 59.645374919888908 -37.626079828610237 -16.870474551407693 #
coedge $-1 $746 $707 $760 $761 reversed $669 $-1 #
coedge $-1 $710 $760 $708 $741 forward $705 $-1 #
edge $-1 $742 -24.356424951812244 $712 -2.1828848017837412 $740 $762 forward 7 unknown #
vertex $-1 $709 $763 #
straight-curve $-1 -51.917403212936208 -37.626079828610237 0 0 0 -1 I I #
straight-curve $-1 -27.890694533206279 -15.452539678581735 -16.870474551407693 -1 0 0 I I #
point $-1 -51.917403212936208 -15.452539678581735 -16.870474551407693 #
coedge $-1 $714 $739 $716 $749 reversed $669 $-1 #
straight-curve $-1 0 -37.626079828610237 16.870474551407693 1 0 0 I I #
coedge $-1 $717 $716 $757 $764 reversed $718 $-1 #
edge $-1 $719 -16.870474551407693 $765 16.870474551407693 $716 $766 forward 7 unknown #
point $-1 59.645374919888908 -37.626079828610237 16.870474551407693 #
vertex $-1 $764 $767 #
straight-curve $-1 59.645374919888908 37.626079828610237 0 0 0 -1 I I #
straight-curve $-1 -59.645374919888908 0 -16.870474551407693 0 1 0 I I #
point $-1 -59.645374919888908 37.626079828610237 -16.870474551407693 #
point $-1 -59.645374919888908 -15.452539678581735 -16.870474551407693 #
point $-1 -51.917403212936208 -37.626079828610237 16.870474551407693 #
coedge $-1 $760 $732 $748 $764 forward $705 $-1 #
straight-curve $-1 0 37.626079828610237 -16.870474551407693 1 0 0 I I #
plane-surface $-1 59.645374919888908 0 0 -1 0 0 0 0 1 forward_v I I I I #
coedge $-1 $740 $757 $739 $761 forward $705 $-1 #
edge $-1 $765 -59.645374919888908 $742 51.917403212936208 $739 $768 forward 7 unknown #
straight-curve $-1 -51.917403212936208 -13.269654876797993 -16.870474551407693 0 1 0 I I #
point $-1 -51.917403212936208 -37.626079828610237 -16.870474551407693 #
edge $-1 $751 -37.626079828610237 $765 37.626079828610237 $748 $769 forward 7 unknown #
vertex $-1 $749 $770 #
straight-curve $-1 59.645374919888908 -37.626079828610237 0 0 0 -1 I I #
point $-1 59.645374919888908 37.626079828610237 -16.870474551407693 #
straight-curve $-1 0 -37.626079828610237 -16.870474551407693 -1 0 0 I I #
straight-curve $-1 59.645374919888908 0 -16.870474551407693 0 -1 0 I I #
point $-1 59.645374919888908 -37.626079828610237 -16.870474551407693 #
End-of-ACIS-data 