500 0 5 0           
7 Unknown 11 ACIS 5.0 NT 24 Fri Mar 26 16:27:48 1999 
-1 9.9999999999999995e-007 1e-010 
body $-1 $5 $-1 $6 #
body $-1 $7 $-1 $8 #
body $-1 $9 $-1 $10 #
body $-1 $11 $-1 $12 #
body $-1 $13 $-1 $14 #
lump $-1 $-1 $15 $0 #
transform $-1 1 0 0 0 1 0 0 0 1 64.207281716360967 34.163870235193386 12.963127995275213 1 rotate no_reflect no_shear #
lump $-1 $-1 $16 $1 #
transform $-1 1 0 0 0 1 0 0 0 1 64.207281716360967 34.163870235193386 12.963127995275213 1 rotate no_reflect no_shear #
lump $-1 $-1 $17 $2 #
transform $-1 1 0 0 0 1 0 0 0 1 64.207281716360967 34.163870235193386 12.963127995275213 1 rotate no_reflect no_shear #
lump $-1 $-1 $18 $3 #
transform $-1 1 0 0 0 1 0 0 0 1 64.207281716360967 34.163870235193386 12.963127995275213 1 rotate no_reflect no_shear #
lump $-1 $-1 $19 $4 #
transform $-1 1 0 0 0 1 0 0 0 1 64.207281716360967 34.163870235193386 12.963127995275213 1 rotate no_reflect no_shear #
shell $-1 $-1 $-1 $20 $-1 $5 #
shell $-1 $-1 $-1 $21 $-1 $7 #
shell $-1 $-1 $-1 $22 $-1 $9 #
shell $-1 $-1 $-1 $23 $-1 $11 #
shell $-1 $-1 $-1 $24 $-1 $13 #
face $-1 $25 $26 $15 $-1 $27 forward single #
face $-1 $28 $29 $16 $-1 $30 forward single #
face $-1 $31 $32 $17 $-1 $33 reversed single #
face $-1 $34 $35 $18 $-1 $36 forward single #
face $-1 $37 $38 $19 $-1 $39 forward single #
face $-1 $40 $41 $15 $-1 $42 reversed single #
loop $-1 $-1 $43 $20 #
plane-surface $-1 0 0 12.963127995275213 0 0 1 1 0 0 forward_v I I I I #
face $-1 $44 $45 $16 $-1 $46 reversed single #
loop $-1 $-1 $47 $21 #
plane-surface $-1 0 -26.866737292433562 -4.3622907240088722 0 0 1 1 0 0 forward_v I I I I #
face $-1 $48 $49 $17 $-1 $50 reversed single #
loop $-1 $-1 $51 $22 #
plane-surface $-1 51.539116162587632 22.226873421830248 187.31801398882158 0 1 0 0.6560590369687036 0 0.75470957328743171 forward_v I I I I #
face $-1 $52 $53 $18 $-1 $54 forward single #
loop $-1 $55 $56 $23 #
cone-surface $-1 59.634547171912345 25.637443939934002 8.8035298124970485 -0.6560590369687036 0 -0.75470957328743171 0.75470957328743171 0 -0.6560590369687036 1 I I 0 1 1 forward I I I I #
face $-1 $57 $58 $19 $-1 $59 forward single #
loop $-1 $60 $61 $24 #
cone-surface $-1 59.634547171912345 30.753299717089632 8.8035298124970485 -0.6560590369687036 0 -0.75470957328743171 0.75470957328743171 0 -0.6560590369687036 1 I I 0 1 1 forward I I I I #
face $-1 $62 $63 $15 $-1 $64 reversed single #
loop $-1 $-1 $65 $25 #
plane-surface $-1 0 0 -12.963127995275213 0 0 1 1 0 0 forward_v I I I I #
coedge $-1 $66 $67 $68 $69 forward $26 $-1 #
face $-1 $70 $71 $16 $-1 $72 reversed single #
loop $-1 $-1 $73 $28 #
plane-surface $-1 0 -26.866737292433562 -7.9749709274835325 0 0 1 1 0 0 forward_v I I I I #
coedge $-1 $74 $75 $76 $77 reversed $29 $-1 #
face $-1 $78 $79 $17 $-1 $80 forward single #
loop $-1 $-1 $81 $31 #
plane-surface $-1 -32.708418655840418 28.195371828511824 90.402313616620177 0.6560590369687036 0 0.75470957328743171 0.75470957328743171 0 -0.6560590369687036 forward_v I I I I #
coedge $-1 $82 $83 $84 $85 reversed $32 $-1 #
face $-1 $-1 $86 $18 $-1 $87 forward single #
loop $-1 $88 $89 $34 #
cone-surface $-1 58.649837936197258 25.637443939934002 7.6707514416167175 -0.6560590369687036 0 -0.75470957328743171 0.37735478664371586 0 -0.3280295184843518 1 I I -0.70710678118654746 0.70710678118654746 0.5 forward I I I I #
loop $-1 $-1 $90 $23 #
coedge $-1 $56 $56 $91 $92 reversed $35 $-1 #
face $-1 $-1 $93 $19 $-1 $94 forward single #
loop $-1 $95 $96 $37 #
cone-surface $-1 58.649837936197258 30.753299717089632 7.6707514416167175 -0.6560590369687036 0 -0.75470957328743171 0.37735478664371586 0 -0.3280295184843518 1 I I -0.70710678118654746 0.70710678118654746 0.5 forward I I I I #
loop $-1 $-1 $97 $24 #
coedge $-1 $61 $61 $98 $99 reversed $38 $-1 #
face $-1 $100 $101 $15 $-1 $102 reversed single #
loop $-1 $-1 $103 $40 #
plane-surface $-1 0 -34.163870235193386 0 0 1 0 0 0 1 forward_v I I I I #
coedge $-1 $104 $105 $106 $107 forward $41 $-1 #
coedge $-1 $108 $43 $109 $110 forward $26 $-1 #
coedge $-1 $43 $108 $111 $112 forward $26 $-1 #
coedge $-1 $113 $114 $43 $69 reversed $115 $-1 #
edge $-1 $116 -34.163870235193386 $117 34.163870235193386 $68 $118 forward 7 unknown #
face $-1 $119 $120 $16 $-1 $121 reversed single #
loop $-1 $-1 $122 $44 #
plane-surface $-1 0 -19.569604349673739 -6.1686308257462024 0 -1 0 0 0 -1 forward_v I I I I #
coedge $-1 $123 $124 $125 $126 reversed $45 $-1 #
coedge $-1 $127 $47 $128 $129 forward $29 $-1 #
coedge $-1 $47 $127 $130 $131 reversed $29 $-1 #
coedge $-1 $132 $133 $47 $77 forward $134 $-1 #
edge $-1 $135 6.1362357034569577 $136 20.730501588976605 $76 $137 forward 7 unknown #
face $-1 $138 $139 $17 $-1 $140 reversed single #
loop $-1 $-1 $141 $48 #
plane-surface $-1 0 0 12.963127995275213 0 0 1 1 0 0 forward_v I I I I #
coedge $-1 $142 $143 $144 $145 reversed $49 $-1 #
coedge $-1 $83 $51 $146 $147 reversed $32 $-1 #
coedge $-1 $51 $82 $142 $148 reversed $32 $-1 #
coedge $-1 $144 $149 $51 $85 forward $139 $-1 #
edge $-1 $150 80.695878999135573 $151 87.504228196218648 $84 $152 forward 7 unknown #
loop $-1 $-1 $91 $52 #
plane-surface $-1 -32.708418655840418 28.195371828511824 90.402313616620177 0.6560590369687036 0 0.75470957328743171 0.75470957328743171 0 -0.6560590369687036 forward_v I I I I #
loop $-1 $-1 $153 $34 #
coedge $-1 $89 $89 $90 $154 reversed $53 $-1 #
coedge $-1 $90 $90 $89 $154 forward $55 $-1 #
coedge $-1 $91 $91 $56 $92 forward $86 $-1 #
edge $-1 $155 0 $155 6.2831853071796004 $91 $156 forward 7 unknown #
loop $-1 $-1 $98 $57 #
plane-surface $-1 -32.708418655840418 28.195371828511824 90.402313616620177 0.6560590369687036 0 0.75470957328743171 0.75470957328743171 0 -0.6560590369687036 forward_v I I I I #
loop $-1 $-1 $157 $37 #
coedge $-1 $96 $96 $97 $158 reversed $58 $-1 #
coedge $-1 $97 $97 $96 $158 forward $60 $-1 #
coedge $-1 $98 $98 $61 $99 forward $93 $-1 #
edge $-1 $159 0 $159 6.2831853071796004 $98 $160 forward 7 unknown #
face $-1 $161 $162 $15 $-1 $163 reversed single #
loop $-1 $-1 $164 $62 #
plane-surface $-1 -64.207281716360967 0 0 1 0 0 0 0 -1 forward_v I I I I #
coedge $-1 $165 $111 $166 $167 forward $63 $-1 #
coedge $-1 $168 $65 $165 $169 forward $41 $-1 #
coedge $-1 $65 $168 $170 $171 forward $41 $-1 #
coedge $-1 $114 $113 $65 $107 reversed $115 $-1 #
edge $-1 $172 -34.163870235193386 $173 34.163870235193386 $106 $174 forward 7 unknown #
coedge $-1 $67 $66 $175 $176 forward $26 $-1 #
coedge $-1 $177 $178 $66 $110 reversed $162 $-1 #
edge $-1 $117 -64.207281716360967 $179 64.207281716360967 $109 $180 forward 7 unknown #
coedge $-1 $103 $181 $67 $112 reversed $63 $-1 #
edge $-1 $182 -64.207281716360967 $116 64.207281716360967 $111 $183 forward 7 unknown #
coedge $-1 $106 $68 $181 $184 forward $115 $-1 #
coedge $-1 $68 $106 $177 $185 reversed $115 $-1 #
loop $-1 $-1 $113 $161 #
vertex $-1 $69 $186 #
vertex $-1 $69 $187 #
straight-curve $-1 64.207281716360967 0 12.963127995275213 0 1 0 I I #
face $-1 $188 $189 $16 $-1 $190 reversed single #
loop $-1 $-1 $191 $70 #
plane-surface $-1 -64.207281716360967 0 0 1 0 0 0 0 -1 forward_v I I I I #
coedge $-1 $192 $128 $133 $193 reversed $71 $-1 #
coedge $-1 $194 $73 $195 $196 reversed $45 $-1 #
coedge $-1 $73 $194 $192 $197 forward $45 $-1 #
coedge $-1 $133 $132 $73 $126 forward $134 $-1 #
edge $-1 $198 -20.730501588976605 $199 -6.1362357034569577 $125 $200 forward 7 unknown #
coedge $-1 $75 $74 $191 $201 reversed $29 $-1 #
coedge $-1 $122 $202 $74 $129 reversed $71 $-1 #
edge $-1 $135 -64.207281716360967 $203 64.207281716360967 $128 $204 forward 7 unknown #
coedge $-1 $205 $206 $75 $131 forward $189 $-1 #
edge $-1 $136 -64.207281716360967 $207 64.207281716360967 $130 $208 forward 7 unknown #
coedge $-1 $125 $76 $206 $209 forward $134 $-1 #
coedge $-1 $76 $125 $122 $193 forward $134 $-1 #
loop $-1 $-1 $76 $188 #
vertex $-1 $77 $210 #
vertex $-1 $209 $211 #
straight-curve $-1 64.207281716360967 -13.433368646216781 -4.3622907240088722 0 -1 0 I I #
face $-1 $-1 $212 $17 $-1 $213 reversed single #
loop $-1 $-1 $84 $78 #
plane-surface $-1 64.207281716360967 0 0 -1 0 0 0 0 1 forward_v I I I I #
coedge $-1 $146 $214 $215 $216 forward $79 $-1 #
coedge $-1 $215 $81 $83 $148 forward $49 $-1 #
coedge $-1 $81 $215 $217 $218 reversed $49 $-1 #
coedge $-1 $219 $84 $81 $145 forward $139 $-1 #
edge $-1 $151 8.1291875075743363 $220 20.066184320937488 $144 $221 forward 7 unknown #
coedge $-1 $222 $141 $82 $147 forward $79 $-1 #
edge $-1 $223 30.605613980631411 $150 38.437723635067151 $146 $224 forward 7 unknown #
edge $-1 $151 -128.41456343272191 $223 -118.03691627989738 $83 $225 forward 7 unknown #
coedge $-1 $84 $219 $222 $226 reversed $139 $-1 #
vertex $-1 $226 $227 #
vertex $-1 $85 $228 #
straight-curve $-1 64.207281716360967 22.226873421830248 93.659006994410788 0 0 -1 I I #
coedge $-1 $153 $153 $-1 $229 reversed $88 $-1 #
edge $-1 $230 0 $230 6.2831853071796004 $89 $231 forward 7 unknown #
vertex $-1 $92 $232 #
ellipse-curve $-1 60.291226889143097 25.637443939934002 9.5589533967336795 0.6560590369687036 0 0.75470957328743171 0.75470957328743171 0 -0.6560590369687036 1 I I #
coedge $-1 $157 $157 $-1 $233 reversed $95 $-1 #
edge $-1 $234 0 $234 6.2831853071796004 $96 $235 forward 7 unknown #
vertex $-1 $99 $236 #
ellipse-curve $-1 60.291226889143097 30.753299717089632 9.5589533967336795 0.6560590369687036 0 0.75470957328743171 0.75470957328743171 0 -0.6560590369687036 1 I I #
face $-1 $-1 $115 $15 $-1 $237 reversed single #
loop $-1 $-1 $177 $100 #
plane-surface $-1 0 34.163870235193386 0 0 -1 0 0 0 -1 forward_v I I I I #
coedge $-1 $238 $175 $178 $239 forward $101 $-1 #
coedge $-1 $181 $103 $104 $169 reversed $63 $-1 #
coedge $-1 $175 $238 $103 $167 reversed $101 $-1 #
edge $-1 $182 -12.963127995275213 $240 12.963127995275213 $166 $241 forward 7 unknown #
coedge $-1 $105 $104 $238 $242 forward $41 $-1 #
edge $-1 $173 -64.207281716360967 $240 64.207281716360967 $165 $243 forward 7 unknown #
coedge $-1 $178 $177 $105 $171 reversed $162 $-1 #
edge $-1 $244 -64.207281716360967 $172 64.207281716360967 $170 $245 forward 7 unknown #
vertex $-1 $107 $246 #
vertex $-1 $184 $247 #
straight-curve $-1 64.207281716360967 0 -12.963127995275213 0 -1 0 I I #
coedge $-1 $164 $166 $108 $176 reversed $101 $-1 #
edge $-1 $179 -34.163870235193386 $182 34.163870235193386 $175 $248 forward 7 unknown #
coedge $-1 $170 $109 $114 $185 forward $162 $-1 #
coedge $-1 $109 $170 $164 $239 reversed $162 $-1 #
vertex $-1 $110 $249 #
straight-curve $-1 0 34.163870235193386 12.963127995275213 -1 0 0 I I #
coedge $-1 $111 $165 $113 $184 reversed $63 $-1 #
vertex $-1 $176 $250 #
straight-curve $-1 0 -34.163870235193386 12.963127995275213 1 0 0 I I #
edge $-1 $116 -12.963127995275213 $173 12.963127995275213 $113 $251 forward 7 unknown #
edge $-1 $117 -12.963127995275213 $172 12.963127995275213 $114 $252 forward 7 unknown #
point $-1 64.207281716360967 -34.163870235193386 12.963127995275213 #
point $-1 64.207281716360967 34.163870235193386 12.963127995275213 #
face $-1 $-1 $134 $16 $-1 $253 reversed single #
loop $-1 $-1 $130 $119 #
plane-surface $-1 0 -34.163870235193386 0 0 1 0 0 0 1 forward_v I I I I #
coedge $-1 $254 $255 $127 $201 forward $120 $-1 #
coedge $-1 $202 $122 $124 $197 reversed $71 $-1 #
edge $-1 $199 -4.8906555146104314 $135 -1.277975311135771 $133 $256 forward 7 unknown #
coedge $-1 $124 $123 $257 $258 reversed $45 $-1 #
coedge $-1 $206 $205 $123 $196 forward $189 $-1 #
edge $-1 $259 -64.207281716360967 $198 64.207281716360967 $195 $260 forward 7 unknown #
edge $-1 $261 -64.207281716360967 $199 64.207281716360967 $192 $262 forward 7 unknown #
vertex $-1 $196 $263 #
vertex $-1 $126 $264 #
straight-curve $-1 64.207281716360967 -13.433368646216781 -7.9749709274835325 0 1 0 I I #
edge $-1 $207 -20.730501588976605 $203 -6.1362357034569577 $191 $265 forward 7 unknown #
coedge $-1 $128 $192 $254 $266 reversed $71 $-1 #
vertex $-1 $201 $267 #
straight-curve $-1 0 -19.569604349673739 -4.3622907240088722 -1 0 0 I I #
coedge $-1 $195 $130 $255 $268 forward $189 $-1 #
coedge $-1 $130 $195 $132 $209 reversed $189 $-1 #
vertex $-1 $268 $269 #
straight-curve $-1 0 -34.163870235193386 -4.3622907240088722 -1 0 0 I I #
edge $-1 $136 4.3622907240088722 $198 7.9749709274835325 $132 $270 forward 7 unknown #
point $-1 64.207281716360967 -19.569604349673739 -4.3622907240088722 #
point $-1 64.207281716360967 -34.163870235193386 -4.3622907240088722 #
loop $-1 $-1 $217 $138 #
plane-surface $-1 0 34.163870235193386 0 0 -1 0 0 0 -1 forward_v I I I I #
coedge $-1 $141 $222 $271 $272 forward $79 $-1 #
coedge $-1 $143 $142 $141 $216 reversed $49 $-1 #
edge $-1 $273 -20.066184320937488 $223 -8.1291875075743363 $141 $274 forward 7 unknown #
coedge $-1 $271 $275 $143 $218 forward $212 $-1 #
edge $-1 $220 -86.41725768386263 $273 -76.039610531038107 $217 $276 forward 7 unknown #
coedge $-1 $149 $144 $275 $277 reversed $139 $-1 #
vertex $-1 $218 $278 #
straight-curve $-1 64.207281716360967 14.097685914255912 6.1547787981921402 0 1 0 I I #
coedge $-1 $214 $146 $149 $226 forward $79 $-1 #
vertex $-1 $147 $279 #
straight-curve $-1 25.769558081293816 22.226873421830248 12.963127995275215 1 0 0 I I #
straight-curve $-1 -32.708418655840418 22.226873421830248 90.402313616620177 -0.75470957328743171 0 0.6560590369687036 I I #
edge $-1 $150 22.226873421830248 $280 34.163870235193386 $149 $281 forward 7 unknown #
point $-1 64.207281716360967 22.226873421830248 12.963127995275213 #
point $-1 64.207281716360967 22.226873421830248 6.1547787981921402 #
edge $-1 $282 1 $282 0 $153 $-1 forward 7 unknown #
vertex $-1 $154 $283 #
ellipse-curve $-1 58.977867454681608 25.637443939934002 8.0481062282604334 0.6560590369687036 0 0.75470957328743171 0.75470957328743171 0 -0.6560590369687036 1 I I #
point $-1 61.045936462430518 25.637443939934002 8.9028943597649608 #
edge $-1 $284 1 $284 0 $157 $-1 forward 7 unknown #
vertex $-1 $158 $285 #
ellipse-curve $-1 58.977867454681608 30.753299717089632 8.0481062282604334 0.6560590369687036 0 0.75470957328743171 0.75470957328743171 0 -0.6560590369687036 1 I I #
point $-1 61.045936462430518 30.753299717089632 8.9028943597649608 #
plane-surface $-1 64.207281716360967 0 0 -1 0 0 0 0 1 forward_v I I I I #
coedge $-1 $166 $164 $168 $242 reversed $101 $-1 #
edge $-1 $179 -12.963127995275213 $244 12.963127995275213 $178 $286 forward 7 unknown #
vertex $-1 $242 $287 #
straight-curve $-1 -64.207281716360967 -34.163870235193386 0 0 0 -1 I I #
edge $-1 $240 -34.163870235193386 $244 34.163870235193386 $238 $288 forward 7 unknown #
straight-curve $-1 0 -34.163870235193386 -12.963127995275213 -1 0 0 I I #
vertex $-1 $171 $289 #
straight-curve $-1 0 34.163870235193386 -12.963127995275213 1 0 0 I I #
point $-1 64.207281716360967 34.163870235193386 -12.963127995275213 #
point $-1 64.207281716360967 -34.163870235193386 -12.963127995275213 #
straight-curve $-1 -64.207281716360967 0 12.963127995275213 0 -1 0 I I #
point $-1 -64.207281716360967 34.163870235193386 12.963127995275213 #
point $-1 -64.207281716360967 -34.163870235193386 12.963127995275213 #
straight-curve $-1 64.207281716360967 -34.163870235193386 0 0 0 -1 I I #
straight-curve $-1 64.207281716360967 34.163870235193386 0 0 0 -1 I I #
plane-surface $-1 64.207281716360967 0 0 -1 0 0 0 0 1 forward_v I I I I #
coedge $-1 $257 $191 $202 $266 forward $120 $-1 #
coedge $-1 $191 $257 $205 $268 reversed $120 $-1 #
straight-curve $-1 64.207281716360967 -19.569604349673739 -3.0843154128731012 0 0 1 I I #
coedge $-1 $255 $254 $194 $258 forward $120 $-1 #
edge $-1 $261 6.1362357034569577 $259 20.730501588976605 $257 $290 forward 7 unknown #
vertex $-1 $196 $291 #
straight-curve $-1 0 -34.163870235193386 -7.9749709274835325 1 0 0 I I #
vertex $-1 $258 $292 #
straight-curve $-1 0 -19.569604349673739 -7.9749709274835325 1 0 0 I I #
point $-1 64.207281716360967 -34.163870235193386 -7.9749709274835325 #
point $-1 64.207281716360967 -19.569604349673739 -7.9749709274835325 #
straight-curve $-1 -64.207281716360967 -13.433368646216781 -4.3622907240088722 0 1 0 I I #
edge $-1 $203 1.277975311135771 $261 4.8906555146104314 $254 $293 forward 7 unknown #
point $-1 -64.207281716360967 -19.569604349673739 -4.3622907240088722 #
edge $-1 $207 4.3622907240088722 $259 7.9749709274835325 $255 $294 forward 7 unknown #
point $-1 -64.207281716360967 -34.163870235193386 -4.3622907240088722 #
straight-curve $-1 64.207281716360967 -34.163870235193386 0 0 0 -1 I I #
coedge $-1 $275 $217 $214 $272 reversed $212 $-1 #
edge $-1 $280 -64.207281716360967 $273 -56.375172061925227 $271 $295 forward 7 unknown #
vertex $-1 $218 $296 #
straight-curve $-1 56.37517206192522 14.097685914255912 12.963127995275229 0 -1 0 I I #
coedge $-1 $217 $271 $219 $277 forward $212 $-1 #
straight-curve $-1 -1.0126499548970358 34.163870235193386 62.849601651743363 -0.75470957328743171 0 0.6560590369687036 I I #
edge $-1 $280 -12.963127995275213 $220 -6.1547787981921402 $219 $297 forward 7 unknown #
point $-1 64.207281716360967 34.1638702351934 6.1547787981921402 #
point $-1 56.375172061925227 22.226873421830248 12.963127995275215 #
vertex $-1 $226 $298 #
straight-curve $-1 64.207281716360967 0 12.963127995275213 0 1 0 I I #
vertex $-1 $229 $299 #
point $-1 59.732577027969043 25.637443939934002 7.3920471912917298 #
vertex $-1 $233 $300 #
point $-1 59.732577027969043 30.753299717089632 7.3920471912917298 #
straight-curve $-1 -64.207281716360967 34.163870235193386 0 0 0 -1 I I #
point $-1 -64.207281716360967 -34.163870235193386 -12.963127995275213 #
straight-curve $-1 -64.207281716360967 0 -12.963127995275213 0 1 0 I I #
point $-1 -64.207281716360967 34.163870235193386 -12.963127995275213 #
straight-curve $-1 -64.207281716360967 -13.433368646216781 -7.9749709274835325 0 -1 0 I I #
point $-1 -64.207281716360967 -34.163870235193386 -7.9749709274835325 #
point $-1 -64.207281716360967 -19.569604349673739 -7.9749709274835325 #
straight-curve $-1 -64.207281716360967 -19.569604349673739 -3.0843154128731012 0 0 -1 I I #
straight-curve $-1 -64.207281716360967 -34.163870235193386 0 0 0 -1 I I #
straight-curve $-1 0 34.163870235193386 12.963127995275213 -1 0 0 I I #
point $-1 56.375172061925227 34.1638702351934 12.963127995275215 #
straight-curve $-1 64.207281716360967 34.163870235193386 0 0 0 -1 I I #
point $-1 64.207281716360967 34.163870235193386 12.963127995275213 #
point $-1 58.321808417712909 25.637443939934002 7.2933966549730016 #
point $-1 58.321808417712909 30.753299717089632 7.2933966549730016 #
End-of-ACIS-data 