500 0 8 0           
7 Unknown 11 ACIS 5.0 NT 24 Fri Mar 26 14:59:30 1999 
-1 9.9999999999999995e-007 1e-010 
body $-1 $8 $-1 $9 #
body $-1 $10 $-1 $11 #
body $-1 $12 $-1 $13 #
body $-1 $14 $-1 $15 #
body $-1 $16 $-1 $17 #
body $-1 $18 $-1 $19 #
body $-1 $20 $-1 $21 #
body $-1 $22 $-1 $23 #
lump $-1 $-1 $24 $0 #
transform $-1 1 0 0 0 1 0 0 0 1 48.270516067995239 26.796934978229736 8.8380735497063068 1 rotate no_reflect no_shear #
lump $-1 $-1 $25 $1 #
transform $-1 1 0 0 0 1 0 0 0 1 48.270516067995239 26.796934978229736 8.8380735497063068 1 rotate no_reflect no_shear #
lump $-1 $-1 $26 $2 #
transform $-1 1 0 0 0 1 0 0 0 1 48.270516067995239 26.796934978229736 8.8380735497063068 1 rotate no_reflect no_shear #
lump $-1 $-1 $27 $3 #
transform $-1 1 0 0 0 1 0 0 0 1 48.270516067995239 26.796934978229736 8.8380735497063068 1 rotate no_reflect no_shear #
lump $-1 $-1 $28 $4 #
transform $-1 1 0 0 0 1 0 0 0 1 48.270516067995239 26.796934978229736 8.8380735497063068 1 rotate no_reflect no_shear #
lump $-1 $-1 $29 $5 #
transform $-1 1 0 0 0 1 0 0 0 1 48.270516067995239 26.796934978229736 8.8380735497063068 1 rotate no_reflect no_shear #
lump $-1 $-1 $30 $6 #
transform $-1 1 0 0 0 1 0 0 0 1 48.270516067995239 26.796934978229736 8.8380735497063068 1 rotate no_reflect no_shear #
lump $-1 $-1 $31 $7 #
transform $-1 1 0 0 0 1 0 0 0 1 48.270516067995239 26.796934978229736 8.8380735497063068 1 rotate no_reflect no_shear #
shell $-1 $-1 $-1 $32 $-1 $8 #
shell $-1 $-1 $-1 $33 $-1 $10 #
shell $-1 $-1 $-1 $34 $-1 $12 #
shell $-1 $-1 $-1 $35 $-1 $14 #
shell $-1 $-1 $-1 $36 $-1 $16 #
shell $-1 $-1 $-1 $37 $-1 $18 #
shell $-1 $-1 $-1 $38 $-1 $20 #
shell $-1 $-1 $-1 $39 $-1 $22 #
face $-1 $40 $41 $24 $-1 $42 forward single #
face $-1 $43 $44 $25 $-1 $45 forward single #
face $-1 $46 $47 $26 $-1 $48 reversed single #
face $-1 $49 $50 $27 $-1 $51 forward single #
face $-1 $52 $53 $28 $-1 $54 forward single #
face $-1 $55 $56 $29 $-1 $57 reversed single #
face $-1 $58 $59 $30 $-1 $60 forward single #
face $-1 $61 $62 $31 $-1 $63 forward single #
face $-1 $64 $65 $24 $-1 $66 reversed single #
loop $-1 $-1 $67 $32 #
plane-surface $-1 0 0 8.8380735497063068 0 0 1 1 0 0 forward_v I I I I #
face $-1 $68 $69 $25 $-1 $70 reversed single #
loop $-1 $-1 $71 $33 #
plane-surface $-1 0 -23.792518631999087 -5.8380735497063068 0 0 1 1 0 0 forward_v I I I I #
face $-1 $72 $73 $26 $-1 $74 reversed single #
loop $-1 $-1 $75 $34 #
plane-surface $-1 50.653288402216681 19.186383667772407 138.18648497550797 0 1 0 0.71933980857756763 0 0.69465836192734942 forward_v I I I I #
face $-1 $76 $77 $27 $-1 $78 forward single #
loop $-1 $79 $80 $35 #
cone-surface $-1 44.453472136199728 21.360826899331641 4.9105286721699972 -0.71933980857756763 0 -0.69465836192734942 0.17366459048183736 0 -0.17983495214439191 1 I I 0 1 0.25 forward I I I I #
face $-1 $81 $82 $28 $-1 $83 forward single #
loop $-1 $84 $85 $36 #
cone-surface $-1 44.453472136199728 24.622491746670491 4.9105286721699972 -0.71933980857756763 0 -0.69465836192734942 0.17366459048183736 0 -0.17983495214439191 1 I I 0 1 0.25 forward I I I I #
face $-1 $86 $87 $29 $-1 $88 reversed single #
loop $-1 $-1 $89 $37 #
plane-surface $-1 -116.53533534614857 17.442987761219676 70.532556581986881 0 1 0 -0.70710678939079041 0 0.70710677298230451 forward_v I I I I #
face $-1 $90 $91 $30 $-1 $92 forward single #
loop $-1 $93 $94 $38 #
cone-surface $-1 -44.451301592949747 20.115544108936838 5.0188590108207842 0.70710678939079041 0 -0.70710677298230451 0.70710677298230451 0 0.70710678939079041 1 I I 0 1 1 forward I I I I #
face $-1 $95 $96 $31 $-1 $97 forward single #
loop $-1 $98 $99 $39 #
cone-surface $-1 -44.451301592949747 24.124378630512581 5.0188590108207842 0.70710678939079041 0 -0.70710677298230451 0.70710677298230451 0 0.70710678939079041 1 I I 0 1 1 forward I I I I #
face $-1 $100 $101 $24 $-1 $102 reversed single #
loop $-1 $-1 $103 $40 #
plane-surface $-1 0 0 -8.8380735497063068 0 0 1 1 0 0 forward_v I I I I #
coedge $-1 $104 $105 $106 $107 forward $41 $-1 #
face $-1 $108 $109 $25 $-1 $110 reversed single #
loop $-1 $-1 $111 $43 #
plane-surface $-1 0 -20.788102285768439 -7.3380735497063068 0 -1 0 0 0 -1 forward_v I I I I #
coedge $-1 $112 $113 $114 $115 reversed $44 $-1 #
face $-1 $116 $117 $26 $-1 $118 forward single #
loop $-1 $-1 $119 $46 #
plane-surface $-1 -18.79251917436752 22.991659323001066 71.123449733145222 0.71933980857756763 0 0.69465836192734942 0.69465836192734942 0 -0.71933980857756763 forward_v I I I I #
coedge $-1 $120 $121 $122 $123 reversed $47 $-1 #
face $-1 $-1 $124 $27 $-1 $125 forward single #
loop $-1 $126 $127 $49 #
cone-surface $-1 44.003884755838747 21.360826899331641 4.4763671959654037 -0.71933980857756763 0 -0.69465836192734942 0.086832295240918678 0 -0.089917476072195954 1 I I -0.70710678118654746 0.70710678118654746 0.125 forward I I I I #
loop $-1 $-1 $128 $35 #
coedge $-1 $80 $80 $129 $130 reversed $50 $-1 #
face $-1 $-1 $131 $28 $-1 $132 forward single #
loop $-1 $133 $134 $52 #
cone-surface $-1 44.003884755838747 24.622491746670491 4.4763671959654037 -0.71933980857756763 0 -0.69465836192734942 0.086832295240918678 0 -0.089917476072195954 1 I I -0.70710678118654746 0.70710678118654746 0.125 forward I I I I #
loop $-1 $-1 $135 $36 #
coedge $-1 $85 $85 $136 $137 reversed $53 $-1 #
face $-1 $138 $139 $29 $-1 $140 reversed single #
loop $-1 $-1 $141 $55 #
plane-surface $-1 -48.270516067995217 22.119961369724706 2.2677388879257023 -0.70710678939079041 0 0.70710677298230451 0.70710677298230451 0 0.70710678939079041 forward_v I I I I #
coedge $-1 $142 $143 $144 $145 reversed $56 $-1 #
face $-1 $-1 $146 $30 $-1 $147 forward single #
loop $-1 $148 $149 $58 #
cone-surface $-1 -43.563700977866503 20.115544108936838 4.1312584163344059 0.70710678939079041 0 -0.70710677298230451 0.35355338649115226 0 0.35355339469539521 1 I I -0.70710678118654746 0.70710678118654746 0.5 forward I I I I #
loop $-1 $-1 $150 $38 #
coedge $-1 $94 $94 $151 $152 reversed $59 $-1 #
face $-1 $-1 $153 $31 $-1 $154 forward single #
loop $-1 $155 $156 $61 #
cone-surface $-1 -43.563700977866503 24.124378630512581 4.1312584163344059 0.70710678939079041 0 -0.70710677298230451 0.35355338649115226 0 0.35355339469539521 1 I I -0.70710678118654746 0.70710678118654746 0.5 forward I I I I #
loop $-1 $-1 $157 $39 #
coedge $-1 $99 $99 $158 $159 reversed $62 $-1 #
face $-1 $160 $161 $24 $-1 $162 reversed single #
loop $-1 $-1 $163 $64 #
plane-surface $-1 0 -26.796934978229736 0 0 1 0 0 0 1 forward_v I I I I #
coedge $-1 $164 $165 $166 $167 forward $65 $-1 #
coedge $-1 $168 $67 $169 $170 forward $41 $-1 #
coedge $-1 $67 $168 $171 $172 forward $41 $-1 #
coedge $-1 $173 $174 $67 $107 reversed $175 $-1 #
edge $-1 $176 -26.796934978229736 $177 26.796934978229736 $106 $178 forward 7 unknown #
face $-1 $179 $180 $25 $-1 $181 reversed single #
loop $-1 $-1 $182 $68 #
plane-surface $-1 0 0 -8.8380735497063068 0 0 1 1 0 0 forward_v I I I I #
coedge $-1 $183 $184 $185 $186 reversed $69 $-1 #
coedge $-1 $187 $71 $184 $188 forward $44 $-1 #
coedge $-1 $71 $187 $189 $190 reversed $44 $-1 #
coedge $-1 $191 $185 $71 $115 forward $180 $-1 #
edge $-1 $192 8.891842969768895 $193 14.900675662230192 $114 $194 forward 7 unknown #
face $-1 $195 $196 $26 $-1 $197 reversed single #
loop $-1 $-1 $198 $72 #
plane-surface $-1 0 0 8.8380735497063068 0 0 1 1 0 0 forward_v I I I I #
coedge $-1 $199 $200 $201 $202 reversed $73 $-1 #
coedge $-1 $121 $75 $203 $204 reversed $47 $-1 #
coedge $-1 $75 $120 $199 $205 reversed $47 $-1 #
coedge $-1 $201 $206 $75 $123 forward $207 $-1 #
edge $-1 $208 60.255168938047674 $209 67.415600331192962 $122 $210 forward 7 unknown #
loop $-1 $-1 $129 $76 #
plane-surface $-1 -18.79251917436752 22.991659323001066 71.123449733145222 0.71933980857756763 0 0.69465836192734942 0.69465836192734942 0 -0.71933980857756763 forward_v I I I I #
loop $-1 $-1 $211 $49 #
coedge $-1 $127 $127 $128 $212 reversed $77 $-1 #
coedge $-1 $128 $128 $127 $212 forward $79 $-1 #
coedge $-1 $129 $129 $80 $130 forward $124 $-1 #
edge $-1 $213 0 $213 6.2831853071796004 $129 $214 forward 7 unknown #
loop $-1 $-1 $136 $81 #
plane-surface $-1 -18.79251917436752 22.991659323001066 71.123449733145222 0.71933980857756763 0 0.69465836192734942 0.69465836192734942 0 -0.71933980857756763 forward_v I I I I #
loop $-1 $-1 $215 $52 #
coedge $-1 $134 $134 $135 $216 reversed $82 $-1 #
coedge $-1 $135 $135 $134 $216 forward $84 $-1 #
coedge $-1 $136 $136 $85 $137 forward $131 $-1 #
edge $-1 $217 0 $217 6.2831853071796004 $136 $218 forward 7 unknown #
face $-1 $219 $220 $29 $-1 $221 reversed single #
loop $-1 $-1 $222 $86 #
plane-surface $-1 0 26.796934978229736 0 0 -1 0 0 0 -1 forward_v I I I I #
coedge $-1 $223 $224 $225 $226 reversed $87 $-1 #
coedge $-1 $143 $89 $227 $228 reversed $56 $-1 #
coedge $-1 $89 $142 $223 $229 reversed $56 $-1 #
coedge $-1 $225 $230 $89 $145 forward $231 $-1 #
edge $-1 $232 9.997151605079047 $233 16.567486114394377 $144 $234 forward 7 unknown #
loop $-1 $-1 $151 $90 #
plane-surface $-1 -48.270516067995217 22.119961369724706 2.2677388879257023 -0.70710678939079041 0 0.70710677298230451 0.70710677298230451 0 0.70710678939079041 forward_v I I I I #
loop $-1 $-1 $235 $58 #
coedge $-1 $149 $149 $150 $236 reversed $91 $-1 #
coedge $-1 $150 $150 $149 $236 forward $93 $-1 #
coedge $-1 $151 $151 $94 $152 forward $146 $-1 #
edge $-1 $237 0 $237 6.2831853071796004 $151 $238 forward 7 unknown #
loop $-1 $-1 $158 $95 #
plane-surface $-1 -48.270516067995217 22.119961369724706 2.2677388879257023 -0.70710678939079041 0 0.70710677298230451 0.70710677298230451 0 0.70710678939079041 forward_v I I I I #
loop $-1 $-1 $239 $61 #
coedge $-1 $156 $156 $157 $240 reversed $96 $-1 #
coedge $-1 $157 $157 $156 $240 forward $98 $-1 #
coedge $-1 $158 $158 $99 $159 forward $153 $-1 #
edge $-1 $241 0 $241 6.2831853071796004 $158 $242 forward 7 unknown #
face $-1 $243 $244 $24 $-1 $245 reversed single #
loop $-1 $-1 $246 $100 #
plane-surface $-1 -48.270516067995239 0 0 1 0 0 0 0 -1 forward_v I I I I #
coedge $-1 $247 $171 $248 $249 forward $101 $-1 #
coedge $-1 $250 $103 $247 $251 forward $65 $-1 #
coedge $-1 $103 $250 $252 $253 forward $65 $-1 #
coedge $-1 $174 $173 $103 $167 reversed $175 $-1 #
edge $-1 $254 -26.796934978229736 $255 26.796934978229736 $166 $256 forward 7 unknown #
coedge $-1 $105 $104 $257 $258 forward $41 $-1 #
coedge $-1 $259 $260 $104 $170 reversed $244 $-1 #
edge $-1 $177 -48.270516067995239 $261 48.270516067995239 $169 $262 forward 7 unknown #
coedge $-1 $163 $263 $105 $172 reversed $101 $-1 #
edge $-1 $264 -48.270516067995239 $176 48.270516067995239 $171 $265 forward 7 unknown #
coedge $-1 $166 $106 $263 $266 forward $175 $-1 #
coedge $-1 $106 $166 $259 $267 reversed $175 $-1 #
loop $-1 $-1 $173 $243 #
vertex $-1 $107 $268 #
vertex $-1 $107 $269 #
straight-curve $-1 48.270516067995239 0 8.8380735497063068 0 1 0 I I #
face $-1 $270 $271 $25 $-1 $272 reversed single #
loop $-1 $-1 $185 $108 #
plane-surface $-1 48.270516067995239 0 0 -1 0 0 0 0 1 forward_v I I I I #
coedge $-1 $273 $274 $183 $275 forward $109 $-1 #
coedge $-1 $276 $111 $182 $275 reversed $69 $-1 #
coedge $-1 $111 $276 $112 $188 reversed $69 $-1 #
coedge $-1 $114 $277 $111 $186 forward $180 $-1 #
edge $-1 $278 -5.1690367748531534 $192 -2.1690367748531534 $185 $279 forward 7 unknown #
coedge $-1 $113 $112 $280 $281 reversed $44 $-1 #
edge $-1 $192 -48.270516067995239 $282 48.270516067995239 $184 $283 forward 7 unknown #
coedge $-1 $284 $285 $113 $190 forward $271 $-1 #
edge $-1 $193 -48.270516067995239 $286 48.270516067995239 $189 $287 forward 7 unknown #
coedge $-1 $277 $114 $285 $288 forward $180 $-1 #
vertex $-1 $115 $289 #
vertex $-1 $288 $290 #
straight-curve $-1 48.270516067995239 -11.896259315999544 -5.8380735497063068 0 -1 0 I I #
face $-1 $-1 $207 $26 $-1 $291 reversed single #
loop $-1 $-1 $292 $116 #
plane-surface $-1 0 26.796934978229736 0 0 -1 0 0 0 -1 forward_v I I I I #
coedge $-1 $203 $293 $294 $295 forward $117 $-1 #
coedge $-1 $294 $119 $121 $205 forward $73 $-1 #
coedge $-1 $119 $294 $292 $296 reversed $73 $-1 #
coedge $-1 $297 $122 $119 $202 forward $207 $-1 #
edge $-1 $209 7.6905540062718742 $298 15.301105316729203 $201 $299 forward 7 unknown #
coedge $-1 $300 $198 $120 $204 forward $117 $-1 #
edge $-1 $301 16.02912381187345 $208 22.943871866886898 $203 $302 forward 7 unknown #
edge $-1 $209 -96.541032135990491 $301 -86.5868612312766 $121 $303 forward 7 unknown #
coedge $-1 $122 $297 $300 $304 reversed $207 $-1 #
loop $-1 $-1 $201 $195 #
vertex $-1 $304 $305 #
vertex $-1 $123 $306 #
straight-curve $-1 48.270516067995239 19.186383667772407 69.093242487753983 0 0 -1 I I #
coedge $-1 $211 $211 $-1 $307 reversed $126 $-1 #
edge $-1 $308 0 $308 6.2831853071796004 $127 $309 forward 7 unknown #
vertex $-1 $130 $310 #
ellipse-curve $-1 44.813142040488508 21.360826899331641 5.2578578531336673 0.71933980857756763 0 0.69465836192734942 0.17366459048183736 0 -0.17983495214439191 1 I I #
coedge $-1 $215 $215 $-1 $311 reversed $133 $-1 #
edge $-1 $312 0 $312 6.2831853071796004 $134 $313 forward 7 unknown #
vertex $-1 $137 $314 #
ellipse-curve $-1 44.813142040488508 24.622491746670491 5.2578578531336673 0.71933980857756763 0 0.69465836192734942 0.17366459048183736 0 -0.17983495214439191 1 I I #
face $-1 $-1 $231 $29 $-1 $315 forward single #
loop $-1 $-1 $316 $138 #
plane-surface $-1 -48.270516067995239 0 0 1 0 0 0 0 -1 forward_v I I I I #
coedge $-1 $317 $318 $224 $319 forward $139 $-1 #
coedge $-1 $320 $141 $143 $229 forward $87 $-1 #
coedge $-1 $141 $320 $222 $319 reversed $87 $-1 #
coedge $-1 $321 $144 $141 $226 forward $231 $-1 #
edge $-1 $233 6.3830070763573232 $322 15.736954293367383 $225 $323 forward 7 unknown #
coedge $-1 $324 $316 $142 $228 forward $220 $-1 #
edge $-1 $325 -32.99853940306776 $232 -26.428204741287132 $227 $326 forward 7 unknown #
edge $-1 $233 -9.291856280210931 $325 3.0145775206728491e-014 $143 $327 forward 7 unknown #
coedge $-1 $144 $321 $324 $328 forward $231 $-1 #
loop $-1 $-1 $225 $219 #
vertex $-1 $228 $329 #
vertex $-1 $145 $330 #
straight-curve $-1 -58.267667673074286 17.442987761219676 8.8380735497063085 1 0 0 I I #
coedge $-1 $235 $235 $-1 $331 reversed $148 $-1 #
edge $-1 $332 0 $332 6.2831853071796004 $149 $333 forward 7 unknown #
vertex $-1 $152 $334 #
ellipse-curve $-1 -44.985348813337573 20.115544108936838 5.5529062188159912 -0.70710678939079041 0 0.70710677298230451 0.70710677298230451 0 0.70710678939079041 1 I I #
coedge $-1 $239 $239 $-1 $335 reversed $155 $-1 #
edge $-1 $336 0 $336 6.2831853071796004 $156 $337 forward 7 unknown #
vertex $-1 $159 $338 #
ellipse-curve $-1 -44.985348813337573 24.124378630512581 5.5529062188159912 -0.70710678939079041 0 0.70710677298230451 0.70710677298230451 0 0.70710678939079041 1 I I #
face $-1 $-1 $175 $24 $-1 $339 reversed single #
loop $-1 $-1 $259 $160 #
plane-surface $-1 0 26.796934978229736 0 0 -1 0 0 0 -1 forward_v I I I I #
coedge $-1 $340 $257 $260 $341 forward $161 $-1 #
coedge $-1 $263 $163 $164 $251 reversed $101 $-1 #
coedge $-1 $257 $340 $163 $249 reversed $161 $-1 #
edge $-1 $264 -8.8380735497063068 $342 8.8380735497063068 $248 $343 forward 7 unknown #
coedge $-1 $165 $164 $340 $344 forward $65 $-1 #
edge $-1 $255 -48.270516067995239 $342 48.270516067995239 $247 $345 forward 7 unknown #
coedge $-1 $260 $259 $165 $253 reversed $244 $-1 #
edge $-1 $346 -48.270516067995239 $254 48.270516067995239 $252 $347 forward 7 unknown #
vertex $-1 $167 $348 #
vertex $-1 $266 $349 #
straight-curve $-1 48.270516067995239 0 -8.8380735497063068 0 -1 0 I I #
coedge $-1 $246 $248 $168 $258 reversed $161 $-1 #
edge $-1 $261 -26.796934978229736 $264 26.796934978229736 $257 $350 forward 7 unknown #
coedge $-1 $252 $169 $174 $267 forward $244 $-1 #
coedge $-1 $169 $252 $246 $341 reversed $244 $-1 #
vertex $-1 $170 $351 #
straight-curve $-1 0 26.796934978229736 8.8380735497063068 -1 0 0 I I #
coedge $-1 $171 $247 $173 $266 reversed $101 $-1 #
vertex $-1 $258 $352 #
straight-curve $-1 0 -26.796934978229736 8.8380735497063068 1 0 0 I I #
edge $-1 $176 -8.8380735497063068 $255 8.8380735497063068 $173 $353 forward 7 unknown #
edge $-1 $177 -8.8380735497063068 $254 8.8380735497063068 $174 $354 forward 7 unknown #
point $-1 48.270516067995239 -26.796934978229736 8.8380735497063068 #
point $-1 48.270516067995239 26.796934978229736 8.8380735497063068 #
face $-1 $-1 $355 $25 $-1 $356 reversed single #
loop $-1 $-1 $189 $179 #
plane-surface $-1 0 -26.796934978229736 0 0 1 0 0 0 1 forward_v I I I I #
coedge $-1 $357 $182 $277 $358 forward $109 $-1 #
coedge $-1 $182 $357 $359 $360 forward $109 $-1 #
edge $-1 $361 -48.270516067995239 $278 48.270516067995239 $182 $362 forward 7 unknown #
coedge $-1 $184 $183 $363 $364 reversed $69 $-1 #
coedge $-1 $185 $191 $273 $358 reversed $180 $-1 #
vertex $-1 $358 $365 #
straight-curve $-1 48.270516067995239 -20.788102285768439 -3.6690367748531534 0 0 1 I I #
coedge $-1 $363 $366 $187 $281 forward $355 $-1 #
edge $-1 $286 -14.900675662230192 $282 -8.891842969768895 $280 $367 forward 7 unknown #
vertex $-1 $281 $368 #
straight-curve $-1 0 -20.788102285768439 -5.8380735497063068 -1 0 0 I I #
coedge $-1 $369 $189 $366 $370 forward $271 $-1 #
coedge $-1 $189 $369 $191 $288 reversed $271 $-1 #
vertex $-1 $370 $371 #
straight-curve $-1 0 -26.796934978229736 -5.8380735497063068 -1 0 0 I I #
edge $-1 $193 5.8380735497063068 $372 8.8380735497063068 $191 $373 forward 7 unknown #
point $-1 48.270516067995239 -20.788102285768439 -5.8380735497063068 #
point $-1 48.270516067995239 -26.796934978229736 -5.8380735497063068 #
plane-surface $-1 48.270516067995239 0 0 -1 0 0 0 0 1 forward_v I I I I #
coedge $-1 $374 $375 $200 $296 forward $196 $-1 #
coedge $-1 $198 $300 $374 $376 forward $117 $-1 #
coedge $-1 $200 $199 $198 $295 reversed $73 $-1 #
edge $-1 $377 -15.301105316729192 $301 -7.6905540062718742 $198 $378 forward 7 unknown #
edge $-1 $298 -64.432877484704818 $377 -54.478706579990899 $292 $379 forward 7 unknown #
coedge $-1 $206 $201 $375 $380 reversed $207 $-1 #
vertex $-1 $202 $381 #
straight-curve $-1 48.270516067995231 11.495829661500533 1.6776421565610136 0 1 0 I I #
coedge $-1 $293 $203 $206 $304 forward $117 $-1 #
vertex $-1 $204 $382 #
straight-curve $-1 25.326644201108341 19.186383667772407 8.8380735497063085 1 0 0 I I #
straight-curve $-1 -18.79251917436752 19.186383667772407 71.123449733145222 -0.69465836192734942 0 0.71933980857756763 I I #
edge $-1 $208 19.186383667772407 $383 26.796934978229736 $206 $384 forward 7 unknown #
point $-1 48.270516067995239 19.186383667772407 8.8380735497063068 #
point $-1 48.270516067995239 19.186383667772407 1.6776421565610207 #
edge $-1 $385 1 $385 0 $211 $-1 forward 7 unknown #
vertex $-1 $212 $386 #
ellipse-curve $-1 44.093802231910942 21.360826899331641 4.5631994912063227 0.71933980857756763 0 0.69465836192734942 0.17366459048183736 0 -0.17983495214439191 1 I I #
point $-1 44.986806630970349 21.360826899331641 5.0780229009892794 #
edge $-1 $387 1 $387 0 $215 $-1 forward 7 unknown #
vertex $-1 $216 $388 #
ellipse-curve $-1 44.093802231910942 24.622491746670491 4.5631994912063227 0.71933980857756763 0 0.69465836192734942 0.17366459048183736 0 -0.17983495214439191 1 I I #
point $-1 44.986806630970349 24.622491746670491 5.0780229009892794 #
plane-surface $-1 0 0 8.8380735497063068 0 0 1 1 0 0 forward_v I I I I #
coedge $-1 $227 $389 $320 $390 forward $220 $-1 #
coedge $-1 $318 $222 $389 $391 reversed $139 $-1 #
coedge $-1 $222 $317 $321 $392 reversed $139 $-1 #
edge $-1 $322 6.9725813611954708 $393 16.264437641406431 $222 $394 forward 7 unknown #
coedge $-1 $224 $223 $316 $390 reversed $87 $-1 #
coedge $-1 $230 $225 $318 $392 forward $231 $-1 #
vertex $-1 $392 $395 #
straight-curve $-1 -41.700181558679908 11.059980684862353 8.8380735497063068 0 1 0 I I #
coedge $-1 $389 $227 $230 $328 reversed $220 $-1 #
vertex $-1 $228 $396 #
straight-curve $-1 -48.270516067995239 17.442987761219676 35.266278290993441 0 0 1 I I #
straight-curve $-1 -48.270516067995217 17.442987761219676 2.2677388879257023 -0.70710677298230451 0 -0.70710678939079041 I I #
edge $-1 $397 -26.796934978229736 $232 -17.442987761219676 $324 $398 forward 7 unknown #
point $-1 -48.270516067995239 17.442987761219676 8.8380735497063068 #
point $-1 -41.700181558679908 17.442987761219676 8.838073549706305 #
edge $-1 $399 1 $399 0 $235 $-1 forward 7 unknown #
vertex $-1 $236 $400 #
ellipse-curve $-1 -43.917254372561899 20.115544108936838 4.4848118028255586 -0.70710678939079041 0 0.70710677298230451 0.70710677298230451 0 0.70710678939079041 1 I I #
point $-1 -44.278242040355288 20.115544108936838 6.2600130082068013 #
edge $-1 $401 1 $401 0 $239 $-1 forward 7 unknown #
vertex $-1 $240 $402 #
ellipse-curve $-1 -43.917254372561899 24.124378630512581 4.4848118028255586 -0.70710678939079041 0 0.70710677298230451 0.70710677298230451 0 0.70710678939079041 1 I I #
point $-1 -44.278242040355288 24.124378630512581 6.2600130082068013 #
plane-surface $-1 48.270516067995239 0 0 -1 0 0 0 0 1 forward_v I I I I #
coedge $-1 $248 $246 $250 $344 reversed $161 $-1 #
edge $-1 $261 -8.8380735497063068 $346 8.8380735497063068 $260 $403 forward 7 unknown #
vertex $-1 $344 $404 #
straight-curve $-1 -48.270516067995239 -26.796934978229736 0 0 0 -1 I I #
edge $-1 $342 -26.796934978229736 $346 26.796934978229736 $340 $405 forward 7 unknown #
straight-curve $-1 0 -26.796934978229736 -8.8380735497063068 -1 0 0 I I #
vertex $-1 $253 $406 #
straight-curve $-1 0 26.796934978229736 -8.8380735497063068 1 0 0 I I #
point $-1 48.270516067995239 26.796934978229736 -8.8380735497063068 #
point $-1 48.270516067995239 -26.796934978229736 -8.8380735497063068 #
straight-curve $-1 -48.270516067995239 0 8.8380735497063068 0 -1 0 I I #
point $-1 -48.270516067995239 26.796934978229736 8.8380735497063068 #
point $-1 -48.270516067995239 -26.796934978229736 8.8380735497063068 #
straight-curve $-1 48.270516067995239 -26.796934978229736 0 0 0 -1 I I #
straight-curve $-1 48.270516067995239 26.796934978229736 0 0 0 -1 I I #
loop $-1 $-1 $363 $270 #
plane-surface $-1 -48.270516067995239 0 0 1 0 0 0 0 -1 forward_v I I I I #
coedge $-1 $274 $273 $369 $407 forward $109 $-1 #
edge $-1 $278 20.788102285768439 $372 26.796934978229736 $277 $408 forward 7 unknown #
coedge $-1 $366 $363 $274 $360 reversed $355 $-1 #
edge $-1 $409 -26.796934978229736 $361 -20.788102285768439 $359 $410 forward 7 unknown #
vertex $-1 $364 $411 #
straight-curve $-1 0 -20.788102285768439 -8.8380735497063068 1 0 0 I I #
coedge $-1 $359 $280 $276 $364 forward $355 $-1 #
edge $-1 $282 2.1690367748531534 $361 5.1690367748531534 $363 $412 forward 7 unknown #
point $-1 48.270516067995239 -20.788102285768439 -8.8380735497063068 #
coedge $-1 $280 $359 $284 $370 reversed $355 $-1 #
straight-curve $-1 -48.270516067995239 -11.896259315999544 -5.8380735497063068 0 1 0 I I #
point $-1 -48.270516067995239 -20.788102285768439 -5.8380735497063068 #
coedge $-1 $285 $284 $357 $407 reversed $271 $-1 #
edge $-1 $286 5.8380735497063068 $409 8.8380735497063068 $366 $413 forward 7 unknown #
point $-1 -48.270516067995239 -26.796934978229736 -5.8380735497063068 #
vertex $-1 $288 $414 #
straight-curve $-1 48.270516067995239 -26.796934978229736 0 0 0 -1 I I #
coedge $-1 $375 $292 $293 $376 reversed $196 $-1 #
coedge $-1 $292 $374 $297 $380 forward $196 $-1 #
edge $-1 $383 -48.270516067995239 $377 -41.355768012981791 $374 $415 forward 7 unknown #
vertex $-1 $295 $416 #
straight-curve $-1 41.355768012981784 11.495829661500533 8.8380735497063156 0 -1 0 I I #
straight-curve $-1 3.5116789402046038 26.796934978229736 48.026775912510431 -0.69465836192734942 0 0.71933980857756763 I I #
edge $-1 $383 -8.8380735497063068 $298 -1.677642156561006 $297 $417 forward 7 unknown #
point $-1 48.270516067995239 26.796934978229736 1.677642156561006 #
point $-1 41.355768012981791 19.186383667772407 8.8380735497063085 #
vertex $-1 $304 $418 #
straight-curve $-1 48.270516067995239 0 8.8380735497063068 0 1 0 I I #
vertex $-1 $307 $419 #
point $-1 44.267466822392784 21.360826899331641 4.3833645390619305 #
vertex $-1 $311 $420 #
point $-1 44.267466822392784 24.622491746670491 4.3833645390619305 #
coedge $-1 $316 $324 $317 $391 forward $220 $-1 #
edge $-1 $393 -15.736954293367383 $325 -6.3830070763573232 $316 $421 forward 7 unknown #
edge $-1 $397 -8.8380735497063068 $393 -2.267738887925681 $317 $422 forward 7 unknown #
edge $-1 $322 41.700181558679908 $397 48.270516067995239 $318 $423 forward 7 unknown #
vertex $-1 $390 $424 #
straight-curve $-1 -36.769822053008411 26.796934978229736 13.768433169787297 -0.70710677298230462 0 -0.70710678939079052 I I #
point $-1 -41.700181558679908 26.796934978229736 8.838073549706305 #
point $-1 -48.270516067995239 17.442987761219676 2.267738887925681 #
vertex $-1 $392 $425 #
straight-curve $-1 -48.270516067995239 0 8.8380735497063068 0 -1 0 I I #
vertex $-1 $331 $426 #
point $-1 -43.210147599579592 20.115544108936838 5.1919185922163482 #
vertex $-1 $335 $427 #
point $-1 -43.210147599579592 24.124378630512581 5.1919185922163482 #
straight-curve $-1 -48.270516067995239 26.796934978229736 0 0 0 -1 I I #
point $-1 -48.270516067995239 -26.796934978229736 -8.8380735497063068 #
straight-curve $-1 -48.270516067995239 0 -8.8380735497063068 0 1 0 I I #
point $-1 -48.270516067995239 26.796934978229736 -8.8380735497063068 #
edge $-1 $372 -48.270516067995239 $409 48.270516067995239 $369 $428 forward 7 unknown #
straight-curve $-1 48.270516067995239 0 -8.8380735497063068 0 -1 0 I I #
vertex $-1 $360 $429 #
straight-curve $-1 -48.270516067995239 0 -8.8380735497063068 0 1 0 I I #
point $-1 -48.270516067995239 -20.788102285768439 -8.8380735497063068 #
straight-curve $-1 -48.270516067995239 -20.788102285768439 -3.6690367748531534 0 0 -1 I I #
straight-curve $-1 -48.270516067995239 -26.796934978229736 0 0 0 -1 I I #
point $-1 48.270516067995239 -26.796934978229736 -8.8380735497063068 #
straight-curve $-1 0 26.796934978229736 8.8380735497063068 -1 0 0 I I #
point $-1 41.355768012981791 26.796934978229725 8.8380735497063085 #
straight-curve $-1 48.270516067995239 26.796934978229736 0 0 0 -1 I I #
point $-1 48.270516067995239 26.796934978229736 8.8380735497063068 #
point $-1 43.913967279766553 21.360826899331641 4.3895349007244846 #
point $-1 43.913967279766553 24.622491746670491 4.3895349007244846 #
straight-curve $-1 -48.270516067995239 11.059980684862353 2.2677388879256828 0 -1 0 I I #
straight-curve $-1 -48.270516067995239 26.796934978229736 0 0 0 -1 I I #
straight-curve $-1 0 26.796934978229736 8.8380735497063068 -1 0 0 I I #
point $-1 -48.270516067995239 26.796934978229736 2.267738887925681 #
point $-1 -48.270516067995239 26.796934978229736 8.8380735497063068 #
point $-1 -43.210147583171107 20.115544108936838 3.7777050298432537 #
point $-1 -43.210147583171107 24.124378630512581 3.7777050298432537 #
straight-curve $-1 0 -26.796934978229736 -8.8380735497063068 -1 0 0 I I #
point $-1 -48.270516067995239 -26.796934978229736 -8.8380735497063068 #
End-of-ACIS-data 