500 0 5 0           
7 Unknown 11 ACIS 5.0 NT 24 Thu Mar 25 21:04:36 1999 
-1 9.9999999999999995e-007 1e-010 
body $-1 $5 $-1 $6 #
body $-1 $7 $-1 $8 #
body $-1 $9 $-1 $10 #
body $-1 $11 $-1 $12 #
body $-1 $13 $-1 $14 #
lump $-1 $-1 $15 $0 #
transform $-1 1 0 0 0 1 0 0 0 1 77.797784356212048 35.502495482602583 10.122117169639266 1 rotate no_reflect no_shear #
lump $-1 $-1 $16 $1 #
transform $-1 1 0 0 0 1 0 0 0 1 77.797784356212048 35.502495482602583 10.122117169639266 1 rotate no_reflect no_shear #
lump $-1 $-1 $17 $2 #
transform $-1 1 0 0 0 1 0 0 0 1 77.797784356212048 35.502495482602583 10.122117169639266 1 rotate no_reflect no_shear #
lump $-1 $-1 $18 $3 #
transform $-1 1 0 0 0 1 0 0 0 1 77.797784356212048 35.502495482602583 10.122117169639266 1 rotate no_reflect no_shear #
lump $-1 $-1 $19 $4 #
transform $-1 1 0 0 0 1 0 0 0 1 77.797784356212048 35.502495482602583 10.122117169639266 1 rotate no_reflect no_shear #
shell $-1 $-1 $-1 $20 $-1 $5 #
shell $-1 $-1 $-1 $21 $-1 $7 #
shell $-1 $-1 $-1 $22 $-1 $9 #
shell $-1 $-1 $-1 $23 $-1 $11 #
shell $-1 $-1 $-1 $24 $-1 $13 #
face $-1 $25 $26 $15 $-1 $27 forward single #
face $-1 $28 $29 $16 $-1 $30 forward single #
face $-1 $31 $32 $17 $-1 $33 forward single #
face $-1 $34 $35 $18 $-1 $36 reversed single #
face $-1 $37 $38 $19 $-1 $39 reversed single #
face $-1 $40 $41 $15 $-1 $42 reversed single #
loop $-1 $-1 $43 $20 #
plane-surface $-1 0 0 10.122117169639266 0 0 1 1 0 0 forward_v I I I I #
face $-1 $44 $45 $16 $-1 $46 forward single #
loop $-1 $-1 $47 $21 #
plane-surface $-1 -72.822658891734534 -29.501510572148579 0 0 -1 0 0 0 -1 forward_v I I I I #
face $-1 $48 $49 $17 $-1 $50 forward single #
loop $-1 $-1 $51 $22 #
plane-surface $-1 131.03157906441879 8.5757628912081536 214.51130536074092 0 -1 0 -0.85716730853699208 0 -0.51503806187062418 forward_v I I I I #
face $-1 $52 $53 $18 $-1 $54 reversed single #
loop $-1 $55 $56 $23 #
cone-surface $-1 73.513537104454869 -5.0793764430989299 4.6342305369206453 -0.85716730853699208 0 -0.51503806187062418 0.77255709280593621 0 -1.2857509628054882 1 I I 0 1 1.5 forward I I I I #
face $-1 $57 $58 $19 $-1 $59 reversed single #
loop $-1 $60 $61 $24 #
cone-surface $-1 73.513537104454869 3.1137071574853223 4.6342305369206453 -0.85716730853699208 0 -0.51503806187062418 0.77255709280593621 0 -1.2857509628054882 1 I I 0 1 1.5 forward I I I I #
face $-1 $62 $63 $15 $-1 $64 reversed single #
loop $-1 $-1 $65 $25 #
plane-surface $-1 0 0 -10.122117169639266 0 0 1 1 0 0 forward_v I I I I #
coedge $-1 $66 $67 $68 $69 forward $26 $-1 #
face $-1 $70 $71 $16 $-1 $72 forward single #
loop $-1 $-1 $73 $28 #
plane-surface $-1 -67.847533427257019 -32.502003027375579 0 -1 0 0 0 0 1 forward_v I I I I #
coedge $-1 $74 $75 $76 $77 reversed $29 $-1 #
face $-1 $78 $79 $17 $-1 $80 forward single #
loop $-1 $-1 $81 $31 #
plane-surface $-1 -2.3398557890923826 -0.98283464280680732 134.37366521543649 0.85716730853699208 0 0.51503806187062418 0.51503806187062418 0 -0.85716730853699208 forward_v I I I I #
coedge $-1 $82 $83 $84 $85 reversed $32 $-1 #
face $-1 $86 $87 $18 $-1 $88 forward single #
loop $-1 $89 $90 $34 #
cone-surface $-1 71.32630469325639 -5.0793764430989299 3.3200087616560285 -0.85716730853699208 0 -0.51503806187062418 0.3862785464029681 0 -0.64287548140274409 1 I I -0.70710678118654757 0.70710678118654757 0.75 forward I I I I #
loop $-1 $-1 $91 $23 #
coedge $-1 $56 $56 $92 $93 reversed $35 $-1 #
face $-1 $94 $95 $19 $-1 $96 reversed single #
loop $-1 $97 $98 $37 #
cone-surface $-1 71.32630469325639 3.1137071574853223 3.3200087616560285 -0.85716730853699208 0 -0.51503806187062418 0.3862785464029681 0 -0.64287548140274409 1 I I -0.70710678118654757 0.70710678118654757 0.75 forward I I I I #
loop $-1 $-1 $99 $24 #
coedge $-1 $61 $61 $100 $101 reversed $38 $-1 #
face $-1 $102 $103 $15 $-1 $104 reversed single #
loop $-1 $-1 $105 $40 #
plane-surface $-1 0 -35.502495482602583 0 0 1 0 0 0 1 forward_v I I I I #
coedge $-1 $106 $107 $108 $109 forward $41 $-1 #
coedge $-1 $110 $43 $111 $112 forward $26 $-1 #
coedge $-1 $43 $110 $113 $114 forward $26 $-1 #
coedge $-1 $115 $116 $43 $69 reversed $117 $-1 #
edge $-1 $118 -35.502495482602583 $119 35.502495482602583 $68 $120 forward 7 unknown #
face $-1 $121 $122 $16 $-1 $123 reversed single #
loop $-1 $-1 $124 $44 #
plane-surface $-1 0 0 10.122117169639266 0 0 1 1 0 0 forward_v I I I I #
coedge $-1 $125 $126 $127 $128 reversed $45 $-1 #
coedge $-1 $129 $47 $124 $130 reversed $29 $-1 #
coedge $-1 $47 $129 $131 $132 reversed $29 $-1 #
coedge $-1 $126 $125 $47 $77 forward $45 $-1 #
edge $-1 $133 -10.122117169639266 $134 10.122117169639266 $76 $135 forward 7 unknown #
face $-1 $136 $137 $17 $-1 $138 forward single #
loop $-1 $-1 $139 $48 #
plane-surface $-1 131.03157906441879 -10.541432176821768 214.51130536074092 0 1 0 0.85716730853699208 0 0.51503806187062418 forward_v I I I I #
coedge $-1 $140 $141 $142 $143 reversed $49 $-1 #
coedge $-1 $83 $51 $141 $144 forward $32 $-1 #
coedge $-1 $51 $82 $145 $146 reversed $32 $-1 #
coedge $-1 $147 $142 $51 $85 forward $137 $-1 #
edge $-1 $148 6.8022141800797868 $149 12.281994824002652 $84 $150 forward 7 unknown #
face $-1 $151 $152 $18 $-1 $153 forward single #
loop $-1 $-1 $154 $52 #
plane-surface $-1 131.03157906441879 8.5757628912081536 214.51130536074092 0 -1 0 -0.85716730853699208 0 -0.51503806187062418 forward_v I I I I #
loop $-1 $-1 $155 $34 #
coedge $-1 $90 $90 $91 $156 forward $53 $-1 #
coedge $-1 $91 $91 $90 $156 reversed $55 $-1 #
coedge $-1 $92 $92 $56 $93 forward $152 $-1 #
edge $-1 $157 0 $157 6.2831853071796004 $92 $158 forward 7 unknown #
face $-1 $159 $160 $19 $-1 $161 reversed single #
loop $-1 $162 $163 $57 #
cone-surface $-1 73.513537104454869 -5.0793764430989299 4.6342305369206453 -0.85716730853699208 0 -0.51503806187062418 0.77255709280593621 0 -1.2857509628054882 1 I I 0 1 1.5 forward I I I I #
loop $-1 $-1 $164 $37 #
coedge $-1 $98 $98 $99 $165 forward $58 $-1 #
coedge $-1 $99 $99 $98 $165 reversed $60 $-1 #
coedge $-1 $100 $100 $61 $101 forward $166 $-1 #
edge $-1 $167 0 $167 6.2831853071796004 $100 $168 forward 7 unknown #
face $-1 $169 $170 $15 $-1 $171 reversed single #
loop $-1 $-1 $172 $62 #
plane-surface $-1 -77.797784356212048 0 0 1 0 0 0 0 -1 forward_v I I I I #
coedge $-1 $173 $113 $174 $175 forward $63 $-1 #
coedge $-1 $176 $65 $173 $177 forward $41 $-1 #
coedge $-1 $65 $176 $178 $179 forward $41 $-1 #
coedge $-1 $116 $115 $65 $109 reversed $117 $-1 #
edge $-1 $180 -35.502495482602583 $181 35.502495482602583 $108 $182 forward 7 unknown #
coedge $-1 $67 $66 $183 $184 forward $26 $-1 #
coedge $-1 $185 $186 $66 $112 reversed $170 $-1 #
edge $-1 $119 -77.797784356212048 $187 77.797784356212048 $111 $188 forward 7 unknown #
coedge $-1 $105 $189 $67 $114 reversed $63 $-1 #
edge $-1 $190 -77.797784356212048 $118 77.797784356212048 $113 $191 forward 7 unknown #
coedge $-1 $108 $68 $189 $192 forward $117 $-1 #
coedge $-1 $68 $108 $185 $193 reversed $117 $-1 #
loop $-1 $-1 $115 $169 #
vertex $-1 $69 $194 #
vertex $-1 $69 $195 #
straight-curve $-1 77.797784356212048 0 10.122117169639266 0 1 0 I I #
face $-1 $196 $197 $16 $-1 $198 reversed single #
loop $-1 $-1 $127 $70 #
plane-surface $-1 0 -35.502495482602583 0 0 1 0 0 0 1 forward_v I I I I #
coedge $-1 $199 $200 $74 $130 forward $71 $-1 #
coedge $-1 $76 $73 $199 $201 reversed $45 $-1 #
coedge $-1 $73 $76 $202 $203 reversed $45 $-1 #
coedge $-1 $204 $205 $73 $128 forward $122 $-1 #
edge $-1 $206 -10.122117169639266 $207 10.122117169639266 $127 $208 forward 7 unknown #
coedge $-1 $75 $74 $209 $210 reversed $29 $-1 #
edge $-1 $211 -41.386454910344781 $133 -31.436203981389752 $124 $212 forward 7 unknown #
coedge $-1 $213 $202 $75 $132 forward $197 $-1 #
edge $-1 $134 31.436203981389752 $214 41.386454910344781 $131 $215 forward 7 unknown #
vertex $-1 $130 $216 #
vertex $-1 $132 $217 #
straight-curve $-1 -67.847533427257019 -29.501510572148579 0 0 0 -1 I I #
face $-1 $218 $219 $17 $-1 $220 forward single #
loop $-1 $-1 $221 $78 #
plane-surface $-1 0 0 10.122117169639266 0 0 1 1 0 0 forward_v I I I I #
coedge $-1 $222 $223 $221 $224 reversed $79 $-1 #
coedge $-1 $225 $81 $223 $226 reversed $49 $-1 #
coedge $-1 $81 $225 $82 $144 reversed $49 $-1 #
coedge $-1 $84 $221 $81 $143 forward $137 $-1 #
edge $-1 $227 -10.050014855418365 $148 9.0671802126115573 $142 $228 forward 7 unknown #
edge $-1 $148 144.95600428097174 $229 155.5955687124241 $82 $230 forward 7 unknown #
coedge $-1 $231 $232 $83 $146 forward $233 $-1 #
edge $-1 $149 97.133535510731193 $229 106.25342231844512 $145 $234 forward 7 unknown #
coedge $-1 $235 $84 $232 $236 forward $137 $-1 #
vertex $-1 $143 $237 #
vertex $-1 $236 $238 #
straight-curve $-1 65.515789532209396 8.5757628912081536 10.122117169639267 1 0 0 I I #
face $-1 $239 $240 $18 $-1 $241 forward single #
loop $-1 $242 $92 $86 #
plane-surface $-1 -2.3398557890923826 -0.98283464280680732 134.37366521543649 0.85716730853699208 0 0.51503806187062418 0.51503806187062418 0 -0.85716730853699208 forward_v I I I I #
coedge $-1 $243 $244 $245 $246 reversed $87 $-1 #
coedge $-1 $155 $155 $-1 $247 forward $89 $-1 #
edge $-1 $248 0 $248 6.2831853071796004 $90 $249 forward 7 unknown #
vertex $-1 $93 $250 #
ellipse-curve $-1 75.057894034250609 -5.0793764430989299 5.5621737657822932 -0.85716730853699208 0 -0.51503806187062418 0.77255709280593621 0 -1.2857509628054882 1 I I #
face $-1 $251 $252 $19 $-1 $253 forward single #
loop $-1 $254 $255 $94 #
cone-surface $-1 71.32630469325639 -5.0793764430989299 3.3200087616560285 -0.85716730853699208 0 -0.51503806187062418 0.3862785464029681 0 -0.64287548140274409 1 I I -0.70710678118654757 0.70710678118654757 0.75 forward I I I I #
loop $-1 $-1 $256 $57 #
coedge $-1 $163 $163 $257 $258 reversed $95 $-1 #
coedge $-1 $164 $164 $-1 $259 forward $97 $-1 #
edge $-1 $260 0 $260 6.2831853071796004 $98 $261 forward 7 unknown #
loop $-1 $262 $100 $251 #
vertex $-1 $101 $263 #
ellipse-curve $-1 75.057894034250609 3.1137071574853223 5.5621737657822932 -0.85716730853699208 0 -0.51503806187062418 0.77255709280593621 0 -1.2857509628054882 1 I I #
face $-1 $-1 $117 $15 $-1 $264 reversed single #
loop $-1 $-1 $185 $102 #
plane-surface $-1 0 35.502495482602583 0 0 -1 0 0 0 -1 forward_v I I I I #
coedge $-1 $265 $183 $186 $266 forward $103 $-1 #
coedge $-1 $189 $105 $106 $177 reversed $63 $-1 #
coedge $-1 $183 $265 $105 $175 reversed $103 $-1 #
edge $-1 $190 -10.122117169639266 $267 10.122117169639266 $174 $268 forward 7 unknown #
coedge $-1 $107 $106 $265 $269 forward $41 $-1 #
edge $-1 $181 -77.797784356212048 $267 77.797784356212048 $173 $270 forward 7 unknown #
coedge $-1 $186 $185 $107 $179 reversed $170 $-1 #
edge $-1 $271 -77.797784356212048 $180 77.797784356212048 $178 $272 forward 7 unknown #
vertex $-1 $109 $273 #
vertex $-1 $192 $274 #
straight-curve $-1 77.797784356212048 0 -10.122117169639266 0 -1 0 I I #
coedge $-1 $172 $174 $110 $184 reversed $103 $-1 #
edge $-1 $187 -35.502495482602583 $190 35.502495482602583 $183 $275 forward 7 unknown #
coedge $-1 $178 $111 $116 $193 forward $170 $-1 #
coedge $-1 $111 $178 $172 $266 reversed $170 $-1 #
vertex $-1 $112 $276 #
straight-curve $-1 0 35.502495482602583 10.122117169639266 -1 0 0 I I #
coedge $-1 $113 $173 $115 $192 reversed $63 $-1 #
vertex $-1 $184 $277 #
straight-curve $-1 0 -35.502495482602583 10.122117169639266 1 0 0 I I #
edge $-1 $118 -10.122117169639266 $181 10.122117169639266 $115 $278 forward 7 unknown #
edge $-1 $119 -10.122117169639266 $180 10.122117169639266 $116 $279 forward 7 unknown #
point $-1 77.797784356212048 -35.502495482602583 10.122117169639266 #
point $-1 77.797784356212048 35.502495482602583 10.122117169639266 #
face $-1 $280 $281 $16 $-1 $282 reversed single #
loop $-1 $-1 $131 $121 #
plane-surface $-1 0 0 -10.122117169639266 0 0 1 1 0 0 forward_v I I I I #
coedge $-1 $283 $124 $125 $201 forward $71 $-1 #
coedge $-1 $124 $284 $285 $286 forward $71 $-1 #
edge $-1 $133 13.250509058460789 $206 19.251493968914794 $199 $287 forward 7 unknown #
coedge $-1 $131 $288 $126 $203 forward $197 $-1 #
edge $-1 $207 -19.251493968914794 $134 -13.250509058460789 $202 $289 forward 7 unknown #
coedge $-1 $290 $127 $288 $291 reversed $122 $-1 #
coedge $-1 $127 $290 $283 $292 reversed $122 $-1 #
vertex $-1 $292 $293 #
vertex $-1 $128 $294 #
straight-curve $-1 -67.847533427257019 -35.502495482602583 0 0 0 -1 I I #
coedge $-1 $285 $295 $129 $210 forward $281 $-1 #
edge $-1 $214 -10.122117169639266 $211 10.122117169639266 $209 $296 forward 7 unknown #
vertex $-1 $210 $297 #
straight-curve $-1 -36.411329445867267 -29.501510572148579 10.122117169639266 1 0 0 I I #
coedge $-1 $298 $131 $295 $299 forward $197 $-1 #
vertex $-1 $299 $300 #
straight-curve $-1 -36.411329445867267 -29.501510572148579 -10.122117169639266 -1 0 0 I I #
point $-1 -67.847533427257019 -29.501510572148579 10.122117169639266 #
point $-1 -67.847533427257019 -29.501510572148579 -10.122117169639266 #
face $-1 $301 $302 $17 $-1 $303 forward single #
loop $-1 $-1 $304 $136 #
plane-surface $-1 -72.822658891734534 -29.501510572148579 0 0 -1 0 0 0 -1 forward_v I I I I #
coedge $-1 $142 $305 $139 $224 forward $137 $-1 #
coedge $-1 $223 $139 $306 $307 reversed $79 $-1 #
coedge $-1 $139 $222 $140 $226 forward $79 $-1 #
edge $-1 $308 -12.281994824002652 $227 -6.8022141800797868 $221 $309 forward 7 unknown #
coedge $-1 $141 $140 $231 $310 reversed $49 $-1 #
edge $-1 $311 -155.5955687124241 $227 -144.95600428097174 $223 $312 forward 7 unknown #
vertex $-1 $143 $313 #
straight-curve $-1 72.318003712289183 -0.49141732140340366 10.122117169639253 0 1 0 I I #
vertex $-1 $310 $314 #
straight-curve $-1 -2.3398557890923826 8.5757628912081536 134.37366521543649 0.51503806187062418 0 -0.85716730853699208 I I #
coedge $-1 $306 $145 $225 $310 forward $233 $-1 #
coedge $-1 $145 $315 $147 $236 reversed $233 $-1 #
loop $-1 $-1 $306 $316 #
straight-curve $-1 77.797784356212048 8.5757628912081536 107.25565268037046 0 0 -1 I I #
coedge $-1 $317 $147 $318 $319 forward $137 $-1 #
edge $-1 $149 8.5757628912081536 $320 35.502495482602583 $232 $321 forward 7 unknown #
point $-1 72.318003712289183 8.5757628912081536 10.122117169639267 #
point $-1 77.797784356212048 8.5757628912081536 10.122117169639266 #
face $-1 $322 $323 $18 $-1 $324 forward single #
loop $-1 $-1 $325 $151 #
plane-surface $-1 131.03157906441879 -10.541432176821768 214.51130536074092 0 1 0 0.85716730853699208 0 0.51503806187062418 forward_v I I I I #
loop $-1 $-1 $326 $86 #
coedge $-1 $244 $154 $327 $328 forward $87 $-1 #
coedge $-1 $154 $243 $329 $330 reversed $87 $-1 #
coedge $-1 $331 $332 $154 $246 forward $323 $-1 #
edge $-1 $333 6.8022141800797868 $334 12.281994824002652 $245 $335 forward 7 unknown #
edge $-1 $336 1 $336 0 $155 $-1 forward 7 unknown #
vertex $-1 $156 $337 #
ellipse-curve $-1 71.96918017465913 -5.0793764430989299 3.7062873080589966 0.85716730853699208 0 0.51503806187062418 0.77255709280593621 0 -1.2857509628054882 1 I I #
point $-1 75.830451127056548 -5.0793764430989299 4.2764228029768061 #
face $-1 $338 $166 $19 $-1 $339 forward single #
loop $-1 $-1 $340 $159 #
plane-surface $-1 131.03157906441879 8.5757628912081536 214.51130536074092 0 -1 0 -0.85716730853699208 0 -0.51503806187062418 forward_v I I I I #
loop $-1 $-1 $341 $94 #
coedge $-1 $255 $255 $256 $342 forward $160 $-1 #
coedge $-1 $256 $256 $255 $342 reversed $162 $-1 #
coedge $-1 $257 $257 $163 $258 forward $262 $-1 #
edge $-1 $343 0 $343 6.2831853071796004 $257 $344 forward 7 unknown #
edge $-1 $345 1 $345 0 $164 $-1 forward 7 unknown #
vertex $-1 $165 $346 #
ellipse-curve $-1 71.96918017465913 3.1137071574853223 3.7062873080589966 0.85716730853699208 0 0.51503806187062418 0.77255709280593621 0 -1.2857509628054882 1 I I #
loop $-1 $347 $257 $251 #
point $-1 75.830451127056548 3.1137071574853223 4.2764228029768061 #
plane-surface $-1 77.797784356212048 0 0 -1 0 0 0 0 1 forward_v I I I I #
coedge $-1 $174 $172 $176 $269 reversed $103 $-1 #
edge $-1 $187 -10.122117169639266 $271 10.122117169639266 $186 $348 forward 7 unknown #
vertex $-1 $269 $349 #
straight-curve $-1 -77.797784356212048 -35.502495482602583 0 0 0 -1 I I #
edge $-1 $267 -35.502495482602583 $271 35.502495482602583 $265 $350 forward 7 unknown #
straight-curve $-1 0 -35.502495482602583 -10.122117169639266 -1 0 0 I I #
vertex $-1 $179 $351 #
straight-curve $-1 0 35.502495482602583 -10.122117169639266 1 0 0 I I #
point $-1 77.797784356212048 35.502495482602583 -10.122117169639266 #
point $-1 77.797784356212048 -35.502495482602583 -10.122117169639266 #
straight-curve $-1 -77.797784356212048 0 10.122117169639266 0 -1 0 I I #
point $-1 -77.797784356212048 35.502495482602583 10.122117169639266 #
point $-1 -77.797784356212048 -35.502495482602583 10.122117169639266 #
straight-curve $-1 77.797784356212048 -35.502495482602583 0 0 0 -1 I I #
straight-curve $-1 77.797784356212048 35.502495482602583 0 0 0 -1 I I #
face $-1 $352 $353 $16 $-1 $354 reversed single #
loop $-1 $-1 $209 $196 #
plane-surface $-1 -77.797784356212048 0 0 1 0 0 0 0 -1 forward_v I I I I #
coedge $-1 $355 $199 $205 $292 forward $71 $-1 #
coedge $-1 $200 $355 $356 $357 forward $71 $-1 #
coedge $-1 $358 $209 $200 $286 reversed $281 $-1 #
edge $-1 $359 -35.502495482602583 $211 29.501510572148579 $285 $360 forward 7 unknown #
straight-curve $-1 -67.847533427257019 -16.25100151368779 10.122117169639266 0 -1 0 I I #
coedge $-1 $202 $361 $204 $291 forward $197 $-1 #
straight-curve $-1 -67.847533427257019 -16.25100151368779 -10.122117169639266 0 1 0 I I #
coedge $-1 $205 $204 $362 $363 reversed $122 $-1 #
edge $-1 $364 -77.797784356212048 $207 67.847533427257019 $204 $365 forward 7 unknown #
edge $-1 $206 -67.847533427257019 $366 77.797784356212048 $205 $367 forward 7 unknown #
point $-1 -67.847533427257019 -35.502495482602583 10.122117169639266 #
point $-1 -67.847533427257019 -35.502495482602583 -10.122117169639266 #
coedge $-1 $209 $358 $213 $299 reversed $281 $-1 #
straight-curve $-1 -77.797784356212048 -29.501510572148579 0 0 0 1 I I #
point $-1 -77.797784356212048 -29.501510572148579 10.122117169639266 #
coedge $-1 $361 $213 $368 $369 forward $197 $-1 #
edge $-1 $214 -29.501510572148579 $370 35.502495482602583 $295 $371 forward 7 unknown #
point $-1 -77.797784356212048 -29.501510572148579 -10.122117169639266 #
face $-1 $372 $373 $17 $-1 $374 reversed single #
loop $-1 $-1 $375 $218 #
plane-surface $-1 -67.847533427257019 -32.502003027375579 0 -1 0 0 0 0 1 forward_v I I I I #
coedge $-1 $376 $377 $378 $379 reversed $219 $-1 #
coedge $-1 $221 $380 $381 $382 forward $137 $-1 #
coedge $-1 $381 $231 $222 $307 forward $233 $-1 #
edge $-1 $311 -106.25342231844512 $308 -97.133535510731193 $306 $383 forward 7 unknown #
vertex $-1 $307 $384 #
straight-curve $-1 65.515789532209396 -10.541432176821768 10.122117169639267 -1 0 0 I I #
edge $-1 $229 -9.0671802126115573 $311 10.050014855418365 $231 $385 forward 7 unknown #
vertex $-1 $310 $386 #
straight-curve $-1 -2.3398557890923826 -10.541432176821768 134.37366521543649 -0.51503806187062418 0 0.85716730853699208 I I #
point $-1 72.318003712289183 -10.541432176821768 10.122117169639267 #
point $-1 77.797784356212048 8.5757628912081536 1.0022303619253421 #
coedge $-1 $232 $387 $388 $389 reversed $233 $-1 #
face $-1 $-1 $233 $17 $-1 $390 reversed single #
coedge $-1 $391 $235 $392 $393 forward $137 $-1 #
coedge $-1 $388 $394 $235 $319 reversed $395 $-1 #
edge $-1 $320 -77.797784356212048 $396 77.797784356212048 $318 $397 forward 7 unknown #
vertex $-1 $236 $398 #
straight-curve $-1 77.797784356212048 0 10.122117169639266 0 1 0 I I #
face $-1 $399 $400 $18 $-1 $401 forward single #
loop $-1 $-1 $402 $239 #
plane-surface $-1 0 0 10.122117169639266 0 0 1 1 0 0 forward_v I I I I #
coedge $-1 $403 $404 $402 $405 reversed $240 $-1 #
coedge $-1 $406 $327 $332 $407 reversed $242 $-1 #
coedge $-1 $326 $408 $243 $328 reversed $242 $-1 #
edge $-1 $333 144.95600428097174 $409 155.5955687124241 $243 $410 forward 7 unknown #
coedge $-1 $411 $412 $244 $330 forward $413 $-1 #
edge $-1 $334 97.133535510731193 $409 106.25342231844512 $329 $414 forward 7 unknown #
coedge $-1 $415 $245 $412 $416 forward $323 $-1 #
coedge $-1 $245 $402 $326 $407 forward $323 $-1 #
vertex $-1 $407 $417 #
vertex $-1 $416 $418 #
straight-curve $-1 65.515789532209396 8.5757628912081536 10.122117169639267 1 0 0 I I #
vertex $-1 $247 $419 #
point $-1 72.741737267465069 -5.0793764430989299 2.4205363452535087 #
face $-1 $420 $421 $19 $-1 $422 forward single #
plane-surface $-1 -2.3398557890923826 -0.98283464280680732 134.37366521543649 0.85716730853699208 0 0.51503806187062418 0.51503806187062418 0 -0.85716730853699208 forward_v I I I I #
coedge $-1 $423 $424 $425 $426 reversed $252 $-1 #
coedge $-1 $341 $341 $-1 $427 forward $254 $-1 #
edge $-1 $428 0 $428 6.2831853071796004 $255 $429 forward 7 unknown #
vertex $-1 $258 $430 #
ellipse-curve $-1 75.057894034250609 -5.0793764430989299 5.5621737657822932 -0.85716730853699208 0 -0.51503806187062418 0.77255709280593621 0 -1.2857509628054882 1 I I #
vertex $-1 $259 $431 #
point $-1 72.741737267465069 3.1137071574853223 2.4205363452535087 #
loop $-1 $-1 $432 $251 #
straight-curve $-1 -77.797784356212048 35.502495482602583 0 0 0 -1 I I #
point $-1 -77.797784356212048 -35.502495482602583 -10.122117169639266 #
straight-curve $-1 -77.797784356212048 0 -10.122117169639266 0 1 0 I I #
point $-1 -77.797784356212048 35.502495482602583 -10.122117169639266 #
face $-1 $-1 $433 $16 $-1 $434 reversed single #
loop $-1 $-1 $435 $280 #
plane-surface $-1 0 35.502495482602583 0 0 -1 0 0 0 -1 forward_v I I I I #
coedge $-1 $284 $283 $436 $437 forward $71 $-1 #
coedge $-1 $435 $438 $284 $357 reversed $353 $-1 #
edge $-1 $439 -77.797784356212048 $359 77.797784356212048 $356 $440 forward 7 unknown #
coedge $-1 $295 $285 $438 $441 forward $281 $-1 #
vertex $-1 $357 $442 #
straight-curve $-1 -77.797784356212048 0 10.122117169639266 0 -1 0 I I #
coedge $-1 $288 $298 $443 $444 forward $197 $-1 #
coedge $-1 $443 $436 $290 $363 forward $433 $-1 #
edge $-1 $366 -10.122117169639266 $364 10.122117169639266 $362 $445 forward 7 unknown #
vertex $-1 $363 $446 #
straight-curve $-1 0 -35.502495482602583 -10.122117169639266 -1 0 0 I I #
vertex $-1 $437 $447 #
straight-curve $-1 0 -35.502495482602583 10.122117169639266 1 0 0 I I #
coedge $-1 $438 $435 $298 $369 reversed $353 $-1 #
edge $-1 $370 -77.797784356212048 $448 77.797784356212048 $368 $449 forward 7 unknown #
vertex $-1 $369 $450 #
straight-curve $-1 -77.797784356212048 0 -10.122117169639266 0 1 0 I I #
face $-1 $451 $452 $17 $-1 $453 reversed single #
loop $-1 $-1 $454 $301 #
plane-surface $-1 0 -35.502495482602583 0 0 1 0 0 0 1 forward_v I I I I #
coedge $-1 $455 $456 $454 $457 reversed $302 $-1 #
coedge $-1 $458 $304 $391 $459 reversed $219 $-1 #
coedge $-1 $304 $458 $460 $461 reversed $219 $-1 #
coedge $-1 $456 $455 $304 $379 forward $302 $-1 #
edge $-1 $462 -10.122117169639266 $463 10.122117169639266 $378 $464 forward 7 unknown #
coedge $-1 $305 $465 $466 $467 forward $137 $-1 #
coedge $-1 $468 $306 $305 $382 reversed $233 $-1 #
edge $-1 $469 -35.502495482602583 $308 -10.541432176821768 $381 $321 forward 7 unknown #
straight-curve $-1 77.797784356212048 -10.541432176821768 107.25565268037046 0 0 1 I I #
point $-1 77.797784356212048 -10.541432176821768 10.122117169639266 #
straight-curve $-1 77.797784356212048 -0.49141732140340366 1.0022303619253137 0 -1 0 I I #
point $-1 77.797784356212048 -10.541432176821768 1.0022303619253421 #
coedge $-1 $315 $468 $470 $471 reversed $233 $-1 #
coedge $-1 $472 $318 $315 $389 forward $395 $-1 #
edge $-1 $320 -10.122117169639266 $473 10.122117169639266 $315 $474 forward 7 unknown #
plane-surface $-1 77.797784356212048 0 0 -1 0 0 0 0 1 forward_v I I I I #
coedge $-1 $465 $317 $376 $459 forward $137 $-1 #
coedge $-1 $475 $476 $317 $393 reversed $477 $-1 #
edge $-1 $396 -35.502495482602583 $478 29.501510572148579 $392 $479 forward 7 unknown #
coedge $-1 $318 $472 $475 $480 reversed $395 $-1 #
loop $-1 $-1 $388 $481 #
vertex $-1 $319 $482 #
straight-curve $-1 0 35.502495482602583 10.122117169639266 -1 0 0 I I #
point $-1 77.797784356212048 35.502495482602583 10.122117169639266 #
face $-1 $483 $484 $18 $-1 $485 forward single #
loop $-1 $-1 $486 $322 #
plane-surface $-1 -72.822658891734534 -29.501510572148579 0 0 -1 0 0 0 -1 forward_v I I I I #
coedge $-1 $332 $487 $325 $405 forward $323 $-1 #
coedge $-1 $404 $325 $488 $489 reversed $240 $-1 #
coedge $-1 $325 $403 $406 $490 forward $240 $-1 #
edge $-1 $491 -12.281994824002652 $492 -6.8022141800797868 $402 $493 forward 7 unknown #
coedge $-1 $408 $326 $404 $490 reversed $242 $-1 #
edge $-1 $492 -10.050014855418365 $333 9.0671802126115573 $332 $494 forward 7 unknown #
coedge $-1 $327 $406 $411 $495 reversed $242 $-1 #
vertex $-1 $495 $496 #
straight-curve $-1 -2.3398557890923826 8.5757628912081536 134.37366521543649 0.51503806187062418 0 -0.85716730853699208 I I #
coedge $-1 $488 $329 $408 $495 forward $413 $-1 #
coedge $-1 $329 $497 $331 $416 reversed $413 $-1 #
loop $-1 $-1 $488 $498 #
straight-curve $-1 77.797784356212048 8.5757628912081536 107.25565268037046 0 0 -1 I I #
coedge $-1 $499 $331 $500 $501 forward $323 $-1 #
edge $-1 $334 8.5757628912081536 $502 35.502495482602583 $412 $503 forward 7 unknown #
point $-1 72.318003712289183 8.5757628912081536 10.122117169639267 #
point $-1 77.797784356212048 8.5757628912081536 10.122117169639266 #
point $-1 70.68342921185365 -5.0793764430989299 2.9337302152530604 #
face $-1 $504 $505 $19 $-1 $506 forward single #
loop $-1 $-1 $507 $338 #
plane-surface $-1 131.03157906441879 -10.541432176821768 214.51130536074092 0 1 0 0.85716730853699208 0 0.51503806187062418 forward_v I I I I #
coedge $-1 $424 $340 $508 $509 forward $252 $-1 #
coedge $-1 $340 $423 $510 $511 reversed $252 $-1 #
coedge $-1 $512 $513 $340 $426 forward $505 $-1 #
edge $-1 $514 6.8022141800797868 $515 12.281994824002652 $425 $516 forward 7 unknown #
edge $-1 $517 1 $517 0 $341 $-1 forward 7 unknown #
vertex $-1 $342 $518 #
ellipse-curve $-1 71.96918017465913 -5.0793764430989299 3.7062873080589966 0.85716730853699208 0 0.51503806187062418 0.77255709280593621 0 -1.2857509628054882 1 I I #
point $-1 75.830451127056548 -5.0793764430989299 4.2764228029768061 #
point $-1 70.68342921185365 3.1137071574853223 2.9337302152530604 #
coedge $-1 $519 $508 $513 $520 reversed $347 $-1 #
loop $-1 $-1 $362 $352 #
plane-surface $-1 77.797784356212048 0 0 -1 0 0 0 0 1 forward_v I I I I #
coedge $-1 $368 $356 $521 $522 forward $353 $-1 #
coedge $-1 $362 $521 $355 $437 reversed $433 $-1 #
edge $-1 $366 -35.502495482602583 $439 35.502495482602583 $436 $523 forward 7 unknown #
coedge $-1 $356 $368 $358 $441 reversed $353 $-1 #
vertex $-1 $437 $524 #
straight-curve $-1 0 35.502495482602583 10.122117169639266 -1 0 0 I I #
edge $-1 $359 -10.122117169639266 $370 10.122117169639266 $438 $525 forward 7 unknown #
point $-1 -77.797784356212048 35.502495482602583 10.122117169639266 #
coedge $-1 $521 $362 $361 $444 reversed $433 $-1 #
edge $-1 $448 -35.502495482602583 $364 35.502495482602583 $443 $526 forward 7 unknown #
straight-curve $-1 77.797784356212048 -35.502495482602583 0 0 0 -1 I I #
point $-1 77.797784356212048 -35.502495482602583 -10.122117169639266 #
point $-1 77.797784356212048 -35.502495482602583 10.122117169639266 #
vertex $-1 $444 $527 #
straight-curve $-1 0 35.502495482602583 -10.122117169639266 1 0 0 I I #
point $-1 -77.797784356212048 35.502495482602583 -10.122117169639266 #
face $-1 $481 $477 $17 $-1 $528 reversed single #
loop $-1 $-1 $460 $372 #
plane-surface $-1 0 0 -10.122117169639266 0 0 1 1 0 0 forward_v I I I I #
coedge $-1 $529 $466 $375 $457 forward $373 $-1 #
coedge $-1 $378 $375 $465 $530 reversed $302 $-1 #
coedge $-1 $375 $378 $531 $532 reversed $302 $-1 #
edge $-1 $533 -10.122117169639266 $534 10.122117169639266 $454 $535 forward 7 unknown #
coedge $-1 $377 $376 $476 $536 reversed $219 $-1 #
edge $-1 $478 -41.386454910344781 $462 -31.436203981389752 $391 $537 forward 7 unknown #
coedge $-1 $538 $531 $377 $461 forward $452 $-1 #
edge $-1 $463 31.436203981389752 $539 41.386454910344781 $460 $540 forward 7 unknown #
vertex $-1 $459 $541 #
vertex $-1 $461 $542 #
straight-curve $-1 -67.847533427257019 -29.501510572148579 0 0 0 -1 I I #
coedge $-1 $380 $391 $455 $530 forward $137 $-1 #
coedge $-1 $454 $543 $380 $467 reversed $373 $-1 #
edge $-1 $533 -67.847533427257019 $469 77.797784356212048 $466 $544 forward 7 unknown #
coedge $-1 $387 $381 $543 $545 forward $233 $-1 #
vertex $-1 $382 $546 #
coedge $-1 $547 $548 $387 $471 forward $452 $-1 #
edge $-1 $473 -35.502495482602583 $549 35.502495482602583 $387 $550 forward 7 unknown #
coedge $-1 $394 $388 $548 $551 reversed $395 $-1 #
vertex $-1 $471 $552 #
straight-curve $-1 77.797784356212048 35.502495482602583 0 0 0 -1 I I #
coedge $-1 $553 $392 $394 $480 forward $477 $-1 #
coedge $-1 $392 $553 $458 $536 forward $477 $-1 #
loop $-1 $-1 $476 $451 #
vertex $-1 $536 $554 #
straight-curve $-1 -77.797784356212048 0 10.122117169639266 0 -1 0 I I #
edge $-1 $396 -10.122117169639266 $555 10.122117169639266 $394 $556 forward 7 unknown #
face $-1 $316 $395 $17 $-1 $557 reversed single #
point $-1 -77.797784356212048 35.502495482602583 10.122117169639266 #
face $-1 $558 $559 $18 $-1 $560 reversed single #
loop $-1 $-1 $561 $399 #
plane-surface $-1 -67.847533427257019 -32.502003027375579 0 -1 0 0 0 0 1 forward_v I I I I #
coedge $-1 $562 $563 $564 $565 reversed $400 $-1 #
coedge $-1 $402 $566 $567 $568 forward $323 $-1 #
coedge $-1 $567 $411 $403 $489 forward $413 $-1 #
edge $-1 $569 -106.25342231844512 $491 -97.133535510731193 $488 $570 forward 7 unknown #
edge $-1 $569 -155.5955687124241 $492 -144.95600428097174 $404 $571 forward 7 unknown #
vertex $-1 $489 $572 #
vertex $-1 $407 $573 #
straight-curve $-1 65.515789532209396 -10.541432176821768 10.122117169639267 -1 0 0 I I #
straight-curve $-1 72.318003712289183 -0.49141732140340366 10.122117169639253 0 1 0 I I #
edge $-1 $409 -9.0671802126115573 $569 10.050014855418365 $411 $574 forward 7 unknown #
point $-1 77.797784356212048 8.5757628912081536 1.0022303619253421 #
coedge $-1 $412 $575 $576 $577 reversed $413 $-1 #
face $-1 $-1 $413 $18 $-1 $578 reversed single #
coedge $-1 $579 $415 $580 $581 forward $323 $-1 #
coedge $-1 $576 $582 $415 $501 reversed $583 $-1 #
edge $-1 $502 -77.797784356212048 $584 77.797784356212048 $500 $585 forward 7 unknown #
vertex $-1 $416 $586 #
straight-curve $-1 77.797784356212048 0 10.122117169639266 0 1 0 I I #
face $-1 $587 $588 $19 $-1 $589 forward single #
loop $-1 $-1 $590 $420 #
plane-surface $-1 0 0 10.122117169639266 0 0 1 1 0 0 forward_v I I I I #
coedge $-1 $591 $592 $590 $593 reversed $421 $-1 #
coedge $-1 $432 $594 $423 $509 reversed $347 $-1 #
edge $-1 $514 144.95600428097174 $595 155.5955687124241 $423 $596 forward 7 unknown #
coedge $-1 $597 $598 $424 $511 forward $599 $-1 #
edge $-1 $515 97.133535510731193 $595 106.25342231844512 $510 $600 forward 7 unknown #
coedge $-1 $601 $425 $598 $602 forward $505 $-1 #
coedge $-1 $425 $590 $432 $520 forward $505 $-1 #
vertex $-1 $520 $603 #
vertex $-1 $602 $604 #
straight-curve $-1 65.515789532209396 8.5757628912081536 10.122117169639267 1 0 0 I I #
vertex $-1 $427 $605 #
point $-1 72.741737267465069 -5.0793764430989299 2.4205363452535087 #
coedge $-1 $594 $432 $592 $606 reversed $347 $-1 #
edge $-1 $607 -10.050014855418365 $514 9.0671802126115573 $513 $608 forward 7 unknown #
coedge $-1 $436 $443 $435 $522 reversed $433 $-1 #
edge $-1 $439 -10.122117169639266 $448 10.122117169639266 $521 $609 forward 7 unknown #
straight-curve $-1 77.797784356212048 0 10.122117169639266 0 1 0 I I #
point $-1 77.797784356212048 35.502495482602583 10.122117169639266 #
straight-curve $-1 -77.797784356212048 35.502495482602583 0 0 0 -1 I I #
straight-curve $-1 77.797784356212048 0 -10.122117169639266 0 -1 0 I I #
point $-1 77.797784356212048 35.502495482602583 -10.122117169639266 #
plane-surface $-1 -77.797784356212048 0 0 1 0 0 0 0 -1 forward_v I I I I #
coedge $-1 $543 $454 $547 $610 reversed $373 $-1 #
edge $-1 $462 13.250509058460789 $533 19.251493968914794 $465 $611 forward 7 unknown #
coedge $-1 $460 $547 $456 $532 forward $452 $-1 #
edge $-1 $534 -19.251493968914794 $463 -13.250509058460789 $531 $612 forward 7 unknown #
vertex $-1 $467 $613 #
vertex $-1 $457 $614 #
straight-curve $-1 -67.847533427257019 -35.502495482602583 0 0 0 -1 I I #
edge $-1 $539 -10.122117169639266 $478 10.122117169639266 $476 $615 forward 7 unknown #
straight-curve $-1 -36.411329445867267 -29.501510572148579 10.122117169639266 1 0 0 I I #
coedge $-1 $548 $460 $553 $616 forward $452 $-1 #
vertex $-1 $616 $617 #
straight-curve $-1 -36.411329445867267 -29.501510572148579 -10.122117169639266 -1 0 0 I I #
point $-1 -67.847533427257019 -29.501510572148579 10.122117169639266 #
point $-1 -67.847533427257019 -29.501510572148579 -10.122117169639266 #
coedge $-1 $466 $529 $468 $545 reversed $373 $-1 #
straight-curve $-1 0 -35.502495482602583 10.122117169639266 1 0 0 I I #
edge $-1 $469 -10.122117169639266 $549 10.122117169639266 $468 $618 forward 7 unknown #
point $-1 77.797784356212048 -35.502495482602583 10.122117169639266 #
coedge $-1 $531 $470 $529 $610 forward $452 $-1 #
coedge $-1 $470 $538 $472 $551 forward $452 $-1 #
vertex $-1 $545 $619 #
straight-curve $-1 77.797784356212048 0 -10.122117169639266 0 -1 0 I I #
edge $-1 $555 -77.797784356212048 $473 77.797784356212048 $472 $620 forward 7 unknown #
point $-1 77.797784356212048 35.502495482602583 -10.122117169639266 #
coedge $-1 $476 $475 $538 $616 reversed $477 $-1 #
point $-1 -77.797784356212048 -29.501510572148579 10.122117169639266 #
vertex $-1 $551 $621 #
straight-curve $-1 -77.797784356212048 35.502495482602583 0 0 0 -1 I I #
plane-surface $-1 0 35.502495482602583 0 0 -1 0 0 0 -1 forward_v I I I I #
face $-1 $622 $623 $18 $-1 $624 reversed single #
loop $-1 $-1 $625 $483 #
plane-surface $-1 0 -35.502495482602583 0 0 1 0 0 0 1 forward_v I I I I #
coedge $-1 $626 $627 $625 $628 reversed $484 $-1 #
coedge $-1 $629 $486 $579 $630 reversed $400 $-1 #
coedge $-1 $486 $629 $631 $632 reversed $400 $-1 #
coedge $-1 $627 $626 $486 $565 forward $484 $-1 #
edge $-1 $633 -10.122117169639266 $634 10.122117169639266 $564 $635 forward 7 unknown #
coedge $-1 $487 $636 $637 $638 forward $323 $-1 #
coedge $-1 $639 $488 $487 $568 reversed $413 $-1 #
edge $-1 $640 -35.502495482602583 $491 -10.541432176821768 $567 $503 forward 7 unknown #
vertex $-1 $495 $641 #
straight-curve $-1 77.797784356212048 -10.541432176821768 107.25565268037046 0 0 1 I I #
straight-curve $-1 -2.3398557890923826 -10.541432176821768 134.37366521543649 -0.51503806187062418 0 0.85716730853699208 I I #
point $-1 77.797784356212048 -10.541432176821768 10.122117169639266 #
point $-1 72.318003712289183 -10.541432176821768 10.122117169639267 #
straight-curve $-1 77.797784356212048 -0.49141732140340366 1.0022303619253137 0 -1 0 I I #
coedge $-1 $497 $639 $642 $643 reversed $413 $-1 #
coedge $-1 $644 $500 $497 $577 forward $583 $-1 #
edge $-1 $502 -10.122117169639266 $645 10.122117169639266 $497 $646 forward 7 unknown #
plane-surface $-1 77.797784356212048 0 0 -1 0 0 0 0 1 forward_v I I I I #
coedge $-1 $636 $499 $562 $630 forward $323 $-1 #
coedge $-1 $647 $648 $499 $581 reversed $649 $-1 #
edge $-1 $584 -35.502495482602583 $650 29.501510572148579 $580 $651 forward 7 unknown #
coedge $-1 $500 $644 $647 $652 reversed $583 $-1 #
loop $-1 $-1 $576 $653 #
vertex $-1 $501 $654 #
straight-curve $-1 0 35.502495482602583 10.122117169639266 -1 0 0 I I #
point $-1 77.797784356212048 35.502495482602583 10.122117169639266 #
face $-1 $655 $656 $19 $-1 $657 forward single #
loop $-1 $-1 $658 $504 #
plane-surface $-1 -72.822658891734534 -29.501510572148579 0 0 -1 0 0 0 -1 forward_v I I I I #
coedge $-1 $513 $659 $507 $593 forward $505 $-1 #
coedge $-1 $592 $507 $660 $661 reversed $421 $-1 #
coedge $-1 $507 $591 $519 $606 forward $421 $-1 #
edge $-1 $662 -12.281994824002652 $607 -6.8022141800797868 $590 $663 forward 7 unknown #
coedge $-1 $508 $519 $597 $664 reversed $347 $-1 #
vertex $-1 $664 $665 #
straight-curve $-1 -2.3398557890923826 8.5757628912081536 134.37366521543649 0.51503806187062418 0 -0.85716730853699208 I I #
coedge $-1 $660 $510 $594 $664 forward $599 $-1 #
coedge $-1 $510 $666 $512 $602 reversed $599 $-1 #
loop $-1 $-1 $660 $667 #
straight-curve $-1 77.797784356212048 8.5757628912081536 107.25565268037046 0 0 -1 I I #
coedge $-1 $668 $512 $669 $670 forward $505 $-1 #
edge $-1 $515 8.5757628912081536 $671 35.502495482602583 $598 $672 forward 7 unknown #
point $-1 72.318003712289183 8.5757628912081536 10.122117169639267 #
point $-1 77.797784356212048 8.5757628912081536 10.122117169639266 #
point $-1 70.68342921185365 -5.0793764430989299 2.9337302152530604 #
edge $-1 $673 -155.5955687124241 $607 -144.95600428097174 $592 $674 forward 7 unknown #
vertex $-1 $520 $675 #
straight-curve $-1 72.318003712289183 -0.49141732140340366 10.122117169639253 0 1 0 I I #
straight-curve $-1 77.797784356212048 35.502495482602583 0 0 0 -1 I I #
edge $-1 $549 -77.797784356212048 $534 67.847533427257019 $529 $676 forward 7 unknown #
straight-curve $-1 -67.847533427257019 -16.25100151368779 10.122117169639266 0 -1 0 I I #
straight-curve $-1 -67.847533427257019 -16.25100151368779 -10.122117169639266 0 1 0 I I #
point $-1 -67.847533427257019 -35.502495482602583 10.122117169639266 #
point $-1 -67.847533427257019 -35.502495482602583 -10.122117169639266 #
straight-curve $-1 -77.797784356212048 -29.501510572148579 0 0 0 1 I I #
edge $-1 $539 -29.501510572148579 $555 35.502495482602583 $553 $677 forward 7 unknown #
point $-1 -77.797784356212048 -29.501510572148579 -10.122117169639266 #
straight-curve $-1 77.797784356212048 -35.502495482602583 0 0 0 -1 I I #
point $-1 77.797784356212048 -35.502495482602583 -10.122117169639266 #
straight-curve $-1 0 35.502495482602583 -10.122117169639266 1 0 0 I I #
point $-1 -77.797784356212048 35.502495482602583 -10.122117169639266 #
face $-1 $653 $649 $18 $-1 $678 reversed single #
loop $-1 $-1 $631 $558 #
plane-surface $-1 0 0 -10.122117169639266 0 0 1 1 0 0 forward_v I I I I #
coedge $-1 $679 $637 $561 $628 forward $559 $-1 #
coedge $-1 $564 $561 $636 $680 reversed $484 $-1 #
coedge $-1 $561 $564 $681 $682 reversed $484 $-1 #
edge $-1 $683 -10.122117169639266 $684 10.122117169639266 $625 $685 forward 7 unknown #
coedge $-1 $563 $562 $648 $686 reversed $400 $-1 #
edge $-1 $650 -41.386454910344781 $633 -31.436203981389752 $579 $687 forward 7 unknown #
coedge $-1 $688 $681 $563 $632 forward $623 $-1 #
edge $-1 $634 31.436203981389752 $689 41.386454910344781 $631 $690 forward 7 unknown #
vertex $-1 $630 $691 #
vertex $-1 $632 $692 #
straight-curve $-1 -67.847533427257019 -29.501510572148579 0 0 0 -1 I I #
coedge $-1 $566 $579 $626 $680 forward $323 $-1 #
coedge $-1 $625 $693 $566 $638 reversed $559 $-1 #
edge $-1 $683 -67.847533427257019 $640 77.797784356212048 $637 $694 forward 7 unknown #
coedge $-1 $575 $567 $693 $695 forward $413 $-1 #
vertex $-1 $568 $696 #
point $-1 77.797784356212048 -10.541432176821768 1.0022303619253421 #
coedge $-1 $697 $698 $575 $643 forward $623 $-1 #
edge $-1 $645 -35.502495482602583 $699 35.502495482602583 $575 $700 forward 7 unknown #
coedge $-1 $582 $576 $698 $701 reversed $583 $-1 #
vertex $-1 $643 $702 #
straight-curve $-1 77.797784356212048 35.502495482602583 0 0 0 -1 I I #
coedge $-1 $703 $580 $582 $652 forward $649 $-1 #
coedge $-1 $580 $703 $629 $686 forward $649 $-1 #
loop $-1 $-1 $648 $622 #
vertex $-1 $686 $704 #
straight-curve $-1 -77.797784356212048 0 10.122117169639266 0 -1 0 I I #
edge $-1 $584 -10.122117169639266 $705 10.122117169639266 $582 $706 forward 7 unknown #
face $-1 $498 $583 $18 $-1 $707 reversed single #
point $-1 -77.797784356212048 35.502495482602583 10.122117169639266 #
face $-1 $708 $709 $19 $-1 $710 reversed single #
loop $-1 $-1 $711 $587 #
plane-surface $-1 -67.847533427257019 -32.502003027375579 0 -1 0 0 0 0 1 forward_v I I I I #
coedge $-1 $712 $713 $714 $715 reversed $588 $-1 #
coedge $-1 $590 $716 $717 $718 forward $505 $-1 #
coedge $-1 $717 $597 $591 $661 forward $599 $-1 #
edge $-1 $673 -106.25342231844512 $662 -97.133535510731193 $660 $719 forward 7 unknown #
vertex $-1 $661 $720 #
straight-curve $-1 65.515789532209396 -10.541432176821768 10.122117169639267 -1 0 0 I I #
edge $-1 $595 -9.0671802126115573 $673 10.050014855418365 $597 $721 forward 7 unknown #
point $-1 77.797784356212048 8.5757628912081536 1.0022303619253421 #
coedge $-1 $598 $722 $723 $724 reversed $599 $-1 #
face $-1 $-1 $599 $19 $-1 $725 reversed single #
coedge $-1 $726 $601 $727 $728 forward $505 $-1 #
coedge $-1 $723 $729 $601 $670 reversed $730 $-1 #
edge $-1 $671 -77.797784356212048 $731 77.797784356212048 $669 $732 forward 7 unknown #
vertex $-1 $602 $733 #
straight-curve $-1 77.797784356212048 0 10.122117169639266 0 1 0 I I #
vertex $-1 $664 $734 #
straight-curve $-1 -2.3398557890923826 -10.541432176821768 134.37366521543649 -0.51503806187062418 0 0.85716730853699208 I I #
point $-1 72.318003712289183 -10.541432176821768 10.122117169639267 #
straight-curve $-1 0 -35.502495482602583 -10.122117169639266 -1 0 0 I I #
straight-curve $-1 -77.797784356212048 0 -10.122117169639266 0 1 0 I I #
plane-surface $-1 -77.797784356212048 0 0 1 0 0 0 0 -1 forward_v I I I I #
coedge $-1 $693 $625 $697 $735 reversed $559 $-1 #
edge $-1 $633 13.250509058460789 $683 19.251493968914794 $636 $736 forward 7 unknown #
coedge $-1 $631 $697 $627 $682 forward $623 $-1 #
edge $-1 $684 -19.251493968914794 $634 -13.250509058460789 $681 $737 forward 7 unknown #
vertex $-1 $638 $738 #
vertex $-1 $628 $739 #
straight-curve $-1 -67.847533427257019 -35.502495482602583 0 0 0 -1 I I #
edge $-1 $689 -10.122117169639266 $650 10.122117169639266 $648 $740 forward 7 unknown #
straight-curve $-1 -36.411329445867267 -29.501510572148579 10.122117169639266 1 0 0 I I #
coedge $-1 $698 $631 $703 $741 forward $623 $-1 #
vertex $-1 $741 $742 #
straight-curve $-1 -36.411329445867267 -29.501510572148579 -10.122117169639266 -1 0 0 I I #
point $-1 -67.847533427257019 -29.501510572148579 10.122117169639266 #
point $-1 -67.847533427257019 -29.501510572148579 -10.122117169639266 #
coedge $-1 $637 $679 $639 $695 reversed $559 $-1 #
straight-curve $-1 0 -35.502495482602583 10.122117169639266 1 0 0 I I #
edge $-1 $640 -10.122117169639266 $699 10.122117169639266 $639 $743 forward 7 unknown #
point $-1 77.797784356212048 -35.502495482602583 10.122117169639266 #
coedge $-1 $681 $642 $679 $735 forward $623 $-1 #
coedge $-1 $642 $688 $644 $701 forward $623 $-1 #
vertex $-1 $695 $744 #
straight-curve $-1 77.797784356212048 0 -10.122117169639266 0 -1 0 I I #
edge $-1 $705 -77.797784356212048 $645 77.797784356212048 $644 $745 forward 7 unknown #
point $-1 77.797784356212048 35.502495482602583 -10.122117169639266 #
coedge $-1 $648 $647 $688 $741 reversed $649 $-1 #
point $-1 -77.797784356212048 -29.501510572148579 10.122117169639266 #
vertex $-1 $701 $746 #
straight-curve $-1 -77.797784356212048 35.502495482602583 0 0 0 -1 I I #
plane-surface $-1 0 35.502495482602583 0 0 -1 0 0 0 -1 forward_v I I I I #
face $-1 $747 $748 $19 $-1 $749 reversed single #
loop $-1 $-1 $750 $655 #
plane-surface $-1 0 -35.502495482602583 0 0 1 0 0 0 1 forward_v I I I I #
coedge $-1 $751 $752 $750 $753 reversed $656 $-1 #
coedge $-1 $754 $658 $726 $755 reversed $588 $-1 #
coedge $-1 $658 $754 $756 $757 reversed $588 $-1 #
coedge $-1 $752 $751 $658 $715 forward $656 $-1 #
edge $-1 $758 -10.122117169639266 $759 10.122117169639266 $714 $760 forward 7 unknown #
coedge $-1 $659 $761 $762 $763 forward $505 $-1 #
coedge $-1 $764 $660 $659 $718 reversed $599 $-1 #
edge $-1 $765 -35.502495482602583 $662 -10.541432176821768 $717 $672 forward 7 unknown #
straight-curve $-1 77.797784356212048 -10.541432176821768 107.25565268037046 0 0 1 I I #
point $-1 77.797784356212048 -10.541432176821768 10.122117169639266 #
straight-curve $-1 77.797784356212048 -0.49141732140340366 1.0022303619253137 0 -1 0 I I #
coedge $-1 $666 $764 $766 $767 reversed $599 $-1 #
coedge $-1 $768 $669 $666 $724 forward $730 $-1 #
edge $-1 $671 -10.122117169639266 $769 10.122117169639266 $666 $770 forward 7 unknown #
plane-surface $-1 77.797784356212048 0 0 -1 0 0 0 0 1 forward_v I I I I #
coedge $-1 $761 $668 $712 $755 forward $505 $-1 #
coedge $-1 $771 $772 $668 $728 reversed $773 $-1 #
edge $-1 $731 -35.502495482602583 $774 29.501510572148579 $727 $775 forward 7 unknown #
coedge $-1 $669 $768 $771 $776 reversed $730 $-1 #
loop $-1 $-1 $723 $777 #
vertex $-1 $670 $778 #
straight-curve $-1 0 35.502495482602583 10.122117169639266 -1 0 0 I I #
point $-1 77.797784356212048 35.502495482602583 10.122117169639266 #
point $-1 77.797784356212048 -10.541432176821768 1.0022303619253421 #
edge $-1 $699 -77.797784356212048 $684 67.847533427257019 $679 $779 forward 7 unknown #
straight-curve $-1 -67.847533427257019 -16.25100151368779 10.122117169639266 0 -1 0 I I #
straight-curve $-1 -67.847533427257019 -16.25100151368779 -10.122117169639266 0 1 0 I I #
point $-1 -67.847533427257019 -35.502495482602583 10.122117169639266 #
point $-1 -67.847533427257019 -35.502495482602583 -10.122117169639266 #
straight-curve $-1 -77.797784356212048 -29.501510572148579 0 0 0 1 I I #
edge $-1 $689 -29.501510572148579 $705 35.502495482602583 $703 $780 forward 7 unknown #
point $-1 -77.797784356212048 -29.501510572148579 -10.122117169639266 #
straight-curve $-1 77.797784356212048 -35.502495482602583 0 0 0 -1 I I #
point $-1 77.797784356212048 -35.502495482602583 -10.122117169639266 #
straight-curve $-1 0 35.502495482602583 -10.122117169639266 1 0 0 I I #
point $-1 -77.797784356212048 35.502495482602583 -10.122117169639266 #
face $-1 $777 $773 $19 $-1 $781 reversed single #
loop $-1 $-1 $756 $708 #
plane-surface $-1 0 0 -10.122117169639266 0 0 1 1 0 0 forward_v I I I I #
coedge $-1 $782 $762 $711 $753 forward $709 $-1 #
coedge $-1 $714 $711 $761 $783 reversed $656 $-1 #
coedge $-1 $711 $714 $784 $785 reversed $656 $-1 #
edge $-1 $786 -10.122117169639266 $787 10.122117169639266 $750 $788 forward 7 unknown #
coedge $-1 $713 $712 $772 $789 reversed $588 $-1 #
edge $-1 $774 -41.386454910344781 $758 -31.436203981389752 $726 $790 forward 7 unknown #
coedge $-1 $791 $784 $713 $757 forward $748 $-1 #
edge $-1 $759 31.436203981389752 $792 41.386454910344781 $756 $793 forward 7 unknown #
vertex $-1 $755 $794 #
vertex $-1 $757 $795 #
straight-curve $-1 -67.847533427257019 -29.501510572148579 0 0 0 -1 I I #
coedge $-1 $716 $726 $751 $783 forward $505 $-1 #
coedge $-1 $750 $796 $716 $763 reversed $709 $-1 #
edge $-1 $786 -67.847533427257019 $765 77.797784356212048 $762 $797 forward 7 unknown #
coedge $-1 $722 $717 $796 $798 forward $599 $-1 #
vertex $-1 $718 $799 #
coedge $-1 $800 $801 $722 $767 forward $748 $-1 #
edge $-1 $769 -35.502495482602583 $802 35.502495482602583 $722 $803 forward 7 unknown #
coedge $-1 $729 $723 $801 $804 reversed $730 $-1 #
vertex $-1 $767 $805 #
straight-curve $-1 77.797784356212048 35.502495482602583 0 0 0 -1 I I #
coedge $-1 $806 $727 $729 $776 forward $773 $-1 #
coedge $-1 $727 $806 $754 $789 forward $773 $-1 #
loop $-1 $-1 $772 $747 #
vertex $-1 $789 $807 #
straight-curve $-1 -77.797784356212048 0 10.122117169639266 0 -1 0 I I #
edge $-1 $731 -10.122117169639266 $808 10.122117169639266 $729 $809 forward 7 unknown #
face $-1 $667 $730 $19 $-1 $810 reversed single #
point $-1 -77.797784356212048 35.502495482602583 10.122117169639266 #
straight-curve $-1 0 -35.502495482602583 -10.122117169639266 -1 0 0 I I #
straight-curve $-1 -77.797784356212048 0 -10.122117169639266 0 1 0 I I #
plane-surface $-1 -77.797784356212048 0 0 1 0 0 0 0 -1 forward_v I I I I #
coedge $-1 $796 $750 $800 $811 reversed $709 $-1 #
edge $-1 $758 13.250509058460789 $786 19.251493968914794 $761 $812 forward 7 unknown #
coedge $-1 $756 $800 $752 $785 forward $748 $-1 #
edge $-1 $787 -19.251493968914794 $759 -13.250509058460789 $784 $813 forward 7 unknown #
vertex $-1 $763 $814 #
vertex $-1 $753 $815 #
straight-curve $-1 -67.847533427257019 -35.502495482602583 0 0 0 -1 I I #
edge $-1 $792 -10.122117169639266 $774 10.122117169639266 $772 $816 forward 7 unknown #
straight-curve $-1 -36.411329445867267 -29.501510572148579 10.122117169639266 1 0 0 I I #
coedge $-1 $801 $756 $806 $817 forward $748 $-1 #
vertex $-1 $817 $818 #
straight-curve $-1 -36.411329445867267 -29.501510572148579 -10.122117169639266 -1 0 0 I I #
point $-1 -67.847533427257019 -29.501510572148579 10.122117169639266 #
point $-1 -67.847533427257019 -29.501510572148579 -10.122117169639266 #
coedge $-1 $762 $782 $764 $798 reversed $709 $-1 #
straight-curve $-1 0 -35.502495482602583 10.122117169639266 1 0 0 I I #
edge $-1 $765 -10.122117169639266 $802 10.122117169639266 $764 $819 forward 7 unknown #
point $-1 77.797784356212048 -35.502495482602583 10.122117169639266 #
coedge $-1 $784 $766 $782 $811 forward $748 $-1 #
coedge $-1 $766 $791 $768 $804 forward $748 $-1 #
vertex $-1 $798 $820 #
straight-curve $-1 77.797784356212048 0 -10.122117169639266 0 -1 0 I I #
edge $-1 $808 -77.797784356212048 $769 77.797784356212048 $768 $821 forward 7 unknown #
point $-1 77.797784356212048 35.502495482602583 -10.122117169639266 #
coedge $-1 $772 $771 $791 $817 reversed $773 $-1 #
point $-1 -77.797784356212048 -29.501510572148579 10.122117169639266 #
vertex $-1 $804 $822 #
straight-curve $-1 -77.797784356212048 35.502495482602583 0 0 0 -1 I I #
plane-surface $-1 0 35.502495482602583 0 0 -1 0 0 0 -1 forward_v I I I I #
edge $-1 $802 -77.797784356212048 $787 67.847533427257019 $782 $823 forward 7 unknown #
straight-curve $-1 -67.847533427257019 -16.25100151368779 10.122117169639266 0 -1 0 I I #
straight-curve $-1 -67.847533427257019 -16.25100151368779 -10.122117169639266 0 1 0 I I #
point $-1 -67.847533427257019 -35.502495482602583 10.122117169639266 #
point $-1 -67.847533427257019 -35.502495482602583 -10.122117169639266 #
straight-curve $-1 -77.797784356212048 -29.501510572148579 0 0 0 1 I I #
edge $-1 $792 -29.501510572148579 $808 35.502495482602583 $806 $824 forward 7 unknown #
point $-1 -77.797784356212048 -29.501510572148579 -10.122117169639266 #
straight-curve $-1 77.797784356212048 -35.502495482602583 0 0 0 -1 I I #
point $-1 77.797784356212048 -35.502495482602583 -10.122117169639266 #
straight-curve $-1 0 35.502495482602583 -10.122117169639266 1 0 0 I I #
point $-1 -77.797784356212048 35.502495482602583 -10.122117169639266 #
straight-curve $-1 0 -35.502495482602583 -10.122117169639266 -1 0 0 I I #
straight-curve $-1 -77.797784356212048 0 -10.122117169639266 0 1 0 I I #
End-of-ACIS-data 