500 0 15 0           
7 Unknown 11 ACIS 5.0 NT 24 Fri Mar 26 20:26:01 1999 
-1 9.9999999999999995e-007 1e-010 
body $-1 $15 $-1 $16 #
body $-1 $17 $-1 $18 #
body $-1 $19 $-1 $20 #
body $-1 $21 $-1 $22 #
body $-1 $23 $-1 $24 #
body $-1 $25 $-1 $26 #
body $-1 $27 $-1 $28 #
body $-1 $29 $-1 $30 #
body $-1 $31 $-1 $32 #
body $-1 $33 $-1 $34 #
body $-1 $35 $-1 $36 #
body $-1 $37 $-1 $38 #
body $-1 $39 $-1 $40 #
body $-1 $41 $-1 $42 #
body $-1 $43 $-1 $44 #
lump $-1 $-1 $45 $0 #
transform $-1 1 0 0 0 1 0 0 0 1 60.490127262184515 32.002151650384448 6.4900875315755098 1 rotate no_reflect no_shear #
lump $-1 $-1 $46 $1 #
transform $-1 1 0 0 0 1 0 0 0 1 60.490127262184515 32.002151650384448 6.4900875315755098 1 rotate no_reflect no_shear #
lump $-1 $-1 $47 $2 #
transform $-1 1 0 0 0 1 0 0 0 1 60.490127262184515 32.002151650384448 6.4900875315755098 1 rotate no_reflect no_shear #
lump $-1 $-1 $48 $3 #
transform $-1 1 0 0 0 1 0 0 0 1 60.490127262184515 32.002151650384448 6.4900875315755098 1 rotate no_reflect no_shear #
lump $-1 $-1 $49 $4 #
transform $-1 1 0 0 0 1 0 0 0 1 60.490127262184515 32.002151650384448 6.4900875315755098 1 rotate no_reflect no_shear #
lump $-1 $-1 $50 $5 #
transform $-1 1 0 0 0 1 0 0 0 1 60.490127262184515 32.002151650384448 6.4900875315755098 1 rotate no_reflect no_shear #
lump $-1 $-1 $51 $6 #
transform $-1 1 0 0 0 1 0 0 0 1 60.490127262184515 32.002151650384448 6.4900875315755098 1 rotate no_reflect no_shear #
lump $-1 $-1 $52 $7 #
transform $-1 1 0 0 0 1 0 0 0 1 60.490127262184515 32.002151650384448 6.4900875315755098 1 rotate no_reflect no_shear #
lump $-1 $-1 $53 $8 #
transform $-1 1 0 0 0 1 0 0 0 1 60.490127262184515 32.002151650384448 6.4900875315755098 1 rotate no_reflect no_shear #
lump $-1 $-1 $54 $9 #
transform $-1 1 0 0 0 1 0 0 0 1 60.490127262184515 32.002151650384448 6.4900875315755098 1 rotate no_reflect no_shear #
lump $-1 $-1 $55 $10 #
transform $-1 1 0 0 0 1 0 0 0 1 60.490127262184515 32.002151650384448 6.4900875315755098 1 rotate no_reflect no_shear #
lump $-1 $-1 $56 $11 #
transform $-1 1 0 0 0 1 0 0 0 1 60.490127262184515 32.002151650384448 6.4900875315755098 1 rotate no_reflect no_shear #
lump $-1 $-1 $57 $12 #
transform $-1 1 0 0 0 1 0 0 0 1 60.490127262184515 32.002151650384448 6.4900875315755098 1 rotate no_reflect no_shear #
lump $-1 $-1 $58 $13 #
transform $-1 1 0 0 0 1 0 0 0 1 60.490127262184515 32.002151650384448 6.4900875315755098 1 rotate no_reflect no_shear #
lump $-1 $-1 $59 $14 #
transform $-1 1 0 0 0 1 0 0 0 1 60.490127262184515 32.002151650384448 6.4900875315755098 1 rotate no_reflect no_shear #
shell $-1 $-1 $-1 $60 $-1 $15 #
shell $-1 $-1 $-1 $61 $-1 $17 #
shell $-1 $-1 $-1 $62 $-1 $19 #
shell $-1 $-1 $-1 $63 $-1 $21 #
shell $-1 $-1 $-1 $64 $-1 $23 #
shell $-1 $-1 $-1 $65 $-1 $25 #
shell $-1 $-1 $-1 $66 $-1 $27 #
shell $-1 $-1 $-1 $67 $-1 $29 #
shell $-1 $-1 $-1 $68 $-1 $31 #
shell $-1 $-1 $-1 $69 $-1 $33 #
shell $-1 $-1 $-1 $70 $-1 $35 #
shell $-1 $-1 $-1 $71 $-1 $37 #
shell $-1 $-1 $-1 $72 $-1 $39 #
shell $-1 $-1 $-1 $73 $-1 $41 #
shell $-1 $-1 $-1 $74 $-1 $43 #
face $-1 $75 $76 $45 $-1 $77 forward single #
face $-1 $78 $79 $46 $-1 $80 forward single #
face $-1 $81 $82 $47 $-1 $83 forward single #
face $-1 $84 $85 $48 $-1 $86 reversed single #
face $-1 $87 $88 $49 $-1 $89 forward single #
face $-1 $90 $91 $50 $-1 $92 forward single #
face $-1 $93 $94 $51 $-1 $95 reversed single #
face $-1 $96 $97 $52 $-1 $98 forward single #
face $-1 $99 $100 $53 $-1 $101 forward single #
face $-1 $102 $103 $54 $-1 $104 reversed single #
face $-1 $105 $106 $55 $-1 $107 forward single #
face $-1 $108 $109 $56 $-1 $110 forward single #
face $-1 $111 $112 $57 $-1 $113 reversed single #
face $-1 $114 $115 $58 $-1 $116 forward single #
face $-1 $117 $118 $59 $-1 $119 forward single #
face $-1 $120 $121 $45 $-1 $122 reversed single #
loop $-1 $-1 $123 $60 #
plane-surface $-1 0 0 6.4900875315755098 0 0 1 1 0 0 forward_v I I I I #
face $-1 $124 $125 $46 $-1 $126 reversed single #
loop $-1 $-1 $127 $61 #
plane-surface $-1 -60.490127262184515 0 0 1 0 0 0 0 -1 forward_v I I I I #
face $-1 $128 $129 $47 $-1 $130 reversed single #
loop $-1 $-1 $131 $62 #
plane-surface $-1 60.490127262184515 0 0 -1 0 0 0 0 1 forward_v I I I I #
face $-1 $132 $133 $48 $-1 $134 reversed single #
loop $-1 $-1 $135 $63 #
plane-surface $-1 -23.131846223277289 94.392015991763827 123.52231828230887 1 0 0 0 -0.81915205242281985 -0.57357642473473569 forward_v I I I I #
face $-1 $136 $137 $49 $-1 $138 forward single #
loop $-1 $139 $140 $64 #
cone-surface $-1 -19.346243762972321 29.805112761206825 3.7313459519368974 0 -0.81915205242281985 -0.57357642473473569 0.5 0 0 1 I I 0 1 0.5 forward I I I I #
face $-1 $141 $142 $50 $-1 $143 forward single #
loop $-1 $144 $145 $65 #
cone-surface $-1 -13.667840072514878 29.805112761206825 3.7313459519368974 0 -0.81915205242281985 -0.57357642473473569 0.5 0 0 1 I I 0 1 0.5 forward I I I I #
face $-1 $146 $147 $51 $-1 $148 reversed single #
loop $-1 $-1 $149 $66 #
plane-surface $-1 9.8822376122099094 94.392015991763827 123.52231828230887 1 0 0 0 -0.81915205242281985 -0.57357642473473569 forward_v I I I I #
face $-1 $150 $151 $52 $-1 $152 forward single #
loop $-1 $153 $154 $67 #
cone-surface $-1 13.667840072514878 29.805112761206825 3.7313459519368974 0 -0.81915205242281985 -0.57357642473473569 0.5 0 0 1 I I 0 1 0.5 forward I I I I #
face $-1 $155 $156 $53 $-1 $157 forward single #
loop $-1 $158 $159 $68 #
cone-surface $-1 19.346243762972321 29.805112761206825 3.7313459519368974 0 -0.81915205242281985 -0.57357642473473569 0.5 0 0 1 I I 0 1 0.5 forward I I I I #
face $-1 $160 $161 $54 $-1 $162 reversed single #
loop $-1 $-1 $163 $69 #
plane-surface $-1 -9.8822376122099236 -131.10337544665651 71.093061869591367 -1 0 0 0 -0.81915205242281985 0.57357642473473569 forward_v I I I I #
face $-1 $164 $165 $55 $-1 $166 forward single #
loop $-1 $167 $168 $70 #
cone-surface $-1 -19.346243762972321 -29.805112761206825 3.731345951936901 0 0.81915205242281985 -0.57357642473473569 0.5 0 0 1 I I 0 1 0.5 forward I I I I #
face $-1 $169 $170 $56 $-1 $171 forward single #
loop $-1 $172 $173 $71 #
cone-surface $-1 -13.667840072514878 -29.805112761206825 3.731345951936901 0 0.81915205242281985 -0.57357642473473569 0.5 0 0 1 I I 0 1 0.5 forward I I I I #
face $-1 $174 $175 $57 $-1 $176 reversed single #
loop $-1 $-1 $177 $72 #
plane-surface $-1 23.131846223277275 -131.10337544665651 71.093061869591367 -1 0 0 0 -0.81915205242281985 0.57357642473473569 forward_v I I I I #
face $-1 $178 $179 $58 $-1 $180 forward single #
loop $-1 $181 $182 $73 #
cone-surface $-1 13.667840072514878 -29.805112761206825 3.731345951936901 0 0.81915205242281985 -0.57357642473473569 0.5 0 0 1 I I 0 1 0.5 forward I I I I #
face $-1 $183 $184 $59 $-1 $185 forward single #
loop $-1 $186 $187 $74 #
cone-surface $-1 19.346243762972321 -29.805112761206825 3.731345951936901 0 0.81915205242281985 -0.57357642473473569 0.5 0 0 1 I I 0 1 0.5 forward I I I I #
face $-1 $188 $189 $45 $-1 $190 reversed single #
loop $-1 $-1 $191 $75 #
plane-surface $-1 0 0 -6.4900875315755098 0 0 1 1 0 0 forward_v I I I I #
coedge $-1 $192 $193 $194 $195 forward $76 $-1 #
face $-1 $196 $197 $46 $-1 $198 forward single #
loop $-1 $-1 $199 $78 #
plane-surface $-1 0 32.002151650384448 0 0 -1 0 0 0 -1 forward_v I I I I #
coedge $-1 $200 $201 $202 $203 forward $79 $-1 #
face $-1 $204 $205 $47 $-1 $206 forward single #
loop $-1 $-1 $207 $81 #
plane-surface $-1 0 32.002151650384448 0 0 -1 0 0 0 -1 forward_v I I I I #
coedge $-1 $208 $209 $210 $211 forward $82 $-1 #
face $-1 $212 $213 $48 $-1 $214 reversed single #
loop $-1 $-1 $215 $84 #
plane-surface $-1 -16.507041917743607 -4.7092078045081962 54.130896428722949 0 0.81915205242281985 0.57357642473473569 1 0 0 forward_v I I I I #
coedge $-1 $216 $217 $218 $219 reversed $85 $-1 #
face $-1 $-1 $220 $49 $-1 $221 forward single #
loop $-1 $222 $223 $87 #
cone-surface $-1 -19.346243762972321 29.079739331686653 3.2234340238996371 0 -0.81915205242281985 -0.57357642473473569 0.25 0 0 1 I I -0.70710678118654746 0.70710678118654746 0.25 forward I I I I #
loop $-1 $-1 $224 $64 #
coedge $-1 $140 $140 $225 $226 reversed $88 $-1 #
face $-1 $-1 $227 $50 $-1 $228 forward single #
loop $-1 $229 $230 $90 #
cone-surface $-1 -13.667840072514878 29.079739331686653 3.2234340238996371 0 -0.81915205242281985 -0.57357642473473569 0.25 0 0 1 I I -0.70710678118654746 0.70710678118654746 0.25 forward I I I I #
loop $-1 $-1 $231 $65 #
coedge $-1 $145 $145 $232 $233 reversed $91 $-1 #
face $-1 $234 $235 $51 $-1 $236 reversed single #
loop $-1 $-1 $237 $93 #
plane-surface $-1 16.507041917743592 -4.7092078045081962 54.130896428722949 0 0.81915205242281985 0.57357642473473569 1 0 0 forward_v I I I I #
coedge $-1 $238 $239 $240 $241 reversed $94 $-1 #
face $-1 $-1 $242 $52 $-1 $243 forward single #
loop $-1 $244 $245 $96 #
cone-surface $-1 13.667840072514878 29.079739331686653 3.2234340238996371 0 -0.81915205242281985 -0.57357642473473569 0.25 0 0 1 I I -0.70710678118654746 0.70710678118654746 0.25 forward I I I I #
loop $-1 $-1 $246 $67 #
coedge $-1 $154 $154 $247 $248 reversed $97 $-1 #
face $-1 $-1 $249 $53 $-1 $250 forward single #
loop $-1 $251 $252 $99 #
cone-surface $-1 19.346243762972321 29.079739331686653 3.2234340238996371 0 -0.81915205242281985 -0.57357642473473569 0.25 0 0 1 I I -0.70710678118654746 0.70710678118654746 0.25 forward I I I I #
loop $-1 $-1 $253 $68 #
coedge $-1 $159 $159 $254 $255 reversed $100 $-1 #
face $-1 $256 $257 $54 $-1 $258 reversed single #
loop $-1 $-1 $259 $102 #
plane-surface $-1 -16.507041917743607 -32.002151650384491 1.7016400160054417 0 -0.81915205242281985 0.57357642473473569 1 0 0 forward_v I I I I #
coedge $-1 $260 $261 $262 $263 reversed $103 $-1 #
face $-1 $-1 $264 $55 $-1 $265 forward single #
loop $-1 $266 $267 $105 #
cone-surface $-1 -19.346243762972321 -29.079739331686653 3.2234340238996406 0 0.81915205242281985 -0.57357642473473569 0.25 0 0 1 I I -0.70710678118654746 0.70710678118654746 0.25 forward I I I I #
loop $-1 $-1 $268 $70 #
coedge $-1 $168 $168 $269 $270 reversed $106 $-1 #
face $-1 $-1 $271 $56 $-1 $272 forward single #
loop $-1 $273 $274 $108 #
cone-surface $-1 -13.667840072514878 -29.079739331686653 3.2234340238996406 0 0.81915205242281985 -0.57357642473473569 0.25 0 0 1 I I -0.70710678118654746 0.70710678118654746 0.25 forward I I I I #
loop $-1 $-1 $275 $71 #
coedge $-1 $173 $173 $276 $277 reversed $109 $-1 #
face $-1 $278 $279 $57 $-1 $280 reversed single #
loop $-1 $-1 $281 $111 #
plane-surface $-1 16.507041917743592 -32.002151650384491 1.7016400160054417 0 -0.81915205242281985 0.57357642473473569 1 0 0 forward_v I I I I #
coedge $-1 $282 $283 $284 $285 reversed $112 $-1 #
face $-1 $-1 $286 $58 $-1 $287 forward single #
loop $-1 $288 $289 $114 #
cone-surface $-1 13.667840072514878 -29.079739331686653 3.2234340238996406 0 0.81915205242281985 -0.57357642473473569 0.25 0 0 1 I I -0.70710678118654746 0.70710678118654746 0.25 forward I I I I #
loop $-1 $-1 $290 $73 #
coedge $-1 $182 $182 $291 $292 reversed $115 $-1 #
face $-1 $-1 $293 $59 $-1 $294 forward single #
loop $-1 $295 $296 $117 #
cone-surface $-1 19.346243762972321 -29.079739331686653 3.2234340238996406 0 0.81915205242281985 -0.57357642473473569 0.25 0 0 1 I I -0.70710678118654746 0.70710678118654746 0.25 forward I I I I #
loop $-1 $-1 $297 $74 #
coedge $-1 $187 $187 $298 $299 reversed $118 $-1 #
face $-1 $300 $301 $45 $-1 $302 reversed single #
loop $-1 $-1 $303 $120 #
plane-surface $-1 0 -32.002151650384448 0 0 1 0 0 0 1 forward_v I I I I #
coedge $-1 $304 $305 $306 $307 forward $121 $-1 #
coedge $-1 $308 $123 $309 $310 forward $76 $-1 #
coedge $-1 $123 $308 $311 $312 forward $76 $-1 #
coedge $-1 $313 $314 $123 $195 reversed $315 $-1 #
edge $-1 $316 -32.002151650384448 $317 32.002151650384448 $194 $318 forward 7 unknown #
face $-1 $319 $320 $46 $-1 $321 reversed single #
loop $-1 $-1 $202 $124 #
plane-surface $-1 -63.748572295173616 0 -3.1805726975932966 0 0 1 1 0 0 forward_v I I I I #
coedge $-1 $322 $323 $201 $324 forward $125 $-1 #
coedge $-1 $325 $127 $326 $327 reversed $79 $-1 #
coedge $-1 $127 $325 $199 $324 reversed $79 $-1 #
coedge $-1 $328 $329 $127 $203 reversed $197 $-1 #
edge $-1 $330 -32.002151650384448 $331 32.002151650384448 $202 $332 forward 7 unknown #
face $-1 $333 $334 $47 $-1 $335 reversed single #
loop $-1 $-1 $336 $128 #
plane-surface $-1 63.748572295173616 0 -3.1805726975932966 0 0 1 1 0 0 forward_v I I I I #
coedge $-1 $337 $338 $208 $339 forward $129 $-1 #
coedge $-1 $340 $131 $207 $339 reversed $82 $-1 #
coedge $-1 $131 $340 $341 $342 reversed $82 $-1 #
coedge $-1 $343 $344 $131 $211 reversed $205 $-1 #
edge $-1 $345 -32.002151650384448 $346 32.002151650384448 $210 $347 forward 7 unknown #
face $-1 $348 $349 $48 $-1 $350 reversed single #
loop $-1 $-1 $351 $132 #
plane-surface $-1 -9.8822376122099236 94.392015991763827 123.52231828230887 -1 0 0 0 0.81915205242281985 0.57357642473473569 forward_v I I I I #
coedge $-1 $352 $353 $354 $355 reversed $133 $-1 #
coedge $-1 $217 $135 $356 $357 reversed $85 $-1 #
coedge $-1 $135 $216 $352 $358 reversed $85 $-1 #
coedge $-1 $354 $359 $135 $219 forward $360 $-1 #
edge $-1 $361 15.193856345497466 $362 18.546763291023758 $218 $363 forward 7 unknown #
loop $-1 $-1 $225 $136 #
plane-surface $-1 -16.507041917743607 -4.7092078045081962 54.130896428722949 0 0.81915205242281985 0.57357642473473569 1 0 0 forward_v I I I I #
loop $-1 $-1 $364 $87 #
coedge $-1 $223 $223 $224 $365 reversed $137 $-1 #
coedge $-1 $224 $224 $223 $365 forward $139 $-1 #
coedge $-1 $225 $225 $140 $226 forward $220 $-1 #
edge $-1 $366 -2.9585262081033812e-016 $366 6.2831853071796004 $225 $367 forward 7 unknown #
loop $-1 $-1 $232 $141 #
plane-surface $-1 -16.507041917743607 -4.7092078045081962 54.130896428722949 0 0.81915205242281985 0.57357642473473569 1 0 0 forward_v I I I I #
loop $-1 $-1 $368 $90 #
coedge $-1 $230 $230 $231 $369 reversed $142 $-1 #
coedge $-1 $231 $231 $230 $369 forward $144 $-1 #
coedge $-1 $232 $232 $145 $233 forward $227 $-1 #
edge $-1 $370 -2.9585262081033812e-016 $370 6.2831853071796004 $232 $371 forward 7 unknown #
face $-1 $372 $373 $51 $-1 $374 forward single #
loop $-1 $-1 $375 $146 #
plane-surface $-1 23.131846223277275 94.392015991763827 123.52231828230887 -1 0 0 0 0.81915205242281985 0.57357642473473569 forward_v I I I I #
coedge $-1 $376 $377 $378 $379 reversed $147 $-1 #
coedge $-1 $239 $149 $380 $381 reversed $94 $-1 #
coedge $-1 $149 $238 $376 $382 reversed $94 $-1 #
coedge $-1 $378 $383 $149 $241 forward $373 $-1 #
edge $-1 $384 15.193856345497466 $385 18.546763291023758 $240 $386 forward 7 unknown #
loop $-1 $-1 $247 $150 #
plane-surface $-1 16.507041917743592 -4.7092078045081962 54.130896428722949 0 0.81915205242281985 0.57357642473473569 1 0 0 forward_v I I I I #
loop $-1 $-1 $387 $96 #
coedge $-1 $245 $245 $246 $388 reversed $151 $-1 #
coedge $-1 $246 $246 $245 $388 forward $153 $-1 #
coedge $-1 $247 $247 $154 $248 forward $242 $-1 #
edge $-1 $389 -2.9585262081033812e-016 $389 6.2831853071796004 $247 $390 forward 7 unknown #
loop $-1 $-1 $254 $155 #
plane-surface $-1 16.507041917743592 -4.7092078045081962 54.130896428722949 0 0.81915205242281985 0.57357642473473569 1 0 0 forward_v I I I I #
loop $-1 $-1 $391 $99 #
coedge $-1 $252 $252 $253 $392 reversed $156 $-1 #
coedge $-1 $253 $253 $252 $392 forward $158 $-1 #
coedge $-1 $254 $254 $159 $255 forward $249 $-1 #
edge $-1 $393 -2.9585262081033812e-016 $393 6.2831853071796004 $254 $394 forward 7 unknown #
face $-1 $395 $396 $54 $-1 $397 forward single #
loop $-1 $-1 $398 $160 #
plane-surface $-1 -23.131846223277289 -131.10337544665651 71.093061869591367 1 0 0 0 0.81915205242281985 -0.57357642473473569 forward_v I I I I #
coedge $-1 $399 $400 $401 $402 reversed $161 $-1 #
coedge $-1 $261 $163 $403 $404 reversed $103 $-1 #
coedge $-1 $163 $260 $399 $405 reversed $103 $-1 #
coedge $-1 $401 $406 $163 $263 forward $396 $-1 #
edge $-1 $407 33.549536072943809 $408 36.90244301847008 $262 $409 forward 7 unknown #
loop $-1 $-1 $269 $164 #
plane-surface $-1 -16.507041917743607 -32.002151650384491 1.7016400160054417 0 -0.81915205242281985 0.57357642473473569 1 0 0 forward_v I I I I #
loop $-1 $-1 $410 $105 #
coedge $-1 $267 $267 $268 $411 reversed $165 $-1 #
coedge $-1 $268 $268 $267 $411 forward $167 $-1 #
coedge $-1 $269 $269 $168 $270 forward $264 $-1 #
edge $-1 $412 5.9170524162067625e-016 $412 6.2831853071796013 $269 $413 forward 7 unknown #
loop $-1 $-1 $276 $169 #
plane-surface $-1 -16.507041917743607 -32.002151650384491 1.7016400160054417 0 -0.81915205242281985 0.57357642473473569 1 0 0 forward_v I I I I #
loop $-1 $-1 $414 $108 #
coedge $-1 $274 $274 $275 $415 reversed $170 $-1 #
coedge $-1 $275 $275 $274 $415 forward $172 $-1 #
coedge $-1 $276 $276 $173 $277 forward $271 $-1 #
edge $-1 $416 5.9170524162067625e-016 $416 6.2831853071796013 $276 $417 forward 7 unknown #
face $-1 $418 $419 $57 $-1 $420 reversed single #
loop $-1 $-1 $421 $174 #
plane-surface $-1 9.8822376122099094 -131.10337544665651 71.093061869591367 1 0 0 0 0.81915205242281985 -0.57357642473473569 forward_v I I I I #
coedge $-1 $422 $423 $424 $425 reversed $175 $-1 #
coedge $-1 $283 $177 $426 $427 reversed $112 $-1 #
coedge $-1 $177 $282 $422 $428 reversed $112 $-1 #
coedge $-1 $424 $429 $177 $285 forward $430 $-1 #
edge $-1 $431 33.549536072943809 $432 36.90244301847008 $284 $433 forward 7 unknown #
loop $-1 $-1 $291 $178 #
plane-surface $-1 16.507041917743592 -32.002151650384491 1.7016400160054417 0 -0.81915205242281985 0.57357642473473569 1 0 0 forward_v I I I I #
loop $-1 $-1 $434 $114 #
coedge $-1 $289 $289 $290 $435 reversed $179 $-1 #
coedge $-1 $290 $290 $289 $435 forward $181 $-1 #
coedge $-1 $291 $291 $182 $292 forward $286 $-1 #
edge $-1 $436 5.9170524162067625e-016 $436 6.2831853071796013 $291 $437 forward 7 unknown #
loop $-1 $-1 $298 $183 #
plane-surface $-1 16.507041917743592 -32.002151650384491 1.7016400160054417 0 -0.81915205242281985 0.57357642473473569 1 0 0 forward_v I I I I #
loop $-1 $-1 $438 $117 #
coedge $-1 $296 $296 $297 $439 reversed $184 $-1 #
coedge $-1 $297 $297 $296 $439 forward $186 $-1 #
coedge $-1 $298 $298 $187 $299 forward $293 $-1 #
edge $-1 $440 5.9170524162067625e-016 $440 6.2831853071796013 $298 $441 forward 7 unknown #
face $-1 $442 $443 $45 $-1 $444 reversed single #
loop $-1 $-1 $445 $188 #
plane-surface $-1 -60.490127262184515 0 0 1 0 0 0 0 -1 forward_v I I I I #
coedge $-1 $446 $311 $445 $447 forward $189 $-1 #
coedge $-1 $448 $191 $446 $449 forward $121 $-1 #
coedge $-1 $191 $448 $450 $451 forward $121 $-1 #
coedge $-1 $314 $313 $191 $307 reversed $315 $-1 #
edge $-1 $452 -32.002151650384448 $453 32.002151650384448 $306 $454 forward 7 unknown #
coedge $-1 $193 $192 $455 $456 forward $76 $-1 #
coedge $-1 $457 $458 $192 $310 reversed $443 $-1 #
edge $-1 $317 -60.490127262184515 $459 60.490127262184515 $309 $460 forward 7 unknown #
coedge $-1 $303 $461 $193 $312 reversed $189 $-1 #
edge $-1 $462 -60.490127262184515 $316 60.490127262184515 $311 $463 forward 7 unknown #
coedge $-1 $306 $194 $461 $464 forward $315 $-1 #
coedge $-1 $194 $306 $457 $465 reversed $315 $-1 #
loop $-1 $-1 $314 $442 #
vertex $-1 $195 $466 #
vertex $-1 $195 $467 #
straight-curve $-1 60.490127262184515 0 6.4900875315755098 0 1 0 I I #
face $-1 $468 $469 $46 $-1 $470 reversed single #
loop $-1 $-1 $471 $196 #
plane-surface $-1 -67.007017328162718 0 -4.8353301145844032 1 0 0 0 0 -1 forward_v I I I I #
coedge $-1 $472 $199 $473 $474 reversed $125 $-1 #
coedge $-1 $199 $472 $328 $475 reversed $125 $-1 #
edge $-1 $330 3.1805726975932966 $476 6.4900875315755098 $199 $477 forward 7 unknown #
coedge $-1 $201 $200 $478 $479 reversed $79 $-1 #
coedge $-1 $480 $481 $200 $327 forward $482 $-1 #
edge $-1 $483 -6.4900875315755098 $331 -3.1805726975932966 $326 $484 forward 7 unknown #
coedge $-1 $485 $202 $323 $475 forward $197 $-1 #
coedge $-1 $202 $485 $480 $486 forward $197 $-1 #
vertex $-1 $324 $487 #
vertex $-1 $486 $488 #
straight-curve $-1 -60.490127262184515 0 -3.1805726975932966 0 -1 0 I I #
face $-1 $489 $490 $47 $-1 $491 reversed single #
loop $-1 $-1 $492 $204 #
plane-surface $-1 67.007017328162718 0 -4.8353301145844032 -1 0 0 0 0 1 forward_v I I I I #
coedge $-1 $344 $343 $493 $494 forward $205 $-1 #
coedge $-1 $495 $207 $344 $496 reversed $129 $-1 #
coedge $-1 $207 $495 $497 $498 reversed $129 $-1 #
edge $-1 $499 -6.4900875315755098 $346 -3.1805726975932966 $207 $500 forward 7 unknown #
coedge $-1 $209 $208 $501 $502 reversed $82 $-1 #
coedge $-1 $503 $504 $209 $342 forward $505 $-1 #
edge $-1 $345 3.1805726975932966 $506 6.4900875315755098 $341 $507 forward 7 unknown #
coedge $-1 $336 $210 $504 $508 forward $205 $-1 #
coedge $-1 $210 $336 $337 $496 forward $205 $-1 #
vertex $-1 $342 $509 #
vertex $-1 $496 $510 #
straight-curve $-1 60.490127262184515 0 -3.1805726975932966 0 1 0 I I #
face $-1 $-1 $360 $48 $-1 $511 forward single #
loop $-1 $-1 $512 $212 #
plane-surface $-1 0 32.002151650384448 0 0 -1 0 0 0 -1 forward_v I I I I #
coedge $-1 $513 $514 $515 $516 reversed $213 $-1 #
coedge $-1 $517 $215 $217 $358 forward $133 $-1 #
coedge $-1 $215 $517 $513 $518 forward $133 $-1 #
coedge $-1 $515 $218 $215 $355 forward $360 $-1 #
edge $-1 $362 -14.878325264405486 $519 -1.6287166533381203 $354 $520 forward 7 unknown #
coedge $-1 $521 $522 $216 $357 forward $349 $-1 #
edge $-1 $523 -60.05951912514896 $361 -55.271071609578925 $356 $524 forward 7 unknown #
edge $-1 $362 58.158688312187479 $523 64.004303300768868 $217 $525 forward 7 unknown #
coedge $-1 $218 $515 $521 $526 forward $360 $-1 #
loop $-1 $-1 $515 $348 #
vertex $-1 $357 $527 #
vertex $-1 $219 $528 #
straight-curve $-1 -23.131846223277289 47.196007995881914 6.4900875315755115 0 -1 0 I I #
coedge $-1 $364 $364 $-1 $529 reversed $222 $-1 #
edge $-1 $530 0 $530 6.2831853071796004 $223 $531 forward 7 unknown #
vertex $-1 $226 $532 #
ellipse-curve $-1 -19.346243762972321 30.325698177621305 4.0958637737904837 0 0.81915205242281985 0.57357642473473569 0.5 0 0 1 I I #
coedge $-1 $368 $368 $-1 $533 reversed $229 $-1 #
edge $-1 $534 0 $534 6.2831853071796004 $230 $535 forward 7 unknown #
vertex $-1 $233 $536 #
ellipse-curve $-1 -13.667840072514878 30.325698177621305 4.0958637737904837 0 0.81915205242281985 0.57357642473473569 0.5 0 0 1 I I #
face $-1 $-1 $537 $51 $-1 $538 reversed single #
loop $-1 $-1 $240 $234 #
plane-surface $-1 0 0 6.4900875315755098 0 0 1 1 0 0 forward_v I I I I #
coedge $-1 $539 $540 $541 $542 reversed $235 $-1 #
coedge $-1 $543 $237 $239 $382 forward $147 $-1 #
coedge $-1 $237 $543 $539 $544 forward $147 $-1 #
coedge $-1 $541 $240 $237 $379 forward $373 $-1 #
edge $-1 $385 1.6287166533381132 $545 14.878325264405479 $378 $546 forward 7 unknown #
coedge $-1 $547 $548 $238 $381 forward $537 $-1 #
edge $-1 $549 -60.05951912514896 $384 -55.271071609578925 $380 $550 forward 7 unknown #
edge $-1 $385 58.158688312187479 $549 64.004303300768868 $239 $551 forward 7 unknown #
coedge $-1 $240 $541 $547 $552 forward $373 $-1 #
vertex $-1 $241 $553 #
vertex $-1 $241 $554 #
straight-curve $-1 9.8822376122099094 47.196007995881914 6.4900875315755115 0 -1 0 I I #
coedge $-1 $387 $387 $-1 $555 reversed $244 $-1 #
edge $-1 $556 0 $556 6.2831853071796004 $245 $557 forward 7 unknown #
vertex $-1 $248 $558 #
ellipse-curve $-1 13.667840072514878 30.325698177621305 4.0958637737904837 0 0.81915205242281985 0.57357642473473569 0.5 0 0 1 I I #
coedge $-1 $391 $391 $-1 $559 reversed $251 $-1 #
edge $-1 $560 0 $560 6.2831853071796004 $252 $561 forward 7 unknown #
vertex $-1 $255 $562 #
ellipse-curve $-1 19.346243762972321 30.325698177621305 4.0958637737904837 0 0.81915205242281985 0.57357642473473569 0.5 0 0 1 I I #
face $-1 $-1 $563 $54 $-1 $564 reversed single #
loop $-1 $-1 $262 $256 #
plane-surface $-1 0 0 6.4900875315755098 0 0 1 1 0 0 forward_v I I I I #
coedge $-1 $565 $566 $567 $568 reversed $257 $-1 #
coedge $-1 $569 $259 $261 $405 forward $161 $-1 #
coedge $-1 $259 $569 $565 $570 forward $161 $-1 #
coedge $-1 $567 $262 $259 $402 forward $396 $-1 #
edge $-1 $408 1.6287166533381203 $571 14.878325264405486 $401 $572 forward 7 unknown #
coedge $-1 $573 $574 $260 $404 forward $563 $-1 #
edge $-1 $575 -33.844890918790178 $407 -29.056443403220172 $403 $576 forward 7 unknown #
edge $-1 $408 -5.8456149885814206 $575 -7.429042623583945e-014 $261 $577 forward 7 unknown #
coedge $-1 $262 $567 $573 $578 forward $396 $-1 #
vertex $-1 $404 $579 #
vertex $-1 $263 $580 #
straight-curve $-1 -9.8822376122099236 -65.551687723328257 6.4900875315755115 0 1 0 I I #
coedge $-1 $410 $410 $-1 $581 reversed $266 $-1 #
edge $-1 $582 0 $582 6.2831853071796004 $267 $583 forward 7 unknown #
vertex $-1 $270 $584 #
ellipse-curve $-1 -19.346243762972321 -30.325698177621319 4.095863773790497 0 -0.81915205242281985 0.57357642473473569 0.5 0 0 1 I I #
coedge $-1 $414 $414 $-1 $585 reversed $273 $-1 #
edge $-1 $586 0 $586 6.2831853071796004 $274 $587 forward 7 unknown #
vertex $-1 $277 $588 #
ellipse-curve $-1 -13.667840072514878 -30.325698177621319 4.095863773790497 0 -0.81915205242281985 0.57357642473473569 0.5 0 0 1 I I #
face $-1 $-1 $430 $57 $-1 $589 forward single #
loop $-1 $-1 $590 $278 #
plane-surface $-1 0 -32.002151650384448 0 0 1 0 0 0 1 forward_v I I I I #
coedge $-1 $591 $592 $593 $594 reversed $279 $-1 #
coedge $-1 $595 $281 $283 $428 forward $175 $-1 #
coedge $-1 $281 $595 $591 $596 forward $175 $-1 #
coedge $-1 $593 $284 $281 $425 forward $430 $-1 #
edge $-1 $432 -14.878325264405479 $597 -1.6287166533381132 $424 $598 forward 7 unknown #
coedge $-1 $599 $600 $282 $427 forward $419 $-1 #
edge $-1 $601 -33.844890918790178 $431 -29.056443403220172 $426 $602 forward 7 unknown #
edge $-1 $432 -5.8456149885814206 $601 -7.429042623583945e-014 $283 $603 forward 7 unknown #
coedge $-1 $284 $593 $599 $604 forward $430 $-1 #
loop $-1 $-1 $593 $418 #
vertex $-1 $427 $605 #
vertex $-1 $285 $606 #
straight-curve $-1 23.131846223277275 -65.551687723328257 6.4900875315755115 0 1 0 I I #
coedge $-1 $434 $434 $-1 $607 reversed $288 $-1 #
edge $-1 $608 0 $608 6.2831853071796004 $289 $609 forward 7 unknown #
vertex $-1 $292 $610 #
ellipse-curve $-1 13.667840072514878 -30.325698177621319 4.095863773790497 0 -0.81915205242281985 0.57357642473473569 0.5 0 0 1 I I #
coedge $-1 $438 $438 $-1 $611 reversed $295 $-1 #
edge $-1 $612 0 $612 6.2831853071796004 $296 $613 forward 7 unknown #
vertex $-1 $299 $614 #
ellipse-curve $-1 19.346243762972321 -30.325698177621319 4.095863773790497 0 -0.81915205242281985 0.57357642473473569 0.5 0 0 1 I I #
face $-1 $-1 $315 $45 $-1 $615 reversed single #
loop $-1 $-1 $457 $300 #
plane-surface $-1 0 32.002151650384448 0 0 -1 0 0 0 -1 forward_v I I I I #
coedge $-1 $455 $616 $303 $447 reversed $301 $-1 #
coedge $-1 $461 $303 $304 $449 reversed $189 $-1 #
edge $-1 $462 -6.4900875315755098 $617 6.4900875315755098 $445 $618 forward 7 unknown #
coedge $-1 $305 $304 $616 $619 forward $121 $-1 #
edge $-1 $453 -60.490127262184515 $617 60.490127262184515 $446 $620 forward 7 unknown #
coedge $-1 $458 $457 $305 $451 reversed $443 $-1 #
edge $-1 $621 -60.490127262184515 $452 60.490127262184515 $450 $622 forward 7 unknown #
vertex $-1 $307 $623 #
vertex $-1 $464 $624 #
straight-curve $-1 60.490127262184515 0 -6.4900875315755098 0 -1 0 I I #
coedge $-1 $625 $445 $308 $456 reversed $301 $-1 #
edge $-1 $459 -32.002151650384448 $462 32.002151650384448 $455 $626 forward 7 unknown #
coedge $-1 $450 $309 $314 $465 forward $443 $-1 #
coedge $-1 $309 $450 $625 $627 reversed $443 $-1 #
vertex $-1 $310 $628 #
straight-curve $-1 0 32.002151650384448 6.4900875315755098 -1 0 0 I I #
coedge $-1 $311 $446 $313 $464 reversed $189 $-1 #
vertex $-1 $456 $629 #
straight-curve $-1 0 -32.002151650384448 6.4900875315755098 1 0 0 I I #
edge $-1 $316 -6.4900875315755098 $453 6.4900875315755098 $313 $630 forward 7 unknown #
edge $-1 $317 -6.4900875315755098 $452 6.4900875315755098 $314 $631 forward 7 unknown #
point $-1 60.490127262184515 -32.002151650384448 6.4900875315755098 #
point $-1 60.490127262184515 32.002151650384448 6.4900875315755098 #
face $-1 $-1 $482 $46 $-1 $632 reversed single #
loop $-1 $-1 $478 $319 #
plane-surface $-1 0 0 -6.4900875315755098 0 0 1 1 0 0 forward_v I I I I #
coedge $-1 $633 $634 $472 $635 forward $320 $-1 #
coedge $-1 $323 $322 $471 $635 reversed $125 $-1 #
coedge $-1 $478 $636 $322 $474 forward $469 $-1 #
edge $-1 $637 -67.007017328162718 $476 -60.490127262184515 $322 $638 forward 7 unknown #
edge $-1 $330 -3.2584450329891013 $639 3.2584450329891013 $323 $640 forward 7 unknown #
vertex $-1 $324 $641 #
straight-curve $-1 -60.490127262184515 32.002151650384448 0 0 0 -1 I I #
coedge $-1 $642 $473 $325 $479 forward $469 $-1 #
edge $-1 $476 -32.002151650384448 $483 32.002151650384448 $478 $643 forward 7 unknown #
coedge $-1 $644 $326 $329 $486 reversed $482 $-1 #
coedge $-1 $326 $644 $642 $645 reversed $482 $-1 #
loop $-1 $-1 $326 $468 #
vertex $-1 $645 $646 #
straight-curve $-1 -60.490127262184515 -32.002151650384448 0 0 0 1 I I #
coedge $-1 $329 $328 $634 $647 forward $197 $-1 #
edge $-1 $648 -3.2584450329891013 $331 3.2584450329891013 $480 $649 forward 7 unknown #
point $-1 -60.490127262184515 32.002151650384448 -3.1805726975932966 #
point $-1 -60.490127262184515 -32.002151650384448 -3.1805726975932966 #
face $-1 $-1 $505 $47 $-1 $650 reversed single #
loop $-1 $-1 $501 $333 #
plane-surface $-1 0 0 -6.4900875315755098 0 0 1 1 0 0 forward_v I I I I #
coedge $-1 $651 $493 $652 $653 forward $334 $-1 #
coedge $-1 $492 $654 $336 $494 reversed $334 $-1 #
edge $-1 $655 -32.002151650384448 $656 32.002151650384448 $493 $657 forward 7 unknown #
coedge $-1 $338 $337 $654 $658 forward $129 $-1 #
edge $-1 $656 -3.2584450329891013 $346 3.2584450329891013 $337 $659 forward 7 unknown #
coedge $-1 $660 $501 $338 $498 forward $490 $-1 #
edge $-1 $499 -3.2584450329891013 $661 3.2584450329891013 $338 $662 forward 7 unknown #
vertex $-1 $498 $663 #
straight-curve $-1 60.490127262184515 32.002151650384448 0 0 0 1 I I #
coedge $-1 $497 $664 $340 $502 forward $490 $-1 #
edge $-1 $506 -32.002151650384448 $499 32.002151650384448 $501 $665 forward 7 unknown #
coedge $-1 $652 $341 $664 $666 reversed $505 $-1 #
coedge $-1 $341 $652 $343 $508 reversed $505 $-1 #
loop $-1 $-1 $341 $489 #
vertex $-1 $342 $667 #
straight-curve $-1 60.490127262184515 -32.002151650384448 0 0 0 -1 I I #
edge $-1 $345 -3.2584450329891013 $655 3.2584450329891013 $504 $668 forward 7 unknown #
point $-1 60.490127262184515 -32.002151650384448 -3.1805726975932966 #
point $-1 60.490127262184515 32.002151650384448 -3.1805726975932966 #
plane-surface $-1 0 0 6.4900875315755098 0 0 1 1 0 0 forward_v I I I I #
coedge $-1 $522 $521 $514 $669 forward $349 $-1 #
coedge $-1 $514 $351 $353 $518 reversed $213 $-1 #
coedge $-1 $351 $513 $512 $669 reversed $213 $-1 #
coedge $-1 $359 $354 $351 $516 forward $360 $-1 #
edge $-1 $519 -18.546763291023758 $670 -15.193856345497466 $515 $671 forward 7 unknown #
coedge $-1 $353 $352 $522 $672 reversed $133 $-1 #
edge $-1 $673 -64.004303300768868 $519 -58.158688312187479 $513 $674 forward 7 unknown #
vertex $-1 $355 $675 #
straight-curve $-1 -8.2535209588718033 28.649244704858159 6.4900875315755115 1 0 0 I I #
coedge $-1 $512 $356 $359 $526 reversed $349 $-1 #
coedge $-1 $356 $512 $517 $672 forward $349 $-1 #
vertex $-1 $357 $676 #
straight-curve $-1 -23.131846223277289 32.002151650384448 61.761159141154437 0 0 1 I I #
straight-curve $-1 -23.131846223277289 -4.7092078045081962 54.130896428722949 0 0.57357642473473569 -0.81915205242281985 I I #
edge $-1 $670 9.8822376122099236 $361 23.131846223277289 $521 $677 forward 7 unknown #
point $-1 -23.131846223277289 32.002151650384448 6.4900875315755098 #
point $-1 -23.131846223277289 28.649244704858155 6.4900875315755115 #
edge $-1 $678 1 $678 0 $364 $-1 forward 7 unknown #
vertex $-1 $365 $679 #
ellipse-curve $-1 -19.346243762972321 29.284527344792359 3.3668281300833209 0 0.81915205242281985 0.57357642473473569 0.5 0 0 1 I I #
point $-1 -18.846243762972321 30.325698177621291 4.0958637737904739 #
edge $-1 $680 1 $680 0 $368 $-1 forward 7 unknown #
vertex $-1 $369 $681 #
ellipse-curve $-1 -13.667840072514878 29.284527344792359 3.3668281300833209 0 0.81915205242281985 0.57357642473473569 0.5 0 0 1 I I #
point $-1 -13.167840072514878 30.325698177621291 4.0958637737904739 #
loop $-1 $-1 $380 $372 #
plane-surface $-1 0 32.002151650384448 0 0 -1 0 0 0 -1 forward_v I I I I #
coedge $-1 $540 $375 $377 $544 reversed $235 $-1 #
coedge $-1 $375 $539 $682 $683 reversed $235 $-1 #
coedge $-1 $383 $378 $375 $542 forward $373 $-1 #
edge $-1 $545 -18.546763291023758 $684 -15.193856345497466 $541 $685 forward 7 unknown #
coedge $-1 $377 $376 $548 $686 reversed $147 $-1 #
edge $-1 $687 -64.004303300768868 $545 -58.158688312187479 $539 $688 forward 7 unknown #
vertex $-1 $379 $689 #
straight-curve $-1 8.2535209588717962 28.649244704858159 6.4900875315755115 1 0 0 I I #
coedge $-1 $682 $380 $383 $552 reversed $537 $-1 #
coedge $-1 $380 $682 $543 $686 forward $537 $-1 #
vertex $-1 $381 $690 #
straight-curve $-1 9.8822376122099094 32.002151650384448 61.761159141154437 0 0 1 I I #
straight-curve $-1 9.8822376122099094 -4.7092078045081962 54.130896428722949 0 0.57357642473473569 -0.81915205242281985 I I #
edge $-1 $684 -23.131846223277275 $384 -9.8822376122099094 $547 $691 forward 7 unknown #
point $-1 9.8822376122099094 32.002151650384448 6.4900875315755098 #
point $-1 9.8822376122099094 28.649244704858155 6.4900875315755115 #
edge $-1 $692 1 $692 0 $387 $-1 forward 7 unknown #
vertex $-1 $388 $693 #
ellipse-curve $-1 13.667840072514878 29.284527344792359 3.3668281300833209 0 0.81915205242281985 0.57357642473473569 0.5 0 0 1 I I #
point $-1 14.167840072514878 30.325698177621291 4.0958637737904739 #
edge $-1 $694 1 $694 0 $391 $-1 forward 7 unknown #
vertex $-1 $392 $695 #
ellipse-curve $-1 19.346243762972321 29.284527344792359 3.3668281300833209 0 0.81915205242281985 0.57357642473473569 0.5 0 0 1 I I #
point $-1 19.846243762972321 30.325698177621291 4.0958637737904739 #
loop $-1 $-1 $403 $395 #
plane-surface $-1 0 -32.002151650384448 0 0 1 0 0 0 1 forward_v I I I I #
coedge $-1 $566 $398 $400 $570 reversed $257 $-1 #
coedge $-1 $398 $565 $696 $697 reversed $257 $-1 #
coedge $-1 $406 $401 $398 $568 forward $396 $-1 #
edge $-1 $571 -36.90244301847008 $698 -33.549536072943809 $567 $699 forward 7 unknown #
coedge $-1 $400 $399 $574 $700 reversed $161 $-1 #
edge $-1 $701 7.429042623583945e-014 $571 5.8456149885814206 $565 $702 forward 7 unknown #
vertex $-1 $402 $703 #
straight-curve $-1 -8.2535209588718033 -28.64924470485818 6.4900875315755098 -1 0 0 I I #
coedge $-1 $696 $403 $406 $578 reversed $563 $-1 #
coedge $-1 $403 $696 $569 $700 forward $563 $-1 #
vertex $-1 $404 $704 #
straight-curve $-1 -9.8822376122099236 -32.002151650384448 35.546530934795683 0 0 1 I I #
straight-curve $-1 -9.8822376122099236 -32.002151650384491 1.7016400160054417 0 -0.57357642473473569 -0.81915205242281985 I I #
edge $-1 $698 -23.131846223277289 $407 -9.8822376122099236 $573 $705 forward 7 unknown #
point $-1 -9.8822376122099236 -32.002151650384448 6.4900875315755098 #
point $-1 -9.8822376122099236 -28.649244704858177 6.4900875315755098 #
edge $-1 $706 1 $706 0 $410 $-1 forward 7 unknown #
vertex $-1 $411 $707 #
ellipse-curve $-1 -19.346243762972321 -29.284527344792359 3.3668281300833245 0 -0.81915205242281985 0.57357642473473569 0.5 0 0 1 I I #
point $-1 -18.846243762972321 -30.325698177621291 4.0958637737904775 #
edge $-1 $708 1 $708 0 $414 $-1 forward 7 unknown #
vertex $-1 $415 $709 #
ellipse-curve $-1 -13.667840072514878 -29.284527344792359 3.3668281300833245 0 -0.81915205242281985 0.57357642473473569 0.5 0 0 1 I I #
point $-1 -13.167840072514878 -30.325698177621291 4.0958637737904775 #
plane-surface $-1 0 0 6.4900875315755098 0 0 1 1 0 0 forward_v I I I I #
coedge $-1 $600 $599 $592 $710 forward $419 $-1 #
coedge $-1 $592 $421 $423 $596 reversed $279 $-1 #
coedge $-1 $421 $591 $590 $710 reversed $279 $-1 #
coedge $-1 $429 $424 $421 $594 forward $430 $-1 #
edge $-1 $597 -36.90244301847008 $711 -33.549536072943809 $593 $712 forward 7 unknown #
coedge $-1 $423 $422 $600 $713 reversed $175 $-1 #
edge $-1 $714 7.429042623583945e-014 $597 5.8456149885814206 $591 $715 forward 7 unknown #
vertex $-1 $425 $716 #
straight-curve $-1 8.2535209588717962 -28.64924470485818 6.4900875315755098 -1 0 0 I I #
coedge $-1 $590 $426 $429 $604 reversed $419 $-1 #
coedge $-1 $426 $590 $595 $713 forward $419 $-1 #
vertex $-1 $427 $717 #
straight-curve $-1 23.131846223277275 -32.002151650384448 35.546530934795683 0 0 1 I I #
straight-curve $-1 23.131846223277275 -32.002151650384491 1.7016400160054417 0 -0.57357642473473569 -0.81915205242281985 I I #
edge $-1 $711 9.8822376122099094 $431 23.131846223277275 $599 $718 forward 7 unknown #
point $-1 23.131846223277275 -32.002151650384448 6.4900875315755098 #
point $-1 23.131846223277275 -28.649244704858177 6.4900875315755098 #
edge $-1 $719 1 $719 0 $434 $-1 forward 7 unknown #
vertex $-1 $435 $720 #
ellipse-curve $-1 13.667840072514878 -29.284527344792359 3.3668281300833245 0 -0.81915205242281985 0.57357642473473569 0.5 0 0 1 I I #
point $-1 14.167840072514878 -30.325698177621291 4.0958637737904775 #
edge $-1 $721 1 $721 0 $438 $-1 forward 7 unknown #
vertex $-1 $439 $722 #
ellipse-curve $-1 19.346243762972321 -29.284527344792359 3.3668281300833245 0 -0.81915205242281985 0.57357642473473569 0.5 0 0 1 I I #
point $-1 19.846243762972321 -30.325698177621291 4.0958637737904775 #
plane-surface $-1 60.490127262184515 0 0 -1 0 0 0 0 1 forward_v I I I I #
coedge $-1 $445 $625 $448 $619 reversed $301 $-1 #
vertex $-1 $619 $723 #
straight-curve $-1 -60.490127262184515 -32.002151650384448 0 0 0 -1 I I #
edge $-1 $617 -32.002151650384448 $621 32.002151650384448 $616 $724 forward 7 unknown #
straight-curve $-1 0 -32.002151650384448 -6.4900875315755098 -1 0 0 I I #
vertex $-1 $451 $725 #
straight-curve $-1 0 32.002151650384448 -6.4900875315755098 1 0 0 I I #
point $-1 60.490127262184515 32.002151650384448 -6.4900875315755098 #
point $-1 60.490127262184515 -32.002151650384448 -6.4900875315755098 #
coedge $-1 $616 $455 $458 $627 forward $301 $-1 #
straight-curve $-1 -60.490127262184515 0 6.4900875315755098 0 -1 0 I I #
edge $-1 $459 -6.4900875315755098 $621 6.4900875315755098 $458 $726 forward 7 unknown #
point $-1 -60.490127262184515 32.002151650384448 6.4900875315755098 #
point $-1 -60.490127262184515 -32.002151650384448 6.4900875315755098 #
straight-curve $-1 60.490127262184515 -32.002151650384448 0 0 0 -1 I I #
straight-curve $-1 60.490127262184515 32.002151650384448 0 0 0 -1 I I #
plane-surface $-1 0 -32.002151650384448 0 0 1 0 0 0 1 forward_v I I I I #
coedge $-1 $727 $471 $636 $728 reversed $320 $-1 #
coedge $-1 $471 $727 $485 $647 reversed $320 $-1 #
edge $-1 $639 -1.6547574169911066 $637 1.6547574169911066 $472 $729 forward 7 unknown #
coedge $-1 $473 $642 $633 $728 forward $469 $-1 #
vertex $-1 $474 $730 #
straight-curve $-1 0 32.002151650384448 -6.4900875315755098 1 0 0 I I #
vertex $-1 $475 $731 #
straight-curve $-1 -63.748572295173616 32.002151650384448 -3.1805726975932966 -1 0 0 I I #
point $-1 -60.490127262184515 32.002151650384448 -6.4900875315755098 #
coedge $-1 $636 $478 $481 $645 forward $469 $-1 #
straight-curve $-1 -60.490127262184515 0 -6.4900875315755098 0 -1 0 I I #
coedge $-1 $481 $480 $727 $732 forward $482 $-1 #
edge $-1 $483 -3.2584450329891013 $733 3.2584450329891013 $481 $734 forward 7 unknown #
point $-1 -60.490127262184515 -32.002151650384448 -6.4900875315755098 #
edge $-1 $639 -32.002151650384448 $648 32.002151650384448 $634 $735 forward 7 unknown #
vertex $-1 $647 $736 #
straight-curve $-1 -63.748572295173616 -32.002151650384448 -3.1805726975932966 1 0 0 I I #
plane-surface $-1 0 -32.002151650384448 0 0 1 0 0 0 1 forward_v I I I I #
coedge $-1 $654 $492 $660 $737 reversed $334 $-1 #
coedge $-1 $504 $503 $492 $653 reversed $505 $-1 #
edge $-1 $655 -1.6547574169911066 $738 1.6547574169911066 $492 $739 forward 7 unknown #
coedge $-1 $493 $651 $495 $658 reversed $334 $-1 #
vertex $-1 $494 $740 #
vertex $-1 $494 $741 #
straight-curve $-1 67.007017328162718 0 -3.1805726975932966 0 1 0 I I #
edge $-1 $656 -1.6547574169911066 $661 1.6547574169911066 $654 $742 forward 7 unknown #
straight-curve $-1 63.748572295173616 32.002151650384448 -3.1805726975932966 -1 0 0 I I #
coedge $-1 $664 $497 $651 $737 forward $490 $-1 #
vertex $-1 $737 $743 #
straight-curve $-1 63.748572295173616 32.002151650384448 -6.4900875315755098 1 0 0 I I #
point $-1 60.490127262184515 32.002151650384448 -6.4900875315755098 #
coedge $-1 $501 $660 $503 $666 forward $490 $-1 #
straight-curve $-1 60.490127262184515 0 -6.4900875315755098 0 1 0 I I #
edge $-1 $738 -3.2584450329891013 $506 3.2584450329891013 $503 $744 forward 7 unknown #
point $-1 60.490127262184515 -32.002151650384448 -6.4900875315755098 #
straight-curve $-1 63.748572295173616 -32.002151650384448 -3.1805726975932966 1 0 0 I I #
edge $-1 $670 55.271071609578925 $673 60.05951912514896 $512 $745 forward 7 unknown #
vertex $-1 $526 $746 #
straight-curve $-1 -9.8822376122099236 47.196007995881914 6.4900875315755115 0 1 0 I I #
edge $-1 $673 1.6287166533381203 $523 14.878325264405486 $522 $747 forward 7 unknown #
vertex $-1 $672 $748 #
straight-curve $-1 -9.8822376122099236 -4.7092078045081962 54.130896428722949 0 -0.57357642473473569 0.81915205242281985 I I #
point $-1 -9.8822376122099236 28.649244704858155 6.4900875315755115 #
point $-1 -23.131846223277289 32.002151650384448 1.7016400160054772 #
straight-curve $-1 0 32.002151650384448 6.4900875315755098 -1 0 0 I I #
vertex $-1 $529 $749 #
point $-1 -18.846243762972321 29.284527344792359 3.3668281300833209 #
vertex $-1 $533 $750 #
point $-1 -13.167840072514878 29.284527344792359 3.3668281300833209 #
coedge $-1 $548 $547 $540 $683 forward $537 $-1 #
edge $-1 $684 55.271071609578925 $687 60.05951912514896 $682 $751 forward 7 unknown #
vertex $-1 $552 $752 #
straight-curve $-1 23.131846223277275 47.196007995881914 6.4900875315755115 0 1 0 I I #
edge $-1 $687 -14.878325264405479 $549 -1.6287166533381132 $548 $753 forward 7 unknown #
vertex $-1 $686 $754 #
straight-curve $-1 23.131846223277275 -4.7092078045081962 54.130896428722949 0 -0.57357642473473569 0.81915205242281985 I I #
point $-1 23.131846223277275 28.649244704858155 6.4900875315755115 #
point $-1 9.8822376122099094 32.002151650384448 1.7016400160054772 #
straight-curve $-1 0 32.002151650384448 6.4900875315755098 -1 0 0 I I #
vertex $-1 $555 $755 #
point $-1 14.167840072514878 29.284527344792359 3.3668281300833209 #
vertex $-1 $559 $756 #
point $-1 19.846243762972321 29.284527344792359 3.3668281300833209 #
coedge $-1 $574 $573 $566 $697 forward $563 $-1 #
edge $-1 $698 29.056443403220172 $701 33.844890918790178 $696 $757 forward 7 unknown #
vertex $-1 $578 $758 #
straight-curve $-1 -23.131846223277289 -65.551687723328257 6.4900875315755115 0 -1 0 I I #
edge $-1 $701 -14.878325264405486 $575 -1.6287166533381203 $574 $759 forward 7 unknown #
vertex $-1 $700 $760 #
straight-curve $-1 -23.131846223277289 -32.002151650384491 1.7016400160054417 0 0.57357642473473569 0.81915205242281985 I I #
point $-1 -23.131846223277289 -28.649244704858177 6.4900875315755098 #
point $-1 -9.8822376122099236 -32.002151650384448 1.7016400160055025 #
straight-curve $-1 0 -32.002151650384448 6.4900875315755098 1 0 0 I I #
vertex $-1 $581 $761 #
point $-1 -18.846243762972321 -29.284527344792359 3.3668281300833245 #
vertex $-1 $585 $762 #
point $-1 -13.167840072514878 -29.284527344792359 3.3668281300833245 #
edge $-1 $711 29.056443403220172 $714 33.844890918790178 $590 $763 forward 7 unknown #
vertex $-1 $604 $764 #
straight-curve $-1 9.8822376122099094 -65.551687723328257 6.4900875315755115 0 -1 0 I I #
edge $-1 $714 1.6287166533381132 $601 14.878325264405479 $600 $765 forward 7 unknown #
vertex $-1 $713 $766 #
straight-curve $-1 9.8822376122099094 -32.002151650384491 1.7016400160054417 0 0.57357642473473569 0.81915205242281985 I I #
point $-1 9.8822376122099094 -28.649244704858177 6.4900875315755098 #
point $-1 23.131846223277275 -32.002151650384448 1.7016400160055025 #
straight-curve $-1 0 -32.002151650384448 6.4900875315755098 1 0 0 I I #
vertex $-1 $607 $767 #
point $-1 14.167840072514878 -29.284527344792359 3.3668281300833245 #
vertex $-1 $611 $768 #
point $-1 19.846243762972321 -29.284527344792359 3.3668281300833245 #
point $-1 -60.490127262184515 -32.002151650384448 -6.4900875315755098 #
straight-curve $-1 -60.490127262184515 0 -6.4900875315755098 0 1 0 I I #
point $-1 -60.490127262184515 32.002151650384448 -6.4900875315755098 #
straight-curve $-1 -60.490127262184515 32.002151650384448 0 0 0 -1 I I #
coedge $-1 $634 $633 $644 $732 reversed $320 $-1 #
edge $-1 $733 -32.002151650384448 $637 32.002151650384448 $633 $769 forward 7 unknown #
straight-curve $-1 -67.007017328162718 32.002151650384448 -4.8353301145844032 0 0 -1 I I #
point $-1 -67.007017328162718 32.002151650384448 -6.4900875315755098 #
point $-1 -67.007017328162718 32.002151650384448 -3.1805726975932966 #
edge $-1 $648 -1.6547574169911066 $733 1.6547574169911066 $727 $770 forward 7 unknown #
vertex $-1 $728 $771 #
straight-curve $-1 -63.748572295173616 -32.002151650384448 -6.4900875315755098 -1 0 0 I I #
straight-curve $-1 -67.007017328162718 0 -3.1805726975932966 0 -1 0 I I #
point $-1 -67.007017328162718 -32.002151650384448 -3.1805726975932966 #
edge $-1 $661 -32.002151650384448 $738 32.002151650384448 $651 $772 forward 7 unknown #
vertex $-1 $653 $773 #
straight-curve $-1 67.007017328162718 -32.002151650384448 -4.8353301145844032 0 0 -1 I I #
point $-1 67.007017328162718 -32.002151650384448 -3.1805726975932966 #
point $-1 67.007017328162718 32.002151650384448 -3.1805726975932966 #
straight-curve $-1 67.007017328162718 32.002151650384448 -4.8353301145844032 0 0 -1 I I #
point $-1 67.007017328162718 32.002151650384448 -6.4900875315755098 #
straight-curve $-1 63.748572295173616 -32.002151650384448 -6.4900875315755098 -1 0 0 I I #
straight-curve $-1 -9.8822376122099236 32.002151650384448 61.761159141154437 0 0 -1 I I #
point $-1 -9.8822376122099236 32.002151650384448 6.4900875315755098 #
straight-curve $-1 -8.2535209588718033 32.002151650384448 1.7016400160054701 -1 0 0 I I #
point $-1 -9.8822376122099236 32.002151650384448 1.7016400160054772 #
point $-1 -19.346243762972321 28.874951318580948 3.0800399177159532 #
point $-1 -13.667840072514878 28.874951318580948 3.0800399177159532 #
straight-curve $-1 23.131846223277275 32.002151650384448 61.761159141154437 0 0 -1 I I #
point $-1 23.131846223277275 32.002151650384448 6.4900875315755098 #
straight-curve $-1 8.2535209588717962 32.002151650384448 1.7016400160054701 -1 0 0 I I #
point $-1 23.131846223277275 32.002151650384448 1.7016400160054772 #
point $-1 13.667840072514878 28.874951318580948 3.0800399177159532 #
point $-1 19.346243762972321 28.874951318580948 3.0800399177159532 #
straight-curve $-1 -23.131846223277289 -32.002151650384448 35.546530934795683 0 0 -1 I I #
point $-1 -23.131846223277289 -32.002151650384448 6.4900875315755098 #
straight-curve $-1 -8.2535209588718033 -32.002151650384448 1.7016400160054987 1 0 0 I I #
point $-1 -23.131846223277289 -32.002151650384448 1.7016400160055025 #
point $-1 -19.346243762972321 -28.874951318580948 3.0800399177159568 #
point $-1 -13.667840072514878 -28.874951318580948 3.0800399177159568 #
straight-curve $-1 9.8822376122099094 -32.002151650384448 35.546530934795683 0 0 -1 I I #
point $-1 9.8822376122099094 -32.002151650384448 6.4900875315755098 #
straight-curve $-1 8.2535209588717962 -32.002151650384448 1.7016400160054987 1 0 0 I I #
point $-1 9.8822376122099094 -32.002151650384448 1.7016400160055025 #
point $-1 13.667840072514878 -28.874951318580948 3.0800399177159568 #
point $-1 19.346243762972321 -28.874951318580948 3.0800399177159568 #
straight-curve $-1 -67.007017328162718 0 -6.4900875315755098 0 1 0 I I #
straight-curve $-1 -67.007017328162718 -32.002151650384448 -4.8353301145844032 0 0 -1 I I #
point $-1 -67.007017328162718 -32.002151650384448 -6.4900875315755098 #
straight-curve $-1 67.007017328162718 0 -6.4900875315755098 0 -1 0 I I #
point $-1 67.007017328162718 -32.002151650384448 -6.4900875315755098 #
End-of-ACIS-data 