500 0 17 0           
7 Unknown 11 ACIS 5.0 NT 24 Fri Mar 26 20:03:57 1999 
-1 9.9999999999999995e-007 1e-010 
body $-1 $17 $-1 $18 #
body $-1 $19 $-1 $20 #
body $-1 $21 $-1 $22 #
body $-1 $23 $-1 $24 #
body $-1 $25 $-1 $26 #
body $-1 $27 $-1 $28 #
body $-1 $29 $-1 $30 #
body $-1 $31 $-1 $32 #
body $-1 $33 $-1 $34 #
body $-1 $35 $-1 $36 #
body $-1 $37 $-1 $38 #
body $-1 $39 $-1 $40 #
body $-1 $41 $-1 $42 #
body $-1 $43 $-1 $44 #
body $-1 $45 $-1 $46 #
body $-1 $47 $-1 $48 #
body $-1 $49 $-1 $50 #
lump $-1 $-1 $51 $0 #
transform $-1 1 0 0 0 1 0 0 0 1 74.134342478713336 35.698603358092782 15.058084240665284 1 rotate no_reflect no_shear #
lump $-1 $-1 $52 $1 #
transform $-1 1 0 0 0 1 0 0 0 1 74.134342478713336 35.698603358092782 15.058084240665284 1 rotate no_reflect no_shear #
lump $-1 $-1 $53 $2 #
transform $-1 1 0 0 0 1 0 0 0 1 74.134342478713336 35.698603358092782 15.058084240665284 1 rotate no_reflect no_shear #
lump $-1 $-1 $54 $3 #
transform $-1 1 0 0 0 1 0 0 0 1 74.134342478713336 35.698603358092782 15.058084240665284 1 rotate no_reflect no_shear #
lump $-1 $-1 $55 $4 #
transform $-1 1 0 0 0 1 0 0 0 1 74.134342478713336 35.698603358092782 15.058084240665284 1 rotate no_reflect no_shear #
lump $-1 $-1 $56 $5 #
transform $-1 1 0 0 0 1 0 0 0 1 74.134342478713336 35.698603358092782 15.058084240665284 1 rotate no_reflect no_shear #
lump $-1 $-1 $57 $6 #
transform $-1 1 0 0 0 1 0 0 0 1 74.134342478713336 35.698603358092782 15.058084240665284 1 rotate no_reflect no_shear #
lump $-1 $-1 $58 $7 #
transform $-1 1 0 0 0 1 0 0 0 1 74.134342478713336 35.698603358092782 15.058084240665284 1 rotate no_reflect no_shear #
lump $-1 $-1 $59 $8 #
transform $-1 1 0 0 0 1 0 0 0 1 74.134342478713336 35.698603358092782 15.058084240665284 1 rotate no_reflect no_shear #
lump $-1 $-1 $60 $9 #
transform $-1 1 0 0 0 1 0 0 0 1 74.134342478713336 35.698603358092782 15.058084240665284 1 rotate no_reflect no_shear #
lump $-1 $-1 $61 $10 #
transform $-1 1 0 0 0 1 0 0 0 1 74.134342478713336 35.698603358092782 15.058084240665284 1 rotate no_reflect no_shear #
lump $-1 $-1 $62 $11 #
transform $-1 1 0 0 0 1 0 0 0 1 74.134342478713336 35.698603358092782 15.058084240665284 1 rotate no_reflect no_shear #
lump $-1 $-1 $63 $12 #
transform $-1 1 0 0 0 1 0 0 0 1 74.134342478713336 35.698603358092782 15.058084240665284 1 rotate no_reflect no_shear #
lump $-1 $-1 $64 $13 #
transform $-1 1 0 0 0 1 0 0 0 1 74.134342478713336 35.698603358092782 15.058084240665284 1 rotate no_reflect no_shear #
lump $-1 $-1 $65 $14 #
transform $-1 1 0 0 0 1 0 0 0 1 74.134342478713336 35.698603358092782 15.058084240665284 1 rotate no_reflect no_shear #
lump $-1 $-1 $66 $15 #
transform $-1 1 0 0 0 1 0 0 0 1 74.134342478713336 35.698603358092782 15.058084240665284 1 rotate no_reflect no_shear #
lump $-1 $-1 $67 $16 #
transform $-1 1 0 0 0 1 0 0 0 1 74.134342478713336 35.698603358092782 15.058084240665284 1 rotate no_reflect no_shear #
shell $-1 $-1 $-1 $68 $-1 $17 #
shell $-1 $-1 $-1 $69 $-1 $19 #
shell $-1 $-1 $-1 $70 $-1 $21 #
shell $-1 $-1 $-1 $71 $-1 $23 #
shell $-1 $-1 $-1 $72 $-1 $25 #
shell $-1 $-1 $-1 $73 $-1 $27 #
shell $-1 $-1 $-1 $74 $-1 $29 #
shell $-1 $-1 $-1 $75 $-1 $31 #
shell $-1 $-1 $-1 $76 $-1 $33 #
shell $-1 $-1 $-1 $77 $-1 $35 #
shell $-1 $-1 $-1 $78 $-1 $37 #
shell $-1 $-1 $-1 $79 $-1 $39 #
shell $-1 $-1 $-1 $80 $-1 $41 #
shell $-1 $-1 $-1 $81 $-1 $43 #
shell $-1 $-1 $-1 $82 $-1 $45 #
shell $-1 $-1 $-1 $83 $-1 $47 #
shell $-1 $-1 $-1 $84 $-1 $49 #
face $-1 $85 $86 $51 $-1 $87 forward single #
face $-1 $88 $89 $52 $-1 $90 forward single #
face $-1 $91 $92 $53 $-1 $93 reversed single #
face $-1 $94 $95 $54 $-1 $96 forward single #
face $-1 $97 $98 $55 $-1 $99 forward single #
face $-1 $100 $101 $56 $-1 $102 reversed single #
face $-1 $103 $104 $57 $-1 $105 forward single #
face $-1 $106 $107 $58 $-1 $108 forward single #
face $-1 $109 $110 $59 $-1 $111 reversed single #
face $-1 $112 $113 $60 $-1 $114 forward single #
face $-1 $115 $116 $61 $-1 $117 forward single #
face $-1 $118 $119 $62 $-1 $120 reversed single #
face $-1 $121 $122 $63 $-1 $123 forward single #
face $-1 $124 $125 $64 $-1 $126 forward single #
face $-1 $127 $128 $65 $-1 $129 reversed single #
face $-1 $130 $131 $66 $-1 $132 forward single #
face $-1 $133 $134 $67 $-1 $135 forward single #
face $-1 $136 $137 $51 $-1 $138 reversed single #
loop $-1 $-1 $139 $68 #
plane-surface $-1 0 0 15.058084240665284 0 0 1 1 0 0 forward_v I I I I #
face $-1 $140 $141 $52 $-1 $142 reversed single #
loop $-1 $-1 $143 $69 #
plane-surface $-1 0 -35.698603358092782 0 0 1 0 0 0 1 forward_v I I I I #
face $-1 $144 $145 $53 $-1 $146 reversed single #
loop $-1 $-1 $147 $70 #
plane-surface $-1 -194.08622955629352 -18.171167735995127 91.839133933165655 0 1 0 -0.80901700255871778 0 0.5877852410284794 forward_v I I I I #
face $-1 $148 $149 $54 $-1 $150 forward single #
loop $-1 $151 $152 $71 #
cone-surface $-1 -69.963039828819888 -16.041828725389596 9.5796441040628721 0.80901700255871778 0 -0.5877852410284794 0.2938926205142397 0 0.40450850127935889 1 I I 0 1 0.5 forward I I I I #
face $-1 $153 $154 $55 $-1 $155 forward single #
loop $-1 $156 $157 $72 #
cone-surface $-1 -69.963039828819888 -12.847820209481299 9.5796441040628721 0.80901700255871778 0 -0.5877852410284794 0.2938926205142397 0 0.40450850127935889 1 I I 0 1 0.5 forward I I I I #
face $-1 $158 $159 $56 $-1 $160 reversed single #
loop $-1 $-1 $161 $73 #
plane-surface $-1 -194.08622955629352 -3.5994647958401966 91.839133933165655 0 1 0 -0.80901700255871778 0 0.5877852410284794 forward_v I I I I #
face $-1 $162 $163 $57 $-1 $164 forward single #
loop $-1 $165 $166 $74 #
cone-surface $-1 -69.963039828819888 -1.4701257852346714 9.5796441040628721 0.80901700255871778 0 -0.5877852410284794 0.2938926205142397 0 0.40450850127935889 1 I I 0 1 0.5 forward I I I I #
face $-1 $167 $168 $58 $-1 $169 forward single #
loop $-1 $170 $171 $75 #
cone-surface $-1 -69.963039828819888 1.7238827306736297 9.5796441040628721 0.80901700255871778 0 -0.5877852410284794 0.2938926205142397 0 0.40450850127935889 1 I I 0 1 0.5 forward I I I I #
face $-1 $172 $173 $59 $-1 $174 reversed single #
loop $-1 $-1 $175 $76 #
plane-surface $-1 -194.08622955629352 10.972238144314732 91.839133933165655 0 1 0 -0.80901700255871778 0 0.5877852410284794 forward_v I I I I #
face $-1 $176 $177 $60 $-1 $178 forward single #
loop $-1 $179 $180 $77 #
cone-surface $-1 -69.963039828819888 13.101577154920257 9.5796441040628721 0.80901700255871778 0 -0.5877852410284794 0.2938926205142397 0 0.40450850127935889 1 I I 0 1 0.5 forward I I I I #
face $-1 $181 $182 $61 $-1 $183 forward single #
loop $-1 $184 $185 $78 #
cone-surface $-1 -69.963039828819888 16.295585670828558 9.5796441040628721 0.80901700255871778 0 -0.5877852410284794 0.2938926205142397 0 0.40450850127935889 1 I I 0 1 0.5 forward I I I I #
face $-1 $186 $187 $62 $-1 $188 reversed single #
loop $-1 $-1 $189 $79 #
plane-surface $-1 -194.08622955629352 25.543941084469658 91.839133933165655 0 1 0 -0.80901700255871778 0 0.5877852410284794 forward_v I I I I #
face $-1 $190 $191 $63 $-1 $192 forward single #
loop $-1 $193 $194 $80 #
cone-surface $-1 -69.963039828819888 27.673280095075185 9.5796441040628721 0.80901700255871778 0 -0.5877852410284794 0.2938926205142397 0 0.40450850127935889 1 I I 0 1 0.5 forward I I I I #
face $-1 $195 $196 $64 $-1 $197 forward single #
loop $-1 $198 $199 $81 #
cone-surface $-1 -69.963039828819888 30.867288610983479 9.5796441040628721 0.80901700255871778 0 -0.5877852410284794 0.2938926205142397 0 0.40450850127935889 1 I I 0 1 0.5 forward I I I I #
face $-1 $200 $201 $65 $-1 $202 reversed single #
loop $-1 $-1 $203 $82 #
plane-surface $-1 81.452196606389776 -11.315191430915597 213.32043785471771 0 -1 0 -0.73135370988377701 0 -0.68199835119979291 forward_v I I I I #
face $-1 $204 $205 $66 $-1 $206 forward single #
loop $-1 $207 $208 $83 #
cone-surface $-1 67.742796260721207 -18.142300032046531 8.3614466450253815 -0.73135370988377701 0 -0.68199835119979291 0.68199835119979291 0 -0.73135370988377701 1 I I 0 1 1 forward I I I I #
face $-1 $209 $210 $67 $-1 $211 forward single #
loop $-1 $212 $213 $84 #
cone-surface $-1 67.742796260721207 -14.046034871367972 8.3614466450253815 -0.73135370988377701 0 -0.68199835119979291 0.68199835119979291 0 -0.73135370988377701 1 I I 0 1 1 forward I I I I #
face $-1 $214 $215 $51 $-1 $216 reversed single #
loop $-1 $-1 $217 $85 #
plane-surface $-1 0 0 -15.058084240665284 0 0 1 1 0 0 forward_v I I I I #
coedge $-1 $218 $219 $220 $221 forward $86 $-1 #
face $-1 $222 $223 $52 $-1 $224 reversed single #
loop $-1 $-1 $225 $88 #
plane-surface $-1 0 0 -15.058084240665284 0 0 1 1 0 0 forward_v I I I I #
coedge $-1 $226 $227 $228 $229 forward $89 $-1 #
face $-1 $230 $231 $53 $-1 $232 reversed single #
loop $-1 $-1 $233 $91 #
plane-surface $-1 -74.13434247871335 -14.444824467435446 4.6889892084889482 -0.80901700255871778 0 0.5877852410284794 0.5877852410284794 0 0.80901700255871778 forward_v I I I I #
coedge $-1 $234 $235 $236 $237 reversed $92 $-1 #
face $-1 $-1 $238 $54 $-1 $239 forward single #
loop $-1 $240 $241 $94 #
cone-surface $-1 -69.356277076900852 -16.041828725389596 9.1388051732915123 0.80901700255871778 0 -0.5877852410284794 0.14694631025711985 0 0.20225425063967944 1 I I -0.70710678118654746 0.70710678118654746 0.25 forward I I I I #
loop $-1 $-1 $242 $71 #
coedge $-1 $152 $152 $243 $244 reversed $95 $-1 #
face $-1 $-1 $245 $55 $-1 $246 forward single #
loop $-1 $247 $248 $97 #
cone-surface $-1 -69.356277076900852 -12.847820209481299 9.1388051732915123 0.80901700255871778 0 -0.5877852410284794 0.14694631025711985 0 0.20225425063967944 1 I I -0.70710678118654746 0.70710678118654746 0.25 forward I I I I #
loop $-1 $-1 $249 $72 #
coedge $-1 $157 $157 $250 $251 reversed $98 $-1 #
face $-1 $252 $253 $56 $-1 $254 reversed single #
loop $-1 $-1 $255 $100 #
plane-surface $-1 -74.13434247871335 0.12687847271948272 4.6889892084889482 -0.80901700255871778 0 0.5877852410284794 0.5877852410284794 0 0.80901700255871778 forward_v I I I I #
coedge $-1 $256 $257 $258 $259 reversed $101 $-1 #
face $-1 $-1 $260 $57 $-1 $261 forward single #
loop $-1 $262 $263 $103 #
cone-surface $-1 -69.356277076900852 -1.4701257852346714 9.1388051732915123 0.80901700255871778 0 -0.5877852410284794 0.14694631025711985 0 0.20225425063967944 1 I I -0.70710678118654746 0.70710678118654746 0.25 forward I I I I #
loop $-1 $-1 $264 $74 #
coedge $-1 $166 $166 $265 $266 reversed $104 $-1 #
face $-1 $-1 $267 $58 $-1 $268 forward single #
loop $-1 $269 $270 $106 #
cone-surface $-1 -69.356277076900852 1.7238827306736297 9.1388051732915123 0.80901700255871778 0 -0.5877852410284794 0.14694631025711985 0 0.20225425063967944 1 I I -0.70710678118654746 0.70710678118654746 0.25 forward I I I I #
loop $-1 $-1 $271 $75 #
coedge $-1 $171 $171 $272 $273 reversed $107 $-1 #
face $-1 $274 $275 $59 $-1 $276 reversed single #
loop $-1 $-1 $277 $109 #
plane-surface $-1 -74.13434247871335 14.698581412874411 4.6889892084889482 -0.80901700255871778 0 0.5877852410284794 0.5877852410284794 0 0.80901700255871778 forward_v I I I I #
coedge $-1 $278 $279 $280 $281 reversed $110 $-1 #
face $-1 $-1 $282 $60 $-1 $283 forward single #
loop $-1 $284 $285 $112 #
cone-surface $-1 -69.356277076900852 13.101577154920257 9.1388051732915123 0.80901700255871778 0 -0.5877852410284794 0.14694631025711985 0 0.20225425063967944 1 I I -0.70710678118654746 0.70710678118654746 0.25 forward I I I I #
loop $-1 $-1 $286 $77 #
coedge $-1 $180 $180 $287 $288 reversed $113 $-1 #
face $-1 $-1 $289 $61 $-1 $290 forward single #
loop $-1 $291 $292 $115 #
cone-surface $-1 -69.356277076900852 16.295585670828558 9.1388051732915123 0.80901700255871778 0 -0.5877852410284794 0.14694631025711985 0 0.20225425063967944 1 I I -0.70710678118654746 0.70710678118654746 0.25 forward I I I I #
loop $-1 $-1 $293 $78 #
coedge $-1 $185 $185 $294 $295 reversed $116 $-1 #
face $-1 $296 $297 $62 $-1 $298 reversed single #
loop $-1 $-1 $299 $118 #
plane-surface $-1 -74.13434247871335 29.270284353029339 4.6889892084889482 -0.80901700255871778 0 0.5877852410284794 0.5877852410284794 0 0.80901700255871778 forward_v I I I I #
coedge $-1 $300 $301 $302 $303 reversed $119 $-1 #
face $-1 $-1 $304 $63 $-1 $305 forward single #
loop $-1 $306 $307 $121 #
cone-surface $-1 -69.356277076900852 27.673280095075185 9.1388051732915123 0.80901700255871778 0 -0.5877852410284794 0.14694631025711985 0 0.20225425063967944 1 I I -0.70710678118654746 0.70710678118654746 0.25 forward I I I I #
loop $-1 $-1 $308 $80 #
coedge $-1 $194 $194 $309 $310 reversed $122 $-1 #
face $-1 $-1 $311 $64 $-1 $312 forward single #
loop $-1 $313 $314 $124 #
cone-surface $-1 -69.356277076900852 30.867288610983479 9.1388051732915123 0.80901700255871778 0 -0.5877852410284794 0.14694631025711985 0 0.20225425063967944 1 I I -0.70710678118654746 0.70710678118654746 0.25 forward I I I I #
loop $-1 $-1 $315 $81 #
coedge $-1 $199 $199 $316 $317 reversed $125 $-1 #
face $-1 $318 $319 $65 $-1 $320 reversed single #
loop $-1 $-1 $321 $127 #
plane-surface $-1 -26.984656196813177 -16.09416745170725 112.20143917919118 0.73135370988377701 0 0.68199835119979291 0.68199835119979291 0 -0.73135370988377701 forward_v I I I I #
coedge $-1 $322 $323 $324 $325 reversed $128 $-1 #
face $-1 $-1 $326 $66 $-1 $327 forward single #
loop $-1 $328 $329 $130 #
cone-surface $-1 66.251251626891644 -18.142300032046531 6.9705588061241279 -0.73135370988377701 0 -0.68199835119979291 0.34099917559989645 0 -0.36567685494188851 1 I I -0.70710678118654746 0.70710678118654746 0.5 forward I I I I #
loop $-1 $-1 $330 $83 #
coedge $-1 $208 $208 $331 $332 reversed $131 $-1 #
face $-1 $-1 $333 $67 $-1 $334 forward single #
loop $-1 $335 $336 $133 #
cone-surface $-1 66.251251626891644 -14.046034871367972 6.9705588061241279 -0.73135370988377701 0 -0.68199835119979291 0.34099917559989645 0 -0.36567685494188851 1 I I -0.70710678118654746 0.70710678118654746 0.5 forward I I I I #
loop $-1 $-1 $337 $84 #
coedge $-1 $213 $213 $338 $339 reversed $134 $-1 #
face $-1 $340 $341 $51 $-1 $342 reversed single #
loop $-1 $-1 $343 $136 #
plane-surface $-1 0 -35.698603358092782 0 0 1 0 0 0 1 forward_v I I I I #
coedge $-1 $344 $345 $346 $347 forward $137 $-1 #
coedge $-1 $348 $139 $349 $350 forward $86 $-1 #
coedge $-1 $139 $348 $351 $352 forward $86 $-1 #
coedge $-1 $353 $354 $139 $221 reversed $355 $-1 #
edge $-1 $356 -35.698603358092782 $357 35.698603358092782 $220 $358 forward 7 unknown #
face $-1 $359 $360 $52 $-1 $361 forward single #
loop $-1 $-1 $362 $140 #
plane-surface $-1 74.134342478713336 0 0 -1 0 0 0 0 1 forward_v I I I I #
coedge $-1 $363 $364 $365 $366 forward $141 $-1 #
coedge $-1 $365 $143 $362 $367 reversed $89 $-1 #
coedge $-1 $143 $365 $368 $369 reversed $89 $-1 #
coedge $-1 $370 $371 $143 $229 reversed $360 $-1 #
edge $-1 $372 -74.134342478713336 $373 74.134342478713336 $228 $374 forward 7 unknown #
face $-1 $375 $376 $53 $-1 $377 forward single #
loop $-1 $-1 $378 $144 #
plane-surface $-1 -194.08622955629352 -10.718481198875766 91.839133933165655 0 -1 0 0.80901700255871778 0 -0.5877852410284794 forward_v I I I I #
coedge $-1 $379 $380 $381 $382 reversed $145 $-1 #
coedge $-1 $235 $147 $383 $384 reversed $92 $-1 #
coedge $-1 $147 $234 $379 $385 reversed $92 $-1 #
coedge $-1 $381 $386 $147 $237 forward $376 $-1 #
edge $-1 $387 22.908772299433423 $388 30.442360596661587 $236 $389 forward 7 unknown #
loop $-1 $-1 $243 $148 #
plane-surface $-1 -74.13434247871335 -14.444824467435446 4.6889892084889482 -0.80901700255871778 0 0.5877852410284794 0.5877852410284794 0 0.80901700255871778 forward_v I I I I #
loop $-1 $-1 $390 $94 #
coedge $-1 $241 $241 $242 $391 reversed $149 $-1 #
coedge $-1 $242 $242 $241 $391 forward $151 $-1 #
coedge $-1 $243 $243 $152 $244 forward $238 $-1 #
edge $-1 $392 0 $392 6.2831853071796004 $243 $393 forward 7 unknown #
loop $-1 $-1 $250 $153 #
plane-surface $-1 -74.13434247871335 -14.444824467435446 4.6889892084889482 -0.80901700255871778 0 0.5877852410284794 0.5877852410284794 0 0.80901700255871778 forward_v I I I I #
loop $-1 $-1 $394 $97 #
coedge $-1 $248 $248 $249 $395 reversed $154 $-1 #
coedge $-1 $249 $249 $248 $395 forward $156 $-1 #
coedge $-1 $250 $250 $157 $251 forward $245 $-1 #
edge $-1 $396 0 $396 6.2831853071796004 $250 $397 forward 7 unknown #
face $-1 $398 $399 $56 $-1 $400 forward single #
loop $-1 $-1 $401 $158 #
plane-surface $-1 -194.08622955629352 3.8532217412791621 91.839133933165655 0 -1 0 0.80901700255871778 0 -0.5877852410284794 forward_v I I I I #
coedge $-1 $402 $403 $404 $405 reversed $159 $-1 #
coedge $-1 $257 $161 $406 $407 reversed $101 $-1 #
coedge $-1 $161 $256 $402 $408 reversed $101 $-1 #
coedge $-1 $404 $409 $161 $259 forward $399 $-1 #
edge $-1 $410 22.908772299433423 $411 30.442360596661587 $258 $412 forward 7 unknown #
loop $-1 $-1 $265 $162 #
plane-surface $-1 -74.13434247871335 0.12687847271948272 4.6889892084889482 -0.80901700255871778 0 0.5877852410284794 0.5877852410284794 0 0.80901700255871778 forward_v I I I I #
loop $-1 $-1 $413 $103 #
coedge $-1 $263 $263 $264 $414 reversed $163 $-1 #
coedge $-1 $264 $264 $263 $414 forward $165 $-1 #
coedge $-1 $265 $265 $166 $266 forward $260 $-1 #
edge $-1 $415 0 $415 6.2831853071796004 $265 $416 forward 7 unknown #
loop $-1 $-1 $272 $167 #
plane-surface $-1 -74.13434247871335 0.12687847271948272 4.6889892084889482 -0.80901700255871778 0 0.5877852410284794 0.5877852410284794 0 0.80901700255871778 forward_v I I I I #
loop $-1 $-1 $417 $106 #
coedge $-1 $270 $270 $271 $418 reversed $168 $-1 #
coedge $-1 $271 $271 $270 $418 forward $170 $-1 #
coedge $-1 $272 $272 $171 $273 forward $267 $-1 #
edge $-1 $419 0 $419 6.2831853071796004 $272 $420 forward 7 unknown #
face $-1 $421 $422 $59 $-1 $423 forward single #
loop $-1 $-1 $424 $172 #
plane-surface $-1 -194.08622955629352 18.424924681434092 91.839133933165655 0 -1 0 0.80901700255871778 0 -0.5877852410284794 forward_v I I I I #
coedge $-1 $425 $426 $427 $428 reversed $173 $-1 #
coedge $-1 $279 $175 $429 $430 reversed $110 $-1 #
coedge $-1 $175 $278 $425 $431 reversed $110 $-1 #
coedge $-1 $427 $432 $175 $281 forward $422 $-1 #
edge $-1 $433 22.908772299433423 $434 30.442360596661587 $280 $435 forward 7 unknown #
loop $-1 $-1 $287 $176 #
plane-surface $-1 -74.13434247871335 14.698581412874411 4.6889892084889482 -0.80901700255871778 0 0.5877852410284794 0.5877852410284794 0 0.80901700255871778 forward_v I I I I #
loop $-1 $-1 $436 $112 #
coedge $-1 $285 $285 $286 $437 reversed $177 $-1 #
coedge $-1 $286 $286 $285 $437 forward $179 $-1 #
coedge $-1 $287 $287 $180 $288 forward $282 $-1 #
edge $-1 $438 0 $438 6.2831853071796004 $287 $439 forward 7 unknown #
loop $-1 $-1 $294 $181 #
plane-surface $-1 -74.13434247871335 14.698581412874411 4.6889892084889482 -0.80901700255871778 0 0.5877852410284794 0.5877852410284794 0 0.80901700255871778 forward_v I I I I #
loop $-1 $-1 $440 $115 #
coedge $-1 $292 $292 $293 $441 reversed $182 $-1 #
coedge $-1 $293 $293 $292 $441 forward $184 $-1 #
coedge $-1 $294 $294 $185 $295 forward $289 $-1 #
edge $-1 $442 0 $442 6.2831853071796004 $294 $443 forward 7 unknown #
face $-1 $444 $445 $62 $-1 $446 forward single #
loop $-1 $-1 $447 $186 #
plane-surface $-1 -194.08622955629352 32.99662762158902 91.839133933165655 0 -1 0 0.80901700255871778 0 -0.5877852410284794 forward_v I I I I #
coedge $-1 $448 $449 $450 $451 reversed $187 $-1 #
coedge $-1 $301 $189 $452 $453 reversed $119 $-1 #
coedge $-1 $189 $300 $448 $454 reversed $119 $-1 #
coedge $-1 $450 $455 $189 $303 forward $445 $-1 #
edge $-1 $456 22.908772299433423 $457 30.442360596661587 $302 $458 forward 7 unknown #
loop $-1 $-1 $309 $190 #
plane-surface $-1 -74.13434247871335 29.270284353029339 4.6889892084889482 -0.80901700255871778 0 0.5877852410284794 0.5877852410284794 0 0.80901700255871778 forward_v I I I I #
loop $-1 $-1 $459 $121 #
coedge $-1 $307 $307 $308 $460 reversed $191 $-1 #
coedge $-1 $308 $308 $307 $460 forward $193 $-1 #
coedge $-1 $309 $309 $194 $310 forward $304 $-1 #
edge $-1 $461 0 $461 6.2831853071796004 $309 $462 forward 7 unknown #
loop $-1 $-1 $316 $195 #
plane-surface $-1 -74.13434247871335 29.270284353029339 4.6889892084889482 -0.80901700255871778 0 0.5877852410284794 0.5877852410284794 0 0.80901700255871778 forward_v I I I I #
loop $-1 $-1 $463 $124 #
coedge $-1 $314 $314 $315 $464 reversed $196 $-1 #
coedge $-1 $315 $315 $314 $464 forward $198 $-1 #
coedge $-1 $316 $316 $199 $317 forward $311 $-1 #
edge $-1 $465 0 $465 6.2831853071796004 $316 $466 forward 7 unknown #
face $-1 $467 $468 $65 $-1 $469 reversed single #
loop $-1 $-1 $470 $200 #
plane-surface $-1 81.452196606389776 -20.873143472498903 213.32043785471771 0 1 0 0.73135370988377701 0 0.68199835119979291 forward_v I I I I #
coedge $-1 $471 $472 $473 $474 reversed $201 $-1 #
coedge $-1 $323 $203 $475 $476 reversed $128 $-1 #
coedge $-1 $203 $322 $471 $477 reversed $128 $-1 #
coedge $-1 $473 $478 $203 $325 forward $479 $-1 #
edge $-1 $480 -33.408244175518448 $481 -22.876887297309523 $324 $482 forward 7 unknown #
loop $-1 $-1 $331 $204 #
plane-surface $-1 -26.984656196813177 -16.09416745170725 112.20143917919118 0.73135370988377701 0 0.68199835119979291 0.68199835119979291 0 -0.73135370988377701 forward_v I I I I #
loop $-1 $-1 $483 $130 #
coedge $-1 $329 $329 $330 $484 reversed $205 $-1 #
coedge $-1 $330 $330 $329 $484 forward $207 $-1 #
coedge $-1 $331 $331 $208 $332 forward $326 $-1 #
edge $-1 $485 0 $485 6.2831853071796004 $331 $486 forward 7 unknown #
loop $-1 $-1 $338 $209 #
plane-surface $-1 -26.984656196813177 -16.09416745170725 112.20143917919118 0.73135370988377701 0 0.68199835119979291 0.68199835119979291 0 -0.73135370988377701 forward_v I I I I #
loop $-1 $-1 $487 $133 #
coedge $-1 $336 $336 $337 $488 reversed $210 $-1 #
coedge $-1 $337 $337 $336 $488 forward $212 $-1 #
coedge $-1 $338 $338 $213 $339 forward $333 $-1 #
edge $-1 $489 0 $489 6.2831853071796004 $338 $490 forward 7 unknown #
face $-1 $491 $492 $51 $-1 $493 reversed single #
loop $-1 $-1 $494 $214 #
plane-surface $-1 -74.134342478713336 0 0 1 0 0 0 0 -1 forward_v I I I I #
coedge $-1 $495 $351 $496 $497 forward $215 $-1 #
coedge $-1 $498 $217 $495 $499 forward $137 $-1 #
coedge $-1 $217 $498 $500 $501 forward $137 $-1 #
coedge $-1 $354 $353 $217 $347 reversed $355 $-1 #
edge $-1 $502 -35.698603358092782 $503 35.698603358092782 $346 $504 forward 7 unknown #
coedge $-1 $219 $218 $505 $506 forward $86 $-1 #
coedge $-1 $507 $508 $218 $350 reversed $492 $-1 #
edge $-1 $357 -74.134342478713336 $509 74.134342478713336 $349 $510 forward 7 unknown #
coedge $-1 $343 $511 $219 $352 reversed $215 $-1 #
edge $-1 $512 -74.134342478713336 $356 74.134342478713336 $351 $513 forward 7 unknown #
coedge $-1 $346 $220 $511 $514 forward $355 $-1 #
coedge $-1 $220 $346 $507 $515 reversed $355 $-1 #
loop $-1 $-1 $353 $491 #
vertex $-1 $221 $516 #
vertex $-1 $221 $517 #
straight-curve $-1 74.134342478713336 0 15.058084240665284 0 1 0 I I #
face $-1 $518 $519 $52 $-1 $520 reversed single #
loop $-1 $-1 $371 $222 #
plane-surface $-1 0 -43.111333300889726 -6.3769035968250911 0 0 1 1 0 0 forward_v I I I I #
coedge $-1 $521 $522 $226 $367 forward $223 $-1 #
coedge $-1 $523 $225 $522 $524 forward $141 $-1 #
coedge $-1 $225 $523 $525 $526 forward $141 $-1 #
coedge $-1 $227 $226 $225 $366 reversed $89 $-1 #
edge $-1 $527 -74.134342478713336 $528 74.134342478713336 $225 $529 forward 7 unknown #
edge $-1 $528 -15.058084240665284 $373 -6.3769035968250911 $362 $530 forward 7 unknown #
coedge $-1 $525 $531 $227 $369 forward $532 $-1 #
edge $-1 $372 6.3769035968250911 $527 15.058084240665284 $368 $533 forward 7 unknown #
coedge $-1 $534 $228 $531 $535 forward $360 $-1 #
coedge $-1 $228 $534 $521 $536 forward $360 $-1 #
vertex $-1 $369 $537 #
vertex $-1 $536 $538 #
straight-curve $-1 0 -35.698603358092782 -6.3769035968250911 1 0 0 I I #
face $-1 $-1 $539 $53 $-1 $540 reversed single #
loop $-1 $-1 $236 $230 #
plane-surface $-1 0 0 15.058084240665284 0 0 1 1 0 0 forward_v I I I I #
coedge $-1 $541 $542 $543 $544 reversed $231 $-1 #
coedge $-1 $545 $233 $235 $385 forward $145 $-1 #
coedge $-1 $233 $545 $541 $546 forward $145 $-1 #
coedge $-1 $543 $236 $233 $382 forward $376 $-1 #
edge $-1 $388 -10.948755502277404 $547 -3.4960689651580434 $381 $548 forward 7 unknown #
coedge $-1 $549 $550 $234 $384 forward $539 $-1 #
edge $-1 $551 -41.230577758093858 $387 -30.861482725917543 $383 $552 forward 7 unknown #
edge $-1 $388 -12.816906195273386 $551 -2.4161062406544664e-014 $235 $553 forward 7 unknown #
coedge $-1 $236 $543 $549 $554 forward $376 $-1 #
vertex $-1 $384 $555 #
vertex $-1 $237 $556 #
straight-curve $-1 -97.043114778146759 -18.171167735995127 15.058084240665281 1 0 0 I I #
coedge $-1 $390 $390 $-1 $557 reversed $240 $-1 #
edge $-1 $558 0 $558 6.2831853071796004 $241 $559 forward 7 unknown #
vertex $-1 $244 $560 #
ellipse-curve $-1 -70.367548330099254 -16.041828725389596 9.8735367245771197 -0.80901700255871778 0 0.5877852410284794 0.2938926205142397 0 0.40450850127935889 1 I I #
coedge $-1 $394 $394 $-1 $561 reversed $247 $-1 #
edge $-1 $562 0 $562 6.2831853071796004 $248 $563 forward 7 unknown #
vertex $-1 $251 $564 #
ellipse-curve $-1 -70.367548330099254 -12.847820209481299 9.8735367245771197 -0.80901700255871778 0 0.5877852410284794 0.2938926205142397 0 0.40450850127935889 1 I I #
face $-1 $-1 $565 $56 $-1 $566 reversed single #
loop $-1 $-1 $258 $252 #
plane-surface $-1 0 0 15.058084240665284 0 0 1 1 0 0 forward_v I I I I #
coedge $-1 $567 $568 $569 $570 reversed $253 $-1 #
coedge $-1 $571 $255 $257 $408 forward $159 $-1 #
coedge $-1 $255 $571 $567 $572 forward $159 $-1 #
coedge $-1 $569 $258 $255 $405 forward $399 $-1 #
edge $-1 $411 -3.662904032199938 $573 3.7897825049194207 $404 $574 forward 7 unknown #
coedge $-1 $575 $576 $256 $407 forward $565 $-1 #
edge $-1 $577 -41.230577758093858 $410 -30.861482725917543 $406 $578 forward 7 unknown #
edge $-1 $411 -12.816906195273386 $577 -2.4161062406544664e-014 $257 $579 forward 7 unknown #
coedge $-1 $258 $569 $575 $580 forward $399 $-1 #
vertex $-1 $259 $581 #
vertex $-1 $259 $582 #
straight-curve $-1 -97.043114778146759 -3.5994647958401966 15.058084240665281 1 0 0 I I #
coedge $-1 $413 $413 $-1 $583 reversed $262 $-1 #
edge $-1 $584 0 $584 6.2831853071796004 $263 $585 forward 7 unknown #
vertex $-1 $266 $586 #
ellipse-curve $-1 -70.367548330099254 -1.4701257852346714 9.8735367245771197 -0.80901700255871778 0 0.5877852410284794 0.2938926205142397 0 0.40450850127935889 1 I I #
coedge $-1 $417 $417 $-1 $587 reversed $269 $-1 #
edge $-1 $588 0 $588 6.2831853071796004 $270 $589 forward 7 unknown #
vertex $-1 $273 $590 #
ellipse-curve $-1 -70.367548330099254 1.7238827306736297 9.8735367245771197 -0.80901700255871778 0 0.5877852410284794 0.2938926205142397 0 0.40450850127935889 1 I I #
face $-1 $-1 $591 $59 $-1 $592 reversed single #
loop $-1 $-1 $280 $274 #
plane-surface $-1 0 0 15.058084240665284 0 0 1 1 0 0 forward_v I I I I #
coedge $-1 $593 $594 $595 $596 reversed $275 $-1 #
coedge $-1 $597 $277 $279 $431 forward $173 $-1 #
coedge $-1 $277 $597 $593 $598 forward $173 $-1 #
coedge $-1 $595 $280 $277 $428 forward $422 $-1 #
edge $-1 $434 3.6229474378775262 $599 11.075633974996887 $427 $600 forward 7 unknown #
coedge $-1 $601 $602 $278 $430 forward $591 $-1 #
edge $-1 $603 -41.230577758093858 $433 -30.861482725917543 $429 $604 forward 7 unknown #
edge $-1 $434 -12.816906195273386 $603 -2.4161062406544664e-014 $279 $605 forward 7 unknown #
coedge $-1 $280 $595 $601 $606 forward $422 $-1 #
vertex $-1 $281 $607 #
vertex $-1 $281 $608 #
straight-curve $-1 -97.043114778146759 10.972238144314732 15.058084240665281 1 0 0 I I #
coedge $-1 $436 $436 $-1 $609 reversed $284 $-1 #
edge $-1 $610 0 $610 6.2831853071796004 $285 $611 forward 7 unknown #
vertex $-1 $288 $612 #
ellipse-curve $-1 -70.367548330099254 13.101577154920257 9.8735367245771197 -0.80901700255871778 0 0.5877852410284794 0.2938926205142397 0 0.40450850127935889 1 I I #
coedge $-1 $440 $440 $-1 $613 reversed $291 $-1 #
edge $-1 $614 0 $614 6.2831853071796004 $292 $615 forward 7 unknown #
vertex $-1 $295 $616 #
ellipse-curve $-1 -70.367548330099254 16.295585670828558 9.8735367245771197 -0.80901700255871778 0 0.5877852410284794 0.2938926205142397 0 0.40450850127935889 1 I I #
face $-1 $-1 $617 $62 $-1 $618 reversed single #
loop $-1 $-1 $302 $296 #
plane-surface $-1 0 0 15.058084240665284 0 0 1 1 0 0 forward_v I I I I #
coedge $-1 $619 $620 $621 $622 reversed $297 $-1 #
coedge $-1 $623 $299 $301 $454 forward $187 $-1 #
coedge $-1 $299 $623 $619 $624 forward $187 $-1 #
coedge $-1 $621 $302 $299 $451 forward $445 $-1 #
edge $-1 $457 10.908798907954989 $625 18.361485445074351 $450 $626 forward 7 unknown #
coedge $-1 $627 $628 $300 $453 forward $617 $-1 #
edge $-1 $629 -41.230577758093858 $456 -30.861482725917543 $452 $630 forward 7 unknown #
edge $-1 $457 -12.816906195273386 $629 -2.4161062406544664e-014 $301 $631 forward 7 unknown #
coedge $-1 $302 $621 $627 $632 forward $445 $-1 #
vertex $-1 $303 $633 #
vertex $-1 $303 $634 #
straight-curve $-1 -97.043114778146759 25.543941084469658 15.058084240665281 1 0 0 I I #
coedge $-1 $459 $459 $-1 $635 reversed $306 $-1 #
edge $-1 $636 0 $636 6.2831853071796004 $307 $637 forward 7 unknown #
vertex $-1 $310 $638 #
ellipse-curve $-1 -70.367548330099254 27.673280095075185 9.8735367245771197 -0.80901700255871778 0 0.5877852410284794 0.2938926205142397 0 0.40450850127935889 1 I I #
coedge $-1 $463 $463 $-1 $639 reversed $313 $-1 #
edge $-1 $640 0 $640 6.2831853071796004 $314 $641 forward 7 unknown #
vertex $-1 $317 $642 #
ellipse-curve $-1 -70.367548330099254 30.867288610983479 9.8735367245771197 -0.80901700255871778 0 0.5877852410284794 0.2938926205142397 0 0.40450850127935889 1 I I #
face $-1 $-1 $479 $65 $-1 $643 forward single #
loop $-1 $-1 $644 $318 #
plane-surface $-1 74.134342478713336 0 0 -1 0 0 0 0 1 forward_v I I I I #
coedge $-1 $645 $646 $647 $648 reversed $319 $-1 #
coedge $-1 $649 $321 $323 $477 forward $201 $-1 #
coedge $-1 $321 $649 $645 $650 forward $201 $-1 #
coedge $-1 $647 $324 $321 $474 forward $479 $-1 #
edge $-1 $481 3.268107705061972 $651 12.826059746645278 $473 $652 forward 7 unknown #
coedge $-1 $653 $654 $322 $476 forward $468 $-1 #
edge $-1 $655 -102.89563255137061 $480 -91.602134686693574 $475 $656 forward 7 unknown #
edge $-1 $481 132.8267753696955 $655 148.26868495742661 $323 $657 forward 7 unknown #
coedge $-1 $324 $647 $653 $658 forward $479 $-1 #
loop $-1 $-1 $647 $467 #
vertex $-1 $476 $659 #
vertex $-1 $325 $660 #
straight-curve $-1 40.726098303194888 -11.315191430915597 15.058084240665281 -1 0 0 I I #
coedge $-1 $483 $483 $-1 $661 reversed $328 $-1 #
edge $-1 $662 0 $662 6.2831853071796004 $329 $663 forward 7 unknown #
vertex $-1 $332 $664 #
ellipse-curve $-1 68.868664039608888 -18.142300032046531 9.4113353083267466 0.73135370988377701 0 0.68199835119979291 0.68199835119979291 0 -0.73135370988377701 1 I I #
coedge $-1 $487 $487 $-1 $665 reversed $335 $-1 #
edge $-1 $666 0 $666 6.2831853071796004 $336 $667 forward 7 unknown #
vertex $-1 $339 $668 #
ellipse-curve $-1 68.868664039608888 -14.046034871367972 9.4113353083267466 0.73135370988377701 0 0.68199835119979291 0.68199835119979291 0 -0.73135370988377701 1 I I #
face $-1 $-1 $355 $51 $-1 $669 reversed single #
loop $-1 $-1 $507 $340 #
plane-surface $-1 0 35.698603358092782 0 0 -1 0 0 0 -1 forward_v I I I I #
coedge $-1 $670 $505 $508 $671 forward $341 $-1 #
coedge $-1 $511 $343 $344 $499 reversed $215 $-1 #
coedge $-1 $505 $670 $343 $497 reversed $341 $-1 #
edge $-1 $512 -15.058084240665284 $672 15.058084240665284 $496 $673 forward 7 unknown #
coedge $-1 $345 $344 $670 $674 forward $137 $-1 #
edge $-1 $503 -74.134342478713336 $672 74.134342478713336 $495 $675 forward 7 unknown #
coedge $-1 $508 $507 $345 $501 reversed $492 $-1 #
edge $-1 $676 -74.134342478713336 $502 74.134342478713336 $500 $677 forward 7 unknown #
vertex $-1 $347 $678 #
vertex $-1 $514 $679 #
straight-curve $-1 74.134342478713336 0 -15.058084240665284 0 -1 0 I I #
coedge $-1 $494 $496 $348 $506 reversed $341 $-1 #
edge $-1 $509 -35.698603358092782 $512 35.698603358092782 $505 $680 forward 7 unknown #
coedge $-1 $500 $349 $354 $515 forward $492 $-1 #
coedge $-1 $349 $500 $494 $671 reversed $492 $-1 #
vertex $-1 $350 $681 #
straight-curve $-1 0 35.698603358092782 15.058084240665284 -1 0 0 I I #
coedge $-1 $351 $495 $353 $514 reversed $215 $-1 #
vertex $-1 $506 $682 #
straight-curve $-1 0 -35.698603358092782 15.058084240665284 1 0 0 I I #
edge $-1 $356 -15.058084240665284 $503 15.058084240665284 $353 $683 forward 7 unknown #
edge $-1 $357 -15.058084240665284 $502 15.058084240665284 $354 $684 forward 7 unknown #
point $-1 74.134342478713336 -35.698603358092782 15.058084240665284 #
point $-1 74.134342478713336 35.698603358092782 15.058084240665284 #
face $-1 $-1 $532 $52 $-1 $685 reversed single #
loop $-1 $-1 $686 $359 #
plane-surface $-1 0 -50.524063243686669 -10.717493918745188 0 1 0 0 0 1 forward_v I I I I #
coedge $-1 $687 $362 $371 $536 reversed $223 $-1 #
coedge $-1 $362 $687 $363 $524 reversed $223 $-1 #
coedge $-1 $364 $363 $688 $689 forward $141 $-1 #
edge $-1 $528 35.698603358092782 $690 50.524063243686669 $522 $691 forward 7 unknown #
coedge $-1 $692 $368 $364 $526 reversed $532 $-1 #
edge $-1 $693 -50.524063243686669 $527 -35.698603358092782 $525 $694 forward 7 unknown #
vertex $-1 $369 $695 #
vertex $-1 $524 $696 #
straight-curve $-1 0 -35.698603358092782 -15.058084240665284 1 0 0 I I #
straight-curve $-1 74.134342478713336 -35.698603358092782 0 0 0 1 I I #
coedge $-1 $368 $692 $370 $535 reversed $532 $-1 #
loop $-1 $-1 $368 $518 #
straight-curve $-1 -74.134342478713336 -35.698603358092782 0 0 0 -1 I I #
coedge $-1 $371 $370 $697 $698 forward $360 $-1 #
edge $-1 $372 -7.4127299427969433 $699 7.4127299427969433 $531 $700 forward 7 unknown #
edge $-1 $701 -7.4127299427969433 $373 7.4127299427969433 $521 $702 forward 7 unknown #
point $-1 -74.134342478713336 -35.698603358092782 -6.3769035968250911 #
point $-1 74.134342478713336 -35.698603358092782 -6.3769035968250911 #
loop $-1 $-1 $383 $375 #
plane-surface $-1 -74.134342478713336 0 0 1 0 0 0 0 -1 forward_v I I I I #
coedge $-1 $542 $378 $380 $546 reversed $231 $-1 #
coedge $-1 $378 $541 $703 $704 reversed $231 $-1 #
coedge $-1 $386 $381 $378 $544 forward $376 $-1 #
edge $-1 $547 -30.442360596661587 $705 -22.908772299433423 $543 $706 forward 7 unknown #
coedge $-1 $380 $379 $550 $707 reversed $145 $-1 #
edge $-1 $708 2.4161062406544664e-014 $547 12.816906195273386 $541 $709 forward 7 unknown #
vertex $-1 $382 $710 #
straight-curve $-1 -66.600754181485172 -7.2224122337177228 15.058084240665284 0 1 0 I I #
coedge $-1 $703 $383 $386 $554 reversed $539 $-1 #
coedge $-1 $383 $703 $545 $707 forward $539 $-1 #
vertex $-1 $384 $711 #
straight-curve $-1 -74.134342478713336 -18.171167735995127 45.919566966582828 0 0 1 I I #
straight-curve $-1 -74.13434247871335 -18.171167735995127 4.6889892084889482 -0.5877852410284794 0 -0.80901700255871778 I I #
edge $-1 $705 10.718481198875766 $387 18.171167735995127 $549 $712 forward 7 unknown #
point $-1 -74.134342478713336 -18.171167735995127 15.058084240665284 #
point $-1 -66.600754181485172 -18.171167735995127 15.058084240665284 #
edge $-1 $713 1 $713 0 $390 $-1 forward 7 unknown #
vertex $-1 $391 $714 #
ellipse-curve $-1 -69.558531327540535 -16.041828725389596 9.2857514835486317 -0.80901700255871778 0 0.5877852410284794 0.2938926205142397 0 0.40450850127935889 1 I I #
point $-1 -70.073655709585012 -16.041828725389596 10.27804522585647 #
edge $-1 $715 1 $715 0 $394 $-1 forward 7 unknown #
vertex $-1 $395 $716 #
ellipse-curve $-1 -69.558531327540535 -12.847820209481299 9.2857514835486317 -0.80901700255871778 0 0.5877852410284794 0.2938926205142397 0 0.40450850127935889 1 I I #
point $-1 -70.073655709585012 -12.847820209481299 10.27804522585647 #
loop $-1 $-1 $406 $398 #
plane-surface $-1 -74.134342478713336 0 0 1 0 0 0 0 -1 forward_v I I I I #
coedge $-1 $568 $401 $403 $572 reversed $253 $-1 #
coedge $-1 $401 $567 $717 $718 reversed $253 $-1 #
coedge $-1 $409 $404 $401 $570 forward $399 $-1 #
edge $-1 $573 -30.442360596661587 $719 -22.908772299433423 $569 $720 forward 7 unknown #
coedge $-1 $403 $402 $576 $721 reversed $159 $-1 #
edge $-1 $722 2.4161062406544664e-014 $573 12.816906195273386 $567 $723 forward 7 unknown #
vertex $-1 $405 $724 #
straight-curve $-1 -66.600754181485172 0.063439236359741358 15.058084240665284 0 1 0 I I #
coedge $-1 $717 $406 $409 $580 reversed $565 $-1 #
coedge $-1 $406 $717 $571 $721 forward $565 $-1 #
vertex $-1 $407 $725 #
straight-curve $-1 -74.134342478713336 -3.5994647958401966 45.919566966582828 0 0 1 I I #
straight-curve $-1 -74.13434247871335 -3.5994647958401966 4.6889892084889482 -0.5877852410284794 0 -0.80901700255871778 I I #
edge $-1 $719 -3.8532217412791621 $410 3.5994647958401966 $575 $726 forward 7 unknown #
point $-1 -74.134342478713336 -3.5994647958401966 15.058084240665284 #
point $-1 -66.600754181485172 -3.5994647958401966 15.058084240665284 #
edge $-1 $727 1 $727 0 $413 $-1 forward 7 unknown #
vertex $-1 $414 $728 #
ellipse-curve $-1 -69.558531327540535 -1.4701257852346714 9.2857514835486317 -0.80901700255871778 0 0.5877852410284794 0.2938926205142397 0 0.40450850127935889 1 I I #
point $-1 -70.073655709585012 -1.4701257852346714 10.27804522585647 #
edge $-1 $729 1 $729 0 $417 $-1 forward 7 unknown #
vertex $-1 $418 $730 #
ellipse-curve $-1 -69.558531327540535 1.7238827306736297 9.2857514835486317 -0.80901700255871778 0 0.5877852410284794 0.2938926205142397 0 0.40450850127935889 1 I I #
point $-1 -70.073655709585012 1.7238827306736297 10.27804522585647 #
loop $-1 $-1 $429 $421 #
plane-surface $-1 -74.134342478713336 0 0 1 0 0 0 0 -1 forward_v I I I I #
coedge $-1 $594 $424 $426 $598 reversed $275 $-1 #
coedge $-1 $424 $593 $731 $732 reversed $275 $-1 #
coedge $-1 $432 $427 $424 $596 forward $422 $-1 #
edge $-1 $599 -30.442360596661587 $733 -22.908772299433423 $595 $734 forward 7 unknown #
coedge $-1 $426 $425 $602 $735 reversed $173 $-1 #
edge $-1 $736 2.4161062406544664e-014 $599 12.816906195273386 $593 $737 forward 7 unknown #
vertex $-1 $428 $738 #
straight-curve $-1 -66.600754181485172 7.3492907064372055 15.058084240665284 0 1 0 I I #
coedge $-1 $731 $429 $432 $606 reversed $591 $-1 #
coedge $-1 $429 $731 $597 $735 forward $591 $-1 #
vertex $-1 $430 $739 #
straight-curve $-1 -74.134342478713336 10.972238144314732 45.919566966582828 0 0 1 I I #
straight-curve $-1 -74.13434247871335 10.972238144314732 4.6889892084889482 -0.5877852410284794 0 -0.80901700255871778 I I #
edge $-1 $733 -18.424924681434092 $433 -10.972238144314732 $601 $740 forward 7 unknown #
point $-1 -74.134342478713336 10.972238144314732 15.058084240665284 #
point $-1 -66.600754181485172 10.972238144314732 15.058084240665284 #
edge $-1 $741 1 $741 0 $436 $-1 forward 7 unknown #
vertex $-1 $437 $742 #
ellipse-curve $-1 -69.558531327540535 13.101577154920257 9.2857514835486317 -0.80901700255871778 0 0.5877852410284794 0.2938926205142397 0 0.40450850127935889 1 I I #
point $-1 -70.073655709585012 13.101577154920257 10.27804522585647 #
edge $-1 $743 1 $743 0 $440 $-1 forward 7 unknown #
vertex $-1 $441 $744 #
ellipse-curve $-1 -69.558531327540535 16.295585670828558 9.2857514835486317 -0.80901700255871778 0 0.5877852410284794 0.2938926205142397 0 0.40450850127935889 1 I I #
point $-1 -70.073655709585012 16.295585670828558 10.27804522585647 #
loop $-1 $-1 $452 $444 #
plane-surface $-1 -74.134342478713336 0 0 1 0 0 0 0 -1 forward_v I I I I #
coedge $-1 $620 $447 $449 $624 reversed $297 $-1 #
coedge $-1 $447 $619 $745 $746 reversed $297 $-1 #
coedge $-1 $455 $450 $447 $622 forward $445 $-1 #
edge $-1 $625 -30.442360596661587 $747 -22.908772299433423 $621 $748 forward 7 unknown #
coedge $-1 $449 $448 $628 $749 reversed $187 $-1 #
edge $-1 $750 2.4161062406544664e-014 $625 12.816906195273386 $619 $751 forward 7 unknown #
vertex $-1 $451 $752 #
straight-curve $-1 -66.600754181485172 14.63514217651467 15.058084240665284 0 1 0 I I #
coedge $-1 $745 $452 $455 $632 reversed $617 $-1 #
coedge $-1 $452 $745 $623 $749 forward $617 $-1 #
vertex $-1 $453 $753 #
straight-curve $-1 -74.134342478713336 25.543941084469658 45.919566966582828 0 0 1 I I #
straight-curve $-1 -74.13434247871335 25.543941084469658 4.6889892084889482 -0.5877852410284794 0 -0.80901700255871778 I I #
edge $-1 $747 -32.99662762158902 $456 -25.543941084469658 $627 $754 forward 7 unknown #
point $-1 -74.134342478713336 25.543941084469658 15.058084240665284 #
point $-1 -66.600754181485172 25.543941084469658 15.058084240665284 #
edge $-1 $755 1 $755 0 $459 $-1 forward 7 unknown #
vertex $-1 $460 $756 #
ellipse-curve $-1 -69.558531327540535 27.673280095075185 9.2857514835486317 -0.80901700255871778 0 0.5877852410284794 0.2938926205142397 0 0.40450850127935889 1 I I #
point $-1 -70.073655709585012 27.673280095075185 10.27804522585647 #
edge $-1 $757 1 $757 0 $463 $-1 forward 7 unknown #
vertex $-1 $464 $758 #
ellipse-curve $-1 -69.558531327540535 30.867288610983479 9.2857514835486317 -0.80901700255871778 0 0.5877852410284794 0.2938926205142397 0 0.40450850127935889 1 I I #
point $-1 -70.073655709585012 30.867288610983479 10.27804522585647 #
plane-surface $-1 0 0 15.058084240665284 0 0 1 1 0 0 forward_v I I I I #
coedge $-1 $654 $653 $646 $759 forward $468 $-1 #
coedge $-1 $646 $470 $472 $650 reversed $319 $-1 #
coedge $-1 $470 $645 $644 $759 reversed $319 $-1 #
coedge $-1 $478 $473 $470 $648 forward $479 $-1 #
edge $-1 $651 22.876887297309523 $760 33.408244175518448 $647 $761 forward 7 unknown #
coedge $-1 $472 $471 $654 $762 reversed $201 $-1 #
edge $-1 $763 -148.26868495742661 $651 -132.8267753696955 $645 $764 forward 7 unknown #
vertex $-1 $474 $765 #
straight-curve $-1 63.602985600504418 -8.047083725853625 15.058084240665266 0 -1 0 I I #
coedge $-1 $644 $475 $478 $658 reversed $468 $-1 #
coedge $-1 $475 $644 $649 $762 forward $468 $-1 #
vertex $-1 $476 $766 #
straight-curve $-1 74.134342478713336 -11.315191430915597 106.66021892735886 0 0 1 I I #
straight-curve $-1 -26.984656196813177 -11.315191430915597 112.20143917919118 0.68199835119979291 0 -0.73135370988377701 I I #
edge $-1 $760 -20.873143472498903 $480 -11.315191430915597 $653 $767 forward 7 unknown #
point $-1 74.134342478713336 -11.315191430915597 15.058084240665284 #
point $-1 63.602985600504411 -11.315191430915597 15.058084240665281 #
edge $-1 $768 1 $768 0 $483 $-1 forward 7 unknown #
vertex $-1 $484 $769 #
ellipse-curve $-1 66.616928481833526 -18.142300032046531 7.3115579817240244 0.73135370988377701 0 0.68199835119979291 0.68199835119979291 0 -0.73135370988377701 1 I I #
point $-1 69.550662390808668 -18.142300032046531 8.6799815984429607 #
edge $-1 $770 1 $770 0 $487 $-1 forward 7 unknown #
vertex $-1 $488 $771 #
ellipse-curve $-1 66.616928481833526 -14.046034871367972 7.3115579817240244 0.73135370988377701 0 0.68199835119979291 0.68199835119979291 0 -0.73135370988377701 1 I I #
point $-1 69.550662390808668 -14.046034871367972 8.6799815984429607 #
plane-surface $-1 74.134342478713336 0 0 -1 0 0 0 0 1 forward_v I I I I #
coedge $-1 $496 $494 $498 $674 reversed $341 $-1 #
edge $-1 $509 -15.058084240665284 $676 15.058084240665284 $508 $772 forward 7 unknown #
vertex $-1 $674 $773 #
straight-curve $-1 -74.134342478713336 -35.698603358092782 0 0 0 -1 I I #
edge $-1 $672 -35.698603358092782 $676 35.698603358092782 $670 $774 forward 7 unknown #
straight-curve $-1 0 -35.698603358092782 -15.058084240665284 -1 0 0 I I #
vertex $-1 $501 $775 #
straight-curve $-1 0 35.698603358092782 -15.058084240665284 1 0 0 I I #
point $-1 74.134342478713336 35.698603358092782 -15.058084240665284 #
point $-1 74.134342478713336 -35.698603358092782 -15.058084240665284 #
straight-curve $-1 -74.134342478713336 0 15.058084240665284 0 -1 0 I I #
point $-1 -74.134342478713336 35.698603358092782 15.058084240665284 #
point $-1 -74.134342478713336 -35.698603358092782 15.058084240665284 #
straight-curve $-1 74.134342478713336 -35.698603358092782 0 0 0 -1 I I #
straight-curve $-1 74.134342478713336 35.698603358092782 0 0 0 -1 I I #
plane-surface $-1 -74.134342478713336 0 0 1 0 0 0 0 -1 forward_v I I I I #
coedge $-1 $688 $697 $692 $776 forward $519 $-1 #
coedge $-1 $522 $521 $777 $778 forward $223 $-1 #
coedge $-1 $777 $686 $523 $689 reversed $519 $-1 #
edge $-1 $690 -74.134342478713336 $693 74.134342478713336 $688 $779 forward 7 unknown #
vertex $-1 $778 $780 #
straight-curve $-1 74.134342478713336 0 -15.058084240665284 0 -1 0 I I #
coedge $-1 $531 $525 $686 $776 reversed $532 $-1 #
vertex $-1 $526 $781 #
straight-curve $-1 -74.134342478713336 0 -15.058084240665284 0 1 0 I I #
point $-1 -74.134342478713336 -35.698603358092782 -15.058084240665284 #
point $-1 74.134342478713336 -35.698603358092782 -15.058084240665284 #
coedge $-1 $686 $777 $534 $698 reversed $519 $-1 #
edge $-1 $699 -74.134342478713336 $701 74.134342478713336 $697 $782 forward 7 unknown #
vertex $-1 $535 $783 #
straight-curve $-1 -74.134342478713336 -43.111333300889726 -6.3769035968250911 0 -1 0 I I #
vertex $-1 $536 $784 #
straight-curve $-1 74.134342478713336 -43.111333300889726 -6.3769035968250911 0 1 0 I I #
coedge $-1 $550 $549 $542 $704 forward $539 $-1 #
edge $-1 $705 30.861482725917543 $708 41.230577758093858 $703 $785 forward 7 unknown #
vertex $-1 $554 $786 #
straight-curve $-1 -97.043114778146759 -10.718481198875766 15.058084240665281 -1 0 0 I I #
edge $-1 $708 3.4960689651580434 $551 10.948755502277404 $550 $787 forward 7 unknown #
vertex $-1 $707 $788 #
straight-curve $-1 -74.13434247871335 -10.718481198875766 4.6889892084889482 0.5877852410284794 0 0.80901700255871778 I I #
point $-1 -66.600754181485172 -10.718481198875766 15.058084240665284 #
point $-1 -74.134342478713336 -18.171167735995127 4.6889892084889677 #
straight-curve $-1 -74.134342478713336 0 15.058084240665284 0 -1 0 I I #
vertex $-1 $557 $789 #
point $-1 -69.264638707026293 -16.041828725389596 9.6902599848279909 #
vertex $-1 $561 $790 #
point $-1 -69.264638707026293 -12.847820209481299 9.6902599848279909 #
coedge $-1 $576 $575 $568 $718 forward $565 $-1 #
edge $-1 $719 30.861482725917543 $722 41.230577758093858 $717 $791 forward 7 unknown #
vertex $-1 $580 $792 #
straight-curve $-1 -97.043114778146759 3.8532217412791621 15.058084240665281 -1 0 0 I I #
edge $-1 $722 -3.7897825049194207 $577 3.662904032199938 $576 $793 forward 7 unknown #
vertex $-1 $721 $794 #
straight-curve $-1 -74.13434247871335 3.8532217412791621 4.6889892084889482 0.5877852410284794 0 0.80901700255871778 I I #
point $-1 -66.600754181485172 3.8532217412791621 15.058084240665284 #
point $-1 -74.134342478713336 -3.5994647958401966 4.6889892084889677 #
straight-curve $-1 -74.134342478713336 0 15.058084240665284 0 -1 0 I I #
vertex $-1 $583 $795 #
point $-1 -69.264638707026293 -1.4701257852346714 9.6902599848279909 #
vertex $-1 $587 $796 #
point $-1 -69.264638707026293 1.7238827306736297 9.6902599848279909 #
coedge $-1 $602 $601 $594 $732 forward $591 $-1 #
edge $-1 $733 30.861482725917543 $736 41.230577758093858 $731 $797 forward 7 unknown #
vertex $-1 $606 $798 #
straight-curve $-1 -97.043114778146759 18.424924681434092 15.058084240665281 -1 0 0 I I #
edge $-1 $736 -11.075633974996887 $603 -3.6229474378775262 $602 $799 forward 7 unknown #
vertex $-1 $735 $800 #
straight-curve $-1 -74.13434247871335 18.424924681434092 4.6889892084889482 0.5877852410284794 0 0.80901700255871778 I I #
point $-1 -66.600754181485172 18.424924681434092 15.058084240665284 #
point $-1 -74.134342478713336 10.972238144314732 4.6889892084889677 #
straight-curve $-1 -74.134342478713336 0 15.058084240665284 0 -1 0 I I #
vertex $-1 $609 $801 #
point $-1 -69.264638707026293 13.101577154920257 9.6902599848279909 #
vertex $-1 $613 $802 #
point $-1 -69.264638707026293 16.295585670828558 9.6902599848279909 #
coedge $-1 $628 $627 $620 $746 forward $617 $-1 #
edge $-1 $747 30.861482725917543 $750 41.230577758093858 $745 $803 forward 7 unknown #
vertex $-1 $632 $804 #
straight-curve $-1 -97.043114778146759 32.99662762158902 15.058084240665281 -1 0 0 I I #
edge $-1 $750 -18.361485445074351 $629 -10.908798907954989 $628 $805 forward 7 unknown #
vertex $-1 $749 $806 #
straight-curve $-1 -74.13434247871335 32.99662762158902 4.6889892084889482 0.5877852410284794 0 0.80901700255871778 I I #
point $-1 -66.600754181485172 32.99662762158902 15.058084240665284 #
point $-1 -74.134342478713336 25.543941084469658 4.6889892084889677 #
straight-curve $-1 -74.134342478713336 0 15.058084240665284 0 -1 0 I I #
vertex $-1 $635 $807 #
point $-1 -69.264638707026293 27.673280095075185 9.6902599848279909 #
vertex $-1 $639 $808 #
point $-1 -69.264638707026293 30.867288610983479 9.6902599848279909 #
edge $-1 $760 91.602134686693574 $763 102.89563255137061 $644 $809 forward 7 unknown #
vertex $-1 $658 $810 #
straight-curve $-1 40.726098303194888 -20.873143472498903 15.058084240665281 1 0 0 I I #
edge $-1 $763 -12.826059746645278 $655 -3.268107705061972 $654 $811 forward 7 unknown #
vertex $-1 $762 $812 #
straight-curve $-1 -26.984656196813177 -20.873143472498903 112.20143917919118 -0.68199835119979291 0 0.73135370988377701 I I #
point $-1 63.602985600504411 -20.873143472498903 15.058084240665281 #
point $-1 74.134342478713336 -11.315191430915597 3.7645863759882445 #
straight-curve $-1 74.134342478713336 0 15.058084240665284 0 1 0 I I #
vertex $-1 $661 $813 #
point $-1 67.29892683303332 -18.142300032046531 6.5802042718402474 #
vertex $-1 $665 $814 #
point $-1 67.29892683303332 -14.046034871367972 6.5802042718402474 #
straight-curve $-1 -74.134342478713336 35.698603358092782 0 0 0 -1 I I #
point $-1 -74.134342478713336 -35.698603358092782 -15.058084240665284 #
straight-curve $-1 -74.134342478713336 0 -15.058084240665284 0 1 0 I I #
point $-1 -74.134342478713336 35.698603358092782 -15.058084240665284 #
edge $-1 $699 -4.3405903219200965 $693 4.3405903219200965 $692 $815 forward 7 unknown #
coedge $-1 $697 $688 $687 $778 reversed $519 $-1 #
edge $-1 $701 -4.3405903219200965 $690 4.3405903219200965 $687 $816 forward 7 unknown #
straight-curve $-1 0 -50.524063243686669 -15.058084240665284 -1 0 0 I I #
point $-1 74.134342478713336 -50.524063243686669 -15.058084240665284 #
point $-1 -74.134342478713336 -50.524063243686669 -15.058084240665284 #
straight-curve $-1 0 -50.524063243686669 -6.3769035968250911 1 0 0 I I #
point $-1 -74.134342478713336 -50.524063243686669 -6.3769035968250911 #
point $-1 74.134342478713336 -50.524063243686669 -6.3769035968250911 #
straight-curve $-1 -74.134342478713336 -10.718481198875766 45.919566966582828 0 0 -1 I I #
point $-1 -74.134342478713336 -10.718481198875766 15.058084240665284 #
straight-curve $-1 -74.134342478713336 -7.2224122337177228 4.6889892084889633 0 -1 0 I I #
point $-1 -74.134342478713336 -10.718481198875766 4.6889892084889677 #
point $-1 -69.154022826261169 -16.041828725389596 8.991858863034393 #
point $-1 -69.154022826261169 -12.847820209481299 8.991858863034393 #
straight-curve $-1 -74.134342478713336 3.8532217412791621 45.919566966582828 0 0 -1 I I #
point $-1 -74.134342478713336 3.8532217412791621 15.058084240665284 #
straight-curve $-1 -74.134342478713336 0.063439236359741358 4.6889892084889633 0 -1 0 I I #
point $-1 -74.134342478713336 3.8532217412791621 4.6889892084889677 #
point $-1 -69.154022826261169 -1.4701257852346714 8.991858863034393 #
point $-1 -69.154022826261169 1.7238827306736297 8.991858863034393 #
straight-curve $-1 -74.134342478713336 18.424924681434092 45.919566966582828 0 0 -1 I I #
point $-1 -74.134342478713336 18.424924681434092 15.058084240665284 #
straight-curve $-1 -74.134342478713336 7.3492907064372055 4.6889892084889633 0 -1 0 I I #
point $-1 -74.134342478713336 18.424924681434092 4.6889892084889677 #
point $-1 -69.154022826261169 13.101577154920257 8.991858863034393 #
point $-1 -69.154022826261169 16.295585670828558 8.991858863034393 #
straight-curve $-1 -74.134342478713336 32.99662762158902 45.919566966582828 0 0 -1 I I #
point $-1 -74.134342478713336 32.99662762158902 15.058084240665284 #
straight-curve $-1 -74.134342478713336 14.63514217651467 4.6889892084889633 0 -1 0 I I #
point $-1 -74.134342478713336 32.99662762158902 4.6889892084889677 #
point $-1 -69.154022826261169 27.673280095075185 8.991858863034393 #
point $-1 -69.154022826261169 30.867288610983479 8.991858863034393 #
straight-curve $-1 74.134342478713336 -20.873143472498903 106.66021892735886 0 0 -1 I I #
point $-1 74.134342478713336 -20.873143472498903 15.058084240665284 #
straight-curve $-1 74.134342478713322 -8.047083725853625 3.7645863759882374 0 1 0 I I #
point $-1 74.134342478713336 -20.873143472498903 3.7645863759882445 #
point $-1 65.885574771949763 -18.142300032046531 6.6295596305242315 #
point $-1 65.885574771949763 -14.046034871367972 6.6295596305242315 #
straight-curve $-1 -74.134342478713336 -50.524063243686669 -10.717493918745188 0 0 -1 I I #
straight-curve $-1 74.134342478713336 -50.524063243686669 -10.717493918745188 0 0 -1 I I #
End-of-ACIS-data 