500 0 8 0           
7 Unknown 11 ACIS 5.0 NT 24 Thu Mar 25 16:02:11 1999 
-1 9.9999999999999995e-007 1e-010 
body $-1 $8 $-1 $9 #
body $-1 $10 $-1 $11 #
body $-1 $12 $-1 $13 #
body $-1 $14 $-1 $15 #
body $-1 $16 $-1 $17 #
body $-1 $18 $-1 $19 #
body $-1 $20 $-1 $21 #
body $-1 $22 $-1 $23 #
lump $-1 $-1 $24 $0 #
transform $-1 1 0 0 0 1 0 0 0 1 77.802667317728208 46.292195274510718 19.927951587393974 1 rotate no_reflect no_shear #
lump $-1 $-1 $25 $1 #
transform $-1 1 0 0 0 1 0 0 0 1 77.802667317728208 46.292195274510718 19.927951587393974 1 rotate no_reflect no_shear #
lump $-1 $-1 $26 $2 #
transform $-1 1 0 0 0 1 0 0 0 1 77.802667317728208 46.292195274510718 19.927951587393974 1 rotate no_reflect no_shear #
lump $-1 $-1 $27 $3 #
transform $-1 1 0 0 0 1 0 0 0 1 77.802667317728208 46.292195274510718 19.927951587393974 1 rotate no_reflect no_shear #
lump $-1 $-1 $28 $4 #
transform $-1 1 0 0 0 1 0 0 0 1 77.802667317728208 46.292195274510718 19.927951587393974 1 rotate no_reflect no_shear #
lump $-1 $-1 $29 $5 #
transform $-1 1 0 0 0 1 0 0 0 1 77.802667317728208 46.292195274510718 19.927951587393974 1 rotate no_reflect no_shear #
lump $-1 $-1 $30 $6 #
transform $-1 1 0 0 0 1 0 0 0 1 77.802667317728208 46.292195274510718 19.927951587393974 1 rotate no_reflect no_shear #
lump $-1 $-1 $31 $7 #
transform $-1 1 0 0 0 1 0 0 0 1 77.802667317728208 46.292195274510718 19.927951587393974 1 rotate no_reflect no_shear #
shell $-1 $-1 $-1 $32 $-1 $8 #
shell $-1 $-1 $-1 $33 $-1 $10 #
shell $-1 $-1 $-1 $34 $-1 $12 #
shell $-1 $-1 $-1 $35 $-1 $14 #
shell $-1 $-1 $-1 $36 $-1 $16 #
shell $-1 $-1 $-1 $37 $-1 $18 #
shell $-1 $-1 $-1 $38 $-1 $20 #
shell $-1 $-1 $-1 $39 $-1 $22 #
face $-1 $40 $41 $24 $-1 $42 reversed single #
face $-1 $43 $44 $25 $-1 $45 forward single #
face $-1 $46 $47 $26 $-1 $48 reversed single #
face $-1 $49 $50 $27 $-1 $51 forward single #
face $-1 $52 $53 $28 $-1 $54 forward single #
face $-1 $55 $56 $29 $-1 $57 reversed single #
face $-1 $58 $59 $30 $-1 $60 forward single #
face $-1 $61 $62 $31 $-1 $63 forward single #
face $-1 $64 $65 $24 $-1 $66 forward single #
loop $-1 $-1 $67 $32 #
plane-surface $-1 -77.802667317728208 0 0 1 0 0 0 0 -1 forward_v I I I I #
face $-1 $68 $69 $25 $-1 $70 reversed single #
loop $-1 $-1 $71 $33 #
plane-surface $-1 -77.802667317728208 0 0 1 0 0 0 0 -1 forward_v I I I I #
face $-1 $72 $73 $26 $-1 $74 reversed single #
loop $-1 $-1 $75 $34 #
plane-surface $-1 -41.416288366264411 -146.31337760867083 128.46558955616661 -1 0 0 0 -0.64278761758704617 0.76604443648966558 forward_v I I I I #
face $-1 $76 $77 $27 $-1 $78 forward single #
loop $-1 $79 $80 $35 #
cone-surface $-1 -56.816661956712657 -38.438787393318265 12.80932144575991 0 0.64278761758704617 -0.76604443648966558 2 0 0 1 I I 0 1 2 forward I I I I #
face $-1 $81 $82 $28 $-1 $83 forward single #
loop $-1 $84 $85 $36 #
cone-surface $-1 -47.576437802443706 -38.438787393318265 12.80932144575991 0 0.64278761758704617 -0.76604443648966558 2 0 0 1 I I 0 1 2 forward I I I I #
face $-1 $86 $87 $29 $-1 $88 reversed single #
loop $-1 $-1 $89 $37 #
plane-surface $-1 43.179430979788378 99.978447278212215 182.07781827196823 1 0 0 0 -0.74314483375859142 -0.66913059716165679 forward_v I I I I #
face $-1 $90 $91 $30 $-1 $92 forward single #
loop $-1 $93 $94 $38 #
cone-surface $-1 53.07178421919977 38.888062483488333 12.241625818737521 0 -0.74314483375859142 -0.66913059716165679 3 0 0 1 I I 0 1 3 forward I I I I #
face $-1 $95 $96 $31 $-1 $97 forward single #
loop $-1 $98 $99 $39 #
cone-surface $-1 67.910314078316844 38.888062483488333 12.241625818737521 0 -0.74314483375859142 -0.66913059716165679 3 0 0 1 I I 0 1 3 forward I I I I #
face $-1 $100 $101 $24 $-1 $102 reversed single #
loop $-1 $-1 $103 $40 #
plane-surface $-1 0 0 19.927951587393974 0 0 1 1 0 0 forward_v I I I I #
coedge $-1 $104 $105 $106 $107 reversed $41 $-1 #
face $-1 $108 $109 $25 $-1 $110 reversed single #
loop $-1 $-1 $111 $43 #
plane-surface $-1 0 0 -19.927951587393974 0 0 1 1 0 0 forward_v I I I I #
coedge $-1 $112 $113 $114 $115 forward $44 $-1 #
face $-1 $116 $117 $26 $-1 $118 reversed single #
loop $-1 $-1 $119 $46 #
plane-surface $-1 -52.196549879578185 -46.292195274510732 9.264988670562559 0 -0.64278761758704617 0.76604443648966558 1 0 0 forward_v I I I I #
coedge $-1 $120 $121 $122 $123 reversed $47 $-1 #
face $-1 $-1 $124 $27 $-1 $125 forward single #
loop $-1 $126 $127 $49 #
cone-surface $-1 -56.816661956712657 -36.296403943374756 10.256128326051883 0 0.64278761758704617 -0.76604443648966558 1 0 0 1 I I -0.70710678118654746 0.70710678118654746 1 forward I I I I #
loop $-1 $-1 $128 $35 #
coedge $-1 $80 $80 $129 $130 reversed $50 $-1 #
face $-1 $-1 $131 $28 $-1 $132 forward single #
loop $-1 $133 $134 $52 #
cone-surface $-1 -47.576437802443706 -36.296403943374756 10.256128326051883 0 0.64278761758704617 -0.76604443648966558 1 0 0 1 I I -0.70710678118654746 0.70710678118654746 1 forward I I I I #
loop $-1 $-1 $135 $36 #
coedge $-1 $85 $85 $136 $137 reversed $53 $-1 #
face $-1 $138 $139 $29 $-1 $140 reversed single #
loop $-1 $-1 $141 $55 #
plane-surface $-1 60.491049148758293 -15.658853261404033 77.957527785805837 0 0.74314483375859142 0.66913059716165679 1 0 0 forward_v I I I I #
coedge $-1 $142 $143 $144 $145 reversed $56 $-1 #
face $-1 $-1 $146 $30 $-1 $147 forward single #
loop $-1 $148 $149 $58 #
cone-surface $-1 53.07178421919977 35.219704811027199 8.9386218167291638 0 -0.74314483375859142 -0.66913059716165679 1.5 0 0 1 I I -0.70710678118654757 0.70710678118654757 1.5 forward I I I I #
loop $-1 $-1 $150 $38 #
coedge $-1 $94 $94 $151 $152 reversed $59 $-1 #
face $-1 $-1 $153 $31 $-1 $154 forward single #
loop $-1 $155 $156 $61 #
cone-surface $-1 67.910314078316844 35.219704811027199 8.9386218167291638 0 -0.74314483375859142 -0.66913059716165679 1.5 0 0 1 I I -0.70710678118654757 0.70710678118654757 1.5 forward I I I I #
loop $-1 $-1 $157 $39 #
coedge $-1 $99 $99 $158 $159 reversed $62 $-1 #
face $-1 $160 $161 $24 $-1 $162 reversed single #
loop $-1 $-1 $163 $64 #
plane-surface $-1 0 0 -19.927951587393974 0 0 1 1 0 0 forward_v I I I I #
coedge $-1 $164 $165 $166 $167 forward $65 $-1 #
coedge $-1 $168 $67 $169 $170 reversed $41 $-1 #
coedge $-1 $67 $168 $171 $172 forward $41 $-1 #
coedge $-1 $173 $174 $67 $107 forward $101 $-1 #
edge $-1 $175 -46.292195274510718 $176 46.292195274510718 $67 $177 forward 7 unknown #
face $-1 $178 $179 $25 $-1 $180 reversed single #
loop $-1 $-1 $181 $68 #
plane-surface $-1 -85.215595280146331 -10.497295668241843 0 0 1 0 0 0 1 forward_v I I I I #
coedge $-1 $182 $183 $113 $184 forward $69 $-1 #
coedge $-1 $185 $71 $186 $187 reversed $44 $-1 #
coedge $-1 $71 $185 $111 $184 reversed $44 $-1 #
coedge $-1 $188 $189 $71 $115 reversed $190 $-1 #
edge $-1 $191 -19.927951587393974 $192 19.927951587393974 $114 $193 forward 7 unknown #
face $-1 $194 $195 $26 $-1 $196 forward single #
loop $-1 $-1 $197 $72 #
plane-surface $-1 -62.97681139289196 -146.31337760867083 128.46558955616661 1 0 0 0 0.64278761758704617 -0.76604443648966558 forward_v I I I I #
coedge $-1 $198 $199 $200 $201 reversed $73 $-1 #
coedge $-1 $121 $75 $202 $203 reversed $47 $-1 #
coedge $-1 $75 $120 $198 $204 reversed $47 $-1 #
coedge $-1 $200 $205 $75 $123 forward $195 $-1 #
edge $-1 $206 26.864493529824699 $207 39.572117627496688 $122 $208 forward 7 unknown #
loop $-1 $-1 $129 $76 #
plane-surface $-1 -52.196549879578185 -46.292195274510732 9.264988670562559 0 -0.64278761758704617 0.76604443648966558 1 0 0 forward_v I I I I #
loop $-1 $-1 $209 $49 #
coedge $-1 $127 $127 $128 $210 reversed $77 $-1 #
coedge $-1 $128 $128 $127 $210 forward $79 $-1 #
coedge $-1 $129 $129 $80 $130 forward $124 $-1 #
edge $-1 $211 -5.7091009039127109e-016 $211 6.2831853071795996 $129 $212 forward 7 unknown #
loop $-1 $-1 $136 $81 #
plane-surface $-1 -52.196549879578185 -46.292195274510732 9.264988670562559 0 -0.64278761758704617 0.76604443648966558 1 0 0 forward_v I I I I #
loop $-1 $-1 $213 $52 #
coedge $-1 $134 $134 $135 $214 reversed $82 $-1 #
coedge $-1 $135 $135 $134 $214 forward $84 $-1 #
coedge $-1 $136 $136 $85 $137 forward $131 $-1 #
edge $-1 $215 -5.7091009039127109e-016 $215 6.2831853071795996 $136 $216 forward 7 unknown #
face $-1 $217 $218 $29 $-1 $219 forward single #
loop $-1 $-1 $220 $86 #
plane-surface $-1 0 46.292195274510718 0 0 -1 0 0 0 -1 forward_v I I I I #
coedge $-1 $221 $222 $223 $224 reversed $87 $-1 #
coedge $-1 $143 $89 $225 $226 reversed $56 $-1 #
coedge $-1 $89 $142 $221 $227 reversed $56 $-1 #
coedge $-1 $223 $228 $89 $145 forward $218 $-1 #
edge $-1 $229 3.6970283645953899 $230 13.398013102993644 $144 $231 forward 7 unknown #
loop $-1 $-1 $151 $90 #
plane-surface $-1 60.491049148758293 -15.658853261404033 77.957527785805837 0 0.74314483375859142 0.66913059716165679 1 0 0 forward_v I I I I #
loop $-1 $-1 $232 $58 #
coedge $-1 $149 $149 $150 $233 reversed $91 $-1 #
coedge $-1 $150 $150 $149 $233 forward $93 $-1 #
coedge $-1 $151 $151 $94 $152 forward $146 $-1 #
edge $-1 $234 -7.0475934488541969e-016 $234 6.2831853071795996 $151 $235 forward 7 unknown #
loop $-1 $-1 $158 $95 #
plane-surface $-1 60.491049148758293 -15.658853261404033 77.957527785805837 0 0.74314483375859142 0.66913059716165679 1 0 0 forward_v I I I I #
loop $-1 $-1 $236 $61 #
coedge $-1 $156 $156 $157 $237 reversed $96 $-1 #
coedge $-1 $157 $157 $156 $237 forward $98 $-1 #
coedge $-1 $158 $158 $99 $159 forward $153 $-1 #
edge $-1 $238 -7.0475934488541969e-016 $238 6.2831853071795996 $158 $239 forward 7 unknown #
face $-1 $240 $241 $24 $-1 $242 reversed single #
loop $-1 $-1 $169 $100 #
plane-surface $-1 0 -46.292195274510718 0 0 1 0 0 0 1 forward_v I I I I #
coedge $-1 $174 $173 $243 $244 forward $101 $-1 #
coedge $-1 $245 $103 $246 $247 forward $65 $-1 #
coedge $-1 $103 $245 $248 $249 forward $65 $-1 #
coedge $-1 $250 $251 $103 $167 reversed $252 $-1 #
edge $-1 $253 -46.292195274510718 $254 46.292195274510718 $166 $255 forward 7 unknown #
coedge $-1 $105 $104 $245 $256 reversed $41 $-1 #
coedge $-1 $257 $248 $104 $170 forward $161 $-1 #
edge $-1 $258 -19.927951587393974 $175 19.927951587393974 $104 $259 forward 7 unknown #
coedge $-1 $246 $260 $105 $172 reversed $241 $-1 #
edge $-1 $261 -19.927951587393974 $176 19.927951587393974 $171 $262 forward 7 unknown #
coedge $-1 $163 $106 $260 $263 forward $101 $-1 #
coedge $-1 $106 $163 $257 $264 forward $101 $-1 #
vertex $-1 $107 $265 #
vertex $-1 $263 $266 #
straight-curve $-1 -77.802667317728208 0 -19.927951587393974 0 1 0 I I #
face $-1 $267 $190 $25 $-1 $268 reversed single #
loop $-1 $-1 $269 $108 #
plane-surface $-1 -92.628523242564455 -8.4667938839823051 0 1 0 0 0 0 -1 forward_v I I I I #
coedge $-1 $270 $271 $272 $273 forward $109 $-1 #
coedge $-1 $274 $111 $270 $275 forward $69 $-1 #
coedge $-1 $111 $274 $188 $276 forward $69 $-1 #
edge $-1 $191 6.4362920997227668 $277 10.497295668241843 $111 $278 forward 7 unknown #
coedge $-1 $113 $112 $279 $280 forward $44 $-1 #
coedge $-1 $281 $282 $112 $187 forward $283 $-1 #
edge $-1 $284 -10.497295668241843 $192 -6.4362920997227668 $186 $285 forward 7 unknown #
coedge $-1 $286 $114 $183 $276 reversed $190 $-1 #
coedge $-1 $114 $286 $281 $287 reversed $190 $-1 #
loop $-1 $-1 $114 $178 #
vertex $-1 $184 $288 #
vertex $-1 $287 $289 #
straight-curve $-1 -77.802667317728208 -6.4362920997227668 0 0 0 1 I I #
face $-1 $-1 $290 $26 $-1 $291 reversed single #
loop $-1 $-1 $122 $116 #
plane-surface $-1 0 0 19.927951587393974 0 0 1 1 0 0 forward_v I I I I #
coedge $-1 $292 $293 $294 $295 reversed $117 $-1 #
coedge $-1 $296 $119 $121 $204 forward $73 $-1 #
coedge $-1 $119 $296 $292 $297 forward $73 $-1 #
coedge $-1 $294 $122 $119 $201 forward $195 $-1 #
edge $-1 $207 15.318013426475318 $298 36.878536453102868 $200 $299 forward 7 unknown #
coedge $-1 $300 $301 $120 $203 forward $290 $-1 #
edge $-1 $302 -54.96780610752073 $206 -44.304843190689326 $202 $303 forward 7 unknown #
edge $-1 $207 -16.588625270752729 $302 -1.8878887457821222e-014 $121 $304 forward 7 unknown #
coedge $-1 $122 $294 $300 $305 forward $195 $-1 #
vertex $-1 $123 $306 #
vertex $-1 $123 $307 #
straight-curve $-1 -41.416288366264411 -73.156688804335417 19.927951587393977 0 1 0 I I #
coedge $-1 $209 $209 $-1 $308 reversed $126 $-1 #
edge $-1 $309 0 $309 6.2831853071796004 $127 $310 forward 7 unknown #
vertex $-1 $130 $311 #
ellipse-curve $-1 -56.816661956712657 -39.938383225674727 14.59647012897827 0 -0.64278761758704617 0.76604443648966558 2 0 0 1 I I #
coedge $-1 $213 $213 $-1 $312 reversed $133 $-1 #
edge $-1 $313 0 $313 6.2831853071796004 $134 $314 forward 7 unknown #
vertex $-1 $137 $315 #
ellipse-curve $-1 -47.576437802443706 -39.938383225674727 14.59647012897827 0 -0.64278761758704617 0.76604443648966558 2 0 0 1 I I #
face $-1 $-1 $316 $29 $-1 $317 reversed single #
loop $-1 $-1 $223 $138 #
plane-surface $-1 0 0 19.927951587393974 0 0 1 1 0 0 forward_v I I I I #
coedge $-1 $225 $318 $319 $320 forward $139 $-1 #
coedge $-1 $319 $141 $143 $227 forward $87 $-1 #
coedge $-1 $141 $319 $321 $322 reversed $87 $-1 #
coedge $-1 $323 $144 $141 $224 forward $218 $-1 #
edge $-1 $230 12.933906405409232 $324 47.557142743349061 $223 $325 forward 7 unknown #
coedge $-1 $326 $220 $142 $226 forward $139 $-1 #
edge $-1 $327 -81.884992873371289 $229 -71.110957548590136 $225 $328 forward 7 unknown #
edge $-1 $230 78.086496147617169 $327 92.584390549021407 $143 $329 forward 7 unknown #
coedge $-1 $144 $323 $326 $330 forward $218 $-1 #
vertex $-1 $226 $331 #
vertex $-1 $145 $332 #
straight-curve $-1 43.179430979788378 49.989223639106108 19.927951587393977 0 -1 0 I I #
coedge $-1 $232 $232 $-1 $333 reversed $148 $-1 #
edge $-1 $334 0 $334 6.2831853071796004 $149 $335 forward 7 unknown #
vertex $-1 $152 $336 #
ellipse-curve $-1 53.07178421919977 41.441702905311587 14.540933925003401 0 0.74314483375859142 0.66913059716165679 3 0 0 1 I I #
coedge $-1 $236 $236 $-1 $337 reversed $155 $-1 #
edge $-1 $338 0 $338 6.2831853071796004 $156 $339 forward 7 unknown #
vertex $-1 $159 $340 #
ellipse-curve $-1 67.910314078316844 41.441702905311587 14.540933925003401 0 0.74314483375859142 0.66913059716165679 3 0 0 1 I I #
face $-1 $-1 $252 $24 $-1 $341 reversed single #
loop $-1 $-1 $342 $160 #
plane-surface $-1 0 46.292195274510718 0 0 -1 0 0 0 -1 forward_v I I I I #
coedge $-1 $251 $250 $163 $244 reversed $252 $-1 #
edge $-1 $343 -46.292195274510718 $344 46.292195274510718 $243 $345 forward 7 unknown #
coedge $-1 $165 $164 $168 $256 forward $65 $-1 #
coedge $-1 $342 $171 $164 $247 reversed $241 $-1 #
edge $-1 $254 -77.802667317728208 $261 77.802667317728208 $246 $346 forward 7 unknown #
coedge $-1 $169 $347 $165 $249 reversed $161 $-1 #
edge $-1 $258 -77.802667317728208 $253 77.802667317728208 $248 $348 forward 7 unknown #
coedge $-1 $243 $166 $347 $349 forward $252 $-1 #
coedge $-1 $166 $243 $342 $350 reversed $252 $-1 #
loop $-1 $-1 $250 $240 #
vertex $-1 $167 $351 #
vertex $-1 $167 $352 #
straight-curve $-1 77.802667317728208 0 19.927951587393974 0 1 0 I I #
edge $-1 $261 -46.292195274510718 $258 46.292195274510718 $168 $353 forward 7 unknown #
coedge $-1 $347 $169 $174 $264 reversed $161 $-1 #
vertex $-1 $256 $354 #
straight-curve $-1 -77.802667317728208 -46.292195274510718 0 0 0 -1 I I #
coedge $-1 $171 $342 $173 $263 reversed $241 $-1 #
vertex $-1 $247 $355 #
straight-curve $-1 -77.802667317728208 46.292195274510718 0 0 0 -1 I I #
edge $-1 $176 -77.802667317728208 $343 77.802667317728208 $260 $356 forward 7 unknown #
edge $-1 $344 -77.802667317728208 $175 77.802667317728208 $257 $357 forward 7 unknown #
point $-1 -77.802667317728208 -46.292195274510718 -19.927951587393974 #
point $-1 -77.802667317728208 46.292195274510718 -19.927951587393974 #
face $-1 $-1 $283 $25 $-1 $358 forward single #
plane-surface $-1 -85.215595280146331 -6.4362920997227668 0 0 -1 0 0 0 -1 forward_v I I I I #
coedge $-1 $359 $360 $286 $361 forward $179 $-1 #
coedge $-1 $279 $181 $182 $275 reversed $109 $-1 #
coedge $-1 $181 $279 $282 $362 reversed $109 $-1 #
coedge $-1 $360 $359 $181 $273 reversed $179 $-1 #
edge $-1 $363 -19.927951587393974 $364 19.927951587393974 $272 $365 forward 7 unknown #
coedge $-1 $183 $182 $359 $366 forward $69 $-1 #
edge $-1 $277 -7.4129279624181237 $364 7.4129279624181237 $270 $367 forward 7 unknown #
edge $-1 $368 -7.4129279624181237 $191 7.4129279624181237 $188 $369 forward 7 unknown #
vertex $-1 $275 $370 #
straight-curve $-1 -77.802667317728208 0 -19.927951587393974 0 -1 0 I I #
coedge $-1 $271 $270 $185 $280 reversed $109 $-1 #
edge $-1 $284 -19.927951587393974 $277 19.927951587393974 $279 $371 forward 7 unknown #
coedge $-1 $372 $186 $189 $287 forward $283 $-1 #
coedge $-1 $186 $372 $271 $362 forward $283 $-1 #
loop $-1 $-1 $186 $267 #
vertex $-1 $187 $373 #
straight-curve $-1 -77.802667317728208 0 19.927951587393974 0 1 0 I I #
coedge $-1 $189 $188 $269 $361 reversed $190 $-1 #
edge $-1 $192 -7.4129279624181237 $374 7.4129279624181237 $189 $375 forward 7 unknown #
point $-1 -77.802667317728208 -6.4362920997227668 -19.927951587393974 #
point $-1 -77.802667317728208 -6.4362920997227668 19.927951587393974 #
loop $-1 $-1 $202 $194 #
plane-surface $-1 0 -46.292195274510718 0 0 1 0 0 0 1 forward_v I I I I #
coedge $-1 $293 $197 $199 $297 reversed $117 $-1 #
coedge $-1 $197 $292 $376 $377 reversed $117 $-1 #
coedge $-1 $205 $200 $197 $295 forward $195 $-1 #
edge $-1 $298 -39.572117627496688 $378 -26.864493529824699 $294 $379 forward 7 unknown #
coedge $-1 $199 $198 $301 $380 reversed $73 $-1 #
edge $-1 $381 1.8878887457821222e-014 $298 16.588625270752729 $292 $382 forward 7 unknown #
vertex $-1 $201 $383 #
straight-curve $-1 -26.098274939789093 -33.584571176838729 19.927951587393974 -1 0 0 I I #
coedge $-1 $376 $202 $205 $305 reversed $290 $-1 #
coedge $-1 $202 $376 $296 $380 forward $290 $-1 #
vertex $-1 $203 $384 #
straight-curve $-1 -41.416288366264411 -46.292195274510718 64.232794778083303 0 0 1 I I #
straight-curve $-1 -41.416288366264411 -46.292195274510732 9.264988670562559 0 -0.76604443648966558 -0.64278761758704617 I I #
edge $-1 $378 -62.97681139289196 $206 -41.416288366264411 $300 $385 forward 7 unknown #
point $-1 -41.416288366264411 -46.292195274510718 19.927951587393974 #
point $-1 -41.416288366264411 -33.584571176838729 19.927951587393974 #
edge $-1 $386 1 $386 0 $209 $-1 forward 7 unknown #
vertex $-1 $210 $387 #
ellipse-curve $-1 -56.816661956712657 -36.939191560961802 11.022172762541548 0 -0.64278761758704617 0.76604443648966558 2 0 0 1 I I #
point $-1 -54.816661956712657 -39.938383225674727 14.596470128978268 #
edge $-1 $388 1 $388 0 $213 $-1 forward 7 unknown #
vertex $-1 $214 $389 #
ellipse-curve $-1 -47.576437802443706 -36.939191560961802 11.022172762541548 0 -0.64278761758704617 0.76604443648966558 2 0 0 1 I I #
point $-1 -45.576437802443706 -39.938383225674727 14.596470128978268 #
loop $-1 $-1 $321 $217 #
plane-surface $-1 77.802667317728208 0 0 -1 0 0 0 0 1 forward_v I I I I #
coedge $-1 $220 $326 $390 $391 forward $139 $-1 #
coedge $-1 $222 $221 $220 $320 reversed $87 $-1 #
edge $-1 $392 -47.557142743349061 $327 -12.933906405409232 $220 $393 forward 7 unknown #
coedge $-1 $390 $394 $222 $322 forward $316 $-1 #
edge $-1 $324 43.880720217475428 $392 58.378614618879652 $321 $395 forward 7 unknown #
coedge $-1 $228 $223 $394 $396 forward $218 $-1 #
vertex $-1 $396 $397 #
straight-curve $-1 30.245524574379147 36.591210536112463 19.92795158739397 1 0 0 I I #
coedge $-1 $318 $225 $228 $330 reversed $139 $-1 #
vertex $-1 $226 $398 #
straight-curve $-1 43.179430979788378 46.292195274510718 91.038909135984113 0 0 1 I I #
straight-curve $-1 43.179430979788378 -15.658853261404033 77.957527785805837 0 0.66913059716165679 -0.74314483375859142 I I #
edge $-1 $399 -77.802667317728208 $229 -43.179430979788378 $326 $400 forward 7 unknown #
point $-1 43.179430979788378 46.292195274510718 19.927951587393974 #
point $-1 43.179430979788378 36.591210536112463 19.927951587393977 #
edge $-1 $401 1 $401 0 $232 $-1 forward 7 unknown #
vertex $-1 $233 $402 #
ellipse-curve $-1 53.07178421919977 36.334422061665087 9.9423177124716489 0 0.74314483375859142 0.66913059716165679 3 0 0 1 I I #
point $-1 56.07178421919977 41.44170290531158 14.540933925003397 #
edge $-1 $403 1 $403 0 $236 $-1 forward 7 unknown #
vertex $-1 $237 $404 #
ellipse-curve $-1 67.910314078316844 36.334422061665087 9.9423177124716489 0 0.74314483375859142 0.66913059716165679 3 0 0 1 I I #
point $-1 70.910314078316844 41.44170290531158 14.540933925003397 #
plane-surface $-1 77.802667317728208 0 0 -1 0 0 0 0 1 forward_v I I I I #
coedge $-1 $260 $246 $251 $350 forward $241 $-1 #
vertex $-1 $244 $405 #
vertex $-1 $349 $406 #
straight-curve $-1 77.802667317728208 0 -19.927951587393974 0 -1 0 I I #
straight-curve $-1 0 46.292195274510718 19.927951587393974 -1 0 0 I I #
coedge $-1 $248 $257 $250 $349 reversed $161 $-1 #
straight-curve $-1 0 -46.292195274510718 19.927951587393974 1 0 0 I I #
edge $-1 $253 -19.927951587393974 $344 19.927951587393974 $250 $407 forward 7 unknown #
edge $-1 $254 -19.927951587393974 $343 19.927951587393974 $251 $408 forward 7 unknown #
point $-1 77.802667317728208 -46.292195274510718 19.927951587393974 #
point $-1 77.802667317728208 46.292195274510718 19.927951587393974 #
straight-curve $-1 -77.802667317728208 0 19.927951587393974 0 -1 0 I I #
point $-1 -77.802667317728208 -46.292195274510718 19.927951587393974 #
point $-1 -77.802667317728208 46.292195274510718 19.927951587393974 #
straight-curve $-1 0 46.292195274510718 -19.927951587393974 1 0 0 I I #
straight-curve $-1 0 -46.292195274510718 -19.927951587393974 -1 0 0 I I #
plane-surface $-1 0 0 19.927951587393974 0 0 1 1 0 0 forward_v I I I I #
coedge $-1 $272 $269 $274 $366 reversed $179 $-1 #
coedge $-1 $269 $272 $372 $409 reversed $179 $-1 #
edge $-1 $374 -19.927951587393974 $368 19.927951587393974 $286 $410 forward 7 unknown #
edge $-1 $363 -7.4129279624181237 $284 7.4129279624181237 $271 $411 forward 7 unknown #
vertex $-1 $409 $412 #
vertex $-1 $366 $413 #
straight-curve $-1 -92.628523242564455 -10.497295668241843 0 0 0 -1 I I #
edge $-1 $364 -2.0305017842595383 $368 2.0305017842595383 $359 $414 forward 7 unknown #
straight-curve $-1 -85.215595280146331 -10.497295668241843 -19.927951587393974 -1 0 0 I I #
vertex $-1 $276 $415 #
straight-curve $-1 -85.215595280146331 -6.4362920997227668 -19.927951587393974 1 0 0 I I #
point $-1 -77.802667317728208 -10.497295668241843 -19.927951587393974 #
straight-curve $-1 -77.802667317728208 -10.497295668241843 0 0 0 -1 I I #
coedge $-1 $282 $281 $360 $409 forward $283 $-1 #
point $-1 -77.802667317728208 -10.497295668241843 19.927951587393974 #
vertex $-1 $287 $416 #
straight-curve $-1 -85.215595280146331 -6.4362920997227668 19.927951587393974 -1 0 0 I I #
coedge $-1 $301 $300 $293 $377 forward $290 $-1 #
edge $-1 $378 44.304843190689326 $381 54.96780610752073 $376 $417 forward 7 unknown #
vertex $-1 $305 $418 #
straight-curve $-1 -62.97681139289196 -73.156688804335417 19.927951587393977 0 -1 0 I I #
edge $-1 $381 -36.878536453102868 $302 -15.318013426475318 $301 $419 forward 7 unknown #
vertex $-1 $380 $420 #
straight-curve $-1 -62.97681139289196 -46.292195274510732 9.264988670562559 0 0.76604443648966558 0.64278761758704617 I I #
point $-1 -62.97681139289196 -33.584571176838729 19.927951587393974 #
point $-1 -41.416288366264411 -46.292195274510718 9.2649886705625715 #
straight-curve $-1 0 -46.292195274510718 19.927951587393974 1 0 0 I I #
vertex $-1 $308 $421 #
point $-1 -54.816661956712657 -36.939191560961802 11.022172762541548 #
vertex $-1 $312 $422 #
point $-1 -45.576437802443706 -36.939191560961802 11.022172762541548 #
coedge $-1 $394 $321 $318 $391 reversed $316 $-1 #
edge $-1 $399 -19.927951587393974 $392 -9.1539162626128245 $390 $423 forward 7 unknown #
vertex $-1 $322 $424 #
straight-curve $-1 30.245524574379147 46.292195274510718 9.1539162626128174 -1 0 0 I I #
coedge $-1 $321 $390 $323 $396 reversed $316 $-1 #
straight-curve $-1 77.802667317728208 7.2292780131095391 52.53768211861702 0 0.66913059716165679 -0.74314483375859142 I I #
edge $-1 $324 36.591210536112463 $399 46.292195274510718 $394 $425 forward 7 unknown #
point $-1 77.802667317728208 36.591210536112463 19.927951587393977 #
point $-1 43.179430979788378 46.292195274510718 9.1539162626128245 #
vertex $-1 $396 $426 #
straight-curve $-1 0 46.292195274510718 19.927951587393974 -1 0 0 I I #
vertex $-1 $333 $427 #
point $-1 56.07178421919977 36.334422061665087 9.9423177124716489 #
vertex $-1 $337 $428 #
point $-1 70.910314078316844 36.334422061665087 9.9423177124716489 #
point $-1 77.802667317728208 46.292195274510718 -19.927951587393974 #
point $-1 77.802667317728208 -46.292195274510718 -19.927951587393974 #
straight-curve $-1 77.802667317728208 -46.292195274510718 0 0 0 -1 I I #
straight-curve $-1 77.802667317728208 46.292195274510718 0 0 0 -1 I I #
edge $-1 $374 -2.0305017842595383 $363 2.0305017842595383 $360 $429 forward 7 unknown #
straight-curve $-1 -92.628523242564455 -6.4362920997227668 0 0 0 -1 I I #
straight-curve $-1 -85.215595280146331 -10.497295668241843 19.927951587393974 1 0 0 I I #
point $-1 -92.628523242564455 -10.497295668241843 19.927951587393974 #
point $-1 -92.628523242564455 -10.497295668241843 -19.927951587393974 #
straight-curve $-1 -92.628523242564455 -8.4667938839823051 -19.927951587393974 0 1 0 I I #
point $-1 -92.628523242564455 -6.4362920997227668 -19.927951587393974 #
point $-1 -92.628523242564455 -6.4362920997227668 19.927951587393974 #
straight-curve $-1 -62.97681139289196 -46.292195274510718 64.232794778083303 0 0 -1 I I #
point $-1 -62.97681139289196 -46.292195274510718 19.927951587393974 #
straight-curve $-1 -26.098274939789093 -46.292195274510718 9.2649886705625697 1 0 0 I I #
point $-1 -62.97681139289196 -46.292195274510718 9.2649886705625715 #
point $-1 -56.816661956712657 -35.653616325787709 9.4900838895622179 #
point $-1 -47.576437802443706 -35.653616325787709 9.4900838895622179 #
straight-curve $-1 77.802667317728208 46.292195274510718 0 0 0 -1 I I #
point $-1 77.802667317728208 46.292195274510718 9.1539162626128245 #
straight-curve $-1 77.802667317728208 0 19.927951587393974 0 1 0 I I #
point $-1 77.802667317728208 46.292195274510718 19.927951587393974 #
point $-1 53.07178421919977 34.104987560389311 7.9349259209866787 #
point $-1 67.910314078316844 34.104987560389311 7.9349259209866787 #
straight-curve $-1 -92.628523242564455 -8.4667938839823051 19.927951587393974 0 -1 0 I I #
End-of-ACIS-data 