500 0 9 0           
7 Unknown 11 ACIS 5.0 NT 24 Thu Mar 25 21:07:31 1999 
-1 9.9999999999999995e-007 1e-010 
body $-1 $9 $-1 $10 #
body $-1 $11 $-1 $12 #
body $-1 $13 $-1 $14 #
body $-1 $15 $-1 $16 #
body $-1 $17 $-1 $18 #
body $-1 $19 $-1 $20 #
body $-1 $21 $-1 $22 #
body $-1 $23 $-1 $24 #
body $-1 $25 $-1 $26 #
lump $-1 $-1 $27 $0 #
transform $-1 1 0 0 0 1 0 0 0 1 57.678762169255648 33.069661587730188 12.346901849364677 1 rotate no_reflect no_shear #
lump $-1 $-1 $28 $1 #
transform $-1 1 0 0 0 1 0 0 0 1 57.678762169255648 33.069661587730188 12.346901849364677 1 rotate no_reflect no_shear #
lump $-1 $-1 $29 $2 #
transform $-1 1 0 0 0 1 0 0 0 1 57.678762169255648 33.069661587730188 12.346901849364677 1 rotate no_reflect no_shear #
lump $-1 $-1 $30 $3 #
transform $-1 1 0 0 0 1 0 0 0 1 57.678762169255648 33.069661587730188 12.346901849364677 1 rotate no_reflect no_shear #
lump $-1 $-1 $31 $4 #
transform $-1 1 0 0 0 1 0 0 0 1 57.678762169255648 33.069661587730188 12.346901849364677 1 rotate no_reflect no_shear #
lump $-1 $-1 $32 $5 #
transform $-1 1 0 0 0 1 0 0 0 1 57.678762169255648 33.069661587730188 12.346901849364677 1 rotate no_reflect no_shear #
lump $-1 $-1 $33 $6 #
transform $-1 1 0 0 0 1 0 0 0 1 57.678762169255648 33.069661587730188 12.346901849364677 1 rotate no_reflect no_shear #
lump $-1 $-1 $34 $7 #
transform $-1 1 0 0 0 1 0 0 0 1 57.678762169255648 33.069661587730188 12.346901849364677 1 rotate no_reflect no_shear #
lump $-1 $-1 $35 $8 #
transform $-1 1 0 0 0 1 0 0 0 1 57.678762169255648 33.069661587730188 12.346901849364677 1 rotate no_reflect no_shear #
shell $-1 $-1 $-1 $36 $-1 $9 #
shell $-1 $-1 $-1 $37 $-1 $11 #
shell $-1 $-1 $-1 $38 $-1 $13 #
shell $-1 $-1 $-1 $39 $-1 $15 #
shell $-1 $-1 $-1 $40 $-1 $17 #
shell $-1 $-1 $-1 $41 $-1 $19 #
shell $-1 $-1 $-1 $42 $-1 $21 #
shell $-1 $-1 $-1 $43 $-1 $23 #
shell $-1 $-1 $-1 $44 $-1 $25 #
face $-1 $45 $46 $27 $-1 $47 forward single #
face $-1 $48 $49 $28 $-1 $50 reversed single #
face $-1 $51 $52 $29 $-1 $53 reversed single #
face $-1 $54 $55 $30 $-1 $56 reversed single #
face $-1 $57 $58 $31 $-1 $59 forward single #
face $-1 $60 $61 $32 $-1 $62 forward single #
face $-1 $63 $64 $33 $-1 $65 reversed single #
face $-1 $66 $67 $34 $-1 $68 forward single #
face $-1 $69 $70 $35 $-1 $71 forward single #
face $-1 $72 $73 $27 $-1 $74 reversed single #
loop $-1 $-1 $75 $36 #
plane-surface $-1 0 0 12.346901849364677 0 0 1 1 0 0 forward_v I I I I #
face $-1 $76 $77 $28 $-1 $78 reversed single #
loop $-1 $-1 $79 $37 #
plane-surface $-1 0 -26.491333116488086 6.034521431232811 0 0 1 1 0 0 forward_v I I I I #
face $-1 $80 $81 $29 $-1 $82 reversed single #
loop $-1 $-1 $83 $38 #
plane-surface $-1 0 26.491333116488086 6.034521431232811 0 0 1 1 0 0 forward_v I I I I #
face $-1 $84 $85 $30 $-1 $86 reversed single #
loop $-1 $-1 $87 $39 #
plane-surface $-1 49.140666850124916 0.85163072506197324 164.3206153825092 0 -1 0 -0.66913061440640931 0 -0.74314481823134659 forward_v I I I I #
face $-1 $88 $89 $31 $-1 $90 forward single #
loop $-1 $91 $92 $40 #
cone-surface $-1 51.267545001679579 -4.8459052224560004 6.5038874102255262 -0.66913061440640931 0 -0.74314481823134659 0.3715724091156733 0 -0.33456530720320465 1 I I 0 1 0.5 forward I I I I #
face $-1 $93 $94 $32 $-1 $95 forward single #
loop $-1 $96 $97 $41 #
cone-surface $-1 51.267545001679579 -1.4273836539452134 6.5038874102255262 -0.66913061440640931 0 -0.74314481823134659 0.3715724091156733 0 -0.33456530720320465 1 I I 0 1 0.5 forward I I I I #
face $-1 $98 $99 $33 $-1 $100 reversed single #
loop $-1 $-1 $101 $42 #
plane-surface $-1 -134.86801330628603 -7.1249196014631906 87.131364245478807 0 1 0 -0.66913061440640931 0 0.74314481823134659 forward_v I I I I #
face $-1 $102 $103 $34 $-1 $104 forward single #
loop $-1 $105 $106 $43 #
cone-surface $-1 -51.267545001679565 -4.8459052224560004 6.503887410225512 0.66913061440640931 0 -0.74314481823134659 0.3715724091156733 0 0.33456530720320465 1 I I 0 1 0.5 forward I I I I #
face $-1 $107 $108 $35 $-1 $109 forward single #
loop $-1 $110 $111 $44 #
cone-surface $-1 -51.267545001679565 -1.4273836539452134 6.503887410225512 0.66913061440640931 0 -0.74314481823134659 0.3715724091156733 0 0.33456530720320465 1 I I 0 1 0.5 forward I I I I #
face $-1 $112 $113 $27 $-1 $114 reversed single #
loop $-1 $-1 $115 $45 #
plane-surface $-1 0 0 -12.346901849364677 0 0 1 1 0 0 forward_v I I I I #
coedge $-1 $116 $117 $118 $119 forward $46 $-1 #
face $-1 $120 $121 $28 $-1 $122 reversed single #
loop $-1 $-1 $123 $48 #
plane-surface $-1 0 -19.913004645245984 9.1907116402987441 0 -1 0 0 0 -1 forward_v I I I I #
coedge $-1 $124 $125 $126 $127 reversed $49 $-1 #
face $-1 $128 $129 $29 $-1 $130 forward single #
loop $-1 $-1 $131 $51 #
plane-surface $-1 0 19.913004645245984 9.1907116402987441 0 1 0 0 0 1 forward_v I I I I #
coedge $-1 $132 $133 $134 $135 reversed $52 $-1 #
face $-1 $136 $137 $30 $-1 $138 reversed single #
loop $-1 $-1 $139 $54 #
plane-surface $-1 -28.048584286905466 -3.1366444382006087 78.593268926348088 0.66913061440640931 0 0.74314481823134659 0.74314481823134659 0 -0.66913061440640931 forward_v I I I I #
coedge $-1 $140 $141 $142 $143 reversed $55 $-1 #
face $-1 $-1 $144 $31 $-1 $145 forward single #
loop $-1 $146 $147 $57 #
cone-surface $-1 50.76569704087477 -4.8459052224560004 5.9465287965520162 -0.66913061440640931 0 -0.74314481823134659 0.18578620455783665 0 -0.16728265360160233 1 I I -0.70710678118654746 0.70710678118654746 0.25 forward I I I I #
loop $-1 $-1 $148 $40 #
coedge $-1 $92 $92 $149 $150 reversed $58 $-1 #
face $-1 $-1 $151 $32 $-1 $152 forward single #
loop $-1 $153 $154 $60 #
cone-surface $-1 50.76569704087477 -1.4273836539452134 5.9465287965520162 -0.66913061440640931 0 -0.74314481823134659 0.18578620455783665 0 -0.16728265360160233 1 I I -0.70710678118654746 0.70710678118654746 0.25 forward I I I I #
loop $-1 $-1 $155 $41 #
coedge $-1 $97 $97 $156 $157 reversed $61 $-1 #
face $-1 $158 $159 $33 $-1 $160 reversed single #
loop $-1 $-1 $161 $63 #
plane-surface $-1 -57.678762169255648 -3.1366444382006087 1.4040177893176917 -0.66913061440640931 0 0.74314481823134659 0.74314481823134659 0 0.66913061440640931 forward_v I I I I #
coedge $-1 $162 $163 $164 $165 reversed $64 $-1 #
face $-1 $-1 $166 $34 $-1 $167 forward single #
loop $-1 $168 $169 $66 #
cone-surface $-1 -50.765697040874755 -4.8459052224560004 5.9465287965520019 0.66913061440640931 0 -0.74314481823134659 0.18578620455783665 0 0.16728265360160233 1 I I -0.70710678118654746 0.70710678118654746 0.25 forward I I I I #
loop $-1 $-1 $170 $43 #
coedge $-1 $106 $106 $171 $172 reversed $67 $-1 #
face $-1 $-1 $173 $35 $-1 $174 forward single #
loop $-1 $175 $176 $69 #
cone-surface $-1 -50.765697040874755 -1.4273836539452134 5.9465287965520019 0.66913061440640931 0 -0.74314481823134659 0.18578620455783665 0 0.16728265360160233 1 I I -0.70710678118654746 0.70710678118654746 0.25 forward I I I I #
loop $-1 $-1 $177 $44 #
coedge $-1 $111 $111 $178 $179 reversed $70 $-1 #
face $-1 $180 $181 $27 $-1 $182 reversed single #
loop $-1 $-1 $183 $72 #
plane-surface $-1 0 -33.069661587730188 0 0 1 0 0 0 1 forward_v I I I I #
coedge $-1 $184 $185 $186 $187 forward $73 $-1 #
coedge $-1 $188 $75 $189 $190 forward $46 $-1 #
coedge $-1 $75 $188 $191 $192 forward $46 $-1 #
coedge $-1 $193 $194 $75 $119 reversed $195 $-1 #
edge $-1 $196 -33.069661587730188 $197 33.069661587730188 $118 $198 forward 7 unknown #
face $-1 $199 $200 $28 $-1 $201 reversed single #
loop $-1 $-1 $202 $76 #
plane-surface $-1 -57.678762169255648 0 0 1 0 0 0 0 -1 forward_v I I I I #
coedge $-1 $203 $204 $205 $206 reversed $77 $-1 #
coedge $-1 $207 $79 $208 $209 reversed $49 $-1 #
coedge $-1 $79 $207 $203 $210 forward $49 $-1 #
coedge $-1 $205 $211 $79 $127 forward $212 $-1 #
edge $-1 $213 -19.823995029486145 $214 -6.6673380870019407 $126 $215 forward 7 unknown #
face $-1 $216 $217 $29 $-1 $218 reversed single #
loop $-1 $-1 $219 $80 #
plane-surface $-1 0 0 12.346901849364677 0 0 1 1 0 0 forward_v I I I I #
coedge $-1 $220 $221 $222 $223 reversed $81 $-1 #
coedge $-1 $224 $83 $220 $225 forward $52 $-1 #
coedge $-1 $83 $224 $226 $227 reversed $52 $-1 #
coedge $-1 $228 $229 $83 $135 forward $217 $-1 #
edge $-1 $230 6.6673380870019407 $231 19.823995029486145 $134 $232 forward 7 unknown #
face $-1 $233 $234 $30 $-1 $235 forward single #
loop $-1 $-1 $236 $84 #
plane-surface $-1 49.140666850124916 -7.1249196014631906 164.3206153825092 0 1 0 0.66913061440640931 0 0.74314481823134659 forward_v I I I I #
coedge $-1 $237 $238 $239 $240 reversed $85 $-1 #
coedge $-1 $141 $87 $241 $242 reversed $55 $-1 #
coedge $-1 $87 $140 $237 $243 reversed $55 $-1 #
coedge $-1 $239 $244 $87 $143 forward $234 $-1 #
edge $-1 $245 -33.108428744193191 $246 -20.955125023447437 $142 $247 forward 7 unknown #
loop $-1 $-1 $149 $88 #
plane-surface $-1 -28.048584286905466 -3.1366444382006087 78.593268926348088 0.66913061440640931 0 0.74314481823134659 0.74314481823134659 0 -0.66913061440640931 forward_v I I I I #
loop $-1 $-1 $248 $57 #
coedge $-1 $147 $147 $148 $249 reversed $89 $-1 #
coedge $-1 $148 $148 $147 $249 forward $91 $-1 #
coedge $-1 $149 $149 $92 $150 forward $144 $-1 #
edge $-1 $250 0 $250 6.2831853071796004 $149 $251 forward 7 unknown #
loop $-1 $-1 $156 $93 #
plane-surface $-1 -28.048584286905466 -3.1366444382006087 78.593268926348088 0.66913061440640931 0 0.74314481823134659 0.74314481823134659 0 -0.66913061440640931 forward_v I I I I #
loop $-1 $-1 $252 $60 #
coedge $-1 $154 $154 $155 $253 reversed $94 $-1 #
coedge $-1 $155 $155 $154 $253 forward $96 $-1 #
coedge $-1 $156 $156 $97 $157 forward $151 $-1 #
edge $-1 $254 0 $254 6.2831853071796004 $156 $255 forward 7 unknown #
face $-1 $256 $257 $33 $-1 $258 reversed single #
loop $-1 $-1 $259 $98 #
plane-surface $-1 -134.86801330628603 0.85163072506197324 87.131364245478807 0 -1 0 0.66913061440640931 0 -0.74314481823134659 forward_v I I I I #
coedge $-1 $260 $261 $262 $263 reversed $99 $-1 #
coedge $-1 $163 $101 $264 $265 reversed $64 $-1 #
coedge $-1 $101 $162 $260 $266 reversed $64 $-1 #
coedge $-1 $262 $267 $101 $165 forward $268 $-1 #
edge $-1 $269 9.7552444838873669 $270 21.908548204633135 $164 $271 forward 7 unknown #
loop $-1 $-1 $171 $102 #
plane-surface $-1 -57.678762169255648 -3.1366444382006087 1.4040177893176917 -0.66913061440640931 0 0.74314481823134659 0.74314481823134659 0 0.66913061440640931 forward_v I I I I #
loop $-1 $-1 $272 $66 #
coedge $-1 $169 $169 $170 $273 reversed $103 $-1 #
coedge $-1 $170 $170 $169 $273 forward $105 $-1 #
coedge $-1 $171 $171 $106 $172 forward $166 $-1 #
edge $-1 $274 0 $274 6.2831853071796004 $171 $275 forward 7 unknown #
loop $-1 $-1 $178 $107 #
plane-surface $-1 -57.678762169255648 -3.1366444382006087 1.4040177893176917 -0.66913061440640931 0 0.74314481823134659 0.74314481823134659 0 0.66913061440640931 forward_v I I I I #
loop $-1 $-1 $276 $69 #
coedge $-1 $176 $176 $177 $277 reversed $108 $-1 #
coedge $-1 $177 $177 $176 $277 forward $110 $-1 #
coedge $-1 $178 $178 $111 $179 forward $173 $-1 #
edge $-1 $278 0 $278 6.2831853071796004 $178 $279 forward 7 unknown #
face $-1 $280 $281 $27 $-1 $282 reversed single #
loop $-1 $-1 $283 $112 #
plane-surface $-1 -57.678762169255648 0 0 1 0 0 0 0 -1 forward_v I I I I #
coedge $-1 $284 $191 $285 $286 forward $113 $-1 #
coedge $-1 $287 $115 $284 $288 forward $73 $-1 #
coedge $-1 $115 $287 $289 $290 forward $73 $-1 #
coedge $-1 $194 $193 $115 $187 reversed $195 $-1 #
edge $-1 $291 -33.069661587730188 $292 33.069661587730188 $186 $293 forward 7 unknown #
coedge $-1 $117 $116 $294 $295 forward $46 $-1 #
coedge $-1 $296 $297 $116 $190 reversed $281 $-1 #
edge $-1 $197 -57.678762169255648 $298 57.678762169255648 $189 $299 forward 7 unknown #
coedge $-1 $183 $300 $117 $192 reversed $113 $-1 #
edge $-1 $301 -57.678762169255648 $196 57.678762169255648 $191 $302 forward 7 unknown #
coedge $-1 $186 $118 $300 $303 forward $195 $-1 #
coedge $-1 $118 $186 $296 $304 reversed $195 $-1 #
loop $-1 $-1 $193 $280 #
vertex $-1 $119 $305 #
vertex $-1 $119 $306 #
straight-curve $-1 57.678762169255648 0 12.346901849364677 0 1 0 I I #
face $-1 $307 $308 $28 $-1 $309 forward single #
loop $-1 $-1 $208 $120 #
plane-surface $-1 0 -33.069661587730188 0 0 1 0 0 0 1 forward_v I I I I #
coedge $-1 $310 $311 $312 $313 forward $121 $-1 #
coedge $-1 $312 $123 $125 $210 reversed $77 $-1 #
coedge $-1 $123 $312 $314 $315 reversed $77 $-1 #
coedge $-1 $316 $126 $123 $206 forward $212 $-1 #
edge $-1 $214 1.439165611083439 $317 7.7515460292153051 $205 $318 forward 7 unknown #
coedge $-1 $125 $124 $310 $319 reversed $49 $-1 #
coedge $-1 $320 $321 $124 $209 forward $200 $-1 #
edge $-1 $322 -57.678762169255648 $213 57.678762169255648 $208 $323 forward 7 unknown #
edge $-1 $324 -57.678762169255648 $214 57.678762169255648 $203 $325 forward 7 unknown #
coedge $-1 $126 $316 $320 $326 forward $212 $-1 #
loop $-1 $-1 $205 $307 #
vertex $-1 $209 $327 #
vertex $-1 $127 $328 #
straight-curve $-1 57.678762169255648 -13.245666558244043 6.034521431232811 0 1 0 I I #
face $-1 $329 $330 $29 $-1 $331 reversed single #
loop $-1 $-1 $229 $128 #
plane-surface $-1 57.678762169255648 0 0 -1 0 0 0 0 1 forward_v I I I I #
coedge $-1 $332 $333 $221 $334 forward $129 $-1 #
coedge $-1 $335 $131 $132 $225 reversed $81 $-1 #
coedge $-1 $131 $335 $219 $334 reversed $81 $-1 #
coedge $-1 $336 $337 $131 $223 forward $330 $-1 #
edge $-1 $338 1.439165611083439 $339 7.7515460292153051 $222 $340 forward 7 unknown #
coedge $-1 $133 $132 $337 $341 reversed $52 $-1 #
edge $-1 $230 -57.678762169255648 $338 57.678762169255648 $220 $342 forward 7 unknown #
coedge $-1 $343 $344 $133 $227 forward $345 $-1 #
edge $-1 $231 -57.678762169255648 $346 57.678762169255648 $226 $347 forward 7 unknown #
coedge $-1 $348 $134 $344 $349 reversed $217 $-1 #
coedge $-1 $134 $348 $335 $350 forward $217 $-1 #
vertex $-1 $135 $351 #
vertex $-1 $227 $352 #
straight-curve $-1 57.678762169255648 13.245666558244043 6.034521431232811 0 1 0 I I #
face $-1 $-1 $353 $30 $-1 $354 reversed single #
loop $-1 $-1 $142 $136 #
plane-surface $-1 0 0 12.346901849364677 0 0 1 1 0 0 forward_v I I I I #
coedge $-1 $355 $356 $357 $358 reversed $137 $-1 #
coedge $-1 $359 $139 $141 $243 forward $85 $-1 #
coedge $-1 $139 $359 $355 $360 forward $85 $-1 #
coedge $-1 $357 $142 $139 $240 forward $234 $-1 #
edge $-1 $246 -2.4199529441622776 $361 5.5565973823628863 $239 $362 forward 7 unknown #
coedge $-1 $363 $364 $140 $242 forward $353 $-1 #
edge $-1 $365 -80.756289901936896 $245 -69.813405841889931 $241 $366 forward 7 unknown #
edge $-1 $246 99.003640919570003 $365 115.3575243385113 $141 $367 forward 7 unknown #
coedge $-1 $142 $357 $363 $368 forward $234 $-1 #
vertex $-1 $242 $369 #
vertex $-1 $143 $370 #
straight-curve $-1 24.570333425062458 0.85163072506197324 12.346901849364684 -1 0 0 I I #
coedge $-1 $248 $248 $-1 $371 reversed $146 $-1 #
edge $-1 $372 0 $372 6.2831853071796004 $147 $373 forward 7 unknown #
vertex $-1 $150 $374 #
ellipse-curve $-1 51.602110308882772 -4.8459052224560004 6.8754598193411889 0.66913061440640931 0 0.74314481823134659 0.3715724091156733 0 -0.33456530720320465 1 I I #
coedge $-1 $252 $252 $-1 $375 reversed $153 $-1 #
edge $-1 $376 0 $376 6.2831853071796004 $154 $377 forward 7 unknown #
vertex $-1 $157 $378 #
ellipse-curve $-1 51.602110308882772 -1.4273836539452134 6.8754598193411889 0.66913061440640931 0 0.74314481823134659 0.3715724091156733 0 -0.33456530720320465 1 I I #
face $-1 $-1 $268 $33 $-1 $379 forward single #
loop $-1 $-1 $380 $158 #
plane-surface $-1 -57.678762169255648 0 0 1 0 0 0 0 -1 forward_v I I I I #
coedge $-1 $381 $382 $383 $384 reversed $159 $-1 #
coedge $-1 $385 $161 $163 $266 forward $99 $-1 #
coedge $-1 $161 $385 $381 $386 forward $99 $-1 #
coedge $-1 $383 $164 $161 $263 forward $268 $-1 #
edge $-1 $270 -5.5565973823628863 $387 2.4199529441622776 $262 $388 forward 7 unknown #
coedge $-1 $389 $390 $162 $265 forward $257 $-1 #
edge $-1 $391 -42.161664333421712 $269 -31.218780273374726 $264 $392 forward 7 unknown #
edge $-1 $270 -16.353883418941304 $391 0 $163 $393 forward 7 unknown #
coedge $-1 $164 $383 $389 $394 forward $268 $-1 #
loop $-1 $-1 $383 $256 #
vertex $-1 $265 $395 #
vertex $-1 $165 $396 #
straight-curve $-1 -67.434006653143015 -7.1249196014631906 12.346901849364677 1 0 0 I I #
coedge $-1 $272 $272 $-1 $397 reversed $168 $-1 #
edge $-1 $398 0 $398 6.2831853071796004 $169 $399 forward 7 unknown #
vertex $-1 $172 $400 #
ellipse-curve $-1 -51.602110308882764 -4.8459052224560004 6.8754598193411818 -0.66913061440640931 0 0.74314481823134659 0.3715724091156733 0 0.33456530720320465 1 I I #
coedge $-1 $276 $276 $-1 $401 reversed $175 $-1 #
edge $-1 $402 0 $402 6.2831853071796004 $176 $403 forward 7 unknown #
vertex $-1 $179 $404 #
ellipse-curve $-1 -51.602110308882764 -1.4273836539452134 6.8754598193411818 -0.66913061440640931 0 0.74314481823134659 0.3715724091156733 0 0.33456530720320465 1 I I #
face $-1 $-1 $195 $27 $-1 $405 reversed single #
loop $-1 $-1 $296 $180 #
plane-surface $-1 0 33.069661587730188 0 0 -1 0 0 0 -1 forward_v I I I I #
coedge $-1 $406 $294 $297 $407 forward $181 $-1 #
coedge $-1 $300 $183 $184 $288 reversed $113 $-1 #
coedge $-1 $294 $406 $183 $286 reversed $181 $-1 #
edge $-1 $301 -12.346901849364677 $408 12.346901849364677 $285 $409 forward 7 unknown #
coedge $-1 $185 $184 $406 $410 forward $73 $-1 #
edge $-1 $292 -57.678762169255648 $408 57.678762169255648 $284 $411 forward 7 unknown #
coedge $-1 $297 $296 $185 $290 reversed $281 $-1 #
edge $-1 $412 -57.678762169255648 $291 57.678762169255648 $289 $413 forward 7 unknown #
vertex $-1 $187 $414 #
vertex $-1 $303 $415 #
straight-curve $-1 57.678762169255648 0 -12.346901849364677 0 -1 0 I I #
coedge $-1 $283 $285 $188 $295 reversed $181 $-1 #
edge $-1 $298 -33.069661587730188 $301 33.069661587730188 $294 $416 forward 7 unknown #
coedge $-1 $289 $189 $194 $304 forward $281 $-1 #
coedge $-1 $189 $289 $283 $407 reversed $281 $-1 #
vertex $-1 $190 $417 #
straight-curve $-1 0 33.069661587730188 12.346901849364677 -1 0 0 I I #
coedge $-1 $191 $284 $193 $303 reversed $113 $-1 #
vertex $-1 $295 $418 #
straight-curve $-1 0 -33.069661587730188 12.346901849364677 1 0 0 I I #
edge $-1 $196 -12.346901849364677 $292 12.346901849364677 $193 $419 forward 7 unknown #
edge $-1 $197 -12.346901849364677 $291 12.346901849364677 $194 $420 forward 7 unknown #
point $-1 57.678762169255648 -33.069661587730188 12.346901849364677 #
point $-1 57.678762169255648 33.069661587730188 12.346901849364677 #
face $-1 $-1 $212 $28 $-1 $421 reversed single #
loop $-1 $-1 $314 $199 #
plane-surface $-1 0 0 12.346901849364677 0 0 1 1 0 0 forward_v I I I I #
coedge $-1 $422 $202 $207 $319 forward $121 $-1 #
coedge $-1 $202 $422 $423 $424 reversed $121 $-1 #
coedge $-1 $204 $203 $202 $313 reversed $77 $-1 #
edge $-1 $425 -7.7515460292153051 $324 -1.439165611083439 $202 $426 forward 7 unknown #
coedge $-1 $423 $427 $204 $315 forward $308 $-1 #
edge $-1 $317 -57.678762169255648 $425 57.678762169255648 $314 $428 forward 7 unknown #
coedge $-1 $211 $205 $427 $429 reversed $212 $-1 #
vertex $-1 $206 $430 #
straight-curve $-1 57.678762169255648 -19.913004645245984 4.5953558201493721 0 0 1 I I #
edge $-1 $324 6.6673380870019407 $322 19.823995029486145 $310 $431 forward 7 unknown #
coedge $-1 $432 $208 $211 $326 reversed $200 $-1 #
coedge $-1 $208 $432 $422 $433 forward $200 $-1 #
vertex $-1 $209 $434 #
straight-curve $-1 0 -33.069661587730188 6.034521431232811 1 0 0 I I #
vertex $-1 $319 $435 #
straight-curve $-1 0 -19.913004645245984 6.034521431232811 1 0 0 I I #
edge $-1 $436 -12.346901849364677 $213 -6.034521431232811 $211 $437 forward 7 unknown #
point $-1 57.678762169255648 -33.069661587730188 6.034521431232811 #
point $-1 57.678762169255648 -19.913004645245984 6.034521431232811 #
face $-1 $-1 $345 $29 $-1 $438 reversed single #
loop $-1 $-1 $222 $216 #
plane-surface $-1 -57.678762169255648 0 0 1 0 0 0 0 -1 forward_v I I I I #
coedge $-1 $439 $219 $348 $440 forward $129 $-1 #
coedge $-1 $219 $439 $336 $441 forward $129 $-1 #
edge $-1 $339 -57.678762169255648 $442 57.678762169255648 $219 $443 forward 7 unknown #
coedge $-1 $221 $220 $229 $350 reversed $81 $-1 #
coedge $-1 $444 $222 $333 $441 reversed $330 $-1 #
coedge $-1 $222 $444 $224 $341 forward $330 $-1 #
vertex $-1 $341 $445 #
vertex $-1 $223 $446 #
straight-curve $-1 -57.678762169255648 19.913004645245984 4.5953558201493721 0 0 1 I I #
edge $-1 $346 -19.823995029486145 $338 -6.6673380870019407 $337 $447 forward 7 unknown #
straight-curve $-1 0 19.913004645245984 6.034521431232811 -1 0 0 I I #
coedge $-1 $448 $226 $444 $449 reversed $345 $-1 #
coedge $-1 $226 $448 $228 $349 forward $345 $-1 #
loop $-1 $-1 $226 $329 #
vertex $-1 $227 $450 #
straight-curve $-1 0 33.069661587730188 6.034521431232811 -1 0 0 I I #
coedge $-1 $229 $228 $332 $440 reversed $217 $-1 #
edge $-1 $451 -12.346901849364677 $231 -6.034521431232811 $228 $452 forward 7 unknown #
edge $-1 $442 -7.7515460292153051 $230 -1.439165611083439 $229 $453 forward 7 unknown #
point $-1 57.678762169255648 19.913004645245984 6.034521431232811 #
point $-1 57.678762169255648 33.069661587730188 6.034521431232811 #
loop $-1 $-1 $241 $233 #
plane-surface $-1 57.678762169255648 0 0 -1 0 0 0 0 1 forward_v I I I I #
coedge $-1 $356 $236 $238 $360 reversed $137 $-1 #
coedge $-1 $236 $355 $454 $455 reversed $137 $-1 #
coedge $-1 $244 $239 $236 $358 forward $234 $-1 #
edge $-1 $361 20.955125023447437 $456 33.108428744193191 $357 $457 forward 7 unknown #
coedge $-1 $238 $237 $364 $458 reversed $85 $-1 #
edge $-1 $459 -115.3575243385113 $361 -99.003640919570003 $355 $460 forward 7 unknown #
vertex $-1 $240 $461 #
straight-curve $-1 45.525458448509909 -1.5683222191003043 12.34690184936467 0 -1 0 I I #
coedge $-1 $454 $241 $244 $368 reversed $353 $-1 #
coedge $-1 $241 $454 $359 $458 forward $353 $-1 #
vertex $-1 $242 $462 #
straight-curve $-1 57.678762169255648 0.85163072506197324 82.160307691254602 0 0 1 I I #
straight-curve $-1 -28.048584286905466 0.85163072506197324 78.593268926348088 0.74314481823134659 0 -0.66913061440640931 I I #
edge $-1 $456 -7.1249196014631906 $245 0.85163072506197324 $363 $463 forward 7 unknown #
point $-1 57.678762169255648 0.85163072506197324 12.346901849364677 #
point $-1 45.525458448509895 0.85163072506197324 12.346901849364684 #
edge $-1 $464 1 $464 0 $248 $-1 forward 7 unknown #
vertex $-1 $249 $465 #
ellipse-curve $-1 50.932979694476373 -4.8459052224560004 6.1323150011098528 0.66913061440640931 0 0.74314481823134659 0.3715724091156733 0 -0.33456530720320465 1 I I #
point $-1 51.973682717998457 -4.8459052224560004 6.5408945121379949 #
edge $-1 $466 1 $466 0 $252 $-1 forward 7 unknown #
vertex $-1 $253 $467 #
ellipse-curve $-1 50.932979694476373 -1.4273836539452134 6.1323150011098528 0.66913061440640931 0 0.74314481823134659 0.3715724091156733 0 -0.33456530720320465 1 I I #
point $-1 51.973682717998457 -1.4273836539452134 6.5408945121379949 #
plane-surface $-1 0 0 12.346901849364677 0 0 1 1 0 0 forward_v I I I I #
coedge $-1 $390 $389 $382 $468 forward $257 $-1 #
coedge $-1 $382 $259 $261 $386 reversed $159 $-1 #
coedge $-1 $259 $381 $380 $468 reversed $159 $-1 #
coedge $-1 $267 $262 $259 $384 forward $268 $-1 #
edge $-1 $387 -21.908548204633135 $469 -9.7552444838873669 $383 $470 forward 7 unknown #
coedge $-1 $261 $260 $390 $471 reversed $99 $-1 #
edge $-1 $472 0 $387 16.353883418941304 $381 $473 forward 7 unknown #
vertex $-1 $263 $474 #
straight-curve $-1 -45.52545844850988 -1.5683222191003043 12.346901849364677 0 1 0 I I #
coedge $-1 $380 $264 $267 $394 reversed $257 $-1 #
coedge $-1 $264 $380 $385 $471 forward $257 $-1 #
vertex $-1 $265 $475 #
straight-curve $-1 -57.678762169255648 -7.1249196014631906 43.565682122739403 0 0 1 I I #
straight-curve $-1 -57.678762169255648 -7.1249196014631906 1.4040177893176917 -0.74314481823134659 0 -0.66913061440640931 I I #
edge $-1 $469 -0.85163072506197324 $269 7.1249196014631906 $389 $476 forward 7 unknown #
point $-1 -57.678762169255648 -7.1249196014631906 12.346901849364677 #
point $-1 -45.52545844850988 -7.1249196014631906 12.346901849364677 #
edge $-1 $477 1 $477 0 $272 $-1 forward 7 unknown #
vertex $-1 $273 $478 #
ellipse-curve $-1 -50.932979694476359 -4.8459052224560004 6.1323150011098386 -0.66913061440640931 0 0.74314481823134659 0.3715724091156733 0 0.33456530720320465 1 I I #
point $-1 -51.230537899767093 -4.8459052224560004 7.21002512654439 #
edge $-1 $479 1 $479 0 $276 $-1 forward 7 unknown #
vertex $-1 $277 $480 #
ellipse-curve $-1 -50.932979694476359 -1.4273836539452134 6.1323150011098386 -0.66913061440640931 0 0.74314481823134659 0.3715724091156733 0 0.33456530720320465 1 I I #
point $-1 -51.230537899767093 -1.4273836539452134 7.21002512654439 #
plane-surface $-1 57.678762169255648 0 0 -1 0 0 0 0 1 forward_v I I I I #
coedge $-1 $285 $283 $287 $410 reversed $181 $-1 #
edge $-1 $298 -12.346901849364677 $412 12.346901849364677 $297 $481 forward 7 unknown #
vertex $-1 $410 $482 #
straight-curve $-1 -57.678762169255648 -33.069661587730188 0 0 0 -1 I I #
edge $-1 $408 -33.069661587730188 $412 33.069661587730188 $406 $483 forward 7 unknown #
straight-curve $-1 0 -33.069661587730188 -12.346901849364677 -1 0 0 I I #
vertex $-1 $290 $484 #
straight-curve $-1 0 33.069661587730188 -12.346901849364677 1 0 0 I I #
point $-1 57.678762169255648 33.069661587730188 -12.346901849364677 #
point $-1 57.678762169255648 -33.069661587730188 -12.346901849364677 #
straight-curve $-1 -57.678762169255648 0 12.346901849364677 0 -1 0 I I #
point $-1 -57.678762169255648 33.069661587730188 12.346901849364677 #
point $-1 -57.678762169255648 -33.069661587730188 12.346901849364677 #
straight-curve $-1 57.678762169255648 -33.069661587730188 0 0 0 -1 I I #
straight-curve $-1 57.678762169255648 33.069661587730188 0 0 0 -1 I I #
plane-surface $-1 57.678762169255648 0 0 -1 0 0 0 0 1 forward_v I I I I #
coedge $-1 $311 $310 $321 $433 reversed $121 $-1 #
coedge $-1 $485 $314 $311 $424 forward $308 $-1 #
edge $-1 $425 19.913004645245984 $486 33.069661587730188 $311 $487 forward 7 unknown #
vertex $-1 $424 $488 #
straight-curve $-1 -57.678762169255648 -19.913004645245984 4.5953558201493721 0 0 -1 I I #
coedge $-1 $314 $485 $316 $429 forward $308 $-1 #
straight-curve $-1 0 -19.913004645245984 12.346901849364677 -1 0 0 I I #
edge $-1 $436 -33.069661587730188 $317 -19.913004645245984 $316 $489 forward 7 unknown #
point $-1 57.678762169255648 -19.913004645245984 12.346901849364677 #
straight-curve $-1 -57.678762169255648 -13.245666558244043 6.034521431232811 0 -1 0 I I #
coedge $-1 $321 $320 $485 $490 reversed $200 $-1 #
edge $-1 $486 -12.346901849364677 $322 -6.034521431232811 $422 $491 forward 7 unknown #
point $-1 -57.678762169255648 -33.069661587730188 6.034521431232811 #
point $-1 -57.678762169255648 -19.913004645245984 6.034521431232811 #
vertex $-1 $429 $492 #
straight-curve $-1 57.678762169255648 -33.069661587730188 0 0 0 -1 I I #
plane-surface $-1 0 33.069661587730188 0 0 -1 0 0 0 -1 forward_v I I I I #
coedge $-1 $333 $332 $448 $493 forward $129 $-1 #
edge $-1 $442 19.913004645245984 $451 33.069661587730188 $348 $494 forward 7 unknown #
edge $-1 $495 -33.069661587730188 $339 -19.913004645245984 $336 $496 forward 7 unknown #
vertex $-1 $440 $497 #
straight-curve $-1 0 19.913004645245984 12.346901849364677 1 0 0 I I #
coedge $-1 $337 $336 $343 $449 forward $330 $-1 #
point $-1 -57.678762169255648 19.913004645245984 6.034521431232811 #
point $-1 -57.678762169255648 19.913004645245984 12.346901849364677 #
straight-curve $-1 -57.678762169255648 13.245666558244043 6.034521431232811 0 -1 0 I I #
coedge $-1 $344 $343 $439 $493 reversed $345 $-1 #
edge $-1 $495 -12.346901849364677 $346 -6.034521431232811 $343 $498 forward 7 unknown #
point $-1 -57.678762169255648 33.069661587730188 6.034521431232811 #
vertex $-1 $440 $499 #
straight-curve $-1 57.678762169255648 33.069661587730188 0 0 0 -1 I I #
straight-curve $-1 57.678762169255648 19.913004645245984 4.5953558201493721 0 0 -1 I I #
coedge $-1 $364 $363 $356 $455 forward $353 $-1 #
edge $-1 $456 69.813405841889931 $459 80.756289901936896 $454 $500 forward 7 unknown #
vertex $-1 $368 $501 #
straight-curve $-1 24.570333425062458 -7.1249196014631906 12.346901849364684 1 0 0 I I #
edge $-1 $459 -5.5565973823628863 $365 2.4199529441622776 $364 $502 forward 7 unknown #
vertex $-1 $458 $503 #
straight-curve $-1 -28.048584286905466 -7.1249196014631906 78.593268926348088 -0.74314481823134659 0 0.66913061440640931 I I #
point $-1 45.525458448509895 -7.1249196014631906 12.346901849364684 #
point $-1 57.678762169255648 0.85163072506197324 1.4040177893177059 #
straight-curve $-1 57.678762169255648 0 12.346901849364677 0 1 0 I I #
vertex $-1 $371 $504 #
point $-1 51.304552103592044 -4.8459052224560004 5.7977496939066482 #
vertex $-1 $375 $505 #
point $-1 51.304552103592044 -1.4273836539452134 5.7977496939066482 #
edge $-1 $469 31.218780273374726 $472 42.161664333421712 $380 $506 forward 7 unknown #
vertex $-1 $394 $507 #
straight-curve $-1 -67.434006653143015 0.85163072506197324 12.346901849364677 -1 0 0 I I #
edge $-1 $472 -2.4199529441622776 $391 5.5565973823628863 $390 $508 forward 7 unknown #
vertex $-1 $471 $509 #
straight-curve $-1 -57.678762169255648 0.85163072506197324 1.4040177893176917 0.74314481823134659 0 0.66913061440640931 I I #
point $-1 -45.52545844850988 0.85163072506197324 12.346901849364677 #
point $-1 -57.678762169255648 -7.1249196014631906 1.4040177893176917 #
straight-curve $-1 -57.678762169255648 0 12.346901849364677 0 -1 0 I I #
vertex $-1 $397 $510 #
point $-1 -50.561407285360687 -4.8459052224560004 6.4668803083130433 #
vertex $-1 $401 $511 #
point $-1 -50.561407285360687 -1.4273836539452134 6.4668803083130433 #
straight-curve $-1 -57.678762169255648 33.069661587730188 0 0 0 -1 I I #
point $-1 -57.678762169255648 -33.069661587730188 -12.346901849364677 #
straight-curve $-1 -57.678762169255648 0 -12.346901849364677 0 1 0 I I #
point $-1 -57.678762169255648 33.069661587730188 -12.346901849364677 #
coedge $-1 $427 $423 $432 $490 forward $308 $-1 #
vertex $-1 $424 $512 #
straight-curve $-1 -57.678762169255648 0 12.346901849364677 0 -1 0 I I #
point $-1 -57.678762169255648 -19.913004645245984 12.346901849364677 #
straight-curve $-1 57.678762169255648 0 12.346901849364677 0 1 0 I I #
edge $-1 $486 -57.678762169255648 $436 57.678762169255648 $432 $513 forward 7 unknown #
straight-curve $-1 -57.678762169255648 -33.069661587730188 0 0 0 -1 I I #
point $-1 57.678762169255648 -33.069661587730188 12.346901849364677 #
edge $-1 $451 -57.678762169255648 $495 57.678762169255648 $448 $514 forward 7 unknown #
straight-curve $-1 57.678762169255648 0 12.346901849364677 0 1 0 I I #
vertex $-1 $493 $515 #
straight-curve $-1 -57.678762169255648 0 12.346901849364677 0 -1 0 I I #
point $-1 57.678762169255648 19.913004645245984 12.346901849364677 #
straight-curve $-1 -57.678762169255648 33.069661587730188 0 0 0 -1 I I #
point $-1 57.678762169255648 33.069661587730188 12.346901849364677 #
straight-curve $-1 57.678762169255648 -7.1249196014631906 82.160307691254602 0 0 -1 I I #
point $-1 57.678762169255648 -7.1249196014631906 12.346901849364677 #
straight-curve $-1 57.678762169255641 -1.5683222191003043 1.404017789317713 0 1 0 I I #
point $-1 57.678762169255648 -7.1249196014631906 1.4040177893177059 #
point $-1 50.598414387273166 -4.8459052224560004 5.7607425919941795 #
point $-1 50.598414387273166 -1.4273836539452134 5.7607425919941795 #
straight-curve $-1 -57.678762169255648 0.85163072506197324 43.565682122739403 0 0 -1 I I #
point $-1 -57.678762169255648 0.85163072506197324 12.346901849364677 #
straight-curve $-1 -57.678762169255648 -1.5683222191003043 1.4040177893176935 0 -1 0 I I #
point $-1 -57.678762169255648 0.85163072506197324 1.4040177893176917 #
point $-1 -50.598414387273152 -4.8459052224560004 5.7607425919941653 #
point $-1 -50.598414387273152 -1.4273836539452134 5.7607425919941653 #
point $-1 -57.678762169255648 -33.069661587730188 12.346901849364677 #
straight-curve $-1 0 -33.069661587730188 12.346901849364677 1 0 0 I I #
straight-curve $-1 0 33.069661587730188 12.346901849364677 -1 0 0 I I #
point $-1 -57.678762169255648 33.069661587730188 12.346901849364677 #
End-of-ACIS-data 