500 0 19 0           
7 Unknown 11 ACIS 5.0 NT 24 Thu Mar 25 22:13:40 1999 
-1 9.9999999999999995e-007 1e-010 
body $-1 $19 $-1 $20 #
body $-1 $21 $-1 $22 #
body $-1 $23 $-1 $24 #
body $-1 $25 $-1 $26 #
body $-1 $27 $-1 $28 #
body $-1 $29 $-1 $30 #
body $-1 $31 $-1 $32 #
body $-1 $33 $-1 $34 #
body $-1 $35 $-1 $36 #
body $-1 $37 $-1 $38 #
body $-1 $39 $-1 $40 #
body $-1 $41 $-1 $42 #
body $-1 $43 $-1 $44 #
body $-1 $45 $-1 $46 #
body $-1 $47 $-1 $48 #
body $-1 $49 $-1 $50 #
body $-1 $51 $-1 $52 #
body $-1 $53 $-1 $54 #
body $-1 $55 $-1 $56 #
lump $-1 $-1 $57 $0 #
transform $-1 1 0 0 0 1 0 0 0 1 46.29047517319254 28.309280768702902 11.422030620157889 1 rotate no_reflect no_shear #
lump $-1 $-1 $58 $1 #
transform $-1 1 0 0 0 1 0 0 0 1 46.29047517319254 28.309280768702902 11.422030620157889 1 rotate no_reflect no_shear #
lump $-1 $-1 $59 $2 #
transform $-1 1 0 0 0 1 0 0 0 1 46.29047517319254 28.309280768702902 11.422030620157889 1 rotate no_reflect no_shear #
lump $-1 $-1 $60 $3 #
transform $-1 1 0 0 0 1 0 0 0 1 46.29047517319254 28.309280768702902 11.422030620157889 1 rotate no_reflect no_shear #
lump $-1 $-1 $61 $4 #
transform $-1 1 0 0 0 1 0 0 0 1 46.29047517319254 28.309280768702902 11.422030620157889 1 rotate no_reflect no_shear #
lump $-1 $-1 $62 $5 #
transform $-1 1 0 0 0 1 0 0 0 1 46.29047517319254 28.309280768702902 11.422030620157889 1 rotate no_reflect no_shear #
lump $-1 $-1 $63 $6 #
transform $-1 1 0 0 0 1 0 0 0 1 46.29047517319254 28.309280768702902 11.422030620157889 1 rotate no_reflect no_shear #
lump $-1 $-1 $64 $7 #
transform $-1 1 0 0 0 1 0 0 0 1 46.29047517319254 28.309280768702902 11.422030620157889 1 rotate no_reflect no_shear #
lump $-1 $-1 $65 $8 #
transform $-1 1 0 0 0 1 0 0 0 1 46.29047517319254 28.309280768702902 11.422030620157889 1 rotate no_reflect no_shear #
lump $-1 $-1 $66 $9 #
transform $-1 1 0 0 0 1 0 0 0 1 46.29047517319254 28.309280768702902 11.422030620157889 1 rotate no_reflect no_shear #
lump $-1 $-1 $67 $10 #
transform $-1 1 0 0 0 1 0 0 0 1 46.29047517319254 28.309280768702902 11.422030620157889 1 rotate no_reflect no_shear #
lump $-1 $-1 $68 $11 #
transform $-1 1 0 0 0 1 0 0 0 1 46.29047517319254 28.309280768702902 11.422030620157889 1 rotate no_reflect no_shear #
lump $-1 $-1 $69 $12 #
transform $-1 1 0 0 0 1 0 0 0 1 46.29047517319254 28.309280768702902 11.422030620157889 1 rotate no_reflect no_shear #
lump $-1 $-1 $70 $13 #
transform $-1 1 0 0 0 1 0 0 0 1 46.29047517319254 28.309280768702902 11.422030620157889 1 rotate no_reflect no_shear #
lump $-1 $-1 $71 $14 #
transform $-1 1 0 0 0 1 0 0 0 1 46.29047517319254 28.309280768702902 11.422030620157889 1 rotate no_reflect no_shear #
lump $-1 $-1 $72 $15 #
transform $-1 1 0 0 0 1 0 0 0 1 46.29047517319254 28.309280768702902 11.422030620157889 1 rotate no_reflect no_shear #
lump $-1 $-1 $73 $16 #
transform $-1 1 0 0 0 1 0 0 0 1 46.29047517319254 28.309280768702902 11.422030620157889 1 rotate no_reflect no_shear #
lump $-1 $-1 $74 $17 #
transform $-1 1 0 0 0 1 0 0 0 1 46.29047517319254 28.309280768702902 11.422030620157889 1 rotate no_reflect no_shear #
lump $-1 $-1 $75 $18 #
transform $-1 1 0 0 0 1 0 0 0 1 46.29047517319254 28.309280768702902 11.422030620157889 1 rotate no_reflect no_shear #
shell $-1 $-1 $-1 $76 $-1 $19 #
shell $-1 $-1 $-1 $77 $-1 $21 #
shell $-1 $-1 $-1 $78 $-1 $23 #
shell $-1 $-1 $-1 $79 $-1 $25 #
shell $-1 $-1 $-1 $80 $-1 $27 #
shell $-1 $-1 $-1 $81 $-1 $29 #
shell $-1 $-1 $-1 $82 $-1 $31 #
shell $-1 $-1 $-1 $83 $-1 $33 #
shell $-1 $-1 $-1 $84 $-1 $35 #
shell $-1 $-1 $-1 $85 $-1 $37 #
shell $-1 $-1 $-1 $86 $-1 $39 #
shell $-1 $-1 $-1 $87 $-1 $41 #
shell $-1 $-1 $-1 $88 $-1 $43 #
shell $-1 $-1 $-1 $89 $-1 $45 #
shell $-1 $-1 $-1 $90 $-1 $47 #
shell $-1 $-1 $-1 $91 $-1 $49 #
shell $-1 $-1 $-1 $92 $-1 $51 #
shell $-1 $-1 $-1 $93 $-1 $53 #
shell $-1 $-1 $-1 $94 $-1 $55 #
face $-1 $95 $96 $57 $-1 $97 forward single #
face $-1 $98 $99 $58 $-1 $100 forward single #
face $-1 $101 $102 $59 $-1 $103 forward single #
face $-1 $104 $105 $60 $-1 $106 reversed single #
face $-1 $107 $108 $61 $-1 $109 forward single #
face $-1 $110 $111 $62 $-1 $112 forward single #
face $-1 $113 $114 $63 $-1 $115 forward single #
face $-1 $116 $117 $64 $-1 $118 reversed single #
face $-1 $119 $120 $65 $-1 $121 forward single #
face $-1 $122 $123 $66 $-1 $124 forward single #
face $-1 $125 $126 $67 $-1 $127 forward single #
face $-1 $128 $129 $68 $-1 $130 reversed single #
face $-1 $131 $132 $69 $-1 $133 forward single #
face $-1 $134 $135 $70 $-1 $136 forward single #
face $-1 $137 $138 $71 $-1 $139 forward single #
face $-1 $140 $141 $72 $-1 $142 reversed single #
face $-1 $143 $144 $73 $-1 $145 forward single #
face $-1 $146 $147 $74 $-1 $148 forward single #
face $-1 $149 $150 $75 $-1 $151 forward single #
face $-1 $152 $153 $57 $-1 $154 reversed single #
loop $-1 $-1 $155 $76 #
plane-surface $-1 0 0 11.422030620157889 0 0 1 1 0 0 forward_v I I I I #
face $-1 $156 $157 $58 $-1 $158 reversed single #
loop $-1 $-1 $159 $77 #
plane-surface $-1 0 -28.309280768702902 0 0 1 0 0 0 1 forward_v I I I I #
face $-1 $160 $161 $59 $-1 $162 reversed single #
loop $-1 $-1 $163 $78 #
plane-surface $-1 0 28.309280768702902 0 0 -1 0 0 0 -1 forward_v I I I I #
face $-1 $164 $165 $60 $-1 $166 reversed single #
loop $-1 $-1 $167 $79 #
plane-surface $-1 75.743146673015303 -6.0079305074678686 134.62919805291335 0 -1 0 -0.84804810408105047 0 -0.52991925155115449 forward_v I I I I #
face $-1 $168 $169 $61 $-1 $170 forward single #
loop $-1 $171 $172 $80 #
cone-surface $-1 44.107380006043222 -12.929389095244083 8.7271495670531305 -0.84804810408105047 0 -0.52991925155115449 0.26495962577557725 0 -0.42402405204052523 1 I I 0 1 0.5 forward I I I I #
face $-1 $173 $174 $62 $-1 $175 forward single #
loop $-1 $176 $177 $81 #
cone-surface $-1 44.107380006043222 -10.333842124828003 8.7271495670531305 -0.84804810408105047 0 -0.52991925155115449 0.26495962577557725 0 -0.42402405204052523 1 I I 0 1 0.5 forward I I I I #
face $-1 $178 $179 $63 $-1 $180 forward single #
loop $-1 $181 $182 $82 #
cone-surface $-1 44.107380006043222 -7.7382951544119223 8.7271495670531305 -0.84804810408105047 0 -0.52991925155115449 0.26495962577557725 0 -0.42402405204052523 1 I I 0 1 0.5 forward I I I I #
face $-1 $183 $184 $64 $-1 $185 reversed single #
loop $-1 $-1 $186 $83 #
plane-surface $-1 -113.99989667358702 -10.817345344696495 64.85828647405765 0 1 0 -0.73135370988377701 0 0.68199835119979291 forward_v I I I I #
face $-1 $187 $188 $65 $-1 $189 forward single #
loop $-1 $190 $191 $84 #
cone-surface $-1 -41.400328652000539 -9.6311931919030727 6.2291316271356116 0.73135370988377701 0 -0.68199835119979291 0.34099917559989645 0 0.36567685494188851 1 I I 0 1 0.5 forward I I I I #
face $-1 $192 $193 $66 $-1 $194 forward single #
loop $-1 $195 $196 $85 #
cone-surface $-1 -41.400328652000539 -7.8519649627129375 6.2291316271356116 0.73135370988377701 0 -0.68199835119979291 0.34099917559989645 0 0.36567685494188851 1 I I 0 1 0.5 forward I I I I #
face $-1 $197 $198 $67 $-1 $199 forward single #
loop $-1 $200 $201 $86 #
cone-surface $-1 -41.400328652000539 -6.0727367335228024 6.2291316271356116 0.73135370988377701 0 -0.68199835119979291 0.34099917559989645 0 0.36567685494188851 1 I I 0 1 0.5 forward I I I I #
face $-1 $202 $203 $68 $-1 $204 reversed single #
loop $-1 $-1 $205 $87 #
plane-surface $-1 -113.99989667358702 -2.9653803819835574 64.85828647405765 0 1 0 -0.73135370988377701 0 0.68199835119979291 forward_v I I I I #
face $-1 $206 $207 $69 $-1 $208 forward single #
loop $-1 $209 $210 $88 #
cone-surface $-1 -41.400328652000539 -1.7792282291901351 6.2291316271356116 0.73135370988377701 0 -0.68199835119979291 0.34099917559989645 0 0.36567685494188851 1 I I 0 1 0.5 forward I I I I #
face $-1 $211 $212 $70 $-1 $213 forward single #
loop $-1 $214 $215 $89 #
cone-surface $-1 -41.400328652000539 0 6.2291316271356116 0.73135370988377701 0 -0.68199835119979291 0.34099917559989645 0 0.36567685494188851 1 I I 0 1 0.5 forward I I I I #
face $-1 $216 $217 $71 $-1 $218 forward single #
loop $-1 $219 $220 $90 #
cone-surface $-1 -41.400328652000539 1.7792282291901351 6.2291316271356116 0.73135370988377701 0 -0.68199835119979291 0.34099917559989645 0 0.36567685494188851 1 I I 0 1 0.5 forward I I I I #
face $-1 $221 $222 $72 $-1 $223 reversed single #
loop $-1 $-1 $224 $91 #
plane-surface $-1 -113.99989667358702 4.8865845807293802 64.85828647405765 0 1 0 -0.73135370988377701 0 0.68199835119979291 forward_v I I I I #
face $-1 $225 $226 $73 $-1 $227 forward single #
loop $-1 $228 $229 $92 #
cone-surface $-1 -41.400328652000539 6.0727367335227989 6.2291316271356116 0.73135370988377701 0 -0.68199835119979291 0.34099917559989645 0 0.36567685494188851 1 I I 0 1 0.5 forward I I I I #
face $-1 $230 $231 $74 $-1 $232 forward single #
loop $-1 $233 $234 $93 #
cone-surface $-1 -41.400328652000539 7.8519649627129375 6.2291316271356116 0.73135370988377701 0 -0.68199835119979291 0.34099917559989645 0 0.36567685494188851 1 I I 0 1 0.5 forward I I I I #
face $-1 $235 $236 $75 $-1 $237 forward single #
loop $-1 $238 $239 $94 #
cone-surface $-1 -41.400328652000539 9.6311931919030691 6.2291316271356116 0.73135370988377701 0 -0.68199835119979291 0.34099917559989645 0 0.36567685494188851 1 I I 0 1 0.5 forward I I I I #
face $-1 $240 $241 $57 $-1 $242 reversed single #
loop $-1 $-1 $243 $95 #
plane-surface $-1 0 0 -11.422030620157889 0 0 1 1 0 0 forward_v I I I I #
coedge $-1 $244 $245 $246 $247 forward $96 $-1 #
face $-1 $248 $249 $58 $-1 $250 reversed single #
loop $-1 $-1 $251 $98 #
plane-surface $-1 0 0 -11.422030620157889 0 0 1 1 0 0 forward_v I I I I #
coedge $-1 $252 $253 $254 $255 forward $99 $-1 #
face $-1 $256 $257 $59 $-1 $258 forward single #
loop $-1 $-1 $259 $101 #
plane-surface $-1 -46.29047517319254 0 0 1 0 0 0 0 -1 forward_v I I I I #
coedge $-1 $260 $261 $262 $263 forward $102 $-1 #
face $-1 $264 $265 $60 $-1 $266 reversed single #
loop $-1 $-1 $267 $104 #
plane-surface $-1 -2.7699527422584396 -10.333842124828003 85.568770137462366 0.84804810408105047 0 0.52991925155115449 0.52991925155115449 0 -0.84804810408105047 forward_v I I I I #
coedge $-1 $268 $269 $270 $271 reversed $105 $-1 #
face $-1 $-1 $272 $61 $-1 $273 forward single #
loop $-1 $274 $275 $107 #
cone-surface $-1 43.07647500730112 -12.929389095244083 8.0829686500452116 -0.84804810408105047 0 -0.52991925155115449 0.13247981288778862 0 -0.21201202602026262 1 I I -0.70710678118654502 0.70710678118655002 0.25 forward I I I I #
loop $-1 $-1 $276 $80 #
coedge $-1 $172 $172 $277 $278 reversed $108 $-1 #
face $-1 $-1 $279 $62 $-1 $280 forward single #
loop $-1 $281 $282 $110 #
cone-surface $-1 43.07647500730112 -10.333842124828003 8.0829686500452116 -0.84804810408105047 0 -0.52991925155115449 0.13247981288778862 0 -0.21201202602026262 1 I I -0.70710678118654502 0.70710678118655002 0.25 forward I I I I #
loop $-1 $-1 $283 $81 #
coedge $-1 $177 $177 $284 $285 reversed $111 $-1 #
face $-1 $-1 $286 $63 $-1 $287 forward single #
loop $-1 $288 $289 $113 #
cone-surface $-1 43.07647500730112 -7.7382951544119223 8.0829686500452116 -0.84804810408105047 0 -0.52991925155115449 0.13247981288778862 0 -0.21201202602026262 1 I I -0.70710678118654502 0.70710678118655002 0.25 forward I I I I #
loop $-1 $-1 $290 $82 #
coedge $-1 $182 $182 $291 $292 reversed $114 $-1 #
face $-1 $293 $294 $64 $-1 $295 reversed single #
loop $-1 $-1 $296 $116 #
plane-surface $-1 -46.290475173192533 -7.8519649627129375 1.7182309853131272 -0.73135370988377701 0 0.68199835119979291 0.68199835119979291 0 0.73135370988377701 forward_v I I I I #
coedge $-1 $297 $298 $299 $300 reversed $117 $-1 #
face $-1 $-1 $301 $65 $-1 $302 forward single #
loop $-1 $303 $304 $119 #
cone-surface $-1 -40.851813369587703 -9.6311931919030727 5.7176328637357674 0.73135370988377701 0 -0.68199835119979291 0.17049958779994823 0 0.18283842747094425 1 I I -0.70710678118654746 0.70710678118654746 0.25 forward I I I I #
loop $-1 $-1 $305 $84 #
coedge $-1 $191 $191 $306 $307 reversed $120 $-1 #
face $-1 $-1 $308 $66 $-1 $309 forward single #
loop $-1 $310 $311 $122 #
cone-surface $-1 -40.851813369587703 -7.8519649627129375 5.7176328637357674 0.73135370988377701 0 -0.68199835119979291 0.17049958779994823 0 0.18283842747094425 1 I I -0.70710678118654746 0.70710678118654746 0.25 forward I I I I #
loop $-1 $-1 $312 $85 #
coedge $-1 $196 $196 $313 $314 reversed $123 $-1 #
face $-1 $-1 $315 $67 $-1 $316 forward single #
loop $-1 $317 $318 $125 #
cone-surface $-1 -40.851813369587703 -6.0727367335228024 5.7176328637357674 0.73135370988377701 0 -0.68199835119979291 0.17049958779994823 0 0.18283842747094425 1 I I -0.70710678118654746 0.70710678118654746 0.25 forward I I I I #
loop $-1 $-1 $319 $86 #
coedge $-1 $201 $201 $320 $321 reversed $126 $-1 #
face $-1 $322 $323 $68 $-1 $324 reversed single #
loop $-1 $-1 $325 $128 #
plane-surface $-1 -46.290475173192533 0 1.7182309853131272 -0.73135370988377701 0 0.68199835119979291 0.68199835119979291 0 0.73135370988377701 forward_v I I I I #
coedge $-1 $326 $327 $328 $329 reversed $129 $-1 #
face $-1 $-1 $330 $69 $-1 $331 forward single #
loop $-1 $332 $333 $131 #
cone-surface $-1 -40.851813369587703 -1.7792282291901351 5.7176328637357674 0.73135370988377701 0 -0.68199835119979291 0.17049958779994823 0 0.18283842747094425 1 I I -0.70710678118654746 0.70710678118654746 0.25 forward I I I I #
loop $-1 $-1 $334 $88 #
coedge $-1 $210 $210 $335 $336 reversed $132 $-1 #
face $-1 $-1 $337 $70 $-1 $338 forward single #
loop $-1 $339 $340 $134 #
cone-surface $-1 -40.851813369587703 0 5.7176328637357674 0.73135370988377701 0 -0.68199835119979291 0.17049958779994823 0 0.18283842747094425 1 I I -0.70710678118654746 0.70710678118654746 0.25 forward I I I I #
loop $-1 $-1 $341 $89 #
coedge $-1 $215 $215 $342 $343 reversed $135 $-1 #
face $-1 $-1 $344 $71 $-1 $345 forward single #
loop $-1 $346 $347 $137 #
cone-surface $-1 -40.851813369587703 1.7792282291901351 5.7176328637357674 0.73135370988377701 0 -0.68199835119979291 0.17049958779994823 0 0.18283842747094425 1 I I -0.70710678118654746 0.70710678118654746 0.25 forward I I I I #
loop $-1 $-1 $348 $90 #
coedge $-1 $220 $220 $349 $350 reversed $138 $-1 #
face $-1 $351 $352 $72 $-1 $353 reversed single #
loop $-1 $-1 $354 $140 #
plane-surface $-1 -46.290475173192533 7.8519649627129375 1.7182309853131272 -0.73135370988377701 0 0.68199835119979291 0.68199835119979291 0 0.73135370988377701 forward_v I I I I #
coedge $-1 $355 $356 $357 $358 reversed $141 $-1 #
face $-1 $-1 $359 $73 $-1 $360 forward single #
loop $-1 $361 $362 $143 #
cone-surface $-1 -40.851813369587703 6.0727367335227989 5.7176328637357674 0.73135370988377701 0 -0.68199835119979291 0.17049958779994823 0 0.18283842747094425 1 I I -0.70710678118654746 0.70710678118654746 0.25 forward I I I I #
loop $-1 $-1 $363 $92 #
coedge $-1 $229 $229 $364 $365 reversed $144 $-1 #
face $-1 $-1 $366 $74 $-1 $367 forward single #
loop $-1 $368 $369 $146 #
cone-surface $-1 -40.851813369587703 7.8519649627129375 5.7176328637357674 0.73135370988377701 0 -0.68199835119979291 0.17049958779994823 0 0.18283842747094425 1 I I -0.70710678118654746 0.70710678118654746 0.25 forward I I I I #
loop $-1 $-1 $370 $93 #
coedge $-1 $234 $234 $371 $372 reversed $147 $-1 #
face $-1 $-1 $373 $75 $-1 $374 forward single #
loop $-1 $375 $376 $149 #
cone-surface $-1 -40.851813369587703 9.6311931919030691 5.7176328637357674 0.73135370988377701 0 -0.68199835119979291 0.17049958779994823 0 0.18283842747094425 1 I I -0.70710678118654746 0.70710678118654746 0.25 forward I I I I #
loop $-1 $-1 $377 $94 #
coedge $-1 $239 $239 $378 $379 reversed $150 $-1 #
face $-1 $380 $381 $57 $-1 $382 reversed single #
loop $-1 $-1 $383 $152 #
plane-surface $-1 0 -28.309280768702902 0 0 1 0 0 0 1 forward_v I I I I #
coedge $-1 $384 $385 $386 $387 forward $153 $-1 #
coedge $-1 $388 $155 $389 $390 forward $96 $-1 #
coedge $-1 $155 $388 $391 $392 forward $96 $-1 #
coedge $-1 $393 $394 $155 $247 reversed $395 $-1 #
edge $-1 $396 -28.309280768702902 $397 28.309280768702902 $246 $398 forward 7 unknown #
face $-1 $399 $400 $58 $-1 $401 forward single #
loop $-1 $-1 $402 $156 #
plane-surface $-1 46.29047517319254 0 0 -1 0 0 0 0 1 forward_v I I I I #
coedge $-1 $403 $404 $405 $406 forward $157 $-1 #
coedge $-1 $405 $159 $402 $407 reversed $99 $-1 #
coedge $-1 $159 $405 $408 $409 reversed $99 $-1 #
coedge $-1 $410 $411 $159 $255 reversed $400 $-1 #
edge $-1 $412 -46.29047517319254 $413 46.29047517319254 $254 $414 forward 7 unknown #
face $-1 $415 $416 $59 $-1 $417 reversed single #
loop $-1 $-1 $418 $160 #
plane-surface $-1 0 35.134044281960286 -7.0840502662769449 0 0 1 1 0 0 forward_v I I I I #
coedge $-1 $419 $420 $260 $421 forward $161 $-1 #
coedge $-1 $422 $163 $259 $421 reversed $102 $-1 #
coedge $-1 $163 $422 $423 $424 reversed $102 $-1 #
coedge $-1 $418 $425 $163 $263 reversed $257 $-1 #
edge $-1 $426 -46.29047517319254 $427 46.29047517319254 $262 $428 forward 7 unknown #
face $-1 $429 $430 $60 $-1 $431 forward single #
loop $-1 $-1 $432 $164 #
plane-surface $-1 75.743146673015303 -14.659753742188137 134.62919805291335 0 1 0 0.84804810408105047 0 0.52991925155115449 forward_v I I I I #
coedge $-1 $433 $434 $435 $436 reversed $165 $-1 #
coedge $-1 $269 $167 $437 $438 reversed $105 $-1 #
coedge $-1 $167 $268 $433 $439 reversed $105 $-1 #
coedge $-1 $435 $440 $167 $271 forward $430 $-1 #
edge $-1 $441 -8.4189018366848885 $442 -5.690497447829955 $270 $443 forward 7 unknown #
loop $-1 $-1 $277 $168 #
plane-surface $-1 -2.7699527422584396 -10.333842124828003 85.568770137462366 0.84804810408105047 0 0.52991925155115449 0.52991925155115449 0 -0.84804810408105047 forward_v I I I I #
loop $-1 $-1 $444 $107 #
coedge $-1 $275 $275 $276 $445 reversed $169 $-1 #
coedge $-1 $276 $276 $275 $445 forward $171 $-1 #
coedge $-1 $277 $277 $172 $278 forward $272 $-1 #
edge $-1 $446 0 $446 6.2831853071796004 $277 $447 forward 7 unknown #
loop $-1 $-1 $284 $173 #
plane-surface $-1 -2.7699527422584396 -10.333842124828003 85.568770137462366 0.84804810408105047 0 0.52991925155115449 0.52991925155115449 0 -0.84804810408105047 forward_v I I I I #
loop $-1 $-1 $448 $110 #
coedge $-1 $282 $282 $283 $449 reversed $174 $-1 #
coedge $-1 $283 $283 $282 $449 forward $176 $-1 #
coedge $-1 $284 $284 $177 $285 forward $279 $-1 #
edge $-1 $450 0 $450 6.2831853071796004 $284 $451 forward 7 unknown #
loop $-1 $-1 $291 $178 #
plane-surface $-1 -2.7699527422584396 -10.333842124828003 85.568770137462366 0.84804810408105047 0 0.52991925155115449 0.52991925155115449 0 -0.84804810408105047 forward_v I I I I #
loop $-1 $-1 $452 $113 #
coedge $-1 $289 $289 $290 $453 reversed $179 $-1 #
coedge $-1 $290 $290 $289 $453 forward $181 $-1 #
coedge $-1 $291 $291 $182 $292 forward $286 $-1 #
edge $-1 $454 0 $454 6.2831853071796004 $291 $455 forward 7 unknown #
face $-1 $456 $457 $64 $-1 $458 reversed single #
loop $-1 $-1 $459 $183 #
plane-surface $-1 -113.99989667358702 -4.8865845807293802 64.85828647405765 0 -1 0 0.73135370988377701 0 -0.68199835119979291 forward_v I I I I #
coedge $-1 $460 $461 $462 $463 reversed $184 $-1 #
coedge $-1 $298 $186 $464 $465 reversed $117 $-1 #
coedge $-1 $186 $297 $460 $466 reversed $117 $-1 #
coedge $-1 $462 $467 $186 $300 forward $468 $-1 #
edge $-1 $469 10.709473163600968 $470 19.758412496101215 $299 $471 forward 7 unknown #
loop $-1 $-1 $306 $187 #
plane-surface $-1 -46.290475173192533 -7.8519649627129375 1.7182309853131272 -0.73135370988377701 0 0.68199835119979291 0.68199835119979291 0 0.73135370988377701 forward_v I I I I #
loop $-1 $-1 $472 $119 #
coedge $-1 $304 $304 $305 $473 reversed $188 $-1 #
coedge $-1 $305 $305 $304 $473 forward $190 $-1 #
coedge $-1 $306 $306 $191 $307 forward $301 $-1 #
edge $-1 $474 0 $474 6.2831853071796004 $306 $475 forward 7 unknown #
loop $-1 $-1 $313 $192 #
plane-surface $-1 -46.290475173192533 -7.8519649627129375 1.7182309853131272 -0.73135370988377701 0 0.68199835119979291 0.68199835119979291 0 0.73135370988377701 forward_v I I I I #
loop $-1 $-1 $476 $122 #
coedge $-1 $311 $311 $312 $477 reversed $193 $-1 #
coedge $-1 $312 $312 $311 $477 forward $195 $-1 #
coedge $-1 $313 $313 $196 $314 forward $308 $-1 #
edge $-1 $478 0 $478 6.2831853071796004 $313 $479 forward 7 unknown #
loop $-1 $-1 $320 $197 #
plane-surface $-1 -46.290475173192533 -7.8519649627129375 1.7182309853131272 -0.73135370988377701 0 0.68199835119979291 0.68199835119979291 0 0.73135370988377701 forward_v I I I I #
loop $-1 $-1 $480 $125 #
coedge $-1 $318 $318 $319 $481 reversed $198 $-1 #
coedge $-1 $319 $319 $318 $481 forward $200 $-1 #
coedge $-1 $320 $320 $201 $321 forward $315 $-1 #
edge $-1 $482 0 $482 6.2831853071796004 $320 $483 forward 7 unknown #
face $-1 $484 $485 $68 $-1 $486 forward single #
loop $-1 $-1 $487 $202 #
plane-surface $-1 -113.99989667358702 2.9653803819835574 64.85828647405765 0 -1 0 0.73135370988377701 0 -0.68199835119979291 forward_v I I I I #
coedge $-1 $488 $489 $490 $491 reversed $203 $-1 #
coedge $-1 $327 $205 $492 $493 reversed $129 $-1 #
coedge $-1 $205 $326 $488 $494 reversed $129 $-1 #
coedge $-1 $490 $495 $205 $329 forward $485 $-1 #
edge $-1 $496 10.709473163600968 $497 19.758412496101215 $328 $498 forward 7 unknown #
loop $-1 $-1 $335 $206 #
plane-surface $-1 -46.290475173192533 0 1.7182309853131272 -0.73135370988377701 0 0.68199835119979291 0.68199835119979291 0 0.73135370988377701 forward_v I I I I #
loop $-1 $-1 $499 $131 #
coedge $-1 $333 $333 $334 $500 reversed $207 $-1 #
coedge $-1 $334 $334 $333 $500 forward $209 $-1 #
coedge $-1 $335 $335 $210 $336 forward $330 $-1 #
edge $-1 $501 0 $501 6.2831853071796004 $335 $502 forward 7 unknown #
loop $-1 $-1 $342 $211 #
plane-surface $-1 -46.290475173192533 0 1.7182309853131272 -0.73135370988377701 0 0.68199835119979291 0.68199835119979291 0 0.73135370988377701 forward_v I I I I #
loop $-1 $-1 $503 $134 #
coedge $-1 $340 $340 $341 $504 reversed $212 $-1 #
coedge $-1 $341 $341 $340 $504 forward $214 $-1 #
coedge $-1 $342 $342 $215 $343 forward $337 $-1 #
edge $-1 $505 0 $505 6.2831853071796004 $342 $506 forward 7 unknown #
loop $-1 $-1 $349 $216 #
plane-surface $-1 -46.290475173192533 0 1.7182309853131272 -0.73135370988377701 0 0.68199835119979291 0.68199835119979291 0 0.73135370988377701 forward_v I I I I #
loop $-1 $-1 $507 $137 #
coedge $-1 $347 $347 $348 $508 reversed $217 $-1 #
coedge $-1 $348 $348 $347 $508 forward $219 $-1 #
coedge $-1 $349 $349 $220 $350 forward $344 $-1 #
edge $-1 $509 0 $509 6.2831853071796004 $349 $510 forward 7 unknown #
face $-1 $511 $512 $72 $-1 $513 forward single #
loop $-1 $-1 $514 $221 #
plane-surface $-1 -113.99989667358702 10.817345344696495 64.85828647405765 0 -1 0 0.73135370988377701 0 -0.68199835119979291 forward_v I I I I #
coedge $-1 $515 $516 $517 $518 reversed $222 $-1 #
coedge $-1 $356 $224 $519 $520 reversed $141 $-1 #
coedge $-1 $224 $355 $515 $521 reversed $141 $-1 #
coedge $-1 $517 $522 $224 $358 forward $512 $-1 #
edge $-1 $523 10.709473163600968 $524 19.758412496101215 $357 $525 forward 7 unknown #
loop $-1 $-1 $364 $225 #
plane-surface $-1 -46.290475173192533 7.8519649627129375 1.7182309853131272 -0.73135370988377701 0 0.68199835119979291 0.68199835119979291 0 0.73135370988377701 forward_v I I I I #
loop $-1 $-1 $526 $143 #
coedge $-1 $362 $362 $363 $527 reversed $226 $-1 #
coedge $-1 $363 $363 $362 $527 forward $228 $-1 #
coedge $-1 $364 $364 $229 $365 forward $359 $-1 #
edge $-1 $528 0 $528 6.2831853071796004 $364 $529 forward 7 unknown #
loop $-1 $-1 $371 $230 #
plane-surface $-1 -46.290475173192533 7.8519649627129375 1.7182309853131272 -0.73135370988377701 0 0.68199835119979291 0.68199835119979291 0 0.73135370988377701 forward_v I I I I #
loop $-1 $-1 $530 $146 #
coedge $-1 $369 $369 $370 $531 reversed $231 $-1 #
coedge $-1 $370 $370 $369 $531 forward $233 $-1 #
coedge $-1 $371 $371 $234 $372 forward $366 $-1 #
edge $-1 $532 0 $532 6.2831853071796004 $371 $533 forward 7 unknown #
loop $-1 $-1 $378 $235 #
plane-surface $-1 -46.290475173192533 7.8519649627129375 1.7182309853131272 -0.73135370988377701 0 0.68199835119979291 0.68199835119979291 0 0.73135370988377701 forward_v I I I I #
loop $-1 $-1 $534 $149 #
coedge $-1 $376 $376 $377 $535 reversed $236 $-1 #
coedge $-1 $377 $377 $376 $535 forward $238 $-1 #
coedge $-1 $378 $378 $239 $379 forward $373 $-1 #
edge $-1 $536 0 $536 6.2831853071796004 $378 $537 forward 7 unknown #
face $-1 $538 $539 $57 $-1 $540 reversed single #
loop $-1 $-1 $541 $240 #
plane-surface $-1 -46.29047517319254 0 0 1 0 0 0 0 -1 forward_v I I I I #
coedge $-1 $542 $391 $543 $544 forward $241 $-1 #
coedge $-1 $545 $243 $542 $546 forward $153 $-1 #
coedge $-1 $243 $545 $547 $548 forward $153 $-1 #
coedge $-1 $394 $393 $243 $387 reversed $395 $-1 #
edge $-1 $549 -28.309280768702902 $550 28.309280768702902 $386 $551 forward 7 unknown #
coedge $-1 $245 $244 $552 $553 forward $96 $-1 #
coedge $-1 $554 $555 $244 $390 reversed $539 $-1 #
edge $-1 $397 -46.29047517319254 $556 46.29047517319254 $389 $557 forward 7 unknown #
coedge $-1 $383 $558 $245 $392 reversed $241 $-1 #
edge $-1 $559 -46.29047517319254 $396 46.29047517319254 $391 $560 forward 7 unknown #
coedge $-1 $386 $246 $558 $561 forward $395 $-1 #
coedge $-1 $246 $386 $554 $562 reversed $395 $-1 #
loop $-1 $-1 $393 $538 #
vertex $-1 $247 $563 #
vertex $-1 $247 $564 #
straight-curve $-1 46.29047517319254 0 11.422030620157889 0 1 0 I I #
face $-1 $565 $566 $58 $-1 $567 reversed single #
loop $-1 $-1 $411 $248 #
plane-surface $-1 0 -35.134044281960286 -7.0840502662769449 0 0 1 1 0 0 forward_v I I I I #
coedge $-1 $568 $569 $252 $407 forward $249 $-1 #
coedge $-1 $570 $251 $569 $571 forward $157 $-1 #
coedge $-1 $251 $570 $572 $573 forward $157 $-1 #
coedge $-1 $253 $252 $251 $406 reversed $99 $-1 #
edge $-1 $574 -46.29047517319254 $575 46.29047517319254 $251 $576 forward 7 unknown #
edge $-1 $575 -11.422030620157889 $413 -7.0840502662769449 $402 $577 forward 7 unknown #
coedge $-1 $572 $578 $253 $409 forward $579 $-1 #
edge $-1 $412 7.0840502662769449 $574 11.422030620157889 $408 $580 forward 7 unknown #
coedge $-1 $581 $254 $578 $582 forward $400 $-1 #
coedge $-1 $254 $581 $568 $583 forward $400 $-1 #
vertex $-1 $409 $584 #
vertex $-1 $583 $585 #
straight-curve $-1 0 -28.309280768702902 -7.0840502662769449 1 0 0 I I #
face $-1 $586 $587 $59 $-1 $588 reversed single #
loop $-1 $-1 $589 $256 #
plane-surface $-1 0 41.958807795217666 -9.2530404432174169 0 -1 0 0 0 -1 forward_v I I I I #
coedge $-1 $590 $262 $591 $592 forward $257 $-1 #
coedge $-1 $593 $259 $425 $594 reversed $161 $-1 #
coedge $-1 $259 $593 $595 $596 reversed $161 $-1 #
edge $-1 $597 -11.422030620157889 $427 -7.0840502662769449 $259 $598 forward 7 unknown #
coedge $-1 $261 $260 $599 $600 reversed $102 $-1 #
coedge $-1 $601 $591 $261 $424 forward $602 $-1 #
edge $-1 $426 7.0840502662769449 $603 11.422030620157889 $423 $604 forward 7 unknown #
coedge $-1 $262 $590 $419 $594 forward $257 $-1 #
vertex $-1 $424 $605 #
vertex $-1 $594 $606 #
straight-curve $-1 0 28.309280768702902 -7.0840502662769449 -1 0 0 I I #
face $-1 $-1 $607 $60 $-1 $608 reversed single #
loop $-1 $-1 $270 $264 #
plane-surface $-1 0 0 11.422030620157889 0 0 1 1 0 0 forward_v I I I I #
coedge $-1 $609 $610 $611 $612 reversed $265 $-1 #
coedge $-1 $613 $267 $269 $439 forward $165 $-1 #
coedge $-1 $267 $613 $609 $614 forward $165 $-1 #
coedge $-1 $611 $270 $267 $436 forward $430 $-1 #
edge $-1 $442 0.84100944505386721 $615 9.4928326797741356 $435 $616 forward 7 unknown #
coedge $-1 $617 $618 $268 $438 forward $607 $-1 #
edge $-1 $619 -60.258928304268053 $441 -55.892568406298786 $437 $620 forward 7 unknown #
edge $-1 $442 87.43223310150583 $619 92.58095034638508 $269 $621 forward 7 unknown #
coedge $-1 $270 $611 $617 $622 forward $430 $-1 #
vertex $-1 $438 $623 #
vertex $-1 $271 $624 #
straight-curve $-1 37.871573336507652 -6.0079305074678686 11.422030620157891 -1 0 0 I I #
coedge $-1 $444 $444 $-1 $625 reversed $274 $-1 #
edge $-1 $626 0 $626 6.2831853071796004 $275 $627 forward 7 unknown #
vertex $-1 $278 $628 #
ellipse-curve $-1 44.926272978765063 -12.929389095244083 9.2388506711732603 0.84804810408105047 0 0.52991925155115449 0.26495962577557725 0 -0.42402405204052523 1 I I #
coedge $-1 $448 $448 $-1 $629 reversed $281 $-1 #
edge $-1 $630 0 $630 6.2831853071796004 $282 $631 forward 7 unknown #
vertex $-1 $285 $632 #
ellipse-curve $-1 44.926272978765063 -10.333842124828003 9.2388506711732603 0.84804810408105047 0 0.52991925155115449 0.26495962577557725 0 -0.42402405204052523 1 I I #
coedge $-1 $452 $452 $-1 $633 reversed $288 $-1 #
edge $-1 $634 0 $634 6.2831853071796004 $289 $635 forward 7 unknown #
vertex $-1 $292 $636 #
ellipse-curve $-1 44.926272978765063 -7.7382951544119223 9.2388506711732603 0.84804810408105047 0 0.52991925155115449 0.26495962577557725 0 -0.42402405204052523 1 I I #
face $-1 $-1 $468 $64 $-1 $637 forward single #
loop $-1 $-1 $638 $293 #
plane-surface $-1 -46.29047517319254 0 0 1 0 0 0 0 -1 forward_v I I I I #
coedge $-1 $639 $640 $641 $642 reversed $294 $-1 #
coedge $-1 $643 $296 $298 $466 forward $184 $-1 #
coedge $-1 $296 $643 $639 $644 forward $184 $-1 #
coedge $-1 $641 $299 $296 $463 forward $468 $-1 #
edge $-1 $470 -6.8913628633400261 $645 -0.96060209937291141 $462 $646 forward 7 unknown #
coedge $-1 $647 $648 $297 $465 forward $457 $-1 #
edge $-1 $649 -30.710912251715705 $469 -21.007112616870934 $464 $650 forward 7 unknown #
edge $-1 $470 -13.268271567784677 $649 1.0367256691888158e-014 $298 $651 forward 7 unknown #
coedge $-1 $299 $641 $647 $652 forward $468 $-1 #
loop $-1 $-1 $641 $456 #
vertex $-1 $465 $653 #
vertex $-1 $300 $654 #
straight-curve $-1 -56.999948336793508 -10.817345344696495 11.422030620157891 1 0 0 I I #
coedge $-1 $472 $472 $-1 $655 reversed $303 $-1 #
edge $-1 $656 0 $656 6.2831853071796004 $304 $657 forward 7 unknown #
vertex $-1 $307 $658 #
ellipse-curve $-1 -41.76600550694242 -9.6311931919030727 6.570130802735501 -0.73135370988377701 0 0.68199835119979291 0.34099917559989645 0 0.36567685494188851 1 I I #
coedge $-1 $476 $476 $-1 $659 reversed $310 $-1 #
edge $-1 $660 0 $660 6.2831853071796004 $311 $661 forward 7 unknown #
vertex $-1 $314 $662 #
ellipse-curve $-1 -41.76600550694242 -7.8519649627129375 6.570130802735501 -0.73135370988377701 0 0.68199835119979291 0.34099917559989645 0 0.36567685494188851 1 I I #
coedge $-1 $480 $480 $-1 $663 reversed $317 $-1 #
edge $-1 $664 0 $664 6.2831853071796004 $318 $665 forward 7 unknown #
vertex $-1 $321 $666 #
ellipse-curve $-1 -41.76600550694242 -6.0727367335228024 6.570130802735501 -0.73135370988377701 0 0.68199835119979291 0.34099917559989645 0 0.36567685494188851 1 I I #
face $-1 $-1 $667 $68 $-1 $668 reversed single #
loop $-1 $-1 $328 $322 #
plane-surface $-1 0 0 11.422030620157889 0 0 1 1 0 0 forward_v I I I I #
coedge $-1 $669 $670 $671 $672 reversed $323 $-1 #
coedge $-1 $673 $325 $327 $494 forward $203 $-1 #
coedge $-1 $325 $673 $669 $674 forward $203 $-1 #
coedge $-1 $671 $328 $325 $491 forward $485 $-1 #
edge $-1 $497 -2.9653803819835574 $675 2.9653803819835574 $490 $676 forward 7 unknown #
coedge $-1 $677 $678 $326 $493 forward $667 $-1 #
edge $-1 $679 -30.710912251715705 $496 -21.007112616870934 $492 $680 forward 7 unknown #
edge $-1 $497 -13.268271567784677 $679 1.0367256691888158e-014 $327 $681 forward 7 unknown #
coedge $-1 $328 $671 $677 $682 forward $485 $-1 #
vertex $-1 $329 $683 #
vertex $-1 $329 $684 #
straight-curve $-1 -56.999948336793508 -2.9653803819835574 11.422030620157891 1 0 0 I I #
coedge $-1 $499 $499 $-1 $685 reversed $332 $-1 #
edge $-1 $686 0 $686 6.2831853071796004 $333 $687 forward 7 unknown #
vertex $-1 $336 $688 #
ellipse-curve $-1 -41.76600550694242 -1.7792282291901351 6.570130802735501 -0.73135370988377701 0 0.68199835119979291 0.34099917559989645 0 0.36567685494188851 1 I I #
coedge $-1 $503 $503 $-1 $689 reversed $339 $-1 #
edge $-1 $690 0 $690 6.2831853071796004 $340 $691 forward 7 unknown #
vertex $-1 $343 $692 #
ellipse-curve $-1 -41.76600550694242 0 6.570130802735501 -0.73135370988377701 0 0.68199835119979291 0.34099917559989645 0 0.36567685494188851 1 I I #
coedge $-1 $507 $507 $-1 $693 reversed $346 $-1 #
edge $-1 $694 0 $694 6.2831853071796004 $347 $695 forward 7 unknown #
vertex $-1 $350 $696 #
ellipse-curve $-1 -41.76600550694242 1.7792282291901351 6.570130802735501 -0.73135370988377701 0 0.68199835119979291 0.34099917559989645 0 0.36567685494188851 1 I I #
face $-1 $-1 $697 $72 $-1 $698 reversed single #
loop $-1 $-1 $357 $351 #
plane-surface $-1 0 0 11.422030620157889 0 0 1 1 0 0 forward_v I I I I #
coedge $-1 $699 $700 $701 $702 reversed $352 $-1 #
coedge $-1 $703 $354 $356 $521 forward $222 $-1 #
coedge $-1 $354 $703 $699 $704 forward $222 $-1 #
coedge $-1 $701 $357 $354 $518 forward $512 $-1 #
edge $-1 $524 0.96060209937291141 $705 6.8913628633400261 $517 $706 forward 7 unknown #
coedge $-1 $707 $708 $355 $520 forward $697 $-1 #
edge $-1 $709 -30.710912251715705 $523 -21.007112616870934 $519 $710 forward 7 unknown #
edge $-1 $524 -13.268271567784677 $709 1.0367256691888158e-014 $356 $711 forward 7 unknown #
coedge $-1 $357 $701 $707 $712 forward $512 $-1 #
vertex $-1 $358 $713 #
vertex $-1 $358 $714 #
straight-curve $-1 -56.999948336793508 4.8865845807293802 11.422030620157891 1 0 0 I I #
coedge $-1 $526 $526 $-1 $715 reversed $361 $-1 #
edge $-1 $716 0 $716 6.2831853071796004 $362 $717 forward 7 unknown #
vertex $-1 $365 $718 #
ellipse-curve $-1 -41.76600550694242 6.0727367335227989 6.570130802735501 -0.73135370988377701 0 0.68199835119979291 0.34099917559989645 0 0.36567685494188851 1 I I #
coedge $-1 $530 $530 $-1 $719 reversed $368 $-1 #
edge $-1 $720 0 $720 6.2831853071796004 $369 $721 forward 7 unknown #
vertex $-1 $372 $722 #
ellipse-curve $-1 -41.76600550694242 7.8519649627129375 6.570130802735501 -0.73135370988377701 0 0.68199835119979291 0.34099917559989645 0 0.36567685494188851 1 I I #
coedge $-1 $534 $534 $-1 $723 reversed $375 $-1 #
edge $-1 $724 0 $724 6.2831853071796004 $376 $725 forward 7 unknown #
vertex $-1 $379 $726 #
ellipse-curve $-1 -41.76600550694242 9.6311931919030691 6.570130802735501 -0.73135370988377701 0 0.68199835119979291 0.34099917559989645 0 0.36567685494188851 1 I I #
face $-1 $-1 $395 $57 $-1 $727 reversed single #
loop $-1 $-1 $554 $380 #
plane-surface $-1 0 28.309280768702902 0 0 -1 0 0 0 -1 forward_v I I I I #
coedge $-1 $728 $552 $555 $729 forward $381 $-1 #
coedge $-1 $558 $383 $384 $546 reversed $241 $-1 #
coedge $-1 $552 $728 $383 $544 reversed $381 $-1 #
edge $-1 $559 -11.422030620157889 $730 11.422030620157889 $543 $731 forward 7 unknown #
coedge $-1 $385 $384 $728 $732 forward $153 $-1 #
edge $-1 $550 -46.29047517319254 $730 46.29047517319254 $542 $733 forward 7 unknown #
coedge $-1 $555 $554 $385 $548 reversed $539 $-1 #
edge $-1 $734 -46.29047517319254 $549 46.29047517319254 $547 $735 forward 7 unknown #
vertex $-1 $387 $736 #
vertex $-1 $561 $737 #
straight-curve $-1 46.29047517319254 0 -11.422030620157889 0 -1 0 I I #
coedge $-1 $541 $543 $388 $553 reversed $381 $-1 #
edge $-1 $556 -28.309280768702902 $559 28.309280768702902 $552 $738 forward 7 unknown #
coedge $-1 $547 $389 $394 $562 forward $539 $-1 #
coedge $-1 $389 $547 $541 $729 reversed $539 $-1 #
vertex $-1 $390 $739 #
straight-curve $-1 0 28.309280768702902 11.422030620157889 -1 0 0 I I #
coedge $-1 $391 $542 $393 $561 reversed $241 $-1 #
vertex $-1 $553 $740 #
straight-curve $-1 0 -28.309280768702902 11.422030620157889 1 0 0 I I #
edge $-1 $396 -11.422030620157889 $550 11.422030620157889 $393 $741 forward 7 unknown #
edge $-1 $397 -11.422030620157889 $549 11.422030620157889 $394 $742 forward 7 unknown #
point $-1 46.29047517319254 -28.309280768702902 11.422030620157889 #
point $-1 46.29047517319254 28.309280768702902 11.422030620157889 #
face $-1 $-1 $579 $58 $-1 $743 reversed single #
loop $-1 $-1 $744 $399 #
plane-surface $-1 0 -41.958807795217666 -9.2530404432174169 0 1 0 0 0 1 forward_v I I I I #
coedge $-1 $745 $402 $411 $583 reversed $249 $-1 #
coedge $-1 $402 $745 $403 $571 reversed $249 $-1 #
coedge $-1 $404 $403 $746 $747 forward $157 $-1 #
edge $-1 $575 28.309280768702902 $748 41.958807795217666 $569 $749 forward 7 unknown #
coedge $-1 $750 $408 $404 $573 reversed $579 $-1 #
edge $-1 $751 -41.958807795217666 $574 -28.309280768702902 $572 $752 forward 7 unknown #
vertex $-1 $409 $753 #
vertex $-1 $571 $754 #
straight-curve $-1 0 -28.309280768702902 -11.422030620157889 1 0 0 I I #
straight-curve $-1 46.29047517319254 -28.309280768702902 0 0 0 1 I I #
coedge $-1 $408 $750 $410 $582 reversed $579 $-1 #
loop $-1 $-1 $408 $565 #
straight-curve $-1 -46.29047517319254 -28.309280768702902 0 0 0 -1 I I #
coedge $-1 $411 $410 $755 $756 forward $400 $-1 #
edge $-1 $412 -6.8247635132573805 $757 6.8247635132573805 $578 $758 forward 7 unknown #
edge $-1 $759 -6.8247635132573805 $413 6.8247635132573805 $568 $760 forward 7 unknown #
point $-1 -46.29047517319254 -28.309280768702905 -7.0840502662769449 #
point $-1 46.29047517319254 -28.309280768702905 -7.0840502662769449 #
face $-1 $-1 $602 $59 $-1 $761 reversed single #
loop $-1 $-1 $599 $415 #
plane-surface $-1 0 0 -11.422030620157889 0 0 1 1 0 0 forward_v I I I I #
coedge $-1 $762 $763 $764 $765 forward $416 $-1 #
coedge $-1 $425 $418 $763 $766 forward $257 $-1 #
coedge $-1 $423 $764 $418 $592 reversed $602 $-1 #
edge $-1 $426 -6.8247635132573841 $767 6.8247635132573805 $591 $768 forward 7 unknown #
coedge $-1 $420 $419 $769 $770 forward $161 $-1 #
edge $-1 $771 -6.8247635132573805 $427 6.8247635132573841 $419 $772 forward 7 unknown #
coedge $-1 $773 $599 $420 $596 forward $587 $-1 #
edge $-1 $597 -6.8247635132573841 $774 6.8247635132573805 $420 $775 forward 7 unknown #
vertex $-1 $596 $776 #
straight-curve $-1 -46.29047517319254 28.309280768702902 0 0 0 1 I I #
coedge $-1 $595 $777 $422 $600 forward $587 $-1 #
edge $-1 $603 -46.29047517319254 $597 46.29047517319254 $599 $778 forward 7 unknown #
coedge $-1 $764 $423 $777 $779 reversed $602 $-1 #
loop $-1 $-1 $423 $586 #
vertex $-1 $424 $780 #
straight-curve $-1 46.29047517319254 28.309280768702902 0 0 0 -1 I I #
point $-1 46.29047517319254 28.309280768702902 -7.0840502662769449 #
point $-1 -46.29047517319254 28.309280768702902 -7.0840502662769449 #
loop $-1 $-1 $437 $429 #
plane-surface $-1 46.29047517319254 0 0 -1 0 0 0 0 1 forward_v I I I I #
coedge $-1 $610 $432 $434 $614 reversed $265 $-1 #
coedge $-1 $432 $609 $781 $782 reversed $265 $-1 #
coedge $-1 $440 $435 $432 $612 forward $430 $-1 #
edge $-1 $615 5.690497447829955 $783 8.4189018366848885 $611 $784 forward 7 unknown #
coedge $-1 $434 $433 $618 $785 reversed $165 $-1 #
edge $-1 $786 -92.58095034638508 $615 -87.43223310150583 $609 $787 forward 7 unknown #
vertex $-1 $436 $788 #
straight-curve $-1 43.5620707843376 -5.1669210624140014 11.422030620157891 0 -1 0 I I #
coedge $-1 $781 $437 $440 $622 reversed $607 $-1 #
coedge $-1 $437 $781 $613 $785 forward $607 $-1 #
vertex $-1 $438 $789 #
straight-curve $-1 46.29047517319254 -6.0079305074678686 67.314599026456676 0 0 1 I I #
straight-curve $-1 -2.7699527422584396 -6.0079305074678686 85.568770137462366 0.52991925155115449 0 -0.84804810408105047 I I #
edge $-1 $783 -14.659753742188137 $441 -6.0079305074678686 $617 $790 forward 7 unknown #
point $-1 46.29047517319254 -6.0079305074678686 11.422030620157889 #
point $-1 43.562070784337607 -6.0079305074678686 11.422030620157884 #
edge $-1 $791 1 $791 0 $444 $-1 forward 7 unknown #
vertex $-1 $445 $792 #
ellipse-curve $-1 43.288487033321381 -12.929389095244083 8.2154484629330007 0.84804810408105047 0 0.52991925155115449 0.26495962577557725 0 -0.42402405204052523 1 I I #
point $-1 45.191232604540637 -12.929389095244083 8.8148266191327345 #
edge $-1 $793 1 $793 0 $448 $-1 forward 7 unknown #
vertex $-1 $449 $794 #
ellipse-curve $-1 43.288487033321381 -10.333842124828003 8.2154484629330007 0.84804810408105047 0 0.52991925155115449 0.26495962577557725 0 -0.42402405204052523 1 I I #
point $-1 45.191232604540637 -10.333842124828003 8.8148266191327345 #
edge $-1 $795 1 $795 0 $452 $-1 forward 7 unknown #
vertex $-1 $453 $796 #
ellipse-curve $-1 43.288487033321381 -7.7382951544119223 8.2154484629330007 0.84804810408105047 0 0.52991925155115449 0.26495962577557725 0 -0.42402405204052523 1 I I #
point $-1 45.191232604540637 -7.7382951544119223 8.8148266191327345 #
plane-surface $-1 0 0 11.422030620157889 0 0 1 1 0 0 forward_v I I I I #
coedge $-1 $648 $647 $640 $797 forward $457 $-1 #
coedge $-1 $640 $459 $461 $644 reversed $294 $-1 #
coedge $-1 $459 $639 $638 $797 reversed $294 $-1 #
coedge $-1 $467 $462 $459 $642 forward $468 $-1 #
edge $-1 $645 -19.758412496101215 $798 -10.709473163600968 $641 $799 forward 7 unknown #
coedge $-1 $461 $460 $648 $800 reversed $184 $-1 #
edge $-1 $801 -1.0367256691888158e-014 $645 13.268271567784677 $639 $802 forward 7 unknown #
vertex $-1 $463 $803 #
straight-curve $-1 -37.241535840692293 -3.9259824813564688 11.422030620157889 0 1 0 I I #
coedge $-1 $638 $464 $467 $652 reversed $457 $-1 #
coedge $-1 $464 $638 $643 $800 forward $457 $-1 #
vertex $-1 $465 $804 #
straight-curve $-1 -46.29047517319254 -10.817345344696495 32.429143237028825 0 0 1 I I #
straight-curve $-1 -46.290475173192533 -10.817345344696495 1.7182309853131272 -0.68199835119979291 0 -0.73135370988377701 I I #
edge $-1 $798 4.8865845807293802 $469 10.817345344696495 $647 $805 forward 7 unknown #
point $-1 -46.29047517319254 -10.817345344696495 11.422030620157889 #
point $-1 -37.241535840692293 -10.817345344696495 11.422030620157889 #
edge $-1 $806 1 $806 0 $472 $-1 forward 7 unknown #
vertex $-1 $473 $807 #
ellipse-curve $-1 -41.034651797058643 -9.6311931919030727 5.8881324515357161 -0.73135370988377701 0 0.68199835119979291 0.34099917559989645 0 0.36567685494188851 1 I I #
point $-1 -41.42500633134253 -9.6311931919030727 6.9358076576773975 #
edge $-1 $808 1 $808 0 $476 $-1 forward 7 unknown #
vertex $-1 $477 $809 #
ellipse-curve $-1 -41.034651797058643 -7.8519649627129375 5.8881324515357161 -0.73135370988377701 0 0.68199835119979291 0.34099917559989645 0 0.36567685494188851 1 I I #
point $-1 -41.42500633134253 -7.8519649627129375 6.9358076576773975 #
edge $-1 $810 1 $810 0 $480 $-1 forward 7 unknown #
vertex $-1 $481 $811 #
ellipse-curve $-1 -41.034651797058643 -6.0727367335228024 5.8881324515357161 -0.73135370988377701 0 0.68199835119979291 0.34099917559989645 0 0.36567685494188851 1 I I #
point $-1 -41.42500633134253 -6.0727367335228024 6.9358076576773975 #
loop $-1 $-1 $492 $484 #
plane-surface $-1 -46.29047517319254 0 0 1 0 0 0 0 -1 forward_v I I I I #
coedge $-1 $670 $487 $489 $674 reversed $323 $-1 #
coedge $-1 $487 $669 $812 $813 reversed $323 $-1 #
coedge $-1 $495 $490 $487 $672 forward $485 $-1 #
edge $-1 $675 -19.758412496101215 $814 -10.709473163600968 $671 $815 forward 7 unknown #
coedge $-1 $489 $488 $678 $816 reversed $203 $-1 #
edge $-1 $817 -1.0367256691888158e-014 $675 13.268271567784677 $669 $818 forward 7 unknown #
vertex $-1 $491 $819 #
straight-curve $-1 -37.241535840692293 0 11.422030620157889 0 1 0 I I #
coedge $-1 $812 $492 $495 $682 reversed $667 $-1 #
coedge $-1 $492 $812 $673 $816 forward $667 $-1 #
vertex $-1 $493 $820 #
straight-curve $-1 -46.29047517319254 -2.9653803819835574 32.429143237028825 0 0 1 I I #
straight-curve $-1 -46.290475173192533 -2.9653803819835574 1.7182309853131272 -0.68199835119979291 0 -0.73135370988377701 I I #
edge $-1 $814 -2.9653803819835574 $496 2.9653803819835574 $677 $821 forward 7 unknown #
point $-1 -46.29047517319254 -2.9653803819835574 11.422030620157889 #
point $-1 -37.241535840692293 -2.9653803819835574 11.422030620157889 #
edge $-1 $822 1 $822 0 $499 $-1 forward 7 unknown #
vertex $-1 $500 $823 #
ellipse-curve $-1 -41.034651797058643 -1.7792282291901351 5.8881324515357161 -0.73135370988377701 0 0.68199835119979291 0.34099917559989645 0 0.36567685494188851 1 I I #
point $-1 -41.42500633134253 -1.7792282291901351 6.9358076576773975 #
edge $-1 $824 1 $824 0 $503 $-1 forward 7 unknown #
vertex $-1 $504 $825 #
ellipse-curve $-1 -41.034651797058643 0 5.8881324515357161 -0.73135370988377701 0 0.68199835119979291 0.34099917559989645 0 0.36567685494188851 1 I I #
point $-1 -41.42500633134253 0 6.9358076576773975 #
edge $-1 $826 1 $826 0 $507 $-1 forward 7 unknown #
vertex $-1 $508 $827 #
ellipse-curve $-1 -41.034651797058643 1.7792282291901351 5.8881324515357161 -0.73135370988377701 0 0.68199835119979291 0.34099917559989645 0 0.36567685494188851 1 I I #
point $-1 -41.42500633134253 1.7792282291901351 6.9358076576773975 #
loop $-1 $-1 $519 $511 #
plane-surface $-1 -46.29047517319254 0 0 1 0 0 0 0 -1 forward_v I I I I #
coedge $-1 $700 $514 $516 $704 reversed $352 $-1 #
coedge $-1 $514 $699 $828 $829 reversed $352 $-1 #
coedge $-1 $522 $517 $514 $702 forward $512 $-1 #
edge $-1 $705 -19.758412496101215 $830 -10.709473163600968 $701 $831 forward 7 unknown #
coedge $-1 $516 $515 $708 $832 reversed $222 $-1 #
edge $-1 $833 -1.0367256691888158e-014 $705 13.268271567784677 $699 $834 forward 7 unknown #
vertex $-1 $518 $835 #
straight-curve $-1 -37.241535840692293 3.9259824813564688 11.422030620157889 0 1 0 I I #
coedge $-1 $828 $519 $522 $712 reversed $697 $-1 #
coedge $-1 $519 $828 $703 $832 forward $697 $-1 #
vertex $-1 $520 $836 #
straight-curve $-1 -46.29047517319254 4.8865845807293802 32.429143237028825 0 0 1 I I #
straight-curve $-1 -46.290475173192533 4.8865845807293802 1.7182309853131272 -0.68199835119979291 0 -0.73135370988377701 I I #
edge $-1 $830 -10.817345344696495 $523 -4.8865845807293802 $707 $837 forward 7 unknown #
point $-1 -46.29047517319254 4.8865845807293802 11.422030620157889 #
point $-1 -37.241535840692293 4.8865845807293802 11.422030620157889 #
edge $-1 $838 1 $838 0 $526 $-1 forward 7 unknown #
vertex $-1 $527 $839 #
ellipse-curve $-1 -41.034651797058643 6.0727367335227989 5.8881324515357161 -0.73135370988377701 0 0.68199835119979291 0.34099917559989645 0 0.36567685494188851 1 I I #
point $-1 -41.42500633134253 6.0727367335227989 6.9358076576773975 #
edge $-1 $840 1 $840 0 $530 $-1 forward 7 unknown #
vertex $-1 $531 $841 #
ellipse-curve $-1 -41.034651797058643 7.8519649627129375 5.8881324515357161 -0.73135370988377701 0 0.68199835119979291 0.34099917559989645 0 0.36567685494188851 1 I I #
point $-1 -41.42500633134253 7.8519649627129375 6.9358076576773975 #
edge $-1 $842 1 $842 0 $534 $-1 forward 7 unknown #
vertex $-1 $535 $843 #
ellipse-curve $-1 -41.034651797058643 9.6311931919030691 5.8881324515357161 -0.73135370988377701 0 0.68199835119979291 0.34099917559989645 0 0.36567685494188851 1 I I #
point $-1 -41.42500633134253 9.6311931919030691 6.9358076576773975 #
plane-surface $-1 46.29047517319254 0 0 -1 0 0 0 0 1 forward_v I I I I #
coedge $-1 $543 $541 $545 $732 reversed $381 $-1 #
edge $-1 $556 -11.422030620157889 $734 11.422030620157889 $555 $844 forward 7 unknown #
vertex $-1 $732 $845 #
straight-curve $-1 -46.29047517319254 -28.309280768702902 0 0 0 -1 I I #
edge $-1 $730 -28.309280768702902 $734 28.309280768702902 $728 $846 forward 7 unknown #
straight-curve $-1 0 -28.309280768702902 -11.422030620157889 -1 0 0 I I #
vertex $-1 $548 $847 #
straight-curve $-1 0 28.309280768702902 -11.422030620157889 1 0 0 I I #
point $-1 46.29047517319254 28.309280768702902 -11.422030620157889 #
point $-1 46.29047517319254 -28.309280768702902 -11.422030620157889 #
straight-curve $-1 -46.29047517319254 0 11.422030620157889 0 -1 0 I I #
point $-1 -46.29047517319254 28.309280768702902 11.422030620157889 #
point $-1 -46.29047517319254 -28.309280768702902 11.422030620157889 #
straight-curve $-1 46.29047517319254 -28.309280768702902 0 0 0 -1 I I #
straight-curve $-1 46.29047517319254 28.309280768702902 0 0 0 -1 I I #
plane-surface $-1 -46.29047517319254 0 0 1 0 0 0 0 -1 forward_v I I I I #
coedge $-1 $746 $755 $750 $848 forward $566 $-1 #
coedge $-1 $569 $568 $849 $850 forward $249 $-1 #
coedge $-1 $849 $744 $570 $747 reversed $566 $-1 #
edge $-1 $748 -46.29047517319254 $751 46.29047517319254 $746 $851 forward 7 unknown #
vertex $-1 $850 $852 #
straight-curve $-1 46.29047517319254 0 -11.422030620157889 0 -1 0 I I #
coedge $-1 $578 $572 $744 $848 reversed $579 $-1 #
vertex $-1 $573 $853 #
straight-curve $-1 -46.29047517319254 0 -11.422030620157889 0 1 0 I I #
point $-1 -46.29047517319254 -28.309280768702902 -11.422030620157889 #
point $-1 46.29047517319254 -28.309280768702902 -11.422030620157889 #
coedge $-1 $744 $849 $581 $756 reversed $566 $-1 #
edge $-1 $757 -46.29047517319254 $759 46.29047517319254 $755 $854 forward 7 unknown #
vertex $-1 $582 $855 #
straight-curve $-1 -46.29047517319254 -35.134044281960286 -7.0840502662769449 0 -1 0 I I #
vertex $-1 $583 $856 #
straight-curve $-1 46.29047517319254 -35.134044281960286 -7.0840502662769449 0 1 0 I I #
plane-surface $-1 46.29047517319254 0 0 -1 0 0 0 0 1 forward_v I I I I #
coedge $-1 $769 $589 $773 $857 reversed $416 $-1 #
coedge $-1 $589 $769 $590 $766 reversed $416 $-1 #
coedge $-1 $591 $601 $589 $765 reversed $602 $-1 #
edge $-1 $767 -2.168990176940472 $858 2.168990176940472 $764 $859 forward 7 unknown #
edge $-1 $767 -46.29047517319254 $771 46.29047517319254 $763 $860 forward 7 unknown #
vertex $-1 $592 $861 #
straight-curve $-1 46.29047517319254 35.134044281960286 -7.0840502662769449 0 1 0 I I #
coedge $-1 $763 $762 $593 $770 reversed $416 $-1 #
edge $-1 $771 -2.168990176940472 $774 2.168990176940472 $769 $862 forward 7 unknown #
vertex $-1 $766 $863 #
straight-curve $-1 -46.29047517319254 35.134044281960286 -7.0840502662769449 0 -1 0 I I #
coedge $-1 $777 $595 $762 $857 forward $587 $-1 #
vertex $-1 $857 $864 #
straight-curve $-1 -46.29047517319254 35.134044281960286 -11.422030620157889 0 1 0 I I #
point $-1 -46.29047517319254 28.309280768702902 -11.422030620157889 #
coedge $-1 $599 $773 $601 $779 forward $587 $-1 #
straight-curve $-1 0 28.309280768702902 -11.422030620157889 -1 0 0 I I #
edge $-1 $858 -41.958807795217666 $603 -28.309280768702902 $601 $865 forward 7 unknown #
point $-1 46.29047517319254 28.309280768702902 -11.422030620157889 #
coedge $-1 $618 $617 $610 $782 forward $607 $-1 #
edge $-1 $783 55.892568406298786 $786 60.258928304268053 $781 $866 forward 7 unknown #
vertex $-1 $622 $867 #
straight-curve $-1 37.871573336507652 -14.659753742188137 11.422030620157891 1 0 0 I I #
edge $-1 $786 -9.4928326797741356 $619 -0.84100944505386721 $618 $868 forward 7 unknown #
vertex $-1 $785 $869 #
straight-curve $-1 -2.7699527422584396 -14.659753742188137 85.568770137462366 -0.52991925155115449 0 0.84804810408105047 I I #
point $-1 43.562070784337607 -14.659753742188137 11.422030620157884 #
point $-1 46.29047517319254 -6.0079305074678686 7.0556707221886228 #
straight-curve $-1 46.29047517319254 0 11.422030620157889 0 1 0 I I #
vertex $-1 $625 $870 #
point $-1 43.553446659096963 -12.929389095244083 7.7914244108924757 #
vertex $-1 $629 $871 #
point $-1 43.553446659096963 -10.333842124828003 7.7914244108924757 #
vertex $-1 $633 $872 #
point $-1 43.553446659096963 -7.7382951544119223 7.7914244108924757 #
edge $-1 $798 21.007112616870934 $801 30.710912251715705 $638 $873 forward 7 unknown #
vertex $-1 $652 $874 #
straight-curve $-1 -56.999948336793508 -4.8865845807293802 11.422030620157891 -1 0 0 I I #
edge $-1 $801 0.96060209937291141 $649 6.8913628633400261 $648 $875 forward 7 unknown #
vertex $-1 $800 $876 #
straight-curve $-1 -46.290475173192533 -4.8865845807293802 1.7182309853131272 0.68199835119979291 0 0.73135370988377701 I I #
point $-1 -37.241535840692293 -4.8865845807293802 11.422030620157889 #
point $-1 -46.29047517319254 -10.817345344696495 1.7182309853131197 #
straight-curve $-1 -46.29047517319254 0 11.422030620157889 0 -1 0 I I #
vertex $-1 $655 $877 #
point $-1 -40.693652621458753 -9.6311931919030727 6.2538093064776046 #
vertex $-1 $659 $878 #
point $-1 -40.693652621458753 -7.8519649627129375 6.2538093064776046 #
vertex $-1 $663 $879 #
point $-1 -40.693652621458753 -6.0727367335228024 6.2538093064776046 #
coedge $-1 $678 $677 $670 $813 forward $667 $-1 #
edge $-1 $814 21.007112616870934 $817 30.710912251715705 $812 $880 forward 7 unknown #
vertex $-1 $682 $881 #
straight-curve $-1 -56.999948336793508 2.9653803819835574 11.422030620157891 -1 0 0 I I #
edge $-1 $817 -2.9653803819835574 $679 2.9653803819835574 $678 $882 forward 7 unknown #
vertex $-1 $816 $883 #
straight-curve $-1 -46.290475173192533 2.9653803819835574 1.7182309853131272 0.68199835119979291 0 0.73135370988377701 I I #
point $-1 -37.241535840692293 2.9653803819835574 11.422030620157889 #
point $-1 -46.29047517319254 -2.9653803819835574 1.7182309853131197 #
straight-curve $-1 -46.29047517319254 0 11.422030620157889 0 -1 0 I I #
vertex $-1 $685 $884 #
point $-1 -40.693652621458753 -1.7792282291901351 6.2538093064776046 #
vertex $-1 $689 $885 #
point $-1 -40.693652621458753 0 6.2538093064776046 #
vertex $-1 $693 $886 #
point $-1 -40.693652621458753 1.7792282291901351 6.2538093064776046 #
coedge $-1 $708 $707 $700 $829 forward $697 $-1 #
edge $-1 $830 21.007112616870934 $833 30.710912251715705 $828 $887 forward 7 unknown #
vertex $-1 $712 $888 #
straight-curve $-1 -56.999948336793508 10.817345344696495 11.422030620157891 -1 0 0 I I #
edge $-1 $833 -6.8913628633400261 $709 -0.96060209937291141 $708 $889 forward 7 unknown #
vertex $-1 $832 $890 #
straight-curve $-1 -46.290475173192533 10.817345344696495 1.7182309853131272 0.68199835119979291 0 0.73135370988377701 I I #
point $-1 -37.241535840692293 10.817345344696495 11.422030620157889 #
point $-1 -46.29047517319254 4.8865845807293802 1.7182309853131197 #
straight-curve $-1 -46.29047517319254 0 11.422030620157889 0 -1 0 I I #
vertex $-1 $715 $891 #
point $-1 -40.693652621458753 6.0727367335227989 6.2538093064776046 #
vertex $-1 $719 $892 #
point $-1 -40.693652621458753 7.8519649627129375 6.2538093064776046 #
vertex $-1 $723 $893 #
point $-1 -40.693652621458753 9.6311931919030691 6.2538093064776046 #
straight-curve $-1 -46.29047517319254 28.309280768702902 0 0 0 -1 I I #
point $-1 -46.29047517319254 -28.309280768702902 -11.422030620157889 #
straight-curve $-1 -46.29047517319254 0 -11.422030620157889 0 1 0 I I #
point $-1 -46.29047517319254 28.309280768702902 -11.422030620157889 #
edge $-1 $757 -2.168990176940472 $751 2.168990176940472 $750 $894 forward 7 unknown #
coedge $-1 $755 $746 $745 $850 reversed $566 $-1 #
edge $-1 $759 -2.168990176940472 $748 2.168990176940472 $745 $895 forward 7 unknown #
straight-curve $-1 0 -41.958807795217666 -11.422030620157889 -1 0 0 I I #
point $-1 46.29047517319254 -41.958807795217666 -11.422030620157889 #
point $-1 -46.29047517319254 -41.958807795217666 -11.422030620157889 #
straight-curve $-1 0 -41.958807795217666 -7.0840502662769449 1 0 0 I I #
point $-1 -46.29047517319254 -41.958807795217666 -7.0840502662769449 #
point $-1 46.29047517319254 -41.958807795217666 -7.0840502662769449 #
edge $-1 $774 -46.29047517319254 $858 46.29047517319254 $762 $896 forward 7 unknown #
vertex $-1 $779 $897 #
straight-curve $-1 46.29047517319254 41.958807795217666 -9.2530404432174169 0 0 -1 I I #
straight-curve $-1 0 41.958807795217666 -7.0840502662769449 -1 0 0 I I #
point $-1 46.29047517319254 41.958807795217666 -7.0840502662769449 #
straight-curve $-1 -46.29047517319254 41.958807795217666 -9.2530404432174169 0 0 -1 I I #
point $-1 -46.29047517319254 41.958807795217666 -7.0840502662769449 #
point $-1 -46.29047517319254 41.958807795217666 -11.422030620157889 #
straight-curve $-1 46.29047517319254 0 -11.422030620157889 0 -1 0 I I #
straight-curve $-1 46.29047517319254 -14.659753742188137 67.314599026456676 0 0 -1 I I #
point $-1 46.29047517319254 -14.659753742188137 11.422030620157889 #
straight-curve $-1 46.290475173192533 -5.1669210624140014 7.0556707221886299 0 1 0 I I #
point $-1 46.29047517319254 -14.659753742188137 7.0556707221886228 #
point $-1 42.864462981280859 -12.929389095244083 7.9504888371574216 #
point $-1 42.864462981280859 -10.333842124828003 7.9504888371574216 #
point $-1 42.864462981280859 -7.7382951544119223 7.9504888371574216 #
straight-curve $-1 -46.29047517319254 -4.8865845807293802 32.429143237028825 0 0 -1 I I #
point $-1 -46.29047517319254 -4.8865845807293802 11.422030620157889 #
straight-curve $-1 -46.29047517319254 -3.9259824813564688 1.718230985313117 0 -1 0 I I #
point $-1 -46.29047517319254 -4.8865845807293802 1.7182309853131197 #
point $-1 -40.668974942116762 -9.6311931919030727 5.5471332759358187 #
point $-1 -40.668974942116762 -7.8519649627129375 5.5471332759358187 #
point $-1 -40.668974942116762 -6.0727367335228024 5.5471332759358187 #
straight-curve $-1 -46.29047517319254 2.9653803819835574 32.429143237028825 0 0 -1 I I #
point $-1 -46.29047517319254 2.9653803819835574 11.422030620157889 #
straight-curve $-1 -46.29047517319254 0 1.718230985313117 0 -1 0 I I #
point $-1 -46.29047517319254 2.9653803819835574 1.7182309853131197 #
point $-1 -40.668974942116762 -1.7792282291901351 5.5471332759358187 #
point $-1 -40.668974942116762 0 5.5471332759358187 #
point $-1 -40.668974942116762 1.7792282291901351 5.5471332759358187 #
straight-curve $-1 -46.29047517319254 10.817345344696495 32.429143237028825 0 0 -1 I I #
point $-1 -46.29047517319254 10.817345344696495 11.422030620157889 #
straight-curve $-1 -46.29047517319254 3.9259824813564688 1.718230985313117 0 -1 0 I I #
point $-1 -46.29047517319254 10.817345344696495 1.7182309853131197 #
point $-1 -40.668974942116762 6.0727367335227989 5.5471332759358187 #
point $-1 -40.668974942116762 7.8519649627129375 5.5471332759358187 #
point $-1 -40.668974942116762 9.6311931919030691 5.5471332759358187 #
straight-curve $-1 -46.29047517319254 -41.958807795217666 -9.2530404432174169 0 0 -1 I I #
straight-curve $-1 46.29047517319254 -41.958807795217666 -9.2530404432174169 0 0 -1 I I #
straight-curve $-1 0 41.958807795217666 -11.422030620157889 1 0 0 I I #
point $-1 46.29047517319254 41.958807795217666 -11.422030620157889 #
End-of-ACIS-data 