500 0 6 0           
7 Unknown 11 ACIS 5.0 NT 24 Thu Mar 25 16:24:41 1999 
-1 9.9999999999999995e-007 1e-010 
body $-1 $6 $-1 $7 #
body $-1 $8 $-1 $9 #
body $-1 $10 $-1 $11 #
body $-1 $12 $-1 $13 #
body $-1 $14 $-1 $15 #
body $-1 $16 $-1 $17 #
lump $-1 $-1 $18 $0 #
transform $-1 1 0 0 0 1 0 0 0 1 56.268807031464583 38.241907141529509 7.9176281697699018 1 rotate no_reflect no_shear #
lump $-1 $-1 $19 $1 #
transform $-1 1 0 0 0 1 0 0 0 1 56.268807031464583 38.241907141529509 7.9176281697699018 1 rotate no_reflect no_shear #
lump $-1 $-1 $20 $2 #
transform $-1 1 0 0 0 1 0 0 0 1 56.268807031464583 38.241907141529509 7.9176281697699018 1 rotate no_reflect no_shear #
lump $-1 $-1 $21 $3 #
transform $-1 1 0 0 0 1 0 0 0 1 56.268807031464583 38.241907141529509 7.9176281697699018 1 rotate no_reflect no_shear #
lump $-1 $-1 $22 $4 #
transform $-1 1 0 0 0 1 0 0 0 1 56.268807031464583 38.241907141529509 7.9176281697699018 1 rotate no_reflect no_shear #
lump $-1 $-1 $23 $5 #
transform $-1 1 0 0 0 1 0 0 0 1 56.268807031464583 38.241907141529509 7.9176281697699018 1 rotate no_reflect no_shear #
shell $-1 $-1 $-1 $24 $-1 $6 #
shell $-1 $-1 $-1 $25 $-1 $8 #
shell $-1 $-1 $-1 $26 $-1 $10 #
shell $-1 $-1 $-1 $27 $-1 $12 #
shell $-1 $-1 $-1 $28 $-1 $14 #
shell $-1 $-1 $-1 $29 $-1 $16 #
face $-1 $30 $31 $18 $-1 $32 forward single #
face $-1 $33 $34 $19 $-1 $35 reversed single #
face $-1 $36 $37 $20 $-1 $38 forward single #
face $-1 $39 $40 $21 $-1 $41 forward single #
face $-1 $42 $43 $22 $-1 $44 reversed single #
face $-1 $45 $46 $23 $-1 $47 forward single #
face $-1 $48 $49 $18 $-1 $50 reversed single #
loop $-1 $-1 $51 $24 #
plane-surface $-1 0 0 7.9176281697699018 0 0 1 1 0 0 forward_v I I I I #
face $-1 $52 $53 $19 $-1 $54 reversed single #
loop $-1 $-1 $55 $25 #
plane-surface $-1 13.730575003003032 30.643639692936148 137.0642230299629 1 0 0 0 -0.51503808176128008 -0.85716729658548041 forward_v I I I I #
face $-1 $56 $57 $20 $-1 $58 forward single #
loop $-1 $59 $60 $26 #
cone-surface $-1 19.479011774685738 31.684913472394548 2.941879391794878 0 -0.51503808176128008 -0.85716729658548041 1.5 0 0 1 I I 0 1 1.5 forward I I I I #
face $-1 $61 $62 $21 $-1 $63 forward single #
loop $-1 $64 $65 $27 #
cone-surface $-1 28.101666932209802 31.684913472394548 2.941879391794878 0 -0.51503808176128008 -0.85716729658548041 1.5 0 0 1 I I 0 1 1.5 forward I I I I #
face $-1 $66 $67 $22 $-1 $68 reversed single #
loop $-1 $-1 $69 $28 #
plane-surface $-1 -36.91173294411832 -132.62389274369667 63.613643111961196 -1 0 0 0 -0.83867057594974714 0.54463902268945019 forward_v I I I I #
face $-1 $70 $71 $23 $-1 $72 forward single #
loop $-1 $73 $74 $29 #
cone-surface $-1 -46.590269987791451 -34.558048289747795 3.9071989870234702 0 0.83867057594974714 -0.54463902268945019 1.5 0 0 1 I I 0 1 1.5 forward I I I I #
face $-1 $75 $76 $18 $-1 $77 reversed single #
loop $-1 $-1 $78 $30 #
plane-surface $-1 0 0 -7.9176281697699018 0 0 1 1 0 0 forward_v I I I I #
coedge $-1 $79 $80 $81 $82 forward $31 $-1 #
face $-1 $83 $84 $19 $-1 $85 reversed single #
loop $-1 $-1 $86 $33 #
plane-surface $-1 23.79033935344777 -27.317517180026144 40.600660619461763 0 0.51503808176128008 0.85716729658548041 1 0 0 forward_v I I I I #
coedge $-1 $87 $88 $89 $90 reversed $34 $-1 #
face $-1 $-1 $91 $20 $-1 $92 forward single #
loop $-1 $93 $94 $36 #
cone-surface $-1 19.479011774685738 30.324503731605375 0.6777774136011665 0 -0.51503808176128008 -0.85716729658548041 0.75 0 0 1 I I -0.70710678118654757 0.70710678118654757 0.75 forward I I I I #
loop $-1 $-1 $95 $26 #
coedge $-1 $60 $60 $96 $97 reversed $37 $-1 #
face $-1 $-1 $98 $21 $-1 $99 forward single #
loop $-1 $100 $101 $39 #
cone-surface $-1 28.101666932209802 30.324503731605375 0.6777774136011665 0 -0.51503808176128008 -0.85716729658548041 0.75 0 0 1 I I -0.70710678118654757 0.70710678118654757 0.75 forward I I I I #
loop $-1 $-1 $102 $27 #
coedge $-1 $65 $65 $103 $104 reversed $40 $-1 #
face $-1 $105 $106 $22 $-1 $107 forward single #
loop $-1 $-1 $108 $42 #
plane-surface $-1 -46.590269987791451 -38.241907141529524 2.3212669729249384 0 -0.83867057594974714 0.54463902268945019 1 0 0 forward_v I I I I #
coedge $-1 $109 $110 $111 $112 reversed $43 $-1 #
face $-1 $-1 $113 $23 $-1 $114 forward single #
loop $-1 $115 $116 $45 #
cone-surface $-1 -46.590269987791451 -32.062346175290571 2.2864711356824401 0 0.83867057594974714 -0.54463902268945019 0.75 0 0 1 I I -0.70710678118654757 0.70710678118654757 0.75 forward I I I I #
loop $-1 $-1 $117 $29 #
coedge $-1 $74 $74 $118 $119 reversed $46 $-1 #
face $-1 $120 $121 $18 $-1 $122 reversed single #
loop $-1 $-1 $123 $48 #
plane-surface $-1 0 -38.241907141529509 0 0 1 0 0 0 1 forward_v I I I I #
coedge $-1 $124 $125 $126 $127 forward $49 $-1 #
coedge $-1 $128 $51 $129 $130 forward $31 $-1 #
coedge $-1 $51 $128 $131 $132 forward $31 $-1 #
coedge $-1 $133 $134 $51 $82 reversed $135 $-1 #
edge $-1 $136 -38.241907141529509 $137 38.241907141529509 $81 $138 forward 7 unknown #
face $-1 $139 $140 $19 $-1 $141 reversed single #
loop $-1 $-1 $142 $52 #
plane-surface $-1 33.850103703892508 30.643639692936148 137.0642230299629 -1 0 0 0 0.51503808176128008 0.85716729658548041 forward_v I I I I #
coedge $-1 $143 $144 $145 $146 reversed $53 $-1 #
coedge $-1 $88 $55 $147 $148 reversed $34 $-1 #
coedge $-1 $55 $87 $143 $149 reversed $34 $-1 #
coedge $-1 $145 $150 $55 $90 forward $151 $-1 #
edge $-1 $152 -22.920087295061435 $153 -11.754362315727953 $89 $154 forward 7 unknown #
loop $-1 $-1 $96 $56 #
plane-surface $-1 23.79033935344777 -27.317517180026144 40.600660619461763 0 0.51503808176128008 0.85716729658548041 1 0 0 forward_v I I I I #
loop $-1 $-1 $155 $36 #
coedge $-1 $94 $94 $95 $156 reversed $57 $-1 #
coedge $-1 $95 $95 $94 $156 forward $59 $-1 #
coedge $-1 $96 $96 $60 $97 forward $91 $-1 #
edge $-1 $157 0 $157 6.2831853071796004 $96 $158 forward 7 unknown #
loop $-1 $-1 $103 $61 #
plane-surface $-1 23.79033935344777 -27.317517180026144 40.600660619461763 0 0.51503808176128008 0.85716729658548041 1 0 0 forward_v I I I I #
loop $-1 $-1 $159 $39 #
coedge $-1 $101 $101 $102 $160 reversed $62 $-1 #
coedge $-1 $102 $102 $101 $160 forward $64 $-1 #
coedge $-1 $103 $103 $65 $104 forward $98 $-1 #
edge $-1 $161 0 $161 6.2831853071796004 $103 $162 forward 7 unknown #
face $-1 $163 $164 $22 $-1 $165 reversed single #
loop $-1 $-1 $111 $66 #
plane-surface $-1 0 0 7.9176281697699018 0 0 1 1 0 0 forward_v I I I I #
coedge $-1 $166 $167 $168 $169 reversed $67 $-1 #
coedge $-1 $110 $69 $170 $171 reversed $43 $-1 #
coedge $-1 $69 $109 $166 $172 reversed $43 $-1 #
coedge $-1 $168 $173 $69 $112 forward $106 $-1 #
edge $-1 $174 28.070039230318827 $175 31.704358568892388 $111 $176 forward 7 unknown #
loop $-1 $-1 $118 $70 #
plane-surface $-1 -46.590269987791451 -38.241907141529524 2.3212669729249384 0 -0.83867057594974714 0.54463902268945019 1 0 0 forward_v I I I I #
loop $-1 $-1 $177 $45 #
coedge $-1 $116 $116 $117 $178 reversed $71 $-1 #
coedge $-1 $117 $117 $116 $178 forward $73 $-1 #
coedge $-1 $118 $118 $74 $119 forward $113 $-1 #
edge $-1 $179 2.9089495570898206e-016 $179 6.2831853071796004 $118 $180 forward 7 unknown #
face $-1 $181 $182 $18 $-1 $183 reversed single #
loop $-1 $-1 $184 $75 #
plane-surface $-1 -56.268807031464583 0 0 1 0 0 0 0 -1 forward_v I I I I #
coedge $-1 $185 $131 $186 $187 forward $76 $-1 #
coedge $-1 $188 $78 $185 $189 forward $49 $-1 #
coedge $-1 $78 $188 $190 $191 forward $49 $-1 #
coedge $-1 $134 $133 $78 $127 reversed $135 $-1 #
edge $-1 $192 -38.241907141529509 $193 38.241907141529509 $126 $194 forward 7 unknown #
coedge $-1 $80 $79 $195 $196 forward $31 $-1 #
coedge $-1 $197 $198 $79 $130 reversed $182 $-1 #
edge $-1 $137 -56.268807031464583 $199 56.268807031464583 $129 $200 forward 7 unknown #
coedge $-1 $123 $201 $80 $132 reversed $76 $-1 #
edge $-1 $202 -56.268807031464583 $136 56.268807031464583 $131 $203 forward 7 unknown #
coedge $-1 $126 $81 $201 $204 forward $135 $-1 #
coedge $-1 $81 $126 $197 $205 reversed $135 $-1 #
loop $-1 $-1 $133 $181 #
vertex $-1 $82 $206 #
vertex $-1 $82 $207 #
straight-curve $-1 56.268807031464583 0 7.9176281697699018 0 1 0 I I #
face $-1 $-1 $151 $19 $-1 $208 forward single #
loop $-1 $-1 $209 $83 #
plane-surface $-1 0 38.241907141529509 0 0 -1 0 0 0 -1 forward_v I I I I #
coedge $-1 $210 $211 $212 $213 reversed $84 $-1 #
coedge $-1 $214 $86 $88 $149 forward $53 $-1 #
coedge $-1 $86 $214 $210 $215 forward $53 $-1 #
coedge $-1 $212 $89 $86 $146 forward $151 $-1 #
edge $-1 $153 1.8354053262791474 $216 21.954934027168623 $145 $217 forward 7 unknown #
coedge $-1 $218 $219 $87 $148 forward $140 $-1 #
edge $-1 $220 -67.323527889652411 $152 -60.614483345211553 $147 $221 forward 7 unknown #
edge $-1 $153 63.457506555486972 $220 76.483814283059019 $88 $222 forward 7 unknown #
coedge $-1 $89 $212 $218 $223 forward $151 $-1 #
loop $-1 $-1 $212 $139 #
vertex $-1 $148 $224 #
vertex $-1 $90 $225 #
straight-curve $-1 13.730575003003032 15.321819846468074 7.9176281697698982 0 -1 0 I I #
coedge $-1 $155 $155 $-1 $226 reversed $93 $-1 #
edge $-1 $227 0 $227 6.2831853071796004 $94 $228 forward 7 unknown #
vertex $-1 $97 $229 #
ellipse-curve $-1 19.479011774685738 32.659044651862757 4.5631058975494785 0 0.51503808176128008 0.85716729658548041 1.5 0 0 1 I I #
coedge $-1 $159 $159 $-1 $230 reversed $100 $-1 #
edge $-1 $231 0 $231 6.2831853071796004 $101 $232 forward 7 unknown #
vertex $-1 $104 $233 #
ellipse-curve $-1 28.101666932209802 32.659044651862757 4.5631058975494785 0 0.51503808176128008 0.85716729658548041 1.5 0 0 1 I I #
face $-1 $-1 $234 $22 $-1 $235 reversed single #
loop $-1 $-1 $236 $105 #
plane-surface $-1 -56.268807031464583 0 0 1 0 0 0 0 -1 forward_v I I I I #
coedge $-1 $237 $108 $110 $172 forward $67 $-1 #
coedge $-1 $108 $237 $236 $238 reversed $67 $-1 #
coedge $-1 $239 $111 $108 $169 forward $106 $-1 #
edge $-1 $175 13.616597950222594 $240 32.973672037568861 $168 $241 forward 7 unknown #
coedge $-1 $242 $243 $109 $171 forward $234 $-1 #
edge $-1 $244 -29.485554583055638 $174 -23.889193386210696 $170 $245 forward 7 unknown #
edge $-1 $175 -6.672895600882863 $244 -2.5989569140172373e-014 $110 $246 forward 7 unknown #
coedge $-1 $111 $239 $242 $247 forward $106 $-1 #
vertex $-1 $171 $248 #
vertex $-1 $112 $249 #
straight-curve $-1 -36.91173294411832 -66.311946371848336 7.9176281697699018 0 1 0 I I #
coedge $-1 $177 $177 $-1 $250 reversed $115 $-1 #
edge $-1 $251 0 $251 6.2831853071796004 $116 $252 forward 7 unknown #
vertex $-1 $119 $253 #
ellipse-curve $-1 -46.590269987791451 -36.424747472242736 5.1194475713474272 0 -0.83867057594974714 0.54463902268945019 1.5 0 0 1 I I #
face $-1 $-1 $135 $18 $-1 $254 reversed single #
loop $-1 $-1 $197 $120 #
plane-surface $-1 0 38.241907141529509 0 0 -1 0 0 0 -1 forward_v I I I I #
coedge $-1 $255 $195 $198 $256 forward $121 $-1 #
coedge $-1 $201 $123 $124 $189 reversed $76 $-1 #
coedge $-1 $195 $255 $123 $187 reversed $121 $-1 #
edge $-1 $202 -7.9176281697699018 $257 7.9176281697699018 $186 $258 forward 7 unknown #
coedge $-1 $125 $124 $255 $259 forward $49 $-1 #
edge $-1 $193 -56.268807031464583 $257 56.268807031464583 $185 $260 forward 7 unknown #
coedge $-1 $198 $197 $125 $191 reversed $182 $-1 #
edge $-1 $261 -56.268807031464583 $192 56.268807031464583 $190 $262 forward 7 unknown #
vertex $-1 $127 $263 #
vertex $-1 $204 $264 #
straight-curve $-1 56.268807031464583 0 -7.9176281697699018 0 -1 0 I I #
coedge $-1 $184 $186 $128 $196 reversed $121 $-1 #
edge $-1 $199 -38.241907141529509 $202 38.241907141529509 $195 $265 forward 7 unknown #
coedge $-1 $190 $129 $134 $205 forward $182 $-1 #
coedge $-1 $129 $190 $184 $256 reversed $182 $-1 #
vertex $-1 $130 $266 #
straight-curve $-1 0 38.241907141529509 7.9176281697699018 -1 0 0 I I #
coedge $-1 $131 $185 $133 $204 reversed $76 $-1 #
vertex $-1 $196 $267 #
straight-curve $-1 0 -38.241907141529509 7.9176281697699018 1 0 0 I I #
edge $-1 $136 -7.9176281697699018 $193 7.9176281697699018 $133 $268 forward 7 unknown #
edge $-1 $137 -7.9176281697699018 $192 7.9176281697699018 $134 $269 forward 7 unknown #
point $-1 56.268807031464583 -38.241907141529509 7.9176281697699018 #
point $-1 56.268807031464583 38.241907141529509 7.9176281697699018 #
plane-surface $-1 0 0 7.9176281697699018 0 0 1 1 0 0 forward_v I I I I #
coedge $-1 $219 $218 $211 $270 forward $140 $-1 #
coedge $-1 $211 $142 $144 $215 reversed $84 $-1 #
coedge $-1 $142 $210 $209 $270 reversed $84 $-1 #
coedge $-1 $150 $145 $142 $213 forward $151 $-1 #
edge $-1 $216 11.754362315727953 $271 22.920087295061435 $212 $272 forward 7 unknown #
coedge $-1 $144 $143 $219 $273 reversed $53 $-1 #
edge $-1 $274 -76.483814283059019 $216 -63.457506555486972 $210 $275 forward 7 unknown #
vertex $-1 $146 $276 #
straight-curve $-1 11.895169676723885 27.076182162196023 7.9176281697699018 1 0 0 I I #
coedge $-1 $209 $147 $150 $223 reversed $140 $-1 #
coedge $-1 $147 $209 $214 $273 forward $140 $-1 #
vertex $-1 $148 $277 #
straight-curve $-1 13.730575003003032 38.241907141529509 68.532111514981452 0 0 1 I I #
straight-curve $-1 13.730575003003032 -27.317517180026144 40.600660619461763 0 0.85716729658548041 -0.51503808176128008 I I #
edge $-1 $271 -33.850103703892508 $152 -13.730575003003032 $218 $278 forward 7 unknown #
point $-1 13.730575003003032 38.241907141529509 7.9176281697699018 #
point $-1 13.730575003003032 27.076182162196027 7.9176281697698982 #
edge $-1 $279 1 $279 0 $155 $-1 forward 7 unknown #
vertex $-1 $156 $280 #
ellipse-curve $-1 19.479011774685738 30.710782292926336 1.3206528860402769 0 0.51503808176128008 0.85716729658548041 1.5 0 0 1 I I #
point $-1 20.979011774685738 32.659044651862757 4.5631058975494785 #
edge $-1 $281 1 $281 0 $159 $-1 forward 7 unknown #
vertex $-1 $160 $282 #
ellipse-curve $-1 28.101666932209802 30.710782292926336 1.3206528860402769 0 0.51503808176128008 0.85716729658548041 1.5 0 0 1 I I #
point $-1 29.601666932209802 32.659044651862757 4.5631058975494785 #
loop $-1 $-1 $170 $163 #
plane-surface $-1 0 -38.241907141529509 0 0 1 0 0 0 1 forward_v I I I I #
coedge $-1 $283 $284 $167 $238 forward $164 $-1 #
coedge $-1 $167 $166 $243 $285 reversed $67 $-1 #
edge $-1 $240 2.7677327102307658 $286 9.4406283111136027 $236 $287 forward 7 unknown #
coedge $-1 $173 $168 $284 $288 forward $106 $-1 #
vertex $-1 $288 $289 #
straight-curve $-1 -23.295134993895726 -34.607587802955948 7.9176281697699018 -1 0 0 I I #
coedge $-1 $290 $170 $173 $247 reversed $234 $-1 #
coedge $-1 $170 $290 $237 $285 forward $234 $-1 #
vertex $-1 $171 $291 #
straight-curve $-1 -36.91173294411832 -38.241907141529509 31.806821555980598 0 0 1 I I #
straight-curve $-1 -36.91173294411832 -38.241907141529524 2.3212669729249384 0 -0.54463902268945019 -0.83867057594974714 I I #
edge $-1 $292 -56.268807031464583 $174 -36.91173294411832 $242 $293 forward 7 unknown #
point $-1 -36.91173294411832 -38.241907141529509 7.9176281697699018 #
point $-1 -36.91173294411832 -34.607587802955948 7.9176281697699018 #
edge $-1 $294 1 $294 0 $177 $-1 forward 7 unknown #
vertex $-1 $178 $295 #
ellipse-curve $-1 -46.590269987791451 -32.691349107252883 2.6949504026995279 0 -0.83867057594974714 0.54463902268945019 1.5 0 0 1 I I #
point $-1 -45.090269987791451 -36.424747472242714 5.1194475713474139 #
plane-surface $-1 56.268807031464583 0 0 -1 0 0 0 0 1 forward_v I I I I #
coedge $-1 $186 $184 $188 $259 reversed $121 $-1 #
edge $-1 $199 -7.9176281697699018 $261 7.9176281697699018 $198 $296 forward 7 unknown #
vertex $-1 $259 $297 #
straight-curve $-1 -56.268807031464583 -38.241907141529509 0 0 0 -1 I I #
edge $-1 $257 -38.241907141529509 $261 38.241907141529509 $255 $298 forward 7 unknown #
straight-curve $-1 0 -38.241907141529509 -7.9176281697699018 -1 0 0 I I #
vertex $-1 $191 $299 #
straight-curve $-1 0 38.241907141529509 -7.9176281697699018 1 0 0 I I #
point $-1 56.268807031464583 38.241907141529509 -7.9176281697699018 #
point $-1 56.268807031464583 -38.241907141529509 -7.9176281697699018 #
straight-curve $-1 -56.268807031464583 0 7.9176281697699018 0 -1 0 I I #
point $-1 -56.268807031464583 38.241907141529509 7.9176281697699018 #
point $-1 -56.268807031464583 -38.241907141529509 7.9176281697699018 #
straight-curve $-1 56.268807031464583 -38.241907141529509 0 0 0 -1 I I #
straight-curve $-1 56.268807031464583 38.241907141529509 0 0 0 -1 I I #
edge $-1 $271 60.614483345211553 $274 67.323527889652411 $209 $300 forward 7 unknown #
vertex $-1 $223 $301 #
straight-curve $-1 33.850103703892508 15.321819846468074 7.9176281697698982 0 1 0 I I #
edge $-1 $274 -21.954934027168623 $220 -1.8354053262791474 $219 $302 forward 7 unknown #
vertex $-1 $273 $303 #
straight-curve $-1 33.850103703892508 -27.317517180026144 40.600660619461763 0 -0.85716729658548041 0.51503808176128008 I I #
point $-1 33.850103703892508 27.076182162196027 7.9176281697698982 #
point $-1 13.730575003003032 38.241907141529509 1.2085836253290481 #
straight-curve $-1 0 38.241907141529509 7.9176281697699018 -1 0 0 I I #
vertex $-1 $226 $304 #
point $-1 20.979011774685738 30.710782292926336 1.3206528860402769 #
vertex $-1 $230 $305 #
point $-1 29.601666932209802 30.710782292926336 1.3206528860402769 #
coedge $-1 $284 $236 $290 $306 reversed $164 $-1 #
coedge $-1 $236 $283 $239 $288 reversed $164 $-1 #
edge $-1 $286 -32.973672037568861 $244 -13.616597950222594 $243 $307 forward 7 unknown #
vertex $-1 $238 $308 #
straight-curve $-1 -56.268807031464583 -33.100172564590245 10.238844155934096 0 -0.54463902268945019 -0.83867057594974714 I I #
edge $-1 $240 34.607587802955948 $292 38.241907141529509 $284 $309 forward 7 unknown #
point $-1 -56.268807031464583 -34.607587802955948 7.9176281697699018 #
coedge $-1 $243 $242 $283 $306 forward $234 $-1 #
point $-1 -36.91173294411832 -38.241907141529509 2.3212669729249602 #
vertex $-1 $288 $310 #
straight-curve $-1 0 -38.241907141529509 7.9176281697699018 1 0 0 I I #
vertex $-1 $250 $311 #
point $-1 -45.090269987791451 -32.691349107252883 2.6949504026995279 #
straight-curve $-1 -56.268807031464583 38.241907141529509 0 0 0 -1 I I #
point $-1 -56.268807031464583 -38.241907141529509 -7.9176281697699018 #
straight-curve $-1 -56.268807031464583 0 -7.9176281697699018 0 1 0 I I #
point $-1 -56.268807031464583 38.241907141529509 -7.9176281697699018 #
straight-curve $-1 33.850103703892508 38.241907141529509 68.532111514981452 0 0 -1 I I #
point $-1 33.850103703892508 38.241907141529509 7.9176281697699018 #
straight-curve $-1 11.895169676723885 38.241907141529509 1.2085836253290481 -1 0 0 I I #
point $-1 33.850103703892508 38.241907141529509 1.2085836253290481 #
point $-1 19.479011774685738 29.938225170284415 0.034901941162056138 #
point $-1 28.101666932209802 29.938225170284415 0.034901941162056138 #
edge $-1 $292 -7.9176281697699018 $286 -2.3212669729249602 $283 $312 forward 7 unknown #
straight-curve $-1 -23.295134993895726 -38.241907141529509 2.3212669729249567 1 0 0 I I #
point $-1 -56.268807031464583 -38.241907141529509 2.3212669729249602 #
straight-curve $-1 -56.268807031464583 0 7.9176281697699018 0 -1 0 I I #
point $-1 -56.268807031464583 -38.241907141529509 7.9176281697699018 #
point $-1 -46.590269987791451 -31.43334324332826 1.8779918686653525 #
straight-curve $-1 -56.268807031464583 -38.241907141529509 0 0 0 -1 I I #
End-of-ACIS-data 