500 0 8 0           
7 Unknown 11 ACIS 5.0 NT 24 Fri Mar 26 00:15:31 1999 
-1 9.9999999999999995e-007 1e-010 
body $-1 $8 $-1 $9 #
body $-1 $10 $-1 $11 #
body $-1 $12 $-1 $13 #
body $-1 $14 $-1 $15 #
body $-1 $16 $-1 $17 #
body $-1 $18 $-1 $19 #
body $-1 $20 $-1 $21 #
body $-1 $22 $-1 $23 #
lump $-1 $-1 $24 $0 #
transform $-1 1 0 0 0 1 0 0 0 1 64.160893581957453 37.705465834311624 17.596152556089244 1 rotate no_reflect no_shear #
lump $-1 $-1 $25 $1 #
transform $-1 1 0 0 0 1 0 0 0 1 64.160893581957453 37.705465834311624 17.596152556089244 1 rotate no_reflect no_shear #
lump $-1 $-1 $26 $2 #
transform $-1 1 0 0 0 1 0 0 0 1 64.160893581957453 37.705465834311624 17.596152556089244 1 rotate no_reflect no_shear #
lump $-1 $-1 $27 $3 #
transform $-1 1 0 0 0 1 0 0 0 1 64.160893581957453 37.705465834311624 17.596152556089244 1 rotate no_reflect no_shear #
lump $-1 $-1 $28 $4 #
transform $-1 1 0 0 0 1 0 0 0 1 64.160893581957453 37.705465834311624 17.596152556089244 1 rotate no_reflect no_shear #
lump $-1 $-1 $29 $5 #
transform $-1 1 0 0 0 1 0 0 0 1 64.160893581957453 37.705465834311624 17.596152556089244 1 rotate no_reflect no_shear #
lump $-1 $-1 $30 $6 #
transform $-1 1 0 0 0 1 0 0 0 1 64.160893581957453 37.705465834311624 17.596152556089244 1 rotate no_reflect no_shear #
lump $-1 $-1 $31 $7 #
transform $-1 1 0 0 0 1 0 0 0 1 64.160893581957453 37.705465834311624 17.596152556089244 1 rotate no_reflect no_shear #
shell $-1 $-1 $-1 $32 $-1 $8 #
shell $-1 $-1 $-1 $33 $-1 $10 #
shell $-1 $-1 $-1 $34 $-1 $12 #
shell $-1 $-1 $-1 $35 $-1 $14 #
shell $-1 $-1 $-1 $36 $-1 $16 #
shell $-1 $-1 $-1 $37 $-1 $18 #
shell $-1 $-1 $-1 $38 $-1 $20 #
shell $-1 $-1 $-1 $39 $-1 $22 #
face $-1 $40 $41 $24 $-1 $42 forward single #
face $-1 $43 $44 $25 $-1 $45 reversed single #
face $-1 $46 $47 $26 $-1 $48 reversed single #
face $-1 $49 $50 $27 $-1 $51 forward single #
face $-1 $52 $53 $28 $-1 $54 reversed single #
face $-1 $55 $56 $29 $-1 $57 forward single #
face $-1 $58 $59 $30 $-1 $60 forward single #
face $-1 $61 $62 $31 $-1 $63 forward single #
face $-1 $64 $65 $24 $-1 $66 reversed single #
loop $-1 $-1 $67 $32 #
plane-surface $-1 0 0 17.596152556089244 0 0 1 1 0 0 forward_v I I I I #
face $-1 $68 $69 $25 $-1 $70 reversed single #
loop $-1 $-1 $71 $33 #
plane-surface $-1 -60.8298844968973 -16.412644468485198 0 0 -1 0 0 0 -1 forward_v I I I I #
face $-1 $72 $73 $26 $-1 $74 reversed single #
loop $-1 $-1 $75 $34 #
plane-surface $-1 98.787846347628033 17.224904126179592 191.92029816874546 0 -1 0 -0.82903758062907751 0 -0.55919289150049634 forward_v I I I I #
face $-1 $76 $77 $27 $-1 $78 forward single #
loop $-1 $79 $80 $35 #
cone-surface $-1 62.218042964388289 11.485417807424191 15.245731294719585 -0.82903758062907751 0 -0.55919289150049634 0.27959644575024817 0 -0.41451879031453875 1 I I 0 1 0.5 forward I I I I #
face $-1 $81 $82 $28 $-1 $83 reversed single #
loop $-1 $-1 $84 $36 #
plane-surface $-1 -64.160893581957453 -9.7796233019761019 6.0367766179424933 -0.77714596973225614 0 0.62932038083071107 0.62932038083071107 0 0.77714596973225614 forward_v I I I I #
face $-1 $85 $86 $29 $-1 $87 forward single #
loop $-1 $88 $89 $37 #
cone-surface $-1 -58.295795121663659 -13.759436001881561 10.857032853125117 0.77714596973225614 0 -0.62932038083071107 0.62932038083071107 0 0.77714596973225614 1 I I 0 1 1 forward I I I I #
face $-1 $90 $91 $30 $-1 $92 forward single #
loop $-1 $93 $94 $38 #
cone-surface $-1 -58.295795121663659 -9.7796233019761019 10.857032853125117 0.77714596973225614 0 -0.62932038083071107 0.62932038083071107 0 0.77714596973225614 1 I I 0 1 1 forward I I I I #
face $-1 $95 $96 $31 $-1 $97 forward single #
loop $-1 $98 $99 $39 #
cone-surface $-1 -58.295795121663659 -5.799810602070643 10.857032853125117 0.77714596973225614 0 -0.62932038083071107 0.62932038083071107 0 0.77714596973225614 1 I I 0 1 1 forward I I I I #
face $-1 $100 $101 $24 $-1 $102 reversed single #
loop $-1 $-1 $103 $40 #
plane-surface $-1 0 0 -17.596152556089244 0 0 1 1 0 0 forward_v I I I I #
coedge $-1 $104 $105 $106 $107 forward $41 $-1 #
face $-1 $108 $109 $25 $-1 $110 forward single #
loop $-1 $-1 $111 $43 #
plane-surface $-1 -57.498875411837147 -27.059055151398411 0 -1 0 0 0 0 1 forward_v I I I I #
coedge $-1 $112 $113 $114 $115 forward $44 $-1 #
face $-1 $116 $117 $26 $-1 $118 reversed single #
loop $-1 $-1 $119 $46 #
plane-surface $-1 -7.5957376247433928 11.485417807424184 120.16366696204462 0.82903758062907751 0 0.55919289150049634 0.55919289150049634 0 -0.82903758062907751 forward_v I I I I #
coedge $-1 $120 $121 $122 $123 reversed $47 $-1 #
face $-1 $-1 $124 $27 $-1 $125 forward single #
loop $-1 $126 $127 $49 #
cone-surface $-1 61.354918623283652 11.485417807424191 14.663546593682845 -0.82903758062907751 0 -0.55919289150049634 0.13979822287512408 0 -0.20725939515726938 1 I I -0.70710678118654746 0.70710678118654746 0.25 forward I I I I #
loop $-1 $-1 $128 $35 #
coedge $-1 $80 $80 $129 $130 reversed $50 $-1 #
face $-1 $131 $132 $28 $-1 $133 forward single #
loop $-1 $-1 $134 $52 #
plane-surface $-1 -163.88565330523429 -3.1466021354670062 86.792292584814874 0 -1 0 0.77714596973225614 0 -0.62932038083071107 forward_v I I I I #
coedge $-1 $135 $136 $137 $138 reversed $53 $-1 #
face $-1 $-1 $139 $29 $-1 $140 forward single #
loop $-1 $141 $142 $55 #
cone-surface $-1 -56.722422584871055 -13.759436001881561 9.5829409288190135 0.77714596973225614 0 -0.62932038083071107 0.31466019041535553 0 0.38857298486612807 1 I I -0.70710678118654746 0.70710678118654746 0.5 forward I I I I #
loop $-1 $-1 $143 $37 #
coedge $-1 $89 $89 $144 $145 reversed $56 $-1 #
face $-1 $-1 $146 $30 $-1 $147 forward single #
loop $-1 $148 $149 $58 #
cone-surface $-1 -56.722422584871055 -9.7796233019761019 9.5829409288190135 0.77714596973225614 0 -0.62932038083071107 0.31466019041535553 0 0.38857298486612807 1 I I -0.70710678118654746 0.70710678118654746 0.5 forward I I I I #
loop $-1 $-1 $150 $38 #
coedge $-1 $94 $94 $151 $152 reversed $59 $-1 #
face $-1 $-1 $153 $31 $-1 $154 forward single #
loop $-1 $155 $156 $61 #
cone-surface $-1 -56.722422584871055 -5.799810602070643 9.5829409288190135 0.77714596973225614 0 -0.62932038083071107 0.31466019041535553 0 0.38857298486612807 1 I I -0.70710678118654746 0.70710678118654746 0.5 forward I I I I #
loop $-1 $-1 $157 $39 #
coedge $-1 $99 $99 $158 $159 reversed $62 $-1 #
face $-1 $160 $161 $24 $-1 $162 reversed single #
loop $-1 $-1 $163 $64 #
plane-surface $-1 0 -37.705465834311624 0 0 1 0 0 0 1 forward_v I I I I #
coedge $-1 $164 $165 $166 $167 forward $65 $-1 #
coedge $-1 $168 $67 $169 $170 forward $41 $-1 #
coedge $-1 $67 $168 $171 $172 forward $41 $-1 #
coedge $-1 $173 $174 $67 $107 reversed $175 $-1 #
edge $-1 $176 -37.705465834311624 $177 37.705465834311624 $106 $178 forward 7 unknown #
face $-1 $179 $180 $25 $-1 $181 reversed single #
loop $-1 $-1 $182 $68 #
plane-surface $-1 0 0 17.596152556089244 0 0 1 1 0 0 forward_v I I I I #
coedge $-1 $183 $184 $185 $186 reversed $69 $-1 #
coedge $-1 $187 $71 $188 $189 reversed $44 $-1 #
coedge $-1 $71 $187 $190 $191 reversed $44 $-1 #
coedge $-1 $184 $183 $71 $115 reversed $69 $-1 #
edge $-1 $192 -17.596152556089244 $193 17.596152556089244 $114 $194 forward 7 unknown #
face $-1 $195 $196 $26 $-1 $197 reversed single #
loop $-1 $-1 $198 $72 #
plane-surface $-1 98.787846347628033 5.7459314886687771 191.92029816874546 0 1 0 0.82903758062907751 0 0.55919289150049634 forward_v I I I I #
coedge $-1 $199 $200 $201 $202 reversed $73 $-1 #
coedge $-1 $121 $75 $203 $204 reversed $47 $-1 #
coedge $-1 $75 $120 $199 $205 reversed $47 $-1 #
coedge $-1 $201 $206 $75 $123 forward $207 $-1 #
edge $-1 $208 -14.766970408143436 $209 -12.192999064899851 $122 $210 forward 7 unknown #
loop $-1 $-1 $129 $76 #
plane-surface $-1 -7.5957376247433928 11.485417807424184 120.16366696204462 0.82903758062907751 0 0.55919289150049634 0.55919289150049634 0 -0.82903758062907751 forward_v I I I I #
loop $-1 $-1 $211 $49 #
coedge $-1 $127 $127 $128 $212 reversed $77 $-1 #
coedge $-1 $128 $128 $127 $212 forward $79 $-1 #
coedge $-1 $129 $129 $80 $130 forward $124 $-1 #
edge $-1 $213 0 $213 6.2831853071796004 $129 $214 forward 7 unknown #
face $-1 $215 $216 $28 $-1 $217 forward single #
loop $-1 $-1 $218 $81 #
plane-surface $-1 0 0 17.596152556089244 0 0 1 1 0 0 forward_v I I I I #
coedge $-1 $219 $220 $221 $222 reversed $82 $-1 #
coedge $-1 $223 $84 $224 $225 reversed $53 $-1 #
coedge $-1 $84 $223 $219 $226 forward $53 $-1 #
coedge $-1 $221 $218 $84 $138 forward $132 $-1 #
edge $-1 $227 -11.522832817497147 $228 1.7432095155210448 $137 $229 forward 7 unknown #
loop $-1 $-1 $144 $85 #
plane-surface $-1 -64.160893581957453 -9.7796233019761019 6.0367766179424933 -0.77714596973225614 0 0.62932038083071107 0.62932038083071107 0 0.77714596973225614 forward_v I I I I #
loop $-1 $-1 $230 $55 #
coedge $-1 $142 $142 $143 $231 reversed $86 $-1 #
coedge $-1 $143 $143 $142 $231 forward $88 $-1 #
coedge $-1 $144 $144 $89 $145 forward $139 $-1 #
edge $-1 $232 0 $232 6.2831853071796004 $144 $233 forward 7 unknown #
loop $-1 $-1 $151 $90 #
plane-surface $-1 -64.160893581957453 -9.7796233019761019 6.0367766179424933 -0.77714596973225614 0 0.62932038083071107 0.62932038083071107 0 0.77714596973225614 forward_v I I I I #
loop $-1 $-1 $234 $58 #
coedge $-1 $149 $149 $150 $235 reversed $91 $-1 #
coedge $-1 $150 $150 $149 $235 forward $93 $-1 #
coedge $-1 $151 $151 $94 $152 forward $146 $-1 #
edge $-1 $236 0 $236 6.2831853071796004 $151 $237 forward 7 unknown #
loop $-1 $-1 $158 $95 #
plane-surface $-1 -64.160893581957453 -9.7796233019761019 6.0367766179424933 -0.77714596973225614 0 0.62932038083071107 0.62932038083071107 0 0.77714596973225614 forward_v I I I I #
loop $-1 $-1 $238 $61 #
coedge $-1 $156 $156 $157 $239 reversed $96 $-1 #
coedge $-1 $157 $157 $156 $239 forward $98 $-1 #
coedge $-1 $158 $158 $99 $159 forward $153 $-1 #
edge $-1 $240 0 $240 6.2831853071796004 $158 $241 forward 7 unknown #
face $-1 $242 $243 $24 $-1 $244 reversed single #
loop $-1 $-1 $245 $100 #
plane-surface $-1 -64.160893581957453 0 0 1 0 0 0 0 -1 forward_v I I I I #
coedge $-1 $246 $171 $247 $248 forward $101 $-1 #
coedge $-1 $249 $103 $246 $250 forward $65 $-1 #
coedge $-1 $103 $249 $251 $252 forward $65 $-1 #
coedge $-1 $174 $173 $103 $167 reversed $175 $-1 #
edge $-1 $253 -37.705465834311624 $254 37.705465834311624 $166 $255 forward 7 unknown #
coedge $-1 $105 $104 $256 $257 forward $41 $-1 #
coedge $-1 $258 $259 $104 $170 reversed $243 $-1 #
edge $-1 $177 -64.160893581957453 $260 64.160893581957453 $169 $261 forward 7 unknown #
coedge $-1 $163 $262 $105 $172 reversed $101 $-1 #
edge $-1 $263 -64.160893581957453 $176 64.160893581957453 $171 $264 forward 7 unknown #
coedge $-1 $166 $106 $262 $265 forward $175 $-1 #
coedge $-1 $106 $166 $258 $266 reversed $175 $-1 #
loop $-1 $-1 $173 $242 #
vertex $-1 $107 $267 #
vertex $-1 $107 $268 #
straight-curve $-1 64.160893581957453 0 17.596152556089244 0 1 0 I I #
face $-1 $269 $270 $25 $-1 $271 reversed single #
loop $-1 $-1 $272 $108 #
plane-surface $-1 -64.160893581957453 0 0 1 0 0 0 0 -1 forward_v I I I I #
coedge $-1 $190 $273 $184 $274 forward $109 $-1 #
coedge $-1 $114 $111 $275 $276 reversed $69 $-1 #
coedge $-1 $111 $114 $182 $274 reversed $69 $-1 #
coedge $-1 $277 $278 $111 $186 forward $279 $-1 #
edge $-1 $280 -17.596152556089244 $281 17.596152556089244 $185 $282 forward 7 unknown #
coedge $-1 $113 $112 $272 $283 reversed $44 $-1 #
coedge $-1 $275 $284 $112 $189 forward $270 $-1 #
edge $-1 $285 -33.745951333508799 $193 -27.083933163388497 $188 $286 forward 7 unknown #
coedge $-1 $287 $182 $113 $191 forward $109 $-1 #
edge $-1 $192 27.083933163388497 $288 33.745951333508799 $190 $289 forward 7 unknown #
vertex $-1 $191 $290 #
vertex $-1 $189 $291 #
straight-curve $-1 -57.498875411837147 -16.412644468485198 0 0 0 -1 I I #
face $-1 $-1 $207 $26 $-1 $292 forward single #
loop $-1 $-1 $293 $116 #
plane-surface $-1 64.160893581957453 0 0 -1 0 0 0 0 1 forward_v I I I I #
coedge $-1 $294 $295 $296 $297 reversed $117 $-1 #
coedge $-1 $298 $119 $121 $205 forward $73 $-1 #
coedge $-1 $119 $298 $294 $299 forward $73 $-1 #
coedge $-1 $296 $122 $119 $202 forward $207 $-1 #
edge $-1 $209 -11.482195222467499 $300 -0.0032225849566849263 $201 $301 forward 7 unknown #
coedge $-1 $302 $303 $120 $204 forward $196 $-1 #
edge $-1 $304 -82.180066094699541 $208 -78.363996528283479 $203 $305 forward 7 unknown #
edge $-1 $209 123.71877560499328 $304 128.32178716391491 $121 $306 forward 7 unknown #
coedge $-1 $122 $296 $302 $307 forward $207 $-1 #
loop $-1 $-1 $296 $195 #
vertex $-1 $204 $308 #
vertex $-1 $123 $309 #
straight-curve $-1 49.393923173814017 17.224904126179592 17.596152556089251 -1 0 0 I I #
coedge $-1 $211 $211 $-1 $310 reversed $126 $-1 #
edge $-1 $311 0 $311 6.2831853071796004 $127 $312 forward 7 unknown #
vertex $-1 $130 $313 #
ellipse-curve $-1 62.87390791033566 11.485417807424191 15.688117772881206 0.82903758062907751 0 0.55919289150049634 0.27959644575024817 0 -0.41451879031453875 1 I I #
face $-1 $-1 $314 $28 $-1 $315 reversed single #
loop $-1 $-1 $224 $131 #
plane-surface $-1 -60.8298844968973 -16.412644468485198 0 0 -1 0 0 0 -1 forward_v I I I I #
coedge $-1 $137 $316 $317 $318 forward $132 $-1 #
coedge $-1 $220 $134 $136 $226 reversed $82 $-1 #
coedge $-1 $134 $219 $319 $320 reversed $82 $-1 #
coedge $-1 $316 $137 $134 $222 forward $132 $-1 #
edge $-1 $228 -27.142530887394315 $321 -17.78193307065969 $221 $322 forward 7 unknown #
coedge $-1 $136 $135 $323 $324 reversed $53 $-1 #
coedge $-1 $317 $325 $135 $225 forward $216 $-1 #
edge $-1 $326 1.2975923564236613 $227 16.171729762204983 $224 $327 forward 7 unknown #
edge $-1 $328 0 $228 14.874137405781322 $219 $329 forward 7 unknown #
vertex $-1 $138 $330 #
vertex $-1 $138 $331 #
straight-curve $-1 -54.80029576522282 -4.8898116509880509 17.596152556089244 0 1 0 I I #
coedge $-1 $230 $230 $-1 $332 reversed $141 $-1 #
edge $-1 $333 0 $333 6.2831853071796004 $142 $334 forward 7 unknown #
vertex $-1 $145 $335 #
ellipse-curve $-1 -59.48059467359014 -13.759436001881561 11.816464587015869 -0.77714596973225614 0 0.62932038083071107 0.62932038083071107 0 0.77714596973225614 1 I I #
coedge $-1 $234 $234 $-1 $336 reversed $148 $-1 #
edge $-1 $337 0 $337 6.2831853071796004 $149 $338 forward 7 unknown #
vertex $-1 $152 $339 #
ellipse-curve $-1 -59.48059467359014 -9.7796233019761019 11.816464587015869 -0.77714596973225614 0 0.62932038083071107 0.62932038083071107 0 0.77714596973225614 1 I I #
coedge $-1 $238 $238 $-1 $340 reversed $155 $-1 #
edge $-1 $341 0 $341 6.2831853071796004 $156 $342 forward 7 unknown #
vertex $-1 $159 $343 #
ellipse-curve $-1 -59.48059467359014 -5.799810602070643 11.816464587015869 -0.77714596973225614 0 0.62932038083071107 0.62932038083071107 0 0.77714596973225614 1 I I #
face $-1 $-1 $175 $24 $-1 $344 reversed single #
loop $-1 $-1 $258 $160 #
plane-surface $-1 0 37.705465834311624 0 0 -1 0 0 0 -1 forward_v I I I I #
coedge $-1 $345 $256 $259 $346 forward $161 $-1 #
coedge $-1 $262 $163 $164 $250 reversed $101 $-1 #
coedge $-1 $256 $345 $163 $248 reversed $161 $-1 #
edge $-1 $263 -17.596152556089244 $347 17.596152556089244 $247 $348 forward 7 unknown #
coedge $-1 $165 $164 $345 $349 forward $65 $-1 #
edge $-1 $254 -64.160893581957453 $347 64.160893581957453 $246 $350 forward 7 unknown #
coedge $-1 $259 $258 $165 $252 reversed $243 $-1 #
edge $-1 $351 -64.160893581957453 $253 64.160893581957453 $251 $352 forward 7 unknown #
vertex $-1 $167 $353 #
vertex $-1 $265 $354 #
straight-curve $-1 64.160893581957453 0 -17.596152556089244 0 -1 0 I I #
coedge $-1 $245 $247 $168 $257 reversed $161 $-1 #
edge $-1 $260 -37.705465834311624 $263 37.705465834311624 $256 $355 forward 7 unknown #
coedge $-1 $251 $169 $174 $266 forward $243 $-1 #
coedge $-1 $169 $251 $245 $346 reversed $243 $-1 #
vertex $-1 $170 $356 #
straight-curve $-1 0 37.705465834311624 17.596152556089244 -1 0 0 I I #
coedge $-1 $171 $246 $173 $265 reversed $101 $-1 #
vertex $-1 $257 $357 #
straight-curve $-1 0 -37.705465834311624 17.596152556089244 1 0 0 I I #
edge $-1 $176 -17.596152556089244 $254 17.596152556089244 $173 $358 forward 7 unknown #
edge $-1 $177 -17.596152556089244 $253 17.596152556089244 $174 $359 forward 7 unknown #
point $-1 64.160893581957453 -37.705465834311624 17.596152556089244 #
point $-1 64.160893581957453 37.705465834311624 17.596152556089244 #
face $-1 $-1 $279 $25 $-1 $360 reversed single #
loop $-1 $-1 $275 $179 #
plane-surface $-1 0 0 -17.596152556089244 0 0 1 1 0 0 forward_v I I I I #
coedge $-1 $361 $362 $187 $283 forward $180 $-1 #
coedge $-1 $182 $287 $277 $363 forward $109 $-1 #
edge $-1 $281 -24.175938258612419 $192 -2.883116892785992 $182 $364 forward 7 unknown #
coedge $-1 $365 $188 $183 $276 forward $270 $-1 #
edge $-1 $193 2.883116892785992 $280 24.175938258612419 $275 $366 forward 7 unknown #
coedge $-1 $367 $185 $273 $363 reversed $279 $-1 #
coedge $-1 $185 $367 $365 $368 reversed $279 $-1 #
loop $-1 $-1 $185 $269 #
vertex $-1 $368 $369 #
vertex $-1 $186 $370 #
straight-curve $-1 -57.498875411837147 -37.705465834311624 0 0 0 1 I I #
edge $-1 $288 -17.596152556089244 $285 17.596152556089244 $272 $371 forward 7 unknown #
coedge $-1 $188 $365 $361 $372 forward $270 $-1 #
vertex $-1 $189 $373 #
straight-curve $-1 -30.41494224844865 -16.412644468485198 -17.596152556089244 1 0 0 I I #
coedge $-1 $273 $190 $362 $374 forward $109 $-1 #
vertex $-1 $374 $375 #
straight-curve $-1 -30.41494224844865 -16.412644468485198 17.596152556089244 -1 0 0 I I #
point $-1 -57.498875411837147 -16.412644468485198 17.596152556089244 #
point $-1 -57.498875411837147 -16.412644468485198 -17.596152556089244 #
plane-surface $-1 0 0 17.596152556089244 0 0 1 1 0 0 forward_v I I I I #
coedge $-1 $303 $302 $295 $376 forward $196 $-1 #
coedge $-1 $295 $198 $200 $299 reversed $117 $-1 #
coedge $-1 $198 $294 $293 $376 reversed $117 $-1 #
coedge $-1 $206 $201 $198 $297 forward $207 $-1 #
edge $-1 $300 12.192999064899851 $377 14.766970408143436 $296 $378 forward 7 unknown #
coedge $-1 $200 $199 $303 $379 reversed $73 $-1 #
edge $-1 $380 -128.32178716391491 $300 -123.71877560499328 $294 $381 forward 7 unknown #
vertex $-1 $202 $382 #
straight-curve $-1 61.586922238713875 5.7427089037120922 17.596152556089251 0 -1 0 I I #
coedge $-1 $293 $203 $206 $307 reversed $196 $-1 #
coedge $-1 $203 $293 $298 $379 forward $196 $-1 #
vertex $-1 $204 $383 #
straight-curve $-1 64.160893581957453 17.224904126179592 95.96014908437273 0 0 1 I I #
straight-curve $-1 -7.5957376247433928 17.224904126179592 120.16366696204462 0.55919289150049634 0 -0.82903758062907751 I I #
edge $-1 $377 5.7459314886687771 $208 17.224904126179592 $302 $384 forward 7 unknown #
point $-1 64.160893581957453 17.224904126179592 17.596152556089244 #
point $-1 61.586922238713868 17.224904126179592 17.596152556089251 #
edge $-1 $385 1 $385 0 $211 $-1 forward 7 unknown #
vertex $-1 $212 $386 #
ellipse-curve $-1 61.562178018440925 11.485417807424191 14.803344816557969 0.82903758062907751 0 0.55919289150049634 0.27959644575024817 0 -0.41451879031453875 1 I I #
point $-1 63.153504356085897 11.485417807424191 15.273598982566661 #
loop $-1 $-1 $323 $215 #
plane-surface $-1 -64.160893581957453 0 0 1 0 0 0 0 -1 forward_v I I I I #
coedge $-1 $218 $221 $387 $388 forward $132 $-1 #
coedge $-1 $325 $224 $218 $318 reversed $216 $-1 #
edge $-1 $389 -33.745951333508799 $227 -24.385353516774178 $218 $390 forward 7 unknown #
coedge $-1 $323 $387 $220 $320 forward $314 $-1 #
edge $-1 $321 25.799993736318193 $328 37.359369674464944 $319 $391 forward 7 unknown #
vertex $-1 $388 $392 #
straight-curve $-1 -81.942826652617143 -3.1466021354670062 17.596152556089244 -1 0 0 I I #
coedge $-1 $393 $319 $223 $324 forward $314 $-1 #
edge $-1 $328 -1.7432095155210448 $326 11.522832817497147 $323 $394 forward 7 unknown #
coedge $-1 $224 $317 $393 $395 reversed $216 $-1 #
vertex $-1 $395 $396 #
straight-curve $-1 -64.977494897865014 -16.412644468485198 5.0283579477924665 0.62932038083071107 0 0.77714596973225614 I I #
vertex $-1 $324 $397 #
straight-curve $-1 -64.160893581957453 -3.1466021354670062 6.0367766179424933 0.62932038083071107 0 0.77714596973225614 I I #
point $-1 -54.800295765222828 -16.412644468485198 17.596152556089244 #
point $-1 -54.800295765222828 -3.1466021354670062 17.596152556089244 #
edge $-1 $398 1 $398 0 $230 $-1 forward 7 unknown #
vertex $-1 $231 $399 #
ellipse-curve $-1 -57.110995569737184 -13.759436001881561 9.8976011192343698 -0.77714596973225614 0 0.62932038083071107 0.62932038083071107 0 0.77714596973225614 1 I I #
point $-1 -58.851274292759427 -13.759436001881561 12.593610556748121 #
edge $-1 $400 1 $400 0 $234 $-1 forward 7 unknown #
vertex $-1 $235 $401 #
ellipse-curve $-1 -57.110995569737184 -9.7796233019761019 9.8976011192343698 -0.77714596973225614 0 0.62932038083071107 0.62932038083071107 0 0.77714596973225614 1 I I #
point $-1 -58.851274292759427 -9.7796233019761019 12.593610556748121 #
edge $-1 $402 1 $402 0 $238 $-1 forward 7 unknown #
vertex $-1 $239 $403 #
ellipse-curve $-1 -57.110995569737184 -5.799810602070643 9.8976011192343698 -0.77714596973225614 0 0.62932038083071107 0.62932038083071107 0 0.77714596973225614 1 I I #
point $-1 -58.851274292759427 -5.799810602070643 12.593610556748121 #
plane-surface $-1 64.160893581957453 0 0 -1 0 0 0 0 1 forward_v I I I I #
coedge $-1 $247 $245 $249 $349 reversed $161 $-1 #
edge $-1 $260 -17.596152556089244 $351 17.596152556089244 $259 $404 forward 7 unknown #
vertex $-1 $349 $405 #
straight-curve $-1 -64.160893581957453 -37.705465834311624 0 0 0 -1 I I #
edge $-1 $347 -37.705465834311624 $351 37.705465834311624 $345 $406 forward 7 unknown #
straight-curve $-1 0 -37.705465834311624 -17.596152556089244 -1 0 0 I I #
vertex $-1 $252 $407 #
straight-curve $-1 0 37.705465834311624 -17.596152556089244 1 0 0 I I #
point $-1 64.160893581957453 37.705465834311624 -17.596152556089244 #
point $-1 64.160893581957453 -37.705465834311624 -17.596152556089244 #
straight-curve $-1 -64.160893581957453 0 17.596152556089244 0 -1 0 I I #
point $-1 -64.160893581957453 37.705465834311624 17.596152556089244 #
point $-1 -64.160893581957453 -37.705465834311624 17.596152556089244 #
straight-curve $-1 64.160893581957453 -37.705465834311624 0 0 0 -1 I I #
straight-curve $-1 64.160893581957453 37.705465834311624 0 0 0 -1 I I #
plane-surface $-1 0 -37.705465834311624 0 0 1 0 0 0 1 forward_v I I I I #
coedge $-1 $408 $272 $284 $372 reversed $180 $-1 #
coedge $-1 $272 $408 $287 $374 reversed $180 $-1 #
edge $-1 $409 -64.160893581957453 $281 -57.498875411837147 $277 $410 forward 7 unknown #
straight-curve $-1 -57.498875411837147 -13.529527575699205 17.596152556089244 0 1 0 I I #
coedge $-1 $284 $275 $278 $368 forward $270 $-1 #
straight-curve $-1 -57.498875411837147 -13.529527575699205 -17.596152556089244 0 -1 0 I I #
coedge $-1 $278 $277 $408 $411 forward $279 $-1 #
edge $-1 $280 57.498875411837147 $412 64.160893581957453 $278 $413 forward 7 unknown #
point $-1 -57.498875411837147 -37.705465834311624 -17.596152556089244 #
point $-1 -57.498875411837147 -37.705465834311624 17.596152556089244 #
straight-curve $-1 -64.160893581957453 -16.412644468485198 0 0 0 -1 I I #
edge $-1 $412 -37.705465834311624 $285 -16.412644468485198 $361 $414 forward 7 unknown #
point $-1 -64.160893581957453 -16.412644468485198 -17.596152556089244 #
edge $-1 $288 16.412644468485198 $409 37.705465834311624 $362 $415 forward 7 unknown #
point $-1 -64.160893581957453 -16.412644468485198 17.596152556089244 #
edge $-1 $377 78.363996528283479 $380 82.180066094699541 $293 $416 forward 7 unknown #
vertex $-1 $307 $417 #
straight-curve $-1 49.393923173814017 5.7459314886687771 17.596152556089251 1 0 0 I I #
edge $-1 $380 0.0032225849566849263 $304 11.482195222467499 $303 $418 forward 7 unknown #
vertex $-1 $379 $419 #
straight-curve $-1 -7.5957376247433928 5.7459314886687771 120.16366696204462 -0.55919289150049634 0 0.82903758062907751 I I #
point $-1 61.586922238713868 5.7459314886687771 17.596152556089251 #
point $-1 64.160893581957453 17.224904126179592 13.78008298967319 #
straight-curve $-1 64.160893581957453 0 17.596152556089244 0 1 0 I I #
vertex $-1 $310 $420 #
point $-1 61.841774464191168 11.485417807424191 14.38882602624343 #
coedge $-1 $319 $393 $316 $388 reversed $314 $-1 #
edge $-1 $321 3.1466021354670062 $389 16.412644468485198 $387 $421 forward 7 unknown #
vertex $-1 $395 $422 #
straight-curve $-1 -30.41494224844865 -16.412644468485198 17.596152556089244 1 0 0 I I #
straight-curve $-1 -64.160893581957453 -3.1466021354670062 43.396146292407437 0 0 -1 I I #
point $-1 -64.160893581957453 -3.1466021354670062 17.596152556089244 #
coedge $-1 $387 $323 $325 $395 forward $314 $-1 #
straight-curve $-1 -64.160893581957453 -4.8898116509880509 6.0367766179424978 0 -1 0 I I #
edge $-1 $326 6.0367766179424933 $389 17.596152556089244 $393 $423 forward 7 unknown #
point $-1 -64.160893581957453 -16.412644468485198 6.0367766179424933 #
point $-1 -64.160893581957453 -3.1466021354670062 6.0367766179424933 #
vertex $-1 $332 $424 #
point $-1 -56.481675188906472 -13.759436001881561 10.674747088966626 #
vertex $-1 $336 $425 #
point $-1 -56.481675188906472 -9.7796233019761019 10.674747088966626 #
vertex $-1 $340 $426 #
point $-1 -56.481675188906472 -5.799810602070643 10.674747088966626 #
straight-curve $-1 -64.160893581957453 37.705465834311624 0 0 0 -1 I I #
point $-1 -64.160893581957453 -37.705465834311624 -17.596152556089244 #
straight-curve $-1 -64.160893581957453 0 -17.596152556089244 0 1 0 I I #
point $-1 -64.160893581957453 37.705465834311624 -17.596152556089244 #
coedge $-1 $362 $361 $367 $411 reversed $180 $-1 #
vertex $-1 $374 $427 #
straight-curve $-1 0 -37.705465834311624 17.596152556089244 1 0 0 I I #
edge $-1 $409 -17.596152556089244 $412 17.596152556089244 $408 $428 forward 7 unknown #
vertex $-1 $372 $429 #
straight-curve $-1 0 -37.705465834311624 -17.596152556089244 -1 0 0 I I #
straight-curve $-1 -64.160893581957453 0 -17.596152556089244 0 1 0 I I #
straight-curve $-1 -64.160893581957453 0 17.596152556089244 0 -1 0 I I #
straight-curve $-1 64.160893581957453 5.7459314886687771 95.96014908437273 0 0 -1 I I #
point $-1 64.160893581957453 5.7459314886687771 17.596152556089244 #
straight-curve $-1 64.160893581957453 5.7427089037120922 13.780082989673183 0 1 0 I I #
point $-1 64.160893581957453 5.7459314886687771 13.78008298967319 #
point $-1 61.147659228126379 11.485417807424191 14.523748370807722 #
straight-curve $-1 -64.160893581957453 0 17.596152556089244 0 -1 0 I I #
point $-1 -64.160893581957453 -16.412644468485198 17.596152556089244 #
straight-curve $-1 -64.160893581957453 -16.412644468485198 0 0 0 1 I I #
point $-1 -56.333849600004925 -13.759436001881561 9.2682807384036572 #
point $-1 -56.333849600004925 -9.7796233019761019 9.2682807384036572 #
point $-1 -56.333849600004925 -5.799810602070643 9.2682807384036572 #
point $-1 -64.160893581957453 -37.705465834311624 17.596152556089244 #
straight-curve $-1 -64.160893581957453 -37.705465834311624 0 0 0 -1 I I #
point $-1 -64.160893581957453 -37.705465834311624 -17.596152556089244 #
End-of-ACIS-data 