500 0 9 0           
7 Unknown 11 ACIS 5.0 NT 24 Thu Mar 25 15:58:47 1999 
-1 9.9999999999999995e-007 1e-010 
body $-1 $9 $-1 $10 #
body $-1 $11 $-1 $12 #
body $-1 $13 $-1 $14 #
body $-1 $15 $-1 $16 #
body $-1 $17 $-1 $18 #
body $-1 $19 $-1 $20 #
body $-1 $21 $-1 $22 #
body $-1 $23 $-1 $24 #
body $-1 $25 $-1 $26 #
lump $-1 $-1 $27 $0 #
transform $-1 1 0 0 0 1 0 0 0 1 58.306222724082154 24.874854234580198 12.368420975442406 1 rotate no_reflect no_shear #
lump $-1 $-1 $28 $1 #
transform $-1 1 0 0 0 1 0 0 0 1 58.306222724082154 24.874854234580198 12.368420975442406 1 rotate no_reflect no_shear #
lump $-1 $-1 $29 $2 #
transform $-1 1 0 0 0 1 0 0 0 1 58.306222724082154 24.874854234580198 12.368420975442406 1 rotate no_reflect no_shear #
lump $-1 $-1 $30 $3 #
transform $-1 1 0 0 0 1 0 0 0 1 58.306222724082154 24.874854234580198 12.368420975442406 1 rotate no_reflect no_shear #
lump $-1 $-1 $31 $4 #
transform $-1 1 0 0 0 1 0 0 0 1 58.306222724082154 24.874854234580198 12.368420975442406 1 rotate no_reflect no_shear #
lump $-1 $-1 $32 $5 #
transform $-1 1 0 0 0 1 0 0 0 1 58.306222724082154 24.874854234580198 12.368420975442406 1 rotate no_reflect no_shear #
lump $-1 $-1 $33 $6 #
transform $-1 1 0 0 0 1 0 0 0 1 58.306222724082154 24.874854234580198 12.368420975442406 1 rotate no_reflect no_shear #
lump $-1 $-1 $34 $7 #
transform $-1 1 0 0 0 1 0 0 0 1 58.306222724082154 24.874854234580198 12.368420975442406 1 rotate no_reflect no_shear #
lump $-1 $-1 $35 $8 #
transform $-1 1 0 0 0 1 0 0 0 1 58.306222724082154 24.874854234580198 12.368420975442406 1 rotate no_reflect no_shear #
shell $-1 $-1 $-1 $36 $-1 $9 #
shell $-1 $-1 $-1 $37 $-1 $11 #
shell $-1 $-1 $-1 $38 $-1 $13 #
shell $-1 $-1 $-1 $39 $-1 $15 #
shell $-1 $-1 $-1 $40 $-1 $17 #
shell $-1 $-1 $-1 $41 $-1 $19 #
shell $-1 $-1 $-1 $42 $-1 $21 #
shell $-1 $-1 $-1 $43 $-1 $23 #
shell $-1 $-1 $-1 $44 $-1 $25 #
face $-1 $45 $46 $27 $-1 $47 forward single #
face $-1 $48 $49 $28 $-1 $50 reversed single #
face $-1 $51 $52 $29 $-1 $53 reversed single #
face $-1 $54 $55 $30 $-1 $56 reversed single #
face $-1 $57 $58 $31 $-1 $59 forward single #
face $-1 $60 $61 $32 $-1 $62 reversed single #
face $-1 $63 $64 $33 $-1 $65 forward single #
face $-1 $66 $67 $34 $-1 $68 forward single #
face $-1 $69 $70 $35 $-1 $71 forward single #
face $-1 $72 $73 $27 $-1 $74 reversed single #
loop $-1 $-1 $75 $36 #
plane-surface $-1 0 0 12.368420975442406 0 0 1 1 0 0 forward_v I I I I #
face $-1 $76 $77 $28 $-1 $78 reversed single #
loop $-1 $-1 $79 $37 #
plane-surface $-1 -53.440888970295248 -7.9383957237360381 0 0 1 0 0 0 1 forward_v I I I I #
face $-1 $80 $81 $29 $-1 $82 reversed single #
loop $-1 $-1 $83 $38 #
plane-surface $-1 53.440888970295241 -7.9383957237360381 0 0 1 0 0 0 1 forward_v I I I I #
face $-1 $84 $85 $30 $-1 $86 reversed single #
loop $-1 $-1 $87 $39 #
plane-surface $-1 11.323882167728065 93.731270549990072 114.93361225798014 1 0 0 0 -0.82903758062907751 -0.55919289150049634 forward_v I I I I #
face $-1 $88 $89 $31 $-1 $90 forward single #
loop $-1 $91 $92 $40 #
cone-surface $-1 20.383304009324924 23.149078376151312 10.144805920272246 0 -0.82903758062907751 -0.55919289150049634 0.5 0 0 1 I I 0 1 0.5 forward I I I I #
face $-1 $93 $94 $32 $-1 $95 reversed single #
loop $-1 $-1 $96 $41 #
plane-surface $-1 -38.111508643698933 -98.26144491657945 96.528365022319051 -1 0 0 0 -0.62932039886446345 0.77714595512881146 forward_v I I I I #
face $-1 $97 $98 $33 $-1 $99 forward single #
loop $-1 $100 $101 $42 #
cone-surface $-1 -46.482745901946458 -20.378821398330437 8.5132373295310408 0 0.62932039886446345 -0.77714595512881146 0.5 0 0 1 I I 0 1 0.5 forward I I I I #
face $-1 $102 $103 $34 $-1 $104 forward single #
loop $-1 $105 $106 $43 #
cone-surface $-1 -43.343531930103637 -20.378821398330437 8.5132373295310408 0 0.62932039886446345 -0.77714595512881146 0.5 0 0 1 I I 0 1 0.5 forward I I I I #
face $-1 $107 $108 $35 $-1 $109 forward single #
loop $-1 $110 $111 $44 #
cone-surface $-1 -40.204317958260816 -20.378821398330437 8.5132373295310408 0 0.62932039886446345 -0.77714595512881146 0.5 0 0 1 I I 0 1 0.5 forward I I I I #
face $-1 $112 $113 $27 $-1 $114 reversed single #
loop $-1 $-1 $115 $45 #
plane-surface $-1 0 0 -12.368420975442406 0 0 1 1 0 0 forward_v I I I I #
coedge $-1 $116 $117 $118 $119 forward $46 $-1 #
face $-1 $120 $121 $28 $-1 $122 reversed single #
loop $-1 $-1 $123 $48 #
plane-surface $-1 -53.440888970295248 -4.3250668675844235 0 0 -1 0 0 0 -1 forward_v I I I I #
coedge $-1 $124 $125 $126 $127 reversed $49 $-1 #
face $-1 $128 $129 $29 $-1 $130 reversed single #
loop $-1 $-1 $131 $51 #
plane-surface $-1 48.575555216508334 -6.1317312956602308 0 1 0 0 0 0 -1 forward_v I I I I #
coedge $-1 $132 $133 $134 $135 forward $52 $-1 #
face $-1 $136 $137 $30 $-1 $138 reversed single #
loop $-1 $-1 $139 $54 #
plane-surface $-1 20.383304009324924 -2.9448290955963472 49.724761702877245 0 0.82903758062907751 0.55919289150049634 1 0 0 forward_v I I I I #
coedge $-1 $140 $141 $142 $143 reversed $55 $-1 #
face $-1 $-1 $144 $31 $-1 $145 forward single #
loop $-1 $146 $147 $57 #
cone-surface $-1 20.383304009324924 22.527300190679505 9.7254112516468734 0 -0.82903758062907751 -0.55919289150049634 0.25 0 0 1 I I -0.70710678118654746 0.70710678118654746 0.25 forward I I I I #
loop $-1 $-1 $148 $40 #
coedge $-1 $92 $92 $149 $150 reversed $58 $-1 #
face $-1 $151 $152 $32 $-1 $153 reversed single #
loop $-1 $-1 $154 $60 #
plane-surface $-1 -43.343531930103637 -24.874854234580198 5.9034747245989792 0 -0.62932039886446345 0.77714595512881146 1 0 0 forward_v I I I I #
coedge $-1 $155 $156 $157 $158 reversed $61 $-1 #
face $-1 $-1 $159 $33 $-1 $160 forward single #
loop $-1 $161 $162 $63 #
cone-surface $-1 -46.482745901946458 -19.717230251451447 7.696240320259184 0 0.62932039886446345 -0.77714595512881146 0.25 0 0 1 I I -0.70710678118654746 0.70710678118654746 0.25 forward I I I I #
loop $-1 $-1 $163 $42 #
coedge $-1 $101 $101 $164 $165 reversed $64 $-1 #
face $-1 $-1 $166 $34 $-1 $167 forward single #
loop $-1 $168 $169 $66 #
cone-surface $-1 -43.343531930103637 -19.717230251451447 7.696240320259184 0 0.62932039886446345 -0.77714595512881146 0.25 0 0 1 I I -0.70710678118654746 0.70710678118654746 0.25 forward I I I I #
loop $-1 $-1 $170 $43 #
coedge $-1 $106 $106 $171 $172 reversed $67 $-1 #
face $-1 $-1 $173 $35 $-1 $174 forward single #
loop $-1 $175 $176 $69 #
cone-surface $-1 -40.204317958260816 -19.717230251451447 7.696240320259184 0 0.62932039886446345 -0.77714595512881146 0.25 0 0 1 I I -0.70710678118654746 0.70710678118654746 0.25 forward I I I I #
loop $-1 $-1 $177 $44 #
coedge $-1 $111 $111 $178 $179 reversed $70 $-1 #
face $-1 $180 $181 $27 $-1 $182 reversed single #
loop $-1 $-1 $183 $72 #
plane-surface $-1 0 -24.874854234580198 0 0 1 0 0 0 1 forward_v I I I I #
coedge $-1 $184 $185 $186 $187 forward $73 $-1 #
coedge $-1 $188 $75 $189 $190 forward $46 $-1 #
coedge $-1 $75 $188 $191 $192 forward $46 $-1 #
coedge $-1 $193 $194 $75 $119 reversed $195 $-1 #
edge $-1 $196 -24.874854234580198 $197 24.874854234580198 $118 $198 forward 7 unknown #
face $-1 $199 $200 $28 $-1 $201 reversed single #
loop $-1 $-1 $202 $76 #
plane-surface $-1 -48.575555216508342 -6.1317312956602308 0 -1 0 0 0 0 1 forward_v I I I I #
coedge $-1 $203 $204 $205 $206 forward $77 $-1 #
coedge $-1 $207 $79 $208 $209 reversed $49 $-1 #
coedge $-1 $79 $207 $210 $211 reversed $49 $-1 #
coedge $-1 $212 $213 $79 $127 forward $214 $-1 #
edge $-1 $215 -12.368420975442406 $216 12.368420975442406 $126 $217 forward 7 unknown #
face $-1 $218 $219 $29 $-1 $220 reversed single #
loop $-1 $-1 $221 $80 #
plane-surface $-1 53.440888970295241 -4.3250668675844235 0 0 -1 0 0 0 -1 forward_v I I I I #
coedge $-1 $222 $223 $224 $225 forward $81 $-1 #
coedge $-1 $226 $83 $227 $228 reversed $52 $-1 #
coedge $-1 $83 $226 $229 $230 reversed $52 $-1 #
coedge $-1 $223 $222 $83 $135 reversed $81 $-1 #
edge $-1 $231 -12.368420975442406 $232 12.368420975442406 $134 $233 forward 7 unknown #
face $-1 $234 $235 $30 $-1 $236 reversed single #
loop $-1 $-1 $237 $84 #
plane-surface $-1 29.442725850921782 93.731270549990072 114.93361225798014 -1 0 0 0 0.82903758062907751 0.55919289150049634 forward_v I I I I #
coedge $-1 $238 $239 $240 $241 reversed $85 $-1 #
coedge $-1 $141 $87 $242 $243 reversed $55 $-1 #
coedge $-1 $87 $140 $238 $244 reversed $55 $-1 #
coedge $-1 $240 $245 $87 $143 forward $246 $-1 #
edge $-1 $247 21.990781040414838 $248 24.61329517664354 $142 $249 forward 7 unknown #
loop $-1 $-1 $149 $88 #
plane-surface $-1 20.383304009324924 -2.9448290955963472 49.724761702877245 0 0.82903758062907751 0.55919289150049634 1 0 0 forward_v I I I I #
loop $-1 $-1 $250 $57 #
coedge $-1 $147 $147 $148 $251 reversed $89 $-1 #
coedge $-1 $148 $148 $147 $251 forward $91 $-1 #
coedge $-1 $149 $149 $92 $150 forward $144 $-1 #
edge $-1 $252 -3.834723672875115e-015 $252 6.2831853071795969 $149 $253 forward 7 unknown #
face $-1 $254 $255 $32 $-1 $256 forward single #
loop $-1 $-1 $257 $93 #
plane-surface $-1 -48.575555216508342 -98.26144491657945 96.528365022319051 1 0 0 0 0.62932039886446345 -0.77714595512881146 forward_v I I I I #
coedge $-1 $258 $259 $260 $261 reversed $94 $-1 #
coedge $-1 $156 $96 $262 $263 reversed $61 $-1 #
coedge $-1 $96 $155 $258 $264 reversed $61 $-1 #
coedge $-1 $260 $265 $96 $158 forward $255 $-1 #
edge $-1 $266 24.255868223709527 $267 32.2394118018833 $157 $268 forward 7 unknown #
loop $-1 $-1 $164 $97 #
plane-surface $-1 -43.343531930103637 -24.874854234580198 5.9034747245989792 0 -0.62932039886446345 0.77714595512881146 1 0 0 forward_v I I I I #
loop $-1 $-1 $269 $63 #
coedge $-1 $162 $162 $163 $270 reversed $98 $-1 #
coedge $-1 $163 $163 $162 $270 forward $100 $-1 #
coedge $-1 $164 $164 $101 $165 forward $159 $-1 #
edge $-1 $271 2.2357951893939665e-015 $271 6.2831853071796031 $164 $272 forward 7 unknown #
loop $-1 $-1 $171 $102 #
plane-surface $-1 -43.343531930103637 -24.874854234580198 5.9034747245989792 0 -0.62932039886446345 0.77714595512881146 1 0 0 forward_v I I I I #
loop $-1 $-1 $273 $66 #
coedge $-1 $169 $169 $170 $274 reversed $103 $-1 #
coedge $-1 $170 $170 $169 $274 forward $105 $-1 #
coedge $-1 $171 $171 $106 $172 forward $166 $-1 #
edge $-1 $275 2.2357951893939665e-015 $275 6.2831853071796031 $171 $276 forward 7 unknown #
loop $-1 $-1 $178 $107 #
plane-surface $-1 -43.343531930103637 -24.874854234580198 5.9034747245989792 0 -0.62932039886446345 0.77714595512881146 1 0 0 forward_v I I I I #
loop $-1 $-1 $277 $69 #
coedge $-1 $176 $176 $177 $278 reversed $108 $-1 #
coedge $-1 $177 $177 $176 $278 forward $110 $-1 #
coedge $-1 $178 $178 $111 $179 forward $173 $-1 #
edge $-1 $279 2.2357951893939665e-015 $279 6.2831853071796031 $178 $280 forward 7 unknown #
face $-1 $281 $282 $27 $-1 $283 reversed single #
loop $-1 $-1 $284 $112 #
plane-surface $-1 -58.306222724082154 0 0 1 0 0 0 0 -1 forward_v I I I I #
coedge $-1 $285 $191 $286 $287 forward $113 $-1 #
coedge $-1 $288 $115 $285 $289 forward $73 $-1 #
coedge $-1 $115 $288 $290 $291 forward $73 $-1 #
coedge $-1 $194 $193 $115 $187 reversed $195 $-1 #
edge $-1 $292 -24.874854234580198 $293 24.874854234580198 $186 $294 forward 7 unknown #
coedge $-1 $117 $116 $295 $296 forward $46 $-1 #
coedge $-1 $297 $298 $116 $190 reversed $282 $-1 #
edge $-1 $197 -58.306222724082154 $299 58.306222724082154 $189 $300 forward 7 unknown #
coedge $-1 $183 $301 $117 $192 reversed $113 $-1 #
edge $-1 $302 -58.306222724082154 $196 58.306222724082154 $191 $303 forward 7 unknown #
coedge $-1 $186 $118 $301 $304 forward $195 $-1 #
coedge $-1 $118 $186 $297 $305 reversed $195 $-1 #
loop $-1 $-1 $193 $281 #
vertex $-1 $119 $306 #
vertex $-1 $119 $307 #
straight-curve $-1 58.306222724082154 0 12.368420975442406 0 1 0 I I #
face $-1 $308 $309 $28 $-1 $310 forward single #
loop $-1 $-1 $311 $120 #
plane-surface $-1 0 0 -12.368420975442406 0 0 1 1 0 0 forward_v I I I I #
coedge $-1 $312 $313 $207 $314 forward $121 $-1 #
coedge $-1 $315 $123 $311 $316 reversed $77 $-1 #
coedge $-1 $123 $315 $317 $318 reversed $77 $-1 #
coedge $-1 $313 $312 $123 $206 reversed $121 $-1 #
edge $-1 $319 -12.368420975442406 $320 12.368420975442406 $205 $321 forward 7 unknown #
coedge $-1 $125 $124 $202 $314 reversed $49 $-1 #
coedge $-1 $322 $323 $124 $209 forward $200 $-1 #
edge $-1 $324 21.855110731360718 $215 31.58577823893453 $208 $325 forward 7 unknown #
coedge $-1 $326 $327 $125 $211 forward $309 $-1 #
edge $-1 $216 -31.58577823893453 $328 -21.855110731360718 $210 $329 forward 7 unknown #
coedge $-1 $330 $126 $327 $331 reversed $214 $-1 #
coedge $-1 $126 $330 $322 $332 reversed $214 $-1 #
loop $-1 $-1 $330 $308 #
vertex $-1 $332 $333 #
vertex $-1 $127 $334 #
straight-curve $-1 -58.306222724082154 -7.9383957237360381 0 0 0 1 I I #
face $-1 $335 $336 $29 $-1 $337 forward single #
loop $-1 $-1 $227 $128 #
plane-surface $-1 0 0 -12.368420975442406 0 0 1 1 0 0 forward_v I I I I #
coedge $-1 $338 $339 $340 $341 reversed $129 $-1 #
coedge $-1 $134 $131 $342 $343 reversed $81 $-1 #
coedge $-1 $131 $134 $344 $345 reversed $81 $-1 #
coedge $-1 $339 $338 $131 $225 reversed $129 $-1 #
edge $-1 $346 -12.368420975442406 $347 12.368420975442406 $224 $348 forward 7 unknown #
coedge $-1 $133 $132 $349 $350 reversed $52 $-1 #
coedge $-1 $342 $351 $132 $228 forward $219 $-1 #
edge $-1 $352 -31.585778238934527 $232 -21.855110731360714 $227 $353 forward 7 unknown #
coedge $-1 $354 $344 $133 $230 forward $336 $-1 #
edge $-1 $231 21.855110731360714 $355 31.585778238934527 $229 $356 forward 7 unknown #
vertex $-1 $230 $357 #
vertex $-1 $228 $358 #
straight-curve $-1 48.575555216508334 -7.9383957237360381 0 0 0 -1 I I #
face $-1 $-1 $246 $30 $-1 $359 forward single #
loop $-1 $-1 $360 $136 #
plane-surface $-1 0 24.874854234580198 0 0 -1 0 0 0 -1 forward_v I I I I #
coedge $-1 $361 $362 $363 $364 reversed $137 $-1 #
coedge $-1 $365 $139 $141 $244 forward $85 $-1 #
coedge $-1 $139 $365 $361 $366 forward $85 $-1 #
coedge $-1 $363 $142 $139 $241 forward $246 $-1 #
edge $-1 $248 1.1322301630656035 $367 19.25107384625932 $240 $368 forward 7 unknown #
coedge $-1 $369 $370 $140 $243 forward $235 $-1 #
edge $-1 $371 -48.986422372387509 $247 -45.098385153547667 $242 $372 forward 7 unknown #
edge $-1 $248 45.059888237018981 $371 49.749708469160424 $141 $373 forward 7 unknown #
coedge $-1 $142 $363 $369 $374 forward $246 $-1 #
loop $-1 $-1 $363 $234 #
vertex $-1 $243 $375 #
vertex $-1 $143 $376 #
straight-curve $-1 11.323882167728065 46.865635274995036 12.368420975442405 0 -1 0 I I #
coedge $-1 $250 $250 $-1 $377 reversed $146 $-1 #
edge $-1 $378 0 $378 6.2831853071796004 $147 $379 forward 7 unknown #
vertex $-1 $150 $380 #
ellipse-curve $-1 20.383304009324924 23.563597166465843 10.424402366022488 0 0.82903758062907751 0.55919289150049634 0.5 0 0 1 I I #
face $-1 $-1 $381 $32 $-1 $382 reversed single #
loop $-1 $-1 $157 $151 #
plane-surface $-1 0 0 12.368420975442406 0 0 1 1 0 0 forward_v I I I I #
coedge $-1 $383 $384 $385 $386 reversed $152 $-1 #
coedge $-1 $387 $154 $156 $264 forward $94 $-1 #
coedge $-1 $154 $387 $383 $388 forward $94 $-1 #
coedge $-1 $385 $157 $154 $261 forward $255 $-1 #
edge $-1 $267 16.439742678647114 $389 26.903789251456523 $260 $390 forward 7 unknown #
coedge $-1 $391 $392 $155 $263 forward $381 $-1 #
edge $-1 $393 -42.360707786560546 $266 -35.895761535717121 $262 $394 forward 7 unknown #
edge $-1 $267 -10.27290115259045 $393 0 $156 $395 forward 7 unknown #
coedge $-1 $157 $385 $391 $396 forward $255 $-1 #
vertex $-1 $158 $397 #
vertex $-1 $158 $398 #
straight-curve $-1 -38.111508643698933 -49.130722458289725 12.368420975442405 0 1 0 I I #
coedge $-1 $269 $269 $-1 $399 reversed $161 $-1 #
edge $-1 $400 0 $400 6.2831853071796004 $162 $401 forward 7 unknown #
vertex $-1 $165 $402 #
ellipse-curve $-1 -46.482745901946458 -20.883082445493311 9.1359478500206937 0 -0.62932039886446345 0.77714595512881146 0.5 0 0 1 I I #
coedge $-1 $273 $273 $-1 $403 reversed $168 $-1 #
edge $-1 $404 0 $404 6.2831853071796004 $169 $405 forward 7 unknown #
vertex $-1 $172 $406 #
ellipse-curve $-1 -43.343531930103637 -20.883082445493311 9.1359478500206937 0 -0.62932039886446345 0.77714595512881146 0.5 0 0 1 I I #
coedge $-1 $277 $277 $-1 $407 reversed $175 $-1 #
edge $-1 $408 0 $408 6.2831853071796004 $176 $409 forward 7 unknown #
vertex $-1 $179 $410 #
ellipse-curve $-1 -40.204317958260816 -20.883082445493311 9.1359478500206937 0 -0.62932039886446345 0.77714595512881146 0.5 0 0 1 I I #
face $-1 $-1 $195 $27 $-1 $411 reversed single #
loop $-1 $-1 $297 $180 #
plane-surface $-1 0 24.874854234580198 0 0 -1 0 0 0 -1 forward_v I I I I #
coedge $-1 $412 $295 $298 $413 forward $181 $-1 #
coedge $-1 $301 $183 $184 $289 reversed $113 $-1 #
coedge $-1 $295 $412 $183 $287 reversed $181 $-1 #
edge $-1 $302 -12.368420975442406 $414 12.368420975442406 $286 $415 forward 7 unknown #
coedge $-1 $185 $184 $412 $416 forward $73 $-1 #
edge $-1 $293 -58.306222724082154 $414 58.306222724082154 $285 $417 forward 7 unknown #
coedge $-1 $298 $297 $185 $291 reversed $282 $-1 #
edge $-1 $418 -58.306222724082154 $292 58.306222724082154 $290 $419 forward 7 unknown #
vertex $-1 $187 $420 #
vertex $-1 $304 $421 #
straight-curve $-1 58.306222724082154 0 -12.368420975442406 0 -1 0 I I #
coedge $-1 $284 $286 $188 $296 reversed $181 $-1 #
edge $-1 $299 -24.874854234580198 $302 24.874854234580198 $295 $422 forward 7 unknown #
coedge $-1 $290 $189 $194 $305 forward $282 $-1 #
coedge $-1 $189 $290 $284 $413 reversed $282 $-1 #
vertex $-1 $190 $423 #
straight-curve $-1 0 24.874854234580198 12.368420975442406 -1 0 0 I I #
coedge $-1 $191 $285 $193 $304 reversed $113 $-1 #
vertex $-1 $296 $424 #
straight-curve $-1 0 -24.874854234580198 12.368420975442406 1 0 0 I I #
edge $-1 $196 -12.368420975442406 $293 12.368420975442406 $193 $425 forward 7 unknown #
edge $-1 $197 -12.368420975442406 $292 12.368420975442406 $194 $426 forward 7 unknown #
point $-1 58.306222724082154 -24.874854234580198 12.368420975442406 #
point $-1 58.306222724082154 24.874854234580198 12.368420975442406 #
face $-1 $-1 $214 $28 $-1 $427 reversed single #
loop $-1 $-1 $317 $199 #
plane-surface $-1 0 0 12.368420975442406 0 0 1 1 0 0 forward_v I I I I #
coedge $-1 $323 $322 $203 $316 forward $200 $-1 #
coedge $-1 $205 $202 $323 $428 reversed $121 $-1 #
coedge $-1 $202 $205 $326 $429 reversed $121 $-1 #
edge $-1 $328 -12.368420975442406 $324 12.368420975442406 $202 $430 forward 7 unknown #
coedge $-1 $204 $203 $330 $431 reversed $77 $-1 #
edge $-1 $432 -31.58577823893453 $320 -21.855110731360718 $311 $433 forward 7 unknown #
coedge $-1 $327 $326 $204 $318 forward $309 $-1 #
edge $-1 $319 21.855110731360718 $434 31.58577823893453 $317 $435 forward 7 unknown #
vertex $-1 $318 $436 #
vertex $-1 $316 $437 #
straight-curve $-1 -48.575555216508342 -4.3250668675844235 0 0 0 -1 I I #
coedge $-1 $311 $208 $213 $332 forward $200 $-1 #
coedge $-1 $208 $311 $312 $428 forward $200 $-1 #
vertex $-1 $209 $438 #
straight-curve $-1 -26.720444485147624 -7.9383957237360381 -12.368420975442406 -1 0 0 I I #
coedge $-1 $317 $210 $313 $429 forward $309 $-1 #
coedge $-1 $210 $317 $212 $331 forward $309 $-1 #
vertex $-1 $211 $439 #
straight-curve $-1 -26.720444485147624 -7.9383957237360381 12.368420975442406 1 0 0 I I #
coedge $-1 $213 $212 $315 $431 forward $214 $-1 #
edge $-1 $434 4.3250668675844235 $216 7.9383957237360381 $212 $440 forward 7 unknown #
edge $-1 $215 -7.9383957237360381 $432 -4.3250668675844235 $213 $441 forward 7 unknown #
point $-1 -58.306222724082154 -7.9383957237360381 -12.368420975442406 #
point $-1 -58.306222724082154 -7.9383957237360381 12.368420975442406 #
face $-1 $-1 $442 $29 $-1 $443 reversed single #
loop $-1 $-1 $229 $218 #
plane-surface $-1 0 0 12.368420975442406 0 0 1 1 0 0 forward_v I I I I #
coedge $-1 $224 $221 $444 $445 reversed $129 $-1 #
coedge $-1 $221 $224 $446 $447 reversed $129 $-1 #
coedge $-1 $448 $449 $221 $341 forward $442 $-1 #
edge $-1 $450 -12.368420975442406 $451 12.368420975442406 $340 $452 forward 7 unknown #
coedge $-1 $444 $227 $222 $343 forward $219 $-1 #
edge $-1 $232 -4.8725300759059227 $347 -1.2592012197543081 $342 $453 forward 7 unknown #
coedge $-1 $229 $446 $223 $345 forward $336 $-1 #
edge $-1 $346 1.2592012197543081 $231 4.8725300759059227 $344 $454 forward 7 unknown #
vertex $-1 $345 $455 #
vertex $-1 $343 $456 #
straight-curve $-1 48.575555216508334 -4.3250668675844235 0 0 0 -1 I I #
coedge $-1 $449 $448 $226 $350 forward $442 $-1 #
edge $-1 $355 -12.368420975442406 $352 12.368420975442406 $349 $457 forward 7 unknown #
coedge $-1 $227 $444 $449 $458 forward $219 $-1 #
vertex $-1 $350 $459 #
straight-curve $-1 26.72044448514762 -7.9383957237360381 -12.368420975442406 -1 0 0 I I #
coedge $-1 $446 $229 $448 $460 forward $336 $-1 #
vertex $-1 $460 $461 #
straight-curve $-1 26.72044448514762 -7.9383957237360381 12.368420975442406 1 0 0 I I #
point $-1 48.575555216508334 -7.9383957237360381 12.368420975442406 #
point $-1 48.575555216508334 -7.9383957237360381 -12.368420975442406 #
plane-surface $-1 0 0 12.368420975442406 0 0 1 1 0 0 forward_v I I I I #
coedge $-1 $370 $369 $362 $462 forward $235 $-1 #
coedge $-1 $362 $237 $239 $366 reversed $137 $-1 #
coedge $-1 $237 $361 $360 $462 reversed $137 $-1 #
coedge $-1 $245 $240 $237 $364 forward $246 $-1 #
edge $-1 $367 -24.61329517664354 $463 -21.990781040414838 $363 $464 forward 7 unknown #
coedge $-1 $239 $238 $370 $465 reversed $85 $-1 #
edge $-1 $466 -49.749708469160424 $367 -45.059888237018981 $361 $467 forward 7 unknown #
vertex $-1 $241 $468 #
straight-curve $-1 10.191652004662462 22.252340098351496 12.368420975442405 1 0 0 I I #
coedge $-1 $360 $242 $245 $374 reversed $235 $-1 #
coedge $-1 $242 $360 $365 $465 forward $235 $-1 #
vertex $-1 $243 $469 #
straight-curve $-1 11.323882167728065 24.874854234580198 57.466806128990072 0 0 1 I I #
straight-curve $-1 11.323882167728065 -2.9448290955963472 49.724761702877245 0 0.55919289150049634 -0.82903758062907751 I I #
edge $-1 $463 -29.442725850921782 $247 -11.323882167728065 $369 $470 forward 7 unknown #
point $-1 11.323882167728065 24.874854234580198 12.368420975442406 #
point $-1 11.323882167728065 22.252340098351496 12.368420975442405 #
edge $-1 $471 1 $471 0 $250 $-1 forward 7 unknown #
vertex $-1 $251 $472 #
ellipse-curve $-1 20.383304009324924 22.734559585836774 9.8652094745219969 0 0.82903758062907751 0.55919289150049634 0.5 0 0 1 I I #
point $-1 20.883304009324924 23.563597166465851 10.424402366022495 #
loop $-1 $-1 $262 $254 #
plane-surface $-1 0 -24.874854234580198 0 0 1 0 0 0 1 forward_v I I I I #
coedge $-1 $384 $257 $259 $388 reversed $152 $-1 #
coedge $-1 $257 $383 $473 $474 reversed $152 $-1 #
coedge $-1 $265 $260 $257 $386 forward $255 $-1 #
edge $-1 $389 -32.2394118018833 $475 -24.255868223709527 $385 $476 forward 7 unknown #
coedge $-1 $259 $258 $392 $477 reversed $94 $-1 #
edge $-1 $478 0 $389 10.27290115259045 $383 $479 forward 7 unknown #
vertex $-1 $261 $480 #
straight-curve $-1 -21.671765965051819 -16.891310656406425 12.368420975442406 -1 0 0 I I #
coedge $-1 $473 $262 $265 $396 reversed $381 $-1 #
coedge $-1 $262 $473 $387 $477 forward $381 $-1 #
vertex $-1 $263 $481 #
straight-curve $-1 -38.111508643698933 -24.874854234580198 48.264182511159525 0 0 1 I I #
straight-curve $-1 -38.111508643698933 -24.874854234580198 5.9034747245989792 0 -0.77714595512881146 -0.62932039886446345 I I #
edge $-1 $475 -48.575555216508342 $266 -38.111508643698933 $391 $482 forward 7 unknown #
point $-1 -38.111508643698933 -24.874854234580198 12.368420975442406 #
point $-1 -38.111508643698933 -16.891310656406425 12.368420975442406 #
edge $-1 $483 1 $483 0 $269 $-1 forward 7 unknown #
vertex $-1 $270 $484 #
ellipse-curve $-1 -46.482745901946458 -19.874560351167563 7.8905268090413871 0 -0.62932039886446345 0.77714595512881146 0.5 0 0 1 I I #
point $-1 -45.982745901946458 -20.883082445493311 9.1359478500206954 #
edge $-1 $485 1 $485 0 $273 $-1 forward 7 unknown #
vertex $-1 $274 $486 #
ellipse-curve $-1 -43.343531930103637 -19.874560351167563 7.8905268090413871 0 -0.62932039886446345 0.77714595512881146 0.5 0 0 1 I I #
point $-1 -42.843531930103637 -20.883082445493311 9.1359478500206954 #
edge $-1 $487 1 $487 0 $277 $-1 forward 7 unknown #
vertex $-1 $278 $488 #
ellipse-curve $-1 -40.204317958260816 -19.874560351167563 7.8905268090413871 0 -0.62932039886446345 0.77714595512881146 0.5 0 0 1 I I #
point $-1 -39.704317958260816 -20.883082445493311 9.1359478500206954 #
plane-surface $-1 58.306222724082154 0 0 -1 0 0 0 0 1 forward_v I I I I #
coedge $-1 $286 $284 $288 $416 reversed $181 $-1 #
edge $-1 $299 -12.368420975442406 $418 12.368420975442406 $298 $489 forward 7 unknown #
vertex $-1 $416 $490 #
straight-curve $-1 -58.306222724082154 -24.874854234580198 0 0 0 -1 I I #
edge $-1 $414 -24.874854234580198 $418 24.874854234580198 $412 $491 forward 7 unknown #
straight-curve $-1 0 -24.874854234580198 -12.368420975442406 -1 0 0 I I #
vertex $-1 $291 $492 #
straight-curve $-1 0 24.874854234580198 -12.368420975442406 1 0 0 I I #
point $-1 58.306222724082154 24.874854234580198 -12.368420975442406 #
point $-1 58.306222724082154 -24.874854234580198 -12.368420975442406 #
straight-curve $-1 -58.306222724082154 0 12.368420975442406 0 -1 0 I I #
point $-1 -58.306222724082154 24.874854234580198 12.368420975442406 #
point $-1 -58.306222724082154 -24.874854234580198 12.368420975442406 #
straight-curve $-1 58.306222724082154 -24.874854234580198 0 0 0 -1 I I #
straight-curve $-1 58.306222724082154 24.874854234580198 0 0 0 -1 I I #
plane-surface $-1 -58.306222724082154 0 0 1 0 0 0 0 -1 forward_v I I I I #
edge $-1 $320 1.2592012197543081 $324 4.8725300759059227 $323 $493 forward 7 unknown #
edge $-1 $328 -4.8725300759059227 $319 -1.2592012197543081 $326 $494 forward 7 unknown #
straight-curve $-1 -48.575555216508342 -7.9383957237360381 0 0 0 -1 I I #
edge $-1 $434 -12.368420975442406 $432 12.368420975442406 $330 $495 forward 7 unknown #
vertex $-1 $431 $496 #
straight-curve $-1 -26.720444485147624 -4.3250668675844235 -12.368420975442406 1 0 0 I I #
vertex $-1 $331 $497 #
straight-curve $-1 -26.720444485147624 -4.3250668675844235 12.368420975442406 -1 0 0 I I #
point $-1 -48.575555216508342 -4.3250668675844235 12.368420975442406 #
point $-1 -48.575555216508342 -4.3250668675844235 -12.368420975442406 #
point $-1 -48.575555216508342 -7.9383957237360381 -12.368420975442406 #
point $-1 -48.575555216508342 -7.9383957237360381 12.368420975442406 #
straight-curve $-1 -58.306222724082154 0 12.368420975442406 0 -1 0 I I #
straight-curve $-1 -58.306222724082154 0 -12.368420975442406 0 1 0 I I #
loop $-1 $-1 $349 $335 #
plane-surface $-1 58.306222724082154 0 0 -1 0 0 0 0 1 forward_v I I I I #
coedge $-1 $351 $342 $338 $445 forward $219 $-1 #
edge $-1 $347 21.855110731360714 $450 31.585778238934527 $444 $498 forward 7 unknown #
coedge $-1 $344 $354 $339 $447 forward $336 $-1 #
edge $-1 $451 -31.585778238934527 $346 -21.855110731360714 $446 $499 forward 7 unknown #
coedge $-1 $349 $340 $354 $460 reversed $442 $-1 #
coedge $-1 $340 $349 $351 $458 reversed $442 $-1 #
vertex $-1 $458 $500 #
vertex $-1 $341 $501 #
straight-curve $-1 58.306222724082154 -4.3250668675844235 0 0 0 1 I I #
straight-curve $-1 48.575555216508334 -3.0658656478301154 -12.368420975442406 0 1 0 I I #
straight-curve $-1 48.575555216508334 -3.0658656478301154 12.368420975442406 0 -1 0 I I #
point $-1 48.575555216508334 -4.3250668675844235 12.368420975442406 #
point $-1 48.575555216508334 -4.3250668675844235 -12.368420975442406 #
straight-curve $-1 58.306222724082154 -7.9383957237360381 0 0 0 -1 I I #
edge $-1 $450 4.3250668675844235 $352 7.9383957237360381 $449 $502 forward 7 unknown #
point $-1 58.306222724082147 -7.9383957237360381 -12.368420975442406 #
edge $-1 $355 -7.9383957237360381 $451 -4.3250668675844235 $448 $503 forward 7 unknown #
point $-1 58.306222724082147 -7.9383957237360381 12.368420975442406 #
edge $-1 $463 45.098385153547667 $466 48.986422372387509 $360 $504 forward 7 unknown #
vertex $-1 $374 $505 #
straight-curve $-1 29.442725850921782 46.865635274995036 12.368420975442405 0 1 0 I I #
edge $-1 $466 -19.25107384625932 $371 -1.1322301630656035 $370 $506 forward 7 unknown #
vertex $-1 $465 $507 #
straight-curve $-1 29.442725850921782 -2.9448290955963472 49.724761702877245 0 -0.55919289150049634 0.82903758062907751 I I #
point $-1 29.442725850921782 22.252340098351496 12.368420975442405 #
point $-1 11.323882167728065 24.874854234580198 8.4803837566025635 #
straight-curve $-1 0 24.874854234580198 12.368420975442406 -1 0 0 I I #
vertex $-1 $377 $508 #
point $-1 20.883304009324924 22.734559585836774 9.8652094745219969 #
coedge $-1 $392 $391 $384 $474 forward $381 $-1 #
edge $-1 $475 35.895761535717121 $478 42.360707786560546 $473 $509 forward 7 unknown #
vertex $-1 $396 $510 #
straight-curve $-1 -48.575555216508342 -49.130722458289725 12.368420975442405 0 -1 0 I I #
edge $-1 $478 -26.903789251456523 $393 -16.439742678647114 $392 $511 forward 7 unknown #
vertex $-1 $477 $512 #
straight-curve $-1 -48.575555216508342 -24.874854234580198 5.9034747245989792 0 0.77714595512881146 0.62932039886446345 I I #
point $-1 -48.575555216508342 -16.891310656406425 12.368420975442406 #
point $-1 -38.111508643698933 -24.874854234580198 5.9034747245989792 #
straight-curve $-1 0 -24.874854234580198 12.368420975442406 1 0 0 I I #
vertex $-1 $399 $513 #
point $-1 -45.982745901946458 -19.874560351167563 7.8905268090413871 #
vertex $-1 $403 $514 #
point $-1 -42.843531930103637 -19.874560351167563 7.8905268090413871 #
vertex $-1 $407 $515 #
point $-1 -39.704317958260816 -19.874560351167563 7.8905268090413871 #
straight-curve $-1 -58.306222724082154 24.874854234580198 0 0 0 -1 I I #
point $-1 -58.306222724082154 -24.874854234580198 -12.368420975442406 #
straight-curve $-1 -58.306222724082154 0 -12.368420975442406 0 1 0 I I #
point $-1 -58.306222724082154 24.874854234580198 -12.368420975442406 #
straight-curve $-1 -48.575555216508342 -3.0658656478301154 -12.368420975442406 0 -1 0 I I #
straight-curve $-1 -48.575555216508342 -3.0658656478301154 12.368420975442406 0 1 0 I I #
straight-curve $-1 -58.306222724082154 -4.3250668675844235 0 0 0 -1 I I #
point $-1 -58.306222724082154 -4.3250668675844235 -12.368420975442406 #
point $-1 -58.306222724082154 -4.3250668675844235 12.368420975442406 #
straight-curve $-1 26.72044448514762 -4.3250668675844235 -12.368420975442406 1 0 0 I I #
straight-curve $-1 26.72044448514762 -4.3250668675844235 12.368420975442406 -1 0 0 I I #
point $-1 58.306222724082147 -4.3250668675844235 -12.368420975442406 #
point $-1 58.306222724082147 -4.3250668675844235 12.368420975442406 #
straight-curve $-1 58.306222724082154 0 -12.368420975442406 0 -1 0 I I #
straight-curve $-1 58.306222724082154 0 12.368420975442406 0 1 0 I I #
straight-curve $-1 29.442725850921782 24.874854234580198 57.466806128990072 0 0 -1 I I #
point $-1 29.442725850921782 24.874854234580198 12.368420975442406 #
straight-curve $-1 10.191652004662462 24.874854234580198 8.4803837566025635 -1 0 0 I I #
point $-1 29.442725850921782 24.874854234580198 8.4803837566025635 #
point $-1 20.383304009324924 22.320040795522235 9.5856130287717498 #
straight-curve $-1 -48.575555216508342 -24.874854234580198 48.264182511159525 0 0 -1 I I #
point $-1 -48.575555216508342 -24.874854234580198 12.368420975442406 #
straight-curve $-1 -21.671765965051819 -24.874854234580198 5.9034747245989809 1 0 0 I I #
point $-1 -48.575555216508342 -24.874854234580198 5.9034747245989792 #
point $-1 -46.482745901946458 -19.559900151735331 7.5019538314769809 #
point $-1 -43.343531930103637 -19.559900151735331 7.5019538314769809 #
point $-1 -40.204317958260816 -19.559900151735331 7.5019538314769809 #
End-of-ACIS-data 