500 0 13 0           
7 Unknown 11 ACIS 5.0 NT 24 Thu Mar 25 17:32:47 1999 
-1 9.9999999999999995e-007 1e-010 
body $-1 $13 $-1 $14 #
body $-1 $15 $-1 $16 #
body $-1 $17 $-1 $18 #
body $-1 $19 $-1 $20 #
body $-1 $21 $-1 $22 #
body $-1 $23 $-1 $24 #
body $-1 $25 $-1 $26 #
body $-1 $27 $-1 $28 #
body $-1 $29 $-1 $30 #
body $-1 $31 $-1 $32 #
body $-1 $33 $-1 $34 #
body $-1 $35 $-1 $36 #
body $-1 $37 $-1 $38 #
lump $-1 $-1 $39 $0 #
transform $-1 1 0 0 0 1 0 0 0 1 66.709799493392751 45.576716462255789 11.805964964395114 1 rotate no_reflect no_shear #
lump $-1 $-1 $40 $1 #
transform $-1 1 0 0 0 1 0 0 0 1 66.709799493392751 45.576716462255789 11.805964964395114 1 rotate no_reflect no_shear #
lump $-1 $-1 $41 $2 #
transform $-1 1 0 0 0 1 0 0 0 1 66.709799493392751 45.576716462255789 11.805964964395114 1 rotate no_reflect no_shear #
lump $-1 $-1 $42 $3 #
transform $-1 1 0 0 0 1 0 0 0 1 66.709799493392751 45.576716462255789 11.805964964395114 1 rotate no_reflect no_shear #
lump $-1 $-1 $43 $4 #
transform $-1 1 0 0 0 1 0 0 0 1 66.709799493392751 45.576716462255789 11.805964964395114 1 rotate no_reflect no_shear #
lump $-1 $-1 $44 $5 #
transform $-1 1 0 0 0 1 0 0 0 1 66.709799493392751 45.576716462255789 11.805964964395114 1 rotate no_reflect no_shear #
lump $-1 $-1 $45 $6 #
transform $-1 1 0 0 0 1 0 0 0 1 66.709799493392751 45.576716462255789 11.805964964395114 1 rotate no_reflect no_shear #
lump $-1 $-1 $46 $7 #
transform $-1 1 0 0 0 1 0 0 0 1 66.709799493392751 45.576716462255789 11.805964964395114 1 rotate no_reflect no_shear #
lump $-1 $-1 $47 $8 #
transform $-1 1 0 0 0 1 0 0 0 1 66.709799493392751 45.576716462255789 11.805964964395114 1 rotate no_reflect no_shear #
lump $-1 $-1 $48 $9 #
transform $-1 1 0 0 0 1 0 0 0 1 66.709799493392751 45.576716462255789 11.805964964395114 1 rotate no_reflect no_shear #
lump $-1 $-1 $49 $10 #
transform $-1 1 0 0 0 1 0 0 0 1 66.709799493392751 45.576716462255789 11.805964964395114 1 rotate no_reflect no_shear #
lump $-1 $-1 $50 $11 #
transform $-1 1 0 0 0 1 0 0 0 1 66.709799493392751 45.576716462255789 11.805964964395114 1 rotate no_reflect no_shear #
lump $-1 $-1 $51 $12 #
transform $-1 1 0 0 0 1 0 0 0 1 66.709799493392751 45.576716462255789 11.805964964395114 1 rotate no_reflect no_shear #
shell $-1 $-1 $-1 $52 $-1 $13 #
shell $-1 $-1 $-1 $53 $-1 $15 #
shell $-1 $-1 $-1 $54 $-1 $17 #
shell $-1 $-1 $-1 $55 $-1 $19 #
shell $-1 $-1 $-1 $56 $-1 $21 #
shell $-1 $-1 $-1 $57 $-1 $23 #
shell $-1 $-1 $-1 $58 $-1 $25 #
shell $-1 $-1 $-1 $59 $-1 $27 #
shell $-1 $-1 $-1 $60 $-1 $29 #
shell $-1 $-1 $-1 $61 $-1 $31 #
shell $-1 $-1 $-1 $62 $-1 $33 #
shell $-1 $-1 $-1 $63 $-1 $35 #
shell $-1 $-1 $-1 $64 $-1 $37 #
face $-1 $65 $66 $39 $-1 $67 forward single #
face $-1 $68 $69 $40 $-1 $70 reversed single #
face $-1 $71 $72 $41 $-1 $73 reversed single #
face $-1 $74 $75 $42 $-1 $76 forward single #
face $-1 $77 $78 $43 $-1 $79 forward single #
face $-1 $80 $81 $44 $-1 $82 reversed single #
face $-1 $83 $84 $45 $-1 $85 forward single #
face $-1 $86 $87 $46 $-1 $88 forward single #
face $-1 $89 $90 $47 $-1 $91 forward single #
face $-1 $92 $93 $48 $-1 $94 reversed single #
face $-1 $95 $96 $49 $-1 $97 forward single #
face $-1 $98 $99 $50 $-1 $100 forward single #
face $-1 $101 $102 $51 $-1 $103 forward single #
face $-1 $104 $105 $39 $-1 $106 reversed single #
loop $-1 $-1 $107 $52 #
plane-surface $-1 0 0 11.805964964395114 0 0 1 1 0 0 forward_v I I I I #
face $-1 $108 $109 $40 $-1 $110 reversed single #
loop $-1 $-1 $111 $53 #
plane-surface $-1 -61.475858923557794 -42.576716462255789 0 0 -1 0 0 0 -1 forward_v I I I I #
face $-1 $112 $113 $41 $-1 $114 reversed single #
loop $-1 $-1 $115 $54 #
plane-surface $-1 51.03642223089858 -134.8518547061403 103.69321659822904 -1 0 0 0 -0.66913061440640931 0.74314481823134659 forward_v I I I I #
face $-1 $116 $117 $42 $-1 $118 forward single #
loop $-1 $119 $120 $55 #
cone-surface $-1 38.425735354239933 -41.063127654828783 7.640907616050983 0 0.66913061440640931 -0.74314481823134659 1 0 0 1 I I 0 1 1 forward I I I I #
face $-1 $121 $122 $43 $-1 $123 forward single #
loop $-1 $124 $125 $56 #
cone-surface $-1 45.992147480235118 -41.063127654828783 7.640907616050983 0 0.66913061440640931 -0.74314481823134659 1 0 0 1 I I 0 1 1 forward I I I I #
face $-1 $126 $127 $44 $-1 $128 reversed single #
loop $-1 $-1 $129 $57 #
plane-surface $-1 -43.565431724150883 67.111653364290902 161.43629930583154 1 0 0 0 -0.66913061440640931 -0.74314481823134659 forward_v I I I I #
face $-1 $130 $131 $45 $-1 $132 forward single #
loop $-1 $133 $134 $58 #
cone-surface $-1 -38.142227958031427 38.22110886617277 4.8639535683321293 0 -0.66913061440640931 -0.74314481823134659 1.5 0 0 1 I I 0 1 1.5 forward I I I I #
face $-1 $135 $136 $46 $-1 $137 forward single #
loop $-1 $138 $139 $59 #
cone-surface $-1 -30.007422308852242 38.22110886617277 4.8639535683321293 0 -0.66913061440640931 -0.74314481823134659 1.5 0 0 1 I I 0 1 1.5 forward I I I I #
face $-1 $140 $141 $47 $-1 $142 forward single #
loop $-1 $143 $144 $60 #
cone-surface $-1 -21.872616659673056 38.22110886617277 4.8639535683321293 0 -0.66913061440640931 -0.74314481823134659 1.5 0 0 1 I I 0 1 1.5 forward I I I I #
face $-1 $145 $146 $48 $-1 $147 reversed single #
loop $-1 $-1 $148 $61 #
plane-surface $-1 26.917294033223534 67.111653364290902 161.43629930583154 1 0 0 0 -0.66913061440640931 -0.74314481823134659 forward_v I I I I #
face $-1 $149 $150 $49 $-1 $151 forward single #
loop $-1 $152 $153 $62 #
cone-surface $-1 32.340497799342998 38.22110886617277 4.8639535683321293 0 -0.66913061440640931 -0.74314481823134659 1.5 0 0 1 I I 0 1 1.5 forward I I I I #
face $-1 $154 $155 $50 $-1 $156 forward single #
loop $-1 $157 $158 $63 #
cone-surface $-1 40.475303448522183 38.22110886617277 4.8639535683321293 0 -0.66913061440640931 -0.74314481823134659 1.5 0 0 1 I I 0 1 1.5 forward I I I I #
face $-1 $159 $160 $51 $-1 $161 forward single #
loop $-1 $162 $163 $64 #
cone-surface $-1 48.610109097701368 38.22110886617277 4.8639535683321293 0 -0.66913061440640931 -0.74314481823134659 1.5 0 0 1 I I 0 1 1.5 forward I I I I #
face $-1 $164 $165 $39 $-1 $166 reversed single #
loop $-1 $-1 $167 $65 #
plane-surface $-1 0 0 -11.805964964395114 0 0 1 1 0 0 forward_v I I I I #
coedge $-1 $168 $169 $170 $171 forward $66 $-1 #
face $-1 $172 $173 $40 $-1 $174 forward single #
loop $-1 $-1 $175 $68 #
plane-surface $-1 -56.241918353722838 -44.076716462255789 0 -1 0 0 0 0 1 forward_v I I I I #
coedge $-1 $176 $177 $178 $179 forward $69 $-1 #
face $-1 $180 $181 $41 $-1 $182 reversed single #
loop $-1 $-1 $183 $71 #
plane-surface $-1 42.208941417237526 -45.576716462255774 4.5431329606951749 0 -0.66913061440640931 0.74314481823134659 1 0 0 forward_v I I I I #
coedge $-1 $184 $185 $186 $187 reversed $72 $-1 #
face $-1 $-1 $188 $42 $-1 $189 forward single #
loop $-1 $190 $191 $74 #
cone-surface $-1 38.425735354239933 -40.248069510573799 6.73569386044114 0 0.66913061440640931 -0.74314481823134659 0.5 0 0 1 I I -0.70710678118654746 0.70710678118654746 0.5 forward I I I I #
loop $-1 $-1 $192 $55 #
coedge $-1 $120 $120 $193 $194 reversed $75 $-1 #
face $-1 $-1 $195 $43 $-1 $196 forward single #
loop $-1 $197 $198 $77 #
cone-surface $-1 45.992147480235118 -40.248069510573799 6.73569386044114 0 0.66913061440640931 -0.74314481823134659 0.5 0 0 1 I I -0.70710678118654746 0.70710678118654746 0.5 forward I I I I #
loop $-1 $-1 $199 $56 #
coedge $-1 $125 $125 $200 $201 reversed $78 $-1 #
face $-1 $202 $203 $44 $-1 $204 reversed single #
loop $-1 $-1 $205 $80 #
plane-surface $-1 -30.007422308852249 -22.163484879593625 62.286215668297672 0 0.66913061440640931 0.74314481823134659 1 0 0 forward_v I I I I #
coedge $-1 $206 $207 $208 $209 reversed $81 $-1 #
face $-1 $-1 $210 $45 $-1 $211 forward single #
loop $-1 $212 $213 $83 #
cone-surface $-1 -38.142227958031427 36.20175549893888 2.6212344956602767 0 -0.66913061440640931 -0.74314481823134659 0.75 0 0 1 I I -0.70710678118654757 0.70710678118654757 0.75 forward I I I I #
loop $-1 $-1 $214 $58 #
coedge $-1 $134 $134 $215 $216 reversed $84 $-1 #
face $-1 $-1 $217 $46 $-1 $218 forward single #
loop $-1 $219 $220 $86 #
cone-surface $-1 -30.007422308852242 36.20175549893888 2.6212344956602767 0 -0.66913061440640931 -0.74314481823134659 0.75 0 0 1 I I -0.70710678118654757 0.70710678118654757 0.75 forward I I I I #
loop $-1 $-1 $221 $59 #
coedge $-1 $139 $139 $222 $223 reversed $87 $-1 #
face $-1 $-1 $224 $47 $-1 $225 forward single #
loop $-1 $226 $227 $89 #
cone-surface $-1 -21.872616659673056 36.20175549893888 2.6212344956602767 0 -0.66913061440640931 -0.74314481823134659 0.75 0 0 1 I I -0.70710678118654757 0.70710678118654757 0.75 forward I I I I #
loop $-1 $-1 $228 $60 #
coedge $-1 $144 $144 $229 $230 reversed $90 $-1 #
face $-1 $231 $232 $48 $-1 $233 reversed single #
loop $-1 $-1 $234 $92 #
plane-surface $-1 40.475303448522169 -22.163484879593625 62.286215668297672 0 0.66913061440640931 0.74314481823134659 1 0 0 forward_v I I I I #
coedge $-1 $235 $236 $237 $238 reversed $93 $-1 #
face $-1 $-1 $239 $49 $-1 $240 forward single #
loop $-1 $241 $242 $95 #
cone-surface $-1 32.340497799342998 36.20175549893888 2.6212344956602767 0 -0.66913061440640931 -0.74314481823134659 0.75 0 0 1 I I -0.70710678118654757 0.70710678118654757 0.75 forward I I I I #
loop $-1 $-1 $243 $62 #
coedge $-1 $153 $153 $244 $245 reversed $96 $-1 #
face $-1 $-1 $246 $50 $-1 $247 forward single #
loop $-1 $248 $249 $98 #
cone-surface $-1 40.475303448522183 36.20175549893888 2.6212344956602767 0 -0.66913061440640931 -0.74314481823134659 0.75 0 0 1 I I -0.70710678118654757 0.70710678118654757 0.75 forward I I I I #
loop $-1 $-1 $250 $63 #
coedge $-1 $158 $158 $251 $252 reversed $99 $-1 #
face $-1 $-1 $253 $51 $-1 $254 forward single #
loop $-1 $255 $256 $101 #
cone-surface $-1 48.610109097701368 36.20175549893888 2.6212344956602767 0 -0.66913061440640931 -0.74314481823134659 0.75 0 0 1 I I -0.70710678118654757 0.70710678118654757 0.75 forward I I I I #
loop $-1 $-1 $257 $64 #
coedge $-1 $163 $163 $258 $259 reversed $102 $-1 #
face $-1 $260 $261 $39 $-1 $262 reversed single #
loop $-1 $-1 $263 $104 #
plane-surface $-1 0 -45.576716462255789 0 0 1 0 0 0 1 forward_v I I I I #
coedge $-1 $264 $265 $266 $267 forward $105 $-1 #
coedge $-1 $268 $107 $269 $270 forward $66 $-1 #
coedge $-1 $107 $268 $271 $272 forward $66 $-1 #
coedge $-1 $273 $274 $107 $171 reversed $275 $-1 #
edge $-1 $276 -45.576716462255789 $277 45.576716462255789 $170 $278 forward 7 unknown #
face $-1 $279 $280 $40 $-1 $281 reversed single #
loop $-1 $-1 $282 $108 #
plane-surface $-1 0 0 11.805964964395114 0 0 1 1 0 0 forward_v I I I I #
coedge $-1 $283 $284 $285 $286 reversed $109 $-1 #
coedge $-1 $287 $111 $288 $289 reversed $69 $-1 #
coedge $-1 $111 $287 $290 $291 reversed $69 $-1 #
coedge $-1 $284 $283 $111 $179 reversed $109 $-1 #
edge $-1 $292 -11.805964964395114 $293 11.805964964395114 $178 $294 forward 7 unknown #
face $-1 $295 $296 $41 $-1 $297 forward single #
loop $-1 $-1 $298 $112 #
plane-surface $-1 33.381460603576471 -134.8518547061403 103.69321659822904 1 0 0 0 0.66913061440640931 -0.74314481823134659 forward_v I I I I #
coedge $-1 $299 $300 $301 $302 reversed $113 $-1 #
coedge $-1 $185 $115 $303 $304 reversed $72 $-1 #
coedge $-1 $115 $184 $299 $305 reversed $72 $-1 #
coedge $-1 $301 $306 $115 $187 forward $296 $-1 #
edge $-1 $307 21.849210890814362 $308 29.915402831564862 $186 $309 forward 7 unknown #
loop $-1 $-1 $193 $116 #
plane-surface $-1 42.208941417237526 -45.576716462255774 4.5431329606951749 0 -0.66913061440640931 0.74314481823134659 1 0 0 forward_v I I I I #
loop $-1 $-1 $310 $74 #
coedge $-1 $191 $191 $192 $311 reversed $117 $-1 #
coedge $-1 $192 $192 $191 $311 forward $119 $-1 #
coedge $-1 $193 $193 $120 $194 forward $188 $-1 #
edge $-1 $312 1.3254243892883017e-015 $312 6.2831853071796013 $193 $313 forward 7 unknown #
loop $-1 $-1 $200 $121 #
plane-surface $-1 42.208941417237526 -45.576716462255774 4.5431329606951749 0 -0.66913061440640931 0.74314481823134659 1 0 0 forward_v I I I I #
loop $-1 $-1 $314 $77 #
coedge $-1 $198 $198 $199 $315 reversed $122 $-1 #
coedge $-1 $199 $199 $198 $315 forward $124 $-1 #
coedge $-1 $200 $200 $125 $201 forward $195 $-1 #
edge $-1 $316 1.3254243892883017e-015 $316 6.2831853071796013 $200 $317 forward 7 unknown #
face $-1 $318 $319 $44 $-1 $320 reversed single #
loop $-1 $-1 $321 $126 #
plane-surface $-1 -16.449412893553614 67.111653364290902 161.43629930583154 -1 0 0 0 0.66913061440640931 0.74314481823134659 forward_v I I I I #
coedge $-1 $322 $323 $324 $325 reversed $127 $-1 #
coedge $-1 $207 $129 $326 $327 reversed $81 $-1 #
coedge $-1 $129 $206 $322 $328 reversed $81 $-1 #
coedge $-1 $324 $329 $129 $209 forward $330 $-1 #
edge $-1 $331 -12.020889780110338 $332 -0.34468540080244736 $208 $333 forward 7 unknown #
loop $-1 $-1 $215 $130 #
plane-surface $-1 -30.007422308852249 -22.163484879593625 62.286215668297672 0 0.66913061440640931 0.74314481823134659 1 0 0 forward_v I I I I #
loop $-1 $-1 $334 $83 #
coedge $-1 $213 $213 $214 $335 reversed $131 $-1 #
coedge $-1 $214 $214 $213 $335 forward $133 $-1 #
coedge $-1 $215 $215 $134 $216 forward $210 $-1 #
edge $-1 $336 -9.1206430623589562e-017 $336 6.2831853071796004 $215 $337 forward 7 unknown #
loop $-1 $-1 $222 $135 #
plane-surface $-1 -30.007422308852249 -22.163484879593625 62.286215668297672 0 0.66913061440640931 0.74314481823134659 1 0 0 forward_v I I I I #
loop $-1 $-1 $338 $86 #
coedge $-1 $220 $220 $221 $339 reversed $136 $-1 #
coedge $-1 $221 $221 $220 $339 forward $138 $-1 #
coedge $-1 $222 $222 $139 $223 forward $217 $-1 #
edge $-1 $340 -9.1206430623589562e-017 $340 6.2831853071796004 $222 $341 forward 7 unknown #
loop $-1 $-1 $229 $140 #
plane-surface $-1 -30.007422308852249 -22.163484879593625 62.286215668297672 0 0.66913061440640931 0.74314481823134659 1 0 0 forward_v I I I I #
loop $-1 $-1 $342 $89 #
coedge $-1 $227 $227 $228 $343 reversed $141 $-1 #
coedge $-1 $228 $228 $227 $343 forward $143 $-1 #
coedge $-1 $229 $229 $144 $230 forward $224 $-1 #
edge $-1 $344 -9.1206430623589562e-017 $344 6.2831853071796004 $229 $345 forward 7 unknown #
face $-1 $346 $347 $48 $-1 $348 forward single #
loop $-1 $-1 $349 $145 #
plane-surface $-1 54.033312863820804 67.111653364290902 161.43629930583154 -1 0 0 0 0.66913061440640931 0.74314481823134659 forward_v I I I I #
coedge $-1 $350 $351 $352 $353 reversed $146 $-1 #
coedge $-1 $236 $148 $354 $355 reversed $93 $-1 #
coedge $-1 $148 $235 $350 $356 reversed $93 $-1 #
coedge $-1 $352 $357 $148 $238 forward $347 $-1 #
edge $-1 $358 -12.020889780110338 $359 -0.34468540080244736 $237 $360 forward 7 unknown #
loop $-1 $-1 $244 $149 #
plane-surface $-1 40.475303448522169 -22.163484879593625 62.286215668297672 0 0.66913061440640931 0.74314481823134659 1 0 0 forward_v I I I I #
loop $-1 $-1 $361 $95 #
coedge $-1 $242 $242 $243 $362 reversed $150 $-1 #
coedge $-1 $243 $243 $242 $362 forward $152 $-1 #
coedge $-1 $244 $244 $153 $245 forward $239 $-1 #
edge $-1 $363 -9.1206430623589562e-017 $363 6.2831853071796004 $244 $364 forward 7 unknown #
loop $-1 $-1 $251 $154 #
plane-surface $-1 40.475303448522169 -22.163484879593625 62.286215668297672 0 0.66913061440640931 0.74314481823134659 1 0 0 forward_v I I I I #
loop $-1 $-1 $365 $98 #
coedge $-1 $249 $249 $250 $366 reversed $155 $-1 #
coedge $-1 $250 $250 $249 $366 forward $157 $-1 #
coedge $-1 $251 $251 $158 $252 forward $246 $-1 #
edge $-1 $367 -9.1206430623589562e-017 $367 6.2831853071796004 $251 $368 forward 7 unknown #
loop $-1 $-1 $258 $159 #
plane-surface $-1 40.475303448522169 -22.163484879593625 62.286215668297672 0 0.66913061440640931 0.74314481823134659 1 0 0 forward_v I I I I #
loop $-1 $-1 $369 $101 #
coedge $-1 $256 $256 $257 $370 reversed $160 $-1 #
coedge $-1 $257 $257 $256 $370 forward $162 $-1 #
coedge $-1 $258 $258 $163 $259 forward $253 $-1 #
edge $-1 $371 -9.1206430623589562e-017 $371 6.2831853071796004 $258 $372 forward 7 unknown #
face $-1 $373 $374 $39 $-1 $375 reversed single #
loop $-1 $-1 $376 $164 #
plane-surface $-1 -66.709799493392751 0 0 1 0 0 0 0 -1 forward_v I I I I #
coedge $-1 $377 $271 $378 $379 forward $165 $-1 #
coedge $-1 $380 $167 $377 $381 forward $105 $-1 #
coedge $-1 $167 $380 $382 $383 forward $105 $-1 #
coedge $-1 $274 $273 $167 $267 reversed $275 $-1 #
edge $-1 $384 -45.576716462255789 $385 45.576716462255789 $266 $386 forward 7 unknown #
coedge $-1 $169 $168 $387 $388 forward $66 $-1 #
coedge $-1 $389 $390 $168 $270 reversed $374 $-1 #
edge $-1 $277 -66.709799493392751 $391 66.709799493392751 $269 $392 forward 7 unknown #
coedge $-1 $263 $393 $169 $272 reversed $165 $-1 #
edge $-1 $394 -66.709799493392751 $276 66.709799493392751 $271 $395 forward 7 unknown #
coedge $-1 $266 $170 $393 $396 forward $275 $-1 #
coedge $-1 $170 $266 $389 $397 reversed $275 $-1 #
loop $-1 $-1 $273 $373 #
vertex $-1 $171 $398 #
vertex $-1 $171 $399 #
straight-curve $-1 66.709799493392751 0 11.805964964395114 0 1 0 I I #
face $-1 $400 $401 $40 $-1 $402 reversed single #
loop $-1 $-1 $403 $172 #
plane-surface $-1 -66.709799493392751 0 0 1 0 0 0 0 -1 forward_v I I I I #
coedge $-1 $290 $404 $284 $405 forward $173 $-1 #
coedge $-1 $178 $175 $406 $407 reversed $109 $-1 #
coedge $-1 $175 $178 $282 $405 reversed $109 $-1 #
coedge $-1 $408 $409 $175 $286 forward $410 $-1 #
edge $-1 $411 -11.805964964395114 $412 11.805964964395114 $285 $413 forward 7 unknown #
coedge $-1 $177 $176 $403 $414 reversed $69 $-1 #
coedge $-1 $406 $415 $176 $289 forward $401 $-1 #
edge $-1 $416 -35.971870031613854 $293 -25.503988891943941 $288 $417 forward 7 unknown #
coedge $-1 $418 $282 $177 $291 forward $173 $-1 #
edge $-1 $292 25.503988891943941 $419 35.971870031613854 $290 $420 forward 7 unknown #
vertex $-1 $291 $421 #
vertex $-1 $289 $422 #
straight-curve $-1 -56.241918353722838 -42.576716462255789 0 0 0 -1 I I #
face $-1 $-1 $423 $41 $-1 $424 reversed single #
loop $-1 $-1 $186 $180 #
plane-surface $-1 0 0 11.805964964395114 0 0 1 1 0 0 forward_v I I I I #
coedge $-1 $425 $426 $427 $428 reversed $181 $-1 #
coedge $-1 $429 $183 $185 $305 forward $113 $-1 #
coedge $-1 $183 $429 $425 $430 forward $113 $-1 #
coedge $-1 $427 $186 $183 $302 forward $296 $-1 #
edge $-1 $308 -29.931951522279817 $431 -12.276989894957708 $301 $432 forward 7 unknown #
coedge $-1 $433 $434 $184 $304 forward $423 $-1 #
edge $-1 $435 -47.303475338419361 $307 -40.040643334719405 $303 $436 forward 7 unknown #
edge $-1 $308 -10.854131984594446 $435 1.8881026247711288e-014 $185 $437 forward 7 unknown #
coedge $-1 $186 $427 $433 $438 forward $296 $-1 #
vertex $-1 $304 $439 #
vertex $-1 $187 $440 #
straight-curve $-1 51.03642223089858 -67.425927353070151 11.805964964395116 0 1 0 I I #
coedge $-1 $310 $310 $-1 $441 reversed $190 $-1 #
edge $-1 $442 0 $442 6.2831853071796004 $191 $443 forward 7 unknown #
vertex $-1 $194 $444 #
ellipse-curve $-1 38.425735354239933 -41.543620491880546 8.1745489625451349 0 -0.66913061440640931 0.74314481823134659 1 0 0 1 I I #
coedge $-1 $314 $314 $-1 $445 reversed $197 $-1 #
edge $-1 $446 0 $446 6.2831853071796004 $198 $447 forward 7 unknown #
vertex $-1 $201 $448 #
ellipse-curve $-1 45.992147480235118 -41.543620491880546 8.1745489625451349 0 -0.66913061440640931 0.74314481823134659 1 0 0 1 I I #
face $-1 $-1 $330 $44 $-1 $449 forward single #
loop $-1 $-1 $450 $202 #
plane-surface $-1 0 45.576716462255789 0 0 -1 0 0 0 -1 forward_v I I I I #
coedge $-1 $451 $452 $453 $454 reversed $203 $-1 #
coedge $-1 $455 $205 $207 $328 forward $127 $-1 #
coedge $-1 $205 $455 $451 $456 forward $127 $-1 #
coedge $-1 $453 $208 $205 $325 forward $330 $-1 #
edge $-1 $332 -28.561720569724759 $457 -1.4457017391274896 $324 $458 forward 7 unknown #
coedge $-1 $459 $460 $206 $327 forward $319 $-1 #
edge $-1 $461 -79.425486562649951 $331 -68.912184688520654 $326 $462 forward 7 unknown #
edge $-1 $332 75.441550000942584 $461 91.153432924511591 $207 $463 forward 7 unknown #
coedge $-1 $208 $453 $459 $464 forward $330 $-1 #
loop $-1 $-1 $453 $318 #
vertex $-1 $327 $465 #
vertex $-1 $209 $466 #
straight-curve $-1 -43.565431724150883 33.555826682145451 11.805964964395116 0 -1 0 I I #
coedge $-1 $334 $334 $-1 $467 reversed $212 $-1 #
edge $-1 $468 0 $468 6.2831853071796004 $213 $469 forward 7 unknown #
vertex $-1 $216 $470 #
ellipse-curve $-1 -38.142227958031427 39.738614272601843 6.5493140273304569 0 0.66913061440640931 0.74314481823134659 1.5 0 0 1 I I #
coedge $-1 $338 $338 $-1 $471 reversed $219 $-1 #
edge $-1 $472 0 $472 6.2831853071796004 $220 $473 forward 7 unknown #
vertex $-1 $223 $474 #
ellipse-curve $-1 -30.007422308852242 39.738614272601843 6.5493140273304569 0 0.66913061440640931 0.74314481823134659 1.5 0 0 1 I I #
coedge $-1 $342 $342 $-1 $475 reversed $226 $-1 #
edge $-1 $476 0 $476 6.2831853071796004 $227 $477 forward 7 unknown #
vertex $-1 $230 $478 #
ellipse-curve $-1 -21.872616659673056 39.738614272601843 6.5493140273304569 0 0.66913061440640931 0.74314481823134659 1.5 0 0 1 I I #
face $-1 $-1 $479 $48 $-1 $480 reversed single #
loop $-1 $-1 $237 $231 #
plane-surface $-1 0 0 11.805964964395114 0 0 1 1 0 0 forward_v I I I I #
coedge $-1 $481 $482 $483 $484 reversed $232 $-1 #
coedge $-1 $485 $234 $236 $356 forward $146 $-1 #
coedge $-1 $234 $485 $481 $486 forward $146 $-1 #
coedge $-1 $483 $237 $234 $353 forward $347 $-1 #
edge $-1 $359 6.6796423089624497 $487 33.795661139559719 $352 $488 forward 7 unknown #
coedge $-1 $489 $490 $235 $355 forward $479 $-1 #
edge $-1 $491 -79.425486562649951 $358 -68.912184688520654 $354 $492 forward 7 unknown #
edge $-1 $359 75.441550000942584 $491 91.153432924511591 $236 $493 forward 7 unknown #
coedge $-1 $237 $483 $489 $494 forward $347 $-1 #
vertex $-1 $355 $495 #
vertex $-1 $238 $496 #
straight-curve $-1 26.917294033223534 33.555826682145451 11.805964964395116 0 -1 0 I I #
coedge $-1 $361 $361 $-1 $497 reversed $241 $-1 #
edge $-1 $498 0 $498 6.2831853071796004 $242 $499 forward 7 unknown #
vertex $-1 $245 $500 #
ellipse-curve $-1 32.340497799342998 39.738614272601843 6.5493140273304569 0 0.66913061440640931 0.74314481823134659 1.5 0 0 1 I I #
coedge $-1 $365 $365 $-1 $501 reversed $248 $-1 #
edge $-1 $502 0 $502 6.2831853071796004 $249 $503 forward 7 unknown #
vertex $-1 $252 $504 #
ellipse-curve $-1 40.475303448522183 39.738614272601843 6.5493140273304569 0 0.66913061440640931 0.74314481823134659 1.5 0 0 1 I I #
coedge $-1 $369 $369 $-1 $505 reversed $255 $-1 #
edge $-1 $506 0 $506 6.2831853071796004 $256 $507 forward 7 unknown #
vertex $-1 $259 $508 #
ellipse-curve $-1 48.610109097701368 39.738614272601843 6.5493140273304569 0 0.66913061440640931 0.74314481823134659 1.5 0 0 1 I I #
face $-1 $-1 $275 $39 $-1 $509 reversed single #
loop $-1 $-1 $389 $260 #
plane-surface $-1 0 45.576716462255789 0 0 -1 0 0 0 -1 forward_v I I I I #
coedge $-1 $510 $387 $390 $511 forward $261 $-1 #
coedge $-1 $393 $263 $264 $381 reversed $165 $-1 #
coedge $-1 $387 $510 $263 $379 reversed $261 $-1 #
edge $-1 $394 -11.805964964395114 $512 11.805964964395114 $378 $513 forward 7 unknown #
coedge $-1 $265 $264 $510 $514 forward $105 $-1 #
edge $-1 $385 -66.709799493392751 $512 66.709799493392751 $377 $515 forward 7 unknown #
coedge $-1 $390 $389 $265 $383 reversed $374 $-1 #
edge $-1 $516 -66.709799493392751 $384 66.709799493392751 $382 $517 forward 7 unknown #
vertex $-1 $267 $518 #
vertex $-1 $396 $519 #
straight-curve $-1 66.709799493392751 0 -11.805964964395114 0 -1 0 I I #
coedge $-1 $376 $378 $268 $388 reversed $261 $-1 #
edge $-1 $391 -45.576716462255789 $394 45.576716462255789 $387 $520 forward 7 unknown #
coedge $-1 $382 $269 $274 $397 forward $374 $-1 #
coedge $-1 $269 $382 $376 $511 reversed $374 $-1 #
vertex $-1 $270 $521 #
straight-curve $-1 0 45.576716462255789 11.805964964395114 -1 0 0 I I #
coedge $-1 $271 $377 $273 $396 reversed $165 $-1 #
vertex $-1 $388 $522 #
straight-curve $-1 0 -45.576716462255789 11.805964964395114 1 0 0 I I #
edge $-1 $276 -11.805964964395114 $385 11.805964964395114 $273 $523 forward 7 unknown #
edge $-1 $277 -11.805964964395114 $384 11.805964964395114 $274 $524 forward 7 unknown #
point $-1 66.709799493392751 -45.576716462255789 11.805964964395114 #
point $-1 66.709799493392751 45.576716462255789 11.805964964395114 #
face $-1 $-1 $410 $40 $-1 $525 reversed single #
loop $-1 $-1 $406 $279 #
plane-surface $-1 0 0 -11.805964964395114 0 0 1 1 0 0 forward_v I I I I #
coedge $-1 $526 $527 $287 $414 forward $280 $-1 #
coedge $-1 $282 $418 $408 $528 forward $173 $-1 #
edge $-1 $412 -23.538358231127894 $292 -20.538358231127894 $282 $529 forward 7 unknown #
coedge $-1 $530 $288 $283 $407 forward $401 $-1 #
edge $-1 $293 20.538358231127894 $411 23.538358231127894 $406 $531 forward 7 unknown #
coedge $-1 $532 $285 $404 $528 reversed $410 $-1 #
coedge $-1 $285 $532 $530 $533 reversed $410 $-1 #
loop $-1 $-1 $285 $400 #
vertex $-1 $533 $534 #
vertex $-1 $286 $535 #
straight-curve $-1 -56.241918353722838 -45.576716462255789 0 0 0 1 I I #
edge $-1 $419 -11.805964964395114 $416 11.805964964395114 $403 $536 forward 7 unknown #
coedge $-1 $288 $530 $526 $537 forward $401 $-1 #
vertex $-1 $289 $538 #
straight-curve $-1 -30.737929461778897 -42.576716462255789 -11.805964964395114 1 0 0 I I #
coedge $-1 $404 $290 $527 $539 forward $173 $-1 #
vertex $-1 $539 $540 #
straight-curve $-1 -30.737929461778897 -42.576716462255789 11.805964964395114 -1 0 0 I I #
point $-1 -56.241918353722838 -42.576716462255789 11.805964964395114 #
point $-1 -56.241918353722838 -42.576716462255789 -11.805964964395114 #
loop $-1 $-1 $303 $295 #
plane-surface $-1 0 -45.576716462255789 0 0 1 0 0 0 1 forward_v I I I I #
coedge $-1 $426 $298 $300 $430 reversed $181 $-1 #
coedge $-1 $298 $425 $541 $542 reversed $181 $-1 #
coedge $-1 $306 $301 $298 $428 forward $296 $-1 #
edge $-1 $431 -29.915402831564862 $543 -21.849210890814362 $427 $544 forward 7 unknown #
coedge $-1 $300 $299 $434 $545 reversed $113 $-1 #
edge $-1 $546 -1.8881026247711288e-014 $431 10.854131984594446 $425 $547 forward 7 unknown #
vertex $-1 $302 $548 #
straight-curve $-1 21.104470708618763 -37.510524521505289 11.805964964395114 -1 0 0 I I #
coedge $-1 $541 $303 $306 $438 reversed $423 $-1 #
coedge $-1 $303 $541 $429 $545 forward $423 $-1 #
vertex $-1 $304 $549 #
straight-curve $-1 51.03642223089858 -45.576716462255789 51.846608299114521 0 0 1 I I #
straight-curve $-1 51.03642223089858 -45.576716462255774 4.5431329606951749 0 -0.74314481823134659 -0.66913061440640931 I I #
edge $-1 $543 33.381460603576471 $307 51.03642223089858 $433 $550 forward 7 unknown #
point $-1 51.03642223089858 -45.576716462255789 11.805964964395114 #
point $-1 51.03642223089858 -37.510524521505289 11.805964964395114 #
edge $-1 $551 1 $551 0 $310 $-1 forward 7 unknown #
vertex $-1 $311 $552 #
ellipse-curve $-1 38.425735354239933 -40.582634817777006 7.1072662695568134 0 -0.66913061440640931 0.74314481823134659 1 0 0 1 I I #
point $-1 39.425735354239933 -41.54362049188056 8.1745489625451526 #
edge $-1 $553 1 $553 0 $314 $-1 forward 7 unknown #
vertex $-1 $315 $554 #
ellipse-curve $-1 45.992147480235118 -40.582634817777006 7.1072662695568134 0 -0.66913061440640931 0.74314481823134659 1 0 0 1 I I #
point $-1 46.992147480235118 -41.54362049188056 8.1745489625451526 #
plane-surface $-1 0 0 11.805964964395114 0 0 1 1 0 0 forward_v I I I I #
coedge $-1 $460 $459 $452 $555 forward $319 $-1 #
coedge $-1 $452 $321 $323 $456 reversed $203 $-1 #
coedge $-1 $321 $451 $450 $555 reversed $203 $-1 #
coedge $-1 $329 $324 $321 $454 forward $330 $-1 #
edge $-1 $457 0.34468540080244736 $556 12.020889780110338 $453 $557 forward 7 unknown #
coedge $-1 $323 $322 $460 $558 reversed $127 $-1 #
edge $-1 $559 -91.153432924511591 $457 -75.441550000942584 $451 $560 forward 7 unknown #
vertex $-1 $325 $561 #
straight-curve $-1 -15.003711154426124 33.900512082947898 11.805964964395109 1 0 0 I I #
coedge $-1 $450 $326 $329 $464 reversed $319 $-1 #
coedge $-1 $326 $450 $455 $558 forward $319 $-1 #
vertex $-1 $327 $562 #
straight-curve $-1 -43.565431724150883 45.576716462255789 80.71814965291577 0 0 1 I I #
straight-curve $-1 -43.565431724150883 -22.163484879593625 62.286215668297672 0 0.74314481823134659 -0.66913061440640931 I I #
edge $-1 $556 16.449412893553614 $331 43.565431724150883 $459 $563 forward 7 unknown #
point $-1 -43.565431724150883 45.576716462255789 11.805964964395114 #
point $-1 -43.565431724150883 33.900512082947898 11.805964964395109 #
edge $-1 $564 1 $564 0 $334 $-1 forward 7 unknown #
vertex $-1 $335 $565 #
ellipse-curve $-1 -38.142227958031427 36.70360345974369 3.1785931093337867 0 0.66913061440640931 0.74314481823134659 1.5 0 0 1 I I #
point $-1 -36.642227958031427 39.738614272601858 6.5493140273304729 #
edge $-1 $566 1 $566 0 $338 $-1 forward 7 unknown #
vertex $-1 $339 $567 #
ellipse-curve $-1 -30.007422308852242 36.70360345974369 3.1785931093337867 0 0.66913061440640931 0.74314481823134659 1.5 0 0 1 I I #
point $-1 -28.507422308852242 39.738614272601858 6.5493140273304729 #
edge $-1 $568 1 $568 0 $342 $-1 forward 7 unknown #
vertex $-1 $343 $569 #
ellipse-curve $-1 -21.872616659673056 36.70360345974369 3.1785931093337867 0 0.66913061440640931 0.74314481823134659 1.5 0 0 1 I I #
point $-1 -20.372616659673056 39.738614272601858 6.5493140273304729 #
loop $-1 $-1 $354 $346 #
plane-surface $-1 0 45.576716462255789 0 0 -1 0 0 0 -1 forward_v I I I I #
coedge $-1 $482 $349 $351 $486 reversed $232 $-1 #
coedge $-1 $349 $481 $570 $571 reversed $232 $-1 #
coedge $-1 $357 $352 $349 $484 forward $347 $-1 #
edge $-1 $487 0.34468540080244736 $572 12.020889780110338 $483 $573 forward 7 unknown #
coedge $-1 $351 $350 $490 $574 reversed $146 $-1 #
edge $-1 $575 -91.153432924511591 $487 -75.441550000942584 $481 $576 forward 7 unknown #
vertex $-1 $353 $577 #
straight-curve $-1 20.237651724261084 33.900512082947898 11.805964964395109 1 0 0 I I #
coedge $-1 $570 $354 $357 $494 reversed $479 $-1 #
coedge $-1 $354 $570 $485 $574 forward $479 $-1 #
vertex $-1 $355 $578 #
straight-curve $-1 26.917294033223534 45.576716462255789 80.71814965291577 0 0 1 I I #
straight-curve $-1 26.917294033223534 -22.163484879593625 62.286215668297672 0 0.74314481823134659 -0.66913061440640931 I I #
edge $-1 $572 -54.033312863820804 $358 -26.917294033223534 $489 $579 forward 7 unknown #
point $-1 26.917294033223534 45.576716462255789 11.805964964395114 #
point $-1 26.917294033223534 33.900512082947898 11.805964964395109 #
edge $-1 $580 1 $580 0 $361 $-1 forward 7 unknown #
vertex $-1 $362 $581 #
ellipse-curve $-1 32.340497799342998 36.70360345974369 3.1785931093337867 0 0.66913061440640931 0.74314481823134659 1.5 0 0 1 I I #
point $-1 33.840497799342998 39.738614272601858 6.5493140273304729 #
edge $-1 $582 1 $582 0 $365 $-1 forward 7 unknown #
vertex $-1 $366 $583 #
ellipse-curve $-1 40.475303448522183 36.70360345974369 3.1785931093337867 0 0.66913061440640931 0.74314481823134659 1.5 0 0 1 I I #
point $-1 41.975303448522183 39.738614272601858 6.5493140273304729 #
edge $-1 $584 1 $584 0 $369 $-1 forward 7 unknown #
vertex $-1 $370 $585 #
ellipse-curve $-1 48.610109097701368 36.70360345974369 3.1785931093337867 0 0.66913061440640931 0.74314481823134659 1.5 0 0 1 I I #
point $-1 50.110109097701368 39.738614272601858 6.5493140273304729 #
plane-surface $-1 66.709799493392751 0 0 -1 0 0 0 0 1 forward_v I I I I #
coedge $-1 $378 $376 $380 $514 reversed $261 $-1 #
edge $-1 $391 -11.805964964395114 $516 11.805964964395114 $390 $586 forward 7 unknown #
vertex $-1 $514 $587 #
straight-curve $-1 -66.709799493392751 -45.576716462255789 0 0 0 -1 I I #
edge $-1 $512 -45.576716462255789 $516 45.576716462255789 $510 $588 forward 7 unknown #
straight-curve $-1 0 -45.576716462255789 -11.805964964395114 -1 0 0 I I #
vertex $-1 $383 $589 #
straight-curve $-1 0 45.576716462255789 -11.805964964395114 1 0 0 I I #
point $-1 66.709799493392751 45.576716462255789 -11.805964964395114 #
point $-1 66.709799493392751 -45.576716462255789 -11.805964964395114 #
straight-curve $-1 -66.709799493392751 0 11.805964964395114 0 -1 0 I I #
point $-1 -66.709799493392751 45.576716462255789 11.805964964395114 #
point $-1 -66.709799493392751 -45.576716462255789 11.805964964395114 #
straight-curve $-1 66.709799493392751 -45.576716462255789 0 0 0 -1 I I #
straight-curve $-1 66.709799493392751 45.576716462255789 0 0 0 -1 I I #
plane-surface $-1 0 -45.576716462255789 0 0 1 0 0 0 1 forward_v I I I I #
coedge $-1 $590 $403 $415 $537 reversed $280 $-1 #
coedge $-1 $403 $590 $418 $539 reversed $280 $-1 #
edge $-1 $591 -66.709799493392751 $412 -56.241918353722838 $408 $592 forward 7 unknown #
straight-curve $-1 -56.241918353722838 -22.038358231127894 11.805964964395114 0 1 0 I I #
coedge $-1 $415 $406 $409 $533 forward $401 $-1 #
straight-curve $-1 -56.241918353722838 -22.038358231127894 -11.805964964395114 0 -1 0 I I #
coedge $-1 $409 $408 $590 $593 forward $410 $-1 #
edge $-1 $411 56.241918353722838 $594 66.709799493392751 $409 $595 forward 7 unknown #
point $-1 -56.241918353722838 -45.576716462255789 -11.805964964395114 #
point $-1 -56.241918353722838 -45.576716462255789 11.805964964395114 #
straight-curve $-1 -66.709799493392751 -42.576716462255789 0 0 0 -1 I I #
edge $-1 $594 -45.576716462255789 $416 -42.576716462255789 $526 $596 forward 7 unknown #
point $-1 -66.709799493392751 -42.576716462255789 -11.805964964395114 #
edge $-1 $419 42.576716462255789 $591 45.576716462255789 $527 $597 forward 7 unknown #
point $-1 -66.709799493392751 -42.576716462255789 11.805964964395114 #
coedge $-1 $434 $433 $426 $542 forward $423 $-1 #
edge $-1 $543 40.040643334719405 $546 47.303475338419361 $541 $598 forward 7 unknown #
vertex $-1 $438 $599 #
straight-curve $-1 33.381460603576471 -67.425927353070151 11.805964964395116 0 -1 0 I I #
edge $-1 $546 12.276989894957708 $435 29.931951522279817 $434 $600 forward 7 unknown #
vertex $-1 $545 $601 #
straight-curve $-1 33.381460603576471 -45.576716462255774 4.5431329606951749 0 0.74314481823134659 0.66913061440640931 I I #
point $-1 33.381460603576471 -37.510524521505289 11.805964964395114 #
point $-1 51.03642223089858 -45.576716462255789 4.5431329606951625 #
straight-curve $-1 0 -45.576716462255789 11.805964964395114 1 0 0 I I #
vertex $-1 $441 $602 #
point $-1 39.425735354239933 -40.582634817777006 7.1072662695568134 #
vertex $-1 $445 $603 #
point $-1 46.992147480235118 -40.582634817777006 7.1072662695568134 #
edge $-1 $556 68.912184688520654 $559 79.425486562649951 $450 $604 forward 7 unknown #
vertex $-1 $464 $605 #
straight-curve $-1 -16.449412893553614 33.555826682145451 11.805964964395116 0 1 0 I I #
edge $-1 $559 1.4457017391274896 $461 28.561720569724759 $460 $606 forward 7 unknown #
vertex $-1 $558 $607 #
straight-curve $-1 -16.449412893553614 -22.163484879593625 62.286215668297672 0 -0.74314481823134659 0.66913061440640931 I I #
point $-1 -16.449412893553614 33.900512082947898 11.805964964395109 #
point $-1 -43.565431724150883 45.576716462255789 1.2926630902658118 #
straight-curve $-1 0 45.576716462255789 11.805964964395114 -1 0 0 I I #
vertex $-1 $467 $608 #
point $-1 -36.642227958031427 36.70360345974369 3.1785931093337867 #
vertex $-1 $471 $609 #
point $-1 -28.507422308852242 36.70360345974369 3.1785931093337867 #
vertex $-1 $475 $610 #
point $-1 -20.372616659673056 36.70360345974369 3.1785931093337867 #
coedge $-1 $490 $489 $482 $571 forward $479 $-1 #
edge $-1 $572 68.912184688520654 $575 79.425486562649951 $570 $611 forward 7 unknown #
vertex $-1 $494 $612 #
straight-curve $-1 54.033312863820804 33.555826682145451 11.805964964395116 0 1 0 I I #
edge $-1 $575 -33.795661139559719 $491 -6.6796423089624497 $490 $613 forward 7 unknown #
vertex $-1 $574 $614 #
straight-curve $-1 54.033312863820804 -22.163484879593625 62.286215668297672 0 -0.74314481823134659 0.66913061440640931 I I #
point $-1 54.033312863820804 33.900512082947898 11.805964964395109 #
point $-1 26.917294033223534 45.576716462255789 1.2926630902658118 #
straight-curve $-1 0 45.576716462255789 11.805964964395114 -1 0 0 I I #
vertex $-1 $497 $615 #
point $-1 33.840497799342998 36.70360345974369 3.1785931093337867 #
vertex $-1 $501 $616 #
point $-1 41.975303448522183 36.70360345974369 3.1785931093337867 #
vertex $-1 $505 $617 #
point $-1 50.110109097701368 36.70360345974369 3.1785931093337867 #
straight-curve $-1 -66.709799493392751 45.576716462255789 0 0 0 -1 I I #
point $-1 -66.709799493392751 -45.576716462255789 -11.805964964395114 #
straight-curve $-1 -66.709799493392751 0 -11.805964964395114 0 1 0 I I #
point $-1 -66.709799493392751 45.576716462255789 -11.805964964395114 #
coedge $-1 $527 $526 $532 $593 reversed $280 $-1 #
vertex $-1 $539 $618 #
straight-curve $-1 0 -45.576716462255789 11.805964964395114 1 0 0 I I #
edge $-1 $591 -11.805964964395114 $594 11.805964964395114 $590 $619 forward 7 unknown #
vertex $-1 $537 $620 #
straight-curve $-1 0 -45.576716462255789 -11.805964964395114 -1 0 0 I I #
straight-curve $-1 -66.709799493392751 0 -11.805964964395114 0 1 0 I I #
straight-curve $-1 -66.709799493392751 0 11.805964964395114 0 -1 0 I I #
straight-curve $-1 33.381460603576471 -45.576716462255789 51.846608299114521 0 0 -1 I I #
point $-1 33.381460603576471 -45.576716462255789 11.805964964395114 #
straight-curve $-1 21.104470708618763 -45.576716462255789 4.5431329606951625 1 0 0 I I #
point $-1 33.381460603576471 -45.576716462255789 4.5431329606951625 #
point $-1 38.425735354239933 -39.913504203370593 6.3641214513254667 #
point $-1 45.992147480235118 -39.913504203370593 6.3641214513254667 #
straight-curve $-1 -16.449412893553614 45.576716462255789 80.71814965291577 0 0 -1 I I #
point $-1 -16.449412893553614 45.576716462255789 11.805964964395114 #
straight-curve $-1 -15.003711154426124 45.576716462255789 1.2926630902658154 -1 0 0 I I #
point $-1 -16.449412893553614 45.576716462255789 1.2926630902658118 #
point $-1 -38.142227958031427 35.69990753813407 2.0638758819867666 #
point $-1 -30.007422308852242 35.69990753813407 2.0638758819867666 #
point $-1 -21.872616659673056 35.69990753813407 2.0638758819867666 #
straight-curve $-1 54.033312863820804 45.576716462255789 80.71814965291577 0 0 -1 I I #
point $-1 54.033312863820804 45.576716462255789 11.805964964395114 #
straight-curve $-1 20.237651724261084 45.576716462255789 1.2926630902658154 -1 0 0 I I #
point $-1 54.033312863820804 45.576716462255789 1.2926630902658118 #
point $-1 32.340497799342998 35.69990753813407 2.0638758819867666 #
point $-1 40.475303448522183 35.69990753813407 2.0638758819867666 #
point $-1 48.610109097701368 35.69990753813407 2.0638758819867666 #
point $-1 -66.709799493392751 -45.576716462255789 11.805964964395114 #
straight-curve $-1 -66.709799493392751 -45.576716462255789 0 0 0 -1 I I #
point $-1 -66.709799493392751 -45.576716462255789 -11.805964964395114 #
End-of-ACIS-data 