500 0 8 0           
7 Unknown 11 ACIS 5.0 NT 24 Thu Mar 25 17:59:08 1999 
-1 9.9999999999999995e-007 1e-010 
body $-1 $8 $-1 $9 #
body $-1 $10 $-1 $11 #
body $-1 $12 $-1 $13 #
body $-1 $14 $-1 $15 #
body $-1 $16 $-1 $17 #
body $-1 $18 $-1 $19 #
body $-1 $20 $-1 $21 #
body $-1 $22 $-1 $23 #
lump $-1 $-1 $24 $0 #
transform $-1 1 0 0 0 1 0 0 0 1 51.798455763420513 23.862668216192674 9.2196109912466078 1 rotate no_reflect no_shear #
lump $-1 $-1 $25 $1 #
transform $-1 1 0 0 0 1 0 0 0 1 51.798455763420513 23.862668216192674 9.2196109912466078 1 rotate no_reflect no_shear #
lump $-1 $-1 $26 $2 #
transform $-1 1 0 0 0 1 0 0 0 1 51.798455763420513 23.862668216192674 9.2196109912466078 1 rotate no_reflect no_shear #
lump $-1 $-1 $27 $3 #
transform $-1 1 0 0 0 1 0 0 0 1 51.798455763420513 23.862668216192674 9.2196109912466078 1 rotate no_reflect no_shear #
lump $-1 $-1 $28 $4 #
transform $-1 1 0 0 0 1 0 0 0 1 51.798455763420513 23.862668216192674 9.2196109912466078 1 rotate no_reflect no_shear #
lump $-1 $-1 $29 $5 #
transform $-1 1 0 0 0 1 0 0 0 1 51.798455763420513 23.862668216192674 9.2196109912466078 1 rotate no_reflect no_shear #
lump $-1 $-1 $30 $6 #
transform $-1 1 0 0 0 1 0 0 0 1 51.798455763420513 23.862668216192674 9.2196109912466078 1 rotate no_reflect no_shear #
lump $-1 $-1 $31 $7 #
transform $-1 1 0 0 0 1 0 0 0 1 51.798455763420513 23.862668216192674 9.2196109912466078 1 rotate no_reflect no_shear #
shell $-1 $-1 $-1 $32 $-1 $8 #
shell $-1 $-1 $-1 $33 $-1 $10 #
shell $-1 $-1 $-1 $34 $-1 $12 #
shell $-1 $-1 $-1 $35 $-1 $14 #
shell $-1 $-1 $-1 $36 $-1 $16 #
shell $-1 $-1 $-1 $37 $-1 $18 #
shell $-1 $-1 $-1 $38 $-1 $20 #
shell $-1 $-1 $-1 $39 $-1 $22 #
face $-1 $40 $41 $24 $-1 $42 forward single #
face $-1 $43 $44 $25 $-1 $45 reversed single #
face $-1 $46 $47 $26 $-1 $48 reversed single #
face $-1 $49 $50 $27 $-1 $51 forward single #
face $-1 $52 $53 $28 $-1 $54 forward single #
face $-1 $55 $56 $29 $-1 $57 reversed single #
face $-1 $58 $59 $30 $-1 $60 forward single #
face $-1 $61 $62 $31 $-1 $63 forward single #
face $-1 $64 $65 $24 $-1 $66 reversed single #
loop $-1 $-1 $67 $32 #
plane-surface $-1 0 0 9.2196109912466078 0 0 1 1 0 0 forward_v I I I I #
face $-1 $68 $69 $25 $-1 $70 reversed single #
loop $-1 $-1 $71 $33 #
plane-surface $-1 0 -19.580812108393932 6.2196109912466078 0 0 1 1 0 0 forward_v I I I I #
face $-1 $72 $73 $26 $-1 $74 reversed single #
loop $-1 $-1 $75 $34 #
plane-surface $-1 -105.15481035259776 16.510237773180947 89.041896490708567 0 1 0 -0.51503808176128008 0 0.85716729658548041 forward_v I I I I #
face $-1 $76 $77 $27 $-1 $78 forward single #
loop $-1 $79 $80 $35 #
cone-surface $-1 -44.015518390428937 18.610932185470013 4.2110228125508868 0.51503808176128008 0 -0.85716729658548041 0.4285836482927402 0 0.25751904088064004 1 I I 0 1 0.5 forward I I I I #
face $-1 $81 $82 $28 $-1 $83 forward single #
loop $-1 $84 $85 $36 #
cone-surface $-1 -44.015518390428937 21.761973803903608 4.2110228125508868 0.51503808176128008 0 -0.85716729658548041 0.4285836482927402 0 0.25751904088064004 1 I I 0 1 0.5 forward I I I I #
face $-1 $86 $87 $29 $-1 $88 reversed single #
loop $-1 $-1 $89 $37 #
plane-surface $-1 -37.001428824647 20.18645299468681 53.598366491818311 0.51503808176128008 0 0.85716729658548041 0.85716729658548041 0 -0.51503808176128008 forward_v I I I I #
face $-1 $90 $91 $30 $-1 $92 forward single #
loop $-1 $93 $94 $38 #
cone-surface $-1 44.015518390428944 18.610932185470013 4.2110228125508975 -0.51503808176128008 0 -0.85716729658548041 0.4285836482927402 0 -0.25751904088064004 1 I I 0 1 0.5 forward I I I I #
face $-1 $95 $96 $31 $-1 $97 forward single #
loop $-1 $98 $99 $39 #
cone-surface $-1 44.015518390428944 21.761973803903608 4.2110228125508975 -0.51503808176128008 0 -0.85716729658548041 0.4285836482927402 0 -0.25751904088064004 1 I I 0 1 0.5 forward I I I I #
face $-1 $100 $101 $24 $-1 $102 reversed single #
loop $-1 $-1 $103 $40 #
plane-surface $-1 0 0 -9.2196109912466078 0 0 1 1 0 0 forward_v I I I I #
coedge $-1 $104 $105 $106 $107 forward $41 $-1 #
face $-1 $108 $109 $25 $-1 $110 reversed single #
loop $-1 $-1 $111 $43 #
plane-surface $-1 0 -15.29895600059519 7.7196109912466078 0 -1 0 0 0 -1 forward_v I I I I #
coedge $-1 $112 $113 $114 $115 reversed $44 $-1 #
face $-1 $116 $117 $26 $-1 $118 forward single #
loop $-1 $-1 $119 $46 #
plane-surface $-1 -51.79845576342052 20.18645299468681 0.24201190264105321 -0.51503808176128008 0 0.85716729658548041 0.85716729658548041 0 0.51503808176128008 forward_v I I I I #
coedge $-1 $120 $121 $122 $123 reversed $47 $-1 #
face $-1 $-1 $124 $27 $-1 $125 forward single #
loop $-1 $126 $127 $49 #
cone-surface $-1 -43.574438343709232 18.610932185470013 3.4769423540115767 0.51503808176128008 0 -0.85716729658548041 0.2142918241463701 0 0.12875952044032002 1 I I -0.70710678118654691 0.70710678118654813 0.25 forward I I I I #
loop $-1 $-1 $128 $35 #
coedge $-1 $80 $80 $129 $130 reversed $50 $-1 #
face $-1 $-1 $131 $28 $-1 $132 forward single #
loop $-1 $133 $134 $52 #
cone-surface $-1 -43.574438343709232 21.761973803903608 3.4769423540115767 0.51503808176128008 0 -0.85716729658548041 0.2142918241463701 0 0.12875952044032002 1 I I -0.70710678118654691 0.70710678118654813 0.25 forward I I I I #
loop $-1 $-1 $135 $36 #
coedge $-1 $85 $85 $136 $137 reversed $53 $-1 #
face $-1 $138 $139 $29 $-1 $140 forward single #
loop $-1 $-1 $141 $55 #
plane-surface $-1 16.354925764530243 16.510237773180947 142.39825107988582 0 1 0 0.51503808176128008 0 0.85716729658548041 forward_v I I I I #
coedge $-1 $142 $143 $144 $145 reversed $56 $-1 #
face $-1 $-1 $146 $30 $-1 $147 forward single #
loop $-1 $148 $149 $58 #
cone-surface $-1 43.57443834370924 18.610932185470013 3.4769423540115874 -0.51503808176128008 0 -0.85716729658548041 0.2142918241463701 0 -0.12875952044032002 1 I I -0.70710678118654691 0.70710678118654813 0.25 forward I I I I #
loop $-1 $-1 $150 $38 #
coedge $-1 $94 $94 $151 $152 reversed $59 $-1 #
face $-1 $-1 $153 $31 $-1 $154 forward single #
loop $-1 $155 $156 $61 #
cone-surface $-1 43.57443834370924 21.761973803903608 3.4769423540115874 -0.51503808176128008 0 -0.85716729658548041 0.2142918241463701 0 -0.12875952044032002 1 I I -0.70710678118654691 0.70710678118654813 0.25 forward I I I I #
loop $-1 $-1 $157 $39 #
coedge $-1 $99 $99 $158 $159 reversed $62 $-1 #
face $-1 $160 $161 $24 $-1 $162 reversed single #
loop $-1 $-1 $163 $64 #
plane-surface $-1 0 -23.862668216192674 0 0 1 0 0 0 1 forward_v I I I I #
coedge $-1 $164 $165 $166 $167 forward $65 $-1 #
coedge $-1 $168 $67 $169 $170 forward $41 $-1 #
coedge $-1 $67 $168 $171 $172 forward $41 $-1 #
coedge $-1 $173 $174 $67 $107 reversed $175 $-1 #
edge $-1 $176 -23.862668216192674 $177 23.862668216192674 $106 $178 forward 7 unknown #
face $-1 $179 $180 $25 $-1 $181 reversed single #
loop $-1 $-1 $182 $68 #
plane-surface $-1 -51.798455763420513 0 0 1 0 0 0 0 -1 forward_v I I I I #
coedge $-1 $183 $184 $185 $186 reversed $69 $-1 #
coedge $-1 $187 $71 $188 $189 reversed $44 $-1 #
coedge $-1 $71 $187 $183 $190 forward $44 $-1 #
coedge $-1 $185 $191 $71 $115 forward $192 $-1 #
edge $-1 $193 -14.072262161995708 $194 -5.5085499463982242 $114 $195 forward 7 unknown #
face $-1 $196 $197 $26 $-1 $198 reversed single #
loop $-1 $-1 $122 $72 #
plane-surface $-1 0 0 9.2196109912466078 0 0 1 1 0 0 forward_v I I I I #
coedge $-1 $199 $200 $201 $202 reversed $73 $-1 #
coedge $-1 $121 $75 $203 $204 reversed $47 $-1 #
coedge $-1 $75 $120 $199 $205 reversed $47 $-1 #
coedge $-1 $201 $206 $75 $123 forward $117 $-1 #
edge $-1 $207 0.77894941287836872 $208 15.720183106302734 $122 $209 forward 7 unknown #
loop $-1 $-1 $129 $76 #
plane-surface $-1 -51.79845576342052 20.18645299468681 0.24201190264105321 -0.51503808176128008 0 0.85716729658548041 0.85716729658548041 0 0.51503808176128008 forward_v I I I I #
loop $-1 $-1 $210 $49 #
coedge $-1 $127 $127 $128 $211 reversed $77 $-1 #
coedge $-1 $128 $128 $127 $211 forward $79 $-1 #
coedge $-1 $129 $129 $80 $130 forward $124 $-1 #
edge $-1 $212 0 $212 6.2831853071796004 $129 $213 forward 7 unknown #
loop $-1 $-1 $136 $81 #
plane-surface $-1 -51.79845576342052 20.18645299468681 0.24201190264105321 -0.51503808176128008 0 0.85716729658548041 0.85716729658548041 0 0.51503808176128008 forward_v I I I I #
loop $-1 $-1 $214 $52 #
coedge $-1 $134 $134 $135 $215 reversed $82 $-1 #
coedge $-1 $135 $135 $134 $215 forward $84 $-1 #
coedge $-1 $136 $136 $85 $137 forward $131 $-1 #
edge $-1 $216 0 $216 6.2831853071796004 $136 $217 forward 7 unknown #
face $-1 $218 $219 $29 $-1 $220 reversed single #
loop $-1 $-1 $144 $86 #
plane-surface $-1 0 0 9.2196109912466078 0 0 1 1 0 0 forward_v I I I I #
coedge $-1 $221 $222 $223 $224 reversed $87 $-1 #
coedge $-1 $225 $89 $226 $227 reversed $56 $-1 #
coedge $-1 $89 $225 $221 $228 forward $56 $-1 #
coedge $-1 $223 $229 $89 $145 forward $139 $-1 #
edge $-1 $230 -13.769441718849269 $231 -6.4170112758375417 $144 $232 forward 7 unknown #
loop $-1 $-1 $151 $90 #
plane-surface $-1 -37.001428824647 20.18645299468681 53.598366491818311 0.51503808176128008 0 0.85716729658548041 0.85716729658548041 0 -0.51503808176128008 forward_v I I I I #
loop $-1 $-1 $233 $58 #
coedge $-1 $149 $149 $150 $234 reversed $91 $-1 #
coedge $-1 $150 $150 $149 $234 forward $93 $-1 #
coedge $-1 $151 $151 $94 $152 forward $146 $-1 #
edge $-1 $235 0 $235 6.2831853071796004 $151 $236 forward 7 unknown #
loop $-1 $-1 $158 $95 #
plane-surface $-1 -37.001428824647 20.18645299468681 53.598366491818311 0.51503808176128008 0 0.85716729658548041 0.85716729658548041 0 -0.51503808176128008 forward_v I I I I #
loop $-1 $-1 $237 $61 #
coedge $-1 $156 $156 $157 $238 reversed $96 $-1 #
coedge $-1 $157 $157 $156 $238 forward $98 $-1 #
coedge $-1 $158 $158 $99 $159 forward $153 $-1 #
edge $-1 $239 0 $239 6.2831853071796004 $158 $240 forward 7 unknown #
face $-1 $241 $242 $24 $-1 $243 reversed single #
loop $-1 $-1 $244 $100 #
plane-surface $-1 -51.798455763420513 0 0 1 0 0 0 0 -1 forward_v I I I I #
coedge $-1 $245 $171 $246 $247 forward $101 $-1 #
coedge $-1 $248 $103 $245 $249 forward $65 $-1 #
coedge $-1 $103 $248 $250 $251 forward $65 $-1 #
coedge $-1 $174 $173 $103 $167 reversed $175 $-1 #
edge $-1 $252 -23.862668216192674 $253 23.862668216192674 $166 $254 forward 7 unknown #
coedge $-1 $105 $104 $255 $256 forward $41 $-1 #
coedge $-1 $257 $258 $104 $170 reversed $242 $-1 #
edge $-1 $177 -51.798455763420513 $259 51.798455763420513 $169 $260 forward 7 unknown #
coedge $-1 $163 $261 $105 $172 reversed $101 $-1 #
edge $-1 $262 -51.798455763420513 $176 51.798455763420513 $171 $263 forward 7 unknown #
coedge $-1 $166 $106 $261 $264 forward $175 $-1 #
coedge $-1 $106 $166 $257 $265 reversed $175 $-1 #
loop $-1 $-1 $173 $241 #
vertex $-1 $107 $266 #
vertex $-1 $107 $267 #
straight-curve $-1 51.798455763420513 0 9.2196109912466078 0 1 0 I I #
face $-1 $268 $269 $25 $-1 $270 forward single #
loop $-1 $-1 $188 $108 #
plane-surface $-1 0 -23.862668216192674 0 0 1 0 0 0 1 forward_v I I I I #
coedge $-1 $271 $272 $273 $274 forward $109 $-1 #
coedge $-1 $273 $111 $113 $190 reversed $69 $-1 #
coedge $-1 $111 $273 $275 $276 reversed $69 $-1 #
coedge $-1 $277 $114 $111 $186 forward $192 $-1 #
edge $-1 $194 2.3598054956233039 $278 5.3598054956233039 $185 $279 forward 7 unknown #
coedge $-1 $113 $112 $271 $280 reversed $44 $-1 #
coedge $-1 $281 $282 $112 $189 forward $180 $-1 #
edge $-1 $283 -51.798455763420513 $193 51.798455763420513 $188 $284 forward 7 unknown #
edge $-1 $285 -51.798455763420513 $194 51.798455763420513 $183 $286 forward 7 unknown #
coedge $-1 $114 $277 $281 $287 forward $192 $-1 #
loop $-1 $-1 $185 $268 #
vertex $-1 $189 $288 #
vertex $-1 $115 $289 #
straight-curve $-1 51.798455763420513 -9.790406054196966 6.2196109912466078 0 1 0 I I #
face $-1 $-1 $290 $26 $-1 $291 reversed single #
loop $-1 $-1 $292 $116 #
plane-surface $-1 0 23.862668216192674 0 0 -1 0 0 0 -1 forward_v I I I I #
coedge $-1 $293 $119 $121 $205 forward $73 $-1 #
coedge $-1 $119 $293 $292 $294 reversed $73 $-1 #
coedge $-1 $295 $122 $119 $202 forward $117 $-1 #
edge $-1 $208 6.4170112758375417 $296 13.769441718849269 $201 $297 forward 7 unknown #
coedge $-1 $298 $299 $120 $204 forward $290 $-1 #
edge $-1 $300 -44.278936342713223 $207 -35.301337254107679 $203 $301 forward 7 unknown #
edge $-1 $208 -17.430942306061681 $300 -8.2919974363804304e-015 $121 $302 forward 7 unknown #
coedge $-1 $122 $295 $298 $303 forward $117 $-1 #
vertex $-1 $204 $304 #
vertex $-1 $123 $305 #
straight-curve $-1 -52.577405176298882 16.510237773180947 9.2196109912466042 1 0 0 I I #
coedge $-1 $210 $210 $-1 $306 reversed $126 $-1 #
edge $-1 $307 0 $307 6.2831853071796004 $127 $308 forward 7 unknown #
vertex $-1 $130 $309 #
ellipse-curve $-1 -44.327838916708323 18.610932185470013 4.730811446943834 -0.51503808176128008 0 0.85716729658548041 0.4285836482927402 0 0.25751904088064004 1 I I #
coedge $-1 $214 $214 $-1 $310 reversed $133 $-1 #
edge $-1 $311 0 $311 6.2831853071796004 $134 $312 forward 7 unknown #
vertex $-1 $137 $313 #
ellipse-curve $-1 -44.327838916708323 21.761973803903608 4.730811446943834 -0.51503808176128008 0 0.85716729658548041 0.4285836482927402 0 0.25751904088064004 1 I I #
face $-1 $-1 $314 $29 $-1 $315 reversed single #
loop $-1 $-1 $316 $138 #
plane-surface $-1 51.798455763420513 0 0 -1 0 0 0 0 1 forward_v I I I I #
coedge $-1 $222 $141 $143 $228 reversed $87 $-1 #
coedge $-1 $141 $221 $317 $318 reversed $87 $-1 #
coedge $-1 $319 $144 $141 $224 forward $139 $-1 #
edge $-1 $231 28.67975918773104 $320 43.620992881155388 $223 $321 forward 7 unknown #
coedge $-1 $143 $142 $316 $322 reversed $56 $-1 #
coedge $-1 $323 $324 $142 $227 forward $314 $-1 #
edge $-1 $325 -73.936104237387553 $230 -56.505161931325901 $226 $326 forward 7 unknown #
edge $-1 $327 -103.59691152684101 $231 -86.16596922077936 $221 $328 forward 7 unknown #
coedge $-1 $144 $319 $323 $329 forward $139 $-1 #
vertex $-1 $227 $330 #
vertex $-1 $145 $331 #
straight-curve $-1 36.857222069996169 10.093226497343405 9.2196109912466042 0 -1 0 I I #
coedge $-1 $233 $233 $-1 $332 reversed $148 $-1 #
edge $-1 $333 0 $333 6.2831853071796004 $149 $334 forward 7 unknown #
vertex $-1 $152 $335 #
ellipse-curve $-1 44.32783891670833 18.610932185470013 4.730811446943842 0.51503808176128008 0 0.85716729658548041 0.4285836482927402 0 -0.25751904088064004 1 I I #
coedge $-1 $237 $237 $-1 $336 reversed $155 $-1 #
edge $-1 $337 0 $337 6.2831853071796004 $156 $338 forward 7 unknown #
vertex $-1 $159 $339 #
ellipse-curve $-1 44.32783891670833 21.761973803903608 4.730811446943842 0.51503808176128008 0 0.85716729658548041 0.4285836482927402 0 -0.25751904088064004 1 I I #
face $-1 $-1 $175 $24 $-1 $340 reversed single #
loop $-1 $-1 $257 $160 #
plane-surface $-1 0 23.862668216192674 0 0 -1 0 0 0 -1 forward_v I I I I #
coedge $-1 $341 $255 $258 $342 forward $161 $-1 #
coedge $-1 $261 $163 $164 $249 reversed $101 $-1 #
coedge $-1 $255 $341 $163 $247 reversed $161 $-1 #
edge $-1 $262 -9.2196109912466078 $343 9.2196109912466078 $246 $344 forward 7 unknown #
coedge $-1 $165 $164 $341 $345 forward $65 $-1 #
edge $-1 $253 -51.798455763420513 $343 51.798455763420513 $245 $346 forward 7 unknown #
coedge $-1 $258 $257 $165 $251 reversed $242 $-1 #
edge $-1 $347 -51.798455763420513 $252 51.798455763420513 $250 $348 forward 7 unknown #
vertex $-1 $167 $349 #
vertex $-1 $264 $350 #
straight-curve $-1 51.798455763420513 0 -9.2196109912466078 0 -1 0 I I #
coedge $-1 $244 $246 $168 $256 reversed $161 $-1 #
edge $-1 $259 -23.862668216192674 $262 23.862668216192674 $255 $351 forward 7 unknown #
coedge $-1 $250 $169 $174 $265 forward $242 $-1 #
coedge $-1 $169 $250 $244 $342 reversed $242 $-1 #
vertex $-1 $170 $352 #
straight-curve $-1 0 23.862668216192674 9.2196109912466078 -1 0 0 I I #
coedge $-1 $171 $245 $173 $264 reversed $101 $-1 #
vertex $-1 $256 $353 #
straight-curve $-1 0 -23.862668216192674 9.2196109912466078 1 0 0 I I #
edge $-1 $176 -9.2196109912466078 $253 9.2196109912466078 $173 $354 forward 7 unknown #
edge $-1 $177 -9.2196109912466078 $252 9.2196109912466078 $174 $355 forward 7 unknown #
point $-1 51.798455763420513 -23.862668216192674 9.2196109912466078 #
point $-1 51.798455763420513 23.862668216192674 9.2196109912466078 #
face $-1 $-1 $192 $25 $-1 $356 reversed single #
loop $-1 $-1 $275 $179 #
plane-surface $-1 0 0 9.2196109912466078 0 0 1 1 0 0 forward_v I I I I #
coedge $-1 $357 $182 $187 $280 forward $109 $-1 #
coedge $-1 $182 $357 $358 $359 reversed $109 $-1 #
coedge $-1 $184 $183 $182 $274 reversed $69 $-1 #
edge $-1 $360 -5.3598054956233039 $285 -2.3598054956233039 $182 $361 forward 7 unknown #
coedge $-1 $358 $362 $184 $276 forward $269 $-1 #
edge $-1 $278 -51.798455763420513 $360 51.798455763420513 $275 $363 forward 7 unknown #
coedge $-1 $191 $185 $362 $364 reversed $192 $-1 #
vertex $-1 $186 $365 #
straight-curve $-1 51.798455763420513 -15.29895600059519 3.8598054956233039 0 0 1 I I #
edge $-1 $285 5.5085499463982242 $283 14.072262161995708 $271 $366 forward 7 unknown #
coedge $-1 $367 $188 $191 $287 reversed $180 $-1 #
coedge $-1 $188 $367 $357 $368 forward $180 $-1 #
vertex $-1 $189 $369 #
straight-curve $-1 0 -23.862668216192674 6.2196109912466078 1 0 0 I I #
vertex $-1 $280 $370 #
straight-curve $-1 0 -15.29895600059519 6.2196109912466078 1 0 0 I I #
edge $-1 $371 -9.2196109912466078 $193 -6.2196109912466078 $191 $372 forward 7 unknown #
point $-1 51.798455763420513 -23.862668216192674 6.2196109912466078 #
point $-1 51.798455763420513 -15.29895600059519 6.2196109912466078 #
loop $-1 $-1 $203 $196 #
plane-surface $-1 -51.798455763420513 0 0 1 0 0 0 0 -1 forward_v I I I I #
coedge $-1 $373 $374 $200 $294 forward $197 $-1 #
coedge $-1 $200 $199 $299 $375 reversed $73 $-1 #
edge $-1 $296 4.706706167905379 $376 22.137648473967054 $292 $377 forward 7 unknown #
coedge $-1 $206 $201 $374 $378 forward $117 $-1 #
vertex $-1 $378 $379 #
straight-curve $-1 -36.857222069996141 10.093226497343405 9.2196109912466078 0 1 0 I I #
coedge $-1 $380 $203 $206 $303 reversed $290 $-1 #
coedge $-1 $203 $380 $293 $375 forward $290 $-1 #
vertex $-1 $204 $381 #
straight-curve $-1 -51.798455763420513 16.510237773180947 44.520948245354283 0 0 1 I I #
straight-curve $-1 -51.79845576342052 16.510237773180947 0.24201190264105321 -0.85716729658548041 0 -0.51503808176128008 I I #
edge $-1 $382 -23.862668216192674 $207 -16.510237773180947 $298 $383 forward 7 unknown #
point $-1 -51.798455763420513 16.510237773180947 9.2196109912466078 #
point $-1 -36.857222069996148 16.510237773180947 9.219610991246606 #
edge $-1 $384 1 $384 0 $210 $-1 forward 7 unknown #
vertex $-1 $211 $385 #
ellipse-curve $-1 -43.703197864149551 18.610932185470013 3.6912341781579472 -0.51503808176128008 0 0.85716729658548041 0.4285836482927402 0 0.25751904088064004 1 I I #
point $-1 -43.89925526841558 18.610932185470013 4.9883304878244674 #
edge $-1 $386 1 $386 0 $214 $-1 forward 7 unknown #
vertex $-1 $215 $387 #
ellipse-curve $-1 -43.703197864149551 21.761973803903608 3.6912341781579472 -0.51503808176128008 0 0.85716729658548041 0.4285836482927402 0 0.25751904088064004 1 I I #
point $-1 -43.89925526841558 21.761973803903608 4.9883304878244674 #
loop $-1 $-1 $226 $218 #
plane-surface $-1 0 23.862668216192674 0 0 -1 0 0 0 -1 forward_v I I I I #
coedge $-1 $388 $317 $225 $322 forward $219 $-1 #
coedge $-1 $316 $389 $222 $318 forward $219 $-1 #
edge $-1 $320 61.979514548696301 $327 70.957113637301845 $317 $390 forward 7 unknown #
coedge $-1 $229 $223 $389 $391 forward $139 $-1 #
vertex $-1 $391 $392 #
straight-curve $-1 8.1774628822651216 16.510237773180947 9.2196109912466113 1 0 0 I I #
edge $-1 $327 6.4170112758375417 $325 13.769441718849269 $316 $393 forward 7 unknown #
coedge $-1 $324 $226 $229 $329 reversed $314 $-1 #
coedge $-1 $226 $323 $388 $394 forward $314 $-1 #
vertex $-1 $227 $395 #
straight-curve $-1 -11.577154825803269 23.862668216192674 38.321921201967207 -0.85716729658548041 0 0.51503808176128008 I I #
vertex $-1 $322 $396 #
straight-curve $-1 -37.001428824647 16.510237773180947 53.598366491818311 -0.85716729658548041 0 0.51503808176128008 I I #
edge $-1 $397 -51.798455763420513 $230 -36.857222069996162 $323 $398 forward 7 unknown #
point $-1 36.857222069996162 23.862668216192674 9.2196109912466113 #
point $-1 36.857222069996162 16.510237773180947 9.2196109912466113 #
edge $-1 $399 1 $399 0 $233 $-1 forward 7 unknown #
vertex $-1 $234 $400 #
ellipse-curve $-1 43.703197864149558 18.610932185470013 3.6912341781579578 0.51503808176128008 0 0.85716729658548041 0.4285836482927402 0 -0.25751904088064004 1 I I #
point $-1 44.756422565001074 18.610932185470013 4.473292406063198 #
edge $-1 $401 1 $401 0 $237 $-1 forward 7 unknown #
vertex $-1 $238 $402 #
ellipse-curve $-1 43.703197864149558 21.761973803903608 3.6912341781579578 0.51503808176128008 0 0.85716729658548041 0.4285836482927402 0 -0.25751904088064004 1 I I #
point $-1 44.756422565001074 21.761973803903608 4.473292406063198 #
plane-surface $-1 51.798455763420513 0 0 -1 0 0 0 0 1 forward_v I I I I #
coedge $-1 $246 $244 $248 $345 reversed $161 $-1 #
edge $-1 $259 -9.2196109912466078 $347 9.2196109912466078 $258 $403 forward 7 unknown #
vertex $-1 $345 $404 #
straight-curve $-1 -51.798455763420513 -23.862668216192674 0 0 0 -1 I I #
edge $-1 $343 -23.862668216192674 $347 23.862668216192674 $341 $405 forward 7 unknown #
straight-curve $-1 0 -23.862668216192674 -9.2196109912466078 -1 0 0 I I #
vertex $-1 $251 $406 #
straight-curve $-1 0 23.862668216192674 -9.2196109912466078 1 0 0 I I #
point $-1 51.798455763420513 23.862668216192674 -9.2196109912466078 #
point $-1 51.798455763420513 -23.862668216192674 -9.2196109912466078 #
straight-curve $-1 -51.798455763420513 0 9.2196109912466078 0 -1 0 I I #
point $-1 -51.798455763420513 23.862668216192674 9.2196109912466078 #
point $-1 -51.798455763420513 -23.862668216192674 9.2196109912466078 #
straight-curve $-1 51.798455763420513 -23.862668216192674 0 0 0 -1 I I #
straight-curve $-1 51.798455763420513 23.862668216192674 0 0 0 -1 I I #
plane-surface $-1 51.798455763420513 0 0 -1 0 0 0 0 1 forward_v I I I I #
coedge $-1 $272 $271 $282 $368 reversed $109 $-1 #
coedge $-1 $407 $275 $272 $359 forward $269 $-1 #
edge $-1 $360 15.29895600059519 $408 23.862668216192674 $272 $409 forward 7 unknown #
vertex $-1 $359 $410 #
straight-curve $-1 -51.798455763420513 -15.29895600059519 3.8598054956233039 0 0 -1 I I #
coedge $-1 $275 $407 $277 $364 forward $269 $-1 #
straight-curve $-1 0 -15.29895600059519 9.2196109912466078 -1 0 0 I I #
edge $-1 $371 -23.862668216192674 $278 -15.29895600059519 $277 $411 forward 7 unknown #
point $-1 51.798455763420513 -15.29895600059519 9.2196109912466078 #
straight-curve $-1 -51.798455763420513 -9.790406054196966 6.2196109912466078 0 -1 0 I I #
coedge $-1 $282 $281 $407 $412 reversed $180 $-1 #
edge $-1 $408 -9.2196109912466078 $283 -6.2196109912466078 $357 $413 forward 7 unknown #
point $-1 -51.798455763420513 -23.862668216192674 6.2196109912466078 #
point $-1 -51.798455763420513 -15.29895600059519 6.2196109912466078 #
vertex $-1 $364 $414 #
straight-curve $-1 51.798455763420513 -23.862668216192674 0 0 0 -1 I I #
coedge $-1 $374 $292 $380 $415 reversed $197 $-1 #
coedge $-1 $292 $373 $295 $378 reversed $197 $-1 #
edge $-1 $376 -13.769441718849269 $300 -6.4170112758375417 $299 $416 forward 7 unknown #
vertex $-1 $294 $417 #
straight-curve $-1 -32.822787468230487 23.862668216192674 11.643743907378576 -0.85716729658548041 0 -0.51503808176128008 I I #
edge $-1 $296 36.857222069996148 $382 51.798455763420513 $374 $418 forward 7 unknown #
point $-1 -36.857222069996148 23.862668216192674 9.219610991246606 #
coedge $-1 $299 $298 $373 $415 forward $290 $-1 #
point $-1 -51.798455763420513 16.510237773180947 0.24201190264105749 #
vertex $-1 $378 $419 #
straight-curve $-1 -51.798455763420513 0 9.2196109912466078 0 -1 0 I I #
vertex $-1 $306 $420 #
point $-1 -43.274614215856815 18.610932185470013 3.9487532190385872 #
vertex $-1 $310 $421 #
point $-1 -43.274614215856815 21.761973803903608 3.9487532190385872 #
coedge $-1 $389 $316 $324 $394 reversed $219 $-1 #
coedge $-1 $317 $388 $319 $391 reversed $219 $-1 #
straight-curve $-1 51.798455763420513 16.510237773180947 71.199125539942912 0 0 -1 I I #
edge $-1 $320 16.510237773180947 $397 23.862668216192674 $389 $422 forward 7 unknown #
point $-1 51.798455763420513 16.510237773180947 9.2196109912466078 #
straight-curve $-1 51.798455763420513 10.093226497343405 0.24201190264106742 0 1 0 I I #
edge $-1 $397 -9.2196109912466078 $325 -0.24201190264106742 $388 $423 forward 7 unknown #
point $-1 51.798455763420513 23.862668216192674 0.24201190264106742 #
point $-1 51.798455763420513 16.510237773180947 0.24201190264106742 #
vertex $-1 $391 $424 #
straight-curve $-1 0 23.862668216192674 9.2196109912466078 -1 0 0 I I #
vertex $-1 $332 $425 #
point $-1 44.131781512442302 18.610932185470013 3.4337151372773178 #
vertex $-1 $336 $426 #
point $-1 44.131781512442302 21.761973803903608 3.4337151372773178 #
straight-curve $-1 -51.798455763420513 23.862668216192674 0 0 0 -1 I I #
point $-1 -51.798455763420513 -23.862668216192674 -9.2196109912466078 #
straight-curve $-1 -51.798455763420513 0 -9.2196109912466078 0 1 0 I I #
point $-1 -51.798455763420513 23.862668216192674 -9.2196109912466078 #
coedge $-1 $362 $358 $367 $412 forward $269 $-1 #
vertex $-1 $359 $427 #
straight-curve $-1 -51.798455763420513 0 9.2196109912466078 0 -1 0 I I #
point $-1 -51.798455763420513 -15.29895600059519 9.2196109912466078 #
straight-curve $-1 51.798455763420513 0 9.2196109912466078 0 1 0 I I #
edge $-1 $408 -51.798455763420513 $371 51.798455763420513 $367 $428 forward 7 unknown #
straight-curve $-1 -51.798455763420513 -23.862668216192674 0 0 0 -1 I I #
point $-1 51.798455763420513 -23.862668216192674 9.2196109912466078 #
edge $-1 $382 -9.2196109912466078 $376 -0.24201190264105749 $373 $429 forward 7 unknown #
straight-curve $-1 -51.798455763420513 10.093226497343405 0.24201190264105898 0 -1 0 I I #
point $-1 -51.798455763420513 23.862668216192674 0.24201190264105749 #
straight-curve $-1 0 23.862668216192674 9.2196109912466078 -1 0 0 I I #
point $-1 -51.798455763420513 23.862668216192674 9.2196109912466078 #
point $-1 -43.445678823268914 18.610932185470013 3.2626505298652062 #
point $-1 -43.445678823268914 21.761973803903608 3.2626505298652062 #
straight-curve $-1 51.798455763420513 0 9.2196109912466078 0 1 0 I I #
straight-curve $-1 51.798455763420513 23.862668216192674 0 0 0 -1 I I #
point $-1 51.798455763420513 23.862668216192674 9.2196109912466078 #
point $-1 43.445678823268921 18.610932185470013 3.2626505298652169 #
point $-1 43.445678823268921 21.761973803903608 3.2626505298652169 #
point $-1 -51.798455763420513 -23.862668216192674 9.2196109912466078 #
straight-curve $-1 0 -23.862668216192674 9.2196109912466078 1 0 0 I I #
straight-curve $-1 -51.798455763420513 23.862668216192674 0 0 0 -1 I I #
End-of-ACIS-data 