500 0 6 0           
7 Unknown 11 ACIS 5.0 NT 24 Fri Mar 26 00:24:40 1999 
-1 9.9999999999999995e-007 1e-010 
body $-1 $6 $-1 $7 #
body $-1 $8 $-1 $9 #
body $-1 $10 $-1 $11 #
body $-1 $12 $-1 $13 #
body $-1 $14 $-1 $15 #
body $-1 $16 $-1 $17 #
lump $-1 $-1 $18 $0 #
transform $-1 1 0 0 0 1 0 0 0 1 42.708822901089512 20.029104552573386 5.6906936113634972 1 rotate no_reflect no_shear #
lump $-1 $-1 $19 $1 #
transform $-1 1 0 0 0 1 0 0 0 1 42.708822901089512 20.029104552573386 5.6906936113634972 1 rotate no_reflect no_shear #
lump $-1 $-1 $20 $2 #
transform $-1 1 0 0 0 1 0 0 0 1 42.708822901089512 20.029104552573386 5.6906936113634972 1 rotate no_reflect no_shear #
lump $-1 $-1 $21 $3 #
transform $-1 1 0 0 0 1 0 0 0 1 42.708822901089512 20.029104552573386 5.6906936113634972 1 rotate no_reflect no_shear #
lump $-1 $-1 $22 $4 #
transform $-1 1 0 0 0 1 0 0 0 1 42.708822901089512 20.029104552573386 5.6906936113634972 1 rotate no_reflect no_shear #
lump $-1 $-1 $23 $5 #
transform $-1 1 0 0 0 1 0 0 0 1 42.708822901089512 20.029104552573386 5.6906936113634972 1 rotate no_reflect no_shear #
shell $-1 $-1 $-1 $24 $-1 $6 #
shell $-1 $-1 $-1 $25 $-1 $8 #
shell $-1 $-1 $-1 $26 $-1 $10 #
shell $-1 $-1 $-1 $27 $-1 $12 #
shell $-1 $-1 $-1 $28 $-1 $14 #
shell $-1 $-1 $-1 $29 $-1 $16 #
face $-1 $30 $31 $18 $-1 $32 forward single #
face $-1 $33 $34 $19 $-1 $35 forward single #
face $-1 $36 $37 $20 $-1 $38 reversed single #
face $-1 $39 $40 $21 $-1 $41 forward single #
face $-1 $42 $43 $22 $-1 $44 forward single #
face $-1 $45 $46 $23 $-1 $47 forward single #
face $-1 $48 $49 $18 $-1 $50 reversed single #
loop $-1 $-1 $51 $24 #
plane-surface $-1 0 0 5.6906936113634972 0 0 1 1 0 0 forward_v I I I I #
face $-1 $52 $53 $19 $-1 $54 reversed single #
loop $-1 $-1 $55 $25 #
plane-surface $-1 0 -16.646861028704141 -0.14177171816380008 0 0 1 1 0 0 forward_v I I I I #
face $-1 $56 $57 $20 $-1 $58 reversed single #
loop $-1 $-1 $59 $26 #
plane-surface $-1 -2.3360530457218758 50.549724067093834 90.318799705163968 1 0 0 0 -0.69465837861970381 -0.71933979245794832 forward_v I I I I #
face $-1 $60 $61 $21 $-1 $62 forward single #
loop $-1 $63 $64 $27 #
cone-surface $-1 0.43473511685437671 16.246183372330496 1.9412610820349756 0 -0.69465837861970381 -0.71933979245794832 1 0 0 1 I I 0 1 1 forward I I I I #
face $-1 $65 $66 $22 $-1 $67 forward single #
loop $-1 $68 $69 $28 #
cone-surface $-1 4.5909173607187554 16.246183372330496 1.9412610820349756 0 -0.69465837861970381 -0.71933979245794832 1 0 0 1 I I 0 1 1 forward I I I I #
face $-1 $70 $71 $23 $-1 $72 forward single #
loop $-1 $73 $74 $29 #
cone-surface $-1 8.7470996045831342 16.246183372330496 1.9412610820349756 0 -0.69465837861970381 -0.71933979245794832 1 0 0 1 I I 0 1 1 forward I I I I #
face $-1 $75 $76 $18 $-1 $77 reversed single #
loop $-1 $-1 $78 $30 #
plane-surface $-1 0 0 -5.6906936113634972 0 0 1 1 0 0 forward_v I I I I #
coedge $-1 $79 $80 $81 $82 forward $31 $-1 #
face $-1 $83 $84 $19 $-1 $85 reversed single #
loop $-1 $-1 $86 $33 #
plane-surface $-1 0 -16.646861028704141 -3.1417717181637999 0 0 1 1 0 0 forward_v I I I I #
coedge $-1 $87 $88 $89 $90 reversed $34 $-1 #
face $-1 $91 $92 $20 $-1 $93 reversed single #
loop $-1 $-1 $94 $36 #
plane-surface $-1 4.5909173607187554 -8.7863592713599985 28.874488101577967 0 0.69465837861970381 0.71933979245794832 1 0 0 forward_v I I I I #
coedge $-1 $95 $96 $97 $98 reversed $37 $-1 #
face $-1 $-1 $99 $21 $-1 $100 forward single #
loop $-1 $101 $102 $39 #
cone-surface $-1 0.43473511685437671 14.519904195615062 0.1536467050654009 0 -0.69465837861970381 -0.71933979245794832 0.5 0 0 1 I I -0.70710678118654746 0.70710678118654746 0.5 forward I I I I #
loop $-1 $-1 $103 $27 #
coedge $-1 $64 $64 $104 $105 reversed $40 $-1 #
face $-1 $-1 $106 $22 $-1 $107 forward single #
loop $-1 $108 $109 $42 #
cone-surface $-1 4.5909173607187554 14.519904195615062 0.1536467050654009 0 -0.69465837861970381 -0.71933979245794832 0.5 0 0 1 I I -0.70710678118654746 0.70710678118654746 0.5 forward I I I I #
loop $-1 $-1 $110 $28 #
coedge $-1 $69 $69 $111 $112 reversed $43 $-1 #
face $-1 $-1 $113 $23 $-1 $114 forward single #
loop $-1 $115 $116 $45 #
cone-surface $-1 8.7470996045831342 14.519904195615062 0.1536467050654009 0 -0.69465837861970381 -0.71933979245794832 0.5 0 0 1 I I -0.70710678118654746 0.70710678118654746 0.5 forward I I I I #
loop $-1 $-1 $117 $29 #
coedge $-1 $74 $74 $118 $119 reversed $46 $-1 #
face $-1 $120 $121 $18 $-1 $122 reversed single #
loop $-1 $-1 $123 $48 #
plane-surface $-1 0 -20.029104552573386 0 0 1 0 0 0 1 forward_v I I I I #
coedge $-1 $124 $125 $126 $127 forward $49 $-1 #
coedge $-1 $128 $51 $129 $130 forward $31 $-1 #
coedge $-1 $51 $128 $131 $132 forward $31 $-1 #
coedge $-1 $133 $134 $51 $82 reversed $135 $-1 #
edge $-1 $136 -20.029104552573386 $137 20.029104552573386 $81 $138 forward 7 unknown #
face $-1 $139 $140 $19 $-1 $141 reversed single #
loop $-1 $-1 $142 $52 #
plane-surface $-1 0 -13.264617504834895 -1.6417717181637999 0 -1 0 0 0 -1 forward_v I I I I #
coedge $-1 $143 $144 $145 $146 reversed $53 $-1 #
coedge $-1 $147 $55 $148 $149 forward $34 $-1 #
coedge $-1 $55 $147 $150 $151 reversed $34 $-1 #
coedge $-1 $152 $153 $55 $90 forward $154 $-1 #
edge $-1 $155 4.9411869904828247 $156 11.705674038221316 $89 $157 forward 7 unknown #
face $-1 $158 $159 $20 $-1 $160 reversed single #
loop $-1 $-1 $161 $56 #
plane-surface $-1 11.517887767159387 50.549724067093834 90.318799705163968 -1 0 0 0 0.69465837861970381 0.71933979245794832 forward_v I I I I #
coedge $-1 $162 $163 $164 $165 reversed $57 $-1 #
coedge $-1 $96 $59 $166 $167 reversed $37 $-1 #
coedge $-1 $59 $95 $162 $168 reversed $37 $-1 #
coedge $-1 $164 $169 $59 $98 forward $170 $-1 #
edge $-1 $171 5.2457574809735306 $172 10.053699866648167 $97 $173 forward 7 unknown #
loop $-1 $-1 $104 $60 #
plane-surface $-1 4.5909173607187554 -8.7863592713599985 28.874488101577967 0 0.69465837861970381 0.71933979245794832 1 0 0 forward_v I I I I #
loop $-1 $-1 $174 $39 #
coedge $-1 $102 $102 $103 $175 reversed $61 $-1 #
coedge $-1 $103 $103 $102 $175 forward $63 $-1 #
coedge $-1 $104 $104 $64 $105 forward $99 $-1 #
edge $-1 $176 -4.4160858784336571e-016 $176 6.2831853071796004 $104 $177 forward 7 unknown #
loop $-1 $-1 $111 $65 #
plane-surface $-1 4.5909173607187554 -8.7863592713599985 28.874488101577967 0 0.69465837861970381 0.71933979245794832 1 0 0 forward_v I I I I #
loop $-1 $-1 $178 $42 #
coedge $-1 $109 $109 $110 $179 reversed $66 $-1 #
coedge $-1 $110 $110 $109 $179 forward $68 $-1 #
coedge $-1 $111 $111 $69 $112 forward $106 $-1 #
edge $-1 $180 -4.4160858784336571e-016 $180 6.2831853071796004 $111 $181 forward 7 unknown #
loop $-1 $-1 $118 $70 #
plane-surface $-1 4.5909173607187554 -8.7863592713599985 28.874488101577967 0 0.69465837861970381 0.71933979245794832 1 0 0 forward_v I I I I #
loop $-1 $-1 $182 $45 #
coedge $-1 $116 $116 $117 $183 reversed $71 $-1 #
coedge $-1 $117 $117 $116 $183 forward $73 $-1 #
coedge $-1 $118 $118 $74 $119 forward $113 $-1 #
edge $-1 $184 -4.4160858784336571e-016 $184 6.2831853071796004 $118 $185 forward 7 unknown #
face $-1 $186 $187 $18 $-1 $188 reversed single #
loop $-1 $-1 $189 $75 #
plane-surface $-1 -42.708822901089512 0 0 1 0 0 0 0 -1 forward_v I I I I #
coedge $-1 $190 $131 $191 $192 forward $76 $-1 #
coedge $-1 $193 $78 $190 $194 forward $49 $-1 #
coedge $-1 $78 $193 $195 $196 forward $49 $-1 #
coedge $-1 $134 $133 $78 $127 reversed $135 $-1 #
edge $-1 $197 -20.029104552573386 $198 20.029104552573386 $126 $199 forward 7 unknown #
coedge $-1 $80 $79 $200 $201 forward $31 $-1 #
coedge $-1 $202 $203 $79 $130 reversed $187 $-1 #
edge $-1 $137 -42.708822901089512 $204 42.708822901089512 $129 $205 forward 7 unknown #
coedge $-1 $123 $206 $80 $132 reversed $76 $-1 #
edge $-1 $207 -42.708822901089512 $136 42.708822901089512 $131 $208 forward 7 unknown #
coedge $-1 $126 $81 $206 $209 forward $135 $-1 #
coedge $-1 $81 $126 $202 $210 reversed $135 $-1 #
loop $-1 $-1 $133 $186 #
vertex $-1 $82 $211 #
vertex $-1 $82 $212 #
straight-curve $-1 42.708822901089512 0 5.6906936113634972 0 1 0 I I #
face $-1 $213 $214 $19 $-1 $215 reversed single #
loop $-1 $-1 $216 $83 #
plane-surface $-1 -42.708822901089512 0 0 1 0 0 0 0 -1 forward_v I I I I #
coedge $-1 $217 $148 $153 $218 reversed $84 $-1 #
coedge $-1 $219 $86 $220 $221 reversed $53 $-1 #
coedge $-1 $86 $219 $217 $222 forward $53 $-1 #
coedge $-1 $153 $152 $86 $146 forward $154 $-1 #
edge $-1 $223 -11.705674038221316 $224 -4.9411869904828247 $145 $225 forward 7 unknown #
coedge $-1 $88 $87 $216 $226 reversed $34 $-1 #
coedge $-1 $142 $227 $87 $149 reversed $84 $-1 #
edge $-1 $155 -42.708822901089512 $228 42.708822901089512 $148 $229 forward 7 unknown #
coedge $-1 $230 $231 $88 $151 forward $214 $-1 #
edge $-1 $156 -42.708822901089512 $232 42.708822901089512 $150 $233 forward 7 unknown #
coedge $-1 $145 $89 $231 $234 forward $154 $-1 #
coedge $-1 $89 $145 $142 $218 forward $154 $-1 #
loop $-1 $-1 $89 $213 #
vertex $-1 $90 $235 #
vertex $-1 $234 $236 #
straight-curve $-1 42.708822901089512 -8.3234305143520704 -0.14177171816380008 0 -1 0 I I #
face $-1 $-1 $170 $20 $-1 $237 forward single #
loop $-1 $-1 $238 $91 #
plane-surface $-1 0 20.029104552573386 0 0 -1 0 0 0 -1 forward_v I I I I #
coedge $-1 $239 $240 $241 $242 reversed $92 $-1 #
coedge $-1 $243 $94 $96 $168 forward $57 $-1 #
coedge $-1 $94 $243 $239 $244 forward $57 $-1 #
coedge $-1 $241 $97 $94 $165 forward $170 $-1 #
edge $-1 $172 -4.6315117260812535 $245 9.2224290868000089 $164 $246 forward 7 unknown #
coedge $-1 $247 $248 $95 $167 forward $159 $-1 #
edge $-1 $249 -44.111682338394345 $171 -39.468706241218484 $166 $250 forward 7 unknown #
edge $-1 $172 33.374382579651595 $249 40.058209105146787 $96 $251 forward 7 unknown #
coedge $-1 $97 $241 $247 $252 forward $170 $-1 #
loop $-1 $-1 $241 $158 #
vertex $-1 $167 $253 #
vertex $-1 $98 $254 #
straight-curve $-1 -2.3360530457218758 25.274862033546917 5.6906936113634998 0 -1 0 I I #
coedge $-1 $174 $174 $-1 $255 reversed $101 $-1 #
edge $-1 $256 0 $256 6.2831853071796004 $102 $257 forward 7 unknown #
vertex $-1 $105 $258 #
ellipse-curve $-1 0.43473511685437671 17.625133359736068 3.3692055627755684 0 0.69465837861970381 0.71933979245794832 1 0 0 1 I I #
coedge $-1 $178 $178 $-1 $259 reversed $108 $-1 #
edge $-1 $260 0 $260 6.2831853071796004 $109 $261 forward 7 unknown #
vertex $-1 $112 $262 #
ellipse-curve $-1 4.5909173607187554 17.625133359736068 3.3692055627755684 0 0.69465837861970381 0.71933979245794832 1 0 0 1 I I #
coedge $-1 $182 $182 $-1 $263 reversed $115 $-1 #
edge $-1 $264 0 $264 6.2831853071796004 $116 $265 forward 7 unknown #
vertex $-1 $119 $266 #
ellipse-curve $-1 8.7470996045831342 17.625133359736068 3.3692055627755684 0 0.69465837861970381 0.71933979245794832 1 0 0 1 I I #
face $-1 $-1 $135 $18 $-1 $267 reversed single #
loop $-1 $-1 $202 $120 #
plane-surface $-1 0 20.029104552573386 0 0 -1 0 0 0 -1 forward_v I I I I #
coedge $-1 $268 $200 $203 $269 forward $121 $-1 #
coedge $-1 $206 $123 $124 $194 reversed $76 $-1 #
coedge $-1 $200 $268 $123 $192 reversed $121 $-1 #
edge $-1 $207 -5.6906936113634972 $270 5.6906936113634972 $191 $271 forward 7 unknown #
coedge $-1 $125 $124 $268 $272 forward $49 $-1 #
edge $-1 $198 -42.708822901089512 $270 42.708822901089512 $190 $273 forward 7 unknown #
coedge $-1 $203 $202 $125 $196 reversed $187 $-1 #
edge $-1 $274 -42.708822901089512 $197 42.708822901089512 $195 $275 forward 7 unknown #
vertex $-1 $127 $276 #
vertex $-1 $209 $277 #
straight-curve $-1 42.708822901089512 0 -5.6906936113634972 0 -1 0 I I #
coedge $-1 $189 $191 $128 $201 reversed $121 $-1 #
edge $-1 $204 -20.029104552573386 $207 20.029104552573386 $200 $278 forward 7 unknown #
coedge $-1 $195 $129 $134 $210 forward $187 $-1 #
coedge $-1 $129 $195 $189 $269 reversed $187 $-1 #
vertex $-1 $130 $279 #
straight-curve $-1 0 20.029104552573386 5.6906936113634972 -1 0 0 I I #
coedge $-1 $131 $190 $133 $209 reversed $76 $-1 #
vertex $-1 $201 $280 #
straight-curve $-1 0 -20.029104552573386 5.6906936113634972 1 0 0 I I #
edge $-1 $136 -5.6906936113634972 $198 5.6906936113634972 $133 $281 forward 7 unknown #
edge $-1 $137 -5.6906936113634972 $197 5.6906936113634972 $134 $282 forward 7 unknown #
point $-1 42.708822901089512 -20.029104552573386 5.6906936113634972 #
point $-1 42.708822901089512 20.029104552573386 5.6906936113634972 #
face $-1 $-1 $154 $19 $-1 $283 reversed single #
loop $-1 $-1 $150 $139 #
plane-surface $-1 0 -20.029104552573386 0 0 1 0 0 0 1 forward_v I I I I #
coedge $-1 $284 $285 $147 $226 forward $140 $-1 #
coedge $-1 $227 $142 $144 $222 reversed $84 $-1 #
edge $-1 $224 -2.3208858590818999 $155 0.67911414091809985 $153 $286 forward 7 unknown #
coedge $-1 $144 $143 $287 $288 reversed $53 $-1 #
coedge $-1 $231 $230 $143 $221 forward $214 $-1 #
edge $-1 $289 -42.708822901089512 $223 42.708822901089512 $220 $290 forward 7 unknown #
edge $-1 $291 -42.708822901089512 $224 42.708822901089512 $217 $292 forward 7 unknown #
vertex $-1 $221 $293 #
vertex $-1 $146 $294 #
straight-curve $-1 42.708822901089512 -8.3234305143520704 -3.1417717181637999 0 1 0 I I #
edge $-1 $232 -11.705674038221316 $228 -4.9411869904828247 $216 $295 forward 7 unknown #
coedge $-1 $148 $217 $284 $296 reversed $84 $-1 #
vertex $-1 $226 $297 #
straight-curve $-1 0 -13.264617504834895 -0.14177171816380008 -1 0 0 I I #
coedge $-1 $220 $150 $285 $298 forward $214 $-1 #
coedge $-1 $150 $220 $152 $234 reversed $214 $-1 #
vertex $-1 $298 $299 #
straight-curve $-1 0 -20.029104552573386 -0.14177171816380008 -1 0 0 I I #
edge $-1 $156 0.14177171816380008 $223 3.1417717181637999 $152 $300 forward 7 unknown #
point $-1 42.708822901089512 -13.264617504834895 -0.14177171816380008 #
point $-1 42.708822901089512 -20.029104552573386 -0.14177171816380008 #
plane-surface $-1 0 0 5.6906936113634972 0 0 1 1 0 0 forward_v I I I I #
coedge $-1 $248 $247 $240 $301 forward $159 $-1 #
coedge $-1 $240 $161 $163 $244 reversed $92 $-1 #
coedge $-1 $161 $239 $238 $301 reversed $92 $-1 #
coedge $-1 $169 $164 $161 $242 forward $170 $-1 #
edge $-1 $245 -10.053699866648167 $302 -5.2457574809735306 $241 $303 forward 7 unknown #
coedge $-1 $163 $162 $248 $304 reversed $57 $-1 #
edge $-1 $305 -40.058209105146787 $245 -33.374382579651595 $239 $306 forward 7 unknown #
vertex $-1 $165 $307 #
straight-curve $-1 2.2954586803593777 15.221162166898754 5.6906936113634945 1 0 0 I I #
coedge $-1 $238 $166 $169 $252 reversed $159 $-1 #
coedge $-1 $166 $238 $243 $304 forward $159 $-1 #
vertex $-1 $167 $308 #
straight-curve $-1 -2.3360530457218758 20.029104552573386 45.159399852581984 0 0 1 I I #
straight-curve $-1 -2.3360530457218758 -8.7863592713599985 28.874488101577967 0 0.71933979245794832 -0.69465837861970381 I I #
edge $-1 $302 -11.517887767159387 $171 2.3360530457218758 $247 $309 forward 7 unknown #
point $-1 -2.3360530457218758 20.029104552573386 5.6906936113634972 #
point $-1 -2.3360530457218758 15.22116216689875 5.6906936113634963 #
edge $-1 $310 1 $310 0 $174 $-1 forward 7 unknown #
vertex $-1 $175 $311 #
ellipse-curve $-1 0.43473511685437671 14.867233384924914 0.51331660129437506 0 0.69465837861970381 0.71933979245794832 1 0 0 1 I I #
point $-1 1.4347351168543767 17.625133359736076 3.3692055627755764 #
edge $-1 $312 1 $312 0 $178 $-1 forward 7 unknown #
vertex $-1 $179 $313 #
ellipse-curve $-1 4.5909173607187554 14.867233384924914 0.51331660129437506 0 0.69465837861970381 0.71933979245794832 1 0 0 1 I I #
point $-1 5.5909173607187554 17.625133359736076 3.3692055627755764 #
edge $-1 $314 1 $314 0 $182 $-1 forward 7 unknown #
vertex $-1 $183 $315 #
ellipse-curve $-1 8.7470996045831342 14.867233384924914 0.51331660129437506 0 0.69465837861970381 0.71933979245794832 1 0 0 1 I I #
point $-1 9.7470996045831342 17.625133359736076 3.3692055627755764 #
plane-surface $-1 42.708822901089512 0 0 -1 0 0 0 0 1 forward_v I I I I #
coedge $-1 $191 $189 $193 $272 reversed $121 $-1 #
edge $-1 $204 -5.6906936113634972 $274 5.6906936113634972 $203 $316 forward 7 unknown #
vertex $-1 $272 $317 #
straight-curve $-1 -42.708822901089512 -20.029104552573386 0 0 0 -1 I I #
edge $-1 $270 -20.029104552573386 $274 20.029104552573386 $268 $318 forward 7 unknown #
straight-curve $-1 0 -20.029104552573386 -5.6906936113634972 -1 0 0 I I #
vertex $-1 $196 $319 #
straight-curve $-1 0 20.029104552573386 -5.6906936113634972 1 0 0 I I #
point $-1 42.708822901089512 20.029104552573386 -5.6906936113634972 #
point $-1 42.708822901089512 -20.029104552573386 -5.6906936113634972 #
straight-curve $-1 -42.708822901089512 0 5.6906936113634972 0 -1 0 I I #
point $-1 -42.708822901089512 20.029104552573386 5.6906936113634972 #
point $-1 -42.708822901089512 -20.029104552573386 5.6906936113634972 #
straight-curve $-1 42.708822901089512 -20.029104552573386 0 0 0 -1 I I #
straight-curve $-1 42.708822901089512 20.029104552573386 0 0 0 -1 I I #
plane-surface $-1 42.708822901089512 0 0 -1 0 0 0 0 1 forward_v I I I I #
coedge $-1 $287 $216 $227 $296 forward $140 $-1 #
coedge $-1 $216 $287 $230 $298 reversed $140 $-1 #
straight-curve $-1 42.708822901089512 -13.264617504834895 -0.82088585908189993 0 0 1 I I #
coedge $-1 $285 $284 $219 $288 forward $140 $-1 #
edge $-1 $291 4.9411869904828247 $289 11.705674038221316 $287 $320 forward 7 unknown #
vertex $-1 $221 $321 #
straight-curve $-1 0 -20.029104552573386 -3.1417717181637999 1 0 0 I I #
vertex $-1 $288 $322 #
straight-curve $-1 0 -13.264617504834895 -3.1417717181637999 1 0 0 I I #
point $-1 42.708822901089512 -20.029104552573386 -3.1417717181637999 #
point $-1 42.708822901089512 -13.264617504834895 -3.1417717181637999 #
straight-curve $-1 -42.708822901089512 -8.3234305143520704 -0.14177171816380008 0 1 0 I I #
edge $-1 $228 -0.67911414091809985 $291 2.3208858590818999 $284 $323 forward 7 unknown #
point $-1 -42.708822901089512 -13.264617504834895 -0.14177171816380008 #
edge $-1 $232 0.14177171816380008 $289 3.1417717181637999 $285 $324 forward 7 unknown #
point $-1 -42.708822901089512 -20.029104552573386 -0.14177171816380008 #
straight-curve $-1 42.708822901089512 -20.029104552573386 0 0 0 -1 I I #
edge $-1 $302 39.468706241218484 $305 44.111682338394345 $238 $325 forward 7 unknown #
vertex $-1 $252 $326 #
straight-curve $-1 11.517887767159387 25.274862033546917 5.6906936113634998 0 1 0 I I #
edge $-1 $305 -9.2224290868000089 $249 4.6315117260812535 $248 $327 forward 7 unknown #
vertex $-1 $304 $328 #
straight-curve $-1 11.517887767159387 -8.7863592713599985 28.874488101577967 0 -0.71933979245794832 0.69465837861970381 I I #
point $-1 11.517887767159387 15.22116216689875 5.6906936113634963 #
point $-1 -2.3360530457218758 20.029104552573386 1.0477175141876423 #
straight-curve $-1 0 20.029104552573386 5.6906936113634972 -1 0 0 I I #
vertex $-1 $255 $329 #
point $-1 1.4347351168543767 14.867233384924914 0.51331660129437506 #
vertex $-1 $259 $330 #
point $-1 5.5909173607187554 14.867233384924914 0.51331660129437506 #
vertex $-1 $263 $331 #
point $-1 9.7470996045831342 14.867233384924914 0.51331660129437506 #
straight-curve $-1 -42.708822901089512 20.029104552573386 0 0 0 -1 I I #
point $-1 -42.708822901089512 -20.029104552573386 -5.6906936113634972 #
straight-curve $-1 -42.708822901089512 0 -5.6906936113634972 0 1 0 I I #
point $-1 -42.708822901089512 20.029104552573386 -5.6906936113634972 #
straight-curve $-1 -42.708822901089512 -8.3234305143520704 -3.1417717181637999 0 -1 0 I I #
point $-1 -42.708822901089512 -20.029104552573386 -3.1417717181637999 #
point $-1 -42.708822901089512 -13.264617504834895 -3.1417717181637999 #
straight-curve $-1 -42.708822901089512 -13.264617504834895 -0.82088585908189993 0 0 -1 I I #
straight-curve $-1 -42.708822901089512 -20.029104552573386 0 0 0 -1 I I #
straight-curve $-1 11.517887767159387 20.029104552573386 45.159399852581984 0 0 -1 I I #
point $-1 11.517887767159387 20.029104552573386 5.6906936113634972 #
straight-curve $-1 2.2954586803593777 20.029104552573386 1.047717514187644 -1 0 0 I I #
point $-1 11.517887767159387 20.029104552573386 1.0477175141876423 #
point $-1 0.43473511685437671 14.172575006305211 -0.20602319116357326 #
point $-1 4.5909173607187554 14.172575006305211 -0.20602319116357326 #
point $-1 8.7470996045831342 14.172575006305211 -0.20602319116357326 #
End-of-ACIS-data 