500 0 20 0           
7 Unknown 11 ACIS 5.0 NT 24 Fri Mar 26 01:15:54 1999 
-1 9.9999999999999995e-007 1e-010 
body $-1 $20 $-1 $21 #
body $-1 $22 $-1 $23 #
body $-1 $24 $-1 $25 #
body $-1 $26 $-1 $27 #
body $-1 $28 $-1 $29 #
body $-1 $30 $-1 $31 #
body $-1 $32 $-1 $33 #
body $-1 $34 $-1 $35 #
body $-1 $36 $-1 $37 #
body $-1 $38 $-1 $39 #
body $-1 $40 $-1 $41 #
body $-1 $42 $-1 $43 #
body $-1 $44 $-1 $45 #
body $-1 $46 $-1 $47 #
body $-1 $48 $-1 $49 #
body $-1 $50 $-1 $51 #
body $-1 $52 $-1 $53 #
body $-1 $54 $-1 $55 #
body $-1 $56 $-1 $57 #
body $-1 $58 $-1 $59 #
lump $-1 $-1 $60 $0 #
transform $-1 1 0 0 0 1 0 0 0 1 76.490371410260323 40.057358785539869 17.75961406357164 1 rotate no_reflect no_shear #
lump $-1 $-1 $61 $1 #
transform $-1 1 0 0 0 1 0 0 0 1 76.490371410260323 40.057358785539869 17.75961406357164 1 rotate no_reflect no_shear #
lump $-1 $-1 $62 $2 #
transform $-1 1 0 0 0 1 0 0 0 1 76.490371410260323 40.057358785539869 17.75961406357164 1 rotate no_reflect no_shear #
lump $-1 $-1 $63 $3 #
transform $-1 1 0 0 0 1 0 0 0 1 76.490371410260323 40.057358785539869 17.75961406357164 1 rotate no_reflect no_shear #
lump $-1 $-1 $64 $4 #
transform $-1 1 0 0 0 1 0 0 0 1 76.490371410260323 40.057358785539869 17.75961406357164 1 rotate no_reflect no_shear #
lump $-1 $-1 $65 $5 #
transform $-1 1 0 0 0 1 0 0 0 1 76.490371410260323 40.057358785539869 17.75961406357164 1 rotate no_reflect no_shear #
lump $-1 $-1 $66 $6 #
transform $-1 1 0 0 0 1 0 0 0 1 76.490371410260323 40.057358785539869 17.75961406357164 1 rotate no_reflect no_shear #
lump $-1 $-1 $67 $7 #
transform $-1 1 0 0 0 1 0 0 0 1 76.490371410260323 40.057358785539869 17.75961406357164 1 rotate no_reflect no_shear #
lump $-1 $-1 $68 $8 #
transform $-1 1 0 0 0 1 0 0 0 1 76.490371410260323 40.057358785539869 17.75961406357164 1 rotate no_reflect no_shear #
lump $-1 $-1 $69 $9 #
transform $-1 1 0 0 0 1 0 0 0 1 76.490371410260323 40.057358785539869 17.75961406357164 1 rotate no_reflect no_shear #
lump $-1 $-1 $70 $10 #
transform $-1 1 0 0 0 1 0 0 0 1 76.490371410260323 40.057358785539869 17.75961406357164 1 rotate no_reflect no_shear #
lump $-1 $-1 $71 $11 #
transform $-1 1 0 0 0 1 0 0 0 1 76.490371410260323 40.057358785539869 17.75961406357164 1 rotate no_reflect no_shear #
lump $-1 $-1 $72 $12 #
transform $-1 1 0 0 0 1 0 0 0 1 76.490371410260323 40.057358785539869 17.75961406357164 1 rotate no_reflect no_shear #
lump $-1 $-1 $73 $13 #
transform $-1 1 0 0 0 1 0 0 0 1 76.490371410260323 40.057358785539869 17.75961406357164 1 rotate no_reflect no_shear #
lump $-1 $-1 $74 $14 #
transform $-1 1 0 0 0 1 0 0 0 1 76.490371410260323 40.057358785539869 17.75961406357164 1 rotate no_reflect no_shear #
lump $-1 $-1 $75 $15 #
transform $-1 1 0 0 0 1 0 0 0 1 76.490371410260323 40.057358785539869 17.75961406357164 1 rotate no_reflect no_shear #
lump $-1 $-1 $76 $16 #
transform $-1 1 0 0 0 1 0 0 0 1 76.490371410260323 40.057358785539869 17.75961406357164 1 rotate no_reflect no_shear #
lump $-1 $-1 $77 $17 #
transform $-1 1 0 0 0 1 0 0 0 1 76.490371410260323 40.057358785539869 17.75961406357164 1 rotate no_reflect no_shear #
lump $-1 $-1 $78 $18 #
transform $-1 1 0 0 0 1 0 0 0 1 76.490371410260323 40.057358785539869 17.75961406357164 1 rotate no_reflect no_shear #
lump $-1 $-1 $79 $19 #
transform $-1 1 0 0 0 1 0 0 0 1 76.490371410260323 40.057358785539869 17.75961406357164 1 rotate no_reflect no_shear #
shell $-1 $-1 $-1 $80 $-1 $20 #
shell $-1 $-1 $-1 $81 $-1 $22 #
shell $-1 $-1 $-1 $82 $-1 $24 #
shell $-1 $-1 $-1 $83 $-1 $26 #
shell $-1 $-1 $-1 $84 $-1 $28 #
shell $-1 $-1 $-1 $85 $-1 $30 #
shell $-1 $-1 $-1 $86 $-1 $32 #
shell $-1 $-1 $-1 $87 $-1 $34 #
shell $-1 $-1 $-1 $88 $-1 $36 #
shell $-1 $-1 $-1 $89 $-1 $38 #
shell $-1 $-1 $-1 $90 $-1 $40 #
shell $-1 $-1 $-1 $91 $-1 $42 #
shell $-1 $-1 $-1 $92 $-1 $44 #
shell $-1 $-1 $-1 $93 $-1 $46 #
shell $-1 $-1 $-1 $94 $-1 $48 #
shell $-1 $-1 $-1 $95 $-1 $50 #
shell $-1 $-1 $-1 $96 $-1 $52 #
shell $-1 $-1 $-1 $97 $-1 $54 #
shell $-1 $-1 $-1 $98 $-1 $56 #
shell $-1 $-1 $-1 $99 $-1 $58 #
face $-1 $100 $101 $60 $-1 $102 forward single #
face $-1 $103 $104 $61 $-1 $105 reversed single #
face $-1 $106 $107 $62 $-1 $108 reversed single #
face $-1 $109 $110 $63 $-1 $111 forward single #
face $-1 $112 $113 $64 $-1 $114 forward single #
face $-1 $115 $116 $65 $-1 $117 reversed single #
face $-1 $118 $119 $66 $-1 $120 forward single #
face $-1 $121 $122 $67 $-1 $123 forward single #
face $-1 $124 $125 $68 $-1 $126 reversed single #
face $-1 $127 $128 $69 $-1 $129 forward single #
face $-1 $130 $131 $70 $-1 $132 forward single #
face $-1 $133 $134 $71 $-1 $135 reversed single #
face $-1 $136 $137 $72 $-1 $138 forward single #
face $-1 $139 $140 $73 $-1 $141 forward single #
face $-1 $142 $143 $74 $-1 $144 reversed single #
face $-1 $145 $146 $75 $-1 $147 forward single #
face $-1 $148 $149 $76 $-1 $150 forward single #
face $-1 $151 $152 $77 $-1 $153 reversed single #
face $-1 $154 $155 $78 $-1 $156 forward single #
face $-1 $157 $158 $79 $-1 $159 forward single #
face $-1 $160 $161 $60 $-1 $162 reversed single #
loop $-1 $-1 $163 $80 #
plane-surface $-1 0 0 17.75961406357164 0 0 1 1 0 0 forward_v I I I I #
face $-1 $164 $165 $61 $-1 $166 reversed single #
loop $-1 $-1 $167 $81 #
plane-surface $-1 -65.756148913591929 0 9.3880375718844302 0 0 1 1 0 0 forward_v I I I I #
face $-1 $168 $169 $62 $-1 $170 reversed single #
loop $-1 $-1 $171 $82 #
plane-surface $-1 -22.143851960127581 -125.60310565026921 135.37300801884311 -1 0 0 0 -0.55919291073839883 0.82903756765294845 forward_v I I I I #
face $-1 $172 $173 $63 $-1 $174 forward single #
loop $-1 $175 $176 $83 #
cone-surface $-1 -33.473771531546731 -32.34842685390641 11.849412529041976 0 0.55919291073839883 -0.82903756765294845 2 0 0 1 I I 0 1 2 forward I I I I #
face $-1 $177 $178 $64 $-1 $179 forward single #
loop $-1 $180 $181 $84 #
cone-surface $-1 -26.675819788695243 -32.34842685390641 11.849412529041976 0 0.55919291073839883 -0.82903756765294845 2 0 0 1 I I 0 1 2 forward I I I I #
face $-1 $182 $183 $65 $-1 $184 reversed single #
loop $-1 $-1 $185 $85 #
plane-surface $-1 5.062160144398657 -125.60310565026921 135.37300801884311 -1 0 0 0 -0.55919291073839883 0.82903756765294845 forward_v I I I I #
face $-1 $186 $187 $66 $-1 $188 forward single #
loop $-1 $189 $190 $86 #
cone-surface $-1 -6.2677594270204935 -32.34842685390641 11.849412529041976 0 0.55919291073839883 -0.82903756765294845 2 0 0 1 I I 0 1 2 forward I I I I #
face $-1 $191 $192 $67 $-1 $193 forward single #
loop $-1 $194 $195 $87 #
cone-surface $-1 0.53019231583100179 -32.34842685390641 11.849412529041976 0 0.55919291073839883 -0.82903756765294845 2 0 0 1 I I 0 1 2 forward I I I I #
face $-1 $196 $197 $68 $-1 $198 reversed single #
loop $-1 $-1 $199 $88 #
plane-surface $-1 32.268172248924898 -125.60310565026921 135.37300801884311 -1 0 0 0 -0.55919291073839883 0.82903756765294845 forward_v I I I I #
face $-1 $200 $201 $69 $-1 $202 forward single #
loop $-1 $203 $204 $89 #
cone-surface $-1 20.938252677505744 -32.34842685390641 11.849412529041976 0 0.55919291073839883 -0.82903756765294845 2 0 0 1 I I 0 1 2 forward I I I I #
face $-1 $205 $206 $70 $-1 $207 forward single #
loop $-1 $208 $209 $90 #
cone-surface $-1 27.73620442035724 -32.34842685390641 11.849412529041976 0 0.55919291073839883 -0.82903756765294845 2 0 0 1 I I 0 1 2 forward I I I I #
face $-1 $210 $211 $71 $-1 $212 reversed single #
loop $-1 $-1 $213 $91 #
plane-surface $-1 59.47418435345115 -125.60310565026921 135.37300801884311 -1 0 0 0 -0.55919291073839883 0.82903756765294845 forward_v I I I I #
face $-1 $214 $215 $72 $-1 $216 forward single #
loop $-1 $217 $218 $92 #
cone-surface $-1 48.144264782031982 -32.34842685390641 11.849412529041976 0 0.55919291073839883 -0.82903756765294845 2 0 0 1 I I 0 1 2 forward I I I I #
face $-1 $219 $220 $73 $-1 $221 forward single #
loop $-1 $222 $223 $93 #
cone-surface $-1 54.942216524883477 -32.34842685390641 11.849412529041976 0 0.55919291073839883 -0.82903756765294845 2 0 0 1 I I 0 1 2 forward I I I I #
face $-1 $224 $225 $74 $-1 $226 reversed single #
loop $-1 $-1 $227 $94 #
plane-surface $-1 -41.448871550992259 -26.360751802791007 46.611707950899728 0 0.55919291073839883 0.82903756765294845 1 0 0 forward_v I I I I #
face $-1 $228 $229 $75 $-1 $230 forward single #
loop $-1 $231 $232 $95 #
cone-surface $-1 -47.265895064962812 27.339568854745636 8.4571567899760716 0 -0.55919291073839883 -0.82903756765294845 2.5 0 0 1 I I 0 1 2.5 forward I I I I #
face $-1 $233 $234 $76 $-1 $235 forward single #
loop $-1 $236 $237 $96 #
cone-surface $-1 -35.631848037021712 27.339568854745636 8.4571567899760716 0 -0.55919291073839883 -0.82903756765294845 2.5 0 0 1 I I 0 1 2.5 forward I I I I #
face $-1 $238 $239 $77 $-1 $240 reversed single #
loop $-1 $-1 $241 $97 #
plane-surface $-1 49.344261678397757 59.184995061938345 173.43849087656542 1 0 0 0 -0.55919291073839883 -0.82903756765294845 forward_v I I I I #
face $-1 $242 $243 $78 $-1 $244 forward single #
loop $-1 $245 $246 $98 #
cone-surface $-1 57.100293030358486 27.339568854745636 8.4571567899760716 0 -0.55919291073839883 -0.82903756765294845 2.5 0 0 1 I I 0 1 2.5 forward I I I I #
face $-1 $247 $248 $79 $-1 $249 forward single #
loop $-1 $250 $251 $99 #
cone-surface $-1 68.734340058299594 27.339568854745636 8.4571567899760716 0 -0.55919291073839883 -0.82903756765294845 2.5 0 0 1 I I 0 1 2.5 forward I I I I #
face $-1 $252 $253 $60 $-1 $254 reversed single #
loop $-1 $-1 $255 $100 #
plane-surface $-1 0 0 -17.75961406357164 0 0 1 1 0 0 forward_v I I I I #
coedge $-1 $256 $257 $258 $259 forward $101 $-1 #
face $-1 $260 $261 $61 $-1 $262 reversed single #
loop $-1 $-1 $263 $103 #
plane-surface $-1 -55.021926416923542 0 13.573825817728036 -1 0 0 0 0 1 forward_v I I I I #
coedge $-1 $264 $265 $266 $267 forward $104 $-1 #
face $-1 $268 $269 $62 $-1 $270 reversed single #
loop $-1 $-1 $271 $106 #
plane-surface $-1 -30.074795660120984 -40.057358785539861 8.5462250931774122 0 -0.55919291073839883 0.82903756765294845 1 0 0 forward_v I I I I #
coedge $-1 $272 $273 $274 $275 reversed $107 $-1 #
face $-1 $-1 $276 $63 $-1 $277 forward single #
loop $-1 $278 $279 $109 #
cone-surface $-1 -33.473771531546731 -30.910007320003171 9.7168679120564683 0 0.55919291073839883 -0.82903756765294845 1 0 0 1 I I -0.70710678118654746 0.70710678118654746 1 forward I I I I #
loop $-1 $-1 $280 $83 #
coedge $-1 $176 $176 $281 $282 reversed $110 $-1 #
face $-1 $-1 $283 $64 $-1 $284 forward single #
loop $-1 $285 $286 $112 #
cone-surface $-1 -26.675819788695243 -30.910007320003171 9.7168679120564683 0 0.55919291073839883 -0.82903756765294845 1 0 0 1 I I -0.70710678118654746 0.70710678118654746 1 forward I I I I #
loop $-1 $-1 $287 $84 #
coedge $-1 $181 $181 $288 $289 reversed $113 $-1 #
face $-1 $290 $291 $65 $-1 $292 reversed single #
loop $-1 $-1 $293 $115 #
plane-surface $-1 -2.8687835555947458 -40.057358785539861 8.5462250931774122 0 -0.55919291073839883 0.82903756765294845 1 0 0 forward_v I I I I #
coedge $-1 $294 $295 $296 $297 reversed $116 $-1 #
face $-1 $-1 $298 $66 $-1 $299 forward single #
loop $-1 $300 $301 $118 #
cone-surface $-1 -6.2677594270204935 -30.910007320003171 9.7168679120564683 0 0.55919291073839883 -0.82903756765294845 1 0 0 1 I I -0.70710678118654746 0.70710678118654746 1 forward I I I I #
loop $-1 $-1 $302 $86 #
coedge $-1 $190 $190 $303 $304 reversed $119 $-1 #
face $-1 $-1 $305 $67 $-1 $306 forward single #
loop $-1 $307 $308 $121 #
cone-surface $-1 0.53019231583100179 -30.910007320003171 9.7168679120564683 0 0.55919291073839883 -0.82903756765294845 1 0 0 1 I I -0.70710678118654746 0.70710678118654746 1 forward I I I I #
loop $-1 $-1 $309 $87 #
coedge $-1 $195 $195 $310 $311 reversed $122 $-1 #
face $-1 $312 $313 $68 $-1 $314 reversed single #
loop $-1 $-1 $315 $124 #
plane-surface $-1 24.337228548931492 -40.057358785539861 8.5462250931774122 0 -0.55919291073839883 0.82903756765294845 1 0 0 forward_v I I I I #
coedge $-1 $316 $317 $318 $319 reversed $125 $-1 #
face $-1 $-1 $320 $69 $-1 $321 forward single #
loop $-1 $322 $323 $127 #
cone-surface $-1 20.938252677505744 -30.910007320003171 9.7168679120564683 0 0.55919291073839883 -0.82903756765294845 1 0 0 1 I I -0.70710678118654746 0.70710678118654746 1 forward I I I I #
loop $-1 $-1 $324 $89 #
coedge $-1 $204 $204 $325 $326 reversed $128 $-1 #
face $-1 $-1 $327 $70 $-1 $328 forward single #
loop $-1 $329 $330 $130 #
cone-surface $-1 27.73620442035724 -30.910007320003171 9.7168679120564683 0 0.55919291073839883 -0.82903756765294845 1 0 0 1 I I -0.70710678118654746 0.70710678118654746 1 forward I I I I #
loop $-1 $-1 $331 $90 #
coedge $-1 $209 $209 $332 $333 reversed $131 $-1 #
face $-1 $334 $335 $71 $-1 $336 reversed single #
loop $-1 $-1 $337 $133 #
plane-surface $-1 51.543240653457744 -40.057358785539861 8.5462250931774122 0 -0.55919291073839883 0.82903756765294845 1 0 0 forward_v I I I I #
coedge $-1 $338 $339 $340 $341 reversed $134 $-1 #
face $-1 $-1 $342 $72 $-1 $343 forward single #
loop $-1 $344 $345 $136 #
cone-surface $-1 48.144264782031982 -30.910007320003171 9.7168679120564683 0 0.55919291073839883 -0.82903756765294845 1 0 0 1 I I -0.70710678118654746 0.70710678118654746 1 forward I I I I #
loop $-1 $-1 $346 $92 #
coedge $-1 $218 $218 $347 $348 reversed $137 $-1 #
face $-1 $-1 $349 $73 $-1 $350 forward single #
loop $-1 $351 $352 $139 #
cone-surface $-1 54.942216524883477 -30.910007320003171 9.7168679120564683 0 0.55919291073839883 -0.82903756765294845 1 0 0 1 I I -0.70710678118654746 0.70710678118654746 1 forward I I I I #
loop $-1 $-1 $353 $93 #
coedge $-1 $223 $223 $354 $355 reversed $140 $-1 #
face $-1 $356 $357 $74 $-1 $358 forward single #
loop $-1 $-1 $359 $142 #
plane-surface $-1 -27.875816685060975 59.184995061938345 173.43849087656542 -1 0 0 0 0.55919291073839883 0.82903756765294845 forward_v I I I I #
coedge $-1 $360 $361 $362 $363 reversed $143 $-1 #
face $-1 $-1 $364 $75 $-1 $365 forward single #
loop $-1 $366 $367 $145 #
cone-surface $-1 -47.265895064962812 25.74434935551556 6.0921466689286952 0 -0.55919291073839883 -0.82903756765294845 1.25 0 0 1 I I -0.70710678118654779 0.70710678118654724 1.25 forward I I I I #
loop $-1 $-1 $368 $95 #
coedge $-1 $232 $232 $369 $370 reversed $146 $-1 #
face $-1 $-1 $371 $76 $-1 $372 forward single #
loop $-1 $373 $374 $148 #
cone-surface $-1 -35.631848037021712 25.74434935551556 6.0921466689286952 0 -0.55919291073839883 -0.82903756765294845 1.25 0 0 1 I I -0.70710678118654779 0.70710678118654724 1.25 forward I I I I #
loop $-1 $-1 $375 $96 #
coedge $-1 $237 $237 $376 $377 reversed $149 $-1 #
face $-1 $378 $379 $77 $-1 $380 forward single #
loop $-1 $-1 $381 $151 #
plane-surface $-1 62.91731654432904 -26.360751802791007 46.611707950899728 0 0.55919291073839883 0.82903756765294845 1 0 0 forward_v I I I I #
coedge $-1 $382 $383 $384 $385 reversed $152 $-1 #
face $-1 $-1 $386 $78 $-1 $387 forward single #
loop $-1 $388 $389 $154 #
cone-surface $-1 57.100293030358486 25.74434935551556 6.0921466689286952 0 -0.55919291073839883 -0.82903756765294845 1.25 0 0 1 I I -0.70710678118654779 0.70710678118654724 1.25 forward I I I I #
loop $-1 $-1 $390 $98 #
coedge $-1 $246 $246 $391 $392 reversed $155 $-1 #
face $-1 $-1 $393 $79 $-1 $394 forward single #
loop $-1 $395 $396 $157 #
cone-surface $-1 68.734340058299594 25.74434935551556 6.0921466689286952 0 -0.55919291073839883 -0.82903756765294845 1.25 0 0 1 I I -0.70710678118654779 0.70710678118654724 1.25 forward I I I I #
loop $-1 $-1 $397 $99 #
coedge $-1 $251 $251 $398 $399 reversed $158 $-1 #
face $-1 $400 $401 $60 $-1 $402 reversed single #
loop $-1 $-1 $403 $160 #
plane-surface $-1 0 -40.057358785539869 0 0 1 0 0 0 1 forward_v I I I I #
coedge $-1 $404 $405 $406 $407 forward $161 $-1 #
coedge $-1 $408 $163 $409 $410 forward $101 $-1 #
coedge $-1 $163 $408 $411 $412 forward $101 $-1 #
coedge $-1 $413 $414 $163 $259 reversed $415 $-1 #
edge $-1 $416 -40.057358785539869 $417 40.057358785539869 $258 $418 forward 7 unknown #
face $-1 $419 $420 $61 $-1 $421 reversed single #
loop $-1 $-1 $422 $164 #
plane-surface $-1 0 40.057358785539869 0 0 -1 0 0 0 -1 forward_v I I I I #
coedge $-1 $423 $424 $425 $426 reversed $165 $-1 #
coedge $-1 $427 $167 $428 $429 reversed $104 $-1 #
coedge $-1 $167 $427 $430 $431 reversed $104 $-1 #
coedge $-1 $424 $423 $167 $267 reversed $165 $-1 #
edge $-1 $432 -40.057358785539869 $433 40.057358785539869 $266 $434 forward 7 unknown #
face $-1 $435 $436 $62 $-1 $437 reversed single #
loop $-1 $-1 $438 $168 #
plane-surface $-1 -38.00573936011439 -125.60310565026921 135.37300801884311 1 0 0 0 0.55919291073839883 -0.82903756765294845 forward_v I I I I #
coedge $-1 $439 $440 $441 $442 reversed $169 $-1 #
coedge $-1 $273 $171 $443 $444 reversed $107 $-1 #
coedge $-1 $171 $272 $439 $445 reversed $107 $-1 #
coedge $-1 $441 $446 $171 $275 forward $447 $-1 #
edge $-1 $448 22.744194039594738 $449 36.403604656532004 $274 $450 forward 7 unknown #
loop $-1 $-1 $281 $172 #
plane-surface $-1 -30.074795660120984 -40.057358785539861 8.5462250931774122 0 -0.55919291073839883 0.82903756765294845 1 0 0 forward_v I I I I #
loop $-1 $-1 $451 $109 #
coedge $-1 $279 $279 $280 $452 reversed $173 $-1 #
coedge $-1 $280 $280 $279 $452 forward $175 $-1 #
coedge $-1 $281 $281 $176 $282 forward $276 $-1 #
edge $-1 $453 5.3130842352988438e-016 $453 6.2831853071796013 $281 $454 forward 7 unknown #
loop $-1 $-1 $288 $177 #
plane-surface $-1 -30.074795660120984 -40.057358785539861 8.5462250931774122 0 -0.55919291073839883 0.82903756765294845 1 0 0 forward_v I I I I #
loop $-1 $-1 $455 $112 #
coedge $-1 $286 $286 $287 $456 reversed $178 $-1 #
coedge $-1 $287 $287 $286 $456 forward $180 $-1 #
coedge $-1 $288 $288 $181 $289 forward $283 $-1 #
edge $-1 $457 5.3130842352988438e-016 $457 6.2831853071796013 $288 $458 forward 7 unknown #
face $-1 $459 $460 $65 $-1 $461 reversed single #
loop $-1 $-1 $462 $182 #
plane-surface $-1 -10.799727255588149 -125.60310565026921 135.37300801884311 1 0 0 0 0.55919291073839883 -0.82903756765294845 forward_v I I I I #
coedge $-1 $463 $464 $465 $466 reversed $183 $-1 #
coedge $-1 $295 $185 $467 $468 reversed $116 $-1 #
coedge $-1 $185 $294 $463 $469 reversed $116 $-1 #
coedge $-1 $465 $470 $185 $297 forward $471 $-1 #
edge $-1 $472 22.744194039594738 $473 36.403604656532004 $296 $474 forward 7 unknown #
loop $-1 $-1 $303 $186 #
plane-surface $-1 -2.8687835555947458 -40.057358785539861 8.5462250931774122 0 -0.55919291073839883 0.82903756765294845 1 0 0 forward_v I I I I #
loop $-1 $-1 $475 $118 #
coedge $-1 $301 $301 $302 $476 reversed $187 $-1 #
coedge $-1 $302 $302 $301 $476 forward $189 $-1 #
coedge $-1 $303 $303 $190 $304 forward $298 $-1 #
edge $-1 $477 5.3130842352988438e-016 $477 6.2831853071796013 $303 $478 forward 7 unknown #
loop $-1 $-1 $310 $191 #
plane-surface $-1 -2.8687835555947458 -40.057358785539861 8.5462250931774122 0 -0.55919291073839883 0.82903756765294845 1 0 0 forward_v I I I I #
loop $-1 $-1 $479 $121 #
coedge $-1 $308 $308 $309 $480 reversed $192 $-1 #
coedge $-1 $309 $309 $308 $480 forward $194 $-1 #
coedge $-1 $310 $310 $195 $311 forward $305 $-1 #
edge $-1 $481 5.3130842352988438e-016 $481 6.2831853071796013 $310 $482 forward 7 unknown #
face $-1 $483 $484 $68 $-1 $485 reversed single #
loop $-1 $-1 $486 $196 #
plane-surface $-1 16.406284848938089 -125.60310565026921 135.37300801884311 1 0 0 0 0.55919291073839883 -0.82903756765294845 forward_v I I I I #
coedge $-1 $487 $488 $489 $490 reversed $197 $-1 #
coedge $-1 $317 $199 $491 $492 reversed $125 $-1 #
coedge $-1 $199 $316 $487 $493 reversed $125 $-1 #
coedge $-1 $489 $494 $199 $319 forward $495 $-1 #
edge $-1 $496 22.744194039594738 $497 36.403604656532004 $318 $498 forward 7 unknown #
loop $-1 $-1 $325 $200 #
plane-surface $-1 24.337228548931492 -40.057358785539861 8.5462250931774122 0 -0.55919291073839883 0.82903756765294845 1 0 0 forward_v I I I I #
loop $-1 $-1 $499 $127 #
coedge $-1 $323 $323 $324 $500 reversed $201 $-1 #
coedge $-1 $324 $324 $323 $500 forward $203 $-1 #
coedge $-1 $325 $325 $204 $326 forward $320 $-1 #
edge $-1 $501 5.3130842352988438e-016 $501 6.2831853071796013 $325 $502 forward 7 unknown #
loop $-1 $-1 $332 $205 #
plane-surface $-1 24.337228548931492 -40.057358785539861 8.5462250931774122 0 -0.55919291073839883 0.82903756765294845 1 0 0 forward_v I I I I #
loop $-1 $-1 $503 $130 #
coedge $-1 $330 $330 $331 $504 reversed $206 $-1 #
coedge $-1 $331 $331 $330 $504 forward $208 $-1 #
coedge $-1 $332 $332 $209 $333 forward $327 $-1 #
edge $-1 $505 5.3130842352988438e-016 $505 6.2831853071796013 $332 $506 forward 7 unknown #
face $-1 $507 $508 $71 $-1 $509 reversed single #
loop $-1 $-1 $510 $210 #
plane-surface $-1 43.612296953464337 -125.60310565026921 135.37300801884311 1 0 0 0 0.55919291073839883 -0.82903756765294845 forward_v I I I I #
coedge $-1 $511 $512 $513 $514 reversed $211 $-1 #
coedge $-1 $339 $213 $515 $516 reversed $134 $-1 #
coedge $-1 $213 $338 $511 $517 reversed $134 $-1 #
coedge $-1 $513 $518 $213 $341 forward $519 $-1 #
edge $-1 $520 22.744194039594738 $521 36.403604656532004 $340 $522 forward 7 unknown #
loop $-1 $-1 $347 $214 #
plane-surface $-1 51.543240653457744 -40.057358785539861 8.5462250931774122 0 -0.55919291073839883 0.82903756765294845 1 0 0 forward_v I I I I #
loop $-1 $-1 $523 $136 #
coedge $-1 $345 $345 $346 $524 reversed $215 $-1 #
coedge $-1 $346 $346 $345 $524 forward $217 $-1 #
coedge $-1 $347 $347 $218 $348 forward $342 $-1 #
edge $-1 $525 5.3130842352988438e-016 $525 6.2831853071796013 $347 $526 forward 7 unknown #
loop $-1 $-1 $354 $219 #
plane-surface $-1 51.543240653457744 -40.057358785539861 8.5462250931774122 0 -0.55919291073839883 0.82903756765294845 1 0 0 forward_v I I I I #
loop $-1 $-1 $527 $139 #
coedge $-1 $352 $352 $353 $528 reversed $220 $-1 #
coedge $-1 $353 $353 $352 $528 forward $222 $-1 #
coedge $-1 $354 $354 $223 $355 forward $349 $-1 #
edge $-1 $529 5.3130842352988438e-016 $529 6.2831853071796013 $354 $530 forward 7 unknown #
face $-1 $531 $532 $74 $-1 $533 reversed single #
loop $-1 $-1 $362 $224 #
plane-surface $-1 0 0 17.75961406357164 0 0 1 1 0 0 forward_v I I I I #
coedge $-1 $534 $535 $536 $537 reversed $225 $-1 #
coedge $-1 $538 $227 $539 $540 reversed $143 $-1 #
coedge $-1 $227 $538 $534 $541 forward $143 $-1 #
coedge $-1 $536 $542 $227 $363 forward $357 $-1 #
edge $-1 $543 -34.297490641427416 $544 -7.1513809095648462 $362 $545 forward 7 unknown #
loop $-1 $-1 $369 $228 #
plane-surface $-1 -41.448871550992259 -26.360751802791007 46.611707950899728 0 0.55919291073839883 0.82903756765294845 1 0 0 forward_v I I I I #
loop $-1 $-1 $546 $145 #
coedge $-1 $367 $367 $368 $547 reversed $229 $-1 #
coedge $-1 $368 $368 $367 $547 forward $231 $-1 #
coedge $-1 $369 $369 $232 $370 forward $364 $-1 #
edge $-1 $548 -1.5477474251395734e-015 $548 6.2831853071795987 $369 $549 forward 7 unknown #
loop $-1 $-1 $376 $233 #
plane-surface $-1 -41.448871550992259 -26.360751802791007 46.611707950899728 0 0.55919291073839883 0.82903756765294845 1 0 0 forward_v I I I I #
loop $-1 $-1 $550 $148 #
coedge $-1 $374 $374 $375 $551 reversed $234 $-1 #
coedge $-1 $375 $375 $374 $551 forward $236 $-1 #
coedge $-1 $376 $376 $237 $377 forward $371 $-1 #
edge $-1 $552 -1.5477474251395734e-015 $552 6.2831853071795987 $376 $553 forward 7 unknown #
face $-1 $554 $555 $77 $-1 $556 reversed single #
loop $-1 $-1 $384 $238 #
plane-surface $-1 0 0 17.75961406357164 0 0 1 1 0 0 forward_v I I I I #
coedge $-1 $557 $558 $559 $560 reversed $239 $-1 #
coedge $-1 $383 $241 $561 $562 reversed $152 $-1 #
coedge $-1 $241 $382 $557 $563 reversed $152 $-1 #
coedge $-1 $559 $564 $241 $385 forward $379 $-1 #
edge $-1 $565 -10.464861254570696 $566 13.178261885403618 $384 $567 forward 7 unknown #
loop $-1 $-1 $391 $242 #
plane-surface $-1 62.91731654432904 -26.360751802791007 46.611707950899728 0 0.55919291073839883 0.82903756765294845 1 0 0 forward_v I I I I #
loop $-1 $-1 $568 $154 #
coedge $-1 $389 $389 $390 $569 reversed $243 $-1 #
coedge $-1 $390 $390 $389 $569 forward $245 $-1 #
coedge $-1 $391 $391 $246 $392 forward $386 $-1 #
edge $-1 $570 -1.5477474251395734e-015 $570 6.2831853071795987 $391 $571 forward 7 unknown #
loop $-1 $-1 $398 $247 #
plane-surface $-1 62.91731654432904 -26.360751802791007 46.611707950899728 0 0.55919291073839883 0.82903756765294845 1 0 0 forward_v I I I I #
loop $-1 $-1 $572 $157 #
coedge $-1 $396 $396 $397 $573 reversed $248 $-1 #
coedge $-1 $397 $397 $396 $573 forward $250 $-1 #
coedge $-1 $398 $398 $251 $399 forward $393 $-1 #
edge $-1 $574 -1.5477474251395734e-015 $574 6.2831853071795987 $398 $575 forward 7 unknown #
face $-1 $576 $577 $60 $-1 $578 reversed single #
loop $-1 $-1 $579 $252 #
plane-surface $-1 -76.490371410260323 0 0 1 0 0 0 0 -1 forward_v I I I I #
coedge $-1 $580 $411 $581 $582 forward $253 $-1 #
coedge $-1 $583 $255 $580 $584 forward $161 $-1 #
coedge $-1 $255 $583 $585 $586 forward $161 $-1 #
coedge $-1 $414 $413 $255 $407 reversed $415 $-1 #
edge $-1 $587 -40.057358785539869 $588 40.057358785539869 $406 $589 forward 7 unknown #
coedge $-1 $257 $256 $590 $591 forward $101 $-1 #
coedge $-1 $592 $593 $256 $410 reversed $577 $-1 #
edge $-1 $417 -76.490371410260323 $594 76.490371410260323 $409 $595 forward 7 unknown #
coedge $-1 $403 $596 $257 $412 reversed $253 $-1 #
edge $-1 $597 -76.490371410260323 $416 76.490371410260323 $411 $598 forward 7 unknown #
coedge $-1 $406 $258 $596 $599 forward $415 $-1 #
coedge $-1 $258 $406 $592 $600 reversed $415 $-1 #
loop $-1 $-1 $413 $576 #
vertex $-1 $259 $601 #
vertex $-1 $259 $602 #
straight-curve $-1 76.490371410260323 0 17.75961406357164 0 1 0 I I #
face $-1 $603 $604 $61 $-1 $605 forward single #
loop $-1 $-1 $606 $260 #
plane-surface $-1 -76.490371410260323 0 0 1 0 0 0 0 -1 forward_v I I I I #
coedge $-1 $430 $607 $424 $608 forward $261 $-1 #
coedge $-1 $266 $263 $609 $610 reversed $165 $-1 #
coedge $-1 $263 $266 $422 $608 reversed $165 $-1 #
coedge $-1 $611 $612 $263 $426 forward $604 $-1 #
edge $-1 $613 -40.057358785539869 $614 40.057358785539869 $425 $615 forward 7 unknown #
coedge $-1 $265 $264 $606 $616 reversed $104 $-1 #
coedge $-1 $609 $617 $264 $429 forward $618 $-1 #
edge $-1 $619 -43.612296953464359 $433 -22.143851960127577 $428 $620 forward 7 unknown #
coedge $-1 $621 $422 $265 $431 forward $261 $-1 #
edge $-1 $432 22.143851960127577 $622 43.612296953464359 $430 $623 forward 7 unknown #
vertex $-1 $431 $624 #
vertex $-1 $429 $625 #
straight-curve $-1 -55.021926416923542 0 9.3880375718844302 0 -1 0 I I #
face $-1 $-1 $447 $62 $-1 $626 forward single #
loop $-1 $-1 $627 $268 #
plane-surface $-1 0 -40.057358785539869 0 0 1 0 0 0 1 forward_v I I I I #
coedge $-1 $628 $629 $630 $631 reversed $269 $-1 #
coedge $-1 $632 $271 $273 $445 forward $169 $-1 #
coedge $-1 $271 $632 $628 $633 forward $169 $-1 #
coedge $-1 $630 $274 $271 $442 forward $447 $-1 #
edge $-1 $449 7.1064541300670889 $634 22.968341530053898 $441 $635 forward 7 unknown #
coedge $-1 $636 $637 $272 $444 forward $436 $-1 #
edge $-1 $638 -59.140278916244149 $448 -49.926889945849915 $443 $639 forward 7 unknown #
edge $-1 $449 -16.476226349558331 $638 8.8706446682831169e-015 $273 $640 forward 7 unknown #
coedge $-1 $274 $630 $636 $641 forward $447 $-1 #
loop $-1 $-1 $630 $435 #
vertex $-1 $444 $642 #
vertex $-1 $275 $643 #
straight-curve $-1 -22.143851960127581 -62.801552825134607 17.75961406357164 0 1 0 I I #
coedge $-1 $451 $451 $-1 $644 reversed $278 $-1 #
edge $-1 $645 0 $645 6.2831853071796004 $279 $646 forward 7 unknown #
vertex $-1 $282 $647 #
ellipse-curve $-1 -33.473771531546731 -33.227653477071243 13.152919578374521 0 -0.55919291073839883 0.82903756765294845 2 0 0 1 I I #
coedge $-1 $455 $455 $-1 $648 reversed $285 $-1 #
edge $-1 $649 0 $649 6.2831853071796004 $286 $650 forward 7 unknown #
vertex $-1 $289 $651 #
ellipse-curve $-1 -26.675819788695243 -33.227653477071243 13.152919578374521 0 -0.55919291073839883 0.82903756765294845 2 0 0 1 I I #
face $-1 $-1 $471 $65 $-1 $652 forward single #
loop $-1 $-1 $653 $290 #
plane-surface $-1 0 -40.057358785539869 0 0 1 0 0 0 1 forward_v I I I I #
coedge $-1 $654 $655 $656 $657 reversed $291 $-1 #
coedge $-1 $658 $293 $295 $469 forward $183 $-1 #
coedge $-1 $293 $658 $654 $659 forward $183 $-1 #
coedge $-1 $656 $296 $293 $466 forward $471 $-1 #
edge $-1 $473 -6.4965519221960299 $660 9.3653354777907758 $465 $661 forward 7 unknown #
coedge $-1 $662 $663 $294 $468 forward $460 $-1 #
edge $-1 $664 -59.140278916244149 $472 -49.926889945849915 $467 $665 forward 7 unknown #
edge $-1 $473 -16.476226349558331 $664 8.8706446682831169e-015 $295 $666 forward 7 unknown #
coedge $-1 $296 $656 $662 $667 forward $471 $-1 #
loop $-1 $-1 $656 $459 #
vertex $-1 $468 $668 #
vertex $-1 $297 $669 #
straight-curve $-1 5.062160144398657 -62.801552825134607 17.75961406357164 0 1 0 I I #
coedge $-1 $475 $475 $-1 $670 reversed $300 $-1 #
edge $-1 $671 0 $671 6.2831853071796004 $301 $672 forward 7 unknown #
vertex $-1 $304 $673 #
ellipse-curve $-1 -6.2677594270204935 -33.227653477071243 13.152919578374521 0 -0.55919291073839883 0.82903756765294845 2 0 0 1 I I #
coedge $-1 $479 $479 $-1 $674 reversed $307 $-1 #
edge $-1 $675 0 $675 6.2831853071796004 $308 $676 forward 7 unknown #
vertex $-1 $311 $677 #
ellipse-curve $-1 0.53019231583100179 -33.227653477071243 13.152919578374521 0 -0.55919291073839883 0.82903756765294845 2 0 0 1 I I #
face $-1 $-1 $495 $68 $-1 $678 forward single #
loop $-1 $-1 $679 $312 #
plane-surface $-1 0 -40.057358785539869 0 0 1 0 0 0 1 forward_v I I I I #
coedge $-1 $680 $681 $682 $683 reversed $313 $-1 #
coedge $-1 $684 $315 $317 $493 forward $197 $-1 #
coedge $-1 $315 $684 $680 $685 forward $197 $-1 #
coedge $-1 $682 $318 $315 $490 forward $495 $-1 #
edge $-1 $497 -20.099557974459152 $686 -4.2376705744723431 $489 $687 forward 7 unknown #
coedge $-1 $688 $689 $316 $492 forward $484 $-1 #
edge $-1 $690 -59.140278916244149 $496 -49.926889945849915 $491 $691 forward 7 unknown #
edge $-1 $497 -16.476226349558331 $690 8.8706446682831169e-015 $317 $692 forward 7 unknown #
coedge $-1 $318 $682 $688 $693 forward $495 $-1 #
loop $-1 $-1 $682 $483 #
vertex $-1 $492 $694 #
vertex $-1 $319 $695 #
straight-curve $-1 32.268172248924898 -62.801552825134607 17.75961406357164 0 1 0 I I #
coedge $-1 $499 $499 $-1 $696 reversed $322 $-1 #
edge $-1 $697 0 $697 6.2831853071796004 $323 $698 forward 7 unknown #
vertex $-1 $326 $699 #
ellipse-curve $-1 20.938252677505744 -33.227653477071243 13.152919578374521 0 -0.55919291073839883 0.82903756765294845 2 0 0 1 I I #
coedge $-1 $503 $503 $-1 $700 reversed $329 $-1 #
edge $-1 $701 0 $701 6.2831853071796004 $330 $702 forward 7 unknown #
vertex $-1 $333 $703 #
ellipse-curve $-1 27.73620442035724 -33.227653477071243 13.152919578374521 0 -0.55919291073839883 0.82903756765294845 2 0 0 1 I I #
face $-1 $-1 $519 $71 $-1 $704 forward single #
loop $-1 $-1 $705 $334 #
plane-surface $-1 0 -40.057358785539869 0 0 1 0 0 0 1 forward_v I I I I #
coedge $-1 $706 $707 $708 $709 reversed $335 $-1 #
coedge $-1 $710 $337 $339 $517 forward $211 $-1 #
coedge $-1 $337 $710 $706 $711 forward $211 $-1 #
coedge $-1 $708 $340 $337 $514 forward $519 $-1 #
edge $-1 $521 -33.702564026722278 $712 -17.840676626735466 $513 $713 forward 7 unknown #
coedge $-1 $714 $715 $338 $516 forward $508 $-1 #
edge $-1 $716 -59.140278916244149 $520 -49.926889945849915 $515 $717 forward 7 unknown #
edge $-1 $521 -16.476226349558331 $716 8.8706446682831169e-015 $339 $718 forward 7 unknown #
coedge $-1 $340 $708 $714 $719 forward $519 $-1 #
loop $-1 $-1 $708 $507 #
vertex $-1 $516 $720 #
vertex $-1 $341 $721 #
straight-curve $-1 59.47418435345115 -62.801552825134607 17.75961406357164 0 1 0 I I #
coedge $-1 $523 $523 $-1 $722 reversed $344 $-1 #
edge $-1 $723 0 $723 6.2831853071796004 $345 $724 forward 7 unknown #
vertex $-1 $348 $725 #
ellipse-curve $-1 48.144264782031982 -33.227653477071243 13.152919578374521 0 -0.55919291073839883 0.82903756765294845 2 0 0 1 I I #
coedge $-1 $527 $527 $-1 $726 reversed $351 $-1 #
edge $-1 $727 0 $727 6.2831853071796004 $352 $728 forward 7 unknown #
vertex $-1 $355 $729 #
ellipse-curve $-1 54.942216524883477 -33.227653477071243 13.152919578374521 0 -0.55919291073839883 0.82903756765294845 2 0 0 1 I I #
face $-1 $-1 $730 $74 $-1 $731 forward single #
loop $-1 $-1 $732 $356 #
plane-surface $-1 0 40.057358785539869 0 0 -1 0 0 0 -1 forward_v I I I I #
coedge $-1 $535 $359 $361 $541 reversed $225 $-1 #
coedge $-1 $359 $534 $732 $733 reversed $225 $-1 #
coedge $-1 $734 $362 $359 $537 forward $357 $-1 #
edge $-1 $544 -13.178261885403618 $735 10.464861254570696 $536 $736 forward 7 unknown #
coedge $-1 $361 $360 $737 $738 reversed $143 $-1 #
coedge $-1 $739 $740 $360 $540 forward $730 $-1 #
edge $-1 $741 -59.950416055695058 $543 -31.431656396938806 $539 $742 forward 7 unknown #
edge $-1 $743 -80.114717571079737 $544 -51.595957912323485 $534 $744 forward 7 unknown #
coedge $-1 $362 $734 $739 $745 forward $357 $-1 #
vertex $-1 $540 $746 #
vertex $-1 $363 $747 #
straight-curve $-1 -20.724435775496129 16.414235645565554 17.759614063571636 1 0 0 I I #
coedge $-1 $546 $546 $-1 $748 reversed $366 $-1 #
edge $-1 $749 0 $749 6.2831853071796004 $367 $750 forward 7 unknown #
vertex $-1 $370 $751 #
ellipse-curve $-1 -47.265895064962812 28.235797215552719 9.7858699514572702 0 0.55919291073839883 0.82903756765294845 2.5 0 0 1 I I #
coedge $-1 $550 $550 $-1 $752 reversed $373 $-1 #
edge $-1 $753 0 $753 6.2831853071796004 $374 $754 forward 7 unknown #
vertex $-1 $377 $755 #
ellipse-curve $-1 -35.631848037021712 28.235797215552719 9.7858699514572702 0 0.55919291073839883 0.82903756765294845 2.5 0 0 1 I I #
face $-1 $-1 $756 $77 $-1 $757 reversed single #
loop $-1 $-1 $758 $378 #
plane-surface $-1 76.490371410260323 0 0 -1 0 0 0 0 1 forward_v I I I I #
coedge $-1 $759 $381 $383 $563 forward $239 $-1 #
coedge $-1 $381 $759 $758 $760 reversed $239 $-1 #
coedge $-1 $761 $384 $381 $560 forward $379 $-1 #
edge $-1 $566 17.885603406233237 $762 45.031713138095803 $559 $763 forward 7 unknown #
coedge $-1 $764 $765 $382 $562 forward $756 $-1 #
edge $-1 $766 -84.907119598939801 $565 -68.95963137471108 $561 $767 forward 7 unknown #
edge $-1 $566 51.595957912323485 $766 80.114717571079737 $383 $768 forward 7 unknown #
coedge $-1 $384 $761 $764 $769 forward $379 $-1 #
vertex $-1 $562 $770 #
vertex $-1 $385 $771 #
straight-curve $-1 49.344261678397757 29.592497530969172 17.759614063571632 0 -1 0 I I #
coedge $-1 $568 $568 $-1 $772 reversed $388 $-1 #
edge $-1 $773 0 $773 6.2831853071796004 $389 $774 forward 7 unknown #
vertex $-1 $392 $775 #
ellipse-curve $-1 57.100293030358486 28.235797215552719 9.7858699514572702 0 0.55919291073839883 0.82903756765294845 2.5 0 0 1 I I #
coedge $-1 $572 $572 $-1 $776 reversed $395 $-1 #
edge $-1 $777 0 $777 6.2831853071796004 $396 $778 forward 7 unknown #
vertex $-1 $399 $779 #
ellipse-curve $-1 68.734340058299594 28.235797215552719 9.7858699514572702 0 0.55919291073839883 0.82903756765294845 2.5 0 0 1 I I #
face $-1 $-1 $415 $60 $-1 $780 reversed single #
loop $-1 $-1 $592 $400 #
plane-surface $-1 0 40.057358785539869 0 0 -1 0 0 0 -1 forward_v I I I I #
coedge $-1 $781 $590 $593 $782 forward $401 $-1 #
coedge $-1 $596 $403 $404 $584 reversed $253 $-1 #
coedge $-1 $590 $781 $403 $582 reversed $401 $-1 #
edge $-1 $597 -17.75961406357164 $783 17.75961406357164 $581 $784 forward 7 unknown #
coedge $-1 $405 $404 $781 $785 forward $161 $-1 #
edge $-1 $588 -76.490371410260323 $783 76.490371410260323 $580 $786 forward 7 unknown #
coedge $-1 $593 $592 $405 $586 reversed $577 $-1 #
edge $-1 $787 -76.490371410260323 $587 76.490371410260323 $585 $788 forward 7 unknown #
vertex $-1 $407 $789 #
vertex $-1 $599 $790 #
straight-curve $-1 76.490371410260323 0 -17.75961406357164 0 -1 0 I I #
coedge $-1 $579 $581 $408 $591 reversed $401 $-1 #
edge $-1 $594 -40.057358785539869 $597 40.057358785539869 $590 $791 forward 7 unknown #
coedge $-1 $585 $409 $414 $600 forward $577 $-1 #
coedge $-1 $409 $585 $579 $782 reversed $577 $-1 #
vertex $-1 $410 $792 #
straight-curve $-1 0 40.057358785539869 17.75961406357164 -1 0 0 I I #
coedge $-1 $411 $580 $413 $599 reversed $253 $-1 #
vertex $-1 $591 $793 #
straight-curve $-1 0 -40.057358785539869 17.75961406357164 1 0 0 I I #
edge $-1 $416 -17.75961406357164 $588 17.75961406357164 $413 $794 forward 7 unknown #
edge $-1 $417 -17.75961406357164 $587 17.75961406357164 $414 $795 forward 7 unknown #
point $-1 76.490371410260323 -40.057358785539869 17.75961406357164 #
point $-1 76.490371410260323 40.057358785539869 17.75961406357164 #
face $-1 $-1 $618 $61 $-1 $796 reversed single #
loop $-1 $-1 $425 $419 #
plane-surface $-1 0 0 17.75961406357164 0 0 1 1 0 0 forward_v I I I I #
coedge $-1 $797 $798 $427 $616 forward $420 $-1 #
coedge $-1 $422 $621 $611 $799 reversed $261 $-1 #
edge $-1 $614 -10.972701154707622 $432 -2.6011246630204123 $422 $800 forward 7 unknown #
coedge $-1 $801 $428 $423 $610 forward $618 $-1 #
edge $-1 $433 2.6011246630204123 $613 10.972701154707622 $609 $802 forward 7 unknown #
coedge $-1 $803 $425 $607 $799 forward $604 $-1 #
coedge $-1 $425 $803 $801 $804 forward $604 $-1 #
vertex $-1 $610 $805 #
vertex $-1 $799 $806 #
straight-curve $-1 -55.021926416923542 0 17.75961406357164 0 1 0 I I #
edge $-1 $622 -40.057358785539869 $619 40.057358785539869 $606 $807 forward 7 unknown #
coedge $-1 $428 $801 $797 $808 forward $618 $-1 #
loop $-1 $-1 $609 $603 #
vertex $-1 $616 $809 #
straight-curve $-1 -32.878074456795964 -40.057358785539869 9.3880375718844302 1 0 0 I I #
coedge $-1 $607 $430 $798 $810 reversed $261 $-1 #
vertex $-1 $616 $811 #
straight-curve $-1 -32.878074456795964 40.057358785539869 9.3880375718844302 -1 0 0 I I #
point $-1 -55.021926416923542 40.057358785539869 9.3880375718844302 #
point $-1 -55.021926416923542 -40.057358785539869 9.3880375718844302 #
plane-surface $-1 0 0 17.75961406357164 0 0 1 1 0 0 forward_v I I I I #
coedge $-1 $637 $636 $629 $812 forward $436 $-1 #
coedge $-1 $629 $438 $440 $633 reversed $269 $-1 #
coedge $-1 $438 $628 $627 $812 reversed $269 $-1 #
coedge $-1 $446 $441 $438 $631 forward $447 $-1 #
edge $-1 $634 -36.403604656532004 $813 -22.744194039594738 $630 $814 forward 7 unknown #
coedge $-1 $440 $439 $637 $815 reversed $169 $-1 #
edge $-1 $816 -8.8706446682831169e-015 $634 16.476226349558331 $628 $817 forward 7 unknown #
vertex $-1 $442 $818 #
straight-curve $-1 -15.037397830060492 -26.397948168602607 17.75961406357164 -1 0 0 I I #
coedge $-1 $627 $443 $446 $641 reversed $436 $-1 #
coedge $-1 $443 $627 $632 $815 forward $436 $-1 #
vertex $-1 $444 $819 #
straight-curve $-1 -22.143851960127581 -40.057358785539869 67.686504009421554 0 0 1 I I #
straight-curve $-1 -22.143851960127581 -40.057358785539861 8.5462250931774122 0 -0.82903756765294845 -0.55919291073839883 I I #
edge $-1 $813 -38.00573936011439 $448 -22.143851960127581 $636 $820 forward 7 unknown #
point $-1 -22.143851960127581 -40.057358785539869 17.75961406357164 #
point $-1 -22.143851960127581 -26.397948168602603 17.75961406357164 #
edge $-1 $821 1 $821 0 $451 $-1 forward 7 unknown #
vertex $-1 $452 $822 #
ellipse-curve $-1 -33.473771531546731 -31.469200230741571 10.545905479709416 0 -0.55919291073839883 0.82903756765294845 2 0 0 1 I I #
point $-1 -31.473771531546731 -33.22765347707125 13.152919578374533 #
edge $-1 $823 1 $823 0 $455 $-1 forward 7 unknown #
vertex $-1 $456 $824 #
ellipse-curve $-1 -26.675819788695243 -31.469200230741571 10.545905479709416 0 -0.55919291073839883 0.82903756765294845 2 0 0 1 I I #
point $-1 -24.675819788695243 -33.22765347707125 13.152919578374533 #
plane-surface $-1 0 0 17.75961406357164 0 0 1 1 0 0 forward_v I I I I #
coedge $-1 $663 $662 $655 $825 forward $460 $-1 #
coedge $-1 $655 $462 $464 $659 reversed $291 $-1 #
coedge $-1 $462 $654 $653 $825 reversed $291 $-1 #
coedge $-1 $470 $465 $462 $657 forward $471 $-1 #
edge $-1 $660 -36.403604656532004 $826 -22.744194039594738 $656 $827 forward 7 unknown #
coedge $-1 $464 $463 $663 $828 reversed $183 $-1 #
edge $-1 $829 -8.8706446682831169e-015 $660 16.476226349558331 $654 $830 forward 7 unknown #
vertex $-1 $466 $831 #
straight-curve $-1 -1.4343917777973729 -26.397948168602607 17.75961406357164 -1 0 0 I I #
coedge $-1 $653 $467 $470 $667 reversed $460 $-1 #
coedge $-1 $467 $653 $658 $828 forward $460 $-1 #
vertex $-1 $468 $832 #
straight-curve $-1 5.062160144398657 -40.057358785539869 67.686504009421554 0 0 1 I I #
straight-curve $-1 5.062160144398657 -40.057358785539861 8.5462250931774122 0 -0.82903756765294845 -0.55919291073839883 I I #
edge $-1 $826 -10.799727255588149 $472 5.062160144398657 $662 $833 forward 7 unknown #
point $-1 5.062160144398657 -40.057358785539869 17.75961406357164 #
point $-1 5.062160144398657 -26.397948168602603 17.75961406357164 #
edge $-1 $834 1 $834 0 $475 $-1 forward 7 unknown #
vertex $-1 $476 $835 #
ellipse-curve $-1 -6.2677594270204935 -31.469200230741571 10.545905479709416 0 -0.55919291073839883 0.82903756765294845 2 0 0 1 I I #
point $-1 -4.2677594270204935 -33.22765347707125 13.152919578374533 #
edge $-1 $836 1 $836 0 $479 $-1 forward 7 unknown #
vertex $-1 $480 $837 #
ellipse-curve $-1 0.53019231583100179 -31.469200230741571 10.545905479709416 0 -0.55919291073839883 0.82903756765294845 2 0 0 1 I I #
point $-1 2.5301923158310018 -33.22765347707125 13.152919578374533 #
plane-surface $-1 0 0 17.75961406357164 0 0 1 1 0 0 forward_v I I I I #
coedge $-1 $689 $688 $681 $838 forward $484 $-1 #
coedge $-1 $681 $486 $488 $685 reversed $313 $-1 #
coedge $-1 $486 $680 $679 $838 reversed $313 $-1 #
coedge $-1 $494 $489 $486 $683 forward $495 $-1 #
edge $-1 $686 -36.403604656532004 $839 -22.744194039594738 $682 $840 forward 7 unknown #
coedge $-1 $488 $487 $689 $841 reversed $197 $-1 #
edge $-1 $842 -8.8706446682831169e-015 $686 16.476226349558331 $680 $843 forward 7 unknown #
vertex $-1 $490 $844 #
straight-curve $-1 12.168614274465746 -26.397948168602607 17.75961406357164 -1 0 0 I I #
coedge $-1 $679 $491 $494 $693 reversed $484 $-1 #
coedge $-1 $491 $679 $684 $841 forward $484 $-1 #
vertex $-1 $492 $845 #
straight-curve $-1 32.268172248924898 -40.057358785539869 67.686504009421554 0 0 1 I I #
straight-curve $-1 32.268172248924898 -40.057358785539861 8.5462250931774122 0 -0.82903756765294845 -0.55919291073839883 I I #
edge $-1 $839 16.406284848938089 $496 32.268172248924898 $688 $846 forward 7 unknown #
point $-1 32.268172248924898 -40.057358785539869 17.75961406357164 #
point $-1 32.268172248924898 -26.397948168602603 17.75961406357164 #
edge $-1 $847 1 $847 0 $499 $-1 forward 7 unknown #
vertex $-1 $500 $848 #
ellipse-curve $-1 20.938252677505744 -31.469200230741571 10.545905479709416 0 -0.55919291073839883 0.82903756765294845 2 0 0 1 I I #
point $-1 22.938252677505744 -33.22765347707125 13.152919578374533 #
edge $-1 $849 1 $849 0 $503 $-1 forward 7 unknown #
vertex $-1 $504 $850 #
ellipse-curve $-1 27.73620442035724 -31.469200230741571 10.545905479709416 0 -0.55919291073839883 0.82903756765294845 2 0 0 1 I I #
point $-1 29.73620442035724 -33.22765347707125 13.152919578374533 #
plane-surface $-1 0 0 17.75961406357164 0 0 1 1 0 0 forward_v I I I I #
coedge $-1 $715 $714 $707 $851 forward $508 $-1 #
coedge $-1 $707 $510 $512 $711 reversed $335 $-1 #
coedge $-1 $510 $706 $705 $851 reversed $335 $-1 #
coedge $-1 $518 $513 $510 $709 forward $519 $-1 #
edge $-1 $712 -36.403604656532004 $852 -22.744194039594738 $708 $853 forward 7 unknown #
coedge $-1 $512 $511 $715 $854 reversed $211 $-1 #
edge $-1 $855 -8.8706446682831169e-015 $712 16.476226349558331 $706 $856 forward 7 unknown #
vertex $-1 $514 $857 #
straight-curve $-1 25.771620326728872 -26.397948168602607 17.75961406357164 -1 0 0 I I #
coedge $-1 $705 $515 $518 $719 reversed $508 $-1 #
coedge $-1 $515 $705 $710 $854 forward $508 $-1 #
vertex $-1 $516 $858 #
straight-curve $-1 59.47418435345115 -40.057358785539869 67.686504009421554 0 0 1 I I #
straight-curve $-1 59.47418435345115 -40.057358785539861 8.5462250931774122 0 -0.82903756765294845 -0.55919291073839883 I I #
edge $-1 $852 43.612296953464337 $520 59.47418435345115 $714 $859 forward 7 unknown #
point $-1 59.47418435345115 -40.057358785539869 17.75961406357164 #
point $-1 59.47418435345115 -26.397948168602603 17.75961406357164 #
edge $-1 $860 1 $860 0 $523 $-1 forward 7 unknown #
vertex $-1 $524 $861 #
ellipse-curve $-1 48.144264782031982 -31.469200230741571 10.545905479709416 0 -0.55919291073839883 0.82903756765294845 2 0 0 1 I I #
point $-1 50.144264782031982 -33.22765347707125 13.152919578374533 #
edge $-1 $862 1 $862 0 $527 $-1 forward 7 unknown #
vertex $-1 $528 $863 #
ellipse-curve $-1 54.942216524883477 -31.469200230741571 10.545905479709416 0 -0.55919291073839883 0.82903756765294845 2 0 0 1 I I #
point $-1 56.942216524883477 -33.22765347707125 13.152919578374533 #
loop $-1 $-1 $539 $531 #
plane-surface $-1 -55.021926416923542 0 13.573825817728036 -1 0 0 0 0 1 forward_v I I I I #
coedge $-1 $737 $864 $535 $733 forward $532 $-1 #
edge $-1 $735 68.95963137471108 $743 84.907119598939801 $732 $865 forward 7 unknown #
coedge $-1 $542 $536 $864 $866 forward $357 $-1 #
vertex $-1 $866 $867 #
straight-curve $-1 -27.875816685060975 29.592497530969172 17.759614063571632 0 1 0 I I #
coedge $-1 $868 $732 $538 $738 forward $532 $-1 #
edge $-1 $743 7.1513809095648462 $741 34.297490641427416 $737 $869 forward 7 unknown #
coedge $-1 $740 $539 $542 $745 reversed $730 $-1 #
coedge $-1 $539 $739 $868 $870 reversed $730 $-1 #
vertex $-1 $870 $871 #
straight-curve $-1 -55.021926416923542 -9.6437883210558333 35.335973493505065 0 -0.82903756765294845 0.55919291073839883 I I #
vertex $-1 $738 $872 #
straight-curve $-1 -27.875816685060975 -26.360751802791007 46.611707950899728 0 -0.82903756765294845 0.55919291073839883 I I #
edge $-1 $873 -40.057358785539869 $543 -16.414235645565554 $542 $874 forward 7 unknown #
point $-1 -55.021926416923542 16.414235645565554 17.75961406357164 #
point $-1 -27.875816685060975 16.414235645565554 17.75961406357164 #
edge $-1 $875 1 $875 0 $546 $-1 forward 7 unknown #
vertex $-1 $547 $876 #
ellipse-curve $-1 -47.265895064962812 26.443340493938557 7.12844362849488 0 0.55919291073839883 0.82903756765294845 2.5 0 0 1 I I #
point $-1 -44.765895064962812 28.235797215552708 9.7858699514572614 #
edge $-1 $877 1 $877 0 $550 $-1 forward 7 unknown #
vertex $-1 $551 $878 #
ellipse-curve $-1 -35.631848037021712 26.443340493938557 7.12844362849488 0 0.55919291073839883 0.82903756765294845 2.5 0 0 1 I I #
point $-1 -33.131848037021712 28.235797215552708 9.7858699514572614 #
loop $-1 $-1 $561 $554 #
plane-surface $-1 0 40.057358785539869 0 0 -1 0 0 0 -1 forward_v I I I I #
coedge $-1 $879 $880 $558 $760 forward $555 $-1 #
coedge $-1 $558 $557 $765 $881 reversed $239 $-1 #
edge $-1 $762 27.636462812503126 $882 56.155222471259378 $758 $883 forward 7 unknown #
coedge $-1 $564 $559 $880 $884 forward $379 $-1 #
vertex $-1 $884 $885 #
straight-curve $-1 31.45865827216452 16.414235645565554 17.759614063571636 1 0 0 I I #
coedge $-1 $886 $561 $564 $769 reversed $756 $-1 #
coedge $-1 $561 $886 $759 $881 forward $756 $-1 #
vertex $-1 $562 $887 #
straight-curve $-1 49.344261678397757 40.057358785539869 86.719245438282712 0 0 1 I I #
straight-curve $-1 49.344261678397757 -26.360751802791007 46.611707950899728 0 0.82903756765294845 -0.55919291073839883 I I #
edge $-1 $888 -76.490371410260323 $565 -49.344261678397757 $764 $889 forward 7 unknown #
point $-1 49.344261678397757 40.057358785539869 17.75961406357164 #
point $-1 49.344261678397757 16.414235645565554 17.75961406357164 #
edge $-1 $890 1 $890 0 $568 $-1 forward 7 unknown #
vertex $-1 $569 $891 #
ellipse-curve $-1 57.100293030358486 26.443340493938557 7.12844362849488 0 0.55919291073839883 0.82903756765294845 2.5 0 0 1 I I #
point $-1 59.600293030358486 28.235797215552708 9.7858699514572614 #
edge $-1 $892 1 $892 0 $572 $-1 forward 7 unknown #
vertex $-1 $573 $893 #
ellipse-curve $-1 68.734340058299594 26.443340493938557 7.12844362849488 0 0.55919291073839883 0.82903756765294845 2.5 0 0 1 I I #
point $-1 71.234340058299594 28.235797215552708 9.7858699514572614 #
plane-surface $-1 76.490371410260323 0 0 -1 0 0 0 0 1 forward_v I I I I #
coedge $-1 $581 $579 $583 $785 reversed $401 $-1 #
edge $-1 $594 -17.75961406357164 $787 17.75961406357164 $593 $894 forward 7 unknown #
vertex $-1 $785 $895 #
straight-curve $-1 -76.490371410260323 -40.057358785539869 0 0 0 -1 I I #
edge $-1 $783 -40.057358785539869 $787 40.057358785539869 $781 $896 forward 7 unknown #
straight-curve $-1 0 -40.057358785539869 -17.75961406357164 -1 0 0 I I #
vertex $-1 $586 $897 #
straight-curve $-1 0 40.057358785539869 -17.75961406357164 1 0 0 I I #
point $-1 76.490371410260323 40.057358785539869 -17.75961406357164 #
point $-1 76.490371410260323 -40.057358785539869 -17.75961406357164 #
straight-curve $-1 -76.490371410260323 0 17.75961406357164 0 -1 0 I I #
point $-1 -76.490371410260323 40.057358785539869 17.75961406357164 #
point $-1 -76.490371410260323 -40.057358785539869 17.75961406357164 #
straight-curve $-1 76.490371410260323 -40.057358785539869 0 0 0 -1 I I #
straight-curve $-1 76.490371410260323 40.057358785539869 0 0 0 -1 I I #
plane-surface $-1 0 -40.057358785539869 0 0 1 0 0 0 1 forward_v I I I I #
coedge $-1 $898 $606 $617 $808 reversed $420 $-1 #
coedge $-1 $606 $898 $621 $810 forward $420 $-1 #
edge $-1 $614 55.021926416923542 $899 76.490371410260323 $607 $900 forward 7 unknown #
straight-curve $-1 -55.021926416923542 40.057358785539869 6.7869129088640179 0 0 -1 I I #
coedge $-1 $617 $609 $612 $804 reversed $618 $-1 #
straight-curve $-1 -55.021926416923542 -40.057358785539869 6.7869129088640179 0 0 1 I I #
coedge $-1 $612 $611 $898 $901 forward $604 $-1 #
edge $-1 $902 -76.490371410260323 $613 -55.021926416923542 $801 $903 forward 7 unknown #
point $-1 -55.021926416923542 -40.057358785539869 17.75961406357164 #
point $-1 -55.021926416923542 40.057358785539869 17.75961406357164 #
straight-curve $-1 -76.490371410260323 0 9.3880375718844302 0 -1 0 I I #
edge $-1 $902 -17.75961406357164 $619 -9.3880375718844302 $797 $904 forward 7 unknown #
point $-1 -76.490371410260323 -40.057358785539869 9.3880375718844302 #
edge $-1 $899 -17.75961406357164 $622 -9.3880375718844302 $621 $905 forward 7 unknown #
point $-1 -76.490371410260323 40.057358785539869 9.3880375718844302 #
edge $-1 $813 49.926889945849915 $816 59.140278916244149 $627 $906 forward 7 unknown #
vertex $-1 $641 $907 #
straight-curve $-1 -38.00573936011439 -62.801552825134607 17.75961406357164 0 -1 0 I I #
edge $-1 $816 -22.968341530053898 $638 -7.1064541300670889 $637 $908 forward 7 unknown #
vertex $-1 $815 $909 #
straight-curve $-1 -38.00573936011439 -40.057358785539861 8.5462250931774122 0 0.82903756765294845 0.55919291073839883 I I #
point $-1 -38.00573936011439 -26.397948168602603 17.75961406357164 #
point $-1 -22.143851960127581 -40.057358785539869 8.5462250931774069 #
straight-curve $-1 0 -40.057358785539869 17.75961406357164 1 0 0 I I #
vertex $-1 $644 $910 #
point $-1 -31.473771531546731 -31.469200230741571 10.545905479709416 #
vertex $-1 $648 $911 #
point $-1 -24.675819788695243 -31.469200230741571 10.545905479709416 #
edge $-1 $826 49.926889945849915 $829 59.140278916244149 $653 $912 forward 7 unknown #
vertex $-1 $667 $913 #
straight-curve $-1 -10.799727255588149 -62.801552825134607 17.75961406357164 0 -1 0 I I #
edge $-1 $829 -9.3653354777907758 $664 6.4965519221960299 $663 $914 forward 7 unknown #
vertex $-1 $828 $915 #
straight-curve $-1 -10.799727255588149 -40.057358785539861 8.5462250931774122 0 0.82903756765294845 0.55919291073839883 I I #
point $-1 -10.799727255588149 -26.397948168602603 17.75961406357164 #
point $-1 5.062160144398657 -40.057358785539869 8.5462250931774069 #
straight-curve $-1 0 -40.057358785539869 17.75961406357164 1 0 0 I I #
vertex $-1 $670 $916 #
point $-1 -4.2677594270204935 -31.469200230741571 10.545905479709416 #
vertex $-1 $674 $917 #
point $-1 2.5301923158310018 -31.469200230741571 10.545905479709416 #
edge $-1 $839 49.926889945849915 $842 59.140278916244149 $679 $918 forward 7 unknown #
vertex $-1 $693 $919 #
straight-curve $-1 16.406284848938089 -62.801552825134607 17.75961406357164 0 -1 0 I I #
edge $-1 $842 4.2376705744723431 $690 20.099557974459152 $689 $920 forward 7 unknown #
vertex $-1 $841 $921 #
straight-curve $-1 16.406284848938089 -40.057358785539861 8.5462250931774122 0 0.82903756765294845 0.55919291073839883 I I #
point $-1 16.406284848938089 -26.397948168602603 17.75961406357164 #
point $-1 32.268172248924898 -40.057358785539869 8.5462250931774069 #
straight-curve $-1 0 -40.057358785539869 17.75961406357164 1 0 0 I I #
vertex $-1 $696 $922 #
point $-1 22.938252677505744 -31.469200230741571 10.545905479709416 #
vertex $-1 $700 $923 #
point $-1 29.73620442035724 -31.469200230741571 10.545905479709416 #
edge $-1 $852 49.926889945849915 $855 59.140278916244149 $705 $924 forward 7 unknown #
vertex $-1 $719 $925 #
straight-curve $-1 43.612296953464337 -62.801552825134607 17.75961406357164 0 -1 0 I I #
edge $-1 $855 17.840676626735466 $716 33.702564026722278 $715 $926 forward 7 unknown #
vertex $-1 $854 $927 #
straight-curve $-1 43.612296953464337 -40.057358785539861 8.5462250931774122 0 0.82903756765294845 0.55919291073839883 I I #
point $-1 43.612296953464337 -26.397948168602603 17.75961406357164 #
point $-1 59.47418435345115 -40.057358785539869 8.5462250931774069 #
straight-curve $-1 0 -40.057358785539869 17.75961406357164 1 0 0 I I #
vertex $-1 $722 $928 #
point $-1 50.144264782031982 -31.469200230741571 10.545905479709416 #
vertex $-1 $726 $929 #
point $-1 56.942216524883477 -31.469200230741571 10.545905479709416 #
coedge $-1 $732 $868 $734 $866 reversed $532 $-1 #
straight-curve $-1 -27.875816685060975 40.057358785539869 86.719245438282712 0 0 -1 I I #
edge $-1 $735 27.875816685060975 $873 55.021926416923542 $864 $930 forward 7 unknown #
point $-1 -27.875816685060975 40.057358785539869 17.75961406357164 #
coedge $-1 $864 $737 $740 $870 forward $532 $-1 #
straight-curve $-1 -20.724435775496129 40.057358785539869 1.8121258393429009 -1 0 0 I I #
edge $-1 $741 -84.907119598939801 $873 -68.95963137471108 $868 $931 forward 7 unknown #
point $-1 -55.021926416923542 40.057358785539869 1.8121258393429045 #
point $-1 -27.875816685060975 40.057358785539869 1.8121258393429045 #
vertex $-1 $745 $932 #
straight-curve $-1 -55.021926416923542 0 17.75961406357164 0 -1 0 I I #
vertex $-1 $748 $933 #
point $-1 -44.765895064962812 26.443340493938557 7.12844362849488 #
vertex $-1 $752 $934 #
point $-1 -33.131848037021712 26.443340493938557 7.12844362849488 #
coedge $-1 $880 $758 $886 $935 reversed $555 $-1 #
coedge $-1 $758 $879 $761 $884 reversed $555 $-1 #
edge $-1 $882 -45.031713138095803 $766 -17.885603406233237 $765 $936 forward 7 unknown #
vertex $-1 $760 $937 #
straight-curve $-1 76.490371410260323 -6.4974302630431984 33.21372814620878 0 0.82903756765294845 -0.55919291073839883 I I #
edge $-1 $762 16.414235645565554 $888 40.057358785539869 $880 $938 forward 7 unknown #
point $-1 76.490371410260323 16.414235645565554 17.75961406357164 #
coedge $-1 $765 $764 $879 $935 forward $756 $-1 #
point $-1 49.344261678397757 40.057358785539869 1.8121258393429045 #
vertex $-1 $884 $939 #
straight-curve $-1 0 40.057358785539869 17.75961406357164 -1 0 0 I I #
vertex $-1 $772 $940 #
point $-1 59.600293030358486 26.443340493938557 7.12844362849488 #
vertex $-1 $776 $941 #
point $-1 71.234340058299594 26.443340493938557 7.12844362849488 #
straight-curve $-1 -76.490371410260323 40.057358785539869 0 0 0 -1 I I #
point $-1 -76.490371410260323 -40.057358785539869 -17.75961406357164 #
straight-curve $-1 -76.490371410260323 0 -17.75961406357164 0 1 0 I I #
point $-1 -76.490371410260323 40.057358785539869 -17.75961406357164 #
coedge $-1 $798 $797 $803 $901 reversed $420 $-1 #
vertex $-1 $799 $942 #
straight-curve $-1 0 40.057358785539869 17.75961406357164 -1 0 0 I I #
edge $-1 $899 -40.057358785539869 $902 40.057358785539869 $898 $943 forward 7 unknown #
vertex $-1 $901 $944 #
straight-curve $-1 0 -40.057358785539869 17.75961406357164 1 0 0 I I #
straight-curve $-1 -76.490371410260323 -40.057358785539869 0 0 0 -1 I I #
straight-curve $-1 -76.490371410260323 40.057358785539869 0 0 0 -1 I I #
straight-curve $-1 -38.00573936011439 -40.057358785539869 67.686504009421554 0 0 -1 I I #
point $-1 -38.00573936011439 -40.057358785539869 17.75961406357164 #
straight-curve $-1 -15.037397830060492 -40.057358785539869 8.5462250931774069 1 0 0 I I #
point $-1 -38.00573936011439 -40.057358785539869 8.5462250931774069 #
point $-1 -33.473771531546731 -30.350814409264771 8.88783034440352 #
point $-1 -26.675819788695243 -30.350814409264771 8.88783034440352 #
straight-curve $-1 -10.799727255588149 -40.057358785539869 67.686504009421554 0 0 -1 I I #
point $-1 -10.799727255588149 -40.057358785539869 17.75961406357164 #
straight-curve $-1 -1.4343917777973729 -40.057358785539869 8.5462250931774069 1 0 0 I I #
point $-1 -10.799727255588149 -40.057358785539869 8.5462250931774069 #
point $-1 -6.2677594270204935 -30.350814409264771 8.88783034440352 #
point $-1 0.53019231583100179 -30.350814409264771 8.88783034440352 #
straight-curve $-1 16.406284848938089 -40.057358785539869 67.686504009421554 0 0 -1 I I #
point $-1 16.406284848938089 -40.057358785539869 17.75961406357164 #
straight-curve $-1 12.168614274465746 -40.057358785539869 8.5462250931774069 1 0 0 I I #
point $-1 16.406284848938089 -40.057358785539869 8.5462250931774069 #
point $-1 20.938252677505744 -30.350814409264771 8.88783034440352 #
point $-1 27.73620442035724 -30.350814409264771 8.88783034440352 #
straight-curve $-1 43.612296953464337 -40.057358785539869 67.686504009421554 0 0 -1 I I #
point $-1 43.612296953464337 -40.057358785539869 17.75961406357164 #
straight-curve $-1 25.771620326728872 -40.057358785539869 8.5462250931774069 1 0 0 I I #
point $-1 43.612296953464337 -40.057358785539869 8.5462250931774069 #
point $-1 48.144264782031982 -30.350814409264771 8.88783034440352 #
point $-1 54.942216524883477 -30.350814409264771 8.88783034440352 #
straight-curve $-1 0 40.057358785539869 17.75961406357164 -1 0 0 I I #
straight-curve $-1 -55.021926416923542 40.057358785539869 86.719245438282712 0 0 1 I I #
point $-1 -55.021926416923542 40.057358785539869 17.75961406357164 #
point $-1 -47.265895064962812 25.045358217092563 5.0558497093625103 #
point $-1 -35.631848037021712 25.045358217092563 5.0558497093625103 #
edge $-1 $888 -17.75961406357164 $882 -1.8121258393429045 $879 $945 forward 7 unknown #
straight-curve $-1 31.45865827216452 40.057358785539869 1.8121258393429009 -1 0 0 I I #
point $-1 76.490371410260323 40.057358785539869 1.8121258393429045 #
straight-curve $-1 76.490371410260323 0 17.75961406357164 0 1 0 I I #
point $-1 76.490371410260323 40.057358785539869 17.75961406357164 #
point $-1 57.100293030358486 25.045358217092563 5.0558497093625103 #
point $-1 68.734340058299594 25.045358217092563 5.0558497093625103 #
point $-1 -76.490371410260323 40.057358785539869 17.75961406357164 #
straight-curve $-1 -76.490371410260323 0 17.75961406357164 0 -1 0 I I #
point $-1 -76.490371410260323 -40.057358785539869 17.75961406357164 #
straight-curve $-1 76.490371410260323 40.057358785539869 0 0 0 -1 I I #
End-of-ACIS-data 