500 0 10 0           
7 Unknown 11 ACIS 5.0 NT 24 Thu Mar 25 21:49:01 1999 
-1 9.9999999999999995e-007 1e-010 
body $-1 $10 $-1 $11 #
body $-1 $12 $-1 $13 #
body $-1 $14 $-1 $15 #
body $-1 $16 $-1 $17 #
body $-1 $18 $-1 $19 #
body $-1 $20 $-1 $21 #
body $-1 $22 $-1 $23 #
body $-1 $24 $-1 $25 #
body $-1 $26 $-1 $27 #
body $-1 $28 $-1 $29 #
lump $-1 $-1 $30 $0 #
transform $-1 1 0 0 0 1 0 0 0 1 72.233649708548228 49.266007683997564 21.645198718867587 1 rotate no_reflect no_shear #
lump $-1 $-1 $31 $1 #
transform $-1 1 0 0 0 1 0 0 0 1 72.233649708548228 49.266007683997564 21.645198718867587 1 rotate no_reflect no_shear #
lump $-1 $-1 $32 $2 #
transform $-1 1 0 0 0 1 0 0 0 1 72.233649708548228 49.266007683997564 21.645198718867587 1 rotate no_reflect no_shear #
lump $-1 $-1 $33 $3 #
transform $-1 1 0 0 0 1 0 0 0 1 72.233649708548228 49.266007683997564 21.645198718867587 1 rotate no_reflect no_shear #
lump $-1 $-1 $34 $4 #
transform $-1 1 0 0 0 1 0 0 0 1 72.233649708548228 49.266007683997564 21.645198718867587 1 rotate no_reflect no_shear #
lump $-1 $-1 $35 $5 #
transform $-1 1 0 0 0 1 0 0 0 1 72.233649708548228 49.266007683997564 21.645198718867587 1 rotate no_reflect no_shear #
lump $-1 $-1 $36 $6 #
transform $-1 1 0 0 0 1 0 0 0 1 72.233649708548228 49.266007683997564 21.645198718867587 1 rotate no_reflect no_shear #
lump $-1 $-1 $37 $7 #
transform $-1 1 0 0 0 1 0 0 0 1 72.233649708548228 49.266007683997564 21.645198718867587 1 rotate no_reflect no_shear #
lump $-1 $-1 $38 $8 #
transform $-1 1 0 0 0 1 0 0 0 1 72.233649708548228 49.266007683997564 21.645198718867587 1 rotate no_reflect no_shear #
lump $-1 $-1 $39 $9 #
transform $-1 1 0 0 0 1 0 0 0 1 72.233649708548228 49.266007683997564 21.645198718867587 1 rotate no_reflect no_shear #
shell $-1 $-1 $-1 $40 $-1 $10 #
shell $-1 $-1 $-1 $41 $-1 $12 #
shell $-1 $-1 $-1 $42 $-1 $14 #
shell $-1 $-1 $-1 $43 $-1 $16 #
shell $-1 $-1 $-1 $44 $-1 $18 #
shell $-1 $-1 $-1 $45 $-1 $20 #
shell $-1 $-1 $-1 $46 $-1 $22 #
shell $-1 $-1 $-1 $47 $-1 $24 #
shell $-1 $-1 $-1 $48 $-1 $26 #
shell $-1 $-1 $-1 $49 $-1 $28 #
face $-1 $50 $51 $30 $-1 $52 forward single #
face $-1 $53 $54 $31 $-1 $55 reversed single #
face $-1 $56 $57 $32 $-1 $58 reversed single #
face $-1 $59 $60 $33 $-1 $61 forward single #
face $-1 $62 $63 $34 $-1 $64 forward single #
face $-1 $65 $66 $35 $-1 $67 forward single #
face $-1 $68 $69 $36 $-1 $70 reversed single #
face $-1 $71 $72 $37 $-1 $73 forward single #
face $-1 $74 $75 $38 $-1 $76 forward single #
face $-1 $77 $78 $39 $-1 $79 forward single #
face $-1 $80 $81 $30 $-1 $82 reversed single #
loop $-1 $-1 $83 $40 #
plane-surface $-1 0 0 21.645198718867587 0 0 1 1 0 0 forward_v I I I I #
face $-1 $84 $85 $31 $-1 $86 reversed single #
loop $-1 $-1 $87 $41 #
plane-surface $-1 -58.598301293792403 -40.071795510143573 0 1 0 0 0 0 -1 forward_v I I I I #
face $-1 $88 $89 $32 $-1 $90 reversed single #
loop $-1 $-1 $91 $42 #
plane-surface $-1 -72.233649708548242 -25.85610442323069 0.27995964750154201 -0.78801076186113728 0 0.61566146476048833 0.61566146476048833 0 0.78801076186113728 forward_v I I I I #
face $-1 $92 $93 $33 $-1 $94 forward single #
loop $-1 $95 $96 $43 #
cone-surface $-1 -62.386916810637018 -28.868991771066025 9.7902163560964759 0.78801076186113728 0 -0.61566146476048833 0.61566146476048833 0 0.78801076186113728 1 I I 0 1 1 forward I I I I #
face $-1 $97 $98 $34 $-1 $99 forward single #
loop $-1 $100 $101 $44 #
cone-surface $-1 -62.386916810637018 -25.856104423230693 9.7902163560964759 0.78801076186113728 0 -0.61566146476048833 0.61566146476048833 0 0.78801076186113728 1 I I 0 1 1 forward I I I I #
face $-1 $102 $103 $35 $-1 $104 forward single #
loop $-1 $105 $106 $45 #
cone-surface $-1 -62.386916810637018 -22.843217075395362 9.7902163560964759 0.78801076186113728 0 -0.61566146476048833 0.61566146476048833 0 0.78801076186113728 1 I I 0 1 1 forward I I I I #
face $-1 $107 $108 $36 $-1 $109 reversed single #
loop $-1 $-1 $110 $46 #
plane-surface $-1 111.21738320900025 39.537462451121726 215.51524673187279 0 -1 0 -0.82903758062907751 0 -0.55919289150049634 forward_v I I I I #
face $-1 $111 $112 $37 $-1 $113 forward single #
loop $-1 $114 $115 $47 #
cone-surface $-1 68.117779589840026 20.970623354899239 17.047529747286124 -0.82903758062907751 0 -0.55919289150049634 0.83878933725074445 0 -1.2435563709436162 1 I I 0 1 1.5 forward I I I I #
face $-1 $116 $117 $38 $-1 $118 forward single #
loop $-1 $119 $120 $48 #
cone-surface $-1 68.117779589840026 27.933188015982672 17.047529747286124 -0.82903758062907751 0 -0.55919289150049634 0.83878933725074445 0 -1.2435563709436162 1 I I 0 1 1.5 forward I I I I #
face $-1 $121 $122 $39 $-1 $123 forward single #
loop $-1 $124 $125 $49 #
cone-surface $-1 68.117779589840026 34.895752677066106 17.047529747286124 -0.82903758062907751 0 -0.55919289150049634 0.83878933725074445 0 -1.2435563709436162 1 I I 0 1 1.5 forward I I I I #
face $-1 $126 $127 $30 $-1 $128 reversed single #
loop $-1 $-1 $129 $50 #
plane-surface $-1 0 0 -21.645198718867587 0 0 1 1 0 0 forward_v I I I I #
coedge $-1 $130 $131 $132 $133 forward $51 $-1 #
face $-1 $134 $135 $31 $-1 $136 reversed single #
loop $-1 $-1 $137 $53 #
plane-surface $-1 -52.967061768699153 -30.877583336289582 0 0 -1 0 0 0 -1 forward_v I I I I #
coedge $-1 $138 $139 $140 $141 forward $54 $-1 #
face $-1 $142 $143 $32 $-1 $144 forward single #
loop $-1 $-1 $145 $56 #
plane-surface $-1 -186.07543638623545 -20.834625510171804 89.222908816623189 0 -1 0 0.78801076186113728 0 -0.61566146476048833 forward_v I I I I #
coedge $-1 $146 $147 $148 $149 reversed $57 $-1 #
face $-1 $-1 $150 $33 $-1 $151 forward single #
loop $-1 $152 $153 $59 #
cone-surface $-1 -60.492355397811934 -28.868991771066025 8.310022796628143 0.78801076186113728 0 -0.61566146476048833 0.30783073238024417 0 0.39400538093056864 1 I I -0.70710678118654746 0.70710678118654746 0.5 forward I I I I #
loop $-1 $-1 $154 $43 #
coedge $-1 $96 $96 $155 $156 reversed $60 $-1 #
face $-1 $-1 $157 $34 $-1 $158 forward single #
loop $-1 $159 $160 $62 #
cone-surface $-1 -60.492355397811934 -25.856104423230693 8.310022796628143 0.78801076186113728 0 -0.61566146476048833 0.30783073238024417 0 0.39400538093056864 1 I I -0.70710678118654746 0.70710678118654746 0.5 forward I I I I #
loop $-1 $-1 $161 $44 #
coedge $-1 $101 $101 $162 $163 reversed $63 $-1 #
face $-1 $-1 $164 $35 $-1 $165 forward single #
loop $-1 $166 $167 $65 #
cone-surface $-1 -60.492355397811934 -22.843217075395362 8.310022796628143 0.78801076186113728 0 -0.61566146476048833 0.30783073238024417 0 0.39400538093056864 1 I I -0.70710678118654746 0.70710678118654746 0.5 forward I I I I #
loop $-1 $-1 $168 $45 #
coedge $-1 $106 $106 $169 $170 reversed $66 $-1 #
face $-1 $171 $172 $36 $-1 $173 reversed single #
loop $-1 $-1 $174 $68 #
plane-surface $-1 -8.5514371797659408 27.933188015982672 134.73015984355865 0.82903758062907751 0 0.55919289150049634 0.55919289150049634 0 -0.82903758062907751 forward_v I I I I #
coedge $-1 $175 $176 $177 $178 reversed $69 $-1 #
face $-1 $-1 $179 $37 $-1 $180 forward single #
loop $-1 $181 $182 $71 #
cone-surface $-1 65.634291214950849 20.970623354899239 15.372395739116843 -0.82903758062907751 0 -0.55919289150049634 0.41939466862537222 0 -0.62177818547180808 1 I I -0.70710678118654757 0.70710678118654757 0.75 forward I I I I #
loop $-1 $-1 $183 $47 #
coedge $-1 $115 $115 $184 $185 reversed $72 $-1 #
face $-1 $-1 $186 $38 $-1 $187 forward single #
loop $-1 $188 $189 $74 #
cone-surface $-1 65.634291214950849 27.933188015982672 15.372395739116843 -0.82903758062907751 0 -0.55919289150049634 0.41939466862537222 0 -0.62177818547180808 1 I I -0.70710678118654757 0.70710678118654757 0.75 forward I I I I #
loop $-1 $-1 $190 $48 #
coedge $-1 $120 $120 $191 $192 reversed $75 $-1 #
face $-1 $-1 $193 $39 $-1 $194 forward single #
loop $-1 $195 $196 $77 #
cone-surface $-1 65.634291214950849 34.895752677066106 15.372395739116843 -0.82903758062907751 0 -0.55919289150049634 0.41939466862537222 0 -0.62177818547180808 1 I I -0.70710678118654757 0.70710678118654757 0.75 forward I I I I #
loop $-1 $-1 $197 $49 #
coedge $-1 $125 $125 $198 $199 reversed $78 $-1 #
face $-1 $200 $201 $30 $-1 $202 reversed single #
loop $-1 $-1 $203 $80 #
plane-surface $-1 0 -49.266007683997564 0 0 1 0 0 0 1 forward_v I I I I #
coedge $-1 $204 $205 $206 $207 forward $81 $-1 #
coedge $-1 $208 $83 $209 $210 forward $51 $-1 #
coedge $-1 $83 $208 $211 $212 forward $51 $-1 #
coedge $-1 $213 $214 $83 $133 reversed $215 $-1 #
edge $-1 $216 -49.266007683997564 $217 49.266007683997564 $132 $218 forward 7 unknown #
face $-1 $219 $220 $31 $-1 $221 forward single #
loop $-1 $-1 $222 $84 #
plane-surface $-1 -47.335822243605904 -40.071795510143573 0 -1 0 0 0 0 1 forward_v I I I I #
coedge $-1 $223 $224 $225 $226 forward $85 $-1 #
coedge $-1 $227 $87 $228 $229 reversed $54 $-1 #
coedge $-1 $87 $227 $230 $231 reversed $54 $-1 #
coedge $-1 $224 $223 $87 $141 reversed $85 $-1 #
edge $-1 $232 -21.645198718867587 $233 21.645198718867587 $140 $234 forward 7 unknown #
face $-1 $235 $236 $32 $-1 $237 forward single #
loop $-1 $-1 $238 $88 #
plane-surface $-1 0 0 21.645198718867587 0 0 1 1 0 0 forward_v I I I I #
coedge $-1 $239 $240 $241 $242 reversed $89 $-1 #
coedge $-1 $243 $91 $244 $245 reversed $57 $-1 #
coedge $-1 $91 $243 $239 $246 forward $57 $-1 #
coedge $-1 $241 $238 $91 $149 forward $143 $-1 #
edge $-1 $247 -17.949531124674238 $248 -7.9065732985564594 $148 $249 forward 7 unknown #
loop $-1 $-1 $155 $92 #
plane-surface $-1 -72.233649708548242 -25.85610442323069 0.27995964750154201 -0.78801076186113728 0 0.61566146476048833 0.61566146476048833 0 0.78801076186113728 forward_v I I I I #
loop $-1 $-1 $250 $59 #
coedge $-1 $153 $153 $154 $251 reversed $93 $-1 #
coedge $-1 $154 $154 $153 $251 forward $95 $-1 #
coedge $-1 $155 $155 $96 $156 forward $150 $-1 #
edge $-1 $252 0 $252 6.2831853071796004 $155 $253 forward 7 unknown #
loop $-1 $-1 $162 $97 #
plane-surface $-1 -72.233649708548242 -25.85610442323069 0.27995964750154201 -0.78801076186113728 0 0.61566146476048833 0.61566146476048833 0 0.78801076186113728 forward_v I I I I #
loop $-1 $-1 $254 $62 #
coedge $-1 $160 $160 $161 $255 reversed $98 $-1 #
coedge $-1 $161 $161 $160 $255 forward $100 $-1 #
coedge $-1 $162 $162 $101 $163 forward $157 $-1 #
edge $-1 $256 0 $256 6.2831853071796004 $162 $257 forward 7 unknown #
loop $-1 $-1 $169 $102 #
plane-surface $-1 -72.233649708548242 -25.85610442323069 0.27995964750154201 -0.78801076186113728 0 0.61566146476048833 0.61566146476048833 0 0.78801076186113728 forward_v I I I I #
loop $-1 $-1 $258 $65 #
coedge $-1 $167 $167 $168 $259 reversed $103 $-1 #
coedge $-1 $168 $168 $167 $259 forward $105 $-1 #
coedge $-1 $169 $169 $106 $170 forward $164 $-1 #
edge $-1 $260 0 $260 6.2831853071796004 $169 $261 forward 7 unknown #
face $-1 $262 $263 $36 $-1 $264 forward single #
loop $-1 $-1 $265 $107 #
plane-surface $-1 111.21738320900025 16.328913580843619 215.51524673187279 0 1 0 0.82903758062907751 0 0.55919289150049634 forward_v I I I I #
coedge $-1 $266 $267 $268 $269 reversed $108 $-1 #
coedge $-1 $176 $110 $270 $271 reversed $69 $-1 #
coedge $-1 $110 $175 $266 $272 reversed $69 $-1 #
coedge $-1 $268 $273 $110 $178 forward $263 $-1 #
edge $-1 $274 -16.624958104048105 $275 -12.116638245466433 $177 $276 forward 7 unknown #
loop $-1 $-1 $184 $111 #
plane-surface $-1 -8.5514371797659408 27.933188015982672 134.73015984355865 0.82903758062907751 0 0.55919289150049634 0.55919289150049634 0 -0.82903758062907751 forward_v I I I I #
loop $-1 $-1 $277 $71 #
coedge $-1 $182 $182 $183 $278 reversed $112 $-1 #
coedge $-1 $183 $183 $182 $278 forward $114 $-1 #
coedge $-1 $184 $184 $115 $185 forward $179 $-1 #
edge $-1 $279 0 $279 6.2831853071796004 $184 $280 forward 7 unknown #
loop $-1 $-1 $191 $116 #
plane-surface $-1 -8.5514371797659408 27.933188015982672 134.73015984355865 0.82903758062907751 0 0.55919289150049634 0.55919289150049634 0 -0.82903758062907751 forward_v I I I I #
loop $-1 $-1 $281 $74 #
coedge $-1 $189 $189 $190 $282 reversed $117 $-1 #
coedge $-1 $190 $190 $189 $282 forward $119 $-1 #
coedge $-1 $191 $191 $120 $192 forward $186 $-1 #
edge $-1 $283 0 $283 6.2831853071796004 $191 $284 forward 7 unknown #
loop $-1 $-1 $198 $121 #
plane-surface $-1 -8.5514371797659408 27.933188015982672 134.73015984355865 0.82903758062907751 0 0.55919289150049634 0.55919289150049634 0 -0.82903758062907751 forward_v I I I I #
loop $-1 $-1 $285 $77 #
coedge $-1 $196 $196 $197 $286 reversed $122 $-1 #
coedge $-1 $197 $197 $196 $286 forward $124 $-1 #
coedge $-1 $198 $198 $125 $199 forward $193 $-1 #
edge $-1 $287 0 $287 6.2831853071796004 $198 $288 forward 7 unknown #
face $-1 $289 $290 $30 $-1 $291 reversed single #
loop $-1 $-1 $292 $126 #
plane-surface $-1 -72.233649708548228 0 0 1 0 0 0 0 -1 forward_v I I I I #
coedge $-1 $293 $211 $294 $295 forward $127 $-1 #
coedge $-1 $296 $129 $293 $297 forward $81 $-1 #
coedge $-1 $129 $296 $298 $299 forward $81 $-1 #
coedge $-1 $214 $213 $129 $207 reversed $215 $-1 #
edge $-1 $300 -49.266007683997564 $301 49.266007683997564 $206 $302 forward 7 unknown #
coedge $-1 $131 $130 $303 $304 forward $51 $-1 #
coedge $-1 $305 $306 $130 $210 reversed $290 $-1 #
edge $-1 $217 -72.233649708548228 $307 72.233649708548228 $209 $308 forward 7 unknown #
coedge $-1 $203 $309 $131 $212 reversed $127 $-1 #
edge $-1 $310 -72.233649708548228 $216 72.233649708548228 $211 $311 forward 7 unknown #
coedge $-1 $206 $132 $309 $312 forward $215 $-1 #
coedge $-1 $132 $206 $305 $313 reversed $215 $-1 #
loop $-1 $-1 $213 $289 #
vertex $-1 $133 $314 #
vertex $-1 $133 $315 #
straight-curve $-1 72.233649708548228 0 21.645198718867587 0 1 0 I I #
face $-1 $316 $317 $31 $-1 $318 reversed single #
loop $-1 $-1 $319 $134 #
plane-surface $-1 0 0 21.645198718867587 0 0 1 1 0 0 forward_v I I I I #
coedge $-1 $320 $321 $322 $323 reversed $135 $-1 #
coedge $-1 $140 $137 $324 $325 reversed $85 $-1 #
coedge $-1 $137 $140 $326 $327 reversed $85 $-1 #
coedge $-1 $321 $320 $137 $226 reversed $135 $-1 #
edge $-1 $328 -21.645198718867587 $329 21.645198718867587 $225 $330 forward 7 unknown #
coedge $-1 $139 $138 $331 $332 reversed $54 $-1 #
coedge $-1 $324 $333 $138 $229 forward $317 $-1 #
edge $-1 $334 -29.230109928925778 $233 -10.841685581217796 $228 $335 forward 7 unknown #
coedge $-1 $336 $326 $139 $231 forward $220 $-1 #
edge $-1 $232 10.841685581217796 $337 29.230109928925778 $230 $338 forward 7 unknown #
vertex $-1 $231 $339 #
vertex $-1 $229 $340 #
straight-curve $-1 -58.598301293792403 -30.877583336289582 0 0 0 -1 I I #
face $-1 $-1 $341 $32 $-1 $342 reversed single #
loop $-1 $-1 $244 $142 #
plane-surface $-1 -52.967061768699153 -30.877583336289582 0 0 -1 0 0 0 -1 forward_v I I I I #
coedge $-1 $148 $343 $344 $345 forward $143 $-1 #
coedge $-1 $240 $145 $147 $246 reversed $89 $-1 #
coedge $-1 $145 $239 $346 $347 reversed $89 $-1 #
coedge $-1 $343 $148 $145 $242 forward $143 $-1 #
edge $-1 $248 -37.49642221660288 $348 -20.804068484569498 $241 $349 forward 7 unknown #
coedge $-1 $147 $146 $350 $351 reversed $57 $-1 #
coedge $-1 $344 $352 $146 $245 forward $236 $-1 #
edge $-1 $353 -5.8205422684330692 $247 21.292334998503286 $244 $354 forward 7 unknown #
edge $-1 $355 2.3096905769578348e-014 $248 27.11287726693638 $239 $356 forward 7 unknown #
vertex $-1 $245 $357 #
vertex $-1 $149 $358 #
straight-curve $-1 -55.541295976514853 -12.928052211615345 21.645198718867587 0 1 0 I I #
coedge $-1 $250 $250 $-1 $359 reversed $152 $-1 #
edge $-1 $360 0 $360 6.2831853071796004 $153 $361 forward 7 unknown #
vertex $-1 $156 $362 #
ellipse-curve $-1 -63.887472842531537 -28.868991771066025 10.962579183184571 -0.78801076186113728 0 0.61566146476048833 0.61566146476048833 0 0.78801076186113728 1 I I #
coedge $-1 $254 $254 $-1 $363 reversed $159 $-1 #
edge $-1 $364 0 $364 6.2831853071796004 $160 $365 forward 7 unknown #
vertex $-1 $163 $366 #
ellipse-curve $-1 -63.887472842531537 -25.856104423230693 10.962579183184571 -0.78801076186113728 0 0.61566146476048833 0.61566146476048833 0 0.78801076186113728 1 I I #
coedge $-1 $258 $258 $-1 $367 reversed $166 $-1 #
edge $-1 $368 0 $368 6.2831853071796004 $167 $369 forward 7 unknown #
vertex $-1 $170 $370 #
ellipse-curve $-1 -63.887472842531537 -22.843217075395362 10.962579183184571 -0.78801076186113728 0 0.61566146476048833 0.61566146476048833 0 0.78801076186113728 1 I I #
face $-1 $-1 $371 $36 $-1 $372 reversed single #
loop $-1 $-1 $177 $171 #
plane-surface $-1 0 0 21.645198718867587 0 0 1 1 0 0 forward_v I I I I #
coedge $-1 $373 $374 $375 $376 reversed $172 $-1 #
coedge $-1 $377 $174 $176 $272 forward $108 $-1 #
coedge $-1 $174 $377 $373 $378 forward $108 $-1 #
coedge $-1 $375 $177 $174 $269 forward $263 $-1 #
edge $-1 $275 -25.57086844313039 $379 -2.3623195728522823 $268 $380 forward 7 unknown #
coedge $-1 $381 $382 $175 $271 forward $371 $-1 #
edge $-1 $383 -92.796283911143973 $274 -86.112424647068806 $270 $384 forward 7 unknown #
edge $-1 $275 136.40510848601303 $383 144.46729941709651 $176 $385 forward 7 unknown #
coedge $-1 $177 $375 $381 $386 forward $263 $-1 #
vertex $-1 $271 $387 #
vertex $-1 $178 $388 #
straight-curve $-1 55.608691604500123 39.537462451121726 21.64519871886759 -1 0 0 I I #
coedge $-1 $277 $277 $-1 $389 reversed $181 $-1 #
edge $-1 $390 0 $390 6.2831853071796004 $182 $391 forward 7 unknown #
vertex $-1 $185 $392 #
ellipse-curve $-1 69.979489779257378 20.970623354899239 18.303269086830021 0.82903758062907751 0 0.55919289150049634 0.83878933725074445 0 -1.2435563709436162 1 I I #
coedge $-1 $281 $281 $-1 $393 reversed $188 $-1 #
edge $-1 $394 0 $394 6.2831853071796004 $189 $395 forward 7 unknown #
vertex $-1 $192 $396 #
ellipse-curve $-1 69.979489779257378 27.933188015982672 18.303269086830021 0.82903758062907751 0 0.55919289150049634 0.83878933725074445 0 -1.2435563709436162 1 I I #
coedge $-1 $285 $285 $-1 $397 reversed $195 $-1 #
edge $-1 $398 0 $398 6.2831853071796004 $196 $399 forward 7 unknown #
vertex $-1 $199 $400 #
ellipse-curve $-1 69.979489779257378 34.895752677066106 18.303269086830021 0.82903758062907751 0 0.55919289150049634 0.83878933725074445 0 -1.2435563709436162 1 I I #
face $-1 $-1 $215 $30 $-1 $401 reversed single #
loop $-1 $-1 $305 $200 #
plane-surface $-1 0 49.266007683997564 0 0 -1 0 0 0 -1 forward_v I I I I #
coedge $-1 $402 $303 $306 $403 forward $201 $-1 #
coedge $-1 $309 $203 $204 $297 reversed $127 $-1 #
coedge $-1 $303 $402 $203 $295 reversed $201 $-1 #
edge $-1 $310 -21.645198718867587 $404 21.645198718867587 $294 $405 forward 7 unknown #
coedge $-1 $205 $204 $402 $406 forward $81 $-1 #
edge $-1 $301 -72.233649708548228 $404 72.233649708548228 $293 $407 forward 7 unknown #
coedge $-1 $306 $305 $205 $299 reversed $290 $-1 #
edge $-1 $408 -72.233649708548228 $300 72.233649708548228 $298 $409 forward 7 unknown #
vertex $-1 $207 $410 #
vertex $-1 $312 $411 #
straight-curve $-1 72.233649708548228 0 -21.645198718867587 0 -1 0 I I #
coedge $-1 $292 $294 $208 $304 reversed $201 $-1 #
edge $-1 $307 -49.266007683997564 $310 49.266007683997564 $303 $412 forward 7 unknown #
coedge $-1 $298 $209 $214 $313 forward $290 $-1 #
coedge $-1 $209 $298 $292 $403 reversed $290 $-1 #
vertex $-1 $210 $413 #
straight-curve $-1 0 49.266007683997564 21.645198718867587 -1 0 0 I I #
coedge $-1 $211 $293 $213 $312 reversed $127 $-1 #
vertex $-1 $304 $414 #
straight-curve $-1 0 -49.266007683997564 21.645198718867587 1 0 0 I I #
edge $-1 $216 -21.645198718867587 $301 21.645198718867587 $213 $415 forward 7 unknown #
edge $-1 $217 -21.645198718867587 $300 21.645198718867587 $214 $416 forward 7 unknown #
point $-1 72.233649708548228 -49.266007683997564 21.645198718867587 #
point $-1 72.233649708548228 49.266007683997564 21.645198718867587 #
face $-1 $-1 $417 $31 $-1 $418 reversed single #
loop $-1 $-1 $419 $219 #
plane-surface $-1 0 0 -21.645198718867587 0 0 1 1 0 0 forward_v I I I I #
coedge $-1 $326 $336 $321 $420 forward $220 $-1 #
coedge $-1 $225 $222 $419 $421 reversed $135 $-1 #
coedge $-1 $222 $225 $319 $420 reversed $135 $-1 #
coedge $-1 $422 $423 $222 $323 forward $417 $-1 #
edge $-1 $424 -21.645198718867587 $425 21.645198718867587 $322 $426 forward 7 unknown #
coedge $-1 $419 $228 $223 $325 forward $317 $-1 #
edge $-1 $233 -32.114770409442826 $329 -20.852291359256327 $324 $427 forward 7 unknown #
coedge $-1 $230 $319 $224 $327 forward $220 $-1 #
edge $-1 $328 20.852291359256327 $232 32.114770409442826 $326 $428 forward 7 unknown #
vertex $-1 $327 $429 #
vertex $-1 $325 $430 #
straight-curve $-1 -47.335822243605904 -30.877583336289582 0 0 0 -1 I I #
coedge $-1 $423 $422 $227 $332 forward $417 $-1 #
edge $-1 $337 -21.645198718867587 $334 21.645198718867587 $331 $431 forward 7 unknown #
coedge $-1 $228 $419 $423 $432 forward $317 $-1 #
vertex $-1 $229 $433 #
straight-curve $-1 -58.598301293792403 -20.035897755071787 -21.645198718867587 0 1 0 I I #
coedge $-1 $319 $230 $422 $434 forward $220 $-1 #
vertex $-1 $434 $435 #
straight-curve $-1 -58.598301293792403 -20.035897755071787 21.645198718867587 0 -1 0 I I #
point $-1 -58.598301293792403 -30.877583336289582 21.645198718867587 #
point $-1 -58.598301293792403 -30.877583336289582 -21.645198718867587 #
loop $-1 $-1 $436 $235 #
plane-surface $-1 -72.233649708548228 0 0 1 0 0 0 0 -1 forward_v I I I I #
coedge $-1 $238 $241 $437 $438 forward $143 $-1 #
coedge $-1 $352 $244 $238 $345 reversed $236 $-1 #
edge $-1 $439 20.804068484569498 $247 37.49642221660288 $238 $440 forward 7 unknown #
coedge $-1 $350 $437 $240 $347 forward $341 $-1 #
edge $-1 $348 22.966255689444008 $355 44.331494760810031 $346 $441 forward 7 unknown #
vertex $-1 $438 $442 #
straight-curve $-1 -93.037718193117726 -20.834625510171804 21.645198718867583 -1 0 0 I I #
coedge $-1 $436 $346 $243 $351 forward $341 $-1 #
edge $-1 $355 7.9065732985564594 $353 17.94953112467423 $350 $443 forward 7 unknown #
coedge $-1 $244 $344 $436 $444 reversed $236 $-1 #
vertex $-1 $444 $445 #
straight-curve $-1 -68.650166129864388 -30.877583336289582 4.866609594894455 0.61566146476048833 0 0.78801076186113728 I I #
vertex $-1 $351 $446 #
straight-curve $-1 -72.233649708548242 -20.834625510171804 0.27995964750154201 0.61566146476048833 0 0.78801076186113728 I I #
point $-1 -55.541295976514846 -30.877583336289582 21.645198718867587 #
point $-1 -55.541295976514846 -20.834625510171804 21.645198718867587 #
edge $-1 $447 1 $447 0 $250 $-1 forward 7 unknown #
vertex $-1 $251 $448 #
ellipse-curve $-1 -60.8863607787425 -28.868991771066025 8.6178535290083875 -0.78801076186113728 0 0.61566146476048833 0.61566146476048833 0 0.78801076186113728 1 I I #
point $-1 -63.271811377771037 -28.868991771066025 11.750589945045702 #
edge $-1 $449 1 $449 0 $254 $-1 forward 7 unknown #
vertex $-1 $255 $450 #
ellipse-curve $-1 -60.8863607787425 -25.856104423230693 8.6178535290083875 -0.78801076186113728 0 0.61566146476048833 0.61566146476048833 0 0.78801076186113728 1 I I #
point $-1 -63.271811377771037 -25.856104423230693 11.750589945045702 #
edge $-1 $451 1 $451 0 $258 $-1 forward 7 unknown #
vertex $-1 $259 $452 #
ellipse-curve $-1 -60.8863607787425 -22.843217075395362 8.6178535290083875 -0.78801076186113728 0 0.61566146476048833 0.61566146476048833 0 0.78801076186113728 1 I I #
point $-1 -63.271811377771037 -22.843217075395362 11.750589945045702 #
loop $-1 $-1 $270 $262 #
plane-surface $-1 72.233649708548228 0 0 -1 0 0 0 0 1 forward_v I I I I #
coedge $-1 $374 $265 $267 $378 reversed $172 $-1 #
coedge $-1 $265 $373 $453 $454 reversed $172 $-1 #
coedge $-1 $273 $268 $265 $376 forward $263 $-1 #
edge $-1 $379 12.116638245466433 $455 16.624958104048105 $375 $456 forward 7 unknown #
coedge $-1 $267 $266 $382 $457 reversed $108 $-1 #
edge $-1 $458 -144.46729941709651 $379 -136.40510848601303 $373 $459 forward 7 unknown #
vertex $-1 $269 $460 #
straight-curve $-1 67.725329849966556 13.966594007991336 21.64519871886759 0 -1 0 I I #
coedge $-1 $453 $270 $273 $386 reversed $371 $-1 #
coedge $-1 $270 $453 $377 $457 forward $371 $-1 #
vertex $-1 $271 $461 #
straight-curve $-1 72.233649708548228 39.537462451121726 107.7576233659364 0 0 1 I I #
straight-curve $-1 -8.5514371797659408 39.537462451121726 134.73015984355865 0.55919289150049634 0 -0.82903758062907751 I I #
edge $-1 $455 16.328913580843619 $274 39.537462451121726 $381 $462 forward 7 unknown #
point $-1 72.233649708548228 39.537462451121726 21.645198718867587 #
point $-1 67.725329849966556 39.537462451121726 21.645198718867576 #
edge $-1 $463 1 $463 0 $277 $-1 forward 7 unknown #
vertex $-1 $278 $464 #
ellipse-curve $-1 66.25606940042266 20.970623354899239 15.791790407742216 0.82903758062907751 0 0.55919289150049634 0.83878933725074445 0 -1.2435563709436162 1 I I #
point $-1 70.818279116508151 20.970623354899239 17.05971271588642 #
edge $-1 $465 1 $465 0 $281 $-1 forward 7 unknown #
vertex $-1 $282 $466 #
ellipse-curve $-1 66.25606940042266 27.933188015982672 15.791790407742216 0.82903758062907751 0 0.55919289150049634 0.83878933725074445 0 -1.2435563709436162 1 I I #
point $-1 70.818279116508151 27.933188015982672 17.05971271588642 #
edge $-1 $467 1 $467 0 $285 $-1 forward 7 unknown #
vertex $-1 $286 $468 #
ellipse-curve $-1 66.25606940042266 34.895752677066106 15.791790407742216 0.82903758062907751 0 0.55919289150049634 0.83878933725074445 0 -1.2435563709436162 1 I I #
point $-1 70.818279116508151 34.895752677066106 17.05971271588642 #
plane-surface $-1 72.233649708548228 0 0 -1 0 0 0 0 1 forward_v I I I I #
coedge $-1 $294 $292 $296 $406 reversed $201 $-1 #
edge $-1 $307 -21.645198718867587 $408 21.645198718867587 $306 $469 forward 7 unknown #
vertex $-1 $406 $470 #
straight-curve $-1 -72.233649708548228 -49.266007683997564 0 0 0 -1 I I #
edge $-1 $404 -49.266007683997564 $408 49.266007683997564 $402 $471 forward 7 unknown #
straight-curve $-1 0 -49.266007683997564 -21.645198718867587 -1 0 0 I I #
vertex $-1 $299 $472 #
straight-curve $-1 0 49.266007683997564 -21.645198718867587 1 0 0 I I #
point $-1 72.233649708548228 49.266007683997564 -21.645198718867587 #
point $-1 72.233649708548228 -49.266007683997564 -21.645198718867587 #
straight-curve $-1 -72.233649708548228 0 21.645198718867587 0 -1 0 I I #
point $-1 -72.233649708548228 49.266007683997564 21.645198718867587 #
point $-1 -72.233649708548228 -49.266007683997564 21.645198718867587 #
straight-curve $-1 72.233649708548228 -49.266007683997564 0 0 0 -1 I I #
straight-curve $-1 72.233649708548228 49.266007683997564 0 0 0 -1 I I #
loop $-1 $-1 $322 $316 #
plane-surface $-1 0 -49.266007683997564 0 0 1 0 0 0 1 forward_v I I I I #
coedge $-1 $333 $324 $320 $421 forward $317 $-1 #
edge $-1 $425 -29.230109928925778 $328 -10.841685581217796 $319 $473 forward 7 unknown #
edge $-1 $329 10.841685581217796 $424 29.230109928925778 $419 $474 forward 7 unknown #
coedge $-1 $331 $322 $336 $434 reversed $417 $-1 #
coedge $-1 $322 $331 $333 $432 reversed $417 $-1 #
vertex $-1 $432 $475 #
vertex $-1 $323 $476 #
straight-curve $-1 -47.335822243605904 -49.266007683997564 0 0 0 1 I I #
straight-curve $-1 -26.483530884349577 -30.877583336289582 -21.645198718867587 1 0 0 I I #
straight-curve $-1 -26.483530884349577 -30.877583336289582 21.645198718867587 -1 0 0 I I #
point $-1 -47.335822243605904 -30.877583336289582 21.645198718867587 #
point $-1 -47.335822243605904 -30.877583336289582 -21.645198718867587 #
straight-curve $-1 -58.598301293792403 -49.266007683997564 0 0 0 -1 I I #
edge $-1 $424 47.335822243605904 $334 58.598301293792403 $423 $477 forward 7 unknown #
point $-1 -58.598301293792403 -49.266007683997564 -21.645198718867587 #
edge $-1 $337 -58.598301293792403 $425 -47.335822243605904 $422 $478 forward 7 unknown #
point $-1 -58.598301293792403 -49.266007683997564 21.645198718867587 #
coedge $-1 $437 $350 $352 $444 forward $341 $-1 #
coedge $-1 $346 $436 $343 $438 reversed $341 $-1 #
edge $-1 $348 20.834625510171804 $439 30.877583336289575 $437 $479 forward 7 unknown #
vertex $-1 $345 $480 #
straight-curve $-1 -93.037718193117726 -30.877583336289575 21.645198718867583 1 0 0 I I #
straight-curve $-1 -72.233649708548228 -20.834625510171804 44.611454408311594 0 0 -1 I I #
point $-1 -72.233649708548228 -20.834625510171804 21.645198718867587 #
straight-curve $-1 -72.233649708548228 -12.928052211615345 0.27995964750154484 0 -1 0 I I #
edge $-1 $353 -44.331494760810031 $439 -22.966255689444008 $436 $481 forward 7 unknown #
point $-1 -72.233649708548228 -30.877583336289575 0.27995964750156022 #
point $-1 -72.233649708548228 -20.834625510171804 0.27995964750156022 #
vertex $-1 $359 $482 #
point $-1 -60.270699313982014 -28.868991771066025 9.4058642908695251 #
vertex $-1 $363 $483 #
point $-1 -60.270699313982014 -25.856104423230693 9.4058642908695251 #
vertex $-1 $367 $484 #
point $-1 -60.270699313982014 -22.843217075395362 9.4058642908695251 #
coedge $-1 $382 $381 $374 $454 forward $371 $-1 #
edge $-1 $455 86.112424647068806 $458 92.796283911143973 $453 $485 forward 7 unknown #
vertex $-1 $386 $486 #
straight-curve $-1 55.608691604500123 16.328913580843619 21.64519871886759 1 0 0 I I #
edge $-1 $458 2.3623195728522823 $383 25.57086844313039 $382 $487 forward 7 unknown #
vertex $-1 $457 $488 #
straight-curve $-1 -8.5514371797659408 16.328913580843619 134.73015984355865 -0.55919289150049634 0 0.82903758062907751 I I #
point $-1 67.725329849966556 16.328913580843619 21.645198718867576 #
point $-1 72.233649708548228 39.537462451121726 14.961339454792423 #
straight-curve $-1 72.233649708548228 0 21.645198718867587 0 1 0 I I #
vertex $-1 $389 $489 #
point $-1 67.094858737673405 20.970623354899239 14.548234036798599 #
vertex $-1 $393 $490 #
point $-1 67.094858737673405 27.933188015982672 14.548234036798599 #
vertex $-1 $397 $491 #
point $-1 67.094858737673405 34.895752677066106 14.548234036798599 #
straight-curve $-1 -72.233649708548228 49.266007683997564 0 0 0 -1 I I #
point $-1 -72.233649708548228 -49.266007683997564 -21.645198718867587 #
straight-curve $-1 -72.233649708548228 0 -21.645198718867587 0 1 0 I I #
point $-1 -72.233649708548228 49.266007683997564 -21.645198718867587 #
straight-curve $-1 -47.335822243605904 -20.035897755071787 21.645198718867587 0 1 0 I I #
straight-curve $-1 -47.335822243605904 -20.035897755071787 -21.645198718867587 0 -1 0 I I #
point $-1 -47.335822243605904 -49.266007683997564 -21.645198718867587 #
point $-1 -47.335822243605904 -49.266007683997564 21.645198718867587 #
straight-curve $-1 0 -49.266007683997564 -21.645198718867587 -1 0 0 I I #
straight-curve $-1 0 -49.266007683997564 21.645198718867587 1 0 0 I I #
straight-curve $-1 -72.233649708548228 0 21.645198718867587 0 -1 0 I I #
point $-1 -72.233649708548228 -30.877583336289575 21.645198718867587 #
straight-curve $-1 -72.233649708548228 -30.877583336289575 44.611454408311594 0 0 1 I I #
point $-1 -60.098350016881369 -28.868991771066025 8.0021920642478985 #
point $-1 -60.098350016881369 -25.856104423230693 8.0021920642478985 #
point $-1 -60.098350016881369 -22.843217075395362 8.0021920642478985 #
straight-curve $-1 72.233649708548228 16.328913580843619 107.7576233659364 0 0 -1 I I #
point $-1 72.233649708548228 16.328913580843619 21.645198718867587 #
straight-curve $-1 72.233649708548228 13.966594007991336 14.961339454792423 0 1 0 I I #
point $-1 72.233649708548228 16.328913580843619 14.961339454792423 #
point $-1 65.012513029479038 20.970623354899239 14.953001070491471 #
point $-1 65.012513029479038 27.933188015982672 14.953001070491471 #
point $-1 65.012513029479038 34.895752677066106 14.953001070491471 #
End-of-ACIS-data 