500 0 8 0           
7 Unknown 11 ACIS 5.0 NT 24 Fri Mar 26 16:34:58 1999 
-1 9.9999999999999995e-007 1e-010 
body $-1 $8 $-1 $9 #
body $-1 $10 $-1 $11 #
body $-1 $12 $-1 $13 #
body $-1 $14 $-1 $15 #
body $-1 $16 $-1 $17 #
body $-1 $18 $-1 $19 #
body $-1 $20 $-1 $21 #
body $-1 $22 $-1 $23 #
lump $-1 $-1 $24 $0 #
transform $-1 1 0 0 0 1 0 0 0 1 44.652241584521015 29.6638221392258 10.091873643581454 1 rotate no_reflect no_shear #
lump $-1 $-1 $25 $1 #
transform $-1 1 0 0 0 1 0 0 0 1 44.652241584521015 29.6638221392258 10.091873643581454 1 rotate no_reflect no_shear #
lump $-1 $-1 $26 $2 #
transform $-1 1 0 0 0 1 0 0 0 1 44.652241584521015 29.6638221392258 10.091873643581454 1 rotate no_reflect no_shear #
lump $-1 $-1 $27 $3 #
transform $-1 1 0 0 0 1 0 0 0 1 44.652241584521015 29.6638221392258 10.091873643581454 1 rotate no_reflect no_shear #
lump $-1 $-1 $28 $4 #
transform $-1 1 0 0 0 1 0 0 0 1 44.652241584521015 29.6638221392258 10.091873643581454 1 rotate no_reflect no_shear #
lump $-1 $-1 $29 $5 #
transform $-1 1 0 0 0 1 0 0 0 1 44.652241584521015 29.6638221392258 10.091873643581454 1 rotate no_reflect no_shear #
lump $-1 $-1 $30 $6 #
transform $-1 1 0 0 0 1 0 0 0 1 44.652241584521015 29.6638221392258 10.091873643581454 1 rotate no_reflect no_shear #
lump $-1 $-1 $31 $7 #
transform $-1 1 0 0 0 1 0 0 0 1 44.652241584521015 29.6638221392258 10.091873643581454 1 rotate no_reflect no_shear #
shell $-1 $-1 $-1 $32 $-1 $8 #
shell $-1 $-1 $-1 $33 $-1 $10 #
shell $-1 $-1 $-1 $34 $-1 $12 #
shell $-1 $-1 $-1 $35 $-1 $14 #
shell $-1 $-1 $-1 $36 $-1 $16 #
shell $-1 $-1 $-1 $37 $-1 $18 #
shell $-1 $-1 $-1 $38 $-1 $20 #
shell $-1 $-1 $-1 $39 $-1 $22 #
face $-1 $40 $41 $24 $-1 $42 forward single #
face $-1 $43 $44 $25 $-1 $45 forward single #
face $-1 $46 $47 $26 $-1 $48 forward single #
face $-1 $49 $50 $27 $-1 $51 reversed single #
face $-1 $52 $53 $28 $-1 $54 forward single #
face $-1 $55 $56 $29 $-1 $57 forward single #
face $-1 $58 $59 $30 $-1 $60 reversed single #
face $-1 $61 $62 $31 $-1 $63 forward single #
face $-1 $64 $65 $24 $-1 $66 reversed single #
loop $-1 $-1 $67 $32 #
plane-surface $-1 0 0 10.091873643581454 0 0 1 1 0 0 forward_v I I I I #
face $-1 $68 $69 $25 $-1 $70 reversed single #
loop $-1 $-1 $71 $33 #
plane-surface $-1 -44.652241584521015 0 0 1 0 0 0 0 -1 forward_v I I I I #
face $-1 $72 $73 $26 $-1 $74 reversed single #
loop $-1 $-1 $75 $34 #
plane-surface $-1 44.652241584521015 0 0 -1 0 0 0 0 1 forward_v I I I I #
face $-1 $76 $77 $27 $-1 $78 reversed single #
loop $-1 $-1 $79 $35 #
plane-surface $-1 3.2415228749728904 -87.067638115296788 75.150722532456498 -1 0 0 0 -0.64278761758704617 0.76604443648966558 forward_v I I I I #
face $-1 $80 $81 $28 $-1 $82 forward single #
loop $-1 $83 $84 $36 #
cone-surface $-1 -11.612139876882885 -26.534051730767658 7.0664164221190653 0 0.64278761758704617 -0.76604443648966558 1 0 0 1 I I 0 1 1 forward I I I I #
face $-1 $85 $86 $29 $-1 $87 forward single #
loop $-1 $88 $89 $37 #
cone-surface $-1 -2.6999422257694263 -26.534051730767658 7.0664164221190653 0 0.64278761758704617 -0.76604443648966558 1 0 0 1 I I 0 1 1 forward I I I I #
face $-1 $90 $91 $30 $-1 $92 reversed single #
loop $-1 $-1 $93 $38 #
plane-surface $-1 7.7362877028421266 47.179842128060201 109.14114198606804 1 0 0 0 -0.68199836817093118 -0.7313536940579346 forward_v I I I I #
face $-1 $94 $95 $31 $-1 $96 forward single #
loop $-1 $97 $98 $39 #
cone-surface $-1 16.630245439054875 25.497681249950077 6.1285430908396679 0 -0.68199836817093118 -0.7313536940579346 1 0 0 1 I I 0 1 1 forward I I I I #
face $-1 $99 $100 $24 $-1 $101 reversed single #
loop $-1 $-1 $102 $40 #
plane-surface $-1 0 0 -10.091873643581454 0 0 1 1 0 0 forward_v I I I I #
coedge $-1 $103 $104 $105 $106 forward $41 $-1 #
face $-1 $107 $108 $25 $-1 $109 forward single #
loop $-1 $-1 $110 $43 #
plane-surface $-1 0 29.6638221392258 0 0 -1 0 0 0 -1 forward_v I I I I #
coedge $-1 $111 $112 $113 $114 forward $44 $-1 #
face $-1 $115 $116 $26 $-1 $117 forward single #
loop $-1 $-1 $118 $46 #
plane-surface $-1 0 -29.6638221392258 0 0 1 0 0 0 1 forward_v I I I I #
coedge $-1 $119 $120 $121 $122 forward $47 $-1 #
face $-1 $123 $124 $27 $-1 $125 reversed single #
loop $-1 $-1 $126 $49 #
plane-surface $-1 -7.1560410513261488 -29.663822139225807 6.7395200472268897 0 -0.64278761758704617 0.76604443648966558 1 0 0 forward_v I I I I #
coedge $-1 $127 $128 $129 $130 reversed $50 $-1 #
face $-1 $-1 $131 $28 $-1 $132 forward single #
loop $-1 $133 $134 $52 #
cone-surface $-1 -11.612139876882885 -25.080477192727407 5.334113780589135 0 0.64278761758704617 -0.76604443648966558 0.5 0 0 1 I I -0.70710678118654746 0.70710678118654746 0.5 forward I I I I #
loop $-1 $-1 $135 $36 #
coedge $-1 $84 $84 $136 $137 reversed $53 $-1 #
face $-1 $-1 $138 $29 $-1 $139 forward single #
loop $-1 $140 $141 $55 #
cone-surface $-1 -2.6999422257694263 -25.080477192727407 5.334113780589135 0 0.64278761758704617 -0.76604443648966558 0.5 0 0 1 I I -0.70710678118654746 0.70710678118654746 0.5 forward I I I I #
loop $-1 $-1 $142 $37 #
coedge $-1 $89 $89 $143 $144 reversed $56 $-1 #
face $-1 $145 $146 $30 $-1 $147 reversed single #
loop $-1 $-1 $148 $58 #
plane-surface $-1 16.630245439054875 -13.725669663574848 43.827978324454506 0 0.68199836817093118 0.7313536940579346 1 0 0 forward_v I I I I #
coedge $-1 $149 $150 $151 $152 reversed $59 $-1 #
face $-1 $-1 $153 $31 $-1 $154 forward single #
loop $-1 $155 $156 $61 #
cone-surface $-1 16.630245439054875 24.596515951122086 5.1621616432971287 0 -0.68199836817093118 -0.7313536940579346 0.5 0 0 1 I I -0.70710678118654746 0.70710678118654746 0.5 forward I I I I #
loop $-1 $-1 $157 $39 #
coedge $-1 $98 $98 $158 $159 reversed $62 $-1 #
face $-1 $160 $161 $24 $-1 $162 reversed single #
loop $-1 $-1 $163 $64 #
plane-surface $-1 0 -29.6638221392258 0 0 1 0 0 0 1 forward_v I I I I #
coedge $-1 $164 $165 $166 $167 forward $65 $-1 #
coedge $-1 $168 $67 $169 $170 forward $41 $-1 #
coedge $-1 $67 $168 $171 $172 forward $41 $-1 #
coedge $-1 $173 $174 $67 $106 reversed $175 $-1 #
edge $-1 $176 -29.6638221392258 $177 29.6638221392258 $105 $178 forward 7 unknown #
face $-1 $179 $180 $25 $-1 $181 reversed single #
loop $-1 $-1 $113 $68 #
plane-surface $-1 -48.709056521487256 0 -1.6231973317270025 0 0 1 1 0 0 forward_v I I I I #
coedge $-1 $182 $183 $112 $184 forward $69 $-1 #
coedge $-1 $185 $71 $186 $187 reversed $44 $-1 #
coedge $-1 $71 $185 $110 $184 reversed $44 $-1 #
coedge $-1 $188 $189 $71 $114 reversed $108 $-1 #
edge $-1 $190 -29.6638221392258 $191 29.6638221392258 $113 $192 forward 7 unknown #
face $-1 $193 $194 $26 $-1 $195 reversed single #
loop $-1 $-1 $196 $72 #
plane-surface $-1 48.709056521487248 0 -1.6231973317270025 0 0 1 1 0 0 forward_v I I I I #
coedge $-1 $197 $198 $120 $199 forward $73 $-1 #
coedge $-1 $200 $75 $201 $202 reversed $47 $-1 #
coedge $-1 $75 $200 $118 $199 reversed $47 $-1 #
coedge $-1 $203 $204 $75 $122 reversed $116 $-1 #
edge $-1 $205 -29.6638221392258 $206 29.6638221392258 $121 $207 forward 7 unknown #
face $-1 $208 $209 $27 $-1 $210 forward single #
loop $-1 $-1 $211 $76 #
plane-surface $-1 -17.553604977625188 -87.067638115296788 75.150722532456498 1 0 0 0 0.64278761758704617 -0.76604443648966558 forward_v I I I I #
coedge $-1 $212 $213 $214 $215 reversed $77 $-1 #
coedge $-1 $128 $79 $216 $217 reversed $50 $-1 #
coedge $-1 $79 $127 $212 $218 reversed $50 $-1 #
coedge $-1 $214 $219 $79 $130 forward $209 $-1 #
edge $-1 $220 13.869996918422594 $221 17.865176276845389 $129 $222 forward 7 unknown #
loop $-1 $-1 $136 $80 #
plane-surface $-1 -7.1560410513261488 -29.663822139225807 6.7395200472268897 0 -0.64278761758704617 0.76604443648966558 1 0 0 forward_v I I I I #
loop $-1 $-1 $223 $52 #
coedge $-1 $134 $134 $135 $224 reversed $81 $-1 #
coedge $-1 $135 $135 $134 $224 forward $83 $-1 #
coedge $-1 $136 $136 $84 $137 forward $131 $-1 #
edge $-1 $225 -9.6995180200276794e-016 $225 6.2831853071795996 $136 $226 forward 7 unknown #
loop $-1 $-1 $143 $85 #
plane-surface $-1 -7.1560410513261488 -29.663822139225807 6.7395200472268897 0 -0.64278761758704617 0.76604443648966558 1 0 0 forward_v I I I I #
loop $-1 $-1 $227 $55 #
coedge $-1 $141 $141 $142 $228 reversed $86 $-1 #
coedge $-1 $142 $142 $141 $228 forward $88 $-1 #
coedge $-1 $143 $143 $89 $144 forward $138 $-1 #
edge $-1 $229 -9.6995180200276794e-016 $229 6.2831853071795996 $143 $230 forward 7 unknown #
face $-1 $231 $232 $30 $-1 $233 reversed single #
loop $-1 $-1 $234 $90 #
plane-surface $-1 25.524203175267623 47.179842128060201 109.14114198606804 -1 0 0 0 0.68199836817093118 0.7313536940579346 forward_v I I I I #
coedge $-1 $235 $236 $237 $238 reversed $91 $-1 #
coedge $-1 $150 $93 $239 $240 reversed $59 $-1 #
coedge $-1 $93 $149 $235 $241 reversed $59 $-1 #
coedge $-1 $237 $242 $93 $152 forward $243 $-1 #
edge $-1 $244 -6.0739010751956997 $245 1.1380484738706755 $151 $246 forward 7 unknown #
loop $-1 $-1 $158 $94 #
plane-surface $-1 16.630245439054875 -13.725669663574848 43.827978324454506 0 0.68199836817093118 0.7313536940579346 1 0 0 forward_v I I I I #
loop $-1 $-1 $247 $61 #
coedge $-1 $156 $156 $157 $248 reversed $95 $-1 #
coedge $-1 $157 $157 $156 $248 forward $97 $-1 #
coedge $-1 $158 $158 $98 $159 forward $153 $-1 #
edge $-1 $249 8.6078178295941704e-016 $249 6.2831853071796013 $158 $250 forward 7 unknown #
face $-1 $251 $252 $24 $-1 $253 reversed single #
loop $-1 $-1 $254 $99 #
plane-surface $-1 -44.652241584521015 0 0 1 0 0 0 0 -1 forward_v I I I I #
coedge $-1 $255 $171 $256 $257 forward $100 $-1 #
coedge $-1 $258 $102 $255 $259 forward $65 $-1 #
coedge $-1 $102 $258 $260 $261 forward $65 $-1 #
coedge $-1 $174 $173 $102 $167 reversed $175 $-1 #
edge $-1 $262 -29.6638221392258 $263 29.6638221392258 $166 $264 forward 7 unknown #
coedge $-1 $104 $103 $265 $266 forward $41 $-1 #
coedge $-1 $267 $268 $103 $170 reversed $252 $-1 #
edge $-1 $177 -44.652241584521015 $269 44.652241584521015 $169 $270 forward 7 unknown #
coedge $-1 $163 $271 $104 $172 reversed $100 $-1 #
edge $-1 $272 -44.652241584521015 $176 44.652241584521015 $171 $273 forward 7 unknown #
coedge $-1 $166 $105 $271 $274 forward $175 $-1 #
coedge $-1 $105 $166 $267 $275 reversed $175 $-1 #
loop $-1 $-1 $173 $251 #
vertex $-1 $106 $276 #
vertex $-1 $106 $277 #
straight-curve $-1 44.652241584521015 0 10.091873643581454 0 1 0 I I #
face $-1 $278 $279 $25 $-1 $280 reversed single #
loop $-1 $-1 $281 $107 #
plane-surface $-1 -48.709056521487256 0 -4.6231973317270025 0 0 1 1 0 0 forward_v I I I I #
coedge $-1 $282 $110 $283 $284 reversed $69 $-1 #
coedge $-1 $110 $282 $188 $285 reversed $69 $-1 #
edge $-1 $190 1.6231973317270025 $286 4.6231973317270025 $110 $287 forward 7 unknown #
coedge $-1 $112 $111 $281 $288 forward $44 $-1 #
coedge $-1 $289 $290 $111 $187 forward $291 $-1 #
edge $-1 $292 -4.6231973317270025 $191 -1.6231973317270025 $186 $293 forward 7 unknown #
coedge $-1 $294 $113 $183 $285 forward $108 $-1 #
coedge $-1 $113 $294 $289 $295 forward $108 $-1 #
vertex $-1 $184 $296 #
vertex $-1 $295 $297 #
straight-curve $-1 -44.652241584521015 0 -1.6231973317270025 0 -1 0 I I #
face $-1 $298 $299 $26 $-1 $300 reversed single #
loop $-1 $-1 $301 $115 #
plane-surface $-1 48.709056521487248 0 -4.6231973317270025 0 0 1 1 0 0 forward_v I I I I #
coedge $-1 $204 $203 $302 $303 forward $116 $-1 #
coedge $-1 $304 $118 $305 $306 reversed $73 $-1 #
coedge $-1 $118 $304 $203 $307 reversed $73 $-1 #
edge $-1 $205 1.6231973317270025 $308 4.6231973317270025 $118 $309 forward 7 unknown #
coedge $-1 $120 $119 $310 $311 forward $47 $-1 #
coedge $-1 $312 $313 $119 $202 forward $314 $-1 #
edge $-1 $315 -4.6231973317270025 $206 -1.6231973317270025 $201 $316 forward 7 unknown #
coedge $-1 $196 $121 $198 $307 forward $116 $-1 #
coedge $-1 $121 $196 $312 $317 forward $116 $-1 #
vertex $-1 $199 $318 #
vertex $-1 $317 $319 #
straight-curve $-1 44.652241584521015 0 -1.6231973317270025 0 1 0 I I #
face $-1 $-1 $320 $27 $-1 $321 reversed single #
loop $-1 $-1 $129 $123 #
plane-surface $-1 0 0 10.091873643581454 0 0 1 1 0 0 forward_v I I I I #
coedge $-1 $322 $323 $324 $325 reversed $124 $-1 #
coedge $-1 $326 $126 $128 $218 forward $77 $-1 #
coedge $-1 $126 $326 $322 $327 forward $77 $-1 #
coedge $-1 $324 $129 $126 $215 forward $209 $-1 #
edge $-1 $221 -6.8195434006359648 $328 13.975584451962114 $214 $329 forward 7 unknown #
coedge $-1 $330 $331 $127 $217 forward $320 $-1 #
edge $-1 $332 -30.835841219001352 $220 -27.483487622646795 $216 $333 forward 7 unknown #
edge $-1 $221 -5.2153363018082564 $332 -9.439443728910611e-015 $128 $334 forward 7 unknown #
coedge $-1 $129 $324 $330 $335 forward $209 $-1 #
vertex $-1 $217 $336 #
vertex $-1 $130 $337 #
straight-curve $-1 3.2415228749728904 -43.533819057648394 10.091873643581451 0 1 0 I I #
coedge $-1 $223 $223 $-1 $338 reversed $133 $-1 #
edge $-1 $339 0 $339 6.2831853071796004 $134 $340 forward 7 unknown #
vertex $-1 $137 $341 #
ellipse-curve $-1 -11.612139876882885 -27.666232460014399 8.4156968454041774 0 -0.64278761758704617 0.76604443648966558 1 0 0 1 I I #
coedge $-1 $227 $227 $-1 $342 reversed $140 $-1 #
edge $-1 $343 0 $343 6.2831853071796004 $141 $344 forward 7 unknown #
vertex $-1 $144 $345 #
ellipse-curve $-1 -2.6999422257694263 -27.666232460014399 8.4156968454041774 0 -0.64278761758704617 0.76604443648966558 1 0 0 1 I I #
face $-1 $-1 $243 $30 $-1 $346 forward single #
loop $-1 $-1 $347 $145 #
plane-surface $-1 0 29.6638221392258 0 0 -1 0 0 0 -1 forward_v I I I I #
coedge $-1 $348 $349 $350 $351 reversed $146 $-1 #
coedge $-1 $352 $148 $150 $241 forward $91 $-1 #
coedge $-1 $148 $352 $348 $353 forward $91 $-1 #
coedge $-1 $350 $151 $148 $238 forward $243 $-1 #
edge $-1 $245 -0.57883501668531068 $354 17.209080455740185 $237 $355 forward 7 unknown #
coedge $-1 $356 $357 $149 $240 forward $232 $-1 #
edge $-1 $358 -51.203949253908974 $244 -44.47869734945256 $239 $359 forward 7 unknown #
edge $-1 $245 49.466547510004716 $358 59.327644278451579 $150 $360 forward 7 unknown #
coedge $-1 $151 $350 $356 $361 forward $243 $-1 #
loop $-1 $-1 $350 $231 #
vertex $-1 $240 $362 #
vertex $-1 $152 $363 #
straight-curve $-1 7.7362877028421266 23.589921064030101 10.091873643581451 0 -1 0 I I #
coedge $-1 $247 $247 $-1 $364 reversed $155 $-1 #
edge $-1 $365 0 $365 6.2831853071796004 $156 $366 forward 7 unknown #
vertex $-1 $159 $367 #
ellipse-curve $-1 16.630245439054875 26.057847364692613 6.7292476913532493 0 0.68199836817093118 0.7313536940579346 1 0 0 1 I I #
face $-1 $-1 $175 $24 $-1 $368 reversed single #
loop $-1 $-1 $267 $160 #
plane-surface $-1 0 29.6638221392258 0 0 -1 0 0 0 -1 forward_v I I I I #
coedge $-1 $369 $265 $268 $370 forward $161 $-1 #
coedge $-1 $271 $163 $164 $259 reversed $100 $-1 #
coedge $-1 $265 $369 $163 $257 reversed $161 $-1 #
edge $-1 $272 -10.091873643581454 $371 10.091873643581454 $256 $372 forward 7 unknown #
coedge $-1 $165 $164 $369 $373 forward $65 $-1 #
edge $-1 $263 -44.652241584521015 $371 44.652241584521015 $255 $374 forward 7 unknown #
coedge $-1 $268 $267 $165 $261 reversed $252 $-1 #
edge $-1 $375 -44.652241584521015 $262 44.652241584521015 $260 $376 forward 7 unknown #
vertex $-1 $167 $377 #
vertex $-1 $274 $378 #
straight-curve $-1 44.652241584521015 0 -10.091873643581454 0 -1 0 I I #
coedge $-1 $254 $256 $168 $266 reversed $161 $-1 #
edge $-1 $269 -29.6638221392258 $272 29.6638221392258 $265 $379 forward 7 unknown #
coedge $-1 $260 $169 $174 $275 forward $252 $-1 #
coedge $-1 $169 $260 $254 $370 reversed $252 $-1 #
vertex $-1 $170 $380 #
straight-curve $-1 0 29.6638221392258 10.091873643581454 -1 0 0 I I #
coedge $-1 $171 $255 $173 $274 reversed $100 $-1 #
vertex $-1 $266 $381 #
straight-curve $-1 0 -29.6638221392258 10.091873643581454 1 0 0 I I #
edge $-1 $176 -10.091873643581454 $263 10.091873643581454 $173 $382 forward 7 unknown #
edge $-1 $177 -10.091873643581454 $262 10.091873643581454 $174 $383 forward 7 unknown #
point $-1 44.652241584521015 -29.6638221392258 10.091873643581454 #
point $-1 44.652241584521015 29.6638221392258 10.091873643581454 #
face $-1 $-1 $291 $25 $-1 $384 reversed single #
loop $-1 $-1 $385 $179 #
plane-surface $-1 -52.765871458453496 0 -3.1231973317270025 1 0 0 0 0 -1 forward_v I I I I #
coedge $-1 $386 $283 $185 $288 reversed $180 $-1 #
coedge $-1 $183 $182 $385 $387 reversed $69 $-1 #
coedge $-1 $281 $388 $182 $284 forward $180 $-1 #
edge $-1 $389 -4.0568149369662407 $286 4.0568149369662407 $182 $390 forward 7 unknown #
edge $-1 $190 -4.0568149369662407 $391 4.0568149369662407 $183 $392 forward 7 unknown #
vertex $-1 $184 $393 #
straight-curve $-1 -44.652241584521015 29.6638221392258 0 0 0 -1 I I #
edge $-1 $292 -29.6638221392258 $286 29.6638221392258 $281 $394 forward 7 unknown #
coedge $-1 $395 $186 $189 $295 reversed $291 $-1 #
coedge $-1 $186 $395 $386 $396 reversed $291 $-1 #
loop $-1 $-1 $186 $278 #
vertex $-1 $187 $397 #
straight-curve $-1 -44.652241584521015 -29.6638221392258 0 0 0 1 I I #
coedge $-1 $189 $188 $398 $399 forward $108 $-1 #
edge $-1 $400 -4.0568149369662407 $191 4.0568149369662407 $289 $401 forward 7 unknown #
point $-1 -44.652241584521015 29.6638221392258 -1.6231973317270025 #
point $-1 -44.652241584521015 -29.6638221392258 -1.6231973317270025 #
face $-1 $-1 $314 $26 $-1 $402 reversed single #
loop $-1 $-1 $403 $193 #
plane-surface $-1 52.765871458453489 0 -3.1231973317270025 -1 0 0 0 0 1 forward_v I I I I #
coedge $-1 $305 $404 $405 $406 forward $194 $-1 #
coedge $-1 $403 $407 $196 $303 reversed $299 $-1 #
edge $-1 $408 -29.6638221392258 $409 29.6638221392258 $302 $410 forward 7 unknown #
coedge $-1 $198 $197 $403 $411 reversed $73 $-1 #
coedge $-1 $310 $301 $197 $306 forward $194 $-1 #
edge $-1 $412 -4.0568149369662407 $308 4.0568149369662407 $197 $413 forward 7 unknown #
edge $-1 $205 -4.0568149369662407 $408 4.0568149369662407 $198 $414 forward 7 unknown #
vertex $-1 $199 $415 #
straight-curve $-1 44.652241584521015 -29.6638221392258 0 0 0 -1 I I #
coedge $-1 $404 $305 $200 $311 reversed $194 $-1 #
edge $-1 $315 -29.6638221392258 $308 29.6638221392258 $310 $416 forward 7 unknown #
coedge $-1 $417 $201 $204 $317 reversed $314 $-1 #
coedge $-1 $201 $417 $404 $418 reversed $314 $-1 #
loop $-1 $-1 $201 $298 #
vertex $-1 $202 $419 #
straight-curve $-1 44.652241584521015 29.6638221392258 0 0 0 1 I I #
edge $-1 $409 -4.0568149369662407 $206 4.0568149369662407 $312 $420 forward 7 unknown #
point $-1 44.652241584521008 -29.6638221392258 -1.6231973317270025 #
point $-1 44.652241584521008 29.6638221392258 -1.6231973317270025 #
loop $-1 $-1 $216 $208 #
plane-surface $-1 0 -29.6638221392258 0 0 1 0 0 0 1 forward_v I I I I #
coedge $-1 $323 $211 $213 $327 reversed $124 $-1 #
coedge $-1 $211 $322 $421 $422 reversed $124 $-1 #
coedge $-1 $219 $214 $211 $325 forward $209 $-1 #
edge $-1 $328 -17.865176276845389 $423 -13.869996918422594 $324 $424 forward 7 unknown #
coedge $-1 $213 $212 $331 $425 reversed $77 $-1 #
edge $-1 $426 9.439443728910611e-015 $328 5.2153363018082564 $322 $427 forward 7 unknown #
vertex $-1 $215 $428 #
straight-curve $-1 -3.5780205256630744 -25.668642780803005 10.091873643581454 -1 0 0 I I #
coedge $-1 $421 $216 $219 $335 reversed $320 $-1 #
coedge $-1 $216 $421 $326 $425 forward $320 $-1 #
vertex $-1 $217 $429 #
straight-curve $-1 3.2415228749728904 -29.6638221392258 37.575361266228249 0 0 1 I I #
straight-curve $-1 3.2415228749728904 -29.663822139225807 6.7395200472268897 0 -0.76604443648966558 -0.64278761758704617 I I #
edge $-1 $423 -17.553604977625188 $220 3.2415228749728904 $330 $430 forward 7 unknown #
point $-1 3.2415228749728904 -29.6638221392258 10.091873643581454 #
point $-1 3.2415228749728904 -25.668642780803005 10.091873643581454 #
edge $-1 $431 1 $431 0 $223 $-1 forward 7 unknown #
vertex $-1 $224 $432 #
ellipse-curve $-1 -11.612139876882885 -25.401871001520931 5.7171359988339674 0 -0.64278761758704617 0.76604443648966558 1 0 0 1 I I #
point $-1 -10.612139876882885 -27.666232460014388 8.4156968454041632 #
edge $-1 $433 1 $433 0 $227 $-1 forward 7 unknown #
vertex $-1 $228 $434 #
ellipse-curve $-1 -2.6999422257694263 -25.401871001520931 5.7171359988339674 0 -0.64278761758704617 0.76604443648966558 1 0 0 1 I I #
point $-1 -1.6999422257694263 -27.666232460014388 8.4156968454041632 #
plane-surface $-1 0 0 10.091873643581454 0 0 1 1 0 0 forward_v I I I I #
coedge $-1 $357 $356 $349 $435 forward $232 $-1 #
coedge $-1 $349 $234 $236 $353 reversed $146 $-1 #
coedge $-1 $234 $348 $347 $435 reversed $146 $-1 #
coedge $-1 $242 $237 $234 $351 forward $243 $-1 #
edge $-1 $354 -1.1380484738706755 $436 6.0739010751956997 $350 $437 forward 7 unknown #
coedge $-1 $236 $235 $357 $438 reversed $91 $-1 #
edge $-1 $439 -59.327644278451579 $354 -49.466547510004716 $348 $440 forward 7 unknown #
vertex $-1 $238 $441 #
straight-curve $-1 8.3151227195274373 22.451872590159425 10.091873643581451 1 0 0 I I #
coedge $-1 $347 $239 $242 $361 reversed $232 $-1 #
coedge $-1 $239 $347 $352 $438 forward $232 $-1 #
vertex $-1 $240 $442 #
straight-curve $-1 7.7362877028421266 29.6638221392258 54.570570993034018 0 0 1 I I #
straight-curve $-1 7.7362877028421266 -13.725669663574848 43.827978324454506 0 0.7313536940579346 -0.68199836817093118 I I #
edge $-1 $436 -25.524203175267623 $244 -7.7362877028421266 $356 $443 forward 7 unknown #
point $-1 7.7362877028421266 29.6638221392258 10.091873643581454 #
point $-1 7.7362877028421266 22.451872590159425 10.091873643581451 #
edge $-1 $444 1 $444 0 $247 $-1 forward 7 unknown #
vertex $-1 $248 $445 #
ellipse-curve $-1 16.630245439054875 24.937515135207551 5.5278384903260962 0 0.68199836817093118 0.7313536940579346 1 0 0 1 I I #
point $-1 17.630245439054875 26.057847364692606 6.7292476913532404 #
plane-surface $-1 44.652241584521015 0 0 -1 0 0 0 0 1 forward_v I I I I #
coedge $-1 $256 $254 $258 $373 reversed $161 $-1 #
edge $-1 $269 -10.091873643581454 $375 10.091873643581454 $268 $446 forward 7 unknown #
vertex $-1 $373 $447 #
straight-curve $-1 -44.652241584521015 -29.6638221392258 0 0 0 -1 I I #
edge $-1 $371 -29.6638221392258 $375 29.6638221392258 $369 $448 forward 7 unknown #
straight-curve $-1 0 -29.6638221392258 -10.091873643581454 -1 0 0 I I #
vertex $-1 $261 $449 #
straight-curve $-1 0 29.6638221392258 -10.091873643581454 1 0 0 I I #
point $-1 44.652241584521015 29.6638221392258 -10.091873643581454 #
point $-1 44.652241584521015 -29.6638221392258 -10.091873643581454 #
straight-curve $-1 -44.652241584521015 0 10.091873643581454 0 -1 0 I I #
point $-1 -44.652241584521015 29.6638221392258 10.091873643581454 #
point $-1 -44.652241584521015 -29.6638221392258 10.091873643581454 #
straight-curve $-1 44.652241584521015 -29.6638221392258 0 0 0 -1 I I #
straight-curve $-1 44.652241584521015 29.6638221392258 0 0 0 -1 I I #
plane-surface $-1 0 -29.6638221392258 0 0 1 0 0 0 1 forward_v I I I I #
coedge $-1 $450 $398 $282 $387 forward $279 $-1 #
coedge $-1 $388 $281 $290 $396 forward $180 $-1 #
edge $-1 $391 -1.5 $389 1.5 $282 $451 forward 7 unknown #
coedge $-1 $283 $386 $450 $452 forward $180 $-1 #
vertex $-1 $284 $453 #
straight-curve $-1 -48.709056521487256 29.6638221392258 -4.6231973317270025 1 0 0 I I #
vertex $-1 $285 $454 #
straight-curve $-1 -48.709056521487256 29.6638221392258 -1.6231973317270025 -1 0 0 I I #
point $-1 -44.652241584521015 29.6638221392258 -4.6231973317270025 #
straight-curve $-1 -44.652241584521015 0 -4.6231973317270025 0 1 0 I I #
coedge $-1 $290 $289 $455 $456 forward $291 $-1 #
edge $-1 $292 -4.0568149369662407 $457 4.0568149369662407 $290 $458 forward 7 unknown #
point $-1 -44.652241584521015 -29.6638221392258 -4.6231973317270025 #
coedge $-1 $385 $455 $294 $399 reversed $279 $-1 #
edge $-1 $391 -29.6638221392258 $400 29.6638221392258 $398 $459 forward 7 unknown #
vertex $-1 $399 $460 #
straight-curve $-1 -48.709056521487256 -29.6638221392258 -1.6231973317270025 1 0 0 I I #
plane-surface $-1 0 29.6638221392258 0 0 -1 0 0 0 -1 forward_v I I I I #
coedge $-1 $405 $302 $304 $411 forward $299 $-1 #
coedge $-1 $301 $310 $313 $418 forward $194 $-1 #
coedge $-1 $407 $403 $301 $406 reversed $299 $-1 #
edge $-1 $461 -29.6638221392258 $412 29.6638221392258 $405 $462 forward 7 unknown #
coedge $-1 $302 $405 $417 $463 reversed $299 $-1 #
vertex $-1 $303 $464 #
vertex $-1 $303 $465 #
straight-curve $-1 52.765871458453489 0 -1.6231973317270025 0 1 0 I I #
edge $-1 $408 -1.5 $412 1.5 $403 $466 forward 7 unknown #
vertex $-1 $411 $467 #
straight-curve $-1 48.709056521487248 -29.6638221392258 -4.6231973317270025 -1 0 0 I I #
straight-curve $-1 48.709056521487248 -29.6638221392258 -1.6231973317270025 1 0 0 I I #
point $-1 44.652241584521008 -29.6638221392258 -4.6231973317270025 #
straight-curve $-1 44.652241584521015 0 -4.6231973317270025 0 -1 0 I I #
coedge $-1 $313 $312 $407 $463 forward $314 $-1 #
edge $-1 $315 -4.0568149369662407 $461 4.0568149369662407 $313 $468 forward 7 unknown #
point $-1 44.652241584521008 29.6638221392258 -4.6231973317270025 #
straight-curve $-1 48.709056521487248 29.6638221392258 -1.6231973317270025 -1 0 0 I I #
coedge $-1 $331 $330 $323 $422 forward $320 $-1 #
edge $-1 $423 27.483487622646795 $426 30.835841219001352 $421 $469 forward 7 unknown #
vertex $-1 $335 $470 #
straight-curve $-1 -17.553604977625188 -43.533819057648394 10.091873643581451 0 -1 0 I I #
edge $-1 $426 -13.975584451962114 $332 6.8195434006359648 $331 $471 forward 7 unknown #
vertex $-1 $425 $472 #
straight-curve $-1 -17.553604977625188 -29.663822139225807 6.7395200472268897 0 0.76604443648966558 0.64278761758704617 I I #
point $-1 -17.553604977625188 -25.668642780803005 10.091873643581454 #
point $-1 3.2415228749728904 -29.6638221392258 6.7395200472268959 #
straight-curve $-1 0 -29.6638221392258 10.091873643581454 1 0 0 I I #
vertex $-1 $338 $473 #
point $-1 -10.612139876882885 -25.401871001520931 5.7171359988339674 #
vertex $-1 $342 $474 #
point $-1 -1.6999422257694263 -25.401871001520931 5.7171359988339674 #
edge $-1 $436 44.47869734945256 $439 51.203949253908974 $347 $475 forward 7 unknown #
vertex $-1 $361 $476 #
straight-curve $-1 25.524203175267623 23.589921064030101 10.091873643581451 0 1 0 I I #
edge $-1 $439 -17.209080455740185 $358 0.57883501668531068 $357 $477 forward 7 unknown #
vertex $-1 $438 $478 #
straight-curve $-1 25.524203175267623 -13.725669663574848 43.827978324454506 0 -0.7313536940579346 0.68199836817093118 I I #
point $-1 25.524203175267623 22.451872590159425 10.091873643581451 #
point $-1 7.7362877028421266 29.6638221392258 3.3666217391250441 #
straight-curve $-1 0 29.6638221392258 10.091873643581454 -1 0 0 I I #
vertex $-1 $364 $479 #
point $-1 17.630245439054875 24.937515135207551 5.5278384903260962 #
straight-curve $-1 -44.652241584521015 29.6638221392258 0 0 0 -1 I I #
point $-1 -44.652241584521015 -29.6638221392258 -10.091873643581454 #
straight-curve $-1 -44.652241584521015 0 -10.091873643581454 0 1 0 I I #
point $-1 -44.652241584521015 29.6638221392258 -10.091873643581454 #
coedge $-1 $455 $385 $388 $452 reversed $279 $-1 #
straight-curve $-1 -52.765871458453496 29.6638221392258 -3.1231973317270025 0 0 -1 I I #
edge $-1 $457 -29.6638221392258 $389 29.6638221392258 $450 $480 forward 7 unknown #
point $-1 -52.765871458453496 29.6638221392258 -4.6231973317270025 #
point $-1 -52.765871458453496 29.6638221392258 -1.6231973317270025 #
coedge $-1 $398 $450 $395 $456 reversed $279 $-1 #
edge $-1 $400 -1.5 $457 1.5 $455 $481 forward 7 unknown #
vertex $-1 $452 $482 #
straight-curve $-1 -48.709056521487256 -29.6638221392258 -4.6231973317270025 -1 0 0 I I #
straight-curve $-1 -52.765871458453496 0 -1.6231973317270025 0 -1 0 I I #
point $-1 -52.765871458453496 -29.6638221392258 -1.6231973317270025 #
vertex $-1 $406 $483 #
straight-curve $-1 52.765871458453489 0 -4.6231973317270025 0 -1 0 I I #
edge $-1 $409 -1.5 $461 1.5 $407 $484 forward 7 unknown #
point $-1 52.765871458453489 -29.6638221392258 -1.6231973317270025 #
point $-1 52.765871458453489 29.6638221392258 -1.6231973317270025 #
straight-curve $-1 52.765871458453489 -29.6638221392258 -3.1231973317270025 0 0 -1 I I #
point $-1 52.765871458453489 -29.6638221392258 -4.6231973317270025 #
straight-curve $-1 48.709056521487248 29.6638221392258 -4.6231973317270025 1 0 0 I I #
straight-curve $-1 -17.553604977625188 -29.6638221392258 37.575361266228249 0 0 -1 I I #
point $-1 -17.553604977625188 -29.6638221392258 10.091873643581454 #
straight-curve $-1 -3.5780205256630744 -29.6638221392258 6.7395200472268968 1 0 0 I I #
point $-1 -17.553604977625188 -29.6638221392258 6.7395200472268959 #
point $-1 -11.612139876882885 -24.759083383933884 4.9510915623443026 #
point $-1 -2.6999422257694263 -24.759083383933884 4.9510915623443026 #
straight-curve $-1 25.524203175267623 29.6638221392258 54.570570993034018 0 0 -1 I I #
point $-1 25.524203175267623 29.6638221392258 10.091873643581454 #
straight-curve $-1 8.3151227195274373 29.663822139225797 3.3666217391250512 -1 0 0 I I #
point $-1 25.524203175267623 29.6638221392258 3.3666217391250441 #
point $-1 16.630245439054875 24.255516767036621 4.7964847962681612 #
straight-curve $-1 -52.765871458453496 0 -4.6231973317270025 0 1 0 I I #
straight-curve $-1 -52.765871458453496 -29.6638221392258 -3.1231973317270025 0 0 -1 I I #
point $-1 -52.765871458453496 -29.6638221392258 -4.6231973317270025 #
point $-1 52.765871458453489 29.6638221392258 -4.6231973317270025 #
straight-curve $-1 52.765871458453489 29.6638221392258 -3.1231973317270025 0 0 -1 I I #
End-of-ACIS-data 