500 0 6 0           
7 Unknown 11 ACIS 5.0 NT 24 Thu Mar 25 17:06:45 1999 
-1 9.9999999999999995e-007 1e-010 
body $-1 $6 $-1 $7 #
body $-1 $8 $-1 $9 #
body $-1 $10 $-1 $11 #
body $-1 $12 $-1 $13 #
body $-1 $14 $-1 $15 #
body $-1 $16 $-1 $17 #
lump $-1 $-1 $18 $0 #
transform $-1 1 0 0 0 1 0 0 0 1 71.456038087099827 32.224455373066363 11.326207162268989 1 rotate no_reflect no_shear #
lump $-1 $-1 $19 $1 #
transform $-1 1 0 0 0 1 0 0 0 1 71.456038087099827 32.224455373066363 11.326207162268989 1 rotate no_reflect no_shear #
lump $-1 $-1 $20 $2 #
transform $-1 1 0 0 0 1 0 0 0 1 71.456038087099827 32.224455373066363 11.326207162268989 1 rotate no_reflect no_shear #
lump $-1 $-1 $21 $3 #
transform $-1 1 0 0 0 1 0 0 0 1 71.456038087099827 32.224455373066363 11.326207162268989 1 rotate no_reflect no_shear #
lump $-1 $-1 $22 $4 #
transform $-1 1 0 0 0 1 0 0 0 1 71.456038087099827 32.224455373066363 11.326207162268989 1 rotate no_reflect no_shear #
lump $-1 $-1 $23 $5 #
transform $-1 1 0 0 0 1 0 0 0 1 71.456038087099827 32.224455373066363 11.326207162268989 1 rotate no_reflect no_shear #
shell $-1 $-1 $-1 $24 $-1 $6 #
shell $-1 $-1 $-1 $25 $-1 $8 #
shell $-1 $-1 $-1 $26 $-1 $10 #
shell $-1 $-1 $-1 $27 $-1 $12 #
shell $-1 $-1 $-1 $28 $-1 $14 #
shell $-1 $-1 $-1 $29 $-1 $16 #
face $-1 $30 $31 $18 $-1 $32 forward single #
face $-1 $33 $34 $19 $-1 $35 reversed single #
face $-1 $36 $37 $20 $-1 $38 reversed single #
face $-1 $39 $40 $21 $-1 $41 forward single #
face $-1 $42 $43 $22 $-1 $44 reversed single #
face $-1 $45 $46 $23 $-1 $47 forward single #
face $-1 $48 $49 $18 $-1 $50 reversed single #
loop $-1 $-1 $51 $24 #
plane-surface $-1 0 0 11.326207162268989 0 0 1 1 0 0 forward_v I I I I #
face $-1 $52 $53 $19 $-1 $54 reversed single #
loop $-1 $-1 $55 $25 #
plane-surface $-1 0 -26.332985286426442 7.6530276514633719 0 0 1 1 0 0 forward_v I I I I #
face $-1 $56 $57 $20 $-1 $58 reversed single #
loop $-1 $-1 $59 $26 #
plane-surface $-1 74.983314870865243 0.64809592249462611 206.64975141203936 0 -1 0 -0.71933980857756763 0 -0.69465836192734942 forward_v I I I I #
face $-1 $60 $61 $21 $-1 $62 forward single #
loop $-1 $63 $64 $27 #
cone-surface $-1 66.458731449582771 -6.2714317487220548 6.2726061796706372 -0.71933980857756763 0 -0.69465836192734942 1.0419875428910241 0 -1.0790097128663514 1 I I 0 1 1.5 forward I I I I #
face $-1 $65 $66 $22 $-1 $67 reversed single #
loop $-1 $-1 $68 $28 #
plane-surface $-1 -174.25838360567136 -13.190959419938736 103.84740589346782 0 1 0 -0.71933980857756763 0 0.69465836192734942 forward_v I I I I #
face $-1 $69 $70 $23 $-1 $71 forward single #
loop $-1 $72 $73 $29 #
cone-surface $-1 -66.458731449582785 -6.2714317487220548 6.2726061796706247 0.71933980857756763 0 -0.69465836192734942 1.0419875428910241 0 1.0790097128663514 1 I I 0 1 1.5 forward I I I I #
face $-1 $74 $75 $18 $-1 $76 reversed single #
loop $-1 $-1 $77 $30 #
plane-surface $-1 0 0 -11.326207162268989 0 0 1 1 0 0 forward_v I I I I #
coedge $-1 $78 $79 $80 $81 forward $31 $-1 #
face $-1 $82 $83 $19 $-1 $84 reversed single #
loop $-1 $-1 $85 $33 #
plane-surface $-1 0 -20.441515199786522 9.4896174068661807 0 -1 0 0 0 -1 forward_v I I I I #
coedge $-1 $86 $87 $88 $89 reversed $34 $-1 #
face $-1 $90 $91 $20 $-1 $92 reversed single #
loop $-1 $-1 $93 $36 #
plane-surface $-1 -27.819030647706299 -6.2714317487220548 107.37468267723325 0.71933980857756763 0 0.69465836192734942 0.69465836192734942 0 -0.71933980857756763 forward_v I I I I #
coedge $-1 $94 $95 $96 $97 reversed $37 $-1 #
face $-1 $-1 $98 $21 $-1 $99 forward single #
loop $-1 $100 $101 $39 #
cone-surface $-1 64.182988102725247 -6.2714317487220548 4.074946427430401 -0.71933980857756763 0 -0.69465836192734942 0.52099377144551207 0 -0.53950485643317569 1 I I -0.70710678118654757 0.70710678118654757 0.75 forward I I I I #
loop $-1 $-1 $102 $27 #
coedge $-1 $64 $64 $103 $104 reversed $40 $-1 #
face $-1 $105 $106 $22 $-1 $107 reversed single #
loop $-1 $-1 $108 $42 #
plane-surface $-1 -71.456038087099813 -6.2714317487220548 4.5723371586617105 -0.71933980857756763 0 0.69465836192734942 0.69465836192734942 0 0.71933980857756763 forward_v I I I I #
coedge $-1 $109 $110 $111 $112 reversed $43 $-1 #
face $-1 $-1 $113 $23 $-1 $114 forward single #
loop $-1 $115 $116 $45 #
cone-surface $-1 -64.182988102725261 -6.2714317487220548 4.0749464274303886 0.71933980857756763 0 -0.69465836192734942 0.52099377144551207 0 0.53950485643317569 1 I I -0.70710678118654757 0.70710678118654757 0.75 forward I I I I #
loop $-1 $-1 $117 $29 #
coedge $-1 $73 $73 $118 $119 reversed $46 $-1 #
face $-1 $120 $121 $18 $-1 $122 reversed single #
loop $-1 $-1 $123 $48 #
plane-surface $-1 0 -32.224455373066363 0 0 1 0 0 0 1 forward_v I I I I #
coedge $-1 $124 $125 $126 $127 forward $49 $-1 #
coedge $-1 $128 $51 $129 $130 forward $31 $-1 #
coedge $-1 $51 $128 $131 $132 forward $31 $-1 #
coedge $-1 $133 $134 $51 $81 reversed $135 $-1 #
edge $-1 $136 -32.224455373066363 $137 32.224455373066363 $80 $138 forward 7 unknown #
face $-1 $139 $140 $19 $-1 $141 reversed single #
loop $-1 $-1 $142 $52 #
plane-surface $-1 -71.456038087099827 0 0 1 0 0 0 0 -1 forward_v I I I I #
coedge $-1 $143 $144 $145 $146 reversed $53 $-1 #
coedge $-1 $147 $55 $148 $149 reversed $34 $-1 #
coedge $-1 $55 $147 $143 $150 forward $34 $-1 #
coedge $-1 $145 $151 $55 $89 forward $152 $-1 #
edge $-1 $153 -19.057962729853141 $154 -7.2750225565733011 $88 $155 forward 7 unknown #
face $-1 $156 $157 $20 $-1 $158 reversed single #
loop $-1 $-1 $159 $56 #
plane-surface $-1 74.983314870865243 -13.190959419938736 206.64975141203936 0 1 0 0.71933980857756763 0 0.69465836192734942 forward_v I I I I #
coedge $-1 $160 $161 $162 $163 reversed $57 $-1 #
coedge $-1 $95 $59 $164 $165 reversed $37 $-1 #
coedge $-1 $59 $94 $160 $166 reversed $37 $-1 #
coedge $-1 $162 $167 $59 $97 forward $168 $-1 #
edge $-1 $169 -33.964380651667206 $170 -27.442244357481847 $96 $171 forward 7 unknown #
loop $-1 $-1 $103 $60 #
plane-surface $-1 -27.819030647706299 -6.2714317487220548 107.37468267723325 0.71933980857756763 0 0.69465836192734942 0.69465836192734942 0 -0.71933980857756763 forward_v I I I I #
loop $-1 $-1 $172 $39 #
coedge $-1 $101 $101 $102 $173 reversed $61 $-1 #
coedge $-1 $102 $102 $101 $173 forward $63 $-1 #
coedge $-1 $103 $103 $64 $104 forward $98 $-1 #
edge $-1 $174 0 $174 6.2831853071796004 $103 $175 forward 7 unknown #
face $-1 $176 $177 $22 $-1 $178 forward single #
loop $-1 $-1 $179 $65 #
plane-surface $-1 -174.25838360567136 0.64809592249462611 103.84740589346782 0 -1 0 0.71933980857756763 0 -0.69465836192734942 forward_v I I I I #
coedge $-1 $180 $181 $182 $183 reversed $66 $-1 #
coedge $-1 $110 $68 $184 $185 reversed $43 $-1 #
coedge $-1 $68 $109 $180 $186 reversed $43 $-1 #
coedge $-1 $182 $187 $68 $112 forward $177 $-1 #
edge $-1 $188 15.67315371573585 $189 22.195290009921209 $111 $190 forward 7 unknown #
loop $-1 $-1 $118 $69 #
plane-surface $-1 -71.456038087099813 -6.2714317487220548 4.5723371586617105 -0.71933980857756763 0 0.69465836192734942 0.69465836192734942 0 0.71933980857756763 forward_v I I I I #
loop $-1 $-1 $191 $45 #
coedge $-1 $116 $116 $117 $192 reversed $70 $-1 #
coedge $-1 $117 $117 $116 $192 forward $72 $-1 #
coedge $-1 $118 $118 $73 $119 forward $113 $-1 #
edge $-1 $193 0 $193 6.2831853071796004 $118 $194 forward 7 unknown #
face $-1 $195 $196 $18 $-1 $197 reversed single #
loop $-1 $-1 $198 $74 #
plane-surface $-1 -71.456038087099827 0 0 1 0 0 0 0 -1 forward_v I I I I #
coedge $-1 $199 $131 $200 $201 forward $75 $-1 #
coedge $-1 $202 $77 $199 $203 forward $49 $-1 #
coedge $-1 $77 $202 $204 $205 forward $49 $-1 #
coedge $-1 $134 $133 $77 $127 reversed $135 $-1 #
edge $-1 $206 -32.224455373066363 $207 32.224455373066363 $126 $208 forward 7 unknown #
coedge $-1 $79 $78 $209 $210 forward $31 $-1 #
coedge $-1 $211 $212 $78 $130 reversed $196 $-1 #
edge $-1 $137 -71.456038087099827 $213 71.456038087099827 $129 $214 forward 7 unknown #
coedge $-1 $123 $215 $79 $132 reversed $75 $-1 #
edge $-1 $216 -71.456038087099827 $136 71.456038087099827 $131 $217 forward 7 unknown #
coedge $-1 $126 $80 $215 $218 forward $135 $-1 #
coedge $-1 $80 $126 $211 $219 reversed $135 $-1 #
loop $-1 $-1 $133 $195 #
vertex $-1 $81 $220 #
vertex $-1 $81 $221 #
straight-curve $-1 71.456038087099827 0 11.326207162268989 0 1 0 I I #
face $-1 $222 $223 $19 $-1 $224 forward single #
loop $-1 $-1 $148 $82 #
plane-surface $-1 0 -32.224455373066363 0 0 1 0 0 0 1 forward_v I I I I #
coedge $-1 $225 $226 $227 $228 forward $83 $-1 #
coedge $-1 $227 $85 $87 $150 reversed $53 $-1 #
coedge $-1 $85 $227 $229 $230 reversed $53 $-1 #
coedge $-1 $231 $88 $85 $146 forward $152 $-1 #
edge $-1 $154 2.9082189480302816 $232 6.5813984588358991 $145 $233 forward 7 unknown #
coedge $-1 $87 $86 $225 $234 reversed $34 $-1 #
coedge $-1 $235 $236 $86 $149 forward $140 $-1 #
edge $-1 $237 -71.456038087099827 $153 71.456038087099827 $148 $238 forward 7 unknown #
edge $-1 $239 -71.456038087099827 $154 71.456038087099827 $143 $240 forward 7 unknown #
coedge $-1 $88 $231 $235 $241 forward $152 $-1 #
loop $-1 $-1 $145 $222 #
vertex $-1 $149 $242 #
vertex $-1 $89 $243 #
straight-curve $-1 71.456038087099827 -13.166492643213221 7.6530276514633719 0 1 0 I I #
face $-1 $-1 $168 $20 $-1 $244 forward single #
loop $-1 $-1 $245 $90 #
plane-surface $-1 71.456038087099827 0 0 -1 0 0 0 0 1 forward_v I I I I #
coedge $-1 $246 $247 $248 $249 reversed $91 $-1 #
coedge $-1 $250 $93 $95 $166 forward $57 $-1 #
coedge $-1 $93 $250 $246 $251 forward $57 $-1 #
coedge $-1 $248 $96 $93 $163 forward $168 $-1 #
edge $-1 $170 -3.7838117968556535 $252 10.055243545577708 $162 $253 forward 7 unknown #
coedge $-1 $254 $255 $94 $165 forward $157 $-1 #
edge $-1 $256 -98.752538547358 $169 -91.998668543750696 $164 $257 forward 7 unknown #
edge $-1 $170 133.52309210426131 $256 142.91207617419968 $95 $258 forward 7 unknown #
coedge $-1 $96 $248 $254 $259 forward $168 $-1 #
loop $-1 $-1 $248 $156 #
vertex $-1 $165 $260 #
vertex $-1 $97 $261 #
straight-curve $-1 37.491657435432622 0.64809592249462611 11.326207162268986 -1 0 0 I I #
coedge $-1 $172 $172 $-1 $262 reversed $100 $-1 #
edge $-1 $263 0 $263 6.2831853071796004 $101 $264 forward 7 unknown #
vertex $-1 $104 $265 #
ellipse-curve $-1 68.194969940007127 -6.2714317487220548 7.9492721604653669 0.71933980857756763 0 0.69465836192734942 1.0419875428910241 0 -1.0790097128663514 1 I I #
face $-1 $-1 $266 $22 $-1 $267 reversed single #
loop $-1 $-1 $111 $105 #
plane-surface $-1 0 0 11.326207162268989 0 0 1 1 0 0 forward_v I I I I #
coedge $-1 $268 $269 $270 $271 reversed $106 $-1 #
coedge $-1 $272 $108 $110 $186 forward $66 $-1 #
coedge $-1 $108 $272 $268 $273 forward $66 $-1 #
coedge $-1 $270 $111 $108 $183 forward $177 $-1 #
edge $-1 $189 -10.055243545577708 $274 3.7838117968556535 $182 $275 forward 7 unknown #
coedge $-1 $276 $277 $109 $185 forward $266 $-1 #
edge $-1 $278 -47.351365788072215 $188 -40.597495784464925 $184 $279 forward 7 unknown #
edge $-1 $189 -9.3889840699383402 $278 2.0733024663016622e-014 $110 $280 forward 7 unknown #
coedge $-1 $111 $270 $276 $281 forward $177 $-1 #
vertex $-1 $185 $282 #
vertex $-1 $112 $283 #
straight-curve $-1 -87.129191802835678 -13.190959419938736 11.326207162268986 1 0 0 I I #
coedge $-1 $191 $191 $-1 $284 reversed $115 $-1 #
edge $-1 $285 0 $285 6.2831853071796004 $116 $286 forward 7 unknown #
vertex $-1 $119 $287 #
ellipse-curve $-1 -68.194969940007141 -6.2714317487220548 7.9492721604653491 -0.71933980857756763 0 0.69465836192734942 1.0419875428910241 0 1.0790097128663514 1 I I #
face $-1 $-1 $135 $18 $-1 $288 reversed single #
loop $-1 $-1 $211 $120 #
plane-surface $-1 0 32.224455373066363 0 0 -1 0 0 0 -1 forward_v I I I I #
coedge $-1 $289 $209 $212 $290 forward $121 $-1 #
coedge $-1 $215 $123 $124 $203 reversed $75 $-1 #
coedge $-1 $209 $289 $123 $201 reversed $121 $-1 #
edge $-1 $216 -11.326207162268989 $291 11.326207162268989 $200 $292 forward 7 unknown #
coedge $-1 $125 $124 $289 $293 forward $49 $-1 #
edge $-1 $207 -71.456038087099827 $291 71.456038087099827 $199 $294 forward 7 unknown #
coedge $-1 $212 $211 $125 $205 reversed $196 $-1 #
edge $-1 $295 -71.456038087099827 $206 71.456038087099827 $204 $296 forward 7 unknown #
vertex $-1 $127 $297 #
vertex $-1 $218 $298 #
straight-curve $-1 71.456038087099827 0 -11.326207162268989 0 -1 0 I I #
coedge $-1 $198 $200 $128 $210 reversed $121 $-1 #
edge $-1 $213 -32.224455373066363 $216 32.224455373066363 $209 $299 forward 7 unknown #
coedge $-1 $204 $129 $134 $219 forward $196 $-1 #
coedge $-1 $129 $204 $198 $290 reversed $196 $-1 #
vertex $-1 $130 $300 #
straight-curve $-1 0 32.224455373066363 11.326207162268989 -1 0 0 I I #
coedge $-1 $131 $199 $133 $218 reversed $75 $-1 #
vertex $-1 $210 $301 #
straight-curve $-1 0 -32.224455373066363 11.326207162268989 1 0 0 I I #
edge $-1 $136 -11.326207162268989 $207 11.326207162268989 $133 $302 forward 7 unknown #
edge $-1 $137 -11.326207162268989 $206 11.326207162268989 $134 $303 forward 7 unknown #
point $-1 71.456038087099827 -32.224455373066363 11.326207162268989 #
point $-1 71.456038087099827 32.224455373066363 11.326207162268989 #
face $-1 $-1 $152 $19 $-1 $304 reversed single #
loop $-1 $-1 $229 $139 #
plane-surface $-1 0 0 11.326207162268989 0 0 1 1 0 0 forward_v I I I I #
coedge $-1 $305 $142 $147 $234 forward $83 $-1 #
coedge $-1 $142 $305 $306 $307 reversed $83 $-1 #
coedge $-1 $144 $143 $142 $228 reversed $53 $-1 #
edge $-1 $308 -6.5813984588358991 $239 -2.9082189480302816 $142 $309 forward 7 unknown #
coedge $-1 $306 $310 $144 $230 forward $223 $-1 #
edge $-1 $232 -71.456038087099827 $308 71.456038087099827 $229 $311 forward 7 unknown #
coedge $-1 $151 $145 $310 $312 reversed $152 $-1 #
vertex $-1 $146 $313 #
straight-curve $-1 71.456038087099827 -20.441515199786522 4.7448087034330904 0 0 1 I I #
edge $-1 $239 7.2750225565733011 $237 19.057962729853141 $225 $314 forward 7 unknown #
coedge $-1 $315 $148 $151 $241 reversed $140 $-1 #
coedge $-1 $148 $315 $305 $316 forward $140 $-1 #
vertex $-1 $149 $317 #
straight-curve $-1 0 -32.224455373066363 7.6530276514633719 1 0 0 I I #
vertex $-1 $234 $318 #
straight-curve $-1 0 -20.441515199786522 7.6530276514633719 1 0 0 I I #
edge $-1 $319 -11.326207162268989 $153 -7.6530276514633719 $151 $320 forward 7 unknown #
point $-1 71.456038087099827 -32.224455373066363 7.6530276514633719 #
point $-1 71.456038087099827 -20.441515199786522 7.6530276514633719 #
plane-surface $-1 0 0 11.326207162268989 0 0 1 1 0 0 forward_v I I I I #
coedge $-1 $255 $254 $247 $321 forward $157 $-1 #
coedge $-1 $247 $159 $161 $251 reversed $91 $-1 #
coedge $-1 $159 $246 $245 $321 reversed $91 $-1 #
coedge $-1 $167 $162 $159 $249 forward $168 $-1 #
edge $-1 $252 27.442244357481847 $322 33.964380651667206 $248 $323 forward 7 unknown #
coedge $-1 $161 $160 $255 $324 reversed $57 $-1 #
edge $-1 $325 -142.91207617419968 $252 -133.52309210426131 $246 $326 forward 7 unknown #
vertex $-1 $163 $327 #
straight-curve $-1 64.933901792914455 -3.1357158743610274 11.326207162268986 0 -1 0 I I #
coedge $-1 $245 $164 $167 $259 reversed $157 $-1 #
coedge $-1 $164 $245 $250 $324 forward $157 $-1 #
vertex $-1 $165 $328 #
straight-curve $-1 71.456038087099827 0.64809592249462611 103.32487570601968 0 0 1 I I #
straight-curve $-1 -27.819030647706299 0.64809592249462611 107.37468267723325 0.69465836192734942 0 -0.71933980857756763 I I #
edge $-1 $322 -13.190959419938736 $169 0.64809592249462611 $254 $329 forward 7 unknown #
point $-1 71.456038087099827 0.64809592249462611 11.326207162268989 #
point $-1 64.933901792914469 0.64809592249462611 11.326207162268986 #
edge $-1 $330 1 $330 0 $172 $-1 forward 7 unknown #
vertex $-1 $173 $331 #
ellipse-curve $-1 64.722492959158416 -6.2714317487220548 4.5959401988759128 0.71933980857756763 0 0.69465836192734942 1.0419875428910241 0 -1.0790097128663514 1 I I #
point $-1 69.236957482898163 -6.2714317487220548 6.8702624475990088 #
loop $-1 $-1 $184 $176 #
plane-surface $-1 -71.456038087099827 0 0 1 0 0 0 0 -1 forward_v I I I I #
coedge $-1 $269 $179 $181 $273 reversed $106 $-1 #
coedge $-1 $179 $268 $332 $333 reversed $106 $-1 #
coedge $-1 $187 $182 $179 $271 forward $177 $-1 #
edge $-1 $274 -22.195290009921209 $334 -15.67315371573585 $270 $335 forward 7 unknown #
coedge $-1 $181 $180 $277 $336 reversed $66 $-1 #
edge $-1 $337 -2.0733024663016622e-014 $274 9.3889840699383402 $268 $338 forward 7 unknown #
vertex $-1 $183 $339 #
straight-curve $-1 -64.933901792914469 -3.1357158743610274 11.326207162268991 0 1 0 I I #
coedge $-1 $332 $184 $187 $281 reversed $266 $-1 #
coedge $-1 $184 $332 $272 $336 forward $266 $-1 #
vertex $-1 $185 $340 #
straight-curve $-1 -71.456038087099827 -13.190959419938736 51.923702946733911 0 0 1 I I #
straight-curve $-1 -71.456038087099813 -13.190959419938736 4.5723371586617105 -0.69465836192734942 0 -0.71933980857756763 I I #
edge $-1 $334 -0.64809592249462611 $188 13.190959419938736 $276 $341 forward 7 unknown #
point $-1 -71.456038087099827 -13.190959419938736 11.326207162268989 #
point $-1 -64.933901792914469 -13.190959419938736 11.326207162268989 #
edge $-1 $342 1 $342 0 $191 $-1 forward 7 unknown #
vertex $-1 $192 $343 #
ellipse-curve $-1 -64.72249295915843 -6.2714317487220548 4.5959401988759003 -0.71933980857756763 0 0.69465836192734942 1.0419875428910241 0 1.0790097128663514 1 I I #
point $-1 -67.152982397116119 -6.2714317487220548 9.0282818733316983 #
plane-surface $-1 71.456038087099827 0 0 -1 0 0 0 0 1 forward_v I I I I #
coedge $-1 $200 $198 $202 $293 reversed $121 $-1 #
edge $-1 $213 -11.326207162268989 $295 11.326207162268989 $212 $344 forward 7 unknown #
vertex $-1 $293 $345 #
straight-curve $-1 -71.456038087099827 -32.224455373066363 0 0 0 -1 I I #
edge $-1 $291 -32.224455373066363 $295 32.224455373066363 $289 $346 forward 7 unknown #
straight-curve $-1 0 -32.224455373066363 -11.326207162268989 -1 0 0 I I #
vertex $-1 $205 $347 #
straight-curve $-1 0 32.224455373066363 -11.326207162268989 1 0 0 I I #
point $-1 71.456038087099827 32.224455373066363 -11.326207162268989 #
point $-1 71.456038087099827 -32.224455373066363 -11.326207162268989 #
straight-curve $-1 -71.456038087099827 0 11.326207162268989 0 -1 0 I I #
point $-1 -71.456038087099827 32.224455373066363 11.326207162268989 #
point $-1 -71.456038087099827 -32.224455373066363 11.326207162268989 #
straight-curve $-1 71.456038087099827 -32.224455373066363 0 0 0 -1 I I #
straight-curve $-1 71.456038087099827 32.224455373066363 0 0 0 -1 I I #
plane-surface $-1 71.456038087099827 0 0 -1 0 0 0 0 1 forward_v I I I I #
coedge $-1 $226 $225 $236 $316 reversed $83 $-1 #
coedge $-1 $348 $229 $226 $307 forward $223 $-1 #
edge $-1 $308 20.441515199786522 $349 32.224455373066363 $226 $350 forward 7 unknown #
vertex $-1 $307 $351 #
straight-curve $-1 -71.456038087099827 -20.441515199786522 4.7448087034330904 0 0 -1 I I #
coedge $-1 $229 $348 $231 $312 forward $223 $-1 #
straight-curve $-1 0 -20.441515199786522 11.326207162268989 -1 0 0 I I #
edge $-1 $319 -32.224455373066363 $232 -20.441515199786522 $231 $352 forward 7 unknown #
point $-1 71.456038087099827 -20.441515199786522 11.326207162268989 #
straight-curve $-1 -71.456038087099827 -13.166492643213221 7.6530276514633719 0 -1 0 I I #
coedge $-1 $236 $235 $348 $353 reversed $140 $-1 #
edge $-1 $349 -11.326207162268989 $237 -7.6530276514633719 $305 $354 forward 7 unknown #
point $-1 -71.456038087099827 -32.224455373066363 7.6530276514633719 #
point $-1 -71.456038087099827 -20.441515199786522 7.6530276514633719 #
vertex $-1 $312 $355 #
straight-curve $-1 71.456038087099827 -32.224455373066363 0 0 0 -1 I I #
edge $-1 $322 91.998668543750696 $325 98.752538547358 $245 $356 forward 7 unknown #
vertex $-1 $259 $357 #
straight-curve $-1 37.491657435432622 -13.190959419938736 11.326207162268986 1 0 0 I I #
edge $-1 $325 -10.055243545577708 $256 3.7838117968556535 $255 $358 forward 7 unknown #
vertex $-1 $324 $359 #
straight-curve $-1 -27.819030647706299 -13.190959419938736 107.37468267723325 -0.69465836192734942 0 0.71933980857756763 I I #
point $-1 64.933901792914469 -13.190959419938736 11.326207162268986 #
point $-1 71.456038087099842 0.64809592249462611 4.5723371586616821 #
straight-curve $-1 71.456038087099827 0 11.326207162268989 0 1 0 I I #
vertex $-1 $262 $360 #
point $-1 65.764480502049452 -6.2714317487220548 3.5169304860095618 #
coedge $-1 $277 $276 $269 $333 forward $266 $-1 #
edge $-1 $334 40.597495784464925 $337 47.351365788072215 $332 $361 forward 7 unknown #
vertex $-1 $281 $362 #
straight-curve $-1 -87.129191802835678 0.64809592249462611 11.326207162268986 -1 0 0 I I #
edge $-1 $337 -3.7838117968556535 $278 10.055243545577708 $277 $363 forward 7 unknown #
vertex $-1 $336 $364 #
straight-curve $-1 -71.456038087099813 0.64809592249462611 4.5723371586617105 0.69465836192734942 0 0.71933980857756763 I I #
point $-1 -64.933901792914469 0.64809592249462611 11.326207162268989 #
point $-1 -71.456038087099827 -13.190959419938736 4.5723371586616954 #
straight-curve $-1 -71.456038087099827 0 11.326207162268989 0 -1 0 I I #
vertex $-1 $284 $365 #
point $-1 -63.680505416267415 -6.2714317487220548 5.6749499117422522 #
straight-curve $-1 -71.456038087099827 32.224455373066363 0 0 0 -1 I I #
point $-1 -71.456038087099827 -32.224455373066363 -11.326207162268989 #
straight-curve $-1 -71.456038087099827 0 -11.326207162268989 0 1 0 I I #
point $-1 -71.456038087099827 32.224455373066363 -11.326207162268989 #
coedge $-1 $310 $306 $315 $353 forward $223 $-1 #
vertex $-1 $307 $366 #
straight-curve $-1 -71.456038087099827 0 11.326207162268989 0 -1 0 I I #
point $-1 -71.456038087099827 -20.441515199786522 11.326207162268989 #
straight-curve $-1 71.456038087099827 0 11.326207162268989 0 1 0 I I #
edge $-1 $349 -71.456038087099827 $319 71.456038087099827 $315 $367 forward 7 unknown #
straight-curve $-1 -71.456038087099827 -32.224455373066363 0 0 0 -1 I I #
point $-1 71.456038087099827 -32.224455373066363 11.326207162268989 #
straight-curve $-1 71.456038087099827 -13.190959419938736 103.32487570601968 0 0 -1 I I #
point $-1 71.456038087099827 -13.190959419938736 11.326207162268989 #
straight-curve $-1 71.456038087099827 -3.1357158743610274 4.5723371586617034 0 1 0 I I #
point $-1 71.456038087099842 -13.190959419938736 4.5723371586616821 #
point $-1 63.643483246292071 -6.2714317487220548 3.5539526559848889 #
straight-curve $-1 -71.456038087099827 0.64809592249462611 51.923702946733911 0 0 -1 I I #
point $-1 -71.456038087099827 0.64809592249462611 11.326207162268989 #
straight-curve $-1 -71.456038087099827 -3.1357158743610274 4.572337158661691 0 -1 0 I I #
point $-1 -71.456038087099827 0.64809592249462611 4.5723371586616954 #
point $-1 -63.643483246292085 -6.2714317487220548 3.5539526559848764 #
point $-1 -71.456038087099827 -32.224455373066363 11.326207162268989 #
straight-curve $-1 0 -32.224455373066363 11.326207162268989 1 0 0 I I #
End-of-ACIS-data 