500 0 6 0           
7 Unknown 11 ACIS 5.0 NT 24 Fri Mar 26 17:26:08 1999 
-1 9.9999999999999995e-007 1e-010 
body $-1 $6 $-1 $7 #
body $-1 $8 $-1 $9 #
body $-1 $10 $-1 $11 #
body $-1 $12 $-1 $13 #
body $-1 $14 $-1 $15 #
body $-1 $16 $-1 $17 #
lump $-1 $-1 $18 $0 #
transform $-1 1 0 0 0 1 0 0 0 1 74.544511246070741 44.610227394152687 18.117467637270007 1 rotate no_reflect no_shear #
lump $-1 $-1 $19 $1 #
transform $-1 1 0 0 0 1 0 0 0 1 74.544511246070741 44.610227394152687 18.117467637270007 1 rotate no_reflect no_shear #
lump $-1 $-1 $20 $2 #
transform $-1 1 0 0 0 1 0 0 0 1 74.544511246070741 44.610227394152687 18.117467637270007 1 rotate no_reflect no_shear #
lump $-1 $-1 $21 $3 #
transform $-1 1 0 0 0 1 0 0 0 1 74.544511246070741 44.610227394152687 18.117467637270007 1 rotate no_reflect no_shear #
lump $-1 $-1 $22 $4 #
transform $-1 1 0 0 0 1 0 0 0 1 74.544511246070741 44.610227394152687 18.117467637270007 1 rotate no_reflect no_shear #
lump $-1 $-1 $23 $5 #
transform $-1 1 0 0 0 1 0 0 0 1 74.544511246070741 44.610227394152687 18.117467637270007 1 rotate no_reflect no_shear #
shell $-1 $-1 $-1 $24 $-1 $6 #
shell $-1 $-1 $-1 $25 $-1 $8 #
shell $-1 $-1 $-1 $26 $-1 $10 #
shell $-1 $-1 $-1 $27 $-1 $12 #
shell $-1 $-1 $-1 $28 $-1 $14 #
shell $-1 $-1 $-1 $29 $-1 $16 #
face $-1 $30 $31 $18 $-1 $32 forward single #
face $-1 $33 $34 $19 $-1 $35 forward single #
face $-1 $36 $37 $20 $-1 $38 reversed single #
face $-1 $39 $40 $21 $-1 $41 forward single #
face $-1 $42 $43 $22 $-1 $44 forward single #
face $-1 $45 $46 $23 $-1 $47 forward single #
face $-1 $48 $49 $18 $-1 $50 reversed single #
loop $-1 $-1 $51 $24 #
plane-surface $-1 0 0 18.117467637270007 0 0 1 1 0 0 forward_v I I I I #
face $-1 $52 $53 $19 $-1 $54 reversed single #
loop $-1 $-1 $55 $25 #
plane-surface $-1 -74.544511246070741 0 0 1 0 0 0 0 -1 forward_v I I I I #
face $-1 $56 $57 $20 $-1 $58 reversed single #
loop $-1 $-1 $59 $26 #
plane-surface $-1 63.509805947276746 -19.195058485023814 213.71648149785386 0 -1 0 -0.66913061440640931 0 -0.74314481823134659 forward_v I I I I #
face $-1 $60 $61 $21 $-1 $62 forward single #
loop $-1 $63 $64 $27 #
cone-surface $-1 65.904924626457145 -26.682965546025429 10.268020287631627 -0.66913061440640931 0 -0.74314481823134659 0.3715724091156733 0 -0.33456530720320465 1 I I 0 1 0.5 forward I I I I #
face $-1 $65 $66 $22 $-1 $67 forward single #
loop $-1 $68 $69 $28 #
cone-surface $-1 65.904924626457145 -23.875000398149822 10.268020287631627 -0.66913061440640931 0 -0.74314481823134659 0.3715724091156733 0 -0.33456530720320465 1 I I 0 1 0.5 forward I I I I #
face $-1 $70 $71 $23 $-1 $72 forward single #
loop $-1 $73 $74 $29 #
cone-surface $-1 65.904924626457145 -21.067035250274216 10.268020287631627 -0.66913061440640931 0 -0.74314481823134659 0.3715724091156733 0 -0.33456530720320465 1 I I 0 1 0.5 forward I I I I #
face $-1 $75 $76 $18 $-1 $77 reversed single #
loop $-1 $-1 $78 $30 #
plane-surface $-1 0 0 -18.117467637270007 0 0 1 1 0 0 forward_v I I I I #
coedge $-1 $79 $80 $81 $82 forward $31 $-1 #
face $-1 $83 $84 $19 $-1 $85 forward single #
loop $-1 $-1 $86 $33 #
plane-surface $-1 0 44.610227394152687 0 0 -1 0 0 0 -1 forward_v I I I I #
coedge $-1 $87 $88 $89 $90 forward $34 $-1 #
face $-1 $91 $92 $20 $-1 $93 reversed single #
loop $-1 $-1 $94 $36 #
plane-surface $-1 -36.250223274140865 -23.875000398149822 102.92174697764224 0.66913061440640931 0 0.74314481823134659 0.74314481823134659 0 -0.66913061440640931 forward_v I I I I #
coedge $-1 $95 $96 $97 $98 reversed $37 $-1 #
face $-1 $-1 $99 $21 $-1 $100 forward single #
loop $-1 $101 $102 $39 #
cone-surface $-1 65.403076665652335 -26.682965546025429 9.7106616739581177 -0.66913061440640931 0 -0.74314481823134659 0.18578620455783665 0 -0.16728265360160233 1 I I -0.70710678118654746 0.70710678118654746 0.25 forward I I I I #
loop $-1 $-1 $103 $27 #
coedge $-1 $64 $64 $104 $105 reversed $40 $-1 #
face $-1 $-1 $106 $22 $-1 $107 forward single #
loop $-1 $108 $109 $42 #
cone-surface $-1 65.403076665652335 -23.875000398149822 9.7106616739581177 -0.66913061440640931 0 -0.74314481823134659 0.18578620455783665 0 -0.16728265360160233 1 I I -0.70710678118654746 0.70710678118654746 0.25 forward I I I I #
loop $-1 $-1 $110 $28 #
coedge $-1 $69 $69 $111 $112 reversed $43 $-1 #
face $-1 $-1 $113 $23 $-1 $114 forward single #
loop $-1 $115 $116 $45 #
cone-surface $-1 65.403076665652335 -21.067035250274216 9.7106616739581177 -0.66913061440640931 0 -0.74314481823134659 0.18578620455783665 0 -0.16728265360160233 1 I I -0.70710678118654746 0.70710678118654746 0.25 forward I I I I #
loop $-1 $-1 $117 $29 #
coedge $-1 $74 $74 $118 $119 reversed $46 $-1 #
face $-1 $120 $121 $18 $-1 $122 reversed single #
loop $-1 $-1 $123 $48 #
plane-surface $-1 0 -44.610227394152687 0 0 1 0 0 0 1 forward_v I I I I #
coedge $-1 $124 $125 $126 $127 forward $49 $-1 #
coedge $-1 $128 $51 $129 $130 forward $31 $-1 #
coedge $-1 $51 $128 $131 $132 forward $31 $-1 #
coedge $-1 $133 $134 $51 $82 reversed $135 $-1 #
edge $-1 $136 -44.610227394152687 $137 44.610227394152687 $81 $138 forward 7 unknown #
face $-1 $139 $140 $19 $-1 $141 reversed single #
loop $-1 $-1 $89 $52 #
plane-surface $-1 -86.006652908013223 0 12.955270205729542 0 0 1 1 0 0 forward_v I I I I #
coedge $-1 $142 $143 $88 $144 forward $53 $-1 #
coedge $-1 $145 $55 $146 $147 reversed $34 $-1 #
coedge $-1 $55 $145 $86 $144 reversed $34 $-1 #
coedge $-1 $148 $149 $55 $90 reversed $84 $-1 #
edge $-1 $150 -44.610227394152687 $151 44.610227394152687 $89 $152 forward 7 unknown #
face $-1 $153 $154 $20 $-1 $155 forward single #
loop $-1 $-1 $156 $56 #
plane-surface $-1 63.509805947276746 -28.55494231127583 213.71648149785386 0 1 0 0.66913061440640931 0 0.74314481823134659 forward_v I I I I #
coedge $-1 $157 $158 $159 $160 reversed $57 $-1 #
coedge $-1 $96 $59 $161 $162 reversed $37 $-1 #
coedge $-1 $59 $95 $157 $163 reversed $37 $-1 #
coedge $-1 $159 $164 $59 $98 forward $154 $-1 #
edge $-1 $165 -42.789608272432368 $166 -26.179565647611646 $97 $167 forward 7 unknown #
loop $-1 $-1 $104 $60 #
plane-surface $-1 -36.250223274140865 -23.875000398149822 102.92174697764224 0.66913061440640931 0 0.74314481823134659 0.74314481823134659 0 -0.66913061440640931 forward_v I I I I #
loop $-1 $-1 $168 $39 #
coedge $-1 $102 $102 $103 $169 reversed $61 $-1 #
coedge $-1 $103 $103 $102 $169 forward $63 $-1 #
coedge $-1 $104 $104 $64 $105 forward $99 $-1 #
edge $-1 $170 0 $170 6.2831853071796004 $104 $171 forward 7 unknown #
loop $-1 $-1 $111 $65 #
plane-surface $-1 -36.250223274140865 -23.875000398149822 102.92174697764224 0.66913061440640931 0 0.74314481823134659 0.74314481823134659 0 -0.66913061440640931 forward_v I I I I #
loop $-1 $-1 $172 $42 #
coedge $-1 $109 $109 $110 $173 reversed $66 $-1 #
coedge $-1 $110 $110 $109 $173 forward $68 $-1 #
coedge $-1 $111 $111 $69 $112 forward $106 $-1 #
edge $-1 $174 0 $174 6.2831853071796004 $111 $175 forward 7 unknown #
loop $-1 $-1 $118 $70 #
plane-surface $-1 -36.250223274140865 -23.875000398149822 102.92174697764224 0.66913061440640931 0 0.74314481823134659 0.74314481823134659 0 -0.66913061440640931 forward_v I I I I #
loop $-1 $-1 $176 $45 #
coedge $-1 $116 $116 $117 $177 reversed $71 $-1 #
coedge $-1 $117 $117 $116 $177 forward $73 $-1 #
coedge $-1 $118 $118 $74 $119 forward $113 $-1 #
edge $-1 $178 0 $178 6.2831853071796004 $118 $179 forward 7 unknown #
face $-1 $180 $181 $18 $-1 $182 reversed single #
loop $-1 $-1 $183 $75 #
plane-surface $-1 -74.544511246070741 0 0 1 0 0 0 0 -1 forward_v I I I I #
coedge $-1 $184 $131 $185 $186 forward $76 $-1 #
coedge $-1 $187 $78 $184 $188 forward $49 $-1 #
coedge $-1 $78 $187 $189 $190 forward $49 $-1 #
coedge $-1 $134 $133 $78 $127 reversed $135 $-1 #
edge $-1 $191 -44.610227394152687 $192 44.610227394152687 $126 $193 forward 7 unknown #
coedge $-1 $80 $79 $194 $195 forward $31 $-1 #
coedge $-1 $196 $197 $79 $130 reversed $181 $-1 #
edge $-1 $137 -74.544511246070741 $198 74.544511246070741 $129 $199 forward 7 unknown #
coedge $-1 $123 $200 $80 $132 reversed $76 $-1 #
edge $-1 $201 -74.544511246070741 $136 74.544511246070741 $131 $202 forward 7 unknown #
coedge $-1 $126 $81 $200 $203 forward $135 $-1 #
coedge $-1 $81 $126 $196 $204 reversed $135 $-1 #
loop $-1 $-1 $133 $180 #
vertex $-1 $82 $205 #
vertex $-1 $82 $206 #
straight-curve $-1 74.544511246070741 0 18.117467637270007 0 1 0 I I #
face $-1 $207 $208 $19 $-1 $209 reversed single #
loop $-1 $-1 $210 $83 #
plane-surface $-1 -86.006652908013223 0 3.7972875867499862 0 0 1 1 0 0 forward_v I I I I #
coedge $-1 $211 $86 $212 $213 reversed $53 $-1 #
coedge $-1 $86 $211 $148 $214 reversed $53 $-1 #
edge $-1 $150 -12.955270205729542 $215 -3.7972875867499862 $86 $216 forward 7 unknown #
coedge $-1 $88 $87 $210 $217 forward $34 $-1 #
coedge $-1 $218 $219 $87 $147 forward $220 $-1 #
edge $-1 $221 3.7972875867499862 $151 12.955270205729542 $146 $222 forward 7 unknown #
coedge $-1 $223 $89 $143 $214 forward $84 $-1 #
coedge $-1 $89 $223 $218 $224 forward $84 $-1 #
vertex $-1 $144 $225 #
vertex $-1 $224 $226 #
straight-curve $-1 -74.544511246070741 0 12.955270205729542 0 -1 0 I I #
face $-1 $-1 $227 $20 $-1 $228 reversed single #
loop $-1 $-1 $97 $91 #
plane-surface $-1 0 0 18.117467637270007 0 0 1 1 0 0 forward_v I I I I #
coedge $-1 $229 $230 $231 $232 reversed $92 $-1 #
coedge $-1 $233 $94 $96 $163 forward $57 $-1 #
coedge $-1 $94 $233 $229 $234 forward $57 $-1 #
coedge $-1 $231 $97 $94 $160 forward $154 $-1 #
edge $-1 $166 7.2575582859489032 $235 16.617442112200919 $159 $236 forward 7 unknown #
coedge $-1 $237 $238 $95 $162 forward $227 $-1 #
edge $-1 $239 -103.69652299270227 $165 -88.740773111656921 $161 $240 forward 7 unknown #
edge $-1 $166 126.73800527809166 $239 149.08902249214145 $96 $241 forward 7 unknown #
coedge $-1 $97 $231 $237 $242 forward $154 $-1 #
vertex $-1 $162 $243 #
vertex $-1 $98 $244 #
straight-curve $-1 31.754902973638373 -19.195058485023814 18.117467637270011 -1 0 0 I I #
coedge $-1 $168 $168 $-1 $245 reversed $101 $-1 #
edge $-1 $246 0 $246 6.2831853071796004 $102 $247 forward 7 unknown #
vertex $-1 $105 $248 #
ellipse-curve $-1 66.23948993366038 -26.682965546025429 10.639592696747332 0.66913061440640931 0 0.74314481823134659 0.3715724091156733 0 -0.33456530720320465 1 I I #
coedge $-1 $172 $172 $-1 $249 reversed $108 $-1 #
edge $-1 $250 0 $250 6.2831853071796004 $109 $251 forward 7 unknown #
vertex $-1 $112 $252 #
ellipse-curve $-1 66.23948993366038 -23.875000398149822 10.639592696747332 0.66913061440640931 0 0.74314481823134659 0.3715724091156733 0 -0.33456530720320465 1 I I #
coedge $-1 $176 $176 $-1 $253 reversed $115 $-1 #
edge $-1 $254 0 $254 6.2831853071796004 $116 $255 forward 7 unknown #
vertex $-1 $119 $256 #
ellipse-curve $-1 66.23948993366038 -21.067035250274216 10.639592696747332 0.66913061440640931 0 0.74314481823134659 0.3715724091156733 0 -0.33456530720320465 1 I I #
face $-1 $-1 $135 $18 $-1 $257 reversed single #
loop $-1 $-1 $196 $120 #
plane-surface $-1 0 44.610227394152687 0 0 -1 0 0 0 -1 forward_v I I I I #
coedge $-1 $258 $194 $197 $259 forward $121 $-1 #
coedge $-1 $200 $123 $124 $188 reversed $76 $-1 #
coedge $-1 $194 $258 $123 $186 reversed $121 $-1 #
edge $-1 $201 -18.117467637270007 $260 18.117467637270007 $185 $261 forward 7 unknown #
coedge $-1 $125 $124 $258 $262 forward $49 $-1 #
edge $-1 $192 -74.544511246070741 $260 74.544511246070741 $184 $263 forward 7 unknown #
coedge $-1 $197 $196 $125 $190 reversed $181 $-1 #
edge $-1 $264 -74.544511246070741 $191 74.544511246070741 $189 $265 forward 7 unknown #
vertex $-1 $127 $266 #
vertex $-1 $203 $267 #
straight-curve $-1 74.544511246070741 0 -18.117467637270007 0 -1 0 I I #
coedge $-1 $183 $185 $128 $195 reversed $121 $-1 #
edge $-1 $198 -44.610227394152687 $201 44.610227394152687 $194 $268 forward 7 unknown #
coedge $-1 $189 $129 $134 $204 forward $181 $-1 #
coedge $-1 $129 $189 $183 $259 reversed $181 $-1 #
vertex $-1 $130 $269 #
straight-curve $-1 0 44.610227394152687 18.117467637270007 -1 0 0 I I #
coedge $-1 $131 $184 $133 $203 reversed $76 $-1 #
vertex $-1 $195 $270 #
straight-curve $-1 0 -44.610227394152687 18.117467637270007 1 0 0 I I #
edge $-1 $136 -18.117467637270007 $192 18.117467637270007 $133 $271 forward 7 unknown #
edge $-1 $137 -18.117467637270007 $191 18.117467637270007 $134 $272 forward 7 unknown #
point $-1 74.544511246070741 -44.610227394152687 18.117467637270007 #
point $-1 74.544511246070741 44.610227394152687 18.117467637270007 #
face $-1 $-1 $220 $19 $-1 $273 reversed single #
loop $-1 $-1 $274 $139 #
plane-surface $-1 -97.468794569955705 0 8.3762788962397643 1 0 0 0 0 -1 forward_v I I I I #
coedge $-1 $275 $212 $145 $217 reversed $140 $-1 #
coedge $-1 $143 $142 $274 $276 reversed $53 $-1 #
coedge $-1 $210 $277 $142 $213 forward $140 $-1 #
edge $-1 $278 -11.462141661942482 $215 11.462141661942482 $142 $279 forward 7 unknown #
edge $-1 $150 -11.462141661942482 $280 11.462141661942482 $143 $281 forward 7 unknown #
vertex $-1 $144 $282 #
straight-curve $-1 -74.544511246070741 44.610227394152687 0 0 0 -1 I I #
edge $-1 $221 -44.610227394152687 $215 44.610227394152687 $210 $283 forward 7 unknown #
coedge $-1 $284 $146 $149 $224 reversed $220 $-1 #
coedge $-1 $146 $284 $275 $285 reversed $220 $-1 #
loop $-1 $-1 $146 $207 #
vertex $-1 $147 $286 #
straight-curve $-1 -74.544511246070741 -44.610227394152687 0 0 0 1 I I #
coedge $-1 $149 $148 $287 $288 forward $84 $-1 #
edge $-1 $289 -11.462141661942482 $151 11.462141661942482 $218 $290 forward 7 unknown #
point $-1 -74.544511246070741 44.610227394152687 12.955270205729542 #
point $-1 -74.544511246070741 -44.610227394152687 12.955270205729542 #
loop $-1 $-1 $161 $153 #
plane-surface $-1 74.544511246070741 0 0 -1 0 0 0 0 1 forward_v I I I I #
coedge $-1 $230 $156 $158 $234 reversed $92 $-1 #
coedge $-1 $156 $229 $291 $292 reversed $92 $-1 #
coedge $-1 $164 $159 $156 $232 forward $154 $-1 #
edge $-1 $235 26.179565647611646 $293 42.789608272432368 $231 $294 forward 7 unknown #
coedge $-1 $158 $157 $238 $295 reversed $57 $-1 #
edge $-1 $296 -149.08902249214145 $235 -126.73800527809166 $229 $297 forward 7 unknown #
vertex $-1 $160 $298 #
straight-curve $-1 57.934468621250033 -11.937500199074911 18.117467637270003 0 -1 0 I I #
coedge $-1 $291 $161 $164 $242 reversed $227 $-1 #
coedge $-1 $161 $291 $233 $295 forward $227 $-1 #
vertex $-1 $162 $299 #
straight-curve $-1 74.544511246070741 -19.195058485023814 106.85824074892693 0 0 1 I I #
straight-curve $-1 -36.250223274140865 -19.195058485023814 102.92174697764224 0.74314481823134659 0 -0.66913061440640931 I I #
edge $-1 $293 -28.55494231127583 $165 -19.195058485023814 $237 $300 forward 7 unknown #
point $-1 74.544511246070741 -19.195058485023814 18.117467637270007 #
point $-1 57.934468621250019 -19.195058485023814 18.117467637270011 #
edge $-1 $301 1 $301 0 $168 $-1 forward 7 unknown #
vertex $-1 $169 $302 #
ellipse-curve $-1 65.570359319253939 -26.682965546025429 9.8964478785159535 0.66913061440640931 0 0.74314481823134659 0.3715724091156733 0 -0.33456530720320465 1 I I #
point $-1 66.611062342776023 -26.682965546025429 10.305027389544096 #
edge $-1 $303 1 $303 0 $172 $-1 forward 7 unknown #
vertex $-1 $173 $304 #
ellipse-curve $-1 65.570359319253939 -23.875000398149822 9.8964478785159535 0.66913061440640931 0 0.74314481823134659 0.3715724091156733 0 -0.33456530720320465 1 I I #
point $-1 66.611062342776023 -23.875000398149822 10.305027389544096 #
edge $-1 $305 1 $305 0 $176 $-1 forward 7 unknown #
vertex $-1 $177 $306 #
ellipse-curve $-1 65.570359319253939 -21.067035250274216 9.8964478785159535 0.66913061440640931 0 0.74314481823134659 0.3715724091156733 0 -0.33456530720320465 1 I I #
point $-1 66.611062342776023 -21.067035250274216 10.305027389544096 #
plane-surface $-1 74.544511246070741 0 0 -1 0 0 0 0 1 forward_v I I I I #
coedge $-1 $185 $183 $187 $262 reversed $121 $-1 #
edge $-1 $198 -18.117467637270007 $264 18.117467637270007 $197 $307 forward 7 unknown #
vertex $-1 $262 $308 #
straight-curve $-1 -74.544511246070741 -44.610227394152687 0 0 0 -1 I I #
edge $-1 $260 -44.610227394152687 $264 44.610227394152687 $258 $309 forward 7 unknown #
straight-curve $-1 0 -44.610227394152687 -18.117467637270007 -1 0 0 I I #
vertex $-1 $190 $310 #
straight-curve $-1 0 44.610227394152687 -18.117467637270007 1 0 0 I I #
point $-1 74.544511246070741 44.610227394152687 -18.117467637270007 #
point $-1 74.544511246070741 -44.610227394152687 -18.117467637270007 #
straight-curve $-1 -74.544511246070741 0 18.117467637270007 0 -1 0 I I #
point $-1 -74.544511246070741 44.610227394152687 18.117467637270007 #
point $-1 -74.544511246070741 -44.610227394152687 18.117467637270007 #
straight-curve $-1 74.544511246070741 -44.610227394152687 0 0 0 -1 I I #
straight-curve $-1 74.544511246070741 44.610227394152687 0 0 0 -1 I I #
plane-surface $-1 0 -44.610227394152687 0 0 1 0 0 0 1 forward_v I I I I #
coedge $-1 $311 $287 $211 $276 forward $208 $-1 #
coedge $-1 $277 $210 $219 $285 forward $140 $-1 #
edge $-1 $280 -4.5789913094897781 $278 4.5789913094897781 $211 $312 forward 7 unknown #
coedge $-1 $212 $275 $311 $313 forward $140 $-1 #
vertex $-1 $213 $314 #
straight-curve $-1 -86.006652908013223 44.610227394152687 3.7972875867499862 1 0 0 I I #
vertex $-1 $214 $315 #
straight-curve $-1 -86.006652908013223 44.610227394152687 12.955270205729542 -1 0 0 I I #
point $-1 -74.544511246070741 44.610227394152687 3.7972875867499862 #
straight-curve $-1 -74.544511246070741 0 3.7972875867499862 0 1 0 I I #
coedge $-1 $219 $218 $316 $317 forward $220 $-1 #
edge $-1 $221 -11.462141661942482 $318 11.462141661942482 $219 $319 forward 7 unknown #
point $-1 -74.544511246070741 -44.610227394152687 3.7972875867499862 #
coedge $-1 $274 $316 $223 $288 reversed $208 $-1 #
edge $-1 $280 -44.610227394152687 $289 44.610227394152687 $287 $320 forward 7 unknown #
vertex $-1 $288 $321 #
straight-curve $-1 -86.006652908013223 -44.610227394152687 12.955270205729542 1 0 0 I I #
coedge $-1 $238 $237 $230 $292 forward $227 $-1 #
edge $-1 $293 88.740773111656921 $296 103.69652299270227 $291 $322 forward 7 unknown #
vertex $-1 $242 $323 #
straight-curve $-1 31.754902973638373 -28.55494231127583 18.117467637270011 1 0 0 I I #
edge $-1 $296 -16.617442112200919 $239 -7.2575582859489032 $238 $324 forward 7 unknown #
vertex $-1 $295 $325 #
straight-curve $-1 -36.250223274140865 -28.55494231127583 102.92174697764224 -0.74314481823134659 0 0.66913061440640931 I I #
point $-1 57.934468621250019 -28.55494231127583 18.117467637270011 #
point $-1 74.544511246070741 -19.195058485023814 3.161717756224661 #
straight-curve $-1 74.544511246070741 0 18.117467637270007 0 1 0 I I #
vertex $-1 $245 $326 #
point $-1 65.94193172836961 -26.682965546025429 9.5618825713127489 #
vertex $-1 $249 $327 #
point $-1 65.94193172836961 -23.875000398149822 9.5618825713127489 #
vertex $-1 $253 $328 #
point $-1 65.94193172836961 -21.067035250274216 9.5618825713127489 #
straight-curve $-1 -74.544511246070741 44.610227394152687 0 0 0 -1 I I #
point $-1 -74.544511246070741 -44.610227394152687 -18.117467637270007 #
straight-curve $-1 -74.544511246070741 0 -18.117467637270007 0 1 0 I I #
point $-1 -74.544511246070741 44.610227394152687 -18.117467637270007 #
coedge $-1 $316 $274 $277 $313 reversed $208 $-1 #
straight-curve $-1 -97.468794569955705 44.610227394152687 8.3762788962397643 0 0 -1 I I #
edge $-1 $318 -44.610227394152687 $278 44.610227394152687 $311 $329 forward 7 unknown #
point $-1 -97.468794569955705 44.610227394152687 3.7972875867499862 #
point $-1 -97.468794569955705 44.610227394152687 12.955270205729542 #
coedge $-1 $287 $311 $284 $317 reversed $208 $-1 #
edge $-1 $289 -4.5789913094897781 $318 4.5789913094897781 $316 $330 forward 7 unknown #
vertex $-1 $313 $331 #
straight-curve $-1 -86.006652908013223 -44.610227394152687 3.7972875867499862 -1 0 0 I I #
straight-curve $-1 -97.468794569955705 0 12.955270205729542 0 -1 0 I I #
point $-1 -97.468794569955705 -44.610227394152687 12.955270205729542 #
straight-curve $-1 74.544511246070741 -28.55494231127583 106.85824074892693 0 0 -1 I I #
point $-1 74.544511246070741 -28.55494231127583 18.117467637270007 #
straight-curve $-1 74.544511246070741 -11.937500199074911 3.1617177562246468 0 1 0 I I #
point $-1 74.544511246070741 -28.55494231127583 3.161717756224661 #
point $-1 65.235794012050732 -26.682965546025429 9.524875469400282 #
point $-1 65.235794012050732 -23.875000398149822 9.524875469400282 #
point $-1 65.235794012050732 -21.067035250274216 9.524875469400282 #
straight-curve $-1 -97.468794569955705 0 3.7972875867499862 0 1 0 I I #
straight-curve $-1 -97.468794569955705 -44.610227394152687 8.3762788962397643 0 0 -1 I I #
point $-1 -97.468794569955705 -44.610227394152687 3.7972875867499862 #
End-of-ACIS-data 