500 0 6 0           
7 Unknown 11 ACIS 5.0 NT 24 Fri Mar 26 19:56:25 1999 
-1 9.9999999999999995e-007 1e-010 
body $-1 $6 $-1 $7 #
body $-1 $8 $-1 $9 #
body $-1 $10 $-1 $11 #
body $-1 $12 $-1 $13 #
body $-1 $14 $-1 $15 #
body $-1 $16 $-1 $17 #
lump $-1 $-1 $18 $0 #
transform $-1 1 0 0 0 1 0 0 0 1 64.6699423200171 44.659107877532726 19.98299837882044 1 rotate no_reflect no_shear #
lump $-1 $-1 $19 $1 #
transform $-1 1 0 0 0 1 0 0 0 1 64.6699423200171 44.659107877532726 19.98299837882044 1 rotate no_reflect no_shear #
lump $-1 $-1 $20 $2 #
transform $-1 1 0 0 0 1 0 0 0 1 64.6699423200171 44.659107877532726 19.98299837882044 1 rotate no_reflect no_shear #
lump $-1 $-1 $21 $3 #
transform $-1 1 0 0 0 1 0 0 0 1 64.6699423200171 44.659107877532726 19.98299837882044 1 rotate no_reflect no_shear #
lump $-1 $-1 $22 $4 #
transform $-1 1 0 0 0 1 0 0 0 1 64.6699423200171 44.659107877532726 19.98299837882044 1 rotate no_reflect no_shear #
lump $-1 $-1 $23 $5 #
transform $-1 1 0 0 0 1 0 0 0 1 64.6699423200171 44.659107877532726 19.98299837882044 1 rotate no_reflect no_shear #
shell $-1 $-1 $-1 $24 $-1 $6 #
shell $-1 $-1 $-1 $25 $-1 $8 #
shell $-1 $-1 $-1 $26 $-1 $10 #
shell $-1 $-1 $-1 $27 $-1 $12 #
shell $-1 $-1 $-1 $28 $-1 $14 #
shell $-1 $-1 $-1 $29 $-1 $16 #
face $-1 $30 $31 $18 $-1 $32 forward single #
face $-1 $33 $34 $19 $-1 $35 reversed single #
face $-1 $36 $37 $20 $-1 $38 reversed single #
face $-1 $39 $40 $21 $-1 $41 forward single #
face $-1 $42 $43 $22 $-1 $44 reversed single #
face $-1 $45 $46 $23 $-1 $47 forward single #
face $-1 $48 $49 $18 $-1 $50 reversed single #
loop $-1 $-1 $51 $24 #
plane-surface $-1 0 0 19.98299837882044 0 0 1 1 0 0 forward_v I I I I #
face $-1 $52 $53 $19 $-1 $54 reversed single #
loop $-1 $-1 $55 $25 #
plane-surface $-1 -51.98086946750108 0 10.17768679904961 0 0 1 1 0 0 forward_v I I I I #
face $-1 $56 $57 $20 $-1 $58 reversed single #
loop $-1 $-1 $59 $26 #
plane-surface $-1 -29.491942458806946 -11.550665676564691 77.331296287804847 0 0.77714596973225614 0.62932038083071107 1 0 0 forward_v I I I I #
face $-1 $60 $61 $21 $-1 $62 forward single #
loop $-1 $63 $64 $27 #
cone-surface $-1 -29.491942458806946 39.128158660219427 13.427438006051528 0 -0.77714596973225614 -0.62932038083071107 1 0 0 1 I I 0 1 1 forward I I I I #
face $-1 $65 $66 $22 $-1 $67 reversed single #
loop $-1 $-1 $68 $28 #
plane-surface $-1 -19.692088302628843 -145.17507795117024 89.3142303483462 -1 0 0 0 -0.77714596973225614 0.62932038083071107 forward_v I I I I #
face $-1 $69 $70 $23 $-1 $71 forward single #
loop $-1 $72 $73 $29 #
cone-surface $-1 -29.491942458806946 -39.128158660219434 13.427438006051535 0 0.77714596973225614 -0.62932038083071107 1 0 0 1 I I 0 1 1 forward I I I I #
face $-1 $74 $75 $18 $-1 $76 reversed single #
loop $-1 $-1 $77 $30 #
plane-surface $-1 0 0 -19.98299837882044 0 0 1 1 0 0 forward_v I I I I #
coedge $-1 $78 $79 $80 $81 forward $31 $-1 #
face $-1 $82 $83 $19 $-1 $84 reversed single #
loop $-1 $-1 $85 $33 #
plane-surface $-1 -39.29179661498506 0 15.080342588935025 -1 0 0 0 0 1 forward_v I I I I #
coedge $-1 $86 $87 $88 $89 forward $34 $-1 #
face $-1 $90 $91 $20 $-1 $92 forward single #
loop $-1 $-1 $93 $36 #
plane-surface $-1 -19.692088302628843 88.965304397072828 158.7275217460714 -1 0 0 0 0.77714596973225614 0.62932038083071107 forward_v I I I I #
coedge $-1 $94 $95 $96 $97 reversed $37 $-1 #
face $-1 $-1 $98 $21 $-1 $99 forward single #
loop $-1 $100 $101 $39 #
cone-surface $-1 -29.491942458806946 38.093655870590176 12.589714187237661 0 -0.77714596973225614 -0.62932038083071107 0.5 0 0 1 I I -0.70710678118654746 0.70710678118654746 0.5 forward I I I I #
loop $-1 $-1 $102 $27 #
coedge $-1 $64 $64 $103 $104 reversed $40 $-1 #
face $-1 $105 $106 $22 $-1 $107 forward single #
loop $-1 $-1 $108 $42 #
plane-surface $-1 -29.491942458806946 -44.659107877532719 7.9180048900796436 0 -0.77714596973225614 0.62932038083071107 1 0 0 forward_v I I I I #
coedge $-1 $109 $110 $111 $112 reversed $43 $-1 #
face $-1 $-1 $113 $23 $-1 $114 forward single #
loop $-1 $115 $116 $45 #
cone-surface $-1 -29.491942458806946 -38.093655870590183 12.589714187237668 0 0.77714596973225614 -0.62932038083071107 0.5 0 0 1 I I -0.70710678118654746 0.70710678118654746 0.5 forward I I I I #
loop $-1 $-1 $117 $29 #
coedge $-1 $73 $73 $118 $119 reversed $46 $-1 #
face $-1 $120 $121 $18 $-1 $122 reversed single #
loop $-1 $-1 $123 $48 #
plane-surface $-1 0 -44.659107877532726 0 0 1 0 0 0 1 forward_v I I I I #
coedge $-1 $124 $125 $126 $127 forward $49 $-1 #
coedge $-1 $128 $51 $129 $130 forward $31 $-1 #
coedge $-1 $51 $128 $131 $132 forward $31 $-1 #
coedge $-1 $133 $134 $51 $81 reversed $135 $-1 #
edge $-1 $136 -44.659107877532726 $137 44.659107877532726 $80 $138 forward 7 unknown #
face $-1 $139 $140 $19 $-1 $141 reversed single #
loop $-1 $-1 $142 $52 #
plane-surface $-1 0 44.659107877532726 0 0 -1 0 0 0 -1 forward_v I I I I #
coedge $-1 $88 $143 $144 $145 reversed $53 $-1 #
coedge $-1 $146 $55 $147 $148 reversed $34 $-1 #
coedge $-1 $55 $146 $149 $150 reversed $34 $-1 #
coedge $-1 $151 $85 $55 $89 reversed $53 $-1 #
edge $-1 $152 -44.659107877532726 $153 44.659107877532726 $88 $154 forward 7 unknown #
face $-1 $155 $156 $20 $-1 $157 reversed single #
loop $-1 $-1 $96 $56 #
plane-surface $-1 0 0 19.98299837882044 0 0 1 1 0 0 forward_v I I I I #
coedge $-1 $158 $159 $160 $161 reversed $57 $-1 #
coedge $-1 $162 $59 $163 $164 reversed $37 $-1 #
coedge $-1 $59 $162 $158 $165 forward $37 $-1 #
coedge $-1 $160 $166 $59 $97 forward $91 $-1 #
edge $-1 $167 -24.545825385581587 $168 -4.9461170732253699 $96 $169 forward 7 unknown #
loop $-1 $-1 $103 $60 #
plane-surface $-1 -29.491942458806946 -11.550665676564691 77.331296287804847 0 0.77714596973225614 0.62932038083071107 1 0 0 forward_v I I I I #
loop $-1 $-1 $170 $39 #
coedge $-1 $101 $101 $102 $171 reversed $61 $-1 #
coedge $-1 $102 $102 $101 $171 forward $63 $-1 #
coedge $-1 $103 $103 $64 $104 forward $98 $-1 #
edge $-1 $172 -3.8113411006269834e-015 $172 6.2831853071795969 $103 $173 forward 7 unknown #
face $-1 $174 $175 $22 $-1 $176 forward single #
loop $-1 $-1 $177 $65 #
plane-surface $-1 -39.29179661498506 0 15.080342588935025 -1 0 0 0 0 1 forward_v I I I I #
coedge $-1 $178 $179 $180 $181 reversed $66 $-1 #
coedge $-1 $110 $68 $182 $183 reversed $43 $-1 #
coedge $-1 $68 $109 $178 $184 reversed $43 $-1 #
coedge $-1 $180 $185 $68 $112 forward $175 $-1 #
edge $-1 $186 27.928431098052393 $187 37.698469923152757 $111 $188 forward 7 unknown #
loop $-1 $-1 $118 $69 #
plane-surface $-1 -29.491942458806946 -44.659107877532719 7.9180048900796436 0 -0.77714596973225614 0.62932038083071107 1 0 0 forward_v I I I I #
loop $-1 $-1 $189 $45 #
coedge $-1 $116 $116 $117 $190 reversed $70 $-1 #
coedge $-1 $117 $117 $116 $190 forward $72 $-1 #
coedge $-1 $118 $118 $73 $119 forward $113 $-1 #
edge $-1 $191 5.5219542341849321e-015 $191 6.2831853071796058 $118 $192 forward 7 unknown #
face $-1 $193 $194 $18 $-1 $195 reversed single #
loop $-1 $-1 $196 $74 #
plane-surface $-1 -64.6699423200171 0 0 1 0 0 0 0 -1 forward_v I I I I #
coedge $-1 $197 $131 $198 $199 forward $75 $-1 #
coedge $-1 $200 $77 $197 $201 forward $49 $-1 #
coedge $-1 $77 $200 $202 $203 forward $49 $-1 #
coedge $-1 $134 $133 $77 $127 reversed $135 $-1 #
edge $-1 $204 -44.659107877532726 $205 44.659107877532726 $126 $206 forward 7 unknown #
coedge $-1 $79 $78 $207 $208 forward $31 $-1 #
coedge $-1 $209 $210 $78 $130 reversed $194 $-1 #
edge $-1 $137 -64.6699423200171 $211 64.6699423200171 $129 $212 forward 7 unknown #
coedge $-1 $123 $213 $79 $132 reversed $75 $-1 #
edge $-1 $214 -64.6699423200171 $136 64.6699423200171 $131 $215 forward 7 unknown #
coedge $-1 $126 $80 $213 $216 forward $135 $-1 #
coedge $-1 $80 $126 $209 $217 reversed $135 $-1 #
loop $-1 $-1 $133 $193 #
vertex $-1 $81 $218 #
vertex $-1 $81 $219 #
straight-curve $-1 64.6699423200171 0 19.98299837882044 0 1 0 I I #
face $-1 $220 $221 $19 $-1 $222 forward single #
loop $-1 $-1 $223 $82 #
plane-surface $-1 -64.6699423200171 0 0 1 0 0 0 0 -1 forward_v I I I I #
coedge $-1 $149 $224 $151 $225 forward $83 $-1 #
coedge $-1 $85 $151 $226 $227 reversed $53 $-1 #
coedge $-1 $228 $147 $85 $145 forward $229 $-1 #
edge $-1 $153 2.6375155045820975 $230 12.442827084352928 $144 $231 forward 7 unknown #
coedge $-1 $87 $86 $223 $232 reversed $34 $-1 #
coedge $-1 $144 $233 $86 $148 forward $229 $-1 #
edge $-1 $234 -38.67950758626656 $153 -13.30136188123452 $147 $235 forward 7 unknown #
coedge $-1 $236 $142 $87 $150 forward $83 $-1 #
edge $-1 $152 13.30136188123452 $237 38.67950758626656 $149 $238 forward 7 unknown #
coedge $-1 $143 $88 $142 $225 reversed $53 $-1 #
vertex $-1 $150 $239 #
vertex $-1 $148 $240 #
straight-curve $-1 -39.29179661498506 0 10.17768679904961 0 -1 0 I I #
face $-1 $-1 $241 $20 $-1 $242 forward single #
loop $-1 $-1 $243 $90 #
plane-surface $-1 0 44.659107877532726 0 0 -1 0 0 0 -1 forward_v I I I I #
coedge $-1 $159 $93 $95 $165 reversed $57 $-1 #
coedge $-1 $93 $158 $243 $244 reversed $57 $-1 #
coedge $-1 $245 $96 $93 $161 forward $91 $-1 #
edge $-1 $168 -9.5935831461040664 $246 0.17645567899631232 $160 $247 forward 7 unknown #
coedge $-1 $95 $94 $248 $249 reversed $37 $-1 #
coedge $-1 $250 $251 $94 $164 forward $241 $-1 #
edge $-1 $252 -61.494642204320527 $167 -45.969896585556675 $163 $253 forward 7 unknown #
edge $-1 $254 -89.318215755065467 $168 -73.793470136301622 $158 $255 forward 7 unknown #
coedge $-1 $96 $245 $250 $256 forward $91 $-1 #
vertex $-1 $164 $257 #
vertex $-1 $97 $258 #
straight-curve $-1 -14.745971229403473 34.889069052432347 19.98299837882044 1 0 0 I I #
coedge $-1 $170 $170 $-1 $259 reversed $100 $-1 #
edge $-1 $260 0 $260 6.2831853071796004 $101 $261 forward 7 unknown #
vertex $-1 $104 $262 #
ellipse-curve $-1 -29.491942458806946 39.774088464982533 13.950501634450028 0 0.77714596973225614 0.62932038083071107 1 0 0 1 I I #
face $-1 $-1 $263 $22 $-1 $264 reversed single #
loop $-1 $-1 $180 $105 #
plane-surface $-1 0 0 19.98299837882044 0 0 1 1 0 0 forward_v I I I I #
coedge $-1 $265 $266 $179 $267 reversed $106 $-1 #
coedge $-1 $268 $108 $110 $184 forward $66 $-1 #
coedge $-1 $108 $268 $177 $267 forward $66 $-1 #
coedge $-1 $269 $111 $108 $181 forward $175 $-1 #
edge $-1 $187 4.9461170732253699 $270 24.545825385581587 $180 $271 forward 7 unknown #
coedge $-1 $272 $273 $109 $183 forward $263 $-1 #
edge $-1 $274 -36.739110284093464 $186 -24.67411679535266 $182 $275 forward 7 unknown #
edge $-1 $187 -15.524745618763813 $274 1.1374033043381581e-014 $110 $276 forward 7 unknown #
coedge $-1 $111 $269 $272 $277 forward $175 $-1 #
vertex $-1 $183 $278 #
vertex $-1 $112 $279 #
straight-curve $-1 -19.692088302628843 -72.587538975585119 19.98299837882044 0 1 0 I I #
coedge $-1 $189 $189 $-1 $280 reversed $115 $-1 #
edge $-1 $281 0 $281 6.2831853071796004 $116 $282 forward 7 unknown #
vertex $-1 $119 $283 #
ellipse-curve $-1 -29.491942458806946 -39.774088464982547 13.950501634450038 0 -0.77714596973225614 0.62932038083071107 1 0 0 1 I I #
face $-1 $-1 $135 $18 $-1 $284 reversed single #
loop $-1 $-1 $209 $120 #
plane-surface $-1 0 44.659107877532726 0 0 -1 0 0 0 -1 forward_v I I I I #
coedge $-1 $285 $207 $210 $286 forward $121 $-1 #
coedge $-1 $213 $123 $124 $201 reversed $75 $-1 #
coedge $-1 $207 $285 $123 $199 reversed $121 $-1 #
edge $-1 $214 -19.98299837882044 $287 19.98299837882044 $198 $288 forward 7 unknown #
coedge $-1 $125 $124 $285 $289 forward $49 $-1 #
edge $-1 $205 -64.6699423200171 $287 64.6699423200171 $197 $290 forward 7 unknown #
coedge $-1 $210 $209 $125 $203 reversed $194 $-1 #
edge $-1 $291 -64.6699423200171 $204 64.6699423200171 $202 $292 forward 7 unknown #
vertex $-1 $127 $293 #
vertex $-1 $216 $294 #
straight-curve $-1 64.6699423200171 0 -19.98299837882044 0 -1 0 I I #
coedge $-1 $196 $198 $128 $208 reversed $121 $-1 #
edge $-1 $211 -44.659107877532726 $214 44.659107877532726 $207 $295 forward 7 unknown #
coedge $-1 $202 $129 $134 $217 forward $194 $-1 #
coedge $-1 $129 $202 $196 $286 reversed $194 $-1 #
vertex $-1 $130 $296 #
straight-curve $-1 0 44.659107877532726 19.98299837882044 -1 0 0 I I #
coedge $-1 $131 $197 $133 $216 reversed $75 $-1 #
vertex $-1 $208 $297 #
straight-curve $-1 0 -44.659107877532726 19.98299837882044 1 0 0 I I #
edge $-1 $136 -19.98299837882044 $205 19.98299837882044 $133 $298 forward 7 unknown #
edge $-1 $137 -19.98299837882044 $204 19.98299837882044 $134 $299 forward 7 unknown #
point $-1 64.6699423200171 -44.659107877532726 19.98299837882044 #
point $-1 64.6699423200171 44.659107877532726 19.98299837882044 #
face $-1 $-1 $229 $19 $-1 $300 reversed single #
loop $-1 $-1 $226 $139 #
plane-surface $-1 0 0 19.98299837882044 0 0 1 1 0 0 forward_v I I I I #
coedge $-1 $301 $302 $146 $232 forward $140 $-1 #
coedge $-1 $142 $236 $303 $304 reversed $83 $-1 #
edge $-1 $305 -12.442827084352928 $152 -2.6375155045820975 $142 $306 forward 7 unknown #
coedge $-1 $303 $307 $143 $227 forward $221 $-1 #
edge $-1 $230 -44.659107877532726 $305 44.659107877532726 $226 $308 forward 7 unknown #
coedge $-1 $233 $144 $307 $309 reversed $229 $-1 #
loop $-1 $-1 $144 $220 #
vertex $-1 $145 $310 #
straight-curve $-1 -39.29179661498506 -44.659107877532726 7.5401712944675126 0 0 1 I I #
edge $-1 $237 -44.659107877532726 $234 44.659107877532726 $223 $311 forward 7 unknown #
coedge $-1 $147 $228 $301 $312 forward $229 $-1 #
vertex $-1 $232 $313 #
straight-curve $-1 -25.99043473375054 -44.659107877532726 10.17768679904961 1 0 0 I I #
coedge $-1 $224 $149 $302 $314 reversed $83 $-1 #
vertex $-1 $232 $315 #
straight-curve $-1 -25.99043473375054 44.659107877532726 10.17768679904961 -1 0 0 I I #
point $-1 -39.29179661498506 44.659107877532726 10.17768679904961 #
point $-1 -39.29179661498506 -44.659107877532726 10.17768679904961 #
loop $-1 $-1 $163 $155 #
plane-surface $-1 -39.29179661498506 0 15.080342588935025 -1 0 0 0 0 1 forward_v I I I I #
coedge $-1 $248 $316 $159 $244 forward $156 $-1 #
edge $-1 $246 59.380762494215261 $254 71.445755982956086 $243 $317 forward 7 unknown #
coedge $-1 $166 $160 $316 $318 forward $91 $-1 #
vertex $-1 $318 $319 #
straight-curve $-1 -19.692088302628843 44.482652198536414 19.98299837882044 0 1 0 I I #
coedge $-1 $320 $243 $162 $249 forward $156 $-1 #
edge $-1 $254 4.9461170732253699 $252 24.545825385581573 $248 $321 forward 7 unknown #
coedge $-1 $251 $163 $166 $256 reversed $241 $-1 #
coedge $-1 $163 $250 $320 $322 reversed $241 $-1 #
vertex $-1 $322 $323 #
straight-curve $-1 -39.29179661498506 5.9592762264614141 55.708318239294414 0 -0.62932038083071107 0.77714596973225614 I I #
vertex $-1 $249 $324 #
straight-curve $-1 -19.692088302628843 -11.550665676564691 77.331296287804847 0 -0.62932038083071107 0.77714596973225614 I I #
edge $-1 $325 -44.659107877532726 $167 -34.889069052432347 $166 $326 forward 7 unknown #
point $-1 -39.29179661498506 34.889069052432347 19.98299837882044 #
point $-1 -19.692088302628843 34.889069052432347 19.98299837882044 #
edge $-1 $327 1 $327 0 $170 $-1 forward 7 unknown #
vertex $-1 $171 $328 #
ellipse-curve $-1 -29.491942458806946 38.482228855456306 12.904374377653017 0 0.77714596973225614 0.62932038083071107 1 0 0 1 I I #
point $-1 -28.491942458806946 39.77408846498254 13.950501634450038 #
loop $-1 $-1 $182 $174 #
plane-surface $-1 0 -44.659107877532726 0 0 1 0 0 0 1 forward_v I I I I #
coedge $-1 $266 $177 $329 $330 reversed $106 $-1 #
coedge $-1 $177 $265 $269 $331 reversed $106 $-1 #
edge $-1 $332 -1.1374033043381581e-014 $270 15.524745618763813 $177 $333 forward 7 unknown #
coedge $-1 $179 $178 $273 $334 reversed $66 $-1 #
coedge $-1 $185 $180 $266 $331 forward $175 $-1 #
vertex $-1 $331 $335 #
straight-curve $-1 -14.745971229403473 -34.889069052432362 19.98299837882044 -1 0 0 I I #
coedge $-1 $329 $182 $185 $277 reversed $263 $-1 #
coedge $-1 $182 $329 $268 $334 forward $263 $-1 #
vertex $-1 $183 $336 #
straight-curve $-1 -19.692088302628843 -44.659107877532726 44.6571151741731 0 0 1 I I #
straight-curve $-1 -19.692088302628843 -44.659107877532719 7.9180048900796436 0 -0.62932038083071107 -0.77714596973225614 I I #
edge $-1 $337 -39.29179661498506 $186 -19.692088302628843 $272 $338 forward 7 unknown #
point $-1 -19.692088302628843 -44.659107877532726 19.98299837882044 #
point $-1 -19.692088302628843 -34.889069052432362 19.98299837882044 #
edge $-1 $339 1 $339 0 $189 $-1 forward 7 unknown #
vertex $-1 $190 $340 #
ellipse-curve $-1 -29.491942458806946 -38.482228855456313 12.904374377653024 0 -0.77714596973225614 0.62932038083071107 1 0 0 1 I I #
point $-1 -28.491942458806946 -39.774088464982547 13.950501634450045 #
plane-surface $-1 64.6699423200171 0 0 -1 0 0 0 0 1 forward_v I I I I #
coedge $-1 $198 $196 $200 $289 reversed $121 $-1 #
edge $-1 $211 -19.98299837882044 $291 19.98299837882044 $210 $341 forward 7 unknown #
vertex $-1 $289 $342 #
straight-curve $-1 -64.6699423200171 -44.659107877532726 0 0 0 -1 I I #
edge $-1 $287 -44.659107877532726 $291 44.659107877532726 $285 $343 forward 7 unknown #
straight-curve $-1 0 -44.659107877532726 -19.98299837882044 -1 0 0 I I #
vertex $-1 $203 $344 #
straight-curve $-1 0 44.659107877532726 -19.98299837882044 1 0 0 I I #
point $-1 64.6699423200171 44.659107877532726 -19.98299837882044 #
point $-1 64.6699423200171 -44.659107877532726 -19.98299837882044 #
straight-curve $-1 -64.6699423200171 0 19.98299837882044 0 -1 0 I I #
point $-1 -64.6699423200171 44.659107877532726 19.98299837882044 #
point $-1 -64.6699423200171 -44.659107877532726 19.98299837882044 #
straight-curve $-1 64.6699423200171 -44.659107877532726 0 0 0 -1 I I #
straight-curve $-1 64.6699423200171 44.659107877532726 0 0 0 -1 I I #
plane-surface $-1 0 -44.659107877532726 0 0 1 0 0 0 1 forward_v I I I I #
coedge $-1 $345 $223 $233 $312 reversed $140 $-1 #
coedge $-1 $223 $345 $236 $314 forward $140 $-1 #
coedge $-1 $346 $226 $224 $304 forward $221 $-1 #
edge $-1 $305 39.29179661498506 $347 64.6699423200171 $224 $348 forward 7 unknown #
vertex $-1 $304 $349 #
straight-curve $-1 -39.29179661498506 44.659107877532726 7.5401712944675126 0 0 -1 I I #
coedge $-1 $226 $346 $228 $309 forward $221 $-1 #
straight-curve $-1 -39.29179661498506 0 19.98299837882044 0 1 0 I I #
edge $-1 $350 -64.6699423200171 $230 -39.29179661498506 $228 $351 forward 7 unknown #
point $-1 -39.29179661498506 -44.659107877532726 19.98299837882044 #
straight-curve $-1 -64.6699423200171 0 10.17768679904961 0 -1 0 I I #
edge $-1 $350 -19.98299837882044 $234 -10.17768679904961 $301 $352 forward 7 unknown #
point $-1 -64.6699423200171 -44.659107877532726 10.17768679904961 #
edge $-1 $347 -19.98299837882044 $237 -10.17768679904961 $236 $353 forward 7 unknown #
point $-1 -64.6699423200171 44.659107877532726 10.17768679904961 #
coedge $-1 $243 $320 $245 $318 reversed $156 $-1 #
straight-curve $-1 -19.692088302628843 44.659107877532726 79.363760873035702 0 0 -1 I I #
edge $-1 $246 19.692088302628843 $325 39.29179661498506 $316 $354 forward 7 unknown #
point $-1 -19.692088302628843 44.659107877532726 19.98299837882044 #
coedge $-1 $316 $248 $251 $322 forward $156 $-1 #
straight-curve $-1 -14.745971229403473 44.659107877532726 7.9180048900796152 -1 0 0 I I #
edge $-1 $252 -71.445755982956086 $325 -59.380762494215261 $320 $355 forward 7 unknown #
point $-1 -39.291796614985046 44.659107877532726 7.9180048900796152 #
point $-1 -19.692088302628843 44.659107877532726 7.9180048900796152 #
vertex $-1 $256 $356 #
straight-curve $-1 -39.29179661498506 0 19.98299837882044 0 -1 0 I I #
vertex $-1 $259 $357 #
point $-1 -28.491942458806946 38.482228855456306 12.904374377653017 #
coedge $-1 $273 $272 $265 $330 forward $263 $-1 #
edge $-1 $337 24.67411679535266 $332 36.739110284093464 $329 $358 forward 7 unknown #
edge $-1 $270 34.889069052432362 $337 44.659107877532726 $269 $359 forward 7 unknown #
vertex $-1 $330 $360 #
straight-curve $-1 -39.291796614985046 -44.659107877532719 7.9180048900796436 0 0.62932038083071107 0.77714596973225614 I I #
edge $-1 $332 -24.545825385581573 $274 -4.9461170732253699 $273 $361 forward 7 unknown #
point $-1 -39.29179661498506 -34.889069052432362 19.98299837882044 #
point $-1 -19.692088302628843 -44.659107877532726 7.9180048900796347 #
vertex $-1 $277 $362 #
straight-curve $-1 0 -44.659107877532726 19.98299837882044 1 0 0 I I #
vertex $-1 $280 $363 #
point $-1 -28.491942458806946 -38.482228855456313 12.904374377653024 #
straight-curve $-1 -64.6699423200171 44.659107877532726 0 0 0 -1 I I #
point $-1 -64.6699423200171 -44.659107877532726 -19.98299837882044 #
straight-curve $-1 -64.6699423200171 0 -19.98299837882044 0 1 0 I I #
point $-1 -64.6699423200171 44.659107877532726 -19.98299837882044 #
coedge $-1 $302 $301 $346 $364 reversed $140 $-1 #
coedge $-1 $307 $303 $345 $364 forward $221 $-1 #
vertex $-1 $304 $365 #
straight-curve $-1 0 44.659107877532726 19.98299837882044 -1 0 0 I I #
point $-1 -39.29179661498506 44.659107877532726 19.98299837882044 #
vertex $-1 $364 $366 #
straight-curve $-1 0 -44.659107877532726 19.98299837882044 1 0 0 I I #
straight-curve $-1 -64.6699423200171 -44.659107877532726 0 0 0 -1 I I #
straight-curve $-1 -64.6699423200171 44.659107877532726 0 0 0 -1 I I #
straight-curve $-1 0 44.659107877532726 19.98299837882044 -1 0 0 I I #
straight-curve $-1 -39.291796614985046 44.659107877532726 79.363760873035702 0 0 1 I I #
point $-1 -39.29179661498506 44.659107877532726 19.98299837882044 #
point $-1 -29.491942458806946 37.705082885724046 12.275053996822304 #
straight-curve $-1 -39.291796614985046 -44.659107877532726 44.6571151741731 0 0 -1 I I #
straight-curve $-1 -39.29179661498506 0 19.98299837882044 0 -1 0 I I #
point $-1 -39.291796614985046 -44.659107877532726 7.9180048900796347 #
straight-curve $-1 -14.745971229403473 -44.659107877532726 7.9180048900796294 1 0 0 I I #
point $-1 -39.29179661498506 -44.659107877532726 19.98299837882044 #
point $-1 -29.491942458806946 -37.705082885724053 12.275053996822312 #
edge $-1 $347 -44.659107877532726 $350 44.659107877532726 $345 $367 forward 7 unknown #
point $-1 -64.6699423200171 44.659107877532726 19.98299837882044 #
point $-1 -64.6699423200171 -44.659107877532726 19.98299837882044 #
straight-curve $-1 -64.6699423200171 0 19.98299837882044 0 -1 0 I I #
End-of-ACIS-data 