500 0 12 0           
7 Unknown 11 ACIS 5.0 NT 24 Thu Mar 25 17:16:30 1999 
-1 9.9999999999999995e-007 1e-010 
body $-1 $12 $-1 $13 #
body $-1 $14 $-1 $15 #
body $-1 $16 $-1 $17 #
body $-1 $18 $-1 $19 #
body $-1 $20 $-1 $21 #
body $-1 $22 $-1 $23 #
body $-1 $24 $-1 $25 #
body $-1 $26 $-1 $27 #
body $-1 $28 $-1 $29 #
body $-1 $30 $-1 $31 #
body $-1 $32 $-1 $33 #
body $-1 $34 $-1 $35 #
lump $-1 $-1 $36 $0 #
transform $-1 1 0 0 0 1 0 0 0 1 59.598986785485394 38.61120186104808 10.528378136176407 1 rotate no_reflect no_shear #
lump $-1 $-1 $37 $1 #
transform $-1 1 0 0 0 1 0 0 0 1 59.598986785485394 38.61120186104808 10.528378136176407 1 rotate no_reflect no_shear #
lump $-1 $-1 $38 $2 #
transform $-1 1 0 0 0 1 0 0 0 1 59.598986785485394 38.61120186104808 10.528378136176407 1 rotate no_reflect no_shear #
lump $-1 $-1 $39 $3 #
transform $-1 1 0 0 0 1 0 0 0 1 59.598986785485394 38.61120186104808 10.528378136176407 1 rotate no_reflect no_shear #
lump $-1 $-1 $40 $4 #
transform $-1 1 0 0 0 1 0 0 0 1 59.598986785485394 38.61120186104808 10.528378136176407 1 rotate no_reflect no_shear #
lump $-1 $-1 $41 $5 #
transform $-1 1 0 0 0 1 0 0 0 1 59.598986785485394 38.61120186104808 10.528378136176407 1 rotate no_reflect no_shear #
lump $-1 $-1 $42 $6 #
transform $-1 1 0 0 0 1 0 0 0 1 59.598986785485394 38.61120186104808 10.528378136176407 1 rotate no_reflect no_shear #
lump $-1 $-1 $43 $7 #
transform $-1 1 0 0 0 1 0 0 0 1 59.598986785485394 38.61120186104808 10.528378136176407 1 rotate no_reflect no_shear #
lump $-1 $-1 $44 $8 #
transform $-1 1 0 0 0 1 0 0 0 1 59.598986785485394 38.61120186104808 10.528378136176407 1 rotate no_reflect no_shear #
lump $-1 $-1 $45 $9 #
transform $-1 1 0 0 0 1 0 0 0 1 59.598986785485394 38.61120186104808 10.528378136176407 1 rotate no_reflect no_shear #
lump $-1 $-1 $46 $10 #
transform $-1 1 0 0 0 1 0 0 0 1 59.598986785485394 38.61120186104808 10.528378136176407 1 rotate no_reflect no_shear #
lump $-1 $-1 $47 $11 #
transform $-1 1 0 0 0 1 0 0 0 1 59.598986785485394 38.61120186104808 10.528378136176407 1 rotate no_reflect no_shear #
shell $-1 $-1 $-1 $48 $-1 $12 #
shell $-1 $-1 $-1 $49 $-1 $14 #
shell $-1 $-1 $-1 $50 $-1 $16 #
shell $-1 $-1 $-1 $51 $-1 $18 #
shell $-1 $-1 $-1 $52 $-1 $20 #
shell $-1 $-1 $-1 $53 $-1 $22 #
shell $-1 $-1 $-1 $54 $-1 $24 #
shell $-1 $-1 $-1 $55 $-1 $26 #
shell $-1 $-1 $-1 $56 $-1 $28 #
shell $-1 $-1 $-1 $57 $-1 $30 #
shell $-1 $-1 $-1 $58 $-1 $32 #
shell $-1 $-1 $-1 $59 $-1 $34 #
face $-1 $60 $61 $36 $-1 $62 forward single #
face $-1 $63 $64 $37 $-1 $65 reversed single #
face $-1 $66 $67 $38 $-1 $68 reversed single #
face $-1 $69 $70 $39 $-1 $71 reversed single #
face $-1 $72 $73 $40 $-1 $74 forward single #
face $-1 $75 $76 $41 $-1 $77 forward single #
face $-1 $78 $79 $42 $-1 $80 reversed single #
face $-1 $81 $82 $43 $-1 $83 forward single #
face $-1 $84 $85 $44 $-1 $86 forward single #
face $-1 $87 $88 $45 $-1 $89 reversed single #
face $-1 $90 $91 $46 $-1 $92 forward single #
face $-1 $93 $94 $47 $-1 $95 forward single #
face $-1 $96 $97 $36 $-1 $98 reversed single #
loop $-1 $-1 $99 $48 #
plane-surface $-1 0 0 10.528378136176407 0 0 1 1 0 0 forward_v I I I I #
face $-1 $100 $101 $37 $-1 $102 reversed single #
loop $-1 $-1 $103 $49 #
plane-surface $-1 -53.911725090190401 0 5.3080479387687092 0 0 1 1 0 0 forward_v I I I I #
face $-1 $104 $105 $38 $-1 $106 reversed single #
loop $-1 $-1 $107 $50 #
plane-surface $-1 53.911725090190401 0 5.3080479387687092 0 0 1 1 0 0 forward_v I I I I #
face $-1 $108 $109 $39 $-1 $110 reversed single #
loop $-1 $-1 $111 $51 #
plane-surface $-1 -32.62647766728962 46.199777187964152 144.71047611360083 1 0 0 0 -0.5877852598018023 -0.80901698891910034 forward_v I I I I #
face $-1 $112 $113 $40 $-1 $114 forward single #
loop $-1 $115 $116 $52 #
cone-surface $-1 -26.963058785158125 30.797788760164877 3.1914210862459313 0 -0.5877852598018023 -0.80901698891910034 2.5 0 0 1 I I 0 1 2.5 forward I I I I #
face $-1 $117 $118 $41 $-1 $119 forward single #
loop $-1 $120 $121 $53 #
cone-surface $-1 -18.467930461960883 30.797788760164877 3.1914210862459313 0 -0.5877852598018023 -0.80901698891910034 2.5 0 0 1 I I 0 1 2.5 forward I I I I #
face $-1 $122 $123 $42 $-1 $124 reversed single #
loop $-1 $-1 $125 $54 #
plane-surface $-1 12.804511579829395 46.199777187964152 144.71047611360083 1 0 0 0 -0.5877852598018023 -0.80901698891910034 forward_v I I I I #
face $-1 $126 $127 $43 $-1 $128 forward single #
loop $-1 $129 $130 $55 #
cone-surface $-1 18.467930461960876 30.797788760164877 3.1914210862459313 0 -0.5877852598018023 -0.80901698891910034 2.5 0 0 1 I I 0 1 2.5 forward I I I I #
face $-1 $131 $132 $44 $-1 $133 forward single #
loop $-1 $134 $135 $56 #
cone-surface $-1 26.963058785158125 30.797788760164877 3.1914210862459313 0 -0.5877852598018023 -0.80901698891910034 2.5 0 0 1 I I 0 1 2.5 forward I I I I #
face $-1 $136 $137 $45 $-1 $138 reversed single #
loop $-1 $-1 $139 $57 #
plane-surface $-1 -17.500998607429118 -122.89689825470552 88.994061183142435 -1 0 0 0 -0.70710678939079041 0.70710677298230451 forward_v I I I I #
face $-1 $140 $141 $46 $-1 $142 forward single #
loop $-1 $143 $144 $58 #
cone-surface $-1 -36.632130528881959 -35.169803333736716 7.0869795536690852 0 0.70710678939079041 -0.70710677298230451 1 0 0 1 I I 0 1 1 forward I I I I #
face $-1 $145 $146 $47 $-1 $147 forward single #
loop $-1 $148 $149 $59 #
cone-surface $-1 -25.153451376010253 -35.169803333736716 7.0869795536690852 0 0.70710678939079041 -0.70710677298230451 1 0 0 1 I I 0 1 1 forward I I I I #
face $-1 $150 $151 $36 $-1 $152 reversed single #
loop $-1 $-1 $153 $60 #
plane-surface $-1 0 0 -10.528378136176407 0 0 1 1 0 0 forward_v I I I I #
coedge $-1 $154 $155 $156 $157 forward $61 $-1 #
face $-1 $158 $159 $37 $-1 $160 reversed single #
loop $-1 $-1 $161 $63 #
plane-surface $-1 -48.224463394895409 0 7.9182130374725581 -1 0 0 0 0 1 forward_v I I I I #
coedge $-1 $162 $163 $164 $165 forward $64 $-1 #
face $-1 $166 $167 $38 $-1 $168 forward single #
loop $-1 $-1 $169 $66 #
plane-surface $-1 48.224463394895409 0 7.9182130374725581 1 0 0 0 0 -1 forward_v I I I I #
coedge $-1 $170 $171 $172 $173 reversed $67 $-1 #
face $-1 $174 $175 $39 $-1 $176 reversed single #
loop $-1 $-1 $177 $69 #
plane-surface $-1 -22.715494623559508 -23.863034675297278 48.277290449955544 0 0.5877852598018023 0.80901698891910034 1 0 0 forward_v I I I I #
coedge $-1 $178 $179 $180 $181 reversed $70 $-1 #
face $-1 $-1 $182 $40 $-1 $183 forward single #
loop $-1 $184 $185 $72 #
cone-surface $-1 -26.963058785158125 27.508302646718271 -1.3361680395669993 0 -0.5877852598018023 -0.80901698891910034 1.25 0 0 1 I I -0.70710678118654746 0.70710678118654746 1.25 forward I I I I #
loop $-1 $-1 $186 $52 #
coedge $-1 $116 $116 $187 $188 reversed $73 $-1 #
face $-1 $-1 $189 $41 $-1 $190 forward single #
loop $-1 $191 $192 $75 #
cone-surface $-1 -18.467930461960883 27.508302646718271 -1.3361680395669993 0 -0.5877852598018023 -0.80901698891910034 1.25 0 0 1 I I -0.70710678118654746 0.70710678118654746 1.25 forward I I I I #
loop $-1 $-1 $193 $53 #
coedge $-1 $121 $121 $194 $195 reversed $76 $-1 #
face $-1 $196 $197 $42 $-1 $198 reversed single #
loop $-1 $-1 $199 $78 #
plane-surface $-1 22.715494623559508 -23.863034675297278 48.277290449955544 0 0.5877852598018023 0.80901698891910034 1 0 0 forward_v I I I I #
coedge $-1 $200 $201 $202 $203 reversed $79 $-1 #
face $-1 $-1 $204 $43 $-1 $205 forward single #
loop $-1 $206 $207 $81 #
cone-surface $-1 18.467930461960876 27.508302646718271 -1.3361680395669993 0 -0.5877852598018023 -0.80901698891910034 1.25 0 0 1 I I -0.70710678118654746 0.70710678118654746 1.25 forward I I I I #
loop $-1 $-1 $208 $55 #
coedge $-1 $130 $130 $209 $210 reversed $82 $-1 #
face $-1 $-1 $211 $44 $-1 $212 forward single #
loop $-1 $213 $214 $84 #
cone-surface $-1 26.963058785158125 27.508302646718271 -1.3361680395669993 0 -0.5877852598018023 -0.80901698891910034 1.25 0 0 1 I I -0.70710678118654746 0.70710678118654746 1.25 forward I I I I #
loop $-1 $-1 $215 $56 #
coedge $-1 $135 $135 $216 $217 reversed $85 $-1 #
face $-1 $218 $219 $45 $-1 $220 reversed single #
loop $-1 $-1 $221 $87 #
plane-surface $-1 -30.892790952446106 -38.611201861048073 4.7083667453432554 0 -0.70710678939079041 0.70710677298230451 1 0 0 forward_v I I I I #
coedge $-1 $222 $223 $224 $225 reversed $88 $-1 #
face $-1 $-1 $226 $46 $-1 $227 forward single #
loop $-1 $228 $229 $90 #
cone-surface $-1 -36.632130528881959 -34.284857039619538 6.2020332800871785 0 0.70710678939079041 -0.70710677298230451 0.5 0 0 1 I I -0.70710678118654746 0.70710678118654746 0.5 forward I I I I #
loop $-1 $-1 $230 $58 #
coedge $-1 $144 $144 $231 $232 reversed $91 $-1 #
face $-1 $-1 $233 $47 $-1 $234 forward single #
loop $-1 $235 $236 $93 #
cone-surface $-1 -25.153451376010253 -34.284857039619538 6.2020332800871785 0 0.70710678939079041 -0.70710677298230451 0.5 0 0 1 I I -0.70710678118654746 0.70710678118654746 0.5 forward I I I I #
loop $-1 $-1 $237 $59 #
coedge $-1 $149 $149 $238 $239 reversed $94 $-1 #
face $-1 $240 $241 $36 $-1 $242 reversed single #
loop $-1 $-1 $243 $96 #
plane-surface $-1 0 -38.61120186104808 0 0 1 0 0 0 1 forward_v I I I I #
coedge $-1 $244 $245 $246 $247 forward $97 $-1 #
coedge $-1 $248 $99 $249 $250 forward $61 $-1 #
coedge $-1 $99 $248 $251 $252 forward $61 $-1 #
coedge $-1 $253 $254 $99 $157 reversed $255 $-1 #
edge $-1 $256 -38.61120186104808 $257 38.61120186104808 $156 $258 forward 7 unknown #
face $-1 $259 $260 $37 $-1 $261 reversed single #
loop $-1 $-1 $262 $100 #
plane-surface $-1 0 38.61120186104808 0 0 -1 0 0 0 -1 forward_v I I I I #
coedge $-1 $164 $263 $264 $265 reversed $101 $-1 #
coedge $-1 $266 $103 $267 $268 reversed $64 $-1 #
coedge $-1 $103 $266 $269 $270 reversed $64 $-1 #
coedge $-1 $271 $161 $103 $165 reversed $101 $-1 #
edge $-1 $272 -38.61120186104808 $273 38.61120186104808 $164 $274 forward 7 unknown #
face $-1 $275 $276 $38 $-1 $277 reversed single #
loop $-1 $-1 $278 $104 #
plane-surface $-1 0 0 10.528378136176407 0 0 1 1 0 0 forward_v I I I I #
coedge $-1 $279 $280 $281 $282 reversed $105 $-1 #
coedge $-1 $283 $107 $284 $285 reversed $67 $-1 #
coedge $-1 $107 $283 $286 $287 reversed $67 $-1 #
coedge $-1 $288 $289 $107 $173 forward $290 $-1 #
edge $-1 $291 -38.61120186104808 $292 38.61120186104808 $172 $293 forward 7 unknown #
face $-1 $294 $295 $39 $-1 $296 reversed single #
loop $-1 $-1 $297 $108 #
plane-surface $-1 -12.804511579829395 46.199777187964152 144.71047611360083 -1 0 0 0 0.5877852598018023 0.80901698891910034 forward_v I I I I #
coedge $-1 $298 $299 $300 $301 reversed $109 $-1 #
coedge $-1 $179 $111 $302 $303 reversed $70 $-1 #
coedge $-1 $111 $178 $298 $304 reversed $70 $-1 #
coedge $-1 $300 $305 $111 $181 forward $306 $-1 #
edge $-1 $307 -15.511313267066004 $308 -4.9939961426883634 $180 $309 forward 7 unknown #
loop $-1 $-1 $187 $112 #
plane-surface $-1 -22.715494623559508 -23.863034675297278 48.277290449955544 0 0.5877852598018023 0.80901698891910034 1 0 0 forward_v I I I I #
loop $-1 $-1 $310 $72 #
coedge $-1 $185 $185 $186 $311 reversed $113 $-1 #
coedge $-1 $186 $186 $185 $311 forward $115 $-1 #
coedge $-1 $187 $187 $116 $188 forward $182 $-1 #
edge $-1 $312 -8.3991023781250511e-016 $312 6.2831853071795996 $187 $313 forward 7 unknown #
loop $-1 $-1 $194 $117 #
plane-surface $-1 -22.715494623559508 -23.863034675297278 48.277290449955544 0 0.5877852598018023 0.80901698891910034 1 0 0 forward_v I I I I #
loop $-1 $-1 $314 $75 #
coedge $-1 $192 $192 $193 $315 reversed $118 $-1 #
coedge $-1 $193 $193 $192 $315 forward $120 $-1 #
coedge $-1 $194 $194 $121 $195 forward $189 $-1 #
edge $-1 $316 -8.3991023781250511e-016 $316 6.2831853071795996 $194 $317 forward 7 unknown #
face $-1 $318 $319 $42 $-1 $320 forward single #
loop $-1 $-1 $321 $122 #
plane-surface $-1 32.62647766728962 46.199777187964152 144.71047611360083 -1 0 0 0 0.5877852598018023 0.80901698891910034 forward_v I I I I #
coedge $-1 $322 $323 $324 $325 reversed $123 $-1 #
coedge $-1 $201 $125 $326 $327 reversed $79 $-1 #
coedge $-1 $125 $200 $322 $328 reversed $79 $-1 #
coedge $-1 $324 $329 $125 $203 forward $319 $-1 #
edge $-1 $330 -15.511313267066004 $331 -4.9939961426883634 $202 $332 forward 7 unknown #
loop $-1 $-1 $209 $126 #
plane-surface $-1 22.715494623559508 -23.863034675297278 48.277290449955544 0 0.5877852598018023 0.80901698891910034 1 0 0 forward_v I I I I #
loop $-1 $-1 $333 $81 #
coedge $-1 $207 $207 $208 $334 reversed $127 $-1 #
coedge $-1 $208 $208 $207 $334 forward $129 $-1 #
coedge $-1 $209 $209 $130 $210 forward $204 $-1 #
edge $-1 $335 -8.3991023781250511e-016 $335 6.2831853071795996 $209 $336 forward 7 unknown #
loop $-1 $-1 $216 $131 #
plane-surface $-1 22.715494623559508 -23.863034675297278 48.277290449955544 0 0.5877852598018023 0.80901698891910034 1 0 0 forward_v I I I I #
loop $-1 $-1 $337 $84 #
coedge $-1 $214 $214 $215 $338 reversed $132 $-1 #
coedge $-1 $215 $215 $214 $338 forward $134 $-1 #
coedge $-1 $216 $216 $135 $217 forward $211 $-1 #
edge $-1 $339 -8.3991023781250511e-016 $339 6.2831853071795996 $216 $340 forward 7 unknown #
face $-1 $341 $342 $45 $-1 $343 forward single #
loop $-1 $-1 $344 $136 #
plane-surface $-1 -44.284583297463094 -122.89689825470552 88.994061183142435 1 0 0 0 0.70710678939079041 -0.70710677298230451 forward_v I I I I #
coedge $-1 $345 $346 $347 $348 reversed $137 $-1 #
coedge $-1 $223 $139 $349 $350 reversed $88 $-1 #
coedge $-1 $139 $222 $345 $351 reversed $88 $-1 #
coedge $-1 $347 $352 $139 $225 forward $342 $-1 #
edge $-1 $353 22.837247266304679 $354 28.657258522083872 $224 $355 forward 7 unknown #
loop $-1 $-1 $231 $140 #
plane-surface $-1 -30.892790952446106 -38.611201861048073 4.7083667453432554 0 -0.70710678939079041 0.70710677298230451 1 0 0 forward_v I I I I #
loop $-1 $-1 $356 $90 #
coedge $-1 $229 $229 $230 $357 reversed $141 $-1 #
coedge $-1 $230 $230 $229 $357 forward $143 $-1 #
coedge $-1 $231 $231 $144 $232 forward $226 $-1 #
edge $-1 $358 2.3317860796066896e-022 $358 6.2831853071796004 $231 $359 forward 7 unknown #
loop $-1 $-1 $238 $145 #
plane-surface $-1 -30.892790952446106 -38.611201861048073 4.7083667453432554 0 -0.70710678939079041 0.70710677298230451 1 0 0 forward_v I I I I #
loop $-1 $-1 $360 $93 #
coedge $-1 $236 $236 $237 $361 reversed $146 $-1 #
coedge $-1 $237 $237 $236 $361 forward $148 $-1 #
coedge $-1 $238 $238 $149 $239 forward $233 $-1 #
edge $-1 $362 2.3317860796066896e-022 $362 6.2831853071796004 $238 $363 forward 7 unknown #
face $-1 $364 $365 $36 $-1 $366 reversed single #
loop $-1 $-1 $367 $150 #
plane-surface $-1 -59.598986785485394 0 0 1 0 0 0 0 -1 forward_v I I I I #
coedge $-1 $368 $251 $369 $370 forward $151 $-1 #
coedge $-1 $371 $153 $368 $372 forward $97 $-1 #
coedge $-1 $153 $371 $373 $374 forward $97 $-1 #
coedge $-1 $254 $253 $153 $247 reversed $255 $-1 #
edge $-1 $375 -38.61120186104808 $376 38.61120186104808 $246 $377 forward 7 unknown #
coedge $-1 $155 $154 $378 $379 forward $61 $-1 #
coedge $-1 $380 $381 $154 $250 reversed $365 $-1 #
edge $-1 $257 -59.598986785485394 $382 59.598986785485394 $249 $383 forward 7 unknown #
coedge $-1 $243 $384 $155 $252 reversed $151 $-1 #
edge $-1 $385 -59.598986785485394 $256 59.598986785485394 $251 $386 forward 7 unknown #
coedge $-1 $246 $156 $384 $387 forward $255 $-1 #
coedge $-1 $156 $246 $380 $388 reversed $255 $-1 #
loop $-1 $-1 $253 $364 #
vertex $-1 $157 $389 #
vertex $-1 $157 $390 #
straight-curve $-1 59.598986785485394 0 10.528378136176407 0 1 0 I I #
face $-1 $391 $392 $37 $-1 $393 forward single #
loop $-1 $-1 $394 $158 #
plane-surface $-1 -59.598986785485394 0 0 1 0 0 0 0 -1 forward_v I I I I #
coedge $-1 $269 $395 $271 $396 forward $159 $-1 #
coedge $-1 $161 $271 $397 $398 reversed $101 $-1 #
coedge $-1 $399 $267 $161 $265 forward $400 $-1 #
edge $-1 $273 1.3489414200324301 $401 6.569271617440128 $264 $402 forward 7 unknown #
coedge $-1 $163 $162 $394 $403 reversed $64 $-1 #
coedge $-1 $264 $404 $162 $268 forward $400 $-1 #
edge $-1 $405 -32.643124240390193 $273 -21.268600849800208 $267 $406 forward 7 unknown #
coedge $-1 $407 $262 $163 $270 forward $159 $-1 #
edge $-1 $272 21.268600849800208 $408 32.643124240390193 $269 $409 forward 7 unknown #
coedge $-1 $263 $164 $262 $396 reversed $101 $-1 #
vertex $-1 $270 $410 #
vertex $-1 $268 $411 #
straight-curve $-1 -48.224463394895409 0 5.3080479387687092 0 -1 0 I I #
face $-1 $412 $413 $38 $-1 $414 reversed single #
loop $-1 $-1 $415 $166 #
plane-surface $-1 0 -38.61120186104808 0 0 1 0 0 0 1 forward_v I I I I #
coedge $-1 $416 $417 $280 $418 forward $167 $-1 #
coedge $-1 $419 $169 $283 $420 reversed $105 $-1 #
coedge $-1 $169 $419 $278 $418 reversed $105 $-1 #
coedge $-1 $421 $286 $169 $282 forward $413 $-1 #
edge $-1 $422 1.3489414200324301 $423 6.569271617440128 $281 $424 forward 7 unknown #
coedge $-1 $171 $170 $279 $420 forward $67 $-1 #
coedge $-1 $425 $415 $170 $285 forward $276 $-1 #
edge $-1 $426 21.268600849800208 $291 32.643124240390193 $284 $427 forward 7 unknown #
coedge $-1 $281 $428 $171 $287 forward $413 $-1 #
edge $-1 $292 -32.643124240390193 $422 -21.268600849800208 $286 $429 forward 7 unknown #
coedge $-1 $430 $172 $428 $431 reversed $290 $-1 #
coedge $-1 $172 $430 $425 $432 forward $290 $-1 #
loop $-1 $-1 $172 $412 #
vertex $-1 $285 $433 #
vertex $-1 $173 $434 #
straight-curve $-1 59.598986785485394 0 5.3080479387687092 0 1 0 I I #
face $-1 $-1 $306 $39 $-1 $435 forward single #
loop $-1 $-1 $436 $174 #
plane-surface $-1 0 38.61120186104808 0 0 -1 0 0 0 -1 forward_v I I I I #
coedge $-1 $437 $438 $439 $440 reversed $175 $-1 #
coedge $-1 $441 $177 $179 $304 forward $109 $-1 #
coedge $-1 $177 $441 $437 $442 forward $109 $-1 #
coedge $-1 $439 $180 $177 $301 forward $306 $-1 #
edge $-1 $308 -21.268730355509867 $443 -1.4467642680496411 $300 $444 forward 7 unknown #
coedge $-1 $445 $446 $178 $303 forward $295 $-1 #
edge $-1 $447 -69.468138241156822 $307 -61.82685992062401 $302 $448 forward 7 unknown #
edge $-1 $308 64.222284727772603 $447 77.222403722096161 $179 $449 forward 7 unknown #
coedge $-1 $180 $439 $445 $450 forward $306 $-1 #
loop $-1 $-1 $439 $294 #
vertex $-1 $303 $451 #
vertex $-1 $181 $452 #
straight-curve $-1 -32.62647766728962 23.099888593982076 10.528378136176414 0 -1 0 I I #
coedge $-1 $310 $310 $-1 $453 reversed $184 $-1 #
edge $-1 $454 0 $454 6.2831853071796004 $185 $455 forward 7 unknown #
vertex $-1 $188 $456 #
ellipse-curve $-1 -26.963058785158125 33.352543298859246 6.7077389759100026 0 0.5877852598018023 0.80901698891910034 2.5 0 0 1 I I #
coedge $-1 $314 $314 $-1 $457 reversed $191 $-1 #
edge $-1 $458 0 $458 6.2831853071796004 $192 $459 forward 7 unknown #
vertex $-1 $195 $460 #
ellipse-curve $-1 -18.467930461960883 33.352543298859246 6.7077389759100026 0 0.5877852598018023 0.80901698891910034 2.5 0 0 1 I I #
face $-1 $-1 $461 $42 $-1 $462 reversed single #
loop $-1 $-1 $202 $196 #
plane-surface $-1 0 0 10.528378136176407 0 0 1 1 0 0 forward_v I I I I #
coedge $-1 $463 $464 $465 $466 reversed $197 $-1 #
coedge $-1 $467 $199 $201 $328 forward $123 $-1 #
coedge $-1 $199 $467 $463 $468 forward $123 $-1 #
coedge $-1 $465 $202 $199 $325 forward $319 $-1 #
edge $-1 $331 1.4467642680496411 $469 21.268730355509867 $324 $470 forward 7 unknown #
coedge $-1 $471 $472 $200 $327 forward $461 $-1 #
edge $-1 $473 -69.468138241156822 $330 -61.82685992062401 $326 $474 forward 7 unknown #
edge $-1 $331 64.222284727772603 $473 77.222403722096161 $201 $475 forward 7 unknown #
coedge $-1 $202 $465 $471 $476 forward $319 $-1 #
vertex $-1 $203 $477 #
vertex $-1 $203 $478 #
straight-curve $-1 12.804511579829395 23.099888593982076 10.528378136176414 0 -1 0 I I #
coedge $-1 $333 $333 $-1 $479 reversed $206 $-1 #
edge $-1 $480 0 $480 6.2831853071796004 $207 $481 forward 7 unknown #
vertex $-1 $210 $482 #
ellipse-curve $-1 18.467930461960876 33.352543298859246 6.7077389759100026 0 0.5877852598018023 0.80901698891910034 2.5 0 0 1 I I #
coedge $-1 $337 $337 $-1 $483 reversed $213 $-1 #
edge $-1 $484 0 $484 6.2831853071796004 $214 $485 forward 7 unknown #
vertex $-1 $217 $486 #
ellipse-curve $-1 26.963058785158125 33.352543298859246 6.7077389759100026 0 0.5877852598018023 0.80901698891910034 2.5 0 0 1 I I #
face $-1 $-1 $487 $45 $-1 $488 reversed single #
loop $-1 $-1 $224 $218 #
plane-surface $-1 0 0 10.528378136176407 0 0 1 1 0 0 forward_v I I I I #
coedge $-1 $489 $490 $491 $492 reversed $219 $-1 #
coedge $-1 $493 $221 $223 $351 forward $137 $-1 #
coedge $-1 $221 $493 $489 $494 forward $137 $-1 #
coedge $-1 $491 $224 $221 $348 forward $342 $-1 #
edge $-1 $354 2.0546031312060649 $495 28.838187821240041 $347 $496 forward 7 unknown #
coedge $-1 $497 $498 $222 $350 forward $487 $-1 #
edge $-1 $499 -39.788663846227969 $353 -33.96865245539481 $349 $500 forward 7 unknown #
edge $-1 $354 -8.2307389465845713 $499 1.0048591735576163e-014 $223 $501 forward 7 unknown #
coedge $-1 $224 $491 $497 $502 forward $342 $-1 #
vertex $-1 $350 $503 #
vertex $-1 $225 $504 #
straight-curve $-1 -17.500998607429118 -61.44844912735276 10.528378136176407 0 1 0 I I #
coedge $-1 $356 $356 $-1 $505 reversed $228 $-1 #
edge $-1 $506 0 $506 6.2831853071796004 $229 $507 forward 7 unknown #
vertex $-1 $232 $508 #
ellipse-curve $-1 -36.632130528881959 -35.701196233158484 7.6183724407598259 0 -0.70710678939079041 0.70710677298230451 1 0 0 1 I I #
coedge $-1 $360 $360 $-1 $509 reversed $235 $-1 #
edge $-1 $510 0 $510 6.2831853071796004 $236 $511 forward 7 unknown #
vertex $-1 $239 $512 #
ellipse-curve $-1 -25.153451376010253 -35.701196233158484 7.6183724407598259 0 -0.70710678939079041 0.70710677298230451 1 0 0 1 I I #
face $-1 $-1 $255 $36 $-1 $513 reversed single #
loop $-1 $-1 $380 $240 #
plane-surface $-1 0 38.61120186104808 0 0 -1 0 0 0 -1 forward_v I I I I #
coedge $-1 $514 $378 $381 $515 forward $241 $-1 #
coedge $-1 $384 $243 $244 $372 reversed $151 $-1 #
coedge $-1 $378 $514 $243 $370 reversed $241 $-1 #
edge $-1 $385 -10.528378136176407 $516 10.528378136176407 $369 $517 forward 7 unknown #
coedge $-1 $245 $244 $514 $518 forward $97 $-1 #
edge $-1 $376 -59.598986785485394 $516 59.598986785485394 $368 $519 forward 7 unknown #
coedge $-1 $381 $380 $245 $374 reversed $365 $-1 #
edge $-1 $520 -59.598986785485394 $375 59.598986785485394 $373 $521 forward 7 unknown #
vertex $-1 $247 $522 #
vertex $-1 $387 $523 #
straight-curve $-1 59.598986785485394 0 -10.528378136176407 0 -1 0 I I #
coedge $-1 $367 $369 $248 $379 reversed $241 $-1 #
edge $-1 $382 -38.61120186104808 $385 38.61120186104808 $378 $524 forward 7 unknown #
coedge $-1 $373 $249 $254 $388 forward $365 $-1 #
coedge $-1 $249 $373 $367 $515 reversed $365 $-1 #
vertex $-1 $250 $525 #
straight-curve $-1 0 38.61120186104808 10.528378136176407 -1 0 0 I I #
coedge $-1 $251 $368 $253 $387 reversed $151 $-1 #
vertex $-1 $379 $526 #
straight-curve $-1 0 -38.61120186104808 10.528378136176407 1 0 0 I I #
edge $-1 $256 -10.528378136176407 $376 10.528378136176407 $253 $527 forward 7 unknown #
edge $-1 $257 -10.528378136176407 $375 10.528378136176407 $254 $528 forward 7 unknown #
point $-1 59.598986785485394 -38.61120186104808 10.528378136176407 #
point $-1 59.598986785485394 38.61120186104808 10.528378136176407 #
face $-1 $-1 $400 $37 $-1 $529 reversed single #
loop $-1 $-1 $397 $259 #
plane-surface $-1 0 0 10.528378136176407 0 0 1 1 0 0 forward_v I I I I #
coedge $-1 $530 $531 $266 $403 forward $260 $-1 #
coedge $-1 $262 $407 $532 $533 reversed $159 $-1 #
edge $-1 $534 -6.569271617440128 $272 -1.3489414200324301 $262 $535 forward 7 unknown #
coedge $-1 $532 $536 $263 $398 forward $392 $-1 #
edge $-1 $401 -38.61120186104808 $534 38.61120186104808 $397 $537 forward 7 unknown #
coedge $-1 $404 $264 $536 $538 reversed $400 $-1 #
loop $-1 $-1 $264 $391 #
vertex $-1 $265 $539 #
straight-curve $-1 -48.224463394895409 -38.61120186104808 3.9591065187362791 0 0 1 I I #
edge $-1 $408 -38.61120186104808 $405 38.61120186104808 $394 $540 forward 7 unknown #
coedge $-1 $267 $399 $530 $541 forward $400 $-1 #
vertex $-1 $403 $542 #
straight-curve $-1 -26.955862545095201 -38.61120186104808 5.3080479387687092 1 0 0 I I #
coedge $-1 $395 $269 $531 $543 reversed $159 $-1 #
vertex $-1 $403 $544 #
straight-curve $-1 -26.955862545095201 38.61120186104808 5.3080479387687092 -1 0 0 I I #
point $-1 -48.224463394895409 38.61120186104808 5.3080479387687092 #
point $-1 -48.224463394895409 -38.61120186104808 5.3080479387687092 #
face $-1 $-1 $290 $38 $-1 $545 reversed single #
loop $-1 $-1 $281 $275 #
plane-surface $-1 0 38.61120186104808 0 0 -1 0 0 0 -1 forward_v I I I I #
coedge $-1 $284 $546 $419 $547 forward $276 $-1 #
coedge $-1 $548 $278 $546 $549 forward $167 $-1 #
coedge $-1 $278 $548 $421 $550 forward $167 $-1 #
edge $-1 $423 -38.61120186104808 $551 38.61120186104808 $278 $552 forward 7 unknown #
coedge $-1 $280 $279 $415 $547 reversed $105 $-1 #
edge $-1 $426 -38.61120186104808 $422 38.61120186104808 $279 $553 forward 7 unknown #
coedge $-1 $428 $281 $417 $550 reversed $413 $-1 #
vertex $-1 $287 $554 #
vertex $-1 $282 $555 #
straight-curve $-1 48.224463394895409 38.61120186104808 3.9591065187362791 0 0 1 I I #
coedge $-1 $546 $284 $289 $432 reversed $276 $-1 #
vertex $-1 $285 $556 #
straight-curve $-1 26.955862545095201 -38.61120186104808 5.3080479387687092 1 0 0 I I #
coedge $-1 $286 $421 $288 $431 forward $413 $-1 #
straight-curve $-1 26.955862545095201 38.61120186104808 5.3080479387687092 -1 0 0 I I #
coedge $-1 $289 $288 $548 $557 reversed $290 $-1 #
edge $-1 $558 -10.528378136176407 $292 -5.3080479387687092 $288 $559 forward 7 unknown #
edge $-1 $560 -10.528378136176407 $291 -5.3080479387687092 $289 $561 forward 7 unknown #
point $-1 59.598986785485394 -38.61120186104808 5.3080479387687092 #
point $-1 59.598986785485394 38.61120186104808 5.3080479387687092 #
plane-surface $-1 0 0 10.528378136176407 0 0 1 1 0 0 forward_v I I I I #
coedge $-1 $446 $445 $438 $562 forward $295 $-1 #
coedge $-1 $438 $297 $299 $442 reversed $175 $-1 #
coedge $-1 $297 $437 $436 $562 reversed $175 $-1 #
coedge $-1 $305 $300 $297 $440 forward $306 $-1 #
edge $-1 $443 4.9939961426883634 $563 15.511313267066004 $439 $564 forward 7 unknown #
coedge $-1 $299 $298 $446 $565 reversed $109 $-1 #
edge $-1 $566 -77.222403722096161 $443 -64.222284727772603 $437 $567 forward 7 unknown #
vertex $-1 $301 $568 #
straight-curve $-1 -11.357747311779754 28.093884736670436 10.528378136176404 1 0 0 I I #
coedge $-1 $436 $302 $305 $450 reversed $295 $-1 #
coedge $-1 $302 $436 $441 $565 forward $295 $-1 #
vertex $-1 $303 $569 #
straight-curve $-1 -32.62647766728962 38.61120186104808 72.355238056800417 0 0 1 I I #
straight-curve $-1 -32.62647766728962 -23.863034675297278 48.277290449955544 0 0.80901698891910034 -0.5877852598018023 I I #
edge $-1 $563 12.804511579829395 $307 32.62647766728962 $445 $570 forward 7 unknown #
point $-1 -32.62647766728962 38.61120186104808 10.528378136176407 #
point $-1 -32.62647766728962 28.093884736670439 10.528378136176407 #
edge $-1 $571 1 $571 0 $310 $-1 forward 7 unknown #
vertex $-1 $311 $572 #
ellipse-curve $-1 -26.963058785158125 28.243034221470523 -0.32489680341812388 0 0.5877852598018023 0.80901698891910034 2.5 0 0 1 I I #
point $-1 -24.463058785158125 33.352543298859231 6.7077389759099866 #
edge $-1 $573 1 $573 0 $314 $-1 forward 7 unknown #
vertex $-1 $315 $574 #
ellipse-curve $-1 -18.467930461960883 28.243034221470523 -0.32489680341812388 0 0.5877852598018023 0.80901698891910034 2.5 0 0 1 I I #
point $-1 -15.967930461960883 33.352543298859231 6.7077389759099866 #
loop $-1 $-1 $326 $318 #
plane-surface $-1 0 38.61120186104808 0 0 -1 0 0 0 -1 forward_v I I I I #
coedge $-1 $464 $321 $323 $468 reversed $197 $-1 #
coedge $-1 $321 $463 $575 $576 reversed $197 $-1 #
coedge $-1 $329 $324 $321 $466 forward $319 $-1 #
edge $-1 $469 4.9939961426883634 $577 15.511313267066004 $465 $578 forward 7 unknown #
coedge $-1 $323 $322 $472 $579 reversed $123 $-1 #
edge $-1 $580 -77.222403722096161 $469 -64.222284727772603 $463 $581 forward 7 unknown #
vertex $-1 $325 $582 #
straight-curve $-1 11.357747311779754 28.093884736670436 10.528378136176404 1 0 0 I I #
coedge $-1 $575 $326 $329 $476 reversed $461 $-1 #
coedge $-1 $326 $575 $467 $579 forward $461 $-1 #
vertex $-1 $327 $583 #
straight-curve $-1 12.804511579829395 38.61120186104808 72.355238056800417 0 0 1 I I #
straight-curve $-1 12.804511579829395 -23.863034675297278 48.277290449955544 0 0.80901698891910034 -0.5877852598018023 I I #
edge $-1 $577 -32.62647766728962 $330 -12.804511579829395 $471 $584 forward 7 unknown #
point $-1 12.804511579829395 38.61120186104808 10.528378136176407 #
point $-1 12.804511579829395 28.093884736670439 10.528378136176407 #
edge $-1 $585 1 $585 0 $333 $-1 forward 7 unknown #
vertex $-1 $334 $586 #
ellipse-curve $-1 18.467930461960876 28.243034221470523 -0.32489680341812388 0 0.5877852598018023 0.80901698891910034 2.5 0 0 1 I I #
point $-1 20.967930461960876 33.352543298859231 6.7077389759099866 #
edge $-1 $587 1 $587 0 $337 $-1 forward 7 unknown #
vertex $-1 $338 $588 #
ellipse-curve $-1 26.963058785158125 28.243034221470523 -0.32489680341812388 0 0.5877852598018023 0.80901698891910034 2.5 0 0 1 I I #
point $-1 29.463058785158125 33.352543298859231 6.7077389759099866 #
loop $-1 $-1 $349 $341 #
plane-surface $-1 0 -38.61120186104808 0 0 1 0 0 0 1 forward_v I I I I #
coedge $-1 $490 $344 $346 $494 reversed $219 $-1 #
coedge $-1 $344 $489 $589 $590 reversed $219 $-1 #
coedge $-1 $352 $347 $344 $492 forward $342 $-1 #
edge $-1 $495 -28.657258522083872 $591 -22.837247266304679 $491 $592 forward 7 unknown #
coedge $-1 $346 $345 $498 $593 reversed $137 $-1 #
edge $-1 $594 -1.0048591735576163e-014 $495 8.2307389465845713 $489 $595 forward 7 unknown #
vertex $-1 $348 $596 #
straight-curve $-1 -15.446395476223053 -32.791190605268881 10.528378136176407 -1 0 0 I I #
coedge $-1 $589 $349 $352 $502 reversed $487 $-1 #
coedge $-1 $349 $589 $493 $593 forward $487 $-1 #
vertex $-1 $350 $597 #
straight-curve $-1 -17.500998607429118 -38.61120186104808 44.497030591571217 0 0 1 I I #
straight-curve $-1 -17.500998607429118 -38.611201861048073 4.7083667453432554 0 -0.70710677298230451 -0.70710678939079041 I I #
edge $-1 $591 -44.284583297463094 $353 -17.500998607429118 $497 $598 forward 7 unknown #
point $-1 -17.500998607429118 -38.61120186104808 10.528378136176407 #
point $-1 -17.500998607429118 -32.791190605268888 10.528378136176407 #
edge $-1 $599 1 $599 0 $356 $-1 forward 7 unknown #
vertex $-1 $357 $600 #
ellipse-curve $-1 -36.632130528881959 -34.638410434314935 6.5555866665783311 0 -0.70710678939079041 0.70710677298230451 1 0 0 1 I I #
point $-1 -35.632130528881959 -35.701196233158498 7.6183724407598401 #
edge $-1 $601 1 $601 0 $360 $-1 forward 7 unknown #
vertex $-1 $361 $602 #
ellipse-curve $-1 -25.153451376010253 -34.638410434314935 6.5555866665783311 0 -0.70710678939079041 0.70710677298230451 1 0 0 1 I I #
point $-1 -24.153451376010253 -35.701196233158498 7.6183724407598401 #
plane-surface $-1 59.598986785485394 0 0 -1 0 0 0 0 1 forward_v I I I I #
coedge $-1 $369 $367 $371 $518 reversed $241 $-1 #
edge $-1 $382 -10.528378136176407 $520 10.528378136176407 $381 $603 forward 7 unknown #
vertex $-1 $518 $604 #
straight-curve $-1 -59.598986785485394 -38.61120186104808 0 0 0 -1 I I #
edge $-1 $516 -38.61120186104808 $520 38.61120186104808 $514 $605 forward 7 unknown #
straight-curve $-1 0 -38.61120186104808 -10.528378136176407 -1 0 0 I I #
vertex $-1 $374 $606 #
straight-curve $-1 0 38.61120186104808 -10.528378136176407 1 0 0 I I #
point $-1 59.598986785485394 38.61120186104808 -10.528378136176407 #
point $-1 59.598986785485394 -38.61120186104808 -10.528378136176407 #
straight-curve $-1 -59.598986785485394 0 10.528378136176407 0 -1 0 I I #
point $-1 -59.598986785485394 38.61120186104808 10.528378136176407 #
point $-1 -59.598986785485394 -38.61120186104808 10.528378136176407 #
straight-curve $-1 59.598986785485394 -38.61120186104808 0 0 0 -1 I I #
straight-curve $-1 59.598986785485394 38.61120186104808 0 0 0 -1 I I #
plane-surface $-1 0 -38.61120186104808 0 0 1 0 0 0 1 forward_v I I I I #
coedge $-1 $607 $394 $404 $541 reversed $260 $-1 #
coedge $-1 $394 $607 $407 $543 forward $260 $-1 #
coedge $-1 $608 $397 $395 $533 forward $392 $-1 #
edge $-1 $534 48.224463394895409 $609 59.598986785485394 $395 $610 forward 7 unknown #
vertex $-1 $533 $611 #
straight-curve $-1 -48.224463394895409 38.61120186104808 3.9591065187362791 0 0 -1 I I #
coedge $-1 $397 $608 $399 $538 forward $392 $-1 #
straight-curve $-1 -48.224463394895409 0 10.528378136176407 0 1 0 I I #
edge $-1 $612 -59.598986785485394 $401 -48.224463394895409 $399 $613 forward 7 unknown #
point $-1 -48.224463394895409 -38.61120186104808 10.528378136176407 #
straight-curve $-1 -59.598986785485394 0 5.3080479387687092 0 -1 0 I I #
edge $-1 $612 -10.528378136176407 $405 -5.3080479387687092 $530 $614 forward 7 unknown #
point $-1 -59.598986785485394 -38.61120186104808 5.3080479387687092 #
edge $-1 $609 -10.528378136176407 $408 -5.3080479387687092 $407 $615 forward 7 unknown #
point $-1 -59.598986785485394 38.61120186104808 5.3080479387687092 #
plane-surface $-1 59.598986785485394 0 0 -1 0 0 0 0 1 forward_v I I I I #
coedge $-1 $415 $425 $416 $549 reversed $276 $-1 #
edge $-1 $551 -6.569271617440128 $426 -1.3489414200324301 $415 $616 forward 7 unknown #
coedge $-1 $417 $416 $430 $557 forward $167 $-1 #
edge $-1 $551 48.224463394895409 $560 59.598986785485394 $546 $617 forward 7 unknown #
edge $-1 $558 -59.598986785485394 $423 -48.224463394895409 $421 $618 forward 7 unknown #
vertex $-1 $549 $619 #
straight-curve $-1 48.224463394895409 0 10.528378136176407 0 -1 0 I I #
straight-curve $-1 48.224463394895409 0 5.3080479387687092 0 1 0 I I #
point $-1 48.224463394895409 38.61120186104808 5.3080479387687092 #
point $-1 48.224463394895409 38.61120186104808 10.528378136176407 #
point $-1 48.224463394895409 -38.61120186104808 5.3080479387687092 #
edge $-1 $560 -38.61120186104808 $558 38.61120186104808 $430 $620 forward 7 unknown #
vertex $-1 $557 $621 #
straight-curve $-1 59.598986785485394 38.61120186104808 0 0 0 -1 I I #
vertex $-1 $557 $622 #
straight-curve $-1 59.598986785485394 -38.61120186104808 0 0 0 -1 I I #
edge $-1 $563 61.82685992062401 $566 69.468138241156822 $436 $623 forward 7 unknown #
vertex $-1 $450 $624 #
straight-curve $-1 -12.804511579829395 23.099888593982076 10.528378136176414 0 1 0 I I #
edge $-1 $566 1.4467642680496411 $447 21.268730355509867 $446 $625 forward 7 unknown #
vertex $-1 $565 $626 #
straight-curve $-1 -12.804511579829395 -23.863034675297278 48.277290449955544 0 -0.80901698891910034 0.5877852598018023 I I #
point $-1 -12.804511579829395 28.093884736670439 10.528378136176407 #
point $-1 -32.62647766728962 38.611201861048087 2.8870998156435874 #
straight-curve $-1 0 38.61120186104808 10.528378136176407 -1 0 0 I I #
vertex $-1 $453 $627 #
point $-1 -24.463058785158125 28.243034221470523 -0.32489680341812388 #
vertex $-1 $457 $628 #
point $-1 -15.967930461960883 28.243034221470523 -0.32489680341812388 #
coedge $-1 $472 $471 $464 $576 forward $461 $-1 #
edge $-1 $577 61.82685992062401 $580 69.468138241156822 $575 $629 forward 7 unknown #
vertex $-1 $476 $630 #
straight-curve $-1 32.62647766728962 23.099888593982076 10.528378136176414 0 1 0 I I #
edge $-1 $580 -21.268730355509867 $473 -1.4467642680496411 $472 $631 forward 7 unknown #
vertex $-1 $579 $632 #
straight-curve $-1 32.62647766728962 -23.863034675297278 48.277290449955544 0 -0.80901698891910034 0.5877852598018023 I I #
point $-1 32.62647766728962 28.093884736670439 10.528378136176407 #
point $-1 12.804511579829395 38.611201861048087 2.8870998156435874 #
straight-curve $-1 0 38.61120186104808 10.528378136176407 -1 0 0 I I #
vertex $-1 $479 $633 #
point $-1 20.967930461960876 28.243034221470523 -0.32489680341812388 #
vertex $-1 $483 $634 #
point $-1 29.463058785158125 28.243034221470523 -0.32489680341812388 #
coedge $-1 $498 $497 $490 $590 forward $487 $-1 #
edge $-1 $591 33.96865245539481 $594 39.788663846227969 $589 $635 forward 7 unknown #
vertex $-1 $502 $636 #
straight-curve $-1 -44.284583297463094 -61.44844912735276 10.528378136176407 0 -1 0 I I #
edge $-1 $594 -28.838187821240041 $499 -2.0546031312060649 $498 $637 forward 7 unknown #
vertex $-1 $593 $638 #
straight-curve $-1 -44.284583297463094 -38.611201861048073 4.7083667453432554 0 0.70710677298230451 0.70710678939079041 I I #
point $-1 -44.284583297463094 -32.791190605268888 10.528378136176407 #
point $-1 -17.500998607429118 -38.61120186104808 4.7083667453432483 #
straight-curve $-1 0 -38.61120186104808 10.528378136176407 1 0 0 I I #
vertex $-1 $505 $639 #
point $-1 -35.632130528881959 -34.638410434314935 6.5555866665783311 #
vertex $-1 $509 $640 #
point $-1 -24.153451376010253 -34.638410434314935 6.5555866665783311 #
straight-curve $-1 -59.598986785485394 38.61120186104808 0 0 0 -1 I I #
point $-1 -59.598986785485394 -38.61120186104808 -10.528378136176407 #
straight-curve $-1 -59.598986785485394 0 -10.528378136176407 0 1 0 I I #
point $-1 -59.598986785485394 38.61120186104808 -10.528378136176407 #
coedge $-1 $531 $530 $608 $641 reversed $260 $-1 #
coedge $-1 $536 $532 $607 $641 forward $392 $-1 #
vertex $-1 $533 $642 #
straight-curve $-1 0 38.61120186104808 10.528378136176407 -1 0 0 I I #
point $-1 -48.224463394895409 38.61120186104808 10.528378136176407 #
vertex $-1 $641 $643 #
straight-curve $-1 0 -38.61120186104808 10.528378136176407 1 0 0 I I #
straight-curve $-1 -59.598986785485394 -38.61120186104808 0 0 0 -1 I I #
straight-curve $-1 -59.598986785485394 38.61120186104808 0 0 0 -1 I I #
straight-curve $-1 48.224463394895409 -38.61120186104808 3.9591065187362791 0 0 -1 I I #
straight-curve $-1 0 -38.61120186104808 10.528378136176407 1 0 0 I I #
straight-curve $-1 0 38.61120186104808 10.528378136176407 -1 0 0 I I #
point $-1 48.224463394895409 -38.61120186104808 10.528378136176407 #
straight-curve $-1 59.598986785485394 0 10.528378136176407 0 1 0 I I #
point $-1 59.598986785485394 38.61120186104808 10.528378136176407 #
point $-1 59.598986785485394 -38.61120186104808 10.528378136176407 #
straight-curve $-1 -12.804511579829395 38.61120186104808 72.355238056800417 0 0 -1 I I #
point $-1 -12.804511579829395 38.61120186104808 10.528378136176407 #
straight-curve $-1 -11.357747311779754 38.61120186104808 2.887099815643591 -1 0 0 I I #
point $-1 -12.804511579829395 38.611201861048087 2.8870998156435874 #
point $-1 -26.963058785158125 26.773571071966018 -2.3474392757158746 #
point $-1 -18.467930461960883 26.773571071966018 -2.3474392757158746 #
straight-curve $-1 32.62647766728962 38.61120186104808 72.355238056800417 0 0 -1 I I #
point $-1 32.62647766728962 38.61120186104808 10.528378136176407 #
straight-curve $-1 11.357747311779754 38.61120186104808 2.887099815643591 -1 0 0 I I #
point $-1 32.62647766728962 38.611201861048087 2.8870998156435874 #
point $-1 18.467930461960876 26.773571071966018 -2.3474392757158746 #
point $-1 26.963058785158125 26.773571071966018 -2.3474392757158746 #
straight-curve $-1 -44.284583297463094 -38.61120186104808 44.497030591571217 0 0 -1 I I #
point $-1 -44.284583297463094 -38.61120186104808 10.528378136176407 #
straight-curve $-1 -15.446395476223053 -38.61120186104808 4.7083667453432465 1 0 0 I I #
point $-1 -44.284583297463094 -38.61120186104808 4.7083667453432483 #
point $-1 -36.632130528881959 -33.931303644924142 5.8484798935960258 #
point $-1 -25.153451376010253 -33.931303644924142 5.8484798935960258 #
edge $-1 $609 -38.61120186104808 $612 38.61120186104808 $607 $644 forward 7 unknown #
point $-1 -59.598986785485394 38.61120186104808 10.528378136176407 #
point $-1 -59.598986785485394 -38.61120186104808 10.528378136176407 #
straight-curve $-1 -59.598986785485394 0 10.528378136176407 0 -1 0 I I #
End-of-ACIS-data 