500 0 6 0           
7 Unknown 11 ACIS 5.0 NT 24 Thu Mar 25 20:38:08 1999 
-1 9.9999999999999995e-007 1e-010 
body $-1 $6 $-1 $7 #
body $-1 $8 $-1 $9 #
body $-1 $10 $-1 $11 #
body $-1 $12 $-1 $13 #
body $-1 $14 $-1 $15 #
body $-1 $16 $-1 $17 #
lump $-1 $-1 $18 $0 #
transform $-1 1 0 0 0 1 0 0 0 1 48.189947202978608 22.941073867749353 8.3037907803904663 1 rotate no_reflect no_shear #
lump $-1 $-1 $19 $1 #
transform $-1 1 0 0 0 1 0 0 0 1 48.189947202978608 22.941073867749353 8.3037907803904663 1 rotate no_reflect no_shear #
lump $-1 $-1 $20 $2 #
transform $-1 1 0 0 0 1 0 0 0 1 48.189947202978608 22.941073867749353 8.3037907803904663 1 rotate no_reflect no_shear #
lump $-1 $-1 $21 $3 #
transform $-1 1 0 0 0 1 0 0 0 1 48.189947202978608 22.941073867749353 8.3037907803904663 1 rotate no_reflect no_shear #
lump $-1 $-1 $22 $4 #
transform $-1 1 0 0 0 1 0 0 0 1 48.189947202978608 22.941073867749353 8.3037907803904663 1 rotate no_reflect no_shear #
lump $-1 $-1 $23 $5 #
transform $-1 1 0 0 0 1 0 0 0 1 48.189947202978608 22.941073867749353 8.3037907803904663 1 rotate no_reflect no_shear #
shell $-1 $-1 $-1 $24 $-1 $6 #
shell $-1 $-1 $-1 $25 $-1 $8 #
shell $-1 $-1 $-1 $26 $-1 $10 #
shell $-1 $-1 $-1 $27 $-1 $12 #
shell $-1 $-1 $-1 $28 $-1 $14 #
shell $-1 $-1 $-1 $29 $-1 $16 #
face $-1 $30 $31 $18 $-1 $32 forward single #
face $-1 $33 $34 $19 $-1 $35 forward single #
face $-1 $36 $37 $20 $-1 $38 reversed single #
face $-1 $39 $40 $21 $-1 $41 forward single #
face $-1 $42 $43 $22 $-1 $44 forward single #
face $-1 $45 $46 $23 $-1 $47 forward single #
face $-1 $48 $49 $18 $-1 $50 reversed single #
loop $-1 $-1 $51 $24 #
plane-surface $-1 0 0 8.3037907803904663 0 0 1 1 0 0 forward_v I I I I #
face $-1 $52 $53 $19 $-1 $54 reversed single #
loop $-1 $-1 $55 $25 #
plane-surface $-1 -42.844337856495812 0 -4.2286176961046191 0 0 1 1 0 0 forward_v I I I I #
face $-1 $56 $57 $20 $-1 $58 reversed single #
loop $-1 $-1 $59 $26 #
plane-surface $-1 9.2762109217857756 -75.433327239613561 86.051734989867782 1 0 0 0 0.54463904215088732 -0.83867056331134215 forward_v I I I I #
face $-1 $60 $61 $21 $-1 $62 forward single #
loop $-1 $63 $64 $27 #
cone-surface $-1 12.449832647051217 -19.890921083396442 5.7206723916332765 0 0.54463904215088732 -0.83867056331134215 1 0 0 1 I I 0 1 1 forward I I I I #
face $-1 $65 $66 $22 $-1 $67 forward single #
loop $-1 $68 $69 $28 #
cone-surface $-1 17.210265234949368 -19.890921083396442 5.7206723916332765 0 0.54463904215088732 -0.83867056331134215 1 0 0 1 I I 0 1 1 forward I I I I #
face $-1 $70 $71 $23 $-1 $72 forward single #
loop $-1 $73 $74 $29 #
cone-surface $-1 21.970697822847519 -19.890921083396442 5.7206723916332765 0 0.54463904215088732 -0.83867056331134215 1 0 0 1 I I 0 1 1 forward I I I I #
face $-1 $75 $76 $18 $-1 $77 reversed single #
loop $-1 $-1 $78 $30 #
plane-surface $-1 0 0 -8.3037907803904663 0 0 1 1 0 0 forward_v I I I I #
coedge $-1 $79 $80 $81 $82 forward $31 $-1 #
face $-1 $83 $84 $19 $-1 $85 reversed single #
loop $-1 $-1 $86 $33 #
plane-surface $-1 -42.844337856495812 0 -7.2565223868685393 0 0 1 1 0 0 forward_v I I I I #
coedge $-1 $87 $88 $89 $90 forward $34 $-1 #
face $-1 $91 $92 $20 $-1 $93 reversed single #
loop $-1 $-1 $94 $36 #
plane-surface $-1 17.210265234949354 -22.94107386774936 5.2207546565359735 0 -0.54463904215088732 0.83867056331134215 1 0 0 forward_v I I I I #
coedge $-1 $95 $96 $97 $98 reversed $37 $-1 #
face $-1 $-1 $99 $21 $-1 $100 forward single #
loop $-1 $101 $102 $39 #
cone-surface $-1 12.449832647051217 -18.942178388400546 4.2597367831476625 0 0.54463904215088732 -0.83867056331134215 0.5 0 0 1 I I -0.70710678118654746 0.70710678118654746 0.5 forward I I I I #
loop $-1 $-1 $103 $27 #
coedge $-1 $64 $64 $104 $105 reversed $40 $-1 #
face $-1 $-1 $106 $22 $-1 $107 forward single #
loop $-1 $108 $109 $42 #
cone-surface $-1 17.210265234949368 -18.942178388400546 4.2597367831476625 0 0.54463904215088732 -0.83867056331134215 0.5 0 0 1 I I -0.70710678118654746 0.70710678118654746 0.5 forward I I I I #
loop $-1 $-1 $110 $28 #
coedge $-1 $69 $69 $111 $112 reversed $43 $-1 #
face $-1 $-1 $113 $23 $-1 $114 forward single #
loop $-1 $115 $116 $45 #
cone-surface $-1 21.970697822847519 -18.942178388400546 4.2597367831476625 0 0.54463904215088732 -0.83867056331134215 0.5 0 0 1 I I -0.70710678118654746 0.70710678118654746 0.5 forward I I I I #
loop $-1 $-1 $117 $29 #
coedge $-1 $74 $74 $118 $119 reversed $46 $-1 #
face $-1 $120 $121 $18 $-1 $122 reversed single #
loop $-1 $-1 $123 $48 #
plane-surface $-1 0 -22.941073867749353 0 0 1 0 0 0 1 forward_v I I I I #
coedge $-1 $124 $125 $126 $127 forward $49 $-1 #
coedge $-1 $128 $51 $129 $130 forward $31 $-1 #
coedge $-1 $51 $128 $131 $132 forward $31 $-1 #
coedge $-1 $133 $134 $51 $82 reversed $135 $-1 #
edge $-1 $136 -22.941073867749353 $137 22.941073867749353 $81 $138 forward 7 unknown #
face $-1 $139 $140 $19 $-1 $141 reversed single #
loop $-1 $-1 $142 $52 #
plane-surface $-1 -37.498728510013017 0 -5.7425700414865792 -1 0 0 0 0 1 forward_v I I I I #
coedge $-1 $143 $144 $145 $146 forward $53 $-1 #
coedge $-1 $147 $55 $148 $149 reversed $34 $-1 #
coedge $-1 $55 $147 $150 $151 reversed $34 $-1 #
coedge $-1 $142 $152 $55 $90 reversed $84 $-1 #
edge $-1 $153 -22.941073867749353 $154 22.941073867749353 $89 $155 forward 7 unknown #
face $-1 $156 $157 $20 $-1 $158 forward single #
loop $-1 $-1 $159 $56 #
plane-surface $-1 25.144319548112932 -75.433327239613561 86.051734989867782 -1 0 0 0 -0.54463904215088732 0.83867056331134215 forward_v I I I I #
coedge $-1 $160 $161 $162 $163 reversed $57 $-1 #
coedge $-1 $96 $59 $164 $165 reversed $37 $-1 #
coedge $-1 $59 $95 $160 $166 reversed $37 $-1 #
coedge $-1 $162 $167 $59 $98 forward $168 $-1 #
edge $-1 $169 34.722076714543427 $170 37.80511283839791 $97 $171 forward 7 unknown #
loop $-1 $-1 $104 $60 #
plane-surface $-1 17.210265234949354 -22.94107386774936 5.2207546565359735 0 -0.54463904215088732 0.83867056331134215 1 0 0 forward_v I I I I #
loop $-1 $-1 $172 $39 #
coedge $-1 $102 $102 $103 $173 reversed $61 $-1 #
coedge $-1 $103 $103 $102 $173 forward $63 $-1 #
coedge $-1 $104 $104 $64 $105 forward $99 $-1 #
edge $-1 $174 5.6087316346070173e-016 $174 6.2831853071796013 $104 $175 forward 7 unknown #
loop $-1 $-1 $111 $65 #
plane-surface $-1 17.210265234949354 -22.94107386774936 5.2207546565359735 0 -0.54463904215088732 0.83867056331134215 1 0 0 forward_v I I I I #
loop $-1 $-1 $176 $42 #
coedge $-1 $109 $109 $110 $177 reversed $66 $-1 #
coedge $-1 $110 $110 $109 $177 forward $68 $-1 #
coedge $-1 $111 $111 $69 $112 forward $106 $-1 #
edge $-1 $178 5.6087316346070173e-016 $178 6.2831853071796013 $111 $179 forward 7 unknown #
loop $-1 $-1 $118 $70 #
plane-surface $-1 17.210265234949354 -22.94107386774936 5.2207546565359735 0 -0.54463904215088732 0.83867056331134215 1 0 0 forward_v I I I I #
loop $-1 $-1 $180 $45 #
coedge $-1 $116 $116 $117 $181 reversed $71 $-1 #
coedge $-1 $117 $117 $116 $181 forward $73 $-1 #
coedge $-1 $118 $118 $74 $119 forward $113 $-1 #
edge $-1 $182 5.6087316346070173e-016 $182 6.2831853071796013 $118 $183 forward 7 unknown #
face $-1 $184 $185 $18 $-1 $186 reversed single #
loop $-1 $-1 $187 $75 #
plane-surface $-1 -48.189947202978608 0 0 1 0 0 0 0 -1 forward_v I I I I #
coedge $-1 $188 $131 $189 $190 forward $76 $-1 #
coedge $-1 $191 $78 $188 $192 forward $49 $-1 #
coedge $-1 $78 $191 $193 $194 forward $49 $-1 #
coedge $-1 $134 $133 $78 $127 reversed $135 $-1 #
edge $-1 $195 -22.941073867749353 $196 22.941073867749353 $126 $197 forward 7 unknown #
coedge $-1 $80 $79 $198 $199 forward $31 $-1 #
coedge $-1 $200 $201 $79 $130 reversed $185 $-1 #
edge $-1 $137 -48.189947202978608 $202 48.189947202978608 $129 $203 forward 7 unknown #
coedge $-1 $123 $204 $80 $132 reversed $76 $-1 #
edge $-1 $205 -48.189947202978608 $136 48.189947202978608 $131 $206 forward 7 unknown #
coedge $-1 $126 $81 $204 $207 forward $135 $-1 #
coedge $-1 $81 $126 $200 $208 reversed $135 $-1 #
loop $-1 $-1 $133 $184 #
vertex $-1 $82 $209 #
vertex $-1 $82 $210 #
straight-curve $-1 48.189947202978608 0 8.3037907803904663 0 1 0 I I #
face $-1 $211 $212 $19 $-1 $213 reversed single #
loop $-1 $-1 $214 $83 #
plane-surface $-1 0 -22.941073867749353 0 0 1 0 0 0 1 forward_v I I I I #
coedge $-1 $145 $89 $215 $216 reversed $84 $-1 #
coedge $-1 $217 $86 $214 $218 reversed $53 $-1 #
coedge $-1 $86 $217 $219 $220 reversed $53 $-1 #
coedge $-1 $152 $142 $86 $146 reversed $84 $-1 #
edge $-1 $221 -22.941073867749353 $222 22.941073867749353 $145 $223 forward 7 unknown #
coedge $-1 $88 $87 $224 $225 reversed $34 $-1 #
coedge $-1 $226 $227 $87 $149 forward $228 $-1 #
edge $-1 $229 -26.767778274730702 $154 -16.07655958176511 $148 $230 forward 7 unknown #
coedge $-1 $231 $215 $88 $151 forward $140 $-1 #
edge $-1 $153 16.07655958176511 $232 26.767778274730702 $150 $233 forward 7 unknown #
coedge $-1 $89 $145 $226 $234 reversed $84 $-1 #
vertex $-1 $151 $235 #
vertex $-1 $149 $236 #
straight-curve $-1 -37.498728510013017 0 -4.2286176961046191 0 1 0 I I #
face $-1 $-1 $168 $20 $-1 $237 reversed single #
loop $-1 $-1 $238 $91 #
plane-surface $-1 0 0 8.3037907803904663 0 0 1 1 0 0 forward_v I I I I #
coedge $-1 $239 $240 $241 $242 reversed $92 $-1 #
coedge $-1 $243 $94 $96 $166 forward $57 $-1 #
coedge $-1 $94 $243 $239 $244 forward $57 $-1 #
coedge $-1 $241 $97 $94 $163 forward $168 $-1 #
edge $-1 $170 0.67107830431109861 $245 16.539186930638255 $162 $246 forward 7 unknown #
coedge $-1 $247 $248 $95 $165 forward $157 $-1 #
edge $-1 $249 -19.523048972922332 $169 -14.775589752057428 $164 $250 forward 7 unknown #
edge $-1 $170 8.3777959833898778e-015 $249 5.660696140473096 $96 $251 forward 7 unknown #
coedge $-1 $97 $241 $247 $252 reversed $168 $-1 #
loop $-1 $-1 $241 $156 #
vertex $-1 $252 $253 #
vertex $-1 $98 $254 #
straight-curve $-1 9.2762109217857756 -22.941073867749353 43.025867494933891 0 0 -1 I I #
coedge $-1 $172 $172 $-1 $255 reversed $101 $-1 #
edge $-1 $256 0 $256 6.2831853071796004 $102 $257 forward 7 unknown #
vertex $-1 $105 $258 #
ellipse-curve $-1 12.449832647051217 -20.567344257316897 6.7622727184632234 0 -0.54463904215088732 0.83867056331134215 1 0 0 1 I I #
coedge $-1 $176 $176 $-1 $259 reversed $108 $-1 #
edge $-1 $260 0 $260 6.2831853071796004 $109 $261 forward 7 unknown #
vertex $-1 $112 $262 #
ellipse-curve $-1 17.210265234949368 -20.567344257316897 6.7622727184632234 0 -0.54463904215088732 0.83867056331134215 1 0 0 1 I I #
coedge $-1 $180 $180 $-1 $263 reversed $115 $-1 #
edge $-1 $264 0 $264 6.2831853071796004 $116 $265 forward 7 unknown #
vertex $-1 $119 $266 #
ellipse-curve $-1 21.970697822847519 -20.567344257316897 6.7622727184632234 0 -0.54463904215088732 0.83867056331134215 1 0 0 1 I I #
face $-1 $-1 $135 $18 $-1 $267 reversed single #
loop $-1 $-1 $200 $120 #
plane-surface $-1 0 22.941073867749353 0 0 -1 0 0 0 -1 forward_v I I I I #
coedge $-1 $268 $198 $201 $269 forward $121 $-1 #
coedge $-1 $204 $123 $124 $192 reversed $76 $-1 #
coedge $-1 $198 $268 $123 $190 reversed $121 $-1 #
edge $-1 $205 -8.3037907803904663 $270 8.3037907803904663 $189 $271 forward 7 unknown #
coedge $-1 $125 $124 $268 $272 forward $49 $-1 #
edge $-1 $196 -48.189947202978608 $270 48.189947202978608 $188 $273 forward 7 unknown #
coedge $-1 $201 $200 $125 $194 reversed $185 $-1 #
edge $-1 $274 -48.189947202978608 $195 48.189947202978608 $193 $275 forward 7 unknown #
vertex $-1 $127 $276 #
vertex $-1 $207 $277 #
straight-curve $-1 48.189947202978608 0 -8.3037907803904663 0 -1 0 I I #
coedge $-1 $187 $189 $128 $199 reversed $121 $-1 #
edge $-1 $202 -22.941073867749353 $205 22.941073867749353 $198 $278 forward 7 unknown #
coedge $-1 $193 $129 $134 $208 forward $185 $-1 #
coedge $-1 $129 $193 $187 $269 reversed $185 $-1 #
vertex $-1 $130 $279 #
straight-curve $-1 0 22.941073867749353 8.3037907803904663 -1 0 0 I I #
coedge $-1 $131 $188 $133 $207 reversed $76 $-1 #
vertex $-1 $199 $280 #
straight-curve $-1 0 -22.941073867749353 8.3037907803904663 1 0 0 I I #
edge $-1 $136 -8.3037907803904663 $196 8.3037907803904663 $133 $281 forward 7 unknown #
edge $-1 $137 -8.3037907803904663 $195 8.3037907803904663 $134 $282 forward 7 unknown #
point $-1 48.189947202978608 -22.941073867749353 8.3037907803904663 #
point $-1 48.189947202978608 22.941073867749353 8.3037907803904663 #
face $-1 $-1 $228 $19 $-1 $283 reversed single #
loop $-1 $-1 $284 $139 #
plane-surface $-1 -48.189947202978608 0 0 1 0 0 0 0 -1 forward_v I I I I #
coedge $-1 $215 $231 $143 $218 forward $140 $-1 #
coedge $-1 $150 $214 $142 $216 forward $140 $-1 #
edge $-1 $222 -4.3852373661252493 $153 -1.3573326753613295 $215 $285 forward 7 unknown #
coedge $-1 $144 $143 $284 $286 reversed $53 $-1 #
edge $-1 $287 -26.767778274730702 $222 -16.07655958176511 $214 $288 forward 7 unknown #
coedge $-1 $227 $226 $144 $220 forward $228 $-1 #
edge $-1 $221 16.07655958176511 $289 26.767778274730702 $219 $290 forward 7 unknown #
vertex $-1 $220 $291 #
vertex $-1 $218 $292 #
straight-curve $-1 -37.498728510013017 0 -7.2565223868685393 0 -1 0 I I #
coedge $-1 $293 $294 $147 $225 forward $212 $-1 #
edge $-1 $232 -22.941073867749353 $229 22.941073867749353 $224 $295 forward 7 unknown #
coedge $-1 $219 $148 $152 $234 forward $228 $-1 #
coedge $-1 $148 $219 $293 $296 reversed $228 $-1 #
loop $-1 $-1 $219 $211 #
vertex $-1 $296 $297 #
straight-curve $-1 -21.422168928247906 22.941073867749353 -4.2286176961046191 1 0 0 I I #
coedge $-1 $214 $150 $294 $298 forward $140 $-1 #
vertex $-1 $298 $299 #
straight-curve $-1 -21.422168928247906 -22.941073867749353 -4.2286176961046191 -1 0 0 I I #
edge $-1 $154 1.3573326753613295 $221 4.3852373661252493 $226 $300 forward 7 unknown #
point $-1 -37.498728510013017 -22.941073867749353 -4.2286176961046191 #
point $-1 -37.498728510013017 22.941073867749353 -4.2286176961046191 #
plane-surface $-1 0 -22.941073867749353 0 0 1 0 0 0 1 forward_v I I I I #
coedge $-1 $248 $247 $240 $301 forward $157 $-1 #
coedge $-1 $240 $159 $161 $244 reversed $92 $-1 #
coedge $-1 $159 $239 $238 $301 reversed $92 $-1 #
coedge $-1 $167 $162 $159 $242 forward $168 $-1 #
edge $-1 $245 -37.80511283839791 $302 -34.722076714543427 $241 $303 forward 7 unknown #
coedge $-1 $161 $160 $248 $304 reversed $57 $-1 #
edge $-1 $305 -5.660696140473096 $245 -8.3777959833898778e-015 $239 $306 forward 7 unknown #
vertex $-1 $163 $307 #
straight-curve $-1 8.6051326174746769 -22.941073867749353 5.2207546565359788 1 0 0 I I #
coedge $-1 $238 $164 $167 $252 forward $157 $-1 #
coedge $-1 $164 $238 $243 $304 forward $157 $-1 #
vertex $-1 $165 $308 #
straight-curve $-1 9.2762109217857756 -37.716663619806781 8.3037907803904645 0 -1 0 I I #
straight-curve $-1 9.2762109217857756 -22.94107386774936 5.2207546565359735 0 0.83867056331134215 0.54463904215088732 I I #
edge $-1 $169 9.2762109217857756 $302 25.144319548112932 $167 $309 forward 7 unknown #
point $-1 9.2762109217857756 -22.941073867749353 8.3037907803904663 #
point $-1 9.2762109217857756 -22.941073867749353 5.2207546565359779 #
edge $-1 $310 1 $310 0 $172 $-1 forward 7 unknown #
vertex $-1 $173 $311 #
ellipse-curve $-1 12.449832647051217 -19.214497909475988 4.6790720648033339 0 -0.54463904215088732 0.83867056331134215 1 0 0 1 I I #
point $-1 13.449832647051217 -20.567344257316893 6.762272718463219 #
edge $-1 $312 1 $312 0 $176 $-1 forward 7 unknown #
vertex $-1 $177 $313 #
ellipse-curve $-1 17.210265234949368 -19.214497909475988 4.6790720648033339 0 -0.54463904215088732 0.83867056331134215 1 0 0 1 I I #
point $-1 18.210265234949368 -20.567344257316893 6.762272718463219 #
edge $-1 $314 1 $314 0 $180 $-1 forward 7 unknown #
vertex $-1 $181 $315 #
ellipse-curve $-1 21.970697822847519 -19.214497909475988 4.6790720648033339 0 -0.54463904215088732 0.83867056331134215 1 0 0 1 I I #
point $-1 22.970697822847519 -20.567344257316893 6.762272718463219 #
plane-surface $-1 48.189947202978608 0 0 -1 0 0 0 0 1 forward_v I I I I #
coedge $-1 $189 $187 $191 $272 reversed $121 $-1 #
edge $-1 $202 -8.3037907803904663 $274 8.3037907803904663 $201 $316 forward 7 unknown #
vertex $-1 $272 $317 #
straight-curve $-1 -48.189947202978608 -22.941073867749353 0 0 0 -1 I I #
edge $-1 $270 -22.941073867749353 $274 22.941073867749353 $268 $318 forward 7 unknown #
straight-curve $-1 0 -22.941073867749353 -8.3037907803904663 -1 0 0 I I #
vertex $-1 $194 $319 #
straight-curve $-1 0 22.941073867749353 -8.3037907803904663 1 0 0 I I #
point $-1 48.189947202978608 22.941073867749353 -8.3037907803904663 #
point $-1 48.189947202978608 -22.941073867749353 -8.3037907803904663 #
straight-curve $-1 -48.189947202978608 0 8.3037907803904663 0 -1 0 I I #
point $-1 -48.189947202978608 22.941073867749353 8.3037907803904663 #
point $-1 -48.189947202978608 -22.941073867749353 8.3037907803904663 #
straight-curve $-1 48.189947202978608 -22.941073867749353 0 0 0 -1 I I #
straight-curve $-1 48.189947202978608 22.941073867749353 0 0 0 -1 I I #
plane-surface $-1 0 22.941073867749353 0 0 -1 0 0 0 -1 forward_v I I I I #
coedge $-1 $294 $293 $217 $286 forward $212 $-1 #
straight-curve $-1 -37.498728510013017 -22.941073867749353 -2.8712850207432896 0 0 1 I I #
edge $-1 $289 -22.941073867749353 $287 22.941073867749353 $284 $320 forward 7 unknown #
vertex $-1 $218 $321 #
straight-curve $-1 -21.422168928247906 -22.941073867749353 -7.2565223868685393 1 0 0 I I #
vertex $-1 $220 $322 #
straight-curve $-1 -21.422168928247906 22.941073867749353 -7.2565223868685393 -1 0 0 I I #
point $-1 -37.498728510013017 22.941073867749353 -7.2565223868685393 #
point $-1 -37.498728510013017 -22.941073867749353 -7.2565223868685393 #
coedge $-1 $284 $224 $227 $296 forward $212 $-1 #
coedge $-1 $224 $284 $231 $298 reversed $212 $-1 #
straight-curve $-1 -48.189947202978608 0 -4.2286176961046191 0 1 0 I I #
edge $-1 $229 4.2286176961046191 $289 7.2565223868685393 $227 $323 forward 7 unknown #
point $-1 -48.189947202978608 22.941073867749353 -4.2286176961046191 #
edge $-1 $232 4.2286176961046191 $287 7.2565223868685393 $294 $324 forward 7 unknown #
point $-1 -48.189947202978608 -22.941073867749353 -4.2286176961046191 #
straight-curve $-1 -37.498728510013017 22.941073867749353 -2.8712850207432896 0 0 -1 I I #
edge $-1 $302 14.775589752057428 $305 19.523048972922332 $238 $325 forward 7 unknown #
vertex $-1 $301 $326 #
straight-curve $-1 25.144319548112932 -22.941073867749353 43.025867494933891 0 0 1 I I #
edge $-1 $305 -16.539186930638255 $249 -0.67107830431109861 $248 $327 forward 7 unknown #
vertex $-1 $304 $328 #
straight-curve $-1 25.144319548112932 -22.94107386774936 5.2207546565359735 0 -0.83867056331134215 -0.54463904215088732 I I #
point $-1 25.144319548112932 -22.941073867749353 5.2207546565359779 #
point $-1 9.2762109217857756 -18.193614646884448 8.3037907803904663 #
straight-curve $-1 0 -22.941073867749353 8.3037907803904663 1 0 0 I I #
vertex $-1 $255 $329 #
point $-1 13.449832647051217 -19.214497909475988 4.6790720648033339 #
vertex $-1 $259 $330 #
point $-1 18.210265234949368 -19.214497909475988 4.6790720648033339 #
vertex $-1 $263 $331 #
point $-1 22.970697822847519 -19.214497909475988 4.6790720648033339 #
straight-curve $-1 -48.189947202978608 22.941073867749353 0 0 0 -1 I I #
point $-1 -48.189947202978608 -22.941073867749353 -8.3037907803904663 #
straight-curve $-1 -48.189947202978608 0 -8.3037907803904663 0 1 0 I I #
point $-1 -48.189947202978608 22.941073867749353 -8.3037907803904663 #
straight-curve $-1 -48.189947202978608 0 -7.2565223868685393 0 -1 0 I I #
point $-1 -48.189947202978608 -22.941073867749353 -7.2565223868685393 #
point $-1 -48.189947202978608 22.941073867749353 -7.2565223868685393 #
straight-curve $-1 -48.189947202978608 22.941073867749353 0 0 0 -1 I I #
straight-curve $-1 -48.189947202978608 -22.941073867749353 0 0 0 -1 I I #
straight-curve $-1 25.144319548112932 -37.716663619806781 8.3037907803904645 0 1 0 I I #
point $-1 25.144319548112932 -22.941073867749353 8.3037907803904663 #
straight-curve $-1 8.6051326174746769 -18.193614646884448 8.3037907803904663 -1 0 0 I I #
point $-1 25.144319548112932 -18.193614646884448 8.3037907803904663 #
point $-1 12.449832647051217 -18.669858867325104 3.8404015014919914 #
point $-1 17.210265234949368 -18.669858867325104 3.8404015014919914 #
point $-1 21.970697822847519 -18.669858867325104 3.8404015014919914 #
End-of-ACIS-data 