500 0 9 0           
7 Unknown 11 ACIS 5.0 NT 24 Fri Mar 26 01:32:37 1999 
-1 9.9999999999999995e-007 1e-010 
body $-1 $9 $-1 $10 #
body $-1 $11 $-1 $12 #
body $-1 $13 $-1 $14 #
body $-1 $15 $-1 $16 #
body $-1 $17 $-1 $18 #
body $-1 $19 $-1 $20 #
body $-1 $21 $-1 $22 #
body $-1 $23 $-1 $24 #
body $-1 $25 $-1 $26 #
lump $-1 $-1 $27 $0 #
transform $-1 1 0 0 0 1 0 0 0 1 76.06921597949156 44.090058380715526 14.250183516372198 1 rotate no_reflect no_shear #
lump $-1 $-1 $28 $1 #
transform $-1 1 0 0 0 1 0 0 0 1 76.06921597949156 44.090058380715526 14.250183516372198 1 rotate no_reflect no_shear #
lump $-1 $-1 $29 $2 #
transform $-1 1 0 0 0 1 0 0 0 1 76.06921597949156 44.090058380715526 14.250183516372198 1 rotate no_reflect no_shear #
lump $-1 $-1 $30 $3 #
transform $-1 1 0 0 0 1 0 0 0 1 76.06921597949156 44.090058380715526 14.250183516372198 1 rotate no_reflect no_shear #
lump $-1 $-1 $31 $4 #
transform $-1 1 0 0 0 1 0 0 0 1 76.06921597949156 44.090058380715526 14.250183516372198 1 rotate no_reflect no_shear #
lump $-1 $-1 $32 $5 #
transform $-1 1 0 0 0 1 0 0 0 1 76.06921597949156 44.090058380715526 14.250183516372198 1 rotate no_reflect no_shear #
lump $-1 $-1 $33 $6 #
transform $-1 1 0 0 0 1 0 0 0 1 76.06921597949156 44.090058380715526 14.250183516372198 1 rotate no_reflect no_shear #
lump $-1 $-1 $34 $7 #
transform $-1 1 0 0 0 1 0 0 0 1 76.06921597949156 44.090058380715526 14.250183516372198 1 rotate no_reflect no_shear #
lump $-1 $-1 $35 $8 #
transform $-1 1 0 0 0 1 0 0 0 1 76.06921597949156 44.090058380715526 14.250183516372198 1 rotate no_reflect no_shear #
shell $-1 $-1 $-1 $36 $-1 $9 #
shell $-1 $-1 $-1 $37 $-1 $11 #
shell $-1 $-1 $-1 $38 $-1 $13 #
shell $-1 $-1 $-1 $39 $-1 $15 #
shell $-1 $-1 $-1 $40 $-1 $17 #
shell $-1 $-1 $-1 $41 $-1 $19 #
shell $-1 $-1 $-1 $42 $-1 $21 #
shell $-1 $-1 $-1 $43 $-1 $23 #
shell $-1 $-1 $-1 $44 $-1 $25 #
face $-1 $45 $46 $27 $-1 $47 forward single #
face $-1 $48 $49 $28 $-1 $50 forward single #
face $-1 $51 $52 $29 $-1 $53 forward single #
face $-1 $54 $55 $30 $-1 $56 reversed single #
face $-1 $57 $58 $31 $-1 $59 forward single #
face $-1 $60 $61 $32 $-1 $62 forward single #
face $-1 $63 $64 $33 $-1 $65 reversed single #
face $-1 $66 $67 $34 $-1 $68 forward single #
face $-1 $69 $70 $35 $-1 $71 forward single #
face $-1 $72 $73 $27 $-1 $74 reversed single #
loop $-1 $-1 $75 $36 #
plane-surface $-1 0 0 14.250183516372198 0 0 1 1 0 0 forward_v I I I I #
face $-1 $76 $77 $28 $-1 $78 reversed single #
loop $-1 $-1 $79 $37 #
plane-surface $-1 -69.301759598809923 0 -7.4876631866842676 0 0 1 1 0 0 forward_v I I I I #
face $-1 $80 $81 $29 $-1 $82 reversed single #
loop $-1 $-1 $83 $38 #
plane-surface $-1 69.301759598809923 0 -7.4876631866842676 0 0 1 1 0 0 forward_v I I I I #
face $-1 $84 $85 $30 $-1 $86 reversed single #
loop $-1 $-1 $87 $39 #
plane-surface $-1 -62.534303218128279 -135.64925349155229 131.9760177320502 1 0 0 0 0.6018150307709319 -0.79863550430605224 forward_v I I I I #
face $-1 $88 $89 $31 $-1 $90 forward single #
loop $-1 $91 $92 $40 #
cone-surface $-1 -55.483384611746281 -40.752257417441832 11.258132489512962 0 0.6018150307709319 -0.79863550430605224 1.5 0 0 1 I I 0 1 1.5 forward I I I I #
face $-1 $93 $94 $32 $-1 $95 forward single #
loop $-1 $96 $97 $41 #
cone-surface $-1 -44.907006702173277 -40.752257417441832 11.258132489512962 0 0.6018150307709319 -0.79863550430605224 1.5 0 0 1 I I 0 1 1.5 forward I I I I #
face $-1 $98 $99 $33 $-1 $100 reversed single #
loop $-1 $-1 $101 $42 #
plane-surface $-1 9.992946158110847 46.862032242051363 183.57954415821689 -1 0 0 0 0.51503808176128008 0.85716729658548041 forward_v I I I I #
face $-1 $102 $103 $34 $-1 $104 forward single #
loop $-1 $105 $106 $43 #
cone-surface $-1 -0.29007515025315911 38.201554411111537 10.197441299142655 0 -0.51503808176128008 -0.85716729658548041 1 0 0 1 I I 0 1 1 forward I I I I #
face $-1 $107 $108 $35 $-1 $109 forward single #
loop $-1 $110 $111 $44 #
cone-surface $-1 5.8797376347652488 38.201554411111537 10.197441299142655 0 -0.51503808176128008 -0.85716729658548041 1 0 0 1 I I 0 1 1 forward I I I I #
face $-1 $112 $113 $27 $-1 $114 reversed single #
loop $-1 $-1 $115 $45 #
plane-surface $-1 0 0 -14.250183516372198 0 0 1 1 0 0 forward_v I I I I #
coedge $-1 $116 $117 $118 $119 forward $46 $-1 #
face $-1 $120 $121 $28 $-1 $122 reversed single #
loop $-1 $-1 $123 $48 #
plane-surface $-1 -62.534303218128287 0 -10.868923351528233 -1 0 0 0 0 1 forward_v I I I I #
coedge $-1 $124 $125 $126 $127 forward $49 $-1 #
face $-1 $128 $129 $29 $-1 $130 reversed single #
loop $-1 $-1 $131 $51 #
plane-surface $-1 62.534303218128287 0 -10.868923351528233 1 0 0 0 0 -1 forward_v I I I I #
coedge $-1 $132 $133 $134 $135 reversed $52 $-1 #
face $-1 $136 $137 $30 $-1 $138 reversed single #
loop $-1 $-1 $139 $54 #
plane-surface $-1 -50.195195656959775 -44.090058380715533 10.4728644001557 0 -0.6018150307709319 0.79863550430605224 1 0 0 forward_v I I I I #
coedge $-1 $140 $141 $142 $143 reversed $55 $-1 #
face $-1 $-1 $144 $31 $-1 $145 forward single #
loop $-1 $146 $147 $57 #
cone-surface $-1 -55.483384611746281 -39.469431017734003 9.5557643925324474 0 0.6018150307709319 -0.79863550430605224 0.75 0 0 1 I I -0.70710678118654757 0.70710678118654757 0.75 forward I I I I #
loop $-1 $-1 $148 $40 #
coedge $-1 $92 $92 $149 $150 reversed $58 $-1 #
face $-1 $-1 $151 $32 $-1 $152 forward single #
loop $-1 $153 $154 $60 #
cone-surface $-1 -44.907006702173277 -39.469431017734003 9.5557643925324474 0 0.6018150307709319 -0.79863550430605224 0.75 0 0 1 I I -0.70710678118654757 0.70710678118654757 0.75 forward I I I I #
loop $-1 $-1 $155 $41 #
coedge $-1 $97 $97 $156 $157 reversed $61 $-1 #
face $-1 $158 $159 $33 $-1 $160 reversed single #
loop $-1 $-1 $161 $63 #
plane-surface $-1 2.7948312422560377 -31.495053916272333 53.171455729181275 0 0.51503808176128008 0.85716729658548041 1 0 0 forward_v I I I I #
coedge $-1 $162 $163 $164 $165 reversed $64 $-1 #
face $-1 $-1 $166 $34 $-1 $167 forward single #
loop $-1 $168 $169 $66 #
cone-surface $-1 -0.29007515025315911 37.460150750124662 8.9635384203624131 0 -0.51503808176128008 -0.85716729658548041 0.5 0 0 1 I I -0.70710678118654746 0.70710678118654746 0.5 forward I I I I #
loop $-1 $-1 $170 $43 #
coedge $-1 $106 $106 $171 $172 reversed $67 $-1 #
face $-1 $-1 $173 $35 $-1 $174 forward single #
loop $-1 $175 $176 $69 #
cone-surface $-1 5.8797376347652488 37.460150750124662 8.9635384203624131 0 -0.51503808176128008 -0.85716729658548041 0.5 0 0 1 I I -0.70710678118654746 0.70710678118654746 0.5 forward I I I I #
loop $-1 $-1 $177 $44 #
coedge $-1 $111 $111 $178 $179 reversed $70 $-1 #
face $-1 $180 $181 $27 $-1 $182 reversed single #
loop $-1 $-1 $183 $72 #
plane-surface $-1 0 -44.090058380715526 0 0 1 0 0 0 1 forward_v I I I I #
coedge $-1 $184 $185 $186 $187 forward $73 $-1 #
coedge $-1 $188 $75 $189 $190 forward $46 $-1 #
coedge $-1 $75 $188 $191 $192 forward $46 $-1 #
coedge $-1 $193 $194 $75 $119 reversed $195 $-1 #
edge $-1 $196 -44.090058380715526 $197 44.090058380715526 $118 $198 forward 7 unknown #
face $-1 $199 $200 $28 $-1 $201 reversed single #
loop $-1 $-1 $202 $76 #
plane-surface $-1 0 0 -14.250183516372198 0 0 1 1 0 0 forward_v I I I I #
coedge $-1 $203 $126 $204 $205 reversed $77 $-1 #
coedge $-1 $206 $79 $207 $208 reversed $49 $-1 #
coedge $-1 $79 $206 $209 $210 reversed $49 $-1 #
coedge $-1 $123 $211 $79 $127 reversed $77 $-1 #
edge $-1 $212 -44.090058380715526 $213 44.090058380715526 $126 $214 forward 7 unknown #
face $-1 $215 $216 $29 $-1 $217 reversed single #
loop $-1 $-1 $218 $80 #
plane-surface $-1 0 -44.090058380715526 0 0 1 0 0 0 1 forward_v I I I I #
coedge $-1 $219 $220 $221 $222 reversed $81 $-1 #
coedge $-1 $223 $83 $224 $225 reversed $52 $-1 #
coedge $-1 $83 $223 $218 $226 reversed $52 $-1 #
coedge $-1 $227 $228 $83 $135 forward $229 $-1 #
edge $-1 $230 -44.090058380715526 $231 44.090058380715526 $134 $232 forward 7 unknown #
face $-1 $233 $234 $30 $-1 $235 forward single #
loop $-1 $-1 $236 $84 #
plane-surface $-1 -37.856088095791272 -135.64925349155229 131.9760177320502 -1 0 0 0 -0.6018150307709319 0.79863550430605224 forward_v I I I I #
coedge $-1 $237 $238 $239 $240 reversed $85 $-1 #
coedge $-1 $141 $87 $241 $242 reversed $55 $-1 #
coedge $-1 $87 $140 $237 $243 reversed $55 $-1 #
coedge $-1 $239 $244 $87 $143 forward $245 $-1 #
edge $-1 $246 51.737825349652901 $247 55.51514446586939 $142 $248 forward 7 unknown #
loop $-1 $-1 $149 $88 #
plane-surface $-1 -50.195195656959775 -44.090058380715533 10.4728644001557 0 -0.6018150307709319 0.79863550430605224 1 0 0 forward_v I I I I #
loop $-1 $-1 $249 $57 #
coedge $-1 $147 $147 $148 $250 reversed $89 $-1 #
coedge $-1 $148 $148 $147 $250 forward $91 $-1 #
coedge $-1 $149 $149 $92 $150 forward $144 $-1 #
edge $-1 $251 4.3927377497148149e-016 $251 6.2831853071796004 $149 $252 forward 7 unknown #
loop $-1 $-1 $156 $93 #
plane-surface $-1 -50.195195656959775 -44.090058380715533 10.4728644001557 0 -0.6018150307709319 0.79863550430605224 1 0 0 forward_v I I I I #
loop $-1 $-1 $253 $60 #
coedge $-1 $154 $154 $155 $254 reversed $94 $-1 #
coedge $-1 $155 $155 $154 $254 forward $96 $-1 #
coedge $-1 $156 $156 $97 $157 forward $151 $-1 #
edge $-1 $255 4.3927377497148149e-016 $255 6.2831853071796004 $156 $256 forward 7 unknown #
face $-1 $257 $258 $33 $-1 $259 reversed single #
loop $-1 $-1 $260 $98 #
plane-surface $-1 -4.4032836735987715 46.862032242051363 183.57954415821689 1 0 0 0 -0.51503808176128008 -0.85716729658548041 forward_v I I I I #
coedge $-1 $261 $262 $263 $264 reversed $99 $-1 #
coedge $-1 $163 $101 $265 $266 reversed $64 $-1 #
coedge $-1 $101 $162 $261 $267 reversed $64 $-1 #
coedge $-1 $263 $268 $101 $165 forward $258 $-1 #
edge $-1 $269 77.539588562736242 $270 84.034434536220317 $164 $271 forward 7 unknown #
loop $-1 $-1 $171 $102 #
plane-surface $-1 2.7948312422560377 -31.495053916272333 53.171455729181275 0 0.51503808176128008 0.85716729658548041 1 0 0 forward_v I I I I #
loop $-1 $-1 $272 $66 #
coedge $-1 $169 $169 $170 $273 reversed $103 $-1 #
coedge $-1 $170 $170 $169 $273 forward $105 $-1 #
coedge $-1 $171 $171 $106 $172 forward $166 $-1 #
edge $-1 $274 -2.4309742828464225e-015 $274 6.2831853071795978 $171 $275 forward 7 unknown #
loop $-1 $-1 $178 $107 #
plane-surface $-1 2.7948312422560377 -31.495053916272333 53.171455729181275 0 0.51503808176128008 0.85716729658548041 1 0 0 forward_v I I I I #
loop $-1 $-1 $276 $69 #
coedge $-1 $176 $176 $177 $277 reversed $108 $-1 #
coedge $-1 $177 $177 $176 $277 forward $110 $-1 #
coedge $-1 $178 $178 $111 $179 forward $173 $-1 #
edge $-1 $278 -2.4309742828464225e-015 $278 6.2831853071795978 $178 $279 forward 7 unknown #
face $-1 $280 $281 $27 $-1 $282 reversed single #
loop $-1 $-1 $283 $112 #
plane-surface $-1 -76.06921597949156 0 0 1 0 0 0 0 -1 forward_v I I I I #
coedge $-1 $284 $191 $285 $286 forward $113 $-1 #
coedge $-1 $287 $115 $284 $288 forward $73 $-1 #
coedge $-1 $115 $287 $289 $290 forward $73 $-1 #
coedge $-1 $194 $193 $115 $187 reversed $195 $-1 #
edge $-1 $291 -44.090058380715526 $292 44.090058380715526 $186 $293 forward 7 unknown #
coedge $-1 $117 $116 $294 $295 forward $46 $-1 #
coedge $-1 $296 $297 $116 $190 reversed $281 $-1 #
edge $-1 $197 -76.06921597949156 $298 76.06921597949156 $189 $299 forward 7 unknown #
coedge $-1 $183 $300 $117 $192 reversed $113 $-1 #
edge $-1 $301 -76.06921597949156 $196 76.06921597949156 $191 $302 forward 7 unknown #
coedge $-1 $186 $118 $300 $303 forward $195 $-1 #
coedge $-1 $118 $186 $296 $304 reversed $195 $-1 #
loop $-1 $-1 $193 $280 #
vertex $-1 $119 $305 #
vertex $-1 $119 $306 #
straight-curve $-1 76.06921597949156 0 14.250183516372198 0 1 0 I I #
face $-1 $307 $308 $28 $-1 $309 reversed single #
loop $-1 $-1 $204 $120 #
plane-surface $-1 0 -44.090058380715526 0 0 1 0 0 0 1 forward_v I I I I #
coedge $-1 $310 $311 $203 $312 forward $121 $-1 #
coedge $-1 $211 $123 $202 $312 reversed $77 $-1 #
coedge $-1 $209 $313 $123 $205 forward $200 $-1 #
edge $-1 $314 -8.8157218406080808 $212 -2.0532015109201511 $204 $315 forward 7 unknown #
coedge $-1 $125 $124 $316 $317 reversed $49 $-1 #
coedge $-1 $318 $319 $124 $208 forward $320 $-1 #
edge $-1 $321 -41.418336180086598 $213 -27.883423418723325 $207 $322 forward 7 unknown #
coedge $-1 $323 $204 $125 $210 forward $200 $-1 #
edge $-1 $212 27.883423418723325 $324 41.418336180086598 $209 $325 forward 7 unknown #
coedge $-1 $126 $203 $318 $326 reversed $77 $-1 #
vertex $-1 $210 $327 #
vertex $-1 $208 $328 #
straight-curve $-1 -62.534303218128287 0 -7.4876631866842676 0 1 0 I I #
face $-1 $329 $330 $29 $-1 $331 reversed single #
loop $-1 $-1 $332 $128 #
plane-surface $-1 0 0 -14.250183516372198 0 0 1 1 0 0 forward_v I I I I #
coedge $-1 $333 $334 $133 $226 forward $129 $-1 #
coedge $-1 $335 $131 $332 $336 reversed $81 $-1 #
coedge $-1 $131 $335 $223 $337 reversed $81 $-1 #
coedge $-1 $224 $338 $131 $222 forward $330 $-1 #
edge $-1 $339 -8.8157218406080808 $340 -2.0532015109201511 $221 $341 forward 7 unknown #
coedge $-1 $133 $132 $220 $337 forward $52 $-1 #
coedge $-1 $342 $221 $132 $225 forward $330 $-1 #
edge $-1 $340 27.883423418723325 $230 41.418336180086598 $224 $343 forward 7 unknown #
edge $-1 $231 -41.418336180086598 $344 -27.883423418723325 $218 $345 forward 7 unknown #
coedge $-1 $346 $134 $334 $347 forward $229 $-1 #
coedge $-1 $134 $346 $342 $348 reversed $229 $-1 #
loop $-1 $-1 $134 $329 #
vertex $-1 $348 $349 #
vertex $-1 $347 $350 #
straight-curve $-1 76.06921597949156 0 -7.4876631866842676 0 -1 0 I I #
face $-1 $-1 $245 $30 $-1 $351 reversed single #
loop $-1 $-1 $352 $136 #
plane-surface $-1 0 0 14.250183516372198 0 0 1 1 0 0 forward_v I I I I #
coedge $-1 $353 $354 $355 $356 reversed $137 $-1 #
coedge $-1 $357 $139 $141 $243 forward $85 $-1 #
coedge $-1 $139 $357 $353 $358 forward $85 $-1 #
coedge $-1 $355 $142 $139 $240 forward $245 $-1 #
edge $-1 $247 -37.436705389648395 $359 -12.758490267311384 $239 $360 forward 7 unknown #
coedge $-1 $361 $362 $140 $242 forward $234 $-1 #
edge $-1 $363 -28.747240038348707 $246 -23.734568365060618 $241 $364 forward 7 unknown #
edge $-1 $247 8.8817612989391469e-015 $363 6.2765449898745631 $141 $365 forward 7 unknown #
coedge $-1 $142 $355 $361 $366 reversed $245 $-1 #
loop $-1 $-1 $355 $233 #
vertex $-1 $366 $367 #
vertex $-1 $143 $368 #
straight-curve $-1 -62.534303218128279 -44.090058380715526 65.988008866025098 0 0 -1 I I #
coedge $-1 $249 $249 $-1 $369 reversed $146 $-1 #
edge $-1 $370 0 $370 6.2831853071796004 $147 $371 forward 7 unknown #
vertex $-1 $150 $372 #
ellipse-curve $-1 -55.483384611746281 -41.583722544071478 12.361523958263955 0 -0.6018150307709319 0.79863550430605224 1.5 0 0 1 I I #
coedge $-1 $253 $253 $-1 $373 reversed $153 $-1 #
edge $-1 $374 0 $374 6.2831853071796004 $154 $375 forward 7 unknown #
vertex $-1 $157 $376 #
ellipse-curve $-1 -44.907006702173277 -41.583722544071478 12.361523958263955 0 -0.6018150307709319 0.79863550430605224 1.5 0 0 1 I I #
face $-1 $-1 $377 $33 $-1 $378 forward single #
loop $-1 $-1 $164 $158 #
plane-surface $-1 0 44.090058380715526 0 0 -1 0 0 0 -1 forward_v I I I I #
coedge $-1 $379 $380 $381 $382 reversed $159 $-1 #
coedge $-1 $383 $161 $163 $267 forward $99 $-1 #
coedge $-1 $161 $383 $379 $384 forward $99 $-1 #
coedge $-1 $381 $164 $161 $264 forward $258 $-1 #
edge $-1 $270 -8.5955305369828281 $385 5.8006992947267904 $263 $386 forward 7 unknown #
coedge $-1 $387 $388 $162 $266 forward $377 $-1 #
edge $-1 $389 9.8498035606943581 $269 20.659042259689844 $265 $390 forward 7 unknown #
edge $-1 $270 -88.180116761431037 $389 -75.569697836147725 $163 $391 forward 7 unknown #
coedge $-1 $164 $381 $387 $392 reversed $258 $-1 #
vertex $-1 $392 $393 #
vertex $-1 $165 $394 #
straight-curve $-1 9.992946158110847 44.090058380715526 91.789772079108445 0 0 -1 I I #
coedge $-1 $272 $272 $-1 $395 reversed $168 $-1 #
edge $-1 $396 0 $396 6.2831853071796004 $169 $397 forward 7 unknown #
vertex $-1 $172 $398 #
ellipse-curve $-1 -0.29007515025315911 38.685439031217776 11.002760529630166 0 0.51503808176128008 0.85716729658548041 1 0 0 1 I I #
coedge $-1 $276 $276 $-1 $399 reversed $175 $-1 #
edge $-1 $400 0 $400 6.2831853071796004 $176 $401 forward 7 unknown #
vertex $-1 $179 $402 #
ellipse-curve $-1 5.8797376347652488 38.685439031217776 11.002760529630166 0 0.51503808176128008 0.85716729658548041 1 0 0 1 I I #
face $-1 $-1 $195 $27 $-1 $403 reversed single #
loop $-1 $-1 $296 $180 #
plane-surface $-1 0 44.090058380715526 0 0 -1 0 0 0 -1 forward_v I I I I #
coedge $-1 $404 $294 $297 $405 forward $181 $-1 #
coedge $-1 $300 $183 $184 $288 reversed $113 $-1 #
coedge $-1 $294 $404 $183 $286 reversed $181 $-1 #
edge $-1 $301 -14.250183516372198 $406 14.250183516372198 $285 $407 forward 7 unknown #
coedge $-1 $185 $184 $404 $408 forward $73 $-1 #
edge $-1 $292 -76.06921597949156 $406 76.06921597949156 $284 $409 forward 7 unknown #
coedge $-1 $297 $296 $185 $290 reversed $281 $-1 #
edge $-1 $410 -76.06921597949156 $291 76.06921597949156 $289 $411 forward 7 unknown #
vertex $-1 $187 $412 #
vertex $-1 $303 $413 #
straight-curve $-1 76.06921597949156 0 -14.250183516372198 0 -1 0 I I #
coedge $-1 $283 $285 $188 $295 reversed $181 $-1 #
edge $-1 $298 -44.090058380715526 $301 44.090058380715526 $294 $414 forward 7 unknown #
coedge $-1 $289 $189 $194 $304 forward $281 $-1 #
coedge $-1 $189 $289 $283 $405 reversed $281 $-1 #
vertex $-1 $190 $415 #
straight-curve $-1 0 44.090058380715526 14.250183516372198 -1 0 0 I I #
coedge $-1 $191 $284 $193 $303 reversed $113 $-1 #
vertex $-1 $295 $416 #
straight-curve $-1 0 -44.090058380715526 14.250183516372198 1 0 0 I I #
edge $-1 $196 -14.250183516372198 $292 14.250183516372198 $193 $417 forward 7 unknown #
edge $-1 $197 -14.250183516372198 $291 14.250183516372198 $194 $418 forward 7 unknown #
point $-1 76.06921597949156 -44.090058380715526 14.250183516372198 #
point $-1 76.06921597949156 44.090058380715526 14.250183516372198 #
face $-1 $-1 $320 $28 $-1 $419 reversed single #
loop $-1 $-1 $316 $199 #
plane-surface $-1 -76.06921597949156 0 0 1 0 0 0 0 -1 forward_v I I I I #
coedge $-1 $420 $202 $313 $421 forward $121 $-1 #
coedge $-1 $202 $420 $422 $423 forward $121 $-1 #
edge $-1 $424 -44.090058380715526 $314 44.090058380715526 $202 $425 forward 7 unknown #
coedge $-1 $204 $323 $310 $421 reversed $200 $-1 #
vertex $-1 $421 $426 #
straight-curve $-1 -62.534303218128287 -44.090058380715526 -5.4344616757641164 0 0 1 I I #
coedge $-1 $427 $428 $206 $317 forward $308 $-1 #
edge $-1 $324 -44.090058380715526 $321 44.090058380715526 $316 $429 forward 7 unknown #
coedge $-1 $422 $207 $211 $326 forward $320 $-1 #
coedge $-1 $207 $422 $427 $430 reversed $320 $-1 #
loop $-1 $-1 $318 $307 #
vertex $-1 $430 $431 #
straight-curve $-1 -34.650879799404962 44.090058380715526 -7.4876631866842676 1 0 0 I I #
coedge $-1 $313 $209 $428 $432 forward $200 $-1 #
vertex $-1 $432 $433 #
straight-curve $-1 -34.650879799404962 -44.090058380715526 -7.4876631866842676 -1 0 0 I I #
edge $-1 $213 2.0532015109201511 $424 8.8157218406080808 $318 $434 forward 7 unknown #
point $-1 -62.534303218128287 -44.090058380715526 -7.4876631866842676 #
point $-1 -62.534303218128287 44.090058380715526 -7.4876631866842676 #
face $-1 $-1 $229 $29 $-1 $435 reversed single #
loop $-1 $-1 $224 $215 #
plane-surface $-1 0 44.090058380715526 0 0 -1 0 0 0 -1 forward_v I I I I #
coedge $-1 $436 $437 $219 $336 forward $216 $-1 #
coedge $-1 $438 $218 $335 $439 forward $129 $-1 #
coedge $-1 $218 $438 $227 $347 reversed $129 $-1 #
coedge $-1 $220 $219 $333 $439 reversed $81 $-1 #
edge $-1 $440 -44.090058380715526 $339 44.090058380715526 $332 $441 forward 7 unknown #
edge $-1 $340 -44.090058380715526 $344 44.090058380715526 $220 $442 forward 7 unknown #
coedge $-1 $221 $342 $436 $443 reversed $330 $-1 #
vertex $-1 $443 $444 #
vertex $-1 $225 $445 #
straight-curve $-1 62.534303218128287 44.090058380715526 -5.4344616757641164 0 0 1 I I #
coedge $-1 $338 $224 $228 $348 forward $330 $-1 #
straight-curve $-1 34.650879799404962 44.090058380715526 -7.4876631866842676 1 0 0 I I #
vertex $-1 $226 $446 #
straight-curve $-1 34.650879799404962 -44.090058380715526 -7.4876631866842676 -1 0 0 I I #
coedge $-1 $228 $227 $447 $448 reversed $229 $-1 #
edge $-1 $231 7.4876631866842676 $449 14.250183516372198 $227 $450 forward 7 unknown #
edge $-1 $230 7.4876631866842676 $451 14.250183516372198 $228 $452 forward 7 unknown #
point $-1 76.06921597949156 44.090058380715526 -7.4876631866842676 #
point $-1 76.06921597949156 -44.090058380715526 -7.4876631866842676 #
plane-surface $-1 0 -44.090058380715526 0 0 1 0 0 0 1 forward_v I I I I #
coedge $-1 $362 $361 $354 $453 forward $234 $-1 #
coedge $-1 $354 $236 $238 $358 reversed $137 $-1 #
coedge $-1 $236 $353 $352 $453 reversed $137 $-1 #
coedge $-1 $244 $239 $236 $356 forward $245 $-1 #
edge $-1 $359 -55.51514446586939 $454 -51.737825349652901 $355 $455 forward 7 unknown #
coedge $-1 $238 $237 $362 $456 reversed $85 $-1 #
edge $-1 $457 -6.2765449898745631 $359 -8.8817612989391469e-015 $353 $458 forward 7 unknown #
vertex $-1 $240 $459 #
straight-curve $-1 -25.097597828479888 -44.090058380715526 10.472864400155709 1 0 0 I I #
coedge $-1 $352 $241 $244 $366 forward $234 $-1 #
coedge $-1 $241 $352 $357 $456 forward $234 $-1 #
vertex $-1 $242 $460 #
straight-curve $-1 -62.534303218128279 -67.824626745776143 14.250183516372196 0 -1 0 I I #
straight-curve $-1 -62.534303218128279 -44.090058380715533 10.4728644001557 0 0.79863550430605224 0.6018150307709319 I I #
edge $-1 $246 -62.534303218128279 $454 -37.856088095791272 $244 $461 forward 7 unknown #
point $-1 -62.534303218128279 -44.090058380715526 14.250183516372198 #
point $-1 -62.534303218128279 -44.090058380715526 10.472864400155705 #
edge $-1 $462 1 $462 0 $249 $-1 forward 7 unknown #
vertex $-1 $250 $463 #
ellipse-curve $-1 -55.483384611746281 -39.920792290812201 10.154741020761987 0 -0.6018150307709319 0.79863550430605224 1.5 0 0 1 I I #
point $-1 -53.983384611746281 -41.583722544071463 12.361523958263938 #
edge $-1 $464 1 $464 0 $253 $-1 forward 7 unknown #
vertex $-1 $254 $465 #
ellipse-curve $-1 -44.907006702173277 -39.920792290812201 10.154741020761987 0 -0.6018150307709319 0.79863550430605224 1.5 0 0 1 I I #
point $-1 -43.407006702173277 -41.583722544071463 12.361523958263938 #
loop $-1 $-1 $265 $257 #
plane-surface $-1 0 0 14.250183516372198 0 0 1 1 0 0 forward_v I I I I #
coedge $-1 $380 $260 $262 $384 reversed $159 $-1 #
coedge $-1 $260 $379 $466 $467 reversed $159 $-1 #
coedge $-1 $268 $263 $260 $382 forward $258 $-1 #
edge $-1 $385 -84.034434536220317 $468 -77.539588562736242 $381 $469 forward 7 unknown #
coedge $-1 $262 $261 $388 $470 reversed $99 $-1 #
edge $-1 $471 75.569697836147725 $385 88.180116761431037 $379 $472 forward 7 unknown #
vertex $-1 $264 $473 #
straight-curve $-1 1.3974156211280189 44.090058380715519 7.7553375428881317 -1 0 0 I I #
coedge $-1 $466 $265 $268 $392 forward $377 $-1 #
coedge $-1 $265 $466 $383 $470 forward $377 $-1 #
vertex $-1 $266 $474 #
straight-curve $-1 9.992946158110847 23.431016121025682 14.250183516372203 0 1 0 I I #
straight-curve $-1 9.992946158110847 -31.495053916272333 53.171455729181275 0 -0.85716729658548041 0.51503808176128008 I I #
edge $-1 $269 -9.992946158110847 $468 4.4032836735987715 $268 $475 forward 7 unknown #
point $-1 9.992946158110847 44.090058380715526 14.250183516372198 #
point $-1 9.992946158110847 44.090058380715526 7.7553375428881282 #
edge $-1 $476 1 $476 0 $272 $-1 forward 7 unknown #
vertex $-1 $273 $477 #
ellipse-curve $-1 -0.29007515025315911 37.717669791005299 9.3921220686551532 0 0.51503808176128008 0.85716729658548041 1 0 0 1 I I #
point $-1 0.70992484974684089 38.685439031217769 11.002760529630159 #
edge $-1 $478 1 $478 0 $276 $-1 forward 7 unknown #
vertex $-1 $277 $479 #
ellipse-curve $-1 5.8797376347652488 37.717669791005299 9.3921220686551532 0 0.51503808176128008 0.85716729658548041 1 0 0 1 I I #
point $-1 6.8797376347652488 38.685439031217769 11.002760529630159 #
plane-surface $-1 76.06921597949156 0 0 -1 0 0 0 0 1 forward_v I I I I #
coedge $-1 $285 $283 $287 $408 reversed $181 $-1 #
edge $-1 $298 -14.250183516372198 $410 14.250183516372198 $297 $480 forward 7 unknown #
vertex $-1 $408 $481 #
straight-curve $-1 -76.06921597949156 -44.090058380715526 0 0 0 -1 I I #
edge $-1 $406 -44.090058380715526 $410 44.090058380715526 $404 $482 forward 7 unknown #
straight-curve $-1 0 -44.090058380715526 -14.250183516372198 -1 0 0 I I #
vertex $-1 $290 $483 #
straight-curve $-1 0 44.090058380715526 -14.250183516372198 1 0 0 I I #
point $-1 76.06921597949156 44.090058380715526 -14.250183516372198 #
point $-1 76.06921597949156 -44.090058380715526 -14.250183516372198 #
straight-curve $-1 -76.06921597949156 0 14.250183516372198 0 -1 0 I I #
point $-1 -76.06921597949156 44.090058380715526 14.250183516372198 #
point $-1 -76.06921597949156 -44.090058380715526 14.250183516372198 #
straight-curve $-1 76.06921597949156 -44.090058380715526 0 0 0 -1 I I #
straight-curve $-1 76.06921597949156 44.090058380715526 0 0 0 -1 I I #
plane-surface $-1 0 44.090058380715526 0 0 -1 0 0 0 -1 forward_v I I I I #
coedge $-1 $311 $310 $484 $485 forward $121 $-1 #
edge $-1 $314 62.534303218128287 $486 76.06921597949156 $313 $487 forward 7 unknown #
coedge $-1 $319 $318 $311 $423 reversed $320 $-1 #
edge $-1 $488 -76.06921597949156 $424 -62.534303218128287 $422 $489 forward 7 unknown #
vertex $-1 $326 $490 #
straight-curve $-1 -62.534303218128287 0 -14.250183516372198 0 -1 0 I I #
point $-1 -62.534303218128287 -44.090058380715526 -14.250183516372198 #
coedge $-1 $484 $316 $319 $430 forward $308 $-1 #
coedge $-1 $316 $484 $323 $432 reversed $308 $-1 #
straight-curve $-1 -76.06921597949156 0 -7.4876631866842676 0 1 0 I I #
edge $-1 $321 7.4876631866842676 $488 14.250183516372198 $319 $491 forward 7 unknown #
point $-1 -76.06921597949156 44.090058380715526 -7.4876631866842676 #
edge $-1 $324 7.4876631866842676 $486 14.250183516372198 $428 $492 forward 7 unknown #
point $-1 -76.06921597949156 -44.090058380715526 -7.4876631866842676 #
straight-curve $-1 -62.534303218128287 44.090058380715526 -5.4344616757641164 0 0 -1 I I #
plane-surface $-1 76.06921597949156 0 0 -1 0 0 0 0 1 forward_v I I I I #
coedge $-1 $447 $332 $338 $443 forward $216 $-1 #
coedge $-1 $332 $447 $438 $493 forward $216 $-1 #
coedge $-1 $334 $333 $437 $493 reversed $129 $-1 #
edge $-1 $344 2.0532015109201511 $440 8.8157218406080808 $333 $494 forward 7 unknown #
vertex $-1 $336 $495 #
straight-curve $-1 62.534303218128287 0 -14.250183516372198 0 1 0 I I #
straight-curve $-1 62.534303218128287 0 -7.4876631866842676 0 -1 0 I I #
edge $-1 $339 62.534303218128287 $451 76.06921597949156 $338 $496 forward 7 unknown #
point $-1 62.534303218128287 44.090058380715526 -14.250183516372198 #
point $-1 62.534303218128287 44.090058380715526 -7.4876631866842676 #
point $-1 62.534303218128287 -44.090058380715526 -7.4876631866842676 #
coedge $-1 $437 $436 $346 $448 forward $216 $-1 #
edge $-1 $451 -44.090058380715526 $449 44.090058380715526 $346 $497 forward 7 unknown #
vertex $-1 $347 $498 #
straight-curve $-1 76.06921597949156 -44.090058380715526 0 0 0 -1 I I #
vertex $-1 $448 $499 #
straight-curve $-1 76.06921597949156 44.090058380715526 0 0 0 -1 I I #
edge $-1 $454 23.734568365060618 $457 28.747240038348707 $352 $500 forward 7 unknown #
vertex $-1 $453 $501 #
straight-curve $-1 -37.856088095791272 -44.090058380715526 65.988008866025098 0 0 1 I I #
edge $-1 $457 12.758490267311384 $363 37.436705389648395 $362 $502 forward 7 unknown #
vertex $-1 $456 $503 #
straight-curve $-1 -37.856088095791272 -44.090058380715533 10.4728644001557 0 -0.79863550430605224 -0.6018150307709319 I I #
point $-1 -37.856088095791272 -44.090058380715526 10.472864400155705 #
point $-1 -62.534303218128279 -39.077386707427436 14.250183516372198 #
straight-curve $-1 0 -44.090058380715526 14.250183516372198 1 0 0 I I #
vertex $-1 $369 $504 #
point $-1 -53.983384611746281 -39.920792290812201 10.154741020761987 #
vertex $-1 $373 $505 #
point $-1 -43.407006702173277 -39.920792290812201 10.154741020761987 #
coedge $-1 $388 $387 $380 $467 forward $377 $-1 #
edge $-1 $468 -20.659042259689844 $471 -9.8498035606943581 $466 $506 forward 7 unknown #
vertex $-1 $467 $507 #
straight-curve $-1 -4.4032836735987715 44.090058380715526 91.789772079108445 0 0 1 I I #
edge $-1 $471 -5.8006992947267904 $389 8.5955305369828281 $388 $508 forward 7 unknown #
vertex $-1 $470 $509 #
straight-curve $-1 -4.4032836735987715 -31.495053916272333 53.171455729181275 0 0.85716729658548041 -0.51503808176128008 I I #
point $-1 -4.4032836735987715 44.090058380715526 7.7553375428881282 #
point $-1 9.992946158110847 33.28081968172004 14.250183516372196 #
straight-curve $-1 0 44.090058380715526 14.250183516372198 -1 0 0 I I #
vertex $-1 $395 $510 #
point $-1 0.70992484974684089 37.717669791005299 9.3921220686551532 #
vertex $-1 $399 $511 #
point $-1 6.8797376347652488 37.717669791005299 9.3921220686551532 #
straight-curve $-1 -76.06921597949156 44.090058380715526 0 0 0 -1 I I #
point $-1 -76.06921597949156 -44.090058380715526 -14.250183516372198 #
straight-curve $-1 -76.06921597949156 0 -14.250183516372198 0 1 0 I I #
point $-1 -76.06921597949156 44.090058380715526 -14.250183516372198 #
coedge $-1 $428 $427 $420 $485 reversed $308 $-1 #
edge $-1 $486 -44.090058380715526 $488 44.090058380715526 $484 $512 forward 7 unknown #
vertex $-1 $485 $513 #
straight-curve $-1 0 -44.090058380715526 -14.250183516372198 -1 0 0 I I #
vertex $-1 $423 $514 #
straight-curve $-1 0 44.090058380715526 -14.250183516372198 1 0 0 I I #
point $-1 -62.534303218128287 44.090058380715526 -14.250183516372198 #
straight-curve $-1 -76.06921597949156 44.090058380715526 0 0 0 -1 I I #
straight-curve $-1 -76.06921597949156 -44.090058380715526 0 0 0 -1 I I #
edge $-1 $449 -76.06921597949156 $440 -62.534303218128287 $438 $515 forward 7 unknown #
straight-curve $-1 62.534303218128287 -44.090058380715526 -5.4344616757641164 0 0 -1 I I #
point $-1 62.534303218128287 -44.090058380715526 -14.250183516372198 #
straight-curve $-1 0 44.090058380715526 -14.250183516372198 1 0 0 I I #
straight-curve $-1 76.06921597949156 0 -14.250183516372198 0 -1 0 I I #
point $-1 76.06921597949156 -44.090058380715526 -14.250183516372198 #
point $-1 76.06921597949156 44.090058380715526 -14.250183516372198 #
straight-curve $-1 -37.856088095791272 -67.824626745776143 14.250183516372196 0 1 0 I I #
point $-1 -37.856088095791272 -44.090058380715526 14.250183516372198 #
straight-curve $-1 -25.097597828479888 -39.077386707427436 14.250183516372198 -1 0 0 I I #
point $-1 -37.856088095791272 -39.077386707427436 14.250183516372198 #
point $-1 -55.483384611746281 -39.018069744655804 8.9567877643029075 #
point $-1 -44.907006702173277 -39.018069744655804 8.9567877643029075 #
straight-curve $-1 -4.4032836735987715 23.431016121025682 14.250183516372203 0 -1 0 I I #
point $-1 -4.4032836735987715 44.090058380715526 14.250183516372198 #
straight-curve $-1 1.3974156211280189 33.28081968172004 14.250183516372193 1 0 0 I I #
point $-1 -4.4032836735987715 33.28081968172004 14.250183516372196 #
point $-1 -0.29007515025315911 37.202631709244024 8.534954772069673 #
point $-1 5.8797376347652488 37.202631709244024 8.534954772069673 #
straight-curve $-1 -76.06921597949156 0 -14.250183516372198 0 1 0 I I #
point $-1 -76.06921597949156 -44.090058380715526 -14.250183516372198 #
point $-1 -76.06921597949156 44.090058380715526 -14.250183516372198 #
straight-curve $-1 0 -44.090058380715526 -14.250183516372198 -1 0 0 I I #
End-of-ACIS-data 