500 0 9 0           
7 Unknown 11 ACIS 5.0 NT 24 Fri Mar 26 16:31:13 1999 
-1 9.9999999999999995e-007 1e-010 
body $-1 $9 $-1 $10 #
body $-1 $11 $-1 $12 #
body $-1 $13 $-1 $14 #
body $-1 $15 $-1 $16 #
body $-1 $17 $-1 $18 #
body $-1 $19 $-1 $20 #
body $-1 $21 $-1 $22 #
body $-1 $23 $-1 $24 #
body $-1 $25 $-1 $26 #
lump $-1 $-1 $27 $0 #
transform $-1 1 0 0 0 1 0 0 0 1 65.196081423383276 32.927333948044364 14.558088087774539 1 rotate no_reflect no_shear #
lump $-1 $-1 $28 $1 #
transform $-1 1 0 0 0 1 0 0 0 1 65.196081423383276 32.927333948044364 14.558088087774539 1 rotate no_reflect no_shear #
lump $-1 $-1 $29 $2 #
transform $-1 1 0 0 0 1 0 0 0 1 65.196081423383276 32.927333948044364 14.558088087774539 1 rotate no_reflect no_shear #
lump $-1 $-1 $30 $3 #
transform $-1 1 0 0 0 1 0 0 0 1 65.196081423383276 32.927333948044364 14.558088087774539 1 rotate no_reflect no_shear #
lump $-1 $-1 $31 $4 #
transform $-1 1 0 0 0 1 0 0 0 1 65.196081423383276 32.927333948044364 14.558088087774539 1 rotate no_reflect no_shear #
lump $-1 $-1 $32 $5 #
transform $-1 1 0 0 0 1 0 0 0 1 65.196081423383276 32.927333948044364 14.558088087774539 1 rotate no_reflect no_shear #
lump $-1 $-1 $33 $6 #
transform $-1 1 0 0 0 1 0 0 0 1 65.196081423383276 32.927333948044364 14.558088087774539 1 rotate no_reflect no_shear #
lump $-1 $-1 $34 $7 #
transform $-1 1 0 0 0 1 0 0 0 1 65.196081423383276 32.927333948044364 14.558088087774539 1 rotate no_reflect no_shear #
lump $-1 $-1 $35 $8 #
transform $-1 1 0 0 0 1 0 0 0 1 65.196081423383276 32.927333948044364 14.558088087774539 1 rotate no_reflect no_shear #
shell $-1 $-1 $-1 $36 $-1 $9 #
shell $-1 $-1 $-1 $37 $-1 $11 #
shell $-1 $-1 $-1 $38 $-1 $13 #
shell $-1 $-1 $-1 $39 $-1 $15 #
shell $-1 $-1 $-1 $40 $-1 $17 #
shell $-1 $-1 $-1 $41 $-1 $19 #
shell $-1 $-1 $-1 $42 $-1 $21 #
shell $-1 $-1 $-1 $43 $-1 $23 #
shell $-1 $-1 $-1 $44 $-1 $25 #
face $-1 $45 $46 $27 $-1 $47 forward single #
face $-1 $48 $49 $28 $-1 $50 reversed single #
face $-1 $51 $52 $29 $-1 $53 reversed single #
face $-1 $54 $55 $30 $-1 $56 forward single #
face $-1 $57 $58 $31 $-1 $59 forward single #
face $-1 $60 $61 $32 $-1 $62 reversed single #
face $-1 $63 $64 $33 $-1 $65 forward single #
face $-1 $66 $67 $34 $-1 $68 forward single #
face $-1 $69 $70 $35 $-1 $71 forward single #
face $-1 $72 $73 $27 $-1 $74 reversed single #
loop $-1 $-1 $75 $36 #
plane-surface $-1 0 0 14.558088087774539 0 0 1 1 0 0 forward_v I I I I #
face $-1 $76 $77 $28 $-1 $78 reversed single #
loop $-1 $-1 $79 $37 #
plane-surface $-1 -62.801751990910795 -20.786936121370353 0 0 -1 0 0 0 -1 forward_v I I I I #
face $-1 $80 $81 $29 $-1 $82 reversed single #
loop $-1 $-1 $83 $38 #
plane-surface $-1 87.669079037456839 -9.0443877003547755 194.06389692607485 0 -1 0 -0.78801076186113728 0 -0.61566146476048833 forward_v I I I I #
face $-1 $84 $85 $30 $-1 $86 forward single #
loop $-1 $87 $88 $39 #
cone-surface $-1 62.487187143821117 -17.431922286794475 11.755585564607099 -0.78801076186113728 0 -0.61566146476048833 0.61566146476048833 0 -0.78801076186113728 1 I I 0 1 1 forward I I I I #
face $-1 $89 $90 $31 $-1 $91 forward single #
loop $-1 $92 $93 $40 #
cone-surface $-1 62.487187143821117 -12.399401534930654 11.755585564607099 -0.78801076186113728 0 -0.61566146476048833 0.61566146476048833 0 -0.78801076186113728 1 I I 0 1 1 forward I I I I #
face $-1 $94 $95 $32 $-1 $96 reversed single #
loop $-1 $-1 $97 $41 #
plane-surface $-1 -139.98595448102151 19.452822551845045 114.39376372128007 0 1 0 -0.57357644374324357 0 0.81915203911291934 forward_v I I I I #
face $-1 $98 $99 $33 $-1 $100 forward single #
loop $-1 $101 $102 $42 #
cone-surface $-1 -59.38689207580596 22.147724831084908 9.8875060216301058 0.57357644374324357 0 -0.81915203911291934 0.81915203911291934 0 0.57357644374324357 1 I I 0 1 1 forward I I I I #
face $-1 $103 $104 $34 $-1 $105 forward single #
loop $-1 $106 $107 $43 #
cone-surface $-1 -59.38689207580596 26.190078249944705 9.8875060216301058 0.57357644374324357 0 -0.81915203911291934 0.81915203911291934 0 0.57357644374324357 1 I I 0 1 1 forward I I I I #
face $-1 $108 $109 $35 $-1 $110 forward single #
loop $-1 $111 $112 $44 #
cone-surface $-1 -59.38689207580596 30.232431668804502 9.8875060216301058 0.57357644374324357 0 -0.81915203911291934 0.81915203911291934 0 0.57357644374324357 1 I I 0 1 1 forward I I I I #
face $-1 $113 $114 $27 $-1 $115 reversed single #
loop $-1 $-1 $116 $45 #
plane-surface $-1 0 0 -14.558088087774539 0 0 1 1 0 0 forward_v I I I I #
coedge $-1 $117 $118 $119 $120 forward $46 $-1 #
face $-1 $121 $122 $28 $-1 $123 forward single #
loop $-1 $-1 $124 $48 #
plane-surface $-1 -60.407422558438313 -26.857135034707358 0 -1 0 0 0 0 1 forward_v I I I I #
coedge $-1 $125 $126 $127 $128 forward $49 $-1 #
face $-1 $129 $130 $29 $-1 $131 reversed single #
loop $-1 $-1 $132 $51 #
plane-surface $-1 -15.081348548145144 -14.915661910862564 113.78646695454643 0.78801076186113728 0 0.61566146476048833 0.61566146476048833 0 -0.78801076186113728 forward_v I I I I #
coedge $-1 $133 $134 $135 $136 reversed $52 $-1 #
face $-1 $-1 $137 $30 $-1 $138 forward single #
loop $-1 $139 $140 $54 #
cone-surface $-1 60.760150465244664 -17.431922286794475 10.406276668474487 -0.78801076186113728 0 -0.61566146476048833 0.30783073238024417 0 -0.39400538093056864 1 I I -0.70710678118654746 0.70710678118654746 0.5 forward I I I I #
loop $-1 $-1 $141 $39 #
coedge $-1 $88 $88 $142 $143 reversed $55 $-1 #
face $-1 $-1 $144 $31 $-1 $145 forward single #
loop $-1 $146 $147 $57 #
cone-surface $-1 60.760150465244664 -12.399401534930654 10.406276668474487 -0.78801076186113728 0 -0.61566146476048833 0.30783073238024417 0 -0.39400538093056864 1 I I -0.70710678118654746 0.70710678118654746 0.5 forward I I I I #
loop $-1 $-1 $148 $40 #
coedge $-1 $93 $93 $149 $150 reversed $58 $-1 #
face $-1 $151 $152 $32 $-1 $153 reversed single #
loop $-1 $-1 $154 $60 #
plane-surface $-1 -65.196081423383262 26.190078249944705 7.5827576410074045 -0.57357644374324357 0 0.81915203911291934 0.81915203911291934 0 0.57357644374324357 forward_v I I I I #
coedge $-1 $155 $156 $157 $158 reversed $61 $-1 #
face $-1 $-1 $159 $33 $-1 $160 forward single #
loop $-1 $161 $162 $63 #
cone-surface $-1 -58.271816547649273 22.147724831084908 8.2950131593127878 0.57357644374324357 0 -0.81915203911291934 0.40957601955645967 0 0.28678822187162178 1 I I -0.70710678118654746 0.70710678118654746 0.5 forward I I I I #
loop $-1 $-1 $163 $42 #
coedge $-1 $102 $102 $164 $165 reversed $64 $-1 #
face $-1 $-1 $166 $34 $-1 $167 forward single #
loop $-1 $168 $169 $66 #
cone-surface $-1 -58.271816547649273 26.190078249944705 8.2950131593127878 0.57357644374324357 0 -0.81915203911291934 0.40957601955645967 0 0.28678822187162178 1 I I -0.70710678118654746 0.70710678118654746 0.5 forward I I I I #
loop $-1 $-1 $170 $43 #
coedge $-1 $107 $107 $171 $172 reversed $67 $-1 #
face $-1 $-1 $173 $35 $-1 $174 forward single #
loop $-1 $175 $176 $69 #
cone-surface $-1 -58.271816547649273 30.232431668804502 8.2950131593127878 0.57357644374324357 0 -0.81915203911291934 0.40957601955645967 0 0.28678822187162178 1 I I -0.70710678118654746 0.70710678118654746 0.5 forward I I I I #
loop $-1 $-1 $177 $44 #
coedge $-1 $112 $112 $178 $179 reversed $70 $-1 #
face $-1 $180 $181 $27 $-1 $182 reversed single #
loop $-1 $-1 $183 $72 #
plane-surface $-1 0 -32.927333948044364 0 0 1 0 0 0 1 forward_v I I I I #
coedge $-1 $184 $185 $186 $187 forward $73 $-1 #
coedge $-1 $188 $75 $189 $190 forward $46 $-1 #
coedge $-1 $75 $188 $191 $192 forward $46 $-1 #
coedge $-1 $193 $194 $75 $120 reversed $195 $-1 #
edge $-1 $196 -32.927333948044364 $197 32.927333948044364 $119 $198 forward 7 unknown #
face $-1 $199 $200 $28 $-1 $201 reversed single #
loop $-1 $-1 $202 $76 #
plane-surface $-1 0 0 14.558088087774539 0 0 1 1 0 0 forward_v I I I I #
coedge $-1 $203 $204 $205 $206 reversed $77 $-1 #
coedge $-1 $207 $79 $208 $209 reversed $49 $-1 #
coedge $-1 $79 $207 $210 $211 reversed $49 $-1 #
coedge $-1 $204 $203 $79 $128 reversed $77 $-1 #
edge $-1 $212 -14.558088087774539 $213 14.558088087774539 $127 $214 forward 7 unknown #
face $-1 $215 $216 $29 $-1 $217 reversed single #
loop $-1 $-1 $218 $80 #
plane-surface $-1 87.669079037456839 -20.786936121370353 194.06389692607485 0 1 0 0.78801076186113728 0 0.61566146476048833 forward_v I I I I #
coedge $-1 $219 $220 $221 $222 reversed $81 $-1 #
coedge $-1 $134 $83 $223 $224 reversed $52 $-1 #
coedge $-1 $83 $133 $219 $225 reversed $52 $-1 #
coedge $-1 $221 $226 $83 $136 forward $227 $-1 #
edge $-1 $228 -21.361541904654857 $229 -18.60981594082233 $135 $230 forward 7 unknown #
loop $-1 $-1 $142 $84 #
plane-surface $-1 -15.081348548145144 -14.915661910862564 113.78646695454643 0.78801076186113728 0 0.61566146476048833 0.61566146476048833 0 -0.78801076186113728 forward_v I I I I #
loop $-1 $-1 $231 $54 #
coedge $-1 $140 $140 $141 $232 reversed $85 $-1 #
coedge $-1 $141 $141 $140 $232 forward $87 $-1 #
coedge $-1 $142 $142 $88 $143 forward $137 $-1 #
edge $-1 $233 0 $233 6.2831853071796004 $142 $234 forward 7 unknown #
loop $-1 $-1 $149 $89 #
plane-surface $-1 -15.081348548145144 -14.915661910862564 113.78646695454643 0.78801076186113728 0 0.61566146476048833 0.61566146476048833 0 -0.78801076186113728 forward_v I I I I #
loop $-1 $-1 $235 $57 #
coedge $-1 $147 $147 $148 $236 reversed $90 $-1 #
coedge $-1 $148 $148 $147 $236 forward $92 $-1 #
coedge $-1 $149 $149 $93 $150 forward $144 $-1 #
edge $-1 $237 0 $237 6.2831853071796004 $149 $238 forward 7 unknown #
face $-1 $239 $240 $32 $-1 $241 reversed single #
loop $-1 $-1 $242 $94 #
plane-surface $-1 0 32.927333948044364 0 0 -1 0 0 0 -1 forward_v I I I I #
coedge $-1 $243 $244 $245 $246 reversed $95 $-1 #
coedge $-1 $156 $97 $247 $248 reversed $61 $-1 #
coedge $-1 $97 $155 $243 $249 reversed $61 $-1 #
coedge $-1 $245 $250 $97 $158 forward $251 $-1 #
edge $-1 $252 4.7968958171274778 $253 14.758699899711971 $157 $254 forward 7 unknown #
loop $-1 $-1 $164 $98 #
plane-surface $-1 -65.196081423383262 26.190078249944705 7.5827576410074045 -0.57357644374324357 0 0.81915203911291934 0.81915203911291934 0 0.57357644374324357 forward_v I I I I #
loop $-1 $-1 $255 $63 #
coedge $-1 $162 $162 $163 $256 reversed $99 $-1 #
coedge $-1 $163 $163 $162 $256 forward $101 $-1 #
coedge $-1 $164 $164 $102 $165 forward $159 $-1 #
edge $-1 $257 0 $257 6.2831853071796004 $164 $258 forward 7 unknown #
loop $-1 $-1 $171 $103 #
plane-surface $-1 -65.196081423383262 26.190078249944705 7.5827576410074045 -0.57357644374324357 0 0.81915203911291934 0.81915203911291934 0 0.57357644374324357 forward_v I I I I #
loop $-1 $-1 $259 $66 #
coedge $-1 $169 $169 $170 $260 reversed $104 $-1 #
coedge $-1 $170 $170 $169 $260 forward $106 $-1 #
coedge $-1 $171 $171 $107 $172 forward $166 $-1 #
edge $-1 $261 0 $261 6.2831853071796004 $171 $262 forward 7 unknown #
loop $-1 $-1 $178 $108 #
plane-surface $-1 -65.196081423383262 26.190078249944705 7.5827576410074045 -0.57357644374324357 0 0.81915203911291934 0.81915203911291934 0 0.57357644374324357 forward_v I I I I #
loop $-1 $-1 $263 $69 #
coedge $-1 $176 $176 $177 $264 reversed $109 $-1 #
coedge $-1 $177 $177 $176 $264 forward $111 $-1 #
coedge $-1 $178 $178 $112 $179 forward $173 $-1 #
edge $-1 $265 0 $265 6.2831853071796004 $178 $266 forward 7 unknown #
face $-1 $267 $268 $27 $-1 $269 reversed single #
loop $-1 $-1 $270 $113 #
plane-surface $-1 -65.196081423383276 0 0 1 0 0 0 0 -1 forward_v I I I I #
coedge $-1 $271 $191 $272 $273 forward $114 $-1 #
coedge $-1 $274 $116 $271 $275 forward $73 $-1 #
coedge $-1 $116 $274 $276 $277 forward $73 $-1 #
coedge $-1 $194 $193 $116 $187 reversed $195 $-1 #
edge $-1 $278 -32.927333948044364 $279 32.927333948044364 $186 $280 forward 7 unknown #
coedge $-1 $118 $117 $281 $282 forward $46 $-1 #
coedge $-1 $283 $284 $117 $190 reversed $268 $-1 #
edge $-1 $197 -65.196081423383276 $285 65.196081423383276 $189 $286 forward 7 unknown #
coedge $-1 $183 $287 $118 $192 reversed $114 $-1 #
edge $-1 $288 -65.196081423383276 $196 65.196081423383276 $191 $289 forward 7 unknown #
coedge $-1 $186 $119 $287 $290 forward $195 $-1 #
coedge $-1 $119 $186 $283 $291 reversed $195 $-1 #
loop $-1 $-1 $193 $267 #
vertex $-1 $120 $292 #
vertex $-1 $120 $293 #
straight-curve $-1 65.196081423383276 0 14.558088087774539 0 1 0 I I #
face $-1 $294 $295 $28 $-1 $296 reversed single #
loop $-1 $-1 $297 $121 #
plane-surface $-1 -65.196081423383276 0 0 1 0 0 0 0 -1 forward_v I I I I #
coedge $-1 $210 $298 $204 $299 forward $122 $-1 #
coedge $-1 $127 $124 $300 $301 reversed $77 $-1 #
coedge $-1 $124 $127 $202 $299 reversed $77 $-1 #
coedge $-1 $302 $303 $124 $206 forward $304 $-1 #
edge $-1 $305 -14.558088087774539 $306 14.558088087774539 $205 $307 forward 7 unknown #
coedge $-1 $126 $125 $297 $308 reversed $49 $-1 #
coedge $-1 $300 $309 $125 $209 forward $295 $-1 #
edge $-1 $310 -33.795205427927883 $213 -29.006546562982916 $208 $311 forward 7 unknown #
coedge $-1 $312 $202 $126 $211 forward $122 $-1 #
edge $-1 $212 29.006546562982916 $313 33.795205427927883 $210 $314 forward 7 unknown #
vertex $-1 $211 $315 #
vertex $-1 $209 $316 #
straight-curve $-1 -60.407422558438313 -20.786936121370353 0 0 0 -1 I I #
face $-1 $-1 $227 $29 $-1 $317 forward single #
loop $-1 $-1 $318 $129 #
plane-surface $-1 65.196081423383276 0 0 -1 0 0 0 0 1 forward_v I I I I #
coedge $-1 $319 $320 $321 $322 reversed $130 $-1 #
coedge $-1 $323 $132 $134 $225 forward $81 $-1 #
coedge $-1 $132 $323 $319 $324 forward $81 $-1 #
coedge $-1 $321 $135 $132 $222 forward $227 $-1 #
edge $-1 $229 1.5865567449234934 $325 13.329105165939071 $221 $326 forward 7 unknown #
coedge $-1 $327 $328 $133 $224 forward $216 $-1 #
edge $-1 $329 -85.99590909409298 $228 -82.473860375262888 $223 $330 forward 7 unknown #
edge $-1 $229 125.92261891501661 $329 130.39216284676655 $134 $331 forward 7 unknown #
coedge $-1 $135 $321 $327 $332 forward $227 $-1 #
loop $-1 $-1 $321 $215 #
vertex $-1 $224 $333 #
vertex $-1 $136 $334 #
straight-curve $-1 43.83453951872842 -9.0443877003547755 14.558088087774536 -1 0 0 I I #
coedge $-1 $231 $231 $-1 $335 reversed $139 $-1 #
edge $-1 $336 0 $336 6.2831853071796004 $140 $337 forward 7 unknown #
vertex $-1 $143 $338 #
ellipse-curve $-1 63.82021844146702 -17.431922286794475 12.797063728359477 0.78801076186113728 0 0.61566146476048833 0.61566146476048833 0 -0.78801076186113728 1 I I #
coedge $-1 $235 $235 $-1 $339 reversed $146 $-1 #
edge $-1 $340 0 $340 6.2831853071796004 $147 $341 forward 7 unknown #
vertex $-1 $150 $342 #
ellipse-curve $-1 63.82021844146702 -12.399401534930654 12.797063728359477 0.78801076186113728 0 0.61566146476048833 0.61566146476048833 0 -0.78801076186113728 1 I I #
face $-1 $-1 $251 $32 $-1 $343 forward single #
loop $-1 $-1 $344 $151 #
plane-surface $-1 -65.196081423383276 0 0 1 0 0 0 0 -1 forward_v I I I I #
coedge $-1 $345 $346 $244 $347 forward $152 $-1 #
coedge $-1 $348 $154 $156 $249 forward $95 $-1 #
coedge $-1 $154 $348 $242 $347 reversed $95 $-1 #
coedge $-1 $349 $157 $154 $246 forward $251 $-1 #
edge $-1 $253 6.3577834268726932 $350 19.832294823072012 $245 $351 forward 7 unknown #
coedge $-1 $352 $344 $155 $248 forward $240 $-1 #
edge $-1 $353 -49.614124219632636 $252 -42.638793772865498 $247 $354 forward 7 unknown #
edge $-1 $253 -12.161117359083145 $353 1.7244671030687178e-014 $156 $355 forward 7 unknown #
coedge $-1 $157 $349 $352 $356 forward $251 $-1 #
loop $-1 $-1 $245 $239 #
vertex $-1 $248 $357 #
vertex $-1 $158 $358 #
straight-curve $-1 -69.992977240510754 19.452822551845045 14.558088087774536 1 0 0 I I #
coedge $-1 $255 $255 $-1 $359 reversed $161 $-1 #
edge $-1 $360 0 $360 6.2831853071796004 $162 $361 forward 7 unknown #
vertex $-1 $165 $362 #
ellipse-curve $-1 -60.21517938209103 22.147724831084908 11.070422864390968 -0.57357644374324357 0 0.81915203911291934 0.81915203911291934 0 0.57357644374324357 1 I I #
coedge $-1 $259 $259 $-1 $363 reversed $168 $-1 #
edge $-1 $364 0 $364 6.2831853071796004 $169 $365 forward 7 unknown #
vertex $-1 $172 $366 #
ellipse-curve $-1 -60.21517938209103 26.190078249944705 11.070422864390968 -0.57357644374324357 0 0.81915203911291934 0.81915203911291934 0 0.57357644374324357 1 I I #
coedge $-1 $263 $263 $-1 $367 reversed $175 $-1 #
edge $-1 $368 0 $368 6.2831853071796004 $176 $369 forward 7 unknown #
vertex $-1 $179 $370 #
ellipse-curve $-1 -60.21517938209103 30.232431668804502 11.070422864390968 -0.57357644374324357 0 0.81915203911291934 0.81915203911291934 0 0.57357644374324357 1 I I #
face $-1 $-1 $195 $27 $-1 $371 reversed single #
loop $-1 $-1 $283 $180 #
plane-surface $-1 0 32.927333948044364 0 0 -1 0 0 0 -1 forward_v I I I I #
coedge $-1 $372 $281 $284 $373 forward $181 $-1 #
coedge $-1 $287 $183 $184 $275 reversed $114 $-1 #
coedge $-1 $281 $372 $183 $273 reversed $181 $-1 #
edge $-1 $288 -14.558088087774539 $374 14.558088087774539 $272 $375 forward 7 unknown #
coedge $-1 $185 $184 $372 $376 forward $73 $-1 #
edge $-1 $279 -65.196081423383276 $374 65.196081423383276 $271 $377 forward 7 unknown #
coedge $-1 $284 $283 $185 $277 reversed $268 $-1 #
edge $-1 $378 -65.196081423383276 $278 65.196081423383276 $276 $379 forward 7 unknown #
vertex $-1 $187 $380 #
vertex $-1 $290 $381 #
straight-curve $-1 65.196081423383276 0 -14.558088087774539 0 -1 0 I I #
coedge $-1 $270 $272 $188 $282 reversed $181 $-1 #
edge $-1 $285 -32.927333948044364 $288 32.927333948044364 $281 $382 forward 7 unknown #
coedge $-1 $276 $189 $194 $291 forward $268 $-1 #
coedge $-1 $189 $276 $270 $373 reversed $268 $-1 #
vertex $-1 $190 $383 #
straight-curve $-1 0 32.927333948044364 14.558088087774539 -1 0 0 I I #
coedge $-1 $191 $271 $193 $290 reversed $114 $-1 #
vertex $-1 $282 $384 #
straight-curve $-1 0 -32.927333948044364 14.558088087774539 1 0 0 I I #
edge $-1 $196 -14.558088087774539 $279 14.558088087774539 $193 $385 forward 7 unknown #
edge $-1 $197 -14.558088087774539 $278 14.558088087774539 $194 $386 forward 7 unknown #
point $-1 65.196081423383276 -32.927333948044364 14.558088087774539 #
point $-1 65.196081423383276 32.927333948044364 14.558088087774539 #
face $-1 $-1 $304 $28 $-1 $387 reversed single #
loop $-1 $-1 $300 $199 #
plane-surface $-1 0 0 -14.558088087774539 0 0 1 1 0 0 forward_v I I I I #
coedge $-1 $388 $389 $207 $308 forward $200 $-1 #
coedge $-1 $202 $312 $302 $390 forward $122 $-1 #
edge $-1 $306 -19.498766430690686 $212 -7.3583686040166736 $202 $391 forward 7 unknown #
coedge $-1 $392 $208 $203 $301 forward $295 $-1 #
edge $-1 $213 7.3583686040166736 $305 19.498766430690686 $300 $393 forward 7 unknown #
coedge $-1 $394 $205 $298 $390 reversed $304 $-1 #
coedge $-1 $205 $394 $392 $395 reversed $304 $-1 #
loop $-1 $-1 $205 $294 #
vertex $-1 $395 $396 #
vertex $-1 $206 $397 #
straight-curve $-1 -60.407422558438313 -32.927333948044364 0 0 0 1 I I #
edge $-1 $313 -14.558088087774539 $310 14.558088087774539 $297 $398 forward 7 unknown #
coedge $-1 $208 $392 $388 $399 forward $295 $-1 #
vertex $-1 $209 $400 #
straight-curve $-1 -31.400875995455397 -20.786936121370353 -14.558088087774539 1 0 0 I I #
coedge $-1 $298 $210 $389 $401 forward $122 $-1 #
vertex $-1 $401 $402 #
straight-curve $-1 -31.400875995455397 -20.786936121370353 14.558088087774539 -1 0 0 I I #
point $-1 -60.407422558438313 -20.786936121370353 14.558088087774539 #
point $-1 -60.407422558438313 -20.786936121370353 -14.558088087774539 #
plane-surface $-1 0 0 14.558088087774539 0 0 1 1 0 0 forward_v I I I I #
coedge $-1 $328 $327 $320 $403 forward $216 $-1 #
coedge $-1 $320 $218 $220 $324 reversed $130 $-1 #
coedge $-1 $218 $319 $318 $403 reversed $130 $-1 #
coedge $-1 $226 $221 $218 $322 forward $227 $-1 #
edge $-1 $325 18.60981594082233 $404 21.361541904654857 $321 $405 forward 7 unknown #
coedge $-1 $220 $219 $328 $406 reversed $81 $-1 #
edge $-1 $407 -130.39216284676655 $325 -125.92261891501661 $319 $408 forward 7 unknown #
vertex $-1 $222 $409 #
straight-curve $-1 62.444355459550756 -7.457830955431282 14.558088087774536 0 -1 0 I I #
coedge $-1 $318 $223 $226 $332 reversed $216 $-1 #
coedge $-1 $223 $318 $323 $406 forward $216 $-1 #
vertex $-1 $224 $410 #
straight-curve $-1 65.196081423383276 -9.0443877003547755 97.031948463037423 0 0 1 I I #
straight-curve $-1 -15.081348548145144 -9.0443877003547755 113.78646695454643 0.61566146476048833 0 -0.78801076186113728 I I #
edge $-1 $404 -20.786936121370353 $228 -9.0443877003547755 $327 $411 forward 7 unknown #
point $-1 65.196081423383276 -9.0443877003547755 14.558088087774539 #
point $-1 62.444355459550749 -9.0443877003547755 14.558088087774536 #
edge $-1 $412 1 $412 0 $231 $-1 forward 7 unknown #
vertex $-1 $232 $413 #
ellipse-curve $-1 61.154155846175229 -17.431922286794475 10.714107400854731 0.78801076186113728 0 0.61566146476048833 0.61566146476048833 0 -0.78801076186113728 1 I I #
point $-1 64.435879906227498 -17.431922286794475 12.009052966498331 #
edge $-1 $414 1 $414 0 $235 $-1 forward 7 unknown #
vertex $-1 $236 $415 #
ellipse-curve $-1 61.154155846175229 -12.399401534930654 10.714107400854731 0.78801076186113728 0 0.61566146476048833 0.61566146476048833 0 -0.78801076186113728 1 I I #
point $-1 64.435879906227498 -12.399401534930654 12.009052966498331 #
plane-surface $-1 0 0 14.558088087774539 0 0 1 1 0 0 forward_v I I I I #
coedge $-1 $247 $416 $348 $417 forward $240 $-1 #
coedge $-1 $346 $242 $416 $418 reversed $152 $-1 #
coedge $-1 $242 $345 $349 $419 reversed $152 $-1 #
edge $-1 $350 12.366988580237047 $420 24.528105939320206 $242 $421 forward 7 unknown #
coedge $-1 $244 $243 $344 $417 reversed $95 $-1 #
coedge $-1 $250 $245 $346 $419 forward $251 $-1 #
vertex $-1 $419 $422 #
straight-curve $-1 -55.234277340798776 13.095039124972352 14.558088087774541 0 1 0 I I #
coedge $-1 $416 $247 $250 $356 reversed $240 $-1 #
vertex $-1 $248 $423 #
straight-curve $-1 -65.196081423383276 19.452822551845045 57.196881860640033 0 0 1 I I #
straight-curve $-1 -65.196081423383262 19.452822551845045 7.5827576410074045 -0.81915203911291934 0 -0.57357644374324357 I I #
edge $-1 $424 -32.927333948044364 $252 -19.452822551845045 $352 $425 forward 7 unknown #
point $-1 -65.196081423383276 19.452822551845045 14.558088087774539 #
point $-1 -55.234277340798783 19.452822551845045 14.558088087774539 #
edge $-1 $426 1 $426 0 $255 $-1 forward 7 unknown #
vertex $-1 $256 $427 #
ellipse-curve $-1 -58.558604769520898 22.147724831084908 8.7045891788692469 -0.57357644374324357 0 0.81915203911291934 0.81915203911291934 0 0.57357644374324357 1 I I #
point $-1 -59.396027342978108 22.147724831084908 11.643999308134211 #
edge $-1 $428 1 $428 0 $259 $-1 forward 7 unknown #
vertex $-1 $260 $429 #
ellipse-curve $-1 -58.558604769520898 26.190078249944705 8.7045891788692469 -0.57357644374324357 0 0.81915203911291934 0.81915203911291934 0 0.57357644374324357 1 I I #
point $-1 -59.396027342978108 26.190078249944705 11.643999308134211 #
edge $-1 $430 1 $430 0 $263 $-1 forward 7 unknown #
vertex $-1 $264 $431 #
ellipse-curve $-1 -58.558604769520898 30.232431668804502 8.7045891788692469 -0.57357644374324357 0 0.81915203911291934 0.81915203911291934 0 0.57357644374324357 1 I I #
point $-1 -59.396027342978108 30.232431668804502 11.643999308134211 #
plane-surface $-1 65.196081423383276 0 0 -1 0 0 0 0 1 forward_v I I I I #
coedge $-1 $272 $270 $274 $376 reversed $181 $-1 #
edge $-1 $285 -14.558088087774539 $378 14.558088087774539 $284 $432 forward 7 unknown #
vertex $-1 $376 $433 #
straight-curve $-1 -65.196081423383276 -32.927333948044364 0 0 0 -1 I I #
edge $-1 $374 -32.927333948044364 $378 32.927333948044364 $372 $434 forward 7 unknown #
straight-curve $-1 0 -32.927333948044364 -14.558088087774539 -1 0 0 I I #
vertex $-1 $277 $435 #
straight-curve $-1 0 32.927333948044364 -14.558088087774539 1 0 0 I I #
point $-1 65.196081423383276 32.927333948044364 -14.558088087774539 #
point $-1 65.196081423383276 -32.927333948044364 -14.558088087774539 #
straight-curve $-1 -65.196081423383276 0 14.558088087774539 0 -1 0 I I #
point $-1 -65.196081423383276 32.927333948044364 14.558088087774539 #
point $-1 -65.196081423383276 -32.927333948044364 14.558088087774539 #
straight-curve $-1 65.196081423383276 -32.927333948044364 0 0 0 -1 I I #
straight-curve $-1 65.196081423383276 32.927333948044364 0 0 0 -1 I I #
plane-surface $-1 0 -32.927333948044364 0 0 1 0 0 0 1 forward_v I I I I #
coedge $-1 $436 $297 $309 $399 reversed $200 $-1 #
coedge $-1 $297 $436 $312 $401 reversed $200 $-1 #
edge $-1 $437 -65.196081423383276 $306 -60.407422558438313 $302 $438 forward 7 unknown #
straight-curve $-1 -60.407422558438313 -13.428567517353679 14.558088087774539 0 1 0 I I #
coedge $-1 $309 $300 $303 $395 forward $295 $-1 #
straight-curve $-1 -60.407422558438313 -13.428567517353679 -14.558088087774539 0 -1 0 I I #
coedge $-1 $303 $302 $436 $439 forward $304 $-1 #
edge $-1 $305 60.407422558438313 $440 65.196081423383276 $303 $441 forward 7 unknown #
point $-1 -60.407422558438313 -32.927333948044364 -14.558088087774539 #
point $-1 -60.407422558438313 -32.927333948044364 14.558088087774539 #
straight-curve $-1 -65.196081423383276 -20.786936121370353 0 0 0 -1 I I #
edge $-1 $440 -32.927333948044364 $310 -20.786936121370353 $388 $442 forward 7 unknown #
point $-1 -65.196081423383276 -20.786936121370353 -14.558088087774539 #
edge $-1 $313 20.786936121370353 $437 32.927333948044364 $389 $443 forward 7 unknown #
point $-1 -65.196081423383276 -20.786936121370353 14.558088087774539 #
edge $-1 $404 82.473860375262888 $407 85.99590909409298 $318 $444 forward 7 unknown #
vertex $-1 $332 $445 #
straight-curve $-1 43.83453951872842 -20.786936121370353 14.558088087774536 1 0 0 I I #
edge $-1 $407 -13.329105165939071 $329 -1.5865567449234934 $328 $446 forward 7 unknown #
vertex $-1 $406 $447 #
straight-curve $-1 -15.081348548145144 -20.786936121370353 113.78646695454643 -0.61566146476048833 0 0.78801076186113728 I I #
point $-1 62.444355459550749 -20.786936121370353 14.558088087774536 #
point $-1 65.196081423383276 -9.0443877003547755 11.036039368944444 #
straight-curve $-1 65.196081423383276 0 14.558088087774539 0 1 0 I I #
vertex $-1 $335 $448 #
point $-1 61.769817310935721 -17.431922286794475 9.9260966389935934 #
vertex $-1 $339 $449 #
point $-1 61.769817310935721 -12.399401534930654 9.9260966389935934 #
coedge $-1 $344 $352 $345 $418 forward $240 $-1 #
edge $-1 $420 -19.832294823072012 $353 -6.3577834268726932 $344 $450 forward 7 unknown #
edge $-1 $424 -14.558088087774539 $420 -7.5827576410073947 $345 $451 forward 7 unknown #
edge $-1 $350 55.234277340798783 $424 65.196081423383276 $346 $452 forward 7 unknown #
vertex $-1 $417 $453 #
straight-curve $-1 -45.10383342761142 32.927333948044364 21.651501417440212 -0.81915203911291934 0 -0.57357644374324357 I I #
point $-1 -55.234277340798783 32.927333948044364 14.558088087774539 #
point $-1 -65.196081423383276 19.452822551845045 7.5827576410073947 #
vertex $-1 $419 $454 #
straight-curve $-1 -65.196081423383276 0 14.558088087774539 0 -1 0 I I #
vertex $-1 $359 $455 #
point $-1 -57.739452730407976 22.147724831084908 9.2781656226124909 #
vertex $-1 $363 $456 #
point $-1 -57.739452730407976 26.190078249944705 9.2781656226124909 #
vertex $-1 $367 $457 #
point $-1 -57.739452730407976 30.232431668804502 9.2781656226124909 #
straight-curve $-1 -65.196081423383276 32.927333948044364 0 0 0 -1 I I #
point $-1 -65.196081423383276 -32.927333948044364 -14.558088087774539 #
straight-curve $-1 -65.196081423383276 0 -14.558088087774539 0 1 0 I I #
point $-1 -65.196081423383276 32.927333948044364 -14.558088087774539 #
coedge $-1 $389 $388 $394 $439 reversed $200 $-1 #
vertex $-1 $401 $458 #
straight-curve $-1 0 -32.927333948044364 14.558088087774539 1 0 0 I I #
edge $-1 $437 -14.558088087774539 $440 14.558088087774539 $436 $459 forward 7 unknown #
vertex $-1 $399 $460 #
straight-curve $-1 0 -32.927333948044364 -14.558088087774539 -1 0 0 I I #
straight-curve $-1 -65.196081423383276 0 -14.558088087774539 0 1 0 I I #
straight-curve $-1 -65.196081423383276 0 14.558088087774539 0 -1 0 I I #
straight-curve $-1 65.196081423383276 -20.786936121370353 97.031948463037423 0 0 -1 I I #
point $-1 65.196081423383276 -20.786936121370353 14.558088087774539 #
straight-curve $-1 65.196081423383276 -7.457830955431282 11.036039368944436 0 1 0 I I #
point $-1 65.196081423383276 -20.786936121370353 11.036039368944444 #
point $-1 60.366145084314098 -17.431922286794475 10.098445936094242 #
point $-1 60.366145084314098 -12.399401534930654 10.098445936094242 #
straight-curve $-1 -65.196081423383276 13.095039124972352 7.5827576410073982 0 -1 0 I I #
straight-curve $-1 -65.196081423383276 32.927333948044364 0 0 0 -1 I I #
straight-curve $-1 0 32.927333948044364 14.558088087774539 -1 0 0 I I #
point $-1 -65.196081423383276 32.927333948044364 7.5827576410073947 #
point $-1 -65.196081423383276 32.927333948044364 14.558088087774539 #
point $-1 -57.985028325777648 22.147724831084908 7.8854371397563279 #
point $-1 -57.985028325777648 26.190078249944705 7.8854371397563279 #
point $-1 -57.985028325777648 30.232431668804502 7.8854371397563279 #
point $-1 -65.196081423383276 -32.927333948044364 14.558088087774539 #
straight-curve $-1 -65.196081423383276 -32.927333948044364 0 0 0 -1 I I #
point $-1 -65.196081423383276 -32.927333948044364 -14.558088087774539 #
End-of-ACIS-data 