500 0 9 0           
7 Unknown 11 ACIS 5.0 NT 24 Thu Mar 25 19:34:26 1999 
-1 9.9999999999999995e-007 1e-010 
body $-1 $9 $-1 $10 #
body $-1 $11 $-1 $12 #
body $-1 $13 $-1 $14 #
body $-1 $15 $-1 $16 #
body $-1 $17 $-1 $18 #
body $-1 $19 $-1 $20 #
body $-1 $21 $-1 $22 #
body $-1 $23 $-1 $24 #
body $-1 $25 $-1 $26 #
lump $-1 $-1 $27 $0 #
transform $-1 1 0 0 0 1 0 0 0 1 72.165288247321996 36.800619036488754 12.291094536375907 1 rotate no_reflect no_shear #
lump $-1 $-1 $28 $1 #
transform $-1 1 0 0 0 1 0 0 0 1 72.165288247321996 36.800619036488754 12.291094536375907 1 rotate no_reflect no_shear #
lump $-1 $-1 $29 $2 #
transform $-1 1 0 0 0 1 0 0 0 1 72.165288247321996 36.800619036488754 12.291094536375907 1 rotate no_reflect no_shear #
lump $-1 $-1 $30 $3 #
transform $-1 1 0 0 0 1 0 0 0 1 72.165288247321996 36.800619036488754 12.291094536375907 1 rotate no_reflect no_shear #
lump $-1 $-1 $31 $4 #
transform $-1 1 0 0 0 1 0 0 0 1 72.165288247321996 36.800619036488754 12.291094536375907 1 rotate no_reflect no_shear #
lump $-1 $-1 $32 $5 #
transform $-1 1 0 0 0 1 0 0 0 1 72.165288247321996 36.800619036488754 12.291094536375907 1 rotate no_reflect no_shear #
lump $-1 $-1 $33 $6 #
transform $-1 1 0 0 0 1 0 0 0 1 72.165288247321996 36.800619036488754 12.291094536375907 1 rotate no_reflect no_shear #
lump $-1 $-1 $34 $7 #
transform $-1 1 0 0 0 1 0 0 0 1 72.165288247321996 36.800619036488754 12.291094536375907 1 rotate no_reflect no_shear #
lump $-1 $-1 $35 $8 #
transform $-1 1 0 0 0 1 0 0 0 1 72.165288247321996 36.800619036488754 12.291094536375907 1 rotate no_reflect no_shear #
shell $-1 $-1 $-1 $36 $-1 $9 #
shell $-1 $-1 $-1 $37 $-1 $11 #
shell $-1 $-1 $-1 $38 $-1 $13 #
shell $-1 $-1 $-1 $39 $-1 $15 #
shell $-1 $-1 $-1 $40 $-1 $17 #
shell $-1 $-1 $-1 $41 $-1 $19 #
shell $-1 $-1 $-1 $42 $-1 $21 #
shell $-1 $-1 $-1 $43 $-1 $23 #
shell $-1 $-1 $-1 $44 $-1 $25 #
face $-1 $45 $46 $27 $-1 $47 forward single #
face $-1 $48 $49 $28 $-1 $50 forward single #
face $-1 $51 $52 $29 $-1 $53 forward single #
face $-1 $54 $55 $30 $-1 $56 reversed single #
face $-1 $57 $58 $31 $-1 $59 forward single #
face $-1 $60 $61 $32 $-1 $62 forward single #
face $-1 $63 $64 $33 $-1 $65 reversed single #
face $-1 $66 $67 $34 $-1 $68 forward single #
face $-1 $69 $70 $35 $-1 $71 forward single #
face $-1 $72 $73 $27 $-1 $74 reversed single #
loop $-1 $-1 $75 $36 #
plane-surface $-1 0 0 12.291094536375907 0 0 1 1 0 0 forward_v I I I I #
face $-1 $76 $77 $28 $-1 $78 reversed single #
loop $-1 $-1 $79 $37 #
plane-surface $-1 -72.165288247321996 0 0 1 0 0 0 0 -1 forward_v I I I I #
face $-1 $80 $81 $29 $-1 $82 reversed single #
loop $-1 $-1 $83 $38 #
plane-surface $-1 72.165288247321996 0 0 -1 0 0 0 0 1 forward_v I I I I #
face $-1 $84 $85 $30 $-1 $86 reversed single #
loop $-1 $-1 $87 $39 #
plane-surface $-1 -44.864466807650473 122.6086318216105 139.37599263530313 1 0 0 0 -0.85716730853699208 -0.51503806187062418 forward_v I I I I #
face $-1 $88 $89 $31 $-1 $90 forward single #
loop $-1 $91 $92 $40 #
cone-surface $-1 -36.516825225415026 32.912562504553982 6.6516436642089118 0 -0.85716730853699208 -0.51503806187062418 1.5 0 0 1 I I 0 1 1.5 forward I I I I #
face $-1 $93 $94 $32 $-1 $95 forward single #
loop $-1 $96 $97 $41 #
cone-surface $-1 -23.995362852061874 32.912562504553982 6.6516436642089118 0 -0.85716730853699208 -0.51503806187062418 1.5 0 0 1 I I 0 1 1.5 forward I I I I #
face $-1 $98 $99 $33 $-1 $100 reversed single #
loop $-1 $-1 $101 $42 #
plane-surface $-1 18.157322908286265 122.6086318216105 139.37599263530313 1 0 0 0 -0.85716730853699208 -0.51503806187062418 forward_v I I I I #
face $-1 $102 $103 $34 $-1 $104 forward single #
loop $-1 $105 $106 $43 #
cone-surface $-1 26.504964490521701 32.912562504553982 6.6516436642089118 0 -0.85716730853699208 -0.51503806187062418 1.5 0 0 1 I I 0 1 1.5 forward I I I I #
face $-1 $107 $108 $35 $-1 $109 forward single #
loop $-1 $110 $111 $44 #
cone-surface $-1 39.02642686387486 32.912562504553982 6.6516436642089118 0 -0.85716730853699208 -0.51503806187062418 1.5 0 0 1 I I 0 1 1.5 forward I I I I #
face $-1 $112 $113 $27 $-1 $114 reversed single #
loop $-1 $-1 $115 $45 #
plane-surface $-1 0 0 -12.291094536375907 0 0 1 1 0 0 forward_v I I I I #
coedge $-1 $116 $117 $118 $119 forward $46 $-1 #
face $-1 $120 $121 $28 $-1 $122 forward single #
loop $-1 $-1 $123 $48 #
plane-surface $-1 0 36.800619036488754 0 0 -1 0 0 0 -1 forward_v I I I I #
coedge $-1 $124 $125 $126 $127 forward $49 $-1 #
face $-1 $128 $129 $29 $-1 $130 forward single #
loop $-1 $-1 $131 $51 #
plane-surface $-1 0 -36.800619036488754 0 0 1 0 0 0 1 forward_v I I I I #
coedge $-1 $132 $133 $134 $135 forward $52 $-1 #
face $-1 $136 $137 $30 $-1 $138 reversed single #
loop $-1 $-1 $139 $54 #
plane-surface $-1 -30.256094038738453 -1.1068199718959448 65.040252248831834 0 0.85716730853699208 0.51503806187062418 1 0 0 forward_v I I I I #
coedge $-1 $140 $141 $142 $143 reversed $55 $-1 #
face $-1 $-1 $144 $31 $-1 $145 forward single #
loop $-1 $146 $147 $57 #
cone-surface $-1 -36.516825225415026 31.487904763333276 5.7956229614132599 0 -0.85716730853699208 -0.51503806187062418 0.75 0 0 1 I I -0.70710678118654757 0.70710678118654757 0.75 forward I I I I #
loop $-1 $-1 $148 $40 #
coedge $-1 $92 $92 $149 $150 reversed $58 $-1 #
face $-1 $-1 $151 $32 $-1 $152 forward single #
loop $-1 $153 $154 $60 #
cone-surface $-1 -23.995362852061874 31.487904763333276 5.7956229614132599 0 -0.85716730853699208 -0.51503806187062418 0.75 0 0 1 I I -0.70710678118654757 0.70710678118654757 0.75 forward I I I I #
loop $-1 $-1 $155 $41 #
coedge $-1 $97 $97 $156 $157 reversed $61 $-1 #
face $-1 $158 $159 $33 $-1 $160 reversed single #
loop $-1 $-1 $161 $63 #
plane-surface $-1 32.765695677198281 -1.1068199718959448 65.040252248831834 0 0.85716730853699208 0.51503806187062418 1 0 0 forward_v I I I I #
coedge $-1 $162 $163 $164 $165 reversed $64 $-1 #
face $-1 $-1 $166 $34 $-1 $167 forward single #
loop $-1 $168 $169 $66 #
cone-surface $-1 26.504964490521701 31.487904763333276 5.7956229614132599 0 -0.85716730853699208 -0.51503806187062418 0.75 0 0 1 I I -0.70710678118654757 0.70710678118654757 0.75 forward I I I I #
loop $-1 $-1 $170 $43 #
coedge $-1 $106 $106 $171 $172 reversed $67 $-1 #
face $-1 $-1 $173 $35 $-1 $174 forward single #
loop $-1 $175 $176 $69 #
cone-surface $-1 39.02642686387486 31.487904763333276 5.7956229614132599 0 -0.85716730853699208 -0.51503806187062418 0.75 0 0 1 I I -0.70710678118654757 0.70710678118654757 0.75 forward I I I I #
loop $-1 $-1 $177 $44 #
coedge $-1 $111 $111 $178 $179 reversed $70 $-1 #
face $-1 $180 $181 $27 $-1 $182 reversed single #
loop $-1 $-1 $183 $72 #
plane-surface $-1 0 -36.800619036488754 0 0 1 0 0 0 1 forward_v I I I I #
coedge $-1 $184 $185 $186 $187 forward $73 $-1 #
coedge $-1 $188 $75 $189 $190 forward $46 $-1 #
coedge $-1 $75 $188 $191 $192 forward $46 $-1 #
coedge $-1 $193 $194 $75 $119 reversed $195 $-1 #
edge $-1 $196 -36.800619036488754 $197 36.800619036488754 $118 $198 forward 7 unknown #
face $-1 $199 $200 $28 $-1 $201 reversed single #
loop $-1 $-1 $126 $76 #
plane-surface $-1 -76.737037513014627 0 9.7464483575232421 0 0 1 1 0 0 forward_v I I I I #
coedge $-1 $202 $203 $125 $204 forward $77 $-1 #
coedge $-1 $205 $79 $206 $207 reversed $49 $-1 #
coedge $-1 $79 $205 $123 $204 reversed $49 $-1 #
coedge $-1 $208 $209 $79 $127 reversed $121 $-1 #
edge $-1 $210 -36.800619036488754 $211 36.800619036488754 $126 $212 forward 7 unknown #
face $-1 $213 $214 $29 $-1 $215 reversed single #
loop $-1 $-1 $216 $80 #
plane-surface $-1 76.737037513014627 0 9.7464483575232421 0 0 1 1 0 0 forward_v I I I I #
coedge $-1 $217 $218 $133 $219 forward $81 $-1 #
coedge $-1 $220 $83 $221 $222 reversed $52 $-1 #
coedge $-1 $83 $220 $131 $219 reversed $52 $-1 #
coedge $-1 $223 $224 $83 $135 reversed $129 $-1 #
edge $-1 $225 -36.800619036488754 $226 36.800619036488754 $134 $227 forward 7 unknown #
face $-1 $228 $229 $30 $-1 $230 reversed single #
loop $-1 $-1 $231 $84 #
plane-surface $-1 -15.647721269826437 122.6086318216105 139.37599263530313 -1 0 0 0 0.85716730853699208 0.51503806187062418 forward_v I I I I #
coedge $-1 $232 $233 $234 $235 reversed $85 $-1 #
coedge $-1 $141 $87 $236 $237 reversed $55 $-1 #
coedge $-1 $87 $140 $232 $238 reversed $55 $-1 #
coedge $-1 $234 $239 $87 $143 forward $240 $-1 #
edge $-1 $241 24.503696874316496 $242 30.716245418550077 $142 $243 forward 7 unknown #
loop $-1 $-1 $149 $88 #
plane-surface $-1 -30.256094038738453 -1.1068199718959448 65.040252248831834 0 0.85716730853699208 0.51503806187062418 1 0 0 forward_v I I I I #
loop $-1 $-1 $244 $57 #
coedge $-1 $147 $147 $148 $245 reversed $89 $-1 #
coedge $-1 $148 $148 $147 $245 forward $91 $-1 #
coedge $-1 $149 $149 $92 $150 forward $144 $-1 #
edge $-1 $246 -1.0325617025178386e-015 $246 6.2831853071795996 $149 $247 forward 7 unknown #
loop $-1 $-1 $156 $93 #
plane-surface $-1 -30.256094038738453 -1.1068199718959448 65.040252248831834 0 0.85716730853699208 0.51503806187062418 1 0 0 forward_v I I I I #
loop $-1 $-1 $248 $60 #
coedge $-1 $154 $154 $155 $249 reversed $94 $-1 #
coedge $-1 $155 $155 $154 $249 forward $96 $-1 #
coedge $-1 $156 $156 $97 $157 forward $151 $-1 #
edge $-1 $250 -1.0325617025178386e-015 $250 6.2831853071795996 $156 $251 forward 7 unknown #
face $-1 $252 $253 $33 $-1 $254 forward single #
loop $-1 $-1 $255 $98 #
plane-surface $-1 47.3740684461103 122.6086318216105 139.37599263530313 -1 0 0 0 0.85716730853699208 0.51503806187062418 forward_v I I I I #
coedge $-1 $256 $257 $258 $259 reversed $99 $-1 #
coedge $-1 $163 $101 $260 $261 reversed $64 $-1 #
coedge $-1 $101 $162 $256 $262 reversed $64 $-1 #
coedge $-1 $258 $263 $101 $165 forward $253 $-1 #
edge $-1 $264 24.503696874316496 $265 30.716245418550077 $164 $266 forward 7 unknown #
loop $-1 $-1 $171 $102 #
plane-surface $-1 32.765695677198281 -1.1068199718959448 65.040252248831834 0 0.85716730853699208 0.51503806187062418 1 0 0 forward_v I I I I #
loop $-1 $-1 $267 $66 #
coedge $-1 $169 $169 $170 $268 reversed $103 $-1 #
coedge $-1 $170 $170 $169 $268 forward $105 $-1 #
coedge $-1 $171 $171 $106 $172 forward $166 $-1 #
edge $-1 $269 -1.0325617025178386e-015 $269 6.2831853071795996 $171 $270 forward 7 unknown #
loop $-1 $-1 $178 $107 #
plane-surface $-1 32.765695677198281 -1.1068199718959448 65.040252248831834 0 0.85716730853699208 0.51503806187062418 1 0 0 forward_v I I I I #
loop $-1 $-1 $271 $69 #
coedge $-1 $176 $176 $177 $272 reversed $108 $-1 #
coedge $-1 $177 $177 $176 $272 forward $110 $-1 #
coedge $-1 $178 $178 $111 $179 forward $173 $-1 #
edge $-1 $273 -1.0325617025178386e-015 $273 6.2831853071795996 $178 $274 forward 7 unknown #
face $-1 $275 $276 $27 $-1 $277 reversed single #
loop $-1 $-1 $278 $112 #
plane-surface $-1 -72.165288247321996 0 0 1 0 0 0 0 -1 forward_v I I I I #
coedge $-1 $279 $191 $280 $281 forward $113 $-1 #
coedge $-1 $282 $115 $279 $283 forward $73 $-1 #
coedge $-1 $115 $282 $284 $285 forward $73 $-1 #
coedge $-1 $194 $193 $115 $187 reversed $195 $-1 #
edge $-1 $286 -36.800619036488754 $287 36.800619036488754 $186 $288 forward 7 unknown #
coedge $-1 $117 $116 $289 $290 forward $46 $-1 #
coedge $-1 $291 $292 $116 $190 reversed $276 $-1 #
edge $-1 $197 -72.165288247321996 $293 72.165288247321996 $189 $294 forward 7 unknown #
coedge $-1 $183 $295 $117 $192 reversed $113 $-1 #
edge $-1 $296 -72.165288247321996 $196 72.165288247321996 $191 $297 forward 7 unknown #
coedge $-1 $186 $118 $295 $298 forward $195 $-1 #
coedge $-1 $118 $186 $291 $299 reversed $195 $-1 #
loop $-1 $-1 $193 $275 #
vertex $-1 $119 $300 #
vertex $-1 $119 $301 #
straight-curve $-1 72.165288247321996 0 12.291094536375907 0 1 0 I I #
face $-1 $302 $303 $28 $-1 $304 reversed single #
loop $-1 $-1 $305 $120 #
plane-surface $-1 -76.737037513014627 0 4.0756726080794827 0 0 1 1 0 0 forward_v I I I I #
coedge $-1 $306 $123 $307 $308 reversed $77 $-1 #
coedge $-1 $123 $306 $208 $309 reversed $77 $-1 #
edge $-1 $210 -9.7464483575232421 $310 -4.0756726080794827 $123 $311 forward 7 unknown #
coedge $-1 $125 $124 $305 $312 forward $49 $-1 #
coedge $-1 $313 $314 $124 $207 forward $315 $-1 #
edge $-1 $316 4.0756726080794827 $211 9.7464483575232421 $206 $317 forward 7 unknown #
coedge $-1 $318 $126 $203 $309 forward $121 $-1 #
coedge $-1 $126 $318 $313 $319 forward $121 $-1 #
vertex $-1 $204 $320 #
vertex $-1 $319 $321 #
straight-curve $-1 -72.165288247321996 0 9.7464483575232421 0 -1 0 I I #
face $-1 $322 $323 $29 $-1 $324 reversed single #
loop $-1 $-1 $325 $128 #
plane-surface $-1 76.737037513014627 0 4.0756726080794827 0 0 1 1 0 0 forward_v I I I I #
coedge $-1 $224 $223 $326 $327 forward $129 $-1 #
coedge $-1 $328 $131 $329 $330 reversed $81 $-1 #
coedge $-1 $131 $328 $223 $331 reversed $81 $-1 #
edge $-1 $225 -9.7464483575232421 $332 -4.0756726080794827 $131 $333 forward 7 unknown #
coedge $-1 $133 $132 $334 $335 forward $52 $-1 #
coedge $-1 $336 $337 $132 $222 forward $338 $-1 #
edge $-1 $339 4.0756726080794827 $226 9.7464483575232421 $221 $340 forward 7 unknown #
coedge $-1 $216 $134 $218 $331 forward $129 $-1 #
coedge $-1 $134 $216 $336 $341 forward $129 $-1 #
vertex $-1 $219 $342 #
vertex $-1 $341 $343 #
straight-curve $-1 72.165288247321996 0 9.7464483575232421 0 1 0 I I #
face $-1 $-1 $240 $30 $-1 $344 forward single #
loop $-1 $-1 $345 $136 #
plane-surface $-1 0 36.800619036488754 0 0 -1 0 0 0 -1 forward_v I I I I #
coedge $-1 $346 $347 $348 $349 reversed $137 $-1 #
coedge $-1 $350 $139 $141 $238 forward $85 $-1 #
coedge $-1 $139 $350 $346 $351 forward $85 $-1 #
coedge $-1 $348 $142 $139 $235 forward $240 $-1 #
edge $-1 $242 -29.736419788281246 $352 -0.51967425045721072 $234 $353 forward 7 unknown #
coedge $-1 $354 $355 $140 $237 forward $229 $-1 #
edge $-1 $356 -67.736319212824199 $241 -57.396901781275659 $236 $357 forward 7 unknown #
edge $-1 $242 61.538928499837297 $356 73.601238072977466 $141 $358 forward 7 unknown #
coedge $-1 $142 $348 $354 $359 forward $240 $-1 #
loop $-1 $-1 $348 $228 #
vertex $-1 $237 $360 #
vertex $-1 $143 $361 #
straight-curve $-1 -44.864466807650473 61.304315910805251 12.291094536375908 0 -1 0 I I #
coedge $-1 $244 $244 $-1 $362 reversed $146 $-1 #
edge $-1 $363 0 $363 6.2831853071796004 $147 $364 forward 7 unknown #
vertex $-1 $150 $365 #
ellipse-curve $-1 -36.516825225415026 33.694344764371976 7.1213858206016152 0 0.85716730853699208 0.51503806187062418 1.5 0 0 1 I I #
coedge $-1 $248 $248 $-1 $366 reversed $153 $-1 #
edge $-1 $367 0 $367 6.2831853071796004 $154 $368 forward 7 unknown #
vertex $-1 $157 $369 #
ellipse-curve $-1 -23.995362852061874 33.694344764371976 7.1213858206016152 0 0.85716730853699208 0.51503806187062418 1.5 0 0 1 I I #
face $-1 $-1 $370 $33 $-1 $371 reversed single #
loop $-1 $-1 $164 $158 #
plane-surface $-1 0 0 12.291094536375907 0 0 1 1 0 0 forward_v I I I I #
coedge $-1 $372 $373 $374 $375 reversed $159 $-1 #
coedge $-1 $376 $161 $163 $262 forward $99 $-1 #
coedge $-1 $161 $376 $372 $377 forward $99 $-1 #
coedge $-1 $374 $164 $161 $259 forward $253 $-1 #
edge $-1 $265 1.7744750696871243 $378 30.99122060751116 $258 $379 forward 7 unknown #
coedge $-1 $380 $381 $162 $261 forward $370 $-1 #
edge $-1 $382 -67.736319212824199 $264 -57.396901781275659 $260 $383 forward 7 unknown #
edge $-1 $265 61.538928499837297 $382 73.601238072977466 $163 $384 forward 7 unknown #
coedge $-1 $164 $374 $380 $385 forward $253 $-1 #
vertex $-1 $165 $386 #
vertex $-1 $165 $387 #
straight-curve $-1 18.157322908286265 61.304315910805251 12.291094536375908 0 -1 0 I I #
coedge $-1 $267 $267 $-1 $388 reversed $168 $-1 #
edge $-1 $389 0 $389 6.2831853071796004 $169 $390 forward 7 unknown #
vertex $-1 $172 $391 #
ellipse-curve $-1 26.504964490521701 33.694344764371976 7.1213858206016152 0 0.85716730853699208 0.51503806187062418 1.5 0 0 1 I I #
coedge $-1 $271 $271 $-1 $392 reversed $175 $-1 #
edge $-1 $393 0 $393 6.2831853071796004 $176 $394 forward 7 unknown #
vertex $-1 $179 $395 #
ellipse-curve $-1 39.02642686387486 33.694344764371976 7.1213858206016152 0 0.85716730853699208 0.51503806187062418 1.5 0 0 1 I I #
face $-1 $-1 $195 $27 $-1 $396 reversed single #
loop $-1 $-1 $291 $180 #
plane-surface $-1 0 36.800619036488754 0 0 -1 0 0 0 -1 forward_v I I I I #
coedge $-1 $397 $289 $292 $398 forward $181 $-1 #
coedge $-1 $295 $183 $184 $283 reversed $113 $-1 #
coedge $-1 $289 $397 $183 $281 reversed $181 $-1 #
edge $-1 $296 -12.291094536375907 $399 12.291094536375907 $280 $400 forward 7 unknown #
coedge $-1 $185 $184 $397 $401 forward $73 $-1 #
edge $-1 $287 -72.165288247321996 $399 72.165288247321996 $279 $402 forward 7 unknown #
coedge $-1 $292 $291 $185 $285 reversed $276 $-1 #
edge $-1 $403 -72.165288247321996 $286 72.165288247321996 $284 $404 forward 7 unknown #
vertex $-1 $187 $405 #
vertex $-1 $298 $406 #
straight-curve $-1 72.165288247321996 0 -12.291094536375907 0 -1 0 I I #
coedge $-1 $278 $280 $188 $290 reversed $181 $-1 #
edge $-1 $293 -36.800619036488754 $296 36.800619036488754 $289 $407 forward 7 unknown #
coedge $-1 $284 $189 $194 $299 forward $276 $-1 #
coedge $-1 $189 $284 $278 $398 reversed $276 $-1 #
vertex $-1 $190 $408 #
straight-curve $-1 0 36.800619036488754 12.291094536375907 -1 0 0 I I #
coedge $-1 $191 $279 $193 $298 reversed $113 $-1 #
vertex $-1 $290 $409 #
straight-curve $-1 0 -36.800619036488754 12.291094536375907 1 0 0 I I #
edge $-1 $196 -12.291094536375907 $287 12.291094536375907 $193 $410 forward 7 unknown #
edge $-1 $197 -12.291094536375907 $286 12.291094536375907 $194 $411 forward 7 unknown #
point $-1 72.165288247321996 -36.800619036488754 12.291094536375907 #
point $-1 72.165288247321996 36.800619036488754 12.291094536375907 #
face $-1 $-1 $315 $28 $-1 $412 reversed single #
loop $-1 $-1 $413 $199 #
plane-surface $-1 -81.308786778707258 0 6.9110604828013624 1 0 0 0 0 -1 forward_v I I I I #
coedge $-1 $414 $307 $205 $312 reversed $200 $-1 #
coedge $-1 $203 $202 $413 $415 reversed $77 $-1 #
coedge $-1 $305 $416 $202 $308 forward $200 $-1 #
edge $-1 $417 -4.5717492656926311 $310 4.5717492656926311 $202 $418 forward 7 unknown #
edge $-1 $210 -4.5717492656926311 $419 4.5717492656926311 $203 $420 forward 7 unknown #
vertex $-1 $204 $421 #
straight-curve $-1 -72.165288247321996 36.800619036488754 0 0 0 -1 I I #
edge $-1 $316 -36.800619036488754 $310 36.800619036488754 $305 $422 forward 7 unknown #
coedge $-1 $423 $206 $209 $319 reversed $315 $-1 #
coedge $-1 $206 $423 $414 $424 reversed $315 $-1 #
loop $-1 $-1 $206 $302 #
vertex $-1 $207 $425 #
straight-curve $-1 -72.165288247321996 -36.800619036488754 0 0 0 1 I I #
coedge $-1 $209 $208 $426 $427 forward $121 $-1 #
edge $-1 $428 -4.5717492656926311 $211 4.5717492656926311 $313 $429 forward 7 unknown #
point $-1 -72.165288247321996 36.800619036488754 9.7464483575232421 #
point $-1 -72.165288247321996 -36.800619036488754 9.7464483575232421 #
face $-1 $-1 $338 $29 $-1 $430 reversed single #
loop $-1 $-1 $431 $213 #
plane-surface $-1 81.308786778707258 0 6.9110604828013624 -1 0 0 0 0 1 forward_v I I I I #
coedge $-1 $329 $432 $433 $434 forward $214 $-1 #
coedge $-1 $431 $435 $216 $327 reversed $323 $-1 #
edge $-1 $436 -36.800619036488754 $437 36.800619036488754 $326 $438 forward 7 unknown #
coedge $-1 $218 $217 $431 $439 reversed $81 $-1 #
coedge $-1 $334 $325 $217 $330 forward $214 $-1 #
edge $-1 $440 -4.5717492656926311 $332 4.5717492656926311 $217 $441 forward 7 unknown #
edge $-1 $225 -4.5717492656926311 $436 4.5717492656926311 $218 $442 forward 7 unknown #
vertex $-1 $219 $443 #
straight-curve $-1 72.165288247321996 -36.800619036488754 0 0 0 -1 I I #
coedge $-1 $432 $329 $220 $335 reversed $214 $-1 #
edge $-1 $339 -36.800619036488754 $332 36.800619036488754 $334 $444 forward 7 unknown #
coedge $-1 $445 $221 $224 $341 reversed $338 $-1 #
coedge $-1 $221 $445 $432 $446 reversed $338 $-1 #
loop $-1 $-1 $221 $322 #
vertex $-1 $222 $447 #
straight-curve $-1 72.165288247321996 36.800619036488754 0 0 0 1 I I #
edge $-1 $437 -4.5717492656926311 $226 4.5717492656926311 $336 $448 forward 7 unknown #
point $-1 72.165288247321996 -36.800619036488754 9.7464483575232421 #
point $-1 72.165288247321996 36.800619036488754 9.7464483575232421 #
plane-surface $-1 0 0 12.291094536375907 0 0 1 1 0 0 forward_v I I I I #
coedge $-1 $355 $354 $347 $449 forward $229 $-1 #
coedge $-1 $347 $231 $233 $351 reversed $137 $-1 #
coedge $-1 $231 $346 $345 $449 reversed $137 $-1 #
coedge $-1 $239 $234 $231 $349 forward $240 $-1 #
edge $-1 $352 -30.716245418550077 $450 -24.503696874316496 $348 $451 forward 7 unknown #
coedge $-1 $233 $232 $355 $452 reversed $85 $-1 #
edge $-1 $453 -73.601238072977466 $352 -61.538928499837297 $346 $454 forward 7 unknown #
vertex $-1 $235 $455 #
straight-curve $-1 -15.128047019369227 30.58807049225517 12.291094536375908 1 0 0 I I #
coedge $-1 $345 $236 $239 $359 reversed $229 $-1 #
coedge $-1 $236 $345 $350 $452 forward $229 $-1 #
vertex $-1 $237 $456 #
straight-curve $-1 -44.864466807650473 36.800619036488754 69.687996317651567 0 0 1 I I #
straight-curve $-1 -44.864466807650473 -1.1068199718959448 65.040252248831834 0 0.51503806187062418 -0.85716730853699208 I I #
edge $-1 $450 15.647721269826437 $241 44.864466807650473 $354 $457 forward 7 unknown #
point $-1 -44.864466807650473 36.800619036488754 12.291094536375907 #
point $-1 -44.864466807650473 30.588070492255174 12.291094536375908 #
edge $-1 $458 1 $458 0 $244 $-1 forward 7 unknown #
vertex $-1 $245 $459 #
ellipse-curve $-1 -36.516825225415026 32.130780244736023 6.181901507816228 0 0.85716730853699208 0.51503806187062418 1.5 0 0 1 I I #
point $-1 -35.016825225415026 33.694344764371941 7.1213858206015956 #
edge $-1 $460 1 $460 0 $248 $-1 forward 7 unknown #
vertex $-1 $249 $461 #
ellipse-curve $-1 -23.995362852061874 32.130780244736023 6.181901507816228 0 0.85716730853699208 0.51503806187062418 1.5 0 0 1 I I #
point $-1 -22.495362852061874 33.694344764371941 7.1213858206015956 #
loop $-1 $-1 $260 $252 #
plane-surface $-1 0 36.800619036488754 0 0 -1 0 0 0 -1 forward_v I I I I #
coedge $-1 $373 $255 $257 $377 reversed $159 $-1 #
coedge $-1 $255 $372 $462 $463 reversed $159 $-1 #
coedge $-1 $263 $258 $255 $375 forward $253 $-1 #
edge $-1 $378 -30.716245418550077 $464 -24.503696874316496 $374 $465 forward 7 unknown #
coedge $-1 $257 $256 $381 $466 reversed $99 $-1 #
edge $-1 $467 -73.601238072977466 $378 -61.538928499837297 $372 $468 forward 7 unknown #
vertex $-1 $259 $469 #
straight-curve $-1 16.38284783859914 30.58807049225517 12.291094536375908 1 0 0 I I #
coedge $-1 $462 $260 $263 $385 reversed $370 $-1 #
coedge $-1 $260 $462 $376 $466 forward $370 $-1 #
vertex $-1 $261 $470 #
straight-curve $-1 18.157322908286265 36.800619036488754 69.687996317651567 0 0 1 I I #
straight-curve $-1 18.157322908286265 -1.1068199718959448 65.040252248831834 0 0.51503806187062418 -0.85716730853699208 I I #
edge $-1 $464 -47.3740684461103 $264 -18.157322908286265 $380 $471 forward 7 unknown #
point $-1 18.157322908286265 36.800619036488754 12.291094536375907 #
point $-1 18.157322908286265 30.588070492255174 12.291094536375908 #
edge $-1 $472 1 $472 0 $267 $-1 forward 7 unknown #
vertex $-1 $268 $473 #
ellipse-curve $-1 26.504964490521701 32.130780244736023 6.181901507816228 0 0.85716730853699208 0.51503806187062418 1.5 0 0 1 I I #
point $-1 28.004964490521701 33.694344764371941 7.1213858206015956 #
edge $-1 $474 1 $474 0 $271 $-1 forward 7 unknown #
vertex $-1 $272 $475 #
ellipse-curve $-1 39.02642686387486 32.130780244736023 6.181901507816228 0 0.85716730853699208 0.51503806187062418 1.5 0 0 1 I I #
point $-1 40.52642686387486 33.694344764371941 7.1213858206015956 #
plane-surface $-1 72.165288247321996 0 0 -1 0 0 0 0 1 forward_v I I I I #
coedge $-1 $280 $278 $282 $401 reversed $181 $-1 #
edge $-1 $293 -12.291094536375907 $403 12.291094536375907 $292 $476 forward 7 unknown #
vertex $-1 $401 $477 #
straight-curve $-1 -72.165288247321996 -36.800619036488754 0 0 0 -1 I I #
edge $-1 $399 -36.800619036488754 $403 36.800619036488754 $397 $478 forward 7 unknown #
straight-curve $-1 0 -36.800619036488754 -12.291094536375907 -1 0 0 I I #
vertex $-1 $285 $479 #
straight-curve $-1 0 36.800619036488754 -12.291094536375907 1 0 0 I I #
point $-1 72.165288247321996 36.800619036488754 -12.291094536375907 #
point $-1 72.165288247321996 -36.800619036488754 -12.291094536375907 #
straight-curve $-1 -72.165288247321996 0 12.291094536375907 0 -1 0 I I #
point $-1 -72.165288247321996 36.800619036488754 12.291094536375907 #
point $-1 -72.165288247321996 -36.800619036488754 12.291094536375907 #
straight-curve $-1 72.165288247321996 -36.800619036488754 0 0 0 -1 I I #
straight-curve $-1 72.165288247321996 36.800619036488754 0 0 0 -1 I I #
plane-surface $-1 0 -36.800619036488754 0 0 1 0 0 0 1 forward_v I I I I #
coedge $-1 $480 $426 $306 $415 forward $303 $-1 #
coedge $-1 $416 $305 $314 $424 forward $200 $-1 #
edge $-1 $419 -2.8353878747218797 $417 2.8353878747218797 $306 $481 forward 7 unknown #
coedge $-1 $307 $414 $480 $482 forward $200 $-1 #
vertex $-1 $308 $483 #
straight-curve $-1 -76.737037513014627 36.800619036488754 4.0756726080794827 1 0 0 I I #
vertex $-1 $309 $484 #
straight-curve $-1 -76.737037513014627 36.800619036488754 9.7464483575232421 -1 0 0 I I #
point $-1 -72.165288247321996 36.800619036488754 4.0756726080794827 #
straight-curve $-1 -72.165288247321996 0 4.0756726080794827 0 1 0 I I #
coedge $-1 $314 $313 $485 $486 forward $315 $-1 #
edge $-1 $316 -4.5717492656926311 $487 4.5717492656926311 $314 $488 forward 7 unknown #
point $-1 -72.165288247321996 -36.800619036488754 4.0756726080794827 #
coedge $-1 $413 $485 $318 $427 reversed $303 $-1 #
edge $-1 $419 -36.800619036488754 $428 36.800619036488754 $426 $489 forward 7 unknown #
vertex $-1 $427 $490 #
straight-curve $-1 -76.737037513014627 -36.800619036488754 9.7464483575232421 1 0 0 I I #
plane-surface $-1 0 36.800619036488754 0 0 -1 0 0 0 -1 forward_v I I I I #
coedge $-1 $433 $326 $328 $439 forward $323 $-1 #
coedge $-1 $325 $334 $337 $446 forward $214 $-1 #
coedge $-1 $435 $431 $325 $434 reversed $323 $-1 #
edge $-1 $491 -36.800619036488754 $440 36.800619036488754 $433 $492 forward 7 unknown #
coedge $-1 $326 $433 $445 $493 reversed $323 $-1 #
vertex $-1 $327 $494 #
vertex $-1 $327 $495 #
straight-curve $-1 81.308786778707258 0 9.7464483575232421 0 1 0 I I #
edge $-1 $436 -2.8353878747218797 $440 2.8353878747218797 $431 $496 forward 7 unknown #
vertex $-1 $439 $497 #
straight-curve $-1 76.737037513014627 -36.800619036488754 4.0756726080794827 -1 0 0 I I #
straight-curve $-1 76.737037513014627 -36.800619036488754 9.7464483575232421 1 0 0 I I #
point $-1 72.165288247321996 -36.800619036488754 4.0756726080794827 #
straight-curve $-1 72.165288247321996 0 4.0756726080794827 0 -1 0 I I #
coedge $-1 $337 $336 $435 $493 forward $338 $-1 #
edge $-1 $339 -4.5717492656926311 $491 4.5717492656926311 $337 $498 forward 7 unknown #
point $-1 72.165288247321996 36.800619036488754 4.0756726080794827 #
straight-curve $-1 76.737037513014627 36.800619036488754 9.7464483575232421 -1 0 0 I I #
edge $-1 $450 57.396901781275659 $453 67.736319212824199 $345 $499 forward 7 unknown #
vertex $-1 $359 $500 #
straight-curve $-1 -15.647721269826437 61.304315910805251 12.291094536375908 0 1 0 I I #
edge $-1 $453 0.51967425045721072 $356 29.736419788281246 $355 $501 forward 7 unknown #
vertex $-1 $452 $502 #
straight-curve $-1 -15.647721269826437 -1.1068199718959448 65.040252248831834 0 -0.51503806187062418 0.85716730853699208 I I #
point $-1 -15.647721269826437 30.588070492255174 12.291094536375908 #
point $-1 -44.864466807650473 36.800619036488754 1.9516771048273682 #
straight-curve $-1 0 36.800619036488754 12.291094536375907 -1 0 0 I I #
vertex $-1 $362 $503 #
point $-1 -35.016825225415026 32.130780244736023 6.181901507816228 #
vertex $-1 $366 $504 #
point $-1 -22.495362852061874 32.130780244736023 6.181901507816228 #
coedge $-1 $381 $380 $373 $463 forward $370 $-1 #
edge $-1 $464 57.396901781275659 $467 67.736319212824199 $462 $505 forward 7 unknown #
vertex $-1 $385 $506 #
straight-curve $-1 47.3740684461103 61.304315910805251 12.291094536375908 0 1 0 I I #
edge $-1 $467 -30.99122060751116 $382 -1.7744750696871243 $381 $507 forward 7 unknown #
vertex $-1 $466 $508 #
straight-curve $-1 47.3740684461103 -1.1068199718959448 65.040252248831834 0 -0.51503806187062418 0.85716730853699208 I I #
point $-1 47.3740684461103 30.588070492255174 12.291094536375908 #
point $-1 18.157322908286265 36.800619036488754 1.9516771048273682 #
straight-curve $-1 0 36.800619036488754 12.291094536375907 -1 0 0 I I #
vertex $-1 $388 $509 #
point $-1 28.004964490521701 32.130780244736023 6.181901507816228 #
vertex $-1 $392 $510 #
point $-1 40.52642686387486 32.130780244736023 6.181901507816228 #
straight-curve $-1 -72.165288247321996 36.800619036488754 0 0 0 -1 I I #
point $-1 -72.165288247321996 -36.800619036488754 -12.291094536375907 #
straight-curve $-1 -72.165288247321996 0 -12.291094536375907 0 1 0 I I #
point $-1 -72.165288247321996 36.800619036488754 -12.291094536375907 #
coedge $-1 $485 $413 $416 $482 reversed $303 $-1 #
straight-curve $-1 -81.308786778707258 36.800619036488754 6.9110604828013624 0 0 -1 I I #
edge $-1 $487 -36.800619036488754 $417 36.800619036488754 $480 $511 forward 7 unknown #
point $-1 -81.308786778707258 36.800619036488754 4.0756726080794827 #
point $-1 -81.308786778707258 36.800619036488754 9.7464483575232421 #
coedge $-1 $426 $480 $423 $486 reversed $303 $-1 #
edge $-1 $428 -2.8353878747218797 $487 2.8353878747218797 $485 $512 forward 7 unknown #
vertex $-1 $482 $513 #
straight-curve $-1 -76.737037513014627 -36.800619036488754 4.0756726080794827 -1 0 0 I I #
straight-curve $-1 -81.308786778707258 0 9.7464483575232421 0 -1 0 I I #
point $-1 -81.308786778707258 -36.800619036488754 9.7464483575232421 #
vertex $-1 $434 $514 #
straight-curve $-1 81.308786778707258 0 4.0756726080794827 0 -1 0 I I #
edge $-1 $437 -2.8353878747218797 $491 2.8353878747218797 $435 $515 forward 7 unknown #
point $-1 81.308786778707258 -36.800619036488754 9.7464483575232421 #
point $-1 81.308786778707258 36.800619036488754 9.7464483575232421 #
straight-curve $-1 81.308786778707258 -36.800619036488754 6.9110604828013624 0 0 -1 I I #
point $-1 81.308786778707258 -36.800619036488754 4.0756726080794827 #
straight-curve $-1 76.737037513014627 36.800619036488754 4.0756726080794827 1 0 0 I I #
straight-curve $-1 -15.647721269826437 36.800619036488754 69.687996317651567 0 0 -1 I I #
point $-1 -15.647721269826437 36.800619036488754 12.291094536375907 #
straight-curve $-1 -15.128047019369227 36.800619036488754 1.9516771048273682 -1 0 0 I I #
point $-1 -15.647721269826437 36.800619036488754 1.9516771048273682 #
point $-1 -36.516825225415026 30.845029281930533 5.4093444150102918 #
point $-1 -23.995362852061874 30.845029281930533 5.4093444150102918 #
straight-curve $-1 47.3740684461103 36.800619036488754 69.687996317651567 0 0 -1 I I #
point $-1 47.3740684461103 36.800619036488754 12.291094536375907 #
straight-curve $-1 16.38284783859914 36.800619036488754 1.9516771048273682 -1 0 0 I I #
point $-1 47.3740684461103 36.800619036488754 1.9516771048273682 #
point $-1 26.504964490521701 30.845029281930533 5.4093444150102918 #
point $-1 39.02642686387486 30.845029281930533 5.4093444150102918 #
straight-curve $-1 -81.308786778707258 0 4.0756726080794827 0 1 0 I I #
straight-curve $-1 -81.308786778707258 -36.800619036488754 6.9110604828013624 0 0 -1 I I #
point $-1 -81.308786778707258 -36.800619036488754 4.0756726080794827 #
point $-1 81.308786778707258 36.800619036488754 4.0756726080794827 #
straight-curve $-1 81.308786778707258 36.800619036488754 6.9110604828013624 0 0 -1 I I #
End-of-ACIS-data 