500 0 8 0           
7 Unknown 11 ACIS 5.0 NT 24 Fri Mar 26 01:21:17 1999 
-1 9.9999999999999995e-007 1e-010 
body $-1 $8 $-1 $9 #
body $-1 $10 $-1 $11 #
body $-1 $12 $-1 $13 #
body $-1 $14 $-1 $15 #
body $-1 $16 $-1 $17 #
body $-1 $18 $-1 $19 #
body $-1 $20 $-1 $21 #
body $-1 $22 $-1 $23 #
lump $-1 $-1 $24 $0 #
transform $-1 1 0 0 0 1 0 0 0 1 53.574633014923549 34.226157653370699 12.242220390783428 1 rotate no_reflect no_shear #
lump $-1 $-1 $25 $1 #
transform $-1 1 0 0 0 1 0 0 0 1 53.574633014923549 34.226157653370699 12.242220390783428 1 rotate no_reflect no_shear #
lump $-1 $-1 $26 $2 #
transform $-1 1 0 0 0 1 0 0 0 1 53.574633014923549 34.226157653370699 12.242220390783428 1 rotate no_reflect no_shear #
lump $-1 $-1 $27 $3 #
transform $-1 1 0 0 0 1 0 0 0 1 53.574633014923549 34.226157653370699 12.242220390783428 1 rotate no_reflect no_shear #
lump $-1 $-1 $28 $4 #
transform $-1 1 0 0 0 1 0 0 0 1 53.574633014923549 34.226157653370699 12.242220390783428 1 rotate no_reflect no_shear #
lump $-1 $-1 $29 $5 #
transform $-1 1 0 0 0 1 0 0 0 1 53.574633014923549 34.226157653370699 12.242220390783428 1 rotate no_reflect no_shear #
lump $-1 $-1 $30 $6 #
transform $-1 1 0 0 0 1 0 0 0 1 53.574633014923549 34.226157653370699 12.242220390783428 1 rotate no_reflect no_shear #
lump $-1 $-1 $31 $7 #
transform $-1 1 0 0 0 1 0 0 0 1 53.574633014923549 34.226157653370699 12.242220390783428 1 rotate no_reflect no_shear #
shell $-1 $-1 $-1 $32 $-1 $8 #
shell $-1 $-1 $-1 $33 $-1 $10 #
shell $-1 $-1 $-1 $34 $-1 $12 #
shell $-1 $-1 $-1 $35 $-1 $14 #
shell $-1 $-1 $-1 $36 $-1 $16 #
shell $-1 $-1 $-1 $37 $-1 $18 #
shell $-1 $-1 $-1 $38 $-1 $20 #
shell $-1 $-1 $-1 $39 $-1 $22 #
face $-1 $40 $41 $24 $-1 $42 reversed single #
face $-1 $43 $44 $25 $-1 $45 forward single #
face $-1 $46 $47 $26 $-1 $48 forward single #
face $-1 $49 $50 $27 $-1 $51 reversed single #
face $-1 $52 $53 $28 $-1 $54 forward single #
face $-1 $55 $56 $29 $-1 $57 reversed single #
face $-1 $58 $59 $30 $-1 $60 forward single #
face $-1 $61 $62 $31 $-1 $63 forward single #
face $-1 $64 $65 $24 $-1 $66 forward single #
loop $-1 $-1 $67 $32 #
plane-surface $-1 53.574633014923549 0 0 -1 0 0 0 0 1 forward_v I I I I #
face $-1 $68 $69 $25 $-1 $70 reversed single #
loop $-1 $-1 $71 $33 #
plane-surface $-1 -53.574633014923549 0 0 1 0 0 0 0 -1 forward_v I I I I #
face $-1 $72 $73 $26 $-1 $74 reversed single #
loop $-1 $-1 $75 $34 #
plane-surface $-1 53.574633014923549 0 0 -1 0 0 0 0 1 forward_v I I I I #
face $-1 $76 $77 $27 $-1 $78 reversed single #
loop $-1 $-1 $79 $35 #
plane-surface $-1 -2.335747808808275 -91.006618620757934 95.822375307938614 -1 0 0 0 -0.52991927123019833 0.84804809178421925 forward_v I I I I #
face $-1 $80 $81 $28 $-1 $82 forward single #
loop $-1 $83 $84 $36 #
cone-surface $-1 -9.1728690778543012 -26.582799208865548 5.6984999199320363 0 0.52991927123019833 -0.84804809178421925 2 0 0 1 I I 0 1 2 forward I I I I #
face $-1 $85 $86 $29 $-1 $87 reversed single #
loop $-1 $-1 $88 $37 #
plane-surface $-1 9.7988470417942324 88.819689869366584 117.02150158345025 1 0 0 0 -0.84804810408105047 -0.52991925155115449 forward_v I I I I #
face $-1 $89 $90 $30 $-1 $91 forward single #
loop $-1 $92 $93 $38 #
cone-surface $-1 16.209521566088583 26.89578155887278 4.5981432661598127 0 -0.84804810408105047 -0.52991925155115449 2.5 0 0 1 I I 0 1 2.5 forward I I I I #
face $-1 $94 $95 $31 $-1 $96 forward single #
loop $-1 $97 $98 $39 #
cone-surface $-1 25.825533352530101 26.89578155887278 4.5981432661598127 0 -0.84804810408105047 -0.52991925155115449 2.5 0 0 1 I I 0 1 2.5 forward I I I I #
face $-1 $99 $100 $24 $-1 $101 reversed single #
loop $-1 $-1 $102 $40 #
plane-surface $-1 0 0 12.242220390783428 0 0 1 1 0 0 forward_v I I I I #
coedge $-1 $103 $104 $105 $106 reversed $41 $-1 #
face $-1 $107 $108 $25 $-1 $109 forward single #
loop $-1 $-1 $110 $43 #
plane-surface $-1 0 34.226157653370699 0 0 -1 0 0 0 -1 forward_v I I I I #
coedge $-1 $111 $112 $113 $114 forward $44 $-1 #
face $-1 $115 $116 $26 $-1 $117 forward single #
loop $-1 $-1 $118 $46 #
plane-surface $-1 0 -34.226157653370699 0 0 1 0 0 0 1 forward_v I I I I #
coedge $-1 $119 $120 $121 $122 forward $47 $-1 #
face $-1 $123 $124 $27 $-1 $125 reversed single #
loop $-1 $-1 $126 $49 #
plane-surface $-1 -9.1728690778543012 -34.226157653370713 4.9546447152471131 0 -0.52991927123019833 0.84804809178421925 1 0 0 forward_v I I I I #
coedge $-1 $127 $128 $129 $130 reversed $50 $-1 #
face $-1 $-1 $131 $28 $-1 $132 forward single #
loop $-1 $133 $134 $52 #
cone-surface $-1 -9.1728690778543012 -24.240800879351063 1.9505191950645866 0 0.52991927123019833 -0.84804809178421925 1 0 0 1 I I -0.70710678118654746 0.70710678118654746 1 forward I I I I #
loop $-1 $-1 $135 $36 #
coedge $-1 $84 $84 $136 $137 reversed $53 $-1 #
face $-1 $138 $139 $29 $-1 $140 reversed single #
loop $-1 $-1 $141 $55 #
plane-surface $-1 21.017527459309335 -2.0480420409213593 60.241042724658129 0 0.84804810408105047 0.52991925155115449 1 0 0 forward_v I I I I #
coedge $-1 $142 $143 $144 $145 reversed $56 $-1 #
face $-1 $-1 $146 $30 $-1 $147 forward single #
loop $-1 $148 $149 $58 #
cone-surface $-1 16.209521566088583 21.645949178362187 1.3176840180800529 0 -0.84804810408105047 -0.52991925155115449 1.25 0 0 1 I I -0.70710678118654746 0.70710678118654746 1.25 forward I I I I #
loop $-1 $-1 $150 $38 #
coedge $-1 $93 $93 $151 $152 reversed $59 $-1 #
face $-1 $-1 $153 $31 $-1 $154 forward single #
loop $-1 $155 $156 $61 #
cone-surface $-1 25.825533352530101 21.645949178362187 1.3176840180800529 0 -0.84804810408105047 -0.52991925155115449 1.25 0 0 1 I I -0.70710678118654746 0.70710678118654746 1.25 forward I I I I #
loop $-1 $-1 $157 $39 #
coedge $-1 $98 $98 $158 $159 reversed $62 $-1 #
face $-1 $160 $161 $24 $-1 $162 reversed single #
loop $-1 $-1 $163 $64 #
plane-surface $-1 0 0 -12.242220390783428 0 0 1 1 0 0 forward_v I I I I #
coedge $-1 $164 $165 $103 $166 forward $65 $-1 #
coedge $-1 $167 $67 $102 $166 reversed $41 $-1 #
coedge $-1 $67 $167 $163 $168 reversed $41 $-1 #
coedge $-1 $169 $170 $67 $106 forward $171 $-1 #
edge $-1 $172 -12.242220390783428 $173 12.242220390783428 $67 $174 forward 7 unknown #
face $-1 $175 $176 $25 $-1 $177 reversed single #
loop $-1 $-1 $113 $68 #
plane-surface $-1 -58.318937083355948 0 7.4958027505428664 0 0 1 1 0 0 forward_v I I I I #
coedge $-1 $178 $179 $112 $180 forward $69 $-1 #
coedge $-1 $181 $71 $182 $183 reversed $44 $-1 #
coedge $-1 $71 $181 $110 $180 reversed $44 $-1 #
coedge $-1 $184 $185 $71 $114 reversed $108 $-1 #
edge $-1 $186 -34.226157653370699 $187 34.226157653370699 $113 $188 forward 7 unknown #
face $-1 $189 $190 $26 $-1 $191 reversed single #
loop $-1 $-1 $192 $72 #
plane-surface $-1 58.318937083355948 0 7.4958027505428664 0 0 1 1 0 0 forward_v I I I I #
coedge $-1 $193 $194 $120 $195 forward $73 $-1 #
coedge $-1 $196 $75 $197 $198 reversed $47 $-1 #
coedge $-1 $75 $196 $118 $195 reversed $47 $-1 #
coedge $-1 $199 $200 $75 $122 reversed $116 $-1 #
edge $-1 $201 -34.226157653370699 $202 34.226157653370699 $121 $203 forward 7 unknown #
face $-1 $204 $205 $27 $-1 $206 forward single #
loop $-1 $-1 $207 $76 #
plane-surface $-1 -16.009990346900327 -91.006618620757934 95.822375307938614 1 0 0 0 0.52991927123019833 -0.84804809178421925 forward_v I I I I #
coedge $-1 $208 $209 $210 $211 reversed $77 $-1 #
coedge $-1 $128 $79 $212 $213 reversed $50 $-1 #
coedge $-1 $79 $127 $208 $214 reversed $50 $-1 #
coedge $-1 $210 $215 $79 $130 forward $205 $-1 #
edge $-1 $216 11.277151657008268 $217 22.93971042944996 $129 $218 forward 7 unknown #
loop $-1 $-1 $136 $80 #
plane-surface $-1 -9.1728690778543012 -34.226157653370713 4.9546447152471131 0 -0.52991927123019833 0.84804809178421925 1 0 0 forward_v I I I I #
loop $-1 $-1 $219 $52 #
coedge $-1 $134 $134 $135 $220 reversed $81 $-1 #
coedge $-1 $135 $135 $134 $220 forward $83 $-1 #
coedge $-1 $136 $136 $84 $137 forward $131 $-1 #
edge $-1 $221 -7.5243083115657809e-016 $221 6.2831853071795996 $136 $222 forward 7 unknown #
face $-1 $223 $224 $29 $-1 $225 reversed single #
loop $-1 $-1 $226 $85 #
plane-surface $-1 32.236207876824437 88.819689869366584 117.02150158345025 -1 0 0 0 0.84804810408105047 0.52991925155115449 forward_v I I I I #
coedge $-1 $227 $228 $229 $230 reversed $86 $-1 #
coedge $-1 $143 $88 $231 $232 reversed $56 $-1 #
coedge $-1 $88 $142 $227 $233 reversed $56 $-1 #
coedge $-1 $229 $234 $88 $145 forward $235 $-1 #
edge $-1 $236 10.183687281312594 $237 16.464894969489897 $144 $238 forward 7 unknown #
loop $-1 $-1 $151 $89 #
plane-surface $-1 21.017527459309335 -2.0480420409213593 60.241042724658129 0 0.84804810408105047 0.52991925155115449 1 0 0 forward_v I I I I #
loop $-1 $-1 $239 $58 #
coedge $-1 $149 $149 $150 $240 reversed $90 $-1 #
coedge $-1 $150 $150 $149 $240 forward $92 $-1 #
coedge $-1 $151 $151 $93 $152 forward $146 $-1 #
edge $-1 $241 1.4985622771152588e-016 $241 6.2831853071796004 $151 $242 forward 7 unknown #
loop $-1 $-1 $158 $94 #
plane-surface $-1 21.017527459309335 -2.0480420409213593 60.241042724658129 0 0.84804810408105047 0.52991925155115449 1 0 0 forward_v I I I I #
loop $-1 $-1 $243 $61 #
coedge $-1 $156 $156 $157 $244 reversed $95 $-1 #
coedge $-1 $157 $157 $156 $244 forward $97 $-1 #
coedge $-1 $158 $158 $98 $159 forward $153 $-1 #
edge $-1 $245 1.4985622771152588e-016 $245 6.2831853071796004 $158 $246 forward 7 unknown #
face $-1 $247 $248 $24 $-1 $249 reversed single #
loop $-1 $-1 $250 $99 #
plane-surface $-1 0 -34.226157653370699 0 0 1 0 0 0 1 forward_v I I I I #
coedge $-1 $251 $252 $104 $168 forward $100 $-1 #
coedge $-1 $253 $102 $170 $254 forward $65 $-1 #
coedge $-1 $102 $253 $255 $256 forward $65 $-1 #
edge $-1 $257 -34.226157653370699 $172 34.226157653370699 $103 $258 forward 7 unknown #
coedge $-1 $104 $103 $259 $260 forward $41 $-1 #
edge $-1 $173 -34.226157653370699 $261 34.226157653370699 $104 $262 forward 7 unknown #
coedge $-1 $263 $105 $252 $264 reversed $171 $-1 #
coedge $-1 $105 $263 $164 $254 reversed $171 $-1 #
loop $-1 $-1 $105 $247 #
vertex $-1 $166 $265 #
vertex $-1 $168 $266 #
straight-curve $-1 53.574633014923549 34.226157653370699 0 0 0 -1 I I #
face $-1 $267 $268 $25 $-1 $269 reversed single #
loop $-1 $-1 $270 $107 #
plane-surface $-1 -58.318937083355948 0 4.4958027505428664 0 0 1 1 0 0 forward_v I I I I #
coedge $-1 $271 $110 $272 $273 reversed $69 $-1 #
coedge $-1 $110 $271 $184 $274 reversed $69 $-1 #
edge $-1 $186 -7.4958027505428664 $275 -4.4958027505428664 $110 $276 forward 7 unknown #
coedge $-1 $112 $111 $270 $277 forward $44 $-1 #
coedge $-1 $278 $279 $111 $183 forward $280 $-1 #
edge $-1 $281 4.4958027505428664 $187 7.4958027505428664 $182 $282 forward 7 unknown #
coedge $-1 $283 $113 $179 $274 forward $108 $-1 #
coedge $-1 $113 $283 $278 $284 forward $108 $-1 #
vertex $-1 $180 $285 #
vertex $-1 $284 $286 #
straight-curve $-1 -53.574633014923549 0 7.4958027505428664 0 -1 0 I I #
face $-1 $287 $288 $26 $-1 $289 reversed single #
loop $-1 $-1 $290 $115 #
plane-surface $-1 58.318937083355948 0 4.4958027505428664 0 0 1 1 0 0 forward_v I I I I #
coedge $-1 $200 $199 $291 $292 forward $116 $-1 #
coedge $-1 $293 $118 $294 $295 reversed $73 $-1 #
coedge $-1 $118 $293 $199 $296 reversed $73 $-1 #
edge $-1 $201 -7.4958027505428664 $297 -4.4958027505428664 $118 $298 forward 7 unknown #
coedge $-1 $120 $119 $299 $300 forward $47 $-1 #
coedge $-1 $301 $302 $119 $198 forward $303 $-1 #
edge $-1 $304 4.4958027505428664 $202 7.4958027505428664 $197 $305 forward 7 unknown #
coedge $-1 $192 $121 $194 $296 forward $116 $-1 #
coedge $-1 $121 $192 $301 $306 forward $116 $-1 #
vertex $-1 $195 $307 #
vertex $-1 $306 $308 #
straight-curve $-1 53.574633014923549 0 7.4958027505428664 0 1 0 I I #
face $-1 $-1 $309 $27 $-1 $310 reversed single #
loop $-1 $-1 $129 $123 #
plane-surface $-1 0 0 12.242220390783428 0 0 1 1 0 0 forward_v I I I I #
coedge $-1 $311 $312 $313 $314 reversed $124 $-1 #
coedge $-1 $315 $126 $128 $214 forward $77 $-1 #
coedge $-1 $126 $315 $311 $316 forward $77 $-1 #
coedge $-1 $313 $129 $126 $211 forward $205 $-1 #
edge $-1 $217 -2.2506867301188755 $317 11.423555807973177 $210 $318 forward 7 unknown #
coedge $-1 $319 $320 $127 $213 forward $309 $-1 #
edge $-1 $321 -42.956542938722187 $216 -35.668967263185877 $212 $322 forward 7 unknown #
edge $-1 $217 -13.75223750330562 $321 -1.675811683274863e-014 $128 $323 forward 7 unknown #
coedge $-1 $129 $313 $319 $324 forward $205 $-1 #
vertex $-1 $213 $325 #
vertex $-1 $130 $326 #
straight-curve $-1 -2.335747808808275 -45.503309310378967 12.24222039078343 0 1 0 I I #
coedge $-1 $219 $219 $-1 $327 reversed $133 $-1 #
edge $-1 $328 0 $328 6.2831853071796004 $134 $329 forward 7 unknown #
vertex $-1 $137 $330 #
ellipse-curve $-1 -9.1728690778543012 -28.394878267149846 8.5984325530152805 0 -0.52991927123019833 0.84804809178421925 2 0 0 1 I I #
face $-1 $-1 $235 $29 $-1 $331 forward single #
loop $-1 $-1 $332 $138 #
plane-surface $-1 0 34.226157653370699 0 0 -1 0 0 0 -1 forward_v I I I I #
coedge $-1 $333 $334 $335 $336 reversed $139 $-1 #
coedge $-1 $337 $141 $143 $233 forward $86 $-1 #
coedge $-1 $141 $337 $333 $338 forward $86 $-1 #
coedge $-1 $335 $144 $141 $230 forward $235 $-1 #
edge $-1 $237 -0.70991668786043505 $339 21.72744414716977 $229 $340 forward 7 unknown #
coedge $-1 $341 $342 $142 $232 forward $224 $-1 #
edge $-1 $343 -56.320564282907341 $236 -46.268530400941692 $231 $344 forward 7 unknown #
edge $-1 $237 56.599174154025711 $343 68.45231530674144 $143 $345 forward 7 unknown #
coedge $-1 $144 $335 $341 $346 forward $235 $-1 #
loop $-1 $-1 $335 $223 #
vertex $-1 $232 $347 #
vertex $-1 $145 $348 #
straight-curve $-1 9.7988470417942324 44.409844934683292 12.24222039078343 0 -1 0 I I #
coedge $-1 $239 $239 $-1 $349 reversed $148 $-1 #
edge $-1 $350 0 $350 6.2831853071796004 $149 $351 forward 7 unknown #
vertex $-1 $152 $352 #
ellipse-curve $-1 16.209521566088583 31.085553809282043 7.2162034498006191 0 0.84804810408105047 0.52991925155115449 2.5 0 0 1 I I #
coedge $-1 $243 $243 $-1 $353 reversed $155 $-1 #
edge $-1 $354 0 $354 6.2831853071796004 $156 $355 forward 7 unknown #
vertex $-1 $159 $356 #
ellipse-curve $-1 25.825533352530101 31.085553809282043 7.2162034498006191 0 0.84804810408105047 0.52991925155115449 2.5 0 0 1 I I #
face $-1 $-1 $171 $24 $-1 $357 reversed single #
loop $-1 $-1 $358 $160 #
plane-surface $-1 -53.574633014923549 0 0 1 0 0 0 0 -1 forward_v I I I I #
coedge $-1 $359 $255 $358 $360 forward $161 $-1 #
coedge $-1 $361 $163 $359 $362 forward $100 $-1 #
coedge $-1 $163 $361 $169 $264 forward $100 $-1 #
coedge $-1 $165 $164 $363 $364 forward $65 $-1 #
edge $-1 $172 -53.574633014923549 $365 53.574633014923549 $170 $366 forward 7 unknown #
coedge $-1 $250 $259 $165 $256 reversed $161 $-1 #
edge $-1 $367 -53.574633014923549 $257 53.574633014923549 $255 $368 forward 7 unknown #
vertex $-1 $166 $369 #
straight-curve $-1 53.574633014923549 0 12.242220390783428 0 1 0 I I #
coedge $-1 $255 $359 $167 $260 reversed $161 $-1 #
edge $-1 $257 -12.242220390783428 $261 12.242220390783428 $167 $370 forward 7 unknown #
vertex $-1 $260 $371 #
straight-curve $-1 53.574633014923549 0 -12.242220390783428 0 -1 0 I I #
coedge $-1 $170 $169 $372 $373 reversed $171 $-1 #
edge $-1 $374 -53.574633014923549 $173 53.574633014923549 $169 $375 forward 7 unknown #
point $-1 53.574633014923549 34.226157653370699 12.242220390783428 #
point $-1 53.574633014923549 34.226157653370699 -12.242220390783428 #
face $-1 $-1 $280 $25 $-1 $376 reversed single #
loop $-1 $-1 $377 $175 #
plane-surface $-1 -63.063241151788347 0 5.9958027505428664 1 0 0 0 0 -1 forward_v I I I I #
coedge $-1 $378 $272 $181 $277 reversed $176 $-1 #
coedge $-1 $179 $178 $377 $379 reversed $69 $-1 #
coedge $-1 $270 $380 $178 $273 forward $176 $-1 #
edge $-1 $381 -4.7443040684323989 $275 4.7443040684323989 $178 $382 forward 7 unknown #
edge $-1 $186 -4.7443040684323989 $383 4.7443040684323989 $179 $384 forward 7 unknown #
vertex $-1 $180 $385 #
straight-curve $-1 -53.574633014923549 34.226157653370699 0 0 0 -1 I I #
edge $-1 $281 -34.226157653370699 $275 34.226157653370699 $270 $386 forward 7 unknown #
coedge $-1 $387 $182 $185 $284 reversed $280 $-1 #
coedge $-1 $182 $387 $378 $388 reversed $280 $-1 #
loop $-1 $-1 $182 $267 #
vertex $-1 $183 $389 #
straight-curve $-1 -53.574633014923549 -34.226157653370699 0 0 0 1 I I #
coedge $-1 $185 $184 $390 $391 forward $108 $-1 #
edge $-1 $392 -4.7443040684323989 $187 4.7443040684323989 $278 $393 forward 7 unknown #
point $-1 -53.574633014923549 34.226157653370699 7.4958027505428664 #
point $-1 -53.574633014923549 -34.226157653370699 7.4958027505428664 #
face $-1 $-1 $303 $26 $-1 $394 reversed single #
loop $-1 $-1 $395 $189 #
plane-surface $-1 63.063241151788347 0 5.9958027505428664 -1 0 0 0 0 1 forward_v I I I I #
coedge $-1 $294 $396 $397 $398 forward $190 $-1 #
coedge $-1 $395 $399 $192 $292 reversed $288 $-1 #
edge $-1 $400 -34.226157653370699 $401 34.226157653370699 $291 $402 forward 7 unknown #
coedge $-1 $194 $193 $395 $403 reversed $73 $-1 #
coedge $-1 $299 $290 $193 $295 forward $190 $-1 #
edge $-1 $404 -4.7443040684323989 $297 4.7443040684323989 $193 $405 forward 7 unknown #
edge $-1 $201 -4.7443040684323989 $400 4.7443040684323989 $194 $406 forward 7 unknown #
vertex $-1 $195 $407 #
straight-curve $-1 53.574633014923549 -34.226157653370699 0 0 0 -1 I I #
coedge $-1 $396 $294 $196 $300 reversed $190 $-1 #
edge $-1 $304 -34.226157653370699 $297 34.226157653370699 $299 $408 forward 7 unknown #
coedge $-1 $409 $197 $200 $306 reversed $303 $-1 #
coedge $-1 $197 $409 $396 $410 reversed $303 $-1 #
loop $-1 $-1 $197 $287 #
vertex $-1 $198 $411 #
straight-curve $-1 53.574633014923549 34.226157653370699 0 0 0 1 I I #
edge $-1 $401 -4.7443040684323989 $202 4.7443040684323989 $301 $412 forward 7 unknown #
point $-1 53.574633014923549 -34.226157653370699 7.4958027505428664 #
point $-1 53.574633014923549 34.226157653370699 7.4958027505428664 #
loop $-1 $-1 $212 $204 #
plane-surface $-1 0 -34.226157653370699 0 0 1 0 0 0 1 forward_v I I I I #
coedge $-1 $312 $207 $209 $316 reversed $124 $-1 #
coedge $-1 $207 $311 $413 $414 reversed $124 $-1 #
coedge $-1 $215 $210 $207 $314 forward $205 $-1 #
edge $-1 $317 -22.93971042944996 $415 -11.277151657008268 $313 $416 forward 7 unknown #
coedge $-1 $209 $208 $320 $417 reversed $77 $-1 #
edge $-1 $418 1.675811683274863e-014 $317 13.75223750330562 $311 $419 forward 7 unknown #
vertex $-1 $211 $420 #
straight-curve $-1 -4.5864345389271506 -22.56359888092901 12.242220390783428 -1 0 0 I I #
coedge $-1 $413 $212 $215 $324 reversed $309 $-1 #
coedge $-1 $212 $413 $315 $417 forward $309 $-1 #
vertex $-1 $213 $421 #
straight-curve $-1 -2.335747808808275 -34.226157653370699 47.911187653969307 0 0 1 I I #
straight-curve $-1 -2.335747808808275 -34.226157653370713 4.9546447152471131 0 -0.84804809178421925 -0.52991927123019833 I I #
edge $-1 $415 -16.009990346900327 $216 -2.335747808808275 $319 $422 forward 7 unknown #
point $-1 -2.335747808808275 -34.226157653370699 12.242220390783428 #
point $-1 -2.335747808808275 -22.563598880929007 12.242220390783428 #
edge $-1 $423 1 $423 0 $219 $-1 forward 7 unknown #
vertex $-1 $220 $424 #
ellipse-curve $-1 -9.1728690778543012 -24.770720150581262 2.7985672868488058 0 -0.52991927123019833 0.84804809178421925 2 0 0 1 I I #
point $-1 -7.1728690778543012 -28.394878267149839 8.5984325530152663 #
plane-surface $-1 0 0 12.242220390783428 0 0 1 1 0 0 forward_v I I I I #
coedge $-1 $342 $341 $334 $425 forward $224 $-1 #
coedge $-1 $334 $226 $228 $338 reversed $139 $-1 #
coedge $-1 $226 $333 $332 $425 reversed $139 $-1 #
coedge $-1 $234 $229 $226 $336 forward $235 $-1 #
edge $-1 $339 -16.464894969489897 $426 -10.183687281312594 $335 $427 forward 7 unknown #
coedge $-1 $228 $227 $342 $428 reversed $86 $-1 #
edge $-1 $429 -68.45231530674144 $339 -56.599174154025711 $333 $430 forward 7 unknown #
vertex $-1 $230 $431 #
straight-curve $-1 10.508763729654667 27.944949965193395 12.24222039078343 1 0 0 I I #
coedge $-1 $332 $231 $234 $346 reversed $224 $-1 #
coedge $-1 $231 $332 $337 $428 forward $224 $-1 #
vertex $-1 $232 $432 #
straight-curve $-1 9.7988470417942324 34.226157653370699 58.510750791725123 0 0 1 I I #
straight-curve $-1 9.7988470417942324 -2.0480420409213593 60.241042724658129 0 0.52991925155115449 -0.84804810408105047 I I #
edge $-1 $426 -32.236207876824437 $236 -9.7988470417942324 $341 $433 forward 7 unknown #
point $-1 9.7988470417942324 34.226157653370699 12.242220390783428 #
point $-1 9.7988470417942324 27.944949965193395 12.24222039078343 #
edge $-1 $434 1 $434 0 $239 $-1 forward 7 unknown #
vertex $-1 $240 $435 #
ellipse-curve $-1 16.209521566088583 22.7060093084635 1.9800830825189961 0 0.84804810408105047 0.52991925155115449 2.5 0 0 1 I I #
point $-1 18.709521566088583 31.085553809282061 7.2162034498006298 #
edge $-1 $436 1 $436 0 $243 $-1 forward 7 unknown #
vertex $-1 $244 $437 #
ellipse-curve $-1 25.825533352530101 22.7060093084635 1.9800830825189961 0 0.84804810408105047 0.52991925155115449 2.5 0 0 1 I I #
point $-1 28.325533352530101 31.085553809282061 7.2162034498006298 #
plane-surface $-1 0 34.226157653370699 0 0 -1 0 0 0 -1 forward_v I I I I #
coedge $-1 $363 $438 $250 $360 reversed $248 $-1 #
coedge $-1 $259 $250 $251 $362 reversed $161 $-1 #
edge $-1 $367 -12.242220390783428 $439 12.242220390783428 $358 $440 forward 7 unknown #
coedge $-1 $252 $251 $438 $441 forward $100 $-1 #
edge $-1 $261 -53.574633014923549 $439 53.574633014923549 $359 $442 forward 7 unknown #
coedge $-1 $372 $358 $253 $364 reversed $248 $-1 #
edge $-1 $365 -34.226157653370699 $367 34.226157653370699 $363 $443 forward 7 unknown #
vertex $-1 $254 $444 #
straight-curve $-1 0 34.226157653370699 12.242220390783428 -1 0 0 I I #
vertex $-1 $364 $445 #
straight-curve $-1 0 -34.226157653370699 12.242220390783428 1 0 0 I I #
point $-1 53.574633014923549 -34.226157653370699 12.242220390783428 #
straight-curve $-1 53.574633014923549 -34.226157653370699 0 0 0 -1 I I #
point $-1 53.574633014923549 -34.226157653370699 -12.242220390783428 #
coedge $-1 $438 $363 $263 $373 forward $248 $-1 #
edge $-1 $365 -12.242220390783428 $374 12.242220390783428 $263 $446 forward 7 unknown #
vertex $-1 $264 $447 #
straight-curve $-1 0 34.226157653370699 -12.242220390783428 1 0 0 I I #
plane-surface $-1 0 -34.226157653370699 0 0 1 0 0 0 1 forward_v I I I I #
coedge $-1 $448 $390 $271 $379 forward $268 $-1 #
coedge $-1 $380 $270 $279 $388 forward $176 $-1 #
edge $-1 $383 -1.5 $381 1.5 $271 $449 forward 7 unknown #
coedge $-1 $272 $378 $448 $450 forward $176 $-1 #
vertex $-1 $273 $451 #
straight-curve $-1 -58.318937083355948 34.226157653370699 4.4958027505428664 1 0 0 I I #
vertex $-1 $274 $452 #
straight-curve $-1 -58.318937083355948 34.226157653370699 7.4958027505428664 -1 0 0 I I #
point $-1 -53.574633014923549 34.226157653370699 4.4958027505428664 #
straight-curve $-1 -53.574633014923549 0 4.4958027505428664 0 1 0 I I #
coedge $-1 $279 $278 $453 $454 forward $280 $-1 #
edge $-1 $281 -4.7443040684323989 $455 4.7443040684323989 $279 $456 forward 7 unknown #
point $-1 -53.574633014923549 -34.226157653370699 4.4958027505428664 #
coedge $-1 $377 $453 $283 $391 reversed $268 $-1 #
edge $-1 $383 -34.226157653370699 $392 34.226157653370699 $390 $457 forward 7 unknown #
vertex $-1 $391 $458 #
straight-curve $-1 -58.318937083355948 -34.226157653370699 7.4958027505428664 1 0 0 I I #
plane-surface $-1 0 34.226157653370699 0 0 -1 0 0 0 -1 forward_v I I I I #
coedge $-1 $397 $291 $293 $403 forward $288 $-1 #
coedge $-1 $290 $299 $302 $410 forward $190 $-1 #
coedge $-1 $399 $395 $290 $398 reversed $288 $-1 #
edge $-1 $459 -34.226157653370699 $404 34.226157653370699 $397 $460 forward 7 unknown #
coedge $-1 $291 $397 $409 $461 reversed $288 $-1 #
vertex $-1 $292 $462 #
vertex $-1 $292 $463 #
straight-curve $-1 63.063241151788347 0 7.4958027505428664 0 1 0 I I #
edge $-1 $400 -1.5 $404 1.5 $395 $464 forward 7 unknown #
vertex $-1 $403 $465 #
straight-curve $-1 58.318937083355948 -34.226157653370699 4.4958027505428664 -1 0 0 I I #
straight-curve $-1 58.318937083355948 -34.226157653370699 7.4958027505428664 1 0 0 I I #
point $-1 53.574633014923549 -34.226157653370699 4.4958027505428664 #
straight-curve $-1 53.574633014923549 0 4.4958027505428664 0 -1 0 I I #
coedge $-1 $302 $301 $399 $461 forward $303 $-1 #
edge $-1 $304 -4.7443040684323989 $459 4.7443040684323989 $302 $466 forward 7 unknown #
point $-1 53.574633014923549 34.226157653370699 4.4958027505428664 #
straight-curve $-1 58.318937083355948 34.226157653370699 7.4958027505428664 -1 0 0 I I #
coedge $-1 $320 $319 $312 $414 forward $309 $-1 #
edge $-1 $415 35.668967263185877 $418 42.956542938722187 $413 $467 forward 7 unknown #
vertex $-1 $324 $468 #
straight-curve $-1 -16.009990346900327 -45.503309310378967 12.24222039078343 0 -1 0 I I #
edge $-1 $418 -11.423555807973177 $321 2.2506867301188755 $320 $469 forward 7 unknown #
vertex $-1 $417 $470 #
straight-curve $-1 -16.009990346900327 -34.226157653370713 4.9546447152471131 0 0.84804809178421925 0.52991927123019833 I I #
point $-1 -16.009990346900327 -22.563598880929007 12.242220390783428 #
point $-1 -2.335747808808275 -34.226157653370699 4.954644715247122 #
straight-curve $-1 0 -34.226157653370699 12.242220390783428 1 0 0 I I #
vertex $-1 $327 $471 #
point $-1 -7.1728690778543012 -24.770720150581262 2.7985672868488058 #
edge $-1 $426 46.268530400941692 $429 56.320564282907341 $332 $472 forward 7 unknown #
vertex $-1 $346 $473 #
straight-curve $-1 32.236207876824437 44.409844934683292 12.24222039078343 0 1 0 I I #
edge $-1 $429 -21.72744414716977 $343 0.70991668786043505 $342 $474 forward 7 unknown #
vertex $-1 $428 $475 #
straight-curve $-1 32.236207876824437 -2.0480420409213593 60.241042724658129 0 -0.52991925155115449 0.84804810408105047 I I #
point $-1 32.236207876824437 27.944949965193395 12.24222039078343 #
point $-1 9.7988470417942324 34.226157653370699 2.1901865088177814 #
straight-curve $-1 0 34.226157653370699 12.242220390783428 -1 0 0 I I #
vertex $-1 $349 $476 #
point $-1 18.709521566088583 22.7060093084635 1.9800830825189961 #
vertex $-1 $353 $477 #
point $-1 28.325533352530101 22.7060093084635 1.9800830825189961 #
coedge $-1 $358 $372 $361 $441 reversed $248 $-1 #
vertex $-1 $441 $478 #
straight-curve $-1 -53.574633014923549 -34.226157653370699 0 0 0 -1 I I #
edge $-1 $439 -34.226157653370699 $374 34.226157653370699 $438 $479 forward 7 unknown #
straight-curve $-1 0 -34.226157653370699 -12.242220390783428 -1 0 0 I I #
straight-curve $-1 -53.574633014923549 0 12.242220390783428 0 -1 0 I I #
point $-1 -53.574633014923549 34.226157653370699 12.242220390783428 #
point $-1 -53.574633014923549 -34.226157653370699 12.242220390783428 #
straight-curve $-1 -53.574633014923549 34.226157653370699 0 0 0 -1 I I #
point $-1 -53.574633014923549 34.226157653370699 -12.242220390783428 #
coedge $-1 $453 $377 $380 $450 reversed $268 $-1 #
straight-curve $-1 -63.063241151788347 34.226157653370699 5.9958027505428664 0 0 -1 I I #
edge $-1 $455 -34.226157653370699 $381 34.226157653370699 $448 $480 forward 7 unknown #
point $-1 -63.063241151788347 34.226157653370699 4.4958027505428664 #
point $-1 -63.063241151788347 34.226157653370699 7.4958027505428664 #
coedge $-1 $390 $448 $387 $454 reversed $268 $-1 #
edge $-1 $392 -1.5 $455 1.5 $453 $481 forward 7 unknown #
vertex $-1 $450 $482 #
straight-curve $-1 -58.318937083355948 -34.226157653370699 4.4958027505428664 -1 0 0 I I #
straight-curve $-1 -63.063241151788347 0 7.4958027505428664 0 -1 0 I I #
point $-1 -63.063241151788347 -34.226157653370699 7.4958027505428664 #
vertex $-1 $398 $483 #
straight-curve $-1 63.063241151788347 0 4.4958027505428664 0 -1 0 I I #
edge $-1 $401 -1.5 $459 1.5 $399 $484 forward 7 unknown #
point $-1 63.063241151788347 -34.226157653370699 7.4958027505428664 #
point $-1 63.063241151788347 34.226157653370699 7.4958027505428664 #
straight-curve $-1 63.063241151788347 -34.226157653370699 5.9958027505428664 0 0 -1 I I #
point $-1 63.063241151788347 -34.226157653370699 4.4958027505428664 #
straight-curve $-1 58.318937083355948 34.226157653370699 4.4958027505428664 1 0 0 I I #
straight-curve $-1 -16.009990346900327 -34.226157653370699 47.911187653969307 0 0 -1 I I #
point $-1 -16.009990346900327 -34.226157653370699 12.242220390783428 #
straight-curve $-1 -4.5864345389271506 -34.226157653370699 4.9546447152471202 1 0 0 I I #
point $-1 -16.009990346900327 -34.226157653370699 4.954644715247122 #
point $-1 -9.1728690778543012 -23.710881608120864 1.1024711032803673 #
straight-curve $-1 32.236207876824437 34.226157653370699 58.510750791725123 0 0 -1 I I #
point $-1 32.236207876824437 34.226157653370699 12.242220390783428 #
straight-curve $-1 10.508763729654667 34.226157653370691 2.1901865088177885 -1 0 0 I I #
point $-1 32.236207876824437 34.226157653370699 2.1901865088177814 #
point $-1 16.209521566088583 20.585889048260874 0.65528495364110972 #
point $-1 25.825533352530101 20.585889048260874 0.65528495364110972 #
point $-1 -53.574633014923549 -34.226157653370699 -12.242220390783428 #
straight-curve $-1 -53.574633014923549 0 -12.242220390783428 0 1 0 I I #
straight-curve $-1 -63.063241151788347 0 4.4958027505428664 0 1 0 I I #
straight-curve $-1 -63.063241151788347 -34.226157653370699 5.9958027505428664 0 0 -1 I I #
point $-1 -63.063241151788347 -34.226157653370699 4.4958027505428664 #
point $-1 63.063241151788347 34.226157653370699 4.4958027505428664 #
straight-curve $-1 63.063241151788347 34.226157653370699 5.9958027505428664 0 0 -1 I I #
End-of-ACIS-data 