500 0 12 0           
7 Unknown 11 ACIS 5.0 NT 24 Thu Mar 25 18:05:19 1999 
-1 9.9999999999999995e-007 1e-010 
body $-1 $12 $-1 $13 #
body $-1 $14 $-1 $15 #
body $-1 $16 $-1 $17 #
body $-1 $18 $-1 $19 #
body $-1 $20 $-1 $21 #
body $-1 $22 $-1 $23 #
body $-1 $24 $-1 $25 #
body $-1 $26 $-1 $27 #
body $-1 $28 $-1 $29 #
body $-1 $30 $-1 $31 #
body $-1 $32 $-1 $33 #
body $-1 $34 $-1 $35 #
lump $-1 $-1 $36 $0 #
transform $-1 1 0 0 0 1 0 0 0 1 51.382183294167916 20.896288892526712 4.7731059860532072 1 rotate no_reflect no_shear #
lump $-1 $-1 $37 $1 #
transform $-1 1 0 0 0 1 0 0 0 1 51.382183294167916 20.896288892526712 4.7731059860532072 1 rotate no_reflect no_shear #
lump $-1 $-1 $38 $2 #
transform $-1 1 0 0 0 1 0 0 0 1 51.382183294167916 20.896288892526712 4.7731059860532072 1 rotate no_reflect no_shear #
lump $-1 $-1 $39 $3 #
transform $-1 1 0 0 0 1 0 0 0 1 51.382183294167916 20.896288892526712 4.7731059860532072 1 rotate no_reflect no_shear #
lump $-1 $-1 $40 $4 #
transform $-1 1 0 0 0 1 0 0 0 1 51.382183294167916 20.896288892526712 4.7731059860532072 1 rotate no_reflect no_shear #
lump $-1 $-1 $41 $5 #
transform $-1 1 0 0 0 1 0 0 0 1 51.382183294167916 20.896288892526712 4.7731059860532072 1 rotate no_reflect no_shear #
lump $-1 $-1 $42 $6 #
transform $-1 1 0 0 0 1 0 0 0 1 51.382183294167916 20.896288892526712 4.7731059860532072 1 rotate no_reflect no_shear #
lump $-1 $-1 $43 $7 #
transform $-1 1 0 0 0 1 0 0 0 1 51.382183294167916 20.896288892526712 4.7731059860532072 1 rotate no_reflect no_shear #
lump $-1 $-1 $44 $8 #
transform $-1 1 0 0 0 1 0 0 0 1 51.382183294167916 20.896288892526712 4.7731059860532072 1 rotate no_reflect no_shear #
lump $-1 $-1 $45 $9 #
transform $-1 1 0 0 0 1 0 0 0 1 51.382183294167916 20.896288892526712 4.7731059860532072 1 rotate no_reflect no_shear #
lump $-1 $-1 $46 $10 #
transform $-1 1 0 0 0 1 0 0 0 1 51.382183294167916 20.896288892526712 4.7731059860532072 1 rotate no_reflect no_shear #
lump $-1 $-1 $47 $11 #
transform $-1 1 0 0 0 1 0 0 0 1 51.382183294167916 20.896288892526712 4.7731059860532072 1 rotate no_reflect no_shear #
shell $-1 $-1 $-1 $48 $-1 $12 #
shell $-1 $-1 $-1 $49 $-1 $14 #
shell $-1 $-1 $-1 $50 $-1 $16 #
shell $-1 $-1 $-1 $51 $-1 $18 #
shell $-1 $-1 $-1 $52 $-1 $20 #
shell $-1 $-1 $-1 $53 $-1 $22 #
shell $-1 $-1 $-1 $54 $-1 $24 #
shell $-1 $-1 $-1 $55 $-1 $26 #
shell $-1 $-1 $-1 $56 $-1 $28 #
shell $-1 $-1 $-1 $57 $-1 $30 #
shell $-1 $-1 $-1 $58 $-1 $32 #
shell $-1 $-1 $-1 $59 $-1 $34 #
face $-1 $60 $61 $36 $-1 $62 forward single #
face $-1 $63 $64 $37 $-1 $65 reversed single #
face $-1 $66 $67 $38 $-1 $68 reversed single #
face $-1 $69 $70 $39 $-1 $71 reversed single #
face $-1 $72 $73 $40 $-1 $74 forward single #
face $-1 $75 $76 $41 $-1 $77 forward single #
face $-1 $78 $79 $42 $-1 $80 reversed single #
face $-1 $81 $82 $43 $-1 $83 forward single #
face $-1 $84 $85 $44 $-1 $86 forward single #
face $-1 $87 $88 $45 $-1 $89 reversed single #
face $-1 $90 $91 $46 $-1 $92 forward single #
face $-1 $93 $94 $47 $-1 $95 forward single #
face $-1 $96 $97 $36 $-1 $98 reversed single #
loop $-1 $-1 $99 $48 #
plane-surface $-1 0 0 4.7731059860532072 0 0 1 1 0 0 forward_v I I I I #
face $-1 $100 $101 $37 $-1 $102 reversed single #
loop $-1 $-1 $103 $49 #
plane-surface $-1 -49.87703601190681 -18.821759840789994 0 1 0 0 0 0 -1 forward_v I I I I #
face $-1 $104 $105 $38 $-1 $106 reversed single #
loop $-1 $-1 $107 $50 #
plane-surface $-1 -48.37703601190681 16.747230789053276 0 0 1 0 0 0 1 forward_v I I I I #
face $-1 $108 $109 $39 $-1 $110 reversed single #
loop $-1 $-1 $111 $51 #
plane-surface $-1 -51.382183294167902 -13.078026243585452 1.670833263080695 -0.83867057594974714 0 0.54463902268945019 0.54463902268945019 0 0.83867057594974714 forward_v I I I I #
face $-1 $112 $113 $40 $-1 $114 forward single #
loop $-1 $115 $116 $52 #
cone-surface $-1 -49.955528307369406 -14.650542477357376 2.9496501132222224 0.83867057594974714 0 -0.54463902268945019 0.2723195113447251 0 0.41933528797487357 1 I I 0 1 0.5 forward I I I I #
face $-1 $117 $118 $41 $-1 $119 forward single #
loop $-1 $120 $121 $53 #
cone-surface $-1 -49.955528307369406 -11.505510009813525 2.9496501132222224 0.83867057594974714 0 -0.54463902268945019 0.2723195113447251 0 0.41933528797487357 1 I I 0 1 0.5 forward I I I I #
face $-1 $122 $123 $42 $-1 $124 reversed single #
loop $-1 $-1 $125 $54 #
plane-surface $-1 38.71577437194702 -7.2999373158861474 146.547376449273 0 -1 0 -0.64278761758704617 0 -0.76604443648966558 forward_v I I I I #
face $-1 $126 $127 $43 $-1 $128 forward single #
loop $-1 $129 $130 $55 #
cone-surface $-1 48.981878335704167 -12.115854831934838 2.5436765889445798 -0.64278761758704617 0 -0.76604443648966558 0.38302221824483279 0 -0.32139380879352308 1 I I 0 1 0.5 forward I I I I #
face $-1 $131 $132 $44 $-1 $133 forward single #
loop $-1 $134 $135 $56 #
cone-surface $-1 48.981878335704167 -9.2263043223056229 2.5436765889445798 -0.64278761758704617 0 -0.76604443648966558 0.38302221824483279 0 -0.32139380879352308 1 I I 0 1 0.5 forward I I I I #
face $-1 $136 $137 $45 $-1 $138 reversed single #
loop $-1 $-1 $139 $57 #
plane-surface $-1 38.71577437194702 9.4472934731671288 146.547376449273 0 -1 0 -0.64278761758704617 0 -0.76604443648966558 forward_v I I I I #
face $-1 $140 $141 $46 $-1 $142 forward single #
loop $-1 $143 $144 $58 #
cone-surface $-1 48.981878335704167 4.6313759571184363 2.5436765889445798 -0.64278761758704617 0 -0.76604443648966558 0.38302221824483279 0 -0.32139380879352308 1 I I 0 1 0.5 forward I I I I #
face $-1 $145 $146 $47 $-1 $147 forward single #
loop $-1 $148 $149 $59 #
cone-surface $-1 48.981878335704167 7.5209264667476532 2.5436765889445798 -0.64278761758704617 0 -0.76604443648966558 0.38302221824483279 0 -0.32139380879352308 1 I I 0 1 0.5 forward I I I I #
face $-1 $150 $151 $36 $-1 $152 reversed single #
loop $-1 $-1 $153 $60 #
plane-surface $-1 0 0 -4.7731059860532072 0 0 1 1 0 0 forward_v I I I I #
coedge $-1 $154 $155 $156 $157 forward $61 $-1 #
face $-1 $158 $159 $37 $-1 $160 reversed single #
loop $-1 $-1 $161 $63 #
plane-surface $-1 -48.37703601190681 -16.747230789053276 0 0 -1 0 0 0 -1 forward_v I I I I #
coedge $-1 $162 $163 $164 $165 forward $64 $-1 #
face $-1 $166 $167 $38 $-1 $168 reversed single #
loop $-1 $-1 $169 $66 #
plane-surface $-1 -49.87703601190681 18.821759840789994 0 1 0 0 0 0 -1 forward_v I I I I #
coedge $-1 $170 $171 $172 $173 forward $67 $-1 #
face $-1 $174 $175 $39 $-1 $176 forward single #
loop $-1 $-1 $177 $69 #
plane-surface $-1 -137.56763380791847 -9.4088216981176256 57.640317449052311 0 -1 0 0.83867057594974714 0 -0.54463902268945019 forward_v I I I I #
coedge $-1 $178 $179 $180 $181 reversed $70 $-1 #
face $-1 $-1 $182 $40 $-1 $183 forward single #
loop $-1 $184 $185 $72 #
cone-surface $-1 -49.326525375407094 -14.650542477357376 2.5411708462051346 0.83867057594974714 0 -0.54463902268945019 0.13615975567236255 0 0.20966764398743679 1 I I -0.70710678118654746 0.70710678118654746 0.25 forward I I I I #
loop $-1 $-1 $186 $52 #
coedge $-1 $116 $116 $187 $188 reversed $73 $-1 #
face $-1 $-1 $189 $41 $-1 $190 forward single #
loop $-1 $191 $192 $75 #
cone-surface $-1 -49.326525375407094 -11.505510009813525 2.5411708462051346 0.83867057594974714 0 -0.54463902268945019 0.13615975567236255 0 0.20966764398743679 1 I I -0.70710678118654746 0.70710678118654746 0.25 forward I I I I #
loop $-1 $-1 $193 $53 #
coedge $-1 $121 $121 $194 $195 reversed $76 $-1 #
face $-1 $196 $197 $42 $-1 $198 reversed single #
loop $-1 $-1 $199 $78 #
plane-surface $-1 -27.339888000211218 -10.671079577120231 67.825305154893869 0.64278761758704617 0 0.76604443648966558 0.76604443648966558 0 -0.64278761758704617 forward_v I I I I #
coedge $-1 $200 $201 $202 $203 reversed $79 $-1 #
face $-1 $-1 $204 $43 $-1 $205 forward single #
loop $-1 $206 $207 $81 #
cone-surface $-1 48.210570466747711 -12.115854831934838 1.6244676843723296 -0.64278761758704617 0 -0.76604443648966558 0.1915111091224164 0 -0.16069690439676154 1 I I -0.70710678118654746 0.70710678118654746 0.25 forward I I I I #
loop $-1 $-1 $208 $55 #
coedge $-1 $130 $130 $209 $210 reversed $82 $-1 #
face $-1 $-1 $211 $44 $-1 $212 forward single #
loop $-1 $213 $214 $84 #
cone-surface $-1 48.210570466747711 -9.2263043223056229 1.6244676843723296 -0.64278761758704617 0 -0.76604443648966558 0.1915111091224164 0 -0.16069690439676154 1 I I -0.70710678118654746 0.70710678118654746 0.25 forward I I I I #
loop $-1 $-1 $215 $56 #
coedge $-1 $135 $135 $216 $217 reversed $85 $-1 #
face $-1 $218 $219 $45 $-1 $220 reversed single #
loop $-1 $-1 $221 $87 #
plane-surface $-1 -27.339888000211218 6.0761512119330447 67.825305154893869 0.64278761758704617 0 0.76604443648966558 0.76604443648966558 0 -0.64278761758704617 forward_v I I I I #
coedge $-1 $222 $223 $224 $225 reversed $88 $-1 #
face $-1 $-1 $226 $46 $-1 $227 forward single #
loop $-1 $228 $229 $90 #
cone-surface $-1 48.210570466747711 4.6313759571184363 1.6244676843723296 -0.64278761758704617 0 -0.76604443648966558 0.1915111091224164 0 -0.16069690439676154 1 I I -0.70710678118654746 0.70710678118654746 0.25 forward I I I I #
loop $-1 $-1 $230 $58 #
coedge $-1 $144 $144 $231 $232 reversed $91 $-1 #
face $-1 $-1 $233 $47 $-1 $234 forward single #
loop $-1 $235 $236 $93 #
cone-surface $-1 48.210570466747711 7.5209264667476532 1.6244676843723296 -0.64278761758704617 0 -0.76604443648966558 0.1915111091224164 0 -0.16069690439676154 1 I I -0.70710678118654746 0.70710678118654746 0.25 forward I I I I #
loop $-1 $-1 $237 $59 #
coedge $-1 $149 $149 $238 $239 reversed $94 $-1 #
face $-1 $240 $241 $36 $-1 $242 reversed single #
loop $-1 $-1 $243 $96 #
plane-surface $-1 0 -20.896288892526712 0 0 1 0 0 0 1 forward_v I I I I #
coedge $-1 $244 $245 $246 $247 forward $97 $-1 #
coedge $-1 $248 $99 $249 $250 forward $61 $-1 #
coedge $-1 $99 $248 $251 $252 forward $61 $-1 #
coedge $-1 $253 $254 $99 $157 reversed $255 $-1 #
edge $-1 $256 -20.896288892526712 $257 20.896288892526712 $156 $258 forward 7 unknown #
face $-1 $259 $260 $37 $-1 $261 forward single #
loop $-1 $-1 $262 $100 #
plane-surface $-1 -46.87703601190681 -18.821759840789994 0 -1 0 0 0 0 1 forward_v I I I I #
coedge $-1 $263 $164 $264 $265 reversed $101 $-1 #
coedge $-1 $266 $103 $267 $268 reversed $64 $-1 #
coedge $-1 $103 $266 $269 $270 reversed $64 $-1 #
coedge $-1 $161 $271 $103 $165 reversed $101 $-1 #
edge $-1 $272 -4.7731059860532072 $273 4.7731059860532072 $164 $274 forward 7 unknown #
face $-1 $275 $276 $38 $-1 $277 reversed single #
loop $-1 $-1 $278 $104 #
plane-surface $-1 -46.87703601190681 18.821759840789994 0 -1 0 0 0 0 1 forward_v I I I I #
coedge $-1 $279 $280 $281 $282 reversed $105 $-1 #
coedge $-1 $283 $107 $284 $285 reversed $67 $-1 #
coedge $-1 $107 $283 $286 $287 reversed $67 $-1 #
coedge $-1 $280 $279 $107 $173 reversed $105 $-1 #
edge $-1 $288 -4.7731059860532072 $289 4.7731059860532072 $172 $290 forward 7 unknown #
face $-1 $291 $292 $39 $-1 $293 forward single #
loop $-1 $-1 $294 $108 #
plane-surface $-1 -48.37703601190681 -16.747230789053276 0 0 -1 0 0 0 -1 forward_v I I I I #
coedge $-1 $295 $296 $297 $298 reversed $109 $-1 #
coedge $-1 $299 $111 $294 $300 reversed $70 $-1 #
coedge $-1 $111 $299 $295 $301 forward $70 $-1 #
coedge $-1 $297 $302 $111 $181 forward $292 $-1 #
edge $-1 $303 -10.20821766726055 $304 -2.8698085763248997 $180 $305 forward 7 unknown #
loop $-1 $-1 $187 $112 #
plane-surface $-1 -51.382183294167902 -13.078026243585452 1.670833263080695 -0.83867057594974714 0 0.54463902268945019 0.54463902268945019 0 0.83867057594974714 forward_v I I I I #
loop $-1 $-1 $306 $72 #
coedge $-1 $185 $185 $186 $307 reversed $113 $-1 #
coedge $-1 $186 $186 $185 $307 forward $115 $-1 #
coedge $-1 $187 $187 $116 $188 forward $182 $-1 #
edge $-1 $308 0 $308 6.2831853071796004 $187 $309 forward 7 unknown #
loop $-1 $-1 $194 $117 #
plane-surface $-1 -51.382183294167902 -13.078026243585452 1.670833263080695 -0.83867057594974714 0 0.54463902268945019 0.54463902268945019 0 0.83867057594974714 forward_v I I I I #
loop $-1 $-1 $310 $75 #
coedge $-1 $192 $192 $193 $311 reversed $118 $-1 #
coedge $-1 $193 $193 $192 $311 forward $120 $-1 #
coedge $-1 $194 $194 $121 $195 forward $189 $-1 #
edge $-1 $312 0 $312 6.2831853071796004 $194 $313 forward 7 unknown #
face $-1 $314 $315 $42 $-1 $316 forward single #
loop $-1 $-1 $317 $122 #
plane-surface $-1 38.71577437194702 -14.042221838354315 146.547376449273 0 1 0 0.64278761758704617 0 0.76604443648966558 forward_v I I I I #
coedge $-1 $318 $319 $320 $321 reversed $123 $-1 #
coedge $-1 $201 $125 $322 $323 reversed $79 $-1 #
coedge $-1 $125 $200 $318 $324 reversed $79 $-1 #
coedge $-1 $320 $325 $125 $203 forward $315 $-1 #
edge $-1 $326 -32.024296108194406 $327 -28.444908120386316 $202 $328 forward 7 unknown #
loop $-1 $-1 $209 $126 #
plane-surface $-1 -27.339888000211218 -10.671079577120231 67.825305154893869 0.64278761758704617 0 0.76604443648966558 0.76604443648966558 0 -0.64278761758704617 forward_v I I I I #
loop $-1 $-1 $329 $81 #
coedge $-1 $207 $207 $208 $330 reversed $127 $-1 #
coedge $-1 $208 $208 $207 $330 forward $129 $-1 #
coedge $-1 $209 $209 $130 $210 forward $204 $-1 #
edge $-1 $331 0 $331 6.2831853071796004 $209 $332 forward 7 unknown #
loop $-1 $-1 $216 $131 #
plane-surface $-1 -27.339888000211218 -10.671079577120231 67.825305154893869 0.64278761758704617 0 0.76604443648966558 0.76604443648966558 0 -0.64278761758704617 forward_v I I I I #
loop $-1 $-1 $333 $84 #
coedge $-1 $214 $214 $215 $334 reversed $132 $-1 #
coedge $-1 $215 $215 $214 $334 forward $134 $-1 #
coedge $-1 $216 $216 $135 $217 forward $211 $-1 #
edge $-1 $335 0 $335 6.2831853071796004 $216 $336 forward 7 unknown #
face $-1 $337 $338 $45 $-1 $339 reversed single #
loop $-1 $-1 $340 $136 #
plane-surface $-1 38.71577437194702 2.7050089506989612 146.547376449273 0 1 0 0.64278761758704617 0 0.76604443648966558 forward_v I I I I #
coedge $-1 $341 $342 $343 $344 reversed $137 $-1 #
coedge $-1 $223 $139 $345 $346 reversed $88 $-1 #
coedge $-1 $139 $222 $341 $347 reversed $88 $-1 #
coedge $-1 $343 $348 $139 $225 forward $349 $-1 #
edge $-1 $350 -32.024296108194406 $351 -28.444908120386316 $224 $352 forward 7 unknown #
loop $-1 $-1 $231 $140 #
plane-surface $-1 -27.339888000211218 6.0761512119330447 67.825305154893869 0.64278761758704617 0 0.76604443648966558 0.76604443648966558 0 -0.64278761758704617 forward_v I I I I #
loop $-1 $-1 $353 $90 #
coedge $-1 $229 $229 $230 $354 reversed $141 $-1 #
coedge $-1 $230 $230 $229 $354 forward $143 $-1 #
coedge $-1 $231 $231 $144 $232 forward $226 $-1 #
edge $-1 $355 0 $355 6.2831853071796004 $231 $356 forward 7 unknown #
loop $-1 $-1 $238 $145 #
plane-surface $-1 -27.339888000211218 6.0761512119330447 67.825305154893869 0.64278761758704617 0 0.76604443648966558 0.76604443648966558 0 -0.64278761758704617 forward_v I I I I #
loop $-1 $-1 $357 $93 #
coedge $-1 $236 $236 $237 $358 reversed $146 $-1 #
coedge $-1 $237 $237 $236 $358 forward $148 $-1 #
coedge $-1 $238 $238 $149 $239 forward $233 $-1 #
edge $-1 $359 0 $359 6.2831853071796004 $238 $360 forward 7 unknown #
face $-1 $361 $362 $36 $-1 $363 reversed single #
loop $-1 $-1 $364 $150 #
plane-surface $-1 -51.382183294167916 0 0 1 0 0 0 0 -1 forward_v I I I I #
coedge $-1 $365 $251 $366 $367 forward $151 $-1 #
coedge $-1 $368 $153 $365 $369 forward $97 $-1 #
coedge $-1 $153 $368 $370 $371 forward $97 $-1 #
coedge $-1 $254 $253 $153 $247 reversed $255 $-1 #
edge $-1 $372 -20.896288892526712 $373 20.896288892526712 $246 $374 forward 7 unknown #
coedge $-1 $155 $154 $375 $376 forward $61 $-1 #
coedge $-1 $377 $378 $154 $250 reversed $362 $-1 #
edge $-1 $257 -51.382183294167916 $379 51.382183294167916 $249 $380 forward 7 unknown #
coedge $-1 $243 $381 $155 $252 reversed $151 $-1 #
edge $-1 $382 -51.382183294167916 $256 51.382183294167916 $251 $383 forward 7 unknown #
coedge $-1 $246 $156 $381 $384 forward $255 $-1 #
coedge $-1 $156 $246 $377 $385 reversed $255 $-1 #
loop $-1 $-1 $253 $361 #
vertex $-1 $157 $386 #
vertex $-1 $157 $387 #
straight-curve $-1 51.382183294167916 0 4.7731059860532072 0 1 0 I I #
face $-1 $388 $389 $37 $-1 $390 reversed single #
loop $-1 $-1 $391 $158 #
plane-surface $-1 0 0 4.7731059860532072 0 0 1 1 0 0 forward_v I I I I #
coedge $-1 $392 $393 $394 $395 reversed $159 $-1 #
coedge $-1 $271 $161 $396 $397 forward $101 $-1 #
coedge $-1 $269 $391 $161 $265 forward $260 $-1 #
edge $-1 $398 22.688518005953405 $272 25.688518005953405 $264 $399 forward 7 unknown #
coedge $-1 $163 $162 $400 $401 reversed $64 $-1 #
coedge $-1 $402 $403 $162 $268 forward $389 $-1 #
edge $-1 $404 -11.485408972131715 $273 -7.336350868658279 $267 $405 forward 7 unknown #
coedge $-1 $406 $264 $163 $270 forward $260 $-1 #
edge $-1 $272 7.336350868658279 $407 11.485408972131715 $269 $408 forward 7 unknown #
coedge $-1 $164 $263 $402 $409 reversed $101 $-1 #
vertex $-1 $270 $410 #
vertex $-1 $268 $411 #
straight-curve $-1 -49.87703601190681 -16.747230789053276 0 0 0 -1 I I #
face $-1 $412 $413 $38 $-1 $414 forward single #
loop $-1 $-1 $415 $166 #
plane-surface $-1 0 0 -4.7731059860532072 0 0 1 1 0 0 forward_v I I I I #
coedge $-1 $416 $417 $283 $418 forward $167 $-1 #
coedge $-1 $172 $169 $419 $420 reversed $105 $-1 #
coedge $-1 $169 $172 $421 $422 reversed $105 $-1 #
coedge $-1 $423 $424 $169 $282 forward $425 $-1 #
edge $-1 $426 -4.7731059860532072 $427 4.7731059860532072 $281 $428 forward 7 unknown #
coedge $-1 $171 $170 $278 $418 reversed $67 $-1 #
coedge $-1 $419 $415 $170 $285 forward $276 $-1 #
edge $-1 $429 22.688518005953405 $289 25.688518005953405 $284 $430 forward 7 unknown #
coedge $-1 $431 $421 $171 $287 forward $413 $-1 #
edge $-1 $288 -25.688518005953405 $432 -22.688518005953405 $286 $433 forward 7 unknown #
vertex $-1 $287 $434 #
vertex $-1 $285 $435 #
straight-curve $-1 -49.87703601190681 16.747230789053276 0 0 0 -1 I I #
face $-1 $-1 $436 $39 $-1 $437 reversed single #
loop $-1 $-1 $302 $174 #
plane-surface $-1 0 0 4.7731059860532072 0 0 1 1 0 0 forward_v I I I I #
coedge $-1 $438 $439 $178 $300 forward $175 $-1 #
coedge $-1 $296 $177 $179 $301 reversed $109 $-1 #
coedge $-1 $177 $295 $440 $441 reversed $109 $-1 #
coedge $-1 $442 $180 $177 $298 forward $292 $-1 #
edge $-1 $304 -19.416273007438605 $443 -17.401633609791318 $297 $444 forward 7 unknown #
coedge $-1 $179 $178 $445 $446 reversed $70 $-1 #
edge $-1 $447 -0.11772089189235543 $303 3.5813151920424908 $294 $448 forward 7 unknown #
edge $-1 $449 -2.617579141687138e-014 $304 3.6990360839348204 $295 $450 forward 7 unknown #
coedge $-1 $180 $442 $438 $451 forward $292 $-1 #
vertex $-1 $181 $452 #
vertex $-1 $181 $453 #
straight-curve $-1 -49.36754389652063 -6.5390131217927259 4.7731059860532099 0 1 0 I I #
coedge $-1 $306 $306 $-1 $454 reversed $184 $-1 #
edge $-1 $455 0 $455 6.2831853071796004 $185 $456 forward 7 unknown #
vertex $-1 $188 $457 #
ellipse-curve $-1 -50.374863595344273 -14.650542477357376 3.2219696245669427 -0.83867057594974714 0 0.54463902268945019 0.2723195113447251 0 0.41933528797487357 1 I I #
coedge $-1 $310 $310 $-1 $458 reversed $191 $-1 #
edge $-1 $459 0 $459 6.2831853071796004 $192 $460 forward 7 unknown #
vertex $-1 $195 $461 #
ellipse-curve $-1 -50.374863595344273 -11.505510009813525 3.2219696245669427 -0.83867057594974714 0 0.54463902268945019 0.2723195113447251 0 0.41933528797487357 1 I I #
face $-1 $-1 $462 $42 $-1 $463 reversed single #
loop $-1 $-1 $202 $196 #
plane-surface $-1 0 0 4.7731059860532072 0 0 1 1 0 0 forward_v I I I I #
coedge $-1 $464 $465 $466 $467 reversed $197 $-1 #
coedge $-1 $468 $199 $201 $324 forward $123 $-1 #
coedge $-1 $199 $468 $464 $469 forward $123 $-1 #
coedge $-1 $466 $202 $199 $321 forward $315 $-1 #
edge $-1 $327 1.9643975273260317 $470 8.7066820497941997 $320 $471 forward 7 unknown #
coedge $-1 $472 $473 $200 $323 forward $462 $-1 #
edge $-1 $474 -71.504045441900857 $326 -68.500582238583291 $322 $475 forward 7 unknown #
edge $-1 $327 98.091807377266633 $474 102.76436658833582 $201 $476 forward 7 unknown #
coedge $-1 $202 $466 $472 $477 forward $315 $-1 #
vertex $-1 $203 $478 #
vertex $-1 $203 $479 #
straight-curve $-1 19.35788718597351 -7.2999373158861474 4.7731059860532099 -1 0 0 I I #
coedge $-1 $329 $329 $-1 $480 reversed $206 $-1 #
edge $-1 $481 0 $481 6.2831853071796004 $207 $482 forward 7 unknown #
vertex $-1 $210 $483 #
ellipse-curve $-1 49.592489300263871 -12.115854831934838 3.2713743843944201 0.64278761758704617 0 0.76604443648966558 0.38302221824483279 0 -0.32139380879352308 1 I I #
coedge $-1 $333 $333 $-1 $484 reversed $213 $-1 #
edge $-1 $485 0 $485 6.2831853071796004 $214 $486 forward 7 unknown #
vertex $-1 $217 $487 #
ellipse-curve $-1 49.592489300263871 -9.2263043223056229 3.2713743843944201 0.64278761758704617 0 0.76604443648966558 0.38302221824483279 0 -0.32139380879352308 1 I I #
face $-1 $-1 $349 $45 $-1 $488 forward single #
loop $-1 $-1 $489 $218 #
plane-surface $-1 51.382183294167916 0 0 -1 0 0 0 0 1 forward_v I I I I #
coedge $-1 $490 $491 $492 $493 reversed $219 $-1 #
coedge $-1 $494 $221 $223 $347 forward $137 $-1 #
coedge $-1 $221 $494 $490 $495 forward $137 $-1 #
coedge $-1 $492 $224 $221 $344 forward $349 $-1 #
edge $-1 $351 -6.4092178672006064 $496 0.33306665526756118 $343 $497 forward 7 unknown #
coedge $-1 $498 $499 $222 $346 forward $338 $-1 #
edge $-1 $500 -71.504045441900857 $350 -68.500582238583291 $345 $501 forward 7 unknown #
edge $-1 $351 98.091807377266633 $500 102.76436658833582 $223 $502 forward 7 unknown #
coedge $-1 $224 $492 $498 $503 forward $349 $-1 #
loop $-1 $-1 $492 $337 #
vertex $-1 $346 $504 #
vertex $-1 $225 $505 #
straight-curve $-1 19.35788718597351 9.4472934731671288 4.7731059860532099 -1 0 0 I I #
coedge $-1 $353 $353 $-1 $506 reversed $228 $-1 #
edge $-1 $507 0 $507 6.2831853071796004 $229 $508 forward 7 unknown #
vertex $-1 $232 $509 #
ellipse-curve $-1 49.592489300263871 4.6313759571184363 3.2713743843944201 0.64278761758704617 0 0.76604443648966558 0.38302221824483279 0 -0.32139380879352308 1 I I #
coedge $-1 $357 $357 $-1 $510 reversed $235 $-1 #
edge $-1 $511 0 $511 6.2831853071796004 $236 $512 forward 7 unknown #
vertex $-1 $239 $513 #
ellipse-curve $-1 49.592489300263871 7.5209264667476532 3.2713743843944201 0.64278761758704617 0 0.76604443648966558 0.38302221824483279 0 -0.32139380879352308 1 I I #
face $-1 $-1 $255 $36 $-1 $514 reversed single #
loop $-1 $-1 $377 $240 #
plane-surface $-1 0 20.896288892526712 0 0 -1 0 0 0 -1 forward_v I I I I #
coedge $-1 $515 $375 $378 $516 forward $241 $-1 #
coedge $-1 $381 $243 $244 $369 reversed $151 $-1 #
coedge $-1 $375 $515 $243 $367 reversed $241 $-1 #
edge $-1 $382 -4.7731059860532072 $517 4.7731059860532072 $366 $518 forward 7 unknown #
coedge $-1 $245 $244 $515 $519 forward $97 $-1 #
edge $-1 $373 -51.382183294167916 $517 51.382183294167916 $365 $520 forward 7 unknown #
coedge $-1 $378 $377 $245 $371 reversed $362 $-1 #
edge $-1 $521 -51.382183294167916 $372 51.382183294167916 $370 $522 forward 7 unknown #
vertex $-1 $247 $523 #
vertex $-1 $384 $524 #
straight-curve $-1 51.382183294167916 0 -4.7731059860532072 0 -1 0 I I #
coedge $-1 $364 $366 $248 $376 reversed $241 $-1 #
edge $-1 $379 -20.896288892526712 $382 20.896288892526712 $375 $525 forward 7 unknown #
coedge $-1 $370 $249 $254 $385 forward $362 $-1 #
coedge $-1 $249 $370 $364 $516 reversed $362 $-1 #
vertex $-1 $250 $526 #
straight-curve $-1 0 20.896288892526712 4.7731059860532072 -1 0 0 I I #
coedge $-1 $251 $365 $253 $384 reversed $151 $-1 #
vertex $-1 $376 $527 #
straight-curve $-1 0 -20.896288892526712 4.7731059860532072 1 0 0 I I #
edge $-1 $256 -4.7731059860532072 $373 4.7731059860532072 $253 $528 forward 7 unknown #
edge $-1 $257 -4.7731059860532072 $372 4.7731059860532072 $254 $529 forward 7 unknown #
point $-1 51.382183294167916 -20.896288892526712 4.7731059860532072 #
point $-1 51.382183294167916 20.896288892526712 4.7731059860532072 #
face $-1 $-1 $530 $37 $-1 $531 reversed single #
loop $-1 $-1 $532 $259 #
plane-surface $-1 0 0 -4.7731059860532072 0 0 1 1 0 0 forward_v I I I I #
coedge $-1 $264 $406 $393 $533 forward $260 $-1 #
coedge $-1 $396 $262 $532 $534 reversed $159 $-1 #
coedge $-1 $262 $396 $391 $533 reversed $159 $-1 #
coedge $-1 $535 $536 $262 $395 forward $530 $-1 #
edge $-1 $537 -4.7731059860532072 $538 4.7731059860532072 $394 $539 forward 7 unknown #
coedge $-1 $393 $392 $263 $397 reversed $159 $-1 #
edge $-1 $398 -4.7731059860532072 $540 4.7731059860532072 $396 $541 forward 7 unknown #
vertex $-1 $265 $542 #
straight-curve $-1 -24.188518005953405 -16.747230789053276 4.7731059860532072 -1 0 0 I I #
coedge $-1 $536 $535 $266 $401 forward $530 $-1 #
edge $-1 $407 -4.7731059860532072 $404 4.7731059860532072 $400 $543 forward 7 unknown #
coedge $-1 $532 $267 $271 $409 forward $389 $-1 #
coedge $-1 $267 $532 $536 $544 forward $389 $-1 #
vertex $-1 $268 $545 #
straight-curve $-1 -49.87703601190681 -9.4108799203949971 -4.7731059860532072 0 1 0 I I #
coedge $-1 $391 $269 $535 $546 forward $260 $-1 #
vertex $-1 $546 $547 #
straight-curve $-1 -49.87703601190681 -9.4108799203949971 4.7731059860532072 0 -1 0 I I #
edge $-1 $273 -25.688518005953405 $540 -22.688518005953405 $402 $548 forward 7 unknown #
point $-1 -49.87703601190681 -16.747230789053276 4.7731059860532072 #
point $-1 -49.87703601190681 -16.747230789053276 -4.7731059860532072 #
face $-1 $-1 $425 $38 $-1 $549 reversed single #
loop $-1 $-1 $431 $275 #
plane-surface $-1 0 0 4.7731059860532072 0 0 1 1 0 0 forward_v I I I I #
coedge $-1 $284 $550 $416 $551 forward $276 $-1 #
coedge $-1 $552 $278 $415 $551 reversed $167 $-1 #
coedge $-1 $278 $552 $431 $553 reversed $167 $-1 #
edge $-1 $432 -4.7731059860532072 $429 4.7731059860532072 $278 $554 forward 7 unknown #
coedge $-1 $550 $284 $279 $420 forward $276 $-1 #
edge $-1 $289 7.336350868658279 $426 11.485408972131715 $419 $555 forward 7 unknown #
coedge $-1 $286 $556 $280 $422 forward $413 $-1 #
edge $-1 $427 -11.485408972131715 $288 -7.336350868658279 $421 $557 forward 7 unknown #
coedge $-1 $558 $281 $556 $559 reversed $425 $-1 #
coedge $-1 $281 $558 $550 $560 reversed $425 $-1 #
loop $-1 $-1 $558 $412 #
vertex $-1 $560 $561 #
vertex $-1 $282 $562 #
straight-curve $-1 -49.87703601190681 20.896288892526712 0 0 0 1 I I #
vertex $-1 $285 $563 #
straight-curve $-1 -24.188518005953405 16.747230789053276 -4.7731059860532072 -1 0 0 I I #
coedge $-1 $556 $286 $417 $553 forward $413 $-1 #
vertex $-1 $287 $564 #
straight-curve $-1 -24.188518005953405 16.747230789053276 4.7731059860532072 1 0 0 I I #
point $-1 -49.87703601190681 16.747230789053276 4.7731059860532072 #
point $-1 -49.87703601190681 16.747230789053276 -4.7731059860532072 #
loop $-1 $-1 $565 $291 #
plane-surface $-1 -51.382183294167916 0 0 1 0 0 0 0 -1 forward_v I I I I #
coedge $-1 $439 $294 $302 $451 reversed $175 $-1 #
coedge $-1 $294 $438 $565 $566 reversed $175 $-1 #
coedge $-1 $445 $567 $296 $441 forward $436 $-1 #
edge $-1 $443 24.047052738472949 $449 27.149325461445482 $440 $568 forward 7 unknown #
coedge $-1 $302 $297 $567 $569 forward $292 $-1 #
vertex $-1 $569 $570 #
straight-curve $-1 -68.783816903959234 -9.4088216981176256 4.7731059860532064 -1 0 0 I I #
coedge $-1 $565 $440 $299 $446 forward $436 $-1 #
edge $-1 $449 2.8698085763248997 $447 10.20821766726055 $445 $571 forward 7 unknown #
vertex $-1 $566 $572 #
straight-curve $-1 -51.318067902657532 -16.747230789053276 1.7695623112853518 0.54463902268945019 0 0.83867057594974714 I I #
vertex $-1 $446 $573 #
straight-curve $-1 -51.382183294167902 -9.4088216981176256 1.670833263080695 0.54463902268945019 0 0.83867057594974714 I I #
edge $-1 $574 17.401633609791318 $303 19.416273007438605 $302 $575 forward 7 unknown #
point $-1 -49.36754389652063 -16.747230789053276 4.7731059860532072 #
point $-1 -49.36754389652063 -9.4088216981176256 4.7731059860532072 #
edge $-1 $576 1 $576 0 $306 $-1 forward 7 unknown #
vertex $-1 $307 $577 #
ellipse-curve $-1 -49.536193019394531 -14.650542477357376 2.6773306018774972 -0.83867057594974714 0 0.54463902268945019 0.2723195113447251 0 0.41933528797487357 1 I I #
point $-1 -50.102544083999554 -14.650542477357376 3.6413049125418206 #
edge $-1 $578 1 $578 0 $310 $-1 forward 7 unknown #
vertex $-1 $311 $579 #
ellipse-curve $-1 -49.536193019394531 -11.505510009813525 2.6773306018774972 -0.83867057594974714 0 0.54463902268945019 0.2723195113447251 0 0.41933528797487357 1 I I #
point $-1 -50.102544083999554 -11.505510009813525 3.6413049125418206 #
loop $-1 $-1 $322 $314 #
plane-surface $-1 51.382183294167916 0 0 -1 0 0 0 0 1 forward_v I I I I #
coedge $-1 $465 $317 $319 $469 reversed $197 $-1 #
coedge $-1 $317 $464 $580 $581 reversed $197 $-1 #
coedge $-1 $325 $320 $317 $467 forward $315 $-1 #
edge $-1 $470 28.444908120386316 $582 32.024296108194406 $466 $583 forward 7 unknown #
coedge $-1 $319 $318 $473 $584 reversed $123 $-1 #
edge $-1 $585 -102.76436658833582 $470 -98.091807377266633 $464 $586 forward 7 unknown #
vertex $-1 $321 $587 #
straight-curve $-1 47.802795306359826 -5.3355397885601157 4.7731059860532099 0 -1 0 I I #
coedge $-1 $580 $322 $325 $477 reversed $462 $-1 #
coedge $-1 $322 $580 $468 $584 forward $462 $-1 #
vertex $-1 $323 $588 #
straight-curve $-1 51.382183294167916 -7.2999373158861474 73.273688224636501 0 0 1 I I #
straight-curve $-1 -27.339888000211218 -7.2999373158861474 67.825305154893869 0.76604443648966558 0 -0.64278761758704617 I I #
edge $-1 $582 -14.042221838354315 $326 -7.2999373158861474 $472 $589 forward 7 unknown #
point $-1 51.382183294167916 -7.2999373158861474 4.7731059860532072 #
point $-1 47.802795306359826 -7.2999373158861474 4.7731059860532099 #
edge $-1 $590 1 $590 0 $329 $-1 forward 7 unknown #
vertex $-1 $330 $591 #
ellipse-curve $-1 48.371267371144469 -12.115854831934838 1.815978793494746 0.64278761758704617 0 0.76604443648966558 0.38302221824483279 0 -0.32139380879352308 1 I I #
point $-1 49.975511518508696 -12.115854831934838 2.9499805756008906 #
edge $-1 $592 1 $592 0 $333 $-1 forward 7 unknown #
vertex $-1 $334 $593 #
ellipse-curve $-1 48.371267371144469 -9.2263043223056229 1.815978793494746 0.64278761758704617 0 0.76604443648966558 0.38302221824483279 0 -0.32139380879352308 1 I I #
point $-1 49.975511518508696 -9.2263043223056229 2.9499805756008906 #
plane-surface $-1 0 0 4.7731059860532072 0 0 1 1 0 0 forward_v I I I I #
coedge $-1 $499 $498 $491 $594 forward $338 $-1 #
coedge $-1 $491 $340 $342 $495 reversed $219 $-1 #
coedge $-1 $340 $490 $489 $594 reversed $219 $-1 #
coedge $-1 $348 $343 $340 $493 forward $349 $-1 #
edge $-1 $496 28.444908120386316 $595 32.024296108194406 $492 $596 forward 7 unknown #
coedge $-1 $342 $341 $499 $597 reversed $137 $-1 #
edge $-1 $598 -102.76436658833582 $496 -98.091807377266633 $490 $599 forward 7 unknown #
vertex $-1 $344 $600 #
straight-curve $-1 47.802795306359826 3.0380756059665224 4.7731059860532099 0 -1 0 I I #
coedge $-1 $489 $345 $348 $503 reversed $338 $-1 #
coedge $-1 $345 $489 $494 $597 forward $338 $-1 #
vertex $-1 $346 $601 #
straight-curve $-1 51.382183294167916 9.4472934731671288 73.273688224636501 0 0 1 I I #
straight-curve $-1 -27.339888000211218 9.4472934731671288 67.825305154893869 0.76604443648966558 0 -0.64278761758704617 I I #
edge $-1 $595 2.7050089506989612 $350 9.4472934731671288 $498 $602 forward 7 unknown #
point $-1 51.382183294167916 9.4472934731671288 4.7731059860532072 #
point $-1 47.802795306359826 9.4472934731671288 4.7731059860532099 #
edge $-1 $603 1 $603 0 $353 $-1 forward 7 unknown #
vertex $-1 $354 $604 #
ellipse-curve $-1 48.371267371144469 4.6313759571184363 1.815978793494746 0.64278761758704617 0 0.76604443648966558 0.38302221824483279 0 -0.32139380879352308 1 I I #
point $-1 49.975511518508696 4.6313759571184363 2.9499805756008906 #
edge $-1 $605 1 $605 0 $357 $-1 forward 7 unknown #
vertex $-1 $358 $606 #
ellipse-curve $-1 48.371267371144469 7.5209264667476532 1.815978793494746 0.64278761758704617 0 0.76604443648966558 0.38302221824483279 0 -0.32139380879352308 1 I I #
point $-1 49.975511518508696 7.5209264667476532 2.9499805756008906 #
plane-surface $-1 51.382183294167916 0 0 -1 0 0 0 0 1 forward_v I I I I #
coedge $-1 $366 $364 $368 $519 reversed $241 $-1 #
edge $-1 $379 -4.7731059860532072 $521 4.7731059860532072 $378 $607 forward 7 unknown #
vertex $-1 $519 $608 #
straight-curve $-1 -51.382183294167916 -20.896288892526712 0 0 0 -1 I I #
edge $-1 $517 -20.896288892526712 $521 20.896288892526712 $515 $609 forward 7 unknown #
straight-curve $-1 0 -20.896288892526712 -4.7731059860532072 -1 0 0 I I #
vertex $-1 $371 $610 #
straight-curve $-1 0 20.896288892526712 -4.7731059860532072 1 0 0 I I #
point $-1 51.382183294167916 20.896288892526712 -4.7731059860532072 #
point $-1 51.382183294167916 -20.896288892526712 -4.7731059860532072 #
straight-curve $-1 -51.382183294167916 0 4.7731059860532072 0 -1 0 I I #
point $-1 -51.382183294167916 20.896288892526712 4.7731059860532072 #
point $-1 -51.382183294167916 -20.896288892526712 4.7731059860532072 #
straight-curve $-1 51.382183294167916 -20.896288892526712 0 0 0 -1 I I #
straight-curve $-1 51.382183294167916 20.896288892526712 0 0 0 -1 I I #
loop $-1 $-1 $394 $388 #
plane-surface $-1 0 -20.896288892526712 0 0 1 0 0 0 1 forward_v I I I I #
coedge $-1 $403 $402 $392 $534 forward $389 $-1 #
edge $-1 $538 -11.485408972131715 $398 -7.336350868658279 $391 $611 forward 7 unknown #
edge $-1 $540 7.336350868658279 $537 11.485408972131715 $532 $612 forward 7 unknown #
coedge $-1 $400 $394 $406 $546 reversed $530 $-1 #
coedge $-1 $394 $400 $403 $544 reversed $530 $-1 #
vertex $-1 $544 $613 #
vertex $-1 $395 $614 #
straight-curve $-1 -46.87703601190681 -20.896288892526712 0 0 0 1 I I #
vertex $-1 $409 $615 #
straight-curve $-1 -46.87703601190681 -16.747230789053276 0 0 0 -1 I I #
point $-1 -46.87703601190681 -16.747230789053276 4.7731059860532072 #
straight-curve $-1 -49.87703601190681 -20.896288892526712 0 0 0 -1 I I #
edge $-1 $537 46.87703601190681 $404 49.87703601190681 $536 $616 forward 7 unknown #
point $-1 -49.87703601190681 -20.896288892526712 -4.7731059860532072 #
edge $-1 $407 -49.87703601190681 $538 -46.87703601190681 $535 $617 forward 7 unknown #
point $-1 -49.87703601190681 -20.896288892526712 4.7731059860532072 #
straight-curve $-1 -24.188518005953405 -16.747230789053276 -4.7731059860532072 1 0 0 I I #
plane-surface $-1 0 20.896288892526712 0 0 -1 0 0 0 -1 forward_v I I I I #
coedge $-1 $415 $419 $424 $560 forward $276 $-1 #
edge $-1 $618 -11.485408972131715 $429 -7.336350868658279 $415 $619 forward 7 unknown #
coedge $-1 $417 $416 $558 $620 reversed $167 $-1 #
edge $-1 $432 7.336350868658279 $621 11.485408972131715 $431 $622 forward 7 unknown #
straight-curve $-1 -46.87703601190681 16.747230789053276 0 0 0 -1 I I #
straight-curve $-1 -49.87703601190681 9.4108799203949971 -4.7731059860532072 0 1 0 I I #
coedge $-1 $421 $431 $423 $559 forward $413 $-1 #
straight-curve $-1 -49.87703601190681 9.4108799203949971 4.7731059860532072 0 -1 0 I I #
coedge $-1 $424 $423 $552 $620 forward $425 $-1 #
edge $-1 $621 46.87703601190681 $427 49.87703601190681 $423 $623 forward 7 unknown #
edge $-1 $426 -49.87703601190681 $618 -46.87703601190681 $424 $624 forward 7 unknown #
point $-1 -49.87703601190681 20.896288892526712 -4.7731059860532072 #
point $-1 -49.87703601190681 20.896288892526712 4.7731059860532072 #
point $-1 -46.87703601190681 16.747230789053276 -4.7731059860532072 #
point $-1 -46.87703601190681 16.747230789053276 4.7731059860532072 #
coedge $-1 $567 $445 $439 $566 forward $436 $-1 #
edge $-1 $447 -27.149325461445482 $574 -24.047052738472949 $565 $625 forward 7 unknown #
coedge $-1 $440 $565 $442 $569 reversed $436 $-1 #
straight-curve $-1 -51.382183294167916 -9.4088216981176256 28.820158724526156 0 0 -1 I I #
edge $-1 $443 9.4088216981176256 $574 16.747230789053276 $567 $626 forward 7 unknown #
point $-1 -51.382183294167916 -9.4088216981176256 4.7731059860532072 #
straight-curve $-1 -51.382183294167916 -6.5390131217927259 1.670833263080675 0 -1 0 I I #
point $-1 -51.382183294167916 -16.747230789053276 1.670833263080673 #
point $-1 -51.382183294167916 -9.4088216981176256 1.670833263080673 #
vertex $-1 $566 $627 #
straight-curve $-1 -68.783816903959234 -16.747230789053276 4.7731059860532064 1 0 0 I I #
vertex $-1 $454 $628 #
point $-1 -49.263873508049805 -14.650542477357376 3.0966658898523707 #
vertex $-1 $458 $629 #
point $-1 -49.263873508049805 -11.505510009813525 3.0966658898523707 #
coedge $-1 $473 $472 $465 $581 forward $462 $-1 #
edge $-1 $582 68.500582238583291 $585 71.504045441900857 $580 $630 forward 7 unknown #
vertex $-1 $477 $631 #
straight-curve $-1 19.35788718597351 -14.042221838354315 4.7731059860532099 1 0 0 I I #
edge $-1 $585 -8.7066820497941997 $474 -1.9643975273260317 $473 $632 forward 7 unknown #
vertex $-1 $584 $633 #
straight-curve $-1 -27.339888000211218 -14.042221838354315 67.825305154893869 -0.76604443648966558 0 0.64278761758704617 I I #
point $-1 47.802795306359826 -14.042221838354315 4.7731059860532099 #
point $-1 51.382183294167916 -7.2999373158861474 1.7696427827356445 #
straight-curve $-1 51.382183294167916 0 4.7731059860532072 0 1 0 I I #
vertex $-1 $480 $634 #
point $-1 48.754289589389309 -12.115854831934838 1.4945849847012229 #
vertex $-1 $484 $635 #
point $-1 48.754289589389309 -9.2263043223056229 1.4945849847012229 #
edge $-1 $595 68.500582238583291 $598 71.504045441900857 $489 $636 forward 7 unknown #
vertex $-1 $503 $637 #
straight-curve $-1 19.35788718597351 2.7050089506989612 4.7731059860532099 1 0 0 I I #
edge $-1 $598 -0.33306665526756118 $500 6.4092178672006064 $499 $638 forward 7 unknown #
vertex $-1 $597 $639 #
straight-curve $-1 -27.339888000211218 2.7050089506989612 67.825305154893869 -0.76604443648966558 0 0.64278761758704617 I I #
point $-1 47.802795306359826 2.7050089506989612 4.7731059860532099 #
point $-1 51.382183294167916 9.4472934731671288 1.7696427827356445 #
straight-curve $-1 51.382183294167916 0 4.7731059860532072 0 1 0 I I #
vertex $-1 $506 $640 #
point $-1 48.754289589389309 4.6313759571184363 1.4945849847012229 #
vertex $-1 $510 $641 #
point $-1 48.754289589389309 7.5209264667476532 1.4945849847012229 #
straight-curve $-1 -51.382183294167916 20.896288892526712 0 0 0 -1 I I #
point $-1 -51.382183294167916 -20.896288892526712 -4.7731059860532072 #
straight-curve $-1 -51.382183294167916 0 -4.7731059860532072 0 1 0 I I #
point $-1 -51.382183294167916 20.896288892526712 -4.7731059860532072 #
straight-curve $-1 -46.87703601190681 -9.4108799203949971 4.7731059860532072 0 1 0 I I #
straight-curve $-1 -46.87703601190681 -9.4108799203949971 -4.7731059860532072 0 -1 0 I I #
point $-1 -46.87703601190681 -20.896288892526712 -4.7731059860532072 #
point $-1 -46.87703601190681 -20.896288892526712 4.7731059860532072 #
point $-1 -46.87703601190681 -16.747230789053276 -4.7731059860532072 #
straight-curve $-1 0 -20.896288892526712 -4.7731059860532072 -1 0 0 I I #
straight-curve $-1 0 -20.896288892526712 4.7731059860532072 1 0 0 I I #
vertex $-1 $620 $642 #
straight-curve $-1 -46.87703601190681 9.4108799203949971 -4.7731059860532072 0 -1 0 I I #
edge $-1 $621 -4.7731059860532072 $618 4.7731059860532072 $558 $643 forward 7 unknown #
vertex $-1 $559 $644 #
straight-curve $-1 -46.87703601190681 9.4108799203949971 4.7731059860532072 0 1 0 I I #
straight-curve $-1 0 20.896288892526712 4.7731059860532072 -1 0 0 I I #
straight-curve $-1 0 20.896288892526712 -4.7731059860532072 1 0 0 I I #
straight-curve $-1 -51.382183294167916 -16.747230789053276 28.820158724526156 0 0 1 I I #
straight-curve $-1 -51.382183294167916 0 4.7731059860532072 0 -1 0 I I #
point $-1 -51.382183294167916 -16.747230789053276 4.7731059860532072 #
point $-1 -49.116857731419657 -14.650542477357376 2.405011090532772 #
point $-1 -49.116857731419657 -11.505510009813525 2.405011090532772 #
straight-curve $-1 51.382183294167916 -14.042221838354315 73.273688224636501 0 0 -1 I I #
point $-1 51.382183294167916 -14.042221838354315 4.7731059860532072 #
straight-curve $-1 51.382183294167909 -5.3355397885601157 1.7696427827356445 0 1 0 I I #
point $-1 51.382183294167916 -14.042221838354315 1.7696427827356445 #
point $-1 48.049873562350953 -12.115854831934838 1.4329565752499132 #
point $-1 48.049873562350953 -9.2263043223056229 1.4329565752499132 #
straight-curve $-1 51.382183294167916 2.7050089506989612 73.273688224636501 0 0 -1 I I #
point $-1 51.382183294167916 2.7050089506989612 4.7731059860532072 #
straight-curve $-1 51.382183294167909 3.0380756059665224 1.7696427827356445 0 1 0 I I #
point $-1 51.382183294167916 2.7050089506989612 1.7696427827356445 #
point $-1 48.049873562350953 4.6313759571184363 1.4329565752499132 #
point $-1 48.049873562350953 7.5209264667476532 1.4329565752499132 #
point $-1 -46.87703601190681 20.896288892526712 -4.7731059860532072 #
straight-curve $-1 -46.87703601190681 20.896288892526712 0 0 0 -1 I I #
point $-1 -46.87703601190681 20.896288892526712 4.7731059860532072 #
End-of-ACIS-data 