500 0 7 0           
7 Unknown 11 ACIS 5.0 NT 24 Thu Mar 25 17:19:12 1999 
-1 9.9999999999999995e-007 1e-010 
body $-1 $7 $-1 $8 #
body $-1 $9 $-1 $10 #
body $-1 $11 $-1 $12 #
body $-1 $13 $-1 $14 #
body $-1 $15 $-1 $16 #
body $-1 $17 $-1 $18 #
body $-1 $19 $-1 $20 #
lump $-1 $-1 $21 $0 #
transform $-1 1 0 0 0 1 0 0 0 1 68.603167821283606 47.495241635162898 12.222483780638573 1 rotate no_reflect no_shear #
lump $-1 $-1 $22 $1 #
transform $-1 1 0 0 0 1 0 0 0 1 68.603167821283606 47.495241635162898 12.222483780638573 1 rotate no_reflect no_shear #
lump $-1 $-1 $23 $2 #
transform $-1 1 0 0 0 1 0 0 0 1 68.603167821283606 47.495241635162898 12.222483780638573 1 rotate no_reflect no_shear #
lump $-1 $-1 $24 $3 #
transform $-1 1 0 0 0 1 0 0 0 1 68.603167821283606 47.495241635162898 12.222483780638573 1 rotate no_reflect no_shear #
lump $-1 $-1 $25 $4 #
transform $-1 1 0 0 0 1 0 0 0 1 68.603167821283606 47.495241635162898 12.222483780638573 1 rotate no_reflect no_shear #
lump $-1 $-1 $26 $5 #
transform $-1 1 0 0 0 1 0 0 0 1 68.603167821283606 47.495241635162898 12.222483780638573 1 rotate no_reflect no_shear #
lump $-1 $-1 $27 $6 #
transform $-1 1 0 0 0 1 0 0 0 1 68.603167821283606 47.495241635162898 12.222483780638573 1 rotate no_reflect no_shear #
shell $-1 $-1 $-1 $28 $-1 $7 #
shell $-1 $-1 $-1 $29 $-1 $9 #
shell $-1 $-1 $-1 $30 $-1 $11 #
shell $-1 $-1 $-1 $31 $-1 $13 #
shell $-1 $-1 $-1 $32 $-1 $15 #
shell $-1 $-1 $-1 $33 $-1 $17 #
shell $-1 $-1 $-1 $34 $-1 $19 #
face $-1 $35 $36 $21 $-1 $37 forward single #
face $-1 $38 $39 $22 $-1 $40 forward single #
face $-1 $41 $42 $23 $-1 $43 reversed single #
face $-1 $44 $45 $24 $-1 $46 forward single #
face $-1 $47 $48 $25 $-1 $49 forward single #
face $-1 $50 $51 $26 $-1 $52 reversed single #
face $-1 $53 $54 $27 $-1 $55 forward single #
face $-1 $56 $57 $21 $-1 $58 reversed single #
loop $-1 $-1 $59 $28 #
plane-surface $-1 0 0 12.222483780638573 0 0 1 1 0 0 forward_v I I I I #
face $-1 $60 $61 $22 $-1 $62 reversed single #
loop $-1 $-1 $63 $29 #
plane-surface $-1 -68.603167821283606 0 0 1 0 0 0 0 -1 forward_v I I I I #
face $-1 $64 $65 $23 $-1 $66 reversed single #
loop $-1 $-1 $67 $30 #
plane-surface $-1 -14.995372220867651 68.712515880491893 173.06290321386939 1 0 0 0 -0.66913061440640931 -0.74314481823134659 forward_v I I I I #
face $-1 $68 $69 $24 $-1 $70 forward single #
loop $-1 $71 $72 $31 #
cone-surface $-1 -4.6394269288184873 44.384365690709139 9.3143628571053316 0 -0.66913061440640931 -0.74314481823134659 1 0 0 1 I I 0 1 1 forward I I I I #
face $-1 $73 $74 $25 $-1 $75 forward single #
loop $-1 $76 $77 $32 #
cone-surface $-1 10.894491009255262 44.384365690709139 9.3143628571053316 0 -0.66913061440640931 -0.74314481823134659 1 0 0 1 I I 0 1 1 forward I I I I #
face $-1 $78 $79 $26 $-1 $80 reversed single #
loop $-1 $-1 $81 $33 #
plane-surface $-1 -24.995392988468822 -139.30420130412591 105.55865779472497 -1 0 0 0 -0.66913061440640931 0.74314481823134659 forward_v I I I I #
face $-1 $82 $83 $27 $-1 $84 forward single #
loop $-1 $85 $86 $34 #
cone-surface $-1 -35.495441044835808 -40.152367806358683 5.0745436701334192 0 0.66913061440640931 -0.74314481823134659 2.5 0 0 1 I I 0 1 2.5 forward I I I I #
face $-1 $87 $88 $21 $-1 $89 reversed single #
loop $-1 $-1 $90 $35 #
plane-surface $-1 0 0 -12.222483780638573 0 0 1 1 0 0 forward_v I I I I #
coedge $-1 $91 $92 $93 $94 forward $36 $-1 #
face $-1 $95 $96 $22 $-1 $97 reversed single #
loop $-1 $-1 $98 $38 #
plane-surface $-1 0 0 -12.222483780638573 0 0 1 1 0 0 forward_v I I I I #
coedge $-1 $99 $100 $101 $102 forward $39 $-1 #
face $-1 $103 $104 $23 $-1 $105 reversed single #
loop $-1 $-1 $106 $41 #
plane-surface $-1 3.1275320402183837 -23.09644378847112 71.09872585258465 0 0.66913061440640931 0.74314481823134659 1 0 0 forward_v I I I I #
coedge $-1 $107 $108 $109 $110 reversed $42 $-1 #
face $-1 $-1 $111 $24 $-1 $112 forward single #
loop $-1 $113 $114 $44 #
cone-surface $-1 -4.6394269288184873 43.540422227258688 8.3770687052007951 0 -0.66913061440640931 -0.74314481823134659 0.5 0 0 1 I I -0.70710678118654746 0.70710678118654746 0.5 forward I I I I #
loop $-1 $-1 $115 $31 #
coedge $-1 $72 $72 $116 $117 reversed $45 $-1 #
face $-1 $-1 $118 $25 $-1 $119 forward single #
loop $-1 $120 $121 $47 #
cone-surface $-1 10.894491009255262 43.540422227258688 8.3770687052007951 0 -0.66913061440640931 -0.74314481823134659 0.5 0 0 1 I I -0.70710678118654746 0.70710678118654746 0.5 forward I I I I #
loop $-1 $-1 $122 $32 #
coedge $-1 $77 $77 $123 $124 reversed $48 $-1 #
face $-1 $125 $126 $26 $-1 $127 reversed single #
loop $-1 $-1 $128 $50 #
plane-surface $-1 -35.495441044835808 -47.495241635162898 3.5944804334402249 0 -0.66913061440640931 0.74314481823134659 1 0 0 forward_v I I I I #
coedge $-1 $129 $130 $131 $132 reversed $51 $-1 #
face $-1 $-1 $133 $27 $-1 $134 forward single #
loop $-1 $135 $136 $53 #
cone-surface $-1 -35.495441044835808 -36.764264852900283 1.3116742104382659 0 0.66913061440640931 -0.74314481823134659 1.25 0 0 1 I I -0.70710678118654746 0.70710678118654746 1.25 forward I I I I #
loop $-1 $-1 $137 $34 #
coedge $-1 $86 $86 $138 $139 reversed $54 $-1 #
face $-1 $140 $141 $21 $-1 $142 reversed single #
loop $-1 $-1 $143 $56 #
plane-surface $-1 0 -47.495241635162898 0 0 1 0 0 0 1 forward_v I I I I #
coedge $-1 $144 $145 $146 $147 forward $57 $-1 #
coedge $-1 $148 $59 $149 $150 forward $36 $-1 #
coedge $-1 $59 $148 $151 $152 forward $36 $-1 #
coedge $-1 $153 $154 $59 $94 reversed $155 $-1 #
edge $-1 $156 -47.495241635162898 $157 47.495241635162898 $93 $158 forward 7 unknown #
face $-1 $159 $160 $22 $-1 $161 reversed single #
loop $-1 $-1 $162 $60 #
plane-surface $-1 -75.575332568142315 -28.413216616924572 0 0 1 0 0 0 1 forward_v I I I I #
coedge $-1 $163 $164 $100 $165 forward $61 $-1 #
coedge $-1 $166 $63 $167 $168 reversed $39 $-1 #
coedge $-1 $63 $166 $98 $165 reversed $39 $-1 #
coedge $-1 $169 $170 $63 $102 reversed $171 $-1 #
edge $-1 $172 -12.222483780638573 $173 12.222483780638573 $101 $174 forward 7 unknown #
face $-1 $175 $176 $23 $-1 $177 forward single #
loop $-1 $-1 $178 $64 #
plane-surface $-1 21.250436301304418 68.712515880491893 173.06290321386939 -1 0 0 0 0.66913061440640931 0.74314481823134659 forward_v I I I I #
coedge $-1 $179 $180 $181 $182 reversed $65 $-1 #
coedge $-1 $108 $67 $183 $184 reversed $42 $-1 #
coedge $-1 $67 $107 $179 $185 reversed $42 $-1 #
coedge $-1 $181 $186 $67 $110 forward $176 $-1 #
edge $-1 $187 -13.138983694916952 $188 -7.9359881185039498 $109 $189 forward 7 unknown #
loop $-1 $-1 $116 $68 #
plane-surface $-1 3.1275320402183837 -23.09644378847112 71.09872585258465 0 0.66913061440640931 0.74314481823134659 1 0 0 forward_v I I I I #
loop $-1 $-1 $190 $44 #
coedge $-1 $114 $114 $115 $191 reversed $69 $-1 #
coedge $-1 $115 $115 $114 $191 forward $71 $-1 #
coedge $-1 $116 $116 $72 $117 forward $111 $-1 #
edge $-1 $192 -1.1886147433529169e-015 $192 6.2831853071795996 $116 $193 forward 7 unknown #
loop $-1 $-1 $123 $73 #
plane-surface $-1 3.1275320402183837 -23.09644378847112 71.09872585258465 0 0.66913061440640931 0.74314481823134659 1 0 0 forward_v I I I I #
loop $-1 $-1 $194 $47 #
coedge $-1 $121 $121 $122 $195 reversed $74 $-1 #
coedge $-1 $122 $122 $121 $195 forward $76 $-1 #
coedge $-1 $123 $123 $77 $124 forward $118 $-1 #
edge $-1 $196 -1.1886147433529169e-015 $196 6.2831853071795996 $123 $197 forward 7 unknown #
face $-1 $198 $199 $26 $-1 $200 forward single #
loop $-1 $-1 $201 $78 #
plane-surface $-1 -45.995489101202793 -139.30420130412591 105.55865779472497 1 0 0 0 0.66913061440640931 -0.74314481823134659 forward_v I I I I #
coedge $-1 $202 $203 $204 $205 reversed $79 $-1 #
coedge $-1 $130 $81 $206 $207 reversed $51 $-1 #
coedge $-1 $81 $129 $202 $208 reversed $51 $-1 #
coedge $-1 $204 $209 $81 $132 forward $199 $-1 #
edge $-1 $210 22.156859016900057 $211 31.739227303607684 $131 $212 forward 7 unknown #
loop $-1 $-1 $138 $82 #
plane-surface $-1 -35.495441044835808 -47.495241635162898 3.5944804334402249 0 -0.66913061440640931 0.74314481823134659 1 0 0 forward_v I I I I #
loop $-1 $-1 $213 $53 #
coedge $-1 $136 $136 $137 $214 reversed $83 $-1 #
coedge $-1 $137 $137 $136 $214 forward $85 $-1 #
coedge $-1 $138 $138 $86 $139 forward $133 $-1 #
edge $-1 $215 -9.7825372386941065e-016 $215 6.2831853071795996 $138 $216 forward 7 unknown #
face $-1 $217 $218 $21 $-1 $219 reversed single #
loop $-1 $-1 $220 $87 #
plane-surface $-1 -68.603167821283606 0 0 1 0 0 0 0 -1 forward_v I I I I #
coedge $-1 $221 $151 $222 $223 forward $88 $-1 #
coedge $-1 $224 $90 $221 $225 forward $57 $-1 #
coedge $-1 $90 $224 $226 $227 forward $57 $-1 #
coedge $-1 $154 $153 $90 $147 reversed $155 $-1 #
edge $-1 $228 -47.495241635162898 $229 47.495241635162898 $146 $230 forward 7 unknown #
coedge $-1 $92 $91 $231 $232 forward $36 $-1 #
coedge $-1 $233 $234 $91 $150 reversed $218 $-1 #
edge $-1 $157 -68.603167821283606 $235 68.603167821283606 $149 $236 forward 7 unknown #
coedge $-1 $143 $237 $92 $152 reversed $88 $-1 #
edge $-1 $238 -68.603167821283606 $156 68.603167821283606 $151 $239 forward 7 unknown #
coedge $-1 $146 $93 $237 $240 forward $155 $-1 #
coedge $-1 $93 $146 $233 $241 reversed $155 $-1 #
loop $-1 $-1 $153 $217 #
vertex $-1 $94 $242 #
vertex $-1 $94 $243 #
straight-curve $-1 68.603167821283606 0 12.222483780638573 0 1 0 I I #
face $-1 $244 $171 $22 $-1 $245 reversed single #
loop $-1 $-1 $246 $95 #
plane-surface $-1 -82.547497315001024 -25.731745345405162 0 1 0 0 0 0 -1 forward_v I I I I #
coedge $-1 $247 $248 $249 $250 forward $96 $-1 #
coedge $-1 $251 $98 $247 $252 forward $61 $-1 #
coedge $-1 $98 $251 $169 $253 forward $61 $-1 #
edge $-1 $172 23.050274073885753 $254 28.413216616924572 $98 $255 forward 7 unknown #
coedge $-1 $100 $99 $256 $257 forward $39 $-1 #
coedge $-1 $258 $259 $99 $168 forward $260 $-1 #
edge $-1 $261 -28.413216616924572 $173 -23.050274073885753 $167 $262 forward 7 unknown #
coedge $-1 $263 $101 $164 $253 reversed $171 $-1 #
coedge $-1 $101 $263 $258 $264 reversed $171 $-1 #
loop $-1 $-1 $101 $159 #
vertex $-1 $165 $265 #
vertex $-1 $264 $266 #
straight-curve $-1 -68.603167821283606 -23.050274073885753 0 0 0 1 I I #
face $-1 $-1 $267 $23 $-1 $268 reversed single #
loop $-1 $-1 $109 $103 #
plane-surface $-1 0 0 12.222483780638573 0 0 1 1 0 0 forward_v I I I I #
coedge $-1 $269 $270 $271 $272 reversed $104 $-1 #
coedge $-1 $273 $106 $108 $185 forward $65 $-1 #
coedge $-1 $106 $273 $269 $274 forward $65 $-1 #
coedge $-1 $271 $109 $106 $182 forward $176 $-1 #
edge $-1 $188 -16.559138240976843 $275 19.686670281195227 $181 $276 forward 7 unknown #
coedge $-1 $277 $278 $107 $184 forward $267 $-1 #
edge $-1 $279 -78.993766187784871 $187 -74.308967826296126 $183 $280 forward 7 unknown #
edge $-1 $188 87.989162062440727 $279 94.990483270325768 $108 $281 forward 7 unknown #
coedge $-1 $109 $271 $277 $282 forward $176 $-1 #
vertex $-1 $184 $283 #
vertex $-1 $110 $284 #
straight-curve $-1 -14.995372220867651 34.356257940245946 12.222483780638569 0 -1 0 I I #
coedge $-1 $190 $190 $-1 $285 reversed $113 $-1 #
edge $-1 $286 0 $286 6.2831853071796004 $114 $287 forward 7 unknown #
vertex $-1 $117 $288 #
ellipse-curve $-1 -4.6394269288184873 44.893743846956383 9.8800845998941949 0 0.66913061440640931 0.74314481823134659 1 0 0 1 I I #
coedge $-1 $194 $194 $-1 $289 reversed $120 $-1 #
edge $-1 $290 0 $290 6.2831853071796004 $121 $291 forward 7 unknown #
vertex $-1 $124 $292 #
ellipse-curve $-1 10.894491009255262 44.893743846956383 9.8800845998941949 0 0.66913061440640931 0.74314481823134659 1 0 0 1 I I #
face $-1 $-1 $293 $26 $-1 $294 reversed single #
loop $-1 $-1 $131 $125 #
plane-surface $-1 0 0 12.222483780638573 0 0 1 1 0 0 forward_v I I I I #
coedge $-1 $295 $296 $297 $298 reversed $126 $-1 #
coedge $-1 $299 $128 $130 $208 forward $79 $-1 #
coedge $-1 $128 $299 $295 $300 forward $79 $-1 #
coedge $-1 $297 $131 $128 $205 forward $199 $-1 #
edge $-1 $211 7.2476724660509184 $301 28.247768578784889 $204 $302 forward 7 unknown #
coedge $-1 $303 $304 $129 $207 forward $293 $-1 #
edge $-1 $305 -49.184848463922258 $210 -40.556845116723906 $206 $306 forward 7 unknown #
edge $-1 $211 -12.894348519462547 $305 0 $130 $307 forward 7 unknown #
coedge $-1 $131 $297 $303 $308 forward $199 $-1 #
vertex $-1 $132 $309 #
vertex $-1 $132 $310 #
straight-curve $-1 -24.995392988468822 -69.652100652062956 12.222483780638569 0 1 0 I I #
coedge $-1 $213 $213 $-1 $311 reversed $135 $-1 #
edge $-1 $312 0 $312 6.2831853071796004 $136 $313 forward 7 unknown #
vertex $-1 $139 $314 #
ellipse-curve $-1 -35.495441044835808 -42.704057491809081 7.9084821070394007 0 -0.66913061440640931 0.74314481823134659 2.5 0 0 1 I I #
face $-1 $-1 $155 $21 $-1 $315 reversed single #
loop $-1 $-1 $233 $140 #
plane-surface $-1 0 47.495241635162898 0 0 -1 0 0 0 -1 forward_v I I I I #
coedge $-1 $316 $231 $234 $317 forward $141 $-1 #
coedge $-1 $237 $143 $144 $225 reversed $88 $-1 #
coedge $-1 $231 $316 $143 $223 reversed $141 $-1 #
edge $-1 $238 -12.222483780638573 $318 12.222483780638573 $222 $319 forward 7 unknown #
coedge $-1 $145 $144 $316 $320 forward $57 $-1 #
edge $-1 $229 -68.603167821283606 $318 68.603167821283606 $221 $321 forward 7 unknown #
coedge $-1 $234 $233 $145 $227 reversed $218 $-1 #
edge $-1 $322 -68.603167821283606 $228 68.603167821283606 $226 $323 forward 7 unknown #
vertex $-1 $147 $324 #
vertex $-1 $240 $325 #
straight-curve $-1 68.603167821283606 0 -12.222483780638573 0 -1 0 I I #
coedge $-1 $220 $222 $148 $232 reversed $141 $-1 #
edge $-1 $235 -47.495241635162898 $238 47.495241635162898 $231 $326 forward 7 unknown #
coedge $-1 $226 $149 $154 $241 forward $218 $-1 #
coedge $-1 $149 $226 $220 $317 reversed $218 $-1 #
vertex $-1 $150 $327 #
straight-curve $-1 0 47.495241635162898 12.222483780638573 -1 0 0 I I #
coedge $-1 $151 $221 $153 $240 reversed $88 $-1 #
vertex $-1 $232 $328 #
straight-curve $-1 0 -47.495241635162898 12.222483780638573 1 0 0 I I #
edge $-1 $156 -12.222483780638573 $229 12.222483780638573 $153 $329 forward 7 unknown #
edge $-1 $157 -12.222483780638573 $228 12.222483780638573 $154 $330 forward 7 unknown #
point $-1 68.603167821283606 -47.495241635162898 12.222483780638573 #
point $-1 68.603167821283606 47.495241635162898 12.222483780638573 #
face $-1 $-1 $260 $22 $-1 $331 forward single #
plane-surface $-1 -75.575332568142315 -23.050274073885753 0 0 -1 0 0 0 -1 forward_v I I I I #
coedge $-1 $332 $333 $263 $334 forward $160 $-1 #
coedge $-1 $256 $162 $163 $252 reversed $96 $-1 #
coedge $-1 $162 $256 $259 $335 reversed $96 $-1 #
coedge $-1 $333 $332 $162 $250 reversed $160 $-1 #
edge $-1 $336 -12.222483780638573 $337 12.222483780638573 $249 $338 forward 7 unknown #
coedge $-1 $164 $163 $332 $339 forward $61 $-1 #
edge $-1 $254 -6.9721647468587093 $337 6.9721647468587093 $247 $340 forward 7 unknown #
edge $-1 $341 -6.9721647468587093 $172 6.9721647468587093 $169 $342 forward 7 unknown #
vertex $-1 $252 $343 #
straight-curve $-1 -68.603167821283606 0 -12.222483780638573 0 -1 0 I I #
coedge $-1 $248 $247 $166 $257 reversed $96 $-1 #
edge $-1 $261 -12.222483780638573 $254 12.222483780638573 $256 $344 forward 7 unknown #
coedge $-1 $345 $167 $170 $264 forward $260 $-1 #
coedge $-1 $167 $345 $248 $335 forward $260 $-1 #
loop $-1 $-1 $167 $244 #
vertex $-1 $168 $346 #
straight-curve $-1 -68.603167821283606 0 12.222483780638573 0 1 0 I I #
coedge $-1 $170 $169 $246 $334 reversed $171 $-1 #
edge $-1 $173 -6.9721647468587093 $347 6.9721647468587093 $170 $348 forward 7 unknown #
point $-1 -68.603167821283606 -23.050274073885753 -12.222483780638573 #
point $-1 -68.603167821283606 -23.050274073885753 12.222483780638573 #
loop $-1 $-1 $183 $175 #
plane-surface $-1 0 47.495241635162898 0 0 -1 0 0 0 -1 forward_v I I I I #
coedge $-1 $270 $178 $180 $274 reversed $104 $-1 #
coedge $-1 $178 $269 $349 $350 reversed $104 $-1 #
coedge $-1 $186 $181 $178 $272 forward $176 $-1 #
edge $-1 $275 7.9359881185039498 $351 13.138983694916952 $271 $352 forward 7 unknown #
coedge $-1 $180 $179 $278 $353 reversed $65 $-1 #
edge $-1 $354 -94.990483270325768 $275 -87.989162062440727 $269 $355 forward 7 unknown #
vertex $-1 $182 $356 #
straight-curve $-1 1.5637660201091919 42.292246058749889 12.222483780638569 1 0 0 I I #
coedge $-1 $349 $183 $186 $282 reversed $267 $-1 #
coedge $-1 $183 $349 $273 $353 forward $267 $-1 #
vertex $-1 $184 $357 #
straight-curve $-1 -14.995372220867651 47.495241635162898 86.531451606934695 0 0 1 I I #
straight-curve $-1 -14.995372220867651 -23.09644378847112 71.09872585258465 0 0.74314481823134659 -0.66913061440640931 I I #
edge $-1 $351 -21.250436301304418 $187 14.995372220867651 $277 $358 forward 7 unknown #
point $-1 -14.995372220867651 47.495241635162898 12.222483780638573 #
point $-1 -14.995372220867651 42.292246058749896 12.222483780638562 #
edge $-1 $359 1 $359 0 $190 $-1 forward 7 unknown #
vertex $-1 $191 $360 #
ellipse-curve $-1 -4.6394269288184873 43.874987534461894 8.7486411143164684 0 0.66913061440640931 0.74314481823134659 1 0 0 1 I I #
point $-1 -3.6394269288184873 44.893743846956383 9.8800845998941966 #
edge $-1 $361 1 $361 0 $194 $-1 forward 7 unknown #
vertex $-1 $195 $362 #
ellipse-curve $-1 10.894491009255262 43.874987534461894 8.7486411143164684 0 0.66913061440640931 0.74314481823134659 1 0 0 1 I I #
point $-1 11.894491009255262 44.893743846956383 9.8800845998941966 #
loop $-1 $-1 $206 $198 #
plane-surface $-1 0 -47.495241635162898 0 0 1 0 0 0 1 forward_v I I I I #
coedge $-1 $296 $201 $203 $300 reversed $126 $-1 #
coedge $-1 $201 $295 $363 $364 reversed $126 $-1 #
coedge $-1 $209 $204 $201 $298 forward $199 $-1 #
edge $-1 $301 -31.739227303607684 $365 -22.156859016900057 $297 $366 forward 7 unknown #
coedge $-1 $203 $202 $304 $367 reversed $79 $-1 #
edge $-1 $368 0 $301 12.894348519462547 $295 $369 forward 7 unknown #
vertex $-1 $205 $370 #
straight-curve $-1 -17.747720522417904 -37.912873348455278 12.222483780638573 -1 0 0 I I #
coedge $-1 $363 $206 $209 $308 reversed $293 $-1 #
coedge $-1 $206 $363 $299 $367 forward $293 $-1 #
vertex $-1 $207 $371 #
straight-curve $-1 -24.995392988468822 -47.495241635162898 52.779328897362483 0 0 1 I I #
straight-curve $-1 -24.995392988468822 -47.495241635162898 3.5944804334402249 0 -0.74314481823134659 -0.66913061440640931 I I #
edge $-1 $365 -45.995489101202793 $210 -24.995392988468822 $303 $372 forward 7 unknown #
point $-1 -24.995392988468822 -47.495241635162898 12.222483780638573 #
point $-1 -24.995392988468822 -37.912873348455271 12.222483780638573 #
edge $-1 $373 1 $373 0 $213 $-1 forward 7 unknown #
vertex $-1 $214 $374 #
ellipse-curve $-1 -35.495441044835808 -37.600678120908292 2.2406052332274493 0 -0.66913061440640931 0.74314481823134659 2.5 0 0 1 I I #
point $-1 -32.995441044835808 -42.704057491809074 7.9084821070393891 #
plane-surface $-1 68.603167821283606 0 0 -1 0 0 0 0 1 forward_v I I I I #
coedge $-1 $222 $220 $224 $320 reversed $141 $-1 #
edge $-1 $235 -12.222483780638573 $322 12.222483780638573 $234 $375 forward 7 unknown #
vertex $-1 $320 $376 #
straight-curve $-1 -68.603167821283606 -47.495241635162898 0 0 0 -1 I I #
edge $-1 $318 -47.495241635162898 $322 47.495241635162898 $316 $377 forward 7 unknown #
straight-curve $-1 0 -47.495241635162898 -12.222483780638573 -1 0 0 I I #
vertex $-1 $227 $378 #
straight-curve $-1 0 47.495241635162898 -12.222483780638573 1 0 0 I I #
point $-1 68.603167821283606 47.495241635162898 -12.222483780638573 #
point $-1 68.603167821283606 -47.495241635162898 -12.222483780638573 #
straight-curve $-1 -68.603167821283606 0 12.222483780638573 0 -1 0 I I #
point $-1 -68.603167821283606 47.495241635162898 12.222483780638573 #
point $-1 -68.603167821283606 -47.495241635162898 12.222483780638573 #
straight-curve $-1 68.603167821283606 -47.495241635162898 0 0 0 -1 I I #
straight-curve $-1 68.603167821283606 47.495241635162898 0 0 0 -1 I I #
plane-surface $-1 0 0 12.222483780638573 0 0 1 1 0 0 forward_v I I I I #
coedge $-1 $249 $246 $251 $339 reversed $160 $-1 #
coedge $-1 $246 $249 $345 $379 reversed $160 $-1 #
edge $-1 $347 -12.222483780638573 $341 12.222483780638573 $263 $380 forward 7 unknown #
edge $-1 $336 -6.9721647468587093 $261 6.9721647468587093 $248 $381 forward 7 unknown #
vertex $-1 $379 $382 #
vertex $-1 $339 $383 #
straight-curve $-1 -82.547497315001024 -28.413216616924572 0 0 0 -1 I I #
edge $-1 $337 -2.6814712715194098 $341 2.6814712715194098 $332 $384 forward 7 unknown #
straight-curve $-1 -75.575332568142315 -28.413216616924572 -12.222483780638573 -1 0 0 I I #
vertex $-1 $253 $385 #
straight-curve $-1 -75.575332568142315 -23.050274073885753 -12.222483780638573 1 0 0 I I #
point $-1 -68.603167821283606 -28.413216616924572 -12.222483780638573 #
straight-curve $-1 -68.603167821283606 -28.413216616924572 0 0 0 -1 I I #
coedge $-1 $259 $258 $333 $379 forward $260 $-1 #
point $-1 -68.603167821283606 -28.413216616924572 12.222483780638573 #
vertex $-1 $264 $386 #
straight-curve $-1 -75.575332568142315 -23.050274073885753 12.222483780638573 -1 0 0 I I #
coedge $-1 $278 $277 $270 $350 forward $267 $-1 #
edge $-1 $351 74.308967826296126 $354 78.993766187784871 $349 $387 forward 7 unknown #
vertex $-1 $282 $388 #
straight-curve $-1 21.250436301304418 34.356257940245946 12.222483780638569 0 1 0 I I #
edge $-1 $354 -19.686670281195227 $279 16.559138240976843 $278 $389 forward 7 unknown #
vertex $-1 $353 $390 #
straight-curve $-1 21.250436301304418 -23.09644378847112 71.09872585258465 0 -0.74314481823134659 0.66913061440640931 I I #
point $-1 21.250436301304418 42.292246058749896 12.222483780638562 #
point $-1 -14.995372220867651 47.495241635162898 7.5376854191498168 #
straight-curve $-1 0 47.495241635162898 12.222483780638573 -1 0 0 I I #
vertex $-1 $285 $391 #
point $-1 -3.6394269288184873 43.874987534461894 8.7486411143164684 #
vertex $-1 $289 $392 #
point $-1 11.894491009255262 43.874987534461894 8.7486411143164684 #
coedge $-1 $304 $303 $296 $364 forward $293 $-1 #
edge $-1 $365 40.556845116723906 $368 49.184848463922258 $363 $393 forward 7 unknown #
vertex $-1 $308 $394 #
straight-curve $-1 -45.995489101202793 -69.652100652062956 12.222483780638569 0 -1 0 I I #
edge $-1 $368 -28.247768578784889 $305 -7.2476724660509184 $304 $395 forward 7 unknown #
vertex $-1 $367 $396 #
straight-curve $-1 -45.995489101202793 -47.495241635162898 3.5944804334402249 0 0.74314481823134659 0.66913061440640931 I I #
point $-1 -45.995489101202793 -37.912873348455271 12.222483780638573 #
point $-1 -24.995392988468822 -47.495241635162898 3.5944804334402249 #
straight-curve $-1 0 -47.495241635162898 12.222483780638573 1 0 0 I I #
vertex $-1 $311 $397 #
point $-1 -32.995441044835808 -37.600678120908292 2.2406052332274493 #
straight-curve $-1 -68.603167821283606 47.495241635162898 0 0 0 -1 I I #
point $-1 -68.603167821283606 -47.495241635162898 -12.222483780638573 #
straight-curve $-1 -68.603167821283606 0 -12.222483780638573 0 1 0 I I #
point $-1 -68.603167821283606 47.495241635162898 -12.222483780638573 #
edge $-1 $347 -2.6814712715194098 $336 2.6814712715194098 $333 $398 forward 7 unknown #
straight-curve $-1 -82.547497315001024 -23.050274073885753 0 0 0 -1 I I #
straight-curve $-1 -75.575332568142315 -28.413216616924572 12.222483780638573 1 0 0 I I #
point $-1 -82.547497315001024 -28.413216616924572 12.222483780638573 #
point $-1 -82.547497315001024 -28.413216616924572 -12.222483780638573 #
straight-curve $-1 -82.547497315001024 -25.731745345405162 -12.222483780638573 0 1 0 I I #
point $-1 -82.547497315001024 -23.050274073885753 -12.222483780638573 #
point $-1 -82.547497315001024 -23.050274073885753 12.222483780638573 #
straight-curve $-1 21.250436301304418 47.495241635162898 86.531451606934695 0 0 -1 I I #
point $-1 21.250436301304418 47.495241635162898 12.222483780638573 #
straight-curve $-1 1.5637660201091919 47.495241635162898 7.5376854191498168 -1 0 0 I I #
point $-1 21.250436301304418 47.495241635162898 7.5376854191498168 #
point $-1 -4.6394269288184873 43.205856920055481 8.0054962960851217 #
point $-1 10.894491009255262 43.205856920055481 8.0054962960851217 #
straight-curve $-1 -45.995489101202793 -47.495241635162898 52.779328897362483 0 0 -1 I I #
point $-1 -45.995489101202793 -47.495241635162898 12.222483780638573 #
straight-curve $-1 -17.747720522417904 -47.495241635162898 3.5944804334402281 1 0 0 I I #
point $-1 -45.995489101202793 -47.495241635162898 3.5944804334402249 #
point $-1 -35.495441044835808 -35.927851584892274 0.38274318764908266 #
straight-curve $-1 -82.547497315001024 -25.731745345405162 12.222483780638573 0 -1 0 I I #
End-of-ACIS-data 