500 0 8 0           
7 Unknown 11 ACIS 5.0 NT 24 Fri Mar 26 02:00:28 1999 
-1 9.9999999999999995e-007 1e-010 
body $-1 $8 $-1 $9 #
body $-1 $10 $-1 $11 #
body $-1 $12 $-1 $13 #
body $-1 $14 $-1 $15 #
body $-1 $16 $-1 $17 #
body $-1 $18 $-1 $19 #
body $-1 $20 $-1 $21 #
body $-1 $22 $-1 $23 #
lump $-1 $-1 $24 $0 #
transform $-1 1 0 0 0 1 0 0 0 1 42.589190343943599 25.504123379220864 8.8200819516176328 1 rotate no_reflect no_shear #
lump $-1 $-1 $25 $1 #
transform $-1 1 0 0 0 1 0 0 0 1 42.589190343943599 25.504123379220864 8.8200819516176328 1 rotate no_reflect no_shear #
lump $-1 $-1 $26 $2 #
transform $-1 1 0 0 0 1 0 0 0 1 42.589190343943599 25.504123379220864 8.8200819516176328 1 rotate no_reflect no_shear #
lump $-1 $-1 $27 $3 #
transform $-1 1 0 0 0 1 0 0 0 1 42.589190343943599 25.504123379220864 8.8200819516176328 1 rotate no_reflect no_shear #
lump $-1 $-1 $28 $4 #
transform $-1 1 0 0 0 1 0 0 0 1 42.589190343943599 25.504123379220864 8.8200819516176328 1 rotate no_reflect no_shear #
lump $-1 $-1 $29 $5 #
transform $-1 1 0 0 0 1 0 0 0 1 42.589190343943599 25.504123379220864 8.8200819516176328 1 rotate no_reflect no_shear #
lump $-1 $-1 $30 $6 #
transform $-1 1 0 0 0 1 0 0 0 1 42.589190343943599 25.504123379220864 8.8200819516176328 1 rotate no_reflect no_shear #
lump $-1 $-1 $31 $7 #
transform $-1 1 0 0 0 1 0 0 0 1 42.589190343943599 25.504123379220864 8.8200819516176328 1 rotate no_reflect no_shear #
shell $-1 $-1 $-1 $32 $-1 $8 #
shell $-1 $-1 $-1 $33 $-1 $10 #
shell $-1 $-1 $-1 $34 $-1 $12 #
shell $-1 $-1 $-1 $35 $-1 $14 #
shell $-1 $-1 $-1 $36 $-1 $16 #
shell $-1 $-1 $-1 $37 $-1 $18 #
shell $-1 $-1 $-1 $38 $-1 $20 #
shell $-1 $-1 $-1 $39 $-1 $22 #
face $-1 $40 $41 $24 $-1 $42 forward single #
face $-1 $43 $44 $25 $-1 $45 forward single #
face $-1 $46 $47 $26 $-1 $48 reversed single #
face $-1 $49 $50 $27 $-1 $51 reversed single #
face $-1 $52 $53 $28 $-1 $54 forward single #
face $-1 $55 $56 $29 $-1 $57 reversed single #
face $-1 $58 $59 $30 $-1 $60 forward single #
face $-1 $61 $62 $31 $-1 $63 forward single #
face $-1 $64 $65 $24 $-1 $66 reversed single #
loop $-1 $-1 $67 $32 #
plane-surface $-1 0 0 8.8200819516176328 0 0 1 1 0 0 forward_v I I I I #
face $-1 $68 $69 $25 $-1 $70 reversed single #
loop $-1 $-1 $71 $33 #
plane-surface $-1 0 -21.246597385979463 -5.8200819516176328 0 0 1 1 0 0 forward_v I I I I #
face $-1 $72 $73 $26 $-1 $74 reversed single #
loop $-1 $-1 $75 $34 #
plane-surface $-1 0 20.026189507382689 5.8200819516176328 0 0 1 1 0 0 forward_v I I I I #
face $-1 $76 $77 $27 $-1 $78 reversed single #
loop $-1 $-1 $79 $35 #
plane-surface $-1 25.824341121998899 2.4779275772383969 123.02399502882899 0 -1 0 -0.6018150307709319 0 -0.79863550430605224 forward_v I I I I #
face $-1 $80 $81 $28 $-1 $82 forward single #
loop $-1 $83 $84 $36 #
cone-surface $-1 38.515379675823134 -1.9967285155837011 5.3486109220807618 -0.6018150307709319 0 -0.79863550430605224 1.5972710086121045 0 -1.2036300615418638 1 I I 0 1 2 forward I I I I #
face $-1 $85 $86 $29 $-1 $87 reversed single #
loop $-1 $-1 $88 $37 #
plane-surface $-1 -112.36323570647868 -11.195306348937716 53.402678369250815 0 1 0 -0.81915205242281985 0 0.57357642473473569 forward_v I I I I #
face $-1 $89 $90 $30 $-1 $91 forward single #
loop $-1 $92 $93 $38 #
cone-surface $-1 -39.853519005958844 -9.1281238658426815 5.815367982952937 0.81915205242281985 0 -0.57357642473473569 0.57357642473473569 0 0.81915205242281985 1 I I 0 1 1 forward I I I I #
face $-1 $94 $95 $31 $-1 $96 forward single #
loop $-1 $97 $98 $39 #
cone-surface $-1 -39.853519005958844 -6.0273501412001309 5.815367982952937 0.81915205242281985 0 -0.57357642473473569 0.57357642473473569 0 0.81915205242281985 1 I I 0 1 1 forward I I I I #
face $-1 $99 $100 $24 $-1 $101 reversed single #
loop $-1 $-1 $102 $40 #
plane-surface $-1 0 0 -8.8200819516176328 0 0 1 1 0 0 forward_v I I I I #
coedge $-1 $103 $104 $105 $106 forward $41 $-1 #
face $-1 $107 $108 $25 $-1 $109 reversed single #
loop $-1 $-1 $110 $43 #
plane-surface $-1 0 -16.989071392738062 -7.3200819516176328 0 -1 0 0 0 -1 forward_v I I I I #
coedge $-1 $111 $112 $113 $114 reversed $44 $-1 #
face $-1 $115 $116 $26 $-1 $117 reversed single #
loop $-1 $-1 $118 $46 #
plane-surface $-1 0 14.548255635544511 7.3200819516176328 0 1 0 0 0 1 forward_v I I I I #
coedge $-1 $119 $120 $121 $122 reversed $47 $-1 #
face $-1 $123 $124 $27 $-1 $125 reversed single #
loop $-1 $-1 $126 $49 #
plane-surface $-1 -25.437288672700085 -1.9967285155837011 54.997516012185301 0.6018150307709319 0 0.79863550430605224 0.79863550430605224 0 -0.6018150307709319 forward_v I I I I #
coedge $-1 $127 $128 $129 $130 reversed $50 $-1 #
face $-1 $-1 $131 $28 $-1 $132 forward single #
loop $-1 $133 $134 $52 #
cone-surface $-1 37.213231720514514 -1.9967285155837011 3.6206022553035009 -0.6018150307709319 0 -0.79863550430605224 0.79863550430605224 0 -0.6018150307709319 1 I I -0.70710678118654746 0.70710678118654746 1 forward I I I I #
loop $-1 $-1 $135 $36 #
coedge $-1 $84 $84 $136 $137 reversed $53 $-1 #
face $-1 $138 $139 $29 $-1 $140 reversed single #
loop $-1 $-1 $141 $55 #
plane-surface $-1 -42.589190343943599 -7.5777370035214062 4.5463673095982173 -0.81915205242281985 0 0.57357642473473569 0.57357642473473569 0 0.81915205242281985 forward_v I I I I #
coedge $-1 $142 $143 $144 $145 reversed $56 $-1 #
face $-1 $-1 $146 $30 $-1 $147 forward single #
loop $-1 $148 $149 $58 #
cone-surface $-1 -38.204515200852668 -9.1281238658426815 4.6607231229305786 0.81915205242281985 0 -0.57357642473473569 0.28678821236736785 0 0.40957602621140993 1 I I -0.70710678118654746 0.70710678118654746 0.5 forward I I I I #
loop $-1 $-1 $150 $38 #
coedge $-1 $93 $93 $151 $152 reversed $59 $-1 #
face $-1 $-1 $153 $31 $-1 $154 forward single #
loop $-1 $155 $156 $61 #
cone-surface $-1 -38.204515200852668 -6.0273501412001309 4.6607231229305786 0.81915205242281985 0 -0.57357642473473569 0.28678821236736785 0 0.40957602621140993 1 I I -0.70710678118654746 0.70710678118654746 0.5 forward I I I I #
loop $-1 $-1 $157 $39 #
coedge $-1 $98 $98 $158 $159 reversed $62 $-1 #
face $-1 $160 $161 $24 $-1 $162 reversed single #
loop $-1 $-1 $163 $64 #
plane-surface $-1 0 -25.504123379220864 0 0 1 0 0 0 1 forward_v I I I I #
coedge $-1 $164 $165 $166 $167 forward $65 $-1 #
coedge $-1 $168 $67 $169 $170 forward $41 $-1 #
coedge $-1 $67 $168 $171 $172 forward $41 $-1 #
coedge $-1 $173 $174 $67 $106 reversed $175 $-1 #
edge $-1 $176 -25.504123379220864 $177 25.504123379220864 $105 $178 forward 7 unknown #
face $-1 $179 $180 $25 $-1 $181 reversed single #
loop $-1 $-1 $182 $68 #
plane-surface $-1 0 0 -8.8200819516176328 0 0 1 1 0 0 forward_v I I I I #
coedge $-1 $183 $184 $185 $186 reversed $69 $-1 #
coedge $-1 $187 $71 $184 $188 forward $44 $-1 #
coedge $-1 $71 $187 $189 $190 reversed $44 $-1 #
coedge $-1 $191 $185 $71 $114 forward $180 $-1 #
edge $-1 $192 6.3657726997483302 $193 14.880824686231133 $113 $194 forward 7 unknown #
face $-1 $195 $196 $26 $-1 $197 reversed single #
loop $-1 $-1 $198 $72 #
plane-surface $-1 0 25.504123379220864 0 0 -1 0 0 0 -1 forward_v I I I I #
coedge $-1 $199 $200 $201 $202 reversed $73 $-1 #
coedge $-1 $203 $75 $199 $204 forward $47 $-1 #
coedge $-1 $75 $203 $198 $205 reversed $47 $-1 #
coedge $-1 $206 $207 $75 $122 forward $208 $-1 #
edge $-1 $209 4.5351608818531659 $210 15.491028625529523 $121 $211 forward 7 unknown #
face $-1 $212 $213 $27 $-1 $214 forward single #
loop $-1 $-1 $215 $76 #
plane-surface $-1 25.824341121998899 -6.4713846084057991 123.02399502882899 0 1 0 0.6018150307709319 0 0.79863550430605224 forward_v I I I I #
coedge $-1 $216 $217 $218 $219 reversed $77 $-1 #
coedge $-1 $128 $79 $220 $221 reversed $50 $-1 #
coedge $-1 $79 $127 $216 $222 reversed $50 $-1 #
coedge $-1 $218 $223 $79 $130 forward $213 $-1 #
edge $-1 $224 -29.67701978294415 $225 -22.930064295778607 $129 $226 forward 7 unknown #
loop $-1 $-1 $136 $80 #
plane-surface $-1 -25.437288672700085 -1.9967285155837011 54.997516012185301 0.6018150307709319 0 0.79863550430605224 0.79863550430605224 0 -0.6018150307709319 forward_v I I I I #
loop $-1 $-1 $227 $52 #
coedge $-1 $134 $134 $135 $228 reversed $81 $-1 #
coedge $-1 $135 $135 $134 $228 forward $83 $-1 #
coedge $-1 $136 $136 $84 $137 forward $131 $-1 #
edge $-1 $229 0 $229 6.2831853071796004 $136 $230 forward 7 unknown #
face $-1 $231 $232 $29 $-1 $233 reversed single #
loop $-1 $-1 $234 $85 #
plane-surface $-1 -112.36323570647868 -3.9601676581050969 53.402678369250815 0 -1 0 0.81915205242281985 0 -0.57357642473473569 forward_v I I I I #
coedge $-1 $235 $236 $237 $238 reversed $86 $-1 #
coedge $-1 $143 $88 $239 $240 reversed $56 $-1 #
coedge $-1 $88 $142 $235 $241 reversed $56 $-1 #
coedge $-1 $237 $242 $88 $145 forward $243 $-1 #
edge $-1 $244 13.592427509295739 $245 16.584914627475726 $144 $246 forward 7 unknown #
loop $-1 $-1 $151 $89 #
plane-surface $-1 -42.589190343943599 -7.5777370035214062 4.5463673095982173 -0.81915205242281985 0 0.57357642473473569 0.57357642473473569 0 0.81915205242281985 forward_v I I I I #
loop $-1 $-1 $247 $58 #
coedge $-1 $149 $149 $150 $248 reversed $90 $-1 #
coedge $-1 $150 $150 $149 $248 forward $92 $-1 #
coedge $-1 $151 $151 $93 $152 forward $146 $-1 #
edge $-1 $249 0 $249 6.2831853071796004 $151 $250 forward 7 unknown #
loop $-1 $-1 $158 $94 #
plane-surface $-1 -42.589190343943599 -7.5777370035214062 4.5463673095982173 -0.81915205242281985 0 0.57357642473473569 0.57357642473473569 0 0.81915205242281985 forward_v I I I I #
loop $-1 $-1 $251 $61 #
coedge $-1 $156 $156 $157 $252 reversed $95 $-1 #
coedge $-1 $157 $157 $156 $252 forward $97 $-1 #
coedge $-1 $158 $158 $98 $159 forward $153 $-1 #
edge $-1 $253 0 $253 6.2831853071796004 $158 $254 forward 7 unknown #
face $-1 $255 $256 $24 $-1 $257 reversed single #
loop $-1 $-1 $258 $99 #
plane-surface $-1 -42.589190343943599 0 0 1 0 0 0 0 -1 forward_v I I I I #
coedge $-1 $259 $171 $260 $261 forward $100 $-1 #
coedge $-1 $262 $102 $259 $263 forward $65 $-1 #
coedge $-1 $102 $262 $264 $265 forward $65 $-1 #
coedge $-1 $174 $173 $102 $167 reversed $175 $-1 #
edge $-1 $266 -25.504123379220864 $267 25.504123379220864 $166 $268 forward 7 unknown #
coedge $-1 $104 $103 $269 $270 forward $41 $-1 #
coedge $-1 $271 $272 $103 $170 reversed $256 $-1 #
edge $-1 $177 -42.589190343943599 $273 42.589190343943599 $169 $274 forward 7 unknown #
coedge $-1 $163 $275 $104 $172 reversed $100 $-1 #
edge $-1 $276 -42.589190343943599 $176 42.589190343943599 $171 $277 forward 7 unknown #
coedge $-1 $166 $105 $275 $278 forward $175 $-1 #
coedge $-1 $105 $166 $271 $279 reversed $175 $-1 #
loop $-1 $-1 $173 $255 #
vertex $-1 $106 $280 #
vertex $-1 $106 $281 #
straight-curve $-1 42.589190343943599 0 8.8200819516176328 0 1 0 I I #
face $-1 $282 $283 $25 $-1 $284 reversed single #
loop $-1 $-1 $185 $107 #
plane-surface $-1 42.589190343943599 0 0 -1 0 0 0 0 1 forward_v I I I I #
coedge $-1 $285 $286 $183 $287 forward $108 $-1 #
coedge $-1 $288 $110 $182 $287 reversed $69 $-1 #
coedge $-1 $110 $288 $111 $188 reversed $69 $-1 #
coedge $-1 $113 $289 $110 $186 forward $180 $-1 #
edge $-1 $290 -5.1600409758088164 $192 -2.1600409758088164 $185 $291 forward 7 unknown #
coedge $-1 $112 $111 $292 $293 reversed $44 $-1 #
edge $-1 $192 -42.589190343943599 $294 42.589190343943599 $184 $295 forward 7 unknown #
coedge $-1 $296 $297 $112 $190 forward $283 $-1 #
edge $-1 $193 -42.589190343943599 $298 42.589190343943599 $189 $299 forward 7 unknown #
coedge $-1 $289 $113 $297 $300 forward $180 $-1 #
vertex $-1 $114 $301 #
vertex $-1 $300 $302 #
straight-curve $-1 42.589190343943599 -10.623298692989732 -5.8200819516176328 0 -1 0 I I #
face $-1 $303 $304 $26 $-1 $305 forward single #
loop $-1 $-1 $306 $115 #
plane-surface $-1 -42.589190343943599 0 0 1 0 0 0 0 -1 forward_v I I I I #
coedge $-1 $307 $308 $120 $205 forward $116 $-1 #
coedge $-1 $309 $118 $119 $204 reversed $73 $-1 #
coedge $-1 $118 $309 $310 $311 reversed $73 $-1 #
coedge $-1 $312 $306 $118 $202 forward $196 $-1 #
edge $-1 $313 2.1600409758088164 $314 5.1600409758088164 $201 $315 forward 7 unknown #
coedge $-1 $120 $119 $306 $316 reversed $47 $-1 #
edge $-1 $209 -42.589190343943599 $313 42.589190343943599 $199 $317 forward 7 unknown #
edge $-1 $210 -42.589190343943599 $318 42.589190343943599 $198 $319 forward 7 unknown #
coedge $-1 $320 $121 $308 $321 reversed $208 $-1 #
coedge $-1 $121 $320 $309 $322 forward $208 $-1 #
loop $-1 $-1 $121 $303 #
vertex $-1 $122 $323 #
vertex $-1 $205 $324 #
straight-curve $-1 42.589190343943599 10.013094753691345 5.8200819516176328 0 1 0 I I #
face $-1 $-1 $325 $27 $-1 $326 reversed single #
loop $-1 $-1 $129 $123 #
plane-surface $-1 0 0 8.8200819516176328 0 0 1 1 0 0 forward_v I I I I #
coedge $-1 $327 $328 $329 $330 reversed $124 $-1 #
coedge $-1 $331 $126 $128 $222 forward $77 $-1 #
coedge $-1 $126 $331 $327 $332 forward $77 $-1 #
coedge $-1 $329 $129 $126 $219 forward $213 $-1 #
edge $-1 $225 -3.4762918350302474 $333 5.4730203506139485 $218 $334 forward 7 unknown #
coedge $-1 $335 $336 $127 $221 forward $325 $-1 #
edge $-1 $337 -57.776111296928178 $224 -52.691915562796865 $220 $338 forward 7 unknown #
edge $-1 $225 76.730277077682572 $337 85.178380687887199 $128 $339 forward 7 unknown #
coedge $-1 $129 $329 $335 $340 forward $213 $-1 #
vertex $-1 $221 $341 #
vertex $-1 $130 $342 #
straight-curve $-1 12.912170560999449 2.4779275772383969 8.820081951617631 -1 0 0 I I #
coedge $-1 $227 $227 $-1 $343 reversed $133 $-1 #
edge $-1 $344 0 $344 6.2831853071796004 $134 $345 forward 7 unknown #
vertex $-1 $137 $346 #
ellipse-curve $-1 39.215712600360824 -1.9967285155837011 6.2779840845519779 0.6018150307709319 0 0.79863550430605224 1.5972710086121045 0 -1.2036300615418638 1 I I #
face $-1 $-1 $243 $29 $-1 $347 forward single #
loop $-1 $-1 $348 $138 #
plane-surface $-1 -42.589190343943599 0 0 1 0 0 0 0 -1 forward_v I I I I #
coedge $-1 $349 $350 $351 $352 reversed $139 $-1 #
coedge $-1 $353 $141 $143 $241 forward $86 $-1 #
coedge $-1 $141 $353 $349 $354 forward $86 $-1 #
coedge $-1 $351 $144 $141 $238 forward $243 $-1 #
edge $-1 $245 -7.4064378471770134 $355 -0.17129915634439374 $237 $356 forward 7 unknown #
coedge $-1 $357 $358 $142 $240 forward $232 $-1 #
edge $-1 $359 -22.15497187502719 $244 -17.881257233007773 $239 $360 forward 7 unknown #
edge $-1 $245 -5.2172421827900903 $359 0 $143 $361 forward 7 unknown #
coedge $-1 $144 $351 $357 $362 forward $243 $-1 #
loop $-1 $-1 $351 $231 #
vertex $-1 $240 $363 #
vertex $-1 $145 $364 #
straight-curve $-1 -56.181617853239338 -11.195306348937716 8.820081951617631 1 0 0 I I #
coedge $-1 $247 $247 $-1 $365 reversed $148 $-1 #
edge $-1 $366 0 $366 6.2831853071796004 $149 $367 forward 7 unknown #
vertex $-1 $152 $368 #
ellipse-curve $-1 -41.092946784853602 -9.1281238658426815 6.683224630607925 -0.81915205242281985 0 0.57357642473473569 0.57357642473473569 0 0.81915205242281985 1 I I #
coedge $-1 $251 $251 $-1 $369 reversed $155 $-1 #
edge $-1 $370 0 $370 6.2831853071796004 $156 $371 forward 7 unknown #
vertex $-1 $159 $372 #
ellipse-curve $-1 -41.092946784853602 -6.0273501412001309 6.683224630607925 -0.81915205242281985 0 0.57357642473473569 0.57357642473473569 0 0.81915205242281985 1 I I #
face $-1 $-1 $175 $24 $-1 $373 reversed single #
loop $-1 $-1 $271 $160 #
plane-surface $-1 0 25.504123379220864 0 0 -1 0 0 0 -1 forward_v I I I I #
coedge $-1 $374 $269 $272 $375 forward $161 $-1 #
coedge $-1 $275 $163 $164 $263 reversed $100 $-1 #
coedge $-1 $269 $374 $163 $261 reversed $161 $-1 #
edge $-1 $276 -8.8200819516176328 $376 8.8200819516176328 $260 $377 forward 7 unknown #
coedge $-1 $165 $164 $374 $378 forward $65 $-1 #
edge $-1 $267 -42.589190343943599 $376 42.589190343943599 $259 $379 forward 7 unknown #
coedge $-1 $272 $271 $165 $265 reversed $256 $-1 #
edge $-1 $380 -42.589190343943599 $266 42.589190343943599 $264 $381 forward 7 unknown #
vertex $-1 $167 $382 #
vertex $-1 $278 $383 #
straight-curve $-1 42.589190343943599 0 -8.8200819516176328 0 -1 0 I I #
coedge $-1 $258 $260 $168 $270 reversed $161 $-1 #
edge $-1 $273 -25.504123379220864 $276 25.504123379220864 $269 $384 forward 7 unknown #
coedge $-1 $264 $169 $174 $279 forward $256 $-1 #
coedge $-1 $169 $264 $258 $375 reversed $256 $-1 #
vertex $-1 $170 $385 #
straight-curve $-1 0 25.504123379220864 8.8200819516176328 -1 0 0 I I #
coedge $-1 $171 $259 $173 $278 reversed $100 $-1 #
vertex $-1 $270 $386 #
straight-curve $-1 0 -25.504123379220864 8.8200819516176328 1 0 0 I I #
edge $-1 $176 -8.8200819516176328 $267 8.8200819516176328 $173 $387 forward 7 unknown #
edge $-1 $177 -8.8200819516176328 $266 8.8200819516176328 $174 $388 forward 7 unknown #
point $-1 42.589190343943599 -25.504123379220864 8.8200819516176328 #
point $-1 42.589190343943599 25.504123379220864 8.8200819516176328 #
face $-1 $-1 $389 $25 $-1 $390 reversed single #
loop $-1 $-1 $189 $179 #
plane-surface $-1 0 -25.504123379220864 0 0 1 0 0 0 1 forward_v I I I I #
coedge $-1 $391 $182 $289 $392 forward $108 $-1 #
coedge $-1 $182 $391 $393 $394 forward $108 $-1 #
edge $-1 $395 -42.589190343943599 $290 42.589190343943599 $182 $396 forward 7 unknown #
coedge $-1 $184 $183 $397 $398 reversed $69 $-1 #
coedge $-1 $185 $191 $285 $392 reversed $180 $-1 #
vertex $-1 $392 $399 #
straight-curve $-1 42.589190343943599 -16.989071392738062 -3.6600409758088164 0 0 1 I I #
coedge $-1 $397 $400 $187 $293 forward $389 $-1 #
edge $-1 $298 -14.880824686231133 $294 -6.3657726997483302 $292 $401 forward 7 unknown #
vertex $-1 $293 $402 #
straight-curve $-1 0 -16.989071392738062 -5.8200819516176328 -1 0 0 I I #
coedge $-1 $403 $189 $400 $404 forward $283 $-1 #
coedge $-1 $189 $403 $191 $300 reversed $283 $-1 #
vertex $-1 $404 $405 #
straight-curve $-1 0 -25.504123379220864 -5.8200819516176328 -1 0 0 I I #
edge $-1 $193 5.8200819516176328 $406 8.8200819516176328 $191 $407 forward 7 unknown #
point $-1 42.589190343943599 -16.989071392738062 -5.8200819516176328 #
point $-1 42.589190343943599 -25.504123379220864 -5.8200819516176328 #
face $-1 $-1 $208 $26 $-1 $408 reversed single #
loop $-1 $-1 $310 $195 #
plane-surface $-1 0 0 8.8200819516176328 0 0 1 1 0 0 forward_v I I I I #
coedge $-1 $201 $409 $203 $316 forward $196 $-1 #
coedge $-1 $410 $198 $409 $411 reversed $116 $-1 #
coedge $-1 $198 $410 $206 $321 forward $116 $-1 #
coedge $-1 $200 $199 $207 $322 reversed $73 $-1 #
coedge $-1 $412 $413 $200 $311 forward $304 $-1 #
edge $-1 $314 -42.589190343943599 $414 42.589190343943599 $310 $415 forward 7 unknown #
coedge $-1 $409 $201 $413 $416 reversed $196 $-1 #
vertex $-1 $316 $417 #
vertex $-1 $202 $418 #
straight-curve $-1 -42.589190343943599 14.548255635544511 3.6600409758088164 0 0 1 I I #
edge $-1 $318 -15.491028625529523 $313 -4.5351608818531659 $306 $419 forward 7 unknown #
straight-curve $-1 0 14.548255635544511 5.8200819516176328 -1 0 0 I I #
vertex $-1 $205 $420 #
straight-curve $-1 0 25.504123379220864 5.8200819516176328 -1 0 0 I I #
coedge $-1 $207 $206 $412 $421 reversed $208 $-1 #
edge $-1 $422 -8.8200819516176328 $210 -5.8200819516176328 $206 $423 forward 7 unknown #
edge $-1 $414 -5.1600409758088164 $209 -2.1600409758088164 $207 $424 forward 7 unknown #
point $-1 42.589190343943599 14.548255635544511 5.8200819516176328 #
point $-1 42.589190343943599 25.504123379220868 5.8200819516176328 #
loop $-1 $-1 $220 $212 #
plane-surface $-1 42.589190343943599 0 0 -1 0 0 0 0 1 forward_v I I I I #
coedge $-1 $328 $215 $217 $332 reversed $124 $-1 #
coedge $-1 $215 $327 $425 $426 reversed $124 $-1 #
coedge $-1 $223 $218 $215 $330 forward $213 $-1 #
edge $-1 $333 22.930064295778607 $427 29.67701978294415 $329 $428 forward 7 unknown #
coedge $-1 $217 $216 $336 $429 reversed $77 $-1 #
edge $-1 $430 -85.178380687887199 $333 -76.730277077682572 $327 $431 forward 7 unknown #
vertex $-1 $219 $432 #
straight-curve $-1 35.842234856778056 -0.99836425779185056 8.820081951617631 0 -1 0 I I #
coedge $-1 $425 $220 $223 $340 reversed $325 $-1 #
coedge $-1 $220 $425 $331 $429 forward $325 $-1 #
vertex $-1 $221 $433 #
straight-curve $-1 42.589190343943599 2.4779275772383969 61.511997514414496 0 0 1 I I #
straight-curve $-1 -25.437288672700085 2.4779275772383969 54.997516012185301 0.79863550430605224 0 -0.6018150307709319 I I #
edge $-1 $427 -6.4713846084057991 $224 2.4779275772383969 $335 $434 forward 7 unknown #
point $-1 42.589190343943599 2.4779275772383969 8.8200819516176328 #
point $-1 35.842234856778056 2.4779275772383969 8.820081951617631 #
edge $-1 $435 1 $435 0 $227 $-1 forward 7 unknown #
vertex $-1 $228 $436 #
ellipse-curve $-1 37.815046751285443 -1.9967285155837011 4.4192377596095529 0.6018150307709319 0 0.79863550430605224 1.5972710086121045 0 -1.2036300615418638 1 I I #
point $-1 40.812983608972928 -1.9967285155837011 5.0743540230101063 #
plane-surface $-1 0 0 8.8200819516176328 0 0 1 1 0 0 forward_v I I I I #
coedge $-1 $358 $357 $350 $437 forward $232 $-1 #
coedge $-1 $350 $234 $236 $354 reversed $139 $-1 #
coedge $-1 $234 $349 $348 $437 reversed $139 $-1 #
coedge $-1 $242 $237 $234 $352 forward $243 $-1 #
edge $-1 $355 -16.584914627475726 $438 -13.592427509295739 $351 $439 forward 7 unknown #
coedge $-1 $236 $235 $358 $440 reversed $86 $-1 #
edge $-1 $441 0 $355 5.2172421827900903 $349 $442 forward 7 unknown #
vertex $-1 $238 $443 #
straight-curve $-1 -39.596703225763612 -3.7888685017607031 8.8200819516176345 0 1 0 I I #
coedge $-1 $348 $239 $242 $362 reversed $232 $-1 #
coedge $-1 $239 $348 $353 $440 forward $232 $-1 #
vertex $-1 $240 $444 #
straight-curve $-1 -42.589190343943599 -11.195306348937716 26.701339184625407 0 0 1 I I #
straight-curve $-1 -42.589190343943599 -11.195306348937716 4.5463673095982173 -0.57357642473473569 0 -0.81915205242281985 I I #
edge $-1 $438 3.9601676581050969 $244 11.195306348937716 $357 $445 forward 7 unknown #
point $-1 -42.589190343943599 -11.195306348937716 8.8200819516176328 #
point $-1 -39.596703225763612 -11.195306348937716 8.8200819516176328 #
edge $-1 $446 1 $446 0 $247 $-1 forward 7 unknown #
vertex $-1 $248 $447 #
ellipse-curve $-1 -38.61409122706408 -9.1281238658426815 4.9475113352979463 -0.81915205242281985 0 0.57357642473473569 0.57357642473473569 0 0.81915205242281985 1 I I #
point $-1 -40.51937036011887 -9.1281238658426815 7.5023766830307483 #
edge $-1 $448 1 $448 0 $251 $-1 forward 7 unknown #
vertex $-1 $252 $449 #
ellipse-curve $-1 -38.61409122706408 -6.0273501412001309 4.9475113352979463 -0.81915205242281985 0 0.57357642473473569 0.57357642473473569 0 0.81915205242281985 1 I I #
point $-1 -40.51937036011887 -6.0273501412001309 7.5023766830307483 #
plane-surface $-1 42.589190343943599 0 0 -1 0 0 0 0 1 forward_v I I I I #
coedge $-1 $260 $258 $262 $378 reversed $161 $-1 #
edge $-1 $273 -8.8200819516176328 $380 8.8200819516176328 $272 $450 forward 7 unknown #
vertex $-1 $378 $451 #
straight-curve $-1 -42.589190343943599 -25.504123379220864 0 0 0 -1 I I #
edge $-1 $376 -25.504123379220864 $380 25.504123379220864 $374 $452 forward 7 unknown #
straight-curve $-1 0 -25.504123379220864 -8.8200819516176328 -1 0 0 I I #
vertex $-1 $265 $453 #
straight-curve $-1 0 25.504123379220864 -8.8200819516176328 1 0 0 I I #
point $-1 42.589190343943599 25.504123379220864 -8.8200819516176328 #
point $-1 42.589190343943599 -25.504123379220864 -8.8200819516176328 #
straight-curve $-1 -42.589190343943599 0 8.8200819516176328 0 -1 0 I I #
point $-1 -42.589190343943599 25.504123379220864 8.8200819516176328 #
point $-1 -42.589190343943599 -25.504123379220864 8.8200819516176328 #
straight-curve $-1 42.589190343943599 -25.504123379220864 0 0 0 -1 I I #
straight-curve $-1 42.589190343943599 25.504123379220864 0 0 0 -1 I I #
loop $-1 $-1 $397 $282 #
plane-surface $-1 -42.589190343943599 0 0 1 0 0 0 0 -1 forward_v I I I I #
coedge $-1 $286 $285 $403 $454 forward $108 $-1 #
edge $-1 $290 16.989071392738062 $406 25.504123379220864 $289 $455 forward 7 unknown #
coedge $-1 $400 $397 $286 $394 reversed $389 $-1 #
edge $-1 $456 -25.504123379220864 $395 -16.989071392738062 $393 $457 forward 7 unknown #
vertex $-1 $398 $458 #
straight-curve $-1 0 -16.989071392738062 -8.8200819516176328 1 0 0 I I #
coedge $-1 $393 $292 $288 $398 forward $389 $-1 #
edge $-1 $294 2.1600409758088164 $395 5.1600409758088164 $397 $459 forward 7 unknown #
point $-1 42.589190343943599 -16.989071392738062 -8.8200819516176328 #
coedge $-1 $292 $393 $296 $404 reversed $389 $-1 #
straight-curve $-1 -42.589190343943599 -10.623298692989732 -5.8200819516176328 0 1 0 I I #
point $-1 -42.589190343943599 -16.989071392738062 -5.8200819516176328 #
coedge $-1 $297 $296 $391 $454 reversed $283 $-1 #
edge $-1 $298 5.8200819516176328 $456 8.8200819516176328 $400 $460 forward 7 unknown #
point $-1 -42.589190343943599 -25.504123379220864 -5.8200819516176328 #
vertex $-1 $300 $461 #
straight-curve $-1 42.589190343943599 -25.504123379220864 0 0 0 -1 I I #
plane-surface $-1 42.589190343943599 0 0 -1 0 0 0 0 1 forward_v I I I I #
coedge $-1 $306 $312 $307 $411 forward $196 $-1 #
coedge $-1 $308 $307 $462 $463 reversed $116 $-1 #
edge $-1 $464 -8.8200819516176328 $318 -5.8200819516176328 $307 $465 forward 7 unknown #
coedge $-1 $462 $310 $320 $421 forward $304 $-1 #
coedge $-1 $310 $462 $312 $416 forward $304 $-1 #
vertex $-1 $421 $466 #
straight-curve $-1 0 14.548255635544511 8.8200819516176328 1 0 0 I I #
edge $-1 $464 -25.504123379220864 $314 -14.548255635544511 $312 $467 forward 7 unknown #
point $-1 -42.589190343943599 14.548255635544511 5.8200819516176328 #
point $-1 -42.589190343943599 14.548255635544511 8.8200819516176328 #
straight-curve $-1 -42.589190343943599 10.013094753691345 5.8200819516176328 0 -1 0 I I #
point $-1 -42.589190343943599 25.504123379220868 5.8200819516176328 #
edge $-1 $414 14.548255635544511 $422 25.504123379220864 $320 $468 forward 7 unknown #
vertex $-1 $421 $469 #
straight-curve $-1 42.589190343943599 25.504123379220864 0 0 0 -1 I I #
straight-curve $-1 42.589190343943599 14.548255635544511 3.6600409758088164 0 0 -1 I I #
coedge $-1 $336 $335 $328 $426 forward $325 $-1 #
edge $-1 $427 52.691915562796865 $430 57.776111296928178 $425 $470 forward 7 unknown #
vertex $-1 $340 $471 #
straight-curve $-1 12.912170560999449 -6.4713846084057991 8.820081951617631 1 0 0 I I #
edge $-1 $430 -5.4730203506139485 $337 3.4762918350302474 $336 $472 forward 7 unknown #
vertex $-1 $429 $473 #
straight-curve $-1 -25.437288672700085 -6.4713846084057991 54.997516012185301 -0.79863550430605224 0 0.6018150307709319 I I #
point $-1 35.842234856778056 -6.4713846084057991 8.820081951617631 #
point $-1 42.589190343943606 2.4779275772383969 3.7358862174863177 #
straight-curve $-1 42.589190343943599 0 8.8200819516176328 0 1 0 I I #
vertex $-1 $343 $474 #
point $-1 39.412317759897547 -1.9967285155837011 3.2156076980676893 #
edge $-1 $438 17.881257233007773 $441 22.15497187502719 $348 $475 forward 7 unknown #
vertex $-1 $362 $476 #
straight-curve $-1 -56.181617853239338 -3.9601676581050969 8.820081951617631 -1 0 0 I I #
edge $-1 $441 0.17129915634439374 $359 7.4064378471770134 $358 $477 forward 7 unknown #
vertex $-1 $440 $478 #
straight-curve $-1 -42.589190343943599 -3.9601676581050969 4.5463673095982173 0.57357642473473569 0 0.81915205242281985 I I #
point $-1 -39.596703225763612 -3.9601676581050969 8.8200819516176328 #
point $-1 -42.589190343943599 -11.195306348937716 4.5463673095982173 #
straight-curve $-1 -42.589190343943599 0 8.8200819516176328 0 -1 0 I I #
vertex $-1 $365 $479 #
point $-1 -38.040514802329341 -9.1281238658426815 5.766663387720766 #
vertex $-1 $369 $480 #
point $-1 -38.040514802329341 -6.0273501412001309 5.766663387720766 #
straight-curve $-1 -42.589190343943599 25.504123379220864 0 0 0 -1 I I #
point $-1 -42.589190343943599 -25.504123379220864 -8.8200819516176328 #
straight-curve $-1 -42.589190343943599 0 -8.8200819516176328 0 1 0 I I #
point $-1 -42.589190343943599 25.504123379220864 -8.8200819516176328 #
edge $-1 $406 -42.589190343943599 $456 42.589190343943599 $403 $481 forward 7 unknown #
straight-curve $-1 42.589190343943599 0 -8.8200819516176328 0 -1 0 I I #
vertex $-1 $394 $482 #
straight-curve $-1 -42.589190343943599 0 -8.8200819516176328 0 1 0 I I #
point $-1 -42.589190343943599 -16.989071392738062 -8.8200819516176328 #
straight-curve $-1 -42.589190343943599 -16.989071392738062 -3.6600409758088164 0 0 -1 I I #
straight-curve $-1 -42.589190343943599 -25.504123379220864 0 0 0 -1 I I #
point $-1 42.589190343943599 -25.504123379220864 -8.8200819516176328 #
coedge $-1 $413 $412 $410 $463 forward $304 $-1 #
edge $-1 $422 -42.589190343943599 $464 42.589190343943599 $410 $483 forward 7 unknown #
vertex $-1 $463 $484 #
straight-curve $-1 -42.589190343943599 25.504123379220864 0 0 0 -1 I I #
point $-1 42.589190343943599 14.548255635544511 8.8200819516176328 #
straight-curve $-1 -42.589190343943599 0 8.8200819516176328 0 -1 0 I I #
straight-curve $-1 42.589190343943599 0 8.8200819516176328 0 1 0 I I #
point $-1 42.589190343943599 25.504123379220864 8.8200819516176328 #
straight-curve $-1 42.589190343943599 -6.4713846084057991 61.511997514414496 0 0 -1 I I #
point $-1 42.589190343943599 -6.4713846084057991 8.8200819516176328 #
straight-curve $-1 42.589190343943599 -0.99836425779185056 3.7358862174863212 0 1 0 I I #
point $-1 42.589190343943606 -6.4713846084057991 3.7358862174863177 #
point $-1 36.611416689743585 -1.9967285155837011 2.8219667509974489 #
straight-curve $-1 -42.589190343943599 -3.9601676581050969 26.701339184625407 0 0 -1 I I #
point $-1 -42.589190343943599 -3.9601676581050969 8.8200819516176328 #
straight-curve $-1 -42.589190343943599 -3.7888685017607031 4.5463673095982138 0 -1 0 I I #
point $-1 -42.589190343943599 -3.9601676581050969 4.5463673095982173 #
point $-1 -37.794939174641257 -9.1281238658426815 4.3739349105632108 #
point $-1 -37.794939174641257 -6.0273501412001309 4.3739349105632108 #
straight-curve $-1 0 -25.504123379220864 -8.8200819516176328 -1 0 0 I I #
point $-1 -42.589190343943599 -25.504123379220864 -8.8200819516176328 #
straight-curve $-1 0 25.504123379220864 8.8200819516176328 -1 0 0 I I #
point $-1 -42.589190343943599 25.504123379220864 8.8200819516176328 #
End-of-ACIS-data 