500 0 5 0           
7 Unknown 11 ACIS 5.0 NT 24 Fri Mar 26 01:25:11 1999 
-1 9.9999999999999995e-007 1e-010 
body $-1 $5 $-1 $6 #
body $-1 $7 $-1 $8 #
body $-1 $9 $-1 $10 #
body $-1 $11 $-1 $12 #
body $-1 $13 $-1 $14 #
lump $-1 $-1 $15 $0 #
transform $-1 1 0 0 0 1 0 0 0 1 77.423017059846799 53.656676693174134 17.702265624680006 1 rotate no_reflect no_shear #
lump $-1 $-1 $16 $1 #
transform $-1 1 0 0 0 1 0 0 0 1 77.423017059846799 53.656676693174134 17.702265624680006 1 rotate no_reflect no_shear #
lump $-1 $-1 $17 $2 #
transform $-1 1 0 0 0 1 0 0 0 1 77.423017059846799 53.656676693174134 17.702265624680006 1 rotate no_reflect no_shear #
lump $-1 $-1 $18 $3 #
transform $-1 1 0 0 0 1 0 0 0 1 77.423017059846799 53.656676693174134 17.702265624680006 1 rotate no_reflect no_shear #
lump $-1 $-1 $19 $4 #
transform $-1 1 0 0 0 1 0 0 0 1 77.423017059846799 53.656676693174134 17.702265624680006 1 rotate no_reflect no_shear #
shell $-1 $-1 $-1 $20 $-1 $5 #
shell $-1 $-1 $-1 $21 $-1 $7 #
shell $-1 $-1 $-1 $22 $-1 $9 #
shell $-1 $-1 $-1 $23 $-1 $11 #
shell $-1 $-1 $-1 $24 $-1 $13 #
face $-1 $25 $26 $15 $-1 $27 forward single #
face $-1 $28 $29 $16 $-1 $30 reversed single #
face $-1 $31 $32 $17 $-1 $33 reversed single #
face $-1 $34 $35 $18 $-1 $36 forward single #
face $-1 $37 $38 $19 $-1 $39 forward single #
face $-1 $40 $41 $15 $-1 $42 reversed single #
loop $-1 $-1 $43 $20 #
plane-surface $-1 0 0 17.702265624680006 0 0 1 1 0 0 forward_v I I I I #
face $-1 $44 $45 $16 $-1 $46 reversed single #
loop $-1 $-1 $47 $21 #
plane-surface $-1 -69.781874918596486 0 7.7987861461723931 0 0 1 1 0 0 forward_v I I I I #
face $-1 $48 $49 $17 $-1 $50 reversed single #
loop $-1 $-1 $51 $22 #
plane-surface $-1 96.508851707367725 8.5133001112769122 228.34901282787339 0 -1 0 -0.7660444514056185 0 -0.64278759981090561 forward_v I I I I #
face $-1 $52 $53 $18 $-1 $54 forward single #
loop $-1 $55 $56 $23 #
cone-surface $-1 73.140330712870991 -12.945955163389421 12.998210313789937 -0.7660444514056185 0 -0.64278759981090561 1.2855751996218112 0 -1.532088902811237 1 I I 0 1 2 forward I I I I #
face $-1 $57 $58 $19 $-1 $59 forward single #
loop $-1 $60 $61 $24 #
cone-surface $-1 73.140330712870991 -0.07040199858961671 12.998210313789937 -0.7660444514056185 0 -0.64278759981090561 1.2855751996218112 0 -1.532088902811237 1 I I 0 1 2 forward I I I I #
face $-1 $62 $63 $15 $-1 $64 reversed single #
loop $-1 $-1 $65 $25 #
plane-surface $-1 0 0 -17.702265624680006 0 0 1 1 0 0 forward_v I I I I #
coedge $-1 $66 $67 $68 $69 forward $26 $-1 #
face $-1 $70 $71 $16 $-1 $72 reversed single #
loop $-1 $-1 $73 $28 #
plane-surface $-1 -62.140732777346173 0 12.7505258854262 -1 0 0 0 0 1 forward_v I I I I #
coedge $-1 $74 $75 $76 $77 forward $29 $-1 #
face $-1 $78 $79 $17 $-1 $80 reversed single #
loop $-1 $-1 $81 $31 #
plane-surface $-1 -22.110093552188644 -6.5081785809895223 128.81590221583795 0.7660444514056185 0 0.64278759981090561 0.64278759981090561 0 -0.7660444514056185 forward_v I I I I #
coedge $-1 $82 $83 $84 $85 reversed $32 $-1 #
face $-1 $-1 $86 $18 $-1 $87 forward single #
loop $-1 $88 $89 $34 #
cone-surface $-1 71.240450699811234 -12.945955163389421 11.404021737288179 -0.7660444514056185 0 -0.64278759981090561 0.64278759981090561 0 -0.7660444514056185 1 I I -0.70710678118654746 0.70710678118654746 1 forward I I I I #
loop $-1 $-1 $90 $23 #
coedge $-1 $56 $56 $91 $92 reversed $35 $-1 #
face $-1 $-1 $93 $19 $-1 $94 forward single #
loop $-1 $95 $96 $37 #
cone-surface $-1 71.240450699811234 -0.07040199858961671 11.404021737288179 -0.7660444514056185 0 -0.64278759981090561 0.64278759981090561 0 -0.7660444514056185 1 I I -0.70710678118654746 0.70710678118654746 1 forward I I I I #
loop $-1 $-1 $97 $24 #
coedge $-1 $61 $61 $98 $99 reversed $38 $-1 #
face $-1 $100 $101 $15 $-1 $102 reversed single #
loop $-1 $-1 $103 $40 #
plane-surface $-1 0 -53.656676693174134 0 0 1 0 0 0 1 forward_v I I I I #
coedge $-1 $104 $105 $106 $107 forward $41 $-1 #
coedge $-1 $108 $43 $109 $110 forward $26 $-1 #
coedge $-1 $43 $108 $111 $112 forward $26 $-1 #
coedge $-1 $113 $114 $43 $69 reversed $115 $-1 #
edge $-1 $116 -53.656676693174134 $117 53.656676693174134 $68 $118 forward 7 unknown #
face $-1 $119 $120 $16 $-1 $121 reversed single #
loop $-1 $-1 $122 $44 #
plane-surface $-1 0 53.656676693174134 0 0 -1 0 0 0 -1 forward_v I I I I #
coedge $-1 $76 $123 $124 $125 reversed $45 $-1 #
coedge $-1 $126 $47 $127 $128 reversed $29 $-1 #
coedge $-1 $47 $126 $129 $130 reversed $29 $-1 #
coedge $-1 $131 $73 $47 $77 reversed $45 $-1 #
edge $-1 $132 -53.656676693174134 $133 53.656676693174134 $76 $134 forward 7 unknown #
face $-1 $135 $136 $17 $-1 $137 forward single #
loop $-1 $-1 $138 $48 #
plane-surface $-1 96.508851707367725 -21.529657273255957 228.34901282787339 0 1 0 0.7660444514056185 0 0.64278759981090561 forward_v I I I I #
coedge $-1 $139 $140 $141 $142 reversed $49 $-1 #
coedge $-1 $83 $51 $143 $144 reversed $32 $-1 #
coedge $-1 $51 $82 $139 $145 reversed $32 $-1 #
coedge $-1 $141 $146 $51 $85 forward $136 $-1 #
edge $-1 $147 -29.168591206162937 $148 -22.870889635519568 $84 $149 forward 7 unknown #
loop $-1 $-1 $91 $52 #
plane-surface $-1 -22.110093552188644 -6.5081785809895223 128.81590221583795 0.7660444514056185 0 0.64278759981090561 0.64278759981090561 0 -0.7660444514056185 forward_v I I I I #
loop $-1 $-1 $150 $34 #
coedge $-1 $89 $89 $90 $151 reversed $53 $-1 #
coedge $-1 $90 $90 $89 $151 forward $55 $-1 #
coedge $-1 $91 $91 $56 $92 forward $86 $-1 #
edge $-1 $152 0 $152 6.2831853071796004 $91 $153 forward 7 unknown #
loop $-1 $-1 $98 $57 #
plane-surface $-1 -22.110093552188644 -6.5081785809895223 128.81590221583795 0.7660444514056185 0 0.64278759981090561 0.64278759981090561 0 -0.7660444514056185 forward_v I I I I #
loop $-1 $-1 $154 $37 #
coedge $-1 $96 $96 $97 $155 reversed $58 $-1 #
coedge $-1 $97 $97 $96 $155 forward $60 $-1 #
coedge $-1 $98 $98 $61 $99 forward $93 $-1 #
edge $-1 $156 0 $156 6.2831853071796004 $98 $157 forward 7 unknown #
face $-1 $158 $159 $15 $-1 $160 reversed single #
loop $-1 $-1 $161 $62 #
plane-surface $-1 -77.423017059846799 0 0 1 0 0 0 0 -1 forward_v I I I I #
coedge $-1 $162 $111 $163 $164 forward $63 $-1 #
coedge $-1 $165 $65 $162 $166 forward $41 $-1 #
coedge $-1 $65 $165 $167 $168 forward $41 $-1 #
coedge $-1 $114 $113 $65 $107 reversed $115 $-1 #
edge $-1 $169 -53.656676693174134 $170 53.656676693174134 $106 $171 forward 7 unknown #
coedge $-1 $67 $66 $172 $173 forward $26 $-1 #
coedge $-1 $174 $175 $66 $110 reversed $159 $-1 #
edge $-1 $117 -77.423017059846799 $176 77.423017059846799 $109 $177 forward 7 unknown #
coedge $-1 $103 $178 $67 $112 reversed $63 $-1 #
edge $-1 $179 -77.423017059846799 $116 77.423017059846799 $111 $180 forward 7 unknown #
coedge $-1 $106 $68 $178 $181 forward $115 $-1 #
coedge $-1 $68 $106 $174 $182 reversed $115 $-1 #
loop $-1 $-1 $113 $158 #
vertex $-1 $69 $183 #
vertex $-1 $69 $184 #
straight-curve $-1 77.423017059846799 0 17.702265624680006 0 1 0 I I #
face $-1 $185 $186 $16 $-1 $187 forward single #
loop $-1 $-1 $188 $70 #
plane-surface $-1 -77.423017059846799 0 0 1 0 0 0 0 -1 forward_v I I I I #
coedge $-1 $129 $189 $131 $190 forward $71 $-1 #
coedge $-1 $73 $131 $191 $192 reversed $45 $-1 #
coedge $-1 $193 $127 $73 $125 forward $194 $-1 #
edge $-1 $133 1.4235232034592933 $195 11.327002681966906 $124 $196 forward 7 unknown #
coedge $-1 $75 $74 $188 $197 reversed $29 $-1 #
coedge $-1 $124 $198 $74 $128 forward $194 $-1 #
edge $-1 $199 -42.532079600548556 $133 -27.24979531804793 $127 $200 forward 7 unknown #
coedge $-1 $201 $122 $75 $130 forward $71 $-1 #
edge $-1 $132 27.24979531804793 $202 42.532079600548556 $129 $203 forward 7 unknown #
coedge $-1 $123 $76 $122 $190 reversed $45 $-1 #
vertex $-1 $130 $204 #
vertex $-1 $128 $205 #
straight-curve $-1 -62.140732777346173 0 7.7987861461723931 0 -1 0 I I #
face $-1 $-1 $206 $17 $-1 $207 reversed single #
loop $-1 $-1 $84 $78 #
plane-surface $-1 0 0 17.702265624680006 0 0 1 1 0 0 forward_v I I I I #
coedge $-1 $208 $209 $210 $211 reversed $79 $-1 #
coedge $-1 $212 $81 $83 $145 forward $49 $-1 #
coedge $-1 $81 $212 $208 $213 forward $49 $-1 #
coedge $-1 $210 $84 $81 $142 forward $136 $-1 #
edge $-1 $148 -11.767389401771673 $214 18.275567982761196 $141 $215 forward 7 unknown #
coedge $-1 $216 $217 $82 $144 forward $206 $-1 #
edge $-1 $218 -103.9775494576551 $147 -96.472240789256688 $143 $219 forward 7 unknown #
edge $-1 $148 145.04854958126131 $218 154.84603411969363 $83 $220 forward 7 unknown #
coedge $-1 $84 $210 $216 $221 forward $136 $-1 #
vertex $-1 $144 $222 #
vertex $-1 $85 $223 #
straight-curve $-1 48.254425853683863 8.5133001112769122 17.70226562468001 -1 0 0 I I #
coedge $-1 $150 $150 $-1 $224 reversed $88 $-1 #
edge $-1 $225 0 $225 6.2831853071796004 $89 $226 forward 7 unknown #
vertex $-1 $92 $227 #
ellipse-curve $-1 74.274166274525115 -12.945955163389421 13.949611290480778 0.7660444514056185 0 0.64278759981090561 1.2855751996218112 0 -1.532088902811237 1 I I #
coedge $-1 $154 $154 $-1 $228 reversed $95 $-1 #
edge $-1 $229 0 $229 6.2831853071796004 $96 $230 forward 7 unknown #
vertex $-1 $99 $231 #
ellipse-curve $-1 74.274166274525115 -0.07040199858961671 13.949611290480778 0.7660444514056185 0 0.64278759981090561 1.2855751996218112 0 -1.532088902811237 1 I I #
face $-1 $-1 $115 $15 $-1 $232 reversed single #
loop $-1 $-1 $174 $100 #
plane-surface $-1 0 53.656676693174134 0 0 -1 0 0 0 -1 forward_v I I I I #
coedge $-1 $233 $172 $175 $234 forward $101 $-1 #
coedge $-1 $178 $103 $104 $166 reversed $63 $-1 #
coedge $-1 $172 $233 $103 $164 reversed $101 $-1 #
edge $-1 $179 -17.702265624680006 $235 17.702265624680006 $163 $236 forward 7 unknown #
coedge $-1 $105 $104 $233 $237 forward $41 $-1 #
edge $-1 $170 -77.423017059846799 $235 77.423017059846799 $162 $238 forward 7 unknown #
coedge $-1 $175 $174 $105 $168 reversed $159 $-1 #
edge $-1 $239 -77.423017059846799 $169 77.423017059846799 $167 $240 forward 7 unknown #
vertex $-1 $107 $241 #
vertex $-1 $181 $242 #
straight-curve $-1 77.423017059846799 0 -17.702265624680006 0 -1 0 I I #
coedge $-1 $161 $163 $108 $173 reversed $101 $-1 #
edge $-1 $176 -53.656676693174134 $179 53.656676693174134 $172 $243 forward 7 unknown #
coedge $-1 $167 $109 $114 $182 forward $159 $-1 #
coedge $-1 $109 $167 $161 $234 reversed $159 $-1 #
vertex $-1 $110 $244 #
straight-curve $-1 0 53.656676693174134 17.702265624680006 -1 0 0 I I #
coedge $-1 $111 $162 $113 $181 reversed $63 $-1 #
vertex $-1 $173 $245 #
straight-curve $-1 0 -53.656676693174134 17.702265624680006 1 0 0 I I #
edge $-1 $116 -17.702265624680006 $170 17.702265624680006 $113 $246 forward 7 unknown #
edge $-1 $117 -17.702265624680006 $169 17.702265624680006 $114 $247 forward 7 unknown #
point $-1 77.423017059846799 -53.656676693174134 17.702265624680006 #
point $-1 77.423017059846799 53.656676693174134 17.702265624680006 #
face $-1 $-1 $194 $16 $-1 $248 reversed single #
loop $-1 $-1 $191 $119 #
plane-surface $-1 0 0 17.702265624680006 0 0 1 1 0 0 forward_v I I I I #
coedge $-1 $249 $250 $126 $197 forward $120 $-1 #
coedge $-1 $122 $201 $251 $252 reversed $71 $-1 #
edge $-1 $253 -11.327002681966906 $132 -1.4235232034592933 $122 $254 forward 7 unknown #
coedge $-1 $251 $255 $123 $192 forward $186 $-1 #
edge $-1 $195 -53.656676693174134 $253 53.656676693174134 $191 $256 forward 7 unknown #
coedge $-1 $198 $124 $255 $257 reversed $194 $-1 #
loop $-1 $-1 $124 $185 #
vertex $-1 $125 $258 #
straight-curve $-1 -62.140732777346173 -53.656676693174134 6.3752629427130998 0 0 1 I I #
edge $-1 $202 -53.656676693174134 $199 53.656676693174134 $188 $259 forward 7 unknown #
coedge $-1 $127 $193 $249 $260 forward $194 $-1 #
vertex $-1 $197 $261 #
straight-curve $-1 -34.890937459298243 -53.656676693174134 7.7987861461723931 1 0 0 I I #
coedge $-1 $189 $129 $250 $262 reversed $71 $-1 #
vertex $-1 $197 $263 #
straight-curve $-1 -34.890937459298243 53.656676693174134 7.7987861461723931 -1 0 0 I I #
point $-1 -62.140732777346173 53.656676693174134 7.7987861461723931 #
point $-1 -62.140732777346173 -53.656676693174134 7.7987861461723931 #
loop $-1 $-1 $143 $135 #
plane-surface $-1 77.423017059846799 0 0 -1 0 0 0 0 1 forward_v I I I I #
coedge $-1 $209 $138 $140 $213 reversed $79 $-1 #
coedge $-1 $138 $208 $264 $265 reversed $79 $-1 #
coedge $-1 $146 $141 $138 $211 forward $136 $-1 #
edge $-1 $214 22.870889635519568 $266 29.168591206162937 $210 $267 forward 7 unknown #
coedge $-1 $140 $139 $217 $268 reversed $49 $-1 #
edge $-1 $269 -154.84603411969363 $214 -145.04854958126131 $208 $270 forward 7 unknown #
vertex $-1 $142 $271 #
straight-curve $-1 71.125315489203416 -3.2540892904947611 17.702265624679995 0 -1 0 I I #
coedge $-1 $264 $143 $146 $221 reversed $206 $-1 #
coedge $-1 $143 $264 $212 $268 forward $206 $-1 #
vertex $-1 $144 $272 #
straight-curve $-1 77.423017059846799 8.5133001112769122 114.1745064139367 0 0 1 I I #
straight-curve $-1 -22.110093552188644 8.5133001112769122 128.81590221583795 0.64278759981090561 0 -0.7660444514056185 I I #
edge $-1 $266 -21.529657273255957 $147 8.5133001112769122 $216 $273 forward 7 unknown #
point $-1 77.423017059846799 8.5133001112769122 17.702265624680006 #
point $-1 71.12531548920343 8.5133001112769122 17.702265624679995 #
edge $-1 $274 1 $274 0 $150 $-1 forward 7 unknown #
vertex $-1 $151 $275 #
ellipse-curve $-1 72.006495151216853 -12.945955163389421 12.046809337099084 0.7660444514056185 0 0.64278759981090561 1.2855751996218112 0 -1.532088902811237 1 I I #
point $-1 75.559741474146932 -12.945955163389421 12.41752238766955 #
edge $-1 $276 1 $276 0 $154 $-1 forward 7 unknown #
vertex $-1 $155 $277 #
ellipse-curve $-1 72.006495151216853 -0.07040199858961671 12.046809337099084 0.7660444514056185 0 0.64278759981090561 1.2855751996218112 0 -1.532088902811237 1 I I #
point $-1 75.559741474146932 -0.07040199858961671 12.41752238766955 #
plane-surface $-1 77.423017059846799 0 0 -1 0 0 0 0 1 forward_v I I I I #
coedge $-1 $163 $161 $165 $237 reversed $101 $-1 #
edge $-1 $176 -17.702265624680006 $239 17.702265624680006 $175 $278 forward 7 unknown #
vertex $-1 $237 $279 #
straight-curve $-1 -77.423017059846799 -53.656676693174134 0 0 0 -1 I I #
edge $-1 $235 -53.656676693174134 $239 53.656676693174134 $233 $280 forward 7 unknown #
straight-curve $-1 0 -53.656676693174134 -17.702265624680006 -1 0 0 I I #
vertex $-1 $168 $281 #
straight-curve $-1 0 53.656676693174134 -17.702265624680006 1 0 0 I I #
point $-1 77.423017059846799 53.656676693174134 -17.702265624680006 #
point $-1 77.423017059846799 -53.656676693174134 -17.702265624680006 #
straight-curve $-1 -77.423017059846799 0 17.702265624680006 0 -1 0 I I #
point $-1 -77.423017059846799 53.656676693174134 17.702265624680006 #
point $-1 -77.423017059846799 -53.656676693174134 17.702265624680006 #
straight-curve $-1 77.423017059846799 -53.656676693174134 0 0 0 -1 I I #
straight-curve $-1 77.423017059846799 53.656676693174134 0 0 0 -1 I I #
plane-surface $-1 0 -53.656676693174134 0 0 1 0 0 0 1 forward_v I I I I #
coedge $-1 $282 $188 $198 $260 reversed $120 $-1 #
coedge $-1 $188 $282 $201 $262 forward $120 $-1 #
coedge $-1 $283 $191 $189 $252 forward $186 $-1 #
edge $-1 $253 62.140732777346173 $284 77.423017059846799 $189 $285 forward 7 unknown #
vertex $-1 $252 $286 #
straight-curve $-1 -62.140732777346173 53.656676693174134 6.3752629427130998 0 0 -1 I I #
coedge $-1 $191 $283 $193 $257 forward $186 $-1 #
straight-curve $-1 -62.140732777346173 0 17.702265624680006 0 1 0 I I #
edge $-1 $287 -77.423017059846799 $195 -62.140732777346173 $193 $288 forward 7 unknown #
point $-1 -62.140732777346173 -53.656676693174134 17.702265624680006 #
straight-curve $-1 -77.423017059846799 0 7.7987861461723931 0 -1 0 I I #
edge $-1 $287 -17.702265624680006 $199 -7.7987861461723931 $249 $289 forward 7 unknown #
point $-1 -77.423017059846799 -53.656676693174134 7.7987861461723931 #
edge $-1 $284 -17.702265624680006 $202 -7.7987861461723931 $201 $290 forward 7 unknown #
point $-1 -77.423017059846799 53.656676693174134 7.7987861461723931 #
coedge $-1 $217 $216 $209 $265 forward $206 $-1 #
edge $-1 $266 96.472240789256688 $269 103.9775494576551 $264 $291 forward 7 unknown #
vertex $-1 $221 $292 #
straight-curve $-1 48.254425853683863 -21.529657273255957 17.70226562468001 1 0 0 I I #
edge $-1 $269 -18.275567982761196 $218 11.767389401771673 $217 $293 forward 7 unknown #
vertex $-1 $268 $294 #
straight-curve $-1 -22.110093552188644 -21.529657273255957 128.81590221583795 -0.64278759981090561 0 0.7660444514056185 I I #
point $-1 71.12531548920343 -21.529657273255957 17.702265624679995 #
point $-1 77.423017059846799 8.5133001112769122 10.196956956281596 #
straight-curve $-1 77.423017059846799 0 17.702265624680006 0 1 0 I I #
vertex $-1 $224 $295 #
point $-1 73.292070350838657 -12.945955163389421 10.514720434287847 #
vertex $-1 $228 $296 #
point $-1 73.292070350838657 -0.07040199858961671 10.514720434287847 #
straight-curve $-1 -77.423017059846799 53.656676693174134 0 0 0 -1 I I #
point $-1 -77.423017059846799 -53.656676693174134 -17.702265624680006 #
straight-curve $-1 -77.423017059846799 0 -17.702265624680006 0 1 0 I I #
point $-1 -77.423017059846799 53.656676693174134 -17.702265624680006 #
coedge $-1 $250 $249 $283 $297 reversed $120 $-1 #
coedge $-1 $255 $251 $282 $297 forward $186 $-1 #
vertex $-1 $252 $298 #
straight-curve $-1 0 53.656676693174134 17.702265624680006 -1 0 0 I I #
point $-1 -62.140732777346173 53.656676693174134 17.702265624680006 #
vertex $-1 $297 $299 #
straight-curve $-1 0 -53.656676693174134 17.702265624680006 1 0 0 I I #
straight-curve $-1 -77.423017059846799 -53.656676693174134 0 0 0 -1 I I #
straight-curve $-1 -77.423017059846799 53.656676693174134 0 0 0 -1 I I #
straight-curve $-1 77.423017059846799 -21.529657273255957 114.1745064139367 0 0 -1 I I #
point $-1 77.423017059846799 -21.529657273255957 17.702265624680006 #
straight-curve $-1 77.423017059846785 -3.2540892904947611 10.196956956281596 0 1 0 I I #
point $-1 77.423017059846799 -21.529657273255957 10.196956956281596 #
point $-1 70.474406248405614 -12.945955163389421 10.761234137477274 #
point $-1 70.474406248405614 -0.07040199858961671 10.761234137477274 #
edge $-1 $284 -53.656676693174134 $287 53.656676693174134 $282 $300 forward 7 unknown #
point $-1 -77.423017059846799 53.656676693174134 17.702265624680006 #
point $-1 -77.423017059846799 -53.656676693174134 17.702265624680006 #
straight-curve $-1 -77.423017059846799 0 17.702265624680006 0 -1 0 I I #
End-of-ACIS-data 