500 0 9 0           
7 Unknown 11 ACIS 5.0 NT 24 Thu Mar 25 16:06:07 1999 
-1 9.9999999999999995e-007 1e-010 
body $-1 $9 $-1 $10 #
body $-1 $11 $-1 $12 #
body $-1 $13 $-1 $14 #
body $-1 $15 $-1 $16 #
body $-1 $17 $-1 $18 #
body $-1 $19 $-1 $20 #
body $-1 $21 $-1 $22 #
body $-1 $23 $-1 $24 #
body $-1 $25 $-1 $26 #
lump $-1 $-1 $27 $0 #
transform $-1 1 0 0 0 1 0 0 0 1 63.686025574510943 40.770951215445905 12.415934833928249 1 rotate no_reflect no_shear #
lump $-1 $-1 $28 $1 #
transform $-1 1 0 0 0 1 0 0 0 1 63.686025574510943 40.770951215445905 12.415934833928249 1 rotate no_reflect no_shear #
lump $-1 $-1 $29 $2 #
transform $-1 1 0 0 0 1 0 0 0 1 63.686025574510943 40.770951215445905 12.415934833928249 1 rotate no_reflect no_shear #
lump $-1 $-1 $30 $3 #
transform $-1 1 0 0 0 1 0 0 0 1 63.686025574510943 40.770951215445905 12.415934833928249 1 rotate no_reflect no_shear #
lump $-1 $-1 $31 $4 #
transform $-1 1 0 0 0 1 0 0 0 1 63.686025574510943 40.770951215445905 12.415934833928249 1 rotate no_reflect no_shear #
lump $-1 $-1 $32 $5 #
transform $-1 1 0 0 0 1 0 0 0 1 63.686025574510943 40.770951215445905 12.415934833928249 1 rotate no_reflect no_shear #
lump $-1 $-1 $33 $6 #
transform $-1 1 0 0 0 1 0 0 0 1 63.686025574510943 40.770951215445905 12.415934833928249 1 rotate no_reflect no_shear #
lump $-1 $-1 $34 $7 #
transform $-1 1 0 0 0 1 0 0 0 1 63.686025574510943 40.770951215445905 12.415934833928249 1 rotate no_reflect no_shear #
lump $-1 $-1 $35 $8 #
transform $-1 1 0 0 0 1 0 0 0 1 63.686025574510943 40.770951215445905 12.415934833928249 1 rotate no_reflect no_shear #
shell $-1 $-1 $-1 $36 $-1 $9 #
shell $-1 $-1 $-1 $37 $-1 $11 #
shell $-1 $-1 $-1 $38 $-1 $13 #
shell $-1 $-1 $-1 $39 $-1 $15 #
shell $-1 $-1 $-1 $40 $-1 $17 #
shell $-1 $-1 $-1 $41 $-1 $19 #
shell $-1 $-1 $-1 $42 $-1 $21 #
shell $-1 $-1 $-1 $43 $-1 $23 #
shell $-1 $-1 $-1 $44 $-1 $25 #
face $-1 $45 $46 $27 $-1 $47 forward single #
face $-1 $48 $49 $28 $-1 $50 forward single #
face $-1 $51 $52 $29 $-1 $53 forward single #
face $-1 $54 $55 $30 $-1 $56 reversed single #
face $-1 $57 $58 $31 $-1 $59 forward single #
face $-1 $60 $61 $32 $-1 $62 forward single #
face $-1 $63 $64 $33 $-1 $65 reversed single #
face $-1 $66 $67 $34 $-1 $68 forward single #
face $-1 $69 $70 $35 $-1 $71 forward single #
face $-1 $72 $73 $27 $-1 $74 reversed single #
loop $-1 $-1 $75 $36 #
plane-surface $-1 0 0 12.415934833928249 0 0 1 1 0 0 forward_v I I I I #
face $-1 $76 $77 $28 $-1 $78 reversed single #
loop $-1 $-1 $79 $37 #
plane-surface $-1 -63.686025574510943 0 0 1 0 0 0 0 -1 forward_v I I I I #
face $-1 $80 $81 $29 $-1 $82 reversed single #
loop $-1 $-1 $83 $38 #
plane-surface $-1 63.686025574510943 0 0 -1 0 0 0 0 1 forward_v I I I I #
face $-1 $84 $85 $30 $-1 $86 reversed single #
loop $-1 $-1 $87 $39 #
plane-surface $-1 -33.363296725041074 -120.9287812487332 106.02470272768878 -1 0 0 0 -0.62932039886446345 0.77714595512881146 forward_v I I I I #
face $-1 $88 $89 $31 $-1 $90 forward single #
loop $-1 $91 $92 $40 #
cone-surface $-1 -43.368989545525409 -36.439687829769419 8.4788923660459545 0 0.62932039886446345 -0.77714595512881146 1 0 0 1 I I 0 1 1 forward I I I I #
face $-1 $93 $94 $32 $-1 $95 forward single #
loop $-1 $96 $97 $41 #
cone-surface $-1 -37.365573853234807 -36.439687829769419 8.4788923660459545 0 0.62932039886446345 -0.77714595512881146 1 0 0 1 I I 0 1 1 forward I I I I #
face $-1 $98 $99 $33 $-1 $100 reversed single #
loop $-1 $-1 $101 $42 #
plane-surface $-1 -47.371266673719141 57.558821601057431 157.34068528966478 1 0 0 0 -0.62932039886446345 -0.77714595512881146 forward_v I I I I #
face $-1 $102 $103 $34 $-1 $104 forward single #
loop $-1 $105 $106 $43 #
cone-surface $-1 -43.368989545525409 36.439687829769419 8.4788923660459474 0 -0.62932039886446345 -0.77714595512881146 1 0 0 1 I I 0 1 1 forward I I I I #
face $-1 $107 $108 $35 $-1 $109 forward single #
loop $-1 $110 $111 $44 #
cone-surface $-1 -37.365573853234807 36.439687829769419 8.4788923660459474 0 -0.62932039886446345 -0.77714595512881146 1 0 0 1 I I 0 1 1 forward I I I I #
face $-1 $112 $113 $27 $-1 $114 reversed single #
loop $-1 $-1 $115 $45 #
plane-surface $-1 0 0 -12.415934833928249 0 0 1 1 0 0 forward_v I I I I #
coedge $-1 $116 $117 $118 $119 forward $46 $-1 #
face $-1 $120 $121 $28 $-1 $122 forward single #
loop $-1 $-1 $123 $48 #
plane-surface $-1 0 40.770951215445905 0 0 -1 0 0 0 -1 forward_v I I I I #
coedge $-1 $124 $125 $126 $127 forward $49 $-1 #
face $-1 $128 $129 $29 $-1 $130 forward single #
loop $-1 $-1 $131 $51 #
plane-surface $-1 0 40.770951215445905 0 0 -1 0 0 0 -1 forward_v I I I I #
coedge $-1 $132 $133 $134 $135 forward $52 $-1 #
face $-1 $136 $137 $30 $-1 $138 reversed single #
loop $-1 $-1 $139 $54 #
plane-surface $-1 -40.367281699380108 -40.770951215445905 7.0380283807663346 0 -0.62932039886446345 0.77714595512881146 1 0 0 forward_v I I I I #
coedge $-1 $140 $141 $142 $143 reversed $55 $-1 #
face $-1 $-1 $144 $31 $-1 $145 forward single #
loop $-1 $146 $147 $57 #
cone-surface $-1 -43.368989545525409 -35.114344869948866 6.8422301471802083 0 0.62932039886446345 -0.77714595512881146 0.5 0 0 1 I I -0.70710678118654746 0.70710678118654746 0.5 forward I I I I #
loop $-1 $-1 $148 $40 #
coedge $-1 $92 $92 $149 $150 reversed $58 $-1 #
face $-1 $-1 $151 $32 $-1 $152 forward single #
loop $-1 $153 $154 $60 #
cone-surface $-1 -37.365573853234807 -35.114344869948866 6.8422301471802083 0 0.62932039886446345 -0.77714595512881146 0.5 0 0 1 I I -0.70710678118654746 0.70710678118654746 0.5 forward I I I I #
loop $-1 $-1 $155 $41 #
coedge $-1 $97 $97 $156 $157 reversed $61 $-1 #
face $-1 $158 $159 $33 $-1 $160 reversed single #
loop $-1 $-1 $161 $63 #
plane-surface $-1 -40.367281699380108 -22.599008432229866 58.354010942742335 0 0.62932039886446345 0.77714595512881146 1 0 0 forward_v I I I I #
coedge $-1 $162 $163 $164 $165 reversed $64 $-1 #
face $-1 $-1 $166 $34 $-1 $167 forward single #
loop $-1 $168 $169 $66 #
cone-surface $-1 -43.368989545525409 35.114344869948866 6.8422301471802012 0 -0.62932039886446345 -0.77714595512881146 0.5 0 0 1 I I -0.70710678118654746 0.70710678118654746 0.5 forward I I I I #
loop $-1 $-1 $170 $43 #
coedge $-1 $106 $106 $171 $172 reversed $67 $-1 #
face $-1 $-1 $173 $35 $-1 $174 forward single #
loop $-1 $175 $176 $69 #
cone-surface $-1 -37.365573853234807 35.114344869948866 6.8422301471802012 0 -0.62932039886446345 -0.77714595512881146 0.5 0 0 1 I I -0.70710678118654746 0.70710678118654746 0.5 forward I I I I #
loop $-1 $-1 $177 $44 #
coedge $-1 $111 $111 $178 $179 reversed $70 $-1 #
face $-1 $180 $181 $27 $-1 $182 reversed single #
loop $-1 $-1 $183 $72 #
plane-surface $-1 0 -40.770951215445905 0 0 1 0 0 0 1 forward_v I I I I #
coedge $-1 $184 $185 $186 $187 forward $73 $-1 #
coedge $-1 $188 $75 $189 $190 forward $46 $-1 #
coedge $-1 $75 $188 $191 $192 forward $46 $-1 #
coedge $-1 $193 $194 $75 $119 reversed $195 $-1 #
edge $-1 $196 -40.770951215445905 $197 40.770951215445905 $118 $198 forward 7 unknown #
face $-1 $199 $200 $28 $-1 $201 reversed single #
loop $-1 $-1 $126 $76 #
plane-surface $-1 -71.843405024906843 0 -8.5778964436923655 0 0 1 1 0 0 forward_v I I I I #
coedge $-1 $202 $203 $125 $204 forward $77 $-1 #
coedge $-1 $205 $79 $206 $207 reversed $49 $-1 #
coedge $-1 $79 $205 $123 $204 reversed $49 $-1 #
coedge $-1 $208 $209 $79 $127 reversed $121 $-1 #
edge $-1 $210 -40.770951215445905 $211 40.770951215445905 $126 $212 forward 7 unknown #
face $-1 $213 $214 $29 $-1 $215 reversed single #
loop $-1 $-1 $216 $80 #
plane-surface $-1 71.843405024906843 0 -8.5778964436923655 0 0 1 1 0 0 forward_v I I I I #
coedge $-1 $217 $218 $132 $219 forward $81 $-1 #
coedge $-1 $220 $83 $131 $219 reversed $52 $-1 #
coedge $-1 $83 $220 $221 $222 reversed $52 $-1 #
coedge $-1 $223 $224 $83 $135 reversed $129 $-1 #
edge $-1 $225 -40.770951215445905 $226 40.770951215445905 $134 $227 forward 7 unknown #
face $-1 $228 $229 $30 $-1 $230 forward single #
loop $-1 $-1 $231 $84 #
plane-surface $-1 -47.371266673719141 -120.9287812487332 106.02470272768878 1 0 0 0 0.62932039886446345 -0.77714595512881146 forward_v I I I I #
coedge $-1 $232 $233 $234 $235 reversed $85 $-1 #
coedge $-1 $141 $87 $236 $237 reversed $55 $-1 #
coedge $-1 $87 $140 $232 $238 reversed $55 $-1 #
coedge $-1 $234 $239 $87 $143 forward $229 $-1 #
edge $-1 $240 19.693439408920696 $241 26.334600659497028 $142 $242 forward 7 unknown #
loop $-1 $-1 $149 $88 #
plane-surface $-1 -40.367281699380108 -40.770951215445905 7.0380283807663346 0 -0.62932039886446345 0.77714595512881146 1 0 0 forward_v I I I I #
loop $-1 $-1 $243 $57 #
coedge $-1 $147 $147 $148 $244 reversed $89 $-1 #
coedge $-1 $148 $148 $147 $244 forward $91 $-1 #
coedge $-1 $149 $149 $92 $150 forward $144 $-1 #
edge $-1 $245 0 $245 6.2831853071796004 $149 $246 forward 7 unknown #
loop $-1 $-1 $156 $93 #
plane-surface $-1 -40.367281699380108 -40.770951215445905 7.0380283807663346 0 -0.62932039886446345 0.77714595512881146 1 0 0 forward_v I I I I #
loop $-1 $-1 $247 $60 #
coedge $-1 $154 $154 $155 $248 reversed $94 $-1 #
coedge $-1 $155 $155 $154 $248 forward $96 $-1 #
coedge $-1 $156 $156 $97 $157 forward $151 $-1 #
edge $-1 $249 0 $249 6.2831853071796004 $156 $250 forward 7 unknown #
face $-1 $251 $252 $33 $-1 $253 reversed single #
loop $-1 $-1 $254 $98 #
plane-surface $-1 -33.363296725041074 57.558821601057431 157.34068528966478 -1 0 0 0 0.62932039886446345 0.77714595512881146 forward_v I I I I #
coedge $-1 $255 $256 $257 $258 reversed $99 $-1 #
coedge $-1 $163 $101 $259 $260 reversed $64 $-1 #
coedge $-1 $101 $162 $255 $261 reversed $64 $-1 #
coedge $-1 $257 $262 $101 $165 forward $263 $-1 #
edge $-1 $264 -11.991540414917189 $265 -5.3503791643408647 $164 $266 forward 7 unknown #
loop $-1 $-1 $171 $102 #
plane-surface $-1 -40.367281699380108 -22.599008432229866 58.354010942742335 0 0.62932039886446345 0.77714595512881146 1 0 0 forward_v I I I I #
loop $-1 $-1 $267 $66 #
coedge $-1 $169 $169 $170 $268 reversed $103 $-1 #
coedge $-1 $170 $170 $169 $268 forward $105 $-1 #
coedge $-1 $171 $171 $106 $172 forward $166 $-1 #
edge $-1 $269 6.7533843063698478e-017 $269 6.2831853071796004 $171 $270 forward 7 unknown #
loop $-1 $-1 $178 $107 #
plane-surface $-1 -40.367281699380108 -22.599008432229866 58.354010942742335 0 0.62932039886446345 0.77714595512881146 1 0 0 forward_v I I I I #
loop $-1 $-1 $271 $69 #
coedge $-1 $176 $176 $177 $272 reversed $108 $-1 #
coedge $-1 $177 $177 $176 $272 forward $110 $-1 #
coedge $-1 $178 $178 $111 $179 forward $173 $-1 #
edge $-1 $273 6.7533843063698478e-017 $273 6.2831853071796004 $178 $274 forward 7 unknown #
face $-1 $275 $276 $27 $-1 $277 reversed single #
loop $-1 $-1 $278 $112 #
plane-surface $-1 -63.686025574510943 0 0 1 0 0 0 0 -1 forward_v I I I I #
coedge $-1 $279 $191 $280 $281 forward $113 $-1 #
coedge $-1 $282 $115 $279 $283 forward $73 $-1 #
coedge $-1 $115 $282 $284 $285 forward $73 $-1 #
coedge $-1 $194 $193 $115 $187 reversed $195 $-1 #
edge $-1 $286 -40.770951215445905 $287 40.770951215445905 $186 $288 forward 7 unknown #
coedge $-1 $117 $116 $289 $290 forward $46 $-1 #
coedge $-1 $291 $292 $116 $190 reversed $276 $-1 #
edge $-1 $197 -63.686025574510943 $293 63.686025574510943 $189 $294 forward 7 unknown #
coedge $-1 $183 $295 $117 $192 reversed $113 $-1 #
edge $-1 $296 -63.686025574510943 $196 63.686025574510943 $191 $297 forward 7 unknown #
coedge $-1 $186 $118 $295 $298 forward $195 $-1 #
coedge $-1 $118 $186 $291 $299 reversed $195 $-1 #
loop $-1 $-1 $193 $275 #
vertex $-1 $119 $300 #
vertex $-1 $119 $301 #
straight-curve $-1 63.686025574510943 0 12.415934833928249 0 1 0 I I #
face $-1 $302 $303 $28 $-1 $304 reversed single #
loop $-1 $-1 $305 $120 #
plane-surface $-1 -80.000784475302737 0 -10.496915638810307 1 0 0 0 0 -1 forward_v I I I I #
coedge $-1 $306 $123 $307 $308 reversed $77 $-1 #
coedge $-1 $123 $306 $208 $309 reversed $77 $-1 #
edge $-1 $210 8.5778964436923655 $310 12.415934833928249 $123 $311 forward 7 unknown #
coedge $-1 $125 $124 $312 $313 reversed $49 $-1 #
coedge $-1 $314 $315 $124 $207 forward $316 $-1 #
edge $-1 $317 -12.415934833928249 $211 -8.5778964436923655 $206 $318 forward 7 unknown #
coedge $-1 $319 $126 $203 $309 forward $121 $-1 #
coedge $-1 $126 $319 $314 $320 forward $121 $-1 #
vertex $-1 $204 $321 #
vertex $-1 $320 $322 #
straight-curve $-1 -63.686025574510943 0 -8.5778964436923655 0 -1 0 I I #
face $-1 $323 $324 $29 $-1 $325 reversed single #
loop $-1 $-1 $326 $128 #
plane-surface $-1 80.000784475302737 0 -10.496915638810307 -1 0 0 0 0 1 forward_v I I I I #
coedge $-1 $224 $223 $327 $328 forward $129 $-1 #
coedge $-1 $329 $131 $224 $330 reversed $81 $-1 #
coedge $-1 $131 $329 $331 $332 reversed $81 $-1 #
edge $-1 $333 -12.415934833928249 $226 -8.5778964436923655 $131 $334 forward 7 unknown #
coedge $-1 $133 $132 $335 $336 reversed $52 $-1 #
coedge $-1 $337 $338 $133 $222 forward $339 $-1 #
edge $-1 $225 8.5778964436923655 $340 12.415934833928249 $221 $341 forward 7 unknown #
coedge $-1 $216 $134 $338 $342 forward $129 $-1 #
coedge $-1 $134 $216 $217 $330 forward $129 $-1 #
vertex $-1 $222 $343 #
vertex $-1 $330 $344 #
straight-curve $-1 63.686025574510943 0 -8.5778964436923655 0 1 0 I I #
face $-1 $-1 $345 $30 $-1 $346 reversed single #
loop $-1 $-1 $142 $136 #
plane-surface $-1 0 0 12.415934833928249 0 0 1 1 0 0 forward_v I I I I #
coedge $-1 $347 $348 $349 $350 reversed $137 $-1 #
coedge $-1 $351 $139 $141 $238 forward $85 $-1 #
coedge $-1 $139 $351 $347 $352 forward $85 $-1 #
coedge $-1 $349 $142 $139 $235 forward $229 $-1 #
edge $-1 $241 13.17965587535102 $353 27.187625824029087 $234 $354 forward 7 unknown #
coedge $-1 $355 $356 $140 $237 forward $345 $-1 #
edge $-1 $357 -45.974322983078054 $240 -40.596416529916141 $236 $358 forward 7 unknown #
edge $-1 $241 -8.5455778374032221 $357 0 $141 $359 forward 7 unknown #
coedge $-1 $142 $349 $355 $360 forward $229 $-1 #
vertex $-1 $237 $361 #
vertex $-1 $143 $362 #
straight-curve $-1 -33.363296725041074 -60.464390624366601 12.415934833928247 0 1 0 I I #
coedge $-1 $243 $243 $-1 $363 reversed $146 $-1 #
edge $-1 $364 0 $364 6.2831853071796004 $147 $365 forward 7 unknown #
vertex $-1 $150 $366 #
ellipse-curve $-1 -43.368989545525409 -37.450370590157739 9.7269816073472946 0 -0.62932039886446345 0.77714595512881146 1 0 0 1 I I #
coedge $-1 $247 $247 $-1 $367 reversed $153 $-1 #
edge $-1 $368 0 $368 6.2831853071796004 $154 $369 forward 7 unknown #
vertex $-1 $157 $370 #
ellipse-curve $-1 -37.365573853234807 -37.450370590157739 9.7269816073472946 0 -0.62932039886446345 0.77714595512881146 1 0 0 1 I I #
face $-1 $-1 $263 $33 $-1 $371 forward single #
loop $-1 $-1 $372 $158 #
plane-surface $-1 0 40.770951215445905 0 0 -1 0 0 0 -1 forward_v I I I I #
coedge $-1 $373 $374 $375 $376 reversed $159 $-1 #
coedge $-1 $377 $161 $163 $261 forward $99 $-1 #
coedge $-1 $161 $377 $373 $378 forward $99 $-1 #
coedge $-1 $375 $164 $161 $258 forward $263 $-1 #
edge $-1 $265 -27.187625824029087 $379 -13.17965587535102 $257 $380 forward 7 unknown #
coedge $-1 $381 $382 $162 $260 forward $252 $-1 #
edge $-1 $383 -71.632314264066054 $264 -66.254407810904141 $259 $384 forward 7 unknown #
edge $-1 $265 72.996324593488595 $383 81.54190243089181 $163 $385 forward 7 unknown #
coedge $-1 $164 $375 $381 $386 forward $263 $-1 #
loop $-1 $-1 $375 $251 #
vertex $-1 $260 $387 #
vertex $-1 $165 $388 #
straight-curve $-1 -47.371266673719141 28.779410800528716 12.415934833928247 0 -1 0 I I #
coedge $-1 $267 $267 $-1 $389 reversed $168 $-1 #
edge $-1 $390 0 $390 6.2831853071796004 $169 $391 forward 7 unknown #
vertex $-1 $172 $392 #
ellipse-curve $-1 -43.368989545525409 37.450370590157746 9.7269816073472963 0 0.62932039886446345 0.77714595512881146 1 0 0 1 I I #
coedge $-1 $271 $271 $-1 $393 reversed $175 $-1 #
edge $-1 $394 0 $394 6.2831853071796004 $176 $395 forward 7 unknown #
vertex $-1 $179 $396 #
ellipse-curve $-1 -37.365573853234807 37.450370590157746 9.7269816073472963 0 0.62932039886446345 0.77714595512881146 1 0 0 1 I I #
face $-1 $-1 $195 $27 $-1 $397 reversed single #
loop $-1 $-1 $291 $180 #
plane-surface $-1 0 40.770951215445905 0 0 -1 0 0 0 -1 forward_v I I I I #
coedge $-1 $398 $289 $292 $399 forward $181 $-1 #
coedge $-1 $295 $183 $184 $283 reversed $113 $-1 #
coedge $-1 $289 $398 $183 $281 reversed $181 $-1 #
edge $-1 $296 -12.415934833928249 $400 12.415934833928249 $280 $401 forward 7 unknown #
coedge $-1 $185 $184 $398 $402 forward $73 $-1 #
edge $-1 $287 -63.686025574510943 $400 63.686025574510943 $279 $403 forward 7 unknown #
coedge $-1 $292 $291 $185 $285 reversed $276 $-1 #
edge $-1 $404 -63.686025574510943 $286 63.686025574510943 $284 $405 forward 7 unknown #
vertex $-1 $187 $406 #
vertex $-1 $298 $407 #
straight-curve $-1 63.686025574510943 0 -12.415934833928249 0 -1 0 I I #
coedge $-1 $278 $280 $188 $290 reversed $181 $-1 #
edge $-1 $293 -40.770951215445905 $296 40.770951215445905 $289 $408 forward 7 unknown #
coedge $-1 $284 $189 $194 $299 forward $276 $-1 #
coedge $-1 $189 $284 $278 $399 reversed $276 $-1 #
vertex $-1 $190 $409 #
straight-curve $-1 0 40.770951215445905 12.415934833928249 -1 0 0 I I #
coedge $-1 $191 $279 $193 $298 reversed $113 $-1 #
vertex $-1 $290 $410 #
straight-curve $-1 0 -40.770951215445905 12.415934833928249 1 0 0 I I #
edge $-1 $196 -12.415934833928249 $287 12.415934833928249 $193 $411 forward 7 unknown #
edge $-1 $197 -12.415934833928249 $286 12.415934833928249 $194 $412 forward 7 unknown #
point $-1 63.686025574510943 -40.770951215445905 12.415934833928249 #
point $-1 63.686025574510943 40.770951215445905 12.415934833928249 #
face $-1 $-1 $316 $28 $-1 $413 reversed single #
loop $-1 $-1 $312 $199 #
plane-surface $-1 0 0 -12.415934833928249 0 0 1 1 0 0 forward_v I I I I #
coedge $-1 $414 $415 $306 $416 forward $200 $-1 #
coedge $-1 $203 $202 $305 $416 reversed $77 $-1 #
coedge $-1 $312 $417 $202 $308 forward $303 $-1 #
edge $-1 $418 -80.000784475302737 $310 -63.686025574510943 $202 $419 forward 7 unknown #
edge $-1 $210 -8.1573794503959007 $420 8.1573794503958936 $203 $421 forward 7 unknown #
vertex $-1 $204 $422 #
straight-curve $-1 -63.686025574510943 40.770951215445905 0 0 0 -1 I I #
coedge $-1 $423 $307 $205 $313 forward $303 $-1 #
edge $-1 $310 -40.770951215445905 $317 40.770951215445905 $312 $424 forward 7 unknown #
coedge $-1 $425 $206 $209 $320 reversed $316 $-1 #
coedge $-1 $206 $425 $423 $426 reversed $316 $-1 #
loop $-1 $-1 $206 $302 #
vertex $-1 $426 $427 #
straight-curve $-1 -63.686025574510943 -40.770951215445905 0 0 0 1 I I #
coedge $-1 $209 $208 $415 $428 forward $121 $-1 #
edge $-1 $429 -8.1573794503958936 $211 8.1573794503959007 $314 $430 forward 7 unknown #
point $-1 -63.686025574510943 40.770951215445905 -8.5778964436923655 #
point $-1 -63.686025574510943 -40.770951215445905 -8.5778964436923655 #
face $-1 $-1 $339 $29 $-1 $431 reversed single #
loop $-1 $-1 $335 $213 #
plane-surface $-1 0 0 -12.415934833928249 0 0 1 1 0 0 forward_v I I I I #
coedge $-1 $432 $327 $433 $434 forward $214 $-1 #
coedge $-1 $326 $435 $216 $328 reversed $214 $-1 #
edge $-1 $436 -40.770951215445905 $437 40.770951215445905 $327 $438 forward 7 unknown #
coedge $-1 $218 $217 $435 $439 forward $81 $-1 #
edge $-1 $437 -8.1573794503958936 $226 8.1573794503959007 $217 $440 forward 7 unknown #
coedge $-1 $441 $335 $218 $332 forward $324 $-1 #
edge $-1 $333 -8.1573794503959007 $442 8.1573794503958936 $218 $443 forward 7 unknown #
vertex $-1 $332 $444 #
straight-curve $-1 63.686025574510943 40.770951215445905 0 0 0 1 I I #
coedge $-1 $331 $445 $220 $336 forward $324 $-1 #
edge $-1 $340 -40.770951215445905 $333 40.770951215445905 $335 $446 forward 7 unknown #
coedge $-1 $433 $221 $445 $447 reversed $339 $-1 #
coedge $-1 $221 $433 $223 $342 reversed $339 $-1 #
loop $-1 $-1 $221 $323 #
vertex $-1 $222 $448 #
straight-curve $-1 63.686025574510943 -40.770951215445905 0 0 0 -1 I I #
edge $-1 $225 -8.1573794503959007 $436 8.1573794503958936 $338 $449 forward 7 unknown #
point $-1 63.686025574510943 -40.770951215445905 -8.5778964436923655 #
point $-1 63.686025574510943 40.770951215445905 -8.5778964436923655 #
loop $-1 $-1 $236 $228 #
plane-surface $-1 0 -40.770951215445905 0 0 1 0 0 0 1 forward_v I I I I #
coedge $-1 $348 $231 $233 $352 reversed $137 $-1 #
coedge $-1 $231 $347 $450 $451 reversed $137 $-1 #
coedge $-1 $239 $234 $231 $350 forward $229 $-1 #
edge $-1 $353 -26.334600659497028 $452 -19.693439408920696 $349 $453 forward 7 unknown #
coedge $-1 $233 $232 $356 $454 reversed $85 $-1 #
edge $-1 $455 0 $353 8.5455778374032221 $347 $456 forward 7 unknown #
vertex $-1 $235 $457 #
straight-curve $-1 -20.183640849690054 -34.12978996486958 12.415934833928249 -1 0 0 I I #
coedge $-1 $450 $236 $239 $360 reversed $345 $-1 #
coedge $-1 $236 $450 $351 $454 forward $345 $-1 #
vertex $-1 $237 $458 #
straight-curve $-1 -33.363296725041074 -40.770951215445905 53.012351363844388 0 0 1 I I #
straight-curve $-1 -33.363296725041074 -40.770951215445905 7.0380283807663346 0 -0.77714595512881146 -0.62932039886446345 I I #
edge $-1 $452 -47.371266673719141 $240 -33.363296725041074 $355 $459 forward 7 unknown #
point $-1 -33.363296725041074 -40.770951215445905 12.415934833928249 #
point $-1 -33.363296725041074 -34.129789964869573 12.415934833928249 #
edge $-1 $460 1 $460 0 $243 $-1 forward 7 unknown #
vertex $-1 $244 $461 #
ellipse-curve $-1 -43.368989545525409 -35.429005069381098 7.2308031247446136 0 -0.62932039886446345 0.77714595512881146 1 0 0 1 I I #
point $-1 -42.368989545525409 -37.450370590157739 9.7269816073472946 #
edge $-1 $462 1 $462 0 $247 $-1 forward 7 unknown #
vertex $-1 $248 $463 #
ellipse-curve $-1 -37.365573853234807 -35.429005069381098 7.2308031247446136 0 -0.62932039886446345 0.77714595512881146 1 0 0 1 I I #
point $-1 -36.365573853234807 -37.450370590157739 9.7269816073472946 #
plane-surface $-1 0 0 12.415934833928249 0 0 1 1 0 0 forward_v I I I I #
coedge $-1 $382 $381 $374 $464 forward $252 $-1 #
coedge $-1 $374 $254 $256 $378 reversed $159 $-1 #
coedge $-1 $254 $373 $372 $464 reversed $159 $-1 #
coedge $-1 $262 $257 $254 $376 forward $263 $-1 #
edge $-1 $379 5.3503791643408647 $465 11.991540414917189 $375 $466 forward 7 unknown #
coedge $-1 $256 $255 $382 $467 reversed $99 $-1 #
edge $-1 $468 -81.54190243089181 $379 -72.996324593488595 $373 $469 forward 7 unknown #
vertex $-1 $258 $470 #
straight-curve $-1 -20.183640849690054 34.129789964869587 12.415934833928244 1 0 0 I I #
coedge $-1 $372 $259 $262 $386 reversed $252 $-1 #
coedge $-1 $259 $372 $377 $467 forward $252 $-1 #
vertex $-1 $260 $471 #
straight-curve $-1 -47.371266673719141 40.770951215445905 78.670342644832388 0 0 1 I I #
straight-curve $-1 -47.371266673719141 -22.599008432229866 58.354010942742335 0 0.77714595512881146 -0.62932039886446345 I I #
edge $-1 $465 33.363296725041074 $264 47.371266673719141 $381 $472 forward 7 unknown #
point $-1 -47.371266673719141 40.770951215445905 12.415934833928249 #
point $-1 -47.371266673719141 34.12978996486958 12.415934833928247 #
edge $-1 $473 1 $473 0 $267 $-1 forward 7 unknown #
vertex $-1 $268 $474 #
ellipse-curve $-1 -43.368989545525409 35.429005069381098 7.2308031247446065 0 0.62932039886446345 0.77714595512881146 1 0 0 1 I I #
point $-1 -42.368989545525409 37.450370590157739 9.7269816073472875 #
edge $-1 $475 1 $475 0 $271 $-1 forward 7 unknown #
vertex $-1 $272 $476 #
ellipse-curve $-1 -37.365573853234807 35.429005069381098 7.2308031247446065 0 0.62932039886446345 0.77714595512881146 1 0 0 1 I I #
point $-1 -36.365573853234807 37.450370590157739 9.7269816073472875 #
plane-surface $-1 63.686025574510943 0 0 -1 0 0 0 0 1 forward_v I I I I #
coedge $-1 $280 $278 $282 $402 reversed $181 $-1 #
edge $-1 $293 -12.415934833928249 $404 12.415934833928249 $292 $477 forward 7 unknown #
vertex $-1 $402 $478 #
straight-curve $-1 -63.686025574510943 -40.770951215445905 0 0 0 -1 I I #
edge $-1 $400 -40.770951215445905 $404 40.770951215445905 $398 $479 forward 7 unknown #
straight-curve $-1 0 -40.770951215445905 -12.415934833928249 -1 0 0 I I #
vertex $-1 $285 $480 #
straight-curve $-1 0 40.770951215445905 -12.415934833928249 1 0 0 I I #
point $-1 63.686025574510943 40.770951215445905 -12.415934833928249 #
point $-1 63.686025574510943 -40.770951215445905 -12.415934833928249 #
straight-curve $-1 -63.686025574510943 0 12.415934833928249 0 -1 0 I I #
point $-1 -63.686025574510943 40.770951215445905 12.415934833928249 #
point $-1 -63.686025574510943 -40.770951215445905 12.415934833928249 #
straight-curve $-1 63.686025574510943 -40.770951215445905 0 0 0 -1 I I #
straight-curve $-1 63.686025574510943 40.770951215445905 0 0 0 -1 I I #
plane-surface $-1 0 -40.770951215445905 0 0 1 0 0 0 1 forward_v I I I I #
coedge $-1 $481 $305 $417 $482 reversed $200 $-1 #
coedge $-1 $305 $481 $319 $428 reversed $200 $-1 #
edge $-1 $420 -1.9190191951179418 $418 1.9190191951179418 $306 $483 forward 7 unknown #
coedge $-1 $307 $423 $414 $482 forward $303 $-1 #
vertex $-1 $308 $484 #
straight-curve $-1 0 40.770951215445905 -12.415934833928249 1 0 0 I I #
vertex $-1 $309 $485 #
straight-curve $-1 -71.843405024906843 40.770951215445905 -8.5778964436923655 -1 0 0 I I #
point $-1 -63.686025574510943 40.770951215445905 -12.415934833928249 #
coedge $-1 $417 $312 $315 $426 forward $303 $-1 #
straight-curve $-1 -63.686025574510943 0 -12.415934833928249 0 -1 0 I I #
coedge $-1 $315 $314 $481 $486 forward $316 $-1 #
edge $-1 $317 -8.1573794503959007 $487 8.1573794503958936 $315 $488 forward 7 unknown #
point $-1 -63.686025574510943 -40.770951215445905 -12.415934833928249 #
edge $-1 $420 -40.770951215445905 $429 40.770951215445905 $415 $489 forward 7 unknown #
vertex $-1 $428 $490 #
straight-curve $-1 -71.843405024906843 -40.770951215445905 -8.5778964436923655 1 0 0 I I #
plane-surface $-1 0 -40.770951215445905 0 0 1 0 0 0 1 forward_v I I I I #
coedge $-1 $435 $326 $441 $491 reversed $214 $-1 #
coedge $-1 $338 $337 $326 $434 reversed $339 $-1 #
edge $-1 $436 -1.9190191951179418 $492 1.9190191951179418 $326 $493 forward 7 unknown #
coedge $-1 $327 $432 $329 $439 reversed $214 $-1 #
vertex $-1 $328 $494 #
vertex $-1 $328 $495 #
straight-curve $-1 80.000784475302737 0 -8.5778964436923655 0 1 0 I I #
edge $-1 $437 -1.9190191951179418 $442 1.9190191951179418 $435 $496 forward 7 unknown #
straight-curve $-1 71.843405024906843 40.770951215445905 -8.5778964436923655 -1 0 0 I I #
coedge $-1 $445 $331 $432 $491 forward $324 $-1 #
vertex $-1 $491 $497 #
straight-curve $-1 71.843405024906843 40.770951215445905 -12.415934833928249 1 0 0 I I #
point $-1 63.686025574510943 40.770951215445905 -12.415934833928249 #
coedge $-1 $335 $441 $337 $447 forward $324 $-1 #
straight-curve $-1 63.686025574510943 0 -12.415934833928249 0 1 0 I I #
edge $-1 $492 -8.1573794503958936 $340 8.1573794503959007 $337 $498 forward 7 unknown #
point $-1 63.686025574510943 -40.770951215445905 -12.415934833928249 #
straight-curve $-1 71.843405024906843 -40.770951215445905 -8.5778964436923655 1 0 0 I I #
coedge $-1 $356 $355 $348 $451 forward $345 $-1 #
edge $-1 $452 40.596416529916141 $455 45.974322983078054 $450 $499 forward 7 unknown #
vertex $-1 $360 $500 #
straight-curve $-1 -47.371266673719141 -60.464390624366601 12.415934833928247 0 -1 0 I I #
edge $-1 $455 -27.187625824029087 $357 -13.17965587535102 $356 $501 forward 7 unknown #
vertex $-1 $454 $502 #
straight-curve $-1 -47.371266673719141 -40.770951215445905 7.0380283807663346 0 0.77714595512881146 0.62932039886446345 I I #
point $-1 -47.371266673719141 -34.129789964869573 12.415934833928249 #
point $-1 -33.363296725041074 -40.770951215445905 7.0380283807663346 #
straight-curve $-1 0 -40.770951215445905 12.415934833928249 1 0 0 I I #
vertex $-1 $363 $503 #
point $-1 -42.368989545525409 -35.429005069381098 7.2308031247446136 #
vertex $-1 $367 $504 #
point $-1 -36.365573853234807 -35.429005069381098 7.2308031247446136 #
edge $-1 $465 66.254407810904141 $468 71.632314264066054 $372 $505 forward 7 unknown #
vertex $-1 $386 $506 #
straight-curve $-1 -33.363296725041074 28.779410800528716 12.415934833928247 0 1 0 I I #
edge $-1 $468 13.17965587535102 $383 27.187625824029087 $382 $507 forward 7 unknown #
vertex $-1 $467 $508 #
straight-curve $-1 -33.363296725041074 -22.599008432229866 58.354010942742335 0 -0.77714595512881146 0.62932039886446345 I I #
point $-1 -33.363296725041074 34.12978996486958 12.415934833928247 #
point $-1 -47.371266673719141 40.770951215445905 7.0380283807663417 #
straight-curve $-1 0 40.770951215445905 12.415934833928249 -1 0 0 I I #
vertex $-1 $389 $509 #
point $-1 -42.368989545525409 35.429005069381098 7.2308031247446065 #
vertex $-1 $393 $510 #
point $-1 -36.365573853234807 35.429005069381098 7.2308031247446065 #
straight-curve $-1 -63.686025574510943 40.770951215445905 0 0 0 -1 I I #
point $-1 -63.686025574510943 -40.770951215445905 -12.415934833928249 #
straight-curve $-1 -63.686025574510943 0 -12.415934833928249 0 1 0 I I #
point $-1 -63.686025574510943 40.770951215445905 -12.415934833928249 #
coedge $-1 $415 $414 $425 $486 reversed $200 $-1 #
edge $-1 $487 -40.770951215445905 $418 40.770951215445905 $414 $511 forward 7 unknown #
straight-curve $-1 -80.000784475302737 40.770951215445905 -10.496915638810307 0 0 -1 I I #
point $-1 -80.000784475302737 40.770951215445905 -12.415934833928249 #
point $-1 -80.000784475302737 40.770951215445905 -8.5778964436923655 #
edge $-1 $429 -1.9190191951179418 $487 1.9190191951179418 $481 $512 forward 7 unknown #
vertex $-1 $482 $513 #
straight-curve $-1 -71.843405024906843 -40.770951215445905 -12.415934833928249 -1 0 0 I I #
straight-curve $-1 -80.000784475302737 0 -8.5778964436923655 0 -1 0 I I #
point $-1 -80.000784475302737 -40.770951215445905 -8.5778964436923655 #
edge $-1 $442 -40.770951215445905 $492 40.770951215445905 $432 $514 forward 7 unknown #
vertex $-1 $434 $515 #
straight-curve $-1 80.000784475302737 -40.770951215445905 -10.496915638810307 0 0 -1 I I #
point $-1 80.000784475302737 -40.770951215445905 -8.5778964436923655 #
point $-1 80.000784475302737 40.770951215445905 -8.5778964436923655 #
straight-curve $-1 80.000784475302737 40.770951215445905 -10.496915638810307 0 0 -1 I I #
point $-1 80.000784475302737 40.770951215445905 -12.415934833928249 #
straight-curve $-1 71.843405024906843 -40.770951215445905 -12.415934833928249 -1 0 0 I I #
straight-curve $-1 -47.371266673719141 -40.770951215445905 53.012351363844388 0 0 -1 I I #
point $-1 -47.371266673719141 -40.770951215445905 12.415934833928249 #
straight-curve $-1 -20.183640849690054 -40.770951215445905 7.0380283807663329 1 0 0 I I #
point $-1 -47.371266673719141 -40.770951215445905 7.0380283807663346 #
point $-1 -43.368989545525409 -34.799684670516633 6.4536571696158029 #
point $-1 -37.365573853234807 -34.799684670516633 6.4536571696158029 #
straight-curve $-1 -33.363296725041074 40.770951215445905 78.670342644832388 0 0 -1 I I #
point $-1 -33.363296725041074 40.770951215445905 12.415934833928249 #
straight-curve $-1 -20.183640849690054 40.770951215445905 7.0380283807663417 -1 0 0 I I #
point $-1 -33.363296725041074 40.770951215445905 7.0380283807663417 #
point $-1 -43.368989545525409 34.799684670516633 6.4536571696157958 #
point $-1 -37.365573853234807 34.799684670516633 6.4536571696157958 #
straight-curve $-1 -80.000784475302737 0 -12.415934833928249 0 1 0 I I #
straight-curve $-1 -80.000784475302737 -40.770951215445905 -10.496915638810307 0 0 -1 I I #
point $-1 -80.000784475302737 -40.770951215445905 -12.415934833928249 #
straight-curve $-1 80.000784475302737 0 -12.415934833928249 0 -1 0 I I #
point $-1 80.000784475302737 -40.770951215445905 -12.415934833928249 #
End-of-ACIS-data 