500 0 10 0           
7 Unknown 11 ACIS 5.0 NT 24 Fri Mar 26 00:27:57 1999 
-1 9.9999999999999995e-007 1e-010 
body $-1 $10 $-1 $11 #
body $-1 $12 $-1 $13 #
body $-1 $14 $-1 $15 #
body $-1 $16 $-1 $17 #
body $-1 $18 $-1 $19 #
body $-1 $20 $-1 $21 #
body $-1 $22 $-1 $23 #
body $-1 $24 $-1 $25 #
body $-1 $26 $-1 $27 #
body $-1 $28 $-1 $29 #
lump $-1 $-1 $30 $0 #
transform $-1 1 0 0 0 1 0 0 0 1 78.826868495742673 45.391785970603664 19.182105787375985 1 rotate no_reflect no_shear #
lump $-1 $-1 $31 $1 #
transform $-1 1 0 0 0 1 0 0 0 1 78.826868495742673 45.391785970603664 19.182105787375985 1 rotate no_reflect no_shear #
lump $-1 $-1 $32 $2 #
transform $-1 1 0 0 0 1 0 0 0 1 78.826868495742673 45.391785970603664 19.182105787375985 1 rotate no_reflect no_shear #
lump $-1 $-1 $33 $3 #
transform $-1 1 0 0 0 1 0 0 0 1 78.826868495742673 45.391785970603664 19.182105787375985 1 rotate no_reflect no_shear #
lump $-1 $-1 $34 $4 #
transform $-1 1 0 0 0 1 0 0 0 1 78.826868495742673 45.391785970603664 19.182105787375985 1 rotate no_reflect no_shear #
lump $-1 $-1 $35 $5 #
transform $-1 1 0 0 0 1 0 0 0 1 78.826868495742673 45.391785970603664 19.182105787375985 1 rotate no_reflect no_shear #
lump $-1 $-1 $36 $6 #
transform $-1 1 0 0 0 1 0 0 0 1 78.826868495742673 45.391785970603664 19.182105787375985 1 rotate no_reflect no_shear #
lump $-1 $-1 $37 $7 #
transform $-1 1 0 0 0 1 0 0 0 1 78.826868495742673 45.391785970603664 19.182105787375985 1 rotate no_reflect no_shear #
lump $-1 $-1 $38 $8 #
transform $-1 1 0 0 0 1 0 0 0 1 78.826868495742673 45.391785970603664 19.182105787375985 1 rotate no_reflect no_shear #
lump $-1 $-1 $39 $9 #
transform $-1 1 0 0 0 1 0 0 0 1 78.826868495742673 45.391785970603664 19.182105787375985 1 rotate no_reflect no_shear #
shell $-1 $-1 $-1 $40 $-1 $10 #
shell $-1 $-1 $-1 $41 $-1 $12 #
shell $-1 $-1 $-1 $42 $-1 $14 #
shell $-1 $-1 $-1 $43 $-1 $16 #
shell $-1 $-1 $-1 $44 $-1 $18 #
shell $-1 $-1 $-1 $45 $-1 $20 #
shell $-1 $-1 $-1 $46 $-1 $22 #
shell $-1 $-1 $-1 $47 $-1 $24 #
shell $-1 $-1 $-1 $48 $-1 $26 #
shell $-1 $-1 $-1 $49 $-1 $28 #
face $-1 $50 $51 $30 $-1 $52 forward single #
face $-1 $53 $54 $31 $-1 $55 forward single #
face $-1 $56 $57 $32 $-1 $58 reversed single #
face $-1 $59 $60 $33 $-1 $61 forward single #
face $-1 $62 $63 $34 $-1 $64 reversed single #
face $-1 $65 $66 $35 $-1 $67 forward single #
face $-1 $68 $69 $36 $-1 $70 reversed single #
face $-1 $71 $72 $37 $-1 $73 forward single #
face $-1 $74 $75 $38 $-1 $76 reversed single #
face $-1 $77 $78 $39 $-1 $79 forward single #
face $-1 $80 $81 $30 $-1 $82 reversed single #
loop $-1 $-1 $83 $40 #
plane-surface $-1 0 0 19.182105787375985 0 0 1 1 0 0 forward_v I I I I #
face $-1 $84 $85 $31 $-1 $86 reversed single #
loop $-1 $-1 $87 $41 #
plane-surface $-1 -66.237770778702739 0 -11.217994230839706 0 0 1 1 0 0 forward_v I I I I #
face $-1 $88 $89 $32 $-1 $90 reversed single #
loop $-1 $-1 $91 $42 #
plane-surface $-1 -53.648673061662819 122.46285158061995 170.54244914274705 1 0 0 0 -0.81915205242281985 -0.57357642473473569 forward_v I I I I #
face $-1 $92 $93 $33 $-1 $94 forward single #
loop $-1 $95 $96 $43 #
cone-surface $-1 -45.708004117775332 39.421817369431757 11.578763748622137 0 -0.81915205242281985 -0.57357642473473569 2 0 0 1 I I 0 1 2 forward I I I I #
face $-1 $97 $98 $34 $-1 $99 reversed single #
loop $-1 $-1 $100 $44 #
plane-surface $-1 12.589097717039921 122.46285158061995 170.54244914274705 1 0 0 0 -0.81915205242281985 -0.57357642473473569 forward_v I I I I #
face $-1 $101 $102 $35 $-1 $103 forward single #
loop $-1 $104 $105 $45 #
cone-surface $-1 20.529766660927407 39.421817369431757 11.578763748622137 0 -0.81915205242281985 -0.57357642473473569 2 0 0 1 I I 0 1 2 forward I I I I #
face $-1 $106 $107 $36 $-1 $108 reversed single #
loop $-1 $-1 $109 $46 #
plane-surface $-1 -37.767335173887844 -174.53416819930635 96.176899860832336 -1 0 0 0 -0.81915205242281985 0.57357642473473569 forward_v I I I I #
face $-1 $110 $111 $37 $-1 $112 forward single #
loop $-1 $113 $114 $47 #
cone-surface $-1 -45.708004117775332 -39.421817369431757 11.578763748622137 0 0.81915205242281985 -0.57357642473473569 2 0 0 1 I I 0 1 2 forward I I I I #
face $-1 $115 $116 $38 $-1 $117 reversed single #
loop $-1 $-1 $118 $48 #
plane-surface $-1 28.470435604814895 -174.53416819930635 96.176899860832336 -1 0 0 0 -0.81915205242281985 0.57357642473473569 forward_v I I I I #
face $-1 $119 $120 $39 $-1 $121 forward single #
loop $-1 $122 $123 $49 #
cone-surface $-1 20.529766660927407 -39.421817369431757 11.578763748622137 0 0.81915205242281985 -0.57357642473473569 2 0 0 1 I I 0 1 2 forward I I I I #
face $-1 $124 $125 $30 $-1 $126 reversed single #
loop $-1 $-1 $127 $50 #
plane-surface $-1 0 0 -19.182105787375985 0 0 1 1 0 0 forward_v I I I I #
coedge $-1 $128 $129 $130 $131 forward $51 $-1 #
face $-1 $132 $133 $31 $-1 $134 reversed single #
loop $-1 $-1 $135 $53 #
plane-surface $-1 -66.237770778702739 0 -16.883936461550398 0 0 1 1 0 0 forward_v I I I I #
coedge $-1 $136 $137 $138 $139 forward $54 $-1 #
face $-1 $140 $141 $32 $-1 $142 reversed single #
loop $-1 $-1 $143 $56 #
plane-surface $-1 -45.708004117775332 -6.6795306480826895 80.115982333100533 0 0.81915205242281985 0.57357642473473569 1 0 0 forward_v I I I I #
coedge $-1 $144 $145 $146 $147 reversed $57 $-1 #
face $-1 $-1 $148 $33 $-1 $149 forward single #
loop $-1 $150 $151 $59 #
cone-surface $-1 -45.708004117775332 37.335175824229935 10.117681653228633 0 -0.81915205242281985 -0.57357642473473569 1 0 0 1 I I -0.70710678118654746 0.70710678118654746 1 forward I I I I #
loop $-1 $-1 $152 $43 #
coedge $-1 $96 $96 $153 $154 reversed $60 $-1 #
face $-1 $155 $156 $34 $-1 $157 reversed single #
loop $-1 $-1 $158 $62 #
plane-surface $-1 20.529766660927407 -6.6795306480826895 80.115982333100533 0 0.81915205242281985 0.57357642473473569 1 0 0 forward_v I I I I #
coedge $-1 $159 $160 $161 $162 reversed $63 $-1 #
face $-1 $-1 $163 $35 $-1 $164 forward single #
loop $-1 $165 $166 $65 #
cone-surface $-1 20.529766660927407 37.335175824229935 10.117681653228633 0 -0.81915205242281985 -0.57357642473473569 1 0 0 1 I I -0.70710678118654746 0.70710678118654746 1 forward I I I I #
loop $-1 $-1 $167 $45 #
coedge $-1 $105 $105 $168 $169 reversed $66 $-1 #
face $-1 $170 $171 $36 $-1 $172 reversed single #
loop $-1 $-1 $173 $68 #
plane-surface $-1 -45.708004117775332 -45.391785970603706 5.7504330511858228 0 -0.81915205242281985 0.57357642473473569 1 0 0 forward_v I I I I #
coedge $-1 $174 $175 $176 $177 reversed $69 $-1 #
face $-1 $-1 $178 $37 $-1 $179 forward single #
loop $-1 $180 $181 $71 #
cone-surface $-1 -45.708004117775332 -37.335175824229935 10.117681653228633 0 0.81915205242281985 -0.57357642473473569 1 0 0 1 I I -0.70710678118654746 0.70710678118654746 1 forward I I I I #
loop $-1 $-1 $182 $47 #
coedge $-1 $114 $114 $183 $184 reversed $72 $-1 #
face $-1 $185 $186 $38 $-1 $187 reversed single #
loop $-1 $-1 $188 $74 #
plane-surface $-1 20.529766660927407 -45.391785970603706 5.7504330511858228 0 -0.81915205242281985 0.57357642473473569 1 0 0 forward_v I I I I #
coedge $-1 $189 $190 $191 $192 reversed $75 $-1 #
face $-1 $-1 $193 $39 $-1 $194 forward single #
loop $-1 $195 $196 $77 #
cone-surface $-1 20.529766660927407 -37.335175824229935 10.117681653228633 0 0.81915205242281985 -0.57357642473473569 1 0 0 1 I I -0.70710678118654746 0.70710678118654746 1 forward I I I I #
loop $-1 $-1 $197 $49 #
coedge $-1 $123 $123 $198 $199 reversed $78 $-1 #
face $-1 $200 $201 $30 $-1 $202 reversed single #
loop $-1 $-1 $203 $80 #
plane-surface $-1 0 -45.391785970603664 0 0 1 0 0 0 1 forward_v I I I I #
coedge $-1 $204 $205 $206 $207 forward $81 $-1 #
coedge $-1 $208 $83 $209 $210 forward $51 $-1 #
coedge $-1 $83 $208 $211 $212 forward $51 $-1 #
coedge $-1 $213 $214 $83 $131 reversed $215 $-1 #
edge $-1 $216 -45.391785970603664 $217 45.391785970603664 $130 $218 forward 7 unknown #
face $-1 $219 $220 $31 $-1 $221 reversed single #
loop $-1 $-1 $222 $84 #
plane-surface $-1 -53.648673061662812 0 -14.050965346195051 -1 0 0 0 0 1 forward_v I I I I #
coedge $-1 $223 $224 $225 $226 forward $85 $-1 #
coedge $-1 $227 $87 $228 $229 reversed $54 $-1 #
coedge $-1 $87 $227 $230 $231 reversed $54 $-1 #
coedge $-1 $222 $232 $87 $139 reversed $133 $-1 #
edge $-1 $233 -45.391785970603664 $234 45.391785970603664 $138 $235 forward 7 unknown #
face $-1 $236 $237 $32 $-1 $238 forward single #
loop $-1 $-1 $239 $88 #
plane-surface $-1 -37.767335173887844 122.46285158061995 170.54244914274705 -1 0 0 0 0.81915205242281985 0.57357642473473569 forward_v I I I I #
coedge $-1 $240 $241 $242 $243 reversed $89 $-1 #
coedge $-1 $145 $91 $244 $245 reversed $57 $-1 #
coedge $-1 $91 $144 $240 $246 reversed $57 $-1 #
coedge $-1 $242 $247 $91 $147 forward $237 $-1 #
edge $-1 $248 15.839639819706314 $249 25.244598036492128 $146 $250 forward 7 unknown #
loop $-1 $-1 $153 $92 #
plane-surface $-1 -45.708004117775332 -6.6795306480826895 80.115982333100533 0 0.81915205242281985 0.57357642473473569 1 0 0 forward_v I I I I #
loop $-1 $-1 $251 $59 #
coedge $-1 $151 $151 $152 $252 reversed $93 $-1 #
coedge $-1 $152 $152 $151 $252 forward $95 $-1 #
coedge $-1 $153 $153 $96 $154 forward $148 $-1 #
edge $-1 $253 -1.165292918325106e-015 $253 6.2831853071795996 $153 $254 forward 7 unknown #
face $-1 $255 $256 $34 $-1 $257 forward single #
loop $-1 $-1 $258 $97 #
plane-surface $-1 28.470435604814895 122.46285158061995 170.54244914274705 -1 0 0 0 0.81915205242281985 0.57357642473473569 forward_v I I I I #
coedge $-1 $259 $260 $261 $262 reversed $98 $-1 #
coedge $-1 $160 $100 $263 $264 reversed $63 $-1 #
coedge $-1 $100 $159 $259 $265 reversed $63 $-1 #
coedge $-1 $261 $266 $100 $162 forward $256 $-1 #
edge $-1 $267 15.839639819706314 $268 25.244598036492128 $161 $269 forward 7 unknown #
loop $-1 $-1 $168 $101 #
plane-surface $-1 20.529766660927407 -6.6795306480826895 80.115982333100533 0 0.81915205242281985 0.57357642473473569 1 0 0 forward_v I I I I #
loop $-1 $-1 $270 $65 #
coedge $-1 $166 $166 $167 $271 reversed $102 $-1 #
coedge $-1 $167 $167 $166 $271 forward $104 $-1 #
coedge $-1 $168 $168 $105 $169 forward $163 $-1 #
edge $-1 $272 -1.165292918325106e-015 $272 6.2831853071795996 $168 $273 forward 7 unknown #
face $-1 $274 $275 $36 $-1 $276 reversed single #
loop $-1 $-1 $277 $106 #
plane-surface $-1 -53.648673061662819 -174.53416819930635 96.176899860832336 1 0 0 0 0.81915205242281985 -0.57357642473473569 forward_v I I I I #
coedge $-1 $278 $279 $280 $281 reversed $107 $-1 #
coedge $-1 $175 $109 $282 $283 reversed $69 $-1 #
coedge $-1 $109 $174 $278 $284 reversed $69 $-1 #
coedge $-1 $280 $285 $109 $177 forward $286 $-1 #
edge $-1 $287 41.875298129049511 $288 51.280256345835298 $176 $289 forward 7 unknown #
loop $-1 $-1 $183 $110 #
plane-surface $-1 -45.708004117775332 -45.391785970603706 5.7504330511858228 0 -0.81915205242281985 0.57357642473473569 1 0 0 forward_v I I I I #
loop $-1 $-1 $290 $71 #
coedge $-1 $181 $181 $182 $291 reversed $111 $-1 #
coedge $-1 $182 $182 $181 $291 forward $113 $-1 #
coedge $-1 $183 $183 $114 $184 forward $178 $-1 #
edge $-1 $292 1.6030326612351975e-015 $292 6.2831853071796022 $183 $293 forward 7 unknown #
face $-1 $294 $295 $38 $-1 $296 reversed single #
loop $-1 $-1 $297 $115 #
plane-surface $-1 12.589097717039921 -174.53416819930635 96.176899860832336 1 0 0 0 0.81915205242281985 -0.57357642473473569 forward_v I I I I #
coedge $-1 $298 $299 $300 $301 reversed $116 $-1 #
coedge $-1 $190 $118 $302 $303 reversed $75 $-1 #
coedge $-1 $118 $189 $298 $304 reversed $75 $-1 #
coedge $-1 $300 $305 $118 $192 forward $306 $-1 #
edge $-1 $307 41.875298129049511 $308 51.280256345835298 $191 $309 forward 7 unknown #
loop $-1 $-1 $198 $119 #
plane-surface $-1 20.529766660927407 -45.391785970603706 5.7504330511858228 0 -0.81915205242281985 0.57357642473473569 1 0 0 forward_v I I I I #
loop $-1 $-1 $310 $77 #
coedge $-1 $196 $196 $197 $311 reversed $120 $-1 #
coedge $-1 $197 $197 $196 $311 forward $122 $-1 #
coedge $-1 $198 $198 $123 $199 forward $193 $-1 #
edge $-1 $312 1.6030326612351975e-015 $312 6.2831853071796022 $198 $313 forward 7 unknown #
face $-1 $314 $315 $30 $-1 $316 reversed single #
loop $-1 $-1 $317 $124 #
plane-surface $-1 -78.826868495742673 0 0 1 0 0 0 0 -1 forward_v I I I I #
coedge $-1 $318 $211 $319 $320 forward $125 $-1 #
coedge $-1 $321 $127 $318 $322 forward $81 $-1 #
coedge $-1 $127 $321 $323 $324 forward $81 $-1 #
coedge $-1 $214 $213 $127 $207 reversed $215 $-1 #
edge $-1 $325 -45.391785970603664 $326 45.391785970603664 $206 $327 forward 7 unknown #
coedge $-1 $129 $128 $328 $329 forward $51 $-1 #
coedge $-1 $330 $331 $128 $210 reversed $315 $-1 #
edge $-1 $217 -78.826868495742673 $332 78.826868495742673 $209 $333 forward 7 unknown #
coedge $-1 $203 $334 $129 $212 reversed $125 $-1 #
edge $-1 $335 -78.826868495742673 $216 78.826868495742673 $211 $336 forward 7 unknown #
coedge $-1 $206 $130 $334 $337 forward $215 $-1 #
coedge $-1 $130 $206 $330 $338 reversed $215 $-1 #
loop $-1 $-1 $213 $314 #
vertex $-1 $131 $339 #
vertex $-1 $131 $340 #
straight-curve $-1 78.826868495742673 0 19.182105787375985 0 1 0 I I #
face $-1 $341 $342 $31 $-1 $343 reversed single #
loop $-1 $-1 $344 $132 #
plane-surface $-1 0 -45.391785970603664 0 0 1 0 0 0 1 forward_v I I I I #
coedge $-1 $225 $138 $345 $346 reversed $133 $-1 #
coedge $-1 $347 $135 $344 $348 reversed $85 $-1 #
coedge $-1 $135 $347 $349 $350 reversed $85 $-1 #
coedge $-1 $232 $222 $135 $226 reversed $133 $-1 #
edge $-1 $351 -45.391785970603664 $352 45.391785970603664 $225 $353 forward 7 unknown #
coedge $-1 $137 $136 $354 $355 reversed $54 $-1 #
coedge $-1 $356 $357 $136 $229 forward $358 $-1 #
edge $-1 $359 -45.707983106391303 $234 -20.529787672311443 $228 $360 forward 7 unknown #
coedge $-1 $361 $345 $137 $231 forward $220 $-1 #
edge $-1 $233 20.529787672311443 $362 45.707983106391303 $230 $363 forward 7 unknown #
coedge $-1 $138 $225 $356 $364 reversed $133 $-1 #
vertex $-1 $231 $365 #
vertex $-1 $229 $366 #
straight-curve $-1 -53.648673061662812 0 -11.217994230839706 0 1 0 I I #
face $-1 $-1 $367 $32 $-1 $368 reversed single #
loop $-1 $-1 $146 $140 #
plane-surface $-1 0 0 19.182105787375985 0 0 1 1 0 0 forward_v I I I I #
coedge $-1 $369 $370 $371 $372 reversed $141 $-1 #
coedge $-1 $373 $143 $145 $246 forward $89 $-1 #
coedge $-1 $143 $373 $369 $374 forward $89 $-1 #
coedge $-1 $371 $146 $143 $243 forward $237 $-1 #
edge $-1 $249 -30.794671002775154 $375 -14.913333115000178 $242 $376 forward 7 unknown #
coedge $-1 $377 $378 $144 $245 forward $367 $-1 #
edge $-1 $379 -79.520791520187672 $248 -66.089118783997534 $244 $380 forward 7 unknown #
edge $-1 $249 74.386527343121941 $379 90.783571941207313 $145 $381 forward 7 unknown #
coedge $-1 $146 $371 $377 $382 forward $237 $-1 #
vertex $-1 $245 $383 #
vertex $-1 $147 $384 #
straight-curve $-1 -53.648673061662819 61.231425790309977 19.182105787375988 0 -1 0 I I #
coedge $-1 $251 $251 $-1 $385 reversed $150 $-1 #
edge $-1 $386 0 $386 6.2831853071796004 $151 $387 forward 7 unknown #
vertex $-1 $154 $388 #
ellipse-curve $-1 -45.708004117775332 40.689306862210763 12.466269419280913 0 0.81915205242281985 0.57357642473473569 2 0 0 1 I I #
face $-1 $-1 $389 $34 $-1 $390 reversed single #
loop $-1 $-1 $161 $155 #
plane-surface $-1 0 0 19.182105787375985 0 0 1 1 0 0 forward_v I I I I #
coedge $-1 $391 $392 $393 $394 reversed $156 $-1 #
coedge $-1 $395 $158 $160 $265 forward $98 $-1 #
coedge $-1 $158 $395 $391 $396 forward $98 $-1 #
coedge $-1 $393 $161 $158 $262 forward $256 $-1 #
edge $-1 $268 2.3242143865762177 $397 18.205552274351191 $261 $398 forward 7 unknown #
coedge $-1 $399 $400 $159 $264 forward $389 $-1 #
edge $-1 $401 -79.520791520187672 $267 -66.089118783997534 $263 $402 forward 7 unknown #
edge $-1 $268 74.386527343121941 $401 90.783571941207313 $160 $403 forward 7 unknown #
coedge $-1 $161 $393 $399 $404 forward $256 $-1 #
vertex $-1 $162 $405 #
vertex $-1 $162 $406 #
straight-curve $-1 12.589097717039921 61.231425790309977 19.182105787375988 0 -1 0 I I #
coedge $-1 $270 $270 $-1 $407 reversed $165 $-1 #
edge $-1 $408 0 $408 6.2831853071796004 $166 $409 forward 7 unknown #
vertex $-1 $169 $410 #
ellipse-curve $-1 20.529766660927407 40.689306862210763 12.466269419280913 0 0.81915205242281985 0.57357642473473569 2 0 0 1 I I #
face $-1 $-1 $286 $36 $-1 $411 forward single #
loop $-1 $-1 $412 $170 #
plane-surface $-1 0 -45.391785970603664 0 0 1 0 0 0 1 forward_v I I I I #
coedge $-1 $413 $414 $415 $416 reversed $171 $-1 #
coedge $-1 $417 $173 $175 $284 forward $107 $-1 #
coedge $-1 $173 $417 $413 $418 forward $107 $-1 #
coedge $-1 $415 $176 $173 $281 forward $286 $-1 #
edge $-1 $288 14.913333115000178 $419 30.794671002775154 $280 $420 forward 7 unknown #
coedge $-1 $421 $422 $174 $283 forward $275 $-1 #
edge $-1 $423 -42.338016879230281 $287 -28.906344143040183 $282 $424 forward 7 unknown #
edge $-1 $288 -16.397044598085394 $423 -7.4654202823546958e-014 $175 $425 forward 7 unknown #
coedge $-1 $176 $415 $421 $426 forward $286 $-1 #
loop $-1 $-1 $415 $274 #
vertex $-1 $283 $427 #
vertex $-1 $177 $428 #
straight-curve $-1 -37.767335173887844 -87.267084099653175 19.182105787375988 0 1 0 I I #
coedge $-1 $290 $290 $-1 $429 reversed $180 $-1 #
edge $-1 $430 0 $430 6.2831853071796004 $181 $431 forward 7 unknown #
vertex $-1 $184 $432 #
ellipse-curve $-1 -45.708004117775332 -40.689306862210778 12.466269419280922 0 -0.81915205242281985 0.57357642473473569 2 0 0 1 I I #
face $-1 $-1 $306 $38 $-1 $433 forward single #
loop $-1 $-1 $434 $185 #
plane-surface $-1 0 -45.391785970603664 0 0 1 0 0 0 1 forward_v I I I I #
coedge $-1 $435 $436 $437 $438 reversed $186 $-1 #
coedge $-1 $439 $188 $190 $304 forward $116 $-1 #
coedge $-1 $188 $439 $435 $440 forward $116 $-1 #
coedge $-1 $437 $191 $188 $301 forward $306 $-1 #
edge $-1 $308 -18.205552274351191 $441 -2.3242143865762177 $300 $442 forward 7 unknown #
coedge $-1 $443 $444 $189 $303 forward $295 $-1 #
edge $-1 $445 -42.338016879230281 $307 -28.906344143040183 $302 $446 forward 7 unknown #
edge $-1 $308 -16.397044598085394 $445 -7.4654202823546958e-014 $190 $447 forward 7 unknown #
coedge $-1 $191 $437 $443 $448 forward $306 $-1 #
loop $-1 $-1 $437 $294 #
vertex $-1 $303 $449 #
vertex $-1 $192 $450 #
straight-curve $-1 28.470435604814895 -87.267084099653175 19.182105787375988 0 1 0 I I #
coedge $-1 $310 $310 $-1 $451 reversed $195 $-1 #
edge $-1 $452 0 $452 6.2831853071796004 $196 $453 forward 7 unknown #
vertex $-1 $199 $454 #
ellipse-curve $-1 20.529766660927407 -40.689306862210778 12.466269419280922 0 -0.81915205242281985 0.57357642473473569 2 0 0 1 I I #
face $-1 $-1 $215 $30 $-1 $455 reversed single #
loop $-1 $-1 $330 $200 #
plane-surface $-1 0 45.391785970603664 0 0 -1 0 0 0 -1 forward_v I I I I #
coedge $-1 $456 $328 $331 $457 forward $201 $-1 #
coedge $-1 $334 $203 $204 $322 reversed $125 $-1 #
coedge $-1 $328 $456 $203 $320 reversed $201 $-1 #
edge $-1 $335 -19.182105787375985 $458 19.182105787375985 $319 $459 forward 7 unknown #
coedge $-1 $205 $204 $456 $460 forward $81 $-1 #
edge $-1 $326 -78.826868495742673 $458 78.826868495742673 $318 $461 forward 7 unknown #
coedge $-1 $331 $330 $205 $324 reversed $315 $-1 #
edge $-1 $462 -78.826868495742673 $325 78.826868495742673 $323 $463 forward 7 unknown #
vertex $-1 $207 $464 #
vertex $-1 $337 $465 #
straight-curve $-1 78.826868495742673 0 -19.182105787375985 0 -1 0 I I #
coedge $-1 $317 $319 $208 $329 reversed $201 $-1 #
edge $-1 $332 -45.391785970603664 $335 45.391785970603664 $328 $466 forward 7 unknown #
coedge $-1 $323 $209 $214 $338 forward $315 $-1 #
coedge $-1 $209 $323 $317 $457 reversed $315 $-1 #
vertex $-1 $210 $467 #
straight-curve $-1 0 45.391785970603664 19.182105787375985 -1 0 0 I I #
coedge $-1 $211 $318 $213 $337 reversed $125 $-1 #
vertex $-1 $329 $468 #
straight-curve $-1 0 -45.391785970603664 19.182105787375985 1 0 0 I I #
edge $-1 $216 -19.182105787375985 $326 19.182105787375985 $213 $469 forward 7 unknown #
edge $-1 $217 -19.182105787375985 $325 19.182105787375985 $214 $470 forward 7 unknown #
point $-1 78.826868495742673 -45.391785970603664 19.182105787375985 #
point $-1 78.826868495742673 45.391785970603664 19.182105787375985 #
face $-1 $-1 $358 $31 $-1 $471 reversed single #
loop $-1 $-1 $472 $219 #
plane-surface $-1 -78.826868495742673 0 0 1 0 0 0 0 -1 forward_v I I I I #
coedge $-1 $345 $361 $223 $348 forward $220 $-1 #
coedge $-1 $230 $344 $222 $346 forward $220 $-1 #
edge $-1 $352 -9.8584537884528736 $233 -4.1925115577421801 $345 $473 forward 7 unknown #
coedge $-1 $224 $223 $472 $474 reversed $85 $-1 #
edge $-1 $475 -45.707983106391303 $352 -20.529787672311443 $344 $476 forward 7 unknown #
coedge $-1 $357 $356 $224 $350 forward $358 $-1 #
edge $-1 $351 20.529787672311443 $477 45.707983106391303 $349 $478 forward 7 unknown #
vertex $-1 $350 $479 #
vertex $-1 $348 $480 #
straight-curve $-1 -53.648673061662812 0 -16.883936461550398 0 -1 0 I I #
coedge $-1 $481 $482 $227 $355 forward $342 $-1 #
edge $-1 $362 -45.391785970603664 $359 45.391785970603664 $354 $483 forward 7 unknown #
coedge $-1 $349 $228 $232 $364 forward $358 $-1 #
coedge $-1 $228 $349 $481 $484 reversed $358 $-1 #
loop $-1 $-1 $349 $341 #
vertex $-1 $484 $485 #
straight-curve $-1 -33.118885389351369 45.391785970603664 -11.217994230839706 1 0 0 I I #
coedge $-1 $344 $230 $482 $486 forward $220 $-1 #
vertex $-1 $486 $487 #
straight-curve $-1 -33.118885389351369 -45.391785970603664 -11.217994230839706 -1 0 0 I I #
edge $-1 $234 4.1925115577421801 $351 9.8584537884528736 $356 $488 forward 7 unknown #
point $-1 -53.648673061662812 -45.391785970603664 -11.217994230839706 #
point $-1 -53.648673061662812 45.391785970603664 -11.217994230839706 #
loop $-1 $-1 $244 $236 #
plane-surface $-1 0 45.391785970603664 0 0 -1 0 0 0 -1 forward_v I I I I #
coedge $-1 $370 $239 $241 $374 reversed $141 $-1 #
coedge $-1 $239 $369 $489 $490 reversed $141 $-1 #
coedge $-1 $247 $242 $239 $372 forward $237 $-1 #
edge $-1 $375 -25.244598036492128 $491 -15.839639819706314 $371 $492 forward 7 unknown #
coedge $-1 $241 $240 $378 $493 reversed $89 $-1 #
edge $-1 $494 -90.783571941207313 $375 -74.386527343121941 $369 $495 forward 7 unknown #
vertex $-1 $243 $496 #
straight-curve $-1 -22.854002058887666 35.986827753817849 19.182105787375988 1 0 0 I I #
coedge $-1 $489 $244 $247 $382 reversed $367 $-1 #
coedge $-1 $244 $489 $373 $493 forward $367 $-1 #
vertex $-1 $245 $497 #
straight-curve $-1 -53.648673061662819 45.391785970603664 85.271224571373523 0 0 1 I I #
straight-curve $-1 -53.648673061662819 -6.6795306480826895 80.115982333100533 0 0.57357642473473569 -0.81915205242281985 I I #
edge $-1 $491 37.767335173887844 $248 53.648673061662819 $377 $498 forward 7 unknown #
point $-1 -53.648673061662819 45.391785970603664 19.182105787375985 #
point $-1 -53.648673061662819 35.986827753817849 19.182105787375988 #
edge $-1 $499 1 $499 0 $251 $-1 forward 7 unknown #
vertex $-1 $252 $500 #
ellipse-curve $-1 -45.708004117775332 38.154327876652758 10.691258077963369 0 0.81915205242281985 0.57357642473473569 2 0 0 1 I I #
point $-1 -43.708004117775332 40.689306862210749 12.466269419280906 #
loop $-1 $-1 $263 $255 #
plane-surface $-1 0 45.391785970603664 0 0 -1 0 0 0 -1 forward_v I I I I #
coedge $-1 $392 $258 $260 $396 reversed $156 $-1 #
coedge $-1 $258 $391 $501 $502 reversed $156 $-1 #
coedge $-1 $266 $261 $258 $394 forward $256 $-1 #
edge $-1 $397 -25.244598036492128 $503 -15.839639819706314 $393 $504 forward 7 unknown #
coedge $-1 $260 $259 $400 $505 reversed $98 $-1 #
edge $-1 $506 -90.783571941207313 $397 -74.386527343121941 $391 $507 forward 7 unknown #
vertex $-1 $262 $508 #
straight-curve $-1 10.264883330463704 35.986827753817849 19.182105787375988 1 0 0 I I #
coedge $-1 $501 $263 $266 $404 reversed $389 $-1 #
coedge $-1 $263 $501 $395 $505 forward $389 $-1 #
vertex $-1 $264 $509 #
straight-curve $-1 12.589097717039921 45.391785970603664 85.271224571373523 0 0 1 I I #
straight-curve $-1 12.589097717039921 -6.6795306480826895 80.115982333100533 0 0.57357642473473569 -0.81915205242281985 I I #
edge $-1 $503 -28.470435604814895 $267 -12.589097717039921 $399 $510 forward 7 unknown #
point $-1 12.589097717039921 45.391785970603664 19.182105787375985 #
point $-1 12.589097717039921 35.986827753817849 19.182105787375988 #
edge $-1 $511 1 $511 0 $270 $-1 forward 7 unknown #
vertex $-1 $271 $512 #
ellipse-curve $-1 20.529766660927407 38.154327876652758 10.691258077963369 0 0.81915205242281985 0.57357642473473569 2 0 0 1 I I #
point $-1 22.529766660927407 40.689306862210749 12.466269419280906 #
plane-surface $-1 0 0 19.182105787375985 0 0 1 1 0 0 forward_v I I I I #
coedge $-1 $422 $421 $414 $513 forward $275 $-1 #
coedge $-1 $414 $277 $279 $418 reversed $171 $-1 #
coedge $-1 $277 $413 $412 $513 reversed $171 $-1 #
coedge $-1 $285 $280 $277 $416 forward $286 $-1 #
edge $-1 $419 -51.280256345835298 $514 -41.875298129049511 $415 $515 forward 7 unknown #
coedge $-1 $279 $278 $422 $516 reversed $107 $-1 #
edge $-1 $517 7.4654202823546958e-014 $419 16.397044598085394 $413 $518 forward 7 unknown #
vertex $-1 $281 $519 #
straight-curve $-1 -22.854002058887666 -35.98682775381787 19.182105787375985 -1 0 0 I I #
coedge $-1 $412 $282 $285 $426 reversed $275 $-1 #
coedge $-1 $282 $412 $417 $516 forward $275 $-1 #
vertex $-1 $283 $520 #
straight-curve $-1 -37.767335173887844 -45.391785970603664 48.088449930416168 0 0 1 I I #
straight-curve $-1 -37.767335173887844 -45.391785970603706 5.7504330511858228 0 -0.57357642473473569 -0.81915205242281985 I I #
edge $-1 $514 -53.648673061662819 $287 -37.767335173887844 $421 $521 forward 7 unknown #
point $-1 -37.767335173887844 -45.391785970603664 19.182105787375985 #
point $-1 -37.767335173887844 -35.986827753817877 19.182105787375985 #
edge $-1 $522 1 $522 0 $290 $-1 forward 7 unknown #
vertex $-1 $291 $523 #
ellipse-curve $-1 -45.708004117775332 -38.154327876652758 10.691258077963369 0 -0.81915205242281985 0.57357642473473569 2 0 0 1 I I #
point $-1 -43.708004117775332 -40.689306862210749 12.466269419280906 #
plane-surface $-1 0 0 19.182105787375985 0 0 1 1 0 0 forward_v I I I I #
coedge $-1 $444 $443 $436 $524 forward $295 $-1 #
coedge $-1 $436 $297 $299 $440 reversed $186 $-1 #
coedge $-1 $297 $435 $434 $524 reversed $186 $-1 #
coedge $-1 $305 $300 $297 $438 forward $306 $-1 #
edge $-1 $441 -51.280256345835298 $525 -41.875298129049511 $437 $526 forward 7 unknown #
coedge $-1 $299 $298 $444 $527 reversed $116 $-1 #
edge $-1 $528 7.4654202823546958e-014 $441 16.397044598085394 $435 $529 forward 7 unknown #
vertex $-1 $301 $530 #
straight-curve $-1 10.264883330463704 -35.98682775381787 19.182105787375985 -1 0 0 I I #
coedge $-1 $434 $302 $305 $448 reversed $295 $-1 #
coedge $-1 $302 $434 $439 $527 forward $295 $-1 #
vertex $-1 $303 $531 #
straight-curve $-1 28.470435604814895 -45.391785970603664 48.088449930416168 0 0 1 I I #
straight-curve $-1 28.470435604814895 -45.391785970603706 5.7504330511858228 0 -0.57357642473473569 -0.81915205242281985 I I #
edge $-1 $525 12.589097717039921 $307 28.470435604814895 $443 $532 forward 7 unknown #
point $-1 28.470435604814895 -45.391785970603664 19.182105787375985 #
point $-1 28.470435604814895 -35.986827753817877 19.182105787375985 #
edge $-1 $533 1 $533 0 $310 $-1 forward 7 unknown #
vertex $-1 $311 $534 #
ellipse-curve $-1 20.529766660927407 -38.154327876652758 10.691258077963369 0 -0.81915205242281985 0.57357642473473569 2 0 0 1 I I #
point $-1 22.529766660927407 -40.689306862210749 12.466269419280906 #
plane-surface $-1 78.826868495742673 0 0 -1 0 0 0 0 1 forward_v I I I I #
coedge $-1 $319 $317 $321 $460 reversed $201 $-1 #
edge $-1 $332 -19.182105787375985 $462 19.182105787375985 $331 $535 forward 7 unknown #
vertex $-1 $460 $536 #
straight-curve $-1 -78.826868495742673 -45.391785970603664 0 0 0 -1 I I #
edge $-1 $458 -45.391785970603664 $462 45.391785970603664 $456 $537 forward 7 unknown #
straight-curve $-1 0 -45.391785970603664 -19.182105787375985 -1 0 0 I I #
vertex $-1 $324 $538 #
straight-curve $-1 0 45.391785970603664 -19.182105787375985 1 0 0 I I #
point $-1 78.826868495742673 45.391785970603664 -19.182105787375985 #
point $-1 78.826868495742673 -45.391785970603664 -19.182105787375985 #
straight-curve $-1 -78.826868495742673 0 19.182105787375985 0 -1 0 I I #
point $-1 -78.826868495742673 45.391785970603664 19.182105787375985 #
point $-1 -78.826868495742673 -45.391785970603664 19.182105787375985 #
straight-curve $-1 78.826868495742673 -45.391785970603664 0 0 0 -1 I I #
straight-curve $-1 78.826868495742673 45.391785970603664 0 0 0 -1 I I #
plane-surface $-1 0 45.391785970603664 0 0 -1 0 0 0 -1 forward_v I I I I #
coedge $-1 $482 $481 $347 $474 forward $342 $-1 #
straight-curve $-1 -53.648673061662812 -45.391785970603664 -7.0254826730975255 0 0 1 I I #
edge $-1 $477 -45.391785970603664 $475 45.391785970603664 $472 $539 forward 7 unknown #
vertex $-1 $348 $540 #
straight-curve $-1 -33.118885389351369 -45.391785970603664 -16.883936461550398 1 0 0 I I #
vertex $-1 $350 $541 #
straight-curve $-1 -33.118885389351369 45.391785970603664 -16.883936461550398 -1 0 0 I I #
point $-1 -53.648673061662812 45.391785970603664 -16.883936461550398 #
point $-1 -53.648673061662812 -45.391785970603664 -16.883936461550398 #
coedge $-1 $472 $354 $357 $484 forward $342 $-1 #
coedge $-1 $354 $472 $361 $486 reversed $342 $-1 #
straight-curve $-1 -78.826868495742673 0 -11.217994230839706 0 1 0 I I #
edge $-1 $359 11.217994230839706 $477 16.883936461550398 $357 $542 forward 7 unknown #
point $-1 -78.826868495742673 45.391785970603664 -11.217994230839706 #
edge $-1 $362 11.217994230839706 $475 16.883936461550398 $482 $543 forward 7 unknown #
point $-1 -78.826868495742673 -45.391785970603664 -11.217994230839706 #
straight-curve $-1 -53.648673061662812 45.391785970603664 -7.0254826730975255 0 0 -1 I I #
coedge $-1 $378 $377 $370 $490 forward $367 $-1 #
edge $-1 $491 66.089118783997534 $494 79.520791520187672 $489 $544 forward 7 unknown #
vertex $-1 $382 $545 #
straight-curve $-1 -37.767335173887844 61.231425790309977 19.182105787375988 0 1 0 I I #
edge $-1 $494 14.913333115000178 $379 30.794671002775154 $378 $546 forward 7 unknown #
vertex $-1 $493 $547 #
straight-curve $-1 -37.767335173887844 -6.6795306480826895 80.115982333100533 0 -0.57357642473473569 0.81915205242281985 I I #
point $-1 -37.767335173887844 35.986827753817849 19.182105787375988 #
point $-1 -53.648673061662819 45.391785970603664 5.7504330511858512 #
straight-curve $-1 0 45.391785970603664 19.182105787375985 -1 0 0 I I #
vertex $-1 $385 $548 #
point $-1 -43.708004117775332 38.154327876652758 10.691258077963369 #
coedge $-1 $400 $399 $392 $502 forward $389 $-1 #
edge $-1 $503 66.089118783997534 $506 79.520791520187672 $501 $549 forward 7 unknown #
vertex $-1 $404 $550 #
straight-curve $-1 28.470435604814895 61.231425790309977 19.182105787375988 0 1 0 I I #
edge $-1 $506 -18.205552274351191 $401 -2.3242143865762177 $400 $551 forward 7 unknown #
vertex $-1 $505 $552 #
straight-curve $-1 28.470435604814895 -6.6795306480826895 80.115982333100533 0 -0.57357642473473569 0.81915205242281985 I I #
point $-1 28.470435604814895 35.986827753817849 19.182105787375988 #
point $-1 12.589097717039921 45.391785970603664 5.7504330511858512 #
straight-curve $-1 0 45.391785970603664 19.182105787375985 -1 0 0 I I #
vertex $-1 $407 $553 #
point $-1 22.529766660927407 38.154327876652758 10.691258077963369 #
edge $-1 $514 28.906344143040183 $517 42.338016879230281 $412 $554 forward 7 unknown #
vertex $-1 $426 $555 #
straight-curve $-1 -53.648673061662819 -87.267084099653175 19.182105787375988 0 -1 0 I I #
edge $-1 $517 -30.794671002775154 $423 -14.913333115000178 $422 $556 forward 7 unknown #
vertex $-1 $516 $557 #
straight-curve $-1 -53.648673061662819 -45.391785970603706 5.7504330511858228 0 0.57357642473473569 0.81915205242281985 I I #
point $-1 -53.648673061662819 -35.986827753817877 19.182105787375985 #
point $-1 -37.767335173887844 -45.391785970603664 5.7504330511858841 #
straight-curve $-1 0 -45.391785970603664 19.182105787375985 1 0 0 I I #
vertex $-1 $429 $558 #
point $-1 -43.708004117775332 -38.154327876652758 10.691258077963369 #
edge $-1 $525 28.906344143040183 $528 42.338016879230281 $434 $559 forward 7 unknown #
vertex $-1 $448 $560 #
straight-curve $-1 12.589097717039921 -87.267084099653175 19.182105787375988 0 -1 0 I I #
edge $-1 $528 2.3242143865762177 $445 18.205552274351191 $444 $561 forward 7 unknown #
vertex $-1 $527 $562 #
straight-curve $-1 12.589097717039921 -45.391785970603706 5.7504330511858228 0 0.57357642473473569 0.81915205242281985 I I #
point $-1 12.589097717039921 -35.986827753817877 19.182105787375985 #
point $-1 28.470435604814895 -45.391785970603664 5.7504330511858841 #
straight-curve $-1 0 -45.391785970603664 19.182105787375985 1 0 0 I I #
vertex $-1 $451 $563 #
point $-1 22.529766660927407 -38.154327876652758 10.691258077963369 #
straight-curve $-1 -78.826868495742673 45.391785970603664 0 0 0 -1 I I #
point $-1 -78.826868495742673 -45.391785970603664 -19.182105787375985 #
straight-curve $-1 -78.826868495742673 0 -19.182105787375985 0 1 0 I I #
point $-1 -78.826868495742673 45.391785970603664 -19.182105787375985 #
straight-curve $-1 -78.826868495742673 0 -16.883936461550398 0 -1 0 I I #
point $-1 -78.826868495742673 -45.391785970603664 -16.883936461550398 #
point $-1 -78.826868495742673 45.391785970603664 -16.883936461550398 #
straight-curve $-1 -78.826868495742673 45.391785970603664 0 0 0 -1 I I #
straight-curve $-1 -78.826868495742673 -45.391785970603664 0 0 0 -1 I I #
straight-curve $-1 -37.767335173887844 45.391785970603664 85.271224571373523 0 0 -1 I I #
point $-1 -37.767335173887844 45.391785970603664 19.182105787375985 #
straight-curve $-1 -22.854002058887666 45.391785970603664 5.7504330511858441 -1 0 0 I I #
point $-1 -37.767335173887844 45.391785970603664 5.7504330511858512 #
point $-1 -45.708004117775332 36.516023771807113 9.5441052284938976 #
straight-curve $-1 28.470435604814895 45.391785970603664 85.271224571373523 0 0 -1 I I #
point $-1 28.470435604814895 45.391785970603664 19.182105787375985 #
straight-curve $-1 10.264883330463704 45.391785970603664 5.7504330511858441 -1 0 0 I I #
point $-1 28.470435604814895 45.391785970603664 5.7504330511858512 #
point $-1 20.529766660927407 36.516023771807113 9.5441052284938976 #
straight-curve $-1 -53.648673061662819 -45.391785970603664 48.088449930416168 0 0 -1 I I #
point $-1 -53.648673061662819 -45.391785970603664 19.182105787375985 #
straight-curve $-1 -22.854002058887666 -45.391785970603664 5.7504330511858832 1 0 0 I I #
point $-1 -53.648673061662819 -45.391785970603664 5.7504330511858841 #
point $-1 -45.708004117775332 -36.516023771807113 9.5441052284938976 #
straight-curve $-1 12.589097717039921 -45.391785970603664 48.088449930416168 0 0 -1 I I #
point $-1 12.589097717039921 -45.391785970603664 19.182105787375985 #
straight-curve $-1 10.264883330463704 -45.391785970603664 5.7504330511858832 1 0 0 I I #
point $-1 12.589097717039921 -45.391785970603664 5.7504330511858841 #
point $-1 20.529766660927407 -36.516023771807113 9.5441052284938976 #
End-of-ACIS-data 