500 0 10 0           
7 Unknown 11 ACIS 5.0 NT 24 Fri Mar 26 15:00:51 1999 
-1 9.9999999999999995e-007 1e-010 
body $-1 $10 $-1 $11 #
body $-1 $12 $-1 $13 #
body $-1 $14 $-1 $15 #
body $-1 $16 $-1 $17 #
body $-1 $18 $-1 $19 #
body $-1 $20 $-1 $21 #
body $-1 $22 $-1 $23 #
body $-1 $24 $-1 $25 #
body $-1 $26 $-1 $27 #
body $-1 $28 $-1 $29 #
lump $-1 $-1 $30 $0 #
transform $-1 1 0 0 0 1 0 0 0 1 46.384472182378616 30.371658301564672 7.3064568283255671 1 rotate no_reflect no_shear #
lump $-1 $-1 $31 $1 #
transform $-1 1 0 0 0 1 0 0 0 1 46.384472182378616 30.371658301564672 7.3064568283255671 1 rotate no_reflect no_shear #
lump $-1 $-1 $32 $2 #
transform $-1 1 0 0 0 1 0 0 0 1 46.384472182378616 30.371658301564672 7.3064568283255671 1 rotate no_reflect no_shear #
lump $-1 $-1 $33 $3 #
transform $-1 1 0 0 0 1 0 0 0 1 46.384472182378616 30.371658301564672 7.3064568283255671 1 rotate no_reflect no_shear #
lump $-1 $-1 $34 $4 #
transform $-1 1 0 0 0 1 0 0 0 1 46.384472182378616 30.371658301564672 7.3064568283255671 1 rotate no_reflect no_shear #
lump $-1 $-1 $35 $5 #
transform $-1 1 0 0 0 1 0 0 0 1 46.384472182378616 30.371658301564672 7.3064568283255671 1 rotate no_reflect no_shear #
lump $-1 $-1 $36 $6 #
transform $-1 1 0 0 0 1 0 0 0 1 46.384472182378616 30.371658301564672 7.3064568283255671 1 rotate no_reflect no_shear #
lump $-1 $-1 $37 $7 #
transform $-1 1 0 0 0 1 0 0 0 1 46.384472182378616 30.371658301564672 7.3064568283255671 1 rotate no_reflect no_shear #
lump $-1 $-1 $38 $8 #
transform $-1 1 0 0 0 1 0 0 0 1 46.384472182378616 30.371658301564672 7.3064568283255671 1 rotate no_reflect no_shear #
lump $-1 $-1 $39 $9 #
transform $-1 1 0 0 0 1 0 0 0 1 46.384472182378616 30.371658301564672 7.3064568283255671 1 rotate no_reflect no_shear #
shell $-1 $-1 $-1 $40 $-1 $10 #
shell $-1 $-1 $-1 $41 $-1 $12 #
shell $-1 $-1 $-1 $42 $-1 $14 #
shell $-1 $-1 $-1 $43 $-1 $16 #
shell $-1 $-1 $-1 $44 $-1 $18 #
shell $-1 $-1 $-1 $45 $-1 $20 #
shell $-1 $-1 $-1 $46 $-1 $22 #
shell $-1 $-1 $-1 $47 $-1 $24 #
shell $-1 $-1 $-1 $48 $-1 $26 #
shell $-1 $-1 $-1 $49 $-1 $28 #
face $-1 $50 $51 $30 $-1 $52 forward single #
face $-1 $53 $54 $31 $-1 $55 forward single #
face $-1 $56 $57 $32 $-1 $58 forward single #
face $-1 $59 $60 $33 $-1 $61 reversed single #
face $-1 $62 $63 $34 $-1 $64 forward single #
face $-1 $65 $66 $35 $-1 $67 forward single #
face $-1 $68 $69 $36 $-1 $70 forward single #
face $-1 $71 $72 $37 $-1 $73 reversed single #
face $-1 $74 $75 $38 $-1 $76 forward single #
face $-1 $77 $78 $39 $-1 $79 forward single #
face $-1 $80 $81 $30 $-1 $82 reversed single #
loop $-1 $-1 $83 $40 #
plane-surface $-1 0 0 7.3064568283255671 0 0 1 1 0 0 forward_v I I I I #
face $-1 $84 $85 $31 $-1 $86 reversed single #
loop $-1 $-1 $87 $41 #
plane-surface $-1 -46.384472182378616 0 0 1 0 0 0 0 -1 forward_v I I I I #
face $-1 $88 $89 $32 $-1 $90 reversed single #
loop $-1 $-1 $91 $42 #
plane-surface $-1 46.384472182378616 0 0 -1 0 0 0 0 1 forward_v I I I I #
face $-1 $92 $93 $33 $-1 $94 reversed single #
loop $-1 $-1 $95 $43 #
plane-surface $-1 -8.7005495888111 -109.89016465852157 51.475780229855552 -1 0 0 0 -0.85716730853699208 0.51503806187062418 forward_v I I I I #
face $-1 $96 $97 $34 $-1 $98 forward single #
loop $-1 $99 $100 $44 #
cone-surface $-1 -22.628801792873027 -28.729163829821388 5.166143670745968 0 0.85716730853699208 -0.51503806187062418 1 0 0 1 I I 0 1 1 forward I I I I #
face $-1 $101 $102 $35 $-1 $103 forward single #
loop $-1 $104 $105 $45 #
cone-surface $-1 -17.405707216349803 -28.729163829821388 5.166143670745968 0 0.85716730853699208 -0.51503806187062418 1 0 0 1 I I 0 1 1 forward I I I I #
face $-1 $106 $107 $36 $-1 $108 forward single #
loop $-1 $109 $110 $46 #
cone-surface $-1 -12.18261263982658 -28.729163829821388 5.166143670745968 0 0.85716730853699208 -0.51503806187062418 1 0 0 1 I I 0 1 1 forward I I I I #
face $-1 $111 $112 $37 $-1 $113 reversed single #
loop $-1 $-1 $114 $47 #
plane-surface $-1 16.840115878530167 54.908200173287959 110.0565062366089 1 0 0 0 -0.71933980857756763 -0.69465836192734942 forward_v I I I I #
face $-1 $115 $116 $38 $-1 $117 forward single #
loop $-1 $118 $119 $48 #
cone-surface $-1 22.683757119579411 27.006501861304489 3.87507376233728 0 -0.71933980857756763 -0.69465836192734942 1.5 0 0 1 I I 0 1 1.5 forward I I I I #
face $-1 $120 $121 $39 $-1 $122 forward single #
loop $-1 $123 $124 $49 #
cone-surface $-1 31.449218981153294 27.006501861304489 3.87507376233728 0 -0.71933980857756763 -0.69465836192734942 1.5 0 0 1 I I 0 1 1.5 forward I I I I #
face $-1 $125 $126 $30 $-1 $127 reversed single #
loop $-1 $-1 $128 $50 #
plane-surface $-1 0 0 -7.3064568283255671 0 0 1 1 0 0 forward_v I I I I #
coedge $-1 $129 $130 $131 $132 forward $51 $-1 #
face $-1 $133 $134 $31 $-1 $135 forward single #
loop $-1 $-1 $136 $53 #
plane-surface $-1 0 30.371658301564672 0 0 -1 0 0 0 -1 forward_v I I I I #
coedge $-1 $137 $138 $139 $140 forward $54 $-1 #
face $-1 $141 $142 $32 $-1 $143 forward single #
loop $-1 $-1 $144 $56 #
plane-surface $-1 0 -30.371658301564672 0 0 1 0 0 0 1 forward_v I I I I #
coedge $-1 $145 $146 $147 $148 forward $57 $-1 #
face $-1 $149 $150 $33 $-1 $151 reversed single #
loop $-1 $-1 $152 $59 #
plane-surface $-1 -17.405707216349803 -30.371658301564651 3.696242922447226 0 -0.85716730853699208 0.51503806187062418 1 0 0 forward_v I I I I #
coedge $-1 $153 $154 $155 $156 reversed $60 $-1 #
face $-1 $-1 $157 $34 $-1 $158 forward single #
loop $-1 $159 $160 $62 #
cone-surface $-1 -22.628801792873027 -27.742703347590005 4.5734184351702272 0 0.85716730853699208 -0.51503806187062418 0.5 0 0 1 I I -0.70710678118654746 0.70710678118654746 0.5 forward I I I I #
loop $-1 $-1 $161 $44 #
coedge $-1 $100 $100 $162 $163 reversed $63 $-1 #
face $-1 $-1 $164 $35 $-1 $165 forward single #
loop $-1 $166 $167 $65 #
cone-surface $-1 -17.405707216349803 -27.742703347590005 4.5734184351702272 0 0.85716730853699208 -0.51503806187062418 0.5 0 0 1 I I -0.70710678118654746 0.70710678118654746 0.5 forward I I I I #
loop $-1 $-1 $168 $45 #
coedge $-1 $105 $105 $169 $170 reversed $66 $-1 #
face $-1 $-1 $171 $36 $-1 $172 forward single #
loop $-1 $173 $174 $68 #
cone-surface $-1 -12.18261263982658 -27.742703347590005 4.5734184351702272 0 0.85716730853699208 -0.51503806187062418 0.5 0 0 1 I I -0.70710678118654746 0.70710678118654746 0.5 forward I I I I #
loop $-1 $-1 $175 $46 #
coedge $-1 $110 $110 $176 $177 reversed $69 $-1 #
face $-1 $178 $179 $37 $-1 $180 reversed single #
loop $-1 $-1 $181 $71 #
plane-surface $-1 27.06648805036636 -11.824194507999529 45.613783306457222 0 0.71933980857756763 0.69465836192734942 1 0 0 forward_v I I I I #
coedge $-1 $182 $183 $184 $185 reversed $72 $-1 #
face $-1 $-1 $186 $38 $-1 $187 forward single #
loop $-1 $188 $189 $74 #
cone-surface $-1 22.683757119579411 25.703289822010618 2.6165765546684749 0 -0.71933980857756763 -0.69465836192734942 0.75 0 0 1 I I -0.70710678118654757 0.70710678118654757 0.75 forward I I I I #
loop $-1 $-1 $190 $48 #
coedge $-1 $119 $119 $191 $192 reversed $75 $-1 #
face $-1 $-1 $193 $39 $-1 $194 forward single #
loop $-1 $195 $196 $77 #
cone-surface $-1 31.449218981153294 25.703289822010618 2.6165765546684749 0 -0.71933980857756763 -0.69465836192734942 0.75 0 0 1 I I -0.70710678118654757 0.70710678118654757 0.75 forward I I I I #
loop $-1 $-1 $197 $49 #
coedge $-1 $124 $124 $198 $199 reversed $78 $-1 #
face $-1 $200 $201 $30 $-1 $202 reversed single #
loop $-1 $-1 $203 $80 #
plane-surface $-1 0 -30.371658301564672 0 0 1 0 0 0 1 forward_v I I I I #
coedge $-1 $204 $205 $206 $207 forward $81 $-1 #
coedge $-1 $208 $83 $209 $210 forward $51 $-1 #
coedge $-1 $83 $208 $211 $212 forward $51 $-1 #
coedge $-1 $213 $214 $83 $132 reversed $215 $-1 #
edge $-1 $216 -30.371658301564672 $217 30.371658301564672 $131 $218 forward 7 unknown #
face $-1 $219 $220 $31 $-1 $221 reversed single #
loop $-1 $-1 $139 $84 #
plane-surface $-1 -50.930278162466649 0 -1.1025652881777785 0 0 1 1 0 0 forward_v I I I I #
coedge $-1 $222 $223 $138 $224 forward $85 $-1 #
coedge $-1 $225 $87 $226 $227 reversed $54 $-1 #
coedge $-1 $87 $225 $136 $224 reversed $54 $-1 #
coedge $-1 $228 $229 $87 $140 reversed $134 $-1 #
edge $-1 $230 -30.371658301564672 $231 30.371658301564672 $139 $232 forward 7 unknown #
face $-1 $233 $234 $32 $-1 $235 reversed single #
loop $-1 $-1 $236 $88 #
plane-surface $-1 50.930278162466649 0 -1.1025652881777785 0 0 1 1 0 0 forward_v I I I I #
coedge $-1 $237 $238 $146 $239 forward $89 $-1 #
coedge $-1 $240 $91 $241 $242 reversed $57 $-1 #
coedge $-1 $91 $240 $144 $239 reversed $57 $-1 #
coedge $-1 $243 $244 $91 $148 reversed $142 $-1 #
edge $-1 $245 -30.371658301564672 $246 30.371658301564672 $147 $247 forward 7 unknown #
face $-1 $248 $249 $33 $-1 $250 forward single #
loop $-1 $-1 $251 $92 #
plane-surface $-1 -26.110864843888507 -109.89016465852157 51.475780229855552 1 0 0 0 0.85716730853699208 -0.51503806187062418 forward_v I I I I #
coedge $-1 $252 $253 $254 $255 reversed $93 $-1 #
coedge $-1 $154 $95 $256 $257 reversed $60 $-1 #
coedge $-1 $95 $153 $252 $258 reversed $60 $-1 #
coedge $-1 $254 $259 $95 $156 forward $249 $-1 #
edge $-1 $260 24.573424027696113 $261 26.742659315256933 $155 $262 forward 7 unknown #
loop $-1 $-1 $162 $96 #
plane-surface $-1 -17.405707216349803 -30.371658301564651 3.696242922447226 0 -0.85716730853699208 0.51503806187062418 1 0 0 forward_v I I I I #
loop $-1 $-1 $263 $62 #
coedge $-1 $160 $160 $161 $264 reversed $97 $-1 #
coedge $-1 $161 $161 $160 $264 forward $99 $-1 #
coedge $-1 $162 $162 $100 $163 forward $157 $-1 #
edge $-1 $265 -7.7442127688837882e-016 $265 6.2831853071795996 $162 $266 forward 7 unknown #
loop $-1 $-1 $169 $101 #
plane-surface $-1 -17.405707216349803 -30.371658301564651 3.696242922447226 0 -0.85716730853699208 0.51503806187062418 1 0 0 forward_v I I I I #
loop $-1 $-1 $267 $65 #
coedge $-1 $167 $167 $168 $268 reversed $102 $-1 #
coedge $-1 $168 $168 $167 $268 forward $104 $-1 #
coedge $-1 $169 $169 $105 $170 forward $164 $-1 #
edge $-1 $269 -7.7442127688837882e-016 $269 6.2831853071795996 $169 $270 forward 7 unknown #
loop $-1 $-1 $176 $106 #
plane-surface $-1 -17.405707216349803 -30.371658301564651 3.696242922447226 0 -0.85716730853699208 0.51503806187062418 1 0 0 forward_v I I I I #
loop $-1 $-1 $271 $68 #
coedge $-1 $174 $174 $175 $272 reversed $107 $-1 #
coedge $-1 $175 $175 $174 $272 forward $109 $-1 #
coedge $-1 $176 $176 $110 $177 forward $171 $-1 #
edge $-1 $273 -7.7442127688837882e-016 $273 6.2831853071795996 $176 $274 forward 7 unknown #
face $-1 $275 $276 $37 $-1 $277 reversed single #
loop $-1 $-1 $278 $111 #
plane-surface $-1 37.292860222202549 54.908200173287959 110.0565062366089 -1 0 0 0 0.71933980857756763 0.69465836192734942 forward_v I I I I #
coedge $-1 $279 $280 $281 $282 reversed $112 $-1 #
coedge $-1 $183 $114 $283 $284 reversed $72 $-1 #
coedge $-1 $114 $182 $279 $285 reversed $72 $-1 #
coedge $-1 $281 $286 $114 $185 forward $287 $-1 #
edge $-1 $288 -2.9175582149206924 $289 2.2853402998782961 $184 $290 forward 7 unknown #
loop $-1 $-1 $191 $115 #
plane-surface $-1 27.06648805036636 -11.824194507999529 45.613783306457222 0 0.71933980857756763 0.69465836192734942 1 0 0 forward_v I I I I #
loop $-1 $-1 $291 $74 #
coedge $-1 $189 $189 $190 $292 reversed $116 $-1 #
coedge $-1 $190 $190 $189 $292 forward $118 $-1 #
coedge $-1 $191 $191 $119 $192 forward $186 $-1 #
edge $-1 $293 -5.4284954710896305e-016 $293 6.2831853071795996 $191 $294 forward 7 unknown #
loop $-1 $-1 $198 $120 #
plane-surface $-1 27.06648805036636 -11.824194507999529 45.613783306457222 0 0.71933980857756763 0.69465836192734942 1 0 0 forward_v I I I I #
loop $-1 $-1 $295 $77 #
coedge $-1 $196 $196 $197 $296 reversed $121 $-1 #
coedge $-1 $197 $197 $196 $296 forward $123 $-1 #
coedge $-1 $198 $198 $124 $199 forward $193 $-1 #
edge $-1 $297 -5.4284954710896305e-016 $297 6.2831853071795996 $198 $298 forward 7 unknown #
face $-1 $299 $300 $30 $-1 $301 reversed single #
loop $-1 $-1 $302 $125 #
plane-surface $-1 -46.384472182378616 0 0 1 0 0 0 0 -1 forward_v I I I I #
coedge $-1 $303 $211 $304 $305 forward $126 $-1 #
coedge $-1 $306 $128 $303 $307 forward $81 $-1 #
coedge $-1 $128 $306 $308 $309 forward $81 $-1 #
coedge $-1 $214 $213 $128 $207 reversed $215 $-1 #
edge $-1 $310 -30.371658301564672 $311 30.371658301564672 $206 $312 forward 7 unknown #
coedge $-1 $130 $129 $313 $314 forward $51 $-1 #
coedge $-1 $315 $316 $129 $210 reversed $300 $-1 #
edge $-1 $217 -46.384472182378616 $317 46.384472182378616 $209 $318 forward 7 unknown #
coedge $-1 $203 $319 $130 $212 reversed $126 $-1 #
edge $-1 $320 -46.384472182378616 $216 46.384472182378616 $211 $321 forward 7 unknown #
coedge $-1 $206 $131 $319 $322 forward $215 $-1 #
coedge $-1 $131 $206 $315 $323 reversed $215 $-1 #
loop $-1 $-1 $213 $299 #
vertex $-1 $132 $324 #
vertex $-1 $132 $325 #
straight-curve $-1 46.384472182378616 0 7.3064568283255671 0 1 0 I I #
face $-1 $326 $327 $31 $-1 $328 reversed single #
loop $-1 $-1 $329 $133 #
plane-surface $-1 -50.930278162466649 0 -4.8845659066423899 0 0 1 1 0 0 forward_v I I I I #
coedge $-1 $330 $136 $331 $332 reversed $85 $-1 #
coedge $-1 $136 $330 $228 $333 reversed $85 $-1 #
edge $-1 $230 1.1025652881777785 $334 4.8845659066423899 $136 $335 forward 7 unknown #
coedge $-1 $138 $137 $329 $336 forward $54 $-1 #
coedge $-1 $337 $338 $137 $227 forward $339 $-1 #
edge $-1 $340 -4.8845659066423899 $231 -1.1025652881777785 $226 $341 forward 7 unknown #
coedge $-1 $342 $139 $223 $333 forward $134 $-1 #
coedge $-1 $139 $342 $337 $343 forward $134 $-1 #
vertex $-1 $224 $344 #
vertex $-1 $343 $345 #
straight-curve $-1 -46.384472182378616 0 -1.1025652881777785 0 -1 0 I I #
face $-1 $346 $347 $32 $-1 $348 reversed single #
loop $-1 $-1 $349 $141 #
plane-surface $-1 50.930278162466649 0 -4.8845659066423899 0 0 1 1 0 0 forward_v I I I I #
coedge $-1 $244 $243 $350 $351 forward $142 $-1 #
coedge $-1 $352 $144 $353 $354 reversed $89 $-1 #
coedge $-1 $144 $352 $243 $355 reversed $89 $-1 #
edge $-1 $245 1.1025652881777785 $356 4.8845659066423899 $144 $357 forward 7 unknown #
coedge $-1 $146 $145 $358 $359 forward $57 $-1 #
coedge $-1 $360 $361 $145 $242 forward $362 $-1 #
edge $-1 $363 -4.8845659066423899 $246 -1.1025652881777785 $241 $364 forward 7 unknown #
coedge $-1 $236 $147 $238 $355 forward $142 $-1 #
coedge $-1 $147 $236 $360 $365 forward $142 $-1 #
vertex $-1 $239 $366 #
vertex $-1 $365 $367 #
straight-curve $-1 46.384472182378616 0 -1.1025652881777785 0 1 0 I I #
face $-1 $-1 $368 $33 $-1 $369 reversed single #
loop $-1 $-1 $155 $149 #
plane-surface $-1 0 0 7.3064568283255671 0 0 1 1 0 0 forward_v I I I I #
coedge $-1 $370 $371 $372 $373 reversed $150 $-1 #
coedge $-1 $374 $152 $154 $258 forward $93 $-1 #
coedge $-1 $152 $374 $370 $375 forward $93 $-1 #
coedge $-1 $372 $155 $152 $255 forward $249 $-1 #
edge $-1 $261 -0.002304019363801757 $376 17.408011235713605 $254 $377 forward 7 unknown #
coedge $-1 $378 $379 $153 $257 forward $368 $-1 #
edge $-1 $380 -22.041647192480585 $260 -18.431433286602207 $256 $381 forward 7 unknown #
edge $-1 $261 -4.2117960751912404 $380 4.1431396825663817e-014 $154 $382 forward 7 unknown #
coedge $-1 $155 $372 $378 $383 forward $249 $-1 #
vertex $-1 $257 $384 #
vertex $-1 $156 $385 #
straight-curve $-1 -8.7005495888111 -54.945082329260785 7.3064568283255689 0 1 0 I I #
coedge $-1 $263 $263 $-1 $386 reversed $159 $-1 #
edge $-1 $387 0 $387 6.2831853071796004 $160 $388 forward 7 unknown #
vertex $-1 $163 $389 #
ellipse-curve $-1 -22.628801792873027 -29.287040657784257 5.5013498753863868 0 -0.85716730853699208 0.51503806187062418 1 0 0 1 I I #
coedge $-1 $267 $267 $-1 $390 reversed $166 $-1 #
edge $-1 $391 0 $391 6.2831853071796004 $167 $392 forward 7 unknown #
vertex $-1 $170 $393 #
ellipse-curve $-1 -17.405707216349803 -29.287040657784257 5.5013498753863868 0 -0.85716730853699208 0.51503806187062418 1 0 0 1 I I #
coedge $-1 $271 $271 $-1 $394 reversed $173 $-1 #
edge $-1 $395 0 $395 6.2831853071796004 $174 $396 forward 7 unknown #
vertex $-1 $177 $397 #
ellipse-curve $-1 -12.18261263982658 -29.287040657784257 5.5013498753863868 0 -0.85716730853699208 0.51503806187062418 1 0 0 1 I I #
face $-1 $-1 $287 $37 $-1 $398 forward single #
loop $-1 $-1 $399 $178 #
plane-surface $-1 0 30.371658301564672 0 0 -1 0 0 0 -1 forward_v I I I I #
coedge $-1 $400 $401 $402 $403 reversed $179 $-1 #
coedge $-1 $404 $181 $183 $285 forward $112 $-1 #
coedge $-1 $181 $404 $400 $405 forward $112 $-1 #
coedge $-1 $402 $184 $181 $282 forward $287 $-1 #
edge $-1 $289 3.306871853346987 $406 23.759616197019369 $281 $407 forward 7 unknown #
coedge $-1 $408 $409 $182 $284 forward $276 $-1 #
edge $-1 $410 -53.109555549508876 $288 -47.721796289978883 $283 $411 forward 7 unknown #
edge $-1 $289 53.253449929152524 $410 60.743316603129344 $183 $412 forward 7 unknown #
coedge $-1 $184 $402 $408 $413 forward $287 $-1 #
loop $-1 $-1 $402 $275 #
vertex $-1 $284 $414 #
vertex $-1 $185 $415 #
straight-curve $-1 16.840115878530167 27.454100086643979 7.3064568283255653 0 -1 0 I I #
coedge $-1 $291 $291 $-1 $416 reversed $188 $-1 #
edge $-1 $417 0 $417 6.2831853071796004 $189 $418 forward 7 unknown #
vertex $-1 $192 $419 #
ellipse-curve $-1 22.683757119579411 27.770209044165178 4.6125771985605644 0 0.71933980857756763 0.69465836192734942 1.5 0 0 1 I I #
coedge $-1 $295 $295 $-1 $420 reversed $195 $-1 #
edge $-1 $421 0 $421 6.2831853071796004 $196 $422 forward 7 unknown #
vertex $-1 $199 $423 #
ellipse-curve $-1 31.449218981153294 27.770209044165178 4.6125771985605644 0 0.71933980857756763 0.69465836192734942 1.5 0 0 1 I I #
face $-1 $-1 $215 $30 $-1 $424 reversed single #
loop $-1 $-1 $315 $200 #
plane-surface $-1 0 30.371658301564672 0 0 -1 0 0 0 -1 forward_v I I I I #
coedge $-1 $425 $313 $316 $426 forward $201 $-1 #
coedge $-1 $319 $203 $204 $307 reversed $126 $-1 #
coedge $-1 $313 $425 $203 $305 reversed $201 $-1 #
edge $-1 $320 -7.3064568283255671 $427 7.3064568283255671 $304 $428 forward 7 unknown #
coedge $-1 $205 $204 $425 $429 forward $81 $-1 #
edge $-1 $311 -46.384472182378616 $427 46.384472182378616 $303 $430 forward 7 unknown #
coedge $-1 $316 $315 $205 $309 reversed $300 $-1 #
edge $-1 $431 -46.384472182378616 $310 46.384472182378616 $308 $432 forward 7 unknown #
vertex $-1 $207 $433 #
vertex $-1 $322 $434 #
straight-curve $-1 46.384472182378616 0 -7.3064568283255671 0 -1 0 I I #
coedge $-1 $302 $304 $208 $314 reversed $201 $-1 #
edge $-1 $317 -30.371658301564672 $320 30.371658301564672 $313 $435 forward 7 unknown #
coedge $-1 $308 $209 $214 $323 forward $300 $-1 #
coedge $-1 $209 $308 $302 $426 reversed $300 $-1 #
vertex $-1 $210 $436 #
straight-curve $-1 0 30.371658301564672 7.3064568283255671 -1 0 0 I I #
coedge $-1 $211 $303 $213 $322 reversed $126 $-1 #
vertex $-1 $314 $437 #
straight-curve $-1 0 -30.371658301564672 7.3064568283255671 1 0 0 I I #
edge $-1 $216 -7.3064568283255671 $311 7.3064568283255671 $213 $438 forward 7 unknown #
edge $-1 $217 -7.3064568283255671 $310 7.3064568283255671 $214 $439 forward 7 unknown #
point $-1 46.384472182378616 -30.371658301564672 7.3064568283255671 #
point $-1 46.384472182378616 30.371658301564672 7.3064568283255671 #
face $-1 $-1 $339 $31 $-1 $440 reversed single #
loop $-1 $-1 $441 $219 #
plane-surface $-1 -55.476084142554683 0 -2.9935655974100843 1 0 0 0 0 -1 forward_v I I I I #
coedge $-1 $442 $331 $225 $336 reversed $220 $-1 #
coedge $-1 $223 $222 $441 $443 reversed $85 $-1 #
coedge $-1 $329 $444 $222 $332 forward $220 $-1 #
edge $-1 $445 -4.5458059800880335 $334 4.5458059800880335 $222 $446 forward 7 unknown #
edge $-1 $230 -4.5458059800880335 $447 4.5458059800880335 $223 $448 forward 7 unknown #
vertex $-1 $224 $449 #
straight-curve $-1 -46.384472182378616 30.371658301564672 0 0 0 -1 I I #
edge $-1 $340 -30.371658301564672 $334 30.371658301564672 $329 $450 forward 7 unknown #
coedge $-1 $451 $226 $229 $343 reversed $339 $-1 #
coedge $-1 $226 $451 $442 $452 reversed $339 $-1 #
loop $-1 $-1 $226 $326 #
vertex $-1 $227 $453 #
straight-curve $-1 -46.384472182378616 -30.371658301564672 0 0 0 1 I I #
coedge $-1 $229 $228 $454 $455 forward $134 $-1 #
edge $-1 $456 -4.5458059800880335 $231 4.5458059800880335 $337 $457 forward 7 unknown #
point $-1 -46.384472182378616 30.371658301564672 -1.1025652881777785 #
point $-1 -46.384472182378616 -30.371658301564672 -1.1025652881777785 #
face $-1 $-1 $362 $32 $-1 $458 reversed single #
loop $-1 $-1 $459 $233 #
plane-surface $-1 55.476084142554683 0 -2.9935655974100843 -1 0 0 0 0 1 forward_v I I I I #
coedge $-1 $353 $460 $461 $462 forward $234 $-1 #
coedge $-1 $459 $463 $236 $351 reversed $347 $-1 #
edge $-1 $464 -30.371658301564672 $465 30.371658301564672 $350 $466 forward 7 unknown #
coedge $-1 $238 $237 $459 $467 reversed $89 $-1 #
coedge $-1 $358 $349 $237 $354 forward $234 $-1 #
edge $-1 $468 -4.5458059800880335 $356 4.5458059800880335 $237 $469 forward 7 unknown #
edge $-1 $245 -4.5458059800880335 $464 4.5458059800880335 $238 $470 forward 7 unknown #
vertex $-1 $239 $471 #
straight-curve $-1 46.384472182378616 -30.371658301564672 0 0 0 -1 I I #
coedge $-1 $460 $353 $240 $359 reversed $234 $-1 #
edge $-1 $363 -30.371658301564672 $356 30.371658301564672 $358 $472 forward 7 unknown #
coedge $-1 $473 $241 $244 $365 reversed $362 $-1 #
coedge $-1 $241 $473 $460 $474 reversed $362 $-1 #
loop $-1 $-1 $241 $346 #
vertex $-1 $242 $475 #
straight-curve $-1 46.384472182378616 30.371658301564672 0 0 0 1 I I #
edge $-1 $465 -4.5458059800880335 $246 4.5458059800880335 $360 $476 forward 7 unknown #
point $-1 46.384472182378616 -30.371658301564672 -1.1025652881777785 #
point $-1 46.384472182378616 30.371658301564672 -1.1025652881777785 #
loop $-1 $-1 $256 $248 #
plane-surface $-1 0 -30.371658301564672 0 0 1 0 0 0 1 forward_v I I I I #
coedge $-1 $371 $251 $253 $375 reversed $150 $-1 #
coedge $-1 $251 $370 $477 $478 reversed $150 $-1 #
coedge $-1 $259 $254 $251 $373 forward $249 $-1 #
edge $-1 $376 -26.742659315256933 $479 -24.573424027696113 $372 $480 forward 7 unknown #
coedge $-1 $253 $252 $379 $481 reversed $93 $-1 #
edge $-1 $482 -4.1431396825663817e-014 $376 4.2117960751912404 $370 $483 forward 7 unknown #
vertex $-1 $255 $484 #
straight-curve $-1 -8.7028536081749017 -28.202423014003852 7.3064568283255662 -1 0 0 I I #
coedge $-1 $477 $256 $259 $383 reversed $368 $-1 #
coedge $-1 $256 $477 $374 $481 forward $368 $-1 #
vertex $-1 $257 $485 #
straight-curve $-1 -8.7005495888111 -30.371658301564672 25.737890114927776 0 0 1 I I #
straight-curve $-1 -8.7005495888111 -30.371658301564651 3.696242922447226 0 -0.51503806187062418 -0.85716730853699208 I I #
edge $-1 $479 -26.110864843888507 $260 -8.7005495888111 $378 $486 forward 7 unknown #
point $-1 -8.7005495888111 -30.371658301564672 7.3064568283255671 #
point $-1 -8.7005495888111 -28.202423014003852 7.3064568283255671 #
edge $-1 $487 1 $487 0 $263 $-1 forward 7 unknown #
vertex $-1 $264 $488 #
ellipse-curve $-1 -22.628801792873027 -28.171287001858502 4.8309374661055395 0 -0.85716730853699208 0.51503806187062418 1 0 0 1 I I #
point $-1 -21.628801792873027 -29.287040657784274 5.5013498753863965 #
edge $-1 $489 1 $489 0 $267 $-1 forward 7 unknown #
vertex $-1 $268 $490 #
ellipse-curve $-1 -17.405707216349803 -28.171287001858502 4.8309374661055395 0 -0.85716730853699208 0.51503806187062418 1 0 0 1 I I #
point $-1 -16.405707216349803 -29.287040657784274 5.5013498753863965 #
edge $-1 $491 1 $491 0 $271 $-1 forward 7 unknown #
vertex $-1 $272 $492 #
ellipse-curve $-1 -12.18261263982658 -28.171287001858502 4.8309374661055395 0 -0.85716730853699208 0.51503806187062418 1 0 0 1 I I #
point $-1 -11.18261263982658 -29.287040657784274 5.5013498753863965 #
plane-surface $-1 0 0 7.3064568283255671 0 0 1 1 0 0 forward_v I I I I #
coedge $-1 $409 $408 $401 $493 forward $276 $-1 #
coedge $-1 $401 $278 $280 $405 reversed $179 $-1 #
coedge $-1 $278 $400 $399 $493 reversed $179 $-1 #
coedge $-1 $286 $281 $278 $403 forward $287 $-1 #
edge $-1 $406 -2.2853402998782961 $494 2.9175582149206924 $402 $495 forward 7 unknown #
coedge $-1 $280 $279 $409 $496 reversed $112 $-1 #
edge $-1 $497 -60.743316603129344 $406 -53.253449929152524 $400 $498 forward 7 unknown #
vertex $-1 $282 $499 #
straight-curve $-1 13.53324402518318 25.16875978676568 7.3064568283255689 1 0 0 I I #
coedge $-1 $399 $283 $286 $413 reversed $276 $-1 #
coedge $-1 $283 $399 $404 $496 forward $276 $-1 #
vertex $-1 $284 $500 #
straight-curve $-1 16.840115878530167 30.371658301564672 55.028253118304448 0 0 1 I I #
straight-curve $-1 16.840115878530167 -11.824194507999529 45.613783306457222 0 0.69465836192734942 -0.71933980857756763 I I #
edge $-1 $494 -37.292860222202549 $288 -16.840115878530167 $408 $501 forward 7 unknown #
point $-1 16.840115878530167 30.371658301564672 7.3064568283255671 #
point $-1 16.840115878530167 25.168759786765683 7.3064568283255653 #
edge $-1 $502 1 $502 0 $291 $-1 forward 7 unknown #
vertex $-1 $292 $503 #
ellipse-curve $-1 22.683757119579411 26.242794678443794 3.1375703261139871 0 0.71933980857756763 0.69465836192734942 1.5 0 0 1 I I #
point $-1 24.183757119579411 27.770209044165185 4.6125771985605724 #
edge $-1 $504 1 $504 0 $295 $-1 forward 7 unknown #
vertex $-1 $296 $505 #
ellipse-curve $-1 31.449218981153294 26.242794678443794 3.1375703261139871 0 0.71933980857756763 0.69465836192734942 1.5 0 0 1 I I #
point $-1 32.949218981153294 27.770209044165185 4.6125771985605724 #
plane-surface $-1 46.384472182378616 0 0 -1 0 0 0 0 1 forward_v I I I I #
coedge $-1 $304 $302 $306 $429 reversed $201 $-1 #
edge $-1 $317 -7.3064568283255671 $431 7.3064568283255671 $316 $506 forward 7 unknown #
vertex $-1 $429 $507 #
straight-curve $-1 -46.384472182378616 -30.371658301564672 0 0 0 -1 I I #
edge $-1 $427 -30.371658301564672 $431 30.371658301564672 $425 $508 forward 7 unknown #
straight-curve $-1 0 -30.371658301564672 -7.3064568283255671 -1 0 0 I I #
vertex $-1 $309 $509 #
straight-curve $-1 0 30.371658301564672 -7.3064568283255671 1 0 0 I I #
point $-1 46.384472182378616 30.371658301564672 -7.3064568283255671 #
point $-1 46.384472182378616 -30.371658301564672 -7.3064568283255671 #
straight-curve $-1 -46.384472182378616 0 7.3064568283255671 0 -1 0 I I #
point $-1 -46.384472182378616 30.371658301564672 7.3064568283255671 #
point $-1 -46.384472182378616 -30.371658301564672 7.3064568283255671 #
straight-curve $-1 46.384472182378616 -30.371658301564672 0 0 0 -1 I I #
straight-curve $-1 46.384472182378616 30.371658301564672 0 0 0 -1 I I #
plane-surface $-1 0 -30.371658301564672 0 0 1 0 0 0 1 forward_v I I I I #
coedge $-1 $510 $454 $330 $443 forward $327 $-1 #
coedge $-1 $444 $329 $338 $452 forward $220 $-1 #
edge $-1 $447 -1.8910003092323058 $445 1.8910003092323056 $330 $511 forward 7 unknown #
coedge $-1 $331 $442 $510 $512 forward $220 $-1 #
vertex $-1 $332 $513 #
straight-curve $-1 -50.930278162466649 30.371658301564672 -4.8845659066423899 1 0 0 I I #
vertex $-1 $333 $514 #
straight-curve $-1 -50.930278162466649 30.371658301564672 -1.1025652881777785 -1 0 0 I I #
point $-1 -46.384472182378616 30.371658301564672 -4.8845659066423899 #
straight-curve $-1 -46.384472182378616 0 -4.8845659066423899 0 1 0 I I #
coedge $-1 $338 $337 $515 $516 forward $339 $-1 #
edge $-1 $340 -4.5458059800880335 $517 4.5458059800880335 $338 $518 forward 7 unknown #
point $-1 -46.384472182378616 -30.371658301564672 -4.8845659066423899 #
coedge $-1 $441 $515 $342 $455 reversed $327 $-1 #
edge $-1 $447 -30.371658301564672 $456 30.371658301564672 $454 $519 forward 7 unknown #
vertex $-1 $455 $520 #
straight-curve $-1 -50.930278162466649 -30.371658301564672 -1.1025652881777785 1 0 0 I I #
plane-surface $-1 0 30.371658301564672 0 0 -1 0 0 0 -1 forward_v I I I I #
coedge $-1 $461 $350 $352 $467 forward $347 $-1 #
coedge $-1 $349 $358 $361 $474 forward $234 $-1 #
coedge $-1 $463 $459 $349 $462 reversed $347 $-1 #
edge $-1 $521 -30.371658301564672 $468 30.371658301564672 $461 $522 forward 7 unknown #
coedge $-1 $350 $461 $473 $523 reversed $347 $-1 #
vertex $-1 $351 $524 #
vertex $-1 $351 $525 #
straight-curve $-1 55.476084142554683 0 -1.1025652881777785 0 1 0 I I #
edge $-1 $464 -1.8910003092323058 $468 1.8910003092323056 $459 $526 forward 7 unknown #
vertex $-1 $467 $527 #
straight-curve $-1 50.930278162466649 -30.371658301564672 -4.8845659066423899 -1 0 0 I I #
straight-curve $-1 50.930278162466649 -30.371658301564672 -1.1025652881777785 1 0 0 I I #
point $-1 46.384472182378616 -30.371658301564672 -4.8845659066423899 #
straight-curve $-1 46.384472182378616 0 -4.8845659066423899 0 -1 0 I I #
coedge $-1 $361 $360 $463 $523 forward $362 $-1 #
edge $-1 $363 -4.5458059800880335 $521 4.5458059800880335 $361 $528 forward 7 unknown #
point $-1 46.384472182378616 30.371658301564672 -4.8845659066423899 #
straight-curve $-1 50.930278162466649 30.371658301564672 -1.1025652881777785 -1 0 0 I I #
coedge $-1 $379 $378 $371 $478 forward $368 $-1 #
edge $-1 $479 18.431433286602207 $482 22.041647192480585 $477 $529 forward 7 unknown #
vertex $-1 $383 $530 #
straight-curve $-1 -26.110864843888507 -54.945082329260785 7.3064568283255689 0 -1 0 I I #
edge $-1 $482 -17.408011235713605 $380 0.002304019363801757 $379 $531 forward 7 unknown #
vertex $-1 $481 $532 #
straight-curve $-1 -26.110864843888507 -30.371658301564651 3.696242922447226 0 0.51503806187062418 0.85716730853699208 I I #
point $-1 -26.110864843888507 -28.202423014003852 7.3064568283255671 #
point $-1 -8.7005495888111 -30.371658301564672 3.6962429224471904 #
straight-curve $-1 0 -30.371658301564672 7.3064568283255671 1 0 0 I I #
vertex $-1 $386 $533 #
point $-1 -21.628801792873027 -28.171287001858502 4.8309374661055395 #
vertex $-1 $390 $534 #
point $-1 -16.405707216349803 -28.171287001858502 4.8309374661055395 #
vertex $-1 $394 $535 #
point $-1 -11.18261263982658 -28.171287001858502 4.8309374661055395 #
edge $-1 $494 47.721796289978883 $497 53.109555549508876 $399 $536 forward 7 unknown #
vertex $-1 $413 $537 #
straight-curve $-1 37.292860222202549 27.454100086643979 7.3064568283255653 0 1 0 I I #
edge $-1 $497 -23.759616197019369 $410 -3.306871853346987 $409 $538 forward 7 unknown #
vertex $-1 $496 $539 #
straight-curve $-1 37.292860222202549 -11.824194507999529 45.613783306457222 0 -0.69465836192734942 0.71933980857756763 I I #
point $-1 37.292860222202549 25.168759786765683 7.3064568283255653 #
point $-1 16.840115878530167 30.371658301564672 1.9186975687955723 #
straight-curve $-1 0 30.371658301564672 7.3064568283255671 -1 0 0 I I #
vertex $-1 $416 $540 #
point $-1 24.183757119579411 26.242794678443794 3.1375703261139871 #
vertex $-1 $420 $541 #
point $-1 32.949218981153294 26.242794678443794 3.1375703261139871 #
straight-curve $-1 -46.384472182378616 30.371658301564672 0 0 0 -1 I I #
point $-1 -46.384472182378616 -30.371658301564672 -7.3064568283255671 #
straight-curve $-1 -46.384472182378616 0 -7.3064568283255671 0 1 0 I I #
point $-1 -46.384472182378616 30.371658301564672 -7.3064568283255671 #
coedge $-1 $515 $441 $444 $512 reversed $327 $-1 #
straight-curve $-1 -55.476084142554683 30.371658301564672 -2.9935655974100843 0 0 -1 I I #
edge $-1 $517 -30.371658301564672 $445 30.371658301564672 $510 $542 forward 7 unknown #
point $-1 -55.476084142554683 30.371658301564672 -4.8845659066423899 #
point $-1 -55.476084142554683 30.371658301564672 -1.1025652881777785 #
coedge $-1 $454 $510 $451 $516 reversed $327 $-1 #
edge $-1 $456 -1.8910003092323058 $517 1.8910003092323056 $515 $543 forward 7 unknown #
vertex $-1 $512 $544 #
straight-curve $-1 -50.930278162466649 -30.371658301564672 -4.8845659066423899 -1 0 0 I I #
straight-curve $-1 -55.476084142554683 0 -1.1025652881777785 0 -1 0 I I #
point $-1 -55.476084142554683 -30.371658301564672 -1.1025652881777785 #
vertex $-1 $462 $545 #
straight-curve $-1 55.476084142554683 0 -4.8845659066423899 0 -1 0 I I #
edge $-1 $465 -1.8910003092323058 $521 1.8910003092323056 $463 $546 forward 7 unknown #
point $-1 55.476084142554683 -30.371658301564672 -1.1025652881777785 #
point $-1 55.476084142554683 30.371658301564672 -1.1025652881777785 #
straight-curve $-1 55.476084142554683 -30.371658301564672 -2.9935655974100843 0 0 -1 I I #
point $-1 55.476084142554683 -30.371658301564672 -4.8845659066423899 #
straight-curve $-1 50.930278162466649 30.371658301564672 -4.8845659066423899 1 0 0 I I #
straight-curve $-1 -26.110864843888507 -30.371658301564672 25.737890114927776 0 0 -1 I I #
point $-1 -26.110864843888507 -30.371658301564672 7.3064568283255671 #
straight-curve $-1 -8.7028536081749017 -30.371658301564672 3.6962429224471909 1 0 0 I I #
point $-1 -26.110864843888507 -30.371658301564672 3.6962429224471904 #
point $-1 -22.628801792873027 -27.314119693321508 4.3158994042349148 #
point $-1 -17.405707216349803 -27.314119693321508 4.3158994042349148 #
point $-1 -12.18261263982658 -27.314119693321508 4.3158994042349148 #
straight-curve $-1 37.292860222202549 30.371658301564672 55.028253118304448 0 0 -1 I I #
point $-1 37.292860222202549 30.371658301564672 7.3064568283255671 #
straight-curve $-1 13.53324402518318 30.371658301564672 1.9186975687955723 -1 0 0 I I #
point $-1 37.292860222202549 30.371658301564672 1.9186975687955723 #
point $-1 22.683757119579411 25.163784965577442 2.0955827832229628 #
point $-1 31.449218981153294 25.163784965577442 2.0955827832229628 #
straight-curve $-1 -55.476084142554683 0 -4.8845659066423899 0 1 0 I I #
straight-curve $-1 -55.476084142554683 -30.371658301564672 -2.9935655974100843 0 0 -1 I I #
point $-1 -55.476084142554683 -30.371658301564672 -4.8845659066423899 #
point $-1 55.476084142554683 30.371658301564672 -4.8845659066423899 #
straight-curve $-1 55.476084142554683 30.371658301564672 -2.9935655974100843 0 0 -1 I I #
End-of-ACIS-data 