500 0 6 0           
7 Unknown 11 ACIS 5.0 NT 24 Thu Mar 25 20:05:22 1999 
-1 9.9999999999999995e-007 1e-010 
body $-1 $6 $-1 $7 #
body $-1 $8 $-1 $9 #
body $-1 $10 $-1 $11 #
body $-1 $12 $-1 $13 #
body $-1 $14 $-1 $15 #
body $-1 $16 $-1 $17 #
lump $-1 $-1 $18 $0 #
transform $-1 1 0 0 0 1 0 0 0 1 70.326853236487921 34.856080648717757 13.4012997717402 1 rotate no_reflect no_shear #
lump $-1 $-1 $19 $1 #
transform $-1 1 0 0 0 1 0 0 0 1 70.326853236487921 34.856080648717757 13.4012997717402 1 rotate no_reflect no_shear #
lump $-1 $-1 $20 $2 #
transform $-1 1 0 0 0 1 0 0 0 1 70.326853236487921 34.856080648717757 13.4012997717402 1 rotate no_reflect no_shear #
lump $-1 $-1 $21 $3 #
transform $-1 1 0 0 0 1 0 0 0 1 70.326853236487921 34.856080648717757 13.4012997717402 1 rotate no_reflect no_shear #
lump $-1 $-1 $22 $4 #
transform $-1 1 0 0 0 1 0 0 0 1 70.326853236487921 34.856080648717757 13.4012997717402 1 rotate no_reflect no_shear #
lump $-1 $-1 $23 $5 #
transform $-1 1 0 0 0 1 0 0 0 1 70.326853236487921 34.856080648717757 13.4012997717402 1 rotate no_reflect no_shear #
shell $-1 $-1 $-1 $24 $-1 $6 #
shell $-1 $-1 $-1 $25 $-1 $8 #
shell $-1 $-1 $-1 $26 $-1 $10 #
shell $-1 $-1 $-1 $27 $-1 $12 #
shell $-1 $-1 $-1 $28 $-1 $14 #
shell $-1 $-1 $-1 $29 $-1 $16 #
face $-1 $30 $31 $18 $-1 $32 forward single #
face $-1 $33 $34 $19 $-1 $35 forward single #
face $-1 $36 $37 $20 $-1 $38 reversed single #
face $-1 $39 $40 $21 $-1 $41 forward single #
face $-1 $42 $43 $22 $-1 $44 reversed single #
face $-1 $45 $46 $23 $-1 $47 forward single #
face $-1 $48 $49 $18 $-1 $50 reversed single #
loop $-1 $-1 $51 $24 #
plane-surface $-1 0 0 13.4012997717402 0 0 1 1 0 0 forward_v I I I I #
face $-1 $52 $53 $19 $-1 $54 reversed single #
loop $-1 $-1 $55 $25 #
plane-surface $-1 0 -28.349102795499711 12.869497894813797 0 0 1 1 0 0 forward_v I I I I #
face $-1 $56 $57 $20 $-1 $58 reversed single #
loop $-1 $-1 $59 $26 #
plane-surface $-1 115.07285548081256 20.081304161265063 199.87155196030827 0 1 0 0.84804810408105047 0 0.52991925155115449 forward_v I I I I #
face $-1 $60 $61 $21 $-1 $62 forward single #
loop $-1 $63 $64 $27 #
cone-surface $-1 64.897381121333837 27.468692404991408 7.7697659558110512 -0.84804810408105047 0 -0.52991925155115449 1.059838503102309 0 -1.6960962081621009 1 I I 0 1 2 forward I I I I #
face $-1 $65 $66 $22 $-1 $67 reversed single #
loop $-1 $-1 $68 $28 #
plane-surface $-1 -189.60796234286767 20.081304161265063 80.590442853928565 0 1 0 -0.84804810408105047 0 0.52991925155115449 forward_v I I I I #
face $-1 $69 $70 $23 $-1 $71 forward single #
loop $-1 $72 $73 $29 #
cone-surface $-1 -64.897381121333837 27.468692404991408 7.7697659558110583 0.84804810408105047 0 -0.52991925155115449 1.059838503102309 0 1.6960962081621009 1 I I 0 1 2 forward I I I I #
face $-1 $74 $75 $18 $-1 $76 reversed single #
loop $-1 $-1 $77 $30 #
plane-surface $-1 0 0 -13.4012997717402 0 0 1 1 0 0 forward_v I I I I #
coedge $-1 $78 $79 $80 $81 forward $31 $-1 #
face $-1 $82 $83 $19 $-1 $84 reversed single #
loop $-1 $-1 $85 $33 #
plane-surface $-1 0 -28.349102795499711 7.1376989574368572 0 0 1 1 0 0 forward_v I I I I #
coedge $-1 $86 $87 $88 $89 reversed $34 $-1 #
face $-1 $90 $91 $20 $-1 $92 forward single #
loop $-1 $-1 $93 $36 #
plane-surface $-1 -4.2082536255671812 27.468692404991408 125.33644509825314 0.84804810408105047 0 0.52991925155115449 0.52991925155115449 0 -0.84804810408105047 forward_v I I I I #
coedge $-1 $94 $95 $96 $97 reversed $37 $-1 #
face $-1 $-1 $98 $21 $-1 $99 forward single #
loop $-1 $100 $101 $39 #
cone-surface $-1 60.914994638861856 27.468692404991408 5.2812947782641526 -0.84804810408105047 0 -0.52991925155115449 0.52991925155115449 0 -0.84804810408105047 1 I I -0.70710678118654746 0.70710678118654746 1 forward I I I I #
loop $-1 $-1 $102 $27 #
coedge $-1 $64 $64 $103 $104 reversed $40 $-1 #
face $-1 $105 $106 $22 $-1 $107 reversed single #
loop $-1 $-1 $108 $42 #
plane-surface $-1 -70.326853236487921 27.468692404991408 6.0553359918734344 -0.84804810408105047 0 0.52991925155115449 0.52991925155115449 0 0.84804810408105047 forward_v I I I I #
coedge $-1 $109 $110 $111 $112 reversed $43 $-1 #
face $-1 $-1 $113 $23 $-1 $114 forward single #
loop $-1 $115 $116 $45 #
cone-surface $-1 -60.914994638861856 27.468692404991408 5.2812947782641597 0.84804810408105047 0 -0.52991925155115449 0.52991925155115449 0 0.84804810408105047 1 I I -0.70710678118654746 0.70710678118654746 1 forward I I I I #
loop $-1 $-1 $117 $29 #
coedge $-1 $73 $73 $118 $119 reversed $46 $-1 #
face $-1 $120 $121 $18 $-1 $122 reversed single #
loop $-1 $-1 $123 $48 #
plane-surface $-1 0 -34.856080648717757 0 0 1 0 0 0 1 forward_v I I I I #
coedge $-1 $124 $125 $126 $127 forward $49 $-1 #
coedge $-1 $128 $51 $129 $130 forward $31 $-1 #
coedge $-1 $51 $128 $131 $132 forward $31 $-1 #
coedge $-1 $133 $134 $51 $81 reversed $135 $-1 #
edge $-1 $136 -34.856080648717757 $137 34.856080648717757 $80 $138 forward 7 unknown #
face $-1 $139 $140 $19 $-1 $141 reversed single #
loop $-1 $-1 $142 $52 #
plane-surface $-1 0 -21.842124942281664 10.003598426125327 0 -1 0 0 0 -1 forward_v I I I I #
coedge $-1 $143 $144 $145 $146 reversed $53 $-1 #
coedge $-1 $147 $55 $148 $149 forward $34 $-1 #
coedge $-1 $55 $147 $150 $151 reversed $34 $-1 #
coedge $-1 $152 $153 $55 $89 forward $154 $-1 #
edge $-1 $155 7.6675735445318089 $156 20.681529250967902 $88 $157 forward 7 unknown #
face $-1 $158 $159 $20 $-1 $160 reversed single #
loop $-1 $-1 $161 $56 #
plane-surface $-1 0 0 13.4012997717402 0 0 1 1 0 0 forward_v I I I I #
coedge $-1 $162 $163 $164 $165 reversed $57 $-1 #
coedge $-1 $95 $59 $166 $167 reversed $37 $-1 #
coedge $-1 $59 $94 $162 $168 reversed $37 $-1 #
coedge $-1 $164 $169 $59 $97 forward $159 $-1 #
edge $-1 $170 86.534476208413935 $171 93.880439988280685 $96 $172 forward 7 unknown #
loop $-1 $-1 $103 $60 #
plane-surface $-1 -4.2082536255671812 27.468692404991408 125.33644509825314 0.84804810408105047 0 0.52991925155115449 0.52991925155115449 0 -0.84804810408105047 forward_v I I I I #
loop $-1 $-1 $173 $39 #
coedge $-1 $101 $101 $102 $174 reversed $61 $-1 #
coedge $-1 $102 $102 $101 $174 forward $63 $-1 #
coedge $-1 $103 $103 $64 $104 forward $98 $-1 #
edge $-1 $175 0 $175 6.2831853071796004 $103 $176 forward 7 unknown #
face $-1 $177 $178 $22 $-1 $179 forward single #
loop $-1 $-1 $180 $65 #
plane-surface $-1 0 34.856080648717757 0 0 -1 0 0 0 -1 forward_v I I I I #
coedge $-1 $181 $182 $183 $184 reversed $66 $-1 #
coedge $-1 $110 $68 $185 $186 reversed $43 $-1 #
coedge $-1 $68 $109 $181 $187 reversed $43 $-1 #
coedge $-1 $183 $188 $68 $112 forward $178 $-1 #
edge $-1 $189 24.477127934945912 $190 29.067395408472208 $111 $191 forward 7 unknown #
loop $-1 $-1 $118 $69 #
plane-surface $-1 -70.326853236487921 27.468692404991408 6.0553359918734344 -0.84804810408105047 0 0.52991925155115449 0.52991925155115449 0 0.84804810408105047 forward_v I I I I #
loop $-1 $-1 $192 $45 #
coedge $-1 $116 $116 $117 $193 reversed $70 $-1 #
coedge $-1 $117 $117 $116 $193 forward $72 $-1 #
coedge $-1 $118 $118 $73 $119 forward $113 $-1 #
edge $-1 $194 0 $194 6.2831853071796004 $118 $195 forward 7 unknown #
face $-1 $196 $197 $18 $-1 $198 reversed single #
loop $-1 $-1 $199 $74 #
plane-surface $-1 -70.326853236487921 0 0 1 0 0 0 0 -1 forward_v I I I I #
coedge $-1 $200 $131 $201 $202 forward $75 $-1 #
coedge $-1 $203 $77 $200 $204 forward $49 $-1 #
coedge $-1 $77 $203 $205 $206 forward $49 $-1 #
coedge $-1 $134 $133 $77 $127 reversed $135 $-1 #
edge $-1 $207 -34.856080648717757 $208 34.856080648717757 $126 $209 forward 7 unknown #
coedge $-1 $79 $78 $210 $211 forward $31 $-1 #
coedge $-1 $212 $213 $78 $130 reversed $197 $-1 #
edge $-1 $137 -70.326853236487921 $214 70.326853236487921 $129 $215 forward 7 unknown #
coedge $-1 $123 $216 $79 $132 reversed $75 $-1 #
edge $-1 $217 -70.326853236487921 $136 70.326853236487921 $131 $218 forward 7 unknown #
coedge $-1 $126 $80 $216 $219 forward $135 $-1 #
coedge $-1 $80 $126 $212 $220 reversed $135 $-1 #
loop $-1 $-1 $133 $196 #
vertex $-1 $81 $221 #
vertex $-1 $81 $222 #
straight-curve $-1 70.326853236487921 0 13.4012997717402 0 1 0 I I #
face $-1 $223 $224 $19 $-1 $225 reversed single #
loop $-1 $-1 $226 $82 #
plane-surface $-1 -70.326853236487921 0 0 1 0 0 0 0 -1 forward_v I I I I #
coedge $-1 $227 $148 $153 $228 reversed $83 $-1 #
coedge $-1 $229 $85 $230 $231 reversed $53 $-1 #
coedge $-1 $85 $229 $227 $232 forward $53 $-1 #
coedge $-1 $153 $152 $85 $146 forward $154 $-1 #
edge $-1 $233 -20.681529250967902 $234 -7.6675735445318089 $145 $235 forward 7 unknown #
coedge $-1 $87 $86 $226 $236 reversed $34 $-1 #
coedge $-1 $142 $237 $86 $149 reversed $83 $-1 #
edge $-1 $155 -70.326853236487921 $238 70.326853236487921 $148 $239 forward 7 unknown #
coedge $-1 $240 $241 $87 $151 forward $224 $-1 #
edge $-1 $156 -70.326853236487921 $242 70.326853236487921 $150 $243 forward 7 unknown #
coedge $-1 $145 $88 $241 $244 forward $154 $-1 #
coedge $-1 $88 $145 $142 $228 forward $154 $-1 #
loop $-1 $-1 $88 $223 #
vertex $-1 $89 $245 #
vertex $-1 $244 $246 #
straight-curve $-1 70.326853236487921 -14.174551397749855 12.869497894813797 0 -1 0 I I #
face $-1 $-1 $247 $20 $-1 $248 reversed single #
loop $-1 $-1 $96 $90 #
plane-surface $-1 70.326853236487921 0 0 -1 0 0 0 0 1 forward_v I I I I #
coedge $-1 $166 $249 $250 $251 forward $91 $-1 #
coedge $-1 $250 $93 $95 $168 forward $57 $-1 #
coedge $-1 $93 $250 $252 $253 reversed $57 $-1 #
coedge $-1 $254 $96 $93 $165 forward $159 $-1 #
edge $-1 $171 6.3469579587693588 $255 21.121734446222046 $164 $256 forward 7 unknown #
coedge $-1 $257 $161 $94 $167 forward $91 $-1 #
edge $-1 $258 8.2001580225553568 $170 12.790425496081639 $166 $259 forward 7 unknown #
edge $-1 $171 -140.65370647297578 $258 -131.99150471282107 $95 $260 forward 7 unknown #
coedge $-1 $96 $254 $257 $261 reversed $159 $-1 #
vertex $-1 $261 $262 #
vertex $-1 $97 $263 #
straight-curve $-1 70.326853236487921 20.081304161265063 99.935775980154133 0 0 -1 I I #
coedge $-1 $173 $173 $-1 $264 reversed $100 $-1 #
edge $-1 $265 0 $265 6.2831853071796004 $101 $266 forward 7 unknown #
vertex $-1 $104 $267 #
ellipse-curve $-1 68.031719499724787 27.468692404991408 9.7283178818068077 0.84804810408105047 0 0.52991925155115449 1.059838503102309 0 -1.6960962081621009 1 I I #
face $-1 $-1 $268 $22 $-1 $269 reversed single #
loop $-1 $-1 $183 $105 #
plane-surface $-1 0 0 13.4012997717402 0 0 1 1 0 0 forward_v I I I I #
coedge $-1 $270 $271 $182 $272 forward $106 $-1 #
coedge $-1 $273 $108 $110 $187 forward $66 $-1 #
coedge $-1 $108 $273 $180 $272 reversed $66 $-1 #
coedge $-1 $274 $111 $108 $184 forward $178 $-1 #
edge $-1 $190 6.3469579587693588 $275 21.121734446222046 $183 $276 forward 7 unknown #
coedge $-1 $277 $278 $109 $186 forward $268 $-1 #
edge $-1 $279 -34.239885435090848 $189 -26.893921655224084 $185 $280 forward 7 unknown #
edge $-1 $190 -8.6622017601547405 $279 0 $110 $281 forward 7 unknown #
coedge $-1 $111 $274 $277 $282 forward $178 $-1 #
vertex $-1 $186 $283 #
vertex $-1 $112 $284 #
straight-curve $-1 -94.803981171433833 20.081304161265063 13.401299771740199 1 0 0 I I #
coedge $-1 $192 $192 $-1 $285 reversed $115 $-1 #
edge $-1 $286 0 $286 6.2831853071796004 $116 $287 forward 7 unknown #
vertex $-1 $119 $288 #
ellipse-curve $-1 -68.031719499724773 27.468692404991408 9.7283178818068095 -0.84804810408105047 0 0.52991925155115449 1.059838503102309 0 1.6960962081621009 1 I I #
face $-1 $-1 $135 $18 $-1 $289 reversed single #
loop $-1 $-1 $212 $120 #
plane-surface $-1 0 34.856080648717757 0 0 -1 0 0 0 -1 forward_v I I I I #
coedge $-1 $290 $210 $213 $291 forward $121 $-1 #
coedge $-1 $216 $123 $124 $204 reversed $75 $-1 #
coedge $-1 $210 $290 $123 $202 reversed $121 $-1 #
edge $-1 $217 -13.4012997717402 $292 13.4012997717402 $201 $293 forward 7 unknown #
coedge $-1 $125 $124 $290 $294 forward $49 $-1 #
edge $-1 $208 -70.326853236487921 $292 70.326853236487921 $200 $295 forward 7 unknown #
coedge $-1 $213 $212 $125 $206 reversed $197 $-1 #
edge $-1 $296 -70.326853236487921 $207 70.326853236487921 $205 $297 forward 7 unknown #
vertex $-1 $127 $298 #
vertex $-1 $219 $299 #
straight-curve $-1 70.326853236487921 0 -13.4012997717402 0 -1 0 I I #
coedge $-1 $199 $201 $128 $211 reversed $121 $-1 #
edge $-1 $214 -34.856080648717757 $217 34.856080648717757 $210 $300 forward 7 unknown #
coedge $-1 $205 $129 $134 $220 forward $197 $-1 #
coedge $-1 $129 $205 $199 $291 reversed $197 $-1 #
vertex $-1 $130 $301 #
straight-curve $-1 0 34.856080648717757 13.4012997717402 -1 0 0 I I #
coedge $-1 $131 $200 $133 $219 reversed $75 $-1 #
vertex $-1 $211 $302 #
straight-curve $-1 0 -34.856080648717757 13.4012997717402 1 0 0 I I #
edge $-1 $136 -13.4012997717402 $208 13.4012997717402 $133 $303 forward 7 unknown #
edge $-1 $137 -13.4012997717402 $207 13.4012997717402 $134 $304 forward 7 unknown #
point $-1 70.326853236487921 -34.856080648717757 13.4012997717402 #
point $-1 70.326853236487921 34.856080648717757 13.4012997717402 #
face $-1 $-1 $154 $19 $-1 $305 reversed single #
loop $-1 $-1 $150 $139 #
plane-surface $-1 0 -34.856080648717757 0 0 1 0 0 0 1 forward_v I I I I #
coedge $-1 $306 $307 $147 $236 forward $140 $-1 #
coedge $-1 $237 $142 $144 $232 reversed $83 $-1 #
edge $-1 $234 2.1358997443741936 $155 7.8676986817511336 $153 $308 forward 7 unknown #
coedge $-1 $144 $143 $309 $310 reversed $53 $-1 #
coedge $-1 $241 $240 $143 $231 forward $224 $-1 #
edge $-1 $311 -70.326853236487921 $233 70.326853236487921 $230 $312 forward 7 unknown #
edge $-1 $313 -70.326853236487921 $234 70.326853236487921 $227 $314 forward 7 unknown #
vertex $-1 $231 $315 #
vertex $-1 $146 $316 #
straight-curve $-1 70.326853236487921 -14.174551397749855 7.1376989574368572 0 1 0 I I #
edge $-1 $242 -20.681529250967902 $238 -7.6675735445318089 $226 $317 forward 7 unknown #
coedge $-1 $148 $227 $306 $318 reversed $83 $-1 #
vertex $-1 $236 $319 #
straight-curve $-1 0 -21.842124942281664 12.869497894813797 -1 0 0 I I #
coedge $-1 $230 $150 $307 $320 forward $224 $-1 #
coedge $-1 $150 $230 $152 $244 reversed $224 $-1 #
vertex $-1 $320 $321 #
straight-curve $-1 0 -34.856080648717757 12.869497894813797 -1 0 0 I I #
edge $-1 $156 -12.869497894813797 $233 -7.1376989574368572 $152 $322 forward 7 unknown #
point $-1 70.326853236487921 -21.842124942281664 12.869497894813797 #
point $-1 70.326853236487921 -34.856080648717757 12.869497894813797 #
loop $-1 $-1 $252 $158 #
plane-surface $-1 0 34.856080648717757 0 0 -1 0 0 0 -1 forward_v I I I I #
coedge $-1 $161 $257 $323 $324 forward $91 $-1 #
coedge $-1 $163 $162 $161 $251 reversed $57 $-1 #
edge $-1 $325 -21.121734446222046 $258 -6.3469579587693588 $161 $326 forward 7 unknown #
coedge $-1 $323 $327 $163 $253 forward $247 $-1 #
edge $-1 $255 -86.393021848260645 $325 -77.730820088105943 $252 $328 forward 7 unknown #
coedge $-1 $169 $164 $327 $329 reversed $159 $-1 #
vertex $-1 $253 $330 #
straight-curve $-1 70.326853236487921 13.734346202495704 6.0553359918734486 0 1 0 I I #
coedge $-1 $249 $166 $169 $261 forward $91 $-1 #
vertex $-1 $167 $331 #
straight-curve $-1 57.536427740406282 20.081304161265063 13.401299771740199 1 0 0 I I #
straight-curve $-1 -4.2082536255671812 20.081304161265063 125.33644509825314 -0.52991925155115449 0 0.84804810408105047 I I #
edge $-1 $170 20.081304161265063 $332 34.856080648717757 $169 $333 forward 7 unknown #
point $-1 70.326853236487921 20.081304161265063 13.4012997717402 #
point $-1 70.326853236487921 20.081304161265063 6.0553359918734486 #
edge $-1 $334 1 $334 0 $173 $-1 forward 7 unknown #
vertex $-1 $174 $335 #
ellipse-curve $-1 61.763042742942908 27.468692404991408 5.8112140298153072 0.84804810408105047 0 0.52991925155115449 1.059838503102309 0 -1.6960962081621009 1 I I #
point $-1 69.091558002827071 27.468692404991408 8.0322216736446954 #
loop $-1 $-1 $185 $177 #
plane-surface $-1 -70.326853236487921 0 0 1 0 0 0 0 -1 forward_v I I I I #
coedge $-1 $271 $180 $336 $337 reversed $106 $-1 #
coedge $-1 $180 $270 $274 $338 reversed $106 $-1 #
edge $-1 $275 7.4039668516180335 $339 16.066168611772774 $180 $340 forward 7 unknown #
coedge $-1 $182 $181 $278 $341 reversed $66 $-1 #
coedge $-1 $188 $183 $271 $338 forward $178 $-1 #
vertex $-1 $338 $342 #
straight-curve $-1 -65.736585762961624 13.734346202495704 13.4012997717402 0 1 0 I I #
coedge $-1 $336 $185 $188 $282 reversed $268 $-1 #
coedge $-1 $185 $336 $273 $341 forward $268 $-1 #
vertex $-1 $186 $343 #
straight-curve $-1 -70.326853236487921 20.081304161265063 40.295221426964282 0 0 1 I I #
straight-curve $-1 -70.326853236487921 20.081304161265063 6.0553359918734344 -0.52991925155115449 0 -0.84804810408105047 I I #
edge $-1 $344 -34.856080648717757 $189 -20.081304161265063 $277 $345 forward 7 unknown #
point $-1 -70.326853236487921 20.081304161265063 13.4012997717402 #
point $-1 -65.736585762961624 20.081304161265063 13.4012997717402 #
edge $-1 $346 1 $346 0 $192 $-1 forward 7 unknown #
vertex $-1 $193 $347 #
ellipse-curve $-1 -61.763042742942908 27.468692404991408 5.8112140298153143 -0.84804810408105047 0 0.52991925155115449 1.059838503102309 0 1.6960962081621009 1 I I #
point $-1 -66.97188099662246 27.468692404991408 11.424414089968904 #
plane-surface $-1 70.326853236487921 0 0 -1 0 0 0 0 1 forward_v I I I I #
coedge $-1 $201 $199 $203 $294 reversed $121 $-1 #
edge $-1 $214 -13.4012997717402 $296 13.4012997717402 $213 $348 forward 7 unknown #
vertex $-1 $294 $349 #
straight-curve $-1 -70.326853236487921 -34.856080648717757 0 0 0 -1 I I #
edge $-1 $292 -34.856080648717757 $296 34.856080648717757 $290 $350 forward 7 unknown #
straight-curve $-1 0 -34.856080648717757 -13.4012997717402 -1 0 0 I I #
vertex $-1 $206 $351 #
straight-curve $-1 0 34.856080648717757 -13.4012997717402 1 0 0 I I #
point $-1 70.326853236487921 34.856080648717757 -13.4012997717402 #
point $-1 70.326853236487921 -34.856080648717757 -13.4012997717402 #
straight-curve $-1 -70.326853236487921 0 13.4012997717402 0 -1 0 I I #
point $-1 -70.326853236487921 34.856080648717757 13.4012997717402 #
point $-1 -70.326853236487921 -34.856080648717757 13.4012997717402 #
straight-curve $-1 70.326853236487921 -34.856080648717757 0 0 0 -1 I I #
straight-curve $-1 70.326853236487921 34.856080648717757 0 0 0 -1 I I #
plane-surface $-1 70.326853236487921 0 0 -1 0 0 0 0 1 forward_v I I I I #
coedge $-1 $309 $226 $237 $318 forward $140 $-1 #
coedge $-1 $226 $309 $240 $320 reversed $140 $-1 #
straight-curve $-1 70.326853236487921 -21.842124942281664 5.0017992130626636 0 0 1 I I #
coedge $-1 $307 $306 $229 $310 forward $140 $-1 #
edge $-1 $313 7.6675735445318089 $311 20.681529250967902 $309 $352 forward 7 unknown #
vertex $-1 $231 $353 #
straight-curve $-1 0 -34.856080648717757 7.1376989574368572 1 0 0 I I #
vertex $-1 $310 $354 #
straight-curve $-1 0 -21.842124942281664 7.1376989574368572 1 0 0 I I #
point $-1 70.326853236487921 -34.856080648717757 7.1376989574368572 #
point $-1 70.326853236487921 -21.842124942281664 7.1376989574368572 #
straight-curve $-1 -70.326853236487921 -14.174551397749855 12.869497894813797 0 1 0 I I #
edge $-1 $238 -7.8676986817511336 $313 -2.1358997443741936 $306 $355 forward 7 unknown #
point $-1 -70.326853236487921 -21.842124942281664 12.869497894813797 #
edge $-1 $242 -12.869497894813797 $311 -7.1376989574368572 $307 $356 forward 7 unknown #
point $-1 -70.326853236487921 -34.856080648717757 12.869497894813797 #
straight-curve $-1 70.326853236487921 -34.856080648717757 0 0 0 -1 I I #
coedge $-1 $327 $252 $249 $324 reversed $247 $-1 #
edge $-1 $332 -70.326853236487921 $325 -65.736585762961639 $323 $357 forward 7 unknown #
vertex $-1 $253 $358 #
straight-curve $-1 65.736585762961653 13.734346202495704 13.401299771740199 0 -1 0 I I #
coedge $-1 $252 $323 $254 $329 forward $247 $-1 #
straight-curve $-1 24.545527759415094 34.856080648717757 79.320774376123666 -0.52991925155115449 0 0.84804810408105047 I I #
edge $-1 $332 -13.4012997717402 $255 -6.0553359918734486 $254 $359 forward 7 unknown #
point $-1 70.326853236487921 34.85608064871775 6.0553359918734486 #
point $-1 65.736585762961639 20.081304161265063 13.401299771740184 #
vertex $-1 $261 $360 #
straight-curve $-1 70.326853236487921 0 13.4012997717402 0 1 0 I I #
vertex $-1 $264 $361 #
point $-1 62.822881246045213 27.468692404991408 4.1151178216532056 #
coedge $-1 $278 $277 $270 $337 forward $268 $-1 #
edge $-1 $344 -13.4012997717402 $339 -6.0553359918734344 $270 $362 forward 7 unknown #
edge $-1 $275 65.736585762961624 $344 70.326853236487921 $271 $363 forward 7 unknown #
vertex $-1 $272 $364 #
straight-curve $-1 -61.813081190442645 34.856080648717757 19.680219822933822 -0.52991925155115449 0 -0.84804810408105047 I I #
edge $-1 $339 -21.121734446222046 $279 -6.3469579587693588 $278 $365 forward 7 unknown #
point $-1 -65.736585762961624 34.85608064871775 13.4012997717402 #
point $-1 -70.326853236487921 20.081304161265063 6.0553359918734344 #
vertex $-1 $338 $366 #
straight-curve $-1 -70.326853236487921 0 13.4012997717402 0 -1 0 I I #
vertex $-1 $285 $367 #
point $-1 -60.703204239840595 27.468692404991408 7.507310237977415 #
straight-curve $-1 -70.326853236487921 34.856080648717757 0 0 0 -1 I I #
point $-1 -70.326853236487921 -34.856080648717757 -13.4012997717402 #
straight-curve $-1 -70.326853236487921 0 -13.4012997717402 0 1 0 I I #
point $-1 -70.326853236487921 34.856080648717757 -13.4012997717402 #
straight-curve $-1 -70.326853236487921 -14.174551397749855 7.1376989574368572 0 -1 0 I I #
point $-1 -70.326853236487921 -34.856080648717757 7.1376989574368572 #
point $-1 -70.326853236487921 -21.842124942281664 7.1376989574368572 #
straight-curve $-1 -70.326853236487921 -21.842124942281664 5.0017992130626636 0 0 -1 I I #
straight-curve $-1 -70.326853236487921 -34.856080648717757 0 0 0 -1 I I #
straight-curve $-1 0 34.856080648717757 13.4012997717402 -1 0 0 I I #
point $-1 65.736585762961639 34.85608064871775 13.401299771740184 #
straight-curve $-1 70.326853236487921 34.856080648717757 0 0 0 -1 I I #
point $-1 70.326853236487921 34.856080648717757 13.4012997717402 #
point $-1 60.066946534780804 27.468692404991408 4.751375526712998 #
straight-curve $-1 -70.326853236487921 34.856080648717757 0 0 0 -1 I I #
straight-curve $-1 0 34.856080648717757 13.4012997717402 -1 0 0 I I #
point $-1 -70.326853236487921 34.85608064871775 6.0553359918734344 #
straight-curve $-1 -70.326853236487921 13.734346202495704 6.0553359918734433 0 -1 0 I I #
point $-1 -70.326853236487921 34.856080648717757 13.4012997717402 #
point $-1 -60.066946534780804 27.468692404991408 4.7513755267130051 #
End-of-ACIS-data 