500 0 3 0           
7 Unknown 11 ACIS 5.0 NT 24 Thu Mar 25 17:22:18 1999 
-1 9.9999999999999995e-007 1e-010 
body $-1 $3 $-1 $4 #
body $-1 $5 $-1 $6 #
body $-1 $7 $-1 $8 #
lump $-1 $-1 $9 $0 #
transform $-1 1 0 0 0 1 0 0 0 1 71.133762627033292 35.315925688659775 9.9159859344272157 1 rotate no_reflect no_shear #
lump $-1 $-1 $10 $1 #
transform $-1 1 0 0 0 1 0 0 0 1 71.133762627033292 35.315925688659775 9.9159859344272157 1 rotate no_reflect no_shear #
lump $-1 $-1 $11 $2 #
transform $-1 1 0 0 0 1 0 0 0 1 71.133762627033292 35.315925688659775 9.9159859344272157 1 rotate no_reflect no_shear #
shell $-1 $-1 $-1 $12 $-1 $3 #
shell $-1 $-1 $-1 $13 $-1 $5 #
shell $-1 $-1 $-1 $14 $-1 $7 #
face $-1 $15 $16 $9 $-1 $17 forward single #
face $-1 $18 $19 $10 $-1 $20 forward single #
face $-1 $21 $22 $11 $-1 $23 forward single #
face $-1 $24 $25 $9 $-1 $26 reversed single #
loop $-1 $-1 $27 $12 #
plane-surface $-1 0 0 9.9159859344272157 0 0 1 1 0 0 forward_v I I I I #
face $-1 $28 $29 $10 $-1 $30 forward single #
loop $-1 $-1 $31 $13 #
plane-surface $-1 0 -35.315925688659775 0 0 1 0 0 0 1 forward_v I I I I #
face $-1 $32 $33 $11 $-1 $34 forward single #
loop $-1 $-1 $35 $14 #
plane-surface $-1 0 35.315925688659775 0 0 -1 0 0 0 -1 forward_v I I I I #
face $-1 $36 $37 $9 $-1 $38 reversed single #
loop $-1 $-1 $39 $15 #
plane-surface $-1 0 0 -9.9159859344272157 0 0 1 1 0 0 forward_v I I I I #
coedge $-1 $40 $41 $42 $43 forward $16 $-1 #
face $-1 $44 $45 $10 $-1 $46 reversed single #
loop $-1 $-1 $47 $18 #
plane-surface $-1 0 0 9.9159859344272157 0 0 1 1 0 0 forward_v I I I I #
coedge $-1 $48 $49 $50 $51 forward $19 $-1 #
face $-1 $52 $53 $11 $-1 $54 reversed single #
loop $-1 $-1 $55 $21 #
plane-surface $-1 0 0 9.9159859344272157 0 0 1 1 0 0 forward_v I I I I #
coedge $-1 $56 $57 $58 $59 forward $22 $-1 #
face $-1 $60 $61 $9 $-1 $62 reversed single #
loop $-1 $-1 $63 $24 #
plane-surface $-1 0 -35.315925688659775 0 0 1 0 0 0 1 forward_v I I I I #
coedge $-1 $64 $65 $66 $67 forward $25 $-1 #
coedge $-1 $68 $27 $69 $70 forward $16 $-1 #
coedge $-1 $27 $68 $71 $72 forward $16 $-1 #
coedge $-1 $73 $74 $27 $43 reversed $75 $-1 #
edge $-1 $76 -35.315925688659775 $77 35.315925688659775 $42 $78 forward 7 unknown #
face $-1 $79 $80 $10 $-1 $81 reversed single #
loop $-1 $-1 $82 $28 #
plane-surface $-1 -71.133762627033292 0 0 1 0 0 0 0 -1 forward_v I I I I #
coedge $-1 $83 $84 $49 $85 forward $29 $-1 #
coedge $-1 $86 $31 $87 $88 reversed $19 $-1 #
coedge $-1 $31 $86 $47 $85 reversed $19 $-1 #
coedge $-1 $89 $90 $31 $51 reversed $91 $-1 #
edge $-1 $92 -9.9159859344272157 $93 9.9159859344272157 $50 $94 forward 7 unknown #
face $-1 $95 $96 $11 $-1 $97 reversed single #
loop $-1 $-1 $98 $32 #
plane-surface $-1 -69.633762627033292 46.354200169398204 0 0 -1 0 0 0 -1 forward_v I I I I #
coedge $-1 $99 $100 $56 $101 forward $33 $-1 #
coedge $-1 $102 $35 $55 $101 reversed $22 $-1 #
coedge $-1 $35 $102 $103 $104 reversed $22 $-1 #
coedge $-1 $105 $106 $35 $59 reversed $96 $-1 #
edge $-1 $107 -9.9159859344272157 $108 9.9159859344272157 $58 $109 forward 7 unknown #
face $-1 $110 $111 $9 $-1 $112 reversed single #
loop $-1 $-1 $113 $36 #
plane-surface $-1 -71.133762627033292 0 0 1 0 0 0 0 -1 forward_v I I I I #
coedge $-1 $114 $71 $115 $116 forward $37 $-1 #
coedge $-1 $117 $39 $114 $118 forward $25 $-1 #
coedge $-1 $39 $117 $119 $120 forward $25 $-1 #
coedge $-1 $74 $73 $39 $67 reversed $75 $-1 #
edge $-1 $121 -35.315925688659775 $122 35.315925688659775 $66 $123 forward 7 unknown #
coedge $-1 $41 $40 $124 $125 forward $16 $-1 #
coedge $-1 $126 $127 $40 $70 reversed $111 $-1 #
edge $-1 $77 -71.133762627033292 $128 71.133762627033292 $69 $129 forward 7 unknown #
coedge $-1 $63 $130 $41 $72 reversed $37 $-1 #
edge $-1 $131 -71.133762627033292 $76 71.133762627033292 $71 $132 forward 7 unknown #
coedge $-1 $66 $42 $130 $133 forward $75 $-1 #
coedge $-1 $42 $66 $126 $134 reversed $75 $-1 #
loop $-1 $-1 $73 $110 #
vertex $-1 $43 $135 #
vertex $-1 $43 $136 #
straight-curve $-1 71.133762627033292 0 9.9159859344272157 0 1 0 I I #
face $-1 $137 $91 $10 $-1 $138 reversed single #
loop $-1 $-1 $139 $44 #
plane-surface $-1 -69.633762627033292 -46.354200169398197 0 0 1 0 0 0 1 forward_v I I I I #
coedge $-1 $140 $141 $86 $142 forward $45 $-1 #
coedge $-1 $143 $47 $141 $144 forward $29 $-1 #
coedge $-1 $47 $143 $89 $145 forward $29 $-1 #
edge $-1 $92 68.133762627033292 $146 71.133762627033292 $47 $147 forward 7 unknown #
coedge $-1 $49 $48 $82 $142 reversed $19 $-1 #
coedge $-1 $148 $149 $48 $88 forward $150 $-1 #
edge $-1 $151 -71.133762627033292 $93 -68.133762627033292 $87 $152 forward 7 unknown #
coedge $-1 $153 $50 $84 $145 reversed $91 $-1 #
coedge $-1 $50 $153 $148 $154 reversed $91 $-1 #
loop $-1 $-1 $153 $79 #
vertex $-1 $85 $155 #
vertex $-1 $154 $156 #
straight-curve $-1 -68.133762627033292 -35.315925688659775 0 0 0 -1 I I #
face $-1 $157 $158 $11 $-1 $159 reversed single #
loop $-1 $-1 $58 $52 #
plane-surface $-1 -68.133762627033292 40.835062929028993 0 -1 0 0 0 0 1 forward_v I I I I #
coedge $-1 $160 $161 $162 $163 forward $53 $-1 #
coedge $-1 $164 $55 $106 $165 forward $33 $-1 #
coedge $-1 $55 $164 $166 $167 forward $33 $-1 #
edge $-1 $168 -71.133762627033292 $108 -68.133762627033292 $55 $169 forward 7 unknown #
coedge $-1 $57 $56 $170 $171 reversed $22 $-1 #
coedge $-1 $172 $173 $57 $104 forward $158 $-1 #
edge $-1 $107 68.133762627033292 $174 71.133762627033292 $103 $175 forward 7 unknown #
coedge $-1 $162 $58 $173 $176 reversed $96 $-1 #
coedge $-1 $58 $162 $99 $165 reversed $96 $-1 #
vertex $-1 $104 $177 #
vertex $-1 $165 $178 #
straight-curve $-1 -68.133762627033292 35.315925688659775 0 0 0 1 I I #
face $-1 $-1 $75 $9 $-1 $179 reversed single #
loop $-1 $-1 $126 $60 #
plane-surface $-1 0 35.315925688659775 0 0 -1 0 0 0 -1 forward_v I I I I #
coedge $-1 $180 $124 $127 $181 forward $61 $-1 #
coedge $-1 $130 $63 $64 $118 reversed $37 $-1 #
coedge $-1 $124 $180 $63 $116 reversed $61 $-1 #
edge $-1 $131 -9.9159859344272157 $182 9.9159859344272157 $115 $183 forward 7 unknown #
coedge $-1 $65 $64 $180 $184 forward $25 $-1 #
edge $-1 $122 -71.133762627033292 $182 71.133762627033292 $114 $185 forward 7 unknown #
coedge $-1 $127 $126 $65 $120 reversed $111 $-1 #
edge $-1 $186 -71.133762627033292 $121 71.133762627033292 $119 $187 forward 7 unknown #
vertex $-1 $67 $188 #
vertex $-1 $133 $189 #
straight-curve $-1 71.133762627033292 0 -9.9159859344272157 0 -1 0 I I #
coedge $-1 $113 $115 $68 $125 reversed $61 $-1 #
edge $-1 $128 -35.315925688659775 $131 35.315925688659775 $124 $190 forward 7 unknown #
coedge $-1 $119 $69 $74 $134 forward $111 $-1 #
coedge $-1 $69 $119 $113 $181 reversed $111 $-1 #
vertex $-1 $70 $191 #
straight-curve $-1 0 35.315925688659775 9.9159859344272157 -1 0 0 I I #
coedge $-1 $71 $114 $73 $133 reversed $37 $-1 #
vertex $-1 $125 $192 #
straight-curve $-1 0 -35.315925688659775 9.9159859344272157 1 0 0 I I #
edge $-1 $76 -9.9159859344272157 $122 9.9159859344272157 $73 $193 forward 7 unknown #
edge $-1 $77 -9.9159859344272157 $121 9.9159859344272157 $74 $194 forward 7 unknown #
point $-1 71.133762627033292 -35.315925688659775 9.9159859344272157 #
point $-1 71.133762627033292 35.315925688659775 9.9159859344272157 #
face $-1 $-1 $150 $10 $-1 $195 reversed single #
plane-surface $-1 -68.133762627033292 -40.835062929028986 0 -1 0 0 0 0 1 forward_v I I I I #
coedge $-1 $196 $197 $198 $199 forward $80 $-1 #
coedge $-1 $198 $82 $149 $200 reversed $45 $-1 #
coedge $-1 $82 $198 $83 $144 reversed $45 $-1 #
edge $-1 $146 -9.9159859344272157 $151 9.9159859344272157 $82 $201 forward 7 unknown #
coedge $-1 $84 $83 $197 $202 forward $29 $-1 #
edge $-1 $146 35.315925688659775 $203 46.354200169398197 $141 $204 forward 7 unknown #
edge $-1 $205 -5.5191372403692114 $92 5.5191372403692114 $89 $206 forward 7 unknown #
vertex $-1 $144 $207 #
straight-curve $-1 0 -35.315925688659775 9.9159859344272157 -1 0 0 I I #
coedge $-1 $208 $87 $90 $154 forward $150 $-1 #
coedge $-1 $87 $208 $140 $200 forward $150 $-1 #
loop $-1 $-1 $87 $137 #
vertex $-1 $142 $209 #
straight-curve $-1 0 -35.315925688659775 -9.9159859344272157 1 0 0 I I #
coedge $-1 $90 $89 $210 $211 forward $91 $-1 #
edge $-1 $93 -5.5191372403692114 $212 5.5191372403692114 $90 $213 forward 7 unknown #
point $-1 -68.133762627033292 -35.315925688659775 9.9159859344272157 #
point $-1 -68.133762627033292 -35.315925688659775 -9.9159859344272157 #
face $-1 $-1 $214 $11 $-1 $215 reversed single #
loop $-1 $-1 $103 $95 #
plane-surface $-1 0 0 -9.9159859344272157 0 0 1 1 0 0 forward_v I I I I #
coedge $-1 $216 $98 $217 $218 reversed $53 $-1 #
coedge $-1 $98 $216 $164 $219 reversed $53 $-1 #
coedge $-1 $106 $105 $98 $163 reversed $96 $-1 #
edge $-1 $220 -9.9159859344272157 $221 9.9159859344272157 $162 $222 forward 7 unknown #
coedge $-1 $100 $99 $161 $219 forward $33 $-1 #
edge $-1 $108 -5.5191372403692114 $220 5.5191372403692114 $106 $223 forward 7 unknown #
coedge $-1 $224 $170 $100 $167 reversed $214 $-1 #
edge $-1 $225 -46.354200169398204 $168 -35.315925688659775 $166 $226 forward 7 unknown #
vertex $-1 $171 $227 #
straight-curve $-1 0 35.315925688659775 9.9159859344272157 1 0 0 I I #
coedge $-1 $166 $228 $102 $171 forward $214 $-1 #
edge $-1 $174 -9.9159859344272157 $168 9.9159859344272157 $170 $229 forward 7 unknown #
coedge $-1 $217 $103 $228 $230 forward $158 $-1 #
coedge $-1 $103 $217 $105 $176 forward $158 $-1 #
vertex $-1 $230 $231 #
straight-curve $-1 0 35.315925688659775 -9.9159859344272157 -1 0 0 I I #
edge $-1 $221 -5.5191372403692114 $107 5.5191372403692114 $105 $232 forward 7 unknown #
point $-1 -68.133762627033292 35.315925688659782 -9.9159859344272157 #
point $-1 -68.133762627033292 35.315925688659782 9.9159859344272157 #
plane-surface $-1 71.133762627033292 0 0 -1 0 0 0 0 1 forward_v I I I I #
coedge $-1 $115 $113 $117 $184 reversed $61 $-1 #
edge $-1 $128 -9.9159859344272157 $186 9.9159859344272157 $127 $233 forward 7 unknown #
vertex $-1 $184 $234 #
straight-curve $-1 -71.133762627033292 -35.315925688659775 0 0 0 -1 I I #
edge $-1 $182 -35.315925688659775 $186 35.315925688659775 $180 $235 forward 7 unknown #
straight-curve $-1 0 -35.315925688659775 -9.9159859344272157 -1 0 0 I I #
vertex $-1 $120 $236 #
straight-curve $-1 0 35.315925688659775 -9.9159859344272157 1 0 0 I I #
point $-1 71.133762627033292 35.315925688659775 -9.9159859344272157 #
point $-1 71.133762627033292 -35.315925688659775 -9.9159859344272157 #
straight-curve $-1 -71.133762627033292 0 9.9159859344272157 0 -1 0 I I #
point $-1 -71.133762627033292 35.315925688659775 9.9159859344272157 #
point $-1 -71.133762627033292 -35.315925688659775 9.9159859344272157 #
straight-curve $-1 71.133762627033292 -35.315925688659775 0 0 0 -1 I I #
straight-curve $-1 71.133762627033292 35.315925688659775 0 0 0 -1 I I #
plane-surface $-1 0 0 -9.9159859344272157 0 0 1 1 0 0 forward_v I I I I #
coedge $-1 $210 $139 $208 $237 reversed $80 $-1 #
coedge $-1 $139 $210 $143 $202 reversed $80 $-1 #
coedge $-1 $141 $140 $139 $199 reversed $45 $-1 #
edge $-1 $203 -9.9159859344272157 $238 9.9159859344272157 $198 $239 forward 7 unknown #
edge $-1 $238 -46.354200169398197 $151 -35.315925688659775 $140 $240 forward 7 unknown #
straight-curve $-1 -71.133762627033292 -35.315925688659775 0 0 0 -1 I I #
edge $-1 $203 -1.5 $205 1.5 $197 $241 forward 7 unknown #
vertex $-1 $144 $242 #
straight-curve $-1 -71.133762627033292 0 9.9159859344272157 0 -1 0 I I #
vertex $-1 $145 $243 #
straight-curve $-1 -68.133762627033292 -40.835062929028986 9.9159859344272157 0 1 0 I I #
point $-1 -71.133762627033292 -35.315925688659775 9.9159859344272157 #
coedge $-1 $149 $148 $196 $237 forward $150 $-1 #
point $-1 -71.133762627033292 -35.315925688659775 -9.9159859344272157 #
coedge $-1 $197 $196 $153 $211 reversed $80 $-1 #
edge $-1 $205 -9.9159859344272157 $212 9.9159859344272157 $153 $244 forward 7 unknown #
vertex $-1 $211 $245 #
straight-curve $-1 -68.133762627033292 -40.835062929028986 -9.9159859344272157 0 -1 0 I I #
loop $-1 $-1 $170 $157 #
plane-surface $-1 -71.133762627033292 0 0 1 0 0 0 0 -1 forward_v I I I I #
coedge $-1 $161 $160 $224 $246 reversed $53 $-1 #
coedge $-1 $173 $172 $160 $218 forward $158 $-1 #
edge $-1 $247 -1.5 $221 1.5 $160 $248 forward 7 unknown #
edge $-1 $220 -1.5 $225 1.5 $161 $249 forward 7 unknown #
vertex $-1 $165 $250 #
vertex $-1 $176 $251 #
straight-curve $-1 -68.133762627033292 46.354200169398204 0 0 0 -1 I I #
straight-curve $-1 -68.133762627033292 40.835062929028993 9.9159859344272157 0 1 0 I I #
coedge $-1 $228 $166 $216 $246 forward $214 $-1 #
vertex $-1 $219 $252 #
straight-curve $-1 -71.133762627033292 0 9.9159859344272157 0 -1 0 I I #
point $-1 -71.133762627033292 35.315925688659775 9.9159859344272157 #
coedge $-1 $170 $224 $172 $230 reversed $214 $-1 #
straight-curve $-1 -71.133762627033292 35.315925688659775 0 0 0 1 I I #
edge $-1 $174 -5.5191372403692185 $247 5.5191372403692114 $228 $253 forward 7 unknown #
point $-1 -71.133762627033292 35.315925688659775 -9.9159859344272157 #
straight-curve $-1 -68.133762627033292 40.835062929028993 -9.9159859344272157 0 -1 0 I I #
straight-curve $-1 -71.133762627033292 35.315925688659775 0 0 0 -1 I I #
point $-1 -71.133762627033292 -35.315925688659775 -9.9159859344272157 #
straight-curve $-1 -71.133762627033292 0 -9.9159859344272157 0 1 0 I I #
point $-1 -71.133762627033292 35.315925688659775 -9.9159859344272157 #
edge $-1 $212 -1.5 $238 1.5 $196 $254 forward 7 unknown #
vertex $-1 $200 $255 #
straight-curve $-1 -71.133762627033292 -46.354200169398197 0 0 0 -1 I I #
straight-curve $-1 -71.133762627033292 0 -9.9159859344272157 0 1 0 I I #
straight-curve $-1 -69.633762627033292 -46.354200169398197 9.9159859344272157 1 0 0 I I #
point $-1 -71.133762627033292 -46.354200169398197 9.9159859344272157 #
point $-1 -68.133762627033292 -46.354200169398197 9.9159859344272157 #
straight-curve $-1 -68.133762627033292 -46.354200169398197 0 0 0 -1 I I #
point $-1 -68.133762627033292 -46.354200169398197 -9.9159859344272157 #
edge $-1 $225 -9.9159859344272157 $247 9.9159859344272157 $216 $256 forward 7 unknown #
vertex $-1 $218 $257 #
straight-curve $-1 -69.633762627033292 46.354200169398204 -9.9159859344272157 1 0 0 I I #
straight-curve $-1 -69.633762627033292 46.354200169398204 9.9159859344272157 -1 0 0 I I #
point $-1 -68.133762627033292 46.354200169398204 9.9159859344272157 #
point $-1 -68.133762627033292 46.354200169398204 -9.9159859344272157 #
point $-1 -71.133762627033292 46.354200169398204 9.9159859344272157 #
straight-curve $-1 -71.133762627033292 40.835062929028993 -9.9159859344272157 0 1 0 I I #
straight-curve $-1 -69.633762627033292 -46.354200169398197 -9.9159859344272157 -1 0 0 I I #
point $-1 -71.133762627033292 -46.354200169398197 -9.9159859344272157 #
straight-curve $-1 -71.133762627033292 46.354200169398204 0 0 0 -1 I I #
point $-1 -71.133762627033292 46.354200169398204 -9.9159859344272157 #
End-of-ACIS-data 