500 0 6 0           
7 Unknown 11 ACIS 5.0 NT 24 Fri Mar 26 19:21:05 1999 
-1 9.9999999999999995e-007 1e-010 
body $-1 $6 $-1 $7 #
body $-1 $8 $-1 $9 #
body $-1 $10 $-1 $11 #
body $-1 $12 $-1 $13 #
body $-1 $14 $-1 $15 #
body $-1 $16 $-1 $17 #
lump $-1 $-1 $18 $0 #
transform $-1 1 0 0 0 1 0 0 0 1 63.527329325235755 26.222884167650648 9.140436155913628 1 rotate no_reflect no_shear #
lump $-1 $-1 $19 $1 #
transform $-1 1 0 0 0 1 0 0 0 1 63.527329325235755 26.222884167650648 9.140436155913628 1 rotate no_reflect no_shear #
lump $-1 $-1 $20 $2 #
transform $-1 1 0 0 0 1 0 0 0 1 63.527329325235755 26.222884167650648 9.140436155913628 1 rotate no_reflect no_shear #
lump $-1 $-1 $21 $3 #
transform $-1 1 0 0 0 1 0 0 0 1 63.527329325235755 26.222884167650648 9.140436155913628 1 rotate no_reflect no_shear #
lump $-1 $-1 $22 $4 #
transform $-1 1 0 0 0 1 0 0 0 1 63.527329325235755 26.222884167650648 9.140436155913628 1 rotate no_reflect no_shear #
lump $-1 $-1 $23 $5 #
transform $-1 1 0 0 0 1 0 0 0 1 63.527329325235755 26.222884167650648 9.140436155913628 1 rotate no_reflect no_shear #
shell $-1 $-1 $-1 $24 $-1 $6 #
shell $-1 $-1 $-1 $25 $-1 $8 #
shell $-1 $-1 $-1 $26 $-1 $10 #
shell $-1 $-1 $-1 $27 $-1 $12 #
shell $-1 $-1 $-1 $28 $-1 $14 #
shell $-1 $-1 $-1 $29 $-1 $16 #
face $-1 $30 $31 $18 $-1 $32 forward single #
face $-1 $33 $34 $19 $-1 $35 forward single #
face $-1 $36 $37 $20 $-1 $38 reversed single #
face $-1 $39 $40 $21 $-1 $41 forward single #
face $-1 $42 $43 $22 $-1 $44 reversed single #
face $-1 $45 $46 $23 $-1 $47 forward single #
face $-1 $48 $49 $18 $-1 $50 reversed single #
loop $-1 $-1 $51 $24 #
plane-surface $-1 0 0 9.140436155913628 0 0 1 1 0 0 forward_v I I I I #
face $-1 $52 $53 $19 $-1 $54 reversed single #
loop $-1 $-1 $55 $25 #
plane-surface $-1 -63.527329325235755 0 0 1 0 0 0 0 -1 forward_v I I I I #
face $-1 $56 $57 $20 $-1 $58 reversed single #
loop $-1 $-1 $59 $26 #
plane-surface $-1 46.585798153444941 46.706074376505114 139.31148813682 1 0 0 0 -0.51503808176128008 -0.85716729658548041 forward_v I I I I #
face $-1 $60 $61 $21 $-1 $62 forward single #
loop $-1 $63 $64 $27 #
cone-surface $-1 55.056563739340348 20.337808008069501 4.4321636381005698 0 -0.51503808176128008 -0.85716729658548041 2.5 0 0 1 I I 0 1 2.5 forward I I I I #
face $-1 $65 $66 $22 $-1 $67 reversed single #
loop $-1 $-1 $68 $28 #
plane-surface $-1 55.056563739340348 -26.222884167650648 3.3928219428942583 0 -0.51503808176128008 0.85716729658548041 1 0 0 forward_v I I I I #
face $-1 $69 $70 $23 $-1 $71 forward single #
loop $-1 $72 $73 $29 #
cone-surface $-1 55.056563739340348 -20.337808008069501 4.4321636381005733 0 0.51503808176128008 -0.85716729658548041 2.5 0 0 1 I I 0 1 2.5 forward I I I I #
face $-1 $74 $75 $18 $-1 $76 reversed single #
loop $-1 $-1 $77 $30 #
plane-surface $-1 0 0 -9.140436155913628 0 0 1 1 0 0 forward_v I I I I #
coedge $-1 $78 $79 $80 $81 forward $31 $-1 #
face $-1 $82 $83 $19 $-1 $84 reversed single #
loop $-1 $-1 $85 $33 #
plane-surface $-1 0 26.222884167650648 0 0 -1 0 0 0 -1 forward_v I I I I #
coedge $-1 $86 $87 $88 $89 forward $34 $-1 #
face $-1 $90 $91 $20 $-1 $92 forward single #
loop $-1 $-1 $93 $36 #
plane-surface $-1 55.056563739340348 -18.731913293667958 30.404389862804322 0 0.51503808176128008 0.85716729658548041 1 0 0 forward_v I I I I #
coedge $-1 $94 $95 $96 $97 reversed $37 $-1 #
face $-1 $-1 $98 $21 $-1 $99 forward single #
loop $-1 $100 $101 $39 #
cone-surface $-1 55.056563739340348 18.591752363291164 1.5262391060653488 0 -0.51503808176128008 -0.85716729658548041 1.25 0 0 1 I I -0.70710678118654746 0.70710678118654768 1.25 forward I I I I #
loop $-1 $-1 $102 $27 #
coedge $-1 $64 $64 $103 $104 reversed $40 $-1 #
face $-1 $105 $106 $22 $-1 $107 forward single #
loop $-1 $-1 $108 $42 #
plane-surface $-1 46.585798153444941 -91.66087183782372 112.29992021690994 1 0 0 0 0.51503808176128008 -0.85716729658548041 forward_v I I I I #
coedge $-1 $109 $110 $111 $112 reversed $43 $-1 #
face $-1 $-1 $113 $23 $-1 $114 forward single #
loop $-1 $115 $116 $45 #
cone-surface $-1 55.056563739340348 -18.591752363291164 1.5262391060653524 0 0.51503808176128008 -0.85716729658548041 1.25 0 0 1 I I -0.70710678118654746 0.70710678118654768 1.25 forward I I I I #
loop $-1 $-1 $117 $29 #
coedge $-1 $73 $73 $118 $119 reversed $46 $-1 #
face $-1 $120 $121 $18 $-1 $122 reversed single #
loop $-1 $-1 $123 $48 #
plane-surface $-1 0 -26.222884167650648 0 0 1 0 0 0 1 forward_v I I I I #
coedge $-1 $124 $125 $126 $127 forward $49 $-1 #
coedge $-1 $128 $51 $129 $130 forward $31 $-1 #
coedge $-1 $51 $128 $131 $132 forward $31 $-1 #
coedge $-1 $133 $134 $51 $81 reversed $135 $-1 #
edge $-1 $136 -26.222884167650648 $137 26.222884167650648 $80 $138 forward 7 unknown #
face $-1 $139 $140 $19 $-1 $141 reversed single #
loop $-1 $-1 $88 $52 #
plane-surface $-1 -67.408891818402168 0 4.8908181717704515 0 0 1 1 0 0 forward_v I I I I #
coedge $-1 $142 $143 $86 $144 forward $53 $-1 #
coedge $-1 $145 $55 $85 $144 reversed $34 $-1 #
coedge $-1 $55 $145 $146 $147 reversed $34 $-1 #
coedge $-1 $148 $149 $55 $89 reversed $83 $-1 #
edge $-1 $150 -26.222884167650648 $151 26.222884167650648 $88 $152 forward 7 unknown #
face $-1 $153 $154 $20 $-1 $155 reversed single #
loop $-1 $-1 $96 $56 #
plane-surface $-1 0 0 9.140436155913628 0 0 1 1 0 0 forward_v I I I I #
coedge $-1 $156 $157 $158 $159 reversed $57 $-1 #
coedge $-1 $95 $59 $160 $161 reversed $37 $-1 #
coedge $-1 $59 $94 $156 $162 reversed $37 $-1 #
coedge $-1 $158 $163 $59 $97 forward $91 $-1 #
edge $-1 $164 -2.8698469793980905 $165 6.6957892546107232 $96 $166 forward 7 unknown #
loop $-1 $-1 $103 $60 #
plane-surface $-1 55.056563739340348 -18.731913293667958 30.404389862804322 0 0.51503808176128008 0.85716729658548041 1 0 0 forward_v I I I I #
loop $-1 $-1 $167 $39 #
coedge $-1 $101 $101 $102 $168 reversed $61 $-1 #
coedge $-1 $102 $102 $101 $168 forward $63 $-1 #
coedge $-1 $103 $103 $64 $104 forward $98 $-1 #
edge $-1 $169 -4.8619485656928458e-016 $169 6.2831853071795996 $103 $170 forward 7 unknown #
face $-1 $171 $172 $22 $-1 $173 reversed single #
loop $-1 $-1 $111 $65 #
plane-surface $-1 0 0 9.140436155913628 0 0 1 1 0 0 forward_v I I I I #
coedge $-1 $174 $175 $176 $177 reversed $66 $-1 #
coedge $-1 $178 $68 $179 $180 reversed $43 $-1 #
coedge $-1 $68 $178 $174 $181 forward $43 $-1 #
coedge $-1 $176 $182 $68 $112 forward $106 $-1 #
edge $-1 $183 -35.999047455565581 $184 -19.057516283774767 $111 $185 forward 7 unknown #
loop $-1 $-1 $118 $69 #
plane-surface $-1 55.056563739340348 -26.222884167650648 3.3928219428942583 0 -0.51503808176128008 0.85716729658548041 1 0 0 forward_v I I I I #
loop $-1 $-1 $186 $45 #
coedge $-1 $116 $116 $117 $187 reversed $70 $-1 #
coedge $-1 $117 $117 $116 $187 forward $72 $-1 #
coedge $-1 $118 $118 $73 $119 forward $113 $-1 #
edge $-1 $188 0 $188 6.2831853071796004 $118 $189 forward 7 unknown #
face $-1 $190 $191 $18 $-1 $192 reversed single #
loop $-1 $-1 $193 $74 #
plane-surface $-1 -63.527329325235755 0 0 1 0 0 0 0 -1 forward_v I I I I #
coedge $-1 $194 $131 $195 $196 forward $75 $-1 #
coedge $-1 $197 $77 $194 $198 forward $49 $-1 #
coedge $-1 $77 $197 $199 $200 forward $49 $-1 #
coedge $-1 $134 $133 $77 $127 reversed $135 $-1 #
edge $-1 $201 -26.222884167650648 $202 26.222884167650648 $126 $203 forward 7 unknown #
coedge $-1 $79 $78 $204 $205 forward $31 $-1 #
coedge $-1 $206 $207 $78 $130 reversed $191 $-1 #
edge $-1 $137 -63.527329325235755 $208 63.527329325235755 $129 $209 forward 7 unknown #
coedge $-1 $123 $210 $79 $132 reversed $75 $-1 #
edge $-1 $211 -63.527329325235755 $136 63.527329325235755 $131 $212 forward 7 unknown #
coedge $-1 $126 $80 $210 $213 forward $135 $-1 #
coedge $-1 $80 $126 $206 $214 reversed $135 $-1 #
loop $-1 $-1 $133 $190 #
vertex $-1 $81 $215 #
vertex $-1 $81 $216 #
straight-curve $-1 63.527329325235755 0 9.140436155913628 0 1 0 I I #
face $-1 $217 $218 $19 $-1 $219 forward single #
loop $-1 $-1 $220 $82 #
plane-surface $-1 -71.290454311568581 0 7.0156271638420389 1 0 0 0 0 -1 forward_v I I I I #
coedge $-1 $221 $85 $149 $222 reversed $53 $-1 #
coedge $-1 $85 $221 $223 $224 reversed $53 $-1 #
edge $-1 $225 -9.140436155913628 $151 -4.8908181717704515 $85 $226 forward 7 unknown #
coedge $-1 $87 $86 $227 $228 reversed $34 $-1 #
coedge $-1 $229 $230 $87 $147 forward $231 $-1 #
edge $-1 $150 4.8908181717704515 $232 9.140436155913628 $146 $233 forward 7 unknown #
coedge $-1 $234 $88 $230 $235 forward $83 $-1 #
coedge $-1 $88 $234 $142 $222 forward $83 $-1 #
vertex $-1 $147 $236 #
vertex $-1 $144 $237 #
straight-curve $-1 -63.527329325235755 0 4.8908181717704515 0 1 0 I I #
face $-1 $-1 $238 $20 $-1 $239 reversed single #
loop $-1 $-1 $160 $90 #
plane-surface $-1 0 26.222884167650648 0 0 -1 0 0 0 -1 forward_v I I I I #
coedge $-1 $240 $93 $95 $162 forward $57 $-1 #
coedge $-1 $93 $240 $241 $242 reversed $57 $-1 #
coedge $-1 $243 $96 $93 $159 forward $91 $-1 #
edge $-1 $165 19.057516283774767 $244 35.999047455565581 $158 $245 forward 7 unknown #
coedge $-1 $246 $247 $94 $161 forward $154 $-1 #
edge $-1 $248 -66.262922125515743 $164 -60.515307912496375 $160 $249 forward 7 unknown #
edge $-1 $165 41.286177585498478 $248 52.445768335301295 $95 $250 forward 7 unknown #
coedge $-1 $96 $243 $246 $251 forward $91 $-1 #
vertex $-1 $97 $252 #
vertex $-1 $97 $253 #
straight-curve $-1 46.585798153444941 23.353037188252557 9.1404361559136333 0 -1 0 I I #
coedge $-1 $167 $167 $-1 $254 reversed $100 $-1 #
edge $-1 $255 0 $255 6.2831853071796004 $101 $256 forward 7 unknown #
vertex $-1 $104 $257 #
ellipse-curve $-1 55.056563739340348 21.440066050646241 6.2666290494039432 0 0.51503808176128008 0.85716729658548041 2.5 0 0 1 I I #
face $-1 $-1 $258 $22 $-1 $259 reversed single #
loop $-1 $-1 $260 $105 #
plane-surface $-1 0 -26.222884167650648 0 0 1 0 0 0 1 forward_v I I I I #
coedge $-1 $175 $108 $110 $181 reversed $66 $-1 #
coedge $-1 $108 $174 $261 $262 reversed $66 $-1 #
coedge $-1 $263 $111 $108 $177 forward $106 $-1 #
edge $-1 $184 -29.17318798527003 $264 -19.607551751261212 $176 $265 forward 7 unknown #
coedge $-1 $110 $109 $260 $266 reversed $43 $-1 #
coedge $-1 $267 $268 $109 $180 forward $258 $-1 #
edge $-1 $269 -10.364983112716731 $183 0.79460763708608895 $179 $270 forward 7 unknown #
edge $-1 $271 0 $184 11.159590749802819 $174 $272 forward 7 unknown #
coedge $-1 $111 $263 $267 $273 forward $106 $-1 #
vertex $-1 $180 $274 #
vertex $-1 $112 $275 #
straight-curve $-1 27.528281869670174 -16.657247933641827 9.140436155913628 -1 0 0 I I #
coedge $-1 $186 $186 $-1 $276 reversed $115 $-1 #
edge $-1 $277 0 $277 6.2831853071796004 $116 $278 forward 7 unknown #
vertex $-1 $119 $279 #
ellipse-curve $-1 55.056563739340348 -21.440066050646237 6.2666290494039432 0 -0.51503808176128008 0.85716729658548041 2.5 0 0 1 I I #
face $-1 $-1 $135 $18 $-1 $280 reversed single #
loop $-1 $-1 $206 $120 #
plane-surface $-1 0 26.222884167650648 0 0 -1 0 0 0 -1 forward_v I I I I #
coedge $-1 $281 $204 $207 $282 forward $121 $-1 #
coedge $-1 $210 $123 $124 $198 reversed $75 $-1 #
coedge $-1 $204 $281 $123 $196 reversed $121 $-1 #
edge $-1 $211 -9.140436155913628 $283 9.140436155913628 $195 $284 forward 7 unknown #
coedge $-1 $125 $124 $281 $285 forward $49 $-1 #
edge $-1 $202 -63.527329325235755 $283 63.527329325235755 $194 $286 forward 7 unknown #
coedge $-1 $207 $206 $125 $200 reversed $191 $-1 #
edge $-1 $287 -63.527329325235755 $201 63.527329325235755 $199 $288 forward 7 unknown #
vertex $-1 $127 $289 #
vertex $-1 $213 $290 #
straight-curve $-1 63.527329325235755 0 -9.140436155913628 0 -1 0 I I #
coedge $-1 $193 $195 $128 $205 reversed $121 $-1 #
edge $-1 $208 -26.222884167650648 $211 26.222884167650648 $204 $291 forward 7 unknown #
coedge $-1 $199 $129 $134 $214 forward $191 $-1 #
coedge $-1 $129 $199 $193 $282 reversed $191 $-1 #
vertex $-1 $130 $292 #
straight-curve $-1 0 26.222884167650648 9.140436155913628 -1 0 0 I I #
coedge $-1 $131 $194 $133 $213 reversed $75 $-1 #
vertex $-1 $205 $293 #
straight-curve $-1 0 -26.222884167650648 9.140436155913628 1 0 0 I I #
edge $-1 $136 -9.140436155913628 $202 9.140436155913628 $133 $294 forward 7 unknown #
edge $-1 $137 -9.140436155913628 $201 9.140436155913628 $134 $295 forward 7 unknown #
point $-1 63.527329325235755 -26.222884167650648 9.140436155913628 #
point $-1 63.527329325235755 26.222884167650648 9.140436155913628 #
face $-1 $-1 $231 $19 $-1 $296 reversed single #
loop $-1 $-1 $227 $139 #
plane-surface $-1 0 0 9.140436155913628 0 0 1 1 0 0 forward_v I I I I #
coedge $-1 $297 $298 $221 $299 forward $140 $-1 #
coedge $-1 $143 $142 $220 $299 reversed $53 $-1 #
edge $-1 $300 -3.8815624931664132 $151 3.8815624931664132 $142 $301 forward 7 unknown #
coedge $-1 $302 $227 $143 $224 forward $218 $-1 #
edge $-1 $225 63.527329325235755 $303 71.290454311568581 $143 $304 forward 7 unknown #
vertex $-1 $224 $305 #
straight-curve $-1 -63.527329325235755 26.222884167650648 0 0 0 -1 I I #
coedge $-1 $223 $306 $145 $228 forward $218 $-1 #
edge $-1 $232 -26.222884167650648 $225 26.222884167650648 $227 $307 forward 7 unknown #
coedge $-1 $308 $146 $306 $309 reversed $231 $-1 #
coedge $-1 $146 $308 $148 $235 reversed $231 $-1 #
loop $-1 $-1 $146 $217 #
vertex $-1 $147 $310 #
straight-curve $-1 -63.527329325235755 -26.222884167650648 0 0 0 1 I I #
coedge $-1 $149 $148 $297 $311 forward $83 $-1 #
edge $-1 $150 -3.8815624931664132 $312 3.8815624931664132 $230 $313 forward 7 unknown #
point $-1 -63.527329325235755 -26.222884167650648 4.8908181717704515 #
point $-1 -63.527329325235755 26.222884167650648 4.8908181717704515 #
loop $-1 $-1 $241 $153 #
plane-surface $-1 63.527329325235755 0 0 -1 0 0 0 0 1 forward_v I I I I #
coedge $-1 $157 $156 $247 $314 reversed $57 $-1 #
coedge $-1 $315 $316 $157 $242 forward $238 $-1 #
edge $-1 $244 25.428276530564567 $317 36.587867280367384 $241 $318 forward 7 unknown #
coedge $-1 $163 $158 $316 $319 forward $91 $-1 #
vertex $-1 $319 $320 #
straight-curve $-1 27.528281869670174 16.657247933641834 9.140436155913628 1 0 0 I I #
coedge $-1 $321 $160 $163 $251 reversed $154 $-1 #
coedge $-1 $160 $321 $240 $314 forward $154 $-1 #
vertex $-1 $161 $322 #
straight-curve $-1 46.585798153444941 26.222884167650648 69.655744068410002 0 0 1 I I #
straight-curve $-1 46.585798153444941 -18.731913293667958 30.404389862804322 0 0.85716729658548041 -0.51503808176128008 I I #
edge $-1 $323 -63.527329325235755 $164 -46.585798153444941 $246 $324 forward 7 unknown #
point $-1 46.585798153444941 26.222884167650648 9.140436155913628 #
point $-1 46.585798153444941 16.657247933641834 9.1404361559136262 #
edge $-1 $325 1 $325 0 $167 $-1 forward 7 unknown #
vertex $-1 $168 $326 #
ellipse-curve $-1 55.056563739340348 19.235549965492766 2.5976982267972 0 0.51503808176128008 0.85716729658548041 2.5 0 0 1 I I #
point $-1 57.556563739340348 21.440066050646237 6.2666290494039396 #
loop $-1 $-1 $179 $171 #
plane-surface $-1 63.527329325235755 0 0 -1 0 0 0 0 1 forward_v I I I I #
coedge $-1 $327 $261 $178 $266 forward $172 $-1 #
coedge $-1 $260 $328 $175 $262 forward $172 $-1 #
edge $-1 $264 47.009523952541343 $271 52.757138165560711 $261 $329 forward 7 unknown #
coedge $-1 $182 $176 $328 $330 forward $106 $-1 #
vertex $-1 $330 $331 #
straight-curve $-1 46.585798153444941 -45.83043591891186 9.1404361559136262 0 -1 0 I I #
edge $-1 $271 19.057516283774767 $269 35.999047455565581 $260 $332 forward 7 unknown #
coedge $-1 $268 $179 $182 $273 reversed $258 $-1 #
coedge $-1 $179 $267 $327 $333 forward $258 $-1 #
vertex $-1 $266 $334 #
straight-curve $-1 63.527329325235755 -17.338359613769089 8.7311829627559447 0 0.85716729658548041 0.51503808176128008 I I #
vertex $-1 $266 $335 #
straight-curve $-1 46.585798153444941 -26.222884167650648 3.3928219428942583 0 0.85716729658548041 0.51503808176128008 I I #
edge $-1 $336 -26.222884167650648 $183 -16.65724793364183 $267 $337 forward 7 unknown #
point $-1 63.527329325235755 -16.65724793364183 9.140436155913628 #
point $-1 46.585798153444941 -16.65724793364183 9.140436155913628 #
edge $-1 $338 1 $338 0 $186 $-1 forward 7 unknown #
vertex $-1 $187 $339 #
ellipse-curve $-1 55.056563739340348 -19.235549965492766 2.5976982267972035 0 -0.51503808176128008 0.85716729658548041 2.5 0 0 1 I I #
point $-1 57.556563739340348 -21.440066050646237 6.2666290494039432 #
plane-surface $-1 63.527329325235755 0 0 -1 0 0 0 0 1 forward_v I I I I #
coedge $-1 $195 $193 $197 $285 reversed $121 $-1 #
edge $-1 $208 -9.140436155913628 $287 9.140436155913628 $207 $340 forward 7 unknown #
vertex $-1 $285 $341 #
straight-curve $-1 -63.527329325235755 -26.222884167650648 0 0 0 -1 I I #
edge $-1 $283 -26.222884167650648 $287 26.222884167650648 $281 $342 forward 7 unknown #
straight-curve $-1 0 -26.222884167650648 -9.140436155913628 -1 0 0 I I #
vertex $-1 $200 $343 #
straight-curve $-1 0 26.222884167650648 -9.140436155913628 1 0 0 I I #
point $-1 63.527329325235755 26.222884167650648 -9.140436155913628 #
point $-1 63.527329325235755 -26.222884167650648 -9.140436155913628 #
straight-curve $-1 -63.527329325235755 0 9.140436155913628 0 -1 0 I I #
point $-1 -63.527329325235755 26.222884167650648 9.140436155913628 #
point $-1 -63.527329325235755 -26.222884167650648 9.140436155913628 #
straight-curve $-1 63.527329325235755 -26.222884167650648 0 0 0 -1 I I #
straight-curve $-1 63.527329325235755 26.222884167650648 0 0 0 -1 I I #
plane-surface $-1 0 -26.222884167650648 0 0 1 0 0 0 1 forward_v I I I I #
coedge $-1 $344 $220 $234 $311 reversed $140 $-1 #
coedge $-1 $220 $344 $302 $345 reversed $140 $-1 #
edge $-1 $303 -2.1248089920715874 $300 2.1248089920715874 $221 $346 forward 7 unknown #
vertex $-1 $222 $347 #
straight-curve $-1 -67.408891818402168 26.222884167650648 4.8908181717704515 1 0 0 I I #
coedge $-1 $306 $223 $298 $345 forward $218 $-1 #
vertex $-1 $224 $348 #
straight-curve $-1 0 26.222884167650648 9.140436155913628 -1 0 0 I I #
point $-1 -63.527329325235755 26.222884167650648 9.140436155913628 #
coedge $-1 $227 $302 $229 $309 forward $218 $-1 #
straight-curve $-1 -63.527329325235755 0 9.140436155913628 0 1 0 I I #
coedge $-1 $230 $229 $344 $349 forward $231 $-1 #
edge $-1 $350 -71.290454311568581 $232 -63.527329325235755 $229 $351 forward 7 unknown #
point $-1 -63.527329325235755 -26.222884167650648 9.140436155913628 #
edge $-1 $312 -26.222884167650648 $300 26.222884167650648 $297 $352 forward 7 unknown #
vertex $-1 $311 $353 #
straight-curve $-1 -67.408891818402168 -26.222884167650648 4.8908181717704515 -1 0 0 I I #
edge $-1 $317 -35.999047455565581 $248 -19.057516283774767 $247 $354 forward 7 unknown #
coedge $-1 $316 $241 $321 $355 reversed $238 $-1 #
coedge $-1 $241 $315 $243 $319 reversed $238 $-1 #
vertex $-1 $242 $356 #
straight-curve $-1 63.527329325235755 -5.1390391168902152 22.236966922710977 0 0.85716729658548041 -0.51503808176128008 I I #
edge $-1 $244 16.657247933641834 $323 26.222884167650648 $316 $357 forward 7 unknown #
point $-1 63.527329325235755 16.657247933641834 9.1404361559136262 #
coedge $-1 $247 $246 $315 $355 forward $154 $-1 #
point $-1 46.585798153444941 26.222884167650648 3.3928219428942548 #
vertex $-1 $319 $358 #
straight-curve $-1 0 26.222884167650648 9.140436155913628 -1 0 0 I I #
vertex $-1 $254 $359 #
point $-1 57.556563739340348 19.235549965492766 2.5976982267972 #
coedge $-1 $328 $260 $268 $333 reversed $172 $-1 #
coedge $-1 $261 $327 $263 $330 reversed $172 $-1 #
straight-curve $-1 46.585798153444941 -26.222884167650648 56.14996010845497 0 0 -1 I I #
edge $-1 $264 46.585798153444941 $336 63.527329325235755 $328 $360 forward 7 unknown #
point $-1 46.585798153444941 -26.222884167650648 9.140436155913628 #
straight-curve $-1 27.528281869670174 -26.222884167650648 3.3928219428942574 1 0 0 I I #
edge $-1 $336 -9.140436155913628 $269 -3.3928219428942583 $268 $361 forward 7 unknown #
point $-1 63.527329325235755 -26.222884167650648 3.3928219428942583 #
point $-1 46.585798153444941 -26.222884167650648 3.3928219428942583 #
vertex $-1 $273 $362 #
straight-curve $-1 63.527329325235755 0 9.140436155913628 0 1 0 I I #
vertex $-1 $276 $363 #
point $-1 57.556563739340348 -19.235549965492766 2.5976982267972035 #
straight-curve $-1 -63.527329325235755 26.222884167650648 0 0 0 -1 I I #
point $-1 -63.527329325235755 -26.222884167650648 -9.140436155913628 #
straight-curve $-1 -63.527329325235755 0 -9.140436155913628 0 1 0 I I #
point $-1 -63.527329325235755 26.222884167650648 -9.140436155913628 #
coedge $-1 $298 $297 $308 $349 reversed $140 $-1 #
edge $-1 $303 -26.222884167650648 $350 26.222884167650648 $298 $364 forward 7 unknown #
straight-curve $-1 -71.290454311568581 26.222884167650648 7.0156271638420389 0 0 -1 I I #
point $-1 -71.290454311568581 26.222884167650648 4.8908181717704515 #
point $-1 -71.290454311568581 26.222884167650648 9.1404361559136262 #
edge $-1 $350 -2.1248089920715874 $312 2.1248089920715874 $344 $365 forward 7 unknown #
vertex $-1 $345 $366 #
straight-curve $-1 0 -26.222884167650648 9.140436155913628 1 0 0 I I #
straight-curve $-1 -71.290454311568581 0 4.8908181717704515 0 1 0 I I #
point $-1 -71.290454311568581 -26.222884167650648 4.8908181717704515 #
straight-curve $-1 27.528281869670174 26.222884167650648 3.3928219428942565 -1 0 0 I I #
edge $-1 $323 -9.140436155913628 $317 -3.3928219428942548 $315 $367 forward 7 unknown #
point $-1 63.527329325235755 26.222884167650648 3.3928219428942548 #
straight-curve $-1 63.527329325235755 0 9.140436155913628 0 1 0 I I #
point $-1 63.527329325235755 26.222884167650648 9.140436155913628 #
point $-1 55.056563739340348 17.947954761089562 0.45477998533349795 #
straight-curve $-1 0 -26.222884167650648 9.140436155913628 1 0 0 I I #
straight-curve $-1 63.527329325235755 -26.222884167650648 0 0 0 -1 I I #
point $-1 63.527329325235755 -26.222884167650648 9.140436155913628 #
point $-1 55.056563739340348 -17.947954761089562 0.4547799853335015 #
straight-curve $-1 -71.290454311568581 0 9.1404361559136262 0 -1 0 I I #
straight-curve $-1 -71.290454311568581 -26.222884167650648 7.0156271638420389 0 0 -1 I I #
point $-1 -71.290454311568581 -26.222884167650648 9.1404361559136262 #
straight-curve $-1 63.527329325235755 26.222884167650648 0 0 0 -1 I I #
End-of-ACIS-data 