500 0 6 0           
7 Unknown 11 ACIS 5.0 NT 24 Thu Mar 25 22:59:54 1999 
-1 9.9999999999999995e-007 1e-010 
body $-1 $6 $-1 $7 #
body $-1 $8 $-1 $9 #
body $-1 $10 $-1 $11 #
body $-1 $12 $-1 $13 #
body $-1 $14 $-1 $15 #
body $-1 $16 $-1 $17 #
lump $-1 $-1 $18 $0 #
transform $-1 1 0 0 0 1 0 0 0 1 59.953001495406966 28.067782489699745 6.4633763474236101 1 rotate no_reflect no_shear #
lump $-1 $-1 $19 $1 #
transform $-1 1 0 0 0 1 0 0 0 1 59.953001495406966 28.067782489699745 6.4633763474236101 1 rotate no_reflect no_shear #
lump $-1 $-1 $20 $2 #
transform $-1 1 0 0 0 1 0 0 0 1 59.953001495406966 28.067782489699745 6.4633763474236101 1 rotate no_reflect no_shear #
lump $-1 $-1 $21 $3 #
transform $-1 1 0 0 0 1 0 0 0 1 59.953001495406966 28.067782489699745 6.4633763474236101 1 rotate no_reflect no_shear #
lump $-1 $-1 $22 $4 #
transform $-1 1 0 0 0 1 0 0 0 1 59.953001495406966 28.067782489699745 6.4633763474236101 1 rotate no_reflect no_shear #
lump $-1 $-1 $23 $5 #
transform $-1 1 0 0 0 1 0 0 0 1 59.953001495406966 28.067782489699745 6.4633763474236101 1 rotate no_reflect no_shear #
shell $-1 $-1 $-1 $24 $-1 $6 #
shell $-1 $-1 $-1 $25 $-1 $8 #
shell $-1 $-1 $-1 $26 $-1 $10 #
shell $-1 $-1 $-1 $27 $-1 $12 #
shell $-1 $-1 $-1 $28 $-1 $14 #
shell $-1 $-1 $-1 $29 $-1 $16 #
face $-1 $30 $31 $18 $-1 $32 forward single #
face $-1 $33 $34 $19 $-1 $35 forward single #
face $-1 $36 $37 $20 $-1 $38 reversed single #
face $-1 $39 $40 $21 $-1 $41 forward single #
face $-1 $42 $43 $22 $-1 $44 forward single #
face $-1 $45 $46 $23 $-1 $47 forward single #
face $-1 $48 $49 $18 $-1 $50 reversed single #
loop $-1 $-1 $51 $24 #
plane-surface $-1 0 0 6.4633763474236101 0 0 1 1 0 0 forward_v I I I I #
face $-1 $52 $53 $19 $-1 $54 reversed single #
loop $-1 $-1 $55 $25 #
plane-surface $-1 -57.145069136185555 0 -3.4633763474236101 0 0 1 1 0 0 forward_v I I I I #
face $-1 $56 $57 $20 $-1 $58 reversed single #
loop $-1 $-1 $59 $26 #
plane-surface $-1 54.035001641987336 18.479811034867861 171.55099497057665 0 1 0 0.68199836817093118 0 0.7313536940579346 forward_v I I I I #
face $-1 $60 $61 $21 $-1 $62 forward single #
loop $-1 $63 $64 $27 #
cone-surface $-1 57.262561564853115 20.397405325834242 3.9068105116274672 -0.68199836817093118 0 -0.7313536940579346 0.18283842351448365 0 -0.17049959204273279 1 I I 0 1 0.25 forward I I I I #
face $-1 $65 $66 $22 $-1 $67 forward single #
loop $-1 $68 $69 $28 #
cone-surface $-1 57.262561564853115 23.273796762283808 3.9068105116274672 -0.68199836817093118 0 -0.7313536940579346 0.18283842351448365 0 -0.17049959204273279 1 I I 0 1 0.25 forward I I I I #
face $-1 $70 $71 $23 $-1 $72 forward single #
loop $-1 $73 $74 $29 #
cone-surface $-1 57.262561564853115 26.150188198733375 3.9068105116274672 -0.68199836817093118 0 -0.7313536940579346 0.18283842351448365 0 -0.17049959204273279 1 I I 0 1 0.25 forward I I I I #
face $-1 $75 $76 $18 $-1 $77 reversed single #
loop $-1 $-1 $78 $30 #
plane-surface $-1 0 0 -6.4633763474236101 0 0 1 1 0 0 forward_v I I I I #
coedge $-1 $79 $80 $81 $82 forward $31 $-1 #
face $-1 $83 $84 $19 $-1 $85 reversed single #
loop $-1 $-1 $86 $33 #
plane-surface $-1 -54.337136776964144 0 -4.9633763474236101 -1 0 0 0 0 1 forward_v I I I I #
coedge $-1 $87 $88 $89 $90 forward $34 $-1 #
face $-1 $91 $92 $20 $-1 $93 reversed single #
loop $-1 $-1 $94 $36 #
plane-surface $-1 -27.740696731646565 23.273796762283801 83.857296743523136 0.68199836817093118 0 0.7313536940579346 0.7313536940579346 0 -0.68199836817093118 forward_v I I I I #
coedge $-1 $95 $96 $97 $98 reversed $37 $-1 #
face $-1 $-1 $99 $21 $-1 $100 forward single #
loop $-1 $101 $102 $39 #
cone-surface $-1 56.836312584746281 20.397405325834242 3.449714452841258 -0.68199836817093118 0 -0.7313536940579346 0.091419211757241825 0 -0.085249796021366397 1 I I -0.70710678118654746 0.70710678118654746 0.125 forward I I I I #
loop $-1 $-1 $103 $27 #
coedge $-1 $64 $64 $104 $105 reversed $40 $-1 #
face $-1 $-1 $106 $22 $-1 $107 forward single #
loop $-1 $108 $109 $42 #
cone-surface $-1 56.836312584746281 23.273796762283808 3.449714452841258 -0.68199836817093118 0 -0.7313536940579346 0.091419211757241825 0 -0.085249796021366397 1 I I -0.70710678118654746 0.70710678118654746 0.125 forward I I I I #
loop $-1 $-1 $110 $28 #
coedge $-1 $69 $69 $111 $112 reversed $43 $-1 #
face $-1 $-1 $113 $23 $-1 $114 forward single #
loop $-1 $115 $116 $45 #
cone-surface $-1 56.836312584746281 26.150188198733375 3.449714452841258 -0.68199836817093118 0 -0.7313536940579346 0.091419211757241825 0 -0.085249796021366397 1 I I -0.70710678118654746 0.70710678118654746 0.125 forward I I I I #
loop $-1 $-1 $117 $29 #
coedge $-1 $74 $74 $118 $119 reversed $46 $-1 #
face $-1 $120 $121 $18 $-1 $122 reversed single #
loop $-1 $-1 $123 $48 #
plane-surface $-1 0 -28.067782489699745 0 0 1 0 0 0 1 forward_v I I I I #
coedge $-1 $124 $125 $126 $127 forward $49 $-1 #
coedge $-1 $128 $51 $129 $130 forward $31 $-1 #
coedge $-1 $51 $128 $131 $132 forward $31 $-1 #
coedge $-1 $133 $134 $51 $82 reversed $135 $-1 #
edge $-1 $136 -28.067782489699745 $137 28.067782489699745 $81 $138 forward 7 unknown #
face $-1 $139 $140 $19 $-1 $141 reversed single #
loop $-1 $-1 $142 $52 #
plane-surface $-1 0 0 -6.4633763474236101 0 0 1 1 0 0 forward_v I I I I #
coedge $-1 $143 $89 $144 $145 reversed $53 $-1 #
coedge $-1 $146 $55 $147 $148 reversed $34 $-1 #
coedge $-1 $55 $146 $149 $150 reversed $34 $-1 #
coedge $-1 $86 $151 $55 $90 reversed $53 $-1 #
edge $-1 $152 -28.067782489699745 $153 28.067782489699745 $89 $154 forward 7 unknown #
face $-1 $155 $156 $20 $-1 $157 forward single #
loop $-1 $-1 $158 $56 #
plane-surface $-1 0 28.067782489699745 0 0 -1 0 0 0 -1 forward_v I I I I #
coedge $-1 $159 $160 $161 $162 reversed $57 $-1 #
coedge $-1 $96 $59 $163 $164 reversed $37 $-1 #
coedge $-1 $59 $95 $159 $165 reversed $37 $-1 #
coedge $-1 $161 $166 $59 $98 forward $167 $-1 #
edge $-1 $168 79.312121137864722 $169 83.693899115399091 $97 $170 forward 7 unknown #
loop $-1 $-1 $104 $60 #
plane-surface $-1 -27.740696731646565 23.273796762283801 83.857296743523136 0.68199836817093118 0 0.7313536940579346 0.7313536940579346 0 -0.68199836817093118 forward_v I I I I #
loop $-1 $-1 $171 $39 #
coedge $-1 $102 $102 $103 $172 reversed $61 $-1 #
coedge $-1 $103 $103 $102 $172 forward $63 $-1 #
coedge $-1 $104 $104 $64 $105 forward $99 $-1 #
edge $-1 $173 0 $173 6.2831853071796004 $104 $174 forward 7 unknown #
loop $-1 $-1 $111 $65 #
plane-surface $-1 -27.740696731646565 23.273796762283801 83.857296743523136 0.68199836817093118 0 0.7313536940579346 0.7313536940579346 0 -0.68199836817093118 forward_v I I I I #
loop $-1 $-1 $175 $42 #
coedge $-1 $109 $109 $110 $176 reversed $66 $-1 #
coedge $-1 $110 $110 $109 $176 forward $68 $-1 #
coedge $-1 $111 $111 $69 $112 forward $106 $-1 #
edge $-1 $177 0 $177 6.2831853071796004 $111 $178 forward 7 unknown #
loop $-1 $-1 $118 $70 #
plane-surface $-1 -27.740696731646565 23.273796762283801 83.857296743523136 0.68199836817093118 0 0.7313536940579346 0.7313536940579346 0 -0.68199836817093118 forward_v I I I I #
loop $-1 $-1 $179 $45 #
coedge $-1 $116 $116 $117 $180 reversed $71 $-1 #
coedge $-1 $117 $117 $116 $180 forward $73 $-1 #
coedge $-1 $118 $118 $74 $119 forward $113 $-1 #
edge $-1 $181 0 $181 6.2831853071796004 $118 $182 forward 7 unknown #
face $-1 $183 $184 $18 $-1 $185 reversed single #
loop $-1 $-1 $186 $75 #
plane-surface $-1 -59.953001495406966 0 0 1 0 0 0 0 -1 forward_v I I I I #
coedge $-1 $187 $131 $188 $189 forward $76 $-1 #
coedge $-1 $190 $78 $187 $191 forward $49 $-1 #
coedge $-1 $78 $190 $192 $193 forward $49 $-1 #
coedge $-1 $134 $133 $78 $127 reversed $135 $-1 #
edge $-1 $194 -28.067782489699745 $195 28.067782489699745 $126 $196 forward 7 unknown #
coedge $-1 $80 $79 $197 $198 forward $31 $-1 #
coedge $-1 $199 $200 $79 $130 reversed $184 $-1 #
edge $-1 $137 -59.953001495406966 $201 59.953001495406966 $129 $202 forward 7 unknown #
coedge $-1 $123 $203 $80 $132 reversed $76 $-1 #
edge $-1 $204 -59.953001495406966 $136 59.953001495406966 $131 $205 forward 7 unknown #
coedge $-1 $126 $81 $203 $206 forward $135 $-1 #
coedge $-1 $81 $126 $199 $207 reversed $135 $-1 #
loop $-1 $-1 $133 $183 #
vertex $-1 $82 $208 #
vertex $-1 $82 $209 #
straight-curve $-1 59.953001495406966 0 6.4633763474236101 0 1 0 I I #
face $-1 $210 $211 $19 $-1 $212 reversed single #
loop $-1 $-1 $144 $83 #
plane-surface $-1 0 -28.067782489699745 0 0 1 0 0 0 1 forward_v I I I I #
coedge $-1 $213 $214 $143 $215 forward $84 $-1 #
coedge $-1 $151 $86 $142 $215 reversed $53 $-1 #
coedge $-1 $149 $216 $86 $145 forward $140 $-1 #
edge $-1 $217 -3.9816881737118051 $152 -0.98168817371180506 $144 $218 forward 7 unknown #
coedge $-1 $88 $87 $219 $220 reversed $34 $-1 #
coedge $-1 $221 $222 $87 $148 forward $223 $-1 #
edge $-1 $224 -31.380466927314188 $153 -25.764602208871366 $147 $225 forward 7 unknown #
coedge $-1 $226 $144 $88 $150 forward $140 $-1 #
edge $-1 $152 25.764602208871366 $227 31.380466927314188 $149 $228 forward 7 unknown #
coedge $-1 $89 $143 $221 $229 reversed $53 $-1 #
vertex $-1 $150 $230 #
vertex $-1 $148 $231 #
straight-curve $-1 -54.337136776964144 0 -3.4633763474236101 0 1 0 I I #
face $-1 $-1 $167 $20 $-1 $232 reversed single #
loop $-1 $-1 $163 $91 #
plane-surface $-1 0 0 6.4633763474236101 0 0 1 1 0 0 forward_v I I I I #
coedge $-1 $233 $234 $160 $235 forward $92 $-1 #
coedge $-1 $236 $94 $96 $165 forward $57 $-1 #
coedge $-1 $94 $236 $158 $235 reversed $57 $-1 #
coedge $-1 $237 $97 $94 $162 forward $167 $-1 #
edge $-1 $169 6.8429126537259606 $238 16.430884108557844 $161 $239 forward 7 unknown #
coedge $-1 $240 $241 $95 $164 forward $156 $-1 #
edge $-1 $242 28.236619181476534 $168 32.935500674413298 $163 $243 forward 7 unknown #
edge $-1 $169 -119.90600299081393 $242 -113.48109322264841 $96 $244 forward 7 unknown #
coedge $-1 $97 $237 $240 $245 reversed $167 $-1 #
loop $-1 $-1 $161 $155 #
vertex $-1 $245 $246 #
vertex $-1 $98 $247 #
straight-curve $-1 59.953001495406966 18.479811034867861 85.775497485288327 0 0 -1 I I #
coedge $-1 $171 $171 $-1 $248 reversed $101 $-1 #
edge $-1 $249 0 $249 6.2831853071796004 $102 $250 forward 7 unknown #
vertex $-1 $105 $251 #
ellipse-curve $-1 57.60356074893857 20.397405325834242 4.2724873586564245 0.68199836817093118 0 0.7313536940579346 0.18283842351448365 0 -0.17049959204273279 1 I I #
coedge $-1 $175 $175 $-1 $252 reversed $108 $-1 #
edge $-1 $253 0 $253 6.2831853071796004 $109 $254 forward 7 unknown #
vertex $-1 $112 $255 #
ellipse-curve $-1 57.60356074893857 23.273796762283808 4.2724873586564245 0.68199836817093118 0 0.7313536940579346 0.18283842351448365 0 -0.17049959204273279 1 I I #
coedge $-1 $179 $179 $-1 $256 reversed $115 $-1 #
edge $-1 $257 0 $257 6.2831853071796004 $116 $258 forward 7 unknown #
vertex $-1 $119 $259 #
ellipse-curve $-1 57.60356074893857 26.150188198733375 4.2724873586564245 0.68199836817093118 0 0.7313536940579346 0.18283842351448365 0 -0.17049959204273279 1 I I #
face $-1 $-1 $135 $18 $-1 $260 reversed single #
loop $-1 $-1 $199 $120 #
plane-surface $-1 0 28.067782489699745 0 0 -1 0 0 0 -1 forward_v I I I I #
coedge $-1 $261 $197 $200 $262 forward $121 $-1 #
coedge $-1 $203 $123 $124 $191 reversed $76 $-1 #
coedge $-1 $197 $261 $123 $189 reversed $121 $-1 #
edge $-1 $204 -6.4633763474236101 $263 6.4633763474236101 $188 $264 forward 7 unknown #
coedge $-1 $125 $124 $261 $265 forward $49 $-1 #
edge $-1 $195 -59.953001495406966 $263 59.953001495406966 $187 $266 forward 7 unknown #
coedge $-1 $200 $199 $125 $193 reversed $184 $-1 #
edge $-1 $267 -59.953001495406966 $194 59.953001495406966 $192 $268 forward 7 unknown #
vertex $-1 $127 $269 #
vertex $-1 $206 $270 #
straight-curve $-1 59.953001495406966 0 -6.4633763474236101 0 -1 0 I I #
coedge $-1 $186 $188 $128 $198 reversed $121 $-1 #
edge $-1 $201 -28.067782489699745 $204 28.067782489699745 $197 $271 forward 7 unknown #
coedge $-1 $192 $129 $134 $207 forward $184 $-1 #
coedge $-1 $129 $192 $186 $262 reversed $184 $-1 #
vertex $-1 $130 $272 #
straight-curve $-1 0 28.067782489699745 6.4633763474236101 -1 0 0 I I #
coedge $-1 $131 $187 $133 $206 reversed $76 $-1 #
vertex $-1 $198 $273 #
straight-curve $-1 0 -28.067782489699745 6.4633763474236101 1 0 0 I I #
edge $-1 $136 -6.4633763474236101 $195 6.4633763474236101 $133 $274 forward 7 unknown #
edge $-1 $137 -6.4633763474236101 $194 6.4633763474236101 $134 $275 forward 7 unknown #
point $-1 59.953001495406966 -28.067782489699745 6.4633763474236101 #
point $-1 59.953001495406966 28.067782489699745 6.4633763474236101 #
face $-1 $-1 $223 $19 $-1 $276 reversed single #
loop $-1 $-1 $219 $139 #
plane-surface $-1 -59.953001495406966 0 0 1 0 0 0 0 -1 forward_v I I I I #
coedge $-1 $277 $142 $216 $278 forward $84 $-1 #
coedge $-1 $142 $277 $279 $280 forward $84 $-1 #
edge $-1 $281 -28.067782489699745 $217 28.067782489699745 $142 $282 forward 7 unknown #
coedge $-1 $144 $226 $213 $278 reversed $140 $-1 #
vertex $-1 $278 $283 #
straight-curve $-1 -54.337136776964144 -28.067782489699745 -2.4816881737118051 0 0 1 I I #
coedge $-1 $284 $285 $146 $220 forward $211 $-1 #
edge $-1 $227 -28.067782489699745 $224 28.067782489699745 $219 $286 forward 7 unknown #
coedge $-1 $279 $147 $151 $229 forward $223 $-1 #
coedge $-1 $147 $279 $284 $287 reversed $223 $-1 #
loop $-1 $-1 $221 $210 #
vertex $-1 $287 $288 #
straight-curve $-1 -28.572534568092777 28.067782489699745 -3.4633763474236101 1 0 0 I I #
coedge $-1 $216 $149 $285 $289 forward $140 $-1 #
vertex $-1 $289 $290 #
straight-curve $-1 -28.572534568092777 -28.067782489699745 -3.4633763474236101 -1 0 0 I I #
edge $-1 $153 0.98168817371180506 $281 3.9816881737118051 $221 $291 forward 7 unknown #
point $-1 -54.337136776964144 -28.067782489699745 -3.4633763474236101 #
point $-1 -54.337136776964144 28.067782489699745 -3.4633763474236101 #
plane-surface $-1 59.953001495406966 0 0 -1 0 0 0 0 1 forward_v I I I I #
coedge $-1 $234 $158 $292 $293 reversed $92 $-1 #
coedge $-1 $158 $233 $237 $294 forward $92 $-1 #
edge $-1 $238 -81.166602706444479 $295 -74.741692938278959 $158 $296 forward 7 unknown #
coedge $-1 $160 $159 $241 $297 reversed $57 $-1 #
coedge $-1 $166 $161 $234 $294 reversed $167 $-1 #
vertex $-1 $235 $298 #
straight-curve $-1 59.953001495406959 11.636898381141901 2.0815983698892353 0 1 0 I I #
coedge $-1 $292 $163 $166 $245 forward $156 $-1 #
coedge $-1 $163 $292 $236 $297 forward $156 $-1 #
vertex $-1 $164 $299 #
straight-curve $-1 27.017500820993668 18.479811034867861 6.4633763474236048 1 0 0 I I #
straight-curve $-1 -27.740696731646565 18.479811034867861 83.857296743523136 -0.7313536940579346 0 0.68199836817093118 I I #
edge $-1 $168 18.479811034867861 $300 28.067782489699745 $166 $301 forward 7 unknown #
point $-1 59.953001495406966 18.479811034867861 6.4633763474236101 #
point $-1 59.953001495406966 18.479811034867861 2.0815983698892353 #
edge $-1 $302 1 $302 0 $171 $-1 forward 7 unknown #
vertex $-1 $172 $303 #
ellipse-curve $-1 56.921562380767647 20.397405325834242 3.5411336645984997 0.68199836817093118 0 0.7313536940579346 0.18283842351448365 0 -0.17049959204273279 1 I I #
point $-1 57.786399172453059 20.397405325834242 4.1019877666137017 #
edge $-1 $304 1 $304 0 $175 $-1 forward 7 unknown #
vertex $-1 $176 $305 #
ellipse-curve $-1 56.921562380767647 23.273796762283808 3.5411336645984997 0.68199836817093118 0 0.7313536940579346 0.18283842351448365 0 -0.17049959204273279 1 I I #
point $-1 57.786399172453059 23.273796762283808 4.1019877666137017 #
edge $-1 $306 1 $306 0 $179 $-1 forward 7 unknown #
vertex $-1 $180 $307 #
ellipse-curve $-1 56.921562380767647 26.150188198733375 3.5411336645984997 0.68199836817093118 0 0.7313536940579346 0.18283842351448365 0 -0.17049959204273279 1 I I #
point $-1 57.786399172453059 26.150188198733375 4.1019877666137017 #
plane-surface $-1 59.953001495406966 0 0 -1 0 0 0 0 1 forward_v I I I I #
coedge $-1 $188 $186 $190 $265 reversed $121 $-1 #
edge $-1 $201 -6.4633763474236101 $267 6.4633763474236101 $200 $308 forward 7 unknown #
vertex $-1 $265 $309 #
straight-curve $-1 -59.953001495406966 -28.067782489699745 0 0 0 -1 I I #
edge $-1 $263 -28.067782489699745 $267 28.067782489699745 $261 $310 forward 7 unknown #
straight-curve $-1 0 -28.067782489699745 -6.4633763474236101 -1 0 0 I I #
vertex $-1 $193 $311 #
straight-curve $-1 0 28.067782489699745 -6.4633763474236101 1 0 0 I I #
point $-1 59.953001495406966 28.067782489699745 -6.4633763474236101 #
point $-1 59.953001495406966 -28.067782489699745 -6.4633763474236101 #
straight-curve $-1 -59.953001495406966 0 6.4633763474236101 0 -1 0 I I #
point $-1 -59.953001495406966 28.067782489699745 6.4633763474236101 #
point $-1 -59.953001495406966 -28.067782489699745 6.4633763474236101 #
straight-curve $-1 59.953001495406966 -28.067782489699745 0 0 0 -1 I I #
straight-curve $-1 59.953001495406966 28.067782489699745 0 0 0 -1 I I #
plane-surface $-1 0 28.067782489699745 0 0 -1 0 0 0 -1 forward_v I I I I #
coedge $-1 $214 $213 $312 $313 forward $84 $-1 #
edge $-1 $217 54.337136776964144 $314 59.953001495406966 $216 $315 forward 7 unknown #
coedge $-1 $222 $221 $214 $280 reversed $223 $-1 #
edge $-1 $316 -59.953001495406966 $281 -54.337136776964144 $279 $317 forward 7 unknown #
vertex $-1 $229 $318 #
straight-curve $-1 -54.337136776964144 0 -6.4633763474236101 0 -1 0 I I #
point $-1 -54.337136776964144 -28.067782489699745 -6.4633763474236101 #
coedge $-1 $312 $219 $222 $287 forward $211 $-1 #
coedge $-1 $219 $312 $226 $289 reversed $211 $-1 #
straight-curve $-1 -59.953001495406966 0 -3.4633763474236101 0 1 0 I I #
edge $-1 $224 3.4633763474236101 $316 6.4633763474236101 $222 $319 forward 7 unknown #
point $-1 -59.953001495406966 28.067782489699745 -3.4633763474236101 #
edge $-1 $227 3.4633763474236101 $314 6.4633763474236101 $285 $320 forward 7 unknown #
point $-1 -59.953001495406966 -28.067782489699745 -3.4633763474236101 #
straight-curve $-1 -54.337136776964144 28.067782489699745 -2.4816881737118051 0 0 -1 I I #
coedge $-1 $241 $240 $233 $293 forward $156 $-1 #
edge $-1 $300 -59.953001495406966 $295 -55.254120002470202 $233 $321 forward 7 unknown #
edge $-1 $300 -6.4633763474236101 $238 -2.0815983698892357 $237 $322 forward 7 unknown #
vertex $-1 $235 $323 #
straight-curve $-1 0.59150677191603585 28.067782489699745 57.43708896566266 -0.7313536940579346 0 0.68199836817093118 I I #
edge $-1 $295 -16.430884108557841 $242 -6.8429126537259606 $241 $324 forward 7 unknown #
point $-1 59.953001495406966 28.067782489699745 2.0815983698892357 #
point $-1 55.254120002470202 18.479811034867861 6.4633763474236048 #
vertex $-1 $245 $325 #
straight-curve $-1 59.953001495406966 0 6.4633763474236101 0 1 0 I I #
vertex $-1 $248 $326 #
point $-1 57.104400804282129 20.397405325834242 3.3706340725557671 #
vertex $-1 $252 $327 #
point $-1 57.104400804282129 23.273796762283808 3.3706340725557671 #
vertex $-1 $256 $328 #
point $-1 57.104400804282129 26.150188198733375 3.3706340725557671 #
straight-curve $-1 -59.953001495406966 28.067782489699745 0 0 0 -1 I I #
point $-1 -59.953001495406966 -28.067782489699745 -6.4633763474236101 #
straight-curve $-1 -59.953001495406966 0 -6.4633763474236101 0 1 0 I I #
point $-1 -59.953001495406966 28.067782489699745 -6.4633763474236101 #
coedge $-1 $285 $284 $277 $313 reversed $211 $-1 #
edge $-1 $314 -28.067782489699745 $316 28.067782489699745 $312 $329 forward 7 unknown #
vertex $-1 $313 $330 #
straight-curve $-1 0 -28.067782489699745 -6.4633763474236101 -1 0 0 I I #
vertex $-1 $280 $331 #
straight-curve $-1 0 28.067782489699745 -6.4633763474236101 1 0 0 I I #
point $-1 -54.337136776964144 28.067782489699745 -6.4633763474236101 #
straight-curve $-1 -59.953001495406966 28.067782489699745 0 0 0 -1 I I #
straight-curve $-1 -59.953001495406966 -28.067782489699745 0 0 0 -1 I I #
straight-curve $-1 0 28.067782489699745 6.4633763474236101 -1 0 0 I I #
straight-curve $-1 59.953001495406966 28.067782489699745 0 0 0 -1 I I #
point $-1 55.254120002470202 28.067782489699741 6.4633763474236048 #
straight-curve $-1 55.254120002470188 11.636898381141901 6.4633763474236048 0 -1 0 I I #
point $-1 59.953001495406966 28.067782489699745 6.4633763474236101 #
point $-1 56.751062788724916 20.397405325834242 3.3582952410840163 #
point $-1 56.751062788724916 23.273796762283808 3.3582952410840163 #
point $-1 56.751062788724916 26.150188198733375 3.3582952410840163 #
straight-curve $-1 -59.953001495406966 0 -6.4633763474236101 0 1 0 I I #
point $-1 -59.953001495406966 -28.067782489699745 -6.4633763474236101 #
point $-1 -59.953001495406966 28.067782489699745 -6.4633763474236101 #
End-of-ACIS-data 