500 0 11 0           
7 Unknown 11 ACIS 5.0 NT 24 Fri Mar 26 03:37:31 1999 
-1 9.9999999999999995e-007 1e-010 
body $-1 $11 $-1 $12 #
body $-1 $13 $-1 $14 #
body $-1 $15 $-1 $16 #
body $-1 $17 $-1 $18 #
body $-1 $19 $-1 $20 #
body $-1 $21 $-1 $22 #
body $-1 $23 $-1 $24 #
body $-1 $25 $-1 $26 #
body $-1 $27 $-1 $28 #
body $-1 $29 $-1 $30 #
body $-1 $31 $-1 $32 #
lump $-1 $-1 $33 $0 #
transform $-1 1 0 0 0 1 0 0 0 1 42.187566759239481 21.997867042400525 5.0799115065900535 1 rotate no_reflect no_shear #
lump $-1 $-1 $34 $1 #
transform $-1 1 0 0 0 1 0 0 0 1 42.187566759239481 21.997867042400525 5.0799115065900535 1 rotate no_reflect no_shear #
lump $-1 $-1 $35 $2 #
transform $-1 1 0 0 0 1 0 0 0 1 42.187566759239481 21.997867042400525 5.0799115065900535 1 rotate no_reflect no_shear #
lump $-1 $-1 $36 $3 #
transform $-1 1 0 0 0 1 0 0 0 1 42.187566759239481 21.997867042400525 5.0799115065900535 1 rotate no_reflect no_shear #
lump $-1 $-1 $37 $4 #
transform $-1 1 0 0 0 1 0 0 0 1 42.187566759239481 21.997867042400525 5.0799115065900535 1 rotate no_reflect no_shear #
lump $-1 $-1 $38 $5 #
transform $-1 1 0 0 0 1 0 0 0 1 42.187566759239481 21.997867042400525 5.0799115065900535 1 rotate no_reflect no_shear #
lump $-1 $-1 $39 $6 #
transform $-1 1 0 0 0 1 0 0 0 1 42.187566759239481 21.997867042400525 5.0799115065900535 1 rotate no_reflect no_shear #
lump $-1 $-1 $40 $7 #
transform $-1 1 0 0 0 1 0 0 0 1 42.187566759239481 21.997867042400525 5.0799115065900535 1 rotate no_reflect no_shear #
lump $-1 $-1 $41 $8 #
transform $-1 1 0 0 0 1 0 0 0 1 42.187566759239481 21.997867042400525 5.0799115065900535 1 rotate no_reflect no_shear #
lump $-1 $-1 $42 $9 #
transform $-1 1 0 0 0 1 0 0 0 1 42.187566759239481 21.997867042400525 5.0799115065900535 1 rotate no_reflect no_shear #
lump $-1 $-1 $43 $10 #
transform $-1 1 0 0 0 1 0 0 0 1 42.187566759239481 21.997867042400525 5.0799115065900535 1 rotate no_reflect no_shear #
shell $-1 $-1 $-1 $44 $-1 $11 #
shell $-1 $-1 $-1 $45 $-1 $13 #
shell $-1 $-1 $-1 $46 $-1 $15 #
shell $-1 $-1 $-1 $47 $-1 $17 #
shell $-1 $-1 $-1 $48 $-1 $19 #
shell $-1 $-1 $-1 $49 $-1 $21 #
shell $-1 $-1 $-1 $50 $-1 $23 #
shell $-1 $-1 $-1 $51 $-1 $25 #
shell $-1 $-1 $-1 $52 $-1 $27 #
shell $-1 $-1 $-1 $53 $-1 $29 #
shell $-1 $-1 $-1 $54 $-1 $31 #
face $-1 $55 $56 $33 $-1 $57 forward single #
face $-1 $58 $59 $34 $-1 $60 reversed single #
face $-1 $61 $62 $35 $-1 $63 reversed single #
face $-1 $64 $65 $36 $-1 $66 forward single #
face $-1 $67 $68 $37 $-1 $69 forward single #
face $-1 $70 $71 $38 $-1 $72 reversed single #
face $-1 $73 $74 $39 $-1 $75 forward single #
face $-1 $76 $77 $40 $-1 $78 forward single #
face $-1 $79 $80 $41 $-1 $81 reversed single #
face $-1 $82 $83 $42 $-1 $84 forward single #
face $-1 $85 $86 $43 $-1 $87 forward single #
face $-1 $88 $89 $33 $-1 $90 reversed single #
loop $-1 $-1 $91 $44 #
plane-surface $-1 0 0 5.0799115065900535 0 0 1 1 0 0 forward_v I I I I #
face $-1 $92 $93 $34 $-1 $94 reversed single #
loop $-1 $-1 $95 $45 #
plane-surface $-1 -40.687566759239481 -16.347616986503734 0 0 -1 0 0 0 -1 forward_v I I I I #
face $-1 $96 $97 $35 $-1 $98 reversed single #
loop $-1 $-1 $99 $46 #
plane-surface $-1 35.942608429246469 -8.6327775454010265 119.39305919070578 0 -1 0 -0.66913061440640931 0 -0.74314481823134659 forward_v I I I I #
face $-1 $100 $101 $36 $-1 $102 forward single #
loop $-1 $103 $104 $47 #
cone-surface $-1 39.146193529106043 -14.143377146188675 2.268006080364612 -0.66913061440640931 0 -0.74314481823134659 0.3715724091156733 0 -0.33456530720320465 1 I I 0 1 0.5 forward I I I I #
face $-1 $105 $106 $37 $-1 $107 forward single #
loop $-1 $108 $109 $48 #
cone-surface $-1 39.146193529106043 -10.837017385716086 2.268006080364612 -0.66913061440640931 0 -0.74314481823134659 0.3715724091156733 0 -0.33456530720320465 1 I I 0 1 0.5 forward I I I I #
face $-1 $110 $111 $38 $-1 $112 reversed single #
loop $-1 $-1 $113 $49 #
plane-surface $-1 35.942608429246469 6.6825447484997493 119.39305919070578 0 -1 0 -0.66913061440640931 0 -0.74314481823134659 forward_v I I I I #
face $-1 $114 $115 $39 $-1 $116 forward single #
loop $-1 $117 $118 $50 #
cone-surface $-1 39.146193529106043 1.1719451477121012 2.268006080364612 -0.66913061440640931 0 -0.74314481823134659 0.3715724091156733 0 -0.33456530720320465 1 I I 0 1 0.5 forward I I I I #
face $-1 $119 $120 $40 $-1 $121 forward single #
loop $-1 $122 $123 $51 #
cone-surface $-1 39.146193529106043 4.4783049081846897 2.268006080364612 -0.66913061440640931 0 -0.74314481823134659 0.3715724091156733 0 -0.33456530720320465 1 I I 0 1 0.5 forward I I I I #
face $-1 $124 $125 $41 $-1 $126 reversed single #
loop $-1 $-1 $127 $52 #
plane-surface $-1 35.942608429246469 14.283027601297816 119.39305919070578 0 1 0 0.66913061440640931 0 0.74314481823134659 forward_v I I I I #
face $-1 $128 $129 $42 $-1 $130 forward single #
loop $-1 $131 $132 $53 #
cone-surface $-1 39.146193529106043 16.487267441612875 2.268006080364612 -0.66913061440640931 0 -0.74314481823134659 0.3715724091156733 0 -0.33456530720320465 1 I I 0 1 0.5 forward I I I I #
face $-1 $133 $134 $43 $-1 $135 forward single #
loop $-1 $136 $137 $54 #
cone-surface $-1 39.146193529106043 19.793627202085464 2.268006080364612 -0.66913061440640931 0 -0.74314481823134659 0.3715724091156733 0 -0.33456530720320465 1 I I 0 1 0.5 forward I I I I #
face $-1 $138 $139 $33 $-1 $140 reversed single #
loop $-1 $-1 $141 $55 #
plane-surface $-1 0 0 -5.0799115065900535 0 0 1 1 0 0 forward_v I I I I #
coedge $-1 $142 $143 $144 $145 forward $56 $-1 #
face $-1 $146 $147 $34 $-1 $148 forward single #
loop $-1 $-1 $149 $58 #
plane-surface $-1 -39.187566759239481 -19.17274201445213 0 -1 0 0 0 0 1 forward_v I I I I #
coedge $-1 $150 $151 $152 $153 forward $59 $-1 #
face $-1 $154 $155 $35 $-1 $156 reversed single #
loop $-1 $-1 $157 $61 #
plane-surface $-1 -20.515376502596176 -12.49019726595238 56.690115928870135 0.66913061440640931 0 0.74314481823134659 0.74314481823134659 0 -0.66913061440640931 forward_v I I I I #
coedge $-1 $158 $159 $160 $161 reversed $62 $-1 #
face $-1 $-1 $162 $36 $-1 $163 forward single #
loop $-1 $164 $165 $64 #
cone-surface $-1 38.629540438278816 -14.143377146188675 1.6942047043626092 -0.66913061440640931 0 -0.74314481823134659 0.18578620455783665 0 -0.16728265360160233 1 I I -0.70710678118654779 0.70710678118654713 0.25 forward I I I I #
loop $-1 $-1 $166 $47 #
coedge $-1 $104 $104 $167 $168 reversed $65 $-1 #
face $-1 $-1 $169 $37 $-1 $170 forward single #
loop $-1 $171 $172 $67 #
cone-surface $-1 38.629540438278816 -10.837017385716086 1.6942047043626092 -0.66913061440640931 0 -0.74314481823134659 0.18578620455783665 0 -0.16728265360160233 1 I I -0.70710678118654779 0.70710678118654713 0.25 forward I I I I #
loop $-1 $-1 $173 $48 #
coedge $-1 $109 $109 $174 $175 reversed $68 $-1 #
face $-1 $176 $177 $38 $-1 $178 reversed single #
loop $-1 $-1 $179 $70 #
plane-surface $-1 -20.515376502596176 2.8251250279483955 56.690115928870135 0.66913061440640931 0 0.74314481823134659 0.74314481823134659 0 -0.66913061440640931 forward_v I I I I #
coedge $-1 $180 $181 $182 $183 reversed $71 $-1 #
face $-1 $-1 $184 $39 $-1 $185 forward single #
loop $-1 $186 $187 $73 #
cone-surface $-1 38.629540438278816 1.1719451477121012 1.6942047043626092 -0.66913061440640931 0 -0.74314481823134659 0.18578620455783665 0 -0.16728265360160233 1 I I -0.70710678118654779 0.70710678118654713 0.25 forward I I I I #
loop $-1 $-1 $188 $50 #
coedge $-1 $118 $118 $189 $190 reversed $74 $-1 #
face $-1 $-1 $191 $40 $-1 $192 forward single #
loop $-1 $193 $194 $76 #
cone-surface $-1 38.629540438278816 4.4783049081846897 1.6942047043626092 -0.66913061440640931 0 -0.74314481823134659 0.18578620455783665 0 -0.16728265360160233 1 I I -0.70710678118654779 0.70710678118654713 0.25 forward I I I I #
loop $-1 $-1 $195 $51 #
coedge $-1 $123 $123 $196 $197 reversed $77 $-1 #
face $-1 $198 $199 $41 $-1 $200 reversed single #
loop $-1 $-1 $201 $79 #
plane-surface $-1 -20.515376502596176 18.14044732184917 56.690115928870135 0.66913061440640931 0 0.74314481823134659 0.74314481823134659 0 -0.66913061440640931 forward_v I I I I #
coedge $-1 $202 $203 $204 $205 reversed $80 $-1 #
face $-1 $-1 $206 $42 $-1 $207 forward single #
loop $-1 $208 $209 $82 #
cone-surface $-1 38.629540438278816 16.487267441612875 1.6942047043626092 -0.66913061440640931 0 -0.74314481823134659 0.18578620455783665 0 -0.16728265360160233 1 I I -0.70710678118654779 0.70710678118654713 0.25 forward I I I I #
loop $-1 $-1 $210 $53 #
coedge $-1 $132 $132 $211 $212 reversed $83 $-1 #
face $-1 $-1 $213 $43 $-1 $214 forward single #
loop $-1 $215 $216 $85 #
cone-surface $-1 38.629540438278816 19.793627202085464 1.6942047043626092 -0.66913061440640931 0 -0.74314481823134659 0.18578620455783665 0 -0.16728265360160233 1 I I -0.70710678118654779 0.70710678118654713 0.25 forward I I I I #
loop $-1 $-1 $217 $54 #
coedge $-1 $137 $137 $218 $219 reversed $86 $-1 #
face $-1 $220 $221 $33 $-1 $222 reversed single #
loop $-1 $-1 $223 $88 #
plane-surface $-1 0 -21.997867042400525 0 0 1 0 0 0 1 forward_v I I I I #
coedge $-1 $224 $225 $226 $227 forward $89 $-1 #
coedge $-1 $228 $91 $229 $230 forward $56 $-1 #
coedge $-1 $91 $228 $231 $232 forward $56 $-1 #
coedge $-1 $233 $234 $91 $145 reversed $235 $-1 #
edge $-1 $236 -21.997867042400525 $237 21.997867042400525 $144 $238 forward 7 unknown #
face $-1 $239 $240 $34 $-1 $241 reversed single #
loop $-1 $-1 $242 $92 #
plane-surface $-1 0 0 5.0799115065900535 0 0 1 1 0 0 forward_v I I I I #
coedge $-1 $243 $244 $245 $246 reversed $93 $-1 #
coedge $-1 $247 $95 $248 $249 reversed $59 $-1 #
coedge $-1 $95 $247 $250 $251 reversed $59 $-1 #
coedge $-1 $244 $243 $95 $153 reversed $93 $-1 #
edge $-1 $252 -5.0799115065900535 $253 5.0799115065900535 $152 $254 forward 7 unknown #
face $-1 $255 $256 $35 $-1 $257 reversed single #
loop $-1 $-1 $258 $96 #
plane-surface $-1 35.942608429246469 -16.347616986503734 119.39305919070578 0 1 0 0.66913061440640931 0 0.74314481823134659 forward_v I I I I #
coedge $-1 $259 $260 $261 $262 reversed $97 $-1 #
coedge $-1 $159 $99 $263 $264 reversed $62 $-1 #
coedge $-1 $99 $158 $259 $265 reversed $62 $-1 #
coedge $-1 $261 $266 $99 $161 forward $267 $-1 #
edge $-1 $268 -24.216262544616246 $269 -18.832256958800638 $160 $270 forward 7 unknown #
loop $-1 $-1 $167 $100 #
plane-surface $-1 -20.515376502596176 -12.49019726595238 56.690115928870135 0.66913061440640931 0 0.74314481823134659 0.74314481823134659 0 -0.66913061440640931 forward_v I I I I #
loop $-1 $-1 $271 $64 #
coedge $-1 $165 $165 $166 $272 reversed $101 $-1 #
coedge $-1 $166 $166 $165 $272 forward $103 $-1 #
coedge $-1 $167 $167 $104 $168 forward $162 $-1 #
edge $-1 $273 0 $273 6.2831853071796004 $167 $274 forward 7 unknown #
loop $-1 $-1 $174 $105 #
plane-surface $-1 -20.515376502596176 -12.49019726595238 56.690115928870135 0.66913061440640931 0 0.74314481823134659 0.74314481823134659 0 -0.66913061440640931 forward_v I I I I #
loop $-1 $-1 $275 $67 #
coedge $-1 $172 $172 $173 $276 reversed $106 $-1 #
coedge $-1 $173 $173 $172 $276 forward $108 $-1 #
coedge $-1 $174 $174 $109 $175 forward $169 $-1 #
edge $-1 $277 0 $277 6.2831853071796004 $174 $278 forward 7 unknown #
face $-1 $279 $280 $38 $-1 $281 reversed single #
loop $-1 $-1 $282 $110 #
plane-surface $-1 35.942608429246469 -1.0322946926029579 119.39305919070578 0 1 0 0.66913061440640931 0 0.74314481823134659 forward_v I I I I #
coedge $-1 $283 $284 $285 $286 reversed $111 $-1 #
coedge $-1 $181 $113 $287 $288 reversed $71 $-1 #
coedge $-1 $113 $180 $283 $289 reversed $71 $-1 #
coedge $-1 $285 $290 $113 $183 forward $291 $-1 #
edge $-1 $292 -24.216262544616246 $293 -18.832256958800638 $182 $294 forward 7 unknown #
loop $-1 $-1 $189 $114 #
plane-surface $-1 -20.515376502596176 2.8251250279483955 56.690115928870135 0.66913061440640931 0 0.74314481823134659 0.74314481823134659 0 -0.66913061440640931 forward_v I I I I #
loop $-1 $-1 $295 $73 #
coedge $-1 $187 $187 $188 $296 reversed $115 $-1 #
coedge $-1 $188 $188 $187 $296 forward $117 $-1 #
coedge $-1 $189 $189 $118 $190 forward $184 $-1 #
edge $-1 $297 0 $297 6.2831853071796004 $189 $298 forward 7 unknown #
loop $-1 $-1 $196 $119 #
plane-surface $-1 -20.515376502596176 2.8251250279483955 56.690115928870135 0.66913061440640931 0 0.74314481823134659 0.74314481823134659 0 -0.66913061440640931 forward_v I I I I #
loop $-1 $-1 $299 $76 #
coedge $-1 $194 $194 $195 $300 reversed $120 $-1 #
coedge $-1 $195 $195 $194 $300 forward $122 $-1 #
coedge $-1 $196 $196 $123 $197 forward $191 $-1 #
edge $-1 $301 0 $301 6.2831853071796004 $196 $302 forward 7 unknown #
face $-1 $303 $304 $41 $-1 $305 reversed single #
loop $-1 $-1 $204 $124 #
plane-surface $-1 42.187566759239481 0 0 -1 0 0 0 0 1 forward_v I I I I #
coedge $-1 $306 $307 $308 $309 reversed $125 $-1 #
coedge $-1 $203 $127 $310 $311 reversed $80 $-1 #
coedge $-1 $127 $202 $306 $312 reversed $80 $-1 #
coedge $-1 $308 $313 $127 $205 forward $199 $-1 #
edge $-1 $314 54.616618088762841 $315 59.464398598325417 $204 $316 forward 7 unknown #
loop $-1 $-1 $211 $128 #
plane-surface $-1 -20.515376502596176 18.14044732184917 56.690115928870135 0.66913061440640931 0 0.74314481823134659 0.74314481823134659 0 -0.66913061440640931 forward_v I I I I #
loop $-1 $-1 $317 $82 #
coedge $-1 $209 $209 $210 $318 reversed $129 $-1 #
coedge $-1 $210 $210 $209 $318 forward $131 $-1 #
coedge $-1 $211 $211 $132 $212 forward $206 $-1 #
edge $-1 $319 0 $319 6.2831853071796004 $211 $320 forward 7 unknown #
loop $-1 $-1 $218 $133 #
plane-surface $-1 -20.515376502596176 18.14044732184917 56.690115928870135 0.66913061440640931 0 0.74314481823134659 0.74314481823134659 0 -0.66913061440640931 forward_v I I I I #
loop $-1 $-1 $321 $85 #
coedge $-1 $216 $216 $217 $322 reversed $134 $-1 #
coedge $-1 $217 $217 $216 $322 forward $136 $-1 #
coedge $-1 $218 $218 $137 $219 forward $213 $-1 #
edge $-1 $323 0 $323 6.2831853071796004 $218 $324 forward 7 unknown #
face $-1 $325 $326 $33 $-1 $327 reversed single #
loop $-1 $-1 $328 $138 #
plane-surface $-1 -42.187566759239481 0 0 1 0 0 0 0 -1 forward_v I I I I #
coedge $-1 $329 $231 $330 $331 forward $139 $-1 #
coedge $-1 $332 $141 $329 $333 forward $89 $-1 #
coedge $-1 $141 $332 $334 $335 forward $89 $-1 #
coedge $-1 $234 $233 $141 $227 reversed $235 $-1 #
edge $-1 $336 -21.997867042400525 $337 21.997867042400525 $226 $338 forward 7 unknown #
coedge $-1 $143 $142 $339 $340 forward $56 $-1 #
coedge $-1 $341 $342 $142 $230 reversed $326 $-1 #
edge $-1 $237 -42.187566759239481 $343 42.187566759239481 $229 $344 forward 7 unknown #
coedge $-1 $223 $345 $143 $232 reversed $139 $-1 #
edge $-1 $346 -42.187566759239481 $236 42.187566759239481 $231 $347 forward 7 unknown #
coedge $-1 $226 $144 $345 $348 forward $235 $-1 #
coedge $-1 $144 $226 $341 $349 reversed $235 $-1 #
loop $-1 $-1 $233 $325 #
vertex $-1 $145 $350 #
vertex $-1 $145 $351 #
straight-curve $-1 42.187566759239481 0 5.0799115065900535 0 1 0 I I #
face $-1 $352 $353 $34 $-1 $354 reversed single #
loop $-1 $-1 $355 $146 #
plane-surface $-1 -42.187566759239481 0 0 1 0 0 0 0 -1 forward_v I I I I #
coedge $-1 $250 $356 $244 $357 forward $147 $-1 #
coedge $-1 $152 $149 $358 $359 reversed $93 $-1 #
coedge $-1 $149 $152 $242 $357 reversed $93 $-1 #
coedge $-1 $360 $361 $149 $246 forward $362 $-1 #
edge $-1 $363 -5.0799115065900535 $364 5.0799115065900535 $245 $365 forward 7 unknown #
coedge $-1 $151 $150 $355 $366 reversed $59 $-1 #
coedge $-1 $358 $367 $150 $249 forward $353 $-1 #
edge $-1 $368 -21.84378337961974 $253 -18.84378337961974 $248 $369 forward 7 unknown #
coedge $-1 $370 $242 $151 $251 forward $147 $-1 #
edge $-1 $252 18.84378337961974 $371 21.84378337961974 $250 $372 forward 7 unknown #
vertex $-1 $251 $373 #
vertex $-1 $249 $374 #
straight-curve $-1 -39.187566759239481 -16.347616986503734 0 0 0 -1 I I #
face $-1 $-1 $267 $35 $-1 $375 forward single #
loop $-1 $-1 $376 $154 #
plane-surface $-1 42.187566759239481 0 0 -1 0 0 0 0 1 forward_v I I I I #
coedge $-1 $377 $378 $379 $380 reversed $155 $-1 #
coedge $-1 $381 $157 $159 $265 forward $97 $-1 #
coedge $-1 $157 $381 $377 $382 forward $97 $-1 #
coedge $-1 $379 $160 $157 $262 forward $267 $-1 #
edge $-1 $269 2.3876789124248363 $383 10.102518353527543 $261 $384 forward 7 unknown #
coedge $-1 $385 $386 $158 $264 forward $256 $-1 #
edge $-1 $387 -59.464398598325417 $268 -54.616618088762841 $263 $388 forward 7 unknown #
edge $-1 $269 77.130239315180461 $387 84.375133518478975 $159 $389 forward 7 unknown #
coedge $-1 $160 $379 $385 $390 forward $267 $-1 #
loop $-1 $-1 $379 $255 #
vertex $-1 $264 $391 #
vertex $-1 $161 $392 #
straight-curve $-1 17.971304214623235 -8.6327775454010265 5.0799115065900509 -1 0 0 I I #
coedge $-1 $271 $271 $-1 $393 reversed $164 $-1 #
edge $-1 $394 0 $394 6.2831853071796004 $165 $395 forward 7 unknown #
vertex $-1 $168 $396 #
ellipse-curve $-1 39.495563966331666 -14.143377146188675 2.6560212518087725 0.66913061440640931 0 0.74314481823134659 0.3715724091156733 0 -0.33456530720320465 1 I I #
coedge $-1 $275 $275 $-1 $397 reversed $171 $-1 #
edge $-1 $398 0 $398 6.2831853071796004 $172 $399 forward 7 unknown #
vertex $-1 $175 $400 #
ellipse-curve $-1 39.495563966331666 -10.837017385716086 2.6560212518087725 0.66913061440640931 0 0.74314481823134659 0.3715724091156733 0 -0.33456530720320465 1 I I #
face $-1 $-1 $291 $38 $-1 $401 forward single #
loop $-1 $-1 $402 $176 #
plane-surface $-1 42.187566759239481 0 0 -1 0 0 0 0 1 forward_v I I I I #
coedge $-1 $403 $404 $405 $406 reversed $177 $-1 #
coedge $-1 $407 $179 $181 $289 forward $111 $-1 #
coedge $-1 $179 $407 $403 $408 forward $111 $-1 #
coedge $-1 $405 $182 $179 $286 forward $291 $-1 #
edge $-1 $293 -5.2699822345255516 $409 2.4448572065771557 $285 $410 forward 7 unknown #
coedge $-1 $411 $412 $180 $288 forward $280 $-1 #
edge $-1 $413 -59.464398598325417 $292 -54.616618088762841 $287 $414 forward 7 unknown #
edge $-1 $293 77.130239315180461 $413 84.375133518478975 $181 $415 forward 7 unknown #
coedge $-1 $182 $405 $411 $416 forward $291 $-1 #
loop $-1 $-1 $405 $279 #
vertex $-1 $288 $417 #
vertex $-1 $183 $418 #
straight-curve $-1 17.971304214623235 6.6825447484997493 5.0799115065900509 -1 0 0 I I #
coedge $-1 $295 $295 $-1 $419 reversed $186 $-1 #
edge $-1 $420 0 $420 6.2831853071796004 $187 $421 forward 7 unknown #
vertex $-1 $190 $422 #
ellipse-curve $-1 39.495563966331666 1.1719451477121012 2.6560212518087725 0.66913061440640931 0 0.74314481823134659 0.3715724091156733 0 -0.33456530720320465 1 I I #
coedge $-1 $299 $299 $-1 $423 reversed $193 $-1 #
edge $-1 $424 0 $424 6.2831853071796004 $194 $425 forward 7 unknown #
vertex $-1 $197 $426 #
ellipse-curve $-1 39.495563966331666 4.4783049081846897 2.6560212518087725 0.66913061440640931 0 0.74314481823134659 0.3715724091156733 0 -0.33456530720320465 1 I I #
face $-1 $-1 $427 $41 $-1 $428 forward single #
loop $-1 $-1 $429 $198 #
plane-surface $-1 0 21.997867042400525 0 0 -1 0 0 0 -1 forward_v I I I I #
coedge $-1 $430 $201 $203 $312 forward $125 $-1 #
coedge $-1 $201 $430 $429 $431 reversed $125 $-1 #
coedge $-1 $432 $204 $201 $309 forward $199 $-1 #
edge $-1 $315 5.2128039403732309 $433 12.92764338147594 $308 $434 forward 7 unknown #
coedge $-1 $435 $436 $202 $311 forward $427 $-1 #
edge $-1 $437 18.832256958800638 $314 24.216262544616246 $310 $438 forward 7 unknown #
edge $-1 $315 -84.375133518478975 $437 -77.130239315180461 $203 $439 forward 7 unknown #
coedge $-1 $204 $432 $435 $440 reversed $199 $-1 #
vertex $-1 $440 $441 #
vertex $-1 $205 $442 #
straight-curve $-1 42.187566759239481 14.283027601297816 59.696529595352892 0 0 -1 I I #
coedge $-1 $317 $317 $-1 $443 reversed $208 $-1 #
edge $-1 $444 0 $444 6.2831853071796004 $209 $445 forward 7 unknown #
vertex $-1 $212 $446 #
ellipse-curve $-1 39.495563966331666 16.487267441612875 2.6560212518087725 0.66913061440640931 0 0.74314481823134659 0.3715724091156733 0 -0.33456530720320465 1 I I #
coedge $-1 $321 $321 $-1 $447 reversed $215 $-1 #
edge $-1 $448 0 $448 6.2831853071796004 $216 $449 forward 7 unknown #
vertex $-1 $219 $450 #
ellipse-curve $-1 39.495563966331666 19.793627202085464 2.6560212518087725 0.66913061440640931 0 0.74314481823134659 0.3715724091156733 0 -0.33456530720320465 1 I I #
face $-1 $-1 $235 $33 $-1 $451 reversed single #
loop $-1 $-1 $341 $220 #
plane-surface $-1 0 21.997867042400525 0 0 -1 0 0 0 -1 forward_v I I I I #
coedge $-1 $452 $339 $342 $453 forward $221 $-1 #
coedge $-1 $345 $223 $224 $333 reversed $139 $-1 #
coedge $-1 $339 $452 $223 $331 reversed $221 $-1 #
edge $-1 $346 -5.0799115065900535 $454 5.0799115065900535 $330 $455 forward 7 unknown #
coedge $-1 $225 $224 $452 $456 forward $89 $-1 #
edge $-1 $337 -42.187566759239481 $454 42.187566759239481 $329 $457 forward 7 unknown #
coedge $-1 $342 $341 $225 $335 reversed $326 $-1 #
edge $-1 $458 -42.187566759239481 $336 42.187566759239481 $334 $459 forward 7 unknown #
vertex $-1 $227 $460 #
vertex $-1 $348 $461 #
straight-curve $-1 42.187566759239481 0 -5.0799115065900535 0 -1 0 I I #
coedge $-1 $328 $330 $228 $340 reversed $221 $-1 #
edge $-1 $343 -21.997867042400525 $346 21.997867042400525 $339 $462 forward 7 unknown #
coedge $-1 $334 $229 $234 $349 forward $326 $-1 #
coedge $-1 $229 $334 $328 $453 reversed $326 $-1 #
vertex $-1 $230 $463 #
straight-curve $-1 0 21.997867042400525 5.0799115065900535 -1 0 0 I I #
coedge $-1 $231 $329 $233 $348 reversed $139 $-1 #
vertex $-1 $340 $464 #
straight-curve $-1 0 -21.997867042400525 5.0799115065900535 1 0 0 I I #
edge $-1 $236 -5.0799115065900535 $337 5.0799115065900535 $233 $465 forward 7 unknown #
edge $-1 $237 -5.0799115065900535 $336 5.0799115065900535 $234 $466 forward 7 unknown #
point $-1 42.187566759239481 -21.997867042400525 5.0799115065900535 #
point $-1 42.187566759239481 21.997867042400525 5.0799115065900535 #
face $-1 $-1 $362 $34 $-1 $467 reversed single #
loop $-1 $-1 $358 $239 #
plane-surface $-1 0 0 -5.0799115065900535 0 0 1 1 0 0 forward_v I I I I #
coedge $-1 $468 $469 $247 $366 forward $240 $-1 #
coedge $-1 $242 $370 $360 $470 forward $147 $-1 #
edge $-1 $364 -12.41149603517446 $252 -6.7612459792776693 $242 $471 forward 7 unknown #
coedge $-1 $472 $248 $243 $359 forward $353 $-1 #
edge $-1 $253 6.7612459792776693 $363 12.41149603517446 $358 $473 forward 7 unknown #
coedge $-1 $474 $245 $356 $470 reversed $362 $-1 #
coedge $-1 $245 $474 $472 $475 reversed $362 $-1 #
loop $-1 $-1 $245 $352 #
vertex $-1 $475 $476 #
vertex $-1 $246 $477 #
straight-curve $-1 -39.187566759239481 -21.997867042400525 0 0 0 1 I I #
edge $-1 $371 -5.0799115065900535 $368 5.0799115065900535 $355 $478 forward 7 unknown #
coedge $-1 $248 $472 $468 $479 forward $353 $-1 #
vertex $-1 $249 $480 #
straight-curve $-1 -20.34378337961974 -16.347616986503734 -5.0799115065900535 1 0 0 I I #
coedge $-1 $356 $250 $469 $481 forward $147 $-1 #
vertex $-1 $481 $482 #
straight-curve $-1 -20.34378337961974 -16.347616986503734 5.0799115065900535 -1 0 0 I I #
point $-1 -39.187566759239481 -16.347616986503734 5.0799115065900535 #
point $-1 -39.187566759239481 -16.347616986503734 -5.0799115065900535 #
plane-surface $-1 0 0 5.0799115065900535 0 0 1 1 0 0 forward_v I I I I #
coedge $-1 $386 $385 $378 $483 forward $256 $-1 #
coedge $-1 $378 $258 $260 $382 reversed $155 $-1 #
coedge $-1 $258 $377 $376 $483 reversed $155 $-1 #
coedge $-1 $266 $261 $258 $380 forward $267 $-1 #
edge $-1 $383 18.832256958800638 $484 24.216262544616246 $379 $485 forward 7 unknown #
coedge $-1 $260 $259 $386 $486 reversed $97 $-1 #
edge $-1 $487 -84.375133518478975 $383 -77.130239315180461 $377 $488 forward 7 unknown #
vertex $-1 $262 $489 #
straight-curve $-1 36.803561173423873 -6.2450986329761902 5.0799115065900438 0 -1 0 I I #
coedge $-1 $376 $263 $266 $390 reversed $256 $-1 #
coedge $-1 $263 $376 $381 $486 forward $256 $-1 #
vertex $-1 $264 $490 #
straight-curve $-1 42.187566759239481 -8.6327775454010265 59.696529595352892 0 0 1 I I #
straight-curve $-1 -20.515376502596176 -8.6327775454010265 56.690115928870135 0.74314481823134659 0 -0.66913061440640931 I I #
edge $-1 $484 -16.347616986503734 $268 -8.6327775454010265 $385 $491 forward 7 unknown #
point $-1 42.187566759239481 -8.6327775454010265 5.0799115065900535 #
point $-1 36.803561173423873 -8.6327775454010265 5.0799115065900438 #
edge $-1 $492 1 $492 0 $271 $-1 forward 7 unknown #
vertex $-1 $272 $493 #
ellipse-curve $-1 38.79682309188042 -14.143377146188675 1.8799909089204456 0.66913061440640931 0 0.74314481823134659 0.3715724091156733 0 -0.33456530720320465 1 I I #
point $-1 39.867136375447345 -14.143377146188675 2.321455944605574 #
edge $-1 $494 1 $494 0 $275 $-1 forward 7 unknown #
vertex $-1 $276 $495 #
ellipse-curve $-1 38.79682309188042 -10.837017385716086 1.8799909089204456 0.66913061440640931 0 0.74314481823134659 0.3715724091156733 0 -0.33456530720320465 1 I I #
point $-1 39.867136375447345 -10.837017385716086 2.321455944605574 #
plane-surface $-1 0 0 5.0799115065900535 0 0 1 1 0 0 forward_v I I I I #
coedge $-1 $412 $411 $404 $496 forward $280 $-1 #
coedge $-1 $404 $282 $284 $408 reversed $177 $-1 #
coedge $-1 $282 $403 $402 $496 reversed $177 $-1 #
coedge $-1 $290 $285 $282 $406 forward $291 $-1 #
edge $-1 $409 18.832256958800638 $497 24.216262544616246 $405 $498 forward 7 unknown #
coedge $-1 $284 $283 $412 $499 reversed $111 $-1 #
edge $-1 $500 -84.375133518478975 $409 -77.130239315180461 $403 $501 forward 7 unknown #
vertex $-1 $286 $502 #
straight-curve $-1 36.803561173423873 1.4125625139741977 5.0799115065900438 0 -1 0 I I #
coedge $-1 $402 $287 $290 $416 reversed $280 $-1 #
coedge $-1 $287 $402 $407 $499 forward $280 $-1 #
vertex $-1 $288 $503 #
straight-curve $-1 42.187566759239481 6.6825447484997493 59.696529595352892 0 0 1 I I #
straight-curve $-1 -20.515376502596176 6.6825447484997493 56.690115928870135 0.74314481823134659 0 -0.66913061440640931 I I #
edge $-1 $497 -1.0322946926029579 $292 6.6825447484997493 $411 $504 forward 7 unknown #
point $-1 42.187566759239481 6.6825447484997493 5.0799115065900535 #
point $-1 36.803561173423873 6.6825447484997493 5.0799115065900438 #
edge $-1 $505 1 $505 0 $295 $-1 forward 7 unknown #
vertex $-1 $296 $506 #
ellipse-curve $-1 38.79682309188042 1.1719451477121012 1.8799909089204456 0.66913061440640931 0 0.74314481823134659 0.3715724091156733 0 -0.33456530720320465 1 I I #
point $-1 39.867136375447345 1.1719451477121012 2.321455944605574 #
edge $-1 $507 1 $507 0 $299 $-1 forward 7 unknown #
vertex $-1 $300 $508 #
ellipse-curve $-1 38.79682309188042 4.4783049081846897 1.8799909089204456 0.66913061440640931 0 0.74314481823134659 0.3715724091156733 0 -0.33456530720320465 1 I I #
point $-1 39.867136375447345 4.4783049081846897 2.321455944605574 #
loop $-1 $-1 $310 $303 #
plane-surface $-1 0 0 5.0799115065900535 0 0 1 1 0 0 forward_v I I I I #
coedge $-1 $509 $510 $307 $431 forward $304 $-1 #
coedge $-1 $307 $306 $436 $511 reversed $125 $-1 #
edge $-1 $433 -57.785639596366522 $512 -50.540745393068008 $429 $513 forward 7 unknown #
coedge $-1 $313 $308 $510 $514 reversed $199 $-1 #
vertex $-1 $431 $515 #
straight-curve $-1 42.187566759239481 9.0702236609245848 0.23213099702747542 0 1 0 I I #
coedge $-1 $516 $310 $313 $440 forward $427 $-1 #
coedge $-1 $310 $516 $430 $511 forward $427 $-1 #
vertex $-1 $311 $517 #
straight-curve $-1 17.971304214623235 14.283027601297816 5.0799115065900509 1 0 0 I I #
straight-curve $-1 -20.515376502596176 14.283027601297816 56.690115928870135 -0.74314481823134659 0 0.66913061440640931 I I #
edge $-1 $314 14.283027601297816 $518 21.997867042400525 $313 $519 forward 7 unknown #
point $-1 42.187566759239481 14.283027601297816 5.0799115065900535 #
point $-1 42.187566759239481 14.283027601297816 0.23213099702747542 #
edge $-1 $520 1 $520 0 $317 $-1 forward 7 unknown #
vertex $-1 $318 $521 #
ellipse-curve $-1 38.79682309188042 16.487267441612875 1.8799909089204456 0.66913061440640931 0 0.74314481823134659 0.3715724091156733 0 -0.33456530720320465 1 I I #
point $-1 39.867136375447345 16.487267441612875 2.321455944605574 #
edge $-1 $522 1 $522 0 $321 $-1 forward 7 unknown #
vertex $-1 $322 $523 #
ellipse-curve $-1 38.79682309188042 19.793627202085464 1.8799909089204456 0.66913061440640931 0 0.74314481823134659 0.3715724091156733 0 -0.33456530720320465 1 I I #
point $-1 39.867136375447345 19.793627202085464 2.321455944605574 #
plane-surface $-1 42.187566759239481 0 0 -1 0 0 0 0 1 forward_v I I I I #
coedge $-1 $330 $328 $332 $456 reversed $221 $-1 #
edge $-1 $343 -5.0799115065900535 $458 5.0799115065900535 $342 $524 forward 7 unknown #
vertex $-1 $456 $525 #
straight-curve $-1 -42.187566759239481 -21.997867042400525 0 0 0 -1 I I #
edge $-1 $454 -21.997867042400525 $458 21.997867042400525 $452 $526 forward 7 unknown #
straight-curve $-1 0 -21.997867042400525 -5.0799115065900535 -1 0 0 I I #
vertex $-1 $335 $527 #
straight-curve $-1 0 21.997867042400525 -5.0799115065900535 1 0 0 I I #
point $-1 42.187566759239481 21.997867042400525 -5.0799115065900535 #
point $-1 42.187566759239481 -21.997867042400525 -5.0799115065900535 #
straight-curve $-1 -42.187566759239481 0 5.0799115065900535 0 -1 0 I I #
point $-1 -42.187566759239481 21.997867042400525 5.0799115065900535 #
point $-1 -42.187566759239481 -21.997867042400525 5.0799115065900535 #
straight-curve $-1 42.187566759239481 -21.997867042400525 0 0 0 -1 I I #
straight-curve $-1 42.187566759239481 21.997867042400525 0 0 0 -1 I I #
plane-surface $-1 0 -21.997867042400525 0 0 1 0 0 0 1 forward_v I I I I #
coedge $-1 $528 $355 $367 $479 reversed $240 $-1 #
coedge $-1 $355 $528 $370 $481 reversed $240 $-1 #
edge $-1 $529 -42.187566759239481 $364 -39.187566759239481 $360 $530 forward 7 unknown #
straight-curve $-1 -39.187566759239481 -9.5863710072260648 5.0799115065900535 0 1 0 I I #
coedge $-1 $367 $358 $361 $475 forward $353 $-1 #
straight-curve $-1 -39.187566759239481 -9.5863710072260648 -5.0799115065900535 0 -1 0 I I #
coedge $-1 $361 $360 $528 $531 forward $362 $-1 #
edge $-1 $363 39.187566759239481 $532 42.187566759239481 $361 $533 forward 7 unknown #
point $-1 -39.187566759239481 -21.997867042400525 -5.0799115065900535 #
point $-1 -39.187566759239481 -21.997867042400525 5.0799115065900535 #
straight-curve $-1 -42.187566759239481 -16.347616986503734 0 0 0 -1 I I #
edge $-1 $532 -21.997867042400525 $368 -16.347616986503734 $468 $534 forward 7 unknown #
point $-1 -42.187566759239481 -16.347616986503734 -5.0799115065900535 #
edge $-1 $371 16.347616986503734 $529 21.997867042400525 $469 $535 forward 7 unknown #
point $-1 -42.187566759239481 -16.347616986503734 5.0799115065900535 #
edge $-1 $484 54.616618088762841 $487 59.464398598325417 $376 $536 forward 7 unknown #
vertex $-1 $390 $537 #
straight-curve $-1 17.971304214623235 -16.347616986503734 5.0799115065900509 1 0 0 I I #
edge $-1 $487 -10.102518353527543 $387 -2.3876789124248363 $386 $538 forward 7 unknown #
vertex $-1 $486 $539 #
straight-curve $-1 -20.515376502596176 -16.347616986503734 56.690115928870135 -0.74314481823134659 0 0.66913061440640931 I I #
point $-1 36.803561173423873 -16.347616986503734 5.0799115065900438 #
point $-1 42.187566759239481 -8.6327775454010265 0.23213099702747542 #
straight-curve $-1 42.187566759239481 0 5.0799115065900535 0 1 0 I I #
vertex $-1 $393 $540 #
point $-1 39.168395500996091 -14.143377146188675 1.545425601717241 #
vertex $-1 $397 $541 #
point $-1 39.168395500996091 -10.837017385716086 1.545425601717241 #
edge $-1 $497 54.616618088762841 $500 59.464398598325417 $402 $542 forward 7 unknown #
vertex $-1 $416 $543 #
straight-curve $-1 17.971304214623235 -1.0322946926029579 5.0799115065900509 1 0 0 I I #
edge $-1 $500 -2.4448572065771557 $413 5.2699822345255516 $412 $544 forward 7 unknown #
vertex $-1 $499 $545 #
straight-curve $-1 -20.515376502596176 -1.0322946926029579 56.690115928870135 -0.74314481823134659 0 0.66913061440640931 I I #
point $-1 36.803561173423873 -1.0322946926029579 5.0799115065900438 #
point $-1 42.187566759239481 6.6825447484997493 0.23213099702747542 #
straight-curve $-1 42.187566759239481 0 5.0799115065900535 0 1 0 I I #
vertex $-1 $419 $546 #
point $-1 39.168395500996091 1.1719451477121012 1.545425601717241 #
vertex $-1 $423 $547 #
point $-1 39.168395500996091 4.4783049081846897 1.545425601717241 #
coedge $-1 $510 $429 $516 $548 reversed $304 $-1 #
coedge $-1 $429 $509 $432 $514 forward $304 $-1 #
edge $-1 $512 -12.927643381475937 $437 -5.2128039403732309 $436 $549 forward 7 unknown #
vertex $-1 $431 $550 #
straight-curve $-1 -0.75553187498441865 21.997867042400525 38.898271524011534 -0.74314481823134659 0 0.66913061440640931 I I #
edge $-1 $518 -5.0799115065900535 $433 -0.2321309970274717 $432 $551 forward 7 unknown #
point $-1 42.187566759239481 21.997867042400525 0.2321309970274717 #
coedge $-1 $436 $435 $509 $548 forward $427 $-1 #
point $-1 36.803561173423873 14.283027601297816 5.0799115065900438 #
vertex $-1 $440 $552 #
straight-curve $-1 42.187566759239481 0 5.0799115065900535 0 1 0 I I #
vertex $-1 $443 $553 #
point $-1 39.168395500996091 16.487267441612875 1.545425601717241 #
vertex $-1 $447 $554 #
point $-1 39.168395500996091 19.793627202085464 1.545425601717241 #
straight-curve $-1 -42.187566759239481 21.997867042400525 0 0 0 -1 I I #
point $-1 -42.187566759239481 -21.997867042400525 -5.0799115065900535 #
straight-curve $-1 -42.187566759239481 0 -5.0799115065900535 0 1 0 I I #
point $-1 -42.187566759239481 21.997867042400525 -5.0799115065900535 #
coedge $-1 $469 $468 $474 $531 reversed $240 $-1 #
vertex $-1 $481 $555 #
straight-curve $-1 0 -21.997867042400525 5.0799115065900535 1 0 0 I I #
edge $-1 $529 -5.0799115065900535 $532 5.0799115065900535 $528 $556 forward 7 unknown #
vertex $-1 $479 $557 #
straight-curve $-1 0 -21.997867042400525 -5.0799115065900535 -1 0 0 I I #
straight-curve $-1 -42.187566759239481 0 -5.0799115065900535 0 1 0 I I #
straight-curve $-1 -42.187566759239481 0 5.0799115065900535 0 -1 0 I I #
straight-curve $-1 42.187566759239481 -16.347616986503734 59.696529595352892 0 0 -1 I I #
point $-1 42.187566759239481 -16.347616986503734 5.0799115065900535 #
straight-curve $-1 42.187566759239481 -6.2450986329761902 0.23213099702747542 0 1 0 I I #
point $-1 42.187566759239481 -16.347616986503734 0.23213099702747542 #
point $-1 38.462257784677213 -14.143377146188675 1.5084184998047727 #
point $-1 38.462257784677213 -10.837017385716086 1.5084184998047727 #
straight-curve $-1 42.187566759239481 -1.0322946926029579 59.696529595352892 0 0 -1 I I #
point $-1 42.187566759239481 -1.0322946926029579 5.0799115065900535 #
straight-curve $-1 42.187566759239481 1.4125625139741977 0.23213099702747542 0 1 0 I I #
point $-1 42.187566759239481 -1.0322946926029579 0.23213099702747542 #
point $-1 38.462257784677213 1.1719451477121012 1.5084184998047727 #
point $-1 38.462257784677213 4.4783049081846897 1.5084184998047727 #
edge $-1 $518 -42.187566759239481 $512 -36.803561173423873 $509 $558 forward 7 unknown #
straight-curve $-1 36.803561173423873 9.0702236609245848 5.0799115065900438 0 -1 0 I I #
point $-1 36.803561173423873 21.997867042400522 5.0799115065900438 #
straight-curve $-1 42.187566759239481 21.997867042400525 0 0 0 -1 I I #
point $-1 42.187566759239481 21.997867042400525 5.0799115065900535 #
point $-1 38.462257784677213 16.487267441612875 1.5084184998047727 #
point $-1 38.462257784677213 19.793627202085464 1.5084184998047727 #
point $-1 -42.187566759239481 -21.997867042400525 5.0799115065900535 #
straight-curve $-1 -42.187566759239481 -21.997867042400525 0 0 0 -1 I I #
point $-1 -42.187566759239481 -21.997867042400525 -5.0799115065900535 #
straight-curve $-1 0 21.997867042400525 5.0799115065900535 -1 0 0 I I #
End-of-ACIS-data 