500 0 5 0           
7 Unknown 11 ACIS 5.0 NT 24 Fri Mar 26 18:41:52 1999 
-1 9.9999999999999995e-007 1e-010 
body $-1 $5 $-1 $6 #
body $-1 $7 $-1 $8 #
body $-1 $9 $-1 $10 #
body $-1 $11 $-1 $12 #
body $-1 $13 $-1 $14 #
lump $-1 $-1 $15 $0 #
transform $-1 1 0 0 0 1 0 0 0 1 52.892239143040257 23.999488300146304 10.015155585417357 1 rotate no_reflect no_shear #
lump $-1 $-1 $16 $1 #
transform $-1 1 0 0 0 1 0 0 0 1 52.892239143040257 23.999488300146304 10.015155585417357 1 rotate no_reflect no_shear #
lump $-1 $-1 $17 $2 #
transform $-1 1 0 0 0 1 0 0 0 1 52.892239143040257 23.999488300146304 10.015155585417357 1 rotate no_reflect no_shear #
lump $-1 $-1 $18 $3 #
transform $-1 1 0 0 0 1 0 0 0 1 52.892239143040257 23.999488300146304 10.015155585417357 1 rotate no_reflect no_shear #
lump $-1 $-1 $19 $4 #
transform $-1 1 0 0 0 1 0 0 0 1 52.892239143040257 23.999488300146304 10.015155585417357 1 rotate no_reflect no_shear #
shell $-1 $-1 $-1 $20 $-1 $5 #
shell $-1 $-1 $-1 $21 $-1 $7 #
shell $-1 $-1 $-1 $22 $-1 $9 #
shell $-1 $-1 $-1 $23 $-1 $11 #
shell $-1 $-1 $-1 $24 $-1 $13 #
face $-1 $25 $26 $15 $-1 $27 forward single #
face $-1 $28 $29 $16 $-1 $30 reversed single #
face $-1 $31 $32 $17 $-1 $33 forward single #
face $-1 $34 $35 $18 $-1 $36 reversed single #
face $-1 $37 $38 $19 $-1 $39 reversed single #
face $-1 $40 $41 $15 $-1 $42 reversed single #
loop $-1 $-1 $43 $20 #
plane-surface $-1 0 0 10.015155585417357 0 0 1 1 0 0 forward_v I I I I #
face $-1 $44 $45 $16 $-1 $46 reversed single #
loop $-1 $-1 $47 $21 #
plane-surface $-1 -50.363280165126447 -35.516914166900058 0 0 1 0 0 0 1 forward_v I I I I #
face $-1 $48 $49 $17 $-1 $50 forward single #
loop $-1 $-1 $51 $22 #
plane-surface $-1 71.1241196198051 14.856277361321329 153.09121280497195 0 -1 0 -0.78801076186113728 0 -0.61566146476048833 forward_v I I I I #
face $-1 $52 $53 $18 $-1 $54 reversed single #
loop $-1 $55 $56 $23 #
cone-surface $-1 49.794178891159184 8.0669545205801612 6.540705304817811 -0.78801076186113728 0 -0.61566146476048833 0.61566146476048833 0 -0.78801076186113728 1 I I 0 1 1 forward I I I I #
face $-1 $57 $58 $19 $-1 $59 reversed single #
loop $-1 $60 $61 $24 #
cone-surface $-1 49.794178891159184 12.140548225024865 6.540705304817811 -0.78801076186113728 0 -0.61566146476048833 0.61566146476048833 0 -0.78801076186113728 1 I I 0 1 1 forward I I I I #
face $-1 $62 $63 $15 $-1 $64 reversed single #
loop $-1 $-1 $65 $25 #
plane-surface $-1 0 0 -10.015155585417357 0 0 1 1 0 0 forward_v I I I I #
coedge $-1 $66 $67 $68 $69 forward $26 $-1 #
face $-1 $70 $71 $16 $-1 $72 reversed single #
loop $-1 $-1 $73 $28 #
plane-surface $-1 -47.834321187212637 -29.758201233523181 0 -1 0 0 0 0 1 forward_v I I I I #
coedge $-1 $74 $75 $76 $77 forward $29 $-1 #
face $-1 $78 $79 $17 $-1 $80 forward single #
loop $-1 $-1 $81 $31 #
plane-surface $-1 -12.235187707492145 10.103751372802513 87.963785954439544 0.78801076186113728 0 0.61566146476048833 0.61566146476048833 0 -0.78801076186113728 forward_v I I I I #
coedge $-1 $82 $83 $84 $85 reversed $32 $-1 #
face $-1 $86 $87 $18 $-1 $88 forward single #
loop $-1 $89 $90 $34 #
cone-surface $-1 48.415755268521295 8.0669545205801612 5.4637627709755527 -0.78801076186113728 0 -0.61566146476048833 0.30783073238024417 0 -0.39400538093056864 1 I I -0.70710678118654746 0.70710678118654746 0.5 forward I I I I #
loop $-1 $-1 $91 $23 #
coedge $-1 $56 $56 $92 $93 reversed $35 $-1 #
face $-1 $94 $95 $19 $-1 $96 reversed single #
loop $-1 $97 $98 $37 #
cone-surface $-1 48.415755268521295 12.140548225024865 5.4637627709755527 -0.78801076186113728 0 -0.61566146476048833 0.30783073238024417 0 -0.39400538093056864 1 I I -0.70710678118654746 0.70710678118654746 0.5 forward I I I I #
loop $-1 $-1 $99 $24 #
coedge $-1 $61 $61 $100 $101 reversed $38 $-1 #
face $-1 $102 $103 $15 $-1 $104 reversed single #
loop $-1 $-1 $105 $40 #
plane-surface $-1 0 -23.999488300146304 0 0 1 0 0 0 1 forward_v I I I I #
coedge $-1 $106 $107 $108 $109 forward $41 $-1 #
coedge $-1 $110 $43 $111 $112 forward $26 $-1 #
coedge $-1 $43 $110 $113 $114 forward $26 $-1 #
coedge $-1 $115 $116 $43 $69 reversed $117 $-1 #
edge $-1 $118 -23.999488300146304 $119 23.999488300146304 $68 $120 forward 7 unknown #
face $-1 $121 $122 $16 $-1 $123 forward single #
loop $-1 $-1 $124 $44 #
plane-surface $-1 0 -23.999488300146304 0 0 1 0 0 0 1 forward_v I I I I #
coedge $-1 $125 $126 $127 $128 forward $45 $-1 #
coedge $-1 $127 $47 $129 $130 reversed $29 $-1 #
coedge $-1 $47 $127 $131 $132 reversed $29 $-1 #
coedge $-1 $133 $134 $47 $77 reversed $135 $-1 #
edge $-1 $136 -10.015155585417357 $137 10.015155585417357 $76 $138 forward 7 unknown #
face $-1 $139 $140 $17 $-1 $141 forward single #
loop $-1 $-1 $142 $48 #
plane-surface $-1 71.1241196198051 5.3512253842836977 153.09121280497195 0 1 0 0.78801076186113728 0 0.61566146476048833 forward_v I I I I #
coedge $-1 $143 $144 $145 $146 reversed $49 $-1 #
coedge $-1 $83 $51 $144 $147 forward $32 $-1 #
coedge $-1 $51 $82 $148 $149 reversed $32 $-1 #
coedge $-1 $150 $145 $51 $85 forward $140 $-1 #
edge $-1 $151 13.10289531279021 $152 17.330179333137707 $84 $153 forward 7 unknown #
face $-1 $154 $155 $18 $-1 $156 forward single #
loop $-1 $-1 $157 $52 #
plane-surface $-1 71.1241196198051 14.856277361321329 153.09121280497195 0 -1 0 -0.78801076186113728 0 -0.61566146476048833 forward_v I I I I #
loop $-1 $-1 $158 $34 #
coedge $-1 $90 $90 $91 $159 forward $53 $-1 #
coedge $-1 $91 $91 $90 $159 reversed $55 $-1 #
coedge $-1 $92 $92 $56 $93 forward $155 $-1 #
edge $-1 $160 0 $160 6.2831853071796004 $92 $161 forward 7 unknown #
face $-1 $162 $163 $19 $-1 $164 reversed single #
loop $-1 $165 $166 $57 #
cone-surface $-1 49.794178891159184 8.0669545205801612 6.540705304817811 -0.78801076186113728 0 -0.61566146476048833 0.61566146476048833 0 -0.78801076186113728 1 I I 0 1 1 forward I I I I #
loop $-1 $-1 $167 $37 #
coedge $-1 $98 $98 $99 $168 forward $58 $-1 #
coedge $-1 $99 $99 $98 $168 reversed $60 $-1 #
coedge $-1 $100 $100 $61 $101 forward $169 $-1 #
edge $-1 $170 0 $170 6.2831853071796004 $100 $171 forward 7 unknown #
face $-1 $172 $173 $15 $-1 $174 reversed single #
loop $-1 $-1 $175 $62 #
plane-surface $-1 -52.892239143040257 0 0 1 0 0 0 0 -1 forward_v I I I I #
coedge $-1 $176 $113 $177 $178 forward $63 $-1 #
coedge $-1 $179 $65 $176 $180 forward $41 $-1 #
coedge $-1 $65 $179 $181 $182 forward $41 $-1 #
coedge $-1 $116 $115 $65 $109 reversed $117 $-1 #
edge $-1 $183 -23.999488300146304 $184 23.999488300146304 $108 $185 forward 7 unknown #
coedge $-1 $67 $66 $186 $187 forward $26 $-1 #
coedge $-1 $188 $189 $66 $112 reversed $173 $-1 #
edge $-1 $119 -52.892239143040257 $190 52.892239143040257 $111 $191 forward 7 unknown #
coedge $-1 $105 $192 $67 $114 reversed $63 $-1 #
edge $-1 $193 -52.892239143040257 $118 52.892239143040257 $113 $194 forward 7 unknown #
coedge $-1 $108 $68 $192 $195 forward $117 $-1 #
coedge $-1 $68 $108 $188 $196 reversed $117 $-1 #
loop $-1 $-1 $115 $172 #
vertex $-1 $69 $197 #
vertex $-1 $69 $198 #
straight-curve $-1 52.892239143040257 0 10.015155585417357 0 1 0 I I #
face $-1 $199 $200 $16 $-1 $201 reversed single #
loop $-1 $-1 $202 $70 #
plane-surface $-1 0 0 10.015155585417357 0 0 1 1 0 0 forward_v I I I I #
coedge $-1 $203 $204 $205 $206 forward $71 $-1 #
coedge $-1 $205 $73 $207 $208 reversed $45 $-1 #
coedge $-1 $73 $205 $209 $210 reversed $45 $-1 #
coedge $-1 $75 $74 $73 $128 reversed $29 $-1 #
edge $-1 $211 -10.015155585417357 $212 10.015155585417357 $73 $213 forward 7 unknown #
coedge $-1 $214 $207 $74 $130 forward $200 $-1 #
edge $-1 $212 -2.5289589779138097 $137 2.5289589779138097 $74 $215 forward 7 unknown #
coedge $-1 $209 $216 $75 $132 forward $122 $-1 #
edge $-1 $136 -2.5289589779138097 $211 2.5289589779138097 $75 $217 forward 7 unknown #
coedge $-1 $218 $76 $216 $219 reversed $135 $-1 #
coedge $-1 $76 $218 $214 $220 reversed $135 $-1 #
loop $-1 $-1 $218 $199 #
vertex $-1 $219 $221 #
vertex $-1 $220 $222 #
straight-curve $-1 -52.892239143040257 -35.516914166900058 0 0 0 -1 I I #
face $-1 $223 $224 $17 $-1 $225 reversed single #
loop $-1 $-1 $226 $78 #
plane-surface $-1 0 0 10.015155585417357 0 0 1 1 0 0 forward_v I I I I #
coedge $-1 $227 $228 $226 $229 reversed $79 $-1 #
coedge $-1 $230 $81 $228 $231 reversed $49 $-1 #
coedge $-1 $81 $230 $82 $147 reversed $49 $-1 #
coedge $-1 $84 $226 $81 $146 forward $140 $-1 #
edge $-1 $232 0.29934969788244103 $151 9.8044016749200722 $145 $233 forward 7 unknown #
edge $-1 $151 98.918230742079942 $234 105.78447828608051 $82 $235 forward 7 unknown #
coedge $-1 $236 $237 $83 $149 forward $238 $-1 #
edge $-1 $152 66.530450817068612 $234 71.941127775343674 $148 $239 forward 7 unknown #
coedge $-1 $240 $84 $237 $241 forward $140 $-1 #
vertex $-1 $146 $242 #
vertex $-1 $241 $243 #
straight-curve $-1 35.56205980990255 14.856277361321329 10.015155585417361 1 0 0 I I #
face $-1 $244 $245 $18 $-1 $246 forward single #
loop $-1 $247 $92 $86 #
plane-surface $-1 -12.235187707492145 10.103751372802513 87.963785954439544 0.78801076186113728 0 0.61566146476048833 0.61566146476048833 0 -0.78801076186113728 forward_v I I I I #
coedge $-1 $248 $249 $250 $251 reversed $87 $-1 #
coedge $-1 $158 $158 $-1 $252 forward $89 $-1 #
edge $-1 $253 0 $253 6.2831853071796004 $90 $254 forward 7 unknown #
vertex $-1 $93 $255 #
ellipse-curve $-1 50.778597132866508 8.0669545205801612 7.3098171062798301 -0.78801076186113728 0 -0.61566146476048833 0.61566146476048833 0 -0.78801076186113728 1 I I #
face $-1 $256 $257 $19 $-1 $258 forward single #
loop $-1 $259 $260 $94 #
cone-surface $-1 48.415755268521295 8.0669545205801612 5.4637627709755527 -0.78801076186113728 0 -0.61566146476048833 0.30783073238024417 0 -0.39400538093056864 1 I I -0.70710678118654746 0.70710678118654746 0.5 forward I I I I #
loop $-1 $-1 $261 $57 #
coedge $-1 $166 $166 $262 $263 reversed $95 $-1 #
coedge $-1 $167 $167 $-1 $264 forward $97 $-1 #
edge $-1 $265 0 $265 6.2831853071796004 $98 $266 forward 7 unknown #
loop $-1 $267 $100 $256 #
vertex $-1 $101 $268 #
ellipse-curve $-1 50.778597132866508 12.140548225024865 7.3098171062798301 -0.78801076186113728 0 -0.61566146476048833 0.61566146476048833 0 -0.78801076186113728 1 I I #
face $-1 $-1 $117 $15 $-1 $269 reversed single #
loop $-1 $-1 $188 $102 #
plane-surface $-1 0 23.999488300146304 0 0 -1 0 0 0 -1 forward_v I I I I #
coedge $-1 $270 $186 $189 $271 forward $103 $-1 #
coedge $-1 $192 $105 $106 $180 reversed $63 $-1 #
coedge $-1 $186 $270 $105 $178 reversed $103 $-1 #
edge $-1 $193 -10.015155585417357 $272 10.015155585417357 $177 $273 forward 7 unknown #
coedge $-1 $107 $106 $270 $274 forward $41 $-1 #
edge $-1 $184 -52.892239143040257 $272 52.892239143040257 $176 $275 forward 7 unknown #
coedge $-1 $189 $188 $107 $182 reversed $173 $-1 #
edge $-1 $276 -52.892239143040257 $183 52.892239143040257 $181 $277 forward 7 unknown #
vertex $-1 $109 $278 #
vertex $-1 $195 $279 #
straight-curve $-1 52.892239143040257 0 -10.015155585417357 0 -1 0 I I #
coedge $-1 $175 $177 $110 $187 reversed $103 $-1 #
edge $-1 $190 -23.999488300146304 $193 23.999488300146304 $186 $280 forward 7 unknown #
coedge $-1 $181 $111 $116 $196 forward $173 $-1 #
coedge $-1 $111 $181 $175 $271 reversed $173 $-1 #
vertex $-1 $112 $281 #
straight-curve $-1 0 23.999488300146304 10.015155585417357 -1 0 0 I I #
coedge $-1 $113 $176 $115 $195 reversed $63 $-1 #
vertex $-1 $187 $282 #
straight-curve $-1 0 -23.999488300146304 10.015155585417357 1 0 0 I I #
edge $-1 $118 -10.015155585417357 $184 10.015155585417357 $115 $283 forward 7 unknown #
edge $-1 $119 -10.015155585417357 $183 10.015155585417357 $116 $284 forward 7 unknown #
point $-1 52.892239143040257 -23.999488300146304 10.015155585417357 #
point $-1 52.892239143040257 23.999488300146304 10.015155585417357 #
face $-1 $285 $135 $16 $-1 $286 reversed single #
loop $-1 $-1 $287 $121 #
plane-surface $-1 0 0 -10.015155585417357 0 0 1 1 0 0 forward_v I I I I #
coedge $-1 $288 $289 $290 $291 forward $122 $-1 #
coedge $-1 $292 $124 $293 $294 reversed $71 $-1 #
coedge $-1 $124 $292 $289 $295 reversed $71 $-1 #
coedge $-1 $126 $125 $124 $206 reversed $45 $-1 #
edge $-1 $296 -10.015155585417357 $297 10.015155585417357 $124 $298 forward 7 unknown #
coedge $-1 $129 $293 $125 $208 forward $200 $-1 #
edge $-1 $297 -5.7587129333768772 $212 5.7587129333768772 $125 $299 forward 7 unknown #
coedge $-1 $289 $131 $126 $210 forward $122 $-1 #
edge $-1 $211 -5.7587129333768772 $296 5.7587129333768772 $126 $300 forward 7 unknown #
vertex $-1 $210 $301 #
vertex $-1 $128 $302 #
straight-curve $-1 -47.834321187212637 -35.516914166900058 0 0 0 -1 I I #
coedge $-1 $303 $129 $134 $220 forward $200 $-1 #
straight-curve $-1 -50.363280165126447 -35.516914166900058 -10.015155585417357 -1 0 0 I I #
coedge $-1 $131 $288 $133 $219 forward $122 $-1 #
straight-curve $-1 -50.363280165126447 -35.516914166900058 10.015155585417357 1 0 0 I I #
coedge $-1 $134 $133 $304 $305 forward $135 $-1 #
edge $-1 $306 -23.999488300146304 $136 35.516914166900058 $133 $307 forward 7 unknown #
edge $-1 $137 -35.516914166900058 $308 23.999488300146304 $134 $309 forward 7 unknown #
point $-1 -52.892239143040257 -35.516914166900058 10.015155585417357 #
point $-1 -52.892239143040257 -35.516914166900058 -10.015155585417357 #
face $-1 $310 $311 $17 $-1 $312 reversed single #
loop $-1 $-1 $313 $139 #
plane-surface $-1 -50.363280165126447 -35.516914166900058 0 0 1 0 0 0 1 forward_v I I I I #
coedge $-1 $145 $314 $142 $229 forward $140 $-1 #
coedge $-1 $228 $142 $315 $316 reversed $79 $-1 #
coedge $-1 $142 $227 $143 $231 forward $79 $-1 #
edge $-1 $317 -17.330179333137707 $232 -13.10289531279021 $226 $318 forward 7 unknown #
coedge $-1 $144 $143 $236 $319 reversed $49 $-1 #
edge $-1 $320 -105.78447828608051 $232 -98.918230742079942 $228 $321 forward 7 unknown #
vertex $-1 $146 $322 #
straight-curve $-1 48.664955122692767 5.0518756864012566 10.015155585417347 0 1 0 I I #
vertex $-1 $319 $323 #
straight-curve $-1 -12.235187707492145 14.856277361321329 87.963785954439544 0.61566146476048833 0 -0.78801076186113728 I I #
coedge $-1 $315 $148 $230 $319 forward $238 $-1 #
coedge $-1 $148 $324 $150 $241 reversed $238 $-1 #
loop $-1 $-1 $315 $325 #
straight-curve $-1 52.892239143040257 14.856277361321329 76.545606402485973 0 0 -1 I I #
coedge $-1 $326 $150 $327 $328 forward $140 $-1 #
edge $-1 $152 14.856277361321329 $329 23.999488300146304 $237 $330 forward 7 unknown #
point $-1 48.66495512269276 14.856277361321329 10.015155585417361 #
point $-1 52.892239143040257 14.856277361321329 10.015155585417357 #
face $-1 $331 $332 $18 $-1 $333 forward single #
loop $-1 $-1 $334 $154 #
plane-surface $-1 71.1241196198051 5.3512253842836977 153.09121280497195 0 1 0 0.78801076186113728 0 0.61566146476048833 forward_v I I I I #
loop $-1 $-1 $335 $86 #
coedge $-1 $249 $157 $336 $337 forward $87 $-1 #
coedge $-1 $157 $248 $338 $339 reversed $87 $-1 #
coedge $-1 $340 $341 $157 $251 forward $332 $-1 #
edge $-1 $342 13.10289531279021 $343 17.330179333137707 $250 $344 forward 7 unknown #
edge $-1 $345 1 $345 0 $158 $-1 forward 7 unknown #
vertex $-1 $159 $346 #
ellipse-curve $-1 48.80976064945186 8.0669545205801612 5.7715935033557972 0.78801076186113728 0 0.61566146476048833 0.61566146476048833 0 -0.78801076186113728 1 I I #
point $-1 51.394258597626994 8.0669545205801612 6.5218063444186889 #
face $-1 $347 $169 $19 $-1 $348 forward single #
loop $-1 $-1 $349 $162 #
plane-surface $-1 71.1241196198051 14.856277361321329 153.09121280497195 0 -1 0 -0.78801076186113728 0 -0.61566146476048833 forward_v I I I I #
loop $-1 $-1 $350 $94 #
coedge $-1 $260 $260 $261 $351 forward $163 $-1 #
coedge $-1 $261 $261 $260 $351 reversed $165 $-1 #
coedge $-1 $262 $262 $166 $263 forward $267 $-1 #
edge $-1 $352 0 $352 6.2831853071796004 $262 $353 forward 7 unknown #
edge $-1 $354 1 $354 0 $167 $-1 forward 7 unknown #
vertex $-1 $168 $355 #
ellipse-curve $-1 48.80976064945186 12.140548225024865 5.7715935033557972 0.78801076186113728 0 0.61566146476048833 0.61566146476048833 0 -0.78801076186113728 1 I I #
loop $-1 $356 $262 $256 #
point $-1 51.394258597626994 12.140548225024865 6.5218063444186889 #
plane-surface $-1 52.892239143040257 0 0 -1 0 0 0 0 1 forward_v I I I I #
coedge $-1 $177 $175 $179 $274 reversed $103 $-1 #
edge $-1 $190 -10.015155585417357 $276 10.015155585417357 $189 $357 forward 7 unknown #
vertex $-1 $274 $358 #
straight-curve $-1 -52.892239143040257 -23.999488300146304 0 0 0 -1 I I #
edge $-1 $272 -23.999488300146304 $276 23.999488300146304 $270 $359 forward 7 unknown #
straight-curve $-1 0 -23.999488300146304 -10.015155585417357 -1 0 0 I I #
vertex $-1 $182 $360 #
straight-curve $-1 0 23.999488300146304 -10.015155585417357 1 0 0 I I #
point $-1 52.892239143040257 23.999488300146304 -10.015155585417357 #
point $-1 52.892239143040257 -23.999488300146304 -10.015155585417357 #
straight-curve $-1 -52.892239143040257 0 10.015155585417357 0 -1 0 I I #
point $-1 -52.892239143040257 23.999488300146304 10.015155585417357 #
point $-1 -52.892239143040257 -23.999488300146304 10.015155585417357 #
straight-curve $-1 52.892239143040257 -23.999488300146304 0 0 0 -1 I I #
straight-curve $-1 52.892239143040257 23.999488300146304 0 0 0 -1 I I #
face $-1 $361 $362 $16 $-1 $363 reversed single #
plane-surface $-1 -52.892239143040257 0 0 1 0 0 0 0 -1 forward_v I I I I #
coedge $-1 $293 $303 $364 $365 forward $200 $-1 #
coedge $-1 $216 $202 $366 $367 forward $122 $-1 #
coedge $-1 $202 $209 $204 $295 forward $122 $-1 #
coedge $-1 $368 $369 $202 $291 reversed $370 $-1 #
edge $-1 $371 -23.999488300146304 $372 23.999488300146304 $290 $373 forward 7 unknown #
coedge $-1 $204 $203 $368 $374 reversed $71 $-1 #
coedge $-1 $207 $287 $203 $294 forward $200 $-1 #
edge $-1 $375 -52.892239143040257 $297 47.834321187212637 $203 $376 forward 7 unknown #
edge $-1 $296 -47.834321187212637 $371 52.892239143040257 $204 $377 forward 7 unknown #
vertex $-1 $295 $378 #
vertex $-1 $208 $379 #
straight-curve $-1 -47.834321187212637 -23.999488300146304 0 0 0 -1 I I #
straight-curve $-1 -47.834321187212637 -29.758201233523181 -10.015155585417357 0 -1 0 I I #
straight-curve $-1 -47.834321187212637 -29.758201233523181 10.015155585417357 0 1 0 I I #
point $-1 -47.834321187212637 -35.516914166900058 10.015155585417357 #
point $-1 -47.834321187212637 -35.516914166900058 -10.015155585417357 #
coedge $-1 $287 $214 $380 $381 forward $200 $-1 #
coedge $-1 $366 $380 $218 $305 reversed $362 $-1 #
edge $-1 $306 -10.015155585417357 $308 10.015155585417357 $304 $382 forward 7 unknown #
vertex $-1 $367 $383 #
straight-curve $-1 -52.892239143040257 0 10.015155585417357 0 -1 0 I I #
vertex $-1 $381 $384 #
straight-curve $-1 -52.892239143040257 0 -10.015155585417357 0 1 0 I I #
face $-1 $385 $386 $17 $-1 $387 reversed single #
loop $-1 $-1 $388 $223 #
plane-surface $-1 -47.834321187212637 -29.758201233523181 0 -1 0 0 0 0 1 forward_v I I I I #
coedge $-1 $389 $390 $391 $392 forward $224 $-1 #
coedge $-1 $226 $393 $394 $395 forward $140 $-1 #
coedge $-1 $394 $236 $227 $316 forward $238 $-1 #
edge $-1 $320 -71.941127775343674 $317 -66.530450817068612 $315 $396 forward 7 unknown #
vertex $-1 $316 $397 #
straight-curve $-1 35.56205980990255 5.3512253842836977 10.015155585417361 -1 0 0 I I #
edge $-1 $234 -9.8044016749200722 $320 -0.29934969788244103 $236 $398 forward 7 unknown #
vertex $-1 $319 $399 #
straight-curve $-1 -12.235187707492145 5.3512253842836977 87.963785954439544 -0.61566146476048833 0 0.78801076186113728 I I #
point $-1 48.66495512269276 5.3512253842836977 10.015155585417361 #
point $-1 52.892239143040257 14.856277361321329 4.6044786271422993 #
coedge $-1 $237 $400 $401 $402 reversed $238 $-1 #
face $-1 $-1 $238 $17 $-1 $403 reversed single #
coedge $-1 $404 $240 $405 $406 forward $140 $-1 #
coedge $-1 $401 $407 $240 $328 reversed $408 $-1 #
edge $-1 $329 -52.892239143040257 $409 52.892239143040257 $327 $410 forward 7 unknown #
vertex $-1 $241 $411 #
straight-curve $-1 52.892239143040257 0 10.015155585417357 0 1 0 I I #
face $-1 $412 $413 $18 $-1 $414 reversed single #
loop $-1 $-1 $415 $244 #
plane-surface $-1 0 0 10.015155585417357 0 0 1 1 0 0 forward_v I I I I #
coedge $-1 $416 $417 $415 $418 reversed $245 $-1 #
coedge $-1 $419 $336 $341 $420 reversed $247 $-1 #
coedge $-1 $335 $421 $248 $337 reversed $247 $-1 #
edge $-1 $342 98.918230742079942 $422 105.78447828608051 $248 $423 forward 7 unknown #
coedge $-1 $424 $425 $249 $339 forward $426 $-1 #
edge $-1 $343 66.530450817068612 $422 71.941127775343674 $338 $427 forward 7 unknown #
coedge $-1 $428 $250 $425 $429 forward $332 $-1 #
coedge $-1 $250 $415 $335 $420 forward $332 $-1 #
vertex $-1 $420 $430 #
vertex $-1 $429 $431 #
straight-curve $-1 35.56205980990255 14.856277361321329 10.015155585417361 1 0 0 I I #
vertex $-1 $252 $432 #
point $-1 49.425422114212353 8.0669545205801612 4.9835827414946596 #
face $-1 $433 $434 $19 $-1 $435 forward single #
plane-surface $-1 -12.235187707492145 10.103751372802513 87.963785954439544 0.78801076186113728 0 0.61566146476048833 0.61566146476048833 0 -0.78801076186113728 forward_v I I I I #
coedge $-1 $436 $437 $438 $439 reversed $257 $-1 #
coedge $-1 $350 $350 $-1 $440 forward $259 $-1 #
edge $-1 $441 0 $441 6.2831853071796004 $260 $442 forward 7 unknown #
vertex $-1 $263 $443 #
ellipse-curve $-1 50.778597132866508 8.0669545205801612 7.3098171062798301 -0.78801076186113728 0 -0.61566146476048833 0.61566146476048833 0 -0.78801076186113728 1 I I #
vertex $-1 $264 $444 #
point $-1 49.425422114212353 12.140548225024865 4.9835827414946596 #
loop $-1 $-1 $445 $256 #
straight-curve $-1 -52.892239143040257 23.999488300146304 0 0 0 -1 I I #
point $-1 -52.892239143040257 -23.999488300146304 -10.015155585417357 #
straight-curve $-1 -52.892239143040257 0 -10.015155585417357 0 1 0 I I #
point $-1 -52.892239143040257 23.999488300146304 -10.015155585417357 #
face $-1 $-1 $370 $16 $-1 $446 reversed single #
loop $-1 $-1 $447 $285 #
plane-surface $-1 0 23.999488300146304 0 0 -1 0 0 0 -1 forward_v I I I I #
coedge $-1 $369 $368 $287 $365 reversed $370 $-1 #
edge $-1 $448 -23.999488300146304 $375 23.999488300146304 $364 $449 forward 7 unknown #
coedge $-1 $447 $304 $288 $367 reversed $362 $-1 #
edge $-1 $372 -52.892239143040257 $306 52.892239143040257 $366 $450 forward 7 unknown #
coedge $-1 $364 $290 $292 $374 forward $370 $-1 #
coedge $-1 $290 $364 $447 $451 reversed $370 $-1 #
loop $-1 $-1 $368 $361 #
vertex $-1 $291 $452 #
vertex $-1 $291 $453 #
straight-curve $-1 52.892239143040257 0 10.015155585417357 0 1 0 I I #
edge $-1 $371 -10.015155585417357 $375 10.015155585417357 $368 $454 forward 7 unknown #
vertex $-1 $374 $455 #
straight-curve $-1 0 -23.999488300146304 -10.015155585417357 -1 0 0 I I #
straight-curve $-1 0 -23.999488300146304 10.015155585417357 1 0 0 I I #
point $-1 -47.834321187212637 -23.999488300146304 10.015155585417357 #
point $-1 -47.834321187212637 -23.999488300146304 -10.015155585417357 #
coedge $-1 $304 $447 $303 $381 reversed $362 $-1 #
edge $-1 $308 -52.892239143040257 $448 52.892239143040257 $380 $456 forward 7 unknown #
straight-curve $-1 -52.892239143040257 23.999488300146304 0 0 0 -1 I I #
point $-1 -52.892239143040257 23.999488300146304 10.015155585417357 #
point $-1 -52.892239143040257 23.999488300146304 -10.015155585417357 #
face $-1 $457 $458 $17 $-1 $459 reversed single #
loop $-1 $-1 $460 $310 #
plane-surface $-1 0 -23.999488300146304 0 0 1 0 0 0 1 forward_v I I I I #
coedge $-1 $461 $462 $463 $464 forward $311 $-1 #
coedge $-1 $463 $313 $465 $466 reversed $224 $-1 #
coedge $-1 $313 $463 $404 $467 reversed $224 $-1 #
coedge $-1 $405 $468 $313 $392 reversed $469 $-1 #
edge $-1 $470 -10.015155585417357 $471 10.015155585417357 $391 $472 forward 7 unknown #
coedge $-1 $314 $473 $474 $475 forward $140 $-1 #
coedge $-1 $476 $315 $314 $395 reversed $238 $-1 #
edge $-1 $477 -23.999488300146304 $317 5.3512253842836977 $394 $330 forward 7 unknown #
straight-curve $-1 52.892239143040257 5.3512253842836977 76.545606402485973 0 0 1 I I #
point $-1 52.892239143040257 5.3512253842836977 10.015155585417357 #
straight-curve $-1 52.892239143040257 5.0518756864012566 4.6044786271423064 0 -1 0 I I #
point $-1 52.892239143040257 5.3512253842836977 4.6044786271422993 #
coedge $-1 $324 $476 $478 $479 reversed $238 $-1 #
coedge $-1 $480 $327 $324 $402 forward $408 $-1 #
edge $-1 $329 -10.015155585417357 $481 10.015155585417357 $324 $482 forward 7 unknown #
plane-surface $-1 52.892239143040257 0 0 -1 0 0 0 0 1 forward_v I I I I #
coedge $-1 $473 $326 $390 $467 forward $140 $-1 #
coedge $-1 $483 $391 $326 $406 reversed $469 $-1 #
edge $-1 $409 -23.999488300146304 $470 35.516914166900058 $405 $484 forward 7 unknown #
coedge $-1 $327 $480 $483 $485 reversed $408 $-1 #
loop $-1 $-1 $401 $486 #
vertex $-1 $328 $487 #
straight-curve $-1 0 23.999488300146304 10.015155585417357 -1 0 0 I I #
point $-1 52.892239143040257 23.999488300146304 10.015155585417357 #
face $-1 $488 $489 $18 $-1 $490 reversed single #
loop $-1 $-1 $491 $331 #
plane-surface $-1 -50.363280165126447 -35.516914166900058 0 0 1 0 0 0 1 forward_v I I I I #
coedge $-1 $341 $492 $334 $418 forward $332 $-1 #
coedge $-1 $417 $334 $493 $494 reversed $245 $-1 #
coedge $-1 $334 $416 $419 $495 forward $245 $-1 #
edge $-1 $496 -17.330179333137707 $497 -13.10289531279021 $415 $498 forward 7 unknown #
coedge $-1 $421 $335 $417 $495 reversed $247 $-1 #
edge $-1 $497 0.29934969788244103 $342 9.8044016749200722 $341 $499 forward 7 unknown #
coedge $-1 $336 $419 $424 $500 reversed $247 $-1 #
vertex $-1 $500 $501 #
straight-curve $-1 -12.235187707492145 14.856277361321329 87.963785954439544 0.61566146476048833 0 -0.78801076186113728 I I #
coedge $-1 $493 $338 $421 $500 forward $426 $-1 #
coedge $-1 $338 $502 $340 $429 reversed $426 $-1 #
loop $-1 $-1 $493 $503 #
straight-curve $-1 52.892239143040257 14.856277361321329 76.545606402485973 0 0 -1 I I #
coedge $-1 $504 $340 $505 $506 forward $332 $-1 #
edge $-1 $343 14.856277361321329 $507 23.999488300146304 $425 $508 forward 7 unknown #
point $-1 48.66495512269276 14.856277361321329 10.015155585417361 #
point $-1 52.892239143040257 14.856277361321329 10.015155585417357 #
point $-1 48.02174988759073 8.0669545205801612 5.1559320385953082 #
face $-1 $509 $510 $19 $-1 $511 forward single #
loop $-1 $-1 $512 $347 #
plane-surface $-1 71.1241196198051 5.3512253842836977 153.09121280497195 0 1 0 0.78801076186113728 0 0.61566146476048833 forward_v I I I I #
coedge $-1 $437 $349 $513 $514 forward $257 $-1 #
coedge $-1 $349 $436 $515 $516 reversed $257 $-1 #
coedge $-1 $517 $518 $349 $439 forward $510 $-1 #
edge $-1 $519 13.10289531279021 $520 17.330179333137707 $438 $521 forward 7 unknown #
edge $-1 $522 1 $522 0 $350 $-1 forward 7 unknown #
vertex $-1 $351 $523 #
ellipse-curve $-1 48.80976064945186 8.0669545205801612 5.7715935033557972 0.78801076186113728 0 0.61566146476048833 0.61566146476048833 0 -0.78801076186113728 1 I I #
point $-1 51.394258597626994 8.0669545205801612 6.5218063444186889 #
point $-1 48.02174988759073 12.140548225024865 5.1559320385953082 #
coedge $-1 $524 $513 $518 $525 reversed $356 $-1 #
plane-surface $-1 52.892239143040257 0 0 -1 0 0 0 0 1 forward_v I I I I #
coedge $-1 $380 $366 $369 $451 forward $362 $-1 #
vertex $-1 $365 $526 #
straight-curve $-1 52.892239143040257 0 -10.015155585417357 0 -1 0 I I #
straight-curve $-1 0 23.999488300146304 10.015155585417357 -1 0 0 I I #
edge $-1 $372 -10.015155585417357 $448 10.015155585417357 $369 $527 forward 7 unknown #
point $-1 52.892239143040257 -23.999488300146304 10.015155585417357 #
point $-1 52.892239143040257 23.999488300146304 10.015155585417357 #
straight-curve $-1 52.892239143040257 -23.999488300146304 0 0 0 -1 I I #
point $-1 52.892239143040257 -23.999488300146304 -10.015155585417357 #
straight-curve $-1 0 23.999488300146304 -10.015155585417357 1 0 0 I I #
face $-1 $486 $469 $17 $-1 $528 reversed single #
loop $-1 $-1 $478 $385 #
plane-surface $-1 0 0 -10.015155585417357 0 0 1 1 0 0 forward_v I I I I #
coedge $-1 $529 $474 $530 $531 forward $386 $-1 #
coedge $-1 $530 $388 $532 $533 reversed $311 $-1 #
coedge $-1 $388 $530 $473 $534 reversed $311 $-1 #
coedge $-1 $390 $389 $388 $464 reversed $224 $-1 #
edge $-1 $535 -10.015155585417357 $536 10.015155585417357 $388 $537 forward 7 unknown #
coedge $-1 $538 $532 $389 $466 forward $458 $-1 #
edge $-1 $536 -2.5289589779138097 $471 2.5289589779138097 $389 $539 forward 7 unknown #
edge $-1 $470 -2.5289589779138097 $535 2.5289589779138097 $390 $540 forward 7 unknown #
coedge $-1 $391 $483 $538 $541 reversed $469 $-1 #
loop $-1 $-1 $483 $457 #
vertex $-1 $406 $542 #
vertex $-1 $541 $543 #
straight-curve $-1 -52.892239143040257 -35.516914166900058 0 0 0 -1 I I #
coedge $-1 $393 $404 $462 $534 forward $140 $-1 #
coedge $-1 $460 $544 $393 $475 reversed $386 $-1 #
edge $-1 $545 -47.834321187212637 $477 52.892239143040257 $474 $546 forward 7 unknown #
coedge $-1 $400 $394 $544 $547 forward $238 $-1 #
vertex $-1 $395 $548 #
coedge $-1 $549 $550 $400 $479 forward $458 $-1 #
edge $-1 $481 -23.999488300146304 $551 23.999488300146304 $400 $552 forward 7 unknown #
coedge $-1 $407 $401 $550 $553 reversed $408 $-1 #
vertex $-1 $479 $554 #
straight-curve $-1 52.892239143040257 23.999488300146304 0 0 0 -1 I I #
coedge $-1 $468 $405 $407 $485 forward $469 $-1 #
straight-curve $-1 -52.892239143040257 0 10.015155585417357 0 -1 0 I I #
edge $-1 $409 -10.015155585417357 $555 10.015155585417357 $407 $556 forward 7 unknown #
face $-1 $325 $408 $17 $-1 $557 reversed single #
point $-1 -52.892239143040257 23.999488300146304 10.015155585417357 #
face $-1 $558 $559 $18 $-1 $560 reversed single #
loop $-1 $-1 $561 $412 #
plane-surface $-1 -47.834321187212637 -29.758201233523181 0 -1 0 0 0 0 1 forward_v I I I I #
coedge $-1 $562 $563 $564 $565 forward $413 $-1 #
coedge $-1 $415 $566 $567 $568 forward $332 $-1 #
coedge $-1 $567 $424 $416 $494 forward $426 $-1 #
edge $-1 $569 -71.941127775343674 $496 -66.530450817068612 $493 $570 forward 7 unknown #
edge $-1 $569 -105.78447828608051 $497 -98.918230742079942 $417 $571 forward 7 unknown #
vertex $-1 $494 $572 #
vertex $-1 $420 $573 #
straight-curve $-1 35.56205980990255 5.3512253842836977 10.015155585417361 -1 0 0 I I #
straight-curve $-1 48.664955122692767 5.0518756864012566 10.015155585417347 0 1 0 I I #
edge $-1 $422 -9.8044016749200722 $569 -0.29934969788244103 $424 $574 forward 7 unknown #
point $-1 52.892239143040257 14.856277361321329 4.6044786271422993 #
coedge $-1 $425 $575 $576 $577 reversed $426 $-1 #
face $-1 $-1 $426 $18 $-1 $578 reversed single #
coedge $-1 $579 $428 $580 $581 forward $332 $-1 #
coedge $-1 $576 $582 $428 $506 reversed $583 $-1 #
edge $-1 $507 -52.892239143040257 $584 52.892239143040257 $505 $585 forward 7 unknown #
vertex $-1 $429 $586 #
straight-curve $-1 52.892239143040257 0 10.015155585417357 0 1 0 I I #
face $-1 $587 $588 $19 $-1 $589 reversed single #
loop $-1 $-1 $590 $433 #
plane-surface $-1 0 0 10.015155585417357 0 0 1 1 0 0 forward_v I I I I #
coedge $-1 $591 $592 $590 $593 reversed $434 $-1 #
coedge $-1 $445 $594 $436 $514 reversed $356 $-1 #
edge $-1 $519 98.918230742079942 $595 105.78447828608051 $436 $596 forward 7 unknown #
coedge $-1 $597 $598 $437 $516 forward $599 $-1 #
edge $-1 $520 66.530450817068612 $595 71.941127775343674 $515 $600 forward 7 unknown #
coedge $-1 $601 $438 $598 $602 forward $510 $-1 #
coedge $-1 $438 $590 $445 $525 forward $510 $-1 #
vertex $-1 $525 $603 #
vertex $-1 $602 $604 #
straight-curve $-1 35.56205980990255 14.856277361321329 10.015155585417361 1 0 0 I I #
vertex $-1 $440 $605 #
point $-1 49.425422114212353 8.0669545205801612 4.9835827414946596 #
coedge $-1 $594 $445 $592 $606 reversed $356 $-1 #
edge $-1 $607 0.29934969788244103 $519 9.8044016749200722 $518 $608 forward 7 unknown #
point $-1 52.892239143040257 23.999488300146304 -10.015155585417357 #
straight-curve $-1 52.892239143040257 23.999488300146304 0 0 0 -1 I I #
plane-surface $-1 -52.892239143040257 0 0 1 0 0 0 0 -1 forward_v I I I I #
coedge $-1 $544 $460 $549 $609 reversed $386 $-1 #
coedge $-1 $462 $461 $460 $531 reversed $311 $-1 #
edge $-1 $545 -10.015155585417357 $610 10.015155585417357 $460 $611 forward 7 unknown #
coedge $-1 $465 $549 $461 $533 forward $458 $-1 #
edge $-1 $610 -5.7587129333768772 $536 5.7587129333768772 $461 $612 forward 7 unknown #
edge $-1 $535 -5.7587129333768772 $545 5.7587129333768772 $462 $613 forward 7 unknown #
vertex $-1 $534 $614 #
vertex $-1 $464 $615 #
straight-curve $-1 -47.834321187212637 -35.516914166900058 0 0 0 -1 I I #
coedge $-1 $550 $465 $468 $541 forward $458 $-1 #
straight-curve $-1 -50.363280165126447 -35.516914166900058 -10.015155585417357 -1 0 0 I I #
straight-curve $-1 -50.363280165126447 -35.516914166900058 10.015155585417357 1 0 0 I I #
edge $-1 $471 -35.516914166900058 $555 23.999488300146304 $468 $616 forward 7 unknown #
point $-1 -52.892239143040257 -35.516914166900058 10.015155585417357 #
point $-1 -52.892239143040257 -35.516914166900058 -10.015155585417357 #
coedge $-1 $474 $529 $476 $547 reversed $386 $-1 #
vertex $-1 $475 $617 #
straight-curve $-1 0 -23.999488300146304 10.015155585417357 1 0 0 I I #
edge $-1 $477 -10.015155585417357 $551 10.015155585417357 $476 $618 forward 7 unknown #
point $-1 52.892239143040257 -23.999488300146304 10.015155585417357 #
coedge $-1 $532 $478 $529 $609 forward $458 $-1 #
coedge $-1 $478 $538 $480 $553 forward $458 $-1 #
vertex $-1 $547 $619 #
straight-curve $-1 52.892239143040257 0 -10.015155585417357 0 -1 0 I I #
edge $-1 $555 -52.892239143040257 $481 52.892239143040257 $480 $620 forward 7 unknown #
point $-1 52.892239143040257 23.999488300146304 -10.015155585417357 #
vertex $-1 $553 $621 #
straight-curve $-1 -52.892239143040257 23.999488300146304 0 0 0 -1 I I #
plane-surface $-1 0 23.999488300146304 0 0 -1 0 0 0 -1 forward_v I I I I #
face $-1 $622 $623 $18 $-1 $624 reversed single #
loop $-1 $-1 $625 $488 #
plane-surface $-1 0 -23.999488300146304 0 0 1 0 0 0 1 forward_v I I I I #
coedge $-1 $626 $627 $628 $629 forward $489 $-1 #
coedge $-1 $628 $491 $630 $631 reversed $413 $-1 #
coedge $-1 $491 $628 $579 $632 reversed $413 $-1 #
coedge $-1 $580 $633 $491 $565 reversed $634 $-1 #
edge $-1 $635 -10.015155585417357 $636 10.015155585417357 $564 $637 forward 7 unknown #
coedge $-1 $492 $638 $639 $640 forward $332 $-1 #
coedge $-1 $641 $493 $492 $568 reversed $426 $-1 #
edge $-1 $642 -23.999488300146304 $496 5.3512253842836977 $567 $508 forward 7 unknown #
vertex $-1 $500 $643 #
straight-curve $-1 52.892239143040257 5.3512253842836977 76.545606402485973 0 0 1 I I #
straight-curve $-1 -12.235187707492145 5.3512253842836977 87.963785954439544 -0.61566146476048833 0 0.78801076186113728 I I #
point $-1 52.892239143040257 5.3512253842836977 10.015155585417357 #
point $-1 48.66495512269276 5.3512253842836977 10.015155585417361 #
straight-curve $-1 52.892239143040257 5.0518756864012566 4.6044786271423064 0 -1 0 I I #
coedge $-1 $502 $641 $644 $645 reversed $426 $-1 #
coedge $-1 $646 $505 $502 $577 forward $583 $-1 #
edge $-1 $507 -10.015155585417357 $647 10.015155585417357 $502 $648 forward 7 unknown #
plane-surface $-1 52.892239143040257 0 0 -1 0 0 0 0 1 forward_v I I I I #
coedge $-1 $638 $504 $563 $632 forward $332 $-1 #
coedge $-1 $649 $564 $504 $581 reversed $634 $-1 #
edge $-1 $584 -23.999488300146304 $635 35.516914166900058 $580 $650 forward 7 unknown #
coedge $-1 $505 $646 $649 $651 reversed $583 $-1 #
loop $-1 $-1 $576 $652 #
vertex $-1 $506 $653 #
straight-curve $-1 0 23.999488300146304 10.015155585417357 -1 0 0 I I #
point $-1 52.892239143040257 23.999488300146304 10.015155585417357 #
face $-1 $654 $655 $19 $-1 $656 reversed single #
loop $-1 $-1 $657 $509 #
plane-surface $-1 -50.363280165126447 -35.516914166900058 0 0 1 0 0 0 1 forward_v I I I I #
coedge $-1 $518 $658 $512 $593 forward $510 $-1 #
coedge $-1 $592 $512 $659 $660 reversed $434 $-1 #
coedge $-1 $512 $591 $524 $606 forward $434 $-1 #
edge $-1 $661 -17.330179333137707 $607 -13.10289531279021 $590 $662 forward 7 unknown #
coedge $-1 $513 $524 $597 $663 reversed $356 $-1 #
vertex $-1 $663 $664 #
straight-curve $-1 -12.235187707492145 14.856277361321329 87.963785954439544 0.61566146476048833 0 -0.78801076186113728 I I #
coedge $-1 $659 $515 $594 $663 forward $599 $-1 #
coedge $-1 $515 $665 $517 $602 reversed $599 $-1 #
loop $-1 $-1 $659 $666 #
straight-curve $-1 52.892239143040257 14.856277361321329 76.545606402485973 0 0 -1 I I #
coedge $-1 $667 $517 $668 $669 forward $510 $-1 #
edge $-1 $520 14.856277361321329 $670 23.999488300146304 $598 $671 forward 7 unknown #
point $-1 48.66495512269276 14.856277361321329 10.015155585417361 #
point $-1 52.892239143040257 14.856277361321329 10.015155585417357 #
point $-1 48.02174988759073 8.0669545205801612 5.1559320385953082 #
edge $-1 $672 -105.78447828608051 $607 -98.918230742079942 $592 $673 forward 7 unknown #
vertex $-1 $525 $674 #
straight-curve $-1 48.664955122692767 5.0518756864012566 10.015155585417347 0 1 0 I I #
edge $-1 $551 -52.892239143040257 $610 47.834321187212637 $529 $675 forward 7 unknown #
vertex $-1 $533 $676 #
straight-curve $-1 -47.834321187212637 -23.999488300146304 0 0 0 -1 I I #
straight-curve $-1 -47.834321187212637 -29.758201233523181 -10.015155585417357 0 -1 0 I I #
straight-curve $-1 -47.834321187212637 -29.758201233523181 10.015155585417357 0 1 0 I I #
point $-1 -47.834321187212637 -35.516914166900058 10.015155585417357 #
point $-1 -47.834321187212637 -35.516914166900058 -10.015155585417357 #
straight-curve $-1 -52.892239143040257 0 -10.015155585417357 0 1 0 I I #
point $-1 -47.834321187212637 -23.999488300146304 10.015155585417357 #
straight-curve $-1 52.892239143040257 -23.999488300146304 0 0 0 -1 I I #
point $-1 52.892239143040257 -23.999488300146304 -10.015155585417357 #
straight-curve $-1 0 23.999488300146304 -10.015155585417357 1 0 0 I I #
point $-1 -52.892239143040257 23.999488300146304 -10.015155585417357 #
face $-1 $652 $634 $18 $-1 $677 reversed single #
loop $-1 $-1 $644 $558 #
plane-surface $-1 0 0 -10.015155585417357 0 0 1 1 0 0 forward_v I I I I #
coedge $-1 $678 $639 $679 $680 forward $559 $-1 #
coedge $-1 $679 $561 $681 $682 reversed $489 $-1 #
coedge $-1 $561 $679 $638 $683 reversed $489 $-1 #
coedge $-1 $563 $562 $561 $629 reversed $413 $-1 #
edge $-1 $684 -10.015155585417357 $685 10.015155585417357 $561 $686 forward 7 unknown #
coedge $-1 $687 $681 $562 $631 forward $623 $-1 #
edge $-1 $685 -2.5289589779138097 $636 2.5289589779138097 $562 $688 forward 7 unknown #
edge $-1 $635 -2.5289589779138097 $684 2.5289589779138097 $563 $689 forward 7 unknown #
coedge $-1 $564 $649 $687 $690 reversed $634 $-1 #
loop $-1 $-1 $649 $622 #
vertex $-1 $581 $691 #
vertex $-1 $690 $692 #
straight-curve $-1 -52.892239143040257 -35.516914166900058 0 0 0 -1 I I #
coedge $-1 $566 $579 $627 $683 forward $332 $-1 #
coedge $-1 $625 $693 $566 $640 reversed $559 $-1 #
edge $-1 $694 -47.834321187212637 $642 52.892239143040257 $639 $695 forward 7 unknown #
coedge $-1 $575 $567 $693 $696 forward $426 $-1 #
vertex $-1 $568 $697 #
point $-1 52.892239143040257 5.3512253842836977 4.6044786271422993 #
coedge $-1 $698 $699 $575 $645 forward $623 $-1 #
edge $-1 $647 -23.999488300146304 $700 23.999488300146304 $575 $701 forward 7 unknown #
coedge $-1 $582 $576 $699 $702 reversed $583 $-1 #
vertex $-1 $645 $703 #
straight-curve $-1 52.892239143040257 23.999488300146304 0 0 0 -1 I I #
coedge $-1 $633 $580 $582 $651 forward $634 $-1 #
straight-curve $-1 -52.892239143040257 0 10.015155585417357 0 -1 0 I I #
edge $-1 $584 -10.015155585417357 $704 10.015155585417357 $582 $705 forward 7 unknown #
face $-1 $503 $583 $18 $-1 $706 reversed single #
point $-1 -52.892239143040257 23.999488300146304 10.015155585417357 #
face $-1 $707 $708 $19 $-1 $709 reversed single #
loop $-1 $-1 $710 $587 #
plane-surface $-1 -47.834321187212637 -29.758201233523181 0 -1 0 0 0 0 1 forward_v I I I I #
coedge $-1 $711 $712 $713 $714 forward $588 $-1 #
coedge $-1 $590 $715 $716 $717 forward $510 $-1 #
coedge $-1 $716 $597 $591 $660 forward $599 $-1 #
edge $-1 $672 -71.941127775343674 $661 -66.530450817068612 $659 $718 forward 7 unknown #
vertex $-1 $660 $719 #
straight-curve $-1 35.56205980990255 5.3512253842836977 10.015155585417361 -1 0 0 I I #
edge $-1 $595 -9.8044016749200722 $672 -0.29934969788244103 $597 $720 forward 7 unknown #
point $-1 52.892239143040257 14.856277361321329 4.6044786271422993 #
coedge $-1 $598 $721 $722 $723 reversed $599 $-1 #
face $-1 $-1 $599 $19 $-1 $724 reversed single #
coedge $-1 $725 $601 $726 $727 forward $510 $-1 #
coedge $-1 $722 $728 $601 $669 reversed $729 $-1 #
edge $-1 $670 -52.892239143040257 $730 52.892239143040257 $668 $731 forward 7 unknown #
vertex $-1 $602 $732 #
straight-curve $-1 52.892239143040257 0 10.015155585417357 0 1 0 I I #
vertex $-1 $663 $733 #
straight-curve $-1 -12.235187707492145 5.3512253842836977 87.963785954439544 -0.61566146476048833 0 0.78801076186113728 I I #
point $-1 48.66495512269276 5.3512253842836977 10.015155585417361 #
straight-curve $-1 0 -23.999488300146304 -10.015155585417357 -1 0 0 I I #
point $-1 -47.834321187212637 -23.999488300146304 -10.015155585417357 #
plane-surface $-1 -52.892239143040257 0 0 1 0 0 0 0 -1 forward_v I I I I #
coedge $-1 $693 $625 $698 $734 reversed $559 $-1 #
coedge $-1 $627 $626 $625 $680 reversed $489 $-1 #
edge $-1 $694 -10.015155585417357 $735 10.015155585417357 $625 $736 forward 7 unknown #
coedge $-1 $630 $698 $626 $682 forward $623 $-1 #
edge $-1 $735 -5.7587129333768772 $685 5.7587129333768772 $626 $737 forward 7 unknown #
edge $-1 $684 -5.7587129333768772 $694 5.7587129333768772 $627 $738 forward 7 unknown #
vertex $-1 $683 $739 #
vertex $-1 $629 $740 #
straight-curve $-1 -47.834321187212637 -35.516914166900058 0 0 0 -1 I I #
coedge $-1 $699 $630 $633 $690 forward $623 $-1 #
straight-curve $-1 -50.363280165126447 -35.516914166900058 -10.015155585417357 -1 0 0 I I #
straight-curve $-1 -50.363280165126447 -35.516914166900058 10.015155585417357 1 0 0 I I #
edge $-1 $636 -35.516914166900058 $704 23.999488300146304 $633 $741 forward 7 unknown #
point $-1 -52.892239143040257 -35.516914166900058 10.015155585417357 #
point $-1 -52.892239143040257 -35.516914166900058 -10.015155585417357 #
coedge $-1 $639 $678 $641 $696 reversed $559 $-1 #
vertex $-1 $640 $742 #
straight-curve $-1 0 -23.999488300146304 10.015155585417357 1 0 0 I I #
edge $-1 $642 -10.015155585417357 $700 10.015155585417357 $641 $743 forward 7 unknown #
point $-1 52.892239143040257 -23.999488300146304 10.015155585417357 #
coedge $-1 $681 $644 $678 $734 forward $623 $-1 #
coedge $-1 $644 $687 $646 $702 forward $623 $-1 #
vertex $-1 $696 $744 #
straight-curve $-1 52.892239143040257 0 -10.015155585417357 0 -1 0 I I #
edge $-1 $704 -52.892239143040257 $647 52.892239143040257 $646 $745 forward 7 unknown #
point $-1 52.892239143040257 23.999488300146304 -10.015155585417357 #
vertex $-1 $702 $746 #
straight-curve $-1 -52.892239143040257 23.999488300146304 0 0 0 -1 I I #
plane-surface $-1 0 23.999488300146304 0 0 -1 0 0 0 -1 forward_v I I I I #
face $-1 $747 $748 $19 $-1 $749 reversed single #
loop $-1 $-1 $750 $654 #
plane-surface $-1 0 -23.999488300146304 0 0 1 0 0 0 1 forward_v I I I I #
coedge $-1 $751 $752 $753 $754 forward $655 $-1 #
coedge $-1 $753 $657 $755 $756 reversed $588 $-1 #
coedge $-1 $657 $753 $725 $757 reversed $588 $-1 #
coedge $-1 $726 $758 $657 $714 reversed $759 $-1 #
edge $-1 $760 -10.015155585417357 $761 10.015155585417357 $713 $762 forward 7 unknown #
coedge $-1 $658 $763 $764 $765 forward $510 $-1 #
coedge $-1 $766 $659 $658 $717 reversed $599 $-1 #
edge $-1 $767 -23.999488300146304 $661 5.3512253842836977 $716 $671 forward 7 unknown #
straight-curve $-1 52.892239143040257 5.3512253842836977 76.545606402485973 0 0 1 I I #
point $-1 52.892239143040257 5.3512253842836977 10.015155585417357 #
straight-curve $-1 52.892239143040257 5.0518756864012566 4.6044786271423064 0 -1 0 I I #
coedge $-1 $665 $766 $768 $769 reversed $599 $-1 #
coedge $-1 $770 $668 $665 $723 forward $729 $-1 #
edge $-1 $670 -10.015155585417357 $771 10.015155585417357 $665 $772 forward 7 unknown #
plane-surface $-1 52.892239143040257 0 0 -1 0 0 0 0 1 forward_v I I I I #
coedge $-1 $763 $667 $712 $757 forward $510 $-1 #
coedge $-1 $773 $713 $667 $727 reversed $759 $-1 #
edge $-1 $730 -23.999488300146304 $760 35.516914166900058 $726 $774 forward 7 unknown #
coedge $-1 $668 $770 $773 $775 reversed $729 $-1 #
loop $-1 $-1 $722 $776 #
vertex $-1 $669 $777 #
straight-curve $-1 0 23.999488300146304 10.015155585417357 -1 0 0 I I #
point $-1 52.892239143040257 23.999488300146304 10.015155585417357 #
point $-1 52.892239143040257 5.3512253842836977 4.6044786271422993 #
edge $-1 $700 -52.892239143040257 $735 47.834321187212637 $678 $778 forward 7 unknown #
vertex $-1 $682 $779 #
straight-curve $-1 -47.834321187212637 -23.999488300146304 0 0 0 -1 I I #
straight-curve $-1 -47.834321187212637 -29.758201233523181 -10.015155585417357 0 -1 0 I I #
straight-curve $-1 -47.834321187212637 -29.758201233523181 10.015155585417357 0 1 0 I I #
point $-1 -47.834321187212637 -35.516914166900058 10.015155585417357 #
point $-1 -47.834321187212637 -35.516914166900058 -10.015155585417357 #
straight-curve $-1 -52.892239143040257 0 -10.015155585417357 0 1 0 I I #
point $-1 -47.834321187212637 -23.999488300146304 10.015155585417357 #
straight-curve $-1 52.892239143040257 -23.999488300146304 0 0 0 -1 I I #
point $-1 52.892239143040257 -23.999488300146304 -10.015155585417357 #
straight-curve $-1 0 23.999488300146304 -10.015155585417357 1 0 0 I I #
point $-1 -52.892239143040257 23.999488300146304 -10.015155585417357 #
face $-1 $776 $759 $19 $-1 $780 reversed single #
loop $-1 $-1 $768 $707 #
plane-surface $-1 0 0 -10.015155585417357 0 0 1 1 0 0 forward_v I I I I #
coedge $-1 $781 $764 $782 $783 forward $708 $-1 #
coedge $-1 $782 $710 $784 $785 reversed $655 $-1 #
coedge $-1 $710 $782 $763 $786 reversed $655 $-1 #
coedge $-1 $712 $711 $710 $754 reversed $588 $-1 #
edge $-1 $787 -10.015155585417357 $788 10.015155585417357 $710 $789 forward 7 unknown #
coedge $-1 $790 $784 $711 $756 forward $748 $-1 #
edge $-1 $788 -2.5289589779138097 $761 2.5289589779138097 $711 $791 forward 7 unknown #
edge $-1 $760 -2.5289589779138097 $787 2.5289589779138097 $712 $792 forward 7 unknown #
coedge $-1 $713 $773 $790 $793 reversed $759 $-1 #
loop $-1 $-1 $773 $747 #
vertex $-1 $727 $794 #
vertex $-1 $793 $795 #
straight-curve $-1 -52.892239143040257 -35.516914166900058 0 0 0 -1 I I #
coedge $-1 $715 $725 $752 $786 forward $510 $-1 #
coedge $-1 $750 $796 $715 $765 reversed $708 $-1 #
edge $-1 $797 -47.834321187212637 $767 52.892239143040257 $764 $798 forward 7 unknown #
coedge $-1 $721 $716 $796 $799 forward $599 $-1 #
vertex $-1 $717 $800 #
coedge $-1 $801 $802 $721 $769 forward $748 $-1 #
edge $-1 $771 -23.999488300146304 $803 23.999488300146304 $721 $804 forward 7 unknown #
coedge $-1 $728 $722 $802 $805 reversed $729 $-1 #
vertex $-1 $769 $806 #
straight-curve $-1 52.892239143040257 23.999488300146304 0 0 0 -1 I I #
coedge $-1 $758 $726 $728 $775 forward $759 $-1 #
straight-curve $-1 -52.892239143040257 0 10.015155585417357 0 -1 0 I I #
edge $-1 $730 -10.015155585417357 $807 10.015155585417357 $728 $808 forward 7 unknown #
face $-1 $666 $729 $19 $-1 $809 reversed single #
point $-1 -52.892239143040257 23.999488300146304 10.015155585417357 #
straight-curve $-1 0 -23.999488300146304 -10.015155585417357 -1 0 0 I I #
point $-1 -47.834321187212637 -23.999488300146304 -10.015155585417357 #
plane-surface $-1 -52.892239143040257 0 0 1 0 0 0 0 -1 forward_v I I I I #
coedge $-1 $796 $750 $801 $810 reversed $708 $-1 #
coedge $-1 $752 $751 $750 $783 reversed $655 $-1 #
edge $-1 $797 -10.015155585417357 $811 10.015155585417357 $750 $812 forward 7 unknown #
coedge $-1 $755 $801 $751 $785 forward $748 $-1 #
edge $-1 $811 -5.7587129333768772 $788 5.7587129333768772 $751 $813 forward 7 unknown #
edge $-1 $787 -5.7587129333768772 $797 5.7587129333768772 $752 $814 forward 7 unknown #
vertex $-1 $786 $815 #
vertex $-1 $754 $816 #
straight-curve $-1 -47.834321187212637 -35.516914166900058 0 0 0 -1 I I #
coedge $-1 $802 $755 $758 $793 forward $748 $-1 #
straight-curve $-1 -50.363280165126447 -35.516914166900058 -10.015155585417357 -1 0 0 I I #
straight-curve $-1 -50.363280165126447 -35.516914166900058 10.015155585417357 1 0 0 I I #
edge $-1 $761 -35.516914166900058 $807 23.999488300146304 $758 $817 forward 7 unknown #
point $-1 -52.892239143040257 -35.516914166900058 10.015155585417357 #
point $-1 -52.892239143040257 -35.516914166900058 -10.015155585417357 #
coedge $-1 $764 $781 $766 $799 reversed $708 $-1 #
vertex $-1 $765 $818 #
straight-curve $-1 0 -23.999488300146304 10.015155585417357 1 0 0 I I #
edge $-1 $767 -10.015155585417357 $803 10.015155585417357 $766 $819 forward 7 unknown #
point $-1 52.892239143040257 -23.999488300146304 10.015155585417357 #
coedge $-1 $784 $768 $781 $810 forward $748 $-1 #
coedge $-1 $768 $790 $770 $805 forward $748 $-1 #
vertex $-1 $799 $820 #
straight-curve $-1 52.892239143040257 0 -10.015155585417357 0 -1 0 I I #
edge $-1 $807 -52.892239143040257 $771 52.892239143040257 $770 $821 forward 7 unknown #
point $-1 52.892239143040257 23.999488300146304 -10.015155585417357 #
vertex $-1 $805 $822 #
straight-curve $-1 -52.892239143040257 23.999488300146304 0 0 0 -1 I I #
plane-surface $-1 0 23.999488300146304 0 0 -1 0 0 0 -1 forward_v I I I I #
edge $-1 $803 -52.892239143040257 $811 47.834321187212637 $781 $823 forward 7 unknown #
vertex $-1 $785 $824 #
straight-curve $-1 -47.834321187212637 -23.999488300146304 0 0 0 -1 I I #
straight-curve $-1 -47.834321187212637 -29.758201233523181 -10.015155585417357 0 -1 0 I I #
straight-curve $-1 -47.834321187212637 -29.758201233523181 10.015155585417357 0 1 0 I I #
point $-1 -47.834321187212637 -35.516914166900058 10.015155585417357 #
point $-1 -47.834321187212637 -35.516914166900058 -10.015155585417357 #
straight-curve $-1 -52.892239143040257 0 -10.015155585417357 0 1 0 I I #
point $-1 -47.834321187212637 -23.999488300146304 10.015155585417357 #
straight-curve $-1 52.892239143040257 -23.999488300146304 0 0 0 -1 I I #
point $-1 52.892239143040257 -23.999488300146304 -10.015155585417357 #
straight-curve $-1 0 23.999488300146304 -10.015155585417357 1 0 0 I I #
point $-1 -52.892239143040257 23.999488300146304 -10.015155585417357 #
straight-curve $-1 0 -23.999488300146304 -10.015155585417357 -1 0 0 I I #
point $-1 -47.834321187212637 -23.999488300146304 -10.015155585417357 #
End-of-ACIS-data 