600 0 2 0           
108 GICL ACIS Healer - Source: /gicl/data5/repository/Drexel/CICIRELLO-THESISDATA/Part10002.smdg.delta.sat - 6 0 18 ACIS 6.0.3 Solaris 24 Fri Apr 12 10:13:38 2002 
1 9.999999999999999547e-07 1.000000000000000036e-10 
body $-1 $2 $-1 $-1 #
body $-1 $3 $-1 $-1 #
lump $-1 $-1 $4 $0 #
lump $-1 $-1 $5 $1 #
shell $-1 $-1 $-1 $6 $-1 $2 #
shell $-1 $-1 $-1 $7 $-1 $3 #
face $-1 $8 $9 $4 $-1 $10 forward single #
face $-1 $11 $12 $5 $-1 $13 forward single #
face $-1 $14 $15 $4 $-1 $16 reversed single #
loop $-1 $-1 $17 $6 #
plane-surface $-1 62.55684072389904316 34.78684976342995583 27.19079549977013599 0 0 1 1 0 0 forward_v I I I I #
face $-1 $18 $19 $5 $-1 $20 reversed single #
loop $-1 $-1 $21 $7 #
plane-surface $-1 0 34.78684976342995583 13.595397749885068 1 0 0 0 0 -1 forward_v I I I I #
face $-1 $22 $23 $4 $-1 $24 reversed single #
loop $-1 $-1 $25 $8 #
plane-surface $-1 62.55684072389904316 34.78684976342995583 0 0 0 1 1 0 0 forward_v I I I I #
coedge $-1 $26 $27 $28 $29 forward $9 $-1 #
face $-1 $30 $31 $5 $-1 $32 forward single #
loop $-1 $-1 $33 $11 #
plane-surface $-1 62.55684072389904316 69.57369952685991166 13.595397749885068 0 -1 0 0 0 -1 forward_v I I I I #
coedge $-1 $34 $35 $36 $37 forward $12 $-1 #
face $-1 $38 $39 $4 $-1 $40 reversed single #
loop $-1 $-1 $41 $14 #
plane-surface $-1 62.55684072389904316 0 13.595397749885068 0 1 0 0 0 1 forward_v I I I I #
coedge $-1 $42 $43 $44 $45 forward $15 $-1 #
coedge $-1 $46 $17 $47 $48 forward $9 $-1 #
coedge $-1 $17 $46 $49 $50 forward $9 $-1 #
coedge $-1 $51 $52 $17 $29 reversed $53 $-1 #
edge $-1 $54 -34.78684976342995583 $55 34.78684976342995583 $28 $56 forward 7 unknown #
face $-1 $57 $58 $5 $-1 $59 reversed single #
loop $-1 $-1 $36 $18 #
plane-surface $-1 -4.62627731336797865 34.78684976342995583 8.114655075105833504 0 0 1 1 0 0 forward_v I I I I #
coedge $-1 $60 $61 $35 $62 forward $19 $-1 #
coedge $-1 $63 $21 $64 $65 reversed $12 $-1 #
coedge $-1 $21 $63 $33 $62 reversed $12 $-1 #
coedge $-1 $66 $67 $21 $37 reversed $31 $-1 #
edge $-1 $68 -34.78684976342995583 $69 34.78684976342995583 $36 $70 forward 7 unknown #
face $-1 $71 $72 $4 $-1 $73 reversed single #
loop $-1 $-1 $74 $22 #
plane-surface $-1 0 34.78684976342995583 13.595397749885068 1 0 0 0 0 -1 forward_v I I I I #
coedge $-1 $75 $49 $76 $77 forward $23 $-1 #
coedge $-1 $78 $25 $75 $79 forward $15 $-1 #
coedge $-1 $25 $78 $80 $81 forward $15 $-1 #
coedge $-1 $52 $51 $25 $45 reversed $53 $-1 #
edge $-1 $82 -34.78684976342995583 $83 34.78684976342995583 $44 $84 forward 7 unknown #
coedge $-1 $27 $26 $85 $86 forward $9 $-1 #
coedge $-1 $87 $88 $26 $48 reversed $72 $-1 #
edge $-1 $55 -62.55684072389904316 $89 62.55684072389904316 $47 $90 forward 7 unknown #
coedge $-1 $41 $91 $27 $50 reversed $23 $-1 #
edge $-1 $92 -62.55684072389904316 $54 62.55684072389904316 $49 $93 forward 7 unknown #
coedge $-1 $44 $28 $91 $94 forward $53 $-1 #
coedge $-1 $28 $44 $87 $95 reversed $53 $-1 #
loop $-1 $-1 $51 $71 #
vertex $-1 $29 $96 #
vertex $-1 $29 $97 #
straight-curve $-1 125.1136814477980863 34.78684976342995583 27.19079549977013599 0 1 0 I I #
face $-1 $98 $99 $5 $-1 $100 reversed single #
loop $-1 $-1 $101 $30 #
plane-surface $-1 -4.62627731336797865 34.78684976342995583 2.898473507308811037 0 0 1 1 0 0 forward_v I I I I #
coedge $-1 $102 $33 $103 $104 reversed $19 $-1 #
coedge $-1 $33 $102 $66 $105 reversed $19 $-1 #
edge $-1 $68 5.480742674779234491 $106 10.69692424257625696 $33 $107 forward 7 unknown #
coedge $-1 $35 $34 $101 $108 forward $12 $-1 #
coedge $-1 $109 $110 $34 $65 forward $111 $-1 #
edge $-1 $112 -10.69692424257625696 $69 -5.480742674779234491 $64 $113 forward 7 unknown #
coedge $-1 $114 $36 $61 $105 forward $31 $-1 #
coedge $-1 $36 $114 $109 $115 forward $31 $-1 #
vertex $-1 $62 $116 #
vertex $-1 $115 $117 #
straight-curve $-1 0 34.78684976342995583 8.114655075105833504 0 -1 0 I I #
face $-1 $-1 $53 $4 $-1 $118 reversed single #
loop $-1 $-1 $87 $38 #
plane-surface $-1 62.55684072389904316 69.57369952685991166 13.595397749885068 0 -1 0 0 0 -1 forward_v I I I I #
coedge $-1 $119 $85 $88 $120 forward $39 $-1 #
coedge $-1 $91 $41 $42 $79 reversed $23 $-1 #
coedge $-1 $85 $119 $41 $77 reversed $39 $-1 #
edge $-1 $92 -13.595397749885068 $121 13.595397749885068 $76 $122 forward 7 unknown #
coedge $-1 $43 $42 $119 $123 forward $15 $-1 #
edge $-1 $83 -62.55684072389904316 $121 62.55684072389904316 $75 $124 forward 7 unknown #
coedge $-1 $88 $87 $43 $81 reversed $72 $-1 #
edge $-1 $125 -62.55684072389904316 $82 62.55684072389904316 $80 $126 forward 7 unknown #
vertex $-1 $45 $127 #
vertex $-1 $94 $128 #
straight-curve $-1 125.1136814477980863 34.78684976342995583 0 0 -1 0 I I #
coedge $-1 $74 $76 $46 $86 reversed $39 $-1 #
edge $-1 $89 -34.78684976342995583 $92 34.78684976342995583 $85 $129 forward 7 unknown #
coedge $-1 $80 $47 $52 $95 forward $72 $-1 #
coedge $-1 $47 $80 $74 $120 reversed $72 $-1 #
vertex $-1 $48 $130 #
straight-curve $-1 62.55684072389904316 69.57369952685991166 27.19079549977013599 -1 0 0 I I #
coedge $-1 $49 $75 $51 $94 reversed $23 $-1 #
vertex $-1 $86 $131 #
straight-curve $-1 62.55684072389904316 0 27.19079549977013599 1 0 0 I I #
edge $-1 $54 -13.595397749885068 $83 13.595397749885068 $51 $132 forward 7 unknown #
edge $-1 $55 -13.595397749885068 $82 13.595397749885068 $52 $133 forward 7 unknown #
point $-1 125.1136814477980863 0 27.19079549977013599 #
point $-1 125.1136814477980863 69.57369952685991166 27.19079549977013599 #
face $-1 $-1 $111 $5 $-1 $134 reversed single #
loop $-1 $-1 $135 $57 #
plane-surface $-1 -9.252554626735957299 34.78684976342995583 5.50656429120732227 1 0 0 0 0 -1 forward_v I I I I #
coedge $-1 $136 $103 $63 $108 reversed $58 $-1 #
coedge $-1 $61 $60 $135 $137 reversed $19 $-1 #
coedge $-1 $101 $138 $60 $104 forward $58 $-1 #
edge $-1 $139 -4.62627731336797865 $106 4.62627731336797865 $60 $140 forward 7 unknown #
edge $-1 $68 -4.62627731336797865 $141 4.62627731336797865 $61 $142 forward 7 unknown #
vertex $-1 $62 $143 #
straight-curve $-1 0 69.57369952685991166 13.595397749885068 0 0 -1 I I #
edge $-1 $112 -34.78684976342995583 $106 34.78684976342995583 $101 $144 forward 7 unknown #
coedge $-1 $145 $64 $67 $115 reversed $111 $-1 #
coedge $-1 $64 $145 $136 $146 reversed $111 $-1 #
loop $-1 $-1 $64 $98 #
vertex $-1 $65 $147 #
straight-curve $-1 0 0 13.595397749885068 0 0 1 I I #
coedge $-1 $67 $66 $148 $149 forward $31 $-1 #
edge $-1 $150 -4.62627731336797865 $69 4.62627731336797865 $109 $151 forward 7 unknown #
point $-1 0 69.57369952685991166 8.114655075105833504 #
point $-1 0 0 8.114655075105833504 #
plane-surface $-1 125.1136814477980863 34.78684976342995583 13.595397749885068 -1 0 0 0 0 1 forward_v I I I I #
coedge $-1 $76 $74 $78 $123 reversed $39 $-1 #
edge $-1 $89 -13.595397749885068 $125 13.595397749885068 $88 $152 forward 7 unknown #
vertex $-1 $123 $153 #
straight-curve $-1 0 0 13.595397749885068 0 0 -1 I I #
edge $-1 $121 -34.78684976342995583 $125 34.78684976342995583 $119 $154 forward 7 unknown #
straight-curve $-1 62.55684072389904316 0 0 -1 0 0 I I #
vertex $-1 $81 $155 #
straight-curve $-1 62.55684072389904316 69.57369952685991166 0 1 0 0 I I #
point $-1 125.1136814477980863 69.57369952685991166 0 #
point $-1 125.1136814477980863 0 0 #
straight-curve $-1 0 34.78684976342995583 27.19079549977013599 0 -1 0 I I #
point $-1 0 69.57369952685991166 27.19079549977013599 #
point $-1 0 0 27.19079549977013599 #
straight-curve $-1 125.1136814477980863 0 13.595397749885068 0 0 -1 I I #
straight-curve $-1 125.1136814477980863 69.57369952685991166 13.595397749885068 0 0 -1 I I #
plane-surface $-1 62.55684072389904316 0 13.595397749885068 0 1 0 0 0 1 forward_v I I I I #
coedge $-1 $156 $148 $102 $137 forward $99 $-1 #
coedge $-1 $138 $101 $110 $146 forward $58 $-1 #
edge $-1 $141 -2.608090783898511233 $139 2.608090783898511233 $102 $157 forward 7 unknown #
coedge $-1 $103 $136 $156 $158 forward $58 $-1 #
vertex $-1 $104 $159 #
straight-curve $-1 -4.62627731336797865 69.57369952685991166 2.898473507308811037 1 0 0 I I #
vertex $-1 $105 $160 #
straight-curve $-1 -4.62627731336797865 69.57369952685991166 8.114655075105833504 -1 0 0 I I #
point $-1 0 69.57369952685991166 2.898473507308811037 #
straight-curve $-1 0 34.78684976342995583 2.898473507308811037 0 1 0 I I #
coedge $-1 $110 $109 $161 $162 forward $111 $-1 #
edge $-1 $112 -4.62627731336797865 $163 4.62627731336797865 $110 $164 forward 7 unknown #
point $-1 0 0 2.898473507308811037 #
coedge $-1 $135 $161 $114 $149 reversed $99 $-1 #
edge $-1 $141 -34.78684976342995583 $150 34.78684976342995583 $148 $165 forward 7 unknown #
vertex $-1 $149 $166 #
straight-curve $-1 -4.62627731336797865 0 8.114655075105833504 1 0 0 I I #
straight-curve $-1 0 69.57369952685991166 13.595397749885068 0 0 -1 I I #
point $-1 0 0 0 #
straight-curve $-1 0 34.78684976342995583 0 0 1 0 I I #
point $-1 0 69.57369952685991166 0 #
coedge $-1 $161 $135 $138 $158 reversed $99 $-1 #
straight-curve $-1 -9.252554626735957299 69.57369952685991166 5.50656429120732227 0 0 -1 I I #
edge $-1 $163 -34.78684976342995583 $139 34.78684976342995583 $156 $167 forward 7 unknown #
point $-1 -9.252554626735957299 69.57369952685991166 2.898473507308811037 #
point $-1 -9.252554626735957299 69.57369952685991166 8.114655075105833504 #
coedge $-1 $148 $156 $145 $162 reversed $99 $-1 #
edge $-1 $150 -2.608090783898511233 $163 2.608090783898511233 $161 $168 forward 7 unknown #
vertex $-1 $158 $169 #
straight-curve $-1 -4.62627731336797865 0 2.898473507308811037 -1 0 0 I I #
straight-curve $-1 -9.252554626735957299 34.78684976342995583 8.114655075105833504 0 -1 0 I I #
point $-1 -9.252554626735957299 0 8.114655075105833504 #
straight-curve $-1 -9.252554626735957299 34.78684976342995583 2.898473507308811037 0 1 0 I I #
straight-curve $-1 -9.252554626735957299 0 5.50656429120732227 0 0 -1 I I #
point $-1 -9.252554626735957299 0 2.898473507308811037 #
End-of-ACIS-data 