500 0 8 0           
7 Unknown 11 ACIS 5.0 NT 24 Fri Mar 26 01:55:35 1999 
-1 9.9999999999999995e-007 1e-010 
body $-1 $8 $-1 $9 #
body $-1 $10 $-1 $11 #
body $-1 $12 $-1 $13 #
body $-1 $14 $-1 $15 #
body $-1 $16 $-1 $17 #
body $-1 $18 $-1 $19 #
body $-1 $20 $-1 $21 #
body $-1 $22 $-1 $23 #
lump $-1 $-1 $24 $0 #
transform $-1 1 0 0 0 1 0 0 0 1 67.907345805230875 33.806737546385364 7.2423406134405566 1 rotate no_reflect no_shear #
lump $-1 $-1 $25 $1 #
transform $-1 1 0 0 0 1 0 0 0 1 67.907345805230875 33.806737546385364 7.2423406134405566 1 rotate no_reflect no_shear #
lump $-1 $-1 $26 $2 #
transform $-1 1 0 0 0 1 0 0 0 1 67.907345805230875 33.806737546385364 7.2423406134405566 1 rotate no_reflect no_shear #
lump $-1 $-1 $27 $3 #
transform $-1 1 0 0 0 1 0 0 0 1 67.907345805230875 33.806737546385364 7.2423406134405566 1 rotate no_reflect no_shear #
lump $-1 $-1 $28 $4 #
transform $-1 1 0 0 0 1 0 0 0 1 67.907345805230875 33.806737546385364 7.2423406134405566 1 rotate no_reflect no_shear #
lump $-1 $-1 $29 $5 #
transform $-1 1 0 0 0 1 0 0 0 1 67.907345805230875 33.806737546385364 7.2423406134405566 1 rotate no_reflect no_shear #
lump $-1 $-1 $30 $6 #
transform $-1 1 0 0 0 1 0 0 0 1 67.907345805230875 33.806737546385364 7.2423406134405566 1 rotate no_reflect no_shear #
lump $-1 $-1 $31 $7 #
transform $-1 1 0 0 0 1 0 0 0 1 67.907345805230875 33.806737546385364 7.2423406134405566 1 rotate no_reflect no_shear #
shell $-1 $-1 $-1 $32 $-1 $8 #
shell $-1 $-1 $-1 $33 $-1 $10 #
shell $-1 $-1 $-1 $34 $-1 $12 #
shell $-1 $-1 $-1 $35 $-1 $14 #
shell $-1 $-1 $-1 $36 $-1 $16 #
shell $-1 $-1 $-1 $37 $-1 $18 #
shell $-1 $-1 $-1 $38 $-1 $20 #
shell $-1 $-1 $-1 $39 $-1 $22 #
face $-1 $40 $41 $24 $-1 $42 forward single #
face $-1 $43 $44 $25 $-1 $45 forward single #
face $-1 $46 $47 $26 $-1 $48 reversed single #
face $-1 $49 $50 $27 $-1 $51 forward single #
face $-1 $52 $53 $28 $-1 $54 forward single #
face $-1 $55 $56 $29 $-1 $57 reversed single #
face $-1 $58 $59 $30 $-1 $60 forward single #
face $-1 $61 $62 $31 $-1 $63 forward single #
face $-1 $64 $65 $24 $-1 $66 reversed single #
loop $-1 $-1 $67 $32 #
plane-surface $-1 0 0 7.2423406134405566 0 0 1 1 0 0 forward_v I I I I #
face $-1 $68 $69 $25 $-1 $70 forward single #
loop $-1 $-1 $71 $33 #
plane-surface $-1 -67.907345805230875 0 0 1 0 0 0 0 -1 forward_v I I I I #
face $-1 $72 $73 $26 $-1 $74 reversed single #
loop $-1 $-1 $75 $34 #
plane-surface $-1 30.116153704835767 117.61897509819013 127.7095152414709 1 0 0 0 -0.86602541151947299 -0.49999998660252726 forward_v I I I I #
face $-1 $76 $77 $27 $-1 $78 forward single #
loop $-1 $79 $80 $35 #
cone-surface $-1 40.913637162091518 30.783257755847536 3.4983480837514591 0 -0.86602541151947299 -0.49999998660252726 1 0 0 1 I I 0 1 1 forward I I I I #
face $-1 $81 $82 $28 $-1 $83 forward single #
loop $-1 $84 $85 $36 #
cone-surface $-1 57.109862347975138 30.783257755847536 3.4983480837514591 0 -0.86602541151947299 -0.49999998660252726 1 0 0 1 I I 0 1 1 forward I I I I #
face $-1 $86 $87 $29 $-1 $88 reversed single #
loop $-1 $-1 $89 $37 #
plane-surface $-1 20.283380300496816 -124.68450558911063 101.41174185334269 -1 0 0 0 -0.66913061440640931 0.74314481823134659 forward_v I I I I #
face $-1 $90 $91 $30 $-1 $92 forward single #
loop $-1 $93 $94 $38 #
cone-surface $-1 4.4088310845540093 -27.810740547114367 1.3722746667736527 0 0.66913061440640931 -0.74314481823134659 2 0 0 1 I I 0 1 2 forward I I I I #
face $-1 $95 $96 $31 $-1 $97 forward single #
loop $-1 $98 $99 $39 #
cone-surface $-1 13.933560614119685 -27.810740547114367 1.3722746667736527 0 0.66913061440640931 -0.74314481823134659 2 0 0 1 I I 0 1 2 forward I I I I #
face $-1 $100 $101 $24 $-1 $102 reversed single #
loop $-1 $-1 $103 $40 #
plane-surface $-1 0 0 -7.2423406134405566 0 0 1 1 0 0 forward_v I I I I #
coedge $-1 $104 $105 $106 $107 forward $41 $-1 #
face $-1 $108 $109 $25 $-1 $110 reversed single #
loop $-1 $-1 $111 $43 #
plane-surface $-1 0 0 7.2423406134405566 0 0 1 1 0 0 forward_v I I I I #
coedge $-1 $112 $113 $114 $115 forward $44 $-1 #
face $-1 $116 $117 $26 $-1 $118 forward single #
loop $-1 $-1 $119 $46 #
plane-surface $-1 49.011749755033321 9.0584967438189778e-007 59.802171255813647 0 0.86602541151947299 0.49999998660252726 1 0 0 forward_v I I I I #
coedge $-1 $120 $121 $122 $123 reversed $47 $-1 #
face $-1 $-1 $124 $27 $-1 $125 forward single #
loop $-1 $126 $127 $49 #
cone-surface $-1 40.913637162091518 29.057417936919649 2.5019340353137496 0 -0.86602541151947299 -0.49999998660252726 0.5 0 0 1 I I -0.70710678118654746 0.70710678118654746 0.5 forward I I I I #
loop $-1 $-1 $128 $35 #
coedge $-1 $80 $80 $129 $130 reversed $50 $-1 #
face $-1 $-1 $131 $28 $-1 $132 forward single #
loop $-1 $133 $134 $52 #
cone-surface $-1 57.109862347975138 29.057417936919649 2.5019340353137496 0 -0.86602541151947299 -0.49999998660252726 0.5 0 0 1 I I -0.70710678118654746 0.70710678118654746 0.5 forward I I I I #
loop $-1 $-1 $135 $36 #
coedge $-1 $85 $85 $136 $137 reversed $53 $-1 #
face $-1 $138 $139 $29 $-1 $140 reversed single #
loop $-1 $-1 $141 $55 #
plane-surface $-1 9.1711958493368542 -33.806737546385349 0.48175754333969678 0 -0.66913061440640931 0.74314481823134659 1 0 0 forward_v I I I I #
coedge $-1 $142 $143 $144 $145 reversed $56 $-1 #
face $-1 $-1 $146 $30 $-1 $147 forward single #
loop $-1 $148 $149 $58 #
cone-surface $-1 4.4088310845540093 -24.899806934278573 -1.8606445630741755 0 0.66913061440640931 -0.74314481823134659 1 0 0 1 I I -0.70710678118654735 0.70710678118654768 1 forward I I I I #
loop $-1 $-1 $150 $38 #
coedge $-1 $94 $94 $151 $152 reversed $59 $-1 #
face $-1 $-1 $153 $31 $-1 $154 forward single #
loop $-1 $155 $156 $61 #
cone-surface $-1 13.933560614119685 -24.899806934278573 -1.8606445630741755 0 0.66913061440640931 -0.74314481823134659 1 0 0 1 I I -0.70710678118654735 0.70710678118654768 1 forward I I I I #
loop $-1 $-1 $157 $39 #
coedge $-1 $99 $99 $158 $159 reversed $62 $-1 #
face $-1 $160 $161 $24 $-1 $162 reversed single #
loop $-1 $-1 $163 $64 #
plane-surface $-1 0 -33.806737546385364 0 0 1 0 0 0 1 forward_v I I I I #
coedge $-1 $164 $165 $166 $167 forward $65 $-1 #
coedge $-1 $168 $67 $169 $170 forward $41 $-1 #
coedge $-1 $67 $168 $171 $172 forward $41 $-1 #
coedge $-1 $173 $174 $67 $107 reversed $175 $-1 #
edge $-1 $176 -33.806737546385364 $177 33.806737546385364 $106 $178 forward 7 unknown #
face $-1 $179 $180 $25 $-1 $181 reversed single #
loop $-1 $-1 $182 $68 #
plane-surface $-1 -77.252213025300506 -32.306737546385364 0 1 0 0 0 0 -1 forward_v I I I I #
coedge $-1 $183 $184 $112 $185 forward $69 $-1 #
coedge $-1 $186 $71 $111 $185 reversed $44 $-1 #
coedge $-1 $71 $186 $187 $188 reversed $44 $-1 #
coedge $-1 $189 $190 $71 $115 reversed $180 $-1 #
edge $-1 $191 -7.2423406134405566 $192 7.2423406134405566 $114 $193 forward 7 unknown #
face $-1 $194 $195 $26 $-1 $196 reversed single #
loop $-1 $-1 $122 $72 #
plane-surface $-1 0 0 7.2423406134405566 0 0 1 1 0 0 forward_v I I I I #
coedge $-1 $197 $198 $199 $200 reversed $73 $-1 #
coedge $-1 $121 $75 $201 $202 reversed $47 $-1 #
coedge $-1 $75 $120 $197 $203 reversed $47 $-1 #
coedge $-1 $199 $204 $75 $123 forward $117 $-1 #
edge $-1 $205 25.002750002709703 $206 28.46405535744907 $122 $207 forward 7 unknown #
loop $-1 $-1 $129 $76 #
plane-surface $-1 49.011749755033321 9.0584967438189778e-007 59.802171255813647 0 0.86602541151947299 0.49999998660252726 1 0 0 forward_v I I I I #
loop $-1 $-1 $208 $49 #
coedge $-1 $127 $127 $128 $209 reversed $77 $-1 #
coedge $-1 $128 $128 $127 $209 forward $79 $-1 #
coedge $-1 $129 $129 $80 $130 forward $124 $-1 #
edge $-1 $210 -5.8642364702369861e-016 $210 6.2831853071795996 $129 $211 forward 7 unknown #
loop $-1 $-1 $136 $81 #
plane-surface $-1 49.011749755033321 9.0584967438189778e-007 59.802171255813647 0 0.86602541151947299 0.49999998660252726 1 0 0 forward_v I I I I #
loop $-1 $-1 $212 $52 #
coedge $-1 $134 $134 $135 $213 reversed $82 $-1 #
coedge $-1 $135 $135 $134 $213 forward $84 $-1 #
coedge $-1 $136 $136 $85 $137 forward $131 $-1 #
edge $-1 $214 -5.8642364702369861e-016 $214 6.2831853071795996 $136 $215 forward 7 unknown #
face $-1 $216 $217 $29 $-1 $218 reversed single #
loop $-1 $-1 $219 $86 #
plane-surface $-1 -1.9409886018231077 -124.68450558911063 101.41174185334269 1 0 0 0 0.66913061440640931 -0.74314481823134659 forward_v I I I I #
coedge $-1 $220 $221 $222 $223 reversed $87 $-1 #
coedge $-1 $143 $89 $224 $225 reversed $56 $-1 #
coedge $-1 $89 $142 $220 $226 reversed $56 $-1 #
coedge $-1 $222 $227 $89 $145 forward $228 $-1 #
edge $-1 $229 28.535515248169951 $230 36.043903249853216 $144 $231 forward 7 unknown #
loop $-1 $-1 $151 $90 #
plane-surface $-1 9.1711958493368542 -33.806737546385349 0.48175754333969678 0 -0.66913061440640931 0.74314481823134659 1 0 0 forward_v I I I I #
loop $-1 $-1 $232 $58 #
coedge $-1 $149 $149 $150 $233 reversed $91 $-1 #
coedge $-1 $150 $150 $149 $233 forward $93 $-1 #
coedge $-1 $151 $151 $94 $152 forward $146 $-1 #
edge $-1 $234 2.1698166588680713e-016 $234 6.2831853071796004 $151 $235 forward 7 unknown #
loop $-1 $-1 $158 $95 #
plane-surface $-1 9.1711958493368542 -33.806737546385349 0.48175754333969678 0 -0.66913061440640931 0.74314481823134659 1 0 0 forward_v I I I I #
loop $-1 $-1 $236 $61 #
coedge $-1 $156 $156 $157 $237 reversed $96 $-1 #
coedge $-1 $157 $157 $156 $237 forward $98 $-1 #
coedge $-1 $158 $158 $99 $159 forward $153 $-1 #
edge $-1 $238 2.1698166588680713e-016 $238 6.2831853071796004 $158 $239 forward 7 unknown #
face $-1 $240 $241 $24 $-1 $242 reversed single #
loop $-1 $-1 $243 $100 #
plane-surface $-1 -67.907345805230875 0 0 1 0 0 0 0 -1 forward_v I I I I #
coedge $-1 $244 $171 $245 $246 forward $101 $-1 #
coedge $-1 $247 $103 $244 $248 forward $65 $-1 #
coedge $-1 $103 $247 $249 $250 forward $65 $-1 #
coedge $-1 $174 $173 $103 $167 reversed $175 $-1 #
edge $-1 $251 -33.806737546385364 $252 33.806737546385364 $166 $253 forward 7 unknown #
coedge $-1 $105 $104 $243 $254 forward $41 $-1 #
coedge $-1 $255 $256 $104 $170 reversed $241 $-1 #
edge $-1 $177 -67.907345805230875 $257 67.907345805230875 $169 $258 forward 7 unknown #
coedge $-1 $163 $259 $105 $172 reversed $101 $-1 #
edge $-1 $260 -67.907345805230875 $176 67.907345805230875 $171 $261 forward 7 unknown #
coedge $-1 $166 $106 $259 $262 forward $175 $-1 #
coedge $-1 $106 $166 $255 $263 reversed $175 $-1 #
loop $-1 $-1 $173 $240 #
vertex $-1 $107 $264 #
vertex $-1 $107 $265 #
straight-curve $-1 67.907345805230875 0 7.2423406134405566 0 1 0 I I #
face $-1 $266 $267 $25 $-1 $268 reversed single #
loop $-1 $-1 $114 $108 #
plane-surface $-1 -72.579779415265691 -30.806737546385364 0 0 -1 0 0 0 -1 forward_v I I I I #
coedge $-1 $269 $270 $271 $272 forward $109 $-1 #
coedge $-1 $273 $111 $190 $274 forward $69 $-1 #
coedge $-1 $111 $273 $275 $276 forward $69 $-1 #
edge $-1 $277 -33.806737546385364 $192 -30.806737546385364 $111 $278 forward 7 unknown #
coedge $-1 $113 $112 $279 $280 reversed $44 $-1 #
coedge $-1 $281 $282 $113 $188 forward $267 $-1 #
edge $-1 $191 30.806737546385364 $283 33.806737546385364 $187 $284 forward 7 unknown #
coedge $-1 $271 $114 $282 $285 reversed $180 $-1 #
coedge $-1 $114 $271 $183 $274 reversed $180 $-1 #
vertex $-1 $188 $286 #
vertex $-1 $274 $287 #
straight-curve $-1 -67.907345805230875 -30.806737546385364 0 0 0 1 I I #
face $-1 $-1 $288 $26 $-1 $289 reversed single #
loop $-1 $-1 $290 $116 #
plane-surface $-1 67.907345805230875 0 0 -1 0 0 0 0 1 forward_v I I I I #
coedge $-1 $291 $119 $121 $203 forward $73 $-1 #
coedge $-1 $119 $291 $290 $292 reversed $73 $-1 #
coedge $-1 $293 $122 $119 $200 forward $117 $-1 #
edge $-1 $206 5.6102788273191067 $294 43.401470927714215 $199 $295 forward 7 unknown #
coedge $-1 $296 $297 $120 $202 forward $288 $-1 #
edge $-1 $298 -62.60757395640023 $205 -56.612417007294894 $201 $299 forward 7 unknown #
edge $-1 $206 60.690864197801034 $298 67.613475092770756 $121 $300 forward 7 unknown #
coedge $-1 $122 $293 $296 $301 forward $117 $-1 #
vertex $-1 $202 $302 #
vertex $-1 $123 $303 #
straight-curve $-1 30.116153704835767 58.809487549095067 7.2423406134405539 0 -1 0 I I #
coedge $-1 $208 $208 $-1 $304 reversed $126 $-1 #
edge $-1 $305 0 $305 6.2831853071796004 $127 $306 forward 7 unknown #
vertex $-1 $130 $307 #
ellipse-curve $-1 40.913637162091518 32.076084869015673 4.2447621388878964 0 0.86602541151947299 0.49999998660252726 1 0 0 1 I I #
coedge $-1 $212 $212 $-1 $308 reversed $133 $-1 #
edge $-1 $309 0 $309 6.2831853071796004 $134 $310 forward 7 unknown #
vertex $-1 $137 $311 #
ellipse-curve $-1 57.109862347975138 32.076084869015673 4.2447621388878964 0 0.86602541151947299 0.49999998660252726 1 0 0 1 I I #
face $-1 $-1 $228 $29 $-1 $312 forward single #
loop $-1 $-1 $313 $138 #
plane-surface $-1 0 -33.806737546385364 0 0 1 0 0 0 1 forward_v I I I I #
coedge $-1 $314 $315 $316 $317 reversed $139 $-1 #
coedge $-1 $318 $141 $143 $226 forward $87 $-1 #
coedge $-1 $141 $318 $314 $319 forward $87 $-1 #
coedge $-1 $316 $144 $141 $223 forward $228 $-1 #
edge $-1 $230 -15.697782375828389 $320 6.5265865264915348 $222 $321 forward 7 unknown #
coedge $-1 $322 $323 $142 $225 forward $217 $-1 #
edge $-1 $324 -50.224113383331662 $229 -43.463530313230791 $224 $325 forward 7 unknown #
edge $-1 $230 -10.103532740163477 $324 1.9141035722819737e-014 $143 $326 forward 7 unknown #
coedge $-1 $144 $316 $322 $327 forward $228 $-1 #
loop $-1 $-1 $316 $216 #
vertex $-1 $225 $328 #
vertex $-1 $145 $329 #
straight-curve $-1 20.283380300496816 -62.342252794555314 7.2423406134405539 0 1 0 I I #
coedge $-1 $232 $232 $-1 $330 reversed $148 $-1 #
edge $-1 $331 0 $331 6.2831853071796004 $149 $332 forward 7 unknown #
vertex $-1 $152 $333 #
ellipse-curve $-1 4.4088310845540093 -30.052543545543735 3.8620490783901178 0 -0.66913061440640931 0.74314481823134659 2 0 0 1 I I #
coedge $-1 $236 $236 $-1 $334 reversed $155 $-1 #
edge $-1 $335 0 $335 6.2831853071796004 $156 $336 forward 7 unknown #
vertex $-1 $159 $337 #
ellipse-curve $-1 13.933560614119685 -30.052543545543735 3.8620490783901178 0 -0.66913061440640931 0.74314481823134659 2 0 0 1 I I #
face $-1 $-1 $175 $24 $-1 $338 reversed single #
loop $-1 $-1 $255 $160 #
plane-surface $-1 0 33.806737546385364 0 0 -1 0 0 0 -1 forward_v I I I I #
coedge $-1 $339 $245 $168 $254 reversed $161 $-1 #
coedge $-1 $259 $163 $164 $248 reversed $101 $-1 #
coedge $-1 $243 $340 $163 $246 reversed $161 $-1 #
edge $-1 $260 -7.2423406134405566 $341 7.2423406134405566 $245 $342 forward 7 unknown #
coedge $-1 $165 $164 $340 $343 forward $65 $-1 #
edge $-1 $252 -67.907345805230875 $341 67.907345805230875 $244 $344 forward 7 unknown #
coedge $-1 $256 $255 $165 $250 reversed $241 $-1 #
edge $-1 $345 -67.907345805230875 $251 67.907345805230875 $249 $346 forward 7 unknown #
vertex $-1 $167 $347 #
vertex $-1 $262 $348 #
straight-curve $-1 67.907345805230875 0 -7.2423406134405566 0 -1 0 I I #
edge $-1 $257 -33.806737546385364 $260 33.806737546385364 $243 $349 forward 7 unknown #
coedge $-1 $249 $169 $174 $263 forward $241 $-1 #
coedge $-1 $169 $249 $339 $350 reversed $241 $-1 #
vertex $-1 $170 $351 #
straight-curve $-1 0 33.806737546385364 7.2423406134405566 -1 0 0 I I #
coedge $-1 $171 $244 $173 $262 reversed $101 $-1 #
vertex $-1 $254 $352 #
straight-curve $-1 0 -33.806737546385364 7.2423406134405566 1 0 0 I I #
edge $-1 $176 -7.2423406134405566 $252 7.2423406134405566 $173 $353 forward 7 unknown #
edge $-1 $177 -7.2423406134405566 $251 7.2423406134405566 $174 $354 forward 7 unknown #
point $-1 67.907345805230875 -33.806737546385364 7.2423406134405566 #
point $-1 67.907345805230875 33.806737546385364 7.2423406134405566 #
face $-1 $-1 $355 $25 $-1 $356 reversed single #
loop $-1 $-1 $187 $179 #
plane-surface $-1 0 0 -7.2423406134405566 0 0 1 1 0 0 forward_v I I I I #
coedge $-1 $357 $182 $358 $359 reversed $109 $-1 #
coedge $-1 $182 $357 $273 $360 reversed $109 $-1 #
coedge $-1 $190 $189 $182 $272 reversed $180 $-1 #
edge $-1 $361 -7.2423406134405566 $362 7.2423406134405566 $271 $363 forward 7 unknown #
coedge $-1 $184 $183 $270 $360 forward $69 $-1 #
edge $-1 $192 -4.6724336100348154 $361 4.6724336100348154 $190 $364 forward 7 unknown #
coedge $-1 $365 $279 $184 $276 reversed $355 $-1 #
edge $-1 $366 -77.252213025300506 $277 -67.907345805230875 $275 $367 forward 7 unknown #
vertex $-1 $280 $368 #
straight-curve $-1 -67.907345805230875 0 7.2423406134405566 0 1 0 I I #
coedge $-1 $275 $369 $186 $280 forward $355 $-1 #
edge $-1 $283 -7.2423406134405566 $277 7.2423406134405566 $279 $370 forward 7 unknown #
coedge $-1 $358 $187 $369 $371 forward $267 $-1 #
coedge $-1 $187 $358 $189 $285 forward $267 $-1 #
vertex $-1 $371 $372 #
straight-curve $-1 -67.907345805230875 0 -7.2423406134405566 0 -1 0 I I #
edge $-1 $362 -4.6724336100348154 $191 4.6724336100348154 $189 $373 forward 7 unknown #
point $-1 -67.907345805230875 -30.806737546385364 -7.2423406134405566 #
point $-1 -67.907345805230875 -30.806737546385364 7.2423406134405566 #
loop $-1 $-1 $201 $194 #
plane-surface $-1 0 33.806737546385364 0 0 -1 0 0 0 -1 forward_v I I I I #
coedge $-1 $374 $375 $198 $292 forward $195 $-1 #
coedge $-1 $198 $197 $297 $376 reversed $73 $-1 #
edge $-1 $294 34.795764438476439 $377 41.718375333446161 $290 $378 forward 7 unknown #
coedge $-1 $204 $199 $375 $379 forward $117 $-1 #
vertex $-1 $379 $380 #
straight-curve $-1 24.505874877516661 30.345432191645994 7.2423406134405539 1 0 0 I I #
coedge $-1 $381 $201 $204 $301 reversed $288 $-1 #
coedge $-1 $201 $381 $291 $376 forward $288 $-1 #
vertex $-1 $202 $382 #
straight-curve $-1 30.116153704835767 33.806737546385364 63.854757620735448 0 0 1 I I #
straight-curve $-1 30.116153704835767 9.0584967438189778e-007 59.802171255813647 0 0.49999998660252726 -0.86602541151947299 I I #
edge $-1 $383 -67.907345805230875 $205 -30.116153704835767 $296 $384 forward 7 unknown #
point $-1 30.116153704835767 33.806737546385364 7.2423406134405566 #
point $-1 30.116153704835767 30.345432191645997 7.2423406134405539 #
edge $-1 $385 1 $385 0 $208 $-1 forward 7 unknown #
vertex $-1 $209 $386 #
ellipse-curve $-1 40.913637162091518 29.490430642679385 2.7519340286150134 0 0.86602541151947299 0.49999998660252726 1 0 0 1 I I #
point $-1 41.913637162091518 32.076084869015688 4.2447621388879053 #
edge $-1 $387 1 $387 0 $212 $-1 forward 7 unknown #
vertex $-1 $213 $388 #
ellipse-curve $-1 57.109862347975138 29.490430642679385 2.7519340286150134 0 0.86602541151947299 0.49999998660252726 1 0 0 1 I I #
point $-1 58.109862347975138 32.076084869015688 4.2447621388879053 #
plane-surface $-1 0 0 7.2423406134405566 0 0 1 1 0 0 forward_v I I I I #
coedge $-1 $323 $322 $315 $389 forward $217 $-1 #
coedge $-1 $315 $219 $221 $319 reversed $139 $-1 #
coedge $-1 $219 $314 $313 $389 reversed $139 $-1 #
coedge $-1 $227 $222 $219 $317 forward $228 $-1 #
edge $-1 $320 -36.043903249853216 $390 -28.535515248169951 $316 $391 forward 7 unknown #
coedge $-1 $221 $220 $323 $392 reversed $87 $-1 #
edge $-1 $393 -1.9141035722819737e-014 $320 10.103532740163477 $314 $394 forward 7 unknown #
vertex $-1 $223 $395 #
straight-curve $-1 4.5855979246684271 -26.298349544702102 7.2423406134405557 -1 0 0 I I #
coedge $-1 $313 $224 $227 $327 reversed $217 $-1 #
coedge $-1 $224 $313 $318 $392 forward $217 $-1 #
vertex $-1 $225 $396 #
straight-curve $-1 20.283380300496816 -33.806737546385364 50.705870926671345 0 0 1 I I #
straight-curve $-1 20.283380300496816 -33.806737546385349 0.48175754333969678 0 -0.74314481823134659 -0.66913061440640931 I I #
edge $-1 $390 -1.9409886018231077 $229 20.283380300496816 $322 $397 forward 7 unknown #
point $-1 20.283380300496816 -33.806737546385364 7.2423406134405566 #
point $-1 20.283380300496816 -26.298349544702102 7.2423406134405566 #
edge $-1 $398 1 $398 0 $232 $-1 forward 7 unknown #
vertex $-1 $233 $399 #
ellipse-curve $-1 4.4088310845540093 -25.568937548684982 -1.1174997448428285 0 -0.66913061440640931 0.74314481823134659 2 0 0 1 I I #
point $-1 6.4088310845540093 -30.052543545543749 3.8620490783901342 #
edge $-1 $400 1 $400 0 $236 $-1 forward 7 unknown #
vertex $-1 $237 $401 #
ellipse-curve $-1 13.933560614119685 -25.568937548684982 -1.1174997448428285 0 -0.66913061440640931 0.74314481823134659 2 0 0 1 I I #
point $-1 15.933560614119685 -30.052543545543749 3.8620490783901342 #
plane-surface $-1 67.907345805230875 0 0 -1 0 0 0 0 1 forward_v I I I I #
coedge $-1 $340 $243 $256 $350 forward $161 $-1 #
coedge $-1 $245 $339 $247 $343 reversed $161 $-1 #
vertex $-1 $343 $402 #
straight-curve $-1 -67.907345805230875 -33.806737546385364 0 0 0 -1 I I #
edge $-1 $341 -33.806737546385364 $345 33.806737546385364 $340 $403 forward 7 unknown #
straight-curve $-1 0 -33.806737546385364 -7.2423406134405566 -1 0 0 I I #
vertex $-1 $250 $404 #
straight-curve $-1 0 33.806737546385364 -7.2423406134405566 1 0 0 I I #
point $-1 67.907345805230875 33.806737546385364 -7.2423406134405566 #
point $-1 67.907345805230875 -33.806737546385364 -7.2423406134405566 #
straight-curve $-1 -67.907345805230875 0 7.2423406134405566 0 -1 0 I I #
edge $-1 $257 -7.2423406134405566 $345 7.2423406134405566 $256 $405 forward 7 unknown #
point $-1 -67.907345805230875 33.806737546385364 7.2423406134405566 #
point $-1 -67.907345805230875 -33.806737546385364 7.2423406134405566 #
straight-curve $-1 67.907345805230875 -33.806737546385364 0 0 0 -1 I I #
straight-curve $-1 67.907345805230875 33.806737546385364 0 0 0 -1 I I #
loop $-1 $-1 $279 $266 #
plane-surface $-1 0 -33.806737546385364 0 0 1 0 0 0 1 forward_v I I I I #
coedge $-1 $270 $269 $365 $406 reversed $109 $-1 #
coedge $-1 $282 $281 $269 $359 forward $267 $-1 #
edge $-1 $407 -1.5 $362 1.5 $269 $408 forward 7 unknown #
edge $-1 $361 -1.5 $366 1.5 $270 $409 forward 7 unknown #
vertex $-1 $274 $410 #
vertex $-1 $285 $411 #
straight-curve $-1 -77.252213025300506 -30.806737546385364 0 0 0 -1 I I #
straight-curve $-1 -72.579779415265691 -30.806737546385364 7.2423406134405566 -1 0 0 I I #
coedge $-1 $369 $275 $357 $406 forward $355 $-1 #
vertex $-1 $360 $412 #
straight-curve $-1 0 -33.806737546385364 7.2423406134405566 1 0 0 I I #
point $-1 -67.907345805230875 -33.806737546385364 7.2423406134405566 #
coedge $-1 $279 $365 $281 $371 reversed $355 $-1 #
straight-curve $-1 -67.907345805230875 -33.806737546385364 0 0 0 1 I I #
edge $-1 $283 -4.6724336100348154 $407 4.6724336100348154 $369 $413 forward 7 unknown #
point $-1 -67.907345805230875 -33.806737546385364 -7.2423406134405566 #
straight-curve $-1 -72.579779415265691 -30.806737546385364 -7.2423406134405566 1 0 0 I I #
coedge $-1 $375 $290 $381 $414 reversed $195 $-1 #
coedge $-1 $290 $374 $293 $379 reversed $195 $-1 #
edge $-1 $377 -43.401470927714215 $298 -5.6102788273191067 $297 $415 forward 7 unknown #
vertex $-1 $292 $416 #
straight-curve $-1 67.907345805230875 12.947550438583077 37.376356830406756 0 0.49999998660252726 -0.86602541151947299 I I #
edge $-1 $294 30.345432191645997 $383 33.806737546385364 $375 $417 forward 7 unknown #
point $-1 67.907345805230875 30.345432191645997 7.2423406134405539 #
coedge $-1 $297 $296 $374 $414 forward $288 $-1 #
point $-1 30.116153704835767 33.806737546385364 1.2471836643352177 #
vertex $-1 $379 $418 #
straight-curve $-1 0 33.806737546385364 7.2423406134405566 -1 0 0 I I #
vertex $-1 $304 $419 #
point $-1 41.913637162091518 29.490430642679385 2.7519340286150134 #
vertex $-1 $308 $420 #
point $-1 58.109862347975138 29.490430642679385 2.7519340286150134 #
edge $-1 $390 43.463530313230791 $393 50.224113383331662 $313 $421 forward 7 unknown #
vertex $-1 $327 $422 #
straight-curve $-1 -1.9409886018231077 -62.342252794555314 7.2423406134405539 0 -1 0 I I #
edge $-1 $393 -6.5265865264915348 $324 15.697782375828389 $323 $423 forward 7 unknown #
vertex $-1 $392 $424 #
straight-curve $-1 -1.9409886018231077 -33.806737546385349 0.48175754333969678 0 0.74314481823134659 0.66913061440640931 I I #
point $-1 -1.9409886018231077 -26.298349544702102 7.2423406134405566 #
point $-1 20.283380300496816 -33.806737546385364 0.48175754333968396 #
straight-curve $-1 0 -33.806737546385364 7.2423406134405566 1 0 0 I I #
vertex $-1 $330 $425 #
point $-1 6.4088310845540093 -25.568937548684982 -1.1174997448428285 #
vertex $-1 $334 $426 #
point $-1 15.933560614119685 -25.568937548684982 -1.1174997448428285 #
point $-1 -67.907345805230875 -33.806737546385364 -7.2423406134405566 #
straight-curve $-1 -67.907345805230875 0 -7.2423406134405566 0 1 0 I I #
point $-1 -67.907345805230875 33.806737546385364 -7.2423406134405566 #
straight-curve $-1 -67.907345805230875 33.806737546385364 0 0 0 -1 I I #
edge $-1 $366 -7.2423406134405566 $407 7.2423406134405566 $357 $427 forward 7 unknown #
vertex $-1 $359 $428 #
straight-curve $-1 -77.252213025300506 -32.306737546385364 -7.2423406134405566 0 1 0 I I #
straight-curve $-1 -77.252213025300506 -32.306737546385364 7.2423406134405566 0 -1 0 I I #
point $-1 -77.252213025300506 -30.806737546385364 7.2423406134405566 #
point $-1 -77.252213025300506 -30.806737546385364 -7.2423406134405566 #
point $-1 -77.252213025300506 -33.806737546385364 7.2423406134405566 #
straight-curve $-1 -72.579779415265691 -33.806737546385364 -7.2423406134405566 -1 0 0 I I #
edge $-1 $383 -7.2423406134405566 $377 -1.2471836643352177 $374 $429 forward 7 unknown #
straight-curve $-1 24.505874877516661 33.806737546385364 1.247183664335207 -1 0 0 I I #
point $-1 67.907345805230875 33.806737546385364 1.2471836643352177 #
straight-curve $-1 67.907345805230875 0 7.2423406134405566 0 1 0 I I #
point $-1 67.907345805230875 33.806737546385364 7.2423406134405566 #
point $-1 40.913637162091518 28.624405231159912 2.2519340420124858 #
point $-1 57.109862347975138 28.624405231159912 2.2519340420124858 #
straight-curve $-1 -1.9409886018231077 -33.806737546385364 50.705870926671345 0 0 -1 I I #
point $-1 -1.9409886018231077 -33.806737546385364 7.2423406134405566 #
straight-curve $-1 4.5855979246684271 -33.806737546385364 0.48175754333968268 1 0 0 I I #
point $-1 -1.9409886018231077 -33.806737546385364 0.48175754333968396 #
point $-1 4.4088310845540093 -24.230676319872163 -2.6037893813055222 #
point $-1 13.933560614119685 -24.230676319872163 -2.6037893813055222 #
straight-curve $-1 -77.252213025300506 -33.806737546385364 0 0 0 -1 I I #
point $-1 -77.252213025300506 -33.806737546385364 -7.2423406134405566 #
straight-curve $-1 67.907345805230875 33.806737546385364 0 0 0 -1 I I #
End-of-ACIS-data 