500 0 4 0           
7 Unknown 11 ACIS 5.0 NT 24 Thu Mar 25 21:58:27 1999 
-1 9.9999999999999995e-007 1e-010 
body $-1 $4 $-1 $5 #
body $-1 $6 $-1 $7 #
body $-1 $8 $-1 $9 #
body $-1 $10 $-1 $11 #
lump $-1 $-1 $12 $0 #
transform $-1 1 0 0 0 1 0 0 0 1 59.0972624897 37.778096835665515 8.4704702793039033 1 rotate no_reflect no_shear #
lump $-1 $-1 $13 $1 #
transform $-1 1 0 0 0 1 0 0 0 1 59.0972624897 37.778096835665515 8.4704702793039033 1 rotate no_reflect no_shear #
lump $-1 $-1 $14 $2 #
transform $-1 1 0 0 0 1 0 0 0 1 59.0972624897 37.778096835665515 8.4704702793039033 1 rotate no_reflect no_shear #
lump $-1 $-1 $15 $3 #
transform $-1 1 0 0 0 1 0 0 0 1 59.0972624897 37.778096835665515 8.4704702793039033 1 rotate no_reflect no_shear #
shell $-1 $-1 $-1 $16 $-1 $4 #
shell $-1 $-1 $-1 $17 $-1 $6 #
shell $-1 $-1 $-1 $18 $-1 $8 #
shell $-1 $-1 $-1 $19 $-1 $10 #
face $-1 $20 $21 $12 $-1 $22 forward single #
face $-1 $23 $24 $13 $-1 $25 reversed single #
face $-1 $26 $27 $14 $-1 $28 reversed single #
face $-1 $29 $30 $15 $-1 $31 forward single #
face $-1 $32 $33 $12 $-1 $34 reversed single #
loop $-1 $-1 $35 $16 #
plane-surface $-1 0 0 8.4704702793039033 0 0 1 1 0 0 forward_v I I I I #
face $-1 $36 $37 $13 $-1 $38 reversed single #
loop $-1 $-1 $39 $17 #
plane-surface $-1 -55.535523704230052 -34.778096835665515 0 0 -1 0 0 0 -1 forward_v I I I I #
face $-1 $40 $41 $14 $-1 $42 reversed single #
loop $-1 $-1 $43 $18 #
plane-surface $-1 -11.922954062294142 -122.80012380926365 84.198041721949068 -1 0 0 0 -0.71933980857756763 0.69465836192734942 forward_v I I I I #
face $-1 $44 $45 $15 $-1 $46 forward single #
loop $-1 $47 $48 $19 #
cone-surface $-1 -25.393543034395648 -33.638465225942674 4.257817249567367 0 0.71933980857756763 -0.69465836192734942 1 0 0 1 I I 0 1 1 forward I I I I #
face $-1 $49 $50 $12 $-1 $51 reversed single #
loop $-1 $-1 $52 $20 #
plane-surface $-1 0 0 -8.4704702793039033 0 0 1 1 0 0 forward_v I I I I #
coedge $-1 $53 $54 $55 $56 forward $21 $-1 #
face $-1 $57 $58 $13 $-1 $59 forward single #
loop $-1 $-1 $60 $23 #
plane-surface $-1 -51.973784918760103 -36.278096835665515 0 -1 0 0 0 0 1 forward_v I I I I #
coedge $-1 $61 $62 $63 $64 forward $24 $-1 #
face $-1 $65 $66 $14 $-1 $67 reversed single #
loop $-1 $-1 $68 $26 #
plane-surface $-1 -25.393543034395648 -37.778096835665522 2.0932266109778794 0 -0.71933980857756763 0.69465836192734942 1 0 0 forward_v I I I I #
coedge $-1 $69 $70 $71 $72 reversed $27 $-1 #
face $-1 $-1 $73 $15 $-1 $74 forward single #
loop $-1 $75 $76 $29 #
cone-surface $-1 -25.393543034395648 -32.218379951201101 2.8864568730301663 0 0.71933980857756763 -0.69465836192734942 0.5 0 0 1 I I -0.70710678118654746 0.70710678118654746 0.5 forward I I I I #
loop $-1 $-1 $77 $19 #
coedge $-1 $48 $48 $78 $79 reversed $30 $-1 #
face $-1 $80 $81 $12 $-1 $82 reversed single #
loop $-1 $-1 $83 $32 #
plane-surface $-1 0 -37.778096835665515 0 0 1 0 0 0 1 forward_v I I I I #
coedge $-1 $84 $85 $86 $87 forward $33 $-1 #
coedge $-1 $88 $35 $89 $90 forward $21 $-1 #
coedge $-1 $35 $88 $91 $92 forward $21 $-1 #
coedge $-1 $93 $94 $35 $56 reversed $95 $-1 #
edge $-1 $96 -37.778096835665515 $97 37.778096835665515 $55 $98 forward 7 unknown #
face $-1 $99 $100 $13 $-1 $101 reversed single #
loop $-1 $-1 $102 $36 #
plane-surface $-1 0 0 8.4704702793039033 0 0 1 1 0 0 forward_v I I I I #
coedge $-1 $103 $104 $105 $106 reversed $37 $-1 #
coedge $-1 $107 $39 $108 $109 reversed $24 $-1 #
coedge $-1 $39 $107 $110 $111 reversed $24 $-1 #
coedge $-1 $104 $103 $39 $64 reversed $37 $-1 #
edge $-1 $112 -8.4704702793039033 $113 8.4704702793039033 $63 $114 forward 7 unknown #
face $-1 $115 $116 $14 $-1 $117 forward single #
loop $-1 $-1 $118 $40 #
plane-surface $-1 -38.864132006497158 -122.80012380926365 84.198041721949068 1 0 0 0 0.71933980857756763 -0.69465836192734942 forward_v I I I I #
coedge $-1 $119 $120 $121 $122 reversed $41 $-1 #
coedge $-1 $70 $43 $123 $124 reversed $27 $-1 #
coedge $-1 $43 $69 $119 $125 reversed $27 $-1 #
coedge $-1 $121 $126 $43 $72 forward $116 $-1 #
edge $-1 $127 23.621965068966311 $128 29.780397547506411 $71 $129 forward 7 unknown #
loop $-1 $-1 $78 $44 #
plane-surface $-1 -25.393543034395648 -37.778096835665522 2.0932266109778794 0 -0.71933980857756763 0.69465836192734942 1 0 0 forward_v I I I I #
loop $-1 $-1 $130 $29 #
coedge $-1 $76 $76 $77 $131 reversed $45 $-1 #
coedge $-1 $77 $77 $76 $131 forward $47 $-1 #
coedge $-1 $78 $78 $48 $79 forward $73 $-1 #
edge $-1 $132 -1.2778041888196294e-015 $132 6.2831853071795996 $78 $133 forward 7 unknown #
face $-1 $134 $135 $12 $-1 $136 reversed single #
loop $-1 $-1 $137 $49 #
plane-surface $-1 -59.0972624897 0 0 1 0 0 0 0 -1 forward_v I I I I #
coedge $-1 $138 $91 $139 $140 forward $50 $-1 #
coedge $-1 $141 $52 $138 $142 forward $33 $-1 #
coedge $-1 $52 $141 $143 $144 forward $33 $-1 #
coedge $-1 $94 $93 $52 $87 reversed $95 $-1 #
edge $-1 $145 -37.778096835665515 $146 37.778096835665515 $86 $147 forward 7 unknown #
coedge $-1 $54 $53 $148 $149 forward $21 $-1 #
coedge $-1 $150 $151 $53 $90 reversed $135 $-1 #
edge $-1 $97 -59.0972624897 $152 59.0972624897 $89 $153 forward 7 unknown #
coedge $-1 $83 $154 $54 $92 reversed $50 $-1 #
edge $-1 $155 -59.0972624897 $96 59.0972624897 $91 $156 forward 7 unknown #
coedge $-1 $86 $55 $154 $157 forward $95 $-1 #
coedge $-1 $55 $86 $150 $158 reversed $95 $-1 #
loop $-1 $-1 $93 $134 #
vertex $-1 $56 $159 #
vertex $-1 $56 $160 #
straight-curve $-1 59.0972624897 0 8.4704702793039033 0 1 0 I I #
face $-1 $161 $162 $13 $-1 $163 reversed single #
loop $-1 $-1 $164 $57 #
plane-surface $-1 -59.0972624897 0 0 1 0 0 0 0 -1 forward_v I I I I #
coedge $-1 $110 $165 $104 $166 forward $58 $-1 #
coedge $-1 $63 $60 $167 $168 reversed $37 $-1 #
coedge $-1 $60 $63 $102 $166 reversed $37 $-1 #
coedge $-1 $169 $170 $60 $106 forward $171 $-1 #
edge $-1 $172 -8.4704702793039033 $173 8.4704702793039033 $105 $174 forward 7 unknown #
coedge $-1 $62 $61 $164 $175 reversed $24 $-1 #
coedge $-1 $167 $176 $61 $109 forward $162 $-1 #
edge $-1 $177 -31.329500637584974 $113 -24.206023066645077 $108 $178 forward 7 unknown #
coedge $-1 $179 $102 $62 $111 forward $58 $-1 #
edge $-1 $112 24.206023066645077 $180 31.329500637584974 $110 $181 forward 7 unknown #
vertex $-1 $111 $182 #
vertex $-1 $109 $183 #
straight-curve $-1 -51.973784918760103 -34.778096835665515 0 0 0 -1 I I #
face $-1 $-1 $184 $14 $-1 $185 reversed single #
loop $-1 $-1 $71 $65 #
plane-surface $-1 0 0 8.4704702793039033 0 0 1 1 0 0 forward_v I I I I #
coedge $-1 $186 $187 $188 $189 reversed $66 $-1 #
coedge $-1 $190 $68 $70 $125 forward $41 $-1 #
coedge $-1 $68 $190 $186 $191 forward $41 $-1 #
coedge $-1 $188 $71 $68 $122 forward $116 $-1 #
edge $-1 $128 -0.77381745490368203 $192 26.167360489299334 $121 $193 forward 7 unknown #
coedge $-1 $194 $195 $69 $124 forward $184 $-1 #
edge $-1 $196 -40.005794249996647 $127 -33.62855058167063 $123 $197 forward 7 unknown #
edge $-1 $128 -8.8654118572090042 $196 -1.0366512331508311e-014 $70 $198 forward 7 unknown #
coedge $-1 $71 $188 $194 $199 forward $116 $-1 #
vertex $-1 $124 $200 #
vertex $-1 $72 $201 #
straight-curve $-1 -11.922954062294142 -61.400061904631826 8.4704702793039033 0 1 0 I I #
coedge $-1 $130 $130 $-1 $202 reversed $75 $-1 #
edge $-1 $203 0 $203 6.2831853071796004 $76 $204 forward 7 unknown #
vertex $-1 $79 $205 #
ellipse-curve $-1 -25.393543034395648 -34.698880596395462 5.2818484451408949 0 -0.71933980857756763 0.69465836192734942 1 0 0 1 I I #
face $-1 $-1 $95 $12 $-1 $206 reversed single #
loop $-1 $-1 $150 $80 #
plane-surface $-1 0 37.778096835665515 0 0 -1 0 0 0 -1 forward_v I I I I #
coedge $-1 $207 $148 $151 $208 forward $81 $-1 #
coedge $-1 $154 $83 $84 $142 reversed $50 $-1 #
coedge $-1 $148 $207 $83 $140 reversed $81 $-1 #
edge $-1 $155 -8.4704702793039033 $209 8.4704702793039033 $139 $210 forward 7 unknown #
coedge $-1 $85 $84 $207 $211 forward $33 $-1 #
edge $-1 $146 -59.0972624897 $209 59.0972624897 $138 $212 forward 7 unknown #
coedge $-1 $151 $150 $85 $144 reversed $135 $-1 #
edge $-1 $213 -59.0972624897 $145 59.0972624897 $143 $214 forward 7 unknown #
vertex $-1 $87 $215 #
vertex $-1 $157 $216 #
straight-curve $-1 59.0972624897 0 -8.4704702793039033 0 -1 0 I I #
coedge $-1 $137 $139 $88 $149 reversed $81 $-1 #
edge $-1 $152 -37.778096835665515 $155 37.778096835665515 $148 $217 forward 7 unknown #
coedge $-1 $143 $89 $94 $158 forward $135 $-1 #
coedge $-1 $89 $143 $137 $208 reversed $135 $-1 #
vertex $-1 $90 $218 #
straight-curve $-1 0 37.778096835665515 8.4704702793039033 -1 0 0 I I #
coedge $-1 $91 $138 $93 $157 reversed $50 $-1 #
vertex $-1 $149 $219 #
straight-curve $-1 0 -37.778096835665515 8.4704702793039033 1 0 0 I I #
edge $-1 $96 -8.4704702793039033 $146 8.4704702793039033 $93 $220 forward 7 unknown #
edge $-1 $97 -8.4704702793039033 $145 8.4704702793039033 $94 $221 forward 7 unknown #
point $-1 59.0972624897 -37.778096835665515 8.4704702793039033 #
point $-1 59.0972624897 37.778096835665515 8.4704702793039033 #
face $-1 $-1 $171 $13 $-1 $222 reversed single #
loop $-1 $-1 $167 $99 #
plane-surface $-1 0 0 -8.4704702793039033 0 0 1 1 0 0 forward_v I I I I #
coedge $-1 $223 $224 $107 $175 forward $100 $-1 #
coedge $-1 $102 $179 $169 $225 forward $58 $-1 #
edge $-1 $173 -19.639048417832758 $112 -16.639048417832758 $102 $226 forward 7 unknown #
coedge $-1 $227 $108 $103 $168 forward $162 $-1 #
edge $-1 $113 16.639048417832758 $172 19.639048417832758 $167 $228 forward 7 unknown #
coedge $-1 $229 $105 $165 $225 reversed $171 $-1 #
coedge $-1 $105 $229 $227 $230 reversed $171 $-1 #
loop $-1 $-1 $105 $161 #
vertex $-1 $230 $231 #
vertex $-1 $106 $232 #
straight-curve $-1 -51.973784918760103 -37.778096835665515 0 0 0 1 I I #
edge $-1 $180 -8.4704702793039033 $177 8.4704702793039033 $164 $233 forward 7 unknown #
coedge $-1 $108 $227 $223 $234 forward $162 $-1 #
vertex $-1 $109 $235 #
straight-curve $-1 -27.767761852115026 -34.778096835665515 -8.4704702793039033 1 0 0 I I #
coedge $-1 $165 $110 $224 $236 forward $58 $-1 #
vertex $-1 $236 $237 #
straight-curve $-1 -27.767761852115026 -34.778096835665515 8.4704702793039033 -1 0 0 I I #
point $-1 -51.973784918760103 -34.778096835665515 8.4704702793039033 #
point $-1 -51.973784918760103 -34.778096835665515 -8.4704702793039033 #
loop $-1 $-1 $123 $115 #
plane-surface $-1 0 -37.778096835665515 0 0 1 0 0 0 1 forward_v I I I I #
coedge $-1 $187 $118 $120 $191 reversed $66 $-1 #
coedge $-1 $118 $186 $238 $239 reversed $66 $-1 #
coedge $-1 $126 $121 $118 $189 forward $116 $-1 #
edge $-1 $192 -29.780397547506411 $240 -23.621965068966311 $188 $241 forward 7 unknown #
coedge $-1 $120 $119 $195 $242 reversed $41 $-1 #
edge $-1 $243 1.0366512331508311e-014 $192 8.8654118572090042 $186 $244 forward 7 unknown #
vertex $-1 $122 $245 #
straight-curve $-1 -12.696771517197824 -31.619664357125416 8.4704702793039033 -1 0 0 I I #
coedge $-1 $238 $123 $126 $199 reversed $184 $-1 #
coedge $-1 $123 $238 $190 $242 forward $184 $-1 #
vertex $-1 $124 $246 #
straight-curve $-1 -11.922954062294142 -37.778096835665515 42.099020860974534 0 0 1 I I #
straight-curve $-1 -11.922954062294142 -37.778096835665522 2.0932266109778794 0 -0.69465836192734942 -0.71933980857756763 I I #
edge $-1 $240 -38.864132006497158 $127 -11.922954062294142 $194 $247 forward 7 unknown #
point $-1 -11.922954062294142 -37.778096835665515 8.4704702793039033 #
point $-1 -11.922954062294142 -31.619664357125416 8.4704702793039033 #
edge $-1 $248 1 $248 0 $130 $-1 forward 7 unknown #
vertex $-1 $131 $249 #
ellipse-curve $-1 -25.393543034395648 -32.578049855489887 3.2337860539938408 0 -0.71933980857756763 0.69465836192734942 1 0 0 1 I I #
point $-1 -24.393543034395648 -34.698880596395462 5.2818484451408931 #
plane-surface $-1 59.0972624897 0 0 -1 0 0 0 0 1 forward_v I I I I #
coedge $-1 $139 $137 $141 $211 reversed $81 $-1 #
edge $-1 $152 -8.4704702793039033 $213 8.4704702793039033 $151 $250 forward 7 unknown #
vertex $-1 $211 $251 #
straight-curve $-1 -59.0972624897 -37.778096835665515 0 0 0 -1 I I #
edge $-1 $209 -37.778096835665515 $213 37.778096835665515 $207 $252 forward 7 unknown #
straight-curve $-1 0 -37.778096835665515 -8.4704702793039033 -1 0 0 I I #
vertex $-1 $144 $253 #
straight-curve $-1 0 37.778096835665515 -8.4704702793039033 1 0 0 I I #
point $-1 59.0972624897 37.778096835665515 -8.4704702793039033 #
point $-1 59.0972624897 -37.778096835665515 -8.4704702793039033 #
straight-curve $-1 -59.0972624897 0 8.4704702793039033 0 -1 0 I I #
point $-1 -59.0972624897 37.778096835665515 8.4704702793039033 #
point $-1 -59.0972624897 -37.778096835665515 8.4704702793039033 #
straight-curve $-1 59.0972624897 -37.778096835665515 0 0 0 -1 I I #
straight-curve $-1 59.0972624897 37.778096835665515 0 0 0 -1 I I #
plane-surface $-1 0 -37.778096835665515 0 0 1 0 0 0 1 forward_v I I I I #
coedge $-1 $254 $164 $176 $234 reversed $100 $-1 #
coedge $-1 $164 $254 $179 $236 reversed $100 $-1 #
edge $-1 $255 -59.0972624897 $173 -51.973784918760103 $169 $256 forward 7 unknown #
straight-curve $-1 -51.973784918760103 -18.139048417832758 8.4704702793039033 0 1 0 I I #
coedge $-1 $176 $167 $170 $230 forward $162 $-1 #
straight-curve $-1 -51.973784918760103 -18.139048417832758 -8.4704702793039033 0 -1 0 I I #
coedge $-1 $170 $169 $254 $257 forward $171 $-1 #
edge $-1 $172 51.973784918760103 $258 59.0972624897 $170 $259 forward 7 unknown #
point $-1 -51.973784918760103 -37.778096835665515 -8.4704702793039033 #
point $-1 -51.973784918760103 -37.778096835665515 8.4704702793039033 #
straight-curve $-1 -59.0972624897 -34.778096835665515 0 0 0 -1 I I #
edge $-1 $258 -37.778096835665515 $177 -34.778096835665515 $223 $260 forward 7 unknown #
point $-1 -59.0972624897 -34.778096835665515 -8.4704702793039033 #
edge $-1 $180 34.778096835665515 $255 37.778096835665515 $224 $261 forward 7 unknown #
point $-1 -59.0972624897 -34.778096835665515 8.4704702793039033 #
coedge $-1 $195 $194 $187 $239 forward $184 $-1 #
edge $-1 $240 33.62855058167063 $243 40.005794249996647 $238 $262 forward 7 unknown #
vertex $-1 $199 $263 #
straight-curve $-1 -38.864132006497158 -61.400061904631826 8.4704702793039033 0 -1 0 I I #
edge $-1 $243 -26.167360489299334 $196 0.77381745490368203 $195 $264 forward 7 unknown #
vertex $-1 $242 $265 #
straight-curve $-1 -38.864132006497158 -37.778096835665522 2.0932266109778794 0 0.69465836192734942 0.71933980857756763 I I #
point $-1 -38.864132006497158 -31.619664357125416 8.4704702793039033 #
point $-1 -11.922954062294142 -37.778096835665515 2.093226610977887 #
straight-curve $-1 0 -37.778096835665515 8.4704702793039033 1 0 0 I I #
vertex $-1 $202 $266 #
point $-1 -24.393543034395648 -32.578049855489887 3.2337860539938408 #
straight-curve $-1 -59.0972624897 37.778096835665515 0 0 0 -1 I I #
point $-1 -59.0972624897 -37.778096835665515 -8.4704702793039033 #
straight-curve $-1 -59.0972624897 0 -8.4704702793039033 0 1 0 I I #
point $-1 -59.0972624897 37.778096835665515 -8.4704702793039033 #
coedge $-1 $224 $223 $229 $257 reversed $100 $-1 #
vertex $-1 $236 $267 #
straight-curve $-1 0 -37.778096835665515 8.4704702793039033 1 0 0 I I #
edge $-1 $255 -8.4704702793039033 $258 8.4704702793039033 $254 $268 forward 7 unknown #
vertex $-1 $234 $269 #
straight-curve $-1 0 -37.778096835665515 -8.4704702793039033 -1 0 0 I I #
straight-curve $-1 -59.0972624897 0 -8.4704702793039033 0 1 0 I I #
straight-curve $-1 -59.0972624897 0 8.4704702793039033 0 -1 0 I I #
straight-curve $-1 -38.864132006497158 -37.778096835665515 42.099020860974534 0 0 -1 I I #
point $-1 -38.864132006497158 -37.778096835665515 8.4704702793039033 #
straight-curve $-1 -12.696771517197824 -37.778096835665515 2.0932266109778883 1 0 0 I I #
point $-1 -38.864132006497158 -37.778096835665515 2.093226610977887 #
point $-1 -25.393543034395648 -31.858710046912318 2.5391276920664918 #
point $-1 -59.0972624897 -37.778096835665515 8.4704702793039033 #
straight-curve $-1 -59.0972624897 -37.778096835665515 0 0 0 -1 I I #
point $-1 -59.0972624897 -37.778096835665515 -8.4704702793039033 #
End-of-ACIS-data 