500 0 10 0           
7 Unknown 11 ACIS 5.0 NT 24 Fri Mar 26 14:47:35 1999 
-1 9.9999999999999995e-007 1e-010 
body $-1 $10 $-1 $11 #
body $-1 $12 $-1 $13 #
body $-1 $14 $-1 $15 #
body $-1 $16 $-1 $17 #
body $-1 $18 $-1 $19 #
body $-1 $20 $-1 $21 #
body $-1 $22 $-1 $23 #
body $-1 $24 $-1 $25 #
body $-1 $26 $-1 $27 #
body $-1 $28 $-1 $29 #
lump $-1 $-1 $30 $0 #
transform $-1 1 0 0 0 1 0 0 0 1 49.995422223578601 31.046536206035189 12.265215202292088 1 rotate no_reflect no_shear #
lump $-1 $-1 $31 $1 #
transform $-1 1 0 0 0 1 0 0 0 1 49.995422223578601 31.046536206035189 12.265215202292088 1 rotate no_reflect no_shear #
lump $-1 $-1 $32 $2 #
transform $-1 1 0 0 0 1 0 0 0 1 49.995422223578601 31.046536206035189 12.265215202292088 1 rotate no_reflect no_shear #
lump $-1 $-1 $33 $3 #
transform $-1 1 0 0 0 1 0 0 0 1 49.995422223578601 31.046536206035189 12.265215202292088 1 rotate no_reflect no_shear #
lump $-1 $-1 $34 $4 #
transform $-1 1 0 0 0 1 0 0 0 1 49.995422223578601 31.046536206035189 12.265215202292088 1 rotate no_reflect no_shear #
lump $-1 $-1 $35 $5 #
transform $-1 1 0 0 0 1 0 0 0 1 49.995422223578601 31.046536206035189 12.265215202292088 1 rotate no_reflect no_shear #
lump $-1 $-1 $36 $6 #
transform $-1 1 0 0 0 1 0 0 0 1 49.995422223578601 31.046536206035189 12.265215202292088 1 rotate no_reflect no_shear #
lump $-1 $-1 $37 $7 #
transform $-1 1 0 0 0 1 0 0 0 1 49.995422223578601 31.046536206035189 12.265215202292088 1 rotate no_reflect no_shear #
lump $-1 $-1 $38 $8 #
transform $-1 1 0 0 0 1 0 0 0 1 49.995422223578601 31.046536206035189 12.265215202292088 1 rotate no_reflect no_shear #
lump $-1 $-1 $39 $9 #
transform $-1 1 0 0 0 1 0 0 0 1 49.995422223578601 31.046536206035189 12.265215202292088 1 rotate no_reflect no_shear #
shell $-1 $-1 $-1 $40 $-1 $10 #
shell $-1 $-1 $-1 $41 $-1 $12 #
shell $-1 $-1 $-1 $42 $-1 $14 #
shell $-1 $-1 $-1 $43 $-1 $16 #
shell $-1 $-1 $-1 $44 $-1 $18 #
shell $-1 $-1 $-1 $45 $-1 $20 #
shell $-1 $-1 $-1 $46 $-1 $22 #
shell $-1 $-1 $-1 $47 $-1 $24 #
shell $-1 $-1 $-1 $48 $-1 $26 #
shell $-1 $-1 $-1 $49 $-1 $28 #
face $-1 $50 $51 $30 $-1 $52 forward single #
face $-1 $53 $54 $31 $-1 $55 reversed single #
face $-1 $56 $57 $32 $-1 $58 reversed single #
face $-1 $59 $60 $33 $-1 $61 forward single #
face $-1 $62 $63 $34 $-1 $64 reversed single #
face $-1 $65 $66 $35 $-1 $67 forward single #
face $-1 $68 $69 $36 $-1 $70 forward single #
face $-1 $71 $72 $37 $-1 $73 reversed single #
face $-1 $74 $75 $38 $-1 $76 forward single #
face $-1 $77 $78 $39 $-1 $79 forward single #
face $-1 $80 $81 $30 $-1 $82 reversed single #
loop $-1 $-1 $83 $40 #
plane-surface $-1 0 0 12.265215202292088 0 0 1 1 0 0 forward_v I I I I #
face $-1 $84 $85 $31 $-1 $86 reversed single #
loop $-1 $-1 $87 $41 #
plane-surface $-1 -39.987972022316356 -25.111563755334963 0 1 0 0 0 0 -1 forward_v I I I I #
face $-1 $88 $89 $32 $-1 $90 reversed single #
loop $-1 $-1 $91 $42 #
plane-surface $-1 64.776627688742408 18.722239389556574 147.62642667736407 0 -1 0 -0.77714596973225614 0 -0.62932038083071107 forward_v I I I I #
face $-1 $92 $93 $33 $-1 $94 forward single #
loop $-1 $95 $96 $43 #
cone-surface $-1 46.975497038326786 11.303051262088506 8.912191369999622 -0.77714596973225614 0 -0.62932038083071107 0.9439805712460666 0 -1.1657189545983841 1 I I 0 1 1.5 forward I I I I #
face $-1 $97 $98 $34 $-1 $99 reversed single #
loop $-1 $-1 $100 $44 #
plane-surface $-1 -129.85166210101215 -12.704558276990785 68.997555161576287 0 1 0 -0.79863551827123203 0 0.60181501223851219 forward_v I I I I #
face $-1 $101 $102 $35 $-1 $103 forward single #
loop $-1 $104 $105 $45 #
cone-surface $-1 -47.337313777693659 -10.230396480934353 9.5180890242194227 0.79863551827123203 0 -0.60181501223851219 0.60181501223851219 0 0.79863551827123203 1 I I 0 1 1 forward I I I I #
face $-1 $106 $107 $36 $-1 $108 forward single #
loop $-1 $109 $110 $46 #
cone-surface $-1 -47.337313777693659 -6.5191537868497029 9.5180890242194227 0.79863551827123203 0 -0.60181501223851219 0.60181501223851219 0 0.79863551827123203 1 I I 0 1 1 forward I I I I #
face $-1 $111 $112 $37 $-1 $113 reversed single #
loop $-1 $-1 $114 $47 #
plane-surface $-1 -129.85166210101215 12.407005478344175 68.997555161576287 0 1 0 -0.79863551827123203 0 0.60181501223851219 forward_v I I I I #
face $-1 $115 $116 $38 $-1 $117 forward single #
loop $-1 $118 $119 $48 #
cone-surface $-1 -47.337313777693659 14.881167274400607 9.5180890242194227 0.79863551827123203 0 -0.60181501223851219 0.60181501223851219 0 0.79863551827123203 1 I I 0 1 1 forward I I I I #
face $-1 $120 $121 $39 $-1 $122 forward single #
loop $-1 $123 $124 $49 #
cone-surface $-1 -47.337313777693659 18.592409968485253 9.5180890242194227 0.79863551827123203 0 -0.60181501223851219 0.60181501223851219 0 0.79863551827123203 1 I I 0 1 1 forward I I I I #
face $-1 $125 $126 $30 $-1 $127 reversed single #
loop $-1 $-1 $128 $50 #
plane-surface $-1 0 0 -12.265215202292088 0 0 1 1 0 0 forward_v I I I I #
coedge $-1 $129 $130 $131 $132 forward $51 $-1 #
face $-1 $133 $134 $31 $-1 $135 reversed single #
loop $-1 $-1 $136 $53 #
plane-surface $-1 -38.356889675931647 -19.176591304634741 0 0 -1 0 0 0 -1 forward_v I I I I #
coedge $-1 $137 $138 $139 $140 forward $54 $-1 #
face $-1 $141 $142 $32 $-1 $143 reversed single #
loop $-1 $-1 $144 $56 #
plane-surface $-1 -12.930854083490757 11.303051262088506 84.700150370294708 0.77714596973225614 0 0.62932038083071107 0.62932038083071107 0 -0.77714596973225614 forward_v I I I I #
coedge $-1 $145 $146 $147 $148 reversed $57 $-1 #
face $-1 $-1 $149 $33 $-1 $150 forward single #
loop $-1 $151 $152 $59 #
cone-surface $-1 45.507524345569038 11.303051262088506 7.723450554199383 -0.77714596973225614 0 -0.62932038083071107 0.4719902856230333 0 -0.58285947729919207 1 I I -0.70710678118654757 0.70710678118654757 0.75 forward I I I I #
loop $-1 $-1 $153 $43 #
coedge $-1 $96 $96 $154 $155 reversed $60 $-1 #
face $-1 $156 $157 $34 $-1 $158 reversed single #
loop $-1 $-1 $159 $62 #
plane-surface $-1 -49.995422223578615 -8.3747751338920295 8.8215638868712034 -0.79863551827123203 0 0.60181501223851219 0.60181501223851219 0 0.79863551827123203 forward_v I I I I #
coedge $-1 $160 $161 $162 $163 reversed $63 $-1 #
face $-1 $-1 $164 $35 $-1 $165 forward single #
loop $-1 $166 $167 $65 #
cone-surface $-1 -45.577376233721701 -10.230396480934353 8.1918809977379485 0.79863551827123203 0 -0.60181501223851219 0.3009075061192561 0 0.39931775913561601 1 I I -0.70710678118654746 0.70710678118654746 0.5 forward I I I I #
loop $-1 $-1 $168 $45 #
coedge $-1 $105 $105 $169 $170 reversed $66 $-1 #
face $-1 $-1 $171 $36 $-1 $172 forward single #
loop $-1 $173 $174 $68 #
cone-surface $-1 -45.577376233721701 -6.5191537868497029 8.1918809977379485 0.79863551827123203 0 -0.60181501223851219 0.3009075061192561 0 0.39931775913561601 1 I I -0.70710678118654746 0.70710678118654746 0.5 forward I I I I #
loop $-1 $-1 $175 $46 #
coedge $-1 $110 $110 $176 $177 reversed $69 $-1 #
face $-1 $178 $179 $37 $-1 $180 reversed single #
loop $-1 $-1 $181 $71 #
plane-surface $-1 -49.995422223578615 16.73678862144293 8.8215638868712034 -0.79863551827123203 0 0.60181501223851219 0.60181501223851219 0 0.79863551827123203 forward_v I I I I #
coedge $-1 $182 $183 $184 $185 reversed $72 $-1 #
face $-1 $-1 $186 $38 $-1 $187 forward single #
loop $-1 $188 $189 $74 #
cone-surface $-1 -45.577376233721701 14.881167274400607 8.1918809977379485 0.79863551827123203 0 -0.60181501223851219 0.3009075061192561 0 0.39931775913561601 1 I I -0.70710678118654746 0.70710678118654746 0.5 forward I I I I #
loop $-1 $-1 $190 $48 #
coedge $-1 $119 $119 $191 $192 reversed $75 $-1 #
face $-1 $-1 $193 $39 $-1 $194 forward single #
loop $-1 $195 $196 $77 #
cone-surface $-1 -45.577376233721701 18.592409968485253 8.1918809977379485 0.79863551827123203 0 -0.60181501223851219 0.3009075061192561 0 0.39931775913561601 1 I I -0.70710678118654746 0.70710678118654746 0.5 forward I I I I #
loop $-1 $-1 $197 $49 #
coedge $-1 $124 $124 $198 $199 reversed $78 $-1 #
face $-1 $200 $201 $30 $-1 $202 reversed single #
loop $-1 $-1 $203 $80 #
plane-surface $-1 0 -31.046536206035189 0 0 1 0 0 0 1 forward_v I I I I #
coedge $-1 $204 $205 $206 $207 forward $81 $-1 #
coedge $-1 $208 $83 $209 $210 forward $51 $-1 #
coedge $-1 $83 $208 $211 $212 forward $51 $-1 #
coedge $-1 $213 $214 $83 $132 reversed $215 $-1 #
edge $-1 $216 -31.046536206035189 $217 31.046536206035189 $131 $218 forward 7 unknown #
face $-1 $219 $220 $31 $-1 $221 forward single #
loop $-1 $-1 $222 $84 #
plane-surface $-1 -36.725807329546939 -25.111563755334963 0 -1 0 0 0 0 1 forward_v I I I I #
coedge $-1 $223 $224 $225 $226 forward $85 $-1 #
coedge $-1 $227 $87 $228 $229 reversed $54 $-1 #
coedge $-1 $87 $227 $230 $231 reversed $54 $-1 #
coedge $-1 $224 $223 $87 $140 reversed $85 $-1 #
edge $-1 $232 -12.265215202292088 $233 12.265215202292088 $139 $234 forward 7 unknown #
face $-1 $235 $236 $32 $-1 $237 reversed single #
loop $-1 $-1 $238 $88 #
plane-surface $-1 64.776627688742408 3.8838631346204373 147.62642667736407 0 1 0 0.77714596973225614 0 0.62932038083071107 forward_v I I I I #
coedge $-1 $239 $240 $241 $242 reversed $89 $-1 #
coedge $-1 $146 $91 $243 $244 reversed $57 $-1 #
coedge $-1 $91 $145 $239 $245 reversed $57 $-1 #
coedge $-1 $241 $246 $91 $148 forward $247 $-1 #
edge $-1 $248 -17.607108379207396 $249 -13.337484439620866 $147 $250 forward 7 unknown #
loop $-1 $-1 $154 $92 #
plane-surface $-1 -12.930854083490757 11.303051262088506 84.700150370294708 0.77714596973225614 0 0.62932038083071107 0.62932038083071107 0 -0.77714596973225614 forward_v I I I I #
loop $-1 $-1 $251 $59 #
coedge $-1 $152 $152 $153 $252 reversed $93 $-1 #
coedge $-1 $153 $153 $152 $252 forward $95 $-1 #
coedge $-1 $154 $154 $96 $155 forward $149 $-1 #
edge $-1 $253 0 $253 6.2831853071796004 $154 $254 forward 7 unknown #
face $-1 $255 $256 $34 $-1 $257 reversed single #
loop $-1 $-1 $258 $97 #
plane-surface $-1 -129.85166210101215 -4.0449919907932745 68.997555161576287 0 -1 0 0.79863551827123203 0 -0.60181501223851219 forward_v I I I I #
coedge $-1 $259 $260 $261 $262 reversed $98 $-1 #
coedge $-1 $161 $100 $263 $264 reversed $63 $-1 #
coedge $-1 $100 $160 $259 $265 reversed $63 $-1 #
coedge $-1 $261 $266 $100 $163 forward $267 $-1 #
edge $-1 $268 14.930408826927476 $269 17.525386149024655 $162 $270 forward 7 unknown #
loop $-1 $-1 $169 $101 #
plane-surface $-1 -49.995422223578615 -8.3747751338920295 8.8215638868712034 -0.79863551827123203 0 0.60181501223851219 0.60181501223851219 0 0.79863551827123203 forward_v I I I I #
loop $-1 $-1 $271 $65 #
coedge $-1 $167 $167 $168 $272 reversed $102 $-1 #
coedge $-1 $168 $168 $167 $272 forward $104 $-1 #
coedge $-1 $169 $169 $105 $170 forward $164 $-1 #
edge $-1 $273 0 $273 6.2831853071796004 $169 $274 forward 7 unknown #
loop $-1 $-1 $176 $106 #
plane-surface $-1 -49.995422223578615 -8.3747751338920295 8.8215638868712034 -0.79863551827123203 0 0.60181501223851219 0.60181501223851219 0 0.79863551827123203 forward_v I I I I #
loop $-1 $-1 $275 $68 #
coedge $-1 $174 $174 $175 $276 reversed $107 $-1 #
coedge $-1 $175 $175 $174 $276 forward $109 $-1 #
coedge $-1 $176 $176 $110 $177 forward $171 $-1 #
edge $-1 $277 0 $277 6.2831853071796004 $176 $278 forward 7 unknown #
face $-1 $279 $280 $37 $-1 $281 forward single #
loop $-1 $-1 $282 $111 #
plane-surface $-1 -129.85166210101215 21.066571764541685 68.997555161576287 0 -1 0 0.79863551827123203 0 -0.60181501223851219 forward_v I I I I #
coedge $-1 $283 $284 $285 $286 reversed $112 $-1 #
coedge $-1 $183 $114 $287 $288 reversed $72 $-1 #
coedge $-1 $114 $182 $283 $289 reversed $72 $-1 #
coedge $-1 $285 $290 $114 $185 forward $280 $-1 #
edge $-1 $291 14.930408826927476 $292 17.525386149024655 $184 $293 forward 7 unknown #
loop $-1 $-1 $191 $115 #
plane-surface $-1 -49.995422223578615 16.73678862144293 8.8215638868712034 -0.79863551827123203 0 0.60181501223851219 0.60181501223851219 0 0.79863551827123203 forward_v I I I I #
loop $-1 $-1 $294 $74 #
coedge $-1 $189 $189 $190 $295 reversed $116 $-1 #
coedge $-1 $190 $190 $189 $295 forward $118 $-1 #
coedge $-1 $191 $191 $119 $192 forward $186 $-1 #
edge $-1 $296 0 $296 6.2831853071796004 $191 $297 forward 7 unknown #
loop $-1 $-1 $198 $120 #
plane-surface $-1 -49.995422223578615 16.73678862144293 8.8215638868712034 -0.79863551827123203 0 0.60181501223851219 0.60181501223851219 0 0.79863551827123203 forward_v I I I I #
loop $-1 $-1 $298 $77 #
coedge $-1 $196 $196 $197 $299 reversed $121 $-1 #
coedge $-1 $197 $197 $196 $299 forward $123 $-1 #
coedge $-1 $198 $198 $124 $199 forward $193 $-1 #
edge $-1 $300 0 $300 6.2831853071796004 $198 $301 forward 7 unknown #
face $-1 $302 $303 $30 $-1 $304 reversed single #
loop $-1 $-1 $305 $125 #
plane-surface $-1 -49.995422223578601 0 0 1 0 0 0 0 -1 forward_v I I I I #
coedge $-1 $306 $211 $307 $308 forward $126 $-1 #
coedge $-1 $309 $128 $306 $310 forward $81 $-1 #
coedge $-1 $128 $309 $311 $312 forward $81 $-1 #
coedge $-1 $214 $213 $128 $207 reversed $215 $-1 #
edge $-1 $313 -31.046536206035189 $314 31.046536206035189 $206 $315 forward 7 unknown #
coedge $-1 $130 $129 $316 $317 forward $51 $-1 #
coedge $-1 $318 $319 $129 $210 reversed $303 $-1 #
edge $-1 $217 -49.995422223578601 $320 49.995422223578601 $209 $321 forward 7 unknown #
coedge $-1 $203 $322 $130 $212 reversed $126 $-1 #
edge $-1 $323 -49.995422223578601 $216 49.995422223578601 $211 $324 forward 7 unknown #
coedge $-1 $206 $131 $322 $325 forward $215 $-1 #
coedge $-1 $131 $206 $318 $326 reversed $215 $-1 #
loop $-1 $-1 $213 $302 #
vertex $-1 $132 $327 #
vertex $-1 $132 $328 #
straight-curve $-1 49.995422223578601 0 12.265215202292088 0 1 0 I I #
face $-1 $329 $330 $31 $-1 $331 reversed single #
loop $-1 $-1 $332 $133 #
plane-surface $-1 0 0 12.265215202292088 0 0 1 1 0 0 forward_v I I I I #
coedge $-1 $333 $334 $335 $336 reversed $134 $-1 #
coedge $-1 $139 $136 $337 $338 reversed $85 $-1 #
coedge $-1 $136 $139 $339 $340 reversed $85 $-1 #
coedge $-1 $334 $333 $136 $226 reversed $134 $-1 #
edge $-1 $341 -12.265215202292088 $342 12.265215202292088 $225 $343 forward 7 unknown #
coedge $-1 $138 $137 $344 $345 reversed $54 $-1 #
coedge $-1 $337 $346 $137 $229 forward $330 $-1 #
edge $-1 $347 -18.490754328367704 $233 -6.6208094269672593 $228 $348 forward 7 unknown #
coedge $-1 $349 $339 $138 $231 forward $220 $-1 #
edge $-1 $232 6.6208094269672593 $350 18.490754328367704 $230 $351 forward 7 unknown #
vertex $-1 $231 $352 #
vertex $-1 $229 $353 #
straight-curve $-1 -39.987972022316356 -19.176591304634741 0 0 0 -1 I I #
face $-1 $-1 $247 $32 $-1 $354 forward single #
loop $-1 $-1 $355 $141 #
plane-surface $-1 49.995422223578601 0 0 -1 0 0 0 0 1 forward_v I I I I #
coedge $-1 $356 $357 $358 $359 reversed $142 $-1 #
coedge $-1 $360 $144 $146 $245 forward $89 $-1 #
coedge $-1 $144 $360 $356 $361 forward $89 $-1 #
coedge $-1 $358 $147 $144 $242 forward $247 $-1 #
edge $-1 $249 -13.070713758512321 $362 1.7676624964238155 $241 $363 forward 7 unknown #
coedge $-1 $364 $365 $145 $244 forward $236 $-1 #
edge $-1 $366 -66.820544740620491 $248 -61.547998136389943 $243 $367 forward 7 unknown #
edge $-1 $249 93.206344739789429 $366 99.990844447157201 $146 $368 forward 7 unknown #
coedge $-1 $147 $358 $364 $369 forward $247 $-1 #
loop $-1 $-1 $358 $235 #
vertex $-1 $244 $370 #
vertex $-1 $148 $371 #
straight-curve $-1 32.388313844371204 18.722239389556574 12.265215202292083 -1 0 0 I I #
coedge $-1 $251 $251 $-1 $372 reversed $151 $-1 #
edge $-1 $373 0 $373 6.2831853071796004 $152 $374 forward 7 unknown #
vertex $-1 $155 $375 #
ellipse-curve $-1 47.860610253785332 11.303051262088506 9.6289419001768213 0.77714596973225614 0 0.62932038083071107 0.9439805712460666 0 -1.1657189545983841 1 I I #
face $-1 $-1 $267 $34 $-1 $376 forward single #
loop $-1 $-1 $377 $156 #
plane-surface $-1 -49.995422223578601 0 0 1 0 0 0 0 -1 forward_v I I I I #
coedge $-1 $378 $379 $380 $381 reversed $157 $-1 #
coedge $-1 $382 $159 $161 $265 forward $98 $-1 #
coedge $-1 $159 $382 $378 $383 forward $98 $-1 #
coedge $-1 $380 $162 $159 $262 forward $267 $-1 #
edge $-1 $269 -8.5171707100447698 $384 0.14239557615274023 $261 $385 forward 7 unknown #
coedge $-1 $386 $387 $160 $264 forward $256 $-1 #
edge $-1 $388 -25.677213693916919 $268 -22.233562378496053 $263 $389 forward 7 unknown #
edge $-1 $269 -4.3119185618931528 $388 -2.4157584020108747e-014 $161 $390 forward 7 unknown #
coedge $-1 $162 $380 $386 $391 forward $267 $-1 #
loop $-1 $-1 $380 $255 #
vertex $-1 $264 $392 #
vertex $-1 $163 $393 #
straight-curve $-1 -64.925831050506076 -12.704558276990785 12.26521520229209 1 0 0 I I #
coedge $-1 $271 $271 $-1 $394 reversed $166 $-1 #
edge $-1 $395 0 $395 6.2831853071796004 $167 $396 forward 7 unknown #
vertex $-1 $170 $397 #
ellipse-curve $-1 -48.697933562530011 -10.230396480934353 10.54338954458165 -0.79863551827123203 0 0.60181501223851219 0.60181501223851219 0 0.79863551827123203 1 I I #
coedge $-1 $275 $275 $-1 $398 reversed $173 $-1 #
edge $-1 $399 0 $399 6.2831853071796004 $174 $400 forward 7 unknown #
vertex $-1 $177 $401 #
ellipse-curve $-1 -48.697933562530011 -6.5191537868497029 10.54338954458165 -0.79863551827123203 0 0.60181501223851219 0.60181501223851219 0 0.79863551827123203 1 I I #
face $-1 $-1 $402 $37 $-1 $403 reversed single #
loop $-1 $-1 $184 $178 #
plane-surface $-1 0 0 12.265215202292088 0 0 1 1 0 0 forward_v I I I I #
coedge $-1 $404 $405 $406 $407 reversed $179 $-1 #
coedge $-1 $408 $181 $183 $289 forward $112 $-1 #
coedge $-1 $181 $408 $404 $409 forward $112 $-1 #
coedge $-1 $406 $184 $181 $286 forward $280 $-1 #
edge $-1 $292 4.0386111676227099 $410 12.69817745382022 $285 $411 forward 7 unknown #
coedge $-1 $412 $413 $182 $288 forward $402 $-1 #
edge $-1 $414 -25.677213693916919 $291 -22.233562378496053 $287 $415 forward 7 unknown #
edge $-1 $292 -4.3119185618931528 $414 -2.4157584020108747e-014 $183 $416 forward 7 unknown #
coedge $-1 $184 $406 $412 $417 forward $280 $-1 #
vertex $-1 $288 $418 #
vertex $-1 $185 $419 #
straight-curve $-1 -64.925831050506076 12.407005478344175 12.26521520229209 1 0 0 I I #
coedge $-1 $294 $294 $-1 $420 reversed $188 $-1 #
edge $-1 $421 0 $421 6.2831853071796004 $189 $422 forward 7 unknown #
vertex $-1 $192 $423 #
ellipse-curve $-1 -48.697933562530011 14.881167274400607 10.54338954458165 -0.79863551827123203 0 0.60181501223851219 0.60181501223851219 0 0.79863551827123203 1 I I #
coedge $-1 $298 $298 $-1 $424 reversed $195 $-1 #
edge $-1 $425 0 $425 6.2831853071796004 $196 $426 forward 7 unknown #
vertex $-1 $199 $427 #
ellipse-curve $-1 -48.697933562530011 18.592409968485253 10.54338954458165 -0.79863551827123203 0 0.60181501223851219 0.60181501223851219 0 0.79863551827123203 1 I I #
face $-1 $-1 $215 $30 $-1 $428 reversed single #
loop $-1 $-1 $318 $200 #
plane-surface $-1 0 31.046536206035189 0 0 -1 0 0 0 -1 forward_v I I I I #
coedge $-1 $429 $316 $319 $430 forward $201 $-1 #
coedge $-1 $322 $203 $204 $310 reversed $126 $-1 #
coedge $-1 $316 $429 $203 $308 reversed $201 $-1 #
edge $-1 $323 -12.265215202292088 $431 12.265215202292088 $307 $432 forward 7 unknown #
coedge $-1 $205 $204 $429 $433 forward $81 $-1 #
edge $-1 $314 -49.995422223578601 $431 49.995422223578601 $306 $434 forward 7 unknown #
coedge $-1 $319 $318 $205 $312 reversed $303 $-1 #
edge $-1 $435 -49.995422223578601 $313 49.995422223578601 $311 $436 forward 7 unknown #
vertex $-1 $207 $437 #
vertex $-1 $325 $438 #
straight-curve $-1 49.995422223578601 0 -12.265215202292088 0 -1 0 I I #
coedge $-1 $305 $307 $208 $317 reversed $201 $-1 #
edge $-1 $320 -31.046536206035189 $323 31.046536206035189 $316 $439 forward 7 unknown #
coedge $-1 $311 $209 $214 $326 forward $303 $-1 #
coedge $-1 $209 $311 $305 $430 reversed $303 $-1 #
vertex $-1 $210 $440 #
straight-curve $-1 0 31.046536206035189 12.265215202292088 -1 0 0 I I #
coedge $-1 $211 $306 $213 $325 reversed $126 $-1 #
vertex $-1 $317 $441 #
straight-curve $-1 0 -31.046536206035189 12.265215202292088 1 0 0 I I #
edge $-1 $216 -12.265215202292088 $314 12.265215202292088 $213 $442 forward 7 unknown #
edge $-1 $217 -12.265215202292088 $313 12.265215202292088 $214 $443 forward 7 unknown #
point $-1 49.995422223578601 -31.046536206035189 12.265215202292088 #
point $-1 49.995422223578601 31.046536206035189 12.265215202292088 #
face $-1 $-1 $444 $31 $-1 $445 reversed single #
loop $-1 $-1 $446 $219 #
plane-surface $-1 0 0 -12.265215202292088 0 0 1 1 0 0 forward_v I I I I #
coedge $-1 $339 $349 $334 $447 forward $220 $-1 #
coedge $-1 $225 $222 $446 $448 reversed $134 $-1 #
coedge $-1 $222 $225 $332 $447 reversed $134 $-1 #
coedge $-1 $449 $450 $222 $336 forward $444 $-1 #
edge $-1 $451 -12.265215202292088 $452 12.265215202292088 $335 $453 forward 7 unknown #
coedge $-1 $446 $228 $223 $338 forward $330 $-1 #
edge $-1 $233 -20.809527184350532 $342 -17.547362491581115 $337 $454 forward 7 unknown #
coedge $-1 $230 $332 $224 $340 forward $220 $-1 #
edge $-1 $341 17.547362491581115 $232 20.809527184350532 $339 $455 forward 7 unknown #
vertex $-1 $340 $456 #
vertex $-1 $338 $457 #
straight-curve $-1 -36.725807329546939 -19.176591304634741 0 0 0 -1 I I #
coedge $-1 $450 $449 $227 $345 forward $444 $-1 #
edge $-1 $350 -12.265215202292088 $347 12.265215202292088 $344 $458 forward 7 unknown #
coedge $-1 $228 $446 $450 $459 forward $330 $-1 #
vertex $-1 $229 $460 #
straight-curve $-1 -39.987972022316356 -12.555781877667481 -12.265215202292088 0 1 0 I I #
coedge $-1 $332 $230 $449 $461 forward $220 $-1 #
vertex $-1 $461 $462 #
straight-curve $-1 -39.987972022316356 -12.555781877667481 12.265215202292088 0 -1 0 I I #
point $-1 -39.987972022316356 -19.176591304634741 12.265215202292088 #
point $-1 -39.987972022316356 -19.176591304634741 -12.265215202292088 #
plane-surface $-1 0 0 12.265215202292088 0 0 1 1 0 0 forward_v I I I I #
coedge $-1 $365 $364 $357 $463 forward $236 $-1 #
coedge $-1 $357 $238 $240 $361 reversed $142 $-1 #
coedge $-1 $238 $356 $355 $463 reversed $142 $-1 #
coedge $-1 $246 $241 $238 $359 forward $247 $-1 #
edge $-1 $362 13.337484439620866 $464 17.607108379207396 $358 $465 forward 7 unknown #
coedge $-1 $240 $239 $365 $466 reversed $89 $-1 #
edge $-1 $467 -99.990844447157201 $362 -93.206344739789429 $356 $468 forward 7 unknown #
vertex $-1 $242 $469 #
straight-curve $-1 45.725798283992056 5.6515256310442528 12.265215202292097 0 -1 0 I I #
coedge $-1 $355 $243 $246 $369 reversed $236 $-1 #
coedge $-1 $243 $355 $360 $466 forward $236 $-1 #
vertex $-1 $244 $470 #
straight-curve $-1 49.995422223578601 18.722239389556574 73.813213338682033 0 0 1 I I #
straight-curve $-1 -12.930854083490757 18.722239389556574 84.700150370294708 0.62932038083071107 0 -0.77714596973225614 I I #
edge $-1 $464 3.8838631346204373 $248 18.722239389556574 $364 $471 forward 7 unknown #
point $-1 49.995422223578601 18.722239389556574 12.265215202292088 #
point $-1 45.72579828399207 18.722239389556574 12.265215202292083 #
edge $-1 $472 1 $472 0 $251 $-1 forward 7 unknown #
vertex $-1 $252 $473 #
ellipse-curve $-1 46.090383822868233 11.303051262088506 8.1954408398224157 0.77714596973225614 0 0.62932038083071107 0.9439805712460666 0 -1.1657189545983841 1 I I #
point $-1 48.804590825031411 11.303051262088506 8.463222945578444 #
plane-surface $-1 0 0 12.265215202292088 0 0 1 1 0 0 forward_v I I I I #
coedge $-1 $387 $386 $379 $474 forward $256 $-1 #
coedge $-1 $379 $258 $260 $383 reversed $157 $-1 #
coedge $-1 $258 $378 $377 $474 reversed $157 $-1 #
coedge $-1 $266 $261 $258 $381 forward $267 $-1 #
edge $-1 $384 -17.525386149024655 $475 -14.930408826927476 $380 $476 forward 7 unknown #
coedge $-1 $260 $259 $387 $477 reversed $98 $-1 #
edge $-1 $478 2.4157584020108747e-014 $384 4.3119185618931528 $378 $479 forward 7 unknown #
vertex $-1 $262 $480 #
straight-curve $-1 -47.400444901481414 -4.1873875669460148 12.265215202292088 0 1 0 I I #
coedge $-1 $377 $263 $266 $391 reversed $256 $-1 #
coedge $-1 $263 $377 $382 $477 forward $256 $-1 #
vertex $-1 $264 $481 #
straight-curve $-1 -49.995422223578601 -12.704558276990785 34.498777580788143 0 0 1 I I #
straight-curve $-1 -49.995422223578615 -12.704558276990785 8.8215638868712034 -0.60181501223851219 0 -0.79863551827123203 I I #
edge $-1 $475 4.0449919907932745 $268 12.704558276990785 $386 $482 forward 7 unknown #
point $-1 -49.995422223578601 -12.704558276990785 12.265215202292088 #
point $-1 -47.400444901481421 -12.704558276990785 12.265215202292088 #
edge $-1 $483 1 $483 0 $271 $-1 forward 7 unknown #
vertex $-1 $272 $484 #
ellipse-curve $-1 -45.976693992857314 -10.230396480934353 8.492788503857204 -0.79863551827123203 0 0.60181501223851219 0.60181501223851219 0 0.79863551827123203 1 I I #
point $-1 -48.096118550291486 -10.230396480934353 11.342025062852873 #
edge $-1 $485 1 $485 0 $275 $-1 forward 7 unknown #
vertex $-1 $276 $486 #
ellipse-curve $-1 -45.976693992857314 -6.5191537868497029 8.492788503857204 -0.79863551827123203 0 0.60181501223851219 0.60181501223851219 0 0.79863551827123203 1 I I #
point $-1 -48.096118550291486 -6.5191537868497029 11.342025062852873 #
loop $-1 $-1 $287 $279 #
plane-surface $-1 -49.995422223578601 0 0 1 0 0 0 0 -1 forward_v I I I I #
coedge $-1 $405 $282 $284 $409 reversed $179 $-1 #
coedge $-1 $282 $404 $487 $488 reversed $179 $-1 #
coedge $-1 $290 $285 $282 $407 forward $280 $-1 #
edge $-1 $410 -17.525386149024655 $489 -14.930408826927476 $406 $490 forward 7 unknown #
coedge $-1 $284 $283 $413 $491 reversed $112 $-1 #
edge $-1 $492 2.4157584020108747e-014 $410 4.3119185618931528 $404 $493 forward 7 unknown #
vertex $-1 $286 $494 #
straight-curve $-1 -47.400444901481414 8.3683943107214649 12.265215202292088 0 1 0 I I #
coedge $-1 $487 $287 $290 $417 reversed $402 $-1 #
coedge $-1 $287 $487 $408 $491 forward $402 $-1 #
vertex $-1 $288 $495 #
straight-curve $-1 -49.995422223578601 12.407005478344175 34.498777580788143 0 0 1 I I #
straight-curve $-1 -49.995422223578615 12.407005478344175 8.8215638868712034 -0.60181501223851219 0 -0.79863551827123203 I I #
edge $-1 $489 -21.066571764541685 $291 -12.407005478344175 $412 $496 forward 7 unknown #
point $-1 -49.995422223578601 12.407005478344175 12.265215202292088 #
point $-1 -47.400444901481421 12.407005478344175 12.265215202292088 #
edge $-1 $497 1 $497 0 $294 $-1 forward 7 unknown #
vertex $-1 $295 $498 #
ellipse-curve $-1 -45.976693992857314 14.881167274400607 8.492788503857204 -0.79863551827123203 0 0.60181501223851219 0.60181501223851219 0 0.79863551827123203 1 I I #
point $-1 -48.096118550291486 14.881167274400607 11.342025062852873 #
edge $-1 $499 1 $499 0 $298 $-1 forward 7 unknown #
vertex $-1 $299 $500 #
ellipse-curve $-1 -45.976693992857314 18.592409968485253 8.492788503857204 -0.79863551827123203 0 0.60181501223851219 0.60181501223851219 0 0.79863551827123203 1 I I #
point $-1 -48.096118550291486 18.592409968485253 11.342025062852873 #
plane-surface $-1 49.995422223578601 0 0 -1 0 0 0 0 1 forward_v I I I I #
coedge $-1 $307 $305 $309 $433 reversed $201 $-1 #
edge $-1 $320 -12.265215202292088 $435 12.265215202292088 $319 $501 forward 7 unknown #
vertex $-1 $433 $502 #
straight-curve $-1 -49.995422223578601 -31.046536206035189 0 0 0 -1 I I #
edge $-1 $431 -31.046536206035189 $435 31.046536206035189 $429 $503 forward 7 unknown #
straight-curve $-1 0 -31.046536206035189 -12.265215202292088 -1 0 0 I I #
vertex $-1 $312 $504 #
straight-curve $-1 0 31.046536206035189 -12.265215202292088 1 0 0 I I #
point $-1 49.995422223578601 31.046536206035189 -12.265215202292088 #
point $-1 49.995422223578601 -31.046536206035189 -12.265215202292088 #
straight-curve $-1 -49.995422223578601 0 12.265215202292088 0 -1 0 I I #
point $-1 -49.995422223578601 31.046536206035189 12.265215202292088 #
point $-1 -49.995422223578601 -31.046536206035189 12.265215202292088 #
straight-curve $-1 49.995422223578601 -31.046536206035189 0 0 0 -1 I I #
straight-curve $-1 49.995422223578601 31.046536206035189 0 0 0 -1 I I #
loop $-1 $-1 $335 $329 #
plane-surface $-1 0 -31.046536206035189 0 0 1 0 0 0 1 forward_v I I I I #
coedge $-1 $346 $337 $333 $448 forward $330 $-1 #
edge $-1 $452 -18.490754328367704 $341 -6.6208094269672593 $332 $505 forward 7 unknown #
edge $-1 $342 6.6208094269672593 $451 18.490754328367704 $446 $506 forward 7 unknown #
coedge $-1 $344 $335 $349 $461 reversed $444 $-1 #
coedge $-1 $335 $344 $346 $459 reversed $444 $-1 #
vertex $-1 $459 $507 #
vertex $-1 $336 $508 #
straight-curve $-1 -36.725807329546939 -31.046536206035189 0 0 0 1 I I #
straight-curve $-1 -19.178444837965824 -19.176591304634741 -12.265215202292088 1 0 0 I I #
straight-curve $-1 -19.178444837965824 -19.176591304634741 12.265215202292088 -1 0 0 I I #
point $-1 -36.725807329546939 -19.176591304634741 12.265215202292088 #
point $-1 -36.725807329546939 -19.176591304634741 -12.265215202292088 #
straight-curve $-1 -39.987972022316356 -31.046536206035189 0 0 0 -1 I I #
edge $-1 $451 36.725807329546939 $347 39.987972022316356 $450 $509 forward 7 unknown #
point $-1 -39.987972022316356 -31.046536206035185 -12.265215202292088 #
edge $-1 $350 -39.987972022316356 $452 -36.725807329546939 $449 $510 forward 7 unknown #
point $-1 -39.987972022316356 -31.046536206035185 12.265215202292088 #
edge $-1 $464 61.547998136389943 $467 66.820544740620491 $355 $511 forward 7 unknown #
vertex $-1 $369 $512 #
straight-curve $-1 32.388313844371204 3.8838631346204373 12.265215202292083 1 0 0 I I #
edge $-1 $467 -1.7676624964238155 $366 13.070713758512321 $365 $513 forward 7 unknown #
vertex $-1 $466 $514 #
straight-curve $-1 -12.930854083490757 3.8838631346204373 84.700150370294708 -0.62932038083071107 0 0.77714596973225614 I I #
point $-1 45.72579828399207 3.8838631346204373 12.265215202292083 #
point $-1 49.995422223578601 18.722239389556574 6.9926685980615417 #
straight-curve $-1 49.995422223578601 0 12.265215202292088 0 1 0 I I #
vertex $-1 $372 $515 #
point $-1 47.034364394114299 11.303051262088506 7.0297218852240322 #
edge $-1 $475 22.233562378496053 $478 25.677213693916919 $377 $516 forward 7 unknown #
vertex $-1 $391 $517 #
straight-curve $-1 -64.925831050506076 -4.0449919907932745 12.26521520229209 -1 0 0 I I #
edge $-1 $478 -0.14239557615274023 $388 8.5171707100447698 $387 $518 forward 7 unknown #
vertex $-1 $477 $519 #
straight-curve $-1 -49.995422223578615 -4.0449919907932745 8.8215638868712034 0.60181501223851219 0 0.79863551827123203 I I #
point $-1 -47.400444901481421 -4.0449919907932745 12.265215202292088 #
point $-1 -49.995422223578601 -12.704558276990785 8.8215638868712229 #
straight-curve $-1 -49.995422223578601 0 12.265215202292088 0 -1 0 I I #
vertex $-1 $394 $520 #
point $-1 -45.374878980618803 -10.230396480934353 9.291424022128437 #
vertex $-1 $398 $521 #
point $-1 -45.374878980618803 -6.5191537868497029 9.291424022128437 #
coedge $-1 $413 $412 $405 $488 forward $402 $-1 #
edge $-1 $489 22.233562378496053 $492 25.677213693916919 $487 $522 forward 7 unknown #
vertex $-1 $417 $523 #
straight-curve $-1 -64.925831050506076 21.066571764541685 12.26521520229209 -1 0 0 I I #
edge $-1 $492 -12.69817745382022 $414 -4.0386111676227099 $413 $524 forward 7 unknown #
vertex $-1 $491 $525 #
straight-curve $-1 -49.995422223578615 21.066571764541685 8.8215638868712034 0.60181501223851219 0 0.79863551827123203 I I #
point $-1 -47.400444901481421 21.066571764541685 12.265215202292088 #
point $-1 -49.995422223578601 12.407005478344175 8.8215638868712229 #
straight-curve $-1 -49.995422223578601 0 12.265215202292088 0 -1 0 I I #
vertex $-1 $420 $526 #
point $-1 -45.374878980618803 14.881167274400607 9.291424022128437 #
vertex $-1 $424 $527 #
point $-1 -45.374878980618803 18.592409968485253 9.291424022128437 #
straight-curve $-1 -49.995422223578601 31.046536206035189 0 0 0 -1 I I #
point $-1 -49.995422223578601 -31.046536206035189 -12.265215202292088 #
straight-curve $-1 -49.995422223578601 0 -12.265215202292088 0 1 0 I I #
point $-1 -49.995422223578601 31.046536206035189 -12.265215202292088 #
straight-curve $-1 -36.725807329546939 -12.555781877667481 12.265215202292088 0 1 0 I I #
straight-curve $-1 -36.725807329546939 -12.555781877667481 -12.265215202292088 0 -1 0 I I #
point $-1 -36.725807329546939 -31.046536206035185 -12.265215202292088 #
point $-1 -36.725807329546939 -31.046536206035185 12.265215202292088 #
straight-curve $-1 0 -31.046536206035189 -12.265215202292088 -1 0 0 I I #
straight-curve $-1 0 -31.046536206035189 12.265215202292088 1 0 0 I I #
straight-curve $-1 49.995422223578601 3.8838631346204373 73.813213338682033 0 0 -1 I I #
point $-1 49.995422223578601 3.8838631346204373 12.265215202292088 #
straight-curve $-1 49.995422223578601 5.6515256310442528 6.9926685980615488 0 1 0 I I #
point $-1 49.995422223578601 3.8838631346204373 6.9926685980615417 #
point $-1 44.924664868269844 11.303051262088506 7.2514602685763494 #
straight-curve $-1 -49.995422223578601 -4.0449919907932745 34.498777580788143 0 0 -1 I I #
point $-1 -49.995422223578601 -4.0449919907932745 12.265215202292088 #
straight-curve $-1 -49.995422223578601 -4.1873875669460148 8.8215638868712265 0 -1 0 I I #
point $-1 -49.995422223578601 -4.0449919907932745 8.8215638868712229 #
point $-1 -45.178058474586088 -10.230396480934353 7.8909734916186922 #
point $-1 -45.178058474586088 -6.5191537868497029 7.8909734916186922 #
straight-curve $-1 -49.995422223578601 21.066571764541685 34.498777580788143 0 0 -1 I I #
point $-1 -49.995422223578601 21.066571764541685 12.265215202292088 #
straight-curve $-1 -49.995422223578601 8.3683943107214649 8.8215638868712265 0 -1 0 I I #
point $-1 -49.995422223578601 21.066571764541685 8.8215638868712229 #
point $-1 -45.178058474586088 14.881167274400607 7.8909734916186922 #
point $-1 -45.178058474586088 18.592409968485253 7.8909734916186922 #
End-of-ACIS-data 