500 0 8 0           
7 Unknown 11 ACIS 5.0 NT 24 Fri Mar 26 15:51:15 1999 
-1 9.9999999999999995e-007 1e-010 
body $-1 $8 $-1 $9 #
body $-1 $10 $-1 $11 #
body $-1 $12 $-1 $13 #
body $-1 $14 $-1 $15 #
body $-1 $16 $-1 $17 #
body $-1 $18 $-1 $19 #
body $-1 $20 $-1 $21 #
body $-1 $22 $-1 $23 #
lump $-1 $-1 $24 $0 #
transform $-1 1 0 0 0 1 0 0 0 1 64.798120059816284 35.226945148641541 15.30937427900632 1 rotate no_reflect no_shear #
lump $-1 $-1 $25 $1 #
transform $-1 1 0 0 0 1 0 0 0 1 64.798120059816284 35.226945148641541 15.30937427900632 1 rotate no_reflect no_shear #
lump $-1 $-1 $26 $2 #
transform $-1 1 0 0 0 1 0 0 0 1 64.798120059816284 35.226945148641541 15.30937427900632 1 rotate no_reflect no_shear #
lump $-1 $-1 $27 $3 #
transform $-1 1 0 0 0 1 0 0 0 1 64.798120059816284 35.226945148641541 15.30937427900632 1 rotate no_reflect no_shear #
lump $-1 $-1 $28 $4 #
transform $-1 1 0 0 0 1 0 0 0 1 64.798120059816284 35.226945148641541 15.30937427900632 1 rotate no_reflect no_shear #
lump $-1 $-1 $29 $5 #
transform $-1 1 0 0 0 1 0 0 0 1 64.798120059816284 35.226945148641541 15.30937427900632 1 rotate no_reflect no_shear #
lump $-1 $-1 $30 $6 #
transform $-1 1 0 0 0 1 0 0 0 1 64.798120059816284 35.226945148641541 15.30937427900632 1 rotate no_reflect no_shear #
lump $-1 $-1 $31 $7 #
transform $-1 1 0 0 0 1 0 0 0 1 64.798120059816284 35.226945148641541 15.30937427900632 1 rotate no_reflect no_shear #
shell $-1 $-1 $-1 $32 $-1 $8 #
shell $-1 $-1 $-1 $33 $-1 $10 #
shell $-1 $-1 $-1 $34 $-1 $12 #
shell $-1 $-1 $-1 $35 $-1 $14 #
shell $-1 $-1 $-1 $36 $-1 $16 #
shell $-1 $-1 $-1 $37 $-1 $18 #
shell $-1 $-1 $-1 $38 $-1 $20 #
shell $-1 $-1 $-1 $39 $-1 $22 #
face $-1 $40 $41 $24 $-1 $42 forward single #
face $-1 $43 $44 $25 $-1 $45 forward single #
face $-1 $46 $47 $26 $-1 $48 reversed single #
face $-1 $49 $50 $27 $-1 $51 forward single #
face $-1 $52 $53 $28 $-1 $54 forward single #
face $-1 $55 $56 $29 $-1 $57 reversed single #
face $-1 $58 $59 $30 $-1 $60 forward single #
face $-1 $61 $62 $31 $-1 $63 forward single #
face $-1 $64 $65 $24 $-1 $66 reversed single #
loop $-1 $-1 $67 $32 #
plane-surface $-1 0 0 15.30937427900632 0 0 1 1 0 0 forward_v I I I I #
face $-1 $68 $69 $25 $-1 $70 reversed single #
loop $-1 $-1 $71 $33 #
plane-surface $-1 0 -27.695290863195531 -1.263648182501349 0 0 1 1 0 0 forward_v I I I I #
face $-1 $72 $73 $26 $-1 $74 reversed single #
loop $-1 $-1 $75 $34 #
plane-surface $-1 67.996742746397871 -13.331412177231298 183.91264428958175 0 1 0 0.71933980857756763 0 0.69465836192734942 forward_v I I I I #
face $-1 $76 $77 $27 $-1 $78 forward single #
loop $-1 $79 $80 $35 #
cone-surface $-1 57.244389768305147 -11.373926052614905 7.520934733739983 -0.71933980857756763 0 -0.69465836192734942 0.34732918096367471 0 -0.35966990428878381 1 I I 0 1 0.5 forward I I I I #
face $-1 $81 $82 $28 $-1 $83 forward single #
loop $-1 $84 $85 $36 #
cone-surface $-1 57.244389768305147 -8.4376968656903131 7.520934733739983 -0.71933980857756763 0 -0.69465836192734942 0.34732918096367471 0 -0.35966990428878381 1 I I 0 1 0.5 forward I I I I #
face $-1 $86 $87 $29 $-1 $88 reversed single #
loop $-1 $-1 $89 $37 #
plane-surface $-1 -149.82090454746731 23.151887772731882 106.91962313563006 0 1 0 -0.6560590369687036 0 0.75470957328743171 forward_v I I I I #
face $-1 $90 $91 $30 $-1 $92 forward single #
loop $-1 $93 $94 $38 #
cone-surface $-1 -60.623337111640545 26.601904165848921 11.5087722736536 0.6560590369687036 0 -0.75470957328743171 1.1320643599311475 0 0.9840885554530554 1 I I 0 1 1.5 forward I I I I #
face $-1 $95 $96 $31 $-1 $97 forward single #
loop $-1 $98 $99 $39 #
cone-surface $-1 -60.623337111640545 31.776928755524487 11.5087722736536 0.6560590369687036 0 -0.75470957328743171 1.1320643599311475 0 0.9840885554530554 1 I I 0 1 1.5 forward I I I I #
face $-1 $100 $101 $24 $-1 $102 reversed single #
loop $-1 $-1 $103 $40 #
plane-surface $-1 0 0 -15.30937427900632 0 0 1 1 0 0 forward_v I I I I #
coedge $-1 $104 $105 $106 $107 forward $41 $-1 #
face $-1 $108 $109 $25 $-1 $110 reversed single #
loop $-1 $-1 $111 $43 #
plane-surface $-1 0 -27.695290863195531 -6.2958802028103626 0 0 1 1 0 0 forward_v I I I I #
coedge $-1 $112 $113 $114 $115 reversed $44 $-1 #
face $-1 $116 $117 $26 $-1 $118 reversed single #
loop $-1 $-1 $119 $46 #
plane-surface $-1 -25.226991813631116 -9.9058114591526092 93.887532416134349 0.71933980857756763 0 0.69465836192734942 0.69465836192734942 0 -0.71933980857756763 forward_v I I I I #
coedge $-1 $120 $121 $122 $123 reversed $47 $-1 #
face $-1 $-1 $124 $27 $-1 $125 forward single #
loop $-1 $126 $127 $49 #
cone-surface $-1 56.582358732892402 -11.373926052614905 6.8816188094423012 -0.71933980857756763 0 -0.69465836192734942 0.17366459048183736 0 -0.17983495214439191 1 I I -0.70710678118654746 0.70710678118654746 0.25 forward I I I I #
loop $-1 $-1 $128 $35 #
coedge $-1 $80 $80 $129 $130 reversed $50 $-1 #
face $-1 $-1 $131 $28 $-1 $132 forward single #
loop $-1 $133 $134 $52 #
cone-surface $-1 56.582358732892402 -8.4376968656903131 6.8816188094423012 -0.71933980857756763 0 -0.69465836192734942 0.17366459048183736 0 -0.17983495214439191 1 I I -0.70710678118654746 0.70710678118654746 0.25 forward I I I I #
loop $-1 $-1 $135 $36 #
coedge $-1 $85 $85 $136 $137 reversed $53 $-1 #
face $-1 $138 $139 $29 $-1 $140 forward single #
loop $-1 $-1 $141 $55 #
plane-surface $-1 -64.798120059816299 29.189416460686708 9.112100055286632 -0.6560590369687036 0 0.75470957328743171 0.75470957328743171 0 0.6560590369687036 forward_v I I I I #
coedge $-1 $142 $143 $144 $145 reversed $56 $-1 #
face $-1 $-1 $146 $30 $-1 $147 forward single #
loop $-1 $148 $149 $58 #
cone-surface $-1 -59.521084048559999 26.601904165848921 10.240775200195152 0.6560590369687036 0 -0.75470957328743171 0.56603217996557376 0 0.4920442777265277 1 I I -0.70710678118654757 0.70710678118654757 0.75 forward I I I I #
loop $-1 $-1 $150 $38 #
coedge $-1 $94 $94 $151 $152 reversed $59 $-1 #
face $-1 $-1 $153 $31 $-1 $154 forward single #
loop $-1 $155 $156 $61 #
cone-surface $-1 -59.521084048559999 31.776928755524487 10.240775200195152 0.6560590369687036 0 -0.75470957328743171 0.56603217996557376 0 0.4920442777265277 1 I I -0.70710678118654757 0.70710678118654757 0.75 forward I I I I #
loop $-1 $-1 $157 $39 #
coedge $-1 $99 $99 $158 $159 reversed $62 $-1 #
face $-1 $160 $161 $24 $-1 $162 reversed single #
loop $-1 $-1 $163 $64 #
plane-surface $-1 0 -35.226945148641541 0 0 1 0 0 0 1 forward_v I I I I #
coedge $-1 $164 $165 $166 $167 forward $65 $-1 #
coedge $-1 $168 $67 $169 $170 forward $41 $-1 #
coedge $-1 $67 $168 $171 $172 forward $41 $-1 #
coedge $-1 $173 $174 $67 $107 reversed $175 $-1 #
edge $-1 $176 -35.226945148641541 $177 35.226945148641541 $106 $178 forward 7 unknown #
face $-1 $179 $180 $25 $-1 $181 reversed single #
loop $-1 $-1 $182 $68 #
plane-surface $-1 0 -20.163636577749521 -3.7797641926558558 0 -1 0 0 0 -1 forward_v I I I I #
coedge $-1 $183 $184 $185 $186 reversed $69 $-1 #
coedge $-1 $187 $71 $188 $189 forward $44 $-1 #
coedge $-1 $71 $187 $190 $191 reversed $44 $-1 #
coedge $-1 $192 $193 $71 $115 forward $194 $-1 #
edge $-1 $195 6.3159911461517559 $196 21.379299717043775 $114 $197 forward 7 unknown #
face $-1 $198 $199 $26 $-1 $200 forward single #
loop $-1 $-1 $201 $72 #
plane-surface $-1 67.996742746397871 -6.48021074107392 183.91264428958175 0 -1 0 -0.71933980857756763 0 -0.69465836192734942 forward_v I I I I #
coedge $-1 $202 $203 $204 $205 reversed $73 $-1 #
coedge $-1 $121 $75 $206 $207 reversed $47 $-1 #
coedge $-1 $75 $120 $202 $208 reversed $47 $-1 #
coedge $-1 $204 $209 $75 $123 forward $210 $-1 #
edge $-1 $211 76.646947865784554 $212 91.292524288685513 $122 $213 forward 7 unknown #
loop $-1 $-1 $129 $76 #
plane-surface $-1 -25.226991813631116 -9.9058114591526092 93.887532416134349 0.71933980857756763 0 0.69465836192734942 0.69465836192734942 0 -0.71933980857756763 forward_v I I I I #
loop $-1 $-1 $214 $49 #
coedge $-1 $127 $127 $128 $215 reversed $77 $-1 #
coedge $-1 $128 $128 $127 $215 forward $79 $-1 #
coedge $-1 $129 $129 $80 $130 forward $124 $-1 #
edge $-1 $216 0 $216 6.2831853071796004 $129 $217 forward 7 unknown #
loop $-1 $-1 $136 $81 #
plane-surface $-1 -25.226991813631116 -9.9058114591526092 93.887532416134349 0.71933980857756763 0 0.69465836192734942 0.69465836192734942 0 -0.71933980857756763 forward_v I I I I #
loop $-1 $-1 $218 $52 #
coedge $-1 $134 $134 $135 $219 reversed $82 $-1 #
coedge $-1 $135 $135 $134 $219 forward $84 $-1 #
coedge $-1 $136 $136 $85 $137 forward $131 $-1 #
edge $-1 $220 0 $220 6.2831853071796004 $136 $221 forward 7 unknown #
face $-1 $222 $223 $29 $-1 $224 reversed single #
loop $-1 $-1 $144 $86 #
plane-surface $-1 0 0 15.30937427900632 0 0 1 1 0 0 forward_v I I I I #
coedge $-1 $225 $226 $227 $228 reversed $87 $-1 #
coedge $-1 $143 $89 $229 $230 reversed $56 $-1 #
coedge $-1 $89 $142 $225 $231 reversed $56 $-1 #
coedge $-1 $227 $232 $89 $145 forward $139 $-1 #
edge $-1 $233 10.112332213917369 $234 17.241480539560804 $144 $235 forward 7 unknown #
loop $-1 $-1 $151 $90 #
plane-surface $-1 -64.798120059816299 29.189416460686708 9.112100055286632 -0.6560590369687036 0 0.75470957328743171 0.75470957328743171 0 0.6560590369687036 forward_v I I I I #
loop $-1 $-1 $236 $58 #
coedge $-1 $149 $149 $150 $237 reversed $91 $-1 #
coedge $-1 $150 $150 $149 $237 forward $93 $-1 #
coedge $-1 $151 $151 $94 $152 forward $146 $-1 #
edge $-1 $238 0 $238 6.2831853071796004 $151 $239 forward 7 unknown #
loop $-1 $-1 $158 $95 #
plane-surface $-1 -64.798120059816299 29.189416460686708 9.112100055286632 -0.6560590369687036 0 0.75470957328743171 0.75470957328743171 0 0.6560590369687036 forward_v I I I I #
loop $-1 $-1 $240 $61 #
coedge $-1 $156 $156 $157 $241 reversed $96 $-1 #
coedge $-1 $157 $157 $156 $241 forward $98 $-1 #
coedge $-1 $158 $158 $99 $159 forward $153 $-1 #
edge $-1 $242 0 $242 6.2831853071796004 $158 $243 forward 7 unknown #
face $-1 $244 $245 $24 $-1 $246 reversed single #
loop $-1 $-1 $247 $100 #
plane-surface $-1 -64.798120059816284 0 0 1 0 0 0 0 -1 forward_v I I I I #
coedge $-1 $248 $171 $249 $250 forward $101 $-1 #
coedge $-1 $251 $103 $248 $252 forward $65 $-1 #
coedge $-1 $103 $251 $253 $254 forward $65 $-1 #
coedge $-1 $174 $173 $103 $167 reversed $175 $-1 #
edge $-1 $255 -35.226945148641541 $256 35.226945148641541 $166 $257 forward 7 unknown #
coedge $-1 $105 $104 $258 $259 forward $41 $-1 #
coedge $-1 $260 $261 $104 $170 reversed $245 $-1 #
edge $-1 $177 -64.798120059816284 $262 64.798120059816284 $169 $263 forward 7 unknown #
coedge $-1 $163 $264 $105 $172 reversed $101 $-1 #
edge $-1 $265 -64.798120059816284 $176 64.798120059816284 $171 $266 forward 7 unknown #
coedge $-1 $166 $106 $264 $267 forward $175 $-1 #
coedge $-1 $106 $166 $260 $268 reversed $175 $-1 #
loop $-1 $-1 $173 $244 #
vertex $-1 $107 $269 #
vertex $-1 $107 $270 #
straight-curve $-1 64.798120059816284 0 15.30937427900632 0 1 0 I I #
face $-1 $271 $272 $25 $-1 $273 reversed single #
loop $-1 $-1 $274 $108 #
plane-surface $-1 -64.798120059816284 0 0 1 0 0 0 0 -1 forward_v I I I I #
coedge $-1 $275 $188 $193 $276 reversed $109 $-1 #
coedge $-1 $277 $111 $278 $279 reversed $69 $-1 #
coedge $-1 $111 $277 $275 $280 forward $69 $-1 #
coedge $-1 $193 $192 $111 $186 forward $194 $-1 #
edge $-1 $281 -21.379299717043775 $282 -6.3159911461517559 $185 $283 forward 7 unknown #
coedge $-1 $113 $112 $274 $284 reversed $44 $-1 #
coedge $-1 $182 $285 $112 $189 reversed $109 $-1 #
edge $-1 $195 -64.798120059816284 $286 64.798120059816284 $188 $287 forward 7 unknown #
coedge $-1 $288 $289 $113 $191 forward $272 $-1 #
edge $-1 $196 -64.798120059816284 $290 64.798120059816284 $190 $291 forward 7 unknown #
coedge $-1 $185 $114 $289 $292 forward $194 $-1 #
coedge $-1 $114 $185 $182 $276 forward $194 $-1 #
loop $-1 $-1 $114 $271 #
vertex $-1 $115 $293 #
vertex $-1 $292 $294 #
straight-curve $-1 64.798120059816284 -13.847645431597766 -1.263648182501349 0 -1 0 I I #
face $-1 $-1 $210 $26 $-1 $295 reversed single #
loop $-1 $-1 $296 $116 #
plane-surface $-1 0 0 15.30937427900632 0 0 1 1 0 0 forward_v I I I I #
coedge $-1 $297 $298 $299 $300 reversed $117 $-1 #
coedge $-1 $301 $119 $121 $208 forward $73 $-1 #
coedge $-1 $119 $301 $297 $302 forward $73 $-1 #
coedge $-1 $299 $122 $119 $205 forward $210 $-1 #
edge $-1 $212 -8.3785064476549937 $303 -1.5273050114976154 $204 $304 forward 7 unknown #
coedge $-1 $305 $306 $120 $207 forward $199 $-1 #
edge $-1 $307 16.656680270131758 $211 30.799748686617349 $206 $308 forward 7 unknown #
edge $-1 $212 -129.59624011963257 $307 -109.23649324025254 $121 $309 forward 7 unknown #
coedge $-1 $122 $299 $305 $310 reversed $210 $-1 #
loop $-1 $-1 $299 $198 #
vertex $-1 $310 $311 #
vertex $-1 $123 $312 #
straight-curve $-1 64.798120059816284 -13.331412177231298 91.956322144790875 0 0 -1 I I #
coedge $-1 $214 $214 $-1 $313 reversed $126 $-1 #
edge $-1 $314 0 $314 6.2831853071796004 $127 $315 forward 7 unknown #
vertex $-1 $130 $316 #
ellipse-curve $-1 57.726585851573503 -11.373926052614905 7.9865860675558284 0.71933980857756763 0 0.69465836192734942 0.34732918096367471 0 -0.35966990428878381 1 I I #
coedge $-1 $218 $218 $-1 $317 reversed $133 $-1 #
edge $-1 $318 0 $318 6.2831853071796004 $134 $319 forward 7 unknown #
vertex $-1 $137 $320 #
ellipse-curve $-1 57.726585851573503 -8.4376968656903131 7.9865860675558284 0.71933980857756763 0 0.69465836192734942 0.34732918096367471 0 -0.35966990428878381 1 I I #
face $-1 $-1 $321 $29 $-1 $322 reversed single #
loop $-1 $-1 $323 $138 #
plane-surface $-1 0 35.226945148641541 0 0 -1 0 0 0 -1 forward_v I I I I #
coedge $-1 $324 $141 $143 $231 forward $87 $-1 #
coedge $-1 $141 $324 $323 $325 reversed $87 $-1 #
coedge $-1 $326 $144 $141 $228 forward $139 $-1 #
edge $-1 $234 8.5571795423885284 $327 20.63223691829818 $227 $328 forward 7 unknown #
coedge $-1 $329 $330 $142 $230 forward $321 $-1 #
edge $-1 $331 -44.347711512528385 $233 -38.15043728880871 $229 $332 forward 7 unknown #
edge $-1 $234 -9.4462142497936838 $331 -1.888283279974768e-014 $143 $333 forward 7 unknown #
coedge $-1 $144 $326 $329 $334 forward $139 $-1 #
vertex $-1 $230 $335 #
vertex $-1 $145 $336 #
straight-curve $-1 -74.910452273733654 23.151887772731882 15.30937427900632 1 0 0 I I #
coedge $-1 $236 $236 $-1 $337 reversed $148 $-1 #
edge $-1 $338 0 $338 6.2831853071796004 $149 $339 forward 7 unknown #
vertex $-1 $152 $340 #
ellipse-curve $-1 -61.233545896994571 26.601904165848921 12.21073716714648 -0.6560590369687036 0 0.75470957328743171 1.1320643599311475 0 0.9840885554530554 1 I I #
coedge $-1 $240 $240 $-1 $341 reversed $155 $-1 #
edge $-1 $342 0 $342 6.2831853071796004 $156 $343 forward 7 unknown #
vertex $-1 $159 $344 #
ellipse-curve $-1 -61.233545896994571 31.776928755524487 12.21073716714648 -0.6560590369687036 0 0.75470957328743171 1.1320643599311475 0 0.9840885554530554 1 I I #
face $-1 $-1 $175 $24 $-1 $345 reversed single #
loop $-1 $-1 $260 $160 #
plane-surface $-1 0 35.226945148641541 0 0 -1 0 0 0 -1 forward_v I I I I #
coedge $-1 $346 $258 $261 $347 forward $161 $-1 #
coedge $-1 $264 $163 $164 $252 reversed $101 $-1 #
coedge $-1 $258 $346 $163 $250 reversed $161 $-1 #
edge $-1 $265 -15.30937427900632 $348 15.30937427900632 $249 $349 forward 7 unknown #
coedge $-1 $165 $164 $346 $350 forward $65 $-1 #
edge $-1 $256 -64.798120059816284 $348 64.798120059816284 $248 $351 forward 7 unknown #
coedge $-1 $261 $260 $165 $254 reversed $245 $-1 #
edge $-1 $352 -64.798120059816284 $255 64.798120059816284 $253 $353 forward 7 unknown #
vertex $-1 $167 $354 #
vertex $-1 $267 $355 #
straight-curve $-1 64.798120059816284 0 -15.30937427900632 0 -1 0 I I #
coedge $-1 $247 $249 $168 $259 reversed $161 $-1 #
edge $-1 $262 -35.226945148641541 $265 35.226945148641541 $258 $356 forward 7 unknown #
coedge $-1 $253 $169 $174 $268 forward $245 $-1 #
coedge $-1 $169 $253 $247 $347 reversed $245 $-1 #
vertex $-1 $170 $357 #
straight-curve $-1 0 35.226945148641541 15.30937427900632 -1 0 0 I I #
coedge $-1 $171 $248 $173 $267 reversed $101 $-1 #
vertex $-1 $259 $358 #
straight-curve $-1 0 -35.226945148641541 15.30937427900632 1 0 0 I I #
edge $-1 $176 -15.30937427900632 $256 15.30937427900632 $173 $359 forward 7 unknown #
edge $-1 $177 -15.30937427900632 $255 15.30937427900632 $174 $360 forward 7 unknown #
point $-1 64.798120059816284 -35.226945148641541 15.30937427900632 #
point $-1 64.798120059816284 35.226945148641541 15.30937427900632 #
face $-1 $-1 $194 $25 $-1 $361 reversed single #
loop $-1 $-1 $190 $179 #
plane-surface $-1 0 -35.226945148641541 0 0 1 0 0 0 1 forward_v I I I I #
coedge $-1 $362 $363 $187 $284 forward $180 $-1 #
coedge $-1 $285 $182 $184 $280 reversed $109 $-1 #
edge $-1 $282 -4.4059981064824347 $195 0.62623391382657889 $193 $364 forward 7 unknown #
coedge $-1 $184 $183 $365 $366 reversed $69 $-1 #
coedge $-1 $289 $288 $183 $279 forward $272 $-1 #
edge $-1 $367 -64.798120059816284 $281 64.798120059816284 $278 $368 forward 7 unknown #
edge $-1 $369 -64.798120059816284 $282 64.798120059816284 $275 $370 forward 7 unknown #
vertex $-1 $279 $371 #
vertex $-1 $186 $372 #
straight-curve $-1 64.798120059816284 -13.847645431597766 -6.2958802028103626 0 1 0 I I #
edge $-1 $290 -21.379299717043775 $286 -6.3159911461517559 $274 $373 forward 7 unknown #
coedge $-1 $188 $275 $362 $374 reversed $109 $-1 #
vertex $-1 $284 $375 #
straight-curve $-1 0 -20.163636577749521 -1.263648182501349 -1 0 0 I I #
coedge $-1 $278 $190 $363 $376 forward $272 $-1 #
coedge $-1 $190 $278 $192 $292 reversed $272 $-1 #
vertex $-1 $376 $377 #
straight-curve $-1 0 -35.226945148641541 -1.263648182501349 -1 0 0 I I #
edge $-1 $196 1.263648182501349 $281 6.2958802028103626 $192 $378 forward 7 unknown #
point $-1 64.798120059816284 -20.163636577749521 -1.263648182501349 #
point $-1 64.798120059816284 -35.226945148641541 -1.263648182501349 #
plane-surface $-1 64.798120059816284 0 0 -1 0 0 0 0 1 forward_v I I I I #
coedge $-1 $306 $305 $298 $379 forward $199 $-1 #
coedge $-1 $298 $201 $203 $302 reversed $117 $-1 #
coedge $-1 $201 $297 $296 $379 reversed $117 $-1 #
coedge $-1 $209 $204 $201 $300 forward $210 $-1 #
edge $-1 $303 -91.292524288685513 $380 -76.646947865784554 $299 $381 forward 7 unknown #
coedge $-1 $203 $202 $306 $382 reversed $73 $-1 #
edge $-1 $383 109.23649324025254 $303 129.59624011963257 $297 $384 forward 7 unknown #
vertex $-1 $205 $385 #
straight-curve $-1 64.798120059816284 -4.9529057295763046 0.66379785610536146 0 1 0 I I #
coedge $-1 $296 $206 $209 $310 forward $199 $-1 #
coedge $-1 $206 $296 $301 $382 forward $199 $-1 #
vertex $-1 $207 $386 #
straight-curve $-1 33.998371373198935 -13.331412177231298 15.30937427900632 1 0 0 I I #
straight-curve $-1 -25.226991813631116 -13.331412177231298 93.887532416134349 -0.69465836192734942 0 0.71933980857756763 I I #
edge $-1 $211 -13.331412177231298 $380 -6.48021074107392 $209 $387 forward 7 unknown #
point $-1 64.798120059816284 -13.331412177231298 15.30937427900632 #
point $-1 64.798120059816284 -13.331412177231298 0.66379785610536146 #
edge $-1 $388 1 $388 0 $214 $-1 forward 7 unknown #
vertex $-1 $215 $389 #
ellipse-curve $-1 56.762193685036792 -11.373926052614905 7.0552833999241384 0.71933980857756763 0 0.69465836192734942 0.34732918096367471 0 -0.35966990428878381 1 I I #
point $-1 58.073915032537172 -11.373926052614905 7.6269161632670421 #
edge $-1 $390 1 $390 0 $218 $-1 forward 7 unknown #
vertex $-1 $219 $391 #
ellipse-curve $-1 56.762193685036792 -8.4376968656903131 7.0552833999241384 0.71933980857756763 0 0.69465836192734942 0.34732918096367471 0 -0.35966990428878381 1 I I #
point $-1 58.073915032537172 -8.4376968656903131 7.6269161632670421 #
loop $-1 $-1 $229 $222 #
plane-surface $-1 -64.798120059816284 0 0 1 0 0 0 0 -1 forward_v I I I I #
coedge $-1 $392 $393 $226 $325 forward $223 $-1 #
coedge $-1 $226 $225 $330 $394 reversed $87 $-1 #
edge $-1 $327 12.01662872677527 $395 21.462842976568936 $323 $396 forward 7 unknown #
coedge $-1 $232 $227 $393 $397 forward $139 $-1 #
vertex $-1 $397 $398 #
straight-curve $-1 -57.668971734172857 14.594708230343354 15.309374279006324 0 1 0 I I #
coedge $-1 $399 $229 $232 $334 reversed $321 $-1 #
coedge $-1 $229 $399 $324 $394 forward $321 $-1 #
vertex $-1 $230 $400 #
straight-curve $-1 -64.798120059816284 23.151887772731882 53.459811567815031 0 0 1 I I #
straight-curve $-1 -64.798120059816299 23.151887772731882 9.112100055286632 -0.75470957328743171 0 -0.6560590369687036 I I #
edge $-1 $401 -35.226945148641541 $233 -23.151887772731882 $329 $402 forward 7 unknown #
point $-1 -64.798120059816284 23.151887772731882 15.30937427900632 #
point $-1 -57.66897173417285 23.151887772731882 15.30937427900632 #
edge $-1 $403 1 $403 0 $236 $-1 forward 7 unknown #
vertex $-1 $237 $404 #
ellipse-curve $-1 -60.013128326286527 26.601904165848921 10.806807380160725 -0.6560590369687036 0 0.75470957328743171 1.1320643599311475 0 0.9840885554530554 1 I I #
point $-1 -60.101481537063421 26.601904165848921 13.194825722599532 #
edge $-1 $405 1 $405 0 $240 $-1 forward 7 unknown #
vertex $-1 $241 $406 #
ellipse-curve $-1 -60.013128326286527 31.776928755524487 10.806807380160725 -0.6560590369687036 0 0.75470957328743171 1.1320643599311475 0 0.9840885554530554 1 I I #
point $-1 -60.101481537063421 31.776928755524487 13.194825722599532 #
plane-surface $-1 64.798120059816284 0 0 -1 0 0 0 0 1 forward_v I I I I #
coedge $-1 $249 $247 $251 $350 reversed $161 $-1 #
edge $-1 $262 -15.30937427900632 $352 15.30937427900632 $261 $407 forward 7 unknown #
vertex $-1 $350 $408 #
straight-curve $-1 -64.798120059816284 -35.226945148641541 0 0 0 -1 I I #
edge $-1 $348 -35.226945148641541 $352 35.226945148641541 $346 $409 forward 7 unknown #
straight-curve $-1 0 -35.226945148641541 -15.30937427900632 -1 0 0 I I #
vertex $-1 $254 $410 #
straight-curve $-1 0 35.226945148641541 -15.30937427900632 1 0 0 I I #
point $-1 64.798120059816284 35.226945148641541 -15.30937427900632 #
point $-1 64.798120059816284 -35.226945148641541 -15.30937427900632 #
straight-curve $-1 -64.798120059816284 0 15.30937427900632 0 -1 0 I I #
point $-1 -64.798120059816284 35.226945148641541 15.30937427900632 #
point $-1 -64.798120059816284 -35.226945148641541 15.30937427900632 #
straight-curve $-1 64.798120059816284 -35.226945148641541 0 0 0 -1 I I #
straight-curve $-1 64.798120059816284 35.226945148641541 0 0 0 -1 I I #
plane-surface $-1 64.798120059816284 0 0 -1 0 0 0 0 1 forward_v I I I I #
coedge $-1 $365 $274 $285 $374 forward $180 $-1 #
coedge $-1 $274 $365 $288 $376 reversed $180 $-1 #
straight-curve $-1 64.798120059816284 -20.163636577749521 -1.8898820963279279 0 0 1 I I #
coedge $-1 $363 $362 $277 $366 forward $180 $-1 #
edge $-1 $369 6.3159911461517559 $367 21.379299717043775 $365 $411 forward 7 unknown #
vertex $-1 $279 $412 #
straight-curve $-1 0 -35.226945148641541 -6.2958802028103626 1 0 0 I I #
vertex $-1 $366 $413 #
straight-curve $-1 0 -20.163636577749521 -6.2958802028103626 1 0 0 I I #
point $-1 64.798120059816284 -35.226945148641541 -6.2958802028103626 #
point $-1 64.798120059816284 -20.163636577749521 -6.2958802028103626 #
straight-curve $-1 -64.798120059816284 -13.847645431597766 -1.263648182501349 0 1 0 I I #
edge $-1 $286 -0.62623391382657889 $369 4.4059981064824347 $362 $414 forward 7 unknown #
point $-1 -64.798120059816284 -20.163636577749521 -1.263648182501349 #
edge $-1 $290 1.263648182501349 $367 6.2958802028103626 $363 $415 forward 7 unknown #
point $-1 -64.798120059816284 -35.226945148641541 -1.263648182501349 #
straight-curve $-1 64.798120059816284 -35.226945148641541 0 0 0 -1 I I #
edge $-1 $380 -30.799748686617349 $383 -16.656680270131758 $296 $416 forward 7 unknown #
vertex $-1 $379 $417 #
straight-curve $-1 64.798120059816284 -6.48021074107392 91.956322144790875 0 0 1 I I #
edge $-1 $383 1.5273050114976154 $307 8.3785064476549937 $306 $418 forward 7 unknown #
vertex $-1 $382 $419 #
straight-curve $-1 -25.226991813631116 -6.48021074107392 93.887532416134349 0.69465836192734942 0 -0.71933980857756763 I I #
point $-1 64.798120059816284 -6.48021074107392 0.66379785610536146 #
point $-1 50.655051643330694 -13.331412177231298 15.30937427900632 #
straight-curve $-1 64.798120059816284 0 15.30937427900632 0 1 0 I I #
vertex $-1 $313 $420 #
point $-1 57.109522866000468 -11.373926052614905 6.6956134956353548 #
vertex $-1 $317 $421 #
point $-1 57.109522866000468 -8.4376968656903131 6.6956134956353548 #
coedge $-1 $393 $323 $399 $422 reversed $223 $-1 #
coedge $-1 $323 $392 $326 $397 reversed $223 $-1 #
edge $-1 $395 -20.63223691829818 $331 -8.5571795423885284 $330 $423 forward 7 unknown #
vertex $-1 $325 $424 #
straight-curve $-1 -48.599906995434793 35.226945148641541 23.192992149104963 -0.75470957328743171 0 -0.6560590369687036 I I #
edge $-1 $327 57.66897173417285 $401 64.798120059816284 $393 $425 forward 7 unknown #
point $-1 -57.66897173417285 35.226945148641533 15.30937427900632 #
coedge $-1 $330 $329 $392 $422 forward $321 $-1 #
point $-1 -64.798120059816284 23.151887772731882 9.1121000552866445 #
vertex $-1 $397 $426 #
straight-curve $-1 -64.798120059816284 0 15.30937427900632 0 -1 0 I I #
vertex $-1 $337 $427 #
point $-1 -58.881063966355377 26.601904165848921 11.790895935613781 #
vertex $-1 $341 $428 #
point $-1 -58.881063966355377 31.776928755524487 11.790895935613781 #
straight-curve $-1 -64.798120059816284 35.226945148641541 0 0 0 -1 I I #
point $-1 -64.798120059816284 -35.226945148641541 -15.30937427900632 #
straight-curve $-1 -64.798120059816284 0 -15.30937427900632 0 1 0 I I #
point $-1 -64.798120059816284 35.226945148641541 -15.30937427900632 #
straight-curve $-1 -64.798120059816284 -13.847645431597766 -6.2958802028103626 0 -1 0 I I #
point $-1 -64.798120059816284 -35.226945148641541 -6.2958802028103626 #
point $-1 -64.798120059816284 -20.163636577749521 -6.2958802028103626 #
straight-curve $-1 -64.798120059816284 -20.163636577749521 -1.8898820963279279 0 0 -1 I I #
straight-curve $-1 -64.798120059816284 -35.226945148641541 0 0 0 -1 I I #
straight-curve $-1 33.998371373198935 -6.48021074107392 15.30937427900632 -1 0 0 I I #
point $-1 64.798120059816284 -6.48021074107392 15.30937427900632 #
straight-curve $-1 50.655051643330694 -4.9529057295763046 15.309374279006327 0 -1 0 I I #
point $-1 50.655051643330694 -6.48021074107392 15.30937427900632 #
point $-1 56.402523780748012 -11.373926052614905 6.707954218960464 #
point $-1 56.402523780748012 -8.4376968656903131 6.707954218960464 #
edge $-1 $401 -15.30937427900632 $395 -9.1121000552866445 $392 $429 forward 7 unknown #
straight-curve $-1 -64.798120059816284 14.594708230343354 9.1121000552866374 0 -1 0 I I #
point $-1 -64.798120059816284 35.226945148641533 9.1121000552866445 #
straight-curve $-1 0 35.226945148641541 15.30937427900632 -1 0 0 I I #
point $-1 -64.798120059816284 35.226945148641541 15.30937427900632 #
point $-1 -59.029039770833471 26.601904165848921 9.6747430202295792 #
point $-1 -59.029039770833471 31.776928755524487 9.6747430202295792 #
straight-curve $-1 -64.798120059816284 35.226945148641541 0 0 0 -1 I I #
End-of-ACIS-data 