500 0 9 0           
7 Unknown 11 ACIS 5.0 NT 24 Fri Mar 26 17:15:07 1999 
-1 9.9999999999999995e-007 1e-010 
body $-1 $9 $-1 $10 #
body $-1 $11 $-1 $12 #
body $-1 $13 $-1 $14 #
body $-1 $15 $-1 $16 #
body $-1 $17 $-1 $18 #
body $-1 $19 $-1 $20 #
body $-1 $21 $-1 $22 #
body $-1 $23 $-1 $24 #
body $-1 $25 $-1 $26 #
lump $-1 $-1 $27 $0 #
transform $-1 1 0 0 0 1 0 0 0 1 79.041718802453687 34.328281383887393 14.662671608405139 1 rotate no_reflect no_shear #
lump $-1 $-1 $28 $1 #
transform $-1 1 0 0 0 1 0 0 0 1 79.041718802453687 34.328281383887393 14.662671608405139 1 rotate no_reflect no_shear #
lump $-1 $-1 $29 $2 #
transform $-1 1 0 0 0 1 0 0 0 1 79.041718802453687 34.328281383887393 14.662671608405139 1 rotate no_reflect no_shear #
lump $-1 $-1 $30 $3 #
transform $-1 1 0 0 0 1 0 0 0 1 79.041718802453687 34.328281383887393 14.662671608405139 1 rotate no_reflect no_shear #
lump $-1 $-1 $31 $4 #
transform $-1 1 0 0 0 1 0 0 0 1 79.041718802453687 34.328281383887393 14.662671608405139 1 rotate no_reflect no_shear #
lump $-1 $-1 $32 $5 #
transform $-1 1 0 0 0 1 0 0 0 1 79.041718802453687 34.328281383887393 14.662671608405139 1 rotate no_reflect no_shear #
lump $-1 $-1 $33 $6 #
transform $-1 1 0 0 0 1 0 0 0 1 79.041718802453687 34.328281383887393 14.662671608405139 1 rotate no_reflect no_shear #
lump $-1 $-1 $34 $7 #
transform $-1 1 0 0 0 1 0 0 0 1 79.041718802453687 34.328281383887393 14.662671608405139 1 rotate no_reflect no_shear #
lump $-1 $-1 $35 $8 #
transform $-1 1 0 0 0 1 0 0 0 1 79.041718802453687 34.328281383887393 14.662671608405139 1 rotate no_reflect no_shear #
shell $-1 $-1 $-1 $36 $-1 $9 #
shell $-1 $-1 $-1 $37 $-1 $11 #
shell $-1 $-1 $-1 $38 $-1 $13 #
shell $-1 $-1 $-1 $39 $-1 $15 #
shell $-1 $-1 $-1 $40 $-1 $17 #
shell $-1 $-1 $-1 $41 $-1 $19 #
shell $-1 $-1 $-1 $42 $-1 $21 #
shell $-1 $-1 $-1 $43 $-1 $23 #
shell $-1 $-1 $-1 $44 $-1 $25 #
face $-1 $45 $46 $27 $-1 $47 forward single #
face $-1 $48 $49 $28 $-1 $50 forward single #
face $-1 $51 $52 $29 $-1 $53 reversed single #
face $-1 $54 $55 $30 $-1 $56 forward single #
face $-1 $57 $58 $31 $-1 $59 reversed single #
face $-1 $60 $61 $32 $-1 $62 forward single #
face $-1 $63 $64 $33 $-1 $65 reversed single #
face $-1 $66 $67 $34 $-1 $68 forward single #
face $-1 $69 $70 $35 $-1 $71 forward single #
face $-1 $72 $73 $27 $-1 $74 reversed single #
loop $-1 $-1 $75 $36 #
plane-surface $-1 0 0 14.662671608405139 0 0 1 1 0 0 forward_v I I I I #
face $-1 $76 $77 $28 $-1 $78 reversed single #
loop $-1 $-1 $79 $37 #
plane-surface $-1 -74.153420269676758 0 8.8014640757441285 0 0 1 1 0 0 forward_v I I I I #
face $-1 $80 $81 $29 $-1 $82 reversed single #
loop $-1 $-1 $83 $38 #
plane-surface $-1 -35.032402138422327 86.224584029815986 175.1308817421733 1 0 0 0 -0.6560590369687036 -0.75470957328743171 forward_v I I I I #
face $-1 $84 $85 $30 $-1 $86 forward single #
loop $-1 $87 $88 $39 #
cone-surface $-1 -26.280954293796114 31.569020830355239 12.11606335532035 0 -0.6560590369687036 -0.75470957328743171 1 0 0 1 I I 0 1 1 forward I I I I #
face $-1 $89 $90 $31 $-1 $91 reversed single #
loop $-1 $-1 $92 $40 #
plane-surface $-1 27.306103514723763 86.224584029815986 175.1308817421733 1 0 0 0 -0.6560590369687036 -0.75470957328743171 forward_v I I I I #
face $-1 $93 $94 $32 $-1 $95 forward single #
loop $-1 $96 $97 $41 #
cone-surface $-1 36.057551359349972 31.569020830355239 12.11606335532035 0 -0.6560590369687036 -0.75470957328743171 1 0 0 1 I I 0 1 1 forward I I I I #
face $-1 $98 $99 $33 $-1 $100 reversed single #
loop $-1 $-1 $101 $42 #
plane-surface $-1 60.417933527350527 -34.328281383887401 2.5210334483575991 0 -0.86602541151947299 0.49999998660252726 1 0 0 forward_v I I I I #
face $-1 $102 $103 $34 $-1 $104 forward single #
loop $-1 $105 $106 $43 #
cone-surface $-1 52.436311266592043 -27.768562078408202 6.8282031722751224 0 0.86602541151947299 -0.49999998660252726 2 0 0 1 I I 0 1 2 forward I I I I #
face $-1 $107 $108 $35 $-1 $109 forward single #
loop $-1 $110 $111 $44 #
cone-surface $-1 68.399555788109041 -27.768562078408202 6.8282031722751224 0 0.86602541151947299 -0.49999998660252726 2 0 0 1 I I 0 1 2 forward I I I I #
face $-1 $112 $113 $27 $-1 $114 reversed single #
loop $-1 $-1 $115 $45 #
plane-surface $-1 0 0 -14.662671608405139 0 0 1 1 0 0 forward_v I I I I #
coedge $-1 $116 $117 $118 $119 forward $46 $-1 #
face $-1 $120 $121 $28 $-1 $122 reversed single #
loop $-1 $-1 $123 $48 #
plane-surface $-1 -74.153420269676758 0 1.6174843847239622 0 0 1 1 0 0 forward_v I I I I #
coedge $-1 $124 $125 $126 $127 forward $49 $-1 #
face $-1 $128 $129 $29 $-1 $130 reversed single #
loop $-1 $-1 $131 $51 #
plane-surface $-1 -26.280954293796114 -17.487483805961688 55.823798003563326 0 0.6560590369687036 0.75470957328743171 1 0 0 forward_v I I I I #
coedge $-1 $132 $133 $134 $135 reversed $52 $-1 #
face $-1 $-1 $136 $30 $-1 $137 forward single #
loop $-1 $138 $139 $54 #
cone-surface $-1 -26.280954293796114 30.7143841534239 11.132916343516582 0 -0.6560590369687036 -0.75470957328743171 0.5 0 0 1 I I -0.70710678118654746 0.70710678118654746 0.5 forward I I I I #
loop $-1 $-1 $140 $39 #
coedge $-1 $88 $88 $141 $142 reversed $55 $-1 #
face $-1 $143 $144 $31 $-1 $145 reversed single #
loop $-1 $-1 $146 $57 #
plane-surface $-1 36.057551359349972 -17.487483805961688 55.823798003563326 0 0.6560590369687036 0.75470957328743171 1 0 0 forward_v I I I I #
coedge $-1 $147 $148 $149 $150 reversed $58 $-1 #
face $-1 $-1 $151 $32 $-1 $152 forward single #
loop $-1 $153 $154 $60 #
cone-surface $-1 36.057551359349972 30.7143841534239 11.132916343516582 0 -0.6560590369687036 -0.75470957328743171 0.5 0 0 1 I I -0.70710678118654746 0.70710678118654746 0.5 forward I I I I #
loop $-1 $-1 $155 $41 #
coedge $-1 $97 $97 $156 $157 reversed $61 $-1 #
face $-1 $158 $159 $33 $-1 $160 reversed single #
loop $-1 $-1 $161 $63 #
plane-surface $-1 41.794148252247382 -171.23255549009025 81.562750132892745 1 0 0 0 0.86602541151947299 -0.49999998660252726 forward_v I I I I #
coedge $-1 $162 $163 $164 $165 reversed $64 $-1 #
face $-1 $-1 $166 $34 $-1 $167 forward single #
loop $-1 $168 $169 $66 #
cone-surface $-1 52.436311266592043 -23.847806266241456 4.5645538295663446 0 0.86602541151947299 -0.49999998660252726 1 0 0 1 I I -0.70710678118654746 0.70710678118654746 1 forward I I I I #
loop $-1 $-1 $170 $43 #
coedge $-1 $106 $106 $171 $172 reversed $67 $-1 #
face $-1 $-1 $173 $35 $-1 $174 forward single #
loop $-1 $175 $176 $69 #
cone-surface $-1 68.399555788109041 -23.847806266241456 4.5645538295663446 0 0.86602541151947299 -0.49999998660252726 1 0 0 1 I I -0.70710678118654746 0.70710678118654746 1 forward I I I I #
loop $-1 $-1 $177 $44 #
coedge $-1 $111 $111 $178 $179 reversed $70 $-1 #
face $-1 $180 $181 $27 $-1 $182 reversed single #
loop $-1 $-1 $183 $72 #
plane-surface $-1 0 -34.328281383887393 0 0 1 0 0 0 1 forward_v I I I I #
coedge $-1 $184 $185 $186 $187 forward $73 $-1 #
coedge $-1 $188 $75 $189 $190 forward $46 $-1 #
coedge $-1 $75 $188 $191 $192 forward $46 $-1 #
coedge $-1 $193 $194 $75 $119 reversed $195 $-1 #
edge $-1 $196 -34.328281383887393 $197 34.328281383887393 $118 $198 forward 7 unknown #
face $-1 $199 $200 $28 $-1 $201 reversed single #
loop $-1 $-1 $202 $76 #
plane-surface $-1 -69.265121736899829 0 5.2094742302340453 -1 0 0 0 0 1 forward_v I I I I #
coedge $-1 $203 $204 $205 $206 forward $77 $-1 #
coedge $-1 $207 $79 $208 $209 reversed $49 $-1 #
coedge $-1 $79 $207 $210 $211 reversed $49 $-1 #
coedge $-1 $202 $212 $79 $127 reversed $121 $-1 #
edge $-1 $213 -34.328281383887393 $214 34.328281383887393 $126 $215 forward 7 unknown #
face $-1 $216 $217 $29 $-1 $218 forward single #
loop $-1 $-1 $219 $80 #
plane-surface $-1 -17.529506449169904 86.224584029815986 175.1308817421733 -1 0 0 0 0.6560590369687036 0.75470957328743171 forward_v I I I I #
coedge $-1 $220 $221 $222 $223 reversed $81 $-1 #
coedge $-1 $133 $83 $224 $225 reversed $52 $-1 #
coedge $-1 $83 $132 $220 $226 reversed $52 $-1 #
coedge $-1 $222 $227 $83 $135 forward $217 $-1 #
edge $-1 $228 8.7840106310205996 $229 13.249317421190973 $134 $230 forward 7 unknown #
loop $-1 $-1 $141 $84 #
plane-surface $-1 -26.280954293796114 -17.487483805961688 55.823798003563326 0 0.6560590369687036 0.75470957328743171 1 0 0 forward_v I I I I #
loop $-1 $-1 $231 $54 #
coedge $-1 $139 $139 $140 $232 reversed $85 $-1 #
coedge $-1 $140 $140 $139 $232 forward $87 $-1 #
coedge $-1 $141 $141 $88 $142 forward $136 $-1 #
edge $-1 $233 -2.7952306525079933e-015 $233 6.2831853071795978 $141 $234 forward 7 unknown #
face $-1 $235 $236 $31 $-1 $237 forward single #
loop $-1 $-1 $238 $89 #
plane-surface $-1 44.808999203976185 86.224584029815986 175.1308817421733 -1 0 0 0 0.6560590369687036 0.75470957328743171 forward_v I I I I #
coedge $-1 $239 $240 $241 $242 reversed $90 $-1 #
coedge $-1 $148 $92 $243 $244 reversed $58 $-1 #
coedge $-1 $92 $147 $239 $245 reversed $58 $-1 #
coedge $-1 $241 $246 $92 $150 forward $236 $-1 #
edge $-1 $247 8.7840106310205996 $248 13.249317421190973 $149 $249 forward 7 unknown #
loop $-1 $-1 $156 $93 #
plane-surface $-1 36.057551359349972 -17.487483805961688 55.823798003563326 0 0.6560590369687036 0.75470957328743171 1 0 0 forward_v I I I I #
loop $-1 $-1 $250 $60 #
coedge $-1 $154 $154 $155 $251 reversed $94 $-1 #
coedge $-1 $155 $155 $154 $251 forward $96 $-1 #
coedge $-1 $156 $156 $97 $157 forward $151 $-1 #
edge $-1 $252 -2.7952306525079933e-015 $252 6.2831853071795978 $156 $253 forward 7 unknown #
face $-1 $254 $255 $33 $-1 $256 forward single #
loop $-1 $-1 $257 $98 #
plane-surface $-1 0 -34.328281383887393 0 0 1 0 0 0 1 forward_v I I I I #
coedge $-1 $258 $259 $260 $261 reversed $99 $-1 #
coedge $-1 $262 $101 $263 $264 reversed $64 $-1 #
coedge $-1 $101 $262 $258 $265 forward $64 $-1 #
coedge $-1 $260 $266 $101 $165 forward $255 $-1 #
edge $-1 $267 -48.832752038778409 $268 -11.585181488572118 $164 $269 forward 7 unknown #
loop $-1 $-1 $171 $102 #
plane-surface $-1 60.417933527350527 -34.328281383887401 2.5210334483575991 0 -0.86602541151947299 0.49999998660252726 1 0 0 forward_v I I I I #
loop $-1 $-1 $270 $66 #
coedge $-1 $169 $169 $170 $271 reversed $103 $-1 #
coedge $-1 $170 $170 $169 $271 forward $105 $-1 #
coedge $-1 $171 $171 $106 $172 forward $166 $-1 #
edge $-1 $272 0 $272 6.2831853071796004 $171 $273 forward 7 unknown #
loop $-1 $-1 $178 $107 #
plane-surface $-1 60.417933527350527 -34.328281383887401 2.5210334483575991 0 -0.86602541151947299 0.49999998660252726 1 0 0 forward_v I I I I #
loop $-1 $-1 $274 $69 #
coedge $-1 $176 $176 $177 $275 reversed $108 $-1 #
coedge $-1 $177 $177 $176 $275 forward $110 $-1 #
coedge $-1 $178 $178 $111 $179 forward $173 $-1 #
edge $-1 $276 0 $276 6.2831853071796004 $178 $277 forward 7 unknown #
face $-1 $278 $279 $27 $-1 $280 reversed single #
loop $-1 $-1 $281 $112 #
plane-surface $-1 -79.041718802453687 0 0 1 0 0 0 0 -1 forward_v I I I I #
coedge $-1 $282 $191 $283 $284 forward $113 $-1 #
coedge $-1 $285 $115 $282 $286 forward $73 $-1 #
coedge $-1 $115 $285 $287 $288 forward $73 $-1 #
coedge $-1 $194 $193 $115 $187 reversed $195 $-1 #
edge $-1 $289 -34.328281383887393 $290 34.328281383887393 $186 $291 forward 7 unknown #
coedge $-1 $117 $116 $292 $293 forward $46 $-1 #
coedge $-1 $294 $295 $116 $190 reversed $279 $-1 #
edge $-1 $197 -79.041718802453687 $296 79.041718802453687 $189 $297 forward 7 unknown #
coedge $-1 $183 $298 $117 $192 reversed $113 $-1 #
edge $-1 $299 -79.041718802453687 $196 79.041718802453687 $191 $300 forward 7 unknown #
coedge $-1 $186 $118 $298 $301 forward $195 $-1 #
coedge $-1 $118 $186 $294 $302 reversed $195 $-1 #
loop $-1 $-1 $193 $278 #
vertex $-1 $119 $303 #
vertex $-1 $119 $304 #
straight-curve $-1 79.041718802453687 0 14.662671608405139 0 1 0 I I #
face $-1 $305 $306 $28 $-1 $307 reversed single #
loop $-1 $-1 $308 $120 #
plane-surface $-1 0 -34.328281383887393 0 0 1 0 0 0 1 forward_v I I I I #
coedge $-1 $205 $126 $309 $310 reversed $121 $-1 #
coedge $-1 $311 $123 $308 $312 reversed $77 $-1 #
coedge $-1 $123 $311 $313 $314 reversed $77 $-1 #
coedge $-1 $212 $202 $123 $206 reversed $121 $-1 #
edge $-1 $315 -34.328281383887393 $316 34.328281383887393 $205 $317 forward 7 unknown #
coedge $-1 $125 $124 $318 $319 reversed $49 $-1 #
coedge $-1 $320 $321 $124 $209 forward $322 $-1 #
edge $-1 $323 -41.965008667615308 $214 -32.18841160206145 $208 $324 forward 7 unknown #
coedge $-1 $325 $309 $125 $211 forward $200 $-1 #
edge $-1 $213 32.18841160206145 $326 41.965008667615308 $210 $327 forward 7 unknown #
coedge $-1 $126 $205 $320 $328 reversed $121 $-1 #
vertex $-1 $211 $329 #
vertex $-1 $209 $330 #
straight-curve $-1 -69.265121736899829 0 8.8014640757441285 0 1 0 I I #
face $-1 $-1 $331 $29 $-1 $332 reversed single #
loop $-1 $-1 $134 $128 #
plane-surface $-1 0 0 14.662671608405139 0 0 1 1 0 0 forward_v I I I I #
coedge $-1 $333 $334 $335 $336 reversed $129 $-1 #
coedge $-1 $337 $131 $133 $226 forward $81 $-1 #
coedge $-1 $131 $337 $333 $338 forward $81 $-1 #
coedge $-1 $335 $134 $131 $223 forward $217 $-1 #
edge $-1 $229 -21.89192499152427 $339 -4.3890293022718474 $222 $340 forward 7 unknown #
coedge $-1 $341 $342 $132 $225 forward $331 $-1 #
edge $-1 $343 -76.784401318530996 $228 -72.902769262681517 $224 $344 forward 7 unknown #
edge $-1 $229 62.739973197140372 $343 68.656562767774787 $133 $345 forward 7 unknown #
coedge $-1 $134 $335 $341 $346 forward $217 $-1 #
vertex $-1 $225 $347 #
vertex $-1 $135 $348 #
straight-curve $-1 -35.032402138422327 43.112292014907993 14.662671608405134 0 -1 0 I I #
coedge $-1 $231 $231 $-1 $349 reversed $138 $-1 #
edge $-1 $350 0 $350 6.2831853071796004 $139 $351 forward 7 unknown #
vertex $-1 $142 $352 #
ellipse-curve $-1 -26.280954293796114 32.095627988802214 12.721855580480389 0 0.6560590369687036 0.75470957328743171 1 0 0 1 I I #
face $-1 $-1 $353 $31 $-1 $354 reversed single #
loop $-1 $-1 $149 $143 #
plane-surface $-1 0 0 14.662671608405139 0 0 1 1 0 0 forward_v I I I I #
coedge $-1 $355 $356 $357 $358 reversed $144 $-1 #
coedge $-1 $359 $146 $148 $245 forward $90 $-1 #
coedge $-1 $146 $359 $355 $360 forward $90 $-1 #
coedge $-1 $357 $149 $146 $242 forward $236 $-1 #
edge $-1 $248 9.2773278350487764 $361 26.780223524301199 $241 $362 forward 7 unknown #
coedge $-1 $363 $364 $147 $244 forward $353 $-1 #
edge $-1 $365 -76.784401318530996 $247 -72.902769262681517 $243 $366 forward 7 unknown #
edge $-1 $248 62.739973197140372 $365 68.656562767774787 $148 $367 forward 7 unknown #
coedge $-1 $149 $357 $363 $368 forward $236 $-1 #
vertex $-1 $150 $369 #
vertex $-1 $150 $370 #
straight-curve $-1 27.306103514723763 43.112292014907993 14.662671608405134 0 -1 0 I I #
coedge $-1 $250 $250 $-1 $371 reversed $153 $-1 #
edge $-1 $372 0 $372 6.2831853071796004 $154 $373 forward 7 unknown #
vertex $-1 $157 $374 #
ellipse-curve $-1 36.057551359349972 32.095627988802214 12.721855580480389 0 0.6560590369687036 0.75470957328743171 1 0 0 1 I I #
face $-1 $-1 $375 $33 $-1 $376 reversed single #
loop $-1 $-1 $260 $158 #
plane-surface $-1 0 0 14.662671608405139 0 0 1 1 0 0 forward_v I I I I #
coedge $-1 $377 $378 $259 $379 forward $159 $-1 #
coedge $-1 $259 $161 $163 $265 reversed $99 $-1 #
coedge $-1 $161 $258 $257 $379 reversed $99 $-1 #
coedge $-1 $380 $164 $161 $261 forward $255 $-1 #
edge $-1 $268 -58.297974170821568 $381 -51.287996361157731 $260 $382 forward 7 unknown #
coedge $-1 $163 $162 $377 $383 reversed $64 $-1 #
coedge $-1 $384 $385 $162 $264 forward $375 $-1 #
edge $-1 $386 -7.4904306012316049 $267 6.5295253937600233 $263 $387 forward 7 unknown #
edge $-1 $388 1.4321304723534956e-014 $268 14.019955994991644 $258 $389 forward 7 unknown #
coedge $-1 $164 $380 $384 $390 forward $255 $-1 #
vertex $-1 $264 $391 #
vertex $-1 $165 $392 #
straight-curve $-1 30.208966763675264 -27.31830357422356 14.662671608405139 -1 0 0 I I #
coedge $-1 $270 $270 $-1 $393 reversed $168 $-1 #
edge $-1 $394 0 $394 6.2831853071796004 $169 $395 forward 7 unknown #
vertex $-1 $172 $396 #
ellipse-curve $-1 52.436311266592043 -30.823292479055475 8.5918525283813736 0 -0.86602541151947299 0.49999998660252726 2 0 0 1 I I #
coedge $-1 $274 $274 $-1 $397 reversed $175 $-1 #
edge $-1 $398 0 $398 6.2831853071796004 $176 $399 forward 7 unknown #
vertex $-1 $179 $400 #
ellipse-curve $-1 68.399555788109041 -30.823292479055475 8.5918525283813736 0 -0.86602541151947299 0.49999998660252726 2 0 0 1 I I #
face $-1 $-1 $195 $27 $-1 $401 reversed single #
loop $-1 $-1 $294 $180 #
plane-surface $-1 0 34.328281383887393 0 0 -1 0 0 0 -1 forward_v I I I I #
coedge $-1 $402 $292 $295 $403 forward $181 $-1 #
coedge $-1 $298 $183 $184 $286 reversed $113 $-1 #
coedge $-1 $292 $402 $183 $284 reversed $181 $-1 #
edge $-1 $299 -14.662671608405139 $404 14.662671608405139 $283 $405 forward 7 unknown #
coedge $-1 $185 $184 $402 $406 forward $73 $-1 #
edge $-1 $290 -79.041718802453687 $404 79.041718802453687 $282 $407 forward 7 unknown #
coedge $-1 $295 $294 $185 $288 reversed $279 $-1 #
edge $-1 $408 -79.041718802453687 $289 79.041718802453687 $287 $409 forward 7 unknown #
vertex $-1 $187 $410 #
vertex $-1 $301 $411 #
straight-curve $-1 79.041718802453687 0 -14.662671608405139 0 -1 0 I I #
coedge $-1 $281 $283 $188 $293 reversed $181 $-1 #
edge $-1 $296 -34.328281383887393 $299 34.328281383887393 $292 $412 forward 7 unknown #
coedge $-1 $287 $189 $194 $302 forward $279 $-1 #
coedge $-1 $189 $287 $281 $403 reversed $279 $-1 #
vertex $-1 $190 $413 #
straight-curve $-1 0 34.328281383887393 14.662671608405139 -1 0 0 I I #
coedge $-1 $191 $282 $193 $301 reversed $113 $-1 #
vertex $-1 $293 $414 #
straight-curve $-1 0 -34.328281383887393 14.662671608405139 1 0 0 I I #
edge $-1 $196 -14.662671608405139 $290 14.662671608405139 $193 $415 forward 7 unknown #
edge $-1 $197 -14.662671608405139 $289 14.662671608405139 $194 $416 forward 7 unknown #
point $-1 79.041718802453687 -34.328281383887393 14.662671608405139 #
point $-1 79.041718802453687 34.328281383887393 14.662671608405139 #
face $-1 $-1 $322 $28 $-1 $417 reversed single #
loop $-1 $-1 $418 $199 #
plane-surface $-1 -79.041718802453687 0 0 1 0 0 0 0 -1 forward_v I I I I #
coedge $-1 $309 $325 $203 $312 forward $200 $-1 #
coedge $-1 $210 $308 $202 $310 forward $200 $-1 #
edge $-1 $316 -0.9872527303930605 $213 6.1967269606271058 $309 $419 forward 7 unknown #
coedge $-1 $204 $203 $418 $420 reversed $77 $-1 #
edge $-1 $421 -41.965008667615308 $316 -32.18841160206145 $308 $422 forward 7 unknown #
coedge $-1 $321 $320 $204 $314 forward $322 $-1 #
edge $-1 $315 32.18841160206145 $423 41.965008667615308 $313 $424 forward 7 unknown #
vertex $-1 $314 $425 #
vertex $-1 $312 $426 #
straight-curve $-1 -69.265121736899829 0 1.6174843847239622 0 -1 0 I I #
coedge $-1 $427 $428 $207 $319 forward $306 $-1 #
edge $-1 $326 -34.328281383887393 $323 34.328281383887393 $318 $429 forward 7 unknown #
coedge $-1 $313 $208 $212 $328 forward $322 $-1 #
coedge $-1 $208 $313 $427 $430 reversed $322 $-1 #
loop $-1 $-1 $313 $305 #
vertex $-1 $430 $431 #
straight-curve $-1 -37.076710134838379 34.328281383887393 8.8014640757441285 1 0 0 I I #
coedge $-1 $308 $210 $428 $432 forward $200 $-1 #
vertex $-1 $432 $433 #
straight-curve $-1 -37.076710134838379 -34.328281383887393 8.8014640757441285 -1 0 0 I I #
edge $-1 $214 -6.1967269606271058 $315 0.9872527303930605 $320 $434 forward 7 unknown #
point $-1 -69.265121736899829 -34.328281383887393 8.8014640757441285 #
point $-1 -69.265121736899829 34.328281383887393 8.8014640757441285 #
loop $-1 $-1 $224 $216 #
plane-surface $-1 0 34.328281383887393 0 0 -1 0 0 0 -1 forward_v I I I I #
coedge $-1 $334 $219 $221 $338 reversed $129 $-1 #
coedge $-1 $219 $333 $435 $436 reversed $129 $-1 #
coedge $-1 $227 $222 $219 $336 forward $217 $-1 #
edge $-1 $339 -13.249317421190973 $437 -8.7840106310205996 $335 $438 forward 7 unknown #
coedge $-1 $221 $220 $342 $439 reversed $81 $-1 #
edge $-1 $440 -68.656562767774787 $339 -62.739973197140372 $333 $441 forward 7 unknown #
vertex $-1 $223 $442 #
straight-curve $-1 -13.140477146898057 29.862974593717013 14.662671608405148 1 0 0 I I #
coedge $-1 $435 $224 $227 $346 reversed $331 $-1 #
coedge $-1 $224 $435 $337 $439 forward $331 $-1 #
vertex $-1 $225 $443 #
straight-curve $-1 -35.032402138422327 34.328281383887393 87.565440871086651 0 0 1 I I #
straight-curve $-1 -35.032402138422327 -17.487483805961688 55.823798003563326 0 0.75470957328743171 -0.6560590369687036 I I #
edge $-1 $437 17.529506449169904 $228 35.032402138422327 $341 $444 forward 7 unknown #
point $-1 -35.032402138422327 34.328281383887393 14.662671608405139 #
point $-1 -35.032402138422327 29.86297459371702 14.662671608405141 #
edge $-1 $445 1 $445 0 $231 $-1 forward 7 unknown #
vertex $-1 $232 $446 #
ellipse-curve $-1 -26.280954293796114 31.042413671908253 11.510271130160298 0 0.6560590369687036 0.75470957328743171 1 0 0 1 I I #
point $-1 -25.280954293796114 32.095627988802221 12.721855580480401 #
loop $-1 $-1 $243 $235 #
plane-surface $-1 0 34.328281383887393 0 0 -1 0 0 0 -1 forward_v I I I I #
coedge $-1 $356 $238 $240 $360 reversed $144 $-1 #
coedge $-1 $238 $355 $447 $448 reversed $144 $-1 #
coedge $-1 $246 $241 $238 $358 forward $236 $-1 #
edge $-1 $361 -13.249317421190973 $449 -8.7840106310205996 $357 $450 forward 7 unknown #
coedge $-1 $240 $239 $364 $451 reversed $90 $-1 #
edge $-1 $452 -68.656562767774787 $361 -62.739973197140372 $355 $453 forward 7 unknown #
vertex $-1 $242 $454 #
straight-curve $-1 18.028775679674986 29.862974593717013 14.662671608405148 1 0 0 I I #
coedge $-1 $447 $243 $246 $368 reversed $353 $-1 #
coedge $-1 $243 $447 $359 $451 forward $353 $-1 #
vertex $-1 $244 $455 #
straight-curve $-1 27.306103514723763 34.328281383887393 87.565440871086651 0 0 1 I I #
straight-curve $-1 27.306103514723763 -17.487483805961688 55.823798003563326 0 0.75470957328743171 -0.6560590369687036 I I #
edge $-1 $449 -44.808999203976185 $247 -27.306103514723763 $363 $456 forward 7 unknown #
point $-1 27.306103514723763 34.328281383887393 14.662671608405139 #
point $-1 27.306103514723763 29.86297459371702 14.662671608405141 #
edge $-1 $457 1 $457 0 $250 $-1 forward 7 unknown #
vertex $-1 $251 $458 #
ellipse-curve $-1 36.057551359349972 31.042413671908253 11.510271130160298 0 0.6560590369687036 0.75470957328743171 1 0 0 1 I I #
point $-1 37.057551359349972 32.095627988802221 12.721855580480401 #
loop $-1 $-1 $263 $254 #
plane-surface $-1 79.041718802453687 0 0 -1 0 0 0 0 1 forward_v I I I I #
coedge $-1 $459 $257 $262 $383 forward $159 $-1 #
coedge $-1 $257 $459 $380 $460 reversed $159 $-1 #
edge $-1 $381 26.118703458041232 $388 38.260341618088759 $257 $461 forward 7 unknown #
coedge $-1 $266 $260 $378 $460 forward $255 $-1 #
vertex $-1 $460 $462 #
straight-curve $-1 41.794148252247382 -85.616277745045124 14.662671608405141 0 -1 0 I I #
edge $-1 $388 11.585181488572118 $386 48.832752038778409 $377 $463 forward 7 unknown #
coedge $-1 $385 $263 $266 $390 reversed $375 $-1 #
coedge $-1 $263 $384 $459 $464 forward $375 $-1 #
vertex $-1 $383 $465 #
straight-curve $-1 79.041718802453687 -30.583066183624432 9.0079366922472666 0 0.49999998660252726 0.86602541151947299 I I #
vertex $-1 $383 $466 #
straight-curve $-1 41.794148252247382 -34.328281383887401 2.5210334483575991 0 0.49999998660252726 0.86602541151947299 I I #
edge $-1 $467 -34.328281383887393 $267 -27.318303574223556 $384 $468 forward 7 unknown #
point $-1 79.041718802453673 -27.318303574223556 14.662671608405139 #
point $-1 41.794148252247382 -27.318303574223556 14.662671608405139 #
edge $-1 $469 1 $469 0 $270 $-1 forward 7 unknown #
vertex $-1 $271 $470 #
ellipse-curve $-1 52.436311266592043 -24.713831677760929 5.0645538161688721 0 -0.86602541151947299 0.49999998660252726 2 0 0 1 I I #
point $-1 54.436311266592043 -30.823292479055475 8.5918525283813736 #
edge $-1 $471 1 $471 0 $274 $-1 forward 7 unknown #
vertex $-1 $275 $472 #
ellipse-curve $-1 68.399555788109041 -24.713831677760929 5.0645538161688721 0 -0.86602541151947299 0.49999998660252726 2 0 0 1 I I #
point $-1 70.399555788109041 -30.823292479055475 8.5918525283813736 #
plane-surface $-1 79.041718802453687 0 0 -1 0 0 0 0 1 forward_v I I I I #
coedge $-1 $283 $281 $285 $406 reversed $181 $-1 #
edge $-1 $296 -14.662671608405139 $408 14.662671608405139 $295 $473 forward 7 unknown #
vertex $-1 $406 $474 #
straight-curve $-1 -79.041718802453687 -34.328281383887393 0 0 0 -1 I I #
edge $-1 $404 -34.328281383887393 $408 34.328281383887393 $402 $475 forward 7 unknown #
straight-curve $-1 0 -34.328281383887393 -14.662671608405139 -1 0 0 I I #
vertex $-1 $288 $476 #
straight-curve $-1 0 34.328281383887393 -14.662671608405139 1 0 0 I I #
point $-1 79.041718802453687 34.328281383887393 -14.662671608405139 #
point $-1 79.041718802453687 -34.328281383887393 -14.662671608405139 #
straight-curve $-1 -79.041718802453687 0 14.662671608405139 0 -1 0 I I #
point $-1 -79.041718802453687 34.328281383887393 14.662671608405139 #
point $-1 -79.041718802453687 -34.328281383887393 14.662671608405139 #
straight-curve $-1 79.041718802453687 -34.328281383887393 0 0 0 -1 I I #
straight-curve $-1 79.041718802453687 34.328281383887393 0 0 0 -1 I I #
plane-surface $-1 0 34.328281383887393 0 0 -1 0 0 0 -1 forward_v I I I I #
coedge $-1 $428 $427 $311 $420 forward $306 $-1 #
straight-curve $-1 -69.265121736899829 -34.328281383887393 2.6047371151170227 0 0 1 I I #
edge $-1 $423 -34.328281383887393 $421 34.328281383887393 $418 $477 forward 7 unknown #
vertex $-1 $312 $478 #
straight-curve $-1 -37.076710134838379 -34.328281383887393 1.6174843847239622 1 0 0 I I #
vertex $-1 $314 $479 #
straight-curve $-1 -37.076710134838379 34.328281383887393 1.6174843847239622 -1 0 0 I I #
point $-1 -69.265121736899829 34.328281383887393 1.6174843847239622 #
point $-1 -69.265121736899829 -34.328281383887393 1.6174843847239622 #
coedge $-1 $418 $318 $321 $430 forward $306 $-1 #
coedge $-1 $318 $418 $325 $432 reversed $306 $-1 #
straight-curve $-1 -79.041718802453687 0 8.8014640757441285 0 1 0 I I #
edge $-1 $323 -8.8014640757441285 $423 -1.6174843847239622 $321 $480 forward 7 unknown #
point $-1 -79.041718802453687 34.328281383887393 8.8014640757441285 #
edge $-1 $326 -8.8014640757441285 $421 -1.6174843847239622 $428 $481 forward 7 unknown #
point $-1 -79.041718802453687 -34.328281383887393 8.8014640757441285 #
straight-curve $-1 -69.265121736899829 34.328281383887393 2.6047371151170227 0 0 -1 I I #
coedge $-1 $342 $341 $334 $436 forward $331 $-1 #
edge $-1 $437 72.902769262681517 $440 76.784401318530996 $435 $482 forward 7 unknown #
vertex $-1 $346 $483 #
straight-curve $-1 -17.529506449169904 43.112292014907993 14.662671608405134 0 1 0 I I #
edge $-1 $440 4.3890293022718474 $343 21.89192499152427 $342 $484 forward 7 unknown #
vertex $-1 $439 $485 #
straight-curve $-1 -17.529506449169904 -17.487483805961688 55.823798003563326 0 -0.75470957328743171 0.6560590369687036 I I #
point $-1 -17.529506449169904 29.86297459371702 14.662671608405141 #
point $-1 -35.032402138422327 34.328281383887393 10.781039552555647 #
straight-curve $-1 0 34.328281383887393 14.662671608405139 -1 0 0 I I #
vertex $-1 $349 $486 #
point $-1 -25.280954293796114 31.042413671908253 11.510271130160298 #
coedge $-1 $364 $363 $356 $448 forward $353 $-1 #
edge $-1 $449 72.902769262681517 $452 76.784401318530996 $447 $487 forward 7 unknown #
vertex $-1 $368 $488 #
straight-curve $-1 44.808999203976185 43.112292014907993 14.662671608405134 0 1 0 I I #
edge $-1 $452 -26.780223524301199 $365 -9.2773278350487764 $364 $489 forward 7 unknown #
vertex $-1 $451 $490 #
straight-curve $-1 44.808999203976185 -17.487483805961688 55.823798003563326 0 -0.75470957328743171 0.6560590369687036 I I #
point $-1 44.808999203976185 29.86297459371702 14.662671608405141 #
point $-1 27.306103514723763 34.328281383887393 10.781039552555647 #
straight-curve $-1 0 34.328281383887393 14.662671608405139 -1 0 0 I I #
vertex $-1 $371 $491 #
point $-1 37.057551359349972 31.042413671908253 11.510271130160298 #
coedge $-1 $378 $377 $385 $464 reversed $159 $-1 #
edge $-1 $381 41.794148252247382 $467 79.041718802453687 $378 $492 forward 7 unknown #
straight-curve $-1 41.794148252247382 -34.328281383887386 40.781375066446373 0 0 -1 I I #
point $-1 41.794148252247382 -34.328281383887393 14.662671608405139 #
straight-curve $-1 30.208966763675264 -34.328281383887393 2.5210334483576156 1 0 0 I I #
edge $-1 $467 -14.662671608405139 $386 -2.5210334483576116 $385 $493 forward 7 unknown #
point $-1 79.041718802453673 -34.328281383887393 2.5210334483576116 #
point $-1 41.794148252247382 -34.328281383887393 2.5210334483576116 #
vertex $-1 $390 $494 #
straight-curve $-1 79.041718802453687 0 14.662671608405139 0 1 0 I I #
vertex $-1 $393 $495 #
point $-1 54.436311266592043 -24.713831677760929 5.0645538161688721 #
vertex $-1 $397 $496 #
point $-1 70.399555788109041 -24.713831677760929 5.0645538161688721 #
straight-curve $-1 -79.041718802453687 34.328281383887393 0 0 0 -1 I I #
point $-1 -79.041718802453687 -34.328281383887393 -14.662671608405139 #
straight-curve $-1 -79.041718802453687 0 -14.662671608405139 0 1 0 I I #
point $-1 -79.041718802453687 34.328281383887393 -14.662671608405139 #
straight-curve $-1 -79.041718802453687 0 1.6174843847239622 0 -1 0 I I #
point $-1 -79.041718802453687 -34.328281383887393 1.6174843847239622 #
point $-1 -79.041718802453687 34.328281383887393 1.6174843847239622 #
straight-curve $-1 -79.041718802453687 34.328281383887393 0 0 0 -1 I I #
straight-curve $-1 -79.041718802453687 -34.328281383887393 0 0 0 -1 I I #
straight-curve $-1 -17.529506449169904 34.328281383887393 87.565440871086651 0 0 -1 I I #
point $-1 -17.529506449169904 34.328281383887393 14.662671608405139 #
straight-curve $-1 -13.140477146898057 34.328281383887393 10.781039552555651 -1 0 0 I I #
point $-1 -17.529506449169904 34.328281383887393 10.781039552555647 #
point $-1 -26.280954293796114 30.386354634939547 10.755561556872866 #
straight-curve $-1 44.808999203976185 34.328281383887393 87.565440871086651 0 0 -1 I I #
point $-1 44.808999203976185 34.328281383887393 14.662671608405139 #
straight-curve $-1 18.028775679674986 34.328281383887393 10.781039552555651 -1 0 0 I I #
point $-1 44.808999203976185 34.328281383887393 10.781039552555647 #
point $-1 36.057551359349972 30.386354634939547 10.755561556872866 #
straight-curve $-1 0 -34.328281383887393 14.662671608405139 1 0 0 I I #
straight-curve $-1 79.041718802453687 -34.328281383887393 0 0 0 -1 I I #
point $-1 79.041718802453687 -34.328281383887393 14.662671608405139 #
point $-1 52.436311266592043 -22.981780854721983 4.0645538429638171 #
point $-1 68.399555788109041 -22.981780854721983 4.0645538429638171 #
End-of-ACIS-data 