500 0 3 0           
7 Unknown 11 ACIS 5.0 NT 24 Thu Mar 25 15:30:52 1999 
-1 9.9999999999999995e-007 1e-010 
body $-1 $3 $-1 $4 #
body $-1 $5 $-1 $6 #
body $-1 $7 $-1 $8 #
lump $-1 $-1 $9 $0 #
transform $-1 1 0 0 0 1 0 0 0 1 64.961699270607625 31.113892280432026 14.733686622801097 1 rotate no_reflect no_shear #
lump $-1 $-1 $10 $1 #
transform $-1 1 0 0 0 1 0 0 0 1 64.961699270607625 31.113892280432026 14.733686622801097 1 rotate no_reflect no_shear #
lump $-1 $-1 $11 $2 #
transform $-1 1 0 0 0 1 0 0 0 1 64.961699270607625 31.113892280432026 14.733686622801097 1 rotate no_reflect no_shear #
shell $-1 $-1 $-1 $12 $-1 $3 #
shell $-1 $-1 $-1 $13 $-1 $5 #
shell $-1 $-1 $-1 $14 $-1 $7 #
face $-1 $15 $16 $9 $-1 $17 forward single #
face $-1 $18 $19 $10 $-1 $20 forward single #
face $-1 $21 $22 $11 $-1 $23 forward single #
face $-1 $24 $25 $9 $-1 $26 reversed single #
loop $-1 $-1 $27 $12 #
plane-surface $-1 0 0 14.733686622801097 0 0 1 1 0 0 forward_v I I I I #
face $-1 $28 $29 $10 $-1 $30 reversed single #
loop $-1 $-1 $31 $13 #
plane-surface $-1 -56.420536125389333 0 7.0296287479737547 0 0 1 1 0 0 forward_v I I I I #
face $-1 $32 $33 $11 $-1 $34 reversed single #
loop $-1 $-1 $35 $14 #
plane-surface $-1 56.420536125389333 0 7.0296287479737547 0 0 1 1 0 0 forward_v I I I I #
face $-1 $36 $37 $9 $-1 $38 reversed single #
loop $-1 $-1 $39 $15 #
plane-surface $-1 0 0 -14.733686622801097 0 0 1 1 0 0 forward_v I I I I #
coedge $-1 $40 $41 $42 $43 forward $16 $-1 #
face $-1 $44 $45 $10 $-1 $46 reversed single #
loop $-1 $-1 $47 $18 #
plane-surface $-1 -56.420536125389333 0 1.7956110159040097 0 0 1 1 0 0 forward_v I I I I #
coedge $-1 $48 $49 $50 $51 forward $19 $-1 #
face $-1 $52 $53 $11 $-1 $54 reversed single #
loop $-1 $-1 $55 $21 #
plane-surface $-1 56.420536125389333 0 1.7956110159040097 0 0 1 1 0 0 forward_v I I I I #
coedge $-1 $56 $57 $58 $59 reversed $22 $-1 #
face $-1 $60 $61 $9 $-1 $62 reversed single #
loop $-1 $-1 $63 $24 #
plane-surface $-1 0 -31.113892280432026 0 0 1 0 0 0 1 forward_v I I I I #
coedge $-1 $64 $65 $66 $67 forward $25 $-1 #
coedge $-1 $68 $27 $69 $70 forward $16 $-1 #
coedge $-1 $27 $68 $71 $72 forward $16 $-1 #
coedge $-1 $73 $74 $27 $43 reversed $75 $-1 #
edge $-1 $76 -31.113892280432026 $77 31.113892280432026 $42 $78 forward 7 unknown #
face $-1 $79 $80 $10 $-1 $81 reversed single #
loop $-1 $-1 $82 $28 #
plane-surface $-1 -47.879372980171041 0 4.4126198819388822 -1 0 0 0 0 1 forward_v I I I I #
coedge $-1 $83 $84 $85 $86 forward $29 $-1 #
coedge $-1 $87 $31 $88 $89 reversed $19 $-1 #
coedge $-1 $31 $87 $90 $91 reversed $19 $-1 #
coedge $-1 $82 $92 $31 $51 reversed $45 $-1 #
edge $-1 $93 -31.113892280432026 $94 31.113892280432026 $50 $95 forward 7 unknown #
face $-1 $96 $97 $11 $-1 $98 reversed single #
loop $-1 $-1 $99 $32 #
plane-surface $-1 47.879372980171041 0 4.4126198819388822 1 0 0 0 0 -1 forward_v I I I I #
coedge $-1 $100 $101 $102 $103 reversed $33 $-1 #
coedge $-1 $104 $35 $105 $106 reversed $22 $-1 #
coedge $-1 $35 $104 $107 $108 reversed $22 $-1 #
coedge $-1 $109 $110 $35 $59 forward $111 $-1 #
edge $-1 $112 -31.113892280432026 $113 31.113892280432026 $58 $114 forward 7 unknown #
face $-1 $115 $116 $9 $-1 $117 reversed single #
loop $-1 $-1 $118 $36 #
plane-surface $-1 -64.961699270607625 0 0 1 0 0 0 0 -1 forward_v I I I I #
coedge $-1 $119 $71 $120 $121 forward $37 $-1 #
coedge $-1 $122 $39 $119 $123 forward $25 $-1 #
coedge $-1 $39 $122 $124 $125 forward $25 $-1 #
coedge $-1 $74 $73 $39 $67 reversed $75 $-1 #
edge $-1 $126 -31.113892280432026 $127 31.113892280432026 $66 $128 forward 7 unknown #
coedge $-1 $41 $40 $129 $130 forward $16 $-1 #
coedge $-1 $131 $132 $40 $70 reversed $116 $-1 #
edge $-1 $77 -64.961699270607625 $133 64.961699270607625 $69 $134 forward 7 unknown #
coedge $-1 $63 $135 $41 $72 reversed $37 $-1 #
edge $-1 $136 -64.961699270607625 $76 64.961699270607625 $71 $137 forward 7 unknown #
coedge $-1 $66 $42 $135 $138 forward $75 $-1 #
coedge $-1 $42 $66 $131 $139 reversed $75 $-1 #
loop $-1 $-1 $73 $115 #
vertex $-1 $43 $140 #
vertex $-1 $43 $141 #
straight-curve $-1 64.961699270607625 0 14.733686622801097 0 1 0 I I #
face $-1 $142 $143 $10 $-1 $144 reversed single #
loop $-1 $-1 $145 $44 #
plane-surface $-1 0 -31.113892280432026 0 0 1 0 0 0 1 forward_v I I I I #
coedge $-1 $85 $50 $146 $147 reversed $45 $-1 #
coedge $-1 $148 $47 $145 $149 reversed $29 $-1 #
coedge $-1 $47 $148 $150 $151 reversed $29 $-1 #
coedge $-1 $92 $82 $47 $86 reversed $45 $-1 #
edge $-1 $152 -31.113892280432026 $153 31.113892280432026 $85 $154 forward 7 unknown #
coedge $-1 $49 $48 $155 $156 reversed $19 $-1 #
coedge $-1 $157 $158 $48 $89 forward $159 $-1 #
edge $-1 $160 -36.751431207912958 $94 -19.669104917476375 $88 $161 forward 7 unknown #
coedge $-1 $162 $146 $49 $91 forward $80 $-1 #
edge $-1 $93 19.669104917476375 $163 36.751431207912958 $90 $164 forward 7 unknown #
coedge $-1 $50 $85 $157 $165 reversed $45 $-1 #
vertex $-1 $91 $166 #
vertex $-1 $89 $167 #
straight-curve $-1 -47.879372980171041 0 7.0296287479737547 0 1 0 I I #
face $-1 $168 $169 $11 $-1 $170 reversed single #
loop $-1 $-1 $107 $52 #
plane-surface $-1 0 -31.113892280432026 0 0 1 0 0 0 1 forward_v I I I I #
coedge $-1 $171 $172 $173 $174 reversed $53 $-1 #
coedge $-1 $175 $55 $176 $177 reversed $33 $-1 #
coedge $-1 $55 $175 $178 $179 reversed $33 $-1 #
coedge $-1 $110 $109 $55 $103 forward $111 $-1 #
edge $-1 $180 -31.113892280432026 $181 31.113892280432026 $102 $182 forward 7 unknown #
coedge $-1 $57 $56 $172 $183 forward $22 $-1 #
coedge $-1 $184 $173 $56 $106 forward $169 $-1 #
edge $-1 $185 19.669104917476375 $112 36.751431207912958 $105 $186 forward 7 unknown #
coedge $-1 $187 $188 $57 $108 forward $97 $-1 #
edge $-1 $113 -36.751431207912958 $189 -19.669104917476375 $107 $190 forward 7 unknown #
coedge $-1 $102 $58 $188 $191 forward $111 $-1 #
coedge $-1 $58 $102 $184 $192 reversed $111 $-1 #
loop $-1 $-1 $58 $168 #
vertex $-1 $192 $193 #
vertex $-1 $191 $194 #
straight-curve $-1 64.961699270607625 0 7.0296287479737547 0 -1 0 I I #
face $-1 $-1 $75 $9 $-1 $195 reversed single #
loop $-1 $-1 $131 $60 #
plane-surface $-1 0 31.113892280432026 0 0 -1 0 0 0 -1 forward_v I I I I #
coedge $-1 $196 $129 $132 $197 forward $61 $-1 #
coedge $-1 $135 $63 $64 $123 reversed $37 $-1 #
coedge $-1 $129 $196 $63 $121 reversed $61 $-1 #
edge $-1 $136 -14.733686622801097 $198 14.733686622801097 $120 $199 forward 7 unknown #
coedge $-1 $65 $64 $196 $200 forward $25 $-1 #
edge $-1 $127 -64.961699270607625 $198 64.961699270607625 $119 $201 forward 7 unknown #
coedge $-1 $132 $131 $65 $125 reversed $116 $-1 #
edge $-1 $202 -64.961699270607625 $126 64.961699270607625 $124 $203 forward 7 unknown #
vertex $-1 $67 $204 #
vertex $-1 $138 $205 #
straight-curve $-1 64.961699270607625 0 -14.733686622801097 0 -1 0 I I #
coedge $-1 $118 $120 $68 $130 reversed $61 $-1 #
edge $-1 $133 -31.113892280432026 $136 31.113892280432026 $129 $206 forward 7 unknown #
coedge $-1 $124 $69 $74 $139 forward $116 $-1 #
coedge $-1 $69 $124 $118 $197 reversed $116 $-1 #
vertex $-1 $70 $207 #
straight-curve $-1 0 31.113892280432026 14.733686622801097 -1 0 0 I I #
coedge $-1 $71 $119 $73 $138 reversed $37 $-1 #
vertex $-1 $130 $208 #
straight-curve $-1 0 -31.113892280432026 14.733686622801097 1 0 0 I I #
edge $-1 $76 -14.733686622801097 $127 14.733686622801097 $73 $209 forward 7 unknown #
edge $-1 $77 -14.733686622801097 $126 14.733686622801097 $74 $210 forward 7 unknown #
point $-1 64.961699270607625 -31.113892280432026 14.733686622801097 #
point $-1 64.961699270607625 31.113892280432026 14.733686622801097 #
face $-1 $-1 $159 $10 $-1 $211 reversed single #
loop $-1 $-1 $212 $79 #
plane-surface $-1 -64.961699270607625 0 0 1 0 0 0 0 -1 forward_v I I I I #
coedge $-1 $146 $162 $83 $149 forward $80 $-1 #
coedge $-1 $90 $145 $82 $147 forward $80 $-1 #
edge $-1 $153 -0.41069892506543138 $93 4.8233188070043136 $146 $213 forward 7 unknown #
coedge $-1 $84 $83 $212 $214 reversed $29 $-1 #
edge $-1 $215 -36.751431207912958 $153 -19.669104917476375 $145 $216 forward 7 unknown #
coedge $-1 $158 $157 $84 $151 forward $159 $-1 #
edge $-1 $152 19.669104917476375 $217 36.751431207912958 $150 $218 forward 7 unknown #
vertex $-1 $151 $219 #
vertex $-1 $149 $220 #
straight-curve $-1 -47.879372980171041 0 1.7956110159040097 0 -1 0 I I #
coedge $-1 $221 $222 $87 $156 forward $143 $-1 #
edge $-1 $163 -31.113892280432026 $160 31.113892280432026 $155 $223 forward 7 unknown #
coedge $-1 $150 $88 $92 $165 forward $159 $-1 #
coedge $-1 $88 $150 $221 $224 reversed $159 $-1 #
loop $-1 $-1 $150 $142 #
vertex $-1 $224 $225 #
straight-curve $-1 -28.210268062694666 31.113892280432026 7.0296287479737547 1 0 0 I I #
coedge $-1 $145 $90 $222 $226 forward $80 $-1 #
vertex $-1 $226 $227 #
straight-curve $-1 -28.210268062694666 -31.113892280432026 7.0296287479737547 -1 0 0 I I #
edge $-1 $94 -4.8233188070043136 $152 0.41069892506543138 $157 $228 forward 7 unknown #
point $-1 -47.879372980171041 -31.113892280432026 7.0296287479737547 #
point $-1 -47.879372980171041 31.113892280432026 7.0296287479737547 #
face $-1 $-1 $111 $11 $-1 $229 reversed single #
loop $-1 $-1 $105 $96 #
plane-surface $-1 0 31.113892280432026 0 0 -1 0 0 0 -1 forward_v I I I I #
coedge $-1 $230 $99 $175 $231 reversed $53 $-1 #
coedge $-1 $99 $230 $104 $183 reversed $53 $-1 #
coedge $-1 $105 $178 $99 $174 forward $169 $-1 #
edge $-1 $232 -0.41069892506543138 $185 4.8233188070043136 $173 $233 forward 7 unknown #
coedge $-1 $101 $100 $171 $231 forward $33 $-1 #
coedge $-1 $188 $187 $100 $177 forward $97 $-1 #
edge $-1 $234 19.669104917476375 $180 36.751431207912958 $176 $235 forward 7 unknown #
coedge $-1 $173 $184 $101 $179 forward $169 $-1 #
edge $-1 $181 -36.751431207912958 $232 -19.669104917476375 $178 $236 forward 7 unknown #
vertex $-1 $103 $237 #
vertex $-1 $103 $238 #
straight-curve $-1 64.961699270607625 0 1.7956110159040097 0 1 0 I I #
edge $-1 $185 -31.113892280432026 $189 31.113892280432026 $172 $239 forward 7 unknown #
coedge $-1 $178 $105 $110 $192 forward $169 $-1 #
vertex $-1 $106 $240 #
straight-curve $-1 28.210268062694666 31.113892280432026 7.0296287479737547 1 0 0 I I #
coedge $-1 $176 $107 $230 $241 forward $97 $-1 #
coedge $-1 $107 $176 $109 $191 reversed $97 $-1 #
vertex $-1 $108 $242 #
straight-curve $-1 28.210268062694666 -31.113892280432026 7.0296287479737547 -1 0 0 I I #
edge $-1 $113 -7.0296287479737547 $180 -1.7956110159040097 $109 $243 forward 7 unknown #
edge $-1 $112 -7.0296287479737547 $181 -1.7956110159040097 $110 $244 forward 7 unknown #
point $-1 64.961699270607625 31.113892280432026 7.0296287479737547 #
point $-1 64.961699270607625 -31.113892280432026 7.0296287479737547 #
plane-surface $-1 64.961699270607625 0 0 -1 0 0 0 0 1 forward_v I I I I #
coedge $-1 $120 $118 $122 $200 reversed $61 $-1 #
edge $-1 $133 -14.733686622801097 $202 14.733686622801097 $132 $245 forward 7 unknown #
vertex $-1 $200 $246 #
straight-curve $-1 -64.961699270607625 -31.113892280432026 0 0 0 -1 I I #
edge $-1 $198 -31.113892280432026 $202 31.113892280432026 $196 $247 forward 7 unknown #
straight-curve $-1 0 -31.113892280432026 -14.733686622801097 -1 0 0 I I #
vertex $-1 $125 $248 #
straight-curve $-1 0 31.113892280432026 -14.733686622801097 1 0 0 I I #
point $-1 64.961699270607625 31.113892280432026 -14.733686622801097 #
point $-1 64.961699270607625 -31.113892280432026 -14.733686622801097 #
straight-curve $-1 -64.961699270607625 0 14.733686622801097 0 -1 0 I I #
point $-1 -64.961699270607625 31.113892280432026 14.733686622801097 #
point $-1 -64.961699270607625 -31.113892280432026 14.733686622801097 #
straight-curve $-1 64.961699270607625 -31.113892280432026 0 0 0 -1 I I #
straight-curve $-1 64.961699270607625 31.113892280432026 0 0 0 -1 I I #
plane-surface $-1 0 31.113892280432026 0 0 -1 0 0 0 -1 forward_v I I I I #
coedge $-1 $222 $221 $148 $214 forward $143 $-1 #
straight-curve $-1 -47.879372980171041 -31.113892280432026 2.2063099409694411 0 0 1 I I #
edge $-1 $217 -31.113892280432026 $215 31.113892280432026 $212 $249 forward 7 unknown #
vertex $-1 $149 $250 #
straight-curve $-1 -28.210268062694666 -31.113892280432026 1.7956110159040097 1 0 0 I I #
vertex $-1 $151 $251 #
straight-curve $-1 -28.210268062694666 31.113892280432026 1.7956110159040097 -1 0 0 I I #
point $-1 -47.879372980171041 31.113892280432026 1.7956110159040097 #
point $-1 -47.879372980171041 -31.113892280432026 1.7956110159040097 #
coedge $-1 $212 $155 $158 $224 forward $143 $-1 #
coedge $-1 $155 $212 $162 $226 reversed $143 $-1 #
straight-curve $-1 -64.961699270607625 0 7.0296287479737547 0 1 0 I I #
edge $-1 $160 -7.0296287479737547 $217 -1.7956110159040097 $158 $252 forward 7 unknown #
point $-1 -64.961699270607625 31.113892280432026 7.0296287479737547 #
edge $-1 $163 -7.0296287479737547 $215 -1.7956110159040097 $222 $253 forward 7 unknown #
point $-1 -64.961699270607625 -31.113892280432026 7.0296287479737547 #
straight-curve $-1 -47.879372980171041 31.113892280432026 2.2063099409694411 0 0 -1 I I #
plane-surface $-1 64.961699270607625 0 0 -1 0 0 0 0 1 forward_v I I I I #
coedge $-1 $172 $171 $187 $241 reversed $53 $-1 #
edge $-1 $234 -31.113892280432026 $232 31.113892280432026 $171 $254 forward 7 unknown #
vertex $-1 $179 $255 #
straight-curve $-1 47.879372980171041 31.113892280432026 2.2063099409694411 0 0 1 I I #
vertex $-1 $177 $256 #
straight-curve $-1 28.210268062694666 -31.113892280432026 1.7956110159040097 1 0 0 I I #
straight-curve $-1 28.210268062694666 31.113892280432026 1.7956110159040097 -1 0 0 I I #
point $-1 64.961699270607625 -31.113892280432026 1.7956110159040097 #
point $-1 64.961699270607625 31.113892280432026 1.7956110159040097 #
straight-curve $-1 47.879372980171041 0 7.0296287479737547 0 -1 0 I I #
point $-1 47.879372980171041 31.113892280432026 7.0296287479737547 #
edge $-1 $189 -4.8233188070043136 $234 0.41069892506543138 $187 $257 forward 7 unknown #
point $-1 47.879372980171041 -31.113892280432026 7.0296287479737547 #
straight-curve $-1 64.961699270607625 -31.113892280432026 0 0 0 -1 I I #
straight-curve $-1 64.961699270607625 31.113892280432026 0 0 0 -1 I I #
straight-curve $-1 -64.961699270607625 31.113892280432026 0 0 0 -1 I I #
point $-1 -64.961699270607625 -31.113892280432026 -14.733686622801097 #
straight-curve $-1 -64.961699270607625 0 -14.733686622801097 0 1 0 I I #
point $-1 -64.961699270607625 31.113892280432026 -14.733686622801097 #
straight-curve $-1 -64.961699270607625 0 1.7956110159040097 0 -1 0 I I #
point $-1 -64.961699270607625 -31.113892280432026 1.7956110159040097 #
point $-1 -64.961699270607625 31.113892280432026 1.7956110159040097 #
straight-curve $-1 -64.961699270607625 31.113892280432026 0 0 0 -1 I I #
straight-curve $-1 -64.961699270607625 -31.113892280432026 0 0 0 -1 I I #
straight-curve $-1 47.879372980171041 0 1.7956110159040097 0 1 0 I I #
point $-1 47.879372980171041 31.113892280432026 1.7956110159040097 #
point $-1 47.879372980171041 -31.113892280432026 1.7956110159040097 #
straight-curve $-1 47.879372980171041 -31.113892280432026 2.2063099409694411 0 0 -1 I I #
End-of-ACIS-data 