500 0 4 0           
7 Unknown 11 ACIS 5.0 NT 24 Fri Mar 26 15:25:51 1999 
-1 9.9999999999999995e-007 1e-010 
body $-1 $4 $-1 $5 #
body $-1 $6 $-1 $7 #
body $-1 $8 $-1 $9 #
body $-1 $10 $-1 $11 #
lump $-1 $-1 $12 $0 #
transform $-1 1 0 0 0 1 0 0 0 1 73.582567827387308 33.332339572602777 11.672880134332091 1 rotate no_reflect no_shear #
lump $-1 $-1 $13 $1 #
transform $-1 1 0 0 0 1 0 0 0 1 73.582567827387308 33.332339572602777 11.672880134332091 1 rotate no_reflect no_shear #
lump $-1 $-1 $14 $2 #
transform $-1 1 0 0 0 1 0 0 0 1 73.582567827387308 33.332339572602777 11.672880134332091 1 rotate no_reflect no_shear #
lump $-1 $-1 $15 $3 #
transform $-1 1 0 0 0 1 0 0 0 1 73.582567827387308 33.332339572602777 11.672880134332091 1 rotate no_reflect no_shear #
shell $-1 $-1 $-1 $16 $-1 $4 #
shell $-1 $-1 $-1 $17 $-1 $6 #
shell $-1 $-1 $-1 $18 $-1 $8 #
shell $-1 $-1 $-1 $19 $-1 $10 #
face $-1 $20 $21 $12 $-1 $22 forward single #
face $-1 $23 $24 $13 $-1 $25 reversed single #
face $-1 $26 $27 $14 $-1 $28 reversed single #
face $-1 $29 $30 $15 $-1 $31 forward single #
face $-1 $32 $33 $12 $-1 $34 reversed single #
loop $-1 $-1 $35 $16 #
plane-surface $-1 0 0 11.672880134332091 0 0 1 1 0 0 forward_v I I I I #
face $-1 $36 $37 $13 $-1 $38 reversed single #
loop $-1 $-1 $39 $17 #
plane-surface $-1 0 -28.222292002971177 5.7452785318904454 0 0 1 1 0 0 forward_v I I I I #
face $-1 $40 $41 $14 $-1 $42 reversed single #
loop $-1 $-1 $43 $18 #
plane-surface $-1 -201.03131499413257 22.575201895921481 80.059897398071769 0 1 0 -0.86602541151947299 0 0.49999998660252726 forward_v I I I I #
face $-1 $44 $45 $15 $-1 $46 forward single #
loop $-1 $47 $48 $19 #
cone-surface $-1 -71.021360878713693 27.953770734262129 8.4623170733524482 0.86602541151947299 0 -0.49999998660252726 0.49999998660252726 0 0.86602541151947299 1 I I 0 1 1 forward I I I I #
face $-1 $49 $50 $12 $-1 $51 reversed single #
loop $-1 $-1 $52 $20 #
plane-surface $-1 0 0 -11.672880134332091 0 0 1 1 0 0 forward_v I I I I #
coedge $-1 $53 $54 $55 $56 forward $21 $-1 #
face $-1 $57 $58 $13 $-1 $59 reversed single #
loop $-1 $-1 $60 $23 #
plane-surface $-1 0 -23.112244433339576 8.7090793331112675 0 -1 0 0 0 -1 forward_v I I I I #
coedge $-1 $61 $62 $63 $64 reversed $24 $-1 #
face $-1 $65 $66 $14 $-1 $67 forward single #
loop $-1 $-1 $68 $26 #
plane-surface $-1 -73.582567827387336 27.953770734262129 6.4773315423253734 -0.86602541151947299 0 0.49999998660252726 0.49999998660252726 0 0.86602541151947299 forward_v I I I I #
coedge $-1 $69 $70 $71 $72 reversed $27 $-1 #
face $-1 $-1 $73 $15 $-1 $74 forward single #
loop $-1 $75 $76 $29 #
cone-surface $-1 -69.526966859788132 27.953770734262129 7.5995283150749113 0.86602541151947299 0 -0.49999998660252726 0.24999999330126363 0 0.43301270575973649 1 I I -0.70710678118654746 0.70710678118654746 0.5 forward I I I I #
loop $-1 $-1 $77 $19 #
coedge $-1 $48 $48 $78 $79 reversed $30 $-1 #
face $-1 $80 $81 $12 $-1 $82 reversed single #
loop $-1 $-1 $83 $32 #
plane-surface $-1 0 -33.332339572602777 0 0 1 0 0 0 1 forward_v I I I I #
coedge $-1 $84 $85 $86 $87 forward $33 $-1 #
coedge $-1 $88 $35 $89 $90 forward $21 $-1 #
coedge $-1 $35 $88 $91 $92 forward $21 $-1 #
coedge $-1 $93 $94 $35 $56 reversed $95 $-1 #
edge $-1 $96 -33.332339572602777 $97 33.332339572602777 $55 $98 forward 7 unknown #
face $-1 $99 $100 $13 $-1 $101 reversed single #
loop $-1 $-1 $102 $36 #
plane-surface $-1 -73.582567827387308 0 0 1 0 0 0 0 -1 forward_v I I I I #
coedge $-1 $103 $104 $105 $106 reversed $37 $-1 #
coedge $-1 $107 $39 $108 $109 reversed $24 $-1 #
coedge $-1 $39 $107 $103 $110 forward $24 $-1 #
coedge $-1 $105 $111 $39 $64 forward $112 $-1 #
edge $-1 $113 -19.22119357111719 $114 -9.0010984318539879 $63 $115 forward 7 unknown #
face $-1 $116 $117 $14 $-1 $118 reversed single #
loop $-1 $-1 $71 $40 #
plane-surface $-1 0 0 11.672880134332091 0 0 1 1 0 0 forward_v I I I I #
coedge $-1 $119 $120 $121 $122 reversed $41 $-1 #
coedge $-1 $70 $43 $123 $124 reversed $27 $-1 #
coedge $-1 $43 $69 $119 $125 reversed $27 $-1 #
coedge $-1 $121 $126 $43 $72 forward $66 $-1 #
edge $-1 $127 26.933089669678978 $128 29.932740940694487 $71 $129 forward 7 unknown #
loop $-1 $-1 $78 $44 #
plane-surface $-1 -73.582567827387336 27.953770734262129 6.4773315423253734 -0.86602541151947299 0 0.49999998660252726 0.49999998660252726 0 0.86602541151947299 forward_v I I I I #
loop $-1 $-1 $130 $29 #
coedge $-1 $76 $76 $77 $131 reversed $45 $-1 #
coedge $-1 $77 $77 $76 $131 forward $47 $-1 #
coedge $-1 $78 $78 $48 $79 forward $73 $-1 #
edge $-1 $132 0 $132 6.2831853071796004 $78 $133 forward 7 unknown #
face $-1 $134 $135 $12 $-1 $136 reversed single #
loop $-1 $-1 $137 $49 #
plane-surface $-1 -73.582567827387308 0 0 1 0 0 0 0 -1 forward_v I I I I #
coedge $-1 $138 $91 $139 $140 forward $50 $-1 #
coedge $-1 $141 $52 $138 $142 forward $33 $-1 #
coedge $-1 $52 $141 $143 $144 forward $33 $-1 #
coedge $-1 $94 $93 $52 $87 reversed $95 $-1 #
edge $-1 $145 -33.332339572602777 $146 33.332339572602777 $86 $147 forward 7 unknown #
coedge $-1 $54 $53 $148 $149 forward $21 $-1 #
coedge $-1 $150 $151 $53 $90 reversed $135 $-1 #
edge $-1 $97 -73.582567827387308 $152 73.582567827387308 $89 $153 forward 7 unknown #
coedge $-1 $83 $154 $54 $92 reversed $50 $-1 #
edge $-1 $155 -73.582567827387308 $96 73.582567827387308 $91 $156 forward 7 unknown #
coedge $-1 $86 $55 $154 $157 forward $95 $-1 #
coedge $-1 $55 $86 $150 $158 reversed $95 $-1 #
loop $-1 $-1 $93 $134 #
vertex $-1 $56 $159 #
vertex $-1 $56 $160 #
straight-curve $-1 73.582567827387308 0 11.672880134332091 0 1 0 I I #
face $-1 $161 $162 $13 $-1 $163 forward single #
loop $-1 $-1 $108 $57 #
plane-surface $-1 0 -33.332339572602777 0 0 1 0 0 0 1 forward_v I I I I #
coedge $-1 $164 $165 $166 $167 forward $58 $-1 #
coedge $-1 $166 $60 $62 $110 reversed $37 $-1 #
coedge $-1 $60 $166 $168 $169 reversed $37 $-1 #
coedge $-1 $170 $63 $60 $106 forward $112 $-1 #
edge $-1 $114 1.3907388653348116 $171 7.3183404677764559 $105 $172 forward 7 unknown #
coedge $-1 $62 $61 $164 $173 reversed $24 $-1 #
coedge $-1 $174 $175 $61 $109 forward $100 $-1 #
edge $-1 $176 -73.582567827387308 $113 73.582567827387308 $108 $177 forward 7 unknown #
edge $-1 $178 -73.582567827387308 $114 73.582567827387308 $103 $179 forward 7 unknown #
coedge $-1 $63 $170 $174 $180 forward $112 $-1 #
loop $-1 $-1 $105 $161 #
vertex $-1 $109 $181 #
vertex $-1 $64 $182 #
straight-curve $-1 73.582567827387308 -14.111146001485588 5.7452785318904454 0 1 0 I I #
face $-1 $-1 $183 $14 $-1 $184 reversed single #
loop $-1 $-1 $185 $65 #
plane-surface $-1 0 33.332339572602777 0 0 -1 0 0 0 -1 forward_v I I I I #
coedge $-1 $186 $68 $70 $125 forward $41 $-1 #
coedge $-1 $68 $186 $185 $187 reversed $41 $-1 #
coedge $-1 $188 $71 $68 $122 forward $66 $-1 #
edge $-1 $128 8.5983165287904164 $189 19.355454205471712 $121 $190 forward 7 unknown #
coedge $-1 $191 $192 $69 $124 forward $183 $-1 #
edge $-1 $193 -33.552617156710461 $127 -28.357068564703795 $123 $194 forward 7 unknown #
edge $-1 $128 -5.9993027027820585 $193 -5.6516033812716314e-014 $70 $195 forward 7 unknown #
coedge $-1 $71 $188 $191 $196 forward $66 $-1 #
vertex $-1 $124 $197 #
vertex $-1 $72 $198 #
straight-curve $-1 -100.51565749706629 22.575201895921481 11.67288013433209 1 0 0 I I #
coedge $-1 $130 $130 $-1 $199 reversed $75 $-1 #
edge $-1 $200 0 $200 6.2831853071796004 $76 $201 forward 7 unknown #
vertex $-1 $79 $202 #
ellipse-curve $-1 -72.082742191879561 27.953770734262129 9.0751058383287457 -0.86602541151947299 0 0.49999998660252726 0.49999998660252726 0 0.86602541151947299 1 I I #
face $-1 $-1 $95 $12 $-1 $203 reversed single #
loop $-1 $-1 $150 $80 #
plane-surface $-1 0 33.332339572602777 0 0 -1 0 0 0 -1 forward_v I I I I #
coedge $-1 $204 $148 $151 $205 forward $81 $-1 #
coedge $-1 $154 $83 $84 $142 reversed $50 $-1 #
coedge $-1 $148 $204 $83 $140 reversed $81 $-1 #
edge $-1 $155 -11.672880134332091 $206 11.672880134332091 $139 $207 forward 7 unknown #
coedge $-1 $85 $84 $204 $208 forward $33 $-1 #
edge $-1 $146 -73.582567827387308 $206 73.582567827387308 $138 $209 forward 7 unknown #
coedge $-1 $151 $150 $85 $144 reversed $135 $-1 #
edge $-1 $210 -73.582567827387308 $145 73.582567827387308 $143 $211 forward 7 unknown #
vertex $-1 $87 $212 #
vertex $-1 $157 $213 #
straight-curve $-1 73.582567827387308 0 -11.672880134332091 0 -1 0 I I #
coedge $-1 $137 $139 $88 $149 reversed $81 $-1 #
edge $-1 $152 -33.332339572602777 $155 33.332339572602777 $148 $214 forward 7 unknown #
coedge $-1 $143 $89 $94 $158 forward $135 $-1 #
coedge $-1 $89 $143 $137 $205 reversed $135 $-1 #
vertex $-1 $90 $215 #
straight-curve $-1 0 33.332339572602777 11.672880134332091 -1 0 0 I I #
coedge $-1 $91 $138 $93 $157 reversed $50 $-1 #
vertex $-1 $149 $216 #
straight-curve $-1 0 -33.332339572602777 11.672880134332091 1 0 0 I I #
edge $-1 $96 -11.672880134332091 $146 11.672880134332091 $93 $217 forward 7 unknown #
edge $-1 $97 -11.672880134332091 $145 11.672880134332091 $94 $218 forward 7 unknown #
point $-1 73.582567827387308 -33.332339572602777 11.672880134332091 #
point $-1 73.582567827387308 33.332339572602777 11.672880134332091 #
face $-1 $-1 $112 $13 $-1 $219 reversed single #
loop $-1 $-1 $168 $99 #
plane-surface $-1 0 0 11.672880134332091 0 0 1 1 0 0 forward_v I I I I #
coedge $-1 $220 $102 $107 $173 forward $58 $-1 #
coedge $-1 $102 $220 $221 $222 reversed $58 $-1 #
coedge $-1 $104 $103 $102 $167 reversed $37 $-1 #
edge $-1 $223 -7.3183404677764559 $178 -1.3907388653348116 $102 $224 forward 7 unknown #
coedge $-1 $221 $225 $104 $169 forward $162 $-1 #
edge $-1 $171 -73.582567827387308 $223 73.582567827387308 $168 $226 forward 7 unknown #
coedge $-1 $111 $105 $225 $227 reversed $112 $-1 #
vertex $-1 $106 $228 #
straight-curve $-1 73.582567827387308 -23.112244433339576 4.3545396665556337 0 0 1 I I #
edge $-1 $178 9.0010984318539879 $176 19.22119357111719 $164 $229 forward 7 unknown #
coedge $-1 $230 $108 $111 $180 reversed $100 $-1 #
coedge $-1 $108 $230 $220 $231 forward $100 $-1 #
vertex $-1 $109 $232 #
straight-curve $-1 0 -33.332339572602777 5.7452785318904454 1 0 0 I I #
vertex $-1 $173 $233 #
straight-curve $-1 0 -23.112244433339576 5.7452785318904454 1 0 0 I I #
edge $-1 $234 -11.672880134332091 $113 -5.7452785318904454 $111 $235 forward 7 unknown #
point $-1 73.582567827387308 -33.332339572602777 5.7452785318904454 #
point $-1 73.582567827387308 -23.112244433339576 5.7452785318904454 #
loop $-1 $-1 $123 $116 #
plane-surface $-1 -73.582567827387308 0 0 1 0 0 0 0 -1 forward_v I I I I #
coedge $-1 $236 $237 $120 $187 forward $117 $-1 #
coedge $-1 $120 $119 $192 $238 reversed $41 $-1 #
edge $-1 $189 9.5915719039093528 $239 15.590874606691354 $185 $240 forward 7 unknown #
coedge $-1 $126 $121 $237 $241 forward $66 $-1 #
vertex $-1 $241 $242 #
straight-curve $-1 -70.582916556371799 13.976885367131064 11.672880134332091 0 1 0 I I #
coedge $-1 $243 $123 $126 $196 reversed $183 $-1 #
coedge $-1 $123 $243 $186 $238 forward $183 $-1 #
vertex $-1 $124 $244 #
straight-curve $-1 -73.582567827387308 22.575201895921481 40.029948699035884 0 0 1 I I #
straight-curve $-1 -73.582567827387336 22.575201895921481 6.4773315423253734 -0.49999998660252726 0 -0.86602541151947299 I I #
edge $-1 $245 -33.332339572602777 $127 -22.575201895921481 $191 $246 forward 7 unknown #
point $-1 -73.582567827387308 22.575201895921481 11.672880134332091 #
point $-1 -70.582916556371799 22.575201895921481 11.672880134332091 #
edge $-1 $247 1 $247 0 $130 $-1 forward 7 unknown #
vertex $-1 $131 $248 #
ellipse-curve $-1 -69.959979565547869 27.953770734262129 7.8495283083761747 -0.86602541151947299 0 0.49999998660252726 0.49999998660252726 0 0.86602541151947299 1 I I #
point $-1 -71.582742205277 27.953770734262129 9.9411312498481976 #
plane-surface $-1 73.582567827387308 0 0 -1 0 0 0 0 1 forward_v I I I I #
coedge $-1 $139 $137 $141 $208 reversed $81 $-1 #
edge $-1 $152 -11.672880134332091 $210 11.672880134332091 $151 $249 forward 7 unknown #
vertex $-1 $208 $250 #
straight-curve $-1 -73.582567827387308 -33.332339572602777 0 0 0 -1 I I #
edge $-1 $206 -33.332339572602777 $210 33.332339572602777 $204 $251 forward 7 unknown #
straight-curve $-1 0 -33.332339572602777 -11.672880134332091 -1 0 0 I I #
vertex $-1 $144 $252 #
straight-curve $-1 0 33.332339572602777 -11.672880134332091 1 0 0 I I #
point $-1 73.582567827387308 33.332339572602777 -11.672880134332091 #
point $-1 73.582567827387308 -33.332339572602777 -11.672880134332091 #
straight-curve $-1 -73.582567827387308 0 11.672880134332091 0 -1 0 I I #
point $-1 -73.582567827387308 33.332339572602777 11.672880134332091 #
point $-1 -73.582567827387308 -33.332339572602777 11.672880134332091 #
straight-curve $-1 73.582567827387308 -33.332339572602777 0 0 0 -1 I I #
straight-curve $-1 73.582567827387308 33.332339572602777 0 0 0 -1 I I #
plane-surface $-1 73.582567827387308 0 0 -1 0 0 0 0 1 forward_v I I I I #
coedge $-1 $165 $164 $175 $231 reversed $58 $-1 #
coedge $-1 $253 $168 $165 $222 forward $162 $-1 #
edge $-1 $223 23.112244433339576 $254 33.332339572602777 $165 $255 forward 7 unknown #
vertex $-1 $222 $256 #
straight-curve $-1 -73.582567827387308 -23.112244433339576 4.3545396665556337 0 0 -1 I I #
coedge $-1 $168 $253 $170 $227 forward $162 $-1 #
straight-curve $-1 0 -23.112244433339576 11.672880134332091 -1 0 0 I I #
edge $-1 $234 -33.332339572602777 $171 -23.112244433339576 $170 $257 forward 7 unknown #
point $-1 73.582567827387308 -23.112244433339576 11.67288013433209 #
straight-curve $-1 -73.582567827387308 -14.111146001485588 5.7452785318904454 0 -1 0 I I #
coedge $-1 $175 $174 $253 $258 reversed $100 $-1 #
edge $-1 $254 -11.672880134332091 $176 -5.7452785318904454 $220 $259 forward 7 unknown #
point $-1 -73.582567827387308 -33.332339572602777 5.7452785318904454 #
point $-1 -73.582567827387308 -23.112244433339576 5.7452785318904454 #
vertex $-1 $227 $260 #
straight-curve $-1 73.582567827387308 -33.332339572602777 0 0 0 -1 I I #
coedge $-1 $237 $185 $243 $261 reversed $117 $-1 #
coedge $-1 $185 $236 $188 $241 reversed $117 $-1 #
edge $-1 $239 -19.355454205471712 $193 -8.5983165287904164 $192 $262 forward 7 unknown #
vertex $-1 $187 $263 #
straight-curve $-1 -65.787130732919948 33.332339572602777 19.979425139533806 -0.49999998660252726 0 -0.86602541151947299 I I #
edge $-1 $189 70.582916556371799 $245 73.582567827387308 $237 $264 forward 7 unknown #
point $-1 -70.582916556371799 33.332339572602777 11.672880134332091 #
coedge $-1 $192 $191 $236 $261 forward $183 $-1 #
point $-1 -73.582567827387308 22.575201895921481 6.4773315423254223 #
vertex $-1 $241 $265 #
straight-curve $-1 -73.582567827387308 0 11.672880134332091 0 -1 0 I I #
vertex $-1 $199 $266 #
point $-1 -69.459979578945337 27.953770734262129 8.7155537198956488 #
straight-curve $-1 -73.582567827387308 33.332339572602777 0 0 0 -1 I I #
point $-1 -73.582567827387308 -33.332339572602777 -11.672880134332091 #
straight-curve $-1 -73.582567827387308 0 -11.672880134332091 0 1 0 I I #
point $-1 -73.582567827387308 33.332339572602777 -11.672880134332091 #
coedge $-1 $225 $221 $230 $258 forward $162 $-1 #
vertex $-1 $222 $267 #
straight-curve $-1 -73.582567827387308 0 11.672880134332091 0 -1 0 I I #
point $-1 -73.582567827387308 -23.112244433339576 11.67288013433209 #
straight-curve $-1 73.582567827387308 0 11.672880134332091 0 1 0 I I #
edge $-1 $254 -73.582567827387308 $234 73.582567827387308 $230 $268 forward 7 unknown #
straight-curve $-1 -73.582567827387308 -33.332339572602777 0 0 0 -1 I I #
point $-1 73.582567827387308 -33.332339572602777 11.672880134332091 #
edge $-1 $245 -11.672880134332091 $239 -6.4773315423254223 $236 $269 forward 7 unknown #
straight-curve $-1 -73.582567827387308 13.976885367131064 6.4773315423254143 0 -1 0 I I #
point $-1 -73.582567827387308 33.332339572602777 6.4773315423254223 #
straight-curve $-1 0 33.332339572602777 11.672880134332091 -1 0 0 I I #
point $-1 -73.582567827387308 33.332339572602777 11.672880134332091 #
point $-1 -69.093954154028395 27.953770734262129 7.349528321773648 #
point $-1 -73.582567827387308 -33.332339572602777 11.672880134332091 #
straight-curve $-1 0 -33.332339572602777 11.672880134332091 1 0 0 I I #
straight-curve $-1 -73.582567827387308 33.332339572602777 0 0 0 -1 I I #
End-of-ACIS-data 