500 0 10 0           
7 Unknown 11 ACIS 5.0 NT 24 Fri Mar 26 15:52:23 1999 
-1 9.9999999999999995e-007 1e-010 
body $-1 $10 $-1 $11 #
body $-1 $12 $-1 $13 #
body $-1 $14 $-1 $15 #
body $-1 $16 $-1 $17 #
body $-1 $18 $-1 $19 #
body $-1 $20 $-1 $21 #
body $-1 $22 $-1 $23 #
body $-1 $24 $-1 $25 #
body $-1 $26 $-1 $27 #
body $-1 $28 $-1 $29 #
lump $-1 $-1 $30 $0 #
transform $-1 1 0 0 0 1 0 0 0 1 47.662587359233378 32.641170281073421 7.2849170893121107 1 rotate no_reflect no_shear #
lump $-1 $-1 $31 $1 #
transform $-1 1 0 0 0 1 0 0 0 1 47.662587359233378 32.641170281073421 7.2849170893121107 1 rotate no_reflect no_shear #
lump $-1 $-1 $32 $2 #
transform $-1 1 0 0 0 1 0 0 0 1 47.662587359233378 32.641170281073421 7.2849170893121107 1 rotate no_reflect no_shear #
lump $-1 $-1 $33 $3 #
transform $-1 1 0 0 0 1 0 0 0 1 47.662587359233378 32.641170281073421 7.2849170893121107 1 rotate no_reflect no_shear #
lump $-1 $-1 $34 $4 #
transform $-1 1 0 0 0 1 0 0 0 1 47.662587359233378 32.641170281073421 7.2849170893121107 1 rotate no_reflect no_shear #
lump $-1 $-1 $35 $5 #
transform $-1 1 0 0 0 1 0 0 0 1 47.662587359233378 32.641170281073421 7.2849170893121107 1 rotate no_reflect no_shear #
lump $-1 $-1 $36 $6 #
transform $-1 1 0 0 0 1 0 0 0 1 47.662587359233378 32.641170281073421 7.2849170893121107 1 rotate no_reflect no_shear #
lump $-1 $-1 $37 $7 #
transform $-1 1 0 0 0 1 0 0 0 1 47.662587359233378 32.641170281073421 7.2849170893121107 1 rotate no_reflect no_shear #
lump $-1 $-1 $38 $8 #
transform $-1 1 0 0 0 1 0 0 0 1 47.662587359233378 32.641170281073421 7.2849170893121107 1 rotate no_reflect no_shear #
lump $-1 $-1 $39 $9 #
transform $-1 1 0 0 0 1 0 0 0 1 47.662587359233378 32.641170281073421 7.2849170893121107 1 rotate no_reflect no_shear #
shell $-1 $-1 $-1 $40 $-1 $10 #
shell $-1 $-1 $-1 $41 $-1 $12 #
shell $-1 $-1 $-1 $42 $-1 $14 #
shell $-1 $-1 $-1 $43 $-1 $16 #
shell $-1 $-1 $-1 $44 $-1 $18 #
shell $-1 $-1 $-1 $45 $-1 $20 #
shell $-1 $-1 $-1 $46 $-1 $22 #
shell $-1 $-1 $-1 $47 $-1 $24 #
shell $-1 $-1 $-1 $48 $-1 $26 #
shell $-1 $-1 $-1 $49 $-1 $28 #
face $-1 $50 $51 $30 $-1 $52 forward single #
face $-1 $53 $54 $31 $-1 $55 reversed single #
face $-1 $56 $57 $32 $-1 $58 reversed single #
face $-1 $59 $60 $33 $-1 $61 reversed single #
face $-1 $62 $63 $34 $-1 $64 forward single #
face $-1 $65 $66 $35 $-1 $67 forward single #
face $-1 $68 $69 $36 $-1 $70 forward single #
face $-1 $71 $72 $37 $-1 $73 reversed single #
face $-1 $74 $75 $38 $-1 $76 forward single #
face $-1 $77 $78 $39 $-1 $79 forward single #
face $-1 $80 $81 $30 $-1 $82 reversed single #
loop $-1 $-1 $83 $40 #
plane-surface $-1 0 0 7.2849170893121107 0 0 1 1 0 0 forward_v I I I I #
face $-1 $84 $85 $31 $-1 $86 reversed single #
loop $-1 $-1 $87 $41 #
plane-surface $-1 -44.503909827044559 -28.998645038973997 0 0 -1 0 0 0 -1 forward_v I I I I #
face $-1 $88 $89 $32 $-1 $90 reversed single #
loop $-1 $-1 $91 $42 #
plane-surface $-1 41.345232294855741 -30.819907660023709 0 1 0 0 0 0 -1 forward_v I I I I #
face $-1 $92 $93 $33 $-1 $94 reversed single #
loop $-1 $-1 $95 $43 #
plane-surface $-1 -20.176746313877207 67.566612422034069 112.87345547836718 1 0 0 0 -0.78801076186113728 -0.61566146476048833 forward_v I I I I #
face $-1 $96 $97 $34 $-1 $98 forward single #
loop $-1 $99 $100 $44 #
cone-surface $-1 -16.178724052733489 29.509763270076505 3.9534951314552988 0 -0.78801076186113728 -0.61566146476048833 1 0 0 1 I I 0 1 1 forward I I I I #
face $-1 $101 $102 $35 $-1 $103 forward single #
loop $-1 $104 $105 $45 #
cone-surface $-1 -10.181690661017903 29.509763270076505 3.9534951314552988 0 -0.78801076186113728 -0.61566146476048833 1 0 0 1 I I 0 1 1 forward I I I I #
face $-1 $106 $107 $36 $-1 $108 forward single #
loop $-1 $109 $110 $46 #
cone-surface $-1 -4.1846572693023205 29.509763270076505 3.9534951314552988 0 -0.78801076186113728 -0.61566146476048833 1 0 0 1 I I 0 1 1 forward I I I I #
face $-1 $111 $112 $37 $-1 $113 reversed single #
loop $-1 $-1 $114 $47 #
plane-surface $-1 32.896001529365677 -114.35079373032011 53.118817911787815 1 0 0 0 0.85716730853699208 -0.51503806187062418 forward_v I I I I #
face $-1 $115 $116 $38 $-1 $117 forward single #
loop $-1 $118 $119 $48 #
cone-surface $-1 35.310067462362831 -31.165766220605533 5.3561890213600076 0 0.85716730853699208 -0.51503806187062418 0.5 0 0 1 I I 0 1 0.5 forward I I I I #
face $-1 $120 $121 $39 $-1 $122 forward single #
loop $-1 $123 $124 $49 #
cone-surface $-1 38.93116636185858 -31.165766220605533 5.3561890213600076 0 0.85716730853699208 -0.51503806187062418 0.5 0 0 1 I I 0 1 0.5 forward I I I I #
face $-1 $125 $126 $30 $-1 $127 reversed single #
loop $-1 $-1 $128 $50 #
plane-surface $-1 0 0 -7.2849170893121107 0 0 1 1 0 0 forward_v I I I I #
coedge $-1 $129 $130 $131 $132 forward $51 $-1 #
face $-1 $133 $134 $31 $-1 $135 forward single #
loop $-1 $-1 $136 $53 #
plane-surface $-1 -41.345232294855741 -30.819907660023709 0 -1 0 0 0 0 1 forward_v I I I I #
coedge $-1 $137 $138 $139 $140 forward $54 $-1 #
face $-1 $141 $142 $32 $-1 $143 forward single #
loop $-1 $-1 $144 $56 #
plane-surface $-1 44.503909827044559 -28.998645038973997 0 0 -1 0 0 0 -1 forward_v I I I I #
coedge $-1 $145 $146 $147 $148 reversed $57 $-1 #
face $-1 $149 $150 $33 $-1 $151 reversed single #
loop $-1 $-1 $152 $59 #
plane-surface $-1 -10.181690661017903 -7.550651132410934 54.185418782646465 0 0.78801076186113728 0.61566146476048833 1 0 0 forward_v I I I I #
coedge $-1 $153 $154 $155 $156 reversed $60 $-1 #
face $-1 $-1 $157 $34 $-1 $158 forward single #
loop $-1 $159 $160 $62 #
cone-surface $-1 -16.178724052733489 27.758918166736031 2.5855850557788491 0 -0.78801076186113728 -0.61566146476048833 0.5 0 0 1 I I -0.70710678118654746 0.70710678118654746 0.5 forward I I I I #
loop $-1 $-1 $161 $44 #
coedge $-1 $100 $100 $162 $163 reversed $63 $-1 #
face $-1 $-1 $164 $35 $-1 $165 forward single #
loop $-1 $166 $167 $65 #
cone-surface $-1 -10.181690661017903 27.758918166736031 2.5855850557788491 0 -0.78801076186113728 -0.61566146476048833 0.5 0 0 1 I I -0.70710678118654746 0.70710678118654746 0.5 forward I I I I #
loop $-1 $-1 $168 $45 #
coedge $-1 $105 $105 $169 $170 reversed $66 $-1 #
face $-1 $-1 $171 $36 $-1 $172 forward single #
loop $-1 $173 $174 $68 #
cone-surface $-1 -4.1846572693023205 27.758918166736031 2.5855850557788491 0 -0.78801076186113728 -0.61566146476048833 0.5 0 0 1 I I -0.70710678118654746 0.70710678118654746 0.5 forward I I I I #
loop $-1 $-1 $175 $46 #
coedge $-1 $110 $110 $176 $177 reversed $69 $-1 #
face $-1 $178 $179 $37 $-1 $180 forward single #
loop $-1 $-1 $181 $71 #
plane-surface $-1 37.120616912110712 -32.641170281073428 4.022724677310066 0 -0.85716730853699208 0.51503806187062418 1 0 0 forward_v I I I I #
coedge $-1 $182 $183 $184 $185 reversed $72 $-1 #
face $-1 $-1 $186 $38 $-1 $187 forward single #
loop $-1 $188 $189 $74 #
cone-surface $-1 35.310067462362831 -30.456131775263877 4.9297976439412663 0 0.85716730853699208 -0.51503806187062418 0.25 0 0 1 I I -0.70710678118654746 0.70710678118654746 0.25 forward I I I I #
loop $-1 $-1 $190 $48 #
coedge $-1 $119 $119 $191 $192 reversed $75 $-1 #
face $-1 $-1 $193 $39 $-1 $194 forward single #
loop $-1 $195 $196 $77 #
cone-surface $-1 38.93116636185858 -30.456131775263877 4.9297976439412663 0 0.85716730853699208 -0.51503806187062418 0.25 0 0 1 I I -0.70710678118654746 0.70710678118654746 0.25 forward I I I I #
loop $-1 $-1 $197 $49 #
coedge $-1 $124 $124 $198 $199 reversed $78 $-1 #
face $-1 $200 $201 $30 $-1 $202 reversed single #
loop $-1 $-1 $203 $80 #
plane-surface $-1 0 -32.641170281073421 0 0 1 0 0 0 1 forward_v I I I I #
coedge $-1 $204 $205 $206 $207 forward $81 $-1 #
coedge $-1 $208 $83 $209 $210 forward $51 $-1 #
coedge $-1 $83 $208 $211 $212 forward $51 $-1 #
coedge $-1 $213 $214 $83 $132 reversed $215 $-1 #
edge $-1 $216 -32.641170281073421 $217 32.641170281073421 $131 $218 forward 7 unknown #
face $-1 $219 $220 $31 $-1 $221 reversed single #
loop $-1 $-1 $222 $84 #
plane-surface $-1 0 0 7.2849170893121107 0 0 1 1 0 0 forward_v I I I I #
coedge $-1 $223 $224 $225 $226 reversed $85 $-1 #
coedge $-1 $227 $87 $228 $229 reversed $54 $-1 #
coedge $-1 $87 $227 $230 $231 reversed $54 $-1 #
coedge $-1 $224 $223 $87 $140 reversed $85 $-1 #
edge $-1 $232 -7.2849170893121107 $233 7.2849170893121107 $139 $234 forward 7 unknown #
face $-1 $235 $236 $32 $-1 $237 reversed single #
loop $-1 $-1 $238 $88 #
plane-surface $-1 0 0 7.2849170893121107 0 0 1 1 0 0 forward_v I I I I #
coedge $-1 $239 $240 $241 $242 reversed $89 $-1 #
coedge $-1 $243 $91 $244 $245 forward $57 $-1 #
coedge $-1 $91 $243 $246 $247 reversed $57 $-1 #
coedge $-1 $248 $238 $91 $148 forward $142 $-1 #
edge $-1 $249 13.588691208962143 $250 17.231216451061567 $147 $251 forward 7 unknown #
face $-1 $252 $253 $33 $-1 $254 reversed single #
loop $-1 $-1 $255 $92 #
plane-surface $-1 -0.1866350081585999 67.566612422034069 112.87345547836718 -1 0 0 0 0.78801076186113728 0.61566146476048833 forward_v I I I I #
coedge $-1 $256 $257 $258 $259 reversed $93 $-1 #
coedge $-1 $154 $95 $260 $261 reversed $60 $-1 #
coedge $-1 $95 $153 $256 $262 reversed $60 $-1 #
coedge $-1 $258 $263 $95 $156 forward $264 $-1 #
edge $-1 $265 1.1421359299436133 $266 4.6912705071176077 $155 $267 forward 7 unknown #
loop $-1 $-1 $162 $96 #
plane-surface $-1 -10.181690661017903 -7.550651132410934 54.185418782646465 0 0.78801076186113728 0.61566146476048833 1 0 0 forward_v I I I I #
loop $-1 $-1 $268 $62 #
coedge $-1 $160 $160 $161 $269 reversed $97 $-1 #
coedge $-1 $161 $161 $160 $269 forward $99 $-1 #
coedge $-1 $162 $162 $100 $163 forward $157 $-1 #
edge $-1 $270 3.4954836183495873e-016 $270 6.2831853071796004 $162 $271 forward 7 unknown #
loop $-1 $-1 $169 $101 #
plane-surface $-1 -10.181690661017903 -7.550651132410934 54.185418782646465 0 0.78801076186113728 0.61566146476048833 1 0 0 forward_v I I I I #
loop $-1 $-1 $272 $65 #
coedge $-1 $167 $167 $168 $273 reversed $102 $-1 #
coedge $-1 $168 $168 $167 $273 forward $104 $-1 #
coedge $-1 $169 $169 $105 $170 forward $164 $-1 #
edge $-1 $274 3.4954836183495873e-016 $274 6.2831853071796004 $169 $275 forward 7 unknown #
loop $-1 $-1 $176 $106 #
plane-surface $-1 -10.181690661017903 -7.550651132410934 54.185418782646465 0 0.78801076186113728 0.61566146476048833 1 0 0 forward_v I I I I #
loop $-1 $-1 $276 $68 #
coedge $-1 $174 $174 $175 $277 reversed $107 $-1 #
coedge $-1 $175 $175 $174 $277 forward $109 $-1 #
coedge $-1 $176 $176 $110 $177 forward $171 $-1 #
edge $-1 $278 3.4954836183495873e-016 $278 6.2831853071796004 $176 $279 forward 7 unknown #
face $-1 $280 $281 $37 $-1 $282 reversed single #
loop $-1 $-1 $283 $111 #
plane-surface $-1 0 0 7.2849170893121107 0 0 1 1 0 0 forward_v I I I I #
coedge $-1 $284 $285 $286 $287 reversed $112 $-1 #
coedge $-1 $183 $114 $288 $289 reversed $72 $-1 #
coedge $-1 $114 $182 $284 $290 reversed $72 $-1 #
coedge $-1 $286 $291 $114 $185 forward $281 $-1 #
edge $-1 $292 19.274491866581798 $293 22.536684278583831 $184 $294 forward 7 unknown #
loop $-1 $-1 $191 $115 #
plane-surface $-1 37.120616912110712 -32.641170281073428 4.022724677310066 0 -0.85716730853699208 0.51503806187062418 1 0 0 forward_v I I I I #
loop $-1 $-1 $295 $74 #
coedge $-1 $189 $189 $190 $296 reversed $116 $-1 #
coedge $-1 $190 $190 $189 $296 forward $118 $-1 #
coedge $-1 $191 $191 $119 $192 forward $186 $-1 #
edge $-1 $297 -4.5679050330899711e-015 $297 6.283185307179596 $191 $298 forward 7 unknown #
loop $-1 $-1 $198 $120 #
plane-surface $-1 37.120616912110712 -32.641170281073428 4.022724677310066 0 -0.85716730853699208 0.51503806187062418 1 0 0 forward_v I I I I #
loop $-1 $-1 $299 $77 #
coedge $-1 $196 $196 $197 $300 reversed $121 $-1 #
coedge $-1 $197 $197 $196 $300 forward $123 $-1 #
coedge $-1 $198 $198 $124 $199 forward $193 $-1 #
edge $-1 $301 -4.5679050330899711e-015 $301 6.283185307179596 $198 $302 forward 7 unknown #
face $-1 $303 $304 $30 $-1 $305 reversed single #
loop $-1 $-1 $306 $125 #
plane-surface $-1 -47.662587359233378 0 0 1 0 0 0 0 -1 forward_v I I I I #
coedge $-1 $307 $211 $308 $309 forward $126 $-1 #
coedge $-1 $310 $128 $307 $311 forward $81 $-1 #
coedge $-1 $128 $310 $312 $313 forward $81 $-1 #
coedge $-1 $214 $213 $128 $207 reversed $215 $-1 #
edge $-1 $314 -32.641170281073421 $315 32.641170281073421 $206 $316 forward 7 unknown #
coedge $-1 $130 $129 $317 $318 forward $51 $-1 #
coedge $-1 $319 $320 $129 $210 reversed $304 $-1 #
edge $-1 $217 -47.662587359233378 $321 47.662587359233378 $209 $322 forward 7 unknown #
coedge $-1 $203 $323 $130 $212 reversed $126 $-1 #
edge $-1 $324 -47.662587359233378 $216 47.662587359233378 $211 $325 forward 7 unknown #
coedge $-1 $206 $131 $323 $326 forward $215 $-1 #
coedge $-1 $131 $206 $319 $327 reversed $215 $-1 #
loop $-1 $-1 $213 $303 #
vertex $-1 $132 $328 #
vertex $-1 $132 $329 #
straight-curve $-1 47.662587359233378 0 7.2849170893121107 0 1 0 I I #
face $-1 $330 $331 $31 $-1 $332 reversed single #
loop $-1 $-1 $333 $133 #
plane-surface $-1 -47.662587359233378 0 0 1 0 0 0 0 -1 forward_v I I I I #
coedge $-1 $230 $334 $224 $335 forward $134 $-1 #
coedge $-1 $139 $136 $336 $337 reversed $85 $-1 #
coedge $-1 $136 $139 $222 $335 reversed $85 $-1 #
coedge $-1 $338 $339 $136 $226 forward $340 $-1 #
edge $-1 $341 -7.2849170893121107 $342 7.2849170893121107 $225 $343 forward 7 unknown #
coedge $-1 $138 $137 $333 $344 reversed $54 $-1 #
coedge $-1 $336 $345 $137 $229 forward $331 $-1 #
edge $-1 $346 -25.410632445711098 $233 -19.093277381333461 $228 $347 forward 7 unknown #
coedge $-1 $348 $222 $138 $231 forward $134 $-1 #
edge $-1 $232 19.093277381333461 $349 25.410632445711098 $230 $350 forward 7 unknown #
vertex $-1 $231 $351 #
vertex $-1 $229 $352 #
straight-curve $-1 -41.345232294855741 -28.998645038973997 0 0 0 -1 I I #
face $-1 $353 $354 $32 $-1 $355 reversed single #
loop $-1 $-1 $246 $141 #
plane-surface $-1 0 -32.641170281073421 0 0 1 0 0 0 1 forward_v I I I I #
coedge $-1 $147 $356 $240 $357 forward $142 $-1 #
coedge $-1 $244 $144 $358 $359 reversed $89 $-1 #
coedge $-1 $144 $244 $238 $357 reversed $89 $-1 #
coedge $-1 $360 $361 $144 $242 forward $362 $-1 #
edge $-1 $363 -7.2849170893121107 $364 7.2849170893121107 $241 $365 forward 7 unknown #
coedge $-1 $146 $145 $366 $367 reversed $57 $-1 #
coedge $-1 $240 $239 $145 $245 reversed $89 $-1 #
edge $-1 $249 -7.2849170893121107 $368 7.2849170893121107 $244 $369 forward 7 unknown #
coedge $-1 $370 $371 $146 $247 forward $236 $-1 #
edge $-1 $250 -7.2849170893121107 $372 7.2849170893121107 $246 $373 forward 7 unknown #
coedge $-1 $356 $147 $371 $374 forward $142 $-1 #
vertex $-1 $148 $375 #
vertex $-1 $374 $376 #
straight-curve $-1 41.345232294855741 -15.409953830011855 7.2849170893121107 0 -1 0 I I #
face $-1 $-1 $264 $33 $-1 $377 forward single #
loop $-1 $-1 $378 $149 #
plane-surface $-1 0 32.641170281073421 0 0 -1 0 0 0 -1 forward_v I I I I #
coedge $-1 $379 $380 $381 $382 reversed $150 $-1 #
coedge $-1 $383 $152 $154 $262 forward $93 $-1 #
coedge $-1 $152 $383 $379 $384 forward $93 $-1 #
coedge $-1 $381 $155 $152 $259 forward $264 $-1 #
edge $-1 $266 -15.085900983368255 $385 4.9042103223503517 $258 $386 forward 7 unknown #
coedge $-1 $387 $388 $153 $261 forward $253 $-1 #
edge $-1 $389 -53.694495878992669 $265 -49.151810649871479 $260 $390 forward 7 unknown #
edge $-1 $266 59.517590321436657 $389 65.282340562146828 $154 $391 forward 7 unknown #
coedge $-1 $155 $381 $387 $392 forward $264 $-1 #
loop $-1 $-1 $381 $252 #
vertex $-1 $261 $393 #
vertex $-1 $156 $394 #
straight-curve $-1 -20.176746313877207 33.783306211017035 7.2849170893121098 0 -1 0 I I #
coedge $-1 $268 $268 $-1 $395 reversed $159 $-1 #
edge $-1 $396 0 $396 6.2831853071796004 $160 $397 forward 7 unknown #
vertex $-1 $163 $398 #
ellipse-curve $-1 -16.178724052733489 30.866602992486424 5.0135744747515156 0 0.78801076186113728 0.61566146476048833 1 0 0 1 I I #
coedge $-1 $272 $272 $-1 $399 reversed $166 $-1 #
edge $-1 $400 0 $400 6.2831853071796004 $167 $401 forward 7 unknown #
vertex $-1 $170 $402 #
ellipse-curve $-1 -10.181690661017903 30.866602992486424 5.0135744747515156 0 0.78801076186113728 0.61566146476048833 1 0 0 1 I I #
coedge $-1 $276 $276 $-1 $403 reversed $173 $-1 #
edge $-1 $404 0 $404 6.2831853071796004 $174 $405 forward 7 unknown #
vertex $-1 $177 $406 #
ellipse-curve $-1 -4.1846572693023205 30.866602992486424 5.0135744747515156 0 0.78801076186113728 0.61566146476048833 1 0 0 1 I I #
face $-1 $-1 $407 $37 $-1 $408 forward single #
loop $-1 $-1 $184 $178 #
plane-surface $-1 0 -32.641170281073421 0 0 1 0 0 0 1 forward_v I I I I #
coedge $-1 $288 $409 $410 $411 forward $179 $-1 #
coedge $-1 $410 $181 $183 $290 forward $112 $-1 #
coedge $-1 $181 $410 $412 $413 reversed $112 $-1 #
coedge $-1 $414 $184 $181 $287 forward $281 $-1 #
edge $-1 $293 14.335693073310321 $415 22.784923838800385 $286 $416 forward 7 unknown #
coedge $-1 $417 $283 $182 $289 forward $179 $-1 #
edge $-1 $418 -26.494349468607577 $292 -24.534226584086632 $288 $419 forward 7 unknown #
edge $-1 $293 1.3556693106716273e-014 $418 3.8057825811975206 $183 $420 forward 7 unknown #
coedge $-1 $184 $414 $417 $421 reversed $281 $-1 #
vertex $-1 $421 $422 #
vertex $-1 $185 $423 #
straight-curve $-1 32.896001529365677 -32.641170281073421 26.559408955893907 0 0 -1 I I #
coedge $-1 $295 $295 $-1 $424 reversed $188 $-1 #
edge $-1 $425 0 $425 6.2831853071796004 $189 $426 forward 7 unknown #
vertex $-1 $192 $427 #
ellipse-curve $-1 35.310067462362831 -31.661108838812947 5.653820883311095 0 -0.85716730853699208 0.51503806187062418 0.5 0 0 1 I I #
coedge $-1 $299 $299 $-1 $428 reversed $195 $-1 #
edge $-1 $429 0 $429 6.2831853071796004 $196 $430 forward 7 unknown #
vertex $-1 $199 $431 #
ellipse-curve $-1 38.93116636185858 -31.661108838812947 5.653820883311095 0 -0.85716730853699208 0.51503806187062418 0.5 0 0 1 I I #
face $-1 $-1 $215 $30 $-1 $432 reversed single #
loop $-1 $-1 $319 $200 #
plane-surface $-1 0 32.641170281073421 0 0 -1 0 0 0 -1 forward_v I I I I #
coedge $-1 $433 $317 $320 $434 forward $201 $-1 #
coedge $-1 $323 $203 $204 $311 reversed $126 $-1 #
coedge $-1 $317 $433 $203 $309 reversed $201 $-1 #
edge $-1 $324 -7.2849170893121107 $435 7.2849170893121107 $308 $436 forward 7 unknown #
coedge $-1 $205 $204 $433 $437 forward $81 $-1 #
edge $-1 $315 -47.662587359233378 $435 47.662587359233378 $307 $438 forward 7 unknown #
coedge $-1 $320 $319 $205 $313 reversed $304 $-1 #
edge $-1 $439 -47.662587359233378 $314 47.662587359233378 $312 $440 forward 7 unknown #
vertex $-1 $207 $441 #
vertex $-1 $326 $442 #
straight-curve $-1 47.662587359233378 0 -7.2849170893121107 0 -1 0 I I #
coedge $-1 $306 $308 $208 $318 reversed $201 $-1 #
edge $-1 $321 -32.641170281073421 $324 32.641170281073421 $317 $443 forward 7 unknown #
coedge $-1 $312 $209 $214 $327 forward $304 $-1 #
coedge $-1 $209 $312 $306 $434 reversed $304 $-1 #
vertex $-1 $210 $444 #
straight-curve $-1 0 32.641170281073421 7.2849170893121107 -1 0 0 I I #
coedge $-1 $211 $307 $213 $326 reversed $126 $-1 #
vertex $-1 $318 $445 #
straight-curve $-1 0 -32.641170281073421 7.2849170893121107 1 0 0 I I #
edge $-1 $216 -7.2849170893121107 $315 7.2849170893121107 $213 $446 forward 7 unknown #
edge $-1 $217 -7.2849170893121107 $314 7.2849170893121107 $214 $447 forward 7 unknown #
point $-1 47.662587359233378 -32.641170281073421 7.2849170893121107 #
point $-1 47.662587359233378 32.641170281073421 7.2849170893121107 #
face $-1 $-1 $340 $31 $-1 $448 reversed single #
loop $-1 $-1 $336 $219 #
plane-surface $-1 0 0 -7.2849170893121107 0 0 1 1 0 0 forward_v I I I I #
coedge $-1 $449 $450 $227 $344 forward $220 $-1 #
coedge $-1 $222 $348 $338 $451 forward $134 $-1 #
edge $-1 $342 -17.231216451061567 $232 -13.588691208962143 $222 $452 forward 7 unknown #
coedge $-1 $453 $228 $223 $337 forward $331 $-1 #
edge $-1 $233 13.588691208962143 $341 17.231216451061567 $336 $454 forward 7 unknown #
coedge $-1 $455 $225 $334 $451 reversed $340 $-1 #
coedge $-1 $225 $455 $453 $456 reversed $340 $-1 #
loop $-1 $-1 $225 $330 #
vertex $-1 $456 $457 #
vertex $-1 $226 $458 #
straight-curve $-1 -41.345232294855741 -32.641170281073421 0 0 0 1 I I #
edge $-1 $349 -7.2849170893121107 $346 7.2849170893121107 $333 $459 forward 7 unknown #
coedge $-1 $228 $453 $449 $460 forward $331 $-1 #
vertex $-1 $229 $461 #
straight-curve $-1 -22.25195491352228 -28.998645038973997 -7.2849170893121107 1 0 0 I I #
coedge $-1 $334 $230 $450 $462 forward $134 $-1 #
vertex $-1 $462 $463 #
straight-curve $-1 -22.25195491352228 -28.998645038973997 7.2849170893121107 -1 0 0 I I #
point $-1 -41.345232294855741 -28.998645038973997 7.2849170893121107 #
point $-1 -41.345232294855741 -28.998645038973997 -7.2849170893121107 #
face $-1 $-1 $362 $32 $-1 $464 reversed single #
loop $-1 $-1 $358 $235 #
plane-surface $-1 0 0 -7.2849170893121107 0 0 1 1 0 0 forward_v I I I I #
coedge $-1 $238 $248 $360 $465 forward $142 $-1 #
edge $-1 $364 -25.410632445711098 $249 -19.093277381333461 $238 $466 forward 7 unknown #
coedge $-1 $467 $366 $239 $359 forward $354 $-1 #
edge $-1 $368 19.093277381333461 $363 25.410632445711098 $358 $468 forward 7 unknown #
coedge $-1 $469 $241 $356 $465 reversed $362 $-1 #
coedge $-1 $241 $469 $467 $470 reversed $362 $-1 #
loop $-1 $-1 $241 $353 #
vertex $-1 $470 $471 #
vertex $-1 $242 $472 #
straight-curve $-1 47.662587359233378 -28.998645038973997 0 0 0 1 I I #
coedge $-1 $358 $473 $243 $367 forward $354 $-1 #
edge $-1 $372 -17.231216451061567 $368 -13.588691208962143 $366 $474 forward 7 unknown #
vertex $-1 $367 $475 #
straight-curve $-1 41.345232294855741 -28.998645038973997 0 0 0 -1 I I #
coedge $-1 $476 $246 $473 $477 reversed $236 $-1 #
coedge $-1 $246 $476 $248 $374 reversed $236 $-1 #
vertex $-1 $367 $478 #
straight-curve $-1 41.345232294855741 -32.641170281073421 0 0 0 -1 I I #
edge $-1 $250 41.345232294855741 $479 47.662587359233378 $371 $480 forward 7 unknown #
point $-1 41.345232294855741 -28.998645038973997 7.2849170893121107 #
point $-1 41.345232294855741 -32.641170281073421 7.2849170893121107 #
plane-surface $-1 0 0 7.2849170893121107 0 0 1 1 0 0 forward_v I I I I #
coedge $-1 $388 $387 $380 $481 forward $253 $-1 #
coedge $-1 $380 $255 $257 $384 reversed $150 $-1 #
coedge $-1 $255 $379 $378 $481 reversed $150 $-1 #
coedge $-1 $263 $258 $255 $382 forward $264 $-1 #
edge $-1 $385 -4.6912705071176077 $482 -1.1421359299436133 $381 $483 forward 7 unknown #
coedge $-1 $257 $256 $388 $484 reversed $93 $-1 #
edge $-1 $485 -65.282340562146828 $385 -59.517590321436657 $379 $486 forward 7 unknown #
vertex $-1 $259 $487 #
straight-curve $-1 -5.0908453305089516 29.092035703899427 7.2849170893121062 1 0 0 I I #
coedge $-1 $378 $260 $263 $392 reversed $253 $-1 #
coedge $-1 $260 $378 $383 $484 forward $253 $-1 #
vertex $-1 $261 $488 #
straight-curve $-1 -20.176746313877207 32.641170281073421 56.436727739183588 0 0 1 I I #
straight-curve $-1 -20.176746313877207 -7.550651132410934 54.185418782646465 0 0.61566146476048833 -0.78801076186113728 I I #
edge $-1 $482 0.1866350081585999 $265 20.176746313877207 $387 $489 forward 7 unknown #
point $-1 -20.176746313877207 32.641170281073421 7.2849170893121107 #
point $-1 -20.176746313877207 29.092035703899427 7.2849170893121098 #
edge $-1 $490 1 $490 0 $268 $-1 forward 7 unknown #
vertex $-1 $269 $491 #
ellipse-curve $-1 -16.178724052733489 28.1529235476666 2.8934157881590932 0 0.78801076186113728 0.61566146476048833 1 0 0 1 I I #
point $-1 -15.178724052733489 30.86660299248641 5.0135744747515041 #
edge $-1 $492 1 $492 0 $272 $-1 forward 7 unknown #
vertex $-1 $273 $493 #
ellipse-curve $-1 -10.181690661017903 28.1529235476666 2.8934157881590932 0 0.78801076186113728 0.61566146476048833 1 0 0 1 I I #
point $-1 -9.1816906610179032 30.86660299248641 5.0135744747515041 #
edge $-1 $494 1 $494 0 $276 $-1 forward 7 unknown #
vertex $-1 $277 $495 #
ellipse-curve $-1 -4.1846572693023205 28.1529235476666 2.8934157881590932 0 0.78801076186113728 0.61566146476048833 1 0 0 1 I I #
point $-1 -3.1846572693023205 30.86660299248641 5.0135744747515041 #
loop $-1 $-1 $412 $280 #
plane-surface $-1 41.345232294855741 -30.819907660023709 0 1 0 0 0 0 -1 forward_v I I I I #
coedge $-1 $283 $417 $496 $497 forward $179 $-1 #
coedge $-1 $285 $284 $283 $411 reversed $112 $-1 #
edge $-1 $498 -22.784923838800392 $418 -14.335693073310321 $283 $499 forward 7 unknown #
coedge $-1 $496 $500 $285 $413 forward $407 $-1 #
edge $-1 $415 1.2550642570661905 $498 5.0608468382636964 $412 $501 forward 7 unknown #
coedge $-1 $291 $286 $500 $502 forward $281 $-1 #
vertex $-1 $502 $503 #
straight-curve $-1 18.560308456055356 -32.641170281073421 4.0227246773100847 1 0 0 I I #
coedge $-1 $409 $288 $291 $421 forward $179 $-1 #
vertex $-1 $289 $504 #
straight-curve $-1 32.896001529365677 -57.175396865160053 7.2849170893121098 0 -1 0 I I #
straight-curve $-1 32.896001529365677 -32.641170281073428 4.022724677310066 0 0.51503806187062418 0.85716730853699208 I I #
edge $-1 $292 32.896001529365677 $505 41.345232294855741 $291 $506 forward 7 unknown #
point $-1 32.896001529365677 -32.641170281073421 7.2849170893121107 #
point $-1 32.896001529365677 -32.641170281073421 4.0227246773100775 #
edge $-1 $507 1 $507 0 $295 $-1 forward 7 unknown #
vertex $-1 $296 $508 #
ellipse-curve $-1 35.310067462362831 -30.670423602398124 5.058557159408922 0 -0.85716730853699208 0.51503806187062418 0.5 0 0 1 I I #
point $-1 35.810067462362831 -31.661108838812947 5.6538208833110923 #
edge $-1 $509 1 $509 0 $299 $-1 forward 7 unknown #
vertex $-1 $300 $510 #
ellipse-curve $-1 38.93116636185858 -30.670423602398124 5.058557159408922 0 -0.85716730853699208 0.51503806187062418 0.5 0 0 1 I I #
point $-1 39.43116636185858 -31.661108838812947 5.6538208833110923 #
plane-surface $-1 47.662587359233378 0 0 -1 0 0 0 0 1 forward_v I I I I #
coedge $-1 $308 $306 $310 $437 reversed $201 $-1 #
edge $-1 $321 -7.2849170893121107 $439 7.2849170893121107 $320 $511 forward 7 unknown #
vertex $-1 $437 $512 #
straight-curve $-1 -47.662587359233378 -32.641170281073421 0 0 0 -1 I I #
edge $-1 $435 -32.641170281073421 $439 32.641170281073421 $433 $513 forward 7 unknown #
straight-curve $-1 0 -32.641170281073421 -7.2849170893121107 -1 0 0 I I #
vertex $-1 $313 $514 #
straight-curve $-1 0 32.641170281073421 -7.2849170893121107 1 0 0 I I #
point $-1 47.662587359233378 32.641170281073421 -7.2849170893121107 #
point $-1 47.662587359233378 -32.641170281073421 -7.2849170893121107 #
straight-curve $-1 -47.662587359233378 0 7.2849170893121107 0 -1 0 I I #
point $-1 -47.662587359233378 32.641170281073421 7.2849170893121107 #
point $-1 -47.662587359233378 -32.641170281073421 7.2849170893121107 #
straight-curve $-1 47.662587359233378 -32.641170281073421 0 0 0 -1 I I #
straight-curve $-1 47.662587359233378 32.641170281073421 0 0 0 -1 I I #
plane-surface $-1 0 -32.641170281073421 0 0 1 0 0 0 1 forward_v I I I I #
coedge $-1 $515 $333 $345 $460 reversed $220 $-1 #
coedge $-1 $333 $515 $348 $462 reversed $220 $-1 #
edge $-1 $516 -47.662587359233378 $342 -41.345232294855741 $338 $517 forward 7 unknown #
straight-curve $-1 -41.345232294855741 -15.409953830011855 7.2849170893121107 0 1 0 I I #
coedge $-1 $345 $336 $339 $456 forward $331 $-1 #
straight-curve $-1 -41.345232294855741 -15.409953830011855 -7.2849170893121107 0 -1 0 I I #
coedge $-1 $339 $338 $515 $518 forward $340 $-1 #
edge $-1 $341 41.345232294855741 $519 47.662587359233378 $339 $520 forward 7 unknown #
point $-1 -41.345232294855741 -32.641170281073421 -7.2849170893121107 #
point $-1 -41.345232294855741 -32.641170281073421 7.2849170893121107 #
straight-curve $-1 -47.662587359233378 -28.998645038973997 0 0 0 -1 I I #
edge $-1 $519 -32.641170281073421 $346 -28.998645038973997 $449 $521 forward 7 unknown #
point $-1 -47.662587359233378 -28.998645038973997 -7.2849170893121107 #
edge $-1 $349 28.998645038973997 $516 32.641170281073421 $450 $522 forward 7 unknown #
point $-1 -47.662587359233378 -28.998645038973997 7.2849170893121107 #
plane-surface $-1 47.662587359233378 0 0 -1 0 0 0 0 1 forward_v I I I I #
edge $-1 $479 -32.641170281073421 $364 -28.998645038973997 $360 $523 forward 7 unknown #
straight-curve $-1 22.25195491352228 -28.998645038973997 7.2849170893121107 -1 0 0 I I #
coedge $-1 $473 $358 $361 $470 forward $354 $-1 #
straight-curve $-1 22.25195491352228 -28.998645038973997 -7.2849170893121107 1 0 0 I I #
coedge $-1 $361 $360 $476 $524 forward $362 $-1 #
edge $-1 $363 28.998645038973997 $525 32.641170281073421 $361 $526 forward 7 unknown #
point $-1 47.662587359233378 -28.998645038973997 -7.2849170893121107 #
point $-1 47.662587359233378 -28.998645038973997 7.2849170893121107 #
coedge $-1 $366 $467 $370 $477 forward $354 $-1 #
straight-curve $-1 41.345232294855741 -15.409953830011855 -7.2849170893121107 0 1 0 I I #
point $-1 41.345232294855741 -28.998645038973997 -7.2849170893121107 #
coedge $-1 $371 $370 $469 $524 reversed $236 $-1 #
edge $-1 $525 -47.662587359233378 $372 -41.345232294855741 $370 $527 forward 7 unknown #
point $-1 41.345232294855741 -32.641170281073421 -7.2849170893121107 #
vertex $-1 $465 $528 #
straight-curve $-1 0 -32.641170281073421 7.2849170893121107 1 0 0 I I #
edge $-1 $482 49.151810649871479 $485 53.694495878992669 $378 $529 forward 7 unknown #
vertex $-1 $392 $530 #
straight-curve $-1 -0.1866350081585999 33.783306211017035 7.2849170893121098 0 1 0 I I #
edge $-1 $485 -4.9042103223503517 $389 15.085900983368255 $388 $531 forward 7 unknown #
vertex $-1 $484 $532 #
straight-curve $-1 -0.1866350081585999 -7.550651132410934 54.185418782646465 0 -0.61566146476048833 0.78801076186113728 I I #
point $-1 -0.1866350081585999 29.092035703899427 7.2849170893121098 #
point $-1 -20.176746313877207 32.641170281073421 2.7422318601909197 #
straight-curve $-1 0 32.641170281073421 7.2849170893121107 -1 0 0 I I #
vertex $-1 $395 $533 #
point $-1 -15.178724052733489 28.1529235476666 2.8934157881590932 #
vertex $-1 $399 $534 #
point $-1 -9.1816906610179032 28.1529235476666 2.8934157881590932 #
vertex $-1 $403 $535 #
point $-1 -3.1846572693023205 28.1529235476666 2.8934157881590932 #
coedge $-1 $500 $412 $409 $497 reversed $407 $-1 #
edge $-1 $505 -17.231216451061567 $498 -15.271093566540621 $409 $536 forward 7 unknown #
vertex $-1 $413 $537 #
straight-curve $-1 18.560308456055356 -30.681047396552469 7.2849170893121107 -1 0 0 I I #
coedge $-1 $412 $496 $414 $502 reversed $407 $-1 #
straight-curve $-1 41.345232294855741 -33.287576143555889 2.9469246260396735 0 0.51503806187062429 0.85716730853699219 I I #
edge $-1 $415 4.0227246773100784 $505 7.2849170893121107 $414 $538 forward 7 unknown #
point $-1 41.345232294855741 -32.641170281073421 4.0227246773100784 #
point $-1 32.896001529365677 -30.681047396552476 7.2849170893121107 #
vertex $-1 $502 $539 #
straight-curve $-1 0 -32.641170281073421 7.2849170893121107 1 0 0 I I #
vertex $-1 $424 $540 #
point $-1 35.810067462362831 -30.670423602398124 5.058557159408922 #
vertex $-1 $428 $541 #
point $-1 39.43116636185858 -30.670423602398124 5.058557159408922 #
straight-curve $-1 -47.662587359233378 32.641170281073421 0 0 0 -1 I I #
point $-1 -47.662587359233378 -32.641170281073421 -7.2849170893121107 #
straight-curve $-1 -47.662587359233378 0 -7.2849170893121107 0 1 0 I I #
point $-1 -47.662587359233378 32.641170281073421 -7.2849170893121107 #
coedge $-1 $450 $449 $455 $518 reversed $220 $-1 #
vertex $-1 $462 $542 #
straight-curve $-1 0 -32.641170281073421 7.2849170893121107 1 0 0 I I #
edge $-1 $516 -7.2849170893121107 $519 7.2849170893121107 $515 $543 forward 7 unknown #
vertex $-1 $460 $544 #
straight-curve $-1 0 -32.641170281073421 -7.2849170893121107 -1 0 0 I I #
straight-curve $-1 -47.662587359233378 0 -7.2849170893121107 0 1 0 I I #
straight-curve $-1 -47.662587359233378 0 7.2849170893121107 0 -1 0 I I #
straight-curve $-1 47.662587359233378 0 7.2849170893121107 0 1 0 I I #
edge $-1 $479 -7.2849170893121107 $525 7.2849170893121107 $469 $545 forward 7 unknown #
vertex $-1 $524 $546 #
straight-curve $-1 47.662587359233378 0 -7.2849170893121107 0 -1 0 I I #
straight-curve $-1 0 -32.641170281073421 -7.2849170893121107 -1 0 0 I I #
point $-1 47.662587359233378 -32.641170281073421 7.2849170893121107 #
straight-curve $-1 -0.1866350081585999 32.641170281073421 56.436727739183588 0 0 -1 I I #
point $-1 -0.1866350081585999 32.641170281073421 7.2849170893121107 #
straight-curve $-1 -5.0908453305089516 32.641170281073428 2.7422318601909161 -1 0 0 I I #
point $-1 -0.1866350081585999 32.641170281073421 2.7422318601909197 #
point $-1 -16.178724052733489 27.364912785805462 2.2777543233986051 #
point $-1 -10.181690661017903 27.364912785805462 2.2777543233986051 #
point $-1 -4.1846572693023205 27.364912785805462 2.2777543233986051 #
straight-curve $-1 41.345232294855741 -15.409953830011855 7.2849170893121107 0 1 0 I I #
point $-1 41.345232294855748 -30.681047396552476 7.2849170893121107 #
straight-curve $-1 41.345232294855741 -32.641170281073421 0 0 0 1 I I #
point $-1 41.345232294855741 -32.641170281073421 7.2849170893121107 #
point $-1 35.310067462362831 -30.24183994812963 4.8010381284736106 #
point $-1 38.93116636185858 -30.24183994812963 4.8010381284736106 #
point $-1 -47.662587359233378 -32.641170281073421 7.2849170893121107 #
straight-curve $-1 -47.662587359233378 -32.641170281073421 0 0 0 -1 I I #
point $-1 -47.662587359233378 -32.641170281073421 -7.2849170893121107 #
straight-curve $-1 47.662587359233378 -32.641170281073421 0 0 0 -1 I I #
point $-1 47.662587359233378 -32.641170281073421 -7.2849170893121107 #
End-of-ACIS-data 