500 0 6 0           
7 Unknown 11 ACIS 5.0 NT 24 Thu Mar 25 20:49:11 1999 
-1 9.9999999999999995e-007 1e-010 
body $-1 $6 $-1 $7 #
body $-1 $8 $-1 $9 #
body $-1 $10 $-1 $11 #
body $-1 $12 $-1 $13 #
body $-1 $14 $-1 $15 #
body $-1 $16 $-1 $17 #
lump $-1 $-1 $18 $0 #
transform $-1 1 0 0 0 1 0 0 0 1 79.329813531907106 35.373635227963952 14.498040986998733 1 rotate no_reflect no_shear #
lump $-1 $-1 $19 $1 #
transform $-1 1 0 0 0 1 0 0 0 1 79.329813531907106 35.373635227963952 14.498040986998733 1 rotate no_reflect no_shear #
lump $-1 $-1 $20 $2 #
transform $-1 1 0 0 0 1 0 0 0 1 79.329813531907106 35.373635227963952 14.498040986998733 1 rotate no_reflect no_shear #
lump $-1 $-1 $21 $3 #
transform $-1 1 0 0 0 1 0 0 0 1 79.329813531907106 35.373635227963952 14.498040986998733 1 rotate no_reflect no_shear #
lump $-1 $-1 $22 $4 #
transform $-1 1 0 0 0 1 0 0 0 1 79.329813531907106 35.373635227963952 14.498040986998733 1 rotate no_reflect no_shear #
lump $-1 $-1 $23 $5 #
transform $-1 1 0 0 0 1 0 0 0 1 79.329813531907106 35.373635227963952 14.498040986998733 1 rotate no_reflect no_shear #
shell $-1 $-1 $-1 $24 $-1 $6 #
shell $-1 $-1 $-1 $25 $-1 $8 #
shell $-1 $-1 $-1 $26 $-1 $10 #
shell $-1 $-1 $-1 $27 $-1 $12 #
shell $-1 $-1 $-1 $28 $-1 $14 #
shell $-1 $-1 $-1 $29 $-1 $16 #
face $-1 $30 $31 $18 $-1 $32 forward single #
face $-1 $33 $34 $19 $-1 $35 forward single #
face $-1 $36 $37 $20 $-1 $38 forward single #
face $-1 $39 $40 $21 $-1 $41 reversed single #
face $-1 $42 $43 $22 $-1 $44 forward single #
face $-1 $45 $46 $23 $-1 $47 forward single #
face $-1 $48 $49 $18 $-1 $50 reversed single #
loop $-1 $-1 $51 $24 #
plane-surface $-1 0 0 14.498040986998733 0 0 1 1 0 0 forward_v I I I I #
face $-1 $52 $53 $19 $-1 $54 reversed single #
loop $-1 $-1 $55 $25 #
plane-surface $-1 -70.128324996591331 0 -11.06004916360393 0 0 1 1 0 0 forward_v I I I I #
face $-1 $56 $57 $20 $-1 $58 reversed single #
loop $-1 $-1 $59 $26 #
plane-surface $-1 70.128324996591331 0 -11.06004916360393 0 0 1 1 0 0 forward_v I I I I #
face $-1 $60 $61 $21 $-1 $62 reversed single #
loop $-1 $-1 $63 $27 #
plane-surface $-1 -40.931152078270614 83.16252598596904 175.40483379675135 -1 0 0 0 0.64278761758704617 0.76604443648966558 forward_v I I I I #
face $-1 $64 $65 $22 $-1 $66 forward single #
loop $-1 $67 $68 $28 #
cone-surface $-1 -52.502174854189008 30.638519548564975 10.138685011116053 0 -0.64278761758704617 -0.76604443648966558 1.5 0 0 1 I I 0 1 1.5 forward I I I I #
face $-1 $69 $70 $23 $-1 $71 forward single #
loop $-1 $72 $73 $29 #
cone-surface $-1 -45.559561188637971 30.638519548564975 10.138685011116053 0 -0.64278761758704617 -0.76604443648966558 1.5 0 0 1 I I 0 1 1.5 forward I I I I #
face $-1 $74 $75 $18 $-1 $76 reversed single #
loop $-1 $-1 $77 $30 #
plane-surface $-1 0 0 -14.498040986998733 0 0 1 1 0 0 forward_v I I I I #
coedge $-1 $78 $79 $80 $81 forward $31 $-1 #
face $-1 $82 $83 $19 $-1 $84 reversed single #
loop $-1 $-1 $85 $33 #
plane-surface $-1 -60.926836461275549 0 -12.779045075301331 -1 0 0 0 0 1 forward_v I I I I #
coedge $-1 $86 $87 $88 $89 forward $34 $-1 #
face $-1 $90 $91 $20 $-1 $92 reversed single #
loop $-1 $-1 $93 $36 #
plane-surface $-1 60.926836461275556 0 -12.779045075301331 1 0 0 0 0 -1 forward_v I I I I #
coedge $-1 $94 $95 $96 $97 reversed $37 $-1 #
face $-1 $98 $99 $21 $-1 $100 reversed single #
loop $-1 $-1 $101 $39 #
plane-surface $-1 -49.030868021413482 -18.821917701629332 53.864509188991292 0 0.64278761758704617 0.76604443648966558 1 0 0 forward_v I I I I #
coedge $-1 $102 $103 $104 $105 reversed $40 $-1 #
face $-1 $-1 $106 $22 $-1 $107 forward single #
loop $-1 $108 $109 $42 #
cone-surface $-1 -52.502174854189008 29.06152515835489 8.2592963204459888 0 -0.64278761758704617 -0.76604443648966558 0.75 0 0 1 I I -0.70710678118654668 0.70710678118654835 0.75 forward I I I I #
loop $-1 $-1 $110 $28 #
coedge $-1 $68 $68 $111 $112 reversed $43 $-1 #
face $-1 $-1 $113 $23 $-1 $114 forward single #
loop $-1 $115 $116 $45 #
cone-surface $-1 -45.559561188637971 29.06152515835489 8.2592963204459888 0 -0.64278761758704617 -0.76604443648966558 0.75 0 0 1 I I -0.70710678118654668 0.70710678118654835 0.75 forward I I I I #
loop $-1 $-1 $117 $29 #
coedge $-1 $73 $73 $118 $119 reversed $46 $-1 #
face $-1 $120 $121 $18 $-1 $122 reversed single #
loop $-1 $-1 $123 $48 #
plane-surface $-1 0 -35.373635227963952 0 0 1 0 0 0 1 forward_v I I I I #
coedge $-1 $124 $125 $126 $127 forward $49 $-1 #
coedge $-1 $128 $51 $129 $130 forward $31 $-1 #
coedge $-1 $51 $128 $131 $132 forward $31 $-1 #
coedge $-1 $133 $134 $51 $81 reversed $135 $-1 #
edge $-1 $136 -35.373635227963952 $137 35.373635227963952 $80 $138 forward 7 unknown #
face $-1 $139 $140 $19 $-1 $141 reversed single #
loop $-1 $-1 $142 $52 #
plane-surface $-1 0 0 -14.498040986998733 0 0 1 1 0 0 forward_v I I I I #
coedge $-1 $143 $88 $144 $145 reversed $53 $-1 #
coedge $-1 $146 $55 $147 $148 reversed $34 $-1 #
coedge $-1 $55 $146 $149 $150 reversed $34 $-1 #
coedge $-1 $85 $151 $55 $89 reversed $53 $-1 #
edge $-1 $152 -35.373635227963952 $153 35.373635227963952 $88 $154 forward 7 unknown #
face $-1 $155 $156 $20 $-1 $157 reversed single #
loop $-1 $-1 $158 $56 #
plane-surface $-1 0 -35.373635227963952 0 0 1 0 0 0 1 forward_v I I I I #
coedge $-1 $159 $160 $161 $162 reversed $57 $-1 #
coedge $-1 $163 $59 $164 $165 reversed $37 $-1 #
coedge $-1 $59 $163 $158 $166 reversed $37 $-1 #
coedge $-1 $167 $168 $59 $97 forward $169 $-1 #
edge $-1 $170 -35.373635227963952 $171 35.373635227963952 $96 $172 forward 7 unknown #
face $-1 $173 $174 $21 $-1 $175 reversed single #
loop $-1 $-1 $176 $60 #
plane-surface $-1 -57.130583964556351 83.16252598596904 175.40483379675135 1 0 0 0 -0.64278761758704617 -0.76604443648966558 forward_v I I I I #
coedge $-1 $177 $178 $179 $180 reversed $61 $-1 #
coedge $-1 $103 $63 $181 $182 reversed $40 $-1 #
coedge $-1 $63 $102 $177 $183 reversed $40 $-1 #
coedge $-1 $179 $184 $63 $105 forward $174 $-1 #
edge $-1 $185 73.204375911376943 $186 79.313377136536715 $104 $187 forward 7 unknown #
loop $-1 $-1 $111 $64 #
plane-surface $-1 -49.030868021413482 -18.821917701629332 53.864509188991292 0 0.64278761758704617 0.76604443648966558 1 0 0 forward_v I I I I #
loop $-1 $-1 $188 $42 #
coedge $-1 $109 $109 $110 $189 reversed $65 $-1 #
coedge $-1 $110 $110 $109 $189 forward $67 $-1 #
coedge $-1 $111 $111 $68 $112 forward $106 $-1 #
edge $-1 $190 -5.320556154819956e-016 $190 6.2831853071795996 $111 $191 forward 7 unknown #
loop $-1 $-1 $118 $69 #
plane-surface $-1 -49.030868021413482 -18.821917701629332 53.864509188991292 0 0.64278761758704617 0.76604443648966558 1 0 0 forward_v I I I I #
loop $-1 $-1 $192 $45 #
coedge $-1 $116 $116 $117 $193 reversed $70 $-1 #
coedge $-1 $117 $117 $116 $193 forward $72 $-1 #
coedge $-1 $118 $118 $73 $119 forward $113 $-1 #
edge $-1 $194 -5.320556154819956e-016 $194 6.2831853071795996 $118 $195 forward 7 unknown #
face $-1 $196 $197 $18 $-1 $198 reversed single #
loop $-1 $-1 $199 $74 #
plane-surface $-1 -79.329813531907106 0 0 1 0 0 0 0 -1 forward_v I I I I #
coedge $-1 $200 $131 $201 $202 forward $75 $-1 #
coedge $-1 $203 $77 $200 $204 forward $49 $-1 #
coedge $-1 $77 $203 $205 $206 forward $49 $-1 #
coedge $-1 $134 $133 $77 $127 reversed $135 $-1 #
edge $-1 $207 -35.373635227963952 $208 35.373635227963952 $126 $209 forward 7 unknown #
coedge $-1 $79 $78 $210 $211 forward $31 $-1 #
coedge $-1 $212 $213 $78 $130 reversed $197 $-1 #
edge $-1 $137 -79.329813531907106 $214 79.329813531907106 $129 $215 forward 7 unknown #
coedge $-1 $123 $216 $79 $132 reversed $75 $-1 #
edge $-1 $217 -79.329813531907106 $136 79.329813531907106 $131 $218 forward 7 unknown #
coedge $-1 $126 $80 $216 $219 forward $135 $-1 #
coedge $-1 $80 $126 $212 $220 reversed $135 $-1 #
loop $-1 $-1 $133 $196 #
vertex $-1 $81 $221 #
vertex $-1 $81 $222 #
straight-curve $-1 79.329813531907106 0 14.498040986998733 0 1 0 I I #
face $-1 $223 $224 $19 $-1 $225 reversed single #
loop $-1 $-1 $144 $82 #
plane-surface $-1 0 -35.373635227963952 0 0 1 0 0 0 1 forward_v I I I I #
coedge $-1 $226 $227 $143 $228 forward $83 $-1 #
coedge $-1 $151 $85 $142 $228 reversed $53 $-1 #
coedge $-1 $149 $229 $85 $145 forward $140 $-1 #
edge $-1 $230 -8.1085184493480682 $152 -4.6705266259532641 $144 $231 forward 7 unknown #
coedge $-1 $87 $86 $232 $233 reversed $34 $-1 #
coedge $-1 $234 $235 $86 $148 forward $236 $-1 #
edge $-1 $237 -44.265651033611441 $153 -25.862673962979883 $147 $238 forward 7 unknown #
coedge $-1 $239 $144 $87 $150 forward $140 $-1 #
edge $-1 $152 25.862673962979883 $240 44.265651033611441 $149 $241 forward 7 unknown #
coedge $-1 $88 $143 $234 $242 reversed $53 $-1 #
vertex $-1 $150 $243 #
vertex $-1 $148 $244 #
straight-curve $-1 -60.926836461275549 0 -11.06004916360393 0 1 0 I I #
face $-1 $245 $246 $20 $-1 $247 reversed single #
loop $-1 $-1 $248 $90 #
plane-surface $-1 0 0 -14.498040986998733 0 0 1 1 0 0 forward_v I I I I #
coedge $-1 $249 $250 $95 $166 forward $91 $-1 #
coedge $-1 $251 $93 $248 $252 reversed $57 $-1 #
coedge $-1 $93 $251 $163 $253 reversed $57 $-1 #
coedge $-1 $164 $254 $93 $162 forward $246 $-1 #
edge $-1 $255 -8.1085184493480682 $256 -4.6705266259532641 $161 $257 forward 7 unknown #
coedge $-1 $95 $94 $160 $253 forward $37 $-1 #
coedge $-1 $258 $161 $94 $165 forward $246 $-1 #
edge $-1 $256 25.862673962979891 $170 44.265651033611441 $164 $259 forward 7 unknown #
edge $-1 $171 -44.265651033611441 $260 -25.862673962979891 $158 $261 forward 7 unknown #
coedge $-1 $262 $96 $250 $263 forward $169 $-1 #
coedge $-1 $96 $262 $258 $264 reversed $169 $-1 #
loop $-1 $-1 $96 $245 #
vertex $-1 $264 $265 #
vertex $-1 $263 $266 #
straight-curve $-1 79.329813531907106 0 -11.06004916360393 0 -1 0 I I #
face $-1 $-1 $267 $21 $-1 $268 forward single #
loop $-1 $-1 $104 $98 #
plane-surface $-1 0 35.373635227963952 0 0 -1 0 0 0 -1 forward_v I I I I #
coedge $-1 $269 $270 $271 $272 reversed $99 $-1 #
coedge $-1 $273 $101 $103 $183 forward $61 $-1 #
coedge $-1 $101 $273 $269 $274 forward $61 $-1 #
coedge $-1 $271 $104 $101 $180 forward $174 $-1 #
edge $-1 $186 16.415718067563873 $275 32.61514995384961 $179 $276 forward 7 unknown #
coedge $-1 $277 $278 $102 $182 forward $267 $-1 #
edge $-1 $279 -13.48805176977897 $185 -6.2076277650205682 $181 $280 forward 7 unknown #
edge $-1 $186 -70.747270455927932 $279 -61.243351808440153 $103 $281 forward 7 unknown #
coedge $-1 $104 $271 $277 $282 reversed $174 $-1 #
vertex $-1 $282 $283 #
vertex $-1 $105 $284 #
straight-curve $-1 -40.931152078270614 35.373635227963952 87.702416898375674 0 0 -1 I I #
coedge $-1 $188 $188 $-1 $285 reversed $108 $-1 #
edge $-1 $286 0 $286 6.2831853071796004 $109 $287 forward 7 unknown #
vertex $-1 $112 $288 #
ellipse-curve $-1 -52.502174854189008 31.733423225584755 11.443540374418841 0 0.64278761758704617 0.76604443648966558 1.5 0 0 1 I I #
coedge $-1 $192 $192 $-1 $289 reversed $115 $-1 #
edge $-1 $290 0 $290 6.2831853071796004 $116 $291 forward 7 unknown #
vertex $-1 $119 $292 #
ellipse-curve $-1 -45.559561188637971 31.733423225584755 11.443540374418841 0 0.64278761758704617 0.76604443648966558 1.5 0 0 1 I I #
face $-1 $-1 $135 $18 $-1 $293 reversed single #
loop $-1 $-1 $212 $120 #
plane-surface $-1 0 35.373635227963952 0 0 -1 0 0 0 -1 forward_v I I I I #
coedge $-1 $294 $210 $213 $295 forward $121 $-1 #
coedge $-1 $216 $123 $124 $204 reversed $75 $-1 #
coedge $-1 $210 $294 $123 $202 reversed $121 $-1 #
edge $-1 $217 -14.498040986998733 $296 14.498040986998733 $201 $297 forward 7 unknown #
coedge $-1 $125 $124 $294 $298 forward $49 $-1 #
edge $-1 $208 -79.329813531907106 $296 79.329813531907106 $200 $299 forward 7 unknown #
coedge $-1 $213 $212 $125 $206 reversed $197 $-1 #
edge $-1 $300 -79.329813531907106 $207 79.329813531907106 $205 $301 forward 7 unknown #
vertex $-1 $127 $302 #
vertex $-1 $219 $303 #
straight-curve $-1 79.329813531907106 0 -14.498040986998733 0 -1 0 I I #
coedge $-1 $199 $201 $128 $211 reversed $121 $-1 #
edge $-1 $214 -35.373635227963952 $217 35.373635227963952 $210 $304 forward 7 unknown #
coedge $-1 $205 $129 $134 $220 forward $197 $-1 #
coedge $-1 $129 $205 $199 $295 reversed $197 $-1 #
vertex $-1 $130 $305 #
straight-curve $-1 0 35.373635227963952 14.498040986998733 -1 0 0 I I #
coedge $-1 $131 $200 $133 $219 reversed $75 $-1 #
vertex $-1 $211 $306 #
straight-curve $-1 0 -35.373635227963952 14.498040986998733 1 0 0 I I #
edge $-1 $136 -14.498040986998733 $208 14.498040986998733 $133 $307 forward 7 unknown #
edge $-1 $137 -14.498040986998733 $207 14.498040986998733 $134 $308 forward 7 unknown #
point $-1 79.329813531907106 -35.373635227963952 14.498040986998733 #
point $-1 79.329813531907106 35.373635227963952 14.498040986998733 #
face $-1 $-1 $236 $19 $-1 $309 reversed single #
loop $-1 $-1 $232 $139 #
plane-surface $-1 -79.329813531907106 0 0 1 0 0 0 0 -1 forward_v I I I I #
coedge $-1 $310 $142 $229 $311 forward $83 $-1 #
coedge $-1 $142 $310 $312 $313 forward $83 $-1 #
edge $-1 $314 -35.373635227963952 $230 35.373635227963952 $142 $315 forward 7 unknown #
coedge $-1 $144 $239 $226 $311 reversed $140 $-1 #
vertex $-1 $311 $316 #
straight-curve $-1 -60.926836461275549 -35.373635227963952 -6.3895225376506657 0 0 1 I I #
coedge $-1 $317 $318 $146 $233 forward $224 $-1 #
edge $-1 $240 -35.373635227963952 $237 35.373635227963952 $232 $319 forward 7 unknown #
coedge $-1 $312 $147 $151 $242 forward $236 $-1 #
coedge $-1 $147 $312 $317 $320 reversed $236 $-1 #
loop $-1 $-1 $234 $223 #
vertex $-1 $320 $321 #
straight-curve $-1 -35.064162498295666 35.373635227963952 -11.06004916360393 1 0 0 I I #
coedge $-1 $229 $149 $318 $322 forward $140 $-1 #
vertex $-1 $322 $323 #
straight-curve $-1 -35.064162498295666 -35.373635227963952 -11.06004916360393 -1 0 0 I I #
edge $-1 $153 4.6705266259532641 $314 8.1085184493480682 $234 $324 forward 7 unknown #
point $-1 -60.926836461275549 -35.373635227963952 -11.06004916360393 #
point $-1 -60.926836461275549 35.373635227963952 -11.06004916360393 #
face $-1 $-1 $169 $20 $-1 $325 reversed single #
loop $-1 $-1 $164 $155 #
plane-surface $-1 0 35.373635227963952 0 0 -1 0 0 0 -1 forward_v I I I I #
coedge $-1 $326 $327 $159 $252 forward $156 $-1 #
coedge $-1 $328 $158 $251 $329 forward $91 $-1 #
coedge $-1 $158 $328 $167 $263 reversed $91 $-1 #
coedge $-1 $160 $159 $249 $329 reversed $57 $-1 #
edge $-1 $330 -35.373635227963952 $255 35.373635227963952 $248 $331 forward 7 unknown #
edge $-1 $256 -35.373635227963952 $260 35.373635227963952 $160 $332 forward 7 unknown #
coedge $-1 $161 $258 $326 $333 reversed $246 $-1 #
vertex $-1 $333 $334 #
vertex $-1 $165 $335 #
straight-curve $-1 60.926836461275556 35.373635227963952 -6.3895225376506657 0 0 1 I I #
coedge $-1 $254 $164 $168 $264 forward $246 $-1 #
straight-curve $-1 35.064162498295666 35.373635227963952 -11.06004916360393 1 0 0 I I #
vertex $-1 $166 $336 #
straight-curve $-1 35.064162498295666 -35.373635227963952 -11.06004916360393 -1 0 0 I I #
coedge $-1 $168 $167 $337 $338 reversed $169 $-1 #
edge $-1 $171 11.06004916360393 $339 14.498040986998733 $167 $340 forward 7 unknown #
edge $-1 $170 11.06004916360393 $341 14.498040986998733 $168 $342 forward 7 unknown #
point $-1 79.329813531907106 35.373635227963952 -11.06004916360393 #
point $-1 79.329813531907106 -35.373635227963952 -11.06004916360393 #
loop $-1 $-1 $181 $173 #
plane-surface $-1 0 0 14.498040986998733 0 0 1 1 0 0 forward_v I I I I #
coedge $-1 $270 $176 $178 $274 reversed $99 $-1 #
coedge $-1 $176 $269 $343 $344 reversed $99 $-1 #
coedge $-1 $184 $179 $176 $272 forward $174 $-1 #
edge $-1 $275 -79.313377136536715 $345 -73.204375911376943 $271 $346 forward 7 unknown #
coedge $-1 $178 $177 $278 $347 reversed $61 $-1 #
edge $-1 $348 61.243351808440153 $275 70.747270455927932 $269 $349 forward 7 unknown #
vertex $-1 $180 $350 #
straight-curve $-1 -24.515434010706741 35.373635227963952 8.3890397618389585 -1 0 0 I I #
coedge $-1 $343 $181 $184 $282 forward $267 $-1 #
coedge $-1 $181 $343 $273 $347 forward $267 $-1 #
vertex $-1 $182 $351 #
straight-curve $-1 -40.931152078270614 41.58126299298452 14.498040986998731 0 1 0 I I #
straight-curve $-1 -40.931152078270614 -18.821917701629332 53.864509188991292 0 -0.76604443648966558 0.64278761758704617 I I #
edge $-1 $185 40.931152078270614 $345 57.130583964556351 $184 $352 forward 7 unknown #
point $-1 -40.931152078270614 35.373635227963952 14.498040986998733 #
point $-1 -40.931152078270614 35.373635227963945 8.3890397618389585 #
edge $-1 $353 1 $353 0 $188 $-1 forward 7 unknown #
vertex $-1 $189 $354 #
ellipse-curve $-1 -52.502174854189008 29.543615871545175 8.8338296478132392 0 0.64278761758704617 0.76604443648966558 1.5 0 0 1 I I #
point $-1 -51.002174854189008 31.733423225584776 11.443540374418868 #
edge $-1 $355 1 $355 0 $192 $-1 forward 7 unknown #
vertex $-1 $193 $356 #
ellipse-curve $-1 -45.559561188637971 29.543615871545175 8.8338296478132392 0 0.64278761758704617 0.76604443648966558 1.5 0 0 1 I I #
point $-1 -44.059561188637971 31.733423225584776 11.443540374418868 #
plane-surface $-1 79.329813531907106 0 0 -1 0 0 0 0 1 forward_v I I I I #
coedge $-1 $201 $199 $203 $298 reversed $121 $-1 #
edge $-1 $214 -14.498040986998733 $300 14.498040986998733 $213 $357 forward 7 unknown #
vertex $-1 $298 $358 #
straight-curve $-1 -79.329813531907106 -35.373635227963952 0 0 0 -1 I I #
edge $-1 $296 -35.373635227963952 $300 35.373635227963952 $294 $359 forward 7 unknown #
straight-curve $-1 0 -35.373635227963952 -14.498040986998733 -1 0 0 I I #
vertex $-1 $206 $360 #
straight-curve $-1 0 35.373635227963952 -14.498040986998733 1 0 0 I I #
point $-1 79.329813531907106 35.373635227963952 -14.498040986998733 #
point $-1 79.329813531907106 -35.373635227963952 -14.498040986998733 #
straight-curve $-1 -79.329813531907106 0 14.498040986998733 0 -1 0 I I #
point $-1 -79.329813531907106 35.373635227963952 14.498040986998733 #
point $-1 -79.329813531907106 -35.373635227963952 14.498040986998733 #
straight-curve $-1 79.329813531907106 -35.373635227963952 0 0 0 -1 I I #
straight-curve $-1 79.329813531907106 35.373635227963952 0 0 0 -1 I I #
plane-surface $-1 0 35.373635227963952 0 0 -1 0 0 0 -1 forward_v I I I I #
coedge $-1 $227 $226 $361 $362 forward $83 $-1 #
edge $-1 $230 60.926836461275549 $363 79.329813531907106 $229 $364 forward 7 unknown #
coedge $-1 $235 $234 $227 $313 reversed $236 $-1 #
edge $-1 $365 -79.329813531907106 $314 -60.926836461275549 $312 $366 forward 7 unknown #
vertex $-1 $242 $367 #
straight-curve $-1 -60.926836461275549 0 -14.498040986998733 0 -1 0 I I #
point $-1 -60.926836461275549 -35.373635227963952 -14.498040986998733 #
coedge $-1 $361 $232 $235 $320 forward $224 $-1 #
coedge $-1 $232 $361 $239 $322 reversed $224 $-1 #
straight-curve $-1 -79.329813531907106 0 -11.06004916360393 0 1 0 I I #
edge $-1 $237 11.06004916360393 $365 14.498040986998733 $235 $368 forward 7 unknown #
point $-1 -79.329813531907106 35.373635227963952 -11.06004916360393 #
edge $-1 $240 11.06004916360393 $363 14.498040986998733 $318 $369 forward 7 unknown #
point $-1 -79.329813531907106 -35.373635227963952 -11.06004916360393 #
straight-curve $-1 -60.926836461275549 35.373635227963952 -6.3895225376506657 0 0 -1 I I #
plane-surface $-1 79.329813531907106 0 0 -1 0 0 0 0 1 forward_v I I I I #
coedge $-1 $337 $248 $254 $333 forward $156 $-1 #
coedge $-1 $248 $337 $328 $370 forward $156 $-1 #
coedge $-1 $250 $249 $327 $370 reversed $91 $-1 #
edge $-1 $260 4.6705266259532641 $330 8.1085184493480682 $249 $371 forward 7 unknown #
vertex $-1 $252 $372 #
straight-curve $-1 60.926836461275556 0 -14.498040986998733 0 1 0 I I #
straight-curve $-1 60.926836461275556 0 -11.06004916360393 0 -1 0 I I #
edge $-1 $255 60.926836461275556 $341 79.329813531907106 $254 $373 forward 7 unknown #
point $-1 60.926836461275556 35.373635227963952 -14.498040986998733 #
point $-1 60.926836461275556 35.373635227963952 -11.06004916360393 #
point $-1 60.926836461275556 -35.373635227963952 -11.06004916360393 #
coedge $-1 $327 $326 $262 $338 forward $156 $-1 #
edge $-1 $341 -35.373635227963952 $339 35.373635227963952 $262 $374 forward 7 unknown #
vertex $-1 $263 $375 #
straight-curve $-1 79.329813531907106 -35.373635227963952 0 0 0 -1 I I #
vertex $-1 $338 $376 #
straight-curve $-1 79.329813531907106 35.373635227963952 0 0 0 -1 I I #
coedge $-1 $278 $277 $270 $344 forward $267 $-1 #
edge $-1 $345 6.2076277650205682 $348 13.48805176977897 $343 $377 forward 7 unknown #
vertex $-1 $344 $378 #
straight-curve $-1 -57.130583964556351 35.373635227963952 87.702416898375674 0 0 1 I I #
edge $-1 $348 -32.61514995384961 $279 -16.415718067563873 $278 $379 forward 7 unknown #
vertex $-1 $347 $380 #
straight-curve $-1 -57.130583964556351 -18.821917701629332 53.864509188991292 0 0.76604443648966558 -0.64278761758704617 I I #
point $-1 -57.130583964556351 35.373635227963945 8.3890397618389585 #
point $-1 -40.931152078270614 28.09321122320555 14.498040986998731 #
straight-curve $-1 0 35.373635227963952 14.498040986998733 -1 0 0 I I #
vertex $-1 $285 $381 #
point $-1 -51.002174854189008 29.543615871545175 8.8338296478132392 #
vertex $-1 $289 $382 #
point $-1 -44.059561188637971 29.543615871545175 8.8338296478132392 #
straight-curve $-1 -79.329813531907106 35.373635227963952 0 0 0 -1 I I #
point $-1 -79.329813531907106 -35.373635227963952 -14.498040986998733 #
straight-curve $-1 -79.329813531907106 0 -14.498040986998733 0 1 0 I I #
point $-1 -79.329813531907106 35.373635227963952 -14.498040986998733 #
coedge $-1 $318 $317 $310 $362 reversed $224 $-1 #
edge $-1 $363 -35.373635227963952 $365 35.373635227963952 $361 $383 forward 7 unknown #
vertex $-1 $362 $384 #
straight-curve $-1 0 -35.373635227963952 -14.498040986998733 -1 0 0 I I #
vertex $-1 $313 $385 #
straight-curve $-1 0 35.373635227963952 -14.498040986998733 1 0 0 I I #
point $-1 -60.926836461275549 35.373635227963952 -14.498040986998733 #
straight-curve $-1 -79.329813531907106 35.373635227963952 0 0 0 -1 I I #
straight-curve $-1 -79.329813531907106 -35.373635227963952 0 0 0 -1 I I #
edge $-1 $339 -79.329813531907106 $330 -60.926836461275556 $328 $386 forward 7 unknown #
straight-curve $-1 60.926836461275556 -35.373635227963952 -6.3895225376506657 0 0 -1 I I #
point $-1 60.926836461275556 -35.373635227963952 -14.498040986998733 #
straight-curve $-1 0 35.373635227963952 -14.498040986998733 1 0 0 I I #
straight-curve $-1 79.329813531907106 0 -14.498040986998733 0 -1 0 I I #
point $-1 79.329813531907106 -35.373635227963952 -14.498040986998733 #
point $-1 79.329813531907106 35.373635227963952 -14.498040986998733 #
straight-curve $-1 -57.130583964556351 41.58126299298452 14.498040986998731 0 -1 0 I I #
point $-1 -57.130583964556351 35.373635227963952 14.498040986998733 #
straight-curve $-1 -24.515434010706741 28.093211223205547 14.498040986998731 1 0 0 I I #
point $-1 -57.130583964556351 28.09321122320555 14.498040986998731 #
point $-1 -52.502174854189008 28.579434445164605 7.6847629930787384 #
point $-1 -45.559561188637971 28.579434445164605 7.6847629930787384 #
straight-curve $-1 -79.329813531907106 0 -14.498040986998733 0 1 0 I I #
point $-1 -79.329813531907106 -35.373635227963952 -14.498040986998733 #
point $-1 -79.329813531907106 35.373635227963952 -14.498040986998733 #
straight-curve $-1 0 -35.373635227963952 -14.498040986998733 -1 0 0 I I #
End-of-ACIS-data 