500 0 14 0           
7 Unknown 11 ACIS 5.0 NT 24 Fri Mar 26 01:43:12 1999 
-1 9.9999999999999995e-007 1e-010 
body $-1 $14 $-1 $15 #
body $-1 $16 $-1 $17 #
body $-1 $18 $-1 $19 #
body $-1 $20 $-1 $21 #
body $-1 $22 $-1 $23 #
body $-1 $24 $-1 $25 #
body $-1 $26 $-1 $27 #
body $-1 $28 $-1 $29 #
body $-1 $30 $-1 $31 #
body $-1 $32 $-1 $33 #
body $-1 $34 $-1 $35 #
body $-1 $36 $-1 $37 #
body $-1 $38 $-1 $39 #
body $-1 $40 $-1 $41 #
lump $-1 $-1 $42 $0 #
transform $-1 1 0 0 0 1 0 0 0 1 47.350077822199161 20.110524705831519 6.6497238694501402 1 rotate no_reflect no_shear #
lump $-1 $-1 $43 $1 #
transform $-1 1 0 0 0 1 0 0 0 1 47.350077822199161 20.110524705831519 6.6497238694501402 1 rotate no_reflect no_shear #
lump $-1 $-1 $44 $2 #
transform $-1 1 0 0 0 1 0 0 0 1 47.350077822199161 20.110524705831519 6.6497238694501402 1 rotate no_reflect no_shear #
lump $-1 $-1 $45 $3 #
transform $-1 1 0 0 0 1 0 0 0 1 47.350077822199161 20.110524705831519 6.6497238694501402 1 rotate no_reflect no_shear #
lump $-1 $-1 $46 $4 #
transform $-1 1 0 0 0 1 0 0 0 1 47.350077822199161 20.110524705831519 6.6497238694501402 1 rotate no_reflect no_shear #
lump $-1 $-1 $47 $5 #
transform $-1 1 0 0 0 1 0 0 0 1 47.350077822199161 20.110524705831519 6.6497238694501402 1 rotate no_reflect no_shear #
lump $-1 $-1 $48 $6 #
transform $-1 1 0 0 0 1 0 0 0 1 47.350077822199161 20.110524705831519 6.6497238694501402 1 rotate no_reflect no_shear #
lump $-1 $-1 $49 $7 #
transform $-1 1 0 0 0 1 0 0 0 1 47.350077822199161 20.110524705831519 6.6497238694501402 1 rotate no_reflect no_shear #
lump $-1 $-1 $50 $8 #
transform $-1 1 0 0 0 1 0 0 0 1 47.350077822199161 20.110524705831519 6.6497238694501402 1 rotate no_reflect no_shear #
lump $-1 $-1 $51 $9 #
transform $-1 1 0 0 0 1 0 0 0 1 47.350077822199161 20.110524705831519 6.6497238694501402 1 rotate no_reflect no_shear #
lump $-1 $-1 $52 $10 #
transform $-1 1 0 0 0 1 0 0 0 1 47.350077822199161 20.110524705831519 6.6497238694501402 1 rotate no_reflect no_shear #
lump $-1 $-1 $53 $11 #
transform $-1 1 0 0 0 1 0 0 0 1 47.350077822199161 20.110524705831519 6.6497238694501402 1 rotate no_reflect no_shear #
lump $-1 $-1 $54 $12 #
transform $-1 1 0 0 0 1 0 0 0 1 47.350077822199161 20.110524705831519 6.6497238694501402 1 rotate no_reflect no_shear #
lump $-1 $-1 $55 $13 #
transform $-1 1 0 0 0 1 0 0 0 1 47.350077822199161 20.110524705831519 6.6497238694501402 1 rotate no_reflect no_shear #
shell $-1 $-1 $-1 $56 $-1 $14 #
shell $-1 $-1 $-1 $57 $-1 $16 #
shell $-1 $-1 $-1 $58 $-1 $18 #
shell $-1 $-1 $-1 $59 $-1 $20 #
shell $-1 $-1 $-1 $60 $-1 $22 #
shell $-1 $-1 $-1 $61 $-1 $24 #
shell $-1 $-1 $-1 $62 $-1 $26 #
shell $-1 $-1 $-1 $63 $-1 $28 #
shell $-1 $-1 $-1 $64 $-1 $30 #
shell $-1 $-1 $-1 $65 $-1 $32 #
shell $-1 $-1 $-1 $66 $-1 $34 #
shell $-1 $-1 $-1 $67 $-1 $36 #
shell $-1 $-1 $-1 $68 $-1 $38 #
shell $-1 $-1 $-1 $69 $-1 $40 #
face $-1 $70 $71 $42 $-1 $72 forward single #
face $-1 $73 $74 $43 $-1 $75 reversed single #
face $-1 $76 $77 $44 $-1 $78 forward single #
face $-1 $79 $80 $45 $-1 $81 reversed single #
face $-1 $82 $83 $46 $-1 $84 forward single #
face $-1 $85 $86 $47 $-1 $87 reversed single #
face $-1 $88 $89 $48 $-1 $90 forward single #
face $-1 $91 $92 $49 $-1 $93 forward single #
face $-1 $94 $95 $50 $-1 $96 reversed single #
face $-1 $97 $98 $51 $-1 $99 forward single #
face $-1 $100 $101 $52 $-1 $102 forward single #
face $-1 $103 $104 $53 $-1 $105 reversed single #
face $-1 $106 $107 $54 $-1 $108 forward single #
face $-1 $109 $110 $55 $-1 $111 forward single #
face $-1 $112 $113 $42 $-1 $114 reversed single #
loop $-1 $-1 $115 $56 #
plane-surface $-1 0 0 6.6497238694501402 0 0 1 1 0 0 forward_v I I I I #
face $-1 $116 $117 $43 $-1 $118 reversed single #
loop $-1 $-1 $119 $57 #
plane-surface $-1 -37.050630083298884 -17.848007249310747 0 1 0 0 0 0 -1 forward_v I I I I #
face $-1 $120 $121 $44 $-1 $122 reversed single #
loop $-1 $-1 $123 $58 #
plane-surface $-1 0 20.110524705831519 0 0 -1 0 0 0 -1 forward_v I I I I #
face $-1 $124 $125 $45 $-1 $126 reversed single #
loop $-1 $-1 $127 $59 #
plane-surface $-1 26.39939864131167 3.214868123207312 132.64306446529483 0 -1 0 -0.5877852598018023 0 -0.80901698891910034 forward_v I I I I #
face $-1 $128 $129 $46 $-1 $130 forward single #
loop $-1 $131 $132 $60 #
cone-surface $-1 42.706077638714795 -0.87700621396139766 3.0681183592066201 -0.5877852598018023 0 -0.80901698891910034 0.80901698891910034 0 -0.5877852598018023 1 I I 0 1 1 forward I I I I #
face $-1 $133 $134 $47 $-1 $135 reversed single #
loop $-1 $-1 $136 $61 #
plane-surface $-1 -120.94592211426067 -13.672692188224863 63.163035169072046 0 1 0 -0.77714596973225614 0 0.62932038083071107 forward_v I I I I #
face $-1 $137 $138 $48 $-1 $139 forward single #
loop $-1 $140 $141 $62 #
cone-surface $-1 -45.7130500101363 -12.010692098379387 4.7933503214155611 0.77714596973225614 0 -0.62932038083071107 0.15733009520767777 0 0.19428649243306403 1 I I 0 1 0.25 forward I I I I #
face $-1 $142 $143 $49 $-1 $144 forward single #
loop $-1 $145 $146 $63 #
cone-surface $-1 -45.7130500101363 -9.5176919636111741 4.7933503214155611 0.77714596973225614 0 -0.62932038083071107 0.15733009520767777 0 0.19428649243306403 1 I I 0 1 0.25 forward I I I I #
face $-1 $147 $148 $50 $-1 $149 reversed single #
loop $-1 $-1 $150 $64 #
plane-surface $-1 -120.94592211426067 -4.2353785128430665 63.163035169072046 0 1 0 -0.77714596973225614 0 0.62932038083071107 forward_v I I I I #
face $-1 $151 $152 $51 $-1 $153 forward single #
loop $-1 $154 $155 $65 #
cone-surface $-1 -45.7130500101363 -2.5733784229975925 4.7933503214155611 0.77714596973225614 0 -0.62932038083071107 0.15733009520767777 0 0.19428649243306403 1 I I 0 1 0.25 forward I I I I #
face $-1 $156 $157 $52 $-1 $158 forward single #
loop $-1 $159 $160 $66 #
cone-surface $-1 -45.7130500101363 -0.080378288229379535 4.7933503214155611 0.77714596973225614 0 -0.62932038083071107 0.15733009520767777 0 0.19428649243306403 1 I I 0 1 0.25 forward I I I I #
face $-1 $161 $162 $53 $-1 $163 reversed single #
loop $-1 $-1 $164 $67 #
plane-surface $-1 -120.94592211426067 5.201935162538728 63.163035169072046 0 1 0 -0.77714596973225614 0 0.62932038083071107 forward_v I I I I #
face $-1 $165 $166 $54 $-1 $167 forward single #
loop $-1 $168 $169 $68 #
cone-surface $-1 -45.7130500101363 6.8639352523842021 4.7933503214155611 0.77714596973225614 0 -0.62932038083071107 0.15733009520767777 0 0.19428649243306403 1 I I 0 1 0.25 forward I I I I #
face $-1 $170 $171 $55 $-1 $172 forward single #
loop $-1 $173 $174 $69 #
cone-surface $-1 -45.7130500101363 9.356935387152415 4.7933503214155611 0.77714596973225614 0 -0.62932038083071107 0.15733009520767777 0 0.19428649243306403 1 I I 0 1 0.25 forward I I I I #
face $-1 $175 $176 $42 $-1 $177 reversed single #
loop $-1 $-1 $178 $70 #
plane-surface $-1 0 0 -6.6497238694501402 0 0 1 1 0 0 forward_v I I I I #
coedge $-1 $179 $180 $181 $182 forward $71 $-1 #
face $-1 $183 $184 $43 $-1 $185 reversed single #
loop $-1 $-1 $186 $73 #
plane-surface $-1 -35.550630083298884 -15.585489792789975 0 0 -1 0 0 0 -1 forward_v I I I I #
coedge $-1 $187 $188 $189 $190 forward $74 $-1 #
face $-1 $191 $192 $44 $-1 $193 reversed single #
loop $-1 $-1 $194 $76 #
plane-surface $-1 0 0 -6.6497238694501402 0 0 1 1 0 0 forward_v I I I I #
coedge $-1 $195 $196 $197 $198 forward $77 $-1 #
face $-1 $199 $200 $45 $-1 $201 reversed single #
loop $-1 $-1 $202 $79 #
plane-surface $-1 -29.263956947402114 -0.87700621396139766 56.029029695693552 0.5877852598018023 0 0.80901698891910034 0.80901698891910034 0 -0.5877852598018023 forward_v I I I I #
coedge $-1 $203 $204 $205 $206 reversed $80 $-1 #
face $-1 $-1 $207 $46 $-1 $208 forward single #
loop $-1 $209 $210 $82 #
cone-surface $-1 42.092810981117999 -0.87700621396139766 2.2240292357387492 -0.5877852598018023 0 -0.80901698891910034 0.40450849445955017 0 -0.29389262990090115 1 I I -0.70710678118654746 0.70710678118654746 0.5 forward I I I I #
loop $-1 $-1 $211 $60 #
coedge $-1 $132 $132 $212 $213 reversed $83 $-1 #
face $-1 $214 $215 $47 $-1 $216 reversed single #
loop $-1 $-1 $217 $85 #
plane-surface $-1 -47.35007782219914 -10.764192030995281 3.5662971542116821 -0.77714596973225614 0 0.62932038083071107 0.62932038083071107 0 0.77714596973225614 forward_v I I I I #
coedge $-1 $218 $219 $220 $221 reversed $86 $-1 #
face $-1 $-1 $222 $48 $-1 $223 forward single #
loop $-1 $224 $225 $88 #
cone-surface $-1 -45.227333779053637 -12.010692098379387 4.4000250833963666 0.77714596973225614 0 -0.62932038083071107 0.078665047603838884 0 0.097143246216532017 1 I I -0.70710678118654746 0.70710678118654746 0.125 forward I I I I #
loop $-1 $-1 $226 $62 #
coedge $-1 $141 $141 $227 $228 reversed $89 $-1 #
face $-1 $-1 $229 $49 $-1 $230 forward single #
loop $-1 $231 $232 $91 #
cone-surface $-1 -45.227333779053637 -9.5176919636111741 4.4000250833963666 0.77714596973225614 0 -0.62932038083071107 0.078665047603838884 0 0.097143246216532017 1 I I -0.70710678118654746 0.70710678118654746 0.125 forward I I I I #
loop $-1 $-1 $233 $63 #
coedge $-1 $146 $146 $234 $235 reversed $92 $-1 #
face $-1 $236 $237 $50 $-1 $238 reversed single #
loop $-1 $-1 $239 $94 #
plane-surface $-1 -47.35007782219914 -1.3268783556134842 3.5662971542116821 -0.77714596973225614 0 0.62932038083071107 0.62932038083071107 0 0.77714596973225614 forward_v I I I I #
coedge $-1 $240 $241 $242 $243 reversed $95 $-1 #
face $-1 $-1 $244 $51 $-1 $245 forward single #
loop $-1 $246 $247 $97 #
cone-surface $-1 -45.227333779053637 -2.5733784229975925 4.4000250833963666 0.77714596973225614 0 -0.62932038083071107 0.078665047603838884 0 0.097143246216532017 1 I I -0.70710678118654746 0.70710678118654746 0.125 forward I I I I #
loop $-1 $-1 $248 $65 #
coedge $-1 $155 $155 $249 $250 reversed $98 $-1 #
face $-1 $-1 $251 $52 $-1 $252 forward single #
loop $-1 $253 $254 $100 #
cone-surface $-1 -45.227333779053637 -0.080378288229379535 4.4000250833963666 0.77714596973225614 0 -0.62932038083071107 0.078665047603838884 0 0.097143246216532017 1 I I -0.70710678118654746 0.70710678118654746 0.125 forward I I I I #
loop $-1 $-1 $255 $66 #
coedge $-1 $160 $160 $256 $257 reversed $101 $-1 #
face $-1 $258 $259 $53 $-1 $260 reversed single #
loop $-1 $-1 $261 $103 #
plane-surface $-1 -47.35007782219914 8.1104353197683103 3.5662971542116821 -0.77714596973225614 0 0.62932038083071107 0.62932038083071107 0 0.77714596973225614 forward_v I I I I #
coedge $-1 $262 $263 $264 $265 reversed $104 $-1 #
face $-1 $-1 $266 $54 $-1 $267 forward single #
loop $-1 $268 $269 $106 #
cone-surface $-1 -45.227333779053637 6.8639352523842021 4.4000250833963666 0.77714596973225614 0 -0.62932038083071107 0.078665047603838884 0 0.097143246216532017 1 I I -0.70710678118654746 0.70710678118654746 0.125 forward I I I I #
loop $-1 $-1 $270 $68 #
coedge $-1 $169 $169 $271 $272 reversed $107 $-1 #
face $-1 $-1 $273 $55 $-1 $274 forward single #
loop $-1 $275 $276 $109 #
cone-surface $-1 -45.227333779053637 9.356935387152415 4.4000250833963666 0.77714596973225614 0 -0.62932038083071107 0.078665047603838884 0 0.097143246216532017 1 I I -0.70710678118654746 0.70710678118654746 0.125 forward I I I I #
loop $-1 $-1 $277 $69 #
coedge $-1 $174 $174 $278 $279 reversed $110 $-1 #
face $-1 $280 $281 $42 $-1 $282 reversed single #
loop $-1 $-1 $283 $112 #
plane-surface $-1 0 -20.110524705831519 0 0 1 0 0 0 1 forward_v I I I I #
coedge $-1 $284 $285 $286 $287 forward $113 $-1 #
coedge $-1 $288 $115 $289 $290 forward $71 $-1 #
coedge $-1 $115 $288 $291 $292 forward $71 $-1 #
coedge $-1 $293 $294 $115 $182 reversed $295 $-1 #
edge $-1 $296 -20.110524705831519 $297 20.110524705831519 $181 $298 forward 7 unknown #
face $-1 $299 $300 $43 $-1 $301 forward single #
loop $-1 $-1 $302 $116 #
plane-surface $-1 -34.050630083298884 -17.848007249310747 0 -1 0 0 0 0 1 forward_v I I I I #
coedge $-1 $303 $304 $305 $306 forward $117 $-1 #
coedge $-1 $307 $119 $308 $309 reversed $74 $-1 #
coedge $-1 $119 $307 $310 $311 reversed $74 $-1 #
coedge $-1 $304 $303 $119 $190 reversed $117 $-1 #
edge $-1 $312 -6.6497238694501402 $313 6.6497238694501402 $189 $314 forward 7 unknown #
face $-1 $315 $316 $44 $-1 $317 reversed single #
loop $-1 $-1 $318 $120 #
plane-surface $-1 -37.050630083298884 23.699920517965783 0 1 0 0 0 0 -1 forward_v I I I I #
coedge $-1 $319 $320 $196 $321 forward $121 $-1 #
coedge $-1 $322 $123 $323 $324 reversed $77 $-1 #
coedge $-1 $123 $322 $194 $321 reversed $77 $-1 #
coedge $-1 $325 $326 $123 $198 reversed $327 $-1 #
edge $-1 $328 -6.6497238694501402 $329 6.6497238694501402 $197 $330 forward 7 unknown #
face $-1 $331 $332 $45 $-1 $333 forward single #
loop $-1 $-1 $334 $124 #
plane-surface $-1 26.39939864131167 -4.9688805511301073 132.64306446529483 0 1 0 0.5877852598018023 0 0.80901698891910034 forward_v I I I I #
coedge $-1 $335 $336 $337 $338 reversed $125 $-1 #
coedge $-1 $204 $127 $339 $340 reversed $80 $-1 #
coedge $-1 $127 $203 $335 $341 reversed $80 $-1 #
coedge $-1 $337 $342 $127 $206 forward $332 $-1 #
edge $-1 $343 -34.150378501543329 $344 -25.501126189966424 $205 $345 forward 7 unknown #
loop $-1 $-1 $212 $128 #
plane-surface $-1 -29.263956947402114 -0.87700621396139766 56.029029695693552 0.5877852598018023 0 0.80901698891910034 0.80901698891910034 0 -0.5877852598018023 forward_v I I I I #
loop $-1 $-1 $346 $82 #
coedge $-1 $210 $210 $211 $347 reversed $129 $-1 #
coedge $-1 $211 $211 $210 $347 forward $131 $-1 #
coedge $-1 $212 $212 $132 $213 forward $207 $-1 #
edge $-1 $348 0 $348 6.2831853071796004 $212 $349 forward 7 unknown #
face $-1 $350 $351 $47 $-1 $352 reversed single #
loop $-1 $-1 $353 $133 #
plane-surface $-1 -120.94592211426067 -7.8556918737656982 63.163035169072046 0 -1 0 0.77714596973225614 0 -0.62932038083071107 forward_v I I I I #
coedge $-1 $354 $355 $356 $357 reversed $134 $-1 #
coedge $-1 $219 $136 $358 $359 reversed $86 $-1 #
coedge $-1 $136 $218 $354 $360 reversed $86 $-1 #
coedge $-1 $356 $361 $136 $221 forward $362 $-1 #
edge $-1 $363 13.122883234931173 $364 15.619792889324678 $220 $365 forward 7 unknown #
loop $-1 $-1 $227 $137 #
plane-surface $-1 -47.35007782219914 -10.764192030995281 3.5662971542116821 -0.77714596973225614 0 0.62932038083071107 0.62932038083071107 0 0.77714596973225614 forward_v I I I I #
loop $-1 $-1 $366 $88 #
coedge $-1 $225 $225 $226 $367 reversed $138 $-1 #
coedge $-1 $226 $226 $225 $367 forward $140 $-1 #
coedge $-1 $227 $227 $141 $228 forward $222 $-1 #
edge $-1 $368 0 $368 6.2831853071796004 $227 $369 forward 7 unknown #
loop $-1 $-1 $234 $142 #
plane-surface $-1 -47.35007782219914 -10.764192030995281 3.5662971542116821 -0.77714596973225614 0 0.62932038083071107 0.62932038083071107 0 0.77714596973225614 forward_v I I I I #
loop $-1 $-1 $370 $91 #
coedge $-1 $232 $232 $233 $371 reversed $143 $-1 #
coedge $-1 $233 $233 $232 $371 forward $145 $-1 #
coedge $-1 $234 $234 $146 $235 forward $229 $-1 #
edge $-1 $372 0 $372 6.2831853071796004 $234 $373 forward 7 unknown #
face $-1 $374 $375 $50 $-1 $376 forward single #
loop $-1 $-1 $377 $147 #
plane-surface $-1 -120.94592211426067 1.5816218016160981 63.163035169072046 0 -1 0 0.77714596973225614 0 -0.62932038083071107 forward_v I I I I #
coedge $-1 $378 $379 $380 $381 reversed $148 $-1 #
coedge $-1 $241 $150 $382 $383 reversed $95 $-1 #
coedge $-1 $150 $240 $378 $384 reversed $95 $-1 #
coedge $-1 $380 $385 $150 $243 forward $375 $-1 #
edge $-1 $386 13.122883234931173 $387 15.619792889324678 $242 $388 forward 7 unknown #
loop $-1 $-1 $249 $151 #
plane-surface $-1 -47.35007782219914 -1.3268783556134842 3.5662971542116821 -0.77714596973225614 0 0.62932038083071107 0.62932038083071107 0 0.77714596973225614 forward_v I I I I #
loop $-1 $-1 $389 $97 #
coedge $-1 $247 $247 $248 $390 reversed $152 $-1 #
coedge $-1 $248 $248 $247 $390 forward $154 $-1 #
coedge $-1 $249 $249 $155 $250 forward $244 $-1 #
edge $-1 $391 0 $391 6.2831853071796004 $249 $392 forward 7 unknown #
loop $-1 $-1 $256 $156 #
plane-surface $-1 -47.35007782219914 -1.3268783556134842 3.5662971542116821 -0.77714596973225614 0 0.62932038083071107 0.62932038083071107 0 0.77714596973225614 forward_v I I I I #
loop $-1 $-1 $393 $100 #
coedge $-1 $254 $254 $255 $394 reversed $157 $-1 #
coedge $-1 $255 $255 $254 $394 forward $159 $-1 #
coedge $-1 $256 $256 $160 $257 forward $251 $-1 #
edge $-1 $395 0 $395 6.2831853071796004 $256 $396 forward 7 unknown #
face $-1 $397 $398 $53 $-1 $399 forward single #
loop $-1 $-1 $400 $161 #
plane-surface $-1 -120.94592211426067 11.018935476997893 63.163035169072046 0 -1 0 0.77714596973225614 0 -0.62932038083071107 forward_v I I I I #
coedge $-1 $401 $402 $403 $404 reversed $162 $-1 #
coedge $-1 $263 $164 $405 $406 reversed $104 $-1 #
coedge $-1 $164 $262 $401 $407 reversed $104 $-1 #
coedge $-1 $403 $408 $164 $265 forward $398 $-1 #
edge $-1 $409 13.122883234931173 $410 15.619792889324678 $264 $411 forward 7 unknown #
loop $-1 $-1 $271 $165 #
plane-surface $-1 -47.35007782219914 8.1104353197683103 3.5662971542116821 -0.77714596973225614 0 0.62932038083071107 0.62932038083071107 0 0.77714596973225614 forward_v I I I I #
loop $-1 $-1 $412 $106 #
coedge $-1 $269 $269 $270 $413 reversed $166 $-1 #
coedge $-1 $270 $270 $269 $413 forward $168 $-1 #
coedge $-1 $271 $271 $169 $272 forward $266 $-1 #
edge $-1 $414 0 $414 6.2831853071796004 $271 $415 forward 7 unknown #
loop $-1 $-1 $278 $170 #
plane-surface $-1 -47.35007782219914 8.1104353197683103 3.5662971542116821 -0.77714596973225614 0 0.62932038083071107 0.62932038083071107 0 0.77714596973225614 forward_v I I I I #
loop $-1 $-1 $416 $109 #
coedge $-1 $276 $276 $277 $417 reversed $171 $-1 #
coedge $-1 $277 $277 $276 $417 forward $173 $-1 #
coedge $-1 $278 $278 $174 $279 forward $273 $-1 #
edge $-1 $418 0 $418 6.2831853071796004 $278 $419 forward 7 unknown #
face $-1 $420 $421 $42 $-1 $422 reversed single #
loop $-1 $-1 $423 $175 #
plane-surface $-1 -47.350077822199161 0 0 1 0 0 0 0 -1 forward_v I I I I #
coedge $-1 $424 $291 $425 $426 forward $176 $-1 #
coedge $-1 $427 $178 $424 $428 forward $113 $-1 #
coedge $-1 $178 $427 $429 $430 forward $113 $-1 #
coedge $-1 $294 $293 $178 $287 reversed $295 $-1 #
edge $-1 $431 -20.110524705831519 $432 20.110524705831519 $286 $433 forward 7 unknown #
coedge $-1 $180 $179 $434 $435 forward $71 $-1 #
coedge $-1 $436 $437 $179 $290 reversed $421 $-1 #
edge $-1 $297 -47.350077822199161 $438 47.350077822199161 $289 $439 forward 7 unknown #
coedge $-1 $283 $440 $180 $292 reversed $176 $-1 #
edge $-1 $441 -47.350077822199161 $296 47.350077822199161 $291 $442 forward 7 unknown #
coedge $-1 $286 $181 $440 $443 forward $295 $-1 #
coedge $-1 $181 $286 $436 $444 reversed $295 $-1 #
loop $-1 $-1 $293 $420 #
vertex $-1 $182 $445 #
vertex $-1 $182 $446 #
straight-curve $-1 47.350077822199161 0 6.6497238694501402 0 1 0 I I #
face $-1 $447 $448 $43 $-1 $449 reversed single #
loop $-1 $-1 $450 $183 #
plane-surface $-1 0 0 6.6497238694501402 0 0 1 1 0 0 forward_v I I I I #
coedge $-1 $451 $452 $453 $454 reversed $184 $-1 #
coedge $-1 $189 $186 $455 $456 reversed $117 $-1 #
coedge $-1 $186 $189 $457 $458 reversed $117 $-1 #
coedge $-1 $452 $451 $186 $306 reversed $184 $-1 #
edge $-1 $459 -6.6497238694501402 $460 6.6497238694501402 $305 $461 forward 7 unknown #
coedge $-1 $188 $187 $462 $463 reversed $74 $-1 #
coedge $-1 $455 $464 $187 $309 forward $448 $-1 #
edge $-1 $465 -11.186521081176146 $313 -6.6614861681346014 $308 $466 forward 7 unknown #
coedge $-1 $467 $457 $188 $311 forward $300 $-1 #
edge $-1 $312 6.6614861681346014 $468 11.186521081176146 $310 $469 forward 7 unknown #
vertex $-1 $311 $470 #
vertex $-1 $309 $471 #
straight-curve $-1 -37.050630083298884 -15.585489792789975 0 0 0 -1 I I #
face $-1 $472 $327 $44 $-1 $473 reversed single #
loop $-1 $-1 $474 $191 #
plane-surface $-1 -35.550630083298884 27.289316330100043 0 0 -1 0 0 0 -1 forward_v I I I I #
coedge $-1 $475 $476 $477 $478 forward $192 $-1 #
coedge $-1 $479 $194 $475 $480 forward $121 $-1 #
coedge $-1 $194 $479 $325 $481 forward $121 $-1 #
edge $-1 $328 34.050630083298884 $482 37.050630083298884 $194 $483 forward 7 unknown #
coedge $-1 $196 $195 $484 $485 forward $77 $-1 #
coedge $-1 $486 $487 $195 $324 forward $488 $-1 #
edge $-1 $489 -37.050630083298884 $329 -34.050630083298884 $323 $490 forward 7 unknown #
coedge $-1 $491 $197 $320 $481 reversed $327 $-1 #
coedge $-1 $197 $491 $486 $492 reversed $327 $-1 #
loop $-1 $-1 $197 $315 #
vertex $-1 $321 $493 #
vertex $-1 $492 $494 #
straight-curve $-1 -34.050630083298884 20.110524705831519 0 0 0 1 I I #
face $-1 $-1 $495 $45 $-1 $496 reversed single #
loop $-1 $-1 $205 $199 #
plane-surface $-1 0 0 6.6497238694501402 0 0 1 1 0 0 forward_v I I I I #
coedge $-1 $497 $498 $499 $500 reversed $200 $-1 #
coedge $-1 $501 $202 $204 $341 forward $125 $-1 #
coedge $-1 $202 $501 $497 $502 forward $125 $-1 #
coedge $-1 $499 $205 $202 $338 forward $332 $-1 #
edge $-1 $344 -3.6533712301880108 $503 4.5303774441494085 $337 $504 forward 7 unknown #
coedge $-1 $505 $506 $203 $340 forward $495 $-1 #
edge $-1 $507 -65.955858125667646 $343 -59.671808363197272 $339 $508 forward 7 unknown #
edge $-1 $344 84.009091760643713 $507 94.700155644398308 $204 $509 forward 7 unknown #
coedge $-1 $205 $499 $505 $510 forward $332 $-1 #
vertex $-1 $206 $511 #
vertex $-1 $206 $512 #
straight-curve $-1 13.199699320655835 3.214868123207312 6.6497238694501419 -1 0 0 I I #
coedge $-1 $346 $346 $-1 $513 reversed $209 $-1 #
edge $-1 $514 0 $514 6.2831853071796004 $210 $515 forward 7 unknown #
vertex $-1 $213 $516 #
ellipse-curve $-1 43.025451666410703 -0.87700621396139766 3.5076989882149636 0.5877852598018023 0 0.80901698891910034 0.80901698891910034 0 -0.5877852598018023 1 I I #
face $-1 $-1 $362 $47 $-1 $517 forward single #
loop $-1 $-1 $518 $214 #
plane-surface $-1 -47.350077822199161 0 0 1 0 0 0 0 -1 forward_v I I I I #
coedge $-1 $519 $520 $521 $522 reversed $215 $-1 #
coedge $-1 $523 $217 $219 $360 forward $134 $-1 #
coedge $-1 $217 $523 $519 $524 forward $134 $-1 #
coedge $-1 $521 $220 $217 $357 forward $362 $-1 #
edge $-1 $364 -8.2905961727272235 $525 -2.4735958582680579 $356 $526 forward 7 unknown #
coedge $-1 $527 $528 $218 $359 forward $351 $-1 #
edge $-1 $529 -28.015220430324366 $363 -24.931793715085881 $358 $530 forward 7 unknown #
edge $-1 $364 -3.967628779315123 $529 3.377697699050819e-014 $219 $531 forward 7 unknown #
coedge $-1 $220 $521 $527 $532 forward $362 $-1 #
loop $-1 $-1 $521 $350 #
vertex $-1 $359 $533 #
vertex $-1 $221 $534 #
straight-curve $-1 -60.472961057130334 -13.672692188224863 6.6497238694501419 1 0 0 I I #
coedge $-1 $366 $366 $-1 $535 reversed $224 $-1 #
edge $-1 $536 0 $536 6.2831853071796004 $225 $537 forward 7 unknown #
vertex $-1 $228 $538 #
ellipse-curve $-1 -46.101622995002408 -12.010692098379387 5.1080105118309005 -0.77714596973225614 0 0.62932038083071107 0.15733009520767777 0 0.19428649243306403 1 I I #
coedge $-1 $370 $370 $-1 $539 reversed $231 $-1 #
edge $-1 $540 0 $540 6.2831853071796004 $232 $541 forward 7 unknown #
vertex $-1 $235 $542 #
ellipse-curve $-1 -46.101622995002408 -9.5176919636111741 5.1080105118309005 -0.77714596973225614 0 0.62932038083071107 0.15733009520767777 0 0.19428649243306403 1 I I #
face $-1 $-1 $543 $50 $-1 $544 reversed single #
loop $-1 $-1 $242 $236 #
plane-surface $-1 0 0 6.6497238694501402 0 0 1 1 0 0 forward_v I I I I #
coedge $-1 $545 $546 $547 $548 reversed $237 $-1 #
coedge $-1 $549 $239 $241 $384 forward $148 $-1 #
coedge $-1 $239 $549 $545 $550 forward $148 $-1 #
coedge $-1 $547 $242 $239 $381 forward $375 $-1 #
edge $-1 $387 -3.5719393350363244 $551 2.2450609794228402 $380 $552 forward 7 unknown #
coedge $-1 $553 $554 $240 $383 forward $543 $-1 #
edge $-1 $555 -28.015220430324366 $386 -24.931793715085881 $382 $556 forward 7 unknown #
edge $-1 $387 -3.967628779315123 $555 3.377697699050819e-014 $241 $557 forward 7 unknown #
coedge $-1 $242 $547 $553 $558 forward $375 $-1 #
vertex $-1 $383 $559 #
vertex $-1 $243 $560 #
straight-curve $-1 -60.472961057130334 -4.2353785128430665 6.6497238694501419 1 0 0 I I #
coedge $-1 $389 $389 $-1 $561 reversed $246 $-1 #
edge $-1 $562 0 $562 6.2831853071796004 $247 $563 forward 7 unknown #
vertex $-1 $250 $564 #
ellipse-curve $-1 -46.101622995002408 -2.5733784229975925 5.1080105118309005 -0.77714596973225614 0 0.62932038083071107 0.15733009520767777 0 0.19428649243306403 1 I I #
coedge $-1 $393 $393 $-1 $565 reversed $253 $-1 #
edge $-1 $566 0 $566 6.2831853071796004 $254 $567 forward 7 unknown #
vertex $-1 $257 $568 #
ellipse-curve $-1 -46.101622995002408 -0.080378288229379535 5.1080105118309005 -0.77714596973225614 0 0.62932038083071107 0.15733009520767777 0 0.19428649243306403 1 I I #
face $-1 $-1 $569 $53 $-1 $570 reversed single #
loop $-1 $-1 $264 $258 #
plane-surface $-1 0 0 6.6497238694501402 0 0 1 1 0 0 forward_v I I I I #
coedge $-1 $571 $572 $573 $574 reversed $259 $-1 #
coedge $-1 $575 $261 $263 $407 forward $162 $-1 #
coedge $-1 $261 $575 $571 $576 forward $162 $-1 #
coedge $-1 $573 $264 $261 $404 forward $398 $-1 #
edge $-1 $410 1.1467175026545728 $577 6.9637178171137375 $403 $578 forward 7 unknown #
coedge $-1 $579 $580 $262 $406 forward $569 $-1 #
edge $-1 $581 -28.015220430324366 $409 -24.931793715085881 $405 $582 forward 7 unknown #
edge $-1 $410 -3.967628779315123 $581 3.377697699050819e-014 $263 $583 forward 7 unknown #
coedge $-1 $264 $573 $579 $584 forward $398 $-1 #
vertex $-1 $265 $585 #
vertex $-1 $265 $586 #
straight-curve $-1 -60.472961057130334 5.201935162538728 6.6497238694501419 1 0 0 I I #
coedge $-1 $412 $412 $-1 $587 reversed $268 $-1 #
edge $-1 $588 0 $588 6.2831853071796004 $269 $589 forward 7 unknown #
vertex $-1 $272 $590 #
ellipse-curve $-1 -46.101622995002408 6.8639352523842021 5.1080105118309005 -0.77714596973225614 0 0.62932038083071107 0.15733009520767777 0 0.19428649243306403 1 I I #
coedge $-1 $416 $416 $-1 $591 reversed $275 $-1 #
edge $-1 $592 0 $592 6.2831853071796004 $276 $593 forward 7 unknown #
vertex $-1 $279 $594 #
ellipse-curve $-1 -46.101622995002408 9.356935387152415 5.1080105118309005 -0.77714596973225614 0 0.62932038083071107 0.15733009520767777 0 0.19428649243306403 1 I I #
face $-1 $-1 $295 $42 $-1 $595 reversed single #
loop $-1 $-1 $436 $280 #
plane-surface $-1 0 20.110524705831519 0 0 -1 0 0 0 -1 forward_v I I I I #
coedge $-1 $596 $434 $437 $597 forward $281 $-1 #
coedge $-1 $440 $283 $284 $428 reversed $176 $-1 #
coedge $-1 $434 $596 $283 $426 reversed $281 $-1 #
edge $-1 $441 -6.6497238694501402 $598 6.6497238694501402 $425 $599 forward 7 unknown #
coedge $-1 $285 $284 $596 $600 forward $113 $-1 #
edge $-1 $432 -47.350077822199161 $598 47.350077822199161 $424 $601 forward 7 unknown #
coedge $-1 $437 $436 $285 $430 reversed $421 $-1 #
edge $-1 $602 -47.350077822199161 $431 47.350077822199161 $429 $603 forward 7 unknown #
vertex $-1 $287 $604 #
vertex $-1 $443 $605 #
straight-curve $-1 47.350077822199161 0 -6.6497238694501402 0 -1 0 I I #
coedge $-1 $423 $425 $288 $435 reversed $281 $-1 #
edge $-1 $438 -20.110524705831519 $441 20.110524705831519 $434 $606 forward 7 unknown #
coedge $-1 $429 $289 $294 $444 forward $421 $-1 #
coedge $-1 $289 $429 $423 $597 reversed $421 $-1 #
vertex $-1 $290 $607 #
straight-curve $-1 0 20.110524705831519 6.6497238694501402 -1 0 0 I I #
coedge $-1 $291 $424 $293 $443 reversed $176 $-1 #
vertex $-1 $435 $608 #
straight-curve $-1 0 -20.110524705831519 6.6497238694501402 1 0 0 I I #
edge $-1 $296 -6.6497238694501402 $432 6.6497238694501402 $293 $609 forward 7 unknown #
edge $-1 $297 -6.6497238694501402 $431 6.6497238694501402 $294 $610 forward 7 unknown #
point $-1 47.350077822199161 -20.110524705831519 6.6497238694501402 #
point $-1 47.350077822199161 20.110524705831519 6.6497238694501402 #
face $-1 $-1 $611 $43 $-1 $612 reversed single #
loop $-1 $-1 $613 $299 #
plane-surface $-1 0 0 -6.6497238694501402 0 0 1 1 0 0 forward_v I I I I #
coedge $-1 $457 $467 $452 $614 forward $300 $-1 #
coedge $-1 $305 $302 $613 $615 reversed $184 $-1 #
coedge $-1 $302 $305 $450 $614 reversed $184 $-1 #
coedge $-1 $616 $617 $302 $454 forward $611 $-1 #
edge $-1 $618 -6.6497238694501402 $619 6.6497238694501402 $453 $620 forward 7 unknown #
coedge $-1 $613 $308 $303 $456 forward $448 $-1 #
edge $-1 $313 -19.275315041649442 $460 -16.275315041649442 $455 $621 forward 7 unknown #
coedge $-1 $310 $450 $304 $458 forward $300 $-1 #
edge $-1 $459 16.275315041649442 $312 19.275315041649442 $457 $622 forward 7 unknown #
vertex $-1 $458 $623 #
vertex $-1 $456 $624 #
straight-curve $-1 -34.050630083298884 -15.585489792789975 0 0 0 -1 I I #
coedge $-1 $617 $616 $307 $463 forward $611 $-1 #
edge $-1 $468 -6.6497238694501402 $465 6.6497238694501402 $462 $625 forward 7 unknown #
coedge $-1 $308 $613 $617 $626 forward $448 $-1 #
vertex $-1 $309 $627 #
straight-curve $-1 -37.050630083298884 -8.9240036246553736 -6.6497238694501402 0 1 0 I I #
coedge $-1 $450 $310 $616 $628 forward $300 $-1 #
vertex $-1 $628 $629 #
straight-curve $-1 -37.050630083298884 -8.9240036246553736 6.6497238694501402 0 -1 0 I I #
point $-1 -37.050630083298884 -15.585489792789975 6.6497238694501402 #
point $-1 -37.050630083298884 -15.585489792789975 -6.6497238694501402 #
face $-1 $-1 $488 $44 $-1 $630 forward single #
plane-surface $-1 -34.050630083298884 23.699920517965783 0 -1 0 0 0 0 1 forward_v I I I I #
coedge $-1 $631 $632 $491 $633 forward $316 $-1 #
coedge $-1 $484 $318 $319 $480 reversed $192 $-1 #
coedge $-1 $318 $484 $487 $634 reversed $192 $-1 #
coedge $-1 $632 $631 $318 $478 reversed $316 $-1 #
edge $-1 $635 -6.6497238694501402 $636 6.6497238694501402 $477 $637 forward 7 unknown #
coedge $-1 $320 $319 $631 $638 forward $121 $-1 #
edge $-1 $482 -3.58939581213426 $636 3.58939581213426 $475 $639 forward 7 unknown #
edge $-1 $640 -3.58939581213426 $328 3.58939581213426 $325 $641 forward 7 unknown #
vertex $-1 $480 $642 #
straight-curve $-1 0 20.110524705831519 -6.6497238694501402 -1 0 0 I I #
coedge $-1 $476 $475 $322 $485 reversed $192 $-1 #
edge $-1 $489 -6.6497238694501402 $482 6.6497238694501402 $484 $643 forward 7 unknown #
coedge $-1 $644 $323 $326 $492 forward $488 $-1 #
coedge $-1 $323 $644 $476 $634 forward $488 $-1 #
loop $-1 $-1 $323 $472 #
vertex $-1 $324 $645 #
straight-curve $-1 0 20.110524705831519 6.6497238694501402 1 0 0 I I #
coedge $-1 $326 $325 $474 $633 reversed $327 $-1 #
edge $-1 $329 -3.58939581213426 $646 3.58939581213426 $326 $647 forward 7 unknown #
point $-1 -34.050630083298884 20.110524705831523 -6.6497238694501402 #
point $-1 -34.050630083298884 20.110524705831523 6.6497238694501402 #
loop $-1 $-1 $339 $331 #
plane-surface $-1 47.350077822199161 0 0 -1 0 0 0 0 1 forward_v I I I I #
coedge $-1 $498 $334 $336 $502 reversed $200 $-1 #
coedge $-1 $334 $497 $648 $649 reversed $200 $-1 #
coedge $-1 $342 $337 $334 $500 forward $332 $-1 #
edge $-1 $503 25.501126189966424 $650 34.150378501543329 $499 $651 forward 7 unknown #
coedge $-1 $336 $335 $506 $652 reversed $125 $-1 #
edge $-1 $653 -94.700155644398308 $503 -84.009091760643713 $497 $654 forward 7 unknown #
vertex $-1 $338 $655 #
straight-curve $-1 38.700825510622266 -0.43850310698069883 6.6497238694501419 0 -1 0 I I #
coedge $-1 $648 $339 $342 $510 reversed $495 $-1 #
coedge $-1 $339 $648 $501 $652 forward $495 $-1 #
vertex $-1 $340 $656 #
straight-curve $-1 47.350077822199161 3.214868123207312 66.321532232647414 0 0 1 I I #
straight-curve $-1 -29.263956947402114 3.214868123207312 56.029029695693552 0.80901698891910034 0 -0.5877852598018023 I I #
edge $-1 $650 -4.9688805511301073 $343 3.214868123207312 $505 $657 forward 7 unknown #
point $-1 47.350077822199161 3.214868123207312 6.6497238694501402 #
point $-1 38.700825510622259 3.214868123207312 6.6497238694501419 #
edge $-1 $658 1 $658 0 $346 $-1 forward 7 unknown #
vertex $-1 $347 $659 #
ellipse-curve $-1 42.386703611018902 -0.87700621396139766 2.6285377301982993 0.5877852598018023 0 0.80901698891910034 0.80901698891910034 0 -0.5877852598018023 1 I I #
point $-1 43.834468655329786 -0.87700621396139766 2.9199137284131393 #
plane-surface $-1 0 0 6.6497238694501402 0 0 1 1 0 0 forward_v I I I I #
coedge $-1 $528 $527 $520 $660 forward $351 $-1 #
coedge $-1 $520 $353 $355 $524 reversed $215 $-1 #
coedge $-1 $353 $519 $518 $660 reversed $215 $-1 #
coedge $-1 $361 $356 $353 $522 forward $362 $-1 #
edge $-1 $525 -15.619792889324678 $661 -13.122883234931173 $521 $662 forward 7 unknown #
coedge $-1 $355 $354 $528 $663 reversed $134 $-1 #
edge $-1 $664 -3.377697699050819e-014 $525 3.967628779315123 $519 $665 forward 7 unknown #
vertex $-1 $357 $666 #
straight-curve $-1 -44.853168167805656 -5.3820960154976403 6.6497238694501402 0 1 0 I I #
coedge $-1 $518 $358 $361 $532 reversed $351 $-1 #
coedge $-1 $358 $518 $523 $663 forward $351 $-1 #
vertex $-1 $359 $667 #
straight-curve $-1 -47.350077822199161 -13.672692188224863 31.581517584536023 0 0 1 I I #
straight-curve $-1 -47.35007782219914 -13.672692188224863 3.5662971542116821 -0.62932038083071107 0 -0.77714596973225614 I I #
edge $-1 $661 7.8556918737656982 $363 13.672692188224863 $527 $668 forward 7 unknown #
point $-1 -47.350077822199161 -13.672692188224863 6.6497238694501402 #
point $-1 -44.853168167805656 -13.672692188224863 6.6497238694501402 #
edge $-1 $669 1 $669 0 $366 $-1 forward 7 unknown #
vertex $-1 $367 $670 #
ellipse-curve $-1 -45.32447702527017 -12.010692098379387 4.4786901310002056 -0.77714596973225614 0 0.62932038083071107 0.15733009520767777 0 0.19428649243306403 1 I I #
point $-1 -45.944292899794746 -12.010692098379387 5.3022970042639805 #
edge $-1 $671 1 $671 0 $370 $-1 forward 7 unknown #
vertex $-1 $371 $672 #
ellipse-curve $-1 -45.32447702527017 -9.5176919636111741 4.4786901310002056 -0.77714596973225614 0 0.62932038083071107 0.15733009520767777 0 0.19428649243306403 1 I I #
point $-1 -45.944292899794746 -9.5176919636111741 5.3022970042639805 #
loop $-1 $-1 $382 $374 #
plane-surface $-1 -47.350077822199161 0 0 1 0 0 0 0 -1 forward_v I I I I #
coedge $-1 $546 $377 $379 $550 reversed $237 $-1 #
coedge $-1 $377 $545 $673 $674 reversed $237 $-1 #
coedge $-1 $385 $380 $377 $548 forward $375 $-1 #
edge $-1 $551 -15.619792889324678 $675 -13.122883234931173 $547 $676 forward 7 unknown #
coedge $-1 $379 $378 $554 $677 reversed $148 $-1 #
edge $-1 $678 -3.377697699050819e-014 $551 3.967628779315123 $545 $679 forward 7 unknown #
vertex $-1 $381 $680 #
straight-curve $-1 -44.853168167805656 -0.66343917780674211 6.6497238694501402 0 1 0 I I #
coedge $-1 $673 $382 $385 $558 reversed $543 $-1 #
coedge $-1 $382 $673 $549 $677 forward $543 $-1 #
vertex $-1 $383 $681 #
straight-curve $-1 -47.350077822199161 -4.2353785128430665 31.581517584536023 0 0 1 I I #
straight-curve $-1 -47.35007782219914 -4.2353785128430665 3.5662971542116821 -0.62932038083071107 0 -0.77714596973225614 I I #
edge $-1 $675 -1.5816218016160981 $386 4.2353785128430665 $553 $682 forward 7 unknown #
point $-1 -47.350077822199161 -4.2353785128430665 6.6497238694501402 #
point $-1 -44.853168167805656 -4.2353785128430665 6.6497238694501402 #
edge $-1 $683 1 $683 0 $389 $-1 forward 7 unknown #
vertex $-1 $390 $684 #
ellipse-curve $-1 -45.32447702527017 -2.5733784229975925 4.4786901310002056 -0.77714596973225614 0 0.62932038083071107 0.15733009520767777 0 0.19428649243306403 1 I I #
point $-1 -45.944292899794746 -2.5733784229975925 5.3022970042639805 #
edge $-1 $685 1 $685 0 $393 $-1 forward 7 unknown #
vertex $-1 $394 $686 #
ellipse-curve $-1 -45.32447702527017 -0.080378288229379535 4.4786901310002056 -0.77714596973225614 0 0.62932038083071107 0.15733009520767777 0 0.19428649243306403 1 I I #
point $-1 -45.944292899794746 -0.080378288229379535 5.3022970042639805 #
loop $-1 $-1 $405 $397 #
plane-surface $-1 -47.350077822199161 0 0 1 0 0 0 0 -1 forward_v I I I I #
coedge $-1 $572 $400 $402 $576 reversed $259 $-1 #
coedge $-1 $400 $571 $687 $688 reversed $259 $-1 #
coedge $-1 $408 $403 $400 $574 forward $398 $-1 #
edge $-1 $577 -15.619792889324678 $689 -13.122883234931173 $573 $690 forward 7 unknown #
coedge $-1 $402 $401 $580 $691 reversed $162 $-1 #
edge $-1 $692 -3.377697699050819e-014 $577 3.967628779315123 $571 $693 forward 7 unknown #
vertex $-1 $404 $694 #
straight-curve $-1 -44.853168167805656 4.0552176598841552 6.6497238694501402 0 1 0 I I #
coedge $-1 $687 $405 $408 $584 reversed $569 $-1 #
coedge $-1 $405 $687 $575 $691 forward $569 $-1 #
vertex $-1 $406 $695 #
straight-curve $-1 -47.350077822199161 5.201935162538728 31.581517584536023 0 0 1 I I #
straight-curve $-1 -47.35007782219914 5.201935162538728 3.5662971542116821 -0.62932038083071107 0 -0.77714596973225614 I I #
edge $-1 $689 -11.018935476997893 $409 -5.201935162538728 $579 $696 forward 7 unknown #
point $-1 -47.350077822199161 5.201935162538728 6.6497238694501402 #
point $-1 -44.853168167805656 5.201935162538728 6.6497238694501402 #
edge $-1 $697 1 $697 0 $412 $-1 forward 7 unknown #
vertex $-1 $413 $698 #
ellipse-curve $-1 -45.32447702527017 6.8639352523842021 4.4786901310002056 -0.77714596973225614 0 0.62932038083071107 0.15733009520767777 0 0.19428649243306403 1 I I #
point $-1 -45.944292899794746 6.8639352523842021 5.3022970042639805 #
edge $-1 $699 1 $699 0 $416 $-1 forward 7 unknown #
vertex $-1 $417 $700 #
ellipse-curve $-1 -45.32447702527017 9.356935387152415 4.4786901310002056 -0.77714596973225614 0 0.62932038083071107 0.15733009520767777 0 0.19428649243306403 1 I I #
point $-1 -45.944292899794746 9.356935387152415 5.3022970042639805 #
plane-surface $-1 47.350077822199161 0 0 -1 0 0 0 0 1 forward_v I I I I #
coedge $-1 $425 $423 $427 $600 reversed $281 $-1 #
edge $-1 $438 -6.6497238694501402 $602 6.6497238694501402 $437 $701 forward 7 unknown #
vertex $-1 $600 $702 #
straight-curve $-1 -47.350077822199161 -20.110524705831519 0 0 0 -1 I I #
edge $-1 $598 -20.110524705831519 $602 20.110524705831519 $596 $703 forward 7 unknown #
straight-curve $-1 0 -20.110524705831519 -6.6497238694501402 -1 0 0 I I #
vertex $-1 $430 $704 #
straight-curve $-1 0 20.110524705831519 -6.6497238694501402 1 0 0 I I #
point $-1 47.350077822199161 20.110524705831519 -6.6497238694501402 #
point $-1 47.350077822199161 -20.110524705831519 -6.6497238694501402 #
straight-curve $-1 -47.350077822199161 0 6.6497238694501402 0 -1 0 I I #
point $-1 -47.350077822199161 20.110524705831519 6.6497238694501402 #
point $-1 -47.350077822199161 -20.110524705831519 6.6497238694501402 #
straight-curve $-1 47.350077822199161 -20.110524705831519 0 0 0 -1 I I #
straight-curve $-1 47.350077822199161 20.110524705831519 0 0 0 -1 I I #
loop $-1 $-1 $453 $447 #
plane-surface $-1 0 -20.110524705831519 0 0 1 0 0 0 1 forward_v I I I I #
coedge $-1 $464 $455 $451 $615 forward $448 $-1 #
edge $-1 $619 -11.186521081176146 $459 -6.6614861681346014 $450 $705 forward 7 unknown #
edge $-1 $460 6.6614861681346014 $618 11.186521081176146 $613 $706 forward 7 unknown #
coedge $-1 $462 $453 $467 $628 reversed $611 $-1 #
coedge $-1 $453 $462 $464 $626 reversed $611 $-1 #
vertex $-1 $626 $707 #
vertex $-1 $454 $708 #
straight-curve $-1 -34.050630083298884 -20.110524705831519 0 0 0 1 I I #
straight-curve $-1 -17.775315041649442 -15.585489792789975 -6.6497238694501402 1 0 0 I I #
straight-curve $-1 -17.775315041649442 -15.585489792789975 6.6497238694501402 -1 0 0 I I #
point $-1 -34.050630083298884 -15.585489792789975 6.6497238694501402 #
point $-1 -34.050630083298884 -15.585489792789975 -6.6497238694501402 #
straight-curve $-1 -37.050630083298884 -20.110524705831519 0 0 0 -1 I I #
edge $-1 $618 34.050630083298884 $465 37.050630083298884 $617 $709 forward 7 unknown #
point $-1 -37.050630083298884 -20.110524705831519 -6.6497238694501402 #
edge $-1 $468 -37.050630083298884 $619 -34.050630083298884 $616 $710 forward 7 unknown #
point $-1 -37.050630083298884 -20.110524705831519 6.6497238694501402 #
plane-surface $-1 0 0 6.6497238694501402 0 0 1 1 0 0 forward_v I I I I #
coedge $-1 $477 $474 $479 $638 reversed $316 $-1 #
coedge $-1 $474 $477 $644 $711 reversed $316 $-1 #
edge $-1 $646 -6.6497238694501402 $640 6.6497238694501402 $491 $712 forward 7 unknown #
edge $-1 $635 -3.58939581213426 $489 3.58939581213426 $476 $713 forward 7 unknown #
vertex $-1 $711 $714 #
vertex $-1 $638 $715 #
straight-curve $-1 -37.050630083298884 27.289316330100043 0 0 0 -1 I I #
edge $-1 $636 -1.5 $640 1.5 $631 $716 forward 7 unknown #
straight-curve $-1 -37.050630083298884 23.699920517965783 -6.6497238694501402 0 1 0 I I #
vertex $-1 $481 $717 #
straight-curve $-1 -34.050630083298884 23.699920517965783 -6.6497238694501402 0 -1 0 I I #
point $-1 -37.050630083298884 20.110524705831523 -6.6497238694501402 #
straight-curve $-1 -37.050630083298884 20.110524705831519 0 0 0 -1 I I #
coedge $-1 $487 $486 $632 $711 forward $488 $-1 #
point $-1 -37.050630083298884 20.110524705831523 6.6497238694501402 #
vertex $-1 $492 $718 #
straight-curve $-1 -34.050630083298884 23.699920517965783 6.6497238694501402 0 1 0 I I #
coedge $-1 $506 $505 $498 $649 forward $495 $-1 #
edge $-1 $650 59.671808363197272 $653 65.955858125667646 $648 $719 forward 7 unknown #
vertex $-1 $510 $720 #
straight-curve $-1 13.199699320655835 -4.9688805511301073 6.6497238694501419 1 0 0 I I #
edge $-1 $653 -4.5303774441494085 $507 3.6533712301880108 $506 $721 forward 7 unknown #
vertex $-1 $652 $722 #
straight-curve $-1 -29.263956947402114 -4.9688805511301073 56.029029695693552 -0.80901698891910034 0 0.5877852598018023 I I #
point $-1 38.700825510622259 -4.9688805511301073 6.6497238694501419 #
point $-1 47.350077822199161 3.214868123207312 0.36567410697976754 #
straight-curve $-1 47.350077822199161 0 6.6497238694501402 0 1 0 I I #
vertex $-1 $513 $723 #
point $-1 43.195720599937999 -0.87700621396139766 2.0407524703964972 #
edge $-1 $661 24.931793715085881 $664 28.015220430324366 $518 $724 forward 7 unknown #
vertex $-1 $532 $725 #
straight-curve $-1 -60.472961057130334 -7.8556918737656982 6.6497238694501419 -1 0 0 I I #
edge $-1 $664 2.4735958582680579 $529 8.2905961727272235 $528 $726 forward 7 unknown #
vertex $-1 $663 $727 #
straight-curve $-1 -47.35007782219914 -7.8556918737656982 3.5662971542116821 0.62932038083071107 0 0.77714596973225614 I I #
point $-1 -44.853168167805656 -7.8556918737656982 6.6497238694501402 #
point $-1 -47.350077822199161 -13.672692188224863 3.5662971542116559 #
straight-curve $-1 -47.350077822199161 0 6.6497238694501402 0 -1 0 I I #
vertex $-1 $535 $728 #
point $-1 -45.167146930062493 -12.010692098379387 4.6729766234332697 #
vertex $-1 $539 $729 #
point $-1 -45.167146930062493 -9.5176919636111741 4.6729766234332697 #
coedge $-1 $554 $553 $546 $674 forward $543 $-1 #
edge $-1 $675 24.931793715085881 $678 28.015220430324366 $673 $730 forward 7 unknown #
vertex $-1 $558 $731 #
straight-curve $-1 -60.472961057130334 1.5816218016160981 6.6497238694501419 -1 0 0 I I #
edge $-1 $678 -2.2450609794228402 $555 3.5719393350363244 $554 $732 forward 7 unknown #
vertex $-1 $677 $733 #
straight-curve $-1 -47.35007782219914 1.5816218016160981 3.5662971542116821 0.62932038083071107 0 0.77714596973225614 I I #
point $-1 -44.853168167805656 1.5816218016160981 6.6497238694501402 #
point $-1 -47.350077822199161 -4.2353785128430665 3.5662971542116559 #
straight-curve $-1 -47.350077822199161 0 6.6497238694501402 0 -1 0 I I #
vertex $-1 $561 $734 #
point $-1 -45.167146930062493 -2.5733784229975925 4.6729766234332697 #
vertex $-1 $565 $735 #
point $-1 -45.167146930062493 -0.080378288229379535 4.6729766234332697 #
coedge $-1 $580 $579 $572 $688 forward $569 $-1 #
edge $-1 $689 24.931793715085881 $692 28.015220430324366 $687 $736 forward 7 unknown #
vertex $-1 $584 $737 #
straight-curve $-1 -60.472961057130334 11.018935476997893 6.6497238694501419 -1 0 0 I I #
edge $-1 $692 -6.9637178171137375 $581 -1.1467175026545728 $580 $738 forward 7 unknown #
vertex $-1 $691 $739 #
straight-curve $-1 -47.35007782219914 11.018935476997893 3.5662971542116821 0.62932038083071107 0 0.77714596973225614 I I #
point $-1 -44.853168167805656 11.018935476997893 6.6497238694501402 #
point $-1 -47.350077822199161 5.201935162538728 3.5662971542116559 #
straight-curve $-1 -47.350077822199161 0 6.6497238694501402 0 -1 0 I I #
vertex $-1 $587 $740 #
point $-1 -45.167146930062493 6.8639352523842021 4.6729766234332697 #
vertex $-1 $591 $741 #
point $-1 -45.167146930062493 9.356935387152415 4.6729766234332697 #
straight-curve $-1 -47.350077822199161 20.110524705831519 0 0 0 -1 I I #
point $-1 -47.350077822199161 -20.110524705831519 -6.6497238694501402 #
straight-curve $-1 -47.350077822199161 0 -6.6497238694501402 0 1 0 I I #
point $-1 -47.350077822199161 20.110524705831519 -6.6497238694501402 #
straight-curve $-1 -34.050630083298884 -8.9240036246553736 6.6497238694501402 0 1 0 I I #
straight-curve $-1 -34.050630083298884 -8.9240036246553736 -6.6497238694501402 0 -1 0 I I #
point $-1 -34.050630083298884 -20.110524705831519 -6.6497238694501402 #
point $-1 -34.050630083298884 -20.110524705831519 6.6497238694501402 #
straight-curve $-1 0 -20.110524705831519 -6.6497238694501402 -1 0 0 I I #
straight-curve $-1 0 -20.110524705831519 6.6497238694501402 1 0 0 I I #
edge $-1 $646 -1.5 $635 1.5 $632 $742 forward 7 unknown #
straight-curve $-1 -34.050630083298884 27.289316330100043 0 0 0 -1 I I #
straight-curve $-1 -37.050630083298884 23.699920517965783 6.6497238694501402 0 -1 0 I I #
point $-1 -37.050630083298884 27.289316330100043 6.6497238694501402 #
point $-1 -37.050630083298884 27.289316330100043 -6.6497238694501402 #
straight-curve $-1 -35.550630083298884 27.289316330100043 -6.6497238694501402 1 0 0 I I #
point $-1 -34.050630083298884 27.289316330100043 -6.6497238694501402 #
point $-1 -34.050630083298884 27.289316330100043 6.6497238694501402 #
straight-curve $-1 47.350077822199161 -4.9688805511301073 66.321532232647414 0 0 -1 I I #
point $-1 47.350077822199161 -4.9688805511301073 6.6497238694501402 #
straight-curve $-1 47.350077822199168 -0.43850310698069883 0.36567410697976754 0 1 0 I I #
point $-1 47.350077822199161 -4.9688805511301073 0.36567410697976754 #
point $-1 41.798918351217097 -0.87700621396139766 1.8195207412791992 #
straight-curve $-1 -47.350077822199161 -7.8556918737656982 31.581517584536023 0 0 -1 I I #
point $-1 -47.350077822199161 -7.8556918737656982 6.6497238694501402 #
straight-curve $-1 -47.350077822199161 -5.3820960154976403 3.5662971542116635 0 -1 0 I I #
point $-1 -47.350077822199161 -7.8556918737656982 3.5662971542116559 #
point $-1 -45.130190532837105 -12.010692098379387 4.3213600357925275 #
point $-1 -45.130190532837105 -9.5176919636111741 4.3213600357925275 #
straight-curve $-1 -47.350077822199161 1.5816218016160981 31.581517584536023 0 0 -1 I I #
point $-1 -47.350077822199161 1.5816218016160981 6.6497238694501402 #
straight-curve $-1 -47.350077822199161 -0.66343917780674211 3.5662971542116635 0 -1 0 I I #
point $-1 -47.350077822199161 1.5816218016160981 3.5662971542116559 #
point $-1 -45.130190532837105 -2.5733784229975925 4.3213600357925275 #
point $-1 -45.130190532837105 -0.080378288229379535 4.3213600357925275 #
straight-curve $-1 -47.350077822199161 11.018935476997893 31.581517584536023 0 0 -1 I I #
point $-1 -47.350077822199161 11.018935476997893 6.6497238694501402 #
straight-curve $-1 -47.350077822199161 4.0552176598841552 3.5662971542116635 0 -1 0 I I #
point $-1 -47.350077822199161 11.018935476997893 3.5662971542116559 #
point $-1 -45.130190532837105 6.8639352523842021 4.3213600357925275 #
point $-1 -45.130190532837105 9.356935387152415 4.3213600357925275 #
straight-curve $-1 -35.550630083298884 27.289316330100043 6.6497238694501402 -1 0 0 I I #
End-of-ACIS-data 