500 0 14 0           
7 Unknown 11 ACIS 5.0 NT 24 Fri Mar 26 01:14:41 1999 
-1 9.9999999999999995e-007 1e-010 
body $-1 $14 $-1 $15 #
body $-1 $16 $-1 $17 #
body $-1 $18 $-1 $19 #
body $-1 $20 $-1 $21 #
body $-1 $22 $-1 $23 #
body $-1 $24 $-1 $25 #
body $-1 $26 $-1 $27 #
body $-1 $28 $-1 $29 #
body $-1 $30 $-1 $31 #
body $-1 $32 $-1 $33 #
body $-1 $34 $-1 $35 #
body $-1 $36 $-1 $37 #
body $-1 $38 $-1 $39 #
body $-1 $40 $-1 $41 #
lump $-1 $-1 $42 $0 #
transform $-1 1 0 0 0 1 0 0 0 1 42.409741508224741 18.62886109427718 5.863028528914831 1 rotate no_reflect no_shear #
lump $-1 $-1 $43 $1 #
transform $-1 1 0 0 0 1 0 0 0 1 42.409741508224741 18.62886109427718 5.863028528914831 1 rotate no_reflect no_shear #
lump $-1 $-1 $44 $2 #
transform $-1 1 0 0 0 1 0 0 0 1 42.409741508224741 18.62886109427718 5.863028528914831 1 rotate no_reflect no_shear #
lump $-1 $-1 $45 $3 #
transform $-1 1 0 0 0 1 0 0 0 1 42.409741508224741 18.62886109427718 5.863028528914831 1 rotate no_reflect no_shear #
lump $-1 $-1 $46 $4 #
transform $-1 1 0 0 0 1 0 0 0 1 42.409741508224741 18.62886109427718 5.863028528914831 1 rotate no_reflect no_shear #
lump $-1 $-1 $47 $5 #
transform $-1 1 0 0 0 1 0 0 0 1 42.409741508224741 18.62886109427718 5.863028528914831 1 rotate no_reflect no_shear #
lump $-1 $-1 $48 $6 #
transform $-1 1 0 0 0 1 0 0 0 1 42.409741508224741 18.62886109427718 5.863028528914831 1 rotate no_reflect no_shear #
lump $-1 $-1 $49 $7 #
transform $-1 1 0 0 0 1 0 0 0 1 42.409741508224741 18.62886109427718 5.863028528914831 1 rotate no_reflect no_shear #
lump $-1 $-1 $50 $8 #
transform $-1 1 0 0 0 1 0 0 0 1 42.409741508224741 18.62886109427718 5.863028528914831 1 rotate no_reflect no_shear #
lump $-1 $-1 $51 $9 #
transform $-1 1 0 0 0 1 0 0 0 1 42.409741508224741 18.62886109427718 5.863028528914831 1 rotate no_reflect no_shear #
lump $-1 $-1 $52 $10 #
transform $-1 1 0 0 0 1 0 0 0 1 42.409741508224741 18.62886109427718 5.863028528914831 1 rotate no_reflect no_shear #
lump $-1 $-1 $53 $11 #
transform $-1 1 0 0 0 1 0 0 0 1 42.409741508224741 18.62886109427718 5.863028528914831 1 rotate no_reflect no_shear #
lump $-1 $-1 $54 $12 #
transform $-1 1 0 0 0 1 0 0 0 1 42.409741508224741 18.62886109427718 5.863028528914831 1 rotate no_reflect no_shear #
lump $-1 $-1 $55 $13 #
transform $-1 1 0 0 0 1 0 0 0 1 42.409741508224741 18.62886109427718 5.863028528914831 1 rotate no_reflect no_shear #
shell $-1 $-1 $-1 $56 $-1 $14 #
shell $-1 $-1 $-1 $57 $-1 $16 #
shell $-1 $-1 $-1 $58 $-1 $18 #
shell $-1 $-1 $-1 $59 $-1 $20 #
shell $-1 $-1 $-1 $60 $-1 $22 #
shell $-1 $-1 $-1 $61 $-1 $24 #
shell $-1 $-1 $-1 $62 $-1 $26 #
shell $-1 $-1 $-1 $63 $-1 $28 #
shell $-1 $-1 $-1 $64 $-1 $30 #
shell $-1 $-1 $-1 $65 $-1 $32 #
shell $-1 $-1 $-1 $66 $-1 $34 #
shell $-1 $-1 $-1 $67 $-1 $36 #
shell $-1 $-1 $-1 $68 $-1 $38 #
shell $-1 $-1 $-1 $69 $-1 $40 #
face $-1 $70 $71 $42 $-1 $72 forward single #
face $-1 $73 $74 $43 $-1 $75 forward single #
face $-1 $76 $77 $44 $-1 $78 forward single #
face $-1 $79 $80 $45 $-1 $81 reversed single #
face $-1 $82 $83 $46 $-1 $84 forward single #
face $-1 $85 $86 $47 $-1 $87 forward single #
face $-1 $88 $89 $48 $-1 $90 forward single #
face $-1 $91 $92 $49 $-1 $93 reversed single #
face $-1 $94 $95 $50 $-1 $96 forward single #
face $-1 $97 $98 $51 $-1 $99 forward single #
face $-1 $100 $101 $52 $-1 $102 forward single #
face $-1 $103 $104 $53 $-1 $105 reversed single #
face $-1 $106 $107 $54 $-1 $108 forward single #
face $-1 $109 $110 $55 $-1 $111 forward single #
face $-1 $112 $113 $42 $-1 $114 reversed single #
loop $-1 $-1 $115 $56 #
plane-surface $-1 0 0 5.863028528914831 0 0 1 1 0 0 forward_v I I I I #
face $-1 $116 $117 $43 $-1 $118 reversed single #
loop $-1 $-1 $119 $57 #
plane-surface $-1 -42.409741508224741 0 0 1 0 0 0 0 -1 forward_v I I I I #
face $-1 $120 $121 $44 $-1 $122 reversed single #
loop $-1 $-1 $123 $58 #
plane-surface $-1 38.669751270556688 0 -2.863028528914831 0 0 1 1 0 0 forward_v I I I I #
face $-1 $124 $125 $45 $-1 $126 reversed single #
loop $-1 $-1 $127 $59 #
plane-surface $-1 -10.22478752858855 -92.084688778466798 44.051436072708903 -1 0 0 0 -0.86602541151947299 0.49999998660252726 forward_v I I I I #
face $-1 $128 $129 $46 $-1 $130 forward single #
loop $-1 $131 $132 $60 #
cone-surface $-1 -20.808827553438157 -15.76321474446854 2.8014359036002756 0 0.86602541151947299 -0.49999998660252726 1 0 0 1 I I 0 1 1 forward I I I I #
face $-1 $133 $134 $47 $-1 $135 forward single #
loop $-1 $136 $137 $61 #
cone-surface $-1 -16.839812544119557 -15.76321474446854 2.8014359036002756 0 0.86602541151947299 -0.49999998660252726 1 0 0 1 I I 0 1 1 forward I I I I #
face $-1 $138 $139 $48 $-1 $140 forward single #
loop $-1 $141 $142 $62 #
cone-surface $-1 -12.870797534800957 -15.76321474446854 2.8014359036002756 0 0.86602541151947299 -0.49999998660252726 1 0 0 1 I I 0 1 1 forward I I I I #
face $-1 $143 $144 $49 $-1 $145 reversed single #
loop $-1 $-1 $146 $63 #
plane-surface $-1 22.325855205268375 -92.084688778466798 44.051436072708903 -1 0 0 0 -0.86602541151947299 0.49999998660252726 forward_v I I I I #
face $-1 $147 $148 $50 $-1 $149 forward single #
loop $-1 $150 $151 $64 #
cone-surface $-1 11.741815180418769 -15.76321474446854 2.8014359036002756 0 0.86602541151947299 -0.49999998660252726 1 0 0 1 I I 0 1 1 forward I I I I #
face $-1 $152 $153 $51 $-1 $154 forward single #
loop $-1 $155 $156 $65 #
cone-surface $-1 15.710830189737365 -15.76321474446854 2.8014359036002756 0 0.86602541151947299 -0.49999998660252726 1 0 0 1 I I 0 1 1 forward I I I I #
face $-1 $157 $158 $52 $-1 $159 forward single #
loop $-1 $160 $161 $66 #
cone-surface $-1 19.679845199055968 -15.76321474446854 2.8014359036002756 0 0.86602541151947299 -0.49999998660252726 1 0 0 1 I I 0 1 1 forward I I I I #
face $-1 $162 $163 $53 $-1 $164 reversed single #
loop $-1 $-1 $165 $67 #
plane-surface $-1 -36.058743387270823 59.655553610119014 84.462348207344135 1 0 0 0 -0.7660444514056185 -0.64278759981090561 forward_v I I I I #
face $-1 $166 $167 $54 $-1 $168 forward single #
loop $-1 $169 $170 $68 #
cone-surface $-1 -32.180712101066135 16.201650246741981 3.1660793464346231 0 -0.7660444514056185 -0.64278759981090561 0.5 0 0 1 I I 0 1 0.5 forward I I I I #
face $-1 $171 $172 $55 $-1 $173 forward single #
loop $-1 $174 $175 $69 #
cone-surface $-1 -26.363665171759116 16.201650246741981 3.1660793464346231 0 -0.7660444514056185 -0.64278759981090561 0.5 0 0 1 I I 0 1 0.5 forward I I I I #
face $-1 $176 $177 $42 $-1 $178 reversed single #
loop $-1 $-1 $179 $70 #
plane-surface $-1 0 0 -5.863028528914831 0 0 1 1 0 0 forward_v I I I I #
coedge $-1 $180 $181 $182 $183 forward $71 $-1 #
face $-1 $184 $185 $43 $-1 $186 forward single #
loop $-1 $-1 $187 $73 #
plane-surface $-1 0 18.62886109427718 0 0 -1 0 0 0 -1 forward_v I I I I #
coedge $-1 $188 $189 $190 $191 forward $74 $-1 #
face $-1 $192 $193 $44 $-1 $194 reversed single #
loop $-1 $-1 $195 $76 #
plane-surface $-1 34.929761032888635 0 -4.363028528914831 1 0 0 0 0 -1 forward_v I I I I #
coedge $-1 $196 $197 $198 $199 reversed $77 $-1 #
face $-1 $200 $201 $45 $-1 $202 reversed single #
loop $-1 $-1 $203 $79 #
plane-surface $-1 -16.839812544119553 -18.628861094277184 1.6416957008508746 0 -0.86602541151947299 0.49999998660252726 1 0 0 forward_v I I I I #
coedge $-1 $204 $205 $206 $207 reversed $80 $-1 #
face $-1 $-1 $208 $46 $-1 $209 forward single #
loop $-1 $210 $211 $82 #
cone-surface $-1 -20.808827553438157 -13.68314946767482 1.600509699016432 0 0.86602541151947299 -0.49999998660252726 0.5 0 0 1 I I -0.70710678118654735 0.70710678118654768 0.5 forward I I I I #
loop $-1 $-1 $212 $60 #
coedge $-1 $132 $132 $213 $214 reversed $83 $-1 #
face $-1 $-1 $215 $47 $-1 $216 forward single #
loop $-1 $217 $218 $85 #
cone-surface $-1 -16.839812544119557 -13.68314946767482 1.600509699016432 0 0.86602541151947299 -0.49999998660252726 0.5 0 0 1 I I -0.70710678118654735 0.70710678118654768 0.5 forward I I I I #
loop $-1 $-1 $219 $61 #
coedge $-1 $137 $137 $220 $221 reversed $86 $-1 #
face $-1 $-1 $222 $48 $-1 $223 forward single #
loop $-1 $224 $225 $88 #
cone-surface $-1 -12.870797534800957 -13.68314946767482 1.600509699016432 0 0.86602541151947299 -0.49999998660252726 0.5 0 0 1 I I -0.70710678118654735 0.70710678118654768 0.5 forward I I I I #
loop $-1 $-1 $226 $62 #
coedge $-1 $142 $142 $227 $228 reversed $89 $-1 #
face $-1 $229 $230 $49 $-1 $231 reversed single #
loop $-1 $-1 $232 $91 #
plane-surface $-1 15.710830189737372 -18.628861094277184 1.6416957008508746 0 -0.86602541151947299 0.49999998660252726 1 0 0 forward_v I I I I #
coedge $-1 $233 $234 $235 $236 reversed $92 $-1 #
face $-1 $-1 $237 $50 $-1 $238 forward single #
loop $-1 $239 $240 $94 #
cone-surface $-1 11.741815180418769 -13.68314946767482 1.600509699016432 0 0.86602541151947299 -0.49999998660252726 0.5 0 0 1 I I -0.70710678118654735 0.70710678118654768 0.5 forward I I I I #
loop $-1 $-1 $241 $64 #
coedge $-1 $151 $151 $242 $243 reversed $95 $-1 #
face $-1 $-1 $244 $51 $-1 $245 forward single #
loop $-1 $246 $247 $97 #
cone-surface $-1 15.710830189737365 -13.68314946767482 1.600509699016432 0 0.86602541151947299 -0.49999998660252726 0.5 0 0 1 I I -0.70710678118654735 0.70710678118654768 0.5 forward I I I I #
loop $-1 $-1 $248 $65 #
coedge $-1 $156 $156 $249 $250 reversed $98 $-1 #
face $-1 $-1 $251 $52 $-1 $252 forward single #
loop $-1 $253 $254 $100 #
cone-surface $-1 19.679845199055968 -13.68314946767482 1.600509699016432 0 0.86602541151947299 -0.49999998660252726 0.5 0 0 1 I I -0.70710678118654735 0.70710678118654768 0.5 forward I I I I #
loop $-1 $-1 $255 $66 #
coedge $-1 $161 $161 $256 $257 reversed $101 $-1 #
face $-1 $258 $259 $53 $-1 $260 reversed single #
loop $-1 $-1 $261 $103 #
plane-surface $-1 -29.272188636412626 -5.3199407257252034 29.941436301998699 0 0.7660444514056185 0.64278759981090561 1 0 0 forward_v I I I I #
coedge $-1 $262 $263 $264 $265 reversed $104 $-1 #
face $-1 $-1 $266 $54 $-1 $267 forward single #
loop $-1 $268 $269 $106 #
cone-surface $-1 -32.180712101066135 15.455237919976025 2.5397650547367947 0 -0.7660444514056185 -0.64278759981090561 0.25 0 0 1 I I -0.70710678118654746 0.70710678118654746 0.25 forward I I I I #
loop $-1 $-1 $270 $68 #
coedge $-1 $170 $170 $271 $272 reversed $107 $-1 #
face $-1 $-1 $273 $55 $-1 $274 forward single #
loop $-1 $275 $276 $109 #
cone-surface $-1 -26.363665171759116 15.455237919976025 2.5397650547367947 0 -0.7660444514056185 -0.64278759981090561 0.25 0 0 1 I I -0.70710678118654746 0.70710678118654746 0.25 forward I I I I #
loop $-1 $-1 $277 $69 #
coedge $-1 $175 $175 $278 $279 reversed $110 $-1 #
face $-1 $280 $281 $42 $-1 $282 reversed single #
loop $-1 $-1 $283 $112 #
plane-surface $-1 0 -18.62886109427718 0 0 1 0 0 0 1 forward_v I I I I #
coedge $-1 $284 $285 $286 $287 forward $113 $-1 #
coedge $-1 $288 $115 $289 $290 forward $71 $-1 #
coedge $-1 $115 $288 $291 $292 forward $71 $-1 #
coedge $-1 $293 $294 $115 $183 reversed $295 $-1 #
edge $-1 $296 -18.62886109427718 $297 18.62886109427718 $182 $298 forward 7 unknown #
face $-1 $299 $300 $43 $-1 $301 reversed single #
loop $-1 $-1 $190 $116 #
plane-surface $-1 -45.5852405687017 0 -1.9715586009669064 0 0 1 1 0 0 forward_v I I I I #
coedge $-1 $302 $303 $189 $304 forward $117 $-1 #
coedge $-1 $305 $119 $306 $307 reversed $74 $-1 #
coedge $-1 $119 $305 $187 $304 reversed $74 $-1 #
coedge $-1 $308 $309 $119 $191 reversed $185 $-1 #
edge $-1 $310 -18.62886109427718 $311 18.62886109427718 $190 $312 forward 7 unknown #
face $-1 $313 $314 $44 $-1 $315 reversed single #
loop $-1 $-1 $316 $120 #
plane-surface $-1 0 -18.62886109427718 0 0 1 0 0 0 1 forward_v I I I I #
coedge $-1 $317 $318 $319 $320 reversed $121 $-1 #
coedge $-1 $321 $123 $322 $323 reversed $77 $-1 #
coedge $-1 $123 $321 $316 $324 reversed $77 $-1 #
coedge $-1 $325 $326 $123 $199 forward $327 $-1 #
edge $-1 $328 -18.62886109427718 $329 18.62886109427718 $198 $330 forward 7 unknown #
face $-1 $331 $332 $45 $-1 $333 forward single #
loop $-1 $-1 $334 $124 #
plane-surface $-1 -23.454837559650556 -92.084688778466798 44.051436072708903 1 0 0 0 0.86602541151947299 -0.49999998660252726 forward_v I I I I #
coedge $-1 $335 $336 $337 $338 reversed $125 $-1 #
coedge $-1 $205 $127 $339 $340 reversed $80 $-1 #
coedge $-1 $127 $204 $335 $341 reversed $80 $-1 #
coedge $-1 $337 $342 $127 $207 forward $332 $-1 #
edge $-1 $343 27.413483294956219 $344 29.850670852505534 $206 $345 forward 7 unknown #
loop $-1 $-1 $213 $128 #
plane-surface $-1 -16.839812544119553 -18.628861094277184 1.6416957008508746 0 -0.86602541151947299 0.49999998660252726 1 0 0 forward_v I I I I #
loop $-1 $-1 $346 $82 #
coedge $-1 $211 $211 $212 $347 reversed $129 $-1 #
coedge $-1 $212 $212 $211 $347 forward $131 $-1 #
coedge $-1 $213 $213 $132 $214 forward $208 $-1 #
edge $-1 $348 -3.8459254071175807e-016 $348 6.2831853071796004 $213 $349 forward 7 unknown #
loop $-1 $-1 $220 $133 #
plane-surface $-1 -16.839812544119553 -18.628861094277184 1.6416957008508746 0 -0.86602541151947299 0.49999998660252726 1 0 0 forward_v I I I I #
loop $-1 $-1 $350 $85 #
coedge $-1 $218 $218 $219 $351 reversed $134 $-1 #
coedge $-1 $219 $219 $218 $351 forward $136 $-1 #
coedge $-1 $220 $220 $137 $221 forward $215 $-1 #
edge $-1 $352 -3.8459254071175807e-016 $352 6.2831853071796004 $220 $353 forward 7 unknown #
loop $-1 $-1 $227 $138 #
plane-surface $-1 -16.839812544119553 -18.628861094277184 1.6416957008508746 0 -0.86602541151947299 0.49999998660252726 1 0 0 forward_v I I I I #
loop $-1 $-1 $354 $88 #
coedge $-1 $225 $225 $226 $355 reversed $139 $-1 #
coedge $-1 $226 $226 $225 $355 forward $141 $-1 #
coedge $-1 $227 $227 $142 $228 forward $222 $-1 #
edge $-1 $356 -3.8459254071175807e-016 $356 6.2831853071796004 $227 $357 forward 7 unknown #
face $-1 $358 $359 $49 $-1 $360 reversed single #
loop $-1 $-1 $361 $143 #
plane-surface $-1 9.0958051742063688 -92.084688778466798 44.051436072708903 1 0 0 0 0.86602541151947299 -0.49999998660252726 forward_v I I I I #
coedge $-1 $362 $363 $364 $365 reversed $144 $-1 #
coedge $-1 $234 $146 $366 $367 reversed $92 $-1 #
coedge $-1 $146 $233 $362 $368 reversed $92 $-1 #
coedge $-1 $364 $369 $146 $236 forward $370 $-1 #
edge $-1 $371 27.413483294956219 $372 29.850670852505534 $235 $373 forward 7 unknown #
loop $-1 $-1 $242 $147 #
plane-surface $-1 15.710830189737372 -18.628861094277184 1.6416957008508746 0 -0.86602541151947299 0.49999998660252726 1 0 0 forward_v I I I I #
loop $-1 $-1 $374 $94 #
coedge $-1 $240 $240 $241 $375 reversed $148 $-1 #
coedge $-1 $241 $241 $240 $375 forward $150 $-1 #
coedge $-1 $242 $242 $151 $243 forward $237 $-1 #
edge $-1 $376 -3.8459254071175807e-016 $376 6.2831853071796004 $242 $377 forward 7 unknown #
loop $-1 $-1 $249 $152 #
plane-surface $-1 15.710830189737372 -18.628861094277184 1.6416957008508746 0 -0.86602541151947299 0.49999998660252726 1 0 0 forward_v I I I I #
loop $-1 $-1 $378 $97 #
coedge $-1 $247 $247 $248 $379 reversed $153 $-1 #
coedge $-1 $248 $248 $247 $379 forward $155 $-1 #
coedge $-1 $249 $249 $156 $250 forward $244 $-1 #
edge $-1 $380 -3.8459254071175807e-016 $380 6.2831853071796004 $249 $381 forward 7 unknown #
loop $-1 $-1 $256 $157 #
plane-surface $-1 15.710830189737372 -18.628861094277184 1.6416957008508746 0 -0.86602541151947299 0.49999998660252726 1 0 0 forward_v I I I I #
loop $-1 $-1 $382 $100 #
coedge $-1 $254 $254 $255 $383 reversed $158 $-1 #
coedge $-1 $255 $255 $254 $383 forward $160 $-1 #
coedge $-1 $256 $256 $161 $257 forward $251 $-1 #
edge $-1 $384 -3.8459254071175807e-016 $384 6.2831853071796004 $256 $385 forward 7 unknown #
face $-1 $386 $387 $53 $-1 $388 reversed single #
loop $-1 $-1 $389 $162 #
plane-surface $-1 -22.485633885554432 59.655553610119014 84.462348207344135 -1 0 0 0 0.7660444514056185 0.64278759981090561 forward_v I I I I #
coedge $-1 $390 $391 $392 $393 reversed $163 $-1 #
coedge $-1 $263 $165 $394 $395 reversed $104 $-1 #
coedge $-1 $165 $262 $390 $396 reversed $104 $-1 #
coedge $-1 $392 $397 $165 $265 forward $398 $-1 #
edge $-1 $399 11.198915710782327 $400 14.943534978023628 $264 $401 forward 7 unknown #
loop $-1 $-1 $271 $166 #
plane-surface $-1 -29.272188636412626 -5.3199407257252034 29.941436301998699 0 0.7660444514056185 0.64278759981090561 1 0 0 forward_v I I I I #
loop $-1 $-1 $402 $106 #
coedge $-1 $269 $269 $270 $403 reversed $167 $-1 #
coedge $-1 $270 $270 $269 $403 forward $169 $-1 #
coedge $-1 $271 $271 $170 $272 forward $266 $-1 #
edge $-1 $404 -4.8497569520614378e-016 $404 6.2831853071795996 $271 $405 forward 7 unknown #
loop $-1 $-1 $278 $171 #
plane-surface $-1 -29.272188636412626 -5.3199407257252034 29.941436301998699 0 0.7660444514056185 0.64278759981090561 1 0 0 forward_v I I I I #
loop $-1 $-1 $406 $109 #
coedge $-1 $276 $276 $277 $407 reversed $172 $-1 #
coedge $-1 $277 $277 $276 $407 forward $174 $-1 #
coedge $-1 $278 $278 $175 $279 forward $273 $-1 #
edge $-1 $408 -4.8497569520614378e-016 $408 6.2831853071795996 $278 $409 forward 7 unknown #
face $-1 $410 $411 $42 $-1 $412 reversed single #
loop $-1 $-1 $413 $176 #
plane-surface $-1 -42.409741508224741 0 0 1 0 0 0 0 -1 forward_v I I I I #
coedge $-1 $414 $291 $413 $415 forward $177 $-1 #
coedge $-1 $416 $179 $414 $417 forward $113 $-1 #
coedge $-1 $179 $416 $418 $419 forward $113 $-1 #
coedge $-1 $294 $293 $179 $287 reversed $295 $-1 #
edge $-1 $420 -18.62886109427718 $421 18.62886109427718 $286 $422 forward 7 unknown #
coedge $-1 $181 $180 $423 $424 forward $71 $-1 #
coedge $-1 $425 $426 $180 $290 reversed $411 $-1 #
edge $-1 $297 -42.409741508224741 $427 42.409741508224741 $289 $428 forward 7 unknown #
coedge $-1 $283 $429 $181 $292 reversed $177 $-1 #
edge $-1 $430 -42.409741508224741 $296 42.409741508224741 $291 $431 forward 7 unknown #
coedge $-1 $286 $182 $429 $432 forward $295 $-1 #
coedge $-1 $182 $286 $425 $433 reversed $295 $-1 #
loop $-1 $-1 $293 $410 #
vertex $-1 $183 $434 #
vertex $-1 $183 $435 #
straight-curve $-1 42.409741508224741 0 5.863028528914831 0 1 0 I I #
face $-1 $436 $437 $43 $-1 $438 reversed single #
loop $-1 $-1 $439 $184 #
plane-surface $-1 -45.5852405687017 0 -5.3431533936040765 0 0 1 1 0 0 forward_v I I I I #
coedge $-1 $440 $187 $441 $442 reversed $117 $-1 #
coedge $-1 $187 $440 $308 $443 reversed $117 $-1 #
edge $-1 $310 1.9715586009669064 $444 5.3431533936040765 $187 $445 forward 7 unknown #
coedge $-1 $189 $188 $439 $446 forward $74 $-1 #
coedge $-1 $447 $448 $188 $307 forward $449 $-1 #
edge $-1 $450 -5.3431533936040765 $311 -1.9715586009669064 $306 $451 forward 7 unknown #
coedge $-1 $452 $190 $303 $443 forward $185 $-1 #
coedge $-1 $190 $452 $447 $453 forward $185 $-1 #
vertex $-1 $304 $454 #
vertex $-1 $453 $455 #
straight-curve $-1 -42.409741508224741 0 -1.9715586009669064 0 -1 0 I I #
face $-1 $456 $457 $44 $-1 $458 reversed single #
loop $-1 $-1 $459 $192 #
plane-surface $-1 0 0 -5.863028528914831 0 0 1 1 0 0 forward_v I I I I #
coedge $-1 $460 $461 $197 $324 forward $193 $-1 #
coedge $-1 $462 $195 $459 $463 reversed $121 $-1 #
coedge $-1 $195 $462 $321 $464 reversed $121 $-1 #
coedge $-1 $322 $465 $195 $320 forward $457 $-1 #
edge $-1 $466 -3.6815142644574155 $467 -0.68151426445741548 $319 $468 forward 7 unknown #
coedge $-1 $197 $196 $318 $464 forward $77 $-1 #
coedge $-1 $469 $319 $196 $323 forward $457 $-1 #
edge $-1 $467 15.594885397610291 $328 23.074865872946397 $322 $470 forward 7 unknown #
edge $-1 $329 -23.074865872946397 $471 -15.594885397610291 $316 $472 forward 7 unknown #
coedge $-1 $473 $198 $461 $474 forward $327 $-1 #
coedge $-1 $198 $473 $469 $475 reversed $327 $-1 #
loop $-1 $-1 $198 $456 #
vertex $-1 $475 $476 #
vertex $-1 $474 $477 #
straight-curve $-1 42.409741508224741 0 -2.863028528914831 0 -1 0 I I #
face $-1 $-1 $478 $45 $-1 $479 reversed single #
loop $-1 $-1 $206 $200 #
plane-surface $-1 0 0 5.863028528914831 0 0 1 1 0 0 forward_v I I I I #
coedge $-1 $480 $481 $482 $483 reversed $201 $-1 #
coedge $-1 $484 $203 $205 $341 forward $125 $-1 #
coedge $-1 $203 $484 $480 $485 forward $125 $-1 #
coedge $-1 $482 $206 $203 $338 forward $332 $-1 #
edge $-1 $344 1.8048812565287733 $486 15.03493128759078 $337 $487 forward 7 unknown #
coedge $-1 $488 $489 $204 $340 forward $478 $-1 #
edge $-1 $490 -20.38402233550357 $343 -16.16268950743962 $339 $491 forward 7 unknown #
edge $-1 $344 -4.8743752457072542 $490 -7.160652361767478e-015 $205 $492 forward 7 unknown #
coedge $-1 $206 $482 $488 $493 forward $332 $-1 #
vertex $-1 $340 $494 #
vertex $-1 $207 $495 #
straight-curve $-1 -10.22478752858855 -46.042344389233399 5.8630285289148318 0 1 0 I I #
coedge $-1 $346 $346 $-1 $496 reversed $210 $-1 #
edge $-1 $497 0 $497 6.2831853071796004 $211 $498 forward 7 unknown #
vertex $-1 $214 $499 #
ellipse-curve $-1 -20.808827553438157 -17.410267315502523 3.7523621148828559 0 -0.86602541151947299 0.49999998660252726 1 0 0 1 I I #
coedge $-1 $350 $350 $-1 $500 reversed $217 $-1 #
edge $-1 $501 0 $501 6.2831853071796004 $218 $502 forward 7 unknown #
vertex $-1 $221 $503 #
ellipse-curve $-1 -16.839812544119557 -17.410267315502523 3.7523621148828559 0 -0.86602541151947299 0.49999998660252726 1 0 0 1 I I #
coedge $-1 $354 $354 $-1 $504 reversed $224 $-1 #
edge $-1 $505 0 $505 6.2831853071796004 $225 $506 forward 7 unknown #
vertex $-1 $228 $507 #
ellipse-curve $-1 -12.870797534800957 -17.410267315502523 3.7523621148828559 0 -0.86602541151947299 0.49999998660252726 1 0 0 1 I I #
face $-1 $-1 $370 $49 $-1 $508 forward single #
loop $-1 $-1 $509 $229 #
plane-surface $-1 0 -18.62886109427718 0 0 1 0 0 0 1 forward_v I I I I #
coedge $-1 $510 $511 $512 $513 reversed $230 $-1 #
coedge $-1 $514 $232 $234 $368 forward $144 $-1 #
coedge $-1 $232 $514 $510 $515 forward $144 $-1 #
coedge $-1 $512 $235 $232 $365 forward $370 $-1 #
edge $-1 $372 -14.470440110399689 $516 -1.2403900793376827 $364 $517 forward 7 unknown #
coedge $-1 $518 $519 $233 $367 forward $359 $-1 #
edge $-1 $520 -20.38402233550357 $371 -16.16268950743962 $366 $521 forward 7 unknown #
edge $-1 $372 -4.8743752457072542 $520 -7.160652361767478e-015 $234 $522 forward 7 unknown #
coedge $-1 $235 $512 $518 $523 forward $370 $-1 #
loop $-1 $-1 $512 $358 #
vertex $-1 $367 $524 #
vertex $-1 $236 $525 #
straight-curve $-1 22.325855205268375 -46.042344389233399 5.8630285289148318 0 1 0 I I #
coedge $-1 $374 $374 $-1 $526 reversed $239 $-1 #
edge $-1 $527 0 $527 6.2831853071796004 $240 $528 forward 7 unknown #
vertex $-1 $243 $529 #
ellipse-curve $-1 11.741815180418769 -17.410267315502523 3.7523621148828559 0 -0.86602541151947299 0.49999998660252726 1 0 0 1 I I #
coedge $-1 $378 $378 $-1 $530 reversed $246 $-1 #
edge $-1 $531 0 $531 6.2831853071796004 $247 $532 forward 7 unknown #
vertex $-1 $250 $533 #
ellipse-curve $-1 15.710830189737365 -17.410267315502523 3.7523621148828559 0 -0.86602541151947299 0.49999998660252726 1 0 0 1 I I #
coedge $-1 $382 $382 $-1 $534 reversed $253 $-1 #
edge $-1 $535 0 $535 6.2831853071796004 $254 $536 forward 7 unknown #
vertex $-1 $257 $537 #
ellipse-curve $-1 19.679845199055968 -17.410267315502523 3.7523621148828559 0 -0.86602541151947299 0.49999998660252726 1 0 0 1 I I #
face $-1 $-1 $398 $53 $-1 $538 forward single #
loop $-1 $-1 $539 $258 #
plane-surface $-1 0 18.62886109427718 0 0 -1 0 0 0 -1 forward_v I I I I #
coedge $-1 $540 $541 $542 $543 reversed $259 $-1 #
coedge $-1 $544 $261 $263 $396 forward $163 $-1 #
coedge $-1 $261 $544 $540 $545 forward $163 $-1 #
coedge $-1 $542 $264 $261 $393 forward $398 $-1 #
edge $-1 $400 -21.422649069064512 $546 -7.8495395673481188 $392 $547 forward 7 unknown #
coedge $-1 $548 $549 $262 $395 forward $387 $-1 #
edge $-1 $550 -40.830809156227438 $399 -36.368145574757236 $394 $551 forward 7 unknown #
edge $-1 $400 31.432128682483491 $550 37.257722188554382 $263 $552 forward 7 unknown #
coedge $-1 $264 $542 $548 $553 forward $398 $-1 #
loop $-1 $-1 $542 $386 #
vertex $-1 $395 $554 #
vertex $-1 $265 $555 #
straight-curve $-1 -36.058743387270823 29.827776805059507 5.8630285289148318 0 -1 0 I I #
coedge $-1 $402 $402 $-1 $556 reversed $268 $-1 #
edge $-1 $557 0 $557 6.2831853071796004 $269 $558 forward 7 unknown #
vertex $-1 $272 $559 #
ellipse-curve $-1 -32.180712101066135 16.756551460656535 3.6316967381797278 0 0.7660444514056185 0.64278759981090561 0.5 0 0 1 I I #
coedge $-1 $406 $406 $-1 $560 reversed $275 $-1 #
edge $-1 $561 0 $561 6.2831853071796004 $276 $562 forward 7 unknown #
vertex $-1 $279 $563 #
ellipse-curve $-1 -26.363665171759116 16.756551460656535 3.6316967381797278 0 0.7660444514056185 0.64278759981090561 0.5 0 0 1 I I #
face $-1 $-1 $295 $42 $-1 $564 reversed single #
loop $-1 $-1 $425 $280 #
plane-surface $-1 0 18.62886109427718 0 0 -1 0 0 0 -1 forward_v I I I I #
coedge $-1 $423 $565 $283 $415 reversed $281 $-1 #
coedge $-1 $429 $283 $284 $417 reversed $177 $-1 #
edge $-1 $430 -5.863028528914831 $566 5.863028528914831 $413 $567 forward 7 unknown #
coedge $-1 $285 $284 $565 $568 forward $113 $-1 #
edge $-1 $421 -42.409741508224741 $566 42.409741508224741 $414 $569 forward 7 unknown #
coedge $-1 $426 $425 $285 $419 reversed $411 $-1 #
edge $-1 $570 -42.409741508224741 $420 42.409741508224741 $418 $571 forward 7 unknown #
vertex $-1 $287 $572 #
vertex $-1 $432 $573 #
straight-curve $-1 42.409741508224741 0 -5.863028528914831 0 -1 0 I I #
coedge $-1 $574 $413 $288 $424 reversed $281 $-1 #
edge $-1 $427 -18.62886109427718 $430 18.62886109427718 $423 $575 forward 7 unknown #
coedge $-1 $418 $289 $294 $433 forward $411 $-1 #
coedge $-1 $289 $418 $574 $576 reversed $411 $-1 #
vertex $-1 $290 $577 #
straight-curve $-1 0 18.62886109427718 5.863028528914831 -1 0 0 I I #
coedge $-1 $291 $414 $293 $432 reversed $177 $-1 #
vertex $-1 $424 $578 #
straight-curve $-1 0 -18.62886109427718 5.863028528914831 1 0 0 I I #
edge $-1 $296 -5.863028528914831 $421 5.863028528914831 $293 $579 forward 7 unknown #
edge $-1 $297 -5.863028528914831 $420 5.863028528914831 $294 $580 forward 7 unknown #
point $-1 42.409741508224741 -18.62886109427718 5.863028528914831 #
point $-1 42.409741508224741 18.62886109427718 5.863028528914831 #
face $-1 $-1 $449 $43 $-1 $581 reversed single #
loop $-1 $-1 $582 $299 #
plane-surface $-1 -48.760739629178659 0 -3.6573559972854914 1 0 0 0 0 -1 forward_v I I I I #
coedge $-1 $583 $441 $305 $446 reversed $300 $-1 #
coedge $-1 $303 $302 $582 $584 reversed $117 $-1 #
coedge $-1 $439 $585 $302 $442 forward $300 $-1 #
edge $-1 $586 -3.1754990604769588 $444 3.1754990604769588 $302 $587 forward 7 unknown #
edge $-1 $310 -3.1754990604769588 $588 3.1754990604769588 $303 $589 forward 7 unknown #
vertex $-1 $304 $590 #
straight-curve $-1 -42.409741508224741 18.62886109427718 0 0 0 -1 I I #
edge $-1 $450 -18.62886109427718 $444 18.62886109427718 $439 $591 forward 7 unknown #
coedge $-1 $592 $306 $309 $453 reversed $449 $-1 #
coedge $-1 $306 $592 $583 $593 reversed $449 $-1 #
loop $-1 $-1 $306 $436 #
vertex $-1 $307 $594 #
straight-curve $-1 -42.409741508224741 -18.62886109427718 0 0 0 1 I I #
coedge $-1 $309 $308 $595 $596 forward $185 $-1 #
edge $-1 $597 -3.1754990604769588 $311 3.1754990604769588 $447 $598 forward 7 unknown #
point $-1 -42.409741508224741 18.62886109427718 -1.9715586009669064 #
point $-1 -42.409741508224741 -18.62886109427718 -1.9715586009669064 #
face $-1 $-1 $327 $44 $-1 $599 reversed single #
loop $-1 $-1 $322 $313 #
plane-surface $-1 0 18.62886109427718 0 0 -1 0 0 0 -1 forward_v I I I I #
coedge $-1 $600 $601 $317 $463 forward $314 $-1 #
coedge $-1 $602 $316 $462 $603 forward $193 $-1 #
coedge $-1 $316 $602 $325 $474 reversed $193 $-1 #
coedge $-1 $318 $317 $460 $603 reversed $121 $-1 #
edge $-1 $604 -18.62886109427718 $466 18.62886109427718 $459 $605 forward 7 unknown #
edge $-1 $467 -18.62886109427718 $471 18.62886109427718 $318 $606 forward 7 unknown #
coedge $-1 $319 $469 $600 $607 reversed $457 $-1 #
vertex $-1 $607 $608 #
vertex $-1 $323 $609 #
straight-curve $-1 34.929761032888635 18.62886109427718 -2.1815142644574155 0 0 1 I I #
coedge $-1 $465 $322 $326 $475 forward $457 $-1 #
straight-curve $-1 19.334875635278344 18.62886109427718 -2.863028528914831 1 0 0 I I #
vertex $-1 $324 $610 #
straight-curve $-1 19.334875635278344 -18.62886109427718 -2.863028528914831 -1 0 0 I I #
coedge $-1 $326 $325 $611 $612 reversed $327 $-1 #
edge $-1 $329 2.863028528914831 $613 5.863028528914831 $325 $614 forward 7 unknown #
edge $-1 $328 2.863028528914831 $615 5.863028528914831 $326 $616 forward 7 unknown #
point $-1 42.409741508224741 18.62886109427718 -2.863028528914831 #
point $-1 42.409741508224741 -18.62886109427718 -2.863028528914831 #
loop $-1 $-1 $339 $331 #
plane-surface $-1 0 -18.62886109427718 0 0 1 0 0 0 1 forward_v I I I I #
coedge $-1 $481 $334 $336 $485 reversed $201 $-1 #
coedge $-1 $334 $480 $617 $618 reversed $201 $-1 #
coedge $-1 $342 $337 $334 $483 forward $332 $-1 #
edge $-1 $486 -29.850670852505534 $619 -27.413483294956219 $482 $620 forward 7 unknown #
coedge $-1 $336 $335 $489 $621 reversed $125 $-1 #
edge $-1 $622 7.160652361767478e-015 $486 4.8743752457072542 $480 $623 forward 7 unknown #
vertex $-1 $338 $624 #
straight-curve $-1 -8.4199062720597766 -16.191673536727869 5.863028528914831 -1 0 0 I I #
coedge $-1 $617 $339 $342 $493 reversed $478 $-1 #
coedge $-1 $339 $617 $484 $621 forward $478 $-1 #
vertex $-1 $340 $625 #
straight-curve $-1 -10.22478752858855 -18.628861094277184 22.025718036354451 0 0 1 I I #
straight-curve $-1 -10.22478752858855 -18.628861094277184 1.6416957008508746 0 -0.49999998660252726 -0.86602541151947299 I I #
edge $-1 $619 -23.454837559650556 $343 -10.22478752858855 $488 $626 forward 7 unknown #
point $-1 -10.22478752858855 -18.62886109427718 5.863028528914831 #
point $-1 -10.22478752858855 -16.191673536727865 5.863028528914831 #
edge $-1 $627 1 $627 0 $346 $-1 forward 7 unknown #
vertex $-1 $347 $628 #
ellipse-curve $-1 -20.808827553438157 -14.116162173434557 1.8505096923176958 0 -0.86602541151947299 0.49999998660252726 1 0 0 1 I I #
point $-1 -19.808827553438157 -17.410267315502523 3.7523621148828554 #
edge $-1 $629 1 $629 0 $350 $-1 forward 7 unknown #
vertex $-1 $351 $630 #
ellipse-curve $-1 -16.839812544119557 -14.116162173434557 1.8505096923176958 0 -0.86602541151947299 0.49999998660252726 1 0 0 1 I I #
point $-1 -15.839812544119557 -17.410267315502523 3.7523621148828554 #
edge $-1 $631 1 $631 0 $354 $-1 forward 7 unknown #
vertex $-1 $355 $632 #
ellipse-curve $-1 -12.870797534800957 -14.116162173434557 1.8505096923176958 0 -0.86602541151947299 0.49999998660252726 1 0 0 1 I I #
point $-1 -11.870797534800957 -17.410267315502523 3.7523621148828554 #
plane-surface $-1 0 0 5.863028528914831 0 0 1 1 0 0 forward_v I I I I #
coedge $-1 $519 $518 $511 $633 forward $359 $-1 #
coedge $-1 $511 $361 $363 $515 reversed $230 $-1 #
coedge $-1 $361 $510 $509 $633 reversed $230 $-1 #
coedge $-1 $369 $364 $361 $513 forward $370 $-1 #
edge $-1 $516 -29.850670852505534 $634 -27.413483294956219 $512 $635 forward 7 unknown #
coedge $-1 $363 $362 $519 $636 reversed $144 $-1 #
edge $-1 $637 7.160652361767478e-015 $516 4.8743752457072542 $510 $638 forward 7 unknown #
vertex $-1 $365 $639 #
straight-curve $-1 7.8554150948686861 -16.191673536727869 5.863028528914831 -1 0 0 I I #
coedge $-1 $509 $366 $369 $523 reversed $359 $-1 #
coedge $-1 $366 $509 $514 $636 forward $359 $-1 #
vertex $-1 $367 $640 #
straight-curve $-1 22.325855205268375 -18.628861094277184 22.025718036354451 0 0 1 I I #
straight-curve $-1 22.325855205268375 -18.628861094277184 1.6416957008508746 0 -0.49999998660252726 -0.86602541151947299 I I #
edge $-1 $634 9.0958051742063688 $371 22.325855205268375 $518 $641 forward 7 unknown #
point $-1 22.325855205268375 -18.62886109427718 5.863028528914831 #
point $-1 22.325855205268375 -16.191673536727865 5.863028528914831 #
edge $-1 $642 1 $642 0 $374 $-1 forward 7 unknown #
vertex $-1 $375 $643 #
ellipse-curve $-1 11.741815180418769 -14.116162173434557 1.8505096923176958 0 -0.86602541151947299 0.49999998660252726 1 0 0 1 I I #
point $-1 12.741815180418769 -17.410267315502523 3.7523621148828554 #
edge $-1 $644 1 $644 0 $378 $-1 forward 7 unknown #
vertex $-1 $379 $645 #
ellipse-curve $-1 15.710830189737365 -14.116162173434557 1.8505096923176958 0 -0.86602541151947299 0.49999998660252726 1 0 0 1 I I #
point $-1 16.710830189737365 -17.410267315502523 3.7523621148828554 #
edge $-1 $646 1 $646 0 $382 $-1 forward 7 unknown #
vertex $-1 $383 $647 #
ellipse-curve $-1 19.679845199055968 -14.116162173434557 1.8505096923176958 0 -0.86602541151947299 0.49999998660252726 1 0 0 1 I I #
point $-1 20.679845199055968 -17.410267315502523 3.7523621148828554 #
plane-surface $-1 0 0 5.863028528914831 0 0 1 1 0 0 forward_v I I I I #
coedge $-1 $549 $548 $541 $648 forward $387 $-1 #
coedge $-1 $541 $389 $391 $545 reversed $259 $-1 #
coedge $-1 $389 $540 $539 $648 reversed $259 $-1 #
coedge $-1 $397 $392 $389 $543 forward $398 $-1 #
edge $-1 $546 -14.943534978023628 $649 -11.198915710782327 $542 $650 forward 7 unknown #
coedge $-1 $391 $390 $549 $651 reversed $163 $-1 #
edge $-1 $652 -37.257722188554382 $546 -31.432128682483491 $540 $653 forward 7 unknown #
vertex $-1 $393 $654 #
straight-curve $-1 -14.636094318206313 14.884241827035879 5.8630285289148318 1 0 0 I I #
coedge $-1 $539 $394 $397 $553 reversed $387 $-1 #
coedge $-1 $394 $539 $544 $651 forward $387 $-1 #
vertex $-1 $395 $655 #
straight-curve $-1 -36.058743387270823 18.62886109427718 42.231174103672068 0 0 1 I I #
straight-curve $-1 -36.058743387270823 -5.3199407257252034 29.941436301998699 0 0.64278759981090561 -0.7660444514056185 I I #
edge $-1 $649 22.485633885554432 $399 36.058743387270823 $548 $656 forward 7 unknown #
point $-1 -36.058743387270823 18.62886109427718 5.863028528914831 #
point $-1 -36.058743387270823 14.884241827035879 5.8630285289148318 #
edge $-1 $657 1 $657 0 $402 $-1 forward 7 unknown #
vertex $-1 $403 $658 #
ellipse-curve $-1 -32.180712101066135 15.646749032827429 2.700461954689521 0 0.7660444514056185 0.64278759981090561 0.5 0 0 1 I I #
point $-1 -31.680712101066135 16.756551460656532 3.6316967381797252 #
edge $-1 $659 1 $659 0 $406 $-1 forward 7 unknown #
vertex $-1 $407 $660 #
ellipse-curve $-1 -26.363665171759116 15.646749032827429 2.700461954689521 0 0.7660444514056185 0.64278759981090561 0.5 0 0 1 I I #
point $-1 -25.863665171759116 16.756551460656532 3.6316967381797252 #
plane-surface $-1 42.409741508224741 0 0 -1 0 0 0 0 1 forward_v I I I I #
coedge $-1 $413 $574 $416 $568 reversed $281 $-1 #
vertex $-1 $568 $661 #
straight-curve $-1 -42.409741508224741 -18.62886109427718 0 0 0 -1 I I #
edge $-1 $566 -18.62886109427718 $570 18.62886109427718 $565 $662 forward 7 unknown #
straight-curve $-1 0 -18.62886109427718 -5.863028528914831 -1 0 0 I I #
vertex $-1 $419 $663 #
straight-curve $-1 0 18.62886109427718 -5.863028528914831 1 0 0 I I #
point $-1 42.409741508224741 18.62886109427718 -5.863028528914831 #
point $-1 42.409741508224741 -18.62886109427718 -5.863028528914831 #
coedge $-1 $565 $423 $426 $576 forward $281 $-1 #
straight-curve $-1 -42.409741508224741 0 5.863028528914831 0 -1 0 I I #
edge $-1 $427 -5.863028528914831 $570 5.863028528914831 $426 $664 forward 7 unknown #
point $-1 -42.409741508224741 18.62886109427718 5.863028528914831 #
point $-1 -42.409741508224741 -18.62886109427718 5.863028528914831 #
straight-curve $-1 42.409741508224741 -18.62886109427718 0 0 0 -1 I I #
straight-curve $-1 42.409741508224741 18.62886109427718 0 0 0 -1 I I #
plane-surface $-1 0 -18.62886109427718 0 0 1 0 0 0 1 forward_v I I I I #
coedge $-1 $665 $595 $440 $584 forward $437 $-1 #
coedge $-1 $585 $439 $448 $593 forward $300 $-1 #
edge $-1 $588 -1.6857973963185851 $586 1.6857973963185851 $440 $666 forward 7 unknown #
coedge $-1 $441 $583 $665 $667 forward $300 $-1 #
vertex $-1 $442 $668 #
straight-curve $-1 -45.5852405687017 18.62886109427718 -5.3431533936040765 1 0 0 I I #
vertex $-1 $443 $669 #
straight-curve $-1 -45.5852405687017 18.62886109427718 -1.9715586009669064 -1 0 0 I I #
point $-1 -42.409741508224741 18.62886109427718 -5.3431533936040765 #
straight-curve $-1 -42.409741508224741 0 -5.3431533936040765 0 1 0 I I #
coedge $-1 $448 $447 $670 $671 forward $449 $-1 #
edge $-1 $450 -3.1754990604769588 $672 3.1754990604769588 $448 $673 forward 7 unknown #
point $-1 -42.409741508224741 -18.62886109427718 -5.3431533936040765 #
coedge $-1 $582 $670 $452 $596 reversed $437 $-1 #
edge $-1 $588 -18.62886109427718 $597 18.62886109427718 $595 $674 forward 7 unknown #
vertex $-1 $596 $675 #
straight-curve $-1 -45.5852405687017 -18.62886109427718 -1.9715586009669064 1 0 0 I I #
plane-surface $-1 42.409741508224741 0 0 -1 0 0 0 0 1 forward_v I I I I #
coedge $-1 $611 $459 $465 $607 forward $314 $-1 #
coedge $-1 $459 $611 $602 $676 forward $314 $-1 #
coedge $-1 $461 $460 $601 $676 reversed $193 $-1 #
edge $-1 $471 0.68151426445741548 $604 3.6815142644574155 $460 $677 forward 7 unknown #
vertex $-1 $463 $678 #
straight-curve $-1 34.929761032888635 0 -5.863028528914831 0 1 0 I I #
straight-curve $-1 34.929761032888635 0 -2.863028528914831 0 -1 0 I I #
edge $-1 $466 34.929761032888635 $615 42.409741508224741 $465 $679 forward 7 unknown #
point $-1 34.929761032888635 18.62886109427718 -5.863028528914831 #
point $-1 34.929761032888635 18.62886109427718 -2.863028528914831 #
point $-1 34.929761032888635 -18.62886109427718 -2.863028528914831 #
coedge $-1 $601 $600 $473 $612 forward $314 $-1 #
edge $-1 $615 -18.62886109427718 $613 18.62886109427718 $473 $680 forward 7 unknown #
vertex $-1 $474 $681 #
straight-curve $-1 42.409741508224741 -18.62886109427718 0 0 0 -1 I I #
vertex $-1 $612 $682 #
straight-curve $-1 42.409741508224741 18.62886109427718 0 0 0 -1 I I #
coedge $-1 $489 $488 $481 $618 forward $478 $-1 #
edge $-1 $619 16.16268950743962 $622 20.38402233550357 $617 $683 forward 7 unknown #
vertex $-1 $493 $684 #
straight-curve $-1 -23.454837559650556 -46.042344389233399 5.8630285289148318 0 -1 0 I I #
edge $-1 $622 -15.03493128759078 $490 -1.8048812565287733 $489 $685 forward 7 unknown #
vertex $-1 $621 $686 #
straight-curve $-1 -23.454837559650556 -18.628861094277184 1.6416957008508746 0 0.49999998660252726 0.86602541151947299 I I #
point $-1 -23.454837559650556 -16.191673536727865 5.863028528914831 #
point $-1 -10.22478752858855 -18.62886109427718 1.6416957008508808 #
straight-curve $-1 0 -18.62886109427718 5.863028528914831 1 0 0 I I #
vertex $-1 $496 $687 #
point $-1 -19.808827553438157 -14.116162173434557 1.8505096923176958 #
vertex $-1 $500 $688 #
point $-1 -15.839812544119557 -14.116162173434557 1.8505096923176958 #
vertex $-1 $504 $689 #
point $-1 -11.870797534800957 -14.116162173434557 1.8505096923176958 #
edge $-1 $634 16.16268950743962 $637 20.38402233550357 $509 $690 forward 7 unknown #
vertex $-1 $523 $691 #
straight-curve $-1 9.0958051742063688 -46.042344389233399 5.8630285289148318 0 -1 0 I I #
edge $-1 $637 1.2403900793376827 $520 14.470440110399689 $519 $692 forward 7 unknown #
vertex $-1 $636 $693 #
straight-curve $-1 9.0958051742063688 -18.628861094277184 1.6416957008508746 0 0.49999998660252726 0.86602541151947299 I I #
point $-1 9.0958051742063688 -16.191673536727865 5.863028528914831 #
point $-1 22.325855205268375 -18.62886109427718 1.6416957008508808 #
straight-curve $-1 0 -18.62886109427718 5.863028528914831 1 0 0 I I #
vertex $-1 $526 $694 #
point $-1 12.741815180418769 -14.116162173434557 1.8505096923176958 #
vertex $-1 $530 $695 #
point $-1 16.710830189737365 -14.116162173434557 1.8505096923176958 #
vertex $-1 $534 $696 #
point $-1 20.679845199055968 -14.116162173434557 1.8505096923176958 #
edge $-1 $649 36.368145574757236 $652 40.830809156227438 $539 $697 forward 7 unknown #
vertex $-1 $553 $698 #
straight-curve $-1 -22.485633885554432 29.827776805059507 5.8630285289148318 0 1 0 I I #
edge $-1 $652 7.8495395673481188 $550 21.422649069064512 $549 $699 forward 7 unknown #
vertex $-1 $651 $700 #
straight-curve $-1 -22.485633885554432 -5.3199407257252034 29.941436301998699 0 -0.64278759981090561 0.7660444514056185 I I #
point $-1 -22.485633885554432 14.884241827035879 5.8630285289148318 #
point $-1 -36.058743387270823 18.62886109427718 1.4003649474446291 #
straight-curve $-1 0 18.62886109427718 5.863028528914831 -1 0 0 I I #
vertex $-1 $556 $701 #
point $-1 -31.680712101066135 15.646749032827429 2.700461954689521 #
vertex $-1 $560 $702 #
point $-1 -25.863665171759116 15.646749032827429 2.700461954689521 #
point $-1 -42.409741508224741 -18.62886109427718 -5.863028528914831 #
straight-curve $-1 -42.409741508224741 0 -5.863028528914831 0 1 0 I I #
point $-1 -42.409741508224741 18.62886109427718 -5.863028528914831 #
straight-curve $-1 -42.409741508224741 18.62886109427718 0 0 0 -1 I I #
coedge $-1 $670 $582 $585 $667 reversed $437 $-1 #
straight-curve $-1 -48.760739629178659 18.62886109427718 -3.6573559972854914 0 0 -1 I I #
edge $-1 $672 -18.62886109427718 $586 18.62886109427718 $665 $703 forward 7 unknown #
point $-1 -48.760739629178659 18.62886109427718 -5.3431533936040765 #
point $-1 -48.760739629178659 18.62886109427718 -1.9715586009669064 #
coedge $-1 $595 $665 $592 $671 reversed $437 $-1 #
edge $-1 $597 -1.6857973963185851 $672 1.6857973963185851 $670 $704 forward 7 unknown #
vertex $-1 $667 $705 #
straight-curve $-1 -45.5852405687017 -18.62886109427718 -5.3431533936040765 -1 0 0 I I #
straight-curve $-1 -48.760739629178659 0 -1.9715586009669064 0 -1 0 I I #
point $-1 -48.760739629178659 -18.62886109427718 -1.9715586009669064 #
edge $-1 $613 -42.409741508224741 $604 -34.929761032888635 $602 $706 forward 7 unknown #
straight-curve $-1 34.929761032888635 -18.62886109427718 -2.1815142644574155 0 0 -1 I I #
point $-1 34.929761032888635 -18.62886109427718 -5.863028528914831 #
straight-curve $-1 0 18.62886109427718 -5.863028528914831 1 0 0 I I #
straight-curve $-1 42.409741508224741 0 -5.863028528914831 0 -1 0 I I #
point $-1 42.409741508224741 -18.62886109427718 -5.863028528914831 #
point $-1 42.409741508224741 18.62886109427718 -5.863028528914831 #
straight-curve $-1 -23.454837559650556 -18.628861094277184 22.025718036354451 0 0 -1 I I #
point $-1 -23.454837559650556 -18.62886109427718 5.863028528914831 #
straight-curve $-1 -8.4199062720597766 -18.62886109427718 1.6416957008508866 1 0 0 I I #
point $-1 -23.454837559650556 -18.62886109427718 1.6416957008508808 #
point $-1 -20.808827553438157 -13.250136761915083 1.3505097057151683 #
point $-1 -16.839812544119557 -13.250136761915083 1.3505097057151683 #
point $-1 -12.870797534800957 -13.250136761915083 1.3505097057151683 #
straight-curve $-1 9.0958051742063688 -18.628861094277184 22.025718036354451 0 0 -1 I I #
point $-1 9.0958051742063688 -18.62886109427718 5.863028528914831 #
straight-curve $-1 7.8554150948686861 -18.62886109427718 1.6416957008508866 1 0 0 I I #
point $-1 9.0958051742063688 -18.62886109427718 1.6416957008508808 #
point $-1 11.741815180418769 -13.250136761915083 1.3505097057151683 #
point $-1 15.710830189737365 -13.250136761915083 1.3505097057151683 #
point $-1 19.679845199055968 -13.250136761915083 1.3505097057151683 #
straight-curve $-1 -22.485633885554432 18.62886109427718 42.231174103672068 0 0 -1 I I #
point $-1 -22.485633885554432 18.62886109427718 5.863028528914831 #
straight-curve $-1 -14.636094318206313 18.62886109427718 1.4003649474446291 -1 0 0 I I #
point $-1 -22.485633885554432 18.62886109427718 1.4003649474446291 #
point $-1 -32.180712101066135 15.26372680712462 2.3790681547840684 #
point $-1 -26.363665171759116 15.26372680712462 2.3790681547840684 #
straight-curve $-1 -48.760739629178659 0 -5.3431533936040765 0 1 0 I I #
straight-curve $-1 -48.760739629178659 -18.62886109427718 -3.6573559972854914 0 0 -1 I I #
point $-1 -48.760739629178659 -18.62886109427718 -5.3431533936040765 #
straight-curve $-1 0 -18.62886109427718 -5.863028528914831 -1 0 0 I I #
End-of-ACIS-data 