500 0 8 0           
7 Unknown 11 ACIS 5.0 NT 24 Fri Mar 26 18:13:29 1999 
-1 9.9999999999999995e-007 1e-010 
body $-1 $8 $-1 $9 #
body $-1 $10 $-1 $11 #
body $-1 $12 $-1 $13 #
body $-1 $14 $-1 $15 #
body $-1 $16 $-1 $17 #
body $-1 $18 $-1 $19 #
body $-1 $20 $-1 $21 #
body $-1 $22 $-1 $23 #
lump $-1 $-1 $24 $0 #
transform $-1 1 0 0 0 1 0 0 0 1 59.46958830530717 35.986841572134225 15.232053686094059 1 rotate no_reflect no_shear #
lump $-1 $-1 $25 $1 #
transform $-1 1 0 0 0 1 0 0 0 1 59.46958830530717 35.986841572134225 15.232053686094059 1 rotate no_reflect no_shear #
lump $-1 $-1 $26 $2 #
transform $-1 1 0 0 0 1 0 0 0 1 59.46958830530717 35.986841572134225 15.232053686094059 1 rotate no_reflect no_shear #
lump $-1 $-1 $27 $3 #
transform $-1 1 0 0 0 1 0 0 0 1 59.46958830530717 35.986841572134225 15.232053686094059 1 rotate no_reflect no_shear #
lump $-1 $-1 $28 $4 #
transform $-1 1 0 0 0 1 0 0 0 1 59.46958830530717 35.986841572134225 15.232053686094059 1 rotate no_reflect no_shear #
lump $-1 $-1 $29 $5 #
transform $-1 1 0 0 0 1 0 0 0 1 59.46958830530717 35.986841572134225 15.232053686094059 1 rotate no_reflect no_shear #
lump $-1 $-1 $30 $6 #
transform $-1 1 0 0 0 1 0 0 0 1 59.46958830530717 35.986841572134225 15.232053686094059 1 rotate no_reflect no_shear #
lump $-1 $-1 $31 $7 #
transform $-1 1 0 0 0 1 0 0 0 1 59.46958830530717 35.986841572134225 15.232053686094059 1 rotate no_reflect no_shear #
shell $-1 $-1 $-1 $32 $-1 $8 #
shell $-1 $-1 $-1 $33 $-1 $10 #
shell $-1 $-1 $-1 $34 $-1 $12 #
shell $-1 $-1 $-1 $35 $-1 $14 #
shell $-1 $-1 $-1 $36 $-1 $16 #
shell $-1 $-1 $-1 $37 $-1 $18 #
shell $-1 $-1 $-1 $38 $-1 $20 #
shell $-1 $-1 $-1 $39 $-1 $22 #
face $-1 $40 $41 $24 $-1 $42 forward single #
face $-1 $43 $44 $25 $-1 $45 reversed single #
face $-1 $46 $47 $26 $-1 $48 forward single #
face $-1 $49 $50 $27 $-1 $51 forward single #
face $-1 $52 $53 $28 $-1 $54 forward single #
face $-1 $55 $56 $29 $-1 $57 reversed single #
face $-1 $58 $59 $30 $-1 $60 forward single #
face $-1 $61 $62 $31 $-1 $63 forward single #
face $-1 $64 $65 $24 $-1 $66 reversed single #
loop $-1 $-1 $67 $32 #
plane-surface $-1 0 0 15.232053686094059 0 0 1 1 0 0 forward_v I I I I #
face $-1 $68 $69 $25 $-1 $70 reversed single #
loop $-1 $-1 $71 $33 #
plane-surface $-1 -137.50070997031736 -19.399748818328774 94.453234048859628 0 -1 0 0.6560590369687036 0 -0.75470957328743171 forward_v I I I I #
face $-1 $72 $73 $26 $-1 $74 forward single #
loop $-1 $75 $76 $34 #
cone-surface $-1 -52.687300431080217 -32.669423021373134 9.1345074282116716 0.6560590369687036 0 -0.75470957328743171 0.75470957328743171 0 0.6560590369687036 1 I I 0 1 1 forward I I I I #
face $-1 $77 $78 $27 $-1 $79 forward single #
loop $-1 $80 $81 $35 #
cone-surface $-1 -52.687300431080217 -27.693295195231499 9.1345074282116716 0.6560590369687036 0 -0.75470957328743171 0.75470957328743171 0 0.6560590369687036 1 I I 0 1 1 forward I I I I #
face $-1 $82 $83 $28 $-1 $84 forward single #
loop $-1 $85 $86 $36 #
cone-surface $-1 -52.687300431080217 -22.717167369089864 9.1345074282116716 0.6560590369687036 0 -0.75470957328743171 0.75470957328743171 0 0.6560590369687036 1 I I 0 1 1 forward I I I I #
face $-1 $87 $88 $29 $-1 $89 reversed single #
loop $-1 $-1 $90 $37 #
plane-surface $-1 44.809523753386003 28.807720152994321 174.52931147881014 0 -1 0 -0.64278761758704617 0 -0.76604443648966558 forward_v I I I I #
face $-1 $91 $92 $30 $-1 $93 forward single #
loop $-1 $94 $95 $38 #
cone-surface $-1 54.066697428452528 23.577940234505114 10.530576548377535 -0.64278761758704617 0 -0.76604443648966558 0.76604443648966558 0 -0.64278761758704617 1 I I 0 1 1 forward I I I I #
face $-1 $96 $97 $31 $-1 $98 forward single #
loop $-1 $99 $100 $39 #
cone-surface $-1 54.066697428452528 26.715808185598632 10.530576548377535 -0.64278761758704617 0 -0.76604443648966558 0.76604443648966558 0 -0.64278761758704617 1 I I 0 1 1 forward I I I I #
face $-1 $101 $102 $24 $-1 $103 reversed single #
loop $-1 $-1 $104 $40 #
plane-surface $-1 0 0 -15.232053686094059 0 0 1 1 0 0 forward_v I I I I #
coedge $-1 $105 $106 $107 $108 forward $41 $-1 #
face $-1 $109 $110 $25 $-1 $111 forward single #
loop $-1 $-1 $112 $43 #
plane-surface $-1 -59.46958830530717 -27.693295195231499 4.6886988219044099 -0.6560590369687036 0 0.75470957328743171 0.75470957328743171 0 0.6560590369687036 forward_v I I I I #
coedge $-1 $113 $114 $115 $116 reversed $44 $-1 #
face $-1 $-1 $117 $26 $-1 $118 forward single #
loop $-1 $119 $120 $46 #
cone-surface $-1 -51.64135407983521 -32.669423021373134 7.9312838157804002 0.6560590369687036 0 -0.75470957328743171 0.37735478664371586 0 0.3280295184843518 1 I I -0.70710678118654746 0.70710678118654746 0.5 forward I I I I #
loop $-1 $-1 $121 $34 #
coedge $-1 $76 $76 $122 $123 reversed $47 $-1 #
face $-1 $-1 $124 $27 $-1 $125 forward single #
loop $-1 $126 $127 $49 #
cone-surface $-1 -51.64135407983521 -27.693295195231499 7.9312838157804002 0.6560590369687036 0 -0.75470957328743171 0.37735478664371586 0 0.3280295184843518 1 I I -0.70710678118654746 0.70710678118654746 0.5 forward I I I I #
loop $-1 $-1 $128 $35 #
coedge $-1 $81 $81 $129 $130 reversed $50 $-1 #
face $-1 $-1 $131 $28 $-1 $132 forward single #
loop $-1 $133 $134 $52 #
cone-surface $-1 -51.64135407983521 -22.717167369089864 7.9312838157804002 0.6560590369687036 0 -0.75470957328743171 0.37735478664371586 0 0.3280295184843518 1 I I -0.70710678118654746 0.70710678118654746 0.5 forward I I I I #
loop $-1 $-1 $135 $36 #
coedge $-1 $86 $86 $136 $137 reversed $53 $-1 #
face $-1 $138 $139 $29 $-1 $140 reversed single #
loop $-1 $-1 $141 $55 #
plane-surface $-1 -31.643106217915715 25.146874210051877 83.416616955587273 0.64278761758704617 0 0.76604443648966558 0.76604443648966558 0 -0.64278761758704617 forward_v I I I I #
coedge $-1 $142 $143 $144 $145 reversed $56 $-1 #
face $-1 $-1 $146 $30 $-1 $147 forward single #
loop $-1 $148 $149 $58 #
cone-surface $-1 53.269161737458234 23.577940234505114 9.5801105433204476 -0.64278761758704617 0 -0.76604443648966558 0.38302221824483279 0 -0.32139380879352308 1 I I -0.70710678118654746 0.70710678118654746 0.5 forward I I I I #
loop $-1 $-1 $150 $38 #
coedge $-1 $95 $95 $151 $152 reversed $59 $-1 #
face $-1 $-1 $153 $31 $-1 $154 forward single #
loop $-1 $155 $156 $61 #
cone-surface $-1 53.269161737458234 26.715808185598632 9.5801105433204476 -0.64278761758704617 0 -0.76604443648966558 0.38302221824483279 0 -0.32139380879352308 1 I I -0.70710678118654746 0.70710678118654746 0.5 forward I I I I #
loop $-1 $-1 $157 $39 #
coedge $-1 $100 $100 $158 $159 reversed $62 $-1 #
face $-1 $160 $161 $24 $-1 $162 reversed single #
loop $-1 $-1 $163 $64 #
plane-surface $-1 0 -35.986841572134225 0 0 1 0 0 0 1 forward_v I I I I #
coedge $-1 $164 $165 $166 $167 forward $65 $-1 #
coedge $-1 $168 $67 $169 $170 forward $41 $-1 #
coedge $-1 $67 $168 $171 $172 forward $41 $-1 #
coedge $-1 $173 $174 $67 $108 reversed $175 $-1 #
edge $-1 $176 -35.986841572134225 $177 35.986841572134225 $107 $178 forward 7 unknown #
face $-1 $179 $180 $25 $-1 $181 reversed single #
loop $-1 $-1 $182 $68 #
plane-surface $-1 0 0 15.232053686094059 0 0 1 1 0 0 forward_v I I I I #
coedge $-1 $183 $184 $185 $186 reversed $69 $-1 #
coedge $-1 $114 $71 $187 $188 reversed $44 $-1 #
coedge $-1 $71 $113 $183 $189 reversed $44 $-1 #
coedge $-1 $185 $190 $71 $116 forward $180 $-1 #
edge $-1 $191 31.994563338335755 $192 42.537918202525404 $115 $193 forward 7 unknown #
loop $-1 $-1 $122 $72 #
plane-surface $-1 -59.46958830530717 -27.693295195231499 4.6886988219044099 -0.6560590369687036 0 0.75470957328743171 0.75470957328743171 0 0.6560590369687036 forward_v I I I I #
loop $-1 $-1 $194 $46 #
coedge $-1 $120 $120 $121 $195 reversed $73 $-1 #
coedge $-1 $121 $121 $120 $195 forward $75 $-1 #
coedge $-1 $122 $122 $76 $123 forward $117 $-1 #
edge $-1 $196 0 $196 6.2831853071796004 $122 $197 forward 7 unknown #
loop $-1 $-1 $129 $77 #
plane-surface $-1 -59.46958830530717 -27.693295195231499 4.6886988219044099 -0.6560590369687036 0 0.75470957328743171 0.75470957328743171 0 0.6560590369687036 forward_v I I I I #
loop $-1 $-1 $198 $49 #
coedge $-1 $127 $127 $128 $199 reversed $78 $-1 #
coedge $-1 $128 $128 $127 $199 forward $80 $-1 #
coedge $-1 $129 $129 $81 $130 forward $124 $-1 #
edge $-1 $200 0 $200 6.2831853071796004 $129 $201 forward 7 unknown #
loop $-1 $-1 $136 $82 #
plane-surface $-1 -59.46958830530717 -27.693295195231499 4.6886988219044099 -0.6560590369687036 0 0.75470957328743171 0.75470957328743171 0 0.6560590369687036 forward_v I I I I #
loop $-1 $-1 $202 $52 #
coedge $-1 $134 $134 $135 $203 reversed $83 $-1 #
coedge $-1 $135 $135 $134 $203 forward $85 $-1 #
coedge $-1 $136 $136 $86 $137 forward $131 $-1 #
edge $-1 $204 0 $204 6.2831853071796004 $136 $205 forward 7 unknown #
face $-1 $206 $207 $29 $-1 $208 reversed single #
loop $-1 $-1 $209 $87 #
plane-surface $-1 44.809523753386003 21.486028267109432 174.52931147881014 0 1 0 0.64278761758704617 0 0.76604443648966558 forward_v I I I I #
coedge $-1 $210 $211 $212 $213 reversed $88 $-1 #
coedge $-1 $143 $90 $214 $215 reversed $56 $-1 #
coedge $-1 $90 $142 $210 $216 reversed $56 $-1 #
coedge $-1 $212 $217 $90 $145 forward $218 $-1 #
edge $-1 $219 -37.064826428614168 $220 -27.211328439306428 $144 $221 forward 7 unknown #
loop $-1 $-1 $151 $91 #
plane-surface $-1 -31.643106217915715 25.146874210051877 83.416616955587273 0.64278761758704617 0 0.76604443648966558 0.76604443648966558 0 -0.64278761758704617 forward_v I I I I #
loop $-1 $-1 $222 $58 #
coedge $-1 $149 $149 $150 $223 reversed $92 $-1 #
coedge $-1 $150 $150 $149 $223 forward $94 $-1 #
coedge $-1 $151 $151 $95 $152 forward $146 $-1 #
edge $-1 $224 0 $224 6.2831853071796004 $151 $225 forward 7 unknown #
loop $-1 $-1 $158 $96 #
plane-surface $-1 -31.643106217915715 25.146874210051877 83.416616955587273 0.64278761758704617 0 0.76604443648966558 0.76604443648966558 0 -0.64278761758704617 forward_v I I I I #
loop $-1 $-1 $226 $61 #
coedge $-1 $156 $156 $157 $227 reversed $97 $-1 #
coedge $-1 $157 $157 $156 $227 forward $99 $-1 #
coedge $-1 $158 $158 $100 $159 forward $153 $-1 #
edge $-1 $228 0 $228 6.2831853071796004 $158 $229 forward 7 unknown #
face $-1 $230 $231 $24 $-1 $232 reversed single #
loop $-1 $-1 $233 $101 #
plane-surface $-1 -59.46958830530717 0 0 1 0 0 0 0 -1 forward_v I I I I #
coedge $-1 $234 $171 $235 $236 forward $102 $-1 #
coedge $-1 $237 $104 $234 $238 forward $65 $-1 #
coedge $-1 $104 $237 $239 $240 forward $65 $-1 #
coedge $-1 $174 $173 $104 $167 reversed $175 $-1 #
edge $-1 $241 -35.986841572134225 $242 35.986841572134225 $166 $243 forward 7 unknown #
coedge $-1 $106 $105 $244 $245 forward $41 $-1 #
coedge $-1 $246 $247 $105 $170 reversed $231 $-1 #
edge $-1 $177 -59.46958830530717 $248 59.46958830530717 $169 $249 forward 7 unknown #
coedge $-1 $163 $250 $106 $172 reversed $102 $-1 #
edge $-1 $251 -59.46958830530717 $176 59.46958830530717 $171 $252 forward 7 unknown #
coedge $-1 $166 $107 $250 $253 forward $175 $-1 #
coedge $-1 $107 $166 $246 $254 reversed $175 $-1 #
loop $-1 $-1 $173 $230 #
vertex $-1 $108 $255 #
vertex $-1 $108 $256 #
straight-curve $-1 59.46958830530717 0 15.232053686094059 0 1 0 I I #
face $-1 $-1 $257 $25 $-1 $258 reversed single #
loop $-1 $-1 $115 $109 #
plane-surface $-1 -59.46958830530717 0 0 1 0 0 0 0 -1 forward_v I I I I #
coedge $-1 $187 $259 $260 $261 forward $110 $-1 #
coedge $-1 $260 $112 $114 $189 forward $69 $-1 #
coedge $-1 $112 $260 $262 $263 reversed $69 $-1 #
coedge $-1 $264 $115 $112 $186 forward $180 $-1 #
edge $-1 $192 5.5531012207130246 $265 22.140193974518475 $185 $266 forward 7 unknown #
coedge $-1 $267 $182 $113 $188 forward $110 $-1 #
edge $-1 $268 -21.409508762784093 $191 -9.28076667985151 $187 $269 forward 7 unknown #
edge $-1 $192 0 $268 16.070741000542924 $114 $270 forward 7 unknown #
coedge $-1 $115 $264 $267 $271 reversed $180 $-1 #
vertex $-1 $271 $272 #
vertex $-1 $116 $273 #
straight-curve $-1 -59.46958830530717 -19.399748818328774 47.226617024429814 0 0 -1 I I #
coedge $-1 $194 $194 $-1 $274 reversed $119 $-1 #
edge $-1 $275 0 $275 6.2831853071796004 $120 $276 forward 7 unknown #
vertex $-1 $123 $277 #
ellipse-curve $-1 -53.405217263840875 -32.669423021373134 9.960376253999236 -0.6560590369687036 0 0.75470957328743171 0.75470957328743171 0 0.6560590369687036 1 I I #
coedge $-1 $198 $198 $-1 $278 reversed $126 $-1 #
edge $-1 $279 0 $279 6.2831853071796004 $127 $280 forward 7 unknown #
vertex $-1 $130 $281 #
ellipse-curve $-1 -53.405217263840875 -27.693295195231499 9.960376253999236 -0.6560590369687036 0 0.75470957328743171 0.75470957328743171 0 0.6560590369687036 1 I I #
coedge $-1 $202 $202 $-1 $282 reversed $133 $-1 #
edge $-1 $283 0 $283 6.2831853071796004 $134 $284 forward 7 unknown #
vertex $-1 $137 $285 #
ellipse-curve $-1 -53.405217263840875 -22.717167369089864 9.960376253999236 -0.6560590369687036 0 0.75470957328743171 0.75470957328743171 0 0.6560590369687036 1 I I #
face $-1 $-1 $218 $29 $-1 $286 forward single #
loop $-1 $-1 $287 $138 #
plane-surface $-1 59.46958830530717 0 0 -1 0 0 0 0 1 forward_v I I I I #
coedge $-1 $288 $289 $290 $291 reversed $139 $-1 #
coedge $-1 $292 $141 $143 $216 forward $88 $-1 #
coedge $-1 $141 $292 $288 $293 forward $88 $-1 #
coedge $-1 $290 $144 $141 $213 forward $218 $-1 #
edge $-1 $220 -16.234283047968383 $294 -8.9125911620834941 $212 $295 forward 7 unknown #
coedge $-1 $296 $297 $142 $215 forward $207 $-1 #
edge $-1 $298 -80.300668755119517 $219 -72.03260205331101 $214 $299 forward 7 unknown #
edge $-1 $220 106.07634839863678 $298 118.93917661061434 $143 $300 forward 7 unknown #
coedge $-1 $144 $290 $296 $301 forward $218 $-1 #
loop $-1 $-1 $290 $206 #
vertex $-1 $215 $302 #
vertex $-1 $145 $303 #
straight-curve $-1 22.404761876693001 28.807720152994321 15.232053686094062 -1 0 0 I I #
coedge $-1 $222 $222 $-1 $304 reversed $148 $-1 #
edge $-1 $305 0 $305 6.2831853071796004 $149 $306 forward 7 unknown #
vertex $-1 $152 $307 #
ellipse-curve $-1 54.542839310653306 23.577940234505114 11.098020335189796 0.64278761758704617 0 0.76604443648966558 0.76604443648966558 0 -0.64278761758704617 1 I I #
coedge $-1 $226 $226 $-1 $308 reversed $155 $-1 #
edge $-1 $309 0 $309 6.2831853071796004 $156 $310 forward 7 unknown #
vertex $-1 $159 $311 #
ellipse-curve $-1 54.542839310653306 26.715808185598632 11.098020335189796 0.64278761758704617 0 0.76604443648966558 0.76604443648966558 0 -0.64278761758704617 1 I I #
face $-1 $-1 $175 $24 $-1 $312 reversed single #
loop $-1 $-1 $246 $160 #
plane-surface $-1 0 35.986841572134225 0 0 -1 0 0 0 -1 forward_v I I I I #
coedge $-1 $313 $244 $247 $314 forward $161 $-1 #
coedge $-1 $250 $163 $164 $238 reversed $102 $-1 #
coedge $-1 $244 $313 $163 $236 reversed $161 $-1 #
edge $-1 $251 -15.232053686094059 $315 15.232053686094059 $235 $316 forward 7 unknown #
coedge $-1 $165 $164 $313 $317 forward $65 $-1 #
edge $-1 $242 -59.46958830530717 $315 59.46958830530717 $234 $318 forward 7 unknown #
coedge $-1 $247 $246 $165 $240 reversed $231 $-1 #
edge $-1 $319 -59.46958830530717 $241 59.46958830530717 $239 $320 forward 7 unknown #
vertex $-1 $167 $321 #
vertex $-1 $253 $322 #
straight-curve $-1 59.46958830530717 0 -15.232053686094059 0 -1 0 I I #
coedge $-1 $233 $235 $168 $245 reversed $161 $-1 #
edge $-1 $248 -35.986841572134225 $251 35.986841572134225 $244 $323 forward 7 unknown #
coedge $-1 $239 $169 $174 $254 forward $231 $-1 #
coedge $-1 $169 $239 $233 $314 reversed $231 $-1 #
vertex $-1 $170 $324 #
straight-curve $-1 0 35.986841572134225 15.232053686094059 -1 0 0 I I #
coedge $-1 $171 $234 $173 $253 reversed $102 $-1 #
vertex $-1 $245 $325 #
straight-curve $-1 0 -35.986841572134225 15.232053686094059 1 0 0 I I #
edge $-1 $176 -15.232053686094059 $242 15.232053686094059 $173 $326 forward 7 unknown #
edge $-1 $177 -15.232053686094059 $241 15.232053686094059 $174 $327 forward 7 unknown #
point $-1 59.46958830530717 -35.986841572134225 15.232053686094059 #
point $-1 59.46958830530717 35.986841572134225 15.232053686094059 #
loop $-1 $-1 $262 $179 #
plane-surface $-1 0 -35.986841572134225 0 0 1 0 0 0 1 forward_v I I I I #
coedge $-1 $182 $267 $328 $329 forward $110 $-1 #
coedge $-1 $184 $183 $182 $261 reversed $69 $-1 #
edge $-1 $330 -22.140193974518475 $268 -5.5531012207130246 $182 $331 forward 7 unknown #
coedge $-1 $328 $332 $184 $263 forward $257 $-1 #
edge $-1 $265 -20.903102189871355 $330 -4.8323611893284308 $262 $333 forward 7 unknown #
coedge $-1 $190 $185 $332 $334 reversed $180 $-1 #
vertex $-1 $186 $335 #
straight-curve $-1 -59.46958830530717 -13.84664759761575 4.688698821904409 0 -1 0 I I #
coedge $-1 $259 $187 $190 $271 forward $110 $-1 #
vertex $-1 $188 $336 #
straight-curve $-1 -68.75035498515868 -19.399748818328774 15.232053686094055 -1 0 0 I I #
straight-curve $-1 -59.46958830530717 -19.399748818328774 4.6886988219044099 0.75470957328743171 0 0.6560590369687036 I I #
edge $-1 $191 19.399748818328774 $337 35.986841572134225 $190 $338 forward 7 unknown #
point $-1 -59.46958830530717 -19.399748818328774 15.232053686094059 #
point $-1 -59.46958830530717 -19.399748818328774 4.6886988219044099 #
edge $-1 $339 1 $339 0 $194 $-1 forward 7 unknown #
vertex $-1 $195 $340 #
ellipse-curve $-1 -51.96938359831956 -32.669423021373134 8.3086386024241161 -0.6560590369687036 0 0.75470957328743171 0.75470957328743171 0 0.6560590369687036 1 I I #
point $-1 -52.650507690553439 -32.669423021373134 10.61643529096793 #
edge $-1 $341 1 $341 0 $198 $-1 forward 7 unknown #
vertex $-1 $199 $342 #
ellipse-curve $-1 -51.96938359831956 -27.693295195231499 8.3086386024241161 -0.6560590369687036 0 0.75470957328743171 0.75470957328743171 0 0.6560590369687036 1 I I #
point $-1 -52.650507690553439 -27.693295195231499 10.61643529096793 #
edge $-1 $343 1 $343 0 $202 $-1 forward 7 unknown #
vertex $-1 $203 $344 #
ellipse-curve $-1 -51.96938359831956 -22.717167369089864 8.3086386024241161 -0.6560590369687036 0 0.75470957328743171 0.75470957328743171 0 0.6560590369687036 1 I I #
point $-1 -52.650507690553439 -22.717167369089864 10.61643529096793 #
plane-surface $-1 0 0 15.232053686094059 0 0 1 1 0 0 forward_v I I I I #
coedge $-1 $297 $296 $289 $345 forward $207 $-1 #
coedge $-1 $289 $209 $211 $293 reversed $139 $-1 #
coedge $-1 $209 $288 $287 $345 reversed $139 $-1 #
coedge $-1 $217 $212 $209 $291 forward $218 $-1 #
edge $-1 $294 27.211328439306428 $346 37.064826428614168 $290 $347 forward 7 unknown #
coedge $-1 $211 $210 $297 $348 reversed $88 $-1 #
edge $-1 $349 -118.93917661061434 $294 -106.07634839863678 $288 $350 forward 7 unknown #
vertex $-1 $213 $351 #
straight-curve $-1 49.616090315999436 12.573437105025938 15.232053686094062 0 -1 0 I I #
coedge $-1 $287 $214 $217 $301 reversed $207 $-1 #
coedge $-1 $214 $287 $292 $348 forward $207 $-1 #
vertex $-1 $215 $352 #
straight-curve $-1 59.46958830530717 28.807720152994321 87.264655739405072 0 0 1 I I #
straight-curve $-1 -31.643106217915715 28.807720152994321 83.416616955587273 0.76604443648966558 0 -0.64278761758704617 I I #
edge $-1 $346 21.486028267109432 $219 28.807720152994321 $296 $353 forward 7 unknown #
point $-1 59.46958830530717 28.807720152994321 15.232053686094059 #
point $-1 49.616090315999429 28.807720152994321 15.232053686094062 #
edge $-1 $354 1 $354 0 $222 $-1 forward 7 unknown #
vertex $-1 $223 $355 #
ellipse-curve $-1 53.590555546251757 23.577940234505114 9.96313276156528 0.64278761758704617 0 0.76604443648966558 0.76604443648966558 0 -0.64278761758704617 1 I I #
point $-1 55.308883747142971 23.577940234505114 10.455232717602744 #
edge $-1 $356 1 $356 0 $226 $-1 forward 7 unknown #
vertex $-1 $227 $357 #
ellipse-curve $-1 53.590555546251757 26.715808185598632 9.96313276156528 0.64278761758704617 0 0.76604443648966558 0.76604443648966558 0 -0.64278761758704617 1 I I #
point $-1 55.308883747142971 26.715808185598632 10.455232717602744 #
plane-surface $-1 59.46958830530717 0 0 -1 0 0 0 0 1 forward_v I I I I #
coedge $-1 $235 $233 $237 $317 reversed $161 $-1 #
edge $-1 $248 -15.232053686094059 $319 15.232053686094059 $247 $358 forward 7 unknown #
vertex $-1 $317 $359 #
straight-curve $-1 -59.46958830530717 -35.986841572134225 0 0 0 -1 I I #
edge $-1 $315 -35.986841572134225 $319 35.986841572134225 $313 $360 forward 7 unknown #
straight-curve $-1 0 -35.986841572134225 -15.232053686094059 -1 0 0 I I #
vertex $-1 $240 $361 #
straight-curve $-1 0 35.986841572134225 -15.232053686094059 1 0 0 I I #
point $-1 59.46958830530717 35.986841572134225 -15.232053686094059 #
point $-1 59.46958830530717 -35.986841572134225 -15.232053686094059 #
straight-curve $-1 -59.46958830530717 0 15.232053686094059 0 -1 0 I I #
point $-1 -59.46958830530717 35.986841572134225 15.232053686094059 #
point $-1 -59.46958830530717 -35.986841572134225 15.232053686094059 #
straight-curve $-1 59.46958830530717 -35.986841572134225 0 0 0 -1 I I #
straight-curve $-1 59.46958830530717 35.986841572134225 0 0 0 -1 I I #
coedge $-1 $332 $262 $259 $329 reversed $257 $-1 #
edge $-1 $337 -59.46958830530717 $330 -47.340846222374587 $328 $362 forward 7 unknown #
vertex $-1 $263 $363 #
straight-curve $-1 -47.340846222374594 -13.84664759761575 15.232053686094059 0 1 0 I I #
coedge $-1 $262 $328 $264 $334 forward $257 $-1 #
straight-curve $-1 -43.693816971205784 -35.986841572134225 18.402367914249812 0.75470957328743171 0 0.6560590369687036 I I #
edge $-1 $337 -15.232053686094059 $265 -4.6886988219044099 $264 $364 forward 7 unknown #
point $-1 -59.46958830530717 -35.986841572134225 4.6886988219044099 #
point $-1 -47.340846222374587 -19.399748818328774 15.232053686094059 #
vertex $-1 $271 $365 #
straight-curve $-1 -59.46958830530717 0 15.232053686094059 0 -1 0 I I #
vertex $-1 $274 $366 #
point $-1 -51.214674025032132 -32.669423021373134 8.9646976393928206 #
vertex $-1 $278 $367 #
point $-1 -51.214674025032132 -27.693295195231499 8.9646976393928206 #
vertex $-1 $282 $368 #
point $-1 -51.214674025032132 -22.717167369089864 8.9646976393928206 #
edge $-1 $346 72.03260205331101 $349 80.300668755119517 $287 $369 forward 7 unknown #
vertex $-1 $301 $370 #
straight-curve $-1 22.404761876693001 21.486028267109432 15.232053686094062 1 0 0 I I #
edge $-1 $349 8.9125911620834941 $298 16.234283047968383 $297 $371 forward 7 unknown #
vertex $-1 $348 $372 #
straight-curve $-1 -31.643106217915715 21.486028267109432 83.416616955587273 -0.76604443648966558 0 0.64278761758704617 I I #
point $-1 49.616090315999429 21.486028267109432 15.232053686094062 #
point $-1 59.46958830530717 28.807720152994321 6.9639869842855546 #
straight-curve $-1 59.46958830530717 0 15.232053686094059 0 1 0 I I #
vertex $-1 $304 $373 #
point $-1 54.356599982741422 23.577940234505114 9.3203451439782334 #
vertex $-1 $308 $374 #
point $-1 54.356599982741422 26.715808185598632 9.3203451439782334 #
straight-curve $-1 -59.46958830530717 35.986841572134225 0 0 0 -1 I I #
point $-1 -59.46958830530717 -35.986841572134225 -15.232053686094059 #
straight-curve $-1 -59.46958830530717 0 -15.232053686094059 0 1 0 I I #
point $-1 -59.46958830530717 35.986841572134225 -15.232053686094059 #
straight-curve $-1 0 -35.986841572134225 15.232053686094059 1 0 0 I I #
point $-1 -47.340846222374587 -35.986841572134225 15.232053686094059 #
straight-curve $-1 -59.46958830530717 -35.986841572134225 0 0 0 -1 I I #
point $-1 -59.46958830530717 -35.986841572134225 15.232053686094059 #
point $-1 -51.313324561350861 -32.669423021373134 7.5539290291366843 #
point $-1 -51.313324561350861 -27.693295195231499 7.5539290291366843 #
point $-1 -51.313324561350861 -22.717167369089864 7.5539290291366843 #
straight-curve $-1 59.46958830530717 21.486028267109432 87.264655739405072 0 0 -1 I I #
point $-1 59.46958830530717 21.486028267109432 15.232053686094059 #
straight-curve $-1 59.469588305307163 12.573437105025938 6.9639869842855617 0 1 0 I I #
point $-1 59.46958830530717 21.486028267109432 6.9639869842855546 #
point $-1 52.94776792866471 23.577940234505114 9.1970883250756152 #
point $-1 52.94776792866471 26.715808185598632 9.1970883250756152 #
End-of-ACIS-data 