500 0 14 0           
7 Unknown 11 ACIS 5.0 NT 24 Thu Mar 25 23:27:14 1999 
-1 9.9999999999999995e-007 1e-010 
body $-1 $14 $-1 $15 #
body $-1 $16 $-1 $17 #
body $-1 $18 $-1 $19 #
body $-1 $20 $-1 $21 #
body $-1 $22 $-1 $23 #
body $-1 $24 $-1 $25 #
body $-1 $26 $-1 $27 #
body $-1 $28 $-1 $29 #
body $-1 $30 $-1 $31 #
body $-1 $32 $-1 $33 #
body $-1 $34 $-1 $35 #
body $-1 $36 $-1 $37 #
body $-1 $38 $-1 $39 #
body $-1 $40 $-1 $41 #
lump $-1 $-1 $42 $0 #
transform $-1 1 0 0 0 1 0 0 0 1 41.374553666798917 28.334883319752628 12.824157021401517 1 rotate no_reflect no_shear #
lump $-1 $-1 $43 $1 #
transform $-1 1 0 0 0 1 0 0 0 1 41.374553666798917 28.334883319752628 12.824157021401517 1 rotate no_reflect no_shear #
lump $-1 $-1 $44 $2 #
transform $-1 1 0 0 0 1 0 0 0 1 41.374553666798917 28.334883319752628 12.824157021401517 1 rotate no_reflect no_shear #
lump $-1 $-1 $45 $3 #
transform $-1 1 0 0 0 1 0 0 0 1 41.374553666798917 28.334883319752628 12.824157021401517 1 rotate no_reflect no_shear #
lump $-1 $-1 $46 $4 #
transform $-1 1 0 0 0 1 0 0 0 1 41.374553666798917 28.334883319752628 12.824157021401517 1 rotate no_reflect no_shear #
lump $-1 $-1 $47 $5 #
transform $-1 1 0 0 0 1 0 0 0 1 41.374553666798917 28.334883319752628 12.824157021401517 1 rotate no_reflect no_shear #
lump $-1 $-1 $48 $6 #
transform $-1 1 0 0 0 1 0 0 0 1 41.374553666798917 28.334883319752628 12.824157021401517 1 rotate no_reflect no_shear #
lump $-1 $-1 $49 $7 #
transform $-1 1 0 0 0 1 0 0 0 1 41.374553666798917 28.334883319752628 12.824157021401517 1 rotate no_reflect no_shear #
lump $-1 $-1 $50 $8 #
transform $-1 1 0 0 0 1 0 0 0 1 41.374553666798917 28.334883319752628 12.824157021401517 1 rotate no_reflect no_shear #
lump $-1 $-1 $51 $9 #
transform $-1 1 0 0 0 1 0 0 0 1 41.374553666798917 28.334883319752628 12.824157021401517 1 rotate no_reflect no_shear #
lump $-1 $-1 $52 $10 #
transform $-1 1 0 0 0 1 0 0 0 1 41.374553666798917 28.334883319752628 12.824157021401517 1 rotate no_reflect no_shear #
lump $-1 $-1 $53 $11 #
transform $-1 1 0 0 0 1 0 0 0 1 41.374553666798917 28.334883319752628 12.824157021401517 1 rotate no_reflect no_shear #
lump $-1 $-1 $54 $12 #
transform $-1 1 0 0 0 1 0 0 0 1 41.374553666798917 28.334883319752628 12.824157021401517 1 rotate no_reflect no_shear #
lump $-1 $-1 $55 $13 #
transform $-1 1 0 0 0 1 0 0 0 1 41.374553666798917 28.334883319752628 12.824157021401517 1 rotate no_reflect no_shear #
shell $-1 $-1 $-1 $56 $-1 $14 #
shell $-1 $-1 $-1 $57 $-1 $16 #
shell $-1 $-1 $-1 $58 $-1 $18 #
shell $-1 $-1 $-1 $59 $-1 $20 #
shell $-1 $-1 $-1 $60 $-1 $22 #
shell $-1 $-1 $-1 $61 $-1 $24 #
shell $-1 $-1 $-1 $62 $-1 $26 #
shell $-1 $-1 $-1 $63 $-1 $28 #
shell $-1 $-1 $-1 $64 $-1 $30 #
shell $-1 $-1 $-1 $65 $-1 $32 #
shell $-1 $-1 $-1 $66 $-1 $34 #
shell $-1 $-1 $-1 $67 $-1 $36 #
shell $-1 $-1 $-1 $68 $-1 $38 #
shell $-1 $-1 $-1 $69 $-1 $40 #
face $-1 $70 $71 $42 $-1 $72 forward single #
face $-1 $73 $74 $43 $-1 $75 forward single #
face $-1 $76 $77 $44 $-1 $78 reversed single #
face $-1 $79 $80 $45 $-1 $81 forward single #
face $-1 $82 $83 $46 $-1 $84 forward single #
face $-1 $85 $86 $47 $-1 $87 reversed single #
face $-1 $88 $89 $48 $-1 $90 forward single #
face $-1 $91 $92 $49 $-1 $93 forward single #
face $-1 $94 $95 $50 $-1 $96 reversed single #
face $-1 $97 $98 $51 $-1 $99 forward single #
face $-1 $100 $101 $52 $-1 $102 forward single #
face $-1 $103 $104 $53 $-1 $105 reversed single #
face $-1 $106 $107 $54 $-1 $108 forward single #
face $-1 $109 $110 $55 $-1 $111 forward single #
face $-1 $112 $113 $42 $-1 $114 reversed single #
loop $-1 $-1 $115 $56 #
plane-surface $-1 0 0 12.824157021401517 0 0 1 1 0 0 forward_v I I I I #
face $-1 $116 $117 $43 $-1 $118 reversed single #
loop $-1 $-1 $119 $57 #
plane-surface $-1 0 -28.334883319752628 0 0 1 0 0 0 1 forward_v I I I I #
face $-1 $120 $121 $44 $-1 $122 reversed single #
loop $-1 $-1 $123 $58 #
plane-surface $-1 27.112805877480795 -2.7259293055002232 119.88626546166999 0 -1 0 -0.61566148304635926 0 -0.78801074757464917 forward_v I I I I #
face $-1 $124 $125 $45 $-1 $126 forward single #
loop $-1 $127 $128 $59 #
cone-surface $-1 35.190680691655523 -7.0942060708076795 7.8101738571820629 -0.61566148304635926 0 -0.78801074757464917 0.39400537378732459 0 -0.30783074152317963 1 I I 0 1 0.5 forward I I I I #
face $-1 $129 $130 $46 $-1 $131 forward single #
loop $-1 $132 $133 $60 #
cone-surface $-1 35.190680691655523 -4.4732400116232078 7.8101738571820629 -0.61566148304635926 0 -0.78801074757464917 0.39400537378732459 0 -0.30783074152317963 1 I I 0 1 0.5 forward I I I I #
face $-1 $134 $135 $47 $-1 $136 reversed single #
loop $-1 $-1 $137 $61 #
plane-surface $-1 27.112805877480795 7.6276749029173949 119.88626546166999 0 -1 0 -0.61566148304635926 0 -0.78801074757464917 forward_v I I I I #
face $-1 $138 $139 $48 $-1 $140 forward single #
loop $-1 $141 $142 $62 #
cone-surface $-1 35.190680691655523 3.2593981376099386 7.8101738571820629 -0.61566148304635926 0 -0.78801074757464917 0.39400537378732459 0 -0.30783074152317963 1 I I 0 1 0.5 forward I I I I #
face $-1 $143 $144 $49 $-1 $145 forward single #
loop $-1 $146 $147 $63 #
cone-surface $-1 35.190680691655523 5.8803641967944102 7.8101738571820629 -0.61566148304635926 0 -0.78801074757464917 0.39400537378732459 0 -0.30783074152317963 1 I I 0 1 0.5 forward I I I I #
face $-1 $148 $149 $50 $-1 $150 reversed single #
loop $-1 $-1 $151 $64 #
plane-surface $-1 27.112805877480795 17.981279111335017 119.88626546166999 0 -1 0 -0.61566148304635926 0 -0.78801074757464917 forward_v I I I I #
face $-1 $152 $153 $51 $-1 $154 forward single #
loop $-1 $155 $156 $65 #
cone-surface $-1 35.190680691655523 13.613002346027557 7.8101738571820629 -0.61566148304635926 0 -0.78801074757464917 0.39400537378732459 0 -0.30783074152317963 1 I I 0 1 0.5 forward I I I I #
face $-1 $157 $158 $52 $-1 $159 forward single #
loop $-1 $160 $161 $66 #
cone-surface $-1 35.190680691655523 16.233968405212032 7.8101738571820629 -0.61566148304635926 0 -0.78801074757464917 0.39400537378732459 0 -0.30783074152317963 1 I I 0 1 0.5 forward I I I I #
face $-1 $162 $163 $53 $-1 $164 reversed single #
loop $-1 $-1 $165 $67 #
plane-surface $-1 27.112805877480795 22.219295848322201 119.88626546166999 0 1 0 0.61566148304635926 0 0.78801074757464917 forward_v I I I I #
face $-1 $166 $167 $54 $-1 $168 forward single #
loop $-1 $169 $170 $68 #
cone-surface $-1 35.190680691655523 23.966606554445171 7.8101738571820629 -0.61566148304635926 0 -0.78801074757464917 0.39400537378732459 0 -0.30783074152317963 1 I I 0 1 0.5 forward I I I I #
face $-1 $171 $172 $55 $-1 $173 forward single #
loop $-1 $174 $175 $69 #
cone-surface $-1 35.190680691655523 26.587572613629654 7.8101738571820629 -0.61566148304635926 0 -0.78801074757464917 0.39400537378732459 0 -0.30783074152317963 1 I I 0 1 0.5 forward I I I I #
face $-1 $176 $177 $42 $-1 $178 reversed single #
loop $-1 $-1 $179 $70 #
plane-surface $-1 0 0 -12.824157021401517 0 0 1 1 0 0 forward_v I I I I #
coedge $-1 $180 $181 $182 $183 forward $71 $-1 #
face $-1 $184 $185 $43 $-1 $186 forward single #
loop $-1 $-1 $187 $73 #
plane-surface $-1 -41.374553666798917 0 0 1 0 0 0 0 -1 forward_v I I I I #
coedge $-1 $188 $189 $190 $191 forward $74 $-1 #
face $-1 $192 $193 $44 $-1 $194 reversed single #
loop $-1 $-1 $195 $76 #
plane-surface $-1 -23.832632264284413 -5.7837230412154419 54.679079530586677 0.61566148304635926 0 0.78801074757464917 0.78801074757464917 0 -0.61566148304635926 forward_v I I I I #
coedge $-1 $196 $197 $198 $199 reversed $77 $-1 #
face $-1 $-1 $200 $45 $-1 $201 forward single #
loop $-1 $202 $203 $79 #
cone-surface $-1 34.670556936381615 -7.0942060708076795 7.1444458223589695 -0.61566148304635926 0 -0.78801074757464917 0.19700268689366229 0 -0.15391537076158981 1 I I -0.70710678118654746 0.70710678118654746 0.25 forward I I I I #
loop $-1 $-1 $204 $59 #
coedge $-1 $128 $128 $205 $206 reversed $80 $-1 #
face $-1 $-1 $207 $46 $-1 $208 forward single #
loop $-1 $209 $210 $82 #
cone-surface $-1 34.670556936381615 -4.4732400116232078 7.1444458223589695 -0.61566148304635926 0 -0.78801074757464917 0.19700268689366229 0 -0.15391537076158981 1 I I -0.70710678118654746 0.70710678118654746 0.25 forward I I I I #
loop $-1 $-1 $211 $60 #
coedge $-1 $133 $133 $212 $213 reversed $83 $-1 #
face $-1 $214 $215 $47 $-1 $216 reversed single #
loop $-1 $-1 $217 $85 #
plane-surface $-1 -23.832632264284413 4.5698811672021762 54.679079530586677 0.61566148304635926 0 0.78801074757464917 0.78801074757464917 0 -0.61566148304635926 forward_v I I I I #
coedge $-1 $218 $219 $220 $221 reversed $86 $-1 #
face $-1 $-1 $222 $48 $-1 $223 forward single #
loop $-1 $224 $225 $88 #
cone-surface $-1 34.670556936381615 3.2593981376099386 7.1444458223589695 -0.61566148304635926 0 -0.78801074757464917 0.19700268689366229 0 -0.15391537076158981 1 I I -0.70710678118654746 0.70710678118654746 0.25 forward I I I I #
loop $-1 $-1 $226 $62 #
coedge $-1 $142 $142 $227 $228 reversed $89 $-1 #
face $-1 $-1 $229 $49 $-1 $230 forward single #
loop $-1 $231 $232 $91 #
cone-surface $-1 34.670556936381615 5.8803641967944102 7.1444458223589695 -0.61566148304635926 0 -0.78801074757464917 0.19700268689366229 0 -0.15391537076158981 1 I I -0.70710678118654746 0.70710678118654746 0.25 forward I I I I #
loop $-1 $-1 $233 $63 #
coedge $-1 $147 $147 $234 $235 reversed $92 $-1 #
face $-1 $236 $237 $50 $-1 $238 reversed single #
loop $-1 $-1 $239 $94 #
plane-surface $-1 -23.832632264284413 14.923485375619798 54.679079530586677 0.61566148304635926 0 0.78801074757464917 0.78801074757464917 0 -0.61566148304635926 forward_v I I I I #
coedge $-1 $240 $241 $242 $243 reversed $95 $-1 #
face $-1 $-1 $244 $51 $-1 $245 forward single #
loop $-1 $246 $247 $97 #
cone-surface $-1 34.670556936381615 13.613002346027557 7.1444458223589695 -0.61566148304635926 0 -0.78801074757464917 0.19700268689366229 0 -0.15391537076158981 1 I I -0.70710678118654746 0.70710678118654746 0.25 forward I I I I #
loop $-1 $-1 $248 $65 #
coedge $-1 $156 $156 $249 $250 reversed $98 $-1 #
face $-1 $-1 $251 $52 $-1 $252 forward single #
loop $-1 $253 $254 $100 #
cone-surface $-1 34.670556936381615 16.233968405212032 7.1444458223589695 -0.61566148304635926 0 -0.78801074757464917 0.19700268689366229 0 -0.15391537076158981 1 I I -0.70710678118654746 0.70710678118654746 0.25 forward I I I I #
loop $-1 $-1 $255 $66 #
coedge $-1 $161 $161 $256 $257 reversed $101 $-1 #
face $-1 $258 $259 $53 $-1 $260 reversed single #
loop $-1 $-1 $261 $103 #
plane-surface $-1 -23.832632264284413 25.277089584037419 54.679079530586677 0.61566148304635926 0 0.78801074757464917 0.78801074757464917 0 -0.61566148304635926 forward_v I I I I #
coedge $-1 $262 $263 $264 $265 reversed $104 $-1 #
face $-1 $-1 $266 $54 $-1 $267 forward single #
loop $-1 $268 $269 $106 #
cone-surface $-1 34.670556936381615 23.966606554445171 7.1444458223589695 -0.61566148304635926 0 -0.78801074757464917 0.19700268689366229 0 -0.15391537076158981 1 I I -0.70710678118654746 0.70710678118654746 0.25 forward I I I I #
loop $-1 $-1 $270 $68 #
coedge $-1 $170 $170 $271 $272 reversed $107 $-1 #
face $-1 $-1 $273 $55 $-1 $274 forward single #
loop $-1 $275 $276 $109 #
cone-surface $-1 34.670556936381615 26.587572613629654 7.1444458223589695 -0.61566148304635926 0 -0.78801074757464917 0.19700268689366229 0 -0.15391537076158981 1 I I -0.70710678118654746 0.70710678118654746 0.25 forward I I I I #
loop $-1 $-1 $277 $69 #
coedge $-1 $175 $175 $278 $279 reversed $110 $-1 #
face $-1 $280 $281 $42 $-1 $282 reversed single #
loop $-1 $-1 $283 $112 #
plane-surface $-1 0 -28.334883319752628 0 0 1 0 0 0 1 forward_v I I I I #
coedge $-1 $284 $285 $286 $287 forward $113 $-1 #
coedge $-1 $288 $115 $289 $290 forward $71 $-1 #
coedge $-1 $115 $288 $291 $292 forward $71 $-1 #
coedge $-1 $293 $294 $115 $183 reversed $295 $-1 #
edge $-1 $296 -28.334883319752628 $297 28.334883319752628 $182 $298 forward 7 unknown #
face $-1 $299 $300 $43 $-1 $301 reversed single #
loop $-1 $-1 $302 $116 #
plane-surface $-1 0 -35.962558222670019 4.6217227403200267 0 0 1 1 0 0 forward_v I I I I #
coedge $-1 $303 $304 $189 $305 forward $117 $-1 #
coedge $-1 $306 $119 $307 $308 reversed $74 $-1 #
coedge $-1 $119 $306 $187 $305 reversed $74 $-1 #
coedge $-1 $309 $302 $119 $191 reversed $185 $-1 #
edge $-1 $310 -41.374553666798917 $311 41.374553666798917 $190 $312 forward 7 unknown #
face $-1 $313 $314 $44 $-1 $315 reversed single #
loop $-1 $-1 $316 $120 #
plane-surface $-1 27.112805877480795 -8.8415167769306606 119.88626546166999 0 1 0 0.61566148304635926 0 0.78801074757464917 forward_v I I I I #
coedge $-1 $317 $318 $319 $320 reversed $121 $-1 #
coedge $-1 $197 $123 $321 $322 reversed $77 $-1 #
coedge $-1 $123 $196 $317 $323 reversed $77 $-1 #
coedge $-1 $319 $324 $123 $199 forward $325 $-1 #
edge $-1 $326 -27.818150728058519 $327 -16.182821546796347 $198 $328 forward 7 unknown #
loop $-1 $-1 $205 $124 #
plane-surface $-1 -23.832632264284413 -5.7837230412154419 54.679079530586677 0.61566148304635926 0 0.78801074757464917 0.78801074757464917 0 -0.61566148304635926 forward_v I I I I #
loop $-1 $-1 $329 $79 #
coedge $-1 $203 $203 $204 $330 reversed $125 $-1 #
coedge $-1 $204 $204 $203 $330 forward $127 $-1 #
coedge $-1 $205 $205 $128 $206 forward $200 $-1 #
edge $-1 $331 0 $331 6.2831853071796004 $205 $332 forward 7 unknown #
loop $-1 $-1 $212 $129 #
plane-surface $-1 -23.832632264284413 -5.7837230412154419 54.679079530586677 0.61566148304635926 0 0.78801074757464917 0.78801074757464917 0 -0.61566148304635926 forward_v I I I I #
loop $-1 $-1 $333 $82 #
coedge $-1 $210 $210 $211 $334 reversed $130 $-1 #
coedge $-1 $211 $211 $210 $334 forward $132 $-1 #
coedge $-1 $212 $212 $133 $213 forward $207 $-1 #
edge $-1 $335 0 $335 6.2831853071796004 $212 $336 forward 7 unknown #
face $-1 $337 $338 $47 $-1 $339 reversed single #
loop $-1 $-1 $340 $134 #
plane-surface $-1 27.112805877480795 1.5120874314869575 119.88626546166999 0 1 0 0.61566148304635926 0 0.78801074757464917 forward_v I I I I #
coedge $-1 $341 $342 $343 $344 reversed $135 $-1 #
coedge $-1 $219 $137 $345 $346 reversed $86 $-1 #
coedge $-1 $137 $218 $341 $347 reversed $86 $-1 #
coedge $-1 $343 $348 $137 $221 forward $349 $-1 #
edge $-1 $350 -27.818150728058519 $351 -16.182821546796347 $220 $352 forward 7 unknown #
loop $-1 $-1 $227 $138 #
plane-surface $-1 -23.832632264284413 4.5698811672021762 54.679079530586677 0.61566148304635926 0 0.78801074757464917 0.78801074757464917 0 -0.61566148304635926 forward_v I I I I #
loop $-1 $-1 $353 $88 #
coedge $-1 $225 $225 $226 $354 reversed $139 $-1 #
coedge $-1 $226 $226 $225 $354 forward $141 $-1 #
coedge $-1 $227 $227 $142 $228 forward $222 $-1 #
edge $-1 $355 0 $355 6.2831853071796004 $227 $356 forward 7 unknown #
loop $-1 $-1 $234 $143 #
plane-surface $-1 -23.832632264284413 4.5698811672021762 54.679079530586677 0.61566148304635926 0 0.78801074757464917 0.78801074757464917 0 -0.61566148304635926 forward_v I I I I #
loop $-1 $-1 $357 $91 #
coedge $-1 $232 $232 $233 $358 reversed $144 $-1 #
coedge $-1 $233 $233 $232 $358 forward $146 $-1 #
coedge $-1 $234 $234 $147 $235 forward $229 $-1 #
edge $-1 $359 0 $359 6.2831853071796004 $234 $360 forward 7 unknown #
face $-1 $361 $362 $50 $-1 $363 reversed single #
loop $-1 $-1 $364 $148 #
plane-surface $-1 27.112805877480795 11.865691639904579 119.88626546166999 0 1 0 0.61566148304635926 0 0.78801074757464917 forward_v I I I I #
coedge $-1 $365 $366 $367 $368 reversed $149 $-1 #
coedge $-1 $241 $151 $369 $370 reversed $95 $-1 #
coedge $-1 $151 $240 $365 $371 reversed $95 $-1 #
coedge $-1 $367 $372 $151 $243 forward $373 $-1 #
edge $-1 $374 -27.818150728058519 $375 -16.182821546796347 $242 $376 forward 7 unknown #
loop $-1 $-1 $249 $152 #
plane-surface $-1 -23.832632264284413 14.923485375619798 54.679079530586677 0.61566148304635926 0 0.78801074757464917 0.78801074757464917 0 -0.61566148304635926 forward_v I I I I #
loop $-1 $-1 $377 $97 #
coedge $-1 $247 $247 $248 $378 reversed $153 $-1 #
coedge $-1 $248 $248 $247 $378 forward $155 $-1 #
coedge $-1 $249 $249 $156 $250 forward $244 $-1 #
edge $-1 $379 0 $379 6.2831853071796004 $249 $380 forward 7 unknown #
loop $-1 $-1 $256 $157 #
plane-surface $-1 -23.832632264284413 14.923485375619798 54.679079530586677 0.61566148304635926 0 0.78801074757464917 0.78801074757464917 0 -0.61566148304635926 forward_v I I I I #
loop $-1 $-1 $381 $100 #
coedge $-1 $254 $254 $255 $382 reversed $158 $-1 #
coedge $-1 $255 $255 $254 $382 forward $160 $-1 #
coedge $-1 $256 $256 $161 $257 forward $251 $-1 #
edge $-1 $383 0 $383 6.2831853071796004 $256 $384 forward 7 unknown #
face $-1 $385 $386 $53 $-1 $387 forward single #
loop $-1 $-1 $264 $162 #
plane-surface $-1 41.374553666798917 0 0 -1 0 0 0 0 1 forward_v I I I I #
coedge $-1 $388 $389 $390 $391 reversed $163 $-1 #
coedge $-1 $263 $165 $392 $393 reversed $104 $-1 #
coedge $-1 $165 $262 $388 $394 reversed $104 $-1 #
coedge $-1 $390 $395 $165 $265 forward $259 $-1 #
edge $-1 $396 47.118975709433478 $397 56.209491342013536 $264 $398 forward 7 unknown #
loop $-1 $-1 $271 $166 #
plane-surface $-1 -23.832632264284413 25.277089584037419 54.679079530586677 0.61566148304635926 0 0.78801074757464917 0.78801074757464917 0 -0.61566148304635926 forward_v I I I I #
loop $-1 $-1 $399 $106 #
coedge $-1 $269 $269 $270 $400 reversed $167 $-1 #
coedge $-1 $270 $270 $269 $400 forward $169 $-1 #
coedge $-1 $271 $271 $170 $272 forward $266 $-1 #
edge $-1 $401 0 $401 6.2831853071796004 $271 $402 forward 7 unknown #
loop $-1 $-1 $278 $171 #
plane-surface $-1 -23.832632264284413 25.277089584037419 54.679079530586677 0.61566148304635926 0 0.78801074757464917 0.78801074757464917 0 -0.61566148304635926 forward_v I I I I #
loop $-1 $-1 $403 $109 #
coedge $-1 $276 $276 $277 $404 reversed $172 $-1 #
coedge $-1 $277 $277 $276 $404 forward $174 $-1 #
coedge $-1 $278 $278 $175 $279 forward $273 $-1 #
edge $-1 $405 0 $405 6.2831853071796004 $278 $406 forward 7 unknown #
face $-1 $407 $408 $42 $-1 $409 reversed single #
loop $-1 $-1 $410 $176 #
plane-surface $-1 -41.374553666798917 0 0 1 0 0 0 0 -1 forward_v I I I I #
coedge $-1 $411 $291 $412 $413 forward $177 $-1 #
coedge $-1 $414 $179 $411 $415 forward $113 $-1 #
coedge $-1 $179 $414 $416 $417 forward $113 $-1 #
coedge $-1 $294 $293 $179 $287 reversed $295 $-1 #
edge $-1 $418 -28.334883319752628 $419 28.334883319752628 $286 $420 forward 7 unknown #
coedge $-1 $181 $180 $421 $422 forward $71 $-1 #
coedge $-1 $423 $424 $180 $290 reversed $408 $-1 #
edge $-1 $297 -41.374553666798917 $425 41.374553666798917 $289 $426 forward 7 unknown #
coedge $-1 $283 $427 $181 $292 reversed $177 $-1 #
edge $-1 $428 -41.374553666798917 $296 41.374553666798917 $291 $429 forward 7 unknown #
coedge $-1 $286 $182 $427 $430 forward $295 $-1 #
coedge $-1 $182 $286 $423 $431 reversed $295 $-1 #
loop $-1 $-1 $293 $407 #
vertex $-1 $183 $432 #
vertex $-1 $183 $433 #
straight-curve $-1 41.374553666798917 0 12.824157021401517 0 1 0 I I #
face $-1 $434 $435 $43 $-1 $436 reversed single #
loop $-1 $-1 $437 $184 #
plane-surface $-1 0 -35.962558222670019 -0.84569596623153043 0 0 1 1 0 0 forward_v I I I I #
coedge $-1 $190 $438 $439 $440 forward $185 $-1 #
coedge $-1 $441 $187 $442 $443 reversed $117 $-1 #
coedge $-1 $187 $441 $309 $444 reversed $117 $-1 #
edge $-1 $310 -4.6217227403200267 $445 0.84569596623153043 $187 $446 forward 7 unknown #
coedge $-1 $189 $188 $447 $448 forward $74 $-1 #
coedge $-1 $439 $449 $188 $308 forward $450 $-1 #
edge $-1 $451 -0.84569596623153043 $311 4.6217227403200267 $307 $452 forward 7 unknown #
coedge $-1 $438 $190 $304 $444 forward $185 $-1 #
vertex $-1 $305 $453 #
vertex $-1 $440 $454 #
straight-curve $-1 0 -28.334883319752628 4.6217227403200267 1 0 0 I I #
face $-1 $-1 $325 $44 $-1 $455 forward single #
loop $-1 $-1 $456 $192 #
plane-surface $-1 41.374553666798917 0 0 -1 0 0 0 0 1 forward_v I I I I #
coedge $-1 $457 $458 $459 $460 reversed $193 $-1 #
coedge $-1 $461 $195 $197 $323 forward $121 $-1 #
coedge $-1 $195 $461 $457 $462 forward $121 $-1 #
coedge $-1 $459 $198 $195 $320 forward $325 $-1 #
edge $-1 $327 -0.16593221510749778 $463 5.9496552563229397 $319 $464 forward 7 unknown #
coedge $-1 $465 $466 $196 $322 forward $314 $-1 #
edge $-1 $467 -56.209491342013536 $326 -47.118975709433478 $321 $468 forward 7 unknown #
edge $-1 $327 67.983662551183969 $467 82.749107333597848 $197 $469 forward 7 unknown #
coedge $-1 $198 $459 $465 $470 forward $325 $-1 #
loop $-1 $-1 $459 $313 #
vertex $-1 $322 $471 #
vertex $-1 $199 $472 #
straight-curve $-1 13.556402938740398 -2.7259293055002232 12.824157021401518 -1 0 0 I I #
coedge $-1 $329 $329 $-1 $473 reversed $202 $-1 #
edge $-1 $474 0 $474 6.2831853071796004 $203 $475 forward 7 unknown #
vertex $-1 $206 $476 #
ellipse-curve $-1 35.556889076167835 -7.0942060708076795 8.2788992051114878 0.61566148304635926 0 0.78801074757464917 0.39400537378732459 0 -0.30783074152317963 1 I I #
coedge $-1 $333 $333 $-1 $477 reversed $209 $-1 #
edge $-1 $478 0 $478 6.2831853071796004 $210 $479 forward 7 unknown #
vertex $-1 $213 $480 #
ellipse-curve $-1 35.556889076167835 -4.4732400116232078 8.2788992051114878 0.61566148304635926 0 0.78801074757464917 0.39400537378732459 0 -0.30783074152317963 1 I I #
face $-1 $-1 $349 $47 $-1 $481 forward single #
loop $-1 $-1 $482 $214 #
plane-surface $-1 41.374553666798917 0 0 -1 0 0 0 0 1 forward_v I I I I #
coedge $-1 $483 $484 $485 $486 reversed $215 $-1 #
coedge $-1 $487 $217 $219 $347 forward $135 $-1 #
coedge $-1 $217 $487 $483 $488 forward $135 $-1 #
coedge $-1 $485 $220 $217 $344 forward $349 $-1 #
edge $-1 $351 -5.3427343193163068 $489 0.77285315211413064 $343 $490 forward 7 unknown #
coedge $-1 $491 $492 $218 $346 forward $338 $-1 #
edge $-1 $493 -56.209491342013536 $350 -47.118975709433478 $345 $494 forward 7 unknown #
edge $-1 $351 67.983662551183969 $493 82.749107333597848 $219 $495 forward 7 unknown #
coedge $-1 $220 $485 $491 $496 forward $349 $-1 #
loop $-1 $-1 $485 $337 #
vertex $-1 $346 $497 #
vertex $-1 $221 $498 #
straight-curve $-1 13.556402938740398 7.6276749029173949 12.824157021401518 -1 0 0 I I #
coedge $-1 $353 $353 $-1 $499 reversed $224 $-1 #
edge $-1 $500 0 $500 6.2831853071796004 $225 $501 forward 7 unknown #
vertex $-1 $228 $502 #
ellipse-curve $-1 35.556889076167835 3.2593981376099386 8.2788992051114878 0.61566148304635926 0 0.78801074757464917 0.39400537378732459 0 -0.30783074152317963 1 I I #
coedge $-1 $357 $357 $-1 $503 reversed $231 $-1 #
edge $-1 $504 0 $504 6.2831853071796004 $232 $505 forward 7 unknown #
vertex $-1 $235 $506 #
ellipse-curve $-1 35.556889076167835 5.8803641967944102 8.2788992051114878 0.61566148304635926 0 0.78801074757464917 0.39400537378732459 0 -0.30783074152317963 1 I I #
face $-1 $-1 $373 $50 $-1 $507 forward single #
loop $-1 $-1 $508 $236 #
plane-surface $-1 41.374553666798917 0 0 -1 0 0 0 0 1 forward_v I I I I #
coedge $-1 $509 $510 $511 $512 reversed $237 $-1 #
coedge $-1 $513 $239 $241 $371 forward $149 $-1 #
coedge $-1 $239 $513 $509 $514 forward $149 $-1 #
coedge $-1 $511 $242 $239 $368 forward $373 $-1 #
edge $-1 $375 -10.519536423525118 $515 -4.4039489520946802 $367 $516 forward 7 unknown #
coedge $-1 $517 $518 $240 $370 forward $362 $-1 #
edge $-1 $519 -56.209491342013536 $374 -47.118975709433478 $369 $520 forward 7 unknown #
edge $-1 $375 67.983662551183969 $519 82.749107333597848 $241 $521 forward 7 unknown #
coedge $-1 $242 $511 $517 $522 forward $373 $-1 #
loop $-1 $-1 $511 $361 #
vertex $-1 $370 $523 #
vertex $-1 $243 $524 #
straight-curve $-1 13.556402938740398 17.981279111335017 12.824157021401518 -1 0 0 I I #
coedge $-1 $377 $377 $-1 $525 reversed $246 $-1 #
edge $-1 $526 0 $526 6.2831853071796004 $247 $527 forward 7 unknown #
vertex $-1 $250 $528 #
ellipse-curve $-1 35.556889076167835 13.613002346027557 8.2788992051114878 0.61566148304635926 0 0.78801074757464917 0.39400537378732459 0 -0.30783074152317963 1 I I #
coedge $-1 $381 $381 $-1 $529 reversed $253 $-1 #
edge $-1 $530 0 $530 6.2831853071796004 $254 $531 forward 7 unknown #
vertex $-1 $257 $532 #
ellipse-curve $-1 35.556889076167835 16.233968405212032 8.2788992051114878 0.61566148304635926 0 0.78801074757464917 0.39400537378732459 0 -0.30783074152317963 1 I I #
face $-1 $-1 $533 $53 $-1 $534 reversed single #
loop $-1 $-1 $392 $258 #
plane-surface $-1 0 0 12.824157021401517 0 0 1 1 0 0 forward_v I I I I #
coedge $-1 $535 $261 $263 $394 forward $163 $-1 #
coedge $-1 $261 $535 $536 $537 reversed $163 $-1 #
coedge $-1 $538 $264 $261 $391 forward $259 $-1 #
edge $-1 $397 9.580751056303491 $539 15.696338527733918 $390 $540 forward 7 unknown #
coedge $-1 $541 $542 $262 $393 forward $386 $-1 #
edge $-1 $543 16.182821546796347 $396 27.818150728058519 $392 $544 forward 7 unknown #
edge $-1 $397 -82.749107333597848 $543 -67.983662551183969 $263 $545 forward 7 unknown #
coedge $-1 $264 $538 $541 $546 reversed $259 $-1 #
vertex $-1 $546 $547 #
vertex $-1 $265 $548 #
straight-curve $-1 41.374553666798917 22.219295848322201 59.943132730834996 0 0 -1 I I #
coedge $-1 $399 $399 $-1 $549 reversed $268 $-1 #
edge $-1 $550 0 $550 6.2831853071796004 $269 $551 forward 7 unknown #
vertex $-1 $272 $552 #
ellipse-curve $-1 35.556889076167835 23.966606554445171 8.2788992051114878 0.61566148304635926 0 0.78801074757464917 0.39400537378732459 0 -0.30783074152317963 1 I I #
coedge $-1 $403 $403 $-1 $553 reversed $275 $-1 #
edge $-1 $554 0 $554 6.2831853071796004 $276 $555 forward 7 unknown #
vertex $-1 $279 $556 #
ellipse-curve $-1 35.556889076167835 26.587572613629654 8.2788992051114878 0.61566148304635926 0 0.78801074757464917 0.39400537378732459 0 -0.30783074152317963 1 I I #
face $-1 $-1 $295 $42 $-1 $557 reversed single #
loop $-1 $-1 $423 $280 #
plane-surface $-1 0 28.334883319752628 0 0 -1 0 0 0 -1 forward_v I I I I #
coedge $-1 $558 $421 $424 $559 forward $281 $-1 #
coedge $-1 $427 $283 $284 $415 reversed $177 $-1 #
coedge $-1 $421 $558 $283 $413 reversed $281 $-1 #
edge $-1 $428 -12.824157021401517 $560 12.824157021401517 $412 $561 forward 7 unknown #
coedge $-1 $285 $284 $558 $562 forward $113 $-1 #
edge $-1 $419 -41.374553666798917 $560 41.374553666798917 $411 $563 forward 7 unknown #
coedge $-1 $424 $423 $285 $417 reversed $408 $-1 #
edge $-1 $564 -41.374553666798917 $418 41.374553666798917 $416 $565 forward 7 unknown #
vertex $-1 $287 $566 #
vertex $-1 $430 $567 #
straight-curve $-1 41.374553666798917 0 -12.824157021401517 0 -1 0 I I #
coedge $-1 $410 $412 $288 $422 reversed $281 $-1 #
edge $-1 $425 -28.334883319752628 $428 28.334883319752628 $421 $568 forward 7 unknown #
coedge $-1 $416 $289 $294 $431 forward $408 $-1 #
coedge $-1 $289 $416 $410 $559 reversed $408 $-1 #
vertex $-1 $290 $569 #
straight-curve $-1 0 28.334883319752628 12.824157021401517 -1 0 0 I I #
coedge $-1 $291 $411 $293 $430 reversed $177 $-1 #
vertex $-1 $422 $570 #
straight-curve $-1 0 -28.334883319752628 12.824157021401517 1 0 0 I I #
edge $-1 $296 -12.824157021401517 $419 12.824157021401517 $293 $571 forward 7 unknown #
edge $-1 $297 -12.824157021401517 $418 12.824157021401517 $294 $572 forward 7 unknown #
point $-1 41.374553666798917 -28.334883319752628 12.824157021401517 #
point $-1 41.374553666798917 28.334883319752628 12.824157021401517 #
face $-1 $-1 $450 $43 $-1 $573 reversed single #
loop $-1 $-1 $574 $299 #
plane-surface $-1 0 -43.59023312558741 1.8880133870442481 0 1 0 0 0 1 forward_v I I I I #
coedge $-1 $575 $447 $449 $576 forward $300 $-1 #
coedge $-1 $302 $309 $577 $578 forward $185 $-1 #
coedge $-1 $579 $307 $302 $440 reversed $450 $-1 #
edge $-1 $580 -7.6276749029173914 $311 7.6276749029173914 $439 $581 forward 7 unknown #
coedge $-1 $304 $303 $574 $582 reversed $117 $-1 #
coedge $-1 $447 $575 $303 $443 forward $300 $-1 #
edge $-1 $583 -7.6276749029173914 $445 7.6276749029173914 $303 $584 forward 7 unknown #
edge $-1 $310 -7.6276749029173914 $585 7.6276749029173914 $304 $586 forward 7 unknown #
vertex $-1 $305 $587 #
straight-curve $-1 -41.374553666798917 -28.334883319752628 0 0 0 -1 I I #
coedge $-1 $437 $442 $306 $448 reversed $300 $-1 #
edge $-1 $451 -41.374553666798917 $445 41.374553666798917 $447 $588 forward 7 unknown #
coedge $-1 $307 $579 $437 $576 reversed $450 $-1 #
loop $-1 $-1 $307 $434 #
vertex $-1 $308 $589 #
straight-curve $-1 41.374553666798917 -28.334883319752628 0 0 0 1 I I #
point $-1 -41.374553666798917 -28.334883319752628 4.6217227403200267 #
point $-1 41.374553666798917 -28.334883319752628 4.6217227403200267 #
plane-surface $-1 0 0 12.824157021401517 0 0 1 1 0 0 forward_v I I I I #
coedge $-1 $466 $465 $458 $590 forward $314 $-1 #
coedge $-1 $458 $316 $318 $462 reversed $193 $-1 #
coedge $-1 $316 $457 $456 $590 reversed $193 $-1 #
coedge $-1 $324 $319 $316 $460 forward $325 $-1 #
edge $-1 $463 16.182821546796347 $591 27.818150728058519 $459 $592 forward 7 unknown #
coedge $-1 $318 $317 $466 $593 reversed $121 $-1 #
edge $-1 $594 -82.749107333597848 $463 -67.983662551183969 $457 $595 forward 7 unknown #
vertex $-1 $320 $596 #
straight-curve $-1 29.739224485536752 -2.8918615206077209 12.824157021401522 0 -1 0 I I #
coedge $-1 $456 $321 $324 $470 reversed $314 $-1 #
coedge $-1 $321 $456 $461 $593 forward $314 $-1 #
vertex $-1 $322 $597 #
straight-curve $-1 41.374553666798917 -2.7259293055002232 59.943132730834996 0 0 1 I I #
straight-curve $-1 -23.832632264284413 -2.7259293055002232 54.679079530586677 0.78801074757464917 0 -0.61566148304635926 I I #
edge $-1 $591 -8.8415167769306606 $326 -2.7259293055002232 $465 $598 forward 7 unknown #
point $-1 41.374553666798917 -2.7259293055002232 12.824157021401517 #
point $-1 29.739224485536745 -2.7259293055002232 12.824157021401518 #
edge $-1 $599 1 $599 0 $329 $-1 forward 7 unknown #
vertex $-1 $330 $600 #
ellipse-curve $-1 34.824472307143203 -7.0942060708076795 7.3414485092526318 0.61566148304635926 0 0.78801074757464917 0.39400537378732459 0 -0.30783074152317963 1 I I #
point $-1 35.950894449955165 -7.0942060708076795 7.9710684635883151 #
edge $-1 $601 1 $601 0 $333 $-1 forward 7 unknown #
vertex $-1 $334 $602 #
ellipse-curve $-1 34.824472307143203 -4.4732400116232078 7.3414485092526318 0.61566148304635926 0 0.78801074757464917 0.39400537378732459 0 -0.30783074152317963 1 I I #
point $-1 35.950894449955165 -4.4732400116232078 7.9710684635883151 #
plane-surface $-1 0 0 12.824157021401517 0 0 1 1 0 0 forward_v I I I I #
coedge $-1 $492 $491 $484 $603 forward $338 $-1 #
coedge $-1 $484 $340 $342 $488 reversed $215 $-1 #
coedge $-1 $340 $483 $482 $603 reversed $215 $-1 #
coedge $-1 $348 $343 $340 $486 forward $349 $-1 #
edge $-1 $489 16.182821546796347 $604 27.818150728058519 $485 $605 forward 7 unknown #
coedge $-1 $342 $341 $492 $606 reversed $135 $-1 #
edge $-1 $607 -82.749107333597848 $489 -67.983662551183969 $483 $608 forward 7 unknown #
vertex $-1 $344 $609 #
straight-curve $-1 29.739224485536752 2.2849405836010881 12.824157021401522 0 -1 0 I I #
coedge $-1 $482 $345 $348 $496 reversed $338 $-1 #
coedge $-1 $345 $482 $487 $606 forward $338 $-1 #
vertex $-1 $346 $610 #
straight-curve $-1 41.374553666798917 7.6276749029173949 59.943132730834996 0 0 1 I I #
straight-curve $-1 -23.832632264284413 7.6276749029173949 54.679079530586677 0.78801074757464917 0 -0.61566148304635926 I I #
edge $-1 $604 1.5120874314869575 $350 7.6276749029173949 $491 $611 forward 7 unknown #
point $-1 41.374553666798917 7.6276749029173949 12.824157021401517 #
point $-1 29.739224485536745 7.6276749029173949 12.824157021401518 #
edge $-1 $612 1 $612 0 $353 $-1 forward 7 unknown #
vertex $-1 $354 $613 #
ellipse-curve $-1 34.824472307143203 3.2593981376099386 7.3414485092526318 0.61566148304635926 0 0.78801074757464917 0.39400537378732459 0 -0.30783074152317963 1 I I #
point $-1 35.950894449955165 3.2593981376099386 7.9710684635883151 #
edge $-1 $614 1 $614 0 $357 $-1 forward 7 unknown #
vertex $-1 $358 $615 #
ellipse-curve $-1 34.824472307143203 5.8803641967944102 7.3414485092526318 0.61566148304635926 0 0.78801074757464917 0.39400537378732459 0 -0.30783074152317963 1 I I #
point $-1 35.950894449955165 5.8803641967944102 7.9710684635883151 #
plane-surface $-1 0 0 12.824157021401517 0 0 1 1 0 0 forward_v I I I I #
coedge $-1 $518 $517 $510 $616 forward $362 $-1 #
coedge $-1 $510 $364 $366 $514 reversed $237 $-1 #
coedge $-1 $364 $509 $508 $616 reversed $237 $-1 #
coedge $-1 $372 $367 $364 $512 forward $373 $-1 #
edge $-1 $515 16.182821546796347 $617 27.818150728058519 $511 $618 forward 7 unknown #
coedge $-1 $366 $365 $518 $619 reversed $149 $-1 #
edge $-1 $620 -82.749107333597848 $515 -67.983662551183969 $509 $621 forward 7 unknown #
vertex $-1 $368 $622 #
straight-curve $-1 29.739224485536752 7.4617426878098989 12.824157021401522 0 -1 0 I I #
coedge $-1 $508 $369 $372 $522 reversed $362 $-1 #
coedge $-1 $369 $508 $513 $619 forward $362 $-1 #
vertex $-1 $370 $623 #
straight-curve $-1 41.374553666798917 17.981279111335017 59.943132730834996 0 0 1 I I #
straight-curve $-1 -23.832632264284413 17.981279111335017 54.679079530586677 0.78801074757464917 0 -0.61566148304635926 I I #
edge $-1 $617 11.865691639904579 $374 17.981279111335017 $517 $624 forward 7 unknown #
point $-1 41.374553666798917 17.981279111335017 12.824157021401517 #
point $-1 29.739224485536745 17.981279111335017 12.824157021401518 #
edge $-1 $625 1 $625 0 $377 $-1 forward 7 unknown #
vertex $-1 $378 $626 #
ellipse-curve $-1 34.824472307143203 13.613002346027557 7.3414485092526318 0.61566148304635926 0 0.78801074757464917 0.39400537378732459 0 -0.30783074152317963 1 I I #
point $-1 35.950894449955165 13.613002346027557 7.9710684635883151 #
edge $-1 $627 1 $627 0 $381 $-1 forward 7 unknown #
vertex $-1 $382 $628 #
ellipse-curve $-1 34.824472307143203 16.233968405212032 7.3414485092526318 0.61566148304635926 0 0.78801074757464917 0.39400537378732459 0 -0.30783074152317963 1 I I #
point $-1 35.950894449955165 16.233968405212032 7.9710684635883151 #
loop $-1 $-1 $536 $385 #
plane-surface $-1 0 28.334883319752628 0 0 -1 0 0 0 -1 forward_v I I I I #
coedge $-1 $389 $388 $542 $629 reversed $163 $-1 #
coedge $-1 $630 $631 $389 $537 forward $533 $-1 #
edge $-1 $539 -56.527020552267217 $632 -41.76157576985333 $536 $633 forward 7 unknown #
coedge $-1 $395 $390 $631 $634 reversed $259 $-1 #
vertex $-1 $391 $635 #
straight-curve $-1 41.374553666798917 12.63854479201871 3.7336413888214572 0 1 0 I I #
coedge $-1 $636 $392 $395 $546 forward $386 $-1 #
coedge $-1 $392 $636 $535 $629 forward $386 $-1 #
vertex $-1 $393 $637 #
straight-curve $-1 13.556402938740398 22.219295848322201 12.824157021401518 1 0 0 I I #
straight-curve $-1 -23.832632264284413 22.219295848322201 54.679079530586677 -0.78801074757464917 0 0.61566148304635926 I I #
edge $-1 $396 22.219295848322201 $638 28.334883319752628 $395 $639 forward 7 unknown #
point $-1 41.374553666798917 22.219295848322201 12.824157021401517 #
point $-1 41.374553666798917 22.219295848322201 3.7336413888214608 #
edge $-1 $640 1 $640 0 $399 $-1 forward 7 unknown #
vertex $-1 $400 $641 #
ellipse-curve $-1 34.824472307143203 23.966606554445171 7.3414485092526318 0.61566148304635926 0 0.78801074757464917 0.39400537378732459 0 -0.30783074152317963 1 I I #
point $-1 35.950894449955165 23.966606554445171 7.9710684635883151 #
edge $-1 $642 1 $642 0 $403 $-1 forward 7 unknown #
vertex $-1 $404 $643 #
ellipse-curve $-1 34.824472307143203 26.587572613629654 7.3414485092526318 0.61566148304635926 0 0.78801074757464917 0.39400537378732459 0 -0.30783074152317963 1 I I #
point $-1 35.950894449955165 26.587572613629654 7.9710684635883151 #
plane-surface $-1 41.374553666798917 0 0 -1 0 0 0 0 1 forward_v I I I I #
coedge $-1 $412 $410 $414 $562 reversed $281 $-1 #
edge $-1 $425 -12.824157021401517 $564 12.824157021401517 $424 $644 forward 7 unknown #
vertex $-1 $562 $645 #
straight-curve $-1 -41.374553666798917 -28.334883319752628 0 0 0 -1 I I #
edge $-1 $560 -28.334883319752628 $564 28.334883319752628 $558 $646 forward 7 unknown #
straight-curve $-1 0 -28.334883319752628 -12.824157021401517 -1 0 0 I I #
vertex $-1 $417 $647 #
straight-curve $-1 0 28.334883319752628 -12.824157021401517 1 0 0 I I #
point $-1 41.374553666798917 28.334883319752628 -12.824157021401517 #
point $-1 41.374553666798917 -28.334883319752628 -12.824157021401517 #
straight-curve $-1 -41.374553666798917 0 12.824157021401517 0 -1 0 I I #
point $-1 -41.374553666798917 28.334883319752628 12.824157021401517 #
point $-1 -41.374553666798917 -28.334883319752628 12.824157021401517 #
straight-curve $-1 41.374553666798917 -28.334883319752628 0 0 0 -1 I I #
straight-curve $-1 41.374553666798917 28.334883319752628 0 0 0 -1 I I #
plane-surface $-1 41.374553666798917 0 0 -1 0 0 0 0 1 forward_v I I I I #
coedge $-1 $648 $577 $441 $582 forward $435 $-1 #
coedge $-1 $442 $437 $648 $649 forward $300 $-1 #
edge $-1 $451 -7.6276749029173914 $650 7.6276749029173914 $449 $651 forward 7 unknown #
coedge $-1 $574 $652 $438 $578 reversed $435 $-1 #
edge $-1 $585 -41.374553666798917 $580 41.374553666798917 $577 $653 forward 7 unknown #
coedge $-1 $449 $439 $652 $654 forward $450 $-1 #
vertex $-1 $440 $655 #
straight-curve $-1 41.374553666798917 -35.962558222670019 4.6217227403200267 0 1 0 I I #
edge $-1 $585 -2.7337093532757786 $583 2.7337093532757786 $441 $656 forward 7 unknown #
vertex $-1 $443 $657 #
straight-curve $-1 -41.374553666798917 -35.962558222670019 -0.84569596623153043 0 1 0 I I #
vertex $-1 $444 $658 #
straight-curve $-1 -41.374553666798917 -35.962558222670019 4.6217227403200267 0 -1 0 I I #
point $-1 -41.374553666798917 -28.334883319752628 -0.84569596623153043 #
straight-curve $-1 0 -28.334883319752628 -0.84569596623153043 -1 0 0 I I #
point $-1 41.374553666798917 -28.334883319752628 -0.84569596623153043 #
edge $-1 $591 47.118975709433478 $594 56.209491342013536 $456 $659 forward 7 unknown #
vertex $-1 $470 $660 #
straight-curve $-1 13.556402938740398 -8.8415167769306606 12.824157021401518 1 0 0 I I #
edge $-1 $594 -5.9496552563229397 $467 0.16593221510749778 $466 $661 forward 7 unknown #
vertex $-1 $593 $662 #
straight-curve $-1 -23.832632264284413 -8.8415167769306606 54.679079530586677 -0.78801074757464917 0 0.61566148304635926 I I #
point $-1 29.739224485536745 -8.8415167769306606 12.824157021401518 #
point $-1 41.374553666798917 -2.7259293055002232 3.7336413888214608 #
straight-curve $-1 41.374553666798917 0 12.824157021401517 0 1 0 I I #
vertex $-1 $473 $663 #
point $-1 35.218477680930526 -7.0942060708076795 7.033617767729452 #
vertex $-1 $477 $664 #
point $-1 35.218477680930526 -4.4732400116232078 7.033617767729452 #
edge $-1 $604 47.118975709433478 $607 56.209491342013536 $482 $665 forward 7 unknown #
vertex $-1 $496 $666 #
straight-curve $-1 13.556402938740398 1.5120874314869575 12.824157021401518 1 0 0 I I #
edge $-1 $607 -0.77285315211413064 $493 5.3427343193163068 $492 $667 forward 7 unknown #
vertex $-1 $606 $668 #
straight-curve $-1 -23.832632264284413 1.5120874314869575 54.679079530586677 -0.78801074757464917 0 0.61566148304635926 I I #
point $-1 29.739224485536745 1.5120874314869575 12.824157021401518 #
point $-1 41.374553666798917 7.6276749029173949 3.7336413888214608 #
straight-curve $-1 41.374553666798917 0 12.824157021401517 0 1 0 I I #
vertex $-1 $499 $669 #
point $-1 35.218477680930526 3.2593981376099386 7.033617767729452 #
vertex $-1 $503 $670 #
point $-1 35.218477680930526 5.8803641967944102 7.033617767729452 #
edge $-1 $617 47.118975709433478 $620 56.209491342013536 $508 $671 forward 7 unknown #
vertex $-1 $522 $672 #
straight-curve $-1 13.556402938740398 11.865691639904579 12.824157021401518 1 0 0 I I #
edge $-1 $620 4.4039489520946802 $519 10.519536423525118 $518 $673 forward 7 unknown #
vertex $-1 $619 $674 #
straight-curve $-1 -23.832632264284413 11.865691639904579 54.679079530586677 -0.78801074757464917 0 0.61566148304635926 I I #
point $-1 29.739224485536745 11.865691639904579 12.824157021401518 #
point $-1 41.374553666798917 17.981279111335017 3.7336413888214608 #
straight-curve $-1 41.374553666798917 0 12.824157021401517 0 1 0 I I #
vertex $-1 $525 $675 #
point $-1 35.218477680930526 13.613002346027557 7.033617767729452 #
vertex $-1 $529 $676 #
point $-1 35.218477680930526 16.233968405212032 7.033617767729452 #
edge $-1 $632 -15.696338527733928 $543 -9.580751056303491 $542 $677 forward 7 unknown #
coedge $-1 $631 $536 $636 $678 reversed $533 $-1 #
coedge $-1 $536 $630 $538 $634 forward $533 $-1 #
vertex $-1 $537 $679 #
straight-curve $-1 -3.1693460567607286 28.334883319752628 38.535150694222324 -0.78801074757464917 0 0.61566148304635926 I I #
edge $-1 $638 -12.824157021401517 $539 -3.7336413888214555 $538 $680 forward 7 unknown #
point $-1 41.374553666798917 28.334883319752628 3.7336413888214555 #
coedge $-1 $542 $541 $630 $678 forward $386 $-1 #
point $-1 29.739224485536745 22.219295848322201 12.824157021401518 #
vertex $-1 $546 $681 #
straight-curve $-1 41.374553666798917 0 12.824157021401517 0 1 0 I I #
vertex $-1 $549 $682 #
point $-1 35.218477680930526 23.966606554445171 7.033617767729452 #
vertex $-1 $553 $683 #
point $-1 35.218477680930526 26.587572613629654 7.033617767729452 #
straight-curve $-1 -41.374553666798917 28.334883319752628 0 0 0 -1 I I #
point $-1 -41.374553666798917 -28.334883319752628 -12.824157021401517 #
straight-curve $-1 -41.374553666798917 0 -12.824157021401517 0 1 0 I I #
point $-1 -41.374553666798917 28.334883319752628 -12.824157021401517 #
coedge $-1 $652 $574 $575 $649 reversed $435 $-1 #
edge $-1 $650 -41.374553666798917 $583 41.374553666798917 $648 $684 forward 7 unknown #
vertex $-1 $654 $685 #
straight-curve $-1 41.374553666798917 -35.962558222670019 -0.84569596623153043 0 -1 0 I I #
coedge $-1 $577 $648 $579 $654 reversed $435 $-1 #
straight-curve $-1 0 -43.59023312558741 4.6217227403200267 1 0 0 I I #
edge $-1 $580 -2.7337093532757786 $650 2.7337093532757786 $579 $686 forward 7 unknown #
point $-1 41.374553666798917 -43.59023312558741 4.6217227403200267 #
straight-curve $-1 -41.374553666798917 -43.59023312558741 1.8880133870442481 0 0 -1 I I #
point $-1 -41.374553666798917 -43.59023312558741 -0.84569596623153043 #
point $-1 -41.374553666798917 -43.59023312558741 4.6217227403200267 #
straight-curve $-1 41.374553666798917 -8.8415167769306606 59.943132730834996 0 0 -1 I I #
point $-1 41.374553666798917 -8.8415167769306606 12.824157021401517 #
straight-curve $-1 41.374553666798917 -2.8918615206077209 3.7336413888214572 0 1 0 I I #
point $-1 41.374553666798917 -8.8415167769306606 3.7336413888214608 #
point $-1 34.516641565620027 -7.0942060708076795 6.9474431354653072 #
point $-1 34.516641565620027 -4.4732400116232078 6.9474431354653072 #
straight-curve $-1 41.374553666798917 1.5120874314869575 59.943132730834996 0 0 -1 I I #
point $-1 41.374553666798917 1.5120874314869575 12.824157021401517 #
straight-curve $-1 41.374553666798917 2.2849405836010881 3.7336413888214572 0 1 0 I I #
point $-1 41.374553666798917 1.5120874314869575 3.7336413888214608 #
point $-1 34.516641565620027 3.2593981376099386 6.9474431354653072 #
point $-1 34.516641565620027 5.8803641967944102 6.9474431354653072 #
straight-curve $-1 41.374553666798917 11.865691639904579 59.943132730834996 0 0 -1 I I #
point $-1 41.374553666798917 11.865691639904579 12.824157021401517 #
straight-curve $-1 41.374553666798917 7.4617426878098989 3.7336413888214572 0 1 0 I I #
point $-1 41.374553666798917 11.865691639904579 3.7336413888214608 #
point $-1 34.516641565620027 13.613002346027557 6.9474431354653072 #
point $-1 34.516641565620027 16.233968405212032 6.9474431354653072 #
straight-curve $-1 29.739224485536752 12.63854479201871 12.824157021401522 0 -1 0 I I #
edge $-1 $638 -41.374553666798917 $632 -29.739224485536745 $630 $687 forward 7 unknown #
point $-1 29.739224485536745 28.334883319752638 12.824157021401518 #
straight-curve $-1 41.374553666798917 28.334883319752628 0 0 0 -1 I I #
point $-1 41.374553666798917 28.334883319752628 12.824157021401517 #
point $-1 34.516641565620027 23.966606554445171 6.9474431354653072 #
point $-1 34.516641565620027 26.587572613629654 6.9474431354653072 #
straight-curve $-1 0 -43.59023312558741 -0.84569596623153043 -1 0 0 I I #
point $-1 41.374553666798917 -43.59023312558741 -0.84569596623153043 #
straight-curve $-1 41.374553666798917 -43.59023312558741 1.8880133870442481 0 0 -1 I I #
straight-curve $-1 0 28.334883319752628 12.824157021401517 -1 0 0 I I #
End-of-ACIS-data 