500 0 4 0           
7 Unknown 11 ACIS 5.0 NT 24 Thu Mar 25 21:10:56 1999 
-1 9.9999999999999995e-007 1e-010 
body $-1 $4 $-1 $5 #
body $-1 $6 $-1 $7 #
body $-1 $8 $-1 $9 #
body $-1 $10 $-1 $11 #
lump $-1 $-1 $12 $0 #
transform $-1 1 0 0 0 1 0 0 0 1 76.463515121921446 49.88971919449736 19.871081093151783 1 rotate no_reflect no_shear #
lump $-1 $-1 $13 $1 #
transform $-1 1 0 0 0 1 0 0 0 1 76.463515121921446 49.88971919449736 19.871081093151783 1 rotate no_reflect no_shear #
lump $-1 $-1 $14 $2 #
transform $-1 1 0 0 0 1 0 0 0 1 76.463515121921446 49.88971919449736 19.871081093151783 1 rotate no_reflect no_shear #
lump $-1 $-1 $15 $3 #
transform $-1 1 0 0 0 1 0 0 0 1 76.463515121921446 49.88971919449736 19.871081093151783 1 rotate no_reflect no_shear #
shell $-1 $-1 $-1 $16 $-1 $4 #
shell $-1 $-1 $-1 $17 $-1 $6 #
shell $-1 $-1 $-1 $18 $-1 $8 #
shell $-1 $-1 $-1 $19 $-1 $10 #
face $-1 $20 $21 $12 $-1 $22 forward single #
face $-1 $23 $24 $13 $-1 $25 forward single #
face $-1 $26 $27 $14 $-1 $28 reversed single #
face $-1 $29 $30 $15 $-1 $31 forward single #
face $-1 $32 $33 $12 $-1 $34 reversed single #
loop $-1 $-1 $35 $16 #
plane-surface $-1 0 0 19.871081093151783 0 0 1 1 0 0 forward_v I I I I #
face $-1 $36 $37 $13 $-1 $38 reversed single #
loop $-1 $-1 $39 $17 #
plane-surface $-1 0 -49.88971919449736 0 0 1 0 0 0 1 forward_v I I I I #
face $-1 $40 $41 $14 $-1 $42 reversed single #
loop $-1 $-1 $43 $18 #
plane-surface $-1 -55.978191050468475 120.87602169560506 184.78949752893564 -1 0 0 0 0.82903758062907751 0.55919289150049634 forward_v I I I I #
face $-1 $44 $45 $15 $-1 $46 forward single #
loop $-1 $47 $48 $19 #
cone-surface $-1 -66.220853086194964 48.225236356950418 17.844101344574334 0 -0.82903758062907751 -0.55919289150049634 0.5 0 0 1 I I 0 1 0.5 forward I I I I #
face $-1 $49 $50 $12 $-1 $51 reversed single #
loop $-1 $-1 $52 $20 #
plane-surface $-1 0 0 -19.871081093151783 0 0 1 1 0 0 forward_v I I I I #
coedge $-1 $53 $54 $55 $56 forward $21 $-1 #
face $-1 $57 $58 $13 $-1 $59 reversed single #
loop $-1 $-1 $60 $23 #
plane-surface $-1 0 0 -19.871081093151783 0 0 1 1 0 0 forward_v I I I I #
coedge $-1 $61 $62 $63 $64 forward $24 $-1 #
face $-1 $65 $66 $14 $-1 $67 reversed single #
loop $-1 $-1 $68 $26 #
plane-surface $-1 -66.220853086194964 -5.9062334705402151 99.273789298297274 0 0.82903758062907751 0.55919289150049634 1 0 0 forward_v I I I I #
coedge $-1 $69 $70 $71 $72 reversed $27 $-1 #
face $-1 $-1 $73 $15 $-1 $74 forward single #
loop $-1 $75 $76 $29 #
cone-surface $-1 -66.220853086194964 47.472569818440817 17.336421369819167 0 -0.82903758062907751 -0.55919289150049634 0.25 0 0 1 I I -0.70710678118654746 0.70710678118654746 0.25 forward I I I I #
loop $-1 $-1 $77 $19 #
coedge $-1 $48 $48 $78 $79 reversed $30 $-1 #
face $-1 $80 $81 $12 $-1 $82 reversed single #
loop $-1 $-1 $83 $32 #
plane-surface $-1 0 -49.88971919449736 0 0 1 0 0 0 1 forward_v I I I I #
coedge $-1 $84 $85 $86 $87 forward $33 $-1 #
coedge $-1 $88 $35 $89 $90 forward $21 $-1 #
coedge $-1 $35 $88 $91 $92 forward $21 $-1 #
coedge $-1 $93 $94 $35 $56 reversed $95 $-1 #
edge $-1 $96 -49.88971919449736 $97 49.88971919449736 $55 $98 forward 7 unknown #
face $-1 $99 $100 $13 $-1 $101 reversed single #
loop $-1 $-1 $102 $36 #
plane-surface $-1 -67.422254964739992 -74.482533501996613 0 0 1 0 0 0 1 forward_v I I I I #
coedge $-1 $103 $104 $62 $105 forward $37 $-1 #
coedge $-1 $106 $39 $107 $108 reversed $24 $-1 #
coedge $-1 $39 $106 $60 $105 reversed $24 $-1 #
coedge $-1 $109 $110 $39 $64 reversed $100 $-1 #
edge $-1 $111 -19.871081093151783 $112 19.871081093151783 $63 $113 forward 7 unknown #
face $-1 $114 $115 $14 $-1 $116 forward single #
loop $-1 $-1 $117 $40 #
plane-surface $-1 -76.463515121921446 0 0 1 0 0 0 0 -1 forward_v I I I I #
coedge $-1 $118 $119 $120 $121 reversed $41 $-1 #
coedge $-1 $70 $43 $122 $123 reversed $27 $-1 #
coedge $-1 $43 $69 $118 $124 reversed $27 $-1 #
coedge $-1 $120 $125 $43 $72 forward $126 $-1 #
edge $-1 $127 72.523667671316034 $128 75.841863664710814 $71 $129 forward 7 unknown #
loop $-1 $-1 $78 $44 #
plane-surface $-1 -66.220853086194964 -5.9062334705402151 99.273789298297274 0 0.82903758062907751 0.55919289150049634 1 0 0 forward_v I I I I #
loop $-1 $-1 $130 $29 #
coedge $-1 $76 $76 $77 $131 reversed $45 $-1 #
coedge $-1 $77 $77 $76 $131 forward $47 $-1 #
coedge $-1 $78 $78 $48 $79 forward $73 $-1 #
edge $-1 $132 7.6694473457502301e-015 $132 6.2831853071796084 $78 $133 forward 7 unknown #
face $-1 $134 $135 $12 $-1 $136 reversed single #
loop $-1 $-1 $137 $49 #
plane-surface $-1 -76.463515121921446 0 0 1 0 0 0 0 -1 forward_v I I I I #
coedge $-1 $138 $91 $139 $140 forward $50 $-1 #
coedge $-1 $141 $52 $138 $142 forward $33 $-1 #
coedge $-1 $52 $141 $143 $144 forward $33 $-1 #
coedge $-1 $94 $93 $52 $87 reversed $95 $-1 #
edge $-1 $145 -49.88971919449736 $146 49.88971919449736 $86 $147 forward 7 unknown #
coedge $-1 $54 $53 $148 $149 forward $21 $-1 #
coedge $-1 $150 $151 $53 $90 reversed $135 $-1 #
edge $-1 $97 -76.463515121921446 $152 76.463515121921446 $89 $153 forward 7 unknown #
coedge $-1 $83 $154 $54 $92 reversed $50 $-1 #
edge $-1 $155 -76.463515121921446 $96 76.463515121921446 $91 $156 forward 7 unknown #
coedge $-1 $86 $55 $154 $157 forward $95 $-1 #
coedge $-1 $55 $86 $150 $158 reversed $95 $-1 #
loop $-1 $-1 $93 $134 #
vertex $-1 $56 $159 #
vertex $-1 $56 $160 #
straight-curve $-1 76.463515121921446 0 19.871081093151783 0 1 0 I I #
face $-1 $161 $162 $13 $-1 $163 reversed single #
loop $-1 $-1 $63 $57 #
plane-surface $-1 -73.059621300804622 -62.186126348246987 0 1 0 0 0 0 -1 forward_v I I I I #
coedge $-1 $164 $165 $166 $167 forward $58 $-1 #
coedge $-1 $168 $60 $169 $170 forward $37 $-1 #
coedge $-1 $60 $168 $109 $171 forward $37 $-1 #
edge $-1 $111 -73.059621300804622 $172 -61.784888628675361 $60 $173 forward 7 unknown #
coedge $-1 $62 $61 $174 $175 forward $24 $-1 #
coedge $-1 $176 $177 $61 $108 forward $178 $-1 #
edge $-1 $179 61.784888628675361 $112 73.059621300804622 $107 $180 forward 7 unknown #
coedge $-1 $166 $63 $104 $171 reversed $100 $-1 #
coedge $-1 $63 $166 $176 $181 reversed $100 $-1 #
vertex $-1 $105 $182 #
vertex $-1 $181 $183 #
straight-curve $-1 -73.059621300804622 -49.88971919449736 0 0 0 1 I I #
face $-1 $-1 $126 $14 $-1 $184 reversed single #
loop $-1 $-1 $122 $65 #
plane-surface $-1 0 0 19.871081093151783 0 0 1 1 0 0 forward_v I I I I #
coedge $-1 $185 $186 $119 $187 forward $66 $-1 #
coedge $-1 $188 $68 $70 $124 forward $41 $-1 #
coedge $-1 $68 $188 $117 $187 reversed $41 $-1 #
coedge $-1 $189 $71 $68 $121 forward $126 $-1 #
edge $-1 $128 22.867764507370993 $190 43.353088578823964 $120 $191 forward 7 unknown #
coedge $-1 $192 $193 $69 $123 forward $115 $-1 #
edge $-1 $194 -12.786443041694362 $127 -10.548291653305171 $122 $195 forward 7 unknown #
edge $-1 $128 -99.779438388994706 $194 -95.776970864088398 $70 $196 forward 7 unknown #
coedge $-1 $71 $189 $192 $197 reversed $126 $-1 #
loop $-1 $-1 $120 $114 #
vertex $-1 $197 $198 #
vertex $-1 $72 $199 #
straight-curve $-1 -55.978191050468475 49.88971919449736 92.39474876446782 0 0 -1 I I #
coedge $-1 $130 $130 $-1 $200 reversed $75 $-1 #
edge $-1 $201 0 $201 6.2831853071796004 $76 $202 forward 7 unknown #
vertex $-1 $79 $203 #
ellipse-curve $-1 -66.220853086194964 48.770643500302768 18.211983096454389 0 0.82903758062907751 0.55919289150049634 0.5 0 0 1 I I #
face $-1 $-1 $95 $12 $-1 $204 reversed single #
loop $-1 $-1 $150 $80 #
plane-surface $-1 0 49.88971919449736 0 0 -1 0 0 0 -1 forward_v I I I I #
coedge $-1 $205 $148 $151 $206 forward $81 $-1 #
coedge $-1 $154 $83 $84 $142 reversed $50 $-1 #
coedge $-1 $148 $205 $83 $140 reversed $81 $-1 #
edge $-1 $155 -19.871081093151783 $207 19.871081093151783 $139 $208 forward 7 unknown #
coedge $-1 $85 $84 $205 $209 forward $33 $-1 #
edge $-1 $146 -76.463515121921446 $207 76.463515121921446 $138 $210 forward 7 unknown #
coedge $-1 $151 $150 $85 $144 reversed $135 $-1 #
edge $-1 $211 -76.463515121921446 $145 76.463515121921446 $143 $212 forward 7 unknown #
vertex $-1 $87 $213 #
vertex $-1 $157 $214 #
straight-curve $-1 76.463515121921446 0 -19.871081093151783 0 -1 0 I I #
coedge $-1 $137 $139 $88 $149 reversed $81 $-1 #
edge $-1 $152 -49.88971919449736 $155 49.88971919449736 $148 $215 forward 7 unknown #
coedge $-1 $143 $89 $94 $158 forward $135 $-1 #
coedge $-1 $89 $143 $137 $206 reversed $135 $-1 #
vertex $-1 $90 $216 #
straight-curve $-1 0 49.88971919449736 19.871081093151783 -1 0 0 I I #
coedge $-1 $91 $138 $93 $157 reversed $50 $-1 #
vertex $-1 $149 $217 #
straight-curve $-1 0 -49.88971919449736 19.871081093151783 1 0 0 I I #
edge $-1 $96 -19.871081093151783 $146 19.871081093151783 $93 $218 forward 7 unknown #
edge $-1 $97 -19.871081093151783 $145 19.871081093151783 $94 $219 forward 7 unknown #
point $-1 76.463515121921446 -49.88971919449736 19.871081093151783 #
point $-1 76.463515121921446 49.88971919449736 19.871081093151783 #
face $-1 $-1 $178 $13 $-1 $220 forward single #
loop $-1 $-1 $221 $99 #
plane-surface $-1 -61.784888628675361 -62.186126348246987 0 -1 0 0 0 0 1 forward_v I I I I #
coedge $-1 $222 $102 $168 $223 reversed $58 $-1 #
coedge $-1 $102 $222 $224 $225 reversed $58 $-1 #
coedge $-1 $110 $109 $102 $167 reversed $100 $-1 #
edge $-1 $226 -19.871081093151783 $227 19.871081093151783 $166 $228 forward 7 unknown #
coedge $-1 $104 $103 $164 $223 forward $37 $-1 #
coedge $-1 $174 $221 $103 $170 reversed $162 $-1 #
edge $-1 $172 -12.296407153749627 $229 12.296407153749627 $169 $230 forward 7 unknown #
edge $-1 $227 -12.296407153749627 $111 12.296407153749627 $109 $231 forward 7 unknown #
vertex $-1 $170 $232 #
straight-curve $-1 0 -49.88971919449736 -19.871081093151783 1 0 0 I I #
coedge $-1 $233 $169 $106 $175 reversed $162 $-1 #
edge $-1 $179 -19.871081093151783 $172 19.871081093151783 $174 $234 forward 7 unknown #
coedge $-1 $224 $107 $110 $181 forward $178 $-1 #
coedge $-1 $107 $224 $233 $235 forward $178 $-1 #
loop $-1 $-1 $107 $161 #
vertex $-1 $108 $236 #
straight-curve $-1 0 -49.88971919449736 19.871081093151783 -1 0 0 I I #
edge $-1 $112 -12.296407153749627 $226 12.296407153749627 $110 $237 forward 7 unknown #
point $-1 -73.059621300804622 -49.88971919449736 -19.871081093151783 #
point $-1 -73.059621300804622 -49.88971919449736 19.871081093151783 #
plane-surface $-1 0 49.88971919449736 0 0 -1 0 0 0 -1 forward_v I I I I #
coedge $-1 $186 $117 $238 $239 reversed $66 $-1 #
coedge $-1 $117 $185 $189 $240 forward $66 $-1 #
edge $-1 $190 -56.97722545298992 $241 -52.974757928083605 $117 $242 forward 7 unknown #
coedge $-1 $119 $118 $193 $243 reversed $41 $-1 #
coedge $-1 $125 $120 $186 $240 reversed $126 $-1 #
vertex $-1 $187 $244 #
straight-curve $-1 -33.110426543097482 49.88971919449736 16.552885099756999 -1 0 0 I I #
coedge $-1 $238 $122 $125 $197 forward $115 $-1 #
coedge $-1 $122 $238 $188 $243 forward $115 $-1 #
vertex $-1 $123 $245 #
straight-curve $-1 -55.978191050468475 60.438010847802531 19.871081093151787 0 1 0 I I #
straight-curve $-1 -55.978191050468475 -5.9062334705402151 99.273789298297274 0 -0.55919289150049634 0.82903758062907751 I I #
edge $-1 $127 55.978191050468475 $246 76.463515121921446 $125 $247 forward 7 unknown #
point $-1 -55.978191050468475 49.88971919449736 19.871081093151783 #
point $-1 -55.978191050468475 49.88971919449736 16.552885099757006 #
edge $-1 $248 1 $248 0 $130 $-1 forward 7 unknown #
vertex $-1 $131 $249 #
ellipse-curve $-1 -66.220853086194964 47.67982921359809 17.476219592694292 0 0.82903758062907751 0.55919289150049634 0.5 0 0 1 I I #
point $-1 -65.720853086194964 48.770643500302754 18.211983096454375 #
plane-surface $-1 76.463515121921446 0 0 -1 0 0 0 0 1 forward_v I I I I #
coedge $-1 $139 $137 $141 $209 reversed $81 $-1 #
edge $-1 $152 -19.871081093151783 $211 19.871081093151783 $151 $250 forward 7 unknown #
vertex $-1 $209 $251 #
straight-curve $-1 -76.463515121921446 -49.88971919449736 0 0 0 -1 I I #
edge $-1 $207 -49.88971919449736 $211 49.88971919449736 $205 $252 forward 7 unknown #
straight-curve $-1 0 -49.88971919449736 -19.871081093151783 -1 0 0 I I #
vertex $-1 $144 $253 #
straight-curve $-1 0 49.88971919449736 -19.871081093151783 1 0 0 I I #
point $-1 76.463515121921446 49.88971919449736 -19.871081093151783 #
point $-1 76.463515121921446 -49.88971919449736 -19.871081093151783 #
straight-curve $-1 -76.463515121921446 0 19.871081093151783 0 -1 0 I I #
point $-1 -76.463515121921446 49.88971919449736 19.871081093151783 #
point $-1 -76.463515121921446 -49.88971919449736 19.871081093151783 #
straight-curve $-1 76.463515121921446 -49.88971919449736 0 0 0 -1 I I #
straight-curve $-1 76.463515121921446 49.88971919449736 0 0 0 -1 I I #
plane-surface $-1 0 0 19.871081093151783 0 0 1 1 0 0 forward_v I I I I #
coedge $-1 $169 $233 $222 $254 forward $162 $-1 #
coedge $-1 $165 $164 $221 $254 reversed $58 $-1 #
edge $-1 $229 -5.6373663360646304 $227 5.6373663360646304 $164 $255 forward 7 unknown #
coedge $-1 $177 $176 $165 $225 forward $178 $-1 #
edge $-1 $226 -5.6373663360646304 $256 5.6373663360646304 $165 $257 forward 7 unknown #
vertex $-1 $181 $258 #
vertex $-1 $171 $259 #
straight-curve $-1 -73.059621300804622 -74.482533501996613 0 0 0 -1 I I #
vertex $-1 $254 $260 #
straight-curve $-1 -61.784888628675361 -62.186126348246987 -19.871081093151783 0 -1 0 I I #
straight-curve $-1 -73.059621300804622 -62.186126348246987 -19.871081093151783 0 1 0 I I #
point $-1 -61.784888628675361 -49.88971919449736 -19.871081093151783 #
coedge $-1 $221 $174 $177 $235 reversed $162 $-1 #
straight-curve $-1 -61.784888628675361 -49.88971919449736 0 0 0 -1 I I #
edge $-1 $256 -12.296407153749627 $179 12.296407153749627 $233 $261 forward 7 unknown #
point $-1 -61.784888628675361 -49.88971919449736 19.871081093151783 #
straight-curve $-1 -73.059621300804622 -62.186126348246987 19.871081093151783 0 -1 0 I I #
coedge $-1 $193 $192 $185 $239 forward $115 $-1 #
edge $-1 $246 -49.88971919449736 $241 -47.651567806108169 $185 $262 forward 7 unknown #
edge $-1 $246 -19.871081093151783 $190 -16.552885099757003 $189 $263 forward 7 unknown #
vertex $-1 $187 $264 #
straight-curve $-1 -76.463515121921446 18.028459743764248 63.78914624026126 0 -0.55919289150049634 0.82903758062907751 I I #
edge $-1 $241 -43.353088578823964 $194 -22.867764507370993 $193 $265 forward 7 unknown #
point $-1 -76.463515121921446 49.88971919449736 16.552885099757003 #
point $-1 -55.978191050468475 47.651567806108169 19.871081093151787 #
vertex $-1 $197 $266 #
straight-curve $-1 0 49.88971919449736 19.871081093151783 -1 0 0 I I #
vertex $-1 $200 $267 #
point $-1 -65.720853086194964 47.67982921359809 17.476219592694292 #
straight-curve $-1 -76.463515121921446 49.88971919449736 0 0 0 -1 I I #
point $-1 -76.463515121921446 -49.88971919449736 -19.871081093151783 #
straight-curve $-1 -76.463515121921446 0 -19.871081093151783 0 1 0 I I #
point $-1 -76.463515121921446 49.88971919449736 -19.871081093151783 #
edge $-1 $256 -19.871081093151783 $229 19.871081093151783 $221 $268 forward 7 unknown #
straight-curve $-1 -67.422254964739992 -74.482533501996613 -19.871081093151783 -1 0 0 I I #
vertex $-1 $235 $269 #
straight-curve $-1 -67.422254964739992 -74.482533501996613 19.871081093151783 1 0 0 I I #
point $-1 -73.059621300804622 -74.482533501996613 19.871081093151783 #
point $-1 -73.059621300804622 -74.482533501996613 -19.871081093151783 #
point $-1 -61.784888628675361 -74.482533501996613 -19.871081093151783 #
straight-curve $-1 -61.784888628675361 -62.186126348246987 19.871081093151783 0 1 0 I I #
straight-curve $-1 -76.463515121921446 0 19.871081093151783 0 -1 0 I I #
straight-curve $-1 -76.463515121921446 49.88971919449736 0 0 0 -1 I I #
point $-1 -76.463515121921446 47.651567806108169 19.871081093151787 #
straight-curve $-1 -33.110426543097482 47.651567806108169 19.871081093151794 1 0 0 I I #
point $-1 -76.463515121921446 49.88971919449736 19.871081093151783 #
point $-1 -66.220853086194964 47.265310423283545 17.196623146944042 #
straight-curve $-1 -61.784888628675361 -74.482533501996613 0 0 0 -1 I I #
point $-1 -61.784888628675361 -74.482533501996613 19.871081093151783 #
End-of-ACIS-data 