500 0 12 0           
7 Unknown 11 ACIS 5.0 NT 24 Fri Mar 26 18:09:49 1999 
-1 9.9999999999999995e-007 1e-010 
body $-1 $12 $-1 $13 #
body $-1 $14 $-1 $15 #
body $-1 $16 $-1 $17 #
body $-1 $18 $-1 $19 #
body $-1 $20 $-1 $21 #
body $-1 $22 $-1 $23 #
body $-1 $24 $-1 $25 #
body $-1 $26 $-1 $27 #
body $-1 $28 $-1 $29 #
body $-1 $30 $-1 $31 #
body $-1 $32 $-1 $33 #
body $-1 $34 $-1 $35 #
lump $-1 $-1 $36 $0 #
transform $-1 1 0 0 0 1 0 0 0 1 59.346293527024145 28.634084029772222 8.344755248179597 1 rotate no_reflect no_shear #
lump $-1 $-1 $37 $1 #
transform $-1 1 0 0 0 1 0 0 0 1 59.346293527024145 28.634084029772222 8.344755248179597 1 rotate no_reflect no_shear #
lump $-1 $-1 $38 $2 #
transform $-1 1 0 0 0 1 0 0 0 1 59.346293527024145 28.634084029772222 8.344755248179597 1 rotate no_reflect no_shear #
lump $-1 $-1 $39 $3 #
transform $-1 1 0 0 0 1 0 0 0 1 59.346293527024145 28.634084029772222 8.344755248179597 1 rotate no_reflect no_shear #
lump $-1 $-1 $40 $4 #
transform $-1 1 0 0 0 1 0 0 0 1 59.346293527024145 28.634084029772222 8.344755248179597 1 rotate no_reflect no_shear #
lump $-1 $-1 $41 $5 #
transform $-1 1 0 0 0 1 0 0 0 1 59.346293527024145 28.634084029772222 8.344755248179597 1 rotate no_reflect no_shear #
lump $-1 $-1 $42 $6 #
transform $-1 1 0 0 0 1 0 0 0 1 59.346293527024145 28.634084029772222 8.344755248179597 1 rotate no_reflect no_shear #
lump $-1 $-1 $43 $7 #
transform $-1 1 0 0 0 1 0 0 0 1 59.346293527024145 28.634084029772222 8.344755248179597 1 rotate no_reflect no_shear #
lump $-1 $-1 $44 $8 #
transform $-1 1 0 0 0 1 0 0 0 1 59.346293527024145 28.634084029772222 8.344755248179597 1 rotate no_reflect no_shear #
lump $-1 $-1 $45 $9 #
transform $-1 1 0 0 0 1 0 0 0 1 59.346293527024145 28.634084029772222 8.344755248179597 1 rotate no_reflect no_shear #
lump $-1 $-1 $46 $10 #
transform $-1 1 0 0 0 1 0 0 0 1 59.346293527024145 28.634084029772222 8.344755248179597 1 rotate no_reflect no_shear #
lump $-1 $-1 $47 $11 #
transform $-1 1 0 0 0 1 0 0 0 1 59.346293527024145 28.634084029772222 8.344755248179597 1 rotate no_reflect no_shear #
shell $-1 $-1 $-1 $48 $-1 $12 #
shell $-1 $-1 $-1 $49 $-1 $14 #
shell $-1 $-1 $-1 $50 $-1 $16 #
shell $-1 $-1 $-1 $51 $-1 $18 #
shell $-1 $-1 $-1 $52 $-1 $20 #
shell $-1 $-1 $-1 $53 $-1 $22 #
shell $-1 $-1 $-1 $54 $-1 $24 #
shell $-1 $-1 $-1 $55 $-1 $26 #
shell $-1 $-1 $-1 $56 $-1 $28 #
shell $-1 $-1 $-1 $57 $-1 $30 #
shell $-1 $-1 $-1 $58 $-1 $32 #
shell $-1 $-1 $-1 $59 $-1 $34 #
face $-1 $60 $61 $36 $-1 $62 forward single #
face $-1 $63 $64 $37 $-1 $65 reversed single #
face $-1 $66 $67 $38 $-1 $68 reversed single #
face $-1 $69 $70 $39 $-1 $71 forward single #
face $-1 $72 $73 $40 $-1 $74 forward single #
face $-1 $75 $76 $41 $-1 $77 reversed single #
face $-1 $78 $79 $42 $-1 $80 forward single #
face $-1 $81 $82 $43 $-1 $83 forward single #
face $-1 $84 $85 $44 $-1 $86 reversed single #
face $-1 $87 $88 $45 $-1 $89 forward single #
face $-1 $90 $91 $46 $-1 $92 reversed single #
face $-1 $93 $94 $47 $-1 $95 forward single #
face $-1 $96 $97 $36 $-1 $98 reversed single #
loop $-1 $-1 $99 $48 #
plane-surface $-1 0 0 8.344755248179597 0 0 1 1 0 0 forward_v I I I I #
face $-1 $100 $101 $37 $-1 $102 reversed single #
loop $-1 $-1 $103 $49 #
plane-surface $-1 0 -25.394222044880451 5.344755248179597 0 0 1 1 0 0 forward_v I I I I #
face $-1 $104 $105 $38 $-1 $106 reversed single #
loop $-1 $-1 $107 $50 #
plane-surface $-1 97.105830050333296 0.44892589268189731 167.55553273132628 0 -1 0 -0.84804810408105047 0 -0.52991925155115449 forward_v I I I I #
face $-1 $108 $109 $39 $-1 $110 forward single #
loop $-1 $111 $112 $51 #
cone-surface $-1 57.565136760074417 -4.0070126049390815 5.9079292059712838 -0.84804810408105047 0 -0.52991925155115449 0.13247981288778862 0 -0.21201202602026262 1 I I 0 1 0.25 forward I I I I #
face $-1 $113 $114 $40 $-1 $115 forward single #
loop $-1 $116 $117 $52 #
cone-surface $-1 57.565136760074417 -1.3334495063664953 5.9079292059712838 -0.84804810408105047 0 -0.52991925155115449 0.13247981288778862 0 -0.21201202602026262 1 I I 0 1 0.25 forward I I I I #
face $-1 $118 $119 $41 $-1 $120 reversed single #
loop $-1 $-1 $121 $53 #
plane-surface $-1 97.105830050333296 12.269111973771009 167.55553273132628 0 -1 0 -0.84804810408105047 0 -0.52991925155115449 forward_v I I I I #
face $-1 $122 $123 $42 $-1 $124 forward single #
loop $-1 $125 $126 $54 #
cone-surface $-1 57.565136760074417 7.8131734761500304 5.9079292059712838 -0.84804810408105047 0 -0.52991925155115449 0.13247981288778862 0 -0.21201202602026262 1 I I 0 1 0.25 forward I I I I #
face $-1 $127 $128 $43 $-1 $129 forward single #
loop $-1 $130 $131 $55 #
cone-surface $-1 57.565136760074417 10.486736574722617 5.9079292059712838 -0.84804810408105047 0 -0.52991925155115449 0.13247981288778862 0 -0.21201202602026262 1 I I 0 1 0.25 forward I I I I #
face $-1 $132 $133 $44 $-1 $134 reversed single #
loop $-1 $-1 $135 $56 #
plane-surface $-1 -123.99091045055181 -7.4980126809487384 99.846065906250217 0 1 0 -0.54463904215088732 0 0.83867056331134215 forward_v I I I I #
face $-1 $136 $137 $45 $-1 $138 forward single #
loop $-1 $139 $140 $57 #
cone-surface $-1 -51.759976648734181 -4.4753258520205215 2.176840942640204 0.54463904215088732 0 -0.83867056331134215 1.2580058449670133 0 0.81695856322633098 1 I I 0 1 1.5 forward I I I I #
face $-1 $141 $142 $46 $-1 $143 reversed single #
loop $-1 $-1 $144 $58 #
plane-surface $-1 -123.99091045055181 7.9323629928758397 99.846065906250217 0 1 0 -0.54463904215088732 0 0.83867056331134215 forward_v I I I I #
face $-1 $145 $146 $47 $-1 $147 forward single #
loop $-1 $148 $149 $59 #
cone-surface $-1 -51.759976648734181 10.955049821804057 2.176840942640204 0.54463904215088732 0 -0.83867056331134215 1.2580058449670133 0 0.81695856322633098 1 I I 0 1 1.5 forward I I I I #
face $-1 $150 $151 $36 $-1 $152 reversed single #
loop $-1 $-1 $153 $60 #
plane-surface $-1 0 0 -8.344755248179597 0 0 1 1 0 0 forward_v I I I I #
coedge $-1 $154 $155 $156 $157 forward $61 $-1 #
face $-1 $158 $159 $37 $-1 $160 reversed single #
loop $-1 $-1 $161 $63 #
plane-surface $-1 0 -22.154360059988679 6.844755248179597 0 -1 0 0 0 -1 forward_v I I I I #
coedge $-1 $162 $163 $164 $165 reversed $64 $-1 #
face $-1 $166 $167 $38 $-1 $168 reversed single #
loop $-1 $-1 $169 $66 #
plane-surface $-1 -3.5511933693273932 -2.6702310556527884 104.65804583497476 0.84804810408105047 0 0.52991925155115449 0.52991925155115449 0 -0.84804810408105047 forward_v I I I I #
coedge $-1 $170 $171 $172 $173 reversed $67 $-1 #
face $-1 $-1 $174 $39 $-1 $175 forward single #
loop $-1 $176 $177 $69 #
cone-surface $-1 57.035106695023757 -4.0070126049390815 5.5767296737518119 -0.84804810408105047 0 -0.52991925155115449 0.066239906443894311 0 -0.10600601301013131 1 I I -0.70710678118654746 0.70710678118654746 0.125 forward I I I I #
loop $-1 $-1 $178 $51 #
coedge $-1 $112 $112 $179 $180 reversed $70 $-1 #
face $-1 $-1 $181 $40 $-1 $182 forward single #
loop $-1 $183 $184 $72 #
cone-surface $-1 57.035106695023757 -1.3334495063664953 5.5767296737518119 -0.84804810408105047 0 -0.52991925155115449 0.066239906443894311 0 -0.10600601301013131 1 I I -0.70710678118654746 0.70710678118654746 0.125 forward I I I I #
loop $-1 $-1 $185 $52 #
coedge $-1 $117 $117 $186 $187 reversed $73 $-1 #
face $-1 $188 $189 $41 $-1 $190 reversed single #
loop $-1 $-1 $191 $75 #
plane-surface $-1 -3.5511933693273932 9.1499550254363236 104.65804583497476 0.84804810408105047 0 0.52991925155115449 0.52991925155115449 0 -0.84804810408105047 forward_v I I I I #
coedge $-1 $192 $193 $194 $195 reversed $76 $-1 #
face $-1 $-1 $196 $42 $-1 $197 forward single #
loop $-1 $198 $199 $78 #
cone-surface $-1 57.035106695023757 7.8131734761500304 5.5767296737518119 -0.84804810408105047 0 -0.52991925155115449 0.066239906443894311 0 -0.10600601301013131 1 I I -0.70710678118654746 0.70710678118654746 0.125 forward I I I I #
loop $-1 $-1 $200 $54 #
coedge $-1 $126 $126 $201 $202 reversed $79 $-1 #
face $-1 $-1 $203 $43 $-1 $204 forward single #
loop $-1 $205 $206 $81 #
cone-surface $-1 57.035106695023757 10.486736574722617 5.5767296737518119 -0.84804810408105047 0 -0.52991925155115449 0.066239906443894311 0 -0.10600601301013131 1 I I -0.70710678118654746 0.70710678118654746 0.125 forward I I I I #
loop $-1 $-1 $207 $55 #
coedge $-1 $131 $131 $208 $209 reversed $82 $-1 #
face $-1 $210 $211 $44 $-1 $212 reversed single #
loop $-1 $-1 $213 $84 #
plane-surface $-1 -59.346293527024145 -4.4753258520205215 0.30208706075102043 -0.54463904215088732 0 0.83867056331134215 0.83867056331134215 0 0.54463904215088732 forward_v I I I I #
coedge $-1 $214 $215 $216 $217 reversed $85 $-1 #
face $-1 $-1 $218 $45 $-1 $219 forward single #
loop $-1 $220 $221 $87 #
cone-surface $-1 -49.957491852187424 -4.4753258520205215 -0.59874219166840614 0.54463904215088732 0 -0.83867056331134215 0.62900292248350664 0 0.40847928161316549 1 I I -0.70710678118654757 0.70710678118654757 0.75 forward I I I I #
loop $-1 $-1 $222 $57 #
coedge $-1 $140 $140 $223 $224 reversed $88 $-1 #
face $-1 $225 $226 $46 $-1 $227 reversed single #
loop $-1 $-1 $228 $90 #
plane-surface $-1 -59.346293527024145 10.955049821804057 0.30208706075102043 -0.54463904215088732 0 0.83867056331134215 0.83867056331134215 0 0.54463904215088732 forward_v I I I I #
coedge $-1 $229 $230 $231 $232 reversed $91 $-1 #
face $-1 $-1 $233 $47 $-1 $234 forward single #
loop $-1 $235 $236 $93 #
cone-surface $-1 -49.957491852187424 10.955049821804057 -0.59874219166840614 0.54463904215088732 0 -0.83867056331134215 0.62900292248350664 0 0.40847928161316549 1 I I -0.70710678118654757 0.70710678118654757 0.75 forward I I I I #
loop $-1 $-1 $237 $59 #
coedge $-1 $149 $149 $238 $239 reversed $94 $-1 #
face $-1 $240 $241 $36 $-1 $242 reversed single #
loop $-1 $-1 $243 $96 #
plane-surface $-1 0 -28.634084029772222 0 0 1 0 0 0 1 forward_v I I I I #
coedge $-1 $244 $245 $246 $247 forward $97 $-1 #
coedge $-1 $248 $99 $249 $250 forward $61 $-1 #
coedge $-1 $99 $248 $251 $252 forward $61 $-1 #
coedge $-1 $253 $254 $99 $157 reversed $255 $-1 #
edge $-1 $256 -28.634084029772222 $257 28.634084029772222 $156 $258 forward 7 unknown #
face $-1 $259 $260 $37 $-1 $261 reversed single #
loop $-1 $-1 $262 $100 #
plane-surface $-1 -59.346293527024145 0 0 1 0 0 0 0 -1 forward_v I I I I #
coedge $-1 $263 $264 $265 $266 reversed $101 $-1 #
coedge $-1 $267 $103 $268 $269 reversed $64 $-1 #
coedge $-1 $103 $267 $263 $270 forward $64 $-1 #
coedge $-1 $265 $271 $103 $165 forward $272 $-1 #
edge $-1 $273 -15.936973007331996 $274 -9.4572490375484541 $164 $275 forward 7 unknown #
face $-1 $276 $277 $38 $-1 $278 reversed single #
loop $-1 $-1 $279 $104 #
plane-surface $-1 97.105830050333296 -5.7893880039874741 167.55553273132628 0 1 0 0.84804810408105047 0 0.52991925155115449 forward_v I I I I #
coedge $-1 $280 $281 $282 $283 reversed $105 $-1 #
coedge $-1 $171 $107 $284 $285 reversed $67 $-1 #
coedge $-1 $107 $170 $280 $286 reversed $67 $-1 #
coedge $-1 $282 $287 $107 $173 forward $288 $-1 #
edge $-1 $289 -10.793378501857497 $290 -8.0791130720390214 $172 $291 forward 7 unknown #
loop $-1 $-1 $179 $108 #
plane-surface $-1 -3.5511933693273932 -2.6702310556527884 104.65804583497476 0.84804810408105047 0 0.52991925155115449 0.52991925155115449 0 -0.84804810408105047 forward_v I I I I #
loop $-1 $-1 $292 $69 #
coedge $-1 $177 $177 $178 $293 reversed $109 $-1 #
coedge $-1 $178 $178 $177 $293 forward $111 $-1 #
coedge $-1 $179 $179 $112 $180 forward $174 $-1 #
edge $-1 $294 0 $294 6.2831853071796004 $179 $295 forward 7 unknown #
loop $-1 $-1 $186 $113 #
plane-surface $-1 -3.5511933693273932 -2.6702310556527884 104.65804583497476 0.84804810408105047 0 0.52991925155115449 0.52991925155115449 0 -0.84804810408105047 forward_v I I I I #
loop $-1 $-1 $296 $72 #
coedge $-1 $184 $184 $185 $297 reversed $114 $-1 #
coedge $-1 $185 $185 $184 $297 forward $116 $-1 #
coedge $-1 $186 $186 $117 $187 forward $181 $-1 #
edge $-1 $298 0 $298 6.2831853071796004 $186 $299 forward 7 unknown #
face $-1 $300 $301 $41 $-1 $302 reversed single #
loop $-1 $-1 $303 $118 #
plane-surface $-1 97.105830050333296 6.0307980771016378 167.55553273132628 0 1 0 0.84804810408105047 0 0.52991925155115449 forward_v I I I I #
coedge $-1 $304 $305 $306 $307 reversed $119 $-1 #
coedge $-1 $193 $121 $308 $309 reversed $76 $-1 #
coedge $-1 $121 $192 $304 $310 reversed $76 $-1 #
coedge $-1 $306 $311 $121 $195 forward $312 $-1 #
edge $-1 $313 -10.793378501857497 $314 -8.0791130720390214 $194 $315 forward 7 unknown #
loop $-1 $-1 $201 $122 #
plane-surface $-1 -3.5511933693273932 9.1499550254363236 104.65804583497476 0.84804810408105047 0 0.52991925155115449 0.52991925155115449 0 -0.84804810408105047 forward_v I I I I #
loop $-1 $-1 $316 $78 #
coedge $-1 $199 $199 $200 $317 reversed $123 $-1 #
coedge $-1 $200 $200 $199 $317 forward $125 $-1 #
coedge $-1 $201 $201 $126 $202 forward $196 $-1 #
edge $-1 $318 0 $318 6.2831853071796004 $201 $319 forward 7 unknown #
loop $-1 $-1 $208 $127 #
plane-surface $-1 -3.5511933693273932 9.1499550254363236 104.65804583497476 0.84804810408105047 0 0.52991925155115449 0.52991925155115449 0 -0.84804810408105047 forward_v I I I I #
loop $-1 $-1 $320 $81 #
coedge $-1 $206 $206 $207 $321 reversed $128 $-1 #
coedge $-1 $207 $207 $206 $321 forward $130 $-1 #
coedge $-1 $208 $208 $131 $209 forward $203 $-1 #
edge $-1 $322 0 $322 6.2831853071796004 $208 $323 forward 7 unknown #
face $-1 $324 $325 $44 $-1 $326 forward single #
loop $-1 $-1 $327 $132 #
plane-surface $-1 -123.99091045055181 -1.4526390230923045 99.846065906250217 0 -1 0 0.54463904215088732 0 -0.83867056331134215 forward_v I I I I #
coedge $-1 $328 $329 $330 $331 reversed $133 $-1 #
coedge $-1 $215 $135 $332 $333 reversed $85 $-1 #
coedge $-1 $135 $214 $328 $334 reversed $85 $-1 #
coedge $-1 $330 $335 $135 $217 forward $325 $-1 #
edge $-1 $336 2.6491616982517598 $337 15.033784424964495 $216 $338 forward 7 unknown #
loop $-1 $-1 $223 $136 #
plane-surface $-1 -59.346293527024145 -4.4753258520205215 0.30208706075102043 -0.54463904215088732 0 0.83867056331134215 0.83867056331134215 0 0.54463904215088732 forward_v I I I I #
loop $-1 $-1 $339 $87 #
coedge $-1 $221 $221 $222 $340 reversed $137 $-1 #
coedge $-1 $222 $222 $221 $340 forward $139 $-1 #
coedge $-1 $223 $223 $140 $224 forward $218 $-1 #
edge $-1 $341 0 $341 6.2831853071796004 $223 $342 forward 7 unknown #
face $-1 $343 $344 $46 $-1 $345 forward single #
loop $-1 $-1 $346 $141 #
plane-surface $-1 -123.99091045055181 13.977736650732274 99.846065906250217 0 -1 0 0.54463904215088732 0 -0.83867056331134215 forward_v I I I I #
coedge $-1 $347 $348 $349 $350 reversed $142 $-1 #
coedge $-1 $230 $144 $351 $352 reversed $91 $-1 #
coedge $-1 $144 $229 $347 $353 reversed $91 $-1 #
coedge $-1 $349 $354 $144 $232 forward $344 $-1 #
edge $-1 $355 2.6491616982517598 $356 15.033784424964495 $231 $357 forward 7 unknown #
loop $-1 $-1 $238 $145 #
plane-surface $-1 -59.346293527024145 10.955049821804057 0.30208706075102043 -0.54463904215088732 0 0.83867056331134215 0.83867056331134215 0 0.54463904215088732 forward_v I I I I #
loop $-1 $-1 $358 $93 #
coedge $-1 $236 $236 $237 $359 reversed $146 $-1 #
coedge $-1 $237 $237 $236 $359 forward $148 $-1 #
coedge $-1 $238 $238 $149 $239 forward $233 $-1 #
edge $-1 $360 0 $360 6.2831853071796004 $238 $361 forward 7 unknown #
face $-1 $362 $363 $36 $-1 $364 reversed single #
loop $-1 $-1 $365 $150 #
plane-surface $-1 -59.346293527024145 0 0 1 0 0 0 0 -1 forward_v I I I I #
coedge $-1 $366 $251 $367 $368 forward $151 $-1 #
coedge $-1 $369 $153 $366 $370 forward $97 $-1 #
coedge $-1 $153 $369 $371 $372 forward $97 $-1 #
coedge $-1 $254 $253 $153 $247 reversed $255 $-1 #
edge $-1 $373 -28.634084029772222 $374 28.634084029772222 $246 $375 forward 7 unknown #
coedge $-1 $155 $154 $376 $377 forward $61 $-1 #
coedge $-1 $378 $379 $154 $250 reversed $363 $-1 #
edge $-1 $257 -59.346293527024145 $380 59.346293527024145 $249 $381 forward 7 unknown #
coedge $-1 $243 $382 $155 $252 reversed $151 $-1 #
edge $-1 $383 -59.346293527024145 $256 59.346293527024145 $251 $384 forward 7 unknown #
coedge $-1 $246 $156 $382 $385 forward $255 $-1 #
coedge $-1 $156 $246 $378 $386 reversed $255 $-1 #
loop $-1 $-1 $253 $362 #
vertex $-1 $157 $387 #
vertex $-1 $157 $388 #
straight-curve $-1 59.346293527024145 0 8.344755248179597 0 1 0 I I #
face $-1 $389 $390 $37 $-1 $391 forward single #
loop $-1 $-1 $268 $158 #
plane-surface $-1 0 -28.634084029772222 0 0 1 0 0 0 1 forward_v I I I I #
coedge $-1 $392 $393 $394 $395 forward $159 $-1 #
coedge $-1 $394 $161 $163 $270 reversed $101 $-1 #
coedge $-1 $161 $394 $396 $397 reversed $101 $-1 #
coedge $-1 $398 $164 $161 $266 forward $272 $-1 #
edge $-1 $274 1.9223776240897985 $399 4.9223776240897985 $265 $400 forward 7 unknown #
coedge $-1 $163 $162 $392 $401 reversed $64 $-1 #
coedge $-1 $402 $403 $162 $269 forward $260 $-1 #
edge $-1 $404 -59.346293527024145 $273 59.346293527024145 $268 $405 forward 7 unknown #
edge $-1 $406 -59.346293527024145 $274 59.346293527024145 $263 $407 forward 7 unknown #
coedge $-1 $164 $398 $402 $408 forward $272 $-1 #
loop $-1 $-1 $265 $389 #
vertex $-1 $269 $409 #
vertex $-1 $165 $410 #
straight-curve $-1 59.346293527024145 -12.697111022440225 5.344755248179597 0 1 0 I I #
face $-1 $-1 $288 $38 $-1 $411 forward single #
loop $-1 $-1 $412 $166 #
plane-surface $-1 59.346293527024145 0 0 -1 0 0 0 0 1 forward_v I I I I #
coedge $-1 $413 $414 $415 $416 reversed $167 $-1 #
coedge $-1 $417 $169 $171 $286 forward $105 $-1 #
coedge $-1 $169 $417 $413 $418 forward $105 $-1 #
coedge $-1 $415 $172 $169 $283 forward $288 $-1 #
edge $-1 $290 -1.7840414205082915 $419 4.4542724761610799 $282 $420 forward 7 unknown #
coedge $-1 $421 $422 $170 $285 forward $277 $-1 #
edge $-1 $423 -79.7767439503491 $289 -75.433011117483545 $284 $424 forward 7 unknown #
edge $-1 $290 113.5705511554215 $423 118.69258705404832 $171 $425 forward 7 unknown #
coedge $-1 $172 $415 $421 $426 forward $288 $-1 #
loop $-1 $-1 $415 $276 #
vertex $-1 $285 $427 #
vertex $-1 $173 $428 #
straight-curve $-1 48.552915025166648 0.44892589268189731 8.3447552481795952 -1 0 0 I I #
coedge $-1 $292 $292 $-1 $429 reversed $176 $-1 #
edge $-1 $430 0 $430 6.2831853071796004 $177 $431 forward 7 unknown #
vertex $-1 $180 $432 #
ellipse-curve $-1 57.989160812114896 -4.0070126049390815 6.1728888317468344 0.84804810408105047 0 0.52991925155115449 0.13247981288778862 0 -0.21201202602026262 1 I I #
coedge $-1 $296 $296 $-1 $433 reversed $183 $-1 #
edge $-1 $434 0 $434 6.2831853071796004 $184 $435 forward 7 unknown #
vertex $-1 $187 $436 #
ellipse-curve $-1 57.989160812114896 -1.3334495063664953 6.1728888317468344 0.84804810408105047 0 0.52991925155115449 0.13247981288778862 0 -0.21201202602026262 1 I I #
face $-1 $-1 $312 $41 $-1 $437 forward single #
loop $-1 $-1 $438 $188 #
plane-surface $-1 59.346293527024145 0 0 -1 0 0 0 0 1 forward_v I I I I #
coedge $-1 $439 $440 $441 $442 reversed $189 $-1 #
coedge $-1 $443 $191 $193 $310 forward $119 $-1 #
coedge $-1 $191 $443 $439 $444 forward $119 $-1 #
coedge $-1 $441 $194 $191 $307 forward $312 $-1 #
edge $-1 $314 -7.6941344610528475 $445 -1.4558205643834761 $306 $446 forward 7 unknown #
coedge $-1 $447 $448 $192 $309 forward $301 $-1 #
edge $-1 $449 -79.7767439503491 $313 -75.433011117483545 $308 $450 forward 7 unknown #
edge $-1 $314 113.5705511554215 $449 118.69258705404832 $193 $451 forward 7 unknown #
coedge $-1 $194 $441 $447 $452 forward $312 $-1 #
loop $-1 $-1 $441 $300 #
vertex $-1 $309 $453 #
vertex $-1 $195 $454 #
straight-curve $-1 48.552915025166648 12.269111973771009 8.3447552481795952 -1 0 0 I I #
coedge $-1 $316 $316 $-1 $455 reversed $198 $-1 #
edge $-1 $456 0 $456 6.2831853071796004 $199 $457 forward 7 unknown #
vertex $-1 $202 $458 #
ellipse-curve $-1 57.989160812114896 7.8131734761500304 6.1728888317468344 0.84804810408105047 0 0.52991925155115449 0.13247981288778862 0 -0.21201202602026262 1 I I #
coedge $-1 $320 $320 $-1 $459 reversed $205 $-1 #
edge $-1 $460 0 $460 6.2831853071796004 $206 $461 forward 7 unknown #
vertex $-1 $209 $462 #
ellipse-curve $-1 57.989160812114896 10.486736574722617 6.1728888317468344 0.84804810408105047 0 0.52991925155115449 0.13247981288778862 0 -0.21201202602026262 1 I I #
face $-1 $-1 $463 $44 $-1 $464 reversed single #
loop $-1 $-1 $216 $210 #
plane-surface $-1 0 0 8.344755248179597 0 0 1 1 0 0 forward_v I I I I #
coedge $-1 $465 $466 $467 $468 reversed $211 $-1 #
coedge $-1 $469 $213 $215 $334 forward $133 $-1 #
coedge $-1 $213 $469 $465 $470 forward $133 $-1 #
coedge $-1 $467 $216 $213 $331 forward $325 $-1 #
edge $-1 $337 -5.2603497549384777 $471 0.78502390291795621 $330 $472 forward 7 unknown #
coedge $-1 $473 $474 $214 $333 forward $463 $-1 #
edge $-1 $475 -49.620945892374088 $336 -41.578277704945513 $332 $476 forward 7 unknown #
edge $-1 $337 -14.766969616549133 $475 0 $215 $477 forward 7 unknown #
coedge $-1 $216 $467 $473 $478 forward $325 $-1 #
vertex $-1 $333 $479 #
vertex $-1 $217 $480 #
straight-curve $-1 -61.995455225275904 -7.4980126809487384 8.3447552481795952 1 0 0 I I #
coedge $-1 $339 $339 $-1 $481 reversed $220 $-1 #
edge $-1 $482 0 $482 6.2831853071796004 $221 $483 forward 7 unknown #
vertex $-1 $224 $484 #
ellipse-curve $-1 -53.153982163667777 -4.4753258520205215 4.3234211544653096 -0.54463904215088732 0 0.83867056331134215 1.2580058449670133 0 0.81695856322633098 1 I I #
face $-1 $-1 $485 $46 $-1 $486 reversed single #
loop $-1 $-1 $231 $225 #
plane-surface $-1 0 0 8.344755248179597 0 0 1 1 0 0 forward_v I I I I #
coedge $-1 $487 $488 $489 $490 reversed $226 $-1 #
coedge $-1 $491 $228 $230 $353 forward $142 $-1 #
coedge $-1 $228 $491 $487 $492 forward $142 $-1 #
coedge $-1 $489 $231 $228 $350 forward $344 $-1 #
edge $-1 $356 2.4548380819738114 $493 8.5002117398302453 $349 $494 forward 7 unknown #
coedge $-1 $495 $496 $229 $352 forward $485 $-1 #
edge $-1 $497 -49.620945892374088 $355 -41.578277704945513 $351 $498 forward 7 unknown #
edge $-1 $356 -14.766969616549133 $497 0 $230 $499 forward 7 unknown #
coedge $-1 $231 $489 $495 $500 forward $344 $-1 #
vertex $-1 $232 $501 #
vertex $-1 $232 $502 #
straight-curve $-1 -61.995455225275904 7.9323629928758397 8.3447552481795952 1 0 0 I I #
coedge $-1 $358 $358 $-1 $503 reversed $235 $-1 #
edge $-1 $504 0 $504 6.2831853071796004 $236 $505 forward 7 unknown #
vertex $-1 $239 $506 #
ellipse-curve $-1 -53.153982163667777 10.955049821804057 4.3234211544653096 -0.54463904215088732 0 0.83867056331134215 1.2580058449670133 0 0.81695856322633098 1 I I #
face $-1 $-1 $255 $36 $-1 $507 reversed single #
loop $-1 $-1 $378 $240 #
plane-surface $-1 0 28.634084029772222 0 0 -1 0 0 0 -1 forward_v I I I I #
coedge $-1 $508 $376 $379 $509 forward $241 $-1 #
coedge $-1 $382 $243 $244 $370 reversed $151 $-1 #
coedge $-1 $376 $508 $243 $368 reversed $241 $-1 #
edge $-1 $383 -8.344755248179597 $510 8.344755248179597 $367 $511 forward 7 unknown #
coedge $-1 $245 $244 $508 $512 forward $97 $-1 #
edge $-1 $374 -59.346293527024145 $510 59.346293527024145 $366 $513 forward 7 unknown #
coedge $-1 $379 $378 $245 $372 reversed $363 $-1 #
edge $-1 $514 -59.346293527024145 $373 59.346293527024145 $371 $515 forward 7 unknown #
vertex $-1 $247 $516 #
vertex $-1 $385 $517 #
straight-curve $-1 59.346293527024145 0 -8.344755248179597 0 -1 0 I I #
coedge $-1 $365 $367 $248 $377 reversed $241 $-1 #
edge $-1 $380 -28.634084029772222 $383 28.634084029772222 $376 $518 forward 7 unknown #
coedge $-1 $371 $249 $254 $386 forward $363 $-1 #
coedge $-1 $249 $371 $365 $509 reversed $363 $-1 #
vertex $-1 $250 $519 #
straight-curve $-1 0 28.634084029772222 8.344755248179597 -1 0 0 I I #
coedge $-1 $251 $366 $253 $385 reversed $151 $-1 #
vertex $-1 $377 $520 #
straight-curve $-1 0 -28.634084029772222 8.344755248179597 1 0 0 I I #
edge $-1 $256 -8.344755248179597 $374 8.344755248179597 $253 $521 forward 7 unknown #
edge $-1 $257 -8.344755248179597 $373 8.344755248179597 $254 $522 forward 7 unknown #
point $-1 59.346293527024145 -28.634084029772222 8.344755248179597 #
point $-1 59.346293527024145 28.634084029772222 8.344755248179597 #
face $-1 $-1 $272 $37 $-1 $523 reversed single #
loop $-1 $-1 $396 $259 #
plane-surface $-1 0 0 8.344755248179597 0 0 1 1 0 0 forward_v I I I I #
coedge $-1 $524 $262 $267 $401 forward $159 $-1 #
coedge $-1 $262 $524 $525 $526 reversed $159 $-1 #
coedge $-1 $264 $263 $262 $395 reversed $101 $-1 #
edge $-1 $527 -4.9223776240897985 $406 -1.9223776240897985 $262 $528 forward 7 unknown #
coedge $-1 $525 $529 $264 $397 forward $390 $-1 #
edge $-1 $399 -59.346293527024145 $527 59.346293527024145 $396 $530 forward 7 unknown #
coedge $-1 $271 $265 $529 $531 reversed $272 $-1 #
vertex $-1 $266 $532 #
straight-curve $-1 59.346293527024145 -22.154360059988679 3.4223776240897985 0 0 1 I I #
edge $-1 $406 9.4572490375484541 $404 15.936973007331996 $392 $533 forward 7 unknown #
coedge $-1 $534 $268 $271 $408 reversed $260 $-1 #
coedge $-1 $268 $534 $524 $535 forward $260 $-1 #
vertex $-1 $269 $536 #
straight-curve $-1 0 -28.634084029772222 5.344755248179597 1 0 0 I I #
vertex $-1 $401 $537 #
straight-curve $-1 0 -22.154360059988679 5.344755248179597 1 0 0 I I #
edge $-1 $538 -8.344755248179597 $273 -5.344755248179597 $271 $539 forward 7 unknown #
point $-1 59.346293527024145 -28.634084029772222 5.344755248179597 #
point $-1 59.346293527024145 -22.154360059988679 5.344755248179597 #
plane-surface $-1 0 0 8.344755248179597 0 0 1 1 0 0 forward_v I I I I #
coedge $-1 $422 $421 $414 $540 forward $277 $-1 #
coedge $-1 $414 $279 $281 $418 reversed $167 $-1 #
coedge $-1 $279 $413 $412 $540 reversed $167 $-1 #
coedge $-1 $287 $282 $279 $416 forward $288 $-1 #
edge $-1 $419 8.0791130720390214 $541 10.793378501857497 $415 $542 forward 7 unknown #
coedge $-1 $281 $280 $422 $543 reversed $105 $-1 #
edge $-1 $544 -118.69258705404832 $419 -113.5705511554215 $413 $545 forward 7 unknown #
vertex $-1 $283 $546 #
straight-curve $-1 56.632028097205662 -1.3351155278263942 8.3447552481796023 0 -1 0 I I #
coedge $-1 $412 $284 $287 $426 reversed $277 $-1 #
coedge $-1 $284 $412 $417 $543 forward $277 $-1 #
vertex $-1 $285 $547 #
straight-curve $-1 59.346293527024145 0.44892589268189731 83.77776636566314 0 0 1 I I #
straight-curve $-1 -3.5511933693273932 0.44892589268189731 104.65804583497476 0.52991925155115449 0 -0.84804810408105047 I I #
edge $-1 $541 -5.7893880039874741 $289 0.44892589268189731 $421 $548 forward 7 unknown #
point $-1 59.346293527024145 0.44892589268189731 8.344755248179597 #
point $-1 56.632028097205669 0.44892589268189731 8.3447552481795952 #
edge $-1 $549 1 $549 0 $292 $-1 forward 7 unknown #
vertex $-1 $293 $550 #
ellipse-curve $-1 57.141112708033887 -4.0070126049390815 5.6429695801957065 0.84804810408105047 0 0.52991925155115449 0.13247981288778862 0 -0.21201202602026262 1 I I #
point $-1 58.121640625002726 -4.0070126049390815 5.9608768057265982 #
edge $-1 $551 1 $551 0 $296 $-1 forward 7 unknown #
vertex $-1 $297 $552 #
ellipse-curve $-1 57.141112708033887 -1.3334495063664953 5.6429695801957065 0.84804810408105047 0 0.52991925155115449 0.13247981288778862 0 -0.21201202602026262 1 I I #
point $-1 58.121640625002726 -1.3334495063664953 5.9608768057265982 #
plane-surface $-1 0 0 8.344755248179597 0 0 1 1 0 0 forward_v I I I I #
coedge $-1 $448 $447 $440 $553 forward $301 $-1 #
coedge $-1 $440 $303 $305 $444 reversed $189 $-1 #
coedge $-1 $303 $439 $438 $553 reversed $189 $-1 #
coedge $-1 $311 $306 $303 $442 forward $312 $-1 #
edge $-1 $445 8.0791130720390214 $554 10.793378501857497 $441 $555 forward 7 unknown #
coedge $-1 $305 $304 $448 $556 reversed $119 $-1 #
edge $-1 $557 -118.69258705404832 $445 -113.5705511554215 $439 $558 forward 7 unknown #
vertex $-1 $307 $559 #
straight-curve $-1 56.632028097205662 4.5749775127181618 8.3447552481796023 0 -1 0 I I #
coedge $-1 $438 $308 $311 $452 reversed $301 $-1 #
coedge $-1 $308 $438 $443 $556 forward $301 $-1 #
vertex $-1 $309 $560 #
straight-curve $-1 59.346293527024145 12.269111973771009 83.77776636566314 0 0 1 I I #
straight-curve $-1 -3.5511933693273932 12.269111973771009 104.65804583497476 0.52991925155115449 0 -0.84804810408105047 I I #
edge $-1 $554 6.0307980771016378 $313 12.269111973771009 $447 $561 forward 7 unknown #
point $-1 59.346293527024145 12.269111973771009 8.344755248179597 #
point $-1 56.632028097205669 12.269111973771009 8.3447552481795952 #
edge $-1 $562 1 $562 0 $316 $-1 forward 7 unknown #
vertex $-1 $317 $563 #
ellipse-curve $-1 57.141112708033887 7.8131734761500304 5.6429695801957065 0.84804810408105047 0 0.52991925155115449 0.13247981288778862 0 -0.21201202602026262 1 I I #
point $-1 58.121640625002726 7.8131734761500304 5.9608768057265982 #
edge $-1 $564 1 $564 0 $320 $-1 forward 7 unknown #
vertex $-1 $321 $565 #
ellipse-curve $-1 57.141112708033887 10.486736574722617 5.6429695801957065 0.84804810408105047 0 0.52991925155115449 0.13247981288778862 0 -0.21201202602026262 1 I I #
point $-1 58.121640625002726 10.486736574722617 5.9608768057265982 #
loop $-1 $-1 $332 $324 #
plane-surface $-1 -59.346293527024145 0 0 1 0 0 0 0 -1 forward_v I I I I #
coedge $-1 $466 $327 $329 $470 reversed $211 $-1 #
coedge $-1 $327 $465 $566 $567 reversed $211 $-1 #
coedge $-1 $335 $330 $327 $468 forward $325 $-1 #
edge $-1 $471 -15.033784424964495 $568 -2.6491616982517598 $467 $569 forward 7 unknown #
coedge $-1 $329 $328 $474 $570 reversed $133 $-1 #
edge $-1 $571 0 $471 14.766969616549133 $465 $572 forward 7 unknown #
vertex $-1 $331 $573 #
straight-curve $-1 -46.961670800311403 -2.2376629260102607 8.3447552481795952 0 1 0 I I #
coedge $-1 $566 $332 $335 $478 reversed $463 $-1 #
coedge $-1 $332 $566 $469 $570 forward $463 $-1 #
vertex $-1 $333 $574 #
straight-curve $-1 -59.346293527024145 -7.4980126809487384 49.923032953125109 0 0 1 I I #
straight-curve $-1 -59.346293527024145 -7.4980126809487384 0.30208706075102043 -0.83867056331134215 0 -0.54463904215088732 I I #
edge $-1 $568 1.4526390230923045 $336 7.4980126809487384 $473 $575 forward 7 unknown #
point $-1 -59.346293527024145 -7.4980126809487384 8.344755248179597 #
point $-1 -46.96167080031141 -7.4980126809487384 8.344755248179597 #
edge $-1 $576 1 $576 0 $339 $-1 forward 7 unknown #
vertex $-1 $340 $577 #
ellipse-curve $-1 -50.365971133800592 -4.4753258520205215 0.030260730815100501 -0.54463904215088732 0 0.83867056331134215 1.2580058449670133 0 0.81695856322633098 1 I I #
point $-1 -51.895976318700761 -4.4753258520205215 5.1403797176916379 #
loop $-1 $-1 $351 $343 #
plane-surface $-1 -59.346293527024145 0 0 1 0 0 0 0 -1 forward_v I I I I #
coedge $-1 $488 $346 $348 $492 reversed $226 $-1 #
coedge $-1 $346 $487 $578 $579 reversed $226 $-1 #
coedge $-1 $354 $349 $346 $490 forward $344 $-1 #
edge $-1 $493 -15.033784424964495 $580 -2.6491616982517598 $489 $581 forward 7 unknown #
coedge $-1 $348 $347 $496 $582 reversed $142 $-1 #
edge $-1 $583 0 $493 14.766969616549133 $487 $584 forward 7 unknown #
vertex $-1 $350 $585 #
straight-curve $-1 -46.961670800311403 5.4775249109020283 8.3447552481795952 0 1 0 I I #
coedge $-1 $578 $351 $354 $500 reversed $485 $-1 #
coedge $-1 $351 $578 $491 $582 forward $485 $-1 #
vertex $-1 $352 $586 #
straight-curve $-1 -59.346293527024145 7.9323629928758397 49.923032953125109 0 0 1 I I #
straight-curve $-1 -59.346293527024145 7.9323629928758397 0.30208706075102043 -0.83867056331134215 0 -0.54463904215088732 I I #
edge $-1 $580 -13.977736650732274 $355 -7.9323629928758397 $495 $587 forward 7 unknown #
point $-1 -59.346293527024145 7.9323629928758397 8.344755248179597 #
point $-1 -46.96167080031141 7.9323629928758397 8.344755248179597 #
edge $-1 $588 1 $588 0 $358 $-1 forward 7 unknown #
vertex $-1 $359 $589 #
ellipse-curve $-1 -50.365971133800592 10.955049821804057 0.030260730815100501 -0.54463904215088732 0 0.83867056331134215 1.2580058449670133 0 0.81695856322633098 1 I I #
point $-1 -51.895976318700761 10.955049821804057 5.1403797176916379 #
plane-surface $-1 59.346293527024145 0 0 -1 0 0 0 0 1 forward_v I I I I #
coedge $-1 $367 $365 $369 $512 reversed $241 $-1 #
edge $-1 $380 -8.344755248179597 $514 8.344755248179597 $379 $590 forward 7 unknown #
vertex $-1 $512 $591 #
straight-curve $-1 -59.346293527024145 -28.634084029772222 0 0 0 -1 I I #
edge $-1 $510 -28.634084029772222 $514 28.634084029772222 $508 $592 forward 7 unknown #
straight-curve $-1 0 -28.634084029772222 -8.344755248179597 -1 0 0 I I #
vertex $-1 $372 $593 #
straight-curve $-1 0 28.634084029772222 -8.344755248179597 1 0 0 I I #
point $-1 59.346293527024145 28.634084029772222 -8.344755248179597 #
point $-1 59.346293527024145 -28.634084029772222 -8.344755248179597 #
straight-curve $-1 -59.346293527024145 0 8.344755248179597 0 -1 0 I I #
point $-1 -59.346293527024145 28.634084029772222 8.344755248179597 #
point $-1 -59.346293527024145 -28.634084029772222 8.344755248179597 #
straight-curve $-1 59.346293527024145 -28.634084029772222 0 0 0 -1 I I #
straight-curve $-1 59.346293527024145 28.634084029772222 0 0 0 -1 I I #
plane-surface $-1 59.346293527024145 0 0 -1 0 0 0 0 1 forward_v I I I I #
coedge $-1 $393 $392 $403 $535 reversed $159 $-1 #
coedge $-1 $594 $396 $393 $526 forward $390 $-1 #
edge $-1 $527 22.154360059988679 $595 28.634084029772222 $393 $596 forward 7 unknown #
vertex $-1 $526 $597 #
straight-curve $-1 -59.346293527024145 -22.154360059988679 3.4223776240897985 0 0 -1 I I #
coedge $-1 $396 $594 $398 $531 forward $390 $-1 #
straight-curve $-1 0 -22.154360059988679 8.344755248179597 -1 0 0 I I #
edge $-1 $538 -28.634084029772222 $399 -22.154360059988679 $398 $598 forward 7 unknown #
point $-1 59.346293527024145 -22.154360059988679 8.344755248179597 #
straight-curve $-1 -59.346293527024145 -12.697111022440225 5.344755248179597 0 -1 0 I I #
coedge $-1 $403 $402 $594 $599 reversed $260 $-1 #
edge $-1 $595 -8.344755248179597 $404 -5.344755248179597 $524 $600 forward 7 unknown #
point $-1 -59.346293527024145 -28.634084029772222 5.344755248179597 #
point $-1 -59.346293527024145 -22.154360059988679 5.344755248179597 #
vertex $-1 $531 $601 #
straight-curve $-1 59.346293527024145 -28.634084029772222 0 0 0 -1 I I #
edge $-1 $541 75.433011117483545 $544 79.7767439503491 $412 $602 forward 7 unknown #
vertex $-1 $426 $603 #
straight-curve $-1 48.552915025166648 -5.7893880039874741 8.3447552481795952 1 0 0 I I #
edge $-1 $544 -4.4542724761610799 $423 1.7840414205082915 $422 $604 forward 7 unknown #
vertex $-1 $543 $605 #
straight-curve $-1 -3.5511933693273932 -5.7893880039874741 104.65804583497476 -0.52991925155115449 0 0.84804810408105047 I I #
point $-1 56.632028097205669 -5.7893880039874741 8.3447552481795952 #
point $-1 59.346293527024145 0.44892589268189731 4.0010224153140399 #
straight-curve $-1 59.346293527024145 0 8.344755248179597 0 1 0 I I #
vertex $-1 $429 $606 #
point $-1 57.273592520921675 -4.0070126049390815 5.4309575541754436 #
vertex $-1 $433 $607 #
point $-1 57.273592520921675 -1.3334495063664953 5.4309575541754436 #
edge $-1 $554 75.433011117483545 $557 79.7767439503491 $438 $608 forward 7 unknown #
vertex $-1 $452 $609 #
straight-curve $-1 48.552915025166648 6.0307980771016378 8.3447552481795952 1 0 0 I I #
edge $-1 $557 1.4558205643834761 $449 7.6941344610528475 $448 $610 forward 7 unknown #
vertex $-1 $556 $611 #
straight-curve $-1 -3.5511933693273932 6.0307980771016378 104.65804583497476 -0.52991925155115449 0 0.84804810408105047 I I #
point $-1 56.632028097205669 6.0307980771016378 8.3447552481795952 #
point $-1 59.346293527024145 12.269111973771009 4.0010224153140399 #
straight-curve $-1 59.346293527024145 0 8.344755248179597 0 1 0 I I #
vertex $-1 $455 $612 #
point $-1 57.273592520921675 7.8131734761500304 5.4309575541754436 #
vertex $-1 $459 $613 #
point $-1 57.273592520921675 10.486736574722617 5.4309575541754436 #
coedge $-1 $474 $473 $466 $567 forward $463 $-1 #
edge $-1 $568 41.578277704945513 $571 49.620945892374088 $566 $614 forward 7 unknown #
vertex $-1 $478 $615 #
straight-curve $-1 -61.995455225275904 -1.4526390230923045 8.3447552481795952 -1 0 0 I I #
edge $-1 $571 -0.78502390291795621 $475 5.2603497549384777 $474 $616 forward 7 unknown #
vertex $-1 $570 $617 #
straight-curve $-1 -59.346293527024145 -1.4526390230923045 0.30208706075102043 0.83867056331134215 0 0.54463904215088732 I I #
point $-1 -46.96167080031141 -1.4526390230923045 8.344755248179597 #
point $-1 -59.346293527024145 -7.4980126809487384 0.30208706075102043 #
straight-curve $-1 -59.346293527024145 0 8.344755248179597 0 -1 0 I I #
vertex $-1 $481 $618 #
point $-1 -49.107965288833576 -4.4753258520205215 0.84721929404143159 #
coedge $-1 $496 $495 $488 $579 forward $485 $-1 #
edge $-1 $580 41.578277704945513 $583 49.620945892374088 $578 $619 forward 7 unknown #
vertex $-1 $500 $620 #
straight-curve $-1 -61.995455225275904 13.977736650732274 8.3447552481795952 -1 0 0 I I #
edge $-1 $583 -8.5002117398302453 $497 -2.4548380819738114 $496 $621 forward 7 unknown #
vertex $-1 $582 $622 #
straight-curve $-1 -59.346293527024145 13.977736650732274 0.30208706075102043 0.83867056331134215 0 0.54463904215088732 I I #
point $-1 -46.96167080031141 13.977736650732274 8.344755248179597 #
point $-1 -59.346293527024145 7.9323629928758397 0.30208706075102043 #
straight-curve $-1 -59.346293527024145 0 8.344755248179597 0 -1 0 I I #
vertex $-1 $503 $623 #
point $-1 -49.107965288833576 10.955049821804057 0.84721929404143159 #
straight-curve $-1 -59.346293527024145 28.634084029772222 0 0 0 -1 I I #
point $-1 -59.346293527024145 -28.634084029772222 -8.344755248179597 #
straight-curve $-1 -59.346293527024145 0 -8.344755248179597 0 1 0 I I #
point $-1 -59.346293527024145 28.634084029772222 -8.344755248179597 #
coedge $-1 $529 $525 $534 $599 forward $390 $-1 #
vertex $-1 $526 $624 #
straight-curve $-1 -59.346293527024145 0 8.344755248179597 0 -1 0 I I #
point $-1 -59.346293527024145 -22.154360059988679 8.344755248179597 #
straight-curve $-1 59.346293527024145 0 8.344755248179597 0 1 0 I I #
edge $-1 $595 -59.346293527024145 $538 59.346293527024145 $534 $625 forward 7 unknown #
straight-curve $-1 -59.346293527024145 -28.634084029772222 0 0 0 -1 I I #
point $-1 59.346293527024145 -28.634084029772222 8.344755248179597 #
straight-curve $-1 59.346293527024145 -5.7893880039874741 83.77776636566314 0 0 -1 I I #
point $-1 59.346293527024145 -5.7893880039874741 8.344755248179597 #
straight-curve $-1 59.346293527024145 -1.3351155278263942 4.001022415314047 0 1 0 I I #
point $-1 59.346293527024145 -5.7893880039874741 4.0010224153140399 #
point $-1 56.929100682013626 -4.0070126049390815 5.5104897673079174 #
point $-1 56.929100682013626 -1.3334495063664953 5.5104897673079174 #
straight-curve $-1 59.346293527024145 6.0307980771016378 83.77776636566314 0 0 -1 I I #
point $-1 59.346293527024145 6.0307980771016378 8.344755248179597 #
straight-curve $-1 59.346293527024145 4.5749775127181618 4.001022415314047 0 1 0 I I #
point $-1 59.346293527024145 6.0307980771016378 4.0010224153140399 #
point $-1 56.929100682013626 7.8131734761500304 5.5104897673079174 #
point $-1 56.929100682013626 10.486736574722617 5.5104897673079174 #
straight-curve $-1 -59.346293527024145 -1.4526390230923045 49.923032953125109 0 0 -1 I I #
point $-1 -59.346293527024145 -1.4526390230923045 8.344755248179597 #
straight-curve $-1 -59.346293527024145 -2.2376629260102607 0.30208706075101932 0 -1 0 I I #
point $-1 -59.346293527024145 -1.4526390230923045 0.30208706075102043 #
point $-1 -49.549012570574256 -4.4753258520205215 -1.2277451141519129 #
straight-curve $-1 -59.346293527024145 13.977736650732274 49.923032953125109 0 0 -1 I I #
point $-1 -59.346293527024145 13.977736650732274 8.344755248179597 #
straight-curve $-1 -59.346293527024145 5.4775249109020283 0.30208706075101932 0 -1 0 I I #
point $-1 -59.346293527024145 13.977736650732274 0.30208706075102043 #
point $-1 -49.549012570574256 10.955049821804057 -1.2277451141519129 #
point $-1 -59.346293527024145 -28.634084029772222 8.344755248179597 #
straight-curve $-1 0 -28.634084029772222 8.344755248179597 1 0 0 I I #
End-of-ACIS-data 