500 0 5 0           
7 Unknown 11 ACIS 5.0 NT 24 Fri Mar 26 15:13:03 1999 
-1 9.9999999999999995e-007 1e-010 
body $-1 $5 $-1 $6 #
body $-1 $7 $-1 $8 #
body $-1 $9 $-1 $10 #
body $-1 $11 $-1 $12 #
body $-1 $13 $-1 $14 #
lump $-1 $-1 $15 $0 #
transform $-1 1 0 0 0 1 0 0 0 1 54.281441694387645 35.91865301218364 13.094572631682512 1 rotate no_reflect no_shear #
lump $-1 $-1 $16 $1 #
transform $-1 1 0 0 0 1 0 0 0 1 54.281441694387645 35.91865301218364 13.094572631682512 1 rotate no_reflect no_shear #
lump $-1 $-1 $17 $2 #
transform $-1 1 0 0 0 1 0 0 0 1 54.281441694387645 35.91865301218364 13.094572631682512 1 rotate no_reflect no_shear #
lump $-1 $-1 $18 $3 #
transform $-1 1 0 0 0 1 0 0 0 1 54.281441694387645 35.91865301218364 13.094572631682512 1 rotate no_reflect no_shear #
lump $-1 $-1 $19 $4 #
transform $-1 1 0 0 0 1 0 0 0 1 54.281441694387645 35.91865301218364 13.094572631682512 1 rotate no_reflect no_shear #
shell $-1 $-1 $-1 $20 $-1 $5 #
shell $-1 $-1 $-1 $21 $-1 $7 #
shell $-1 $-1 $-1 $22 $-1 $9 #
shell $-1 $-1 $-1 $23 $-1 $11 #
shell $-1 $-1 $-1 $24 $-1 $13 #
face $-1 $25 $26 $15 $-1 $27 forward single #
face $-1 $28 $29 $16 $-1 $30 forward single #
face $-1 $31 $32 $17 $-1 $33 reversed single #
face $-1 $34 $35 $18 $-1 $36 forward single #
face $-1 $37 $38 $19 $-1 $39 forward single #
face $-1 $40 $41 $15 $-1 $42 reversed single #
loop $-1 $-1 $43 $20 #
plane-surface $-1 0 0 13.094572631682512 0 0 1 1 0 0 forward_v I I I I #
face $-1 $44 $45 $16 $-1 $46 reversed single #
loop $-1 $-1 $47 $21 #
plane-surface $-1 -46.552666621744827 0 -1.8059791777916323 0 0 1 1 0 0 forward_v I I I I #
face $-1 $48 $49 $17 $-1 $50 reversed single #
loop $-1 $-1 $51 $22 #
plane-surface $-1 17.13890764153475 20.076386186942376 153.06206754987454 0 1 0 0.51503808176128008 0 0.85716729658548041 forward_v I I I I #
face $-1 $52 $53 $18 $-1 $54 forward single #
loop $-1 $55 $56 $23 #
cone-surface $-1 46.297635852787451 24.602748137011311 7.7742294169464472 -0.51503808176128008 0 -0.85716729658548041 1.2857509448782207 0 -0.77255712264192011 1 I I 0 1 1.5 forward I I I I #
face $-1 $57 $58 $19 $-1 $59 forward single #
loop $-1 $60 $61 $24 #
cone-surface $-1 46.297635852787451 31.392291062114708 7.7742294169464472 -0.51503808176128008 0 -0.85716729658548041 1.2857509448782207 0 -0.77255712264192011 1 I I 0 1 1.5 forward I I I I #
face $-1 $62 $63 $15 $-1 $64 reversed single #
loop $-1 $-1 $65 $25 #
plane-surface $-1 0 0 -13.094572631682512 0 0 1 1 0 0 forward_v I I I I #
coedge $-1 $66 $67 $68 $69 forward $26 $-1 #
face $-1 $70 $71 $16 $-1 $72 reversed single #
loop $-1 $-1 $73 $28 #
plane-surface $-1 -46.552666621744827 0 -8.4182847803290972 0 0 1 1 0 0 forward_v I I I I #
coedge $-1 $74 $75 $76 $77 forward $29 $-1 #
face $-1 $78 $79 $17 $-1 $80 reversed single #
loop $-1 $-1 $81 $31 #
plane-surface $-1 -38.77511156949361 27.997519599563006 60.005514285993272 0.51503808176128008 0 0.85716729658548041 0.85716729658548041 0 -0.51503808176128008 forward_v I I I I #
coedge $-1 $82 $83 $84 $85 reversed $32 $-1 #
face $-1 $-1 $86 $18 $-1 $87 forward single #
loop $-1 $88 $89 $34 #
cone-surface $-1 45.419369942054921 24.602748137011311 6.3125495081300738 -0.51503808176128008 0 -0.85716729658548041 0.64287547243911036 0 -0.38627856132096006 1 I I -0.70710678118654757 0.70710678118654757 0.75 forward I I I I #
loop $-1 $-1 $90 $23 #
coedge $-1 $56 $56 $91 $92 reversed $35 $-1 #
face $-1 $-1 $93 $19 $-1 $94 forward single #
loop $-1 $95 $96 $37 #
cone-surface $-1 45.419369942054921 31.392291062114708 6.3125495081300738 -0.51503808176128008 0 -0.85716729658548041 0.64287547243911036 0 -0.38627856132096006 1 I I -0.70710678118654757 0.70710678118654757 0.75 forward I I I I #
loop $-1 $-1 $97 $24 #
coedge $-1 $61 $61 $98 $99 reversed $38 $-1 #
face $-1 $100 $101 $15 $-1 $102 reversed single #
loop $-1 $-1 $103 $40 #
plane-surface $-1 0 -35.91865301218364 0 0 1 0 0 0 1 forward_v I I I I #
coedge $-1 $104 $105 $106 $107 forward $41 $-1 #
coedge $-1 $108 $43 $109 $110 forward $26 $-1 #
coedge $-1 $43 $108 $111 $112 forward $26 $-1 #
coedge $-1 $113 $114 $43 $69 reversed $115 $-1 #
edge $-1 $116 -35.91865301218364 $117 35.91865301218364 $68 $118 forward 7 unknown #
face $-1 $119 $120 $16 $-1 $121 reversed single #
loop $-1 $-1 $122 $44 #
plane-surface $-1 -38.823891549102008 0 -5.112131979060365 -1 0 0 0 0 1 forward_v I I I I #
coedge $-1 $123 $124 $125 $126 forward $45 $-1 #
coedge $-1 $127 $47 $128 $129 reversed $29 $-1 #
coedge $-1 $47 $127 $130 $131 reversed $29 $-1 #
coedge $-1 $122 $132 $47 $77 reversed $71 $-1 #
edge $-1 $133 -35.91865301218364 $134 35.91865301218364 $76 $135 forward 7 unknown #
face $-1 $136 $137 $17 $-1 $138 forward single #
loop $-1 $-1 $84 $48 #
plane-surface $-1 54.281441694387645 0 0 -1 0 0 0 0 1 forward_v I I I I #
coedge $-1 $139 $140 $141 $142 reversed $49 $-1 #
coedge $-1 $83 $51 $143 $144 reversed $32 $-1 #
coedge $-1 $51 $82 $139 $145 reversed $32 $-1 #
coedge $-1 $141 $146 $51 $85 forward $79 $-1 #
edge $-1 $147 63.43646114325476 $148 72.43953869997236 $84 $149 forward 7 unknown #
loop $-1 $-1 $91 $52 #
plane-surface $-1 -38.77511156949361 27.997519599563006 60.005514285993272 0.51503808176128008 0 0.85716729658548041 0.85716729658548041 0 -0.51503808176128008 forward_v I I I I #
loop $-1 $-1 $150 $34 #
coedge $-1 $89 $89 $90 $151 reversed $53 $-1 #
coedge $-1 $90 $90 $89 $151 forward $55 $-1 #
coedge $-1 $91 $91 $56 $92 forward $86 $-1 #
edge $-1 $152 0 $152 6.2831853071796004 $91 $153 forward 7 unknown #
loop $-1 $-1 $98 $57 #
plane-surface $-1 -38.77511156949361 27.997519599563006 60.005514285993272 0.51503808176128008 0 0.85716729658548041 0.85716729658548041 0 -0.51503808176128008 forward_v I I I I #
loop $-1 $-1 $154 $37 #
coedge $-1 $96 $96 $97 $155 reversed $58 $-1 #
coedge $-1 $97 $97 $96 $155 forward $60 $-1 #
coedge $-1 $98 $98 $61 $99 forward $93 $-1 #
edge $-1 $156 0 $156 6.2831853071796004 $98 $157 forward 7 unknown #
face $-1 $158 $159 $15 $-1 $160 reversed single #
loop $-1 $-1 $161 $62 #
plane-surface $-1 -54.281441694387645 0 0 1 0 0 0 0 -1 forward_v I I I I #
coedge $-1 $162 $111 $163 $164 forward $63 $-1 #
coedge $-1 $165 $65 $162 $166 forward $41 $-1 #
coedge $-1 $65 $165 $167 $168 forward $41 $-1 #
coedge $-1 $114 $113 $65 $107 reversed $115 $-1 #
edge $-1 $169 -35.91865301218364 $170 35.91865301218364 $106 $171 forward 7 unknown #
coedge $-1 $67 $66 $172 $173 forward $26 $-1 #
coedge $-1 $174 $175 $66 $110 reversed $159 $-1 #
edge $-1 $117 -54.281441694387645 $176 54.281441694387645 $109 $177 forward 7 unknown #
coedge $-1 $103 $178 $67 $112 reversed $63 $-1 #
edge $-1 $179 -54.281441694387645 $116 54.281441694387645 $111 $180 forward 7 unknown #
coedge $-1 $106 $68 $178 $181 forward $115 $-1 #
coedge $-1 $68 $106 $174 $182 reversed $115 $-1 #
loop $-1 $-1 $113 $158 #
vertex $-1 $69 $183 #
vertex $-1 $69 $184 #
straight-curve $-1 54.281441694387645 0 13.094572631682512 0 1 0 I I #
face $-1 $185 $186 $16 $-1 $187 reversed single #
loop $-1 $-1 $188 $70 #
plane-surface $-1 0 -35.91865301218364 0 0 1 0 0 0 1 forward_v I I I I #
coedge $-1 $125 $76 $189 $190 reversed $71 $-1 #
coedge $-1 $191 $73 $188 $192 reversed $45 $-1 #
coedge $-1 $73 $191 $193 $194 reversed $45 $-1 #
coedge $-1 $132 $122 $73 $126 reversed $71 $-1 #
edge $-1 $195 -35.91865301218364 $196 35.91865301218364 $125 $197 forward 7 unknown #
coedge $-1 $75 $74 $198 $199 reversed $29 $-1 #
coedge $-1 $200 $201 $74 $129 forward $202 $-1 #
edge $-1 $203 -31.005108383515232 $134 -15.547558238229595 $128 $204 forward 7 unknown #
coedge $-1 $205 $189 $75 $131 forward $120 $-1 #
edge $-1 $133 15.547558238229595 $206 31.005108383515232 $130 $207 forward 7 unknown #
coedge $-1 $76 $125 $200 $208 reversed $71 $-1 #
vertex $-1 $131 $209 #
vertex $-1 $129 $210 #
straight-curve $-1 -38.823891549102008 0 -1.8059791777916323 0 1 0 I I #
face $-1 $-1 $211 $17 $-1 $212 reversed single #
loop $-1 $-1 $143 $78 #
plane-surface $-1 0 0 13.094572631682512 0 0 1 1 0 0 forward_v I I I I #
coedge $-1 $213 $81 $83 $145 forward $49 $-1 #
coedge $-1 $81 $213 $214 $215 reversed $49 $-1 #
coedge $-1 $216 $84 $81 $142 forward $79 $-1 #
edge $-1 $148 6.0776263871608727 $217 21.919893212402137 $141 $218 forward 7 unknown #
coedge $-1 $219 $220 $82 $144 forward $137 $-1 #
edge $-1 $221 30.728350889243028 $147 45.711987873620274 $143 $222 forward 7 unknown #
edge $-1 $148 -108.56288338877526 $221 -91.082471987098543 $83 $223 forward 7 unknown #
coedge $-1 $84 $216 $219 $224 reversed $79 $-1 #
vertex $-1 $224 $225 #
vertex $-1 $85 $226 #
straight-curve $-1 54.281441694387645 20.076386186942376 76.531033774937271 0 0 -1 I I #
coedge $-1 $150 $150 $-1 $227 reversed $88 $-1 #
edge $-1 $228 0 $228 6.2831853071796004 $89 $229 forward 7 unknown #
vertex $-1 $92 $230 #
ellipse-curve $-1 46.789623202199024 24.602748137011311 8.5930338533237194 0.51503808176128008 0 0.85716729658548041 1.2857509448782207 0 -0.77255712264192011 1 I I #
coedge $-1 $154 $154 $-1 $231 reversed $95 $-1 #
edge $-1 $232 0 $232 6.2831853071796004 $96 $233 forward 7 unknown #
vertex $-1 $99 $234 #
ellipse-curve $-1 46.789623202199024 31.392291062114708 8.5930338533237194 0.51503808176128008 0 0.85716729658548041 1.2857509448782207 0 -0.77255712264192011 1 I I #
face $-1 $-1 $115 $15 $-1 $235 reversed single #
loop $-1 $-1 $174 $100 #
plane-surface $-1 0 35.91865301218364 0 0 -1 0 0 0 -1 forward_v I I I I #
coedge $-1 $236 $172 $175 $237 forward $101 $-1 #
coedge $-1 $178 $103 $104 $166 reversed $63 $-1 #
coedge $-1 $172 $236 $103 $164 reversed $101 $-1 #
edge $-1 $179 -13.094572631682512 $238 13.094572631682512 $163 $239 forward 7 unknown #
coedge $-1 $105 $104 $236 $240 forward $41 $-1 #
edge $-1 $170 -54.281441694387645 $238 54.281441694387645 $162 $241 forward 7 unknown #
coedge $-1 $175 $174 $105 $168 reversed $159 $-1 #
edge $-1 $242 -54.281441694387645 $169 54.281441694387645 $167 $243 forward 7 unknown #
vertex $-1 $107 $244 #
vertex $-1 $181 $245 #
straight-curve $-1 54.281441694387645 0 -13.094572631682512 0 -1 0 I I #
coedge $-1 $161 $163 $108 $173 reversed $101 $-1 #
edge $-1 $176 -35.91865301218364 $179 35.91865301218364 $172 $246 forward 7 unknown #
coedge $-1 $167 $109 $114 $182 forward $159 $-1 #
coedge $-1 $109 $167 $161 $237 reversed $159 $-1 #
vertex $-1 $110 $247 #
straight-curve $-1 0 35.91865301218364 13.094572631682512 -1 0 0 I I #
coedge $-1 $111 $162 $113 $181 reversed $63 $-1 #
vertex $-1 $173 $248 #
straight-curve $-1 0 -35.91865301218364 13.094572631682512 1 0 0 I I #
edge $-1 $116 -13.094572631682512 $170 13.094572631682512 $113 $249 forward 7 unknown #
edge $-1 $117 -13.094572631682512 $169 13.094572631682512 $114 $250 forward 7 unknown #
point $-1 54.281441694387645 -35.91865301218364 13.094572631682512 #
point $-1 54.281441694387645 35.91865301218364 13.094572631682512 #
face $-1 $-1 $202 $16 $-1 $251 reversed single #
loop $-1 $-1 $252 $119 #
plane-surface $-1 -54.281441694387645 0 0 1 0 0 0 0 -1 forward_v I I I I #
coedge $-1 $189 $205 $123 $192 forward $120 $-1 #
coedge $-1 $130 $188 $122 $190 forward $120 $-1 #
edge $-1 $196 -5.8622187907989147 $133 0.75008681173855019 $189 $253 forward 7 unknown #
coedge $-1 $124 $123 $252 $254 reversed $45 $-1 #
edge $-1 $255 -31.005108383515232 $196 -15.547558238229595 $188 $256 forward 7 unknown #
coedge $-1 $201 $200 $124 $194 forward $202 $-1 #
edge $-1 $195 15.547558238229595 $257 31.005108383515232 $193 $258 forward 7 unknown #
vertex $-1 $194 $259 #
vertex $-1 $192 $260 #
straight-curve $-1 -38.823891549102008 0 -8.4182847803290972 0 -1 0 I I #
coedge $-1 $261 $262 $127 $199 forward $186 $-1 #
edge $-1 $206 -35.91865301218364 $203 35.91865301218364 $198 $263 forward 7 unknown #
coedge $-1 $193 $128 $132 $208 forward $202 $-1 #
coedge $-1 $128 $193 $261 $264 reversed $202 $-1 #
loop $-1 $-1 $193 $185 #
vertex $-1 $264 $265 #
straight-curve $-1 -23.276333310872413 35.91865301218364 -1.8059791777916323 1 0 0 I I #
coedge $-1 $188 $130 $262 $266 forward $120 $-1 #
vertex $-1 $266 $267 #
straight-curve $-1 -23.276333310872413 -35.91865301218364 -1.8059791777916323 -1 0 0 I I #
edge $-1 $134 -0.75008681173855019 $195 5.8622187907989147 $200 $268 forward 7 unknown #
point $-1 -38.823891549102008 -35.91865301218364 -1.8059791777916323 #
point $-1 -38.823891549102008 35.91865301218364 -1.8059791777916323 #
loop $-1 $-1 $214 $136 #
plane-surface $-1 0 35.91865301218364 0 0 -1 0 0 0 -1 forward_v I I I I #
coedge $-1 $140 $139 $220 $269 reversed $49 $-1 #
coedge $-1 $270 $271 $140 $215 forward $211 $-1 #
edge $-1 $217 -76.491942122885121 $272 -59.011530721208402 $214 $273 forward 7 unknown #
coedge $-1 $146 $141 $271 $274 reversed $79 $-1 #
vertex $-1 $142 $275 #
straight-curve $-1 54.281441694387638 13.998759799781503 4.0914950749649215 0 1 0 I I #
coedge $-1 $276 $143 $146 $224 forward $137 $-1 #
coedge $-1 $143 $276 $213 $269 forward $137 $-1 #
vertex $-1 $144 $277 #
straight-curve $-1 8.5694538207673752 20.076386186942376 13.09457263168251 1 0 0 I I #
straight-curve $-1 -38.77511156949361 20.076386186942376 60.005514285993272 -0.85716729658548041 0 0.51503808176128008 I I #
edge $-1 $147 20.076386186942376 $278 35.91865301218364 $146 $279 forward 7 unknown #
point $-1 54.281441694387645 20.076386186942376 13.094572631682512 #
point $-1 54.281441694387645 20.076386186942376 4.0914950749649179 #
edge $-1 $280 1 $280 0 $150 $-1 forward 7 unknown #
vertex $-1 $151 $281 #
ellipse-curve $-1 45.805648503375878 24.602748137011311 6.9554249805691839 0.51503808176128008 0 0.85716729658548041 1.2857509448782207 0 -0.77255712264192011 1 I I #
point $-1 48.075374147077241 24.602748137011311 7.8204767306817908 #
edge $-1 $282 1 $282 0 $154 $-1 forward 7 unknown #
vertex $-1 $155 $283 #
ellipse-curve $-1 45.805648503375878 31.392291062114708 6.9554249805691839 0.51503808176128008 0 0.85716729658548041 1.2857509448782207 0 -0.77255712264192011 1 I I #
point $-1 48.075374147077241 31.392291062114708 7.8204767306817908 #
plane-surface $-1 54.281441694387645 0 0 -1 0 0 0 0 1 forward_v I I I I #
coedge $-1 $163 $161 $165 $240 reversed $101 $-1 #
edge $-1 $176 -13.094572631682512 $242 13.094572631682512 $175 $284 forward 7 unknown #
vertex $-1 $240 $285 #
straight-curve $-1 -54.281441694387645 -35.91865301218364 0 0 0 -1 I I #
edge $-1 $238 -35.91865301218364 $242 35.91865301218364 $236 $286 forward 7 unknown #
straight-curve $-1 0 -35.91865301218364 -13.094572631682512 -1 0 0 I I #
vertex $-1 $168 $287 #
straight-curve $-1 0 35.91865301218364 -13.094572631682512 1 0 0 I I #
point $-1 54.281441694387645 35.91865301218364 -13.094572631682512 #
point $-1 54.281441694387645 -35.91865301218364 -13.094572631682512 #
straight-curve $-1 -54.281441694387645 0 13.094572631682512 0 -1 0 I I #
point $-1 -54.281441694387645 35.91865301218364 13.094572631682512 #
point $-1 -54.281441694387645 -35.91865301218364 13.094572631682512 #
straight-curve $-1 54.281441694387645 -35.91865301218364 0 0 0 -1 I I #
straight-curve $-1 54.281441694387645 35.91865301218364 0 0 0 -1 I I #
plane-surface $-1 0 35.91865301218364 0 0 -1 0 0 0 -1 forward_v I I I I #
coedge $-1 $262 $261 $191 $254 forward $186 $-1 #
straight-curve $-1 -38.823891549102008 -35.91865301218364 -2.5560659895301825 0 0 1 I I #
edge $-1 $257 -35.91865301218364 $255 35.91865301218364 $252 $288 forward 7 unknown #
vertex $-1 $192 $289 #
straight-curve $-1 -23.276333310872413 -35.91865301218364 -8.4182847803290972 1 0 0 I I #
vertex $-1 $194 $290 #
straight-curve $-1 -23.276333310872413 35.91865301218364 -8.4182847803290972 -1 0 0 I I #
point $-1 -38.823891549102008 35.91865301218364 -8.4182847803290972 #
point $-1 -38.823891549102008 -35.91865301218364 -8.4182847803290972 #
coedge $-1 $252 $198 $201 $264 forward $186 $-1 #
coedge $-1 $198 $252 $205 $266 reversed $186 $-1 #
straight-curve $-1 -54.281441694387645 0 -1.8059791777916323 0 1 0 I I #
edge $-1 $203 1.8059791777916323 $257 8.4182847803290972 $201 $291 forward 7 unknown #
point $-1 -54.281441694387645 35.91865301218364 -1.8059791777916323 #
edge $-1 $206 1.8059791777916323 $255 8.4182847803290972 $262 $292 forward 7 unknown #
point $-1 -54.281441694387645 -35.91865301218364 -1.8059791777916323 #
straight-curve $-1 -38.823891549102008 35.91865301218364 -2.5560659895301825 0 0 -1 I I #
edge $-1 $272 -21.919893212402137 $221 -6.0776263871608727 $220 $293 forward 7 unknown #
coedge $-1 $271 $214 $276 $294 reversed $211 $-1 #
coedge $-1 $214 $270 $216 $274 forward $211 $-1 #
vertex $-1 $215 $295 #
straight-curve $-1 -11.284949545658831 35.91865301218364 43.48775821613053 -0.85716729658548041 0 0.51503808176128008 I I #
edge $-1 $278 -13.094572631682512 $217 -4.0914950749649224 $216 $296 forward 7 unknown #
point $-1 54.281441694387645 35.91865301218364 4.0914950749649224 #
coedge $-1 $220 $219 $270 $294 forward $137 $-1 #
point $-1 39.297804710010404 20.076386186942376 13.09457263168251 #
vertex $-1 $224 $297 #
straight-curve $-1 54.281441694387645 0 13.094572631682512 0 1 0 I I #
vertex $-1 $227 $298 #
point $-1 47.091399448254101 24.602748137011311 6.1828678579272642 #
vertex $-1 $231 $299 #
point $-1 47.091399448254101 31.392291062114708 6.1828678579272642 #
straight-curve $-1 -54.281441694387645 35.91865301218364 0 0 0 -1 I I #
point $-1 -54.281441694387645 -35.91865301218364 -13.094572631682512 #
straight-curve $-1 -54.281441694387645 0 -13.094572631682512 0 1 0 I I #
point $-1 -54.281441694387645 35.91865301218364 -13.094572631682512 #
straight-curve $-1 -54.281441694387645 0 -8.4182847803290972 0 -1 0 I I #
point $-1 -54.281441694387645 -35.91865301218364 -8.4182847803290972 #
point $-1 -54.281441694387645 35.91865301218364 -8.4182847803290972 #
straight-curve $-1 -54.281441694387645 35.91865301218364 0 0 0 -1 I I #
straight-curve $-1 -54.281441694387645 -35.91865301218364 0 0 0 -1 I I #
straight-curve $-1 39.297804710010411 13.998759799781503 13.09457263168251 0 -1 0 I I #
edge $-1 $278 -54.281441694387645 $272 -39.297804710010404 $270 $300 forward 7 unknown #
point $-1 39.297804710010404 35.91865301218364 13.09457263168251 #
straight-curve $-1 54.281441694387645 35.91865301218364 0 0 0 -1 I I #
point $-1 54.281441694387645 35.91865301218364 13.094572631682512 #
point $-1 45.033091380733964 24.602748137011311 5.6696740356909636 #
point $-1 45.033091380733964 31.392291062114708 5.6696740356909636 #
straight-curve $-1 0 35.91865301218364 13.094572631682512 -1 0 0 I I #
End-of-ACIS-data 