500 0 8 0           
7 Unknown 11 ACIS 5.0 NT 24 Fri Mar 26 18:22:13 1999 
-1 9.9999999999999995e-007 1e-010 
body $-1 $8 $-1 $9 #
body $-1 $10 $-1 $11 #
body $-1 $12 $-1 $13 #
body $-1 $14 $-1 $15 #
body $-1 $16 $-1 $17 #
body $-1 $18 $-1 $19 #
body $-1 $20 $-1 $21 #
body $-1 $22 $-1 $23 #
lump $-1 $-1 $24 $0 #
transform $-1 1 0 0 0 1 0 0 0 1 63.222144230475784 42.263155426728432 17.101571025818426 1 rotate no_reflect no_shear #
lump $-1 $-1 $25 $1 #
transform $-1 1 0 0 0 1 0 0 0 1 63.222144230475784 42.263155426728432 17.101571025818426 1 rotate no_reflect no_shear #
lump $-1 $-1 $26 $2 #
transform $-1 1 0 0 0 1 0 0 0 1 63.222144230475784 42.263155426728432 17.101571025818426 1 rotate no_reflect no_shear #
lump $-1 $-1 $27 $3 #
transform $-1 1 0 0 0 1 0 0 0 1 63.222144230475784 42.263155426728432 17.101571025818426 1 rotate no_reflect no_shear #
lump $-1 $-1 $28 $4 #
transform $-1 1 0 0 0 1 0 0 0 1 63.222144230475784 42.263155426728432 17.101571025818426 1 rotate no_reflect no_shear #
lump $-1 $-1 $29 $5 #
transform $-1 1 0 0 0 1 0 0 0 1 63.222144230475784 42.263155426728432 17.101571025818426 1 rotate no_reflect no_shear #
lump $-1 $-1 $30 $6 #
transform $-1 1 0 0 0 1 0 0 0 1 63.222144230475784 42.263155426728432 17.101571025818426 1 rotate no_reflect no_shear #
lump $-1 $-1 $31 $7 #
transform $-1 1 0 0 0 1 0 0 0 1 63.222144230475784 42.263155426728432 17.101571025818426 1 rotate no_reflect no_shear #
shell $-1 $-1 $-1 $32 $-1 $8 #
shell $-1 $-1 $-1 $33 $-1 $10 #
shell $-1 $-1 $-1 $34 $-1 $12 #
shell $-1 $-1 $-1 $35 $-1 $14 #
shell $-1 $-1 $-1 $36 $-1 $16 #
shell $-1 $-1 $-1 $37 $-1 $18 #
shell $-1 $-1 $-1 $38 $-1 $20 #
shell $-1 $-1 $-1 $39 $-1 $22 #
face $-1 $40 $41 $24 $-1 $42 forward single #
face $-1 $43 $44 $25 $-1 $45 reversed single #
face $-1 $46 $47 $26 $-1 $48 reversed single #
face $-1 $49 $50 $27 $-1 $51 forward single #
face $-1 $52 $53 $28 $-1 $54 forward single #
face $-1 $55 $56 $29 $-1 $57 reversed single #
face $-1 $58 $59 $30 $-1 $60 forward single #
face $-1 $61 $62 $31 $-1 $63 forward single #
face $-1 $64 $65 $24 $-1 $66 reversed single #
loop $-1 $-1 $67 $32 #
plane-surface $-1 0 0 17.101571025818426 0 0 1 1 0 0 forward_v I I I I #
face $-1 $68 $69 $25 $-1 $70 reversed single #
loop $-1 $-1 $71 $33 #
plane-surface $-1 0 -32.393069329244064 11.972926418673818 0 0 1 1 0 0 forward_v I I I I #
face $-1 $72 $73 $26 $-1 $74 reversed single #
loop $-1 $-1 $75 $34 #
plane-surface $-1 -165.5177234718247 -9.3528136032293059 87.948110978992872 0 -1 0 0.80901700255871778 0 -0.5877852410284794 forward_v I I I I #
face $-1 $76 $77 $27 $-1 $78 forward single #
loop $-1 $79 $80 $35 #
cone-surface $-1 -61.555069553679616 -18.760077623608161 15.069905097043904 0.80901700255871778 0 -0.5877852410284794 0.2938926205142397 0 0.40450850127935889 1 I I 0 1 0.5 forward I I I I #
face $-1 $81 $82 $28 $-1 $83 forward single #
loop $-1 $84 $85 $36 #
cone-surface $-1 -61.555069553679616 -13.115719211380853 15.069905097043904 0.80901700255871778 0 -0.5877852410284794 0.2938926205142397 0 0.40450850127935889 1 I I 0 1 0.5 forward I I I I #
face $-1 $86 $87 $29 $-1 $88 reversed single #
loop $-1 $-1 $89 $37 #
plane-surface $-1 -11.099942339219169 -15.937898417494502 115.92160365064677 0.80901700255871778 0 0.5877852410284794 0.5877852410284794 0 -0.80901700255871778 forward_v I I I I #
face $-1 $90 $91 $30 $-1 $92 forward single #
loop $-1 $93 $94 $38 #
cone-surface $-1 61.555069553679637 -18.760077623608161 15.069905097043886 -0.80901700255871778 0 -0.5877852410284794 0.2938926205142397 0 -0.40450850127935889 1 I I 0 1 0.5 forward I I I I #
face $-1 $95 $96 $31 $-1 $97 forward single #
loop $-1 $98 $99 $39 #
cone-surface $-1 61.555069553679637 -13.115719211380853 15.069905097043886 -0.80901700255871778 0 -0.5877852410284794 0.2938926205142397 0 -0.40450850127935889 1 I I 0 1 0.5 forward I I I I #
face $-1 $100 $101 $24 $-1 $102 reversed single #
loop $-1 $-1 $103 $40 #
plane-surface $-1 0 0 -17.101571025818426 0 0 1 1 0 0 forward_v I I I I #
coedge $-1 $104 $105 $106 $107 forward $41 $-1 #
face $-1 $108 $109 $25 $-1 $110 reversed single #
loop $-1 $-1 $111 $43 #
plane-surface $-1 0 -22.522983231759696 14.537248722246122 0 -1 0 0 0 -1 forward_v I I I I #
coedge $-1 $112 $113 $114 $115 reversed $44 $-1 #
face $-1 $116 $117 $26 $-1 $118 forward single #
loop $-1 $-1 $119 $46 #
plane-surface $-1 -63.222144230475791 -15.937898417494502 13.626024409297884 -0.80901700255871778 0 0.5877852410284794 0.5877852410284794 0 0.80901700255871778 forward_v I I I I #
coedge $-1 $120 $121 $122 $123 reversed $47 $-1 #
face $-1 $-1 $124 $27 $-1 $125 forward single #
loop $-1 $126 $127 $49 #
cone-surface $-1 -60.94830680176058 -18.760077623608161 14.629066166272544 0.80901700255871778 0 -0.5877852410284794 0.14694631025711985 0 0.20225425063967944 1 I I -0.70710678118654746 0.70710678118654746 0.25 forward I I I I #
loop $-1 $-1 $128 $35 #
coedge $-1 $80 $80 $129 $130 reversed $50 $-1 #
face $-1 $-1 $131 $28 $-1 $132 forward single #
loop $-1 $133 $134 $52 #
cone-surface $-1 -60.94830680176058 -13.115719211380853 14.629066166272544 0.80901700255871778 0 -0.5877852410284794 0.14694631025711985 0 0.20225425063967944 1 I I -0.70710678118654746 0.70710678118654746 0.25 forward I I I I #
loop $-1 $-1 $135 $36 #
coedge $-1 $85 $85 $136 $137 reversed $53 $-1 #
face $-1 $138 $139 $29 $-1 $140 forward single #
loop $-1 $-1 $141 $55 #
plane-surface $-1 91.195636902129735 -9.3528136032293059 190.24369022034176 0 -1 0 -0.80901700255871778 0 -0.5877852410284794 forward_v I I I I #
coedge $-1 $142 $143 $144 $145 reversed $56 $-1 #
face $-1 $-1 $146 $30 $-1 $147 forward single #
loop $-1 $148 $149 $58 #
cone-surface $-1 60.948306801760602 -18.760077623608161 14.629066166272526 -0.80901700255871778 0 -0.5877852410284794 0.14694631025711985 0 -0.20225425063967944 1 I I -0.70710678118654746 0.70710678118654746 0.25 forward I I I I #
loop $-1 $-1 $150 $38 #
coedge $-1 $94 $94 $151 $152 reversed $59 $-1 #
face $-1 $-1 $153 $31 $-1 $154 forward single #
loop $-1 $155 $156 $61 #
cone-surface $-1 60.948306801760602 -13.115719211380853 14.629066166272526 -0.80901700255871778 0 -0.5877852410284794 0.14694631025711985 0 -0.20225425063967944 1 I I -0.70710678118654746 0.70710678118654746 0.25 forward I I I I #
loop $-1 $-1 $157 $39 #
coedge $-1 $99 $99 $158 $159 reversed $62 $-1 #
face $-1 $160 $161 $24 $-1 $162 reversed single #
loop $-1 $-1 $163 $64 #
plane-surface $-1 0 -42.263155426728432 0 0 1 0 0 0 1 forward_v I I I I #
coedge $-1 $164 $165 $166 $167 forward $65 $-1 #
coedge $-1 $168 $67 $169 $170 forward $41 $-1 #
coedge $-1 $67 $168 $171 $172 forward $41 $-1 #
coedge $-1 $173 $174 $67 $107 reversed $175 $-1 #
edge $-1 $176 -42.263155426728432 $177 42.263155426728432 $106 $178 forward 7 unknown #
face $-1 $179 $180 $25 $-1 $181 reversed single #
loop $-1 $-1 $182 $68 #
plane-surface $-1 -63.222144230475784 0 0 1 0 0 0 0 -1 forward_v I I I I #
coedge $-1 $183 $184 $185 $186 reversed $69 $-1 #
coedge $-1 $187 $71 $188 $189 reversed $44 $-1 #
coedge $-1 $71 $187 $183 $190 forward $44 $-1 #
coedge $-1 $185 $191 $71 $115 forward $192 $-1 #
edge $-1 $193 -26.0666207621064 $194 -6.326448567137664 $114 $195 forward 7 unknown #
face $-1 $196 $197 $26 $-1 $198 forward single #
loop $-1 $-1 $199 $72 #
plane-surface $-1 0 -22.522983231759696 14.537248722246122 0 -1 0 0 0 -1 forward_v I I I I #
coedge $-1 $200 $201 $202 $203 reversed $73 $-1 #
coedge $-1 $121 $75 $204 $205 reversed $47 $-1 #
coedge $-1 $75 $120 $200 $206 reversed $47 $-1 #
coedge $-1 $202 $207 $75 $123 forward $208 $-1 #
edge $-1 $209 26.87248446367801 $210 30.348031080198542 $122 $211 forward 7 unknown #
loop $-1 $-1 $129 $76 #
plane-surface $-1 -63.222144230475791 -15.937898417494502 13.626024409297884 -0.80901700255871778 0 0.5877852410284794 0.5877852410284794 0 0.80901700255871778 forward_v I I I I #
loop $-1 $-1 $212 $49 #
coedge $-1 $127 $127 $128 $213 reversed $77 $-1 #
coedge $-1 $128 $128 $127 $213 forward $79 $-1 #
coedge $-1 $129 $129 $80 $130 forward $124 $-1 #
edge $-1 $214 0 $214 6.2831853071796004 $129 $215 forward 7 unknown #
loop $-1 $-1 $136 $81 #
plane-surface $-1 -63.222144230475791 -15.937898417494502 13.626024409297884 -0.80901700255871778 0 0.5877852410284794 0.5877852410284794 0 0.80901700255871778 forward_v I I I I #
loop $-1 $-1 $216 $52 #
coedge $-1 $134 $134 $135 $217 reversed $82 $-1 #
coedge $-1 $135 $135 $134 $217 forward $84 $-1 #
coedge $-1 $136 $136 $85 $137 forward $131 $-1 #
edge $-1 $218 0 $218 6.2831853071796004 $136 $219 forward 7 unknown #
face $-1 $220 $221 $29 $-1 $222 forward single #
loop $-1 $-1 $223 $86 #
plane-surface $-1 0 0 17.101571025818426 0 0 1 1 0 0 forward_v I I I I #
coedge $-1 $224 $225 $226 $227 reversed $87 $-1 #
coedge $-1 $228 $89 $229 $230 reversed $56 $-1 #
coedge $-1 $89 $228 $224 $231 forward $56 $-1 #
coedge $-1 $226 $232 $89 $145 forward $233 $-1 #
edge $-1 $234 -14.554034023012445 $235 -1.383864394482055 $144 $236 forward 7 unknown #
loop $-1 $-1 $151 $90 #
plane-surface $-1 -11.099942339219169 -15.937898417494502 115.92160365064677 0.80901700255871778 0 0.5877852410284794 0.5877852410284794 0 -0.80901700255871778 forward_v I I I I #
loop $-1 $-1 $237 $58 #
coedge $-1 $149 $149 $150 $238 reversed $91 $-1 #
coedge $-1 $150 $150 $149 $238 forward $93 $-1 #
coedge $-1 $151 $151 $94 $152 forward $146 $-1 #
edge $-1 $239 0 $239 6.2831853071796004 $151 $240 forward 7 unknown #
loop $-1 $-1 $158 $95 #
plane-surface $-1 -11.099942339219169 -15.937898417494502 115.92160365064677 0.80901700255871778 0 0.5877852410284794 0.5877852410284794 0 -0.80901700255871778 forward_v I I I I #
loop $-1 $-1 $241 $61 #
coedge $-1 $156 $156 $157 $242 reversed $96 $-1 #
coedge $-1 $157 $157 $156 $242 forward $98 $-1 #
coedge $-1 $158 $158 $99 $159 forward $153 $-1 #
edge $-1 $243 0 $243 6.2831853071796004 $158 $244 forward 7 unknown #
face $-1 $245 $246 $24 $-1 $247 reversed single #
loop $-1 $-1 $248 $100 #
plane-surface $-1 -63.222144230475784 0 0 1 0 0 0 0 -1 forward_v I I I I #
coedge $-1 $249 $171 $250 $251 forward $101 $-1 #
coedge $-1 $252 $103 $249 $253 forward $65 $-1 #
coedge $-1 $103 $252 $254 $255 forward $65 $-1 #
coedge $-1 $174 $173 $103 $167 reversed $175 $-1 #
edge $-1 $256 -42.263155426728432 $257 42.263155426728432 $166 $258 forward 7 unknown #
coedge $-1 $105 $104 $259 $260 forward $41 $-1 #
coedge $-1 $261 $262 $104 $170 reversed $246 $-1 #
edge $-1 $177 -63.222144230475784 $263 63.222144230475784 $169 $264 forward 7 unknown #
coedge $-1 $163 $265 $105 $172 reversed $101 $-1 #
edge $-1 $266 -63.222144230475784 $176 63.222144230475784 $171 $267 forward 7 unknown #
coedge $-1 $166 $106 $265 $268 forward $175 $-1 #
coedge $-1 $106 $166 $261 $269 reversed $175 $-1 #
loop $-1 $-1 $173 $245 #
vertex $-1 $107 $270 #
vertex $-1 $107 $271 #
straight-curve $-1 63.222144230475784 0 17.101571025818426 0 1 0 I I #
face $-1 $272 $273 $25 $-1 $274 forward single #
loop $-1 $-1 $188 $108 #
plane-surface $-1 0 -42.263155426728432 0 0 1 0 0 0 1 forward_v I I I I #
coedge $-1 $275 $276 $277 $278 forward $109 $-1 #
coedge $-1 $277 $111 $113 $190 reversed $69 $-1 #
coedge $-1 $111 $277 $279 $280 reversed $69 $-1 #
coedge $-1 $281 $114 $111 $186 forward $192 $-1 #
edge $-1 $194 4.7043020575507573 $282 9.8329466646953652 $185 $283 forward 7 unknown #
coedge $-1 $113 $112 $275 $284 reversed $44 $-1 #
coedge $-1 $285 $286 $112 $189 forward $180 $-1 #
edge $-1 $287 -63.222144230475784 $193 63.222144230475784 $188 $288 forward 7 unknown #
edge $-1 $289 -63.222144230475784 $194 63.222144230475784 $183 $290 forward 7 unknown #
coedge $-1 $114 $281 $285 $291 forward $192 $-1 #
loop $-1 $-1 $185 $272 #
vertex $-1 $189 $292 #
vertex $-1 $115 $293 #
straight-curve $-1 63.222144230475784 -16.196534664622032 11.972926418673818 0 1 0 I I #
face $-1 $-1 $208 $26 $-1 $294 reversed single #
loop $-1 $-1 $295 $116 #
plane-surface $-1 0 0 17.101571025818426 0 0 1 1 0 0 forward_v I I I I #
coedge $-1 $296 $297 $201 $298 forward $117 $-1 #
coedge $-1 $299 $119 $121 $206 forward $73 $-1 #
coedge $-1 $119 $299 $199 $298 reversed $73 $-1 #
coedge $-1 $300 $122 $119 $203 forward $208 $-1 #
edge $-1 $210 1.383864394482055 $301 14.554034023012445 $202 $302 forward 7 unknown #
coedge $-1 $303 $295 $120 $205 forward $197 $-1 #
edge $-1 $304 -22.061849856470147 $209 -19.536717505436563 $204 $305 forward 7 unknown #
edge $-1 $210 1.2799082646115467e-014 $304 4.2960118335316331 $121 $306 forward 7 unknown #
coedge $-1 $122 $300 $303 $307 reversed $208 $-1 #
loop $-1 $-1 $202 $196 #
vertex $-1 $307 $308 #
vertex $-1 $123 $309 #
straight-curve $-1 -63.222144230475784 -9.3528136032293059 43.974055489496436 0 0 -1 I I #
coedge $-1 $212 $212 $-1 $310 reversed $126 $-1 #
edge $-1 $311 0 $311 6.2831853071796004 $127 $312 forward 7 unknown #
vertex $-1 $130 $313 #
ellipse-curve $-1 -61.959578054958996 -18.760077623608161 15.363797717558159 -0.80901700255871778 0 0.5877852410284794 0.2938926205142397 0 0.40450850127935889 1 I I #
coedge $-1 $216 $216 $-1 $314 reversed $133 $-1 #
edge $-1 $315 0 $315 6.2831853071796004 $134 $316 forward 7 unknown #
vertex $-1 $137 $317 #
ellipse-curve $-1 -61.959578054958996 -13.115719211380853 15.363797717558159 -0.80901700255871778 0 0.5877852410284794 0.2938926205142397 0 0.40450850127935889 1 I I #
face $-1 $-1 $233 $29 $-1 $318 reversed single #
loop $-1 $-1 $229 $138 #
plane-surface $-1 0 -22.522983231759696 14.537248722246122 0 -1 0 0 0 -1 forward_v I I I I #
coedge $-1 $319 $320 $225 $321 forward $139 $-1 #
coedge $-1 $225 $141 $143 $231 reversed $87 $-1 #
coedge $-1 $141 $224 $223 $321 reversed $87 $-1 #
coedge $-1 $322 $144 $141 $227 forward $233 $-1 #
edge $-1 $235 -81.495820700872969 $323 -78.020274084352451 $226 $324 forward 7 unknown #
coedge $-1 $143 $142 $319 $325 reversed $56 $-1 #
coedge $-1 $326 $327 $142 $230 forward $221 $-1 #
edge $-1 $328 77.87525202052791 $234 82.17126385405949 $229 $329 forward 7 unknown #
edge $-1 $330 122.1482766274199 $235 126.44428846095151 $224 $331 forward 7 unknown #
coedge $-1 $144 $322 $326 $332 forward $233 $-1 #
loop $-1 $-1 $226 $220 #
vertex $-1 $230 $333 #
vertex $-1 $145 $334 #
straight-curve $-1 63.222144230475777 -7.9689492087472509 13.626024409297919 0 1 0 I I #
coedge $-1 $237 $237 $-1 $335 reversed $148 $-1 #
edge $-1 $336 0 $336 6.2831853071796004 $149 $337 forward 7 unknown #
vertex $-1 $152 $338 #
ellipse-curve $-1 61.959578054959024 -18.760077623608161 15.363797717558146 0.80901700255871778 0 0.5877852410284794 0.2938926205142397 0 -0.40450850127935889 1 I I #
coedge $-1 $241 $241 $-1 $339 reversed $155 $-1 #
edge $-1 $340 0 $340 6.2831853071796004 $156 $341 forward 7 unknown #
vertex $-1 $159 $342 #
ellipse-curve $-1 61.959578054959024 -13.115719211380853 15.363797717558146 0.80901700255871778 0 0.5877852410284794 0.2938926205142397 0 -0.40450850127935889 1 I I #
face $-1 $-1 $175 $24 $-1 $343 reversed single #
loop $-1 $-1 $261 $160 #
plane-surface $-1 0 42.263155426728432 0 0 -1 0 0 0 -1 forward_v I I I I #
coedge $-1 $344 $259 $262 $345 forward $161 $-1 #
coedge $-1 $265 $163 $164 $253 reversed $101 $-1 #
coedge $-1 $259 $344 $163 $251 reversed $161 $-1 #
edge $-1 $266 -17.101571025818426 $346 17.101571025818426 $250 $347 forward 7 unknown #
coedge $-1 $165 $164 $344 $348 forward $65 $-1 #
edge $-1 $257 -63.222144230475784 $346 63.222144230475784 $249 $349 forward 7 unknown #
coedge $-1 $262 $261 $165 $255 reversed $246 $-1 #
edge $-1 $350 -63.222144230475784 $256 63.222144230475784 $254 $351 forward 7 unknown #
vertex $-1 $167 $352 #
vertex $-1 $268 $353 #
straight-curve $-1 63.222144230475784 0 -17.101571025818426 0 -1 0 I I #
coedge $-1 $248 $250 $168 $260 reversed $161 $-1 #
edge $-1 $263 -42.263155426728432 $266 42.263155426728432 $259 $354 forward 7 unknown #
coedge $-1 $254 $169 $174 $269 forward $246 $-1 #
coedge $-1 $169 $254 $248 $345 reversed $246 $-1 #
vertex $-1 $170 $355 #
straight-curve $-1 0 42.263155426728432 17.101571025818426 -1 0 0 I I #
coedge $-1 $171 $249 $173 $268 reversed $101 $-1 #
vertex $-1 $260 $356 #
straight-curve $-1 0 -42.263155426728432 17.101571025818426 1 0 0 I I #
edge $-1 $176 -17.101571025818426 $257 17.101571025818426 $173 $357 forward 7 unknown #
edge $-1 $177 -17.101571025818426 $256 17.101571025818426 $174 $358 forward 7 unknown #
point $-1 63.222144230475784 -42.263155426728432 17.101571025818426 #
point $-1 63.222144230475784 42.263155426728432 17.101571025818426 #
face $-1 $-1 $192 $25 $-1 $359 reversed single #
loop $-1 $-1 $279 $179 #
plane-surface $-1 0 0 17.101571025818426 0 0 1 1 0 0 forward_v I I I I #
coedge $-1 $360 $182 $187 $284 forward $109 $-1 #
coedge $-1 $182 $360 $361 $362 reversed $109 $-1 #
coedge $-1 $184 $183 $182 $278 reversed $69 $-1 #
edge $-1 $363 -9.8329466646953652 $289 -4.7043020575507573 $182 $364 forward 7 unknown #
coedge $-1 $361 $365 $184 $280 forward $273 $-1 #
edge $-1 $282 -63.222144230475784 $363 63.222144230475784 $279 $366 forward 7 unknown #
coedge $-1 $191 $185 $365 $367 reversed $192 $-1 #
vertex $-1 $186 $368 #
straight-curve $-1 63.222144230475784 -22.522983231759696 7.2686243611230612 0 0 1 I I #
edge $-1 $289 6.326448567137664 $287 26.0666207621064 $275 $369 forward 7 unknown #
coedge $-1 $370 $188 $191 $291 reversed $180 $-1 #
coedge $-1 $188 $370 $360 $371 forward $180 $-1 #
vertex $-1 $189 $372 #
straight-curve $-1 0 -42.263155426728432 11.972926418673818 1 0 0 I I #
vertex $-1 $284 $373 #
straight-curve $-1 0 -22.522983231759696 11.972926418673818 1 0 0 I I #
edge $-1 $374 -17.101571025818426 $193 -11.972926418673818 $191 $375 forward 7 unknown #
point $-1 63.222144230475784 -42.263155426728432 11.972926418673818 #
point $-1 63.222144230475784 -22.522983231759696 11.972926418673818 #
plane-surface $-1 -63.222144230475784 0 0 1 0 0 0 0 -1 forward_v I I I I #
coedge $-1 $204 $376 $299 $377 forward $197 $-1 #
coedge $-1 $297 $199 $376 $378 reversed $117 $-1 #
coedge $-1 $199 $296 $300 $379 reversed $117 $-1 #
edge $-1 $301 -18.949119623583741 $380 -14.653107790052125 $199 $381 forward 7 unknown #
coedge $-1 $201 $200 $295 $377 reversed $73 $-1 #
coedge $-1 $207 $202 $297 $379 forward $208 $-1 #
vertex $-1 $379 $382 #
straight-curve $-1 -63.222144230475784 -7.9689492087472509 13.626024409297893 0 -1 0 I I #
coedge $-1 $376 $204 $207 $307 forward $197 $-1 #
vertex $-1 $205 $383 #
straight-curve $-1 -82.758861735912348 -9.3528136032293059 17.10157102581843 -1 0 0 I I #
straight-curve $-1 -63.222144230475791 -9.3528136032293059 13.626024409297884 0.5877852410284794 0 0.80901700255871778 I I #
edge $-1 $209 9.3528136032293059 $384 22.522983231759696 $207 $385 forward 7 unknown #
point $-1 -63.222144230475784 -9.3528136032293059 17.101571025818426 #
point $-1 -63.222144230475784 -9.3528136032293059 13.626024409297894 #
edge $-1 $386 1 $386 0 $212 $-1 forward 7 unknown #
vertex $-1 $213 $387 #
ellipse-curve $-1 -61.150561052400256 -18.760077623608161 14.776012476529663 -0.80901700255871778 0 0.5877852410284794 0.2938926205142397 0 0.40450850127935889 1 I I #
point $-1 -61.66568543444474 -18.760077623608161 15.768306218837502 #
edge $-1 $388 1 $388 0 $216 $-1 forward 7 unknown #
vertex $-1 $217 $389 #
ellipse-curve $-1 -61.150561052400256 -13.115719211380853 14.776012476529663 -0.80901700255871778 0 0.5877852410284794 0.2938926205142397 0 0.40450850127935889 1 I I #
point $-1 -61.66568543444474 -13.115719211380853 15.768306218837502 #
plane-surface $-1 63.222144230475784 0 0 -1 0 0 0 0 1 forward_v I I I I #
coedge $-1 $390 $223 $228 $325 forward $139 $-1 #
coedge $-1 $223 $390 $322 $391 forward $139 $-1 #
edge $-1 $323 -17.624325779410917 $330 -15.099193428377362 $223 $392 forward 7 unknown #
coedge $-1 $232 $226 $320 $391 reversed $233 $-1 #
vertex $-1 $321 $393 #
straight-curve $-1 63.222144230475784 -9.3528136032293059 95.121845110170881 0 0 1 I I #
edge $-1 $330 1.383864394482055 $328 14.554034023012445 $319 $394 forward 7 unknown #
coedge $-1 $327 $229 $232 $332 reversed $221 $-1 #
coedge $-1 $229 $326 $390 $395 reversed $221 $-1 #
vertex $-1 $395 $396 #
straight-curve $-1 14.923088100402651 -22.522983231759696 80.103973988970637 0.5877852410284794 0 -0.80901700255871778 I I #
vertex $-1 $325 $397 #
straight-curve $-1 -11.099942339219169 -9.3528136032293059 115.92160365064677 0.5877852410284794 0 -0.80901700255871778 I I #
edge $-1 $398 -9.8329466646953652 $234 -6.3574000481748456 $232 $399 forward 7 unknown #
point $-1 63.222144230475784 -22.522983231759696 13.626024409297907 #
point $-1 63.222144230475791 -9.3528136032293059 13.626024409297912 #
edge $-1 $400 1 $400 0 $237 $-1 forward 7 unknown #
vertex $-1 $238 $401 #
ellipse-curve $-1 61.150561052400278 -18.760077623608161 14.776012476529646 0.80901700255871778 0 0.5877852410284794 0.2938926205142397 0 -0.40450850127935889 1 I I #
point $-1 62.253470675473238 -18.760077623608161 14.959289216278767 #
edge $-1 $402 1 $402 0 $241 $-1 forward 7 unknown #
vertex $-1 $242 $403 #
ellipse-curve $-1 61.150561052400278 -13.115719211380853 14.776012476529646 0.80901700255871778 0 0.5877852410284794 0.2938926205142397 0 -0.40450850127935889 1 I I #
point $-1 62.253470675473238 -13.115719211380853 14.959289216278767 #
plane-surface $-1 63.222144230475784 0 0 -1 0 0 0 0 1 forward_v I I I I #
coedge $-1 $250 $248 $252 $348 reversed $161 $-1 #
edge $-1 $263 -17.101571025818426 $350 17.101571025818426 $262 $404 forward 7 unknown #
vertex $-1 $348 $405 #
straight-curve $-1 -63.222144230475784 -42.263155426728432 0 0 0 -1 I I #
edge $-1 $346 -42.263155426728432 $350 42.263155426728432 $344 $406 forward 7 unknown #
straight-curve $-1 0 -42.263155426728432 -17.101571025818426 -1 0 0 I I #
vertex $-1 $255 $407 #
straight-curve $-1 0 42.263155426728432 -17.101571025818426 1 0 0 I I #
point $-1 63.222144230475784 42.263155426728432 -17.101571025818426 #
point $-1 63.222144230475784 -42.263155426728432 -17.101571025818426 #
straight-curve $-1 -63.222144230475784 0 17.101571025818426 0 -1 0 I I #
point $-1 -63.222144230475784 42.263155426728432 17.101571025818426 #
point $-1 -63.222144230475784 -42.263155426728432 17.101571025818426 #
straight-curve $-1 63.222144230475784 -42.263155426728432 0 0 0 -1 I I #
straight-curve $-1 63.222144230475784 42.263155426728432 0 0 0 -1 I I #
plane-surface $-1 63.222144230475784 0 0 -1 0 0 0 0 1 forward_v I I I I #
coedge $-1 $276 $275 $286 $371 reversed $109 $-1 #
coedge $-1 $408 $279 $276 $362 forward $273 $-1 #
edge $-1 $363 22.522983231759696 $409 42.263155426728432 $276 $410 forward 7 unknown #
vertex $-1 $362 $411 #
straight-curve $-1 -63.222144230475784 -22.522983231759696 7.2686243611230612 0 0 -1 I I #
coedge $-1 $279 $408 $281 $367 forward $273 $-1 #
straight-curve $-1 0 -22.522983231759696 17.101571025818426 -1 0 0 I I #
edge $-1 $374 -42.263155426728432 $282 -22.522983231759696 $281 $412 forward 7 unknown #
point $-1 63.222144230475784 -22.522983231759696 17.101571025818426 #
straight-curve $-1 -63.222144230475784 -16.196534664622032 11.972926418673818 0 -1 0 I I #
coedge $-1 $286 $285 $408 $413 reversed $180 $-1 #
edge $-1 $409 -17.101571025818426 $287 -11.972926418673818 $360 $414 forward 7 unknown #
point $-1 -63.222144230475784 -42.263155426728432 11.972926418673818 #
point $-1 -63.222144230475784 -22.522983231759696 11.972926418673818 #
vertex $-1 $367 $415 #
straight-curve $-1 63.222144230475784 -42.263155426728432 0 0 0 -1 I I #
coedge $-1 $295 $303 $296 $378 forward $197 $-1 #
edge $-1 $380 -14.554034023012445 $304 -1.383864394482055 $295 $416 forward 7 unknown #
edge $-1 $384 -63.222144230475784 $380 -60.697011879442208 $376 $417 forward 7 unknown #
edge $-1 $301 6.3574000481748332 $384 9.8329466646953652 $300 $418 forward 7 unknown #
vertex $-1 $298 $419 #
straight-curve $-1 -52.084131385250124 -22.522983231759696 28.956184368296192 0.5877852410284794 0 0.80901700255871778 I I #
point $-1 -63.222144230475784 -22.522983231759696 13.626024409297894 #
point $-1 -60.697011879442201 -9.3528136032293059 17.101571025818426 #
vertex $-1 $379 $420 #
straight-curve $-1 -63.222144230475784 0 17.101571025818426 0 -1 0 I I #
vertex $-1 $310 $421 #
point $-1 -60.856668431886021 -18.760077623608161 15.180520977809023 #
vertex $-1 $314 $422 #
point $-1 -60.856668431886021 -13.115719211380853 15.180520977809023 #
coedge $-1 $320 $319 $327 $395 forward $139 $-1 #
edge $-1 $398 -22.522983231759696 $323 -9.3528136032293059 $322 $423 forward 7 unknown #
straight-curve $-1 45.597818451064867 -9.3528136032293059 17.10157102581843 -1 0 0 I I #
point $-1 63.222144230475784 -9.3528136032293059 17.101571025818426 #
straight-curve $-1 60.697011879442215 -7.9689492087472509 17.101571025818437 0 -1 0 I I #
edge $-1 $328 60.697011879442229 $398 63.222144230475784 $390 $424 forward 7 unknown #
point $-1 60.697011879442229 -22.522983231759696 17.10157102581843 #
point $-1 60.697011879442229 -9.3528136032293059 17.10157102581843 #
vertex $-1 $391 $425 #
straight-curve $-1 63.222144230475784 -22.522983231759696 7.2686243611230612 0 0 -1 I I #
vertex $-1 $335 $426 #
point $-1 61.44445367291452 -18.760077623608161 14.371503975250286 #
vertex $-1 $339 $427 #
point $-1 61.44445367291452 -13.115719211380853 14.371503975250286 #
straight-curve $-1 -63.222144230475784 42.263155426728432 0 0 0 -1 I I #
point $-1 -63.222144230475784 -42.263155426728432 -17.101571025818426 #
straight-curve $-1 -63.222144230475784 0 -17.101571025818426 0 1 0 I I #
point $-1 -63.222144230475784 42.263155426728432 -17.101571025818426 #
coedge $-1 $365 $361 $370 $413 forward $273 $-1 #
vertex $-1 $362 $428 #
straight-curve $-1 -63.222144230475784 0 17.101571025818426 0 -1 0 I I #
point $-1 -63.222144230475784 -22.522983231759696 17.101571025818426 #
straight-curve $-1 63.222144230475784 0 17.101571025818426 0 1 0 I I #
edge $-1 $409 -63.222144230475784 $374 63.222144230475784 $370 $429 forward 7 unknown #
straight-curve $-1 -63.222144230475784 -42.263155426728432 0 0 0 -1 I I #
point $-1 63.222144230475784 -42.263155426728432 17.101571025818426 #
straight-curve $-1 -60.697011879442208 -7.9689492087472509 17.10157102581843 0 1 0 I I #
straight-curve $-1 0 -22.522983231759696 17.101571025818426 1 0 0 I I #
straight-curve $-1 -63.222144230475784 -22.522983231759696 7.2686243611230612 0 0 1 I I #
point $-1 -60.697011879442208 -22.522983231759696 17.101571025818426 #
point $-1 -63.222144230475784 -22.522983231759696 17.101571025818426 #
point $-1 -60.746052551120904 -18.760077623608161 14.482119856015425 #
point $-1 -60.746052551120904 -13.115719211380853 14.482119856015425 #
straight-curve $-1 63.222144230475784 0 17.101571025818426 0 1 0 I I #
straight-curve $-1 0 -22.522983231759696 17.101571025818426 1 0 0 I I #
point $-1 63.222144230475784 -22.522983231759696 17.101571025818426 #
point $-1 60.746052551120926 -18.760077623608161 14.482119856015407 #
point $-1 60.746052551120926 -13.115719211380853 14.482119856015407 #
point $-1 -63.222144230475784 -42.263155426728432 17.101571025818426 #
straight-curve $-1 0 -42.263155426728432 17.101571025818426 1 0 0 I I #
End-of-ACIS-data 