500 0 6 0           
7 Unknown 11 ACIS 5.0 NT 24 Thu Mar 25 16:19:31 1999 
-1 9.9999999999999995e-007 1e-010 
body $-1 $6 $-1 $7 #
body $-1 $8 $-1 $9 #
body $-1 $10 $-1 $11 #
body $-1 $12 $-1 $13 #
body $-1 $14 $-1 $15 #
body $-1 $16 $-1 $17 #
lump $-1 $-1 $18 $0 #
transform $-1 1 0 0 0 1 0 0 0 1 53.358561967833495 21.839279827851357 10.517739046095411 1 rotate no_reflect no_shear #
lump $-1 $-1 $19 $1 #
transform $-1 1 0 0 0 1 0 0 0 1 53.358561967833495 21.839279827851357 10.517739046095411 1 rotate no_reflect no_shear #
lump $-1 $-1 $20 $2 #
transform $-1 1 0 0 0 1 0 0 0 1 53.358561967833495 21.839279827851357 10.517739046095411 1 rotate no_reflect no_shear #
lump $-1 $-1 $21 $3 #
transform $-1 1 0 0 0 1 0 0 0 1 53.358561967833495 21.839279827851357 10.517739046095411 1 rotate no_reflect no_shear #
lump $-1 $-1 $22 $4 #
transform $-1 1 0 0 0 1 0 0 0 1 53.358561967833495 21.839279827851357 10.517739046095411 1 rotate no_reflect no_shear #
lump $-1 $-1 $23 $5 #
transform $-1 1 0 0 0 1 0 0 0 1 53.358561967833495 21.839279827851357 10.517739046095411 1 rotate no_reflect no_shear #
shell $-1 $-1 $-1 $24 $-1 $6 #
shell $-1 $-1 $-1 $25 $-1 $8 #
shell $-1 $-1 $-1 $26 $-1 $10 #
shell $-1 $-1 $-1 $27 $-1 $12 #
shell $-1 $-1 $-1 $28 $-1 $14 #
shell $-1 $-1 $-1 $29 $-1 $16 #
face $-1 $30 $31 $18 $-1 $32 forward single #
face $-1 $33 $34 $19 $-1 $35 forward single #
face $-1 $36 $37 $20 $-1 $38 reversed single #
face $-1 $39 $40 $21 $-1 $41 forward single #
face $-1 $42 $43 $22 $-1 $44 reversed single #
face $-1 $45 $46 $23 $-1 $47 forward single #
face $-1 $48 $49 $18 $-1 $50 reversed single #
loop $-1 $-1 $51 $24 #
plane-surface $-1 0 0 10.517739046095411 0 0 1 1 0 0 forward_v I I I I #
face $-1 $52 $53 $19 $-1 $54 reversed single #
loop $-1 $-1 $55 $25 #
plane-surface $-1 -53.358561967833495 0 0 1 0 0 0 0 -1 forward_v I I I I #
face $-1 $56 $57 $20 $-1 $58 reversed single #
loop $-1 $-1 $59 $26 #
plane-surface $-1 12.22247924176439 -79.961591989270545 95.64878068618934 -1 0 0 0 -0.54463904215088732 0.83867056331134215 forward_v I I I I #
face $-1 $60 $61 $21 $-1 $62 forward single #
loop $-1 $63 $64 $27 #
cone-surface $-1 -0.38764989123370697 -17.479634616432801 6.8001471533611157 0 0.54463904215088732 -0.83867056331134215 1.5 0 0 1 I I 0 1 1.5 forward I I I I #
face $-1 $65 $66 $22 $-1 $67 reversed single #
loop $-1 $-1 $68 $28 #
plane-surface $-1 -12.997779024231789 43.329669758194285 119.43782957960167 1 0 0 0 -0.54463904215088732 -0.83867056331134215 forward_v I I I I #
face $-1 $69 $70 $23 $-1 $71 forward single #
loop $-1 $72 $73 $29 #
cone-surface $-1 -0.38764989123370697 17.479634616432801 6.800147153361114 0 -0.54463904215088732 -0.83867056331134215 1.5 0 0 1 I I 0 1 1.5 forward I I I I #
face $-1 $74 $75 $18 $-1 $76 reversed single #
loop $-1 $-1 $77 $30 #
plane-surface $-1 0 0 -10.517739046095411 0 0 1 1 0 0 forward_v I I I I #
coedge $-1 $78 $79 $80 $81 forward $31 $-1 #
face $-1 $82 $83 $19 $-1 $84 forward single #
loop $-1 $-1 $85 $33 #
plane-surface $-1 0 21.839279827851357 0 0 -1 0 0 0 -1 forward_v I I I I #
coedge $-1 $86 $87 $88 $89 forward $34 $-1 #
face $-1 $90 $91 $20 $-1 $92 reversed single #
loop $-1 $-1 $93 $36 #
plane-surface $-1 -0.38764989123369986 -21.839279827851342 6.1482702400971903 0 -0.54463904215088732 0.83867056331134215 1 0 0 forward_v I I I I #
coedge $-1 $94 $95 $96 $97 reversed $37 $-1 #
face $-1 $-1 $98 $21 $-1 $99 forward single #
loop $-1 $100 $101 $39 #
cone-surface $-1 -0.38764989123370697 -16.075706023153188 4.6382867411424193 0 0.54463904215088732 -0.83867056331134215 0.75 0 0 1 I I -0.70710678118654757 0.70710678118654757 0.75 forward I I I I #
loop $-1 $-1 $102 $27 #
coedge $-1 $64 $64 $103 $104 reversed $40 $-1 #
face $-1 $105 $106 $22 $-1 $107 reversed single #
loop $-1 $-1 $108 $42 #
plane-surface $-1 -0.38764989123369986 -14.792642403224917 29.937319133509519 0 0.54463904215088732 0.83867056331134215 1 0 0 forward_v I I I I #
coedge $-1 $109 $110 $111 $112 reversed $43 $-1 #
face $-1 $-1 $113 $23 $-1 $114 forward single #
loop $-1 $115 $116 $45 #
cone-surface $-1 -0.38764989123370697 16.075706023153188 4.6382867411424176 0 -0.54463904215088732 -0.83867056331134215 0.75 0 0 1 I I -0.70710678118654757 0.70710678118654757 0.75 forward I I I I #
loop $-1 $-1 $117 $29 #
coedge $-1 $73 $73 $118 $119 reversed $46 $-1 #
face $-1 $120 $121 $18 $-1 $122 reversed single #
loop $-1 $-1 $123 $48 #
plane-surface $-1 0 -21.839279827851357 0 0 1 0 0 0 1 forward_v I I I I #
coedge $-1 $124 $125 $126 $127 forward $49 $-1 #
coedge $-1 $128 $51 $129 $130 forward $31 $-1 #
coedge $-1 $51 $128 $131 $132 forward $31 $-1 #
coedge $-1 $133 $134 $51 $81 reversed $135 $-1 #
edge $-1 $136 -21.839279827851357 $137 21.839279827851357 $80 $138 forward 7 unknown #
face $-1 $139 $140 $19 $-1 $141 reversed single #
loop $-1 $-1 $88 $52 #
plane-surface $-1 -59.912477261869881 0 9.766256432799711 0 0 1 1 0 0 forward_v I I I I #
coedge $-1 $142 $143 $87 $144 forward $53 $-1 #
coedge $-1 $145 $55 $146 $147 reversed $34 $-1 #
coedge $-1 $55 $145 $85 $144 reversed $34 $-1 #
coedge $-1 $148 $149 $55 $89 reversed $83 $-1 #
edge $-1 $150 -21.839279827851357 $151 21.839279827851357 $88 $152 forward 7 unknown #
face $-1 $153 $154 $20 $-1 $155 reversed single #
loop $-1 $-1 $156 $56 #
plane-surface $-1 -12.997779024231789 -79.961591989270545 95.64878068618934 1 0 0 0 0.54463904215088732 -0.83867056331134215 forward_v I I I I #
coedge $-1 $157 $158 $159 $160 reversed $57 $-1 #
coedge $-1 $95 $59 $161 $162 reversed $37 $-1 #
coedge $-1 $59 $94 $157 $163 reversed $37 $-1 #
coedge $-1 $159 $164 $59 $97 forward $165 $-1 #
edge $-1 $166 18.141516166783916 $167 24.869907966288153 $96 $168 forward 7 unknown #
loop $-1 $-1 $103 $60 #
plane-surface $-1 -0.38764989123369986 -21.839279827851342 6.1482702400971903 0 -0.54463904215088732 0.83867056331134215 1 0 0 forward_v I I I I #
loop $-1 $-1 $169 $39 #
coedge $-1 $101 $101 $102 $170 reversed $61 $-1 #
coedge $-1 $102 $102 $101 $170 forward $63 $-1 #
coedge $-1 $103 $103 $64 $104 forward $98 $-1 #
edge $-1 $171 5.4213349875790395e-016 $171 6.2831853071796013 $103 $172 forward 7 unknown #
face $-1 $173 $174 $22 $-1 $175 forward single #
loop $-1 $-1 $176 $65 #
plane-surface $-1 12.22247924176439 43.329669758194285 119.43782957960167 -1 0 0 0 0.54463904215088732 0.83867056331134215 forward_v I I I I #
coedge $-1 $177 $178 $179 $180 reversed $66 $-1 #
coedge $-1 $110 $68 $181 $182 reversed $43 $-1 #
coedge $-1 $68 $109 $177 $183 reversed $43 $-1 #
coedge $-1 $179 $184 $68 $112 forward $174 $-1 #
edge $-1 $185 -0.17444494875421412 $186 6.5539468507500089 $111 $187 forward 7 unknown #
loop $-1 $-1 $118 $69 #
plane-surface $-1 -0.38764989123369986 -14.792642403224917 29.937319133509519 0 0.54463904215088732 0.83867056331134215 1 0 0 forward_v I I I I #
loop $-1 $-1 $188 $45 #
coedge $-1 $116 $116 $117 $189 reversed $70 $-1 #
coedge $-1 $117 $117 $116 $189 forward $72 $-1 #
coedge $-1 $118 $118 $73 $119 forward $113 $-1 #
edge $-1 $190 5.1424346464091278e-017 $190 6.2831853071796004 $118 $191 forward 7 unknown #
face $-1 $192 $193 $18 $-1 $194 reversed single #
loop $-1 $-1 $195 $74 #
plane-surface $-1 -53.358561967833495 0 0 1 0 0 0 0 -1 forward_v I I I I #
coedge $-1 $196 $131 $195 $197 forward $75 $-1 #
coedge $-1 $198 $77 $196 $199 forward $49 $-1 #
coedge $-1 $77 $198 $200 $201 forward $49 $-1 #
coedge $-1 $134 $133 $77 $127 reversed $135 $-1 #
edge $-1 $202 -21.839279827851357 $203 21.839279827851357 $126 $204 forward 7 unknown #
coedge $-1 $79 $78 $205 $206 forward $31 $-1 #
coedge $-1 $207 $208 $78 $130 reversed $193 $-1 #
edge $-1 $137 -53.358561967833495 $209 53.358561967833495 $129 $210 forward 7 unknown #
coedge $-1 $123 $211 $79 $132 reversed $75 $-1 #
edge $-1 $212 -53.358561967833495 $136 53.358561967833495 $131 $213 forward 7 unknown #
coedge $-1 $126 $80 $211 $214 forward $135 $-1 #
coedge $-1 $80 $126 $207 $215 reversed $135 $-1 #
loop $-1 $-1 $133 $192 #
vertex $-1 $81 $216 #
vertex $-1 $81 $217 #
straight-curve $-1 53.358561967833495 0 10.517739046095411 0 1 0 I I #
face $-1 $218 $219 $19 $-1 $220 reversed single #
loop $-1 $-1 $221 $82 #
plane-surface $-1 -59.912477261869881 0 5.1795631033745027 0 0 1 1 0 0 forward_v I I I I #
coedge $-1 $222 $85 $223 $224 reversed $53 $-1 #
coedge $-1 $85 $222 $148 $225 reversed $53 $-1 #
edge $-1 $150 -9.766256432799711 $226 -5.1795631033745027 $85 $227 forward 7 unknown #
coedge $-1 $87 $86 $221 $228 forward $34 $-1 #
coedge $-1 $229 $230 $86 $147 forward $231 $-1 #
edge $-1 $232 5.1795631033745027 $151 9.766256432799711 $146 $233 forward 7 unknown #
coedge $-1 $234 $88 $143 $225 forward $83 $-1 #
coedge $-1 $88 $234 $229 $235 forward $83 $-1 #
vertex $-1 $144 $236 #
vertex $-1 $235 $237 #
straight-curve $-1 -53.358561967833495 0 9.766256432799711 0 -1 0 I I #
face $-1 $-1 $165 $20 $-1 $238 forward single #
loop $-1 $-1 $239 $90 #
plane-surface $-1 0 -21.839279827851357 0 0 1 0 0 0 1 forward_v I I I I #
coedge $-1 $240 $241 $242 $243 reversed $91 $-1 #
coedge $-1 $244 $93 $95 $163 forward $57 $-1 #
coedge $-1 $93 $244 $240 $245 forward $57 $-1 #
coedge $-1 $242 $96 $93 $160 forward $165 $-1 #
edge $-1 $167 -12.41630418738124 $246 12.80395407861494 $159 $247 forward 7 unknown #
coedge $-1 $248 $249 $94 $162 forward $154 $-1 #
edge $-1 $250 -41.676120102997487 $166 -37.306651296999263 $161 $251 forward 7 unknown #
edge $-1 $167 -8.0226874458766737 $250 1.6755591966779756e-014 $95 $252 forward 7 unknown #
coedge $-1 $96 $242 $248 $253 forward $165 $-1 #
loop $-1 $-1 $242 $153 #
vertex $-1 $162 $254 #
vertex $-1 $97 $255 #
straight-curve $-1 12.22247924176439 -39.980795994635272 10.517739046095407 0 1 0 I I #
coedge $-1 $169 $169 $-1 $256 reversed $100 $-1 #
edge $-1 $257 0 $257 6.2831853071796004 $101 $258 forward 7 unknown #
vertex $-1 $104 $259 #
ellipse-curve $-1 -0.38764989123370697 -18.475083928099242 8.3330046430962934 0 -0.54463904215088732 0.83867056331134215 1.5 0 0 1 I I #
face $-1 $-1 $260 $22 $-1 $261 reversed single #
loop $-1 $-1 $111 $105 #
plane-surface $-1 0 0 10.517739046095411 0 0 1 1 0 0 forward_v I I I I #
coedge $-1 $262 $263 $264 $265 reversed $106 $-1 #
coedge $-1 $266 $108 $110 $183 forward $66 $-1 #
coedge $-1 $108 $266 $262 $267 forward $66 $-1 #
coedge $-1 $264 $111 $108 $180 forward $174 $-1 #
edge $-1 $186 -12.80395407861494 $268 12.41630418738124 $179 $269 forward 7 unknown #
coedge $-1 $270 $271 $109 $182 forward $260 $-1 #
edge $-1 $272 -53.570644549703644 $185 -49.20117574370542 $181 $273 forward 7 unknown #
edge $-1 $186 35.655872209826057 $272 43.678559655702735 $110 $274 forward 7 unknown #
coedge $-1 $111 $264 $270 $275 forward $174 $-1 #
vertex $-1 $112 $276 #
vertex $-1 $112 $277 #
straight-curve $-1 -12.997779024231789 21.664834879097143 10.517739046095414 0 -1 0 I I #
coedge $-1 $188 $188 $-1 $278 reversed $115 $-1 #
edge $-1 $279 0 $279 6.2831853071796004 $116 $280 forward 7 unknown #
vertex $-1 $119 $281 #
ellipse-curve $-1 -0.38764989123370697 18.475083928099245 8.3330046430962987 0 0.54463904215088732 0.83867056331134215 1.5 0 0 1 I I #
face $-1 $-1 $135 $18 $-1 $282 reversed single #
loop $-1 $-1 $207 $120 #
plane-surface $-1 0 21.839279827851357 0 0 -1 0 0 0 -1 forward_v I I I I #
coedge $-1 $205 $283 $123 $197 reversed $121 $-1 #
coedge $-1 $211 $123 $124 $199 reversed $75 $-1 #
edge $-1 $212 -10.517739046095411 $284 10.517739046095411 $195 $285 forward 7 unknown #
coedge $-1 $125 $124 $283 $286 forward $49 $-1 #
edge $-1 $203 -53.358561967833495 $284 53.358561967833495 $196 $287 forward 7 unknown #
coedge $-1 $208 $207 $125 $201 reversed $193 $-1 #
edge $-1 $288 -53.358561967833495 $202 53.358561967833495 $200 $289 forward 7 unknown #
vertex $-1 $127 $290 #
vertex $-1 $214 $291 #
straight-curve $-1 53.358561967833495 0 -10.517739046095411 0 -1 0 I I #
coedge $-1 $292 $195 $128 $206 reversed $121 $-1 #
edge $-1 $209 -21.839279827851357 $212 21.839279827851357 $205 $293 forward 7 unknown #
coedge $-1 $200 $129 $134 $215 forward $193 $-1 #
coedge $-1 $129 $200 $292 $294 reversed $193 $-1 #
vertex $-1 $130 $295 #
straight-curve $-1 0 21.839279827851357 10.517739046095411 -1 0 0 I I #
coedge $-1 $131 $196 $133 $214 reversed $75 $-1 #
vertex $-1 $206 $296 #
straight-curve $-1 0 -21.839279827851357 10.517739046095411 1 0 0 I I #
edge $-1 $136 -10.517739046095411 $203 10.517739046095411 $133 $297 forward 7 unknown #
edge $-1 $137 -10.517739046095411 $202 10.517739046095411 $134 $298 forward 7 unknown #
point $-1 53.358561967833495 -21.839279827851357 10.517739046095411 #
point $-1 53.358561967833495 21.839279827851357 10.517739046095411 #
face $-1 $-1 $231 $19 $-1 $299 reversed single #
loop $-1 $-1 $300 $139 #
plane-surface $-1 -66.466392555906268 0 7.4729097680871064 1 0 0 0 0 -1 forward_v I I I I #
coedge $-1 $301 $223 $145 $228 reversed $140 $-1 #
coedge $-1 $143 $142 $300 $302 reversed $53 $-1 #
coedge $-1 $221 $303 $142 $224 forward $140 $-1 #
edge $-1 $304 -6.5539152940363863 $226 6.5539152940363863 $142 $305 forward 7 unknown #
edge $-1 $150 -6.5539152940363863 $306 6.5539152940363863 $143 $307 forward 7 unknown #
vertex $-1 $144 $308 #
straight-curve $-1 -53.358561967833495 21.839279827851357 0 0 0 -1 I I #
edge $-1 $232 -21.839279827851357 $226 21.839279827851357 $221 $309 forward 7 unknown #
coedge $-1 $310 $146 $149 $235 reversed $231 $-1 #
coedge $-1 $146 $310 $301 $311 reversed $231 $-1 #
loop $-1 $-1 $146 $218 #
vertex $-1 $147 $312 #
straight-curve $-1 -53.358561967833495 -21.839279827851357 0 0 0 1 I I #
coedge $-1 $149 $148 $313 $314 forward $83 $-1 #
edge $-1 $315 -6.5539152940363863 $151 6.5539152940363863 $229 $316 forward 7 unknown #
point $-1 -53.358561967833495 21.839279827851357 9.766256432799711 #
point $-1 -53.358561967833495 -21.839279827851357 9.766256432799711 #
plane-surface $-1 0 0 10.517739046095411 0 0 1 1 0 0 forward_v I I I I #
coedge $-1 $249 $248 $241 $317 forward $154 $-1 #
coedge $-1 $241 $156 $158 $245 reversed $91 $-1 #
coedge $-1 $156 $240 $239 $317 reversed $91 $-1 #
coedge $-1 $164 $159 $156 $243 forward $165 $-1 #
edge $-1 $246 -24.869907966288153 $318 -18.141516166783916 $242 $319 forward 7 unknown #
coedge $-1 $158 $157 $249 $320 reversed $57 $-1 #
edge $-1 $321 -1.6755591966779756e-014 $246 8.0226874458766737 $240 $322 forward 7 unknown #
vertex $-1 $160 $323 #
straight-curve $-1 -0.19382494561684993 -15.110888028347119 10.517739046095411 -1 0 0 I I #
coedge $-1 $239 $161 $164 $253 reversed $154 $-1 #
coedge $-1 $161 $239 $244 $320 forward $154 $-1 #
vertex $-1 $162 $324 #
straight-curve $-1 12.22247924176439 -21.839279827851357 47.82439034309467 0 0 1 I I #
straight-curve $-1 12.22247924176439 -21.839279827851342 6.1482702400971903 0 -0.83867056331134215 -0.54463904215088732 I I #
edge $-1 $318 -12.997779024231789 $166 12.22247924176439 $248 $325 forward 7 unknown #
point $-1 12.22247924176439 -21.839279827851357 10.517739046095411 #
point $-1 12.22247924176439 -15.110888028347119 10.517739046095411 #
edge $-1 $326 1 $326 0 $169 $-1 forward 7 unknown #
vertex $-1 $170 $327 #
ellipse-curve $-1 -0.38764989123370697 -16.484185304766353 5.2672896636259257 0 -0.54463904215088732 0.83867056331134215 1.5 0 0 1 I I #
point $-1 1.112350108766293 -18.475083928099249 8.3330046430963058 #
loop $-1 $-1 $181 $173 #
plane-surface $-1 0 21.839279827851357 0 0 -1 0 0 0 -1 forward_v I I I I #
coedge $-1 $263 $176 $178 $267 reversed $106 $-1 #
coedge $-1 $176 $262 $328 $329 reversed $106 $-1 #
coedge $-1 $184 $179 $176 $265 forward $174 $-1 #
edge $-1 $268 -6.5539468507500089 $330 0.17444494875421412 $264 $331 forward 7 unknown #
coedge $-1 $178 $177 $271 $332 reversed $66 $-1 #
edge $-1 $333 -43.678559655702735 $268 -35.655872209826057 $262 $334 forward 7 unknown #
vertex $-1 $180 $335 #
straight-curve $-1 -0.19382494561684993 15.110888028347137 10.517739046095411 1 0 0 I I #
coedge $-1 $328 $181 $184 $275 reversed $260 $-1 #
coedge $-1 $181 $328 $266 $332 forward $260 $-1 #
vertex $-1 $182 $336 #
straight-curve $-1 -12.997779024231789 21.839279827851357 59.718914789800834 0 0 1 I I #
straight-curve $-1 -12.997779024231789 -14.792642403224917 29.937319133509519 0 0.83867056331134215 -0.54463904215088732 I I #
edge $-1 $330 -12.22247924176439 $185 12.997779024231789 $270 $337 forward 7 unknown #
point $-1 -12.997779024231789 21.839279827851357 10.517739046095411 #
point $-1 -12.997779024231789 15.110888028347134 10.517739046095414 #
edge $-1 $338 1 $338 0 $188 $-1 forward 7 unknown #
vertex $-1 $189 $339 #
ellipse-curve $-1 -0.38764989123370697 16.484185304766353 5.2672896636259239 0 0.54463904215088732 0.83867056331134215 1.5 0 0 1 I I #
point $-1 1.112350108766293 18.475083928099249 8.3330046430963041 #
plane-surface $-1 53.358561967833495 0 0 -1 0 0 0 0 1 forward_v I I I I #
coedge $-1 $195 $292 $198 $286 reversed $121 $-1 #
vertex $-1 $286 $340 #
straight-curve $-1 -53.358561967833495 -21.839279827851357 0 0 0 -1 I I #
edge $-1 $284 -21.839279827851357 $288 21.839279827851357 $283 $341 forward 7 unknown #
straight-curve $-1 0 -21.839279827851357 -10.517739046095411 -1 0 0 I I #
vertex $-1 $201 $342 #
straight-curve $-1 0 21.839279827851357 -10.517739046095411 1 0 0 I I #
point $-1 53.358561967833495 21.839279827851357 -10.517739046095411 #
point $-1 53.358561967833495 -21.839279827851357 -10.517739046095411 #
coedge $-1 $283 $205 $208 $294 forward $121 $-1 #
straight-curve $-1 -53.358561967833495 0 10.517739046095411 0 -1 0 I I #
edge $-1 $209 -10.517739046095411 $288 10.517739046095411 $208 $343 forward 7 unknown #
point $-1 -53.358561967833495 21.839279827851357 10.517739046095411 #
point $-1 -53.358561967833495 -21.839279827851357 10.517739046095411 #
straight-curve $-1 53.358561967833495 -21.839279827851357 0 0 0 -1 I I #
straight-curve $-1 53.358561967833495 21.839279827851357 0 0 0 -1 I I #
plane-surface $-1 0 -21.839279827851357 0 0 1 0 0 0 1 forward_v I I I I #
coedge $-1 $344 $313 $222 $302 forward $219 $-1 #
coedge $-1 $303 $221 $230 $311 forward $140 $-1 #
edge $-1 $306 -2.2933466647126046 $304 2.2933466647126037 $222 $345 forward 7 unknown #
coedge $-1 $223 $301 $344 $346 forward $140 $-1 #
vertex $-1 $224 $347 #
straight-curve $-1 -59.912477261869881 21.839279827851357 5.1795631033745027 1 0 0 I I #
vertex $-1 $225 $348 #
straight-curve $-1 -59.912477261869881 21.839279827851357 9.766256432799711 -1 0 0 I I #
point $-1 -53.358561967833495 21.839279827851357 5.1795631033745027 #
straight-curve $-1 -53.358561967833495 0 5.1795631033745027 0 1 0 I I #
coedge $-1 $230 $229 $349 $350 forward $231 $-1 #
edge $-1 $232 -6.5539152940363863 $351 6.5539152940363863 $230 $352 forward 7 unknown #
point $-1 -53.358561967833495 -21.839279827851357 5.1795631033745027 #
coedge $-1 $300 $349 $234 $314 reversed $219 $-1 #
edge $-1 $306 -21.839279827851357 $315 21.839279827851357 $313 $353 forward 7 unknown #
vertex $-1 $314 $354 #
straight-curve $-1 -59.912477261869881 -21.839279827851357 9.766256432799711 1 0 0 I I #
edge $-1 $318 37.306651296999263 $321 41.676120102997487 $239 $355 forward 7 unknown #
vertex $-1 $253 $356 #
straight-curve $-1 -12.997779024231789 -39.980795994635272 10.517739046095407 0 -1 0 I I #
edge $-1 $321 -12.80395407861494 $250 12.41630418738124 $249 $357 forward 7 unknown #
vertex $-1 $320 $358 #
straight-curve $-1 -12.997779024231789 -21.839279827851342 6.1482702400971903 0 0.83867056331134215 0.54463904215088732 I I #
point $-1 -12.997779024231789 -15.110888028347119 10.517739046095411 #
point $-1 12.22247924176439 -21.839279827851357 6.1482702400971814 #
straight-curve $-1 0 -21.839279827851357 10.517739046095411 1 0 0 I I #
vertex $-1 $256 $359 #
point $-1 1.112350108766293 -16.484185304766353 5.2672896636259257 #
coedge $-1 $271 $270 $263 $329 forward $260 $-1 #
edge $-1 $330 49.20117574370542 $333 53.570644549703644 $328 $360 forward 7 unknown #
vertex $-1 $275 $361 #
straight-curve $-1 12.22247924176439 21.664834879097143 10.517739046095414 0 1 0 I I #
edge $-1 $333 -12.41630418738124 $272 12.80395407861494 $271 $362 forward 7 unknown #
vertex $-1 $332 $363 #
straight-curve $-1 12.22247924176439 -14.792642403224917 29.937319133509519 0 -0.83867056331134215 0.54463904215088732 I I #
point $-1 12.22247924176439 15.110888028347134 10.517739046095414 #
point $-1 -12.997779024231789 21.839279827851357 6.1482702400971903 #
straight-curve $-1 0 21.839279827851357 10.517739046095411 -1 0 0 I I #
vertex $-1 $278 $364 #
point $-1 1.112350108766293 16.484185304766353 5.2672896636259239 #
point $-1 -53.358561967833495 -21.839279827851357 -10.517739046095411 #
straight-curve $-1 -53.358561967833495 0 -10.517739046095411 0 1 0 I I #
point $-1 -53.358561967833495 21.839279827851357 -10.517739046095411 #
straight-curve $-1 -53.358561967833495 21.839279827851357 0 0 0 -1 I I #
coedge $-1 $349 $300 $303 $346 reversed $219 $-1 #
straight-curve $-1 -66.466392555906268 21.839279827851357 7.4729097680871064 0 0 -1 I I #
edge $-1 $351 -21.839279827851357 $304 21.839279827851357 $344 $365 forward 7 unknown #
point $-1 -66.466392555906268 21.839279827851357 5.1795631033745027 #
point $-1 -66.466392555906268 21.839279827851357 9.766256432799711 #
coedge $-1 $313 $344 $310 $350 reversed $219 $-1 #
edge $-1 $315 -2.2933466647126046 $351 2.2933466647126037 $349 $366 forward 7 unknown #
vertex $-1 $346 $367 #
straight-curve $-1 -59.912477261869881 -21.839279827851357 5.1795631033745027 -1 0 0 I I #
straight-curve $-1 -66.466392555906268 0 9.766256432799711 0 -1 0 I I #
point $-1 -66.466392555906268 -21.839279827851357 9.766256432799711 #
straight-curve $-1 -12.997779024231789 -21.839279827851357 47.82439034309467 0 0 -1 I I #
point $-1 -12.997779024231789 -21.839279827851357 10.517739046095411 #
straight-curve $-1 -0.19382494561684993 -21.839279827851357 6.1482702400971805 1 0 0 I I #
point $-1 -12.997779024231789 -21.839279827851357 6.1482702400971814 #
point $-1 -0.38764989123370697 -15.667226741540023 4.009283818658913 #
straight-curve $-1 12.22247924176439 21.839279827851357 59.718914789800834 0 0 -1 I I #
point $-1 12.22247924176439 21.839279827851357 10.517739046095411 #
straight-curve $-1 -0.19382494561684993 21.839279827851357 6.1482702400971903 -1 0 0 I I #
point $-1 12.22247924176439 21.839279827851357 6.1482702400971903 #
point $-1 -0.38764989123370697 15.667226741540023 4.0092838186589113 #
straight-curve $-1 -66.466392555906268 0 5.1795631033745027 0 1 0 I I #
straight-curve $-1 -66.466392555906268 -21.839279827851357 7.4729097680871064 0 0 -1 I I #
point $-1 -66.466392555906268 -21.839279827851357 5.1795631033745027 #
End-of-ACIS-data 