500 0 7 0           
7 Unknown 11 ACIS 5.0 NT 24 Fri Mar 26 03:21:37 1999 
-1 9.9999999999999995e-007 1e-010 
body $-1 $7 $-1 $8 #
body $-1 $9 $-1 $10 #
body $-1 $11 $-1 $12 #
body $-1 $13 $-1 $14 #
body $-1 $15 $-1 $16 #
body $-1 $17 $-1 $18 #
body $-1 $19 $-1 $20 #
lump $-1 $-1 $21 $0 #
transform $-1 1 0 0 0 1 0 0 0 1 63.101290932950832 34.040457138194284 16.090237503997759 1 rotate no_reflect no_shear #
lump $-1 $-1 $22 $1 #
transform $-1 1 0 0 0 1 0 0 0 1 63.101290932950832 34.040457138194284 16.090237503997759 1 rotate no_reflect no_shear #
lump $-1 $-1 $23 $2 #
transform $-1 1 0 0 0 1 0 0 0 1 63.101290932950832 34.040457138194284 16.090237503997759 1 rotate no_reflect no_shear #
lump $-1 $-1 $24 $3 #
transform $-1 1 0 0 0 1 0 0 0 1 63.101290932950832 34.040457138194284 16.090237503997759 1 rotate no_reflect no_shear #
lump $-1 $-1 $25 $4 #
transform $-1 1 0 0 0 1 0 0 0 1 63.101290932950832 34.040457138194284 16.090237503997759 1 rotate no_reflect no_shear #
lump $-1 $-1 $26 $5 #
transform $-1 1 0 0 0 1 0 0 0 1 63.101290932950832 34.040457138194284 16.090237503997759 1 rotate no_reflect no_shear #
lump $-1 $-1 $27 $6 #
transform $-1 1 0 0 0 1 0 0 0 1 63.101290932950832 34.040457138194284 16.090237503997759 1 rotate no_reflect no_shear #
shell $-1 $-1 $-1 $28 $-1 $7 #
shell $-1 $-1 $-1 $29 $-1 $9 #
shell $-1 $-1 $-1 $30 $-1 $11 #
shell $-1 $-1 $-1 $31 $-1 $13 #
shell $-1 $-1 $-1 $32 $-1 $15 #
shell $-1 $-1 $-1 $33 $-1 $17 #
shell $-1 $-1 $-1 $34 $-1 $19 #
face $-1 $35 $36 $21 $-1 $37 forward single #
face $-1 $38 $39 $22 $-1 $40 forward single #
face $-1 $41 $42 $23 $-1 $43 reversed single #
face $-1 $44 $45 $24 $-1 $46 forward single #
face $-1 $47 $48 $25 $-1 $49 forward single #
face $-1 $50 $51 $26 $-1 $52 reversed single #
face $-1 $53 $54 $27 $-1 $55 forward single #
face $-1 $56 $57 $21 $-1 $58 reversed single #
loop $-1 $-1 $59 $28 #
plane-surface $-1 0 0 16.090237503997759 0 0 1 1 0 0 forward_v I I I I #
face $-1 $60 $61 $22 $-1 $62 reversed single #
loop $-1 $-1 $63 $29 #
plane-surface $-1 -63.101290932950832 0 0 1 0 0 0 0 -1 forward_v I I I I #
face $-1 $64 $65 $23 $-1 $66 reversed single #
loop $-1 $-1 $67 $30 #
plane-surface $-1 53.332058258090242 -34.040457138194284 8.8815625534494558 0 -0.74314483375859142 0.66913059716165679 1 0 0 forward_v I I I I #
face $-1 $68 $69 $24 $-1 $70 forward single #
loop $-1 $71 $72 $31 #
cone-surface $-1 49.145244254578557 -28.888014535247635 10.768755146022105 0 0.74314483375859142 -0.66913059716165679 1.5 0 0 1 I I 0 1 1.5 forward I I I I #
face $-1 $73 $74 $25 $-1 $75 forward single #
loop $-1 $76 $77 $32 #
cone-surface $-1 57.518872261601913 -28.888014535247635 10.768755146022105 0 0.74314483375859142 -0.66913059716165679 1.5 0 0 1 I I 0 1 1.5 forward I I I I #
face $-1 $78 $79 $26 $-1 $80 reversed single #
loop $-1 $-1 $81 $33 #
plane-surface $-1 -52.330058636007529 104.9889302814436 131.63218702291354 1 0 0 0 -0.84804810408105047 -0.52991925155115449 forward_v I I I I #
face $-1 $82 $83 $27 $-1 $84 forward single #
loop $-1 $85 $86 $34 #
cone-surface $-1 -42.129283851030138 27.911031930639538 9.4955505183528608 0 -0.84804810408105047 -0.52991925155115449 2 0 0 1 I I 0 1 2 forward I I I I #
face $-1 $87 $88 $21 $-1 $89 reversed single #
loop $-1 $-1 $90 $35 #
plane-surface $-1 0 0 -16.090237503997759 0 0 1 1 0 0 forward_v I I I I #
coedge $-1 $91 $92 $93 $94 forward $36 $-1 #
face $-1 $95 $96 $22 $-1 $97 reversed single #
loop $-1 $-1 $98 $38 #
plane-surface $-1 0 0 -16.090237503997759 0 0 1 1 0 0 forward_v I I I I #
coedge $-1 $99 $100 $101 $102 forward $39 $-1 #
face $-1 $103 $104 $23 $-1 $105 reversed single #
loop $-1 $-1 $106 $41 #
plane-surface $-1 43.562825583229653 -127.82725385883481 93.327571520723126 1 0 0 0 0.74314483375859142 -0.66913059716165679 forward_v I I I I #
coedge $-1 $107 $108 $109 $110 reversed $42 $-1 #
face $-1 $-1 $111 $24 $-1 $112 forward single #
loop $-1 $113 $114 $44 #
cone-surface $-1 49.145244254578557 -26.42357326596116 8.5497623154493603 0 0.74314483375859142 -0.66913059716165679 0.75 0 0 1 I I -0.70710678118654757 0.70710678118654757 0.75 forward I I I I #
loop $-1 $-1 $115 $31 #
coedge $-1 $72 $72 $116 $117 reversed $45 $-1 #
face $-1 $-1 $118 $25 $-1 $119 forward single #
loop $-1 $120 $121 $47 #
cone-surface $-1 57.518872261601913 -26.42357326596116 8.5497623154493603 0 0.74314483375859142 -0.66913059716165679 0.75 0 0 1 I I -0.70710678118654757 0.70710678118654757 0.75 forward I I I I #
loop $-1 $-1 $122 $32 #
coedge $-1 $77 $77 $123 $124 reversed $48 $-1 #
face $-1 $125 $126 $26 $-1 $127 reversed single #
loop $-1 $-1 $128 $50 #
plane-surface $-1 -42.129283851030138 -2.0369300000678692 64.755009296711634 0 0.84804810408105047 0.52991925155115449 1 0 0 forward_v I I I I #
coedge $-1 $129 $130 $131 $132 reversed $51 $-1 #
face $-1 $-1 $133 $27 $-1 $134 forward single #
loop $-1 $135 $136 $53 #
cone-surface $-1 -42.129283851030138 23.767690488626556 6.906503522897804 0 -0.84804810408105047 -0.52991925155115449 1 0 0 1 I I -0.70710678118654746 0.70710678118654746 1 forward I I I I #
loop $-1 $-1 $137 $34 #
coedge $-1 $86 $86 $138 $139 reversed $54 $-1 #
face $-1 $140 $141 $21 $-1 $142 reversed single #
loop $-1 $-1 $143 $56 #
plane-surface $-1 0 -34.040457138194284 0 0 1 0 0 0 1 forward_v I I I I #
coedge $-1 $144 $145 $146 $147 forward $57 $-1 #
coedge $-1 $148 $59 $149 $150 forward $36 $-1 #
coedge $-1 $59 $148 $151 $152 forward $36 $-1 #
coedge $-1 $153 $154 $59 $94 reversed $155 $-1 #
edge $-1 $156 -34.040457138194284 $157 34.040457138194284 $93 $158 forward 7 unknown #
face $-1 $159 $160 $22 $-1 $161 reversed single #
loop $-1 $-1 $162 $60 #
plane-surface $-1 -68.486907081422487 -21.410827557433425 0 0 1 0 0 0 1 forward_v I I I I #
coedge $-1 $163 $164 $100 $165 forward $61 $-1 #
coedge $-1 $166 $63 $167 $168 reversed $39 $-1 #
coedge $-1 $63 $166 $98 $165 reversed $39 $-1 #
coedge $-1 $169 $170 $63 $102 reversed $171 $-1 #
edge $-1 $172 -16.090237503997759 $173 16.090237503997759 $101 $174 forward 7 unknown #
face $-1 $175 $176 $23 $-1 $177 forward single #
loop $-1 $-1 $178 $64 #
plane-surface $-1 0 -34.040457138194284 0 0 1 0 0 0 1 forward_v I I I I #
coedge $-1 $179 $180 $181 $182 reversed $65 $-1 #
coedge $-1 $183 $67 $184 $185 reversed $42 $-1 #
coedge $-1 $67 $183 $179 $186 forward $42 $-1 #
coedge $-1 $181 $187 $67 $110 forward $176 $-1 #
edge $-1 $188 -36.435261803905711 $189 -16.896796454184532 $109 $190 forward 7 unknown #
loop $-1 $-1 $116 $68 #
plane-surface $-1 53.332058258090242 -34.040457138194284 8.8815625534494558 0 -0.74314483375859142 0.66913059716165679 1 0 0 forward_v I I I I #
loop $-1 $-1 $191 $44 #
coedge $-1 $114 $114 $115 $192 reversed $69 $-1 #
coedge $-1 $115 $115 $114 $192 forward $71 $-1 #
coedge $-1 $116 $116 $72 $117 forward $111 $-1 #
edge $-1 $193 8.8006027207469067e-016 $193 6.2831853071796013 $116 $194 forward 7 unknown #
loop $-1 $-1 $123 $73 #
plane-surface $-1 53.332058258090242 -34.040457138194284 8.8815625534494558 0 -0.74314483375859142 0.66913059716165679 1 0 0 forward_v I I I I #
loop $-1 $-1 $195 $47 #
coedge $-1 $121 $121 $122 $196 reversed $74 $-1 #
coedge $-1 $122 $122 $121 $196 forward $76 $-1 #
coedge $-1 $123 $123 $77 $124 forward $118 $-1 #
edge $-1 $197 8.8006027207469067e-016 $197 6.2831853071796013 $123 $198 forward 7 unknown #
face $-1 $199 $200 $26 $-1 $201 forward single #
loop $-1 $-1 $202 $78 #
plane-surface $-1 -31.928509066052747 104.9889302814436 131.63218702291354 -1 0 0 0 0.84804810408105047 0.52991925155115449 forward_v I I I I #
coedge $-1 $203 $204 $205 $206 reversed $79 $-1 #
coedge $-1 $130 $81 $207 $208 reversed $51 $-1 #
coedge $-1 $81 $129 $203 $209 reversed $51 $-1 #
coedge $-1 $205 $210 $81 $132 forward $200 $-1 #
edge $-1 $211 18.454008002527516 $212 24.122271741773144 $131 $213 forward 7 unknown #
loop $-1 $-1 $138 $82 #
plane-surface $-1 -42.129283851030138 -2.0369300000678692 64.755009296711634 0 0.84804810408105047 0.52991925155115449 1 0 0 forward_v I I I I #
loop $-1 $-1 $214 $53 #
coedge $-1 $136 $136 $137 $215 reversed $83 $-1 #
coedge $-1 $137 $137 $136 $215 forward $85 $-1 #
coedge $-1 $138 $138 $86 $139 forward $133 $-1 #
edge $-1 $216 0 $216 6.2831853071796004 $138 $217 forward 7 unknown #
face $-1 $218 $219 $21 $-1 $220 reversed single #
loop $-1 $-1 $221 $87 #
plane-surface $-1 -63.101290932950832 0 0 1 0 0 0 0 -1 forward_v I I I I #
coedge $-1 $222 $151 $223 $224 forward $88 $-1 #
coedge $-1 $225 $90 $222 $226 forward $57 $-1 #
coedge $-1 $90 $225 $227 $228 forward $57 $-1 #
coedge $-1 $154 $153 $90 $147 reversed $155 $-1 #
edge $-1 $229 -34.040457138194284 $230 34.040457138194284 $146 $231 forward 7 unknown #
coedge $-1 $92 $91 $232 $233 forward $36 $-1 #
coedge $-1 $234 $235 $91 $150 reversed $219 $-1 #
edge $-1 $157 -63.101290932950832 $236 63.101290932950832 $149 $237 forward 7 unknown #
coedge $-1 $143 $238 $92 $152 reversed $88 $-1 #
edge $-1 $239 -63.101290932950832 $156 63.101290932950832 $151 $240 forward 7 unknown #
coedge $-1 $146 $93 $238 $241 forward $155 $-1 #
coedge $-1 $93 $146 $234 $242 reversed $155 $-1 #
loop $-1 $-1 $153 $218 #
vertex $-1 $94 $243 #
vertex $-1 $94 $244 #
straight-curve $-1 63.101290932950832 0 16.090237503997759 0 1 0 I I #
face $-1 $245 $171 $22 $-1 $246 reversed single #
loop $-1 $-1 $247 $95 #
plane-surface $-1 -73.872523229894142 -18.866746271857632 0 1 0 0 0 0 -1 forward_v I I I I #
coedge $-1 $248 $249 $250 $251 forward $96 $-1 #
coedge $-1 $252 $98 $248 $253 forward $61 $-1 #
coedge $-1 $98 $252 $169 $254 forward $61 $-1 #
edge $-1 $172 16.32266498628184 $255 21.410827557433425 $98 $256 forward 7 unknown #
coedge $-1 $100 $99 $257 $258 forward $39 $-1 #
coedge $-1 $259 $260 $99 $168 forward $261 $-1 #
edge $-1 $262 -21.410827557433425 $173 -16.32266498628184 $167 $263 forward 7 unknown #
coedge $-1 $264 $101 $164 $254 reversed $171 $-1 #
coedge $-1 $101 $264 $259 $265 reversed $171 $-1 #
loop $-1 $-1 $101 $159 #
vertex $-1 $165 $266 #
vertex $-1 $265 $267 #
straight-curve $-1 -63.101290932950832 -16.32266498628184 0 0 0 1 I I #
face $-1 $-1 $268 $23 $-1 $269 reversed single #
loop $-1 $-1 $181 $103 #
plane-surface $-1 0 0 16.090237503997759 0 0 1 1 0 0 forward_v I I I I #
coedge $-1 $270 $271 $180 $272 forward $104 $-1 #
coedge $-1 $180 $106 $108 $186 reversed $65 $-1 #
coedge $-1 $106 $179 $178 $272 reversed $65 $-1 #
coedge $-1 $273 $109 $106 $182 forward $176 $-1 #
edge $-1 $189 -36.363889709181372 $274 -29.87316979122312 $181 $275 forward 7 unknown #
coedge $-1 $108 $107 $270 $276 reversed $42 $-1 #
coedge $-1 $277 $278 $107 $185 forward $268 $-1 #
edge $-1 $279 -8.0886120426179993 $188 1.6116167998394069 $184 $280 forward 7 unknown #
edge $-1 $281 0 $189 9.7002288424574061 $179 $282 forward 7 unknown #
coedge $-1 $109 $273 $277 $283 forward $176 $-1 #
vertex $-1 $185 $284 #
vertex $-1 $110 $285 #
straight-curve $-1 26.666029129045121 -27.549737220236032 16.090237503997759 -1 0 0 I I #
coedge $-1 $191 $191 $-1 $286 reversed $113 $-1 #
edge $-1 $287 0 $287 6.2831853071796004 $114 $288 forward 7 unknown #
vertex $-1 $117 $289 #
ellipse-curve $-1 49.145244254578557 -30.795097179215162 12.485900028723606 0 -0.74314483375859142 0.66913059716165679 1.5 0 0 1 I I #
coedge $-1 $195 $195 $-1 $290 reversed $120 $-1 #
edge $-1 $291 0 $291 6.2831853071796004 $121 $292 forward 7 unknown #
vertex $-1 $124 $293 #
ellipse-curve $-1 57.518872261601913 -30.795097179215162 12.485900028723606 0 -0.74314483375859142 0.66913059716165679 1.5 0 0 1 I I #
face $-1 $-1 $294 $26 $-1 $295 reversed single #
loop $-1 $-1 $131 $125 #
plane-surface $-1 0 0 16.090237503997759 0 0 1 1 0 0 forward_v I I I I #
coedge $-1 $296 $297 $298 $299 reversed $126 $-1 #
coedge $-1 $300 $128 $130 $209 forward $79 $-1 #
coedge $-1 $128 $300 $296 $301 forward $79 $-1 #
coedge $-1 $298 $131 $128 $206 forward $200 $-1 #
edge $-1 $212 -31.26541671049246 $302 -10.863867140537678 $205 $303 forward 7 unknown #
coedge $-1 $304 $305 $129 $208 forward $294 $-1 #
edge $-1 $306 -58.796974490941011 $211 -49.725856007459015 $207 $307 forward 7 unknown #
edge $-1 $212 57.38444736628152 $306 68.080914276388597 $130 $308 forward 7 unknown #
coedge $-1 $131 $298 $304 $309 forward $200 $-1 #
vertex $-1 $208 $310 #
vertex $-1 $132 $311 #
straight-curve $-1 -52.330058636007529 52.4944651407218 16.090237503997756 0 -1 0 I I #
coedge $-1 $214 $214 $-1 $312 reversed $135 $-1 #
edge $-1 $313 0 $313 6.2831853071796004 $136 $314 forward 7 unknown #
vertex $-1 $139 $315 #
ellipse-curve $-1 -42.129283851030138 31.206325268571472 11.554678262256765 0 0.84804810408105047 0.52991925155115449 2 0 0 1 I I #
face $-1 $-1 $155 $21 $-1 $316 reversed single #
loop $-1 $-1 $234 $140 #
plane-surface $-1 0 34.040457138194284 0 0 -1 0 0 0 -1 forward_v I I I I #
coedge $-1 $317 $232 $235 $318 forward $141 $-1 #
coedge $-1 $238 $143 $144 $226 reversed $88 $-1 #
coedge $-1 $232 $317 $143 $224 reversed $141 $-1 #
edge $-1 $239 -16.090237503997759 $319 16.090237503997759 $223 $320 forward 7 unknown #
coedge $-1 $145 $144 $317 $321 forward $57 $-1 #
edge $-1 $230 -63.101290932950832 $319 63.101290932950832 $222 $322 forward 7 unknown #
coedge $-1 $235 $234 $145 $228 reversed $219 $-1 #
edge $-1 $323 -63.101290932950832 $229 63.101290932950832 $227 $324 forward 7 unknown #
vertex $-1 $147 $325 #
vertex $-1 $241 $326 #
straight-curve $-1 63.101290932950832 0 -16.090237503997759 0 -1 0 I I #
coedge $-1 $221 $223 $148 $233 reversed $141 $-1 #
edge $-1 $236 -34.040457138194284 $239 34.040457138194284 $232 $327 forward 7 unknown #
coedge $-1 $227 $149 $154 $242 forward $219 $-1 #
coedge $-1 $149 $227 $221 $318 reversed $219 $-1 #
vertex $-1 $150 $328 #
straight-curve $-1 0 34.040457138194284 16.090237503997759 -1 0 0 I I #
coedge $-1 $151 $222 $153 $241 reversed $88 $-1 #
vertex $-1 $233 $329 #
straight-curve $-1 0 -34.040457138194284 16.090237503997759 1 0 0 I I #
edge $-1 $156 -16.090237503997759 $230 16.090237503997759 $153 $330 forward 7 unknown #
edge $-1 $157 -16.090237503997759 $229 16.090237503997759 $154 $331 forward 7 unknown #
point $-1 63.101290932950832 -34.040457138194284 16.090237503997759 #
point $-1 63.101290932950832 34.040457138194284 16.090237503997759 #
face $-1 $-1 $261 $22 $-1 $332 forward single #
plane-surface $-1 -68.486907081422487 -16.32266498628184 0 0 -1 0 0 0 -1 forward_v I I I I #
coedge $-1 $333 $334 $264 $335 forward $160 $-1 #
coedge $-1 $257 $162 $163 $253 reversed $96 $-1 #
coedge $-1 $162 $257 $260 $336 reversed $96 $-1 #
coedge $-1 $334 $333 $162 $251 reversed $160 $-1 #
edge $-1 $337 -16.090237503997759 $338 16.090237503997759 $250 $339 forward 7 unknown #
coedge $-1 $164 $163 $333 $340 forward $61 $-1 #
edge $-1 $255 -5.3856161484716552 $338 5.3856161484716552 $248 $341 forward 7 unknown #
edge $-1 $342 -5.3856161484716552 $172 5.3856161484716552 $169 $343 forward 7 unknown #
vertex $-1 $253 $344 #
straight-curve $-1 -63.101290932950832 0 -16.090237503997759 0 -1 0 I I #
coedge $-1 $249 $248 $166 $258 reversed $96 $-1 #
edge $-1 $262 -16.090237503997759 $255 16.090237503997759 $257 $345 forward 7 unknown #
coedge $-1 $346 $167 $170 $265 forward $261 $-1 #
coedge $-1 $167 $346 $249 $336 forward $261 $-1 #
loop $-1 $-1 $167 $245 #
vertex $-1 $168 $347 #
straight-curve $-1 -63.101290932950832 0 16.090237503997759 0 1 0 I I #
coedge $-1 $170 $169 $247 $335 reversed $171 $-1 #
edge $-1 $173 -5.3856161484716552 $348 5.3856161484716552 $170 $349 forward 7 unknown #
point $-1 -63.101290932950832 -16.32266498628184 -16.090237503997759 #
point $-1 -63.101290932950832 -16.32266498628184 16.090237503997759 #
loop $-1 $-1 $184 $175 #
plane-surface $-1 63.101290932950832 0 0 -1 0 0 0 0 1 forward_v I I I I #
coedge $-1 $350 $178 $183 $276 forward $104 $-1 #
coedge $-1 $178 $350 $273 $351 reversed $104 $-1 #
edge $-1 $274 30.573548256363804 $281 37.782223206912107 $178 $352 forward 7 unknown #
coedge $-1 $187 $181 $271 $351 forward $176 $-1 #
vertex $-1 $351 $353 #
straight-curve $-1 43.562825583229653 -63.913626929417404 16.090237503997763 0 -1 0 I I #
edge $-1 $281 16.896796454184532 $279 36.435261803905711 $270 $354 forward 7 unknown #
coedge $-1 $278 $184 $187 $283 reversed $268 $-1 #
coedge $-1 $184 $277 $350 $355 forward $268 $-1 #
vertex $-1 $276 $356 #
straight-curve $-1 63.101290932950832 -28.62811933190833 14.892572805198547 0 0.66913059716165679 0.74314483375859142 I I #
vertex $-1 $276 $357 #
straight-curve $-1 43.562825583229653 -34.040457138194284 8.8815625534494558 0 0.66913059716165679 0.74314483375859142 I I #
edge $-1 $358 -34.040457138194284 $188 -27.549737220236032 $277 $359 forward 7 unknown #
point $-1 63.101290932950832 -27.549737220236032 16.090237503997759 #
point $-1 43.562825583229653 -27.549737220236032 16.090237503997759 #
edge $-1 $360 1 $360 0 $191 $-1 forward 7 unknown #
vertex $-1 $192 $361 #
ellipse-curve $-1 49.145244254578557 -26.980931891280104 9.0516102633206028 0 -0.74314483375859142 0.66913059716165679 1.5 0 0 1 I I #
point $-1 50.645244254578557 -30.795097179215162 12.485900028723607 #
edge $-1 $362 1 $362 0 $195 $-1 forward 7 unknown #
vertex $-1 $196 $363 #
ellipse-curve $-1 57.518872261601913 -26.980931891280104 9.0516102633206028 0 -0.74314483375859142 0.66913059716165679 1.5 0 0 1 I I #
point $-1 59.018872261601913 -30.795097179215162 12.485900028723607 #
loop $-1 $-1 $207 $199 #
plane-surface $-1 0 34.040457138194284 0 0 -1 0 0 0 -1 forward_v I I I I #
coedge $-1 $297 $202 $204 $301 reversed $126 $-1 #
coedge $-1 $202 $296 $364 $365 reversed $126 $-1 #
coedge $-1 $210 $205 $202 $299 forward $200 $-1 #
edge $-1 $302 -24.122271741773144 $366 -18.454008002527516 $298 $367 forward 7 unknown #
coedge $-1 $204 $203 $305 $368 reversed $79 $-1 #
edge $-1 $369 -68.080914276388597 $302 -57.38444736628152 $296 $370 forward 7 unknown #
vertex $-1 $206 $371 #
straight-curve $-1 -21.064641925515069 28.372193398948653 16.090237503997759 1 0 0 I I #
coedge $-1 $364 $207 $210 $309 reversed $294 $-1 #
coedge $-1 $207 $364 $300 $368 forward $294 $-1 #
vertex $-1 $208 $372 #
straight-curve $-1 -52.330058636007529 34.040457138194284 65.816093511456771 0 0 1 I I #
straight-curve $-1 -52.330058636007529 -2.0369300000678692 64.755009296711634 0 0.52991925155115449 -0.84804810408105047 I I #
edge $-1 $366 31.928509066052747 $211 52.330058636007529 $304 $373 forward 7 unknown #
point $-1 -52.330058636007529 34.040457138194284 16.090237503997759 #
point $-1 -52.330058636007529 28.372193398948657 16.090237503997756 #
edge $-1 $374 1 $374 0 $214 $-1 forward 7 unknown #
vertex $-1 $215 $375 #
ellipse-curve $-1 -42.129283851030138 24.615738592707608 7.4364227744489586 0 0.84804810408105047 0.52991925155115449 2 0 0 1 I I #
point $-1 -40.129283851030138 31.206325268571472 11.554678262256765 #
plane-surface $-1 63.101290932950832 0 0 -1 0 0 0 0 1 forward_v I I I I #
coedge $-1 $223 $221 $225 $321 reversed $141 $-1 #
edge $-1 $236 -16.090237503997759 $323 16.090237503997759 $235 $376 forward 7 unknown #
vertex $-1 $321 $377 #
straight-curve $-1 -63.101290932950832 -34.040457138194284 0 0 0 -1 I I #
edge $-1 $319 -34.040457138194284 $323 34.040457138194284 $317 $378 forward 7 unknown #
straight-curve $-1 0 -34.040457138194284 -16.090237503997759 -1 0 0 I I #
vertex $-1 $228 $379 #
straight-curve $-1 0 34.040457138194284 -16.090237503997759 1 0 0 I I #
point $-1 63.101290932950832 34.040457138194284 -16.090237503997759 #
point $-1 63.101290932950832 -34.040457138194284 -16.090237503997759 #
straight-curve $-1 -63.101290932950832 0 16.090237503997759 0 -1 0 I I #
point $-1 -63.101290932950832 34.040457138194284 16.090237503997759 #
point $-1 -63.101290932950832 -34.040457138194284 16.090237503997759 #
straight-curve $-1 63.101290932950832 -34.040457138194284 0 0 0 -1 I I #
straight-curve $-1 63.101290932950832 34.040457138194284 0 0 0 -1 I I #
plane-surface $-1 0 0 16.090237503997759 0 0 1 1 0 0 forward_v I I I I #
coedge $-1 $250 $247 $252 $340 reversed $160 $-1 #
coedge $-1 $247 $250 $346 $380 reversed $160 $-1 #
edge $-1 $348 -16.090237503997759 $342 16.090237503997759 $264 $381 forward 7 unknown #
edge $-1 $337 -5.3856161484716552 $262 5.3856161484716552 $249 $382 forward 7 unknown #
vertex $-1 $380 $383 #
vertex $-1 $340 $384 #
straight-curve $-1 -73.872523229894142 -21.410827557433425 0 0 0 -1 I I #
edge $-1 $338 -2.5440812855757926 $342 2.5440812855757926 $333 $385 forward 7 unknown #
straight-curve $-1 -68.486907081422487 -21.410827557433425 -16.090237503997759 -1 0 0 I I #
vertex $-1 $254 $386 #
straight-curve $-1 -68.486907081422487 -16.32266498628184 -16.090237503997759 1 0 0 I I #
point $-1 -63.101290932950832 -21.410827557433425 -16.090237503997759 #
straight-curve $-1 -63.101290932950832 -21.410827557433425 0 0 0 -1 I I #
coedge $-1 $260 $259 $334 $380 forward $261 $-1 #
point $-1 -63.101290932950832 -21.410827557433425 16.090237503997759 #
vertex $-1 $265 $387 #
straight-curve $-1 -68.486907081422487 -16.32266498628184 16.090237503997759 -1 0 0 I I #
coedge $-1 $271 $270 $278 $355 reversed $104 $-1 #
edge $-1 $274 43.562825583229653 $358 63.101290932950832 $271 $388 forward 7 unknown #
straight-curve $-1 43.562825583229653 -34.040457138194284 46.663785760361563 0 0 -1 I I #
point $-1 43.562825583229653 -34.040457138194284 16.090237503997759 #
straight-curve $-1 26.666029129045121 -34.040457138194284 8.8815625534494576 1 0 0 I I #
edge $-1 $358 -16.090237503997759 $279 -8.8815625534494558 $278 $389 forward 7 unknown #
point $-1 63.101290932950832 -34.040457138194284 8.8815625534494558 #
point $-1 43.562825583229653 -34.040457138194284 8.8815625534494558 #
vertex $-1 $283 $390 #
straight-curve $-1 63.101290932950832 0 16.090237503997759 0 1 0 I I #
vertex $-1 $286 $391 #
point $-1 50.645244254578557 -26.980931891280104 9.0516102633206028 #
vertex $-1 $290 $392 #
point $-1 59.018872261601913 -26.980931891280104 9.0516102633206028 #
coedge $-1 $305 $304 $297 $365 forward $294 $-1 #
edge $-1 $366 49.725856007459015 $369 58.796974490941011 $364 $393 forward 7 unknown #
vertex $-1 $309 $394 #
straight-curve $-1 -31.928509066052747 52.4944651407218 16.090237503997756 0 1 0 I I #
edge $-1 $369 10.863867140537678 $306 31.26541671049246 $305 $395 forward 7 unknown #
vertex $-1 $368 $396 #
straight-curve $-1 -31.928509066052747 -2.0369300000678692 64.755009296711634 0 -0.52991925155115449 0.84804810408105047 I I #
point $-1 -31.928509066052747 28.372193398948657 16.090237503997756 #
point $-1 -52.330058636007529 34.040457138194284 7.0191190205157596 #
straight-curve $-1 0 34.040457138194284 16.090237503997759 -1 0 0 I I #
vertex $-1 $312 $397 #
point $-1 -40.129283851030138 24.615738592707608 7.4364227744489586 #
straight-curve $-1 -63.101290932950832 34.040457138194284 0 0 0 -1 I I #
point $-1 -63.101290932950832 -34.040457138194284 -16.090237503997759 #
straight-curve $-1 -63.101290932950832 0 -16.090237503997759 0 1 0 I I #
point $-1 -63.101290932950832 34.040457138194284 -16.090237503997759 #
edge $-1 $348 -2.5440812855757926 $337 2.5440812855757926 $334 $398 forward 7 unknown #
straight-curve $-1 -73.872523229894142 -16.32266498628184 0 0 0 -1 I I #
straight-curve $-1 -68.486907081422487 -21.410827557433425 16.090237503997759 1 0 0 I I #
point $-1 -73.872523229894142 -21.410827557433425 16.090237503997759 #
point $-1 -73.872523229894142 -21.410827557433425 -16.090237503997759 #
straight-curve $-1 -73.872523229894142 -18.866746271857632 -16.090237503997759 0 1 0 I I #
point $-1 -73.872523229894142 -16.32266498628184 -16.090237503997759 #
point $-1 -73.872523229894142 -16.32266498628184 16.090237503997759 #
straight-curve $-1 0 -34.040457138194284 16.090237503997759 1 0 0 I I #
straight-curve $-1 63.101290932950832 -34.040457138194284 0 0 0 -1 I I #
point $-1 63.101290932950832 -34.040457138194284 16.090237503997759 #
point $-1 49.145244254578557 -25.866214640642216 8.0479143675781177 #
point $-1 57.518872261601913 -25.866214640642216 8.0479143675781177 #
straight-curve $-1 -31.928509066052747 34.040457138194284 65.816093511456771 0 0 -1 I I #
point $-1 -31.928509066052747 34.040457138194284 16.090237503997759 #
straight-curve $-1 -21.064641925515069 34.040457138194284 7.0191190205157667 -1 0 0 I I #
point $-1 -31.928509066052747 34.040457138194284 7.0191190205157596 #
point $-1 -42.129283851030138 22.919642384545504 6.3765842713466494 #
straight-curve $-1 -73.872523229894142 -18.866746271857632 16.090237503997759 0 -1 0 I I #
End-of-ACIS-data 