500 0 10 0           
7 Unknown 11 ACIS 5.0 NT 24 Thu Mar 25 23:09:22 1999 
-1 9.9999999999999995e-007 1e-010 
body $-1 $10 $-1 $11 #
body $-1 $12 $-1 $13 #
body $-1 $14 $-1 $15 #
body $-1 $16 $-1 $17 #
body $-1 $18 $-1 $19 #
body $-1 $20 $-1 $21 #
body $-1 $22 $-1 $23 #
body $-1 $24 $-1 $25 #
body $-1 $26 $-1 $27 #
body $-1 $28 $-1 $29 #
lump $-1 $-1 $30 $0 #
transform $-1 1 0 0 0 1 0 0 0 1 66.23493148594622 35.418617694741691 9.5096399698791156 1 rotate no_reflect no_shear #
lump $-1 $-1 $31 $1 #
transform $-1 1 0 0 0 1 0 0 0 1 66.23493148594622 35.418617694741691 9.5096399698791156 1 rotate no_reflect no_shear #
lump $-1 $-1 $32 $2 #
transform $-1 1 0 0 0 1 0 0 0 1 66.23493148594622 35.418617694741691 9.5096399698791156 1 rotate no_reflect no_shear #
lump $-1 $-1 $33 $3 #
transform $-1 1 0 0 0 1 0 0 0 1 66.23493148594622 35.418617694741691 9.5096399698791156 1 rotate no_reflect no_shear #
lump $-1 $-1 $34 $4 #
transform $-1 1 0 0 0 1 0 0 0 1 66.23493148594622 35.418617694741691 9.5096399698791156 1 rotate no_reflect no_shear #
lump $-1 $-1 $35 $5 #
transform $-1 1 0 0 0 1 0 0 0 1 66.23493148594622 35.418617694741691 9.5096399698791156 1 rotate no_reflect no_shear #
lump $-1 $-1 $36 $6 #
transform $-1 1 0 0 0 1 0 0 0 1 66.23493148594622 35.418617694741691 9.5096399698791156 1 rotate no_reflect no_shear #
lump $-1 $-1 $37 $7 #
transform $-1 1 0 0 0 1 0 0 0 1 66.23493148594622 35.418617694741691 9.5096399698791156 1 rotate no_reflect no_shear #
lump $-1 $-1 $38 $8 #
transform $-1 1 0 0 0 1 0 0 0 1 66.23493148594622 35.418617694741691 9.5096399698791156 1 rotate no_reflect no_shear #
lump $-1 $-1 $39 $9 #
transform $-1 1 0 0 0 1 0 0 0 1 66.23493148594622 35.418617694741691 9.5096399698791156 1 rotate no_reflect no_shear #
shell $-1 $-1 $-1 $40 $-1 $10 #
shell $-1 $-1 $-1 $41 $-1 $12 #
shell $-1 $-1 $-1 $42 $-1 $14 #
shell $-1 $-1 $-1 $43 $-1 $16 #
shell $-1 $-1 $-1 $44 $-1 $18 #
shell $-1 $-1 $-1 $45 $-1 $20 #
shell $-1 $-1 $-1 $46 $-1 $22 #
shell $-1 $-1 $-1 $47 $-1 $24 #
shell $-1 $-1 $-1 $48 $-1 $26 #
shell $-1 $-1 $-1 $49 $-1 $28 #
face $-1 $50 $51 $30 $-1 $52 forward single #
face $-1 $53 $54 $31 $-1 $55 reversed single #
face $-1 $56 $57 $32 $-1 $58 reversed single #
face $-1 $59 $60 $33 $-1 $61 forward single #
face $-1 $62 $63 $34 $-1 $64 forward single #
face $-1 $65 $66 $35 $-1 $67 forward single #
face $-1 $68 $69 $36 $-1 $70 reversed single #
face $-1 $71 $72 $37 $-1 $73 forward single #
face $-1 $74 $75 $38 $-1 $76 forward single #
face $-1 $77 $78 $39 $-1 $79 forward single #
face $-1 $80 $81 $30 $-1 $82 reversed single #
loop $-1 $-1 $83 $40 #
plane-surface $-1 0 0 9.5096399698791156 0 0 1 1 0 0 forward_v I I I I #
face $-1 $84 $85 $31 $-1 $86 reversed single #
loop $-1 $-1 $87 $41 #
plane-surface $-1 -61.056602106834305 0 4.0770110872787191 0 0 1 1 0 0 forward_v I I I I #
face $-1 $88 $89 $32 $-1 $90 reversed single #
loop $-1 $-1 $91 $42 #
plane-surface $-1 41.87693378304477 45.5435686414502 151.95308680536405 1 0 0 0 -0.52991927123019833 -0.84804809178421925 forward_v I I I I #
face $-1 $92 $93 $33 $-1 $94 forward single #
loop $-1 $95 $96 $43 #
cone-surface $-1 45.727000962619982 28.858831877773852 4.8153676335932909 0 -0.52991927123019833 -0.84804809178421925 1.5 0 0 1 I I 0 1 1.5 forward I I I I #
face $-1 $97 $98 $34 $-1 $99 forward single #
loop $-1 $100 $101 $44 #
cone-surface $-1 51.502101731982805 28.858831877773852 4.8153676335932909 0 -0.52991927123019833 -0.84804809178421925 1.5 0 0 1 I I 0 1 1.5 forward I I I I #
face $-1 $102 $103 $35 $-1 $104 forward single #
loop $-1 $105 $106 $45 #
cone-surface $-1 57.277202501345627 28.858831877773852 4.8153676335932909 0 -0.52991927123019833 -0.84804809178421925 1.5 0 0 1 I I 0 1 1.5 forward I I I I #
face $-1 $107 $108 $36 $-1 $109 reversed single #
loop $-1 $-1 $110 $46 #
plane-surface $-1 -31.12118237829327 -147.75943383593162 75.767890151938346 -1 0 0 0 -0.84804810408105047 0.52991925155115449 forward_v I I I I #
face $-1 $111 $112 $37 $-1 $113 forward single #
loop $-1 $114 $115 $47 #
cone-surface $-1 -49.133131552935538 -33.024798093570276 6.8130005075526885 0 0.84804810408105047 -0.52991925155115449 1 0 0 1 I I 0 1 1 forward I I I I #
face $-1 $116 $117 $38 $-1 $118 forward single #
loop $-1 $119 $120 $48 #
cone-surface $-1 -42.378650612444687 -33.024798093570276 6.8130005075526885 0 0.84804810408105047 -0.52991925155115449 1 0 0 1 I I 0 1 1 forward I I I I #
face $-1 $121 $122 $39 $-1 $123 forward single #
loop $-1 $124 $125 $49 #
cone-surface $-1 -35.624169671953844 -33.024798093570276 6.8130005075526885 0 0.84804810408105047 -0.52991925155115449 1 0 0 1 I I 0 1 1 forward I I I I #
face $-1 $126 $127 $30 $-1 $128 reversed single #
loop $-1 $-1 $129 $50 #
plane-surface $-1 0 0 -9.5096399698791156 0 0 1 1 0 0 forward_v I I I I #
coedge $-1 $130 $131 $132 $133 forward $51 $-1 #
face $-1 $134 $135 $31 $-1 $136 reversed single #
loop $-1 $-1 $137 $53 #
plane-surface $-1 -55.87827272772239 0 6.7933255285789169 -1 0 0 0 0 1 forward_v I I I I #
coedge $-1 $138 $139 $140 $141 forward $54 $-1 #
face $-1 $142 $143 $32 $-1 $144 reversed single #
loop $-1 $-1 $145 $56 #
plane-surface $-1 51.502101731982805 -24.654764604579277 39.612272293133671 0 0.52991927123019833 0.84804809178421925 1 0 0 forward_v I I I I #
coedge $-1 $146 $147 $148 $149 reversed $57 $-1 #
face $-1 $-1 $150 $33 $-1 $151 forward single #
loop $-1 $152 $153 $59 #
cone-surface $-1 45.727000962619982 27.851157238305888 3.202751143620544 0 -0.52991927123019833 -0.84804809178421925 0.75 0 0 1 I I -0.70710678118654757 0.70710678118654757 0.75 forward I I I I #
loop $-1 $-1 $154 $43 #
coedge $-1 $96 $96 $155 $156 reversed $60 $-1 #
face $-1 $-1 $157 $34 $-1 $158 forward single #
loop $-1 $159 $160 $62 #
cone-surface $-1 51.502101731982805 27.851157238305888 3.202751143620544 0 -0.52991927123019833 -0.84804809178421925 0.75 0 0 1 I I -0.70710678118654757 0.70710678118654757 0.75 forward I I I I #
loop $-1 $-1 $161 $44 #
coedge $-1 $101 $101 $162 $163 reversed $63 $-1 #
face $-1 $-1 $164 $35 $-1 $165 forward single #
loop $-1 $166 $167 $65 #
cone-surface $-1 57.277202501345627 27.851157238305888 3.202751143620544 0 -0.52991927123019833 -0.84804809178421925 0.75 0 0 1 I I -0.70710678118654757 0.70710678118654757 0.75 forward I I I I #
loop $-1 $-1 $168 $45 #
coedge $-1 $106 $106 $169 $170 reversed $66 $-1 #
face $-1 $171 $172 $36 $-1 $173 reversed single #
loop $-1 $-1 $174 $68 #
plane-surface $-1 -42.378650612444687 -35.418617694741684 5.5695595127891124 0 -0.84804810408105047 0.52991925155115449 1 0 0 forward_v I I I I #
coedge $-1 $175 $176 $177 $178 reversed $69 $-1 #
face $-1 $-1 $179 $37 $-1 $180 forward single #
loop $-1 $181 $182 $71 #
cone-surface $-1 -49.133131552935538 -31.437972160240481 5.8214416479956839 0 0.84804810408105047 -0.52991925155115449 0.5 0 0 1 I I -0.70710678118654746 0.70710678118654746 0.5 forward I I I I #
loop $-1 $-1 $183 $47 #
coedge $-1 $115 $115 $184 $185 reversed $72 $-1 #
face $-1 $-1 $186 $38 $-1 $187 forward single #
loop $-1 $188 $189 $74 #
cone-surface $-1 -42.378650612444687 -31.437972160240481 5.8214416479956839 0 0.84804810408105047 -0.52991925155115449 0.5 0 0 1 I I -0.70710678118654746 0.70710678118654746 0.5 forward I I I I #
loop $-1 $-1 $190 $48 #
coedge $-1 $120 $120 $191 $192 reversed $75 $-1 #
face $-1 $-1 $193 $39 $-1 $194 forward single #
loop $-1 $195 $196 $77 #
cone-surface $-1 -35.624169671953844 -31.437972160240481 5.8214416479956839 0 0.84804810408105047 -0.52991925155115449 0.5 0 0 1 I I -0.70710678118654746 0.70710678118654746 0.5 forward I I I I #
loop $-1 $-1 $197 $49 #
coedge $-1 $125 $125 $198 $199 reversed $78 $-1 #
face $-1 $200 $201 $30 $-1 $202 reversed single #
loop $-1 $-1 $203 $80 #
plane-surface $-1 0 -35.418617694741691 0 0 1 0 0 0 1 forward_v I I I I #
coedge $-1 $204 $205 $206 $207 forward $81 $-1 #
coedge $-1 $208 $83 $209 $210 forward $51 $-1 #
coedge $-1 $83 $208 $211 $212 forward $51 $-1 #
coedge $-1 $213 $214 $83 $133 reversed $215 $-1 #
edge $-1 $216 -35.418617694741691 $217 35.418617694741691 $132 $218 forward 7 unknown #
face $-1 $219 $220 $31 $-1 $221 reversed single #
loop $-1 $-1 $222 $84 #
plane-surface $-1 0 35.418617694741691 0 0 -1 0 0 0 -1 forward_v I I I I #
coedge $-1 $140 $223 $224 $225 reversed $85 $-1 #
coedge $-1 $226 $87 $227 $228 reversed $54 $-1 #
coedge $-1 $87 $226 $229 $230 reversed $54 $-1 #
coedge $-1 $231 $137 $87 $141 reversed $85 $-1 #
edge $-1 $232 -35.418617694741691 $233 35.418617694741691 $140 $234 forward 7 unknown #
face $-1 $235 $236 $32 $-1 $237 forward single #
loop $-1 $-1 $238 $88 #
plane-surface $-1 61.12726968092084 45.5435686414502 151.95308680536405 -1 0 0 0 0.52991927123019833 0.84804809178421925 forward_v I I I I #
coedge $-1 $239 $240 $241 $242 reversed $89 $-1 #
coedge $-1 $147 $91 $243 $244 reversed $57 $-1 #
coedge $-1 $91 $146 $239 $245 reversed $57 $-1 #
coedge $-1 $241 $246 $91 $149 forward $236 $-1 #
edge $-1 $247 -12.646833374016591 $248 -0.74773211217150859 $148 $249 forward 7 unknown #
loop $-1 $-1 $155 $92 #
plane-surface $-1 51.502101731982805 -24.654764604579277 39.612272293133671 0 0.52991927123019833 0.84804809178421925 1 0 0 forward_v I I I I #
loop $-1 $-1 $250 $59 #
coedge $-1 $153 $153 $154 $251 reversed $93 $-1 #
coedge $-1 $154 $154 $153 $251 forward $95 $-1 #
coedge $-1 $155 $155 $96 $156 forward $150 $-1 #
edge $-1 $252 -1.6307915893952769e-015 $252 6.2831853071795987 $155 $253 forward 7 unknown #
loop $-1 $-1 $162 $97 #
plane-surface $-1 51.502101731982805 -24.654764604579277 39.612272293133671 0 0.52991927123019833 0.84804809178421925 1 0 0 forward_v I I I I #
loop $-1 $-1 $254 $62 #
coedge $-1 $160 $160 $161 $255 reversed $98 $-1 #
coedge $-1 $161 $161 $160 $255 forward $100 $-1 #
coedge $-1 $162 $162 $101 $163 forward $157 $-1 #
edge $-1 $256 -1.6307915893952769e-015 $256 6.2831853071795987 $162 $257 forward 7 unknown #
loop $-1 $-1 $169 $102 #
plane-surface $-1 51.502101731982805 -24.654764604579277 39.612272293133671 0 0.52991927123019833 0.84804809178421925 1 0 0 forward_v I I I I #
loop $-1 $-1 $258 $65 #
coedge $-1 $167 $167 $168 $259 reversed $103 $-1 #
coedge $-1 $168 $168 $167 $259 forward $105 $-1 #
coedge $-1 $169 $169 $106 $170 forward $164 $-1 #
edge $-1 $260 -1.6307915893952769e-015 $260 6.2831853071795987 $169 $261 forward 7 unknown #
face $-1 $262 $263 $36 $-1 $264 reversed single #
loop $-1 $-1 $265 $107 #
plane-surface $-1 -53.636118846596105 -147.75943383593162 75.767890151938346 1 0 0 0 0.84804810408105047 -0.52991925155115449 forward_v I I I I #
coedge $-1 $266 $267 $268 $269 reversed $108 $-1 #
coedge $-1 $176 $110 $270 $271 reversed $69 $-1 #
coedge $-1 $110 $175 $266 $272 reversed $69 $-1 #
coedge $-1 $268 $273 $110 $178 forward $274 $-1 #
edge $-1 $275 38.461099223224117 $276 40.923134662988417 $177 $277 forward 7 unknown #
loop $-1 $-1 $184 $111 #
plane-surface $-1 -42.378650612444687 -35.418617694741684 5.5695595127891124 0 -0.84804810408105047 0.52991925155115449 1 0 0 forward_v I I I I #
loop $-1 $-1 $278 $71 #
coedge $-1 $182 $182 $183 $279 reversed $112 $-1 #
coedge $-1 $183 $183 $182 $279 forward $114 $-1 #
coedge $-1 $184 $184 $115 $185 forward $179 $-1 #
edge $-1 $280 7.8737727095358535e-019 $280 6.2831853071796004 $184 $281 forward 7 unknown #
loop $-1 $-1 $191 $116 #
plane-surface $-1 -42.378650612444687 -35.418617694741684 5.5695595127891124 0 -0.84804810408105047 0.52991925155115449 1 0 0 forward_v I I I I #
loop $-1 $-1 $282 $74 #
coedge $-1 $189 $189 $190 $283 reversed $117 $-1 #
coedge $-1 $190 $190 $189 $283 forward $119 $-1 #
coedge $-1 $191 $191 $120 $192 forward $186 $-1 #
edge $-1 $284 7.8737727095358535e-019 $284 6.2831853071796004 $191 $285 forward 7 unknown #
loop $-1 $-1 $198 $121 #
plane-surface $-1 -42.378650612444687 -35.418617694741684 5.5695595127891124 0 -0.84804810408105047 0.52991925155115449 1 0 0 forward_v I I I I #
loop $-1 $-1 $286 $77 #
coedge $-1 $196 $196 $197 $287 reversed $122 $-1 #
coedge $-1 $197 $197 $196 $287 forward $124 $-1 #
coedge $-1 $198 $198 $125 $199 forward $193 $-1 #
edge $-1 $288 7.8737727095358535e-019 $288 6.2831853071796004 $198 $289 forward 7 unknown #
face $-1 $290 $291 $30 $-1 $292 reversed single #
loop $-1 $-1 $293 $126 #
plane-surface $-1 -66.23493148594622 0 0 1 0 0 0 0 -1 forward_v I I I I #
coedge $-1 $294 $211 $295 $296 forward $127 $-1 #
coedge $-1 $297 $129 $294 $298 forward $81 $-1 #
coedge $-1 $129 $297 $299 $300 forward $81 $-1 #
coedge $-1 $214 $213 $129 $207 reversed $215 $-1 #
edge $-1 $301 -35.418617694741691 $302 35.418617694741691 $206 $303 forward 7 unknown #
coedge $-1 $131 $130 $304 $305 forward $51 $-1 #
coedge $-1 $306 $307 $130 $210 reversed $291 $-1 #
edge $-1 $217 -66.23493148594622 $308 66.23493148594622 $209 $309 forward 7 unknown #
coedge $-1 $203 $310 $131 $212 reversed $127 $-1 #
edge $-1 $311 -66.23493148594622 $216 66.23493148594622 $211 $312 forward 7 unknown #
coedge $-1 $206 $132 $310 $313 forward $215 $-1 #
coedge $-1 $132 $206 $306 $314 reversed $215 $-1 #
loop $-1 $-1 $213 $290 #
vertex $-1 $133 $315 #
vertex $-1 $133 $316 #
straight-curve $-1 66.23493148594622 0 9.5096399698791156 0 1 0 I I #
face $-1 $317 $318 $31 $-1 $319 forward single #
loop $-1 $-1 $320 $134 #
plane-surface $-1 -66.23493148594622 0 0 1 0 0 0 0 -1 forward_v I I I I #
coedge $-1 $229 $321 $231 $322 forward $135 $-1 #
coedge $-1 $137 $231 $323 $324 reversed $85 $-1 #
coedge $-1 $325 $227 $137 $225 forward $326 $-1 #
edge $-1 $233 0.68034832298926062 $327 6.1129772055896554 $224 $328 forward 7 unknown #
coedge $-1 $139 $138 $320 $329 reversed $54 $-1 #
coedge $-1 $224 $330 $138 $228 forward $326 $-1 #
edge $-1 $331 -35.706630432529067 $233 -25.349971674305237 $227 $332 forward 7 unknown #
coedge $-1 $333 $222 $139 $230 forward $135 $-1 #
edge $-1 $232 25.349971674305237 $334 35.706630432529067 $229 $335 forward 7 unknown #
coedge $-1 $223 $140 $222 $322 reversed $85 $-1 #
vertex $-1 $230 $336 #
vertex $-1 $228 $337 #
straight-curve $-1 -55.87827272772239 0 4.0770110872787191 0 -1 0 I I #
face $-1 $-1 $338 $32 $-1 $339 reversed single #
loop $-1 $-1 $148 $142 #
plane-surface $-1 0 0 9.5096399698791156 0 0 1 1 0 0 forward_v I I I I #
coedge $-1 $340 $341 $342 $343 reversed $143 $-1 #
coedge $-1 $344 $145 $147 $245 forward $89 $-1 #
coedge $-1 $145 $344 $340 $345 forward $89 $-1 #
coedge $-1 $342 $148 $145 $242 forward $236 $-1 #
edge $-1 $248 16.125882917053367 $346 35.376218814929437 $241 $347 forward 7 unknown #
coedge $-1 $348 $349 $146 $244 forward $338 $-1 #
edge $-1 $350 -73.902287263105421 $247 -66.466903432802908 $243 $351 forward 7 unknown #
edge $-1 $248 56.806072089757791 $350 70.837235389483411 $147 $352 forward 7 unknown #
coedge $-1 $148 $342 $348 $353 forward $236 $-1 #
vertex $-1 $244 $354 #
vertex $-1 $149 $355 #
straight-curve $-1 41.87693378304477 22.7717843207251 9.5096399698791174 0 -1 0 I I #
coedge $-1 $250 $250 $-1 $356 reversed $152 $-1 #
edge $-1 $357 0 $357 6.2831853071796004 $153 $358 forward 7 unknown #
vertex $-1 $156 $359 #
ellipse-curve $-1 45.727000962619982 29.469067063819161 5.7919480547278583 0 0.52991927123019833 0.84804809178421925 1.5 0 0 1 I I #
coedge $-1 $254 $254 $-1 $360 reversed $159 $-1 #
edge $-1 $361 0 $361 6.2831853071796004 $160 $362 forward 7 unknown #
vertex $-1 $163 $363 #
ellipse-curve $-1 51.502101731982805 29.469067063819161 5.7919480547278583 0 0.52991927123019833 0.84804809178421925 1.5 0 0 1 I I #
coedge $-1 $258 $258 $-1 $364 reversed $166 $-1 #
edge $-1 $365 0 $365 6.2831853071796004 $167 $366 forward 7 unknown #
vertex $-1 $170 $367 #
ellipse-curve $-1 57.277202501345627 29.469067063819161 5.7919480547278583 0 0.52991927123019833 0.84804809178421925 1.5 0 0 1 I I #
face $-1 $-1 $274 $36 $-1 $368 forward single #
loop $-1 $-1 $369 $171 #
plane-surface $-1 0 -35.418617694741691 0 0 1 0 0 0 1 forward_v I I I I #
coedge $-1 $370 $371 $372 $373 reversed $172 $-1 #
coedge $-1 $374 $174 $176 $272 forward $108 $-1 #
coedge $-1 $174 $374 $370 $375 forward $108 $-1 #
coedge $-1 $372 $177 $174 $269 forward $274 $-1 #
edge $-1 $276 9.9318570720709261 $376 32.446793540373761 $268 $377 forward 7 unknown #
coedge $-1 $378 $379 $175 $271 forward $263 $-1 #
edge $-1 $380 -32.314385563180075 $275 -28.374305106090056 $270 $381 forward 7 unknown #
edge $-1 $276 -4.646057739094287 $380 1.3557137071152151e-014 $176 $382 forward 7 unknown #
coedge $-1 $177 $372 $378 $383 forward $274 $-1 #
loop $-1 $-1 $372 $262 #
vertex $-1 $271 $384 #
vertex $-1 $178 $385 #
straight-curve $-1 -31.12118237829327 -73.879716917965808 9.5096399698791174 0 1 0 I I #
coedge $-1 $278 $278 $-1 $386 reversed $181 $-1 #
edge $-1 $387 0 $387 6.2831853071796004 $182 $388 forward 7 unknown #
vertex $-1 $185 $389 #
ellipse-curve $-1 -49.133131552935538 -34.187599974859538 7.5395997413341123 0 -0.84804810408105047 0.52991925155115449 1 0 0 1 I I #
coedge $-1 $282 $282 $-1 $390 reversed $188 $-1 #
edge $-1 $391 0 $391 6.2831853071796004 $189 $392 forward 7 unknown #
vertex $-1 $192 $393 #
ellipse-curve $-1 -42.378650612444687 -34.187599974859538 7.5395997413341123 0 -0.84804810408105047 0.52991925155115449 1 0 0 1 I I #
coedge $-1 $286 $286 $-1 $394 reversed $195 $-1 #
edge $-1 $395 0 $395 6.2831853071796004 $196 $396 forward 7 unknown #
vertex $-1 $199 $397 #
ellipse-curve $-1 -35.624169671953844 -34.187599974859538 7.5395997413341123 0 -0.84804810408105047 0.52991925155115449 1 0 0 1 I I #
face $-1 $-1 $215 $30 $-1 $398 reversed single #
loop $-1 $-1 $306 $200 #
plane-surface $-1 0 35.418617694741691 0 0 -1 0 0 0 -1 forward_v I I I I #
coedge $-1 $399 $304 $307 $400 forward $201 $-1 #
coedge $-1 $310 $203 $204 $298 reversed $127 $-1 #
coedge $-1 $304 $399 $203 $296 reversed $201 $-1 #
edge $-1 $311 -9.5096399698791156 $401 9.5096399698791156 $295 $402 forward 7 unknown #
coedge $-1 $205 $204 $399 $403 forward $81 $-1 #
edge $-1 $302 -66.23493148594622 $401 66.23493148594622 $294 $404 forward 7 unknown #
coedge $-1 $307 $306 $205 $300 reversed $291 $-1 #
edge $-1 $405 -66.23493148594622 $301 66.23493148594622 $299 $406 forward 7 unknown #
vertex $-1 $207 $407 #
vertex $-1 $313 $408 #
straight-curve $-1 66.23493148594622 0 -9.5096399698791156 0 -1 0 I I #
coedge $-1 $293 $295 $208 $305 reversed $201 $-1 #
edge $-1 $308 -35.418617694741691 $311 35.418617694741691 $304 $409 forward 7 unknown #
coedge $-1 $299 $209 $214 $314 forward $291 $-1 #
coedge $-1 $209 $299 $293 $400 reversed $291 $-1 #
vertex $-1 $210 $410 #
straight-curve $-1 0 35.418617694741691 9.5096399698791156 -1 0 0 I I #
coedge $-1 $211 $294 $213 $313 reversed $127 $-1 #
vertex $-1 $305 $411 #
straight-curve $-1 0 -35.418617694741691 9.5096399698791156 1 0 0 I I #
edge $-1 $216 -9.5096399698791156 $302 9.5096399698791156 $213 $412 forward 7 unknown #
edge $-1 $217 -9.5096399698791156 $301 9.5096399698791156 $214 $413 forward 7 unknown #
point $-1 66.23493148594622 -35.418617694741691 9.5096399698791156 #
point $-1 66.23493148594622 35.418617694741691 9.5096399698791156 #
face $-1 $-1 $326 $31 $-1 $414 reversed single #
loop $-1 $-1 $323 $219 #
plane-surface $-1 0 0 9.5096399698791156 0 0 1 1 0 0 forward_v I I I I #
coedge $-1 $415 $416 $226 $329 forward $220 $-1 #
coedge $-1 $222 $333 $417 $418 reversed $135 $-1 #
edge $-1 $419 -6.1129772055896554 $232 -0.68034832298926062 $222 $420 forward 7 unknown #
coedge $-1 $417 $421 $223 $324 forward $318 $-1 #
edge $-1 $327 -35.418617694741691 $419 35.418617694741691 $323 $422 forward 7 unknown #
coedge $-1 $330 $224 $421 $423 reversed $326 $-1 #
loop $-1 $-1 $224 $317 #
vertex $-1 $225 $424 #
straight-curve $-1 -55.87827272772239 -35.418617694741691 3.3966627642894585 0 0 1 I I #
edge $-1 $334 -35.418617694741691 $331 35.418617694741691 $320 $425 forward 7 unknown #
coedge $-1 $227 $325 $415 $426 forward $326 $-1 #
vertex $-1 $329 $427 #
straight-curve $-1 -30.528301053417152 -35.418617694741691 4.0770110872787191 1 0 0 I I #
coedge $-1 $321 $229 $416 $428 reversed $135 $-1 #
vertex $-1 $329 $429 #
straight-curve $-1 -30.528301053417152 35.418617694741691 4.0770110872787191 -1 0 0 I I #
point $-1 -55.87827272772239 35.418617694741691 4.0770110872787191 #
point $-1 -55.87827272772239 -35.418617694741691 4.0770110872787191 #
loop $-1 $-1 $243 $235 #
plane-surface $-1 0 35.418617694741691 0 0 -1 0 0 0 -1 forward_v I I I I #
coedge $-1 $341 $238 $240 $345 reversed $143 $-1 #
coedge $-1 $238 $340 $430 $431 reversed $143 $-1 #
coedge $-1 $246 $241 $238 $343 forward $236 $-1 #
edge $-1 $346 0.74773211217150859 $432 12.646833374016591 $342 $433 forward 7 unknown #
coedge $-1 $240 $239 $349 $434 reversed $89 $-1 #
edge $-1 $435 -70.837235389483411 $346 -56.806072089757791 $340 $436 forward 7 unknown #
vertex $-1 $242 $437 #
straight-curve $-1 25.751050865991402 23.519516432896616 9.5096399698791174 1 0 0 I I #
coedge $-1 $430 $243 $246 $353 reversed $338 $-1 #
coedge $-1 $243 $430 $344 $434 forward $338 $-1 #
vertex $-1 $244 $438 #
straight-curve $-1 41.87693378304477 35.418617694741691 75.976543402682026 0 0 1 I I #
straight-curve $-1 41.87693378304477 -24.654764604579277 39.612272293133671 0 0.84804809178421925 -0.52991927123019833 I I #
edge $-1 $432 -61.12726968092084 $247 -41.87693378304477 $348 $439 forward 7 unknown #
point $-1 41.87693378304477 35.418617694741691 9.5096399698791156 #
point $-1 41.87693378304477 23.519516432896609 9.5096399698791174 #
edge $-1 $440 1 $440 0 $250 $-1 forward 7 unknown #
vertex $-1 $251 $441 #
ellipse-curve $-1 45.727000962619982 28.248596691728537 3.8387872124587084 0 0.52991927123019833 0.84804809178421925 1.5 0 0 1 I I #
point $-1 47.227000962619982 29.469067063819168 5.7919480547278743 #
edge $-1 $442 1 $442 0 $254 $-1 forward 7 unknown #
vertex $-1 $255 $443 #
ellipse-curve $-1 51.502101731982805 28.248596691728537 3.8387872124587084 0 0.52991927123019833 0.84804809178421925 1.5 0 0 1 I I #
point $-1 53.002101731982805 29.469067063819168 5.7919480547278743 #
edge $-1 $444 1 $444 0 $258 $-1 forward 7 unknown #
vertex $-1 $259 $445 #
ellipse-curve $-1 57.277202501345627 28.248596691728537 3.8387872124587084 0 0.52991927123019833 0.84804809178421925 1.5 0 0 1 I I #
point $-1 58.777202501345627 29.469067063819168 5.7919480547278743 #
plane-surface $-1 0 0 9.5096399698791156 0 0 1 1 0 0 forward_v I I I I #
coedge $-1 $379 $378 $371 $446 forward $263 $-1 #
coedge $-1 $371 $265 $267 $375 reversed $172 $-1 #
coedge $-1 $265 $370 $369 $446 reversed $172 $-1 #
coedge $-1 $273 $268 $265 $373 forward $274 $-1 #
edge $-1 $376 -40.923134662988417 $447 -38.461099223224117 $372 $448 forward 7 unknown #
coedge $-1 $267 $266 $379 $449 reversed $108 $-1 #
edge $-1 $450 -1.3557137071152151e-014 $376 4.646057739094287 $370 $451 forward 7 unknown #
vertex $-1 $269 $452 #
straight-curve $-1 -21.189325306222344 -32.956582254977391 9.5096399698791156 -1 0 0 I I #
coedge $-1 $369 $270 $273 $383 reversed $263 $-1 #
coedge $-1 $270 $369 $374 $449 forward $263 $-1 #
vertex $-1 $271 $453 #
straight-curve $-1 -31.12118237829327 -35.418617694741691 37.883945075969173 0 0 1 I I #
straight-curve $-1 -31.12118237829327 -35.418617694741684 5.5695595127891124 0 -0.52991925155115449 -0.84804810408105047 I I #
edge $-1 $447 -53.636118846596105 $275 -31.12118237829327 $378 $454 forward 7 unknown #
point $-1 -31.12118237829327 -35.418617694741691 9.5096399698791156 #
point $-1 -31.12118237829327 -32.956582254977391 9.5096399698791156 #
edge $-1 $455 1 $455 0 $278 $-1 forward 7 unknown #
vertex $-1 $279 $456 #
ellipse-curve $-1 -49.133131552935538 -31.861996212281007 6.0864012737712612 0 -0.84804810408105047 0.52991925155115449 1 0 0 1 I I #
point $-1 -48.133131552935538 -34.187599974859545 7.5395997413341167 #
edge $-1 $457 1 $457 0 $282 $-1 forward 7 unknown #
vertex $-1 $283 $458 #
ellipse-curve $-1 -42.378650612444687 -31.861996212281007 6.0864012737712612 0 -0.84804810408105047 0.52991925155115449 1 0 0 1 I I #
point $-1 -41.378650612444687 -34.187599974859545 7.5395997413341167 #
edge $-1 $459 1 $459 0 $286 $-1 forward 7 unknown #
vertex $-1 $287 $460 #
ellipse-curve $-1 -35.624169671953844 -31.861996212281007 6.0864012737712612 0 -0.84804810408105047 0.52991925155115449 1 0 0 1 I I #
point $-1 -34.624169671953844 -34.187599974859545 7.5395997413341167 #
plane-surface $-1 66.23493148594622 0 0 -1 0 0 0 0 1 forward_v I I I I #
coedge $-1 $295 $293 $297 $403 reversed $201 $-1 #
edge $-1 $308 -9.5096399698791156 $405 9.5096399698791156 $307 $461 forward 7 unknown #
vertex $-1 $403 $462 #
straight-curve $-1 -66.23493148594622 -35.418617694741691 0 0 0 -1 I I #
edge $-1 $401 -35.418617694741691 $405 35.418617694741691 $399 $463 forward 7 unknown #
straight-curve $-1 0 -35.418617694741691 -9.5096399698791156 -1 0 0 I I #
vertex $-1 $300 $464 #
straight-curve $-1 0 35.418617694741691 -9.5096399698791156 1 0 0 I I #
point $-1 66.23493148594622 35.418617694741691 -9.5096399698791156 #
point $-1 66.23493148594622 -35.418617694741691 -9.5096399698791156 #
straight-curve $-1 -66.23493148594622 0 9.5096399698791156 0 -1 0 I I #
point $-1 -66.23493148594622 35.418617694741691 9.5096399698791156 #
point $-1 -66.23493148594622 -35.418617694741691 9.5096399698791156 #
straight-curve $-1 66.23493148594622 -35.418617694741691 0 0 0 -1 I I #
straight-curve $-1 66.23493148594622 35.418617694741691 0 0 0 -1 I I #
plane-surface $-1 0 -35.418617694741691 0 0 1 0 0 0 1 forward_v I I I I #
coedge $-1 $465 $320 $330 $426 reversed $220 $-1 #
coedge $-1 $320 $465 $333 $428 forward $220 $-1 #
coedge $-1 $466 $323 $321 $418 forward $318 $-1 #
edge $-1 $419 55.87827272772239 $467 66.23493148594622 $321 $468 forward 7 unknown #
vertex $-1 $418 $469 #
straight-curve $-1 -55.87827272772239 35.418617694741691 3.3966627642894585 0 0 -1 I I #
coedge $-1 $323 $466 $325 $423 forward $318 $-1 #
straight-curve $-1 -55.87827272772239 0 9.5096399698791156 0 1 0 I I #
edge $-1 $470 -66.23493148594622 $327 -55.87827272772239 $325 $471 forward 7 unknown #
point $-1 -55.87827272772239 -35.418617694741691 9.5096399698791139 #
straight-curve $-1 -66.23493148594622 0 4.0770110872787191 0 -1 0 I I #
edge $-1 $470 -9.5096399698791156 $331 -4.0770110872787191 $415 $472 forward 7 unknown #
point $-1 -66.23493148594622 -35.418617694741691 4.0770110872787191 #
edge $-1 $467 -9.5096399698791156 $334 -4.0770110872787191 $333 $473 forward 7 unknown #
point $-1 -66.23493148594622 35.418617694741691 4.0770110872787191 #
coedge $-1 $349 $348 $341 $431 forward $338 $-1 #
edge $-1 $432 66.466903432802908 $435 73.902287263105421 $430 $474 forward 7 unknown #
vertex $-1 $353 $475 #
straight-curve $-1 61.12726968092084 22.7717843207251 9.5096399698791174 0 1 0 I I #
edge $-1 $435 -35.376218814929437 $350 -16.125882917053367 $349 $476 forward 7 unknown #
vertex $-1 $434 $477 #
straight-curve $-1 61.12726968092084 -24.654764604579277 39.612272293133671 0 -0.84804809178421925 0.52991927123019833 I I #
point $-1 61.12726968092084 23.519516432896609 9.5096399698791174 #
point $-1 41.87693378304477 35.418617694741691 2.0742561395766046 #
straight-curve $-1 0 35.418617694741691 9.5096399698791156 -1 0 0 I I #
vertex $-1 $356 $478 #
point $-1 47.227000962619982 28.248596691728537 3.8387872124587084 #
vertex $-1 $360 $479 #
point $-1 53.002101731982805 28.248596691728537 3.8387872124587084 #
vertex $-1 $364 $480 #
point $-1 58.777202501345627 28.248596691728537 3.8387872124587084 #
edge $-1 $447 28.374305106090056 $450 32.314385563180075 $369 $481 forward 7 unknown #
vertex $-1 $383 $482 #
straight-curve $-1 -53.636118846596105 -73.879716917965808 9.5096399698791174 0 -1 0 I I #
edge $-1 $450 -32.446793540373761 $380 -9.9318570720709261 $379 $483 forward 7 unknown #
vertex $-1 $449 $484 #
straight-curve $-1 -53.636118846596105 -35.418617694741684 5.5695595127891124 0 0.52991925155115449 0.84804810408105047 I I #
point $-1 -53.636118846596105 -32.956582254977391 9.5096399698791156 #
point $-1 -31.12118237829327 -35.418617694741691 5.5695595127891009 #
straight-curve $-1 0 -35.418617694741691 9.5096399698791156 1 0 0 I I #
vertex $-1 $386 $485 #
point $-1 -48.133131552935538 -31.861996212281007 6.0864012737712612 #
vertex $-1 $390 $486 #
point $-1 -41.378650612444687 -31.861996212281007 6.0864012737712612 #
vertex $-1 $394 $487 #
point $-1 -34.624169671953844 -31.861996212281007 6.0864012737712612 #
straight-curve $-1 -66.23493148594622 35.418617694741691 0 0 0 -1 I I #
point $-1 -66.23493148594622 -35.418617694741691 -9.5096399698791156 #
straight-curve $-1 -66.23493148594622 0 -9.5096399698791156 0 1 0 I I #
point $-1 -66.23493148594622 35.418617694741691 -9.5096399698791156 #
coedge $-1 $416 $415 $466 $488 reversed $220 $-1 #
coedge $-1 $421 $417 $465 $488 forward $318 $-1 #
vertex $-1 $418 $489 #
straight-curve $-1 0 35.418617694741691 9.5096399698791156 -1 0 0 I I #
point $-1 -55.87827272772239 35.418617694741691 9.5096399698791139 #
vertex $-1 $488 $490 #
straight-curve $-1 0 -35.418617694741691 9.5096399698791156 1 0 0 I I #
straight-curve $-1 -66.23493148594622 -35.418617694741691 0 0 0 -1 I I #
straight-curve $-1 -66.23493148594622 35.418617694741691 0 0 0 -1 I I #
straight-curve $-1 61.12726968092084 35.418617694741691 75.976543402682026 0 0 -1 I I #
point $-1 61.12726968092084 35.418617694741691 9.5096399698791156 #
straight-curve $-1 25.751050865991402 35.418617694741698 2.0742561395766081 -1 0 0 I I #
point $-1 61.12726968092084 35.418617694741691 2.0742561395766046 #
point $-1 45.727000962619982 27.453717784883239 2.5667150747823797 #
point $-1 51.502101731982805 27.453717784883239 2.5667150747823797 #
point $-1 57.277202501345627 27.453717784883239 2.5667150747823797 #
straight-curve $-1 -53.636118846596105 -35.418617694741691 37.883945075969173 0 0 -1 I I #
point $-1 -53.636118846596105 -35.418617694741691 9.5096399698791156 #
straight-curve $-1 -21.189325306222344 -35.418617694741691 5.5695595127890973 1 0 0 I I #
point $-1 -53.636118846596105 -35.418617694741691 5.5695595127891009 #
point $-1 -49.133131552935538 -31.013948108199955 5.5564820222201066 #
point $-1 -42.378650612444687 -31.013948108199955 5.5564820222201066 #
point $-1 -35.624169671953844 -31.013948108199955 5.5564820222201066 #
edge $-1 $467 -35.418617694741691 $470 35.418617694741691 $465 $491 forward 7 unknown #
point $-1 -66.23493148594622 35.418617694741691 9.5096399698791156 #
point $-1 -66.23493148594622 -35.418617694741691 9.5096399698791156 #
straight-curve $-1 -66.23493148594622 0 9.5096399698791156 0 -1 0 I I #
End-of-ACIS-data 