500 0 11 0           
7 Unknown 11 ACIS 5.0 NT 24 Fri Mar 26 20:12:44 1999 
-1 9.9999999999999995e-007 1e-010 
body $-1 $11 $-1 $12 #
body $-1 $13 $-1 $14 #
body $-1 $15 $-1 $16 #
body $-1 $17 $-1 $18 #
body $-1 $19 $-1 $20 #
body $-1 $21 $-1 $22 #
body $-1 $23 $-1 $24 #
body $-1 $25 $-1 $26 #
body $-1 $27 $-1 $28 #
body $-1 $29 $-1 $30 #
body $-1 $31 $-1 $32 #
lump $-1 $-1 $33 $0 #
transform $-1 1 0 0 0 1 0 0 0 1 53.379314554277173 34.448856325633173 7.6814210595295949 1 rotate no_reflect no_shear #
lump $-1 $-1 $34 $1 #
transform $-1 1 0 0 0 1 0 0 0 1 53.379314554277173 34.448856325633173 7.6814210595295949 1 rotate no_reflect no_shear #
lump $-1 $-1 $35 $2 #
transform $-1 1 0 0 0 1 0 0 0 1 53.379314554277173 34.448856325633173 7.6814210595295949 1 rotate no_reflect no_shear #
lump $-1 $-1 $36 $3 #
transform $-1 1 0 0 0 1 0 0 0 1 53.379314554277173 34.448856325633173 7.6814210595295949 1 rotate no_reflect no_shear #
lump $-1 $-1 $37 $4 #
transform $-1 1 0 0 0 1 0 0 0 1 53.379314554277173 34.448856325633173 7.6814210595295949 1 rotate no_reflect no_shear #
lump $-1 $-1 $38 $5 #
transform $-1 1 0 0 0 1 0 0 0 1 53.379314554277173 34.448856325633173 7.6814210595295949 1 rotate no_reflect no_shear #
lump $-1 $-1 $39 $6 #
transform $-1 1 0 0 0 1 0 0 0 1 53.379314554277173 34.448856325633173 7.6814210595295949 1 rotate no_reflect no_shear #
lump $-1 $-1 $40 $7 #
transform $-1 1 0 0 0 1 0 0 0 1 53.379314554277173 34.448856325633173 7.6814210595295949 1 rotate no_reflect no_shear #
lump $-1 $-1 $41 $8 #
transform $-1 1 0 0 0 1 0 0 0 1 53.379314554277173 34.448856325633173 7.6814210595295949 1 rotate no_reflect no_shear #
lump $-1 $-1 $42 $9 #
transform $-1 1 0 0 0 1 0 0 0 1 53.379314554277173 34.448856325633173 7.6814210595295949 1 rotate no_reflect no_shear #
lump $-1 $-1 $43 $10 #
transform $-1 1 0 0 0 1 0 0 0 1 53.379314554277173 34.448856325633173 7.6814210595295949 1 rotate no_reflect no_shear #
shell $-1 $-1 $-1 $44 $-1 $11 #
shell $-1 $-1 $-1 $45 $-1 $13 #
shell $-1 $-1 $-1 $46 $-1 $15 #
shell $-1 $-1 $-1 $47 $-1 $17 #
shell $-1 $-1 $-1 $48 $-1 $19 #
shell $-1 $-1 $-1 $49 $-1 $21 #
shell $-1 $-1 $-1 $50 $-1 $23 #
shell $-1 $-1 $-1 $51 $-1 $25 #
shell $-1 $-1 $-1 $52 $-1 $27 #
shell $-1 $-1 $-1 $53 $-1 $29 #
shell $-1 $-1 $-1 $54 $-1 $31 #
face $-1 $55 $56 $33 $-1 $57 forward single #
face $-1 $58 $59 $34 $-1 $60 forward single #
face $-1 $61 $62 $35 $-1 $63 reversed single #
face $-1 $64 $65 $36 $-1 $66 forward single #
face $-1 $67 $68 $37 $-1 $69 forward single #
face $-1 $70 $71 $38 $-1 $72 reversed single #
face $-1 $73 $74 $39 $-1 $75 forward single #
face $-1 $76 $77 $40 $-1 $78 forward single #
face $-1 $79 $80 $41 $-1 $81 reversed single #
face $-1 $82 $83 $42 $-1 $84 forward single #
face $-1 $85 $86 $43 $-1 $87 forward single #
face $-1 $88 $89 $33 $-1 $90 reversed single #
loop $-1 $-1 $91 $44 #
plane-surface $-1 0 0 7.6814210595295949 0 0 1 1 0 0 forward_v I I I I #
face $-1 $92 $93 $34 $-1 $94 reversed single #
loop $-1 $-1 $95 $45 #
plane-surface $-1 0 -34.448856325633173 0 0 1 0 0 0 1 forward_v I I I I #
face $-1 $96 $97 $35 $-1 $98 reversed single #
loop $-1 $-1 $99 $46 #
plane-surface $-1 -143.91576756407872 27.261103153407682 57.945433376288619 0 1 0 -0.84804810408105047 0 0.52991925155115449 forward_v I I I I #
face $-1 $100 $101 $36 $-1 $102 forward single #
loop $-1 $103 $104 $47 #
cone-surface $-1 -50.740085533362183 29.314746916900674 4.1093249031678925 0.84804810408105047 0 -0.52991925155115449 0.52991925155115449 0 0.84804810408105047 1 I I 0 1 1 forward I I I I #
face $-1 $105 $106 $37 $-1 $107 forward single #
loop $-1 $108 $109 $48 #
cone-surface $-1 -50.740085533362183 32.395212562140173 4.1093249031678925 0.84804810408105047 0 -0.52991925155115449 0.52991925155115449 0 0.84804810408105047 1 I I 0 1 1 forward I I I I #
face $-1 $110 $111 $38 $-1 $112 reversed single #
loop $-1 $-1 $113 $49 #
plane-surface $-1 74.391601958782289 -11.547375440298788 150.84915634564894 0 -1 0 -0.79863551827123203 0 -0.60181501223851219 forward_v I I I I #
face $-1 $114 $115 $39 $-1 $116 forward single #
loop $-1 $117 $118 $50 #
cone-surface $-1 50.590309875080855 -17.680065638409665 4.2092918106860164 -0.79863551827123203 0 -0.60181501223851219 0.3009075061192561 0 -0.39931775913561601 1 I I 0 1 0.5 forward I I I I #
face $-1 $119 $120 $40 $-1 $121 forward single #
loop $-1 $122 $123 $51 #
cone-surface $-1 50.590309875080855 -14.000451519543137 4.2092918106860164 -0.79863551827123203 0 -0.60181501223851219 0.3009075061192561 0 -0.39931775913561601 1 I I 0 1 0.5 forward I I I I #
face $-1 $124 $125 $41 $-1 $126 reversed single #
loop $-1 $-1 $127 $52 #
plane-surface $-1 74.391601958782289 18.665456254587035 150.84915634564894 0 -1 0 -0.79863551827123203 0 -0.60181501223851219 forward_v I I I I #
face $-1 $128 $129 $42 $-1 $130 forward single #
loop $-1 $131 $132 $53 #
cone-surface $-1 50.590309875080855 12.532766056476156 4.2092918106860164 -0.79863551827123203 0 -0.60181501223851219 0.3009075061192561 0 -0.39931775913561601 1 I I 0 1 0.5 forward I I I I #
face $-1 $133 $134 $43 $-1 $135 forward single #
loop $-1 $136 $137 $54 #
cone-surface $-1 50.590309875080855 16.212380175342687 4.2092918106860164 -0.79863551827123203 0 -0.60181501223851219 0.3009075061192561 0 -0.39931775913561601 1 I I 0 1 0.5 forward I I I I #
face $-1 $138 $139 $33 $-1 $140 reversed single #
loop $-1 $-1 $141 $55 #
plane-surface $-1 0 0 -7.6814210595295949 0 0 1 1 0 0 forward_v I I I I #
coedge $-1 $142 $143 $144 $145 forward $56 $-1 #
face $-1 $146 $147 $34 $-1 $148 forward single #
loop $-1 $-1 $149 $58 #
plane-surface $-1 -53.379314554277173 0 0 1 0 0 0 0 -1 forward_v I I I I #
coedge $-1 $150 $151 $152 $153 forward $59 $-1 #
face $-1 $154 $155 $35 $-1 $156 forward single #
loop $-1 $-1 $157 $61 #
plane-surface $-1 -53.379314554277158 30.854979739520431 1.3719805424562068 -0.84804810408105047 0 0.52991925155115449 0.52991925155115449 0 0.84804810408105047 forward_v I I I I #
coedge $-1 $158 $159 $160 $161 reversed $62 $-1 #
face $-1 $-1 $162 $36 $-1 $163 forward single #
loop $-1 $164 $165 $64 #
cone-surface $-1 -49.64812039821598 29.314746916900674 3.4269893795673019 0.84804810408105047 0 -0.52991925155115449 0.26495962577557725 0 0.42402405204052523 1 I I -0.70710678118654746 0.70710678118654746 0.5 forward I I I I #
loop $-1 $-1 $166 $47 #
coedge $-1 $104 $104 $167 $168 reversed $65 $-1 #
face $-1 $-1 $169 $37 $-1 $170 forward single #
loop $-1 $171 $172 $67 #
cone-surface $-1 -49.64812039821598 32.395212562140173 3.4269893795673019 0.84804810408105047 0 -0.52991925155115449 0.26495962577557725 0 0.42402405204052523 1 I I -0.70710678118654746 0.70710678118654746 0.5 forward I I I I #
loop $-1 $-1 $173 $48 #
coedge $-1 $109 $109 $174 $175 reversed $68 $-1 #
face $-1 $176 $177 $38 $-1 $178 reversed single #
loop $-1 $-1 $179 $70 #
plane-surface $-1 -10.869631129254245 -15.840258578976403 86.600210662117519 0.79863551827123203 0 0.60181501223851219 0.60181501223851219 0 -0.79863551827123203 forward_v I I I I #
coedge $-1 $180 $181 $182 $183 reversed $71 $-1 #
face $-1 $-1 $184 $39 $-1 $185 forward single #
loop $-1 $186 $187 $73 #
cone-surface $-1 49.991333236377429 -17.680065638409665 3.7579305515071324 -0.79863551827123203 0 -0.60181501223851219 0.15045375305962805 0 -0.19965887956780801 1 I I -0.70710678118654746 0.70710678118654746 0.25 forward I I I I #
loop $-1 $-1 $188 $50 #
coedge $-1 $118 $118 $189 $190 reversed $74 $-1 #
face $-1 $-1 $191 $40 $-1 $192 forward single #
loop $-1 $193 $194 $76 #
cone-surface $-1 49.991333236377429 -14.000451519543137 3.7579305515071324 -0.79863551827123203 0 -0.60181501223851219 0.15045375305962805 0 -0.19965887956780801 1 I I -0.70710678118654746 0.70710678118654746 0.25 forward I I I I #
loop $-1 $-1 $195 $51 #
coedge $-1 $123 $123 $196 $197 reversed $77 $-1 #
face $-1 $198 $199 $41 $-1 $200 reversed single #
loop $-1 $-1 $201 $79 #
plane-surface $-1 -10.869631129254245 14.372573115909418 86.600210662117519 0.79863551827123203 0 0.60181501223851219 0.60181501223851219 0 -0.79863551827123203 forward_v I I I I #
coedge $-1 $202 $203 $204 $205 reversed $80 $-1 #
face $-1 $-1 $206 $42 $-1 $207 forward single #
loop $-1 $208 $209 $82 #
cone-surface $-1 49.991333236377429 12.532766056476156 3.7579305515071324 -0.79863551827123203 0 -0.60181501223851219 0.15045375305962805 0 -0.19965887956780801 1 I I -0.70710678118654746 0.70710678118654746 0.25 forward I I I I #
loop $-1 $-1 $210 $53 #
coedge $-1 $132 $132 $211 $212 reversed $83 $-1 #
face $-1 $-1 $213 $43 $-1 $214 forward single #
loop $-1 $215 $216 $85 #
cone-surface $-1 49.991333236377429 16.212380175342687 3.7579305515071324 -0.79863551827123203 0 -0.60181501223851219 0.15045375305962805 0 -0.19965887956780801 1 I I -0.70710678118654746 0.70710678118654746 0.25 forward I I I I #
loop $-1 $-1 $217 $54 #
coedge $-1 $137 $137 $218 $219 reversed $86 $-1 #
face $-1 $220 $221 $33 $-1 $222 reversed single #
loop $-1 $-1 $223 $88 #
plane-surface $-1 0 -34.448856325633173 0 0 1 0 0 0 1 forward_v I I I I #
coedge $-1 $224 $225 $226 $227 forward $89 $-1 #
coedge $-1 $228 $91 $229 $230 forward $56 $-1 #
coedge $-1 $91 $228 $231 $232 forward $56 $-1 #
coedge $-1 $233 $234 $91 $145 reversed $235 $-1 #
edge $-1 $236 -34.448856325633173 $237 34.448856325633173 $144 $238 forward 7 unknown #
face $-1 $239 $240 $34 $-1 $241 reversed single #
loop $-1 $-1 $242 $92 #
plane-surface $-1 0 -38.684880956380525 1.6477111938722393 0 0 1 1 0 0 forward_v I I I I #
coedge $-1 $243 $244 $151 $245 forward $93 $-1 #
coedge $-1 $246 $95 $247 $248 reversed $59 $-1 #
coedge $-1 $95 $246 $149 $245 reversed $59 $-1 #
coedge $-1 $249 $242 $95 $153 reversed $147 $-1 #
edge $-1 $250 -53.379314554277173 $251 53.379314554277173 $152 $252 forward 7 unknown #
face $-1 $253 $254 $35 $-1 $255 reversed single #
loop $-1 $-1 $160 $96 #
plane-surface $-1 0 0 7.6814210595295949 0 0 1 1 0 0 forward_v I I I I #
coedge $-1 $256 $257 $258 $259 reversed $97 $-1 #
coedge $-1 $159 $99 $260 $261 reversed $62 $-1 #
coedge $-1 $99 $158 $256 $262 reversed $62 $-1 #
coedge $-1 $258 $263 $99 $161 forward $155 $-1 #
edge $-1 $264 18.578569227762188 $265 22.521145103380825 $160 $266 forward 7 unknown #
loop $-1 $-1 $167 $100 #
plane-surface $-1 -53.379314554277158 30.854979739520431 1.3719805424562068 -0.84804810408105047 0 0.52991925155115449 0.52991925155115449 0 0.84804810408105047 forward_v I I I I #
loop $-1 $-1 $267 $64 #
coedge $-1 $165 $165 $166 $268 reversed $101 $-1 #
coedge $-1 $166 $166 $165 $268 forward $103 $-1 #
coedge $-1 $167 $167 $104 $168 forward $162 $-1 #
edge $-1 $269 0 $269 6.2831853071796004 $167 $270 forward 7 unknown #
loop $-1 $-1 $174 $105 #
plane-surface $-1 -53.379314554277158 30.854979739520431 1.3719805424562068 -0.84804810408105047 0 0.52991925155115449 0.52991925155115449 0 0.84804810408105047 forward_v I I I I #
loop $-1 $-1 $271 $67 #
coedge $-1 $172 $172 $173 $272 reversed $106 $-1 #
coedge $-1 $173 $173 $172 $272 forward $108 $-1 #
coedge $-1 $174 $174 $109 $175 forward $169 $-1 #
edge $-1 $273 0 $273 6.2831853071796004 $174 $274 forward 7 unknown #
face $-1 $275 $276 $38 $-1 $277 reversed single #
loop $-1 $-1 $278 $110 #
plane-surface $-1 74.391601958782289 -20.13314171765402 150.84915634564894 0 1 0 0.79863551827123203 0 0.60181501223851219 forward_v I I I I #
coedge $-1 $279 $280 $281 $282 reversed $111 $-1 #
coedge $-1 $181 $113 $283 $284 reversed $71 $-1 #
coedge $-1 $113 $180 $279 $285 reversed $71 $-1 #
coedge $-1 $281 $286 $113 $183 forward $287 $-1 #
edge $-1 $288 -16.183513574886028 $289 -11.404139734764613 $182 $290 forward 7 unknown #
loop $-1 $-1 $189 $114 #
plane-surface $-1 -10.869631129254245 -15.840258578976403 86.600210662117519 0.79863551827123203 0 0.60181501223851219 0.60181501223851219 0 -0.79863551827123203 forward_v I I I I #
loop $-1 $-1 $291 $73 #
coedge $-1 $187 $187 $188 $292 reversed $115 $-1 #
coedge $-1 $188 $188 $187 $292 forward $117 $-1 #
coedge $-1 $189 $189 $118 $190 forward $184 $-1 #
edge $-1 $293 0 $293 6.2831853071796004 $189 $294 forward 7 unknown #
loop $-1 $-1 $196 $119 #
plane-surface $-1 -10.869631129254245 -15.840258578976403 86.600210662117519 0.79863551827123203 0 0.60181501223851219 0.60181501223851219 0 -0.79863551827123203 forward_v I I I I #
loop $-1 $-1 $295 $76 #
coedge $-1 $194 $194 $195 $296 reversed $120 $-1 #
coedge $-1 $195 $195 $194 $296 forward $122 $-1 #
coedge $-1 $196 $196 $123 $197 forward $191 $-1 #
edge $-1 $297 0 $297 6.2831853071796004 $196 $298 forward 7 unknown #
face $-1 $299 $300 $41 $-1 $301 reversed single #
loop $-1 $-1 $302 $124 #
plane-surface $-1 74.391601958782289 10.079689977231803 150.84915634564894 0 1 0 0.79863551827123203 0 0.60181501223851219 forward_v I I I I #
coedge $-1 $303 $304 $305 $306 reversed $125 $-1 #
coedge $-1 $203 $127 $307 $308 reversed $80 $-1 #
coedge $-1 $127 $202 $303 $309 reversed $80 $-1 #
coedge $-1 $305 $310 $127 $205 forward $311 $-1 #
edge $-1 $312 -16.183513574886028 $313 -11.404139734764613 $204 $314 forward 7 unknown #
loop $-1 $-1 $211 $128 #
plane-surface $-1 -10.869631129254245 14.372573115909418 86.600210662117519 0.79863551827123203 0 0.60181501223851219 0.60181501223851219 0 -0.79863551827123203 forward_v I I I I #
loop $-1 $-1 $315 $82 #
coedge $-1 $209 $209 $210 $316 reversed $129 $-1 #
coedge $-1 $210 $210 $209 $316 forward $131 $-1 #
coedge $-1 $211 $211 $132 $212 forward $206 $-1 #
edge $-1 $317 0 $317 6.2831853071796004 $211 $318 forward 7 unknown #
loop $-1 $-1 $218 $133 #
plane-surface $-1 -10.869631129254245 14.372573115909418 86.600210662117519 0.79863551827123203 0 0.60181501223851219 0.60181501223851219 0 -0.79863551827123203 forward_v I I I I #
loop $-1 $-1 $319 $85 #
coedge $-1 $216 $216 $217 $320 reversed $134 $-1 #
coedge $-1 $217 $217 $216 $320 forward $136 $-1 #
coedge $-1 $218 $218 $137 $219 forward $213 $-1 #
edge $-1 $321 0 $321 6.2831853071796004 $218 $322 forward 7 unknown #
face $-1 $323 $324 $33 $-1 $325 reversed single #
loop $-1 $-1 $326 $138 #
plane-surface $-1 -53.379314554277173 0 0 1 0 0 0 0 -1 forward_v I I I I #
coedge $-1 $327 $231 $328 $329 forward $139 $-1 #
coedge $-1 $330 $141 $327 $331 forward $89 $-1 #
coedge $-1 $141 $330 $332 $333 forward $89 $-1 #
coedge $-1 $234 $233 $141 $227 reversed $235 $-1 #
edge $-1 $334 -34.448856325633173 $335 34.448856325633173 $226 $336 forward 7 unknown #
coedge $-1 $143 $142 $337 $338 forward $56 $-1 #
coedge $-1 $339 $340 $142 $230 reversed $324 $-1 #
edge $-1 $237 -53.379314554277173 $341 53.379314554277173 $229 $342 forward 7 unknown #
coedge $-1 $223 $343 $143 $232 reversed $139 $-1 #
edge $-1 $344 -53.379314554277173 $236 53.379314554277173 $231 $345 forward 7 unknown #
coedge $-1 $226 $144 $343 $346 forward $235 $-1 #
coedge $-1 $144 $226 $339 $347 reversed $235 $-1 #
loop $-1 $-1 $233 $323 #
vertex $-1 $145 $348 #
vertex $-1 $145 $349 #
straight-curve $-1 53.379314554277173 0 7.6814210595295949 0 1 0 I I #
face $-1 $350 $351 $34 $-1 $352 reversed single #
loop $-1 $-1 $353 $146 #
plane-surface $-1 0 -38.684880956380525 -1.3522888061277607 0 0 1 1 0 0 forward_v I I I I #
coedge $-1 $152 $354 $355 $356 forward $147 $-1 #
coedge $-1 $357 $149 $358 $359 reversed $93 $-1 #
coedge $-1 $149 $357 $249 $360 reversed $93 $-1 #
edge $-1 $250 -1.6477111938722393 $361 1.3522888061277607 $149 $362 forward 7 unknown #
coedge $-1 $151 $150 $363 $364 forward $59 $-1 #
coedge $-1 $355 $365 $150 $248 forward $366 $-1 #
edge $-1 $367 -1.3522888061277607 $251 1.6477111938722393 $247 $368 forward 7 unknown #
coedge $-1 $354 $152 $244 $360 forward $147 $-1 #
vertex $-1 $245 $369 #
vertex $-1 $356 $370 #
straight-curve $-1 0 -34.448856325633173 1.6477111938722393 1 0 0 I I #
face $-1 $-1 $371 $35 $-1 $372 reversed single #
loop $-1 $-1 $373 $154 #
plane-surface $-1 0 34.448856325633173 0 0 -1 0 0 0 -1 forward_v I I I I #
coedge $-1 $374 $157 $159 $262 forward $97 $-1 #
coedge $-1 $157 $374 $373 $375 reversed $97 $-1 #
coedge $-1 $376 $160 $157 $259 forward $155 $-1 #
edge $-1 $265 11.833613283647466 $377 19.021366455872965 $258 $378 forward 7 unknown #
coedge $-1 $379 $380 $158 $261 forward $371 $-1 #
edge $-1 $381 -27.600736145688124 $264 -21.291295628614716 $260 $382 forward 7 unknown #
edge $-1 $265 -7.4399559255077072 $381 2.6737665129848107e-014 $159 $383 forward 7 unknown #
coedge $-1 $160 $376 $379 $384 forward $155 $-1 #
vertex $-1 $261 $385 #
vertex $-1 $161 $386 #
straight-curve $-1 -71.95788378203936 27.261103153407682 7.681421059529594 1 0 0 I I #
coedge $-1 $267 $267 $-1 $387 reversed $164 $-1 #
edge $-1 $388 0 $388 6.2831853071796004 $165 $389 forward 7 unknown #
vertex $-1 $168 $390 #
ellipse-curve $-1 -51.408026616467851 29.314746916900674 4.5267008009928977 -0.84804810408105047 0 0.52991925155115449 0.52991925155115449 0 0.84804810408105047 1 I I #
coedge $-1 $271 $271 $-1 $391 reversed $171 $-1 #
edge $-1 $392 0 $392 6.2831853071796004 $172 $393 forward 7 unknown #
vertex $-1 $175 $394 #
ellipse-curve $-1 -51.408026616467851 32.395212562140173 4.5267008009928977 -0.84804810408105047 0 0.52991925155115449 0.52991925155115449 0 0.84804810408105047 1 I I #
face $-1 $-1 $287 $38 $-1 $395 forward single #
loop $-1 $-1 $396 $176 #
plane-surface $-1 53.379314554277173 0 0 -1 0 0 0 0 1 forward_v I I I I #
coedge $-1 $397 $398 $399 $400 reversed $177 $-1 #
coedge $-1 $401 $179 $181 $285 forward $111 $-1 #
coedge $-1 $179 $401 $397 $402 forward $111 $-1 #
coedge $-1 $399 $182 $179 $282 forward $287 $-1 #
edge $-1 $289 3.6272461508105867 $403 12.213012428165818 $281 $404 forward 7 unknown #
coedge $-1 $405 $406 $180 $284 forward $276 $-1 #
edge $-1 $407 -74.085600598743483 $288 -67.74315711329487 $283 $408 forward 7 unknown #
edge $-1 $289 98.817029542361979 $407 106.75862910855435 $181 $409 forward 7 unknown #
coedge $-1 $182 $399 $405 $410 forward $287 $-1 #
loop $-1 $-1 $399 $275 #
vertex $-1 $284 $411 #
vertex $-1 $183 $412 #
straight-curve $-1 37.195800979391144 -11.547375440298788 7.6814210595295975 -1 0 0 I I #
coedge $-1 $291 $291 $-1 $413 reversed $186 $-1 #
edge $-1 $414 0 $414 6.2831853071796004 $187 $415 forward 7 unknown #
vertex $-1 $190 $416 #
ellipse-curve $-1 50.989627634216482 -17.680065638409665 4.5101993168052807 0.79863551827123203 0 0.60181501223851219 0.3009075061192561 0 -0.39931775913561601 1 I I #
coedge $-1 $295 $295 $-1 $417 reversed $193 $-1 #
edge $-1 $418 0 $418 6.2831853071796004 $194 $419 forward 7 unknown #
vertex $-1 $197 $420 #
ellipse-curve $-1 50.989627634216482 -14.000451519543137 4.5101993168052807 0.79863551827123203 0 0.60181501223851219 0.3009075061192561 0 -0.39931775913561601 1 I I #
face $-1 $-1 $311 $41 $-1 $421 forward single #
loop $-1 $-1 $422 $198 #
plane-surface $-1 53.379314554277173 0 0 -1 0 0 0 0 1 forward_v I I I I #
coedge $-1 $423 $424 $425 $426 reversed $199 $-1 #
coedge $-1 $427 $201 $203 $309 forward $125 $-1 #
coedge $-1 $201 $427 $423 $428 forward $125 $-1 #
coedge $-1 $425 $204 $201 $306 forward $311 $-1 #
edge $-1 $313 -11.479169696632326 $429 -2.8934034192770941 $305 $430 forward 7 unknown #
coedge $-1 $431 $432 $202 $308 forward $300 $-1 #
edge $-1 $433 -74.085600598743483 $312 -67.74315711329487 $307 $434 forward 7 unknown #
edge $-1 $313 98.817029542361979 $433 106.75862910855435 $203 $435 forward 7 unknown #
coedge $-1 $204 $425 $431 $436 forward $311 $-1 #
loop $-1 $-1 $425 $299 #
vertex $-1 $308 $437 #
vertex $-1 $205 $438 #
straight-curve $-1 37.195800979391144 18.665456254587035 7.6814210595295975 -1 0 0 I I #
coedge $-1 $315 $315 $-1 $439 reversed $208 $-1 #
edge $-1 $440 0 $440 6.2831853071796004 $209 $441 forward 7 unknown #
vertex $-1 $212 $442 #
ellipse-curve $-1 50.989627634216482 12.532766056476156 4.5101993168052807 0.79863551827123203 0 0.60181501223851219 0.3009075061192561 0 -0.39931775913561601 1 I I #
coedge $-1 $319 $319 $-1 $443 reversed $215 $-1 #
edge $-1 $444 0 $444 6.2831853071796004 $216 $445 forward 7 unknown #
vertex $-1 $219 $446 #
ellipse-curve $-1 50.989627634216482 16.212380175342687 4.5101993168052807 0.79863551827123203 0 0.60181501223851219 0.3009075061192561 0 -0.39931775913561601 1 I I #
face $-1 $-1 $235 $33 $-1 $447 reversed single #
loop $-1 $-1 $339 $220 #
plane-surface $-1 0 34.448856325633173 0 0 -1 0 0 0 -1 forward_v I I I I #
coedge $-1 $448 $337 $340 $449 forward $221 $-1 #
coedge $-1 $343 $223 $224 $331 reversed $139 $-1 #
coedge $-1 $337 $448 $223 $329 reversed $221 $-1 #
edge $-1 $344 -7.6814210595295949 $450 7.6814210595295949 $328 $451 forward 7 unknown #
coedge $-1 $225 $224 $448 $452 forward $89 $-1 #
edge $-1 $335 -53.379314554277173 $450 53.379314554277173 $327 $453 forward 7 unknown #
coedge $-1 $340 $339 $225 $333 reversed $324 $-1 #
edge $-1 $454 -53.379314554277173 $334 53.379314554277173 $332 $455 forward 7 unknown #
vertex $-1 $227 $456 #
vertex $-1 $346 $457 #
straight-curve $-1 53.379314554277173 0 -7.6814210595295949 0 -1 0 I I #
coedge $-1 $326 $328 $228 $338 reversed $221 $-1 #
edge $-1 $341 -34.448856325633173 $344 34.448856325633173 $337 $458 forward 7 unknown #
coedge $-1 $332 $229 $234 $347 forward $324 $-1 #
coedge $-1 $229 $332 $326 $449 reversed $324 $-1 #
vertex $-1 $230 $459 #
straight-curve $-1 0 34.448856325633173 7.6814210595295949 -1 0 0 I I #
coedge $-1 $231 $327 $233 $346 reversed $139 $-1 #
vertex $-1 $338 $460 #
straight-curve $-1 0 -34.448856325633173 7.6814210595295949 1 0 0 I I #
edge $-1 $236 -7.6814210595295949 $335 7.6814210595295949 $233 $461 forward 7 unknown #
edge $-1 $237 -7.6814210595295949 $334 7.6814210595295949 $234 $462 forward 7 unknown #
point $-1 53.379314554277173 -34.448856325633173 7.6814210595295949 #
point $-1 53.379314554277173 34.448856325633173 7.6814210595295949 #
face $-1 $-1 $366 $34 $-1 $463 reversed single #
loop $-1 $-1 $464 $239 #
plane-surface $-1 0 -42.920905587127876 0.1477111938722393 0 1 0 0 0 1 forward_v I I I I #
coedge $-1 $465 $363 $365 $466 forward $240 $-1 #
coedge $-1 $242 $249 $467 $468 forward $147 $-1 #
coedge $-1 $469 $247 $242 $356 reversed $366 $-1 #
edge $-1 $470 -4.2360246307473517 $251 4.2360246307473517 $355 $471 forward 7 unknown #
coedge $-1 $244 $243 $464 $472 reversed $93 $-1 #
coedge $-1 $363 $465 $243 $359 forward $240 $-1 #
edge $-1 $473 -4.2360246307473517 $361 4.2360246307473517 $243 $474 forward 7 unknown #
edge $-1 $250 -4.2360246307473517 $475 4.2360246307473517 $244 $476 forward 7 unknown #
vertex $-1 $245 $477 #
straight-curve $-1 -53.379314554277173 -34.448856325633173 0 0 0 -1 I I #
coedge $-1 $353 $358 $246 $364 reversed $240 $-1 #
edge $-1 $367 -53.379314554277173 $361 53.379314554277173 $363 $478 forward 7 unknown #
coedge $-1 $247 $469 $353 $466 reversed $366 $-1 #
loop $-1 $-1 $247 $350 #
vertex $-1 $248 $479 #
straight-curve $-1 53.379314554277173 -34.448856325633173 0 0 0 1 I I #
point $-1 -53.379314554277173 -34.448856325633173 1.6477111938722393 #
point $-1 53.379314554277173 -34.448856325633173 1.6477111938722393 #
loop $-1 $-1 $260 $253 #
plane-surface $-1 -53.379314554277173 0 0 1 0 0 0 0 -1 forward_v I I I I #
coedge $-1 $480 $481 $257 $375 forward $254 $-1 #
coedge $-1 $257 $256 $380 $482 reversed $97 $-1 #
edge $-1 $377 6.1216545340173525 $483 13.561610459525086 $373 $484 forward 7 unknown #
coedge $-1 $263 $258 $481 $485 forward $155 $-1 #
vertex $-1 $485 $486 #
straight-curve $-1 -49.436738678658536 15.427489869760215 7.6814210595295958 0 1 0 I I #
coedge $-1 $487 $260 $263 $384 reversed $371 $-1 #
coedge $-1 $260 $487 $374 $482 forward $371 $-1 #
vertex $-1 $261 $488 #
straight-curve $-1 -53.379314554277173 27.261103153407682 28.97271668814431 0 0 1 I I #
straight-curve $-1 -53.379314554277158 27.261103153407682 1.3719805424562068 -0.52991925155115449 0 -0.84804810408105047 I I #
edge $-1 $489 -34.448856325633173 $264 -27.261103153407682 $379 $490 forward 7 unknown #
point $-1 -53.379314554277173 27.261103153407682 7.6814210595295949 #
point $-1 -49.436738678658536 27.261103153407682 7.6814210595295949 #
edge $-1 $491 1 $491 0 $267 $-1 forward 7 unknown #
vertex $-1 $268 $492 #
ellipse-curve $-1 -50.072144450256502 29.314746916900674 3.6919490053428792 -0.84804810408105047 0 0.52991925155115449 0.52991925155115449 0 0.84804810408105047 1 I I #
point $-1 -50.878107364916708 29.314746916900674 5.3747489050739556 #
edge $-1 $493 1 $493 0 $271 $-1 forward 7 unknown #
vertex $-1 $272 $494 #
ellipse-curve $-1 -50.072144450256502 32.395212562140173 3.6919490053428792 -0.84804810408105047 0 0.52991925155115449 0.52991925155115449 0 0.84804810408105047 1 I I #
point $-1 -50.878107364916708 32.395212562140173 5.3747489050739556 #
plane-surface $-1 0 0 7.6814210595295949 0 0 1 1 0 0 forward_v I I I I #
coedge $-1 $406 $405 $398 $495 forward $276 $-1 #
coedge $-1 $398 $278 $280 $402 reversed $177 $-1 #
coedge $-1 $278 $397 $396 $495 reversed $177 $-1 #
coedge $-1 $286 $281 $278 $400 forward $287 $-1 #
edge $-1 $403 11.404139734764613 $496 16.183513574886028 $399 $497 forward 7 unknown #
coedge $-1 $280 $279 $406 $498 reversed $111 $-1 #
edge $-1 $499 -106.75862910855435 $403 -98.817029542361979 $397 $500 forward 7 unknown #
vertex $-1 $282 $501 #
straight-curve $-1 48.599940714155764 -7.9201292894882016 7.6814210595295975 0 -1 0 I I #
coedge $-1 $396 $283 $286 $410 reversed $276 $-1 #
coedge $-1 $283 $396 $401 $498 forward $276 $-1 #
vertex $-1 $284 $502 #
straight-curve $-1 53.379314554277173 -11.547375440298788 75.424578172824468 0 0 1 I I #
straight-curve $-1 -10.869631129254245 -11.547375440298788 86.600210662117519 0.60181501223851219 0 -0.79863551827123203 I I #
edge $-1 $496 -20.13314171765402 $288 -11.547375440298788 $405 $503 forward 7 unknown #
point $-1 53.379314554277173 -11.547375440298788 7.6814210595295949 #
point $-1 48.599940714155757 -11.547375440298788 7.6814210595295975 #
edge $-1 $504 1 $504 0 $291 $-1 forward 7 unknown #
vertex $-1 $292 $505 #
ellipse-curve $-1 50.190992115945235 -17.680065638409665 3.9083843045667606 0.79863551827123203 0 0.60181501223851219 0.3009075061192561 0 -0.39931775913561601 1 I I #
point $-1 51.290535140335727 -17.680065638409665 4.1108815576696562 #
edge $-1 $506 1 $506 0 $295 $-1 forward 7 unknown #
vertex $-1 $296 $507 #
ellipse-curve $-1 50.190992115945235 -14.000451519543137 3.9083843045667606 0.79863551827123203 0 0.60181501223851219 0.3009075061192561 0 -0.39931775913561601 1 I I #
point $-1 51.290535140335727 -14.000451519543137 4.1108815576696562 #
plane-surface $-1 0 0 7.6814210595295949 0 0 1 1 0 0 forward_v I I I I #
coedge $-1 $432 $431 $424 $508 forward $300 $-1 #
coedge $-1 $424 $302 $304 $428 reversed $199 $-1 #
coedge $-1 $302 $423 $422 $508 reversed $199 $-1 #
coedge $-1 $310 $305 $302 $426 forward $311 $-1 #
edge $-1 $429 11.404139734764613 $509 16.183513574886028 $425 $510 forward 7 unknown #
coedge $-1 $304 $303 $432 $511 reversed $125 $-1 #
edge $-1 $512 -106.75862910855435 $429 -98.817029542361979 $423 $513 forward 7 unknown #
vertex $-1 $306 $514 #
straight-curve $-1 48.599940714155764 7.1862865579547091 7.6814210595295975 0 -1 0 I I #
coedge $-1 $422 $307 $310 $436 reversed $300 $-1 #
coedge $-1 $307 $422 $427 $511 forward $300 $-1 #
vertex $-1 $308 $515 #
straight-curve $-1 53.379314554277173 18.665456254587035 75.424578172824468 0 0 1 I I #
straight-curve $-1 -10.869631129254245 18.665456254587035 86.600210662117519 0.60181501223851219 0 -0.79863551827123203 I I #
edge $-1 $509 10.079689977231803 $312 18.665456254587035 $431 $516 forward 7 unknown #
point $-1 53.379314554277173 18.665456254587035 7.6814210595295949 #
point $-1 48.599940714155757 18.665456254587035 7.6814210595295975 #
edge $-1 $517 1 $517 0 $315 $-1 forward 7 unknown #
vertex $-1 $316 $518 #
ellipse-curve $-1 50.190992115945235 12.532766056476156 3.9083843045667606 0.79863551827123203 0 0.60181501223851219 0.3009075061192561 0 -0.39931775913561601 1 I I #
point $-1 51.290535140335727 12.532766056476156 4.1108815576696562 #
edge $-1 $519 1 $519 0 $319 $-1 forward 7 unknown #
vertex $-1 $320 $520 #
ellipse-curve $-1 50.190992115945235 16.212380175342687 3.9083843045667606 0.79863551827123203 0 0.60181501223851219 0.3009075061192561 0 -0.39931775913561601 1 I I #
point $-1 51.290535140335727 16.212380175342687 4.1108815576696562 #
plane-surface $-1 53.379314554277173 0 0 -1 0 0 0 0 1 forward_v I I I I #
coedge $-1 $328 $326 $330 $452 reversed $221 $-1 #
edge $-1 $341 -7.6814210595295949 $454 7.6814210595295949 $340 $521 forward 7 unknown #
vertex $-1 $452 $522 #
straight-curve $-1 -53.379314554277173 -34.448856325633173 0 0 0 -1 I I #
edge $-1 $450 -34.448856325633173 $454 34.448856325633173 $448 $523 forward 7 unknown #
straight-curve $-1 0 -34.448856325633173 -7.6814210595295949 -1 0 0 I I #
vertex $-1 $333 $524 #
straight-curve $-1 0 34.448856325633173 -7.6814210595295949 1 0 0 I I #
point $-1 53.379314554277173 34.448856325633173 -7.6814210595295949 #
point $-1 53.379314554277173 -34.448856325633173 -7.6814210595295949 #
straight-curve $-1 -53.379314554277173 0 7.6814210595295949 0 -1 0 I I #
point $-1 -53.379314554277173 34.448856325633173 7.6814210595295949 #
point $-1 -53.379314554277173 -34.448856325633173 7.6814210595295949 #
straight-curve $-1 53.379314554277173 -34.448856325633173 0 0 0 -1 I I #
straight-curve $-1 53.379314554277173 34.448856325633173 0 0 0 -1 I I #
plane-surface $-1 53.379314554277173 0 0 -1 0 0 0 0 1 forward_v I I I I #
coedge $-1 $525 $467 $357 $472 forward $351 $-1 #
coedge $-1 $358 $353 $525 $526 forward $240 $-1 #
edge $-1 $367 -4.2360246307473517 $527 4.2360246307473517 $365 $528 forward 7 unknown #
coedge $-1 $464 $529 $354 $468 reversed $351 $-1 #
edge $-1 $475 -53.379314554277173 $470 53.379314554277173 $467 $530 forward 7 unknown #
coedge $-1 $365 $355 $529 $531 forward $366 $-1 #
vertex $-1 $356 $532 #
straight-curve $-1 53.379314554277173 -38.684880956380525 1.6477111938722393 0 1 0 I I #
edge $-1 $475 -1.5 $473 1.5 $357 $533 forward 7 unknown #
vertex $-1 $359 $534 #
straight-curve $-1 -53.379314554277173 -38.684880956380525 -1.3522888061277607 0 1 0 I I #
vertex $-1 $360 $535 #
straight-curve $-1 -53.379314554277173 -38.684880956380525 1.6477111938722393 0 -1 0 I I #
point $-1 -53.379314554277173 -34.448856325633173 -1.3522888061277607 #
straight-curve $-1 0 -34.448856325633173 -1.3522888061277607 -1 0 0 I I #
point $-1 53.379314554277173 -34.448856325633173 -1.3522888061277607 #
coedge $-1 $481 $373 $487 $536 reversed $254 $-1 #
coedge $-1 $373 $480 $376 $485 reversed $254 $-1 #
edge $-1 $483 -19.021366455872965 $381 -11.833613283647466 $380 $537 forward 7 unknown #
vertex $-1 $375 $538 #
straight-curve $-1 -46.19275608973733 34.448856325633173 12.872878580942178 -0.52991925155115449 0 -0.84804810408105047 I I #
edge $-1 $377 49.436738678658536 $489 53.379314554277173 $481 $539 forward 7 unknown #
point $-1 -49.436738678658536 34.44885632563318 7.6814210595295949 #
coedge $-1 $380 $379 $480 $536 forward $371 $-1 #
point $-1 -53.379314554277173 27.261103153407682 1.3719805424561842 #
vertex $-1 $485 $540 #
straight-curve $-1 -53.379314554277173 0 7.6814210595295949 0 -1 0 I I #
vertex $-1 $387 $541 #
point $-1 -49.542225198705353 29.314746916900674 4.5399971094239291 #
vertex $-1 $391 $542 #
point $-1 -49.542225198705353 32.395212562140173 4.5399971094239291 #
edge $-1 $496 67.74315711329487 $499 74.085600598743483 $396 $543 forward 7 unknown #
vertex $-1 $410 $544 #
straight-curve $-1 37.195800979391144 -20.13314171765402 7.6814210595295975 1 0 0 I I #
edge $-1 $499 -12.213012428165818 $407 -3.6272461508105867 $406 $545 forward 7 unknown #
vertex $-1 $498 $546 #
straight-curve $-1 -10.869631129254245 -20.13314171765402 86.600210662117519 -0.60181501223851219 0 0.79863551827123203 I I #
point $-1 48.599940714155757 -20.13314171765402 7.6814210595295975 #
point $-1 53.379314554277173 -11.547375440298788 1.3389775740809853 #
straight-curve $-1 53.379314554277173 0 7.6814210595295949 0 1 0 I I #
vertex $-1 $413 $547 #
point $-1 50.491899622064494 -17.680065638409665 3.5090665454311445 #
vertex $-1 $417 $548 #
point $-1 50.491899622064494 -14.000451519543137 3.5090665454311445 #
edge $-1 $509 67.74315711329487 $512 74.085600598743483 $422 $549 forward 7 unknown #
vertex $-1 $436 $550 #
straight-curve $-1 37.195800979391144 10.079689977231803 7.6814210595295975 1 0 0 I I #
edge $-1 $512 2.8934034192770941 $433 11.479169696632326 $432 $551 forward 7 unknown #
vertex $-1 $511 $552 #
straight-curve $-1 -10.869631129254245 10.079689977231803 86.600210662117519 -0.60181501223851219 0 0.79863551827123203 I I #
point $-1 48.599940714155757 10.079689977231803 7.6814210595295975 #
point $-1 53.379314554277173 18.665456254587035 1.3389775740809853 #
straight-curve $-1 53.379314554277173 0 7.6814210595295949 0 1 0 I I #
vertex $-1 $439 $553 #
point $-1 50.491899622064494 12.532766056476156 3.5090665454311445 #
vertex $-1 $443 $554 #
point $-1 50.491899622064494 16.212380175342687 3.5090665454311445 #
straight-curve $-1 -53.379314554277173 34.448856325633173 0 0 0 -1 I I #
point $-1 -53.379314554277173 -34.448856325633173 -7.6814210595295949 #
straight-curve $-1 -53.379314554277173 0 -7.6814210595295949 0 1 0 I I #
point $-1 -53.379314554277173 34.448856325633173 -7.6814210595295949 #
coedge $-1 $529 $464 $465 $526 reversed $351 $-1 #
edge $-1 $527 -53.379314554277173 $473 53.379314554277173 $525 $555 forward 7 unknown #
vertex $-1 $531 $556 #
straight-curve $-1 53.379314554277173 -38.684880956380525 -1.3522888061277607 0 -1 0 I I #
coedge $-1 $467 $525 $469 $531 reversed $351 $-1 #
straight-curve $-1 0 -42.920905587127876 1.6477111938722393 1 0 0 I I #
edge $-1 $470 -1.5 $527 1.5 $469 $557 forward 7 unknown #
point $-1 53.379314554277173 -42.920905587127876 1.6477111938722393 #
straight-curve $-1 -53.379314554277173 -42.920905587127876 0.1477111938722393 0 0 -1 I I #
point $-1 -53.379314554277173 -42.920905587127876 -1.3522888061277607 #
point $-1 -53.379314554277173 -42.920905587127876 1.6477111938722393 #
edge $-1 $489 -7.6814210595295949 $483 -1.3719805424561842 $480 $558 forward 7 unknown #
straight-curve $-1 -53.379314554277173 15.427489869760215 1.3719805424561793 0 -1 0 I I #
point $-1 -53.379314554277173 34.44885632563318 1.3719805424561842 #
straight-curve $-1 0 34.448856325633173 7.6814210595295949 -1 0 0 I I #
point $-1 -53.379314554277173 34.448856325633173 7.6814210595295949 #
point $-1 -49.224096346175457 29.314746916900674 3.1620297537917246 #
point $-1 -49.224096346175457 32.395212562140173 3.1620297537917246 #
straight-curve $-1 53.379314554277173 -20.13314171765402 75.424578172824468 0 0 -1 I I #
point $-1 53.379314554277173 -20.13314171765402 7.6814210595295949 #
straight-curve $-1 53.379314554277173 -7.9201292894882016 1.3389775740809782 0 1 0 I I #
point $-1 53.379314554277173 -20.13314171765402 1.3389775740809853 #
point $-1 49.791674356809622 -17.680065638409665 3.6074767984475042 #
point $-1 49.791674356809622 -14.000451519543137 3.6074767984475042 #
straight-curve $-1 53.379314554277173 10.079689977231803 75.424578172824468 0 0 -1 I I #
point $-1 53.379314554277173 10.079689977231803 7.6814210595295949 #
straight-curve $-1 53.379314554277173 7.1862865579547091 1.3389775740809782 0 1 0 I I #
point $-1 53.379314554277173 10.079689977231803 1.3389775740809853 #
point $-1 49.791674356809622 12.532766056476156 3.6074767984475042 #
point $-1 49.791674356809622 16.212380175342687 3.6074767984475042 #
straight-curve $-1 0 -42.920905587127876 -1.3522888061277607 -1 0 0 I I #
point $-1 53.379314554277173 -42.920905587127876 -1.3522888061277607 #
straight-curve $-1 53.379314554277173 -42.920905587127876 0.1477111938722393 0 0 -1 I I #
straight-curve $-1 -53.379314554277173 34.448856325633173 0 0 0 -1 I I #
End-of-ACIS-data 