500 0 15 0           
7 Unknown 11 ACIS 5.0 NT 24 Thu Mar 25 21:37:44 1999 
-1 9.9999999999999995e-007 1e-010 
body $-1 $15 $-1 $16 #
body $-1 $17 $-1 $18 #
body $-1 $19 $-1 $20 #
body $-1 $21 $-1 $22 #
body $-1 $23 $-1 $24 #
body $-1 $25 $-1 $26 #
body $-1 $27 $-1 $28 #
body $-1 $29 $-1 $30 #
body $-1 $31 $-1 $32 #
body $-1 $33 $-1 $34 #
body $-1 $35 $-1 $36 #
body $-1 $37 $-1 $38 #
body $-1 $39 $-1 $40 #
body $-1 $41 $-1 $42 #
body $-1 $43 $-1 $44 #
lump $-1 $-1 $45 $0 #
transform $-1 1 0 0 0 1 0 0 0 1 42.50251777703177 27.143007789752911 7.4191605874246331 1 rotate no_reflect no_shear #
lump $-1 $-1 $46 $1 #
transform $-1 1 0 0 0 1 0 0 0 1 42.50251777703177 27.143007789752911 7.4191605874246331 1 rotate no_reflect no_shear #
lump $-1 $-1 $47 $2 #
transform $-1 1 0 0 0 1 0 0 0 1 42.50251777703177 27.143007789752911 7.4191605874246331 1 rotate no_reflect no_shear #
lump $-1 $-1 $48 $3 #
transform $-1 1 0 0 0 1 0 0 0 1 42.50251777703177 27.143007789752911 7.4191605874246331 1 rotate no_reflect no_shear #
lump $-1 $-1 $49 $4 #
transform $-1 1 0 0 0 1 0 0 0 1 42.50251777703177 27.143007789752911 7.4191605874246331 1 rotate no_reflect no_shear #
lump $-1 $-1 $50 $5 #
transform $-1 1 0 0 0 1 0 0 0 1 42.50251777703177 27.143007789752911 7.4191605874246331 1 rotate no_reflect no_shear #
lump $-1 $-1 $51 $6 #
transform $-1 1 0 0 0 1 0 0 0 1 42.50251777703177 27.143007789752911 7.4191605874246331 1 rotate no_reflect no_shear #
lump $-1 $-1 $52 $7 #
transform $-1 1 0 0 0 1 0 0 0 1 42.50251777703177 27.143007789752911 7.4191605874246331 1 rotate no_reflect no_shear #
lump $-1 $-1 $53 $8 #
transform $-1 1 0 0 0 1 0 0 0 1 42.50251777703177 27.143007789752911 7.4191605874246331 1 rotate no_reflect no_shear #
lump $-1 $-1 $54 $9 #
transform $-1 1 0 0 0 1 0 0 0 1 42.50251777703177 27.143007789752911 7.4191605874246331 1 rotate no_reflect no_shear #
lump $-1 $-1 $55 $10 #
transform $-1 1 0 0 0 1 0 0 0 1 42.50251777703177 27.143007789752911 7.4191605874246331 1 rotate no_reflect no_shear #
lump $-1 $-1 $56 $11 #
transform $-1 1 0 0 0 1 0 0 0 1 42.50251777703177 27.143007789752911 7.4191605874246331 1 rotate no_reflect no_shear #
lump $-1 $-1 $57 $12 #
transform $-1 1 0 0 0 1 0 0 0 1 42.50251777703177 27.143007789752911 7.4191605874246331 1 rotate no_reflect no_shear #
lump $-1 $-1 $58 $13 #
transform $-1 1 0 0 0 1 0 0 0 1 42.50251777703177 27.143007789752911 7.4191605874246331 1 rotate no_reflect no_shear #
lump $-1 $-1 $59 $14 #
transform $-1 1 0 0 0 1 0 0 0 1 42.50251777703177 27.143007789752911 7.4191605874246331 1 rotate no_reflect no_shear #
shell $-1 $-1 $-1 $60 $-1 $15 #
shell $-1 $-1 $-1 $61 $-1 $17 #
shell $-1 $-1 $-1 $62 $-1 $19 #
shell $-1 $-1 $-1 $63 $-1 $21 #
shell $-1 $-1 $-1 $64 $-1 $23 #
shell $-1 $-1 $-1 $65 $-1 $25 #
shell $-1 $-1 $-1 $66 $-1 $27 #
shell $-1 $-1 $-1 $67 $-1 $29 #
shell $-1 $-1 $-1 $68 $-1 $31 #
shell $-1 $-1 $-1 $69 $-1 $33 #
shell $-1 $-1 $-1 $70 $-1 $35 #
shell $-1 $-1 $-1 $71 $-1 $37 #
shell $-1 $-1 $-1 $72 $-1 $39 #
shell $-1 $-1 $-1 $73 $-1 $41 #
shell $-1 $-1 $-1 $74 $-1 $43 #
face $-1 $75 $76 $45 $-1 $77 forward single #
face $-1 $78 $79 $46 $-1 $80 reversed single #
face $-1 $81 $82 $47 $-1 $83 forward single #
face $-1 $84 $85 $48 $-1 $86 reversed single #
face $-1 $87 $88 $49 $-1 $89 forward single #
face $-1 $90 $91 $50 $-1 $92 forward single #
face $-1 $93 $94 $51 $-1 $95 reversed single #
face $-1 $96 $97 $52 $-1 $98 forward single #
face $-1 $99 $100 $53 $-1 $101 forward single #
face $-1 $102 $103 $54 $-1 $104 reversed single #
face $-1 $105 $106 $55 $-1 $107 forward single #
face $-1 $108 $109 $56 $-1 $110 forward single #
face $-1 $111 $112 $57 $-1 $113 reversed single #
face $-1 $114 $115 $58 $-1 $116 forward single #
face $-1 $117 $118 $59 $-1 $119 forward single #
face $-1 $120 $121 $45 $-1 $122 reversed single #
loop $-1 $-1 $123 $60 #
plane-surface $-1 0 0 7.4191605874246331 0 0 1 1 0 0 forward_v I I I I #
face $-1 $124 $125 $46 $-1 $126 reversed single #
loop $-1 $-1 $127 $61 #
plane-surface $-1 -88.799578919199064 15.635188068466171 74.885944594320392 0 1 0 -0.54463904215088732 0 0.83867056331134215 forward_v I I I I #
face $-1 $128 $129 $47 $-1 $130 forward single #
loop $-1 $131 $132 $62 #
cone-surface $-1 -39.105503720396712 21.389097929109543 4.8102212356572611 0.54463904215088732 0 -0.83867056331134215 0.83867056331134215 0 0.54463904215088732 1 I I 0 1 1 forward I I I I #
face $-1 $133 $134 $48 $-1 $135 reversed single #
loop $-1 $-1 $136 $63 #
plane-surface $-1 -27.129530431945582 -23.479571177192884 50.185253856810064 0.57357644374324357 0 0.81915203911291934 0.81915203911291934 0 -0.57357644374324357 forward_v I I I I #
face $-1 $137 $138 $49 $-1 $139 forward single #
loop $-1 $140 $141 $64 #
cone-surface $-1 37.845277945115186 -25.049615439718611 3.8819669120488243 -0.57357644374324357 0 -0.81915203911291934 0.81915203911291934 0 -0.57357644374324357 1 I I 0 1 1 forward I I I I #
face $-1 $142 $143 $50 $-1 $144 forward single #
loop $-1 $145 $146 $65 #
cone-surface $-1 37.845277945115186 -21.909526914667161 3.8819669120488243 -0.57357644374324357 0 -0.81915203911291934 0.81915203911291934 0 -0.57357644374324357 1 I I 0 1 1 forward I I I I #
face $-1 $147 $148 $51 $-1 $149 reversed single #
loop $-1 $-1 $150 $66 #
plane-surface $-1 21.627355561422164 -11.489960338290988 119.81730206578742 0 1 0 0.57357644374324357 0 0.81915203911291934 forward_v I I I I #
face $-1 $151 $152 $52 $-1 $153 forward single #
loop $-1 $154 $155 $67 #
cone-surface $-1 37.845277945115186 -9.3965679882566882 3.8819669120488243 -0.57357644374324357 0 -0.81915203911291934 0.81915203911291934 0 -0.57357644374324357 1 I I 0 1 1 forward I I I I #
face $-1 $156 $157 $53 $-1 $158 forward single #
loop $-1 $159 $160 $68 #
cone-surface $-1 37.845277945115186 -6.2564794632052347 3.8819669120488243 -0.57357644374324357 0 -0.81915203911291934 0.81915203911291934 0 -0.57357644374324357 1 I I 0 1 1 forward I I I I #
face $-1 $161 $162 $54 $-1 $163 reversed single #
loop $-1 $-1 $164 $69 #
plane-surface $-1 21.627355561422164 4.1630871131709357 119.81730206578742 0 1 0 0.57357644374324357 0 0.81915203911291934 forward_v I I I I #
face $-1 $165 $166 $55 $-1 $167 forward single #
loop $-1 $168 $169 $70 #
cone-surface $-1 37.845277945115186 6.2564794632052347 3.8819669120488243 -0.57357644374324357 0 -0.81915203911291934 0.81915203911291934 0 -0.57357644374324357 1 I I 0 1 1 forward I I I I #
face $-1 $170 $171 $56 $-1 $172 forward single #
loop $-1 $173 $174 $71 #
cone-surface $-1 37.845277945115186 9.3965679882566882 3.8819669120488243 -0.57357644374324357 0 -0.81915203911291934 0.81915203911291934 0 -0.57357644374324357 1 I I 0 1 1 forward I I I I #
face $-1 $175 $176 $57 $-1 $177 reversed single #
loop $-1 $-1 $178 $72 #
plane-surface $-1 21.627355561422164 19.816134564632858 119.81730206578742 0 1 0 0.57357644374324357 0 0.81915203911291934 forward_v I I I I #
face $-1 $179 $180 $58 $-1 $181 forward single #
loop $-1 $182 $183 $73 #
cone-surface $-1 37.845277945115186 21.909526914667158 3.8819669120488243 -0.57357644374324357 0 -0.81915203911291934 0.81915203911291934 0 -0.57357644374324357 1 I I 0 1 1 forward I I I I #
face $-1 $184 $185 $59 $-1 $186 forward single #
loop $-1 $187 $188 $74 #
cone-surface $-1 37.845277945115186 25.049615439718611 3.8819669120488243 -0.57357644374324357 0 -0.81915203911291934 0.81915203911291934 0 -0.57357644374324357 1 I I 0 1 1 forward I I I I #
face $-1 $189 $190 $45 $-1 $191 reversed single #
loop $-1 $-1 $192 $75 #
plane-surface $-1 0 0 -7.4191605874246331 0 0 1 1 0 0 forward_v I I I I #
coedge $-1 $193 $194 $195 $196 forward $76 $-1 #
face $-1 $197 $198 $46 $-1 $199 forward single #
loop $-1 $-1 $200 $78 #
plane-surface $-1 -42.502517777031777 21.389097929109543 3.5947235418932593 -0.54463904215088732 0 0.83867056331134215 0.83867056331134215 0 0.54463904215088732 forward_v I I I I #
coedge $-1 $201 $202 $203 $204 reversed $79 $-1 #
face $-1 $-1 $205 $47 $-1 $206 forward single #
loop $-1 $207 $208 $81 #
cone-surface $-1 -38.380728394200588 21.389097929109543 3.6941651249999126 0.54463904215088732 0 -0.83867056331134215 0.41933528165567108 0 0.27231952107544366 1 I I -0.70710678118654813 0.70710678118654691 0.5 forward I I I I #
loop $-1 $-1 $209 $62 #
coedge $-1 $132 $132 $210 $211 reversed $82 $-1 #
face $-1 $212 $213 $48 $-1 $214 reversed single #
loop $-1 $-1 $215 $84 #
plane-surface $-1 21.627355561422164 -19.816134564632858 119.81730206578742 0 -1 0 -0.57357644374324357 0 -0.81915203911291934 forward_v I I I I #
coedge $-1 $216 $217 $218 $219 reversed $85 $-1 #
face $-1 $-1 $220 $49 $-1 $221 forward single #
loop $-1 $222 $223 $87 #
cone-surface $-1 37.1791191529434 -25.049615439718611 2.9305935791077165 -0.57357644374324357 0 -0.81915203911291934 0.40957601955645967 0 -0.28678822187162178 1 I I -0.70710678118654746 0.70710678118654746 0.5 forward I I I I #
loop $-1 $-1 $224 $64 #
coedge $-1 $141 $141 $225 $226 reversed $88 $-1 #
face $-1 $-1 $227 $50 $-1 $228 forward single #
loop $-1 $229 $230 $90 #
cone-surface $-1 37.1791191529434 -21.909526914667161 2.9305935791077165 -0.57357644374324357 0 -0.81915203911291934 0.40957601955645967 0 -0.28678822187162178 1 I I -0.70710678118654746 0.70710678118654746 0.5 forward I I I I #
loop $-1 $-1 $231 $65 #
coedge $-1 $146 $146 $232 $233 reversed $91 $-1 #
face $-1 $234 $235 $51 $-1 $236 reversed single #
loop $-1 $-1 $237 $93 #
plane-surface $-1 -27.129530431945582 -7.8265237257309614 50.185253856810064 0.57357644374324357 0 0.81915203911291934 0.81915203911291934 0 -0.57357644374324357 forward_v I I I I #
coedge $-1 $238 $239 $240 $241 reversed $94 $-1 #
face $-1 $-1 $242 $52 $-1 $243 forward single #
loop $-1 $244 $245 $96 #
cone-surface $-1 37.1791191529434 -9.3965679882566882 2.9305935791077165 -0.57357644374324357 0 -0.81915203911291934 0.40957601955645967 0 -0.28678822187162178 1 I I -0.70710678118654746 0.70710678118654746 0.5 forward I I I I #
loop $-1 $-1 $246 $67 #
coedge $-1 $155 $155 $247 $248 reversed $97 $-1 #
face $-1 $-1 $249 $53 $-1 $250 forward single #
loop $-1 $251 $252 $99 #
cone-surface $-1 37.1791191529434 -6.2564794632052347 2.9305935791077165 -0.57357644374324357 0 -0.81915203911291934 0.40957601955645967 0 -0.28678822187162178 1 I I -0.70710678118654746 0.70710678118654746 0.5 forward I I I I #
loop $-1 $-1 $253 $68 #
coedge $-1 $160 $160 $254 $255 reversed $100 $-1 #
face $-1 $256 $257 $54 $-1 $258 reversed single #
loop $-1 $-1 $259 $102 #
plane-surface $-1 -27.129530431945582 7.8265237257309614 50.185253856810064 0.57357644374324357 0 0.81915203911291934 0.81915203911291934 0 -0.57357644374324357 forward_v I I I I #
coedge $-1 $260 $261 $262 $263 reversed $103 $-1 #
face $-1 $-1 $264 $55 $-1 $265 forward single #
loop $-1 $266 $267 $105 #
cone-surface $-1 37.1791191529434 6.2564794632052347 2.9305935791077165 -0.57357644374324357 0 -0.81915203911291934 0.40957601955645967 0 -0.28678822187162178 1 I I -0.70710678118654746 0.70710678118654746 0.5 forward I I I I #
loop $-1 $-1 $268 $70 #
coedge $-1 $169 $169 $269 $270 reversed $106 $-1 #
face $-1 $-1 $271 $56 $-1 $272 forward single #
loop $-1 $273 $274 $108 #
cone-surface $-1 37.1791191529434 9.3965679882566882 2.9305935791077165 -0.57357644374324357 0 -0.81915203911291934 0.40957601955645967 0 -0.28678822187162178 1 I I -0.70710678118654746 0.70710678118654746 0.5 forward I I I I #
loop $-1 $-1 $275 $71 #
coedge $-1 $174 $174 $276 $277 reversed $109 $-1 #
face $-1 $278 $279 $57 $-1 $280 reversed single #
loop $-1 $-1 $281 $111 #
plane-surface $-1 -27.129530431945582 23.479571177192884 50.185253856810064 0.57357644374324357 0 0.81915203911291934 0.81915203911291934 0 -0.57357644374324357 forward_v I I I I #
coedge $-1 $282 $283 $284 $285 reversed $112 $-1 #
face $-1 $-1 $286 $58 $-1 $287 forward single #
loop $-1 $288 $289 $114 #
cone-surface $-1 37.1791191529434 21.909526914667158 2.9305935791077165 -0.57357644374324357 0 -0.81915203911291934 0.40957601955645967 0 -0.28678822187162178 1 I I -0.70710678118654746 0.70710678118654746 0.5 forward I I I I #
loop $-1 $-1 $290 $73 #
coedge $-1 $183 $183 $291 $292 reversed $115 $-1 #
face $-1 $-1 $293 $59 $-1 $294 forward single #
loop $-1 $295 $296 $117 #
cone-surface $-1 37.1791191529434 25.049615439718611 2.9305935791077165 -0.57357644374324357 0 -0.81915203911291934 0.40957601955645967 0 -0.28678822187162178 1 I I -0.70710678118654746 0.70710678118654746 0.5 forward I I I I #
loop $-1 $-1 $297 $74 #
coedge $-1 $188 $188 $298 $299 reversed $118 $-1 #
face $-1 $300 $301 $45 $-1 $302 reversed single #
loop $-1 $-1 $303 $120 #
plane-surface $-1 0 -27.143007789752911 0 0 1 0 0 0 1 forward_v I I I I #
coedge $-1 $304 $305 $306 $307 forward $121 $-1 #
coedge $-1 $308 $123 $309 $310 forward $76 $-1 #
coedge $-1 $123 $308 $311 $312 forward $76 $-1 #
coedge $-1 $313 $314 $123 $196 reversed $315 $-1 #
edge $-1 $316 -27.143007789752911 $317 27.143007789752911 $195 $318 forward 7 unknown #
face $-1 $319 $320 $46 $-1 $321 reversed single #
loop $-1 $-1 $203 $124 #
plane-surface $-1 0 0 7.4191605874246331 0 0 1 1 0 0 forward_v I I I I #
coedge $-1 $322 $323 $324 $325 reversed $125 $-1 #
coedge $-1 $202 $127 $326 $327 reversed $79 $-1 #
coedge $-1 $127 $201 $322 $328 reversed $79 $-1 #
coedge $-1 $324 $329 $127 $204 forward $198 $-1 #
edge $-1 $330 1.8972716825677622 $331 7.7863881855965076 $203 $332 forward 7 unknown #
loop $-1 $-1 $210 $128 #
plane-surface $-1 -42.502517777031777 21.389097929109543 3.5947235418932593 -0.54463904215088732 0 0.83867056331134215 0.83867056331134215 0 0.54463904215088732 forward_v I I I I #
loop $-1 $-1 $333 $81 #
coedge $-1 $208 $208 $209 $334 reversed $129 $-1 #
coedge $-1 $209 $209 $208 $334 forward $131 $-1 #
coedge $-1 $210 $210 $132 $211 forward $205 $-1 #
edge $-1 $335 0 $335 6.2831853071796004 $210 $336 forward 7 unknown #
face $-1 $337 $338 $48 $-1 $339 forward single #
loop $-1 $-1 $218 $133 #
plane-surface $-1 42.50251777703177 0 0 -1 0 0 0 0 1 forward_v I I I I #
coedge $-1 $340 $341 $342 $343 reversed $134 $-1 #
coedge $-1 $344 $136 $345 $346 reversed $85 $-1 #
coedge $-1 $136 $344 $340 $347 forward $85 $-1 #
coedge $-1 $342 $348 $136 $219 forward $213 $-1 #
edge $-1 $349 -15.403222201156469 $350 -8.0763489760364156 $218 $351 forward 7 unknown #
loop $-1 $-1 $225 $137 #
plane-surface $-1 -27.129530431945582 -23.479571177192884 50.185253856810064 0.57357644374324357 0 0.81915203911291934 0.81915203911291934 0 -0.57357644374324357 forward_v I I I I #
loop $-1 $-1 $352 $87 #
coedge $-1 $223 $223 $224 $353 reversed $138 $-1 #
coedge $-1 $224 $224 $223 $353 forward $140 $-1 #
coedge $-1 $225 $225 $141 $226 forward $220 $-1 #
edge $-1 $354 0 $354 6.2831853071796004 $225 $355 forward 7 unknown #
loop $-1 $-1 $232 $142 #
plane-surface $-1 -27.129530431945582 -23.479571177192884 50.185253856810064 0.57357644374324357 0 0.81915203911291934 0.81915203911291934 0 -0.57357644374324357 forward_v I I I I #
loop $-1 $-1 $356 $90 #
coedge $-1 $230 $230 $231 $357 reversed $143 $-1 #
coedge $-1 $231 $231 $230 $357 forward $145 $-1 #
coedge $-1 $232 $232 $146 $233 forward $227 $-1 #
edge $-1 $358 0 $358 6.2831853071796004 $232 $359 forward 7 unknown #
face $-1 $360 $361 $51 $-1 $362 reversed single #
loop $-1 $-1 $363 $147 #
plane-surface $-1 21.627355561422164 -4.1630871131709357 119.81730206578742 0 -1 0 -0.57357644374324357 0 -0.81915203911291934 forward_v I I I I #
coedge $-1 $364 $365 $366 $367 reversed $148 $-1 #
coedge $-1 $239 $150 $368 $369 reversed $94 $-1 #
coedge $-1 $150 $238 $364 $370 reversed $94 $-1 #
coedge $-1 $366 $371 $150 $241 forward $361 $-1 #
edge $-1 $372 52.489490445469073 $373 58.48028316945139 $240 $374 forward 7 unknown #
loop $-1 $-1 $247 $151 #
plane-surface $-1 -27.129530431945582 -7.8265237257309614 50.185253856810064 0.57357644374324357 0 0.81915203911291934 0.81915203911291934 0 -0.57357644374324357 forward_v I I I I #
loop $-1 $-1 $375 $96 #
coedge $-1 $245 $245 $246 $376 reversed $152 $-1 #
coedge $-1 $246 $246 $245 $376 forward $154 $-1 #
coedge $-1 $247 $247 $155 $248 forward $242 $-1 #
edge $-1 $377 0 $377 6.2831853071796004 $247 $378 forward 7 unknown #
loop $-1 $-1 $254 $156 #
plane-surface $-1 -27.129530431945582 -7.8265237257309614 50.185253856810064 0.57357644374324357 0 0.81915203911291934 0.81915203911291934 0 -0.57357644374324357 forward_v I I I I #
loop $-1 $-1 $379 $99 #
coedge $-1 $252 $252 $253 $380 reversed $157 $-1 #
coedge $-1 $253 $253 $252 $380 forward $159 $-1 #
coedge $-1 $254 $254 $160 $255 forward $249 $-1 #
edge $-1 $381 0 $381 6.2831853071796004 $254 $382 forward 7 unknown #
face $-1 $383 $384 $54 $-1 $385 reversed single #
loop $-1 $-1 $386 $161 #
plane-surface $-1 21.627355561422164 11.489960338290988 119.81730206578742 0 -1 0 -0.57357644374324357 0 -0.81915203911291934 forward_v I I I I #
coedge $-1 $387 $388 $389 $390 reversed $162 $-1 #
coedge $-1 $261 $164 $391 $392 reversed $103 $-1 #
coedge $-1 $164 $260 $387 $393 reversed $103 $-1 #
coedge $-1 $389 $394 $164 $263 forward $384 $-1 #
edge $-1 $395 52.489490445469073 $396 58.48028316945139 $262 $397 forward 7 unknown #
loop $-1 $-1 $269 $165 #
plane-surface $-1 -27.129530431945582 7.8265237257309614 50.185253856810064 0.57357644374324357 0 0.81915203911291934 0.81915203911291934 0 -0.57357644374324357 forward_v I I I I #
loop $-1 $-1 $398 $105 #
coedge $-1 $267 $267 $268 $399 reversed $166 $-1 #
coedge $-1 $268 $268 $267 $399 forward $168 $-1 #
coedge $-1 $269 $269 $169 $270 forward $264 $-1 #
edge $-1 $400 0 $400 6.2831853071796004 $269 $401 forward 7 unknown #
loop $-1 $-1 $276 $170 #
plane-surface $-1 -27.129530431945582 7.8265237257309614 50.185253856810064 0.57357644374324357 0 0.81915203911291934 0.81915203911291934 0 -0.57357644374324357 forward_v I I I I #
loop $-1 $-1 $402 $108 #
coedge $-1 $274 $274 $275 $403 reversed $171 $-1 #
coedge $-1 $275 $275 $274 $403 forward $173 $-1 #
coedge $-1 $276 $276 $174 $277 forward $271 $-1 #
edge $-1 $404 0 $404 6.2831853071796004 $276 $405 forward 7 unknown #
face $-1 $406 $407 $57 $-1 $408 reversed single #
loop $-1 $-1 $284 $175 #
plane-surface $-1 42.50251777703177 0 0 -1 0 0 0 0 1 forward_v I I I I #
coedge $-1 $409 $410 $411 $412 reversed $176 $-1 #
coedge $-1 $283 $178 $413 $414 reversed $112 $-1 #
coedge $-1 $178 $282 $409 $415 reversed $112 $-1 #
coedge $-1 $411 $416 $178 $285 forward $279 $-1 #
edge $-1 $417 52.489490445469073 $418 58.48028316945139 $284 $419 forward 7 unknown #
loop $-1 $-1 $291 $179 #
plane-surface $-1 -27.129530431945582 23.479571177192884 50.185253856810064 0.57357644374324357 0 0.81915203911291934 0.81915203911291934 0 -0.57357644374324357 forward_v I I I I #
loop $-1 $-1 $420 $114 #
coedge $-1 $289 $289 $290 $421 reversed $180 $-1 #
coedge $-1 $290 $290 $289 $421 forward $182 $-1 #
coedge $-1 $291 $291 $183 $292 forward $286 $-1 #
edge $-1 $422 0 $422 6.2831853071796004 $291 $423 forward 7 unknown #
loop $-1 $-1 $298 $184 #
plane-surface $-1 -27.129530431945582 23.479571177192884 50.185253856810064 0.57357644374324357 0 0.81915203911291934 0.81915203911291934 0 -0.57357644374324357 forward_v I I I I #
loop $-1 $-1 $424 $117 #
coedge $-1 $296 $296 $297 $425 reversed $185 $-1 #
coedge $-1 $297 $297 $296 $425 forward $187 $-1 #
coedge $-1 $298 $298 $188 $299 forward $293 $-1 #
edge $-1 $426 0 $426 6.2831853071796004 $298 $427 forward 7 unknown #
face $-1 $428 $429 $45 $-1 $430 reversed single #
loop $-1 $-1 $431 $189 #
plane-surface $-1 -42.50251777703177 0 0 1 0 0 0 0 -1 forward_v I I I I #
coedge $-1 $432 $311 $433 $434 forward $190 $-1 #
coedge $-1 $435 $192 $432 $436 forward $121 $-1 #
coedge $-1 $192 $435 $437 $438 forward $121 $-1 #
coedge $-1 $314 $313 $192 $307 reversed $315 $-1 #
edge $-1 $439 -27.143007789752911 $440 27.143007789752911 $306 $441 forward 7 unknown #
coedge $-1 $194 $193 $442 $443 forward $76 $-1 #
coedge $-1 $444 $445 $193 $310 reversed $429 $-1 #
edge $-1 $317 -42.50251777703177 $446 42.50251777703177 $309 $447 forward 7 unknown #
coedge $-1 $303 $448 $194 $312 reversed $190 $-1 #
edge $-1 $449 -42.50251777703177 $316 42.50251777703177 $311 $450 forward 7 unknown #
coedge $-1 $306 $195 $448 $451 forward $315 $-1 #
coedge $-1 $195 $306 $444 $452 reversed $315 $-1 #
loop $-1 $-1 $313 $428 #
vertex $-1 $196 $453 #
vertex $-1 $196 $454 #
straight-curve $-1 42.50251777703177 0 7.4191605874246331 0 1 0 I I #
face $-1 $-1 $455 $46 $-1 $456 reversed single #
loop $-1 $-1 $457 $197 #
plane-surface $-1 0 27.143007789752911 0 0 -1 0 0 0 -1 forward_v I I I I #
coedge $-1 $458 $200 $202 $328 forward $125 $-1 #
coedge $-1 $200 $458 $457 $459 reversed $125 $-1 #
coedge $-1 $460 $203 $200 $325 forward $198 $-1 #
edge $-1 $331 4.9406391039113995 $461 16.448458825198145 $324 $462 forward 7 unknown #
coedge $-1 $463 $464 $201 $327 forward $455 $-1 #
edge $-1 $465 -33.84824875526693 $330 -30.023811709735561 $326 $466 forward 7 unknown #
edge $-1 $331 -7.0219663842458226 $465 -8.3777959833898778e-015 $202 $467 forward 7 unknown #
coedge $-1 $203 $460 $463 $468 forward $198 $-1 #
vertex $-1 $327 $469 #
vertex $-1 $204 $470 #
straight-curve $-1 -44.399789459599532 15.635188068466171 7.4191605874246349 1 0 0 I I #
coedge $-1 $333 $333 $-1 $471 reversed $207 $-1 #
edge $-1 $472 0 $472 6.2831853071796004 $208 $473 forward 7 unknown #
vertex $-1 $211 $474 #
ellipse-curve $-1 -39.557959525517397 21.389097929109543 5.5069420646589489 -0.54463904215088732 0 0.83867056331134215 0.83867056331134215 0 0.54463904215088732 1 I I #
face $-1 $-1 $475 $48 $-1 $476 reversed single #
loop $-1 $-1 $477 $212 #
plane-surface $-1 0 0 7.4191605874246331 0 0 1 1 0 0 forward_v I I I I #
coedge $-1 $341 $215 $217 $347 reversed $134 $-1 #
coedge $-1 $215 $340 $477 $478 reversed $134 $-1 #
coedge $-1 $479 $218 $215 $343 forward $213 $-1 #
edge $-1 $350 -58.48028316945139 $480 -52.489490445469073 $342 $481 forward 7 unknown #
coedge $-1 $217 $216 $482 $483 reversed $85 $-1 #
coedge $-1 $484 $485 $216 $346 forward $475 $-1 #
edge $-1 $486 49.056262506293109 $349 59.500890749540915 $345 $487 forward 7 unknown #
edge $-1 $488 74.560407310815734 $350 85.005035554063539 $340 $489 forward 7 unknown #
coedge $-1 $218 $479 $484 $490 forward $213 $-1 #
vertex $-1 $346 $491 #
vertex $-1 $219 $492 #
straight-curve $-1 42.502517777031777 -11.739785588596442 1.4283678634423147 0 1 0 I I #
coedge $-1 $352 $352 $-1 $493 reversed $222 $-1 #
edge $-1 $494 0 $494 6.2831853071796004 $223 $495 forward 7 unknown #
vertex $-1 $226 $496 #
ellipse-curve $-1 38.224648515415353 -25.049615439718611 4.4237642254334801 0.57357644374324357 0 0.81915203911291934 0.81915203911291934 0 -0.57357644374324357 1 I I #
coedge $-1 $356 $356 $-1 $497 reversed $229 $-1 #
edge $-1 $498 0 $498 6.2831853071796004 $230 $499 forward 7 unknown #
vertex $-1 $233 $500 #
ellipse-curve $-1 38.224648515415353 -21.909526914667161 4.4237642254334801 0.57357644374324357 0 0.81915203911291934 0.81915203911291934 0 -0.57357644374324357 1 I I #
face $-1 $-1 $501 $51 $-1 $502 forward single #
loop $-1 $-1 $240 $234 #
plane-surface $-1 42.50251777703177 0 0 -1 0 0 0 0 1 forward_v I I I I #
coedge $-1 $503 $504 $505 $506 reversed $235 $-1 #
coedge $-1 $507 $237 $239 $370 forward $148 $-1 #
coedge $-1 $237 $507 $503 $508 forward $148 $-1 #
coedge $-1 $505 $240 $237 $367 forward $361 $-1 #
edge $-1 $373 -7.5766984754255073 $509 -0.24982525030545499 $366 $510 forward 7 unknown #
coedge $-1 $511 $512 $238 $369 forward $501 $-1 #
edge $-1 $513 23.133101473087862 $372 31.688839996320688 $368 $514 forward 7 unknown #
edge $-1 $373 -85.005035554063539 $513 -74.560407310815734 $239 $515 forward 7 unknown #
coedge $-1 $240 $505 $511 $516 reversed $361 $-1 #
vertex $-1 $516 $517 #
vertex $-1 $241 $518 #
straight-curve $-1 42.50251777703177 -11.489960338290988 59.908651032893708 0 0 -1 I I #
coedge $-1 $375 $375 $-1 $519 reversed $244 $-1 #
edge $-1 $520 0 $520 6.2831853071796004 $245 $521 forward 7 unknown #
vertex $-1 $248 $522 #
ellipse-curve $-1 38.224648515415353 -9.3965679882566882 4.4237642254334801 0.57357644374324357 0 0.81915203911291934 0.81915203911291934 0 -0.57357644374324357 1 I I #
coedge $-1 $379 $379 $-1 $523 reversed $251 $-1 #
edge $-1 $524 0 $524 6.2831853071796004 $252 $525 forward 7 unknown #
vertex $-1 $255 $526 #
ellipse-curve $-1 38.224648515415353 -6.2564794632052347 4.4237642254334801 0.57357644374324357 0 0.81915203911291934 0.81915203911291934 0 -0.57357644374324357 1 I I #
face $-1 $-1 $527 $54 $-1 $528 forward single #
loop $-1 $-1 $262 $256 #
plane-surface $-1 42.50251777703177 0 0 -1 0 0 0 0 1 forward_v I I I I #
coedge $-1 $529 $530 $531 $532 reversed $257 $-1 #
coedge $-1 $533 $259 $261 $393 forward $162 $-1 #
coedge $-1 $259 $533 $529 $534 forward $162 $-1 #
coedge $-1 $531 $262 $259 $390 forward $384 $-1 #
edge $-1 $396 0.24982525030545499 $535 7.5766984754255073 $389 $536 forward 7 unknown #
coedge $-1 $537 $538 $260 $392 forward $527 $-1 #
edge $-1 $539 23.133101473087862 $395 31.688839996320688 $391 $540 forward 7 unknown #
edge $-1 $396 -85.005035554063539 $539 -74.560407310815734 $261 $541 forward 7 unknown #
coedge $-1 $262 $531 $537 $542 reversed $384 $-1 #
vertex $-1 $542 $543 #
vertex $-1 $263 $544 #
straight-curve $-1 42.50251777703177 4.1630871131709357 59.908651032893708 0 0 -1 I I #
coedge $-1 $398 $398 $-1 $545 reversed $266 $-1 #
edge $-1 $546 0 $546 6.2831853071796004 $267 $547 forward 7 unknown #
vertex $-1 $270 $548 #
ellipse-curve $-1 38.224648515415353 6.2564794632052347 4.4237642254334801 0.57357644374324357 0 0.81915203911291934 0.81915203911291934 0 -0.57357644374324357 1 I I #
coedge $-1 $402 $402 $-1 $549 reversed $273 $-1 #
edge $-1 $550 0 $550 6.2831853071796004 $274 $551 forward 7 unknown #
vertex $-1 $277 $552 #
ellipse-curve $-1 38.224648515415353 9.3965679882566882 4.4237642254334801 0.57357644374324357 0 0.81915203911291934 0.81915203911291934 0 -0.57357644374324357 1 I I #
face $-1 $-1 $553 $57 $-1 $554 forward single #
loop $-1 $-1 $555 $278 #
plane-surface $-1 0 27.143007789752911 0 0 -1 0 0 0 -1 forward_v I I I I #
coedge $-1 $556 $281 $283 $415 forward $176 $-1 #
coedge $-1 $281 $556 $555 $557 reversed $176 $-1 #
coedge $-1 $558 $284 $281 $412 forward $279 $-1 #
edge $-1 $418 8.0763489760364156 $559 15.403222201156469 $411 $560 forward 7 unknown #
coedge $-1 $561 $562 $282 $414 forward $553 $-1 #
edge $-1 $563 23.133101473087862 $417 31.688839996320688 $413 $564 forward 7 unknown #
edge $-1 $418 -85.005035554063539 $563 -74.560407310815734 $283 $565 forward 7 unknown #
coedge $-1 $284 $558 $561 $566 reversed $279 $-1 #
vertex $-1 $566 $567 #
vertex $-1 $285 $568 #
straight-curve $-1 42.50251777703177 19.816134564632858 59.908651032893708 0 0 -1 I I #
coedge $-1 $420 $420 $-1 $569 reversed $288 $-1 #
edge $-1 $570 0 $570 6.2831853071796004 $289 $571 forward 7 unknown #
vertex $-1 $292 $572 #
ellipse-curve $-1 38.224648515415353 21.909526914667158 4.4237642254334801 0.57357644374324357 0 0.81915203911291934 0.81915203911291934 0 -0.57357644374324357 1 I I #
coedge $-1 $424 $424 $-1 $573 reversed $295 $-1 #
edge $-1 $574 0 $574 6.2831853071796004 $296 $575 forward 7 unknown #
vertex $-1 $299 $576 #
ellipse-curve $-1 38.224648515415353 25.049615439718611 4.4237642254334801 0.57357644374324357 0 0.81915203911291934 0.81915203911291934 0 -0.57357644374324357 1 I I #
face $-1 $-1 $315 $45 $-1 $577 reversed single #
loop $-1 $-1 $444 $300 #
plane-surface $-1 0 27.143007789752911 0 0 -1 0 0 0 -1 forward_v I I I I #
coedge $-1 $578 $442 $445 $579 forward $301 $-1 #
coedge $-1 $448 $303 $304 $436 reversed $190 $-1 #
coedge $-1 $442 $578 $303 $434 reversed $301 $-1 #
edge $-1 $449 -7.4191605874246331 $580 7.4191605874246331 $433 $581 forward 7 unknown #
coedge $-1 $305 $304 $578 $582 forward $121 $-1 #
edge $-1 $440 -42.50251777703177 $580 42.50251777703177 $432 $583 forward 7 unknown #
coedge $-1 $445 $444 $305 $438 reversed $429 $-1 #
edge $-1 $584 -42.50251777703177 $439 42.50251777703177 $437 $585 forward 7 unknown #
vertex $-1 $307 $586 #
vertex $-1 $451 $587 #
straight-curve $-1 42.50251777703177 0 -7.4191605874246331 0 -1 0 I I #
coedge $-1 $431 $433 $308 $443 reversed $301 $-1 #
edge $-1 $446 -27.143007789752911 $449 27.143007789752911 $442 $588 forward 7 unknown #
coedge $-1 $437 $309 $314 $452 forward $429 $-1 #
coedge $-1 $309 $437 $431 $579 reversed $429 $-1 #
vertex $-1 $310 $589 #
straight-curve $-1 0 27.143007789752911 7.4191605874246331 -1 0 0 I I #
coedge $-1 $311 $432 $313 $451 reversed $190 $-1 #
vertex $-1 $443 $590 #
straight-curve $-1 0 -27.143007789752911 7.4191605874246331 1 0 0 I I #
edge $-1 $316 -7.4191605874246331 $440 7.4191605874246331 $313 $591 forward 7 unknown #
edge $-1 $317 -7.4191605874246331 $439 7.4191605874246331 $314 $592 forward 7 unknown #
point $-1 42.50251777703177 -27.143007789752911 7.4191605874246331 #
point $-1 42.50251777703177 27.143007789752911 7.4191605874246331 #
loop $-1 $-1 $326 $319 #
plane-surface $-1 -42.50251777703177 0 0 1 0 0 0 0 -1 forward_v I I I I #
coedge $-1 $593 $594 $323 $459 forward $320 $-1 #
coedge $-1 $323 $322 $464 $595 reversed $125 $-1 #
edge $-1 $461 9.8219254855339706 $596 16.843891869779785 $457 $597 forward 7 unknown #
coedge $-1 $329 $324 $594 $598 forward $198 $-1 #
vertex $-1 $598 $599 #
straight-curve $-1 -36.613401274003024 10.694548964554771 7.4191605874246331 0 1 0 I I #
coedge $-1 $600 $326 $329 $468 reversed $455 $-1 #
coedge $-1 $326 $600 $458 $595 forward $455 $-1 #
vertex $-1 $327 $601 #
straight-curve $-1 -42.50251777703177 15.635188068466171 37.442972297160196 0 0 1 I I #
straight-curve $-1 -42.502517777031777 15.635188068466171 3.5947235418932593 -0.83867056331134215 0 -0.54463904215088732 I I #
edge $-1 $602 -27.143007789752911 $330 -15.635188068466171 $463 $603 forward 7 unknown #
point $-1 -42.50251777703177 15.635188068466171 7.4191605874246331 #
point $-1 -36.613401274003024 15.635188068466171 7.4191605874246331 #
edge $-1 $604 1 $604 0 $333 $-1 forward 7 unknown #
vertex $-1 $334 $605 #
ellipse-curve $-1 -38.653047915276034 21.389097929109543 4.1135004066555831 -0.54463904215088732 0 0.83867056331134215 0.83867056331134215 0 0.54463904215088732 1 I I #
point $-1 -38.719288962206051 21.389097929109543 6.0515811068098291 #
loop $-1 $-1 $345 $337 #
plane-surface $-1 0 -27.143007789752911 0 0 1 0 0 0 1 forward_v I I I I #
coedge $-1 $482 $606 $341 $478 forward $338 $-1 #
edge $-1 $480 -31.688839996320688 $488 -23.133101473087862 $477 $607 forward 7 unknown #
coedge $-1 $348 $342 $606 $608 reversed $213 $-1 #
vertex $-1 $343 $609 #
straight-curve $-1 42.50251777703177 -19.816134564632858 59.908651032893708 0 0 1 I I #
coedge $-1 $610 $477 $344 $483 forward $338 $-1 #
edge $-1 $488 8.0763489760364156 $486 15.403222201156469 $482 $611 forward 7 unknown #
coedge $-1 $485 $345 $348 $490 reversed $475 $-1 #
coedge $-1 $345 $484 $610 $612 reversed $475 $-1 #
vertex $-1 $612 $613 #
straight-curve $-1 -6.2377582094897122 -27.143007789752911 35.556677179119255 0.81915203911291934 0 -0.57357644374324357 I I #
vertex $-1 $483 $614 #
straight-curve $-1 -27.129530431945582 -19.816134564632858 50.185253856810064 0.81915203911291934 0 -0.57357644374324357 I I #
edge $-1 $615 -7.4191605874246331 $349 -1.4283678634423176 $348 $616 forward 7 unknown #
point $-1 42.50251777703177 -27.143007789752911 1.4283678634423176 #
point $-1 42.50251777703177 -19.816134564632858 1.4283678634423183 #
edge $-1 $617 1 $617 0 $352 $-1 forward 7 unknown #
vertex $-1 $353 $618 #
ellipse-curve $-1 37.465907374815025 -25.049615439718611 3.340169598664176 0.57357644374324357 0 0.81915203911291934 0.81915203911291934 0 -0.57357644374324357 1 I I #
point $-1 39.043800554528268 -25.049615439718611 3.8501877816902281 #
edge $-1 $619 1 $619 0 $356 $-1 forward 7 unknown #
vertex $-1 $357 $620 #
ellipse-curve $-1 37.465907374815025 -21.909526914667161 3.340169598664176 0.57357644374324357 0 0.81915203911291934 0.81915203911291934 0 -0.57357644374324357 1 I I #
point $-1 39.043800554528268 -21.909526914667161 3.8501877816902281 #
loop $-1 $-1 $368 $360 #
plane-surface $-1 0 0 7.4191605874246331 0 0 1 1 0 0 forward_v I I I I #
coedge $-1 $504 $363 $365 $508 reversed $235 $-1 #
coedge $-1 $363 $503 $621 $622 reversed $235 $-1 #
coedge $-1 $371 $366 $363 $506 forward $361 $-1 #
edge $-1 $509 -58.48028316945139 $623 -52.489490445469073 $505 $624 forward 7 unknown #
coedge $-1 $365 $364 $512 $625 reversed $148 $-1 #
edge $-1 $626 74.560407310815734 $509 85.005035554063539 $503 $627 forward 7 unknown #
vertex $-1 $367 $628 #
straight-curve $-1 42.502517777031777 -3.9132618628654807 1.4283678634423147 0 1 0 I I #
coedge $-1 $621 $368 $371 $516 forward $501 $-1 #
coedge $-1 $368 $621 $507 $625 forward $501 $-1 #
vertex $-1 $369 $629 #
straight-curve $-1 10.813677780711082 -11.489960338290988 7.4191605874246349 1 0 0 I I #
straight-curve $-1 -27.129530431945582 -11.489960338290988 50.185253856810064 -0.81915203911291934 0 0.57357644374324357 I I #
edge $-1 $372 -11.489960338290988 $623 -4.1630871131709357 $371 $630 forward 7 unknown #
point $-1 42.50251777703177 -11.489960338290988 7.4191605874246331 #
point $-1 42.50251777703177 -11.489960338290988 1.4283678634423183 #
edge $-1 $631 1 $631 0 $375 $-1 forward 7 unknown #
vertex $-1 $376 $632 #
ellipse-curve $-1 37.465907374815025 -9.3965679882566882 3.340169598664176 0.57357644374324357 0 0.81915203911291934 0.81915203911291934 0 -0.57357644374324357 1 I I #
point $-1 39.043800554528268 -9.3965679882566882 3.8501877816902281 #
edge $-1 $633 1 $633 0 $379 $-1 forward 7 unknown #
vertex $-1 $380 $634 #
ellipse-curve $-1 37.465907374815025 -6.2564794632052347 3.340169598664176 0.57357644374324357 0 0.81915203911291934 0.81915203911291934 0 -0.57357644374324357 1 I I #
point $-1 39.043800554528268 -6.2564794632052347 3.8501877816902281 #
loop $-1 $-1 $391 $383 #
plane-surface $-1 0 0 7.4191605874246331 0 0 1 1 0 0 forward_v I I I I #
coedge $-1 $530 $386 $388 $534 reversed $257 $-1 #
coedge $-1 $386 $529 $635 $636 reversed $257 $-1 #
coedge $-1 $394 $389 $386 $532 forward $384 $-1 #
edge $-1 $535 -58.48028316945139 $637 -52.489490445469073 $531 $638 forward 7 unknown #
coedge $-1 $388 $387 $538 $639 reversed $162 $-1 #
edge $-1 $640 74.560407310815734 $535 85.005035554063539 $529 $641 forward 7 unknown #
vertex $-1 $390 $642 #
straight-curve $-1 42.502517777031777 3.9132618628654807 1.4283678634423147 0 1 0 I I #
coedge $-1 $635 $391 $394 $542 forward $527 $-1 #
coedge $-1 $391 $635 $533 $639 forward $527 $-1 #
vertex $-1 $392 $643 #
straight-curve $-1 10.813677780711082 4.1630871131709357 7.4191605874246349 1 0 0 I I #
straight-curve $-1 -27.129530431945582 4.1630871131709357 50.185253856810064 -0.81915203911291934 0 0.57357644374324357 I I #
edge $-1 $395 4.1630871131709357 $637 11.489960338290988 $394 $644 forward 7 unknown #
point $-1 42.50251777703177 4.1630871131709357 7.4191605874246331 #
point $-1 42.50251777703177 4.1630871131709357 1.4283678634423183 #
edge $-1 $645 1 $645 0 $398 $-1 forward 7 unknown #
vertex $-1 $399 $646 #
ellipse-curve $-1 37.465907374815025 6.2564794632052347 3.340169598664176 0.57357644374324357 0 0.81915203911291934 0.81915203911291934 0 -0.57357644374324357 1 I I #
point $-1 39.043800554528268 6.2564794632052347 3.8501877816902281 #
edge $-1 $647 1 $647 0 $402 $-1 forward 7 unknown #
vertex $-1 $403 $648 #
ellipse-curve $-1 37.465907374815025 9.3965679882566882 3.340169598664176 0.57357644374324357 0 0.81915203911291934 0.81915203911291934 0 -0.57357644374324357 1 I I #
point $-1 39.043800554528268 9.3965679882566882 3.8501877816902281 #
loop $-1 $-1 $413 $406 #
plane-surface $-1 0 0 7.4191605874246331 0 0 1 1 0 0 forward_v I I I I #
coedge $-1 $649 $650 $410 $557 forward $407 $-1 #
coedge $-1 $410 $409 $562 $651 reversed $176 $-1 #
edge $-1 $559 -59.500890749540915 $652 -49.056262506293109 $555 $653 forward 7 unknown #
coedge $-1 $416 $411 $650 $654 reversed $279 $-1 #
vertex $-1 $557 $655 #
straight-curve $-1 42.502517777031777 11.739785588596442 1.4283678634423147 0 1 0 I I #
coedge $-1 $656 $413 $416 $566 forward $553 $-1 #
coedge $-1 $413 $656 $556 $651 forward $553 $-1 #
vertex $-1 $414 $657 #
straight-curve $-1 10.813677780711082 19.816134564632858 7.4191605874246349 1 0 0 I I #
straight-curve $-1 -27.129530431945582 19.816134564632858 50.185253856810064 -0.81915203911291934 0 0.57357644374324357 I I #
edge $-1 $417 19.816134564632858 $658 27.143007789752911 $416 $659 forward 7 unknown #
point $-1 42.50251777703177 19.816134564632858 7.4191605874246331 #
point $-1 42.50251777703177 19.816134564632858 1.4283678634423183 #
edge $-1 $660 1 $660 0 $420 $-1 forward 7 unknown #
vertex $-1 $421 $661 #
ellipse-curve $-1 37.465907374815025 21.909526914667158 3.340169598664176 0.57357644374324357 0 0.81915203911291934 0.81915203911291934 0 -0.57357644374324357 1 I I #
point $-1 39.043800554528268 21.909526914667158 3.8501877816902281 #
edge $-1 $662 1 $662 0 $424 $-1 forward 7 unknown #
vertex $-1 $425 $663 #
ellipse-curve $-1 37.465907374815025 25.049615439718611 3.340169598664176 0.57357644374324357 0 0.81915203911291934 0.81915203911291934 0 -0.57357644374324357 1 I I #
point $-1 39.043800554528268 25.049615439718611 3.8501877816902281 #
plane-surface $-1 42.50251777703177 0 0 -1 0 0 0 0 1 forward_v I I I I #
coedge $-1 $433 $431 $435 $582 reversed $301 $-1 #
edge $-1 $446 -7.4191605874246331 $584 7.4191605874246331 $445 $664 forward 7 unknown #
vertex $-1 $582 $665 #
straight-curve $-1 -42.50251777703177 -27.143007789752911 0 0 0 -1 I I #
edge $-1 $580 -27.143007789752911 $584 27.143007789752911 $578 $666 forward 7 unknown #
straight-curve $-1 0 -27.143007789752911 -7.4191605874246331 -1 0 0 I I #
vertex $-1 $438 $667 #
straight-curve $-1 0 27.143007789752911 -7.4191605874246331 1 0 0 I I #
point $-1 42.50251777703177 27.143007789752911 -7.4191605874246331 #
point $-1 42.50251777703177 -27.143007789752911 -7.4191605874246331 #
straight-curve $-1 -42.50251777703177 0 7.4191605874246331 0 -1 0 I I #
point $-1 -42.50251777703177 27.143007789752911 7.4191605874246331 #
point $-1 -42.50251777703177 -27.143007789752911 7.4191605874246331 #
straight-curve $-1 42.50251777703177 -27.143007789752911 0 0 0 -1 I I #
straight-curve $-1 42.50251777703177 27.143007789752911 0 0 0 -1 I I #
coedge $-1 $594 $457 $600 $668 reversed $320 $-1 #
coedge $-1 $457 $593 $460 $598 reversed $320 $-1 #
edge $-1 $596 -16.448458825198145 $465 -4.9406391039113995 $464 $669 forward 7 unknown #
vertex $-1 $459 $670 #
straight-curve $-1 -28.37604149424822 27.143007789752911 12.768564675943242 -0.83867056331134215 0 -0.54463904215088732 I I #
edge $-1 $461 36.613401274003024 $602 42.50251777703177 $594 $671 forward 7 unknown #
point $-1 -36.613401274003024 27.143007789752915 7.4191605874246331 #
coedge $-1 $464 $463 $593 $668 forward $455 $-1 #
point $-1 -42.50251777703177 15.635188068466171 3.5947235418932637 #
vertex $-1 $598 $672 #
straight-curve $-1 -42.50251777703177 0 7.4191605874246331 0 -1 0 I I #
vertex $-1 $471 $673 #
point $-1 -37.814377351964687 21.389097929109543 4.6581394488064705 #
coedge $-1 $477 $610 $479 $608 forward $338 $-1 #
straight-curve $-1 10.813677780711082 -19.816134564632858 7.4191605874246349 -1 0 0 I I #
edge $-1 $615 -27.143007789752911 $480 -19.816134564632858 $479 $674 forward 7 unknown #
point $-1 42.50251777703177 -19.816134564632858 7.4191605874246331 #
coedge $-1 $606 $482 $485 $612 forward $338 $-1 #
straight-curve $-1 33.946779253798951 -11.739785588596442 7.4191605874246349 0 -1 0 I I #
edge $-1 $486 33.946779253798944 $615 42.50251777703177 $485 $675 forward 7 unknown #
point $-1 33.946779253798944 -27.143007789752911 7.4191605874246349 #
point $-1 33.946779253798944 -19.816134564632858 7.4191605874246349 #
vertex $-1 $608 $676 #
straight-curve $-1 42.50251777703177 -27.143007789752911 0 0 0 -1 I I #
vertex $-1 $493 $677 #
point $-1 38.285059413927939 -25.049615439718611 2.7665931549209324 #
vertex $-1 $497 $678 #
point $-1 38.285059413927939 -21.909526914667161 2.7665931549209324 #
coedge $-1 $512 $511 $504 $622 forward $501 $-1 #
edge $-1 $623 -31.688839996320688 $626 -23.133101473087862 $621 $679 forward 7 unknown #
vertex $-1 $622 $680 #
straight-curve $-1 42.50251777703177 -4.1630871131709357 59.908651032893708 0 0 1 I I #
edge $-1 $626 0.24982525030545499 $513 7.5766984754255073 $512 $681 forward 7 unknown #
vertex $-1 $625 $682 #
straight-curve $-1 -27.129530431945582 -4.1630871131709357 50.185253856810064 0.81915203911291934 0 -0.57357644374324357 I I #
point $-1 42.50251777703177 -4.1630871131709357 1.4283678634423183 #
point $-1 33.946779253798944 -11.489960338290988 7.4191605874246349 #
straight-curve $-1 42.50251777703177 0 7.4191605874246331 0 1 0 I I #
vertex $-1 $519 $683 #
point $-1 38.285059413927939 -9.3965679882566882 2.7665931549209324 #
vertex $-1 $523 $684 #
point $-1 38.285059413927939 -6.2564794632052347 2.7665931549209324 #
coedge $-1 $538 $537 $530 $636 forward $527 $-1 #
edge $-1 $637 -31.688839996320688 $640 -23.133101473087862 $635 $685 forward 7 unknown #
vertex $-1 $636 $686 #
straight-curve $-1 42.50251777703177 11.489960338290988 59.908651032893708 0 0 1 I I #
edge $-1 $640 -7.5766984754255073 $539 -0.24982525030545499 $538 $687 forward 7 unknown #
vertex $-1 $639 $688 #
straight-curve $-1 -27.129530431945582 11.489960338290988 50.185253856810064 0.81915203911291934 0 -0.57357644374324357 I I #
point $-1 42.50251777703177 11.489960338290988 1.4283678634423183 #
point $-1 33.946779253798944 4.1630871131709357 7.4191605874246349 #
straight-curve $-1 42.50251777703177 0 7.4191605874246331 0 1 0 I I #
vertex $-1 $545 $689 #
point $-1 38.285059413927939 6.2564794632052347 2.7665931549209324 #
vertex $-1 $549 $690 #
point $-1 38.285059413927939 9.3965679882566882 2.7665931549209324 #
coedge $-1 $650 $555 $656 $691 reversed $407 $-1 #
coedge $-1 $555 $649 $558 $654 forward $407 $-1 #
edge $-1 $652 -15.403222201156469 $563 -8.0763489760364156 $562 $692 forward 7 unknown #
vertex $-1 $557 $693 #
straight-curve $-1 -6.2377582094897122 27.143007789752911 35.556677179119255 -0.81915203911291934 0 0.57357644374324357 I I #
edge $-1 $658 -7.4191605874246331 $559 -1.4283678634423183 $558 $694 forward 7 unknown #
point $-1 42.50251777703177 27.143007789752911 1.4283678634423183 #
coedge $-1 $562 $561 $649 $691 forward $553 $-1 #
point $-1 33.946779253798944 19.816134564632858 7.4191605874246349 #
vertex $-1 $566 $695 #
straight-curve $-1 42.50251777703177 0 7.4191605874246331 0 1 0 I I #
vertex $-1 $569 $696 #
point $-1 38.285059413927939 21.909526914667158 2.7665931549209324 #
vertex $-1 $573 $697 #
point $-1 38.285059413927939 25.049615439718611 2.7665931549209324 #
straight-curve $-1 -42.50251777703177 27.143007789752911 0 0 0 -1 I I #
point $-1 -42.50251777703177 -27.143007789752911 -7.4191605874246331 #
straight-curve $-1 -42.50251777703177 0 -7.4191605874246331 0 1 0 I I #
point $-1 -42.50251777703177 27.143007789752911 -7.4191605874246331 #
edge $-1 $602 -7.4191605874246331 $596 -3.5947235418932637 $593 $698 forward 7 unknown #
straight-curve $-1 -42.50251777703177 10.694548964554771 3.5947235418932615 0 -1 0 I I #
point $-1 -42.50251777703177 27.143007789752915 3.5947235418932637 #
straight-curve $-1 0 27.143007789752911 7.4191605874246331 -1 0 0 I I #
point $-1 -42.50251777703177 27.143007789752911 7.4191605874246331 #
point $-1 -38.108408873125143 21.389097929109543 3.274829843344242 #
straight-curve $-1 42.50251777703177 0 7.4191605874246331 0 1 0 I I #
straight-curve $-1 0 -27.143007789752911 7.4191605874246331 1 0 0 I I #
point $-1 42.50251777703177 -27.143007789752911 7.4191605874246331 #
point $-1 36.892330931071776 -25.049615439718611 2.5210175595512569 #
point $-1 36.892330931071776 -21.909526914667161 2.5210175595512569 #
straight-curve $-1 10.813677780711082 -4.1630871131709357 7.4191605874246349 -1 0 0 I I #
point $-1 42.50251777703177 -4.1630871131709357 7.4191605874246331 #
straight-curve $-1 33.946779253798951 -3.9132618628654807 7.4191605874246349 0 -1 0 I I #
point $-1 33.946779253798944 -4.1630871131709357 7.4191605874246349 #
point $-1 36.892330931071776 -9.3965679882566882 2.5210175595512569 #
point $-1 36.892330931071776 -6.2564794632052347 2.5210175595512569 #
straight-curve $-1 10.813677780711082 11.489960338290988 7.4191605874246349 -1 0 0 I I #
point $-1 42.50251777703177 11.489960338290988 7.4191605874246331 #
straight-curve $-1 33.946779253798951 3.9132618628654807 7.4191605874246349 0 -1 0 I I #
point $-1 33.946779253798944 11.489960338290988 7.4191605874246349 #
point $-1 36.892330931071776 6.2564794632052347 2.5210175595512569 #
point $-1 36.892330931071776 9.3965679882566882 2.5210175595512569 #
edge $-1 $658 -42.50251777703177 $652 -33.946779253798944 $649 $699 forward 7 unknown #
straight-curve $-1 33.946779253798951 11.739785588596442 7.4191605874246349 0 -1 0 I I #
point $-1 33.946779253798944 27.143007789752911 7.4191605874246349 #
straight-curve $-1 42.50251777703177 27.143007789752911 0 0 0 -1 I I #
point $-1 42.50251777703177 27.143007789752911 7.4191605874246331 #
point $-1 36.892330931071776 21.909526914667158 2.5210175595512569 #
point $-1 36.892330931071776 25.049615439718611 2.5210175595512569 #
straight-curve $-1 -42.50251777703177 27.143007789752911 0 0 0 -1 I I #
straight-curve $-1 0 27.143007789752911 7.4191605874246331 -1 0 0 I I #
End-of-ACIS-data 