500 0 10 0           
7 Unknown 11 ACIS 5.0 NT 24 Thu Mar 25 15:52:47 1999 
-1 9.9999999999999995e-007 1e-010 
body $-1 $10 $-1 $11 #
body $-1 $12 $-1 $13 #
body $-1 $14 $-1 $15 #
body $-1 $16 $-1 $17 #
body $-1 $18 $-1 $19 #
body $-1 $20 $-1 $21 #
body $-1 $22 $-1 $23 #
body $-1 $24 $-1 $25 #
body $-1 $26 $-1 $27 #
body $-1 $28 $-1 $29 #
lump $-1 $-1 $30 $0 #
transform $-1 1 0 0 0 1 0 0 0 1 67.226172673726609 30.25229061382392 14.977685932214769 1 rotate no_reflect no_shear #
lump $-1 $-1 $31 $1 #
transform $-1 1 0 0 0 1 0 0 0 1 67.226172673726609 30.25229061382392 14.977685932214769 1 rotate no_reflect no_shear #
lump $-1 $-1 $32 $2 #
transform $-1 1 0 0 0 1 0 0 0 1 67.226172673726609 30.25229061382392 14.977685932214769 1 rotate no_reflect no_shear #
lump $-1 $-1 $33 $3 #
transform $-1 1 0 0 0 1 0 0 0 1 67.226172673726609 30.25229061382392 14.977685932214769 1 rotate no_reflect no_shear #
lump $-1 $-1 $34 $4 #
transform $-1 1 0 0 0 1 0 0 0 1 67.226172673726609 30.25229061382392 14.977685932214769 1 rotate no_reflect no_shear #
lump $-1 $-1 $35 $5 #
transform $-1 1 0 0 0 1 0 0 0 1 67.226172673726609 30.25229061382392 14.977685932214769 1 rotate no_reflect no_shear #
lump $-1 $-1 $36 $6 #
transform $-1 1 0 0 0 1 0 0 0 1 67.226172673726609 30.25229061382392 14.977685932214769 1 rotate no_reflect no_shear #
lump $-1 $-1 $37 $7 #
transform $-1 1 0 0 0 1 0 0 0 1 67.226172673726609 30.25229061382392 14.977685932214769 1 rotate no_reflect no_shear #
lump $-1 $-1 $38 $8 #
transform $-1 1 0 0 0 1 0 0 0 1 67.226172673726609 30.25229061382392 14.977685932214769 1 rotate no_reflect no_shear #
lump $-1 $-1 $39 $9 #
transform $-1 1 0 0 0 1 0 0 0 1 67.226172673726609 30.25229061382392 14.977685932214769 1 rotate no_reflect no_shear #
shell $-1 $-1 $-1 $40 $-1 $10 #
shell $-1 $-1 $-1 $41 $-1 $12 #
shell $-1 $-1 $-1 $42 $-1 $14 #
shell $-1 $-1 $-1 $43 $-1 $16 #
shell $-1 $-1 $-1 $44 $-1 $18 #
shell $-1 $-1 $-1 $45 $-1 $20 #
shell $-1 $-1 $-1 $46 $-1 $22 #
shell $-1 $-1 $-1 $47 $-1 $24 #
shell $-1 $-1 $-1 $48 $-1 $26 #
shell $-1 $-1 $-1 $49 $-1 $28 #
face $-1 $50 $51 $30 $-1 $52 forward single #
face $-1 $53 $54 $31 $-1 $55 forward single #
face $-1 $56 $57 $32 $-1 $58 reversed single #
face $-1 $59 $60 $33 $-1 $61 forward single #
face $-1 $62 $63 $34 $-1 $64 reversed single #
face $-1 $65 $66 $35 $-1 $67 forward single #
face $-1 $68 $69 $36 $-1 $70 reversed single #
face $-1 $71 $72 $37 $-1 $73 forward single #
face $-1 $74 $75 $38 $-1 $76 reversed single #
face $-1 $77 $78 $39 $-1 $79 forward single #
face $-1 $80 $81 $30 $-1 $82 reversed single #
loop $-1 $-1 $83 $40 #
plane-surface $-1 0 0 14.977685932214769 0 0 1 1 0 0 forward_v I I I I #
face $-1 $84 $85 $31 $-1 $86 reversed single #
loop $-1 $-1 $87 $41 #
plane-surface $-1 -60.669678886660854 0 0.90440659396227563 0 0 1 1 0 0 forward_v I I I I #
face $-1 $88 $89 $32 $-1 $90 reversed single #
loop $-1 $-1 $91 $42 #
plane-surface $-1 -54.1131850995951 114.33828335200506 130.50064473901972 1 0 0 0 -0.85716730853699208 -0.51503806187062418 forward_v I I I I #
face $-1 $92 $93 $33 $-1 $94 forward single #
loop $-1 $95 $96 $43 #
cone-surface $-1 -48.024415231227167 27.018406156069965 11.249406500613381 0 -0.85716730853699208 -0.51503806187062418 1 0 0 1 I I 0 1 1 forward I I I I #
face $-1 $97 $98 $34 $-1 $99 reversed single #
loop $-1 $-1 $100 $44 #
plane-surface $-1 -17.725912420733152 114.33828335200506 130.50064473901972 1 0 0 0 -0.85716730853699208 -0.51503806187062418 forward_v I I I I #
face $-1 $101 $102 $35 $-1 $103 forward single #
loop $-1 $104 $105 $45 #
cone-surface $-1 -11.637142552365219 27.018406156069965 11.249406500613381 0 -0.85716730853699208 -0.51503806187062418 1 0 0 1 I I 0 1 1 forward I I I I #
face $-1 $106 $107 $36 $-1 $108 reversed single #
loop $-1 $-1 $109 $46 #
plane-surface $-1 18.661360258128795 114.33828335200506 130.50064473901972 1 0 0 0 -0.85716730853699208 -0.51503806187062418 forward_v I I I I #
face $-1 $110 $111 $37 $-1 $112 forward single #
loop $-1 $113 $114 $47 #
cone-surface $-1 24.750130126496728 27.018406156069965 11.249406500613381 0 -0.85716730853699208 -0.51503806187062418 1 0 0 1 I I 0 1 1 forward I I I I #
face $-1 $115 $116 $38 $-1 $117 reversed single #
loop $-1 $-1 $118 $48 #
plane-surface $-1 55.048632936990742 114.33828335200506 130.50064473901972 1 0 0 0 -0.85716730853699208 -0.51503806187062418 forward_v I I I I #
face $-1 $119 $120 $39 $-1 $121 forward single #
loop $-1 $122 $123 $49 #
cone-surface $-1 61.137402805358676 27.018406156069965 11.249406500613381 0 -0.85716730853699208 -0.51503806187062418 1 0 0 1 I I 0 1 1 forward I I I I #
face $-1 $124 $125 $30 $-1 $126 reversed single #
loop $-1 $-1 $127 $50 #
plane-surface $-1 0 0 -14.977685932214769 0 0 1 1 0 0 forward_v I I I I #
coedge $-1 $128 $129 $130 $131 forward $51 $-1 #
face $-1 $132 $133 $31 $-1 $134 reversed single #
loop $-1 $-1 $135 $53 #
plane-surface $-1 -60.669678886660854 0 -3.2947574913944608 0 0 1 1 0 0 forward_v I I I I #
coedge $-1 $136 $137 $138 $139 forward $54 $-1 #
face $-1 $140 $141 $32 $-1 $142 reversed single #
loop $-1 $-1 $143 $56 #
plane-surface $-1 -48.024415231227167 -0.90987163595758602 61.25256937730758 0 0.85716730853699208 0.51503806187062418 1 0 0 forward_v I I I I #
coedge $-1 $144 $145 $146 $147 reversed $57 $-1 #
face $-1 $-1 $148 $33 $-1 $149 forward single #
loop $-1 $150 $151 $59 #
cone-surface $-1 -48.024415231227167 25.034642091860849 10.057440838060629 0 -0.85716730853699208 -0.51503806187062418 0.5 0 0 1 I I -0.70710678118654746 0.70710678118654746 0.5 forward I I I I #
loop $-1 $-1 $152 $43 #
coedge $-1 $96 $96 $153 $154 reversed $60 $-1 #
face $-1 $155 $156 $34 $-1 $157 reversed single #
loop $-1 $-1 $158 $62 #
plane-surface $-1 -11.637142552365219 -0.90987163595758602 61.25256937730758 0 0.85716730853699208 0.51503806187062418 1 0 0 forward_v I I I I #
coedge $-1 $159 $160 $161 $162 reversed $63 $-1 #
face $-1 $-1 $163 $35 $-1 $164 forward single #
loop $-1 $165 $166 $65 #
cone-surface $-1 -11.637142552365219 25.034642091860849 10.057440838060629 0 -0.85716730853699208 -0.51503806187062418 0.5 0 0 1 I I -0.70710678118654746 0.70710678118654746 0.5 forward I I I I #
loop $-1 $-1 $167 $45 #
coedge $-1 $105 $105 $168 $169 reversed $66 $-1 #
face $-1 $170 $171 $36 $-1 $172 reversed single #
loop $-1 $-1 $173 $68 #
plane-surface $-1 24.750130126496728 -0.90987163595758602 61.25256937730758 0 0.85716730853699208 0.51503806187062418 1 0 0 forward_v I I I I #
coedge $-1 $174 $175 $176 $177 reversed $69 $-1 #
face $-1 $-1 $178 $37 $-1 $179 forward single #
loop $-1 $180 $181 $71 #
cone-surface $-1 24.750130126496728 25.034642091860849 10.057440838060629 0 -0.85716730853699208 -0.51503806187062418 0.5 0 0 1 I I -0.70710678118654746 0.70710678118654746 0.5 forward I I I I #
loop $-1 $-1 $182 $47 #
coedge $-1 $114 $114 $183 $184 reversed $72 $-1 #
face $-1 $185 $186 $38 $-1 $187 forward single #
loop $-1 $-1 $188 $74 #
plane-surface $-1 61.137402805358676 -0.90987163595758602 61.25256937730758 0 0.85716730853699208 0.51503806187062418 1 0 0 forward_v I I I I #
coedge $-1 $189 $190 $191 $192 reversed $75 $-1 #
face $-1 $-1 $193 $39 $-1 $194 forward single #
loop $-1 $195 $196 $77 #
cone-surface $-1 61.137402805358676 25.034642091860849 10.057440838060629 0 -0.85716730853699208 -0.51503806187062418 0.5 0 0 1 I I -0.70710678118654746 0.70710678118654746 0.5 forward I I I I #
loop $-1 $-1 $197 $49 #
coedge $-1 $123 $123 $198 $199 reversed $78 $-1 #
face $-1 $200 $201 $30 $-1 $202 reversed single #
loop $-1 $-1 $203 $80 #
plane-surface $-1 0 -30.25229061382392 0 0 1 0 0 0 1 forward_v I I I I #
coedge $-1 $204 $205 $206 $207 forward $81 $-1 #
coedge $-1 $208 $83 $209 $210 forward $51 $-1 #
coedge $-1 $83 $208 $211 $212 forward $51 $-1 #
coedge $-1 $213 $214 $83 $131 reversed $215 $-1 #
edge $-1 $216 -30.25229061382392 $217 30.25229061382392 $130 $218 forward 7 unknown #
face $-1 $219 $220 $31 $-1 $221 reversed single #
loop $-1 $-1 $222 $84 #
plane-surface $-1 -54.1131850995951 0 -1.1951754487160926 -1 0 0 0 0 1 forward_v I I I I #
coedge $-1 $223 $224 $225 $226 forward $85 $-1 #
coedge $-1 $227 $87 $228 $229 reversed $54 $-1 #
coedge $-1 $87 $227 $230 $231 reversed $54 $-1 #
coedge $-1 $222 $232 $87 $139 reversed $133 $-1 #
edge $-1 $233 -30.25229061382392 $234 30.25229061382392 $138 $235 forward 7 unknown #
face $-1 $236 $237 $32 $-1 $238 forward single #
loop $-1 $-1 $239 $88 #
plane-surface $-1 -41.935645362859233 114.33828335200506 130.50064473901972 -1 0 0 0 0.85716730853699208 0.51503806187062418 forward_v I I I I #
coedge $-1 $240 $241 $242 $243 reversed $89 $-1 #
coedge $-1 $145 $91 $244 $245 reversed $57 $-1 #
coedge $-1 $91 $144 $240 $246 reversed $57 $-1 #
coedge $-1 $242 $247 $91 $147 forward $237 $-1 #
edge $-1 $248 26.916851062178612 $249 30.274259157805297 $146 $250 forward 7 unknown #
loop $-1 $-1 $153 $92 #
plane-surface $-1 -48.024415231227167 -0.90987163595758602 61.25256937730758 0 0.85716730853699208 0.51503806187062418 1 0 0 forward_v I I I I #
loop $-1 $-1 $251 $59 #
coedge $-1 $151 $151 $152 $252 reversed $93 $-1 #
coedge $-1 $152 $152 $151 $252 forward $95 $-1 #
coedge $-1 $153 $153 $96 $154 forward $148 $-1 #
edge $-1 $253 -6.0119174158796704e-016 $253 6.2831853071795996 $153 $254 forward 7 unknown #
face $-1 $255 $256 $34 $-1 $257 forward single #
loop $-1 $-1 $258 $97 #
plane-surface $-1 -5.548372683997286 114.33828335200506 130.50064473901972 -1 0 0 0 0.85716730853699208 0.51503806187062418 forward_v I I I I #
coedge $-1 $259 $260 $261 $262 reversed $98 $-1 #
coedge $-1 $160 $100 $263 $264 reversed $63 $-1 #
coedge $-1 $100 $159 $259 $265 reversed $63 $-1 #
coedge $-1 $261 $266 $100 $162 forward $256 $-1 #
edge $-1 $267 26.916851062178612 $268 30.274259157805297 $161 $269 forward 7 unknown #
loop $-1 $-1 $168 $101 #
plane-surface $-1 -11.637142552365219 -0.90987163595758602 61.25256937730758 0 0.85716730853699208 0.51503806187062418 1 0 0 forward_v I I I I #
loop $-1 $-1 $270 $65 #
coedge $-1 $166 $166 $167 $271 reversed $102 $-1 #
coedge $-1 $167 $167 $166 $271 forward $104 $-1 #
coedge $-1 $168 $168 $105 $169 forward $163 $-1 #
edge $-1 $272 -6.0119174158796704e-016 $272 6.2831853071795996 $168 $273 forward 7 unknown #
face $-1 $274 $275 $36 $-1 $276 forward single #
loop $-1 $-1 $277 $106 #
plane-surface $-1 30.838899994864661 114.33828335200506 130.50064473901972 -1 0 0 0 0.85716730853699208 0.51503806187062418 forward_v I I I I #
coedge $-1 $278 $279 $280 $281 reversed $107 $-1 #
coedge $-1 $175 $109 $282 $283 reversed $69 $-1 #
coedge $-1 $109 $174 $278 $284 reversed $69 $-1 #
coedge $-1 $280 $285 $109 $177 forward $275 $-1 #
edge $-1 $286 26.916851062178612 $287 30.274259157805297 $176 $288 forward 7 unknown #
loop $-1 $-1 $183 $110 #
plane-surface $-1 24.750130126496728 -0.90987163595758602 61.25256937730758 0 0.85716730853699208 0.51503806187062418 1 0 0 forward_v I I I I #
loop $-1 $-1 $289 $71 #
coedge $-1 $181 $181 $182 $290 reversed $111 $-1 #
coedge $-1 $182 $182 $181 $290 forward $113 $-1 #
coedge $-1 $183 $183 $114 $184 forward $178 $-1 #
edge $-1 $291 -6.0119174158796704e-016 $291 6.2831853071795996 $183 $292 forward 7 unknown #
face $-1 $293 $294 $38 $-1 $295 reversed single #
loop $-1 $-1 $191 $115 #
plane-surface $-1 0 0 14.977685932214769 0 0 1 1 0 0 forward_v I I I I #
coedge $-1 $296 $297 $298 $299 reversed $116 $-1 #
coedge $-1 $190 $118 $300 $301 reversed $75 $-1 #
coedge $-1 $118 $189 $296 $302 reversed $75 $-1 #
coedge $-1 $298 $303 $118 $192 forward $186 $-1 #
edge $-1 $304 26.916851062178612 $305 30.274259157805297 $191 $306 forward 7 unknown #
loop $-1 $-1 $198 $119 #
plane-surface $-1 61.137402805358676 -0.90987163595758602 61.25256937730758 0 0.85716730853699208 0.51503806187062418 1 0 0 forward_v I I I I #
loop $-1 $-1 $307 $77 #
coedge $-1 $196 $196 $197 $308 reversed $120 $-1 #
coedge $-1 $197 $197 $196 $308 forward $122 $-1 #
coedge $-1 $198 $198 $123 $199 forward $193 $-1 #
edge $-1 $309 -6.0119174158796704e-016 $309 6.2831853071795996 $198 $310 forward 7 unknown #
face $-1 $311 $312 $30 $-1 $313 reversed single #
loop $-1 $-1 $314 $124 #
plane-surface $-1 -67.226172673726609 0 0 1 0 0 0 0 -1 forward_v I I I I #
coedge $-1 $315 $211 $316 $317 forward $125 $-1 #
coedge $-1 $318 $127 $315 $319 forward $81 $-1 #
coedge $-1 $127 $318 $320 $321 forward $81 $-1 #
coedge $-1 $214 $213 $127 $207 reversed $215 $-1 #
edge $-1 $322 -30.25229061382392 $323 30.25229061382392 $206 $324 forward 7 unknown #
coedge $-1 $129 $128 $325 $326 forward $51 $-1 #
coedge $-1 $327 $328 $128 $210 reversed $312 $-1 #
edge $-1 $217 -67.226172673726609 $329 67.226172673726609 $209 $330 forward 7 unknown #
coedge $-1 $203 $331 $129 $212 reversed $125 $-1 #
edge $-1 $332 -67.226172673726609 $216 67.226172673726609 $211 $333 forward 7 unknown #
coedge $-1 $206 $130 $331 $334 forward $215 $-1 #
coedge $-1 $130 $206 $327 $335 reversed $215 $-1 #
loop $-1 $-1 $213 $311 #
vertex $-1 $131 $336 #
vertex $-1 $131 $337 #
straight-curve $-1 67.226172673726609 0 14.977685932214769 0 1 0 I I #
face $-1 $338 $339 $31 $-1 $340 reversed single #
loop $-1 $-1 $341 $132 #
plane-surface $-1 0 -30.25229061382392 0 0 1 0 0 0 1 forward_v I I I I #
coedge $-1 $225 $138 $342 $343 reversed $133 $-1 #
coedge $-1 $344 $135 $341 $345 reversed $85 $-1 #
coedge $-1 $135 $344 $346 $347 reversed $85 $-1 #
coedge $-1 $232 $222 $135 $226 reversed $133 $-1 #
edge $-1 $348 -30.25229061382392 $349 30.25229061382392 $225 $350 forward 7 unknown #
coedge $-1 $137 $136 $351 $352 reversed $54 $-1 #
coedge $-1 $353 $354 $136 $229 forward $355 $-1 #
edge $-1 $356 -36.891333230396185 $234 -23.778345656264673 $228 $357 forward 7 unknown #
coedge $-1 $358 $342 $137 $231 forward $220 $-1 #
edge $-1 $233 23.778345656264673 $359 36.891333230396185 $230 $360 forward 7 unknown #
coedge $-1 $138 $225 $353 $361 reversed $133 $-1 #
vertex $-1 $231 $362 #
vertex $-1 $229 $363 #
straight-curve $-1 -54.1131850995951 0 0.90440659396227563 0 1 0 I I #
face $-1 $-1 $364 $32 $-1 $365 reversed single #
loop $-1 $-1 $146 $140 #
plane-surface $-1 0 0 14.977685932214769 0 0 1 1 0 0 forward_v I I I I #
coedge $-1 $366 $367 $368 $369 reversed $141 $-1 #
coedge $-1 $370 $143 $145 $246 forward $89 $-1 #
coedge $-1 $143 $370 $366 $371 forward $89 $-1 #
coedge $-1 $368 $146 $143 $243 forward $237 $-1 #
edge $-1 $249 -30.100977483981517 $372 -17.92343774724565 $242 $373 forward 7 unknown #
coedge $-1 $374 $375 $144 $245 forward $364 $-1 #
edge $-1 $376 -55.860302037263004 $248 -50.272636437295091 $244 $377 forward 7 unknown #
edge $-1 $249 53.985823985838316 $376 60.504581227647869 $145 $378 forward 7 unknown #
coedge $-1 $146 $368 $374 $379 forward $237 $-1 #
vertex $-1 $245 $380 #
vertex $-1 $147 $381 #
straight-curve $-1 -54.1131850995951 57.169141676002532 14.977685932214769 0 -1 0 I I #
coedge $-1 $251 $251 $-1 $382 reversed $150 $-1 #
edge $-1 $383 0 $383 6.2831853071796004 $151 $384 forward 7 unknown #
vertex $-1 $154 $385 #
ellipse-curve $-1 -48.024415231227167 28.573586566010569 12.183853132230812 0 0.85716730853699208 0.51503806187062418 1 0 0 1 I I #
face $-1 $-1 $386 $34 $-1 $387 reversed single #
loop $-1 $-1 $161 $155 #
plane-surface $-1 0 0 14.977685932214769 0 0 1 1 0 0 forward_v I I I I #
coedge $-1 $388 $389 $390 $391 reversed $156 $-1 #
coedge $-1 $392 $158 $160 $265 forward $98 $-1 #
coedge $-1 $158 $392 $388 $393 forward $98 $-1 #
coedge $-1 $390 $161 $158 $262 forward $256 $-1 #
edge $-1 $268 -11.907341144550543 $394 0.27019859218532361 $261 $395 forward 7 unknown #
coedge $-1 $396 $397 $159 $264 forward $386 $-1 #
edge $-1 $398 -55.860302037263004 $267 -50.272636437295091 $263 $399 forward 7 unknown #
edge $-1 $268 53.985823985838316 $398 60.504581227647869 $160 $400 forward 7 unknown #
coedge $-1 $161 $390 $396 $401 forward $256 $-1 #
vertex $-1 $162 $402 #
vertex $-1 $162 $403 #
straight-curve $-1 -17.725912420733152 57.169141676002532 14.977685932214769 0 -1 0 I I #
coedge $-1 $270 $270 $-1 $404 reversed $165 $-1 #
edge $-1 $405 0 $405 6.2831853071796004 $166 $406 forward 7 unknown #
vertex $-1 $169 $407 #
ellipse-curve $-1 -11.637142552365219 28.573586566010569 12.183853132230812 0 0.85716730853699208 0.51503806187062418 1 0 0 1 I I #
face $-1 $-1 $408 $36 $-1 $409 reversed single #
loop $-1 $-1 $176 $170 #
plane-surface $-1 0 0 14.977685932214769 0 0 1 1 0 0 forward_v I I I I #
coedge $-1 $410 $411 $412 $413 reversed $171 $-1 #
coedge $-1 $414 $173 $175 $284 forward $107 $-1 #
coedge $-1 $173 $414 $410 $415 forward $107 $-1 #
coedge $-1 $412 $176 $173 $281 forward $275 $-1 #
edge $-1 $287 6.2862951948804309 $416 18.463834931616297 $280 $417 forward 7 unknown #
coedge $-1 $418 $419 $174 $283 forward $408 $-1 #
edge $-1 $420 -55.860302037263004 $286 -50.272636437295091 $282 $421 forward 7 unknown #
edge $-1 $287 53.985823985838316 $420 60.504581227647869 $175 $422 forward 7 unknown #
coedge $-1 $176 $412 $418 $423 forward $275 $-1 #
vertex $-1 $177 $424 #
vertex $-1 $177 $425 #
straight-curve $-1 18.661360258128795 57.169141676002532 14.977685932214769 0 -1 0 I I #
coedge $-1 $289 $289 $-1 $426 reversed $180 $-1 #
edge $-1 $427 0 $427 6.2831853071796004 $181 $428 forward 7 unknown #
vertex $-1 $184 $429 #
ellipse-curve $-1 24.750130126496728 28.573586566010569 12.183853132230812 0 0.85716730853699208 0.51503806187062418 1 0 0 1 I I #
face $-1 $-1 $430 $38 $-1 $431 reversed single #
loop $-1 $-1 $432 $185 #
plane-surface $-1 67.226172673726609 0 0 -1 0 0 0 0 1 forward_v I I I I #
coedge $-1 $433 $188 $190 $302 forward $116 $-1 #
coedge $-1 $188 $433 $432 $434 reversed $116 $-1 #
coedge $-1 $435 $191 $188 $299 forward $186 $-1 #
edge $-1 $305 24.479931534311405 $436 36.657471271047271 $298 $437 forward 7 unknown #
coedge $-1 $438 $439 $189 $301 forward $430 $-1 #
edge $-1 $440 -55.860302037263004 $304 -50.272636437295091 $300 $441 forward 7 unknown #
edge $-1 $305 53.985823985838316 $440 60.504581227647869 $190 $442 forward 7 unknown #
coedge $-1 $191 $435 $438 $443 forward $186 $-1 #
vertex $-1 $301 $444 #
vertex $-1 $192 $445 #
straight-curve $-1 55.048632936990742 57.169141676002532 14.977685932214769 0 -1 0 I I #
coedge $-1 $307 $307 $-1 $446 reversed $195 $-1 #
edge $-1 $447 0 $447 6.2831853071796004 $196 $448 forward 7 unknown #
vertex $-1 $199 $449 #
ellipse-curve $-1 61.137402805358676 28.573586566010569 12.183853132230812 0 0.85716730853699208 0.51503806187062418 1 0 0 1 I I #
face $-1 $-1 $215 $30 $-1 $450 reversed single #
loop $-1 $-1 $327 $200 #
plane-surface $-1 0 30.25229061382392 0 0 -1 0 0 0 -1 forward_v I I I I #
coedge $-1 $451 $325 $328 $452 forward $201 $-1 #
coedge $-1 $331 $203 $204 $319 reversed $125 $-1 #
coedge $-1 $325 $451 $203 $317 reversed $201 $-1 #
edge $-1 $332 -14.977685932214769 $453 14.977685932214769 $316 $454 forward 7 unknown #
coedge $-1 $205 $204 $451 $455 forward $81 $-1 #
edge $-1 $323 -67.226172673726609 $453 67.226172673726609 $315 $456 forward 7 unknown #
coedge $-1 $328 $327 $205 $321 reversed $312 $-1 #
edge $-1 $457 -67.226172673726609 $322 67.226172673726609 $320 $458 forward 7 unknown #
vertex $-1 $207 $459 #
vertex $-1 $334 $460 #
straight-curve $-1 67.226172673726609 0 -14.977685932214769 0 -1 0 I I #
coedge $-1 $314 $316 $208 $326 reversed $201 $-1 #
edge $-1 $329 -30.25229061382392 $332 30.25229061382392 $325 $461 forward 7 unknown #
coedge $-1 $320 $209 $214 $335 forward $312 $-1 #
coedge $-1 $209 $320 $314 $452 reversed $312 $-1 #
vertex $-1 $210 $462 #
straight-curve $-1 0 30.25229061382392 14.977685932214769 -1 0 0 I I #
coedge $-1 $211 $315 $213 $334 reversed $125 $-1 #
vertex $-1 $326 $463 #
straight-curve $-1 0 -30.25229061382392 14.977685932214769 1 0 0 I I #
edge $-1 $216 -14.977685932214769 $323 14.977685932214769 $213 $464 forward 7 unknown #
edge $-1 $217 -14.977685932214769 $322 14.977685932214769 $214 $465 forward 7 unknown #
point $-1 67.226172673726609 -30.25229061382392 14.977685932214769 #
point $-1 67.226172673726609 30.25229061382392 14.977685932214769 #
face $-1 $-1 $355 $31 $-1 $466 reversed single #
loop $-1 $-1 $467 $219 #
plane-surface $-1 -67.226172673726609 0 0 1 0 0 0 0 -1 forward_v I I I I #
coedge $-1 $342 $358 $223 $345 forward $220 $-1 #
coedge $-1 $230 $341 $222 $343 forward $220 $-1 #
edge $-1 $349 -2.6971697670364145 $233 1.5019943183203219 $342 $468 forward 7 unknown #
coedge $-1 $224 $223 $467 $469 reversed $85 $-1 #
edge $-1 $470 -36.891333230396185 $349 -23.778345656264673 $341 $471 forward 7 unknown #
coedge $-1 $354 $353 $224 $347 forward $355 $-1 #
edge $-1 $348 23.778345656264673 $472 36.891333230396185 $346 $473 forward 7 unknown #
vertex $-1 $347 $474 #
vertex $-1 $345 $475 #
straight-curve $-1 -54.1131850995951 0 -3.2947574913944608 0 -1 0 I I #
coedge $-1 $476 $477 $227 $352 forward $339 $-1 #
edge $-1 $359 -30.25229061382392 $356 30.25229061382392 $351 $478 forward 7 unknown #
coedge $-1 $346 $228 $232 $361 forward $355 $-1 #
coedge $-1 $228 $346 $476 $479 reversed $355 $-1 #
loop $-1 $-1 $346 $338 #
vertex $-1 $479 $480 #
straight-curve $-1 -30.334839443330427 30.25229061382392 0.90440659396227563 1 0 0 I I #
coedge $-1 $341 $230 $477 $481 forward $220 $-1 #
vertex $-1 $481 $482 #
straight-curve $-1 -30.334839443330427 -30.25229061382392 0.90440659396227563 -1 0 0 I I #
edge $-1 $234 -1.5019943183203219 $348 2.6971697670364145 $353 $483 forward 7 unknown #
point $-1 -54.1131850995951 -30.25229061382392 0.90440659396227563 #
point $-1 -54.1131850995951 30.25229061382392 0.90440659396227563 #
loop $-1 $-1 $244 $236 #
plane-surface $-1 0 30.25229061382392 0 0 -1 0 0 0 -1 forward_v I I I I #
coedge $-1 $367 $239 $241 $371 reversed $141 $-1 #
coedge $-1 $239 $366 $484 $485 reversed $141 $-1 #
coedge $-1 $247 $242 $239 $369 forward $237 $-1 #
edge $-1 $372 -30.274259157805297 $486 -26.916851062178612 $368 $487 forward 7 unknown #
coedge $-1 $241 $240 $375 $488 reversed $89 $-1 #
edge $-1 $489 -60.504581227647869 $372 -53.985823985838316 $366 $490 forward 7 unknown #
vertex $-1 $243 $491 #
straight-curve $-1 -24.012207615613583 26.894882518197228 14.977685932214769 1 0 0 I I #
coedge $-1 $484 $244 $247 $379 reversed $364 $-1 #
coedge $-1 $244 $484 $370 $488 forward $364 $-1 #
vertex $-1 $245 $492 #
straight-curve $-1 -54.1131850995951 30.252290613823916 65.25032236950986 0 0 1 I I #
straight-curve $-1 -54.1131850995951 -0.90987163595758602 61.25256937730758 0 0.51503806187062418 -0.85716730853699208 I I #
edge $-1 $486 41.935645362859233 $248 54.1131850995951 $374 $493 forward 7 unknown #
point $-1 -54.1131850995951 30.25229061382392 14.977685932214769 #
point $-1 -54.1131850995951 26.894882518197235 14.977685932214769 #
edge $-1 $494 1 $494 0 $251 $-1 forward 7 unknown #
vertex $-1 $252 $495 #
ellipse-curve $-1 -48.024415231227167 25.463225746129346 10.31495986899594 0 0.85716730853699208 0.51503806187062418 1 0 0 1 I I #
point $-1 -47.024415231227167 28.573586566010579 12.183853132230819 #
loop $-1 $-1 $263 $255 #
plane-surface $-1 0 30.25229061382392 0 0 -1 0 0 0 -1 forward_v I I I I #
coedge $-1 $389 $258 $260 $393 reversed $156 $-1 #
coedge $-1 $258 $388 $496 $497 reversed $156 $-1 #
coedge $-1 $266 $261 $258 $391 forward $256 $-1 #
edge $-1 $394 -30.274259157805297 $498 -26.916851062178612 $390 $499 forward 7 unknown #
coedge $-1 $260 $259 $397 $500 reversed $98 $-1 #
edge $-1 $501 -60.504581227647869 $394 -53.985823985838316 $388 $502 forward 7 unknown #
vertex $-1 $262 $503 #
straight-curve $-1 -5.8185712761826096 26.894882518197228 14.977685932214769 1 0 0 I I #
coedge $-1 $496 $263 $266 $401 reversed $386 $-1 #
coedge $-1 $263 $496 $392 $500 forward $386 $-1 #
vertex $-1 $264 $504 #
straight-curve $-1 -17.725912420733152 30.252290613823916 65.25032236950986 0 0 1 I I #
straight-curve $-1 -17.725912420733152 -0.90987163595758602 61.25256937730758 0 0.51503806187062418 -0.85716730853699208 I I #
edge $-1 $498 5.548372683997286 $267 17.725912420733152 $396 $505 forward 7 unknown #
point $-1 -17.725912420733152 30.25229061382392 14.977685932214769 #
point $-1 -17.725912420733152 26.894882518197235 14.977685932214769 #
edge $-1 $506 1 $506 0 $270 $-1 forward 7 unknown #
vertex $-1 $271 $507 #
ellipse-curve $-1 -11.637142552365219 25.463225746129346 10.31495986899594 0 0.85716730853699208 0.51503806187062418 1 0 0 1 I I #
point $-1 -10.637142552365219 28.573586566010579 12.183853132230819 #
loop $-1 $-1 $282 $274 #
plane-surface $-1 0 30.25229061382392 0 0 -1 0 0 0 -1 forward_v I I I I #
coedge $-1 $411 $277 $279 $415 reversed $171 $-1 #
coedge $-1 $277 $410 $508 $509 reversed $171 $-1 #
coedge $-1 $285 $280 $277 $413 forward $275 $-1 #
edge $-1 $416 -30.274259157805297 $510 -26.916851062178612 $412 $511 forward 7 unknown #
coedge $-1 $279 $278 $419 $512 reversed $107 $-1 #
edge $-1 $513 -60.504581227647869 $416 -53.985823985838316 $410 $514 forward 7 unknown #
vertex $-1 $281 $515 #
straight-curve $-1 12.375065063248364 26.894882518197228 14.977685932214769 1 0 0 I I #
coedge $-1 $508 $282 $285 $423 reversed $408 $-1 #
coedge $-1 $282 $508 $414 $512 forward $408 $-1 #
vertex $-1 $283 $516 #
straight-curve $-1 18.661360258128795 30.252290613823916 65.25032236950986 0 0 1 I I #
straight-curve $-1 18.661360258128795 -0.90987163595758602 61.25256937730758 0 0.51503806187062418 -0.85716730853699208 I I #
edge $-1 $510 -30.838899994864661 $286 -18.661360258128795 $418 $517 forward 7 unknown #
point $-1 18.661360258128795 30.25229061382392 14.977685932214769 #
point $-1 18.661360258128795 26.894882518197235 14.977685932214769 #
edge $-1 $518 1 $518 0 $289 $-1 forward 7 unknown #
vertex $-1 $290 $519 #
ellipse-curve $-1 24.750130126496728 25.463225746129346 10.31495986899594 0 0.85716730853699208 0.51503806187062418 1 0 0 1 I I #
point $-1 25.750130126496728 28.573586566010579 12.183853132230819 #
loop $-1 $-1 $300 $293 #
plane-surface $-1 0 30.25229061382392 0 0 -1 0 0 0 -1 forward_v I I I I #
coedge $-1 $520 $521 $297 $434 forward $294 $-1 #
coedge $-1 $297 $296 $439 $522 reversed $116 $-1 #
edge $-1 $436 27.49966470680992 $523 34.018421948619462 $432 $524 forward 7 unknown #
coedge $-1 $303 $298 $521 $525 forward $186 $-1 #
vertex $-1 $525 $526 #
straight-curve $-1 30.568701402679338 26.894882518197228 14.977685932214769 1 0 0 I I #
coedge $-1 $527 $300 $303 $443 reversed $430 $-1 #
coedge $-1 $300 $527 $433 $522 forward $430 $-1 #
vertex $-1 $301 $528 #
straight-curve $-1 55.048632936990742 30.252290613823916 65.25032236950986 0 0 1 I I #
straight-curve $-1 55.048632936990742 -0.90987163595758602 61.25256937730758 0 0.51503806187062418 -0.85716730853699208 I I #
edge $-1 $529 -67.226172673726609 $304 -55.048632936990742 $438 $530 forward 7 unknown #
point $-1 55.048632936990742 30.25229061382392 14.977685932214769 #
point $-1 55.048632936990742 26.894882518197235 14.977685932214769 #
edge $-1 $531 1 $531 0 $307 $-1 forward 7 unknown #
vertex $-1 $308 $532 #
ellipse-curve $-1 61.137402805358676 25.463225746129346 10.31495986899594 0 0.85716730853699208 0.51503806187062418 1 0 0 1 I I #
point $-1 62.137402805358676 28.573586566010579 12.183853132230819 #
plane-surface $-1 67.226172673726609 0 0 -1 0 0 0 0 1 forward_v I I I I #
coedge $-1 $316 $314 $318 $455 reversed $201 $-1 #
edge $-1 $329 -14.977685932214769 $457 14.977685932214769 $328 $533 forward 7 unknown #
vertex $-1 $455 $534 #
straight-curve $-1 -67.226172673726609 -30.25229061382392 0 0 0 -1 I I #
edge $-1 $453 -30.25229061382392 $457 30.25229061382392 $451 $535 forward 7 unknown #
straight-curve $-1 0 -30.25229061382392 -14.977685932214769 -1 0 0 I I #
vertex $-1 $321 $536 #
straight-curve $-1 0 30.25229061382392 -14.977685932214769 1 0 0 I I #
point $-1 67.226172673726609 30.25229061382392 -14.977685932214769 #
point $-1 67.226172673726609 -30.25229061382392 -14.977685932214769 #
straight-curve $-1 -67.226172673726609 0 14.977685932214769 0 -1 0 I I #
point $-1 -67.226172673726609 30.25229061382392 14.977685932214769 #
point $-1 -67.226172673726609 -30.25229061382392 14.977685932214769 #
straight-curve $-1 67.226172673726609 -30.25229061382392 0 0 0 -1 I I #
straight-curve $-1 67.226172673726609 30.25229061382392 0 0 0 -1 I I #
plane-surface $-1 0 30.25229061382392 0 0 -1 0 0 0 -1 forward_v I I I I #
coedge $-1 $477 $476 $344 $469 forward $339 $-1 #
straight-curve $-1 -54.1131850995951 -30.25229061382392 -0.5975877243580463 0 0 1 I I #
edge $-1 $472 -30.25229061382392 $470 30.25229061382392 $467 $537 forward 7 unknown #
vertex $-1 $345 $538 #
straight-curve $-1 -30.334839443330427 -30.25229061382392 -3.2947574913944608 1 0 0 I I #
vertex $-1 $347 $539 #
straight-curve $-1 -30.334839443330427 30.25229061382392 -3.2947574913944608 -1 0 0 I I #
point $-1 -54.1131850995951 30.25229061382392 -3.2947574913944608 #
point $-1 -54.1131850995951 -30.25229061382392 -3.2947574913944608 #
coedge $-1 $467 $351 $354 $479 forward $339 $-1 #
coedge $-1 $351 $467 $358 $481 reversed $339 $-1 #
straight-curve $-1 -67.226172673726609 0 0.90440659396227563 0 1 0 I I #
edge $-1 $356 -0.90440659396227563 $472 3.2947574913944608 $354 $540 forward 7 unknown #
point $-1 -67.226172673726609 30.25229061382392 0.90440659396227563 #
edge $-1 $359 -0.90440659396227563 $470 3.2947574913944608 $477 $541 forward 7 unknown #
point $-1 -67.226172673726609 -30.25229061382392 0.90440659396227563 #
straight-curve $-1 -54.1131850995951 30.25229061382392 -0.5975877243580463 0 0 -1 I I #
coedge $-1 $375 $374 $367 $485 forward $364 $-1 #
edge $-1 $486 50.272636437295091 $489 55.860302037263004 $484 $542 forward 7 unknown #
vertex $-1 $379 $543 #
straight-curve $-1 -41.935645362859233 57.169141676002532 14.977685932214769 0 1 0 I I #
edge $-1 $489 17.92343774724565 $376 30.100977483981517 $375 $544 forward 7 unknown #
vertex $-1 $488 $545 #
straight-curve $-1 -41.935645362859233 -0.90987163595758602 61.25256937730758 0 -0.51503806187062418 0.85716730853699208 I I #
point $-1 -41.935645362859233 26.894882518197235 14.977685932214769 #
point $-1 -54.1131850995951 30.25229061382392 9.3900203322468556 #
straight-curve $-1 0 30.25229061382392 14.977685932214769 -1 0 0 I I #
vertex $-1 $382 $546 #
point $-1 -47.024415231227167 25.463225746129346 10.31495986899594 #
coedge $-1 $397 $396 $389 $497 forward $386 $-1 #
edge $-1 $498 50.272636437295091 $501 55.860302037263004 $496 $547 forward 7 unknown #
vertex $-1 $401 $548 #
straight-curve $-1 -5.548372683997286 57.169141676002532 14.977685932214769 0 1 0 I I #
edge $-1 $501 -0.27019859218532361 $398 11.907341144550543 $397 $549 forward 7 unknown #
vertex $-1 $500 $550 #
straight-curve $-1 -5.548372683997286 -0.90987163595758602 61.25256937730758 0 -0.51503806187062418 0.85716730853699208 I I #
point $-1 -5.548372683997286 26.894882518197235 14.977685932214769 #
point $-1 -17.725912420733152 30.25229061382392 9.3900203322468556 #
straight-curve $-1 0 30.25229061382392 14.977685932214769 -1 0 0 I I #
vertex $-1 $404 $551 #
point $-1 -10.637142552365219 25.463225746129346 10.31495986899594 #
coedge $-1 $419 $418 $411 $509 forward $408 $-1 #
edge $-1 $510 50.272636437295091 $513 55.860302037263004 $508 $552 forward 7 unknown #
vertex $-1 $423 $553 #
straight-curve $-1 30.838899994864661 57.169141676002532 14.977685932214769 0 1 0 I I #
edge $-1 $513 -18.463834931616297 $420 -6.2862951948804309 $419 $554 forward 7 unknown #
vertex $-1 $512 $555 #
straight-curve $-1 30.838899994864661 -0.90987163595758602 61.25256937730758 0 -0.51503806187062418 0.85716730853699208 I I #
point $-1 30.838899994864661 26.894882518197235 14.977685932214769 #
point $-1 18.661360258128795 30.25229061382392 9.3900203322468556 #
straight-curve $-1 0 30.25229061382392 14.977685932214769 -1 0 0 I I #
vertex $-1 $426 $556 #
point $-1 25.750130126496728 25.463225746129346 10.31495986899594 #
coedge $-1 $521 $432 $527 $557 reversed $294 $-1 #
coedge $-1 $432 $520 $435 $525 reversed $294 $-1 #
edge $-1 $523 -36.657471271047271 $440 -24.479931534311405 $439 $558 forward 7 unknown #
vertex $-1 $434 $559 #
straight-curve $-1 67.226172673726609 12.731508505509842 38.549499514620734 0 0.51503806187062429 -0.85716730853699219 I I #
edge $-1 $436 26.894882518197235 $529 30.25229061382392 $521 $560 forward 7 unknown #
point $-1 67.226172673726609 26.894882518197235 14.977685932214769 #
coedge $-1 $439 $438 $520 $557 forward $430 $-1 #
point $-1 55.048632936990742 30.25229061382392 9.3900203322468556 #
vertex $-1 $525 $561 #
straight-curve $-1 0 30.25229061382392 14.977685932214769 -1 0 0 I I #
vertex $-1 $446 $562 #
point $-1 62.137402805358676 25.463225746129346 10.31495986899594 #
straight-curve $-1 -67.226172673726609 30.25229061382392 0 0 0 -1 I I #
point $-1 -67.226172673726609 -30.25229061382392 -14.977685932214769 #
straight-curve $-1 -67.226172673726609 0 -14.977685932214769 0 1 0 I I #
point $-1 -67.226172673726609 30.25229061382392 -14.977685932214769 #
straight-curve $-1 -67.226172673726609 0 -3.2947574913944608 0 -1 0 I I #
point $-1 -67.226172673726609 -30.25229061382392 -3.2947574913944608 #
point $-1 -67.226172673726609 30.25229061382392 -3.2947574913944608 #
straight-curve $-1 -67.226172673726609 30.25229061382392 0 0 0 -1 I I #
straight-curve $-1 -67.226172673726609 -30.25229061382392 0 0 0 -1 I I #
straight-curve $-1 -41.935645362859233 30.252290613823916 65.25032236950986 0 0 -1 I I #
point $-1 -41.935645362859233 30.25229061382392 14.977685932214769 #
straight-curve $-1 -24.012207615613583 30.252290613823916 9.3900203322468485 -1 0 0 I I #
point $-1 -41.935645362859233 30.25229061382392 9.3900203322468556 #
point $-1 -48.024415231227167 24.606058437592353 9.7999218071253171 #
straight-curve $-1 -5.548372683997286 30.252290613823916 65.25032236950986 0 0 -1 I I #
point $-1 -5.548372683997286 30.25229061382392 14.977685932214769 #
straight-curve $-1 -5.8185712761826096 30.252290613823916 9.3900203322468485 -1 0 0 I I #
point $-1 -5.548372683997286 30.25229061382392 9.3900203322468556 #
point $-1 -11.637142552365219 24.606058437592353 9.7999218071253171 #
straight-curve $-1 30.838899994864661 30.252290613823916 65.25032236950986 0 0 -1 I I #
point $-1 30.838899994864661 30.25229061382392 14.977685932214769 #
straight-curve $-1 12.375065063248364 30.252290613823916 9.3900203322468485 -1 0 0 I I #
point $-1 30.838899994864661 30.25229061382392 9.3900203322468556 #
point $-1 24.750130126496728 24.606058437592353 9.7999218071253171 #
edge $-1 $529 -14.977685932214769 $523 -9.3900203322468556 $520 $563 forward 7 unknown #
straight-curve $-1 30.568701402679338 30.252290613823916 9.3900203322468485 -1 0 0 I I #
point $-1 67.226172673726609 30.25229061382392 9.3900203322468556 #
straight-curve $-1 67.226172673726609 0 14.977685932214769 0 1 0 I I #
point $-1 67.226172673726609 30.25229061382392 14.977685932214769 #
point $-1 61.137402805358676 24.606058437592353 9.7999218071253171 #
straight-curve $-1 67.226172673726609 30.25229061382392 0 0 0 -1 I I #
End-of-ACIS-data 