500 0 7 0           
7 Unknown 11 ACIS 5.0 NT 24 Fri Mar 26 02:06:19 1999 
-1 9.9999999999999995e-007 1e-010 
body $-1 $7 $-1 $8 #
body $-1 $9 $-1 $10 #
body $-1 $11 $-1 $12 #
body $-1 $13 $-1 $14 #
body $-1 $15 $-1 $16 #
body $-1 $17 $-1 $18 #
body $-1 $19 $-1 $20 #
lump $-1 $-1 $21 $0 #
transform $-1 1 0 0 0 1 0 0 0 1 58.966643269142736 31.910947043369042 12.195343923782733 1 rotate no_reflect no_shear #
lump $-1 $-1 $22 $1 #
transform $-1 1 0 0 0 1 0 0 0 1 58.966643269142736 31.910947043369042 12.195343923782733 1 rotate no_reflect no_shear #
lump $-1 $-1 $23 $2 #
transform $-1 1 0 0 0 1 0 0 0 1 58.966643269142736 31.910947043369042 12.195343923782733 1 rotate no_reflect no_shear #
lump $-1 $-1 $24 $3 #
transform $-1 1 0 0 0 1 0 0 0 1 58.966643269142736 31.910947043369042 12.195343923782733 1 rotate no_reflect no_shear #
lump $-1 $-1 $25 $4 #
transform $-1 1 0 0 0 1 0 0 0 1 58.966643269142736 31.910947043369042 12.195343923782733 1 rotate no_reflect no_shear #
lump $-1 $-1 $26 $5 #
transform $-1 1 0 0 0 1 0 0 0 1 58.966643269142736 31.910947043369042 12.195343923782733 1 rotate no_reflect no_shear #
lump $-1 $-1 $27 $6 #
transform $-1 1 0 0 0 1 0 0 0 1 58.966643269142736 31.910947043369042 12.195343923782733 1 rotate no_reflect no_shear #
shell $-1 $-1 $-1 $28 $-1 $7 #
shell $-1 $-1 $-1 $29 $-1 $9 #
shell $-1 $-1 $-1 $30 $-1 $11 #
shell $-1 $-1 $-1 $31 $-1 $13 #
shell $-1 $-1 $-1 $32 $-1 $15 #
shell $-1 $-1 $-1 $33 $-1 $17 #
shell $-1 $-1 $-1 $34 $-1 $19 #
face $-1 $35 $36 $21 $-1 $37 forward single #
face $-1 $38 $39 $22 $-1 $40 forward single #
face $-1 $41 $42 $23 $-1 $43 forward single #
face $-1 $44 $45 $24 $-1 $46 reversed single #
face $-1 $47 $48 $25 $-1 $49 forward single #
face $-1 $50 $51 $26 $-1 $52 forward single #
face $-1 $53 $54 $27 $-1 $55 forward single #
face $-1 $56 $57 $21 $-1 $58 reversed single #
loop $-1 $-1 $59 $28 #
plane-surface $-1 0 0 12.195343923782733 0 0 1 1 0 0 forward_v I I I I #
face $-1 $60 $61 $22 $-1 $62 reversed single #
loop $-1 $-1 $63 $29 #
plane-surface $-1 -58.966643269142736 0 0 1 0 0 0 0 -1 forward_v I I I I #
face $-1 $64 $65 $23 $-1 $66 reversed single #
loop $-1 $-1 $67 $30 #
plane-surface $-1 58.966643269142736 0 0 -1 0 0 0 0 1 forward_v I I I I #
face $-1 $68 $69 $24 $-1 $70 reversed single #
loop $-1 $-1 $71 $31 #
plane-surface $-1 42.528378713474332 -104.51792913406112 97.197965159008817 -1 0 0 0 -0.61566148304635926 0.78801074757464917 forward_v I I I I #
face $-1 $72 $73 $25 $-1 $74 forward single #
loop $-1 $75 $76 $32 #
cone-surface $-1 31.309059763008307 -25.829314828230675 6.9418973823707768 0 0.61566148304635926 -0.78801074757464917 1 0 0 1 I I 0 1 1 forward I I I I #
face $-1 $77 $78 $26 $-1 $79 forward single #
loop $-1 $80 $81 $33 #
cone-surface $-1 35.516304369433058 -25.829314828230675 6.9418973823707768 0 0.61566148304635926 -0.78801074757464917 1 0 0 1 I I 0 1 1 forward I I I I #
face $-1 $82 $83 $27 $-1 $84 forward single #
loop $-1 $85 $86 $34 #
cone-surface $-1 39.72354897585781 -25.829314828230675 6.9418973823707768 0 0.61566148304635926 -0.78801074757464917 1 0 0 1 I I 0 1 1 forward I I I I #
face $-1 $87 $88 $21 $-1 $89 reversed single #
loop $-1 $-1 $90 $35 #
plane-surface $-1 0 0 -12.195343923782733 0 0 1 1 0 0 forward_v I I I I #
coedge $-1 $91 $92 $93 $94 forward $36 $-1 #
face $-1 $95 $96 $22 $-1 $97 forward single #
loop $-1 $-1 $98 $38 #
plane-surface $-1 0 31.910947043369042 0 0 -1 0 0 0 -1 forward_v I I I I #
coedge $-1 $99 $100 $101 $102 forward $39 $-1 #
face $-1 $103 $104 $23 $-1 $105 forward single #
loop $-1 $-1 $106 $41 #
plane-surface $-1 0 31.910947043369042 0 0 -1 0 0 0 -1 forward_v I I I I #
coedge $-1 $107 $108 $109 $110 forward $42 $-1 #
face $-1 $111 $112 $24 $-1 $113 reversed single #
loop $-1 $-1 $114 $44 #
plane-surface $-1 35.516304369433072 -31.910947043369049 4.2652678700391675 0 -0.61566148304635926 0.78801074757464917 1 0 0 forward_v I I I I #
coedge $-1 $115 $116 $117 $118 reversed $45 $-1 #
face $-1 $-1 $119 $25 $-1 $120 forward single #
loop $-1 $121 $122 $47 #
cone-surface $-1 31.309059763008307 -24.514869012899482 5.2594834940432733 0 0.61566148304635926 -0.78801074757464917 0.5 0 0 1 I I -0.70710678118654746 0.70710678118654746 0.5 forward I I I I #
loop $-1 $-1 $123 $32 #
coedge $-1 $76 $76 $124 $125 reversed $48 $-1 #
face $-1 $-1 $126 $26 $-1 $127 forward single #
loop $-1 $128 $129 $50 #
cone-surface $-1 35.516304369433058 -24.514869012899482 5.2594834940432733 0 0.61566148304635926 -0.78801074757464917 0.5 0 0 1 I I -0.70710678118654746 0.70710678118654746 0.5 forward I I I I #
loop $-1 $-1 $130 $33 #
coedge $-1 $81 $81 $131 $132 reversed $51 $-1 #
face $-1 $-1 $133 $27 $-1 $134 forward single #
loop $-1 $135 $136 $53 #
cone-surface $-1 39.72354897585781 -24.514869012899482 5.2594834940432733 0 0.61566148304635926 -0.78801074757464917 0.5 0 0 1 I I -0.70710678118654746 0.70710678118654746 0.5 forward I I I I #
loop $-1 $-1 $137 $34 #
coedge $-1 $86 $86 $138 $139 reversed $54 $-1 #
face $-1 $140 $141 $21 $-1 $142 reversed single #
loop $-1 $-1 $143 $56 #
plane-surface $-1 0 -31.910947043369042 0 0 1 0 0 0 1 forward_v I I I I #
coedge $-1 $144 $145 $146 $147 forward $57 $-1 #
coedge $-1 $148 $59 $149 $150 forward $36 $-1 #
coedge $-1 $59 $148 $151 $152 forward $36 $-1 #
coedge $-1 $153 $154 $59 $94 reversed $155 $-1 #
edge $-1 $156 -31.910947043369042 $157 31.910947043369042 $93 $158 forward 7 unknown #
face $-1 $159 $160 $22 $-1 $161 reversed single #
loop $-1 $-1 $101 $60 #
plane-surface $-1 -64.729141460960506 0 -9.1953439237827332 0 0 1 1 0 0 forward_v I I I I #
coedge $-1 $162 $163 $100 $164 forward $61 $-1 #
coedge $-1 $165 $63 $166 $167 reversed $39 $-1 #
coedge $-1 $63 $165 $98 $164 reversed $39 $-1 #
coedge $-1 $168 $169 $63 $102 reversed $96 $-1 #
edge $-1 $170 -31.910947043369042 $171 31.910947043369042 $101 $172 forward 7 unknown #
face $-1 $173 $174 $23 $-1 $175 reversed single #
loop $-1 $-1 $176 $64 #
plane-surface $-1 64.729141460960506 0 -9.1953439237827332 0 0 1 1 0 0 forward_v I I I I #
coedge $-1 $177 $178 $107 $179 forward $65 $-1 #
coedge $-1 $180 $67 $106 $179 reversed $42 $-1 #
coedge $-1 $67 $180 $181 $182 reversed $42 $-1 #
coedge $-1 $183 $184 $67 $110 reversed $104 $-1 #
edge $-1 $185 -31.910947043369042 $186 31.910947043369042 $109 $187 forward 7 unknown #
face $-1 $188 $189 $24 $-1 $190 forward single #
loop $-1 $-1 $191 $68 #
plane-surface $-1 28.504230025391813 -104.51792913406112 97.197965159008817 1 0 0 0 0.61566148304635926 -0.78801074757464917 forward_v I I I I #
coedge $-1 $192 $193 $194 $195 reversed $69 $-1 #
coedge $-1 $116 $71 $196 $197 reversed $45 $-1 #
coedge $-1 $71 $115 $192 $198 reversed $45 $-1 #
coedge $-1 $194 $199 $71 $118 forward $189 $-1 #
edge $-1 $200 20.348017523661518 $201 30.498051806322238 $117 $202 forward 7 unknown #
loop $-1 $-1 $124 $72 #
plane-surface $-1 35.516304369433072 -31.910947043369049 4.2652678700391675 0 -0.61566148304635926 0.78801074757464917 1 0 0 forward_v I I I I #
loop $-1 $-1 $203 $47 #
coedge $-1 $122 $122 $123 $204 reversed $73 $-1 #
coedge $-1 $123 $123 $122 $204 forward $75 $-1 #
coedge $-1 $124 $124 $76 $125 forward $119 $-1 #
edge $-1 $205 2.1872689723294032e-015 $205 6.2831853071796022 $124 $206 forward 7 unknown #
loop $-1 $-1 $131 $77 #
plane-surface $-1 35.516304369433072 -31.910947043369049 4.2652678700391675 0 -0.61566148304635926 0.78801074757464917 1 0 0 forward_v I I I I #
loop $-1 $-1 $207 $50 #
coedge $-1 $129 $129 $130 $208 reversed $78 $-1 #
coedge $-1 $130 $130 $129 $208 forward $80 $-1 #
coedge $-1 $131 $131 $81 $132 forward $126 $-1 #
edge $-1 $209 2.1872689723294032e-015 $209 6.2831853071796022 $131 $210 forward 7 unknown #
loop $-1 $-1 $138 $82 #
plane-surface $-1 35.516304369433072 -31.910947043369049 4.2652678700391675 0 -0.61566148304635926 0.78801074757464917 1 0 0 forward_v I I I I #
loop $-1 $-1 $211 $53 #
coedge $-1 $136 $136 $137 $212 reversed $83 $-1 #
coedge $-1 $137 $137 $136 $212 forward $85 $-1 #
coedge $-1 $138 $138 $86 $139 forward $133 $-1 #
edge $-1 $213 2.1872689723294032e-015 $213 6.2831853071796022 $138 $214 forward 7 unknown #
face $-1 $215 $216 $21 $-1 $217 reversed single #
loop $-1 $-1 $218 $87 #
plane-surface $-1 -58.966643269142736 0 0 1 0 0 0 0 -1 forward_v I I I I #
coedge $-1 $219 $151 $218 $220 forward $88 $-1 #
coedge $-1 $221 $90 $219 $222 forward $57 $-1 #
coedge $-1 $90 $221 $223 $224 forward $57 $-1 #
coedge $-1 $154 $153 $90 $147 reversed $155 $-1 #
edge $-1 $225 -31.910947043369042 $226 31.910947043369042 $146 $227 forward 7 unknown #
coedge $-1 $92 $91 $228 $229 forward $36 $-1 #
coedge $-1 $230 $231 $91 $150 reversed $216 $-1 #
edge $-1 $157 -58.966643269142736 $232 58.966643269142736 $149 $233 forward 7 unknown #
coedge $-1 $143 $234 $92 $152 reversed $88 $-1 #
edge $-1 $235 -58.966643269142736 $156 58.966643269142736 $151 $236 forward 7 unknown #
coedge $-1 $146 $93 $234 $237 forward $155 $-1 #
coedge $-1 $93 $146 $230 $238 reversed $155 $-1 #
loop $-1 $-1 $154 $215 #
vertex $-1 $94 $239 #
vertex $-1 $94 $240 #
straight-curve $-1 58.966643269142736 0 12.195343923782733 0 1 0 I I #
face $-1 $241 $242 $22 $-1 $243 reversed single #
loop $-1 $-1 $244 $95 #
plane-surface $-1 -70.491639652778275 0 -10.695343923782733 1 0 0 0 0 -1 forward_v I I I I #
coedge $-1 $245 $98 $246 $247 reversed $61 $-1 #
coedge $-1 $98 $245 $168 $248 reversed $61 $-1 #
edge $-1 $170 9.1953439237827332 $249 12.195343923782733 $98 $250 forward 7 unknown #
coedge $-1 $100 $99 $251 $252 reversed $39 $-1 #
coedge $-1 $253 $254 $99 $167 forward $255 $-1 #
edge $-1 $256 -12.195343923782733 $171 -9.1953439237827332 $166 $257 forward 7 unknown #
coedge $-1 $258 $101 $163 $248 forward $96 $-1 #
coedge $-1 $101 $258 $253 $259 forward $96 $-1 #
vertex $-1 $164 $260 #
vertex $-1 $259 $261 #
straight-curve $-1 -58.966643269142736 0 -9.1953439237827332 0 -1 0 I I #
face $-1 $262 $263 $23 $-1 $264 reversed single #
loop $-1 $-1 $265 $103 #
plane-surface $-1 70.491639652778275 0 -10.695343923782733 -1 0 0 0 0 1 forward_v I I I I #
coedge $-1 $184 $183 $266 $267 forward $104 $-1 #
coedge $-1 $268 $106 $184 $269 reversed $65 $-1 #
coedge $-1 $106 $268 $270 $271 reversed $65 $-1 #
edge $-1 $272 -12.195343923782733 $186 -9.1953439237827332 $106 $273 forward 7 unknown #
coedge $-1 $108 $107 $274 $275 reversed $42 $-1 #
coedge $-1 $276 $277 $108 $182 forward $278 $-1 #
edge $-1 $185 9.1953439237827332 $279 12.195343923782733 $181 $280 forward 7 unknown #
coedge $-1 $176 $109 $277 $281 forward $104 $-1 #
coedge $-1 $109 $176 $177 $269 forward $104 $-1 #
vertex $-1 $182 $282 #
vertex $-1 $269 $283 #
straight-curve $-1 58.966643269142736 0 -9.1953439237827332 0 1 0 I I #
face $-1 $-1 $284 $24 $-1 $285 reversed single #
loop $-1 $-1 $117 $111 #
plane-surface $-1 0 0 12.195343923782733 0 0 1 1 0 0 forward_v I I I I #
coedge $-1 $286 $287 $288 $289 reversed $112 $-1 #
coedge $-1 $290 $114 $116 $198 forward $69 $-1 #
coedge $-1 $114 $290 $286 $291 forward $69 $-1 #
coedge $-1 $288 $117 $114 $195 forward $189 $-1 #
edge $-1 $201 -24.770226528757796 $292 -10.746077840675277 $194 $293 forward 7 unknown #
coedge $-1 $294 $295 $115 $197 forward $284 $-1 #
edge $-1 $296 -44.333714709465234 $200 -36.403638655721679 $196 $297 forward 7 unknown #
edge $-1 $201 -12.880578486905982 $296 -8.8800565823946346e-015 $116 $298 forward 7 unknown #
coedge $-1 $117 $288 $294 $299 forward $189 $-1 #
vertex $-1 $197 $300 #
vertex $-1 $118 $301 #
straight-curve $-1 42.528378713474332 -52.25896456703056 12.19534392378273 0 1 0 I I #
coedge $-1 $203 $203 $-1 $302 reversed $121 $-1 #
edge $-1 $303 0 $303 6.2831853071796004 $122 $304 forward 7 unknown #
vertex $-1 $125 $305 #
ellipse-curve $-1 31.309059763008307 -26.835929902038686 8.2303058969109522 0 -0.61566148304635926 0.78801074757464917 1 0 0 1 I I #
coedge $-1 $207 $207 $-1 $306 reversed $128 $-1 #
edge $-1 $307 0 $307 6.2831853071796004 $129 $308 forward 7 unknown #
vertex $-1 $132 $309 #
ellipse-curve $-1 35.516304369433058 -26.835929902038686 8.2303058969109522 0 -0.61566148304635926 0.78801074757464917 1 0 0 1 I I #
coedge $-1 $211 $211 $-1 $310 reversed $135 $-1 #
edge $-1 $311 0 $311 6.2831853071796004 $136 $312 forward 7 unknown #
vertex $-1 $139 $313 #
ellipse-curve $-1 39.72354897585781 -26.835929902038686 8.2303058969109522 0 -0.61566148304635926 0.78801074757464917 1 0 0 1 I I #
face $-1 $-1 $155 $21 $-1 $314 reversed single #
loop $-1 $-1 $230 $140 #
plane-surface $-1 0 31.910947043369042 0 0 -1 0 0 0 -1 forward_v I I I I #
coedge $-1 $228 $315 $143 $220 reversed $141 $-1 #
coedge $-1 $234 $143 $144 $222 reversed $88 $-1 #
edge $-1 $235 -12.195343923782733 $316 12.195343923782733 $218 $317 forward 7 unknown #
coedge $-1 $145 $144 $315 $318 forward $57 $-1 #
edge $-1 $226 -58.966643269142736 $316 58.966643269142736 $219 $319 forward 7 unknown #
coedge $-1 $231 $230 $145 $224 reversed $216 $-1 #
edge $-1 $320 -58.966643269142736 $225 58.966643269142736 $223 $321 forward 7 unknown #
vertex $-1 $147 $322 #
vertex $-1 $237 $323 #
straight-curve $-1 58.966643269142736 0 -12.195343923782733 0 -1 0 I I #
coedge $-1 $324 $218 $148 $229 reversed $141 $-1 #
edge $-1 $232 -31.910947043369042 $235 31.910947043369042 $228 $325 forward 7 unknown #
coedge $-1 $223 $149 $154 $238 forward $216 $-1 #
coedge $-1 $149 $223 $324 $326 reversed $216 $-1 #
vertex $-1 $150 $327 #
straight-curve $-1 0 31.910947043369042 12.195343923782733 -1 0 0 I I #
coedge $-1 $151 $219 $153 $237 reversed $88 $-1 #
vertex $-1 $229 $328 #
straight-curve $-1 0 -31.910947043369042 12.195343923782733 1 0 0 I I #
edge $-1 $156 -12.195343923782733 $226 12.195343923782733 $153 $329 forward 7 unknown #
edge $-1 $157 -12.195343923782733 $225 12.195343923782733 $154 $330 forward 7 unknown #
point $-1 58.966643269142736 -31.910947043369042 12.195343923782733 #
point $-1 58.966643269142736 31.910947043369042 12.195343923782733 #
face $-1 $-1 $255 $22 $-1 $331 reversed single #
loop $-1 $-1 $251 $159 #
plane-surface $-1 0 0 -12.195343923782733 0 0 1 1 0 0 forward_v I I I I #
coedge $-1 $332 $333 $245 $334 forward $160 $-1 #
coedge $-1 $163 $162 $244 $334 reversed $61 $-1 #
coedge $-1 $251 $335 $162 $247 forward $242 $-1 #
edge $-1 $336 -70.491639652778275 $249 -58.966643269142736 $162 $337 forward 7 unknown #
edge $-1 $170 -5.7624981918177625 $338 5.7624981918177696 $163 $339 forward 7 unknown #
vertex $-1 $164 $340 #
straight-curve $-1 -58.966643269142736 31.910947043369042 0 0 0 -1 I I #
coedge $-1 $341 $246 $165 $252 forward $242 $-1 #
edge $-1 $249 -31.910947043369042 $256 31.910947043369042 $251 $342 forward 7 unknown #
coedge $-1 $343 $166 $169 $259 reversed $255 $-1 #
coedge $-1 $166 $343 $341 $344 reversed $255 $-1 #
loop $-1 $-1 $166 $241 #
vertex $-1 $344 $345 #
straight-curve $-1 -58.966643269142736 -31.910947043369042 0 0 0 1 I I #
coedge $-1 $169 $168 $333 $346 forward $96 $-1 #
edge $-1 $347 -5.7624981918177696 $171 5.7624981918177625 $253 $348 forward 7 unknown #
point $-1 -58.966643269142743 31.910947043369042 -9.1953439237827332 #
point $-1 -58.966643269142743 -31.910947043369042 -9.1953439237827332 #
face $-1 $-1 $278 $23 $-1 $349 reversed single #
loop $-1 $-1 $274 $173 #
plane-surface $-1 0 0 -12.195343923782733 0 0 1 1 0 0 forward_v I I I I #
coedge $-1 $350 $266 $351 $352 forward $174 $-1 #
coedge $-1 $265 $353 $176 $267 reversed $174 $-1 #
edge $-1 $354 -31.910947043369042 $355 31.910947043369042 $266 $356 forward 7 unknown #
coedge $-1 $178 $177 $353 $357 forward $65 $-1 #
edge $-1 $355 -5.7624981918177696 $186 5.7624981918177696 $177 $358 forward 7 unknown #
coedge $-1 $359 $274 $178 $271 forward $263 $-1 #
edge $-1 $272 -5.7624981918177696 $360 5.7624981918177696 $178 $361 forward 7 unknown #
vertex $-1 $271 $362 #
straight-curve $-1 58.966643269142736 31.910947043369042 0 0 0 1 I I #
coedge $-1 $270 $363 $180 $275 forward $263 $-1 #
edge $-1 $279 -31.910947043369042 $272 31.910947043369042 $274 $364 forward 7 unknown #
coedge $-1 $351 $181 $363 $365 reversed $278 $-1 #
coedge $-1 $181 $351 $183 $281 reversed $278 $-1 #
loop $-1 $-1 $181 $262 #
vertex $-1 $182 $366 #
straight-curve $-1 58.966643269142736 -31.910947043369042 0 0 0 -1 I I #
edge $-1 $185 -5.7624981918177696 $354 5.7624981918177696 $277 $367 forward 7 unknown #
point $-1 58.966643269142736 -31.910947043369042 -9.1953439237827332 #
point $-1 58.966643269142736 31.910947043369042 -9.1953439237827332 #
loop $-1 $-1 $196 $188 #
plane-surface $-1 0 -31.910947043369042 0 0 1 0 0 0 1 forward_v I I I I #
coedge $-1 $287 $191 $193 $291 reversed $112 $-1 #
coedge $-1 $191 $286 $368 $369 reversed $112 $-1 #
coedge $-1 $199 $194 $191 $289 forward $189 $-1 #
edge $-1 $292 -30.498051806322238 $370 -20.348017523661518 $288 $371 forward 7 unknown #
coedge $-1 $193 $192 $295 $372 reversed $69 $-1 #
edge $-1 $373 8.8800565823946346e-015 $292 12.880578486905982 $286 $374 forward 7 unknown #
vertex $-1 $195 $375 #
straight-curve $-1 17.758152184716536 -21.760912760708326 12.195343923782733 -1 0 0 I I #
coedge $-1 $368 $196 $199 $299 reversed $284 $-1 #
coedge $-1 $196 $368 $290 $372 forward $284 $-1 #
vertex $-1 $197 $376 #
straight-curve $-1 42.528378713474332 -31.910947043369042 48.598982579504408 0 0 1 I I #
straight-curve $-1 42.528378713474332 -31.910947043369049 4.2652678700391675 0 -0.78801074757464917 -0.61566148304635926 I I #
edge $-1 $370 28.504230025391813 $200 42.528378713474332 $294 $377 forward 7 unknown #
point $-1 42.528378713474332 -31.910947043369042 12.195343923782733 #
point $-1 42.528378713474332 -21.760912760708322 12.195343923782733 #
edge $-1 $378 1 $378 0 $203 $-1 forward 7 unknown #
vertex $-1 $204 $379 #
ellipse-curve $-1 31.309059763008307 -24.822699754422661 5.6534888678305979 0 -0.61566148304635926 0.78801074757464917 1 0 0 1 I I #
point $-1 32.309059763008307 -26.835929902038686 8.2303058969109557 #
edge $-1 $380 1 $380 0 $207 $-1 forward 7 unknown #
vertex $-1 $208 $381 #
ellipse-curve $-1 35.516304369433058 -24.822699754422661 5.6534888678305979 0 -0.61566148304635926 0.78801074757464917 1 0 0 1 I I #
point $-1 36.516304369433058 -26.835929902038686 8.2303058969109557 #
edge $-1 $382 1 $382 0 $211 $-1 forward 7 unknown #
vertex $-1 $212 $383 #
ellipse-curve $-1 39.72354897585781 -24.822699754422661 5.6534888678305979 0 -0.61566148304635926 0.78801074757464917 1 0 0 1 I I #
point $-1 40.72354897585781 -26.835929902038686 8.2303058969109557 #
plane-surface $-1 58.966643269142736 0 0 -1 0 0 0 0 1 forward_v I I I I #
coedge $-1 $218 $324 $221 $318 reversed $141 $-1 #
vertex $-1 $318 $384 #
straight-curve $-1 -58.966643269142736 -31.910947043369042 0 0 0 -1 I I #
edge $-1 $316 -31.910947043369042 $320 31.910947043369042 $315 $385 forward 7 unknown #
straight-curve $-1 0 -31.910947043369042 -12.195343923782733 -1 0 0 I I #
vertex $-1 $224 $386 #
straight-curve $-1 0 31.910947043369042 -12.195343923782733 1 0 0 I I #
point $-1 58.966643269142736 31.910947043369042 -12.195343923782733 #
point $-1 58.966643269142736 -31.910947043369042 -12.195343923782733 #
coedge $-1 $315 $228 $231 $326 forward $141 $-1 #
straight-curve $-1 -58.966643269142736 0 12.195343923782733 0 -1 0 I I #
edge $-1 $232 -12.195343923782733 $320 12.195343923782733 $231 $387 forward 7 unknown #
point $-1 -58.966643269142736 31.910947043369042 12.195343923782733 #
point $-1 -58.966643269142736 -31.910947043369042 12.195343923782733 #
straight-curve $-1 58.966643269142736 -31.910947043369042 0 0 0 -1 I I #
straight-curve $-1 58.966643269142736 31.910947043369042 0 0 0 -1 I I #
plane-surface $-1 0 -31.910947043369042 0 0 1 0 0 0 1 forward_v I I I I #
coedge $-1 $388 $244 $335 $389 reversed $160 $-1 #
coedge $-1 $244 $388 $258 $346 reversed $160 $-1 #
edge $-1 $338 -1.5 $336 1.5 $245 $390 forward 7 unknown #
coedge $-1 $246 $341 $332 $389 forward $242 $-1 #
vertex $-1 $247 $391 #
straight-curve $-1 0 31.910947043369042 -12.195343923782733 1 0 0 I I #
vertex $-1 $248 $392 #
straight-curve $-1 -64.729141460960506 31.910947043369042 -9.1953439237827332 -1 0 0 I I #
point $-1 -58.966643269142736 31.910947043369042 -12.195343923782733 #
coedge $-1 $335 $251 $254 $344 forward $242 $-1 #
straight-curve $-1 -58.966643269142736 0 -12.195343923782733 0 -1 0 I I #
coedge $-1 $254 $253 $388 $393 forward $255 $-1 #
edge $-1 $256 -5.7624981918177696 $394 5.7624981918177696 $254 $395 forward 7 unknown #
point $-1 -58.966643269142736 -31.910947043369042 -12.195343923782733 #
edge $-1 $338 -31.910947043369042 $347 31.910947043369042 $333 $396 forward 7 unknown #
vertex $-1 $346 $397 #
straight-curve $-1 -64.729141460960506 -31.910947043369042 -9.1953439237827332 1 0 0 I I #
plane-surface $-1 0 -31.910947043369042 0 0 1 0 0 0 1 forward_v I I I I #
coedge $-1 $353 $265 $359 $398 reversed $174 $-1 #
coedge $-1 $277 $276 $265 $352 reversed $278 $-1 #
edge $-1 $354 -1.5 $399 1.5 $265 $400 forward 7 unknown #
coedge $-1 $266 $350 $268 $357 reversed $174 $-1 #
vertex $-1 $267 $401 #
vertex $-1 $267 $402 #
straight-curve $-1 70.491639652778275 0 -9.1953439237827332 0 1 0 I I #
edge $-1 $355 -1.5 $360 1.5 $353 $403 forward 7 unknown #
straight-curve $-1 64.729141460960506 31.910947043369042 -9.1953439237827332 -1 0 0 I I #
coedge $-1 $363 $270 $350 $398 forward $263 $-1 #
vertex $-1 $398 $404 #
straight-curve $-1 64.729141460960506 31.910947043369042 -12.195343923782733 1 0 0 I I #
point $-1 58.966643269142736 31.910947043369042 -12.195343923782733 #
coedge $-1 $274 $359 $276 $365 forward $263 $-1 #
straight-curve $-1 58.966643269142736 0 -12.195343923782733 0 1 0 I I #
edge $-1 $399 -5.7624981918177696 $279 5.7624981918177696 $276 $405 forward 7 unknown #
point $-1 58.966643269142736 -31.910947043369042 -12.195343923782733 #
straight-curve $-1 64.729141460960506 -31.910947043369042 -9.1953439237827332 1 0 0 I I #
coedge $-1 $295 $294 $287 $369 forward $284 $-1 #
edge $-1 $370 36.403638655721679 $373 44.333714709465234 $368 $406 forward 7 unknown #
vertex $-1 $299 $407 #
straight-curve $-1 28.504230025391813 -52.25896456703056 12.19534392378273 0 -1 0 I I #
edge $-1 $373 10.746077840675277 $296 24.770226528757796 $295 $408 forward 7 unknown #
vertex $-1 $372 $409 #
straight-curve $-1 28.504230025391813 -31.910947043369049 4.2652678700391675 0 0.78801074757464917 0.61566148304635926 I I #
point $-1 28.504230025391813 -21.760912760708322 12.195343923782733 #
point $-1 42.528378713474332 -31.910947043369042 4.2652678700391728 #
straight-curve $-1 0 -31.910947043369042 12.195343923782733 1 0 0 I I #
vertex $-1 $302 $410 #
point $-1 32.309059763008307 -24.822699754422661 5.6534888678305979 #
vertex $-1 $306 $411 #
point $-1 36.516304369433058 -24.822699754422661 5.6534888678305979 #
vertex $-1 $310 $412 #
point $-1 40.72354897585781 -24.822699754422661 5.6534888678305979 #
point $-1 -58.966643269142736 -31.910947043369042 -12.195343923782733 #
straight-curve $-1 -58.966643269142736 0 -12.195343923782733 0 1 0 I I #
point $-1 -58.966643269142736 31.910947043369042 -12.195343923782733 #
straight-curve $-1 -58.966643269142736 31.910947043369042 0 0 0 -1 I I #
coedge $-1 $333 $332 $343 $393 reversed $160 $-1 #
edge $-1 $394 -31.910947043369042 $336 31.910947043369042 $332 $413 forward 7 unknown #
straight-curve $-1 -70.491639652778275 31.910947043369042 -10.695343923782733 0 0 -1 I I #
point $-1 -70.491639652778275 31.910947043369042 -12.195343923782733 #
point $-1 -70.491639652778275 31.910947043369042 -9.1953439237827332 #
edge $-1 $347 -1.5 $394 1.5 $388 $414 forward 7 unknown #
vertex $-1 $389 $415 #
straight-curve $-1 -64.729141460960506 -31.910947043369042 -12.195343923782733 -1 0 0 I I #
straight-curve $-1 -70.491639652778275 0 -9.1953439237827332 0 -1 0 I I #
point $-1 -70.491639652778275 -31.910947043369042 -9.1953439237827332 #
edge $-1 $360 -31.910947043369042 $399 31.910947043369042 $350 $416 forward 7 unknown #
vertex $-1 $352 $417 #
straight-curve $-1 70.491639652778275 -31.910947043369042 -10.695343923782733 0 0 -1 I I #
point $-1 70.491639652778275 -31.910947043369042 -9.1953439237827332 #
point $-1 70.491639652778275 31.910947043369042 -9.1953439237827332 #
straight-curve $-1 70.491639652778275 31.910947043369042 -10.695343923782733 0 0 -1 I I #
point $-1 70.491639652778275 31.910947043369042 -12.195343923782733 #
straight-curve $-1 64.729141460960506 -31.910947043369042 -12.195343923782733 -1 0 0 I I #
straight-curve $-1 28.504230025391813 -31.910947043369042 48.598982579504408 0 0 -1 I I #
point $-1 28.504230025391813 -31.910947043369042 12.195343923782733 #
straight-curve $-1 17.758152184716536 -31.910947043369042 4.2652678700391728 1 0 0 I I #
point $-1 28.504230025391813 -31.910947043369042 4.2652678700391728 #
point $-1 31.309059763008307 -24.207038271376302 4.8654781202559487 #
point $-1 35.516304369433058 -24.207038271376302 4.8654781202559487 #
point $-1 39.72354897585781 -24.207038271376302 4.8654781202559487 #
straight-curve $-1 -70.491639652778275 0 -12.195343923782733 0 1 0 I I #
straight-curve $-1 -70.491639652778275 -31.910947043369042 -10.695343923782733 0 0 -1 I I #
point $-1 -70.491639652778275 -31.910947043369042 -12.195343923782733 #
straight-curve $-1 70.491639652778275 0 -12.195343923782733 0 -1 0 I I #
point $-1 70.491639652778275 -31.910947043369042 -12.195343923782733 #
End-of-ACIS-data 