500 0 9 0           
7 Unknown 11 ACIS 5.0 NT 24 Fri Mar 26 16:46:18 1999 
-1 9.9999999999999995e-007 1e-010 
body $-1 $9 $-1 $10 #
body $-1 $11 $-1 $12 #
body $-1 $13 $-1 $14 #
body $-1 $15 $-1 $16 #
body $-1 $17 $-1 $18 #
body $-1 $19 $-1 $20 #
body $-1 $21 $-1 $22 #
body $-1 $23 $-1 $24 #
body $-1 $25 $-1 $26 #
lump $-1 $-1 $27 $0 #
transform $-1 1 0 0 0 1 0 0 0 1 75.218359935300754 52.445563588300487 21.225191909567908 1 rotate no_reflect no_shear #
lump $-1 $-1 $28 $1 #
transform $-1 1 0 0 0 1 0 0 0 1 75.218359935300754 52.445563588300487 21.225191909567908 1 rotate no_reflect no_shear #
lump $-1 $-1 $29 $2 #
transform $-1 1 0 0 0 1 0 0 0 1 75.218359935300754 52.445563588300487 21.225191909567908 1 rotate no_reflect no_shear #
lump $-1 $-1 $30 $3 #
transform $-1 1 0 0 0 1 0 0 0 1 75.218359935300754 52.445563588300487 21.225191909567908 1 rotate no_reflect no_shear #
lump $-1 $-1 $31 $4 #
transform $-1 1 0 0 0 1 0 0 0 1 75.218359935300754 52.445563588300487 21.225191909567908 1 rotate no_reflect no_shear #
lump $-1 $-1 $32 $5 #
transform $-1 1 0 0 0 1 0 0 0 1 75.218359935300754 52.445563588300487 21.225191909567908 1 rotate no_reflect no_shear #
lump $-1 $-1 $33 $6 #
transform $-1 1 0 0 0 1 0 0 0 1 75.218359935300754 52.445563588300487 21.225191909567908 1 rotate no_reflect no_shear #
lump $-1 $-1 $34 $7 #
transform $-1 1 0 0 0 1 0 0 0 1 75.218359935300754 52.445563588300487 21.225191909567908 1 rotate no_reflect no_shear #
lump $-1 $-1 $35 $8 #
transform $-1 1 0 0 0 1 0 0 0 1 75.218359935300754 52.445563588300487 21.225191909567908 1 rotate no_reflect no_shear #
shell $-1 $-1 $-1 $36 $-1 $9 #
shell $-1 $-1 $-1 $37 $-1 $11 #
shell $-1 $-1 $-1 $38 $-1 $13 #
shell $-1 $-1 $-1 $39 $-1 $15 #
shell $-1 $-1 $-1 $40 $-1 $17 #
shell $-1 $-1 $-1 $41 $-1 $19 #
shell $-1 $-1 $-1 $42 $-1 $21 #
shell $-1 $-1 $-1 $43 $-1 $23 #
shell $-1 $-1 $-1 $44 $-1 $25 #
face $-1 $45 $46 $27 $-1 $47 forward single #
face $-1 $48 $49 $28 $-1 $50 forward single #
face $-1 $51 $52 $29 $-1 $53 reversed single #
face $-1 $54 $55 $30 $-1 $56 forward single #
face $-1 $57 $58 $31 $-1 $59 reversed single #
face $-1 $60 $61 $32 $-1 $62 forward single #
face $-1 $63 $64 $33 $-1 $65 reversed single #
face $-1 $66 $67 $34 $-1 $68 forward single #
face $-1 $69 $70 $35 $-1 $71 forward single #
face $-1 $72 $73 $27 $-1 $74 reversed single #
loop $-1 $-1 $75 $36 #
plane-surface $-1 0 0 21.225191909567908 0 0 1 1 0 0 forward_v I I I I #
face $-1 $76 $77 $28 $-1 $78 reversed single #
loop $-1 $-1 $79 $37 #
plane-surface $-1 -62.375159352320395 0 -11.666058164356041 0 0 1 1 0 0 forward_v I I I I #
face $-1 $80 $81 $29 $-1 $82 reversed single #
loop $-1 $-1 $83 $38 #
plane-surface $-1 -49.531958769340022 127.37207901645569 179.19924106012394 1 0 0 0 -0.85716730853699208 -0.51503806187062418 forward_v I I I I #
face $-1 $84 $85 $30 $-1 $86 forward single #
loop $-1 $87 $88 $39 #
cone-surface $-1 -39.578431341702071 46.441591262849713 14.609440492192658 0 -0.85716730853699208 -0.51503806187062418 2.5 0 0 1 I I 0 1 2.5 forward I I I I #
face $-1 $89 $90 $31 $-1 $91 reversed single #
loop $-1 $-1 $92 $40 #
plane-surface $-1 55.311305080024866 127.37207901645569 179.19924106012394 1 0 0 0 -0.85716730853699208 -0.51503806187062418 forward_v I I I I #
face $-1 $93 $94 $32 $-1 $95 forward single #
loop $-1 $96 $97 $41 #
cone-surface $-1 65.264832507662817 46.441591262849713 14.609440492192658 0 -0.85716730853699208 -0.51503806187062418 2.5 0 0 1 I I 0 1 2.5 forward I I I I #
face $-1 $98 $99 $33 $-1 $100 reversed single #
loop $-1 $-1 $101 $42 #
plane-surface $-1 58.49316728460272 -52.445563588300459 3.757169449419564 0 -0.74314483375859142 0.66913059716165679 1 0 0 forward_v I I I I #
face $-1 $102 $103 $34 $-1 $104 forward single #
loop $-1 $105 $106 $43 #
cone-surface $-1 51.325227577160732 -44.012675258617236 11.979076350433365 0 0.74314483375859142 -0.66913059716165679 1 0 0 1 I I 0 1 1 forward I I I I #
face $-1 $107 $108 $35 $-1 $109 forward single #
loop $-1 $110 $111 $44 #
cone-surface $-1 65.661106992044751 -44.012675258617236 11.979076350433365 0 0.74314483375859142 -0.66913059716165679 1 0 0 1 I I 0 1 1 forward I I I I #
face $-1 $112 $113 $27 $-1 $114 reversed single #
loop $-1 $-1 $115 $45 #
plane-surface $-1 0 0 -21.225191909567908 0 0 1 1 0 0 forward_v I I I I #
coedge $-1 $116 $117 $118 $119 forward $46 $-1 #
face $-1 $120 $121 $28 $-1 $122 reversed single #
loop $-1 $-1 $123 $48 #
plane-surface $-1 -62.375159352320395 0 -16.388107908988392 0 0 1 1 0 0 forward_v I I I I #
coedge $-1 $124 $125 $126 $127 forward $49 $-1 #
face $-1 $128 $129 $29 $-1 $130 reversed single #
loop $-1 $-1 $131 $51 #
plane-surface $-1 -39.578431341702071 -1.5773592601612307 101.71860442379533 0 0.85716730853699208 0.51503806187062418 1 0 0 forward_v I I I I #
coedge $-1 $132 $133 $134 $135 reversed $52 $-1 #
face $-1 $-1 $136 $30 $-1 $137 forward single #
loop $-1 $138 $139 $54 #
cone-surface $-1 -39.578431341702071 42.194961223771116 12.057807826054617 0 -0.85716730853699208 -0.51503806187062418 1.25 0 0 1 I I -0.70710678118654746 0.70710678118654746 1.25 forward I I I I #
loop $-1 $-1 $140 $39 #
coedge $-1 $88 $88 $141 $142 reversed $55 $-1 #
face $-1 $143 $144 $31 $-1 $145 forward single #
loop $-1 $-1 $146 $57 #
plane-surface $-1 65.264832507662817 -1.5773592601612307 101.71860442379533 0 0.85716730853699208 0.51503806187062418 1 0 0 forward_v I I I I #
coedge $-1 $147 $148 $149 $150 reversed $58 $-1 #
face $-1 $-1 $151 $32 $-1 $152 forward single #
loop $-1 $153 $154 $60 #
cone-surface $-1 65.264832507662817 42.194961223771116 12.057807826054617 0 -0.85716730853699208 -0.51503806187062418 1.25 0 0 1 I I -0.70710678118654746 0.70710678118654746 1.25 forward I I I I #
loop $-1 $-1 $155 $41 #
coedge $-1 $97 $97 $156 $157 reversed $61 $-1 #
face $-1 $158 $159 $33 $-1 $160 reversed single #
loop $-1 $-1 $161 $63 #
plane-surface $-1 41.7679746339047 -164.2418347677264 104.41898165147603 1 0 0 0 0.74314483375859142 -0.66913059716165679 forward_v I I I I #
coedge $-1 $162 $163 $164 $165 reversed $64 $-1 #
face $-1 $-1 $166 $34 $-1 $167 forward single #
loop $-1 $168 $169 $66 #
cone-surface $-1 51.325227577160732 -43.072353350829985 11.132406722792158 0 0.74314483375859142 -0.66913059716165679 0.5 0 0 1 I I -0.70710678118654746 0.70710678118654746 0.5 forward I I I I #
loop $-1 $-1 $170 $43 #
coedge $-1 $106 $106 $171 $172 reversed $67 $-1 #
face $-1 $-1 $173 $35 $-1 $174 forward single #
loop $-1 $175 $176 $69 #
cone-surface $-1 65.661106992044751 -43.072353350829985 11.132406722792158 0 0.74314483375859142 -0.66913059716165679 0.5 0 0 1 I I -0.70710678118654746 0.70710678118654746 0.5 forward I I I I #
loop $-1 $-1 $177 $44 #
coedge $-1 $111 $111 $178 $179 reversed $70 $-1 #
face $-1 $180 $181 $27 $-1 $182 reversed single #
loop $-1 $-1 $183 $72 #
plane-surface $-1 0 -52.445563588300487 0 0 1 0 0 0 1 forward_v I I I I #
coedge $-1 $184 $185 $186 $187 forward $73 $-1 #
coedge $-1 $188 $75 $189 $190 forward $46 $-1 #
coedge $-1 $75 $188 $191 $192 forward $46 $-1 #
coedge $-1 $193 $194 $75 $119 reversed $195 $-1 #
edge $-1 $196 -52.445563588300487 $197 52.445563588300487 $118 $198 forward 7 unknown #
face $-1 $199 $200 $28 $-1 $201 reversed single #
loop $-1 $-1 $202 $76 #
plane-surface $-1 -49.531958769340036 0 -14.027083036672217 -1 0 0 0 0 1 forward_v I I I I #
coedge $-1 $203 $204 $205 $206 forward $77 $-1 #
coedge $-1 $207 $79 $208 $209 reversed $49 $-1 #
coedge $-1 $79 $207 $210 $211 reversed $49 $-1 #
coedge $-1 $202 $212 $79 $127 reversed $121 $-1 #
edge $-1 $213 -52.445563588300487 $214 52.445563588300487 $126 $215 forward 7 unknown #
face $-1 $216 $217 $29 $-1 $218 forward single #
loop $-1 $-1 $219 $80 #
plane-surface $-1 -29.624903914064117 127.37207901645569 179.19924106012394 -1 0 0 0 0.85716730853699208 0.51503806187062418 forward_v I I I I #
coedge $-1 $220 $221 $222 $223 reversed $81 $-1 #
coedge $-1 $133 $83 $224 $225 reversed $52 $-1 #
coedge $-1 $83 $132 $220 $226 reversed $52 $-1 #
coedge $-1 $222 $227 $83 $135 forward $217 $-1 #
edge $-1 $228 11.240475919927356 $229 16.898078764014215 $134 $230 forward 7 unknown #
loop $-1 $-1 $141 $84 #
plane-surface $-1 -39.578431341702071 -1.5773592601612307 101.71860442379533 0 0.85716730853699208 0.51503806187062418 1 0 0 forward_v I I I I #
loop $-1 $-1 $231 $54 #
coedge $-1 $139 $139 $140 $232 reversed $85 $-1 #
coedge $-1 $140 $140 $139 $232 forward $87 $-1 #
coedge $-1 $141 $141 $88 $142 forward $136 $-1 #
edge $-1 $233 4.9143641036907933e-016 $233 6.2831853071796013 $141 $234 forward 7 unknown #
face $-1 $235 $236 $31 $-1 $237 reversed single #
loop $-1 $-1 $149 $89 #
plane-surface $-1 0 0 21.225191909567908 0 0 1 1 0 0 forward_v I I I I #
coedge $-1 $238 $239 $240 $241 reversed $90 $-1 #
coedge $-1 $148 $92 $242 $243 reversed $58 $-1 #
coedge $-1 $92 $147 $238 $244 reversed $58 $-1 #
coedge $-1 $240 $245 $92 $150 forward $144 $-1 #
edge $-1 $246 11.240475919927356 $247 16.898078764014215 $149 $248 forward 7 unknown #
loop $-1 $-1 $156 $93 #
plane-surface $-1 65.264832507662817 -1.5773592601612307 101.71860442379533 0 0.85716730853699208 0.51503806187062418 1 0 0 forward_v I I I I #
loop $-1 $-1 $249 $60 #
coedge $-1 $154 $154 $155 $250 reversed $94 $-1 #
coedge $-1 $155 $155 $154 $250 forward $96 $-1 #
coedge $-1 $156 $156 $97 $157 forward $151 $-1 #
edge $-1 $251 4.9143641036907933e-016 $251 6.2831853071796013 $156 $252 forward 7 unknown #
face $-1 $253 $254 $33 $-1 $255 forward single #
loop $-1 $-1 $256 $98 #
plane-surface $-1 0 -52.445563588300487 0 0 1 0 0 0 1 forward_v I I I I #
coedge $-1 $257 $258 $259 $260 reversed $99 $-1 #
coedge $-1 $261 $101 $262 $263 reversed $64 $-1 #
coedge $-1 $101 $261 $257 $264 forward $64 $-1 #
coedge $-1 $259 $265 $101 $165 forward $254 $-1 #
edge $-1 $266 -45.97177629299938 $267 -12.52139099160334 $164 $268 forward 7 unknown #
loop $-1 $-1 $171 $102 #
plane-surface $-1 58.49316728460272 -52.445563588300459 3.757169449419564 0 -0.74314483375859142 0.66913059716165679 1 0 0 forward_v I I I I #
loop $-1 $-1 $269 $66 #
coedge $-1 $169 $169 $170 $270 reversed $103 $-1 #
coedge $-1 $170 $170 $169 $270 forward $105 $-1 #
coedge $-1 $171 $171 $106 $172 forward $166 $-1 #
edge $-1 $271 -1.062472471520634e-015 $271 6.2831853071795996 $171 $272 forward 7 unknown #
loop $-1 $-1 $178 $107 #
plane-surface $-1 58.49316728460272 -52.445563588300459 3.757169449419564 0 -0.74314483375859142 0.66913059716165679 1 0 0 forward_v I I I I #
loop $-1 $-1 $273 $69 #
coedge $-1 $176 $176 $177 $274 reversed $108 $-1 #
coedge $-1 $177 $177 $176 $274 forward $110 $-1 #
coedge $-1 $178 $178 $111 $179 forward $173 $-1 #
edge $-1 $275 -1.062472471520634e-015 $275 6.2831853071795996 $178 $276 forward 7 unknown #
face $-1 $277 $278 $27 $-1 $279 reversed single #
loop $-1 $-1 $280 $112 #
plane-surface $-1 -75.218359935300754 0 0 1 0 0 0 0 -1 forward_v I I I I #
coedge $-1 $281 $191 $282 $283 forward $113 $-1 #
coedge $-1 $284 $115 $281 $285 forward $73 $-1 #
coedge $-1 $115 $284 $286 $287 forward $73 $-1 #
coedge $-1 $194 $193 $115 $187 reversed $195 $-1 #
edge $-1 $288 -52.445563588300487 $289 52.445563588300487 $186 $290 forward 7 unknown #
coedge $-1 $117 $116 $291 $292 forward $46 $-1 #
coedge $-1 $293 $294 $116 $190 reversed $278 $-1 #
edge $-1 $197 -75.218359935300754 $295 75.218359935300754 $189 $296 forward 7 unknown #
coedge $-1 $183 $297 $117 $192 reversed $113 $-1 #
edge $-1 $298 -75.218359935300754 $196 75.218359935300754 $191 $299 forward 7 unknown #
coedge $-1 $186 $118 $297 $300 forward $195 $-1 #
coedge $-1 $118 $186 $293 $301 reversed $195 $-1 #
loop $-1 $-1 $193 $277 #
vertex $-1 $119 $302 #
vertex $-1 $119 $303 #
straight-curve $-1 75.218359935300754 0 21.225191909567908 0 1 0 I I #
face $-1 $304 $305 $28 $-1 $306 reversed single #
loop $-1 $-1 $307 $120 #
plane-surface $-1 0 -52.445563588300487 0 0 1 0 0 0 1 forward_v I I I I #
coedge $-1 $205 $126 $308 $309 reversed $121 $-1 #
coedge $-1 $310 $123 $307 $311 reversed $77 $-1 #
coedge $-1 $123 $310 $312 $313 reversed $77 $-1 #
coedge $-1 $212 $202 $123 $206 reversed $121 $-1 #
edge $-1 $314 -52.445563588300487 $315 52.445563588300487 $205 $316 forward 7 unknown #
coedge $-1 $125 $124 $317 $318 reversed $49 $-1 #
coedge $-1 $319 $320 $124 $209 forward $321 $-1 #
edge $-1 $322 -44.030780259140556 $214 -18.344379093179839 $208 $323 forward 7 unknown #
coedge $-1 $324 $308 $125 $211 forward $200 $-1 #
edge $-1 $213 18.344379093179839 $325 44.030780259140556 $210 $326 forward 7 unknown #
coedge $-1 $126 $205 $319 $327 reversed $121 $-1 #
vertex $-1 $211 $328 #
vertex $-1 $209 $329 #
straight-curve $-1 -49.531958769340036 0 -11.666058164356041 0 1 0 I I #
face $-1 $-1 $330 $29 $-1 $331 reversed single #
loop $-1 $-1 $134 $128 #
plane-surface $-1 0 0 21.225191909567908 0 0 1 1 0 0 forward_v I I I I #
coedge $-1 $332 $333 $334 $335 reversed $129 $-1 #
coedge $-1 $336 $131 $133 $226 forward $81 $-1 #
coedge $-1 $131 $336 $332 $337 forward $81 $-1 #
coedge $-1 $334 $134 $131 $223 forward $217 $-1 #
edge $-1 $229 -29.742743098488987 $338 -9.835688243213081 $222 $339 forward 7 unknown #
coedge $-1 $340 $341 $132 $225 forward $330 $-1 #
edge $-1 $342 -77.79026127764503 $228 -68.374428620494058 $224 $343 forward 7 unknown #
edge $-1 $229 93.906302436583928 $342 104.89112717660097 $133 $344 forward 7 unknown #
coedge $-1 $134 $334 $340 $345 forward $217 $-1 #
vertex $-1 $225 $346 #
vertex $-1 $135 $347 #
straight-curve $-1 -49.531958769340022 63.686039508227843 21.225191909567911 0 -1 0 I I #
coedge $-1 $231 $231 $-1 $348 reversed $138 $-1 #
edge $-1 $349 0 $349 6.2831853071796004 $139 $350 forward 7 unknown #
vertex $-1 $142 $351 #
ellipse-curve $-1 -39.578431341702071 49.616762166257054 16.517275580992408 0 0.85716730853699208 0.51503806187062418 2.5 0 0 1 I I #
face $-1 $-1 $352 $31 $-1 $353 reversed single #
loop $-1 $-1 $354 $143 #
plane-surface $-1 75.218359935300754 0 0 -1 0 0 0 0 1 forward_v I I I I #
coedge $-1 $355 $146 $148 $244 forward $90 $-1 #
coedge $-1 $146 $355 $354 $356 reversed $90 $-1 #
coedge $-1 $357 $149 $146 $241 forward $144 $-1 #
edge $-1 $247 22.678888826193457 $358 42.585943681469359 $240 $359 forward 7 unknown #
coedge $-1 $360 $361 $147 $243 forward $352 $-1 #
edge $-1 $362 -77.79026127764503 $246 -68.374428620494058 $242 $363 forward 7 unknown #
edge $-1 $247 93.906302436583928 $362 104.89112717660097 $148 $364 forward 7 unknown #
coedge $-1 $149 $357 $360 $365 forward $144 $-1 #
vertex $-1 $243 $366 #
vertex $-1 $150 $367 #
straight-curve $-1 55.311305080024866 63.686039508227843 21.225191909567911 0 -1 0 I I #
coedge $-1 $249 $249 $-1 $368 reversed $153 $-1 #
edge $-1 $369 0 $369 6.2831853071796004 $154 $370 forward 7 unknown #
vertex $-1 $157 $371 #
ellipse-curve $-1 65.264832507662817 49.616762166257054 16.517275580992408 0 0.85716730853699208 0.51503806187062418 2.5 0 0 1 I I #
face $-1 $-1 $372 $33 $-1 $373 reversed single #
loop $-1 $-1 $259 $158 #
plane-surface $-1 0 0 21.225191909567908 0 0 1 1 0 0 forward_v I I I I #
coedge $-1 $374 $375 $258 $376 forward $159 $-1 #
coedge $-1 $258 $161 $163 $264 reversed $99 $-1 #
coedge $-1 $161 $257 $256 $376 reversed $99 $-1 #
coedge $-1 $377 $164 $161 $260 forward $254 $-1 #
edge $-1 $267 -45.403631473113329 $378 -29.675353795562714 $259 $379 forward 7 unknown #
coedge $-1 $163 $162 $374 $380 reversed $64 $-1 #
coedge $-1 $381 $382 $162 $263 forward $372 $-1 #
edge $-1 $383 -16.150405108213725 $266 7.3551373737283789 $262 $384 forward 7 unknown #
edge $-1 $385 -4.2449440147509963e-014 $267 23.505542481942065 $257 $386 forward 7 unknown #
coedge $-1 $164 $377 $381 $387 forward $254 $-1 #
vertex $-1 $263 $388 #
vertex $-1 $165 $389 #
straight-curve $-1 29.24658364230136 -36.717285910749872 21.225191909567908 -1 0 0 I I #
coedge $-1 $269 $269 $-1 $390 reversed $168 $-1 #
edge $-1 $391 0 $391 6.2831853071796004 $169 $392 forward 7 unknown #
vertex $-1 $172 $393 #
ellipse-curve $-1 51.325227577160732 -44.581424749525176 12.491180679493727 0 -0.74314483375859142 0.66913059716165679 1 0 0 1 I I #
coedge $-1 $273 $273 $-1 $394 reversed $175 $-1 #
edge $-1 $395 0 $395 6.2831853071796004 $176 $396 forward 7 unknown #
vertex $-1 $179 $397 #
ellipse-curve $-1 65.661106992044751 -44.581424749525176 12.491180679493727 0 -0.74314483375859142 0.66913059716165679 1 0 0 1 I I #
face $-1 $-1 $195 $27 $-1 $398 reversed single #
loop $-1 $-1 $293 $180 #
plane-surface $-1 0 52.445563588300487 0 0 -1 0 0 0 -1 forward_v I I I I #
coedge $-1 $399 $291 $294 $400 forward $181 $-1 #
coedge $-1 $297 $183 $184 $285 reversed $113 $-1 #
coedge $-1 $291 $399 $183 $283 reversed $181 $-1 #
edge $-1 $298 -21.225191909567908 $401 21.225191909567908 $282 $402 forward 7 unknown #
coedge $-1 $185 $184 $399 $403 forward $73 $-1 #
edge $-1 $289 -75.218359935300754 $401 75.218359935300754 $281 $404 forward 7 unknown #
coedge $-1 $294 $293 $185 $287 reversed $278 $-1 #
edge $-1 $405 -75.218359935300754 $288 75.218359935300754 $286 $406 forward 7 unknown #
vertex $-1 $187 $407 #
vertex $-1 $300 $408 #
straight-curve $-1 75.218359935300754 0 -21.225191909567908 0 -1 0 I I #
coedge $-1 $280 $282 $188 $292 reversed $181 $-1 #
edge $-1 $295 -52.445563588300487 $298 52.445563588300487 $291 $409 forward 7 unknown #
coedge $-1 $286 $189 $194 $301 forward $278 $-1 #
coedge $-1 $189 $286 $280 $400 reversed $278 $-1 #
vertex $-1 $190 $410 #
straight-curve $-1 0 52.445563588300487 21.225191909567908 -1 0 0 I I #
coedge $-1 $191 $281 $193 $300 reversed $113 $-1 #
vertex $-1 $292 $411 #
straight-curve $-1 0 -52.445563588300487 21.225191909567908 1 0 0 I I #
edge $-1 $196 -21.225191909567908 $289 21.225191909567908 $193 $412 forward 7 unknown #
edge $-1 $197 -21.225191909567908 $288 21.225191909567908 $194 $413 forward 7 unknown #
point $-1 75.218359935300754 -52.445563588300487 21.225191909567908 #
point $-1 75.218359935300754 52.445563588300487 21.225191909567908 #
face $-1 $-1 $321 $28 $-1 $414 reversed single #
loop $-1 $-1 $415 $199 #
plane-surface $-1 -75.218359935300754 0 0 1 0 0 0 0 -1 forward_v I I I I #
coedge $-1 $308 $324 $203 $311 forward $200 $-1 #
coedge $-1 $210 $307 $202 $309 forward $200 $-1 #
edge $-1 $315 -9.3745663906522836 $213 -4.652516646019933 $308 $416 forward 7 unknown #
coedge $-1 $204 $203 $415 $417 reversed $77 $-1 #
edge $-1 $418 -44.030780259140556 $315 -18.344379093179839 $307 $419 forward 7 unknown #
coedge $-1 $320 $319 $204 $313 forward $321 $-1 #
edge $-1 $314 18.344379093179839 $420 44.030780259140556 $312 $421 forward 7 unknown #
vertex $-1 $313 $422 #
vertex $-1 $311 $423 #
straight-curve $-1 -49.531958769340036 0 -16.388107908988392 0 -1 0 I I #
coedge $-1 $424 $425 $207 $318 forward $305 $-1 #
edge $-1 $325 -52.445563588300487 $322 52.445563588300487 $317 $426 forward 7 unknown #
coedge $-1 $312 $208 $212 $327 forward $321 $-1 #
coedge $-1 $208 $312 $424 $427 reversed $321 $-1 #
loop $-1 $-1 $312 $304 #
vertex $-1 $427 $428 #
straight-curve $-1 -31.187579676160198 52.445563588300487 -11.666058164356041 1 0 0 I I #
coedge $-1 $307 $210 $425 $429 forward $200 $-1 #
vertex $-1 $429 $430 #
straight-curve $-1 -31.187579676160198 -52.445563588300487 -11.666058164356041 -1 0 0 I I #
edge $-1 $214 4.652516646019933 $314 9.3745663906522836 $319 $431 forward 7 unknown #
point $-1 -49.531958769340036 -52.445563588300487 -11.666058164356041 #
point $-1 -49.531958769340036 52.445563588300487 -11.666058164356041 #
loop $-1 $-1 $224 $216 #
plane-surface $-1 0 52.445563588300487 0 0 -1 0 0 0 -1 forward_v I I I I #
coedge $-1 $333 $219 $221 $337 reversed $129 $-1 #
coedge $-1 $219 $332 $432 $433 reversed $129 $-1 #
coedge $-1 $227 $222 $219 $335 forward $217 $-1 #
edge $-1 $338 -16.898078764014215 $434 -11.240475919927356 $334 $435 forward 7 unknown #
coedge $-1 $221 $220 $341 $436 reversed $81 $-1 #
edge $-1 $437 -104.89112717660097 $338 -93.906302436583928 $332 $438 forward 7 unknown #
vertex $-1 $223 $439 #
straight-curve $-1 -19.789215670851036 46.787960744213613 21.225191909567911 1 0 0 I I #
coedge $-1 $432 $224 $227 $345 reversed $330 $-1 #
coedge $-1 $224 $432 $336 $436 forward $330 $-1 #
vertex $-1 $225 $440 #
straight-curve $-1 -49.531958769340022 52.445563588300487 89.599620530061969 0 0 1 I I #
straight-curve $-1 -49.531958769340022 -1.5773592601612307 101.71860442379533 0 0.51503806187062418 -0.85716730853699208 I I #
edge $-1 $434 29.624903914064117 $228 49.531958769340022 $340 $441 forward 7 unknown #
point $-1 -49.531958769340022 52.445563588300487 21.225191909567908 #
point $-1 -49.531958769340022 46.787960744213628 21.225191909567911 #
edge $-1 $442 1 $442 0 $231 $-1 forward 7 unknown #
vertex $-1 $232 $443 #
ellipse-curve $-1 -39.578431341702071 43.266420359442357 12.701605403392897 0 0.85716730853699208 0.51503806187062418 2.5 0 0 1 I I #
point $-1 -37.078431341702071 49.616762166257068 16.517275580992415 #
loop $-1 $-1 $242 $235 #
plane-surface $-1 0 52.445563588300487 0 0 -1 0 0 0 -1 forward_v I I I I #
coedge $-1 $444 $445 $239 $356 forward $236 $-1 #
coedge $-1 $239 $238 $361 $446 reversed $90 $-1 #
edge $-1 $358 49.905171217428546 $447 60.889995957445585 $354 $448 forward 7 unknown #
coedge $-1 $245 $240 $445 $449 forward $144 $-1 #
vertex $-1 $449 $450 #
straight-curve $-1 32.632416253831408 46.787960744213613 21.225191909567911 1 0 0 I I #
coedge $-1 $451 $242 $245 $365 reversed $352 $-1 #
coedge $-1 $242 $451 $355 $446 forward $352 $-1 #
vertex $-1 $243 $452 #
straight-curve $-1 55.311305080024866 52.445563588300487 89.599620530061969 0 0 1 I I #
straight-curve $-1 55.311305080024866 -1.5773592601612307 101.71860442379533 0 0.51503806187062418 -0.85716730853699208 I I #
edge $-1 $453 -75.218359935300754 $246 -55.311305080024866 $360 $454 forward 7 unknown #
point $-1 55.311305080024866 52.445563588300487 21.225191909567908 #
point $-1 55.311305080024866 46.787960744213628 21.225191909567911 #
edge $-1 $455 1 $455 0 $249 $-1 forward 7 unknown #
vertex $-1 $250 $456 #
ellipse-curve $-1 65.264832507662817 43.266420359442357 12.701605403392897 0 0.85716730853699208 0.51503806187062418 2.5 0 0 1 I I #
point $-1 67.764832507662817 49.616762166257068 16.517275580992415 #
loop $-1 $-1 $262 $253 #
plane-surface $-1 75.218359935300754 0 0 -1 0 0 0 0 1 forward_v I I I I #
coedge $-1 $457 $256 $261 $380 forward $159 $-1 #
coedge $-1 $256 $457 $377 $458 reversed $159 $-1 #
edge $-1 $378 30.984298916170108 $385 48.45232137631848 $256 $459 forward 7 unknown #
coedge $-1 $265 $259 $375 $458 forward $254 $-1 #
vertex $-1 $458 $460 #
straight-curve $-1 41.7679746339047 -82.120917383863201 21.225191909567911 0 -1 0 I I #
edge $-1 $385 12.52139099160334 $383 45.97177629299938 $374 $461 forward 7 unknown #
coedge $-1 $382 $262 $265 $387 reversed $372 $-1 #
coedge $-1 $262 $381 $457 $462 forward $372 $-1 #
vertex $-1 $380 $463 #
straight-curve $-1 75.218359935300754 -41.638833373838764 15.75925956869693 0 0.66913059716165679 0.74314483375859142 I I #
vertex $-1 $380 $464 #
straight-curve $-1 41.7679746339047 -52.445563588300459 3.757169449419564 0 0.66913059716165679 0.74314483375859142 I I #
edge $-1 $465 -52.445563588300487 $266 -36.717285910749872 $381 $466 forward 7 unknown #
point $-1 75.218359935300739 -36.717285910749872 21.225191909567908 #
point $-1 41.7679746339047 -36.717285910749872 21.225191909567908 #
edge $-1 $467 1 $467 0 $269 $-1 forward 7 unknown #
vertex $-1 $270 $468 #
ellipse-curve $-1 51.325227577160732 -43.443925767709281 11.466972021372987 0 -0.74314483375859142 0.66913059716165679 1 0 0 1 I I #
point $-1 52.325227577160732 -44.581424749525198 12.491180679493745 #
edge $-1 $469 1 $469 0 $273 $-1 forward 7 unknown #
vertex $-1 $274 $470 #
ellipse-curve $-1 65.661106992044751 -43.443925767709281 11.466972021372987 0 -0.74314483375859142 0.66913059716165679 1 0 0 1 I I #
point $-1 66.661106992044751 -44.581424749525198 12.491180679493745 #
plane-surface $-1 75.218359935300754 0 0 -1 0 0 0 0 1 forward_v I I I I #
coedge $-1 $282 $280 $284 $403 reversed $181 $-1 #
edge $-1 $295 -21.225191909567908 $405 21.225191909567908 $294 $471 forward 7 unknown #
vertex $-1 $403 $472 #
straight-curve $-1 -75.218359935300754 -52.445563588300487 0 0 0 -1 I I #
edge $-1 $401 -52.445563588300487 $405 52.445563588300487 $399 $473 forward 7 unknown #
straight-curve $-1 0 -52.445563588300487 -21.225191909567908 -1 0 0 I I #
vertex $-1 $287 $474 #
straight-curve $-1 0 52.445563588300487 -21.225191909567908 1 0 0 I I #
point $-1 75.218359935300754 52.445563588300487 -21.225191909567908 #
point $-1 75.218359935300754 -52.445563588300487 -21.225191909567908 #
straight-curve $-1 -75.218359935300754 0 21.225191909567908 0 -1 0 I I #
point $-1 -75.218359935300754 52.445563588300487 21.225191909567908 #
point $-1 -75.218359935300754 -52.445563588300487 21.225191909567908 #
straight-curve $-1 75.218359935300754 -52.445563588300487 0 0 0 -1 I I #
straight-curve $-1 75.218359935300754 52.445563588300487 0 0 0 -1 I I #
plane-surface $-1 0 52.445563588300487 0 0 -1 0 0 0 -1 forward_v I I I I #
coedge $-1 $425 $424 $310 $417 forward $305 $-1 #
straight-curve $-1 -49.531958769340036 -52.445563588300487 -7.0135415183361083 0 0 1 I I #
edge $-1 $420 -52.445563588300487 $418 52.445563588300487 $415 $475 forward 7 unknown #
vertex $-1 $311 $476 #
straight-curve $-1 -31.187579676160198 -52.445563588300487 -16.388107908988392 1 0 0 I I #
vertex $-1 $313 $477 #
straight-curve $-1 -31.187579676160198 52.445563588300487 -16.388107908988392 -1 0 0 I I #
point $-1 -49.531958769340036 52.445563588300487 -16.388107908988392 #
point $-1 -49.531958769340036 -52.445563588300487 -16.388107908988392 #
coedge $-1 $415 $317 $320 $427 forward $305 $-1 #
coedge $-1 $317 $415 $324 $429 reversed $305 $-1 #
straight-curve $-1 -75.218359935300754 0 -11.666058164356041 0 1 0 I I #
edge $-1 $322 11.666058164356041 $420 16.388107908988392 $320 $478 forward 7 unknown #
point $-1 -75.218359935300754 52.445563588300487 -11.666058164356041 #
edge $-1 $325 11.666058164356041 $418 16.388107908988392 $425 $479 forward 7 unknown #
point $-1 -75.218359935300754 -52.445563588300487 -11.666058164356041 #
straight-curve $-1 -49.531958769340036 52.445563588300487 -7.0135415183361083 0 0 -1 I I #
coedge $-1 $341 $340 $333 $433 forward $330 $-1 #
edge $-1 $434 68.374428620494058 $437 77.79026127764503 $432 $480 forward 7 unknown #
vertex $-1 $345 $481 #
straight-curve $-1 -29.624903914064117 63.686039508227843 21.225191909567911 0 1 0 I I #
edge $-1 $437 9.835688243213081 $342 29.742743098488987 $341 $482 forward 7 unknown #
vertex $-1 $436 $483 #
straight-curve $-1 -29.624903914064117 -1.5773592601612307 101.71860442379533 0 -0.51503806187062418 0.85716730853699208 I I #
point $-1 -29.624903914064117 46.787960744213628 21.225191909567911 #
point $-1 -49.531958769340022 52.445563588300487 11.80935925241694 #
straight-curve $-1 0 52.445563588300487 21.225191909567908 -1 0 0 I I #
vertex $-1 $348 $484 #
point $-1 -37.078431341702071 43.266420359442357 12.701605403392897 #
coedge $-1 $445 $354 $451 $485 reversed $236 $-1 #
coedge $-1 $354 $444 $357 $449 reversed $236 $-1 #
edge $-1 $447 -42.585943681469359 $362 -22.678888826193457 $361 $486 forward 7 unknown #
vertex $-1 $356 $487 #
straight-curve $-1 75.218359935300754 21.084898083067564 64.002273204088894 0 0.51503806187062429 -0.85716730853699219 I I #
edge $-1 $358 46.787960744213628 $453 52.445563588300487 $445 $488 forward 7 unknown #
point $-1 75.218359935300768 46.787960744213628 21.225191909567911 #
coedge $-1 $361 $360 $444 $485 forward $352 $-1 #
point $-1 55.311305080024866 52.445563588300487 11.80935925241694 #
vertex $-1 $449 $489 #
straight-curve $-1 0 52.445563588300487 21.225191909567908 -1 0 0 I I #
vertex $-1 $368 $490 #
point $-1 67.764832507662817 43.266420359442357 12.701605403392897 #
coedge $-1 $375 $374 $382 $462 reversed $159 $-1 #
edge $-1 $378 41.7679746339047 $465 75.218359935300754 $375 $491 forward 7 unknown #
straight-curve $-1 41.7679746339047 -52.445563588300487 52.209490825738015 0 0 -1 I I #
point $-1 41.7679746339047 -52.445563588300487 21.225191909567908 #
straight-curve $-1 29.24658364230136 -52.445563588300487 3.7571694494195311 1 0 0 I I #
edge $-1 $465 -21.225191909567908 $383 -3.7571694494195325 $382 $492 forward 7 unknown #
point $-1 75.218359935300739 -52.445563588300487 3.7571694494195325 #
point $-1 41.7679746339047 -52.445563588300487 3.7571694494195325 #
vertex $-1 $387 $493 #
straight-curve $-1 75.218359935300754 0 21.225191909567908 0 1 0 I I #
vertex $-1 $390 $494 #
point $-1 52.325227577160732 -43.443925767709281 11.466972021372987 #
vertex $-1 $394 $495 #
point $-1 66.661106992044751 -43.443925767709281 11.466972021372987 #
straight-curve $-1 -75.218359935300754 52.445563588300487 0 0 0 -1 I I #
point $-1 -75.218359935300754 -52.445563588300487 -21.225191909567908 #
straight-curve $-1 -75.218359935300754 0 -21.225191909567908 0 1 0 I I #
point $-1 -75.218359935300754 52.445563588300487 -21.225191909567908 #
straight-curve $-1 -75.218359935300754 0 -16.388107908988392 0 -1 0 I I #
point $-1 -75.218359935300754 -52.445563588300487 -16.388107908988392 #
point $-1 -75.218359935300754 52.445563588300487 -16.388107908988392 #
straight-curve $-1 -75.218359935300754 52.445563588300487 0 0 0 -1 I I #
straight-curve $-1 -75.218359935300754 -52.445563588300487 0 0 0 -1 I I #
straight-curve $-1 -29.624903914064117 52.445563588300487 89.599620530061969 0 0 -1 I I #
point $-1 -29.624903914064117 52.445563588300487 21.225191909567908 #
straight-curve $-1 -19.789215670851036 52.445563588300487 11.809359252416932 -1 0 0 I I #
point $-1 -29.624903914064117 52.445563588300487 11.80935925241694 #
point $-1 -39.578431341702071 41.123502088099876 11.414010248716338 #
edge $-1 $453 -21.225191909567908 $447 -11.80935925241694 $444 $496 forward 7 unknown #
straight-curve $-1 32.632416253831408 52.445563588300487 11.809359252416932 -1 0 0 I I #
point $-1 75.218359935300768 52.445563588300487 11.80935925241694 #
straight-curve $-1 75.218359935300754 0 21.225191909567908 0 1 0 I I #
point $-1 75.218359935300754 52.445563588300487 21.225191909567908 #
point $-1 65.264832507662817 41.123502088099876 11.414010248716338 #
straight-curve $-1 0 -52.445563588300487 21.225191909567908 1 0 0 I I #
straight-curve $-1 75.218359935300754 -52.445563588300487 0 0 0 -1 I I #
point $-1 75.218359935300754 -52.445563588300487 21.225191909567908 #
point $-1 51.325227577160732 -42.700780933950689 10.797841424211329 #
point $-1 65.661106992044751 -42.700780933950689 10.797841424211329 #
straight-curve $-1 75.218359935300754 52.445563588300487 0 0 0 -1 I I #
End-of-ACIS-data 