500 0 7 0           
7 Unknown 11 ACIS 5.0 NT 24 Thu Mar 25 15:45:34 1999 
-1 9.9999999999999995e-007 1e-010 
body $-1 $7 $-1 $8 #
body $-1 $9 $-1 $10 #
body $-1 $11 $-1 $12 #
body $-1 $13 $-1 $14 #
body $-1 $15 $-1 $16 #
body $-1 $17 $-1 $18 #
body $-1 $19 $-1 $20 #
lump $-1 $-1 $21 $0 #
transform $-1 1 0 0 0 1 0 0 0 1 74.634846034119704 44.250876532116479 19.451100951181985 1 rotate no_reflect no_shear #
lump $-1 $-1 $22 $1 #
transform $-1 1 0 0 0 1 0 0 0 1 74.634846034119704 44.250876532116479 19.451100951181985 1 rotate no_reflect no_shear #
lump $-1 $-1 $23 $2 #
transform $-1 1 0 0 0 1 0 0 0 1 74.634846034119704 44.250876532116479 19.451100951181985 1 rotate no_reflect no_shear #
lump $-1 $-1 $24 $3 #
transform $-1 1 0 0 0 1 0 0 0 1 74.634846034119704 44.250876532116479 19.451100951181985 1 rotate no_reflect no_shear #
lump $-1 $-1 $25 $4 #
transform $-1 1 0 0 0 1 0 0 0 1 74.634846034119704 44.250876532116479 19.451100951181985 1 rotate no_reflect no_shear #
lump $-1 $-1 $26 $5 #
transform $-1 1 0 0 0 1 0 0 0 1 74.634846034119704 44.250876532116479 19.451100951181985 1 rotate no_reflect no_shear #
lump $-1 $-1 $27 $6 #
transform $-1 1 0 0 0 1 0 0 0 1 74.634846034119704 44.250876532116479 19.451100951181985 1 rotate no_reflect no_shear #
shell $-1 $-1 $-1 $28 $-1 $7 #
shell $-1 $-1 $-1 $29 $-1 $9 #
shell $-1 $-1 $-1 $30 $-1 $11 #
shell $-1 $-1 $-1 $31 $-1 $13 #
shell $-1 $-1 $-1 $32 $-1 $15 #
shell $-1 $-1 $-1 $33 $-1 $17 #
shell $-1 $-1 $-1 $34 $-1 $19 #
face $-1 $35 $36 $21 $-1 $37 forward single #
face $-1 $38 $39 $22 $-1 $40 forward single #
face $-1 $41 $42 $23 $-1 $43 forward single #
face $-1 $44 $45 $24 $-1 $46 reversed single #
face $-1 $47 $48 $25 $-1 $49 forward single #
face $-1 $50 $51 $26 $-1 $52 reversed single #
face $-1 $53 $54 $27 $-1 $55 forward single #
face $-1 $56 $57 $21 $-1 $58 reversed single #
loop $-1 $-1 $59 $28 #
plane-surface $-1 0 0 19.451100951181985 0 0 1 1 0 0 forward_v I I I I #
face $-1 $60 $61 $22 $-1 $62 reversed single #
loop $-1 $-1 $63 $29 #
plane-surface $-1 0 -44.250876532116479 0 0 1 0 0 0 1 forward_v I I I I #
face $-1 $64 $65 $23 $-1 $66 reversed single #
loop $-1 $-1 $67 $30 #
plane-surface $-1 0 44.250876532116479 0 0 -1 0 0 0 -1 forward_v I I I I #
face $-1 $68 $69 $24 $-1 $70 reversed single #
loop $-1 $-1 $71 $31 #
plane-surface $-1 132.82168086127152 22.667260091050579 213.88414352992399 0 -1 0 -0.87461971476443456 0 -0.48480960649040278 forward_v I I I I #
face $-1 $72 $73 $25 $-1 $74 forward single #
loop $-1 $75 $76 $32 #
cone-surface $-1 69.479348775885228 18.277058546404227 13.653175594942528 -0.87461971476443456 0 -0.48480960649040278 0.96961921298080556 0 -1.7492394295288691 1 I I 0 1 2 forward I I I I #
face $-1 $77 $78 $26 $-1 $79 reversed single #
loop $-1 $-1 $80 $33 #
plane-surface $-1 -183.80378910143563 -14.704995805700211 112.80289008949956 0 1 0 -0.73135370988377701 0 0.68199835119979291 forward_v I I I I #
face $-1 $81 $82 $27 $-1 $83 forward single #
loop $-1 $84 $85 $34 #
cone-surface $-1 -69.848037406946389 -11.085337271200721 14.436330516149962 0.73135370988377701 0 -0.68199835119979291 0.68199835119979291 0 0.73135370988377701 1 I I 0 1 1 forward I I I I #
face $-1 $86 $87 $21 $-1 $88 reversed single #
loop $-1 $-1 $89 $35 #
plane-surface $-1 0 0 -19.451100951181985 0 0 1 1 0 0 forward_v I I I I #
coedge $-1 $90 $91 $92 $93 forward $36 $-1 #
face $-1 $94 $95 $22 $-1 $96 reversed single #
loop $-1 $-1 $97 $38 #
plane-surface $-1 0 0 -19.451100951181985 0 0 1 1 0 0 forward_v I I I I #
coedge $-1 $98 $99 $100 $101 forward $39 $-1 #
face $-1 $102 $103 $23 $-1 $104 forward single #
loop $-1 $-1 $105 $41 #
plane-surface $-1 -74.634846034119704 0 0 1 0 0 0 0 -1 forward_v I I I I #
coedge $-1 $106 $107 $108 $109 forward $42 $-1 #
face $-1 $110 $111 $24 $-1 $112 reversed single #
loop $-1 $-1 $113 $44 #
plane-surface $-1 2.2674653615729881 18.277058546404227 141.51676285737724 0.87461971476443456 0 0.48480960649040278 0.48480960649040278 0 -0.87461971476443456 forward_v I I I I #
coedge $-1 $114 $115 $116 $117 reversed $45 $-1 #
face $-1 $-1 $118 $25 $-1 $119 forward single #
loop $-1 $120 $121 $47 #
cone-surface $-1 65.801872760932525 18.277058546404227 11.614717428964298 -0.87461971476443456 0 -0.48480960649040278 0.48480960649040278 0 -0.87461971476443456 1 I I -0.70710678118654746 0.70710678118654746 1 forward I I I I #
loop $-1 $-1 $122 $32 #
coedge $-1 $76 $76 $123 $124 reversed $48 $-1 #
face $-1 $125 $126 $26 $-1 $127 reversed single #
loop $-1 $-1 $128 $50 #
plane-surface $-1 -74.634846034119732 -11.085337271200714 11.001206214859479 -0.73135370988377701 0 0.68199835119979291 0.68199835119979291 0 0.73135370988377701 forward_v I I I I #
coedge $-1 $129 $130 $131 $132 reversed $51 $-1 #
face $-1 $-1 $133 $27 $-1 $134 forward single #
loop $-1 $135 $136 $53 #
cone-surface $-1 -68.635378988058619 -11.085337271200721 13.305508273679308 0.73135370988377701 0 -0.68199835119979291 0.34099917559989645 0 0.36567685494188851 1 I I -0.70710678118654746 0.70710678118654746 0.5 forward I I I I #
loop $-1 $-1 $137 $34 #
coedge $-1 $85 $85 $138 $139 reversed $54 $-1 #
face $-1 $140 $141 $21 $-1 $142 reversed single #
loop $-1 $-1 $143 $56 #
plane-surface $-1 0 -44.250876532116479 0 0 1 0 0 0 1 forward_v I I I I #
coedge $-1 $144 $145 $146 $147 forward $57 $-1 #
coedge $-1 $148 $59 $149 $150 forward $36 $-1 #
coedge $-1 $59 $148 $151 $152 forward $36 $-1 #
coedge $-1 $153 $154 $59 $93 reversed $155 $-1 #
edge $-1 $156 -44.250876532116479 $157 44.250876532116479 $92 $158 forward 7 unknown #
face $-1 $159 $160 $22 $-1 $161 forward single #
loop $-1 $-1 $162 $60 #
plane-surface $-1 74.634846034119704 0 0 -1 0 0 0 0 1 forward_v I I I I #
coedge $-1 $163 $164 $165 $166 forward $61 $-1 #
coedge $-1 $165 $63 $162 $167 reversed $39 $-1 #
coedge $-1 $63 $165 $168 $169 reversed $39 $-1 #
coedge $-1 $170 $171 $63 $101 reversed $160 $-1 #
edge $-1 $172 -74.634846034119704 $173 74.634846034119704 $100 $174 forward 7 unknown #
face $-1 $175 $176 $23 $-1 $177 reversed single #
loop $-1 $-1 $178 $64 #
plane-surface $-1 0 55.042684752649421 -10.256542321070661 0 0 1 1 0 0 forward_v I I I I #
coedge $-1 $179 $180 $106 $181 forward $65 $-1 #
coedge $-1 $182 $67 $105 $181 reversed $42 $-1 #
coedge $-1 $67 $182 $183 $184 reversed $42 $-1 #
coedge $-1 $178 $185 $67 $109 reversed $103 $-1 #
edge $-1 $186 -74.634846034119704 $187 74.634846034119704 $108 $188 forward 7 unknown #
face $-1 $189 $190 $24 $-1 $191 forward single #
loop $-1 $-1 $192 $68 #
plane-surface $-1 132.82168086127152 13.886857001757875 213.88414352992399 0 1 0 0.87461971476443456 0 0.48480960649040278 forward_v I I I I #
coedge $-1 $193 $194 $195 $196 reversed $69 $-1 #
coedge $-1 $115 $71 $197 $198 reversed $45 $-1 #
coedge $-1 $71 $114 $193 $199 reversed $45 $-1 #
coedge $-1 $195 $200 $71 $117 forward $190 $-1 #
edge $-1 $201 -8.2240056034839455 $202 -3.5187236873915424 $116 $203 forward 7 unknown #
loop $-1 $-1 $123 $72 #
plane-surface $-1 2.2674653615729881 18.277058546404227 141.51676285737724 0.87461971476443456 0 0.48480960649040278 0.48480960649040278 0 -0.87461971476443456 forward_v I I I I #
loop $-1 $-1 $204 $47 #
coedge $-1 $121 $121 $122 $205 reversed $73 $-1 #
coedge $-1 $122 $122 $121 $205 forward $75 $-1 #
coedge $-1 $123 $123 $76 $124 forward $118 $-1 #
edge $-1 $206 0 $206 6.2831853071796004 $123 $207 forward 7 unknown #
face $-1 $208 $209 $26 $-1 $210 reversed single #
loop $-1 $-1 $211 $77 #
plane-surface $-1 -183.80378910143563 -7.4656787367012178 112.80289008949956 0 -1 0 0.73135370988377701 0 -0.68199835119979291 forward_v I I I I #
coedge $-1 $212 $213 $214 $215 reversed $78 $-1 #
coedge $-1 $130 $80 $216 $217 reversed $51 $-1 #
coedge $-1 $80 $129 $212 $218 reversed $51 $-1 #
coedge $-1 $214 $219 $80 $132 forward $220 $-1 #
edge $-1 $221 17.267048516598109 $222 25.146702643052919 $131 $223 forward 7 unknown #
loop $-1 $-1 $138 $81 #
plane-surface $-1 -74.634846034119732 -11.085337271200714 11.001206214859479 -0.73135370988377701 0 0.68199835119979291 0.68199835119979291 0 0.73135370988377701 forward_v I I I I #
loop $-1 $-1 $224 $53 #
coedge $-1 $136 $136 $137 $225 reversed $82 $-1 #
coedge $-1 $137 $137 $136 $225 forward $84 $-1 #
coedge $-1 $138 $138 $85 $139 forward $133 $-1 #
edge $-1 $226 0 $226 6.2831853071796004 $138 $227 forward 7 unknown #
face $-1 $228 $229 $21 $-1 $230 reversed single #
loop $-1 $-1 $231 $86 #
plane-surface $-1 -74.634846034119704 0 0 1 0 0 0 0 -1 forward_v I I I I #
coedge $-1 $151 $232 $153 $233 reversed $87 $-1 #
coedge $-1 $234 $89 $232 $235 forward $57 $-1 #
coedge $-1 $89 $234 $236 $237 forward $57 $-1 #
coedge $-1 $154 $153 $89 $147 reversed $155 $-1 #
edge $-1 $238 -44.250876532116479 $239 44.250876532116479 $146 $240 forward 7 unknown #
coedge $-1 $91 $90 $241 $242 forward $36 $-1 #
coedge $-1 $243 $244 $90 $150 reversed $229 $-1 #
edge $-1 $157 -74.634846034119704 $245 74.634846034119704 $149 $246 forward 7 unknown #
coedge $-1 $247 $143 $91 $152 reversed $87 $-1 #
edge $-1 $248 -74.634846034119704 $156 74.634846034119704 $151 $249 forward 7 unknown #
coedge $-1 $146 $92 $143 $233 forward $155 $-1 #
coedge $-1 $92 $146 $243 $250 reversed $155 $-1 #
loop $-1 $-1 $153 $228 #
vertex $-1 $93 $251 #
vertex $-1 $93 $252 #
straight-curve $-1 74.634846034119704 0 19.451100951181985 0 1 0 I I #
face $-1 $253 $254 $22 $-1 $255 reversed single #
loop $-1 $-1 $171 $94 #
plane-surface $-1 0 -55.042684752649429 -10.256542321070661 0 0 1 1 0 0 forward_v I I I I #
coedge $-1 $256 $257 $98 $167 forward $95 $-1 #
coedge $-1 $258 $97 $257 $259 forward $61 $-1 #
coedge $-1 $97 $258 $260 $261 forward $61 $-1 #
coedge $-1 $99 $98 $97 $166 reversed $39 $-1 #
edge $-1 $262 -74.634846034119704 $263 74.634846034119704 $97 $264 forward 7 unknown #
edge $-1 $263 -19.451100951181985 $173 -10.256542321070661 $162 $265 forward 7 unknown #
coedge $-1 $260 $266 $99 $169 forward $267 $-1 #
edge $-1 $172 10.256542321070661 $262 19.451100951181985 $168 $268 forward 7 unknown #
coedge $-1 $269 $100 $266 $270 forward $160 $-1 #
coedge $-1 $100 $269 $256 $271 forward $160 $-1 #
vertex $-1 $169 $272 #
vertex $-1 $271 $273 #
straight-curve $-1 0 -44.250876532116479 -10.256542321070661 1 0 0 I I #
face $-1 $274 $275 $23 $-1 $276 reversed single #
loop $-1 $-1 $277 $102 #
plane-surface $-1 0 65.834492973182364 -14.853821636126323 0 -1 0 0 0 -1 forward_v I I I I #
coedge $-1 $278 $108 $279 $280 forward $103 $-1 #
coedge $-1 $281 $105 $185 $282 reversed $65 $-1 #
coedge $-1 $105 $281 $283 $284 reversed $65 $-1 #
edge $-1 $285 -19.451100951181985 $187 -10.256542321070661 $105 $286 forward 7 unknown #
coedge $-1 $107 $106 $287 $288 reversed $42 $-1 #
coedge $-1 $289 $279 $107 $184 forward $290 $-1 #
edge $-1 $186 10.256542321070661 $291 19.451100951181985 $183 $292 forward 7 unknown #
coedge $-1 $108 $278 $179 $282 forward $103 $-1 #
vertex $-1 $184 $293 #
vertex $-1 $282 $294 #
straight-curve $-1 0 44.250876532116479 -10.256542321070661 -1 0 0 I I #
face $-1 $-1 $295 $24 $-1 $296 reversed single #
loop $-1 $-1 $116 $110 #
plane-surface $-1 0 0 19.451100951181985 0 0 1 1 0 0 forward_v I I I I #
coedge $-1 $297 $298 $299 $300 reversed $111 $-1 #
coedge $-1 $301 $113 $115 $199 forward $69 $-1 #
coedge $-1 $113 $301 $297 $302 forward $69 $-1 #
coedge $-1 $299 $116 $113 $196 forward $190 $-1 #
edge $-1 $202 -13.528730817848466 $303 -4.7483277285557612 $195 $304 forward 7 unknown #
coedge $-1 $305 $306 $114 $198 forward $295 $-1 #
edge $-1 $307 -95.979524407283222 $201 -87.49097081378001 $197 $308 forward 7 unknown #
edge $-1 $202 139.56426987135978 $307 149.26969206823935 $115 $309 forward 7 unknown #
coedge $-1 $116 $299 $305 $310 forward $190 $-1 #
vertex $-1 $198 $311 #
vertex $-1 $117 $312 #
straight-curve $-1 66.410840430635758 22.667260091050579 19.451100951181985 -1 0 0 I I #
coedge $-1 $204 $204 $-1 $313 reversed $120 $-1 #
edge $-1 $314 0 $314 6.2831853071796004 $121 $315 forward 7 unknown #
vertex $-1 $124 $316 #
ellipse-curve $-1 72.28220507607351 18.277058546404227 15.206824154430366 0.87461971476443456 0 0.48480960649040278 0.96961921298080556 0 -1.7492394295288691 1 I I #
face $-1 $-1 $220 $26 $-1 $317 forward single #
loop $-1 $-1 $318 $125 #
plane-surface $-1 -74.634846034119704 0 0 1 0 0 0 0 -1 forward_v I I I I #
coedge $-1 $319 $320 $321 $322 reversed $126 $-1 #
coedge $-1 $323 $128 $130 $218 forward $78 $-1 #
coedge $-1 $128 $323 $319 $324 forward $78 $-1 #
coedge $-1 $321 $131 $128 $215 forward $220 $-1 #
edge $-1 $222 -9.1623271700998536 $325 -1.9230101011008607 $214 $326 forward 7 unknown #
coedge $-1 $327 $328 $129 $217 forward $209 $-1 #
edge $-1 $329 -45.40023882989027 $221 -36.950344093567793 $216 $330 forward 7 unknown #
edge $-1 $222 -11.553772985803707 $329 -4.1469026767552634e-014 $130 $331 forward 7 unknown #
coedge $-1 $131 $321 $327 $332 forward $220 $-1 #
loop $-1 $-1 $321 $208 #
vertex $-1 $217 $333 #
vertex $-1 $132 $334 #
straight-curve $-1 -91.901894550717813 -14.704995805700211 19.451100951181985 1 0 0 I I #
coedge $-1 $224 $224 $-1 $335 reversed $135 $-1 #
edge $-1 $336 0 $336 6.2831853071796004 $136 $337 forward 7 unknown #
vertex $-1 $139 $338 #
ellipse-curve $-1 -70.695018970892292 -11.085337271200721 15.226153583020748 -0.73135370988377701 0 0.68199835119979291 0.68199835119979291 0 0.73135370988377701 1 I I #
face $-1 $-1 $155 $21 $-1 $339 reversed single #
loop $-1 $-1 $244 $140 #
plane-surface $-1 0 44.250876532116479 0 0 -1 0 0 0 -1 forward_v I I I I #
coedge $-1 $340 $241 $244 $341 forward $141 $-1 #
coedge $-1 $143 $247 $144 $235 reversed $87 $-1 #
edge $-1 $156 -19.451100951181985 $239 19.451100951181985 $153 $342 forward 7 unknown #
coedge $-1 $145 $144 $340 $343 forward $57 $-1 #
edge $-1 $239 -74.634846034119704 $344 74.634846034119704 $232 $345 forward 7 unknown #
coedge $-1 $244 $243 $145 $237 reversed $229 $-1 #
edge $-1 $346 -74.634846034119704 $238 74.634846034119704 $236 $347 forward 7 unknown #
vertex $-1 $147 $348 #
vertex $-1 $233 $349 #
straight-curve $-1 74.634846034119704 0 -19.451100951181985 0 -1 0 I I #
coedge $-1 $231 $350 $148 $242 reversed $141 $-1 #
edge $-1 $245 -44.250876532116479 $248 44.250876532116479 $241 $351 forward 7 unknown #
coedge $-1 $236 $149 $154 $250 forward $229 $-1 #
coedge $-1 $149 $236 $231 $341 reversed $229 $-1 #
vertex $-1 $150 $352 #
straight-curve $-1 0 44.250876532116479 19.451100951181985 -1 0 0 I I #
coedge $-1 $232 $151 $350 $353 forward $87 $-1 #
vertex $-1 $242 $354 #
straight-curve $-1 0 -44.250876532116479 19.451100951181985 1 0 0 I I #
edge $-1 $157 -19.451100951181985 $238 19.451100951181985 $154 $355 forward 7 unknown #
point $-1 74.634846034119704 -44.250876532116479 19.451100951181985 #
point $-1 74.634846034119704 44.250876532116479 19.451100951181985 #
face $-1 $-1 $267 $22 $-1 $356 reversed single #
loop $-1 $-1 $357 $159 #
plane-surface $-1 0 -65.834492973182378 -14.853821636126323 0 1 0 0 0 1 forward_v I I I I #
coedge $-1 $358 $162 $171 $271 reversed $95 $-1 #
coedge $-1 $162 $358 $163 $259 reversed $95 $-1 #
coedge $-1 $164 $163 $359 $360 forward $61 $-1 #
edge $-1 $263 44.250876532116479 $361 65.834492973182378 $257 $362 forward 7 unknown #
coedge $-1 $363 $168 $164 $261 reversed $267 $-1 #
edge $-1 $364 -65.834492973182378 $262 -44.250876532116479 $260 $365 forward 7 unknown #
vertex $-1 $169 $366 #
vertex $-1 $259 $367 #
straight-curve $-1 0 -44.250876532116479 -19.451100951181985 1 0 0 I I #
straight-curve $-1 74.634846034119704 -44.250876532116479 0 0 0 1 I I #
coedge $-1 $168 $363 $170 $270 reversed $267 $-1 #
loop $-1 $-1 $168 $253 #
straight-curve $-1 -74.634846034119704 -44.250876532116479 0 0 0 -1 I I #
coedge $-1 $171 $170 $368 $369 forward $160 $-1 #
edge $-1 $172 -10.79180822053295 $370 10.79180822053295 $266 $371 forward 7 unknown #
edge $-1 $372 -10.79180822053295 $173 10.79180822053295 $256 $373 forward 7 unknown #
point $-1 -74.634846034119704 -44.250876532116479 -10.256542321070661 #
point $-1 74.634846034119704 -44.250876532116479 -10.256542321070661 #
face $-1 $-1 $290 $23 $-1 $374 reversed single #
loop $-1 $-1 $287 $175 #
plane-surface $-1 0 0 -19.451100951181985 0 0 1 1 0 0 forward_v I I I I #
coedge $-1 $375 $376 $377 $378 forward $176 $-1 #
coedge $-1 $185 $178 $376 $379 forward $103 $-1 #
coedge $-1 $183 $377 $178 $280 reversed $290 $-1 #
edge $-1 $186 -10.79180822053295 $380 10.791808220532943 $279 $381 forward 7 unknown #
coedge $-1 $180 $179 $382 $383 forward $65 $-1 #
edge $-1 $384 -10.791808220532943 $187 10.79180822053295 $179 $385 forward 7 unknown #
coedge $-1 $386 $287 $180 $284 forward $275 $-1 #
edge $-1 $285 -10.791808220532943 $387 10.791808220532943 $180 $388 forward 7 unknown #
vertex $-1 $284 $389 #
straight-curve $-1 -74.634846034119704 44.250876532116479 0 0 0 1 I I #
coedge $-1 $283 $390 $182 $288 forward $275 $-1 #
edge $-1 $291 -74.634846034119704 $285 74.634846034119704 $287 $391 forward 7 unknown #
coedge $-1 $377 $183 $390 $392 reversed $290 $-1 #
loop $-1 $-1 $183 $274 #
vertex $-1 $184 $393 #
straight-curve $-1 74.634846034119704 44.250876532116479 0 0 0 -1 I I #
point $-1 74.634846034119704 44.250876532116472 -10.256542321070661 #
point $-1 -74.634846034119704 44.250876532116472 -10.256542321070661 #
loop $-1 $-1 $197 $189 #
plane-surface $-1 74.634846034119704 0 0 -1 0 0 0 0 1 forward_v I I I I #
coedge $-1 $298 $192 $194 $302 reversed $111 $-1 #
coedge $-1 $192 $297 $394 $395 reversed $111 $-1 #
coedge $-1 $200 $195 $192 $300 forward $190 $-1 #
edge $-1 $303 3.5187236873915424 $396 8.2240056034839455 $299 $397 forward 7 unknown #
coedge $-1 $194 $193 $306 $398 reversed $69 $-1 #
edge $-1 $399 -149.26969206823935 $303 -139.56426987135978 $297 $400 forward 7 unknown #
vertex $-1 $196 $401 #
straight-curve $-1 69.929564118027301 9.1385292732021135 19.451100951181985 0 -1 0 I I #
coedge $-1 $394 $197 $200 $310 reversed $295 $-1 #
coedge $-1 $197 $394 $301 $398 forward $295 $-1 #
vertex $-1 $198 $402 #
straight-curve $-1 74.634846034119704 22.667260091050579 106.94207176496199 0 0 1 I I #
straight-curve $-1 2.2674653615729881 22.667260091050579 141.51676285737724 0.48480960649040278 0 -0.87461971476443456 I I #
edge $-1 $396 13.886857001757875 $201 22.667260091050579 $305 $403 forward 7 unknown #
point $-1 74.634846034119704 22.667260091050579 19.451100951181985 #
point $-1 69.929564118027301 22.667260091050579 19.451100951181985 #
edge $-1 $404 1 $404 0 $204 $-1 forward 7 unknown #
vertex $-1 $205 $405 #
ellipse-curve $-1 66.676492475696961 18.277058546404227 12.099527035454701 0.87461971476443456 0 0.48480960649040278 0.96961921298080556 0 -1.7492394295288691 1 I I #
point $-1 73.251824289054298 18.277058546404227 13.457584724901491 #
plane-surface $-1 0 0 19.451100951181985 0 0 1 1 0 0 forward_v I I I I #
coedge $-1 $328 $327 $320 $406 forward $209 $-1 #
coedge $-1 $320 $211 $213 $324 reversed $126 $-1 #
coedge $-1 $211 $319 $318 $406 reversed $126 $-1 #
coedge $-1 $219 $214 $211 $322 forward $220 $-1 #
edge $-1 $325 -25.146702643052919 $407 -17.267048516598109 $321 $408 forward 7 unknown #
coedge $-1 $213 $212 $328 $409 reversed $78 $-1 #
edge $-1 $410 4.1469026767552634e-014 $325 11.553772985803707 $319 $411 forward 7 unknown #
vertex $-1 $215 $412 #
straight-curve $-1 -66.755191907664894 -5.5426686356003572 19.451100951181985 0 1 0 I I #
coedge $-1 $318 $216 $219 $332 reversed $209 $-1 #
coedge $-1 $216 $318 $323 $409 forward $209 $-1 #
vertex $-1 $217 $413 #
straight-curve $-1 -74.634846034119704 -14.704995805700211 56.401445044749778 0 0 1 I I #
straight-curve $-1 -74.634846034119732 -14.704995805700211 11.001206214859479 -0.68199835119979291 0 -0.73135370988377701 I I #
edge $-1 $407 7.4656787367012178 $221 14.704995805700211 $327 $414 forward 7 unknown #
point $-1 -74.634846034119704 -14.704995805700211 19.451100951181985 #
point $-1 -66.755191907664894 -14.704995805700211 19.451100951181985 #
edge $-1 $415 1 $415 0 $224 $-1 forward 7 unknown #
vertex $-1 $225 $416 #
ellipse-curve $-1 -69.001055843000501 -11.085337271200721 13.646507449279206 -0.73135370988377701 0 0.68199835119979291 0.68199835119979291 0 0.73135370988377701 1 I I #
point $-1 -70.013020619692469 -11.085337271200721 15.957507292904497 #
plane-surface $-1 74.634846034119704 0 0 -1 0 0 0 0 1 forward_v I I I I #
coedge $-1 $350 $231 $234 $343 reversed $141 $-1 #
edge $-1 $245 -19.451100951181985 $346 19.451100951181985 $244 $417 forward 7 unknown #
straight-curve $-1 74.634846034119704 -44.250876532116479 0 0 0 -1 I I #
edge $-1 $344 -44.250876532116479 $346 44.250876532116479 $340 $418 forward 7 unknown #
vertex $-1 $343 $419 #
straight-curve $-1 0 -44.250876532116479 -19.451100951181985 -1 0 0 I I #
vertex $-1 $237 $420 #
straight-curve $-1 0 44.250876532116479 -19.451100951181985 1 0 0 I I #
point $-1 74.634846034119704 44.250876532116479 -19.451100951181985 #
point $-1 74.634846034119704 -44.250876532116479 -19.451100951181985 #
coedge $-1 $241 $340 $247 $353 reversed $141 $-1 #
straight-curve $-1 -74.634846034119704 0 19.451100951181985 0 -1 0 I I #
point $-1 -74.634846034119704 44.250876532116479 19.451100951181985 #
edge $-1 $248 -19.451100951181985 $344 19.451100951181985 $350 $421 forward 7 unknown #
point $-1 -74.634846034119704 -44.250876532116479 19.451100951181985 #
straight-curve $-1 74.634846034119704 44.250876532116479 0 0 0 -1 I I #
plane-surface $-1 -74.634846034119704 0 0 1 0 0 0 0 -1 forward_v I I I I #
coedge $-1 $359 $368 $363 $422 forward $254 $-1 #
coedge $-1 $257 $256 $423 $424 forward $95 $-1 #
coedge $-1 $423 $357 $258 $360 reversed $254 $-1 #
edge $-1 $361 -74.634846034119704 $364 74.634846034119704 $359 $425 forward 7 unknown #
vertex $-1 $424 $426 #
straight-curve $-1 74.634846034119704 0 -19.451100951181985 0 -1 0 I I #
coedge $-1 $266 $260 $357 $422 reversed $267 $-1 #
vertex $-1 $261 $427 #
straight-curve $-1 -74.634846034119704 0 -19.451100951181985 0 1 0 I I #
point $-1 -74.634846034119704 -44.250876532116479 -19.451100951181985 #
point $-1 74.634846034119704 -44.250876532116479 -19.451100951181985 #
coedge $-1 $357 $423 $269 $369 reversed $254 $-1 #
edge $-1 $370 -74.634846034119704 $372 74.634846034119704 $368 $428 forward 7 unknown #
vertex $-1 $270 $429 #
straight-curve $-1 -74.634846034119704 -55.042684752649429 -10.256542321070661 0 -1 0 I I #
vertex $-1 $271 $430 #
straight-curve $-1 74.634846034119704 -55.042684752649429 -10.256542321070661 0 1 0 I I #
plane-surface $-1 74.634846034119704 0 0 -1 0 0 0 0 1 forward_v I I I I #
coedge $-1 $382 $277 $386 $431 reversed $176 $-1 #
coedge $-1 $277 $382 $278 $379 reversed $176 $-1 #
coedge $-1 $279 $289 $277 $378 reversed $290 $-1 #
edge $-1 $380 -4.5972793150556619 $432 4.5972793150556619 $377 $433 forward 7 unknown #
edge $-1 $380 -74.634846034119704 $384 74.634846034119704 $376 $434 forward 7 unknown #
vertex $-1 $280 $435 #
straight-curve $-1 74.634846034119704 55.042684752649421 -10.256542321070661 0 1 0 I I #
coedge $-1 $376 $375 $281 $383 reversed $176 $-1 #
edge $-1 $384 -4.5972793150556619 $387 4.5972793150556619 $382 $436 forward 7 unknown #
vertex $-1 $379 $437 #
straight-curve $-1 -74.634846034119704 55.042684752649421 -10.256542321070661 0 -1 0 I I #
coedge $-1 $390 $283 $375 $431 forward $275 $-1 #
vertex $-1 $431 $438 #
straight-curve $-1 -74.634846034119704 55.042684752649421 -19.451100951181985 0 1 0 I I #
point $-1 -74.634846034119704 44.250876532116479 -19.451100951181985 #
coedge $-1 $287 $386 $289 $392 forward $275 $-1 #
straight-curve $-1 0 44.250876532116479 -19.451100951181985 -1 0 0 I I #
edge $-1 $432 -65.834492973182364 $291 -44.250876532116479 $289 $439 forward 7 unknown #
point $-1 74.634846034119704 44.250876532116479 -19.451100951181985 #
coedge $-1 $306 $305 $298 $395 forward $295 $-1 #
edge $-1 $396 87.49097081378001 $399 95.979524407283222 $394 $440 forward 7 unknown #
vertex $-1 $310 $441 #
straight-curve $-1 66.410840430635758 13.886857001757875 19.451100951181985 1 0 0 I I #
edge $-1 $399 4.7483277285557612 $307 13.528730817848466 $306 $442 forward 7 unknown #
vertex $-1 $398 $443 #
straight-curve $-1 2.2674653615729881 13.886857001757875 141.51676285737724 -0.48480960649040278 0 0.87461971476443456 I I #
point $-1 69.929564118027301 13.886857001757875 19.451100951181985 #
point $-1 74.634846034119704 22.667260091050579 10.962547357678773 #
straight-curve $-1 74.634846034119704 0 19.451100951181985 0 1 0 I I #
vertex $-1 $313 $444 #
point $-1 67.646111688677763 18.277058546404227 10.350287605925832 #
edge $-1 $407 36.950344093567793 $410 45.40023882989027 $318 $445 forward 7 unknown #
vertex $-1 $332 $446 #
straight-curve $-1 -91.901894550717813 -7.4656787367012178 19.451100951181985 -1 0 0 I I #
edge $-1 $410 1.9230101011008607 $329 9.1623271700998536 $328 $447 forward 7 unknown #
vertex $-1 $409 $448 #
straight-curve $-1 -74.634846034119732 -7.4656787367012178 11.001206214859479 0.68199835119979291 0 0.73135370988377701 I I #
point $-1 -66.755191907664894 -7.4656787367012178 19.451100951181985 #
point $-1 -74.634846034119704 -14.704995805700211 11.00120621485951 #
straight-curve $-1 -74.634846034119704 0 19.451100951181985 0 -1 0 I I #
vertex $-1 $335 $449 #
point $-1 -68.31905749180072 -11.085337271200721 14.377861159162983 #
straight-curve $-1 -74.634846034119704 44.250876532116479 0 0 0 -1 I I #
straight-curve $-1 -74.634846034119704 0 -19.451100951181985 0 1 0 I I #
point $-1 -74.634846034119704 -44.250876532116479 -19.451100951181985 #
point $-1 -74.634846034119704 44.250876532116479 -19.451100951181985 #
straight-curve $-1 -74.634846034119704 -44.250876532116479 0 0 0 -1 I I #
edge $-1 $370 -4.5972793150556619 $364 4.5972793150556619 $363 $450 forward 7 unknown #
coedge $-1 $368 $359 $358 $424 reversed $254 $-1 #
edge $-1 $372 -4.5972793150556619 $361 4.5972793150556619 $358 $451 forward 7 unknown #
straight-curve $-1 0 -65.834492973182378 -19.451100951181985 -1 0 0 I I #
point $-1 74.634846034119704 -65.834492973182378 -19.451100951181985 #
point $-1 -74.634846034119704 -65.834492973182378 -19.451100951181985 #
straight-curve $-1 0 -65.834492973182378 -10.256542321070661 1 0 0 I I #
point $-1 -74.634846034119704 -65.834492973182378 -10.256542321070661 #
point $-1 74.634846034119704 -65.834492973182378 -10.256542321070661 #
edge $-1 $387 -74.634846034119704 $432 74.634846034119704 $375 $452 forward 7 unknown #
vertex $-1 $392 $453 #
straight-curve $-1 74.634846034119704 65.834492973182364 -14.853821636126323 0 0 -1 I I #
straight-curve $-1 0 65.834492973182364 -10.256542321070661 -1 0 0 I I #
point $-1 74.634846034119704 65.834492973182364 -10.256542321070661 #
straight-curve $-1 -74.634846034119704 65.834492973182364 -14.853821636126323 0 0 -1 I I #
point $-1 -74.634846034119704 65.834492973182364 -10.256542321070661 #
point $-1 -74.634846034119704 65.834492973182364 -19.451100951181985 #
straight-curve $-1 74.634846034119704 0 -19.451100951181985 0 -1 0 I I #
straight-curve $-1 74.634846034119704 13.886857001757875 106.94207176496199 0 0 -1 I I #
point $-1 74.634846034119704 13.886857001757875 19.451100951181985 #
straight-curve $-1 74.634846034119704 9.1385292732021135 10.962547357678773 0 1 0 I I #
point $-1 74.634846034119704 13.886857001757875 10.962547357678773 #
point $-1 64.92725304616809 18.277058546404227 11.129907822473895 #
straight-curve $-1 -74.634846034119704 -7.4656787367012178 56.401445044749778 0 0 -1 I I #
point $-1 -74.634846034119704 -7.4656787367012178 19.451100951181985 #
straight-curve $-1 -74.634846034119704 -5.5426686356003572 11.001206214859511 0 -1 0 I I #
point $-1 -74.634846034119704 -7.4656787367012178 11.00120621485951 #
point $-1 -68.269702133116738 -11.085337271200721 12.964509098079411 #
straight-curve $-1 -74.634846034119704 -65.834492973182378 -14.853821636126323 0 0 -1 I I #
straight-curve $-1 74.634846034119704 -65.834492973182378 -14.853821636126323 0 0 -1 I I #
straight-curve $-1 0 65.834492973182364 -19.451100951181985 1 0 0 I I #
point $-1 74.634846034119704 65.834492973182364 -19.451100951181985 #
End-of-ACIS-data 