500 0 9 0           
7 Unknown 11 ACIS 5.0 NT 24 Thu Mar 25 19:23:45 1999 
-1 9.9999999999999995e-007 1e-010 
body $-1 $9 $-1 $10 #
body $-1 $11 $-1 $12 #
body $-1 $13 $-1 $14 #
body $-1 $15 $-1 $16 #
body $-1 $17 $-1 $18 #
body $-1 $19 $-1 $20 #
body $-1 $21 $-1 $22 #
body $-1 $23 $-1 $24 #
body $-1 $25 $-1 $26 #
lump $-1 $-1 $27 $0 #
transform $-1 1 0 0 0 1 0 0 0 1 43.827021088290046 29.332284162978286 11.738642801781269 1 rotate no_reflect no_shear #
lump $-1 $-1 $28 $1 #
transform $-1 1 0 0 0 1 0 0 0 1 43.827021088290046 29.332284162978286 11.738642801781269 1 rotate no_reflect no_shear #
lump $-1 $-1 $29 $2 #
transform $-1 1 0 0 0 1 0 0 0 1 43.827021088290046 29.332284162978286 11.738642801781269 1 rotate no_reflect no_shear #
lump $-1 $-1 $30 $3 #
transform $-1 1 0 0 0 1 0 0 0 1 43.827021088290046 29.332284162978286 11.738642801781269 1 rotate no_reflect no_shear #
lump $-1 $-1 $31 $4 #
transform $-1 1 0 0 0 1 0 0 0 1 43.827021088290046 29.332284162978286 11.738642801781269 1 rotate no_reflect no_shear #
lump $-1 $-1 $32 $5 #
transform $-1 1 0 0 0 1 0 0 0 1 43.827021088290046 29.332284162978286 11.738642801781269 1 rotate no_reflect no_shear #
lump $-1 $-1 $33 $6 #
transform $-1 1 0 0 0 1 0 0 0 1 43.827021088290046 29.332284162978286 11.738642801781269 1 rotate no_reflect no_shear #
lump $-1 $-1 $34 $7 #
transform $-1 1 0 0 0 1 0 0 0 1 43.827021088290046 29.332284162978286 11.738642801781269 1 rotate no_reflect no_shear #
lump $-1 $-1 $35 $8 #
transform $-1 1 0 0 0 1 0 0 0 1 43.827021088290046 29.332284162978286 11.738642801781269 1 rotate no_reflect no_shear #
shell $-1 $-1 $-1 $36 $-1 $9 #
shell $-1 $-1 $-1 $37 $-1 $11 #
shell $-1 $-1 $-1 $38 $-1 $13 #
shell $-1 $-1 $-1 $39 $-1 $15 #
shell $-1 $-1 $-1 $40 $-1 $17 #
shell $-1 $-1 $-1 $41 $-1 $19 #
shell $-1 $-1 $-1 $42 $-1 $21 #
shell $-1 $-1 $-1 $43 $-1 $23 #
shell $-1 $-1 $-1 $44 $-1 $25 #
face $-1 $45 $46 $27 $-1 $47 forward single #
face $-1 $48 $49 $28 $-1 $50 forward single #
face $-1 $51 $52 $29 $-1 $53 reversed single #
face $-1 $54 $55 $30 $-1 $56 forward single #
face $-1 $57 $58 $31 $-1 $59 forward single #
face $-1 $60 $61 $32 $-1 $62 reversed single #
face $-1 $63 $64 $33 $-1 $65 forward single #
face $-1 $66 $67 $34 $-1 $68 forward single #
face $-1 $69 $70 $35 $-1 $71 forward single #
face $-1 $72 $73 $27 $-1 $74 reversed single #
loop $-1 $-1 $75 $36 #
plane-surface $-1 0 0 11.738642801781269 0 0 1 1 0 0 forward_v I I I I #
face $-1 $76 $77 $28 $-1 $78 reversed single #
loop $-1 $-1 $79 $37 #
plane-surface $-1 0 -29.332284162978286 0 0 1 0 0 0 1 forward_v I I I I #
face $-1 $80 $81 $29 $-1 $82 reversed single #
loop $-1 $-1 $83 $38 #
plane-surface $-1 -118.96120050317717 13.171347866284151 53.864875784459116 0 1 0 -0.85716730853699208 0 0.51503806187062418 forward_v I I I I #
face $-1 $84 $85 $30 $-1 $86 forward single #
loop $-1 $87 $88 $39 #
cone-surface $-1 -42.101760280140645 15.219203505746716 9.7375023277126243 0.85716730853699208 0 -0.51503806187062418 0.25751903093531209 0 0.42858365426849604 1 I I 0 1 0.5 forward I I I I #
face $-1 $89 $90 $31 $-1 $91 forward single #
loop $-1 $92 $93 $40 #
cone-surface $-1 -42.101760280140645 18.290986964940554 9.7375023277126243 0.85716730853699208 0 -0.51503806187062418 0.25751903093531209 0 0.42858365426849604 1 I I 0 1 0.5 forward I I I I #
face $-1 $94 $95 $32 $-1 $96 reversed single #
loop $-1 $-1 $97 $41 #
plane-surface $-1 63.218879244260656 3.7521744664418399 124.12617961072716 0 -1 0 -0.80901700255871778 0 -0.5877852410284794 forward_v I I I I #
face $-1 $98 $99 $33 $-1 $100 forward single #
loop $-1 $101 $102 $42 #
cone-surface $-1 39.126054582617492 -6.0810148387960581 5.9512207040844434 -0.80901700255871778 0 -0.5877852410284794 0.5877852410284794 0 -0.80901700255871778 1 I I 0 1 1 forward I I I I #
face $-1 $103 $104 $34 $-1 $105 forward single #
loop $-1 $106 $107 $43 #
cone-surface $-1 39.126054582617492 -2.3935688493318459 5.9512207040844434 -0.80901700255871778 0 -0.5877852410284794 0.5877852410284794 0 -0.80901700255871778 1 I I 0 1 1 forward I I I I #
face $-1 $108 $109 $35 $-1 $110 forward single #
loop $-1 $111 $112 $44 #
cone-surface $-1 39.126054582617492 1.2938771401323663 5.9512207040844434 -0.80901700255871778 0 -0.5877852410284794 0.5877852410284794 0 -0.80901700255871778 1 I I 0 1 1 forward I I I I #
face $-1 $113 $114 $27 $-1 $115 reversed single #
loop $-1 $-1 $116 $45 #
plane-surface $-1 0 0 -11.738642801781269 0 0 1 1 0 0 forward_v I I I I #
coedge $-1 $117 $118 $119 $120 forward $46 $-1 #
face $-1 $121 $122 $28 $-1 $123 reversed single #
loop $-1 $-1 $124 $48 #
plane-surface $-1 0 0 -11.738642801781269 0 0 1 1 0 0 forward_v I I I I #
coedge $-1 $125 $126 $127 $128 forward $49 $-1 #
face $-1 $129 $130 $29 $-1 $131 reversed single #
loop $-1 $-1 $132 $51 #
plane-surface $-1 -43.827021088290024 16.755095235343628 8.7197077867073602 -0.85716730853699208 0 0.51503806187062418 0.51503806187062418 0 0.85716730853699208 forward_v I I I I #
coedge $-1 $133 $134 $135 $136 reversed $52 $-1 #
face $-1 $-1 $137 $30 $-1 $138 forward single #
loop $-1 $139 $140 $54 #
cone-surface $-1 -41.069187194585076 15.219203505746716 9.1170698457132726 0.85716730853699208 0 -0.51503806187062418 0.12875951546765604 0 0.21429182713424802 1 I I -0.70710678118654746 0.70710678118654746 0.25 forward I I I I #
loop $-1 $-1 $141 $39 #
coedge $-1 $88 $88 $142 $143 reversed $55 $-1 #
face $-1 $-1 $144 $31 $-1 $145 forward single #
loop $-1 $146 $147 $57 #
cone-surface $-1 -41.069187194585076 18.290986964940554 9.1170698457132726 0.85716730853699208 0 -0.51503806187062418 0.12875951546765604 0 0.21429182713424802 1 I I -0.70710678118654746 0.70710678118654746 0.25 forward I I I I #
loop $-1 $-1 $148 $40 #
coedge $-1 $93 $93 $149 $150 reversed $58 $-1 #
face $-1 $151 $152 $32 $-1 $153 reversed single #
loop $-1 $-1 $154 $60 #
plane-surface $-1 -7.6947312195915956 -2.3935688493318459 72.604427302845536 0.80901700255871778 0 0.5877852410284794 0.5877852410284794 0 -0.80901700255871778 forward_v I I I I #
coedge $-1 $155 $156 $157 $158 reversed $61 $-1 #
face $-1 $-1 $159 $33 $-1 $160 forward single #
loop $-1 $161 $162 $63 #
cone-surface $-1 37.670665906775106 -6.0810148387960581 4.8938189672673627 -0.80901700255871778 0 -0.5877852410284794 0.2938926205142397 0 -0.40450850127935889 1 I I -0.70710678118654746 0.70710678118654746 0.5 forward I I I I #
loop $-1 $-1 $163 $42 #
coedge $-1 $102 $102 $164 $165 reversed $64 $-1 #
face $-1 $-1 $166 $34 $-1 $167 forward single #
loop $-1 $168 $169 $66 #
cone-surface $-1 37.670665906775106 -2.3935688493318459 4.8938189672673627 -0.80901700255871778 0 -0.5877852410284794 0.2938926205142397 0 -0.40450850127935889 1 I I -0.70710678118654746 0.70710678118654746 0.5 forward I I I I #
loop $-1 $-1 $170 $43 #
coedge $-1 $107 $107 $171 $172 reversed $67 $-1 #
face $-1 $-1 $173 $35 $-1 $174 forward single #
loop $-1 $175 $176 $69 #
cone-surface $-1 37.670665906775106 1.2938771401323663 4.8938189672673627 -0.80901700255871778 0 -0.5877852410284794 0.2938926205142397 0 -0.40450850127935889 1 I I -0.70710678118654746 0.70710678118654746 0.5 forward I I I I #
loop $-1 $-1 $177 $44 #
coedge $-1 $112 $112 $178 $179 reversed $70 $-1 #
face $-1 $180 $181 $27 $-1 $182 reversed single #
loop $-1 $-1 $183 $72 #
plane-surface $-1 0 -29.332284162978286 0 0 1 0 0 0 1 forward_v I I I I #
coedge $-1 $184 $185 $186 $187 forward $73 $-1 #
coedge $-1 $188 $75 $189 $190 forward $46 $-1 #
coedge $-1 $75 $188 $191 $192 forward $46 $-1 #
coedge $-1 $193 $194 $75 $120 reversed $195 $-1 #
edge $-1 $196 -29.332284162978286 $197 29.332284162978286 $119 $198 forward 7 unknown #
face $-1 $199 $200 $28 $-1 $201 forward single #
loop $-1 $-1 $202 $76 #
plane-surface $-1 43.827021088290046 0 0 -1 0 0 0 0 1 forward_v I I I I #
coedge $-1 $203 $204 $205 $206 forward $77 $-1 #
coedge $-1 $205 $79 $202 $207 reversed $49 $-1 #
coedge $-1 $79 $205 $208 $209 reversed $49 $-1 #
coedge $-1 $210 $211 $79 $128 reversed $200 $-1 #
edge $-1 $212 -43.827021088290046 $213 43.827021088290046 $127 $214 forward 7 unknown #
face $-1 $215 $216 $29 $-1 $217 forward single #
loop $-1 $-1 $218 $80 #
plane-surface $-1 -118.96120050317717 20.338842604403105 53.864875784459116 0 -1 0 0.85716730853699208 0 -0.51503806187062418 forward_v I I I I #
coedge $-1 $219 $220 $221 $222 reversed $81 $-1 #
coedge $-1 $134 $83 $223 $224 reversed $52 $-1 #
coedge $-1 $83 $133 $219 $225 reversed $52 $-1 #
coedge $-1 $221 $226 $83 $136 forward $216 $-1 #
edge $-1 $227 15.653579163298538 $228 17.467538262754729 $135 $229 forward 7 unknown #
loop $-1 $-1 $142 $84 #
plane-surface $-1 -43.827021088290024 16.755095235343628 8.7197077867073602 -0.85716730853699208 0 0.51503806187062418 0.51503806187062418 0 0.85716730853699208 forward_v I I I I #
loop $-1 $-1 $230 $54 #
coedge $-1 $140 $140 $141 $231 reversed $85 $-1 #
coedge $-1 $141 $141 $140 $231 forward $87 $-1 #
coedge $-1 $142 $142 $88 $143 forward $137 $-1 #
edge $-1 $232 0 $232 6.2831853071796004 $142 $233 forward 7 unknown #
loop $-1 $-1 $149 $89 #
plane-surface $-1 -43.827021088290024 16.755095235343628 8.7197077867073602 -0.85716730853699208 0 0.51503806187062418 0.51503806187062418 0 0.85716730853699208 forward_v I I I I #
loop $-1 $-1 $234 $57 #
coedge $-1 $147 $147 $148 $235 reversed $90 $-1 #
coedge $-1 $148 $148 $147 $235 forward $92 $-1 #
coedge $-1 $149 $149 $93 $150 forward $144 $-1 #
edge $-1 $236 0 $236 6.2831853071796004 $149 $237 forward 7 unknown #
face $-1 $238 $239 $32 $-1 $240 reversed single #
loop $-1 $-1 $241 $94 #
plane-surface $-1 63.218879244260656 -8.5393121651055317 124.12617961072716 0 1 0 0.80901700255871778 0 0.5877852410284794 forward_v I I I I #
coedge $-1 $242 $243 $244 $245 reversed $95 $-1 #
coedge $-1 $156 $97 $246 $247 reversed $61 $-1 #
coedge $-1 $97 $155 $242 $248 reversed $61 $-1 #
coedge $-1 $244 $249 $97 $158 forward $250 $-1 #
edge $-1 $251 -12.217581466159718 $252 -4.9174088039406563 $157 $253 forward 7 unknown #
loop $-1 $-1 $164 $98 #
plane-surface $-1 -7.6947312195915956 -2.3935688493318459 72.604427302845536 0.80901700255871778 0 0.5877852410284794 0.5877852410284794 0 -0.80901700255871778 forward_v I I I I #
loop $-1 $-1 $254 $63 #
coedge $-1 $162 $162 $163 $255 reversed $99 $-1 #
coedge $-1 $163 $163 $162 $255 forward $101 $-1 #
coedge $-1 $164 $164 $102 $165 forward $159 $-1 #
edge $-1 $256 0 $256 6.2831853071796004 $164 $257 forward 7 unknown #
loop $-1 $-1 $171 $103 #
plane-surface $-1 -7.6947312195915956 -2.3935688493318459 72.604427302845536 0.80901700255871778 0 0.5877852410284794 0.5877852410284794 0 -0.80901700255871778 forward_v I I I I #
loop $-1 $-1 $258 $66 #
coedge $-1 $169 $169 $170 $259 reversed $104 $-1 #
coedge $-1 $170 $170 $169 $259 forward $106 $-1 #
coedge $-1 $171 $171 $107 $172 forward $166 $-1 #
edge $-1 $260 0 $260 6.2831853071796004 $171 $261 forward 7 unknown #
loop $-1 $-1 $178 $108 #
plane-surface $-1 -7.6947312195915956 -2.3935688493318459 72.604427302845536 0.80901700255871778 0 0.5877852410284794 0.5877852410284794 0 -0.80901700255871778 forward_v I I I I #
loop $-1 $-1 $262 $69 #
coedge $-1 $176 $176 $177 $263 reversed $109 $-1 #
coedge $-1 $177 $177 $176 $263 forward $111 $-1 #
coedge $-1 $178 $178 $112 $179 forward $173 $-1 #
edge $-1 $264 0 $264 6.2831853071796004 $178 $265 forward 7 unknown #
face $-1 $266 $267 $27 $-1 $268 reversed single #
loop $-1 $-1 $269 $113 #
plane-surface $-1 -43.827021088290046 0 0 1 0 0 0 0 -1 forward_v I I I I #
coedge $-1 $270 $191 $271 $272 forward $114 $-1 #
coedge $-1 $273 $116 $270 $274 forward $73 $-1 #
coedge $-1 $116 $273 $275 $276 forward $73 $-1 #
coedge $-1 $194 $193 $116 $187 reversed $195 $-1 #
edge $-1 $277 -29.332284162978286 $278 29.332284162978286 $186 $279 forward 7 unknown #
coedge $-1 $118 $117 $280 $281 forward $46 $-1 #
coedge $-1 $282 $283 $117 $190 reversed $267 $-1 #
edge $-1 $197 -43.827021088290046 $284 43.827021088290046 $189 $285 forward 7 unknown #
coedge $-1 $183 $286 $118 $192 reversed $114 $-1 #
edge $-1 $287 -43.827021088290046 $196 43.827021088290046 $191 $288 forward 7 unknown #
coedge $-1 $186 $119 $286 $289 forward $195 $-1 #
coedge $-1 $119 $186 $282 $290 reversed $195 $-1 #
loop $-1 $-1 $193 $266 #
vertex $-1 $120 $291 #
vertex $-1 $120 $292 #
straight-curve $-1 43.827021088290046 0 11.738642801781269 0 1 0 I I #
face $-1 $293 $294 $28 $-1 $295 reversed single #
loop $-1 $-1 $211 $121 #
plane-surface $-1 0 -36.091341452905937 -5.6273263078823259 0 0 1 1 0 0 forward_v I I I I #
coedge $-1 $296 $297 $125 $207 forward $122 $-1 #
coedge $-1 $298 $124 $297 $299 forward $77 $-1 #
coedge $-1 $124 $298 $300 $301 forward $77 $-1 #
coedge $-1 $126 $125 $124 $206 reversed $49 $-1 #
edge $-1 $302 -43.827021088290046 $303 43.827021088290046 $124 $304 forward 7 unknown #
edge $-1 $303 -11.738642801781269 $213 -5.6273263078823259 $202 $305 forward 7 unknown #
coedge $-1 $300 $306 $126 $209 forward $307 $-1 #
edge $-1 $212 5.6273263078823259 $302 11.738642801781269 $208 $308 forward 7 unknown #
coedge $-1 $309 $127 $306 $310 forward $200 $-1 #
coedge $-1 $127 $309 $296 $311 forward $200 $-1 #
vertex $-1 $209 $312 #
vertex $-1 $311 $313 #
straight-curve $-1 0 -29.332284162978286 -5.6273263078823259 1 0 0 I I #
face $-1 $-1 $314 $29 $-1 $315 reversed single #
loop $-1 $-1 $135 $129 #
plane-surface $-1 0 0 11.738642801781269 0 0 1 1 0 0 forward_v I I I I #
coedge $-1 $316 $317 $318 $319 reversed $130 $-1 #
coedge $-1 $320 $132 $134 $225 forward $81 $-1 #
coedge $-1 $132 $320 $316 $321 forward $81 $-1 #
coedge $-1 $318 $135 $132 $222 forward $216 $-1 #
edge $-1 $228 4.793800248612337 $322 11.961294986731291 $221 $323 forward 7 unknown #
coedge $-1 $324 $325 $133 $224 forward $314 $-1 #
edge $-1 $326 -18.212730105522233 $227 -15.193795090448289 $223 $327 forward 7 unknown #
edge $-1 $228 -3.5219903804154762 $326 4.1431396825663817e-014 $134 $328 forward 7 unknown #
coedge $-1 $135 $318 $324 $329 forward $216 $-1 #
vertex $-1 $224 $330 #
vertex $-1 $136 $331 #
straight-curve $-1 -59.480600251588584 13.171347866284151 11.738642801781268 1 0 0 I I #
coedge $-1 $230 $230 $-1 $332 reversed $139 $-1 #
edge $-1 $333 0 $333 6.2831853071796004 $140 $334 forward 7 unknown #
vertex $-1 $143 $335 #
ellipse-curve $-1 -42.920041538561946 15.219203505746716 10.229175294244307 -0.85716730853699208 0 0.51503806187062418 0.25751903093531209 0 0.42858365426849604 1 I I #
coedge $-1 $234 $234 $-1 $336 reversed $146 $-1 #
edge $-1 $337 0 $337 6.2831853071796004 $147 $338 forward 7 unknown #
vertex $-1 $150 $339 #
ellipse-curve $-1 -42.920041538561946 18.290986964940554 10.229175294244307 -0.85716730853699208 0 0.51503806187062418 0.25751903093531209 0 0.42858365426849604 1 I I #
face $-1 $-1 $250 $32 $-1 $340 forward single #
loop $-1 $-1 $341 $151 #
plane-surface $-1 43.827021088290046 0 0 -1 0 0 0 0 1 forward_v I I I I #
coedge $-1 $342 $343 $344 $345 reversed $152 $-1 #
coedge $-1 $346 $154 $156 $248 forward $95 $-1 #
coedge $-1 $154 $346 $342 $347 forward $95 $-1 #
coedge $-1 $344 $157 $154 $245 forward $250 $-1 #
edge $-1 $252 -4.9489588911077629 $348 7.3425277404396088 $244 $349 forward 7 unknown #
coedge $-1 $350 $351 $155 $247 forward $239 $-1 #
edge $-1 $352 -60.372272966370325 $251 -50.324447003582314 $246 $353 forward 7 unknown #
edge $-1 $252 75.234246386121754 $352 87.65404217658012 $156 $354 forward 7 unknown #
coedge $-1 $157 $344 $350 $355 forward $250 $-1 #
loop $-1 $-1 $344 $238 #
vertex $-1 $247 $356 #
vertex $-1 $158 $357 #
straight-curve $-1 31.609439622130328 3.7521744664418399 11.738642801781268 -1 0 0 I I #
coedge $-1 $254 $254 $-1 $358 reversed $161 $-1 #
edge $-1 $359 0 $359 6.2831853071796004 $162 $360 forward 7 unknown #
vertex $-1 $165 $361 #
ellipse-curve $-1 40.176934757180504 -6.0810148387960581 6.7147298203872747 0.80901700255871778 0 0.5877852410284794 0.5877852410284794 0 -0.80901700255871778 1 I I #
coedge $-1 $258 $258 $-1 $362 reversed $168 $-1 #
edge $-1 $363 0 $363 6.2831853071796004 $169 $364 forward 7 unknown #
vertex $-1 $172 $365 #
ellipse-curve $-1 40.176934757180504 -2.3935688493318459 6.7147298203872747 0.80901700255871778 0 0.5877852410284794 0.5877852410284794 0 -0.80901700255871778 1 I I #
coedge $-1 $262 $262 $-1 $366 reversed $175 $-1 #
edge $-1 $367 0 $367 6.2831853071796004 $176 $368 forward 7 unknown #
vertex $-1 $179 $369 #
ellipse-curve $-1 40.176934757180504 1.2938771401323663 6.7147298203872747 0.80901700255871778 0 0.5877852410284794 0.5877852410284794 0 -0.80901700255871778 1 I I #
face $-1 $-1 $195 $27 $-1 $370 reversed single #
loop $-1 $-1 $282 $180 #
plane-surface $-1 0 29.332284162978286 0 0 -1 0 0 0 -1 forward_v I I I I #
coedge $-1 $371 $280 $283 $372 forward $181 $-1 #
coedge $-1 $286 $183 $184 $274 reversed $114 $-1 #
coedge $-1 $280 $371 $183 $272 reversed $181 $-1 #
edge $-1 $287 -11.738642801781269 $373 11.738642801781269 $271 $374 forward 7 unknown #
coedge $-1 $185 $184 $371 $375 forward $73 $-1 #
edge $-1 $278 -43.827021088290046 $373 43.827021088290046 $270 $376 forward 7 unknown #
coedge $-1 $283 $282 $185 $276 reversed $267 $-1 #
edge $-1 $377 -43.827021088290046 $277 43.827021088290046 $275 $378 forward 7 unknown #
vertex $-1 $187 $379 #
vertex $-1 $289 $380 #
straight-curve $-1 43.827021088290046 0 -11.738642801781269 0 -1 0 I I #
coedge $-1 $269 $271 $188 $281 reversed $181 $-1 #
edge $-1 $284 -29.332284162978286 $287 29.332284162978286 $280 $381 forward 7 unknown #
coedge $-1 $275 $189 $194 $290 forward $267 $-1 #
coedge $-1 $189 $275 $269 $372 reversed $267 $-1 #
vertex $-1 $190 $382 #
straight-curve $-1 0 29.332284162978286 11.738642801781269 -1 0 0 I I #
coedge $-1 $191 $270 $193 $289 reversed $114 $-1 #
vertex $-1 $281 $383 #
straight-curve $-1 0 -29.332284162978286 11.738642801781269 1 0 0 I I #
edge $-1 $196 -11.738642801781269 $278 11.738642801781269 $193 $384 forward 7 unknown #
edge $-1 $197 -11.738642801781269 $277 11.738642801781269 $194 $385 forward 7 unknown #
point $-1 43.827021088290046 -29.332284162978286 11.738642801781269 #
point $-1 43.827021088290046 29.332284162978286 11.738642801781269 #
face $-1 $-1 $307 $28 $-1 $386 reversed single #
loop $-1 $-1 $387 $199 #
plane-surface $-1 0 -42.85039874283359 -8.6829845548317977 0 1 0 0 0 1 forward_v I I I I #
coedge $-1 $388 $202 $211 $311 reversed $122 $-1 #
coedge $-1 $202 $388 $203 $299 reversed $122 $-1 #
coedge $-1 $204 $203 $389 $390 forward $77 $-1 #
edge $-1 $303 29.332284162978286 $391 42.85039874283359 $297 $392 forward 7 unknown #
coedge $-1 $393 $208 $204 $301 reversed $307 $-1 #
edge $-1 $394 -42.85039874283359 $302 -29.332284162978286 $300 $395 forward 7 unknown #
vertex $-1 $209 $396 #
vertex $-1 $299 $397 #
straight-curve $-1 0 -29.332284162978286 -11.738642801781269 1 0 0 I I #
straight-curve $-1 43.827021088290046 -29.332284162978286 0 0 0 1 I I #
coedge $-1 $208 $393 $210 $310 reversed $307 $-1 #
loop $-1 $-1 $208 $293 #
straight-curve $-1 -43.827021088290046 -29.332284162978286 0 0 0 -1 I I #
coedge $-1 $211 $210 $398 $399 forward $200 $-1 #
edge $-1 $212 -6.7590572899276538 $400 6.7590572899276538 $306 $401 forward 7 unknown #
edge $-1 $402 -6.7590572899276538 $213 6.7590572899276538 $296 $403 forward 7 unknown #
point $-1 -43.827021088290046 -29.332284162978283 -5.6273263078823259 #
point $-1 43.827021088290046 -29.332284162978283 -5.6273263078823259 #
loop $-1 $-1 $223 $215 #
plane-surface $-1 -43.827021088290046 0 0 1 0 0 0 0 -1 forward_v I I I I #
coedge $-1 $317 $218 $220 $321 reversed $130 $-1 #
coedge $-1 $218 $316 $404 $405 reversed $130 $-1 #
coedge $-1 $226 $221 $218 $319 forward $216 $-1 #
edge $-1 $322 -17.467538262754729 $406 -15.653579163298538 $318 $407 forward 7 unknown #
coedge $-1 $220 $219 $325 $408 reversed $81 $-1 #
edge $-1 $409 -4.1431396825663817e-014 $322 3.5219903804154762 $316 $410 forward 7 unknown #
vertex $-1 $222 $411 #
straight-curve $-1 -42.013061988833854 8.377547617671814 11.738642801781269 0 1 0 I I #
coedge $-1 $404 $223 $226 $329 reversed $314 $-1 #
coedge $-1 $223 $404 $320 $408 forward $314 $-1 #
vertex $-1 $224 $412 #
straight-curve $-1 -43.827021088290046 13.171347866284151 26.932437892229558 0 0 1 I I #
straight-curve $-1 -43.827021088290024 13.171347866284151 8.7197077867073602 -0.51503806187062418 0 -0.85716730853699208 I I #
edge $-1 $406 -20.338842604403105 $227 -13.171347866284151 $324 $413 forward 7 unknown #
point $-1 -43.827021088290046 13.171347866284151 11.738642801781269 #
point $-1 -42.013061988833854 13.171347866284151 11.738642801781269 #
edge $-1 $414 1 $414 0 $230 $-1 forward 7 unknown #
vertex $-1 $231 $415 #
ellipse-curve $-1 -41.283479021719323 15.219203505746716 9.2458293611809292 -0.85716730853699208 0 0.51503806187062418 0.25751903093531209 0 0.42858365426849604 1 I I #
point $-1 -42.662522507626655 15.219203505746716 10.657758948512816 #
edge $-1 $416 1 $416 0 $234 $-1 forward 7 unknown #
vertex $-1 $235 $417 #
ellipse-curve $-1 -41.283479021719323 18.290986964940554 9.2458293611809292 -0.85716730853699208 0 0.51503806187062418 0.25751903093531209 0 0.42858365426849604 1 I I #
point $-1 -42.662522507626655 18.290986964940554 10.657758948512816 #
plane-surface $-1 0 0 11.738642801781269 0 0 1 1 0 0 forward_v I I I I #
coedge $-1 $351 $350 $343 $418 forward $239 $-1 #
coedge $-1 $343 $241 $243 $347 reversed $152 $-1 #
coedge $-1 $241 $342 $341 $418 reversed $152 $-1 #
coedge $-1 $249 $244 $241 $345 forward $250 $-1 #
edge $-1 $348 4.9174088039406563 $419 12.217581466159718 $344 $420 forward 7 unknown #
coedge $-1 $243 $242 $351 $421 reversed $95 $-1 #
edge $-1 $422 -87.65404217658012 $348 -75.234246386121754 $342 $423 forward 7 unknown #
vertex $-1 $245 $424 #
straight-curve $-1 36.526848426070984 -1.1967844246659229 11.738642801781268 0 -1 0 I I #
coedge $-1 $341 $246 $249 $355 reversed $239 $-1 #
coedge $-1 $246 $341 $346 $421 forward $239 $-1 #
vertex $-1 $247 $425 #
straight-curve $-1 43.827021088290046 3.7521744664418399 62.063089805363582 0 0 1 I I #
straight-curve $-1 -7.6947312195915956 3.7521744664418399 72.604427302845536 0.5877852410284794 0 -0.80901700255871778 I I #
edge $-1 $419 -8.5393121651055317 $251 3.7521744664418399 $350 $426 forward 7 unknown #
point $-1 43.827021088290046 3.7521744664418399 11.738642801781269 #
point $-1 36.526848426070984 3.7521744664418399 11.738642801781268 #
edge $-1 $427 1 $427 0 $254 $-1 forward 7 unknown #
vertex $-1 $255 $428 #
ellipse-curve $-1 38.075174408054465 -6.0810148387960581 5.1877115877816022 0.80901700255871778 0 0.5877852410284794 0.5877852410284794 0 -0.80901700255871778 1 I I #
point $-1 40.764719998209003 -6.0810148387960581 5.9057128178285652 #
edge $-1 $429 1 $429 0 $258 $-1 forward 7 unknown #
vertex $-1 $259 $430 #
ellipse-curve $-1 38.075174408054465 -2.3935688493318459 5.1877115877816022 0.80901700255871778 0 0.5877852410284794 0.5877852410284794 0 -0.80901700255871778 1 I I #
point $-1 40.764719998209003 -2.3935688493318459 5.9057128178285652 #
edge $-1 $431 1 $431 0 $262 $-1 forward 7 unknown #
vertex $-1 $263 $432 #
ellipse-curve $-1 38.075174408054465 1.2938771401323663 5.1877115877816022 0.80901700255871778 0 0.5877852410284794 0.5877852410284794 0 -0.80901700255871778 1 I I #
point $-1 40.764719998209003 1.2938771401323663 5.9057128178285652 #
plane-surface $-1 43.827021088290046 0 0 -1 0 0 0 0 1 forward_v I I I I #
coedge $-1 $271 $269 $273 $375 reversed $181 $-1 #
edge $-1 $284 -11.738642801781269 $377 11.738642801781269 $283 $433 forward 7 unknown #
vertex $-1 $375 $434 #
straight-curve $-1 -43.827021088290046 -29.332284162978286 0 0 0 -1 I I #
edge $-1 $373 -29.332284162978286 $377 29.332284162978286 $371 $435 forward 7 unknown #
straight-curve $-1 0 -29.332284162978286 -11.738642801781269 -1 0 0 I I #
vertex $-1 $276 $436 #
straight-curve $-1 0 29.332284162978286 -11.738642801781269 1 0 0 I I #
point $-1 43.827021088290046 29.332284162978286 -11.738642801781269 #
point $-1 43.827021088290046 -29.332284162978286 -11.738642801781269 #
straight-curve $-1 -43.827021088290046 0 11.738642801781269 0 -1 0 I I #
point $-1 -43.827021088290046 29.332284162978286 11.738642801781269 #
point $-1 -43.827021088290046 -29.332284162978286 11.738642801781269 #
straight-curve $-1 43.827021088290046 -29.332284162978286 0 0 0 -1 I I #
straight-curve $-1 43.827021088290046 29.332284162978286 0 0 0 -1 I I #
plane-surface $-1 -43.827021088290046 0 0 1 0 0 0 0 -1 forward_v I I I I #
coedge $-1 $389 $398 $393 $437 forward $294 $-1 #
coedge $-1 $297 $296 $438 $439 forward $122 $-1 #
coedge $-1 $438 $387 $298 $390 reversed $294 $-1 #
edge $-1 $391 -43.827021088290046 $394 43.827021088290046 $389 $440 forward 7 unknown #
vertex $-1 $439 $441 #
straight-curve $-1 43.827021088290046 0 -11.738642801781269 0 -1 0 I I #
coedge $-1 $306 $300 $387 $437 reversed $307 $-1 #
vertex $-1 $301 $442 #
straight-curve $-1 -43.827021088290046 0 -11.738642801781269 0 1 0 I I #
point $-1 -43.827021088290046 -29.332284162978286 -11.738642801781269 #
point $-1 43.827021088290046 -29.332284162978286 -11.738642801781269 #
coedge $-1 $387 $438 $309 $399 reversed $294 $-1 #
edge $-1 $400 -43.827021088290046 $402 43.827021088290046 $398 $443 forward 7 unknown #
vertex $-1 $310 $444 #
straight-curve $-1 -43.827021088290046 -36.091341452905937 -5.6273263078823259 0 -1 0 I I #
vertex $-1 $311 $445 #
straight-curve $-1 43.827021088290046 -36.091341452905937 -5.6273263078823259 0 1 0 I I #
coedge $-1 $325 $324 $317 $405 forward $314 $-1 #
edge $-1 $406 15.193795090448289 $409 18.212730105522233 $404 $446 forward 7 unknown #
vertex $-1 $329 $447 #
straight-curve $-1 -59.480600251588584 20.338842604403105 11.738642801781268 -1 0 0 I I #
edge $-1 $409 -11.961294986731291 $326 -4.793800248612337 $325 $448 forward 7 unknown #
vertex $-1 $408 $449 #
straight-curve $-1 -43.827021088290024 20.338842604403105 8.7197077867073602 0.51503806187062418 0 0.85716730853699208 I I #
point $-1 -42.013061988833854 20.338842604403105 11.738642801781269 #
point $-1 -43.827021088290046 13.171347866284151 8.7197077867073247 #
straight-curve $-1 -43.827021088290046 0 11.738642801781269 0 -1 0 I I #
vertex $-1 $332 $450 #
point $-1 -41.02595999078401 15.219203505746716 9.6744130154494243 #
vertex $-1 $336 $451 #
point $-1 -41.02595999078401 18.290986964940554 9.6744130154494243 #
edge $-1 $419 50.324447003582314 $422 60.372272966370325 $341 $452 forward 7 unknown #
vertex $-1 $355 $453 #
straight-curve $-1 31.609439622130328 -8.5393121651055317 11.738642801781268 1 0 0 I I #
edge $-1 $422 -7.3425277404396088 $352 4.9489588911077629 $351 $454 forward 7 unknown #
vertex $-1 $421 $455 #
straight-curve $-1 -7.6947312195915956 -8.5393121651055317 72.604427302845536 -0.5877852410284794 0 0.80901700255871778 I I #
point $-1 36.526848426070984 -8.5393121651055317 11.738642801781268 #
point $-1 43.827021088290046 3.7521744664418399 1.690816838993257 #
straight-curve $-1 43.827021088290046 0 11.738642801781269 0 1 0 I I #
vertex $-1 $358 $456 #
point $-1 38.662959649082943 -6.0810148387960581 4.3786945852228847 #
vertex $-1 $362 $457 #
point $-1 38.662959649082943 -2.3935688493318459 4.3786945852228847 #
vertex $-1 $366 $458 #
point $-1 38.662959649082943 1.2938771401323663 4.3786945852228847 #
straight-curve $-1 -43.827021088290046 29.332284162978286 0 0 0 -1 I I #
point $-1 -43.827021088290046 -29.332284162978286 -11.738642801781269 #
straight-curve $-1 -43.827021088290046 0 -11.738642801781269 0 1 0 I I #
point $-1 -43.827021088290046 29.332284162978286 -11.738642801781269 #
edge $-1 $400 -3.0556582469494717 $394 3.0556582469494717 $393 $459 forward 7 unknown #
coedge $-1 $398 $389 $388 $439 reversed $294 $-1 #
edge $-1 $402 -3.0556582469494717 $391 3.0556582469494717 $388 $460 forward 7 unknown #
straight-curve $-1 0 -42.85039874283359 -11.738642801781269 -1 0 0 I I #
point $-1 43.827021088290046 -42.85039874283359 -11.738642801781269 #
point $-1 -43.827021088290046 -42.85039874283359 -11.738642801781269 #
straight-curve $-1 0 -42.85039874283359 -5.6273263078823259 1 0 0 I I #
point $-1 -43.827021088290046 -42.85039874283359 -5.6273263078823259 #
point $-1 43.827021088290046 -42.85039874283359 -5.6273263078823259 #
straight-curve $-1 -43.827021088290046 20.338842604403105 26.932437892229558 0 0 -1 I I #
point $-1 -43.827021088290046 20.338842604403105 11.738642801781269 #
straight-curve $-1 -43.827021088290046 8.377547617671814 8.7197077867073354 0 -1 0 I I #
point $-1 -43.827021088290046 20.338842604403105 8.7197077867073247 #
point $-1 -40.85489536745083 15.219203505746716 8.988310330245616 #
point $-1 -40.85489536745083 18.290986964940554 8.988310330245616 #
straight-curve $-1 43.827021088290046 -8.5393121651055317 62.063089805363582 0 0 -1 I I #
point $-1 43.827021088290046 -8.5393121651055317 11.738642801781269 #
straight-curve $-1 43.827021088290046 -1.1967844246659229 1.6908168389932641 0 1 0 I I #
point $-1 43.827021088290046 -8.5393121651055317 1.690816838993257 #
point $-1 37.266157405495747 -6.0810148387960581 4.5999263467531231 #
point $-1 37.266157405495747 -2.3935688493318459 4.5999263467531231 #
point $-1 37.266157405495747 1.2938771401323663 4.5999263467531231 #
straight-curve $-1 -43.827021088290046 -42.85039874283359 -8.6829845548317977 0 0 -1 I I #
straight-curve $-1 43.827021088290046 -42.85039874283359 -8.6829845548317977 0 0 -1 I I #
End-of-ACIS-data 