500 0 7 0           
7 Unknown 11 ACIS 5.0 NT 24 Fri Mar 26 18:38:15 1999 
-1 9.9999999999999995e-007 1e-010 
body $-1 $7 $-1 $8 #
body $-1 $9 $-1 $10 #
body $-1 $11 $-1 $12 #
body $-1 $13 $-1 $14 #
body $-1 $15 $-1 $16 #
body $-1 $17 $-1 $18 #
body $-1 $19 $-1 $20 #
lump $-1 $-1 $21 $0 #
transform $-1 1 0 0 0 1 0 0 0 1 41.579638050477612 24.150375543964348 7.5868750808575767 1 rotate no_reflect no_shear #
lump $-1 $-1 $22 $1 #
transform $-1 1 0 0 0 1 0 0 0 1 41.579638050477612 24.150375543964348 7.5868750808575767 1 rotate no_reflect no_shear #
lump $-1 $-1 $23 $2 #
transform $-1 1 0 0 0 1 0 0 0 1 41.579638050477612 24.150375543964348 7.5868750808575767 1 rotate no_reflect no_shear #
lump $-1 $-1 $24 $3 #
transform $-1 1 0 0 0 1 0 0 0 1 41.579638050477612 24.150375543964348 7.5868750808575767 1 rotate no_reflect no_shear #
lump $-1 $-1 $25 $4 #
transform $-1 1 0 0 0 1 0 0 0 1 41.579638050477612 24.150375543964348 7.5868750808575767 1 rotate no_reflect no_shear #
lump $-1 $-1 $26 $5 #
transform $-1 1 0 0 0 1 0 0 0 1 41.579638050477612 24.150375543964348 7.5868750808575767 1 rotate no_reflect no_shear #
lump $-1 $-1 $27 $6 #
transform $-1 1 0 0 0 1 0 0 0 1 41.579638050477612 24.150375543964348 7.5868750808575767 1 rotate no_reflect no_shear #
shell $-1 $-1 $-1 $28 $-1 $7 #
shell $-1 $-1 $-1 $29 $-1 $9 #
shell $-1 $-1 $-1 $30 $-1 $11 #
shell $-1 $-1 $-1 $31 $-1 $13 #
shell $-1 $-1 $-1 $32 $-1 $15 #
shell $-1 $-1 $-1 $33 $-1 $17 #
shell $-1 $-1 $-1 $34 $-1 $19 #
face $-1 $35 $36 $21 $-1 $37 forward single #
face $-1 $38 $39 $22 $-1 $40 reversed single #
face $-1 $41 $42 $23 $-1 $43 reversed single #
face $-1 $44 $45 $24 $-1 $46 forward single #
face $-1 $47 $48 $25 $-1 $49 forward single #
face $-1 $50 $51 $26 $-1 $52 reversed single #
face $-1 $53 $54 $27 $-1 $55 forward single #
face $-1 $56 $57 $21 $-1 $58 reversed single #
loop $-1 $-1 $59 $28 #
plane-surface $-1 0 0 7.5868750808575767 0 0 1 1 0 0 forward_v I I I I #
face $-1 $60 $61 $22 $-1 $62 reversed single #
loop $-1 $-1 $63 $29 #
plane-surface $-1 -34.767978566362608 -20.721632214246249 0 1 0 0 0 0 -1 forward_v I I I I #
face $-1 $64 $65 $23 $-1 $66 reversed single #
loop $-1 $-1 $67 $30 #
plane-surface $-1 51.829588603576795 6.460569051361885 119.09036075427606 0 -1 0 -0.7660444514056185 0 -0.64278759981090561 forward_v I I I I #
face $-1 $68 $69 $24 $-1 $70 forward single #
loop $-1 $71 $72 $31 #
cone-surface $-1 38.666485044157326 -0.081059033914410605 4.305911499793905 -0.7660444514056185 0 -0.64278759981090561 0.3213937999054528 0 -0.38302222570280925 1 I I 0 1 0.5 forward I I I I #
face $-1 $73 $74 $25 $-1 $75 forward single #
loop $-1 $76 $77 $32 #
cone-surface $-1 38.666485044157326 3.8439178172513664 4.305911499793905 -0.7660444514056185 0 -0.64278759981090561 0.3213937999054528 0 -0.38302222570280925 1 I I 0 1 0.5 forward I I I I #
face $-1 $78 $79 $26 $-1 $80 reversed single #
loop $-1 $-1 $81 $33 #
plane-surface $-1 -102.39848313816054 14.580795474026448 58.765823378770683 0 1 0 -0.73135370988377701 0 0.68199835119979291 forward_v I I I I #
face $-1 $82 $83 $27 $-1 $84 forward single #
loop $-1 $85 $86 $34 #
cone-surface $-1 -38.631500454899204 19.365585508995398 4.4767317644768401 0.73135370988377701 0 -0.68199835119979291 0.68199835119979291 0 0.73135370988377701 1 I I 0 1 1 forward I I I I #
face $-1 $87 $88 $21 $-1 $89 reversed single #
loop $-1 $-1 $90 $35 #
plane-surface $-1 0 0 -7.5868750808575767 0 0 1 1 0 0 forward_v I I I I #
coedge $-1 $91 $92 $93 $94 forward $36 $-1 #
face $-1 $95 $96 $22 $-1 $97 reversed single #
loop $-1 $-1 $98 $38 #
plane-surface $-1 -32.621763740867657 -17.29288888452815 0 0 -1 0 0 0 -1 forward_v I I I I #
coedge $-1 $99 $100 $101 $102 forward $39 $-1 #
face $-1 $103 $104 $23 $-1 $105 reversed single #
loop $-1 $-1 $106 $41 #
plane-surface $-1 -11.874113436467809 1.8814293916684797 65.636609267330641 0.7660444514056185 0 0.64278759981090561 0.64278759981090561 0 -0.7660444514056185 forward_v I I I I #
coedge $-1 $107 $108 $109 $110 reversed $42 $-1 #
face $-1 $-1 $111 $24 $-1 $112 forward single #
loop $-1 $113 $114 $44 #
cone-surface $-1 37.933942033190689 -0.081059033914410605 3.691234945563278 -0.7660444514056185 0 -0.64278759981090561 0.1606968999527264 0 -0.19151111285140462 1 I I -0.70710678118654813 0.70710678118654691 0.25 forward I I I I #
loop $-1 $-1 $115 $31 #
coedge $-1 $72 $72 $116 $117 reversed $45 $-1 #
face $-1 $-1 $118 $25 $-1 $119 forward single #
loop $-1 $120 $121 $47 #
cone-surface $-1 37.933942033190689 3.8439178172513664 3.691234945563278 -0.7660444514056185 0 -0.64278759981090561 0.1606968999527264 0 -0.19151111285140462 1 I I -0.70710678118654813 0.70710678118654691 0.25 forward I I I I #
loop $-1 $-1 $122 $32 #
coedge $-1 $77 $77 $123 $124 reversed $48 $-1 #
face $-1 $125 $126 $26 $-1 $127 forward single #
loop $-1 $-1 $128 $50 #
plane-surface $-1 -41.579638050477627 19.365585508995398 2.0513341909508753 -0.73135370988377701 0 0.68199835119979291 0.68199835119979291 0 0.73135370988377701 forward_v I I I I #
coedge $-1 $129 $130 $131 $132 reversed $51 $-1 #
face $-1 $-1 $133 $27 $-1 $134 forward single #
loop $-1 $135 $136 $53 #
cone-surface $-1 -37.898673636557149 19.365585508995398 3.7933597174495626 0.73135370988377701 0 -0.68199835119979291 0.34099917559989645 0 0.36567685494188851 1 I I -0.70710678118654746 0.70710678118654746 0.5 forward I I I I #
loop $-1 $-1 $137 $34 #
coedge $-1 $86 $86 $138 $139 reversed $54 $-1 #
face $-1 $140 $141 $21 $-1 $142 reversed single #
loop $-1 $-1 $143 $56 #
plane-surface $-1 0 -24.150375543964348 0 0 1 0 0 0 1 forward_v I I I I #
coedge $-1 $144 $145 $146 $147 forward $57 $-1 #
coedge $-1 $148 $59 $149 $150 forward $36 $-1 #
coedge $-1 $59 $148 $151 $152 forward $36 $-1 #
coedge $-1 $153 $154 $59 $94 reversed $155 $-1 #
edge $-1 $156 -24.150375543964348 $157 24.150375543964348 $93 $158 forward 7 unknown #
face $-1 $159 $160 $22 $-1 $161 forward single #
loop $-1 $-1 $162 $60 #
plane-surface $-1 -30.475548915372705 -20.721632214246249 0 -1 0 0 0 0 1 forward_v I I I I #
coedge $-1 $163 $164 $165 $166 forward $61 $-1 #
coedge $-1 $167 $63 $168 $169 reversed $39 $-1 #
coedge $-1 $63 $167 $170 $171 reversed $39 $-1 #
coedge $-1 $164 $163 $63 $102 reversed $61 $-1 #
edge $-1 $172 -7.5868750808575767 $173 7.5868750808575767 $101 $174 forward 7 unknown #
face $-1 $175 $176 $23 $-1 $177 reversed single #
loop $-1 $-1 $178 $64 #
plane-surface $-1 51.829588603576795 -2.6977102680249256 119.09036075427606 0 1 0 0.7660444514056185 0 0.64278759981090561 forward_v I I I I #
coedge $-1 $179 $180 $181 $182 reversed $65 $-1 #
coedge $-1 $108 $67 $183 $184 reversed $42 $-1 #
coedge $-1 $67 $107 $179 $185 reversed $42 $-1 #
coedge $-1 $181 $186 $67 $110 forward $187 $-1 #
edge $-1 $188 -15.664843748689215 $189 -10.920601532279086 $109 $190 forward 7 unknown #
loop $-1 $-1 $116 $68 #
plane-surface $-1 -11.874113436467809 1.8814293916684797 65.636609267330641 0.7660444514056185 0 0.64278759981090561 0.64278759981090561 0 -0.7660444514056185 forward_v I I I I #
loop $-1 $-1 $191 $44 #
coedge $-1 $114 $114 $115 $192 reversed $69 $-1 #
coedge $-1 $115 $115 $114 $192 forward $71 $-1 #
coedge $-1 $116 $116 $72 $117 forward $111 $-1 #
edge $-1 $193 0 $193 6.2831853071796004 $116 $194 forward 7 unknown #
loop $-1 $-1 $123 $73 #
plane-surface $-1 -11.874113436467809 1.8814293916684797 65.636609267330641 0.7660444514056185 0 0.64278759981090561 0.64278759981090561 0 -0.7660444514056185 forward_v I I I I #
loop $-1 $-1 $195 $47 #
coedge $-1 $121 $121 $122 $196 reversed $74 $-1 #
coedge $-1 $122 $122 $121 $196 forward $76 $-1 #
coedge $-1 $123 $123 $77 $124 forward $118 $-1 #
edge $-1 $197 0 $197 6.2831853071796004 $123 $198 forward 7 unknown #
face $-1 $199 $200 $26 $-1 $201 reversed single #
loop $-1 $-1 $131 $78 #
plane-surface $-1 0 0 7.5868750808575767 0 0 1 1 0 0 forward_v I I I I #
coedge $-1 $202 $203 $204 $205 reversed $79 $-1 #
coedge $-1 $130 $81 $206 $207 reversed $51 $-1 #
coedge $-1 $81 $129 $202 $208 reversed $51 $-1 #
coedge $-1 $204 $209 $81 $132 forward $126 $-1 #
edge $-1 $210 9.6196035186026592 $211 14.78157878295913 $131 $212 forward 7 unknown #
loop $-1 $-1 $138 $82 #
plane-surface $-1 -41.579638050477627 19.365585508995398 2.0513341909508753 -0.73135370988377701 0 0.68199835119979291 0.68199835119979291 0 0.73135370988377701 forward_v I I I I #
loop $-1 $-1 $213 $53 #
coedge $-1 $136 $136 $137 $214 reversed $83 $-1 #
coedge $-1 $137 $137 $136 $214 forward $85 $-1 #
coedge $-1 $138 $138 $86 $139 forward $133 $-1 #
edge $-1 $215 0 $215 6.2831853071796004 $138 $216 forward 7 unknown #
face $-1 $217 $218 $21 $-1 $219 reversed single #
loop $-1 $-1 $220 $87 #
plane-surface $-1 -41.579638050477612 0 0 1 0 0 0 0 -1 forward_v I I I I #
coedge $-1 $221 $151 $222 $223 forward $88 $-1 #
coedge $-1 $224 $90 $221 $225 forward $57 $-1 #
coedge $-1 $90 $224 $226 $227 forward $57 $-1 #
coedge $-1 $154 $153 $90 $147 reversed $155 $-1 #
edge $-1 $228 -24.150375543964348 $229 24.150375543964348 $146 $230 forward 7 unknown #
coedge $-1 $92 $91 $231 $232 forward $36 $-1 #
coedge $-1 $233 $234 $91 $150 reversed $218 $-1 #
edge $-1 $157 -41.579638050477612 $235 41.579638050477612 $149 $236 forward 7 unknown #
coedge $-1 $143 $237 $92 $152 reversed $88 $-1 #
edge $-1 $238 -41.579638050477612 $156 41.579638050477612 $151 $239 forward 7 unknown #
coedge $-1 $146 $93 $237 $240 forward $155 $-1 #
coedge $-1 $93 $146 $233 $241 reversed $155 $-1 #
loop $-1 $-1 $153 $217 #
vertex $-1 $94 $242 #
vertex $-1 $94 $243 #
straight-curve $-1 41.579638050477612 0 7.5868750808575767 0 1 0 I I #
face $-1 $244 $245 $22 $-1 $246 reversed single #
loop $-1 $-1 $247 $95 #
plane-surface $-1 0 0 7.5868750808575767 0 0 1 1 0 0 forward_v I I I I #
coedge $-1 $248 $249 $250 $251 reversed $96 $-1 #
coedge $-1 $101 $98 $252 $253 reversed $61 $-1 #
coedge $-1 $98 $101 $254 $255 reversed $61 $-1 #
coedge $-1 $249 $248 $98 $166 reversed $96 $-1 #
edge $-1 $256 -7.5868750808575767 $257 7.5868750808575767 $165 $258 forward 7 unknown #
coedge $-1 $100 $99 $259 $260 reversed $39 $-1 #
coedge $-1 $252 $261 $99 $169 forward $245 $-1 #
edge $-1 $262 -13.789559436841223 $173 -6.9320727774050255 $168 $263 forward 7 unknown #
coedge $-1 $264 $254 $100 $171 forward $160 $-1 #
edge $-1 $172 6.9320727774050255 $265 13.789559436841223 $170 $266 forward 7 unknown #
vertex $-1 $171 $267 #
vertex $-1 $169 $268 #
straight-curve $-1 -34.767978566362608 -17.29288888452815 0 0 0 -1 I I #
face $-1 $-1 $187 $23 $-1 $269 forward single #
loop $-1 $-1 $270 $103 #
plane-surface $-1 41.579638050477612 0 0 -1 0 0 0 0 1 forward_v I I I I #
coedge $-1 $271 $272 $273 $274 reversed $104 $-1 #
coedge $-1 $275 $106 $108 $185 forward $65 $-1 #
coedge $-1 $106 $275 $271 $276 forward $65 $-1 #
coedge $-1 $273 $109 $106 $182 forward $187 $-1 #
edge $-1 $189 -5.5198543555276451 $277 3.6384249638591655 $181 $278 forward 7 unknown #
coedge $-1 $279 $280 $107 $184 forward $176 $-1 #
edge $-1 $281 -57.612273149852008 $188 -51.958305296280457 $183 $282 forward 7 unknown #
edge $-1 $189 75.778545331093198 $281 83.159276100955267 $108 $283 forward 7 unknown #
coedge $-1 $109 $273 $279 $284 forward $187 $-1 #
loop $-1 $-1 $273 $175 #
vertex $-1 $184 $285 #
vertex $-1 $110 $286 #
straight-curve $-1 25.914794301788397 6.460569051361885 7.586875080857574 -1 0 0 I I #
coedge $-1 $191 $191 $-1 $287 reversed $113 $-1 #
edge $-1 $288 0 $288 6.2831853071796004 $114 $289 forward 7 unknown #
vertex $-1 $117 $290 #
ellipse-curve $-1 39.207516942272548 -0.081059033914410605 4.7598911540717959 0.7660444514056185 0 0.64278759981090561 0.3213937999054528 0 -0.38302222570280925 1 I I #
coedge $-1 $195 $195 $-1 $291 reversed $120 $-1 #
edge $-1 $292 0 $292 6.2831853071796004 $121 $293 forward 7 unknown #
vertex $-1 $124 $294 #
ellipse-curve $-1 39.207516942272548 3.8439178172513664 4.7598911540717959 0.7660444514056185 0 0.64278759981090561 0.3213937999054528 0 -0.38302222570280925 1 I I #
face $-1 $-1 $295 $26 $-1 $296 reversed single #
loop $-1 $-1 $297 $125 #
plane-surface $-1 0 24.150375543964348 0 0 -1 0 0 0 -1 forward_v I I I I #
coedge $-1 $298 $128 $130 $208 forward $79 $-1 #
coedge $-1 $128 $298 $297 $299 reversed $79 $-1 #
coedge $-1 $300 $131 $128 $205 forward $126 $-1 #
edge $-1 $211 4.8980027195287494 $301 14.467582789466649 $204 $302 forward 7 unknown #
coedge $-1 $303 $304 $129 $207 forward $295 $-1 #
edge $-1 $305 -27.331577498434452 $210 -21.796036608527764 $206 $306 forward 7 unknown #
edge $-1 $211 -7.5688969852718486 $305 -2.0734513383776317e-014 $130 $307 forward 7 unknown #
coedge $-1 $131 $300 $303 $308 forward $126 $-1 #
vertex $-1 $207 $309 #
vertex $-1 $132 $310 #
straight-curve $-1 -51.199241569080272 14.580795474026448 7.5868750808575776 1 0 0 I I #
coedge $-1 $213 $213 $-1 $311 reversed $135 $-1 #
edge $-1 $312 0 $312 6.2831853071796004 $136 $313 forward 7 unknown #
vertex $-1 $139 $314 #
ellipse-curve $-1 -38.998650418299377 19.365585508995398 4.8191046359042318 -0.73135370988377701 0 0.68199835119979291 0.68199835119979291 0 0.73135370988377701 1 I I #
face $-1 $-1 $155 $21 $-1 $315 reversed single #
loop $-1 $-1 $233 $140 #
plane-surface $-1 0 24.150375543964348 0 0 -1 0 0 0 -1 forward_v I I I I #
coedge $-1 $316 $231 $234 $317 forward $141 $-1 #
coedge $-1 $237 $143 $144 $225 reversed $88 $-1 #
coedge $-1 $231 $316 $143 $223 reversed $141 $-1 #
edge $-1 $238 -7.5868750808575767 $318 7.5868750808575767 $222 $319 forward 7 unknown #
coedge $-1 $145 $144 $316 $320 forward $57 $-1 #
edge $-1 $229 -41.579638050477612 $318 41.579638050477612 $221 $321 forward 7 unknown #
coedge $-1 $234 $233 $145 $227 reversed $218 $-1 #
edge $-1 $322 -41.579638050477612 $228 41.579638050477612 $226 $323 forward 7 unknown #
vertex $-1 $147 $324 #
vertex $-1 $240 $325 #
straight-curve $-1 41.579638050477612 0 -7.5868750808575767 0 -1 0 I I #
coedge $-1 $220 $222 $148 $232 reversed $141 $-1 #
edge $-1 $235 -24.150375543964348 $238 24.150375543964348 $231 $326 forward 7 unknown #
coedge $-1 $226 $149 $154 $241 forward $218 $-1 #
coedge $-1 $149 $226 $220 $317 reversed $218 $-1 #
vertex $-1 $150 $327 #
straight-curve $-1 0 24.150375543964348 7.5868750808575767 -1 0 0 I I #
coedge $-1 $151 $221 $153 $240 reversed $88 $-1 #
vertex $-1 $232 $328 #
straight-curve $-1 0 -24.150375543964348 7.5868750808575767 1 0 0 I I #
edge $-1 $156 -7.5868750808575767 $229 7.5868750808575767 $153 $329 forward 7 unknown #
edge $-1 $157 -7.5868750808575767 $228 7.5868750808575767 $154 $330 forward 7 unknown #
point $-1 41.579638050477612 -24.150375543964348 7.5868750808575767 #
point $-1 41.579638050477612 24.150375543964348 7.5868750808575767 #
face $-1 $-1 $331 $22 $-1 $332 reversed single #
loop $-1 $-1 $333 $159 #
plane-surface $-1 0 0 -7.5868750808575767 0 0 1 1 0 0 forward_v I I I I #
coedge $-1 $254 $264 $249 $334 forward $160 $-1 #
coedge $-1 $165 $162 $333 $335 reversed $96 $-1 #
coedge $-1 $162 $165 $247 $334 reversed $96 $-1 #
coedge $-1 $336 $337 $162 $251 forward $331 $-1 #
edge $-1 $338 -7.5868750808575767 $339 7.5868750808575767 $250 $340 forward 7 unknown #
coedge $-1 $333 $168 $163 $253 forward $245 $-1 #
edge $-1 $173 -18.457096695928779 $257 -14.164667044938877 $252 $341 forward 7 unknown #
coedge $-1 $170 $247 $164 $255 forward $160 $-1 #
edge $-1 $256 14.164667044938877 $172 18.457096695928779 $254 $342 forward 7 unknown #
vertex $-1 $255 $343 #
vertex $-1 $253 $344 #
straight-curve $-1 -30.475548915372705 -17.29288888452815 0 0 0 -1 I I #
coedge $-1 $337 $336 $167 $260 forward $331 $-1 #
edge $-1 $265 -7.5868750808575767 $262 7.5868750808575767 $259 $345 forward 7 unknown #
coedge $-1 $168 $333 $337 $346 forward $245 $-1 #
vertex $-1 $169 $347 #
straight-curve $-1 -34.767978566362608 -10.360816107123124 -7.5868750808575767 0 1 0 I I #
coedge $-1 $247 $170 $336 $348 forward $160 $-1 #
vertex $-1 $348 $349 #
straight-curve $-1 -34.767978566362608 -10.360816107123124 7.5868750808575767 0 -1 0 I I #
point $-1 -34.767978566362608 -17.29288888452815 7.5868750808575767 #
point $-1 -34.767978566362608 -17.29288888452815 -7.5868750808575767 #
plane-surface $-1 0 0 7.5868750808575767 0 0 1 1 0 0 forward_v I I I I #
coedge $-1 $280 $279 $272 $350 forward $176 $-1 #
coedge $-1 $272 $178 $180 $276 reversed $104 $-1 #
coedge $-1 $178 $271 $270 $350 reversed $104 $-1 #
coedge $-1 $186 $181 $178 $274 forward $187 $-1 #
edge $-1 $277 10.920601532279086 $351 15.664843748689215 $273 $352 forward 7 unknown #
coedge $-1 $180 $179 $280 $353 reversed $65 $-1 #
edge $-1 $354 -83.159276100955267 $277 -75.778545331093198 $271 $355 forward 7 unknown #
vertex $-1 $182 $356 #
straight-curve $-1 36.835395834067484 0.94071469583423983 7.586875080857574 0 -1 0 I I #
coedge $-1 $270 $183 $186 $284 reversed $176 $-1 #
coedge $-1 $183 $270 $275 $353 forward $176 $-1 #
vertex $-1 $184 $357 #
straight-curve $-1 41.579638050477612 6.460569051361885 59.545180377138031 0 0 1 I I #
straight-curve $-1 -11.874113436467809 6.460569051361885 65.636609267330641 0.64278759981090561 0 -0.7660444514056185 I I #
edge $-1 $351 -2.6977102680249256 $188 6.460569051361885 $279 $358 forward 7 unknown #
point $-1 41.579638050477612 6.460569051361885 7.5868750808575767 #
point $-1 36.835395834067484 6.460569051361885 7.586875080857574 #
edge $-1 $359 1 $359 0 $191 $-1 forward 7 unknown #
vertex $-1 $192 $360 #
ellipse-curve $-1 38.125453146042091 -0.081059033914410605 3.8519318455160043 0.7660444514056185 0 0.64278759981090561 0.3213937999054528 0 -0.38302222570280925 1 I I #
point $-1 39.528910742178006 -0.081059033914410605 4.376868928368995 #
edge $-1 $361 1 $361 0 $195 $-1 forward 7 unknown #
vertex $-1 $196 $362 #
ellipse-curve $-1 38.125453146042091 3.8439178172513664 3.8519318455160043 0.7660444514056185 0 0.64278759981090561 0.3213937999054528 0 -0.38302222570280925 1 I I #
point $-1 39.528910742178006 3.8439178172513664 4.376868928368995 #
loop $-1 $-1 $206 $199 #
plane-surface $-1 -41.579638050477612 0 0 1 0 0 0 0 -1 forward_v I I I I #
coedge $-1 $363 $364 $203 $299 forward $200 $-1 #
coedge $-1 $203 $202 $304 $365 reversed $79 $-1 #
edge $-1 $301 5.8595998763014272 $366 13.428496861573255 $297 $367 forward 7 unknown #
coedge $-1 $209 $204 $364 $368 forward $126 $-1 #
vertex $-1 $368 $369 #
straight-curve $-1 -36.417662786121141 9.6827927544976991 7.5868750808575758 0 1 0 I I #
coedge $-1 $370 $206 $209 $308 reversed $295 $-1 #
coedge $-1 $206 $370 $298 $365 forward $295 $-1 #
vertex $-1 $207 $371 #
straight-curve $-1 -41.579638050477612 14.580795474026448 29.382911689385342 0 0 1 I I #
straight-curve $-1 -41.579638050477627 14.580795474026448 2.0513341909508753 -0.68199835119979291 0 -0.73135370988377701 I I #
edge $-1 $372 -24.150375543964348 $210 -14.580795474026448 $303 $373 forward 7 unknown #
point $-1 -41.579638050477612 14.580795474026448 7.5868750808575767 #
point $-1 -36.417662786121141 14.580795474026448 7.5868750808575767 #
edge $-1 $374 1 $374 0 $213 $-1 forward 7 unknown #
vertex $-1 $214 $375 #
ellipse-curve $-1 -38.264350491499037 19.365585508995398 4.134358893049459 -0.73135370988377701 0 0.68199835119979291 0.68199835119979291 0 0.73135370988377701 1 I I #
point $-1 -38.316652067099575 19.365585508995398 5.5504583457879981 #
plane-surface $-1 41.579638050477612 0 0 -1 0 0 0 0 1 forward_v I I I I #
coedge $-1 $222 $220 $224 $320 reversed $141 $-1 #
edge $-1 $235 -7.5868750808575767 $322 7.5868750808575767 $234 $376 forward 7 unknown #
vertex $-1 $320 $377 #
straight-curve $-1 -41.579638050477612 -24.150375543964348 0 0 0 -1 I I #
edge $-1 $318 -24.150375543964348 $322 24.150375543964348 $316 $378 forward 7 unknown #
straight-curve $-1 0 -24.150375543964348 -7.5868750808575767 -1 0 0 I I #
vertex $-1 $227 $379 #
straight-curve $-1 0 24.150375543964348 -7.5868750808575767 1 0 0 I I #
point $-1 41.579638050477612 24.150375543964348 -7.5868750808575767 #
point $-1 41.579638050477612 -24.150375543964348 -7.5868750808575767 #
straight-curve $-1 -41.579638050477612 0 7.5868750808575767 0 -1 0 I I #
point $-1 -41.579638050477612 24.150375543964348 7.5868750808575767 #
point $-1 -41.579638050477612 -24.150375543964348 7.5868750808575767 #
straight-curve $-1 41.579638050477612 -24.150375543964348 0 0 0 -1 I I #
straight-curve $-1 41.579638050477612 24.150375543964348 0 0 0 -1 I I #
loop $-1 $-1 $250 $244 #
plane-surface $-1 0 -24.150375543964348 0 0 1 0 0 0 1 forward_v I I I I #
coedge $-1 $261 $252 $248 $335 forward $245 $-1 #
edge $-1 $339 -13.789559436841223 $256 -6.9320727774050255 $247 $380 forward 7 unknown #
edge $-1 $257 6.9320727774050255 $338 13.789559436841223 $333 $381 forward 7 unknown #
coedge $-1 $259 $250 $264 $348 reversed $331 $-1 #
coedge $-1 $250 $259 $261 $346 reversed $331 $-1 #
vertex $-1 $346 $382 #
vertex $-1 $251 $383 #
straight-curve $-1 -30.475548915372705 -24.150375543964348 0 0 0 1 I I #
straight-curve $-1 -16.310881870433828 -17.29288888452815 -7.5868750808575767 1 0 0 I I #
straight-curve $-1 -16.310881870433828 -17.29288888452815 7.5868750808575767 -1 0 0 I I #
point $-1 -30.475548915372705 -17.29288888452815 7.5868750808575767 #
point $-1 -30.475548915372705 -17.29288888452815 -7.5868750808575767 #
straight-curve $-1 -34.767978566362608 -24.150375543964348 0 0 0 -1 I I #
edge $-1 $338 30.475548915372705 $262 34.767978566362608 $337 $384 forward 7 unknown #
point $-1 -34.767978566362608 -24.150375543964348 -7.5868750808575767 #
edge $-1 $265 -34.767978566362608 $339 -30.475548915372705 $336 $385 forward 7 unknown #
point $-1 -34.767978566362608 -24.150375543964348 7.5868750808575767 #
edge $-1 $351 51.958305296280457 $354 57.612273149852008 $270 $386 forward 7 unknown #
vertex $-1 $284 $387 #
straight-curve $-1 25.914794301788397 -2.6977102680249256 7.586875080857574 1 0 0 I I #
edge $-1 $354 -3.6384249638591655 $281 5.5198543555276451 $280 $388 forward 7 unknown #
vertex $-1 $353 $389 #
straight-curve $-1 -11.874113436467809 -2.6977102680249256 65.636609267330641 -0.64278759981090561 0 0.7660444514056185 I I #
point $-1 36.835395834067484 -2.6977102680249256 7.586875080857574 #
point $-1 41.579638050477612 6.460569051361885 1.932907227286023 #
straight-curve $-1 41.579638050477612 0 7.5868750808575767 0 1 0 I I #
vertex $-1 $287 $390 #
point $-1 38.446846945947549 -0.081059033914410605 3.468909619813195 #
vertex $-1 $291 $391 #
point $-1 38.446846945947549 3.8439178172513664 3.468909619813195 #
coedge $-1 $364 $297 $370 $392 reversed $200 $-1 #
coedge $-1 $297 $363 $300 $368 reversed $200 $-1 #
edge $-1 $366 -14.467582789466649 $305 -4.8980027195287494 $304 $393 forward 7 unknown #
vertex $-1 $299 $394 #
straight-curve $-1 -32.42142533179306 24.150375543964348 11.872315188825148 -0.68199835119979291 0 -0.73135370988377701 I I #
edge $-1 $301 36.417662786121141 $372 41.579638050477612 $364 $395 forward 7 unknown #
point $-1 -36.417662786121141 24.150375543964348 7.5868750808575767 #
coedge $-1 $304 $303 $363 $392 forward $295 $-1 #
point $-1 -41.579638050477612 14.580795474026448 2.0513341909508904 #
vertex $-1 $368 $396 #
straight-curve $-1 -41.579638050477612 0 7.5868750808575767 0 -1 0 I I #
vertex $-1 $311 $397 #
point $-1 -37.582352140299243 19.365585508995398 4.865712602933236 #
straight-curve $-1 -41.579638050477612 24.150375543964348 0 0 0 -1 I I #
point $-1 -41.579638050477612 -24.150375543964348 -7.5868750808575767 #
straight-curve $-1 -41.579638050477612 0 -7.5868750808575767 0 1 0 I I #
point $-1 -41.579638050477612 24.150375543964348 -7.5868750808575767 #
straight-curve $-1 -30.475548915372705 -10.360816107123124 7.5868750808575767 0 1 0 I I #
straight-curve $-1 -30.475548915372705 -10.360816107123124 -7.5868750808575767 0 -1 0 I I #
point $-1 -30.475548915372705 -24.150375543964348 -7.5868750808575767 #
point $-1 -30.475548915372705 -24.150375543964348 7.5868750808575767 #
straight-curve $-1 0 -24.150375543964348 -7.5868750808575767 -1 0 0 I I #
straight-curve $-1 0 -24.150375543964348 7.5868750808575767 1 0 0 I I #
straight-curve $-1 41.579638050477612 -2.6977102680249256 59.545180377138031 0 0 -1 I I #
point $-1 41.579638050477612 -2.6977102680249256 7.5868750808575767 #
straight-curve $-1 41.579638050477612 0.94071469583423983 1.932907227286023 0 1 0 I I #
point $-1 41.579638050477612 -2.6977102680249256 1.932907227286023 #
point $-1 37.742430920339288 -0.081059033914410605 3.5305380456105517 #
point $-1 37.742430920339288 3.8439178172513664 3.5305380456105517 #
edge $-1 $372 -7.5868750808575767 $366 -2.0513341909508904 $363 $398 forward 7 unknown #
straight-curve $-1 -41.579638050477612 9.6827927544976991 2.051334190950894 0 -1 0 I I #
point $-1 -41.579638050477612 24.150375543964348 2.0513341909508904 #
straight-curve $-1 0 24.150375543964348 7.5868750808575767 -1 0 0 I I #
point $-1 -41.579638050477612 24.150375543964348 7.5868750808575767 #
point $-1 -37.53299678161526 19.365585508995398 3.4523605418496661 #
straight-curve $-1 -41.579638050477612 24.150375543964348 0 0 0 -1 I I #
End-of-ACIS-data 