500 0 7 0           
7 Unknown 11 ACIS 5.0 NT 24 Fri Mar 26 18:02:33 1999 
-1 9.9999999999999995e-007 1e-010 
body $-1 $7 $-1 $8 #
body $-1 $9 $-1 $10 #
body $-1 $11 $-1 $12 #
body $-1 $13 $-1 $14 #
body $-1 $15 $-1 $16 #
body $-1 $17 $-1 $18 #
body $-1 $19 $-1 $20 #
lump $-1 $-1 $21 $0 #
transform $-1 1 0 0 0 1 0 0 0 1 67.538682210760825 36.196174335000144 13.842299904612974 1 rotate no_reflect no_shear #
lump $-1 $-1 $22 $1 #
transform $-1 1 0 0 0 1 0 0 0 1 67.538682210760825 36.196174335000144 13.842299904612974 1 rotate no_reflect no_shear #
lump $-1 $-1 $23 $2 #
transform $-1 1 0 0 0 1 0 0 0 1 67.538682210760825 36.196174335000144 13.842299904612974 1 rotate no_reflect no_shear #
lump $-1 $-1 $24 $3 #
transform $-1 1 0 0 0 1 0 0 0 1 67.538682210760825 36.196174335000144 13.842299904612974 1 rotate no_reflect no_shear #
lump $-1 $-1 $25 $4 #
transform $-1 1 0 0 0 1 0 0 0 1 67.538682210760825 36.196174335000144 13.842299904612974 1 rotate no_reflect no_shear #
lump $-1 $-1 $26 $5 #
transform $-1 1 0 0 0 1 0 0 0 1 67.538682210760825 36.196174335000144 13.842299904612974 1 rotate no_reflect no_shear #
lump $-1 $-1 $27 $6 #
transform $-1 1 0 0 0 1 0 0 0 1 67.538682210760825 36.196174335000144 13.842299904612974 1 rotate no_reflect no_shear #
shell $-1 $-1 $-1 $28 $-1 $7 #
shell $-1 $-1 $-1 $29 $-1 $9 #
shell $-1 $-1 $-1 $30 $-1 $11 #
shell $-1 $-1 $-1 $31 $-1 $13 #
shell $-1 $-1 $-1 $32 $-1 $15 #
shell $-1 $-1 $-1 $33 $-1 $17 #
shell $-1 $-1 $-1 $34 $-1 $19 #
face $-1 $35 $36 $21 $-1 $37 forward single #
face $-1 $38 $39 $22 $-1 $40 forward single #
face $-1 $41 $42 $23 $-1 $43 reversed single #
face $-1 $44 $45 $24 $-1 $46 forward single #
face $-1 $47 $48 $25 $-1 $49 reversed single #
face $-1 $50 $51 $26 $-1 $52 forward single #
face $-1 $53 $54 $27 $-1 $55 forward single #
face $-1 $56 $57 $21 $-1 $58 reversed single #
loop $-1 $-1 $59 $28 #
plane-surface $-1 0 0 13.842299904612974 0 0 1 1 0 0 forward_v I I I I #
face $-1 $60 $61 $22 $-1 $62 reversed single #
loop $-1 $-1 $63 $29 #
plane-surface $-1 0 -30.578199589906625 3.9365500385147607 0 0 1 1 0 0 forward_v I I I I #
face $-1 $64 $65 $23 $-1 $66 reversed single #
loop $-1 $-1 $67 $30 #
plane-surface $-1 113.75259914197447 -3.2024392320217956 193.54475654446642 0 1 0 0.85716730853699208 0 0.51503806187062418 forward_v I I I I #
face $-1 $68 $69 $24 $-1 $70 forward single #
loop $-1 $71 $72 $31 #
cone-surface $-1 63.963383029997594 1.4315573408594346 9.8885067215255749 -0.85716730853699208 0 -0.51503806187062418 0.77255709280593621 0 -1.2857509628054882 1 I I 0 1 1.5 forward I I I I #
face $-1 $73 $74 $25 $-1 $75 reversed single #
loop $-1 $-1 $76 $32 #
plane-surface $-1 -157.92308205853206 -8.0653934337259656 105.6187217434554 0 1 0 -0.66913061440640931 0 0.74314481823134659 forward_v I I I I #
face $-1 $77 $78 $26 $-1 $79 forward single #
loop $-1 $80 $81 $33 #
cone-surface $-1 -62.116378425434952 -3.9659744303313076 8.8247562500223431 0.66913061440640931 0 -0.74314481823134659 1.1147172273470198 0 1.003695921609614 1 I I 0 1 1.5 forward I I I I #
face $-1 $82 $83 $27 $-1 $84 forward single #
loop $-1 $85 $86 $34 #
cone-surface $-1 -62.116378425434952 2.1831540747606724 8.8247562500223431 0.66913061440640931 0 -0.74314481823134659 1.1147172273470198 0 1.003695921609614 1 I I 0 1 1.5 forward I I I I #
face $-1 $87 $88 $21 $-1 $89 reversed single #
loop $-1 $-1 $90 $35 #
plane-surface $-1 0 0 -13.842299904612974 0 0 1 1 0 0 forward_v I I I I #
coedge $-1 $91 $92 $93 $94 forward $36 $-1 #
face $-1 $95 $96 $22 $-1 $97 reversed single #
loop $-1 $-1 $98 $38 #
plane-surface $-1 0 -30.578199589906625 -3.941990101292089 0 0 1 1 0 0 forward_v I I I I #
coedge $-1 $99 $100 $101 $102 reversed $39 $-1 #
face $-1 $103 $104 $23 $-1 $105 reversed single #
loop $-1 $-1 $106 $41 #
plane-surface $-1 -2.0313017634916974 1.4315573408594346 123.9747725702139 0.85716730853699208 0 0.51503806187062418 0.51503806187062418 0 -0.85716730853699208 forward_v I I I I #
coedge $-1 $107 $108 $109 $110 reversed $42 $-1 #
face $-1 $-1 $111 $24 $-1 $112 forward single #
loop $-1 $113 $114 $44 #
cone-surface $-1 61.44306864462466 1.4315573408594346 8.3741491119678226 -0.85716730853699208 0 -0.51503806187062418 0.3862785464029681 0 -0.64287548140274409 1 I I -0.70710678118654757 0.70710678118654757 0.75 forward I I I I #
loop $-1 $-1 $115 $31 #
coedge $-1 $72 $72 $116 $117 reversed $45 $-1 #
face $-1 $118 $119 $25 $-1 $120 reversed single #
loop $-1 $-1 $121 $47 #
plane-surface $-1 -67.538682210760825 -0.89141017778531761 5.2366783132543304 -0.66913061440640931 0 0.74314481823134659 0.74314481823134659 0 0.66913061440640931 forward_v I I I I #
coedge $-1 $122 $123 $124 $125 reversed $48 $-1 #
face $-1 $-1 $126 $26 $-1 $127 forward single #
loop $-1 $128 $129 $50 #
cone-surface $-1 -60.970982093859028 -3.9659744303313076 7.5526647774375117 0.66913061440640931 0 -0.74314481823134659 0.55735861367350992 0 0.50184796080480698 1 I I -0.70710678118654713 0.70710678118654802 0.75 forward I I I I #
loop $-1 $-1 $130 $33 #
coedge $-1 $81 $81 $131 $132 reversed $51 $-1 #
face $-1 $-1 $133 $27 $-1 $134 forward single #
loop $-1 $135 $136 $53 #
cone-surface $-1 -60.970982093859028 2.1831540747606724 7.5526647774375117 0.66913061440640931 0 -0.74314481823134659 0.55735861367350992 0 0.50184796080480698 1 I I -0.70710678118654713 0.70710678118654802 0.75 forward I I I I #
loop $-1 $-1 $137 $34 #
coedge $-1 $86 $86 $138 $139 reversed $54 $-1 #
face $-1 $140 $141 $21 $-1 $142 reversed single #
loop $-1 $-1 $143 $56 #
plane-surface $-1 0 -36.196174335000144 0 0 1 0 0 0 1 forward_v I I I I #
coedge $-1 $144 $145 $146 $147 forward $57 $-1 #
coedge $-1 $148 $59 $149 $150 forward $36 $-1 #
coedge $-1 $59 $148 $151 $152 forward $36 $-1 #
coedge $-1 $153 $154 $59 $94 reversed $155 $-1 #
edge $-1 $156 -36.196174335000144 $157 36.196174335000144 $93 $158 forward 7 unknown #
face $-1 $159 $160 $22 $-1 $161 reversed single #
loop $-1 $-1 $162 $60 #
plane-surface $-1 0 -24.960224844813105 -0.002720031388664168 0 -1 0 0 0 -1 forward_v I I I I #
coedge $-1 $163 $164 $165 $166 reversed $61 $-1 #
coedge $-1 $167 $63 $168 $169 forward $39 $-1 #
coedge $-1 $63 $167 $170 $171 reversed $39 $-1 #
coedge $-1 $172 $173 $63 $102 forward $174 $-1 #
edge $-1 $175 9.6711250498597927 $176 20.907074540046832 $101 $177 forward 7 unknown #
face $-1 $178 $179 $23 $-1 $180 forward single #
loop $-1 $-1 $181 $64 #
plane-surface $-1 113.75259914197447 6.0655539137406649 193.54475654446642 0 -1 0 -0.85716730853699208 0 -0.51503806187062418 forward_v I I I I #
coedge $-1 $182 $183 $184 $185 reversed $65 $-1 #
coedge $-1 $108 $67 $186 $187 reversed $42 $-1 #
coedge $-1 $67 $107 $182 $188 reversed $42 $-1 #
coedge $-1 $184 $189 $67 $110 forward $190 $-1 #
edge $-1 $191 82.93007836762024 $192 88.581506607485466 $109 $193 forward 7 unknown #
loop $-1 $-1 $116 $68 #
plane-surface $-1 -2.0313017634916974 1.4315573408594346 123.9747725702139 0.85716730853699208 0 0.51503806187062418 0.51503806187062418 0 -0.85716730853699208 forward_v I I I I #
loop $-1 $-1 $194 $44 #
coedge $-1 $114 $114 $115 $195 reversed $69 $-1 #
coedge $-1 $115 $115 $114 $195 forward $71 $-1 #
coedge $-1 $116 $116 $72 $117 forward $111 $-1 #
edge $-1 $196 0 $196 6.2831853071796004 $116 $197 forward 7 unknown #
face $-1 $198 $199 $25 $-1 $200 reversed single #
loop $-1 $-1 $201 $73 #
plane-surface $-1 -157.92308205853206 6.2825730781553304 105.6187217434554 0 -1 0 0.66913061440640931 0 -0.74314481823134659 forward_v I I I I #
coedge $-1 $202 $203 $204 $205 reversed $74 $-1 #
coedge $-1 $123 $76 $206 $207 reversed $48 $-1 #
coedge $-1 $76 $122 $202 $208 reversed $48 $-1 #
coedge $-1 $204 $209 $76 $125 forward $210 $-1 #
edge $-1 $211 11.422858818505205 $212 20.980369647614737 $124 $213 forward 7 unknown #
loop $-1 $-1 $131 $77 #
plane-surface $-1 -67.538682210760825 -0.89141017778531761 5.2366783132543304 -0.66913061440640931 0 0.74314481823134659 0.74314481823134659 0 0.66913061440640931 forward_v I I I I #
loop $-1 $-1 $214 $50 #
coedge $-1 $129 $129 $130 $215 reversed $78 $-1 #
coedge $-1 $130 $130 $129 $215 forward $80 $-1 #
coedge $-1 $131 $131 $81 $132 forward $126 $-1 #
edge $-1 $216 0 $216 6.2831853071796004 $131 $217 forward 7 unknown #
loop $-1 $-1 $138 $82 #
plane-surface $-1 -67.538682210760825 -0.89141017778531761 5.2366783132543304 -0.66913061440640931 0 0.74314481823134659 0.74314481823134659 0 0.66913061440640931 forward_v I I I I #
loop $-1 $-1 $218 $53 #
coedge $-1 $136 $136 $137 $219 reversed $83 $-1 #
coedge $-1 $137 $137 $136 $219 forward $85 $-1 #
coedge $-1 $138 $138 $86 $139 forward $133 $-1 #
edge $-1 $220 0 $220 6.2831853071796004 $138 $221 forward 7 unknown #
face $-1 $222 $223 $21 $-1 $224 reversed single #
loop $-1 $-1 $225 $87 #
plane-surface $-1 -67.538682210760825 0 0 1 0 0 0 0 -1 forward_v I I I I #
coedge $-1 $226 $151 $227 $228 forward $88 $-1 #
coedge $-1 $229 $90 $226 $230 forward $57 $-1 #
coedge $-1 $90 $229 $231 $232 forward $57 $-1 #
coedge $-1 $154 $153 $90 $147 reversed $155 $-1 #
edge $-1 $233 -36.196174335000144 $234 36.196174335000144 $146 $235 forward 7 unknown #
coedge $-1 $92 $91 $236 $237 forward $36 $-1 #
coedge $-1 $238 $239 $91 $150 reversed $223 $-1 #
edge $-1 $157 -67.538682210760825 $240 67.538682210760825 $149 $241 forward 7 unknown #
coedge $-1 $143 $242 $92 $152 reversed $88 $-1 #
edge $-1 $243 -67.538682210760825 $156 67.538682210760825 $151 $244 forward 7 unknown #
coedge $-1 $146 $93 $242 $245 forward $155 $-1 #
coedge $-1 $93 $146 $238 $246 reversed $155 $-1 #
loop $-1 $-1 $153 $222 #
vertex $-1 $94 $247 #
vertex $-1 $94 $248 #
straight-curve $-1 67.538682210760825 0 13.842299904612974 0 1 0 I I #
face $-1 $249 $250 $22 $-1 $251 reversed single #
loop $-1 $-1 $252 $95 #
plane-surface $-1 -67.538682210760825 0 0 1 0 0 0 0 -1 forward_v I I I I #
coedge $-1 $253 $168 $173 $254 reversed $96 $-1 #
coedge $-1 $255 $98 $256 $257 reversed $61 $-1 #
coedge $-1 $98 $255 $253 $258 forward $61 $-1 #
coedge $-1 $173 $172 $98 $166 forward $174 $-1 #
edge $-1 $259 -20.907074540046832 $260 -9.6711250498597927 $165 $261 forward 7 unknown #
coedge $-1 $100 $99 $252 $262 reversed $39 $-1 #
coedge $-1 $162 $263 $99 $169 reversed $96 $-1 #
edge $-1 $175 -67.538682210760825 $264 67.538682210760825 $168 $265 forward 7 unknown #
coedge $-1 $266 $267 $100 $171 forward $250 $-1 #
edge $-1 $176 -67.538682210760825 $268 67.538682210760825 $170 $269 forward 7 unknown #
coedge $-1 $165 $101 $267 $270 forward $174 $-1 #
coedge $-1 $101 $165 $162 $254 forward $174 $-1 #
loop $-1 $-1 $101 $249 #
vertex $-1 $102 $271 #
vertex $-1 $270 $272 #
straight-curve $-1 67.538682210760825 -15.289099794953312 3.9365500385147607 0 -1 0 I I #
face $-1 $-1 $190 $23 $-1 $273 reversed single #
loop $-1 $-1 $274 $103 #
plane-surface $-1 0 0 13.842299904612974 0 0 1 1 0 0 forward_v I I I I #
coedge $-1 $275 $276 $277 $278 reversed $104 $-1 #
coedge $-1 $279 $106 $108 $188 forward $65 $-1 #
coedge $-1 $106 $279 $275 $280 forward $65 $-1 #
coedge $-1 $277 $109 $106 $185 forward $190 $-1 #
edge $-1 $192 -3.9182179024515129 $281 5.3497752433109476 $184 $282 forward 7 unknown #
coedge $-1 $283 $284 $107 $187 forward $179 $-1 #
edge $-1 $285 7.2666620861875302 $191 10.66238263977359 $186 $286 forward 7 unknown #
edge $-1 $192 -135.07736442152168 $285 -128.48421955519325 $108 $287 forward 7 unknown #
coedge $-1 $109 $277 $283 $288 reversed $190 $-1 #
loop $-1 $-1 $277 $178 #
vertex $-1 $288 $289 #
vertex $-1 $110 $290 #
straight-curve $-1 67.538682210760825 -3.2024392320217956 96.772378272233212 0 0 -1 I I #
coedge $-1 $194 $194 $-1 $291 reversed $113 $-1 #
edge $-1 $292 0 $292 6.2831853071796004 $114 $293 forward 7 unknown #
vertex $-1 $117 $294 #
ellipse-curve $-1 65.840821933967803 1.4315573408594346 11.016585784680364 0.85716730853699208 0 0.51503806187062418 0.77255709280593621 0 -1.2857509628054882 1 I I #
face $-1 $-1 $210 $25 $-1 $295 forward single #
loop $-1 $-1 $296 $118 #
plane-surface $-1 -67.538682210760825 0 0 1 0 0 0 0 -1 forward_v I I I I #
coedge $-1 $297 $298 $299 $300 reversed $119 $-1 #
coedge $-1 $301 $121 $123 $208 forward $74 $-1 #
coedge $-1 $121 $301 $297 $302 forward $74 $-1 #
coedge $-1 $299 $124 $121 $205 forward $210 $-1 #
edge $-1 $212 -7.6196883448333068 $303 6.7282781670479892 $204 $304 forward 7 unknown #
coedge $-1 $305 $306 $122 $207 forward $199 $-1 #
edge $-1 $307 -47.572682558473367 $211 -38.967060967114726 $206 $308 forward 7 unknown #
edge $-1 $212 -12.8608995106176 $307 0 $123 $309 forward 7 unknown #
coedge $-1 $124 $299 $305 $310 forward $210 $-1 #
loop $-1 $-1 $299 $198 #
vertex $-1 $207 $311 #
vertex $-1 $125 $312 #
straight-curve $-1 -78.96154102926603 -8.0653934337259656 13.842299904612972 1 0 0 I I #
coedge $-1 $214 $214 $-1 $313 reversed $128 $-1 #
edge $-1 $314 0 $314 6.2831853071796004 $129 $315 forward 7 unknown #
vertex $-1 $132 $316 #
ellipse-curve $-1 -62.759926796206059 -3.9659744303313076 9.5394891089336529 -0.66913061440640931 0 0.74314481823134659 1.1147172273470198 0 1.003695921609614 1 I I #
coedge $-1 $218 $218 $-1 $317 reversed $135 $-1 #
edge $-1 $318 0 $318 6.2831853071796004 $136 $319 forward 7 unknown #
vertex $-1 $139 $320 #
ellipse-curve $-1 -62.759926796206059 2.1831540747606724 9.5394891089336529 -0.66913061440640931 0 0.74314481823134659 1.1147172273470198 0 1.003695921609614 1 I I #
face $-1 $-1 $155 $21 $-1 $321 reversed single #
loop $-1 $-1 $238 $140 #
plane-surface $-1 0 36.196174335000144 0 0 -1 0 0 0 -1 forward_v I I I I #
coedge $-1 $322 $236 $239 $323 forward $141 $-1 #
coedge $-1 $242 $143 $144 $230 reversed $88 $-1 #
coedge $-1 $236 $322 $143 $228 reversed $141 $-1 #
edge $-1 $243 -13.842299904612974 $324 13.842299904612974 $227 $325 forward 7 unknown #
coedge $-1 $145 $144 $322 $326 forward $57 $-1 #
edge $-1 $234 -67.538682210760825 $324 67.538682210760825 $226 $327 forward 7 unknown #
coedge $-1 $239 $238 $145 $232 reversed $223 $-1 #
edge $-1 $328 -67.538682210760825 $233 67.538682210760825 $231 $329 forward 7 unknown #
vertex $-1 $147 $330 #
vertex $-1 $245 $331 #
straight-curve $-1 67.538682210760825 0 -13.842299904612974 0 -1 0 I I #
coedge $-1 $225 $227 $148 $237 reversed $141 $-1 #
edge $-1 $240 -36.196174335000144 $243 36.196174335000144 $236 $332 forward 7 unknown #
coedge $-1 $231 $149 $154 $246 forward $223 $-1 #
coedge $-1 $149 $231 $225 $323 reversed $223 $-1 #
vertex $-1 $150 $333 #
straight-curve $-1 0 36.196174335000144 13.842299904612974 -1 0 0 I I #
coedge $-1 $151 $226 $153 $245 reversed $88 $-1 #
vertex $-1 $237 $334 #
straight-curve $-1 0 -36.196174335000144 13.842299904612974 1 0 0 I I #
edge $-1 $156 -13.842299904612974 $234 13.842299904612974 $153 $335 forward 7 unknown #
edge $-1 $157 -13.842299904612974 $233 13.842299904612974 $154 $336 forward 7 unknown #
point $-1 67.538682210760825 -36.196174335000144 13.842299904612974 #
point $-1 67.538682210760825 36.196174335000144 13.842299904612974 #
face $-1 $-1 $174 $22 $-1 $337 reversed single #
loop $-1 $-1 $170 $159 #
plane-surface $-1 0 -36.196174335000144 0 0 1 0 0 0 1 forward_v I I I I #
coedge $-1 $338 $339 $167 $262 forward $160 $-1 #
coedge $-1 $263 $162 $164 $258 reversed $96 $-1 #
edge $-1 $260 -3.940630085597757 $175 3.9379100542090928 $173 $340 forward 7 unknown #
coedge $-1 $164 $163 $341 $342 reversed $61 $-1 #
coedge $-1 $267 $266 $163 $257 forward $250 $-1 #
edge $-1 $343 -67.538682210760825 $259 67.538682210760825 $256 $344 forward 7 unknown #
edge $-1 $345 -67.538682210760825 $260 67.538682210760825 $253 $346 forward 7 unknown #
vertex $-1 $257 $347 #
vertex $-1 $166 $348 #
straight-curve $-1 67.538682210760825 -15.289099794953312 -3.941990101292089 0 1 0 I I #
edge $-1 $268 -20.907074540046832 $264 -9.6711250498597927 $252 $349 forward 7 unknown #
coedge $-1 $168 $253 $338 $350 reversed $96 $-1 #
vertex $-1 $262 $351 #
straight-curve $-1 0 -24.960224844813105 3.9365500385147607 -1 0 0 I I #
coedge $-1 $256 $170 $339 $352 forward $250 $-1 #
coedge $-1 $170 $256 $172 $270 reversed $250 $-1 #
vertex $-1 $352 $353 #
straight-curve $-1 0 -36.196174335000144 3.9365500385147607 -1 0 0 I I #
edge $-1 $176 -3.9365500385147607 $259 3.941990101292089 $172 $354 forward 7 unknown #
point $-1 67.538682210760825 -24.960224844813105 3.9365500385147607 #
point $-1 67.538682210760825 -36.196174335000144 3.9365500385147607 #
plane-surface $-1 67.538682210760825 0 0 -1 0 0 0 0 1 forward_v I I I I #
coedge $-1 $284 $283 $276 $355 forward $179 $-1 #
coedge $-1 $276 $181 $183 $280 reversed $104 $-1 #
coedge $-1 $181 $275 $274 $355 reversed $104 $-1 #
coedge $-1 $189 $184 $181 $278 forward $190 $-1 #
edge $-1 $281 -88.581506607485466 $356 -82.93007836762024 $277 $357 forward 7 unknown #
coedge $-1 $183 $182 $284 $358 reversed $65 $-1 #
edge $-1 $359 128.48421955519325 $281 135.07736442152168 $275 $360 forward 7 unknown #
vertex $-1 $185 $361 #
straight-curve $-1 67.538682210760825 0.71577867042971732 8.190871664747732 0 1 0 I I #
coedge $-1 $274 $186 $189 $288 forward $179 $-1 #
coedge $-1 $186 $274 $279 $358 forward $179 $-1 #
vertex $-1 $187 $362 #
straight-curve $-1 56.876299570987236 -3.2024392320217956 13.842299904612972 1 0 0 I I #
straight-curve $-1 -2.0313017634916974 -3.2024392320217956 123.9747725702139 -0.51503806187062418 0 0.85716730853699208 I I #
edge $-1 $191 -3.2024392320217956 $356 6.0655539137406649 $189 $363 forward 7 unknown #
point $-1 67.538682210760825 -3.2024392320217956 13.842299904612974 #
point $-1 67.538682210760825 -3.2024392320217956 8.1908716647477462 #
edge $-1 $364 1 $364 0 $194 $-1 forward 7 unknown #
vertex $-1 $195 $365 #
ellipse-curve $-1 62.085944126027407 1.4315573408594346 8.7604276583707907 0.85716730853699208 0 0.51503806187062418 0.77255709280593621 0 -1.2857509628054882 1 I I #
point $-1 66.613379026773728 1.4315573408594346 9.7308348218748701 #
plane-surface $-1 0 0 13.842299904612974 0 0 1 1 0 0 forward_v I I I I #
coedge $-1 $306 $305 $298 $366 forward $199 $-1 #
coedge $-1 $298 $201 $203 $302 reversed $119 $-1 #
coedge $-1 $201 $297 $296 $366 reversed $119 $-1 #
coedge $-1 $209 $204 $201 $300 forward $210 $-1 #
edge $-1 $303 -20.980369647614737 $367 -11.422858818505205 $299 $368 forward 7 unknown #
coedge $-1 $203 $202 $306 $369 reversed $74 $-1 #
edge $-1 $370 0 $303 12.8608995106176 $297 $371 forward 7 unknown #
vertex $-1 $205 $372 #
straight-curve $-1 -57.981171381651293 -0.44570508889265881 13.842299904612972 0 1 0 I I #
coedge $-1 $296 $206 $209 $310 reversed $199 $-1 #
coedge $-1 $206 $296 $301 $369 forward $199 $-1 #
vertex $-1 $207 $373 #
straight-curve $-1 -67.538682210760825 -8.0653934337259656 52.809360871727698 0 0 1 I I #
straight-curve $-1 -67.538682210760825 -8.0653934337259656 5.2366783132543304 -0.74314481823134659 0 -0.66913061440640931 I I #
edge $-1 $367 -6.2825730781553304 $211 8.0653934337259656 $305 $374 forward 7 unknown #
point $-1 -67.538682210760825 -8.0653934337259656 13.842299904612974 #
point $-1 -57.981171381651293 -8.0653934337259656 13.842299904612974 #
edge $-1 $375 1 $375 0 $214 $-1 forward 7 unknown #
vertex $-1 $215 $376 #
ellipse-curve $-1 -61.472830054663838 -3.9659744303313076 8.1100233911110227 -0.66913061440640931 0 0.74314481823134659 1.1147172273470198 0 1.003695921609614 1 I I #
point $-1 -61.645209568859052 -3.9659744303313076 10.543185030543276 #
edge $-1 $377 1 $377 0 $218 $-1 forward 7 unknown #
vertex $-1 $219 $378 #
ellipse-curve $-1 -61.472830054663838 2.1831540747606724 8.1100233911110227 -0.66913061440640931 0 0.74314481823134659 1.1147172273470198 0 1.003695921609614 1 I I #
point $-1 -61.645209568859052 2.1831540747606724 10.543185030543276 #
plane-surface $-1 67.538682210760825 0 0 -1 0 0 0 0 1 forward_v I I I I #
coedge $-1 $227 $225 $229 $326 reversed $141 $-1 #
edge $-1 $240 -13.842299904612974 $328 13.842299904612974 $239 $379 forward 7 unknown #
vertex $-1 $326 $380 #
straight-curve $-1 -67.538682210760825 -36.196174335000144 0 0 0 -1 I I #
edge $-1 $324 -36.196174335000144 $328 36.196174335000144 $322 $381 forward 7 unknown #
straight-curve $-1 0 -36.196174335000144 -13.842299904612974 -1 0 0 I I #
vertex $-1 $232 $382 #
straight-curve $-1 0 36.196174335000144 -13.842299904612974 1 0 0 I I #
point $-1 67.538682210760825 36.196174335000144 -13.842299904612974 #
point $-1 67.538682210760825 -36.196174335000144 -13.842299904612974 #
straight-curve $-1 -67.538682210760825 0 13.842299904612974 0 -1 0 I I #
point $-1 -67.538682210760825 36.196174335000144 13.842299904612974 #
point $-1 -67.538682210760825 -36.196174335000144 13.842299904612974 #
straight-curve $-1 67.538682210760825 -36.196174335000144 0 0 0 -1 I I #
straight-curve $-1 67.538682210760825 36.196174335000144 0 0 0 -1 I I #
plane-surface $-1 67.538682210760825 0 0 -1 0 0 0 0 1 forward_v I I I I #
coedge $-1 $341 $252 $263 $350 forward $160 $-1 #
coedge $-1 $252 $341 $266 $352 reversed $160 $-1 #
straight-curve $-1 67.538682210760825 -24.960224844813105 -0.001360015694332084 0 0 1 I I #
coedge $-1 $339 $338 $255 $342 forward $160 $-1 #
edge $-1 $345 9.6711250498597927 $343 20.907074540046832 $341 $383 forward 7 unknown #
vertex $-1 $257 $384 #
straight-curve $-1 0 -36.196174335000144 -3.941990101292089 1 0 0 I I #
vertex $-1 $342 $385 #
straight-curve $-1 0 -24.960224844813105 -3.941990101292089 1 0 0 I I #
point $-1 67.538682210760825 -36.196174335000144 -3.941990101292089 #
point $-1 67.538682210760825 -24.960224844813105 -3.941990101292089 #
straight-curve $-1 -67.538682210760825 -15.289099794953312 3.9365500385147607 0 1 0 I I #
edge $-1 $264 -3.9379100542090928 $345 3.940630085597757 $338 $386 forward 7 unknown #
point $-1 -67.538682210760825 -24.960224844813105 3.9365500385147607 #
edge $-1 $268 -3.9365500385147607 $343 3.941990101292089 $339 $387 forward 7 unknown #
point $-1 -67.538682210760825 -36.196174335000144 3.9365500385147607 #
straight-curve $-1 67.538682210760825 -36.196174335000144 0 0 0 -1 I I #
edge $-1 $356 -10.66238263977359 $359 -7.2666620861875302 $274 $388 forward 7 unknown #
vertex $-1 $355 $389 #
straight-curve $-1 67.538682210760825 6.0655539137406649 96.772378272233212 0 0 1 I I #
edge $-1 $359 -5.3497752433109476 $285 3.9182179024515129 $284 $390 forward 7 unknown #
vertex $-1 $358 $391 #
straight-curve $-1 -2.0313017634916974 6.0655539137406649 123.9747725702139 0.51503806187062418 0 -0.85716730853699208 I I #
point $-1 67.538682210760825 6.0655539137406649 8.1908716647477462 #
point $-1 64.142961657174766 -3.2024392320217956 13.842299904612972 #
straight-curve $-1 67.538682210760825 0 13.842299904612974 0 1 0 I I #
vertex $-1 $291 $392 #
point $-1 62.858501218833339 1.4315573408594346 7.4746766955653028 #
edge $-1 $367 38.967060967114726 $370 47.572682558473367 $296 $393 forward 7 unknown #
vertex $-1 $310 $394 #
straight-curve $-1 -78.96154102926603 6.2825730781553304 13.842299904612972 -1 0 0 I I #
edge $-1 $370 -6.7282781670479892 $307 7.6196883448333068 $306 $395 forward 7 unknown #
vertex $-1 $369 $396 #
straight-curve $-1 -67.538682210760825 6.2825730781553304 5.2366783132543304 0.74314481823134659 0 0.66913061440640931 I I #
point $-1 -57.981171381651293 6.2825730781553304 13.842299904612974 #
point $-1 -67.538682210760825 -8.0653934337259656 5.2366783132543304 #
straight-curve $-1 -67.538682210760825 0 13.842299904612974 0 -1 0 I I #
vertex $-1 $313 $397 #
point $-1 -60.358112827316816 -3.9659744303313076 9.1137193127206366 #
vertex $-1 $317 $398 #
point $-1 -60.358112827316816 2.1831540747606724 9.1137193127206366 #
straight-curve $-1 -67.538682210760825 36.196174335000144 0 0 0 -1 I I #
point $-1 -67.538682210760825 -36.196174335000144 -13.842299904612974 #
straight-curve $-1 -67.538682210760825 0 -13.842299904612974 0 1 0 I I #
point $-1 -67.538682210760825 36.196174335000144 -13.842299904612974 #
straight-curve $-1 -67.538682210760825 -15.289099794953312 -3.941990101292089 0 -1 0 I I #
point $-1 -67.538682210760825 -36.196174335000144 -3.941990101292089 #
point $-1 -67.538682210760825 -24.960224844813105 -3.941990101292089 #
straight-curve $-1 -67.538682210760825 -24.960224844813105 -0.001360015694332084 0 0 -1 I I #
straight-curve $-1 -67.538682210760825 -36.196174335000144 0 0 0 -1 I I #
straight-curve $-1 56.876299570987236 6.0655539137406649 13.842299904612972 -1 0 0 I I #
point $-1 67.538682210760825 6.0655539137406649 13.842299904612974 #
straight-curve $-1 64.142961657174766 0.71577867042971732 13.842299904612972 0 -1 0 I I #
point $-1 64.142961657174766 6.0655539137406649 13.842299904612972 #
point $-1 60.800193163221913 1.4315573408594346 7.9878705655648545 #
straight-curve $-1 -67.538682210760825 6.2825730781553304 52.809360871727698 0 0 -1 I I #
point $-1 -67.538682210760825 6.2825730781553304 13.842299904612974 #
straight-curve $-1 -67.538682210760825 -0.44570508889265881 5.2366783132543269 0 -1 0 I I #
point $-1 -67.538682210760825 6.2825730781553304 5.2366783132543304 #
point $-1 -60.469134133054219 -3.9659744303313076 6.9953061637640008 #
point $-1 -60.469134133054219 2.1831540747606724 6.9953061637640008 #
End-of-ACIS-data 