500 0 6 0           
7 Unknown 11 ACIS 5.0 NT 24 Fri Mar 26 15:23:41 1999 
-1 9.9999999999999995e-007 1e-010 
body $-1 $6 $-1 $7 #
body $-1 $8 $-1 $9 #
body $-1 $10 $-1 $11 #
body $-1 $12 $-1 $13 #
body $-1 $14 $-1 $15 #
body $-1 $16 $-1 $17 #
lump $-1 $-1 $18 $0 #
transform $-1 1 0 0 0 1 0 0 0 1 72.958769493697929 45.659849925213351 9.1432570965998536 1 rotate no_reflect no_shear #
lump $-1 $-1 $19 $1 #
transform $-1 1 0 0 0 1 0 0 0 1 72.958769493697929 45.659849925213351 9.1432570965998536 1 rotate no_reflect no_shear #
lump $-1 $-1 $20 $2 #
transform $-1 1 0 0 0 1 0 0 0 1 72.958769493697929 45.659849925213351 9.1432570965998536 1 rotate no_reflect no_shear #
lump $-1 $-1 $21 $3 #
transform $-1 1 0 0 0 1 0 0 0 1 72.958769493697929 45.659849925213351 9.1432570965998536 1 rotate no_reflect no_shear #
lump $-1 $-1 $22 $4 #
transform $-1 1 0 0 0 1 0 0 0 1 72.958769493697929 45.659849925213351 9.1432570965998536 1 rotate no_reflect no_shear #
lump $-1 $-1 $23 $5 #
transform $-1 1 0 0 0 1 0 0 0 1 72.958769493697929 45.659849925213351 9.1432570965998536 1 rotate no_reflect no_shear #
shell $-1 $-1 $-1 $24 $-1 $6 #
shell $-1 $-1 $-1 $25 $-1 $8 #
shell $-1 $-1 $-1 $26 $-1 $10 #
shell $-1 $-1 $-1 $27 $-1 $12 #
shell $-1 $-1 $-1 $28 $-1 $14 #
shell $-1 $-1 $-1 $29 $-1 $16 #
face $-1 $30 $31 $18 $-1 $32 forward single #
face $-1 $33 $34 $19 $-1 $35 forward single #
face $-1 $36 $37 $20 $-1 $38 reversed single #
face $-1 $39 $40 $21 $-1 $41 forward single #
face $-1 $42 $43 $22 $-1 $44 reversed single #
face $-1 $45 $46 $23 $-1 $47 forward single #
face $-1 $48 $49 $18 $-1 $50 reversed single #
loop $-1 $-1 $51 $24 #
plane-surface $-1 0 0 9.1432570965998536 0 0 1 1 0 0 forward_v I I I I #
face $-1 $52 $53 $19 $-1 $54 reversed single #
loop $-1 $-1 $55 $25 #
plane-surface $-1 -72.958769493697929 0 0 1 0 0 0 0 -1 forward_v I I I I #
face $-1 $56 $57 $20 $-1 $58 reversed single #
loop $-1 $-1 $59 $26 #
plane-surface $-1 -49.830918631132704 -133.47521814093164 118.80309727418154 -1 0 0 0 -0.6018150307709319 0.79863550430605224 forward_v I I I I #
face $-1 $60 $61 $21 $-1 $62 forward single #
loop $-1 $63 $64 $27 #
cone-surface $-1 -57.314013679178977 -40.561874892008966 4.9941511456347305 0 0.6018150307709319 -0.79863550430605224 1.5 0 0 1 I I 0 1 1.5 forward I I I I #
face $-1 $65 $66 $22 $-1 $67 reversed single #
loop $-1 $-1 $68 $28 #
plane-surface $-1 -64.79710872722525 60.544063597808787 173.76066524965836 1 0 0 0 -0.6018150307709319 -0.79863550430605224 forward_v I I I I #
face $-1 $69 $70 $23 $-1 $71 forward single #
loop $-1 $72 $73 $29 #
cone-surface $-1 -57.314013679178977 40.561874892008959 4.9941511456347376 0 -0.6018150307709319 -0.79863550430605224 1.5 0 0 1 I I 0 1 1.5 forward I I I I #
face $-1 $74 $75 $18 $-1 $76 reversed single #
loop $-1 $-1 $77 $30 #
plane-surface $-1 0 0 -9.1432570965998536 0 0 1 1 0 0 forward_v I I I I #
coedge $-1 $78 $79 $80 $81 forward $31 $-1 #
face $-1 $82 $83 $19 $-1 $84 forward single #
loop $-1 $-1 $85 $33 #
plane-surface $-1 0 45.659849925213351 0 0 -1 0 0 0 -1 forward_v I I I I #
coedge $-1 $86 $87 $88 $89 forward $34 $-1 #
face $-1 $90 $91 $20 $-1 $92 reversed single #
loop $-1 $-1 $93 $36 #
plane-surface $-1 -57.314013679178977 -45.659849925213351 2.2681699378846076 0 -0.6018150307709319 0.79863550430605224 1 0 0 forward_v I I I I #
coedge $-1 $94 $95 $96 $97 reversed $37 $-1 #
face $-1 $-1 $98 $21 $-1 $99 forward single #
loop $-1 $100 $101 $39 #
cone-surface $-1 -57.314013679178977 -39.574312901262324 3.6836121457976887 0 0.6018150307709319 -0.79863550430605224 0.75 0 0 1 I I -0.70710678118654757 0.70710678118654757 0.75 forward I I I I #
loop $-1 $-1 $102 $27 #
coedge $-1 $64 $64 $103 $104 reversed $40 $-1 #
face $-1 $105 $106 $22 $-1 $107 reversed single #
loop $-1 $-1 $108 $42 #
plane-surface $-1 -57.314013679178977 -27.271304617909507 57.225737913361428 0 0.6018150307709319 0.79863550430605224 1 0 0 forward_v I I I I #
coedge $-1 $109 $110 $111 $112 reversed $43 $-1 #
face $-1 $-1 $113 $23 $-1 $114 forward single #
loop $-1 $115 $116 $45 #
cone-surface $-1 -57.314013679178977 39.574312901262317 3.6836121457976958 0 -0.6018150307709319 -0.79863550430605224 0.75 0 0 1 I I -0.70710678118654757 0.70710678118654757 0.75 forward I I I I #
loop $-1 $-1 $117 $29 #
coedge $-1 $73 $73 $118 $119 reversed $46 $-1 #
face $-1 $120 $121 $18 $-1 $122 reversed single #
loop $-1 $-1 $123 $48 #
plane-surface $-1 0 -45.659849925213351 0 0 1 0 0 0 1 forward_v I I I I #
coedge $-1 $124 $125 $126 $127 forward $49 $-1 #
coedge $-1 $128 $51 $129 $130 forward $31 $-1 #
coedge $-1 $51 $128 $131 $132 forward $31 $-1 #
coedge $-1 $133 $134 $51 $81 reversed $135 $-1 #
edge $-1 $136 -45.659849925213351 $137 45.659849925213351 $80 $138 forward 7 unknown #
face $-1 $139 $140 $19 $-1 $141 reversed single #
loop $-1 $-1 $88 $52 #
plane-surface $-1 -77.039599876934275 0 2.7024594968404863 0 0 1 1 0 0 forward_v I I I I #
coedge $-1 $142 $143 $87 $144 forward $53 $-1 #
coedge $-1 $145 $55 $146 $147 reversed $34 $-1 #
coedge $-1 $55 $145 $85 $144 reversed $34 $-1 #
coedge $-1 $148 $149 $55 $89 reversed $83 $-1 #
edge $-1 $150 -45.659849925213351 $151 45.659849925213351 $88 $152 forward 7 unknown #
face $-1 $153 $154 $20 $-1 $155 reversed single #
loop $-1 $-1 $156 $56 #
plane-surface $-1 -64.79710872722525 -133.47521814093164 118.80309727418154 1 0 0 0 0.6018150307709319 -0.79863550430605224 forward_v I I I I #
coedge $-1 $157 $158 $159 $160 reversed $57 $-1 #
coedge $-1 $95 $59 $161 $162 reversed $37 $-1 #
coedge $-1 $59 $94 $157 $163 reversed $37 $-1 #
coedge $-1 $159 $164 $59 $97 forward $165 $-1 #
edge $-1 $166 21.077759145252472 $167 30.201307776324349 $96 $168 forward 7 unknown #
loop $-1 $-1 $103 $60 #
plane-surface $-1 -57.314013679178977 -45.659849925213351 2.2681699378846076 0 -0.6018150307709319 0.79863550430605224 1 0 0 forward_v I I I I #
loop $-1 $-1 $169 $39 #
coedge $-1 $101 $101 $102 $170 reversed $61 $-1 #
coedge $-1 $102 $102 $101 $170 forward $63 $-1 #
coedge $-1 $103 $103 $64 $104 forward $98 $-1 #
edge $-1 $171 -3.7830977073651311e-015 $171 6.2831853071795969 $103 $172 forward 7 unknown #
face $-1 $173 $174 $22 $-1 $175 forward single #
loop $-1 $-1 $176 $65 #
plane-surface $-1 -49.830918631132704 60.544063597808787 173.76066524965836 -1 0 0 0 0.6018150307709319 0.79863550430605224 forward_v I I I I #
coedge $-1 $177 $178 $179 $180 reversed $66 $-1 #
coedge $-1 $110 $68 $181 $182 reversed $43 $-1 #
coedge $-1 $68 $109 $177 $183 reversed $43 $-1 #
coedge $-1 $179 $184 $68 $112 forward $174 $-1 #
edge $-1 $185 -15.387818126308957 $186 -6.2642694952370874 $111 $187 forward 7 unknown #
loop $-1 $-1 $118 $69 #
plane-surface $-1 -57.314013679178977 -27.271304617909507 57.225737913361428 0 0.6018150307709319 0.79863550430605224 1 0 0 forward_v I I I I #
loop $-1 $-1 $188 $45 #
coedge $-1 $116 $116 $117 $189 reversed $70 $-1 #
coedge $-1 $117 $117 $116 $189 forward $72 $-1 #
coedge $-1 $118 $118 $73 $119 forward $113 $-1 #
edge $-1 $190 2.7140594614013142e-015 $190 6.2831853071796031 $118 $191 forward 7 unknown #
face $-1 $192 $193 $18 $-1 $194 reversed single #
loop $-1 $-1 $195 $74 #
plane-surface $-1 -72.958769493697929 0 0 1 0 0 0 0 -1 forward_v I I I I #
coedge $-1 $196 $131 $195 $197 forward $75 $-1 #
coedge $-1 $198 $77 $196 $199 forward $49 $-1 #
coedge $-1 $77 $198 $200 $201 forward $49 $-1 #
coedge $-1 $134 $133 $77 $127 reversed $135 $-1 #
edge $-1 $202 -45.659849925213351 $203 45.659849925213351 $126 $204 forward 7 unknown #
coedge $-1 $79 $78 $205 $206 forward $31 $-1 #
coedge $-1 $207 $208 $78 $130 reversed $193 $-1 #
edge $-1 $137 -72.958769493697929 $209 72.958769493697929 $129 $210 forward 7 unknown #
coedge $-1 $123 $211 $79 $132 reversed $75 $-1 #
edge $-1 $212 -72.958769493697929 $136 72.958769493697929 $131 $213 forward 7 unknown #
coedge $-1 $126 $80 $211 $214 forward $135 $-1 #
coedge $-1 $80 $126 $207 $215 reversed $135 $-1 #
loop $-1 $-1 $133 $192 #
vertex $-1 $81 $216 #
vertex $-1 $81 $217 #
straight-curve $-1 72.958769493697929 0 9.1432570965998536 0 1 0 I I #
face $-1 $218 $219 $19 $-1 $220 reversed single #
loop $-1 $-1 $221 $82 #
plane-surface $-1 -77.039599876934275 0 -0.29754050315951375 0 0 1 1 0 0 forward_v I I I I #
coedge $-1 $222 $85 $223 $224 reversed $53 $-1 #
coedge $-1 $85 $222 $148 $225 reversed $53 $-1 #
edge $-1 $150 -2.7024594968404863 $226 0.29754050315951375 $85 $227 forward 7 unknown #
coedge $-1 $87 $86 $221 $228 forward $34 $-1 #
coedge $-1 $229 $230 $86 $147 forward $231 $-1 #
edge $-1 $232 -0.29754050315951375 $151 2.7024594968404863 $146 $233 forward 7 unknown #
coedge $-1 $234 $88 $143 $225 forward $83 $-1 #
coedge $-1 $88 $234 $229 $235 forward $83 $-1 #
vertex $-1 $144 $236 #
vertex $-1 $235 $237 #
straight-curve $-1 -72.958769493697929 0 2.7024594968404863 0 -1 0 I I #
face $-1 $-1 $165 $20 $-1 $238 forward single #
loop $-1 $-1 $239 $90 #
plane-surface $-1 0 -45.659849925213351 0 0 1 0 0 0 1 forward_v I I I I #
coedge $-1 $240 $241 $242 $243 reversed $91 $-1 #
coedge $-1 $244 $93 $95 $163 forward $57 $-1 #
coedge $-1 $93 $244 $240 $245 forward $57 $-1 #
coedge $-1 $242 $96 $93 $160 forward $165 $-1 #
edge $-1 $167 21.173911791543215 $246 36.140101887635765 $159 $247 forward 7 unknown #
coedge $-1 $248 $249 $94 $162 forward $154 $-1 #
edge $-1 $250 -57.133378699206162 $166 -50.258291540490916 $161 $251 forward 7 unknown #
edge $-1 $167 -11.423920652011935 $250 0 $95 $252 forward 7 unknown #
coedge $-1 $96 $242 $248 $253 forward $165 $-1 #
loop $-1 $-1 $242 $153 #
vertex $-1 $162 $254 #
vertex $-1 $97 $255 #
straight-curve $-1 -49.830918631132704 -66.737609070465822 9.1432570965998536 0 1 0 I I #
coedge $-1 $169 $169 $-1 $256 reversed $100 $-1 #
edge $-1 $257 0 $257 6.2831853071796004 $101 $258 forward 7 unknown #
vertex $-1 $104 $259 #
ellipse-curve $-1 -57.314013679178977 -41.098075609677409 5.7057135172422324 0 -0.6018150307709319 0.79863550430605224 1.5 0 0 1 I I #
face $-1 $-1 $260 $22 $-1 $261 reversed single #
loop $-1 $-1 $111 $105 #
plane-surface $-1 0 0 9.1432570965998536 0 0 1 1 0 0 forward_v I I I I #
coedge $-1 $262 $263 $264 $265 reversed $106 $-1 #
coedge $-1 $266 $108 $110 $183 forward $66 $-1 #
coedge $-1 $108 $266 $262 $267 forward $66 $-1 #
coedge $-1 $264 $111 $108 $180 forward $174 $-1 #
edge $-1 $186 -36.140101887635765 $268 -21.173911791543215 $179 $269 forward 7 unknown #
coedge $-1 $270 $271 $109 $182 forward $260 $-1 #
edge $-1 $272 -84.612162686944572 $185 -77.737075528229326 $181 $273 forward 7 unknown #
edge $-1 $186 79.895779198414786 $272 91.31969985042673 $110 $274 forward 7 unknown #
coedge $-1 $111 $264 $270 $275 forward $174 $-1 #
vertex $-1 $112 $276 #
vertex $-1 $112 $277 #
straight-curve $-1 -64.79710872722525 30.272031798904393 9.1432570965998536 0 -1 0 I I #
coedge $-1 $188 $188 $-1 $278 reversed $115 $-1 #
edge $-1 $279 0 $279 6.2831853071796004 $116 $280 forward 7 unknown #
vertex $-1 $119 $281 #
ellipse-curve $-1 -57.314013679178977 41.098075609677402 5.7057135172422369 0 0.6018150307709319 0.79863550430605224 1.5 0 0 1 I I #
face $-1 $-1 $135 $18 $-1 $282 reversed single #
loop $-1 $-1 $207 $120 #
plane-surface $-1 0 45.659849925213351 0 0 -1 0 0 0 -1 forward_v I I I I #
coedge $-1 $205 $283 $123 $197 reversed $121 $-1 #
coedge $-1 $211 $123 $124 $199 reversed $75 $-1 #
edge $-1 $212 -9.1432570965998536 $284 9.1432570965998536 $195 $285 forward 7 unknown #
coedge $-1 $125 $124 $283 $286 forward $49 $-1 #
edge $-1 $203 -72.958769493697929 $284 72.958769493697929 $196 $287 forward 7 unknown #
coedge $-1 $208 $207 $125 $201 reversed $193 $-1 #
edge $-1 $288 -72.958769493697929 $202 72.958769493697929 $200 $289 forward 7 unknown #
vertex $-1 $127 $290 #
vertex $-1 $214 $291 #
straight-curve $-1 72.958769493697929 0 -9.1432570965998536 0 -1 0 I I #
coedge $-1 $292 $195 $128 $206 reversed $121 $-1 #
edge $-1 $209 -45.659849925213351 $212 45.659849925213351 $205 $293 forward 7 unknown #
coedge $-1 $200 $129 $134 $215 forward $193 $-1 #
coedge $-1 $129 $200 $292 $294 reversed $193 $-1 #
vertex $-1 $130 $295 #
straight-curve $-1 0 45.659849925213351 9.1432570965998536 -1 0 0 I I #
coedge $-1 $131 $196 $133 $214 reversed $75 $-1 #
vertex $-1 $206 $296 #
straight-curve $-1 0 -45.659849925213351 9.1432570965998536 1 0 0 I I #
edge $-1 $136 -9.1432570965998536 $203 9.1432570965998536 $133 $297 forward 7 unknown #
edge $-1 $137 -9.1432570965998536 $202 9.1432570965998536 $134 $298 forward 7 unknown #
point $-1 72.958769493697929 -45.659849925213351 9.1432570965998536 #
point $-1 72.958769493697929 45.659849925213351 9.1432570965998536 #
face $-1 $-1 $231 $19 $-1 $299 reversed single #
loop $-1 $-1 $300 $139 #
plane-surface $-1 -81.120430260170622 0 1.2024594968404863 1 0 0 0 0 -1 forward_v I I I I #
coedge $-1 $301 $223 $145 $228 reversed $140 $-1 #
coedge $-1 $143 $142 $300 $302 reversed $53 $-1 #
coedge $-1 $221 $303 $142 $224 forward $140 $-1 #
edge $-1 $304 -4.0808303832363464 $226 4.0808303832363464 $142 $305 forward 7 unknown #
edge $-1 $150 -4.0808303832363464 $306 4.0808303832363464 $143 $307 forward 7 unknown #
vertex $-1 $144 $308 #
straight-curve $-1 -72.958769493697929 45.659849925213351 0 0 0 -1 I I #
edge $-1 $232 -45.659849925213351 $226 45.659849925213351 $221 $309 forward 7 unknown #
coedge $-1 $310 $146 $149 $235 reversed $231 $-1 #
coedge $-1 $146 $310 $301 $311 reversed $231 $-1 #
loop $-1 $-1 $146 $218 #
vertex $-1 $147 $312 #
straight-curve $-1 -72.958769493697929 -45.659849925213351 0 0 0 1 I I #
coedge $-1 $149 $148 $313 $314 forward $83 $-1 #
edge $-1 $315 -4.0808303832363464 $151 4.0808303832363464 $229 $316 forward 7 unknown #
point $-1 -72.958769493697929 45.659849925213351 2.7024594968404863 #
point $-1 -72.958769493697929 -45.659849925213351 2.7024594968404863 #
plane-surface $-1 0 0 9.1432570965998536 0 0 1 1 0 0 forward_v I I I I #
coedge $-1 $249 $248 $241 $317 forward $154 $-1 #
coedge $-1 $241 $156 $158 $245 reversed $91 $-1 #
coedge $-1 $156 $240 $239 $317 reversed $91 $-1 #
coedge $-1 $164 $159 $156 $243 forward $165 $-1 #
edge $-1 $246 -30.201307776324349 $318 -21.077759145252472 $242 $319 forward 7 unknown #
coedge $-1 $158 $157 $249 $320 reversed $57 $-1 #
edge $-1 $321 0 $246 11.423920652011935 $240 $322 forward 7 unknown #
vertex $-1 $160 $323 #
straight-curve $-1 -28.657006839589489 -36.536301294141481 9.1432570965998536 -1 0 0 I I #
coedge $-1 $239 $161 $164 $253 reversed $154 $-1 #
coedge $-1 $161 $239 $244 $320 forward $154 $-1 #
vertex $-1 $162 $324 #
straight-curve $-1 -49.830918631132704 -45.659849925213351 59.401548637090769 0 0 1 I I #
straight-curve $-1 -49.830918631132704 -45.659849925213351 2.2681699378846076 0 -0.79863550430605224 -0.6018150307709319 I I #
edge $-1 $318 -64.79710872722525 $166 -49.830918631132704 $248 $325 forward 7 unknown #
point $-1 -49.830918631132704 -45.659849925213351 9.1432570965998536 #
point $-1 -49.830918631132704 -36.536301294141474 9.1432570965998536 #
edge $-1 $326 1 $326 0 $169 $-1 forward 7 unknown #
vertex $-1 $170 $327 #
ellipse-curve $-1 -57.314013679178977 -40.025674174340523 4.2825887740272277 0 -0.6018150307709319 0.79863550430605224 1.5 0 0 1 I I #
point $-1 -55.814013679178977 -41.098075609677416 5.7057135172422324 #
loop $-1 $-1 $181 $173 #
plane-surface $-1 0 45.659849925213351 0 0 -1 0 0 0 -1 forward_v I I I I #
coedge $-1 $263 $176 $178 $267 reversed $106 $-1 #
coedge $-1 $176 $262 $328 $329 reversed $106 $-1 #
coedge $-1 $184 $179 $176 $265 forward $174 $-1 #
edge $-1 $268 6.2642694952370874 $330 15.387818126308957 $264 $331 forward 7 unknown #
coedge $-1 $178 $177 $271 $332 reversed $66 $-1 #
edge $-1 $333 -91.31969985042673 $268 -79.895779198414786 $262 $334 forward 7 unknown #
vertex $-1 $180 $335 #
straight-curve $-1 -28.657006839589489 36.536301294141481 9.1432570965998536 1 0 0 I I #
coedge $-1 $328 $181 $184 $275 reversed $260 $-1 #
coedge $-1 $181 $328 $266 $332 forward $260 $-1 #
vertex $-1 $182 $336 #
straight-curve $-1 -64.79710872722525 45.659849925213351 86.88033262482918 0 0 1 I I #
straight-curve $-1 -64.79710872722525 -27.271304617909507 57.225737913361428 0 0.79863550430605224 -0.6018150307709319 I I #
edge $-1 $330 49.830918631132704 $185 64.79710872722525 $270 $337 forward 7 unknown #
point $-1 -64.79710872722525 45.659849925213351 9.1432570965998536 #
point $-1 -64.79710872722525 36.536301294141481 9.1432570965998536 #
edge $-1 $338 1 $338 0 $188 $-1 forward 7 unknown #
vertex $-1 $189 $339 #
ellipse-curve $-1 -57.314013679178977 40.025674174340516 4.2825887740272348 0 0.6018150307709319 0.79863550430605224 1.5 0 0 1 I I #
point $-1 -55.814013679178977 41.098075609677409 5.7057135172422395 #
plane-surface $-1 72.958769493697929 0 0 -1 0 0 0 0 1 forward_v I I I I #
coedge $-1 $195 $292 $198 $286 reversed $121 $-1 #
vertex $-1 $286 $340 #
straight-curve $-1 -72.958769493697929 -45.659849925213351 0 0 0 -1 I I #
edge $-1 $284 -45.659849925213351 $288 45.659849925213351 $283 $341 forward 7 unknown #
straight-curve $-1 0 -45.659849925213351 -9.1432570965998536 -1 0 0 I I #
vertex $-1 $201 $342 #
straight-curve $-1 0 45.659849925213351 -9.1432570965998536 1 0 0 I I #
point $-1 72.958769493697929 45.659849925213351 -9.1432570965998536 #
point $-1 72.958769493697929 -45.659849925213351 -9.1432570965998536 #
coedge $-1 $283 $205 $208 $294 forward $121 $-1 #
straight-curve $-1 -72.958769493697929 0 9.1432570965998536 0 -1 0 I I #
edge $-1 $209 -9.1432570965998536 $288 9.1432570965998536 $208 $343 forward 7 unknown #
point $-1 -72.958769493697929 45.659849925213351 9.1432570965998536 #
point $-1 -72.958769493697929 -45.659849925213351 9.1432570965998536 #
straight-curve $-1 72.958769493697929 -45.659849925213351 0 0 0 -1 I I #
straight-curve $-1 72.958769493697929 45.659849925213351 0 0 0 -1 I I #
plane-surface $-1 0 -45.659849925213351 0 0 1 0 0 0 1 forward_v I I I I #
coedge $-1 $344 $313 $222 $302 forward $219 $-1 #
coedge $-1 $303 $221 $230 $311 forward $140 $-1 #
edge $-1 $306 -1.5 $304 1.5 $222 $345 forward 7 unknown #
coedge $-1 $223 $301 $344 $346 forward $140 $-1 #
vertex $-1 $224 $347 #
straight-curve $-1 -77.039599876934275 45.659849925213351 -0.29754050315951375 1 0 0 I I #
vertex $-1 $225 $348 #
straight-curve $-1 -77.039599876934275 45.659849925213351 2.7024594968404863 -1 0 0 I I #
point $-1 -72.958769493697929 45.659849925213351 -0.29754050315951375 #
straight-curve $-1 -72.958769493697929 0 -0.29754050315951375 0 1 0 I I #
coedge $-1 $230 $229 $349 $350 forward $231 $-1 #
edge $-1 $232 -4.0808303832363464 $351 4.0808303832363464 $230 $352 forward 7 unknown #
point $-1 -72.958769493697929 -45.659849925213351 -0.29754050315951375 #
coedge $-1 $300 $349 $234 $314 reversed $219 $-1 #
edge $-1 $306 -45.659849925213351 $315 45.659849925213351 $313 $353 forward 7 unknown #
vertex $-1 $314 $354 #
straight-curve $-1 -77.039599876934275 -45.659849925213351 2.7024594968404863 1 0 0 I I #
edge $-1 $318 50.258291540490916 $321 57.133378699206162 $239 $355 forward 7 unknown #
vertex $-1 $253 $356 #
straight-curve $-1 -64.79710872722525 -66.737609070465822 9.1432570965998536 0 -1 0 I I #
edge $-1 $321 -36.140101887635765 $250 -21.173911791543215 $249 $357 forward 7 unknown #
vertex $-1 $320 $358 #
straight-curve $-1 -64.79710872722525 -45.659849925213351 2.2681699378846076 0 0.79863550430605224 0.6018150307709319 I I #
point $-1 -64.79710872722525 -36.536301294141474 9.1432570965998536 #
point $-1 -49.830918631132704 -45.659849925213351 2.2681699378846076 #
straight-curve $-1 0 -45.659849925213351 9.1432570965998536 1 0 0 I I #
vertex $-1 $256 $359 #
point $-1 -55.814013679178977 -40.025674174340523 4.2825887740272277 #
coedge $-1 $271 $270 $263 $329 forward $260 $-1 #
edge $-1 $330 77.737075528229326 $333 84.612162686944572 $328 $360 forward 7 unknown #
vertex $-1 $275 $361 #
straight-curve $-1 -49.830918631132704 30.272031798904393 9.1432570965998536 0 1 0 I I #
edge $-1 $333 21.173911791543215 $272 36.140101887635765 $271 $362 forward 7 unknown #
vertex $-1 $332 $363 #
straight-curve $-1 -49.830918631132704 -27.271304617909507 57.225737913361428 0 -0.79863550430605224 0.6018150307709319 I I #
point $-1 -49.830918631132704 36.536301294141481 9.1432570965998536 #
point $-1 -64.79710872722525 45.659849925213351 2.2681699378846076 #
straight-curve $-1 0 45.659849925213351 9.1432570965998536 -1 0 0 I I #
vertex $-1 $278 $364 #
point $-1 -55.814013679178977 40.025674174340516 4.2825887740272348 #
point $-1 -72.958769493697929 -45.659849925213351 -9.1432570965998536 #
straight-curve $-1 -72.958769493697929 0 -9.1432570965998536 0 1 0 I I #
point $-1 -72.958769493697929 45.659849925213351 -9.1432570965998536 #
straight-curve $-1 -72.958769493697929 45.659849925213351 0 0 0 -1 I I #
coedge $-1 $349 $300 $303 $346 reversed $219 $-1 #
straight-curve $-1 -81.120430260170622 45.659849925213351 1.2024594968404863 0 0 -1 I I #
edge $-1 $351 -45.659849925213351 $304 45.659849925213351 $344 $365 forward 7 unknown #
point $-1 -81.120430260170622 45.659849925213351 -0.29754050315951375 #
point $-1 -81.120430260170622 45.659849925213351 2.7024594968404863 #
coedge $-1 $313 $344 $310 $350 reversed $219 $-1 #
edge $-1 $315 -1.5 $351 1.5 $349 $366 forward 7 unknown #
vertex $-1 $346 $367 #
straight-curve $-1 -77.039599876934275 -45.659849925213351 -0.29754050315951375 -1 0 0 I I #
straight-curve $-1 -81.120430260170622 0 2.7024594968404863 0 -1 0 I I #
point $-1 -81.120430260170622 -45.659849925213351 2.7024594968404863 #
straight-curve $-1 -64.79710872722525 -45.659849925213351 59.401548637090769 0 0 -1 I I #
point $-1 -64.79710872722525 -45.659849925213351 9.1432570965998536 #
straight-curve $-1 -28.657006839589489 -45.659849925213351 2.2681699378846067 1 0 0 I I #
point $-1 -64.79710872722525 -45.659849925213351 2.2681699378846076 #
point $-1 -57.314013679178977 -39.122951628184126 3.0846355175681497 #
straight-curve $-1 -49.830918631132704 45.659849925213351 86.88033262482918 0 0 -1 I I #
point $-1 -49.830918631132704 45.659849925213351 9.1432570965998536 #
straight-curve $-1 -28.657006839589489 45.659849925213351 2.2681699378846112 -1 0 0 I I #
point $-1 -49.830918631132704 45.659849925213351 2.2681699378846076 #
point $-1 -57.314013679178977 39.122951628184119 3.0846355175681568 #
straight-curve $-1 -81.120430260170622 0 -0.29754050315951375 0 1 0 I I #
straight-curve $-1 -81.120430260170622 -45.659849925213351 1.2024594968404863 0 0 -1 I I #
point $-1 -81.120430260170622 -45.659849925213351 -0.29754050315951375 #
End-of-ACIS-data 