500 0 6 0           
7 Unknown 11 ACIS 5.0 NT 24 Fri Mar 26 00:16:27 1999 
-1 9.9999999999999995e-007 1e-010 
body $-1 $6 $-1 $7 #
body $-1 $8 $-1 $9 #
body $-1 $10 $-1 $11 #
body $-1 $12 $-1 $13 #
body $-1 $14 $-1 $15 #
body $-1 $16 $-1 $17 #
lump $-1 $-1 $18 $0 #
transform $-1 1 0 0 0 1 0 0 0 1 60.590227973265783 39.964550313357989 17.691390582150344 1 rotate no_reflect no_shear #
lump $-1 $-1 $19 $1 #
transform $-1 1 0 0 0 1 0 0 0 1 60.590227973265783 39.964550313357989 17.691390582150344 1 rotate no_reflect no_shear #
lump $-1 $-1 $20 $2 #
transform $-1 1 0 0 0 1 0 0 0 1 60.590227973265783 39.964550313357989 17.691390582150344 1 rotate no_reflect no_shear #
lump $-1 $-1 $21 $3 #
transform $-1 1 0 0 0 1 0 0 0 1 60.590227973265783 39.964550313357989 17.691390582150344 1 rotate no_reflect no_shear #
lump $-1 $-1 $22 $4 #
transform $-1 1 0 0 0 1 0 0 0 1 60.590227973265783 39.964550313357989 17.691390582150344 1 rotate no_reflect no_shear #
lump $-1 $-1 $23 $5 #
transform $-1 1 0 0 0 1 0 0 0 1 60.590227973265783 39.964550313357989 17.691390582150344 1 rotate no_reflect no_shear #
shell $-1 $-1 $-1 $24 $-1 $6 #
shell $-1 $-1 $-1 $25 $-1 $8 #
shell $-1 $-1 $-1 $26 $-1 $10 #
shell $-1 $-1 $-1 $27 $-1 $12 #
shell $-1 $-1 $-1 $28 $-1 $14 #
shell $-1 $-1 $-1 $29 $-1 $16 #
face $-1 $30 $31 $18 $-1 $32 forward single #
face $-1 $33 $34 $19 $-1 $35 forward single #
face $-1 $36 $37 $20 $-1 $38 forward single #
face $-1 $39 $40 $21 $-1 $41 reversed single #
face $-1 $42 $43 $22 $-1 $44 forward single #
face $-1 $45 $46 $23 $-1 $47 forward single #
face $-1 $48 $49 $18 $-1 $50 reversed single #
loop $-1 $-1 $51 $24 #
plane-surface $-1 0 0 17.691390582150344 0 0 1 1 0 0 forward_v I I I I #
face $-1 $52 $53 $19 $-1 $54 reversed single #
loop $-1 $-1 $55 $25 #
plane-surface $-1 -60.590227973265783 0 0 1 0 0 0 0 -1 forward_v I I I I #
face $-1 $56 $57 $20 $-1 $58 reversed single #
loop $-1 $-1 $59 $26 #
plane-surface $-1 60.590227973265783 0 0 -1 0 0 0 0 1 forward_v I I I I #
face $-1 $60 $61 $21 $-1 $62 reversed single #
loop $-1 $-1 $63 $27 #
plane-surface $-1 -38.377536268828223 49.058552549908939 149.76507866071057 1 0 0 0 -0.6018150307709319 -0.79863550430605224 forward_v I I I I #
face $-1 $64 $65 $22 $-1 $66 forward single #
loop $-1 $67 $68 $28 #
cone-surface $-1 -31.650133028966835 30.363100972623041 9.8235348496327557 0 -0.6018150307709319 -0.79863550430605224 3 0 0 1 I I 0 1 3 forward I I I I #
face $-1 $69 $70 $23 $-1 $71 forward single #
loop $-1 $72 $73 $29 #
cone-surface $-1 -21.559028169174752 30.363100972623041 9.8235348496327557 0 -0.6018150307709319 -0.79863550430605224 3 0 0 1 I I 0 1 3 forward I I I I #
face $-1 $74 $75 $18 $-1 $76 reversed single #
loop $-1 $-1 $77 $30 #
plane-surface $-1 0 0 -17.691390582150344 0 0 1 1 0 0 forward_v I I I I #
coedge $-1 $78 $79 $80 $81 forward $31 $-1 #
face $-1 $82 $83 $19 $-1 $84 reversed single #
loop $-1 $-1 $85 $33 #
plane-surface $-1 0 0 -17.691390582150344 0 0 1 1 0 0 forward_v I I I I #
coedge $-1 $86 $87 $88 $89 forward $34 $-1 #
face $-1 $90 $91 $20 $-1 $92 forward single #
loop $-1 $-1 $93 $36 #
plane-surface $-1 0 -39.964550313357989 0 0 1 0 0 0 1 forward_v I I I I #
coedge $-1 $94 $95 $96 $97 forward $37 $-1 #
face $-1 $98 $99 $21 $-1 $100 reversed single #
loop $-1 $-1 $101 $39 #
plane-surface $-1 -26.604580599070793 -23.869667274388519 52.98606411381499 0 0.6018150307709319 0.79863550430605224 1 0 0 forward_v I I I I #
coedge $-1 $102 $103 $104 $105 reversed $40 $-1 #
face $-1 $-1 $106 $22 $-1 $107 forward single #
loop $-1 $108 $109 $42 #
cone-surface $-1 -31.650133028966835 28.357231473947508 7.1616561714037736 0 -0.6018150307709319 -0.79863550430605224 1.5 0 0 1 I I -0.70710678118654757 0.70710678118654757 1.5 forward I I I I #
loop $-1 $-1 $110 $28 #
coedge $-1 $68 $68 $111 $112 reversed $43 $-1 #
face $-1 $-1 $113 $23 $-1 $114 forward single #
loop $-1 $115 $116 $45 #
cone-surface $-1 -21.559028169174752 28.357231473947508 7.1616561714037736 0 -0.6018150307709319 -0.79863550430605224 1.5 0 0 1 I I -0.70710678118654757 0.70710678118654757 1.5 forward I I I I #
loop $-1 $-1 $117 $29 #
coedge $-1 $73 $73 $118 $119 reversed $46 $-1 #
face $-1 $120 $121 $18 $-1 $122 reversed single #
loop $-1 $-1 $123 $48 #
plane-surface $-1 0 -39.964550313357989 0 0 1 0 0 0 1 forward_v I I I I #
coedge $-1 $124 $125 $126 $127 forward $49 $-1 #
coedge $-1 $128 $51 $129 $130 forward $31 $-1 #
coedge $-1 $51 $128 $131 $132 forward $31 $-1 #
coedge $-1 $133 $134 $51 $81 reversed $135 $-1 #
edge $-1 $136 -39.964550313357989 $137 39.964550313357989 $80 $138 forward 7 unknown #
face $-1 $139 $140 $19 $-1 $141 reversed single #
loop $-1 $-1 $142 $52 #
plane-surface $-1 -71.696573825484563 -18.208466292829804 0 0 1 0 0 0 1 forward_v I I I I #
coedge $-1 $143 $144 $87 $145 forward $53 $-1 #
coedge $-1 $146 $55 $147 $148 reversed $34 $-1 #
coedge $-1 $55 $146 $85 $145 reversed $34 $-1 #
coedge $-1 $149 $150 $55 $89 reversed $151 $-1 #
edge $-1 $152 -17.691390582150344 $153 17.691390582150344 $88 $154 forward 7 unknown #
face $-1 $155 $156 $20 $-1 $157 reversed single #
loop $-1 $-1 $158 $56 #
plane-surface $-1 68.886802844663336 0 9.9908668881069822 0 0 1 1 0 0 forward_v I I I I #
coedge $-1 $159 $160 $95 $161 forward $57 $-1 #
coedge $-1 $162 $59 $163 $164 reversed $37 $-1 #
coedge $-1 $59 $162 $93 $161 reversed $37 $-1 #
coedge $-1 $165 $166 $59 $97 reversed $91 $-1 #
edge $-1 $167 -39.964550313357989 $168 39.964550313357989 $96 $169 forward 7 unknown #
face $-1 $170 $171 $21 $-1 $172 reversed single #
loop $-1 $-1 $173 $60 #
plane-surface $-1 -14.831624929313366 49.058552549908939 149.76507866071057 -1 0 0 0 0.6018150307709319 0.79863550430605224 forward_v I I I I #
coedge $-1 $174 $175 $176 $177 reversed $61 $-1 #
coedge $-1 $103 $63 $178 $179 reversed $40 $-1 #
coedge $-1 $63 $102 $174 $180 reversed $40 $-1 #
coedge $-1 $176 $181 $63 $105 forward $182 $-1 #
edge $-1 $183 -15.43527403840352 $184 1.5613307380280972 $104 $185 forward 7 unknown #
loop $-1 $-1 $111 $64 #
plane-surface $-1 -26.604580599070793 -23.869667274388519 52.98606411381499 0 0.6018150307709319 0.79863550430605224 1 0 0 forward_v I I I I #
loop $-1 $-1 $186 $42 #
coedge $-1 $109 $109 $110 $187 reversed $65 $-1 #
coedge $-1 $110 $110 $109 $187 forward $67 $-1 #
coedge $-1 $111 $111 $68 $112 forward $106 $-1 #
edge $-1 $188 -5.759829694736795e-016 $188 6.2831853071795996 $111 $189 forward 7 unknown #
loop $-1 $-1 $118 $69 #
plane-surface $-1 -26.604580599070793 -23.869667274388519 52.98606411381499 0 0.6018150307709319 0.79863550430605224 1 0 0 forward_v I I I I #
loop $-1 $-1 $190 $45 #
coedge $-1 $116 $116 $117 $191 reversed $70 $-1 #
coedge $-1 $117 $117 $116 $191 forward $72 $-1 #
coedge $-1 $118 $118 $73 $119 forward $113 $-1 #
edge $-1 $192 -5.759829694736795e-016 $192 6.2831853071795996 $118 $193 forward 7 unknown #
face $-1 $194 $195 $18 $-1 $196 reversed single #
loop $-1 $-1 $197 $74 #
plane-surface $-1 -60.590227973265783 0 0 1 0 0 0 0 -1 forward_v I I I I #
coedge $-1 $198 $131 $199 $200 forward $75 $-1 #
coedge $-1 $201 $77 $198 $202 forward $49 $-1 #
coedge $-1 $77 $201 $203 $204 forward $49 $-1 #
coedge $-1 $134 $133 $77 $127 reversed $135 $-1 #
edge $-1 $205 -39.964550313357989 $206 39.964550313357989 $126 $207 forward 7 unknown #
coedge $-1 $79 $78 $208 $209 forward $31 $-1 #
coedge $-1 $210 $211 $78 $130 reversed $195 $-1 #
edge $-1 $137 -60.590227973265783 $212 60.590227973265783 $129 $213 forward 7 unknown #
coedge $-1 $123 $214 $79 $132 reversed $75 $-1 #
edge $-1 $215 -60.590227973265783 $136 60.590227973265783 $131 $216 forward 7 unknown #
coedge $-1 $126 $80 $214 $217 forward $135 $-1 #
coedge $-1 $80 $126 $210 $218 reversed $135 $-1 #
loop $-1 $-1 $133 $194 #
vertex $-1 $81 $219 #
vertex $-1 $81 $220 #
straight-curve $-1 60.590227973265783 0 17.691390582150344 0 1 0 I I #
face $-1 $221 $151 $19 $-1 $222 reversed single #
loop $-1 $-1 $223 $82 #
plane-surface $-1 -82.802919677703343 -15.155301688105478 0 1 0 0 0 0 -1 forward_v I I I I #
coedge $-1 $224 $225 $226 $227 forward $83 $-1 #
coedge $-1 $228 $85 $224 $229 forward $53 $-1 #
coedge $-1 $85 $228 $149 $230 forward $53 $-1 #
edge $-1 $152 12.102137083381152 $231 18.208466292829804 $85 $232 forward 7 unknown #
coedge $-1 $87 $86 $233 $234 forward $34 $-1 #
coedge $-1 $235 $236 $86 $148 forward $237 $-1 #
edge $-1 $238 -18.208466292829804 $153 -12.102137083381152 $147 $239 forward 7 unknown #
coedge $-1 $240 $88 $144 $230 reversed $151 $-1 #
coedge $-1 $88 $240 $235 $241 reversed $151 $-1 #
loop $-1 $-1 $88 $139 #
vertex $-1 $145 $242 #
vertex $-1 $241 $243 #
straight-curve $-1 -60.590227973265783 -12.102137083381152 0 0 0 1 I I #
face $-1 $244 $245 $20 $-1 $246 reversed single #
loop $-1 $-1 $247 $90 #
plane-surface $-1 68.886802844663336 0 0.17532251403011045 0 0 1 1 0 0 forward_v I I I I #
coedge $-1 $166 $165 $248 $249 forward $91 $-1 #
coedge $-1 $250 $93 $251 $252 reversed $57 $-1 #
coedge $-1 $93 $250 $165 $253 reversed $57 $-1 #
edge $-1 $167 -9.9908668881069822 $254 -0.17532251403011045 $93 $255 forward 7 unknown #
coedge $-1 $95 $94 $256 $257 forward $37 $-1 #
coedge $-1 $258 $259 $94 $164 forward $260 $-1 #
edge $-1 $261 0.17532251403011045 $168 9.9908668881069822 $163 $262 forward 7 unknown #
coedge $-1 $158 $96 $160 $253 forward $91 $-1 #
coedge $-1 $96 $158 $258 $263 forward $91 $-1 #
vertex $-1 $161 $264 #
vertex $-1 $263 $265 #
straight-curve $-1 60.590227973265783 0 9.9908668881069822 0 1 0 I I #
face $-1 $-1 $182 $21 $-1 $266 forward single #
loop $-1 $-1 $267 $98 #
plane-surface $-1 0 39.964550313357989 0 0 -1 0 0 0 -1 forward_v I I I I #
coedge $-1 $268 $269 $270 $271 reversed $99 $-1 #
coedge $-1 $272 $101 $103 $180 forward $61 $-1 #
coedge $-1 $101 $272 $268 $273 forward $61 $-1 #
coedge $-1 $270 $104 $101 $177 forward $182 $-1 #
edge $-1 $184 -25.075245969292826 $274 -1.5293346297779689 $176 $275 forward 7 unknown #
coedge $-1 $276 $277 $102 $179 forward $171 $-1 #
edge $-1 $278 -69.999009369700275 $183 -57.191148748204938 $178 $279 forward 7 unknown #
edge $-1 $184 58.647045565564838 $278 79.929100626715979 $103 $280 forward 7 unknown #
coedge $-1 $104 $270 $276 $281 forward $182 $-1 #
loop $-1 $-1 $270 $170 #
vertex $-1 $179 $282 #
vertex $-1 $105 $283 #
straight-curve $-1 -38.377536268828223 24.529276274954469 17.691390582150348 0 -1 0 I I #
coedge $-1 $186 $186 $-1 $284 reversed $108 $-1 #
edge $-1 $285 0 $285 6.2831853071796004 $109 $286 forward 7 unknown #
vertex $-1 $112 $287 #
ellipse-curve $-1 -31.650133028966835 31.466247925142188 11.287460271402674 0 0.6018150307709319 0.79863550430605224 3 0 0 1 I I #
coedge $-1 $190 $190 $-1 $288 reversed $115 $-1 #
edge $-1 $289 0 $289 6.2831853071796004 $116 $290 forward 7 unknown #
vertex $-1 $119 $291 #
ellipse-curve $-1 -21.559028169174752 31.466247925142188 11.287460271402674 0 0.6018150307709319 0.79863550430605224 3 0 0 1 I I #
face $-1 $-1 $135 $18 $-1 $292 reversed single #
loop $-1 $-1 $210 $120 #
plane-surface $-1 0 39.964550313357989 0 0 -1 0 0 0 -1 forward_v I I I I #
coedge $-1 $293 $208 $211 $294 forward $121 $-1 #
coedge $-1 $214 $123 $124 $202 reversed $75 $-1 #
coedge $-1 $208 $293 $123 $200 reversed $121 $-1 #
edge $-1 $215 -17.691390582150344 $295 17.691390582150344 $199 $296 forward 7 unknown #
coedge $-1 $125 $124 $293 $297 forward $49 $-1 #
edge $-1 $206 -60.590227973265783 $295 60.590227973265783 $198 $298 forward 7 unknown #
coedge $-1 $211 $210 $125 $204 reversed $195 $-1 #
edge $-1 $299 -60.590227973265783 $205 60.590227973265783 $203 $300 forward 7 unknown #
vertex $-1 $127 $301 #
vertex $-1 $217 $302 #
straight-curve $-1 60.590227973265783 0 -17.691390582150344 0 -1 0 I I #
coedge $-1 $197 $199 $128 $209 reversed $121 $-1 #
edge $-1 $212 -39.964550313357989 $215 39.964550313357989 $208 $303 forward 7 unknown #
coedge $-1 $203 $129 $134 $218 forward $195 $-1 #
coedge $-1 $129 $203 $197 $294 reversed $195 $-1 #
vertex $-1 $130 $304 #
straight-curve $-1 0 39.964550313357989 17.691390582150344 -1 0 0 I I #
coedge $-1 $131 $198 $133 $217 reversed $75 $-1 #
vertex $-1 $209 $305 #
straight-curve $-1 0 -39.964550313357989 17.691390582150344 1 0 0 I I #
edge $-1 $136 -17.691390582150344 $206 17.691390582150344 $133 $306 forward 7 unknown #
edge $-1 $137 -17.691390582150344 $205 17.691390582150344 $134 $307 forward 7 unknown #
point $-1 60.590227973265783 -39.964550313357989 17.691390582150344 #
point $-1 60.590227973265783 39.964550313357989 17.691390582150344 #
face $-1 $-1 $237 $19 $-1 $308 forward single #
plane-surface $-1 -71.696573825484563 -12.102137083381152 0 0 -1 0 0 0 -1 forward_v I I I I #
coedge $-1 $309 $310 $240 $311 forward $140 $-1 #
coedge $-1 $233 $142 $143 $229 reversed $83 $-1 #
coedge $-1 $142 $233 $236 $312 reversed $83 $-1 #
coedge $-1 $310 $309 $142 $227 reversed $140 $-1 #
edge $-1 $313 -17.691390582150344 $314 17.691390582150344 $226 $315 forward 7 unknown #
coedge $-1 $144 $143 $309 $316 forward $53 $-1 #
edge $-1 $231 -11.10634585221878 $314 11.10634585221878 $224 $317 forward 7 unknown #
edge $-1 $318 -11.10634585221878 $152 11.10634585221878 $149 $319 forward 7 unknown #
vertex $-1 $229 $320 #
straight-curve $-1 -60.590227973265783 0 -17.691390582150344 0 -1 0 I I #
coedge $-1 $225 $224 $146 $234 reversed $83 $-1 #
edge $-1 $238 -17.691390582150344 $231 17.691390582150344 $233 $321 forward 7 unknown #
coedge $-1 $322 $147 $150 $241 forward $237 $-1 #
coedge $-1 $147 $322 $225 $312 forward $237 $-1 #
loop $-1 $-1 $147 $221 #
vertex $-1 $148 $323 #
straight-curve $-1 -60.590227973265783 0 17.691390582150344 0 1 0 I I #
coedge $-1 $150 $149 $223 $311 reversed $151 $-1 #
edge $-1 $153 -11.10634585221878 $324 11.10634585221878 $150 $325 forward 7 unknown #
point $-1 -60.590227973265783 -12.102137083381152 -17.691390582150344 #
point $-1 -60.590227973265783 -12.102137083381152 17.691390582150344 #
face $-1 $-1 $260 $20 $-1 $326 reversed single #
loop $-1 $-1 $327 $155 #
plane-surface $-1 77.183377716060903 0 5.0830947010685463 -1 0 0 0 0 1 forward_v I I I I #
coedge $-1 $251 $328 $329 $330 forward $156 $-1 #
coedge $-1 $327 $331 $158 $249 reversed $245 $-1 #
edge $-1 $332 -39.964550313357989 $333 39.964550313357989 $248 $334 forward 7 unknown #
coedge $-1 $160 $159 $327 $335 reversed $57 $-1 #
coedge $-1 $256 $247 $159 $252 forward $156 $-1 #
edge $-1 $336 -8.2965748713975671 $254 8.2965748713975671 $159 $337 forward 7 unknown #
edge $-1 $167 -8.2965748713975671 $332 8.2965748713975671 $160 $338 forward 7 unknown #
vertex $-1 $161 $339 #
straight-curve $-1 60.590227973265783 -39.964550313357989 0 0 0 -1 I I #
coedge $-1 $328 $251 $162 $257 reversed $156 $-1 #
edge $-1 $261 -39.964550313357989 $254 39.964550313357989 $256 $340 forward 7 unknown #
coedge $-1 $341 $163 $166 $263 reversed $260 $-1 #
coedge $-1 $163 $341 $328 $342 reversed $260 $-1 #
loop $-1 $-1 $163 $244 #
vertex $-1 $164 $343 #
straight-curve $-1 60.590227973265783 39.964550313357989 0 0 0 1 I I #
edge $-1 $333 -8.2965748713975671 $168 8.2965748713975671 $258 $344 forward 7 unknown #
point $-1 60.590227973265769 -39.964550313357989 9.9908668881069822 #
point $-1 60.590227973265769 39.964550313357989 9.9908668881069822 #
plane-surface $-1 0 0 17.691390582150344 0 0 1 1 0 0 forward_v I I I I #
coedge $-1 $277 $276 $269 $345 forward $171 $-1 #
coedge $-1 $269 $173 $175 $273 reversed $99 $-1 #
coedge $-1 $173 $268 $267 $345 reversed $99 $-1 #
coedge $-1 $181 $176 $173 $271 forward $182 $-1 #
edge $-1 $274 -1.5613307380280972 $346 15.43527403840352 $270 $347 forward 7 unknown #
coedge $-1 $175 $174 $277 $348 reversed $61 $-1 #
edge $-1 $349 -79.929100626715979 $274 -58.647045565564838 $268 $350 forward 7 unknown #
vertex $-1 $177 $351 #
straight-curve $-1 -13.302290299535397 22.967945536926376 17.691390582150341 1 0 0 I I #
coedge $-1 $267 $178 $181 $281 reversed $171 $-1 #
coedge $-1 $178 $267 $272 $348 forward $171 $-1 #
vertex $-1 $179 $352 #
straight-curve $-1 -38.377536268828223 39.964550313357989 74.882539330355286 0 0 1 I I #
straight-curve $-1 -38.377536268828223 -23.869667274388519 52.98606411381499 0 0.79863550430605224 -0.6018150307709319 I I #
edge $-1 $346 14.831624929313366 $183 38.377536268828223 $276 $353 forward 7 unknown #
point $-1 -38.377536268828223 39.964550313357989 17.691390582150344 #
point $-1 -38.377536268828223 22.967945536926372 17.691390582150348 #
edge $-1 $354 1 $354 0 $186 $-1 forward 7 unknown #
vertex $-1 $187 $355 #
ellipse-curve $-1 -31.650133028966835 29.259954020103905 8.3596094278628517 0 0.6018150307709319 0.79863550430605224 3 0 0 1 I I #
point $-1 -28.650133028966835 31.466247925142174 11.287460271402658 #
edge $-1 $356 1 $356 0 $190 $-1 forward 7 unknown #
vertex $-1 $191 $357 #
ellipse-curve $-1 -21.559028169174752 29.259954020103905 8.3596094278628517 0 0.6018150307709319 0.79863550430605224 3 0 0 1 I I #
point $-1 -18.559028169174752 31.466247925142174 11.287460271402658 #
plane-surface $-1 60.590227973265783 0 0 -1 0 0 0 0 1 forward_v I I I I #
coedge $-1 $199 $197 $201 $297 reversed $121 $-1 #
edge $-1 $212 -17.691390582150344 $299 17.691390582150344 $211 $358 forward 7 unknown #
vertex $-1 $297 $359 #
straight-curve $-1 -60.590227973265783 -39.964550313357989 0 0 0 -1 I I #
edge $-1 $295 -39.964550313357989 $299 39.964550313357989 $293 $360 forward 7 unknown #
straight-curve $-1 0 -39.964550313357989 -17.691390582150344 -1 0 0 I I #
vertex $-1 $204 $361 #
straight-curve $-1 0 39.964550313357989 -17.691390582150344 1 0 0 I I #
point $-1 60.590227973265783 39.964550313357989 -17.691390582150344 #
point $-1 60.590227973265783 -39.964550313357989 -17.691390582150344 #
straight-curve $-1 -60.590227973265783 0 17.691390582150344 0 -1 0 I I #
point $-1 -60.590227973265783 39.964550313357989 17.691390582150344 #
point $-1 -60.590227973265783 -39.964550313357989 17.691390582150344 #
straight-curve $-1 60.590227973265783 -39.964550313357989 0 0 0 -1 I I #
straight-curve $-1 60.590227973265783 39.964550313357989 0 0 0 -1 I I #
plane-surface $-1 0 0 17.691390582150344 0 0 1 1 0 0 forward_v I I I I #
coedge $-1 $226 $223 $228 $316 reversed $140 $-1 #
coedge $-1 $223 $226 $322 $362 reversed $140 $-1 #
edge $-1 $324 -17.691390582150344 $318 17.691390582150344 $240 $363 forward 7 unknown #
edge $-1 $313 -11.10634585221878 $238 11.10634585221878 $225 $364 forward 7 unknown #
vertex $-1 $362 $365 #
vertex $-1 $316 $366 #
straight-curve $-1 -82.802919677703343 -18.208466292829804 0 0 0 -1 I I #
edge $-1 $314 -3.0531646047243264 $318 3.0531646047243264 $309 $367 forward 7 unknown #
straight-curve $-1 -71.696573825484563 -18.208466292829804 -17.691390582150344 -1 0 0 I I #
vertex $-1 $230 $368 #
straight-curve $-1 -71.696573825484563 -12.102137083381152 -17.691390582150344 1 0 0 I I #
point $-1 -60.590227973265783 -18.208466292829804 -17.691390582150344 #
straight-curve $-1 -60.590227973265783 -18.208466292829804 0 0 0 -1 I I #
coedge $-1 $236 $235 $310 $362 forward $237 $-1 #
point $-1 -60.590227973265783 -18.208466292829804 17.691390582150344 #
vertex $-1 $241 $369 #
straight-curve $-1 -71.696573825484563 -12.102137083381152 17.691390582150344 -1 0 0 I I #
plane-surface $-1 0 39.964550313357989 0 0 -1 0 0 0 -1 forward_v I I I I #
coedge $-1 $329 $248 $250 $335 forward $245 $-1 #
coedge $-1 $247 $256 $259 $342 forward $156 $-1 #
coedge $-1 $331 $327 $247 $330 reversed $245 $-1 #
edge $-1 $370 -39.964550313357989 $336 39.964550313357989 $329 $371 forward 7 unknown #
coedge $-1 $248 $329 $341 $372 reversed $245 $-1 #
vertex $-1 $249 $373 #
vertex $-1 $249 $374 #
straight-curve $-1 77.183377716060903 0 9.9908668881069822 0 1 0 I I #
edge $-1 $332 -4.9077721870384359 $336 4.9077721870384359 $327 $375 forward 7 unknown #
vertex $-1 $335 $376 #
straight-curve $-1 68.886802844663336 -39.964550313357989 0.17532251403011045 -1 0 0 I I #
straight-curve $-1 68.886802844663336 -39.964550313357989 9.9908668881069822 1 0 0 I I #
point $-1 60.590227973265769 -39.964550313357989 0.17532251403011045 #
straight-curve $-1 60.590227973265783 0 0.17532251403011045 0 -1 0 I I #
coedge $-1 $259 $258 $331 $372 forward $260 $-1 #
edge $-1 $261 -8.2965748713975671 $370 8.2965748713975671 $259 $377 forward 7 unknown #
point $-1 60.590227973265769 39.964550313357989 0.17532251403011045 #
straight-curve $-1 68.886802844663336 39.964550313357989 9.9908668881069822 -1 0 0 I I #
edge $-1 $346 57.191148748204938 $349 69.999009369700275 $267 $378 forward 7 unknown #
vertex $-1 $281 $379 #
straight-curve $-1 -14.831624929313366 24.529276274954469 17.691390582150348 0 1 0 I I #
edge $-1 $349 1.5293346297779689 $278 25.075245969292826 $277 $380 forward 7 unknown #
vertex $-1 $348 $381 #
straight-curve $-1 -14.831624929313366 -23.869667274388519 52.98606411381499 0 -0.79863550430605224 0.6018150307709319 I I #
point $-1 -14.831624929313366 22.967945536926372 17.691390582150348 #
point $-1 -38.377536268828223 39.964550313357989 4.8835299606550038 #
straight-curve $-1 0 39.964550313357989 17.691390582150344 -1 0 0 I I #
vertex $-1 $284 $382 #
point $-1 -28.650133028966835 29.259954020103905 8.3596094278628517 #
vertex $-1 $288 $383 #
point $-1 -18.559028169174752 29.259954020103905 8.3596094278628517 #
straight-curve $-1 -60.590227973265783 39.964550313357989 0 0 0 -1 I I #
point $-1 -60.590227973265783 -39.964550313357989 -17.691390582150344 #
straight-curve $-1 -60.590227973265783 0 -17.691390582150344 0 1 0 I I #
point $-1 -60.590227973265783 39.964550313357989 -17.691390582150344 #
edge $-1 $324 -3.0531646047243264 $313 3.0531646047243264 $310 $384 forward 7 unknown #
straight-curve $-1 -82.802919677703343 -12.102137083381152 0 0 0 -1 I I #
straight-curve $-1 -71.696573825484563 -18.208466292829804 17.691390582150344 1 0 0 I I #
point $-1 -82.802919677703343 -18.208466292829804 17.691390582150344 #
point $-1 -82.802919677703343 -18.208466292829804 -17.691390582150344 #
straight-curve $-1 -82.802919677703343 -15.155301688105478 -17.691390582150344 0 1 0 I I #
point $-1 -82.802919677703343 -12.102137083381152 -17.691390582150344 #
point $-1 -82.802919677703343 -12.102137083381152 17.691390582150344 #
vertex $-1 $330 $385 #
straight-curve $-1 77.183377716060903 0 0.17532251403011045 0 -1 0 I I #
edge $-1 $333 -4.9077721870384359 $370 4.9077721870384359 $331 $386 forward 7 unknown #
point $-1 77.183377716060903 -39.964550313357989 9.9908668881069822 #
point $-1 77.183377716060903 39.964550313357989 9.9908668881069822 #
straight-curve $-1 77.183377716060903 -39.964550313357989 5.0830947010685463 0 0 -1 I I #
point $-1 77.183377716060903 -39.964550313357989 0.17532251403011045 #
straight-curve $-1 68.886802844663336 39.964550313357989 0.17532251403011045 1 0 0 I I #
straight-curve $-1 -14.831624929313366 39.964550313357989 74.882539330355286 0 0 -1 I I #
point $-1 -14.831624929313366 39.964550313357989 17.691390582150344 #
straight-curve $-1 -13.302290299535397 39.964550313357989 4.8835299606550073 -1 0 0 I I #
point $-1 -14.831624929313366 39.964550313357989 4.8835299606550038 #
point $-1 -31.650133028966835 27.45450892779111 5.9637029149446956 #
point $-1 -21.559028169174752 27.45450892779111 5.9637029149446956 #
straight-curve $-1 -82.802919677703343 -15.155301688105478 17.691390582150344 0 -1 0 I I #
point $-1 77.183377716060903 39.964550313357989 0.17532251403011045 #
straight-curve $-1 77.183377716060903 39.964550313357989 5.0830947010685463 0 0 -1 I I #
End-of-ACIS-data 