500 0 10 0           
7 Unknown 11 ACIS 5.0 NT 24 Fri Mar 26 17:52:33 1999 
-1 9.9999999999999995e-007 1e-010 
body $-1 $10 $-1 $11 #
body $-1 $12 $-1 $13 #
body $-1 $14 $-1 $15 #
body $-1 $16 $-1 $17 #
body $-1 $18 $-1 $19 #
body $-1 $20 $-1 $21 #
body $-1 $22 $-1 $23 #
body $-1 $24 $-1 $25 #
body $-1 $26 $-1 $27 #
body $-1 $28 $-1 $29 #
lump $-1 $-1 $30 $0 #
transform $-1 1 0 0 0 1 0 0 0 1 52.451551866206856 25.099973252738938 12.373267249270349 1 rotate no_reflect no_shear #
lump $-1 $-1 $31 $1 #
transform $-1 1 0 0 0 1 0 0 0 1 52.451551866206856 25.099973252738938 12.373267249270349 1 rotate no_reflect no_shear #
lump $-1 $-1 $32 $2 #
transform $-1 1 0 0 0 1 0 0 0 1 52.451551866206856 25.099973252738938 12.373267249270349 1 rotate no_reflect no_shear #
lump $-1 $-1 $33 $3 #
transform $-1 1 0 0 0 1 0 0 0 1 52.451551866206856 25.099973252738938 12.373267249270349 1 rotate no_reflect no_shear #
lump $-1 $-1 $34 $4 #
transform $-1 1 0 0 0 1 0 0 0 1 52.451551866206856 25.099973252738938 12.373267249270349 1 rotate no_reflect no_shear #
lump $-1 $-1 $35 $5 #
transform $-1 1 0 0 0 1 0 0 0 1 52.451551866206856 25.099973252738938 12.373267249270349 1 rotate no_reflect no_shear #
lump $-1 $-1 $36 $6 #
transform $-1 1 0 0 0 1 0 0 0 1 52.451551866206856 25.099973252738938 12.373267249270349 1 rotate no_reflect no_shear #
lump $-1 $-1 $37 $7 #
transform $-1 1 0 0 0 1 0 0 0 1 52.451551866206856 25.099973252738938 12.373267249270349 1 rotate no_reflect no_shear #
lump $-1 $-1 $38 $8 #
transform $-1 1 0 0 0 1 0 0 0 1 52.451551866206856 25.099973252738938 12.373267249270349 1 rotate no_reflect no_shear #
lump $-1 $-1 $39 $9 #
transform $-1 1 0 0 0 1 0 0 0 1 52.451551866206856 25.099973252738938 12.373267249270349 1 rotate no_reflect no_shear #
shell $-1 $-1 $-1 $40 $-1 $10 #
shell $-1 $-1 $-1 $41 $-1 $12 #
shell $-1 $-1 $-1 $42 $-1 $14 #
shell $-1 $-1 $-1 $43 $-1 $16 #
shell $-1 $-1 $-1 $44 $-1 $18 #
shell $-1 $-1 $-1 $45 $-1 $20 #
shell $-1 $-1 $-1 $46 $-1 $22 #
shell $-1 $-1 $-1 $47 $-1 $24 #
shell $-1 $-1 $-1 $48 $-1 $26 #
shell $-1 $-1 $-1 $49 $-1 $28 #
face $-1 $50 $51 $30 $-1 $52 forward single #
face $-1 $53 $54 $31 $-1 $55 reversed single #
face $-1 $56 $57 $32 $-1 $58 reversed single #
face $-1 $59 $60 $33 $-1 $61 forward single #
face $-1 $62 $63 $34 $-1 $64 forward single #
face $-1 $65 $66 $35 $-1 $67 forward single #
face $-1 $68 $69 $36 $-1 $70 reversed single #
face $-1 $71 $72 $37 $-1 $73 forward single #
face $-1 $74 $75 $38 $-1 $76 forward single #
face $-1 $77 $78 $39 $-1 $79 forward single #
face $-1 $80 $81 $30 $-1 $82 reversed single #
loop $-1 $-1 $83 $40 #
plane-surface $-1 0 0 12.373267249270349 0 0 1 1 0 0 forward_v I I I I #
face $-1 $84 $85 $31 $-1 $86 reversed single #
loop $-1 $-1 $87 $41 #
plane-surface $-1 -47.192521264318323 -21.004583034269164 0 1 0 0 0 0 -1 forward_v I I I I #
face $-1 $88 $89 $32 $-1 $90 reversed single #
loop $-1 $-1 $91 $42 #
plane-surface $-1 -52.451551866206863 -11.113900432888865 6.4551881083722975 -0.52991927123019833 0 0.84804809178421925 0.84804809178421925 0 0.52991927123019833 forward_v I I I I #
face $-1 $92 $93 $33 $-1 $94 forward single #
loop $-1 $95 $96 $43 #
cone-surface $-1 -46.736143517850195 -14.591075862635179 7.845971503473594 0.52991927123019833 0 -0.84804809178421925 0.84804809178421925 0 0.52991927123019833 1 I I 0 1 1 forward I I I I #
face $-1 $97 $98 $34 $-1 $99 forward single #
loop $-1 $100 $101 $44 #
cone-surface $-1 -46.736143517850195 -11.113900432888865 7.845971503473594 0.52991927123019833 0 -0.84804809178421925 0.84804809178421925 0 0.52991927123019833 1 I I 0 1 1 forward I I I I #
face $-1 $102 $103 $35 $-1 $104 forward single #
loop $-1 $105 $106 $45 #
cone-surface $-1 -46.736143517850195 -7.6367250031425513 7.845971503473594 0.52991927123019833 0 -0.84804809178421925 0.84804809178421925 0 0.52991927123019833 1 I I 0 1 1 forward I I I I #
face $-1 $107 $108 $36 $-1 $109 reversed single #
loop $-1 $-1 $110 $46 #
plane-surface $-1 19.078851203357971 -5.3186080499783417 151.00824133055431 0 -1 0 -0.52991927123019833 0 -0.84804809178421925 forward_v I I I I #
face $-1 $111 $112 $37 $-1 $113 forward single #
loop $-1 $114 $115 $47 #
cone-surface $-1 46.736143517850202 -14.591075862635179 7.8459715034736011 -0.52991927123019833 0 -0.84804809178421925 0.84804809178421925 0 -0.52991927123019833 1 I I 0 1 1 forward I I I I #
face $-1 $116 $117 $38 $-1 $118 forward single #
loop $-1 $119 $120 $48 #
cone-surface $-1 46.736143517850202 -11.113900432888865 7.8459715034736011 -0.52991927123019833 0 -0.84804809178421925 0.84804809178421925 0 -0.52991927123019833 1 I I 0 1 1 forward I I I I #
face $-1 $121 $122 $39 $-1 $123 forward single #
loop $-1 $124 $125 $49 #
cone-surface $-1 46.736143517850202 -7.6367250031425513 7.8459715034736011 -0.52991927123019833 0 -0.84804809178421925 0.84804809178421925 0 -0.52991927123019833 1 I I 0 1 1 forward I I I I #
face $-1 $126 $127 $30 $-1 $128 reversed single #
loop $-1 $-1 $129 $50 #
plane-surface $-1 0 0 -12.373267249270349 0 0 1 1 0 0 forward_v I I I I #
coedge $-1 $130 $131 $132 $133 forward $51 $-1 #
face $-1 $134 $135 $31 $-1 $136 reversed single #
loop $-1 $-1 $137 $53 #
plane-surface $-1 -44.81940813134797 -16.90919281579939 0 0 -1 0 0 0 -1 forward_v I I I I #
coedge $-1 $138 $139 $140 $141 forward $54 $-1 #
face $-1 $142 $143 $32 $-1 $144 forward single #
loop $-1 $-1 $145 $56 #
plane-surface $-1 -108.04172814587344 -5.3186080499783417 95.418065050887748 0 -1 0 0.52991927123019833 0 -0.84804809178421925 forward_v I I I I #
coedge $-1 $146 $147 $148 $149 reversed $57 $-1 #
face $-1 $-1 $150 $33 $-1 $151 forward single #
loop $-1 $152 $153 $59 #
cone-surface $-1 -45.491228644326277 -14.591075862635179 5.8536912822337612 0.52991927123019833 0 -0.84804809178421925 0.42402404589210962 0 0.26495963561509916 1 I I -0.70710678118654746 0.70710678118654746 0.5 forward I I I I #
loop $-1 $-1 $154 $43 #
coedge $-1 $96 $96 $155 $156 reversed $60 $-1 #
face $-1 $-1 $157 $34 $-1 $158 forward single #
loop $-1 $159 $160 $62 #
cone-surface $-1 -45.491228644326277 -11.113900432888865 5.8536912822337612 0.52991927123019833 0 -0.84804809178421925 0.42402404589210962 0 0.26495963561509916 1 I I -0.70710678118654746 0.70710678118654746 0.5 forward I I I I #
loop $-1 $-1 $161 $44 #
coedge $-1 $101 $101 $162 $163 reversed $63 $-1 #
face $-1 $-1 $164 $35 $-1 $165 forward single #
loop $-1 $166 $167 $65 #
cone-surface $-1 -45.491228644326277 -7.6367250031425513 5.8536912822337612 0.52991927123019833 0 -0.84804809178421925 0.42402404589210962 0 0.26495963561509916 1 I I -0.70710678118654746 0.70710678118654746 0.5 forward I I I I #
loop $-1 $-1 $168 $45 #
coedge $-1 $106 $106 $169 $170 reversed $66 $-1 #
face $-1 $171 $172 $36 $-1 $173 reversed single #
loop $-1 $-1 $174 $68 #
plane-surface $-1 -36.511325076308601 -11.113900432888865 62.045364388038863 0.52991927123019833 0 0.84804809178421925 0.84804809178421925 0 -0.52991927123019833 forward_v I I I I #
coedge $-1 $175 $176 $177 $178 reversed $69 $-1 #
face $-1 $-1 $179 $37 $-1 $180 forward single #
loop $-1 $181 $182 $71 #
cone-surface $-1 45.491228644326284 -14.591075862635179 5.8536912822337683 -0.52991927123019833 0 -0.84804809178421925 0.42402404589210962 0 -0.26495963561509916 1 I I -0.70710678118654746 0.70710678118654746 0.5 forward I I I I #
loop $-1 $-1 $183 $47 #
coedge $-1 $115 $115 $184 $185 reversed $72 $-1 #
face $-1 $-1 $186 $38 $-1 $187 forward single #
loop $-1 $188 $189 $74 #
cone-surface $-1 45.491228644326284 -11.113900432888865 5.8536912822337683 -0.52991927123019833 0 -0.84804809178421925 0.42402404589210962 0 -0.26495963561509916 1 I I -0.70710678118654746 0.70710678118654746 0.5 forward I I I I #
loop $-1 $-1 $190 $48 #
coedge $-1 $120 $120 $191 $192 reversed $75 $-1 #
face $-1 $-1 $193 $39 $-1 $194 forward single #
loop $-1 $195 $196 $77 #
cone-surface $-1 45.491228644326284 -7.6367250031425513 5.8536912822337683 -0.52991927123019833 0 -0.84804809178421925 0.42402404589210962 0 -0.26495963561509916 1 I I -0.70710678118654746 0.70710678118654746 0.5 forward I I I I #
loop $-1 $-1 $197 $49 #
coedge $-1 $125 $125 $198 $199 reversed $78 $-1 #
face $-1 $200 $201 $30 $-1 $202 reversed single #
loop $-1 $-1 $203 $80 #
plane-surface $-1 0 -25.099973252738938 0 0 1 0 0 0 1 forward_v I I I I #
coedge $-1 $204 $205 $206 $207 forward $81 $-1 #
coedge $-1 $208 $83 $209 $210 forward $51 $-1 #
coedge $-1 $83 $208 $211 $212 forward $51 $-1 #
coedge $-1 $213 $214 $83 $133 reversed $215 $-1 #
edge $-1 $216 -25.099973252738938 $217 25.099973252738938 $132 $218 forward 7 unknown #
face $-1 $219 $220 $31 $-1 $221 forward single #
loop $-1 $-1 $222 $84 #
plane-surface $-1 -42.446294998377617 -21.004583034269164 0 -1 0 0 0 0 1 forward_v I I I I #
coedge $-1 $223 $140 $224 $225 reversed $85 $-1 #
coedge $-1 $226 $87 $227 $228 reversed $54 $-1 #
coedge $-1 $87 $226 $229 $230 reversed $54 $-1 #
coedge $-1 $137 $231 $87 $141 reversed $85 $-1 #
edge $-1 $232 -12.373267249270349 $233 12.373267249270349 $140 $234 forward 7 unknown #
face $-1 $235 $236 $32 $-1 $237 forward single #
loop $-1 $-1 $238 $88 #
plane-surface $-1 0 0 12.373267249270349 0 0 1 1 0 0 forward_v I I I I #
coedge $-1 $239 $240 $241 $242 reversed $89 $-1 #
coedge $-1 $243 $91 $244 $245 reversed $57 $-1 #
coedge $-1 $91 $243 $239 $246 forward $57 $-1 #
coedge $-1 $241 $238 $91 $149 forward $143 $-1 #
edge $-1 $247 -11.352242599354957 $248 0.23834216646609097 $148 $249 forward 7 unknown #
loop $-1 $-1 $155 $92 #
plane-surface $-1 -52.451551866206863 -11.113900432888865 6.4551881083722975 -0.52991927123019833 0 0.84804809178421925 0.84804809178421925 0 0.52991927123019833 forward_v I I I I #
loop $-1 $-1 $250 $59 #
coedge $-1 $153 $153 $154 $251 reversed $93 $-1 #
coedge $-1 $154 $154 $153 $251 forward $95 $-1 #
coedge $-1 $155 $155 $96 $156 forward $150 $-1 #
edge $-1 $252 0 $252 6.2831853071796004 $155 $253 forward 7 unknown #
loop $-1 $-1 $162 $97 #
plane-surface $-1 -52.451551866206863 -11.113900432888865 6.4551881083722975 -0.52991927123019833 0 0.84804809178421925 0.84804809178421925 0 0.52991927123019833 forward_v I I I I #
loop $-1 $-1 $254 $62 #
coedge $-1 $160 $160 $161 $255 reversed $98 $-1 #
coedge $-1 $161 $161 $160 $255 forward $100 $-1 #
coedge $-1 $162 $162 $101 $163 forward $157 $-1 #
edge $-1 $256 0 $256 6.2831853071796004 $162 $257 forward 7 unknown #
loop $-1 $-1 $169 $102 #
plane-surface $-1 -52.451551866206863 -11.113900432888865 6.4551881083722975 -0.52991927123019833 0 0.84804809178421925 0.84804809178421925 0 0.52991927123019833 forward_v I I I I #
loop $-1 $-1 $258 $65 #
coedge $-1 $167 $167 $168 $259 reversed $103 $-1 #
coedge $-1 $168 $168 $167 $259 forward $105 $-1 #
coedge $-1 $169 $169 $106 $170 forward $164 $-1 #
edge $-1 $260 0 $260 6.2831853071796004 $169 $261 forward 7 unknown #
face $-1 $262 $263 $36 $-1 $264 forward single #
loop $-1 $-1 $265 $107 #
plane-surface $-1 19.078851203357971 -16.90919281579939 151.00824133055431 0 1 0 0.52991927123019833 0 0.84804809178421925 forward_v I I I I #
coedge $-1 $266 $267 $268 $269 reversed $108 $-1 #
coedge $-1 $176 $110 $270 $271 reversed $69 $-1 #
coedge $-1 $110 $175 $266 $272 reversed $69 $-1 #
coedge $-1 $268 $273 $110 $178 forward $263 $-1 #
edge $-1 $274 -42.91212626452787 $275 -33.441220043632192 $177 $276 forward 7 unknown #
loop $-1 $-1 $184 $111 #
plane-surface $-1 -36.511325076308601 -11.113900432888865 62.045364388038863 0.52991927123019833 0 0.84804809178421925 0.84804809178421925 0 -0.52991927123019833 forward_v I I I I #
loop $-1 $-1 $277 $71 #
coedge $-1 $182 $182 $183 $278 reversed $112 $-1 #
coedge $-1 $183 $183 $182 $278 forward $114 $-1 #
coedge $-1 $184 $184 $115 $185 forward $179 $-1 #
edge $-1 $279 0 $279 6.2831853071796004 $184 $280 forward 7 unknown #
loop $-1 $-1 $191 $116 #
plane-surface $-1 -36.511325076308601 -11.113900432888865 62.045364388038863 0.52991927123019833 0 0.84804809178421925 0.84804809178421925 0 -0.52991927123019833 forward_v I I I I #
loop $-1 $-1 $281 $74 #
coedge $-1 $189 $189 $190 $282 reversed $117 $-1 #
coedge $-1 $190 $190 $189 $282 forward $119 $-1 #
coedge $-1 $191 $191 $120 $192 forward $186 $-1 #
edge $-1 $283 0 $283 6.2831853071796004 $191 $284 forward 7 unknown #
loop $-1 $-1 $198 $121 #
plane-surface $-1 -36.511325076308601 -11.113900432888865 62.045364388038863 0.52991927123019833 0 0.84804809178421925 0.84804809178421925 0 -0.52991927123019833 forward_v I I I I #
loop $-1 $-1 $285 $77 #
coedge $-1 $196 $196 $197 $286 reversed $122 $-1 #
coedge $-1 $197 $197 $196 $286 forward $124 $-1 #
coedge $-1 $198 $198 $125 $199 forward $193 $-1 #
edge $-1 $287 0 $287 6.2831853071796004 $198 $288 forward 7 unknown #
face $-1 $289 $290 $30 $-1 $291 reversed single #
loop $-1 $-1 $292 $126 #
plane-surface $-1 -52.451551866206856 0 0 1 0 0 0 0 -1 forward_v I I I I #
coedge $-1 $293 $211 $294 $295 forward $127 $-1 #
coedge $-1 $296 $129 $293 $297 forward $81 $-1 #
coedge $-1 $129 $296 $298 $299 forward $81 $-1 #
coedge $-1 $214 $213 $129 $207 reversed $215 $-1 #
edge $-1 $300 -25.099973252738938 $301 25.099973252738938 $206 $302 forward 7 unknown #
coedge $-1 $131 $130 $303 $304 forward $51 $-1 #
coedge $-1 $305 $306 $130 $210 reversed $290 $-1 #
edge $-1 $217 -52.451551866206856 $307 52.451551866206856 $209 $308 forward 7 unknown #
coedge $-1 $203 $309 $131 $212 reversed $127 $-1 #
edge $-1 $310 -52.451551866206856 $216 52.451551866206856 $211 $311 forward 7 unknown #
coedge $-1 $206 $132 $309 $312 forward $215 $-1 #
coedge $-1 $132 $206 $305 $313 reversed $215 $-1 #
loop $-1 $-1 $213 $289 #
vertex $-1 $133 $314 #
vertex $-1 $133 $315 #
straight-curve $-1 52.451551866206856 0 12.373267249270349 0 1 0 I I #
face $-1 $316 $317 $31 $-1 $318 reversed single #
loop $-1 $-1 $319 $134 #
plane-surface $-1 0 0 12.373267249270349 0 0 1 1 0 0 forward_v I I I I #
coedge $-1 $320 $321 $322 $323 reversed $135 $-1 #
coedge $-1 $231 $137 $324 $325 forward $85 $-1 #
coedge $-1 $229 $319 $137 $225 forward $220 $-1 #
edge $-1 $326 20.036590932703632 $232 24.782817198644338 $224 $327 forward 7 unknown #
coedge $-1 $139 $138 $328 $329 reversed $54 $-1 #
coedge $-1 $330 $331 $138 $228 forward $317 $-1 #
edge $-1 $332 -14.597681735604356 $233 -6.406901298664808 $227 $333 forward 7 unknown #
coedge $-1 $334 $224 $139 $230 forward $220 $-1 #
edge $-1 $232 6.406901298664808 $335 14.597681735604356 $229 $336 forward 7 unknown #
coedge $-1 $140 $223 $330 $337 reversed $85 $-1 #
vertex $-1 $230 $338 #
vertex $-1 $228 $339 #
straight-curve $-1 -47.192521264318323 -16.90919281579939 0 0 0 -1 I I #
face $-1 $-1 $340 $32 $-1 $341 reversed single #
loop $-1 $-1 $244 $142 #
plane-surface $-1 -44.81940813134797 -16.90919281579939 0 0 -1 0 0 0 -1 forward_v I I I I #
coedge $-1 $148 $342 $343 $344 forward $143 $-1 #
coedge $-1 $240 $145 $147 $246 reversed $89 $-1 #
coedge $-1 $145 $239 $345 $346 reversed $89 $-1 #
coedge $-1 $342 $148 $145 $242 forward $143 $-1 #
edge $-1 $248 -11.040218427625518 $347 -1.5693122067298617 $241 $348 forward 7 unknown #
coedge $-1 $147 $146 $349 $350 reversed $57 $-1 #
coedge $-1 $343 $351 $146 $245 forward $236 $-1 #
edge $-1 $352 -1.5258481762637355 $247 9.6420399572614492 $244 $353 forward 7 unknown #
edge $-1 $354 8.3790584163743152e-015 $248 11.167888133525192 $239 $355 forward 7 unknown #
vertex $-1 $245 $356 #
vertex $-1 $149 $357 #
straight-curve $-1 -42.980645645311199 -5.5569502164444327 12.373267249270349 0 1 0 I I #
coedge $-1 $250 $250 $-1 $358 reversed $152 $-1 #
edge $-1 $359 0 $359 6.2831853071796004 $153 $360 forward 7 unknown #
vertex $-1 $156 $361 #
ellipse-curve $-1 -47.71609875575902 -14.591075862635179 9.4142276788213284 -0.52991927123019833 0 0.84804809178421925 0.84804809178421925 0 0.52991927123019833 1 I I #
coedge $-1 $254 $254 $-1 $362 reversed $159 $-1 #
edge $-1 $363 0 $363 6.2831853071796004 $160 $364 forward 7 unknown #
vertex $-1 $163 $365 #
ellipse-curve $-1 -47.71609875575902 -11.113900432888865 9.4142276788213284 -0.52991927123019833 0 0.84804809178421925 0.84804809178421925 0 0.52991927123019833 1 I I #
coedge $-1 $258 $258 $-1 $366 reversed $166 $-1 #
edge $-1 $367 0 $367 6.2831853071796004 $167 $368 forward 7 unknown #
vertex $-1 $170 $369 #
ellipse-curve $-1 -47.71609875575902 -7.6367250031425513 9.4142276788213284 -0.52991927123019833 0 0.84804809178421925 0.84804809178421925 0 0.52991927123019833 1 I I #
face $-1 $-1 $370 $36 $-1 $371 reversed single #
loop $-1 $-1 $177 $171 #
plane-surface $-1 0 0 12.373267249270349 0 0 1 1 0 0 forward_v I I I I #
coedge $-1 $372 $373 $374 $375 reversed $172 $-1 #
coedge $-1 $376 $174 $176 $272 forward $108 $-1 #
coedge $-1 $174 $376 $372 $377 forward $108 $-1 #
coedge $-1 $374 $177 $174 $269 forward $263 $-1 #
edge $-1 $275 -0.23834216646609097 $378 11.352242599354957 $268 $379 forward 7 unknown #
coedge $-1 $380 $381 $175 $271 forward $370 $-1 #
edge $-1 $382 -69.048932556904873 $274 -63.130853416006808 $270 $383 forward 7 unknown #
edge $-1 $275 93.735215598888516 $382 104.90310373241374 $176 $384 forward 7 unknown #
coedge $-1 $177 $374 $380 $385 forward $263 $-1 #
vertex $-1 $271 $386 #
vertex $-1 $178 $387 #
straight-curve $-1 9.5394256016789853 -5.3186080499783417 12.373267249270341 -1 0 0 I I #
coedge $-1 $277 $277 $-1 $388 reversed $181 $-1 #
edge $-1 $389 0 $389 6.2831853071796004 $182 $390 forward 7 unknown #
vertex $-1 $185 $391 #
ellipse-curve $-1 47.71609875575902 -14.591075862635179 9.4142276788213231 0.52991927123019833 0 0.84804809178421925 0.84804809178421925 0 -0.52991927123019833 1 I I #
coedge $-1 $281 $281 $-1 $392 reversed $188 $-1 #
edge $-1 $393 0 $393 6.2831853071796004 $189 $394 forward 7 unknown #
vertex $-1 $192 $395 #
ellipse-curve $-1 47.71609875575902 -11.113900432888865 9.4142276788213231 0.52991927123019833 0 0.84804809178421925 0.84804809178421925 0 -0.52991927123019833 1 I I #
coedge $-1 $285 $285 $-1 $396 reversed $195 $-1 #
edge $-1 $397 0 $397 6.2831853071796004 $196 $398 forward 7 unknown #
vertex $-1 $199 $399 #
ellipse-curve $-1 47.71609875575902 -7.6367250031425513 9.4142276788213231 0.52991927123019833 0 0.84804809178421925 0.84804809178421925 0 -0.52991927123019833 1 I I #
face $-1 $-1 $215 $30 $-1 $400 reversed single #
loop $-1 $-1 $305 $200 #
plane-surface $-1 0 25.099973252738938 0 0 -1 0 0 0 -1 forward_v I I I I #
coedge $-1 $401 $303 $306 $402 forward $201 $-1 #
coedge $-1 $309 $203 $204 $297 reversed $127 $-1 #
coedge $-1 $303 $401 $203 $295 reversed $201 $-1 #
edge $-1 $310 -12.373267249270349 $403 12.373267249270349 $294 $404 forward 7 unknown #
coedge $-1 $205 $204 $401 $405 forward $81 $-1 #
edge $-1 $301 -52.451551866206856 $403 52.451551866206856 $293 $406 forward 7 unknown #
coedge $-1 $306 $305 $205 $299 reversed $290 $-1 #
edge $-1 $407 -52.451551866206856 $300 52.451551866206856 $298 $408 forward 7 unknown #
vertex $-1 $207 $409 #
vertex $-1 $312 $410 #
straight-curve $-1 52.451551866206856 0 -12.373267249270349 0 -1 0 I I #
coedge $-1 $292 $294 $208 $304 reversed $201 $-1 #
edge $-1 $307 -25.099973252738938 $310 25.099973252738938 $303 $411 forward 7 unknown #
coedge $-1 $298 $209 $214 $313 forward $290 $-1 #
coedge $-1 $209 $298 $292 $402 reversed $290 $-1 #
vertex $-1 $210 $412 #
straight-curve $-1 0 25.099973252738938 12.373267249270349 -1 0 0 I I #
coedge $-1 $211 $293 $213 $312 reversed $127 $-1 #
vertex $-1 $304 $413 #
straight-curve $-1 0 -25.099973252738938 12.373267249270349 1 0 0 I I #
edge $-1 $216 -12.373267249270349 $301 12.373267249270349 $213 $414 forward 7 unknown #
edge $-1 $217 -12.373267249270349 $300 12.373267249270349 $214 $415 forward 7 unknown #
point $-1 52.451551866206856 -25.099973252738938 12.373267249270349 #
point $-1 52.451551866206856 25.099973252738938 12.373267249270349 #
face $-1 $-1 $416 $31 $-1 $417 reversed single #
loop $-1 $-1 $418 $219 #
plane-surface $-1 0 0 -12.373267249270349 0 0 1 1 0 0 forward_v I I I I #
coedge $-1 $224 $334 $321 $419 forward $220 $-1 #
coedge $-1 $324 $222 $418 $420 reversed $135 $-1 #
coedge $-1 $222 $324 $319 $419 reversed $135 $-1 #
coedge $-1 $421 $422 $222 $323 forward $416 $-1 #
edge $-1 $423 -12.373267249270349 $424 12.373267249270349 $322 $425 forward 7 unknown #
coedge $-1 $321 $320 $223 $325 reversed $135 $-1 #
edge $-1 $326 -12.373267249270349 $426 12.373267249270349 $324 $427 forward 7 unknown #
vertex $-1 $225 $428 #
straight-curve $-1 -22.409704065673985 -16.90919281579939 12.373267249270349 -1 0 0 I I #
coedge $-1 $422 $421 $226 $329 forward $416 $-1 #
edge $-1 $335 -12.373267249270349 $332 12.373267249270349 $328 $429 forward 7 unknown #
coedge $-1 $418 $227 $231 $337 forward $317 $-1 #
coedge $-1 $227 $418 $422 $430 forward $317 $-1 #
vertex $-1 $228 $431 #
straight-curve $-1 -47.192521264318323 -10.502291517134582 -12.373267249270349 0 1 0 I I #
coedge $-1 $319 $229 $421 $432 forward $220 $-1 #
vertex $-1 $432 $433 #
straight-curve $-1 -47.192521264318323 -10.502291517134582 12.373267249270349 0 -1 0 I I #
edge $-1 $233 -24.782817198644338 $426 -20.036590932703632 $330 $434 forward 7 unknown #
point $-1 -47.192521264318323 -16.90919281579939 12.373267249270349 #
point $-1 -47.192521264318323 -16.90919281579939 -12.373267249270349 #
loop $-1 $-1 $435 $235 #
plane-surface $-1 -52.451551866206856 0 0 1 0 0 0 0 -1 forward_v I I I I #
coedge $-1 $238 $241 $436 $437 forward $143 $-1 #
coedge $-1 $351 $244 $238 $344 reversed $236 $-1 #
edge $-1 $438 1.5693122067298617 $247 11.040218427625518 $238 $439 forward 7 unknown #
coedge $-1 $349 $436 $240 $346 forward $340 $-1 #
edge $-1 $347 35.335765276173525 $354 41.253844417071569 $345 $440 forward 7 unknown #
vertex $-1 $437 $441 #
straight-curve $-1 -54.020864072936718 -5.3186080499783417 12.373267249270349 -1 0 0 I I #
coedge $-1 $435 $345 $243 $350 forward $340 $-1 #
edge $-1 $354 -0.23834216646609097 $352 11.352242599354957 $349 $442 forward 7 unknown #
coedge $-1 $244 $343 $435 $443 reversed $236 $-1 #
vertex $-1 $443 $444 #
straight-curve $-1 -51.157559231973963 -16.90919281579939 7.2637644619459056 0.84804809178421925 0 0.52991927123019833 I I #
vertex $-1 $350 $445 #
straight-curve $-1 -52.451551866206863 -5.3186080499783417 6.4551881083722975 0.84804809178421925 0 0.52991927123019833 I I #
point $-1 -42.980645645311199 -16.90919281579939 12.373267249270349 #
point $-1 -42.980645645311199 -5.3186080499783417 12.373267249270349 #
edge $-1 $446 1 $446 0 $250 $-1 forward 7 unknown #
vertex $-1 $251 $447 #
ellipse-curve $-1 -45.756188279941377 -14.591075862635179 6.2777153281258711 -0.52991927123019833 0 0.84804809178421925 0.84804809178421925 0 0.52991927123019833 1 I I #
point $-1 -46.868050663974792 -14.591075862635179 9.9441469500515165 #
edge $-1 $448 1 $448 0 $254 $-1 forward 7 unknown #
vertex $-1 $255 $449 #
ellipse-curve $-1 -45.756188279941377 -11.113900432888865 6.2777153281258711 -0.52991927123019833 0 0.84804809178421925 0.84804809178421925 0 0.52991927123019833 1 I I #
point $-1 -46.868050663974792 -11.113900432888865 9.9441469500515165 #
edge $-1 $450 1 $450 0 $258 $-1 forward 7 unknown #
vertex $-1 $259 $451 #
ellipse-curve $-1 -45.756188279941377 -7.6367250031425513 6.2777153281258711 -0.52991927123019833 0 0.84804809178421925 0.84804809178421925 0 0.52991927123019833 1 I I #
point $-1 -46.868050663974792 -7.6367250031425513 9.9441469500515165 #
loop $-1 $-1 $270 $262 #
plane-surface $-1 52.451551866206856 0 0 -1 0 0 0 0 1 forward_v I I I I #
coedge $-1 $373 $265 $267 $377 reversed $172 $-1 #
coedge $-1 $265 $372 $452 $453 reversed $172 $-1 #
coedge $-1 $273 $268 $265 $375 forward $263 $-1 #
edge $-1 $378 33.441220043632192 $454 42.91212626452787 $374 $455 forward 7 unknown #
coedge $-1 $267 $266 $381 $456 reversed $108 $-1 #
edge $-1 $457 -104.90310373241374 $378 -93.735215598888516 $372 $458 forward 7 unknown #
vertex $-1 $269 $459 #
straight-curve $-1 42.980645645311171 -5.5569502164444327 12.373267249270349 0 -1 0 I I #
coedge $-1 $452 $270 $273 $385 reversed $370 $-1 #
coedge $-1 $270 $452 $376 $456 forward $370 $-1 #
vertex $-1 $271 $460 #
straight-curve $-1 52.451551866206856 -5.3186080499783417 75.504120665277156 0 0 1 I I #
straight-curve $-1 -36.511325076308601 -5.3186080499783417 62.045364388038863 0.84804809178421925 0 -0.52991927123019833 I I #
edge $-1 $454 -16.90919281579939 $274 -5.3186080499783417 $380 $461 forward 7 unknown #
point $-1 52.451551866206856 -5.3186080499783417 12.373267249270349 #
point $-1 42.980645645311178 -5.3186080499783417 12.373267249270349 #
edge $-1 $462 1 $462 0 $277 $-1 forward 7 unknown #
vertex $-1 $278 $463 #
ellipse-curve $-1 45.756188279941384 -14.591075862635179 6.2777153281258782 0.52991927123019833 0 0.84804809178421925 0.84804809178421925 0 -0.52991927123019833 1 I I #
point $-1 48.564146847543242 -14.591075862635179 8.8843084075911261 #
edge $-1 $464 1 $464 0 $281 $-1 forward 7 unknown #
vertex $-1 $282 $465 #
ellipse-curve $-1 45.756188279941384 -11.113900432888865 6.2777153281258782 0.52991927123019833 0 0.84804809178421925 0.84804809178421925 0 -0.52991927123019833 1 I I #
point $-1 48.564146847543242 -11.113900432888865 8.8843084075911261 #
edge $-1 $466 1 $466 0 $285 $-1 forward 7 unknown #
vertex $-1 $286 $467 #
ellipse-curve $-1 45.756188279941384 -7.6367250031425513 6.2777153281258782 0.52991927123019833 0 0.84804809178421925 0.84804809178421925 0 -0.52991927123019833 1 I I #
point $-1 48.564146847543242 -7.6367250031425513 8.8843084075911261 #
plane-surface $-1 52.451551866206856 0 0 -1 0 0 0 0 1 forward_v I I I I #
coedge $-1 $294 $292 $296 $405 reversed $201 $-1 #
edge $-1 $307 -12.373267249270349 $407 12.373267249270349 $306 $468 forward 7 unknown #
vertex $-1 $405 $469 #
straight-curve $-1 -52.451551866206856 -25.099973252738938 0 0 0 -1 I I #
edge $-1 $403 -25.099973252738938 $407 25.099973252738938 $401 $470 forward 7 unknown #
straight-curve $-1 0 -25.099973252738938 -12.373267249270349 -1 0 0 I I #
vertex $-1 $299 $471 #
straight-curve $-1 0 25.099973252738938 -12.373267249270349 1 0 0 I I #
point $-1 52.451551866206856 25.099973252738938 -12.373267249270349 #
point $-1 52.451551866206856 -25.099973252738938 -12.373267249270349 #
straight-curve $-1 -52.451551866206856 0 12.373267249270349 0 -1 0 I I #
point $-1 -52.451551866206856 25.099973252738938 12.373267249270349 #
point $-1 -52.451551866206856 -25.099973252738938 12.373267249270349 #
straight-curve $-1 52.451551866206856 -25.099973252738938 0 0 0 -1 I I #
straight-curve $-1 52.451551866206856 25.099973252738938 0 0 0 -1 I I #
loop $-1 $-1 $322 $316 #
plane-surface $-1 0 -25.099973252738938 0 0 1 0 0 0 1 forward_v I I I I #
coedge $-1 $331 $330 $320 $420 forward $317 $-1 #
edge $-1 $424 -14.597681735604356 $326 -6.406901298664808 $319 $472 forward 7 unknown #
edge $-1 $426 6.406901298664808 $423 14.597681735604356 $418 $473 forward 7 unknown #
coedge $-1 $328 $322 $334 $432 reversed $416 $-1 #
coedge $-1 $322 $328 $331 $430 reversed $416 $-1 #
vertex $-1 $430 $474 #
vertex $-1 $323 $475 #
straight-curve $-1 -42.446294998377617 -25.099973252738938 0 0 0 1 I I #
vertex $-1 $337 $476 #
straight-curve $-1 -42.446294998377617 -16.90919281579939 0 0 0 -1 I I #
point $-1 -42.446294998377617 -16.90919281579939 12.373267249270349 #
straight-curve $-1 -47.192521264318323 -25.099973252738938 0 0 0 -1 I I #
edge $-1 $423 42.446294998377617 $332 47.192521264318323 $422 $477 forward 7 unknown #
point $-1 -47.192521264318323 -25.099973252738938 -12.373267249270349 #
edge $-1 $335 -47.192521264318323 $424 -42.446294998377617 $421 $478 forward 7 unknown #
point $-1 -47.192521264318323 -25.099973252738938 12.373267249270349 #
straight-curve $-1 -22.409704065673985 -16.90919281579939 -12.373267249270349 1 0 0 I I #
coedge $-1 $436 $349 $351 $443 forward $340 $-1 #
coedge $-1 $345 $435 $342 $437 reversed $340 $-1 #
edge $-1 $347 5.3186080499783417 $438 16.90919281579939 $436 $479 forward 7 unknown #
vertex $-1 $344 $480 #
straight-curve $-1 -54.020864072936718 -16.90919281579939 12.373267249270349 1 0 0 I I #
straight-curve $-1 -52.451551866206856 -5.3186080499783417 47.709032525443874 0 0 -1 I I #
point $-1 -52.451551866206856 -5.3186080499783417 12.373267249270349 #
straight-curve $-1 -52.451551866206856 -5.5569502164444327 6.4551881083722993 0 -1 0 I I #
edge $-1 $352 -41.253844417071569 $438 -35.335765276173525 $435 $481 forward 7 unknown #
point $-1 -52.451551866206856 -16.90919281579939 6.4551881083723019 #
point $-1 -52.451551866206856 -5.3186080499783417 6.4551881083723019 #
vertex $-1 $358 $482 #
point $-1 -44.908140188157155 -14.591075862635179 6.807634599356069 #
vertex $-1 $362 $483 #
point $-1 -44.908140188157155 -11.113900432888865 6.807634599356069 #
vertex $-1 $366 $484 #
point $-1 -44.908140188157155 -7.6367250031425513 6.807634599356069 #
coedge $-1 $381 $380 $373 $453 forward $370 $-1 #
edge $-1 $454 63.130853416006808 $457 69.048932556904873 $452 $485 forward 7 unknown #
vertex $-1 $385 $486 #
straight-curve $-1 9.5394256016789853 -16.90919281579939 12.373267249270341 1 0 0 I I #
edge $-1 $457 -11.352242599354957 $382 0.23834216646609097 $381 $487 forward 7 unknown #
vertex $-1 $456 $488 #
straight-curve $-1 -36.511325076308601 -16.90919281579939 62.045364388038863 -0.84804809178421925 0 0.52991927123019833 I I #
point $-1 42.980645645311178 -16.90919281579939 12.373267249270349 #
point $-1 52.451551866206863 -5.3186080499783417 6.4551881083722833 #
straight-curve $-1 52.451551866206856 0 12.373267249270349 0 1 0 I I #
vertex $-1 $388 $489 #
point $-1 46.604236371725605 -14.591075862635179 5.7477960568956794 #
vertex $-1 $392 $490 #
point $-1 46.604236371725605 -11.113900432888865 5.7477960568956794 #
vertex $-1 $396 $491 #
point $-1 46.604236371725605 -7.6367250031425513 5.7477960568956794 #
straight-curve $-1 -52.451551866206856 25.099973252738938 0 0 0 -1 I I #
point $-1 -52.451551866206856 -25.099973252738938 -12.373267249270349 #
straight-curve $-1 -52.451551866206856 0 -12.373267249270349 0 1 0 I I #
point $-1 -52.451551866206856 25.099973252738938 -12.373267249270349 #
straight-curve $-1 -42.446294998377617 -10.502291517134582 12.373267249270349 0 1 0 I I #
straight-curve $-1 -42.446294998377617 -10.502291517134582 -12.373267249270349 0 -1 0 I I #
point $-1 -42.446294998377617 -25.099973252738938 -12.373267249270349 #
point $-1 -42.446294998377617 -25.099973252738938 12.373267249270349 #
point $-1 -42.446294998377617 -16.90919281579939 -12.373267249270349 #
straight-curve $-1 0 -25.099973252738938 -12.373267249270349 -1 0 0 I I #
straight-curve $-1 0 -25.099973252738938 12.373267249270349 1 0 0 I I #
straight-curve $-1 -52.451551866206856 0 12.373267249270349 0 -1 0 I I #
point $-1 -52.451551866206856 -16.90919281579939 12.373267249270349 #
straight-curve $-1 -52.451551866206856 -16.90919281579939 47.709032525443874 0 0 1 I I #
point $-1 -45.226269008711178 -14.591075862635179 5.4296672363416514 #
point $-1 -45.226269008711178 -11.113900432888865 5.4296672363416514 #
point $-1 -45.226269008711178 -7.6367250031425513 5.4296672363416514 #
straight-curve $-1 52.451551866206856 -16.90919281579939 75.504120665277156 0 0 -1 I I #
point $-1 52.451551866206856 -16.90919281579939 12.373267249270349 #
straight-curve $-1 52.451551866206863 -5.5569502164444327 6.4551881083722833 0 1 0 I I #
point $-1 52.451551866206863 -16.90919281579939 6.4551881083722833 #
point $-1 45.226269008711185 -14.591075862635179 5.4296672363416585 #
point $-1 45.226269008711185 -11.113900432888865 5.4296672363416585 #
point $-1 45.226269008711185 -7.6367250031425513 5.4296672363416585 #
End-of-ACIS-data 