500 0 9 0           
7 Unknown 11 ACIS 5.0 NT 24 Fri Mar 26 17:56:15 1999 
-1 9.9999999999999995e-007 1e-010 
body $-1 $9 $-1 $10 #
body $-1 $11 $-1 $12 #
body $-1 $13 $-1 $14 #
body $-1 $15 $-1 $16 #
body $-1 $17 $-1 $18 #
body $-1 $19 $-1 $20 #
body $-1 $21 $-1 $22 #
body $-1 $23 $-1 $24 #
body $-1 $25 $-1 $26 #
lump $-1 $-1 $27 $0 #
transform $-1 1 0 0 0 1 0 0 0 1 52.978911709952087 26.317586037331221 8.6243163961197293 1 rotate no_reflect no_shear #
lump $-1 $-1 $28 $1 #
transform $-1 1 0 0 0 0.78801074757464917 -0.61566148304635926 0 0.61566148304635926 0.78801074757464917 9.4314977165338156 76.392241486449848 125.41959922333506 1 rotate no_reflect no_shear #
lump $-1 $-1 $29 $2 #
transform $-1 1 0 0 0 -0.78801074757464917 0.61566148304635926 0 -0.61566148304635926 -0.78801074757464917 5.3894272665907517 45.114393359740866 10.089436409098518 1 rotate no_reflect no_shear #
lump $-1 $-1 $30 $3 #
transform $-1 1 0 0 0 -0.78801074757464917 0.61566148304635926 0 -0.61566148304635926 -0.78801074757464917 13.47356816647688 45.114393359740866 10.089436409098518 1 rotate no_reflect no_shear #
lump $-1 $-1 $31 $4 #
transform $-1 1 0 0 0 0.78801074757464917 -0.61566148304635926 0 0.61566148304635926 0.78801074757464917 96.526325703370361 76.392241486449848 125.41959922333506 1 rotate no_reflect no_shear #
lump $-1 $-1 $32 $5 #
transform $-1 1 0 0 0 -0.78801074757464917 0.61566148304635926 0 -0.61566148304635926 -0.78801074757464917 92.484255253427307 45.114393359740866 10.089436409098518 1 rotate no_reflect no_shear #
lump $-1 $-1 $33 $6 #
transform $-1 1 0 0 0 -0.78801074757464917 0.61566148304635926 0 -0.61566148304635926 -0.78801074757464917 100.56839615331343 45.114393359740866 10.089436409098518 1 rotate no_reflect no_shear #
lump $-1 $-1 $34 $7 #
transform $-1 1 0 0 0 0.74314481823134659 0.66913061440640931 0 -0.66913061440640931 0.74314481823134659 62.273329828694202 -70.899623486126316 91.387297236882631 1 rotate no_reflect no_shear #
lump $-1 $-1 $35 $8 #
transform $-1 1 0 0 0 -0.74314481823134659 -0.66913061440640931 0 0.66913061440640931 -0.74314481823134659 62.273329828694202 3.7059498207327293 13.670107098032087 1 rotate no_reflect no_shear #
shell $-1 $-1 $-1 $36 $-1 $9 #
shell $-1 $-1 $-1 $37 $-1 $11 #
shell $-1 $-1 $-1 $38 $-1 $13 #
shell $-1 $-1 $-1 $39 $-1 $15 #
shell $-1 $-1 $-1 $40 $-1 $17 #
shell $-1 $-1 $-1 $41 $-1 $19 #
shell $-1 $-1 $-1 $42 $-1 $21 #
shell $-1 $-1 $-1 $43 $-1 $23 #
shell $-1 $-1 $-1 $44 $-1 $25 #
face $-1 $45 $46 $27 $-1 $47 forward single #
face $-1 $48 $49 $28 $-1 $50 forward single #
face $-1 $51 $52 $29 $-1 $53 forward single #
face $-1 $54 $55 $30 $-1 $56 forward single #
face $-1 $57 $58 $31 $-1 $59 forward single #
face $-1 $60 $61 $32 $-1 $62 forward single #
face $-1 $63 $64 $33 $-1 $65 forward single #
face $-1 $66 $67 $34 $-1 $68 forward single #
face $-1 $69 $70 $35 $-1 $71 forward single #
face $-1 $72 $73 $27 $-1 $74 reversed single #
loop $-1 $-1 $75 $36 #
plane-surface $-1 0 0 8.6243163961197293 0 0 1 1 0 0 forward_v I I I I #
face $-1 $76 $77 $28 $-1 $78 reversed single #
loop $-1 $-1 $79 $37 #
plane-surface $-1 0 0 105.95782341990417 0 0 1 1 0 0 forward_v I I I I #
face $-1 $80 $81 $29 $-1 $82 forward single #
loop $-1 $83 $84 $38 #
cone-surface $-1 0 0 -2.5900753807184058 0 0 1 2 0 0 1 I I 0 1 2 forward I I I I #
face $-1 $85 $86 $30 $-1 $87 forward single #
loop $-1 $88 $89 $39 #
cone-surface $-1 0 0 -2.5900753807184058 0 0 1 2 0 0 1 I I 0 1 2 forward I I I I #
face $-1 $90 $91 $31 $-1 $92 reversed single #
loop $-1 $-1 $93 $40 #
plane-surface $-1 0 0 105.95782341990417 0 0 1 1 0 0 forward_v I I I I #
face $-1 $94 $95 $32 $-1 $96 forward single #
loop $-1 $97 $98 $41 #
cone-surface $-1 0 0 -2.5900753807184058 0 0 1 2 0 0 1 I I 0 1 2 forward I I I I #
face $-1 $99 $100 $33 $-1 $101 forward single #
loop $-1 $102 $103 $42 #
cone-surface $-1 0 0 -2.5900753807184058 0 0 1 2 0 0 1 I I 0 1 2 forward I I I I #
face $-1 $104 $105 $34 $-1 $106 reversed single #
loop $-1 $-1 $107 $43 #
plane-surface $-1 0 0 105.95782341990417 0 0 1 1 0 0 forward_v I I I I #
face $-1 $108 $109 $35 $-1 $110 forward single #
loop $-1 $111 $112 $44 #
cone-surface $-1 0 0 -1.1090884121219524 0 0 1 1 0 0 1 I I 0 1 1 forward I I I I #
face $-1 $113 $114 $27 $-1 $115 reversed single #
loop $-1 $-1 $116 $45 #
plane-surface $-1 0 0 -8.6243163961197293 0 0 1 1 0 0 forward_v I I I I #
coedge $-1 $117 $118 $119 $120 forward $46 $-1 #
face $-1 $121 $122 $28 $-1 $123 reversed single #
loop $-1 $-1 $124 $48 #
plane-surface $-1 0 0 -105.95782341990417 0 0 1 1 0 0 forward_v I I I I #
coedge $-1 $125 $126 $127 $128 forward $49 $-1 #
face $-1 $-1 $129 $29 $-1 $130 forward single #
loop $-1 $-1 $131 $51 #
plane-surface $-1 0 0 -4.1801507614368116 0 0 -1 -1 0 0 forward_v I I I I #
loop $-1 $-1 $132 $38 #
coedge $-1 $84 $84 $131 $133 reversed $52 $-1 #
face $-1 $-1 $134 $30 $-1 $135 forward single #
loop $-1 $-1 $136 $54 #
plane-surface $-1 0 0 -4.1801507614368116 0 0 -1 -1 0 0 forward_v I I I I #
loop $-1 $-1 $137 $39 #
coedge $-1 $89 $89 $136 $138 reversed $55 $-1 #
face $-1 $139 $140 $31 $-1 $141 reversed single #
loop $-1 $-1 $142 $57 #
plane-surface $-1 0 0 -105.95782341990417 0 0 1 1 0 0 forward_v I I I I #
coedge $-1 $143 $144 $145 $146 forward $58 $-1 #
face $-1 $-1 $147 $32 $-1 $148 forward single #
loop $-1 $-1 $149 $60 #
plane-surface $-1 0 0 -4.1801507614368116 0 0 -1 -1 0 0 forward_v I I I I #
loop $-1 $-1 $150 $41 #
coedge $-1 $98 $98 $149 $151 reversed $61 $-1 #
face $-1 $-1 $152 $33 $-1 $153 forward single #
loop $-1 $-1 $154 $63 #
plane-surface $-1 0 0 -4.1801507614368116 0 0 -1 -1 0 0 forward_v I I I I #
loop $-1 $-1 $155 $42 #
coedge $-1 $103 $103 $154 $156 reversed $64 $-1 #
face $-1 $157 $158 $34 $-1 $159 reversed single #
loop $-1 $-1 $160 $66 #
plane-surface $-1 0 0 -105.95782341990417 0 0 1 1 0 0 forward_v I I I I #
coedge $-1 $161 $162 $163 $164 forward $67 $-1 #
face $-1 $-1 $165 $35 $-1 $166 forward single #
loop $-1 $-1 $167 $69 #
plane-surface $-1 0 0 -1.7181768242439048 0 0 -1 -1 0 0 forward_v I I I I #
loop $-1 $-1 $168 $44 #
coedge $-1 $112 $112 $167 $169 reversed $70 $-1 #
face $-1 $170 $171 $27 $-1 $172 reversed single #
loop $-1 $-1 $173 $72 #
plane-surface $-1 0 -26.317586037331221 0 0 1 0 0 0 1 forward_v I I I I #
coedge $-1 $174 $175 $176 $177 forward $73 $-1 #
coedge $-1 $178 $75 $179 $180 forward $46 $-1 #
coedge $-1 $75 $178 $181 $182 forward $46 $-1 #
coedge $-1 $183 $184 $75 $120 reversed $185 $-1 #
edge $-1 $186 -26.317586037331221 $187 26.317586037331221 $119 $188 forward 7 unknown #
face $-1 $189 $190 $28 $-1 $191 reversed single #
loop $-1 $-1 $192 $76 #
plane-surface $-1 0 -211.91564683980835 0 0 1 0 0 0 1 forward_v I I I I #
coedge $-1 $193 $194 $195 $196 forward $77 $-1 #
coedge $-1 $197 $79 $198 $199 forward $49 $-1 #
coedge $-1 $79 $197 $200 $201 forward $49 $-1 #
coedge $-1 $202 $203 $79 $128 reversed $204 $-1 #
edge $-1 $205 -211.91564683980835 $206 211.91564683980835 $127 $207 forward 7 unknown #
loop $-1 $208 $209 $80 #
cone-surface $-1 0 0 0 0 0 1 1 0 0 1 I I -0.70710678118654746 0.70710678118654746 1 forward I I I I #
coedge $-1 $131 $131 $84 $133 forward $81 $-1 #
coedge $-1 $132 $132 $209 $210 forward $83 $-1 #
edge $-1 $211 0 $211 6.2831853071796004 $131 $212 forward 7 unknown #
loop $-1 $213 $214 $85 #
cone-surface $-1 0 0 0 0 0 1 1 0 0 1 I I -0.70710678118654746 0.70710678118654746 1 forward I I I I #
coedge $-1 $136 $136 $89 $138 forward $86 $-1 #
coedge $-1 $137 $137 $214 $215 forward $88 $-1 #
edge $-1 $216 0 $216 6.2831853071796004 $136 $217 forward 7 unknown #
face $-1 $218 $219 $31 $-1 $220 reversed single #
loop $-1 $-1 $221 $90 #
plane-surface $-1 0 -211.91564683980835 0 0 1 0 0 0 1 forward_v I I I I #
coedge $-1 $222 $223 $224 $225 forward $91 $-1 #
coedge $-1 $226 $93 $227 $228 forward $58 $-1 #
coedge $-1 $93 $226 $229 $230 forward $58 $-1 #
coedge $-1 $231 $232 $93 $146 reversed $233 $-1 #
edge $-1 $234 -211.91564683980835 $235 211.91564683980835 $145 $236 forward 7 unknown #
loop $-1 $237 $238 $94 #
cone-surface $-1 0 0 0 0 0 1 1 0 0 1 I I -0.70710678118654746 0.70710678118654746 1 forward I I I I #
coedge $-1 $149 $149 $98 $151 forward $95 $-1 #
coedge $-1 $150 $150 $238 $239 forward $97 $-1 #
edge $-1 $240 0 $240 6.2831853071796004 $149 $241 forward 7 unknown #
loop $-1 $242 $243 $99 #
cone-surface $-1 0 0 0 0 0 1 1 0 0 1 I I -0.70710678118654746 0.70710678118654746 1 forward I I I I #
coedge $-1 $154 $154 $103 $156 forward $100 $-1 #
coedge $-1 $155 $155 $243 $244 forward $102 $-1 #
edge $-1 $245 0 $245 6.2831853071796004 $154 $246 forward 7 unknown #
face $-1 $247 $248 $34 $-1 $249 reversed single #
loop $-1 $-1 $250 $104 #
plane-surface $-1 0 -211.91564683980835 0 0 1 0 0 0 1 forward_v I I I I #
coedge $-1 $251 $252 $253 $254 forward $105 $-1 #
coedge $-1 $255 $107 $256 $257 forward $67 $-1 #
coedge $-1 $107 $255 $258 $259 forward $67 $-1 #
coedge $-1 $260 $261 $107 $164 reversed $262 $-1 #
edge $-1 $263 -211.91564683980835 $264 211.91564683980835 $163 $265 forward 7 unknown #
loop $-1 $266 $267 $108 #
cone-surface $-1 0 0 0 0 0 1 0.5 0 0 1 I I -0.70710678118654746 0.70710678118654746 0.5 forward I I I I #
coedge $-1 $167 $167 $112 $169 forward $109 $-1 #
coedge $-1 $168 $168 $267 $268 forward $111 $-1 #
edge $-1 $269 0 $269 6.2831853071796004 $167 $270 forward 7 unknown #
face $-1 $271 $272 $27 $-1 $273 reversed single #
loop $-1 $-1 $274 $113 #
plane-surface $-1 -52.978911709952087 0 0 1 0 0 0 0 -1 forward_v I I I I #
coedge $-1 $275 $181 $276 $277 forward $114 $-1 #
coedge $-1 $278 $116 $275 $279 forward $73 $-1 #
coedge $-1 $116 $278 $280 $281 forward $73 $-1 #
coedge $-1 $184 $183 $116 $177 reversed $185 $-1 #
edge $-1 $282 -26.317586037331221 $283 26.317586037331221 $176 $284 forward 7 unknown #
coedge $-1 $118 $117 $285 $286 forward $46 $-1 #
coedge $-1 $287 $288 $117 $180 reversed $272 $-1 #
edge $-1 $187 -52.978911709952087 $289 52.978911709952087 $179 $290 forward 7 unknown #
coedge $-1 $173 $291 $118 $182 reversed $114 $-1 #
edge $-1 $292 -52.978911709952087 $186 52.978911709952087 $181 $293 forward 7 unknown #
coedge $-1 $176 $119 $291 $294 forward $185 $-1 #
coedge $-1 $119 $176 $287 $295 reversed $185 $-1 #
loop $-1 $-1 $183 $271 #
vertex $-1 $120 $296 #
vertex $-1 $120 $297 #
straight-curve $-1 52.978911709952087 0 8.6243163961197293 0 1 0 I I #
face $-1 $298 $299 $28 $-1 $300 reversed single #
loop $-1 $-1 $301 $121 #
plane-surface $-1 -9.4314977165338156 0 0 1 0 0 0 0 -1 forward_v I I I I #
coedge $-1 $302 $200 $303 $304 forward $122 $-1 #
coedge $-1 $305 $124 $302 $306 forward $77 $-1 #
coedge $-1 $124 $305 $307 $308 forward $77 $-1 #
coedge $-1 $203 $202 $124 $196 reversed $204 $-1 #
edge $-1 $309 -211.91564683980835 $310 211.91564683980835 $195 $311 forward 7 unknown #
coedge $-1 $126 $125 $312 $313 forward $49 $-1 #
coedge $-1 $314 $315 $125 $199 reversed $299 $-1 #
edge $-1 $206 -9.4314977165338156 $316 9.4314977165338156 $198 $317 forward 7 unknown #
coedge $-1 $192 $318 $126 $201 reversed $122 $-1 #
edge $-1 $319 -9.4314977165338156 $205 9.4314977165338156 $200 $320 forward 7 unknown #
coedge $-1 $195 $127 $318 $321 forward $204 $-1 #
coedge $-1 $127 $195 $314 $322 reversed $204 $-1 #
loop $-1 $-1 $202 $298 #
vertex $-1 $128 $323 #
vertex $-1 $128 $324 #
straight-curve $-1 9.4314977165338156 0 105.95782341990417 0 1 0 I I #
loop $-1 $-1 $325 $80 #
coedge $-1 $209 $209 $132 $210 reversed $129 $-1 #
edge $-1 $326 0 $326 6.2831853071796004 $209 $327 forward 7 unknown #
vertex $-1 $133 $328 #
ellipse-curve $-1 0 0 -4.1801507614368116 0 0 -1 2 0 0 1 I I #
loop $-1 $-1 $329 $85 #
coedge $-1 $214 $214 $137 $215 reversed $134 $-1 #
edge $-1 $330 0 $330 6.2831853071796004 $214 $331 forward 7 unknown #
vertex $-1 $138 $332 #
ellipse-curve $-1 0 0 -4.1801507614368116 0 0 -1 2 0 0 1 I I #
face $-1 $333 $334 $31 $-1 $335 reversed single #
loop $-1 $-1 $336 $139 #
plane-surface $-1 -9.4314977165338156 0 0 1 0 0 0 0 -1 forward_v I I I I #
coedge $-1 $337 $229 $338 $339 forward $140 $-1 #
coedge $-1 $340 $142 $337 $341 forward $91 $-1 #
coedge $-1 $142 $340 $342 $343 forward $91 $-1 #
coedge $-1 $232 $231 $142 $225 reversed $233 $-1 #
edge $-1 $344 -211.91564683980835 $345 211.91564683980835 $224 $346 forward 7 unknown #
coedge $-1 $144 $143 $347 $348 forward $58 $-1 #
coedge $-1 $349 $350 $143 $228 reversed $334 $-1 #
edge $-1 $235 -9.4314977165338156 $351 9.4314977165338156 $227 $352 forward 7 unknown #
coedge $-1 $221 $353 $144 $230 reversed $140 $-1 #
edge $-1 $354 -9.4314977165338156 $234 9.4314977165338156 $229 $355 forward 7 unknown #
coedge $-1 $224 $145 $353 $356 forward $233 $-1 #
coedge $-1 $145 $224 $349 $357 reversed $233 $-1 #
loop $-1 $-1 $231 $333 #
vertex $-1 $146 $358 #
vertex $-1 $146 $359 #
straight-curve $-1 9.4314977165338156 0 105.95782341990417 0 1 0 I I #
loop $-1 $-1 $360 $94 #
coedge $-1 $238 $238 $150 $239 reversed $147 $-1 #
edge $-1 $361 0 $361 6.2831853071796004 $238 $362 forward 7 unknown #
vertex $-1 $151 $363 #
ellipse-curve $-1 0 0 -4.1801507614368116 0 0 -1 2 0 0 1 I I #
loop $-1 $-1 $364 $99 #
coedge $-1 $243 $243 $155 $244 reversed $152 $-1 #
edge $-1 $365 0 $365 6.2831853071796004 $243 $366 forward 7 unknown #
vertex $-1 $156 $367 #
ellipse-curve $-1 0 0 -4.1801507614368116 0 0 -1 2 0 0 1 I I #
face $-1 $368 $369 $34 $-1 $370 reversed single #
loop $-1 $-1 $371 $157 #
plane-surface $-1 -12.472122166795842 0 0 1 0 0 0 0 -1 forward_v I I I I #
coedge $-1 $372 $258 $373 $374 forward $158 $-1 #
coedge $-1 $375 $160 $372 $376 forward $105 $-1 #
coedge $-1 $160 $375 $377 $378 forward $105 $-1 #
coedge $-1 $261 $260 $160 $254 reversed $262 $-1 #
edge $-1 $379 -211.91564683980835 $380 211.91564683980835 $253 $381 forward 7 unknown #
coedge $-1 $162 $161 $382 $383 forward $67 $-1 #
coedge $-1 $384 $385 $161 $257 reversed $369 $-1 #
edge $-1 $264 -12.472122166795842 $386 12.472122166795842 $256 $387 forward 7 unknown #
coedge $-1 $250 $388 $162 $259 reversed $158 $-1 #
edge $-1 $389 -12.472122166795842 $263 12.472122166795842 $258 $390 forward 7 unknown #
coedge $-1 $253 $163 $388 $391 forward $262 $-1 #
coedge $-1 $163 $253 $384 $392 reversed $262 $-1 #
loop $-1 $-1 $260 $368 #
vertex $-1 $164 $393 #
vertex $-1 $164 $394 #
straight-curve $-1 12.472122166795842 0 105.95782341990417 0 1 0 I I #
loop $-1 $-1 $395 $108 #
coedge $-1 $267 $267 $168 $268 reversed $165 $-1 #
edge $-1 $396 0 $396 6.2831853071796004 $267 $397 forward 7 unknown #
vertex $-1 $169 $398 #
ellipse-curve $-1 0 0 -1.7181768242439048 0 0 -1 1 0 0 1 I I #
face $-1 $-1 $185 $27 $-1 $399 reversed single #
loop $-1 $-1 $287 $170 #
plane-surface $-1 0 26.317586037331221 0 0 -1 0 0 0 -1 forward_v I I I I #
coedge $-1 $400 $285 $288 $401 forward $171 $-1 #
coedge $-1 $291 $173 $174 $279 reversed $114 $-1 #
coedge $-1 $285 $400 $173 $277 reversed $171 $-1 #
edge $-1 $292 -8.6243163961197293 $402 8.6243163961197293 $276 $403 forward 7 unknown #
coedge $-1 $175 $174 $400 $404 forward $73 $-1 #
edge $-1 $283 -52.978911709952087 $402 52.978911709952087 $275 $405 forward 7 unknown #
coedge $-1 $288 $287 $175 $281 reversed $272 $-1 #
edge $-1 $406 -52.978911709952087 $282 52.978911709952087 $280 $407 forward 7 unknown #
vertex $-1 $177 $408 #
vertex $-1 $294 $409 #
straight-curve $-1 52.978911709952087 0 -8.6243163961197293 0 -1 0 I I #
coedge $-1 $274 $276 $178 $286 reversed $171 $-1 #
edge $-1 $289 -26.317586037331221 $292 26.317586037331221 $285 $410 forward 7 unknown #
coedge $-1 $280 $179 $184 $295 forward $272 $-1 #
coedge $-1 $179 $280 $274 $401 reversed $272 $-1 #
vertex $-1 $180 $411 #
straight-curve $-1 0 26.317586037331221 8.6243163961197293 -1 0 0 I I #
coedge $-1 $181 $275 $183 $294 reversed $114 $-1 #
vertex $-1 $286 $412 #
straight-curve $-1 0 -26.317586037331221 8.6243163961197293 1 0 0 I I #
edge $-1 $186 -8.6243163961197293 $283 8.6243163961197293 $183 $413 forward 7 unknown #
edge $-1 $187 -8.6243163961197293 $282 8.6243163961197293 $184 $414 forward 7 unknown #
point $-1 52.978911709952087 -26.317586037331221 8.6243163961197293 #
point $-1 52.978911709952087 26.317586037331221 8.6243163961197293 #
face $-1 $-1 $204 $28 $-1 $415 reversed single #
loop $-1 $-1 $314 $189 #
plane-surface $-1 0 211.91564683980835 0 0 -1 0 0 0 -1 forward_v I I I I #
coedge $-1 $416 $312 $315 $417 forward $190 $-1 #
coedge $-1 $318 $192 $193 $306 reversed $122 $-1 #
coedge $-1 $312 $416 $192 $304 reversed $190 $-1 #
edge $-1 $319 -105.95782341990417 $418 105.95782341990417 $303 $419 forward 7 unknown #
coedge $-1 $194 $193 $416 $420 forward $77 $-1 #
edge $-1 $310 -9.4314977165338156 $418 9.4314977165338156 $302 $421 forward 7 unknown #
coedge $-1 $315 $314 $194 $308 reversed $299 $-1 #
edge $-1 $422 -9.4314977165338156 $309 9.4314977165338156 $307 $423 forward 7 unknown #
vertex $-1 $196 $424 #
vertex $-1 $321 $425 #
straight-curve $-1 9.4314977165338156 0 -105.95782341990417 0 -1 0 I I #
coedge $-1 $301 $303 $197 $313 reversed $190 $-1 #
edge $-1 $316 -211.91564683980835 $319 211.91564683980835 $312 $426 forward 7 unknown #
coedge $-1 $307 $198 $203 $322 forward $299 $-1 #
coedge $-1 $198 $307 $301 $417 reversed $299 $-1 #
vertex $-1 $199 $427 #
straight-curve $-1 0 211.91564683980835 105.95782341990417 -1 0 0 I I #
coedge $-1 $200 $302 $202 $321 reversed $122 $-1 #
vertex $-1 $313 $428 #
straight-curve $-1 0 -211.91564683980835 105.95782341990417 1 0 0 I I #
edge $-1 $205 -105.95782341990417 $310 105.95782341990417 $202 $429 forward 7 unknown #
edge $-1 $206 -105.95782341990417 $309 105.95782341990417 $203 $430 forward 7 unknown #
point $-1 9.4314977165338156 -211.91564683980835 105.95782341990417 #
point $-1 9.4314977165338156 211.91564683980835 105.95782341990417 #
coedge $-1 $325 $325 $-1 $431 reversed $208 $-1 #
vertex $-1 $210 $432 #
ellipse-curve $-1 0 0 -1 0 0 -1 2 0 0 1 I I #
point $-1 2 0 -4.1801507614368116 #
coedge $-1 $329 $329 $-1 $433 reversed $213 $-1 #
vertex $-1 $215 $434 #
ellipse-curve $-1 0 0 -1 0 0 -1 2 0 0 1 I I #
point $-1 2 0 -4.1801507614368116 #
face $-1 $-1 $233 $31 $-1 $435 reversed single #
loop $-1 $-1 $349 $218 #
plane-surface $-1 0 211.91564683980835 0 0 -1 0 0 0 -1 forward_v I I I I #
coedge $-1 $436 $347 $350 $437 forward $219 $-1 #
coedge $-1 $353 $221 $222 $341 reversed $140 $-1 #
coedge $-1 $347 $436 $221 $339 reversed $219 $-1 #
edge $-1 $354 -105.95782341990417 $438 105.95782341990417 $338 $439 forward 7 unknown #
coedge $-1 $223 $222 $436 $440 forward $91 $-1 #
edge $-1 $345 -9.4314977165338156 $438 9.4314977165338156 $337 $441 forward 7 unknown #
coedge $-1 $350 $349 $223 $343 reversed $334 $-1 #
edge $-1 $442 -9.4314977165338156 $344 9.4314977165338156 $342 $443 forward 7 unknown #
vertex $-1 $225 $444 #
vertex $-1 $356 $445 #
straight-curve $-1 9.4314977165338156 0 -105.95782341990417 0 -1 0 I I #
coedge $-1 $336 $338 $226 $348 reversed $219 $-1 #
edge $-1 $351 -211.91564683980835 $354 211.91564683980835 $347 $446 forward 7 unknown #
coedge $-1 $342 $227 $232 $357 forward $334 $-1 #
coedge $-1 $227 $342 $336 $437 reversed $334 $-1 #
vertex $-1 $228 $447 #
straight-curve $-1 0 211.91564683980835 105.95782341990417 -1 0 0 I I #
coedge $-1 $229 $337 $231 $356 reversed $140 $-1 #
vertex $-1 $348 $448 #
straight-curve $-1 0 -211.91564683980835 105.95782341990417 1 0 0 I I #
edge $-1 $234 -105.95782341990417 $345 105.95782341990417 $231 $449 forward 7 unknown #
edge $-1 $235 -105.95782341990417 $344 105.95782341990417 $232 $450 forward 7 unknown #
point $-1 9.4314977165338156 -211.91564683980835 105.95782341990417 #
point $-1 9.4314977165338156 211.91564683980835 105.95782341990417 #
coedge $-1 $360 $360 $-1 $451 reversed $237 $-1 #
vertex $-1 $239 $452 #
ellipse-curve $-1 0 0 -1 0 0 -1 2 0 0 1 I I #
point $-1 2 0 -4.1801507614368116 #
coedge $-1 $364 $364 $-1 $453 reversed $242 $-1 #
vertex $-1 $244 $454 #
ellipse-curve $-1 0 0 -1 0 0 -1 2 0 0 1 I I #
point $-1 2 0 -4.1801507614368116 #
face $-1 $-1 $262 $34 $-1 $455 reversed single #
loop $-1 $-1 $384 $247 #
plane-surface $-1 0 211.91564683980835 0 0 -1 0 0 0 -1 forward_v I I I I #
coedge $-1 $456 $382 $385 $457 forward $248 $-1 #
coedge $-1 $388 $250 $251 $376 reversed $158 $-1 #
coedge $-1 $382 $456 $250 $374 reversed $248 $-1 #
edge $-1 $389 -105.95782341990417 $458 105.95782341990417 $373 $459 forward 7 unknown #
coedge $-1 $252 $251 $456 $460 forward $105 $-1 #
edge $-1 $380 -12.472122166795842 $458 12.472122166795842 $372 $461 forward 7 unknown #
coedge $-1 $385 $384 $252 $378 reversed $369 $-1 #
edge $-1 $462 -12.472122166795842 $379 12.472122166795842 $377 $463 forward 7 unknown #
vertex $-1 $254 $464 #
vertex $-1 $391 $465 #
straight-curve $-1 12.472122166795842 0 -105.95782341990417 0 -1 0 I I #
coedge $-1 $371 $373 $255 $383 reversed $248 $-1 #
edge $-1 $386 -211.91564683980835 $389 211.91564683980835 $382 $466 forward 7 unknown #
coedge $-1 $377 $256 $261 $392 forward $369 $-1 #
coedge $-1 $256 $377 $371 $457 reversed $369 $-1 #
vertex $-1 $257 $467 #
straight-curve $-1 0 211.91564683980835 105.95782341990417 -1 0 0 I I #
coedge $-1 $258 $372 $260 $391 reversed $158 $-1 #
vertex $-1 $383 $468 #
straight-curve $-1 0 -211.91564683980835 105.95782341990417 1 0 0 I I #
edge $-1 $263 -105.95782341990417 $380 105.95782341990417 $260 $469 forward 7 unknown #
edge $-1 $264 -105.95782341990417 $379 105.95782341990417 $261 $470 forward 7 unknown #
point $-1 12.472122166795842 -211.91564683980835 105.95782341990417 #
point $-1 12.472122166795842 211.91564683980835 105.95782341990417 #
coedge $-1 $395 $395 $-1 $471 reversed $266 $-1 #
vertex $-1 $268 $472 #
ellipse-curve $-1 0 0 -0.5 0 0 -1 1 0 0 1 I I #
point $-1 1 0 -1.7181768242439048 #
plane-surface $-1 52.978911709952087 0 0 -1 0 0 0 0 1 forward_v I I I I #
coedge $-1 $276 $274 $278 $404 reversed $171 $-1 #
edge $-1 $289 -8.6243163961197293 $406 8.6243163961197293 $288 $473 forward 7 unknown #
vertex $-1 $404 $474 #
straight-curve $-1 -52.978911709952087 -26.317586037331221 0 0 0 -1 I I #
edge $-1 $402 -26.317586037331221 $406 26.317586037331221 $400 $475 forward 7 unknown #
straight-curve $-1 0 -26.317586037331221 -8.6243163961197293 -1 0 0 I I #
vertex $-1 $281 $476 #
straight-curve $-1 0 26.317586037331221 -8.6243163961197293 1 0 0 I I #
point $-1 52.978911709952087 26.317586037331221 -8.6243163961197293 #
point $-1 52.978911709952087 -26.317586037331221 -8.6243163961197293 #
straight-curve $-1 -52.978911709952087 0 8.6243163961197293 0 -1 0 I I #
point $-1 -52.978911709952087 26.317586037331221 8.6243163961197293 #
point $-1 -52.978911709952087 -26.317586037331221 8.6243163961197293 #
straight-curve $-1 52.978911709952087 -26.317586037331221 0 0 0 -1 I I #
straight-curve $-1 52.978911709952087 26.317586037331221 0 0 0 -1 I I #
plane-surface $-1 9.4314977165338156 0 0 -1 0 0 0 0 1 forward_v I I I I #
coedge $-1 $303 $301 $305 $420 reversed $190 $-1 #
edge $-1 $316 -105.95782341990417 $422 105.95782341990417 $315 $477 forward 7 unknown #
vertex $-1 $420 $478 #
straight-curve $-1 -9.4314977165338156 -211.91564683980835 0 0 0 -1 I I #
edge $-1 $418 -211.91564683980835 $422 211.91564683980835 $416 $479 forward 7 unknown #
straight-curve $-1 0 -211.91564683980835 -105.95782341990417 -1 0 0 I I #
vertex $-1 $308 $480 #
straight-curve $-1 0 211.91564683980835 -105.95782341990417 1 0 0 I I #
point $-1 9.4314977165338156 211.91564683980835 -105.95782341990417 #
point $-1 9.4314977165338156 -211.91564683980835 -105.95782341990417 #
straight-curve $-1 -9.4314977165338156 0 105.95782341990417 0 -1 0 I I #
point $-1 -9.4314977165338156 211.91564683980835 105.95782341990417 #
point $-1 -9.4314977165338156 -211.91564683980835 105.95782341990417 #
straight-curve $-1 9.4314977165338156 -211.91564683980835 0 0 0 -1 I I #
straight-curve $-1 9.4314977165338156 211.91564683980835 0 0 0 -1 I I #
edge $-1 $481 1 $481 0 $325 $-1 forward 7 unknown #
point $-1 2 0 -1 #
edge $-1 $482 1 $482 0 $329 $-1 forward 7 unknown #
point $-1 2 0 -1 #
plane-surface $-1 9.4314977165338156 0 0 -1 0 0 0 0 1 forward_v I I I I #
coedge $-1 $338 $336 $340 $440 reversed $219 $-1 #
edge $-1 $351 -105.95782341990417 $442 105.95782341990417 $350 $483 forward 7 unknown #
vertex $-1 $440 $484 #
straight-curve $-1 -9.4314977165338156 -211.91564683980835 0 0 0 -1 I I #
edge $-1 $438 -211.91564683980835 $442 211.91564683980835 $436 $485 forward 7 unknown #
straight-curve $-1 0 -211.91564683980835 -105.95782341990417 -1 0 0 I I #
vertex $-1 $343 $486 #
straight-curve $-1 0 211.91564683980835 -105.95782341990417 1 0 0 I I #
point $-1 9.4314977165338156 211.91564683980835 -105.95782341990417 #
point $-1 9.4314977165338156 -211.91564683980835 -105.95782341990417 #
straight-curve $-1 -9.4314977165338156 0 105.95782341990417 0 -1 0 I I #
point $-1 -9.4314977165338156 211.91564683980835 105.95782341990417 #
point $-1 -9.4314977165338156 -211.91564683980835 105.95782341990417 #
straight-curve $-1 9.4314977165338156 -211.91564683980835 0 0 0 -1 I I #
straight-curve $-1 9.4314977165338156 211.91564683980835 0 0 0 -1 I I #
edge $-1 $487 1 $487 0 $360 $-1 forward 7 unknown #
point $-1 2 0 -1 #
edge $-1 $488 1 $488 0 $364 $-1 forward 7 unknown #
point $-1 2 0 -1 #
plane-surface $-1 12.472122166795842 0 0 -1 0 0 0 0 1 forward_v I I I I #
coedge $-1 $373 $371 $375 $460 reversed $248 $-1 #
edge $-1 $386 -105.95782341990417 $462 105.95782341990417 $385 $489 forward 7 unknown #
vertex $-1 $460 $490 #
straight-curve $-1 -12.472122166795842 -211.91564683980835 0 0 0 -1 I I #
edge $-1 $458 -211.91564683980835 $462 211.91564683980835 $456 $491 forward 7 unknown #
straight-curve $-1 0 -211.91564683980835 -105.95782341990417 -1 0 0 I I #
vertex $-1 $378 $492 #
straight-curve $-1 0 211.91564683980835 -105.95782341990417 1 0 0 I I #
point $-1 12.472122166795842 211.91564683980835 -105.95782341990417 #
point $-1 12.472122166795842 -211.91564683980835 -105.95782341990417 #
straight-curve $-1 -12.472122166795842 0 105.95782341990417 0 -1 0 I I #
point $-1 -12.472122166795842 211.91564683980835 105.95782341990417 #
point $-1 -12.472122166795842 -211.91564683980835 105.95782341990417 #
straight-curve $-1 12.472122166795842 -211.91564683980835 0 0 0 -1 I I #
straight-curve $-1 12.472122166795842 211.91564683980835 0 0 0 -1 I I #
edge $-1 $493 1 $493 0 $395 $-1 forward 7 unknown #
point $-1 1 0 -0.5 #
straight-curve $-1 -52.978911709952087 26.317586037331221 0 0 0 -1 I I #
point $-1 -52.978911709952087 -26.317586037331221 -8.6243163961197293 #
straight-curve $-1 -52.978911709952087 0 -8.6243163961197293 0 1 0 I I #
point $-1 -52.978911709952087 26.317586037331221 -8.6243163961197293 #
straight-curve $-1 -9.4314977165338156 211.91564683980835 0 0 0 -1 I I #
point $-1 -9.4314977165338156 -211.91564683980835 -105.95782341990417 #
straight-curve $-1 -9.4314977165338156 0 -105.95782341990417 0 1 0 I I #
point $-1 -9.4314977165338156 211.91564683980835 -105.95782341990417 #
vertex $-1 $431 $494 #
vertex $-1 $433 $495 #
straight-curve $-1 -9.4314977165338156 211.91564683980835 0 0 0 -1 I I #
point $-1 -9.4314977165338156 -211.91564683980835 -105.95782341990417 #
straight-curve $-1 -9.4314977165338156 0 -105.95782341990417 0 1 0 I I #
point $-1 -9.4314977165338156 211.91564683980835 -105.95782341990417 #
vertex $-1 $451 $496 #
vertex $-1 $453 $497 #
straight-curve $-1 -12.472122166795842 211.91564683980835 0 0 0 -1 I I #
point $-1 -12.472122166795842 -211.91564683980835 -105.95782341990417 #
straight-curve $-1 -12.472122166795842 0 -105.95782341990417 0 1 0 I I #
point $-1 -12.472122166795842 211.91564683980835 -105.95782341990417 #
vertex $-1 $471 $498 #
point $-1 0 0 1 #
point $-1 0 0 1 #
point $-1 0 0 1 #
point $-1 0 0 1 #
point $-1 0 0 0.5 #
End-of-ACIS-data 