500 0 18 0           
7 Unknown 11 ACIS 5.0 NT 24 Thu Mar 25 20:35:27 1999 
-1 9.9999999999999995e-007 1e-010 
body $-1 $18 $-1 $19 #
body $-1 $20 $-1 $21 #
body $-1 $22 $-1 $23 #
body $-1 $24 $-1 $25 #
body $-1 $26 $-1 $27 #
body $-1 $28 $-1 $29 #
body $-1 $30 $-1 $31 #
body $-1 $32 $-1 $33 #
body $-1 $34 $-1 $35 #
body $-1 $36 $-1 $37 #
body $-1 $38 $-1 $39 #
body $-1 $40 $-1 $41 #
body $-1 $42 $-1 $43 #
body $-1 $44 $-1 $45 #
body $-1 $46 $-1 $47 #
body $-1 $48 $-1 $49 #
body $-1 $50 $-1 $51 #
body $-1 $52 $-1 $53 #
lump $-1 $-1 $54 $0 #
transform $-1 1 0 0 0 1 0 0 0 1 69.955748161259805 29.975484068829989 11.748501593138096 1 rotate no_reflect no_shear #
lump $-1 $-1 $55 $1 #
transform $-1 1 0 0 0 1 0 0 0 1 69.955748161259805 29.975484068829989 11.748501593138096 1 rotate no_reflect no_shear #
lump $-1 $-1 $56 $2 #
transform $-1 1 0 0 0 1 0 0 0 1 69.955748161259805 29.975484068829989 11.748501593138096 1 rotate no_reflect no_shear #
lump $-1 $-1 $57 $3 #
transform $-1 1 0 0 0 1 0 0 0 1 69.955748161259805 29.975484068829989 11.748501593138096 1 rotate no_reflect no_shear #
lump $-1 $-1 $58 $4 #
transform $-1 1 0 0 0 1 0 0 0 1 69.955748161259805 29.975484068829989 11.748501593138096 1 rotate no_reflect no_shear #
lump $-1 $-1 $59 $5 #
transform $-1 1 0 0 0 1 0 0 0 1 69.955748161259805 29.975484068829989 11.748501593138096 1 rotate no_reflect no_shear #
lump $-1 $-1 $60 $6 #
transform $-1 1 0 0 0 1 0 0 0 1 69.955748161259805 29.975484068829989 11.748501593138096 1 rotate no_reflect no_shear #
lump $-1 $-1 $61 $7 #
transform $-1 1 0 0 0 1 0 0 0 1 69.955748161259805 29.975484068829989 11.748501593138096 1 rotate no_reflect no_shear #
lump $-1 $-1 $62 $8 #
transform $-1 1 0 0 0 1 0 0 0 1 69.955748161259805 29.975484068829989 11.748501593138096 1 rotate no_reflect no_shear #
lump $-1 $-1 $63 $9 #
transform $-1 1 0 0 0 1 0 0 0 1 69.955748161259805 29.975484068829989 11.748501593138096 1 rotate no_reflect no_shear #
lump $-1 $-1 $64 $10 #
transform $-1 1 0 0 0 1 0 0 0 1 69.955748161259805 29.975484068829989 11.748501593138096 1 rotate no_reflect no_shear #
lump $-1 $-1 $65 $11 #
transform $-1 1 0 0 0 1 0 0 0 1 69.955748161259805 29.975484068829989 11.748501593138096 1 rotate no_reflect no_shear #
lump $-1 $-1 $66 $12 #
transform $-1 1 0 0 0 1 0 0 0 1 69.955748161259805 29.975484068829989 11.748501593138096 1 rotate no_reflect no_shear #
lump $-1 $-1 $67 $13 #
transform $-1 1 0 0 0 1 0 0 0 1 69.955748161259805 29.975484068829989 11.748501593138096 1 rotate no_reflect no_shear #
lump $-1 $-1 $68 $14 #
transform $-1 1 0 0 0 1 0 0 0 1 69.955748161259805 29.975484068829989 11.748501593138096 1 rotate no_reflect no_shear #
lump $-1 $-1 $69 $15 #
transform $-1 1 0 0 0 1 0 0 0 1 69.955748161259805 29.975484068829989 11.748501593138096 1 rotate no_reflect no_shear #
lump $-1 $-1 $70 $16 #
transform $-1 1 0 0 0 1 0 0 0 1 69.955748161259805 29.975484068829989 11.748501593138096 1 rotate no_reflect no_shear #
lump $-1 $-1 $71 $17 #
transform $-1 1 0 0 0 1 0 0 0 1 69.955748161259805 29.975484068829989 11.748501593138096 1 rotate no_reflect no_shear #
shell $-1 $-1 $-1 $72 $-1 $18 #
shell $-1 $-1 $-1 $73 $-1 $20 #
shell $-1 $-1 $-1 $74 $-1 $22 #
shell $-1 $-1 $-1 $75 $-1 $24 #
shell $-1 $-1 $-1 $76 $-1 $26 #
shell $-1 $-1 $-1 $77 $-1 $28 #
shell $-1 $-1 $-1 $78 $-1 $30 #
shell $-1 $-1 $-1 $79 $-1 $32 #
shell $-1 $-1 $-1 $80 $-1 $34 #
shell $-1 $-1 $-1 $81 $-1 $36 #
shell $-1 $-1 $-1 $82 $-1 $38 #
shell $-1 $-1 $-1 $83 $-1 $40 #
shell $-1 $-1 $-1 $84 $-1 $42 #
shell $-1 $-1 $-1 $85 $-1 $44 #
shell $-1 $-1 $-1 $86 $-1 $46 #
shell $-1 $-1 $-1 $87 $-1 $48 #
shell $-1 $-1 $-1 $88 $-1 $50 #
shell $-1 $-1 $-1 $89 $-1 $52 #
face $-1 $90 $91 $54 $-1 $92 forward single #
face $-1 $93 $94 $55 $-1 $95 forward single #
face $-1 $96 $97 $56 $-1 $98 forward single #
face $-1 $99 $100 $57 $-1 $101 reversed single #
face $-1 $102 $103 $58 $-1 $104 forward single #
face $-1 $105 $106 $59 $-1 $107 forward single #
face $-1 $108 $109 $60 $-1 $110 reversed single #
face $-1 $111 $112 $61 $-1 $113 forward single #
face $-1 $114 $115 $62 $-1 $116 forward single #
face $-1 $117 $118 $63 $-1 $119 forward single #
face $-1 $120 $121 $64 $-1 $122 reversed single #
face $-1 $123 $124 $65 $-1 $125 forward single #
face $-1 $126 $127 $66 $-1 $128 forward single #
face $-1 $129 $130 $67 $-1 $131 forward single #
face $-1 $132 $133 $68 $-1 $134 reversed single #
face $-1 $135 $136 $69 $-1 $137 forward single #
face $-1 $138 $139 $70 $-1 $140 forward single #
face $-1 $141 $142 $71 $-1 $143 forward single #
face $-1 $144 $145 $54 $-1 $146 reversed single #
loop $-1 $-1 $147 $72 #
plane-surface $-1 0 0 11.748501593138096 0 0 1 1 0 0 forward_v I I I I #
face $-1 $148 $149 $55 $-1 $150 reversed single #
loop $-1 $-1 $151 $73 #
plane-surface $-1 0 -29.975484068829989 0 0 1 0 0 0 1 forward_v I I I I #
face $-1 $152 $153 $56 $-1 $154 reversed single #
loop $-1 $-1 $155 $74 #
plane-surface $-1 0 29.975484068829989 0 0 -1 0 0 0 -1 forward_v I I I I #
face $-1 $156 $157 $57 $-1 $158 reversed single #
loop $-1 $-1 $159 $75 #
plane-surface $-1 39.002885906440312 19.91943073369811 196.24862274875733 0 -1 0 -0.5877852598018023 0 -0.80901698891910034 forward_v I I I I #
face $-1 $160 $161 $58 $-1 $162 forward single #
loop $-1 $163 $164 $76 #
cone-surface $-1 62.078396463093249 15.362064202851979 5.7936627095279398 -0.5877852598018023 0 -0.80901698891910034 0.40450849445955017 0 -0.29389262990090115 1 I I 0 1 0.5 forward I I I I #
face $-1 $165 $166 $59 $-1 $167 forward single #
loop $-1 $168 $169 $77 #
cone-surface $-1 62.078396463093249 18.096484121359655 5.7936627095279398 -0.5877852598018023 0 -0.80901698891910034 0.40450849445955017 0 -0.29389262990090115 1 I I 0 1 0.5 forward I I I I #
face $-1 $170 $171 $60 $-1 $172 reversed single #
loop $-1 $-1 $173 $78 #
plane-surface $-1 -180.20751297150019 -10.748928781730338 90.735438730961292 0 1 0 -0.78801076186113728 0 0.61566146476048833 forward_v I I I I #
face $-1 $174 $175 $61 $-1 $176 forward single #
loop $-1 $177 $178 $79 #
cone-surface $-1 -66.768185930767984 -9.3159090617317979 7.8650810482924003 0.78801076186113728 0 -0.61566146476048833 0.15391536619012208 0 0.19700269046528432 1 I I 0 1 0.25 forward I I I I #
face $-1 $179 $180 $62 $-1 $181 forward single #
loop $-1 $182 $183 $80 #
cone-surface $-1 -66.768185930767984 -7.166379481733987 7.8650810482924003 0.78801076186113728 0 -0.61566146476048833 0.15391536619012208 0 0.19700269046528432 1 I I 0 1 0.25 forward I I I I #
face $-1 $184 $185 $63 $-1 $186 forward single #
loop $-1 $187 $188 $81 #
cone-surface $-1 -66.768185930767984 -5.0168499017361761 7.8650810482924003 0.78801076186113728 0 -0.61566146476048833 0.15391536619012208 0 0.19700269046528432 1 I I 0 1 0.25 forward I I I I #
face $-1 $189 $190 $64 $-1 $191 reversed single #
loop $-1 $-1 $192 $82 #
plane-surface $-1 -180.20751297150019 1.0027016759875345 90.735438730961292 0 1 0 -0.78801076186113728 0 0.61566146476048833 forward_v I I I I #
face $-1 $193 $194 $65 $-1 $195 forward single #
loop $-1 $196 $197 $83 #
cone-surface $-1 -66.768185930767984 2.4357213959860751 7.8650810482924003 0.78801076186113728 0 -0.61566146476048833 0.15391536619012208 0 0.19700269046528432 1 I I 0 1 0.25 forward I I I I #
face $-1 $198 $199 $66 $-1 $200 forward single #
loop $-1 $201 $202 $84 #
cone-surface $-1 -66.768185930767984 4.585250975983886 7.8650810482924003 0.78801076186113728 0 -0.61566146476048833 0.15391536619012208 0 0.19700269046528432 1 I I 0 1 0.25 forward I I I I #
face $-1 $203 $204 $67 $-1 $205 forward single #
loop $-1 $206 $207 $85 #
cone-surface $-1 -66.768185930767984 6.7347805559816969 7.8650810482924003 0.78801076186113728 0 -0.61566146476048833 0.15391536619012208 0 0.19700269046528432 1 I I 0 1 0.25 forward I I I I #
face $-1 $208 $209 $68 $-1 $210 reversed single #
loop $-1 $-1 $211 $86 #
plane-surface $-1 -180.20751297150019 12.754332133705407 90.735438730961292 0 1 0 -0.78801076186113728 0 0.61566146476048833 forward_v I I I I #
face $-1 $212 $213 $69 $-1 $214 forward single #
loop $-1 $215 $216 $87 #
cone-surface $-1 -66.768185930767984 14.187351853703948 7.8650810482924003 0.78801076186113728 0 -0.61566146476048833 0.15391536619012208 0 0.19700269046528432 1 I I 0 1 0.25 forward I I I I #
face $-1 $217 $218 $70 $-1 $219 forward single #
loop $-1 $220 $221 $88 #
cone-surface $-1 -66.768185930767984 16.336881433701759 7.8650810482924003 0.78801076186113728 0 -0.61566146476048833 0.15391536619012208 0 0.19700269046528432 1 I I 0 1 0.25 forward I I I I #
face $-1 $222 $223 $71 $-1 $224 forward single #
loop $-1 $225 $226 $89 #
cone-surface $-1 -66.768185930767984 18.48641101369957 7.8650810482924003 0.78801076186113728 0 -0.61566146476048833 0.15391536619012208 0 0.19700269046528432 1 I I 0 1 0.25 forward I I I I #
face $-1 $227 $228 $54 $-1 $229 reversed single #
loop $-1 $-1 $230 $90 #
plane-surface $-1 0 0 -11.748501593138096 0 0 1 1 0 0 forward_v I I I I #
coedge $-1 $231 $232 $233 $234 forward $91 $-1 #
face $-1 $235 $236 $55 $-1 $237 reversed single #
loop $-1 $-1 $238 $93 #
plane-surface $-1 0 0 -11.748501593138096 0 0 1 1 0 0 forward_v I I I I #
coedge $-1 $239 $240 $241 $242 forward $94 $-1 #
face $-1 $243 $244 $56 $-1 $245 forward single #
loop $-1 $-1 $246 $96 #
plane-surface $-1 69.955748161259805 0 0 -1 0 0 0 0 1 forward_v I I I I #
coedge $-1 $247 $248 $249 $250 forward $97 $-1 #
face $-1 $251 $252 $57 $-1 $253 reversed single #
loop $-1 $-1 $254 $99 #
plane-surface $-1 -43.235029308750782 16.729274162105821 83.057845278746726 0.5877852598018023 0 0.80901698891910034 0.80901698891910034 0 -0.5877852598018023 forward_v I I I I #
coedge $-1 $255 $256 $257 $258 reversed $100 $-1 #
face $-1 $-1 $259 $58 $-1 $260 forward single #
loop $-1 $261 $262 $102 #
cone-surface $-1 61.575042438118317 15.362064202851979 5.1008553434792585 -0.5877852598018023 0 -0.80901698891910034 0.20225424722977509 0 -0.14694631495045057 1 I I -0.70710678118654746 0.70710678118654746 0.25 forward I I I I #
loop $-1 $-1 $263 $76 #
coedge $-1 $164 $164 $264 $265 reversed $103 $-1 #
face $-1 $-1 $266 $59 $-1 $267 forward single #
loop $-1 $268 $269 $105 #
cone-surface $-1 61.575042438118317 18.096484121359655 5.1008553434792585 -0.5877852598018023 0 -0.80901698891910034 0.20225424722977509 0 -0.14694631495045057 1 I I -0.70710678118654746 0.70710678118654746 0.25 forward I I I I #
loop $-1 $-1 $270 $77 #
coedge $-1 $169 $169 $271 $272 reversed $106 $-1 #
face $-1 $273 $274 $60 $-1 $275 reversed single #
loop $-1 $-1 $276 $108 #
plane-surface $-1 -69.955748161259805 -7.166379481733987 4.5973219682071971 -0.78801076186113728 0 0.61566146476048833 0.61566146476048833 0 0.78801076186113728 forward_v I I I I #
coedge $-1 $277 $278 $279 $280 reversed $109 $-1 #
face $-1 $-1 $281 $61 $-1 $282 forward single #
loop $-1 $283 $284 $111 #
cone-surface $-1 -66.275679204604771 -9.3159090617317979 7.4802926328170951 0.78801076186113728 0 -0.61566146476048833 0.076957683095061041 0 0.09850134523264216 1 I I -0.70710678118654746 0.70710678118654746 0.125 forward I I I I #
loop $-1 $-1 $285 $79 #
coedge $-1 $178 $178 $286 $287 reversed $112 $-1 #
face $-1 $-1 $288 $62 $-1 $289 forward single #
loop $-1 $290 $291 $114 #
cone-surface $-1 -66.275679204604771 -7.166379481733987 7.4802926328170951 0.78801076186113728 0 -0.61566146476048833 0.076957683095061041 0 0.09850134523264216 1 I I -0.70710678118654746 0.70710678118654746 0.125 forward I I I I #
loop $-1 $-1 $292 $80 #
coedge $-1 $183 $183 $293 $294 reversed $115 $-1 #
face $-1 $-1 $295 $63 $-1 $296 forward single #
loop $-1 $297 $298 $117 #
cone-surface $-1 -66.275679204604771 -5.0168499017361761 7.4802926328170951 0.78801076186113728 0 -0.61566146476048833 0.076957683095061041 0 0.09850134523264216 1 I I -0.70710678118654746 0.70710678118654746 0.125 forward I I I I #
loop $-1 $-1 $299 $81 #
coedge $-1 $188 $188 $300 $301 reversed $118 $-1 #
face $-1 $302 $303 $64 $-1 $304 reversed single #
loop $-1 $-1 $305 $120 #
plane-surface $-1 -69.955748161259805 4.585250975983886 4.5973219682071971 -0.78801076186113728 0 0.61566146476048833 0.61566146476048833 0 0.78801076186113728 forward_v I I I I #
coedge $-1 $306 $307 $308 $309 reversed $121 $-1 #
face $-1 $-1 $310 $65 $-1 $311 forward single #
loop $-1 $312 $313 $123 #
cone-surface $-1 -66.275679204604771 2.4357213959860751 7.4802926328170951 0.78801076186113728 0 -0.61566146476048833 0.076957683095061041 0 0.09850134523264216 1 I I -0.70710678118654746 0.70710678118654746 0.125 forward I I I I #
loop $-1 $-1 $314 $83 #
coedge $-1 $197 $197 $315 $316 reversed $124 $-1 #
face $-1 $-1 $317 $66 $-1 $318 forward single #
loop $-1 $319 $320 $126 #
cone-surface $-1 -66.275679204604771 4.585250975983886 7.4802926328170951 0.78801076186113728 0 -0.61566146476048833 0.076957683095061041 0 0.09850134523264216 1 I I -0.70710678118654746 0.70710678118654746 0.125 forward I I I I #
loop $-1 $-1 $321 $84 #
coedge $-1 $202 $202 $322 $323 reversed $127 $-1 #
face $-1 $-1 $324 $67 $-1 $325 forward single #
loop $-1 $326 $327 $129 #
cone-surface $-1 -66.275679204604771 6.7347805559816969 7.4802926328170951 0.78801076186113728 0 -0.61566146476048833 0.076957683095061041 0 0.09850134523264216 1 I I -0.70710678118654746 0.70710678118654746 0.125 forward I I I I #
loop $-1 $-1 $328 $85 #
coedge $-1 $207 $207 $329 $330 reversed $130 $-1 #
face $-1 $331 $332 $68 $-1 $333 reversed single #
loop $-1 $-1 $334 $132 #
plane-surface $-1 -69.955748161259805 16.336881433701759 4.5973219682071971 -0.78801076186113728 0 0.61566146476048833 0.61566146476048833 0 0.78801076186113728 forward_v I I I I #
coedge $-1 $335 $336 $337 $338 reversed $133 $-1 #
face $-1 $-1 $339 $69 $-1 $340 forward single #
loop $-1 $341 $342 $135 #
cone-surface $-1 -66.275679204604771 14.187351853703948 7.4802926328170951 0.78801076186113728 0 -0.61566146476048833 0.076957683095061041 0 0.09850134523264216 1 I I -0.70710678118654746 0.70710678118654746 0.125 forward I I I I #
loop $-1 $-1 $343 $87 #
coedge $-1 $216 $216 $344 $345 reversed $136 $-1 #
face $-1 $-1 $346 $70 $-1 $347 forward single #
loop $-1 $348 $349 $138 #
cone-surface $-1 -66.275679204604771 16.336881433701759 7.4802926328170951 0.78801076186113728 0 -0.61566146476048833 0.076957683095061041 0 0.09850134523264216 1 I I -0.70710678118654746 0.70710678118654746 0.125 forward I I I I #
loop $-1 $-1 $350 $88 #
coedge $-1 $221 $221 $351 $352 reversed $139 $-1 #
face $-1 $-1 $353 $71 $-1 $354 forward single #
loop $-1 $355 $356 $141 #
cone-surface $-1 -66.275679204604771 18.48641101369957 7.4802926328170951 0.78801076186113728 0 -0.61566146476048833 0.076957683095061041 0 0.09850134523264216 1 I I -0.70710678118654746 0.70710678118654746 0.125 forward I I I I #
loop $-1 $-1 $357 $89 #
coedge $-1 $226 $226 $358 $359 reversed $142 $-1 #
face $-1 $360 $361 $54 $-1 $362 reversed single #
loop $-1 $-1 $363 $144 #
plane-surface $-1 0 -29.975484068829989 0 0 1 0 0 0 1 forward_v I I I I #
coedge $-1 $364 $365 $366 $367 forward $145 $-1 #
coedge $-1 $368 $147 $369 $370 forward $91 $-1 #
coedge $-1 $147 $368 $371 $372 forward $91 $-1 #
coedge $-1 $373 $374 $147 $234 reversed $375 $-1 #
edge $-1 $376 -29.975484068829989 $377 29.975484068829989 $233 $378 forward 7 unknown #
face $-1 $379 $380 $55 $-1 $381 reversed single #
loop $-1 $-1 $382 $148 #
plane-surface $-1 -48.697188234852398 -44.615507498204472 0 0 1 0 0 0 1 forward_v I I I I #
coedge $-1 $383 $384 $240 $385 forward $149 $-1 #
coedge $-1 $386 $151 $387 $388 reversed $94 $-1 #
coedge $-1 $151 $386 $238 $385 reversed $94 $-1 #
coedge $-1 $389 $390 $151 $242 reversed $380 $-1 #
edge $-1 $391 -11.748501593138096 $392 11.748501593138096 $241 $393 forward 7 unknown #
face $-1 $394 $395 $56 $-1 $396 reversed single #
loop $-1 $-1 $397 $152 #
plane-surface $-1 0 35.003510736395924 -5.4837575233036677 0 0 1 1 0 0 forward_v I I I I #
coedge $-1 $398 $399 $248 $400 forward $153 $-1 #
coedge $-1 $401 $155 $402 $403 reversed $97 $-1 #
coedge $-1 $155 $401 $246 $400 reversed $97 $-1 #
coedge $-1 $397 $404 $155 $250 reversed $244 $-1 #
edge $-1 $405 -69.955748161259805 $406 69.955748161259805 $249 $407 forward 7 unknown #
face $-1 $408 $409 $57 $-1 $410 forward single #
loop $-1 $-1 $411 $156 #
plane-surface $-1 39.002885906440312 13.539117590513531 196.24862274875733 0 1 0 0.5877852598018023 0 0.80901698891910034 forward_v I I I I #
coedge $-1 $412 $413 $414 $415 reversed $157 $-1 #
coedge $-1 $256 $159 $416 $417 reversed $100 $-1 #
coedge $-1 $159 $255 $412 $418 reversed $100 $-1 #
coedge $-1 $414 $419 $159 $258 forward $409 $-1 #
edge $-1 $420 -50.454305208039649 $421 -35.412417231755462 $257 $422 forward 7 unknown #
loop $-1 $-1 $264 $160 #
plane-surface $-1 -43.235029308750782 16.729274162105821 83.057845278746726 0.5877852598018023 0 0.80901698891910034 0.80901698891910034 0 -0.5877852598018023 forward_v I I I I #
loop $-1 $-1 $423 $102 #
coedge $-1 $262 $262 $263 $424 reversed $161 $-1 #
coedge $-1 $263 $263 $262 $424 forward $163 $-1 #
coedge $-1 $264 $264 $164 $265 forward $259 $-1 #
edge $-1 $425 0 $425 6.2831853071796004 $264 $426 forward 7 unknown #
loop $-1 $-1 $271 $165 #
plane-surface $-1 -43.235029308750782 16.729274162105821 83.057845278746726 0.5877852598018023 0 0.80901698891910034 0.80901698891910034 0 -0.5877852598018023 forward_v I I I I #
loop $-1 $-1 $427 $105 #
coedge $-1 $269 $269 $270 $428 reversed $166 $-1 #
coedge $-1 $270 $270 $269 $428 forward $168 $-1 #
coedge $-1 $271 $271 $169 $272 forward $266 $-1 #
edge $-1 $429 0 $429 6.2831853071796004 $271 $430 forward 7 unknown #
face $-1 $431 $432 $60 $-1 $433 reversed single #
loop $-1 $-1 $434 $170 #
plane-surface $-1 -180.20751297150019 -3.5838301817376355 90.735438730961292 0 -1 0 0.78801076186113728 0 -0.61566146476048833 forward_v I I I I #
coedge $-1 $435 $436 $437 $438 reversed $171 $-1 #
coedge $-1 $278 $173 $439 $440 reversed $109 $-1 #
coedge $-1 $173 $277 $435 $441 reversed $109 $-1 #
coedge $-1 $437 $442 $173 $280 forward $443 $-1 #
edge $-1 $444 20.148008324490291 $445 25.735122023612789 $279 $446 forward 7 unknown #
loop $-1 $-1 $286 $174 #
plane-surface $-1 -69.955748161259805 -7.166379481733987 4.5973219682071971 -0.78801076186113728 0 0.61566146476048833 0.61566146476048833 0 0.78801076186113728 forward_v I I I I #
loop $-1 $-1 $447 $111 #
coedge $-1 $284 $284 $285 $448 reversed $175 $-1 #
coedge $-1 $285 $285 $284 $448 forward $177 $-1 #
coedge $-1 $286 $286 $178 $287 forward $281 $-1 #
edge $-1 $449 0 $449 6.2831853071796004 $286 $450 forward 7 unknown #
loop $-1 $-1 $293 $179 #
plane-surface $-1 -69.955748161259805 -7.166379481733987 4.5973219682071971 -0.78801076186113728 0 0.61566146476048833 0.61566146476048833 0 0.78801076186113728 forward_v I I I I #
loop $-1 $-1 $451 $114 #
coedge $-1 $291 $291 $292 $452 reversed $180 $-1 #
coedge $-1 $292 $292 $291 $452 forward $182 $-1 #
coedge $-1 $293 $293 $183 $294 forward $288 $-1 #
edge $-1 $453 0 $453 6.2831853071796004 $293 $454 forward 7 unknown #
loop $-1 $-1 $300 $184 #
plane-surface $-1 -69.955748161259805 -7.166379481733987 4.5973219682071971 -0.78801076186113728 0 0.61566146476048833 0.61566146476048833 0 0.78801076186113728 forward_v I I I I #
loop $-1 $-1 $455 $117 #
coedge $-1 $298 $298 $299 $456 reversed $185 $-1 #
coedge $-1 $299 $299 $298 $456 forward $187 $-1 #
coedge $-1 $300 $300 $188 $301 forward $295 $-1 #
edge $-1 $457 0 $457 6.2831853071796004 $300 $458 forward 7 unknown #
face $-1 $459 $460 $64 $-1 $461 forward single #
loop $-1 $-1 $462 $189 #
plane-surface $-1 -180.20751297150019 8.1678002759802375 90.735438730961292 0 -1 0 0.78801076186113728 0 -0.61566146476048833 forward_v I I I I #
coedge $-1 $463 $464 $465 $466 reversed $190 $-1 #
coedge $-1 $307 $192 $467 $468 reversed $121 $-1 #
coedge $-1 $192 $306 $463 $469 reversed $121 $-1 #
coedge $-1 $465 $470 $192 $309 forward $460 $-1 #
edge $-1 $471 20.148008324490291 $472 25.735122023612789 $308 $473 forward 7 unknown #
loop $-1 $-1 $315 $193 #
plane-surface $-1 -69.955748161259805 4.585250975983886 4.5973219682071971 -0.78801076186113728 0 0.61566146476048833 0.61566146476048833 0 0.78801076186113728 forward_v I I I I #
loop $-1 $-1 $474 $123 #
coedge $-1 $313 $313 $314 $475 reversed $194 $-1 #
coedge $-1 $314 $314 $313 $475 forward $196 $-1 #
coedge $-1 $315 $315 $197 $316 forward $310 $-1 #
edge $-1 $476 0 $476 6.2831853071796004 $315 $477 forward 7 unknown #
loop $-1 $-1 $322 $198 #
plane-surface $-1 -69.955748161259805 4.585250975983886 4.5973219682071971 -0.78801076186113728 0 0.61566146476048833 0.61566146476048833 0 0.78801076186113728 forward_v I I I I #
loop $-1 $-1 $478 $126 #
coedge $-1 $320 $320 $321 $479 reversed $199 $-1 #
coedge $-1 $321 $321 $320 $479 forward $201 $-1 #
coedge $-1 $322 $322 $202 $323 forward $317 $-1 #
edge $-1 $480 0 $480 6.2831853071796004 $322 $481 forward 7 unknown #
loop $-1 $-1 $329 $203 #
plane-surface $-1 -69.955748161259805 4.585250975983886 4.5973219682071971 -0.78801076186113728 0 0.61566146476048833 0.61566146476048833 0 0.78801076186113728 forward_v I I I I #
loop $-1 $-1 $482 $129 #
coedge $-1 $327 $327 $328 $483 reversed $204 $-1 #
coedge $-1 $328 $328 $327 $483 forward $206 $-1 #
coedge $-1 $329 $329 $207 $330 forward $324 $-1 #
edge $-1 $484 0 $484 6.2831853071796004 $329 $485 forward 7 unknown #
face $-1 $486 $487 $68 $-1 $488 forward single #
loop $-1 $-1 $489 $208 #
plane-surface $-1 -180.20751297150019 19.91943073369811 90.735438730961292 0 -1 0 0.78801076186113728 0 -0.61566146476048833 forward_v I I I I #
coedge $-1 $490 $491 $492 $493 reversed $209 $-1 #
coedge $-1 $336 $211 $494 $495 reversed $133 $-1 #
coedge $-1 $211 $335 $490 $496 reversed $133 $-1 #
coedge $-1 $492 $497 $211 $338 forward $487 $-1 #
edge $-1 $498 20.148008324490291 $499 25.735122023612789 $337 $500 forward 7 unknown #
loop $-1 $-1 $344 $212 #
plane-surface $-1 -69.955748161259805 16.336881433701759 4.5973219682071971 -0.78801076186113728 0 0.61566146476048833 0.61566146476048833 0 0.78801076186113728 forward_v I I I I #
loop $-1 $-1 $501 $135 #
coedge $-1 $342 $342 $343 $502 reversed $213 $-1 #
coedge $-1 $343 $343 $342 $502 forward $215 $-1 #
coedge $-1 $344 $344 $216 $345 forward $339 $-1 #
edge $-1 $503 0 $503 6.2831853071796004 $344 $504 forward 7 unknown #
loop $-1 $-1 $351 $217 #
plane-surface $-1 -69.955748161259805 16.336881433701759 4.5973219682071971 -0.78801076186113728 0 0.61566146476048833 0.61566146476048833 0 0.78801076186113728 forward_v I I I I #
loop $-1 $-1 $505 $138 #
coedge $-1 $349 $349 $350 $506 reversed $218 $-1 #
coedge $-1 $350 $350 $349 $506 forward $220 $-1 #
coedge $-1 $351 $351 $221 $352 forward $346 $-1 #
edge $-1 $507 0 $507 6.2831853071796004 $351 $508 forward 7 unknown #
loop $-1 $-1 $358 $222 #
plane-surface $-1 -69.955748161259805 16.336881433701759 4.5973219682071971 -0.78801076186113728 0 0.61566146476048833 0.61566146476048833 0 0.78801076186113728 forward_v I I I I #
loop $-1 $-1 $509 $141 #
coedge $-1 $356 $356 $357 $510 reversed $223 $-1 #
coedge $-1 $357 $357 $356 $510 forward $225 $-1 #
coedge $-1 $358 $358 $226 $359 forward $353 $-1 #
edge $-1 $511 0 $511 6.2831853071796004 $358 $512 forward 7 unknown #
face $-1 $513 $514 $54 $-1 $515 reversed single #
loop $-1 $-1 $516 $227 #
plane-surface $-1 -69.955748161259805 0 0 1 0 0 0 0 -1 forward_v I I I I #
coedge $-1 $517 $371 $518 $519 forward $228 $-1 #
coedge $-1 $520 $230 $517 $521 forward $145 $-1 #
coedge $-1 $230 $520 $522 $523 forward $145 $-1 #
coedge $-1 $374 $373 $230 $367 reversed $375 $-1 #
edge $-1 $524 -29.975484068829989 $525 29.975484068829989 $366 $526 forward 7 unknown #
coedge $-1 $232 $231 $527 $528 forward $91 $-1 #
coedge $-1 $529 $530 $231 $370 reversed $514 $-1 #
edge $-1 $377 -69.955748161259805 $531 69.955748161259805 $369 $532 forward 7 unknown #
coedge $-1 $363 $533 $232 $372 reversed $228 $-1 #
edge $-1 $534 -69.955748161259805 $376 69.955748161259805 $371 $535 forward 7 unknown #
coedge $-1 $366 $233 $533 $536 forward $375 $-1 #
coedge $-1 $233 $366 $529 $537 reversed $375 $-1 #
loop $-1 $-1 $373 $513 #
vertex $-1 $234 $538 #
vertex $-1 $234 $539 #
straight-curve $-1 69.955748161259805 0 11.748501593138096 0 1 0 I I #
face $-1 $540 $541 $55 $-1 $542 reversed single #
loop $-1 $-1 $241 $235 #
plane-surface $-1 -50.935631494721179 -37.295495783517232 0 1 0 0 0 0 -1 forward_v I I I I #
coedge $-1 $543 $544 $545 $546 forward $236 $-1 #
coedge $-1 $547 $238 $548 $549 forward $149 $-1 #
coedge $-1 $238 $547 $389 $550 forward $149 $-1 #
edge $-1 $391 -50.935631494721179 $551 -46.458744974983617 $238 $552 forward 7 unknown #
coedge $-1 $240 $239 $553 $554 forward $94 $-1 #
coedge $-1 $555 $556 $239 $388 forward $557 $-1 #
edge $-1 $558 46.458744974983617 $392 50.935631494721179 $387 $559 forward 7 unknown #
coedge $-1 $545 $241 $384 $550 reversed $380 $-1 #
coedge $-1 $241 $545 $555 $560 reversed $380 $-1 #
vertex $-1 $385 $561 #
vertex $-1 $560 $562 #
straight-curve $-1 -50.935631494721179 -29.975484068829989 0 0 0 1 I I #
face $-1 $563 $564 $56 $-1 $565 reversed single #
loop $-1 $-1 $566 $243 #
plane-surface $-1 0 40.031537403961863 -8.6161295582208819 0 -1 0 0 0 -1 forward_v I I I I #
coedge $-1 $567 $249 $399 $568 forward $244 $-1 #
coedge $-1 $569 $246 $570 $571 reversed $153 $-1 #
coedge $-1 $246 $569 $397 $568 reversed $153 $-1 #
edge $-1 $405 5.4837575233036677 $572 11.748501593138096 $246 $573 forward 7 unknown #
coedge $-1 $248 $247 $574 $575 reversed $97 $-1 #
coedge $-1 $576 $577 $247 $403 forward $578 $-1 #
edge $-1 $579 -11.748501593138096 $406 -5.4837575233036677 $402 $580 forward 7 unknown #
coedge $-1 $249 $567 $576 $581 forward $244 $-1 #
vertex $-1 $400 $582 #
vertex $-1 $581 $583 #
straight-curve $-1 0 29.975484068829989 -5.4837575233036677 -1 0 0 I I #
face $-1 $-1 $584 $57 $-1 $585 reversed single #
loop $-1 $-1 $257 $251 #
plane-surface $-1 0 0 11.748501593138096 0 0 1 1 0 0 forward_v I I I I #
coedge $-1 $586 $587 $588 $589 reversed $252 $-1 #
coedge $-1 $590 $254 $256 $418 forward $157 $-1 #
coedge $-1 $254 $590 $586 $591 forward $157 $-1 #
coedge $-1 $588 $257 $254 $415 forward $409 $-1 #
edge $-1 $421 -11.5547936526452 $592 -5.1744805094606203 $414 $593 forward 7 unknown #
coedge $-1 $594 $595 $255 $417 forward $584 $-1 #
edge $-1 $596 -97.304381310823032 $420 -86.375809781240562 $416 $597 forward 7 unknown #
edge $-1 $421 121.31870014850952 $596 139.91149632251961 $256 $598 forward 7 unknown #
coedge $-1 $257 $588 $594 $599 forward $409 $-1 #
vertex $-1 $417 $600 #
vertex $-1 $258 $601 #
straight-curve $-1 19.501442953220156 19.91943073369811 11.748501593138101 -1 0 0 I I #
coedge $-1 $423 $423 $-1 $602 reversed $261 $-1 #
edge $-1 $603 0 $603 6.2831853071796004 $262 $604 forward 7 unknown #
vertex $-1 $265 $605 #
ellipse-curve $-1 62.434804173117726 15.362064202851979 6.284215828346845 0.5877852598018023 0 0.80901698891910034 0.40450849445955017 0 -0.29389262990090115 1 I I #
coedge $-1 $427 $427 $-1 $606 reversed $268 $-1 #
edge $-1 $607 0 $607 6.2831853071796004 $269 $608 forward 7 unknown #
vertex $-1 $272 $609 #
ellipse-curve $-1 62.434804173117726 18.096484121359655 6.284215828346845 0.5877852598018023 0 0.80901698891910034 0.40450849445955017 0 -0.29389262990090115 1 I I #
face $-1 $-1 $443 $60 $-1 $610 forward single #
loop $-1 $-1 $611 $273 #
plane-surface $-1 -69.955748161259805 0 0 1 0 0 0 0 -1 forward_v I I I I #
coedge $-1 $612 $613 $614 $615 reversed $274 $-1 #
coedge $-1 $616 $276 $278 $441 forward $171 $-1 #
coedge $-1 $276 $616 $612 $617 forward $171 $-1 #
coedge $-1 $614 $279 $276 $438 forward $443 $-1 #
edge $-1 $445 -7.165739040863345 $618 -0.00064044087064196731 $437 $619 forward 7 unknown #
coedge $-1 $620 $621 $277 $440 forward $432 $-1 #
edge $-1 $622 -40.770397397273449 $444 -33.619217772342552 $439 $623 forward 7 unknown #
edge $-1 $445 -9.0749771082327868 $622 0 $278 $624 forward 7 unknown #
coedge $-1 $279 $614 $620 $625 forward $443 $-1 #
loop $-1 $-1 $614 $431 #
vertex $-1 $440 $626 #
vertex $-1 $280 $627 #
straight-curve $-1 -90.103756485750097 -10.748928781730338 11.748501593138094 1 0 0 I I #
coedge $-1 $447 $447 $-1 $628 reversed $283 $-1 #
edge $-1 $629 0 $629 6.2831853071796004 $284 $630 forward 7 unknown #
vertex $-1 $287 $631 #
ellipse-curve $-1 -67.16219131169855 -9.3159090617317979 8.1729117806726475 -0.78801076186113728 0 0.61566146476048833 0.15391536619012208 0 0.19700269046528432 1 I I #
coedge $-1 $451 $451 $-1 $632 reversed $290 $-1 #
edge $-1 $633 0 $633 6.2831853071796004 $291 $634 forward 7 unknown #
vertex $-1 $294 $635 #
ellipse-curve $-1 -67.16219131169855 -7.166379481733987 8.1729117806726475 -0.78801076186113728 0 0.61566146476048833 0.15391536619012208 0 0.19700269046528432 1 I I #
coedge $-1 $455 $455 $-1 $636 reversed $297 $-1 #
edge $-1 $637 0 $637 6.2831853071796004 $298 $638 forward 7 unknown #
vertex $-1 $301 $639 #
ellipse-curve $-1 -67.16219131169855 -5.0168499017361761 8.1729117806726475 -0.78801076186113728 0 0.61566146476048833 0.15391536619012208 0 0.19700269046528432 1 I I #
face $-1 $-1 $640 $64 $-1 $641 reversed single #
loop $-1 $-1 $308 $302 #
plane-surface $-1 0 0 11.748501593138096 0 0 1 1 0 0 forward_v I I I I #
coedge $-1 $642 $643 $644 $645 reversed $303 $-1 #
coedge $-1 $646 $305 $307 $469 forward $190 $-1 #
coedge $-1 $305 $646 $642 $647 forward $190 $-1 #
coedge $-1 $644 $308 $305 $466 forward $460 $-1 #
edge $-1 $472 -1.2899238120044085 $648 5.8751747879882945 $465 $649 forward 7 unknown #
coedge $-1 $650 $651 $306 $468 forward $640 $-1 #
edge $-1 $652 -40.770397397273449 $471 -33.619217772342552 $467 $653 forward 7 unknown #
edge $-1 $472 -9.0749771082327868 $652 0 $307 $654 forward 7 unknown #
coedge $-1 $308 $644 $650 $655 forward $460 $-1 #
vertex $-1 $309 $656 #
vertex $-1 $309 $657 #
straight-curve $-1 -90.103756485750097 1.0027016759875345 11.748501593138094 1 0 0 I I #
coedge $-1 $474 $474 $-1 $658 reversed $312 $-1 #
edge $-1 $659 0 $659 6.2831853071796004 $313 $660 forward 7 unknown #
vertex $-1 $316 $661 #
ellipse-curve $-1 -67.16219131169855 2.4357213959860751 8.1729117806726475 -0.78801076186113728 0 0.61566146476048833 0.15391536619012208 0 0.19700269046528432 1 I I #
coedge $-1 $478 $478 $-1 $662 reversed $319 $-1 #
edge $-1 $663 0 $663 6.2831853071796004 $320 $664 forward 7 unknown #
vertex $-1 $323 $665 #
ellipse-curve $-1 -67.16219131169855 4.585250975983886 8.1729117806726475 -0.78801076186113728 0 0.61566146476048833 0.15391536619012208 0 0.19700269046528432 1 I I #
coedge $-1 $482 $482 $-1 $666 reversed $326 $-1 #
edge $-1 $667 0 $667 6.2831853071796004 $327 $668 forward 7 unknown #
vertex $-1 $330 $669 #
ellipse-curve $-1 -67.16219131169855 6.7347805559816969 8.1729117806726475 -0.78801076186113728 0 0.61566146476048833 0.15391536619012208 0 0.19700269046528432 1 I I #
face $-1 $-1 $670 $68 $-1 $671 reversed single #
loop $-1 $-1 $337 $331 #
plane-surface $-1 0 0 11.748501593138096 0 0 1 1 0 0 forward_v I I I I #
coedge $-1 $672 $673 $674 $675 reversed $332 $-1 #
coedge $-1 $676 $334 $336 $496 forward $209 $-1 #
coedge $-1 $334 $676 $672 $677 forward $209 $-1 #
coedge $-1 $674 $337 $334 $493 forward $487 $-1 #
edge $-1 $499 4.5858914168545279 $678 11.750990016847231 $492 $679 forward 7 unknown #
coedge $-1 $680 $681 $335 $495 forward $670 $-1 #
edge $-1 $682 -40.770397397273449 $498 -33.619217772342552 $494 $683 forward 7 unknown #
edge $-1 $499 -9.0749771082327868 $682 0 $336 $684 forward 7 unknown #
coedge $-1 $337 $674 $680 $685 forward $487 $-1 #
vertex $-1 $338 $686 #
vertex $-1 $338 $687 #
straight-curve $-1 -90.103756485750097 12.754332133705407 11.748501593138094 1 0 0 I I #
coedge $-1 $501 $501 $-1 $688 reversed $341 $-1 #
edge $-1 $689 0 $689 6.2831853071796004 $342 $690 forward 7 unknown #
vertex $-1 $345 $691 #
ellipse-curve $-1 -67.16219131169855 14.187351853703948 8.1729117806726475 -0.78801076186113728 0 0.61566146476048833 0.15391536619012208 0 0.19700269046528432 1 I I #
coedge $-1 $505 $505 $-1 $692 reversed $348 $-1 #
edge $-1 $693 0 $693 6.2831853071796004 $349 $694 forward 7 unknown #
vertex $-1 $352 $695 #
ellipse-curve $-1 -67.16219131169855 16.336881433701759 8.1729117806726475 -0.78801076186113728 0 0.61566146476048833 0.15391536619012208 0 0.19700269046528432 1 I I #
coedge $-1 $509 $509 $-1 $696 reversed $355 $-1 #
edge $-1 $697 0 $697 6.2831853071796004 $356 $698 forward 7 unknown #
vertex $-1 $359 $699 #
ellipse-curve $-1 -67.16219131169855 18.48641101369957 8.1729117806726475 -0.78801076186113728 0 0.61566146476048833 0.15391536619012208 0 0.19700269046528432 1 I I #
face $-1 $-1 $375 $54 $-1 $700 reversed single #
loop $-1 $-1 $529 $360 #
plane-surface $-1 0 29.975484068829989 0 0 -1 0 0 0 -1 forward_v I I I I #
coedge $-1 $701 $527 $530 $702 forward $361 $-1 #
coedge $-1 $533 $363 $364 $521 reversed $228 $-1 #
coedge $-1 $527 $701 $363 $519 reversed $361 $-1 #
edge $-1 $534 -11.748501593138096 $703 11.748501593138096 $518 $704 forward 7 unknown #
coedge $-1 $365 $364 $701 $705 forward $145 $-1 #
edge $-1 $525 -69.955748161259805 $703 69.955748161259805 $517 $706 forward 7 unknown #
coedge $-1 $530 $529 $365 $523 reversed $514 $-1 #
edge $-1 $707 -69.955748161259805 $524 69.955748161259805 $522 $708 forward 7 unknown #
vertex $-1 $367 $709 #
vertex $-1 $536 $710 #
straight-curve $-1 69.955748161259805 0 -11.748501593138096 0 -1 0 I I #
coedge $-1 $516 $518 $368 $528 reversed $361 $-1 #
edge $-1 $531 -29.975484068829989 $534 29.975484068829989 $527 $711 forward 7 unknown #
coedge $-1 $522 $369 $374 $537 forward $514 $-1 #
coedge $-1 $369 $522 $516 $702 reversed $514 $-1 #
vertex $-1 $370 $712 #
straight-curve $-1 0 29.975484068829989 11.748501593138096 -1 0 0 I I #
coedge $-1 $371 $517 $373 $536 reversed $228 $-1 #
vertex $-1 $528 $713 #
straight-curve $-1 0 -29.975484068829989 11.748501593138096 1 0 0 I I #
edge $-1 $376 -11.748501593138096 $525 11.748501593138096 $373 $714 forward 7 unknown #
edge $-1 $377 -11.748501593138096 $524 11.748501593138096 $374 $715 forward 7 unknown #
point $-1 69.955748161259805 -29.975484068829989 11.748501593138096 #
point $-1 69.955748161259805 29.975484068829989 11.748501593138096 #
face $-1 $-1 $557 $55 $-1 $716 forward single #
loop $-1 $-1 $717 $379 #
plane-surface $-1 -46.458744974983617 -37.295495783517232 0 -1 0 0 0 0 1 forward_v I I I I #
coedge $-1 $718 $382 $547 $719 reversed $236 $-1 #
coedge $-1 $382 $718 $720 $721 reversed $236 $-1 #
coedge $-1 $390 $389 $382 $546 reversed $380 $-1 #
edge $-1 $722 -11.748501593138096 $723 11.748501593138096 $545 $724 forward 7 unknown #
coedge $-1 $384 $383 $543 $719 forward $149 $-1 #
coedge $-1 $553 $717 $383 $549 reversed $541 $-1 #
edge $-1 $551 -7.3200117146872437 $725 7.3200117146872401 $548 $726 forward 7 unknown #
edge $-1 $723 -7.3200117146872401 $391 7.3200117146872437 $389 $727 forward 7 unknown #
vertex $-1 $549 $728 #
straight-curve $-1 0 -29.975484068829989 -11.748501593138096 1 0 0 I I #
coedge $-1 $729 $548 $386 $554 reversed $541 $-1 #
edge $-1 $558 -11.748501593138096 $551 11.748501593138096 $553 $730 forward 7 unknown #
coedge $-1 $720 $387 $390 $560 forward $557 $-1 #
coedge $-1 $387 $720 $729 $731 forward $557 $-1 #
loop $-1 $-1 $387 $540 #
vertex $-1 $388 $732 #
straight-curve $-1 0 -29.975484068829989 11.748501593138096 -1 0 0 I I #
edge $-1 $392 -7.3200117146872437 $722 7.3200117146872401 $390 $733 forward 7 unknown #
point $-1 -50.935631494721179 -29.975484068829989 -11.748501593138096 #
point $-1 -50.935631494721179 -29.975484068829989 11.748501593138096 #
face $-1 $-1 $578 $56 $-1 $734 reversed single #
loop $-1 $-1 $574 $394 #
plane-surface $-1 0 0 -11.748501593138096 0 0 1 1 0 0 forward_v I I I I #
coedge $-1 $735 $736 $569 $737 forward $395 $-1 #
coedge $-1 $404 $397 $736 $738 forward $244 $-1 #
edge $-1 $405 -5.0280266675659355 $739 5.0280266675659391 $399 $740 forward 7 unknown #
coedge $-1 $399 $398 $566 $737 reversed $153 $-1 #
coedge $-1 $574 $741 $398 $571 forward $564 $-1 #
edge $-1 $742 -40.031537403961863 $572 -29.975484068829989 $398 $743 forward 7 unknown #
vertex $-1 $400 $744 #
straight-curve $-1 69.955748161259805 29.975484068829989 0 0 0 -1 I I #
coedge $-1 $745 $570 $401 $575 forward $564 $-1 #
edge $-1 $572 -69.955748161259805 $579 69.955748161259805 $574 $746 forward 7 unknown #
coedge $-1 $747 $402 $404 $581 reversed $578 $-1 #
coedge $-1 $402 $747 $745 $748 reversed $578 $-1 #
loop $-1 $-1 $402 $563 #
vertex $-1 $748 $749 #
straight-curve $-1 -69.955748161259805 29.975484068829989 0 0 0 1 I I #
edge $-1 $750 -5.0280266675659391 $406 5.0280266675659355 $576 $751 forward 7 unknown #
point $-1 69.955748161259805 29.975484068829989 -5.4837575233036677 #
point $-1 -69.955748161259805 29.975484068829989 -5.4837575233036677 #
loop $-1 $-1 $416 $408 #
plane-surface $-1 69.955748161259805 0 0 -1 0 0 0 0 1 forward_v I I I I #
coedge $-1 $587 $411 $413 $591 reversed $252 $-1 #
coedge $-1 $411 $586 $752 $753 reversed $252 $-1 #
coedge $-1 $419 $414 $411 $589 forward $409 $-1 #
edge $-1 $592 35.412417231755462 $754 50.454305208039649 $588 $755 forward 7 unknown #
coedge $-1 $413 $412 $595 $756 reversed $157 $-1 #
edge $-1 $757 -139.91149632251961 $592 -121.31870014850952 $586 $758 forward 7 unknown #
vertex $-1 $415 $759 #
straight-curve $-1 54.913860184975618 8.3646370810529103 11.748501593138094 0 -1 0 I I #
coedge $-1 $752 $416 $419 $599 reversed $584 $-1 #
coedge $-1 $416 $752 $590 $756 forward $584 $-1 #
vertex $-1 $417 $760 #
straight-curve $-1 69.955748161259805 19.91943073369811 98.124311374378664 0 0 1 I I #
straight-curve $-1 -43.235029308750782 19.91943073369811 83.057845278746726 0.80901698891910034 0 -0.5877852598018023 I I #
edge $-1 $754 13.539117590513531 $420 19.91943073369811 $594 $761 forward 7 unknown #
point $-1 69.955748161259805 19.91943073369811 11.748501593138096 #
point $-1 54.913860184975618 19.91943073369811 11.748501593138101 #
edge $-1 $762 1 $762 0 $423 $-1 forward 7 unknown #
vertex $-1 $424 $763 #
ellipse-curve $-1 61.721988753068764 15.362064202851979 5.3031095907090338 0.5877852598018023 0 0.80901698891910034 0.40450849445955017 0 -0.29389262990090115 1 I I #
point $-1 62.839312667577275 15.362064202851979 5.990323198445946 #
edge $-1 $764 1 $764 0 $427 $-1 forward 7 unknown #
vertex $-1 $428 $765 #
ellipse-curve $-1 61.721988753068764 18.096484121359655 5.3031095907090338 0.5877852598018023 0 0.80901698891910034 0.40450849445955017 0 -0.29389262990090115 1 I I #
point $-1 62.839312667577275 18.096484121359655 5.990323198445946 #
plane-surface $-1 0 0 11.748501593138096 0 0 1 1 0 0 forward_v I I I I #
coedge $-1 $621 $620 $613 $766 forward $432 $-1 #
coedge $-1 $613 $434 $436 $617 reversed $274 $-1 #
coedge $-1 $434 $612 $611 $766 reversed $274 $-1 #
coedge $-1 $442 $437 $434 $615 forward $443 $-1 #
edge $-1 $618 -25.735122023612789 $767 -20.148008324490291 $614 $768 forward 7 unknown #
coedge $-1 $436 $435 $621 $769 reversed $171 $-1 #
edge $-1 $770 0 $618 9.0749771082327868 $612 $771 forward 7 unknown #
vertex $-1 $438 $772 #
straight-curve $-1 -64.368634462137308 -3.5831897408669935 11.748501593138096 0 1 0 I I #
coedge $-1 $611 $439 $442 $625 reversed $432 $-1 #
coedge $-1 $439 $611 $616 $769 forward $432 $-1 #
vertex $-1 $440 $773 #
straight-curve $-1 -69.955748161259805 -10.748928781730338 45.367719365480646 0 0 1 I I #
straight-curve $-1 -69.955748161259805 -10.748928781730338 4.5973219682071971 -0.61566146476048833 0 -0.78801076186113728 I I #
edge $-1 $767 3.5838301817376355 $444 10.748928781730338 $620 $774 forward 7 unknown #
point $-1 -69.955748161259805 -10.748928781730338 11.748501593138096 #
point $-1 -64.368634462137308 -10.748928781730338 11.748501593138096 #
edge $-1 $775 1 $775 0 $447 $-1 forward 7 unknown #
vertex $-1 $448 $776 #
ellipse-curve $-1 -66.374180549837419 -9.3159090617317979 7.5572503159121558 -0.78801076186113728 0 0.61566146476048833 0.15391536619012208 0 0.19700269046528432 1 I I #
point $-1 -67.00827594550843 -9.3159090617317979 8.3699144711379283 #
edge $-1 $777 1 $777 0 $451 $-1 forward 7 unknown #
vertex $-1 $452 $778 #
ellipse-curve $-1 -66.374180549837419 -7.166379481733987 7.5572503159121558 -0.78801076186113728 0 0.61566146476048833 0.15391536619012208 0 0.19700269046528432 1 I I #
point $-1 -67.00827594550843 -7.166379481733987 8.3699144711379283 #
edge $-1 $779 1 $779 0 $455 $-1 forward 7 unknown #
vertex $-1 $456 $780 #
ellipse-curve $-1 -66.374180549837419 -5.0168499017361761 7.5572503159121558 -0.78801076186113728 0 0.61566146476048833 0.15391536619012208 0 0.19700269046528432 1 I I #
point $-1 -67.00827594550843 -5.0168499017361761 8.3699144711379283 #
loop $-1 $-1 $467 $459 #
plane-surface $-1 -69.955748161259805 0 0 1 0 0 0 0 -1 forward_v I I I I #
coedge $-1 $643 $462 $464 $647 reversed $303 $-1 #
coedge $-1 $462 $642 $781 $782 reversed $303 $-1 #
coedge $-1 $470 $465 $462 $645 forward $460 $-1 #
edge $-1 $648 -25.735122023612789 $783 -20.148008324490291 $644 $784 forward 7 unknown #
coedge $-1 $464 $463 $651 $785 reversed $190 $-1 #
edge $-1 $786 0 $648 9.0749771082327868 $642 $787 forward 7 unknown #
vertex $-1 $466 $788 #
straight-curve $-1 -64.368634462137308 2.292625487991943 11.748501593138096 0 1 0 I I #
coedge $-1 $781 $467 $470 $655 reversed $640 $-1 #
coedge $-1 $467 $781 $646 $785 forward $640 $-1 #
vertex $-1 $468 $789 #
straight-curve $-1 -69.955748161259805 1.0027016759875345 45.367719365480646 0 0 1 I I #
straight-curve $-1 -69.955748161259805 1.0027016759875345 4.5973219682071971 -0.61566146476048833 0 -0.78801076186113728 I I #
edge $-1 $783 -8.1678002759802375 $471 -1.0027016759875345 $650 $790 forward 7 unknown #
point $-1 -69.955748161259805 1.0027016759875345 11.748501593138096 #
point $-1 -64.368634462137308 1.0027016759875345 11.748501593138096 #
edge $-1 $791 1 $791 0 $474 $-1 forward 7 unknown #
vertex $-1 $475 $792 #
ellipse-curve $-1 -66.374180549837419 2.4357213959860751 7.5572503159121558 -0.78801076186113728 0 0.61566146476048833 0.15391536619012208 0 0.19700269046528432 1 I I #
point $-1 -67.00827594550843 2.4357213959860751 8.3699144711379283 #
edge $-1 $793 1 $793 0 $478 $-1 forward 7 unknown #
vertex $-1 $479 $794 #
ellipse-curve $-1 -66.374180549837419 4.585250975983886 7.5572503159121558 -0.78801076186113728 0 0.61566146476048833 0.15391536619012208 0 0.19700269046528432 1 I I #
point $-1 -67.00827594550843 4.585250975983886 8.3699144711379283 #
edge $-1 $795 1 $795 0 $482 $-1 forward 7 unknown #
vertex $-1 $483 $796 #
ellipse-curve $-1 -66.374180549837419 6.7347805559816969 7.5572503159121558 -0.78801076186113728 0 0.61566146476048833 0.15391536619012208 0 0.19700269046528432 1 I I #
point $-1 -67.00827594550843 6.7347805559816969 8.3699144711379283 #
loop $-1 $-1 $494 $486 #
plane-surface $-1 -69.955748161259805 0 0 1 0 0 0 0 -1 forward_v I I I I #
coedge $-1 $673 $489 $491 $677 reversed $332 $-1 #
coedge $-1 $489 $672 $797 $798 reversed $332 $-1 #
coedge $-1 $497 $492 $489 $675 forward $487 $-1 #
edge $-1 $678 -25.735122023612789 $799 -20.148008324490291 $674 $800 forward 7 unknown #
coedge $-1 $491 $490 $681 $801 reversed $209 $-1 #
edge $-1 $802 0 $678 9.0749771082327868 $672 $803 forward 7 unknown #
vertex $-1 $493 $804 #
straight-curve $-1 -64.368634462137308 8.1684407168508795 11.748501593138096 0 1 0 I I #
coedge $-1 $797 $494 $497 $685 reversed $670 $-1 #
coedge $-1 $494 $797 $676 $801 forward $670 $-1 #
vertex $-1 $495 $805 #
straight-curve $-1 -69.955748161259805 12.754332133705407 45.367719365480646 0 0 1 I I #
straight-curve $-1 -69.955748161259805 12.754332133705407 4.5973219682071971 -0.61566146476048833 0 -0.78801076186113728 I I #
edge $-1 $799 -19.91943073369811 $498 -12.754332133705407 $680 $806 forward 7 unknown #
point $-1 -69.955748161259805 12.754332133705407 11.748501593138096 #
point $-1 -64.368634462137308 12.754332133705407 11.748501593138096 #
edge $-1 $807 1 $807 0 $501 $-1 forward 7 unknown #
vertex $-1 $502 $808 #
ellipse-curve $-1 -66.374180549837419 14.187351853703948 7.5572503159121558 -0.78801076186113728 0 0.61566146476048833 0.15391536619012208 0 0.19700269046528432 1 I I #
point $-1 -67.00827594550843 14.187351853703948 8.3699144711379283 #
edge $-1 $809 1 $809 0 $505 $-1 forward 7 unknown #
vertex $-1 $506 $810 #
ellipse-curve $-1 -66.374180549837419 16.336881433701759 7.5572503159121558 -0.78801076186113728 0 0.61566146476048833 0.15391536619012208 0 0.19700269046528432 1 I I #
point $-1 -67.00827594550843 16.336881433701759 8.3699144711379283 #
edge $-1 $811 1 $811 0 $509 $-1 forward 7 unknown #
vertex $-1 $510 $812 #
ellipse-curve $-1 -66.374180549837419 18.48641101369957 7.5572503159121558 -0.78801076186113728 0 0.61566146476048833 0.15391536619012208 0 0.19700269046528432 1 I I #
point $-1 -67.00827594550843 18.48641101369957 8.3699144711379283 #
plane-surface $-1 69.955748161259805 0 0 -1 0 0 0 0 1 forward_v I I I I #
coedge $-1 $518 $516 $520 $705 reversed $361 $-1 #
edge $-1 $531 -11.748501593138096 $707 11.748501593138096 $530 $813 forward 7 unknown #
vertex $-1 $705 $814 #
straight-curve $-1 -69.955748161259805 -29.975484068829989 0 0 0 -1 I I #
edge $-1 $703 -29.975484068829989 $707 29.975484068829989 $701 $815 forward 7 unknown #
straight-curve $-1 0 -29.975484068829989 -11.748501593138096 -1 0 0 I I #
vertex $-1 $523 $816 #
straight-curve $-1 0 29.975484068829989 -11.748501593138096 1 0 0 I I #
point $-1 69.955748161259805 29.975484068829989 -11.748501593138096 #
point $-1 69.955748161259805 -29.975484068829989 -11.748501593138096 #
straight-curve $-1 -69.955748161259805 0 11.748501593138096 0 -1 0 I I #
point $-1 -69.955748161259805 29.975484068829989 11.748501593138096 #
point $-1 -69.955748161259805 -29.975484068829989 11.748501593138096 #
straight-curve $-1 69.955748161259805 -29.975484068829989 0 0 0 -1 I I #
straight-curve $-1 69.955748161259805 29.975484068829989 0 0 0 -1 I I #
plane-surface $-1 0 0 11.748501593138096 0 0 1 1 0 0 forward_v I I I I #
coedge $-1 $548 $729 $718 $817 forward $541 $-1 #
coedge $-1 $544 $543 $717 $817 reversed $236 $-1 #
edge $-1 $725 -2.2384432598687809 $723 2.2384432598687809 $543 $818 forward 7 unknown #
coedge $-1 $556 $555 $544 $721 forward $557 $-1 #
edge $-1 $722 -2.2384432598687809 $819 2.2384432598687809 $544 $820 forward 7 unknown #
vertex $-1 $560 $821 #
vertex $-1 $550 $822 #
straight-curve $-1 -50.935631494721179 -44.615507498204472 0 0 0 -1 I I #
vertex $-1 $817 $823 #
straight-curve $-1 -46.458744974983617 -37.295495783517232 -11.748501593138096 0 -1 0 I I #
straight-curve $-1 -50.935631494721179 -37.295495783517232 -11.748501593138096 0 1 0 I I #
point $-1 -46.458744974983617 -29.975484068829989 -11.748501593138096 #
coedge $-1 $717 $553 $556 $731 reversed $541 $-1 #
straight-curve $-1 -46.458744974983617 -29.975484068829989 0 0 0 -1 I I #
edge $-1 $819 -7.3200117146872401 $558 7.3200117146872437 $729 $824 forward 7 unknown #
point $-1 -46.458744974983617 -29.975484068829989 11.748501593138096 #
straight-curve $-1 -50.935631494721179 -37.295495783517232 11.748501593138096 0 -1 0 I I #
plane-surface $-1 -69.955748161259805 0 0 1 0 0 0 0 -1 forward_v I I I I #
coedge $-1 $825 $566 $741 $826 reversed $395 $-1 #
coedge $-1 $566 $825 $567 $738 reversed $395 $-1 #
edge $-1 $739 -3.1323720349172142 $742 3.1323720349172142 $569 $827 forward 7 unknown #
edge $-1 $739 -69.955748161259805 $750 69.955748161259805 $736 $828 forward 7 unknown #
vertex $-1 $568 $829 #
straight-curve $-1 69.955748161259805 35.003510736395924 -5.4837575233036677 0 1 0 I I #
coedge $-1 $570 $745 $735 $826 forward $564 $-1 #
vertex $-1 $571 $830 #
straight-curve $-1 69.955748161259805 0 -11.748501593138096 0 -1 0 I I #
point $-1 69.955748161259805 29.975484068829989 -11.748501593138096 #
coedge $-1 $741 $574 $577 $748 forward $564 $-1 #
straight-curve $-1 0 29.975484068829989 -11.748501593138096 -1 0 0 I I #
coedge $-1 $577 $576 $825 $831 forward $578 $-1 #
edge $-1 $579 -5.0280266675659355 $832 5.0280266675659391 $577 $833 forward 7 unknown #
point $-1 -69.955748161259805 29.975484068829989 -11.748501593138096 #
vertex $-1 $738 $834 #
straight-curve $-1 -69.955748161259805 35.003510736395924 -5.4837575233036677 0 -1 0 I I #
coedge $-1 $595 $594 $587 $753 forward $584 $-1 #
edge $-1 $754 86.375809781240562 $757 97.304381310823032 $752 $835 forward 7 unknown #
vertex $-1 $599 $836 #
straight-curve $-1 19.501442953220156 13.539117590513531 11.748501593138101 1 0 0 I I #
edge $-1 $757 5.1744805094606203 $596 11.5547936526452 $595 $837 forward 7 unknown #
vertex $-1 $756 $838 #
straight-curve $-1 -43.235029308750782 13.539117590513531 83.057845278746726 -0.80901698891910034 0 0.5877852598018023 I I #
point $-1 54.913860184975618 13.539117590513531 11.748501593138101 #
point $-1 69.95574816125982 19.91943073369811 0.81993006355563125 #
straight-curve $-1 69.955748161259805 0 11.748501593138096 0 1 0 I I #
vertex $-1 $602 $839 #
point $-1 62.12649724752832 15.362064202851979 5.0092169608081321 #
vertex $-1 $606 $840 #
point $-1 62.12649724752832 18.096484121359655 5.0092169608081321 #
edge $-1 $767 33.619217772342552 $770 40.770397397273449 $611 $841 forward 7 unknown #
vertex $-1 $625 $842 #
straight-curve $-1 -90.103756485750097 -3.5838301817376355 11.748501593138094 -1 0 0 I I #
edge $-1 $770 0.00064044087064196731 $622 7.165739040863345 $621 $843 forward 7 unknown #
vertex $-1 $769 $844 #
straight-curve $-1 -69.955748161259805 -3.5838301817376355 4.5973219682071971 0.61566146476048833 0 0.78801076186113728 I I #
point $-1 -64.368634462137308 -3.5838301817376355 11.748501593138096 #
point $-1 -69.955748161259805 -10.748928781730338 4.5973219682071971 #
straight-curve $-1 -69.955748161259805 0 11.748501593138096 0 -1 0 I I #
vertex $-1 $628 $845 #
point $-1 -66.220265183647285 -9.3159090617317979 7.7542530063774402 #
vertex $-1 $632 $846 #
point $-1 -66.220265183647285 -7.166379481733987 7.7542530063774402 #
vertex $-1 $636 $847 #
point $-1 -66.220265183647285 -5.0168499017361761 7.7542530063774402 #
coedge $-1 $651 $650 $643 $782 forward $640 $-1 #
edge $-1 $783 33.619217772342552 $786 40.770397397273449 $781 $848 forward 7 unknown #
vertex $-1 $655 $849 #
straight-curve $-1 -90.103756485750097 8.1678002759802375 11.748501593138094 -1 0 0 I I #
edge $-1 $786 -5.8751747879882945 $652 1.2899238120044085 $651 $850 forward 7 unknown #
vertex $-1 $785 $851 #
straight-curve $-1 -69.955748161259805 8.1678002759802375 4.5973219682071971 0.61566146476048833 0 0.78801076186113728 I I #
point $-1 -64.368634462137308 8.1678002759802375 11.748501593138096 #
point $-1 -69.955748161259805 1.0027016759875345 4.5973219682071971 #
straight-curve $-1 -69.955748161259805 0 11.748501593138096 0 -1 0 I I #
vertex $-1 $658 $852 #
point $-1 -66.220265183647285 2.4357213959860751 7.7542530063774402 #
vertex $-1 $662 $853 #
point $-1 -66.220265183647285 4.585250975983886 7.7542530063774402 #
vertex $-1 $666 $854 #
point $-1 -66.220265183647285 6.7347805559816969 7.7542530063774402 #
coedge $-1 $681 $680 $673 $798 forward $670 $-1 #
edge $-1 $799 33.619217772342552 $802 40.770397397273449 $797 $855 forward 7 unknown #
vertex $-1 $685 $856 #
straight-curve $-1 -90.103756485750097 19.91943073369811 11.748501593138094 -1 0 0 I I #
edge $-1 $802 -11.750990016847231 $682 -4.5858914168545279 $681 $857 forward 7 unknown #
vertex $-1 $801 $858 #
straight-curve $-1 -69.955748161259805 19.91943073369811 4.5973219682071971 0.61566146476048833 0 0.78801076186113728 I I #
point $-1 -64.368634462137308 19.91943073369811 11.748501593138096 #
point $-1 -69.955748161259805 12.754332133705407 4.5973219682071971 #
straight-curve $-1 -69.955748161259805 0 11.748501593138096 0 -1 0 I I #
vertex $-1 $688 $859 #
point $-1 -66.220265183647285 14.187351853703948 7.7542530063774402 #
vertex $-1 $692 $860 #
point $-1 -66.220265183647285 16.336881433701759 7.7542530063774402 #
vertex $-1 $696 $861 #
point $-1 -66.220265183647285 18.48641101369957 7.7542530063774402 #
straight-curve $-1 -69.955748161259805 29.975484068829989 0 0 0 -1 I I #
point $-1 -69.955748161259805 -29.975484068829989 -11.748501593138096 #
straight-curve $-1 -69.955748161259805 0 -11.748501593138096 0 1 0 I I #
point $-1 -69.955748161259805 29.975484068829989 -11.748501593138096 #
edge $-1 $819 -11.748501593138096 $725 11.748501593138096 $717 $862 forward 7 unknown #
straight-curve $-1 -48.697188234852398 -44.615507498204472 -11.748501593138096 -1 0 0 I I #
vertex $-1 $731 $863 #
straight-curve $-1 -48.697188234852398 -44.615507498204472 11.748501593138096 1 0 0 I I #
point $-1 -50.935631494721179 -44.615507498204472 11.748501593138096 #
point $-1 -50.935631494721179 -44.615507498204472 -11.748501593138096 #
point $-1 -46.458744974983617 -44.615507498204472 -11.748501593138096 #
straight-curve $-1 -46.458744974983617 -37.295495783517232 11.748501593138096 0 1 0 I I #
coedge $-1 $736 $735 $747 $831 reversed $395 $-1 #
edge $-1 $832 -69.955748161259805 $742 69.955748161259805 $735 $864 forward 7 unknown #
straight-curve $-1 69.955748161259805 40.031537403961863 -8.6161295582208819 0 0 -1 I I #
straight-curve $-1 0 40.031537403961863 -5.4837575233036677 -1 0 0 I I #
point $-1 69.955748161259805 40.031537403961863 -5.4837575233036677 #
point $-1 69.955748161259805 40.031537403961863 -11.748501593138096 #
edge $-1 $750 -3.1323720349172142 $832 3.1323720349172142 $825 $865 forward 7 unknown #
vertex $-1 $826 $866 #
straight-curve $-1 -69.955748161259805 35.003510736395924 -11.748501593138096 0 1 0 I I #
point $-1 -69.955748161259805 40.031537403961863 -5.4837575233036677 #
straight-curve $-1 69.955748161259805 13.539117590513531 98.124311374378664 0 0 -1 I I #
point $-1 69.955748161259805 13.539117590513531 11.748501593138096 #
straight-curve $-1 69.955748161259791 8.3646370810529103 0.81993006355563836 0 1 0 I I #
point $-1 69.95574816125982 13.539117590513531 0.81993006355563125 #
point $-1 61.428096123167869 15.362064202851979 4.8986010962494833 #
point $-1 61.428096123167869 18.096484121359655 4.8986010962494833 #
straight-curve $-1 -69.955748161259805 -3.5838301817376355 45.367719365480646 0 0 -1 I I #
point $-1 -69.955748161259805 -3.5838301817376355 11.748501593138096 #
straight-curve $-1 -69.955748161259805 -3.5831897408669935 4.5973219682072015 0 -1 0 I I #
point $-1 -69.955748161259805 -3.5838301817376355 4.5973219682071971 #
point $-1 -66.177177859372122 -9.3159090617317979 7.4033349497220344 #
point $-1 -66.177177859372122 -7.166379481733987 7.4033349497220344 #
point $-1 -66.177177859372122 -5.0168499017361761 7.4033349497220344 #
straight-curve $-1 -69.955748161259805 8.1678002759802375 45.367719365480646 0 0 -1 I I #
point $-1 -69.955748161259805 8.1678002759802375 11.748501593138096 #
straight-curve $-1 -69.955748161259805 2.292625487991943 4.5973219682072015 0 -1 0 I I #
point $-1 -69.955748161259805 8.1678002759802375 4.5973219682071971 #
point $-1 -66.177177859372122 2.4357213959860751 7.4033349497220344 #
point $-1 -66.177177859372122 4.585250975983886 7.4033349497220344 #
point $-1 -66.177177859372122 6.7347805559816969 7.4033349497220344 #
straight-curve $-1 -69.955748161259805 19.91943073369811 45.367719365480646 0 0 -1 I I #
point $-1 -69.955748161259805 19.91943073369811 11.748501593138096 #
straight-curve $-1 -69.955748161259805 8.1684407168508795 4.5973219682072015 0 -1 0 I I #
point $-1 -69.955748161259805 19.91943073369811 4.5973219682071971 #
point $-1 -66.177177859372122 14.187351853703948 7.4033349497220344 #
point $-1 -66.177177859372122 16.336881433701759 7.4033349497220344 #
point $-1 -66.177177859372122 18.48641101369957 7.4033349497220344 #
straight-curve $-1 -46.458744974983617 -44.615507498204472 0 0 0 -1 I I #
point $-1 -46.458744974983617 -44.615507498204472 11.748501593138096 #
straight-curve $-1 0 40.031537403961863 -11.748501593138096 1 0 0 I I #
straight-curve $-1 -69.955748161259805 40.031537403961863 -8.6161295582208819 0 0 -1 I I #
point $-1 -69.955748161259805 40.031537403961863 -11.748501593138096 #
End-of-ACIS-data 