500 0 4 0           
7 Unknown 11 ACIS 5.0 NT 24 Thu Mar 25 16:35:51 1999 
-1 9.9999999999999995e-007 1e-010 
body $-1 $4 $-1 $5 #
body $-1 $6 $-1 $7 #
body $-1 $8 $-1 $9 #
body $-1 $10 $-1 $11 #
lump $-1 $-1 $12 $0 #
transform $-1 1 0 0 0 1 0 0 0 1 58.718832972197639 25.36269377184691 10.452368057993295 1 rotate no_reflect no_shear #
lump $-1 $-1 $13 $1 #
transform $-1 1 0 0 0 1 0 0 0 1 58.718832972197639 25.36269377184691 10.452368057993295 1 rotate no_reflect no_shear #
lump $-1 $-1 $14 $2 #
transform $-1 1 0 0 0 1 0 0 0 1 58.718832972197639 25.36269377184691 10.452368057993295 1 rotate no_reflect no_shear #
lump $-1 $-1 $15 $3 #
transform $-1 1 0 0 0 1 0 0 0 1 58.718832972197639 25.36269377184691 10.452368057993295 1 rotate no_reflect no_shear #
shell $-1 $-1 $-1 $16 $-1 $4 #
shell $-1 $-1 $-1 $17 $-1 $6 #
shell $-1 $-1 $-1 $18 $-1 $8 #
shell $-1 $-1 $-1 $19 $-1 $10 #
face $-1 $20 $21 $12 $-1 $22 forward single #
face $-1 $23 $24 $13 $-1 $25 reversed single #
face $-1 $26 $27 $14 $-1 $28 reversed single #
face $-1 $29 $30 $15 $-1 $31 forward single #
face $-1 $32 $33 $12 $-1 $34 reversed single #
loop $-1 $-1 $35 $16 #
plane-surface $-1 0 0 10.452368057993295 0 0 1 1 0 0 forward_v I I I I #
face $-1 $36 $37 $13 $-1 $38 reversed single #
loop $-1 $-1 $39 $17 #
plane-surface $-1 -53.03357667637826 -9.9261599241098608 0 0 1 0 0 0 1 forward_v I I I I #
face $-1 $40 $41 $14 $-1 $42 reversed single #
loop $-1 $-1 $43 $18 #
plane-surface $-1 -39.772680479357547 -22.286459328434262 71.294557358986879 0.54463904215088732 0 0.83867056331134215 0.83867056331134215 0 -0.54463904215088732 forward_v I I I I #
face $-1 $44 $45 $15 $-1 $46 forward single #
loop $-1 $47 $48 $19 #
cone-surface $-1 55.233934477329377 -22.286459328434262 7.2244212946941468 -0.54463904215088732 0 -0.83867056331134215 0.83867056331134215 0 -0.54463904215088732 1 I I 0 1 1 forward I I I I #
face $-1 $49 $50 $12 $-1 $51 reversed single #
loop $-1 $-1 $52 $20 #
plane-surface $-1 0 0 -10.452368057993295 0 0 1 1 0 0 forward_v I I I I #
coedge $-1 $53 $54 $55 $56 forward $21 $-1 #
face $-1 $57 $58 $13 $-1 $59 reversed single #
loop $-1 $-1 $60 $23 #
plane-surface $-1 -53.03357667637826 -4.4579576558603193 0 0 -1 0 0 0 -1 forward_v I I I I #
coedge $-1 $61 $62 $63 $64 reversed $24 $-1 #
face $-1 $65 $66 $14 $-1 $67 reversed single #
loop $-1 $-1 $68 $26 #
plane-surface $-1 24.188457413033767 -19.21022488502161 169.78607081054207 0 -1 0 -0.54463904215088732 0 -0.83867056331134215 forward_v I I I I #
coedge $-1 $69 $70 $71 $72 reversed $27 $-1 #
face $-1 $-1 $73 $15 $-1 $74 forward single #
loop $-1 $75 $76 $29 #
cone-surface $-1 53.878096246570074 -22.286459328434262 5.1366135454382036 -0.54463904215088732 0 -0.83867056331134215 0.41933528165567108 0 -0.27231952107544366 1 I I -0.70710678118654746 0.70710678118654746 0.5 forward I I I I #
loop $-1 $-1 $77 $19 #
coedge $-1 $48 $48 $78 $79 reversed $30 $-1 #
face $-1 $80 $81 $12 $-1 $82 reversed single #
loop $-1 $-1 $83 $32 #
plane-surface $-1 0 -25.36269377184691 0 0 1 0 0 0 1 forward_v I I I I #
coedge $-1 $84 $85 $86 $87 forward $33 $-1 #
coedge $-1 $88 $35 $89 $90 forward $21 $-1 #
coedge $-1 $35 $88 $91 $92 forward $21 $-1 #
coedge $-1 $93 $94 $35 $56 reversed $95 $-1 #
edge $-1 $96 -25.36269377184691 $97 25.36269377184691 $55 $98 forward 7 unknown #
face $-1 $99 $100 $13 $-1 $101 reversed single #
loop $-1 $-1 $102 $36 #
plane-surface $-1 -47.348320380558881 -7.1920587899850901 0 -1 0 0 0 0 1 forward_v I I I I #
coedge $-1 $103 $104 $105 $106 forward $37 $-1 #
coedge $-1 $107 $39 $108 $109 reversed $24 $-1 #
coedge $-1 $39 $107 $110 $111 reversed $24 $-1 #
coedge $-1 $112 $113 $39 $64 forward $114 $-1 #
edge $-1 $115 -10.452368057993295 $116 10.452368057993295 $63 $117 forward 7 unknown #
face $-1 $118 $119 $14 $-1 $120 forward single #
loop $-1 $-1 $71 $40 #
plane-surface $-1 58.718832972197639 0 0 -1 0 0 0 0 1 forward_v I I I I #
coedge $-1 $121 $122 $123 $124 reversed $41 $-1 #
coedge $-1 $125 $43 $126 $127 reversed $27 $-1 #
coedge $-1 $43 $125 $121 $128 forward $27 $-1 #
coedge $-1 $123 $129 $43 $72 forward $66 $-1 #
edge $-1 $130 -14.219464107629779 $131 -8.0669952208044791 $71 $132 forward 7 unknown #
loop $-1 $-1 $78 $44 #
plane-surface $-1 -39.772680479357547 -22.286459328434262 71.294557358986879 0.54463904215088732 0 0.83867056331134215 0.83867056331134215 0 -0.54463904215088732 forward_v I I I I #
loop $-1 $-1 $133 $29 #
coedge $-1 $76 $76 $77 $134 reversed $45 $-1 #
coedge $-1 $77 $77 $76 $134 forward $47 $-1 #
coedge $-1 $78 $78 $48 $79 forward $73 $-1 #
edge $-1 $135 0 $135 6.2831853071796004 $78 $136 forward 7 unknown #
face $-1 $137 $138 $12 $-1 $139 reversed single #
loop $-1 $-1 $140 $49 #
plane-surface $-1 -58.718832972197639 0 0 1 0 0 0 0 -1 forward_v I I I I #
coedge $-1 $141 $91 $142 $143 forward $50 $-1 #
coedge $-1 $144 $52 $141 $145 forward $33 $-1 #
coedge $-1 $52 $144 $146 $147 forward $33 $-1 #
coedge $-1 $94 $93 $52 $87 reversed $95 $-1 #
edge $-1 $148 -25.36269377184691 $149 25.36269377184691 $86 $150 forward 7 unknown #
coedge $-1 $54 $53 $151 $152 forward $21 $-1 #
coedge $-1 $153 $154 $53 $90 reversed $138 $-1 #
edge $-1 $97 -58.718832972197639 $155 58.718832972197639 $89 $156 forward 7 unknown #
coedge $-1 $83 $157 $54 $92 reversed $50 $-1 #
edge $-1 $158 -58.718832972197639 $96 58.718832972197639 $91 $159 forward 7 unknown #
coedge $-1 $86 $55 $157 $160 forward $95 $-1 #
coedge $-1 $55 $86 $153 $161 reversed $95 $-1 #
loop $-1 $-1 $93 $137 #
vertex $-1 $56 $162 #
vertex $-1 $56 $163 #
straight-curve $-1 58.718832972197639 0 10.452368057993295 0 1 0 I I #
face $-1 $164 $165 $13 $-1 $166 forward single #
loop $-1 $-1 $167 $57 #
plane-surface $-1 0 0 -10.452368057993295 0 0 1 1 0 0 forward_v I I I I #
coedge $-1 $168 $169 $107 $170 forward $58 $-1 #
coedge $-1 $171 $60 $167 $172 reversed $37 $-1 #
coedge $-1 $60 $171 $173 $174 reversed $37 $-1 #
coedge $-1 $169 $168 $60 $106 reversed $58 $-1 #
edge $-1 $175 -10.452368057993295 $176 10.452368057993295 $105 $177 forward 7 unknown #
coedge $-1 $62 $61 $102 $170 reversed $24 $-1 #
coedge $-1 $178 $179 $61 $109 forward $100 $-1 #
edge $-1 $180 20.831532042369751 $115 32.202044634008509 $108 $181 forward 7 unknown #
coedge $-1 $182 $183 $62 $111 forward $165 $-1 #
edge $-1 $116 -32.202044634008509 $184 -20.831532042369751 $110 $185 forward 7 unknown #
coedge $-1 $186 $63 $183 $187 reversed $114 $-1 #
coedge $-1 $63 $186 $178 $188 reversed $114 $-1 #
loop $-1 $-1 $186 $164 #
vertex $-1 $188 $189 #
vertex $-1 $64 $190 #
straight-curve $-1 -58.718832972197639 -9.9261599241098608 0 0 0 1 I I #
face $-1 $-1 $191 $14 $-1 $192 reversed single #
loop $-1 $-1 $193 $65 #
plane-surface $-1 0 0 10.452368057993295 0 0 1 1 0 0 forward_v I I I I #
coedge $-1 $122 $68 $70 $128 reversed $41 $-1 #
coedge $-1 $68 $121 $194 $195 reversed $41 $-1 #
coedge $-1 $196 $71 $68 $124 forward $66 $-1 #
edge $-1 $131 -77.559615938675478 $197 -74.440667347277738 $123 $198 forward 7 unknown #
coedge $-1 $70 $69 $193 $199 reversed $27 $-1 #
coedge $-1 $200 $201 $69 $127 forward $191 $-1 #
edge $-1 $202 75.618043810430976 $130 81.344678058097784 $126 $203 forward 7 unknown #
edge $-1 $204 111.71103169672841 $131 117.43766594439525 $121 $205 forward 7 unknown #
coedge $-1 $71 $196 $200 $206 forward $66 $-1 #
vertex $-1 $127 $207 #
vertex $-1 $72 $208 #
straight-curve $-1 58.718832972197639 -11.143229664217131 7.3334194665955721 0 1 0 I I #
coedge $-1 $133 $133 $-1 $209 reversed $75 $-1 #
edge $-1 $210 0 $210 6.2831853071796004 $76 $211 forward 7 unknown #
vertex $-1 $79 $212 #
ellipse-curve $-1 56.31745318701325 -22.286459328434262 8.8928937622944435 0.54463904215088732 0 0.83867056331134215 0.83867056331134215 0 -0.54463904215088732 1 I I #
face $-1 $-1 $95 $12 $-1 $213 reversed single #
loop $-1 $-1 $153 $80 #
plane-surface $-1 0 25.36269377184691 0 0 -1 0 0 0 -1 forward_v I I I I #
coedge $-1 $214 $151 $154 $215 forward $81 $-1 #
coedge $-1 $157 $83 $84 $145 reversed $50 $-1 #
coedge $-1 $151 $214 $83 $143 reversed $81 $-1 #
edge $-1 $158 -10.452368057993295 $216 10.452368057993295 $142 $217 forward 7 unknown #
coedge $-1 $85 $84 $214 $218 forward $33 $-1 #
edge $-1 $149 -58.718832972197639 $216 58.718832972197639 $141 $219 forward 7 unknown #
coedge $-1 $154 $153 $85 $147 reversed $138 $-1 #
edge $-1 $220 -58.718832972197639 $148 58.718832972197639 $146 $221 forward 7 unknown #
vertex $-1 $87 $222 #
vertex $-1 $160 $223 #
straight-curve $-1 58.718832972197639 0 -10.452368057993295 0 -1 0 I I #
coedge $-1 $140 $142 $88 $152 reversed $81 $-1 #
edge $-1 $155 -25.36269377184691 $158 25.36269377184691 $151 $224 forward 7 unknown #
coedge $-1 $146 $89 $94 $161 forward $138 $-1 #
coedge $-1 $89 $146 $140 $215 reversed $138 $-1 #
vertex $-1 $90 $225 #
straight-curve $-1 0 25.36269377184691 10.452368057993295 -1 0 0 I I #
coedge $-1 $91 $141 $93 $160 reversed $50 $-1 #
vertex $-1 $152 $226 #
straight-curve $-1 0 -25.36269377184691 10.452368057993295 1 0 0 I I #
edge $-1 $96 -10.452368057993295 $149 10.452368057993295 $93 $227 forward 7 unknown #
edge $-1 $97 -10.452368057993295 $148 10.452368057993295 $94 $228 forward 7 unknown #
point $-1 58.718832972197639 -25.36269377184691 10.452368057993295 #
point $-1 58.718832972197639 25.36269377184691 10.452368057993295 #
face $-1 $-1 $114 $13 $-1 $229 reversed single #
loop $-1 $-1 $173 $99 #
plane-surface $-1 0 0 10.452368057993295 0 0 1 1 0 0 forward_v I I I I #
coedge $-1 $179 $178 $103 $172 forward $100 $-1 #
coedge $-1 $105 $102 $179 $230 reversed $58 $-1 #
coedge $-1 $102 $105 $182 $231 reversed $58 $-1 #
edge $-1 $184 -10.452368057993295 $180 10.452368057993295 $102 $232 forward 7 unknown #
coedge $-1 $104 $103 $186 $233 reversed $37 $-1 #
edge $-1 $234 -32.202044634008509 $176 -20.831532042369751 $167 $235 forward 7 unknown #
coedge $-1 $183 $182 $104 $174 forward $165 $-1 #
edge $-1 $175 20.831532042369751 $236 32.202044634008509 $173 $237 forward 7 unknown #
vertex $-1 $174 $238 #
vertex $-1 $172 $239 #
straight-curve $-1 -47.348320380558881 -4.4579576558603193 0 0 0 -1 I I #
coedge $-1 $167 $108 $113 $188 forward $100 $-1 #
coedge $-1 $108 $167 $168 $230 forward $100 $-1 #
vertex $-1 $109 $240 #
straight-curve $-1 -26.51678833818913 -9.9261599241098608 -10.452368057993295 -1 0 0 I I #
coedge $-1 $173 $110 $169 $231 forward $165 $-1 #
coedge $-1 $110 $173 $112 $187 forward $165 $-1 #
vertex $-1 $111 $241 #
straight-curve $-1 -26.51678833818913 -9.9261599241098608 10.452368057993295 1 0 0 I I #
coedge $-1 $113 $112 $171 $233 forward $114 $-1 #
edge $-1 $236 4.4579576558603193 $116 9.9261599241098608 $112 $242 forward 7 unknown #
edge $-1 $115 -9.9261599241098608 $234 -4.4579576558603193 $113 $243 forward 7 unknown #
point $-1 -58.718832972197639 -9.9261599241098608 -10.452368057993295 #
point $-1 -58.718832972197639 -9.9261599241098608 10.452368057993295 #
loop $-1 $-1 $126 $118 #
plane-surface $-1 0 -25.36269377184691 0 0 1 0 0 0 1 forward_v I I I I #
coedge $-1 $244 $194 $125 $199 forward $119 $-1 #
coedge $-1 $193 $245 $122 $195 forward $119 $-1 #
edge $-1 $197 -46.624604265680759 $204 -41.821844695311995 $194 $246 forward 7 unknown #
coedge $-1 $129 $123 $245 $247 reversed $66 $-1 #
vertex $-1 $124 $248 #
straight-curve $-1 58.718832972197639 -19.21022488502161 84.893035405271036 0 0 1 I I #
edge $-1 $204 8.0669952208044791 $202 14.219464107629783 $193 $249 forward 7 unknown #
coedge $-1 $201 $126 $129 $206 reversed $191 $-1 #
coedge $-1 $126 $200 $244 $250 reversed $191 $-1 #
vertex $-1 $250 $251 #
straight-curve $-1 -9.5025539971670039 -25.36269377184691 51.636907008230253 0.83867056331134215 0 -0.54463904215088732 I I #
vertex $-1 $199 $252 #
straight-curve $-1 -39.772680479357547 -19.21022488502161 71.294557358986879 0.83867056331134215 0 -0.54463904215088732 I I #
edge $-1 $253 -10.452368057993295 $130 -7.3334194665955685 $129 $254 forward 7 unknown #
point $-1 58.718832972197639 -25.36269377184691 7.3334194665955685 #
point $-1 58.718832972197646 -19.21022488502161 7.333419466595565 #
edge $-1 $255 1 $255 0 $133 $-1 forward 7 unknown #
vertex $-1 $134 $256 #
ellipse-curve $-1 54.150415767645519 -22.286459328434262 5.5559488270938751 0.54463904215088732 0 0.83867056331134215 0.83867056331134215 0 -0.54463904215088732 1 I I #
point $-1 57.156123750324575 -22.286459328434262 8.3482547201435331 #
plane-surface $-1 58.718832972197639 0 0 -1 0 0 0 0 1 forward_v I I I I #
coedge $-1 $142 $140 $144 $218 reversed $81 $-1 #
edge $-1 $155 -10.452368057993295 $220 10.452368057993295 $154 $257 forward 7 unknown #
vertex $-1 $218 $258 #
straight-curve $-1 -58.718832972197639 -25.36269377184691 0 0 0 -1 I I #
edge $-1 $216 -25.36269377184691 $220 25.36269377184691 $214 $259 forward 7 unknown #
straight-curve $-1 0 -25.36269377184691 -10.452368057993295 -1 0 0 I I #
vertex $-1 $147 $260 #
straight-curve $-1 0 25.36269377184691 -10.452368057993295 1 0 0 I I #
point $-1 58.718832972197639 25.36269377184691 -10.452368057993295 #
point $-1 58.718832972197639 -25.36269377184691 -10.452368057993295 #
straight-curve $-1 -58.718832972197639 0 10.452368057993295 0 -1 0 I I #
point $-1 -58.718832972197639 25.36269377184691 10.452368057993295 #
point $-1 -58.718832972197639 -25.36269377184691 10.452368057993295 #
straight-curve $-1 58.718832972197639 -25.36269377184691 0 0 0 -1 I I #
straight-curve $-1 58.718832972197639 25.36269377184691 0 0 0 -1 I I #
plane-surface $-1 -58.718832972197639 0 0 1 0 0 0 0 -1 forward_v I I I I #
edge $-1 $176 0.8619282608677743 $180 6.3301305291173158 $179 $261 forward 7 unknown #
edge $-1 $184 -6.3301305291173158 $175 -0.8619282608677743 $182 $262 forward 7 unknown #
straight-curve $-1 -47.348320380558881 -9.9261599241098608 0 0 0 -1 I I #
edge $-1 $236 -10.452368057993295 $234 10.452368057993295 $186 $263 forward 7 unknown #
vertex $-1 $233 $264 #
straight-curve $-1 -26.51678833818913 -4.4579576558603193 -10.452368057993295 1 0 0 I I #
vertex $-1 $187 $265 #
straight-curve $-1 -26.51678833818913 -4.4579576558603193 10.452368057993295 -1 0 0 I I #
point $-1 -47.348320380558881 -4.4579576558603193 10.452368057993295 #
point $-1 -47.348320380558881 -4.4579576558603193 -10.452368057993295 #
point $-1 -47.348320380558881 -9.9261599241098608 -10.452368057993295 #
point $-1 -47.348320380558881 -9.9261599241098608 10.452368057993295 #
straight-curve $-1 -58.718832972197639 0 10.452368057993295 0 -1 0 I I #
straight-curve $-1 -58.718832972197639 0 -10.452368057993295 0 1 0 I I #
coedge $-1 $245 $193 $201 $250 forward $119 $-1 #
coedge $-1 $194 $244 $196 $247 forward $119 $-1 #
straight-curve $-1 12.094228706516883 -19.21022488502161 10.452368057993297 -1 0 0 I I #
edge $-1 $253 -25.36269377184691 $197 -19.21022488502161 $196 $266 forward 7 unknown #
point $-1 58.718832972197639 -19.21022488502161 10.452368057993295 #
straight-curve $-1 53.916073401828889 -11.143229664217131 10.45236805799329 0 -1 0 I I #
edge $-1 $202 53.916073401828882 $253 58.718832972197639 $201 $267 forward 7 unknown #
point $-1 53.916073401828882 -25.362693771846914 10.452368057993297 #
point $-1 53.916073401828882 -19.21022488502161 10.452368057993297 #
vertex $-1 $247 $268 #
straight-curve $-1 58.718832972197639 -25.36269377184691 0 0 0 -1 I I #
vertex $-1 $209 $269 #
point $-1 54.989086330956859 -22.286459328434262 5.0113097849429877 #
straight-curve $-1 -58.718832972197639 25.36269377184691 0 0 0 -1 I I #
point $-1 -58.718832972197639 -25.36269377184691 -10.452368057993295 #
straight-curve $-1 -58.718832972197639 0 -10.452368057993295 0 1 0 I I #
point $-1 -58.718832972197639 25.36269377184691 -10.452368057993295 #
straight-curve $-1 -47.348320380558881 -3.596029394992545 -10.452368057993295 0 -1 0 I I #
straight-curve $-1 -47.348320380558881 -3.596029394992545 10.452368057993295 0 1 0 I I #
straight-curve $-1 -58.718832972197639 -4.4579576558603193 0 0 0 -1 I I #
point $-1 -58.718832972197639 -4.4579576558603193 -10.452368057993295 #
point $-1 -58.718832972197639 -4.4579576558603193 10.452368057993295 #
straight-curve $-1 58.718832972197639 0 10.452368057993295 0 1 0 I I #
straight-curve $-1 0 -25.36269377184691 10.452368057993295 1 0 0 I I #
point $-1 58.718832972197639 -25.36269377184691 10.452368057993295 #
point $-1 53.605776725494628 -22.286459328434262 4.7172782637825321 #
End-of-ACIS-data 