500 0 10 0           
7 Unknown 11 ACIS 5.0 NT 24 Fri Mar 26 14:28:32 1999 
-1 9.9999999999999995e-007 1e-010 
body $-1 $10 $-1 $11 #
body $-1 $12 $-1 $13 #
body $-1 $14 $-1 $15 #
body $-1 $16 $-1 $17 #
body $-1 $18 $-1 $19 #
body $-1 $20 $-1 $21 #
body $-1 $22 $-1 $23 #
body $-1 $24 $-1 $25 #
body $-1 $26 $-1 $27 #
body $-1 $28 $-1 $29 #
lump $-1 $-1 $30 $0 #
transform $-1 1 0 0 0 1 0 0 0 1 67.077242347483747 40.56712557987764 16.053523483051773 1 rotate no_reflect no_shear #
lump $-1 $-1 $31 $1 #
transform $-1 1 0 0 0 1 0 0 0 1 67.077242347483747 40.56712557987764 16.053523483051773 1 rotate no_reflect no_shear #
lump $-1 $-1 $32 $2 #
transform $-1 1 0 0 0 1 0 0 0 1 67.077242347483747 40.56712557987764 16.053523483051773 1 rotate no_reflect no_shear #
lump $-1 $-1 $33 $3 #
transform $-1 1 0 0 0 1 0 0 0 1 67.077242347483747 40.56712557987764 16.053523483051773 1 rotate no_reflect no_shear #
lump $-1 $-1 $34 $4 #
transform $-1 1 0 0 0 1 0 0 0 1 67.077242347483747 40.56712557987764 16.053523483051773 1 rotate no_reflect no_shear #
lump $-1 $-1 $35 $5 #
transform $-1 1 0 0 0 1 0 0 0 1 67.077242347483747 40.56712557987764 16.053523483051773 1 rotate no_reflect no_shear #
lump $-1 $-1 $36 $6 #
transform $-1 1 0 0 0 1 0 0 0 1 67.077242347483747 40.56712557987764 16.053523483051773 1 rotate no_reflect no_shear #
lump $-1 $-1 $37 $7 #
transform $-1 1 0 0 0 1 0 0 0 1 67.077242347483747 40.56712557987764 16.053523483051773 1 rotate no_reflect no_shear #
lump $-1 $-1 $38 $8 #
transform $-1 1 0 0 0 1 0 0 0 1 67.077242347483747 40.56712557987764 16.053523483051773 1 rotate no_reflect no_shear #
lump $-1 $-1 $39 $9 #
transform $-1 1 0 0 0 1 0 0 0 1 67.077242347483747 40.56712557987764 16.053523483051773 1 rotate no_reflect no_shear #
shell $-1 $-1 $-1 $40 $-1 $10 #
shell $-1 $-1 $-1 $41 $-1 $12 #
shell $-1 $-1 $-1 $42 $-1 $14 #
shell $-1 $-1 $-1 $43 $-1 $16 #
shell $-1 $-1 $-1 $44 $-1 $18 #
shell $-1 $-1 $-1 $45 $-1 $20 #
shell $-1 $-1 $-1 $46 $-1 $22 #
shell $-1 $-1 $-1 $47 $-1 $24 #
shell $-1 $-1 $-1 $48 $-1 $26 #
shell $-1 $-1 $-1 $49 $-1 $28 #
face $-1 $50 $51 $30 $-1 $52 forward single #
face $-1 $53 $54 $31 $-1 $55 forward single #
face $-1 $56 $57 $32 $-1 $58 forward single #
face $-1 $59 $60 $33 $-1 $61 reversed single #
face $-1 $62 $63 $34 $-1 $64 forward single #
face $-1 $65 $66 $35 $-1 $67 reversed single #
face $-1 $68 $69 $36 $-1 $70 forward single #
face $-1 $71 $72 $37 $-1 $73 reversed single #
face $-1 $74 $75 $38 $-1 $76 forward single #
face $-1 $77 $78 $39 $-1 $79 forward single #
face $-1 $80 $81 $30 $-1 $82 reversed single #
loop $-1 $-1 $83 $40 #
plane-surface $-1 0 0 16.053523483051773 0 0 1 1 0 0 forward_v I I I I #
face $-1 $84 $85 $31 $-1 $86 reversed single #
loop $-1 $-1 $87 $41 #
plane-surface $-1 0 -33.681796941033696 11.066575074769043 0 0 1 1 0 0 forward_v I I I I #
face $-1 $88 $89 $32 $-1 $90 reversed single #
loop $-1 $-1 $91 $42 #
plane-surface $-1 0 33.681796941033696 11.066575074769043 0 0 1 1 0 0 forward_v I I I I #
face $-1 $92 $93 $33 $-1 $94 reversed single #
loop $-1 $-1 $95 $43 #
plane-surface $-1 -183.2584351626258 -12.443869404885668 79.825211113758058 0 -1 0 0.86602541151947299 0 -0.49999998660252726 forward_v I I I I #
face $-1 $96 $97 $34 $-1 $98 forward single #
loop $-1 $99 $100 $44 #
cone-surface $-1 -65.689998741883954 -17.276211982882142 14.150747030027301 0.86602541151947299 0 -0.49999998660252726 0.24999999330126363 0 0.43301270575973649 1 I I 0 1 0.5 forward I I I I #
face $-1 $101 $102 $35 $-1 $103 reversed single #
loop $-1 $-1 $104 $45 #
plane-surface $-1 -183.2584351626258 14.35259889730408 79.825211113758058 0 -1 0 0.86602541151947299 0 -0.49999998660252726 forward_v I I I I #
face $-1 $105 $106 $36 $-1 $107 forward single #
loop $-1 $108 $109 $46 #
cone-surface $-1 -65.689998741883954 9.520256319307606 14.150747030027301 0.86602541151947299 0 -0.49999998660252726 0.24999999330126363 0 0.43301270575973649 1 I I 0 1 0.5 forward I I I I #
face $-1 $110 $111 $37 $-1 $112 reversed single #
loop $-1 $-1 $113 $47 #
plane-surface $-1 70.388369104370071 12.365273766810972 189.70096828307584 0 1 0 0.71933980857756763 0 0.69465836192734942 forward_v I I I I #
face $-1 $114 $115 $38 $-1 $116 forward single #
loop $-1 $117 $118 $48 #
cone-surface $-1 58.280740856993283 16.488472205490623 7.0177024916415967 -0.71933980857756763 0 -0.69465836192734942 1.0419875428910241 0 -1.0790097128663514 1 I I 0 1 1.5 forward I I I I #
face $-1 $119 $120 $39 $-1 $121 forward single #
loop $-1 $122 $123 $49 #
cone-surface $-1 58.280740856993283 22.6732698635101 7.0177024916415967 -0.71933980857756763 0 -0.69465836192734942 1.0419875428910241 0 -1.0790097128663514 1 I I 0 1 1.5 forward I I I I #
face $-1 $124 $125 $30 $-1 $126 reversed single #
loop $-1 $-1 $127 $50 #
plane-surface $-1 0 0 -16.053523483051773 0 0 1 1 0 0 forward_v I I I I #
coedge $-1 $128 $129 $130 $131 forward $51 $-1 #
face $-1 $132 $133 $31 $-1 $134 reversed single #
loop $-1 $-1 $135 $53 #
plane-surface $-1 0 -33.681796941033696 7.0412154250772812 0 0 1 1 0 0 forward_v I I I I #
coedge $-1 $136 $137 $138 $139 reversed $54 $-1 #
face $-1 $140 $141 $32 $-1 $142 reversed single #
loop $-1 $-1 $143 $56 #
plane-surface $-1 0 33.681796941033696 7.0412154250772812 0 0 1 1 0 0 forward_v I I I I #
coedge $-1 $144 $145 $146 $147 reversed $57 $-1 #
face $-1 $148 $149 $33 $-1 $150 reversed single #
loop $-1 $-1 $151 $59 #
plane-surface $-1 -67.077242347483732 -17.276211982882142 12.747970563605364 -0.86602541151947299 0 0.49999998660252726 0.49999998660252726 0 0.86602541151947299 forward_v I I I I #
coedge $-1 $152 $153 $154 $155 reversed $60 $-1 #
face $-1 $-1 $156 $34 $-1 $157 forward single #
loop $-1 $158 $159 $62 #
cone-surface $-1 -65.040479683244357 -17.276211982882142 13.775747040075405 0.86602541151947299 0 -0.49999998660252726 0.12499999665063181 0 0.21650635287986825 1 I I -0.70710678118654746 0.70710678118654746 0.25 forward I I I I #
loop $-1 $-1 $160 $44 #
coedge $-1 $100 $100 $161 $162 reversed $63 $-1 #
face $-1 $163 $164 $35 $-1 $165 reversed single #
loop $-1 $-1 $166 $65 #
plane-surface $-1 -67.077242347483732 9.520256319307606 12.747970563605364 -0.86602541151947299 0 0.49999998660252726 0.49999998660252726 0 0.86602541151947299 forward_v I I I I #
coedge $-1 $167 $168 $169 $170 reversed $66 $-1 #
face $-1 $-1 $171 $36 $-1 $172 forward single #
loop $-1 $173 $174 $68 #
cone-surface $-1 -65.040479683244357 9.520256319307606 13.775747040075405 0.86602541151947299 0 -0.49999998660252726 0.12499999665063181 0 0.21650635287986825 1 I I -0.70710678118654746 0.70710678118654746 0.25 forward I I I I #
loop $-1 $-1 $175 $46 #
coedge $-1 $109 $109 $176 $177 reversed $69 $-1 #
face $-1 $178 $179 $37 $-1 $180 forward single #
loop $-1 $-1 $181 $71 #
plane-surface $-1 -26.114292235930066 19.580871034500362 96.509433699662054 0.71933980857756763 0 0.69465836192734942 0.69465836192734942 0 -0.71933980857756763 forward_v I I I I #
coedge $-1 $182 $183 $184 $185 reversed $72 $-1 #
face $-1 $-1 $186 $38 $-1 $187 forward single #
loop $-1 $188 $189 $74 #
cone-surface $-1 56.692818042302136 16.488472205490623 5.4842632906308388 -0.71933980857756763 0 -0.69465836192734942 0.52099377144551207 0 -0.53950485643317569 1 I I -0.70710678118654757 0.70710678118654757 0.75 forward I I I I #
loop $-1 $-1 $190 $48 #
coedge $-1 $118 $118 $191 $192 reversed $75 $-1 #
face $-1 $-1 $193 $39 $-1 $194 forward single #
loop $-1 $195 $196 $77 #
cone-surface $-1 56.692818042302136 22.6732698635101 5.4842632906308388 -0.71933980857756763 0 -0.69465836192734942 0.52099377144551207 0 -0.53950485643317569 1 I I -0.70710678118654757 0.70710678118654757 0.75 forward I I I I #
loop $-1 $-1 $197 $49 #
coedge $-1 $123 $123 $198 $199 reversed $78 $-1 #
face $-1 $200 $201 $30 $-1 $202 reversed single #
loop $-1 $-1 $203 $80 #
plane-surface $-1 0 -40.56712557987764 0 0 1 0 0 0 1 forward_v I I I I #
coedge $-1 $204 $205 $206 $207 forward $81 $-1 #
coedge $-1 $208 $83 $209 $210 forward $51 $-1 #
coedge $-1 $83 $208 $211 $212 forward $51 $-1 #
coedge $-1 $213 $214 $83 $131 reversed $215 $-1 #
edge $-1 $216 -40.56712557987764 $217 40.56712557987764 $130 $218 forward 7 unknown #
face $-1 $219 $220 $31 $-1 $221 reversed single #
loop $-1 $-1 $222 $84 #
plane-surface $-1 0 -26.796468302189751 9.053895249923162 0 -1 0 0 0 -1 forward_v I I I I #
coedge $-1 $223 $224 $225 $226 reversed $85 $-1 #
coedge $-1 $227 $87 $228 $229 forward $54 $-1 #
coedge $-1 $87 $227 $230 $231 reversed $54 $-1 #
coedge $-1 $232 $233 $87 $139 forward $234 $-1 #
edge $-1 $235 9.9555698316729035 $236 23.726227109360792 $138 $237 forward 7 unknown #
face $-1 $238 $239 $32 $-1 $240 reversed single #
loop $-1 $-1 $241 $88 #
plane-surface $-1 0 26.796468302189751 9.053895249923162 0 1 0 0 0 1 forward_v I I I I #
coedge $-1 $242 $243 $244 $245 reversed $89 $-1 #
coedge $-1 $246 $91 $247 $248 reversed $57 $-1 #
coedge $-1 $91 $246 $249 $250 forward $57 $-1 #
coedge $-1 $251 $252 $91 $147 forward $239 $-1 #
edge $-1 $253 -23.726227109360792 $254 -9.9555698316729035 $146 $255 forward 7 unknown #
face $-1 $256 $257 $33 $-1 $258 reversed single #
loop $-1 $-1 $259 $92 #
plane-surface $-1 -183.2584351626258 -22.108554560878616 79.825211113758058 0 1 0 -0.86602541151947299 0 0.49999998660252726 forward_v I I I I #
coedge $-1 $260 $261 $262 $263 reversed $93 $-1 #
coedge $-1 $153 $95 $264 $265 reversed $60 $-1 #
coedge $-1 $95 $152 $260 $266 reversed $60 $-1 #
coedge $-1 $262 $267 $95 $155 forward $257 $-1 #
edge $-1 $268 23.859082073827256 $269 27.16463499327369 $154 $270 forward 7 unknown #
loop $-1 $-1 $161 $96 #
plane-surface $-1 -67.077242347483732 -17.276211982882142 12.747970563605364 -0.86602541151947299 0 0.49999998660252726 0.49999998660252726 0 0.86602541151947299 forward_v I I I I #
loop $-1 $-1 $271 $62 #
coedge $-1 $159 $159 $160 $272 reversed $97 $-1 #
coedge $-1 $160 $160 $159 $272 forward $99 $-1 #
coedge $-1 $161 $161 $100 $162 forward $156 $-1 #
edge $-1 $273 0 $273 6.2831853071796004 $161 $274 forward 7 unknown #
face $-1 $275 $276 $35 $-1 $277 forward single #
loop $-1 $-1 $278 $101 #
plane-surface $-1 -183.2584351626258 4.6879137413111316 79.825211113758058 0 1 0 -0.86602541151947299 0 0.49999998660252726 forward_v I I I I #
coedge $-1 $279 $280 $281 $282 reversed $102 $-1 #
coedge $-1 $168 $104 $283 $284 reversed $66 $-1 #
coedge $-1 $104 $167 $279 $285 reversed $66 $-1 #
coedge $-1 $281 $286 $104 $170 forward $287 $-1 #
edge $-1 $288 23.859082073827256 $289 27.16463499327369 $169 $290 forward 7 unknown #
loop $-1 $-1 $176 $105 #
plane-surface $-1 -67.077242347483732 9.520256319307606 12.747970563605364 -0.86602541151947299 0 0.49999998660252726 0.49999998660252726 0 0.86602541151947299 forward_v I I I I #
loop $-1 $-1 $291 $68 #
coedge $-1 $174 $174 $175 $292 reversed $106 $-1 #
coedge $-1 $175 $175 $174 $292 forward $108 $-1 #
coedge $-1 $176 $176 $109 $177 forward $171 $-1 #
edge $-1 $293 0 $293 6.2831853071796004 $176 $294 forward 7 unknown #
face $-1 $295 $296 $37 $-1 $297 forward single #
loop $-1 $-1 $298 $110 #
plane-surface $-1 0 0 16.053523483051773 0 0 1 1 0 0 forward_v I I I I #
coedge $-1 $299 $300 $301 $302 reversed $111 $-1 #
coedge $-1 $183 $113 $303 $304 reversed $72 $-1 #
coedge $-1 $113 $182 $299 $305 reversed $72 $-1 #
coedge $-1 $301 $306 $113 $185 forward $307 $-1 #
edge $-1 $308 78.796960658486142 $309 94.84371178217603 $184 $310 forward 7 unknown #
loop $-1 $-1 $191 $114 #
plane-surface $-1 -26.114292235930066 19.580871034500362 96.509433699662054 0.71933980857756763 0 0.69465836192734942 0.69465836192734942 0 -0.71933980857756763 forward_v I I I I #
loop $-1 $-1 $311 $74 #
coedge $-1 $189 $189 $190 $312 reversed $115 $-1 #
coedge $-1 $190 $190 $189 $312 forward $117 $-1 #
coedge $-1 $191 $191 $118 $192 forward $186 $-1 #
edge $-1 $313 0 $313 6.2831853071796004 $191 $314 forward 7 unknown #
loop $-1 $-1 $198 $119 #
plane-surface $-1 -26.114292235930066 19.580871034500362 96.509433699662054 0.71933980857756763 0 0.69465836192734942 0.69465836192734942 0 -0.71933980857756763 forward_v I I I I #
loop $-1 $-1 $315 $77 #
coedge $-1 $196 $196 $197 $316 reversed $120 $-1 #
coedge $-1 $197 $197 $196 $316 forward $122 $-1 #
coedge $-1 $198 $198 $123 $199 forward $193 $-1 #
edge $-1 $317 0 $317 6.2831853071796004 $198 $318 forward 7 unknown #
face $-1 $319 $320 $30 $-1 $321 reversed single #
loop $-1 $-1 $322 $124 #
plane-surface $-1 -67.077242347483747 0 0 1 0 0 0 0 -1 forward_v I I I I #
coedge $-1 $323 $211 $324 $325 forward $125 $-1 #
coedge $-1 $326 $127 $323 $327 forward $81 $-1 #
coedge $-1 $127 $326 $328 $329 forward $81 $-1 #
coedge $-1 $214 $213 $127 $207 reversed $215 $-1 #
edge $-1 $330 -40.56712557987764 $331 40.56712557987764 $206 $332 forward 7 unknown #
coedge $-1 $129 $128 $333 $334 forward $51 $-1 #
coedge $-1 $335 $336 $128 $210 reversed $320 $-1 #
edge $-1 $217 -67.077242347483747 $337 67.077242347483747 $209 $338 forward 7 unknown #
coedge $-1 $203 $339 $129 $212 reversed $125 $-1 #
edge $-1 $340 -67.077242347483747 $216 67.077242347483747 $211 $341 forward 7 unknown #
coedge $-1 $206 $130 $339 $342 forward $215 $-1 #
coedge $-1 $130 $206 $335 $343 reversed $215 $-1 #
loop $-1 $-1 $213 $319 #
vertex $-1 $131 $344 #
vertex $-1 $131 $345 #
straight-curve $-1 67.077242347483747 0 16.053523483051773 0 1 0 I I #
face $-1 $346 $347 $31 $-1 $348 reversed single #
loop $-1 $-1 $349 $132 #
plane-surface $-1 -67.077242347483747 0 0 1 0 0 0 0 -1 forward_v I I I I #
coedge $-1 $350 $228 $233 $351 reversed $133 $-1 #
coedge $-1 $352 $135 $353 $354 reversed $85 $-1 #
coedge $-1 $135 $352 $350 $355 forward $85 $-1 #
coedge $-1 $233 $232 $135 $226 forward $234 $-1 #
edge $-1 $356 -23.726227109360792 $357 -9.9555698316729035 $225 $358 forward 7 unknown #
coedge $-1 $137 $136 $349 $359 reversed $54 $-1 #
coedge $-1 $222 $360 $136 $229 reversed $133 $-1 #
edge $-1 $235 -67.077242347483747 $361 67.077242347483747 $228 $362 forward 7 unknown #
coedge $-1 $363 $364 $137 $231 forward $347 $-1 #
edge $-1 $236 -67.077242347483747 $365 67.077242347483747 $230 $366 forward 7 unknown #
coedge $-1 $225 $138 $364 $367 forward $234 $-1 #
coedge $-1 $138 $225 $222 $351 forward $234 $-1 #
loop $-1 $-1 $138 $346 #
vertex $-1 $139 $368 #
vertex $-1 $367 $369 #
straight-curve $-1 67.077242347483747 -16.840898470516848 11.066575074769043 0 -1 0 I I #
face $-1 $370 $371 $32 $-1 $372 reversed single #
loop $-1 $-1 $146 $140 #
plane-surface $-1 67.077242347483747 0 0 -1 0 0 0 0 1 forward_v I I I I #
coedge $-1 $373 $249 $374 $375 reversed $141 $-1 #
coedge $-1 $376 $143 $373 $377 forward $89 $-1 #
coedge $-1 $143 $376 $378 $379 reversed $89 $-1 #
coedge $-1 $252 $251 $143 $245 forward $239 $-1 #
edge $-1 $380 9.9555698316729035 $381 23.726227109360792 $244 $382 forward 7 unknown #
coedge $-1 $145 $144 $383 $384 reversed $57 $-1 #
coedge $-1 $385 $386 $144 $248 forward $387 $-1 #
edge $-1 $388 -67.077242347483747 $253 67.077242347483747 $247 $389 forward 7 unknown #
coedge $-1 $241 $390 $145 $250 reversed $141 $-1 #
edge $-1 $391 -67.077242347483747 $254 67.077242347483747 $249 $392 forward 7 unknown #
coedge $-1 $244 $146 $390 $393 forward $239 $-1 #
coedge $-1 $146 $244 $385 $394 reversed $239 $-1 #
vertex $-1 $394 $395 #
vertex $-1 $147 $396 #
straight-curve $-1 67.077242347483747 16.840898470516848 11.066575074769043 0 -1 0 I I #
face $-1 $-1 $397 $33 $-1 $398 forward single #
loop $-1 $-1 $154 $148 #
plane-surface $-1 -67.077242347483747 0 0 1 0 0 0 0 -1 forward_v I I I I #
coedge $-1 $399 $400 $401 $402 reversed $149 $-1 #
coedge $-1 $403 $151 $153 $266 forward $93 $-1 #
coedge $-1 $151 $403 $399 $404 forward $93 $-1 #
coedge $-1 $401 $154 $151 $263 forward $257 $-1 #
edge $-1 $269 3.8057634134445966 $405 13.470448569437545 $262 $406 forward 7 unknown #
coedge $-1 $407 $408 $152 $265 forward $397 $-1 #
edge $-1 $409 -26.460437033509265 $268 -24.551975233829154 $264 $410 forward 7 unknown #
edge $-1 $269 -2.8642609447069912e-014 $409 3.8169237016344555 $153 $411 forward 7 unknown #
coedge $-1 $154 $401 $407 $412 reversed $257 $-1 #
vertex $-1 $412 $413 #
vertex $-1 $155 $414 #
straight-curve $-1 -67.077242347483747 -12.443869404885668 39.912605556879029 0 0 -1 I I #
coedge $-1 $271 $271 $-1 $415 reversed $158 $-1 #
edge $-1 $416 0 $416 6.2831853071796004 $159 $417 forward 7 unknown #
vertex $-1 $162 $418 #
ellipse-curve $-1 -66.123011447643691 -17.276211982882142 14.400747023328563 -0.86602541151947299 0 0.49999998660252726 0.24999999330126363 0 0.43301270575973649 1 I I #
face $-1 $-1 $287 $35 $-1 $419 reversed single #
loop $-1 $-1 $420 $163 #
plane-surface $-1 0 0 16.053523483051773 0 0 1 1 0 0 forward_v I I I I #
coedge $-1 $421 $422 $423 $424 reversed $164 $-1 #
coedge $-1 $425 $166 $168 $285 forward $102 $-1 #
coedge $-1 $166 $425 $421 $426 forward $102 $-1 #
coedge $-1 $423 $169 $166 $282 forward $287 $-1 #
edge $-1 $289 -9.5924707376502774 $427 0.072214418342671394 $281 $428 forward 7 unknown #
coedge $-1 $429 $430 $167 $284 forward $276 $-1 #
edge $-1 $431 -26.460437033509265 $288 -24.551975233829154 $283 $432 forward 7 unknown #
edge $-1 $289 -2.8642609447069912e-014 $431 3.8169237016344555 $168 $433 forward 7 unknown #
coedge $-1 $169 $423 $429 $434 reversed $287 $-1 #
loop $-1 $-1 $423 $275 #
vertex $-1 $434 $435 #
vertex $-1 $170 $436 #
straight-curve $-1 -67.077242347483747 14.35259889730408 39.912605556879029 0 0 -1 I I #
coedge $-1 $291 $291 $-1 $437 reversed $173 $-1 #
edge $-1 $438 0 $438 6.2831853071796004 $174 $439 forward 7 unknown #
vertex $-1 $177 $440 #
ellipse-curve $-1 -66.123011447643691 9.520256319307606 14.400747023328563 -0.86602541151947299 0 0.49999998660252726 0.24999999330126363 0 0.43301270575973649 1 I I #
face $-1 $-1 $307 $37 $-1 $441 reversed single #
loop $-1 $-1 $442 $178 #
plane-surface $-1 0 26.796468302189751 9.053895249923162 0 1 0 0 0 1 forward_v I I I I #
coedge $-1 $443 $444 $445 $446 forward $179 $-1 #
coedge $-1 $447 $181 $183 $305 forward $111 $-1 #
coedge $-1 $181 $447 $442 $448 forward $111 $-1 #
coedge $-1 $449 $184 $181 $302 forward $307 $-1 #
edge $-1 $309 2.5748382495607913 $450 17.00603278493957 $301 $451 forward 7 unknown #
coedge $-1 $444 $443 $182 $304 forward $179 $-1 #
edge $-1 $452 16.386890730833684 $308 31.883057795298711 $303 $453 forward 7 unknown #
edge $-1 $309 -134.15448469496752 $452 -111.84687578420676 $183 $454 forward 7 unknown #
coedge $-1 $184 $449 $444 $455 reversed $307 $-1 #
loop $-1 $-1 $449 $295 #
vertex $-1 $455 $456 #
vertex $-1 $185 $457 #
straight-curve $-1 67.077242347483747 12.365273766810972 94.850484141537919 0 0 -1 I I #
coedge $-1 $311 $311 $-1 $458 reversed $188 $-1 #
edge $-1 $459 0 $459 6.2831853071796004 $189 $460 forward 7 unknown #
vertex $-1 $192 $461 #
ellipse-curve $-1 59.32915881525124 16.488472205490623 8.0301479212068294 0.71933980857756763 0 0.69465836192734942 1.0419875428910241 0 -1.0790097128663514 1 I I #
coedge $-1 $315 $315 $-1 $462 reversed $195 $-1 #
edge $-1 $463 0 $463 6.2831853071796004 $196 $464 forward 7 unknown #
vertex $-1 $199 $465 #
ellipse-curve $-1 59.32915881525124 22.6732698635101 8.0301479212068294 0.71933980857756763 0 0.69465836192734942 1.0419875428910241 0 -1.0790097128663514 1 I I #
face $-1 $-1 $215 $30 $-1 $466 reversed single #
loop $-1 $-1 $335 $200 #
plane-surface $-1 0 40.56712557987764 0 0 -1 0 0 0 -1 forward_v I I I I #
coedge $-1 $467 $333 $336 $468 forward $201 $-1 #
coedge $-1 $339 $203 $204 $327 reversed $125 $-1 #
coedge $-1 $333 $467 $203 $325 reversed $201 $-1 #
edge $-1 $340 -16.053523483051773 $469 16.053523483051773 $324 $470 forward 7 unknown #
coedge $-1 $205 $204 $467 $471 forward $81 $-1 #
edge $-1 $331 -67.077242347483747 $469 67.077242347483747 $323 $472 forward 7 unknown #
coedge $-1 $336 $335 $205 $329 reversed $320 $-1 #
edge $-1 $473 -67.077242347483747 $330 67.077242347483747 $328 $474 forward 7 unknown #
vertex $-1 $207 $475 #
vertex $-1 $342 $476 #
straight-curve $-1 67.077242347483747 0 -16.053523483051773 0 -1 0 I I #
coedge $-1 $322 $324 $208 $334 reversed $201 $-1 #
edge $-1 $337 -40.56712557987764 $340 40.56712557987764 $333 $477 forward 7 unknown #
coedge $-1 $328 $209 $214 $343 forward $320 $-1 #
coedge $-1 $209 $328 $322 $468 reversed $320 $-1 #
vertex $-1 $210 $478 #
straight-curve $-1 0 40.56712557987764 16.053523483051773 -1 0 0 I I #
coedge $-1 $211 $323 $213 $342 reversed $125 $-1 #
vertex $-1 $334 $479 #
straight-curve $-1 0 -40.56712557987764 16.053523483051773 1 0 0 I I #
edge $-1 $216 -16.053523483051773 $331 16.053523483051773 $213 $480 forward 7 unknown #
edge $-1 $217 -16.053523483051773 $330 16.053523483051773 $214 $481 forward 7 unknown #
point $-1 67.077242347483747 -40.56712557987764 16.053523483051773 #
point $-1 67.077242347483747 40.56712557987764 16.053523483051773 #
face $-1 $-1 $234 $31 $-1 $482 reversed single #
loop $-1 $-1 $230 $219 #
plane-surface $-1 0 -40.56712557987764 0 0 1 0 0 0 1 forward_v I I I I #
coedge $-1 $483 $484 $227 $359 forward $220 $-1 #
coedge $-1 $360 $222 $224 $355 reversed $133 $-1 #
edge $-1 $357 2.5142678001157002 $235 6.5396274498074618 $233 $485 forward 7 unknown #
coedge $-1 $224 $223 $486 $487 reversed $85 $-1 #
coedge $-1 $364 $363 $223 $354 forward $347 $-1 #
edge $-1 $488 -67.077242347483747 $356 67.077242347483747 $353 $489 forward 7 unknown #
edge $-1 $490 -67.077242347483747 $357 67.077242347483747 $350 $491 forward 7 unknown #
vertex $-1 $354 $492 #
vertex $-1 $226 $493 #
straight-curve $-1 67.077242347483747 -16.840898470516848 7.0412154250772812 0 1 0 I I #
edge $-1 $365 -23.726227109360792 $361 -9.9555698316729035 $349 $494 forward 7 unknown #
coedge $-1 $228 $350 $483 $495 reversed $133 $-1 #
vertex $-1 $359 $496 #
straight-curve $-1 0 -26.796468302189751 11.066575074769043 -1 0 0 I I #
coedge $-1 $353 $230 $484 $497 forward $347 $-1 #
coedge $-1 $230 $353 $232 $367 reversed $347 $-1 #
vertex $-1 $497 $498 #
straight-curve $-1 0 -40.56712557987764 11.066575074769043 -1 0 0 I I #
edge $-1 $236 -11.066575074769043 $356 -7.0412154250772812 $232 $499 forward 7 unknown #
point $-1 67.077242347483747 -26.796468302189751 11.066575074769043 #
point $-1 67.077242347483747 -40.56712557987764 11.066575074769043 #
face $-1 $-1 $387 $32 $-1 $500 reversed single #
loop $-1 $-1 $383 $238 #
plane-surface $-1 -67.077242347483747 0 0 1 0 0 0 0 -1 forward_v I I I I #
coedge $-1 $390 $241 $242 $377 reversed $141 $-1 #
coedge $-1 $383 $501 $241 $375 forward $371 $-1 #
edge $-1 $502 2.5142678001157002 $391 6.5396274498074618 $374 $503 forward 7 unknown #
coedge $-1 $243 $242 $501 $504 reversed $89 $-1 #
edge $-1 $380 -67.077242347483747 $502 67.077242347483747 $373 $505 forward 7 unknown #
coedge $-1 $386 $385 $243 $379 forward $387 $-1 #
edge $-1 $381 -67.077242347483747 $506 67.077242347483747 $378 $507 forward 7 unknown #
vertex $-1 $245 $508 #
vertex $-1 $379 $509 #
straight-curve $-1 67.077242347483747 16.840898470516848 7.0412154250772812 0 1 0 I I #
coedge $-1 $510 $374 $246 $384 forward $371 $-1 #
edge $-1 $391 9.9555698316729035 $388 23.726227109360792 $383 $511 forward 7 unknown #
coedge $-1 $378 $247 $252 $394 forward $387 $-1 #
coedge $-1 $247 $378 $510 $512 reversed $387 $-1 #
loop $-1 $-1 $247 $370 #
vertex $-1 $512 $513 #
straight-curve $-1 0 40.56712557987764 11.066575074769043 1 0 0 I I #
coedge $-1 $249 $373 $251 $393 reversed $141 $-1 #
vertex $-1 $384 $514 #
straight-curve $-1 0 26.796468302189751 11.066575074769043 1 0 0 I I #
edge $-1 $254 -6.5396274498074618 $380 -2.5142678001157002 $251 $515 forward 7 unknown #
edge $-1 $253 -11.066575074769043 $381 -7.0412154250772812 $252 $516 forward 7 unknown #
point $-1 67.077242347483747 40.56712557987764 11.066575074769043 #
point $-1 67.077242347483747 26.796468302189751 11.066575074769043 #
loop $-1 $-1 $264 $256 #
plane-surface $-1 0 0 16.053523483051773 0 0 1 1 0 0 forward_v I I I I #
coedge $-1 $400 $259 $261 $404 reversed $149 $-1 #
coedge $-1 $259 $399 $517 $518 reversed $149 $-1 #
coedge $-1 $267 $262 $259 $402 forward $257 $-1 #
edge $-1 $405 -27.16463499327369 $519 -23.859082073827256 $401 $520 forward 7 unknown #
coedge $-1 $261 $260 $408 $521 reversed $93 $-1 #
edge $-1 $522 -3.8169237016344555 $405 2.8642609447069912e-014 $399 $523 forward 7 unknown #
vertex $-1 $263 $524 #
straight-curve $-1 -67.077242347483747 -8.6381059914410709 12.74797056360535 0 -1 0 I I #
coedge $-1 $517 $264 $267 $412 forward $397 $-1 #
coedge $-1 $264 $517 $403 $521 forward $397 $-1 #
vertex $-1 $265 $525 #
straight-curve $-1 -91.629217581312901 -12.443869404885668 16.053523483051773 -1 0 0 I I #
straight-curve $-1 -67.077242347483732 -12.443869404885668 12.747970563605364 0.49999998660252726 0 0.86602541151947299 I I #
edge $-1 $268 12.443869404885668 $519 22.108554560878616 $267 $526 forward 7 unknown #
point $-1 -67.077242347483747 -12.443869404885668 16.053523483051773 #
point $-1 -67.077242347483747 -12.443869404885668 12.747970563605339 #
edge $-1 $527 1 $527 0 $271 $-1 forward 7 unknown #
vertex $-1 $272 $528 #
ellipse-curve $-1 -65.256986036124218 -17.276211982882142 13.900747036726036 -0.86602541151947299 0 0.49999998660252726 0.24999999330126363 0 0.43301270575973649 1 I I #
point $-1 -65.873011454342432 -17.276211982882142 14.833759729088301 #
plane-surface $-1 -67.077242347483747 0 0 1 0 0 0 0 -1 forward_v I I I I #
coedge $-1 $430 $429 $422 $529 forward $276 $-1 #
coedge $-1 $422 $278 $280 $426 reversed $164 $-1 #
coedge $-1 $278 $421 $420 $529 reversed $164 $-1 #
coedge $-1 $286 $281 $278 $424 forward $287 $-1 #
edge $-1 $427 -27.16463499327369 $530 -23.859082073827256 $423 $531 forward 7 unknown #
coedge $-1 $280 $279 $430 $532 reversed $102 $-1 #
edge $-1 $533 -3.8169237016344555 $427 2.8642609447069912e-014 $421 $534 forward 7 unknown #
vertex $-1 $282 $535 #
straight-curve $-1 -67.077242347483747 4.760128159653803 12.74797056360535 0 -1 0 I I #
coedge $-1 $420 $283 $286 $434 forward $276 $-1 #
coedge $-1 $283 $420 $425 $532 forward $276 $-1 #
vertex $-1 $284 $536 #
straight-curve $-1 -91.629217581312901 14.35259889730408 16.053523483051773 -1 0 0 I I #
straight-curve $-1 -67.077242347483732 14.35259889730408 12.747970563605364 0.49999998660252726 0 0.86602541151947299 I I #
edge $-1 $288 -14.35259889730408 $530 -4.6879137413111316 $286 $537 forward 7 unknown #
point $-1 -67.077242347483747 14.35259889730408 16.053523483051773 #
point $-1 -67.077242347483747 14.35259889730408 12.747970563605339 #
edge $-1 $538 1 $538 0 $291 $-1 forward 7 unknown #
vertex $-1 $292 $539 #
ellipse-curve $-1 -65.256986036124218 9.520256319307606 13.900747036726036 -0.86602541151947299 0 0.49999998660252726 0.24999999330126363 0 0.43301270575973649 1 I I #
point $-1 -65.873011454342432 9.520256319307606 14.833759729088301 #
plane-surface $-1 67.077242347483747 0 0 -1 0 0 0 0 1 forward_v I I I I #
coedge $-1 $445 $540 $300 $448 reversed $296 $-1 #
coedge $-1 $303 $298 $447 $541 forward $179 $-1 #
coedge $-1 $298 $303 $306 $455 forward $179 $-1 #
coedge $-1 $540 $442 $298 $446 reversed $296 $-1 #
edge $-1 $542 -31.883057795298711 $543 -16.386890730833684 $298 $544 forward 7 unknown #
coedge $-1 $300 $299 $443 $541 reversed $111 $-1 #
edge $-1 $543 111.84687578420676 $450 134.15448469496752 $442 $545 forward 7 unknown #
coedge $-1 $306 $301 $540 $546 forward $307 $-1 #
vertex $-1 $546 $547 #
straight-curve $-1 67.077242347483747 9.7904355172501809 0.0067723593618893574 0 1 0 I I #
vertex $-1 $304 $548 #
straight-curve $-1 35.194184552185035 12.365273766810972 16.053523483051777 1 0 0 I I #
straight-curve $-1 -26.114292235930066 12.365273766810972 96.509433699662054 -0.69465836192734942 0 0.71933980857756763 I I #
edge $-1 $308 12.365273766810972 $542 26.796468302189751 $306 $549 forward 7 unknown #
point $-1 67.077242347483747 12.365273766810972 16.053523483051773 #
point $-1 67.077242347483747 12.365273766810972 0.0067723593618893574 #
edge $-1 $550 1 $550 0 $311 $-1 forward 7 unknown #
vertex $-1 $312 $551 #
ellipse-curve $-1 57.232322898735312 16.488472205490623 6.0052570620763506 0.71933980857756763 0 0.69465836192734942 1.0419875428910241 0 -1.0790097128663514 1 I I #
point $-1 60.371146358142276 16.488472205490623 6.9511382083404918 #
edge $-1 $552 1 $552 0 $315 $-1 forward 7 unknown #
vertex $-1 $316 $553 #
ellipse-curve $-1 57.232322898735312 22.6732698635101 6.0052570620763506 0.71933980857756763 0 0.69465836192734942 1.0419875428910241 0 -1.0790097128663514 1 I I #
point $-1 60.371146358142276 22.6732698635101 6.9511382083404918 #
plane-surface $-1 67.077242347483747 0 0 -1 0 0 0 0 1 forward_v I I I I #
coedge $-1 $324 $322 $326 $471 reversed $201 $-1 #
edge $-1 $337 -16.053523483051773 $473 16.053523483051773 $336 $554 forward 7 unknown #
vertex $-1 $471 $555 #
straight-curve $-1 -67.077242347483747 -40.56712557987764 0 0 0 -1 I I #
edge $-1 $469 -40.56712557987764 $473 40.56712557987764 $467 $556 forward 7 unknown #
straight-curve $-1 0 -40.56712557987764 -16.053523483051773 -1 0 0 I I #
vertex $-1 $329 $557 #
straight-curve $-1 0 40.56712557987764 -16.053523483051773 1 0 0 I I #
point $-1 67.077242347483747 40.56712557987764 -16.053523483051773 #
point $-1 67.077242347483747 -40.56712557987764 -16.053523483051773 #
straight-curve $-1 -67.077242347483747 0 16.053523483051773 0 -1 0 I I #
point $-1 -67.077242347483747 40.56712557987764 16.053523483051773 #
point $-1 -67.077242347483747 -40.56712557987764 16.053523483051773 #
straight-curve $-1 67.077242347483747 -40.56712557987764 0 0 0 -1 I I #
straight-curve $-1 67.077242347483747 40.56712557987764 0 0 0 -1 I I #
plane-surface $-1 67.077242347483747 0 0 -1 0 0 0 0 1 forward_v I I I I #
coedge $-1 $486 $349 $360 $495 forward $220 $-1 #
coedge $-1 $349 $486 $363 $497 reversed $220 $-1 #
straight-curve $-1 67.077242347483747 -26.796468302189751 4.526947624961581 0 0 1 I I #
coedge $-1 $484 $483 $352 $487 forward $220 $-1 #
edge $-1 $490 9.9555698316729035 $488 23.726227109360792 $486 $558 forward 7 unknown #
vertex $-1 $354 $559 #
straight-curve $-1 0 -40.56712557987764 7.0412154250772812 1 0 0 I I #
vertex $-1 $487 $560 #
straight-curve $-1 0 -26.796468302189751 7.0412154250772812 1 0 0 I I #
point $-1 67.077242347483747 -40.56712557987764 7.0412154250772812 #
point $-1 67.077242347483747 -26.796468302189751 7.0412154250772812 #
straight-curve $-1 -67.077242347483747 -16.840898470516848 11.066575074769043 0 1 0 I I #
edge $-1 $361 -6.5396274498074618 $490 -2.5142678001157002 $483 $561 forward 7 unknown #
point $-1 -67.077242347483747 -26.796468302189751 11.066575074769043 #
edge $-1 $365 -11.066575074769043 $488 -7.0412154250772812 $484 $562 forward 7 unknown #
point $-1 -67.077242347483747 -40.56712557987764 11.066575074769043 #
straight-curve $-1 67.077242347483747 -40.56712557987764 0 0 0 -1 I I #
plane-surface $-1 0 40.56712557987764 0 0 -1 0 0 0 -1 forward_v I I I I #
coedge $-1 $374 $510 $376 $504 forward $371 $-1 #
vertex $-1 $504 $563 #
straight-curve $-1 -67.077242347483747 26.796468302189751 4.526947624961581 0 0 1 I I #
edge $-1 $506 -23.726227109360792 $502 -9.9555698316729035 $501 $564 forward 7 unknown #
straight-curve $-1 0 26.796468302189751 7.0412154250772812 -1 0 0 I I #
vertex $-1 $379 $565 #
straight-curve $-1 0 40.56712557987764 7.0412154250772812 -1 0 0 I I #
point $-1 67.077242347483747 26.796468302189751 7.0412154250772812 #
point $-1 67.077242347483747 40.56712557987764 7.0412154250772812 #
coedge $-1 $501 $383 $386 $512 forward $371 $-1 #
straight-curve $-1 -67.077242347483747 16.840898470516848 11.066575074769043 0 1 0 I I #
edge $-1 $388 -11.066575074769043 $506 -7.0412154250772812 $386 $566 forward 7 unknown #
point $-1 -67.077242347483747 40.56712557987764 11.066575074769043 #
point $-1 -67.077242347483747 26.796468302189751 11.066575074769043 #
straight-curve $-1 67.077242347483747 26.796468302189751 4.526947624961581 0 0 -1 I I #
straight-curve $-1 67.077242347483747 40.56712557987764 0 0 0 -1 I I #
coedge $-1 $408 $407 $400 $518 forward $397 $-1 #
edge $-1 $519 24.551975233829154 $522 26.460437033509265 $517 $567 forward 7 unknown #
vertex $-1 $518 $568 #
straight-curve $-1 -67.077242347483747 -22.108554560878616 39.912605556879029 0 0 1 I I #
edge $-1 $522 -13.470448569437545 $409 -3.8057634134445966 $408 $569 forward 7 unknown #
vertex $-1 $521 $570 #
straight-curve $-1 -67.077242347483732 -22.108554560878616 12.747970563605364 -0.49999998660252726 0 -0.86602541151947299 I I #
point $-1 -67.077242347483747 -22.108554560878616 12.747970563605339 #
point $-1 -65.168780547803635 -12.443869404885668 16.053523483051773 #
straight-curve $-1 -67.077242347483747 0 16.053523483051773 0 -1 0 I I #
vertex $-1 $415 $571 #
point $-1 -65.006986042822959 -17.276211982882142 14.333759742485773 #
edge $-1 $530 24.551975233829154 $533 26.460437033509265 $420 $572 forward 7 unknown #
vertex $-1 $529 $573 #
straight-curve $-1 -67.077242347483747 4.6879137413111316 39.912605556879029 0 0 1 I I #
edge $-1 $533 -0.072214418342671394 $431 9.5924707376502774 $430 $574 forward 7 unknown #
vertex $-1 $532 $575 #
straight-curve $-1 -67.077242347483732 4.6879137413111316 12.747970563605364 -0.49999998660252726 0 -0.86602541151947299 I I #
point $-1 -67.077242347483747 4.6879137413111316 12.747970563605339 #
point $-1 -65.168780547803635 14.35259889730408 16.053523483051773 #
straight-curve $-1 -67.077242347483747 0 16.053523483051773 0 -1 0 I I #
vertex $-1 $437 $576 #
point $-1 -65.006986042822959 9.520256319307606 14.333759742485773 #
coedge $-1 $442 $445 $449 $546 reversed $296 $-1 #
edge $-1 $543 -17.00603278493957 $452 -2.5748382495607913 $443 $577 forward 7 unknown #
vertex $-1 $546 $578 #
vertex $-1 $446 $579 #
straight-curve $-1 35.194184552185035 26.796468302189751 16.053523483051777 -1 0 0 I I #
straight-curve $-1 -26.114292235930066 26.796468302189751 96.509433699662054 0.69465836192734942 0 -0.71933980857756763 I I #
edge $-1 $450 -94.84371178217603 $542 -78.796960658486142 $449 $580 forward 7 unknown #
point $-1 67.077242347483747 26.796468302189751 0.0067723593618893574 #
point $-1 51.58107528301872 12.365273766810972 16.053523483051777 #
straight-curve $-1 67.077242347483747 0 16.053523483051773 0 1 0 I I #
vertex $-1 $458 $581 #
point $-1 58.274310441626334 16.488472205490623 4.9262473492099996 #
vertex $-1 $462 $582 #
point $-1 58.274310441626334 22.6732698635101 4.9262473492099996 #
straight-curve $-1 -67.077242347483747 40.56712557987764 0 0 0 -1 I I #
point $-1 -67.077242347483747 -40.56712557987764 -16.053523483051773 #
straight-curve $-1 -67.077242347483747 0 -16.053523483051773 0 1 0 I I #
point $-1 -67.077242347483747 40.56712557987764 -16.053523483051773 #
straight-curve $-1 -67.077242347483747 -16.840898470516848 7.0412154250772812 0 -1 0 I I #
point $-1 -67.077242347483747 -40.56712557987764 7.0412154250772812 #
point $-1 -67.077242347483747 -26.796468302189751 7.0412154250772812 #
straight-curve $-1 -67.077242347483747 -26.796468302189751 4.526947624961581 0 0 -1 I I #
straight-curve $-1 -67.077242347483747 -40.56712557987764 0 0 0 -1 I I #
point $-1 -67.077242347483747 26.796468302189751 7.0412154250772812 #
straight-curve $-1 -67.077242347483747 16.840898470516848 7.0412154250772812 0 -1 0 I I #
point $-1 -67.077242347483747 40.56712557987764 7.0412154250772812 #
straight-curve $-1 -67.077242347483747 40.56712557987764 0 0 0 -1 I I #
straight-curve $-1 -91.629217581312901 -22.108554560878616 16.053523483051773 1 0 0 I I #
point $-1 -67.077242347483747 -22.108554560878616 16.053523483051773 #
straight-curve $-1 -65.168780547803635 -8.6381059914410709 16.053523483051773 0 1 0 I I #
point $-1 -65.168780547803635 -22.108554560878616 16.053523483051773 #
point $-1 -64.823973330364495 -17.276211982882142 13.650747043424774 #
straight-curve $-1 -91.629217581312901 4.6879137413111316 16.053523483051773 1 0 0 I I #
point $-1 -67.077242347483747 4.6879137413111316 16.053523483051773 #
straight-curve $-1 -65.168780547803635 4.760128159653803 16.053523483051773 0 1 0 I I #
point $-1 -65.168780547803635 4.6879137413111316 16.053523483051773 #
point $-1 -64.823973330364495 9.520256319307606 13.650747043424774 #
straight-curve $-1 51.581075283018727 9.7904355172501809 16.053523483051784 0 -1 0 I I #
point $-1 67.077242347483747 26.796468302189751 16.053523483051773 #
point $-1 51.58107528301872 26.796468302189751 16.053523483051777 #
straight-curve $-1 67.077242347483747 26.796468302189751 94.850484141537919 0 0 1 I I #
point $-1 56.15331318586896 16.488472205490623 4.9632695191853271 #
point $-1 56.15331318586896 22.6732698635101 4.9632695191853271 #
End-of-ACIS-data 