500 0 9 0           
7 Unknown 11 ACIS 5.0 NT 24 Fri Mar 26 20:09:58 1999 
-1 9.9999999999999995e-007 1e-010 
body $-1 $9 $-1 $10 #
body $-1 $11 $-1 $12 #
body $-1 $13 $-1 $14 #
body $-1 $15 $-1 $16 #
body $-1 $17 $-1 $18 #
body $-1 $19 $-1 $20 #
body $-1 $21 $-1 $22 #
body $-1 $23 $-1 $24 #
body $-1 $25 $-1 $26 #
lump $-1 $-1 $27 $0 #
transform $-1 1 0 0 0 1 0 0 0 1 40.952177495651114 25.820356034704236 8.5178728158554478 1 rotate no_reflect no_shear #
lump $-1 $-1 $28 $1 #
transform $-1 1 0 0 0 1 0 0 0 1 40.952177495651114 25.820356034704236 8.5178728158554478 1 rotate no_reflect no_shear #
lump $-1 $-1 $29 $2 #
transform $-1 1 0 0 0 1 0 0 0 1 40.952177495651114 25.820356034704236 8.5178728158554478 1 rotate no_reflect no_shear #
lump $-1 $-1 $30 $3 #
transform $-1 1 0 0 0 1 0 0 0 1 40.952177495651114 25.820356034704236 8.5178728158554478 1 rotate no_reflect no_shear #
lump $-1 $-1 $31 $4 #
transform $-1 1 0 0 0 1 0 0 0 1 40.952177495651114 25.820356034704236 8.5178728158554478 1 rotate no_reflect no_shear #
lump $-1 $-1 $32 $5 #
transform $-1 1 0 0 0 1 0 0 0 1 40.952177495651114 25.820356034704236 8.5178728158554478 1 rotate no_reflect no_shear #
lump $-1 $-1 $33 $6 #
transform $-1 1 0 0 0 1 0 0 0 1 40.952177495651114 25.820356034704236 8.5178728158554478 1 rotate no_reflect no_shear #
lump $-1 $-1 $34 $7 #
transform $-1 1 0 0 0 1 0 0 0 1 40.952177495651114 25.820356034704236 8.5178728158554478 1 rotate no_reflect no_shear #
lump $-1 $-1 $35 $8 #
transform $-1 1 0 0 0 1 0 0 0 1 40.952177495651114 25.820356034704236 8.5178728158554478 1 rotate no_reflect no_shear #
shell $-1 $-1 $-1 $36 $-1 $9 #
shell $-1 $-1 $-1 $37 $-1 $11 #
shell $-1 $-1 $-1 $38 $-1 $13 #
shell $-1 $-1 $-1 $39 $-1 $15 #
shell $-1 $-1 $-1 $40 $-1 $17 #
shell $-1 $-1 $-1 $41 $-1 $19 #
shell $-1 $-1 $-1 $42 $-1 $21 #
shell $-1 $-1 $-1 $43 $-1 $23 #
shell $-1 $-1 $-1 $44 $-1 $25 #
face $-1 $45 $46 $27 $-1 $47 forward single #
face $-1 $48 $49 $28 $-1 $50 forward single #
face $-1 $51 $52 $29 $-1 $53 reversed single #
face $-1 $54 $55 $30 $-1 $56 forward single #
face $-1 $57 $58 $31 $-1 $59 forward single #
face $-1 $60 $61 $32 $-1 $62 forward single #
face $-1 $63 $64 $33 $-1 $65 reversed single #
face $-1 $66 $67 $34 $-1 $68 forward single #
face $-1 $69 $70 $35 $-1 $71 forward single #
face $-1 $72 $73 $27 $-1 $74 reversed single #
loop $-1 $-1 $75 $36 #
plane-surface $-1 0 0 8.5178728158554478 0 0 1 1 0 0 forward_v I I I I #
face $-1 $76 $77 $28 $-1 $78 reversed single #
loop $-1 $-1 $79 $37 #
plane-surface $-1 0 -25.820356034704236 0 0 1 0 0 0 1 forward_v I I I I #
face $-1 $80 $81 $29 $-1 $82 reversed single #
loop $-1 $-1 $83 $38 #
plane-surface $-1 -93.599282710513961 14.639069393921663 65.934177014228624 0 1 0 -0.64278761758704617 0 0.76604443648966558 forward_v I I I I #
face $-1 $84 $85 $30 $-1 $86 forward single #
loop $-1 $87 $88 $39 #
cone-surface $-1 -36.766664353643961 16.875326722078174 4.6489840675835774 0.64278761758704617 0 -0.76604443648966558 0.76604443648966558 0 0.64278761758704617 1 I I 0 1 1 forward I I I I #
face $-1 $89 $90 $31 $-1 $91 forward single #
loop $-1 $92 $93 $40 #
cone-surface $-1 -36.766664353643961 20.229712714312949 4.6489840675835774 0.64278761758704617 0 -0.76604443648966558 0.76604443648966558 0 0.64278761758704617 1 I I 0 1 1 forward I I I I #
face $-1 $94 $95 $32 $-1 $96 forward single #
loop $-1 $97 $98 $41 #
cone-surface $-1 -36.766664353643961 23.584098706547724 4.6489840675835774 0.64278761758704617 0 -0.76604443648966558 0.76604443648966558 0 0.64278761758704617 1 I I 0 1 1 forward I I I I #
face $-1 $99 $100 $33 $-1 $101 reversed single #
loop $-1 $-1 $102 $42 #
plane-surface $-1 22.832335418688317 16.613692296416055 114.96393970357718 0 -1 0 -0.5877852598018023 0 -0.80901698891910034 forward_v I I I I #
face $-1 $103 $104 $34 $-1 $105 forward single #
loop $-1 $106 $107 $43 #
cone-surface $-1 34.559611743674566 8.8900605219760216 3.2782403794142141 -0.5877852598018023 0 -0.80901698891910034 0.80901698891910034 0 -0.5877852598018023 1 I I 0 1 1 forward I I I I #
face $-1 $108 $109 $35 $-1 $110 forward single #
loop $-1 $111 $112 $44 #
cone-surface $-1 34.559611743674566 13.524239586640039 3.2782403794142141 -0.5877852598018023 0 -0.80901698891910034 0.80901698891910034 0 -0.5877852598018023 1 I I 0 1 1 forward I I I I #
face $-1 $113 $114 $27 $-1 $115 reversed single #
loop $-1 $-1 $116 $45 #
plane-surface $-1 0 0 -8.5178728158554478 0 0 1 1 0 0 forward_v I I I I #
coedge $-1 $117 $118 $119 $120 forward $46 $-1 #
face $-1 $121 $122 $28 $-1 $123 reversed single #
loop $-1 $-1 $124 $48 #
plane-surface $-1 0 0 -8.5178728158554478 0 0 1 1 0 0 forward_v I I I I #
coedge $-1 $125 $126 $127 $128 forward $49 $-1 #
face $-1 $129 $130 $29 $-1 $131 reversed single #
loop $-1 $-1 $132 $51 #
plane-surface $-1 -40.952177495651107 20.229712714312949 3.1918015488669838 -0.64278761758704617 0 0.76604443648966558 0.76604443648966558 0 0.64278761758704617 forward_v I I I I #
coedge $-1 $133 $134 $135 $136 reversed $52 $-1 #
face $-1 $-1 $137 $30 $-1 $138 forward single #
loop $-1 $139 $140 $54 #
cone-surface $-1 -35.433439619793795 16.875326722078174 3.060108734561112 0.64278761758704617 0 -0.76604443648966558 0.38302221824483279 0 0.32139380879352308 1 I I -0.70710678118654746 0.70710678118654746 0.5 forward I I I I #
loop $-1 $-1 $141 $39 #
coedge $-1 $88 $88 $142 $143 reversed $55 $-1 #
face $-1 $-1 $144 $31 $-1 $145 forward single #
loop $-1 $146 $147 $57 #
cone-surface $-1 -35.433439619793795 20.229712714312949 3.060108734561112 0.64278761758704617 0 -0.76604443648966558 0.38302221824483279 0 0.32139380879352308 1 I I -0.70710678118654746 0.70710678118654746 0.5 forward I I I I #
loop $-1 $-1 $148 $40 #
coedge $-1 $93 $93 $149 $150 reversed $58 $-1 #
face $-1 $-1 $151 $32 $-1 $152 forward single #
loop $-1 $153 $154 $60 #
cone-surface $-1 -35.433439619793795 23.584098706547724 3.060108734561112 0.64278761758704617 0 -0.76604443648966558 0.38302221824483279 0 0.32139380879352308 1 I I -0.70710678118654746 0.70710678118654746 0.5 forward I I I I #
loop $-1 $-1 $155 $41 #
coedge $-1 $98 $98 $156 $157 reversed $61 $-1 #
face $-1 $158 $159 $33 $-1 $160 reversed single #
loop $-1 $-1 $161 $63 #
plane-surface $-1 -25.309837158773306 11.207150054308034 48.701925049152763 0.5877852598018023 0 0.80901698891910034 0.80901698891910034 0 -0.5877852598018023 forward_v I I I I #
coedge $-1 $162 $163 $164 $165 reversed $64 $-1 #
face $-1 $-1 $166 $34 $-1 $167 forward single #
loop $-1 $168 $169 $66 #
cone-surface $-1 33.349859736215734 8.8900605219760216 1.6131596205955958 -0.5877852598018023 0 -0.80901698891910034 0.40450849445955017 0 -0.29389262990090115 1 I I -0.70710678118654746 0.70710678118654746 0.5 forward I I I I #
loop $-1 $-1 $170 $43 #
coedge $-1 $107 $107 $171 $172 reversed $67 $-1 #
face $-1 $-1 $173 $35 $-1 $174 forward single #
loop $-1 $175 $176 $69 #
cone-surface $-1 33.349859736215734 13.524239586640039 1.6131596205955958 -0.5877852598018023 0 -0.80901698891910034 0.40450849445955017 0 -0.29389262990090115 1 I I -0.70710678118654746 0.70710678118654746 0.5 forward I I I I #
loop $-1 $-1 $177 $44 #
coedge $-1 $112 $112 $178 $179 reversed $70 $-1 #
face $-1 $180 $181 $27 $-1 $182 reversed single #
loop $-1 $-1 $183 $72 #
plane-surface $-1 0 -25.820356034704236 0 0 1 0 0 0 1 forward_v I I I I #
coedge $-1 $184 $185 $186 $187 forward $73 $-1 #
coedge $-1 $188 $75 $189 $190 forward $46 $-1 #
coedge $-1 $75 $188 $191 $192 forward $46 $-1 #
coedge $-1 $193 $194 $75 $120 reversed $195 $-1 #
edge $-1 $196 -25.820356034704236 $197 25.820356034704236 $119 $198 forward 7 unknown #
face $-1 $199 $200 $28 $-1 $201 reversed single #
loop $-1 $-1 $202 $76 #
plane-surface $-1 -25.416431863940218 -35.734289670445023 0 0 1 0 0 0 1 forward_v I I I I #
coedge $-1 $203 $204 $126 $205 forward $77 $-1 #
coedge $-1 $206 $79 $207 $208 reversed $49 $-1 #
coedge $-1 $79 $206 $124 $205 reversed $49 $-1 #
coedge $-1 $209 $210 $79 $128 reversed $200 $-1 #
edge $-1 $211 -8.5178728158554478 $212 8.5178728158554478 $127 $213 forward 7 unknown #
face $-1 $214 $215 $29 $-1 $216 forward single #
loop $-1 $-1 $217 $80 #
plane-surface $-1 -40.952177495651114 0 0 1 0 0 0 0 -1 forward_v I I I I #
coedge $-1 $218 $219 $220 $221 reversed $81 $-1 #
coedge $-1 $134 $83 $222 $223 reversed $52 $-1 #
coedge $-1 $83 $133 $218 $224 reversed $52 $-1 #
coedge $-1 $220 $225 $83 $136 forward $215 $-1 #
edge $-1 $226 5.8474638596058668 $227 12.19482829350688 $135 $228 forward 7 unknown #
loop $-1 $-1 $142 $84 #
plane-surface $-1 -40.952177495651107 20.229712714312949 3.1918015488669838 -0.64278761758704617 0 0.76604443648966558 0.76604443648966558 0 0.64278761758704617 forward_v I I I I #
loop $-1 $-1 $229 $54 #
coedge $-1 $140 $140 $141 $230 reversed $85 $-1 #
coedge $-1 $141 $141 $140 $230 forward $87 $-1 #
coedge $-1 $142 $142 $88 $143 forward $137 $-1 #
edge $-1 $231 0 $231 6.2831853071796004 $142 $232 forward 7 unknown #
loop $-1 $-1 $149 $89 #
plane-surface $-1 -40.952177495651107 20.229712714312949 3.1918015488669838 -0.64278761758704617 0 0.76604443648966558 0.76604443648966558 0 0.64278761758704617 forward_v I I I I #
loop $-1 $-1 $233 $57 #
coedge $-1 $147 $147 $148 $234 reversed $90 $-1 #
coedge $-1 $148 $148 $147 $234 forward $92 $-1 #
coedge $-1 $149 $149 $93 $150 forward $144 $-1 #
edge $-1 $235 0 $235 6.2831853071796004 $149 $236 forward 7 unknown #
loop $-1 $-1 $156 $94 #
plane-surface $-1 -40.952177495651107 20.229712714312949 3.1918015488669838 -0.64278761758704617 0 0.76604443648966558 0.76604443648966558 0 0.64278761758704617 forward_v I I I I #
loop $-1 $-1 $237 $60 #
coedge $-1 $154 $154 $155 $238 reversed $95 $-1 #
coedge $-1 $155 $155 $154 $238 forward $97 $-1 #
coedge $-1 $156 $156 $98 $157 forward $151 $-1 #
edge $-1 $239 0 $239 6.2831853071796004 $156 $240 forward 7 unknown #
face $-1 $241 $242 $33 $-1 $243 forward single #
loop $-1 $-1 $244 $99 #
plane-surface $-1 22.832335418688317 5.8006078122000115 114.96393970357718 0 1 0 0.5877852598018023 0 0.80901698891910034 forward_v I I I I #
coedge $-1 $245 $246 $247 $248 reversed $100 $-1 #
coedge $-1 $163 $102 $249 $250 reversed $64 $-1 #
coedge $-1 $102 $162 $245 $251 reversed $64 $-1 #
coedge $-1 $247 $252 $102 $165 forward $242 $-1 #
edge $-1 $253 -29.536009786306956 $254 -18.58259703746976 $164 $255 forward 7 unknown #
loop $-1 $-1 $171 $103 #
plane-surface $-1 -25.309837158773306 11.207150054308034 48.701925049152763 0.5877852598018023 0 0.80901698891910034 0.80901698891910034 0 -0.5877852598018023 forward_v I I I I #
loop $-1 $-1 $256 $66 #
coedge $-1 $169 $169 $170 $257 reversed $104 $-1 #
coedge $-1 $170 $170 $169 $257 forward $106 $-1 #
coedge $-1 $171 $171 $107 $172 forward $166 $-1 #
edge $-1 $258 0 $258 6.2831853071796004 $171 $259 forward 7 unknown #
loop $-1 $-1 $178 $108 #
plane-surface $-1 -25.309837158773306 11.207150054308034 48.701925049152763 0.5877852598018023 0 0.80901698891910034 0.80901698891910034 0 -0.5877852598018023 forward_v I I I I #
loop $-1 $-1 $260 $69 #
coedge $-1 $176 $176 $177 $261 reversed $109 $-1 #
coedge $-1 $177 $177 $176 $261 forward $111 $-1 #
coedge $-1 $178 $178 $112 $179 forward $173 $-1 #
edge $-1 $262 0 $262 6.2831853071796004 $178 $263 forward 7 unknown #
face $-1 $264 $265 $27 $-1 $266 reversed single #
loop $-1 $-1 $267 $113 #
plane-surface $-1 -40.952177495651114 0 0 1 0 0 0 0 -1 forward_v I I I I #
coedge $-1 $268 $191 $269 $270 forward $114 $-1 #
coedge $-1 $271 $116 $268 $272 forward $73 $-1 #
coedge $-1 $116 $271 $273 $274 forward $73 $-1 #
coedge $-1 $194 $193 $116 $187 reversed $195 $-1 #
edge $-1 $275 -25.820356034704236 $276 25.820356034704236 $186 $277 forward 7 unknown #
coedge $-1 $118 $117 $278 $279 forward $46 $-1 #
coedge $-1 $280 $281 $117 $190 reversed $265 $-1 #
edge $-1 $197 -40.952177495651114 $282 40.952177495651114 $189 $283 forward 7 unknown #
coedge $-1 $183 $284 $118 $192 reversed $114 $-1 #
edge $-1 $285 -40.952177495651114 $196 40.952177495651114 $191 $286 forward 7 unknown #
coedge $-1 $186 $119 $284 $287 forward $195 $-1 #
coedge $-1 $119 $186 $280 $288 reversed $195 $-1 #
loop $-1 $-1 $193 $264 #
vertex $-1 $120 $289 #
vertex $-1 $120 $290 #
straight-curve $-1 40.952177495651114 0 8.5178728158554478 0 1 0 I I #
face $-1 $291 $292 $28 $-1 $293 reversed single #
loop $-1 $-1 $127 $121 #
plane-surface $-1 -26.916431863940218 -30.777322852574628 0 1 0 0 0 0 -1 forward_v I I I I #
coedge $-1 $294 $295 $296 $297 forward $122 $-1 #
coedge $-1 $298 $124 $299 $300 forward $77 $-1 #
coedge $-1 $124 $298 $209 $301 forward $77 $-1 #
edge $-1 $211 -26.916431863940218 $302 -23.916431863940218 $124 $303 forward 7 unknown #
coedge $-1 $126 $125 $304 $305 forward $49 $-1 #
coedge $-1 $306 $307 $125 $208 forward $308 $-1 #
edge $-1 $309 23.916431863940218 $212 26.916431863940218 $207 $310 forward 7 unknown #
coedge $-1 $296 $127 $204 $301 reversed $200 $-1 #
coedge $-1 $127 $296 $306 $311 reversed $200 $-1 #
vertex $-1 $205 $312 #
vertex $-1 $311 $313 #
straight-curve $-1 -26.916431863940218 -25.820356034704236 0 0 0 1 I I #
face $-1 $-1 $314 $29 $-1 $315 reversed single #
loop $-1 $-1 $220 $129 #
plane-surface $-1 0 0 8.5178728158554478 0 0 1 1 0 0 forward_v I I I I #
coedge $-1 $222 $316 $317 $318 forward $130 $-1 #
coedge $-1 $317 $132 $134 $224 forward $81 $-1 #
coedge $-1 $132 $317 $319 $320 reversed $81 $-1 #
coedge $-1 $321 $135 $132 $221 forward $215 $-1 #
edge $-1 $227 4.5242130367651878 $322 15.705499677547762 $220 $323 forward 7 unknown #
coedge $-1 $324 $217 $133 $223 forward $130 $-1 #
edge $-1 $325 -29.775286958247335 $226 -24.449215691258864 $222 $326 forward 7 unknown #
edge $-1 $227 -8.2858958717685773 $325 9.1539886837149753e-015 $134 $327 forward 7 unknown #
coedge $-1 $135 $321 $324 $328 forward $215 $-1 #
vertex $-1 $223 $329 #
vertex $-1 $136 $330 #
straight-curve $-1 -46.799641355256981 14.639069393921663 8.5178728158554478 1 0 0 I I #
coedge $-1 $229 $229 $-1 $331 reversed $139 $-1 #
edge $-1 $332 0 $332 6.2831853071796004 $140 $333 forward 7 unknown #
vertex $-1 $143 $334 #
ellipse-curve $-1 -37.778495278700603 16.875326722078174 5.8548371823612131 -0.64278761758704617 0 0.76604443648966558 0.76604443648966558 0 0.64278761758704617 1 I I #
coedge $-1 $233 $233 $-1 $335 reversed $146 $-1 #
edge $-1 $336 0 $336 6.2831853071796004 $147 $337 forward 7 unknown #
vertex $-1 $150 $338 #
ellipse-curve $-1 -37.778495278700603 20.229712714312949 5.8548371823612131 -0.64278761758704617 0 0.76604443648966558 0.76604443648966558 0 0.64278761758704617 1 I I #
coedge $-1 $237 $237 $-1 $339 reversed $153 $-1 #
edge $-1 $340 0 $340 6.2831853071796004 $154 $341 forward 7 unknown #
vertex $-1 $157 $342 #
ellipse-curve $-1 -37.778495278700603 23.584098706547724 5.8548371823612131 -0.64278761758704617 0 0.76604443648966558 0.76604443648966558 0 0.64278761758704617 1 I I #
face $-1 $-1 $343 $33 $-1 $344 reversed single #
loop $-1 $-1 $164 $158 #
plane-surface $-1 0 0 8.5178728158554478 0 0 1 1 0 0 forward_v I I I I #
coedge $-1 $345 $346 $347 $348 reversed $159 $-1 #
coedge $-1 $349 $161 $163 $251 forward $100 $-1 #
coedge $-1 $161 $349 $345 $350 forward $100 $-1 #
coedge $-1 $347 $164 $161 $248 forward $242 $-1 #
edge $-1 $254 -11.010117269262038 $351 -0.19703278504599453 $247 $352 forward 7 unknown #
coedge $-1 $353 $354 $162 $250 forward $343 $-1 #
edge $-1 $355 -56.92221738009745 $253 -48.964097035933143 $249 $356 forward 7 unknown #
edge $-1 $254 68.365192156821252 $355 81.904354991302228 $163 $357 forward 7 unknown #
coedge $-1 $164 $347 $353 $358 forward $242 $-1 #
vertex $-1 $165 $359 #
vertex $-1 $165 $360 #
straight-curve $-1 11.416167709344158 16.613692296416055 8.5178728158554478 -1 0 0 I I #
coedge $-1 $256 $256 $-1 $361 reversed $168 $-1 #
edge $-1 $362 0 $362 6.2831853071796004 $169 $363 forward 7 unknown #
vertex $-1 $172 $364 #
ellipse-curve $-1 35.475471121232509 8.8900605219760216 4.5388126437732925 0.5877852598018023 0 0.80901698891910034 0.80901698891910034 0 -0.5877852598018023 1 I I #
coedge $-1 $260 $260 $-1 $365 reversed $175 $-1 #
edge $-1 $366 0 $366 6.2831853071796004 $176 $367 forward 7 unknown #
vertex $-1 $179 $368 #
ellipse-curve $-1 35.475471121232509 13.524239586640039 4.5388126437732925 0.5877852598018023 0 0.80901698891910034 0.80901698891910034 0 -0.5877852598018023 1 I I #
face $-1 $-1 $195 $27 $-1 $369 reversed single #
loop $-1 $-1 $280 $180 #
plane-surface $-1 0 25.820356034704236 0 0 -1 0 0 0 -1 forward_v I I I I #
coedge $-1 $370 $278 $281 $371 forward $181 $-1 #
coedge $-1 $284 $183 $184 $272 reversed $114 $-1 #
coedge $-1 $278 $370 $183 $270 reversed $181 $-1 #
edge $-1 $285 -8.5178728158554478 $372 8.5178728158554478 $269 $373 forward 7 unknown #
coedge $-1 $185 $184 $370 $374 forward $73 $-1 #
edge $-1 $276 -40.952177495651114 $372 40.952177495651114 $268 $375 forward 7 unknown #
coedge $-1 $281 $280 $185 $274 reversed $265 $-1 #
edge $-1 $376 -40.952177495651114 $275 40.952177495651114 $273 $377 forward 7 unknown #
vertex $-1 $187 $378 #
vertex $-1 $287 $379 #
straight-curve $-1 40.952177495651114 0 -8.5178728158554478 0 -1 0 I I #
coedge $-1 $267 $269 $188 $279 reversed $181 $-1 #
edge $-1 $282 -25.820356034704236 $285 25.820356034704236 $278 $380 forward 7 unknown #
coedge $-1 $273 $189 $194 $288 forward $265 $-1 #
coedge $-1 $189 $273 $267 $371 reversed $265 $-1 #
vertex $-1 $190 $381 #
straight-curve $-1 0 25.820356034704236 8.5178728158554478 -1 0 0 I I #
coedge $-1 $191 $268 $193 $287 reversed $114 $-1 #
vertex $-1 $279 $382 #
straight-curve $-1 0 -25.820356034704236 8.5178728158554478 1 0 0 I I #
edge $-1 $196 -8.5178728158554478 $276 8.5178728158554478 $193 $383 forward 7 unknown #
edge $-1 $197 -8.5178728158554478 $275 8.5178728158554478 $194 $384 forward 7 unknown #
point $-1 40.952177495651114 -25.820356034704236 8.5178728158554478 #
point $-1 40.952177495651114 25.820356034704236 8.5178728158554478 #
face $-1 $-1 $308 $28 $-1 $385 forward single #
loop $-1 $-1 $386 $199 #
plane-surface $-1 -23.916431863940218 -30.777322852574628 0 -1 0 0 0 0 1 forward_v I I I I #
coedge $-1 $387 $202 $298 $388 reversed $122 $-1 #
coedge $-1 $202 $387 $389 $390 reversed $122 $-1 #
coedge $-1 $210 $209 $202 $297 reversed $200 $-1 #
edge $-1 $391 -8.5178728158554478 $392 8.5178728158554478 $296 $393 forward 7 unknown #
coedge $-1 $204 $203 $294 $388 forward $77 $-1 #
coedge $-1 $304 $386 $203 $300 reversed $292 $-1 #
edge $-1 $302 -4.9569668178703914 $394 4.9569668178703949 $299 $395 forward 7 unknown #
edge $-1 $392 -4.9569668178703949 $211 4.9569668178703914 $209 $396 forward 7 unknown #
vertex $-1 $300 $397 #
straight-curve $-1 0 -25.820356034704236 -8.5178728158554478 1 0 0 I I #
coedge $-1 $398 $299 $206 $305 reversed $292 $-1 #
edge $-1 $309 -8.5178728158554478 $302 8.5178728158554478 $304 $399 forward 7 unknown #
coedge $-1 $389 $207 $210 $311 forward $308 $-1 #
coedge $-1 $207 $389 $398 $400 forward $308 $-1 #
loop $-1 $-1 $207 $291 #
vertex $-1 $208 $401 #
straight-curve $-1 0 -25.820356034704236 8.5178728158554478 -1 0 0 I I #
edge $-1 $212 -4.9569668178703914 $391 4.9569668178703949 $210 $402 forward 7 unknown #
point $-1 -26.916431863940218 -25.820356034704236 -8.5178728158554478 #
point $-1 -26.916431863940218 -25.820356034704236 8.5178728158554478 #
loop $-1 $-1 $319 $214 #
plane-surface $-1 0 25.820356034704236 0 0 -1 0 0 0 -1 forward_v I I I I #
coedge $-1 $217 $324 $403 $404 forward $130 $-1 #
coedge $-1 $219 $218 $217 $318 reversed $81 $-1 #
edge $-1 $405 -15.705499677547762 $325 -4.5242130367651878 $217 $406 forward 7 unknown #
coedge $-1 $403 $407 $219 $320 forward $314 $-1 #
edge $-1 $322 6.3738727378684068 $405 14.659768609636991 $319 $408 forward 7 unknown #
coedge $-1 $225 $220 $407 $409 forward $215 $-1 #
vertex $-1 $409 $410 #
straight-curve $-1 -34.6048130617501 10.114856357156475 8.5178728158554478 0 1 0 I I #
coedge $-1 $316 $222 $225 $328 reversed $130 $-1 #
vertex $-1 $223 $411 #
straight-curve $-1 -40.952177495651114 14.639069393921663 32.967088507114312 0 0 1 I I #
straight-curve $-1 -40.952177495651107 14.639069393921663 3.1918015488669838 -0.76604443648966558 0 -0.64278761758704617 I I #
edge $-1 $412 -25.820356034704236 $226 -14.639069393921663 $324 $413 forward 7 unknown #
point $-1 -40.952177495651114 14.639069393921663 8.5178728158554478 #
point $-1 -34.6048130617501 14.639069393921663 8.5178728158554478 #
edge $-1 $414 1 $414 0 $229 $-1 forward 7 unknown #
vertex $-1 $230 $415 #
ellipse-curve $-1 -35.754833428587318 16.875326722078174 3.4431309528059448 -0.64278761758704617 0 0.76604443648966558 0.76604443648966558 0 0.64278761758704617 1 I I #
point $-1 -37.012450842210939 16.875326722078174 6.497624799948257 #
edge $-1 $416 1 $416 0 $233 $-1 forward 7 unknown #
vertex $-1 $234 $417 #
ellipse-curve $-1 -35.754833428587318 20.229712714312949 3.4431309528059448 -0.64278761758704617 0 0.76604443648966558 0.76604443648966558 0 0.64278761758704617 1 I I #
point $-1 -37.012450842210939 20.229712714312949 6.497624799948257 #
edge $-1 $418 1 $418 0 $237 $-1 forward 7 unknown #
vertex $-1 $238 $419 #
ellipse-curve $-1 -35.754833428587318 23.584098706547724 3.4431309528059448 -0.64278761758704617 0 0.76604443648966558 0.76604443648966558 0 0.64278761758704617 1 I I #
point $-1 -37.012450842210939 23.584098706547724 6.497624799948257 #
loop $-1 $-1 $249 $241 #
plane-surface $-1 40.952177495651114 0 0 -1 0 0 0 0 1 forward_v I I I I #
coedge $-1 $346 $244 $246 $350 reversed $159 $-1 #
coedge $-1 $244 $345 $420 $421 reversed $159 $-1 #
coedge $-1 $252 $247 $244 $348 forward $242 $-1 #
edge $-1 $351 18.58259703746976 $422 29.536009786306956 $347 $423 forward 7 unknown #
coedge $-1 $246 $245 $354 $424 reversed $100 $-1 #
edge $-1 $425 -81.904354991302228 $351 -68.365192156821252 $345 $426 forward 7 unknown #
vertex $-1 $248 $427 #
straight-curve $-1 29.998764746813912 5.603575027154017 8.5178728158554478 0 -1 0 I I #
coedge $-1 $420 $249 $252 $358 reversed $343 $-1 #
coedge $-1 $249 $420 $349 $424 forward $343 $-1 #
vertex $-1 $250 $428 #
straight-curve $-1 40.952177495651114 16.613692296416055 57.481969851788591 0 0 1 I I #
straight-curve $-1 -25.309837158773306 16.613692296416055 48.701925049152763 0.80901698891910034 0 -0.5877852598018023 I I #
edge $-1 $422 5.8006078122000115 $253 16.613692296416055 $353 $429 forward 7 unknown #
point $-1 40.952177495651114 16.613692296416055 8.5178728158554478 #
point $-1 29.998764746813919 16.613692296416055 8.5178728158554478 #
edge $-1 $430 1 $430 0 $256 $-1 forward 7 unknown #
vertex $-1 $257 $431 #
ellipse-curve $-1 33.643752366116637 8.8900605219760216 2.0176681150551459 0.5877852598018023 0 0.80901698891910034 0.80901698891910034 0 -0.5877852598018023 1 I I #
point $-1 36.284488110151599 8.8900605219760216 3.9510273839714802 #
edge $-1 $432 1 $432 0 $260 $-1 forward 7 unknown #
vertex $-1 $261 $433 #
ellipse-curve $-1 33.643752366116637 13.524239586640039 2.0176681150551459 0.5877852598018023 0 0.80901698891910034 0.80901698891910034 0 -0.5877852598018023 1 I I #
point $-1 36.284488110151599 13.524239586640039 3.9510273839714802 #
plane-surface $-1 40.952177495651114 0 0 -1 0 0 0 0 1 forward_v I I I I #
coedge $-1 $269 $267 $271 $374 reversed $181 $-1 #
edge $-1 $282 -8.5178728158554478 $376 8.5178728158554478 $281 $434 forward 7 unknown #
vertex $-1 $374 $435 #
straight-curve $-1 -40.952177495651114 -25.820356034704236 0 0 0 -1 I I #
edge $-1 $372 -25.820356034704236 $376 25.820356034704236 $370 $436 forward 7 unknown #
straight-curve $-1 0 -25.820356034704236 -8.5178728158554478 -1 0 0 I I #
vertex $-1 $274 $437 #
straight-curve $-1 0 25.820356034704236 -8.5178728158554478 1 0 0 I I #
point $-1 40.952177495651114 25.820356034704236 -8.5178728158554478 #
point $-1 40.952177495651114 -25.820356034704236 -8.5178728158554478 #
straight-curve $-1 -40.952177495651114 0 8.5178728158554478 0 -1 0 I I #
point $-1 -40.952177495651114 25.820356034704236 8.5178728158554478 #
point $-1 -40.952177495651114 -25.820356034704236 8.5178728158554478 #
straight-curve $-1 40.952177495651114 -25.820356034704236 0 0 0 -1 I I #
straight-curve $-1 40.952177495651114 25.820356034704236 0 0 0 -1 I I #
plane-surface $-1 0 0 8.5178728158554478 0 0 1 1 0 0 forward_v I I I I #
coedge $-1 $299 $398 $387 $438 forward $292 $-1 #
coedge $-1 $295 $294 $386 $438 reversed $122 $-1 #
edge $-1 $394 -1.5 $392 1.5 $294 $439 forward 7 unknown #
coedge $-1 $307 $306 $295 $390 forward $308 $-1 #
edge $-1 $391 -1.5 $440 1.5 $295 $441 forward 7 unknown #
vertex $-1 $311 $442 #
vertex $-1 $301 $443 #
straight-curve $-1 -26.916431863940218 -35.734289670445023 0 0 0 -1 I I #
vertex $-1 $438 $444 #
straight-curve $-1 -23.916431863940218 -30.777322852574628 -8.5178728158554478 0 -1 0 I I #
straight-curve $-1 -26.916431863940218 -30.777322852574628 -8.5178728158554478 0 1 0 I I #
point $-1 -23.916431863940218 -25.820356034704236 -8.5178728158554478 #
coedge $-1 $386 $304 $307 $400 reversed $292 $-1 #
straight-curve $-1 -23.916431863940218 -25.820356034704236 0 0 0 -1 I I #
edge $-1 $440 -4.9569668178703949 $309 4.9569668178703914 $398 $445 forward 7 unknown #
point $-1 -23.916431863940218 -25.820356034704236 8.5178728158554478 #
straight-curve $-1 -26.916431863940218 -30.777322852574628 8.5178728158554478 0 -1 0 I I #
coedge $-1 $407 $319 $316 $404 reversed $314 $-1 #
edge $-1 $412 -8.5178728158554478 $405 -3.191801548866978 $403 $446 forward 7 unknown #
vertex $-1 $320 $447 #
straight-curve $-1 -40.952177495651114 10.114856357156475 3.1918015488669811 0 -1 0 I I #
coedge $-1 $319 $403 $321 $409 reversed $314 $-1 #
straight-curve $-1 -29.722143312012854 25.820356034704236 12.614919287832903 -0.76604443648966558 0 -0.64278761758704617 I I #
edge $-1 $322 34.6048130617501 $412 40.952177495651114 $407 $448 forward 7 unknown #
point $-1 -34.6048130617501 25.820356034704236 8.5178728158554478 #
point $-1 -40.952177495651114 14.639069393921663 3.191801548866978 #
vertex $-1 $409 $449 #
straight-curve $-1 -40.952177495651114 0 8.5178728158554478 0 -1 0 I I #
vertex $-1 $331 $450 #
point $-1 -34.988788992097653 16.875326722078174 4.085918570392991 #
vertex $-1 $335 $451 #
point $-1 -34.988788992097653 20.229712714312949 4.085918570392991 #
vertex $-1 $339 $452 #
point $-1 -34.988788992097653 23.584098706547724 4.085918570392991 #
coedge $-1 $354 $353 $346 $421 forward $343 $-1 #
edge $-1 $422 48.964097035933143 $425 56.92221738009745 $420 $453 forward 7 unknown #
vertex $-1 $358 $454 #
straight-curve $-1 11.416167709344158 5.8006078122000115 8.5178728158554478 1 0 0 I I #
edge $-1 $425 0.19703278504599453 $355 11.010117269262038 $354 $455 forward 7 unknown #
vertex $-1 $424 $456 #
straight-curve $-1 -25.309837158773306 5.8006078122000115 48.701925049152763 -0.80901698891910034 0 0.5877852598018023 I I #
point $-1 29.998764746813919 5.8006078122000115 8.5178728158554478 #
point $-1 40.952177495651114 16.613692296416055 0.55975247169114084 #
straight-curve $-1 40.952177495651114 0 8.5178728158554478 0 1 0 I I #
vertex $-1 $361 $457 #
point $-1 34.452769355035734 8.8900605219760216 1.4298828552533438 #
vertex $-1 $365 $458 #
point $-1 34.452769355035734 13.524239586640039 1.4298828552533438 #
straight-curve $-1 -40.952177495651114 25.820356034704236 0 0 0 -1 I I #
point $-1 -40.952177495651114 -25.820356034704236 -8.5178728158554478 #
straight-curve $-1 -40.952177495651114 0 -8.5178728158554478 0 1 0 I I #
point $-1 -40.952177495651114 25.820356034704236 -8.5178728158554478 #
edge $-1 $440 -8.5178728158554478 $394 8.5178728158554478 $386 $459 forward 7 unknown #
straight-curve $-1 -25.416431863940218 -35.734289670445023 -8.5178728158554478 -1 0 0 I I #
vertex $-1 $400 $460 #
straight-curve $-1 -25.416431863940218 -35.734289670445023 8.5178728158554478 1 0 0 I I #
point $-1 -26.916431863940218 -35.734289670445023 8.5178728158554478 #
point $-1 -26.916431863940218 -35.734289670445023 -8.5178728158554478 #
point $-1 -23.916431863940218 -35.734289670445023 -8.5178728158554478 #
straight-curve $-1 -23.916431863940218 -30.777322852574628 8.5178728158554478 0 1 0 I I #
straight-curve $-1 -40.952177495651114 25.820356034704236 0 0 0 -1 I I #
point $-1 -40.952177495651114 25.820356034704236 3.191801548866978 #
straight-curve $-1 0 25.820356034704236 8.5178728158554478 -1 0 0 I I #
point $-1 -40.952177495651114 25.820356034704236 8.5178728158554478 #
point $-1 -35.112045811000272 16.875326722078174 2.6770865163162791 #
point $-1 -35.112045811000272 20.229712714312949 2.6770865163162791 #
point $-1 -35.112045811000272 23.584098706547724 2.6770865163162791 #
straight-curve $-1 40.952177495651114 5.8006078122000115 57.481969851788591 0 0 -1 I I #
point $-1 40.952177495651114 5.8006078122000115 8.5178728158554478 #
straight-curve $-1 40.952177495651114 5.603575027154017 0.55975247169113374 0 1 0 I I #
point $-1 40.952177495651114 5.8006078122000115 0.55975247169114084 #
point $-1 33.055967106314831 8.8900605219760216 1.2086511261360458 #
point $-1 33.055967106314831 13.524239586640039 1.2086511261360458 #
straight-curve $-1 -23.916431863940218 -35.734289670445023 0 0 0 -1 I I #
point $-1 -23.916431863940218 -35.734289670445023 8.5178728158554478 #
End-of-ACIS-data 