500 0 3 0           
7 Unknown 11 ACIS 5.0 NT 24 Thu Mar 25 16:08:21 1999 
-1 9.9999999999999995e-007 1e-010 
body $-1 $3 $-1 $4 #
body $-1 $5 $-1 $6 #
body $-1 $7 $-1 $8 #
lump $-1 $-1 $9 $0 #
transform $-1 1 0 0 0 1 0 0 0 1 62.912076174199655 34.421643508977596 15.045116616450276 1 rotate no_reflect no_shear #
lump $-1 $-1 $10 $1 #
transform $-1 1 0 0 0 1 0 0 0 1 62.912076174199655 34.421643508977596 15.045116616450276 1 rotate no_reflect no_shear #
lump $-1 $-1 $11 $2 #
transform $-1 1 0 0 0 1 0 0 0 1 62.912076174199655 34.421643508977596 15.045116616450276 1 rotate no_reflect no_shear #
shell $-1 $-1 $-1 $12 $-1 $3 #
shell $-1 $-1 $-1 $13 $-1 $5 #
shell $-1 $-1 $-1 $14 $-1 $7 #
face $-1 $15 $16 $9 $-1 $17 forward single #
face $-1 $18 $19 $10 $-1 $20 forward single #
face $-1 $21 $22 $11 $-1 $23 reversed single #
face $-1 $24 $25 $9 $-1 $26 reversed single #
loop $-1 $-1 $27 $12 #
plane-surface $-1 0 0 15.045116616450276 0 0 1 1 0 0 forward_v I I I I #
face $-1 $28 $29 $10 $-1 $30 forward single #
loop $-1 $-1 $31 $13 #
plane-surface $-1 -135.08184601520264 -24.103029185686381 113.26079339606791 0 -1 0 0.57357644374324357 0 -0.81915203911291934 forward_v I I I I #
face $-1 $32 $33 $11 $-1 $34 reversed single #
loop $-1 $35 $36 $14 #
cone-surface $-1 -58.801509486763408 -29.262336347331988 11.697450337604119 0.57357644374324357 0 -0.81915203911291934 0.81915203911291934 0 0.57357644374324357 1 I I 0 1 1 forward I I I I #
face $-1 $37 $38 $9 $-1 $39 reversed single #
loop $-1 $-1 $40 $15 #
plane-surface $-1 0 0 -15.045116616450276 0 0 1 1 0 0 forward_v I I I I #
coedge $-1 $41 $42 $43 $44 forward $16 $-1 #
face $-1 $45 $46 $10 $-1 $47 reversed single #
loop $-1 $-1 $48 $18 #
plane-surface $-1 -62.912076174199683 -29.262336347331988 10.191682430222002 -0.57357644374324357 0 0.81915203911291934 0.81915203911291934 0 0.57357644374324357 forward_v I I I I #
coedge $-1 $49 $50 $51 $52 reversed $19 $-1 #
face $-1 $53 $54 $11 $-1 $55 forward single #
loop $-1 $56 $57 $21 #
cone-surface $-1 -57.869865690348576 -29.262336347331988 10.366925132315647 0.57357644374324357 0 -0.81915203911291934 0.40957601955645967 0 0.28678822187162178 1 I I -0.70710678118654746 0.70710678118654746 0.5 forward I I I I #
loop $-1 $-1 $58 $14 #
coedge $-1 $36 $36 $59 $60 reversed $22 $-1 #
face $-1 $61 $62 $9 $-1 $63 reversed single #
loop $-1 $-1 $64 $24 #
plane-surface $-1 0 -34.421643508977596 0 0 1 0 0 0 1 forward_v I I I I #
coedge $-1 $65 $66 $67 $68 forward $25 $-1 #
coedge $-1 $69 $27 $70 $71 forward $16 $-1 #
coedge $-1 $27 $69 $72 $73 forward $16 $-1 #
coedge $-1 $74 $75 $27 $44 reversed $76 $-1 #
edge $-1 $77 -34.421643508977596 $78 34.421643508977596 $43 $79 forward 7 unknown #
face $-1 $80 $81 $10 $-1 $82 forward single #
loop $-1 $-1 $83 $28 #
plane-surface $-1 -62.912076174199655 0 0 1 0 0 0 0 -1 forward_v I I I I #
coedge $-1 $84 $85 $83 $86 reversed $29 $-1 #
coedge $-1 $50 $31 $85 $87 forward $19 $-1 #
coedge $-1 $31 $49 $88 $89 reversed $19 $-1 #
coedge $-1 $90 $83 $31 $52 forward $46 $-1 #
edge $-1 $91 -46.438714267811932 $92 -41.585280081583676 $51 $93 forward 7 unknown #
face $-1 $94 $95 $11 $-1 $96 forward single #
loop $-1 $-1 $97 $32 #
plane-surface $-1 -135.08184601520264 -24.103029185686381 113.26079339606791 0 -1 0 0.57357644374324357 0 -0.81915203911291934 forward_v I I I I #
loop $-1 $-1 $98 $21 #
coedge $-1 $57 $57 $58 $99 forward $33 $-1 #
coedge $-1 $58 $58 $57 $99 reversed $35 $-1 #
coedge $-1 $59 $59 $36 $60 forward $95 $-1 #
edge $-1 $100 0 $100 6.2831853071796004 $59 $101 forward 7 unknown #
face $-1 $102 $103 $9 $-1 $104 reversed single #
loop $-1 $-1 $105 $37 #
plane-surface $-1 -62.912076174199655 0 0 1 0 0 0 0 -1 forward_v I I I I #
coedge $-1 $106 $72 $107 $108 forward $38 $-1 #
coedge $-1 $109 $40 $106 $110 forward $25 $-1 #
coedge $-1 $40 $109 $111 $112 forward $25 $-1 #
coedge $-1 $75 $74 $40 $68 reversed $76 $-1 #
edge $-1 $113 -34.421643508977596 $114 34.421643508977596 $67 $115 forward 7 unknown #
coedge $-1 $42 $41 $116 $117 forward $16 $-1 #
coedge $-1 $118 $119 $41 $71 reversed $103 $-1 #
edge $-1 $78 -62.912076174199655 $120 62.912076174199655 $70 $121 forward 7 unknown #
coedge $-1 $64 $122 $42 $73 reversed $38 $-1 #
edge $-1 $123 -62.912076174199655 $77 62.912076174199655 $72 $124 forward 7 unknown #
coedge $-1 $67 $43 $122 $125 forward $76 $-1 #
coedge $-1 $43 $67 $118 $126 reversed $76 $-1 #
loop $-1 $-1 $74 $102 #
vertex $-1 $44 $127 #
vertex $-1 $44 $128 #
straight-curve $-1 62.912076174199655 0 15.045116616450276 0 1 0 I I #
face $-1 $129 $130 $10 $-1 $131 reversed single #
loop $-1 $-1 $88 $45 #
plane-surface $-1 0 0 15.045116616450276 0 0 1 1 0 0 forward_v I I I I #
coedge $-1 $51 $132 $48 $86 forward $46 $-1 #
coedge $-1 $133 $48 $134 $135 reversed $29 $-1 #
coedge $-1 $48 $133 $49 $87 reversed $29 $-1 #
edge $-1 $136 -19.790475335311601 $91 -9.471861012020387 $83 $137 forward 7 unknown #
edge $-1 $91 3.4489342061374355e-014 $138 8.4617041706839498 $49 $139 forward 7 unknown #
coedge $-1 $140 $141 $50 $89 forward $81 $-1 #
edge $-1 $92 4.628846833401667 $138 11.560269059187689 $88 $142 forward 7 unknown #
coedge $-1 $143 $51 $141 $144 reversed $46 $-1 #
vertex $-1 $86 $145 #
vertex $-1 $89 $146 #
straight-curve $-1 -62.912076174199655 -24.103029185686381 56.630396698033955 0 0 1 I I #
face $-1 $147 $148 $11 $-1 $149 reversed single #
loop $-1 $150 $59 $53 #
plane-surface $-1 -62.912076174199683 -29.262336347331988 10.191682430222002 -0.57357644374324357 0 0.81915203911291934 0.81915203911291934 0 0.57357644374324357 forward_v I I I I #
coedge $-1 $151 $152 $153 $154 reversed $54 $-1 #
coedge $-1 $98 $98 $-1 $155 forward $56 $-1 #
edge $-1 $156 0 $156 6.2831853071796004 $57 $157 forward 7 unknown #
vertex $-1 $60 $158 #
ellipse-curve $-1 -59.446365061306636 -29.262336347331988 12.618399523336155 0.57357644374324357 0 -0.81915203911291934 0.81915203911291934 0 0.57357644374324357 1 I I #
face $-1 $-1 $76 $9 $-1 $159 reversed single #
loop $-1 $-1 $118 $61 #
plane-surface $-1 0 34.421643508977596 0 0 -1 0 0 0 -1 forward_v I I I I #
coedge $-1 $160 $116 $119 $161 forward $62 $-1 #
coedge $-1 $122 $64 $65 $110 reversed $38 $-1 #
coedge $-1 $116 $160 $64 $108 reversed $62 $-1 #
edge $-1 $123 -15.045116616450276 $162 15.045116616450276 $107 $163 forward 7 unknown #
coedge $-1 $66 $65 $160 $164 forward $25 $-1 #
edge $-1 $114 -62.912076174199655 $162 62.912076174199655 $106 $165 forward 7 unknown #
coedge $-1 $119 $118 $66 $112 reversed $103 $-1 #
edge $-1 $166 -62.912076174199655 $113 62.912076174199655 $111 $167 forward 7 unknown #
vertex $-1 $68 $168 #
vertex $-1 $125 $169 #
straight-curve $-1 62.912076174199655 0 -15.045116616450276 0 -1 0 I I #
coedge $-1 $105 $107 $69 $117 reversed $62 $-1 #
edge $-1 $120 -34.421643508977596 $123 34.421643508977596 $116 $170 forward 7 unknown #
coedge $-1 $111 $70 $75 $126 forward $103 $-1 #
coedge $-1 $70 $111 $105 $161 reversed $103 $-1 #
vertex $-1 $71 $171 #
straight-curve $-1 0 34.421643508977596 15.045116616450276 -1 0 0 I I #
coedge $-1 $72 $106 $74 $125 reversed $38 $-1 #
vertex $-1 $117 $172 #
straight-curve $-1 0 -34.421643508977596 15.045116616450276 1 0 0 I I #
edge $-1 $77 -15.045116616450276 $114 15.045116616450276 $74 $173 forward 7 unknown #
edge $-1 $78 -15.045116616450276 $113 15.045116616450276 $75 $174 forward 7 unknown #
point $-1 62.912076174199655 -34.421643508977596 15.045116616450276 #
point $-1 62.912076174199655 34.421643508977596 15.045116616450276 #
face $-1 $175 $176 $10 $-1 $177 reversed single #
loop $-1 $-1 $178 $80 #
plane-surface $-1 0 0 -15.045116616450276 0 0 1 1 0 0 forward_v I I I I #
coedge $-1 $83 $179 $180 $181 reversed $46 $-1 #
coedge $-1 $85 $84 $140 $182 reversed $29 $-1 #
coedge $-1 $180 $183 $84 $135 forward $176 $-1 #
edge $-1 $184 14.382719088733921 $136 22.844423259417837 $134 $185 forward 7 unknown #
vertex $-1 $181 $186 #
straight-curve $-1 -62.912076174199655 -14.631168173665994 10.19168243022202 0 1 0 I I #
vertex $-1 $182 $187 #
straight-curve $-1 -62.912076174199683 -24.103029185686381 10.191682430222002 0.81915203911291934 0 0.57357644374324357 I I #
coedge $-1 $188 $88 $133 $182 forward $81 $-1 #
coedge $-1 $88 $189 $90 $144 forward $81 $-1 #
straight-curve $-1 -67.540923007601322 -24.103029185686381 15.045116616450272 1 0 0 I I #
coedge $-1 $179 $90 $190 $191 forward $46 $-1 #
edge $-1 $192 -34.421643508977596 $92 24.103029185686381 $90 $193 forward 7 unknown #
point $-1 -62.912076174199655 -24.103029185686381 10.191682430222022 #
point $-1 -62.912076174199655 -24.103029185686381 15.045116616450276 #
face $-1 $194 $195 $11 $-1 $196 forward single #
loop $-1 $-1 $197 $94 #
plane-surface $-1 -62.912076174199655 0 0 1 0 0 0 0 -1 forward_v I I I I #
loop $-1 $-1 $198 $53 #
coedge $-1 $152 $97 $199 $200 forward $54 $-1 #
coedge $-1 $97 $151 $201 $202 reversed $54 $-1 #
coedge $-1 $203 $197 $97 $154 forward $148 $-1 #
edge $-1 $204 -46.438714267811932 $205 -41.585280081583676 $153 $206 forward 7 unknown #
edge $-1 $207 1 $207 0 $98 $-1 forward 7 unknown #
vertex $-1 $99 $208 #
ellipse-curve $-1 -58.1566539122202 -29.262336347331988 10.776501151872106 -0.57357644374324357 0 0.81915203911291934 0.81915203911291934 0 0.57357644374324357 1 I I #
point $-1 -58.6272130221937 -29.262336347331988 13.191975967079374 #
plane-surface $-1 62.912076174199655 0 0 -1 0 0 0 0 1 forward_v I I I I #
coedge $-1 $107 $105 $109 $164 reversed $62 $-1 #
edge $-1 $120 -15.045116616450276 $166 15.045116616450276 $119 $209 forward 7 unknown #
vertex $-1 $164 $210 #
straight-curve $-1 -62.912076174199655 -34.421643508977596 0 0 0 -1 I I #
edge $-1 $162 -34.421643508977596 $166 34.421643508977596 $160 $211 forward 7 unknown #
straight-curve $-1 0 -34.421643508977596 -15.045116616450276 -1 0 0 I I #
vertex $-1 $112 $212 #
straight-curve $-1 0 34.421643508977596 -15.045116616450276 1 0 0 I I #
point $-1 62.912076174199655 34.421643508977596 -15.045116616450276 #
point $-1 62.912076174199655 -34.421643508977596 -15.045116616450276 #
straight-curve $-1 -62.912076174199655 0 15.045116616450276 0 -1 0 I I #
point $-1 -62.912076174199655 34.421643508977596 15.045116616450276 #
point $-1 -62.912076174199655 -34.421643508977596 15.045116616450276 #
straight-curve $-1 62.912076174199655 -34.421643508977596 0 0 0 -1 I I #
straight-curve $-1 62.912076174199655 34.421643508977596 0 0 0 -1 I I #
face $-1 $213 $214 $10 $-1 $215 reversed single #
loop $-1 $-1 $134 $129 #
plane-surface $-1 0 -34.421643508977596 0 0 1 0 0 0 1 forward_v I I I I #
coedge $-1 $216 $217 $218 $219 forward $130 $-1 #
coedge $-1 $132 $143 $220 $221 reversed $46 $-1 #
coedge $-1 $222 $134 $132 $181 forward $176 $-1 #
edge $-1 $136 -10.191682430222022 $223 15.045116616450276 $132 $224 forward 7 unknown #
edge $-1 $138 9.471861012020387 $184 19.790475335311601 $140 $225 forward 7 unknown #
coedge $-1 $134 $226 $188 $227 reversed $176 $-1 #
vertex $-1 $227 $228 #
straight-curve $-1 -44.199020278888931 -34.421643508977596 23.294705482724343 -0.81915203911291934 0 -0.57357644374324357 I I #
point $-1 -62.912076174199655 -34.421643508977596 10.191682430222022 #
point $-1 -55.980653948413632 -24.103029185686381 15.045116616450276 #
coedge $-1 $229 $140 $183 $227 forward $81 $-1 #
coedge $-1 $141 $229 $230 $231 forward $81 $-1 #
coedge $-1 $230 $232 $143 $191 reversed $214 $-1 #
edge $-1 $192 -15.045116616450276 $233 15.045116616450276 $190 $234 forward 7 unknown #
vertex $-1 $231 $235 #
straight-curve $-1 -62.912076174199655 0 15.045116616450276 0 -1 0 I I #
face $-1 $236 $237 $11 $-1 $238 reversed single #
loop $-1 $-1 $201 $147 #
plane-surface $-1 0 0 15.045116616450276 0 0 1 1 0 0 forward_v I I I I #
coedge $-1 $153 $239 $198 $240 forward $148 $-1 #
coedge $-1 $241 $199 $197 $240 reversed $150 $-1 #
coedge $-1 $198 $242 $151 $200 reversed $150 $-1 #
edge $-1 $204 3.4489342061374355e-014 $243 8.4617041706839498 $151 $244 forward 7 unknown #
coedge $-1 $245 $246 $152 $202 forward $195 $-1 #
edge $-1 $205 4.628846833401667 $243 11.560269059187689 $201 $247 forward 7 unknown #
coedge $-1 $248 $153 $246 $249 reversed $148 $-1 #
vertex $-1 $240 $250 #
vertex $-1 $202 $251 #
straight-curve $-1 -62.912076174199655 -24.103029185686381 56.630396698033955 0 0 1 I I #
vertex $-1 $155 $252 #
point $-1 -57.337501873107279 -29.262336347331988 11.35007759561535 #
straight-curve $-1 -62.912076174199655 34.421643508977596 0 0 0 -1 I I #
point $-1 -62.912076174199655 -34.421643508977596 -15.045116616450276 #
straight-curve $-1 -62.912076174199655 0 -15.045116616450276 0 1 0 I I #
point $-1 -62.912076174199655 34.421643508977596 -15.045116616450276 #
face $-1 $-1 $253 $10 $-1 $254 reversed single #
loop $-1 $-1 $255 $175 #
plane-surface $-1 0 34.421643508977596 0 0 -1 0 0 0 -1 forward_v I I I I #
coedge $-1 $220 $178 $222 $256 forward $130 $-1 #
coedge $-1 $178 $220 $232 $257 forward $130 $-1 #
coedge $-1 $258 $259 $178 $219 reversed $253 $-1 #
edge $-1 $260 -34.421643508977596 $261 34.421643508977596 $218 $262 forward 7 unknown #
coedge $-1 $217 $216 $179 $221 forward $130 $-1 #
edge $-1 $223 -34.421643508977596 $233 34.421643508977596 $179 $263 forward 7 unknown #
coedge $-1 $226 $180 $216 $256 reversed $176 $-1 #
vertex $-1 $221 $264 #
straight-curve $-1 -62.912076174199655 -34.421643508977596 0 0 0 -1 I I #
straight-curve $-1 -55.980653948413625 -14.631168173665994 15.045116616450278 0 -1 0 I I #
coedge $-1 $183 $222 $259 $265 reversed $176 $-1 #
edge $-1 $184 -55.980653948413632 $266 62.912076174199655 $183 $267 forward 7 unknown #
point $-1 -55.980653948413632 -34.421643508977596 15.045116616450276 #
coedge $-1 $189 $188 $268 $269 forward $81 $-1 #
coedge $-1 $255 $190 $189 $231 reversed $214 $-1 #
edge $-1 $270 -62.912076174199655 $192 62.912076174199655 $230 $271 forward 7 unknown #
coedge $-1 $190 $255 $217 $257 reversed $214 $-1 #
vertex $-1 $257 $272 #
straight-curve $-1 -62.912076174199655 34.421643508977596 0 0 0 -1 I I #
point $-1 -62.912076174199655 34.421643508977596 15.045116616450276 #
face $-1 $273 $274 $11 $-1 $275 reversed single #
loop $-1 $-1 $276 $194 #
plane-surface $-1 0 0 -15.045116616450276 0 0 1 1 0 0 forward_v I I I I #
coedge $-1 $197 $277 $278 $279 reversed $148 $-1 #
edge $-1 $280 -19.790475335311601 $204 -9.471861012020387 $197 $281 forward 7 unknown #
coedge $-1 $242 $198 $282 $283 reversed $150 $-1 #
coedge $-1 $199 $241 $245 $284 reversed $150 $-1 #
vertex $-1 $284 $285 #
straight-curve $-1 -62.912076174199683 -24.103029185686381 10.191682430222002 0.81915203911291934 0 0.57357644374324357 I I #
coedge $-1 $286 $201 $242 $284 forward $195 $-1 #
coedge $-1 $201 $287 $203 $249 forward $195 $-1 #
straight-curve $-1 -67.540923007601322 -24.103029185686381 15.045116616450272 1 0 0 I I #
coedge $-1 $277 $203 $288 $289 forward $148 $-1 #
edge $-1 $290 -34.421643508977596 $205 24.103029185686381 $203 $291 forward 7 unknown #
point $-1 -62.912076174199655 -24.103029185686381 10.191682430222022 #
point $-1 -62.912076174199655 -24.103029185686381 15.045116616450276 #
point $-1 -57.583077468476951 -29.262336347331988 9.9573491127591875 #
loop $-1 $-1 $259 $213 #
plane-surface $-1 62.912076174199655 0 0 -1 0 0 0 0 1 forward_v I I I I #
coedge $-1 $232 $230 $258 $292 forward $214 $-1 #
edge $-1 $261 -62.912076174199655 $223 62.912076174199655 $222 $293 forward 7 unknown #
edge $-1 $233 -62.912076174199655 $260 62.912076174199655 $232 $294 forward 7 unknown #
coedge $-1 $268 $218 $255 $292 reversed $253 $-1 #
coedge $-1 $218 $268 $226 $265 forward $253 $-1 #
vertex $-1 $219 $295 #
vertex $-1 $265 $296 #
straight-curve $-1 62.912076174199655 0 -15.045116616450276 0 -1 0 I I #
straight-curve $-1 -62.912076174199655 0 -15.045116616450276 0 1 0 I I #
point $-1 -62.912076174199655 -34.421643508977596 -15.045116616450276 #
edge $-1 $266 -15.045116616450276 $261 15.045116616450276 $259 $297 forward 7 unknown #
vertex $-1 $269 $298 #
straight-curve $-1 0 -34.421643508977596 15.045116616450276 1 0 0 I I #
coedge $-1 $259 $258 $229 $269 reversed $253 $-1 #
edge $-1 $266 -34.421643508977596 $270 34.421643508977596 $268 $299 forward 7 unknown #
vertex $-1 $269 $300 #
straight-curve $-1 0 34.421643508977596 15.045116616450276 -1 0 0 I I #
point $-1 -62.912076174199655 34.421643508977596 -15.045116616450276 #
face $-1 $301 $302 $11 $-1 $303 reversed single #
loop $-1 $-1 $282 $236 #
plane-surface $-1 0 -34.421643508977596 0 0 1 0 0 0 1 forward_v I I I I #
coedge $-1 $304 $305 $306 $307 forward $237 $-1 #
coedge $-1 $239 $248 $308 $309 reversed $148 $-1 #
coedge $-1 $310 $282 $239 $279 forward $274 $-1 #
edge $-1 $280 -10.191682430222022 $311 15.045116616450276 $239 $312 forward 7 unknown #
vertex $-1 $279 $313 #
straight-curve $-1 -62.912076174199655 -14.631168173665994 10.19168243022202 0 1 0 I I #
coedge $-1 $278 $314 $241 $283 forward $274 $-1 #
edge $-1 $315 14.382719088733921 $280 22.844423259417837 $282 $316 forward 7 unknown #
edge $-1 $243 9.471861012020387 $315 19.790475335311601 $245 $317 forward 7 unknown #
point $-1 -55.980653948413632 -24.103029185686381 15.045116616450276 #
coedge $-1 $318 $245 $314 $319 forward $195 $-1 #
coedge $-1 $246 $318 $320 $321 forward $195 $-1 #
coedge $-1 $320 $322 $248 $289 reversed $302 $-1 #
edge $-1 $290 -15.045116616450276 $323 15.045116616450276 $288 $324 forward 7 unknown #
vertex $-1 $321 $325 #
straight-curve $-1 -62.912076174199655 0 15.045116616450276 0 -1 0 I I #
edge $-1 $270 -15.045116616450276 $260 15.045116616450276 $258 $326 forward 7 unknown #
straight-curve $-1 0 -34.421643508977596 -15.045116616450276 -1 0 0 I I #
straight-curve $-1 0 34.421643508977596 -15.045116616450276 1 0 0 I I #
point $-1 62.912076174199655 34.421643508977596 -15.045116616450276 #
point $-1 62.912076174199655 -34.421643508977596 -15.045116616450276 #
straight-curve $-1 62.912076174199655 -34.421643508977596 0 0 0 -1 I I #
point $-1 62.912076174199655 -34.421643508977596 15.045116616450276 #
straight-curve $-1 62.912076174199655 0 15.045116616450276 0 1 0 I I #
point $-1 62.912076174199655 34.421643508977596 15.045116616450276 #
face $-1 $-1 $327 $11 $-1 $328 reversed single #
loop $-1 $-1 $329 $273 #
plane-surface $-1 0 34.421643508977596 0 0 -1 0 0 0 -1 forward_v I I I I #
coedge $-1 $308 $276 $310 $330 forward $237 $-1 #
coedge $-1 $276 $308 $322 $331 forward $237 $-1 #
coedge $-1 $332 $333 $276 $307 reversed $327 $-1 #
edge $-1 $334 -34.421643508977596 $335 34.421643508977596 $306 $336 forward 7 unknown #
coedge $-1 $305 $304 $277 $309 forward $237 $-1 #
edge $-1 $311 -34.421643508977596 $323 34.421643508977596 $277 $337 forward 7 unknown #
coedge $-1 $338 $278 $304 $330 reversed $274 $-1 #
vertex $-1 $309 $339 #
straight-curve $-1 -62.912076174199655 -34.421643508977596 0 0 0 -1 I I #
point $-1 -62.912076174199655 -34.421643508977596 10.191682430222022 #
coedge $-1 $282 $338 $286 $319 reversed $274 $-1 #
vertex $-1 $319 $340 #
straight-curve $-1 -44.199020278888931 -34.421643508977596 23.294705482724343 -0.81915203911291934 0 -0.57357644374324357 I I #
straight-curve $-1 -55.980653948413625 -14.631168173665994 15.045116616450278 0 -1 0 I I #
coedge $-1 $287 $286 $341 $342 forward $195 $-1 #
edge $-1 $315 -55.980653948413632 $343 62.912076174199655 $314 $344 forward 7 unknown #
coedge $-1 $329 $288 $287 $321 reversed $302 $-1 #
edge $-1 $345 -62.912076174199655 $290 62.912076174199655 $320 $346 forward 7 unknown #
coedge $-1 $288 $329 $305 $331 reversed $302 $-1 #
vertex $-1 $331 $347 #
straight-curve $-1 -62.912076174199655 34.421643508977596 0 0 0 -1 I I #
point $-1 -62.912076174199655 34.421643508977596 15.045116616450276 #
straight-curve $-1 62.912076174199655 34.421643508977596 0 0 0 -1 I I #
loop $-1 $-1 $333 $301 #
plane-surface $-1 62.912076174199655 0 0 -1 0 0 0 0 1 forward_v I I I I #
coedge $-1 $322 $320 $332 $348 forward $302 $-1 #
edge $-1 $335 -62.912076174199655 $311 62.912076174199655 $310 $349 forward 7 unknown #
edge $-1 $323 -62.912076174199655 $334 62.912076174199655 $322 $350 forward 7 unknown #
coedge $-1 $341 $306 $329 $348 reversed $327 $-1 #
coedge $-1 $306 $341 $338 $351 forward $327 $-1 #
vertex $-1 $307 $352 #
vertex $-1 $351 $353 #
straight-curve $-1 62.912076174199655 0 -15.045116616450276 0 -1 0 I I #
straight-curve $-1 -62.912076174199655 0 -15.045116616450276 0 1 0 I I #
coedge $-1 $314 $310 $333 $351 reversed $274 $-1 #
point $-1 -62.912076174199655 -34.421643508977596 -15.045116616450276 #
point $-1 -55.980653948413632 -34.421643508977596 15.045116616450276 #
coedge $-1 $333 $332 $318 $342 reversed $327 $-1 #
edge $-1 $343 -34.421643508977596 $345 34.421643508977596 $341 $354 forward 7 unknown #
vertex $-1 $342 $355 #
straight-curve $-1 0 -34.421643508977596 15.045116616450276 1 0 0 I I #
vertex $-1 $342 $356 #
straight-curve $-1 0 34.421643508977596 15.045116616450276 -1 0 0 I I #
point $-1 -62.912076174199655 34.421643508977596 -15.045116616450276 #
edge $-1 $345 -15.045116616450276 $334 15.045116616450276 $332 $357 forward 7 unknown #
straight-curve $-1 0 -34.421643508977596 -15.045116616450276 -1 0 0 I I #
straight-curve $-1 0 34.421643508977596 -15.045116616450276 1 0 0 I I #
edge $-1 $343 -15.045116616450276 $335 15.045116616450276 $333 $358 forward 7 unknown #
point $-1 62.912076174199655 34.421643508977596 -15.045116616450276 #
point $-1 62.912076174199655 -34.421643508977596 -15.045116616450276 #
straight-curve $-1 62.912076174199655 0 15.045116616450276 0 1 0 I I #
point $-1 62.912076174199655 -34.421643508977596 15.045116616450276 #
point $-1 62.912076174199655 34.421643508977596 15.045116616450276 #
straight-curve $-1 62.912076174199655 34.421643508977596 0 0 0 -1 I I #
straight-curve $-1 62.912076174199655 -34.421643508977596 0 0 0 -1 I I #
End-of-ACIS-data 