500 0 3 0           
7 Unknown 11 ACIS 5.0 NT 24 Fri Mar 26 15:04:10 1999 
-1 9.9999999999999995e-007 1e-010 
body $-1 $3 $-1 $4 #
body $-1 $5 $-1 $6 #
body $-1 $7 $-1 $8 #
lump $-1 $-1 $9 $0 #
transform $-1 1 0 0 0 1 0 0 0 1 58.192693868831448 24.366625497864565 11.568253819238267 1 rotate no_reflect no_shear #
lump $-1 $-1 $10 $1 #
transform $-1 1 0 0 0 1 0 0 0 1 58.192693868831448 24.366625497864565 11.568253819238267 1 rotate no_reflect no_shear #
lump $-1 $-1 $11 $2 #
transform $-1 1 0 0 0 1 0 0 0 1 58.192693868831448 24.366625497864565 11.568253819238267 1 rotate no_reflect no_shear #
shell $-1 $-1 $-1 $12 $-1 $3 #
shell $-1 $-1 $-1 $13 $-1 $5 #
shell $-1 $-1 $-1 $14 $-1 $7 #
face $-1 $15 $16 $9 $-1 $17 forward single #
face $-1 $18 $19 $10 $-1 $20 reversed single #
face $-1 $21 $22 $11 $-1 $23 reversed single #
face $-1 $24 $25 $9 $-1 $26 reversed single #
loop $-1 $-1 $27 $12 #
plane-surface $-1 0 0 11.568253819238267 0 0 1 1 0 0 forward_v I I I I #
face $-1 $28 $29 $10 $-1 $30 reversed single #
loop $-1 $-1 $31 $13 #
plane-surface $-1 -56.07798444923688 -34.386766143408686 0 0 1 0 0 0 1 forward_v I I I I #
face $-1 $32 $33 $11 $-1 $34 forward single #
loop $-1 $-1 $35 $14 #
plane-surface $-1 0 17.091345834217289 -5.8573133171855281 0 0 1 1 0 0 forward_v I I I I #
face $-1 $36 $37 $9 $-1 $38 reversed single #
loop $-1 $-1 $39 $15 #
plane-surface $-1 0 0 -11.568253819238267 0 0 1 1 0 0 forward_v I I I I #
coedge $-1 $40 $41 $42 $43 forward $16 $-1 #
face $-1 $44 $45 $10 $-1 $46 reversed single #
loop $-1 $-1 $47 $18 #
plane-surface $-1 -53.963275029642311 -29.376695820636623 0 -1 0 0 0 0 1 forward_v I I I I #
coedge $-1 $48 $49 $50 $51 forward $19 $-1 #
face $-1 $52 $53 $11 $-1 $54 reversed single #
loop $-1 $-1 $55 $21 #
plane-surface $-1 0 9.8160661705700107 -8.712783568211897 0 1 0 0 0 1 forward_v I I I I #
coedge $-1 $56 $57 $58 $59 reversed $22 $-1 #
face $-1 $60 $61 $9 $-1 $62 reversed single #
loop $-1 $-1 $63 $24 #
plane-surface $-1 0 -24.366625497864565 0 0 1 0 0 0 1 forward_v I I I I #
coedge $-1 $64 $65 $66 $67 forward $25 $-1 #
coedge $-1 $68 $27 $69 $70 forward $16 $-1 #
coedge $-1 $27 $68 $71 $72 forward $16 $-1 #
coedge $-1 $73 $74 $27 $43 reversed $75 $-1 #
edge $-1 $76 -24.366625497864565 $77 24.366625497864565 $42 $78 forward 7 unknown #
face $-1 $79 $80 $10 $-1 $81 forward single #
loop $-1 $-1 $82 $28 #
plane-surface $-1 0 -24.366625497864565 0 0 1 0 0 0 1 forward_v I I I I #
coedge $-1 $83 $84 $85 $86 forward $29 $-1 #
coedge $-1 $85 $31 $87 $88 reversed $19 $-1 #
coedge $-1 $31 $85 $89 $90 reversed $19 $-1 #
coedge $-1 $91 $92 $31 $51 reversed $93 $-1 #
edge $-1 $94 -11.568253819238267 $95 11.568253819238267 $50 $96 forward 7 unknown #
face $-1 $97 $98 $11 $-1 $99 reversed single #
loop $-1 $-1 $100 $32 #
plane-surface $-1 0 24.366625497864565 0 0 -1 0 0 0 -1 forward_v I I I I #
coedge $-1 $101 $102 $103 $104 reversed $33 $-1 #
coedge $-1 $105 $35 $101 $106 reversed $22 $-1 #
coedge $-1 $35 $105 $100 $107 reversed $22 $-1 #
coedge $-1 $108 $109 $35 $59 forward $110 $-1 #
edge $-1 $111 1.270393253461366 $112 15.820952580755923 $58 $113 forward 7 unknown #
face $-1 $114 $115 $9 $-1 $116 reversed single #
loop $-1 $-1 $117 $36 #
plane-surface $-1 -58.192693868831448 0 0 1 0 0 0 0 -1 forward_v I I I I #
coedge $-1 $118 $71 $119 $120 forward $37 $-1 #
coedge $-1 $121 $39 $118 $122 forward $25 $-1 #
coedge $-1 $39 $121 $123 $124 forward $25 $-1 #
coedge $-1 $74 $73 $39 $67 reversed $75 $-1 #
edge $-1 $125 -24.366625497864565 $126 24.366625497864565 $66 $127 forward 7 unknown #
coedge $-1 $41 $40 $128 $129 forward $16 $-1 #
coedge $-1 $130 $131 $40 $70 reversed $115 $-1 #
edge $-1 $77 -58.192693868831448 $132 58.192693868831448 $69 $133 forward 7 unknown #
coedge $-1 $63 $134 $41 $72 reversed $37 $-1 #
edge $-1 $135 -58.192693868831448 $76 58.192693868831448 $71 $136 forward 7 unknown #
coedge $-1 $66 $42 $134 $137 forward $75 $-1 #
coedge $-1 $42 $66 $130 $138 reversed $75 $-1 #
loop $-1 $-1 $73 $114 #
vertex $-1 $43 $139 #
vertex $-1 $43 $140 #
straight-curve $-1 58.192693868831448 0 11.568253819238267 0 1 0 I I #
face $-1 $141 $142 $10 $-1 $143 reversed single #
loop $-1 $-1 $144 $44 #
plane-surface $-1 0 0 11.568253819238267 0 0 1 1 0 0 forward_v I I I I #
coedge $-1 $145 $146 $147 $148 forward $45 $-1 #
coedge $-1 $147 $47 $149 $150 reversed $29 $-1 #
coedge $-1 $47 $147 $151 $152 reversed $29 $-1 #
coedge $-1 $49 $48 $47 $86 reversed $19 $-1 #
edge $-1 $153 -11.568253819238267 $154 11.568253819238267 $47 $155 forward 7 unknown #
coedge $-1 $156 $149 $48 $88 forward $142 $-1 #
edge $-1 $154 -2.1147094195945684 $95 2.1147094195945684 $48 $157 forward 7 unknown #
coedge $-1 $151 $158 $49 $90 forward $80 $-1 #
edge $-1 $94 -2.1147094195945684 $153 2.1147094195945684 $49 $159 forward 7 unknown #
coedge $-1 $160 $50 $158 $161 reversed $93 $-1 #
coedge $-1 $50 $160 $156 $162 reversed $93 $-1 #
loop $-1 $-1 $160 $141 #
vertex $-1 $161 $163 #
vertex $-1 $162 $164 #
straight-curve $-1 -58.192693868831448 -34.386766143408686 0 0 0 -1 I I #
face $-1 $165 $166 $11 $-1 $167 reversed single #
loop $-1 $-1 $168 $52 #
plane-surface $-1 -58.192693868831448 0 0 1 0 0 0 0 -1 forward_v I I I I #
coedge $-1 $169 $170 $57 $107 forward $53 $-1 #
coedge $-1 $171 $55 $56 $106 forward $33 $-1 #
coedge $-1 $55 $171 $172 $173 reversed $33 $-1 #
coedge $-1 $174 $168 $55 $104 forward $98 $-1 #
edge $-1 $175 1.5009215330795795 $176 7.2118620351323166 $103 $177 forward 7 unknown #
coedge $-1 $57 $56 $168 $178 reversed $22 $-1 #
edge $-1 $175 -58.192693868831448 $111 58.192693868831448 $101 $179 forward 7 unknown #
edge $-1 $112 -58.192693868831448 $180 58.192693868831448 $100 $181 forward 7 unknown #
coedge $-1 $182 $58 $170 $183 reversed $110 $-1 #
coedge $-1 $58 $184 $171 $185 forward $110 $-1 #
loop $-1 $-1 $58 $186 #
vertex $-1 $59 $187 #
vertex $-1 $107 $188 #
straight-curve $-1 58.192693868831448 8.5456729171086447 -5.8573133171855281 0 1 0 I I #
face $-1 $-1 $75 $9 $-1 $189 reversed single #
loop $-1 $-1 $130 $60 #
plane-surface $-1 0 24.366625497864565 0 0 -1 0 0 0 -1 forward_v I I I I #
coedge $-1 $190 $128 $131 $191 forward $61 $-1 #
coedge $-1 $134 $63 $64 $122 reversed $37 $-1 #
coedge $-1 $128 $190 $63 $120 reversed $61 $-1 #
edge $-1 $135 -11.568253819238267 $192 11.568253819238267 $119 $193 forward 7 unknown #
coedge $-1 $65 $64 $190 $194 forward $25 $-1 #
edge $-1 $126 -58.192693868831448 $192 58.192693868831448 $118 $195 forward 7 unknown #
coedge $-1 $131 $130 $65 $124 reversed $115 $-1 #
edge $-1 $196 -58.192693868831448 $125 58.192693868831448 $123 $197 forward 7 unknown #
vertex $-1 $67 $198 #
vertex $-1 $137 $199 #
straight-curve $-1 58.192693868831448 0 -11.568253819238267 0 -1 0 I I #
coedge $-1 $117 $119 $68 $129 reversed $61 $-1 #
edge $-1 $132 -24.366625497864565 $135 24.366625497864565 $128 $200 forward 7 unknown #
coedge $-1 $123 $69 $74 $138 forward $115 $-1 #
coedge $-1 $69 $123 $117 $191 reversed $115 $-1 #
vertex $-1 $70 $201 #
straight-curve $-1 0 24.366625497864565 11.568253819238267 -1 0 0 I I #
coedge $-1 $71 $118 $73 $137 reversed $37 $-1 #
vertex $-1 $129 $202 #
straight-curve $-1 0 -24.366625497864565 11.568253819238267 1 0 0 I I #
edge $-1 $76 -11.568253819238267 $126 11.568253819238267 $73 $203 forward 7 unknown #
edge $-1 $77 -11.568253819238267 $125 11.568253819238267 $74 $204 forward 7 unknown #
point $-1 58.192693868831448 -24.366625497864565 11.568253819238267 #
point $-1 58.192693868831448 24.366625497864565 11.568253819238267 #
face $-1 $205 $93 $10 $-1 $206 reversed single #
loop $-1 $-1 $207 $79 #
plane-surface $-1 0 0 -11.568253819238267 0 0 1 1 0 0 forward_v I I I I #
coedge $-1 $208 $209 $210 $211 forward $80 $-1 #
coedge $-1 $212 $82 $213 $214 reversed $45 $-1 #
coedge $-1 $82 $212 $209 $215 reversed $45 $-1 #
coedge $-1 $84 $83 $82 $148 reversed $29 $-1 #
edge $-1 $216 -11.568253819238267 $217 11.568253819238267 $82 $218 forward 7 unknown #
coedge $-1 $87 $213 $83 $150 forward $142 $-1 #
edge $-1 $217 -5.0100703227720587 $154 5.0100703227720622 $83 $219 forward 7 unknown #
coedge $-1 $209 $89 $84 $152 forward $80 $-1 #
edge $-1 $153 -5.0100703227720622 $216 5.0100703227720587 $84 $220 forward 7 unknown #
vertex $-1 $152 $221 #
vertex $-1 $86 $222 #
straight-curve $-1 -53.963275029642311 -34.386766143408686 0 0 0 -1 I I #
coedge $-1 $223 $87 $92 $162 forward $142 $-1 #
straight-curve $-1 -56.07798444923688 -34.386766143408686 -11.568253819238267 -1 0 0 I I #
coedge $-1 $89 $208 $91 $161 forward $80 $-1 #
straight-curve $-1 -56.07798444923688 -34.386766143408686 11.568253819238267 1 0 0 I I #
coedge $-1 $92 $91 $224 $225 forward $93 $-1 #
edge $-1 $226 -24.366625497864565 $94 34.386766143408686 $91 $227 forward 7 unknown #
edge $-1 $95 -34.386766143408686 $228 24.366625497864565 $92 $229 forward 7 unknown #
point $-1 -58.192693868831448 -34.386766143408686 11.568253819238267 #
point $-1 -58.192693868831448 -34.386766143408686 -11.568253819238267 #
face $-1 $230 $231 $11 $-1 $232 reversed single #
loop $-1 $-1 $233 $97 #
plane-surface $-1 -56.07798444923688 -34.386766143408686 0 0 1 0 0 0 1 forward_v I I I I #
coedge $-1 $103 $234 $105 $178 forward $98 $-1 #
coedge $-1 $235 $100 $234 $236 reversed $53 $-1 #
coedge $-1 $100 $235 $108 $183 forward $53 $-1 #
coedge $-1 $102 $101 $109 $185 reversed $33 $-1 #
coedge $-1 $237 $238 $102 $173 forward $239 $-1 #
edge $-1 $176 -58.192693868831448 $240 58.192693868831448 $172 $241 forward 7 unknown #
coedge $-1 $242 $103 $238 $243 reversed $98 $-1 #
vertex $-1 $178 $244 #
vertex $-1 $104 $245 #
straight-curve $-1 -58.192693868831448 9.8160661705700107 -4.3563917841059485 0 0 -1 I I #
edge $-1 $180 -15.820952580755923 $175 -1.270393253461366 $168 $246 forward 7 unknown #
straight-curve $-1 0 9.8160661705700107 -5.8573133171855281 1 0 0 I I #
vertex $-1 $178 $247 #
straight-curve $-1 0 24.366625497864565 -5.8573133171855281 -1 0 0 I I #
coedge $-1 $248 $108 $249 $250 reversed $110 $-1 #
edge $-1 $251 -11.568253819238267 $112 5.8573133171855281 $108 $252 forward 7 unknown #
coedge $-1 $109 $248 $237 $253 reversed $110 $-1 #
edge $-1 $240 -7.2118620351323166 $111 -1.5009215330795795 $109 $254 forward 7 unknown #
face $-1 $-1 $110 $11 $-1 $255 reversed single #
point $-1 58.192693868831448 9.8160661705700107 -5.8573133171855281 #
point $-1 58.192693868831448 24.366625497864568 -5.8573133171855281 #
plane-surface $-1 58.192693868831448 0 0 -1 0 0 0 0 1 forward_v I I I I #
coedge $-1 $119 $117 $121 $194 reversed $61 $-1 #
edge $-1 $132 -11.568253819238267 $196 11.568253819238267 $131 $256 forward 7 unknown #
vertex $-1 $194 $257 #
straight-curve $-1 -58.192693868831448 -24.366625497864565 0 0 0 -1 I I #
edge $-1 $192 -24.366625497864565 $196 24.366625497864565 $190 $258 forward 7 unknown #
straight-curve $-1 0 -24.366625497864565 -11.568253819238267 -1 0 0 I I #
vertex $-1 $124 $259 #
straight-curve $-1 0 24.366625497864565 -11.568253819238267 1 0 0 I I #
point $-1 58.192693868831448 24.366625497864565 -11.568253819238267 #
point $-1 58.192693868831448 -24.366625497864565 -11.568253819238267 #
straight-curve $-1 -58.192693868831448 0 11.568253819238267 0 -1 0 I I #
point $-1 -58.192693868831448 24.366625497864565 11.568253819238267 #
point $-1 -58.192693868831448 -24.366625497864565 11.568253819238267 #
straight-curve $-1 58.192693868831448 -24.366625497864565 0 0 0 -1 I I #
straight-curve $-1 58.192693868831448 24.366625497864565 0 0 0 -1 I I #
face $-1 $260 $261 $10 $-1 $262 reversed single #
plane-surface $-1 -58.192693868831448 0 0 1 0 0 0 0 -1 forward_v I I I I #
coedge $-1 $213 $223 $263 $264 forward $142 $-1 #
coedge $-1 $158 $144 $265 $266 forward $80 $-1 #
coedge $-1 $144 $151 $146 $215 forward $80 $-1 #
coedge $-1 $267 $268 $144 $211 reversed $269 $-1 #
edge $-1 $270 -24.366625497864565 $271 24.366625497864565 $210 $272 forward 7 unknown #
coedge $-1 $146 $145 $267 $273 reversed $45 $-1 #
coedge $-1 $149 $207 $145 $214 forward $142 $-1 #
edge $-1 $274 -58.192693868831448 $217 53.963275029642311 $145 $275 forward 7 unknown #
edge $-1 $216 -53.963275029642311 $270 58.192693868831448 $146 $276 forward 7 unknown #
vertex $-1 $215 $277 #
vertex $-1 $150 $278 #
straight-curve $-1 -53.963275029642311 -24.366625497864565 0 0 0 -1 I I #
straight-curve $-1 -53.963275029642311 -29.376695820636623 -11.568253819238267 0 -1 0 I I #
straight-curve $-1 -53.963275029642311 -29.376695820636623 11.568253819238267 0 1 0 I I #
point $-1 -53.963275029642311 -34.386766143408686 11.568253819238267 #
point $-1 -53.963275029642311 -34.386766143408686 -11.568253819238267 #
coedge $-1 $207 $156 $279 $280 forward $142 $-1 #
coedge $-1 $265 $279 $160 $225 reversed $261 $-1 #
edge $-1 $226 -11.568253819238267 $228 11.568253819238267 $224 $281 forward 7 unknown #
vertex $-1 $266 $282 #
straight-curve $-1 -58.192693868831448 0 11.568253819238267 0 -1 0 I I #
vertex $-1 $280 $283 #
straight-curve $-1 -58.192693868831448 0 -11.568253819238267 0 1 0 I I #
face $-1 $284 $285 $11 $-1 $286 reversed single #
loop $-1 $-1 $287 $165 #
plane-surface $-1 -53.963275029642311 -29.376695820636623 0 -1 0 0 0 0 1 forward_v I I I I #
coedge $-1 $288 $289 $242 $290 forward $166 $-1 #
coedge $-1 $168 $291 $169 $236 forward $98 $-1 #
coedge $-1 $170 $169 $292 $293 reversed $53 $-1 #
edge $-1 $294 -11.568253819238267 $180 5.8573133171855281 $169 $295 forward 7 unknown #
coedge $-1 $296 $172 $184 $253 forward $239 $-1 #
coedge $-1 $172 $297 $174 $243 forward $239 $-1 #
loop $-1 $-1 $172 $298 #
vertex $-1 $253 $299 #
straight-curve $-1 0 9.8160661705700107 -11.568253819238267 1 0 0 I I #
coedge $-1 $291 $174 $233 $290 reversed $98 $-1 #
edge $-1 $300 -34.386766143408686 $176 9.8160661705700107 $174 $301 forward 7 unknown #
point $-1 -58.192693868831448 9.8160661705700107 -5.8573133171855281 #
point $-1 -58.192693868831448 9.8160661705700107 -11.568253819238265 #
straight-curve $-1 -58.192693868831448 8.5456729171086447 -5.8573133171855281 0 -1 0 I I #
point $-1 -58.192693868831448 24.366625497864568 -5.8573133171855281 #
coedge $-1 $184 $182 $302 $303 forward $110 $-1 #
coedge $-1 $292 $304 $182 $250 forward $305 $-1 #
edge $-1 $306 -24.366625497864565 $251 24.366625497864565 $182 $307 forward 7 unknown #
vertex $-1 $250 $308 #
straight-curve $-1 58.192693868831448 24.366625497864565 0 0 0 -1 I I #
edge $-1 $240 -9.8160661705700107 $309 24.366625497864565 $184 $310 forward 7 unknown #
straight-curve $-1 58.192693868831448 9.8160661705700107 -4.3563917841059485 0 0 1 I I #
plane-surface $-1 58.192693868831448 0 0 -1 0 0 0 0 1 forward_v I I I I #
straight-curve $-1 -58.192693868831448 24.366625497864565 0 0 0 -1 I I #
point $-1 -58.192693868831448 -24.366625497864565 -11.568253819238267 #
straight-curve $-1 -58.192693868831448 0 -11.568253819238267 0 1 0 I I #
point $-1 -58.192693868831448 24.366625497864565 -11.568253819238267 #
face $-1 $-1 $269 $10 $-1 $311 reversed single #
loop $-1 $-1 $312 $205 #
plane-surface $-1 0 24.366625497864565 0 0 -1 0 0 0 -1 forward_v I I I I #
coedge $-1 $268 $267 $207 $264 reversed $269 $-1 #
edge $-1 $313 -24.366625497864565 $274 24.366625497864565 $263 $314 forward 7 unknown #
coedge $-1 $312 $224 $208 $266 reversed $261 $-1 #
edge $-1 $271 -58.192693868831448 $226 58.192693868831448 $265 $315 forward 7 unknown #
coedge $-1 $263 $210 $212 $273 forward $269 $-1 #
coedge $-1 $210 $263 $312 $316 reversed $269 $-1 #
loop $-1 $-1 $267 $260 #
vertex $-1 $211 $317 #
vertex $-1 $211 $318 #
straight-curve $-1 58.192693868831448 0 11.568253819238267 0 1 0 I I #
edge $-1 $270 -11.568253819238267 $274 11.568253819238267 $267 $319 forward 7 unknown #
vertex $-1 $273 $320 #
straight-curve $-1 0 -24.366625497864565 -11.568253819238267 -1 0 0 I I #
straight-curve $-1 0 -24.366625497864565 11.568253819238267 1 0 0 I I #
point $-1 -53.963275029642311 -24.366625497864565 11.568253819238267 #
point $-1 -53.963275029642311 -24.366625497864565 -11.568253819238267 #
coedge $-1 $224 $312 $223 $280 reversed $261 $-1 #
edge $-1 $228 -58.192693868831448 $313 58.192693868831448 $279 $321 forward 7 unknown #
straight-curve $-1 -58.192693868831448 24.366625497864565 0 0 0 -1 I I #
point $-1 -58.192693868831448 24.366625497864565 11.568253819238267 #
point $-1 -58.192693868831448 24.366625497864565 -11.568253819238267 #
face $-1 $298 $305 $11 $-1 $322 forward single #
loop $-1 $-1 $323 $230 #
plane-surface $-1 0 -24.366625497864565 0 0 1 0 0 0 1 forward_v I I I I #
coedge $-1 $324 $325 $326 $327 forward $231 $-1 #
coedge $-1 $326 $233 $297 $328 reversed $166 $-1 #
coedge $-1 $233 $326 $329 $330 reversed $166 $-1 #
edge $-1 $331 -11.568253819238267 $300 11.568253819238267 $242 $332 forward 7 unknown #
coedge $-1 $234 $242 $333 $334 reversed $98 $-1 #
coedge $-1 $333 $249 $235 $293 forward $305 $-1 #
edge $-1 $251 -58.192693868831448 $294 58.192693868831448 $235 $335 forward 7 unknown #
vertex $-1 $293 $336 #
straight-curve $-1 -58.192693868831448 24.366625497864565 0 0 0 -1 I I #
coedge $-1 $337 $237 $338 $339 forward $239 $-1 #
coedge $-1 $238 $337 $288 $328 forward $239 $-1 #
face $-1 $186 $239 $11 $-1 $340 reversed single #
point $-1 58.192693868831448 9.8160661705700107 -11.568253819238265 #
vertex $-1 $243 $341 #
straight-curve $-1 -58.192693868831448 0 -11.568253819238267 0 1 0 I I #
coedge $-1 $342 $338 $248 $303 reversed $285 $-1 #
edge $-1 $306 -11.568253819238267 $309 11.568253819238267 $248 $343 forward 7 unknown #
coedge $-1 $249 $344 $342 $345 forward $305 $-1 #
loop $-1 $-1 $249 $284 #
vertex $-1 $250 $346 #
straight-curve $-1 58.192693868831448 0 11.568253819238267 0 1 0 I I #
point $-1 58.192693868831448 24.366625497864565 11.568253819238267 #
vertex $-1 $303 $347 #
straight-curve $-1 58.192693868831448 0 -11.568253819238267 0 -1 0 I I #
plane-surface $-1 58.192693868831448 0 0 -1 0 0 0 0 1 forward_v I I I I #
coedge $-1 $279 $265 $268 $316 forward $261 $-1 #
vertex $-1 $264 $348 #
straight-curve $-1 58.192693868831448 0 -11.568253819238267 0 -1 0 I I #
straight-curve $-1 0 24.366625497864565 11.568253819238267 -1 0 0 I I #
edge $-1 $271 -11.568253819238267 $313 11.568253819238267 $268 $349 forward 7 unknown #
point $-1 58.192693868831448 -24.366625497864565 11.568253819238267 #
point $-1 58.192693868831448 24.366625497864565 11.568253819238267 #
straight-curve $-1 58.192693868831448 -24.366625497864565 0 0 0 -1 I I #
point $-1 58.192693868831448 -24.366625497864565 -11.568253819238267 #
straight-curve $-1 0 24.366625497864565 -11.568253819238267 1 0 0 I I #
plane-surface $-1 0 0 11.568253819238267 0 0 1 1 0 0 forward_v I I I I #
coedge $-1 $338 $342 $350 $351 forward $285 $-1 #
coedge $-1 $350 $287 $337 $352 reversed $231 $-1 #
coedge $-1 $287 $350 $344 $353 reversed $231 $-1 #
coedge $-1 $289 $288 $287 $327 reversed $166 $-1 #
edge $-1 $354 -11.568253819238267 $355 11.568253819238267 $287 $356 forward 7 unknown #
edge $-1 $355 -2.1147094195945684 $300 2.1147094195945684 $288 $357 forward 7 unknown #
coedge $-1 $344 $333 $289 $330 forward $305 $-1 #
edge $-1 $331 -2.1147094195945684 $354 2.1147094195945684 $289 $358 forward 7 unknown #
vertex $-1 $334 $359 #
straight-curve $-1 -58.192693868831448 -34.386766143408686 0 0 0 -1 I I #
coedge $-1 $329 $292 $291 $334 forward $305 $-1 #
edge $-1 $294 -24.366625497864565 $331 34.386766143408686 $291 $360 forward 7 unknown #
straight-curve $-1 0 24.366625497864565 11.568253819238267 -1 0 0 I I #
point $-1 -58.192693868831448 24.366625497864565 11.568253819238267 #
coedge $-1 $297 $296 $324 $352 forward $239 $-1 #
coedge $-1 $302 $323 $296 $339 reversed $285 $-1 #
edge $-1 $309 -58.192693868831448 $361 53.963275029642311 $338 $362 forward 7 unknown #
plane-surface $-1 0 0 -11.568253819238267 0 0 1 1 0 0 forward_v I I I I #
point $-1 -58.192693868831448 -34.386766143408686 -11.568253819238267 #
coedge $-1 $323 $302 $304 $345 reversed $285 $-1 #
straight-curve $-1 58.192693868831448 -24.366625497864565 0 0 0 -1 I I #
coedge $-1 $304 $329 $325 $353 forward $305 $-1 #
edge $-1 $363 -53.963275029642311 $306 58.192693868831448 $342 $364 forward 7 unknown #
point $-1 58.192693868831448 -24.366625497864565 11.568253819238267 #
point $-1 58.192693868831448 -24.366625497864565 -11.568253819238267 #
point $-1 58.192693868831448 24.366625497864565 -11.568253819238267 #
straight-curve $-1 58.192693868831448 24.366625497864565 0 0 0 -1 I I #
coedge $-1 $325 $324 $323 $351 reversed $231 $-1 #
edge $-1 $363 -11.568253819238267 $361 11.568253819238267 $323 $365 forward 7 unknown #
edge $-1 $361 -5.0100703227720587 $355 5.0100703227720622 $324 $366 forward 7 unknown #
edge $-1 $354 -5.0100703227720622 $363 5.0100703227720587 $325 $367 forward 7 unknown #
vertex $-1 $353 $368 #
vertex $-1 $327 $369 #
straight-curve $-1 -53.963275029642311 -34.386766143408686 0 0 0 -1 I I #
straight-curve $-1 -56.07798444923688 -34.386766143408686 -11.568253819238267 -1 0 0 I I #
straight-curve $-1 -56.07798444923688 -34.386766143408686 11.568253819238267 1 0 0 I I #
point $-1 -58.192693868831448 -34.386766143408686 11.568253819238267 #
straight-curve $-1 -58.192693868831448 0 11.568253819238267 0 -1 0 I I #
vertex $-1 $352 $370 #
straight-curve $-1 0 -24.366625497864565 -11.568253819238267 -1 0 0 I I #
vertex $-1 $345 $371 #
straight-curve $-1 0 -24.366625497864565 11.568253819238267 1 0 0 I I #
straight-curve $-1 -53.963275029642311 -24.366625497864565 0 0 0 -1 I I #
straight-curve $-1 -53.963275029642311 -29.376695820636623 -11.568253819238267 0 -1 0 I I #
straight-curve $-1 -53.963275029642311 -29.376695820636623 11.568253819238267 0 1 0 I I #
point $-1 -53.963275029642311 -34.386766143408686 11.568253819238267 #
point $-1 -53.963275029642311 -34.386766143408686 -11.568253819238267 #
point $-1 -53.963275029642311 -24.366625497864565 -11.568253819238267 #
point $-1 -53.963275029642311 -24.366625497864565 11.568253819238267 #
End-of-ACIS-data 