500 0 16 0           
7 Unknown 11 ACIS 5.0 NT 24 Thu Mar 25 23:21:00 1999 
-1 9.9999999999999995e-007 1e-010 
body $-1 $16 $-1 $17 #
body $-1 $18 $-1 $19 #
body $-1 $20 $-1 $21 #
body $-1 $22 $-1 $23 #
body $-1 $24 $-1 $25 #
body $-1 $26 $-1 $27 #
body $-1 $28 $-1 $29 #
body $-1 $30 $-1 $31 #
body $-1 $32 $-1 $33 #
body $-1 $34 $-1 $35 #
body $-1 $36 $-1 $37 #
body $-1 $38 $-1 $39 #
body $-1 $40 $-1 $41 #
body $-1 $42 $-1 $43 #
body $-1 $44 $-1 $45 #
body $-1 $46 $-1 $47 #
lump $-1 $-1 $48 $0 #
transform $-1 1 0 0 0 1 0 0 0 1 42.534257026886806 20.381836503423056 7.5855115810295057 1 rotate no_reflect no_shear #
lump $-1 $-1 $49 $1 #
transform $-1 1 0 0 0 1 0 0 0 1 42.534257026886806 20.381836503423056 7.5855115810295057 1 rotate no_reflect no_shear #
lump $-1 $-1 $50 $2 #
transform $-1 1 0 0 0 1 0 0 0 1 42.534257026886806 20.381836503423056 7.5855115810295057 1 rotate no_reflect no_shear #
lump $-1 $-1 $51 $3 #
transform $-1 1 0 0 0 1 0 0 0 1 42.534257026886806 20.381836503423056 7.5855115810295057 1 rotate no_reflect no_shear #
lump $-1 $-1 $52 $4 #
transform $-1 1 0 0 0 1 0 0 0 1 42.534257026886806 20.381836503423056 7.5855115810295057 1 rotate no_reflect no_shear #
lump $-1 $-1 $53 $5 #
transform $-1 1 0 0 0 1 0 0 0 1 42.534257026886806 20.381836503423056 7.5855115810295057 1 rotate no_reflect no_shear #
lump $-1 $-1 $54 $6 #
transform $-1 1 0 0 0 1 0 0 0 1 42.534257026886806 20.381836503423056 7.5855115810295057 1 rotate no_reflect no_shear #
lump $-1 $-1 $55 $7 #
transform $-1 1 0 0 0 1 0 0 0 1 42.534257026886806 20.381836503423056 7.5855115810295057 1 rotate no_reflect no_shear #
lump $-1 $-1 $56 $8 #
transform $-1 1 0 0 0 1 0 0 0 1 42.534257026886806 20.381836503423056 7.5855115810295057 1 rotate no_reflect no_shear #
lump $-1 $-1 $57 $9 #
transform $-1 1 0 0 0 1 0 0 0 1 42.534257026886806 20.381836503423056 7.5855115810295057 1 rotate no_reflect no_shear #
lump $-1 $-1 $58 $10 #
transform $-1 1 0 0 0 1 0 0 0 1 42.534257026886806 20.381836503423056 7.5855115810295057 1 rotate no_reflect no_shear #
lump $-1 $-1 $59 $11 #
transform $-1 1 0 0 0 1 0 0 0 1 42.534257026886806 20.381836503423056 7.5855115810295057 1 rotate no_reflect no_shear #
lump $-1 $-1 $60 $12 #
transform $-1 1 0 0 0 1 0 0 0 1 42.534257026886806 20.381836503423056 7.5855115810295057 1 rotate no_reflect no_shear #
lump $-1 $-1 $61 $13 #
transform $-1 1 0 0 0 1 0 0 0 1 42.534257026886806 20.381836503423056 7.5855115810295057 1 rotate no_reflect no_shear #
lump $-1 $-1 $62 $14 #
transform $-1 1 0 0 0 1 0 0 0 1 42.534257026886806 20.381836503423056 7.5855115810295057 1 rotate no_reflect no_shear #
lump $-1 $-1 $63 $15 #
transform $-1 1 0 0 0 1 0 0 0 1 42.534257026886806 20.381836503423056 7.5855115810295057 1 rotate no_reflect no_shear #
shell $-1 $-1 $-1 $64 $-1 $16 #
shell $-1 $-1 $-1 $65 $-1 $18 #
shell $-1 $-1 $-1 $66 $-1 $20 #
shell $-1 $-1 $-1 $67 $-1 $22 #
shell $-1 $-1 $-1 $68 $-1 $24 #
shell $-1 $-1 $-1 $69 $-1 $26 #
shell $-1 $-1 $-1 $70 $-1 $28 #
shell $-1 $-1 $-1 $71 $-1 $30 #
shell $-1 $-1 $-1 $72 $-1 $32 #
shell $-1 $-1 $-1 $73 $-1 $34 #
shell $-1 $-1 $-1 $74 $-1 $36 #
shell $-1 $-1 $-1 $75 $-1 $38 #
shell $-1 $-1 $-1 $76 $-1 $40 #
shell $-1 $-1 $-1 $77 $-1 $42 #
shell $-1 $-1 $-1 $78 $-1 $44 #
shell $-1 $-1 $-1 $79 $-1 $46 #
face $-1 $80 $81 $48 $-1 $82 reversed single #
face $-1 $83 $84 $49 $-1 $85 forward single #
face $-1 $86 $87 $50 $-1 $88 reversed single #
face $-1 $89 $90 $51 $-1 $91 forward single #
face $-1 $92 $93 $52 $-1 $94 forward single #
face $-1 $95 $96 $53 $-1 $97 reversed single #
face $-1 $98 $99 $54 $-1 $100 forward single #
face $-1 $101 $102 $55 $-1 $103 forward single #
face $-1 $104 $105 $56 $-1 $106 reversed single #
face $-1 $107 $108 $57 $-1 $109 forward single #
face $-1 $110 $111 $58 $-1 $112 forward single #
face $-1 $113 $114 $59 $-1 $115 forward single #
face $-1 $116 $117 $60 $-1 $118 reversed single #
face $-1 $119 $120 $61 $-1 $121 forward single #
face $-1 $122 $123 $62 $-1 $124 forward single #
face $-1 $125 $126 $63 $-1 $127 forward single #
face $-1 $128 $129 $48 $-1 $130 forward single #
loop $-1 $-1 $131 $64 #
plane-surface $-1 0 -20.381836503423056 0 0 1 0 0 0 1 forward_v I I I I #
face $-1 $132 $133 $49 $-1 $134 forward single #
loop $-1 $-1 $135 $65 #
plane-surface $-1 0 -20.381836503423056 0 0 1 0 0 0 1 forward_v I I I I #
face $-1 $136 $137 $50 $-1 $138 reversed single #
loop $-1 $-1 $139 $66 #
plane-surface $-1 -88.865891038333359 -14.851638117677044 72.368701262188253 0 1 0 -0.54463904215088732 0 0.83867056331134215 forward_v I I I I #
face $-1 $140 $141 $51 $-1 $142 forward single #
loop $-1 $143 $144 $67 #
cone-surface $-1 -37.042084647928135 -12.592768693084695 3.6266614591494615 0.54463904215088732 0 -0.83867056331134215 0.83867056331134215 0 0.54463904215088732 1 I I 0 1 1 forward I I I I #
face $-1 $145 $146 $52 $-1 $147 forward single #
loop $-1 $148 $149 $68 #
cone-surface $-1 -37.042084647928135 -9.2044645561961715 3.6266614591494615 0.54463904215088732 0 -0.83867056331134215 0.83867056331134215 0 0.54463904215088732 1 I I 0 1 1 forward I I I I #
face $-1 $150 $151 $53 $-1 $152 reversed single #
loop $-1 $-1 $153 $69 #
plane-surface $-1 -88.865891038333359 12.475793517349835 72.368701262188253 0 1 0 -0.54463904215088732 0 0.83867056331134215 forward_v I I I I #
face $-1 $154 $155 $54 $-1 $156 forward single #
loop $-1 $157 $158 $70 #
cone-surface $-1 -37.042084647928135 14.73466294194218 3.6266614591494615 0.54463904215088732 0 -0.83867056331134215 0.83867056331134215 0 0.54463904215088732 1 I I 0 1 1 forward I I I I #
face $-1 $159 $160 $55 $-1 $161 forward single #
loop $-1 $162 $163 $71 #
cone-surface $-1 -37.042084647928135 18.122967078830701 3.6266614591494615 0.54463904215088732 0 -0.83867056331134215 0.83867056331134215 0 0.54463904215088732 1 I I 0 1 1 forward I I I I #
face $-1 $164 $165 $56 $-1 $166 reversed single #
loop $-1 $-1 $167 $72 #
plane-surface $-1 34.142202491644781 -5.2760095486470613 124.33538773023734 0 -1 0 -0.6560590369687036 0 -0.75470957328743171 forward_v I I I I #
face $-1 $168 $169 $57 $-1 $170 forward single #
loop $-1 $171 $172 $73 #
cone-surface $-1 40.254533952579365 -10.751519616502394 5.4903881716352085 -0.6560590369687036 0 -0.75470957328743171 0.37735478664371586 0 -0.3280295184843518 1 I I 0 1 0.5 forward I I I I #
face $-1 $173 $174 $58 $-1 $175 forward single #
loop $-1 $176 $177 $74 #
cone-surface $-1 40.254533952579365 -8.6982033410566437 5.4903881716352085 -0.6560590369687036 0 -0.75470957328743171 0.37735478664371586 0 -0.3280295184843518 1 I I 0 1 0.5 forward I I I I #
face $-1 $178 $179 $59 $-1 $180 forward single #
loop $-1 $181 $182 $75 #
cone-surface $-1 40.254533952579365 -6.6448870656108951 5.4903881716352085 -0.6560590369687036 0 -0.75470957328743171 0.37735478664371586 0 -0.3280295184843518 1 I I 0 1 0.5 forward I I I I #
face $-1 $183 $184 $60 $-1 $185 reversed single #
loop $-1 $-1 $186 $76 #
plane-surface $-1 34.142202491644781 12.34072776190299 124.33538773023734 0 -1 0 -0.6560590369687036 0 -0.75470957328743171 forward_v I I I I #
face $-1 $187 $188 $61 $-1 $189 forward single #
loop $-1 $190 $191 $77 #
cone-surface $-1 40.254533952579365 6.8652176940476544 5.4903881716352085 -0.6560590369687036 0 -0.75470957328743171 0.37735478664371586 0 -0.3280295184843518 1 I I 0 1 0.5 forward I I I I #
face $-1 $192 $193 $62 $-1 $194 forward single #
loop $-1 $195 $196 $78 #
cone-surface $-1 40.254533952579365 8.9185339694934065 5.4903881716352085 -0.6560590369687036 0 -0.75470957328743171 0.37735478664371586 0 -0.3280295184843518 1 I I 0 1 0.5 forward I I I I #
face $-1 $197 $198 $63 $-1 $199 forward single #
loop $-1 $200 $201 $79 #
cone-surface $-1 40.254533952579365 10.971850244939155 5.4903881716352085 -0.6560590369687036 0 -0.75470957328743171 0.37735478664371586 0 -0.3280295184843518 1 I I 0 1 0.5 forward I I I I #
face $-1 $202 $203 $48 $-1 $204 reversed single #
loop $-1 $-1 $205 $80 #
plane-surface $-1 0 0 7.5855115810295057 0 0 1 1 0 0 forward_v I I I I #
coedge $-1 $206 $207 $208 $209 reversed $81 $-1 #
face $-1 $210 $211 $49 $-1 $212 reversed single #
loop $-1 $-1 $213 $83 #
plane-surface $-1 0 0 7.5855115810295057 0 0 1 1 0 0 forward_v I I I I #
coedge $-1 $214 $215 $216 $217 forward $84 $-1 #
face $-1 $218 $219 $50 $-1 $220 reversed single #
loop $-1 $-1 $221 $86 #
plane-surface $-1 -42.534257026886806 -10.898616624640432 1.0242426606511117 -0.54463904215088732 0 0.83867056331134215 0.83867056331134215 0 0.54463904215088732 forward_v I I I I #
coedge $-1 $222 $223 $224 $225 reversed $87 $-1 #
face $-1 $-1 $226 $51 $-1 $227 forward single #
loop $-1 $228 $229 $89 #
cone-surface $-1 -36.32932671812091 -12.592768693084695 2.5291105158029445 0.54463904215088732 0 -0.83867056331134215 0.41933528165567108 0 0.27231952107544366 1 I I -0.70710678118654746 0.70710678118654746 0.5 forward I I I I #
loop $-1 $-1 $230 $67 #
coedge $-1 $144 $144 $231 $232 reversed $90 $-1 #
face $-1 $-1 $233 $52 $-1 $234 forward single #
loop $-1 $235 $236 $92 #
cone-surface $-1 -36.32932671812091 -9.2044645561961715 2.5291105158029445 0.54463904215088732 0 -0.83867056331134215 0.41933528165567108 0 0.27231952107544366 1 I I -0.70710678118654746 0.70710678118654746 0.5 forward I I I I #
loop $-1 $-1 $237 $68 #
coedge $-1 $149 $149 $238 $239 reversed $93 $-1 #
face $-1 $240 $241 $53 $-1 $242 forward single #
loop $-1 $-1 $243 $95 #
plane-surface $-1 -42.534257026886806 16.428815010386447 1.0242426606511117 -0.54463904215088732 0 0.83867056331134215 0.83867056331134215 0 0.54463904215088732 forward_v I I I I #
coedge $-1 $244 $245 $246 $247 reversed $96 $-1 #
face $-1 $-1 $248 $54 $-1 $249 forward single #
loop $-1 $250 $251 $98 #
cone-surface $-1 -36.32932671812091 14.73466294194218 2.5291105158029445 0.54463904215088732 0 -0.83867056331134215 0.41933528165567108 0 0.27231952107544366 1 I I -0.70710678118654746 0.70710678118654746 0.5 forward I I I I #
loop $-1 $-1 $252 $70 #
coedge $-1 $158 $158 $253 $254 reversed $99 $-1 #
face $-1 $-1 $255 $55 $-1 $256 forward single #
loop $-1 $257 $258 $101 #
cone-surface $-1 -36.32932671812091 18.122967078830701 2.5291105158029445 0.54463904215088732 0 -0.83867056331134215 0.41933528165567108 0 0.27231952107544366 1 I I -0.70710678118654746 0.70710678118654746 0.5 forward I I I I #
loop $-1 $-1 $259 $71 #
coedge $-1 $163 $163 $260 $261 reversed $102 $-1 #
face $-1 $262 $263 $56 $-1 $264 reversed single #
loop $-1 $-1 $265 $104 #
plane-surface $-1 -21.66776491483256 -8.6982033410566437 60.133365788517978 0.6560590369687036 0 0.75470957328743171 0.75470957328743171 0 -0.6560590369687036 forward_v I I I I #
coedge $-1 $266 $267 $268 $269 reversed $105 $-1 #
face $-1 $-1 $270 $57 $-1 $271 forward single #
loop $-1 $272 $273 $107 #
cone-surface $-1 39.687112061417736 -10.751519616502394 4.8376439684134969 -0.6560590369687036 0 -0.75470957328743171 0.18867739332185793 0 -0.1640147592421759 1 I I -0.70710678118654746 0.70710678118654746 0.25 forward I I I I #
loop $-1 $-1 $274 $73 #
coedge $-1 $172 $172 $275 $276 reversed $108 $-1 #
face $-1 $-1 $277 $58 $-1 $278 forward single #
loop $-1 $279 $280 $110 #
cone-surface $-1 39.687112061417736 -8.6982033410566437 4.8376439684134969 -0.6560590369687036 0 -0.75470957328743171 0.18867739332185793 0 -0.1640147592421759 1 I I -0.70710678118654746 0.70710678118654746 0.25 forward I I I I #
loop $-1 $-1 $281 $74 #
coedge $-1 $177 $177 $282 $283 reversed $111 $-1 #
face $-1 $-1 $284 $59 $-1 $285 forward single #
loop $-1 $286 $287 $113 #
cone-surface $-1 39.687112061417736 -6.6448870656108951 4.8376439684134969 -0.6560590369687036 0 -0.75470957328743171 0.18867739332185793 0 -0.1640147592421759 1 I I -0.70710678118654746 0.70710678118654746 0.25 forward I I I I #
loop $-1 $-1 $288 $75 #
coedge $-1 $182 $182 $289 $290 reversed $114 $-1 #
face $-1 $291 $292 $60 $-1 $293 reversed single #
loop $-1 $-1 $294 $116 #
plane-surface $-1 -21.66776491483256 8.9185339694934065 60.133365788517978 0.6560590369687036 0 0.75470957328743171 0.75470957328743171 0 -0.6560590369687036 forward_v I I I I #
coedge $-1 $295 $296 $297 $298 reversed $117 $-1 #
face $-1 $-1 $299 $61 $-1 $300 forward single #
loop $-1 $301 $302 $119 #
cone-surface $-1 39.687112061417736 6.8652176940476544 4.8376439684134969 -0.6560590369687036 0 -0.75470957328743171 0.18867739332185793 0 -0.1640147592421759 1 I I -0.70710678118654746 0.70710678118654746 0.25 forward I I I I #
loop $-1 $-1 $303 $77 #
coedge $-1 $191 $191 $304 $305 reversed $120 $-1 #
face $-1 $-1 $306 $62 $-1 $307 forward single #
loop $-1 $308 $309 $122 #
cone-surface $-1 39.687112061417736 8.9185339694934065 4.8376439684134969 -0.6560590369687036 0 -0.75470957328743171 0.18867739332185793 0 -0.1640147592421759 1 I I -0.70710678118654746 0.70710678118654746 0.25 forward I I I I #
loop $-1 $-1 $310 $78 #
coedge $-1 $196 $196 $311 $312 reversed $123 $-1 #
face $-1 $-1 $313 $63 $-1 $314 forward single #
loop $-1 $315 $316 $125 #
cone-surface $-1 39.687112061417736 10.971850244939155 4.8376439684134969 -0.6560590369687036 0 -0.75470957328743171 0.18867739332185793 0 -0.1640147592421759 1 I I -0.70710678118654746 0.70710678118654746 0.25 forward I I I I #
loop $-1 $-1 $317 $79 #
coedge $-1 $201 $201 $318 $319 reversed $126 $-1 #
face $-1 $320 $321 $48 $-1 $322 reversed single #
loop $-1 $-1 $323 $128 #
plane-surface $-1 0 0 -7.5855115810295057 0 0 1 1 0 0 forward_v I I I I #
coedge $-1 $324 $325 $326 $327 forward $129 $-1 #
coedge $-1 $328 $131 $329 $330 reversed $81 $-1 #
coedge $-1 $131 $328 $331 $332 forward $81 $-1 #
coedge $-1 $333 $323 $131 $209 forward $203 $-1 #
edge $-1 $334 -42.534257026886806 $335 42.534257026886806 $131 $336 forward 7 unknown #
face $-1 $337 $338 $49 $-1 $339 reversed single #
loop $-1 $-1 $340 $132 #
plane-surface $-1 -42.534257026886806 0 0 1 0 0 0 0 -1 forward_v I I I I #
coedge $-1 $341 $342 $215 $343 forward $133 $-1 #
coedge $-1 $344 $135 $345 $346 reversed $84 $-1 #
coedge $-1 $135 $344 $213 $343 reversed $84 $-1 #
coedge $-1 $347 $348 $135 $217 reversed $349 $-1 #
edge $-1 $350 -7.5855115810295057 $351 7.5855115810295057 $216 $352 forward 7 unknown #
face $-1 $353 $354 $50 $-1 $355 reversed single #
loop $-1 $-1 $356 $136 #
plane-surface $-1 -88.865891038333359 -6.9455951316038202 72.368701262188253 0 -1 0 0.54463904215088732 0 -0.83867056331134215 forward_v I I I I #
coedge $-1 $357 $358 $359 $360 reversed $137 $-1 #
coedge $-1 $223 $139 $361 $362 reversed $87 $-1 #
coedge $-1 $139 $222 $357 $363 reversed $87 $-1 #
coedge $-1 $359 $364 $139 $225 forward $365 $-1 #
edge $-1 $366 1.8986884922798737 $367 12.002156432733663 $224 $368 forward 7 unknown #
loop $-1 $-1 $231 $140 #
plane-surface $-1 -42.534257026886806 -10.898616624640432 1.0242426606511117 -0.54463904215088732 0 0.83867056331134215 0.83867056331134215 0 0.54463904215088732 forward_v I I I I #
loop $-1 $-1 $369 $89 #
coedge $-1 $229 $229 $230 $370 reversed $141 $-1 #
coedge $-1 $230 $230 $229 $370 forward $143 $-1 #
coedge $-1 $231 $231 $144 $232 forward $226 $-1 #
edge $-1 $371 0 $371 6.2831853071796004 $231 $372 forward 7 unknown #
loop $-1 $-1 $238 $145 #
plane-surface $-1 -42.534257026886806 -10.898616624640432 1.0242426606511117 -0.54463904215088732 0 0.83867056331134215 0.83867056331134215 0 0.54463904215088732 forward_v I I I I #
loop $-1 $-1 $373 $92 #
coedge $-1 $236 $236 $237 $374 reversed $146 $-1 #
coedge $-1 $237 $237 $236 $374 forward $148 $-1 #
coedge $-1 $238 $238 $149 $239 forward $233 $-1 #
edge $-1 $375 0 $375 6.2831853071796004 $238 $376 forward 7 unknown #
face $-1 $377 $378 $53 $-1 $379 reversed single #
loop $-1 $-1 $246 $150 #
plane-surface $-1 0 0 7.5855115810295057 0 0 1 1 0 0 forward_v I I I I #
coedge $-1 $380 $381 $382 $383 reversed $151 $-1 #
coedge $-1 $245 $153 $384 $385 reversed $96 $-1 #
coedge $-1 $153 $244 $380 $386 reversed $96 $-1 #
coedge $-1 $382 $387 $153 $247 forward $241 $-1 #
edge $-1 $388 1.8986884922798737 $389 12.002156432733663 $246 $390 forward 7 unknown #
loop $-1 $-1 $253 $154 #
plane-surface $-1 -42.534257026886806 16.428815010386447 1.0242426606511117 -0.54463904215088732 0 0.83867056331134215 0.83867056331134215 0 0.54463904215088732 forward_v I I I I #
loop $-1 $-1 $391 $98 #
coedge $-1 $251 $251 $252 $392 reversed $155 $-1 #
coedge $-1 $252 $252 $251 $392 forward $157 $-1 #
coedge $-1 $253 $253 $158 $254 forward $248 $-1 #
edge $-1 $393 0 $393 6.2831853071796004 $253 $394 forward 7 unknown #
loop $-1 $-1 $260 $159 #
plane-surface $-1 -42.534257026886806 16.428815010386447 1.0242426606511117 -0.54463904215088732 0 0.83867056331134215 0.83867056331134215 0 0.54463904215088732 forward_v I I I I #
loop $-1 $-1 $395 $101 #
coedge $-1 $258 $258 $259 $396 reversed $160 $-1 #
coedge $-1 $259 $259 $258 $396 forward $162 $-1 #
coedge $-1 $260 $260 $163 $261 forward $255 $-1 #
edge $-1 $397 0 $397 6.2831853071796004 $260 $398 forward 7 unknown #
face $-1 $399 $400 $56 $-1 $401 forward single #
loop $-1 $-1 $402 $164 #
plane-surface $-1 34.142202491644781 -12.120397133466227 124.33538773023734 0 1 0 0.6560590369687036 0 0.75470957328743171 forward_v I I I I #
coedge $-1 $403 $404 $405 $406 reversed $165 $-1 #
coedge $-1 $267 $167 $407 $408 reversed $105 $-1 #
coedge $-1 $167 $266 $403 $409 reversed $105 $-1 #
coedge $-1 $405 $410 $167 $269 forward $400 $-1 #
edge $-1 $411 -25.463155781064415 $412 -21.710523896288429 $268 $413 forward 7 unknown #
loop $-1 $-1 $275 $168 #
plane-surface $-1 -21.66776491483256 -8.6982033410566437 60.133365788517978 0.6560590369687036 0 0.75470957328743171 0.75470957328743171 0 -0.6560590369687036 forward_v I I I I #
loop $-1 $-1 $414 $107 #
coedge $-1 $273 $273 $274 $415 reversed $169 $-1 #
coedge $-1 $274 $274 $273 $415 forward $171 $-1 #
coedge $-1 $275 $275 $172 $276 forward $270 $-1 #
edge $-1 $416 0 $416 6.2831853071796004 $275 $417 forward 7 unknown #
loop $-1 $-1 $282 $173 #
plane-surface $-1 -21.66776491483256 -8.6982033410566437 60.133365788517978 0.6560590369687036 0 0.75470957328743171 0.75470957328743171 0 -0.6560590369687036 forward_v I I I I #
loop $-1 $-1 $418 $110 #
coedge $-1 $280 $280 $281 $419 reversed $174 $-1 #
coedge $-1 $281 $281 $280 $419 forward $176 $-1 #
coedge $-1 $282 $282 $177 $283 forward $277 $-1 #
edge $-1 $420 0 $420 6.2831853071796004 $282 $421 forward 7 unknown #
loop $-1 $-1 $289 $178 #
plane-surface $-1 -21.66776491483256 -8.6982033410566437 60.133365788517978 0.6560590369687036 0 0.75470957328743171 0.75470957328743171 0 -0.6560590369687036 forward_v I I I I #
loop $-1 $-1 $422 $113 #
coedge $-1 $287 $287 $288 $423 reversed $179 $-1 #
coedge $-1 $288 $288 $287 $423 forward $181 $-1 #
coedge $-1 $289 $289 $182 $290 forward $284 $-1 #
edge $-1 $424 0 $424 6.2831853071796004 $289 $425 forward 7 unknown #
face $-1 $426 $427 $60 $-1 $428 reversed single #
loop $-1 $-1 $429 $183 #
plane-surface $-1 34.142202491644781 5.4963401770838241 124.33538773023734 0 1 0 0.6560590369687036 0 0.75470957328743171 forward_v I I I I #
coedge $-1 $430 $431 $432 $433 reversed $184 $-1 #
coedge $-1 $296 $186 $434 $435 reversed $117 $-1 #
coedge $-1 $186 $295 $430 $436 reversed $117 $-1 #
coedge $-1 $432 $437 $186 $298 forward $438 $-1 #
edge $-1 $439 -25.463155781064415 $440 -21.710523896288429 $297 $441 forward 7 unknown #
loop $-1 $-1 $304 $187 #
plane-surface $-1 -21.66776491483256 8.9185339694934065 60.133365788517978 0.6560590369687036 0 0.75470957328743171 0.75470957328743171 0 -0.6560590369687036 forward_v I I I I #
loop $-1 $-1 $442 $119 #
coedge $-1 $302 $302 $303 $443 reversed $188 $-1 #
coedge $-1 $303 $303 $302 $443 forward $190 $-1 #
coedge $-1 $304 $304 $191 $305 forward $299 $-1 #
edge $-1 $444 0 $444 6.2831853071796004 $304 $445 forward 7 unknown #
loop $-1 $-1 $311 $192 #
plane-surface $-1 -21.66776491483256 8.9185339694934065 60.133365788517978 0.6560590369687036 0 0.75470957328743171 0.75470957328743171 0 -0.6560590369687036 forward_v I I I I #
loop $-1 $-1 $446 $122 #
coedge $-1 $309 $309 $310 $447 reversed $193 $-1 #
coedge $-1 $310 $310 $309 $447 forward $195 $-1 #
coedge $-1 $311 $311 $196 $312 forward $306 $-1 #
edge $-1 $448 0 $448 6.2831853071796004 $311 $449 forward 7 unknown #
loop $-1 $-1 $318 $197 #
plane-surface $-1 -21.66776491483256 8.9185339694934065 60.133365788517978 0.6560590369687036 0 0.75470957328743171 0.75470957328743171 0 -0.6560590369687036 forward_v I I I I #
loop $-1 $-1 $450 $125 #
coedge $-1 $316 $316 $317 $451 reversed $198 $-1 #
coedge $-1 $317 $317 $316 $451 forward $200 $-1 #
coedge $-1 $318 $318 $201 $319 forward $313 $-1 #
edge $-1 $452 0 $452 6.2831853071796004 $318 $453 forward 7 unknown #
face $-1 $454 $455 $48 $-1 $456 reversed single #
loop $-1 $-1 $457 $202 #
plane-surface $-1 -42.534257026886806 0 0 1 0 0 0 0 -1 forward_v I I I I #
coedge $-1 $208 $458 $459 $460 forward $203 $-1 #
coedge $-1 $461 $205 $462 $463 forward $129 $-1 #
coedge $-1 $205 $461 $328 $464 forward $129 $-1 #
coedge $-1 $329 $465 $205 $327 reversed $466 $-1 #
edge $-1 $467 -20.381836503423056 $468 20.381836503423056 $326 $469 forward 7 unknown #
coedge $-1 $207 $206 $325 $464 reversed $81 $-1 #
coedge $-1 $459 $326 $206 $330 forward $466 $-1 #
edge $-1 $467 -7.5855115810295057 $334 7.5855115810295057 $329 $470 forward 7 unknown #
coedge $-1 $471 $472 $207 $332 reversed $321 $-1 #
edge $-1 $473 -7.5855115810295057 $335 7.5855115810295057 $331 $474 forward 7 unknown #
coedge $-1 $458 $208 $472 $475 forward $203 $-1 #
vertex $-1 $330 $476 #
vertex $-1 $475 $477 #
straight-curve $-1 0 -20.381836503423056 -7.5855115810295057 -1 0 0 I I #
face $-1 $478 $349 $49 $-1 $479 reversed single #
loop $-1 $-1 $480 $210 #
plane-surface $-1 -40.763686995294414 -25.912034889169067 0 0 1 0 0 0 1 forward_v I I I I #
coedge $-1 $481 $482 $344 $483 forward $211 $-1 #
coedge $-1 $484 $213 $482 $485 forward $133 $-1 #
coedge $-1 $213 $484 $347 $486 forward $133 $-1 #
edge $-1 $350 38.993116963702022 $487 42.534257026886806 $213 $488 forward 7 unknown #
coedge $-1 $215 $214 $340 $483 reversed $84 $-1 #
coedge $-1 $489 $490 $214 $346 forward $491 $-1 #
edge $-1 $492 -42.534257026886806 $351 -38.993116963702022 $345 $493 forward 7 unknown #
coedge $-1 $494 $216 $342 $486 reversed $349 $-1 #
coedge $-1 $216 $494 $489 $495 reversed $349 $-1 #
loop $-1 $-1 $494 $337 #
vertex $-1 $343 $496 #
vertex $-1 $495 $497 #
straight-curve $-1 -38.993116963702022 -20.381836503423056 0 0 0 -1 I I #
face $-1 $-1 $365 $50 $-1 $498 forward single #
loop $-1 $-1 $499 $218 #
plane-surface $-1 -42.534257026886806 0 0 1 0 0 0 0 -1 forward_v I I I I #
coedge $-1 $500 $501 $502 $503 reversed $219 $-1 #
coedge $-1 $504 $221 $223 $363 forward $137 $-1 #
coedge $-1 $221 $504 $500 $505 forward $137 $-1 #
coedge $-1 $502 $224 $221 $360 forward $365 $-1 #
edge $-1 $367 -9.4023298053568283 $506 -1.4962868192836041 $359 $507 forward 7 unknown #
coedge $-1 $508 $509 $222 $362 forward $354 $-1 #
edge $-1 $510 -35.160107970443015 $366 -28.598839050064619 $361 $511 forward 7 unknown #
edge $-1 $367 -12.047004369107741 $510 0 $223 $512 forward 7 unknown #
coedge $-1 $224 $502 $508 $513 forward $365 $-1 #
loop $-1 $-1 $502 $353 #
vertex $-1 $362 $514 #
vertex $-1 $225 $515 #
straight-curve $-1 -44.43294551916668 -14.851638117677044 7.5855115810295075 1 0 0 I I #
coedge $-1 $369 $369 $-1 $516 reversed $228 $-1 #
edge $-1 $517 0 $517 6.2831853071796004 $229 $518 forward 7 unknown #
vertex $-1 $232 $519 #
ellipse-curve $-1 -37.482523056659915 -12.592768693084695 4.3048771208403069 -0.54463904215088732 0 0.83867056331134215 0.83867056331134215 0 0.54463904215088732 1 I I #
coedge $-1 $373 $373 $-1 $520 reversed $235 $-1 #
edge $-1 $521 0 $521 6.2831853071796004 $236 $522 forward 7 unknown #
vertex $-1 $239 $523 #
ellipse-curve $-1 -37.482523056659915 -9.2044645561961715 4.3048771208403069 -0.54463904215088732 0 0.83867056331134215 0.83867056331134215 0 0.54463904215088732 1 I I #
face $-1 $-1 $524 $53 $-1 $525 reversed single #
loop $-1 $-1 $526 $240 #
plane-surface $-1 0 20.381836503423056 0 0 -1 0 0 0 -1 forward_v I I I I #
coedge $-1 $527 $243 $245 $386 forward $151 $-1 #
coedge $-1 $243 $527 $526 $528 reversed $151 $-1 #
coedge $-1 $529 $246 $243 $383 forward $241 $-1 #
edge $-1 $389 4.2613860121566116 $530 12.167428998229836 $382 $531 forward 7 unknown #
coedge $-1 $532 $533 $244 $385 forward $524 $-1 #
edge $-1 $534 -35.160107970443015 $388 -28.598839050064619 $384 $535 forward 7 unknown #
edge $-1 $389 -12.047004369107741 $534 0 $245 $536 forward 7 unknown #
coedge $-1 $246 $529 $532 $537 forward $241 $-1 #
vertex $-1 $385 $538 #
vertex $-1 $247 $539 #
straight-curve $-1 -44.43294551916668 12.475793517349835 7.5855115810295075 1 0 0 I I #
coedge $-1 $391 $391 $-1 $540 reversed $250 $-1 #
edge $-1 $541 0 $541 6.2831853071796004 $251 $542 forward 7 unknown #
vertex $-1 $254 $543 #
ellipse-curve $-1 -37.482523056659915 14.73466294194218 4.3048771208403069 -0.54463904215088732 0 0.83867056331134215 0.83867056331134215 0 0.54463904215088732 1 I I #
coedge $-1 $395 $395 $-1 $544 reversed $257 $-1 #
edge $-1 $545 0 $545 6.2831853071796004 $258 $546 forward 7 unknown #
vertex $-1 $261 $547 #
ellipse-curve $-1 -37.482523056659915 18.122967078830701 4.3048771208403069 -0.54463904215088732 0 0.83867056331134215 0.83867056331134215 0 0.54463904215088732 1 I I #
face $-1 $-1 $548 $56 $-1 $549 reversed single #
loop $-1 $-1 $268 $262 #
plane-surface $-1 0 0 7.5855115810295057 0 0 1 1 0 0 forward_v I I I I #
coedge $-1 $550 $551 $552 $553 reversed $263 $-1 #
coedge $-1 $554 $265 $267 $409 forward $165 $-1 #
coedge $-1 $265 $554 $550 $555 forward $165 $-1 #
coedge $-1 $552 $268 $265 $406 forward $400 $-1 #
edge $-1 $412 0.92690787811873943 $556 7.7712954629379052 $405 $557 forward 7 unknown #
coedge $-1 $558 $559 $266 $408 forward $548 $-1 #
edge $-1 $560 -57.844295483078035 $411 -54.582182284089164 $407 $561 forward 7 unknown #
edge $-1 $412 80.096228001497991 $560 85.068514053773612 $267 $562 forward 7 unknown #
coedge $-1 $268 $552 $558 $563 forward $400 $-1 #
vertex $-1 $408 $564 #
vertex $-1 $269 $565 #
straight-curve $-1 17.071101245822391 -5.2760095486470613 7.5855115810295075 -1 0 0 I I #
coedge $-1 $414 $414 $-1 $566 reversed $272 $-1 #
edge $-1 $567 0 $567 6.2831853071796004 $273 $568 forward 7 unknown #
vertex $-1 $276 $569 #
ellipse-curve $-1 40.657941084498816 -10.751519616502394 5.9544549815350649 0.6560590369687036 0 0.75470957328743171 0.37735478664371586 0 -0.3280295184843518 1 I I #
coedge $-1 $418 $418 $-1 $570 reversed $279 $-1 #
edge $-1 $571 0 $571 6.2831853071796004 $280 $572 forward 7 unknown #
vertex $-1 $283 $573 #
ellipse-curve $-1 40.657941084498816 -8.6982033410566437 5.9544549815350649 0.6560590369687036 0 0.75470957328743171 0.37735478664371586 0 -0.3280295184843518 1 I I #
coedge $-1 $422 $422 $-1 $574 reversed $286 $-1 #
edge $-1 $575 0 $575 6.2831853071796004 $287 $576 forward 7 unknown #
vertex $-1 $290 $577 #
ellipse-curve $-1 40.657941084498816 -6.6448870656108951 5.9544549815350649 0.6560590369687036 0 0.75470957328743171 0.37735478664371586 0 -0.3280295184843518 1 I I #
face $-1 $-1 $438 $60 $-1 $578 forward single #
loop $-1 $-1 $579 $291 #
plane-surface $-1 42.534257026886806 0 0 -1 0 0 0 0 1 forward_v I I I I #
coedge $-1 $580 $581 $582 $583 reversed $292 $-1 #
coedge $-1 $584 $294 $296 $436 forward $184 $-1 #
coedge $-1 $294 $584 $580 $585 forward $184 $-1 #
coedge $-1 $582 $297 $294 $433 forward $438 $-1 #
edge $-1 $440 -7.8814607771562866 $586 -1.0370731923371208 $432 $587 forward 7 unknown #
coedge $-1 $588 $589 $295 $435 forward $427 $-1 #
edge $-1 $590 -57.844295483078035 $439 -54.582182284089164 $434 $591 forward 7 unknown #
edge $-1 $440 80.096228001497991 $590 85.068514053773612 $296 $592 forward 7 unknown #
coedge $-1 $297 $582 $588 $593 forward $438 $-1 #
loop $-1 $-1 $582 $426 #
vertex $-1 $435 $594 #
vertex $-1 $298 $595 #
straight-curve $-1 17.071101245822391 12.34072776190299 7.5855115810295075 -1 0 0 I I #
coedge $-1 $442 $442 $-1 $596 reversed $301 $-1 #
edge $-1 $597 0 $597 6.2831853071796004 $302 $598 forward 7 unknown #
vertex $-1 $305 $599 #
ellipse-curve $-1 40.657941084498816 6.8652176940476544 5.9544549815350649 0.6560590369687036 0 0.75470957328743171 0.37735478664371586 0 -0.3280295184843518 1 I I #
coedge $-1 $446 $446 $-1 $600 reversed $308 $-1 #
edge $-1 $601 0 $601 6.2831853071796004 $309 $602 forward 7 unknown #
vertex $-1 $312 $603 #
ellipse-curve $-1 40.657941084498816 8.9185339694934065 5.9544549815350649 0.6560590369687036 0 0.75470957328743171 0.37735478664371586 0 -0.3280295184843518 1 I I #
coedge $-1 $450 $450 $-1 $604 reversed $315 $-1 #
edge $-1 $605 0 $605 6.2831853071796004 $316 $606 forward 7 unknown #
vertex $-1 $319 $607 #
ellipse-curve $-1 40.657941084498816 10.971850244939155 5.9544549815350649 0.6560590369687036 0 0.75470957328743171 0.37735478664371586 0 -0.3280295184843518 1 I I #
face $-1 $-1 $466 $48 $-1 $608 reversed single #
loop $-1 $-1 $609 $320 #
plane-surface $-1 0 20.381836503423056 0 0 -1 0 0 0 -1 forward_v I I I I #
coedge $-1 $472 $471 $610 $611 forward $321 $-1 #
coedge $-1 $323 $333 $612 $613 forward $203 $-1 #
coedge $-1 $465 $329 $323 $460 reversed $466 $-1 #
edge $-1 $614 -20.381836503423056 $334 20.381836503423056 $459 $615 forward 7 unknown #
coedge $-1 $325 $324 $471 $616 forward $129 $-1 #
coedge $-1 $609 $610 $324 $463 reversed $455 $-1 #
edge $-1 $468 -42.534257026886806 $617 42.534257026886806 $462 $618 forward 7 unknown #
edge $-1 $473 -42.534257026886806 $467 42.534257026886806 $328 $619 forward 7 unknown #
coedge $-1 $326 $459 $609 $620 reversed $466 $-1 #
loop $-1 $-1 $329 $454 #
vertex $-1 $327 $621 #
vertex $-1 $327 $622 #
straight-curve $-1 42.534257026886806 0 7.5855115810295057 0 1 0 I I #
straight-curve $-1 42.534257026886806 -20.381836503423056 0 0 0 -1 I I #
coedge $-1 $457 $331 $461 $616 reversed $321 $-1 #
coedge $-1 $331 $457 $333 $475 reversed $321 $-1 #
vertex $-1 $616 $623 #
straight-curve $-1 -42.534257026886806 -20.381836503423056 0 0 0 -1 I I #
edge $-1 $335 -20.381836503423056 $624 20.381836503423056 $472 $625 forward 7 unknown #
point $-1 42.534257026886806 -20.381836503423056 -7.5855115810295057 #
point $-1 -42.534257026886806 -20.381836503423056 -7.5855115810295057 #
face $-1 $-1 $491 $49 $-1 $626 reversed single #
plane-surface $-1 -38.993116963702022 -23.146935696296062 0 -1 0 0 0 0 1 forward_v I I I I #
coedge $-1 $627 $628 $629 $630 forward $338 $-1 #
coedge $-1 $629 $340 $490 $631 reversed $211 $-1 #
coedge $-1 $340 $629 $341 $485 reversed $211 $-1 #
edge $-1 $487 -7.5855115810295057 $492 7.5855115810295057 $340 $632 forward 7 unknown #
coedge $-1 $342 $341 $628 $633 forward $133 $-1 #
edge $-1 $487 20.381836503423056 $634 25.912034889169067 $482 $635 forward 7 unknown #
edge $-1 $636 -2.7650991928730058 $350 2.7650991928730058 $347 $637 forward 7 unknown #
vertex $-1 $485 $638 #
straight-curve $-1 0 -20.381836503423056 7.5855115810295057 -1 0 0 I I #
coedge $-1 $639 $345 $348 $495 forward $491 $-1 #
coedge $-1 $345 $639 $481 $631 forward $491 $-1 #
loop $-1 $-1 $345 $478 #
vertex $-1 $483 $640 #
straight-curve $-1 0 -20.381836503423056 -7.5855115810295057 1 0 0 I I #
coedge $-1 $348 $347 $641 $642 forward $349 $-1 #
edge $-1 $351 -2.7650991928730058 $643 2.7650991928730058 $348 $644 forward 7 unknown #
point $-1 -38.993116963702022 -20.381836503423056 7.5855115810295057 #
point $-1 -38.993116963702022 -20.381836503423056 -7.5855115810295057 #
plane-surface $-1 0 0 7.5855115810295057 0 0 1 1 0 0 forward_v I I I I #
coedge $-1 $509 $508 $501 $645 forward $354 $-1 #
coedge $-1 $501 $356 $358 $505 reversed $219 $-1 #
coedge $-1 $356 $500 $499 $645 reversed $219 $-1 #
coedge $-1 $364 $359 $356 $503 forward $365 $-1 #
edge $-1 $506 -12.002156432733663 $646 -1.8986884922798737 $502 $647 forward 7 unknown #
coedge $-1 $358 $357 $509 $648 reversed $137 $-1 #
edge $-1 $649 0 $506 12.047004369107741 $500 $650 forward 7 unknown #
vertex $-1 $360 $651 #
straight-curve $-1 -32.430789086433016 -5.4493083123202162 7.5855115810295057 0 1 0 I I #
coedge $-1 $499 $361 $364 $513 reversed $354 $-1 #
coedge $-1 $361 $499 $504 $648 forward $354 $-1 #
vertex $-1 $362 $652 #
straight-curve $-1 -42.534257026886806 -14.851638117677044 36.184350631094127 0 0 1 I I #
straight-curve $-1 -42.534257026886806 -14.851638117677044 1.0242426606511117 -0.83867056331134215 0 -0.54463904215088732 I I #
edge $-1 $646 6.9455951316038202 $366 14.851638117677044 $508 $653 forward 7 unknown #
point $-1 -42.534257026886806 -14.851638117677044 7.5855115810295057 #
point $-1 -32.430789086433016 -14.851638117677044 7.5855115810295057 #
edge $-1 $654 1 $654 0 $369 $-1 forward 7 unknown #
vertex $-1 $370 $655 #
ellipse-curve $-1 -36.601646239196356 -12.592768693084695 2.9484457974586156 -0.54463904215088732 0 0.83867056331134215 0.83867056331134215 0 0.54463904215088732 1 I I #
point $-1 -36.643852493348568 -12.592768693084695 4.8495161629911951 #
edge $-1 $656 1 $656 0 $373 $-1 forward 7 unknown #
vertex $-1 $374 $657 #
ellipse-curve $-1 -36.601646239196356 -9.2044645561961715 2.9484457974586156 -0.54463904215088732 0 0.83867056331134215 0.83867056331134215 0 0.54463904215088732 1 I I #
point $-1 -36.643852493348568 -9.2044645561961715 4.8495161629911951 #
loop $-1 $-1 $384 $377 #
plane-surface $-1 -42.534257026886806 0 0 1 0 0 0 0 -1 forward_v I I I I #
coedge $-1 $658 $659 $381 $528 forward $378 $-1 #
coedge $-1 $381 $380 $533 $660 reversed $151 $-1 #
edge $-1 $530 5.5101890104629963 $661 17.557193379570737 $526 $662 forward 7 unknown #
coedge $-1 $387 $382 $659 $663 forward $241 $-1 #
vertex $-1 $663 $664 #
straight-curve $-1 -32.430789086433016 8.2144075051932237 7.5855115810295057 0 1 0 I I #
coedge $-1 $665 $384 $387 $537 reversed $524 $-1 #
coedge $-1 $384 $665 $527 $660 forward $524 $-1 #
vertex $-1 $385 $666 #
straight-curve $-1 -42.534257026886806 12.475793517349835 36.184350631094127 0 0 1 I I #
straight-curve $-1 -42.534257026886806 12.475793517349835 1.0242426606511117 -0.83867056331134215 0 -0.54463904215088732 I I #
edge $-1 $667 -20.381836503423056 $388 -12.475793517349835 $532 $668 forward 7 unknown #
point $-1 -42.534257026886806 12.475793517349835 7.5855115810295057 #
point $-1 -32.430789086433016 12.475793517349835 7.5855115810295057 #
edge $-1 $669 1 $669 0 $391 $-1 forward 7 unknown #
vertex $-1 $392 $670 #
ellipse-curve $-1 -36.601646239196356 14.73466294194218 2.9484457974586156 -0.54463904215088732 0 0.83867056331134215 0.83867056331134215 0 0.54463904215088732 1 I I #
point $-1 -36.643852493348568 14.73466294194218 4.8495161629911951 #
edge $-1 $671 1 $671 0 $395 $-1 forward 7 unknown #
vertex $-1 $396 $672 #
ellipse-curve $-1 -36.601646239196356 18.122967078830701 2.9484457974586156 -0.54463904215088732 0 0.83867056331134215 0.83867056331134215 0 0.54463904215088732 1 I I #
point $-1 -36.643852493348568 18.122967078830701 4.8495161629911951 #
loop $-1 $-1 $407 $399 #
plane-surface $-1 42.534257026886806 0 0 -1 0 0 0 0 1 forward_v I I I I #
coedge $-1 $551 $402 $404 $555 reversed $263 $-1 #
coedge $-1 $402 $550 $673 $674 reversed $263 $-1 #
coedge $-1 $410 $405 $402 $553 forward $400 $-1 #
edge $-1 $556 21.710523896288429 $675 25.463155781064415 $552 $676 forward 7 unknown #
coedge $-1 $404 $403 $559 $677 reversed $165 $-1 #
edge $-1 $678 -85.068514053773612 $556 -80.096228001497991 $550 $679 forward 7 unknown #
vertex $-1 $406 $680 #
straight-curve $-1 38.781625142110805 -4.3491016705283219 7.5855115810295075 0 -1 0 I I #
coedge $-1 $673 $407 $410 $563 reversed $548 $-1 #
coedge $-1 $407 $673 $554 $677 forward $548 $-1 #
vertex $-1 $408 $681 #
straight-curve $-1 42.534257026886806 -5.2760095486470613 62.167693865118672 0 0 1 I I #
straight-curve $-1 -21.66776491483256 -5.2760095486470613 60.133365788517978 0.75470957328743171 0 -0.6560590369687036 I I #
edge $-1 $675 -12.120397133466227 $411 -5.2760095486470613 $558 $682 forward 7 unknown #
point $-1 42.534257026886806 -5.2760095486470613 7.5855115810295057 #
point $-1 38.781625142110819 -5.2760095486470613 7.5855115810295004 #
edge $-1 $683 1 $683 0 $414 $-1 forward 7 unknown #
vertex $-1 $415 $684 #
ellipse-curve $-1 39.851126820659914 -10.751519616502394 5.0263213617353548 0.6560590369687036 0 0.75470957328743171 0.37735478664371586 0 -0.3280295184843518 1 I I #
point $-1 41.03529587114253 -10.751519616502394 5.62642546305071 #
edge $-1 $685 1 $685 0 $418 $-1 forward 7 unknown #
vertex $-1 $419 $686 #
ellipse-curve $-1 39.851126820659914 -8.6982033410566437 5.0263213617353548 0.6560590369687036 0 0.75470957328743171 0.37735478664371586 0 -0.3280295184843518 1 I I #
point $-1 41.03529587114253 -8.6982033410566437 5.62642546305071 #
edge $-1 $687 1 $687 0 $422 $-1 forward 7 unknown #
vertex $-1 $423 $688 #
ellipse-curve $-1 39.851126820659914 -6.6448870656108951 5.0263213617353548 0.6560590369687036 0 0.75470957328743171 0.37735478664371586 0 -0.3280295184843518 1 I I #
point $-1 41.03529587114253 -6.6448870656108951 5.62642546305071 #
plane-surface $-1 0 0 7.5855115810295057 0 0 1 1 0 0 forward_v I I I I #
coedge $-1 $589 $588 $581 $689 forward $427 $-1 #
coedge $-1 $581 $429 $431 $585 reversed $292 $-1 #
coedge $-1 $429 $580 $579 $689 reversed $292 $-1 #
coedge $-1 $437 $432 $429 $583 forward $438 $-1 #
edge $-1 $586 21.710523896288429 $690 25.463155781064415 $582 $691 forward 7 unknown #
coedge $-1 $431 $430 $589 $692 reversed $184 $-1 #
edge $-1 $693 -85.068514053773612 $586 -80.096228001497991 $580 $694 forward 7 unknown #
vertex $-1 $433 $695 #
straight-curve $-1 38.781625142110805 4.4592669847467032 7.5855115810295075 0 -1 0 I I #
coedge $-1 $579 $434 $437 $593 reversed $427 $-1 #
coedge $-1 $434 $579 $584 $692 forward $427 $-1 #
vertex $-1 $435 $696 #
straight-curve $-1 42.534257026886806 12.34072776190299 62.167693865118672 0 0 1 I I #
straight-curve $-1 -21.66776491483256 12.34072776190299 60.133365788517978 0.75470957328743171 0 -0.6560590369687036 I I #
edge $-1 $690 5.4963401770838241 $439 12.34072776190299 $588 $697 forward 7 unknown #
point $-1 42.534257026886806 12.34072776190299 7.5855115810295057 #
point $-1 38.781625142110819 12.34072776190299 7.5855115810295004 #
edge $-1 $698 1 $698 0 $442 $-1 forward 7 unknown #
vertex $-1 $443 $699 #
ellipse-curve $-1 39.851126820659914 6.8652176940476544 5.0263213617353548 0.6560590369687036 0 0.75470957328743171 0.37735478664371586 0 -0.3280295184843518 1 I I #
point $-1 41.03529587114253 6.8652176940476544 5.62642546305071 #
edge $-1 $700 1 $700 0 $446 $-1 forward 7 unknown #
vertex $-1 $447 $701 #
ellipse-curve $-1 39.851126820659914 8.9185339694934065 5.0263213617353548 0.6560590369687036 0 0.75470957328743171 0.37735478664371586 0 -0.3280295184843518 1 I I #
point $-1 41.03529587114253 8.9185339694934065 5.62642546305071 #
edge $-1 $702 1 $702 0 $450 $-1 forward 7 unknown #
vertex $-1 $451 $703 #
ellipse-curve $-1 39.851126820659914 10.971850244939155 5.0263213617353548 0.6560590369687036 0 0.75470957328743171 0.37735478664371586 0 -0.3280295184843518 1 I I #
point $-1 41.03529587114253 10.971850244939155 5.62642546305071 #
plane-surface $-1 42.534257026886806 0 0 -1 0 0 0 0 1 forward_v I I I I #
coedge $-1 $612 $462 $465 $620 forward $455 $-1 #
coedge $-1 $462 $612 $457 $611 reversed $455 $-1 #
edge $-1 $617 -7.5855115810295057 $624 7.5855115810295057 $610 $704 forward 7 unknown #
coedge $-1 $610 $609 $458 $613 reversed $455 $-1 #
edge $-1 $624 -42.534257026886806 $614 42.534257026886806 $612 $705 forward 7 unknown #
vertex $-1 $460 $706 #
straight-curve $-1 42.534257026886806 0 -7.5855115810295057 0 -1 0 I I #
edge $-1 $617 -20.381836503423056 $473 20.381836503423056 $471 $707 forward 7 unknown #
vertex $-1 $463 $708 #
straight-curve $-1 0 20.381836503423056 7.5855115810295057 -1 0 0 I I #
straight-curve $-1 0 -20.381836503423056 7.5855115810295057 1 0 0 I I #
edge $-1 $468 -7.5855115810295057 $614 7.5855115810295057 $465 $709 forward 7 unknown #
point $-1 42.534257026886806 -20.381836503423056 7.5855115810295057 #
point $-1 42.534257026886806 20.381836503423056 7.5855115810295057 #
point $-1 -42.534257026886806 -20.381836503423056 7.5855115810295057 #
vertex $-1 $613 $710 #
straight-curve $-1 -42.534257026886806 0 -7.5855115810295057 0 1 0 I I #
plane-surface $-1 0 0 -7.5855115810295057 0 0 1 1 0 0 forward_v I I I I #
coedge $-1 $641 $480 $639 $711 reversed $338 $-1 #
coedge $-1 $480 $641 $484 $633 reversed $338 $-1 #
coedge $-1 $482 $481 $480 $630 reversed $211 $-1 #
edge $-1 $634 -7.5855115810295057 $712 7.5855115810295057 $629 $713 forward 7 unknown #
edge $-1 $712 -25.912034889169067 $492 -20.381836503423056 $481 $714 forward 7 unknown #
straight-curve $-1 -42.534257026886806 -20.381836503423056 0 0 0 -1 I I #
edge $-1 $634 -1.770570031592392 $636 1.770570031592392 $628 $715 forward 7 unknown #
vertex $-1 $485 $716 #
straight-curve $-1 -42.534257026886806 0 7.5855115810295057 0 -1 0 I I #
vertex $-1 $486 $717 #
straight-curve $-1 -38.993116963702022 -23.146935696296062 7.5855115810295057 0 1 0 I I #
point $-1 -42.534257026886806 -20.381836503423056 7.5855115810295057 #
coedge $-1 $490 $489 $627 $711 forward $491 $-1 #
point $-1 -42.534257026886806 -20.381836503423056 -7.5855115810295057 #
coedge $-1 $628 $627 $494 $642 reversed $338 $-1 #
edge $-1 $636 -7.5855115810295057 $643 7.5855115810295057 $494 $718 forward 7 unknown #
vertex $-1 $642 $719 #
straight-curve $-1 -38.993116963702022 -23.146935696296062 -7.5855115810295057 0 -1 0 I I #
edge $-1 $646 28.598839050064619 $649 35.160107970443015 $499 $720 forward 7 unknown #
vertex $-1 $513 $721 #
straight-curve $-1 -44.43294551916668 -6.9455951316038202 7.5855115810295075 -1 0 0 I I #
edge $-1 $649 1.4962868192836041 $510 9.4023298053568283 $509 $722 forward 7 unknown #
vertex $-1 $648 $723 #
straight-curve $-1 -42.534257026886806 -6.9455951316038202 1.0242426606511117 0.83867056331134215 0 0.54463904215088732 I I #
point $-1 -32.430789086433016 -6.9455951316038202 7.5855115810295057 #
point $-1 -42.534257026886806 -14.851638117677044 1.0242426606511117 #
straight-curve $-1 -42.534257026886806 0 7.5855115810295057 0 -1 0 I I #
vertex $-1 $516 $724 #
point $-1 -35.762975675885009 -12.592768693084695 3.4930848396095029 #
vertex $-1 $520 $725 #
point $-1 -35.762975675885009 -9.2044645561961715 3.4930848396095029 #
coedge $-1 $659 $526 $665 $726 reversed $378 $-1 #
coedge $-1 $526 $658 $529 $663 reversed $378 $-1 #
edge $-1 $661 -12.167428998229836 $534 -4.2613860121566116 $533 $727 forward 7 unknown #
vertex $-1 $528 $728 #
straight-curve $-1 -27.809555765076048 20.381836503423056 10.586575645758417 -0.83867056331134215 0 -0.54463904215088732 I I #
edge $-1 $530 32.430789086433016 $667 42.534257026886806 $659 $729 forward 7 unknown #
point $-1 -32.430789086433016 20.38183650342306 7.5855115810295057 #
coedge $-1 $533 $532 $658 $726 forward $524 $-1 #
point $-1 -42.534257026886806 12.475793517349835 1.0242426606511117 #
vertex $-1 $663 $730 #
straight-curve $-1 -42.534257026886806 0 7.5855115810295057 0 -1 0 I I #
vertex $-1 $540 $731 #
point $-1 -35.762975675885009 14.73466294194218 3.4930848396095029 #
vertex $-1 $544 $732 #
point $-1 -35.762975675885009 18.122967078830701 3.4930848396095029 #
coedge $-1 $559 $558 $551 $674 forward $548 $-1 #
edge $-1 $675 54.582182284089164 $678 57.844295483078035 $673 $733 forward 7 unknown #
vertex $-1 $563 $734 #
straight-curve $-1 17.071101245822391 -12.120397133466227 7.5855115810295075 1 0 0 I I #
edge $-1 $678 -7.7712954629379052 $560 -0.92690787811873943 $559 $735 forward 7 unknown #
vertex $-1 $677 $736 #
straight-curve $-1 -21.66776491483256 -12.120397133466227 60.133365788517978 -0.75470957328743171 0 0.6560590369687036 I I #
point $-1 38.781625142110819 -12.120397133466227 7.5855115810295004 #
point $-1 42.534257026886806 -5.2760095486470613 4.3233983820406365 #
straight-curve $-1 42.534257026886806 0 7.5855115810295057 0 1 0 I I #
vertex $-1 $566 $737 #
point $-1 40.228481607303628 -10.751519616502394 4.6982918432510026 #
vertex $-1 $570 $738 #
point $-1 40.228481607303628 -8.6982033410566437 4.6982918432510026 #
vertex $-1 $574 $739 #
point $-1 40.228481607303628 -6.6448870656108951 4.6982918432510026 #
edge $-1 $690 54.582182284089164 $693 57.844295483078035 $579 $740 forward 7 unknown #
vertex $-1 $593 $741 #
straight-curve $-1 17.071101245822391 5.4963401770838241 7.5855115810295075 1 0 0 I I #
edge $-1 $693 1.0370731923371208 $590 7.8814607771562866 $589 $742 forward 7 unknown #
vertex $-1 $692 $743 #
straight-curve $-1 -21.66776491483256 5.4963401770838241 60.133365788517978 -0.75470957328743171 0 0.6560590369687036 I I #
point $-1 38.781625142110819 5.4963401770838241 7.5855115810295004 #
point $-1 42.534257026886806 12.34072776190299 4.3233983820406365 #
straight-curve $-1 42.534257026886806 0 7.5855115810295057 0 1 0 I I #
vertex $-1 $596 $744 #
point $-1 40.228481607303628 6.8652176940476544 4.6982918432510026 #
vertex $-1 $600 $745 #
point $-1 40.228481607303628 8.9185339694934065 4.6982918432510026 #
vertex $-1 $604 $746 #
point $-1 40.228481607303628 10.971850244939155 4.6982918432510026 #
straight-curve $-1 -42.534257026886806 20.381836503423056 0 0 0 -1 I I #
straight-curve $-1 0 20.381836503423056 -7.5855115810295057 1 0 0 I I #
point $-1 42.534257026886806 20.381836503423056 -7.5855115810295057 #
straight-curve $-1 -42.534257026886806 0 7.5855115810295057 0 -1 0 I I #
point $-1 -42.534257026886806 20.381836503423056 7.5855115810295057 #
straight-curve $-1 42.534257026886806 20.381836503423056 0 0 0 -1 I I #
point $-1 -42.534257026886806 20.381836503423056 -7.5855115810295057 #
edge $-1 $643 -1.770570031592392 $712 1.770570031592392 $627 $747 forward 7 unknown #
vertex $-1 $631 $748 #
straight-curve $-1 -42.534257026886806 -25.912034889169067 0 0 0 -1 I I #
straight-curve $-1 -42.534257026886806 0 -7.5855115810295057 0 1 0 I I #
straight-curve $-1 -40.763686995294414 -25.912034889169067 7.5855115810295057 1 0 0 I I #
point $-1 -42.534257026886806 -25.912034889169067 7.5855115810295057 #
point $-1 -38.993116963702022 -25.912034889169067 7.5855115810295057 #
straight-curve $-1 -38.993116963702022 -25.912034889169067 0 0 0 -1 I I #
point $-1 -38.993116963702022 -25.912034889169067 -7.5855115810295057 #
straight-curve $-1 -42.534257026886806 -6.9455951316038202 36.184350631094127 0 0 -1 I I #
point $-1 -42.534257026886806 -6.9455951316038202 7.5855115810295057 #
straight-curve $-1 -42.534257026886806 -5.4493083123202162 1.0242426606511124 0 -1 0 I I #
point $-1 -42.534257026886806 -6.9455951316038202 1.0242426606511117 #
point $-1 -36.057007197045465 -12.592768693084695 2.1097752341472735 #
point $-1 -36.057007197045465 -9.2044645561961715 2.1097752341472735 #
edge $-1 $667 -7.5855115810295057 $661 -1.0242426606511117 $658 $749 forward 7 unknown #
straight-curve $-1 -42.534257026886806 8.2144075051932237 1.0242426606511124 0 -1 0 I I #
point $-1 -42.534257026886806 20.38183650342306 1.0242426606511117 #
straight-curve $-1 0 20.381836503423056 7.5855115810295057 -1 0 0 I I #
point $-1 -42.534257026886806 20.381836503423056 7.5855115810295057 #
point $-1 -36.057007197045465 14.73466294194218 2.1097752341472735 #
point $-1 -36.057007197045465 18.122967078830701 2.1097752341472735 #
straight-curve $-1 42.534257026886806 -12.120397133466227 62.167693865118672 0 0 -1 I I #
point $-1 42.534257026886806 -12.120397133466227 7.5855115810295057 #
straight-curve $-1 42.534257026886806 -4.3491016705283219 4.3233983820406401 0 1 0 I I #
point $-1 42.534257026886806 -12.120397133466227 4.3233983820406365 #
point $-1 39.523097302175557 -10.751519616502394 4.6489665750916389 #
point $-1 39.523097302175557 -8.6982033410566437 4.6489665750916389 #
point $-1 39.523097302175557 -6.6448870656108951 4.6489665750916389 #
straight-curve $-1 42.534257026886806 5.4963401770838241 62.167693865118672 0 0 -1 I I #
point $-1 42.534257026886806 5.4963401770838241 7.5855115810295057 #
straight-curve $-1 42.534257026886806 4.4592669847467032 4.3233983820406401 0 1 0 I I #
point $-1 42.534257026886806 5.4963401770838241 4.3233983820406365 #
point $-1 39.523097302175557 6.8652176940476544 4.6489665750916389 #
point $-1 39.523097302175557 8.9185339694934065 4.6489665750916389 #
point $-1 39.523097302175557 10.971850244939155 4.6489665750916389 #
straight-curve $-1 -40.763686995294414 -25.912034889169067 -7.5855115810295057 -1 0 0 I I #
point $-1 -42.534257026886806 -25.912034889169067 -7.5855115810295057 #
straight-curve $-1 -42.534257026886806 20.381836503423056 0 0 0 -1 I I #
End-of-ACIS-data 