500 0 15 0           
7 Unknown 11 ACIS 5.0 NT 24 Fri Mar 26 15:51:09 1999 
-1 9.9999999999999995e-007 1e-010 
body $-1 $15 $-1 $16 #
body $-1 $17 $-1 $18 #
body $-1 $19 $-1 $20 #
body $-1 $21 $-1 $22 #
body $-1 $23 $-1 $24 #
body $-1 $25 $-1 $26 #
body $-1 $27 $-1 $28 #
body $-1 $29 $-1 $30 #
body $-1 $31 $-1 $32 #
body $-1 $33 $-1 $34 #
body $-1 $35 $-1 $36 #
body $-1 $37 $-1 $38 #
body $-1 $39 $-1 $40 #
body $-1 $41 $-1 $42 #
body $-1 $43 $-1 $44 #
lump $-1 $-1 $45 $0 #
transform $-1 1 0 0 0 1 0 0 0 1 78.352000488296142 48.59320912878983 19.242566760784094 1 rotate no_reflect no_shear #
lump $-1 $-1 $46 $1 #
transform $-1 1 0 0 0 1 0 0 0 1 78.352000488296142 48.59320912878983 19.242566760784094 1 rotate no_reflect no_shear #
lump $-1 $-1 $47 $2 #
transform $-1 1 0 0 0 1 0 0 0 1 78.352000488296142 48.59320912878983 19.242566760784094 1 rotate no_reflect no_shear #
lump $-1 $-1 $48 $3 #
transform $-1 1 0 0 0 1 0 0 0 1 78.352000488296142 48.59320912878983 19.242566760784094 1 rotate no_reflect no_shear #
lump $-1 $-1 $49 $4 #
transform $-1 1 0 0 0 1 0 0 0 1 78.352000488296142 48.59320912878983 19.242566760784094 1 rotate no_reflect no_shear #
lump $-1 $-1 $50 $5 #
transform $-1 1 0 0 0 1 0 0 0 1 78.352000488296142 48.59320912878983 19.242566760784094 1 rotate no_reflect no_shear #
lump $-1 $-1 $51 $6 #
transform $-1 1 0 0 0 1 0 0 0 1 78.352000488296142 48.59320912878983 19.242566760784094 1 rotate no_reflect no_shear #
lump $-1 $-1 $52 $7 #
transform $-1 1 0 0 0 1 0 0 0 1 78.352000488296142 48.59320912878983 19.242566760784094 1 rotate no_reflect no_shear #
lump $-1 $-1 $53 $8 #
transform $-1 1 0 0 0 1 0 0 0 1 78.352000488296142 48.59320912878983 19.242566760784094 1 rotate no_reflect no_shear #
lump $-1 $-1 $54 $9 #
transform $-1 1 0 0 0 1 0 0 0 1 78.352000488296142 48.59320912878983 19.242566760784094 1 rotate no_reflect no_shear #
lump $-1 $-1 $55 $10 #
transform $-1 1 0 0 0 1 0 0 0 1 78.352000488296142 48.59320912878983 19.242566760784094 1 rotate no_reflect no_shear #
lump $-1 $-1 $56 $11 #
transform $-1 1 0 0 0 1 0 0 0 1 78.352000488296142 48.59320912878983 19.242566760784094 1 rotate no_reflect no_shear #
lump $-1 $-1 $57 $12 #
transform $-1 1 0 0 0 1 0 0 0 1 78.352000488296142 48.59320912878983 19.242566760784094 1 rotate no_reflect no_shear #
lump $-1 $-1 $58 $13 #
transform $-1 1 0 0 0 1 0 0 0 1 78.352000488296142 48.59320912878983 19.242566760784094 1 rotate no_reflect no_shear #
lump $-1 $-1 $59 $14 #
transform $-1 1 0 0 0 1 0 0 0 1 78.352000488296142 48.59320912878983 19.242566760784094 1 rotate no_reflect no_shear #
shell $-1 $-1 $-1 $60 $-1 $15 #
shell $-1 $-1 $-1 $61 $-1 $17 #
shell $-1 $-1 $-1 $62 $-1 $19 #
shell $-1 $-1 $-1 $63 $-1 $21 #
shell $-1 $-1 $-1 $64 $-1 $23 #
shell $-1 $-1 $-1 $65 $-1 $25 #
shell $-1 $-1 $-1 $66 $-1 $27 #
shell $-1 $-1 $-1 $67 $-1 $29 #
shell $-1 $-1 $-1 $68 $-1 $31 #
shell $-1 $-1 $-1 $69 $-1 $33 #
shell $-1 $-1 $-1 $70 $-1 $35 #
shell $-1 $-1 $-1 $71 $-1 $37 #
shell $-1 $-1 $-1 $72 $-1 $39 #
shell $-1 $-1 $-1 $73 $-1 $41 #
shell $-1 $-1 $-1 $74 $-1 $43 #
face $-1 $75 $76 $45 $-1 $77 reversed single #
face $-1 $78 $79 $46 $-1 $80 forward single #
face $-1 $81 $82 $47 $-1 $83 forward single #
face $-1 $84 $85 $48 $-1 $86 reversed single #
face $-1 $87 $88 $49 $-1 $89 forward single #
face $-1 $90 $91 $50 $-1 $92 forward single #
face $-1 $93 $94 $51 $-1 $95 reversed single #
face $-1 $96 $97 $52 $-1 $98 forward single #
face $-1 $99 $100 $53 $-1 $101 forward single #
face $-1 $102 $103 $54 $-1 $104 reversed single #
face $-1 $105 $106 $55 $-1 $107 forward single #
face $-1 $108 $109 $56 $-1 $110 forward single #
face $-1 $111 $112 $57 $-1 $113 reversed single #
face $-1 $114 $115 $58 $-1 $116 forward single #
face $-1 $117 $118 $59 $-1 $119 forward single #
face $-1 $120 $121 $45 $-1 $122 forward single #
loop $-1 $-1 $123 $60 #
plane-surface $-1 78.352000488296142 0 0 -1 0 0 0 0 1 forward_v I I I I #
face $-1 $124 $125 $46 $-1 $126 forward single #
loop $-1 $-1 $127 $61 #
plane-surface $-1 -78.352000488296142 0 0 1 0 0 0 0 -1 forward_v I I I I #
face $-1 $128 $129 $47 $-1 $130 reversed single #
loop $-1 $-1 $131 $62 #
plane-surface $-1 78.352000488296142 0 0 -1 0 0 0 0 1 forward_v I I I I #
face $-1 $132 $133 $48 $-1 $134 reversed single #
loop $-1 $-1 $135 $63 #
plane-surface $-1 -48.923184317892535 84.387436075741419 180.93610284176867 1 0 0 0 -0.68199836817093118 -0.7313536940579346 forward_v I I I I #
face $-1 $136 $137 $49 $-1 $138 forward single #
loop $-1 $139 $140 $64 #
cone-surface $-1 -44.869880232305619 37.128510455628295 8.3874510837938345 0 -0.68199836817093118 -0.7313536940579346 1.5 0 0 1 I I 0 1 1.5 forward I I I I #
face $-1 $141 $142 $50 $-1 $143 forward single #
loop $-1 $144 $145 $65 #
cone-surface $-1 -38.789924103925237 37.128510455628295 8.3874510837938345 0 -0.68199836817093118 -0.7313536940579346 1.5 0 0 1 I I 0 1 1.5 forward I I I I #
face $-1 $146 $147 $51 $-1 $148 reversed single #
loop $-1 $-1 $149 $66 #
plane-surface $-1 -21.036582872482242 84.387436075741419 180.93610284176867 1 0 0 0 -0.68199836817093118 -0.7313536940579346 forward_v I I I I #
face $-1 $150 $151 $52 $-1 $152 forward single #
loop $-1 $153 $154 $67 #
cone-surface $-1 -16.983278786895326 37.128510455628295 8.3874510837938345 0 -0.68199836817093118 -0.7313536940579346 1.5 0 0 1 I I 0 1 1.5 forward I I I I #
face $-1 $155 $156 $53 $-1 $157 forward single #
loop $-1 $158 $159 $68 #
cone-surface $-1 -10.903322658514952 37.128510455628295 8.3874510837938345 0 -0.68199836817093118 -0.7313536940579346 1.5 0 0 1 I I 0 1 1.5 forward I I I I #
face $-1 $160 $161 $54 $-1 $162 reversed single #
loop $-1 $-1 $163 $69 #
plane-surface $-1 6.8500185729280485 84.387436075741419 180.93610284176867 1 0 0 0 -0.68199836817093118 -0.7313536940579346 forward_v I I I I #
face $-1 $164 $165 $55 $-1 $166 forward single #
loop $-1 $167 $168 $70 #
cone-surface $-1 10.903322658514966 37.128510455628295 8.3874510837938345 0 -0.68199836817093118 -0.7313536940579346 1.5 0 0 1 I I 0 1 1.5 forward I I I I #
face $-1 $169 $170 $56 $-1 $171 forward single #
loop $-1 $172 $173 $71 #
cone-surface $-1 16.98327878689534 37.128510455628295 8.3874510837938345 0 -0.68199836817093118 -0.7313536940579346 1.5 0 0 1 I I 0 1 1.5 forward I I I I #
face $-1 $174 $175 $57 $-1 $176 reversed single #
loop $-1 $-1 $177 $72 #
plane-surface $-1 34.736620018338343 84.387436075741419 180.93610284176867 1 0 0 0 -0.68199836817093118 -0.7313536940579346 forward_v I I I I #
face $-1 $178 $179 $58 $-1 $180 forward single #
loop $-1 $181 $182 $73 #
cone-surface $-1 38.789924103925259 37.128510455628295 8.3874510837938345 0 -0.68199836817093118 -0.7313536940579346 1.5 0 0 1 I I 0 1 1.5 forward I I I I #
face $-1 $183 $184 $59 $-1 $185 forward single #
loop $-1 $186 $187 $74 #
cone-surface $-1 44.869880232305633 37.128510455628295 8.3874510837938345 0 -0.68199836817093118 -0.7313536940579346 1.5 0 0 1 I I 0 1 1.5 forward I I I I #
face $-1 $188 $189 $45 $-1 $190 reversed single #
loop $-1 $-1 $191 $75 #
plane-surface $-1 0 0 19.242566760784094 0 0 1 1 0 0 forward_v I I I I #
coedge $-1 $192 $193 $194 $195 reversed $76 $-1 #
face $-1 $196 $197 $46 $-1 $198 reversed single #
loop $-1 $-1 $199 $78 #
plane-surface $-1 0 0 19.242566760784094 0 0 1 1 0 0 forward_v I I I I #
coedge $-1 $200 $201 $202 $203 forward $79 $-1 #
face $-1 $204 $205 $47 $-1 $206 reversed single #
loop $-1 $-1 $207 $81 #
plane-surface $-1 0 -48.59320912878983 0 0 1 0 0 0 1 forward_v I I I I #
coedge $-1 $208 $209 $210 $211 forward $82 $-1 #
face $-1 $212 $213 $48 $-1 $214 reversed single #
loop $-1 $-1 $215 $84 #
plane-surface $-1 -41.829902168115424 -22.484436876150525 66.330052853879721 0 0.68199836817093118 0.7313536940579346 1 0 0 forward_v I I I I #
coedge $-1 $216 $217 $218 $219 reversed $85 $-1 #
face $-1 $-1 $220 $49 $-1 $221 forward single #
loop $-1 $222 $223 $87 #
cone-surface $-1 -44.869880232305619 35.44356321003054 6.5805664197358027 0 -0.68199836817093118 -0.7313536940579346 0.75 0 0 1 I I -0.70710678118654757 0.70710678118654757 0.75 forward I I I I #
loop $-1 $-1 $224 $64 #
coedge $-1 $140 $140 $225 $226 reversed $88 $-1 #
face $-1 $-1 $227 $50 $-1 $228 forward single #
loop $-1 $229 $230 $90 #
cone-surface $-1 -38.789924103925237 35.44356321003054 6.5805664197358027 0 -0.68199836817093118 -0.7313536940579346 0.75 0 0 1 I I -0.70710678118654757 0.70710678118654757 0.75 forward I I I I #
loop $-1 $-1 $231 $65 #
coedge $-1 $145 $145 $232 $233 reversed $91 $-1 #
face $-1 $234 $235 $51 $-1 $236 reversed single #
loop $-1 $-1 $237 $93 #
plane-surface $-1 -13.943300722705132 -22.484436876150525 66.330052853879721 0 0.68199836817093118 0.7313536940579346 1 0 0 forward_v I I I I #
coedge $-1 $238 $239 $240 $241 reversed $94 $-1 #
face $-1 $-1 $242 $52 $-1 $243 forward single #
loop $-1 $244 $245 $96 #
cone-surface $-1 -16.983278786895326 35.44356321003054 6.5805664197358027 0 -0.68199836817093118 -0.7313536940579346 0.75 0 0 1 I I -0.70710678118654757 0.70710678118654757 0.75 forward I I I I #
loop $-1 $-1 $246 $67 #
coedge $-1 $154 $154 $247 $248 reversed $97 $-1 #
face $-1 $-1 $249 $53 $-1 $250 forward single #
loop $-1 $251 $252 $99 #
cone-surface $-1 -10.903322658514952 35.44356321003054 6.5805664197358027 0 -0.68199836817093118 -0.7313536940579346 0.75 0 0 1 I I -0.70710678118654757 0.70710678118654757 0.75 forward I I I I #
loop $-1 $-1 $253 $68 #
coedge $-1 $159 $159 $254 $255 reversed $100 $-1 #
face $-1 $256 $257 $54 $-1 $258 reversed single #
loop $-1 $-1 $259 $102 #
plane-surface $-1 13.94330072270516 -22.484436876150525 66.330052853879721 0 0.68199836817093118 0.7313536940579346 1 0 0 forward_v I I I I #
coedge $-1 $260 $261 $262 $263 reversed $103 $-1 #
face $-1 $-1 $264 $55 $-1 $265 forward single #
loop $-1 $266 $267 $105 #
cone-surface $-1 10.903322658514966 35.44356321003054 6.5805664197358027 0 -0.68199836817093118 -0.7313536940579346 0.75 0 0 1 I I -0.70710678118654757 0.70710678118654757 0.75 forward I I I I #
loop $-1 $-1 $268 $70 #
coedge $-1 $168 $168 $269 $270 reversed $106 $-1 #
face $-1 $-1 $271 $56 $-1 $272 forward single #
loop $-1 $273 $274 $108 #
cone-surface $-1 16.98327878689534 35.44356321003054 6.5805664197358027 0 -0.68199836817093118 -0.7313536940579346 0.75 0 0 1 I I -0.70710678118654757 0.70710678118654757 0.75 forward I I I I #
loop $-1 $-1 $275 $71 #
coedge $-1 $173 $173 $276 $277 reversed $109 $-1 #
face $-1 $278 $279 $57 $-1 $280 reversed single #
loop $-1 $-1 $281 $111 #
plane-surface $-1 41.829902168115453 -22.484436876150525 66.330052853879721 0 0.68199836817093118 0.7313536940579346 1 0 0 forward_v I I I I #
coedge $-1 $282 $283 $284 $285 reversed $112 $-1 #
face $-1 $-1 $286 $58 $-1 $287 forward single #
loop $-1 $288 $289 $114 #
cone-surface $-1 38.789924103925259 35.44356321003054 6.5805664197358027 0 -0.68199836817093118 -0.7313536940579346 0.75 0 0 1 I I -0.70710678118654757 0.70710678118654757 0.75 forward I I I I #
loop $-1 $-1 $290 $73 #
coedge $-1 $182 $182 $291 $292 reversed $115 $-1 #
face $-1 $-1 $293 $59 $-1 $294 forward single #
loop $-1 $295 $296 $117 #
cone-surface $-1 44.869880232305633 35.44356321003054 6.5805664197358027 0 -0.68199836817093118 -0.7313536940579346 0.75 0 0 1 I I -0.70710678118654757 0.70710678118654757 0.75 forward I I I I #
loop $-1 $-1 $297 $74 #
coedge $-1 $187 $187 $298 $299 reversed $118 $-1 #
face $-1 $300 $301 $45 $-1 $302 reversed single #
loop $-1 $-1 $194 $120 #
plane-surface $-1 0 0 -19.242566760784094 0 0 1 1 0 0 forward_v I I I I #
coedge $-1 $303 $304 $305 $306 forward $121 $-1 #
coedge $-1 $305 $123 $307 $308 reversed $76 $-1 #
coedge $-1 $123 $305 $309 $310 forward $76 $-1 #
coedge $-1 $311 $312 $123 $195 forward $189 $-1 #
edge $-1 $313 -48.59320912878983 $314 48.59320912878983 $123 $315 forward 7 unknown #
face $-1 $316 $317 $46 $-1 $318 reversed single #
loop $-1 $-1 $319 $124 #
plane-surface $-1 -93.788077825797018 -44.926451030774757 0 1 0 0 0 0 -1 forward_v I I I I #
coedge $-1 $320 $321 $200 $322 forward $125 $-1 #
coedge $-1 $323 $127 $199 $322 reversed $79 $-1 #
coedge $-1 $127 $323 $324 $325 reversed $79 $-1 #
coedge $-1 $326 $327 $127 $203 reversed $317 $-1 #
edge $-1 $328 -19.242566760784094 $329 19.242566760784094 $202 $330 forward 7 unknown #
face $-1 $331 $332 $47 $-1 $333 reversed single #
loop $-1 $-1 $334 $128 #
plane-surface $-1 0 0 -19.242566760784094 0 0 1 1 0 0 forward_v I I I I #
coedge $-1 $335 $336 $337 $338 forward $129 $-1 #
coedge $-1 $337 $131 $334 $339 reversed $82 $-1 #
coedge $-1 $131 $337 $340 $341 reversed $82 $-1 #
coedge $-1 $342 $343 $131 $211 reversed $332 $-1 #
edge $-1 $344 -19.242566760784094 $345 19.242566760784094 $210 $346 forward 7 unknown #
face $-1 $347 $348 $48 $-1 $349 reversed single #
loop $-1 $-1 $350 $132 #
plane-surface $-1 -34.736620018338314 84.387436075741419 180.93610284176867 -1 0 0 0 0.68199836817093118 0.7313536940579346 forward_v I I I I #
coedge $-1 $351 $352 $353 $354 reversed $133 $-1 #
coedge $-1 $217 $135 $355 $356 reversed $85 $-1 #
coedge $-1 $135 $216 $351 $357 reversed $85 $-1 #
coedge $-1 $353 $358 $135 $219 forward $359 $-1 #
edge $-1 $360 -6.3994910909191205 $361 14.183009316464741 $218 $362 forward 7 unknown #
loop $-1 $-1 $225 $136 #
plane-surface $-1 -41.829902168115424 -22.484436876150525 66.330052853879721 0 0.68199836817093118 0.7313536940579346 1 0 0 forward_v I I I I #
loop $-1 $-1 $363 $87 #
coedge $-1 $223 $223 $224 $364 reversed $137 $-1 #
coedge $-1 $224 $224 $223 $364 forward $139 $-1 #
coedge $-1 $225 $225 $140 $226 forward $220 $-1 #
edge $-1 $365 1.020182200317179e-015 $365 6.2831853071796013 $225 $366 forward 7 unknown #
loop $-1 $-1 $232 $141 #
plane-surface $-1 -41.829902168115424 -22.484436876150525 66.330052853879721 0 0.68199836817093118 0.7313536940579346 1 0 0 forward_v I I I I #
loop $-1 $-1 $367 $90 #
coedge $-1 $230 $230 $231 $368 reversed $142 $-1 #
coedge $-1 $231 $231 $230 $368 forward $144 $-1 #
coedge $-1 $232 $232 $145 $233 forward $227 $-1 #
edge $-1 $369 1.020182200317179e-015 $369 6.2831853071796013 $232 $370 forward 7 unknown #
face $-1 $371 $372 $51 $-1 $373 forward single #
loop $-1 $-1 $374 $146 #
plane-surface $-1 -6.8500185729280201 84.387436075741419 180.93610284176867 -1 0 0 0 0.68199836817093118 0.7313536940579346 forward_v I I I I #
coedge $-1 $375 $376 $377 $378 reversed $147 $-1 #
coedge $-1 $239 $149 $379 $380 reversed $94 $-1 #
coedge $-1 $149 $238 $375 $381 reversed $94 $-1 #
coedge $-1 $377 $382 $149 $241 forward $372 $-1 #
edge $-1 $383 -6.3994910909191205 $384 14.183009316464741 $240 $385 forward 7 unknown #
loop $-1 $-1 $247 $150 #
plane-surface $-1 -13.943300722705132 -22.484436876150525 66.330052853879721 0 0.68199836817093118 0.7313536940579346 1 0 0 forward_v I I I I #
loop $-1 $-1 $386 $96 #
coedge $-1 $245 $245 $246 $387 reversed $151 $-1 #
coedge $-1 $246 $246 $245 $387 forward $153 $-1 #
coedge $-1 $247 $247 $154 $248 forward $242 $-1 #
edge $-1 $388 1.020182200317179e-015 $388 6.2831853071796013 $247 $389 forward 7 unknown #
loop $-1 $-1 $254 $155 #
plane-surface $-1 -13.943300722705132 -22.484436876150525 66.330052853879721 0 0.68199836817093118 0.7313536940579346 1 0 0 forward_v I I I I #
loop $-1 $-1 $390 $99 #
coedge $-1 $252 $252 $253 $391 reversed $156 $-1 #
coedge $-1 $253 $253 $252 $391 forward $158 $-1 #
coedge $-1 $254 $254 $159 $255 forward $249 $-1 #
edge $-1 $392 1.020182200317179e-015 $392 6.2831853071796013 $254 $393 forward 7 unknown #
face $-1 $394 $395 $54 $-1 $396 forward single #
loop $-1 $-1 $397 $160 #
plane-surface $-1 21.036582872482271 84.387436075741419 180.93610284176867 -1 0 0 0 0.68199836817093118 0.7313536940579346 forward_v I I I I #
coedge $-1 $398 $399 $400 $401 reversed $161 $-1 #
coedge $-1 $261 $163 $402 $403 reversed $103 $-1 #
coedge $-1 $163 $260 $398 $404 reversed $103 $-1 #
coedge $-1 $400 $405 $163 $263 forward $395 $-1 #
edge $-1 $406 -6.3994910909191205 $407 14.183009316464741 $262 $408 forward 7 unknown #
loop $-1 $-1 $269 $164 #
plane-surface $-1 13.94330072270516 -22.484436876150525 66.330052853879721 0 0.68199836817093118 0.7313536940579346 1 0 0 forward_v I I I I #
loop $-1 $-1 $409 $105 #
coedge $-1 $267 $267 $268 $410 reversed $165 $-1 #
coedge $-1 $268 $268 $267 $410 forward $167 $-1 #
coedge $-1 $269 $269 $168 $270 forward $264 $-1 #
edge $-1 $411 1.020182200317179e-015 $411 6.2831853071796013 $269 $412 forward 7 unknown #
loop $-1 $-1 $276 $169 #
plane-surface $-1 13.94330072270516 -22.484436876150525 66.330052853879721 0 0.68199836817093118 0.7313536940579346 1 0 0 forward_v I I I I #
loop $-1 $-1 $413 $108 #
coedge $-1 $274 $274 $275 $414 reversed $170 $-1 #
coedge $-1 $275 $275 $274 $414 forward $172 $-1 #
coedge $-1 $276 $276 $173 $277 forward $271 $-1 #
edge $-1 $415 1.020182200317179e-015 $415 6.2831853071796013 $276 $416 forward 7 unknown #
face $-1 $417 $418 $57 $-1 $419 forward single #
loop $-1 $-1 $420 $174 #
plane-surface $-1 48.923184317892563 84.387436075741419 180.93610284176867 -1 0 0 0 0.68199836817093118 0.7313536940579346 forward_v I I I I #
coedge $-1 $421 $422 $423 $424 reversed $175 $-1 #
coedge $-1 $283 $177 $425 $426 reversed $112 $-1 #
coedge $-1 $177 $282 $421 $427 reversed $112 $-1 #
coedge $-1 $423 $428 $177 $285 forward $418 $-1 #
edge $-1 $429 -6.3994910909191205 $430 14.183009316464741 $284 $431 forward 7 unknown #
loop $-1 $-1 $291 $178 #
plane-surface $-1 41.829902168115453 -22.484436876150525 66.330052853879721 0 0.68199836817093118 0.7313536940579346 1 0 0 forward_v I I I I #
loop $-1 $-1 $432 $114 #
coedge $-1 $289 $289 $290 $433 reversed $179 $-1 #
coedge $-1 $290 $290 $289 $433 forward $181 $-1 #
coedge $-1 $291 $291 $182 $292 forward $286 $-1 #
edge $-1 $434 1.020182200317179e-015 $434 6.2831853071796013 $291 $435 forward 7 unknown #
loop $-1 $-1 $298 $183 #
plane-surface $-1 41.829902168115453 -22.484436876150525 66.330052853879721 0 0.68199836817093118 0.7313536940579346 1 0 0 forward_v I I I I #
loop $-1 $-1 $436 $117 #
coedge $-1 $296 $296 $297 $437 reversed $184 $-1 #
coedge $-1 $297 $297 $296 $437 forward $186 $-1 #
coedge $-1 $298 $298 $187 $299 forward $293 $-1 #
edge $-1 $438 1.020182200317179e-015 $438 6.2831853071796013 $298 $439 forward 7 unknown #
face $-1 $440 $441 $45 $-1 $442 reversed single #
loop $-1 $-1 $443 $188 #
plane-surface $-1 0 -48.59320912878983 0 0 1 0 0 0 1 forward_v I I I I #
coedge $-1 $444 $191 $445 $446 forward $121 $-1 #
coedge $-1 $191 $444 $447 $448 forward $121 $-1 #
coedge $-1 $193 $192 $191 $306 reversed $76 $-1 #
edge $-1 $449 -48.59320912878983 $450 48.59320912878983 $305 $451 forward 7 unknown #
coedge $-1 $452 $445 $192 $308 forward $453 $-1 #
edge $-1 $450 -19.242566760784094 $313 19.242566760784094 $192 $454 forward 7 unknown #
coedge $-1 $447 $455 $193 $310 reversed $301 $-1 #
edge $-1 $449 -19.242566760784094 $314 19.242566760784094 $193 $456 forward 7 unknown #
coedge $-1 $457 $194 $455 $458 forward $189 $-1 #
coedge $-1 $194 $457 $452 $459 forward $189 $-1 #
vertex $-1 $195 $460 #
vertex $-1 $310 $461 #
straight-curve $-1 78.352000488296142 0 -19.242566760784094 0 -1 0 I I #
face $-1 $462 $463 $46 $-1 $464 reversed single #
loop $-1 $-1 $202 $196 #
plane-surface $-1 -86.07003915704658 -41.259692932759684 0 0 -1 0 0 0 -1 forward_v I I I I #
coedge $-1 $465 $466 $467 $468 forward $197 $-1 #
coedge $-1 $469 $199 $327 $470 forward $125 $-1 #
coedge $-1 $199 $469 $471 $472 forward $125 $-1 #
edge $-1 $473 -48.59320912878983 $329 -41.259692932759684 $199 $474 forward 7 unknown #
coedge $-1 $201 $200 $475 $476 reversed $79 $-1 #
coedge $-1 $477 $478 $201 $325 forward $463 $-1 #
edge $-1 $328 41.259692932759684 $479 48.59320912878983 $324 $480 forward 7 unknown #
coedge $-1 $467 $202 $478 $481 reversed $317 $-1 #
coedge $-1 $202 $467 $320 $470 reversed $317 $-1 #
vertex $-1 $325 $482 #
vertex $-1 $470 $483 #
straight-curve $-1 -78.352000488296142 -41.259692932759684 0 0 0 1 I I #
face $-1 $484 $485 $47 $-1 $486 reversed single #
loop $-1 $-1 $487 $204 #
plane-surface $-1 86.07003915704658 -41.259692932759684 0 0 -1 0 0 0 -1 forward_v I I I I #
coedge $-1 $488 $489 $208 $339 forward $205 $-1 #
coedge $-1 $490 $207 $489 $491 reversed $129 $-1 #
coedge $-1 $207 $490 $492 $493 reversed $129 $-1 #
coedge $-1 $209 $208 $207 $338 reversed $82 $-1 #
edge $-1 $494 -19.242566760784094 $495 19.242566760784094 $207 $496 forward 7 unknown #
edge $-1 $495 -48.59320912878983 $345 -41.259692932759684 $334 $497 forward 7 unknown #
coedge $-1 $492 $498 $209 $341 forward $499 $-1 #
edge $-1 $344 41.259692932759684 $494 48.59320912878983 $340 $500 forward 7 unknown #
coedge $-1 $487 $210 $498 $501 reversed $332 $-1 #
coedge $-1 $210 $487 $488 $502 reversed $332 $-1 #
vertex $-1 $341 $503 #
vertex $-1 $502 $504 #
straight-curve $-1 78.352000488296142 -41.259692932759684 0 0 0 -1 I I #
face $-1 $-1 $359 $48 $-1 $505 forward single #
loop $-1 $-1 $506 $212 #
plane-surface $-1 0 48.59320912878983 0 0 -1 0 0 0 -1 forward_v I I I I #
coedge $-1 $507 $508 $509 $510 reversed $213 $-1 #
coedge $-1 $511 $215 $217 $357 forward $133 $-1 #
coedge $-1 $215 $511 $507 $512 forward $133 $-1 #
coedge $-1 $509 $218 $215 $354 forward $359 $-1 #
edge $-1 $361 -28.008233233834822 $513 -13.821668934280602 $353 $514 forward 7 unknown #
coedge $-1 $515 $516 $216 $356 forward $348 $-1 #
edge $-1 $517 -90.418977227051514 $360 -71.22548466010025 $355 $518 forward 7 unknown #
edge $-1 $361 69.043399941528833 $517 97.186418257579632 $217 $519 forward 7 unknown #
coedge $-1 $218 $509 $515 $520 forward $359 $-1 #
loop $-1 $-1 $509 $347 #
vertex $-1 $356 $521 #
vertex $-1 $219 $522 #
straight-curve $-1 -48.923184317892535 42.19371803787071 19.242566760784086 0 -1 0 I I #
coedge $-1 $363 $363 $-1 $523 reversed $222 $-1 #
edge $-1 $524 0 $524 6.2831853071796004 $223 $525 forward 7 unknown #
vertex $-1 $226 $526 #
ellipse-curve $-1 -44.869880232305619 38.301958925097892 9.6458204773084635 0 0.68199836817093118 0.7313536940579346 1.5 0 0 1 I I #
coedge $-1 $367 $367 $-1 $527 reversed $229 $-1 #
edge $-1 $528 0 $528 6.2831853071796004 $230 $529 forward 7 unknown #
vertex $-1 $233 $530 #
ellipse-curve $-1 -38.789924103925237 38.301958925097892 9.6458204773084635 0 0.68199836817093118 0.7313536940579346 1.5 0 0 1 I I #
face $-1 $-1 $531 $51 $-1 $532 reversed single #
loop $-1 $-1 $240 $234 #
plane-surface $-1 0 0 19.242566760784094 0 0 1 1 0 0 forward_v I I I I #
coedge $-1 $533 $534 $535 $536 reversed $235 $-1 #
coedge $-1 $537 $237 $239 $381 forward $147 $-1 #
coedge $-1 $237 $537 $533 $538 forward $147 $-1 #
coedge $-1 $535 $240 $237 $378 forward $372 $-1 #
edge $-1 $384 -14.064932511129676 $539 0.12163178842454592 $377 $540 forward 7 unknown #
coedge $-1 $541 $542 $238 $380 forward $531 $-1 #
edge $-1 $543 -90.418977227051514 $383 -71.22548466010025 $379 $544 forward 7 unknown #
edge $-1 $384 69.043399941528833 $543 97.186418257579632 $239 $545 forward 7 unknown #
coedge $-1 $240 $535 $541 $546 forward $372 $-1 #
vertex $-1 $241 $547 #
vertex $-1 $241 $548 #
straight-curve $-1 -21.036582872482242 42.19371803787071 19.242566760784086 0 -1 0 I I #
coedge $-1 $386 $386 $-1 $549 reversed $244 $-1 #
edge $-1 $550 0 $550 6.2831853071796004 $245 $551 forward 7 unknown #
vertex $-1 $248 $552 #
ellipse-curve $-1 -16.983278786895326 38.301958925097892 9.6458204773084635 0 0.68199836817093118 0.7313536940579346 1.5 0 0 1 I I #
coedge $-1 $390 $390 $-1 $553 reversed $251 $-1 #
edge $-1 $554 0 $554 6.2831853071796004 $252 $555 forward 7 unknown #
vertex $-1 $255 $556 #
ellipse-curve $-1 -10.903322658514952 38.301958925097892 9.6458204773084635 0 0.68199836817093118 0.7313536940579346 1.5 0 0 1 I I #
face $-1 $-1 $557 $54 $-1 $558 reversed single #
loop $-1 $-1 $262 $256 #
plane-surface $-1 0 0 19.242566760784094 0 0 1 1 0 0 forward_v I I I I #
coedge $-1 $559 $560 $561 $562 reversed $257 $-1 #
coedge $-1 $563 $259 $261 $404 forward $161 $-1 #
coedge $-1 $259 $563 $559 $564 forward $161 $-1 #
coedge $-1 $561 $262 $259 $401 forward $395 $-1 #
edge $-1 $407 -0.12163178842453171 $565 14.06493251112969 $400 $566 forward 7 unknown #
coedge $-1 $567 $568 $260 $403 forward $557 $-1 #
edge $-1 $569 -90.418977227051514 $406 -71.22548466010025 $402 $570 forward 7 unknown #
edge $-1 $407 69.043399941528833 $569 97.186418257579632 $261 $571 forward 7 unknown #
coedge $-1 $262 $561 $567 $572 forward $395 $-1 #
vertex $-1 $263 $573 #
vertex $-1 $263 $574 #
straight-curve $-1 6.8500185729280485 42.19371803787071 19.242566760784086 0 -1 0 I I #
coedge $-1 $409 $409 $-1 $575 reversed $266 $-1 #
edge $-1 $576 0 $576 6.2831853071796004 $267 $577 forward 7 unknown #
vertex $-1 $270 $578 #
ellipse-curve $-1 10.903322658514966 38.301958925097892 9.6458204773084635 0 0.68199836817093118 0.7313536940579346 1.5 0 0 1 I I #
coedge $-1 $413 $413 $-1 $579 reversed $273 $-1 #
edge $-1 $580 0 $580 6.2831853071796004 $274 $581 forward 7 unknown #
vertex $-1 $277 $582 #
ellipse-curve $-1 16.98327878689534 38.301958925097892 9.6458204773084635 0 0.68199836817093118 0.7313536940579346 1.5 0 0 1 I I #
face $-1 $-1 $583 $57 $-1 $584 reversed single #
loop $-1 $-1 $284 $278 #
plane-surface $-1 0 0 19.242566760784094 0 0 1 1 0 0 forward_v I I I I #
coedge $-1 $585 $586 $587 $588 reversed $279 $-1 #
coedge $-1 $589 $281 $283 $427 forward $175 $-1 #
coedge $-1 $281 $589 $585 $590 forward $175 $-1 #
coedge $-1 $587 $284 $281 $424 forward $418 $-1 #
edge $-1 $430 13.821668934280616 $591 28.008233233834837 $423 $592 forward 7 unknown #
coedge $-1 $593 $594 $282 $426 forward $583 $-1 #
edge $-1 $595 -90.418977227051514 $429 -71.22548466010025 $425 $596 forward 7 unknown #
edge $-1 $430 69.043399941528833 $595 97.186418257579632 $283 $597 forward 7 unknown #
coedge $-1 $284 $587 $593 $598 forward $418 $-1 #
vertex $-1 $285 $599 #
vertex $-1 $285 $600 #
straight-curve $-1 34.736620018338343 42.19371803787071 19.242566760784086 0 -1 0 I I #
coedge $-1 $432 $432 $-1 $601 reversed $288 $-1 #
edge $-1 $602 0 $602 6.2831853071796004 $289 $603 forward 7 unknown #
vertex $-1 $292 $604 #
ellipse-curve $-1 38.789924103925259 38.301958925097892 9.6458204773084635 0 0.68199836817093118 0.7313536940579346 1.5 0 0 1 I I #
coedge $-1 $436 $436 $-1 $605 reversed $295 $-1 #
edge $-1 $606 0 $606 6.2831853071796004 $296 $607 forward 7 unknown #
vertex $-1 $299 $608 #
ellipse-curve $-1 44.869880232305633 38.301958925097892 9.6458204773084635 0 0.68199836817093118 0.7313536940579346 1.5 0 0 1 I I #
face $-1 $-1 $453 $45 $-1 $609 reversed single #
loop $-1 $-1 $610 $300 #
plane-surface $-1 -78.352000488296142 0 0 1 0 0 0 0 -1 forward_v I I I I #
coedge $-1 $455 $447 $611 $612 forward $301 $-1 #
coedge $-1 $304 $303 $610 $613 forward $121 $-1 #
coedge $-1 $307 $614 $303 $446 reversed $453 $-1 #
edge $-1 $450 -78.352000488296142 $615 78.352000488296142 $445 $616 forward 7 unknown #
coedge $-1 $443 $309 $304 $448 reversed $301 $-1 #
edge $-1 $617 -78.352000488296142 $449 78.352000488296142 $447 $618 forward 7 unknown #
vertex $-1 $306 $619 #
vertex $-1 $306 $620 #
straight-curve $-1 78.352000488296142 0 19.242566760784094 0 1 0 I I #
coedge $-1 $614 $307 $312 $459 reversed $453 $-1 #
loop $-1 $-1 $307 $440 #
straight-curve $-1 78.352000488296142 48.59320912878983 0 0 0 -1 I I #
coedge $-1 $309 $443 $311 $458 reversed $301 $-1 #
straight-curve $-1 78.352000488296142 -48.59320912878983 0 0 0 -1 I I #
coedge $-1 $312 $311 $621 $622 forward $189 $-1 #
edge $-1 $314 -78.352000488296142 $623 78.352000488296142 $455 $624 forward 7 unknown #
edge $-1 $625 -78.352000488296142 $313 78.352000488296142 $452 $626 forward 7 unknown #
point $-1 78.352000488296142 48.59320912878983 -19.242566760784094 #
point $-1 78.352000488296142 -48.59320912878983 -19.242566760784094 #
face $-1 $-1 $627 $46 $-1 $628 reversed single #
loop $-1 $-1 $324 $316 #
plane-surface $-1 0 0 -19.242566760784094 0 0 1 1 0 0 forward_v I I I I #
coedge $-1 $629 $319 $630 $631 reversed $197 $-1 #
coedge $-1 $319 $629 $469 $632 reversed $197 $-1 #
coedge $-1 $327 $326 $319 $468 reversed $317 $-1 #
edge $-1 $633 -19.242566760784094 $634 19.242566760784094 $467 $635 forward 7 unknown #
coedge $-1 $321 $320 $466 $632 forward $125 $-1 #
edge $-1 $329 -7.7180386687504381 $633 7.7180386687504381 $327 $636 forward 7 unknown #
coedge $-1 $637 $475 $321 $472 reversed $627 $-1 #
edge $-1 $638 -93.788077825797018 $473 -78.352000488296142 $471 $639 forward 7 unknown #
vertex $-1 $476 $640 #
straight-curve $-1 -78.352000488296142 0 19.242566760784094 0 1 0 I I #
coedge $-1 $471 $641 $323 $476 forward $627 $-1 #
edge $-1 $479 -19.242566760784094 $473 19.242566760784094 $475 $642 forward 7 unknown #
coedge $-1 $630 $324 $641 $643 forward $463 $-1 #
coedge $-1 $324 $630 $326 $481 forward $463 $-1 #
vertex $-1 $643 $644 #
straight-curve $-1 -78.352000488296142 0 -19.242566760784094 0 -1 0 I I #
edge $-1 $634 -7.7180386687504381 $328 7.7180386687504381 $326 $645 forward 7 unknown #
point $-1 -78.352000488296142 -41.259692932759684 -19.242566760784094 #
point $-1 -78.352000488296142 -41.259692932759684 19.242566760784094 #
face $-1 $-1 $499 $47 $-1 $646 forward single #
loop $-1 $-1 $647 $331 #
plane-surface $-1 93.788077825797018 -44.926451030774757 0 -1 0 0 0 0 1 forward_v I I I I #
coedge $-1 $343 $342 $648 $649 forward $332 $-1 #
coedge $-1 $650 $334 $343 $502 forward $205 $-1 #
coedge $-1 $334 $650 $335 $491 forward $205 $-1 #
coedge $-1 $336 $335 $647 $651 reversed $129 $-1 #
edge $-1 $652 -7.7180386687504381 $495 7.7180386687504381 $335 $653 forward 7 unknown #
coedge $-1 $654 $340 $336 $493 forward $499 $-1 #
edge $-1 $494 -7.7180386687504381 $655 7.7180386687504381 $336 $656 forward 7 unknown #
vertex $-1 $493 $657 #
vertex $-1 $339 $658 #
straight-curve $-1 78.352000488296142 -48.59320912878983 0 0 0 -1 I I #
straight-curve $-1 78.352000488296142 0 -19.242566760784094 0 1 0 I I #
coedge $-1 $340 $654 $342 $501 forward $499 $-1 #
loop $-1 $-1 $340 $484 #
straight-curve $-1 78.352000488296142 0 19.242566760784094 0 -1 0 I I #
edge $-1 $659 -7.7180386687504381 $344 7.7180386687504381 $342 $660 forward 7 unknown #
edge $-1 $345 -7.7180386687504381 $661 7.7180386687504381 $343 $662 forward 7 unknown #
point $-1 78.352000488296142 -41.259692932759684 19.242566760784094 #
point $-1 78.352000488296142 -41.259692932759684 -19.242566760784094 #
plane-surface $-1 0 0 19.242566760784094 0 0 1 1 0 0 forward_v I I I I #
coedge $-1 $516 $515 $508 $663 forward $348 $-1 #
coedge $-1 $508 $350 $352 $512 reversed $213 $-1 #
coedge $-1 $350 $507 $506 $663 reversed $213 $-1 #
coedge $-1 $358 $353 $350 $510 forward $359 $-1 #
edge $-1 $513 -14.183009316464741 $664 6.3994910909191205 $509 $665 forward 7 unknown #
coedge $-1 $352 $351 $516 $666 reversed $133 $-1 #
edge $-1 $667 -97.186418257579632 $513 -69.043399941528833 $507 $668 forward 7 unknown #
vertex $-1 $354 $669 #
straight-curve $-1 -20.914951084057712 28.010708721405969 19.24256676078409 1 0 0 I I #
coedge $-1 $506 $355 $358 $520 reversed $348 $-1 #
coedge $-1 $355 $506 $511 $666 forward $348 $-1 #
vertex $-1 $356 $670 #
straight-curve $-1 -48.923184317892535 48.59320912878983 90.468051420884336 0 0 1 I I #
straight-curve $-1 -48.923184317892535 -22.484436876150525 66.330052853879721 0 0.7313536940579346 -0.68199836817093118 I I #
edge $-1 $664 34.736620018338314 $360 48.923184317892535 $515 $671 forward 7 unknown #
point $-1 -48.923184317892535 48.59320912878983 19.242566760784094 #
point $-1 -48.923184317892535 28.010708721405969 19.242566760784094 #
edge $-1 $672 1 $672 0 $363 $-1 forward 7 unknown #
vertex $-1 $364 $673 #
ellipse-curve $-1 -44.869880232305619 35.955061986158739 7.1290816902792535 0 0.68199836817093118 0.7313536940579346 1.5 0 0 1 I I #
point $-1 -43.369880232305619 38.30195892509785 9.6458204773084155 #
edge $-1 $674 1 $674 0 $367 $-1 forward 7 unknown #
vertex $-1 $368 $675 #
ellipse-curve $-1 -38.789924103925237 35.955061986158739 7.1290816902792535 0 0.68199836817093118 0.7313536940579346 1.5 0 0 1 I I #
point $-1 -37.289924103925237 38.30195892509785 9.6458204773084155 #
loop $-1 $-1 $379 $371 #
plane-surface $-1 0 48.59320912878983 0 0 -1 0 0 0 -1 forward_v I I I I #
coedge $-1 $534 $374 $376 $538 reversed $235 $-1 #
coedge $-1 $374 $533 $676 $677 reversed $235 $-1 #
coedge $-1 $382 $377 $374 $536 forward $372 $-1 #
edge $-1 $539 -14.183009316464741 $678 6.3994910909191205 $535 $679 forward 7 unknown #
coedge $-1 $376 $375 $542 $680 reversed $147 $-1 #
edge $-1 $681 -97.186418257579632 $539 -69.043399941528833 $533 $682 forward 7 unknown #
vertex $-1 $378 $683 #
straight-curve $-1 -6.971650361352566 28.010708721405969 19.24256676078409 1 0 0 I I #
coedge $-1 $676 $379 $382 $546 reversed $531 $-1 #
coedge $-1 $379 $676 $537 $680 forward $531 $-1 #
vertex $-1 $380 $684 #
straight-curve $-1 -21.036582872482242 48.59320912878983 90.468051420884336 0 0 1 I I #
straight-curve $-1 -21.036582872482242 -22.484436876150525 66.330052853879721 0 0.7313536940579346 -0.68199836817093118 I I #
edge $-1 $678 6.8500185729280201 $383 21.036582872482242 $541 $685 forward 7 unknown #
point $-1 -21.036582872482242 48.59320912878983 19.242566760784094 #
point $-1 -21.036582872482242 28.010708721405969 19.242566760784094 #
edge $-1 $686 1 $686 0 $386 $-1 forward 7 unknown #
vertex $-1 $387 $687 #
ellipse-curve $-1 -16.983278786895326 35.955061986158739 7.1290816902792535 0 0.68199836817093118 0.7313536940579346 1.5 0 0 1 I I #
point $-1 -15.483278786895326 38.30195892509785 9.6458204773084155 #
edge $-1 $688 1 $688 0 $390 $-1 forward 7 unknown #
vertex $-1 $391 $689 #
ellipse-curve $-1 -10.903322658514952 35.955061986158739 7.1290816902792535 0 0.68199836817093118 0.7313536940579346 1.5 0 0 1 I I #
point $-1 -9.4033226585149521 38.30195892509785 9.6458204773084155 #
loop $-1 $-1 $402 $394 #
plane-surface $-1 0 48.59320912878983 0 0 -1 0 0 0 -1 forward_v I I I I #
coedge $-1 $560 $397 $399 $564 reversed $257 $-1 #
coedge $-1 $397 $559 $690 $691 reversed $257 $-1 #
coedge $-1 $405 $400 $397 $562 forward $395 $-1 #
edge $-1 $565 -14.183009316464741 $692 6.3994910909191205 $561 $693 forward 7 unknown #
coedge $-1 $399 $398 $568 $694 reversed $161 $-1 #
edge $-1 $695 -97.186418257579632 $565 -69.043399941528833 $559 $696 forward 7 unknown #
vertex $-1 $401 $697 #
straight-curve $-1 6.9716503613525802 28.010708721405969 19.24256676078409 1 0 0 I I #
coedge $-1 $690 $402 $405 $572 reversed $557 $-1 #
coedge $-1 $402 $690 $563 $694 forward $557 $-1 #
vertex $-1 $403 $698 #
straight-curve $-1 6.8500185729280485 48.59320912878983 90.468051420884336 0 0 1 I I #
straight-curve $-1 6.8500185729280485 -22.484436876150525 66.330052853879721 0 0.7313536940579346 -0.68199836817093118 I I #
edge $-1 $692 -21.036582872482271 $406 -6.8500185729280485 $567 $699 forward 7 unknown #
point $-1 6.8500185729280485 48.59320912878983 19.242566760784094 #
point $-1 6.8500185729280485 28.010708721405969 19.242566760784094 #
edge $-1 $700 1 $700 0 $409 $-1 forward 7 unknown #
vertex $-1 $410 $701 #
ellipse-curve $-1 10.903322658514966 35.955061986158739 7.1290816902792535 0 0.68199836817093118 0.7313536940579346 1.5 0 0 1 I I #
point $-1 12.403322658514966 38.30195892509785 9.6458204773084155 #
edge $-1 $702 1 $702 0 $413 $-1 forward 7 unknown #
vertex $-1 $414 $703 #
ellipse-curve $-1 16.98327878689534 35.955061986158739 7.1290816902792535 0 0.68199836817093118 0.7313536940579346 1.5 0 0 1 I I #
point $-1 18.48327878689534 38.30195892509785 9.6458204773084155 #
loop $-1 $-1 $425 $417 #
plane-surface $-1 0 48.59320912878983 0 0 -1 0 0 0 -1 forward_v I I I I #
coedge $-1 $586 $420 $422 $590 reversed $279 $-1 #
coedge $-1 $420 $585 $704 $705 reversed $279 $-1 #
coedge $-1 $428 $423 $420 $588 forward $418 $-1 #
edge $-1 $591 -14.183009316464741 $706 6.3994910909191205 $587 $707 forward 7 unknown #
coedge $-1 $422 $421 $594 $708 reversed $175 $-1 #
edge $-1 $709 -97.186418257579632 $591 -69.043399941528833 $585 $710 forward 7 unknown #
vertex $-1 $424 $711 #
straight-curve $-1 20.914951084057726 28.010708721405969 19.24256676078409 1 0 0 I I #
coedge $-1 $704 $425 $428 $598 reversed $583 $-1 #
coedge $-1 $425 $704 $589 $708 forward $583 $-1 #
vertex $-1 $426 $712 #
straight-curve $-1 34.736620018338343 48.59320912878983 90.468051420884336 0 0 1 I I #
straight-curve $-1 34.736620018338343 -22.484436876150525 66.330052853879721 0 0.7313536940579346 -0.68199836817093118 I I #
edge $-1 $706 -48.923184317892563 $429 -34.736620018338343 $593 $713 forward 7 unknown #
point $-1 34.736620018338343 48.59320912878983 19.242566760784094 #
point $-1 34.736620018338343 28.010708721405969 19.242566760784094 #
edge $-1 $714 1 $714 0 $432 $-1 forward 7 unknown #
vertex $-1 $433 $715 #
ellipse-curve $-1 38.789924103925259 35.955061986158739 7.1290816902792535 0 0.68199836817093118 0.7313536940579346 1.5 0 0 1 I I #
point $-1 40.289924103925259 38.30195892509785 9.6458204773084155 #
edge $-1 $716 1 $716 0 $436 $-1 forward 7 unknown #
vertex $-1 $437 $717 #
ellipse-curve $-1 44.869880232305633 35.955061986158739 7.1290816902792535 0 0.68199836817093118 0.7313536940579346 1.5 0 0 1 I I #
point $-1 46.369880232305633 38.30195892509785 9.6458204773084155 #
plane-surface $-1 0 48.59320912878983 0 0 -1 0 0 0 -1 forward_v I I I I #
coedge $-1 $718 $611 $444 $613 reversed $441 $-1 #
coedge $-1 $610 $621 $443 $612 reversed $441 $-1 #
edge $-1 $617 -19.242566760784094 $623 19.242566760784094 $611 $719 forward 7 unknown #
edge $-1 $615 -48.59320912878983 $617 48.59320912878983 $610 $720 forward 7 unknown #
coedge $-1 $445 $452 $718 $721 reversed $453 $-1 #
vertex $-1 $446 $722 #
straight-curve $-1 0 48.59320912878983 19.242566760784094 -1 0 0 I I #
vertex $-1 $613 $723 #
straight-curve $-1 0 -48.59320912878983 19.242566760784094 1 0 0 I I #
point $-1 78.352000488296142 -48.59320912878983 19.242566760784094 #
point $-1 78.352000488296142 48.59320912878983 19.242566760784094 #
coedge $-1 $611 $718 $457 $622 reversed $441 $-1 #
edge $-1 $623 -48.59320912878983 $625 48.59320912878983 $621 $724 forward 7 unknown #
vertex $-1 $622 $725 #
straight-curve $-1 0 -48.59320912878983 -19.242566760784094 -1 0 0 I I #
vertex $-1 $459 $726 #
straight-curve $-1 0 48.59320912878983 -19.242566760784094 1 0 0 I I #
loop $-1 $-1 $475 $462 #
plane-surface $-1 0 -48.59320912878983 0 0 1 0 0 0 1 forward_v I I I I #
coedge $-1 $466 $465 $637 $727 reversed $197 $-1 #
coedge $-1 $478 $477 $465 $631 forward $463 $-1 #
edge $-1 $728 -3.6667580980150731 $634 3.6667580980150731 $465 $729 forward 7 unknown #
edge $-1 $633 -3.6667580980150731 $638 3.6667580980150731 $466 $730 forward 7 unknown #
vertex $-1 $470 $731 #
vertex $-1 $481 $732 #
straight-curve $-1 -93.788077825797018 -41.259692932759684 0 0 0 -1 I I #
straight-curve $-1 -86.07003915704658 -41.259692932759684 19.242566760784094 -1 0 0 I I #
coedge $-1 $641 $471 $629 $727 forward $627 $-1 #
vertex $-1 $632 $733 #
straight-curve $-1 0 -48.59320912878983 19.242566760784094 1 0 0 I I #
point $-1 -78.352000488296142 -48.59320912878983 19.242566760784094 #
coedge $-1 $475 $637 $477 $643 reversed $627 $-1 #
straight-curve $-1 -78.352000488296142 -48.59320912878983 0 0 0 1 I I #
edge $-1 $479 -7.7180386687504381 $728 7.7180386687504381 $641 $734 forward 7 unknown #
point $-1 -78.352000488296142 -48.59320912878983 -19.242566760784094 #
straight-curve $-1 -86.07003915704658 -41.259692932759684 -19.242566760784094 1 0 0 I I #
plane-surface $-1 0 0 19.242566760784094 0 0 1 1 0 0 forward_v I I I I #
coedge $-1 $735 $736 $490 $651 forward $485 $-1 #
coedge $-1 $736 $735 $487 $649 reversed $485 $-1 #
edge $-1 $659 -19.242566760784094 $661 19.242566760784094 $648 $737 forward 7 unknown #
coedge $-1 $489 $488 $735 $738 forward $205 $-1 #
edge $-1 $655 -19.242566760784094 $652 19.242566760784094 $647 $739 forward 7 unknown #
vertex $-1 $651 $740 #
straight-curve $-1 86.07003915704658 -48.59320912878983 -19.242566760784094 -1 0 0 I I #
coedge $-1 $498 $492 $736 $741 forward $499 $-1 #
vertex $-1 $741 $742 #
straight-curve $-1 86.07003915704658 -48.59320912878983 19.242566760784094 1 0 0 I I #
point $-1 78.352000488296142 -48.59320912878983 19.242566760784094 #
point $-1 78.352000488296142 -48.59320912878983 -19.242566760784094 #
vertex $-1 $741 $743 #
straight-curve $-1 86.07003915704658 -41.259692932759684 19.242566760784094 -1 0 0 I I #
vertex $-1 $738 $744 #
straight-curve $-1 86.07003915704658 -41.259692932759684 -19.242566760784094 1 0 0 I I #
edge $-1 $664 71.22548466010025 $667 90.418977227051514 $506 $745 forward 7 unknown #
vertex $-1 $520 $746 #
straight-curve $-1 -34.736620018338314 42.19371803787071 19.242566760784086 0 1 0 I I #
edge $-1 $667 13.821668934280602 $517 28.008233233834822 $516 $747 forward 7 unknown #
vertex $-1 $666 $748 #
straight-curve $-1 -34.736620018338314 -22.484436876150525 66.330052853879721 0 -0.7313536940579346 0.68199836817093118 I I #
point $-1 -34.736620018338314 28.010708721405969 19.242566760784094 #
point $-1 -48.923184317892535 48.593209128789837 0.049074193832822743 #
straight-curve $-1 0 48.59320912878983 19.242566760784094 -1 0 0 I I #
vertex $-1 $523 $749 #
point $-1 -43.369880232305619 35.955061986158739 7.1290816902792535 #
vertex $-1 $527 $750 #
point $-1 -37.289924103925237 35.955061986158739 7.1290816902792535 #
coedge $-1 $542 $541 $534 $677 forward $531 $-1 #
edge $-1 $678 71.22548466010025 $681 90.418977227051514 $676 $751 forward 7 unknown #
vertex $-1 $546 $752 #
straight-curve $-1 -6.8500185729280201 42.19371803787071 19.242566760784086 0 1 0 I I #
edge $-1 $681 -0.12163178842454592 $543 14.064932511129676 $542 $753 forward 7 unknown #
vertex $-1 $680 $754 #
straight-curve $-1 -6.8500185729280201 -22.484436876150525 66.330052853879721 0 -0.7313536940579346 0.68199836817093118 I I #
point $-1 -6.8500185729280201 28.010708721405969 19.242566760784094 #
point $-1 -21.036582872482242 48.593209128789837 0.049074193832822743 #
straight-curve $-1 0 48.59320912878983 19.242566760784094 -1 0 0 I I #
vertex $-1 $549 $755 #
point $-1 -15.483278786895326 35.955061986158739 7.1290816902792535 #
vertex $-1 $553 $756 #
point $-1 -9.4033226585149521 35.955061986158739 7.1290816902792535 #
coedge $-1 $568 $567 $560 $691 forward $557 $-1 #
edge $-1 $692 71.22548466010025 $695 90.418977227051514 $690 $757 forward 7 unknown #
vertex $-1 $572 $758 #
straight-curve $-1 21.036582872482271 42.19371803787071 19.242566760784086 0 1 0 I I #
edge $-1 $695 -14.06493251112969 $569 0.12163178842453171 $568 $759 forward 7 unknown #
vertex $-1 $694 $760 #
straight-curve $-1 21.036582872482271 -22.484436876150525 66.330052853879721 0 -0.7313536940579346 0.68199836817093118 I I #
point $-1 21.036582872482271 28.010708721405969 19.242566760784094 #
point $-1 6.8500185729280485 48.593209128789837 0.049074193832822743 #
straight-curve $-1 0 48.59320912878983 19.242566760784094 -1 0 0 I I #
vertex $-1 $575 $761 #
point $-1 12.403322658514966 35.955061986158739 7.1290816902792535 #
vertex $-1 $579 $762 #
point $-1 18.48327878689534 35.955061986158739 7.1290816902792535 #
coedge $-1 $594 $593 $586 $705 forward $583 $-1 #
edge $-1 $706 71.22548466010025 $709 90.418977227051514 $704 $763 forward 7 unknown #
vertex $-1 $598 $764 #
straight-curve $-1 48.923184317892563 42.19371803787071 19.242566760784086 0 1 0 I I #
edge $-1 $709 -28.008233233834837 $595 -13.821668934280616 $594 $765 forward 7 unknown #
vertex $-1 $708 $766 #
straight-curve $-1 48.923184317892563 -22.484436876150525 66.330052853879721 0 -0.7313536940579346 0.68199836817093118 I I #
point $-1 48.923184317892563 28.010708721405969 19.242566760784094 #
point $-1 34.736620018338343 48.593209128789837 0.049074193832822743 #
straight-curve $-1 0 48.59320912878983 19.242566760784094 -1 0 0 I I #
vertex $-1 $601 $767 #
point $-1 40.289924103925259 35.955061986158739 7.1290816902792535 #
vertex $-1 $605 $768 #
point $-1 46.369880232305633 35.955061986158739 7.1290816902792535 #
coedge $-1 $621 $610 $614 $721 forward $441 $-1 #
straight-curve $-1 -78.352000488296142 -48.59320912878983 0 0 0 -1 I I #
straight-curve $-1 -78.352000488296142 0 19.242566760784094 0 -1 0 I I #
edge $-1 $615 -19.242566760784094 $625 19.242566760784094 $614 $769 forward 7 unknown #
point $-1 -78.352000488296142 48.59320912878983 19.242566760784094 #
point $-1 -78.352000488296142 -48.59320912878983 19.242566760784094 #
straight-curve $-1 -78.352000488296142 0 -19.242566760784094 0 1 0 I I #
point $-1 -78.352000488296142 -48.59320912878983 -19.242566760784094 #
point $-1 -78.352000488296142 48.59320912878983 -19.242566760784094 #
edge $-1 $638 -19.242566760784094 $728 19.242566760784094 $629 $770 forward 7 unknown #
vertex $-1 $631 $771 #
straight-curve $-1 -93.788077825797018 -44.926451030774757 -19.242566760784094 0 1 0 I I #
straight-curve $-1 -93.788077825797018 -44.926451030774757 19.242566760784094 0 -1 0 I I #
point $-1 -93.788077825797018 -41.259692932759684 19.242566760784094 #
point $-1 -93.788077825797018 -41.259692932759684 -19.242566760784094 #
point $-1 -93.788077825797018 -48.59320912878983 19.242566760784094 #
straight-curve $-1 -86.07003915704658 -48.59320912878983 -19.242566760784094 -1 0 0 I I #
coedge $-1 $648 $647 $650 $738 reversed $485 $-1 #
coedge $-1 $647 $648 $654 $741 reversed $485 $-1 #
straight-curve $-1 93.788077825797018 -41.259692932759684 0 0 0 -1 I I #
edge $-1 $661 -3.6667580980150731 $652 3.6667580980150731 $735 $772 forward 7 unknown #
straight-curve $-1 93.788077825797018 -48.59320912878983 0 0 0 -1 I I #
point $-1 93.788077825797018 -48.59320912878983 -19.242566760784094 #
edge $-1 $655 -3.6667580980150731 $659 3.6667580980150731 $736 $773 forward 7 unknown #
point $-1 93.788077825797018 -48.59320912878983 19.242566760784094 #
point $-1 93.788077825797018 -41.259692932759684 19.242566760784094 #
point $-1 93.788077825797018 -41.259692932759684 -19.242566760784094 #
straight-curve $-1 -34.736620018338314 48.59320912878983 90.468051420884336 0 0 -1 I I #
point $-1 -34.736620018338314 48.59320912878983 19.242566760784094 #
straight-curve $-1 -20.914951084057712 48.59320912878983 0.049074193832829849 -1 0 0 I I #
point $-1 -34.736620018338314 48.593209128789837 0.049074193832822743 #
point $-1 -44.869880232305619 34.93206443390234 6.0320511491923519 #
point $-1 -38.789924103925237 34.93206443390234 6.0320511491923519 #
straight-curve $-1 -6.8500185729280201 48.59320912878983 90.468051420884336 0 0 -1 I I #
point $-1 -6.8500185729280201 48.59320912878983 19.242566760784094 #
straight-curve $-1 -6.971650361352566 48.59320912878983 0.049074193832829849 -1 0 0 I I #
point $-1 -6.8500185729280201 48.593209128789837 0.049074193832822743 #
point $-1 -16.983278786895326 34.93206443390234 6.0320511491923519 #
point $-1 -10.903322658514952 34.93206443390234 6.0320511491923519 #
straight-curve $-1 21.036582872482271 48.59320912878983 90.468051420884336 0 0 -1 I I #
point $-1 21.036582872482271 48.59320912878983 19.242566760784094 #
straight-curve $-1 6.9716503613525802 48.59320912878983 0.049074193832829849 -1 0 0 I I #
point $-1 21.036582872482271 48.593209128789837 0.049074193832822743 #
point $-1 10.903322658514966 34.93206443390234 6.0320511491923519 #
point $-1 16.98327878689534 34.93206443390234 6.0320511491923519 #
straight-curve $-1 48.923184317892563 48.59320912878983 90.468051420884336 0 0 -1 I I #
point $-1 48.923184317892563 48.59320912878983 19.242566760784094 #
straight-curve $-1 20.914951084057726 48.59320912878983 0.049074193832829849 -1 0 0 I I #
point $-1 48.923184317892563 48.593209128789837 0.049074193832822743 #
point $-1 38.789924103925259 34.93206443390234 6.0320511491923519 #
point $-1 44.869880232305633 34.93206443390234 6.0320511491923519 #
straight-curve $-1 -78.352000488296142 48.59320912878983 0 0 0 -1 I I #
straight-curve $-1 -93.788077825797018 -48.59320912878983 0 0 0 -1 I I #
point $-1 -93.788077825797018 -48.59320912878983 -19.242566760784094 #
straight-curve $-1 93.788077825797018 -44.926451030774757 -19.242566760784094 0 -1 0 I I #
straight-curve $-1 93.788077825797018 -44.926451030774757 19.242566760784094 0 1 0 I I #
End-of-ACIS-data 