600 0 5 0           
108 GICL ACIS Healer - Source: /gicl/data5/repository/Drexel/CICIRELLO-THESISDATA/Part10007.smdg.delta.sat - 6 0 18 ACIS 6.0.3 Solaris 24 Fri Apr 12 10:19:09 2002 
1 9.999999999999999547e-07 1.000000000000000036e-10 
body $-1 $5 $-1 $-1 #
body $-1 $6 $-1 $-1 #
body $-1 $7 $-1 $-1 #
body $-1 $8 $-1 $-1 #
body $-1 $9 $-1 $-1 #
lump $-1 $-1 $10 $0 #
lump $-1 $-1 $11 $1 #
lump $-1 $-1 $12 $2 #
lump $-1 $-1 $13 $3 #
lump $-1 $-1 $14 $4 #
shell $-1 $-1 $-1 $15 $-1 $5 #
shell $-1 $-1 $-1 $16 $-1 $6 #
shell $-1 $-1 $-1 $17 $-1 $7 #
shell $-1 $-1 $-1 $18 $-1 $8 #
shell $-1 $-1 $-1 $19 $-1 $9 #
face $-1 $20 $21 $10 $-1 $22 forward single #
face $-1 $23 $24 $11 $-1 $25 forward single #
face $-1 $26 $27 $12 $-1 $28 forward single #
face $-1 $29 $30 $13 $-1 $31 reversed single #
face $-1 $32 $33 $14 $-1 $34 forward single #
face $-1 $35 $36 $10 $-1 $37 reversed single #
loop $-1 $-1 $38 $15 #
plane-surface $-1 55.38499099703970785 30.55631550786720041 24.50734562434623953 0 0 1 1 0 0 forward_v I I I I #
face $-1 $39 $40 $11 $-1 $41 reversed single #
loop $-1 $-1 $42 $16 #
plane-surface $-1 0 30.55631550786720041 12.25367281217311977 1 0 0 0 0 -1 forward_v I I I I #
face $-1 $43 $44 $12 $-1 $45 reversed single #
loop $-1 $-1 $46 $17 #
plane-surface $-1 110.7699819940794157 30.55631550786720041 12.25367281217311977 -1 0 0 0 0 1 forward_v I I I I #
face $-1 $47 $48 $13 $-1 $49 reversed single #
loop $-1 $-1 $50 $18 #
plane-surface $-1 63.3477562958932765 76.78043693109185597 142.5009914987589923 1 0 0 0 -0.5877852598018022956 -0.8090169889191003438 forward_v I I I I #
face $-1 $51 $52 $14 $-1 $53 forward single #
loop $-1 $54 $55 $19 #
cone-surface $-1 70.51658743206245106 54.08114439039592014 18.2023334995168149 0 -0.5877852598018022956 -0.8090169889191003438 2 0 0 1 I I 0 1 2 forward I I I I #
face $-1 $56 $57 $10 $-1 $58 reversed single #
loop $-1 $-1 $59 $20 #
plane-surface $-1 55.38499099703970785 30.55631550786720041 0 0 0 1 1 0 0 forward_v I I I I #
coedge $-1 $60 $61 $62 $63 forward $21 $-1 #
face $-1 $64 $65 $11 $-1 $66 forward single #
loop $-1 $-1 $67 $23 #
plane-surface $-1 55.38499099703970785 61.11263101573440082 12.25367281217311977 0 -1 0 0 0 -1 forward_v I I I I #
coedge $-1 $68 $69 $70 $71 forward $24 $-1 #
face $-1 $72 $73 $12 $-1 $74 forward single #
loop $-1 $-1 $75 $26 #
plane-surface $-1 55.38499099703970785 61.11263101573440082 12.25367281217311977 0 -1 0 0 0 -1 forward_v I I I I #
coedge $-1 $76 $77 $78 $79 forward $27 $-1 #
face $-1 $80 $81 $13 $-1 $82 reversed single #
loop $-1 $-1 $83 $29 #
plane-surface $-1 70.51658743206245106 11.67147428646092422 52.88619420328591048 0 0.5877852598018022956 0.8090169889191003438 1 0 0 forward_v I I I I #
coedge $-1 $84 $85 $86 $87 reversed $30 $-1 #
face $-1 $-1 $88 $14 $-1 $89 forward single #
loop $-1 $90 $91 $32 #
cone-surface $-1 70.51658743206245106 51.6523841971873594 14.85943194567601111 0 -0.5877852598018022956 -0.8090169889191003438 1 0 0 1 I I -0.7071067811865474617 0.7071067811865474617 1 forward I I I I #
loop $-1 $-1 $92 $19 #
coedge $-1 $55 $55 $93 $94 reversed $33 $-1 #
face $-1 $95 $96 $10 $-1 $97 reversed single #
loop $-1 $-1 $98 $35 #
plane-surface $-1 55.38499099703970785 0 12.25367281217311977 0 1 0 0 0 1 forward_v I I I I #
coedge $-1 $99 $100 $101 $102 forward $36 $-1 #
coedge $-1 $103 $38 $104 $105 forward $21 $-1 #
coedge $-1 $38 $103 $106 $107 forward $21 $-1 #
coedge $-1 $108 $109 $38 $63 reversed $110 $-1 #
edge $-1 $111 -30.55631550786720041 $112 30.55631550786720041 $62 $113 forward 7 unknown #
face $-1 $114 $115 $11 $-1 $116 reversed single #
loop $-1 $-1 $70 $39 #
plane-surface $-1 -7.131505193488997918 30.55631550786720041 6.141607977365005411 0 0 1 1 0 0 forward_v I I I I #
coedge $-1 $117 $118 $69 $119 forward $40 $-1 #
coedge $-1 $120 $42 $121 $122 reversed $24 $-1 #
coedge $-1 $42 $120 $67 $119 reversed $24 $-1 #
coedge $-1 $123 $124 $42 $71 reversed $65 $-1 #
edge $-1 $125 -30.55631550786720041 $126 30.55631550786720041 $70 $127 forward 7 unknown #
face $-1 $128 $129 $12 $-1 $130 reversed single #
loop $-1 $-1 $131 $43 #
plane-surface $-1 117.9014871875684207 30.55631550786720041 6.141607977365005411 0 0 1 1 0 0 forward_v I I I I #
coedge $-1 $132 $133 $76 $134 forward $44 $-1 #
coedge $-1 $135 $46 $75 $134 reversed $27 $-1 #
coedge $-1 $46 $135 $136 $137 reversed $27 $-1 #
coedge $-1 $138 $139 $46 $79 reversed $73 $-1 #
edge $-1 $140 -30.55631550786720041 $141 30.55631550786720041 $78 $142 forward 7 unknown #
face $-1 $143 $144 $13 $-1 $145 reversed single #
loop $-1 $-1 $146 $47 #
plane-surface $-1 77.68541856823162561 76.78043693109185597 142.5009914987589923 -1 0 0 0 0.5877852598018022956 0.8090169889191003438 forward_v I I I I #
coedge $-1 $147 $148 $149 $150 reversed $48 $-1 #
coedge $-1 $85 $50 $151 $152 reversed $30 $-1 #
coedge $-1 $50 $84 $147 $153 reversed $30 $-1 #
coedge $-1 $149 $154 $50 $87 forward $155 $-1 #
edge $-1 $156 -7.444254796254874407 $157 2.936768587608597159 $86 $158 forward 7 unknown #
loop $-1 $-1 $93 $51 #
plane-surface $-1 70.51658743206245106 11.67147428646092422 52.88619420328591048 0 0.5877852598018022956 0.8090169889191003438 1 0 0 forward_v I I I I #
loop $-1 $-1 $159 $32 #
coedge $-1 $91 $91 $92 $160 reversed $52 $-1 #
coedge $-1 $92 $92 $91 $160 forward $54 $-1 #
coedge $-1 $93 $93 $55 $94 forward $88 $-1 #
edge $-1 $161 -5.162867522557458329e-16 $161 6.283185307179585344 $93 $162 forward 7 unknown #
face $-1 $163 $164 $10 $-1 $165 reversed single #
loop $-1 $-1 $166 $56 #
plane-surface $-1 0 30.55631550786720041 12.25367281217311977 1 0 0 0 0 -1 forward_v I I I I #
coedge $-1 $167 $106 $168 $169 forward $57 $-1 #
coedge $-1 $170 $59 $167 $171 forward $36 $-1 #
coedge $-1 $59 $170 $172 $173 forward $36 $-1 #
coedge $-1 $109 $108 $59 $102 reversed $110 $-1 #
edge $-1 $174 -30.55631550786720041 $175 30.55631550786720041 $101 $176 forward 7 unknown #
coedge $-1 $61 $60 $177 $178 forward $21 $-1 #
coedge $-1 $179 $180 $60 $105 reversed $164 $-1 #
edge $-1 $112 -55.38499099703970785 $181 55.38499099703970785 $104 $182 forward 7 unknown #
coedge $-1 $98 $183 $61 $107 reversed $57 $-1 #
edge $-1 $184 -55.38499099703970785 $111 55.38499099703970785 $106 $185 forward 7 unknown #
coedge $-1 $101 $62 $183 $186 forward $110 $-1 #
coedge $-1 $62 $101 $179 $187 reversed $110 $-1 #
loop $-1 $-1 $108 $163 #
vertex $-1 $63 $188 #
vertex $-1 $63 $189 #
straight-curve $-1 110.7699819940794157 30.55631550786720041 24.50734562434623953 0 1 0 I I #
face $-1 $190 $191 $11 $-1 $192 reversed single #
loop $-1 $-1 $193 $64 #
plane-surface $-1 -14.26301038697799584 30.55631550786720041 3.070803988682502705 1 0 0 0 0 -1 forward_v I I I I #
coedge $-1 $194 $67 $195 $196 reversed $40 $-1 #
coedge $-1 $67 $194 $123 $197 reversed $40 $-1 #
edge $-1 $125 6.112064834808114355 $198 12.25367281217311977 $67 $199 forward 7 unknown #
coedge $-1 $69 $68 $200 $201 reversed $24 $-1 #
coedge $-1 $202 $203 $68 $122 forward $204 $-1 #
edge $-1 $205 -12.25367281217311977 $126 -6.112064834808114355 $121 $206 forward 7 unknown #
coedge $-1 $207 $70 $118 $197 forward $65 $-1 #
coedge $-1 $70 $207 $202 $208 forward $65 $-1 #
vertex $-1 $119 $209 #
vertex $-1 $208 $210 #
straight-curve $-1 0 30.55631550786720041 6.141607977365005411 0 -1 0 I I #
face $-1 $211 $212 $12 $-1 $213 reversed single #
loop $-1 $-1 $214 $72 #
plane-surface $-1 125.0329923810574115 30.55631550786720041 3.070803988682502705 -1 0 0 0 0 1 forward_v I I I I #
coedge $-1 $139 $138 $215 $216 forward $73 $-1 #
coedge $-1 $217 $75 $139 $218 reversed $44 $-1 #
coedge $-1 $75 $217 $219 $220 reversed $44 $-1 #
edge $-1 $221 -12.25367281217311977 $141 -6.112064834808114355 $75 $222 forward 7 unknown #
coedge $-1 $77 $76 $223 $224 reversed $27 $-1 #
coedge $-1 $225 $226 $77 $137 forward $227 $-1 #
edge $-1 $140 6.112064834808114355 $228 12.25367281217311977 $136 $229 forward 7 unknown #
coedge $-1 $131 $78 $226 $230 forward $73 $-1 #
coedge $-1 $78 $131 $132 $218 forward $73 $-1 #
vertex $-1 $137 $231 #
vertex $-1 $218 $232 #
straight-curve $-1 110.7699819940794157 30.55631550786720041 6.141607977365005411 0 1 0 I I #
face $-1 $-1 $155 $13 $-1 $233 forward single #
loop $-1 $-1 $234 $80 #
plane-surface $-1 55.38499099703970785 61.11263101573440082 12.25367281217311977 0 -1 0 0 0 -1 forward_v I I I I #
coedge $-1 $235 $236 $237 $238 reversed $81 $-1 #
coedge $-1 $239 $83 $85 $153 forward $48 $-1 #
coedge $-1 $83 $239 $235 $240 forward $48 $-1 #
coedge $-1 $237 $86 $83 $150 forward $155 $-1 #
edge $-1 $157 0.3969670813421970479 $241 14.73462935368054616 $149 $242 forward 7 unknown #
coedge $-1 $243 $244 $84 $152 forward $144 $-1 #
edge $-1 $245 -60.41224165093528597 $156 -52.86998653111982094 $151 $246 forward 7 unknown #
edge $-1 $157 48.28098035073021066 $245 61.11263101573440792 $85 $247 forward 7 unknown #
coedge $-1 $86 $237 $243 $248 forward $155 $-1 #
loop $-1 $-1 $237 $143 #
vertex $-1 $152 $249 #
vertex $-1 $87 $250 #
straight-curve $-1 63.3477562958932765 53.66837621947952641 24.50734562434624308 0 -1 0 I I #
coedge $-1 $159 $159 $-1 $251 reversed $90 $-1 #
edge $-1 $252 0 $252 6.283185307179586232 $91 $253 forward 7 unknown #
vertex $-1 $94 $254 #
ellipse-curve $-1 70.51658743206245106 55.92211932380267569 20.73621806443849636 0 0.5877852598018022956 0.8090169889191003438 2 0 0 1 I I #
face $-1 $-1 $110 $10 $-1 $255 reversed single #
loop $-1 $-1 $179 $95 #
plane-surface $-1 55.38499099703970785 61.11263101573440082 12.25367281217311977 0 -1 0 0 0 -1 forward_v I I I I #
coedge $-1 $256 $177 $180 $257 forward $96 $-1 #
coedge $-1 $183 $98 $99 $171 reversed $57 $-1 #
coedge $-1 $177 $256 $98 $169 reversed $96 $-1 #
edge $-1 $184 -12.25367281217311977 $258 12.25367281217311977 $168 $259 forward 7 unknown #
coedge $-1 $100 $99 $256 $260 forward $36 $-1 #
edge $-1 $175 -55.38499099703970785 $258 55.38499099703970785 $167 $261 forward 7 unknown #
coedge $-1 $180 $179 $100 $173 reversed $164 $-1 #
edge $-1 $262 -55.38499099703970785 $174 55.38499099703970785 $172 $263 forward 7 unknown #
vertex $-1 $102 $264 #
vertex $-1 $186 $265 #
straight-curve $-1 110.7699819940794157 30.55631550786720041 0 0 -1 0 I I #
coedge $-1 $166 $168 $103 $178 reversed $96 $-1 #
edge $-1 $181 -30.55631550786720041 $184 30.55631550786720041 $177 $266 forward 7 unknown #
coedge $-1 $172 $104 $109 $187 forward $164 $-1 #
coedge $-1 $104 $172 $166 $257 reversed $164 $-1 #
vertex $-1 $105 $267 #
straight-curve $-1 55.38499099703970785 61.11263101573440082 24.50734562434623953 -1 0 0 I I #
coedge $-1 $106 $167 $108 $186 reversed $57 $-1 #
vertex $-1 $178 $268 #
straight-curve $-1 55.38499099703970785 0 24.50734562434623953 1 0 0 I I #
edge $-1 $111 -12.25367281217311977 $175 12.25367281217311977 $108 $269 forward 7 unknown #
edge $-1 $112 -12.25367281217311977 $174 12.25367281217311977 $109 $270 forward 7 unknown #
point $-1 110.7699819940794157 0 24.50734562434623953 #
point $-1 110.7699819940794157 61.11263101573440082 24.50734562434623953 #
face $-1 $-1 $204 $11 $-1 $271 reversed single #
loop $-1 $-1 $200 $114 #
plane-surface $-1 55.38499099703970785 30.55631550786720041 0 0 0 1 1 0 0 forward_v I I I I #
coedge $-1 $272 $273 $194 $274 forward $115 $-1 #
coedge $-1 $118 $117 $193 $274 reversed $40 $-1 #
coedge $-1 $200 $275 $117 $196 forward $191 $-1 #
edge $-1 $276 -69.64800138401770369 $198 -55.38499099703970785 $117 $277 forward 7 unknown #
edge $-1 $125 -7.131505193488997918 $278 7.131505193488997918 $118 $279 forward 7 unknown #
vertex $-1 $119 $280 #
straight-curve $-1 0 61.11263101573440082 12.25367281217311977 0 0 -1 I I #
coedge $-1 $281 $195 $120 $201 forward $191 $-1 #
edge $-1 $198 -30.55631550786720041 $205 30.55631550786720041 $200 $282 forward 7 unknown #
coedge $-1 $283 $121 $124 $208 reversed $204 $-1 #
coedge $-1 $121 $283 $281 $284 reversed $204 $-1 #
loop $-1 $-1 $121 $190 #
vertex $-1 $284 $285 #
straight-curve $-1 0 0 12.25367281217311977 0 0 1 I I #
coedge $-1 $124 $123 $273 $286 forward $65 $-1 #
edge $-1 $287 -7.131505193488997918 $126 7.131505193488997918 $202 $288 forward 7 unknown #
point $-1 0 61.11263101573440082 6.141607977365005411 #
point $-1 0 0 6.141607977365005411 #
face $-1 $-1 $227 $12 $-1 $289 reversed single #
loop $-1 $-1 $223 $128 #
plane-surface $-1 55.38499099703970785 30.55631550786720041 0 0 0 1 1 0 0 forward_v I I I I #
coedge $-1 $290 $215 $291 $292 forward $129 $-1 #
coedge $-1 $214 $293 $131 $216 reversed $129 $-1 #
edge $-1 $294 -30.55631550786720041 $295 30.55631550786720041 $215 $296 forward 7 unknown #
coedge $-1 $133 $132 $293 $297 forward $44 $-1 #
edge $-1 $295 -7.131505193488990813 $141 7.131505193489005023 $132 $298 forward 7 unknown #
coedge $-1 $299 $223 $133 $220 forward $212 $-1 #
edge $-1 $221 -7.131505193489005023 $300 7.131505193488990813 $133 $301 forward 7 unknown #
vertex $-1 $220 $302 #
straight-curve $-1 110.7699819940794157 61.11263101573440082 12.25367281217311977 0 0 1 I I #
coedge $-1 $219 $303 $135 $224 forward $212 $-1 #
edge $-1 $228 -30.55631550786720041 $221 30.55631550786720041 $223 $304 forward 7 unknown #
coedge $-1 $291 $136 $303 $305 reversed $227 $-1 #
coedge $-1 $136 $291 $138 $230 reversed $227 $-1 #
loop $-1 $-1 $136 $211 #
vertex $-1 $137 $306 #
straight-curve $-1 110.7699819940794157 0 12.25367281217311977 0 0 -1 I I #
edge $-1 $140 -7.131505193489005023 $294 7.131505193488990813 $226 $307 forward 7 unknown #
point $-1 110.7699819940794157 0 6.141607977365005411 #
point $-1 110.7699819940794157 61.11263101573440082 6.141607977365005411 #
plane-surface $-1 55.38499099703970785 30.55631550786720041 24.50734562434623953 0 0 1 1 0 0 forward_v I I I I #
coedge $-1 $244 $243 $236 $308 forward $144 $-1 #
coedge $-1 $236 $146 $148 $240 reversed $81 $-1 #
coedge $-1 $146 $235 $234 $308 reversed $81 $-1 #
coedge $-1 $154 $149 $146 $238 forward $155 $-1 #
edge $-1 $241 -2.936768587608597159 $309 7.444254796254874407 $237 $310 forward 7 unknown #
coedge $-1 $148 $147 $244 $311 reversed $48 $-1 #
edge $-1 $312 -61.11263101573440792 $241 -48.28098035073021066 $235 $313 forward 7 unknown #
vertex $-1 $150 $314 #
straight-curve $-1 62.95078921455107945 50.73160763187092925 24.50734562434624308 1 0 0 I I #
coedge $-1 $234 $151 $154 $248 reversed $144 $-1 #
coedge $-1 $151 $234 $239 $311 forward $144 $-1 #
vertex $-1 $152 $315 #
straight-curve $-1 63.3477562958932765 61.11263101573440082 77.37733215546606402 0 0 1 I I #
straight-curve $-1 63.3477562958932765 11.67147428646092422 52.88619420328591048 0 0.8090169889191003438 -0.5877852598018022956 I I #
edge $-1 $309 -22.30042757119191776 $156 -7.962765298853568652 $243 $316 forward 7 unknown #
point $-1 63.3477562958932765 61.11263101573440082 24.50734562434623953 #
point $-1 63.3477562958932765 50.73160763187092925 24.50734562434624308 #
edge $-1 $317 1 $317 0 $159 $-1 forward 7 unknown #
vertex $-1 $160 $318 #
ellipse-curve $-1 70.51658743206245106 52.24016945698916459 15.66844893459511212 0 0.5877852598018022956 0.8090169889191003438 2 0 0 1 I I #
point $-1 72.51658743206245106 55.92211932380268991 20.73621806443851767 #
plane-surface $-1 110.7699819940794157 30.55631550786720041 12.25367281217311977 -1 0 0 0 0 1 forward_v I I I I #
coedge $-1 $168 $166 $170 $260 reversed $96 $-1 #
edge $-1 $181 -12.25367281217311977 $262 12.25367281217311977 $180 $319 forward 7 unknown #
vertex $-1 $260 $320 #
straight-curve $-1 0 0 12.25367281217311977 0 0 -1 I I #
edge $-1 $258 -30.55631550786720041 $262 30.55631550786720041 $256 $321 forward 7 unknown #
straight-curve $-1 55.38499099703970785 0 0 -1 0 0 I I #
vertex $-1 $173 $322 #
straight-curve $-1 55.38499099703970785 61.11263101573440082 0 1 0 0 I I #
point $-1 110.7699819940794157 61.11263101573440082 0 #
point $-1 110.7699819940794157 0 0 #
straight-curve $-1 0 30.55631550786720041 24.50734562434623953 0 -1 0 I I #
point $-1 0 61.11263101573440082 24.50734562434623953 #
point $-1 0 0 24.50734562434623953 #
straight-curve $-1 110.7699819940794157 0 12.25367281217311977 0 0 -1 I I #
straight-curve $-1 110.7699819940794157 61.11263101573440082 12.25367281217311977 0 0 -1 I I #
plane-surface $-1 55.38499099703970785 0 12.25367281217311977 0 1 0 0 0 1 forward_v I I I I #
coedge $-1 $323 $193 $275 $324 reversed $115 $-1 #
coedge $-1 $193 $323 $207 $286 reversed $115 $-1 #
edge $-1 $278 -3.070803988682502705 $276 3.070803988682502705 $194 $325 forward 7 unknown #
coedge $-1 $195 $281 $272 $324 forward $191 $-1 #
vertex $-1 $196 $326 #
straight-curve $-1 55.38499099703970785 61.11263101573440082 0 1 0 0 I I #
vertex $-1 $197 $327 #
straight-curve $-1 -7.131505193488997918 61.11263101573440082 6.141607977365005411 -1 0 0 I I #
point $-1 0 61.11263101573440082 0 #
coedge $-1 $275 $200 $203 $284 forward $191 $-1 #
straight-curve $-1 0 30.55631550786720041 0 0 -1 0 I I #
coedge $-1 $203 $202 $323 $328 forward $204 $-1 #
edge $-1 $205 -7.131505193488997918 $329 7.131505193488997918 $203 $330 forward 7 unknown #
point $-1 0 0 0 #
edge $-1 $278 -30.55631550786720041 $287 30.55631550786720041 $273 $331 forward 7 unknown #
vertex $-1 $286 $332 #
straight-curve $-1 -7.131505193488997918 0 6.141607977365005411 1 0 0 I I #
plane-surface $-1 55.38499099703970785 0 12.25367281217311977 0 1 0 0 0 1 forward_v I I I I #
coedge $-1 $293 $214 $299 $333 reversed $129 $-1 #
coedge $-1 $226 $225 $214 $292 reversed $227 $-1 #
edge $-1 $294 -3.070803988682502705 $334 3.070803988682502705 $214 $335 forward 7 unknown #
coedge $-1 $215 $290 $217 $297 reversed $129 $-1 #
vertex $-1 $216 $336 #
vertex $-1 $216 $337 #
straight-curve $-1 125.0329923810574115 30.55631550786720041 6.141607977365005411 0 1 0 I I #
edge $-1 $295 -3.070803988682502705 $300 3.070803988682502705 $293 $338 forward 7 unknown #
straight-curve $-1 117.9014871875684207 61.11263101573440082 6.141607977365005411 -1 0 0 I I #
coedge $-1 $303 $219 $290 $333 forward $212 $-1 #
vertex $-1 $333 $339 #
straight-curve $-1 117.9014871875684207 61.11263101573440082 0 1 0 0 I I #
point $-1 110.7699819940794157 61.11263101573440082 0 #
coedge $-1 $223 $299 $225 $305 forward $212 $-1 #
straight-curve $-1 110.7699819940794157 30.55631550786720041 0 0 1 0 I I #
edge $-1 $334 -7.131505193488990813 $228 7.131505193489005023 $225 $340 forward 7 unknown #
point $-1 110.7699819940794157 0 0 #
straight-curve $-1 117.9014871875684207 0 6.141607977365005411 1 0 0 I I #
edge $-1 $309 52.86998653111982094 $312 60.41224165093528597 $234 $341 forward 7 unknown #
vertex $-1 $248 $342 #
straight-curve $-1 77.68541856823162561 53.66837621947952641 24.50734562434624308 0 1 0 I I #
edge $-1 $312 -14.73462935368054616 $245 -0.3969670813421970479 $244 $343 forward 7 unknown #
vertex $-1 $311 $344 #
straight-curve $-1 77.68541856823162561 11.67147428646092422 52.88619420328591048 0 -0.8090169889191003438 0.5877852598018022956 I I #
point $-1 77.68541856823162561 50.73160763187092925 24.50734562434624308 #
point $-1 63.3477562958932765 61.11263101573439371 16.96509050453077805 #
straight-curve $-1 55.38499099703970785 61.11263101573440082 24.50734562434623953 -1 0 0 I I #
vertex $-1 $251 $345 #
point $-1 72.51658743206245106 52.24016945698916459 15.66844893459511212 #
straight-curve $-1 0 61.11263101573440082 12.25367281217311977 0 0 -1 I I #
point $-1 0 0 0 #
straight-curve $-1 0 30.55631550786720041 0 0 1 0 I I #
point $-1 0 61.11263101573440082 0 #
coedge $-1 $273 $272 $283 $328 reversed $115 $-1 #
edge $-1 $329 -30.55631550786720041 $276 30.55631550786720041 $272 $346 forward 7 unknown #
straight-curve $-1 -14.26301038697799584 61.11263101573440082 3.070803988682502705 0 0 -1 I I #
point $-1 -14.26301038697799584 61.11263101573440082 0 #
point $-1 -14.26301038697799584 61.11263101573440082 6.141607977365005411 #
edge $-1 $287 -3.070803988682502705 $329 3.070803988682502705 $323 $347 forward 7 unknown #
vertex $-1 $324 $348 #
straight-curve $-1 -7.131505193488997918 0 0 -1 0 0 I I #
straight-curve $-1 -14.26301038697799584 30.55631550786720041 6.141607977365005411 0 -1 0 I I #
point $-1 -14.26301038697799584 0 6.141607977365005411 #
edge $-1 $300 -30.55631550786720041 $334 30.55631550786720041 $290 $349 forward 7 unknown #
vertex $-1 $292 $350 #
straight-curve $-1 125.0329923810574115 0 3.070803988682502705 0 0 -1 I I #
point $-1 125.0329923810574115 0 6.141607977365005411 #
point $-1 125.0329923810574115 61.11263101573440082 6.141607977365005411 #
straight-curve $-1 125.0329923810574115 61.11263101573440082 3.070803988682502705 0 0 -1 I I #
point $-1 125.0329923810574115 61.11263101573440082 0 #
straight-curve $-1 117.9014871875684207 0 0 -1 0 0 I I #
straight-curve $-1 77.68541856823162561 61.11263101573440082 77.37733215546606402 0 0 -1 I I #
point $-1 77.68541856823162561 61.11263101573440082 24.50734562434623953 #
straight-curve $-1 62.95078921455107945 61.11263101573440082 16.96509050453077805 -1 0 0 I I #
point $-1 77.68541856823162561 61.11263101573439371 16.96509050453077805 #
point $-1 70.51658743206245106 51.06459893738555422 14.0504149567569101 #
straight-curve $-1 -14.26301038697799584 30.55631550786720041 0 0 1 0 I I #
straight-curve $-1 -14.26301038697799584 0 3.070803988682502705 0 0 -1 I I #
point $-1 -14.26301038697799584 0 0 #
straight-curve $-1 125.0329923810574115 30.55631550786720041 0 0 -1 0 I I #
point $-1 125.0329923810574115 0 0 #
End-of-ACIS-data 