500 0 12 0           
7 Unknown 11 ACIS 5.0 NT 24 Thu Mar 25 18:27:22 1999 
-1 9.9999999999999995e-007 1e-010 
body $-1 $12 $-1 $13 #
body $-1 $14 $-1 $15 #
body $-1 $16 $-1 $17 #
body $-1 $18 $-1 $19 #
body $-1 $20 $-1 $21 #
body $-1 $22 $-1 $23 #
body $-1 $24 $-1 $25 #
body $-1 $26 $-1 $27 #
body $-1 $28 $-1 $29 #
body $-1 $30 $-1 $31 #
body $-1 $32 $-1 $33 #
body $-1 $34 $-1 $35 #
lump $-1 $-1 $36 $0 #
transform $-1 1 0 0 0 1 0 0 0 1 58.369701223792234 36.480929663149148 15.651940967112715 1 rotate no_reflect no_shear #
lump $-1 $-1 $37 $1 #
transform $-1 1 0 0 0 1 0 0 0 1 58.369701223792234 36.480929663149148 15.651940967112715 1 rotate no_reflect no_shear #
lump $-1 $-1 $38 $2 #
transform $-1 1 0 0 0 1 0 0 0 1 58.369701223792234 36.480929663149148 15.651940967112715 1 rotate no_reflect no_shear #
lump $-1 $-1 $39 $3 #
transform $-1 1 0 0 0 1 0 0 0 1 58.369701223792234 36.480929663149148 15.651940967112715 1 rotate no_reflect no_shear #
lump $-1 $-1 $40 $4 #
transform $-1 1 0 0 0 1 0 0 0 1 58.369701223792234 36.480929663149148 15.651940967112715 1 rotate no_reflect no_shear #
lump $-1 $-1 $41 $5 #
transform $-1 1 0 0 0 1 0 0 0 1 58.369701223792234 36.480929663149148 15.651940967112715 1 rotate no_reflect no_shear #
lump $-1 $-1 $42 $6 #
transform $-1 1 0 0 0 1 0 0 0 1 58.369701223792234 36.480929663149148 15.651940967112715 1 rotate no_reflect no_shear #
lump $-1 $-1 $43 $7 #
transform $-1 1 0 0 0 1 0 0 0 1 58.369701223792234 36.480929663149148 15.651940967112715 1 rotate no_reflect no_shear #
lump $-1 $-1 $44 $8 #
transform $-1 1 0 0 0 1 0 0 0 1 58.369701223792234 36.480929663149148 15.651940967112715 1 rotate no_reflect no_shear #
lump $-1 $-1 $45 $9 #
transform $-1 1 0 0 0 1 0 0 0 1 58.369701223792234 36.480929663149148 15.651940967112715 1 rotate no_reflect no_shear #
lump $-1 $-1 $46 $10 #
transform $-1 1 0 0 0 1 0 0 0 1 58.369701223792234 36.480929663149148 15.651940967112715 1 rotate no_reflect no_shear #
lump $-1 $-1 $47 $11 #
transform $-1 1 0 0 0 1 0 0 0 1 58.369701223792234 36.480929663149148 15.651940967112715 1 rotate no_reflect no_shear #
shell $-1 $-1 $-1 $48 $-1 $12 #
shell $-1 $-1 $-1 $49 $-1 $14 #
shell $-1 $-1 $-1 $50 $-1 $16 #
shell $-1 $-1 $-1 $51 $-1 $18 #
shell $-1 $-1 $-1 $52 $-1 $20 #
shell $-1 $-1 $-1 $53 $-1 $22 #
shell $-1 $-1 $-1 $54 $-1 $24 #
shell $-1 $-1 $-1 $55 $-1 $26 #
shell $-1 $-1 $-1 $56 $-1 $28 #
shell $-1 $-1 $-1 $57 $-1 $30 #
shell $-1 $-1 $-1 $58 $-1 $32 #
shell $-1 $-1 $-1 $59 $-1 $34 #
face $-1 $60 $61 $36 $-1 $62 forward single #
face $-1 $63 $64 $37 $-1 $65 reversed single #
face $-1 $66 $67 $38 $-1 $68 reversed single #
face $-1 $69 $70 $39 $-1 $71 reversed single #
face $-1 $72 $73 $40 $-1 $74 forward single #
face $-1 $75 $76 $41 $-1 $77 forward single #
face $-1 $78 $79 $42 $-1 $80 reversed single #
face $-1 $81 $82 $43 $-1 $83 forward single #
face $-1 $84 $85 $44 $-1 $86 forward single #
face $-1 $87 $88 $45 $-1 $89 reversed single #
face $-1 $90 $91 $46 $-1 $92 forward single #
face $-1 $93 $94 $47 $-1 $95 forward single #
face $-1 $96 $97 $36 $-1 $98 reversed single #
loop $-1 $-1 $99 $48 #
plane-surface $-1 0 0 15.651940967112715 0 0 1 1 0 0 forward_v I I I I #
face $-1 $100 $101 $37 $-1 $102 reversed single #
loop $-1 $-1 $103 $49 #
plane-surface $-1 -52.889926454447647 0 10.663019129632367 0 0 1 1 0 0 forward_v I I I I #
face $-1 $104 $105 $38 $-1 $106 reversed single #
loop $-1 $-1 $107 $50 #
plane-surface $-1 52.889926454447647 0 10.663019129632367 0 0 1 1 0 0 forward_v I I I I #
face $-1 $108 $109 $39 $-1 $110 reversed single #
loop $-1 $-1 $111 $51 #
plane-surface $-1 -20.250343362357427 72.098856971798654 134.83384977844483 1 0 0 0 -0.73135370988377701 -0.68199835119979291 forward_v I I I I #
face $-1 $112 $113 $40 $-1 $114 forward single #
loop $-1 $115 $116 $52 #
cone-surface $-1 -14.464530973112453 28.066436922672903 6.9057513759239306 0 -0.73135370988377701 -0.68199835119979291 2 0 0 1 I I 0 1 2 forward I I I I #
face $-1 $117 $118 $41 $-1 $119 forward single #
loop $-1 $120 $121 $53 #
cone-surface $-1 -5.7858123892449882 28.066436922672903 6.9057513759239306 0 -0.73135370988377701 -0.68199835119979291 2 0 0 1 I I 0 1 2 forward I I I I #
face $-1 $122 $123 $42 $-1 $124 reversed single #
loop $-1 $-1 $125 $54 #
plane-surface $-1 27.159808322745626 72.098856971798654 134.83384977844483 1 0 0 0 -0.73135370988377701 -0.68199835119979291 forward_v I I I I #
face $-1 $126 $127 $43 $-1 $128 forward single #
loop $-1 $129 $130 $55 #
cone-surface $-1 32.9456207119906 28.066436922672903 6.9057513759239306 0 -0.73135370988377701 -0.68199835119979291 2 0 0 1 I I 0 1 2 forward I I I I #
face $-1 $131 $132 $44 $-1 $133 forward single #
loop $-1 $134 $135 $56 #
cone-surface $-1 41.624339295858064 28.066436922672903 6.9057513759239306 0 -0.73135370988377701 -0.68199835119979291 2 0 0 1 I I 0 1 2 forward I I I I #
face $-1 $136 $137 $45 $-1 $138 reversed single #
loop $-1 $-1 $139 $57 #
plane-surface $-1 38.865707011681472 -123.23521348813659 89.293963773476918 -1 0 0 0 -0.74314483375859142 0.66913059716165679 forward_v I I I I #
face $-1 $140 $141 $46 $-1 $142 forward single #
loop $-1 $143 $144 $58 #
cone-surface $-1 27.532239860297096 -34.09610640735216 13.081434035690405 0 0.74314483375859142 -0.66913059716165679 0.5 0 0 1 I I 0 1 0.5 forward I I I I #
face $-1 $145 $146 $47 $-1 $147 forward single #
loop $-1 $148 $149 $59 #
cone-surface $-1 34.332320151127732 -34.09610640735216 13.081434035690405 0 0.74314483375859142 -0.66913059716165679 0.5 0 0 1 I I 0 1 0.5 forward I I I I #
face $-1 $150 $151 $36 $-1 $152 reversed single #
loop $-1 $-1 $153 $60 #
plane-surface $-1 0 0 -15.651940967112715 0 0 1 1 0 0 forward_v I I I I #
coedge $-1 $154 $155 $156 $157 forward $61 $-1 #
face $-1 $158 $159 $37 $-1 $160 reversed single #
loop $-1 $-1 $161 $63 #
plane-surface $-1 -47.41015168510306 0 13.157480048372541 -1 0 0 0 0 1 forward_v I I I I #
coedge $-1 $162 $163 $164 $165 forward $64 $-1 #
face $-1 $166 $167 $38 $-1 $168 forward single #
loop $-1 $-1 $169 $66 #
plane-surface $-1 47.41015168510306 0 13.157480048372541 1 0 0 0 0 -1 forward_v I I I I #
coedge $-1 $170 $171 $172 $173 reversed $67 $-1 #
face $-1 $174 $175 $39 $-1 $176 reversed single #
loop $-1 $-1 $177 $69 #
plane-surface $-1 -10.12517168117872 -13.27893809785752 55.217769789143148 0 0.73135370988377701 0.68199835119979291 1 0 0 forward_v I I I I #
coedge $-1 $178 $179 $180 $181 reversed $70 $-1 #
face $-1 $-1 $182 $40 $-1 $183 forward single #
loop $-1 $184 $185 $72 #
cone-surface $-1 -14.464530973112453 25.352658664976779 4.3751122716733732 0 -0.73135370988377701 -0.68199835119979291 1 0 0 1 I I -0.70710678118654746 0.70710678118654746 1 forward I I I I #
loop $-1 $-1 $186 $52 #
coedge $-1 $116 $116 $187 $188 reversed $73 $-1 #
face $-1 $-1 $189 $41 $-1 $190 forward single #
loop $-1 $191 $192 $75 #
cone-surface $-1 -5.7858123892449882 25.352658664976779 4.3751122716733732 0 -0.73135370988377701 -0.68199835119979291 1 0 0 1 I I -0.70710678118654746 0.70710678118654746 1 forward I I I I #
loop $-1 $-1 $193 $53 #
coedge $-1 $121 $121 $194 $195 reversed $76 $-1 #
face $-1 $196 $197 $42 $-1 $198 forward single #
loop $-1 $-1 $199 $78 #
plane-surface $-1 37.284980003924332 -13.27893809785752 55.217769789143148 0 0.73135370988377701 0.68199835119979291 1 0 0 forward_v I I I I #
coedge $-1 $200 $201 $202 $203 reversed $79 $-1 #
face $-1 $-1 $204 $43 $-1 $205 forward single #
loop $-1 $206 $207 $81 #
cone-surface $-1 32.9456207119906 25.352658664976779 4.3751122716733732 0 -0.73135370988377701 -0.68199835119979291 1 0 0 1 I I -0.70710678118654746 0.70710678118654746 1 forward I I I I #
loop $-1 $-1 $208 $55 #
coedge $-1 $130 $130 $209 $210 reversed $82 $-1 #
face $-1 $-1 $211 $44 $-1 $212 forward single #
loop $-1 $213 $214 $84 #
cone-surface $-1 41.624339295858064 25.352658664976779 4.3751122716733732 0 -0.73135370988377701 -0.68199835119979291 1 0 0 1 I I -0.70710678118654746 0.70710678118654746 1 forward I I I I #
loop $-1 $-1 $215 $56 #
coedge $-1 $135 $135 $216 $217 reversed $85 $-1 #
face $-1 $218 $219 $45 $-1 $220 reversed single #
loop $-1 $-1 $221 $87 #
plane-surface $-1 30.9322800057124 -36.480929663149141 11.18005770142976 0 -0.74314483375859142 0.66913059716165679 1 0 0 forward_v I I I I #
coedge $-1 $222 $223 $224 $225 reversed $88 $-1 #
face $-1 $-1 $226 $46 $-1 $227 forward single #
loop $-1 $228 $229 $90 #
cone-surface $-1 27.532239860297096 -33.538747782033219 12.579586087819163 0 0.74314483375859142 -0.66913059716165679 0.25 0 0 1 I I -0.70710678118654746 0.70710678118654746 0.25 forward I I I I #
loop $-1 $-1 $230 $58 #
coedge $-1 $144 $144 $231 $232 reversed $91 $-1 #
face $-1 $-1 $233 $47 $-1 $234 forward single #
loop $-1 $235 $236 $93 #
cone-surface $-1 34.332320151127732 -33.538747782033219 12.579586087819163 0 0.74314483375859142 -0.66913059716165679 0.25 0 0 1 I I -0.70710678118654746 0.70710678118654746 0.25 forward I I I I #
loop $-1 $-1 $237 $59 #
coedge $-1 $149 $149 $238 $239 reversed $94 $-1 #
face $-1 $240 $241 $36 $-1 $242 reversed single #
loop $-1 $-1 $243 $96 #
plane-surface $-1 0 -36.480929663149148 0 0 1 0 0 0 1 forward_v I I I I #
coedge $-1 $244 $245 $246 $247 forward $97 $-1 #
coedge $-1 $248 $99 $249 $250 forward $61 $-1 #
coedge $-1 $99 $248 $251 $252 forward $61 $-1 #
coedge $-1 $253 $254 $99 $157 reversed $255 $-1 #
edge $-1 $256 -36.480929663149148 $257 36.480929663149148 $156 $258 forward 7 unknown #
face $-1 $259 $260 $37 $-1 $261 reversed single #
loop $-1 $-1 $262 $100 #
plane-surface $-1 0 36.480929663149148 0 0 -1 0 0 0 -1 forward_v I I I I #
coedge $-1 $164 $263 $264 $265 reversed $101 $-1 #
coedge $-1 $266 $103 $267 $268 reversed $64 $-1 #
coedge $-1 $103 $266 $269 $270 reversed $64 $-1 #
coedge $-1 $271 $161 $103 $165 reversed $101 $-1 #
edge $-1 $272 -36.480929663149148 $273 36.480929663149148 $164 $274 forward 7 unknown #
face $-1 $275 $276 $38 $-1 $277 reversed single #
loop $-1 $-1 $278 $104 #
plane-surface $-1 0 0 15.651940967112715 0 0 1 1 0 0 forward_v I I I I #
coedge $-1 $279 $280 $281 $282 reversed $105 $-1 #
coedge $-1 $283 $107 $284 $285 reversed $67 $-1 #
coedge $-1 $107 $283 $286 $287 reversed $67 $-1 #
coedge $-1 $288 $289 $107 $173 forward $290 $-1 #
edge $-1 $291 -36.480929663149148 $292 36.480929663149148 $172 $293 forward 7 unknown #
face $-1 $294 $295 $39 $-1 $296 reversed single #
loop $-1 $-1 $297 $108 #
plane-surface $-1 -1.4210854715202004e-014 72.098856971798654 134.83384977844483 -1 0 0 0 0.73135370988377701 0.68199835119979291 forward_v I I I I #
coedge $-1 $298 $299 $300 $301 reversed $109 $-1 #
coedge $-1 $179 $111 $302 $303 reversed $70 $-1 #
coedge $-1 $111 $178 $298 $304 reversed $70 $-1 #
coedge $-1 $300 $305 $111 $181 forward $306 $-1 #
edge $-1 $307 -0.43150117724982096 $308 12.432635208077997 $180 $309 forward 7 unknown #
loop $-1 $-1 $187 $112 #
plane-surface $-1 -10.12517168117872 -13.27893809785752 55.217769789143148 0 0.73135370988377701 0.68199835119979291 1 0 0 forward_v I I I I #
loop $-1 $-1 $310 $72 #
coedge $-1 $185 $185 $186 $311 reversed $113 $-1 #
coedge $-1 $186 $186 $185 $311 forward $115 $-1 #
coedge $-1 $187 $187 $116 $188 forward $182 $-1 #
edge $-1 $312 2.1120893748965833e-016 $312 6.2831853071796004 $187 $313 forward 7 unknown #
loop $-1 $-1 $194 $117 #
plane-surface $-1 -10.12517168117872 -13.27893809785752 55.217769789143148 0 0.73135370988377701 0.68199835119979291 1 0 0 forward_v I I I I #
loop $-1 $-1 $314 $75 #
coedge $-1 $192 $192 $193 $315 reversed $118 $-1 #
coedge $-1 $193 $193 $192 $315 forward $120 $-1 #
coedge $-1 $194 $194 $121 $195 forward $189 $-1 #
edge $-1 $316 2.1120893748965833e-016 $316 6.2831853071796004 $194 $317 forward 7 unknown #
face $-1 $318 $319 $42 $-1 $320 forward single #
loop $-1 $-1 $202 $122 #
plane-surface $-1 0 0 15.651940967112715 0 0 1 1 0 0 forward_v I I I I #
coedge $-1 $321 $322 $323 $324 reversed $123 $-1 #
coedge $-1 $201 $125 $325 $326 reversed $79 $-1 #
coedge $-1 $125 $200 $321 $327 reversed $79 $-1 #
coedge $-1 $323 $328 $125 $203 forward $197 $-1 #
edge $-1 $329 -0.43150117724982096 $330 12.432635208077997 $202 $331 forward 7 unknown #
loop $-1 $-1 $209 $126 #
plane-surface $-1 37.284980003924332 -13.27893809785752 55.217769789143148 0 0.73135370988377701 0.68199835119979291 1 0 0 forward_v I I I I #
loop $-1 $-1 $332 $81 #
coedge $-1 $207 $207 $208 $333 reversed $127 $-1 #
coedge $-1 $208 $208 $207 $333 forward $129 $-1 #
coedge $-1 $209 $209 $130 $210 forward $204 $-1 #
edge $-1 $334 2.1120893748965833e-016 $334 6.2831853071796004 $209 $335 forward 7 unknown #
loop $-1 $-1 $216 $131 #
plane-surface $-1 37.284980003924332 -13.27893809785752 55.217769789143148 0 0.73135370988377701 0.68199835119979291 1 0 0 forward_v I I I I #
loop $-1 $-1 $336 $84 #
coedge $-1 $214 $214 $215 $337 reversed $132 $-1 #
coedge $-1 $215 $215 $214 $337 forward $134 $-1 #
coedge $-1 $216 $216 $135 $217 forward $211 $-1 #
edge $-1 $338 2.1120893748965833e-016 $338 6.2831853071796004 $216 $339 forward 7 unknown #
face $-1 $340 $341 $45 $-1 $342 forward single #
loop $-1 $-1 $343 $136 #
plane-surface $-1 22.998852999743328 -123.23521348813659 89.293963773476918 1 0 0 0 0.74314483375859142 -0.66913059716165679 forward_v I I I I #
coedge $-1 $344 $345 $346 $347 reversed $137 $-1 #
coedge $-1 $223 $139 $348 $349 reversed $88 $-1 #
coedge $-1 $139 $222 $344 $350 reversed $88 $-1 #
coedge $-1 $346 $351 $139 $225 forward $341 $-1 #
edge $-1 $352 25.136677080919149 $353 29.163178758754526 $224 $354 forward 7 unknown #
loop $-1 $-1 $231 $140 #
plane-surface $-1 30.9322800057124 -36.480929663149141 11.18005770142976 0 -0.74314483375859142 0.66913059716165679 1 0 0 forward_v I I I I #
loop $-1 $-1 $355 $90 #
coedge $-1 $229 $229 $230 $356 reversed $141 $-1 #
coedge $-1 $230 $230 $229 $356 forward $143 $-1 #
coedge $-1 $231 $231 $144 $232 forward $226 $-1 #
edge $-1 $357 -2.640180816224072e-015 $357 6.2831853071795978 $231 $358 forward 7 unknown #
loop $-1 $-1 $238 $145 #
plane-surface $-1 30.9322800057124 -36.480929663149141 11.18005770142976 0 -0.74314483375859142 0.66913059716165679 1 0 0 forward_v I I I I #
loop $-1 $-1 $359 $93 #
coedge $-1 $236 $236 $237 $360 reversed $146 $-1 #
coedge $-1 $237 $237 $236 $360 forward $148 $-1 #
coedge $-1 $238 $238 $149 $239 forward $233 $-1 #
edge $-1 $361 -2.640180816224072e-015 $361 6.2831853071795978 $238 $362 forward 7 unknown #
face $-1 $363 $364 $36 $-1 $365 reversed single #
loop $-1 $-1 $366 $150 #
plane-surface $-1 -58.369701223792234 0 0 1 0 0 0 0 -1 forward_v I I I I #
coedge $-1 $367 $251 $368 $369 forward $151 $-1 #
coedge $-1 $370 $153 $367 $371 forward $97 $-1 #
coedge $-1 $153 $370 $372 $373 forward $97 $-1 #
coedge $-1 $254 $253 $153 $247 reversed $255 $-1 #
edge $-1 $374 -36.480929663149148 $375 36.480929663149148 $246 $376 forward 7 unknown #
coedge $-1 $155 $154 $377 $378 forward $61 $-1 #
coedge $-1 $379 $380 $154 $250 reversed $364 $-1 #
edge $-1 $257 -58.369701223792234 $381 58.369701223792234 $249 $382 forward 7 unknown #
coedge $-1 $243 $383 $155 $252 reversed $151 $-1 #
edge $-1 $384 -58.369701223792234 $256 58.369701223792234 $251 $385 forward 7 unknown #
coedge $-1 $246 $156 $383 $386 forward $255 $-1 #
coedge $-1 $156 $246 $379 $387 reversed $255 $-1 #
loop $-1 $-1 $253 $363 #
vertex $-1 $157 $388 #
vertex $-1 $157 $389 #
straight-curve $-1 58.369701223792234 0 15.651940967112715 0 1 0 I I #
face $-1 $390 $391 $37 $-1 $392 forward single #
loop $-1 $-1 $393 $158 #
plane-surface $-1 -58.369701223792234 0 0 1 0 0 0 0 -1 forward_v I I I I #
coedge $-1 $269 $394 $271 $395 forward $159 $-1 #
coedge $-1 $161 $271 $396 $397 reversed $101 $-1 #
coedge $-1 $398 $267 $161 $265 forward $399 $-1 #
edge $-1 $273 4.0842791054460967 $400 9.0732009429264444 $264 $401 forward 7 unknown #
coedge $-1 $163 $162 $393 $402 reversed $64 $-1 #
coedge $-1 $264 $403 $162 $268 forward $399 $-1 #
edge $-1 $404 -31.92473799656841 $273 -20.965188457879236 $267 $405 forward 7 unknown #
coedge $-1 $406 $262 $163 $270 forward $159 $-1 #
edge $-1 $272 20.965188457879236 $407 31.92473799656841 $269 $408 forward 7 unknown #
coedge $-1 $263 $164 $262 $395 reversed $101 $-1 #
vertex $-1 $270 $409 #
vertex $-1 $268 $410 #
straight-curve $-1 -47.41015168510306 0 10.663019129632367 0 -1 0 I I #
face $-1 $411 $412 $38 $-1 $413 reversed single #
loop $-1 $-1 $414 $166 #
plane-surface $-1 0 -36.480929663149148 0 0 1 0 0 0 1 forward_v I I I I #
coedge $-1 $415 $416 $280 $417 forward $167 $-1 #
coedge $-1 $418 $169 $283 $419 reversed $105 $-1 #
coedge $-1 $169 $418 $278 $417 reversed $105 $-1 #
coedge $-1 $420 $286 $169 $282 forward $412 $-1 #
edge $-1 $421 4.0842791054460967 $422 9.0732009429264444 $281 $423 forward 7 unknown #
coedge $-1 $171 $170 $279 $419 forward $67 $-1 #
coedge $-1 $424 $414 $170 $285 forward $276 $-1 #
edge $-1 $425 20.965188457879236 $291 31.92473799656841 $284 $426 forward 7 unknown #
coedge $-1 $281 $427 $171 $287 forward $412 $-1 #
edge $-1 $292 -31.92473799656841 $421 -20.965188457879236 $286 $428 forward 7 unknown #
coedge $-1 $429 $172 $427 $430 reversed $290 $-1 #
coedge $-1 $172 $429 $424 $431 forward $290 $-1 #
loop $-1 $-1 $172 $411 #
vertex $-1 $285 $432 #
vertex $-1 $173 $433 #
straight-curve $-1 58.369701223792234 0 10.663019129632367 0 1 0 I I #
face $-1 $-1 $306 $39 $-1 $434 forward single #
loop $-1 $-1 $435 $174 #
plane-surface $-1 0 36.480929663149148 0 0 -1 0 0 0 -1 forward_v I I I I #
coedge $-1 $436 $437 $438 $439 reversed $175 $-1 #
coedge $-1 $440 $177 $179 $304 forward $109 $-1 #
coedge $-1 $177 $440 $436 $441 forward $109 $-1 #
coedge $-1 $438 $180 $177 $301 forward $306 $-1 #
edge $-1 $308 -15.187757521768066 $442 5.062585840589346 $300 $443 forward 7 unknown #
coedge $-1 $444 $445 $178 $303 forward $295 $-1 #
edge $-1 $446 -65.560081598385779 $307 -51.7649839221097 $302 $447 forward 7 unknown #
edge $-1 $308 54.099443658141865 $446 72.961859326298281 $179 $448 forward 7 unknown #
coedge $-1 $180 $438 $444 $449 forward $306 $-1 #
loop $-1 $-1 $438 $294 #
vertex $-1 $303 $450 #
vertex $-1 $181 $451 #
straight-curve $-1 -20.250343362357427 36.049428485899327 15.651940967112715 0 -1 0 I I #
coedge $-1 $310 $310 $-1 $452 reversed $184 $-1 #
edge $-1 $453 0 $453 6.2831853071796004 $185 $454 forward 7 unknown #
vertex $-1 $188 $455 #
ellipse-curve $-1 -14.464530973112453 30.048861470485232 8.7543921289746791 0 0.73135370988377701 0.68199835119979291 2 0 0 1 I I #
coedge $-1 $314 $314 $-1 $456 reversed $191 $-1 #
edge $-1 $457 0 $457 6.2831853071796004 $192 $458 forward 7 unknown #
vertex $-1 $195 $459 #
ellipse-curve $-1 -5.7858123892449882 30.048861470485232 8.7543921289746791 0 0.73135370988377701 0.68199835119979291 2 0 0 1 I I #
face $-1 $-1 $460 $42 $-1 $461 reversed single #
loop $-1 $-1 $462 $196 #
plane-surface $-1 47.41015168510306 0 13.157480048372541 1 0 0 0 0 -1 forward_v I I I I #
coedge $-1 $463 $199 $201 $327 forward $123 $-1 #
coedge $-1 $199 $463 $462 $464 forward $123 $-1 #
coedge $-1 $465 $202 $199 $324 forward $197 $-1 #
edge $-1 $330 8.5173183207834597 $466 28.767661683140872 $323 $467 forward 7 unknown #
coedge $-1 $468 $469 $200 $326 forward $460 $-1 #
edge $-1 $470 -65.560081598385779 $329 -51.7649839221097 $325 $471 forward 7 unknown #
edge $-1 $330 54.099443658141865 $470 72.961859326298281 $201 $472 forward 7 unknown #
coedge $-1 $202 $465 $468 $473 forward $197 $-1 #
vertex $-1 $326 $474 #
vertex $-1 $203 $475 #
straight-curve $-1 27.159808322745626 36.049428485899327 15.651940967112715 0 -1 0 I I #
coedge $-1 $332 $332 $-1 $476 reversed $206 $-1 #
edge $-1 $477 0 $477 6.2831853071796004 $207 $478 forward 7 unknown #
vertex $-1 $210 $479 #
ellipse-curve $-1 32.9456207119906 30.048861470485232 8.7543921289746791 0 0.73135370988377701 0.68199835119979291 2 0 0 1 I I #
coedge $-1 $336 $336 $-1 $480 reversed $213 $-1 #
edge $-1 $481 0 $481 6.2831853071796004 $214 $482 forward 7 unknown #
vertex $-1 $217 $483 #
ellipse-curve $-1 41.624339295858064 30.048861470485232 8.7543921289746791 0 0.73135370988377701 0.68199835119979291 2 0 0 1 I I #
face $-1 $-1 $484 $45 $-1 $485 reversed single #
loop $-1 $-1 $224 $218 #
plane-surface $-1 0 0 15.651940967112715 0 0 1 1 0 0 forward_v I I I I #
coedge $-1 $486 $487 $488 $489 reversed $219 $-1 #
coedge $-1 $490 $221 $223 $350 forward $137 $-1 #
coedge $-1 $221 $490 $486 $491 forward $137 $-1 #
coedge $-1 $488 $224 $221 $347 forward $341 $-1 #
edge $-1 $353 -23.399567008825272 $492 -7.5327129968871276 $346 $493 forward 7 unknown #
coedge $-1 $494 $495 $222 $349 forward $484 $-1 #
edge $-1 $496 -33.466924185308706 $352 -28.995040919625744 $348 $497 forward 7 unknown #
edge $-1 $353 -6.0175124182261808 $496 1.0034820483328475e-014 $223 $498 forward 7 unknown #
coedge $-1 $224 $488 $494 $499 forward $341 $-1 #
vertex $-1 $349 $500 #
vertex $-1 $225 $501 #
straight-curve $-1 38.865707011681472 -61.617606744068297 15.651940967112715 0 1 0 I I #
coedge $-1 $355 $355 $-1 $502 reversed $228 $-1 #
edge $-1 $503 0 $503 6.2831853071796004 $229 $504 forward 7 unknown #
vertex $-1 $232 $505 #
ellipse-curve $-1 27.532239860297096 -34.467678824231456 13.415999334271236 0 -0.74314483375859142 0.66913059716165679 0.5 0 0 1 I I #
coedge $-1 $359 $359 $-1 $506 reversed $235 $-1 #
edge $-1 $507 0 $507 6.2831853071796004 $236 $508 forward 7 unknown #
vertex $-1 $239 $509 #
ellipse-curve $-1 34.332320151127732 -34.467678824231456 13.415999334271236 0 -0.74314483375859142 0.66913059716165679 0.5 0 0 1 I I #
face $-1 $-1 $255 $36 $-1 $510 reversed single #
loop $-1 $-1 $379 $240 #
plane-surface $-1 0 36.480929663149148 0 0 -1 0 0 0 -1 forward_v I I I I #
coedge $-1 $511 $377 $380 $512 forward $241 $-1 #
coedge $-1 $383 $243 $244 $371 reversed $151 $-1 #
coedge $-1 $377 $511 $243 $369 reversed $241 $-1 #
edge $-1 $384 -15.651940967112715 $513 15.651940967112715 $368 $514 forward 7 unknown #
coedge $-1 $245 $244 $511 $515 forward $97 $-1 #
edge $-1 $375 -58.369701223792234 $513 58.369701223792234 $367 $516 forward 7 unknown #
coedge $-1 $380 $379 $245 $373 reversed $364 $-1 #
edge $-1 $517 -58.369701223792234 $374 58.369701223792234 $372 $518 forward 7 unknown #
vertex $-1 $247 $519 #
vertex $-1 $386 $520 #
straight-curve $-1 58.369701223792234 0 -15.651940967112715 0 -1 0 I I #
coedge $-1 $366 $368 $248 $378 reversed $241 $-1 #
edge $-1 $381 -36.480929663149148 $384 36.480929663149148 $377 $521 forward 7 unknown #
coedge $-1 $372 $249 $254 $387 forward $364 $-1 #
coedge $-1 $249 $372 $366 $512 reversed $364 $-1 #
vertex $-1 $250 $522 #
straight-curve $-1 0 36.480929663149148 15.651940967112715 -1 0 0 I I #
coedge $-1 $251 $367 $253 $386 reversed $151 $-1 #
vertex $-1 $378 $523 #
straight-curve $-1 0 -36.480929663149148 15.651940967112715 1 0 0 I I #
edge $-1 $256 -15.651940967112715 $375 15.651940967112715 $253 $524 forward 7 unknown #
edge $-1 $257 -15.651940967112715 $374 15.651940967112715 $254 $525 forward 7 unknown #
point $-1 58.369701223792234 -36.480929663149148 15.651940967112715 #
point $-1 58.369701223792234 36.480929663149148 15.651940967112715 #
face $-1 $-1 $399 $37 $-1 $526 reversed single #
loop $-1 $-1 $396 $259 #
plane-surface $-1 0 0 15.651940967112715 0 0 1 1 0 0 forward_v I I I I #
coedge $-1 $527 $528 $266 $402 forward $260 $-1 #
coedge $-1 $262 $406 $529 $530 reversed $159 $-1 #
edge $-1 $531 -9.0732009429264444 $272 -4.0842791054460967 $262 $532 forward 7 unknown #
coedge $-1 $529 $533 $263 $397 forward $391 $-1 #
edge $-1 $400 -36.480929663149148 $531 36.480929663149148 $396 $534 forward 7 unknown #
coedge $-1 $403 $264 $533 $535 reversed $399 $-1 #
loop $-1 $-1 $264 $390 #
vertex $-1 $265 $536 #
straight-curve $-1 -47.41015168510306 -36.480929663149148 6.5787400241862706 0 0 1 I I #
edge $-1 $407 -36.480929663149148 $404 36.480929663149148 $393 $537 forward 7 unknown #
coedge $-1 $267 $398 $527 $538 forward $399 $-1 #
vertex $-1 $402 $539 #
straight-curve $-1 -26.444963227223823 -36.480929663149148 10.663019129632367 1 0 0 I I #
coedge $-1 $394 $269 $528 $540 reversed $159 $-1 #
vertex $-1 $402 $541 #
straight-curve $-1 -26.444963227223823 36.480929663149148 10.663019129632367 -1 0 0 I I #
point $-1 -47.41015168510306 36.480929663149148 10.663019129632367 #
point $-1 -47.41015168510306 -36.480929663149148 10.663019129632367 #
face $-1 $-1 $290 $38 $-1 $542 reversed single #
loop $-1 $-1 $281 $275 #
plane-surface $-1 0 36.480929663149148 0 0 -1 0 0 0 -1 forward_v I I I I #
coedge $-1 $284 $543 $418 $544 forward $276 $-1 #
coedge $-1 $545 $278 $543 $546 forward $167 $-1 #
coedge $-1 $278 $545 $420 $547 forward $167 $-1 #
edge $-1 $422 -36.480929663149148 $548 36.480929663149148 $278 $549 forward 7 unknown #
coedge $-1 $280 $279 $414 $544 reversed $105 $-1 #
edge $-1 $425 -36.480929663149148 $421 36.480929663149148 $279 $550 forward 7 unknown #
coedge $-1 $427 $281 $416 $547 reversed $412 $-1 #
vertex $-1 $287 $551 #
vertex $-1 $282 $552 #
straight-curve $-1 47.41015168510306 36.480929663149148 6.5787400241862706 0 0 1 I I #
coedge $-1 $543 $284 $289 $431 reversed $276 $-1 #
vertex $-1 $285 $553 #
straight-curve $-1 26.444963227223823 -36.480929663149148 10.663019129632367 1 0 0 I I #
coedge $-1 $286 $420 $288 $430 forward $412 $-1 #
straight-curve $-1 26.444963227223823 36.480929663149148 10.663019129632367 -1 0 0 I I #
coedge $-1 $289 $288 $545 $554 reversed $290 $-1 #
edge $-1 $555 -15.651940967112715 $292 -10.663019129632367 $288 $556 forward 7 unknown #
edge $-1 $557 -15.651940967112715 $291 -10.663019129632367 $289 $558 forward 7 unknown #
point $-1 58.369701223792234 -36.480929663149148 10.663019129632367 #
point $-1 58.369701223792234 36.480929663149148 10.663019129632367 #
plane-surface $-1 0 0 15.651940967112715 0 0 1 1 0 0 forward_v I I I I #
coedge $-1 $445 $444 $437 $559 forward $295 $-1 #
coedge $-1 $437 $297 $299 $441 reversed $175 $-1 #
coedge $-1 $297 $436 $435 $559 reversed $175 $-1 #
coedge $-1 $305 $300 $297 $439 forward $306 $-1 #
edge $-1 $442 -12.432635208077997 $560 0.43150117724982096 $438 $561 forward 7 unknown #
coedge $-1 $299 $298 $445 $562 reversed $109 $-1 #
edge $-1 $563 -72.961859326298281 $442 -54.099443658141865 $436 $564 forward 7 unknown #
vertex $-1 $301 $565 #
straight-curve $-1 -5.0625858405893602 23.616793277821337 15.651940967112715 1 0 0 I I #
coedge $-1 $435 $302 $305 $449 reversed $295 $-1 #
coedge $-1 $302 $435 $440 $562 forward $295 $-1 #
vertex $-1 $303 $566 #
straight-curve $-1 -20.250343362357427 36.480929663149148 67.416924889222415 0 0 1 I I #
straight-curve $-1 -20.250343362357427 -13.27893809785752 55.217769789143148 0 0.68199835119979291 -0.73135370988377701 I I #
edge $-1 $560 1.4210854715202004e-014 $307 20.250343362357427 $444 $567 forward 7 unknown #
point $-1 -20.250343362357427 36.480929663149148 15.651940967112715 #
point $-1 -20.250343362357427 23.61679327782133 15.651940967112715 #
edge $-1 $568 1 $568 0 $310 $-1 forward 7 unknown #
vertex $-1 $311 $569 #
ellipse-curve $-1 -14.464530973112453 26.084012374860556 5.0571106228731662 0 0.73135370988377701 0.68199835119979291 2 0 0 1 I I #
point $-1 -12.464530973112453 30.048861470485249 8.7543921289746951 #
edge $-1 $570 1 $570 0 $314 $-1 forward 7 unknown #
vertex $-1 $315 $571 #
ellipse-curve $-1 -5.7858123892449882 26.084012374860556 5.0571106228731662 0 0.73135370988377701 0.68199835119979291 2 0 0 1 I I #
point $-1 -3.7858123892449882 30.048861470485249 8.7543921289746951 #
loop $-1 $-1 $325 $318 #
plane-surface $-1 0 36.480929663149148 0 0 -1 0 0 0 -1 forward_v I I I I #
coedge $-1 $572 $573 $322 $464 reversed $319 $-1 #
coedge $-1 $322 $321 $469 $574 reversed $123 $-1 #
edge $-1 $575 -72.961859326298281 $466 -54.099443658141865 $462 $576 forward 7 unknown #
coedge $-1 $328 $323 $573 $577 forward $197 $-1 #
vertex $-1 $577 $578 #
straight-curve $-1 18.642490001962166 23.616793277821337 15.651940967112715 1 0 0 I I #
coedge $-1 $579 $325 $328 $473 reversed $460 $-1 #
coedge $-1 $325 $579 $463 $574 forward $460 $-1 #
vertex $-1 $326 $580 #
straight-curve $-1 27.159808322745626 36.480929663149148 67.416924889222415 0 0 1 I I #
straight-curve $-1 27.159808322745626 -13.27893809785752 55.217769789143148 0 0.68199835119979291 -0.73135370988377701 I I #
edge $-1 $581 -47.41015168510306 $329 -27.159808322745626 $468 $582 forward 7 unknown #
point $-1 27.159808322745626 36.480929663149148 15.651940967112715 #
point $-1 27.159808322745626 23.61679327782133 15.651940967112715 #
edge $-1 $583 1 $583 0 $332 $-1 forward 7 unknown #
vertex $-1 $333 $584 #
ellipse-curve $-1 32.9456207119906 26.084012374860556 5.0571106228731662 0 0.73135370988377701 0.68199835119979291 2 0 0 1 I I #
point $-1 34.9456207119906 30.048861470485249 8.7543921289746951 #
edge $-1 $585 1 $585 0 $336 $-1 forward 7 unknown #
vertex $-1 $337 $586 #
ellipse-curve $-1 41.624339295858064 26.084012374860556 5.0571106228731662 0 0.73135370988377701 0.68199835119979291 2 0 0 1 I I #
point $-1 43.624339295858064 30.048861470485249 8.7543921289746951 #
loop $-1 $-1 $348 $340 #
plane-surface $-1 0 -36.480929663149148 0 0 1 0 0 0 1 forward_v I I I I #
coedge $-1 $487 $343 $345 $491 reversed $219 $-1 #
coedge $-1 $343 $486 $587 $588 reversed $219 $-1 #
coedge $-1 $351 $346 $343 $489 forward $341 $-1 #
edge $-1 $492 -29.163178758754526 $589 -25.136677080919149 $488 $590 forward 7 unknown #
coedge $-1 $345 $344 $495 $591 reversed $137 $-1 #
edge $-1 $592 -1.0034820483328475e-014 $492 6.0175124182261808 $486 $593 forward 7 unknown #
vertex $-1 $347 $594 #
straight-curve $-1 15.4661400028562 -32.454427985313771 15.651940967112715 -1 0 0 I I #
coedge $-1 $587 $348 $351 $499 reversed $484 $-1 #
coedge $-1 $348 $587 $490 $591 forward $484 $-1 #
vertex $-1 $349 $595 #
straight-curve $-1 38.865707011681472 -36.480929663149148 44.646981886738459 0 0 1 I I #
straight-curve $-1 38.865707011681472 -36.480929663149141 11.18005770142976 0 -0.66913059716165679 -0.74314483375859142 I I #
edge $-1 $589 22.998852999743328 $352 38.865707011681472 $494 $596 forward 7 unknown #
point $-1 38.865707011681472 -36.480929663149148 15.651940967112715 #
point $-1 38.865707011681472 -32.454427985313771 15.651940967112715 #
edge $-1 $597 1 $597 0 $355 $-1 forward 7 unknown #
vertex $-1 $356 $598 #
ellipse-curve $-1 27.532239860297096 -33.724533990472864 12.746868737109576 0 -0.74314483375859142 0.66913059716165679 0.5 0 0 1 I I #
point $-1 28.032239860297096 -34.467678824231456 13.415999334271234 #
edge $-1 $599 1 $599 0 $359 $-1 forward 7 unknown #
vertex $-1 $360 $600 #
ellipse-curve $-1 34.332320151127732 -33.724533990472864 12.746868737109576 0 -0.74314483375859142 0.66913059716165679 0.5 0 0 1 I I #
point $-1 34.832320151127732 -34.467678824231456 13.415999334271234 #
plane-surface $-1 58.369701223792234 0 0 -1 0 0 0 0 1 forward_v I I I I #
coedge $-1 $368 $366 $370 $515 reversed $241 $-1 #
edge $-1 $381 -15.651940967112715 $517 15.651940967112715 $380 $601 forward 7 unknown #
vertex $-1 $515 $602 #
straight-curve $-1 -58.369701223792234 -36.480929663149148 0 0 0 -1 I I #
edge $-1 $513 -36.480929663149148 $517 36.480929663149148 $511 $603 forward 7 unknown #
straight-curve $-1 0 -36.480929663149148 -15.651940967112715 -1 0 0 I I #
vertex $-1 $373 $604 #
straight-curve $-1 0 36.480929663149148 -15.651940967112715 1 0 0 I I #
point $-1 58.369701223792234 36.480929663149148 -15.651940967112715 #
point $-1 58.369701223792234 -36.480929663149148 -15.651940967112715 #
straight-curve $-1 -58.369701223792234 0 15.651940967112715 0 -1 0 I I #
point $-1 -58.369701223792234 36.480929663149148 15.651940967112715 #
point $-1 -58.369701223792234 -36.480929663149148 15.651940967112715 #
straight-curve $-1 58.369701223792234 -36.480929663149148 0 0 0 -1 I I #
straight-curve $-1 58.369701223792234 36.480929663149148 0 0 0 -1 I I #
plane-surface $-1 0 -36.480929663149148 0 0 1 0 0 0 1 forward_v I I I I #
coedge $-1 $605 $393 $403 $538 reversed $260 $-1 #
coedge $-1 $393 $605 $406 $540 forward $260 $-1 #
coedge $-1 $606 $396 $394 $530 forward $391 $-1 #
edge $-1 $531 47.41015168510306 $607 58.369701223792234 $394 $608 forward 7 unknown #
vertex $-1 $530 $609 #
straight-curve $-1 -47.41015168510306 36.480929663149148 6.5787400241862706 0 0 -1 I I #
coedge $-1 $396 $606 $398 $535 forward $391 $-1 #
straight-curve $-1 -47.41015168510306 0 15.651940967112715 0 1 0 I I #
edge $-1 $610 -58.369701223792234 $400 -47.41015168510306 $398 $611 forward 7 unknown #
point $-1 -47.41015168510306 -36.480929663149148 15.651940967112715 #
straight-curve $-1 -58.369701223792234 0 10.663019129632367 0 -1 0 I I #
edge $-1 $610 -15.651940967112715 $404 -10.663019129632367 $527 $612 forward 7 unknown #
point $-1 -58.369701223792234 -36.480929663149148 10.663019129632367 #
edge $-1 $607 -15.651940967112715 $407 -10.663019129632367 $406 $613 forward 7 unknown #
point $-1 -58.369701223792234 36.480929663149148 10.663019129632367 #
plane-surface $-1 58.369701223792234 0 0 -1 0 0 0 0 1 forward_v I I I I #
coedge $-1 $414 $424 $415 $546 reversed $276 $-1 #
edge $-1 $548 -9.0732009429264444 $425 -4.0842791054460967 $414 $614 forward 7 unknown #
coedge $-1 $416 $415 $429 $554 forward $167 $-1 #
edge $-1 $548 47.41015168510306 $557 58.369701223792234 $543 $615 forward 7 unknown #
edge $-1 $555 -58.369701223792234 $422 -47.41015168510306 $420 $616 forward 7 unknown #
vertex $-1 $546 $617 #
straight-curve $-1 47.41015168510306 0 15.651940967112715 0 -1 0 I I #
straight-curve $-1 47.41015168510306 0 10.663019129632367 0 1 0 I I #
point $-1 47.41015168510306 36.480929663149148 10.663019129632367 #
point $-1 47.41015168510306 36.480929663149148 15.651940967112715 #
point $-1 47.41015168510306 -36.480929663149148 10.663019129632367 #
edge $-1 $557 -36.480929663149148 $555 36.480929663149148 $429 $618 forward 7 unknown #
vertex $-1 $554 $619 #
straight-curve $-1 58.369701223792234 36.480929663149148 0 0 0 -1 I I #
vertex $-1 $554 $620 #
straight-curve $-1 58.369701223792234 -36.480929663149148 0 0 0 -1 I I #
edge $-1 $560 51.7649839221097 $563 65.560081598385779 $435 $621 forward 7 unknown #
vertex $-1 $449 $622 #
straight-curve $-1 -1.4210854715202004e-014 36.049428485899327 15.651940967112715 0 1 0 I I #
edge $-1 $563 -5.062585840589346 $446 15.187757521768066 $445 $623 forward 7 unknown #
vertex $-1 $562 $624 #
straight-curve $-1 -1.4210854715202004e-014 -13.27893809785752 55.217769789143148 0 -0.68199835119979291 0.73135370988377701 I I #
point $-1 -1.4210854715202004e-014 23.61679327782133 15.651940967112715 #
point $-1 -20.250343362357427 36.480929663149148 1.8568432908366361 #
straight-curve $-1 0 36.480929663149148 15.651940967112715 -1 0 0 I I #
vertex $-1 $452 $625 #
point $-1 -12.464530973112453 26.084012374860556 5.0571106228731662 #
vertex $-1 $456 $626 #
point $-1 -3.7858123892449882 26.084012374860556 5.0571106228731662 #
coedge $-1 $573 $462 $579 $627 reversed $319 $-1 #
coedge $-1 $462 $572 $465 $577 reversed $319 $-1 #
edge $-1 $575 -28.767661683140872 $470 -8.5173183207834597 $469 $628 forward 7 unknown #
vertex $-1 $627 $629 #
straight-curve $-1 47.410151685103038 -13.27893809785752 55.217769789143148 0 -0.68199835119979291 0.73135370988377701 I I #
edge $-1 $466 23.61679327782133 $581 36.480929663149148 $465 $630 forward 7 unknown #
point $-1 47.410151685103038 23.61679327782133 15.651940967112715 #
coedge $-1 $469 $468 $572 $627 forward $460 $-1 #
point $-1 27.159808322745626 36.480929663149148 1.8568432908366361 #
vertex $-1 $473 $631 #
straight-curve $-1 0 36.480929663149148 15.651940967112715 -1 0 0 I I #
vertex $-1 $476 $632 #
point $-1 34.9456207119906 26.084012374860556 5.0571106228731662 #
vertex $-1 $480 $633 #
point $-1 43.624339295858064 26.084012374860556 5.0571106228731662 #
coedge $-1 $495 $494 $487 $588 forward $484 $-1 #
edge $-1 $589 28.995040919625744 $592 33.466924185308706 $587 $634 forward 7 unknown #
vertex $-1 $499 $635 #
straight-curve $-1 22.998852999743328 -61.617606744068297 15.651940967112715 0 -1 0 I I #
edge $-1 $592 7.5327129968871276 $496 23.399567008825272 $495 $636 forward 7 unknown #
vertex $-1 $591 $637 #
straight-curve $-1 22.998852999743328 -36.480929663149141 11.18005770142976 0 0.66913059716165679 0.74314483375859142 I I #
point $-1 22.998852999743328 -32.454427985313771 15.651940967112715 #
point $-1 38.865707011681472 -36.480929663149148 11.180057701429753 #
straight-curve $-1 0 -36.480929663149148 15.651940967112715 1 0 0 I I #
vertex $-1 $502 $638 #
point $-1 28.032239860297096 -33.724533990472864 12.746868737109576 #
vertex $-1 $506 $639 #
point $-1 34.832320151127732 -33.724533990472864 12.746868737109576 #
straight-curve $-1 -58.369701223792234 36.480929663149148 0 0 0 -1 I I #
point $-1 -58.369701223792234 -36.480929663149148 -15.651940967112715 #
straight-curve $-1 -58.369701223792234 0 -15.651940967112715 0 1 0 I I #
point $-1 -58.369701223792234 36.480929663149148 -15.651940967112715 #
coedge $-1 $528 $527 $606 $640 reversed $260 $-1 #
coedge $-1 $533 $529 $605 $640 forward $391 $-1 #
vertex $-1 $530 $641 #
straight-curve $-1 0 36.480929663149148 15.651940967112715 -1 0 0 I I #
point $-1 -47.41015168510306 36.480929663149148 15.651940967112715 #
vertex $-1 $640 $642 #
straight-curve $-1 0 -36.480929663149148 15.651940967112715 1 0 0 I I #
straight-curve $-1 -58.369701223792234 -36.480929663149148 0 0 0 -1 I I #
straight-curve $-1 -58.369701223792234 36.480929663149148 0 0 0 -1 I I #
straight-curve $-1 47.41015168510306 -36.480929663149148 6.5787400241862706 0 0 -1 I I #
straight-curve $-1 0 -36.480929663149148 15.651940967112715 1 0 0 I I #
straight-curve $-1 0 36.480929663149148 15.651940967112715 -1 0 0 I I #
point $-1 47.41015168510306 -36.480929663149148 15.651940967112715 #
straight-curve $-1 58.369701223792234 0 15.651940967112715 0 1 0 I I #
point $-1 58.369701223792234 36.480929663149148 15.651940967112715 #
point $-1 58.369701223792234 -36.480929663149148 15.651940967112715 #
straight-curve $-1 -1.4210854715202004e-014 36.480929663149148 67.416924889222415 0 0 -1 I I #
point $-1 -1.4210854715202004e-014 36.480929663149148 15.651940967112715 #
straight-curve $-1 -5.0625858405893602 36.480929663149155 1.8568432908366361 -1 0 0 I I #
point $-1 -1.4210854715202004e-014 36.480929663149148 1.8568432908366361 #
point $-1 -14.464530973112453 24.621304955093002 3.6931139204735803 #
point $-1 -5.7858123892449882 24.621304955093002 3.6931139204735803 #
edge $-1 $581 51.7649839221097 $575 65.560081598385779 $579 $643 forward 7 unknown #
straight-curve $-1 18.642490001962166 36.480929663149155 1.8568432908366361 -1 0 0 I I #
point $-1 47.410151685103038 36.480929663149148 1.8568432908366361 #
straight-curve $-1 47.41015168510306 0 15.651940967112715 0 1 0 I I #
point $-1 47.41015168510306 36.480929663149148 15.651940967112715 #
point $-1 32.9456207119906 24.621304955093002 3.6931139204735803 #
point $-1 41.624339295858064 24.621304955093002 3.6931139204735803 #
straight-curve $-1 22.998852999743328 -36.480929663149148 44.646981886738459 0 0 -1 I I #
point $-1 22.998852999743328 -36.480929663149148 15.651940967112715 #
straight-curve $-1 15.4661400028562 -36.480929663149148 11.180057701429744 1 0 0 I I #
point $-1 22.998852999743328 -36.480929663149148 11.180057701429753 #
point $-1 27.532239860297096 -33.352961573593575 12.412303438528749 #
point $-1 34.332320151127732 -33.352961573593575 12.412303438528749 #
edge $-1 $607 -36.480929663149148 $610 36.480929663149148 $605 $644 forward 7 unknown #
point $-1 -58.369701223792234 36.480929663149148 15.651940967112715 #
point $-1 -58.369701223792234 -36.480929663149148 15.651940967112715 #
straight-curve $-1 47.410151685103038 36.480929663149148 67.416924889222415 0 0 -1 I I #
straight-curve $-1 -58.369701223792234 0 15.651940967112715 0 -1 0 I I #
End-of-ACIS-data 