500 0 8 0           
7 Unknown 11 ACIS 5.0 NT 24 Thu Mar 25 21:49:23 1999 
-1 9.9999999999999995e-007 1e-010 
body $-1 $8 $-1 $9 #
body $-1 $10 $-1 $11 #
body $-1 $12 $-1 $13 #
body $-1 $14 $-1 $15 #
body $-1 $16 $-1 $17 #
body $-1 $18 $-1 $19 #
body $-1 $20 $-1 $21 #
body $-1 $22 $-1 $23 #
lump $-1 $-1 $24 $0 #
transform $-1 1 0 0 0 1 0 0 0 1 51.815546128727071 27.12824605554831 12.815275145537653 1 rotate no_reflect no_shear #
lump $-1 $-1 $25 $1 #
transform $-1 1 0 0 0 1 0 0 0 1 51.815546128727071 27.12824605554831 12.815275145537653 1 rotate no_reflect no_shear #
lump $-1 $-1 $26 $2 #
transform $-1 1 0 0 0 1 0 0 0 1 51.815546128727071 27.12824605554831 12.815275145537653 1 rotate no_reflect no_shear #
lump $-1 $-1 $27 $3 #
transform $-1 1 0 0 0 1 0 0 0 1 51.815546128727071 27.12824605554831 12.815275145537653 1 rotate no_reflect no_shear #
lump $-1 $-1 $28 $4 #
transform $-1 1 0 0 0 1 0 0 0 1 51.815546128727071 27.12824605554831 12.815275145537653 1 rotate no_reflect no_shear #
lump $-1 $-1 $29 $5 #
transform $-1 1 0 0 0 1 0 0 0 1 51.815546128727071 27.12824605554831 12.815275145537653 1 rotate no_reflect no_shear #
lump $-1 $-1 $30 $6 #
transform $-1 1 0 0 0 1 0 0 0 1 51.815546128727071 27.12824605554831 12.815275145537653 1 rotate no_reflect no_shear #
lump $-1 $-1 $31 $7 #
transform $-1 1 0 0 0 1 0 0 0 1 51.815546128727071 27.12824605554831 12.815275145537653 1 rotate no_reflect no_shear #
shell $-1 $-1 $-1 $32 $-1 $8 #
shell $-1 $-1 $-1 $33 $-1 $10 #
shell $-1 $-1 $-1 $34 $-1 $12 #
shell $-1 $-1 $-1 $35 $-1 $14 #
shell $-1 $-1 $-1 $36 $-1 $16 #
shell $-1 $-1 $-1 $37 $-1 $18 #
shell $-1 $-1 $-1 $38 $-1 $20 #
shell $-1 $-1 $-1 $39 $-1 $22 #
face $-1 $40 $41 $24 $-1 $42 reversed single #
face $-1 $43 $44 $25 $-1 $45 forward single #
face $-1 $46 $47 $26 $-1 $48 reversed single #
face $-1 $49 $50 $27 $-1 $51 forward single #
face $-1 $52 $53 $28 $-1 $54 reversed single #
face $-1 $55 $56 $29 $-1 $57 forward single #
face $-1 $58 $59 $30 $-1 $60 reversed single #
face $-1 $61 $62 $31 $-1 $63 forward single #
face $-1 $64 $65 $24 $-1 $66 forward single #
loop $-1 $-1 $67 $32 #
plane-surface $-1 -51.815546128727071 0 0 1 0 0 0 0 -1 forward_v I I I I #
face $-1 $68 $69 $25 $-1 $70 reversed single #
loop $-1 $-1 $71 $33 #
plane-surface $-1 -51.815546128727071 0 0 1 0 0 0 0 -1 forward_v I I I I #
face $-1 $72 $73 $26 $-1 $74 reversed single #
loop $-1 $-1 $75 $34 #
plane-surface $-1 -21.796220144138289 -99.116452577700329 77.171203278575945 -1 0 0 0 -0.69465837861970381 0.71933979245794832 forward_v I I I I #
face $-1 $76 $77 $27 $-1 $78 forward single #
loop $-1 $79 $80 $35 #
cone-surface $-1 -30.546278085487213 -18.441912703024784 4.1888008972594113 0 0.69465837861970381 -0.71933979245794832 3 0 0 1 I I 0 1 3 forward I I I I #
face $-1 $81 $82 $28 $-1 $83 reversed single #
loop $-1 $-1 $84 $36 #
plane-surface $-1 23.759720933643312 -99.116452577700329 77.171203278575945 -1 0 0 0 -0.69465837861970381 0.71933979245794832 forward_v I I I I #
face $-1 $85 $86 $29 $-1 $87 forward single #
loop $-1 $88 $89 $37 #
cone-surface $-1 15.009662992294388 -18.441912703024784 4.1888008972594113 0 0.69465837861970381 -0.71933979245794832 3 0 0 1 I I 0 1 3 forward I I I I #
face $-1 $90 $91 $30 $-1 $92 reversed single #
loop $-1 $-1 $93 $38 #
plane-surface $-1 -39.296336026836137 58.123795934827562 115.14197460612978 1 0 0 0 -0.68199836817093118 -0.7313536940579346 forward_v I I I I #
face $-1 $94 $95 $31 $-1 $96 forward single #
loop $-1 $97 $98 $39 #
cone-surface $-1 -30.478640018729983 19.108630912153309 5.0001921856826517 0 -0.68199836817093118 -0.7313536940579346 3 0 0 1 I I 0 1 3 forward I I I I #
face $-1 $99 $100 $24 $-1 $101 reversed single #
loop $-1 $-1 $102 $40 #
plane-surface $-1 0 0 12.815275145537653 0 0 1 1 0 0 forward_v I I I I #
coedge $-1 $103 $104 $105 $106 reversed $41 $-1 #
face $-1 $107 $108 $25 $-1 $109 reversed single #
loop $-1 $-1 $110 $43 #
plane-surface $-1 0 0 -12.815275145537653 0 0 1 1 0 0 forward_v I I I I #
coedge $-1 $111 $112 $113 $114 forward $44 $-1 #
face $-1 $115 $116 $26 $-1 $117 reversed single #
loop $-1 $-1 $118 $46 #
plane-surface $-1 -30.546278085487213 -27.128246055548288 2.6252348819083835 0 -0.69465837861970381 0.71933979245794832 1 0 0 forward_v I I I I #
coedge $-1 $119 $120 $121 $122 reversed $47 $-1 #
face $-1 $-1 $123 $27 $-1 $124 forward single #
loop $-1 $125 $126 $49 #
cone-surface $-1 -30.546278085487213 -13.989639458655475 -0.42166290789111649 0 0.69465837861970381 -0.71933979245794832 1.5 0 0 1 I I -0.70710678118654757 0.70710678118654757 1.5 forward I I I I #
loop $-1 $-1 $127 $35 #
coedge $-1 $80 $80 $128 $129 reversed $50 $-1 #
face $-1 $130 $131 $28 $-1 $132 reversed single #
loop $-1 $-1 $133 $52 #
plane-surface $-1 15.009662992294388 -27.128246055548288 2.6252348819083835 0 -0.69465837861970381 0.71933979245794832 1 0 0 forward_v I I I I #
coedge $-1 $134 $135 $136 $137 reversed $53 $-1 #
face $-1 $-1 $138 $29 $-1 $139 forward single #
loop $-1 $140 $141 $55 #
cone-surface $-1 15.009662992294388 -13.989639458655475 -0.42166290789111649 0 0.69465837861970381 -0.71933979245794832 1.5 0 0 1 I I -0.70710678118654757 0.70710678118654757 1.5 forward I I I I #
loop $-1 $-1 $142 $37 #
coedge $-1 $89 $89 $143 $144 reversed $56 $-1 #
face $-1 $145 $146 $30 $-1 $147 reversed single #
loop $-1 $-1 $148 $58 #
plane-surface $-1 -30.478640018729983 -12.55243987652738 39.350992464382074 0 0.68199836817093118 0.7313536940579346 1 0 0 forward_v I I I I #
coedge $-1 $149 $150 $151 $152 reversed $59 $-1 #
face $-1 $-1 $153 $31 $-1 $154 forward single #
loop $-1 $155 $156 $61 #
cone-surface $-1 -30.478640018729983 15.678325023404895 1.3216395665419842 0 -0.68199836817093118 -0.7313536940579346 1.5 0 0 1 I I -0.70710678118654757 0.70710678118654757 1.5 forward I I I I #
loop $-1 $-1 $157 $39 #
coedge $-1 $98 $98 $158 $159 reversed $62 $-1 #
face $-1 $160 $161 $24 $-1 $162 reversed single #
loop $-1 $-1 $163 $64 #
plane-surface $-1 0 0 -12.815275145537653 0 0 1 1 0 0 forward_v I I I I #
coedge $-1 $164 $165 $166 $167 forward $65 $-1 #
coedge $-1 $168 $67 $169 $170 reversed $41 $-1 #
coedge $-1 $67 $168 $171 $172 forward $41 $-1 #
coedge $-1 $173 $174 $67 $106 forward $100 $-1 #
edge $-1 $175 -27.12824605554831 $176 27.12824605554831 $67 $177 forward 7 unknown #
face $-1 $178 $179 $25 $-1 $180 reversed single #
loop $-1 $-1 $181 $68 #
plane-surface $-1 -58.075151179672538 -25.437977332776029 0 0 1 0 0 0 1 forward_v I I I I #
coedge $-1 $182 $183 $112 $184 forward $69 $-1 #
coedge $-1 $185 $71 $186 $187 reversed $44 $-1 #
coedge $-1 $71 $185 $110 $184 reversed $44 $-1 #
coedge $-1 $188 $189 $71 $114 reversed $190 $-1 #
edge $-1 $191 -12.815275145537653 $192 12.815275145537653 $113 $193 forward 7 unknown #
face $-1 $194 $195 $26 $-1 $196 forward single #
loop $-1 $-1 $197 $72 #
plane-surface $-1 -39.296336026836137 -99.116452577700329 77.171203278575945 1 0 0 0 0.69465837861970381 -0.71933979245794832 forward_v I I I I #
coedge $-1 $198 $199 $200 $201 reversed $73 $-1 #
coedge $-1 $120 $75 $202 $203 reversed $47 $-1 #
coedge $-1 $75 $119 $198 $204 reversed $47 $-1 #
coedge $-1 $200 $205 $75 $122 forward $195 $-1 #
edge $-1 $206 22.429980233301855 $207 32.982075585469417 $121 $208 forward 7 unknown #
loop $-1 $-1 $128 $76 #
plane-surface $-1 -30.546278085487213 -27.128246055548288 2.6252348819083835 0 -0.69465837861970381 0.71933979245794832 1 0 0 forward_v I I I I #
loop $-1 $-1 $209 $49 #
coedge $-1 $126 $126 $127 $210 reversed $77 $-1 #
coedge $-1 $127 $127 $126 $210 forward $79 $-1 #
coedge $-1 $128 $128 $80 $129 forward $123 $-1 #
edge $-1 $211 -8.7685996555267126e-017 $211 6.2831853071796004 $128 $212 forward 7 unknown #
face $-1 $213 $214 $28 $-1 $215 reversed single #
loop $-1 $-1 $216 $81 #
plane-surface $-1 6.2596050509454635 -99.116452577700329 77.171203278575945 1 0 0 0 0.69465837861970381 -0.71933979245794832 forward_v I I I I #
coedge $-1 $217 $218 $219 $220 reversed $82 $-1 #
coedge $-1 $135 $84 $221 $222 reversed $53 $-1 #
coedge $-1 $84 $134 $217 $223 reversed $53 $-1 #
coedge $-1 $219 $224 $84 $137 forward $225 $-1 #
edge $-1 $226 22.429980233301855 $227 32.982075585469417 $136 $228 forward 7 unknown #
loop $-1 $-1 $143 $85 #
plane-surface $-1 15.009662992294388 -27.128246055548288 2.6252348819083835 0 -0.69465837861970381 0.71933979245794832 1 0 0 forward_v I I I I #
loop $-1 $-1 $229 $55 #
coedge $-1 $141 $141 $142 $230 reversed $86 $-1 #
coedge $-1 $142 $142 $141 $230 forward $88 $-1 #
coedge $-1 $143 $143 $89 $144 forward $138 $-1 #
edge $-1 $231 -8.7685996555267126e-017 $231 6.2831853071796004 $143 $232 forward 7 unknown #
face $-1 $233 $234 $30 $-1 $235 reversed single #
loop $-1 $-1 $236 $90 #
plane-surface $-1 -21.66094401062383 58.123795934827562 115.14197460612978 -1 0 0 0 0.68199836817093118 0.7313536940579346 forward_v I I I I #
coedge $-1 $237 $238 $239 $240 reversed $91 $-1 #
coedge $-1 $150 $93 $241 $242 reversed $59 $-1 #
coedge $-1 $93 $149 $237 $243 reversed $59 $-1 #
coedge $-1 $239 $244 $93 $152 forward $245 $-1 #
edge $-1 $246 1.9336519118654714 $247 13.158265525671411 $151 $248 forward 7 unknown #
loop $-1 $-1 $158 $94 #
plane-surface $-1 -30.478640018729983 -12.55243987652738 39.350992464382074 0 0.68199836817093118 0.7313536940579346 1 0 0 forward_v I I I I #
loop $-1 $-1 $249 $61 #
coedge $-1 $156 $156 $157 $250 reversed $95 $-1 #
coedge $-1 $157 $157 $156 $250 forward $97 $-1 #
coedge $-1 $158 $158 $98 $159 forward $153 $-1 #
edge $-1 $251 -1.7534534140041379e-016 $251 6.2831853071796004 $158 $252 forward 7 unknown #
face $-1 $253 $254 $24 $-1 $255 reversed single #
loop $-1 $-1 $169 $99 #
plane-surface $-1 0 -27.12824605554831 0 0 1 0 0 0 1 forward_v I I I I #
coedge $-1 $174 $173 $256 $257 forward $100 $-1 #
coedge $-1 $258 $102 $259 $260 forward $65 $-1 #
coedge $-1 $102 $258 $261 $262 forward $65 $-1 #
coedge $-1 $263 $264 $102 $167 reversed $265 $-1 #
edge $-1 $266 -27.12824605554831 $267 27.12824605554831 $166 $268 forward 7 unknown #
coedge $-1 $104 $103 $258 $269 reversed $41 $-1 #
coedge $-1 $270 $261 $103 $170 forward $161 $-1 #
edge $-1 $271 -12.815275145537653 $175 12.815275145537653 $103 $272 forward 7 unknown #
coedge $-1 $259 $273 $104 $172 reversed $254 $-1 #
edge $-1 $274 -12.815275145537653 $176 12.815275145537653 $171 $275 forward 7 unknown #
coedge $-1 $163 $105 $273 $276 forward $100 $-1 #
coedge $-1 $105 $163 $270 $277 forward $100 $-1 #
vertex $-1 $106 $278 #
vertex $-1 $276 $279 #
straight-curve $-1 -51.815546128727071 0 -12.815275145537653 0 1 0 I I #
face $-1 $280 $190 $25 $-1 $281 reversed single #
loop $-1 $-1 $282 $107 #
plane-surface $-1 -64.334756230618012 -22.527036099806207 0 1 0 0 0 0 -1 forward_v I I I I #
coedge $-1 $283 $284 $285 $286 forward $108 $-1 #
coedge $-1 $287 $110 $283 $288 forward $69 $-1 #
coedge $-1 $110 $287 $188 $289 forward $69 $-1 #
edge $-1 $191 19.616094866836384 $290 25.437977332776029 $110 $291 forward 7 unknown #
coedge $-1 $112 $111 $292 $293 forward $44 $-1 #
coedge $-1 $294 $295 $111 $187 forward $296 $-1 #
edge $-1 $297 -25.437977332776029 $192 -19.616094866836384 $186 $298 forward 7 unknown #
coedge $-1 $299 $113 $183 $289 reversed $190 $-1 #
coedge $-1 $113 $299 $294 $300 reversed $190 $-1 #
loop $-1 $-1 $113 $178 #
vertex $-1 $184 $301 #
vertex $-1 $300 $302 #
straight-curve $-1 -51.815546128727071 -19.616094866836384 0 0 0 1 I I #
face $-1 $-1 $303 $26 $-1 $304 reversed single #
loop $-1 $-1 $121 $115 #
plane-surface $-1 0 0 12.815275145537653 0 0 1 1 0 0 forward_v I I I I #
coedge $-1 $305 $306 $307 $308 reversed $116 $-1 #
coedge $-1 $309 $118 $120 $204 forward $73 $-1 #
coedge $-1 $118 $309 $305 $310 forward $73 $-1 #
coedge $-1 $307 $121 $118 $201 forward $195 $-1 #
edge $-1 $207 6.5230811013946823 $311 24.023196984092529 $200 $312 forward 7 unknown #
coedge $-1 $313 $314 $119 $203 forward $303 $-1 #
edge $-1 $315 -35.96036675737961 $206 -25.770326493750318 $202 $316 forward 7 unknown #
edge $-1 $207 -14.669138928226888 $315 2.9524203284164893e-014 $120 $317 forward 7 unknown #
coedge $-1 $121 $307 $313 $318 forward $195 $-1 #
vertex $-1 $122 $319 #
vertex $-1 $122 $320 #
straight-curve $-1 -21.796220144138289 -49.558226288850165 12.815275145537655 0 1 0 I I #
coedge $-1 $209 $209 $-1 $321 reversed $125 $-1 #
edge $-1 $322 0 $322 6.2831853071796004 $126 $323 forward 7 unknown #
vertex $-1 $129 $324 #
ellipse-curve $-1 -30.546278085487213 -21.852198379464529 7.7202550137230066 0 -0.69465837861970381 0.71933979245794832 3 0 0 1 I I #
face $-1 $-1 $225 $28 $-1 $325 forward single #
loop $-1 $-1 $326 $130 #
plane-surface $-1 0 -27.12824605554831 0 0 1 0 0 0 1 forward_v I I I I #
coedge $-1 $327 $328 $329 $330 reversed $131 $-1 #
coedge $-1 $331 $133 $135 $223 forward $82 $-1 #
coedge $-1 $133 $331 $327 $332 forward $82 $-1 #
coedge $-1 $329 $136 $133 $220 forward $225 $-1 #
edge $-1 $227 -16.254889437496118 $333 1.2452264452017303 $219 $334 forward 7 unknown #
coedge $-1 $335 $336 $134 $222 forward $214 $-1 #
edge $-1 $337 -35.96036675737961 $226 -25.770326493750318 $221 $338 forward 7 unknown #
edge $-1 $227 -14.669138928226888 $337 2.9524203284164893e-014 $135 $339 forward 7 unknown #
coedge $-1 $136 $329 $335 $340 forward $225 $-1 #
loop $-1 $-1 $329 $213 #
vertex $-1 $222 $341 #
vertex $-1 $137 $342 #
straight-curve $-1 23.759720933643312 -49.558226288850165 12.815275145537655 0 1 0 I I #
coedge $-1 $229 $229 $-1 $343 reversed $140 $-1 #
edge $-1 $344 0 $344 6.2831853071796004 $141 $345 forward 7 unknown #
vertex $-1 $144 $346 #
ellipse-curve $-1 15.009662992294388 -21.852198379464529 7.7202550137230066 0 -0.69465837861970381 0.71933979245794832 3 0 0 1 I I #
face $-1 $-1 $245 $30 $-1 $347 forward single #
loop $-1 $-1 $348 $145 #
plane-surface $-1 0 27.12824605554831 0 0 -1 0 0 0 -1 forward_v I I I I #
coedge $-1 $349 $350 $351 $352 reversed $146 $-1 #
coedge $-1 $353 $148 $150 $243 forward $91 $-1 #
coedge $-1 $148 $353 $349 $354 forward $91 $-1 #
coedge $-1 $351 $151 $148 $240 forward $245 $-1 #
edge $-1 $247 -24.057016017471145 $355 -6.4216240012588379 $239 $356 forward 7 unknown #
coedge $-1 $357 $358 $149 $242 forward $234 $-1 #
edge $-1 $359 -55.222833921129698 $246 -44.755712157527235 $241 $360 forward 7 unknown #
edge $-1 $247 38.908769518043329 $359 54.256492111096605 $150 $361 forward 7 unknown #
coedge $-1 $151 $351 $357 $362 forward $245 $-1 #
loop $-1 $-1 $351 $233 #
vertex $-1 $242 $363 #
vertex $-1 $152 $364 #
straight-curve $-1 -39.296336026836137 29.061897967413781 12.815275145537655 0 -1 0 I I #
coedge $-1 $249 $249 $-1 $365 reversed $155 $-1 #
edge $-1 $366 0 $366 6.2831853071796004 $156 $367 forward 7 unknown #
vertex $-1 $159 $368 #
ellipse-curve $-1 -30.478640018729983 21.515939248645338 7.5817142637364272 0 0.68199836817093118 0.7313536940579346 3 0 0 1 I I #
face $-1 $-1 $265 $24 $-1 $369 reversed single #
loop $-1 $-1 $370 $160 #
plane-surface $-1 0 27.12824605554831 0 0 -1 0 0 0 -1 forward_v I I I I #
coedge $-1 $264 $263 $163 $257 reversed $265 $-1 #
edge $-1 $371 -27.12824605554831 $372 27.12824605554831 $256 $373 forward 7 unknown #
coedge $-1 $165 $164 $168 $269 forward $65 $-1 #
coedge $-1 $370 $171 $164 $260 reversed $254 $-1 #
edge $-1 $267 -51.815546128727071 $274 51.815546128727071 $259 $374 forward 7 unknown #
coedge $-1 $169 $375 $165 $262 reversed $161 $-1 #
edge $-1 $271 -51.815546128727071 $266 51.815546128727071 $261 $376 forward 7 unknown #
coedge $-1 $256 $166 $375 $377 forward $265 $-1 #
coedge $-1 $166 $256 $370 $378 reversed $265 $-1 #
loop $-1 $-1 $263 $253 #
vertex $-1 $167 $379 #
vertex $-1 $167 $380 #
straight-curve $-1 51.815546128727071 0 12.815275145537653 0 1 0 I I #
edge $-1 $274 -27.12824605554831 $271 27.12824605554831 $168 $381 forward 7 unknown #
coedge $-1 $375 $169 $174 $277 reversed $161 $-1 #
vertex $-1 $269 $382 #
straight-curve $-1 -51.815546128727071 -27.12824605554831 0 0 0 -1 I I #
coedge $-1 $171 $370 $173 $276 reversed $254 $-1 #
vertex $-1 $260 $383 #
straight-curve $-1 -51.815546128727071 27.12824605554831 0 0 0 -1 I I #
edge $-1 $176 -51.815546128727071 $371 51.815546128727071 $273 $384 forward 7 unknown #
edge $-1 $372 -51.815546128727071 $175 51.815546128727071 $270 $385 forward 7 unknown #
point $-1 -51.815546128727071 -27.12824605554831 -12.815275145537653 #
point $-1 -51.815546128727071 27.12824605554831 -12.815275145537653 #
face $-1 $-1 $296 $25 $-1 $386 forward single #
plane-surface $-1 -58.075151179672538 -19.616094866836384 0 0 -1 0 0 0 -1 forward_v I I I I #
coedge $-1 $387 $388 $299 $389 forward $179 $-1 #
coedge $-1 $292 $181 $182 $288 reversed $108 $-1 #
coedge $-1 $181 $292 $295 $390 reversed $108 $-1 #
coedge $-1 $388 $387 $181 $286 reversed $179 $-1 #
edge $-1 $391 -12.815275145537653 $392 12.815275145537653 $285 $393 forward 7 unknown #
coedge $-1 $183 $182 $387 $394 forward $69 $-1 #
edge $-1 $290 -6.259605050945467 $392 6.2596050509454741 $283 $395 forward 7 unknown #
edge $-1 $396 -6.2596050509454741 $191 6.259605050945467 $188 $397 forward 7 unknown #
vertex $-1 $288 $398 #
straight-curve $-1 -51.815546128727071 0 -12.815275145537653 0 -1 0 I I #
coedge $-1 $284 $283 $185 $293 reversed $108 $-1 #
edge $-1 $297 -12.815275145537653 $290 12.815275145537653 $292 $399 forward 7 unknown #
coedge $-1 $400 $186 $189 $300 forward $296 $-1 #
coedge $-1 $186 $400 $284 $390 forward $296 $-1 #
loop $-1 $-1 $186 $280 #
vertex $-1 $187 $401 #
straight-curve $-1 -51.815546128727071 0 12.815275145537653 0 1 0 I I #
coedge $-1 $189 $188 $282 $389 reversed $190 $-1 #
edge $-1 $192 -6.259605050945467 $402 6.2596050509454741 $189 $403 forward 7 unknown #
point $-1 -51.815546128727071 -19.616094866836384 -12.815275145537653 #
point $-1 -51.815546128727071 -19.616094866836384 12.815275145537653 #
loop $-1 $-1 $202 $194 #
plane-surface $-1 0 -27.12824605554831 0 0 1 0 0 0 1 forward_v I I I I #
coedge $-1 $306 $197 $199 $310 reversed $116 $-1 #
coedge $-1 $197 $305 $404 $405 reversed $116 $-1 #
coedge $-1 $205 $200 $197 $308 forward $195 $-1 #
edge $-1 $311 -32.982075585469417 $406 -22.429980233301855 $307 $407 forward 7 unknown #
coedge $-1 $199 $198 $314 $408 reversed $73 $-1 #
edge $-1 $409 -2.9524203284164893e-014 $311 14.669138928226888 $305 $410 forward 7 unknown #
vertex $-1 $201 $411 #
straight-curve $-1 -15.273139042743606 -16.576150703380751 12.815275145537653 -1 0 0 I I #
coedge $-1 $404 $202 $205 $318 reversed $303 $-1 #
coedge $-1 $202 $404 $309 $408 forward $303 $-1 #
vertex $-1 $203 $412 #
straight-curve $-1 -21.796220144138289 -27.12824605554831 38.585601639287972 0 0 1 I I #
straight-curve $-1 -21.796220144138289 -27.128246055548288 2.6252348819083835 0 -0.71933979245794832 -0.69465837861970381 I I #
edge $-1 $406 -39.296336026836137 $206 -21.796220144138289 $313 $413 forward 7 unknown #
point $-1 -21.796220144138289 -27.12824605554831 12.815275145537653 #
point $-1 -21.796220144138289 -16.576150703380748 12.815275145537653 #
edge $-1 $414 1 $414 0 $209 $-1 forward 7 unknown #
vertex $-1 $210 $415 #
ellipse-curve $-1 -30.546278085487213 -15.031627026585031 0.657346780795806 0 -0.69465837861970381 0.71933979245794832 3 0 0 1 I I #
point $-1 -27.546278085487213 -21.852198379464539 7.7202550137230173 #
plane-surface $-1 0 0 12.815275145537653 0 0 1 1 0 0 forward_v I I I I #
coedge $-1 $336 $335 $328 $416 forward $214 $-1 #
coedge $-1 $328 $216 $218 $332 reversed $131 $-1 #
coedge $-1 $216 $327 $326 $416 reversed $131 $-1 #
coedge $-1 $224 $219 $216 $330 forward $225 $-1 #
edge $-1 $333 -32.982075585469417 $417 -22.429980233301855 $329 $418 forward 7 unknown #
coedge $-1 $218 $217 $336 $419 reversed $82 $-1 #
edge $-1 $420 -2.9524203284164893e-014 $333 14.669138928226888 $327 $421 forward 7 unknown #
vertex $-1 $220 $422 #
straight-curve $-1 7.5048314961471938 -16.576150703380751 12.815275145537653 -1 0 0 I I #
coedge $-1 $326 $221 $224 $340 reversed $214 $-1 #
coedge $-1 $221 $326 $331 $419 forward $214 $-1 #
vertex $-1 $222 $423 #
straight-curve $-1 23.759720933643312 -27.12824605554831 38.585601639287972 0 0 1 I I #
straight-curve $-1 23.759720933643312 -27.128246055548288 2.6252348819083835 0 -0.71933979245794832 -0.69465837861970381 I I #
edge $-1 $417 6.2596050509454635 $226 23.759720933643312 $335 $424 forward 7 unknown #
point $-1 23.759720933643312 -27.12824605554831 12.815275145537653 #
point $-1 23.759720933643312 -16.576150703380748 12.815275145537653 #
edge $-1 $425 1 $425 0 $229 $-1 forward 7 unknown #
vertex $-1 $230 $426 #
ellipse-curve $-1 15.009662992294388 -15.031627026585031 0.657346780795806 0 -0.69465837861970381 0.71933979245794832 3 0 0 1 I I #
point $-1 18.009662992294388 -21.852198379464539 7.7202550137230173 #
plane-surface $-1 0 0 12.815275145537653 0 0 1 1 0 0 forward_v I I I I #
coedge $-1 $358 $357 $350 $427 forward $234 $-1 #
coedge $-1 $350 $236 $238 $354 reversed $146 $-1 #
coedge $-1 $236 $349 $348 $427 reversed $146 $-1 #
coedge $-1 $244 $239 $236 $352 forward $245 $-1 #
edge $-1 $355 -13.158265525671411 $428 -1.9336519118654714 $351 $429 forward 7 unknown #
coedge $-1 $238 $237 $358 $430 reversed $91 $-1 #
edge $-1 $431 -54.256492111096605 $355 -38.908769518043329 $349 $432 forward 7 unknown #
vertex $-1 $240 $433 #
straight-curve $-1 -15.239320009364992 15.903632441742376 12.815275145537655 1 0 0 I I #
coedge $-1 $348 $241 $244 $362 reversed $234 $-1 #
coedge $-1 $241 $348 $353 $430 forward $234 $-1 #
vertex $-1 $242 $434 #
straight-curve $-1 -39.296336026836137 27.12824605554831 57.570987303064889 0 0 1 I I #
straight-curve $-1 -39.296336026836137 -12.55243987652738 39.350992464382074 0 0.7313536940579346 -0.68199836817093118 I I #
edge $-1 $428 21.66094401062383 $246 39.296336026836137 $357 $435 forward 7 unknown #
point $-1 -39.296336026836137 27.12824605554831 12.815275145537653 #
point $-1 -39.296336026836137 15.903632441742371 12.815275145537655 #
edge $-1 $436 1 $436 0 $249 $-1 forward 7 unknown #
vertex $-1 $250 $437 #
ellipse-curve $-1 -30.478640018729983 16.70132257566129 2.4186701076288859 0 0.68199836817093118 0.7313536940579346 3 0 0 1 I I #
point $-1 -27.478640018729983 21.515939248645328 7.5817142637364165 #
plane-surface $-1 51.815546128727071 0 0 -1 0 0 0 0 1 forward_v I I I I #
coedge $-1 $273 $259 $264 $378 forward $254 $-1 #
vertex $-1 $257 $438 #
vertex $-1 $377 $439 #
straight-curve $-1 51.815546128727071 0 -12.815275145537653 0 -1 0 I I #
straight-curve $-1 0 27.12824605554831 12.815275145537653 -1 0 0 I I #
coedge $-1 $261 $270 $263 $377 reversed $161 $-1 #
straight-curve $-1 0 -27.12824605554831 12.815275145537653 1 0 0 I I #
edge $-1 $266 -12.815275145537653 $372 12.815275145537653 $263 $440 forward 7 unknown #
edge $-1 $267 -12.815275145537653 $371 12.815275145537653 $264 $441 forward 7 unknown #
point $-1 51.815546128727071 -27.12824605554831 12.815275145537653 #
point $-1 51.815546128727071 27.12824605554831 12.815275145537653 #
straight-curve $-1 -51.815546128727071 0 12.815275145537653 0 -1 0 I I #
point $-1 -51.815546128727071 -27.12824605554831 12.815275145537653 #
point $-1 -51.815546128727071 27.12824605554831 12.815275145537653 #
straight-curve $-1 0 27.12824605554831 -12.815275145537653 1 0 0 I I #
straight-curve $-1 0 -27.12824605554831 -12.815275145537653 -1 0 0 I I #
plane-surface $-1 0 0 12.815275145537653 0 0 1 1 0 0 forward_v I I I I #
coedge $-1 $285 $282 $287 $394 reversed $179 $-1 #
coedge $-1 $282 $285 $400 $442 reversed $179 $-1 #
edge $-1 $402 -12.815275145537653 $396 12.815275145537653 $299 $443 forward 7 unknown #
edge $-1 $391 -6.2596050509454741 $297 6.259605050945467 $284 $444 forward 7 unknown #
vertex $-1 $442 $445 #
vertex $-1 $394 $446 #
straight-curve $-1 -64.334756230618012 -25.437977332776029 0 0 0 -1 I I #
edge $-1 $392 -2.9109412329698223 $396 2.9109412329698223 $387 $447 forward 7 unknown #
straight-curve $-1 -58.075151179672538 -25.437977332776029 -12.815275145537653 -1 0 0 I I #
vertex $-1 $289 $448 #
straight-curve $-1 -58.075151179672538 -19.616094866836384 -12.815275145537653 1 0 0 I I #
point $-1 -51.815546128727071 -25.437977332776029 -12.815275145537653 #
straight-curve $-1 -51.815546128727071 -25.437977332776029 0 0 0 -1 I I #
coedge $-1 $295 $294 $388 $442 forward $296 $-1 #
point $-1 -51.815546128727071 -25.437977332776029 12.815275145537653 #
vertex $-1 $300 $449 #
straight-curve $-1 -58.075151179672538 -19.616094866836384 12.815275145537653 -1 0 0 I I #
coedge $-1 $314 $313 $306 $405 forward $303 $-1 #
edge $-1 $406 25.770326493750318 $409 35.96036675737961 $404 $450 forward 7 unknown #
vertex $-1 $318 $451 #
straight-curve $-1 -39.296336026836137 -49.558226288850165 12.815275145537655 0 -1 0 I I #
edge $-1 $409 -24.023196984092529 $315 -6.5230811013946823 $314 $452 forward 7 unknown #
vertex $-1 $408 $453 #
straight-curve $-1 -39.296336026836137 -27.128246055548288 2.6252348819083835 0 0.71933979245794832 0.69465837861970381 I I #
point $-1 -39.296336026836137 -16.576150703380748 12.815275145537653 #
point $-1 -21.796220144138289 -27.12824605554831 2.6252348819083631 #
straight-curve $-1 0 -27.12824605554831 12.815275145537653 1 0 0 I I #
vertex $-1 $321 $454 #
point $-1 -27.546278085487213 -15.031627026585031 0.657346780795806 #
edge $-1 $417 25.770326493750318 $420 35.96036675737961 $326 $455 forward 7 unknown #
vertex $-1 $340 $456 #
straight-curve $-1 6.2596050509454635 -49.558226288850165 12.815275145537655 0 -1 0 I I #
edge $-1 $420 -1.2452264452017303 $337 16.254889437496118 $336 $457 forward 7 unknown #
vertex $-1 $419 $458 #
straight-curve $-1 6.2596050509454635 -27.128246055548288 2.6252348819083835 0 0.71933979245794832 0.69465837861970381 I I #
point $-1 6.2596050509454635 -16.576150703380748 12.815275145537653 #
point $-1 23.759720933643312 -27.12824605554831 2.6252348819083631 #
straight-curve $-1 0 -27.12824605554831 12.815275145537653 1 0 0 I I #
vertex $-1 $343 $459 #
point $-1 18.009662992294388 -15.031627026585031 0.657346780795806 #
edge $-1 $428 44.755712157527235 $431 55.222833921129698 $348 $460 forward 7 unknown #
vertex $-1 $362 $461 #
straight-curve $-1 -21.66094401062383 29.061897967413781 12.815275145537655 0 1 0 I I #
edge $-1 $431 6.4216240012588379 $359 24.057016017471145 $358 $462 forward 7 unknown #
vertex $-1 $430 $463 #
straight-curve $-1 -21.66094401062383 -12.55243987652738 39.350992464382074 0 -0.7313536940579346 0.68199836817093118 I I #
point $-1 -21.66094401062383 15.903632441742371 12.815275145537655 #
point $-1 -39.296336026836137 27.12824605554831 2.348153381935191 #
straight-curve $-1 0 27.12824605554831 12.815275145537653 -1 0 0 I I #
vertex $-1 $365 $464 #
point $-1 -27.478640018729983 16.70132257566129 2.4186701076288859 #
point $-1 51.815546128727071 27.12824605554831 -12.815275145537653 #
point $-1 51.815546128727071 -27.12824605554831 -12.815275145537653 #
straight-curve $-1 51.815546128727071 -27.12824605554831 0 0 0 -1 I I #
straight-curve $-1 51.815546128727071 27.12824605554831 0 0 0 -1 I I #
edge $-1 $402 -2.9109412329698223 $391 2.9109412329698223 $388 $465 forward 7 unknown #
straight-curve $-1 -64.334756230618012 -19.616094866836384 0 0 0 -1 I I #
straight-curve $-1 -58.075151179672538 -25.437977332776029 12.815275145537653 1 0 0 I I #
point $-1 -64.334756230618012 -25.437977332776029 12.815275145537653 #
point $-1 -64.334756230618012 -25.437977332776029 -12.815275145537653 #
straight-curve $-1 -64.334756230618012 -22.527036099806207 -12.815275145537653 0 1 0 I I #
point $-1 -64.334756230618012 -19.616094866836384 -12.815275145537653 #
point $-1 -64.334756230618012 -19.616094866836384 12.815275145537653 #
straight-curve $-1 -39.296336026836137 -27.12824605554831 38.585601639287972 0 0 -1 I I #
point $-1 -39.296336026836137 -27.12824605554831 12.815275145537653 #
straight-curve $-1 -15.273139042743606 -27.12824605554831 2.625234881908364 1 0 0 I I #
point $-1 -39.296336026836137 -27.12824605554831 2.6252348819083631 #
point $-1 -30.546278085487213 -12.947651890725918 -1.500672596578039 #
straight-curve $-1 6.2596050509454635 -27.12824605554831 38.585601639287972 0 0 -1 I I #
point $-1 6.2596050509454635 -27.12824605554831 12.815275145537653 #
straight-curve $-1 7.5048314961471938 -27.12824605554831 2.625234881908364 1 0 0 I I #
point $-1 6.2596050509454635 -27.12824605554831 2.6252348819083631 #
point $-1 15.009662992294388 -12.947651890725918 -1.500672596578039 #
straight-curve $-1 -21.66094401062383 27.12824605554831 57.570987303064889 0 0 -1 I I #
point $-1 -21.66094401062383 27.12824605554831 12.815275145537653 #
straight-curve $-1 -15.239320009364992 27.128246055548306 2.348153381935191 -1 0 0 I I #
point $-1 -21.66094401062383 27.12824605554831 2.348153381935191 #
point $-1 -30.478640018729983 14.655327471148498 0.22460902545508232 #
straight-curve $-1 -64.334756230618012 -22.527036099806207 12.815275145537653 0 -1 0 I I #
End-of-ACIS-data 