500 0 4 0           
7 Unknown 11 ACIS 5.0 NT 24 Fri Mar 26 03:25:39 1999 
-1 9.9999999999999995e-007 1e-010 
body $-1 $4 $-1 $5 #
body $-1 $6 $-1 $7 #
body $-1 $8 $-1 $9 #
body $-1 $10 $-1 $11 #
lump $-1 $-1 $12 $0 #
transform $-1 1 0 0 0 1 0 0 0 1 71.166722617267368 28.919530676158946 13.961460121863176 1 rotate no_reflect no_shear #
lump $-1 $-1 $13 $1 #
transform $-1 1 0 0 0 1 0 0 0 1 71.166722617267368 28.919530676158946 13.961460121863176 1 rotate no_reflect no_shear #
lump $-1 $-1 $14 $2 #
transform $-1 1 0 0 0 1 0 0 0 1 71.166722617267368 28.919530676158946 13.961460121863176 1 rotate no_reflect no_shear #
lump $-1 $-1 $15 $3 #
transform $-1 1 0 0 0 1 0 0 0 1 71.166722617267368 28.919530676158946 13.961460121863176 1 rotate no_reflect no_shear #
shell $-1 $-1 $-1 $16 $-1 $4 #
shell $-1 $-1 $-1 $17 $-1 $6 #
shell $-1 $-1 $-1 $18 $-1 $8 #
shell $-1 $-1 $-1 $19 $-1 $10 #
face $-1 $20 $21 $12 $-1 $22 forward single #
face $-1 $23 $24 $13 $-1 $25 forward single #
face $-1 $26 $27 $14 $-1 $28 forward single #
face $-1 $29 $30 $15 $-1 $31 reversed single #
face $-1 $32 $33 $12 $-1 $34 reversed single #
loop $-1 $-1 $35 $16 #
plane-surface $-1 0 0 13.961460121863176 0 0 1 1 0 0 forward_v I I I I #
face $-1 $36 $37 $13 $-1 $38 forward single #
loop $-1 $-1 $39 $17 #
plane-surface $-1 -65.79636455564544 0 5.7528015986006622 0 0 1 1 0 0 forward_v I I I I #
face $-1 $40 $41 $14 $-1 $42 forward single #
loop $-1 $-1 $43 $18 #
plane-surface $-1 71.166724952743692 25.875745865479708 205.07038305537003 0 -1 0 -0.70710678939079041 0 -0.70710677298230451 forward_v I I I I #
face $-1 $44 $45 $15 $-1 $46 reversed single #
loop $-1 $47 $48 $19 #
cone-surface $-1 64.989424930630079 19.314368100943792 7.7841623423203608 -0.70710678939079041 0 -0.70710677298230451 1.0606601594734568 0 -1.0606601840861856 1 I I 0 1 1.5 forward I I I I #
face $-1 $49 $50 $12 $-1 $51 reversed single #
loop $-1 $-1 $52 $20 #
plane-surface $-1 0 0 -13.961460121863176 0 0 1 1 0 0 forward_v I I I I #
coedge $-1 $53 $54 $55 $56 forward $21 $-1 #
face $-1 $57 $58 $13 $-1 $59 forward single #
loop $-1 $-1 $60 $23 #
plane-surface $-1 -60.426006494023504 0 9.8571308602319192 -1 0 0 0 0 1 forward_v I I I I #
coedge $-1 $61 $62 $63 $64 reversed $24 $-1 #
face $-1 $65 $66 $14 $-1 $67 forward single #
loop $-1 $-1 $68 $26 #
plane-surface $-1 -29.47822052997806 19.314368100943792 104.4254399081246 0.70710678939079041 0 0.70710677298230451 0.70710677298230451 0 -0.70710678939079041 forward_v I I I I #
coedge $-1 $69 $70 $71 $72 reversed $27 $-1 #
face $-1 $73 $74 $15 $-1 $75 forward single #
loop $-1 $76 $77 $29 #
cone-surface $-1 63.372279882054698 19.314368100943792 6.1670173312709906 -0.70710678939079041 0 -0.70710677298230451 0.53033007973672841 0 -0.53033009204309278 1 I I -0.70710678118654757 0.70710678118654757 0.75 forward I I I I #
loop $-1 $-1 $78 $19 #
coedge $-1 $48 $48 $79 $80 reversed $30 $-1 #
face $-1 $81 $82 $12 $-1 $83 reversed single #
loop $-1 $-1 $84 $32 #
plane-surface $-1 0 -28.919530676158946 0 0 1 0 0 0 1 forward_v I I I I #
coedge $-1 $85 $86 $87 $88 forward $33 $-1 #
coedge $-1 $89 $35 $90 $91 forward $21 $-1 #
coedge $-1 $35 $89 $92 $93 forward $21 $-1 #
coedge $-1 $94 $95 $35 $56 reversed $96 $-1 #
edge $-1 $97 -28.919530676158946 $98 28.919530676158946 $55 $99 forward 7 unknown #
face $-1 $100 $101 $13 $-1 $102 reversed single #
loop $-1 $-1 $103 $36 #
plane-surface $-1 0 0 13.961460121863176 0 0 1 1 0 0 forward_v I I I I #
coedge $-1 $104 $63 $105 $106 reversed $37 $-1 #
coedge $-1 $107 $39 $108 $109 reversed $24 $-1 #
coedge $-1 $39 $107 $110 $111 reversed $24 $-1 #
coedge $-1 $60 $112 $39 $64 forward $37 $-1 #
edge $-1 $113 -28.919530676158946 $114 28.919530676158946 $63 $115 forward 7 unknown #
face $-1 $116 $117 $14 $-1 $118 forward single #
loop $-1 $-1 $119 $40 #
plane-surface $-1 71.166724952743692 12.752990336407876 205.07038305537003 0 1 0 0.70710678939079041 0 0.70710677298230451 forward_v I I I I #
coedge $-1 $120 $121 $122 $123 reversed $41 $-1 #
coedge $-1 $70 $43 $121 $124 forward $27 $-1 #
coedge $-1 $43 $69 $125 $126 reversed $27 $-1 #
coedge $-1 $127 $122 $43 $72 forward $117 $-1 #
edge $-1 $128 25.402394680685561 $129 35.583360140895522 $71 $130 forward 7 unknown #
face $-1 $131 $132 $15 $-1 $133 forward single #
loop $-1 $-1 $134 $44 #
plane-surface $-1 71.166724952743692 25.875745865479708 205.07038305537003 0 -1 0 -0.70710678939079041 0 -0.70710677298230451 forward_v I I I I #
loop $-1 $-1 $135 $29 #
coedge $-1 $77 $77 $78 $136 forward $45 $-1 #
coedge $-1 $78 $78 $77 $136 reversed $47 $-1 #
coedge $-1 $79 $79 $48 $80 forward $132 $-1 #
edge $-1 $137 0 $137 6.2831853071796004 $79 $138 forward 7 unknown #
face $-1 $139 $140 $12 $-1 $141 reversed single #
loop $-1 $-1 $142 $49 #
plane-surface $-1 -71.166722617267368 0 0 1 0 0 0 0 -1 forward_v I I I I #
coedge $-1 $143 $92 $144 $145 forward $50 $-1 #
coedge $-1 $146 $52 $143 $147 forward $33 $-1 #
coedge $-1 $52 $146 $148 $149 forward $33 $-1 #
coedge $-1 $95 $94 $52 $88 reversed $96 $-1 #
edge $-1 $150 -28.919530676158946 $151 28.919530676158946 $87 $152 forward 7 unknown #
coedge $-1 $54 $53 $153 $154 forward $21 $-1 #
coedge $-1 $155 $156 $53 $91 reversed $140 $-1 #
edge $-1 $98 -71.166722617267368 $157 71.166722617267368 $90 $158 forward 7 unknown #
coedge $-1 $84 $159 $54 $93 reversed $50 $-1 #
edge $-1 $160 -71.166722617267368 $97 71.166722617267368 $92 $161 forward 7 unknown #
coedge $-1 $87 $55 $159 $162 forward $96 $-1 #
coedge $-1 $55 $87 $155 $163 reversed $96 $-1 #
loop $-1 $-1 $94 $139 #
vertex $-1 $56 $164 #
vertex $-1 $56 $165 #
straight-curve $-1 71.166722617267368 0 13.961460121863176 0 1 0 I I #
face $-1 $166 $167 $13 $-1 $168 reversed single #
loop $-1 $-1 $105 $57 #
plane-surface $-1 0 -28.919530676158946 0 0 1 0 0 0 1 forward_v I I I I #
coedge $-1 $169 $170 $104 $171 forward $58 $-1 #
coedge $-1 $112 $60 $103 $171 reversed $37 $-1 #
coedge $-1 $110 $172 $60 $106 forward $101 $-1 #
edge $-1 $173 -9.0328946917472166 $114 -0.8242361684847026 $105 $174 forward 7 unknown #
coedge $-1 $62 $61 $175 $176 reversed $24 $-1 #
coedge $-1 $177 $178 $61 $109 forward $179 $-1 #
edge $-1 $180 -38.268540339444648 $113 -27.527824216200784 $108 $181 forward 7 unknown #
coedge $-1 $182 $105 $62 $111 forward $101 $-1 #
edge $-1 $114 27.527824216200784 $183 38.268540339444648 $110 $184 forward 7 unknown #
coedge $-1 $63 $104 $177 $185 reversed $37 $-1 #
vertex $-1 $109 $186 #
vertex $-1 $111 $187 #
straight-curve $-1 -60.426006494023504 0 5.7528015986006622 0 -1 0 I I #
face $-1 $188 $189 $14 $-1 $190 forward single #
loop $-1 $-1 $191 $65 #
plane-surface $-1 0 0 13.961460121863176 0 0 1 1 0 0 forward_v I I I I #
coedge $-1 $192 $193 $191 $194 reversed $66 $-1 #
coedge $-1 $195 $68 $193 $196 reversed $41 $-1 #
coedge $-1 $68 $195 $69 $124 reversed $41 $-1 #
coedge $-1 $71 $191 $68 $123 forward $117 $-1 #
edge $-1 $197 3.0958062859359803 $128 16.21856181500781 $122 $198 forward 7 unknown #
edge $-1 $128 127.93538563559956 $199 142.33344523453479 $69 $200 forward 7 unknown #
coedge $-1 $201 $202 $70 $126 forward $203 $-1 #
edge $-1 $129 88.573731405821832 $199 98.754697102282165 $125 $204 forward 7 unknown #
coedge $-1 $205 $71 $202 $206 forward $117 $-1 #
vertex $-1 $123 $207 #
vertex $-1 $206 $208 #
straight-curve $-1 35.583362476371846 25.875745865479708 13.961460121863183 1 0 0 I I #
face $-1 $209 $210 $15 $-1 $211 forward single #
loop $-1 $212 $79 $73 #
plane-surface $-1 -29.47822052997806 19.314368100943792 104.4254399081246 0.70710678939079041 0 0.70710677298230451 0.70710677298230451 0 -0.70710678939079041 forward_v I I I I #
coedge $-1 $213 $214 $215 $216 reversed $74 $-1 #
coedge $-1 $135 $135 $-1 $217 forward $76 $-1 #
edge $-1 $218 0 $218 6.2831853071796004 $77 $219 forward 7 unknown #
vertex $-1 $80 $220 #
ellipse-curve $-1 66.076239887162387 19.314368100943792 8.8709772736330113 -0.70710678939079041 0 -0.70710677298230451 1.0606601594734568 0 -1.0606601840861856 1 I I #
face $-1 $-1 $96 $12 $-1 $221 reversed single #
loop $-1 $-1 $155 $81 #
plane-surface $-1 0 28.919530676158946 0 0 -1 0 0 0 -1 forward_v I I I I #
coedge $-1 $222 $153 $156 $223 forward $82 $-1 #
coedge $-1 $159 $84 $85 $147 reversed $50 $-1 #
coedge $-1 $153 $222 $84 $145 reversed $82 $-1 #
edge $-1 $160 -13.961460121863176 $224 13.961460121863176 $144 $225 forward 7 unknown #
coedge $-1 $86 $85 $222 $226 forward $33 $-1 #
edge $-1 $151 -71.166722617267368 $224 71.166722617267368 $143 $227 forward 7 unknown #
coedge $-1 $156 $155 $86 $149 reversed $140 $-1 #
edge $-1 $228 -71.166722617267368 $150 71.166722617267368 $148 $229 forward 7 unknown #
vertex $-1 $88 $230 #
vertex $-1 $162 $231 #
straight-curve $-1 71.166722617267368 0 -13.961460121863176 0 -1 0 I I #
coedge $-1 $142 $144 $89 $154 reversed $82 $-1 #
edge $-1 $157 -28.919530676158946 $160 28.919530676158946 $153 $232 forward 7 unknown #
coedge $-1 $148 $90 $95 $163 forward $140 $-1 #
coedge $-1 $90 $148 $142 $223 reversed $140 $-1 #
vertex $-1 $91 $233 #
straight-curve $-1 0 28.919530676158946 13.961460121863176 -1 0 0 I I #
coedge $-1 $92 $143 $94 $162 reversed $50 $-1 #
vertex $-1 $154 $234 #
straight-curve $-1 0 -28.919530676158946 13.961460121863176 1 0 0 I I #
edge $-1 $97 -13.961460121863176 $151 13.961460121863176 $94 $235 forward 7 unknown #
edge $-1 $98 -13.961460121863176 $150 13.961460121863176 $95 $236 forward 7 unknown #
point $-1 71.166722617267368 -28.919530676158946 13.961460121863176 #
point $-1 71.166722617267368 28.919530676158946 13.961460121863176 #
face $-1 $237 $238 $13 $-1 $239 reversed single #
loop $-1 $-1 $240 $100 #
plane-surface $-1 0 0 -13.961460121863176 0 0 1 1 0 0 forward_v I I I I #
coedge $-1 $241 $103 $172 $242 forward $58 $-1 #
coedge $-1 $103 $241 $243 $244 forward $58 $-1 #
edge $-1 $245 -28.919530676158946 $173 28.919530676158946 $103 $246 forward 7 unknown #
coedge $-1 $105 $247 $169 $242 reversed $101 $-1 #
vertex $-1 $242 $248 #
straight-curve $-1 -60.426006494023504 -28.919530676158946 4.9285654301159596 0 0 -1 I I #
coedge $-1 $249 $250 $107 $176 forward $238 $-1 #
edge $-1 $183 -28.919530676158946 $180 28.919530676158946 $175 $251 forward 7 unknown #
coedge $-1 $243 $108 $112 $185 forward $179 $-1 #
coedge $-1 $108 $252 $249 $253 reversed $179 $-1 #
loop $-1 $-1 $177 $237 #
vertex $-1 $253 $254 #
straight-curve $-1 -32.89818227782272 28.919530676158946 5.7528015986006622 1 0 0 I I #
coedge $-1 $255 $110 $250 $256 forward $101 $-1 #
vertex $-1 $256 $257 #
straight-curve $-1 -32.89818227782272 -28.919530676158946 5.7528015986006622 -1 0 0 I I #
edge $-1 $113 0.8242361684847026 $245 9.0328946917472166 $177 $258 forward 7 unknown #
point $-1 -60.426006494023504 28.919530676158946 5.7528015986006622 #
point $-1 -60.426006494023504 -28.919530676158946 5.7528015986006622 #
face $-1 $259 $260 $14 $-1 $261 forward single #
loop $-1 $-1 $262 $116 #
plane-surface $-1 -65.79636455564544 0 5.7528015986006622 0 0 1 1 0 0 forward_v I I I I #
coedge $-1 $122 $263 $119 $194 forward $117 $-1 #
coedge $-1 $193 $119 $264 $265 reversed $66 $-1 #
coedge $-1 $119 $192 $120 $196 forward $66 $-1 #
edge $-1 $266 -35.583360140895522 $197 -25.402394680685561 $191 $267 forward 7 unknown #
coedge $-1 $121 $120 $201 $268 reversed $41 $-1 #
edge $-1 $269 -142.33344523453479 $197 -127.93538563559956 $193 $270 forward 7 unknown #
vertex $-1 $123 $271 #
straight-curve $-1 60.985757157057392 9.657184050471896 13.961460121863169 0 1 0 I I #
vertex $-1 $268 $272 #
straight-curve $-1 -29.47822052997806 25.875745865479708 104.4254399081246 0.70710677298230451 0 -0.70710678939079041 I I #
coedge $-1 $264 $125 $195 $268 forward $203 $-1 #
coedge $-1 $125 $273 $127 $206 reversed $203 $-1 #
loop $-1 $-1 $264 $274 #
straight-curve $-1 71.166722617267368 25.875745865479708 102.53519152768501 0 0 -1 I I #
coedge $-1 $275 $127 $276 $277 forward $117 $-1 #
edge $-1 $129 25.875745865479708 $278 28.919530676158946 $202 $279 forward 7 unknown #
point $-1 60.985757157057407 25.875745865479708 13.961460121863169 #
point $-1 71.166722617267368 25.875745865479708 13.961460121863176 #
face $-1 $280 $281 $15 $-1 $282 forward single #
loop $-1 $-1 $283 $131 #
plane-surface $-1 71.166724952743692 12.752990336407876 205.07038305537003 0 1 0 0.70710678939079041 0 0.70710677298230451 forward_v I I I I #
loop $-1 $-1 $284 $73 #
coedge $-1 $214 $134 $285 $286 forward $74 $-1 #
coedge $-1 $134 $213 $287 $288 reversed $74 $-1 #
coedge $-1 $289 $290 $134 $216 forward $281 $-1 #
edge $-1 $291 25.402394680685561 $292 35.583360140895522 $215 $293 forward 7 unknown #
edge $-1 $294 1 $294 0 $135 $-1 forward 7 unknown #
vertex $-1 $136 $295 #
ellipse-curve $-1 63.902609974097793 19.314368100943792 6.6973474110077191 0.70710678939079041 0 0.70710677298230451 1.0606601594734568 0 -1.0606601840861856 1 I I #
point $-1 67.13690004663583 19.314368100943792 7.8103170895468157 #
plane-surface $-1 71.166722617267368 0 0 -1 0 0 0 0 1 forward_v I I I I #
coedge $-1 $144 $142 $146 $226 reversed $82 $-1 #
edge $-1 $157 -13.961460121863176 $228 13.961460121863176 $156 $296 forward 7 unknown #
vertex $-1 $226 $297 #
straight-curve $-1 -71.166722617267368 -28.919530676158946 0 0 0 -1 I I #
edge $-1 $224 -28.919530676158946 $228 28.919530676158946 $222 $298 forward 7 unknown #
straight-curve $-1 0 -28.919530676158946 -13.961460121863176 -1 0 0 I I #
vertex $-1 $149 $299 #
straight-curve $-1 0 28.919530676158946 -13.961460121863176 1 0 0 I I #
point $-1 71.166722617267368 28.919530676158946 -13.961460121863176 #
point $-1 71.166722617267368 -28.919530676158946 -13.961460121863176 #
straight-curve $-1 -71.166722617267368 0 13.961460121863176 0 -1 0 I I #
point $-1 -71.166722617267368 28.919530676158946 13.961460121863176 #
point $-1 -71.166722617267368 -28.919530676158946 13.961460121863176 #
straight-curve $-1 71.166722617267368 -28.919530676158946 0 0 0 -1 I I #
straight-curve $-1 71.166722617267368 28.919530676158946 0 0 0 -1 I I #
face $-1 $300 $179 $13 $-1 $301 reversed single #
loop $-1 $-1 $175 $166 #
plane-surface $-1 -71.166722617267368 0 0 1 0 0 0 0 -1 forward_v I I I I #
coedge $-1 $302 $303 $304 $305 forward $167 $-1 #
coedge $-1 $170 $169 $306 $307 forward $58 $-1 #
edge $-1 $173 -60.426006494023504 $308 71.166722617267368 $172 $309 forward 7 unknown #
coedge $-1 $310 $177 $170 $244 reversed $179 $-1 #
edge $-1 $311 -71.166722617267368 $245 60.426006494023504 $243 $312 forward 7 unknown #
vertex $-1 $171 $313 #
straight-curve $-1 -60.426006494023504 0 13.961460121863176 0 -1 0 I I #
coedge $-1 $172 $255 $314 $315 reversed $101 $-1 #
point $-1 -60.426006494023504 -28.919530676158946 13.961460121863176 #
coedge $-1 $316 $175 $178 $253 forward $238 $-1 #
coedge $-1 $175 $316 $182 $256 reversed $238 $-1 #
straight-curve $-1 -71.166722617267368 0 5.7528015986006622 0 1 0 I I #
coedge $-1 $178 $310 $303 $317 reversed $179 $-1 #
edge $-1 $180 -5.7528015986006622 $318 13.961460121863176 $178 $319 forward 7 unknown #
point $-1 -71.166722617267368 28.919530676158946 5.7528015986006622 #
coedge $-1 $247 $182 $302 $320 reversed $101 $-1 #
edge $-1 $183 -5.7528015986006622 $321 13.961460121863176 $250 $322 forward 7 unknown #
point $-1 -71.166722617267368 -28.919530676158946 5.7528015986006622 #
straight-curve $-1 -60.426006494023504 28.919530676158946 4.9285654301159596 0 0 1 I I #
face $-1 $323 $324 $14 $-1 $325 reversed single #
loop $-1 $-1 $326 $188 #
plane-surface $-1 -60.426006494023504 0 9.8571308602319192 -1 0 0 0 0 1 forward_v I I I I #
coedge $-1 $327 $328 $329 $330 reversed $189 $-1 #
coedge $-1 $191 $331 $332 $333 forward $117 $-1 #
coedge $-1 $332 $201 $192 $265 forward $203 $-1 #
edge $-1 $269 -98.754697102282165 $266 -88.573731405821832 $264 $334 forward 7 unknown #
vertex $-1 $265 $335 #
straight-curve $-1 35.583362476371846 12.752990336407876 13.961460121863183 -1 0 0 I I #
edge $-1 $199 -16.21856181500781 $269 -3.0958062859359803 $201 $336 forward 7 unknown #
vertex $-1 $268 $337 #
straight-curve $-1 -29.47822052997806 12.752990336407876 104.4254399081246 -0.70710677298230451 0 0.70710678939079041 I I #
point $-1 60.985757157057407 12.752990336407876 13.961460121863169 #
point $-1 71.166722617267368 25.875745865479708 3.7804944254028499 #
coedge $-1 $202 $338 $339 $340 reversed $203 $-1 #
face $-1 $-1 $203 $14 $-1 $341 reversed single #
coedge $-1 $331 $205 $342 $343 forward $117 $-1 #
coedge $-1 $339 $344 $205 $277 reversed $345 $-1 #
edge $-1 $278 -71.166722617267368 $346 60.426006494023504 $276 $347 forward 7 unknown #
vertex $-1 $206 $348 #
straight-curve $-1 71.166722617267368 0 13.961460121863176 0 1 0 I I #
face $-1 $349 $350 $15 $-1 $351 forward single #
loop $-1 $-1 $352 $209 #
plane-surface $-1 0 0 13.961460121863176 0 0 1 1 0 0 forward_v I I I I #
coedge $-1 $353 $354 $352 $355 reversed $210 $-1 #
coedge $-1 $356 $285 $290 $357 reversed $212 $-1 #
coedge $-1 $284 $358 $213 $286 reversed $212 $-1 #
edge $-1 $291 127.93538563559956 $359 142.33344523453479 $213 $360 forward 7 unknown #
coedge $-1 $361 $362 $214 $288 forward $363 $-1 #
edge $-1 $292 88.573731405821832 $359 98.754697102282165 $287 $364 forward 7 unknown #
coedge $-1 $365 $215 $362 $366 forward $281 $-1 #
coedge $-1 $215 $352 $284 $357 forward $281 $-1 #
vertex $-1 $357 $367 #
vertex $-1 $366 $368 #
straight-curve $-1 35.583362476371846 25.875745865479708 13.961460121863183 1 0 0 I I #
vertex $-1 $217 $369 #
point $-1 64.963270133571243 19.314368100943792 5.6366872269215333 #
straight-curve $-1 -71.166722617267368 28.919530676158946 0 0 0 -1 I I #
point $-1 -71.166722617267368 -28.919530676158946 -13.961460121863176 #
straight-curve $-1 -71.166722617267368 0 -13.961460121863176 0 1 0 I I #
point $-1 -71.166722617267368 28.919530676158946 -13.961460121863176 #
face $-1 $-1 $370 $13 $-1 $371 reversed single #
plane-surface $-1 0 28.919530676158946 0 0 -1 0 0 0 -1 forward_v I I I I #
coedge $-1 $372 $240 $255 $320 forward $167 $-1 #
coedge $-1 $240 $372 $252 $317 forward $167 $-1 #
coedge $-1 $373 $314 $240 $305 reversed $370 $-1 #
edge $-1 $374 -28.919530676158946 $375 28.919530676158946 $304 $376 forward 7 unknown #
coedge $-1 $314 $373 $241 $307 reversed $370 $-1 #
edge $-1 $308 -28.919530676158946 $311 28.919530676158946 $306 $377 forward 7 unknown #
vertex $-1 $307 $378 #
straight-curve $-1 0 -28.919530676158946 13.961460121863176 1 0 0 I I #
coedge $-1 $252 $243 $373 $379 forward $179 $-1 #
vertex $-1 $307 $380 #
straight-curve $-1 0 28.919530676158946 13.961460121863176 -1 0 0 I I #
point $-1 -60.426006494023504 28.919530676158946 13.961460121863176 #
coedge $-1 $304 $306 $247 $315 forward $370 $-1 #
edge $-1 $308 -13.961460121863176 $375 13.961460121863176 $314 $381 forward 7 unknown #
coedge $-1 $250 $249 $372 $382 reversed $238 $-1 #
edge $-1 $318 -71.166722617267368 $374 71.166722617267368 $252 $383 forward 7 unknown #
vertex $-1 $317 $384 #
straight-curve $-1 -71.166722617267368 28.919530676158946 0 0 0 -1 I I #
edge $-1 $375 -71.166722617267368 $321 71.166722617267368 $255 $385 forward 7 unknown #
vertex $-1 $382 $386 #
straight-curve $-1 -71.166722617267368 -28.919530676158946 0 0 0 -1 I I #
face $-1 $387 $388 $14 $-1 $389 reversed single #
loop $-1 $-1 $390 $259 #
plane-surface $-1 0 -28.919530676158946 0 0 1 0 0 0 1 forward_v I I I I #
coedge $-1 $342 $329 $390 $391 reversed $260 $-1 #
coedge $-1 $392 $262 $393 $394 reversed $189 $-1 #
coedge $-1 $262 $392 $395 $396 reversed $189 $-1 #
coedge $-1 $326 $397 $262 $330 forward $260 $-1 #
edge $-1 $398 -28.919530676158946 $399 28.919530676158946 $329 $400 forward 7 unknown #
coedge $-1 $263 $275 $401 $402 forward $117 $-1 #
coedge $-1 $403 $264 $263 $333 reversed $203 $-1 #
edge $-1 $404 -28.919530676158946 $266 12.752990336407876 $332 $279 forward 7 unknown #
straight-curve $-1 71.166722617267368 12.752990336407876 102.53519152768501 0 0 1 I I #
point $-1 71.166722617267368 12.752990336407876 13.961460121863176 #
straight-curve $-1 71.166722617267354 9.657184050471896 3.7804944254028499 0 -1 0 I I #
point $-1 71.166722617267368 12.752990336407876 3.7804944254028499 #
coedge $-1 $273 $403 $405 $406 reversed $203 $-1 #
coedge $-1 $407 $276 $273 $340 forward $345 $-1 #
edge $-1 $278 -13.961460121863176 $408 13.961460121863176 $273 $409 forward 7 unknown #
plane-surface $-1 71.166722617267368 0 0 -1 0 0 0 0 1 forward_v I I I I #
coedge $-1 $397 $326 $275 $343 reversed $260 $-1 #
edge $-1 $346 -28.919530676158946 $410 28.919530676158946 $275 $411 forward 7 unknown #
coedge $-1 $276 $393 $397 $412 forward $345 $-1 #
loop $-1 $-1 $344 $413 #
vertex $-1 $343 $414 #
straight-curve $-1 0 28.919530676158946 13.961460121863176 -1 0 0 I I #
point $-1 71.166722617267368 28.919530676158946 13.961460121863176 #
face $-1 $415 $416 $15 $-1 $417 forward single #
loop $-1 $-1 $418 $280 #
plane-surface $-1 -65.79636455564544 0 5.7528015986006622 0 0 1 1 0 0 forward_v I I I I #
coedge $-1 $290 $419 $283 $355 forward $281 $-1 #
coedge $-1 $354 $283 $420 $421 reversed $210 $-1 #
coedge $-1 $283 $353 $356 $422 forward $210 $-1 #
edge $-1 $423 -35.583360140895522 $424 -25.402394680685561 $352 $425 forward 7 unknown #
coedge $-1 $358 $284 $354 $422 reversed $212 $-1 #
edge $-1 $424 3.0958062859359803 $291 16.21856181500781 $290 $426 forward 7 unknown #
coedge $-1 $285 $356 $361 $427 reversed $212 $-1 #
vertex $-1 $427 $428 #
straight-curve $-1 -29.47822052997806 25.875745865479708 104.4254399081246 0.70710677298230451 0 -0.70710678939079041 I I #
coedge $-1 $420 $287 $358 $427 forward $363 $-1 #
coedge $-1 $287 $429 $289 $366 reversed $363 $-1 #
loop $-1 $-1 $420 $430 #
straight-curve $-1 71.166722617267368 25.875745865479708 102.53519152768501 0 0 -1 I I #
coedge $-1 $431 $289 $432 $433 forward $281 $-1 #
edge $-1 $292 25.875745865479708 $434 28.919530676158946 $362 $435 forward 7 unknown #
point $-1 60.985757157057407 25.875745865479708 13.961460121863169 #
point $-1 71.166722617267368 25.875745865479708 13.961460121863176 #
point $-1 62.841949790011604 19.314368100943792 5.6366872515342621 #
loop $-1 $-1 $314 $300 #
plane-surface $-1 71.166722617267368 0 0 -1 0 0 0 0 1 forward_v I I I I #
coedge $-1 $303 $302 $316 $382 forward $167 $-1 #
coedge $-1 $306 $304 $310 $379 reversed $370 $-1 #
vertex $-1 $305 $436 #
vertex $-1 $315 $437 #
straight-curve $-1 71.166722617267368 0 -13.961460121863176 0 -1 0 I I #
straight-curve $-1 71.166722617267368 0 13.961460121863176 0 1 0 I I #
point $-1 71.166722617267368 -28.919530676158946 13.961460121863176 #
edge $-1 $311 -13.961460121863176 $374 13.961460121863176 $373 $438 forward 7 unknown #
point $-1 71.166722617267368 28.919530676158946 13.961460121863176 #
straight-curve $-1 71.166722617267368 -28.919530676158946 0 0 0 -1 I I #
edge $-1 $321 -28.919530676158946 $318 28.919530676158946 $316 $439 forward 7 unknown #
straight-curve $-1 0 28.919530676158946 -13.961460121863176 1 0 0 I I #
point $-1 -71.166722617267368 28.919530676158946 -13.961460121863176 #
straight-curve $-1 0 -28.919530676158946 -13.961460121863176 -1 0 0 I I #
point $-1 -71.166722617267368 -28.919530676158946 -13.961460121863176 #
face $-1 $413 $440 $14 $-1 $441 reversed single #
loop $-1 $-1 $405 $323 #
plane-surface $-1 0 0 -13.961460121863176 0 0 1 1 0 0 forward_v I I I I #
coedge $-1 $395 $401 $326 $391 forward $324 $-1 #
edge $-1 $410 -9.0328946917472166 $399 -0.8242361684847026 $390 $442 forward 7 unknown #
coedge $-1 $328 $327 $443 $444 reversed $189 $-1 #
coedge $-1 $344 $445 $327 $394 forward $345 $-1 #
edge $-1 $446 -38.268540339444648 $398 -27.527824216200784 $393 $447 forward 7 unknown #
coedge $-1 $448 $390 $328 $396 forward $324 $-1 #
edge $-1 $399 27.527824216200784 $449 38.268540339444648 $395 $450 forward 7 unknown #
coedge $-1 $329 $342 $344 $412 reversed $260 $-1 #
vertex $-1 $394 $451 #
vertex $-1 $396 $452 #
straight-curve $-1 -60.426006494023504 0 5.7528015986006622 0 -1 0 I I #
coedge $-1 $390 $453 $331 $402 reversed $324 $-1 #
edge $-1 $410 -60.426006494023504 $404 71.166722617267368 $401 $454 forward 7 unknown #
coedge $-1 $338 $332 $453 $455 forward $203 $-1 #
vertex $-1 $333 $456 #
coedge $-1 $457 $458 $338 $406 forward $388 $-1 #
edge $-1 $408 -28.919530676158946 $459 28.919530676158946 $338 $460 forward 7 unknown #
coedge $-1 $445 $339 $458 $461 reversed $345 $-1 #
vertex $-1 $406 $462 #
straight-curve $-1 71.166722617267368 28.919530676158946 0 0 0 -1 I I #
vertex $-1 $402 $463 #
straight-curve $-1 -60.426006494023504 0 13.961460121863176 0 -1 0 I I #
edge $-1 $398 0.8242361684847026 $346 9.0328946917472166 $344 $464 forward 7 unknown #
face $-1 $274 $345 $14 $-1 $465 reversed single #
point $-1 -60.426006494023504 28.919530676158946 13.961460121863176 #
face $-1 $466 $467 $15 $-1 $468 reversed single #
loop $-1 $-1 $469 $349 #
plane-surface $-1 -60.426006494023504 0 9.8571308602319192 -1 0 0 0 0 1 forward_v I I I I #
coedge $-1 $470 $471 $472 $473 reversed $350 $-1 #
coedge $-1 $352 $474 $475 $476 forward $281 $-1 #
coedge $-1 $475 $361 $353 $421 forward $363 $-1 #
edge $-1 $477 -98.754697102282165 $423 -88.573731405821832 $420 $478 forward 7 unknown #
edge $-1 $477 -142.33344523453479 $424 -127.93538563559956 $354 $479 forward 7 unknown #
vertex $-1 $421 $480 #
vertex $-1 $357 $481 #
straight-curve $-1 35.583362476371846 12.752990336407876 13.961460121863183 -1 0 0 I I #
straight-curve $-1 60.985757157057392 9.657184050471896 13.961460121863169 0 1 0 I I #
edge $-1 $359 -16.21856181500781 $477 -3.0958062859359803 $361 $482 forward 7 unknown #
point $-1 71.166722617267368 25.875745865479708 3.7804944254028499 #
coedge $-1 $362 $483 $484 $485 reversed $363 $-1 #
face $-1 $-1 $363 $15 $-1 $486 reversed single #
coedge $-1 $474 $365 $487 $488 forward $281 $-1 #
coedge $-1 $484 $489 $365 $433 reversed $490 $-1 #
edge $-1 $434 -71.166722617267368 $491 60.426006494023504 $432 $492 forward 7 unknown #
vertex $-1 $366 $493 #
straight-curve $-1 71.166722617267368 0 13.961460121863176 0 1 0 I I #
point $-1 71.166722617267368 28.919530676158946 -13.961460121863176 #
point $-1 71.166722617267368 -28.919530676158946 -13.961460121863176 #
straight-curve $-1 71.166722617267368 28.919530676158946 0 0 0 -1 I I #
straight-curve $-1 -71.166722617267368 0 -13.961460121863176 0 1 0 I I #
loop $-1 $-1 $443 $387 #
plane-surface $-1 -71.166722617267368 0 0 1 0 0 0 0 -1 forward_v I I I I #
straight-curve $-1 -60.426006494023504 -28.919530676158946 4.9285654301159596 0 0 -1 I I #
coedge $-1 $494 $495 $392 $444 forward $440 $-1 #
edge $-1 $449 -28.919530676158946 $446 28.919530676158946 $443 $496 forward 7 unknown #
coedge $-1 $393 $407 $494 $497 reversed $345 $-1 #
vertex $-1 $497 $498 #
straight-curve $-1 -32.89818227782272 28.919530676158946 5.7528015986006622 1 0 0 I I #
coedge $-1 $499 $395 $495 $500 forward $324 $-1 #
vertex $-1 $500 $501 #
straight-curve $-1 -32.89818227782272 -28.919530676158946 5.7528015986006622 -1 0 0 I I #
point $-1 -60.426006494023504 28.919530676158946 5.7528015986006622 #
point $-1 -60.426006494023504 -28.919530676158946 5.7528015986006622 #
coedge $-1 $401 $499 $403 $455 reversed $324 $-1 #
straight-curve $-1 0 -28.919530676158946 13.961460121863176 1 0 0 I I #
edge $-1 $404 -13.961460121863176 $459 13.961460121863176 $403 $502 forward 7 unknown #
point $-1 71.166722617267368 -28.919530676158946 13.961460121863176 #
coedge $-1 $503 $405 $499 $504 forward $388 $-1 #
coedge $-1 $405 $503 $407 $461 forward $388 $-1 #
vertex $-1 $455 $505 #
straight-curve $-1 71.166722617267368 0 -13.961460121863176 0 -1 0 I I #
edge $-1 $506 -71.166722617267368 $408 71.166722617267368 $407 $507 forward 7 unknown #
point $-1 71.166722617267368 28.919530676158946 -13.961460121863176 #
point $-1 -60.426006494023504 -28.919530676158946 13.961460121863176 #
straight-curve $-1 -60.426006494023504 28.919530676158946 4.9285654301159596 0 0 1 I I #
plane-surface $-1 0 28.919530676158946 0 0 -1 0 0 0 -1 forward_v I I I I #
face $-1 $508 $509 $15 $-1 $510 reversed single #
loop $-1 $-1 $511 $415 #
plane-surface $-1 0 -28.919530676158946 0 0 1 0 0 0 1 forward_v I I I I #
coedge $-1 $487 $472 $511 $512 reversed $416 $-1 #
coedge $-1 $513 $418 $514 $515 reversed $350 $-1 #
coedge $-1 $418 $513 $516 $517 reversed $350 $-1 #
coedge $-1 $469 $518 $418 $473 forward $416 $-1 #
edge $-1 $519 -28.919530676158946 $520 28.919530676158946 $472 $521 forward 7 unknown #
coedge $-1 $419 $431 $522 $523 forward $281 $-1 #
coedge $-1 $524 $420 $419 $476 reversed $363 $-1 #
edge $-1 $525 -28.919530676158946 $423 12.752990336407876 $475 $435 forward 7 unknown #
vertex $-1 $427 $526 #
straight-curve $-1 71.166722617267368 12.752990336407876 102.53519152768501 0 0 1 I I #
straight-curve $-1 -29.47822052997806 12.752990336407876 104.4254399081246 -0.70710677298230451 0 0.70710678939079041 I I #
point $-1 71.166722617267368 12.752990336407876 13.961460121863176 #
point $-1 60.985757157057407 12.752990336407876 13.961460121863169 #
straight-curve $-1 71.166722617267354 9.657184050471896 3.7804944254028499 0 -1 0 I I #
coedge $-1 $429 $524 $527 $528 reversed $363 $-1 #
coedge $-1 $529 $432 $429 $485 forward $490 $-1 #
edge $-1 $434 -13.961460121863176 $530 13.961460121863176 $429 $531 forward 7 unknown #
plane-surface $-1 71.166722617267368 0 0 -1 0 0 0 0 1 forward_v I I I I #
coedge $-1 $518 $469 $431 $488 reversed $416 $-1 #
edge $-1 $491 -28.919530676158946 $532 28.919530676158946 $431 $533 forward 7 unknown #
coedge $-1 $432 $514 $518 $534 forward $490 $-1 #
loop $-1 $-1 $489 $535 #
vertex $-1 $488 $536 #
straight-curve $-1 0 28.919530676158946 13.961460121863176 -1 0 0 I I #
point $-1 71.166722617267368 28.919530676158946 13.961460121863176 #
coedge $-1 $537 $443 $445 $497 forward $440 $-1 #
coedge $-1 $443 $537 $448 $500 reversed $440 $-1 #
straight-curve $-1 -71.166722617267368 0 5.7528015986006622 0 1 0 I I #
edge $-1 $446 -5.7528015986006622 $506 13.961460121863176 $445 $538 forward 7 unknown #
point $-1 -71.166722617267368 28.919530676158946 5.7528015986006622 #
coedge $-1 $453 $448 $457 $504 reversed $324 $-1 #
edge $-1 $449 -5.7528015986006622 $539 13.961460121863176 $495 $540 forward 7 unknown #
point $-1 -71.166722617267368 -28.919530676158946 5.7528015986006622 #
straight-curve $-1 71.166722617267368 -28.919530676158946 0 0 0 -1 I I #
coedge $-1 $458 $457 $537 $541 forward $388 $-1 #
edge $-1 $459 -71.166722617267368 $539 71.166722617267368 $499 $542 forward 7 unknown #
point $-1 71.166722617267368 -28.919530676158946 -13.961460121863176 #
vertex $-1 $461 $543 #
straight-curve $-1 0 28.919530676158946 -13.961460121863176 1 0 0 I I #
face $-1 $535 $544 $15 $-1 $545 reversed single #
loop $-1 $-1 $527 $466 #
plane-surface $-1 0 0 -13.961460121863176 0 0 1 1 0 0 forward_v I I I I #
coedge $-1 $516 $522 $469 $512 forward $467 $-1 #
edge $-1 $532 -9.0328946917472166 $520 -0.8242361684847026 $511 $546 forward 7 unknown #
coedge $-1 $471 $470 $547 $548 reversed $350 $-1 #
coedge $-1 $489 $549 $470 $515 forward $490 $-1 #
edge $-1 $550 -38.268540339444648 $519 -27.527824216200784 $514 $551 forward 7 unknown #
coedge $-1 $552 $511 $471 $517 forward $467 $-1 #
edge $-1 $520 27.527824216200784 $553 38.268540339444648 $516 $554 forward 7 unknown #
coedge $-1 $472 $487 $489 $534 reversed $416 $-1 #
vertex $-1 $515 $555 #
vertex $-1 $517 $556 #
straight-curve $-1 -60.426006494023504 0 5.7528015986006622 0 -1 0 I I #
coedge $-1 $511 $557 $474 $523 reversed $467 $-1 #
edge $-1 $532 -60.426006494023504 $525 71.166722617267368 $522 $558 forward 7 unknown #
coedge $-1 $483 $475 $557 $559 forward $363 $-1 #
vertex $-1 $476 $560 #
point $-1 71.166722617267368 12.752990336407876 3.7804944254028499 #
coedge $-1 $561 $562 $483 $528 forward $509 $-1 #
edge $-1 $530 -28.919530676158946 $563 28.919530676158946 $483 $564 forward 7 unknown #
coedge $-1 $549 $484 $562 $565 reversed $490 $-1 #
vertex $-1 $528 $566 #
straight-curve $-1 71.166722617267368 28.919530676158946 0 0 0 -1 I I #
vertex $-1 $523 $567 #
straight-curve $-1 -60.426006494023504 0 13.961460121863176 0 -1 0 I I #
edge $-1 $519 0.8242361684847026 $491 9.0328946917472166 $489 $568 forward 7 unknown #
face $-1 $430 $490 $15 $-1 $569 reversed single #
point $-1 -60.426006494023504 28.919530676158946 13.961460121863176 #
coedge $-1 $495 $494 $503 $541 reversed $440 $-1 #
straight-curve $-1 -71.166722617267368 28.919530676158946 0 0 0 -1 I I #
vertex $-1 $541 $570 #
straight-curve $-1 -71.166722617267368 -28.919530676158946 0 0 0 -1 I I #
edge $-1 $539 -28.919530676158946 $506 28.919530676158946 $537 $571 forward 7 unknown #
straight-curve $-1 0 -28.919530676158946 -13.961460121863176 -1 0 0 I I #
point $-1 -71.166722617267368 28.919530676158946 -13.961460121863176 #
loop $-1 $-1 $547 $508 #
plane-surface $-1 -71.166722617267368 0 0 1 0 0 0 0 -1 forward_v I I I I #
straight-curve $-1 -60.426006494023504 -28.919530676158946 4.9285654301159596 0 0 -1 I I #
coedge $-1 $572 $573 $513 $548 forward $544 $-1 #
edge $-1 $553 -28.919530676158946 $550 28.919530676158946 $547 $574 forward 7 unknown #
coedge $-1 $514 $529 $572 $575 reversed $490 $-1 #
vertex $-1 $575 $576 #
straight-curve $-1 -32.89818227782272 28.919530676158946 5.7528015986006622 1 0 0 I I #
coedge $-1 $577 $516 $573 $578 forward $467 $-1 #
vertex $-1 $578 $579 #
straight-curve $-1 -32.89818227782272 -28.919530676158946 5.7528015986006622 -1 0 0 I I #
point $-1 -60.426006494023504 28.919530676158946 5.7528015986006622 #
point $-1 -60.426006494023504 -28.919530676158946 5.7528015986006622 #
coedge $-1 $522 $577 $524 $559 reversed $467 $-1 #
straight-curve $-1 0 -28.919530676158946 13.961460121863176 1 0 0 I I #
edge $-1 $525 -13.961460121863176 $563 13.961460121863176 $524 $580 forward 7 unknown #
point $-1 71.166722617267368 -28.919530676158946 13.961460121863176 #
coedge $-1 $581 $527 $577 $582 forward $509 $-1 #
coedge $-1 $527 $581 $529 $565 forward $509 $-1 #
vertex $-1 $559 $583 #
straight-curve $-1 71.166722617267368 0 -13.961460121863176 0 -1 0 I I #
edge $-1 $584 -71.166722617267368 $530 71.166722617267368 $529 $585 forward 7 unknown #
point $-1 71.166722617267368 28.919530676158946 -13.961460121863176 #
point $-1 -60.426006494023504 -28.919530676158946 13.961460121863176 #
straight-curve $-1 -60.426006494023504 28.919530676158946 4.9285654301159596 0 0 1 I I #
plane-surface $-1 0 28.919530676158946 0 0 -1 0 0 0 -1 forward_v I I I I #
point $-1 -71.166722617267368 -28.919530676158946 -13.961460121863176 #
straight-curve $-1 -71.166722617267368 0 -13.961460121863176 0 1 0 I I #
coedge $-1 $586 $547 $549 $575 forward $544 $-1 #
coedge $-1 $547 $586 $552 $578 reversed $544 $-1 #
straight-curve $-1 -71.166722617267368 0 5.7528015986006622 0 1 0 I I #
edge $-1 $550 -5.7528015986006622 $584 13.961460121863176 $549 $587 forward 7 unknown #
point $-1 -71.166722617267368 28.919530676158946 5.7528015986006622 #
coedge $-1 $557 $552 $561 $582 reversed $467 $-1 #
edge $-1 $553 -5.7528015986006622 $588 13.961460121863176 $573 $589 forward 7 unknown #
point $-1 -71.166722617267368 -28.919530676158946 5.7528015986006622 #
straight-curve $-1 71.166722617267368 -28.919530676158946 0 0 0 -1 I I #
coedge $-1 $562 $561 $586 $590 forward $509 $-1 #
edge $-1 $563 -71.166722617267368 $588 71.166722617267368 $577 $591 forward 7 unknown #
point $-1 71.166722617267368 -28.919530676158946 -13.961460121863176 #
vertex $-1 $565 $592 #
straight-curve $-1 0 28.919530676158946 -13.961460121863176 1 0 0 I I #
coedge $-1 $573 $572 $581 $590 reversed $544 $-1 #
straight-curve $-1 -71.166722617267368 28.919530676158946 0 0 0 -1 I I #
vertex $-1 $590 $593 #
straight-curve $-1 -71.166722617267368 -28.919530676158946 0 0 0 -1 I I #
edge $-1 $588 -28.919530676158946 $584 28.919530676158946 $586 $594 forward 7 unknown #
straight-curve $-1 0 -28.919530676158946 -13.961460121863176 -1 0 0 I I #
point $-1 -71.166722617267368 28.919530676158946 -13.961460121863176 #
point $-1 -71.166722617267368 -28.919530676158946 -13.961460121863176 #
straight-curve $-1 -71.166722617267368 0 -13.961460121863176 0 1 0 I I #
End-of-ACIS-data 