500 0 11 0           
7 Unknown 11 ACIS 5.0 NT 24 Thu Mar 25 16:06:24 1999 
-1 9.9999999999999995e-007 1e-010 
body $-1 $11 $-1 $12 #
body $-1 $13 $-1 $14 #
body $-1 $15 $-1 $16 #
body $-1 $17 $-1 $18 #
body $-1 $19 $-1 $20 #
body $-1 $21 $-1 $22 #
body $-1 $23 $-1 $24 #
body $-1 $25 $-1 $26 #
body $-1 $27 $-1 $28 #
body $-1 $29 $-1 $30 #
body $-1 $31 $-1 $32 #
lump $-1 $-1 $33 $0 #
transform $-1 1 0 0 0 1 0 0 0 1 72.483901486251412 45.944666545579274 16.890592598489409 1 rotate no_reflect no_shear #
lump $-1 $-1 $34 $1 #
transform $-1 1 0 0 0 1 0 0 0 1 72.483901486251412 45.944666545579274 16.890592598489409 1 rotate no_reflect no_shear #
lump $-1 $-1 $35 $2 #
transform $-1 1 0 0 0 1 0 0 0 1 72.483901486251412 45.944666545579274 16.890592598489409 1 rotate no_reflect no_shear #
lump $-1 $-1 $36 $3 #
transform $-1 1 0 0 0 1 0 0 0 1 72.483901486251412 45.944666545579274 16.890592598489409 1 rotate no_reflect no_shear #
lump $-1 $-1 $37 $4 #
transform $-1 1 0 0 0 1 0 0 0 1 72.483901486251412 45.944666545579274 16.890592598489409 1 rotate no_reflect no_shear #
lump $-1 $-1 $38 $5 #
transform $-1 1 0 0 0 1 0 0 0 1 72.483901486251412 45.944666545579274 16.890592598489409 1 rotate no_reflect no_shear #
lump $-1 $-1 $39 $6 #
transform $-1 1 0 0 0 1 0 0 0 1 72.483901486251412 45.944666545579274 16.890592598489409 1 rotate no_reflect no_shear #
lump $-1 $-1 $40 $7 #
transform $-1 1 0 0 0 1 0 0 0 1 72.483901486251412 45.944666545579274 16.890592598489409 1 rotate no_reflect no_shear #
lump $-1 $-1 $41 $8 #
transform $-1 1 0 0 0 1 0 0 0 1 72.483901486251412 45.944666545579274 16.890592598489409 1 rotate no_reflect no_shear #
lump $-1 $-1 $42 $9 #
transform $-1 1 0 0 0 1 0 0 0 1 72.483901486251412 45.944666545579274 16.890592598489409 1 rotate no_reflect no_shear #
lump $-1 $-1 $43 $10 #
transform $-1 1 0 0 0 1 0 0 0 1 72.483901486251412 45.944666545579274 16.890592598489409 1 rotate no_reflect no_shear #
shell $-1 $-1 $-1 $44 $-1 $11 #
shell $-1 $-1 $-1 $45 $-1 $13 #
shell $-1 $-1 $-1 $46 $-1 $15 #
shell $-1 $-1 $-1 $47 $-1 $17 #
shell $-1 $-1 $-1 $48 $-1 $19 #
shell $-1 $-1 $-1 $49 $-1 $21 #
shell $-1 $-1 $-1 $50 $-1 $23 #
shell $-1 $-1 $-1 $51 $-1 $25 #
shell $-1 $-1 $-1 $52 $-1 $27 #
shell $-1 $-1 $-1 $53 $-1 $29 #
shell $-1 $-1 $-1 $54 $-1 $31 #
face $-1 $55 $56 $33 $-1 $57 forward single #
face $-1 $58 $59 $34 $-1 $60 forward single #
face $-1 $61 $62 $35 $-1 $63 reversed single #
face $-1 $64 $65 $36 $-1 $66 forward single #
face $-1 $67 $68 $37 $-1 $69 forward single #
face $-1 $70 $71 $38 $-1 $72 reversed single #
face $-1 $73 $74 $39 $-1 $75 forward single #
face $-1 $76 $77 $40 $-1 $78 forward single #
face $-1 $79 $80 $41 $-1 $81 reversed single #
face $-1 $82 $83 $42 $-1 $84 forward single #
face $-1 $85 $86 $43 $-1 $87 forward single #
face $-1 $88 $89 $33 $-1 $90 reversed single #
loop $-1 $-1 $91 $44 #
plane-surface $-1 0 0 16.890592598489409 0 0 1 1 0 0 forward_v I I I I #
face $-1 $92 $93 $34 $-1 $94 reversed single #
loop $-1 $-1 $95 $45 #
plane-surface $-1 -72.483901486251412 0 0 1 0 0 0 0 -1 forward_v I I I I #
face $-1 $96 $97 $35 $-1 $98 reversed single #
loop $-1 $-1 $99 $46 #
plane-surface $-1 -23.185256222800458 97.931123779237367 171.4292130096097 1 0 0 0 -0.7660444514056185 -0.64278759981090561 forward_v I I I I #
face $-1 $100 $101 $36 $-1 $102 forward single #
loop $-1 $103 $104 $47 #
cone-surface $-1 -14.355812697963266 41.463010729302169 11.79307772234084 0 -0.7660444514056185 -0.64278759981090561 1.5 0 0 1 I I 0 1 1.5 forward I I I I #
face $-1 $105 $106 $37 $-1 $107 forward single #
loop $-1 $108 $109 $48 #
cone-surface $-1 -1.1116474107074907 41.463010729302169 11.79307772234084 0 -0.7660444514056185 -0.64278759981090561 1.5 0 0 1 I I 0 1 1.5 forward I I I I #
face $-1 $110 $111 $38 $-1 $112 reversed single #
loop $-1 $-1 $113 $49 #
plane-surface $-1 -4.437774784793266 -150.22577818572998 101.99478133916487 -1 0 0 0 -0.71933980857756763 0.69465836192734942 forward_v I I I I #
face $-1 $114 $115 $39 $-1 $116 forward single #
loop $-1 $117 $118 $50 #
cone-surface $-1 -13.817997232902592 -36.823729819904365 7.5565705985857026 0 0.71933980857756763 -0.69465836192734942 1.5 0 0 1 I I 0 1 1.5 forward I I I I #
face $-1 $119 $120 $40 $-1 $121 forward single #
loop $-1 $122 $123 $51 #
cone-surface $-1 -8.1898637640369856 -36.823729819904365 7.5565705985857026 0 0.71933980857756763 -0.69465836192734942 1.5 0 0 1 I I 0 1 1.5 forward I I I I #
face $-1 $124 $125 $41 $-1 $126 reversed single #
loop $-1 $-1 $127 $52 #
plane-surface $-1 58.382519025256386 -150.22577818572998 101.99478133916487 -1 0 0 0 -0.71933980857756763 0.69465836192734942 forward_v I I I I #
face $-1 $128 $129 $42 $-1 $130 forward single #
loop $-1 $131 $132 $53 #
cone-surface $-1 49.002296577147064 -36.823729819904365 7.5565705985857026 0 0.71933980857756763 -0.69465836192734942 1.5 0 0 1 I I 0 1 1.5 forward I I I I #
face $-1 $133 $134 $43 $-1 $135 forward single #
loop $-1 $136 $137 $54 #
cone-surface $-1 54.630430046012677 -36.823729819904365 7.5565705985857026 0 0.71933980857756763 -0.69465836192734942 1.5 0 0 1 I I 0 1 1.5 forward I I I I #
face $-1 $138 $139 $33 $-1 $140 reversed single #
loop $-1 $-1 $141 $55 #
plane-surface $-1 0 0 -16.890592598489409 0 0 1 1 0 0 forward_v I I I I #
coedge $-1 $142 $143 $144 $145 forward $56 $-1 #
face $-1 $146 $147 $34 $-1 $148 forward single #
loop $-1 $-1 $149 $58 #
plane-surface $-1 0 45.944666545579274 0 0 -1 0 0 0 -1 forward_v I I I I #
coedge $-1 $150 $151 $152 $153 forward $59 $-1 #
face $-1 $154 $155 $35 $-1 $156 reversed single #
loop $-1 $-1 $157 $61 #
plane-surface $-1 -7.733730054335382 -13.120657320311352 78.24570688705434 0 0.7660444514056185 0.64278759981090561 1 0 0 forward_v I I I I #
coedge $-1 $158 $159 $160 $161 reversed $62 $-1 #
face $-1 $-1 $162 $36 $-1 $163 forward single #
loop $-1 $164 $165 $64 #
cone-surface $-1 -14.355812697963266 40.197957296172866 10.731571880973984 0 -0.7660444514056185 -0.64278759981090561 0.75 0 0 1 I I -0.70710678118654757 0.70710678118654757 0.75 forward I I I I #
loop $-1 $-1 $166 $47 #
coedge $-1 $104 $104 $167 $168 reversed $65 $-1 #
face $-1 $-1 $169 $37 $-1 $170 forward single #
loop $-1 $171 $172 $67 #
cone-surface $-1 -1.1116474107074907 40.197957296172866 10.731571880973984 0 -0.7660444514056185 -0.64278759981090561 0.75 0 0 1 I I -0.70710678118654757 0.70710678118654757 0.75 forward I I I I #
loop $-1 $-1 $173 $48 #
coedge $-1 $109 $109 $174 $175 reversed $68 $-1 #
face $-1 $176 $177 $38 $-1 $178 reversed single #
loop $-1 $-1 $179 $70 #
plane-surface $-1 -11.003930498469799 -45.944666545579253 1.2916847940793303 0 -0.71933980857756763 0.69465836192734942 1 0 0 forward_v I I I I #
coedge $-1 $180 $181 $182 $183 reversed $71 $-1 #
face $-1 $-1 $184 $39 $-1 $185 forward single #
loop $-1 $186 $187 $73 #
cone-surface $-1 -13.817997232902592 -34.695133142010832 5.5010087294415264 0 0.71933980857756763 -0.69465836192734942 0.75 0 0 1 I I -0.70710678118654757 0.70710678118654757 0.75 forward I I I I #
loop $-1 $-1 $188 $50 #
coedge $-1 $118 $118 $189 $190 reversed $74 $-1 #
face $-1 $-1 $191 $40 $-1 $192 forward single #
loop $-1 $193 $194 $76 #
cone-surface $-1 -8.1898637640369856 -34.695133142010832 5.5010087294415264 0 0.71933980857756763 -0.69465836192734942 0.75 0 0 1 I I -0.70710678118654757 0.70710678118654757 0.75 forward I I I I #
loop $-1 $-1 $195 $51 #
coedge $-1 $123 $123 $196 $197 reversed $77 $-1 #
face $-1 $198 $199 $41 $-1 $200 reversed single #
loop $-1 $-1 $201 $79 #
plane-surface $-1 51.816363311579849 -45.944666545579253 1.2916847940793303 0 -0.71933980857756763 0.69465836192734942 1 0 0 forward_v I I I I #
coedge $-1 $202 $203 $204 $205 reversed $80 $-1 #
face $-1 $-1 $206 $42 $-1 $207 forward single #
loop $-1 $208 $209 $82 #
cone-surface $-1 49.002296577147064 -34.695133142010832 5.5010087294415264 0 0.71933980857756763 -0.69465836192734942 0.75 0 0 1 I I -0.70710678118654757 0.70710678118654757 0.75 forward I I I I #
loop $-1 $-1 $210 $53 #
coedge $-1 $132 $132 $211 $212 reversed $83 $-1 #
face $-1 $-1 $213 $43 $-1 $214 forward single #
loop $-1 $215 $216 $85 #
cone-surface $-1 54.630430046012677 -34.695133142010832 5.5010087294415264 0 0.71933980857756763 -0.69465836192734942 0.75 0 0 1 I I -0.70710678118654757 0.70710678118654757 0.75 forward I I I I #
loop $-1 $-1 $217 $54 #
coedge $-1 $137 $137 $218 $219 reversed $86 $-1 #
face $-1 $220 $221 $33 $-1 $222 reversed single #
loop $-1 $-1 $223 $88 #
plane-surface $-1 0 -45.944666545579274 0 0 1 0 0 0 1 forward_v I I I I #
coedge $-1 $224 $225 $226 $227 forward $89 $-1 #
coedge $-1 $228 $91 $229 $230 forward $56 $-1 #
coedge $-1 $91 $228 $231 $232 forward $56 $-1 #
coedge $-1 $233 $234 $91 $145 reversed $235 $-1 #
edge $-1 $236 -45.944666545579274 $237 45.944666545579274 $144 $238 forward 7 unknown #
face $-1 $239 $240 $34 $-1 $241 reversed single #
loop $-1 $-1 $152 $92 #
plane-surface $-1 -82.147509162453161 0 -6.1002660810744418 0 0 1 1 0 0 forward_v I I I I #
coedge $-1 $242 $243 $151 $244 forward $93 $-1 #
coedge $-1 $245 $95 $246 $247 reversed $59 $-1 #
coedge $-1 $95 $245 $149 $244 reversed $59 $-1 #
coedge $-1 $248 $249 $95 $153 reversed $147 $-1 #
edge $-1 $250 -45.944666545579274 $251 45.944666545579274 $152 $252 forward 7 unknown #
face $-1 $253 $254 $35 $-1 $255 forward single #
loop $-1 $-1 $256 $96 #
plane-surface $-1 7.717796114129694 97.931123779237367 171.4292130096097 -1 0 0 0 0.7660444514056185 0.64278759981090561 forward_v I I I I #
coedge $-1 $257 $258 $259 $260 reversed $97 $-1 #
coedge $-1 $159 $99 $261 $262 reversed $62 $-1 #
coedge $-1 $99 $158 $257 $263 reversed $62 $-1 #
coedge $-1 $259 $264 $99 $161 forward $254 $-1 #
edge $-1 $265 3.0208953440394097 $266 10.603166787443421 $160 $267 forward 7 unknown #
loop $-1 $-1 $167 $100 #
plane-surface $-1 -7.733730054335382 -13.120657320311352 78.24570688705434 0 0.7660444514056185 0.64278759981090561 1 0 0 forward_v I I I I #
loop $-1 $-1 $268 $64 #
coedge $-1 $165 $165 $166 $269 reversed $101 $-1 #
coedge $-1 $166 $166 $165 $269 forward $103 $-1 #
coedge $-1 $167 $167 $104 $168 forward $162 $-1 #
edge $-1 $270 5.838617368885599e-016 $270 6.2831853071796013 $167 $271 forward 7 unknown #
loop $-1 $-1 $174 $105 #
plane-surface $-1 -7.733730054335382 -13.120657320311352 78.24570688705434 0 0.7660444514056185 0.64278759981090561 1 0 0 forward_v I I I I #
loop $-1 $-1 $272 $67 #
coedge $-1 $172 $172 $173 $273 reversed $106 $-1 #
coedge $-1 $173 $173 $172 $273 forward $108 $-1 #
coedge $-1 $174 $174 $109 $175 forward $169 $-1 #
edge $-1 $274 5.838617368885599e-016 $274 6.2831853071796013 $174 $275 forward 7 unknown #
face $-1 $276 $277 $38 $-1 $278 reversed single #
loop $-1 $-1 $279 $110 #
plane-surface $-1 -17.570086212146332 -150.22577818572998 101.99478133916487 1 0 0 0 0.71933980857756763 -0.69465836192734942 forward_v I I I I #
coedge $-1 $280 $281 $282 $283 reversed $111 $-1 #
coedge $-1 $181 $113 $284 $285 reversed $71 $-1 #
coedge $-1 $113 $180 $280 $286 reversed $71 $-1 #
coedge $-1 $282 $287 $113 $183 forward $288 $-1 #
edge $-1 $289 29.168222547285716 $290 44.231912355714847 $182 $291 forward 7 unknown #
loop $-1 $-1 $189 $114 #
plane-surface $-1 -11.003930498469799 -45.944666545579253 1.2916847940793303 0 -0.71933980857756763 0.69465836192734942 1 0 0 forward_v I I I I #
loop $-1 $-1 $292 $73 #
coedge $-1 $187 $187 $188 $293 reversed $115 $-1 #
coedge $-1 $188 $188 $187 $293 forward $117 $-1 #
coedge $-1 $189 $189 $118 $190 forward $184 $-1 #
edge $-1 $294 -1.4699092834213325e-015 $294 6.2831853071795987 $189 $295 forward 7 unknown #
loop $-1 $-1 $196 $119 #
plane-surface $-1 -11.003930498469799 -45.944666545579253 1.2916847940793303 0 -0.71933980857756763 0.69465836192734942 1 0 0 forward_v I I I I #
loop $-1 $-1 $296 $76 #
coedge $-1 $194 $194 $195 $297 reversed $120 $-1 #
coedge $-1 $195 $195 $194 $297 forward $122 $-1 #
coedge $-1 $196 $196 $123 $197 forward $191 $-1 #
edge $-1 $298 -1.4699092834213325e-015 $298 6.2831853071795987 $196 $299 forward 7 unknown #
face $-1 $300 $301 $41 $-1 $302 reversed single #
loop $-1 $-1 $303 $124 #
plane-surface $-1 45.250207597903312 -150.22577818572998 101.99478133916487 1 0 0 0 0.71933980857756763 -0.69465836192734942 forward_v I I I I #
coedge $-1 $304 $305 $306 $307 reversed $125 $-1 #
coedge $-1 $203 $127 $308 $309 reversed $80 $-1 #
coedge $-1 $127 $202 $304 $310 reversed $80 $-1 #
coedge $-1 $306 $311 $127 $205 forward $312 $-1 #
edge $-1 $313 29.168222547285716 $314 44.231912355714847 $204 $315 forward 7 unknown #
loop $-1 $-1 $211 $128 #
plane-surface $-1 51.816363311579849 -45.944666545579253 1.2916847940793303 0 -0.71933980857756763 0.69465836192734942 1 0 0 forward_v I I I I #
loop $-1 $-1 $316 $82 #
coedge $-1 $209 $209 $210 $317 reversed $129 $-1 #
coedge $-1 $210 $210 $209 $317 forward $131 $-1 #
coedge $-1 $211 $211 $132 $212 forward $206 $-1 #
edge $-1 $318 -1.4699092834213325e-015 $318 6.2831853071795987 $211 $319 forward 7 unknown #
loop $-1 $-1 $218 $133 #
plane-surface $-1 51.816363311579849 -45.944666545579253 1.2916847940793303 0 -0.71933980857756763 0.69465836192734942 1 0 0 forward_v I I I I #
loop $-1 $-1 $320 $85 #
coedge $-1 $216 $216 $217 $321 reversed $134 $-1 #
coedge $-1 $217 $217 $216 $321 forward $136 $-1 #
coedge $-1 $218 $218 $137 $219 forward $213 $-1 #
edge $-1 $322 -1.4699092834213325e-015 $322 6.2831853071795987 $218 $323 forward 7 unknown #
face $-1 $324 $325 $33 $-1 $326 reversed single #
loop $-1 $-1 $327 $138 #
plane-surface $-1 -72.483901486251412 0 0 1 0 0 0 0 -1 forward_v I I I I #
coedge $-1 $328 $231 $327 $329 forward $139 $-1 #
coedge $-1 $330 $141 $328 $331 forward $89 $-1 #
coedge $-1 $141 $330 $332 $333 forward $89 $-1 #
coedge $-1 $234 $233 $141 $227 reversed $235 $-1 #
edge $-1 $334 -45.944666545579274 $335 45.944666545579274 $226 $336 forward 7 unknown #
coedge $-1 $143 $142 $337 $338 forward $56 $-1 #
coedge $-1 $339 $340 $142 $230 reversed $325 $-1 #
edge $-1 $237 -72.483901486251412 $341 72.483901486251412 $229 $342 forward 7 unknown #
coedge $-1 $223 $343 $143 $232 reversed $139 $-1 #
edge $-1 $344 -72.483901486251412 $236 72.483901486251412 $231 $345 forward 7 unknown #
coedge $-1 $226 $144 $343 $346 forward $235 $-1 #
coedge $-1 $144 $226 $339 $347 reversed $235 $-1 #
loop $-1 $-1 $233 $324 #
vertex $-1 $145 $348 #
vertex $-1 $145 $349 #
straight-curve $-1 72.483901486251412 0 16.890592598489409 0 1 0 I I #
face $-1 $350 $351 $34 $-1 $352 reversed single #
loop $-1 $-1 $353 $146 #
plane-surface $-1 -82.147509162453161 0 -15.925542404288873 0 0 1 1 0 0 forward_v I I I I #
coedge $-1 $354 $149 $355 $356 reversed $93 $-1 #
coedge $-1 $149 $354 $248 $357 reversed $93 $-1 #
edge $-1 $250 6.1002660810744418 $358 15.925542404288873 $149 $359 forward 7 unknown #
coedge $-1 $151 $150 $353 $360 forward $59 $-1 #
coedge $-1 $361 $362 $150 $247 forward $363 $-1 #
edge $-1 $364 -15.925542404288873 $251 -6.1002660810744418 $246 $365 forward 7 unknown #
coedge $-1 $366 $152 $243 $357 forward $147 $-1 #
coedge $-1 $152 $366 $361 $367 forward $147 $-1 #
vertex $-1 $244 $368 #
vertex $-1 $367 $369 #
straight-curve $-1 -72.483901486251412 0 -6.1002660810744418 0 -1 0 I I #
face $-1 $-1 $370 $35 $-1 $371 reversed single #
loop $-1 $-1 $160 $154 #
plane-surface $-1 0 0 16.890592598489409 0 0 1 1 0 0 forward_v I I I I #
coedge $-1 $372 $373 $374 $375 reversed $155 $-1 #
coedge $-1 $376 $157 $159 $263 forward $97 $-1 #
coedge $-1 $157 $376 $372 $377 forward $97 $-1 #
coedge $-1 $374 $160 $157 $260 forward $254 $-1 #
edge $-1 $266 -19.318391195632767 $378 11.584661141297385 $259 $379 forward 7 unknown #
coedge $-1 $380 $381 $158 $262 forward $370 $-1 #
edge $-1 $382 -77.860213375595208 $265 -68.824013906315443 $261 $383 forward 7 unknown #
edge $-1 $266 80.093412563701989 $382 91.889333091158576 $159 $384 forward 7 unknown #
coedge $-1 $160 $374 $380 $385 forward $254 $-1 #
vertex $-1 $262 $386 #
vertex $-1 $161 $387 #
straight-curve $-1 -23.185256222800458 48.965561889618684 16.890592598489405 0 -1 0 I I #
coedge $-1 $268 $268 $-1 $388 reversed $164 $-1 #
edge $-1 $389 0 $389 6.2831853071796004 $165 $390 forward 7 unknown #
vertex $-1 $168 $391 #
ellipse-curve $-1 -14.355812697963266 42.153530823877269 12.372492863849523 0 0.7660444514056185 0.64278759981090561 1.5 0 0 1 I I #
coedge $-1 $272 $272 $-1 $392 reversed $171 $-1 #
edge $-1 $393 0 $393 6.2831853071796004 $172 $394 forward 7 unknown #
vertex $-1 $175 $395 #
ellipse-curve $-1 -1.1116474107074907 42.153530823877269 12.372492863849523 0 0.7660444514056185 0.64278759981090561 1.5 0 0 1 I I #
face $-1 $-1 $288 $38 $-1 $396 forward single #
loop $-1 $-1 $397 $176 #
plane-surface $-1 0 -45.944666545579274 0 0 1 0 0 0 1 forward_v I I I I #
coedge $-1 $398 $399 $400 $401 reversed $177 $-1 #
coedge $-1 $402 $179 $181 $286 forward $111 $-1 #
coedge $-1 $179 $402 $398 $403 forward $111 $-1 #
coedge $-1 $400 $182 $179 $283 forward $288 $-1 #
edge $-1 $290 -1.0641904644416336 $404 12.068120962911433 $282 $405 forward 7 unknown #
coedge $-1 $406 $407 $180 $285 forward $277 $-1 #
edge $-1 $408 -49.705705875503128 $289 -34.106798071093024 $284 $409 forward 7 unknown #
edge $-1 $290 -21.685033440948544 $408 3.0620360423717574e-014 $181 $410 forward 7 unknown #
coedge $-1 $182 $400 $406 $411 forward $288 $-1 #
loop $-1 $-1 $400 $276 #
vertex $-1 $285 $412 #
vertex $-1 $183 $413 #
straight-curve $-1 -4.437774784793266 -75.112889092864989 16.890592598489413 0 1 0 I I #
coedge $-1 $292 $292 $-1 $414 reversed $186 $-1 #
edge $-1 $415 0 $415 6.2831853071796004 $187 $416 forward 7 unknown #
vertex $-1 $190 $417 #
ellipse-curve $-1 -13.817997232902592 -38.412821641364708 9.0911386962843572 0 -0.71933980857756763 0.69465836192734942 1.5 0 0 1 I I #
coedge $-1 $296 $296 $-1 $418 reversed $193 $-1 #
edge $-1 $419 0 $419 6.2831853071796004 $194 $420 forward 7 unknown #
vertex $-1 $197 $421 #
ellipse-curve $-1 -8.1898637640369856 -38.412821641364708 9.0911386962843572 0 -0.71933980857756763 0.69465836192734942 1.5 0 0 1 I I #
face $-1 $-1 $312 $41 $-1 $422 forward single #
loop $-1 $-1 $423 $198 #
plane-surface $-1 0 -45.944666545579274 0 0 1 0 0 0 1 forward_v I I I I #
coedge $-1 $424 $425 $426 $427 reversed $199 $-1 #
coedge $-1 $428 $201 $203 $310 forward $125 $-1 #
coedge $-1 $201 $428 $424 $429 forward $125 $-1 #
coedge $-1 $426 $204 $201 $307 forward $312 $-1 #
edge $-1 $314 -32.474337369466461 $430 -19.342025942113388 $306 $431 forward 7 unknown #
coedge $-1 $432 $433 $202 $309 forward $301 $-1 #
edge $-1 $434 -49.705705875503128 $313 -34.106798071093024 $308 $435 forward 7 unknown #
edge $-1 $314 -21.685033440948544 $434 3.0620360423717574e-014 $203 $436 forward 7 unknown #
coedge $-1 $204 $426 $432 $437 forward $312 $-1 #
loop $-1 $-1 $426 $300 #
vertex $-1 $309 $438 #
vertex $-1 $205 $439 #
straight-curve $-1 58.382519025256386 -75.112889092864989 16.890592598489413 0 1 0 I I #
coedge $-1 $316 $316 $-1 $440 reversed $208 $-1 #
edge $-1 $441 0 $441 6.2831853071796004 $209 $442 forward 7 unknown #
vertex $-1 $212 $443 #
ellipse-curve $-1 49.002296577147064 -38.412821641364708 9.0911386962843572 0 -0.71933980857756763 0.69465836192734942 1.5 0 0 1 I I #
coedge $-1 $320 $320 $-1 $444 reversed $215 $-1 #
edge $-1 $445 0 $445 6.2831853071796004 $216 $446 forward 7 unknown #
vertex $-1 $219 $447 #
ellipse-curve $-1 54.630430046012677 -38.412821641364708 9.0911386962843572 0 -0.71933980857756763 0.69465836192734942 1.5 0 0 1 I I #
face $-1 $-1 $235 $33 $-1 $448 reversed single #
loop $-1 $-1 $339 $220 #
plane-surface $-1 0 45.944666545579274 0 0 -1 0 0 0 -1 forward_v I I I I #
coedge $-1 $337 $449 $223 $329 reversed $221 $-1 #
coedge $-1 $343 $223 $224 $331 reversed $139 $-1 #
edge $-1 $344 -16.890592598489409 $450 16.890592598489409 $327 $451 forward 7 unknown #
coedge $-1 $225 $224 $449 $452 forward $89 $-1 #
edge $-1 $335 -72.483901486251412 $450 72.483901486251412 $328 $453 forward 7 unknown #
coedge $-1 $340 $339 $225 $333 reversed $325 $-1 #
edge $-1 $454 -72.483901486251412 $334 72.483901486251412 $332 $455 forward 7 unknown #
vertex $-1 $227 $456 #
vertex $-1 $346 $457 #
straight-curve $-1 72.483901486251412 0 -16.890592598489409 0 -1 0 I I #
coedge $-1 $458 $327 $228 $338 reversed $221 $-1 #
edge $-1 $341 -45.944666545579274 $344 45.944666545579274 $337 $459 forward 7 unknown #
coedge $-1 $332 $229 $234 $347 forward $325 $-1 #
coedge $-1 $229 $332 $458 $460 reversed $325 $-1 #
vertex $-1 $230 $461 #
straight-curve $-1 0 45.944666545579274 16.890592598489409 -1 0 0 I I #
coedge $-1 $231 $328 $233 $346 reversed $139 $-1 #
vertex $-1 $338 $462 #
straight-curve $-1 0 -45.944666545579274 16.890592598489409 1 0 0 I I #
edge $-1 $236 -16.890592598489409 $335 16.890592598489409 $233 $463 forward 7 unknown #
edge $-1 $237 -16.890592598489409 $334 16.890592598489409 $234 $464 forward 7 unknown #
point $-1 72.483901486251412 -45.944666545579274 16.890592598489409 #
point $-1 72.483901486251412 45.944666545579274 16.890592598489409 #
face $-1 $-1 $363 $34 $-1 $465 reversed single #
loop $-1 $-1 $466 $239 #
plane-surface $-1 -91.811116838654925 0 -11.012904242681657 1 0 0 0 0 -1 forward_v I I I I #
coedge $-1 $467 $355 $245 $360 reversed $240 $-1 #
coedge $-1 $243 $242 $466 $468 reversed $93 $-1 #
coedge $-1 $353 $469 $242 $356 forward $240 $-1 #
edge $-1 $470 -9.6636076762017638 $358 9.6636076762017638 $242 $471 forward 7 unknown #
edge $-1 $250 -9.6636076762017638 $472 9.6636076762017638 $243 $473 forward 7 unknown #
vertex $-1 $244 $474 #
straight-curve $-1 -72.483901486251412 45.944666545579274 0 0 0 -1 I I #
edge $-1 $364 -45.944666545579274 $358 45.944666545579274 $353 $475 forward 7 unknown #
coedge $-1 $476 $246 $249 $367 reversed $363 $-1 #
coedge $-1 $246 $476 $467 $477 reversed $363 $-1 #
loop $-1 $-1 $246 $350 #
vertex $-1 $247 $478 #
straight-curve $-1 -72.483901486251412 -45.944666545579274 0 0 0 1 I I #
coedge $-1 $249 $248 $479 $480 forward $147 $-1 #
edge $-1 $481 -9.6636076762017638 $251 9.6636076762017638 $361 $482 forward 7 unknown #
point $-1 -72.483901486251398 45.944666545579274 -6.1002660810744418 #
point $-1 -72.483901486251398 -45.944666545579274 -6.1002660810744418 #
loop $-1 $-1 $261 $253 #
plane-surface $-1 0 45.944666545579274 0 0 -1 0 0 0 -1 forward_v I I I I #
coedge $-1 $373 $256 $258 $377 reversed $155 $-1 #
coedge $-1 $256 $372 $483 $484 reversed $155 $-1 #
coedge $-1 $264 $259 $256 $375 forward $254 $-1 #
edge $-1 $378 -10.603166787443421 $485 -3.0208953440394097 $374 $486 forward 7 unknown #
coedge $-1 $258 $257 $381 $487 reversed $97 $-1 #
edge $-1 $488 -91.889333091158576 $378 -80.093412563701989 $372 $489 forward 7 unknown #
vertex $-1 $260 $490 #
straight-curve $-1 -3.866865027167691 38.362395102175256 16.890592598489405 1 0 0 I I #
coedge $-1 $483 $261 $264 $385 reversed $370 $-1 #
coedge $-1 $261 $483 $376 $487 forward $370 $-1 #
vertex $-1 $262 $491 #
straight-curve $-1 -23.185256222800458 45.944666545579274 85.714606504804848 0 0 1 I I #
straight-curve $-1 -23.185256222800458 -13.120657320311352 78.24570688705434 0 0.64278759981090561 -0.7660444514056185 I I #
edge $-1 $485 -7.717796114129694 $265 23.185256222800458 $380 $492 forward 7 unknown #
point $-1 -23.185256222800458 45.944666545579274 16.890592598489409 #
point $-1 -23.185256222800458 38.362395102175263 16.890592598489398 #
edge $-1 $493 1 $493 0 $268 $-1 forward 7 unknown #
vertex $-1 $269 $494 #
ellipse-curve $-1 -14.355812697963266 40.772490634727077 11.213662580832164 0 0.7660444514056185 0.64278759981090561 1.5 0 0 1 I I #
point $-1 -12.855812697963266 42.153530823877261 12.372492863849516 #
edge $-1 $495 1 $495 0 $272 $-1 forward 7 unknown #
vertex $-1 $273 $496 #
ellipse-curve $-1 -1.1116474107074907 40.772490634727077 11.213662580832164 0 0.7660444514056185 0.64278759981090561 1.5 0 0 1 I I #
point $-1 0.38835258929250926 42.153530823877261 12.372492863849516 #
plane-surface $-1 0 0 16.890592598489409 0 0 1 1 0 0 forward_v I I I I #
coedge $-1 $407 $406 $399 $497 forward $277 $-1 #
coedge $-1 $399 $279 $281 $403 reversed $177 $-1 #
coedge $-1 $279 $398 $397 $497 reversed $177 $-1 #
coedge $-1 $287 $282 $279 $401 forward $288 $-1 #
edge $-1 $404 -44.231912355714847 $498 -29.168222547285716 $400 $499 forward 7 unknown #
coedge $-1 $281 $280 $407 $500 reversed $111 $-1 #
edge $-1 $501 -3.0620360423717574e-014 $404 21.685033440948544 $398 $502 forward 7 unknown #
vertex $-1 $283 $503 #
straight-curve $-1 -5.5019652492348996 -30.880976737150139 16.890592598489409 -1 0 0 I I #
coedge $-1 $397 $284 $287 $411 reversed $277 $-1 #
coedge $-1 $284 $397 $402 $500 forward $277 $-1 #
vertex $-1 $285 $504 #
straight-curve $-1 -4.437774784793266 -45.944666545579274 50.997390669582437 0 0 1 I I #
straight-curve $-1 -4.437774784793266 -45.944666545579253 1.2916847940793303 0 -0.69465836192734942 -0.71933980857756763 I I #
edge $-1 $498 -17.570086212146332 $289 -4.437774784793266 $406 $505 forward 7 unknown #
point $-1 -4.437774784793266 -45.944666545579274 16.890592598489409 #
point $-1 -4.437774784793266 -30.880976737150142 16.890592598489409 #
edge $-1 $506 1 $506 0 $292 $-1 forward 7 unknown #
vertex $-1 $293 $507 #
ellipse-curve $-1 -13.817997232902592 -35.234637998444008 6.0220025008870381 0 -0.71933980857756763 0.69465836192734942 1.5 0 0 1 I I #
point $-1 -12.317997232902592 -38.412821641364722 9.0911386962843679 #
edge $-1 $508 1 $508 0 $296 $-1 forward 7 unknown #
vertex $-1 $297 $509 #
ellipse-curve $-1 -8.1898637640369856 -35.234637998444008 6.0220025008870381 0 -0.71933980857756763 0.69465836192734942 1.5 0 0 1 I I #
point $-1 -6.6898637640369856 -38.412821641364722 9.0911386962843679 #
plane-surface $-1 0 0 16.890592598489409 0 0 1 1 0 0 forward_v I I I I #
coedge $-1 $433 $432 $425 $510 forward $301 $-1 #
coedge $-1 $425 $303 $305 $429 reversed $199 $-1 #
coedge $-1 $303 $424 $423 $510 reversed $199 $-1 #
coedge $-1 $311 $306 $303 $427 forward $312 $-1 #
edge $-1 $430 -44.231912355714847 $511 -29.168222547285716 $426 $512 forward 7 unknown #
coedge $-1 $305 $304 $433 $513 reversed $125 $-1 #
edge $-1 $514 -3.0620360423717574e-014 $430 21.685033440948544 $424 $515 forward 7 unknown #
vertex $-1 $307 $516 #
straight-curve $-1 25.908181655789924 -30.880976737150139 16.890592598489409 -1 0 0 I I #
coedge $-1 $423 $308 $311 $437 reversed $301 $-1 #
coedge $-1 $308 $423 $428 $513 forward $301 $-1 #
vertex $-1 $309 $517 #
straight-curve $-1 58.382519025256386 -45.944666545579274 50.997390669582437 0 0 1 I I #
straight-curve $-1 58.382519025256386 -45.944666545579253 1.2916847940793303 0 -0.69465836192734942 -0.71933980857756763 I I #
edge $-1 $511 45.250207597903312 $313 58.382519025256386 $432 $518 forward 7 unknown #
point $-1 58.382519025256386 -45.944666545579274 16.890592598489409 #
point $-1 58.382519025256386 -30.880976737150142 16.890592598489409 #
edge $-1 $519 1 $519 0 $316 $-1 forward 7 unknown #
vertex $-1 $317 $520 #
ellipse-curve $-1 49.002296577147064 -35.234637998444008 6.0220025008870381 0 -0.71933980857756763 0.69465836192734942 1.5 0 0 1 I I #
point $-1 50.502296577147064 -38.412821641364722 9.0911386962843679 #
edge $-1 $521 1 $521 0 $320 $-1 forward 7 unknown #
vertex $-1 $321 $522 #
ellipse-curve $-1 54.630430046012677 -35.234637998444008 6.0220025008870381 0 -0.71933980857756763 0.69465836192734942 1.5 0 0 1 I I #
point $-1 56.130430046012677 -38.412821641364722 9.0911386962843679 #
plane-surface $-1 72.483901486251412 0 0 -1 0 0 0 0 1 forward_v I I I I #
coedge $-1 $327 $458 $330 $452 reversed $221 $-1 #
vertex $-1 $452 $523 #
straight-curve $-1 -72.483901486251412 -45.944666545579274 0 0 0 -1 I I #
edge $-1 $450 -45.944666545579274 $454 45.944666545579274 $449 $524 forward 7 unknown #
straight-curve $-1 0 -45.944666545579274 -16.890592598489409 -1 0 0 I I #
vertex $-1 $333 $525 #
straight-curve $-1 0 45.944666545579274 -16.890592598489409 1 0 0 I I #
point $-1 72.483901486251412 45.944666545579274 -16.890592598489409 #
point $-1 72.483901486251412 -45.944666545579274 -16.890592598489409 #
coedge $-1 $449 $337 $340 $460 forward $221 $-1 #
straight-curve $-1 -72.483901486251412 0 16.890592598489409 0 -1 0 I I #
edge $-1 $341 -16.890592598489409 $454 16.890592598489409 $340 $526 forward 7 unknown #
point $-1 -72.483901486251412 45.944666545579274 16.890592598489409 #
point $-1 -72.483901486251412 -45.944666545579274 16.890592598489409 #
straight-curve $-1 72.483901486251412 -45.944666545579274 0 0 0 -1 I I #
straight-curve $-1 72.483901486251412 45.944666545579274 0 0 0 -1 I I #
plane-surface $-1 0 -45.944666545579274 0 0 1 0 0 0 1 forward_v I I I I #
coedge $-1 $527 $479 $354 $468 forward $351 $-1 #
coedge $-1 $469 $353 $362 $477 forward $240 $-1 #
edge $-1 $472 -4.912638161607215 $470 4.9126381616072159 $354 $528 forward 7 unknown #
coedge $-1 $355 $467 $527 $529 forward $240 $-1 #
vertex $-1 $356 $530 #
straight-curve $-1 -82.147509162453161 45.944666545579274 -15.925542404288873 1 0 0 I I #
vertex $-1 $357 $531 #
straight-curve $-1 -82.147509162453161 45.944666545579274 -6.1002660810744418 -1 0 0 I I #
point $-1 -72.483901486251398 45.944666545579274 -15.925542404288873 #
straight-curve $-1 -72.483901486251412 0 -15.925542404288873 0 1 0 I I #
coedge $-1 $362 $361 $532 $533 forward $363 $-1 #
edge $-1 $364 -9.6636076762017638 $534 9.6636076762017638 $362 $535 forward 7 unknown #
point $-1 -72.483901486251398 -45.944666545579274 -15.925542404288873 #
coedge $-1 $466 $532 $366 $480 reversed $351 $-1 #
edge $-1 $472 -45.944666545579274 $481 45.944666545579274 $479 $536 forward 7 unknown #
vertex $-1 $480 $537 #
straight-curve $-1 -82.147509162453161 -45.944666545579274 -6.1002660810744418 1 0 0 I I #
coedge $-1 $381 $380 $373 $484 forward $370 $-1 #
edge $-1 $485 68.824013906315443 $488 77.860213375595208 $483 $538 forward 7 unknown #
vertex $-1 $385 $539 #
straight-curve $-1 7.717796114129694 48.965561889618684 16.890592598489405 0 1 0 I I #
edge $-1 $488 -11.584661141297385 $382 19.318391195632767 $381 $540 forward 7 unknown #
vertex $-1 $487 $541 #
straight-curve $-1 7.717796114129694 -13.120657320311352 78.24570688705434 0 -0.64278759981090561 0.7660444514056185 I I #
point $-1 7.717796114129694 38.362395102175263 16.890592598489398 #
point $-1 -23.185256222800458 45.944666545579274 7.8543931292096403 #
straight-curve $-1 0 45.944666545579274 16.890592598489409 -1 0 0 I I #
vertex $-1 $388 $542 #
point $-1 -12.855812697963266 40.772490634727077 11.213662580832164 #
vertex $-1 $392 $543 #
point $-1 0.38835258929250926 40.772490634727077 11.213662580832164 #
edge $-1 $498 34.106798071093024 $501 49.705705875503128 $397 $544 forward 7 unknown #
vertex $-1 $411 $545 #
straight-curve $-1 -17.570086212146332 -75.112889092864989 16.890592598489413 0 -1 0 I I #
edge $-1 $501 -12.068120962911433 $408 1.0641904644416336 $407 $546 forward 7 unknown #
vertex $-1 $500 $547 #
straight-curve $-1 -17.570086212146332 -45.944666545579253 1.2916847940793303 0 0.69465836192734942 0.71933980857756763 I I #
point $-1 -17.570086212146332 -30.880976737150142 16.890592598489409 #
point $-1 -4.437774784793266 -45.944666545579274 1.2916847940793084 #
straight-curve $-1 0 -45.944666545579274 16.890592598489409 1 0 0 I I #
vertex $-1 $414 $548 #
point $-1 -12.317997232902592 -35.234637998444008 6.0220025008870381 #
vertex $-1 $418 $549 #
point $-1 -6.6898637640369856 -35.234637998444008 6.0220025008870381 #
edge $-1 $511 34.106798071093024 $514 49.705705875503128 $423 $550 forward 7 unknown #
vertex $-1 $437 $551 #
straight-curve $-1 45.250207597903312 -75.112889092864989 16.890592598489413 0 -1 0 I I #
edge $-1 $514 19.342025942113388 $434 32.474337369466461 $433 $552 forward 7 unknown #
vertex $-1 $513 $553 #
straight-curve $-1 45.250207597903312 -45.944666545579253 1.2916847940793303 0 0.69465836192734942 0.71933980857756763 I I #
point $-1 45.250207597903312 -30.880976737150142 16.890592598489409 #
point $-1 58.382519025256386 -45.944666545579274 1.2916847940793084 #
straight-curve $-1 0 -45.944666545579274 16.890592598489409 1 0 0 I I #
vertex $-1 $440 $554 #
point $-1 50.502296577147064 -35.234637998444008 6.0220025008870381 #
vertex $-1 $444 $555 #
point $-1 56.130430046012677 -35.234637998444008 6.0220025008870381 #
point $-1 -72.483901486251412 -45.944666545579274 -16.890592598489409 #
straight-curve $-1 -72.483901486251412 0 -16.890592598489409 0 1 0 I I #
point $-1 -72.483901486251412 45.944666545579274 -16.890592598489409 #
straight-curve $-1 -72.483901486251412 45.944666545579274 0 0 0 -1 I I #
coedge $-1 $532 $466 $469 $529 reversed $351 $-1 #
straight-curve $-1 -91.811116838654925 45.944666545579274 -11.012904242681657 0 0 -1 I I #
edge $-1 $534 -45.944666545579274 $470 45.944666545579274 $527 $556 forward 7 unknown #
point $-1 -91.811116838654925 45.944666545579274 -15.925542404288873 #
point $-1 -91.811116838654925 45.944666545579274 -6.1002660810744418 #
coedge $-1 $479 $527 $476 $533 reversed $351 $-1 #
edge $-1 $481 -4.912638161607215 $534 4.9126381616072159 $532 $557 forward 7 unknown #
vertex $-1 $529 $558 #
straight-curve $-1 -82.147509162453161 -45.944666545579274 -15.925542404288873 -1 0 0 I I #
straight-curve $-1 -91.811116838654925 0 -6.1002660810744418 0 -1 0 I I #
point $-1 -91.811116838654925 -45.944666545579274 -6.1002660810744418 #
straight-curve $-1 7.717796114129694 45.944666545579274 85.714606504804848 0 0 -1 I I #
point $-1 7.717796114129694 45.944666545579274 16.890592598489409 #
straight-curve $-1 -3.866865027167691 45.944666545579267 7.8543931292096474 -1 0 0 I I #
point $-1 7.717796114129694 45.944666545579274 7.8543931292096403 #
point $-1 -14.355812697963266 39.623423957618655 10.249481181115804 #
point $-1 -1.1116474107074907 39.623423957618655 10.249481181115804 #
straight-curve $-1 -17.570086212146332 -45.944666545579274 50.997390669582437 0 0 -1 I I #
point $-1 -17.570086212146332 -45.944666545579274 16.890592598489409 #
straight-curve $-1 -5.5019652492348996 -45.944666545579274 1.2916847940793088 1 0 0 I I #
point $-1 -17.570086212146332 -45.944666545579274 1.2916847940793084 #
point $-1 -13.817997232902592 -34.155628285577656 4.9800149579960147 #
point $-1 -8.1898637640369856 -34.155628285577656 4.9800149579960147 #
straight-curve $-1 45.250207597903312 -45.944666545579274 50.997390669582437 0 0 -1 I I #
point $-1 45.250207597903312 -45.944666545579274 16.890592598489409 #
straight-curve $-1 25.908181655789924 -45.944666545579274 1.2916847940793088 1 0 0 I I #
point $-1 45.250207597903312 -45.944666545579274 1.2916847940793084 #
point $-1 49.002296577147064 -34.155628285577656 4.9800149579960147 #
point $-1 54.630430046012677 -34.155628285577656 4.9800149579960147 #
straight-curve $-1 -91.811116838654925 0 -15.925542404288873 0 1 0 I I #
straight-curve $-1 -91.811116838654925 -45.944666545579274 -11.012904242681657 0 0 -1 I I #
point $-1 -91.811116838654925 -45.944666545579274 -15.925542404288873 #
End-of-ACIS-data 