500 0 16 0           
7 Unknown 11 ACIS 5.0 NT 24 Thu Mar 25 20:41:34 1999 
-1 9.9999999999999995e-007 1e-010 
body $-1 $16 $-1 $17 #
body $-1 $18 $-1 $19 #
body $-1 $20 $-1 $21 #
body $-1 $22 $-1 $23 #
body $-1 $24 $-1 $25 #
body $-1 $26 $-1 $27 #
body $-1 $28 $-1 $29 #
body $-1 $30 $-1 $31 #
body $-1 $32 $-1 $33 #
body $-1 $34 $-1 $35 #
body $-1 $36 $-1 $37 #
body $-1 $38 $-1 $39 #
body $-1 $40 $-1 $41 #
body $-1 $42 $-1 $43 #
body $-1 $44 $-1 $45 #
body $-1 $46 $-1 $47 #
lump $-1 $-1 $48 $0 #
transform $-1 1 0 0 0 1 0 0 0 1 47.610095522934657 30.508994406972505 13.796970428234482 1 rotate no_reflect no_shear #
lump $-1 $-1 $49 $1 #
transform $-1 1 0 0 0 1 0 0 0 1 47.610095522934657 30.508994406972505 13.796970428234482 1 rotate no_reflect no_shear #
lump $-1 $-1 $50 $2 #
transform $-1 1 0 0 0 1 0 0 0 1 47.610095522934657 30.508994406972505 13.796970428234482 1 rotate no_reflect no_shear #
lump $-1 $-1 $51 $3 #
transform $-1 1 0 0 0 1 0 0 0 1 47.610095522934657 30.508994406972505 13.796970428234482 1 rotate no_reflect no_shear #
lump $-1 $-1 $52 $4 #
transform $-1 1 0 0 0 1 0 0 0 1 47.610095522934657 30.508994406972505 13.796970428234482 1 rotate no_reflect no_shear #
lump $-1 $-1 $53 $5 #
transform $-1 1 0 0 0 1 0 0 0 1 47.610095522934657 30.508994406972505 13.796970428234482 1 rotate no_reflect no_shear #
lump $-1 $-1 $54 $6 #
transform $-1 1 0 0 0 1 0 0 0 1 47.610095522934657 30.508994406972505 13.796970428234482 1 rotate no_reflect no_shear #
lump $-1 $-1 $55 $7 #
transform $-1 1 0 0 0 1 0 0 0 1 47.610095522934657 30.508994406972505 13.796970428234482 1 rotate no_reflect no_shear #
lump $-1 $-1 $56 $8 #
transform $-1 1 0 0 0 1 0 0 0 1 47.610095522934657 30.508994406972505 13.796970428234482 1 rotate no_reflect no_shear #
lump $-1 $-1 $57 $9 #
transform $-1 1 0 0 0 1 0 0 0 1 47.610095522934657 30.508994406972505 13.796970428234482 1 rotate no_reflect no_shear #
lump $-1 $-1 $58 $10 #
transform $-1 1 0 0 0 1 0 0 0 1 47.610095522934657 30.508994406972505 13.796970428234482 1 rotate no_reflect no_shear #
lump $-1 $-1 $59 $11 #
transform $-1 1 0 0 0 1 0 0 0 1 47.610095522934657 30.508994406972505 13.796970428234482 1 rotate no_reflect no_shear #
lump $-1 $-1 $60 $12 #
transform $-1 1 0 0 0 1 0 0 0 1 47.610095522934657 30.508994406972505 13.796970428234482 1 rotate no_reflect no_shear #
lump $-1 $-1 $61 $13 #
transform $-1 1 0 0 0 1 0 0 0 1 47.610095522934657 30.508994406972505 13.796970428234482 1 rotate no_reflect no_shear #
lump $-1 $-1 $62 $14 #
transform $-1 1 0 0 0 1 0 0 0 1 47.610095522934657 30.508994406972505 13.796970428234482 1 rotate no_reflect no_shear #
lump $-1 $-1 $63 $15 #
transform $-1 1 0 0 0 1 0 0 0 1 47.610095522934657 30.508994406972505 13.796970428234482 1 rotate no_reflect no_shear #
shell $-1 $-1 $-1 $64 $-1 $16 #
shell $-1 $-1 $-1 $65 $-1 $18 #
shell $-1 $-1 $-1 $66 $-1 $20 #
shell $-1 $-1 $-1 $67 $-1 $22 #
shell $-1 $-1 $-1 $68 $-1 $24 #
shell $-1 $-1 $-1 $69 $-1 $26 #
shell $-1 $-1 $-1 $70 $-1 $28 #
shell $-1 $-1 $-1 $71 $-1 $30 #
shell $-1 $-1 $-1 $72 $-1 $32 #
shell $-1 $-1 $-1 $73 $-1 $34 #
shell $-1 $-1 $-1 $74 $-1 $36 #
shell $-1 $-1 $-1 $75 $-1 $38 #
shell $-1 $-1 $-1 $76 $-1 $40 #
shell $-1 $-1 $-1 $77 $-1 $42 #
shell $-1 $-1 $-1 $78 $-1 $44 #
shell $-1 $-1 $-1 $79 $-1 $46 #
face $-1 $80 $81 $48 $-1 $82 forward single #
face $-1 $83 $84 $49 $-1 $85 reversed single #
face $-1 $86 $87 $50 $-1 $88 forward single #
face $-1 $89 $90 $51 $-1 $91 forward single #
face $-1 $92 $93 $52 $-1 $94 reversed single #
face $-1 $95 $96 $53 $-1 $97 forward single #
face $-1 $98 $99 $54 $-1 $100 forward single #
face $-1 $101 $102 $55 $-1 $103 reversed single #
face $-1 $104 $105 $56 $-1 $106 forward single #
face $-1 $107 $108 $57 $-1 $109 forward single #
face $-1 $110 $111 $58 $-1 $112 reversed single #
face $-1 $113 $114 $59 $-1 $115 forward single #
face $-1 $116 $117 $60 $-1 $118 forward single #
face $-1 $119 $120 $61 $-1 $121 reversed single #
face $-1 $122 $123 $62 $-1 $124 forward single #
face $-1 $125 $126 $63 $-1 $127 forward single #
face $-1 $128 $129 $48 $-1 $130 reversed single #
loop $-1 $-1 $131 $64 #
plane-surface $-1 0 0 13.796970428234482 0 0 1 1 0 0 forward_v I I I I #
face $-1 $132 $133 $49 $-1 $134 reversed single #
loop $-1 $-1 $135 $65 #
plane-surface $-1 52.309722205961037 -19.078393632738116 140.52891017875908 0 -1 0 -0.73135370988377701 0 -0.68199835119979291 forward_v I I I I #
face $-1 $136 $137 $50 $-1 $138 forward single #
loop $-1 $139 $140 $66 #
cone-surface $-1 43.585363131916765 -24.614782047046134 9.5321144921715515 -0.73135370988377701 0 -0.68199835119979291 0.34099917559989645 0 -0.36567685494188851 1 I I 0 1 0.5 forward I I I I #
face $-1 $141 $142 $51 $-1 $143 forward single #
loop $-1 $144 $145 $67 #
cone-surface $-1 43.585363131916765 -21.292948998461323 9.5321144921715515 -0.73135370988377701 0 -0.68199835119979291 0.34099917559989645 0 -0.36567685494188851 1 I I 0 1 0.5 forward I I I I #
face $-1 $146 $147 $52 $-1 $148 reversed single #
loop $-1 $-1 $149 $68 #
plane-surface $-1 52.309722205961037 -3.7758166175689594 140.52891017875908 0 -1 0 -0.73135370988377701 0 -0.68199835119979291 forward_v I I I I #
face $-1 $150 $151 $53 $-1 $152 forward single #
loop $-1 $153 $154 $69 #
cone-surface $-1 43.585363131916765 -9.312205031876978 9.5321144921715515 -0.73135370988377701 0 -0.68199835119979291 0.34099917559989645 0 -0.36567685494188851 1 I I 0 1 0.5 forward I I I I #
face $-1 $155 $156 $54 $-1 $157 forward single #
loop $-1 $158 $159 $70 #
cone-surface $-1 43.585363131916765 -5.9903719832921674 9.5321144921715515 -0.73135370988377701 0 -0.68199835119979291 0.34099917559989645 0 -0.36567685494188851 1 I I 0 1 0.5 forward I I I I #
face $-1 $160 $161 $55 $-1 $162 reversed single #
loop $-1 $-1 $163 $71 #
plane-surface $-1 52.309722205961037 11.526760397600196 140.52891017875908 0 -1 0 -0.73135370988377701 0 -0.68199835119979291 forward_v I I I I #
face $-1 $164 $165 $56 $-1 $166 forward single #
loop $-1 $167 $168 $72 #
cone-surface $-1 43.585363131916765 5.990371983292178 9.5321144921715515 -0.73135370988377701 0 -0.68199835119979291 0.34099917559989645 0 -0.36567685494188851 1 I I 0 1 0.5 forward I I I I #
face $-1 $169 $170 $57 $-1 $171 forward single #
loop $-1 $172 $173 $73 #
cone-surface $-1 43.585363131916765 9.3122050318769851 9.5321144921715515 -0.73135370988377701 0 -0.68199835119979291 0.34099917559989645 0 -0.36567685494188851 1 I I 0 1 0.5 forward I I I I #
face $-1 $174 $175 $58 $-1 $176 reversed single #
loop $-1 $-1 $177 $74 #
plane-surface $-1 52.309722205961037 26.829337412769352 140.52891017875908 0 -1 0 -0.73135370988377701 0 -0.68199835119979291 forward_v I I I I #
face $-1 $178 $179 $59 $-1 $180 forward single #
loop $-1 $181 $182 $75 #
cone-surface $-1 43.585363131916765 21.292948998461334 9.5321144921715515 -0.73135370988377701 0 -0.68199835119979291 0.34099917559989645 0 -0.36567685494188851 1 I I 0 1 0.5 forward I I I I #
face $-1 $183 $184 $60 $-1 $185 forward single #
loop $-1 $186 $187 $76 #
cone-surface $-1 43.585363131916765 24.614782047046141 9.5321144921715515 -0.73135370988377701 0 -0.68199835119979291 0.34099917559989645 0 -0.36567685494188851 1 I I 0 1 0.5 forward I I I I #
face $-1 $188 $189 $61 $-1 $190 reversed single #
loop $-1 $-1 $191 $77 #
plane-surface $-1 -111.32484046135286 -21.962278260225993 74.548761609488281 0 1 0 -0.66913061440640931 0 0.74314481823134659 forward_v I I I I #
face $-1 $192 $193 $62 $-1 $194 forward single #
loop $-1 $195 $196 $78 #
cone-surface $-1 -40.985289562623691 -17.22910045252106 7.6079160860385402 0.66913061440640931 0 -0.74314481823134659 0.74314481823134659 0 0.66913061440640931 1 I I 0 1 1 forward I I I I #
face $-1 $197 $198 $63 $-1 $199 forward single #
loop $-1 $200 $201 $79 #
cone-surface $-1 -40.985289562623691 -10.129333740963663 7.6079160860385402 0.66913061440640931 0 -0.74314481823134659 0.74314481823134659 0 0.66913061440640931 1 I I 0 1 1 forward I I I I #
face $-1 $202 $203 $48 $-1 $204 reversed single #
loop $-1 $-1 $205 $80 #
plane-surface $-1 0 0 -13.796970428234482 0 0 1 1 0 0 forward_v I I I I #
coedge $-1 $206 $207 $208 $209 forward $81 $-1 #
face $-1 $210 $211 $49 $-1 $212 reversed single #
loop $-1 $-1 $213 $83 #
plane-surface $-1 -17.329917771277493 -22.95386552275373 75.588896884546926 0.73135370988377701 0 0.68199835119979291 0.68199835119979291 0 -0.73135370988377701 forward_v I I I I #
coedge $-1 $214 $215 $216 $217 reversed $84 $-1 #
face $-1 $-1 $218 $50 $-1 $219 forward single #
loop $-1 $220 $221 $86 #
cone-surface $-1 43.036847849503928 -24.614782047046134 9.0206157287717073 -0.73135370988377701 0 -0.68199835119979291 0.17049958779994823 0 -0.18283842747094425 1 I I -0.70710678118654746 0.70710678118654746 0.25 forward I I I I #
loop $-1 $-1 $222 $66 #
coedge $-1 $140 $140 $223 $224 reversed $87 $-1 #
face $-1 $-1 $225 $51 $-1 $226 forward single #
loop $-1 $227 $228 $89 #
cone-surface $-1 43.036847849503928 -21.292948998461323 9.0206157287717073 -0.73135370988377701 0 -0.68199835119979291 0.17049958779994823 0 -0.18283842747094425 1 I I -0.70710678118654746 0.70710678118654746 0.25 forward I I I I #
loop $-1 $-1 $229 $67 #
coedge $-1 $145 $145 $230 $231 reversed $90 $-1 #
face $-1 $232 $233 $52 $-1 $234 reversed single #
loop $-1 $-1 $235 $92 #
plane-surface $-1 -17.329917771277493 -7.6512885075845745 75.588896884546926 0.73135370988377701 0 0.68199835119979291 0.68199835119979291 0 -0.73135370988377701 forward_v I I I I #
coedge $-1 $236 $237 $238 $239 reversed $93 $-1 #
face $-1 $-1 $240 $53 $-1 $241 forward single #
loop $-1 $242 $243 $95 #
cone-surface $-1 43.036847849503928 -9.312205031876978 9.0206157287717073 -0.73135370988377701 0 -0.68199835119979291 0.17049958779994823 0 -0.18283842747094425 1 I I -0.70710678118654746 0.70710678118654746 0.25 forward I I I I #
loop $-1 $-1 $244 $69 #
coedge $-1 $154 $154 $245 $246 reversed $96 $-1 #
face $-1 $-1 $247 $54 $-1 $248 forward single #
loop $-1 $249 $250 $98 #
cone-surface $-1 43.036847849503928 -5.9903719832921674 9.0206157287717073 -0.73135370988377701 0 -0.68199835119979291 0.17049958779994823 0 -0.18283842747094425 1 I I -0.70710678118654746 0.70710678118654746 0.25 forward I I I I #
loop $-1 $-1 $251 $70 #
coedge $-1 $159 $159 $252 $253 reversed $99 $-1 #
face $-1 $254 $255 $55 $-1 $256 reversed single #
loop $-1 $-1 $257 $101 #
plane-surface $-1 -17.329917771277493 7.6512885075845816 75.588896884546926 0.73135370988377701 0 0.68199835119979291 0.68199835119979291 0 -0.73135370988377701 forward_v I I I I #
coedge $-1 $258 $259 $260 $261 reversed $102 $-1 #
face $-1 $-1 $262 $56 $-1 $263 forward single #
loop $-1 $264 $265 $104 #
cone-surface $-1 43.036847849503928 5.990371983292178 9.0206157287717073 -0.73135370988377701 0 -0.68199835119979291 0.17049958779994823 0 -0.18283842747094425 1 I I -0.70710678118654746 0.70710678118654746 0.25 forward I I I I #
loop $-1 $-1 $266 $72 #
coedge $-1 $168 $168 $267 $268 reversed $105 $-1 #
face $-1 $-1 $269 $57 $-1 $270 forward single #
loop $-1 $271 $272 $107 #
cone-surface $-1 43.036847849503928 9.3122050318769851 9.0206157287717073 -0.73135370988377701 0 -0.68199835119979291 0.17049958779994823 0 -0.18283842747094425 1 I I -0.70710678118654746 0.70710678118654746 0.25 forward I I I I #
loop $-1 $-1 $273 $73 #
coedge $-1 $173 $173 $274 $275 reversed $108 $-1 #
face $-1 $276 $277 $58 $-1 $278 reversed single #
loop $-1 $-1 $279 $110 #
plane-surface $-1 -17.329917771277493 22.953865522753738 75.588896884546926 0.73135370988377701 0 0.68199835119979291 0.68199835119979291 0 -0.73135370988377701 forward_v I I I I #
coedge $-1 $280 $281 $282 $283 reversed $111 $-1 #
face $-1 $-1 $284 $59 $-1 $285 forward single #
loop $-1 $286 $287 $113 #
cone-surface $-1 43.036847849503928 21.292948998461334 9.0206157287717073 -0.73135370988377701 0 -0.68199835119979291 0.17049958779994823 0 -0.18283842747094425 1 I I -0.70710678118654746 0.70710678118654746 0.25 forward I I I I #
loop $-1 $-1 $288 $75 #
coedge $-1 $182 $182 $289 $290 reversed $114 $-1 #
face $-1 $-1 $291 $60 $-1 $292 forward single #
loop $-1 $293 $294 $116 #
cone-surface $-1 43.036847849503928 24.614782047046141 9.0206157287717073 -0.73135370988377701 0 -0.68199835119979291 0.17049958779994823 0 -0.18283842747094425 1 I I -0.70710678118654746 0.70710678118654746 0.25 forward I I I I #
loop $-1 $-1 $295 $76 #
coedge $-1 $187 $187 $296 $297 reversed $117 $-1 #
face $-1 $298 $299 $61 $-1 $300 reversed single #
loop $-1 $-1 $301 $119 #
plane-surface $-1 -47.610095522934657 -13.679217096742363 3.7863700427516278 -0.66913061440640931 0 0.74314481823134659 0.74314481823134659 0 0.66913061440640931 forward_v I I I I #
coedge $-1 $302 $303 $304 $305 reversed $120 $-1 #
face $-1 $-1 $306 $62 $-1 $307 forward single #
loop $-1 $308 $309 $122 #
cone-surface $-1 -39.584867208585706 -17.22910045252106 6.0525895274683545 0.66913061440640931 0 -0.74314481823134659 0.3715724091156733 0 0.33456530720320465 1 I I -0.70710678118654746 0.70710678118654746 0.5 forward I I I I #
loop $-1 $-1 $310 $78 #
coedge $-1 $196 $196 $311 $312 reversed $123 $-1 #
face $-1 $-1 $313 $63 $-1 $314 forward single #
loop $-1 $315 $316 $125 #
cone-surface $-1 -39.584867208585706 -10.129333740963663 6.0525895274683545 0.66913061440640931 0 -0.74314481823134659 0.3715724091156733 0 0.33456530720320465 1 I I -0.70710678118654746 0.70710678118654746 0.5 forward I I I I #
loop $-1 $-1 $317 $79 #
coedge $-1 $201 $201 $318 $319 reversed $126 $-1 #
face $-1 $320 $321 $48 $-1 $322 reversed single #
loop $-1 $-1 $323 $128 #
plane-surface $-1 0 -30.508994406972505 0 0 1 0 0 0 1 forward_v I I I I #
coedge $-1 $324 $325 $326 $327 forward $129 $-1 #
coedge $-1 $328 $131 $329 $330 forward $81 $-1 #
coedge $-1 $131 $328 $331 $332 forward $81 $-1 #
coedge $-1 $333 $334 $131 $209 reversed $335 $-1 #
edge $-1 $336 -30.508994406972505 $337 30.508994406972505 $208 $338 forward 7 unknown #
face $-1 $339 $340 $49 $-1 $341 forward single #
loop $-1 $-1 $342 $132 #
plane-surface $-1 52.309722205961037 -26.829337412769345 140.52891017875908 0 1 0 0.73135370988377701 0 0.68199835119979291 forward_v I I I I #
coedge $-1 $343 $344 $345 $346 reversed $133 $-1 #
coedge $-1 $215 $135 $347 $348 reversed $84 $-1 #
coedge $-1 $135 $214 $343 $349 reversed $84 $-1 #
coedge $-1 $345 $350 $135 $217 forward $340 $-1 #
edge $-1 $351 -21.455234419954138 $352 -14.137123347802145 $216 $353 forward 7 unknown #
loop $-1 $-1 $223 $136 #
plane-surface $-1 -17.329917771277493 -22.95386552275373 75.588896884546926 0.73135370988377701 0 0.68199835119979291 0.68199835119979291 0 -0.73135370988377701 forward_v I I I I #
loop $-1 $-1 $354 $86 #
coedge $-1 $221 $221 $222 $355 reversed $137 $-1 #
coedge $-1 $222 $222 $221 $355 forward $139 $-1 #
coedge $-1 $223 $223 $140 $224 forward $218 $-1 #
edge $-1 $356 0 $356 6.2831853071796004 $223 $357 forward 7 unknown #
loop $-1 $-1 $230 $141 #
plane-surface $-1 -17.329917771277493 -22.95386552275373 75.588896884546926 0.73135370988377701 0 0.68199835119979291 0.68199835119979291 0 -0.73135370988377701 forward_v I I I I #
loop $-1 $-1 $358 $89 #
coedge $-1 $228 $228 $229 $359 reversed $142 $-1 #
coedge $-1 $229 $229 $228 $359 forward $144 $-1 #
coedge $-1 $230 $230 $145 $231 forward $225 $-1 #
edge $-1 $360 0 $360 6.2831853071796004 $230 $361 forward 7 unknown #
face $-1 $362 $363 $52 $-1 $364 reversed single #
loop $-1 $-1 $365 $146 #
plane-surface $-1 52.309722205961037 -11.526760397600189 140.52891017875908 0 1 0 0.73135370988377701 0 0.68199835119979291 forward_v I I I I #
coedge $-1 $366 $367 $368 $369 reversed $147 $-1 #
coedge $-1 $237 $149 $370 $371 reversed $93 $-1 #
coedge $-1 $149 $236 $366 $372 reversed $93 $-1 #
coedge $-1 $368 $373 $149 $239 forward $374 $-1 #
edge $-1 $375 -21.455234419954138 $376 -14.137123347802145 $238 $377 forward 7 unknown #
loop $-1 $-1 $245 $150 #
plane-surface $-1 -17.329917771277493 -7.6512885075845745 75.588896884546926 0.73135370988377701 0 0.68199835119979291 0.68199835119979291 0 -0.73135370988377701 forward_v I I I I #
loop $-1 $-1 $378 $95 #
coedge $-1 $243 $243 $244 $379 reversed $151 $-1 #
coedge $-1 $244 $244 $243 $379 forward $153 $-1 #
coedge $-1 $245 $245 $154 $246 forward $240 $-1 #
edge $-1 $380 0 $380 6.2831853071796004 $245 $381 forward 7 unknown #
loop $-1 $-1 $252 $155 #
plane-surface $-1 -17.329917771277493 -7.6512885075845745 75.588896884546926 0.73135370988377701 0 0.68199835119979291 0.68199835119979291 0 -0.73135370988377701 forward_v I I I I #
loop $-1 $-1 $382 $98 #
coedge $-1 $250 $250 $251 $383 reversed $156 $-1 #
coedge $-1 $251 $251 $250 $383 forward $158 $-1 #
coedge $-1 $252 $252 $159 $253 forward $247 $-1 #
edge $-1 $384 0 $384 6.2831853071796004 $252 $385 forward 7 unknown #
face $-1 $386 $387 $55 $-1 $388 reversed single #
loop $-1 $-1 $389 $160 #
plane-surface $-1 52.309722205961037 3.7758166175689665 140.52891017875908 0 1 0 0.73135370988377701 0 0.68199835119979291 forward_v I I I I #
coedge $-1 $390 $391 $392 $393 reversed $161 $-1 #
coedge $-1 $259 $163 $394 $395 reversed $102 $-1 #
coedge $-1 $163 $258 $390 $396 reversed $102 $-1 #
coedge $-1 $392 $397 $163 $261 forward $398 $-1 #
edge $-1 $399 -21.455234419954138 $400 -14.137123347802145 $260 $401 forward 7 unknown #
loop $-1 $-1 $267 $164 #
plane-surface $-1 -17.329917771277493 7.6512885075845816 75.588896884546926 0.73135370988377701 0 0.68199835119979291 0.68199835119979291 0 -0.73135370988377701 forward_v I I I I #
loop $-1 $-1 $402 $104 #
coedge $-1 $265 $265 $266 $403 reversed $165 $-1 #
coedge $-1 $266 $266 $265 $403 forward $167 $-1 #
coedge $-1 $267 $267 $168 $268 forward $262 $-1 #
edge $-1 $404 0 $404 6.2831853071796004 $267 $405 forward 7 unknown #
loop $-1 $-1 $274 $169 #
plane-surface $-1 -17.329917771277493 7.6512885075845816 75.588896884546926 0.73135370988377701 0 0.68199835119979291 0.68199835119979291 0 -0.73135370988377701 forward_v I I I I #
loop $-1 $-1 $406 $107 #
coedge $-1 $272 $272 $273 $407 reversed $170 $-1 #
coedge $-1 $273 $273 $272 $407 forward $172 $-1 #
coedge $-1 $274 $274 $173 $275 forward $269 $-1 #
edge $-1 $408 0 $408 6.2831853071796004 $274 $409 forward 7 unknown #
face $-1 $410 $411 $58 $-1 $412 reversed single #
loop $-1 $-1 $413 $174 #
plane-surface $-1 52.309722205961037 19.078393632738123 140.52891017875908 0 1 0 0.73135370988377701 0 0.68199835119979291 forward_v I I I I #
coedge $-1 $414 $415 $416 $417 reversed $175 $-1 #
coedge $-1 $281 $177 $418 $419 reversed $111 $-1 #
coedge $-1 $177 $280 $414 $420 reversed $111 $-1 #
coedge $-1 $416 $421 $177 $283 forward $422 $-1 #
edge $-1 $423 -21.455234419954138 $424 -14.137123347802145 $282 $425 forward 7 unknown #
loop $-1 $-1 $289 $178 #
plane-surface $-1 -17.329917771277493 22.953865522753738 75.588896884546926 0.73135370988377701 0 0.68199835119979291 0.68199835119979291 0 -0.73135370988377701 forward_v I I I I #
loop $-1 $-1 $426 $113 #
coedge $-1 $287 $287 $288 $427 reversed $179 $-1 #
coedge $-1 $288 $288 $287 $427 forward $181 $-1 #
coedge $-1 $289 $289 $182 $290 forward $284 $-1 #
edge $-1 $428 0 $428 6.2831853071796004 $289 $429 forward 7 unknown #
loop $-1 $-1 $296 $183 #
plane-surface $-1 -17.329917771277493 22.953865522753738 75.588896884546926 0.73135370988377701 0 0.68199835119979291 0.68199835119979291 0 -0.73135370988377701 forward_v I I I I #
loop $-1 $-1 $430 $116 #
coedge $-1 $294 $294 $295 $431 reversed $184 $-1 #
coedge $-1 $295 $295 $294 $431 forward $186 $-1 #
coedge $-1 $296 $296 $187 $297 forward $291 $-1 #
edge $-1 $432 0 $432 6.2831853071796004 $296 $433 forward 7 unknown #
face $-1 $434 $435 $61 $-1 $436 reversed single #
loop $-1 $-1 $437 $188 #
plane-surface $-1 -111.32484046135286 -5.3961559332587328 74.548761609488281 0 -1 0 0.66913061440640931 0 -0.74314481823134659 forward_v I I I I #
coedge $-1 $438 $439 $440 $441 reversed $189 $-1 #
coedge $-1 $303 $191 $442 $443 reversed $120 $-1 #
coedge $-1 $191 $302 $438 $444 reversed $120 $-1 #
coedge $-1 $440 $445 $191 $305 forward $446 $-1 #
edge $-1 $447 8.052324707741775 $448 19.170222534694119 $304 $449 forward 7 unknown #
loop $-1 $-1 $311 $192 #
plane-surface $-1 -47.610095522934657 -13.679217096742363 3.7863700427516278 -0.66913061440640931 0 0.74314481823134659 0.74314481823134659 0 0.66913061440640931 forward_v I I I I #
loop $-1 $-1 $450 $122 #
coedge $-1 $309 $309 $310 $451 reversed $193 $-1 #
coedge $-1 $310 $310 $309 $451 forward $195 $-1 #
coedge $-1 $311 $311 $196 $312 forward $306 $-1 #
edge $-1 $452 0 $452 6.2831853071796004 $311 $453 forward 7 unknown #
loop $-1 $-1 $318 $197 #
plane-surface $-1 -47.610095522934657 -13.679217096742363 3.7863700427516278 -0.66913061440640931 0 0.74314481823134659 0.74314481823134659 0 0.66913061440640931 forward_v I I I I #
loop $-1 $-1 $454 $125 #
coedge $-1 $316 $316 $317 $455 reversed $198 $-1 #
coedge $-1 $317 $317 $316 $455 forward $200 $-1 #
coedge $-1 $318 $318 $201 $319 forward $313 $-1 #
edge $-1 $456 0 $456 6.2831853071796004 $318 $457 forward 7 unknown #
face $-1 $458 $459 $48 $-1 $460 reversed single #
loop $-1 $-1 $461 $202 #
plane-surface $-1 -47.610095522934657 0 0 1 0 0 0 0 -1 forward_v I I I I #
coedge $-1 $462 $331 $463 $464 forward $203 $-1 #
coedge $-1 $465 $205 $462 $466 forward $129 $-1 #
coedge $-1 $205 $465 $467 $468 forward $129 $-1 #
coedge $-1 $334 $333 $205 $327 reversed $335 $-1 #
edge $-1 $469 -30.508994406972505 $470 30.508994406972505 $326 $471 forward 7 unknown #
coedge $-1 $207 $206 $472 $473 forward $81 $-1 #
coedge $-1 $474 $475 $206 $330 reversed $459 $-1 #
edge $-1 $337 -47.610095522934657 $476 47.610095522934657 $329 $477 forward 7 unknown #
coedge $-1 $323 $478 $207 $332 reversed $203 $-1 #
edge $-1 $479 -47.610095522934657 $336 47.610095522934657 $331 $480 forward 7 unknown #
coedge $-1 $326 $208 $478 $481 forward $335 $-1 #
coedge $-1 $208 $326 $474 $482 reversed $335 $-1 #
loop $-1 $-1 $333 $458 #
vertex $-1 $209 $483 #
vertex $-1 $209 $484 #
straight-curve $-1 47.610095522934657 0 13.796970428234482 0 1 0 I I #
face $-1 $-1 $485 $49 $-1 $486 reversed single #
loop $-1 $-1 $216 $210 #
plane-surface $-1 0 0 13.796970428234482 0 0 1 1 0 0 forward_v I I I I #
coedge $-1 $487 $488 $489 $490 reversed $211 $-1 #
coedge $-1 $491 $213 $215 $349 forward $133 $-1 #
coedge $-1 $213 $491 $487 $492 forward $133 $-1 #
coedge $-1 $489 $216 $213 $346 forward $340 $-1 #
edge $-1 $352 7.601460871361251 $493 15.352404651392479 $345 $494 forward 7 unknown #
coedge $-1 $495 $496 $214 $348 forward $485 $-1 #
edge $-1 $497 -64.315198182071128 $351 -56.467484661145058 $347 $498 forward 7 unknown #
edge $-1 $352 84.489796963130331 $497 95.220191045869299 $215 $499 forward 7 unknown #
coedge $-1 $216 $489 $495 $500 forward $340 $-1 #
vertex $-1 $348 $501 #
vertex $-1 $217 $502 #
straight-curve $-1 26.154861102980519 -19.078393632738116 13.796970428234481 -1 0 0 I I #
coedge $-1 $354 $354 $-1 $503 reversed $220 $-1 #
edge $-1 $504 0 $504 6.2831853071796004 $221 $505 forward 7 unknown #
vertex $-1 $224 $506 #
ellipse-curve $-1 43.951039986858646 -24.614782047046134 9.8731136677714435 0.73135370988377701 0 0.68199835119979291 0.34099917559989645 0 -0.36567685494188851 1 I I #
coedge $-1 $358 $358 $-1 $507 reversed $227 $-1 #
edge $-1 $508 0 $508 6.2831853071796004 $228 $509 forward 7 unknown #
vertex $-1 $231 $510 #
ellipse-curve $-1 43.951039986858646 -21.292948998461323 9.8731136677714435 0.73135370988377701 0 0.68199835119979291 0.34099917559989645 0 -0.36567685494188851 1 I I #
face $-1 $-1 $374 $52 $-1 $511 forward single #
loop $-1 $-1 $512 $232 #
plane-surface $-1 47.610095522934657 0 0 -1 0 0 0 0 1 forward_v I I I I #
coedge $-1 $513 $514 $515 $516 reversed $233 $-1 #
coedge $-1 $517 $235 $237 $372 forward $147 $-1 #
coedge $-1 $235 $517 $513 $518 forward $147 $-1 #
coedge $-1 $515 $238 $235 $369 forward $374 $-1 #
edge $-1 $376 -0.049827636223327865 $519 7.7011161438079014 $368 $520 forward 7 unknown #
coedge $-1 $521 $522 $236 $371 forward $363 $-1 #
edge $-1 $523 -64.315198182071128 $375 -56.467484661145058 $370 $524 forward 7 unknown #
edge $-1 $376 84.489796963130331 $523 95.220191045869299 $237 $525 forward 7 unknown #
coedge $-1 $238 $515 $521 $526 forward $374 $-1 #
loop $-1 $-1 $515 $362 #
vertex $-1 $371 $527 #
vertex $-1 $239 $528 #
straight-curve $-1 26.154861102980519 -3.7758166175689594 13.796970428234481 -1 0 0 I I #
coedge $-1 $378 $378 $-1 $529 reversed $242 $-1 #
edge $-1 $530 0 $530 6.2831853071796004 $243 $531 forward 7 unknown #
vertex $-1 $246 $532 #
ellipse-curve $-1 43.951039986858646 -9.312205031876978 9.8731136677714435 0.73135370988377701 0 0.68199835119979291 0.34099917559989645 0 -0.36567685494188851 1 I I #
coedge $-1 $382 $382 $-1 $533 reversed $249 $-1 #
edge $-1 $534 0 $534 6.2831853071796004 $250 $535 forward 7 unknown #
vertex $-1 $253 $536 #
ellipse-curve $-1 43.951039986858646 -5.9903719832921674 9.8731136677714435 0.73135370988377701 0 0.68199835119979291 0.34099917559989645 0 -0.36567685494188851 1 I I #
face $-1 $-1 $398 $55 $-1 $537 forward single #
loop $-1 $-1 $538 $254 #
plane-surface $-1 47.610095522934657 0 0 -1 0 0 0 0 1 forward_v I I I I #
coedge $-1 $539 $540 $541 $542 reversed $255 $-1 #
coedge $-1 $543 $257 $259 $396 forward $161 $-1 #
coedge $-1 $257 $543 $539 $544 forward $161 $-1 #
coedge $-1 $541 $260 $257 $393 forward $398 $-1 #
edge $-1 $400 -7.701116143807905 $545 0.049827636223324312 $392 $546 forward 7 unknown #
coedge $-1 $547 $548 $258 $395 forward $387 $-1 #
edge $-1 $549 -64.315198182071128 $399 -56.467484661145058 $394 $550 forward 7 unknown #
edge $-1 $400 84.489796963130331 $549 95.220191045869299 $259 $551 forward 7 unknown #
coedge $-1 $260 $541 $547 $552 forward $398 $-1 #
loop $-1 $-1 $541 $386 #
vertex $-1 $395 $553 #
vertex $-1 $261 $554 #
straight-curve $-1 26.154861102980519 11.526760397600196 13.796970428234481 -1 0 0 I I #
coedge $-1 $402 $402 $-1 $555 reversed $264 $-1 #
edge $-1 $556 0 $556 6.2831853071796004 $265 $557 forward 7 unknown #
vertex $-1 $268 $558 #
ellipse-curve $-1 43.951039986858646 5.990371983292178 9.8731136677714435 0.73135370988377701 0 0.68199835119979291 0.34099917559989645 0 -0.36567685494188851 1 I I #
coedge $-1 $406 $406 $-1 $559 reversed $271 $-1 #
edge $-1 $560 0 $560 6.2831853071796004 $272 $561 forward 7 unknown #
vertex $-1 $275 $562 #
ellipse-curve $-1 43.951039986858646 9.3122050318769851 9.8731136677714435 0.73135370988377701 0 0.68199835119979291 0.34099917559989645 0 -0.36567685494188851 1 I I #
face $-1 $-1 $422 $58 $-1 $563 forward single #
loop $-1 $-1 $564 $276 #
plane-surface $-1 47.610095522934657 0 0 -1 0 0 0 0 1 forward_v I I I I #
coedge $-1 $565 $566 $567 $568 reversed $277 $-1 #
coedge $-1 $569 $279 $281 $420 forward $175 $-1 #
coedge $-1 $279 $569 $565 $570 forward $175 $-1 #
coedge $-1 $567 $282 $279 $417 forward $422 $-1 #
edge $-1 $424 -15.352404651392483 $571 -7.6014608713612546 $416 $572 forward 7 unknown #
coedge $-1 $573 $574 $280 $419 forward $411 $-1 #
edge $-1 $575 -64.315198182071128 $423 -56.467484661145058 $418 $576 forward 7 unknown #
edge $-1 $424 84.489796963130331 $575 95.220191045869299 $281 $577 forward 7 unknown #
coedge $-1 $282 $567 $573 $578 forward $422 $-1 #
loop $-1 $-1 $567 $410 #
vertex $-1 $419 $579 #
vertex $-1 $283 $580 #
straight-curve $-1 26.154861102980519 26.829337412769352 13.796970428234481 -1 0 0 I I #
coedge $-1 $426 $426 $-1 $581 reversed $286 $-1 #
edge $-1 $582 0 $582 6.2831853071796004 $287 $583 forward 7 unknown #
vertex $-1 $290 $584 #
ellipse-curve $-1 43.951039986858646 21.292948998461334 9.8731136677714435 0.73135370988377701 0 0.68199835119979291 0.34099917559989645 0 -0.36567685494188851 1 I I #
coedge $-1 $430 $430 $-1 $585 reversed $293 $-1 #
edge $-1 $586 0 $586 6.2831853071796004 $294 $587 forward 7 unknown #
vertex $-1 $297 $588 #
ellipse-curve $-1 43.951039986858646 24.614782047046141 9.8731136677714435 0.73135370988377701 0 0.68199835119979291 0.34099917559989645 0 -0.36567685494188851 1 I I #
face $-1 $-1 $446 $61 $-1 $589 forward single #
loop $-1 $-1 $590 $298 #
plane-surface $-1 -47.610095522934657 0 0 1 0 0 0 0 -1 forward_v I I I I #
coedge $-1 $591 $592 $593 $594 reversed $299 $-1 #
coedge $-1 $595 $301 $303 $444 forward $189 $-1 #
coedge $-1 $301 $595 $591 $596 forward $189 $-1 #
coedge $-1 $593 $304 $301 $441 forward $446 $-1 #
edge $-1 $448 -15.122669711854812 $597 1.4434526151124487 $440 $598 forward 7 unknown #
coedge $-1 $599 $600 $302 $443 forward $435 $-1 #
edge $-1 $601 -33.488010761992513 $447 -23.47741037650966 $442 $602 forward 7 unknown #
edge $-1 $448 -14.960607346240364 $601 0 $303 $603 forward 7 unknown #
coedge $-1 $304 $593 $599 $604 forward $446 $-1 #
loop $-1 $-1 $593 $434 #
vertex $-1 $443 $605 #
vertex $-1 $305 $606 #
straight-curve $-1 -55.662420230676432 -21.962278260225993 13.796970428234481 1 0 0 I I #
coedge $-1 $450 $450 $-1 $607 reversed $308 $-1 #
edge $-1 $608 0 $608 6.2831853071796004 $309 $609 forward 7 unknown #
vertex $-1 $312 $610 #
ellipse-curve $-1 -42.051146609458478 -17.22910045252106 8.7916702354930596 -0.66913061440640931 0 0.74314481823134659 0.74314481823134659 0 0.66913061440640931 1 I I #
coedge $-1 $454 $454 $-1 $611 reversed $315 $-1 #
edge $-1 $612 0 $612 6.2831853071796004 $316 $613 forward 7 unknown #
vertex $-1 $319 $614 #
ellipse-curve $-1 -42.051146609458478 -10.129333740963663 8.7916702354930596 -0.66913061440640931 0 0.74314481823134659 0.74314481823134659 0 0.66913061440640931 1 I I #
face $-1 $-1 $335 $48 $-1 $615 reversed single #
loop $-1 $-1 $474 $320 #
plane-surface $-1 0 30.508994406972505 0 0 -1 0 0 0 -1 forward_v I I I I #
coedge $-1 $616 $472 $475 $617 forward $321 $-1 #
coedge $-1 $478 $323 $324 $466 reversed $203 $-1 #
coedge $-1 $472 $616 $323 $464 reversed $321 $-1 #
edge $-1 $479 -13.796970428234482 $618 13.796970428234482 $463 $619 forward 7 unknown #
coedge $-1 $325 $324 $616 $620 forward $129 $-1 #
edge $-1 $470 -47.610095522934657 $618 47.610095522934657 $462 $621 forward 7 unknown #
coedge $-1 $475 $474 $325 $468 reversed $459 $-1 #
edge $-1 $622 -47.610095522934657 $469 47.610095522934657 $467 $623 forward 7 unknown #
vertex $-1 $327 $624 #
vertex $-1 $481 $625 #
straight-curve $-1 47.610095522934657 0 -13.796970428234482 0 -1 0 I I #
coedge $-1 $461 $463 $328 $473 reversed $321 $-1 #
edge $-1 $476 -30.508994406972505 $479 30.508994406972505 $472 $626 forward 7 unknown #
coedge $-1 $467 $329 $334 $482 forward $459 $-1 #
coedge $-1 $329 $467 $461 $617 reversed $459 $-1 #
vertex $-1 $330 $627 #
straight-curve $-1 0 30.508994406972505 13.796970428234482 -1 0 0 I I #
coedge $-1 $331 $462 $333 $481 reversed $203 $-1 #
vertex $-1 $473 $628 #
straight-curve $-1 0 -30.508994406972505 13.796970428234482 1 0 0 I I #
edge $-1 $336 -13.796970428234482 $470 13.796970428234482 $333 $629 forward 7 unknown #
edge $-1 $337 -13.796970428234482 $469 13.796970428234482 $334 $630 forward 7 unknown #
point $-1 47.610095522934657 -30.508994406972505 13.796970428234482 #
point $-1 47.610095522934657 30.508994406972505 13.796970428234482 #
loop $-1 $-1 $347 $339 #
plane-surface $-1 47.610095522934657 0 0 -1 0 0 0 0 1 forward_v I I I I #
coedge $-1 $488 $342 $344 $492 reversed $211 $-1 #
coedge $-1 $342 $487 $631 $632 reversed $211 $-1 #
coedge $-1 $350 $345 $342 $490 forward $340 $-1 #
edge $-1 $493 14.137123347802145 $633 21.455234419954138 $489 $634 forward 7 unknown #
coedge $-1 $344 $343 $496 $635 reversed $133 $-1 #
edge $-1 $636 -95.220191045869299 $493 -84.489796963130331 $487 $637 forward 7 unknown #
vertex $-1 $346 $638 #
straight-curve $-1 40.291984450782664 -11.476932761376865 13.796970428234481 0 -1 0 I I #
coedge $-1 $631 $347 $350 $500 reversed $485 $-1 #
coedge $-1 $347 $631 $491 $635 forward $485 $-1 #
vertex $-1 $348 $639 #
straight-curve $-1 47.610095522934657 -19.078393632738116 70.264455089379538 0 0 1 I I #
straight-curve $-1 -17.329917771277493 -19.078393632738116 75.588896884546926 0.68199835119979291 0 -0.73135370988377701 I I #
edge $-1 $633 -26.829337412769345 $351 -19.078393632738116 $495 $640 forward 7 unknown #
point $-1 47.610095522934657 -19.078393632738116 13.796970428234482 #
point $-1 40.291984450782664 -19.078393632738116 13.796970428234481 #
edge $-1 $641 1 $641 0 $354 $-1 forward 7 unknown #
vertex $-1 $355 $642 #
ellipse-curve $-1 43.219686276974869 -24.614782047046134 9.1911153165716559 0.73135370988377701 0 0.68199835119979291 0.34099917559989645 0 -0.36567685494188851 1 I I #
point $-1 44.292039162458543 -24.614782047046134 9.5074368128295603 #
edge $-1 $643 1 $643 0 $358 $-1 forward 7 unknown #
vertex $-1 $359 $644 #
ellipse-curve $-1 43.219686276974869 -21.292948998461323 9.1911153165716559 0.73135370988377701 0 0.68199835119979291 0.34099917559989645 0 -0.36567685494188851 1 I I #
point $-1 44.292039162458543 -21.292948998461323 9.5074368128295603 #
plane-surface $-1 0 0 13.796970428234482 0 0 1 1 0 0 forward_v I I I I #
coedge $-1 $522 $521 $514 $645 forward $363 $-1 #
coedge $-1 $514 $365 $367 $518 reversed $233 $-1 #
coedge $-1 $365 $513 $512 $645 reversed $233 $-1 #
coedge $-1 $373 $368 $365 $516 forward $374 $-1 #
edge $-1 $519 14.137123347802145 $646 21.455234419954138 $515 $647 forward 7 unknown #
coedge $-1 $367 $366 $522 $648 reversed $147 $-1 #
edge $-1 $649 -95.220191045869299 $519 -84.489796963130331 $513 $650 forward 7 unknown #
vertex $-1 $369 $651 #
straight-curve $-1 40.291984450782664 -3.8256442537922872 13.796970428234481 0 -1 0 I I #
coedge $-1 $512 $370 $373 $526 reversed $363 $-1 #
coedge $-1 $370 $512 $517 $648 forward $363 $-1 #
vertex $-1 $371 $652 #
straight-curve $-1 47.610095522934657 -3.7758166175689594 70.264455089379538 0 0 1 I I #
straight-curve $-1 -17.329917771277493 -3.7758166175689594 75.588896884546926 0.68199835119979291 0 -0.73135370988377701 I I #
edge $-1 $646 -11.526760397600189 $375 -3.7758166175689594 $521 $653 forward 7 unknown #
point $-1 47.610095522934657 -3.7758166175689594 13.796970428234482 #
point $-1 40.291984450782664 -3.7758166175689594 13.796970428234481 #
edge $-1 $654 1 $654 0 $378 $-1 forward 7 unknown #
vertex $-1 $379 $655 #
ellipse-curve $-1 43.219686276974869 -9.312205031876978 9.1911153165716559 0.73135370988377701 0 0.68199835119979291 0.34099917559989645 0 -0.36567685494188851 1 I I #
point $-1 44.292039162458543 -9.312205031876978 9.5074368128295603 #
edge $-1 $656 1 $656 0 $382 $-1 forward 7 unknown #
vertex $-1 $383 $657 #
ellipse-curve $-1 43.219686276974869 -5.9903719832921674 9.1911153165716559 0.73135370988377701 0 0.68199835119979291 0.34099917559989645 0 -0.36567685494188851 1 I I #
point $-1 44.292039162458543 -5.9903719832921674 9.5074368128295603 #
plane-surface $-1 0 0 13.796970428234482 0 0 1 1 0 0 forward_v I I I I #
coedge $-1 $548 $547 $540 $658 forward $387 $-1 #
coedge $-1 $540 $389 $391 $544 reversed $255 $-1 #
coedge $-1 $389 $539 $538 $658 reversed $255 $-1 #
coedge $-1 $397 $392 $389 $542 forward $398 $-1 #
edge $-1 $545 14.137123347802145 $659 21.455234419954138 $541 $660 forward 7 unknown #
coedge $-1 $391 $390 $548 $661 reversed $161 $-1 #
edge $-1 $662 -95.220191045869299 $545 -84.489796963130331 $539 $663 forward 7 unknown #
vertex $-1 $393 $664 #
straight-curve $-1 40.291984450782664 3.8256442537922908 13.796970428234481 0 -1 0 I I #
coedge $-1 $538 $394 $397 $552 reversed $387 $-1 #
coedge $-1 $394 $538 $543 $661 forward $387 $-1 #
vertex $-1 $395 $665 #
straight-curve $-1 47.610095522934657 11.526760397600196 70.264455089379538 0 0 1 I I #
straight-curve $-1 -17.329917771277493 11.526760397600196 75.588896884546926 0.68199835119979291 0 -0.73135370988377701 I I #
edge $-1 $659 3.7758166175689665 $399 11.526760397600196 $547 $666 forward 7 unknown #
point $-1 47.610095522934657 11.526760397600196 13.796970428234482 #
point $-1 40.291984450782664 11.526760397600196 13.796970428234481 #
edge $-1 $667 1 $667 0 $402 $-1 forward 7 unknown #
vertex $-1 $403 $668 #
ellipse-curve $-1 43.219686276974869 5.990371983292178 9.1911153165716559 0.73135370988377701 0 0.68199835119979291 0.34099917559989645 0 -0.36567685494188851 1 I I #
point $-1 44.292039162458543 5.990371983292178 9.5074368128295603 #
edge $-1 $669 1 $669 0 $406 $-1 forward 7 unknown #
vertex $-1 $407 $670 #
ellipse-curve $-1 43.219686276974869 9.3122050318769851 9.1911153165716559 0.73135370988377701 0 0.68199835119979291 0.34099917559989645 0 -0.36567685494188851 1 I I #
point $-1 44.292039162458543 9.3122050318769851 9.5074368128295603 #
plane-surface $-1 0 0 13.796970428234482 0 0 1 1 0 0 forward_v I I I I #
coedge $-1 $574 $573 $566 $671 forward $411 $-1 #
coedge $-1 $566 $413 $415 $570 reversed $277 $-1 #
coedge $-1 $413 $565 $564 $671 reversed $277 $-1 #
coedge $-1 $421 $416 $413 $568 forward $422 $-1 #
edge $-1 $571 14.137123347802145 $672 21.455234419954138 $567 $673 forward 7 unknown #
coedge $-1 $415 $414 $574 $674 reversed $175 $-1 #
edge $-1 $675 -95.220191045869299 $571 -84.489796963130331 $565 $676 forward 7 unknown #
vertex $-1 $417 $677 #
straight-curve $-1 40.291984450782664 11.476932761376869 13.796970428234481 0 -1 0 I I #
coedge $-1 $564 $418 $421 $578 reversed $411 $-1 #
coedge $-1 $418 $564 $569 $674 forward $411 $-1 #
vertex $-1 $419 $678 #
straight-curve $-1 47.610095522934657 26.829337412769352 70.264455089379538 0 0 1 I I #
straight-curve $-1 -17.329917771277493 26.829337412769352 75.588896884546926 0.68199835119979291 0 -0.73135370988377701 I I #
edge $-1 $672 19.078393632738123 $423 26.829337412769352 $573 $679 forward 7 unknown #
point $-1 47.610095522934657 26.829337412769352 13.796970428234482 #
point $-1 40.291984450782664 26.829337412769352 13.796970428234481 #
edge $-1 $680 1 $680 0 $426 $-1 forward 7 unknown #
vertex $-1 $427 $681 #
ellipse-curve $-1 43.219686276974869 21.292948998461334 9.1911153165716559 0.73135370988377701 0 0.68199835119979291 0.34099917559989645 0 -0.36567685494188851 1 I I #
point $-1 44.292039162458543 21.292948998461334 9.5074368128295603 #
edge $-1 $682 1 $682 0 $430 $-1 forward 7 unknown #
vertex $-1 $431 $683 #
ellipse-curve $-1 43.219686276974869 24.614782047046141 9.1911153165716559 0.73135370988377701 0 0.68199835119979291 0.34099917559989645 0 -0.36567685494188851 1 I I #
point $-1 44.292039162458543 24.614782047046141 9.5074368128295603 #
plane-surface $-1 0 0 13.796970428234482 0 0 1 1 0 0 forward_v I I I I #
coedge $-1 $600 $599 $592 $684 forward $435 $-1 #
coedge $-1 $592 $437 $439 $596 reversed $299 $-1 #
coedge $-1 $437 $591 $590 $684 reversed $299 $-1 #
coedge $-1 $445 $440 $437 $594 forward $446 $-1 #
edge $-1 $597 -19.170222534694119 $685 -8.052324707741775 $593 $686 forward 7 unknown #
coedge $-1 $439 $438 $600 $687 reversed $189 $-1 #
edge $-1 $688 0 $597 14.960607346240364 $591 $689 forward 7 unknown #
vertex $-1 $441 $690 #
straight-curve $-1 -36.492197695982313 -6.8396085483711815 13.796970428234482 0 1 0 I I #
coedge $-1 $590 $442 $445 $604 reversed $435 $-1 #
coedge $-1 $442 $590 $595 $687 forward $435 $-1 #
vertex $-1 $443 $691 #
straight-curve $-1 -47.610095522934657 -21.962278260225993 37.274380804744141 0 0 1 I I #
straight-curve $-1 -47.610095522934657 -21.962278260225993 3.7863700427516278 -0.74314481823134659 0 -0.66913061440640931 I I #
edge $-1 $685 5.3961559332587328 $447 21.962278260225993 $599 $692 forward 7 unknown #
point $-1 -47.610095522934657 -21.962278260225993 13.796970428234482 #
point $-1 -36.492197695982313 -21.962278260225993 13.796970428234482 #
edge $-1 $693 1 $693 0 $450 $-1 forward 7 unknown #
vertex $-1 $451 $694 #
ellipse-curve $-1 -39.919432515788912 -17.22910045252106 6.4241619365840279 -0.66913061440640931 0 0.74314481823134659 0.74314481823134659 0 0.66913061440640931 1 I I #
point $-1 -41.308001791227127 -17.22910045252106 9.4608008498994618 #
edge $-1 $695 1 $695 0 $454 $-1 forward 7 unknown #
vertex $-1 $455 $696 #
ellipse-curve $-1 -39.919432515788912 -10.129333740963663 6.4241619365840279 -0.66913061440640931 0 0.74314481823134659 0.74314481823134659 0 0.66913061440640931 1 I I #
point $-1 -41.308001791227127 -10.129333740963663 9.4608008498994618 #
plane-surface $-1 47.610095522934657 0 0 -1 0 0 0 0 1 forward_v I I I I #
coedge $-1 $463 $461 $465 $620 reversed $321 $-1 #
edge $-1 $476 -13.796970428234482 $622 13.796970428234482 $475 $697 forward 7 unknown #
vertex $-1 $620 $698 #
straight-curve $-1 -47.610095522934657 -30.508994406972505 0 0 0 -1 I I #
edge $-1 $618 -30.508994406972505 $622 30.508994406972505 $616 $699 forward 7 unknown #
straight-curve $-1 0 -30.508994406972505 -13.796970428234482 -1 0 0 I I #
vertex $-1 $468 $700 #
straight-curve $-1 0 30.508994406972505 -13.796970428234482 1 0 0 I I #
point $-1 47.610095522934657 30.508994406972505 -13.796970428234482 #
point $-1 47.610095522934657 -30.508994406972505 -13.796970428234482 #
straight-curve $-1 -47.610095522934657 0 13.796970428234482 0 -1 0 I I #
point $-1 -47.610095522934657 30.508994406972505 13.796970428234482 #
point $-1 -47.610095522934657 -30.508994406972505 13.796970428234482 #
straight-curve $-1 47.610095522934657 -30.508994406972505 0 0 0 -1 I I #
straight-curve $-1 47.610095522934657 30.508994406972505 0 0 0 -1 I I #
coedge $-1 $496 $495 $488 $632 forward $485 $-1 #
edge $-1 $633 56.467484661145058 $636 64.315198182071128 $631 $701 forward 7 unknown #
vertex $-1 $500 $702 #
straight-curve $-1 26.154861102980519 -26.829337412769345 13.796970428234481 1 0 0 I I #
edge $-1 $636 -15.352404651392479 $497 -7.601460871361251 $496 $703 forward 7 unknown #
vertex $-1 $635 $704 #
straight-curve $-1 -17.329917771277493 -26.829337412769345 75.588896884546926 -0.68199835119979291 0 0.73135370988377701 I I #
point $-1 40.291984450782664 -26.829337412769345 13.796970428234481 #
point $-1 47.610095522934657 -19.078393632738116 5.9492569073084098 #
straight-curve $-1 47.610095522934657 0 13.796970428234482 0 1 0 I I #
vertex $-1 $503 $705 #
point $-1 43.560685452574766 -24.614782047046134 8.8254384616297674 #
vertex $-1 $507 $706 #
point $-1 43.560685452574766 -21.292948998461323 8.8254384616297674 #
edge $-1 $646 56.467484661145058 $649 64.315198182071128 $512 $707 forward 7 unknown #
vertex $-1 $526 $708 #
straight-curve $-1 26.154861102980519 -11.526760397600189 13.796970428234481 1 0 0 I I #
edge $-1 $649 -7.7011161438079014 $523 0.049827636223327865 $522 $709 forward 7 unknown #
vertex $-1 $648 $710 #
straight-curve $-1 -17.329917771277493 -11.526760397600189 75.588896884546926 -0.68199835119979291 0 0.73135370988377701 I I #
point $-1 40.291984450782664 -11.526760397600189 13.796970428234481 #
point $-1 47.610095522934657 -3.7758166175689594 5.9492569073084098 #
straight-curve $-1 47.610095522934657 0 13.796970428234482 0 1 0 I I #
vertex $-1 $529 $711 #
point $-1 43.560685452574766 -9.312205031876978 8.8254384616297674 #
vertex $-1 $533 $712 #
point $-1 43.560685452574766 -5.9903719832921674 8.8254384616297674 #
edge $-1 $659 56.467484661145058 $662 64.315198182071128 $538 $713 forward 7 unknown #
vertex $-1 $552 $714 #
straight-curve $-1 26.154861102980519 3.7758166175689665 13.796970428234481 1 0 0 I I #
edge $-1 $662 -0.049827636223324312 $549 7.701116143807905 $548 $715 forward 7 unknown #
vertex $-1 $661 $716 #
straight-curve $-1 -17.329917771277493 3.7758166175689665 75.588896884546926 -0.68199835119979291 0 0.73135370988377701 I I #
point $-1 40.291984450782664 3.7758166175689665 13.796970428234481 #
point $-1 47.610095522934657 11.526760397600196 5.9492569073084098 #
straight-curve $-1 47.610095522934657 0 13.796970428234482 0 1 0 I I #
vertex $-1 $555 $717 #
point $-1 43.560685452574766 5.990371983292178 8.8254384616297674 #
vertex $-1 $559 $718 #
point $-1 43.560685452574766 9.3122050318769851 8.8254384616297674 #
edge $-1 $672 56.467484661145058 $675 64.315198182071128 $564 $719 forward 7 unknown #
vertex $-1 $578 $720 #
straight-curve $-1 26.154861102980519 19.078393632738123 13.796970428234481 1 0 0 I I #
edge $-1 $675 7.6014608713612546 $575 15.352404651392483 $574 $721 forward 7 unknown #
vertex $-1 $674 $722 #
straight-curve $-1 -17.329917771277493 19.078393632738123 75.588896884546926 -0.68199835119979291 0 0.73135370988377701 I I #
point $-1 40.291984450782664 19.078393632738123 13.796970428234481 #
point $-1 47.610095522934657 26.829337412769352 5.9492569073084098 #
straight-curve $-1 47.610095522934657 0 13.796970428234482 0 1 0 I I #
vertex $-1 $581 $723 #
point $-1 43.560685452574766 21.292948998461334 8.8254384616297674 #
vertex $-1 $585 $724 #
point $-1 43.560685452574766 24.614782047046141 8.8254384616297674 #
edge $-1 $685 23.47741037650966 $688 33.488010761992513 $590 $725 forward 7 unknown #
vertex $-1 $604 $726 #
straight-curve $-1 -55.662420230676432 -5.3961559332587328 13.796970428234481 -1 0 0 I I #
edge $-1 $688 -1.4434526151124487 $601 15.122669711854812 $600 $727 forward 7 unknown #
vertex $-1 $687 $728 #
straight-curve $-1 -47.610095522934657 -5.3961559332587328 3.7863700427516278 0.74314481823134659 0 0.66913061440640931 I I #
point $-1 -36.492197695982313 -5.3961559332587328 13.796970428234482 #
point $-1 -47.610095522934657 -21.962278260225993 3.7863700427516278 #
straight-curve $-1 -47.610095522934657 0 13.796970428234482 0 -1 0 I I #
vertex $-1 $607 $729 #
point $-1 -39.176287697557562 -17.22910045252106 7.0932925509904372 #
vertex $-1 $611 $730 #
point $-1 -39.176287697557562 -10.129333740963663 7.0932925509904372 #
straight-curve $-1 -47.610095522934657 30.508994406972505 0 0 0 -1 I I #
point $-1 -47.610095522934657 -30.508994406972505 -13.796970428234482 #
straight-curve $-1 -47.610095522934657 0 -13.796970428234482 0 1 0 I I #
point $-1 -47.610095522934657 30.508994406972505 -13.796970428234482 #
straight-curve $-1 47.610095522934657 -26.829337412769345 70.264455089379538 0 0 -1 I I #
point $-1 47.610095522934657 -26.829337412769345 13.796970428234482 #
straight-curve $-1 47.610095522934657 -11.476932761376865 5.9492569073084027 0 1 0 I I #
point $-1 47.610095522934657 -26.829337412769345 5.9492569073084098 #
point $-1 42.854009422032988 -24.614782047046134 8.8501161409717586 #
point $-1 42.854009422032988 -21.292948998461323 8.8501161409717586 #
straight-curve $-1 47.610095522934657 -11.526760397600189 70.264455089379538 0 0 -1 I I #
point $-1 47.610095522934657 -11.526760397600189 13.796970428234482 #
straight-curve $-1 47.610095522934657 -3.8256442537922872 5.9492569073084027 0 1 0 I I #
point $-1 47.610095522934657 -11.526760397600189 5.9492569073084098 #
point $-1 42.854009422032988 -9.312205031876978 8.8501161409717586 #
point $-1 42.854009422032988 -5.9903719832921674 8.8501161409717586 #
straight-curve $-1 47.610095522934657 3.7758166175689665 70.264455089379538 0 0 -1 I I #
point $-1 47.610095522934657 3.7758166175689665 13.796970428234482 #
straight-curve $-1 47.610095522934657 3.8256442537922908 5.9492569073084027 0 1 0 I I #
point $-1 47.610095522934657 3.7758166175689665 5.9492569073084098 #
point $-1 42.854009422032988 5.990371983292178 8.8501161409717586 #
point $-1 42.854009422032988 9.3122050318769851 8.8501161409717586 #
straight-curve $-1 47.610095522934657 19.078393632738123 70.264455089379538 0 0 -1 I I #
point $-1 47.610095522934657 19.078393632738123 13.796970428234482 #
straight-curve $-1 47.610095522934657 11.476932761376869 5.9492569073084027 0 1 0 I I #
point $-1 47.610095522934657 19.078393632738123 5.9492569073084098 #
point $-1 42.854009422032988 21.292948998461334 8.8501161409717586 #
point $-1 42.854009422032988 24.614782047046141 8.8501161409717586 #
straight-curve $-1 -47.610095522934657 -5.3961559332587328 37.274380804744141 0 0 -1 I I #
point $-1 -47.610095522934657 -5.3961559332587328 13.796970428234482 #
straight-curve $-1 -47.610095522934657 -6.8396085483711815 3.7863700427516296 0 -1 0 I I #
point $-1 -47.610095522934657 -5.3961559332587328 3.7863700427516278 #
point $-1 -39.2503019013825 -17.22910045252106 5.6810171183526812 #
point $-1 -39.2503019013825 -10.129333740963663 5.6810171183526812 #
End-of-ACIS-data 