500 0 16 0           
7 Unknown 11 ACIS 5.0 NT 24 Thu Mar 25 22:09:37 1999 
-1 9.9999999999999995e-007 1e-010 
body $-1 $16 $-1 $17 #
body $-1 $18 $-1 $19 #
body $-1 $20 $-1 $21 #
body $-1 $22 $-1 $23 #
body $-1 $24 $-1 $25 #
body $-1 $26 $-1 $27 #
body $-1 $28 $-1 $29 #
body $-1 $30 $-1 $31 #
body $-1 $32 $-1 $33 #
body $-1 $34 $-1 $35 #
body $-1 $36 $-1 $37 #
body $-1 $38 $-1 $39 #
body $-1 $40 $-1 $41 #
body $-1 $42 $-1 $43 #
body $-1 $44 $-1 $45 #
body $-1 $46 $-1 $47 #
lump $-1 $-1 $48 $0 #
transform $-1 1 0 0 0 1 0 0 0 1 71.358378856776639 39.366340258260095 16.86287886791402 1 rotate no_reflect no_shear #
lump $-1 $-1 $49 $1 #
transform $-1 1 0 0 0 1 0 0 0 1 71.358378856776639 39.366340258260095 16.86287886791402 1 rotate no_reflect no_shear #
lump $-1 $-1 $50 $2 #
transform $-1 1 0 0 0 1 0 0 0 1 71.358378856776639 39.366340258260095 16.86287886791402 1 rotate no_reflect no_shear #
lump $-1 $-1 $51 $3 #
transform $-1 1 0 0 0 1 0 0 0 1 71.358378856776639 39.366340258260095 16.86287886791402 1 rotate no_reflect no_shear #
lump $-1 $-1 $52 $4 #
transform $-1 1 0 0 0 1 0 0 0 1 71.358378856776639 39.366340258260095 16.86287886791402 1 rotate no_reflect no_shear #
lump $-1 $-1 $53 $5 #
transform $-1 1 0 0 0 1 0 0 0 1 71.358378856776639 39.366340258260095 16.86287886791402 1 rotate no_reflect no_shear #
lump $-1 $-1 $54 $6 #
transform $-1 1 0 0 0 1 0 0 0 1 71.358378856776639 39.366340258260095 16.86287886791402 1 rotate no_reflect no_shear #
lump $-1 $-1 $55 $7 #
transform $-1 1 0 0 0 1 0 0 0 1 71.358378856776639 39.366340258260095 16.86287886791402 1 rotate no_reflect no_shear #
lump $-1 $-1 $56 $8 #
transform $-1 1 0 0 0 1 0 0 0 1 71.358378856776639 39.366340258260095 16.86287886791402 1 rotate no_reflect no_shear #
lump $-1 $-1 $57 $9 #
transform $-1 1 0 0 0 1 0 0 0 1 71.358378856776639 39.366340258260095 16.86287886791402 1 rotate no_reflect no_shear #
lump $-1 $-1 $58 $10 #
transform $-1 1 0 0 0 1 0 0 0 1 71.358378856776639 39.366340258260095 16.86287886791402 1 rotate no_reflect no_shear #
lump $-1 $-1 $59 $11 #
transform $-1 1 0 0 0 1 0 0 0 1 71.358378856776639 39.366340258260095 16.86287886791402 1 rotate no_reflect no_shear #
lump $-1 $-1 $60 $12 #
transform $-1 1 0 0 0 1 0 0 0 1 71.358378856776639 39.366340258260095 16.86287886791402 1 rotate no_reflect no_shear #
lump $-1 $-1 $61 $13 #
transform $-1 1 0 0 0 1 0 0 0 1 71.358378856776639 39.366340258260095 16.86287886791402 1 rotate no_reflect no_shear #
lump $-1 $-1 $62 $14 #
transform $-1 1 0 0 0 1 0 0 0 1 71.358378856776639 39.366340258260095 16.86287886791402 1 rotate no_reflect no_shear #
lump $-1 $-1 $63 $15 #
transform $-1 1 0 0 0 1 0 0 0 1 71.358378856776639 39.366340258260095 16.86287886791402 1 rotate no_reflect no_shear #
shell $-1 $-1 $-1 $64 $-1 $16 #
shell $-1 $-1 $-1 $65 $-1 $18 #
shell $-1 $-1 $-1 $66 $-1 $20 #
shell $-1 $-1 $-1 $67 $-1 $22 #
shell $-1 $-1 $-1 $68 $-1 $24 #
shell $-1 $-1 $-1 $69 $-1 $26 #
shell $-1 $-1 $-1 $70 $-1 $28 #
shell $-1 $-1 $-1 $71 $-1 $30 #
shell $-1 $-1 $-1 $72 $-1 $32 #
shell $-1 $-1 $-1 $73 $-1 $34 #
shell $-1 $-1 $-1 $74 $-1 $36 #
shell $-1 $-1 $-1 $75 $-1 $38 #
shell $-1 $-1 $-1 $76 $-1 $40 #
shell $-1 $-1 $-1 $77 $-1 $42 #
shell $-1 $-1 $-1 $78 $-1 $44 #
shell $-1 $-1 $-1 $79 $-1 $46 #
face $-1 $80 $81 $48 $-1 $82 forward single #
face $-1 $83 $84 $49 $-1 $85 forward single #
face $-1 $86 $87 $50 $-1 $88 reversed single #
face $-1 $89 $90 $51 $-1 $91 forward single #
face $-1 $92 $93 $52 $-1 $94 reversed single #
face $-1 $95 $96 $53 $-1 $97 forward single #
face $-1 $98 $99 $54 $-1 $100 forward single #
face $-1 $101 $102 $55 $-1 $103 reversed single #
face $-1 $104 $105 $56 $-1 $106 forward single #
face $-1 $107 $108 $57 $-1 $109 forward single #
face $-1 $110 $111 $58 $-1 $112 reversed single #
face $-1 $113 $114 $59 $-1 $115 forward single #
face $-1 $116 $117 $60 $-1 $118 forward single #
face $-1 $119 $120 $61 $-1 $121 reversed single #
face $-1 $122 $123 $62 $-1 $124 forward single #
face $-1 $125 $126 $63 $-1 $127 forward single #
face $-1 $128 $129 $48 $-1 $130 reversed single #
loop $-1 $-1 $131 $64 #
plane-surface $-1 0 0 16.86287886791402 0 0 1 1 0 0 forward_v I I I I #
face $-1 $132 $133 $49 $-1 $134 reversed single #
loop $-1 $-1 $135 $65 #
plane-surface $-1 -63.757902075807188 0 -8.1863211990014904 0 0 1 1 0 0 forward_v I I I I #
face $-1 $136 $137 $50 $-1 $138 reversed single #
loop $-1 $-1 $139 $66 #
plane-surface $-1 47.186531744531919 -153.34501202081356 87.074964833489233 1 0 0 0 0.79863551827123203 -0.60181501223851219 forward_v I I I I #
face $-1 $140 $141 $51 $-1 $142 forward single #
loop $-1 $143 $144 $67 #
cone-surface $-1 59.2724553006543 -29.586686113320575 6.1059234414544772 0 0.79863551827123203 -0.60181501223851219 3 0 0 1 I I 0 1 3 forward I I I I #
face $-1 $145 $146 $52 $-1 $147 reversed single #
loop $-1 $-1 $148 $68 #
plane-surface $-1 -56.157425294837743 73.576651166711031 164.65988136178427 1 0 0 0 -0.6560590369687036 -0.75470957328743171 forward_v I I I I #
face $-1 $149 $150 $53 $-1 $151 forward single #
loop $-1 $152 $153 $69 #
cone-surface $-1 -50.18775053848519 31.129996357110855 9.2579653204999452 0 -0.6560590369687036 -0.75470957328743171 1.5 0 0 1 I I 0 1 1.5 forward I I I I #
face $-1 $154 $155 $54 $-1 $156 forward single #
loop $-1 $157 $158 $70 #
cone-surface $-1 -41.233238403956371 31.129996357110855 9.2579653204999452 0 -0.6560590369687036 -0.75470957328743171 1.5 0 0 1 I I 0 1 1.5 forward I I I I #
face $-1 $159 $160 $55 $-1 $161 reversed single #
loop $-1 $-1 $162 $71 #
plane-surface $-1 -24.278474256934153 73.576651166711031 164.65988136178427 1 0 0 0 -0.6560590369687036 -0.75470957328743171 forward_v I I I I #
face $-1 $163 $164 $56 $-1 $165 forward single #
loop $-1 $166 $167 $72 #
cone-surface $-1 -18.3087995005816 31.129996357110855 9.2579653204999452 0 -0.6560590369687036 -0.75470957328743171 1.5 0 0 1 I I 0 1 1.5 forward I I I I #
face $-1 $168 $169 $57 $-1 $170 forward single #
loop $-1 $171 $172 $73 #
cone-surface $-1 -9.3542873660527732 31.129996357110855 9.2579653204999452 0 -0.6560590369687036 -0.75470957328743171 1.5 0 0 1 I I 0 1 1.5 forward I I I I #
face $-1 $173 $174 $58 $-1 $175 reversed single #
loop $-1 $-1 $176 $74 #
plane-surface $-1 7.6004767809694389 73.576651166711031 164.65988136178427 1 0 0 0 -0.6560590369687036 -0.75470957328743171 forward_v I I I I #
face $-1 $177 $178 $59 $-1 $179 forward single #
loop $-1 $180 $181 $75 #
cone-surface $-1 13.570151537321991 31.129996357110855 9.2579653204999452 0 -0.6560590369687036 -0.75470957328743171 1.5 0 0 1 I I 0 1 1.5 forward I I I I #
face $-1 $182 $183 $60 $-1 $184 forward single #
loop $-1 $185 $186 $76 #
cone-surface $-1 22.524663671850817 31.129996357110855 9.2579653204999452 0 -0.6560590369687036 -0.75470957328743171 1.5 0 0 1 I I 0 1 1.5 forward I I I I #
face $-1 $187 $188 $61 $-1 $189 reversed single #
loop $-1 $-1 $190 $77 #
plane-surface $-1 39.479427818873027 73.576651166711031 164.65988136178427 1 0 0 0 -0.6560590369687036 -0.75470957328743171 forward_v I I I I #
face $-1 $191 $192 $62 $-1 $193 forward single #
loop $-1 $194 $195 $78 #
cone-surface $-1 45.449102575225581 31.129996357110855 9.2579653204999452 0 -0.6560590369687036 -0.75470957328743171 1.5 0 0 1 I I 0 1 1.5 forward I I I I #
face $-1 $196 $197 $63 $-1 $198 forward single #
loop $-1 $199 $200 $79 #
cone-surface $-1 54.403614709754407 31.129996357110855 9.2579653204999452 0 -0.6560590369687036 -0.75470957328743171 1.5 0 0 1 I I 0 1 1.5 forward I I I I #
face $-1 $201 $202 $48 $-1 $203 reversed single #
loop $-1 $-1 $204 $80 #
plane-surface $-1 0 0 -16.86287886791402 0 0 1 1 0 0 forward_v I I I I #
coedge $-1 $205 $206 $207 $208 forward $81 $-1 #
face $-1 $209 $210 $49 $-1 $211 reversed single #
loop $-1 $-1 $212 $83 #
plane-surface $-1 -56.157425294837736 0 -12.524600033457755 -1 0 0 0 0 1 forward_v I I I I #
coedge $-1 $213 $214 $215 $216 forward $84 $-1 #
face $-1 $217 $218 $50 $-1 $219 forward single #
loop $-1 $-1 $220 $86 #
plane-surface $-1 59.272455300654272 -39.366340258260081 1.1858775434663897 0 -0.79863551827123203 0.60181501223851219 1 0 0 forward_v I I I I #
coedge $-1 $221 $222 $223 $224 reversed $87 $-1 #
face $-1 $-1 $225 $51 $-1 $226 forward single #
loop $-1 $227 $228 $89 #
cone-surface $-1 59.2724553006543 -24.515812443786981 2.2847461588609903 0 0.79863551827123203 -0.60181501223851219 1.5 0 0 1 I I -0.70710678118654757 0.70710678118654757 1.5 forward I I I I #
loop $-1 $-1 $229 $67 #
coedge $-1 $144 $144 $230 $231 reversed $90 $-1 #
face $-1 $232 $233 $52 $-1 $234 reversed single #
loop $-1 $-1 $235 $92 #
plane-surface $-1 -45.710494471220784 -20.05396745813853 56.9501780468227 0 0.6560590369687036 0.75470957328743171 1 0 0 forward_v I I I I #
coedge $-1 $236 $237 $238 $239 reversed $93 $-1 #
face $-1 $-1 $240 $53 $-1 $241 forward single #
loop $-1 $242 $243 $95 #
cone-surface $-1 -50.18775053848519 29.054181275601891 6.8700132824823967 0 -0.6560590369687036 -0.75470957328743171 0.75 0 0 1 I I -0.70710678118654713 0.70710678118654802 0.75 forward I I I I #
loop $-1 $-1 $244 $69 #
coedge $-1 $153 $153 $245 $246 reversed $96 $-1 #
face $-1 $-1 $247 $54 $-1 $248 forward single #
loop $-1 $249 $250 $98 #
cone-surface $-1 -41.233238403956371 29.054181275601891 6.8700132824823967 0 -0.6560590369687036 -0.75470957328743171 0.75 0 0 1 I I -0.70710678118654713 0.70710678118654802 0.75 forward I I I I #
loop $-1 $-1 $251 $70 #
coedge $-1 $158 $158 $252 $253 reversed $99 $-1 #
face $-1 $254 $255 $55 $-1 $256 reversed single #
loop $-1 $-1 $257 $101 #
plane-surface $-1 -13.831543433317194 -20.05396745813853 56.9501780468227 0 0.6560590369687036 0.75470957328743171 1 0 0 forward_v I I I I #
coedge $-1 $258 $259 $260 $261 reversed $102 $-1 #
face $-1 $-1 $262 $56 $-1 $263 forward single #
loop $-1 $264 $265 $104 #
cone-surface $-1 -18.3087995005816 29.054181275601891 6.8700132824823967 0 -0.6560590369687036 -0.75470957328743171 0.75 0 0 1 I I -0.70710678118654713 0.70710678118654802 0.75 forward I I I I #
loop $-1 $-1 $266 $72 #
coedge $-1 $167 $167 $267 $268 reversed $105 $-1 #
face $-1 $-1 $269 $57 $-1 $270 forward single #
loop $-1 $271 $272 $107 #
cone-surface $-1 -9.3542873660527732 29.054181275601891 6.8700132824823967 0 -0.6560590369687036 -0.75470957328743171 0.75 0 0 1 I I -0.70710678118654713 0.70710678118654802 0.75 forward I I I I #
loop $-1 $-1 $273 $73 #
coedge $-1 $172 $172 $274 $275 reversed $108 $-1 #
face $-1 $276 $277 $58 $-1 $278 reversed single #
loop $-1 $-1 $279 $110 #
plane-surface $-1 18.047407604586397 -20.05396745813853 56.9501780468227 0 0.6560590369687036 0.75470957328743171 1 0 0 forward_v I I I I #
coedge $-1 $280 $281 $282 $283 reversed $111 $-1 #
face $-1 $-1 $284 $59 $-1 $285 forward single #
loop $-1 $286 $287 $113 #
cone-surface $-1 13.570151537321991 29.054181275601891 6.8700132824823967 0 -0.6560590369687036 -0.75470957328743171 0.75 0 0 1 I I -0.70710678118654713 0.70710678118654802 0.75 forward I I I I #
loop $-1 $-1 $288 $75 #
coedge $-1 $181 $181 $289 $290 reversed $114 $-1 #
face $-1 $-1 $291 $60 $-1 $292 forward single #
loop $-1 $293 $294 $116 #
cone-surface $-1 22.524663671850817 29.054181275601891 6.8700132824823967 0 -0.6560590369687036 -0.75470957328743171 0.75 0 0 1 I I -0.70710678118654713 0.70710678118654802 0.75 forward I I I I #
loop $-1 $-1 $295 $76 #
coedge $-1 $186 $186 $296 $297 reversed $117 $-1 #
face $-1 $298 $299 $61 $-1 $300 reversed single #
loop $-1 $-1 $301 $119 #
plane-surface $-1 49.926358642489987 -20.05396745813853 56.9501780468227 0 0.6560590369687036 0.75470957328743171 1 0 0 forward_v I I I I #
coedge $-1 $302 $303 $304 $305 reversed $120 $-1 #
face $-1 $-1 $306 $62 $-1 $307 forward single #
loop $-1 $308 $309 $122 #
cone-surface $-1 45.449102575225581 29.054181275601891 6.8700132824823967 0 -0.6560590369687036 -0.75470957328743171 0.75 0 0 1 I I -0.70710678118654713 0.70710678118654802 0.75 forward I I I I #
loop $-1 $-1 $310 $78 #
coedge $-1 $195 $195 $311 $312 reversed $123 $-1 #
face $-1 $-1 $313 $63 $-1 $314 forward single #
loop $-1 $315 $316 $125 #
cone-surface $-1 54.403614709754407 29.054181275601891 6.8700132824823967 0 -0.6560590369687036 -0.75470957328743171 0.75 0 0 1 I I -0.70710678118654713 0.70710678118654802 0.75 forward I I I I #
loop $-1 $-1 $317 $79 #
coedge $-1 $200 $200 $318 $319 reversed $126 $-1 #
face $-1 $320 $321 $48 $-1 $322 reversed single #
loop $-1 $-1 $323 $128 #
plane-surface $-1 0 -39.366340258260095 0 0 1 0 0 0 1 forward_v I I I I #
coedge $-1 $324 $325 $326 $327 forward $129 $-1 #
coedge $-1 $328 $131 $329 $330 forward $81 $-1 #
coedge $-1 $131 $328 $331 $332 forward $81 $-1 #
coedge $-1 $333 $334 $131 $208 reversed $335 $-1 #
edge $-1 $336 -39.366340258260095 $337 39.366340258260095 $207 $338 forward 7 unknown #
face $-1 $339 $340 $49 $-1 $341 reversed single #
loop $-1 $-1 $342 $132 #
plane-surface $-1 0 0 -16.86287886791402 0 0 1 1 0 0 forward_v I I I I #
coedge $-1 $343 $215 $344 $345 reversed $133 $-1 #
coedge $-1 $346 $135 $347 $348 reversed $84 $-1 #
coedge $-1 $135 $346 $349 $350 reversed $84 $-1 #
coedge $-1 $212 $351 $135 $216 reversed $133 $-1 #
edge $-1 $352 -39.366340258260095 $353 39.366340258260095 $215 $354 forward 7 unknown #
face $-1 $355 $356 $50 $-1 $357 reversed single #
loop $-1 $-1 $358 $136 #
plane-surface $-1 0 0 16.86287886791402 0 0 1 1 0 0 forward_v I I I I #
coedge $-1 $359 $360 $361 $362 reversed $137 $-1 #
coedge $-1 $222 $139 $363 $364 reversed $87 $-1 #
coedge $-1 $139 $221 $359 $365 reversed $87 $-1 #
coedge $-1 $361 $366 $139 $224 forward $356 $-1 #
edge $-1 $367 26.674603548830596 $368 42.351604873278248 $223 $369 forward 7 unknown #
loop $-1 $-1 $230 $140 #
plane-surface $-1 59.272455300654272 -39.366340258260081 1.1858775434663897 0 -0.79863551827123203 0.60181501223851219 1 0 0 forward_v I I I I #
loop $-1 $-1 $370 $89 #
coedge $-1 $228 $228 $229 $371 reversed $141 $-1 #
coedge $-1 $229 $229 $228 $371 forward $143 $-1 #
coedge $-1 $230 $230 $144 $231 forward $225 $-1 #
edge $-1 $372 -6.7226189891019967e-018 $372 6.2831853071796004 $230 $373 forward 7 unknown #
face $-1 $374 $375 $52 $-1 $376 reversed single #
loop $-1 $-1 $377 $145 #
plane-surface $-1 -35.263563647603824 73.576651166711031 164.65988136178427 -1 0 0 0 0.6560590369687036 0.75470957328743171 forward_v I I I I #
coedge $-1 $378 $379 $380 $381 reversed $146 $-1 #
coedge $-1 $237 $148 $382 $383 reversed $93 $-1 #
coedge $-1 $148 $236 $378 $384 reversed $93 $-1 #
coedge $-1 $380 $385 $148 $239 forward $386 $-1 #
edge $-1 $387 -2.5780146749045798 $388 10.727131519829008 $238 $389 forward 7 unknown #
loop $-1 $-1 $245 $149 #
plane-surface $-1 -45.710494471220784 -20.05396745813853 56.9501780468227 0 0.6560590369687036 0.75470957328743171 1 0 0 forward_v I I I I #
loop $-1 $-1 $390 $95 #
coedge $-1 $243 $243 $244 $391 reversed $150 $-1 #
coedge $-1 $244 $244 $243 $391 forward $152 $-1 #
coedge $-1 $245 $245 $153 $246 forward $240 $-1 #
edge $-1 $392 1.8634871016719954e-015 $392 6.2831853071796022 $245 $393 forward 7 unknown #
loop $-1 $-1 $252 $154 #
plane-surface $-1 -45.710494471220784 -20.05396745813853 56.9501780468227 0 0.6560590369687036 0.75470957328743171 1 0 0 forward_v I I I I #
loop $-1 $-1 $394 $98 #
coedge $-1 $250 $250 $251 $395 reversed $155 $-1 #
coedge $-1 $251 $251 $250 $395 forward $157 $-1 #
coedge $-1 $252 $252 $158 $253 forward $247 $-1 #
edge $-1 $396 1.8634871016719954e-015 $396 6.2831853071796022 $252 $397 forward 7 unknown #
face $-1 $398 $399 $55 $-1 $400 forward single #
loop $-1 $-1 $401 $159 #
plane-surface $-1 -3.3846126097002358 73.576651166711031 164.65988136178427 -1 0 0 0 0.6560590369687036 0.75470957328743171 forward_v I I I I #
coedge $-1 $402 $403 $404 $405 reversed $160 $-1 #
coedge $-1 $259 $162 $406 $407 reversed $102 $-1 #
coedge $-1 $162 $258 $402 $408 reversed $102 $-1 #
coedge $-1 $404 $409 $162 $261 forward $399 $-1 #
edge $-1 $410 -2.5780146749045798 $411 10.727131519829008 $260 $412 forward 7 unknown #
loop $-1 $-1 $267 $163 #
plane-surface $-1 -13.831543433317194 -20.05396745813853 56.9501780468227 0 0.6560590369687036 0.75470957328743171 1 0 0 forward_v I I I I #
loop $-1 $-1 $413 $104 #
coedge $-1 $265 $265 $266 $414 reversed $164 $-1 #
coedge $-1 $266 $266 $265 $414 forward $166 $-1 #
coedge $-1 $267 $267 $167 $268 forward $262 $-1 #
edge $-1 $415 1.8634871016719954e-015 $415 6.2831853071796022 $267 $416 forward 7 unknown #
loop $-1 $-1 $274 $168 #
plane-surface $-1 -13.831543433317194 -20.05396745813853 56.9501780468227 0 0.6560590369687036 0.75470957328743171 1 0 0 forward_v I I I I #
loop $-1 $-1 $417 $107 #
coedge $-1 $272 $272 $273 $418 reversed $169 $-1 #
coedge $-1 $273 $273 $272 $418 forward $171 $-1 #
coedge $-1 $274 $274 $172 $275 forward $269 $-1 #
edge $-1 $419 1.8634871016719954e-015 $419 6.2831853071796022 $274 $420 forward 7 unknown #
face $-1 $421 $422 $58 $-1 $423 forward single #
loop $-1 $-1 $424 $173 #
plane-surface $-1 28.494338428203356 73.576651166711031 164.65988136178427 -1 0 0 0 0.6560590369687036 0.75470957328743171 forward_v I I I I #
coedge $-1 $425 $426 $427 $428 reversed $174 $-1 #
coedge $-1 $281 $176 $429 $430 reversed $111 $-1 #
coedge $-1 $176 $280 $425 $431 reversed $111 $-1 #
coedge $-1 $427 $432 $176 $283 forward $422 $-1 #
edge $-1 $433 -2.5780146749045798 $434 10.727131519829008 $282 $435 forward 7 unknown #
loop $-1 $-1 $289 $177 #
plane-surface $-1 18.047407604586397 -20.05396745813853 56.9501780468227 0 0.6560590369687036 0.75470957328743171 1 0 0 forward_v I I I I #
loop $-1 $-1 $436 $113 #
coedge $-1 $287 $287 $288 $437 reversed $178 $-1 #
coedge $-1 $288 $288 $287 $437 forward $180 $-1 #
coedge $-1 $289 $289 $181 $290 forward $284 $-1 #
edge $-1 $438 1.8634871016719954e-015 $438 6.2831853071796022 $289 $439 forward 7 unknown #
loop $-1 $-1 $296 $182 #
plane-surface $-1 18.047407604586397 -20.05396745813853 56.9501780468227 0 0.6560590369687036 0.75470957328743171 1 0 0 forward_v I I I I #
loop $-1 $-1 $440 $116 #
coedge $-1 $294 $294 $295 $441 reversed $183 $-1 #
coedge $-1 $295 $295 $294 $441 forward $185 $-1 #
coedge $-1 $296 $296 $186 $297 forward $291 $-1 #
edge $-1 $442 1.8634871016719954e-015 $442 6.2831853071796022 $296 $443 forward 7 unknown #
face $-1 $444 $445 $61 $-1 $446 forward single #
loop $-1 $-1 $447 $187 #
plane-surface $-1 60.373289466106947 73.576651166711031 164.65988136178427 -1 0 0 0 0.6560590369687036 0.75470957328743171 forward_v I I I I #
coedge $-1 $448 $449 $450 $451 reversed $188 $-1 #
coedge $-1 $303 $190 $452 $453 reversed $120 $-1 #
coedge $-1 $190 $302 $448 $454 reversed $120 $-1 #
coedge $-1 $450 $455 $190 $305 forward $445 $-1 #
edge $-1 $456 -2.5780146749045798 $457 10.727131519829008 $304 $458 forward 7 unknown #
loop $-1 $-1 $311 $191 #
plane-surface $-1 49.926358642489987 -20.05396745813853 56.9501780468227 0 0.6560590369687036 0.75470957328743171 1 0 0 forward_v I I I I #
loop $-1 $-1 $459 $122 #
coedge $-1 $309 $309 $310 $460 reversed $192 $-1 #
coedge $-1 $310 $310 $309 $460 forward $194 $-1 #
coedge $-1 $311 $311 $195 $312 forward $306 $-1 #
edge $-1 $461 1.8634871016719954e-015 $461 6.2831853071796022 $311 $462 forward 7 unknown #
loop $-1 $-1 $318 $196 #
plane-surface $-1 49.926358642489987 -20.05396745813853 56.9501780468227 0 0.6560590369687036 0.75470957328743171 1 0 0 forward_v I I I I #
loop $-1 $-1 $463 $125 #
coedge $-1 $316 $316 $317 $464 reversed $197 $-1 #
coedge $-1 $317 $317 $316 $464 forward $199 $-1 #
coedge $-1 $318 $318 $200 $319 forward $313 $-1 #
edge $-1 $465 1.8634871016719954e-015 $465 6.2831853071796022 $318 $466 forward 7 unknown #
face $-1 $467 $468 $48 $-1 $469 reversed single #
loop $-1 $-1 $470 $201 #
plane-surface $-1 -71.358378856776639 0 0 1 0 0 0 0 -1 forward_v I I I I #
coedge $-1 $471 $331 $472 $473 forward $202 $-1 #
coedge $-1 $474 $204 $471 $475 forward $129 $-1 #
coedge $-1 $204 $474 $476 $477 forward $129 $-1 #
coedge $-1 $334 $333 $204 $327 reversed $335 $-1 #
edge $-1 $478 -39.366340258260095 $479 39.366340258260095 $326 $480 forward 7 unknown #
coedge $-1 $206 $205 $481 $482 forward $81 $-1 #
coedge $-1 $483 $484 $205 $330 reversed $468 $-1 #
edge $-1 $337 -71.358378856776639 $485 71.358378856776639 $329 $486 forward 7 unknown #
coedge $-1 $323 $487 $206 $332 reversed $202 $-1 #
edge $-1 $488 -71.358378856776639 $336 71.358378856776639 $331 $489 forward 7 unknown #
coedge $-1 $326 $207 $487 $490 forward $335 $-1 #
coedge $-1 $207 $326 $483 $491 reversed $335 $-1 #
loop $-1 $-1 $333 $467 #
vertex $-1 $208 $492 #
vertex $-1 $208 $493 #
straight-curve $-1 71.358378856776639 0 16.86287886791402 0 1 0 I I #
face $-1 $494 $495 $49 $-1 $496 reversed single #
loop $-1 $-1 $344 $209 #
plane-surface $-1 0 -39.366340258260095 0 0 1 0 0 0 1 forward_v I I I I #
coedge $-1 $497 $498 $343 $499 forward $210 $-1 #
coedge $-1 $351 $212 $342 $499 reversed $133 $-1 #
coedge $-1 $349 $500 $212 $345 forward $340 $-1 #
edge $-1 $501 -10.600578851185142 $352 -1.9240211822726128 $344 $502 forward 7 unknown #
coedge $-1 $214 $213 $503 $504 reversed $84 $-1 #
coedge $-1 $505 $506 $213 $348 forward $507 $-1 #
edge $-1 $508 -39.479427818873049 $353 -24.278474256934143 $347 $509 forward 7 unknown #
coedge $-1 $510 $344 $214 $350 forward $340 $-1 #
edge $-1 $352 24.278474256934143 $511 39.479427818873049 $349 $512 forward 7 unknown #
coedge $-1 $215 $343 $505 $513 reversed $133 $-1 #
vertex $-1 $350 $514 #
vertex $-1 $348 $515 #
straight-curve $-1 -56.157425294837736 0 -8.1863211990014904 0 1 0 I I #
face $-1 $-1 $516 $50 $-1 $517 reversed single #
loop $-1 $-1 $361 $217 #
plane-surface $-1 0 -39.366340258260095 0 0 1 0 0 0 1 forward_v I I I I #
coedge $-1 $363 $518 $519 $520 forward $218 $-1 #
coedge $-1 $519 $220 $222 $365 forward $137 $-1 #
coedge $-1 $220 $519 $521 $522 reversed $137 $-1 #
coedge $-1 $523 $223 $220 $362 forward $356 $-1 #
edge $-1 $368 17.550304094204783 $524 41.722151206449489 $361 $525 forward 7 unknown #
coedge $-1 $526 $358 $221 $364 forward $218 $-1 #
edge $-1 $527 -49.11963325777225 $367 -37.306165752146683 $363 $528 forward 7 unknown #
edge $-1 $368 -2.3625585895707848e-014 $527 19.629732169166331 $222 $529 forward 7 unknown #
coedge $-1 $223 $523 $526 $530 reversed $356 $-1 #
vertex $-1 $530 $531 #
vertex $-1 $224 $532 #
straight-curve $-1 47.186531744531919 -39.366340258260095 43.537482416744616 0 0 -1 I I #
coedge $-1 $370 $370 $-1 $533 reversed $227 $-1 #
edge $-1 $534 0 $534 6.2831853071796004 $228 $535 forward 7 unknown #
vertex $-1 $231 $536 #
ellipse-curve $-1 59.2724553006543 -33.459606505447312 9.0243782056901924 0 -0.79863551827123203 0.60181501223851219 3 0 0 1 I I #
face $-1 $-1 $386 $52 $-1 $537 forward single #
loop $-1 $-1 $538 $232 #
plane-surface $-1 0 39.366340258260095 0 0 -1 0 0 0 -1 forward_v I I I I #
coedge $-1 $539 $540 $541 $542 reversed $233 $-1 #
coedge $-1 $543 $235 $237 $384 forward $146 $-1 #
coedge $-1 $235 $543 $539 $544 forward $146 $-1 #
coedge $-1 $541 $238 $235 $381 forward $386 $-1 #
edge $-1 $388 -33.302178059227352 $545 -12.408316411993432 $380 $546 forward 7 unknown #
coedge $-1 $547 $548 $236 $383 forward $375 $-1 #
edge $-1 $549 -77.033049191702275 $387 -65.467061812978116 $382 $550 forward 7 unknown #
edge $-1 $388 61.103188768087946 $549 78.732680516520162 $237 $551 forward 7 unknown #
coedge $-1 $238 $541 $547 $552 forward $386 $-1 #
loop $-1 $-1 $541 $374 #
vertex $-1 $383 $553 #
vertex $-1 $239 $554 #
straight-curve $-1 -56.157425294837743 36.788325583355515 16.86287886791402 0 -1 0 I I #
coedge $-1 $390 $390 $-1 $555 reversed $242 $-1 #
edge $-1 $556 0 $556 6.2831853071796004 $243 $557 forward 7 unknown #
vertex $-1 $246 $558 #
ellipse-curve $-1 -50.18775053848519 32.713767160893305 11.079885178551933 0 0.6560590369687036 0.75470957328743171 1.5 0 0 1 I I #
coedge $-1 $394 $394 $-1 $559 reversed $249 $-1 #
edge $-1 $560 0 $560 6.2831853071796004 $250 $561 forward 7 unknown #
vertex $-1 $253 $562 #
ellipse-curve $-1 -41.233238403956371 32.713767160893305 11.079885178551933 0 0.6560590369687036 0.75470957328743171 1.5 0 0 1 I I #
face $-1 $-1 $563 $55 $-1 $564 reversed single #
loop $-1 $-1 $260 $254 #
plane-surface $-1 0 0 16.86287886791402 0 0 1 1 0 0 forward_v I I I I #
coedge $-1 $565 $566 $567 $568 reversed $255 $-1 #
coedge $-1 $569 $257 $259 $408 forward $160 $-1 #
coedge $-1 $257 $569 $565 $570 forward $160 $-1 #
coedge $-1 $567 $260 $257 $405 forward $399 $-1 #
edge $-1 $411 -17.362702540275556 $571 3.531159106958361 $404 $572 forward 7 unknown #
coedge $-1 $573 $574 $258 $407 forward $563 $-1 #
edge $-1 $575 -77.033049191702275 $410 -65.467061812978116 $406 $576 forward 7 unknown #
edge $-1 $411 61.103188768087946 $575 78.732680516520162 $259 $577 forward 7 unknown #
coedge $-1 $260 $567 $573 $578 forward $399 $-1 #
vertex $-1 $407 $579 #
vertex $-1 $261 $580 #
straight-curve $-1 -24.278474256934153 36.788325583355515 16.86287886791402 0 -1 0 I I #
coedge $-1 $413 $413 $-1 $581 reversed $264 $-1 #
edge $-1 $582 0 $582 6.2831853071796004 $265 $583 forward 7 unknown #
vertex $-1 $268 $584 #
ellipse-curve $-1 -18.3087995005816 32.713767160893305 11.079885178551933 0 0.6560590369687036 0.75470957328743171 1.5 0 0 1 I I #
coedge $-1 $417 $417 $-1 $585 reversed $271 $-1 #
edge $-1 $586 0 $586 6.2831853071796004 $272 $587 forward 7 unknown #
vertex $-1 $275 $588 #
ellipse-curve $-1 -9.3542873660527732 32.713767160893305 11.079885178551933 0 0.6560590369687036 0.75470957328743171 1.5 0 0 1 I I #
face $-1 $-1 $589 $58 $-1 $590 reversed single #
loop $-1 $-1 $282 $276 #
plane-surface $-1 0 0 16.86287886791402 0 0 1 1 0 0 forward_v I I I I #
coedge $-1 $591 $592 $593 $594 reversed $277 $-1 #
coedge $-1 $595 $279 $281 $431 forward $174 $-1 #
coedge $-1 $279 $595 $591 $596 forward $174 $-1 #
coedge $-1 $593 $282 $279 $428 forward $422 $-1 #
edge $-1 $434 -1.4232270213237594 $597 19.470634625910158 $427 $598 forward 7 unknown #
coedge $-1 $599 $600 $280 $430 forward $589 $-1 #
edge $-1 $601 -77.033049191702275 $433 -65.467061812978116 $429 $602 forward 7 unknown #
edge $-1 $434 61.103188768087946 $601 78.732680516520162 $281 $603 forward 7 unknown #
coedge $-1 $282 $593 $599 $604 forward $422 $-1 #
vertex $-1 $283 $605 #
vertex $-1 $283 $606 #
straight-curve $-1 7.6004767809694389 36.788325583355515 16.86287886791402 0 -1 0 I I #
coedge $-1 $436 $436 $-1 $607 reversed $286 $-1 #
edge $-1 $608 0 $608 6.2831853071796004 $287 $609 forward 7 unknown #
vertex $-1 $290 $610 #
ellipse-curve $-1 13.570151537321991 32.713767160893305 11.079885178551933 0 0.6560590369687036 0.75470957328743171 1.5 0 0 1 I I #
coedge $-1 $440 $440 $-1 $611 reversed $293 $-1 #
edge $-1 $612 0 $612 6.2831853071796004 $294 $613 forward 7 unknown #
vertex $-1 $297 $614 #
ellipse-curve $-1 22.524663671850817 32.713767160893305 11.079885178551933 0 0.6560590369687036 0.75470957328743171 1.5 0 0 1 I I #
face $-1 $-1 $615 $61 $-1 $616 reversed single #
loop $-1 $-1 $304 $298 #
plane-surface $-1 0 0 16.86287886791402 0 0 1 1 0 0 forward_v I I I I #
coedge $-1 $617 $618 $619 $620 reversed $299 $-1 #
coedge $-1 $621 $301 $303 $454 forward $188 $-1 #
coedge $-1 $301 $621 $617 $622 forward $188 $-1 #
coedge $-1 $619 $304 $301 $451 forward $445 $-1 #
edge $-1 $457 14.516248497628034 $623 35.410110144861953 $450 $624 forward 7 unknown #
coedge $-1 $625 $626 $302 $453 forward $615 $-1 #
edge $-1 $627 -77.033049191702275 $456 -65.467061812978116 $452 $628 forward 7 unknown #
edge $-1 $457 61.103188768087946 $627 78.732680516520162 $303 $629 forward 7 unknown #
coedge $-1 $304 $619 $625 $630 forward $445 $-1 #
vertex $-1 $305 $631 #
vertex $-1 $305 $632 #
straight-curve $-1 39.479427818873027 36.788325583355515 16.86287886791402 0 -1 0 I I #
coedge $-1 $459 $459 $-1 $633 reversed $308 $-1 #
edge $-1 $634 0 $634 6.2831853071796004 $309 $635 forward 7 unknown #
vertex $-1 $312 $636 #
ellipse-curve $-1 45.449102575225581 32.713767160893305 11.079885178551933 0 0.6560590369687036 0.75470957328743171 1.5 0 0 1 I I #
coedge $-1 $463 $463 $-1 $637 reversed $315 $-1 #
edge $-1 $638 0 $638 6.2831853071796004 $316 $639 forward 7 unknown #
vertex $-1 $319 $640 #
ellipse-curve $-1 54.403614709754407 32.713767160893305 11.079885178551933 0 0.6560590369687036 0.75470957328743171 1.5 0 0 1 I I #
face $-1 $-1 $335 $48 $-1 $641 reversed single #
loop $-1 $-1 $483 $320 #
plane-surface $-1 0 39.366340258260095 0 0 -1 0 0 0 -1 forward_v I I I I #
coedge $-1 $642 $481 $484 $643 forward $321 $-1 #
coedge $-1 $487 $323 $324 $475 reversed $202 $-1 #
coedge $-1 $481 $642 $323 $473 reversed $321 $-1 #
edge $-1 $488 -16.86287886791402 $644 16.86287886791402 $472 $645 forward 7 unknown #
coedge $-1 $325 $324 $642 $646 forward $129 $-1 #
edge $-1 $479 -71.358378856776639 $644 71.358378856776639 $471 $647 forward 7 unknown #
coedge $-1 $484 $483 $325 $477 reversed $468 $-1 #
edge $-1 $648 -71.358378856776639 $478 71.358378856776639 $476 $649 forward 7 unknown #
vertex $-1 $327 $650 #
vertex $-1 $490 $651 #
straight-curve $-1 71.358378856776639 0 -16.86287886791402 0 -1 0 I I #
coedge $-1 $470 $472 $328 $482 reversed $321 $-1 #
edge $-1 $485 -39.366340258260095 $488 39.366340258260095 $481 $652 forward 7 unknown #
coedge $-1 $476 $329 $334 $491 forward $468 $-1 #
coedge $-1 $329 $476 $470 $643 reversed $468 $-1 #
vertex $-1 $330 $653 #
straight-curve $-1 0 39.366340258260095 16.86287886791402 -1 0 0 I I #
coedge $-1 $331 $471 $333 $490 reversed $202 $-1 #
vertex $-1 $482 $654 #
straight-curve $-1 0 -39.366340258260095 16.86287886791402 1 0 0 I I #
edge $-1 $336 -16.86287886791402 $479 16.86287886791402 $333 $655 forward 7 unknown #
edge $-1 $337 -16.86287886791402 $478 16.86287886791402 $334 $656 forward 7 unknown #
point $-1 71.358378856776639 -39.366340258260095 16.86287886791402 #
point $-1 71.358378856776639 39.366340258260095 16.86287886791402 #
face $-1 $-1 $507 $49 $-1 $657 reversed single #
loop $-1 $-1 $503 $339 #
plane-surface $-1 -71.358378856776639 0 0 1 0 0 0 0 -1 forward_v I I I I #
coedge $-1 $658 $342 $500 $659 forward $210 $-1 #
coedge $-1 $342 $658 $660 $661 forward $210 $-1 #
edge $-1 $662 -39.366340258260095 $501 39.366340258260095 $342 $663 forward 7 unknown #
coedge $-1 $344 $510 $497 $659 reversed $340 $-1 #
vertex $-1 $659 $664 #
straight-curve $-1 -56.157425294837736 -39.366340258260095 -6.2623000167288776 0 0 1 I I #
coedge $-1 $665 $666 $346 $504 forward $495 $-1 #
edge $-1 $511 -39.366340258260095 $508 39.366340258260095 $503 $667 forward 7 unknown #
coedge $-1 $660 $347 $351 $513 forward $507 $-1 #
coedge $-1 $347 $660 $665 $668 reversed $507 $-1 #
loop $-1 $-1 $505 $494 #
vertex $-1 $668 $669 #
straight-curve $-1 -31.878951037903594 39.366340258260095 -8.1863211990014904 1 0 0 I I #
coedge $-1 $500 $349 $666 $670 forward $340 $-1 #
vertex $-1 $670 $671 #
straight-curve $-1 -31.878951037903594 -39.366340258260095 -8.1863211990014904 -1 0 0 I I #
edge $-1 $353 1.9240211822726128 $662 10.600578851185142 $505 $672 forward 7 unknown #
point $-1 -56.157425294837736 -39.366340258260095 -8.1863211990014904 #
point $-1 -56.157425294837736 39.366340258260095 -8.1863211990014904 #
loop $-1 $-1 $521 $355 #
plane-surface $-1 71.358378856776639 0 0 -1 0 0 0 0 1 forward_v I I I I #
coedge $-1 $358 $526 $673 $674 forward $218 $-1 #
coedge $-1 $360 $359 $358 $520 reversed $137 $-1 #
edge $-1 $675 -41.722151206449489 $527 -17.550304094204783 $358 $676 forward 7 unknown #
coedge $-1 $673 $677 $360 $522 forward $516 $-1 #
edge $-1 $524 -11.372085308888888 $675 8.25764686027747 $521 $678 forward 7 unknown #
coedge $-1 $366 $361 $677 $679 reversed $356 $-1 #
vertex $-1 $362 $680 #
straight-curve $-1 29.636227650327136 -39.366340258260095 1.1858775434663733 1 0 0 I I #
coedge $-1 $518 $363 $366 $530 forward $218 $-1 #
vertex $-1 $364 $681 #
straight-curve $-1 47.186531744531919 -76.672506010406778 16.86287886791402 0 -1 0 I I #
straight-curve $-1 47.186531744531919 -39.366340258260081 1.1858775434663897 0 0.60181501223851219 0.79863551827123203 I I #
edge $-1 $367 47.186531744531919 $682 71.358378856776639 $366 $683 forward 7 unknown #
point $-1 47.186531744531919 -39.366340258260095 16.86287886791402 #
point $-1 47.186531744531919 -39.366340258260095 1.1858775434663709 #
edge $-1 $684 1 $684 0 $370 $-1 forward 7 unknown #
vertex $-1 $371 $685 #
ellipse-curve $-1 59.2724553006543 -25.71376572119383 3.1874686772187584 0 -0.79863551827123203 0.60181501223851219 3 0 0 1 I I #
point $-1 62.2724553006543 -33.459606505447319 9.0243782056901978 #
plane-surface $-1 0 0 16.86287886791402 0 0 1 1 0 0 forward_v I I I I #
coedge $-1 $548 $547 $540 $686 forward $375 $-1 #
coedge $-1 $540 $377 $379 $544 reversed $233 $-1 #
coedge $-1 $377 $539 $538 $686 reversed $233 $-1 #
coedge $-1 $385 $380 $377 $542 forward $386 $-1 #
edge $-1 $545 -10.727131519829008 $687 2.5780146749045798 $541 $688 forward 7 unknown #
coedge $-1 $379 $378 $548 $689 reversed $146 $-1 #
edge $-1 $690 -78.732680516520162 $545 -61.103188768087946 $539 $691 forward 7 unknown #
vertex $-1 $381 $692 #
straight-curve $-1 -22.855247235610392 26.0611940635265 16.862878867914027 1 0 0 I I #
coedge $-1 $538 $382 $385 $552 reversed $375 $-1 #
coedge $-1 $382 $538 $543 $689 forward $375 $-1 #
vertex $-1 $383 $693 #
straight-curve $-1 -56.157425294837743 39.366340258260095 82.329940680892136 0 0 1 I I #
straight-curve $-1 -56.157425294837743 -20.05396745813853 56.9501780468227 0 0.75470957328743171 -0.6560590369687036 I I #
edge $-1 $687 35.263563647603824 $387 56.157425294837743 $547 $694 forward 7 unknown #
point $-1 -56.157425294837743 39.366340258260095 16.86287886791402 #
point $-1 -56.157425294837743 26.061194063526507 16.86287886791402 #
edge $-1 $695 1 $695 0 $390 $-1 forward 7 unknown #
vertex $-1 $391 $696 #
ellipse-curve $-1 -50.18775053848519 29.546225553328419 7.4360454624479715 0 0.6560590369687036 0.75470957328743171 1.5 0 0 1 I I #
point $-1 -48.68775053848519 32.713767160893298 11.079885178551921 #
edge $-1 $697 1 $697 0 $394 $-1 forward 7 unknown #
vertex $-1 $395 $698 #
ellipse-curve $-1 -41.233238403956371 29.546225553328419 7.4360454624479715 0 0.6560590369687036 0.75470957328743171 1.5 0 0 1 I I #
point $-1 -39.733238403956371 32.713767160893298 11.079885178551921 #
loop $-1 $-1 $406 $398 #
plane-surface $-1 0 39.366340258260095 0 0 -1 0 0 0 -1 forward_v I I I I #
coedge $-1 $566 $401 $403 $570 reversed $255 $-1 #
coedge $-1 $401 $565 $699 $700 reversed $255 $-1 #
coedge $-1 $409 $404 $401 $568 forward $399 $-1 #
edge $-1 $571 -10.727131519829008 $701 2.5780146749045798 $567 $702 forward 7 unknown #
coedge $-1 $403 $402 $574 $703 reversed $160 $-1 #
edge $-1 $704 -78.732680516520162 $571 -61.103188768087946 $565 $705 forward 7 unknown #
vertex $-1 $405 $706 #
straight-curve $-1 -6.9157717166585968 26.0611940635265 16.862878867914027 1 0 0 I I #
coedge $-1 $699 $406 $409 $578 reversed $563 $-1 #
coedge $-1 $406 $699 $569 $703 forward $563 $-1 #
vertex $-1 $407 $707 #
straight-curve $-1 -24.278474256934153 39.366340258260095 82.329940680892136 0 0 1 I I #
straight-curve $-1 -24.278474256934153 -20.05396745813853 56.9501780468227 0 0.75470957328743171 -0.6560590369687036 I I #
edge $-1 $701 3.3846126097002358 $410 24.278474256934153 $573 $708 forward 7 unknown #
point $-1 -24.278474256934153 39.366340258260095 16.86287886791402 #
point $-1 -24.278474256934153 26.061194063526507 16.86287886791402 #
edge $-1 $709 1 $709 0 $413 $-1 forward 7 unknown #
vertex $-1 $414 $710 #
ellipse-curve $-1 -18.3087995005816 29.546225553328419 7.4360454624479715 0 0.6560590369687036 0.75470957328743171 1.5 0 0 1 I I #
point $-1 -16.8087995005816 32.713767160893298 11.079885178551921 #
edge $-1 $711 1 $711 0 $417 $-1 forward 7 unknown #
vertex $-1 $418 $712 #
ellipse-curve $-1 -9.3542873660527732 29.546225553328419 7.4360454624479715 0 0.6560590369687036 0.75470957328743171 1.5 0 0 1 I I #
point $-1 -7.8542873660527732 32.713767160893298 11.079885178551921 #
loop $-1 $-1 $429 $421 #
plane-surface $-1 0 39.366340258260095 0 0 -1 0 0 0 -1 forward_v I I I I #
coedge $-1 $592 $424 $426 $596 reversed $277 $-1 #
coedge $-1 $424 $591 $713 $714 reversed $277 $-1 #
coedge $-1 $432 $427 $424 $594 forward $422 $-1 #
edge $-1 $597 -10.727131519829008 $715 2.5780146749045798 $593 $716 forward 7 unknown #
coedge $-1 $426 $425 $600 $717 reversed $174 $-1 #
edge $-1 $718 -78.732680516520162 $597 -61.103188768087946 $591 $719 forward 7 unknown #
vertex $-1 $428 $720 #
straight-curve $-1 9.0237038022931984 26.0611940635265 16.862878867914027 1 0 0 I I #
coedge $-1 $713 $429 $432 $604 reversed $589 $-1 #
coedge $-1 $429 $713 $595 $717 forward $589 $-1 #
vertex $-1 $430 $721 #
straight-curve $-1 7.6004767809694389 39.366340258260095 82.329940680892136 0 0 1 I I #
straight-curve $-1 7.6004767809694389 -20.05396745813853 56.9501780468227 0 0.75470957328743171 -0.6560590369687036 I I #
edge $-1 $715 -28.494338428203356 $433 -7.6004767809694389 $599 $722 forward 7 unknown #
point $-1 7.6004767809694389 39.366340258260095 16.86287886791402 #
point $-1 7.6004767809694389 26.061194063526507 16.86287886791402 #
edge $-1 $723 1 $723 0 $436 $-1 forward 7 unknown #
vertex $-1 $437 $724 #
ellipse-curve $-1 13.570151537321991 29.546225553328419 7.4360454624479715 0 0.6560590369687036 0.75470957328743171 1.5 0 0 1 I I #
point $-1 15.070151537321991 32.713767160893298 11.079885178551921 #
edge $-1 $725 1 $725 0 $440 $-1 forward 7 unknown #
vertex $-1 $441 $726 #
ellipse-curve $-1 22.524663671850817 29.546225553328419 7.4360454624479715 0 0.6560590369687036 0.75470957328743171 1.5 0 0 1 I I #
point $-1 24.024663671850817 32.713767160893298 11.079885178551921 #
loop $-1 $-1 $452 $444 #
plane-surface $-1 0 39.366340258260095 0 0 -1 0 0 0 -1 forward_v I I I I #
coedge $-1 $618 $447 $449 $622 reversed $299 $-1 #
coedge $-1 $447 $617 $727 $728 reversed $299 $-1 #
coedge $-1 $455 $450 $447 $620 forward $445 $-1 #
edge $-1 $623 -10.727131519829008 $729 2.5780146749045798 $619 $730 forward 7 unknown #
coedge $-1 $449 $448 $626 $731 reversed $188 $-1 #
edge $-1 $732 -78.732680516520162 $623 -61.103188768087946 $617 $733 forward 7 unknown #
vertex $-1 $451 $734 #
straight-curve $-1 24.963179321244994 26.0611940635265 16.862878867914027 1 0 0 I I #
coedge $-1 $727 $452 $455 $630 reversed $615 $-1 #
coedge $-1 $452 $727 $621 $731 forward $615 $-1 #
vertex $-1 $453 $735 #
straight-curve $-1 39.479427818873027 39.366340258260095 82.329940680892136 0 0 1 I I #
straight-curve $-1 39.479427818873027 -20.05396745813853 56.9501780468227 0 0.75470957328743171 -0.6560590369687036 I I #
edge $-1 $729 -60.373289466106947 $456 -39.479427818873027 $625 $736 forward 7 unknown #
point $-1 39.479427818873027 39.366340258260095 16.86287886791402 #
point $-1 39.479427818873027 26.061194063526507 16.86287886791402 #
edge $-1 $737 1 $737 0 $459 $-1 forward 7 unknown #
vertex $-1 $460 $738 #
ellipse-curve $-1 45.449102575225581 29.546225553328419 7.4360454624479715 0 0.6560590369687036 0.75470957328743171 1.5 0 0 1 I I #
point $-1 46.949102575225581 32.713767160893298 11.079885178551921 #
edge $-1 $739 1 $739 0 $463 $-1 forward 7 unknown #
vertex $-1 $464 $740 #
ellipse-curve $-1 54.403614709754407 29.546225553328419 7.4360454624479715 0 0.6560590369687036 0.75470957328743171 1.5 0 0 1 I I #
point $-1 55.903614709754407 32.713767160893298 11.079885178551921 #
plane-surface $-1 71.358378856776639 0 0 -1 0 0 0 0 1 forward_v I I I I #
coedge $-1 $472 $470 $474 $646 reversed $321 $-1 #
edge $-1 $485 -16.86287886791402 $648 16.86287886791402 $484 $741 forward 7 unknown #
vertex $-1 $646 $742 #
straight-curve $-1 -71.358378856776639 -39.366340258260095 0 0 0 -1 I I #
edge $-1 $644 -39.366340258260095 $648 39.366340258260095 $642 $743 forward 7 unknown #
straight-curve $-1 0 -39.366340258260095 -16.86287886791402 -1 0 0 I I #
vertex $-1 $477 $744 #
straight-curve $-1 0 39.366340258260095 -16.86287886791402 1 0 0 I I #
point $-1 71.358378856776639 39.366340258260095 -16.86287886791402 #
point $-1 71.358378856776639 -39.366340258260095 -16.86287886791402 #
straight-curve $-1 -71.358378856776639 0 16.86287886791402 0 -1 0 I I #
point $-1 -71.358378856776639 39.366340258260095 16.86287886791402 #
point $-1 -71.358378856776639 -39.366340258260095 16.86287886791402 #
straight-curve $-1 71.358378856776639 -39.366340258260095 0 0 0 -1 I I #
straight-curve $-1 71.358378856776639 39.366340258260095 0 0 0 -1 I I #
plane-surface $-1 0 39.366340258260095 0 0 -1 0 0 0 -1 forward_v I I I I #
coedge $-1 $498 $497 $745 $746 forward $210 $-1 #
edge $-1 $501 56.157425294837736 $747 71.358378856776639 $500 $748 forward 7 unknown #
coedge $-1 $506 $505 $498 $661 reversed $507 $-1 #
edge $-1 $749 -71.358378856776639 $662 -56.157425294837736 $660 $750 forward 7 unknown #
vertex $-1 $513 $751 #
straight-curve $-1 -56.157425294837736 0 -16.86287886791402 0 -1 0 I I #
point $-1 -56.157425294837736 -39.366340258260095 -16.86287886791402 #
coedge $-1 $745 $503 $506 $668 forward $495 $-1 #
coedge $-1 $503 $745 $510 $670 reversed $495 $-1 #
straight-curve $-1 -71.358378856776639 0 -8.1863211990014904 0 1 0 I I #
edge $-1 $508 8.1863211990014904 $749 16.86287886791402 $506 $752 forward 7 unknown #
point $-1 -71.358378856776639 39.366340258260095 -8.1863211990014904 #
edge $-1 $511 8.1863211990014904 $747 16.86287886791402 $666 $753 forward 7 unknown #
point $-1 -71.358378856776639 -39.366340258260095 -8.1863211990014904 #
straight-curve $-1 -56.157425294837736 39.366340258260095 -6.2623000167288776 0 0 -1 I I #
coedge $-1 $677 $521 $518 $674 reversed $516 $-1 #
edge $-1 $682 -39.366340258260095 $675 -27.552872752634528 $673 $754 forward 7 unknown #
vertex $-1 $520 $755 #
straight-curve $-1 29.636227650327136 -27.552872752634528 16.86287886791402 -1 0 0 I I #
coedge $-1 $521 $673 $523 $679 forward $516 $-1 #
straight-curve $-1 71.358378856776639 -32.522448598913726 10.268028787955512 0 0.60181501223851219 0.79863551827123203 I I #
edge $-1 $682 -16.86287886791402 $524 -1.1858775434663709 $677 $756 forward 7 unknown #
point $-1 71.358378856776625 -39.366340258260095 1.1858775434663709 #
point $-1 47.186531744531919 -27.552872752634528 16.86287886791402 #
vertex $-1 $674 $757 #
straight-curve $-1 0 -39.366340258260095 16.86287886791402 1 0 0 I I #
vertex $-1 $533 $758 #
point $-1 62.2724553006543 -25.71376572119383 3.1874686772187584 #
edge $-1 $687 65.467061812978116 $690 77.033049191702275 $538 $759 forward 7 unknown #
vertex $-1 $552 $760 #
straight-curve $-1 -35.263563647603824 36.788325583355515 16.86287886791402 0 1 0 I I #
edge $-1 $690 12.408316411993432 $549 33.302178059227352 $548 $761 forward 7 unknown #
vertex $-1 $689 $762 #
straight-curve $-1 -35.263563647603824 -20.05396745813853 56.9501780468227 0 -0.75470957328743171 0.6560590369687036 I I #
point $-1 -35.263563647603824 26.061194063526507 16.86287886791402 #
point $-1 -56.157425294837743 39.366340258260088 5.2968914891898677 #
straight-curve $-1 0 39.366340258260095 16.86287886791402 -1 0 0 I I #
vertex $-1 $555 $763 #
point $-1 -48.68775053848519 29.546225553328419 7.4360454624479715 #
vertex $-1 $559 $764 #
point $-1 -39.733238403956371 29.546225553328419 7.4360454624479715 #
coedge $-1 $574 $573 $566 $700 forward $563 $-1 #
edge $-1 $701 65.467061812978116 $704 77.033049191702275 $699 $765 forward 7 unknown #
vertex $-1 $578 $766 #
straight-curve $-1 -3.3846126097002358 36.788325583355515 16.86287886791402 0 1 0 I I #
edge $-1 $704 -3.531159106958361 $575 17.362702540275556 $574 $767 forward 7 unknown #
vertex $-1 $703 $768 #
straight-curve $-1 -3.3846126097002358 -20.05396745813853 56.9501780468227 0 -0.75470957328743171 0.6560590369687036 I I #
point $-1 -3.3846126097002358 26.061194063526507 16.86287886791402 #
point $-1 -24.278474256934153 39.366340258260088 5.2968914891898677 #
straight-curve $-1 0 39.366340258260095 16.86287886791402 -1 0 0 I I #
vertex $-1 $581 $769 #
point $-1 -16.8087995005816 29.546225553328419 7.4360454624479715 #
vertex $-1 $585 $770 #
point $-1 -7.8542873660527732 29.546225553328419 7.4360454624479715 #
coedge $-1 $600 $599 $592 $714 forward $589 $-1 #
edge $-1 $715 65.467061812978116 $718 77.033049191702275 $713 $771 forward 7 unknown #
vertex $-1 $604 $772 #
straight-curve $-1 28.494338428203356 36.788325583355515 16.86287886791402 0 1 0 I I #
edge $-1 $718 -19.470634625910158 $601 1.4232270213237594 $600 $773 forward 7 unknown #
vertex $-1 $717 $774 #
straight-curve $-1 28.494338428203356 -20.05396745813853 56.9501780468227 0 -0.75470957328743171 0.6560590369687036 I I #
point $-1 28.494338428203356 26.061194063526507 16.86287886791402 #
point $-1 7.6004767809694389 39.366340258260088 5.2968914891898677 #
straight-curve $-1 0 39.366340258260095 16.86287886791402 -1 0 0 I I #
vertex $-1 $607 $775 #
point $-1 15.070151537321991 29.546225553328419 7.4360454624479715 #
vertex $-1 $611 $776 #
point $-1 24.024663671850817 29.546225553328419 7.4360454624479715 #
coedge $-1 $626 $625 $618 $728 forward $615 $-1 #
edge $-1 $729 65.467061812978116 $732 77.033049191702275 $727 $777 forward 7 unknown #
vertex $-1 $630 $778 #
straight-curve $-1 60.373289466106947 36.788325583355515 16.86287886791402 0 1 0 I I #
edge $-1 $732 -35.410110144861953 $627 -14.516248497628034 $626 $779 forward 7 unknown #
vertex $-1 $731 $780 #
straight-curve $-1 60.373289466106947 -20.05396745813853 56.9501780468227 0 -0.75470957328743171 0.6560590369687036 I I #
point $-1 60.373289466106947 26.061194063526507 16.86287886791402 #
point $-1 39.479427818873027 39.366340258260088 5.2968914891898677 #
straight-curve $-1 0 39.366340258260095 16.86287886791402 -1 0 0 I I #
vertex $-1 $633 $781 #
point $-1 46.949102575225581 29.546225553328419 7.4360454624479715 #
vertex $-1 $637 $782 #
point $-1 55.903614709754407 29.546225553328419 7.4360454624479715 #
straight-curve $-1 -71.358378856776639 39.366340258260095 0 0 0 -1 I I #
point $-1 -71.358378856776639 -39.366340258260095 -16.86287886791402 #
straight-curve $-1 -71.358378856776639 0 -16.86287886791402 0 1 0 I I #
point $-1 -71.358378856776639 39.366340258260095 -16.86287886791402 #
coedge $-1 $666 $665 $658 $746 reversed $495 $-1 #
edge $-1 $747 -39.366340258260095 $749 39.366340258260095 $745 $783 forward 7 unknown #
vertex $-1 $746 $784 #
straight-curve $-1 0 -39.366340258260095 -16.86287886791402 -1 0 0 I I #
vertex $-1 $661 $785 #
straight-curve $-1 0 39.366340258260095 -16.86287886791402 1 0 0 I I #
point $-1 -56.157425294837736 39.366340258260095 -16.86287886791402 #
straight-curve $-1 -71.358378856776639 39.366340258260095 0 0 0 -1 I I #
straight-curve $-1 -71.358378856776639 -39.366340258260095 0 0 0 -1 I I #
straight-curve $-1 71.358378856776639 0 16.86287886791402 0 1 0 I I #
point $-1 71.358378856776625 -27.552872752634528 16.86287886791402 #
straight-curve $-1 71.358378856776639 -39.366340258260095 0 0 0 -1 I I #
point $-1 71.358378856776639 -39.366340258260095 16.86287886791402 #
point $-1 59.2724553006543 -23.317859166380131 1.382023640503222 #
straight-curve $-1 -35.263563647603824 39.366340258260095 82.329940680892136 0 0 -1 I I #
point $-1 -35.263563647603824 39.366340258260095 16.86287886791402 #
straight-curve $-1 -22.855247235610392 39.366340258260095 5.2968914891898713 -1 0 0 I I #
point $-1 -35.263563647603824 39.366340258260088 5.2968914891898677 #
point $-1 -50.18775053848519 28.562136997875363 6.303981102516822 #
point $-1 -41.233238403956371 28.562136997875363 6.303981102516822 #
straight-curve $-1 -3.3846126097002358 39.366340258260095 82.329940680892136 0 0 -1 I I #
point $-1 -3.3846126097002358 39.366340258260095 16.86287886791402 #
straight-curve $-1 -6.9157717166585968 39.366340258260095 5.2968914891898713 -1 0 0 I I #
point $-1 -3.3846126097002358 39.366340258260088 5.2968914891898677 #
point $-1 -18.3087995005816 28.562136997875363 6.303981102516822 #
point $-1 -9.3542873660527732 28.562136997875363 6.303981102516822 #
straight-curve $-1 28.494338428203356 39.366340258260095 82.329940680892136 0 0 -1 I I #
point $-1 28.494338428203356 39.366340258260095 16.86287886791402 #
straight-curve $-1 9.0237038022931984 39.366340258260095 5.2968914891898713 -1 0 0 I I #
point $-1 28.494338428203356 39.366340258260088 5.2968914891898677 #
point $-1 13.570151537321991 28.562136997875363 6.303981102516822 #
point $-1 22.524663671850817 28.562136997875363 6.303981102516822 #
straight-curve $-1 60.373289466106947 39.366340258260095 82.329940680892136 0 0 -1 I I #
point $-1 60.373289466106947 39.366340258260095 16.86287886791402 #
straight-curve $-1 24.963179321244994 39.366340258260095 5.2968914891898713 -1 0 0 I I #
point $-1 60.373289466106947 39.366340258260088 5.2968914891898677 #
point $-1 45.449102575225581 28.562136997875363 6.303981102516822 #
point $-1 54.403614709754407 28.562136997875363 6.303981102516822 #
straight-curve $-1 -71.358378856776639 0 -16.86287886791402 0 1 0 I I #
point $-1 -71.358378856776639 -39.366340258260095 -16.86287886791402 #
point $-1 -71.358378856776639 39.366340258260095 -16.86287886791402 #
End-of-ACIS-data 