500 0 3 0           
7 Unknown 11 ACIS 5.0 NT 24 Thu Mar 25 20:56:50 1999 
-1 9.9999999999999995e-007 1e-010 
body $-1 $3 $-1 $4 #
body $-1 $5 $-1 $6 #
body $-1 $7 $-1 $8 #
lump $-1 $-1 $9 $0 #
transform $-1 1 0 0 0 1 0 0 0 1 47.646717734305859 25.816793888423106 10.657946540344769 1 rotate no_reflect no_shear #
lump $-1 $-1 $10 $1 #
transform $-1 1 0 0 0 1 0 0 0 1 47.646717734305859 25.816793888423106 10.657946540344769 1 rotate no_reflect no_shear #
lump $-1 $-1 $11 $2 #
transform $-1 1 0 0 0 1 0 0 0 1 47.646717734305859 25.816793888423106 10.657946540344769 1 rotate no_reflect no_shear #
shell $-1 $-1 $-1 $12 $-1 $3 #
shell $-1 $-1 $-1 $13 $-1 $5 #
shell $-1 $-1 $-1 $14 $-1 $7 #
face $-1 $15 $16 $9 $-1 $17 forward single #
face $-1 $18 $19 $10 $-1 $20 forward single #
face $-1 $21 $22 $11 $-1 $23 reversed single #
face $-1 $24 $25 $9 $-1 $26 reversed single #
loop $-1 $-1 $27 $12 #
plane-surface $-1 0 0 10.657946540344769 0 0 1 1 0 0 forward_v I I I I #
face $-1 $28 $29 $10 $-1 $30 forward single #
loop $-1 $-1 $31 $13 #
plane-surface $-1 61.733525950904756 -0.98544796665093326 136.44800312867477 0 -1 0 -0.77714596973225614 0 -0.62932038083071107 forward_v I I I I #
face $-1 $32 $33 $11 $-1 $34 reversed single #
loop $-1 $35 $36 $14 #
cone-surface $-1 43.519167679473156 -7.8314963892953244 5.8977374198023274 -0.77714596973225614 0 -0.62932038083071107 0.9439805712460666 0 -1.1657189545983841 1 I I 0 1 1.5 forward I I I I #
face $-1 $37 $38 $9 $-1 $39 reversed single #
loop $-1 $-1 $40 $15 #
plane-surface $-1 0 0 -10.657946540344769 0 0 1 1 0 0 forward_v I I I I #
coedge $-1 $41 $42 $43 $44 forward $16 $-1 #
face $-1 $45 $46 $10 $-1 $47 forward single #
loop $-1 $-1 $48 $18 #
plane-surface $-1 -12.32338336546767 -7.8314963892953244 76.477902028901255 0.77714596973225614 0 0.62932038083071107 0.62932038083071107 0 -0.77714596973225614 forward_v I I I I #
coedge $-1 $49 $50 $51 $52 reversed $19 $-1 #
face $-1 $53 $54 $11 $-1 $55 forward single #
loop $-1 $56 $57 $21 #
cone-surface $-1 42.143834903637135 -7.8314963892953244 4.7840149275448223 -0.77714596973225614 0 -0.62932038083071107 0.4719902856230333 0 -0.58285947729919207 1 I I -0.70710678118654757 0.70710678118654757 0.75 forward I I I I #
loop $-1 $-1 $58 $14 #
coedge $-1 $36 $36 $59 $60 reversed $22 $-1 #
face $-1 $61 $62 $9 $-1 $63 reversed single #
loop $-1 $-1 $64 $24 #
plane-surface $-1 0 -25.816793888423106 0 0 1 0 0 0 1 forward_v I I I I #
coedge $-1 $65 $66 $67 $68 forward $25 $-1 #
coedge $-1 $69 $27 $70 $71 forward $16 $-1 #
coedge $-1 $27 $69 $72 $73 forward $16 $-1 #
coedge $-1 $74 $75 $27 $44 reversed $76 $-1 #
edge $-1 $77 -25.816793888423106 $78 25.816793888423106 $43 $79 forward 7 unknown #
face $-1 $80 $81 $10 $-1 $82 forward single #
loop $-1 $-1 $83 $28 #
plane-surface $-1 61.733525950904756 -14.677544811939715 136.44800312867477 0 1 0 0.77714596973225614 0 0.62932038083071107 forward_v I I I I #
coedge $-1 $84 $85 $86 $87 reversed $29 $-1 #
coedge $-1 $50 $31 $85 $88 forward $19 $-1 #
coedge $-1 $31 $49 $89 $90 reversed $19 $-1 #
coedge $-1 $91 $86 $31 $52 forward $81 $-1 #
edge $-1 $92 10.10980124626175 $93 16.779954758853481 $51 $94 forward 7 unknown #
face $-1 $95 $96 $11 $-1 $97 forward single #
loop $-1 $-1 $98 $32 #
plane-surface $-1 61.733525950904756 -0.98544796665093326 136.44800312867477 0 -1 0 -0.77714596973225614 0 -0.62932038083071107 forward_v I I I I #
loop $-1 $-1 $99 $21 #
coedge $-1 $57 $57 $58 $100 forward $33 $-1 #
coedge $-1 $58 $58 $57 $100 reversed $35 $-1 #
coedge $-1 $59 $59 $36 $60 forward $96 $-1 #
edge $-1 $101 0 $101 6.2831853071796004 $59 $102 forward 7 unknown #
face $-1 $103 $104 $9 $-1 $105 reversed single #
loop $-1 $-1 $106 $37 #
plane-surface $-1 -47.646717734305859 0 0 1 0 0 0 0 -1 forward_v I I I I #
coedge $-1 $107 $72 $108 $109 forward $38 $-1 #
coedge $-1 $110 $40 $107 $111 forward $25 $-1 #
coedge $-1 $40 $110 $112 $113 forward $25 $-1 #
coedge $-1 $75 $74 $40 $68 reversed $76 $-1 #
edge $-1 $114 -25.816793888423106 $115 25.816793888423106 $67 $116 forward 7 unknown #
coedge $-1 $42 $41 $117 $118 forward $16 $-1 #
coedge $-1 $119 $120 $41 $71 reversed $104 $-1 #
edge $-1 $78 -47.646717734305859 $121 47.646717734305859 $70 $122 forward 7 unknown #
coedge $-1 $64 $123 $42 $73 reversed $38 $-1 #
edge $-1 $124 -47.646717734305859 $77 47.646717734305859 $72 $125 forward 7 unknown #
coedge $-1 $67 $43 $123 $126 forward $76 $-1 #
coedge $-1 $43 $67 $119 $127 reversed $76 $-1 #
loop $-1 $-1 $74 $103 #
vertex $-1 $44 $128 #
vertex $-1 $44 $129 #
straight-curve $-1 47.646717734305859 0 10.657946540344769 0 1 0 I I #
face $-1 $130 $131 $10 $-1 $132 reversed single #
loop $-1 $-1 $133 $45 #
plane-surface $-1 0 0 10.657946540344769 0 0 1 1 0 0 forward_v I I I I #
coedge $-1 $134 $135 $133 $136 reversed $46 $-1 #
coedge $-1 $137 $48 $135 $138 reversed $29 $-1 #
coedge $-1 $48 $137 $49 $88 reversed $29 $-1 #
coedge $-1 $51 $133 $48 $87 forward $81 $-1 #
edge $-1 $139 -10.761796617292053 $92 2.930300227996729 $86 $140 forward 7 unknown #
edge $-1 $92 84.694456449710344 $141 95.293435468611733 $49 $142 forward 7 unknown #
coedge $-1 $143 $144 $50 $90 forward $145 $-1 #
edge $-1 $93 57.566055023992618 $141 65.803008851808571 $89 $146 forward 7 unknown #
coedge $-1 $147 $51 $144 $148 forward $81 $-1 #
vertex $-1 $87 $149 #
vertex $-1 $148 $150 #
straight-curve $-1 30.866762975452378 -0.98544796665093326 10.657946540344767 1 0 0 I I #
face $-1 $151 $152 $11 $-1 $153 forward single #
loop $-1 $154 $59 $53 #
plane-surface $-1 -12.32338336546767 -7.8314963892953244 76.477902028901255 0.77714596973225614 0 0.62932038083071107 0.62932038083071107 0 -0.77714596973225614 forward_v I I I I #
coedge $-1 $155 $156 $157 $158 reversed $54 $-1 #
coedge $-1 $99 $99 $-1 $159 forward $56 $-1 #
edge $-1 $160 0 $160 6.2831853071796004 $57 $161 forward 7 unknown #
vertex $-1 $60 $162 #
ellipse-curve $-1 44.311640978009983 -7.8314963892953244 6.5394696264367944 -0.77714596973225614 0 -0.62932038083071107 0.9439805712460666 0 -1.1657189545983841 1 I I #
face $-1 $-1 $76 $9 $-1 $163 reversed single #
loop $-1 $-1 $119 $61 #
plane-surface $-1 0 25.816793888423106 0 0 -1 0 0 0 -1 forward_v I I I I #
coedge $-1 $164 $117 $120 $165 forward $62 $-1 #
coedge $-1 $123 $64 $65 $111 reversed $38 $-1 #
coedge $-1 $117 $164 $64 $109 reversed $62 $-1 #
edge $-1 $124 -10.657946540344769 $166 10.657946540344769 $108 $167 forward 7 unknown #
coedge $-1 $66 $65 $164 $168 forward $25 $-1 #
edge $-1 $115 -47.646717734305859 $166 47.646717734305859 $107 $169 forward 7 unknown #
coedge $-1 $120 $119 $66 $113 reversed $104 $-1 #
edge $-1 $170 -47.646717734305859 $114 47.646717734305859 $112 $171 forward 7 unknown #
vertex $-1 $68 $172 #
vertex $-1 $126 $173 #
straight-curve $-1 47.646717734305859 0 -10.657946540344769 0 -1 0 I I #
coedge $-1 $106 $108 $69 $118 reversed $62 $-1 #
edge $-1 $121 -25.816793888423106 $124 25.816793888423106 $117 $174 forward 7 unknown #
coedge $-1 $112 $70 $75 $127 forward $104 $-1 #
coedge $-1 $70 $112 $106 $165 reversed $104 $-1 #
vertex $-1 $71 $175 #
straight-curve $-1 0 25.816793888423106 10.657946540344769 -1 0 0 I I #
coedge $-1 $72 $107 $74 $126 reversed $38 $-1 #
vertex $-1 $118 $176 #
straight-curve $-1 0 -25.816793888423106 10.657946540344769 1 0 0 I I #
edge $-1 $77 -10.657946540344769 $115 10.657946540344769 $74 $177 forward 7 unknown #
edge $-1 $78 -10.657946540344769 $114 10.657946540344769 $75 $178 forward 7 unknown #
point $-1 47.646717734305859 -25.816793888423106 10.657946540344769 #
point $-1 47.646717734305859 25.816793888423106 10.657946540344769 #
face $-1 $179 $180 $10 $-1 $181 reversed single #
loop $-1 $-1 $182 $80 #
plane-surface $-1 0 0 -10.657946540344769 0 0 1 1 0 0 forward_v I I I I #
coedge $-1 $86 $183 $83 $136 forward $81 $-1 #
coedge $-1 $135 $83 $184 $185 reversed $46 $-1 #
coedge $-1 $83 $134 $84 $138 forward $46 $-1 #
edge $-1 $186 -16.779954758853481 $139 -10.10980124626175 $133 $187 forward 7 unknown #
coedge $-1 $85 $84 $143 $188 reversed $29 $-1 #
edge $-1 $189 -95.293435468611733 $139 -84.694456449710344 $135 $190 forward 7 unknown #
vertex $-1 $87 $191 #
straight-curve $-1 40.976564221714121 -3.9157481946476622 10.657946540344767 0 1 0 I I #
vertex $-1 $188 $192 #
straight-curve $-1 -12.32338336546767 -0.98544796665093326 76.477902028901255 0.62932038083071107 0 -0.77714596973225614 I I #
coedge $-1 $184 $89 $137 $188 forward $145 $-1 #
coedge $-1 $89 $193 $91 $148 reversed $145 $-1 #
loop $-1 $-1 $184 $194 #
straight-curve $-1 47.646717734305859 -0.98544796665093326 68.224001564337385 0 0 -1 I I #
coedge $-1 $195 $91 $196 $197 forward $81 $-1 #
edge $-1 $93 -0.98544796665093326 $198 25.816793888423106 $144 $199 forward 7 unknown #
point $-1 40.976564221714128 -0.98544796665093326 10.657946540344767 #
point $-1 47.646717734305859 -0.98544796665093326 10.657946540344769 #
face $-1 $200 $201 $11 $-1 $202 forward single #
loop $-1 $-1 $203 $95 #
plane-surface $-1 61.733525950904756 -14.677544811939715 136.44800312867477 0 1 0 0.77714596973225614 0 0.62932038083071107 forward_v I I I I #
loop $-1 $-1 $204 $53 #
coedge $-1 $156 $98 $205 $206 forward $54 $-1 #
coedge $-1 $98 $155 $207 $208 reversed $54 $-1 #
coedge $-1 $209 $210 $98 $158 forward $201 $-1 #
edge $-1 $211 10.10980124626175 $212 16.779954758853481 $157 $213 forward 7 unknown #
edge $-1 $214 1 $214 0 $99 $-1 forward 7 unknown #
vertex $-1 $100 $215 #
ellipse-curve $-1 42.72669438093633 -7.8314963892953244 5.2560052131678558 0.77714596973225614 0 0.62932038083071107 0.9439805712460666 0 -1.1657189545983841 1 I I #
point $-1 45.255621549256055 -7.8314963892953244 5.3737506718384154 #
plane-surface $-1 47.646717734305859 0 0 -1 0 0 0 0 1 forward_v I I I I #
coedge $-1 $108 $106 $110 $168 reversed $62 $-1 #
edge $-1 $121 -10.657946540344769 $170 10.657946540344769 $120 $216 forward 7 unknown #
vertex $-1 $168 $217 #
straight-curve $-1 -47.646717734305859 -25.816793888423106 0 0 0 -1 I I #
edge $-1 $166 -25.816793888423106 $170 25.816793888423106 $164 $218 forward 7 unknown #
straight-curve $-1 0 -25.816793888423106 -10.657946540344769 -1 0 0 I I #
vertex $-1 $113 $219 #
straight-curve $-1 0 25.816793888423106 -10.657946540344769 1 0 0 I I #
point $-1 47.646717734305859 25.816793888423106 -10.657946540344769 #
point $-1 47.646717734305859 -25.816793888423106 -10.657946540344769 #
straight-curve $-1 -47.646717734305859 0 10.657946540344769 0 -1 0 I I #
point $-1 -47.646717734305859 25.816793888423106 10.657946540344769 #
point $-1 -47.646717734305859 -25.816793888423106 10.657946540344769 #
straight-curve $-1 47.646717734305859 -25.816793888423106 0 0 0 -1 I I #
straight-curve $-1 47.646717734305859 25.816793888423106 0 0 0 -1 I I #
face $-1 $220 $221 $10 $-1 $222 reversed single #
loop $-1 $-1 $223 $130 #
plane-surface $-1 0 -25.816793888423106 0 0 1 0 0 0 1 forward_v I I I I #
coedge $-1 $224 $225 $226 $227 forward $131 $-1 #
coedge $-1 $133 $228 $229 $230 forward $81 $-1 #
coedge $-1 $229 $143 $134 $185 forward $145 $-1 #
edge $-1 $189 -65.803008851808571 $186 -57.566055023992618 $184 $231 forward 7 unknown #
vertex $-1 $185 $232 #
straight-curve $-1 30.866762975452378 -14.677544811939715 10.657946540344767 -1 0 0 I I #
edge $-1 $141 -2.930300227996729 $189 10.761796617292053 $143 $233 forward 7 unknown #
vertex $-1 $188 $234 #
straight-curve $-1 -12.32338336546767 -14.677544811939715 76.477902028901255 -0.62932038083071107 0 0.77714596973225614 I I #
point $-1 40.976564221714128 -14.677544811939715 10.657946540344767 #
point $-1 47.646717734305852 -0.98544796665093326 2.4209927125288146 #
coedge $-1 $144 $226 $235 $236 reversed $145 $-1 #
face $-1 $-1 $145 $10 $-1 $237 reversed single #
coedge $-1 $228 $147 $238 $239 forward $81 $-1 #
coedge $-1 $235 $240 $147 $197 reversed $241 $-1 #
edge $-1 $198 -47.646717734305859 $242 47.646717734305859 $196 $243 forward 7 unknown #
vertex $-1 $148 $244 #
straight-curve $-1 47.646717734305859 0 10.657946540344769 0 1 0 I I #
face $-1 $245 $246 $11 $-1 $247 reversed single #
loop $-1 $-1 $248 $151 #
plane-surface $-1 0 0 10.657946540344769 0 0 1 1 0 0 forward_v I I I I #
coedge $-1 $249 $250 $248 $251 reversed $152 $-1 #
coedge $-1 $252 $205 $210 $253 reversed $154 $-1 #
coedge $-1 $204 $254 $155 $206 reversed $154 $-1 #
edge $-1 $211 84.694456449710344 $255 95.293435468611733 $155 $256 forward 7 unknown #
coedge $-1 $257 $258 $156 $208 forward $259 $-1 #
edge $-1 $212 57.566055023992618 $255 65.803008851808571 $207 $260 forward 7 unknown #
coedge $-1 $261 $157 $258 $262 forward $201 $-1 #
coedge $-1 $157 $248 $204 $253 forward $201 $-1 #
vertex $-1 $253 $263 #
vertex $-1 $262 $264 #
straight-curve $-1 30.866762975452378 -0.98544796665093326 10.657946540344767 1 0 0 I I #
vertex $-1 $159 $265 #
point $-1 43.670674952182395 -7.8314963892953244 4.0902862585694715 #
straight-curve $-1 -47.646717734305859 25.816793888423106 0 0 0 -1 I I #
point $-1 -47.646717734305859 -25.816793888423106 -10.657946540344769 #
straight-curve $-1 -47.646717734305859 0 -10.657946540344769 0 1 0 I I #
point $-1 -47.646717734305859 25.816793888423106 -10.657946540344769 #
face $-1 $194 $241 $10 $-1 $266 reversed single #
loop $-1 $-1 $267 $179 #
plane-surface $-1 -47.646717734305859 0 0 1 0 0 0 0 -1 forward_v I I I I #
coedge $-1 $268 $269 $270 $271 forward $180 $-1 #
coedge $-1 $272 $182 $268 $273 forward $131 $-1 #
coedge $-1 $182 $272 $274 $275 forward $131 $-1 #
coedge $-1 $193 $276 $182 $227 reversed $145 $-1 #
edge $-1 $277 -25.816793888423106 $278 25.816793888423106 $226 $279 forward 7 unknown #
coedge $-1 $183 $195 $269 $280 forward $81 $-1 #
coedge $-1 $276 $184 $183 $230 reversed $145 $-1 #
edge $-1 $281 -25.816793888423106 $186 -14.677544811939715 $229 $199 forward 7 unknown #
straight-curve $-1 47.646717734305859 -14.677544811939715 68.224001564337385 0 0 1 I I #
point $-1 47.646717734305859 -14.677544811939715 10.657946540344769 #
straight-curve $-1 47.646717734305859 -3.9157481946476622 2.4209927125288146 0 -1 0 I I #
point $-1 47.646717734305852 -14.677544811939715 2.4209927125288146 #
coedge $-1 $274 $196 $193 $236 forward $241 $-1 #
edge $-1 $198 -10.657946540344769 $277 10.657946540344769 $193 $282 forward 7 unknown #
plane-surface $-1 47.646717734305859 0 0 -1 0 0 0 0 1 forward_v I I I I #
coedge $-1 $267 $270 $195 $239 reversed $221 $-1 #
edge $-1 $242 -25.816793888423106 $283 25.816793888423106 $238 $284 forward 7 unknown #
coedge $-1 $196 $274 $267 $285 reversed $241 $-1 #
loop $-1 $-1 $235 $220 #
vertex $-1 $197 $286 #
straight-curve $-1 0 25.816793888423106 10.657946540344769 -1 0 0 I I #
point $-1 47.646717734305859 25.816793888423106 10.657946540344769 #
face $-1 $287 $288 $11 $-1 $289 reversed single #
loop $-1 $-1 $290 $200 #
plane-surface $-1 0 0 -10.657946540344769 0 0 1 1 0 0 forward_v I I I I #
coedge $-1 $210 $291 $203 $251 forward $201 $-1 #
coedge $-1 $250 $203 $292 $293 reversed $152 $-1 #
coedge $-1 $203 $249 $252 $294 forward $152 $-1 #
edge $-1 $295 -16.779954758853481 $296 -10.10980124626175 $248 $297 forward 7 unknown #
coedge $-1 $254 $204 $250 $294 reversed $154 $-1 #
edge $-1 $296 -10.761796617292053 $211 2.930300227996729 $210 $298 forward 7 unknown #
coedge $-1 $205 $252 $257 $299 reversed $154 $-1 #
vertex $-1 $299 $300 #
straight-curve $-1 -12.32338336546767 -0.98544796665093326 76.477902028901255 0.62932038083071107 0 -0.77714596973225614 I I #
coedge $-1 $292 $207 $254 $299 forward $259 $-1 #
coedge $-1 $207 $301 $209 $262 reversed $259 $-1 #
loop $-1 $-1 $292 $302 #
straight-curve $-1 47.646717734305859 -0.98544796665093326 68.224001564337385 0 0 -1 I I #
coedge $-1 $303 $209 $304 $305 forward $201 $-1 #
edge $-1 $212 -0.98544796665093326 $306 25.816793888423106 $258 $307 forward 7 unknown #
point $-1 40.976564221714128 -0.98544796665093326 10.657946540344767 #
point $-1 47.646717734305859 -0.98544796665093326 10.657946540344769 #
point $-1 41.56097542633794 -7.8314963892953244 4.3120246419217887 #
plane-surface $-1 0 25.816793888423106 0 0 -1 0 0 0 -1 forward_v I I I I #
coedge $-1 $308 $238 $240 $285 forward $221 $-1 #
coedge $-1 $309 $223 $224 $273 reversed $180 $-1 #
coedge $-1 $223 $309 $228 $280 reversed $180 $-1 #
coedge $-1 $238 $308 $223 $271 reversed $221 $-1 #
edge $-1 $283 -10.657946540344769 $310 10.657946540344769 $270 $311 forward 7 unknown #
coedge $-1 $225 $224 $308 $312 forward $131 $-1 #
edge $-1 $278 -47.646717734305859 $310 47.646717734305859 $268 $313 forward 7 unknown #
coedge $-1 $240 $235 $225 $275 reversed $241 $-1 #
edge $-1 $314 -47.646717734305859 $277 47.646717734305859 $274 $315 forward 7 unknown #
coedge $-1 $226 $229 $309 $316 forward $145 $-1 #
vertex $-1 $227 $317 #
vertex $-1 $316 $318 #
straight-curve $-1 47.646717734305859 0 -10.657946540344769 0 -1 0 I I #
edge $-1 $283 -47.646717734305859 $281 47.646717734305859 $269 $319 forward 7 unknown #
vertex $-1 $230 $320 #
straight-curve $-1 47.646717734305859 25.816793888423106 0 0 0 -1 I I #
vertex $-1 $239 $321 #
straight-curve $-1 -47.646717734305859 0 10.657946540344769 0 -1 0 I I #
edge $-1 $242 -10.657946540344769 $314 10.657946540344769 $240 $322 forward 7 unknown #
point $-1 -47.646717734305859 25.816793888423106 10.657946540344769 #
face $-1 $323 $324 $11 $-1 $325 reversed single #
loop $-1 $-1 $326 $245 #
plane-surface $-1 0 -25.816793888423106 0 0 1 0 0 0 1 forward_v I I I I #
coedge $-1 $327 $328 $329 $330 forward $246 $-1 #
coedge $-1 $248 $331 $332 $333 forward $201 $-1 #
coedge $-1 $332 $257 $249 $293 forward $259 $-1 #
edge $-1 $334 -65.803008851808571 $295 -57.566055023992618 $292 $335 forward 7 unknown #
edge $-1 $334 -95.293435468611733 $296 -84.694456449710344 $250 $336 forward 7 unknown #
vertex $-1 $293 $337 #
vertex $-1 $253 $338 #
straight-curve $-1 30.866762975452378 -14.677544811939715 10.657946540344767 -1 0 0 I I #
straight-curve $-1 40.976564221714121 -3.9157481946476622 10.657946540344767 0 1 0 I I #
edge $-1 $255 -2.930300227996729 $334 10.761796617292053 $257 $339 forward 7 unknown #
point $-1 47.646717734305852 -0.98544796665093326 2.4209927125288146 #
coedge $-1 $258 $329 $340 $341 reversed $259 $-1 #
face $-1 $-1 $259 $11 $-1 $342 reversed single #
coedge $-1 $331 $261 $343 $344 forward $201 $-1 #
coedge $-1 $340 $345 $261 $305 reversed $346 $-1 #
edge $-1 $306 -47.646717734305859 $347 47.646717734305859 $304 $348 forward 7 unknown #
vertex $-1 $262 $349 #
straight-curve $-1 47.646717734305859 0 10.657946540344769 0 1 0 I I #
coedge $-1 $270 $267 $272 $312 reversed $221 $-1 #
coedge $-1 $269 $268 $276 $316 reversed $180 $-1 #
vertex $-1 $312 $350 #
straight-curve $-1 -47.646717734305859 -25.816793888423106 0 0 0 -1 I I #
edge $-1 $310 -25.816793888423106 $314 25.816793888423106 $308 $351 forward 7 unknown #
straight-curve $-1 0 -25.816793888423106 -10.657946540344769 -1 0 0 I I #
vertex $-1 $275 $352 #
straight-curve $-1 0 25.816793888423106 -10.657946540344769 1 0 0 I I #
edge $-1 $281 -10.657946540344769 $278 10.657946540344769 $276 $353 forward 7 unknown #
point $-1 47.646717734305859 25.816793888423106 -10.657946540344769 #
point $-1 47.646717734305859 -25.816793888423106 -10.657946540344769 #
straight-curve $-1 0 -25.816793888423106 10.657946540344769 1 0 0 I I #
point $-1 47.646717734305859 -25.816793888423106 10.657946540344769 #
point $-1 -47.646717734305859 -25.816793888423106 10.657946540344769 #
straight-curve $-1 -47.646717734305859 25.816793888423106 0 0 0 -1 I I #
face $-1 $302 $346 $11 $-1 $354 reversed single #
loop $-1 $-1 $355 $287 #
plane-surface $-1 -47.646717734305859 0 0 1 0 0 0 0 -1 forward_v I I I I #
coedge $-1 $356 $357 $358 $359 forward $288 $-1 #
coedge $-1 $360 $290 $356 $361 forward $246 $-1 #
coedge $-1 $290 $360 $362 $363 forward $246 $-1 #
coedge $-1 $301 $364 $290 $330 reversed $259 $-1 #
edge $-1 $365 -25.816793888423106 $366 25.816793888423106 $329 $367 forward 7 unknown #
coedge $-1 $291 $303 $357 $368 forward $201 $-1 #
coedge $-1 $364 $292 $291 $333 reversed $259 $-1 #
edge $-1 $369 -25.816793888423106 $295 -14.677544811939715 $332 $307 forward 7 unknown #
vertex $-1 $299 $370 #
straight-curve $-1 47.646717734305859 -14.677544811939715 68.224001564337385 0 0 1 I I #
straight-curve $-1 -12.32338336546767 -14.677544811939715 76.477902028901255 -0.62932038083071107 0 0.77714596973225614 I I #
point $-1 47.646717734305859 -14.677544811939715 10.657946540344769 #
point $-1 40.976564221714128 -14.677544811939715 10.657946540344767 #
straight-curve $-1 47.646717734305859 -3.9157481946476622 2.4209927125288146 0 -1 0 I I #
coedge $-1 $362 $304 $301 $341 forward $346 $-1 #
edge $-1 $306 -10.657946540344769 $365 10.657946540344769 $301 $371 forward 7 unknown #
plane-surface $-1 47.646717734305859 0 0 -1 0 0 0 0 1 forward_v I I I I #
coedge $-1 $355 $358 $303 $344 reversed $324 $-1 #
edge $-1 $347 -25.816793888423106 $372 25.816793888423106 $343 $373 forward 7 unknown #
coedge $-1 $304 $362 $355 $374 reversed $346 $-1 #
loop $-1 $-1 $340 $323 #
vertex $-1 $305 $375 #
straight-curve $-1 0 25.816793888423106 10.657946540344769 -1 0 0 I I #
point $-1 47.646717734305859 25.816793888423106 10.657946540344769 #
point $-1 -47.646717734305859 -25.816793888423106 -10.657946540344769 #
straight-curve $-1 -47.646717734305859 0 -10.657946540344769 0 1 0 I I #
point $-1 -47.646717734305859 25.816793888423106 -10.657946540344769 #
straight-curve $-1 47.646717734305859 -25.816793888423106 0 0 0 -1 I I #
plane-surface $-1 0 25.816793888423106 0 0 -1 0 0 0 -1 forward_v I I I I #
coedge $-1 $376 $343 $345 $374 forward $324 $-1 #
coedge $-1 $377 $326 $327 $361 reversed $288 $-1 #
coedge $-1 $326 $377 $331 $368 reversed $288 $-1 #
coedge $-1 $343 $376 $326 $359 reversed $324 $-1 #
edge $-1 $372 -10.657946540344769 $378 10.657946540344769 $358 $379 forward 7 unknown #
coedge $-1 $328 $327 $376 $380 forward $246 $-1 #
edge $-1 $366 -47.646717734305859 $378 47.646717734305859 $356 $381 forward 7 unknown #
coedge $-1 $345 $340 $328 $363 reversed $346 $-1 #
edge $-1 $382 -47.646717734305859 $365 47.646717734305859 $362 $383 forward 7 unknown #
coedge $-1 $329 $332 $377 $384 forward $259 $-1 #
vertex $-1 $330 $385 #
vertex $-1 $384 $386 #
straight-curve $-1 47.646717734305859 0 -10.657946540344769 0 -1 0 I I #
edge $-1 $372 -47.646717734305859 $369 47.646717734305859 $357 $387 forward 7 unknown #
vertex $-1 $333 $388 #
point $-1 47.646717734305852 -14.677544811939715 2.4209927125288146 #
straight-curve $-1 47.646717734305859 25.816793888423106 0 0 0 -1 I I #
vertex $-1 $344 $389 #
straight-curve $-1 -47.646717734305859 0 10.657946540344769 0 -1 0 I I #
edge $-1 $347 -10.657946540344769 $382 10.657946540344769 $345 $390 forward 7 unknown #
point $-1 -47.646717734305859 25.816793888423106 10.657946540344769 #
coedge $-1 $358 $355 $360 $380 reversed $324 $-1 #
coedge $-1 $357 $356 $364 $384 reversed $288 $-1 #
vertex $-1 $380 $391 #
straight-curve $-1 -47.646717734305859 -25.816793888423106 0 0 0 -1 I I #
edge $-1 $378 -25.816793888423106 $382 25.816793888423106 $376 $392 forward 7 unknown #
straight-curve $-1 0 -25.816793888423106 -10.657946540344769 -1 0 0 I I #
vertex $-1 $363 $393 #
straight-curve $-1 0 25.816793888423106 -10.657946540344769 1 0 0 I I #
edge $-1 $369 -10.657946540344769 $366 10.657946540344769 $364 $394 forward 7 unknown #
point $-1 47.646717734305859 25.816793888423106 -10.657946540344769 #
point $-1 47.646717734305859 -25.816793888423106 -10.657946540344769 #
straight-curve $-1 0 -25.816793888423106 10.657946540344769 1 0 0 I I #
point $-1 47.646717734305859 -25.816793888423106 10.657946540344769 #
point $-1 -47.646717734305859 -25.816793888423106 10.657946540344769 #
straight-curve $-1 -47.646717734305859 25.816793888423106 0 0 0 -1 I I #
point $-1 -47.646717734305859 -25.816793888423106 -10.657946540344769 #
straight-curve $-1 -47.646717734305859 0 -10.657946540344769 0 1 0 I I #
point $-1 -47.646717734305859 25.816793888423106 -10.657946540344769 #
straight-curve $-1 47.646717734305859 -25.816793888423106 0 0 0 -1 I I #
End-of-ACIS-data 