500 0 8 0           
7 Unknown 11 ACIS 5.0 NT 24 Thu Mar 25 21:13:01 1999 
-1 9.9999999999999995e-007 1e-010 
body $-1 $8 $-1 $9 #
body $-1 $10 $-1 $11 #
body $-1 $12 $-1 $13 #
body $-1 $14 $-1 $15 #
body $-1 $16 $-1 $17 #
body $-1 $18 $-1 $19 #
body $-1 $20 $-1 $21 #
body $-1 $22 $-1 $23 #
lump $-1 $-1 $24 $0 #
transform $-1 1 0 0 0 1 0 0 0 1 65.82110049745171 31.533945732874429 10.068112230847673 1 rotate no_reflect no_shear #
lump $-1 $-1 $25 $1 #
transform $-1 1 0 0 0 1 0 0 0 1 65.82110049745171 31.533945732874429 10.068112230847673 1 rotate no_reflect no_shear #
lump $-1 $-1 $26 $2 #
transform $-1 1 0 0 0 1 0 0 0 1 65.82110049745171 31.533945732874429 10.068112230847673 1 rotate no_reflect no_shear #
lump $-1 $-1 $27 $3 #
transform $-1 1 0 0 0 1 0 0 0 1 65.82110049745171 31.533945732874429 10.068112230847673 1 rotate no_reflect no_shear #
lump $-1 $-1 $28 $4 #
transform $-1 1 0 0 0 1 0 0 0 1 65.82110049745171 31.533945732874429 10.068112230847673 1 rotate no_reflect no_shear #
lump $-1 $-1 $29 $5 #
transform $-1 1 0 0 0 1 0 0 0 1 65.82110049745171 31.533945732874429 10.068112230847673 1 rotate no_reflect no_shear #
lump $-1 $-1 $30 $6 #
transform $-1 1 0 0 0 1 0 0 0 1 65.82110049745171 31.533945732874429 10.068112230847673 1 rotate no_reflect no_shear #
lump $-1 $-1 $31 $7 #
transform $-1 1 0 0 0 1 0 0 0 1 65.82110049745171 31.533945732874429 10.068112230847673 1 rotate no_reflect no_shear #
shell $-1 $-1 $-1 $32 $-1 $8 #
shell $-1 $-1 $-1 $33 $-1 $10 #
shell $-1 $-1 $-1 $34 $-1 $12 #
shell $-1 $-1 $-1 $35 $-1 $14 #
shell $-1 $-1 $-1 $36 $-1 $16 #
shell $-1 $-1 $-1 $37 $-1 $18 #
shell $-1 $-1 $-1 $38 $-1 $20 #
shell $-1 $-1 $-1 $39 $-1 $22 #
face $-1 $40 $41 $24 $-1 $42 forward single #
face $-1 $43 $44 $25 $-1 $45 forward single #
face $-1 $46 $47 $26 $-1 $48 forward single #
face $-1 $49 $50 $27 $-1 $51 reversed single #
face $-1 $52 $53 $28 $-1 $54 forward single #
face $-1 $55 $56 $29 $-1 $57 reversed single #
face $-1 $58 $59 $30 $-1 $60 forward single #
face $-1 $61 $62 $31 $-1 $63 forward single #
face $-1 $64 $65 $24 $-1 $66 reversed single #
loop $-1 $-1 $67 $32 #
plane-surface $-1 0 0 10.068112230847673 0 0 1 1 0 0 forward_v I I I I #
face $-1 $68 $69 $25 $-1 $70 reversed single #
loop $-1 $-1 $71 $33 #
plane-surface $-1 0 -27.25519314726353 -6.4733103804012107 0 0 1 1 0 0 forward_v I I I I #
face $-1 $72 $73 $26 $-1 $74 reversed single #
loop $-1 $-1 $75 $34 #
plane-surface $-1 0 27.255193147263526 -6.4733103804012107 0 0 1 1 0 0 forward_v I I I I #
face $-1 $76 $77 $27 $-1 $78 reversed single #
loop $-1 $-1 $79 $35 #
plane-surface $-1 114.00549305361324 -6.689363402551761 186.43675363961628 0 -1 0 -0.86602541151947299 0 -0.49999998660252726 forward_v I I I I #
face $-1 $80 $81 $28 $-1 $82 forward single #
loop $-1 $83 $84 $36 #
cone-surface $-1 64.389864045512269 -11.878729350030639 8.0891379300710611 -0.86602541151947299 0 -0.49999998660252726 0.12499999665063181 0 -0.21650635287986825 1 I I 0 1 0.25 forward I I I I #
face $-1 $85 $86 $29 $-1 $87 reversed single #
loop $-1 $-1 $88 $37 #
plane-surface $-1 -160.5165761618552 11.18272542301802 98.489230069217086 0 1 0 -0.71933980857756763 0 0.69465836192734942 forward_v I I I I #
face $-1 $89 $90 $30 $-1 $91 forward single #
loop $-1 $92 $93 $38 #
cone-surface $-1 -63.862115598196262 13.215412523197124 8.074323609930925 0.71933980857756763 0 -0.69465836192734942 0.34732918096367471 0 0.35966990428878381 1 I I 0 1 0.5 forward I I I I #
face $-1 $94 $95 $31 $-1 $96 forward single #
loop $-1 $97 $98 $39 #
cone-surface $-1 -63.862115598196262 16.264443173465779 8.074323609930925 0.71933980857756763 0 -0.69465836192734942 0.34732918096367471 0 0.35966990428878381 1 I I 0 1 0.5 forward I I I I #
face $-1 $99 $100 $24 $-1 $101 reversed single #
loop $-1 $-1 $102 $40 #
plane-surface $-1 0 0 -10.068112230847673 0 0 1 1 0 0 forward_v I I I I #
coedge $-1 $103 $104 $105 $106 forward $41 $-1 #
face $-1 $107 $108 $25 $-1 $109 reversed single #
loop $-1 $-1 $110 $43 #
plane-surface $-1 0 -22.97644056165263 -8.2707113056244417 0 -1 0 0 0 -1 forward_v I I I I #
coedge $-1 $111 $112 $113 $114 reversed $44 $-1 #
face $-1 $115 $116 $26 $-1 $117 reversed single #
loop $-1 $-1 $118 $46 #
plane-surface $-1 0 22.976440561652627 -8.2707113056244417 0 1 0 0 0 1 forward_v I I I I #
coedge $-1 $119 $120 $121 $122 reversed $47 $-1 #
face $-1 $123 $124 $27 $-1 $125 reversed single #
loop $-1 $-1 $126 $49 #
plane-surface $-1 1.7636728273373592e-006 -11.878729350030639 120.61565490583737 0.86602541151947299 0 0.49999998660252726 0.49999998660252726 0 -0.86602541151947299 forward_v I I I I #
coedge $-1 $127 $128 $129 $130 reversed $50 $-1 #
face $-1 $-1 $131 $28 $-1 $132 forward single #
loop $-1 $133 $134 $52 #
cone-surface $-1 63.848598163312602 -11.878729350030639 7.7766379384444821 -0.86602541151947299 0 -0.49999998660252726 0.062499998325315907 0 -0.10825317643993412 1 I I -0.70710678118654746 0.70710678118654746 0.125 forward I I I I #
loop $-1 $-1 $135 $36 #
coedge $-1 $84 $84 $136 $137 reversed $53 $-1 #
face $-1 $138 $139 $29 $-1 $140 reversed single #
loop $-1 $-1 $141 $55 #
plane-surface $-1 -65.821100497451695 14.739927848331455 7.0428743655865844 -0.71933980857756763 0 0.69465836192734942 0.69465836192734942 0 0.71933980857756763 forward_v I I I I #
coedge $-1 $142 $143 $144 $145 reversed $56 $-1 #
face $-1 $-1 $146 $30 $-1 $147 forward single #
loop $-1 $148 $149 $58 #
cone-surface $-1 -63.184014835927876 13.215412523197124 7.4194893311628665 0.71933980857756763 0 -0.69465836192734942 0.17366459048183736 0 0.17983495214439191 1 I I -0.70710678118654746 0.70710678118654746 0.25 forward I I I I #
loop $-1 $-1 $150 $38 #
coedge $-1 $93 $93 $151 $152 reversed $59 $-1 #
face $-1 $-1 $153 $31 $-1 $154 forward single #
loop $-1 $155 $156 $61 #
cone-surface $-1 -63.184014835927876 16.264443173465779 7.4194893311628665 0.71933980857756763 0 -0.69465836192734942 0.17366459048183736 0 0.17983495214439191 1 I I -0.70710678118654746 0.70710678118654746 0.25 forward I I I I #
loop $-1 $-1 $157 $39 #
coedge $-1 $98 $98 $158 $159 reversed $62 $-1 #
face $-1 $160 $161 $24 $-1 $162 reversed single #
loop $-1 $-1 $163 $64 #
plane-surface $-1 0 -31.533945732874429 0 0 1 0 0 0 1 forward_v I I I I #
coedge $-1 $164 $165 $166 $167 forward $65 $-1 #
coedge $-1 $168 $67 $169 $170 forward $41 $-1 #
coedge $-1 $67 $168 $171 $172 forward $41 $-1 #
coedge $-1 $173 $174 $67 $106 reversed $175 $-1 #
edge $-1 $176 -31.533945732874429 $177 31.533945732874429 $105 $178 forward 7 unknown #
face $-1 $179 $180 $25 $-1 $181 reversed single #
loop $-1 $-1 $182 $68 #
plane-surface $-1 0 0 -10.068112230847673 0 0 1 1 0 0 forward_v I I I I #
coedge $-1 $183 $184 $185 $186 reversed $69 $-1 #
coedge $-1 $187 $71 $184 $188 forward $44 $-1 #
coedge $-1 $71 $187 $189 $190 reversed $44 $-1 #
coedge $-1 $191 $185 $71 $114 forward $180 $-1 #
edge $-1 $192 9.3488439880208656 $193 17.906349159242666 $113 $194 forward 7 unknown #
face $-1 $195 $196 $26 $-1 $197 reversed single #
loop $-1 $-1 $121 $72 #
plane-surface $-1 65.82110049745171 0 0 -1 0 0 0 0 1 forward_v I I I I #
coedge $-1 $198 $199 $200 $201 reversed $73 $-1 #
coedge $-1 $202 $75 $203 $204 reversed $47 $-1 #
coedge $-1 $75 $202 $199 $205 forward $47 $-1 #
coedge $-1 $206 $207 $75 $122 forward $116 $-1 #
edge $-1 $208 -17.906349159242662 $209 -9.3488439880208638 $121 $210 forward 7 unknown #
face $-1 $211 $212 $27 $-1 $213 forward single #
loop $-1 $-1 $214 $76 #
plane-surface $-1 114.00549305361324 -17.068095297509515 186.43675363961628 0 1 0 0.86602541151947299 0 0.49999998660252726 forward_v I I I I #
coedge $-1 $215 $216 $217 $218 reversed $77 $-1 #
coedge $-1 $128 $79 $219 $220 reversed $50 $-1 #
coedge $-1 $79 $127 $215 $221 reversed $50 $-1 #
coedge $-1 $217 $222 $79 $130 forward $212 $-1 #
edge $-1 $223 -8.8183539706450915 $224 -6.8219064782857046 $129 $225 forward 7 unknown #
loop $-1 $-1 $136 $80 #
plane-surface $-1 1.7636728273373592e-006 -11.878729350030639 120.61565490583737 0.86602541151947299 0 0.49999998660252726 0.49999998660252726 0 -0.86602541151947299 forward_v I I I I #
loop $-1 $-1 $226 $52 #
coedge $-1 $134 $134 $135 $227 reversed $81 $-1 #
coedge $-1 $135 $135 $134 $227 forward $83 $-1 #
coedge $-1 $136 $136 $84 $137 forward $131 $-1 #
edge $-1 $228 0 $228 6.2831853071796004 $136 $229 forward 7 unknown #
face $-1 $230 $231 $29 $-1 $232 reversed single #
loop $-1 $-1 $233 $85 #
plane-surface $-1 -160.5165761618552 18.297130273644889 98.489230069217086 0 -1 0 0.71933980857756763 0 -0.69465836192734942 forward_v I I I I #
coedge $-1 $234 $235 $236 $237 reversed $86 $-1 #
coedge $-1 $143 $88 $238 $239 reversed $56 $-1 #
coedge $-1 $88 $142 $234 $240 reversed $56 $-1 #
coedge $-1 $236 $241 $88 $145 forward $242 $-1 #
edge $-1 $243 14.43718758347589 $244 17.358625761738843 $144 $245 forward 7 unknown #
loop $-1 $-1 $151 $89 #
plane-surface $-1 -65.821100497451695 14.739927848331455 7.0428743655865844 -0.71933980857756763 0 0.69465836192734942 0.69465836192734942 0 0.71933980857756763 forward_v I I I I #
loop $-1 $-1 $246 $58 #
coedge $-1 $149 $149 $150 $247 reversed $90 $-1 #
coedge $-1 $150 $150 $149 $247 forward $92 $-1 #
coedge $-1 $151 $151 $93 $152 forward $146 $-1 #
edge $-1 $248 0 $248 6.2831853071796004 $151 $249 forward 7 unknown #
loop $-1 $-1 $158 $94 #
plane-surface $-1 -65.821100497451695 14.739927848331455 7.0428743655865844 -0.71933980857756763 0 0.69465836192734942 0.69465836192734942 0 0.71933980857756763 forward_v I I I I #
loop $-1 $-1 $250 $61 #
coedge $-1 $156 $156 $157 $251 reversed $95 $-1 #
coedge $-1 $157 $157 $156 $251 forward $97 $-1 #
coedge $-1 $158 $158 $98 $159 forward $153 $-1 #
edge $-1 $252 0 $252 6.2831853071796004 $158 $253 forward 7 unknown #
face $-1 $254 $255 $24 $-1 $256 reversed single #
loop $-1 $-1 $257 $99 #
plane-surface $-1 -65.82110049745171 0 0 1 0 0 0 0 -1 forward_v I I I I #
coedge $-1 $258 $171 $259 $260 forward $100 $-1 #
coedge $-1 $261 $102 $258 $262 forward $65 $-1 #
coedge $-1 $102 $261 $263 $264 forward $65 $-1 #
coedge $-1 $174 $173 $102 $167 reversed $175 $-1 #
edge $-1 $265 -31.533945732874429 $266 31.533945732874429 $166 $267 forward 7 unknown #
coedge $-1 $104 $103 $268 $269 forward $41 $-1 #
coedge $-1 $270 $271 $103 $170 reversed $255 $-1 #
edge $-1 $177 -65.82110049745171 $272 65.82110049745171 $169 $273 forward 7 unknown #
coedge $-1 $163 $274 $104 $172 reversed $100 $-1 #
edge $-1 $275 -65.82110049745171 $176 65.82110049745171 $171 $276 forward 7 unknown #
coedge $-1 $166 $105 $274 $277 forward $175 $-1 #
coedge $-1 $105 $166 $270 $278 reversed $175 $-1 #
loop $-1 $-1 $173 $254 #
vertex $-1 $106 $279 #
vertex $-1 $106 $280 #
straight-curve $-1 65.82110049745171 0 10.068112230847673 0 1 0 I I #
face $-1 $281 $282 $25 $-1 $283 reversed single #
loop $-1 $-1 $185 $107 #
plane-surface $-1 65.82110049745171 0 0 -1 0 0 0 0 1 forward_v I I I I #
coedge $-1 $284 $285 $183 $286 forward $108 $-1 #
coedge $-1 $287 $110 $182 $286 reversed $69 $-1 #
coedge $-1 $110 $287 $111 $188 reversed $69 $-1 #
coedge $-1 $113 $288 $110 $186 forward $180 $-1 #
edge $-1 $289 -5.9327565780354519 $192 -2.3379547275889898 $185 $290 forward 7 unknown #
coedge $-1 $112 $111 $291 $292 reversed $44 $-1 #
edge $-1 $192 -65.82110049745171 $293 65.82110049745171 $184 $294 forward 7 unknown #
coedge $-1 $295 $296 $112 $190 forward $282 $-1 #
edge $-1 $193 -65.82110049745171 $297 65.82110049745171 $189 $298 forward 7 unknown #
coedge $-1 $288 $113 $296 $299 forward $180 $-1 #
vertex $-1 $114 $300 #
vertex $-1 $299 $301 #
straight-curve $-1 65.82110049745171 -13.627596573631765 -6.4733103804012107 0 -1 0 I I #
face $-1 $302 $303 $26 $-1 $304 reversed single #
loop $-1 $-1 $305 $115 #
plane-surface $-1 0 0 -10.068112230847673 0 0 1 1 0 0 forward_v I I I I #
coedge $-1 $306 $118 $305 $307 reversed $73 $-1 #
coedge $-1 $118 $306 $120 $205 reversed $73 $-1 #
coedge $-1 $308 $309 $118 $201 forward $303 $-1 #
edge $-1 $310 -5.9327565780354519 $311 -2.3379547275889898 $200 $312 forward 7 unknown #
coedge $-1 $120 $119 $308 $313 reversed $47 $-1 #
coedge $-1 $314 $315 $119 $204 forward $316 $-1 #
edge $-1 $317 -65.82110049745171 $208 65.82110049745171 $203 $318 forward 7 unknown #
edge $-1 $311 -65.82110049745171 $209 65.82110049745171 $199 $319 forward 7 unknown #
coedge $-1 $320 $121 $306 $321 forward $116 $-1 #
coedge $-1 $121 $320 $314 $322 reversed $116 $-1 #
vertex $-1 $322 $323 #
vertex $-1 $122 $324 #
straight-curve $-1 65.82110049745171 13.627596573631763 -6.4733103804012107 0 -1 0 I I #
face $-1 $-1 $325 $27 $-1 $326 reversed single #
loop $-1 $-1 $129 $123 #
plane-surface $-1 0 0 10.068112230847673 0 0 1 1 0 0 forward_v I I I I #
coedge $-1 $327 $328 $329 $330 reversed $124 $-1 #
coedge $-1 $331 $126 $128 $221 forward $77 $-1 #
coedge $-1 $126 $331 $327 $332 forward $77 $-1 #
coedge $-1 $329 $129 $126 $218 forward $212 $-1 #
edge $-1 $224 0.74999872753644148 $333 11.128730622494196 $217 $334 forward 7 unknown #
coedge $-1 $335 $336 $127 $220 forward $325 $-1 #
edge $-1 $337 -86.608213203911134 $223 -83.150264588960468 $219 $338 forward 7 unknown #
edge $-1 $224 127.64930590319518 $337 131.64220099490336 $128 $339 forward 7 unknown #
coedge $-1 $129 $329 $335 $340 forward $212 $-1 #
vertex $-1 $220 $341 #
vertex $-1 $130 $342 #
straight-curve $-1 57.002746526806618 -6.689363402551761 10.068112230847674 -1 0 0 I I #
coedge $-1 $226 $226 $-1 $343 reversed $133 $-1 #
edge $-1 $344 0 $344 6.2831853071796004 $134 $345 forward 7 unknown #
vertex $-1 $137 $346 #
ellipse-curve $-1 64.82287675127202 -11.878729350030639 8.3391379233723359 0.86602541151947299 0 0.49999998660252726 0.12499999665063181 0 -0.21650635287986825 1 I I #
face $-1 $-1 $242 $29 $-1 $347 forward single #
loop $-1 $-1 $348 $138 #
plane-surface $-1 -65.82110049745171 0 0 1 0 0 0 0 -1 forward_v I I I I #
coedge $-1 $349 $350 $351 $352 reversed $139 $-1 #
coedge $-1 $353 $141 $143 $240 forward $86 $-1 #
coedge $-1 $141 $353 $349 $354 forward $86 $-1 #
coedge $-1 $351 $144 $141 $237 forward $242 $-1 #
edge $-1 $244 3.8127614988522929 $355 10.927166349479162 $236 $356 forward 7 unknown #
coedge $-1 $357 $358 $142 $239 forward $231 $-1 #
edge $-1 $359 -42.201740669021973 $243 -39.176502803760869 $238 $360 forward 7 unknown #
edge $-1 $244 -4.2055754862826742 $359 2.0733024663016622e-014 $143 $361 forward 7 unknown #
coedge $-1 $144 $351 $357 $362 forward $242 $-1 #
loop $-1 $-1 $351 $230 #
vertex $-1 $239 $363 #
vertex $-1 $145 $364 #
straight-curve $-1 -80.258288080927599 11.18272542301802 10.068112230847674 1 0 0 I I #
coedge $-1 $246 $246 $-1 $365 reversed $148 $-1 #
edge $-1 $366 0 $366 6.2831853071796004 $149 $367 forward 7 unknown #
vertex $-1 $152 $368 #
ellipse-curve $-1 -64.360381408320237 13.215412523197124 8.5554932982171223 -0.71933980857756763 0 0.69465836192734942 0.34732918096367471 0 0.35966990428878381 1 I I #
coedge $-1 $250 $250 $-1 $369 reversed $155 $-1 #
edge $-1 $370 0 $370 6.2831853071796004 $156 $371 forward 7 unknown #
vertex $-1 $159 $372 #
ellipse-curve $-1 -64.360381408320237 16.264443173465779 8.5554932982171223 -0.71933980857756763 0 0.69465836192734942 0.34732918096367471 0 0.35966990428878381 1 I I #
face $-1 $-1 $175 $24 $-1 $373 reversed single #
loop $-1 $-1 $270 $160 #
plane-surface $-1 0 31.533945732874429 0 0 -1 0 0 0 -1 forward_v I I I I #
coedge $-1 $374 $268 $271 $375 forward $161 $-1 #
coedge $-1 $274 $163 $164 $262 reversed $100 $-1 #
coedge $-1 $268 $374 $163 $260 reversed $161 $-1 #
edge $-1 $275 -10.068112230847673 $376 10.068112230847673 $259 $377 forward 7 unknown #
coedge $-1 $165 $164 $374 $378 forward $65 $-1 #
edge $-1 $266 -65.82110049745171 $376 65.82110049745171 $258 $379 forward 7 unknown #
coedge $-1 $271 $270 $165 $264 reversed $255 $-1 #
edge $-1 $380 -65.82110049745171 $265 65.82110049745171 $263 $381 forward 7 unknown #
vertex $-1 $167 $382 #
vertex $-1 $277 $383 #
straight-curve $-1 65.82110049745171 0 -10.068112230847673 0 -1 0 I I #
coedge $-1 $257 $259 $168 $269 reversed $161 $-1 #
edge $-1 $272 -31.533945732874429 $275 31.533945732874429 $268 $384 forward 7 unknown #
coedge $-1 $263 $169 $174 $278 forward $255 $-1 #
coedge $-1 $169 $263 $257 $375 reversed $255 $-1 #
vertex $-1 $170 $385 #
straight-curve $-1 0 31.533945732874429 10.068112230847673 -1 0 0 I I #
coedge $-1 $171 $258 $173 $277 reversed $100 $-1 #
vertex $-1 $269 $386 #
straight-curve $-1 0 -31.533945732874429 10.068112230847673 1 0 0 I I #
edge $-1 $176 -10.068112230847673 $266 10.068112230847673 $173 $387 forward 7 unknown #
edge $-1 $177 -10.068112230847673 $265 10.068112230847673 $174 $388 forward 7 unknown #
point $-1 65.82110049745171 -31.533945732874429 10.068112230847673 #
point $-1 65.82110049745171 31.533945732874429 10.068112230847673 #
face $-1 $-1 $389 $25 $-1 $390 reversed single #
loop $-1 $-1 $189 $179 #
plane-surface $-1 0 -31.533945732874429 0 0 1 0 0 0 1 forward_v I I I I #
coedge $-1 $391 $182 $288 $392 forward $108 $-1 #
coedge $-1 $182 $391 $393 $394 forward $108 $-1 #
edge $-1 $395 -65.82110049745171 $289 65.82110049745171 $182 $396 forward 7 unknown #
coedge $-1 $184 $183 $397 $398 reversed $69 $-1 #
coedge $-1 $185 $191 $284 $392 reversed $180 $-1 #
vertex $-1 $392 $399 #
straight-curve $-1 65.82110049745171 -22.97644056165263 -4.1353556528122208 0 0 1 I I #
coedge $-1 $397 $400 $187 $292 forward $389 $-1 #
edge $-1 $297 -17.906349159242666 $293 -9.3488439880208656 $291 $401 forward 7 unknown #
vertex $-1 $292 $402 #
straight-curve $-1 0 -22.97644056165263 -6.4733103804012107 -1 0 0 I I #
coedge $-1 $403 $189 $400 $404 forward $282 $-1 #
coedge $-1 $189 $403 $191 $299 reversed $282 $-1 #
vertex $-1 $404 $405 #
straight-curve $-1 0 -31.533945732874429 -6.4733103804012107 -1 0 0 I I #
edge $-1 $193 6.4733103804012107 $406 10.068112230847673 $191 $407 forward 7 unknown #
point $-1 65.82110049745171 -22.97644056165263 -6.4733103804012107 #
point $-1 65.82110049745171 -31.533945732874429 -6.4733103804012107 #
face $-1 $-1 $316 $26 $-1 $408 reversed single #
loop $-1 $-1 $308 $195 #
plane-surface $-1 -65.82110049745171 0 0 1 0 0 0 0 -1 forward_v I I I I #
coedge $-1 $409 $410 $198 $307 forward $196 $-1 #
coedge $-1 $199 $198 $206 $321 reversed $73 $-1 #
edge $-1 $411 -65.82110049745171 $310 65.82110049745171 $305 $412 forward 7 unknown #
coedge $-1 $413 $200 $202 $313 forward $303 $-1 #
coedge $-1 $200 $413 $409 $414 reversed $303 $-1 #
vertex $-1 $414 $415 #
vertex $-1 $313 $416 #
straight-curve $-1 -65.82110049745171 22.976440561652627 -4.1353556528122208 0 0 1 I I #
edge $-1 $311 9.3488439880208638 $317 17.906349159242662 $308 $417 forward 7 unknown #
coedge $-1 $418 $203 $207 $322 forward $316 $-1 #
coedge $-1 $203 $418 $413 $419 reversed $316 $-1 #
loop $-1 $-1 $203 $302 #
vertex $-1 $419 $420 #
straight-curve $-1 0 31.533945732874429 -6.4733103804012107 1 0 0 I I #
straight-curve $-1 0 22.976440561652627 -6.4733103804012107 1 0 0 I I #
coedge $-1 $207 $206 $410 $421 reversed $116 $-1 #
edge $-1 $209 2.3379547275889898 $411 5.9327565780354519 $206 $422 forward 7 unknown #
edge $-1 $208 6.4733103804012107 $423 10.068112230847673 $207 $424 forward 7 unknown #
point $-1 65.82110049745171 31.533945732874425 -6.4733103804012107 #
point $-1 65.82110049745171 22.976440561652627 -6.4733103804012107 #
loop $-1 $-1 $219 $211 #
plane-surface $-1 65.82110049745171 0 0 -1 0 0 0 0 1 forward_v I I I I #
coedge $-1 $328 $214 $216 $332 reversed $124 $-1 #
coedge $-1 $214 $327 $425 $426 reversed $124 $-1 #
coedge $-1 $222 $217 $214 $330 forward $212 $-1 #
edge $-1 $333 6.8219064782857046 $427 8.8183539706450915 $329 $428 forward 7 unknown #
coedge $-1 $216 $215 $336 $429 reversed $77 $-1 #
edge $-1 $430 -131.64220099490336 $333 -127.64930590319518 $327 $431 forward 7 unknown #
vertex $-1 $218 $432 #
straight-curve $-1 63.82465300509233 -5.9393646750153195 10.068112230847689 0 -1 0 I I #
coedge $-1 $425 $219 $222 $340 reversed $325 $-1 #
coedge $-1 $219 $425 $331 $429 forward $325 $-1 #
vertex $-1 $220 $433 #
straight-curve $-1 65.82110049745171 -6.689363402551761 93.218376819808142 0 0 1 I I #
straight-curve $-1 1.7636728273373592e-006 -6.689363402551761 120.61565490583737 0.49999998660252726 0 -0.86602541151947299 I I #
edge $-1 $427 -17.068095297509515 $223 -6.689363402551761 $335 $434 forward 7 unknown #
point $-1 65.82110049745171 -6.689363402551761 10.068112230847673 #
point $-1 63.824653005092323 -6.689363402551761 10.068112230847674 #
edge $-1 $435 1 $435 0 $226 $-1 forward 7 unknown #
vertex $-1 $227 $436 #
ellipse-curve $-1 63.956851339752532 -11.878729350030639 7.8391379367697978 0.86602541151947299 0 0.49999998660252726 0.12499999665063181 0 -0.21650635287986825 1 I I #
point $-1 64.947876747922635 -11.878729350030639 8.122631570492457 #
plane-surface $-1 0 0 10.068112230847673 0 0 1 1 0 0 forward_v I I I I #
coedge $-1 $358 $357 $350 $437 forward $231 $-1 #
coedge $-1 $350 $233 $235 $354 reversed $139 $-1 #
coedge $-1 $233 $349 $348 $437 reversed $139 $-1 #
coedge $-1 $241 $236 $233 $352 forward $242 $-1 #
edge $-1 $355 -17.358625761738843 $438 -14.43718758347589 $351 $439 forward 7 unknown #
coedge $-1 $235 $234 $358 $440 reversed $86 $-1 #
edge $-1 $441 -2.0733024663016622e-014 $355 4.2055754862826742 $349 $442 forward 7 unknown #
vertex $-1 $237 $443 #
straight-curve $-1 -62.899662319188756 7.3699639241657273 10.068112230847676 0 1 0 I I #
coedge $-1 $348 $238 $241 $362 reversed $231 $-1 #
coedge $-1 $238 $348 $353 $440 forward $231 $-1 #
vertex $-1 $239 $444 #
straight-curve $-1 -65.82110049745171 11.18272542301802 49.244615034608543 0 0 1 I I #
straight-curve $-1 -65.821100497451695 11.18272542301802 7.0428743655865844 -0.69465836192734942 0 -0.71933980857756763 I I #
edge $-1 $438 -18.297130273644889 $243 -11.18272542301802 $357 $445 forward 7 unknown #
point $-1 -65.82110049745171 11.18272542301802 10.068112230847673 #
point $-1 -62.899662319188756 11.18272542301802 10.068112230847673 #
edge $-1 $446 1 $446 0 $246 $-1 forward 7 unknown #
vertex $-1 $247 $447 #
ellipse-curve $-1 -63.363849788072265 13.215412523197124 7.5931539216447037 -0.71933980857756763 0 0.69465836192734942 0.34732918096367471 0 0.35966990428878381 1 I I #
point $-1 -64.013052227356582 13.215412523197124 8.9151632025059282 #
edge $-1 $448 1 $448 0 $250 $-1 forward 7 unknown #
vertex $-1 $251 $449 #
ellipse-curve $-1 -63.363849788072265 16.264443173465779 7.5931539216447037 -0.71933980857756763 0 0.69465836192734942 0.34732918096367471 0 0.35966990428878381 1 I I #
point $-1 -64.013052227356582 16.264443173465779 8.9151632025059282 #
plane-surface $-1 65.82110049745171 0 0 -1 0 0 0 0 1 forward_v I I I I #
coedge $-1 $259 $257 $261 $378 reversed $161 $-1 #
edge $-1 $272 -10.068112230847673 $380 10.068112230847673 $271 $450 forward 7 unknown #
vertex $-1 $378 $451 #
straight-curve $-1 -65.82110049745171 -31.533945732874429 0 0 0 -1 I I #
edge $-1 $376 -31.533945732874429 $380 31.533945732874429 $374 $452 forward 7 unknown #
straight-curve $-1 0 -31.533945732874429 -10.068112230847673 -1 0 0 I I #
vertex $-1 $264 $453 #
straight-curve $-1 0 31.533945732874429 -10.068112230847673 1 0 0 I I #
point $-1 65.82110049745171 31.533945732874429 -10.068112230847673 #
point $-1 65.82110049745171 -31.533945732874429 -10.068112230847673 #
straight-curve $-1 -65.82110049745171 0 10.068112230847673 0 -1 0 I I #
point $-1 -65.82110049745171 31.533945732874429 10.068112230847673 #
point $-1 -65.82110049745171 -31.533945732874429 10.068112230847673 #
straight-curve $-1 65.82110049745171 -31.533945732874429 0 0 0 -1 I I #
straight-curve $-1 65.82110049745171 31.533945732874429 0 0 0 -1 I I #
loop $-1 $-1 $397 $281 #
plane-surface $-1 -65.82110049745171 0 0 1 0 0 0 0 -1 forward_v I I I I #
coedge $-1 $285 $284 $403 $454 forward $108 $-1 #
edge $-1 $289 22.97644056165263 $406 31.533945732874429 $288 $455 forward 7 unknown #
coedge $-1 $400 $397 $285 $394 reversed $389 $-1 #
edge $-1 $456 -31.533945732874429 $395 -22.97644056165263 $393 $457 forward 7 unknown #
vertex $-1 $398 $458 #
straight-curve $-1 0 -22.97644056165263 -10.068112230847673 1 0 0 I I #
coedge $-1 $393 $291 $287 $398 forward $389 $-1 #
edge $-1 $293 2.3379547275889898 $395 5.9327565780354519 $397 $459 forward 7 unknown #
point $-1 65.82110049745171 -22.97644056165263 -10.068112230847673 #
coedge $-1 $291 $393 $295 $404 reversed $389 $-1 #
straight-curve $-1 -65.82110049745171 -13.627596573631765 -6.4733103804012107 0 1 0 I I #
point $-1 -65.82110049745171 -22.97644056165263 -6.4733103804012107 #
coedge $-1 $296 $295 $391 $454 reversed $282 $-1 #
edge $-1 $297 6.4733103804012107 $456 10.068112230847673 $400 $460 forward 7 unknown #
point $-1 -65.82110049745171 -31.533945732874429 -6.4733103804012107 #
vertex $-1 $299 $461 #
straight-curve $-1 65.82110049745171 -31.533945732874429 0 0 0 -1 I I #
plane-surface $-1 0 31.533945732874429 0 0 -1 0 0 0 -1 forward_v I I I I #
coedge $-1 $462 $305 $309 $414 forward $196 $-1 #
coedge $-1 $305 $462 $320 $421 forward $196 $-1 #
vertex $-1 $307 $463 #
straight-curve $-1 0 22.976440561652627 -10.068112230847673 -1 0 0 I I #
coedge $-1 $309 $308 $315 $419 forward $303 $-1 #
edge $-1 $310 22.976440561652627 $464 31.533945732874429 $309 $465 forward 7 unknown #
point $-1 -65.82110049745171 22.976440561652627 -10.068112230847673 #
point $-1 -65.82110049745171 22.976440561652627 -6.4733103804012107 #
straight-curve $-1 -65.82110049745171 13.627596573631763 -6.4733103804012107 0 1 0 I I #
coedge $-1 $315 $314 $462 $466 reversed $316 $-1 #
edge $-1 $317 6.4733103804012107 $464 10.068112230847673 $315 $467 forward 7 unknown #
point $-1 -65.82110049745171 31.533945732874425 -6.4733103804012107 #
edge $-1 $423 -31.533945732874429 $411 -22.976440561652627 $320 $468 forward 7 unknown #
straight-curve $-1 65.82110049745171 22.976440561652627 -4.1353556528122208 0 0 -1 I I #
vertex $-1 $421 $469 #
straight-curve $-1 65.82110049745171 31.533945732874429 0 0 0 -1 I I #
coedge $-1 $336 $335 $328 $426 forward $325 $-1 #
edge $-1 $427 83.150264588960468 $430 86.608213203911134 $425 $470 forward 7 unknown #
vertex $-1 $340 $471 #
straight-curve $-1 57.002746526806618 -17.068095297509515 10.068112230847674 1 0 0 I I #
edge $-1 $430 -11.128730622494196 $337 -0.74999872753644148 $336 $472 forward 7 unknown #
vertex $-1 $429 $473 #
straight-curve $-1 1.7636728273373592e-006 -17.068095297509515 120.61565490583737 -0.49999998660252726 0 0.86602541151947299 I I #
point $-1 63.824653005092323 -17.068095297509515 10.068112230847674 #
point $-1 65.82110049745171 -6.689363402551761 6.6101636158970081 #
straight-curve $-1 65.82110049745171 0 10.068112230847673 0 1 0 I I #
vertex $-1 $343 $474 #
point $-1 64.081851336403162 -11.878729350030639 7.6226315838899295 #
edge $-1 $438 39.176502803760869 $441 42.201740669021973 $348 $475 forward 7 unknown #
vertex $-1 $362 $476 #
straight-curve $-1 -80.258288080927599 18.297130273644889 10.068112230847674 -1 0 0 I I #
edge $-1 $441 -10.927166349479162 $359 -3.8127614988522929 $358 $477 forward 7 unknown #
vertex $-1 $440 $478 #
straight-curve $-1 -65.821100497451695 18.297130273644889 7.0428743655865844 0.69465836192734942 0 0.71933980857756763 I I #
point $-1 -62.899662319188756 18.297130273644889 10.068112230847673 #
point $-1 -65.82110049745171 11.18272542301802 7.0428743655865693 #
straight-curve $-1 -65.82110049745171 0 10.068112230847673 0 -1 0 I I #
vertex $-1 $365 $479 #
point $-1 -63.016520607108596 13.215412523197124 7.9528238259334874 #
vertex $-1 $369 $480 #
point $-1 -63.016520607108596 16.264443173465779 7.9528238259334874 #
straight-curve $-1 -65.82110049745171 31.533945732874429 0 0 0 -1 I I #
point $-1 -65.82110049745171 -31.533945732874429 -10.068112230847673 #
straight-curve $-1 -65.82110049745171 0 -10.068112230847673 0 1 0 I I #
point $-1 -65.82110049745171 31.533945732874429 -10.068112230847673 #
edge $-1 $406 -65.82110049745171 $456 65.82110049745171 $403 $481 forward 7 unknown #
straight-curve $-1 65.82110049745171 0 -10.068112230847673 0 -1 0 I I #
vertex $-1 $394 $482 #
straight-curve $-1 -65.82110049745171 0 -10.068112230847673 0 1 0 I I #
point $-1 -65.82110049745171 -22.97644056165263 -10.068112230847673 #
straight-curve $-1 -65.82110049745171 -22.97644056165263 -4.1353556528122208 0 0 -1 I I #
straight-curve $-1 -65.82110049745171 -31.533945732874429 0 0 0 -1 I I #
point $-1 65.82110049745171 -31.533945732874429 -10.068112230847673 #
coedge $-1 $410 $409 $418 $466 forward $196 $-1 #
point $-1 65.82110049745171 22.976440561652627 -10.068112230847673 #
vertex $-1 $466 $483 #
straight-curve $-1 -65.82110049745171 0 -10.068112230847673 0 1 0 I I #
edge $-1 $464 -65.82110049745171 $423 65.82110049745171 $418 $484 forward 7 unknown #
straight-curve $-1 -65.82110049745171 31.533945732874429 0 0 0 -1 I I #
straight-curve $-1 65.82110049745171 0 -10.068112230847673 0 -1 0 I I #
point $-1 65.82110049745171 31.533945732874429 -10.068112230847673 #
straight-curve $-1 65.82110049745171 -17.068095297509515 93.218376819808142 0 0 -1 I I #
point $-1 65.82110049745171 -17.068095297509515 10.068112230847673 #
straight-curve $-1 65.82110049745171 -5.9393646750153195 6.6101636158970081 0 1 0 I I #
point $-1 65.82110049745171 -17.068095297509515 6.6101636158970081 #
point $-1 63.740344986872671 -11.878729350030639 7.7141379401191665 #
straight-curve $-1 -65.82110049745171 18.297130273644889 49.244615034608543 0 0 -1 I I #
point $-1 -65.82110049745171 18.297130273644889 10.068112230847673 #
straight-curve $-1 -65.82110049745171 7.3699639241657273 7.042874365586572 0 -1 0 I I #
point $-1 -65.82110049745171 18.297130273644889 7.0428743655865693 #
point $-1 -63.004179883783486 13.215412523197124 7.2458247406810292 #
point $-1 -63.004179883783486 16.264443173465779 7.2458247406810292 #
straight-curve $-1 0 -31.533945732874429 -10.068112230847673 -1 0 0 I I #
point $-1 -65.82110049745171 -31.533945732874429 -10.068112230847673 #
point $-1 -65.82110049745171 31.533945732874429 -10.068112230847673 #
straight-curve $-1 0 31.533945732874429 -10.068112230847673 1 0 0 I I #
End-of-ACIS-data 