500 0 5 0           
7 Unknown 11 ACIS 5.0 NT 24 Thu Mar 25 23:01:22 1999 
-1 9.9999999999999995e-007 1e-010 
body $-1 $5 $-1 $6 #
body $-1 $7 $-1 $8 #
body $-1 $9 $-1 $10 #
body $-1 $11 $-1 $12 #
body $-1 $13 $-1 $14 #
lump $-1 $-1 $15 $0 #
transform $-1 1 0 0 0 1 0 0 0 1 72.354503006073173 45.405558609667679 18.670779003111068 1 rotate no_reflect no_shear #
lump $-1 $-1 $16 $1 #
transform $-1 1 0 0 0 1 0 0 0 1 72.354503006073173 45.405558609667679 18.670779003111068 1 rotate no_reflect no_shear #
lump $-1 $-1 $17 $2 #
transform $-1 1 0 0 0 1 0 0 0 1 72.354503006073173 45.405558609667679 18.670779003111068 1 rotate no_reflect no_shear #
lump $-1 $-1 $18 $3 #
transform $-1 1 0 0 0 1 0 0 0 1 72.354503006073173 45.405558609667679 18.670779003111068 1 rotate no_reflect no_shear #
lump $-1 $-1 $19 $4 #
transform $-1 1 0 0 0 1 0 0 0 1 72.354503006073173 45.405558609667679 18.670779003111068 1 rotate no_reflect no_shear #
shell $-1 $-1 $-1 $20 $-1 $5 #
shell $-1 $-1 $-1 $21 $-1 $7 #
shell $-1 $-1 $-1 $22 $-1 $9 #
shell $-1 $-1 $-1 $23 $-1 $11 #
shell $-1 $-1 $-1 $24 $-1 $13 #
face $-1 $25 $26 $15 $-1 $27 forward single #
face $-1 $28 $29 $16 $-1 $30 forward single #
face $-1 $31 $32 $17 $-1 $33 reversed single #
face $-1 $34 $35 $18 $-1 $36 forward single #
face $-1 $37 $38 $19 $-1 $39 forward single #
face $-1 $40 $41 $15 $-1 $42 reversed single #
loop $-1 $-1 $43 $20 #
plane-surface $-1 0 0 18.670779003111068 0 0 1 1 0 0 forward_v I I I I #
face $-1 $44 $45 $16 $-1 $46 reversed single #
loop $-1 $-1 $47 $21 #
plane-surface $-1 0 -35.28887618114581 -9.8211477064614527 0 0 1 1 0 0 forward_v I I I I #
face $-1 $48 $49 $17 $-1 $50 reversed single #
loop $-1 $-1 $51 $22 #
plane-surface $-1 32.916474056548708 42.095887632940219 177.26450063363023 1 0 0 0 -0.51503808176128008 -0.85716729658548041 forward_v I I I I #
face $-1 $52 $53 $18 $-1 $54 forward single #
loop $-1 $55 $56 $23 #
cone-surface $-1 44.184482327841408 33.844689945575283 10.241501684135438 0 -0.51503808176128008 -0.85716729658548041 2 0 0 1 I I 0 1 2 forward I I I I #
face $-1 $57 $58 $19 $-1 $59 forward single #
loop $-1 $60 $61 $24 #
cone-surface $-1 61.086494734780473 33.844689945575283 10.241501684135438 0 -0.51503808176128008 -0.85716729658548041 2 0 0 1 I I 0 1 2 forward I I I I #
face $-1 $62 $63 $15 $-1 $64 reversed single #
loop $-1 $-1 $65 $25 #
plane-surface $-1 0 0 -18.670779003111068 0 0 1 1 0 0 forward_v I I I I #
coedge $-1 $66 $67 $68 $69 forward $26 $-1 #
face $-1 $70 $71 $16 $-1 $72 reversed single #
loop $-1 $-1 $73 $28 #
plane-surface $-1 0 -25.172193752623944 -14.245963354786261 0 -1 0 0 0 -1 forward_v I I I I #
coedge $-1 $74 $75 $76 $77 reversed $29 $-1 #
face $-1 $78 $79 $17 $-1 $80 reversed single #
loop $-1 $-1 $81 $31 #
plane-surface $-1 52.635488531310941 -32.434761237137181 53.224673158626715 0 0.51503808176128008 0.85716729658548041 1 0 0 forward_v I I I I #
coedge $-1 $82 $83 $84 $85 reversed $32 $-1 #
face $-1 $-1 $86 $18 $-1 $87 forward single #
loop $-1 $88 $89 $34 #
cone-surface $-1 44.184482327841408 31.935275104540196 7.0637017984391264 0 -0.51503808176128008 -0.85716729658548041 1 0 0 1 I I -0.70710678118654746 0.70710678118654746 1 forward I I I I #
loop $-1 $-1 $90 $23 #
coedge $-1 $56 $56 $91 $92 reversed $35 $-1 #
face $-1 $-1 $93 $19 $-1 $94 forward single #
loop $-1 $95 $96 $37 #
cone-surface $-1 61.086494734780473 31.935275104540196 7.0637017984391264 0 -0.51503808176128008 -0.85716729658548041 1 0 0 1 I I -0.70710678118654746 0.70710678118654746 1 forward I I I I #
loop $-1 $-1 $97 $24 #
coedge $-1 $61 $61 $98 $99 reversed $38 $-1 #
face $-1 $100 $101 $15 $-1 $102 reversed single #
loop $-1 $-1 $103 $40 #
plane-surface $-1 0 -45.405558609667679 0 0 1 0 0 0 1 forward_v I I I I #
coedge $-1 $104 $105 $106 $107 forward $41 $-1 #
coedge $-1 $108 $43 $109 $110 forward $26 $-1 #
coedge $-1 $43 $108 $111 $112 forward $26 $-1 #
coedge $-1 $113 $114 $43 $69 reversed $115 $-1 #
edge $-1 $116 -45.405558609667679 $117 45.405558609667679 $68 $118 forward 7 unknown #
face $-1 $119 $120 $16 $-1 $121 reversed single #
loop $-1 $-1 $122 $44 #
plane-surface $-1 0 0 -18.670779003111068 0 0 1 1 0 0 forward_v I I I I #
coedge $-1 $123 $124 $125 $126 reversed $45 $-1 #
coedge $-1 $127 $47 $124 $128 forward $29 $-1 #
coedge $-1 $47 $127 $129 $130 reversed $29 $-1 #
coedge $-1 $131 $125 $47 $77 forward $120 $-1 #
edge $-1 $132 7.5277556620510389 $133 27.761120519094774 $76 $134 forward 7 unknown #
face $-1 $135 $136 $17 $-1 $137 forward single #
loop $-1 $-1 $138 $48 #
plane-surface $-1 72.354503006073173 0 0 -1 0 0 0 0 1 forward_v I I I I #
coedge $-1 $139 $140 $141 $142 reversed $49 $-1 #
coedge $-1 $83 $51 $143 $144 reversed $32 $-1 #
coedge $-1 $51 $82 $139 $145 reversed $32 $-1 #
coedge $-1 $141 $146 $51 $85 forward $136 $-1 #
edge $-1 $147 -24.35761479319757 $148 -4.0246309835604066 $84 $149 forward 7 unknown #
loop $-1 $-1 $91 $52 #
plane-surface $-1 52.635488531310941 -32.434761237137181 53.224673158626715 0 0.51503808176128008 0.85716729658548041 1 0 0 forward_v I I I I #
loop $-1 $-1 $150 $34 #
coedge $-1 $89 $89 $90 $151 reversed $53 $-1 #
coedge $-1 $90 $90 $89 $151 forward $55 $-1 #
coedge $-1 $91 $91 $56 $92 forward $86 $-1 #
edge $-1 $152 0 $152 6.2831853071796004 $91 $153 forward 7 unknown #
loop $-1 $-1 $98 $57 #
plane-surface $-1 52.635488531310941 -32.434761237137181 53.224673158626715 0 0.51503808176128008 0.85716729658548041 1 0 0 forward_v I I I I #
loop $-1 $-1 $154 $37 #
coedge $-1 $96 $96 $97 $155 reversed $58 $-1 #
coedge $-1 $97 $97 $96 $155 forward $60 $-1 #
coedge $-1 $98 $98 $61 $99 forward $93 $-1 #
edge $-1 $156 0 $156 6.2831853071796004 $98 $157 forward 7 unknown #
face $-1 $158 $159 $15 $-1 $160 reversed single #
loop $-1 $-1 $161 $62 #
plane-surface $-1 -72.354503006073173 0 0 1 0 0 0 0 -1 forward_v I I I I #
coedge $-1 $162 $111 $163 $164 forward $63 $-1 #
coedge $-1 $165 $65 $162 $166 forward $41 $-1 #
coedge $-1 $65 $165 $167 $168 forward $41 $-1 #
coedge $-1 $114 $113 $65 $107 reversed $115 $-1 #
edge $-1 $169 -45.405558609667679 $170 45.405558609667679 $106 $171 forward 7 unknown #
coedge $-1 $67 $66 $172 $173 forward $26 $-1 #
coedge $-1 $174 $175 $66 $110 reversed $159 $-1 #
edge $-1 $117 -72.354503006073173 $176 72.354503006073173 $109 $177 forward 7 unknown #
coedge $-1 $103 $178 $67 $112 reversed $63 $-1 #
edge $-1 $179 -72.354503006073173 $116 72.354503006073173 $111 $180 forward 7 unknown #
coedge $-1 $106 $68 $178 $181 forward $115 $-1 #
coedge $-1 $68 $106 $174 $182 reversed $115 $-1 #
loop $-1 $-1 $113 $158 #
vertex $-1 $69 $183 #
vertex $-1 $69 $184 #
straight-curve $-1 72.354503006073173 0 18.670779003111068 0 1 0 I I #
face $-1 $185 $186 $16 $-1 $187 reversed single #
loop $-1 $-1 $125 $70 #
plane-surface $-1 72.354503006073173 0 0 -1 0 0 0 0 1 forward_v I I I I #
coedge $-1 $188 $189 $123 $190 forward $71 $-1 #
coedge $-1 $191 $73 $122 $190 reversed $45 $-1 #
coedge $-1 $73 $191 $74 $128 reversed $45 $-1 #
coedge $-1 $76 $192 $73 $126 forward $120 $-1 #
edge $-1 $193 -11.547797325717937 $132 -2.6981660290683225 $125 $194 forward 7 unknown #
coedge $-1 $75 $74 $195 $196 reversed $29 $-1 #
edge $-1 $132 -72.354503006073173 $197 72.354503006073173 $124 $198 forward 7 unknown #
coedge $-1 $199 $200 $75 $130 forward $186 $-1 #
edge $-1 $133 -72.354503006073173 $201 72.354503006073173 $129 $202 forward 7 unknown #
coedge $-1 $192 $76 $200 $203 forward $120 $-1 #
vertex $-1 $77 $204 #
vertex $-1 $203 $205 #
straight-curve $-1 72.354503006073173 -17.644438090572905 -9.8211477064614527 0 -1 0 I I #
face $-1 $-1 $206 $17 $-1 $207 reversed single #
loop $-1 $-1 $141 $78 #
plane-surface $-1 0 0 18.670779003111068 0 0 1 1 0 0 forward_v I I I I #
coedge $-1 $208 $209 $140 $210 forward $79 $-1 #
coedge $-1 $211 $81 $83 $145 forward $49 $-1 #
coedge $-1 $81 $211 $138 $210 reversed $49 $-1 #
coedge $-1 $212 $84 $81 $142 forward $136 $-1 #
edge $-1 $148 6.5987297908932376 $213 46.036758740417703 $141 $214 forward 7 unknown #
coedge $-1 $215 $216 $82 $144 forward $206 $-1 #
edge $-1 $217 -82.178760773433638 $147 -69.961471313704052 $143 $218 forward 7 unknown #
edge $-1 $148 67.089979128050899 $217 90.811117219335358 $83 $219 forward 7 unknown #
coedge $-1 $84 $212 $215 $220 forward $136 $-1 #
vertex $-1 $144 $221 #
vertex $-1 $85 $222 #
straight-curve $-1 32.916474056548708 21.047943816470109 18.670779003111065 0 -1 0 I I #
coedge $-1 $150 $150 $-1 $223 reversed $88 $-1 #
edge $-1 $224 0 $224 6.2831853071796004 $89 $225 forward 7 unknown #
vertex $-1 $92 $226 #
ellipse-curve $-1 44.184482327841408 35.239066704849094 12.562134273246269 0 0.51503808176128008 0.85716729658548041 2 0 0 1 I I #
coedge $-1 $154 $154 $-1 $227 reversed $95 $-1 #
edge $-1 $228 0 $228 6.2831853071796004 $96 $229 forward 7 unknown #
vertex $-1 $99 $230 #
ellipse-curve $-1 61.086494734780473 35.239066704849094 12.562134273246269 0 0.51503808176128008 0.85716729658548041 2 0 0 1 I I #
face $-1 $-1 $115 $15 $-1 $231 reversed single #
loop $-1 $-1 $174 $100 #
plane-surface $-1 0 45.405558609667679 0 0 -1 0 0 0 -1 forward_v I I I I #
coedge $-1 $232 $172 $175 $233 forward $101 $-1 #
coedge $-1 $178 $103 $104 $166 reversed $63 $-1 #
coedge $-1 $172 $232 $103 $164 reversed $101 $-1 #
edge $-1 $179 -18.670779003111068 $234 18.670779003111068 $163 $235 forward 7 unknown #
coedge $-1 $105 $104 $232 $236 forward $41 $-1 #
edge $-1 $170 -72.354503006073173 $234 72.354503006073173 $162 $237 forward 7 unknown #
coedge $-1 $175 $174 $105 $168 reversed $159 $-1 #
edge $-1 $238 -72.354503006073173 $169 72.354503006073173 $167 $239 forward 7 unknown #
vertex $-1 $107 $240 #
vertex $-1 $181 $241 #
straight-curve $-1 72.354503006073173 0 -18.670779003111068 0 -1 0 I I #
coedge $-1 $161 $163 $108 $173 reversed $101 $-1 #
edge $-1 $176 -45.405558609667679 $179 45.405558609667679 $172 $242 forward 7 unknown #
coedge $-1 $167 $109 $114 $182 forward $159 $-1 #
coedge $-1 $109 $167 $161 $233 reversed $159 $-1 #
vertex $-1 $110 $243 #
straight-curve $-1 0 45.405558609667679 18.670779003111068 -1 0 0 I I #
coedge $-1 $111 $162 $113 $181 reversed $63 $-1 #
vertex $-1 $173 $244 #
straight-curve $-1 0 -45.405558609667679 18.670779003111068 1 0 0 I I #
edge $-1 $116 -18.670779003111068 $170 18.670779003111068 $113 $245 forward 7 unknown #
edge $-1 $117 -18.670779003111068 $169 18.670779003111068 $114 $246 forward 7 unknown #
point $-1 72.354503006073173 -45.405558609667679 18.670779003111068 #
point $-1 72.354503006073173 45.405558609667679 18.670779003111068 #
face $-1 $-1 $247 $16 $-1 $248 reversed single #
loop $-1 $-1 $129 $119 #
plane-surface $-1 0 -45.405558609667679 0 0 1 0 0 0 1 forward_v I I I I #
coedge $-1 $249 $122 $192 $250 forward $71 $-1 #
coedge $-1 $122 $249 $251 $252 forward $71 $-1 #
edge $-1 $253 -72.354503006073173 $193 72.354503006073173 $122 $254 forward 7 unknown #
coedge $-1 $124 $123 $255 $256 reversed $45 $-1 #
coedge $-1 $125 $131 $188 $250 reversed $120 $-1 #
vertex $-1 $250 $257 #
straight-curve $-1 72.354503006073173 -25.172193752623944 -7.1229816773931303 0 0 1 I I #
coedge $-1 $255 $258 $127 $196 forward $247 $-1 #
edge $-1 $201 -27.761120519094774 $197 -7.5277556620510389 $195 $259 forward 7 unknown #
vertex $-1 $196 $260 #
straight-curve $-1 0 -25.172193752623944 -9.8211477064614527 -1 0 0 I I #
coedge $-1 $261 $129 $258 $262 forward $186 $-1 #
coedge $-1 $129 $261 $131 $203 reversed $186 $-1 #
vertex $-1 $262 $263 #
straight-curve $-1 0 -45.405558609667679 -9.8211477064614527 -1 0 0 I I #
edge $-1 $133 9.8211477064614527 $264 18.670779003111068 $131 $265 forward 7 unknown #
point $-1 72.354503006073173 -25.172193752623944 -9.8211477064614527 #
point $-1 72.354503006073173 -45.405558609667679 -9.8211477064614527 #
loop $-1 $-1 $143 $135 #
plane-surface $-1 0 45.405558609667679 0 0 -1 0 0 0 -1 forward_v I I I I #
coedge $-1 $209 $138 $266 $267 reversed $79 $-1 #
coedge $-1 $138 $208 $212 $268 reversed $79 $-1 #
edge $-1 $213 39.482604042539599 $269 63.203742133824051 $138 $270 forward 7 unknown #
coedge $-1 $140 $139 $216 $271 reversed $49 $-1 #
coedge $-1 $146 $141 $209 $268 forward $136 $-1 #
vertex $-1 $268 $272 #
straight-curve $-1 26.31774426565547 25.072574800030498 18.670779003111068 1 0 0 I I #
coedge $-1 $266 $143 $146 $220 reversed $206 $-1 #
coedge $-1 $143 $266 $211 $271 forward $206 $-1 #
vertex $-1 $144 $273 #
straight-curve $-1 32.916474056548708 45.405558609667679 88.632250316815117 0 0 1 I I #
straight-curve $-1 32.916474056548708 -32.434761237137181 53.224673158626715 0 0.85716729658548041 -0.51503808176128008 I I #
edge $-1 $274 -72.354503006073173 $147 -32.916474056548708 $215 $275 forward 7 unknown #
point $-1 32.916474056548708 45.405558609667679 18.670779003111068 #
point $-1 32.916474056548708 25.072574800030516 18.670779003111065 #
edge $-1 $276 1 $276 0 $150 $-1 forward 7 unknown #
vertex $-1 $151 $277 #
ellipse-curve $-1 44.184482327841408 32.450313186301479 7.9208690950246066 0 0.51503808176128008 0.85716729658548041 2 0 0 1 I I #
point $-1 46.184482327841408 35.239066704849094 12.562134273246269 #
edge $-1 $278 1 $278 0 $154 $-1 forward 7 unknown #
vertex $-1 $155 $279 #
ellipse-curve $-1 61.086494734780473 32.450313186301479 7.9208690950246066 0 0.51503808176128008 0.85716729658548041 2 0 0 1 I I #
point $-1 63.086494734780473 35.239066704849094 12.562134273246269 #
plane-surface $-1 72.354503006073173 0 0 -1 0 0 0 0 1 forward_v I I I I #
coedge $-1 $163 $161 $165 $236 reversed $101 $-1 #
edge $-1 $176 -18.670779003111068 $238 18.670779003111068 $175 $280 forward 7 unknown #
vertex $-1 $236 $281 #
straight-curve $-1 -72.354503006073173 -45.405558609667679 0 0 0 -1 I I #
edge $-1 $234 -45.405558609667679 $238 45.405558609667679 $232 $282 forward 7 unknown #
straight-curve $-1 0 -45.405558609667679 -18.670779003111068 -1 0 0 I I #
vertex $-1 $168 $283 #
straight-curve $-1 0 45.405558609667679 -18.670779003111068 1 0 0 I I #
point $-1 72.354503006073173 45.405558609667679 -18.670779003111068 #
point $-1 72.354503006073173 -45.405558609667679 -18.670779003111068 #
straight-curve $-1 -72.354503006073173 0 18.670779003111068 0 -1 0 I I #
point $-1 -72.354503006073173 45.405558609667679 18.670779003111068 #
point $-1 -72.354503006073173 -45.405558609667679 18.670779003111068 #
straight-curve $-1 72.354503006073173 -45.405558609667679 0 0 0 -1 I I #
straight-curve $-1 72.354503006073173 45.405558609667679 0 0 0 -1 I I #
loop $-1 $-1 $255 $185 #
plane-surface $-1 -72.354503006073173 0 0 1 0 0 0 0 -1 forward_v I I I I #
coedge $-1 $189 $188 $261 $284 forward $71 $-1 #
edge $-1 $193 25.172193752623944 $264 45.405558609667679 $192 $285 forward 7 unknown #
coedge $-1 $258 $255 $189 $252 reversed $247 $-1 #
edge $-1 $286 -45.405558609667679 $253 -25.172193752623944 $251 $287 forward 7 unknown #
vertex $-1 $256 $288 #
straight-curve $-1 0 -25.172193752623944 -18.670779003111068 1 0 0 I I #
coedge $-1 $251 $195 $191 $256 forward $247 $-1 #
edge $-1 $197 2.6981660290683225 $253 11.547797325717937 $255 $289 forward 7 unknown #
point $-1 72.354503006073173 -25.172193752623944 -18.670779003111068 #
coedge $-1 $195 $251 $199 $262 reversed $247 $-1 #
straight-curve $-1 -72.354503006073173 -17.644438090572905 -9.8211477064614527 0 1 0 I I #
point $-1 -72.354503006073173 -25.172193752623944 -9.8211477064614527 #
coedge $-1 $200 $199 $249 $284 reversed $186 $-1 #
edge $-1 $201 9.8211477064614527 $286 18.670779003111068 $258 $290 forward 7 unknown #
point $-1 -72.354503006073173 -45.405558609667679 -9.8211477064614527 #
vertex $-1 $203 $291 #
straight-curve $-1 72.354503006073173 -45.405558609667679 0 0 0 -1 I I #
coedge $-1 $216 $215 $208 $267 forward $206 $-1 #
edge $-1 $274 -18.670779003111068 $269 -6.4534895433814796 $208 $292 forward 7 unknown #
edge $-1 $213 25.072574800030516 $274 45.405558609667679 $209 $293 forward 7 unknown #
vertex $-1 $210 $294 #
straight-curve $-1 72.354503006073173 -8.7706221692681119 39.005823652120817 0 0.85716729658548041 -0.51503808176128008 I I #
edge $-1 $269 -46.036758740417703 $217 -6.5987297908932376 $216 $295 forward 7 unknown #
point $-1 72.354503006073173 25.072574800030516 18.670779003111065 #
point $-1 32.916474056548708 45.405558609667679 6.4534895433814796 #
vertex $-1 $268 $296 #
straight-curve $-1 0 45.405558609667679 18.670779003111068 -1 0 0 I I #
vertex $-1 $223 $297 #
point $-1 46.184482327841408 32.450313186301479 7.9208690950246066 #
vertex $-1 $227 $298 #
point $-1 63.086494734780473 32.450313186301479 7.9208690950246066 #
straight-curve $-1 -72.354503006073173 45.405558609667679 0 0 0 -1 I I #
point $-1 -72.354503006073173 -45.405558609667679 -18.670779003111068 #
straight-curve $-1 -72.354503006073173 0 -18.670779003111068 0 1 0 I I #
point $-1 -72.354503006073173 45.405558609667679 -18.670779003111068 #
edge $-1 $264 -72.354503006073173 $286 72.354503006073173 $261 $299 forward 7 unknown #
straight-curve $-1 72.354503006073173 0 -18.670779003111068 0 -1 0 I I #
vertex $-1 $252 $300 #
straight-curve $-1 -72.354503006073173 0 -18.670779003111068 0 1 0 I I #
point $-1 -72.354503006073173 -25.172193752623944 -18.670779003111068 #
straight-curve $-1 -72.354503006073173 -25.172193752623944 -7.1229816773931303 0 0 -1 I I #
straight-curve $-1 -72.354503006073173 -45.405558609667679 0 0 0 -1 I I #
point $-1 72.354503006073173 -45.405558609667679 -18.670779003111068 #
straight-curve $-1 72.354503006073173 45.405558609667679 0 0 0 -1 I I #
straight-curve $-1 72.354503006073173 0 18.670779003111068 0 1 0 I I #
point $-1 72.354503006073173 45.405558609667679 6.4534895433814796 #
straight-curve $-1 26.31774426565547 45.405558609667672 6.4534895433814832 -1 0 0 I I #
point $-1 72.354503006073173 45.405558609667679 18.670779003111068 #
point $-1 44.184482327841408 31.420237022778917 6.2065345018536462 #
point $-1 61.086494734780473 31.420237022778917 6.2065345018536462 #
straight-curve $-1 0 -45.405558609667679 -18.670779003111068 -1 0 0 I I #
point $-1 -72.354503006073173 -45.405558609667679 -18.670779003111068 #
End-of-ACIS-data 