500 0 2 0           
7 Unknown 11 ACIS 5.0 NT 24 Fri Mar 26 14:56:21 1999 
-1 9.9999999999999995e-007 1e-010 
body $-1 $2 $-1 $3 #
body $-1 $4 $-1 $5 #
lump $-1 $-1 $6 $0 #
transform $-1 1 0 0 0 1 0 0 0 1 43.615833002716144 24.729260191383432 11.73226683038332 1 rotate no_reflect no_shear #
lump $-1 $-1 $7 $1 #
transform $-1 1 0 0 0 1 0 0 0 1 43.615833002716144 24.729260191383432 11.73226683038332 1 rotate no_reflect no_shear #
shell $-1 $-1 $-1 $8 $-1 $2 #
shell $-1 $-1 $-1 $9 $-1 $4 #
face $-1 $10 $11 $6 $-1 $12 forward single #
face $-1 $13 $14 $7 $-1 $15 reversed single #
face $-1 $16 $17 $6 $-1 $18 reversed single #
loop $-1 $-1 $19 $8 #
plane-surface $-1 0 0 11.73226683038332 0 0 1 1 0 0 forward_v I I I I #
face $-1 $20 $21 $7 $-1 $22 reversed single #
loop $-1 $-1 $23 $9 #
plane-surface $-1 -50.244082182889009 0 5.5336111761897069 0 0 1 1 0 0 forward_v I I I I #
face $-1 $24 $25 $6 $-1 $26 reversed single #
loop $-1 $-1 $27 $10 #
plane-surface $-1 0 0 -11.73226683038332 0 0 1 1 0 0 forward_v I I I I #
coedge $-1 $28 $29 $30 $31 forward $11 $-1 #
face $-1 $32 $33 $7 $-1 $34 forward single #
loop $-1 $-1 $35 $13 #
plane-surface $-1 -56.872331363061875 0 8.6329390032865128 1 0 0 0 0 -1 forward_v I I I I #
coedge $-1 $36 $37 $38 $39 reversed $14 $-1 #
face $-1 $40 $41 $6 $-1 $42 reversed single #
loop $-1 $-1 $43 $16 #
plane-surface $-1 0 -24.729260191383432 0 0 1 0 0 0 1 forward_v I I I I #
coedge $-1 $44 $45 $46 $47 forward $17 $-1 #
coedge $-1 $48 $19 $49 $50 forward $11 $-1 #
coedge $-1 $19 $48 $51 $52 forward $11 $-1 #
coedge $-1 $53 $54 $19 $31 reversed $55 $-1 #
edge $-1 $56 -24.729260191383432 $57 24.729260191383432 $30 $58 forward 7 unknown #
face $-1 $59 $60 $7 $-1 $61 reversed single #
loop $-1 $-1 $62 $20 #
plane-surface $-1 0 0 11.73226683038332 0 0 1 1 0 0 forward_v I I I I #
coedge $-1 $63 $64 $65 $66 forward $21 $-1 #
coedge $-1 $67 $23 $68 $69 forward $14 $-1 #
coedge $-1 $23 $67 $70 $71 forward $14 $-1 #
coedge $-1 $72 $73 $23 $39 forward $74 $-1 #
edge $-1 $75 -24.729260191383432 $76 24.729260191383432 $38 $77 forward 7 unknown #
face $-1 $78 $79 $6 $-1 $80 reversed single #
loop $-1 $-1 $81 $24 #
plane-surface $-1 -43.615833002716144 0 0 1 0 0 0 0 -1 forward_v I I I I #
coedge $-1 $82 $51 $83 $84 forward $25 $-1 #
coedge $-1 $85 $27 $82 $86 forward $17 $-1 #
coedge $-1 $27 $85 $87 $88 forward $17 $-1 #
coedge $-1 $54 $53 $27 $47 reversed $55 $-1 #
edge $-1 $89 -24.729260191383432 $90 24.729260191383432 $46 $91 forward 7 unknown #
coedge $-1 $29 $28 $92 $93 forward $11 $-1 #
coedge $-1 $94 $95 $28 $50 reversed $79 $-1 #
edge $-1 $57 -43.615833002716144 $96 43.615833002716144 $49 $97 forward 7 unknown #
coedge $-1 $43 $98 $29 $52 reversed $25 $-1 #
edge $-1 $99 -43.615833002716144 $56 43.615833002716144 $51 $100 forward 7 unknown #
coedge $-1 $46 $30 $98 $101 forward $55 $-1 #
coedge $-1 $30 $46 $94 $102 reversed $55 $-1 #
loop $-1 $-1 $53 $78 #
vertex $-1 $31 $103 #
vertex $-1 $31 $104 #
straight-curve $-1 43.615833002716144 0 11.73226683038332 0 1 0 I I #
face $-1 $105 $106 $7 $-1 $107 reversed single #
loop $-1 $-1 $108 $32 #
plane-surface $-1 0 0 -11.73226683038332 0 0 1 1 0 0 forward_v I I I I #
coedge $-1 $109 $110 $111 $112 forward $33 $-1 #
coedge $-1 $113 $35 $67 $114 reversed $21 $-1 #
coedge $-1 $35 $113 $115 $116 reversed $21 $-1 #
coedge $-1 $117 $70 $35 $66 reversed $118 $-1 #
edge $-1 $119 -3.0993278270968059 $120 3.0993278270968059 $65 $121 forward 7 unknown #
coedge $-1 $37 $36 $63 $114 forward $14 $-1 #
coedge $-1 $122 $123 $36 $69 reversed $106 $-1 #
edge $-1 $75 -6.6282491801728654 $124 6.6282491801728654 $68 $125 forward 7 unknown #
coedge $-1 $65 $126 $37 $71 reversed $118 $-1 #
edge $-1 $120 -6.6282491801728654 $76 6.6282491801728654 $70 $127 forward 7 unknown #
coedge $-1 $128 $38 $126 $129 forward $74 $-1 #
coedge $-1 $38 $128 $122 $130 reversed $74 $-1 #
loop $-1 $-1 $38 $105 #
vertex $-1 $130 $131 #
vertex $-1 $129 $132 #
straight-curve $-1 -43.615833002716144 0 5.5336111761897069 0 1 0 I I #
face $-1 $-1 $55 $6 $-1 $133 reversed single #
loop $-1 $-1 $94 $40 #
plane-surface $-1 0 24.729260191383432 0 0 -1 0 0 0 -1 forward_v I I I I #
coedge $-1 $134 $92 $95 $135 forward $41 $-1 #
coedge $-1 $98 $43 $44 $86 reversed $25 $-1 #
coedge $-1 $92 $134 $43 $84 reversed $41 $-1 #
edge $-1 $99 -11.73226683038332 $136 11.73226683038332 $83 $137 forward 7 unknown #
coedge $-1 $45 $44 $134 $138 forward $17 $-1 #
edge $-1 $90 -43.615833002716144 $136 43.615833002716144 $82 $139 forward 7 unknown #
coedge $-1 $95 $94 $45 $88 reversed $79 $-1 #
edge $-1 $140 -43.615833002716144 $89 43.615833002716144 $87 $141 forward 7 unknown #
vertex $-1 $47 $142 #
vertex $-1 $101 $143 #
straight-curve $-1 43.615833002716144 0 -11.73226683038332 0 -1 0 I I #
coedge $-1 $81 $83 $48 $93 reversed $41 $-1 #
edge $-1 $96 -24.729260191383432 $99 24.729260191383432 $92 $144 forward 7 unknown #
coedge $-1 $87 $49 $54 $102 forward $79 $-1 #
coedge $-1 $49 $87 $81 $135 reversed $79 $-1 #
vertex $-1 $50 $145 #
straight-curve $-1 0 24.729260191383432 11.73226683038332 -1 0 0 I I #
coedge $-1 $51 $82 $53 $101 reversed $25 $-1 #
vertex $-1 $93 $146 #
straight-curve $-1 0 -24.729260191383432 11.73226683038332 1 0 0 I I #
edge $-1 $56 -11.73226683038332 $90 11.73226683038332 $53 $147 forward 7 unknown #
edge $-1 $57 -11.73226683038332 $89 11.73226683038332 $54 $148 forward 7 unknown #
point $-1 43.615833002716144 -24.729260191383432 11.73226683038332 #
point $-1 43.615833002716144 24.729260191383432 11.73226683038332 #
face $-1 $149 $74 $7 $-1 $150 reversed single #
loop $-1 $-1 $122 $59 #
plane-surface $-1 0 -24.729260191383432 0 0 1 0 0 0 1 forward_v I I I I #
coedge $-1 $151 $152 $153 $154 forward $60 $-1 #
coedge $-1 $115 $62 $117 $155 forward $33 $-1 #
coedge $-1 $62 $115 $156 $157 forward $33 $-1 #
coedge $-1 $158 $159 $62 $112 reversed $160 $-1 #
edge $-1 $161 -24.729260191383432 $162 24.729260191383432 $111 $163 forward 7 unknown #
coedge $-1 $64 $63 $123 $164 reversed $21 $-1 #
edge $-1 $124 -24.729260191383432 $120 24.729260191383432 $63 $165 forward 7 unknown #
coedge $-1 $110 $109 $64 $116 forward $33 $-1 #
edge $-1 $119 -24.729260191383432 $166 24.729260191383432 $64 $167 forward 7 unknown #
coedge $-1 $168 $65 $109 $155 reversed $118 $-1 #
loop $-1 $-1 $168 $149 #
vertex $-1 $155 $169 #
vertex $-1 $71 $170 #
straight-curve $-1 -56.872331363061875 24.729260191383432 8.6329390032865128 0 0 -1 I I #
coedge $-1 $171 $68 $73 $130 forward $106 $-1 #
coedge $-1 $68 $156 $113 $164 forward $106 $-1 #
vertex $-1 $114 $172 #
straight-curve $-1 -50.244082182889009 -24.729260191383432 5.5336111761897069 -1 0 0 I I #
coedge $-1 $70 $173 $72 $129 reversed $118 $-1 #
straight-curve $-1 -50.244082182889009 24.729260191383432 5.5336111761897069 1 0 0 I I #
coedge $-1 $73 $72 $174 $175 reversed $74 $-1 #
edge $-1 $76 -5.5336111761897069 $176 11.73226683038332 $126 $177 forward 7 unknown #
edge $-1 $75 -5.5336111761897069 $178 11.73226683038332 $73 $179 forward 7 unknown #
point $-1 -43.615833002716144 -24.729260191383432 5.5336111761897069 #
point $-1 -43.615833002716144 24.729260191383432 5.5336111761897069 #
plane-surface $-1 43.615833002716144 0 0 -1 0 0 0 0 1 forward_v I I I I #
coedge $-1 $83 $81 $85 $138 reversed $41 $-1 #
edge $-1 $96 -11.73226683038332 $140 11.73226683038332 $95 $180 forward 7 unknown #
vertex $-1 $138 $181 #
straight-curve $-1 -43.615833002716144 -24.729260191383432 0 0 0 -1 I I #
edge $-1 $136 -24.729260191383432 $140 24.729260191383432 $134 $182 forward 7 unknown #
straight-curve $-1 0 -24.729260191383432 -11.73226683038332 -1 0 0 I I #
vertex $-1 $88 $183 #
straight-curve $-1 0 24.729260191383432 -11.73226683038332 1 0 0 I I #
point $-1 43.615833002716144 24.729260191383432 -11.73226683038332 #
point $-1 43.615833002716144 -24.729260191383432 -11.73226683038332 #
straight-curve $-1 -43.615833002716144 0 11.73226683038332 0 -1 0 I I #
point $-1 -43.615833002716144 24.729260191383432 11.73226683038332 #
point $-1 -43.615833002716144 -24.729260191383432 11.73226683038332 #
straight-curve $-1 43.615833002716144 -24.729260191383432 0 0 0 -1 I I #
straight-curve $-1 43.615833002716144 24.729260191383432 0 0 0 -1 I I #
face $-1 $184 $118 $7 $-1 $185 reversed single #
plane-surface $-1 -43.615833002716144 0 0 1 0 0 0 0 -1 forward_v I I I I #
coedge $-1 $174 $108 $171 $186 forward $60 $-1 #
coedge $-1 $108 $174 $173 $187 forward $60 $-1 #
coedge $-1 $159 $158 $108 $154 reversed $160 $-1 #
edge $-1 $188 -24.729260191383432 $189 24.729260191383432 $153 $190 forward 7 unknown #
edge $-1 $162 -43.615833002716144 $119 56.872331363061875 $117 $191 forward 7 unknown #
coedge $-1 $123 $192 $110 $157 reversed $106 $-1 #
edge $-1 $166 -56.872331363061875 $161 43.615833002716144 $156 $193 forward 7 unknown #
coedge $-1 $153 $111 $192 $194 forward $160 $-1 #
coedge $-1 $111 $153 $168 $195 reversed $160 $-1 #
loop $-1 $-1 $158 $184 #
vertex $-1 $112 $196 #
vertex $-1 $112 $197 #
straight-curve $-1 43.615833002716144 0 11.73226683038332 0 1 0 I I #
edge $-1 $166 -3.0993278270968059 $124 3.0993278270968059 $113 $198 forward 7 unknown #
straight-curve $-1 -56.872331363061875 0 5.5336111761897069 0 1 0 I I #
vertex $-1 $116 $199 #
straight-curve $-1 -56.872331363061875 0 11.732266830383319 0 -1 0 I I #
coedge $-1 $173 $117 $159 $195 forward $118 $-1 #
point $-1 -56.872331363061875 24.729260191383432 11.732266830383319 #
point $-1 -56.872331363061875 24.729260191383432 5.5336111761897069 #
coedge $-1 $192 $122 $151 $186 reversed $106 $-1 #
point $-1 -56.872331363061875 -24.729260191383432 5.5336111761897069 #
coedge $-1 $126 $168 $152 $187 reversed $118 $-1 #
coedge $-1 $152 $151 $128 $175 forward $60 $-1 #
edge $-1 $178 -24.729260191383432 $176 24.729260191383432 $128 $200 forward 7 unknown #
vertex $-1 $187 $201 #
straight-curve $-1 -43.615833002716144 24.729260191383432 0 0 0 -1 I I #
vertex $-1 $175 $202 #
straight-curve $-1 -43.615833002716144 -24.729260191383432 0 0 0 -1 I I #
straight-curve $-1 -43.615833002716144 24.729260191383432 0 0 0 -1 I I #
point $-1 -43.615833002716144 -24.729260191383432 -11.73226683038332 #
straight-curve $-1 -43.615833002716144 0 -11.73226683038332 0 1 0 I I #
point $-1 -43.615833002716144 24.729260191383432 -11.73226683038332 #
face $-1 $-1 $160 $7 $-1 $203 reversed single #
plane-surface $-1 0 24.729260191383432 0 0 -1 0 0 0 -1 forward_v I I I I #
edge $-1 $189 -43.615833002716144 $178 43.615833002716144 $171 $204 forward 7 unknown #
edge $-1 $176 -43.615833002716144 $188 43.615833002716144 $173 $205 forward 7 unknown #
vertex $-1 $154 $206 #
vertex $-1 $194 $207 #
straight-curve $-1 43.615833002716144 0 -11.73226683038332 0 -1 0 I I #
straight-curve $-1 0 24.729260191383432 11.73226683038332 -1 0 0 I I #
coedge $-1 $156 $171 $158 $194 reversed $106 $-1 #
straight-curve $-1 0 -24.729260191383432 11.73226683038332 1 0 0 I I #
edge $-1 $161 -11.73226683038332 $189 11.73226683038332 $158 $208 forward 7 unknown #
edge $-1 $162 -11.73226683038332 $188 11.73226683038332 $159 $209 forward 7 unknown #
point $-1 43.615833002716144 -24.729260191383432 11.73226683038332 #
point $-1 43.615833002716144 24.729260191383432 11.73226683038332 #
straight-curve $-1 -56.872331363061875 -24.729260191383432 8.6329390032865128 0 0 -1 I I #
point $-1 -56.872331363061875 -24.729260191383432 11.732266830383319 #
straight-curve $-1 -43.615833002716144 0 -11.73226683038332 0 1 0 I I #
point $-1 -43.615833002716144 24.729260191383432 -11.73226683038332 #
point $-1 -43.615833002716144 -24.729260191383432 -11.73226683038332 #
plane-surface $-1 43.615833002716144 0 0 -1 0 0 0 0 1 forward_v I I I I #
straight-curve $-1 0 -24.729260191383432 -11.73226683038332 -1 0 0 I I #
straight-curve $-1 0 24.729260191383432 -11.73226683038332 1 0 0 I I #
point $-1 43.615833002716144 24.729260191383432 -11.73226683038332 #
point $-1 43.615833002716144 -24.729260191383432 -11.73226683038332 #
straight-curve $-1 43.615833002716144 -24.729260191383432 0 0 0 -1 I I #
straight-curve $-1 43.615833002716144 24.729260191383432 0 0 0 -1 I I #
End-of-ACIS-data 