500 0 9 0           
7 Unknown 11 ACIS 5.0 NT 24 Fri Mar 26 20:38:31 1999 
-1 9.9999999999999995e-007 1e-010 
body $-1 $9 $-1 $10 #
body $-1 $11 $-1 $12 #
body $-1 $13 $-1 $14 #
body $-1 $15 $-1 $16 #
body $-1 $17 $-1 $18 #
body $-1 $19 $-1 $20 #
body $-1 $21 $-1 $22 #
body $-1 $23 $-1 $24 #
body $-1 $25 $-1 $26 #
lump $-1 $-1 $27 $0 #
transform $-1 1 0 0 0 1 0 0 0 1 70.505081331827753 32.981410768585953 14.898756189322564 1 rotate no_reflect no_shear #
lump $-1 $-1 $28 $1 #
transform $-1 1 0 0 0 1 0 0 0 1 70.505081331827753 32.981410768585953 14.898756189322564 1 rotate no_reflect no_shear #
lump $-1 $-1 $29 $2 #
transform $-1 1 0 0 0 1 0 0 0 1 70.505081331827753 32.981410768585953 14.898756189322564 1 rotate no_reflect no_shear #
lump $-1 $-1 $30 $3 #
transform $-1 1 0 0 0 1 0 0 0 1 70.505081331827753 32.981410768585953 14.898756189322564 1 rotate no_reflect no_shear #
lump $-1 $-1 $31 $4 #
transform $-1 1 0 0 0 1 0 0 0 1 70.505081331827753 32.981410768585953 14.898756189322564 1 rotate no_reflect no_shear #
lump $-1 $-1 $32 $5 #
transform $-1 1 0 0 0 1 0 0 0 1 70.505081331827753 32.981410768585953 14.898756189322564 1 rotate no_reflect no_shear #
lump $-1 $-1 $33 $6 #
transform $-1 1 0 0 0 1 0 0 0 1 70.505081331827753 32.981410768585953 14.898756189322564 1 rotate no_reflect no_shear #
lump $-1 $-1 $34 $7 #
transform $-1 1 0 0 0 1 0 0 0 1 70.505081331827753 32.981410768585953 14.898756189322564 1 rotate no_reflect no_shear #
lump $-1 $-1 $35 $8 #
transform $-1 1 0 0 0 1 0 0 0 1 70.505081331827753 32.981410768585953 14.898756189322564 1 rotate no_reflect no_shear #
shell $-1 $-1 $-1 $36 $-1 $9 #
shell $-1 $-1 $-1 $37 $-1 $11 #
shell $-1 $-1 $-1 $38 $-1 $13 #
shell $-1 $-1 $-1 $39 $-1 $15 #
shell $-1 $-1 $-1 $40 $-1 $17 #
shell $-1 $-1 $-1 $41 $-1 $19 #
shell $-1 $-1 $-1 $42 $-1 $21 #
shell $-1 $-1 $-1 $43 $-1 $23 #
shell $-1 $-1 $-1 $44 $-1 $25 #
face $-1 $45 $46 $27 $-1 $47 forward single #
face $-1 $48 $49 $28 $-1 $50 forward single #
face $-1 $51 $52 $29 $-1 $53 forward single #
face $-1 $54 $55 $30 $-1 $56 reversed single #
face $-1 $57 $58 $31 $-1 $59 forward single #
face $-1 $60 $61 $32 $-1 $62 forward single #
face $-1 $63 $64 $33 $-1 $65 reversed single #
face $-1 $66 $67 $34 $-1 $68 forward single #
face $-1 $69 $70 $35 $-1 $71 forward single #
face $-1 $72 $73 $27 $-1 $74 reversed single #
loop $-1 $-1 $75 $36 #
plane-surface $-1 0 0 14.898756189322564 0 0 1 1 0 0 forward_v I I I I #
face $-1 $76 $77 $28 $-1 $78 reversed single #
loop $-1 $-1 $79 $37 #
plane-surface $-1 0 -32.981410768585953 0 0 1 0 0 0 1 forward_v I I I I #
face $-1 $80 $81 $29 $-1 $82 reversed single #
loop $-1 $-1 $83 $38 #
plane-surface $-1 0 32.981410768585953 0 0 -1 0 0 0 -1 forward_v I I I I #
face $-1 $84 $85 $30 $-1 $86 reversed single #
loop $-1 $-1 $87 $39 #
plane-surface $-1 42.75139434310276 -8.9483482750191534 201.42173770210076 0 -1 0 -0.6018150307709319 0 -0.79863550430605224 forward_v I I I I #
face $-1 $88 $89 $31 $-1 $90 forward single #
loop $-1 $91 $92 $40 #
cone-surface $-1 62.679446765926379 -15.974646269384603 8.6823432334037882 -0.6018150307709319 0 -0.79863550430605224 0.39931775215302612 0 -0.30090751538546595 1 I I 0 1 0.5 forward I I I I #
face $-1 $93 $94 $32 $-1 $95 forward single #
loop $-1 $96 $97 $41 #
cone-surface $-1 62.679446765926379 -11.758867472765331 8.6823432334037882 -0.6018150307709319 0 -0.79863550430605224 0.39931775215302612 0 -0.30090751538546595 1 I I 0 1 0.5 forward I I I I #
face $-1 $98 $99 $33 $-1 $100 reversed single #
loop $-1 $-1 $101 $42 #
plane-surface $-1 -161.14466784596073 0.091362934426996389 117.69316889806649 0 1 0 -0.64278761758704617 0 0.76604443648966558 forward_v I I I I #
face $-1 $102 $103 $34 $-1 $104 forward single #
loop $-1 $105 $106 $43 #
cone-surface $-1 -66.756431693978769 1.8847488048921335 11.529396182938005 0.64278761758704617 0 -0.76604443648966558 0.38302221824483279 0 0.32139380879352308 1 I I 0 1 0.5 forward I I I I #
face $-1 $107 $108 $35 $-1 $109 forward single #
loop $-1 $110 $111 $44 #
cone-surface $-1 -66.756431693978769 4.5748276105898427 11.529396182938005 0.64278761758704617 0 -0.76604443648966558 0.38302221824483279 0 0.32139380879352308 1 I I 0 1 0.5 forward I I I I #
face $-1 $112 $113 $27 $-1 $114 reversed single #
loop $-1 $-1 $115 $45 #
plane-surface $-1 0 0 -14.898756189322564 0 0 1 1 0 0 forward_v I I I I #
coedge $-1 $116 $117 $118 $119 forward $46 $-1 #
face $-1 $120 $121 $28 $-1 $122 forward single #
loop $-1 $-1 $123 $48 #
plane-surface $-1 -70.505081331827753 0 0 1 0 0 0 0 -1 forward_v I I I I #
coedge $-1 $124 $125 $126 $127 forward $49 $-1 #
face $-1 $128 $129 $29 $-1 $130 forward single #
loop $-1 $-1 $131 $51 #
plane-surface $-1 70.505081331827753 0 0 -1 0 0 0 0 1 forward_v I I I I #
coedge $-1 $132 $133 $134 $135 forward $52 $-1 #
face $-1 $136 $137 $30 $-1 $138 reversed single #
loop $-1 $-1 $139 $54 #
plane-surface $-1 -42.110641039339185 -13.866756871074969 88.806015330933789 0.6018150307709319 0 0.79863550430605224 0.79863550430605224 0 -0.6018150307709319 forward_v I I I I #
coedge $-1 $140 $141 $142 $143 reversed $55 $-1 #
face $-1 $-1 $144 $31 $-1 $145 forward single #
loop $-1 $146 $147 $57 #
cone-surface $-1 61.972097839259888 -15.974646269384603 7.7436595218238775 -0.6018150307709319 0 -0.79863550430605224 0.19965887607651306 0 -0.15045375769273298 1 I I -0.70710678118654746 0.70710678118654746 0.25 forward I I I I #
loop $-1 $-1 $148 $40 #
coedge $-1 $92 $92 $149 $150 reversed $58 $-1 #
face $-1 $-1 $151 $32 $-1 $152 forward single #
loop $-1 $153 $154 $60 #
cone-surface $-1 61.972097839259888 -11.758867472765331 7.7436595218238775 -0.6018150307709319 0 -0.79863550430605224 0.19965887607651306 0 -0.15045375769273298 1 I I -0.70710678118654746 0.70710678118654746 0.25 forward I I I I #
loop $-1 $-1 $155 $41 #
coedge $-1 $97 $97 $156 $157 reversed $61 $-1 #
face $-1 $158 $159 $33 $-1 $160 reversed single #
loop $-1 $-1 $161 $63 #
plane-surface $-1 -70.505081331827753 3.2297882077409881 9.6731183010704314 -0.64278761758704617 0 0.76604443648966558 0.76604443648966558 0 0.64278761758704617 forward_v I I I I #
coedge $-1 $162 $163 $164 $165 reversed $64 $-1 #
face $-1 $-1 $166 $34 $-1 $167 forward single #
loop $-1 $168 $169 $66 #
cone-surface $-1 -65.960921449974308 1.8847488048921335 10.581344011557102 0.64278761758704617 0 -0.76604443648966558 0.1915111091224164 0 0.16069690439676154 1 I I -0.70710678118654746 0.70710678118654746 0.25 forward I I I I #
loop $-1 $-1 $170 $43 #
coedge $-1 $106 $106 $171 $172 reversed $67 $-1 #
face $-1 $-1 $173 $35 $-1 $174 forward single #
loop $-1 $175 $176 $69 #
cone-surface $-1 -65.960921449974308 4.5748276105898427 10.581344011557102 0.64278761758704617 0 -0.76604443648966558 0.1915111091224164 0 0.16069690439676154 1 I I -0.70710678118654746 0.70710678118654746 0.25 forward I I I I #
loop $-1 $-1 $177 $44 #
coedge $-1 $111 $111 $178 $179 reversed $70 $-1 #
face $-1 $180 $181 $27 $-1 $182 reversed single #
loop $-1 $-1 $183 $72 #
plane-surface $-1 0 -32.981410768585953 0 0 1 0 0 0 1 forward_v I I I I #
coedge $-1 $184 $185 $186 $187 forward $73 $-1 #
coedge $-1 $188 $75 $189 $190 forward $46 $-1 #
coedge $-1 $75 $188 $191 $192 forward $46 $-1 #
coedge $-1 $193 $194 $75 $119 reversed $195 $-1 #
edge $-1 $196 -32.981410768585953 $197 32.981410768585953 $118 $198 forward 7 unknown #
face $-1 $199 $200 $28 $-1 $201 reversed single #
loop $-1 $-1 $202 $76 #
plane-surface $-1 0 -40.079533419313535 -8.4023320980224785 0 0 1 1 0 0 forward_v I I I I #
coedge $-1 $203 $204 $125 $205 forward $77 $-1 #
coedge $-1 $206 $79 $207 $208 reversed $49 $-1 #
coedge $-1 $79 $206 $123 $205 reversed $49 $-1 #
coedge $-1 $209 $202 $79 $127 reversed $121 $-1 #
edge $-1 $210 -70.505081331827753 $211 70.505081331827753 $126 $212 forward 7 unknown #
face $-1 $213 $214 $29 $-1 $215 reversed single #
loop $-1 $-1 $216 $80 #
plane-surface $-1 0 40.079533419313528 -8.4023320980224785 0 0 1 1 0 0 forward_v I I I I #
coedge $-1 $217 $218 $133 $219 forward $81 $-1 #
coedge $-1 $220 $83 $221 $222 reversed $52 $-1 #
coedge $-1 $83 $220 $131 $219 reversed $52 $-1 #
coedge $-1 $216 $223 $83 $135 reversed $129 $-1 #
edge $-1 $224 -70.505081331827753 $225 70.505081331827753 $134 $226 forward 7 unknown #
face $-1 $227 $228 $30 $-1 $229 forward single #
loop $-1 $-1 $230 $84 #
plane-surface $-1 42.75139434310276 -18.785165467130785 201.42173770210076 0 1 0 0.6018150307709319 0 0.79863550430605224 forward_v I I I I #
coedge $-1 $231 $232 $233 $234 reversed $85 $-1 #
coedge $-1 $141 $87 $235 $236 reversed $55 $-1 #
coedge $-1 $87 $140 $231 $237 reversed $55 $-1 #
coedge $-1 $233 $238 $87 $143 forward $228 $-1 #
edge $-1 $239 -49.129384160276373 $240 -34.591905366421088 $142 $241 forward 7 unknown #
loop $-1 $-1 $149 $88 #
plane-surface $-1 -42.110641039339185 -13.866756871074969 88.806015330933789 0.6018150307709319 0 0.79863550430605224 0.79863550430605224 0 -0.6018150307709319 forward_v I I I I #
loop $-1 $-1 $242 $57 #
coedge $-1 $147 $147 $148 $243 reversed $89 $-1 #
coedge $-1 $148 $148 $147 $243 forward $91 $-1 #
coedge $-1 $149 $149 $92 $150 forward $144 $-1 #
edge $-1 $244 0 $244 6.2831853071796004 $149 $245 forward 7 unknown #
loop $-1 $-1 $156 $93 #
plane-surface $-1 -42.110641039339185 -13.866756871074969 88.806015330933789 0.6018150307709319 0 0.79863550430605224 0.79863550430605224 0 -0.6018150307709319 forward_v I I I I #
loop $-1 $-1 $246 $60 #
coedge $-1 $154 $154 $155 $247 reversed $94 $-1 #
coedge $-1 $155 $155 $154 $247 forward $96 $-1 #
coedge $-1 $156 $156 $97 $157 forward $151 $-1 #
edge $-1 $248 0 $248 6.2831853071796004 $156 $249 forward 7 unknown #
face $-1 $250 $251 $33 $-1 $252 reversed single #
loop $-1 $-1 $253 $98 #
plane-surface $-1 -161.14466784596073 6.3682134810549798 117.69316889806649 0 -1 0 0.64278761758704617 0 -0.76604443648966558 forward_v I I I I #
coedge $-1 $254 $255 $256 $257 reversed $99 $-1 #
coedge $-1 $163 $101 $258 $259 reversed $64 $-1 #
coedge $-1 $101 $162 $254 $260 reversed $64 $-1 #
coedge $-1 $256 $261 $101 $165 forward $262 $-1 #
edge $-1 $263 10.067252591152609 $264 16.294925187635158 $164 $265 forward 7 unknown #
loop $-1 $-1 $171 $102 #
plane-surface $-1 -70.505081331827753 3.2297882077409881 9.6731183010704314 -0.64278761758704617 0 0.76604443648966558 0.76604443648966558 0 0.64278761758704617 forward_v I I I I #
loop $-1 $-1 $266 $66 #
coedge $-1 $169 $169 $170 $267 reversed $103 $-1 #
coedge $-1 $170 $170 $169 $267 forward $105 $-1 #
coedge $-1 $171 $171 $106 $172 forward $166 $-1 #
edge $-1 $268 0 $268 6.2831853071796004 $171 $269 forward 7 unknown #
loop $-1 $-1 $178 $107 #
plane-surface $-1 -70.505081331827753 3.2297882077409881 9.6731183010704314 -0.64278761758704617 0 0.76604443648966558 0.76604443648966558 0 0.64278761758704617 forward_v I I I I #
loop $-1 $-1 $270 $69 #
coedge $-1 $176 $176 $177 $271 reversed $108 $-1 #
coedge $-1 $177 $177 $176 $271 forward $110 $-1 #
coedge $-1 $178 $178 $111 $179 forward $173 $-1 #
edge $-1 $272 0 $272 6.2831853071796004 $178 $273 forward 7 unknown #
face $-1 $274 $275 $27 $-1 $276 reversed single #
loop $-1 $-1 $277 $112 #
plane-surface $-1 -70.505081331827753 0 0 1 0 0 0 0 -1 forward_v I I I I #
coedge $-1 $278 $191 $279 $280 forward $113 $-1 #
coedge $-1 $281 $115 $278 $282 forward $73 $-1 #
coedge $-1 $115 $281 $283 $284 forward $73 $-1 #
coedge $-1 $194 $193 $115 $187 reversed $195 $-1 #
edge $-1 $285 -32.981410768585953 $286 32.981410768585953 $186 $287 forward 7 unknown #
coedge $-1 $117 $116 $288 $289 forward $46 $-1 #
coedge $-1 $290 $291 $116 $190 reversed $275 $-1 #
edge $-1 $197 -70.505081331827753 $292 70.505081331827753 $189 $293 forward 7 unknown #
coedge $-1 $183 $294 $117 $192 reversed $113 $-1 #
edge $-1 $295 -70.505081331827753 $196 70.505081331827753 $191 $296 forward 7 unknown #
coedge $-1 $186 $118 $294 $297 forward $195 $-1 #
coedge $-1 $118 $186 $290 $298 reversed $195 $-1 #
loop $-1 $-1 $193 $274 #
vertex $-1 $119 $299 #
vertex $-1 $119 $300 #
straight-curve $-1 70.505081331827753 0 14.898756189322564 0 1 0 I I #
face $-1 $301 $302 $28 $-1 $303 reversed single #
loop $-1 $-1 $304 $120 #
plane-surface $-1 0 -40.079533419313535 -13.333967260857966 0 0 1 1 0 0 forward_v I I I I #
coedge $-1 $126 $305 $306 $307 forward $121 $-1 #
coedge $-1 $308 $123 $309 $310 reversed $77 $-1 #
coedge $-1 $123 $308 $209 $311 reversed $77 $-1 #
edge $-1 $210 8.4023320980224785 $312 13.333967260857966 $123 $313 forward 7 unknown #
coedge $-1 $125 $124 $314 $315 forward $49 $-1 #
coedge $-1 $306 $316 $124 $208 forward $317 $-1 #
edge $-1 $318 -13.333967260857966 $211 -8.4023320980224785 $207 $319 forward 7 unknown #
coedge $-1 $305 $126 $204 $311 forward $121 $-1 #
vertex $-1 $205 $320 #
vertex $-1 $307 $321 #
straight-curve $-1 0 -32.981410768585953 -8.4023320980224785 1 0 0 I I #
face $-1 $322 $323 $29 $-1 $324 reversed single #
loop $-1 $-1 $325 $128 #
plane-surface $-1 0 40.079533419313528 -13.333967260857966 0 0 1 1 0 0 forward_v I I I I #
coedge $-1 $326 $134 $218 $327 forward $129 $-1 #
coedge $-1 $328 $131 $325 $329 reversed $81 $-1 #
coedge $-1 $131 $328 $216 $327 reversed $81 $-1 #
edge $-1 $224 8.4023320980224785 $330 13.333967260857966 $131 $331 forward 7 unknown #
coedge $-1 $133 $132 $332 $333 forward $52 $-1 #
coedge $-1 $334 $335 $132 $222 forward $336 $-1 #
edge $-1 $337 -13.333967260857966 $225 -8.4023320980224785 $221 $338 forward 7 unknown #
coedge $-1 $134 $326 $334 $339 forward $129 $-1 #
vertex $-1 $219 $340 #
vertex $-1 $339 $341 #
straight-curve $-1 0 32.981410768585953 -8.4023320980224785 -1 0 0 I I #
face $-1 $-1 $342 $30 $-1 $343 reversed single #
loop $-1 $-1 $142 $136 #
plane-surface $-1 0 0 14.898756189322564 0 0 1 1 0 0 forward_v I I I I #
coedge $-1 $344 $345 $346 $347 reversed $137 $-1 #
coedge $-1 $348 $139 $141 $237 forward $85 $-1 #
coedge $-1 $139 $348 $344 $349 forward $85 $-1 #
coedge $-1 $346 $142 $139 $234 forward $228 $-1 #
edge $-1 $240 2.0149698394816689 $350 11.8517870315933 $233 $351 forward 7 unknown #
coedge $-1 $352 $353 $140 $236 forward $342 $-1 #
edge $-1 $354 -96.766888902558506 $239 -85.812112661727809 $235 $355 forward 7 unknown #
edge $-1 $240 122.80726695532212 $354 141.01016266365548 $141 $356 forward 7 unknown #
coedge $-1 $142 $346 $352 $357 forward $228 $-1 #
vertex $-1 $236 $358 #
vertex $-1 $143 $359 #
straight-curve $-1 21.37569717155138 -8.9483482750191534 14.898756189322569 -1 0 0 I I #
coedge $-1 $242 $242 $-1 $360 reversed $146 $-1 #
edge $-1 $361 0 $361 6.2831853071796004 $147 $362 forward 7 unknown #
vertex $-1 $150 $363 #
ellipse-curve $-1 63.236341934900139 -15.974646269384603 9.4213680689071957 0.6018150307709319 0 0.79863550430605224 0.39931775215302612 0 -0.30090751538546595 1 I I #
coedge $-1 $246 $246 $-1 $364 reversed $153 $-1 #
edge $-1 $365 0 $365 6.2831853071796004 $154 $366 forward 7 unknown #
vertex $-1 $157 $367 #
ellipse-curve $-1 63.236341934900139 -11.758867472765331 9.4213680689071957 0.6018150307709319 0 0.79863550430605224 0.39931775215302612 0 -0.30090751538546595 1 I I #
face $-1 $-1 $262 $33 $-1 $368 forward single #
loop $-1 $-1 $369 $158 #
plane-surface $-1 -70.505081331827753 0 0 1 0 0 0 0 -1 forward_v I I I I #
coedge $-1 $370 $371 $372 $373 reversed $159 $-1 #
coedge $-1 $374 $161 $163 $260 forward $99 $-1 #
coedge $-1 $161 $374 $370 $375 forward $99 $-1 #
coedge $-1 $372 $164 $161 $257 forward $262 $-1 #
edge $-1 $264 -1.5235311694434976 $376 4.7533193771844857 $256 $377 forward 7 unknown #
coedge $-1 $378 $379 $162 $259 forward $251 $-1 #
edge $-1 $380 -49.173466147962813 $263 -43.947828259710683 $258 $381 forward 7 unknown #
edge $-1 $264 -8.1296492733767973 $380 0 $163 $382 forward 7 unknown #
coedge $-1 $164 $372 $378 $383 forward $262 $-1 #
loop $-1 $-1 $372 $250 #
vertex $-1 $259 $384 #
vertex $-1 $165 $385 #
straight-curve $-1 -80.572333922980363 0.091362934426996389 14.898756189322562 1 0 0 I I #
coedge $-1 $266 $266 $-1 $386 reversed $168 $-1 #
edge $-1 $387 0 $387 6.2831853071796004 $169 $388 forward 7 unknown #
vertex $-1 $172 $389 #
ellipse-curve $-1 -67.391245033586472 1.8847488048921335 12.285937245196498 -0.64278761758704617 0 0.76604443648966558 0.38302221824483279 0 0.32139380879352308 1 I I #
coedge $-1 $270 $270 $-1 $390 reversed $175 $-1 #
edge $-1 $391 0 $391 6.2831853071796004 $176 $392 forward 7 unknown #
vertex $-1 $179 $393 #
ellipse-curve $-1 -67.391245033586472 4.5748276105898427 12.285937245196498 -0.64278761758704617 0 0.76604443648966558 0.38302221824483279 0 0.32139380879352308 1 I I #
face $-1 $-1 $195 $27 $-1 $394 reversed single #
loop $-1 $-1 $291 $180 #
plane-surface $-1 0 32.981410768585953 0 0 -1 0 0 0 -1 forward_v I I I I #
coedge $-1 $395 $288 $291 $396 forward $181 $-1 #
coedge $-1 $294 $183 $184 $282 reversed $113 $-1 #
coedge $-1 $288 $395 $183 $280 reversed $181 $-1 #
edge $-1 $295 -14.898756189322564 $397 14.898756189322564 $279 $398 forward 7 unknown #
coedge $-1 $185 $184 $395 $399 forward $73 $-1 #
edge $-1 $286 -70.505081331827753 $397 70.505081331827753 $278 $400 forward 7 unknown #
coedge $-1 $291 $290 $185 $284 reversed $275 $-1 #
edge $-1 $401 -70.505081331827753 $285 70.505081331827753 $283 $402 forward 7 unknown #
vertex $-1 $187 $403 #
vertex $-1 $297 $404 #
straight-curve $-1 70.505081331827753 0 -14.898756189322564 0 -1 0 I I #
coedge $-1 $277 $279 $188 $289 reversed $181 $-1 #
edge $-1 $292 -32.981410768585953 $295 32.981410768585953 $288 $405 forward 7 unknown #
coedge $-1 $283 $189 $194 $298 forward $275 $-1 #
coedge $-1 $189 $283 $277 $396 reversed $275 $-1 #
vertex $-1 $190 $406 #
straight-curve $-1 0 32.981410768585953 14.898756189322564 -1 0 0 I I #
coedge $-1 $191 $278 $193 $297 reversed $113 $-1 #
vertex $-1 $289 $407 #
straight-curve $-1 0 -32.981410768585953 14.898756189322564 1 0 0 I I #
edge $-1 $196 -14.898756189322564 $286 14.898756189322564 $193 $408 forward 7 unknown #
edge $-1 $197 -14.898756189322564 $285 14.898756189322564 $194 $409 forward 7 unknown #
point $-1 70.505081331827753 -32.981410768585953 14.898756189322564 #
point $-1 70.505081331827753 32.981410768585953 14.898756189322564 #
face $-1 $-1 $317 $28 $-1 $410 reversed single #
loop $-1 $-1 $411 $199 #
plane-surface $-1 0 -47.177656070041117 -10.868149679440222 0 1 0 0 0 1 forward_v I I I I #
coedge $-1 $412 $314 $316 $413 forward $200 $-1 #
coedge $-1 $202 $209 $414 $415 forward $121 $-1 #
coedge $-1 $416 $207 $202 $307 reversed $317 $-1 #
edge $-1 $417 -7.0981226507275821 $211 7.0981226507275821 $306 $418 forward 7 unknown #
coedge $-1 $204 $203 $411 $419 reversed $77 $-1 #
coedge $-1 $314 $412 $203 $310 forward $200 $-1 #
edge $-1 $420 -7.0981226507275821 $312 7.0981226507275821 $203 $421 forward 7 unknown #
edge $-1 $210 -7.0981226507275821 $422 7.0981226507275821 $204 $423 forward 7 unknown #
vertex $-1 $205 $424 #
straight-curve $-1 -70.505081331827753 -32.981410768585953 0 0 0 -1 I I #
coedge $-1 $304 $309 $206 $315 reversed $200 $-1 #
edge $-1 $318 -70.505081331827753 $312 70.505081331827753 $314 $425 forward 7 unknown #
coedge $-1 $207 $416 $304 $413 reversed $317 $-1 #
loop $-1 $-1 $207 $301 #
vertex $-1 $208 $426 #
straight-curve $-1 70.505081331827753 -32.981410768585953 0 0 0 1 I I #
point $-1 -70.505081331827753 -32.981410768585953 -8.4023320980224785 #
point $-1 70.505081331827753 -32.981410768585953 -8.4023320980224785 #
face $-1 $-1 $336 $29 $-1 $427 reversed single #
loop $-1 $-1 $428 $213 #
plane-surface $-1 0 47.17765607004111 -10.868149679440222 0 -1 0 0 0 -1 forward_v I I I I #
coedge $-1 $332 $429 $217 $329 forward $214 $-1 #
coedge $-1 $223 $216 $430 $431 forward $129 $-1 #
edge $-1 $224 -7.0981226507275821 $432 7.0981226507275821 $218 $433 forward 7 unknown #
coedge $-1 $218 $217 $428 $434 reversed $81 $-1 #
edge $-1 $435 -7.0981226507275821 $330 7.0981226507275821 $217 $436 forward 7 unknown #
vertex $-1 $219 $437 #
straight-curve $-1 70.505081331827753 32.981410768585953 0 0 0 -1 I I #
coedge $-1 $438 $325 $220 $333 reversed $214 $-1 #
edge $-1 $337 -70.505081331827753 $330 70.505081331827753 $332 $439 forward 7 unknown #
coedge $-1 $440 $221 $223 $339 reversed $336 $-1 #
coedge $-1 $221 $440 $438 $441 reversed $336 $-1 #
loop $-1 $-1 $221 $322 #
vertex $-1 $222 $442 #
straight-curve $-1 -70.505081331827753 32.981410768585953 0 0 0 1 I I #
edge $-1 $443 -7.0981226507275821 $225 7.0981226507275821 $334 $444 forward 7 unknown #
point $-1 70.505081331827753 32.981410768585945 -8.4023320980224785 #
point $-1 -70.505081331827753 32.981410768585945 -8.4023320980224785 #
loop $-1 $-1 $235 $227 #
plane-surface $-1 70.505081331827753 0 0 -1 0 0 0 0 1 forward_v I I I I #
coedge $-1 $345 $230 $232 $349 reversed $137 $-1 #
coedge $-1 $230 $344 $445 $446 reversed $137 $-1 #
coedge $-1 $238 $233 $230 $347 forward $228 $-1 #
edge $-1 $350 34.591905366421088 $447 49.129384160276373 $346 $448 forward 7 unknown #
coedge $-1 $232 $231 $353 $449 reversed $85 $-1 #
edge $-1 $450 -141.01016266365548 $350 -122.80726695532212 $344 $451 forward 7 unknown #
vertex $-1 $234 $452 #
straight-curve $-1 55.967602537972475 -6.9333784355374846 14.898756189322562 0 -1 0 I I #
coedge $-1 $445 $235 $238 $357 reversed $342 $-1 #
coedge $-1 $235 $445 $348 $449 forward $342 $-1 #
vertex $-1 $236 $453 #
straight-curve $-1 70.505081331827753 -8.9483482750191534 100.71086885105038 0 0 1 I I #
straight-curve $-1 -42.110641039339185 -8.9483482750191534 88.806015330933789 0.79863550430605224 0 -0.6018150307709319 I I #
edge $-1 $447 -18.785165467130785 $239 -8.9483482750191534 $352 $454 forward 7 unknown #
point $-1 70.505081331827753 -8.9483482750191534 14.898756189322564 #
point $-1 55.967602537972468 -8.9483482750191534 14.898756189322569 #
edge $-1 $455 1 $455 0 $242 $-1 forward 7 unknown #
vertex $-1 $243 $456 #
ellipse-curve $-1 62.122551596952619 -15.974646269384603 7.9433183979003905 0.6018150307709319 0 0.79863550430605224 0.39931775215302612 0 -0.30090751538546595 1 I I #
point $-1 63.635659687053163 -15.974646269384603 9.1204605535217222 #
edge $-1 $457 1 $457 0 $246 $-1 forward 7 unknown #
vertex $-1 $247 $458 #
ellipse-curve $-1 62.122551596952619 -11.758867472765331 7.9433183979003905 0.6018150307709319 0 0.79863550430605224 0.39931775215302612 0 -0.30090751538546595 1 I I #
point $-1 63.635659687053163 -11.758867472765331 9.1204605535217222 #
plane-surface $-1 0 0 14.898756189322564 0 0 1 1 0 0 forward_v I I I I #
coedge $-1 $379 $378 $371 $459 forward $251 $-1 #
coedge $-1 $371 $253 $255 $375 reversed $159 $-1 #
coedge $-1 $253 $370 $369 $459 reversed $159 $-1 #
coedge $-1 $261 $256 $253 $373 forward $262 $-1 #
edge $-1 $376 -16.294925187635158 $460 -10.067252591152609 $372 $461 forward 7 unknown #
coedge $-1 $255 $254 $379 $462 reversed $99 $-1 #
edge $-1 $463 0 $376 8.1296492733767973 $370 $464 forward 7 unknown #
vertex $-1 $257 $465 #
straight-curve $-1 -64.277408735345205 1.614894103870494 14.898756189322565 0 1 0 I I #
coedge $-1 $369 $258 $261 $383 reversed $251 $-1 #
coedge $-1 $258 $369 $374 $462 forward $251 $-1 #
vertex $-1 $259 $466 #
straight-curve $-1 -70.505081331827753 0.091362934426996389 58.846584449033244 0 0 1 I I #
straight-curve $-1 -70.505081331827753 0.091362934426996389 9.6731183010704314 -0.76604443648966558 0 -0.64278761758704617 I I #
edge $-1 $460 -6.3682134810549798 $263 -0.091362934426996389 $378 $467 forward 7 unknown #
point $-1 -70.505081331827753 0.091362934426996389 14.898756189322564 #
point $-1 -64.277408735345205 0.091362934426996389 14.898756189322564 #
edge $-1 $468 1 $468 0 $266 $-1 forward 7 unknown #
vertex $-1 $267 $469 #
ellipse-curve $-1 -66.121618354371066 1.8847488048921335 10.772855120679518 -0.64278761758704617 0 0.76604443648966558 0.38302221824483279 0 0.32139380879352308 1 I I #
point $-1 -67.008222815341639 1.8847488048921335 12.607331053990015 #
edge $-1 $470 1 $470 0 $270 $-1 forward 7 unknown #
vertex $-1 $271 $471 #
ellipse-curve $-1 -66.121618354371066 4.5748276105898427 10.772855120679518 -0.64278761758704617 0 0.76604443648966558 0.38302221824483279 0 0.32139380879352308 1 I I #
point $-1 -67.008222815341639 4.5748276105898427 12.607331053990015 #
plane-surface $-1 70.505081331827753 0 0 -1 0 0 0 0 1 forward_v I I I I #
coedge $-1 $279 $277 $281 $399 reversed $181 $-1 #
edge $-1 $292 -14.898756189322564 $401 14.898756189322564 $291 $472 forward 7 unknown #
vertex $-1 $399 $473 #
straight-curve $-1 -70.505081331827753 -32.981410768585953 0 0 0 -1 I I #
edge $-1 $397 -32.981410768585953 $401 32.981410768585953 $395 $474 forward 7 unknown #
straight-curve $-1 0 -32.981410768585953 -14.898756189322564 -1 0 0 I I #
vertex $-1 $284 $475 #
straight-curve $-1 0 32.981410768585953 -14.898756189322564 1 0 0 I I #
point $-1 70.505081331827753 32.981410768585953 -14.898756189322564 #
point $-1 70.505081331827753 -32.981410768585953 -14.898756189322564 #
straight-curve $-1 -70.505081331827753 0 14.898756189322564 0 -1 0 I I #
point $-1 -70.505081331827753 32.981410768585953 14.898756189322564 #
point $-1 -70.505081331827753 -32.981410768585953 14.898756189322564 #
straight-curve $-1 70.505081331827753 -32.981410768585953 0 0 0 -1 I I #
straight-curve $-1 70.505081331827753 32.981410768585953 0 0 0 -1 I I #
plane-surface $-1 70.505081331827753 0 0 -1 0 0 0 0 1 forward_v I I I I #
coedge $-1 $476 $414 $308 $419 forward $302 $-1 #
coedge $-1 $309 $304 $476 $477 forward $200 $-1 #
edge $-1 $318 -7.0981226507275821 $478 7.0981226507275821 $316 $479 forward 7 unknown #
coedge $-1 $411 $480 $305 $415 reversed $302 $-1 #
edge $-1 $422 -70.505081331827753 $417 70.505081331827753 $414 $481 forward 7 unknown #
coedge $-1 $316 $306 $480 $482 forward $317 $-1 #
vertex $-1 $307 $483 #
straight-curve $-1 70.505081331827753 -40.079533419313535 -8.4023320980224785 0 1 0 I I #
edge $-1 $422 -2.4658175814177437 $420 2.4658175814177437 $308 $484 forward 7 unknown #
vertex $-1 $310 $485 #
straight-curve $-1 -70.505081331827753 -40.079533419313535 -13.333967260857966 0 1 0 I I #
vertex $-1 $311 $486 #
straight-curve $-1 -70.505081331827753 -40.079533419313535 -8.4023320980224785 0 -1 0 I I #
point $-1 -70.505081331827753 -32.981410768585953 -13.333967260857966 #
straight-curve $-1 0 -32.981410768585953 -13.333967260857966 -1 0 0 I I #
point $-1 70.505081331827753 -32.981410768585953 -13.333967260857966 #
plane-surface $-1 -70.505081331827753 0 0 1 0 0 0 0 -1 forward_v I I I I #
coedge $-1 $487 $430 $328 $434 forward $323 $-1 #
coedge $-1 $325 $438 $487 $488 forward $214 $-1 #
coedge $-1 $428 $489 $326 $431 reversed $323 $-1 #
edge $-1 $432 -70.505081331827753 $443 70.505081331827753 $430 $490 forward 7 unknown #
vertex $-1 $327 $491 #
straight-curve $-1 70.505081331827753 40.079533419313528 -8.4023320980224785 0 1 0 I I #
edge $-1 $432 -2.4658175814177437 $435 2.4658175814177437 $328 $492 forward 7 unknown #
vertex $-1 $329 $493 #
straight-curve $-1 70.505081331827753 40.079533419313528 -13.333967260857966 0 -1 0 I I #
point $-1 70.505081331827753 32.981410768585945 -13.333967260857966 #
coedge $-1 $429 $332 $335 $441 forward $214 $-1 #
straight-curve $-1 0 32.981410768585953 -13.333967260857966 1 0 0 I I #
coedge $-1 $335 $334 $489 $494 forward $336 $-1 #
edge $-1 $337 -7.0981226507275821 $495 7.0981226507275821 $335 $496 forward 7 unknown #
point $-1 -70.505081331827753 32.981410768585945 -13.333967260857966 #
vertex $-1 $431 $497 #
straight-curve $-1 -70.505081331827753 40.079533419313528 -8.4023320980224785 0 -1 0 I I #
coedge $-1 $353 $352 $345 $446 forward $342 $-1 #
edge $-1 $447 85.812112661727809 $450 96.766888902558506 $445 $498 forward 7 unknown #
vertex $-1 $357 $499 #
straight-curve $-1 21.37569717155138 -18.785165467130785 14.898756189322569 1 0 0 I I #
edge $-1 $450 -11.8517870315933 $354 -2.0149698394816689 $353 $500 forward 7 unknown #
vertex $-1 $449 $501 #
straight-curve $-1 -42.110641039339185 -18.785165467130785 88.806015330933789 -0.79863550430605224 0 0.6018150307709319 I I #
point $-1 55.967602537972468 -18.785165467130785 14.898756189322569 #
point $-1 70.505081331827739 -8.9483482750191534 3.9439799484918723 #
straight-curve $-1 70.505081331827753 0 14.898756189322564 0 1 0 I I #
vertex $-1 $360 $502 #
point $-1 62.52186934910565 -15.974646269384603 7.6424108825149251 #
vertex $-1 $364 $503 #
point $-1 62.52186934910565 -11.758867472765331 7.6424108825149251 #
edge $-1 $460 43.947828259710683 $463 49.173466147962813 $369 $504 forward 7 unknown #
vertex $-1 $383 $505 #
straight-curve $-1 -80.572333922980363 6.3682134810549798 14.898756189322562 -1 0 0 I I #
edge $-1 $463 -4.7533193771844857 $380 1.5235311694434976 $379 $506 forward 7 unknown #
vertex $-1 $462 $507 #
straight-curve $-1 -70.505081331827753 6.3682134810549798 9.6731183010704314 0.76604443648966558 0 0.64278761758704617 I I #
point $-1 -64.277408735345205 6.3682134810549798 14.898756189322564 #
point $-1 -70.505081331827753 0.091362934426996389 9.6731183010704314 #
straight-curve $-1 -70.505081331827753 0 14.898756189322564 0 -1 0 I I #
vertex $-1 $386 $508 #
point $-1 -65.738596136126233 1.8847488048921335 11.094248929473041 #
vertex $-1 $390 $509 #
point $-1 -65.738596136126233 4.5748276105898427 11.094248929473041 #
straight-curve $-1 -70.505081331827753 32.981410768585953 0 0 0 -1 I I #
point $-1 -70.505081331827753 -32.981410768585953 -14.898756189322564 #
straight-curve $-1 -70.505081331827753 0 -14.898756189322564 0 1 0 I I #
point $-1 -70.505081331827753 32.981410768585953 -14.898756189322564 #
coedge $-1 $480 $411 $412 $477 reversed $302 $-1 #
edge $-1 $478 -70.505081331827753 $420 70.505081331827753 $476 $510 forward 7 unknown #
vertex $-1 $482 $511 #
straight-curve $-1 70.505081331827753 -40.079533419313535 -13.333967260857966 0 -1 0 I I #
coedge $-1 $414 $476 $416 $482 reversed $302 $-1 #
straight-curve $-1 0 -47.177656070041117 -8.4023320980224785 1 0 0 I I #
edge $-1 $417 -2.4658175814177437 $478 2.4658175814177437 $416 $512 forward 7 unknown #
point $-1 70.505081331827753 -47.177656070041117 -8.4023320980224785 #
straight-curve $-1 -70.505081331827753 -47.177656070041117 -10.868149679440222 0 0 -1 I I #
point $-1 -70.505081331827753 -47.177656070041117 -13.333967260857966 #
point $-1 -70.505081331827753 -47.177656070041117 -8.4023320980224785 #
coedge $-1 $489 $428 $429 $488 reversed $323 $-1 #
edge $-1 $495 -70.505081331827753 $435 70.505081331827753 $487 $513 forward 7 unknown #
coedge $-1 $430 $487 $440 $494 reversed $323 $-1 #
straight-curve $-1 0 47.17765607004111 -8.4023320980224785 -1 0 0 I I #
point $-1 70.505081331827753 47.17765607004111 -8.4023320980224785 #
straight-curve $-1 70.505081331827753 47.17765607004111 -10.868149679440222 0 0 -1 I I #
point $-1 70.505081331827753 47.17765607004111 -13.333967260857966 #
edge $-1 $443 -2.4658175814177437 $495 2.4658175814177437 $489 $514 forward 7 unknown #
vertex $-1 $488 $515 #
straight-curve $-1 -70.505081331827753 40.079533419313528 -13.333967260857966 0 1 0 I I #
point $-1 -70.505081331827753 47.17765607004111 -8.4023320980224785 #
straight-curve $-1 70.505081331827753 -18.785165467130785 100.71086885105038 0 0 -1 I I #
point $-1 70.505081331827753 -18.785165467130785 14.898756189322564 #
straight-curve $-1 70.505081331827753 -6.9333784355374846 3.9439799484918652 0 1 0 I I #
point $-1 70.505081331827739 -18.785165467130785 3.9439799484918723 #
point $-1 61.821644081567158 -15.974646269384603 7.5440006457473645 #
point $-1 61.821644081567158 -11.758867472765331 7.5440006457473645 #
straight-curve $-1 -70.505081331827753 6.3682134810549798 58.846584449033244 0 0 -1 I I #
point $-1 -70.505081331827753 6.3682134810549798 14.898756189322564 #
straight-curve $-1 -70.505081331827753 1.614894103870494 9.673118301070426 0 -1 0 I I #
point $-1 -70.505081331827753 6.3682134810549798 9.6731183010704314 #
point $-1 -65.800224545577549 1.8847488048921335 10.389832902434685 #
point $-1 -65.800224545577549 4.5748276105898427 10.389832902434685 #
straight-curve $-1 0 -47.177656070041117 -13.333967260857966 -1 0 0 I I #
point $-1 70.505081331827753 -47.177656070041117 -13.333967260857966 #
straight-curve $-1 70.505081331827753 -47.177656070041117 -10.868149679440222 0 0 -1 I I #
straight-curve $-1 0 47.17765607004111 -13.333967260857966 1 0 0 I I #
straight-curve $-1 -70.505081331827753 47.17765607004111 -10.868149679440222 0 0 -1 I I #
point $-1 -70.505081331827753 47.17765607004111 -13.333967260857966 #
End-of-ACIS-data 