500 0 8 0           
7 Unknown 11 ACIS 5.0 NT 24 Thu Mar 25 23:47:04 1999 
-1 9.9999999999999995e-007 1e-010 
body $-1 $8 $-1 $9 #
body $-1 $10 $-1 $11 #
body $-1 $12 $-1 $13 #
body $-1 $14 $-1 $15 #
body $-1 $16 $-1 $17 #
body $-1 $18 $-1 $19 #
body $-1 $20 $-1 $21 #
body $-1 $22 $-1 $23 #
lump $-1 $-1 $24 $0 #
transform $-1 1 0 0 0 1 0 0 0 1 41.142612994781338 18.251941443404643 5.3319821490738324 1 rotate no_reflect no_shear #
lump $-1 $-1 $25 $1 #
transform $-1 1 0 0 0 1 0 0 0 1 41.142612994781338 18.251941443404643 5.3319821490738324 1 rotate no_reflect no_shear #
lump $-1 $-1 $26 $2 #
transform $-1 1 0 0 0 1 0 0 0 1 41.142612994781338 18.251941443404643 5.3319821490738324 1 rotate no_reflect no_shear #
lump $-1 $-1 $27 $3 #
transform $-1 1 0 0 0 1 0 0 0 1 41.142612994781338 18.251941443404643 5.3319821490738324 1 rotate no_reflect no_shear #
lump $-1 $-1 $28 $4 #
transform $-1 1 0 0 0 1 0 0 0 1 41.142612994781338 18.251941443404643 5.3319821490738324 1 rotate no_reflect no_shear #
lump $-1 $-1 $29 $5 #
transform $-1 1 0 0 0 1 0 0 0 1 41.142612994781338 18.251941443404643 5.3319821490738324 1 rotate no_reflect no_shear #
lump $-1 $-1 $30 $6 #
transform $-1 1 0 0 0 1 0 0 0 1 41.142612994781338 18.251941443404643 5.3319821490738324 1 rotate no_reflect no_shear #
lump $-1 $-1 $31 $7 #
transform $-1 1 0 0 0 1 0 0 0 1 41.142612994781338 18.251941443404643 5.3319821490738324 1 rotate no_reflect no_shear #
shell $-1 $-1 $-1 $32 $-1 $8 #
shell $-1 $-1 $-1 $33 $-1 $10 #
shell $-1 $-1 $-1 $34 $-1 $12 #
shell $-1 $-1 $-1 $35 $-1 $14 #
shell $-1 $-1 $-1 $36 $-1 $16 #
shell $-1 $-1 $-1 $37 $-1 $18 #
shell $-1 $-1 $-1 $38 $-1 $20 #
shell $-1 $-1 $-1 $39 $-1 $22 #
face $-1 $40 $41 $24 $-1 $42 forward single #
face $-1 $43 $44 $25 $-1 $45 forward single #
face $-1 $46 $47 $26 $-1 $48 reversed single #
face $-1 $49 $50 $27 $-1 $51 forward single #
face $-1 $52 $53 $28 $-1 $54 reversed single #
face $-1 $55 $56 $29 $-1 $57 forward single #
face $-1 $58 $59 $30 $-1 $60 reversed single #
face $-1 $61 $62 $31 $-1 $63 forward single #
face $-1 $64 $65 $24 $-1 $66 reversed single #
loop $-1 $-1 $67 $32 #
plane-surface $-1 0 0 5.3319821490738324 0 0 1 1 0 0 forward_v I I I I #
face $-1 $68 $69 $25 $-1 $70 reversed single #
loop $-1 $-1 $71 $33 #
plane-surface $-1 0 -18.251941443404643 0 0 1 0 0 0 1 forward_v I I I I #
face $-1 $72 $73 $26 $-1 $74 reversed single #
loop $-1 $-1 $75 $34 #
plane-surface $-1 -110.15281086760297 -8.9373342418243169 46.74455698539392 0 1 0 -0.83867057594974714 0 0.54463902268945019 forward_v I I I I #
face $-1 $76 $77 $27 $-1 $78 forward single #
loop $-1 $79 $80 $35 #
cone-surface $-1 -39.180427790645219 -5.6287409096615235 3.0737489270025424 0.83867057594974714 0 -0.54463902268945019 0.54463902268945019 0 0.83867057594974714 1 I I 0 1 1 forward I I I I #
face $-1 $81 $82 $28 $-1 $83 reversed single #
loop $-1 $-1 $84 $36 #
plane-surface $-1 -110.15281086760297 8.5150754089480181 46.74455698539392 0 1 0 -0.83867057594974714 0 0.54463902268945019 forward_v I I I I #
face $-1 $85 $86 $29 $-1 $87 forward single #
loop $-1 $88 $89 $37 #
cone-surface $-1 -39.180427790645219 11.823668741110811 3.0737489270025424 0.83867057594974714 0 -0.54463902268945019 0.54463902268945019 0 0.83867057594974714 1 I I 0 1 1 forward I I I I #
face $-1 $90 $91 $30 $-1 $92 reversed single #
loop $-1 $-1 $93 $38 #
plane-surface $-1 61.349859016624031 -3.1396929069217379 116.39741577374215 0 -1 0 -0.81915205242281985 0 -0.57357642473473569 forward_v I I I I #
face $-1 $94 $95 $31 $-1 $96 forward single #
loop $-1 $97 $98 $39 #
cone-surface $-1 39.213237674264242 -7.5983532594385466 3.07996901813295 -0.81915205242281985 0 -0.57357642473473569 0.57357642473473569 0 -0.81915205242281985 1 I I 0 1 1 forward I I I I #
face $-1 $99 $100 $24 $-1 $101 reversed single #
loop $-1 $-1 $102 $40 #
plane-surface $-1 0 0 -5.3319821490738324 0 0 1 1 0 0 forward_v I I I I #
coedge $-1 $103 $104 $105 $106 forward $41 $-1 #
face $-1 $107 $108 $25 $-1 $109 reversed single #
loop $-1 $-1 $110 $43 #
plane-surface $-1 0 0 -5.3319821490738324 0 0 1 1 0 0 forward_v I I I I #
coedge $-1 $111 $112 $113 $114 forward $44 $-1 #
face $-1 $115 $116 $26 $-1 $117 reversed single #
loop $-1 $-1 $118 $46 #
plane-surface $-1 -41.142612994781331 -5.6287409096615235 1.9288119206579566 -0.83867057594974714 0 0.54463902268945019 0.54463902268945019 0 0.83867057594974714 forward_v I I I I #
coedge $-1 $119 $120 $121 $122 reversed $47 $-1 #
face $-1 $-1 $123 $27 $-1 $124 forward single #
loop $-1 $125 $126 $49 #
cone-surface $-1 -37.903929556618856 -5.6287409096615235 2.2447813077944687 0.83867057594974714 0 -0.54463902268945019 0.2723195113447251 0 0.41933528797487357 1 I I -0.70710678118654746 0.70710678118654746 0.5 forward I I I I #
loop $-1 $-1 $127 $35 #
coedge $-1 $80 $80 $128 $129 reversed $50 $-1 #
face $-1 $130 $131 $28 $-1 $132 reversed single #
loop $-1 $-1 $133 $52 #
plane-surface $-1 -41.142612994781331 11.823668741110811 1.9288119206579566 -0.83867057594974714 0 0.54463902268945019 0.54463902268945019 0 0.83867057594974714 forward_v I I I I #
coedge $-1 $134 $135 $136 $137 reversed $53 $-1 #
face $-1 $-1 $138 $29 $-1 $139 forward single #
loop $-1 $140 $141 $55 #
cone-surface $-1 -37.903929556618856 11.823668741110811 2.2447813077944687 0.83867057594974714 0 -0.54463902268945019 0.2723195113447251 0 0.41933528797487357 1 I I -0.70710678118654746 0.70710678118654746 0.5 forward I I I I #
loop $-1 $-1 $142 $37 #
coedge $-1 $89 $89 $143 $144 reversed $56 $-1 #
face $-1 $145 $146 $30 $-1 $147 reversed single #
loop $-1 $-1 $148 $58 #
plane-surface $-1 -6.0542527368017929 -7.5983532594385483 69.200550042159037 0.81915205242281985 0 0.57357642473473569 0.57357642473473569 0 -0.81915205242281985 forward_v I I I I #
coedge $-1 $149 $150 $151 $152 reversed $59 $-1 #
face $-1 $-1 $153 $31 $-1 $154 forward single #
loop $-1 $155 $156 $61 #
cone-surface $-1 38.112093521517032 -7.5983532594385466 2.3089396049950093 -0.81915205242281985 0 -0.57357642473473569 0.28678821236736785 0 -0.40957602621140993 1 I I -0.70710678118654746 0.70710678118654746 0.5 forward I I I I #
loop $-1 $-1 $157 $39 #
coedge $-1 $98 $98 $158 $159 reversed $62 $-1 #
face $-1 $160 $161 $24 $-1 $162 reversed single #
loop $-1 $-1 $163 $64 #
plane-surface $-1 0 -18.251941443404643 0 0 1 0 0 0 1 forward_v I I I I #
coedge $-1 $164 $165 $166 $167 forward $65 $-1 #
coedge $-1 $168 $67 $169 $170 forward $41 $-1 #
coedge $-1 $67 $168 $171 $172 forward $41 $-1 #
coedge $-1 $173 $174 $67 $106 reversed $175 $-1 #
edge $-1 $176 -18.251941443404643 $177 18.251941443404643 $105 $178 forward 7 unknown #
face $-1 $179 $180 $25 $-1 $181 reversed single #
loop $-1 $-1 $182 $68 #
plane-surface $-1 -33.513920819594006 -24.446869274853928 0 0 1 0 0 0 1 forward_v I I I I #
coedge $-1 $183 $184 $112 $185 forward $69 $-1 #
coedge $-1 $186 $71 $187 $188 reversed $44 $-1 #
coedge $-1 $71 $186 $110 $185 reversed $44 $-1 #
coedge $-1 $189 $190 $71 $114 reversed $180 $-1 #
edge $-1 $191 -5.3319821490738324 $192 5.3319821490738324 $113 $193 forward 7 unknown #
face $-1 $194 $195 $26 $-1 $196 reversed single #
loop $-1 $-1 $197 $72 #
plane-surface $-1 -110.15281086760297 -2.3201475774987301 46.74455698539392 0 -1 0 0.83867057594974714 0 -0.54463902268945019 forward_v I I I I #
coedge $-1 $198 $199 $200 $201 reversed $73 $-1 #
coedge $-1 $120 $75 $202 $203 reversed $47 $-1 #
coedge $-1 $75 $119 $198 $204 reversed $47 $-1 #
coedge $-1 $200 $205 $75 $122 forward $206 $-1 #
edge $-1 $207 13.933792439020145 $208 16.143836955189414 $121 $209 forward 7 unknown #
loop $-1 $-1 $128 $76 #
plane-surface $-1 -41.142612994781331 -5.6287409096615235 1.9288119206579566 -0.83867057594974714 0 0.54463902268945019 0.54463902268945019 0 0.83867057594974714 forward_v I I I I #
loop $-1 $-1 $210 $49 #
coedge $-1 $126 $126 $127 $211 reversed $77 $-1 #
coedge $-1 $127 $127 $126 $211 forward $79 $-1 #
coedge $-1 $128 $128 $80 $129 forward $123 $-1 #
edge $-1 $212 0 $212 6.2831853071796004 $128 $213 forward 7 unknown #
face $-1 $214 $215 $28 $-1 $216 forward single #
loop $-1 $-1 $217 $81 #
plane-surface $-1 -110.15281086760297 15.132262073273605 46.74455698539392 0 -1 0 0.83867057594974714 0 -0.54463902268945019 forward_v I I I I #
coedge $-1 $218 $219 $220 $221 reversed $82 $-1 #
coedge $-1 $135 $84 $222 $223 reversed $53 $-1 #
coedge $-1 $84 $134 $218 $224 reversed $53 $-1 #
coedge $-1 $220 $225 $84 $137 forward $215 $-1 #
edge $-1 $226 13.933792439020145 $227 16.143836955189414 $136 $228 forward 7 unknown #
loop $-1 $-1 $143 $85 #
plane-surface $-1 -41.142612994781331 11.823668741110811 1.9288119206579566 -0.83867057594974714 0 0.54463902268945019 0.54463902268945019 0 0.83867057594974714 forward_v I I I I #
loop $-1 $-1 $229 $55 #
coedge $-1 $141 $141 $142 $230 reversed $86 $-1 #
coedge $-1 $142 $142 $141 $230 forward $88 $-1 #
coedge $-1 $143 $143 $89 $144 forward $138 $-1 #
edge $-1 $231 0 $231 6.2831853071796004 $143 $232 forward 7 unknown #
face $-1 $233 $234 $30 $-1 $235 forward single #
loop $-1 $-1 $236 $90 #
plane-surface $-1 61.349859016624031 -12.057013611955359 116.39741577374215 0 1 0 0.81915205242281985 0 0.57357642473473569 forward_v I I I I #
coedge $-1 $237 $238 $239 $240 reversed $91 $-1 #
coedge $-1 $150 $93 $241 $242 reversed $59 $-1 #
coedge $-1 $93 $149 $237 $243 reversed $59 $-1 #
coedge $-1 $239 $244 $93 $152 forward $234 $-1 #
edge $-1 $245 -10.467683486469323 $246 -7.9920690985067147 $151 $247 forward 7 unknown #
loop $-1 $-1 $158 $94 #
plane-surface $-1 -6.0542527368017929 -7.5983532594385483 69.200550042159037 0.81915205242281985 0 0.57357642473473569 0.57357642473473569 0 -0.81915205242281985 forward_v I I I I #
loop $-1 $-1 $248 $61 #
coedge $-1 $156 $156 $157 $249 reversed $95 $-1 #
coedge $-1 $157 $157 $156 $249 forward $97 $-1 #
coedge $-1 $158 $158 $98 $159 forward $153 $-1 #
edge $-1 $250 0 $250 6.2831853071796004 $158 $251 forward 7 unknown #
face $-1 $252 $253 $24 $-1 $254 reversed single #
loop $-1 $-1 $255 $99 #
plane-surface $-1 -41.142612994781338 0 0 1 0 0 0 0 -1 forward_v I I I I #
coedge $-1 $256 $171 $257 $258 forward $100 $-1 #
coedge $-1 $259 $102 $256 $260 forward $65 $-1 #
coedge $-1 $102 $259 $261 $262 forward $65 $-1 #
coedge $-1 $174 $173 $102 $167 reversed $175 $-1 #
edge $-1 $263 -18.251941443404643 $264 18.251941443404643 $166 $265 forward 7 unknown #
coedge $-1 $104 $103 $266 $267 forward $41 $-1 #
coedge $-1 $268 $269 $103 $170 reversed $253 $-1 #
edge $-1 $177 -41.142612994781338 $270 41.142612994781338 $169 $271 forward 7 unknown #
coedge $-1 $163 $272 $104 $172 reversed $100 $-1 #
edge $-1 $273 -41.142612994781338 $176 41.142612994781338 $171 $274 forward 7 unknown #
coedge $-1 $166 $105 $272 $275 forward $175 $-1 #
coedge $-1 $105 $166 $268 $276 reversed $175 $-1 #
loop $-1 $-1 $173 $252 #
vertex $-1 $106 $277 #
vertex $-1 $106 $278 #
straight-curve $-1 41.142612994781338 0 5.3319821490738324 0 1 0 I I #
face $-1 $279 $280 $25 $-1 $281 reversed single #
loop $-1 $-1 $113 $107 #
plane-surface $-1 -35.013920819594006 -21.349405359129285 0 1 0 0 0 0 -1 forward_v I I I I #
coedge $-1 $282 $283 $284 $285 forward $108 $-1 #
coedge $-1 $286 $110 $287 $288 forward $69 $-1 #
coedge $-1 $110 $286 $189 $289 forward $69 $-1 #
edge $-1 $191 -35.013920819594006 $290 -32.013920819594006 $110 $291 forward 7 unknown #
coedge $-1 $112 $111 $292 $293 forward $44 $-1 #
coedge $-1 $294 $295 $111 $188 forward $296 $-1 #
edge $-1 $297 32.013920819594006 $192 35.013920819594006 $187 $298 forward 7 unknown #
coedge $-1 $284 $113 $184 $289 reversed $180 $-1 #
coedge $-1 $113 $284 $294 $299 reversed $180 $-1 #
vertex $-1 $185 $300 #
vertex $-1 $299 $301 #
straight-curve $-1 -35.013920819594006 -18.251941443404643 0 0 0 1 I I #
face $-1 $-1 $206 $26 $-1 $302 forward single #
loop $-1 $-1 $303 $115 #
plane-surface $-1 -41.142612994781338 0 0 1 0 0 0 0 -1 forward_v I I I I #
coedge $-1 $304 $305 $306 $307 reversed $116 $-1 #
coedge $-1 $308 $118 $120 $204 forward $73 $-1 #
coedge $-1 $118 $308 $304 $309 forward $73 $-1 #
coedge $-1 $306 $121 $118 $201 forward $206 $-1 #
edge $-1 $208 -6.1229637869935551 $310 0.49422287733203163 $200 $311 forward 7 unknown #
coedge $-1 $312 $313 $119 $203 forward $195 $-1 #
edge $-1 $314 -21.443466572039014 $207 -18.040296343623126 $202 $315 forward 7 unknown #
edge $-1 $208 -4.0578152209071803 $314 1.2994784570086186e-014 $120 $316 forward 7 unknown #
coedge $-1 $121 $306 $312 $317 forward $206 $-1 #
loop $-1 $-1 $306 $194 #
vertex $-1 $203 $318 #
vertex $-1 $122 $319 #
straight-curve $-1 -55.076405433801483 -8.9373342418243169 5.3319821490738306 1 0 0 I I #
coedge $-1 $210 $210 $-1 $320 reversed $125 $-1 #
edge $-1 $321 0 $321 6.2831853071796004 $126 $322 forward 7 unknown #
vertex $-1 $129 $323 #
ellipse-curve $-1 -40.0375907366967 -5.6287409096615235 3.6303970348658896 -0.83867057594974714 0 0.54463902268945019 0.54463902268945019 0 0.83867057594974714 1 I I #
face $-1 $-1 $324 $28 $-1 $325 reversed single #
loop $-1 $-1 $136 $130 #
plane-surface $-1 0 0 5.3319821490738324 0 0 1 1 0 0 forward_v I I I I #
coedge $-1 $326 $327 $328 $329 reversed $131 $-1 #
coedge $-1 $330 $133 $135 $224 forward $82 $-1 #
coedge $-1 $133 $330 $326 $331 forward $82 $-1 #
coedge $-1 $328 $136 $133 $221 forward $215 $-1 #
edge $-1 $227 2.6032410383926123 $332 9.2204277027181991 $220 $333 forward 7 unknown #
coedge $-1 $334 $335 $134 $223 forward $324 $-1 #
edge $-1 $336 -21.443466572039014 $226 -18.040296343623126 $222 $337 forward 7 unknown #
edge $-1 $227 -4.0578152209071803 $336 1.2994784570086186e-014 $135 $338 forward 7 unknown #
coedge $-1 $136 $328 $334 $339 forward $215 $-1 #
vertex $-1 $137 $340 #
vertex $-1 $137 $341 #
straight-curve $-1 -55.076405433801483 8.5150754089480181 5.3319821490738306 1 0 0 I I #
coedge $-1 $229 $229 $-1 $342 reversed $140 $-1 #
edge $-1 $343 0 $343 6.2831853071796004 $141 $344 forward 7 unknown #
vertex $-1 $144 $345 #
ellipse-curve $-1 -40.0375907366967 11.823668741110811 3.6303970348658896 -0.83867057594974714 0 0.54463902268945019 0.54463902268945019 0 0.83867057594974714 1 I I #
face $-1 $-1 $346 $30 $-1 $347 reversed single #
loop $-1 $-1 $151 $145 #
plane-surface $-1 0 0 5.3319821490738324 0 0 1 1 0 0 forward_v I I I I #
coedge $-1 $348 $349 $350 $351 reversed $146 $-1 #
coedge $-1 $352 $148 $150 $243 forward $91 $-1 #
coedge $-1 $148 $352 $348 $353 forward $91 $-1 #
coedge $-1 $350 $151 $148 $240 forward $234 $-1 #
edge $-1 $246 -0.65948372279753631 $354 8.2578369822360855 $239 $355 forward 7 unknown #
coedge $-1 $356 $357 $149 $242 forward $346 $-1 #
edge $-1 $358 -56.402269598137892 $245 -52.866725737797246 $241 $359 forward 7 unknown #
edge $-1 $246 77.969123930264303 $358 82.285225989562718 $150 $360 forward 7 unknown #
coedge $-1 $151 $350 $356 $361 forward $234 $-1 #
vertex $-1 $152 $362 #
vertex $-1 $152 $363 #
straight-curve $-1 30.674929508312015 -3.1396929069217379 5.3319821490738306 -1 0 0 I I #
coedge $-1 $248 $248 $-1 $364 reversed $155 $-1 #
edge $-1 $365 0 $365 6.2831853071796004 $156 $366 forward 7 unknown #
vertex $-1 $159 $367 #
ellipse-curve $-1 39.904805800800027 -7.5983532594385466 3.5642102189035092 0.81915205242281985 0 0.57357642473473569 0.57357642473473569 0 -0.81915205242281985 1 I I #
face $-1 $-1 $175 $24 $-1 $368 reversed single #
loop $-1 $-1 $268 $160 #
plane-surface $-1 0 18.251941443404643 0 0 -1 0 0 0 -1 forward_v I I I I #
coedge $-1 $369 $266 $269 $370 forward $161 $-1 #
coedge $-1 $272 $163 $164 $260 reversed $100 $-1 #
coedge $-1 $266 $369 $163 $258 reversed $161 $-1 #
edge $-1 $273 -5.3319821490738324 $371 5.3319821490738324 $257 $372 forward 7 unknown #
coedge $-1 $165 $164 $369 $373 forward $65 $-1 #
edge $-1 $264 -41.142612994781338 $371 41.142612994781338 $256 $374 forward 7 unknown #
coedge $-1 $269 $268 $165 $262 reversed $253 $-1 #
edge $-1 $375 -41.142612994781338 $263 41.142612994781338 $261 $376 forward 7 unknown #
vertex $-1 $167 $377 #
vertex $-1 $275 $378 #
straight-curve $-1 41.142612994781338 0 -5.3319821490738324 0 -1 0 I I #
coedge $-1 $255 $257 $168 $267 reversed $161 $-1 #
edge $-1 $270 -18.251941443404643 $273 18.251941443404643 $266 $379 forward 7 unknown #
coedge $-1 $261 $169 $174 $276 forward $253 $-1 #
coedge $-1 $169 $261 $255 $370 reversed $253 $-1 #
vertex $-1 $170 $380 #
straight-curve $-1 0 18.251941443404643 5.3319821490738324 -1 0 0 I I #
coedge $-1 $171 $256 $173 $275 reversed $100 $-1 #
vertex $-1 $267 $381 #
straight-curve $-1 0 -18.251941443404643 5.3319821490738324 1 0 0 I I #
edge $-1 $176 -5.3319821490738324 $264 5.3319821490738324 $173 $382 forward 7 unknown #
edge $-1 $177 -5.3319821490738324 $263 5.3319821490738324 $174 $383 forward 7 unknown #
point $-1 41.142612994781338 -18.251941443404643 5.3319821490738324 #
point $-1 41.142612994781338 18.251941443404643 5.3319821490738324 #
face $-1 $-1 $296 $25 $-1 $384 forward single #
loop $-1 $-1 $385 $179 #
plane-surface $-1 -32.013920819594006 -21.349405359129285 0 -1 0 0 0 0 1 forward_v I I I I #
coedge $-1 $386 $182 $286 $387 reversed $108 $-1 #
coedge $-1 $182 $386 $388 $389 reversed $108 $-1 #
coedge $-1 $190 $189 $182 $285 reversed $180 $-1 #
edge $-1 $390 -5.3319821490738324 $391 5.3319821490738324 $284 $392 forward 7 unknown #
coedge $-1 $184 $183 $282 $387 forward $69 $-1 #
coedge $-1 $292 $385 $183 $288 reversed $280 $-1 #
edge $-1 $290 -3.0974639157246422 $393 3.0974639157246422 $287 $394 forward 7 unknown #
edge $-1 $391 -3.0974639157246422 $191 3.0974639157246422 $189 $395 forward 7 unknown #
vertex $-1 $288 $396 #
straight-curve $-1 0 -18.251941443404643 -5.3319821490738324 1 0 0 I I #
coedge $-1 $397 $287 $186 $293 reversed $280 $-1 #
edge $-1 $297 -5.3319821490738324 $290 5.3319821490738324 $292 $398 forward 7 unknown #
coedge $-1 $388 $187 $190 $299 forward $296 $-1 #
coedge $-1 $187 $388 $397 $399 forward $296 $-1 #
loop $-1 $-1 $187 $279 #
vertex $-1 $188 $400 #
straight-curve $-1 0 -18.251941443404643 5.3319821490738324 -1 0 0 I I #
edge $-1 $192 -3.0974639157246422 $390 3.0974639157246422 $190 $401 forward 7 unknown #
point $-1 -35.013920819594006 -18.251941443404643 -5.3319821490738324 #
point $-1 -35.013920819594006 -18.251941443404643 5.3319821490738324 #
plane-surface $-1 0 0 5.3319821490738324 0 0 1 1 0 0 forward_v I I I I #
coedge $-1 $313 $312 $305 $402 forward $195 $-1 #
coedge $-1 $305 $197 $199 $309 reversed $116 $-1 #
coedge $-1 $197 $304 $303 $402 reversed $116 $-1 #
coedge $-1 $205 $200 $197 $307 forward $206 $-1 #
edge $-1 $310 -16.143836955189414 $403 -13.933792439020145 $306 $404 forward 7 unknown #
coedge $-1 $199 $198 $313 $405 reversed $73 $-1 #
edge $-1 $406 -1.2994784570086186e-014 $310 4.0578152209071803 $304 $407 forward 7 unknown #
vertex $-1 $201 $408 #
straight-curve $-1 -38.932568478612069 -2.8143704548307618 5.3319821490738324 0 1 0 I I #
coedge $-1 $303 $202 $205 $317 reversed $195 $-1 #
coedge $-1 $202 $303 $308 $405 forward $195 $-1 #
vertex $-1 $203 $409 #
straight-curve $-1 -41.142612994781338 -8.9373342418243169 23.37227849269696 0 0 1 I I #
straight-curve $-1 -41.142612994781331 -8.9373342418243169 1.9288119206579566 -0.54463902268945019 0 -0.83867057594974714 I I #
edge $-1 $403 2.3201475774987301 $207 8.9373342418243169 $312 $410 forward 7 unknown #
point $-1 -41.142612994781338 -8.9373342418243169 5.3319821490738324 #
point $-1 -38.932568478612069 -8.9373342418243169 5.3319821490738324 #
edge $-1 $411 1 $411 0 $210 $-1 forward 7 unknown #
vertex $-1 $211 $412 #
ellipse-curve $-1 -38.32326484459373 -5.6287409096615235 2.5171008191391939 -0.83867057594974714 0 0.54463902268945019 0.54463902268945019 0 0.83867057594974714 1 I I #
point $-1 -39.492951714007255 -5.6287409096615235 4.4690676108156389 #
loop $-1 $-1 $222 $214 #
plane-surface $-1 -41.142612994781338 0 0 1 0 0 0 0 -1 forward_v I I I I #
coedge $-1 $327 $217 $219 $331 reversed $131 $-1 #
coedge $-1 $217 $326 $413 $414 reversed $131 $-1 #
coedge $-1 $225 $220 $217 $329 forward $215 $-1 #
edge $-1 $332 -16.143836955189414 $415 -13.933792439020145 $328 $416 forward 7 unknown #
coedge $-1 $219 $218 $335 $417 reversed $82 $-1 #
edge $-1 $418 -1.2994784570086186e-014 $332 4.0578152209071803 $326 $419 forward 7 unknown #
vertex $-1 $221 $420 #
straight-curve $-1 -38.932568478612069 5.9118343705554057 5.3319821490738324 0 1 0 I I #
coedge $-1 $413 $222 $225 $339 reversed $324 $-1 #
coedge $-1 $222 $413 $330 $417 forward $324 $-1 #
vertex $-1 $223 $421 #
straight-curve $-1 -41.142612994781338 8.5150754089480181 23.37227849269696 0 0 1 I I #
straight-curve $-1 -41.142612994781331 8.5150754089480181 1.9288119206579566 -0.54463902268945019 0 -0.83867057594974714 I I #
edge $-1 $415 -15.132262073273605 $226 -8.5150754089480181 $334 $422 forward 7 unknown #
point $-1 -41.142612994781338 8.5150754089480181 5.3319821490738324 #
point $-1 -38.932568478612069 8.5150754089480181 5.3319821490738324 #
edge $-1 $423 1 $423 0 $229 $-1 forward 7 unknown #
vertex $-1 $230 $424 #
ellipse-curve $-1 -38.32326484459373 11.823668741110811 2.5171008191391939 -0.83867057594974714 0 0.54463902268945019 0.54463902268945019 0 0.83867057594974714 1 I I #
point $-1 -39.492951714007255 11.823668741110811 4.4690676108156389 #
loop $-1 $-1 $241 $233 #
plane-surface $-1 41.142612994781338 0 0 -1 0 0 0 0 1 forward_v I I I I #
coedge $-1 $349 $236 $238 $353 reversed $146 $-1 #
coedge $-1 $236 $348 $425 $426 reversed $146 $-1 #
coedge $-1 $244 $239 $236 $351 forward $234 $-1 #
edge $-1 $354 7.9920690985067147 $427 10.467683486469323 $350 $428 forward 7 unknown #
coedge $-1 $238 $237 $357 $429 reversed $91 $-1 #
edge $-1 $430 -82.285225989562718 $354 -77.969123930264303 $348 $431 forward 7 unknown #
vertex $-1 $240 $432 #
straight-curve $-1 38.666998606818737 -3.7991766297192742 5.3319821490738306 0 -1 0 I I #
coedge $-1 $425 $241 $244 $361 reversed $346 $-1 #
coedge $-1 $241 $425 $352 $429 forward $346 $-1 #
vertex $-1 $242 $433 #
straight-curve $-1 41.142612994781338 -3.1396929069217379 58.198707886871077 0 0 1 I I #
straight-curve $-1 -6.0542527368017929 -3.1396929069217379 69.200550042159037 0.57357642473473569 0 -0.81915205242281985 I I #
edge $-1 $427 -12.057013611955359 $245 -3.1396929069217379 $356 $434 forward 7 unknown #
point $-1 41.142612994781338 -3.1396929069217379 5.3319821490738324 #
point $-1 38.66699860681873 -3.1396929069217379 5.3319821490738377 #
edge $-1 $435 1 $435 0 $248 $-1 forward 7 unknown #
vertex $-1 $249 $436 #
ellipse-curve $-1 38.521669547728443 -7.5983532594385466 2.595727817362377 0.81915205242281985 0 0.57357642473473569 0.57357642473473569 0 -0.81915205242281985 1 I I #
point $-1 40.478382225534787 -7.5983532594385466 2.7450581664807028 #
plane-surface $-1 41.142612994781338 0 0 -1 0 0 0 0 1 forward_v I I I I #
coedge $-1 $257 $255 $259 $373 reversed $161 $-1 #
edge $-1 $270 -5.3319821490738324 $375 5.3319821490738324 $269 $437 forward 7 unknown #
vertex $-1 $373 $438 #
straight-curve $-1 -41.142612994781338 -18.251941443404643 0 0 0 -1 I I #
edge $-1 $371 -18.251941443404643 $375 18.251941443404643 $369 $439 forward 7 unknown #
straight-curve $-1 0 -18.251941443404643 -5.3319821490738324 -1 0 0 I I #
vertex $-1 $262 $440 #
straight-curve $-1 0 18.251941443404643 -5.3319821490738324 1 0 0 I I #
point $-1 41.142612994781338 18.251941443404643 -5.3319821490738324 #
point $-1 41.142612994781338 -18.251941443404643 -5.3319821490738324 #
straight-curve $-1 -41.142612994781338 0 5.3319821490738324 0 -1 0 I I #
point $-1 -41.142612994781338 18.251941443404643 5.3319821490738324 #
point $-1 -41.142612994781338 -18.251941443404643 5.3319821490738324 #
straight-curve $-1 41.142612994781338 -18.251941443404643 0 0 0 -1 I I #
straight-curve $-1 41.142612994781338 18.251941443404643 0 0 0 -1 I I #
plane-surface $-1 0 0 5.3319821490738324 0 0 1 1 0 0 forward_v I I I I #
coedge $-1 $287 $397 $386 $441 forward $280 $-1 #
coedge $-1 $283 $282 $385 $441 reversed $108 $-1 #
edge $-1 $393 -1.5 $391 1.5 $282 $442 forward 7 unknown #
coedge $-1 $295 $294 $283 $389 forward $296 $-1 #
edge $-1 $390 -1.5 $443 1.5 $283 $444 forward 7 unknown #
vertex $-1 $299 $445 #
vertex $-1 $289 $446 #
straight-curve $-1 -35.013920819594006 -24.446869274853928 0 0 0 -1 I I #
vertex $-1 $441 $447 #
straight-curve $-1 -32.013920819594006 -21.349405359129285 -5.3319821490738324 0 -1 0 I I #
straight-curve $-1 -35.013920819594006 -21.349405359129285 -5.3319821490738324 0 1 0 I I #
point $-1 -32.013920819594006 -18.251941443404643 -5.3319821490738324 #
coedge $-1 $385 $292 $295 $399 reversed $280 $-1 #
straight-curve $-1 -32.013920819594006 -18.251941443404643 0 0 0 -1 I I #
edge $-1 $443 -3.0974639157246422 $297 3.0974639157246422 $397 $448 forward 7 unknown #
point $-1 -32.013920819594006 -18.251941443404643 5.3319821490738324 #
straight-curve $-1 -35.013920819594006 -21.349405359129285 5.3319821490738324 0 -1 0 I I #
edge $-1 $403 18.040296343623126 $406 21.443466572039014 $303 $449 forward 7 unknown #
vertex $-1 $317 $450 #
straight-curve $-1 -55.076405433801483 -2.3201475774987301 5.3319821490738306 -1 0 0 I I #
edge $-1 $406 -0.49422287733203163 $314 6.1229637869935551 $313 $451 forward 7 unknown #
vertex $-1 $405 $452 #
straight-curve $-1 -41.142612994781331 -2.3201475774987301 1.9288119206579566 0.54463902268945019 0 0.83867057594974714 I I #
point $-1 -38.932568478612069 -2.3201475774987301 5.3319821490738324 #
point $-1 -41.142612994781338 -8.9373342418243169 1.9288119206579457 #
straight-curve $-1 -41.142612994781338 0 5.3319821490738324 0 -1 0 I I #
vertex $-1 $320 $453 #
point $-1 -37.778625821904278 -5.6287409096615235 3.355771395088941 #
coedge $-1 $335 $334 $327 $414 forward $324 $-1 #
edge $-1 $415 18.040296343623126 $418 21.443466572039014 $413 $454 forward 7 unknown #
vertex $-1 $339 $455 #
straight-curve $-1 -55.076405433801483 15.132262073273605 5.3319821490738306 -1 0 0 I I #
edge $-1 $418 -9.2204277027181991 $336 -2.6032410383926123 $335 $456 forward 7 unknown #
vertex $-1 $417 $457 #
straight-curve $-1 -41.142612994781331 15.132262073273605 1.9288119206579566 0.54463902268945019 0 0.83867057594974714 I I #
point $-1 -38.932568478612069 15.132262073273605 5.3319821490738324 #
point $-1 -41.142612994781338 8.5150754089480181 1.9288119206579457 #
straight-curve $-1 -41.142612994781338 0 5.3319821490738324 0 -1 0 I I #
vertex $-1 $342 $458 #
point $-1 -37.778625821904278 11.823668741110811 3.355771395088941 #
coedge $-1 $357 $356 $349 $426 forward $346 $-1 #
edge $-1 $427 52.866725737797246 $430 56.402269598137892 $425 $459 forward 7 unknown #
vertex $-1 $361 $460 #
straight-curve $-1 30.674929508312015 -12.057013611955359 5.3319821490738306 1 0 0 I I #
edge $-1 $430 -8.2578369822360855 $358 0.65948372279753631 $357 $461 forward 7 unknown #
vertex $-1 $429 $462 #
straight-curve $-1 -6.0542527368017929 -12.057013611955359 69.200550042159037 -0.57357642473473569 0 0.81915205242281985 I I #
point $-1 38.66699860681873 -12.057013611955359 5.3319821490738377 #
point $-1 41.142612994781338 -3.1396929069217379 1.7964382887331851 #
straight-curve $-1 41.142612994781338 0 5.3319821490738324 0 1 0 I I #
vertex $-1 $364 $463 #
point $-1 39.095245972463175 -7.5983532594385466 1.7765757649395573 #
straight-curve $-1 -41.142612994781338 18.251941443404643 0 0 0 -1 I I #
point $-1 -41.142612994781338 -18.251941443404643 -5.3319821490738324 #
straight-curve $-1 -41.142612994781338 0 -5.3319821490738324 0 1 0 I I #
point $-1 -41.142612994781338 18.251941443404643 -5.3319821490738324 #
edge $-1 $443 -5.3319821490738324 $393 5.3319821490738324 $385 $464 forward 7 unknown #
straight-curve $-1 -33.513920819594006 -24.446869274853928 -5.3319821490738324 -1 0 0 I I #
vertex $-1 $399 $465 #
straight-curve $-1 -33.513920819594006 -24.446869274853928 5.3319821490738324 1 0 0 I I #
point $-1 -35.013920819594006 -24.446869274853928 5.3319821490738324 #
point $-1 -35.013920819594006 -24.446869274853928 -5.3319821490738324 #
point $-1 -32.013920819594006 -24.446869274853928 -5.3319821490738324 #
straight-curve $-1 -32.013920819594006 -21.349405359129285 5.3319821490738324 0 1 0 I I #
straight-curve $-1 -41.142612994781338 -2.3201475774987301 23.37227849269696 0 0 -1 I I #
point $-1 -41.142612994781338 -2.3201475774987301 5.3319821490738324 #
straight-curve $-1 -41.142612994781338 -2.8143704548307618 1.9288119206579379 0 -1 0 I I #
point $-1 -41.142612994781338 -2.3201475774987301 1.9288119206579457 #
point $-1 -37.484594268643981 -5.6287409096615235 1.9724617964497435 #
straight-curve $-1 -41.142612994781338 15.132262073273605 23.37227849269696 0 0 -1 I I #
point $-1 -41.142612994781338 15.132262073273605 5.3319821490738324 #
straight-curve $-1 -41.142612994781338 5.9118343705554057 1.9288119206579379 0 -1 0 I I #
point $-1 -41.142612994781338 15.132262073273605 1.9288119206579457 #
point $-1 -37.484594268643981 11.823668741110811 1.9724617964497435 #
straight-curve $-1 41.142612994781338 -12.057013611955359 58.198707886871077 0 0 -1 I I #
point $-1 41.142612994781338 -12.057013611955359 5.3319821490738324 #
straight-curve $-1 41.142612994781345 -3.7991766297192742 1.7964382887331851 0 1 0 I I #
point $-1 41.142612994781338 -12.057013611955359 1.7964382887331851 #
point $-1 37.702517495305621 -7.5983532594385466 2.0221513926276415 #
straight-curve $-1 -32.013920819594006 -24.446869274853928 0 0 0 -1 I I #
point $-1 -32.013920819594006 -24.446869274853928 5.3319821490738324 #
End-of-ACIS-data 