500 0 10 0           
7 Unknown 11 ACIS 5.0 NT 24 Thu Mar 25 16:17:32 1999 
-1 9.9999999999999995e-007 1e-010 
body $-1 $10 $-1 $11 #
body $-1 $12 $-1 $13 #
body $-1 $14 $-1 $15 #
body $-1 $16 $-1 $17 #
body $-1 $18 $-1 $19 #
body $-1 $20 $-1 $21 #
body $-1 $22 $-1 $23 #
body $-1 $24 $-1 $25 #
body $-1 $26 $-1 $27 #
body $-1 $28 $-1 $29 #
lump $-1 $-1 $30 $0 #
transform $-1 1 0 0 0 1 0 0 0 1 50.067445905941952 27.463064432076699 6.0518144181113014 1 rotate no_reflect no_shear #
lump $-1 $-1 $31 $1 #
transform $-1 1 0 0 0 1 0 0 0 1 50.067445905941952 27.463064432076699 6.0518144181113014 1 rotate no_reflect no_shear #
lump $-1 $-1 $32 $2 #
transform $-1 1 0 0 0 1 0 0 0 1 50.067445905941952 27.463064432076699 6.0518144181113014 1 rotate no_reflect no_shear #
lump $-1 $-1 $33 $3 #
transform $-1 1 0 0 0 1 0 0 0 1 50.067445905941952 27.463064432076699 6.0518144181113014 1 rotate no_reflect no_shear #
lump $-1 $-1 $34 $4 #
transform $-1 1 0 0 0 1 0 0 0 1 50.067445905941952 27.463064432076699 6.0518144181113014 1 rotate no_reflect no_shear #
lump $-1 $-1 $35 $5 #
transform $-1 1 0 0 0 1 0 0 0 1 50.067445905941952 27.463064432076699 6.0518144181113014 1 rotate no_reflect no_shear #
lump $-1 $-1 $36 $6 #
transform $-1 1 0 0 0 1 0 0 0 1 50.067445905941952 27.463064432076699 6.0518144181113014 1 rotate no_reflect no_shear #
lump $-1 $-1 $37 $7 #
transform $-1 1 0 0 0 1 0 0 0 1 50.067445905941952 27.463064432076699 6.0518144181113014 1 rotate no_reflect no_shear #
lump $-1 $-1 $38 $8 #
transform $-1 1 0 0 0 1 0 0 0 1 50.067445905941952 27.463064432076699 6.0518144181113014 1 rotate no_reflect no_shear #
lump $-1 $-1 $39 $9 #
transform $-1 1 0 0 0 1 0 0 0 1 50.067445905941952 27.463064432076699 6.0518144181113014 1 rotate no_reflect no_shear #
shell $-1 $-1 $-1 $40 $-1 $10 #
shell $-1 $-1 $-1 $41 $-1 $12 #
shell $-1 $-1 $-1 $42 $-1 $14 #
shell $-1 $-1 $-1 $43 $-1 $16 #
shell $-1 $-1 $-1 $44 $-1 $18 #
shell $-1 $-1 $-1 $45 $-1 $20 #
shell $-1 $-1 $-1 $46 $-1 $22 #
shell $-1 $-1 $-1 $47 $-1 $24 #
shell $-1 $-1 $-1 $48 $-1 $26 #
shell $-1 $-1 $-1 $49 $-1 $28 #
face $-1 $50 $51 $30 $-1 $52 forward single #
face $-1 $53 $54 $31 $-1 $55 reversed single #
face $-1 $56 $57 $32 $-1 $58 reversed single #
face $-1 $59 $60 $33 $-1 $61 forward single #
face $-1 $62 $63 $34 $-1 $64 reversed single #
face $-1 $65 $66 $35 $-1 $67 forward single #
face $-1 $68 $69 $36 $-1 $70 reversed single #
face $-1 $71 $72 $37 $-1 $73 forward single #
face $-1 $74 $75 $38 $-1 $76 reversed single #
face $-1 $77 $78 $39 $-1 $79 forward single #
face $-1 $80 $81 $30 $-1 $82 reversed single #
loop $-1 $-1 $83 $40 #
plane-surface $-1 0 0 6.0518144181113014 0 0 1 1 0 0 forward_v I I I I #
face $-1 $84 $85 $31 $-1 $86 reversed single #
loop $-1 $-1 $87 $41 #
plane-surface $-1 -47.010209332594663 -20.320353968792087 0 0 1 0 0 0 1 forward_v I I I I #
face $-1 $88 $89 $32 $-1 $90 reversed single #
loop $-1 $-1 $91 $42 #
plane-surface $-1 -24.603692874047226 -99.494078339972702 72.487482355700223 -1 0 0 0 -0.71933980857756763 0.69465836192734942 forward_v I I I I #
face $-1 $92 $93 $33 $-1 $94 forward single #
loop $-1 $95 $96 $43 #
cone-surface $-1 -32.594079859960473 -25.59505051096918 4.14254924703428 0 0.71933980857756763 -0.69465836192734942 0.5 0 0 1 I I 0 1 0.5 forward I I I I #
face $-1 $97 $98 $34 $-1 $99 reversed single #
loop $-1 $-1 $100 $44 #
plane-surface $-1 22.406516458547443 -99.494078339972702 72.487482355700223 -1 0 0 0 -0.71933980857756763 0.69465836192734942 forward_v I I I I #
face $-1 $101 $102 $35 $-1 $103 forward single #
loop $-1 $104 $105 $45 #
cone-surface $-1 14.416129472634196 -25.59505051096918 4.14254924703428 0 0.71933980857756763 -0.69465836192734942 0.5 0 0 1 I I 0 1 0.5 forward I I I I #
face $-1 $106 $107 $36 $-1 $108 reversed single #
loop $-1 $-1 $109 $46 #
plane-surface $-1 -40.58446684587372 61.339183636189397 111.99803337874714 1 0 0 0 -0.71933980857756763 -0.69465836192734942 forward_v I I I I #
face $-1 $110 $111 $37 $-1 $112 forward single #
loop $-1 $113 $114 $47 #
cone-surface $-1 -32.594079859960473 25.595050510969173 4.1425492470342729 0 -0.71933980857756763 -0.69465836192734942 0.5 0 0 1 I I 0 1 0.5 forward I I I I #
face $-1 $115 $116 $38 $-1 $117 reversed single #
loop $-1 $-1 $118 $48 #
plane-surface $-1 6.4257424867209503 61.339183636189397 111.99803337874714 1 0 0 0 -0.71933980857756763 -0.69465836192734942 forward_v I I I I #
face $-1 $119 $120 $39 $-1 $121 forward single #
loop $-1 $122 $123 $49 #
cone-surface $-1 14.416129472634196 25.595050510969173 4.1425492470342729 0 -0.71933980857756763 -0.69465836192734942 0.5 0 0 1 I I 0 1 0.5 forward I I I I #
face $-1 $124 $125 $30 $-1 $126 reversed single #
loop $-1 $-1 $127 $50 #
plane-surface $-1 0 0 -6.0518144181113014 0 0 1 1 0 0 forward_v I I I I #
coedge $-1 $128 $129 $130 $131 forward $51 $-1 #
face $-1 $132 $133 $31 $-1 $134 reversed single #
loop $-1 $-1 $135 $53 #
plane-surface $-1 -47.010209332594663 -17.320353968792087 0 0 -1 0 0 0 -1 forward_v I I I I #
coedge $-1 $136 $137 $138 $139 reversed $54 $-1 #
face $-1 $140 $141 $32 $-1 $142 reversed single #
loop $-1 $-1 $143 $56 #
plane-surface $-1 -32.594079859960473 -27.463064432076692 2.927942437884596 0 -0.71933980857756763 0.69465836192734942 1 0 0 forward_v I I I I #
coedge $-1 $144 $145 $146 $147 reversed $57 $-1 #
face $-1 $-1 $148 $33 $-1 $149 forward single #
loop $-1 $150 $151 $59 #
cone-surface $-1 -32.594079859960473 -25.055545654536004 3.6215554755887682 0 0.71933980857756763 -0.69465836192734942 0.25 0 0 1 I I -0.70710678118654746 0.70710678118654746 0.25 forward I I I I #
loop $-1 $-1 $152 $43 #
coedge $-1 $96 $96 $153 $154 reversed $60 $-1 #
face $-1 $155 $156 $34 $-1 $157 reversed single #
loop $-1 $-1 $158 $62 #
plane-surface $-1 14.416129472634196 -27.463064432076692 2.927942437884596 0 -0.71933980857756763 0.69465836192734942 1 0 0 forward_v I I I I #
coedge $-1 $159 $160 $161 $162 reversed $63 $-1 #
face $-1 $-1 $163 $35 $-1 $164 forward single #
loop $-1 $165 $166 $65 #
cone-surface $-1 14.416129472634196 -25.055545654536004 3.6215554755887682 0 0.71933980857756763 -0.69465836192734942 0.25 0 0 1 I I -0.70710678118654746 0.70710678118654746 0.25 forward I I I I #
loop $-1 $-1 $167 $45 #
coedge $-1 $105 $105 $168 $169 reversed $66 $-1 #
face $-1 $170 $171 $36 $-1 $172 reversed single #
loop $-1 $-1 $173 $68 #
plane-surface $-1 -32.594079859960473 -10.691830271706614 42.438493460931511 0 0.71933980857756763 0.69465836192734942 1 0 0 forward_v I I I I #
coedge $-1 $174 $175 $176 $177 reversed $69 $-1 #
face $-1 $-1 $178 $37 $-1 $179 forward single #
loop $-1 $180 $181 $71 #
cone-surface $-1 -32.594079859960473 25.055545654535997 3.6215554755887611 0 -0.71933980857756763 -0.69465836192734942 0.25 0 0 1 I I -0.70710678118654746 0.70710678118654746 0.25 forward I I I I #
loop $-1 $-1 $182 $47 #
coedge $-1 $114 $114 $183 $184 reversed $72 $-1 #
face $-1 $185 $186 $38 $-1 $187 reversed single #
loop $-1 $-1 $188 $74 #
plane-surface $-1 14.416129472634196 -10.691830271706614 42.438493460931511 0 0.71933980857756763 0.69465836192734942 1 0 0 forward_v I I I I #
coedge $-1 $189 $190 $191 $192 reversed $75 $-1 #
face $-1 $-1 $193 $39 $-1 $194 forward single #
loop $-1 $195 $196 $77 #
cone-surface $-1 14.416129472634196 25.055545654535997 3.6215554755887611 0 -0.71933980857756763 -0.69465836192734942 0.25 0 0 1 I I -0.70710678118654746 0.70710678118654746 0.25 forward I I I I #
loop $-1 $-1 $197 $49 #
coedge $-1 $123 $123 $198 $199 reversed $78 $-1 #
face $-1 $200 $201 $30 $-1 $202 reversed single #
loop $-1 $-1 $203 $80 #
plane-surface $-1 0 -27.463064432076699 0 0 1 0 0 0 1 forward_v I I I I #
coedge $-1 $204 $205 $206 $207 forward $81 $-1 #
coedge $-1 $208 $83 $209 $210 forward $51 $-1 #
coedge $-1 $83 $208 $211 $212 forward $51 $-1 #
coedge $-1 $213 $214 $83 $131 reversed $215 $-1 #
edge $-1 $216 -27.463064432076699 $217 27.463064432076699 $130 $218 forward 7 unknown #
face $-1 $219 $220 $31 $-1 $221 reversed single #
loop $-1 $-1 $222 $84 #
plane-surface $-1 -43.952972759247373 -18.820353968792087 0 -1 0 0 0 0 1 forward_v I I I I #
coedge $-1 $223 $224 $225 $226 forward $85 $-1 #
coedge $-1 $227 $87 $228 $229 reversed $54 $-1 #
coedge $-1 $87 $227 $230 $231 reversed $54 $-1 #
coedge $-1 $232 $233 $87 $139 forward $234 $-1 #
edge $-1 $235 -6.0518144181113014 $236 6.0518144181113014 $138 $237 forward 7 unknown #
face $-1 $238 $239 $32 $-1 $240 reversed single #
loop $-1 $-1 $241 $88 #
plane-surface $-1 -40.58446684587372 -99.494078339972702 72.487482355700223 1 0 0 0 0.71933980857756763 -0.69465836192734942 forward_v I I I I #
coedge $-1 $242 $243 $244 $245 reversed $89 $-1 #
coedge $-1 $145 $91 $246 $247 reversed $57 $-1 #
coedge $-1 $91 $144 $242 $248 reversed $57 $-1 #
coedge $-1 $244 $249 $91 $147 forward $250 $-1 #
edge $-1 $251 22.283974737909652 $252 25.300662771547145 $146 $253 forward 7 unknown #
loop $-1 $-1 $153 $92 #
plane-surface $-1 -32.594079859960473 -27.463064432076692 2.927942437884596 0 -0.71933980857756763 0.69465836192734942 1 0 0 forward_v I I I I #
loop $-1 $-1 $254 $59 #
coedge $-1 $151 $151 $152 $255 reversed $93 $-1 #
coedge $-1 $152 $152 $151 $255 forward $95 $-1 #
coedge $-1 $153 $153 $96 $154 forward $148 $-1 #
edge $-1 $256 1.80392086758052e-015 $256 6.2831853071796022 $153 $257 forward 7 unknown #
face $-1 $258 $259 $34 $-1 $260 reversed single #
loop $-1 $-1 $261 $97 #
plane-surface $-1 6.4257424867209503 -99.494078339972702 72.487482355700223 1 0 0 0 0.71933980857756763 -0.69465836192734942 forward_v I I I I #
coedge $-1 $262 $263 $264 $265 reversed $98 $-1 #
coedge $-1 $160 $100 $266 $267 reversed $63 $-1 #
coedge $-1 $100 $159 $262 $268 reversed $63 $-1 #
coedge $-1 $264 $269 $100 $162 forward $270 $-1 #
edge $-1 $271 22.283974737909652 $272 25.300662771547145 $161 $273 forward 7 unknown #
loop $-1 $-1 $168 $101 #
plane-surface $-1 14.416129472634196 -27.463064432076692 2.927942437884596 0 -0.71933980857756763 0.69465836192734942 1 0 0 forward_v I I I I #
loop $-1 $-1 $274 $65 #
coedge $-1 $166 $166 $167 $275 reversed $102 $-1 #
coedge $-1 $167 $167 $166 $275 forward $104 $-1 #
coedge $-1 $168 $168 $105 $169 forward $163 $-1 #
edge $-1 $276 1.80392086758052e-015 $276 6.2831853071796022 $168 $277 forward 7 unknown #
face $-1 $278 $279 $36 $-1 $280 reversed single #
loop $-1 $-1 $281 $106 #
plane-surface $-1 -24.603692874047226 61.339183636189397 111.99803337874714 -1 0 0 0 0.71933980857756763 0.69465836192734942 forward_v I I I I #
coedge $-1 $282 $283 $284 $285 reversed $107 $-1 #
coedge $-1 $175 $109 $286 $287 reversed $69 $-1 #
coedge $-1 $109 $174 $282 $288 reversed $69 $-1 #
coedge $-1 $284 $289 $109 $177 forward $290 $-1 #
edge $-1 $291 3.2065273860179992 $292 6.2232154196554923 $176 $293 forward 7 unknown #
loop $-1 $-1 $183 $110 #
plane-surface $-1 -32.594079859960473 -10.691830271706614 42.438493460931511 0 0.71933980857756763 0.69465836192734942 1 0 0 forward_v I I I I #
loop $-1 $-1 $294 $71 #
coedge $-1 $181 $181 $182 $295 reversed $111 $-1 #
coedge $-1 $182 $182 $181 $295 forward $113 $-1 #
coedge $-1 $183 $183 $114 $184 forward $178 $-1 #
edge $-1 $296 -2.7309806038928889e-015 $296 6.2831853071795978 $183 $297 forward 7 unknown #
face $-1 $298 $299 $38 $-1 $300 forward single #
loop $-1 $-1 $301 $115 #
plane-surface $-1 22.406516458547443 61.339183636189397 111.99803337874714 -1 0 0 0 0.71933980857756763 0.69465836192734942 forward_v I I I I #
coedge $-1 $302 $303 $304 $305 reversed $116 $-1 #
coedge $-1 $190 $118 $306 $307 reversed $75 $-1 #
coedge $-1 $118 $189 $302 $308 reversed $75 $-1 #
coedge $-1 $304 $309 $118 $192 forward $299 $-1 #
edge $-1 $310 3.2065273860179992 $311 6.2232154196554923 $191 $312 forward 7 unknown #
loop $-1 $-1 $198 $119 #
plane-surface $-1 14.416129472634196 -10.691830271706614 42.438493460931511 0 0.71933980857756763 0.69465836192734942 1 0 0 forward_v I I I I #
loop $-1 $-1 $313 $77 #
coedge $-1 $196 $196 $197 $314 reversed $120 $-1 #
coedge $-1 $197 $197 $196 $314 forward $122 $-1 #
coedge $-1 $198 $198 $123 $199 forward $193 $-1 #
edge $-1 $315 -2.7309806038928889e-015 $315 6.2831853071795978 $198 $316 forward 7 unknown #
face $-1 $317 $318 $30 $-1 $319 reversed single #
loop $-1 $-1 $320 $124 #
plane-surface $-1 -50.067445905941952 0 0 1 0 0 0 0 -1 forward_v I I I I #
coedge $-1 $321 $211 $322 $323 forward $125 $-1 #
coedge $-1 $324 $127 $321 $325 forward $81 $-1 #
coedge $-1 $127 $324 $326 $327 forward $81 $-1 #
coedge $-1 $214 $213 $127 $207 reversed $215 $-1 #
edge $-1 $328 -27.463064432076699 $329 27.463064432076699 $206 $330 forward 7 unknown #
coedge $-1 $129 $128 $331 $332 forward $51 $-1 #
coedge $-1 $333 $334 $128 $210 reversed $318 $-1 #
edge $-1 $217 -50.067445905941952 $335 50.067445905941952 $209 $336 forward 7 unknown #
coedge $-1 $203 $337 $129 $212 reversed $125 $-1 #
edge $-1 $338 -50.067445905941952 $216 50.067445905941952 $211 $339 forward 7 unknown #
coedge $-1 $206 $130 $337 $340 forward $215 $-1 #
coedge $-1 $130 $206 $333 $341 reversed $215 $-1 #
loop $-1 $-1 $213 $317 #
vertex $-1 $131 $342 #
vertex $-1 $131 $343 #
straight-curve $-1 50.067445905941952 0 6.0518144181113014 0 1 0 I I #
face $-1 $344 $345 $31 $-1 $346 forward single #
loop $-1 $-1 $347 $132 #
plane-surface $-1 0 0 -6.0518144181113014 0 0 1 1 0 0 forward_v I I I I #
coedge $-1 $348 $349 $227 $350 forward $133 $-1 #
coedge $-1 $351 $135 $347 $352 reversed $85 $-1 #
coedge $-1 $135 $351 $353 $354 reversed $85 $-1 #
coedge $-1 $349 $348 $135 $226 reversed $133 $-1 #
edge $-1 $355 -6.0518144181113014 $356 6.0518144181113014 $225 $357 forward 7 unknown #
coedge $-1 $137 $136 $222 $350 reversed $54 $-1 #
coedge $-1 $358 $359 $136 $229 forward $220 $-1 #
edge $-1 $360 20.447868092950042 $235 26.562341239644621 $228 $361 forward 7 unknown #
coedge $-1 $362 $363 $137 $231 forward $345 $-1 #
edge $-1 $236 -26.562341239644621 $364 -20.447868092950042 $230 $365 forward 7 unknown #
coedge $-1 $366 $138 $363 $367 reversed $234 $-1 #
coedge $-1 $138 $366 $358 $368 reversed $234 $-1 #
loop $-1 $-1 $366 $344 #
vertex $-1 $368 $369 #
vertex $-1 $139 $370 #
straight-curve $-1 -50.067445905941952 -20.320353968792087 0 0 0 1 I I #
face $-1 $-1 $250 $32 $-1 $371 forward single #
loop $-1 $-1 $372 $140 #
plane-surface $-1 0 -27.463064432076699 0 0 1 0 0 0 1 forward_v I I I I #
coedge $-1 $373 $374 $375 $376 reversed $141 $-1 #
coedge $-1 $377 $143 $145 $248 forward $89 $-1 #
coedge $-1 $143 $377 $373 $378 forward $89 $-1 #
coedge $-1 $375 $146 $143 $245 forward $250 $-1 #
edge $-1 $252 8.3066529440669896 $379 24.287426915893484 $244 $380 forward 7 unknown #
coedge $-1 $381 $382 $144 $247 forward $239 $-1 #
edge $-1 $383 -33.315798739965523 $251 -30.191926759738809 $246 $384 forward 7 unknown #
edge $-1 $252 -4.3426930401695589 $383 1.0366512331508311e-014 $145 $385 forward 7 unknown #
coedge $-1 $146 $375 $381 $386 forward $250 $-1 #
loop $-1 $-1 $375 $238 #
vertex $-1 $247 $387 #
vertex $-1 $147 $388 #
straight-curve $-1 -24.603692874047226 -49.747039169986351 6.0518144181112987 0 1 0 I I #
coedge $-1 $254 $254 $-1 $389 reversed $150 $-1 #
edge $-1 $390 0 $390 6.2831853071796004 $151 $391 forward 7 unknown #
vertex $-1 $154 $392 #
ellipse-curve $-1 -32.594079859960473 -25.954720415257952 4.4898784279979438 0 -0.71933980857756763 0.69465836192734942 0.5 0 0 1 I I #
face $-1 $-1 $270 $34 $-1 $393 forward single #
loop $-1 $-1 $394 $155 #
plane-surface $-1 0 -27.463064432076699 0 0 1 0 0 0 1 forward_v I I I I #
coedge $-1 $395 $396 $397 $398 reversed $156 $-1 #
coedge $-1 $399 $158 $160 $268 forward $98 $-1 #
coedge $-1 $158 $399 $395 $400 forward $98 $-1 #
coedge $-1 $397 $161 $158 $265 forward $270 $-1 #
edge $-1 $272 -15.198451722230345 $401 0.78232224959614793 $264 $402 forward 7 unknown #
coedge $-1 $403 $404 $159 $267 forward $259 $-1 #
edge $-1 $405 -33.315798739965523 $271 -30.191926759738809 $266 $406 forward 7 unknown #
edge $-1 $272 -4.3426930401695589 $405 1.0366512331508311e-014 $160 $407 forward 7 unknown #
coedge $-1 $161 $397 $403 $408 forward $270 $-1 #
loop $-1 $-1 $397 $258 #
vertex $-1 $267 $409 #
vertex $-1 $162 $410 #
straight-curve $-1 22.406516458547443 -49.747039169986351 6.0518144181112987 0 1 0 I I #
coedge $-1 $274 $274 $-1 $411 reversed $165 $-1 #
edge $-1 $412 0 $412 6.2831853071796004 $166 $413 forward 7 unknown #
vertex $-1 $169 $414 #
ellipse-curve $-1 14.416129472634196 -25.954720415257952 4.4898784279979438 0 -0.71933980857756763 0.69465836192734942 0.5 0 0 1 I I #
face $-1 $-1 $290 $36 $-1 $415 forward single #
loop $-1 $-1 $416 $170 #
plane-surface $-1 0 27.463064432076699 0 0 -1 0 0 0 -1 forward_v I I I I #
coedge $-1 $417 $418 $419 $420 reversed $171 $-1 #
coedge $-1 $421 $173 $175 $288 forward $107 $-1 #
coedge $-1 $173 $421 $417 $422 forward $107 $-1 #
coedge $-1 $419 $176 $173 $285 forward $290 $-1 #
edge $-1 $292 -24.287426915893484 $423 -8.3066529440669896 $284 $424 forward 7 unknown #
coedge $-1 $425 $426 $174 $287 forward $279 $-1 #
edge $-1 $427 -53.071074251488987 $291 -49.94720227126227 $286 $428 forward 7 unknown #
edge $-1 $292 50.583435823983841 $427 54.926128864153412 $175 $429 forward 7 unknown #
coedge $-1 $176 $419 $425 $430 forward $290 $-1 #
loop $-1 $-1 $419 $278 #
vertex $-1 $287 $431 #
vertex $-1 $177 $432 #
straight-curve $-1 -40.58446684587372 30.669591818094698 6.0518144181112987 0 -1 0 I I #
coedge $-1 $294 $294 $-1 $433 reversed $180 $-1 #
edge $-1 $434 0 $434 6.2831853071796004 $181 $435 forward 7 unknown #
vertex $-1 $184 $436 #
ellipse-curve $-1 -32.594079859960473 25.954720415257952 4.4898784279979429 0 0.71933980857756763 0.69465836192734942 0.5 0 0 1 I I #
face $-1 $-1 $437 $38 $-1 $438 reversed single #
loop $-1 $-1 $191 $185 #
plane-surface $-1 0 0 6.0518144181113014 0 0 1 1 0 0 forward_v I I I I #
coedge $-1 $439 $440 $441 $442 reversed $186 $-1 #
coedge $-1 $443 $188 $190 $308 forward $116 $-1 #
coedge $-1 $188 $443 $439 $444 forward $116 $-1 #
coedge $-1 $441 $191 $188 $305 forward $299 $-1 #
edge $-1 $311 -0.78232224959614793 $445 15.198451722230345 $304 $446 forward 7 unknown #
coedge $-1 $447 $448 $189 $307 forward $437 $-1 #
edge $-1 $449 -53.071074251488987 $310 -49.94720227126227 $306 $450 forward 7 unknown #
edge $-1 $311 50.583435823983841 $449 54.926128864153412 $190 $451 forward 7 unknown #
coedge $-1 $191 $441 $447 $452 forward $299 $-1 #
vertex $-1 $307 $453 #
vertex $-1 $192 $454 #
straight-curve $-1 6.4257424867209503 30.669591818094698 6.0518144181112987 0 -1 0 I I #
coedge $-1 $313 $313 $-1 $455 reversed $195 $-1 #
edge $-1 $456 0 $456 6.2831853071796004 $196 $457 forward 7 unknown #
vertex $-1 $199 $458 #
ellipse-curve $-1 14.416129472634196 25.954720415257952 4.4898784279979429 0 0.71933980857756763 0.69465836192734942 0.5 0 0 1 I I #
face $-1 $-1 $215 $30 $-1 $459 reversed single #
loop $-1 $-1 $333 $200 #
plane-surface $-1 0 27.463064432076699 0 0 -1 0 0 0 -1 forward_v I I I I #
coedge $-1 $460 $331 $334 $461 forward $201 $-1 #
coedge $-1 $337 $203 $204 $325 reversed $125 $-1 #
coedge $-1 $331 $460 $203 $323 reversed $201 $-1 #
edge $-1 $338 -6.0518144181113014 $462 6.0518144181113014 $322 $463 forward 7 unknown #
coedge $-1 $205 $204 $460 $464 forward $81 $-1 #
edge $-1 $329 -50.067445905941952 $462 50.067445905941952 $321 $465 forward 7 unknown #
coedge $-1 $334 $333 $205 $327 reversed $318 $-1 #
edge $-1 $466 -50.067445905941952 $328 50.067445905941952 $326 $467 forward 7 unknown #
vertex $-1 $207 $468 #
vertex $-1 $340 $469 #
straight-curve $-1 50.067445905941952 0 -6.0518144181113014 0 -1 0 I I #
coedge $-1 $320 $322 $208 $332 reversed $201 $-1 #
edge $-1 $335 -27.463064432076699 $338 27.463064432076699 $331 $470 forward 7 unknown #
coedge $-1 $326 $209 $214 $341 forward $318 $-1 #
coedge $-1 $209 $326 $320 $461 reversed $318 $-1 #
vertex $-1 $210 $471 #
straight-curve $-1 0 27.463064432076699 6.0518144181113014 -1 0 0 I I #
coedge $-1 $211 $321 $213 $340 reversed $125 $-1 #
vertex $-1 $332 $472 #
straight-curve $-1 0 -27.463064432076699 6.0518144181113014 1 0 0 I I #
edge $-1 $216 -6.0518144181113014 $329 6.0518144181113014 $213 $473 forward 7 unknown #
edge $-1 $217 -6.0518144181113014 $328 6.0518144181113014 $214 $474 forward 7 unknown #
point $-1 50.067445905941952 -27.463064432076699 6.0518144181113014 #
point $-1 50.067445905941952 27.463064432076699 6.0518144181113014 #
face $-1 $-1 $234 $31 $-1 $475 reversed single #
loop $-1 $-1 $353 $219 #
plane-surface $-1 0 0 6.0518144181113014 0 0 1 1 0 0 forward_v I I I I #
coedge $-1 $359 $358 $223 $352 forward $220 $-1 #
coedge $-1 $225 $222 $359 $476 reversed $133 $-1 #
coedge $-1 $222 $225 $362 $477 reversed $133 $-1 #
edge $-1 $364 -6.0518144181113014 $360 6.0518144181113014 $222 $478 forward 7 unknown #
coedge $-1 $224 $223 $366 $479 reversed $85 $-1 #
edge $-1 $480 -26.562341239644621 $356 -20.447868092950042 $347 $481 forward 7 unknown #
coedge $-1 $363 $362 $224 $354 forward $345 $-1 #
edge $-1 $355 20.447868092950042 $482 26.562341239644621 $353 $483 forward 7 unknown #
vertex $-1 $354 $484 #
vertex $-1 $352 $485 #
straight-curve $-1 -43.952972759247373 -17.320353968792087 0 0 0 -1 I I #
coedge $-1 $347 $228 $233 $368 forward $220 $-1 #
coedge $-1 $228 $347 $348 $476 forward $220 $-1 #
vertex $-1 $229 $486 #
straight-curve $-1 -23.505104666297331 -20.320353968792087 -6.0518144181113014 -1 0 0 I I #
coedge $-1 $353 $230 $349 $477 forward $345 $-1 #
coedge $-1 $230 $353 $232 $367 forward $345 $-1 #
vertex $-1 $231 $487 #
straight-curve $-1 -23.505104666297331 -20.320353968792087 6.0518144181113014 1 0 0 I I #
coedge $-1 $233 $232 $351 $479 forward $234 $-1 #
edge $-1 $482 17.320353968792087 $236 20.320353968792087 $232 $488 forward 7 unknown #
edge $-1 $235 -20.320353968792087 $480 -17.320353968792087 $233 $489 forward 7 unknown #
point $-1 -50.067445905941952 -20.320353968792087 -6.0518144181113014 #
point $-1 -50.067445905941952 -20.320353968792087 6.0518144181113014 #
plane-surface $-1 0 0 6.0518144181113014 0 0 1 1 0 0 forward_v I I I I #
coedge $-1 $382 $381 $374 $490 forward $239 $-1 #
coedge $-1 $374 $241 $243 $378 reversed $141 $-1 #
coedge $-1 $241 $373 $372 $490 reversed $141 $-1 #
coedge $-1 $249 $244 $241 $376 forward $250 $-1 #
edge $-1 $379 -25.300662771547145 $491 -22.283974737909652 $375 $492 forward 7 unknown #
coedge $-1 $243 $242 $382 $493 reversed $89 $-1 #
edge $-1 $494 -1.0366512331508311e-014 $379 4.3426930401695589 $373 $495 forward 7 unknown #
vertex $-1 $245 $496 #
straight-curve $-1 -16.297039929980237 -24.446376398439206 6.0518144181113023 -1 0 0 I I #
coedge $-1 $372 $246 $249 $386 reversed $239 $-1 #
coedge $-1 $246 $372 $377 $493 forward $239 $-1 #
vertex $-1 $247 $497 #
straight-curve $-1 -24.603692874047226 -27.463064432076699 36.243741177850112 0 0 1 I I #
straight-curve $-1 -24.603692874047226 -27.463064432076692 2.927942437884596 0 -0.69465836192734942 -0.71933980857756763 I I #
edge $-1 $491 -40.58446684587372 $251 -24.603692874047226 $381 $498 forward 7 unknown #
point $-1 -24.603692874047226 -27.463064432076699 6.0518144181113014 #
point $-1 -24.603692874047226 -24.446376398439206 6.0518144181113023 #
edge $-1 $499 1 $499 0 $254 $-1 forward 7 unknown #
vertex $-1 $255 $500 #
ellipse-curve $-1 -32.594079859960473 -25.235380606680398 3.7952200660706055 0 -0.71933980857756763 0.69465836192734942 0.5 0 0 1 I I #
point $-1 -32.094079859960473 -25.954720415257963 4.4898784279979553 #
plane-surface $-1 0 0 6.0518144181113014 0 0 1 1 0 0 forward_v I I I I #
coedge $-1 $404 $403 $396 $501 forward $259 $-1 #
coedge $-1 $396 $261 $263 $400 reversed $156 $-1 #
coedge $-1 $261 $395 $394 $501 reversed $156 $-1 #
coedge $-1 $269 $264 $261 $398 forward $270 $-1 #
edge $-1 $401 -25.300662771547145 $502 -22.283974737909652 $397 $503 forward 7 unknown #
coedge $-1 $263 $262 $404 $504 reversed $98 $-1 #
edge $-1 $505 -1.0366512331508311e-014 $401 4.3426930401695589 $395 $506 forward 7 unknown #
vertex $-1 $265 $507 #
straight-curve $-1 7.2080647363170982 -24.446376398439206 6.0518144181113023 -1 0 0 I I #
coedge $-1 $394 $266 $269 $408 reversed $259 $-1 #
coedge $-1 $266 $394 $399 $504 forward $259 $-1 #
vertex $-1 $267 $508 #
straight-curve $-1 22.406516458547443 -27.463064432076699 36.243741177850112 0 0 1 I I #
straight-curve $-1 22.406516458547443 -27.463064432076692 2.927942437884596 0 -0.69465836192734942 -0.71933980857756763 I I #
edge $-1 $502 6.4257424867209503 $271 22.406516458547443 $403 $509 forward 7 unknown #
point $-1 22.406516458547443 -27.463064432076699 6.0518144181113014 #
point $-1 22.406516458547443 -24.446376398439206 6.0518144181113023 #
edge $-1 $510 1 $510 0 $274 $-1 forward 7 unknown #
vertex $-1 $275 $511 #
ellipse-curve $-1 14.416129472634196 -25.235380606680398 3.7952200660706055 0 -0.71933980857756763 0.69465836192734942 0.5 0 0 1 I I #
point $-1 14.916129472634196 -25.954720415257963 4.4898784279979553 #
plane-surface $-1 0 0 6.0518144181113014 0 0 1 1 0 0 forward_v I I I I #
coedge $-1 $426 $425 $418 $512 forward $279 $-1 #
coedge $-1 $418 $281 $283 $422 reversed $171 $-1 #
coedge $-1 $281 $417 $416 $512 reversed $171 $-1 #
coedge $-1 $289 $284 $281 $420 forward $290 $-1 #
edge $-1 $423 -6.2232154196554923 $513 -3.2065273860179992 $419 $514 forward 7 unknown #
coedge $-1 $283 $282 $426 $515 reversed $107 $-1 #
edge $-1 $516 -54.926128864153412 $423 -50.583435823983841 $417 $517 forward 7 unknown #
vertex $-1 $285 $518 #
straight-curve $-1 -16.297039929980237 24.446376398439195 6.0518144181113058 1 0 0 I I #
coedge $-1 $416 $286 $289 $430 reversed $279 $-1 #
coedge $-1 $286 $416 $421 $515 forward $279 $-1 #
vertex $-1 $287 $519 #
straight-curve $-1 -40.58446684587372 27.463064432076699 55.999016689373569 0 0 1 I I #
straight-curve $-1 -40.58446684587372 -10.691830271706614 42.438493460931511 0 0.69465836192734942 -0.71933980857756763 I I #
edge $-1 $513 24.603692874047226 $291 40.58446684587372 $425 $520 forward 7 unknown #
point $-1 -40.58446684587372 27.463064432076699 6.0518144181113014 #
point $-1 -40.58446684587372 24.446376398439206 6.0518144181112987 #
edge $-1 $521 1 $521 0 $294 $-1 forward 7 unknown #
vertex $-1 $295 $522 #
ellipse-curve $-1 -32.594079859960473 25.235380606680391 3.7952200660705984 0 0.71933980857756763 0.69465836192734942 0.5 0 0 1 I I #
point $-1 -32.094079859960473 25.954720415257956 4.4898784279979482 #
loop $-1 $-1 $306 $298 #
plane-surface $-1 0 27.463064432076699 0 0 -1 0 0 0 -1 forward_v I I I I #
coedge $-1 $440 $301 $303 $444 reversed $186 $-1 #
coedge $-1 $301 $439 $523 $524 reversed $186 $-1 #
coedge $-1 $309 $304 $301 $442 forward $299 $-1 #
edge $-1 $445 -6.2232154196554923 $525 -3.2065273860179992 $441 $526 forward 7 unknown #
coedge $-1 $303 $302 $448 $527 reversed $116 $-1 #
edge $-1 $528 -54.926128864153412 $445 -50.583435823983841 $439 $529 forward 7 unknown #
vertex $-1 $305 $530 #
straight-curve $-1 7.2080647363170982 24.446376398439195 6.0518144181113058 1 0 0 I I #
coedge $-1 $523 $306 $309 $452 reversed $437 $-1 #
coedge $-1 $306 $523 $443 $527 forward $437 $-1 #
vertex $-1 $307 $531 #
straight-curve $-1 6.4257424867209503 27.463064432076699 55.999016689373569 0 0 1 I I #
straight-curve $-1 6.4257424867209503 -10.691830271706614 42.438493460931511 0 0.69465836192734942 -0.71933980857756763 I I #
edge $-1 $525 -22.406516458547443 $310 -6.4257424867209503 $447 $532 forward 7 unknown #
point $-1 6.4257424867209503 27.463064432076699 6.0518144181113014 #
point $-1 6.4257424867209503 24.446376398439206 6.0518144181112987 #
edge $-1 $533 1 $533 0 $313 $-1 forward 7 unknown #
vertex $-1 $314 $534 #
ellipse-curve $-1 14.416129472634196 25.235380606680391 3.7952200660705984 0 0.71933980857756763 0.69465836192734942 0.5 0 0 1 I I #
point $-1 14.916129472634196 25.954720415257956 4.4898784279979482 #
plane-surface $-1 50.067445905941952 0 0 -1 0 0 0 0 1 forward_v I I I I #
coedge $-1 $322 $320 $324 $464 reversed $201 $-1 #
edge $-1 $335 -6.0518144181113014 $466 6.0518144181113014 $334 $535 forward 7 unknown #
vertex $-1 $464 $536 #
straight-curve $-1 -50.067445905941952 -27.463064432076699 0 0 0 -1 I I #
edge $-1 $462 -27.463064432076699 $466 27.463064432076699 $460 $537 forward 7 unknown #
straight-curve $-1 0 -27.463064432076699 -6.0518144181113014 -1 0 0 I I #
vertex $-1 $327 $538 #
straight-curve $-1 0 27.463064432076699 -6.0518144181113014 1 0 0 I I #
point $-1 50.067445905941952 27.463064432076699 -6.0518144181113014 #
point $-1 50.067445905941952 -27.463064432076699 -6.0518144181113014 #
straight-curve $-1 -50.067445905941952 0 6.0518144181113014 0 -1 0 I I #
point $-1 -50.067445905941952 27.463064432076699 6.0518144181113014 #
point $-1 -50.067445905941952 -27.463064432076699 6.0518144181113014 #
straight-curve $-1 50.067445905941952 -27.463064432076699 0 0 0 -1 I I #
straight-curve $-1 50.067445905941952 27.463064432076699 0 0 0 -1 I I #
plane-surface $-1 -50.067445905941952 0 0 1 0 0 0 0 -1 forward_v I I I I #
edge $-1 $356 7.9101769843960437 $360 10.910176984396044 $359 $539 forward 7 unknown #
edge $-1 $364 -10.910176984396044 $355 -7.9101769843960437 $362 $540 forward 7 unknown #
straight-curve $-1 -43.952972759247373 -20.320353968792087 0 0 0 -1 I I #
edge $-1 $482 -6.0518144181113014 $480 6.0518144181113014 $366 $541 forward 7 unknown #
vertex $-1 $479 $542 #
straight-curve $-1 -23.505104666297331 -17.320353968792087 -6.0518144181113014 1 0 0 I I #
vertex $-1 $367 $543 #
straight-curve $-1 -23.505104666297331 -17.320353968792087 6.0518144181113014 -1 0 0 I I #
point $-1 -43.952972759247373 -17.320353968792087 6.0518144181113014 #
point $-1 -43.952972759247373 -17.320353968792087 -6.0518144181113014 #
point $-1 -43.952972759247373 -20.320353968792087 -6.0518144181113014 #
point $-1 -43.952972759247373 -20.320353968792087 6.0518144181113014 #
straight-curve $-1 -50.067445905941952 0 6.0518144181113014 0 -1 0 I I #
straight-curve $-1 -50.067445905941952 0 -6.0518144181113014 0 1 0 I I #
edge $-1 $491 30.191926759738809 $494 33.315798739965523 $372 $544 forward 7 unknown #
vertex $-1 $386 $545 #
straight-curve $-1 -40.58446684587372 -49.747039169986351 6.0518144181112987 0 -1 0 I I #
edge $-1 $494 -24.287426915893484 $383 -8.3066529440669896 $382 $546 forward 7 unknown #
vertex $-1 $493 $547 #
straight-curve $-1 -40.58446684587372 -27.463064432076692 2.927942437884596 0 0.69465836192734942 0.71933980857756763 I I #
point $-1 -40.58446684587372 -24.446376398439206 6.0518144181113023 #
point $-1 -24.603692874047226 -27.463064432076699 2.9279424378845884 #
straight-curve $-1 0 -27.463064432076699 6.0518144181113014 1 0 0 I I #
vertex $-1 $389 $548 #
point $-1 -32.094079859960473 -25.235380606680398 3.7952200660706055 #
edge $-1 $502 30.191926759738809 $505 33.315798739965523 $394 $549 forward 7 unknown #
vertex $-1 $408 $550 #
straight-curve $-1 6.4257424867209503 -49.747039169986351 6.0518144181112987 0 -1 0 I I #
edge $-1 $505 -0.78232224959614793 $405 15.198451722230345 $404 $551 forward 7 unknown #
vertex $-1 $504 $552 #
straight-curve $-1 6.4257424867209503 -27.463064432076692 2.927942437884596 0 0.69465836192734942 0.71933980857756763 I I #
point $-1 6.4257424867209503 -24.446376398439206 6.0518144181113023 #
point $-1 22.406516458547443 -27.463064432076699 2.9279424378845884 #
straight-curve $-1 0 -27.463064432076699 6.0518144181113014 1 0 0 I I #
vertex $-1 $411 $553 #
point $-1 14.916129472634196 -25.235380606680398 3.7952200660706055 #
edge $-1 $513 49.94720227126227 $516 53.071074251488987 $416 $554 forward 7 unknown #
vertex $-1 $430 $555 #
straight-curve $-1 -24.603692874047226 30.669591818094698 6.0518144181112987 0 1 0 I I #
edge $-1 $516 8.3066529440669896 $427 24.287426915893484 $426 $556 forward 7 unknown #
vertex $-1 $515 $557 #
straight-curve $-1 -24.603692874047226 -10.691830271706614 42.438493460931511 0 -0.69465836192734942 0.71933980857756763 I I #
point $-1 -24.603692874047226 24.446376398439206 6.0518144181112987 #
point $-1 -40.58446684587372 27.463064432076699 2.9279424378845818 #
straight-curve $-1 0 27.463064432076699 6.0518144181113014 -1 0 0 I I #
vertex $-1 $433 $558 #
point $-1 -32.094079859960473 25.235380606680391 3.7952200660705984 #
coedge $-1 $448 $447 $440 $524 forward $437 $-1 #
edge $-1 $525 49.94720227126227 $528 53.071074251488987 $523 $559 forward 7 unknown #
vertex $-1 $452 $560 #
straight-curve $-1 22.406516458547443 30.669591818094698 6.0518144181112987 0 1 0 I I #
edge $-1 $528 -15.198451722230345 $449 0.78232224959614793 $448 $561 forward 7 unknown #
vertex $-1 $527 $562 #
straight-curve $-1 22.406516458547443 -10.691830271706614 42.438493460931511 0 -0.69465836192734942 0.71933980857756763 I I #
point $-1 22.406516458547443 24.446376398439206 6.0518144181112987 #
point $-1 6.4257424867209503 27.463064432076699 2.9279424378845818 #
straight-curve $-1 0 27.463064432076699 6.0518144181113014 -1 0 0 I I #
vertex $-1 $455 $563 #
point $-1 14.916129472634196 25.235380606680391 3.7952200660705984 #
straight-curve $-1 -50.067445905941952 27.463064432076699 0 0 0 -1 I I #
point $-1 -50.067445905941952 -27.463064432076699 -6.0518144181113014 #
straight-curve $-1 -50.067445905941952 0 -6.0518144181113014 0 1 0 I I #
point $-1 -50.067445905941952 27.463064432076699 -6.0518144181113014 #
straight-curve $-1 -43.952972759247373 -9.4101769843960437 -6.0518144181113014 0 -1 0 I I #
straight-curve $-1 -43.952972759247373 -9.4101769843960437 6.0518144181113014 0 1 0 I I #
straight-curve $-1 -50.067445905941952 -17.320353968792087 0 0 0 -1 I I #
point $-1 -50.067445905941952 -17.320353968792087 -6.0518144181113014 #
point $-1 -50.067445905941952 -17.320353968792087 6.0518144181113014 #
straight-curve $-1 -40.58446684587372 -27.463064432076699 36.243741177850112 0 0 -1 I I #
point $-1 -40.58446684587372 -27.463064432076699 6.0518144181113014 #
straight-curve $-1 -16.297039929980237 -27.463064432076699 2.9279424378845893 1 0 0 I I #
point $-1 -40.58446684587372 -27.463064432076699 2.9279424378845884 #
point $-1 -32.594079859960473 -24.875710702391611 3.447890885106931 #
straight-curve $-1 6.4257424867209503 -27.463064432076699 36.243741177850112 0 0 -1 I I #
point $-1 6.4257424867209503 -27.463064432076699 6.0518144181113014 #
straight-curve $-1 7.2080647363170982 -27.463064432076699 2.9279424378845893 1 0 0 I I #
point $-1 6.4257424867209503 -27.463064432076699 2.9279424378845884 #
point $-1 14.416129472634196 -24.875710702391611 3.447890885106931 #
straight-curve $-1 -24.603692874047226 27.463064432076699 55.999016689373569 0 0 -1 I I #
point $-1 -24.603692874047226 27.463064432076699 6.0518144181113014 #
straight-curve $-1 -16.297039929980237 27.463064432076695 2.9279424378845889 -1 0 0 I I #
point $-1 -24.603692874047226 27.463064432076699 2.9279424378845818 #
point $-1 -32.594079859960473 24.875710702391604 3.4478908851069239 #
straight-curve $-1 22.406516458547443 27.463064432076699 55.999016689373569 0 0 -1 I I #
point $-1 22.406516458547443 27.463064432076699 6.0518144181113014 #
straight-curve $-1 7.2080647363170982 27.463064432076695 2.9279424378845889 -1 0 0 I I #
point $-1 22.406516458547443 27.463064432076699 2.9279424378845818 #
point $-1 14.416129472634196 24.875710702391604 3.4478908851069239 #
End-of-ACIS-data 