500 0 18 0           
7 Unknown 11 ACIS 5.0 NT 24 Thu Mar 25 17:43:12 1999 
-1 9.9999999999999995e-007 1e-010 
body $-1 $18 $-1 $19 #
body $-1 $20 $-1 $21 #
body $-1 $22 $-1 $23 #
body $-1 $24 $-1 $25 #
body $-1 $26 $-1 $27 #
body $-1 $28 $-1 $29 #
body $-1 $30 $-1 $31 #
body $-1 $32 $-1 $33 #
body $-1 $34 $-1 $35 #
body $-1 $36 $-1 $37 #
body $-1 $38 $-1 $39 #
body $-1 $40 $-1 $41 #
body $-1 $42 $-1 $43 #
body $-1 $44 $-1 $45 #
body $-1 $46 $-1 $47 #
body $-1 $48 $-1 $49 #
body $-1 $50 $-1 $51 #
body $-1 $52 $-1 $53 #
lump $-1 $-1 $54 $0 #
transform $-1 1 0 0 0 1 0 0 0 1 76.454969939268167 33.79703064300417 7.5515482085540562 1 rotate no_reflect no_shear #
lump $-1 $-1 $55 $1 #
transform $-1 1 0 0 0 1 0 0 0 1 76.454969939268167 33.79703064300417 7.5515482085540562 1 rotate no_reflect no_shear #
lump $-1 $-1 $56 $2 #
transform $-1 1 0 0 0 1 0 0 0 1 76.454969939268167 33.79703064300417 7.5515482085540562 1 rotate no_reflect no_shear #
lump $-1 $-1 $57 $3 #
transform $-1 1 0 0 0 1 0 0 0 1 76.454969939268167 33.79703064300417 7.5515482085540562 1 rotate no_reflect no_shear #
lump $-1 $-1 $58 $4 #
transform $-1 1 0 0 0 1 0 0 0 1 76.454969939268167 33.79703064300417 7.5515482085540562 1 rotate no_reflect no_shear #
lump $-1 $-1 $59 $5 #
transform $-1 1 0 0 0 1 0 0 0 1 76.454969939268167 33.79703064300417 7.5515482085540562 1 rotate no_reflect no_shear #
lump $-1 $-1 $60 $6 #
transform $-1 1 0 0 0 1 0 0 0 1 76.454969939268167 33.79703064300417 7.5515482085540562 1 rotate no_reflect no_shear #
lump $-1 $-1 $61 $7 #
transform $-1 1 0 0 0 1 0 0 0 1 76.454969939268167 33.79703064300417 7.5515482085540562 1 rotate no_reflect no_shear #
lump $-1 $-1 $62 $8 #
transform $-1 1 0 0 0 1 0 0 0 1 76.454969939268167 33.79703064300417 7.5515482085540562 1 rotate no_reflect no_shear #
lump $-1 $-1 $63 $9 #
transform $-1 1 0 0 0 1 0 0 0 1 76.454969939268167 33.79703064300417 7.5515482085540562 1 rotate no_reflect no_shear #
lump $-1 $-1 $64 $10 #
transform $-1 1 0 0 0 1 0 0 0 1 76.454969939268167 33.79703064300417 7.5515482085540562 1 rotate no_reflect no_shear #
lump $-1 $-1 $65 $11 #
transform $-1 1 0 0 0 1 0 0 0 1 76.454969939268167 33.79703064300417 7.5515482085540562 1 rotate no_reflect no_shear #
lump $-1 $-1 $66 $12 #
transform $-1 1 0 0 0 1 0 0 0 1 76.454969939268167 33.79703064300417 7.5515482085540562 1 rotate no_reflect no_shear #
lump $-1 $-1 $67 $13 #
transform $-1 1 0 0 0 1 0 0 0 1 76.454969939268167 33.79703064300417 7.5515482085540562 1 rotate no_reflect no_shear #
lump $-1 $-1 $68 $14 #
transform $-1 1 0 0 0 1 0 0 0 1 76.454969939268167 33.79703064300417 7.5515482085540562 1 rotate no_reflect no_shear #
lump $-1 $-1 $69 $15 #
transform $-1 1 0 0 0 1 0 0 0 1 76.454969939268167 33.79703064300417 7.5515482085540562 1 rotate no_reflect no_shear #
lump $-1 $-1 $70 $16 #
transform $-1 1 0 0 0 1 0 0 0 1 76.454969939268167 33.79703064300417 7.5515482085540562 1 rotate no_reflect no_shear #
lump $-1 $-1 $71 $17 #
transform $-1 1 0 0 0 1 0 0 0 1 76.454969939268167 33.79703064300417 7.5515482085540562 1 rotate no_reflect no_shear #
shell $-1 $-1 $-1 $72 $-1 $18 #
shell $-1 $-1 $-1 $73 $-1 $20 #
shell $-1 $-1 $-1 $74 $-1 $22 #
shell $-1 $-1 $-1 $75 $-1 $24 #
shell $-1 $-1 $-1 $76 $-1 $26 #
shell $-1 $-1 $-1 $77 $-1 $28 #
shell $-1 $-1 $-1 $78 $-1 $30 #
shell $-1 $-1 $-1 $79 $-1 $32 #
shell $-1 $-1 $-1 $80 $-1 $34 #
shell $-1 $-1 $-1 $81 $-1 $36 #
shell $-1 $-1 $-1 $82 $-1 $38 #
shell $-1 $-1 $-1 $83 $-1 $40 #
shell $-1 $-1 $-1 $84 $-1 $42 #
shell $-1 $-1 $-1 $85 $-1 $44 #
shell $-1 $-1 $-1 $86 $-1 $46 #
shell $-1 $-1 $-1 $87 $-1 $48 #
shell $-1 $-1 $-1 $88 $-1 $50 #
shell $-1 $-1 $-1 $89 $-1 $52 #
face $-1 $90 $91 $54 $-1 $92 forward single #
face $-1 $93 $94 $55 $-1 $95 forward single #
face $-1 $96 $97 $56 $-1 $98 reversed single #
face $-1 $99 $100 $57 $-1 $101 forward single #
face $-1 $102 $103 $58 $-1 $104 forward single #
face $-1 $105 $106 $59 $-1 $107 forward single #
face $-1 $108 $109 $60 $-1 $110 reversed single #
face $-1 $111 $112 $61 $-1 $113 forward single #
face $-1 $114 $115 $62 $-1 $116 forward single #
face $-1 $117 $118 $63 $-1 $119 reversed single #
face $-1 $120 $121 $64 $-1 $122 forward single #
face $-1 $123 $124 $65 $-1 $125 forward single #
face $-1 $126 $127 $66 $-1 $128 reversed single #
face $-1 $129 $130 $67 $-1 $131 forward single #
face $-1 $132 $133 $68 $-1 $134 forward single #
face $-1 $135 $136 $69 $-1 $137 reversed single #
face $-1 $138 $139 $70 $-1 $140 forward single #
face $-1 $141 $142 $71 $-1 $143 forward single #
face $-1 $144 $145 $54 $-1 $146 reversed single #
loop $-1 $-1 $147 $72 #
plane-surface $-1 0 0 7.5515482085540562 0 0 1 1 0 0 forward_v I I I I #
face $-1 $148 $149 $55 $-1 $150 reversed single #
loop $-1 $-1 $151 $73 #
plane-surface $-1 0 -33.79703064300417 0 0 1 0 0 0 1 forward_v I I I I #
face $-1 $152 $153 $56 $-1 $154 reversed single #
loop $-1 $-1 $155 $74 #
plane-surface $-1 -191.85756774429348 -26.228746284332459 101.31459912340652 0 1 0 -0.75470958851134928 0 0.65605901945558964 forward_v I I I I #
face $-1 $156 $157 $57 $-1 $158 forward single #
loop $-1 $159 $160 $75 #
cone-surface $-1 -72.747825685027522 -23.494566374815964 3.5281635317299607 0.75470958851134928 0 -0.65605901945558964 0.65605901945558964 0 0.75470958851134928 1 I I 0 1 1 forward I I I I #
face $-1 $161 $162 $58 $-1 $163 forward single #
loop $-1 $164 $165 $76 #
cone-surface $-1 -72.747825685027522 -19.393296510541219 3.5281635317299607 0.75470958851134928 0 -0.65605901945558964 0.65605901945558964 0 0.75470958851134928 1 I I 0 1 1 forward I I I I #
face $-1 $166 $167 $59 $-1 $168 forward single #
loop $-1 $169 $170 $77 #
cone-surface $-1 -72.747825685027522 -15.292026646266475 3.5281635317299607 0.75470958851134928 0 -0.65605901945558964 0.65605901945558964 0 0.75470958851134928 1 I I 0 1 1 forward I I I I #
face $-1 $171 $172 $60 $-1 $173 reversed single #
loop $-1 $-1 $174 $78 #
plane-surface $-1 27.809911114723164 -11.2223020524983 211.36290656792988 0 -1 0 -0.52991927123019833 0 -0.84804809178421925 forward_v I I I I #
face $-1 $175 $176 $61 $-1 $177 forward single #
loop $-1 $178 $179 $79 #
cone-surface $-1 70.628703825547817 -17.94219182277255 3.6082310050318869 -0.52991927123019833 0 -0.84804809178421925 0.84804809178421925 0 -0.52991927123019833 1 I I 0 1 1 forward I I I I #
face $-1 $180 $181 $62 $-1 $182 forward single #
loop $-1 $183 $184 $80 #
cone-surface $-1 70.628703825547817 -13.910257960608 3.6082310050318869 -0.52991927123019833 0 -0.84804809178421925 0.84804809178421925 0 -0.52991927123019833 1 I I 0 1 1 forward I I I I #
face $-1 $185 $186 $63 $-1 $187 reversed single #
loop $-1 $-1 $188 $81 #
plane-surface $-1 27.809911114723164 1.9179426615191204 211.36290656792988 0 -1 0 -0.52991927123019833 0 -0.84804809178421925 forward_v I I I I #
face $-1 $189 $190 $64 $-1 $191 forward single #
loop $-1 $192 $193 $82 #
cone-surface $-1 70.628703825547817 -4.8019471087551295 3.6082310050318869 -0.52991927123019833 0 -0.84804809178421925 0.84804809178421925 0 -0.52991927123019833 1 I I 0 1 1 forward I I I I #
face $-1 $194 $195 $65 $-1 $196 forward single #
loop $-1 $197 $198 $83 #
cone-surface $-1 70.628703825547817 -0.77001324659057957 3.6082310050318869 -0.52991927123019833 0 -0.84804809178421925 0.84804809178421925 0 -0.52991927123019833 1 I I 0 1 1 forward I I I I #
face $-1 $199 $200 $66 $-1 $201 reversed single #
loop $-1 $-1 $202 $84 #
plane-surface $-1 27.809911114723164 15.058187375536541 211.36290656792988 0 -1 0 -0.52991927123019833 0 -0.84804809178421925 forward_v I I I I #
face $-1 $203 $204 $67 $-1 $205 forward single #
loop $-1 $206 $207 $85 #
cone-surface $-1 70.628703825547817 8.3382976052622908 3.6082310050318869 -0.52991927123019833 0 -0.84804809178421925 0.84804809178421925 0 -0.52991927123019833 1 I I 0 1 1 forward I I I I #
face $-1 $208 $209 $68 $-1 $210 forward single #
loop $-1 $211 $212 $86 #
cone-surface $-1 70.628703825547817 12.370231467426841 3.6082310050318869 -0.52991927123019833 0 -0.84804809178421925 0.84804809178421925 0 -0.52991927123019833 1 I I 0 1 1 forward I I I I #
face $-1 $213 $214 $69 $-1 $215 reversed single #
loop $-1 $-1 $216 $87 #
plane-surface $-1 27.809911114723164 28.198432089553961 211.36290656792988 0 -1 0 -0.52991927123019833 0 -0.84804809178421925 forward_v I I I I #
face $-1 $217 $218 $70 $-1 $219 forward single #
loop $-1 $220 $221 $88 #
cone-surface $-1 70.628703825547817 21.478542319279711 3.6082310050318869 -0.52991927123019833 0 -0.84804809178421925 0.84804809178421925 0 -0.52991927123019833 1 I I 0 1 1 forward I I I I #
face $-1 $222 $223 $71 $-1 $224 forward single #
loop $-1 $225 $226 $89 #
cone-surface $-1 70.628703825547817 25.510476181444261 3.6082310050318869 -0.52991927123019833 0 -0.84804809178421925 0.84804809178421925 0 -0.52991927123019833 1 I I 0 1 1 forward I I I I #
face $-1 $227 $228 $54 $-1 $229 reversed single #
loop $-1 $-1 $230 $90 #
plane-surface $-1 0 0 -7.5515482085540562 0 0 1 1 0 0 forward_v I I I I #
coedge $-1 $231 $232 $233 $234 forward $91 $-1 #
face $-1 $235 $236 $55 $-1 $237 reversed single #
loop $-1 $-1 $238 $93 #
plane-surface $-1 0 0 -7.5515482085540562 0 0 1 1 0 0 forward_v I I I I #
coedge $-1 $239 $240 $241 $242 forward $94 $-1 #
face $-1 $243 $244 $56 $-1 $245 reversed single #
loop $-1 $-1 $246 $96 #
plane-surface $-1 -76.454969939268167 -19.393296510541219 0.99665390168081558 -0.75470958851134928 0 0.65605901945558964 0.65605901945558964 0 0.75470958851134928 forward_v I I I I #
coedge $-1 $247 $248 $249 $250 reversed $97 $-1 #
face $-1 $-1 $251 $57 $-1 $252 forward single #
loop $-1 $253 $254 $99 #
cone-surface $-1 -71.512367908210763 -23.494566374815964 2.4541964986146887 0.75470958851134928 0 -0.65605901945558964 0.32802950972779482 0 0.37735479425567464 1 I I -0.70710678118654746 0.70710678118654746 0.5 forward I I I I #
loop $-1 $-1 $255 $75 #
coedge $-1 $160 $160 $256 $257 reversed $100 $-1 #
face $-1 $-1 $258 $58 $-1 $259 forward single #
loop $-1 $260 $261 $102 #
cone-surface $-1 -71.512367908210763 -19.393296510541219 2.4541964986146887 0.75470958851134928 0 -0.65605901945558964 0.32802950972779482 0 0.37735479425567464 1 I I -0.70710678118654746 0.70710678118654746 0.5 forward I I I I #
loop $-1 $-1 $262 $76 #
coedge $-1 $165 $165 $263 $264 reversed $103 $-1 #
face $-1 $-1 $265 $59 $-1 $266 forward single #
loop $-1 $267 $268 $105 #
cone-surface $-1 -71.512367908210763 -15.292026646266475 2.4541964986146887 0.75470958851134928 0 -0.65605901945558964 0.32802950972779482 0 0.37735479425567464 1 I I -0.70710678118654746 0.70710678118654746 0.5 forward I I I I #
loop $-1 $-1 $269 $77 #
coedge $-1 $170 $170 $270 $271 reversed $106 $-1 #
face $-1 $272 $273 $60 $-1 $274 reversed single #
loop $-1 $-1 $275 $108 #
plane-surface $-1 -53.220012789564251 -15.926224891690275 81.687923839097465 0.52991927123019833 0 0.84804809178421925 0.84804809178421925 0 -0.52991927123019833 forward_v I I I I #
coedge $-1 $276 $277 $278 $279 reversed $109 $-1 #
face $-1 $-1 $280 $61 $-1 $281 forward single #
loop $-1 $282 $283 $111 #
cone-surface $-1 70.053469639983476 -17.94219182277255 2.6876638924896064 -0.52991927123019833 0 -0.84804809178421925 0.42402404589210962 0 -0.26495963561509916 1 I I -0.70710678118654746 0.70710678118654746 0.5 forward I I I I #
loop $-1 $-1 $284 $79 #
coedge $-1 $179 $179 $285 $286 reversed $112 $-1 #
face $-1 $-1 $287 $62 $-1 $288 forward single #
loop $-1 $289 $290 $114 #
cone-surface $-1 70.053469639983476 -13.910257960608 2.6876638924896064 -0.52991927123019833 0 -0.84804809178421925 0.42402404589210962 0 -0.26495963561509916 1 I I -0.70710678118654746 0.70710678118654746 0.5 forward I I I I #
loop $-1 $-1 $291 $80 #
coedge $-1 $184 $184 $292 $293 reversed $115 $-1 #
face $-1 $294 $295 $63 $-1 $296 reversed single #
loop $-1 $-1 $297 $117 #
plane-surface $-1 -53.220012789564251 -2.7859801776728546 81.687923839097465 0.52991927123019833 0 0.84804809178421925 0.84804809178421925 0 -0.52991927123019833 forward_v I I I I #
coedge $-1 $298 $299 $300 $301 reversed $118 $-1 #
face $-1 $-1 $302 $64 $-1 $303 forward single #
loop $-1 $304 $305 $120 #
cone-surface $-1 70.053469639983476 -4.8019471087551295 2.6876638924896064 -0.52991927123019833 0 -0.84804809178421925 0.42402404589210962 0 -0.26495963561509916 1 I I -0.70710678118654746 0.70710678118654746 0.5 forward I I I I #
loop $-1 $-1 $306 $82 #
coedge $-1 $193 $193 $307 $308 reversed $121 $-1 #
face $-1 $-1 $309 $65 $-1 $310 forward single #
loop $-1 $311 $312 $123 #
cone-surface $-1 70.053469639983476 -0.77001324659057957 2.6876638924896064 -0.52991927123019833 0 -0.84804809178421925 0.42402404589210962 0 -0.26495963561509916 1 I I -0.70710678118654746 0.70710678118654746 0.5 forward I I I I #
loop $-1 $-1 $313 $83 #
coedge $-1 $198 $198 $314 $315 reversed $124 $-1 #
face $-1 $316 $317 $66 $-1 $318 reversed single #
loop $-1 $-1 $319 $126 #
plane-surface $-1 -53.220012789564251 10.354264536344566 81.687923839097465 0.52991927123019833 0 0.84804809178421925 0.84804809178421925 0 -0.52991927123019833 forward_v I I I I #
coedge $-1 $320 $321 $322 $323 reversed $127 $-1 #
face $-1 $-1 $324 $67 $-1 $325 forward single #
loop $-1 $326 $327 $129 #
cone-surface $-1 70.053469639983476 8.3382976052622908 2.6876638924896064 -0.52991927123019833 0 -0.84804809178421925 0.42402404589210962 0 -0.26495963561509916 1 I I -0.70710678118654746 0.70710678118654746 0.5 forward I I I I #
loop $-1 $-1 $328 $85 #
coedge $-1 $207 $207 $329 $330 reversed $130 $-1 #
face $-1 $-1 $331 $68 $-1 $332 forward single #
loop $-1 $333 $334 $132 #
cone-surface $-1 70.053469639983476 12.370231467426841 2.6876638924896064 -0.52991927123019833 0 -0.84804809178421925 0.42402404589210962 0 -0.26495963561509916 1 I I -0.70710678118654746 0.70710678118654746 0.5 forward I I I I #
loop $-1 $-1 $335 $86 #
coedge $-1 $212 $212 $336 $337 reversed $133 $-1 #
face $-1 $338 $339 $69 $-1 $340 reversed single #
loop $-1 $-1 $341 $135 #
plane-surface $-1 -53.220012789564251 23.494509250361986 81.687923839097465 0.52991927123019833 0 0.84804809178421925 0.84804809178421925 0 -0.52991927123019833 forward_v I I I I #
coedge $-1 $342 $343 $344 $345 reversed $136 $-1 #
face $-1 $-1 $346 $70 $-1 $347 forward single #
loop $-1 $348 $349 $138 #
cone-surface $-1 70.053469639983476 21.478542319279711 2.6876638924896064 -0.52991927123019833 0 -0.84804809178421925 0.42402404589210962 0 -0.26495963561509916 1 I I -0.70710678118654746 0.70710678118654746 0.5 forward I I I I #
loop $-1 $-1 $350 $88 #
coedge $-1 $221 $221 $351 $352 reversed $139 $-1 #
face $-1 $-1 $353 $71 $-1 $354 forward single #
loop $-1 $355 $356 $141 #
cone-surface $-1 70.053469639983476 25.510476181444261 2.6876638924896064 -0.52991927123019833 0 -0.84804809178421925 0.42402404589210962 0 -0.26495963561509916 1 I I -0.70710678118654746 0.70710678118654746 0.5 forward I I I I #
loop $-1 $-1 $357 $89 #
coedge $-1 $226 $226 $358 $359 reversed $142 $-1 #
face $-1 $360 $361 $54 $-1 $362 reversed single #
loop $-1 $-1 $363 $144 #
plane-surface $-1 0 -33.79703064300417 0 0 1 0 0 0 1 forward_v I I I I #
coedge $-1 $364 $365 $366 $367 forward $145 $-1 #
coedge $-1 $368 $147 $369 $370 forward $91 $-1 #
coedge $-1 $147 $368 $371 $372 forward $91 $-1 #
coedge $-1 $373 $374 $147 $234 reversed $375 $-1 #
edge $-1 $376 -33.79703064300417 $377 33.79703064300417 $233 $378 forward 7 unknown #
face $-1 $379 $380 $55 $-1 $381 forward single #
loop $-1 $-1 $382 $148 #
plane-surface $-1 76.454969939268167 0 0 -1 0 0 0 0 1 forward_v I I I I #
coedge $-1 $383 $384 $385 $386 forward $149 $-1 #
coedge $-1 $385 $151 $382 $387 reversed $94 $-1 #
coedge $-1 $151 $385 $388 $389 reversed $94 $-1 #
coedge $-1 $390 $391 $151 $242 reversed $380 $-1 #
edge $-1 $392 -76.454969939268167 $393 76.454969939268167 $241 $394 forward 7 unknown #
face $-1 $395 $396 $56 $-1 $397 forward single #
loop $-1 $-1 $398 $152 #
plane-surface $-1 -191.85756774429348 -12.55784673674998 101.31459912340652 0 -1 0 0.75470958851134928 0 -0.65605901945558964 forward_v I I I I #
coedge $-1 $399 $400 $401 $402 reversed $153 $-1 #
coedge $-1 $248 $155 $403 $404 reversed $97 $-1 #
coedge $-1 $155 $247 $399 $405 reversed $97 $-1 #
coedge $-1 $401 $406 $155 $250 forward $396 $-1 #
edge $-1 $407 19.473813932878571 $408 25.17189647623772 $249 $409 forward 7 unknown #
loop $-1 $-1 $256 $156 #
plane-surface $-1 -76.454969939268167 -19.393296510541219 0.99665390168081558 -0.75470958851134928 0 0.65605901945558964 0.65605901945558964 0 0.75470958851134928 forward_v I I I I #
loop $-1 $-1 $410 $99 #
coedge $-1 $254 $254 $255 $411 reversed $157 $-1 #
coedge $-1 $255 $255 $254 $411 forward $159 $-1 #
coedge $-1 $256 $256 $160 $257 forward $251 $-1 #
edge $-1 $412 0 $412 6.2831853071796004 $256 $413 forward 7 unknown #
loop $-1 $-1 $263 $161 #
plane-surface $-1 -76.454969939268167 -19.393296510541219 0.99665390168081558 -0.75470958851134928 0 0.65605901945558964 0.65605901945558964 0 0.75470958851134928 forward_v I I I I #
loop $-1 $-1 $414 $102 #
coedge $-1 $261 $261 $262 $415 reversed $162 $-1 #
coedge $-1 $262 $262 $261 $415 forward $164 $-1 #
coedge $-1 $263 $263 $165 $264 forward $258 $-1 #
edge $-1 $416 0 $416 6.2831853071796004 $263 $417 forward 7 unknown #
loop $-1 $-1 $270 $166 #
plane-surface $-1 -76.454969939268167 -19.393296510541219 0.99665390168081558 -0.75470958851134928 0 0.65605901945558964 0.65605901945558964 0 0.75470958851134928 forward_v I I I I #
loop $-1 $-1 $418 $105 #
coedge $-1 $268 $268 $269 $419 reversed $167 $-1 #
coedge $-1 $269 $269 $268 $419 forward $169 $-1 #
coedge $-1 $270 $270 $170 $271 forward $265 $-1 #
edge $-1 $420 0 $420 6.2831853071796004 $270 $421 forward 7 unknown #
face $-1 $422 $423 $60 $-1 $424 reversed single #
loop $-1 $-1 $425 $171 #
plane-surface $-1 27.809911114723164 -20.63014773088225 211.36290656792988 0 1 0 0.52991927123019833 0 0.84804809178421925 forward_v I I I I #
coedge $-1 $426 $427 $428 $429 reversed $172 $-1 #
coedge $-1 $277 $174 $430 $431 reversed $109 $-1 #
coedge $-1 $174 $276 $426 $432 reversed $109 $-1 #
coedge $-1 $428 $433 $174 $279 forward $434 $-1 #
edge $-1 $435 -62.550014381906585 $436 -51.518031254364409 $278 $437 forward 7 unknown #
loop $-1 $-1 $285 $175 #
plane-surface $-1 -53.220012789564251 -15.926224891690275 81.687923839097465 0.52991927123019833 0 0.84804809178421925 0.84804809178421925 0 -0.52991927123019833 forward_v I I I I #
loop $-1 $-1 $438 $111 #
coedge $-1 $283 $283 $284 $439 reversed $176 $-1 #
coedge $-1 $284 $284 $283 $439 forward $178 $-1 #
coedge $-1 $285 $285 $179 $286 forward $280 $-1 #
edge $-1 $440 0 $440 6.2831853071796004 $285 $441 forward 7 unknown #
loop $-1 $-1 $292 $180 #
plane-surface $-1 -53.220012789564251 -15.926224891690275 81.687923839097465 0.52991927123019833 0 0.84804809178421925 0.84804809178421925 0 -0.52991927123019833 forward_v I I I I #
loop $-1 $-1 $442 $114 #
coedge $-1 $290 $290 $291 $443 reversed $181 $-1 #
coedge $-1 $291 $291 $290 $443 forward $183 $-1 #
coedge $-1 $292 $292 $184 $293 forward $287 $-1 #
edge $-1 $444 0 $444 6.2831853071796004 $292 $445 forward 7 unknown #
face $-1 $446 $447 $63 $-1 $448 reversed single #
loop $-1 $-1 $449 $185 #
plane-surface $-1 27.809911114723164 -7.4899030168648295 211.36290656792988 0 1 0 0.52991927123019833 0 0.84804809178421925 forward_v I I I I #
coedge $-1 $450 $451 $452 $453 reversed $186 $-1 #
coedge $-1 $299 $188 $454 $455 reversed $118 $-1 #
coedge $-1 $188 $298 $450 $456 reversed $118 $-1 #
coedge $-1 $452 $457 $188 $301 forward $458 $-1 #
edge $-1 $459 -62.550014381906585 $460 -51.518031254364409 $300 $461 forward 7 unknown #
loop $-1 $-1 $307 $189 #
plane-surface $-1 -53.220012789564251 -2.7859801776728546 81.687923839097465 0.52991927123019833 0 0.84804809178421925 0.84804809178421925 0 -0.52991927123019833 forward_v I I I I #
loop $-1 $-1 $462 $120 #
coedge $-1 $305 $305 $306 $463 reversed $190 $-1 #
coedge $-1 $306 $306 $305 $463 forward $192 $-1 #
coedge $-1 $307 $307 $193 $308 forward $302 $-1 #
edge $-1 $464 0 $464 6.2831853071796004 $307 $465 forward 7 unknown #
loop $-1 $-1 $314 $194 #
plane-surface $-1 -53.220012789564251 -2.7859801776728546 81.687923839097465 0.52991927123019833 0 0.84804809178421925 0.84804809178421925 0 -0.52991927123019833 forward_v I I I I #
loop $-1 $-1 $466 $123 #
coedge $-1 $312 $312 $313 $467 reversed $195 $-1 #
coedge $-1 $313 $313 $312 $467 forward $197 $-1 #
coedge $-1 $314 $314 $198 $315 forward $309 $-1 #
edge $-1 $468 0 $468 6.2831853071796004 $314 $469 forward 7 unknown #
face $-1 $470 $471 $66 $-1 $472 reversed single #
loop $-1 $-1 $473 $199 #
plane-surface $-1 27.809911114723164 5.6503416971525908 211.36290656792988 0 1 0 0.52991927123019833 0 0.84804809178421925 forward_v I I I I #
coedge $-1 $474 $475 $476 $477 reversed $200 $-1 #
coedge $-1 $321 $202 $478 $479 reversed $127 $-1 #
coedge $-1 $202 $320 $474 $480 reversed $127 $-1 #
coedge $-1 $476 $481 $202 $323 forward $482 $-1 #
edge $-1 $483 -62.550014381906585 $484 -51.518031254364409 $322 $485 forward 7 unknown #
loop $-1 $-1 $329 $203 #
plane-surface $-1 -53.220012789564251 10.354264536344566 81.687923839097465 0.52991927123019833 0 0.84804809178421925 0.84804809178421925 0 -0.52991927123019833 forward_v I I I I #
loop $-1 $-1 $486 $129 #
coedge $-1 $327 $327 $328 $487 reversed $204 $-1 #
coedge $-1 $328 $328 $327 $487 forward $206 $-1 #
coedge $-1 $329 $329 $207 $330 forward $324 $-1 #
edge $-1 $488 0 $488 6.2831853071796004 $329 $489 forward 7 unknown #
loop $-1 $-1 $336 $208 #
plane-surface $-1 -53.220012789564251 10.354264536344566 81.687923839097465 0.52991927123019833 0 0.84804809178421925 0.84804809178421925 0 -0.52991927123019833 forward_v I I I I #
loop $-1 $-1 $490 $132 #
coedge $-1 $334 $334 $335 $491 reversed $209 $-1 #
coedge $-1 $335 $335 $334 $491 forward $211 $-1 #
coedge $-1 $336 $336 $212 $337 forward $331 $-1 #
edge $-1 $492 0 $492 6.2831853071796004 $336 $493 forward 7 unknown #
face $-1 $494 $495 $69 $-1 $496 reversed single #
loop $-1 $-1 $497 $213 #
plane-surface $-1 27.809911114723164 18.790586411170011 211.36290656792988 0 1 0 0.52991927123019833 0 0.84804809178421925 forward_v I I I I #
coedge $-1 $498 $499 $500 $501 reversed $214 $-1 #
coedge $-1 $343 $216 $502 $503 reversed $136 $-1 #
coedge $-1 $216 $342 $498 $504 reversed $136 $-1 #
coedge $-1 $500 $505 $216 $345 forward $506 $-1 #
edge $-1 $507 -62.550014381906585 $508 -51.518031254364409 $344 $509 forward 7 unknown #
loop $-1 $-1 $351 $217 #
plane-surface $-1 -53.220012789564251 23.494509250361986 81.687923839097465 0.52991927123019833 0 0.84804809178421925 0.84804809178421925 0 -0.52991927123019833 forward_v I I I I #
loop $-1 $-1 $510 $138 #
coedge $-1 $349 $349 $350 $511 reversed $218 $-1 #
coedge $-1 $350 $350 $349 $511 forward $220 $-1 #
coedge $-1 $351 $351 $221 $352 forward $346 $-1 #
edge $-1 $512 0 $512 6.2831853071796004 $351 $513 forward 7 unknown #
loop $-1 $-1 $358 $222 #
plane-surface $-1 -53.220012789564251 23.494509250361986 81.687923839097465 0.52991927123019833 0 0.84804809178421925 0.84804809178421925 0 -0.52991927123019833 forward_v I I I I #
loop $-1 $-1 $514 $141 #
coedge $-1 $356 $356 $357 $515 reversed $223 $-1 #
coedge $-1 $357 $357 $356 $515 forward $225 $-1 #
coedge $-1 $358 $358 $226 $359 forward $353 $-1 #
edge $-1 $516 0 $516 6.2831853071796004 $358 $517 forward 7 unknown #
face $-1 $518 $519 $54 $-1 $520 reversed single #
loop $-1 $-1 $521 $227 #
plane-surface $-1 -76.454969939268167 0 0 1 0 0 0 0 -1 forward_v I I I I #
coedge $-1 $371 $522 $373 $523 reversed $228 $-1 #
coedge $-1 $524 $230 $522 $525 forward $145 $-1 #
coedge $-1 $230 $524 $526 $527 forward $145 $-1 #
coedge $-1 $374 $373 $230 $367 reversed $375 $-1 #
edge $-1 $528 -33.79703064300417 $529 33.79703064300417 $366 $530 forward 7 unknown #
coedge $-1 $232 $231 $531 $532 forward $91 $-1 #
coedge $-1 $533 $534 $231 $370 reversed $519 $-1 #
edge $-1 $377 -76.454969939268167 $535 76.454969939268167 $369 $536 forward 7 unknown #
coedge $-1 $537 $363 $232 $372 reversed $228 $-1 #
edge $-1 $538 -76.454969939268167 $376 76.454969939268167 $371 $539 forward 7 unknown #
coedge $-1 $366 $233 $363 $523 forward $375 $-1 #
coedge $-1 $233 $366 $533 $540 reversed $375 $-1 #
loop $-1 $-1 $373 $518 #
vertex $-1 $234 $541 #
vertex $-1 $234 $542 #
straight-curve $-1 76.454969939268167 0 7.5515482085540562 0 1 0 I I #
face $-1 $543 $544 $55 $-1 $545 reversed single #
loop $-1 $-1 $391 $235 #
plane-surface $-1 0 -37.581172822340022 -3.7488791893950353 0 0 1 1 0 0 forward_v I I I I #
coedge $-1 $546 $547 $239 $387 forward $236 $-1 #
coedge $-1 $548 $238 $547 $549 forward $149 $-1 #
coedge $-1 $238 $548 $550 $551 forward $149 $-1 #
coedge $-1 $240 $239 $238 $386 reversed $94 $-1 #
edge $-1 $552 -76.454969939268167 $553 76.454969939268167 $238 $554 forward 7 unknown #
edge $-1 $553 -7.5515482085540562 $393 -3.7488791893950353 $382 $555 forward 7 unknown #
coedge $-1 $550 $556 $240 $389 forward $557 $-1 #
edge $-1 $392 3.7488791893950353 $552 7.5515482085540562 $388 $558 forward 7 unknown #
coedge $-1 $559 $241 $556 $560 forward $380 $-1 #
coedge $-1 $241 $559 $546 $561 forward $380 $-1 #
vertex $-1 $389 $562 #
vertex $-1 $561 $563 #
straight-curve $-1 0 -33.79703064300417 -3.7488791893950353 1 0 0 I I #
face $-1 $-1 $564 $56 $-1 $565 reversed single #
loop $-1 $-1 $249 $243 #
plane-surface $-1 0 0 7.5515482085540562 0 0 1 1 0 0 forward_v I I I I #
coedge $-1 $566 $567 $568 $569 reversed $244 $-1 #
coedge $-1 $570 $246 $248 $405 forward $153 $-1 #
coedge $-1 $246 $570 $566 $571 forward $153 $-1 #
coedge $-1 $568 $249 $246 $402 forward $396 $-1 #
edge $-1 $408 -16.532098029061849 $572 -2.8611984814793701 $401 $573 forward 7 unknown #
coedge $-1 $574 $575 $247 $404 forward $564 $-1 #
edge $-1 $576 -49.660645660022446 $407 -43.105751353149202 $403 $577 forward 7 unknown #
edge $-1 $408 -8.6853200312489083 $576 0 $248 $578 forward 7 unknown #
coedge $-1 $249 $568 $574 $579 forward $396 $-1 #
vertex $-1 $404 $580 #
vertex $-1 $250 $581 #
straight-curve $-1 -95.928783872146738 -26.228746284332459 7.5515482085540526 1 0 0 I I #
coedge $-1 $410 $410 $-1 $582 reversed $253 $-1 #
edge $-1 $583 0 $583 6.2831853071796004 $254 $584 forward 7 unknown #
vertex $-1 $257 $585 #
ellipse-curve $-1 -73.6059286675886 -23.494566374815964 4.2741010551174341 -0.75470958851134928 0 0.65605901945558964 0.65605901945558964 0 0.75470958851134928 1 I I #
coedge $-1 $414 $414 $-1 $586 reversed $260 $-1 #
edge $-1 $587 0 $587 6.2831853071796004 $261 $588 forward 7 unknown #
vertex $-1 $264 $589 #
ellipse-curve $-1 -73.6059286675886 -19.393296510541219 4.2741010551174341 -0.75470958851134928 0 0.65605901945558964 0.65605901945558964 0 0.75470958851134928 1 I I #
coedge $-1 $418 $418 $-1 $590 reversed $267 $-1 #
edge $-1 $591 0 $591 6.2831853071796004 $268 $592 forward 7 unknown #
vertex $-1 $271 $593 #
ellipse-curve $-1 -73.6059286675886 -15.292026646266475 4.2741010551174341 -0.75470958851134928 0 0.65605901945558964 0.65605901945558964 0 0.75470958851134928 1 I I #
face $-1 $-1 $434 $60 $-1 $594 forward single #
loop $-1 $-1 $595 $272 #
plane-surface $-1 76.454969939268167 0 0 -1 0 0 0 0 1 forward_v I I I I #
coedge $-1 $596 $597 $598 $599 reversed $273 $-1 #
coedge $-1 $600 $275 $277 $432 forward $172 $-1 #
coedge $-1 $275 $600 $596 $601 forward $172 $-1 #
coedge $-1 $598 $278 $275 $429 forward $434 $-1 #
edge $-1 $436 3.2591896066531625 $602 12.667035285037112 $428 $603 forward 7 unknown #
coedge $-1 $604 $605 $276 $431 forward $423 $-1 #
edge $-1 $606 -105.02345334915489 $435 -98.129905075410889 $430 $607 forward 7 unknown #
edge $-1 $436 139.9012635612159 $606 152.90993987853633 $277 $608 forward 7 unknown #
coedge $-1 $278 $598 $604 $609 forward $434 $-1 #
loop $-1 $-1 $598 $422 #
vertex $-1 $431 $610 #
vertex $-1 $279 $611 #
straight-curve $-1 13.904955557361582 -11.2223020524983 7.5515482085540526 -1 0 0 I I #
coedge $-1 $438 $438 $-1 $612 reversed $282 $-1 #
edge $-1 $613 0 $613 6.2831853071796004 $283 $614 forward 7 unknown #
vertex $-1 $286 $615 #
ellipse-curve $-1 70.938978375497072 -17.94219182277255 4.1047740716820673 0.52991927123019833 0 0.84804809178421925 0.84804809178421925 0 -0.52991927123019833 1 I I #
coedge $-1 $442 $442 $-1 $616 reversed $289 $-1 #
edge $-1 $617 0 $617 6.2831853071796004 $290 $618 forward 7 unknown #
vertex $-1 $293 $619 #
ellipse-curve $-1 70.938978375497072 -13.910257960608 4.1047740716820673 0.52991927123019833 0 0.84804809178421925 0.84804809178421925 0 -0.52991927123019833 1 I I #
face $-1 $-1 $458 $63 $-1 $620 forward single #
loop $-1 $-1 $621 $294 #
plane-surface $-1 76.454969939268167 0 0 -1 0 0 0 0 1 forward_v I I I I #
coedge $-1 $622 $623 $624 $625 reversed $295 $-1 #
coedge $-1 $626 $297 $299 $456 forward $186 $-1 #
coedge $-1 $297 $626 $622 $627 forward $186 $-1 #
coedge $-1 $624 $300 $297 $453 forward $458 $-1 #
edge $-1 $460 -3.3109327503555477 $628 6.0969129280284022 $452 $629 forward 7 unknown #
coedge $-1 $630 $631 $298 $455 forward $447 $-1 #
edge $-1 $632 -105.02345334915489 $459 -98.129905075410889 $454 $633 forward 7 unknown #
edge $-1 $460 139.9012635612159 $632 152.90993987853633 $299 $634 forward 7 unknown #
coedge $-1 $300 $624 $630 $635 forward $458 $-1 #
loop $-1 $-1 $624 $446 #
vertex $-1 $455 $636 #
vertex $-1 $301 $637 #
straight-curve $-1 13.904955557361582 1.9179426615191204 7.5515482085540526 -1 0 0 I I #
coedge $-1 $462 $462 $-1 $638 reversed $304 $-1 #
edge $-1 $639 0 $639 6.2831853071796004 $305 $640 forward 7 unknown #
vertex $-1 $308 $641 #
ellipse-curve $-1 70.938978375497072 -4.8019471087551295 4.1047740716820673 0.52991927123019833 0 0.84804809178421925 0.84804809178421925 0 -0.52991927123019833 1 I I #
coedge $-1 $466 $466 $-1 $642 reversed $311 $-1 #
edge $-1 $643 0 $643 6.2831853071796004 $312 $644 forward 7 unknown #
vertex $-1 $315 $645 #
ellipse-curve $-1 70.938978375497072 -0.77001324659057957 4.1047740716820673 0.52991927123019833 0 0.84804809178421925 0.84804809178421925 0 -0.52991927123019833 1 I I #
face $-1 $-1 $482 $66 $-1 $646 forward single #
loop $-1 $-1 $647 $316 #
plane-surface $-1 76.454969939268167 0 0 -1 0 0 0 0 1 forward_v I I I I #
coedge $-1 $648 $649 $650 $651 reversed $317 $-1 #
coedge $-1 $652 $319 $321 $480 forward $200 $-1 #
coedge $-1 $319 $652 $648 $653 forward $200 $-1 #
coedge $-1 $650 $322 $319 $477 forward $482 $-1 #
edge $-1 $484 -9.8810551073642579 $654 -0.47320942898030793 $476 $655 forward 7 unknown #
coedge $-1 $656 $657 $320 $479 forward $471 $-1 #
edge $-1 $658 -105.02345334915489 $483 -98.129905075410889 $478 $659 forward 7 unknown #
edge $-1 $484 139.9012635612159 $658 152.90993987853633 $321 $660 forward 7 unknown #
coedge $-1 $322 $650 $656 $661 forward $482 $-1 #
loop $-1 $-1 $650 $470 #
vertex $-1 $479 $662 #
vertex $-1 $323 $663 #
straight-curve $-1 13.904955557361582 15.058187375536541 7.5515482085540526 -1 0 0 I I #
coedge $-1 $486 $486 $-1 $664 reversed $326 $-1 #
edge $-1 $665 0 $665 6.2831853071796004 $327 $666 forward 7 unknown #
vertex $-1 $330 $667 #
ellipse-curve $-1 70.938978375497072 8.3382976052622908 4.1047740716820673 0.52991927123019833 0 0.84804809178421925 0.84804809178421925 0 -0.52991927123019833 1 I I #
coedge $-1 $490 $490 $-1 $668 reversed $333 $-1 #
edge $-1 $669 0 $669 6.2831853071796004 $334 $670 forward 7 unknown #
vertex $-1 $337 $671 #
ellipse-curve $-1 70.938978375497072 12.370231467426841 4.1047740716820673 0.52991927123019833 0 0.84804809178421925 0.84804809178421925 0 -0.52991927123019833 1 I I #
face $-1 $-1 $506 $69 $-1 $672 forward single #
loop $-1 $-1 $673 $338 #
plane-surface $-1 76.454969939268167 0 0 -1 0 0 0 0 1 forward_v I I I I #
coedge $-1 $674 $675 $676 $677 reversed $339 $-1 #
coedge $-1 $678 $341 $343 $504 forward $214 $-1 #
coedge $-1 $341 $678 $674 $679 forward $214 $-1 #
coedge $-1 $676 $344 $341 $501 forward $506 $-1 #
edge $-1 $508 -16.451177464372968 $680 -7.0433317859890181 $500 $681 forward 7 unknown #
coedge $-1 $682 $683 $342 $503 forward $495 $-1 #
edge $-1 $684 -105.02345334915489 $507 -98.129905075410889 $502 $685 forward 7 unknown #
edge $-1 $508 139.9012635612159 $684 152.90993987853633 $343 $686 forward 7 unknown #
coedge $-1 $344 $676 $682 $687 forward $506 $-1 #
loop $-1 $-1 $676 $494 #
vertex $-1 $503 $688 #
vertex $-1 $345 $689 #
straight-curve $-1 13.904955557361582 28.198432089553961 7.5515482085540526 -1 0 0 I I #
coedge $-1 $510 $510 $-1 $690 reversed $348 $-1 #
edge $-1 $691 0 $691 6.2831853071796004 $349 $692 forward 7 unknown #
vertex $-1 $352 $693 #
ellipse-curve $-1 70.938978375497072 21.478542319279711 4.1047740716820673 0.52991927123019833 0 0.84804809178421925 0.84804809178421925 0 -0.52991927123019833 1 I I #
coedge $-1 $514 $514 $-1 $694 reversed $355 $-1 #
edge $-1 $695 0 $695 6.2831853071796004 $356 $696 forward 7 unknown #
vertex $-1 $359 $697 #
ellipse-curve $-1 70.938978375497072 25.510476181444261 4.1047740716820673 0.52991927123019833 0 0.84804809178421925 0.84804809178421925 0 -0.52991927123019833 1 I I #
face $-1 $-1 $375 $54 $-1 $698 reversed single #
loop $-1 $-1 $533 $360 #
plane-surface $-1 0 33.79703064300417 0 0 -1 0 0 0 -1 forward_v I I I I #
coedge $-1 $699 $531 $534 $700 forward $361 $-1 #
coedge $-1 $363 $537 $364 $525 reversed $228 $-1 #
edge $-1 $376 -7.5515482085540562 $529 7.5515482085540562 $373 $701 forward 7 unknown #
coedge $-1 $365 $364 $699 $702 forward $145 $-1 #
edge $-1 $529 -76.454969939268167 $703 76.454969939268167 $522 $704 forward 7 unknown #
coedge $-1 $534 $533 $365 $527 reversed $519 $-1 #
edge $-1 $705 -76.454969939268167 $528 76.454969939268167 $526 $706 forward 7 unknown #
vertex $-1 $367 $707 #
vertex $-1 $523 $708 #
straight-curve $-1 76.454969939268167 0 -7.5515482085540562 0 -1 0 I I #
coedge $-1 $521 $709 $368 $532 reversed $361 $-1 #
edge $-1 $535 -33.79703064300417 $538 33.79703064300417 $531 $710 forward 7 unknown #
coedge $-1 $526 $369 $374 $540 forward $519 $-1 #
coedge $-1 $369 $526 $521 $700 reversed $519 $-1 #
vertex $-1 $370 $711 #
straight-curve $-1 0 33.79703064300417 7.5515482085540562 -1 0 0 I I #
coedge $-1 $522 $371 $709 $712 forward $228 $-1 #
vertex $-1 $532 $713 #
straight-curve $-1 0 -33.79703064300417 7.5515482085540562 1 0 0 I I #
edge $-1 $377 -7.5515482085540562 $528 7.5515482085540562 $374 $714 forward 7 unknown #
point $-1 76.454969939268167 -33.79703064300417 7.5515482085540562 #
point $-1 76.454969939268167 33.79703064300417 7.5515482085540562 #
face $-1 $-1 $557 $55 $-1 $715 reversed single #
loop $-1 $-1 $716 $379 #
plane-surface $-1 0 -41.365315001675881 -5.6502136989745457 0 1 0 0 0 1 forward_v I I I I #
coedge $-1 $717 $382 $391 $561 reversed $236 $-1 #
coedge $-1 $382 $717 $383 $549 reversed $236 $-1 #
coedge $-1 $384 $383 $718 $719 forward $149 $-1 #
edge $-1 $553 33.79703064300417 $720 41.365315001675881 $547 $721 forward 7 unknown #
coedge $-1 $722 $388 $384 $551 reversed $557 $-1 #
edge $-1 $723 -41.365315001675881 $552 -33.79703064300417 $550 $724 forward 7 unknown #
vertex $-1 $389 $725 #
vertex $-1 $549 $726 #
straight-curve $-1 0 -33.79703064300417 -7.5515482085540562 1 0 0 I I #
straight-curve $-1 76.454969939268167 -33.79703064300417 0 0 0 1 I I #
coedge $-1 $388 $722 $390 $560 reversed $557 $-1 #
loop $-1 $-1 $388 $543 #
straight-curve $-1 -76.454969939268167 -33.79703064300417 0 0 0 -1 I I #
coedge $-1 $391 $390 $727 $728 forward $380 $-1 #
edge $-1 $392 -3.7841421793358592 $729 3.7841421793358592 $556 $730 forward 7 unknown #
edge $-1 $731 -3.7841421793358592 $393 3.7841421793358592 $546 $732 forward 7 unknown #
point $-1 -76.454969939268167 -33.797030643004163 -3.7488791893950353 #
point $-1 76.454969939268167 -33.797030643004163 -3.7488791893950353 #
loop $-1 $-1 $403 $395 #
plane-surface $-1 -76.454969939268167 0 0 1 0 0 0 0 -1 forward_v I I I I #
coedge $-1 $567 $398 $400 $571 reversed $244 $-1 #
coedge $-1 $398 $566 $733 $734 reversed $244 $-1 #
coedge $-1 $406 $401 $398 $569 forward $396 $-1 #
edge $-1 $572 -25.17189647623772 $735 -19.473813932878571 $568 $736 forward 7 unknown #
coedge $-1 $400 $399 $575 $737 reversed $153 $-1 #
edge $-1 $738 0 $572 8.6853200312489083 $566 $739 forward 7 unknown #
vertex $-1 $402 $740 #
straight-curve $-1 -70.756887395909018 -9.6966482552706097 7.5515482085540562 0 1 0 I I #
coedge $-1 $733 $403 $406 $579 reversed $564 $-1 #
coedge $-1 $403 $733 $570 $737 forward $564 $-1 #
vertex $-1 $404 $741 #
straight-curve $-1 -76.454969939268167 -26.228746284332459 50.657299561703262 0 0 1 I I #
straight-curve $-1 -76.454969939268167 -26.228746284332459 0.99665390168081558 -0.65605901945558964 0 -0.75470958851134928 I I #
edge $-1 $735 12.55784673674998 $407 26.228746284332459 $574 $742 forward 7 unknown #
point $-1 -76.454969939268167 -26.228746284332459 7.5515482085540562 #
point $-1 -70.756887395909018 -26.228746284332459 7.5515482085540571 #
edge $-1 $743 1 $743 0 $410 $-1 forward 7 unknown #
vertex $-1 $411 $744 #
ellipse-curve $-1 -71.889722702466443 -23.494566374815964 2.7822260083424837 -0.75470958851134928 0 0.65605901945558964 0.65605901945558964 0 0.75470958851134928 1 I I #
point $-1 -72.949869648133003 -23.494566374815964 5.0288106436287867 #
edge $-1 $745 1 $745 0 $414 $-1 forward 7 unknown #
vertex $-1 $415 $746 #
ellipse-curve $-1 -71.889722702466443 -19.393296510541219 2.7822260083424837 -0.75470958851134928 0 0.65605901945558964 0.65605901945558964 0 0.75470958851134928 1 I I #
point $-1 -72.949869648133003 -19.393296510541219 5.0288106436287867 #
edge $-1 $747 1 $747 0 $418 $-1 forward 7 unknown #
vertex $-1 $419 $748 #
ellipse-curve $-1 -71.889722702466443 -15.292026646266475 2.7822260083424837 -0.75470958851134928 0 0.65605901945558964 0.65605901945558964 0 0.75470958851134928 1 I I #
point $-1 -72.949869648133003 -15.292026646266475 5.0288106436287867 #
plane-surface $-1 0 0 7.5515482085540562 0 0 1 1 0 0 forward_v I I I I #
coedge $-1 $605 $604 $597 $749 forward $423 $-1 #
coedge $-1 $597 $425 $427 $601 reversed $273 $-1 #
coedge $-1 $425 $596 $595 $749 reversed $273 $-1 #
coedge $-1 $433 $428 $425 $599 forward $434 $-1 #
edge $-1 $602 51.518031254364409 $750 62.550014381906585 $598 $751 forward 7 unknown #
coedge $-1 $427 $426 $605 $752 reversed $172 $-1 #
edge $-1 $753 -152.90993987853633 $602 -139.9012635612159 $596 $754 forward 7 unknown #
vertex $-1 $429 $755 #
straight-curve $-1 65.422986811726005 -7.9631124458451374 7.5515482085540526 0 -1 0 I I #
coedge $-1 $595 $430 $433 $609 reversed $423 $-1 #
coedge $-1 $430 $595 $600 $752 forward $423 $-1 #
vertex $-1 $431 $756 #
straight-curve $-1 76.454969939268167 -11.2223020524983 105.68145328396494 0 0 1 I I #
straight-curve $-1 -53.220012789564251 -11.2223020524983 81.687923839097465 0.84804809178421925 0 -0.52991927123019833 I I #
edge $-1 $750 -20.63014773088225 $435 -11.2223020524983 $604 $757 forward 7 unknown #
point $-1 76.454969939268167 -11.2223020524983 7.5515482085540562 #
point $-1 65.422986811725991 -11.2223020524983 7.5515482085540526 #
edge $-1 $758 1 $758 0 $438 $-1 forward 7 unknown #
vertex $-1 $439 $759 #
ellipse-curve $-1 70.318429275598575 -17.94219182277255 3.1116879383817162 0.52991927123019833 0 0.84804809178421925 0.84804809178421925 0 -0.52991927123019833 1 I I #
point $-1 71.787026467281294 -17.94219182277255 3.5748548004518592 #
edge $-1 $760 1 $760 0 $442 $-1 forward 7 unknown #
vertex $-1 $443 $761 #
ellipse-curve $-1 70.318429275598575 -13.910257960608 3.1116879383817162 0.52991927123019833 0 0.84804809178421925 0.84804809178421925 0 -0.52991927123019833 1 I I #
point $-1 71.787026467281294 -13.910257960608 3.5748548004518592 #
plane-surface $-1 0 0 7.5515482085540562 0 0 1 1 0 0 forward_v I I I I #
coedge $-1 $631 $630 $623 $762 forward $447 $-1 #
coedge $-1 $623 $449 $451 $627 reversed $295 $-1 #
coedge $-1 $449 $622 $621 $762 reversed $295 $-1 #
coedge $-1 $457 $452 $449 $625 forward $458 $-1 #
edge $-1 $628 51.518031254364409 $763 62.550014381906585 $624 $764 forward 7 unknown #
coedge $-1 $451 $450 $631 $765 reversed $186 $-1 #
edge $-1 $766 -152.90993987853633 $628 -139.9012635612159 $622 $767 forward 7 unknown #
vertex $-1 $453 $768 #
straight-curve $-1 65.422986811726005 -1.3929900888364273 7.5515482085540526 0 -1 0 I I #
coedge $-1 $621 $454 $457 $635 reversed $447 $-1 #
coedge $-1 $454 $621 $626 $765 forward $447 $-1 #
vertex $-1 $455 $769 #
straight-curve $-1 76.454969939268167 1.9179426615191204 105.68145328396494 0 0 1 I I #
straight-curve $-1 -53.220012789564251 1.9179426615191204 81.687923839097465 0.84804809178421925 0 -0.52991927123019833 I I #
edge $-1 $763 -7.4899030168648295 $459 1.9179426615191204 $630 $770 forward 7 unknown #
point $-1 76.454969939268167 1.9179426615191204 7.5515482085540562 #
point $-1 65.422986811725991 1.9179426615191204 7.5515482085540526 #
edge $-1 $771 1 $771 0 $462 $-1 forward 7 unknown #
vertex $-1 $463 $772 #
ellipse-curve $-1 70.318429275598575 -4.8019471087551295 3.1116879383817162 0.52991927123019833 0 0.84804809178421925 0.84804809178421925 0 -0.52991927123019833 1 I I #
point $-1 71.787026467281294 -4.8019471087551295 3.5748548004518592 #
edge $-1 $773 1 $773 0 $466 $-1 forward 7 unknown #
vertex $-1 $467 $774 #
ellipse-curve $-1 70.318429275598575 -0.77001324659057957 3.1116879383817162 0.52991927123019833 0 0.84804809178421925 0.84804809178421925 0 -0.52991927123019833 1 I I #
point $-1 71.787026467281294 -0.77001324659057957 3.5748548004518592 #
plane-surface $-1 0 0 7.5515482085540562 0 0 1 1 0 0 forward_v I I I I #
coedge $-1 $657 $656 $649 $775 forward $471 $-1 #
coedge $-1 $649 $473 $475 $653 reversed $317 $-1 #
coedge $-1 $473 $648 $647 $775 reversed $317 $-1 #
coedge $-1 $481 $476 $473 $651 forward $482 $-1 #
edge $-1 $654 51.518031254364409 $776 62.550014381906585 $650 $777 forward 7 unknown #
coedge $-1 $475 $474 $657 $778 reversed $200 $-1 #
edge $-1 $779 -152.90993987853633 $654 -139.9012635612159 $648 $780 forward 7 unknown #
vertex $-1 $477 $781 #
straight-curve $-1 65.422986811726005 5.1771322681722829 7.5515482085540526 0 -1 0 I I #
coedge $-1 $647 $478 $481 $661 reversed $471 $-1 #
coedge $-1 $478 $647 $652 $778 forward $471 $-1 #
vertex $-1 $479 $782 #
straight-curve $-1 76.454969939268167 15.058187375536541 105.68145328396494 0 0 1 I I #
straight-curve $-1 -53.220012789564251 15.058187375536541 81.687923839097465 0.84804809178421925 0 -0.52991927123019833 I I #
edge $-1 $776 5.6503416971525908 $483 15.058187375536541 $656 $783 forward 7 unknown #
point $-1 76.454969939268167 15.058187375536541 7.5515482085540562 #
point $-1 65.422986811725991 15.058187375536541 7.5515482085540526 #
edge $-1 $784 1 $784 0 $486 $-1 forward 7 unknown #
vertex $-1 $487 $785 #
ellipse-curve $-1 70.318429275598575 8.3382976052622908 3.1116879383817162 0.52991927123019833 0 0.84804809178421925 0.84804809178421925 0 -0.52991927123019833 1 I I #
point $-1 71.787026467281294 8.3382976052622908 3.5748548004518592 #
edge $-1 $786 1 $786 0 $490 $-1 forward 7 unknown #
vertex $-1 $491 $787 #
ellipse-curve $-1 70.318429275598575 12.370231467426841 3.1116879383817162 0.52991927123019833 0 0.84804809178421925 0.84804809178421925 0 -0.52991927123019833 1 I I #
point $-1 71.787026467281294 12.370231467426841 3.5748548004518592 #
plane-surface $-1 0 0 7.5515482085540562 0 0 1 1 0 0 forward_v I I I I #
coedge $-1 $683 $682 $675 $788 forward $495 $-1 #
coedge $-1 $675 $497 $499 $679 reversed $339 $-1 #
coedge $-1 $497 $674 $673 $788 reversed $339 $-1 #
coedge $-1 $505 $500 $497 $677 forward $506 $-1 #
edge $-1 $680 51.518031254364409 $789 62.550014381906585 $676 $790 forward 7 unknown #
coedge $-1 $499 $498 $683 $791 reversed $214 $-1 #
edge $-1 $792 -152.90993987853633 $680 -139.9012635612159 $674 $793 forward 7 unknown #
vertex $-1 $501 $794 #
straight-curve $-1 65.422986811726005 11.747254625180993 7.5515482085540526 0 -1 0 I I #
coedge $-1 $673 $502 $505 $687 reversed $495 $-1 #
coedge $-1 $502 $673 $678 $791 forward $495 $-1 #
vertex $-1 $503 $795 #
straight-curve $-1 76.454969939268167 28.198432089553961 105.68145328396494 0 0 1 I I #
straight-curve $-1 -53.220012789564251 28.198432089553961 81.687923839097465 0.84804809178421925 0 -0.52991927123019833 I I #
edge $-1 $789 18.790586411170011 $507 28.198432089553961 $682 $796 forward 7 unknown #
point $-1 76.454969939268167 28.198432089553961 7.5515482085540562 #
point $-1 65.422986811725991 28.198432089553961 7.5515482085540526 #
edge $-1 $797 1 $797 0 $510 $-1 forward 7 unknown #
vertex $-1 $511 $798 #
ellipse-curve $-1 70.318429275598575 21.478542319279711 3.1116879383817162 0.52991927123019833 0 0.84804809178421925 0.84804809178421925 0 -0.52991927123019833 1 I I #
point $-1 71.787026467281294 21.478542319279711 3.5748548004518592 #
edge $-1 $799 1 $799 0 $514 $-1 forward 7 unknown #
vertex $-1 $515 $800 #
ellipse-curve $-1 70.318429275598575 25.510476181444261 3.1116879383817162 0.52991927123019833 0 0.84804809178421925 0.84804809178421925 0 -0.52991927123019833 1 I I #
point $-1 71.787026467281294 25.510476181444261 3.5748548004518592 #
plane-surface $-1 76.454969939268167 0 0 -1 0 0 0 0 1 forward_v I I I I #
coedge $-1 $709 $521 $524 $702 reversed $361 $-1 #
edge $-1 $535 -7.5515482085540562 $705 7.5515482085540562 $534 $801 forward 7 unknown #
straight-curve $-1 76.454969939268167 -33.79703064300417 0 0 0 -1 I I #
edge $-1 $703 -33.79703064300417 $705 33.79703064300417 $699 $802 forward 7 unknown #
vertex $-1 $702 $803 #
straight-curve $-1 0 -33.79703064300417 -7.5515482085540562 -1 0 0 I I #
vertex $-1 $527 $804 #
straight-curve $-1 0 33.79703064300417 -7.5515482085540562 1 0 0 I I #
point $-1 76.454969939268167 33.79703064300417 -7.5515482085540562 #
point $-1 76.454969939268167 -33.79703064300417 -7.5515482085540562 #
coedge $-1 $531 $699 $537 $712 reversed $361 $-1 #
straight-curve $-1 -76.454969939268167 0 7.5515482085540562 0 -1 0 I I #
point $-1 -76.454969939268167 33.79703064300417 7.5515482085540562 #
edge $-1 $538 -7.5515482085540562 $703 7.5515482085540562 $709 $805 forward 7 unknown #
point $-1 -76.454969939268167 -33.79703064300417 7.5515482085540562 #
straight-curve $-1 76.454969939268167 33.79703064300417 0 0 0 -1 I I #
plane-surface $-1 -76.454969939268167 0 0 1 0 0 0 0 -1 forward_v I I I I #
coedge $-1 $718 $727 $722 $806 forward $544 $-1 #
coedge $-1 $547 $546 $807 $808 forward $236 $-1 #
coedge $-1 $807 $716 $548 $719 reversed $544 $-1 #
edge $-1 $720 -76.454969939268167 $723 76.454969939268167 $718 $809 forward 7 unknown #
vertex $-1 $808 $810 #
straight-curve $-1 76.454969939268167 0 -7.5515482085540562 0 -1 0 I I #
coedge $-1 $556 $550 $716 $806 reversed $557 $-1 #
vertex $-1 $551 $811 #
straight-curve $-1 -76.454969939268167 0 -7.5515482085540562 0 1 0 I I #
point $-1 -76.454969939268167 -33.79703064300417 -7.5515482085540562 #
point $-1 76.454969939268167 -33.79703064300417 -7.5515482085540562 #
coedge $-1 $716 $807 $559 $728 reversed $544 $-1 #
edge $-1 $729 -76.454969939268167 $731 76.454969939268167 $727 $812 forward 7 unknown #
vertex $-1 $560 $813 #
straight-curve $-1 -76.454969939268167 -37.581172822340022 -3.7488791893950353 0 -1 0 I I #
vertex $-1 $561 $814 #
straight-curve $-1 76.454969939268167 -37.581172822340022 -3.7488791893950353 0 1 0 I I #
coedge $-1 $575 $574 $567 $734 forward $564 $-1 #
edge $-1 $735 43.105751353149202 $738 49.660645660022446 $733 $815 forward 7 unknown #
vertex $-1 $579 $816 #
straight-curve $-1 -95.928783872146738 -12.55784673674998 7.5515482085540526 -1 0 0 I I #
edge $-1 $738 2.8611984814793701 $576 16.532098029061849 $575 $817 forward 7 unknown #
vertex $-1 $737 $818 #
straight-curve $-1 -76.454969939268167 -12.55784673674998 0.99665390168081558 0.65605901945558964 0 0.75470958851134928 I I #
point $-1 -70.756887395909018 -12.55784673674998 7.5515482085540571 #
point $-1 -76.454969939268167 -26.228746284332459 0.99665390168081558 #
straight-curve $-1 -76.454969939268167 0 7.5515482085540562 0 -1 0 I I #
vertex $-1 $582 $819 #
point $-1 -71.233663683010846 -23.494566374815964 3.5369355968538327 #
vertex $-1 $586 $820 #
point $-1 -71.233663683010846 -19.393296510541219 3.5369355968538327 #
vertex $-1 $590 $821 #
point $-1 -71.233663683010846 -15.292026646266475 3.5369355968538327 #
edge $-1 $750 98.129905075410889 $753 105.02345334915489 $595 $822 forward 7 unknown #
vertex $-1 $609 $823 #
straight-curve $-1 13.904955557361582 -20.63014773088225 7.5515482085540526 1 0 0 I I #
edge $-1 $753 -12.667035285037112 $606 -3.2591896066531625 $605 $824 forward 7 unknown #
vertex $-1 $752 $825 #
straight-curve $-1 -53.220012789564251 -20.63014773088225 81.687923839097465 -0.84804809178421925 0 0.52991927123019833 I I #
point $-1 65.422986811725991 -20.63014773088225 7.5515482085540526 #
point $-1 76.454969939268167 -11.2223020524983 0.65799993481005004 #
straight-curve $-1 76.454969939268167 0 7.5515482085540562 0 1 0 I I #
vertex $-1 $612 $826 #
point $-1 71.166477367382797 -17.94219182277255 2.5817686671515174 #
vertex $-1 $616 $827 #
point $-1 71.166477367382797 -13.910257960608 2.5817686671515174 #
edge $-1 $763 98.129905075410889 $766 105.02345334915489 $621 $828 forward 7 unknown #
vertex $-1 $635 $829 #
straight-curve $-1 13.904955557361582 -7.4899030168648295 7.5515482085540526 1 0 0 I I #
edge $-1 $766 -6.0969129280284022 $632 3.3109327503555477 $631 $830 forward 7 unknown #
vertex $-1 $765 $831 #
straight-curve $-1 -53.220012789564251 -7.4899030168648295 81.687923839097465 -0.84804809178421925 0 0.52991927123019833 I I #
point $-1 65.422986811725991 -7.4899030168648295 7.5515482085540526 #
point $-1 76.454969939268167 1.9179426615191204 0.65799993481005004 #
straight-curve $-1 76.454969939268167 0 7.5515482085540562 0 1 0 I I #
vertex $-1 $638 $832 #
point $-1 71.166477367382797 -4.8019471087551295 2.5817686671515174 #
vertex $-1 $642 $833 #
point $-1 71.166477367382797 -0.77001324659057957 2.5817686671515174 #
edge $-1 $776 98.129905075410889 $779 105.02345334915489 $647 $834 forward 7 unknown #
vertex $-1 $661 $835 #
straight-curve $-1 13.904955557361582 5.6503416971525908 7.5515482085540526 1 0 0 I I #
edge $-1 $779 0.47320942898030793 $658 9.8810551073642579 $657 $836 forward 7 unknown #
vertex $-1 $778 $837 #
straight-curve $-1 -53.220012789564251 5.6503416971525908 81.687923839097465 -0.84804809178421925 0 0.52991927123019833 I I #
point $-1 65.422986811725991 5.6503416971525908 7.5515482085540526 #
point $-1 76.454969939268167 15.058187375536541 0.65799993481005004 #
straight-curve $-1 76.454969939268167 0 7.5515482085540562 0 1 0 I I #
vertex $-1 $664 $838 #
point $-1 71.166477367382797 8.3382976052622908 2.5817686671515174 #
vertex $-1 $668 $839 #
point $-1 71.166477367382797 12.370231467426841 2.5817686671515174 #
edge $-1 $789 98.129905075410889 $792 105.02345334915489 $673 $840 forward 7 unknown #
vertex $-1 $687 $841 #
straight-curve $-1 13.904955557361582 18.790586411170011 7.5515482085540526 1 0 0 I I #
edge $-1 $792 7.0433317859890181 $684 16.451177464372968 $683 $842 forward 7 unknown #
vertex $-1 $791 $843 #
straight-curve $-1 -53.220012789564251 18.790586411170011 81.687923839097465 -0.84804809178421925 0 0.52991927123019833 I I #
point $-1 65.422986811725991 18.790586411170011 7.5515482085540526 #
point $-1 76.454969939268167 28.198432089553961 0.65799993481005004 #
straight-curve $-1 76.454969939268167 0 7.5515482085540562 0 1 0 I I #
vertex $-1 $690 $844 #
point $-1 71.166477367382797 21.478542319279711 2.5817686671515174 #
vertex $-1 $694 $845 #
point $-1 71.166477367382797 25.510476181444261 2.5817686671515174 #
straight-curve $-1 -76.454969939268167 33.79703064300417 0 0 0 -1 I I #
straight-curve $-1 -76.454969939268167 0 -7.5515482085540562 0 1 0 I I #
point $-1 -76.454969939268167 -33.79703064300417 -7.5515482085540562 #
point $-1 -76.454969939268167 33.79703064300417 -7.5515482085540562 #
straight-curve $-1 -76.454969939268167 -33.79703064300417 0 0 0 -1 I I #
edge $-1 $729 -1.9013345095795104 $723 1.9013345095795104 $722 $846 forward 7 unknown #
coedge $-1 $727 $718 $717 $808 reversed $544 $-1 #
edge $-1 $731 -1.9013345095795104 $720 1.9013345095795104 $717 $847 forward 7 unknown #
straight-curve $-1 0 -41.365315001675881 -7.5515482085540562 -1 0 0 I I #
point $-1 76.454969939268167 -41.365315001675881 -7.5515482085540562 #
point $-1 -76.454969939268167 -41.365315001675881 -7.5515482085540562 #
straight-curve $-1 0 -41.365315001675881 -3.7488791893950353 1 0 0 I I #
point $-1 -76.454969939268167 -41.365315001675881 -3.7488791893950353 #
point $-1 76.454969939268167 -41.365315001675881 -3.7488791893950353 #
straight-curve $-1 -76.454969939268167 -12.55784673674998 50.657299561703262 0 0 -1 I I #
point $-1 -76.454969939268167 -12.55784673674998 7.5515482085540562 #
straight-curve $-1 -76.454969939268167 -9.6966482552706097 0.99665390168080992 0 -1 0 I I #
point $-1 -76.454969939268167 -12.55784673674998 0.99665390168081558 #
point $-1 -71.135013113955083 -23.494566374815964 2.1261669888868937 #
point $-1 -71.135013113955083 -19.393296510541219 2.1261669888868937 #
point $-1 -71.135013113955083 -15.292026646266475 2.1261669888868937 #
straight-curve $-1 76.454969939268167 -20.63014773088225 105.68145328396494 0 0 -1 I I #
point $-1 76.454969939268167 -20.63014773088225 7.5515482085540562 #
straight-curve $-1 76.454969939268182 -7.9631124458451374 0.65799993481004293 0 1 0 I I #
point $-1 76.454969939268167 -20.63014773088225 0.65799993481005004 #
point $-1 69.788510004368376 -17.94219182277255 2.2636398465974965 #
point $-1 69.788510004368376 -13.910257960608 2.2636398465974965 #
straight-curve $-1 76.454969939268167 -7.4899030168648295 105.68145328396494 0 0 -1 I I #
point $-1 76.454969939268167 -7.4899030168648295 7.5515482085540562 #
straight-curve $-1 76.454969939268182 -1.3929900888364273 0.65799993481004293 0 1 0 I I #
point $-1 76.454969939268167 -7.4899030168648295 0.65799993481005004 #
point $-1 69.788510004368376 -4.8019471087551295 2.2636398465974965 #
point $-1 69.788510004368376 -0.77001324659057957 2.2636398465974965 #
straight-curve $-1 76.454969939268167 5.6503416971525908 105.68145328396494 0 0 -1 I I #
point $-1 76.454969939268167 5.6503416971525908 7.5515482085540562 #
straight-curve $-1 76.454969939268182 5.1771322681722829 0.65799993481004293 0 1 0 I I #
point $-1 76.454969939268167 5.6503416971525908 0.65799993481005004 #
point $-1 69.788510004368376 8.3382976052622908 2.2636398465974965 #
point $-1 69.788510004368376 12.370231467426841 2.2636398465974965 #
straight-curve $-1 76.454969939268167 18.790586411170011 105.68145328396494 0 0 -1 I I #
point $-1 76.454969939268167 18.790586411170011 7.5515482085540562 #
straight-curve $-1 76.454969939268182 11.747254625180993 0.65799993481004293 0 1 0 I I #
point $-1 76.454969939268167 18.790586411170011 0.65799993481005004 #
point $-1 69.788510004368376 21.478542319279711 2.2636398465974965 #
point $-1 69.788510004368376 25.510476181444261 2.2636398465974965 #
straight-curve $-1 -76.454969939268167 -41.365315001675881 -5.6502136989745457 0 0 -1 I I #
straight-curve $-1 76.454969939268167 -41.365315001675881 -5.6502136989745457 0 0 -1 I I #
End-of-ACIS-data 