500 0 8 0           
7 Unknown 11 ACIS 5.0 NT 24 Fri Mar 26 18:50:13 1999 
-1 9.9999999999999995e-007 1e-010 
body $-1 $8 $-1 $9 #
body $-1 $10 $-1 $11 #
body $-1 $12 $-1 $13 #
body $-1 $14 $-1 $15 #
body $-1 $16 $-1 $17 #
body $-1 $18 $-1 $19 #
body $-1 $20 $-1 $21 #
body $-1 $22 $-1 $23 #
lump $-1 $-1 $24 $0 #
transform $-1 1 0 0 0 1 0 0 0 1 70.849330118717006 34.720647545193209 17.356509131916571 1 rotate no_reflect no_shear #
lump $-1 $-1 $25 $1 #
transform $-1 1 0 0 0 1 0 0 0 1 70.849330118717006 34.720647545193209 17.356509131916571 1 rotate no_reflect no_shear #
lump $-1 $-1 $26 $2 #
transform $-1 1 0 0 0 1 0 0 0 1 70.849330118717006 34.720647545193209 17.356509131916571 1 rotate no_reflect no_shear #
lump $-1 $-1 $27 $3 #
transform $-1 1 0 0 0 1 0 0 0 1 70.849330118717006 34.720647545193209 17.356509131916571 1 rotate no_reflect no_shear #
lump $-1 $-1 $28 $4 #
transform $-1 1 0 0 0 1 0 0 0 1 70.849330118717006 34.720647545193209 17.356509131916571 1 rotate no_reflect no_shear #
lump $-1 $-1 $29 $5 #
transform $-1 1 0 0 0 1 0 0 0 1 70.849330118717006 34.720647545193209 17.356509131916571 1 rotate no_reflect no_shear #
lump $-1 $-1 $30 $6 #
transform $-1 1 0 0 0 1 0 0 0 1 70.849330118717006 34.720647545193209 17.356509131916571 1 rotate no_reflect no_shear #
lump $-1 $-1 $31 $7 #
transform $-1 1 0 0 0 1 0 0 0 1 70.849330118717006 34.720647545193209 17.356509131916571 1 rotate no_reflect no_shear #
shell $-1 $-1 $-1 $32 $-1 $8 #
shell $-1 $-1 $-1 $33 $-1 $10 #
shell $-1 $-1 $-1 $34 $-1 $12 #
shell $-1 $-1 $-1 $35 $-1 $14 #
shell $-1 $-1 $-1 $36 $-1 $16 #
shell $-1 $-1 $-1 $37 $-1 $18 #
shell $-1 $-1 $-1 $38 $-1 $20 #
shell $-1 $-1 $-1 $39 $-1 $22 #
face $-1 $40 $41 $24 $-1 $42 forward single #
face $-1 $43 $44 $25 $-1 $45 forward single #
face $-1 $46 $47 $26 $-1 $48 reversed single #
face $-1 $49 $50 $27 $-1 $51 forward single #
face $-1 $52 $53 $28 $-1 $54 forward single #
face $-1 $55 $56 $29 $-1 $57 forward single #
face $-1 $58 $59 $30 $-1 $60 reversed single #
face $-1 $61 $62 $31 $-1 $63 forward single #
face $-1 $64 $65 $24 $-1 $66 reversed single #
loop $-1 $-1 $67 $32 #
plane-surface $-1 0 0 17.356509131916571 0 0 1 1 0 0 forward_v I I I I #
face $-1 $68 $69 $25 $-1 $70 reversed single #
loop $-1 $-1 $71 $33 #
plane-surface $-1 0 -34.720647545193209 0 0 1 0 0 0 1 forward_v I I I I #
face $-1 $72 $73 $26 $-1 $74 reversed single #
loop $-1 $-1 $75 $34 #
plane-surface $-1 -161.93147434801352 23.277121109441747 109.92059877371759 0 1 0 -0.64278761758704617 0 0.76604443648966558 forward_v I I I I #
face $-1 $76 $77 $27 $-1 $78 forward single #
loop $-1 $79 $80 $35 #
cone-surface $-1 -60.913788783308917 25.565826396592044 8.8745124737751055 0.64278761758704617 0 -0.76604443648966558 0.38302221824483279 0 0.32139380879352308 1 I I 0 1 0.5 forward I I I I #
face $-1 $81 $82 $28 $-1 $83 forward single #
loop $-1 $84 $85 $36 #
cone-surface $-1 -60.913788783308917 28.998884327317484 8.8745124737751055 0.64278761758704617 0 -0.76604443648966558 0.38302221824483279 0 0.32139380879352308 1 I I 0 1 0.5 forward I I I I #
face $-1 $86 $87 $29 $-1 $88 forward single #
loop $-1 $89 $90 $37 #
cone-surface $-1 -60.913788783308917 32.431942258042916 8.8745124737751055 0.64278761758704617 0 -0.76604443648966558 0.38302221824483279 0 0.32139380879352308 1 I I 0 1 0.5 forward I I I I #
face $-1 $91 $92 $30 $-1 $93 reversed single #
loop $-1 $-1 $94 $38 #
plane-surface $-1 81.33704828299912 -11.755290104842651 213.29720352724181 0 -1 0 -0.74314483375859142 0 -0.66913059716165679 forward_v I I I I #
face $-1 $95 $96 $31 $-1 $97 forward single #
loop $-1 $98 $99 $39 #
cone-surface $-1 68.140487024440546 -15.146318141049949 14.522175043147756 -0.74314483375859142 0 -0.66913059716165679 0.66913059716165679 0 -0.74314483375859142 1 I I 0 1 1 forward I I I I #
face $-1 $100 $101 $24 $-1 $102 reversed single #
loop $-1 $-1 $103 $40 #
plane-surface $-1 0 0 -17.356509131916571 0 0 1 1 0 0 forward_v I I I I #
coedge $-1 $104 $105 $106 $107 forward $41 $-1 #
face $-1 $108 $109 $25 $-1 $110 forward single #
loop $-1 $-1 $111 $43 #
plane-surface $-1 -70.849330118717006 0 0 1 0 0 0 0 -1 forward_v I I I I #
coedge $-1 $112 $113 $114 $115 forward $44 $-1 #
face $-1 $116 $117 $26 $-1 $118 forward single #
loop $-1 $-1 $119 $46 #
plane-surface $-1 -70.849330118717006 28.998884327317477 1.3731284407918594 -0.64278761758704617 0 0.76604443648966558 0.76604443648966558 0 0.64278761758704617 forward_v I I I I #
coedge $-1 $120 $121 $122 $123 reversed $47 $-1 #
face $-1 $-1 $124 $27 $-1 $125 forward single #
loop $-1 $126 $127 $49 #
cone-surface $-1 -60.341676024246048 25.565826396592044 8.1926950520735851 0.64278761758704617 0 -0.76604443648966558 0.1915111091224164 0 0.16069690439676154 1 I I -0.70710678118654746 0.70710678118654746 0.25 forward I I I I #
loop $-1 $-1 $128 $35 #
coedge $-1 $80 $80 $129 $130 reversed $50 $-1 #
face $-1 $-1 $131 $28 $-1 $132 forward single #
loop $-1 $133 $134 $52 #
cone-surface $-1 -60.341676024246048 28.998884327317484 8.1926950520735851 0.64278761758704617 0 -0.76604443648966558 0.1915111091224164 0 0.16069690439676154 1 I I -0.70710678118654746 0.70710678118654746 0.25 forward I I I I #
loop $-1 $-1 $135 $36 #
coedge $-1 $85 $85 $136 $137 reversed $53 $-1 #
face $-1 $-1 $138 $29 $-1 $139 forward single #
loop $-1 $140 $141 $55 #
cone-surface $-1 -60.341676024246048 32.431942258042916 8.1926950520735851 0.64278761758704617 0 -0.76604443648966558 0.1915111091224164 0 0.16069690439676154 1 I I -0.70710678118654746 0.70710678118654746 0.25 forward I I I I #
loop $-1 $-1 $142 $37 #
coedge $-1 $90 $90 $143 $144 reversed $56 $-1 #
face $-1 $145 $146 $30 $-1 $147 reversed single #
loop $-1 $-1 $148 $58 #
plane-surface $-1 -23.965579022963908 -15.146318141049949 118.48229438556088 0.74314483375859142 0 0.66913059716165679 0.66913059716165679 0 -0.74314483375859142 forward_v I I I I #
coedge $-1 $149 $150 $151 $152 reversed $59 $-1 #
face $-1 $-1 $153 $31 $-1 $154 forward single #
loop $-1 $155 $156 $61 #
cone-surface $-1 66.940494204634518 -15.146318141049949 13.441696681957477 -0.74314483375859142 0 -0.66913059716165679 0.3345652985808284 0 -0.37157241687929571 1 I I -0.70710678118654746 0.70710678118654746 0.5 forward I I I I #
loop $-1 $-1 $157 $39 #
coedge $-1 $99 $99 $158 $159 reversed $62 $-1 #
face $-1 $160 $161 $24 $-1 $162 reversed single #
loop $-1 $-1 $163 $64 #
plane-surface $-1 0 -34.720647545193209 0 0 1 0 0 0 1 forward_v I I I I #
coedge $-1 $164 $165 $166 $167 forward $65 $-1 #
coedge $-1 $168 $67 $169 $170 forward $41 $-1 #
coedge $-1 $67 $168 $171 $172 forward $41 $-1 #
coedge $-1 $173 $174 $67 $107 reversed $175 $-1 #
edge $-1 $176 -34.720647545193209 $177 34.720647545193209 $106 $178 forward 7 unknown #
face $-1 $179 $180 $25 $-1 $181 reversed single #
loop $-1 $-1 $182 $68 #
plane-surface $-1 0 -40.501434539899236 9.9488151232518511 0 0 1 1 0 0 forward_v I I I I #
coedge $-1 $183 $184 $113 $185 forward $69 $-1 #
coedge $-1 $186 $71 $187 $188 reversed $44 $-1 #
coedge $-1 $71 $186 $111 $185 reversed $44 $-1 #
coedge $-1 $189 $182 $71 $115 reversed $109 $-1 #
edge $-1 $190 -70.849330118717006 $191 70.849330118717006 $114 $192 forward 7 unknown #
face $-1 $193 $194 $26 $-1 $195 reversed single #
loop $-1 $-1 $122 $72 #
plane-surface $-1 0 0 17.356509131916571 0 0 1 1 0 0 forward_v I I I I #
coedge $-1 $196 $197 $198 $199 reversed $73 $-1 #
coedge $-1 $121 $75 $200 $201 reversed $47 $-1 #
coedge $-1 $75 $120 $196 $202 reversed $47 $-1 #
coedge $-1 $198 $203 $75 $123 forward $117 $-1 #
edge $-1 $204 10.116407055289756 $205 29.164658016773707 $122 $206 forward 7 unknown #
loop $-1 $-1 $129 $76 #
plane-surface $-1 -70.849330118717006 28.998884327317477 1.3731284407918594 -0.64278761758704617 0 0.76604443648966558 0.76604443648966558 0 0.64278761758704617 forward_v I I I I #
loop $-1 $-1 $207 $49 #
coedge $-1 $127 $127 $128 $208 reversed $77 $-1 #
coedge $-1 $128 $128 $127 $208 forward $79 $-1 #
coedge $-1 $129 $129 $80 $130 forward $124 $-1 #
edge $-1 $209 0 $209 6.2831853071796004 $129 $210 forward 7 unknown #
loop $-1 $-1 $136 $81 #
plane-surface $-1 -70.849330118717006 28.998884327317477 1.3731284407918594 -0.64278761758704617 0 0.76604443648966558 0.76604443648966558 0 0.64278761758704617 forward_v I I I I #
loop $-1 $-1 $211 $52 #
coedge $-1 $134 $134 $135 $212 reversed $82 $-1 #
coedge $-1 $135 $135 $134 $212 forward $84 $-1 #
coedge $-1 $136 $136 $85 $137 forward $131 $-1 #
edge $-1 $213 0 $213 6.2831853071796004 $136 $214 forward 7 unknown #
loop $-1 $-1 $143 $86 #
plane-surface $-1 -70.849330118717006 28.998884327317477 1.3731284407918594 -0.64278761758704617 0 0.76604443648966558 0.76604443648966558 0 0.64278761758704617 forward_v I I I I #
loop $-1 $-1 $215 $55 #
coedge $-1 $141 $141 $142 $216 reversed $87 $-1 #
coedge $-1 $142 $142 $141 $216 forward $89 $-1 #
coedge $-1 $143 $143 $90 $144 forward $138 $-1 #
edge $-1 $217 0 $217 6.2831853071796004 $143 $218 forward 7 unknown #
face $-1 $219 $220 $30 $-1 $221 reversed single #
loop $-1 $-1 $222 $91 #
plane-surface $-1 81.33704828299912 -18.537346177257248 213.29720352724181 0 1 0 0.74314483375859142 0 0.66913059716165679 forward_v I I I I #
coedge $-1 $223 $224 $225 $226 reversed $92 $-1 #
coedge $-1 $150 $94 $227 $228 reversed $59 $-1 #
coedge $-1 $94 $149 $223 $229 reversed $59 $-1 #
coedge $-1 $225 $230 $94 $152 forward $231 $-1 #
edge $-1 $232 -30.180805977217446 $233 -26.419960594518017 $151 $234 forward 7 unknown #
loop $-1 $-1 $158 $95 #
plane-surface $-1 -23.965579022963908 -15.146318141049949 118.48229438556088 0.74314483375859142 0 0.66913059716165679 0.66913059716165679 0 -0.74314483375859142 forward_v I I I I #
loop $-1 $-1 $235 $61 #
coedge $-1 $156 $156 $157 $236 reversed $96 $-1 #
coedge $-1 $157 $157 $156 $236 forward $98 $-1 #
coedge $-1 $158 $158 $99 $159 forward $153 $-1 #
edge $-1 $237 0 $237 6.2831853071796004 $158 $238 forward 7 unknown #
face $-1 $239 $240 $24 $-1 $241 reversed single #
loop $-1 $-1 $242 $100 #
plane-surface $-1 -70.849330118717006 0 0 1 0 0 0 0 -1 forward_v I I I I #
coedge $-1 $243 $171 $244 $245 forward $101 $-1 #
coedge $-1 $246 $103 $243 $247 forward $65 $-1 #
coedge $-1 $103 $246 $248 $249 forward $65 $-1 #
coedge $-1 $174 $173 $103 $167 reversed $175 $-1 #
edge $-1 $250 -34.720647545193209 $251 34.720647545193209 $166 $252 forward 7 unknown #
coedge $-1 $105 $104 $253 $254 forward $41 $-1 #
coedge $-1 $255 $256 $104 $170 reversed $240 $-1 #
edge $-1 $177 -70.849330118717006 $257 70.849330118717006 $169 $258 forward 7 unknown #
coedge $-1 $163 $259 $105 $172 reversed $101 $-1 #
edge $-1 $260 -70.849330118717006 $176 70.849330118717006 $171 $261 forward 7 unknown #
coedge $-1 $166 $106 $259 $262 forward $175 $-1 #
coedge $-1 $106 $166 $255 $263 reversed $175 $-1 #
loop $-1 $-1 $173 $239 #
vertex $-1 $107 $264 #
vertex $-1 $107 $265 #
straight-curve $-1 70.849330118717006 0 17.356509131916571 0 1 0 I I #
face $-1 $266 $267 $25 $-1 $268 reversed single #
loop $-1 $-1 $269 $108 #
plane-surface $-1 0 -40.501434539899236 5.7522551925739656 0 0 1 1 0 0 forward_v I I I I #
coedge $-1 $114 $270 $271 $272 forward $109 $-1 #
coedge $-1 $273 $111 $274 $275 reversed $69 $-1 #
coedge $-1 $111 $273 $189 $276 reversed $69 $-1 #
edge $-1 $190 -9.9488151232518511 $277 -5.7522551925739656 $111 $278 forward 7 unknown #
coedge $-1 $113 $112 $279 $280 forward $44 $-1 #
coedge $-1 $271 $281 $112 $188 forward $282 $-1 #
edge $-1 $283 5.7522551925739656 $191 9.9488151232518511 $187 $284 forward 7 unknown #
coedge $-1 $270 $114 $184 $276 forward $109 $-1 #
vertex $-1 $185 $285 #
vertex $-1 $272 $286 #
straight-curve $-1 0 -34.720647545193209 9.9488151232518511 1 0 0 I I #
face $-1 $-1 $287 $26 $-1 $288 reversed single #
loop $-1 $-1 $289 $116 #
plane-surface $-1 0 34.720647545193209 0 0 -1 0 0 0 -1 forward_v I I I I #
coedge $-1 $290 $119 $121 $202 forward $73 $-1 #
coedge $-1 $119 $290 $289 $291 reversed $73 $-1 #
coedge $-1 $292 $122 $119 $199 forward $117 $-1 #
edge $-1 $205 8.7776789457830091 $293 20.221205381534464 $198 $294 forward 7 unknown #
coedge $-1 $295 $296 $120 $201 forward $287 $-1 #
edge $-1 $297 -53.587170946066934 $204 -37.603790254942226 $200 $298 forward 7 unknown #
edge $-1 $205 -24.865725869338554 $297 0 $121 $299 forward 7 unknown #
coedge $-1 $122 $292 $295 $300 forward $117 $-1 #
vertex $-1 $201 $301 #
vertex $-1 $123 $302 #
straight-curve $-1 -80.965737174006762 23.277121109441747 17.356509131916567 1 0 0 I I #
coedge $-1 $207 $207 $-1 $303 reversed $126 $-1 #
edge $-1 $304 0 $304 6.2831853071796004 $127 $305 forward 7 unknown #
vertex $-1 $130 $306 #
ellipse-curve $-1 -61.325204637975027 25.565826396592044 9.3648187863542169 -0.64278761758704617 0 0.76604443648966558 0.38302221824483279 0 0.32139380879352308 1 I I #
coedge $-1 $211 $211 $-1 $307 reversed $133 $-1 #
edge $-1 $308 0 $308 6.2831853071796004 $134 $309 forward 7 unknown #
vertex $-1 $137 $310 #
ellipse-curve $-1 -61.325204637975027 28.998884327317484 9.3648187863542169 -0.64278761758704617 0 0.76604443648966558 0.38302221824483279 0 0.32139380879352308 1 I I #
coedge $-1 $215 $215 $-1 $311 reversed $140 $-1 #
edge $-1 $312 0 $312 6.2831853071796004 $141 $313 forward 7 unknown #
vertex $-1 $144 $314 #
ellipse-curve $-1 -61.325204637975027 32.431942258042916 9.3648187863542169 -0.64278761758704617 0 0.76604443648966558 0.38302221824483279 0 0.32139380879352308 1 I I #
face $-1 $-1 $231 $30 $-1 $315 forward single #
loop $-1 $-1 $316 $145 #
plane-surface $-1 70.849330118717006 0 0 -1 0 0 0 0 1 forward_v I I I I #
coedge $-1 $317 $318 $319 $320 reversed $146 $-1 #
coedge $-1 $321 $148 $150 $229 forward $92 $-1 #
coedge $-1 $148 $321 $317 $322 forward $92 $-1 #
coedge $-1 $319 $151 $148 $226 forward $231 $-1 #
edge $-1 $233 4.1821310343176759 $323 10.964187106732274 $225 $324 forward 7 unknown #
coedge $-1 $325 $326 $149 $228 forward $220 $-1 #
edge $-1 $327 -93.468934684023026 $232 -89.292092631704335 $227 $328 forward 7 unknown #
edge $-1 $233 136.07816492806938 $327 141.69866023743396 $150 $329 forward 7 unknown #
coedge $-1 $151 $319 $325 $330 forward $231 $-1 #
loop $-1 $-1 $319 $219 #
vertex $-1 $228 $331 #
vertex $-1 $152 $332 #
straight-curve $-1 40.66852414149956 -11.755290104842651 17.356509131916567 -1 0 0 I I #
coedge $-1 $235 $235 $-1 $333 reversed $155 $-1 #
edge $-1 $334 0 $334 6.2831853071796004 $156 $335 forward 7 unknown #
vertex $-1 $159 $336 #
ellipse-curve $-1 68.968907427367299 -15.146318141049949 15.268088105757222 0.74314483375859142 0 0.66913059716165679 0.66913059716165679 0 -0.74314483375859142 1 I I #
face $-1 $-1 $175 $24 $-1 $337 reversed single #
loop $-1 $-1 $255 $160 #
plane-surface $-1 0 34.720647545193209 0 0 -1 0 0 0 -1 forward_v I I I I #
coedge $-1 $338 $253 $256 $339 forward $161 $-1 #
coedge $-1 $259 $163 $164 $247 reversed $101 $-1 #
coedge $-1 $253 $338 $163 $245 reversed $161 $-1 #
edge $-1 $260 -17.356509131916571 $340 17.356509131916571 $244 $341 forward 7 unknown #
coedge $-1 $165 $164 $338 $342 forward $65 $-1 #
edge $-1 $251 -70.849330118717006 $340 70.849330118717006 $243 $343 forward 7 unknown #
coedge $-1 $256 $255 $165 $249 reversed $240 $-1 #
edge $-1 $344 -70.849330118717006 $250 70.849330118717006 $248 $345 forward 7 unknown #
vertex $-1 $167 $346 #
vertex $-1 $262 $347 #
straight-curve $-1 70.849330118717006 0 -17.356509131916571 0 -1 0 I I #
coedge $-1 $242 $244 $168 $254 reversed $161 $-1 #
edge $-1 $257 -34.720647545193209 $260 34.720647545193209 $253 $348 forward 7 unknown #
coedge $-1 $248 $169 $174 $263 forward $240 $-1 #
coedge $-1 $169 $248 $242 $339 reversed $240 $-1 #
vertex $-1 $170 $349 #
straight-curve $-1 0 34.720647545193209 17.356509131916571 -1 0 0 I I #
coedge $-1 $171 $243 $173 $262 reversed $101 $-1 #
vertex $-1 $254 $350 #
straight-curve $-1 0 -34.720647545193209 17.356509131916571 1 0 0 I I #
edge $-1 $176 -17.356509131916571 $251 17.356509131916571 $173 $351 forward 7 unknown #
edge $-1 $177 -17.356509131916571 $250 17.356509131916571 $174 $352 forward 7 unknown #
point $-1 70.849330118717006 -34.720647545193209 17.356509131916571 #
point $-1 70.849330118717006 34.720647545193209 17.356509131916571 #
face $-1 $-1 $282 $25 $-1 $353 reversed single #
loop $-1 $-1 $354 $179 #
plane-surface $-1 0 -46.282221534605263 7.8505351579129083 0 1 0 0 0 1 forward_v I I I I #
coedge $-1 $355 $279 $281 $356 forward $180 $-1 #
coedge $-1 $182 $189 $357 $358 forward $109 $-1 #
coedge $-1 $359 $187 $182 $272 reversed $282 $-1 #
edge $-1 $360 -5.7807869947060269 $191 5.7807869947060269 $271 $361 forward 7 unknown #
coedge $-1 $184 $183 $354 $362 reversed $69 $-1 #
coedge $-1 $279 $355 $183 $275 forward $180 $-1 #
edge $-1 $363 -5.7807869947060269 $277 5.7807869947060269 $183 $364 forward 7 unknown #
edge $-1 $190 -5.7807869947060269 $365 5.7807869947060269 $184 $366 forward 7 unknown #
vertex $-1 $185 $367 #
straight-curve $-1 -70.849330118717006 -34.720647545193209 0 0 0 -1 I I #
coedge $-1 $269 $274 $186 $280 reversed $180 $-1 #
edge $-1 $283 -70.849330118717006 $277 70.849330118717006 $279 $368 forward 7 unknown #
coedge $-1 $187 $359 $269 $356 reversed $282 $-1 #
loop $-1 $-1 $187 $266 #
vertex $-1 $188 $369 #
straight-curve $-1 70.849330118717006 -34.720647545193209 0 0 0 1 I I #
point $-1 -70.849330118717006 -34.720647545193209 9.9488151232518511 #
point $-1 70.849330118717006 -34.720647545193209 9.9488151232518511 #
loop $-1 $-1 $200 $193 #
plane-surface $-1 -70.849330118717006 0 0 1 0 0 0 0 -1 forward_v I I I I #
coedge $-1 $370 $371 $197 $291 forward $194 $-1 #
coedge $-1 $197 $196 $296 $372 reversed $73 $-1 #
edge $-1 $293 1.8298267343440715 $373 26.695552603682621 $289 $374 forward 7 unknown #
coedge $-1 $203 $198 $371 $375 forward $117 $-1 #
vertex $-1 $375 $376 #
straight-curve $-1 -51.801079157233055 14.499442163658738 17.356509131916571 0 1 0 I I #
coedge $-1 $377 $200 $203 $300 reversed $287 $-1 #
coedge $-1 $200 $377 $290 $372 forward $287 $-1 #
vertex $-1 $201 $378 #
straight-curve $-1 -70.849330118717006 23.277121109441747 54.960299386858793 0 0 1 I I #
straight-curve $-1 -70.849330118717006 23.277121109441747 1.3731284407918594 -0.76604443648966558 0 -0.64278761758704617 I I #
edge $-1 $379 -34.720647545193209 $204 -23.277121109441747 $295 $380 forward 7 unknown #
point $-1 -70.849330118717006 23.277121109441747 17.356509131916571 #
point $-1 -51.801079157233055 23.277121109441747 17.356509131916571 #
edge $-1 $381 1 $381 0 $207 $-1 forward 7 unknown #
vertex $-1 $208 $382 #
ellipse-curve $-1 -60.502372928642806 25.565826396592044 8.3842061611960013 -0.64278761758704617 0 0.76604443648966558 0.38302221824483279 0 0.32139380879352308 1 I I #
point $-1 -60.942182419730187 25.565826396592044 9.6862125951477331 #
edge $-1 $383 1 $383 0 $211 $-1 forward 7 unknown #
vertex $-1 $212 $384 #
ellipse-curve $-1 -60.502372928642806 28.998884327317484 8.3842061611960013 -0.64278761758704617 0 0.76604443648966558 0.38302221824483279 0 0.32139380879352308 1 I I #
point $-1 -60.942182419730187 28.998884327317484 9.6862125951477331 #
edge $-1 $385 1 $385 0 $215 $-1 forward 7 unknown #
vertex $-1 $216 $386 #
ellipse-curve $-1 -60.502372928642806 32.431942258042916 8.3842061611960013 -0.64278761758704617 0 0.76604443648966558 0.38302221824483279 0 0.32139380879352308 1 I I #
point $-1 -60.942182419730187 32.431942258042916 9.6862125951477331 #
plane-surface $-1 0 0 17.356509131916571 0 0 1 1 0 0 forward_v I I I I #
coedge $-1 $326 $325 $318 $387 forward $220 $-1 #
coedge $-1 $318 $222 $224 $322 reversed $146 $-1 #
coedge $-1 $222 $317 $316 $387 reversed $146 $-1 #
coedge $-1 $230 $225 $222 $320 forward $231 $-1 #
edge $-1 $323 26.419960594518017 $388 30.180805977217446 $319 $389 forward 7 unknown #
coedge $-1 $224 $223 $326 $390 reversed $92 $-1 #
edge $-1 $391 -141.69866023743396 $323 -136.07816492806938 $317 $392 forward 7 unknown #
vertex $-1 $226 $393 #
straight-curve $-1 67.088484736017591 -7.5731590705249747 17.356509131916567 0 -1 0 I I #
coedge $-1 $316 $227 $230 $330 reversed $220 $-1 #
coedge $-1 $227 $316 $321 $390 forward $220 $-1 #
vertex $-1 $228 $394 #
straight-curve $-1 70.849330118717006 -11.755290104842651 106.6486017636209 0 0 1 I I #
straight-curve $-1 -23.965579022963908 -11.755290104842651 118.48229438556088 0.66913059716165679 0 -0.74314483375859142 I I #
edge $-1 $388 -18.537346177257248 $232 -11.755290104842651 $325 $395 forward 7 unknown #
point $-1 70.849330118717006 -11.755290104842651 17.356509131916571 #
point $-1 67.088484736017577 -11.755290104842651 17.356509131916567 #
edge $-1 $396 1 $396 0 $235 $-1 forward 7 unknown #
vertex $-1 $236 $397 #
ellipse-curve $-1 67.312066621513807 -15.146318141049949 13.776261980538306 0.74314483375859142 0 0.66913059716165679 0.66913059716165679 0 -0.74314483375859142 1 I I #
point $-1 69.638038024528925 -15.146318141049949 14.524943271998614 #
plane-surface $-1 70.849330118717006 0 0 -1 0 0 0 0 1 forward_v I I I I #
coedge $-1 $244 $242 $246 $342 reversed $161 $-1 #
edge $-1 $257 -17.356509131916571 $344 17.356509131916571 $256 $398 forward 7 unknown #
vertex $-1 $342 $399 #
straight-curve $-1 -70.849330118717006 -34.720647545193209 0 0 0 -1 I I #
edge $-1 $340 -34.720647545193209 $344 34.720647545193209 $338 $400 forward 7 unknown #
straight-curve $-1 0 -34.720647545193209 -17.356509131916571 -1 0 0 I I #
vertex $-1 $249 $401 #
straight-curve $-1 0 34.720647545193209 -17.356509131916571 1 0 0 I I #
point $-1 70.849330118717006 34.720647545193209 -17.356509131916571 #
point $-1 70.849330118717006 -34.720647545193209 -17.356509131916571 #
straight-curve $-1 -70.849330118717006 0 17.356509131916571 0 -1 0 I I #
point $-1 -70.849330118717006 34.720647545193209 17.356509131916571 #
point $-1 -70.849330118717006 -34.720647545193209 17.356509131916571 #
straight-curve $-1 70.849330118717006 -34.720647545193209 0 0 0 -1 I I #
straight-curve $-1 70.849330118717006 34.720647545193209 0 0 0 -1 I I #
plane-surface $-1 70.849330118717006 0 0 -1 0 0 0 0 1 forward_v I I I I #
coedge $-1 $402 $357 $273 $362 forward $267 $-1 #
coedge $-1 $274 $269 $402 $403 forward $180 $-1 #
edge $-1 $283 -5.7807869947060269 $404 5.7807869947060269 $281 $405 forward 7 unknown #
coedge $-1 $354 $406 $270 $358 reversed $267 $-1 #
edge $-1 $365 -70.849330118717006 $360 70.849330118717006 $357 $407 forward 7 unknown #
coedge $-1 $281 $271 $406 $408 forward $282 $-1 #
vertex $-1 $272 $409 #
straight-curve $-1 70.849330118717006 -40.501434539899236 9.9488151232518511 0 1 0 I I #
edge $-1 $365 -2.0982799653389428 $363 2.0982799653389428 $273 $410 forward 7 unknown #
vertex $-1 $275 $411 #
straight-curve $-1 -70.849330118717006 -40.501434539899236 5.7522551925739656 0 1 0 I I #
vertex $-1 $276 $412 #
straight-curve $-1 -70.849330118717006 -40.501434539899236 9.9488151232518511 0 -1 0 I I #
point $-1 -70.849330118717006 -34.720647545193209 5.7522551925739656 #
straight-curve $-1 0 -34.720647545193209 5.7522551925739656 -1 0 0 I I #
point $-1 70.849330118717006 -34.720647545193209 5.7522551925739656 #
coedge $-1 $371 $289 $377 $413 reversed $194 $-1 #
coedge $-1 $289 $370 $292 $375 reversed $194 $-1 #
edge $-1 $373 -20.221205381534464 $297 -8.7776789457830091 $296 $414 forward 7 unknown #
vertex $-1 $291 $415 #
straight-curve $-1 -50.399350567648725 34.720647545193209 18.532699099082681 -0.76604443648966558 0 -0.64278761758704617 I I #
edge $-1 $293 51.801079157233055 $379 70.849330118717006 $371 $416 forward 7 unknown #
point $-1 -51.801079157233055 34.720647545193202 17.356509131916571 #
coedge $-1 $296 $295 $370 $413 forward $287 $-1 #
point $-1 -70.849330118717006 23.277121109441747 1.3731284407918594 #
vertex $-1 $375 $417 #
straight-curve $-1 -70.849330118717006 0 17.356509131916571 0 -1 0 I I #
vertex $-1 $303 $418 #
point $-1 -60.119350710397974 25.565826396592044 8.7055999699895246 #
vertex $-1 $307 $419 #
point $-1 -60.119350710397974 28.998884327317484 8.7055999699895246 #
vertex $-1 $311 $420 #
point $-1 -60.119350710397974 32.431942258042916 8.7055999699895246 #
edge $-1 $388 89.292092631704335 $391 93.468934684023026 $316 $421 forward 7 unknown #
vertex $-1 $330 $422 #
straight-curve $-1 40.66852414149956 -18.537346177257248 17.356509131916567 1 0 0 I I #
edge $-1 $391 -10.964187106732274 $327 -4.1821310343176759 $326 $423 forward 7 unknown #
vertex $-1 $390 $424 #
straight-curve $-1 -23.965579022963908 -18.537346177257248 118.48229438556088 -0.66913059716165679 0 0.74314483375859142 I I #
point $-1 67.088484736017577 -18.537346177257248 17.356509131916567 #
point $-1 70.849330118717006 -11.755290104842651 13.179667079597877 #
straight-curve $-1 70.849330118717006 0 17.356509131916571 0 1 0 I I #
vertex $-1 $333 $425 #
point $-1 67.981197218675476 -15.146318141049949 13.033117146779714 #
straight-curve $-1 -70.849330118717006 34.720647545193209 0 0 0 -1 I I #
point $-1 -70.849330118717006 -34.720647545193209 -17.356509131916571 #
straight-curve $-1 -70.849330118717006 0 -17.356509131916571 0 1 0 I I #
point $-1 -70.849330118717006 34.720647545193209 -17.356509131916571 #
coedge $-1 $406 $354 $355 $403 reversed $267 $-1 #
edge $-1 $404 -70.849330118717006 $363 70.849330118717006 $402 $426 forward 7 unknown #
vertex $-1 $408 $427 #
straight-curve $-1 70.849330118717006 -40.501434539899236 5.7522551925739656 0 -1 0 I I #
coedge $-1 $357 $402 $359 $408 reversed $267 $-1 #
straight-curve $-1 0 -46.282221534605263 9.9488151232518511 1 0 0 I I #
edge $-1 $360 -2.0982799653389428 $404 2.0982799653389428 $359 $428 forward 7 unknown #
point $-1 70.849330118717006 -46.282221534605263 9.9488151232518511 #
straight-curve $-1 -70.849330118717006 -46.282221534605263 7.8505351579129083 0 0 -1 I I #
point $-1 -70.849330118717006 -46.282221534605263 5.7522551925739656 #
point $-1 -70.849330118717006 -46.282221534605263 9.9488151232518511 #
edge $-1 $379 -17.356509131916571 $373 -1.3731284407918594 $370 $429 forward 7 unknown #
straight-curve $-1 -70.849330118717006 14.499442163658738 1.3731284407918536 0 -1 0 I I #
point $-1 -70.849330118717006 34.720647545193202 1.3731284407918594 #
straight-curve $-1 0 34.720647545193209 17.356509131916571 -1 0 0 I I #
point $-1 -70.849330118717006 34.720647545193209 17.356509131916571 #
point $-1 -60.18097911984929 25.565826396592044 8.0011839429511689 #
point $-1 -60.18097911984929 28.998884327317484 8.0011839429511689 #
point $-1 -60.18097911984929 32.431942258042916 8.0011839429511689 #
straight-curve $-1 70.849330118717006 -18.537346177257248 106.6486017636209 0 0 -1 I I #
point $-1 70.849330118717006 -18.537346177257248 17.356509131916571 #
straight-curve $-1 70.849330118717006 -7.5731590705249747 13.179667079597877 0 1 0 I I #
point $-1 70.849330118717006 -18.537346177257248 13.179667079597877 #
point $-1 66.56892178775523 -15.146318141049949 13.107131383376649 #
straight-curve $-1 0 -46.282221534605263 5.7522551925739656 -1 0 0 I I #
point $-1 70.849330118717006 -46.282221534605263 5.7522551925739656 #
straight-curve $-1 70.849330118717006 -46.282221534605263 7.8505351579129083 0 0 -1 I I #
straight-curve $-1 -70.849330118717006 34.720647545193209 0 0 0 -1 I I #
End-of-ACIS-data 