500 0 10 0           
7 Unknown 11 ACIS 5.0 NT 24 Fri Mar 26 15:52:03 1999 
-1 9.9999999999999995e-007 1e-010 
body $-1 $10 $-1 $11 #
body $-1 $12 $-1 $13 #
body $-1 $14 $-1 $15 #
body $-1 $16 $-1 $17 #
body $-1 $18 $-1 $19 #
body $-1 $20 $-1 $21 #
body $-1 $22 $-1 $23 #
body $-1 $24 $-1 $25 #
body $-1 $26 $-1 $27 #
body $-1 $28 $-1 $29 #
lump $-1 $-1 $30 $0 #
transform $-1 1 0 0 0 1 0 0 0 1 48.918729209265422 29.163278053912581 7.7278637252880085 1 rotate no_reflect no_shear #
lump $-1 $-1 $31 $1 #
transform $-1 1 0 0 0 1 0 0 0 1 48.918729209265422 -5.0232623608818967 13.955727450576017 1 rotate no_reflect no_shear #
lump $-1 $-1 $32 $2 #
transform $-1 1 0 0 0 1 0 0 0 1 48.918729209265422 63.349818468707056 13.955727450576017 1 rotate no_reflect no_shear #
lump $-1 $-1 $33 $3 #
transform $-1 0.7313536940579346 0 -0.68199836817093118 0 1 0 0.68199836817093118 0 0.7313536940579346 93.008658774328111 34.602398214673357 147.51487305468112 1 rotate no_reflect no_shear #
lump $-1 $-1 $34 $4 #
transform $-1 0.7313536940579346 0 -0.68199836817093118 0 -1 0 -0.68199836817093118 0 -0.7313536940579346 93.389257591700556 32.484682129433715 11.152009283106679 1 rotate no_reflect no_shear #
lump $-1 $-1 $35 $5 #
transform $-1 0.7313536940579346 0 -0.68199836817093118 0 -1 0 -0.68199836817093118 0 -0.7313536940579346 93.389257591700556 34.602398214673357 11.152009283106679 1 rotate no_reflect no_shear #
lump $-1 $-1 $36 $6 #
transform $-1 0.7313536940579346 0 -0.68199836817093118 0 -1 0 -0.68199836817093118 0 -0.7313536940579346 93.389257591700556 36.720114299913 11.152009283106679 1 rotate no_reflect no_shear #
lump $-1 $-1 $37 $7 #
transform $-1 0.78801074757464917 0 0.61566148304635926 0 1 0 -0.61566148304635926 0 0.78801074757464917 -60.234754747439219 18.972757818231788 87.759925827540954 1 rotate no_reflect no_shear #
lump $-1 $-1 $38 $8 #
transform $-1 0.78801074757464917 0 0.61566148304635926 0 -1 0 0.61566148304635926 0 -0.78801074757464917 4.376164327582682 17.019137183716683 11.383986732238485 1 rotate no_reflect no_shear #
lump $-1 $-1 $39 $9 #
transform $-1 0.78801074757464917 0 0.61566148304635926 0 -1 0 0.61566148304635926 0 -0.78801074757464917 4.376164327582682 20.926378452746892 11.383986732238485 1 rotate no_reflect no_shear #
shell $-1 $-1 $-1 $40 $-1 $10 #
shell $-1 $-1 $-1 $41 $-1 $12 #
shell $-1 $-1 $-1 $42 $-1 $14 #
shell $-1 $-1 $-1 $43 $-1 $16 #
shell $-1 $-1 $-1 $44 $-1 $18 #
shell $-1 $-1 $-1 $45 $-1 $20 #
shell $-1 $-1 $-1 $46 $-1 $22 #
shell $-1 $-1 $-1 $47 $-1 $24 #
shell $-1 $-1 $-1 $48 $-1 $26 #
shell $-1 $-1 $-1 $49 $-1 $28 #
face $-1 $50 $51 $30 $-1 $52 forward single #
face $-1 $53 $54 $31 $-1 $55 forward single #
face $-1 $56 $57 $32 $-1 $58 forward single #
face $-1 $59 $60 $33 $-1 $61 forward single #
face $-1 $62 $63 $34 $-1 $64 forward single #
face $-1 $65 $66 $35 $-1 $67 forward single #
face $-1 $68 $69 $36 $-1 $70 forward single #
face $-1 $71 $72 $37 $-1 $73 forward single #
face $-1 $74 $75 $38 $-1 $76 forward single #
face $-1 $77 $78 $39 $-1 $79 forward single #
face $-1 $80 $81 $30 $-1 $82 reversed single #
loop $-1 $-1 $83 $40 #
plane-surface $-1 0 0 7.7278637252880085 0 0 1 1 0 0 forward_v I I I I #
face $-1 $84 $85 $31 $-1 $86 reversed single #
loop $-1 $-1 $87 $41 #
plane-surface $-1 0 0 1.5 0 0 1 1 0 0 forward_v I I I I #
face $-1 $88 $89 $32 $-1 $90 reversed single #
loop $-1 $-1 $91 $42 #
plane-surface $-1 0 0 1.5 0 0 1 1 0 0 forward_v I I I I #
face $-1 $92 $93 $33 $-1 $94 reversed single #
loop $-1 $-1 $95 $43 #
plane-surface $-1 0 0 97.837458418530844 0 0 1 1 0 0 forward_v I I I I #
face $-1 $96 $97 $34 $-1 $98 forward single #
loop $-1 $99 $100 $44 #
cone-surface $-1 0 0 -0.9412289803765983 0 0 1 0.5 0 0 1 I I 0 1 0.5 forward I I I I #
face $-1 $101 $102 $35 $-1 $103 forward single #
loop $-1 $104 $105 $45 #
cone-surface $-1 0 0 -0.9412289803765983 0 0 1 0.5 0 0 1 I I 0 1 0.5 forward I I I I #
face $-1 $106 $107 $36 $-1 $108 forward single #
loop $-1 $109 $110 $46 #
cone-surface $-1 0 0 -0.9412289803765983 0 0 1 0.5 0 0 1 I I 0 1 0.5 forward I I I I #
face $-1 $111 $112 $37 $-1 $113 reversed single #
loop $-1 $-1 $114 $47 #
plane-surface $-1 0 0 97.837458418530844 0 0 1 1 0 0 forward_v I I I I #
face $-1 $115 $116 $38 $-1 $117 forward single #
loop $-1 $118 $119 $48 #
cone-surface $-1 0 0 -1.3130283516953032 0 0 1 1 0 0 1 I I 0 1 1 forward I I I I #
face $-1 $120 $121 $39 $-1 $122 forward single #
loop $-1 $123 $124 $49 #
cone-surface $-1 0 0 -1.3130283516953032 0 0 1 1 0 0 1 I I 0 1 1 forward I I I I #
face $-1 $125 $126 $30 $-1 $127 reversed single #
loop $-1 $-1 $128 $50 #
plane-surface $-1 0 0 -7.7278637252880085 0 0 1 1 0 0 forward_v I I I I #
coedge $-1 $129 $130 $131 $132 forward $51 $-1 #
face $-1 $133 $134 $31 $-1 $135 reversed single #
loop $-1 $-1 $136 $53 #
plane-surface $-1 0 0 -1.5 0 0 1 1 0 0 forward_v I I I I #
coedge $-1 $137 $138 $139 $140 forward $54 $-1 #
face $-1 $141 $142 $32 $-1 $143 reversed single #
loop $-1 $-1 $144 $56 #
plane-surface $-1 0 0 -1.5 0 0 1 1 0 0 forward_v I I I I #
coedge $-1 $145 $146 $147 $148 forward $57 $-1 #
face $-1 $149 $150 $33 $-1 $151 reversed single #
loop $-1 $-1 $152 $59 #
plane-surface $-1 0 0 -97.837458418530844 0 0 1 1 0 0 forward_v I I I I #
coedge $-1 $153 $154 $155 $156 forward $60 $-1 #
face $-1 $-1 $157 $34 $-1 $158 forward single #
loop $-1 $-1 $159 $62 #
plane-surface $-1 0 0 -1.6324579607531966 0 0 -1 -1 0 0 forward_v I I I I #
loop $-1 $-1 $160 $44 #
coedge $-1 $100 $100 $159 $161 reversed $63 $-1 #
face $-1 $-1 $162 $35 $-1 $163 forward single #
loop $-1 $-1 $164 $65 #
plane-surface $-1 0 0 -1.6324579607531966 0 0 -1 -1 0 0 forward_v I I I I #
loop $-1 $-1 $165 $45 #
coedge $-1 $105 $105 $164 $166 reversed $66 $-1 #
face $-1 $-1 $167 $36 $-1 $168 forward single #
loop $-1 $-1 $169 $68 #
plane-surface $-1 0 0 -1.6324579607531966 0 0 -1 -1 0 0 forward_v I I I I #
loop $-1 $-1 $170 $46 #
coedge $-1 $110 $110 $169 $171 reversed $69 $-1 #
face $-1 $172 $173 $37 $-1 $174 reversed single #
loop $-1 $-1 $175 $71 #
plane-surface $-1 0 0 -97.837458418530844 0 0 1 1 0 0 forward_v I I I I #
coedge $-1 $176 $177 $178 $179 forward $72 $-1 #
face $-1 $-1 $180 $38 $-1 $181 forward single #
loop $-1 $-1 $182 $74 #
plane-surface $-1 0 0 -2.1260567033906064 0 0 -1 -1 0 0 forward_v I I I I #
loop $-1 $-1 $183 $48 #
coedge $-1 $119 $119 $182 $184 reversed $75 $-1 #
face $-1 $-1 $185 $39 $-1 $186 forward single #
loop $-1 $-1 $187 $77 #
plane-surface $-1 0 0 -2.1260567033906064 0 0 -1 -1 0 0 forward_v I I I I #
loop $-1 $-1 $188 $49 #
coedge $-1 $124 $124 $187 $189 reversed $78 $-1 #
face $-1 $190 $191 $30 $-1 $192 reversed single #
loop $-1 $-1 $193 $80 #
plane-surface $-1 0 -29.163278053912581 0 0 1 0 0 0 1 forward_v I I I I #
coedge $-1 $194 $195 $196 $197 forward $81 $-1 #
coedge $-1 $198 $83 $199 $200 forward $51 $-1 #
coedge $-1 $83 $198 $201 $202 forward $51 $-1 #
coedge $-1 $203 $204 $83 $132 reversed $205 $-1 #
edge $-1 $206 -29.163278053912581 $207 29.163278053912581 $131 $208 forward 7 unknown #
face $-1 $209 $210 $31 $-1 $211 reversed single #
loop $-1 $-1 $212 $84 #
plane-surface $-1 0 -5.0232623608818967 0 0 1 0 0 0 1 forward_v I I I I #
coedge $-1 $213 $214 $215 $216 forward $85 $-1 #
coedge $-1 $217 $87 $218 $219 forward $54 $-1 #
coedge $-1 $87 $217 $220 $221 forward $54 $-1 #
coedge $-1 $222 $223 $87 $140 reversed $224 $-1 #
edge $-1 $225 -5.0232623608818967 $226 5.0232623608818967 $139 $227 forward 7 unknown #
face $-1 $228 $229 $32 $-1 $230 reversed single #
loop $-1 $-1 $231 $88 #
plane-surface $-1 0 -5.0232623608818976 0 0 1 0 0 0 1 forward_v I I I I #
coedge $-1 $232 $233 $234 $235 forward $89 $-1 #
coedge $-1 $236 $91 $237 $238 forward $57 $-1 #
coedge $-1 $91 $236 $239 $240 forward $57 $-1 #
coedge $-1 $241 $242 $91 $148 reversed $243 $-1 #
edge $-1 $244 -5.0232623608818976 $245 5.0232623608818976 $147 $246 forward 7 unknown #
face $-1 $247 $248 $33 $-1 $249 reversed single #
loop $-1 $-1 $250 $92 #
plane-surface $-1 0 -3.5295268087327365 0 0 1 0 0 0 1 forward_v I I I I #
coedge $-1 $251 $252 $253 $254 forward $93 $-1 #
coedge $-1 $255 $95 $256 $257 forward $60 $-1 #
coedge $-1 $95 $255 $258 $259 forward $60 $-1 #
coedge $-1 $260 $261 $95 $156 reversed $262 $-1 #
edge $-1 $263 -3.5295268087327365 $264 3.5295268087327365 $155 $265 forward 7 unknown #
loop $-1 $266 $267 $96 #
cone-surface $-1 0 0 0 0 0 1 0.25 0 0 1 I I -0.70710678118654746 0.70710678118654746 0.25 forward I I I I #
coedge $-1 $159 $159 $100 $161 forward $97 $-1 #
coedge $-1 $160 $160 $267 $268 forward $99 $-1 #
edge $-1 $269 0 $269 6.2831853071796004 $159 $270 forward 7 unknown #
loop $-1 $271 $272 $101 #
cone-surface $-1 0 0 0 0 0 1 0.25 0 0 1 I I -0.70710678118654746 0.70710678118654746 0.25 forward I I I I #
coedge $-1 $164 $164 $105 $166 forward $102 $-1 #
coedge $-1 $165 $165 $272 $273 forward $104 $-1 #
edge $-1 $274 0 $274 6.2831853071796004 $164 $275 forward 7 unknown #
loop $-1 $276 $277 $106 #
cone-surface $-1 0 0 0 0 0 1 0.25 0 0 1 I I -0.70710678118654746 0.70710678118654746 0.25 forward I I I I #
coedge $-1 $169 $169 $110 $171 forward $107 $-1 #
coedge $-1 $170 $170 $277 $278 forward $109 $-1 #
edge $-1 $279 0 $279 6.2831853071796004 $169 $280 forward 7 unknown #
face $-1 $281 $282 $37 $-1 $283 reversed single #
loop $-1 $-1 $284 $111 #
plane-surface $-1 0 -4.5584481472019105 0 0 1 0 0 0 1 forward_v I I I I #
coedge $-1 $285 $286 $287 $288 forward $112 $-1 #
coedge $-1 $289 $114 $290 $291 forward $72 $-1 #
coedge $-1 $114 $289 $292 $293 forward $72 $-1 #
coedge $-1 $294 $295 $114 $179 reversed $296 $-1 #
edge $-1 $297 -4.5584481472019105 $298 4.5584481472019105 $178 $299 forward 7 unknown #
loop $-1 $300 $301 $115 #
cone-surface $-1 0 0 0 0 0 1 0.5 0 0 1 I I -0.70710678118654746 0.70710678118654746 0.5 forward I I I I #
coedge $-1 $182 $182 $119 $184 forward $116 $-1 #
coedge $-1 $183 $183 $301 $302 forward $118 $-1 #
edge $-1 $303 0 $303 6.2831853071796004 $182 $304 forward 7 unknown #
loop $-1 $305 $306 $120 #
cone-surface $-1 0 0 0 0 0 1 0.5 0 0 1 I I -0.70710678118654746 0.70710678118654746 0.5 forward I I I I #
coedge $-1 $187 $187 $124 $189 forward $121 $-1 #
coedge $-1 $188 $188 $306 $307 forward $123 $-1 #
edge $-1 $308 0 $308 6.2831853071796004 $187 $309 forward 7 unknown #
face $-1 $310 $311 $30 $-1 $312 reversed single #
loop $-1 $-1 $313 $125 #
plane-surface $-1 -48.918729209265422 0 0 1 0 0 0 0 -1 forward_v I I I I #
coedge $-1 $314 $201 $315 $316 forward $126 $-1 #
coedge $-1 $317 $128 $314 $318 forward $81 $-1 #
coedge $-1 $128 $317 $319 $320 forward $81 $-1 #
coedge $-1 $204 $203 $128 $197 reversed $205 $-1 #
edge $-1 $321 -29.163278053912581 $322 29.163278053912581 $196 $323 forward 7 unknown #
coedge $-1 $130 $129 $324 $325 forward $51 $-1 #
coedge $-1 $326 $327 $129 $200 reversed $311 $-1 #
edge $-1 $207 -48.918729209265422 $328 48.918729209265422 $199 $329 forward 7 unknown #
coedge $-1 $193 $330 $130 $202 reversed $126 $-1 #
edge $-1 $331 -48.918729209265422 $206 48.918729209265422 $201 $332 forward 7 unknown #
coedge $-1 $196 $131 $330 $333 forward $205 $-1 #
coedge $-1 $131 $196 $326 $334 reversed $205 $-1 #
loop $-1 $-1 $203 $310 #
vertex $-1 $132 $335 #
vertex $-1 $132 $336 #
straight-curve $-1 48.918729209265422 0 7.7278637252880085 0 1 0 I I #
face $-1 $337 $338 $31 $-1 $339 reversed single #
loop $-1 $-1 $340 $133 #
plane-surface $-1 -48.918729209265422 0 0 1 0 0 0 0 -1 forward_v I I I I #
coedge $-1 $341 $220 $342 $343 forward $134 $-1 #
coedge $-1 $344 $136 $341 $345 forward $85 $-1 #
coedge $-1 $136 $344 $346 $347 forward $85 $-1 #
coedge $-1 $223 $222 $136 $216 reversed $224 $-1 #
edge $-1 $348 -5.0232623608818967 $349 5.0232623608818967 $215 $350 forward 7 unknown #
coedge $-1 $138 $137 $351 $352 forward $54 $-1 #
coedge $-1 $353 $354 $137 $219 reversed $338 $-1 #
edge $-1 $226 -48.918729209265422 $355 48.918729209265422 $218 $356 forward 7 unknown #
coedge $-1 $212 $357 $138 $221 reversed $134 $-1 #
edge $-1 $358 -48.918729209265422 $225 48.918729209265422 $220 $359 forward 7 unknown #
coedge $-1 $215 $139 $357 $360 forward $224 $-1 #
coedge $-1 $139 $215 $353 $361 reversed $224 $-1 #
loop $-1 $-1 $222 $337 #
vertex $-1 $140 $362 #
vertex $-1 $140 $363 #
straight-curve $-1 48.918729209265422 0 1.5 0 1 0 I I #
face $-1 $364 $365 $32 $-1 $366 reversed single #
loop $-1 $-1 $367 $141 #
plane-surface $-1 -48.918729209265422 0 0 1 0 0 0 0 -1 forward_v I I I I #
coedge $-1 $368 $239 $369 $370 forward $142 $-1 #
coedge $-1 $371 $144 $368 $372 forward $89 $-1 #
coedge $-1 $144 $371 $373 $374 forward $89 $-1 #
coedge $-1 $242 $241 $144 $235 reversed $243 $-1 #
edge $-1 $375 -5.0232623608818976 $376 5.0232623608818976 $234 $377 forward 7 unknown #
coedge $-1 $146 $145 $378 $379 forward $57 $-1 #
coedge $-1 $380 $381 $145 $238 reversed $365 $-1 #
edge $-1 $245 -48.918729209265422 $382 48.918729209265422 $237 $383 forward 7 unknown #
coedge $-1 $231 $384 $146 $240 reversed $142 $-1 #
edge $-1 $385 -48.918729209265422 $244 48.918729209265422 $239 $386 forward 7 unknown #
coedge $-1 $234 $147 $384 $387 forward $243 $-1 #
coedge $-1 $147 $234 $380 $388 reversed $243 $-1 #
loop $-1 $-1 $241 $364 #
vertex $-1 $148 $389 #
vertex $-1 $148 $390 #
straight-curve $-1 48.918729209265422 0 1.5 0 1 0 I I #
face $-1 $391 $392 $33 $-1 $393 reversed single #
loop $-1 $-1 $394 $149 #
plane-surface $-1 -195.67491683706169 0 0 1 0 0 0 0 -1 forward_v I I I I #
coedge $-1 $395 $258 $396 $397 forward $150 $-1 #
coedge $-1 $398 $152 $395 $399 forward $93 $-1 #
coedge $-1 $152 $398 $400 $401 forward $93 $-1 #
coedge $-1 $261 $260 $152 $254 reversed $262 $-1 #
edge $-1 $402 -3.5295268087327365 $403 3.5295268087327365 $253 $404 forward 7 unknown #
coedge $-1 $154 $153 $405 $406 forward $60 $-1 #
coedge $-1 $407 $408 $153 $257 reversed $392 $-1 #
edge $-1 $264 -195.67491683706169 $409 195.67491683706169 $256 $410 forward 7 unknown #
coedge $-1 $250 $411 $154 $259 reversed $150 $-1 #
edge $-1 $412 -195.67491683706169 $263 195.67491683706169 $258 $413 forward 7 unknown #
coedge $-1 $253 $155 $411 $414 forward $262 $-1 #
coedge $-1 $155 $253 $407 $415 reversed $262 $-1 #
loop $-1 $-1 $260 $391 #
vertex $-1 $156 $416 #
vertex $-1 $156 $417 #
straight-curve $-1 195.67491683706169 0 97.837458418530844 0 1 0 I I #
loop $-1 $-1 $418 $96 #
coedge $-1 $267 $267 $160 $268 reversed $157 $-1 #
edge $-1 $419 0 $419 6.2831853071796004 $267 $420 forward 7 unknown #
vertex $-1 $161 $421 #
ellipse-curve $-1 0 0 -1.6324579607531966 0 0 -1 0.5 0 0 1 I I #
loop $-1 $-1 $422 $101 #
coedge $-1 $272 $272 $165 $273 reversed $162 $-1 #
edge $-1 $423 0 $423 6.2831853071796004 $272 $424 forward 7 unknown #
vertex $-1 $166 $425 #
ellipse-curve $-1 0 0 -1.6324579607531966 0 0 -1 0.5 0 0 1 I I #
loop $-1 $-1 $426 $106 #
coedge $-1 $277 $277 $170 $278 reversed $167 $-1 #
edge $-1 $427 0 $427 6.2831853071796004 $277 $428 forward 7 unknown #
vertex $-1 $171 $429 #
ellipse-curve $-1 0 0 -1.6324579607531966 0 0 -1 0.5 0 0 1 I I #
face $-1 $430 $431 $37 $-1 $432 reversed single #
loop $-1 $-1 $433 $172 #
plane-surface $-1 -195.67491683706169 0 0 1 0 0 0 0 -1 forward_v I I I I #
coedge $-1 $434 $292 $435 $436 forward $173 $-1 #
coedge $-1 $437 $175 $434 $438 forward $112 $-1 #
coedge $-1 $175 $437 $439 $440 forward $112 $-1 #
coedge $-1 $295 $294 $175 $288 reversed $296 $-1 #
edge $-1 $441 -4.5584481472019105 $442 4.5584481472019105 $287 $443 forward 7 unknown #
coedge $-1 $177 $176 $444 $445 forward $72 $-1 #
coedge $-1 $446 $447 $176 $291 reversed $431 $-1 #
edge $-1 $298 -195.67491683706169 $448 195.67491683706169 $290 $449 forward 7 unknown #
coedge $-1 $284 $450 $177 $293 reversed $173 $-1 #
edge $-1 $451 -195.67491683706169 $297 195.67491683706169 $292 $452 forward 7 unknown #
coedge $-1 $287 $178 $450 $453 forward $296 $-1 #
coedge $-1 $178 $287 $446 $454 reversed $296 $-1 #
loop $-1 $-1 $294 $430 #
vertex $-1 $179 $455 #
vertex $-1 $179 $456 #
straight-curve $-1 195.67491683706169 0 97.837458418530844 0 1 0 I I #
loop $-1 $-1 $457 $115 #
coedge $-1 $301 $301 $183 $302 reversed $180 $-1 #
edge $-1 $458 0 $458 6.2831853071796004 $301 $459 forward 7 unknown #
vertex $-1 $184 $460 #
ellipse-curve $-1 0 0 -2.1260567033906064 0 0 -1 1 0 0 1 I I #
loop $-1 $-1 $461 $120 #
coedge $-1 $306 $306 $188 $307 reversed $185 $-1 #
edge $-1 $462 0 $462 6.2831853071796004 $306 $463 forward 7 unknown #
vertex $-1 $189 $464 #
ellipse-curve $-1 0 0 -2.1260567033906064 0 0 -1 1 0 0 1 I I #
face $-1 $-1 $205 $30 $-1 $465 reversed single #
loop $-1 $-1 $326 $190 #
plane-surface $-1 0 29.163278053912581 0 0 -1 0 0 0 -1 forward_v I I I I #
coedge $-1 $466 $324 $327 $467 forward $191 $-1 #
coedge $-1 $330 $193 $194 $318 reversed $126 $-1 #
coedge $-1 $324 $466 $193 $316 reversed $191 $-1 #
edge $-1 $331 -7.7278637252880085 $468 7.7278637252880085 $315 $469 forward 7 unknown #
coedge $-1 $195 $194 $466 $470 forward $81 $-1 #
edge $-1 $322 -48.918729209265422 $468 48.918729209265422 $314 $471 forward 7 unknown #
coedge $-1 $327 $326 $195 $320 reversed $311 $-1 #
edge $-1 $472 -48.918729209265422 $321 48.918729209265422 $319 $473 forward 7 unknown #
vertex $-1 $197 $474 #
vertex $-1 $333 $475 #
straight-curve $-1 48.918729209265422 0 -7.7278637252880085 0 -1 0 I I #
coedge $-1 $313 $315 $198 $325 reversed $191 $-1 #
edge $-1 $328 -29.163278053912581 $331 29.163278053912581 $324 $476 forward 7 unknown #
coedge $-1 $319 $199 $204 $334 forward $311 $-1 #
coedge $-1 $199 $319 $313 $467 reversed $311 $-1 #
vertex $-1 $200 $477 #
straight-curve $-1 0 29.163278053912581 7.7278637252880085 -1 0 0 I I #
coedge $-1 $201 $314 $203 $333 reversed $126 $-1 #
vertex $-1 $325 $478 #
straight-curve $-1 0 -29.163278053912581 7.7278637252880085 1 0 0 I I #
edge $-1 $206 -7.7278637252880085 $322 7.7278637252880085 $203 $479 forward 7 unknown #
edge $-1 $207 -7.7278637252880085 $321 7.7278637252880085 $204 $480 forward 7 unknown #
point $-1 48.918729209265422 -29.163278053912581 7.7278637252880085 #
point $-1 48.918729209265422 29.163278053912581 7.7278637252880085 #
face $-1 $-1 $224 $31 $-1 $481 reversed single #
loop $-1 $-1 $353 $209 #
plane-surface $-1 0 5.0232623608818967 0 0 -1 0 0 0 -1 forward_v I I I I #
coedge $-1 $482 $351 $354 $483 forward $210 $-1 #
coedge $-1 $357 $212 $213 $345 reversed $134 $-1 #
coedge $-1 $351 $482 $212 $343 reversed $210 $-1 #
edge $-1 $358 -1.5 $484 1.5 $342 $485 forward 7 unknown #
coedge $-1 $214 $213 $482 $486 forward $85 $-1 #
edge $-1 $349 -48.918729209265422 $484 48.918729209265422 $341 $487 forward 7 unknown #
coedge $-1 $354 $353 $214 $347 reversed $338 $-1 #
edge $-1 $488 -48.918729209265422 $348 48.918729209265422 $346 $489 forward 7 unknown #
vertex $-1 $216 $490 #
vertex $-1 $360 $491 #
straight-curve $-1 48.918729209265422 0 -1.5 0 -1 0 I I #
coedge $-1 $340 $342 $217 $352 reversed $210 $-1 #
edge $-1 $355 -5.0232623608818967 $358 5.0232623608818967 $351 $492 forward 7 unknown #
coedge $-1 $346 $218 $223 $361 forward $338 $-1 #
coedge $-1 $218 $346 $340 $483 reversed $338 $-1 #
vertex $-1 $219 $493 #
straight-curve $-1 0 5.0232623608818967 1.5 -1 0 0 I I #
coedge $-1 $220 $341 $222 $360 reversed $134 $-1 #
vertex $-1 $352 $494 #
straight-curve $-1 0 -5.0232623608818967 1.5 1 0 0 I I #
edge $-1 $225 -1.5 $349 1.5 $222 $495 forward 7 unknown #
edge $-1 $226 -1.5 $348 1.5 $223 $496 forward 7 unknown #
point $-1 48.918729209265422 -5.0232623608818967 1.5 #
point $-1 48.918729209265422 5.0232623608818967 1.5 #
face $-1 $-1 $243 $32 $-1 $497 reversed single #
loop $-1 $-1 $380 $228 #
plane-surface $-1 0 5.0232623608818976 0 0 -1 0 0 0 -1 forward_v I I I I #
coedge $-1 $498 $378 $381 $499 forward $229 $-1 #
coedge $-1 $384 $231 $232 $372 reversed $142 $-1 #
coedge $-1 $378 $498 $231 $370 reversed $229 $-1 #
edge $-1 $385 -1.5 $500 1.5 $369 $501 forward 7 unknown #
coedge $-1 $233 $232 $498 $502 forward $89 $-1 #
edge $-1 $376 -48.918729209265422 $500 48.918729209265422 $368 $503 forward 7 unknown #
coedge $-1 $381 $380 $233 $374 reversed $365 $-1 #
edge $-1 $504 -48.918729209265422 $375 48.918729209265422 $373 $505 forward 7 unknown #
vertex $-1 $235 $506 #
vertex $-1 $387 $507 #
straight-curve $-1 48.918729209265422 0 -1.5 0 -1 0 I I #
coedge $-1 $367 $369 $236 $379 reversed $229 $-1 #
edge $-1 $382 -5.0232623608818976 $385 5.0232623608818976 $378 $508 forward 7 unknown #
coedge $-1 $373 $237 $242 $388 forward $365 $-1 #
coedge $-1 $237 $373 $367 $499 reversed $365 $-1 #
vertex $-1 $238 $509 #
straight-curve $-1 0 5.0232623608818976 1.5 -1 0 0 I I #
coedge $-1 $239 $368 $241 $387 reversed $142 $-1 #
vertex $-1 $379 $510 #
straight-curve $-1 0 -5.0232623608818976 1.5 1 0 0 I I #
edge $-1 $244 -1.5 $376 1.5 $241 $511 forward 7 unknown #
edge $-1 $245 -1.5 $375 1.5 $242 $512 forward 7 unknown #
point $-1 48.918729209265422 -5.0232623608818976 1.5 #
point $-1 48.918729209265422 5.0232623608818976 1.5 #
face $-1 $-1 $262 $33 $-1 $513 reversed single #
loop $-1 $-1 $407 $247 #
plane-surface $-1 0 3.5295268087327365 0 0 -1 0 0 0 -1 forward_v I I I I #
coedge $-1 $514 $405 $408 $515 forward $248 $-1 #
coedge $-1 $411 $250 $251 $399 reversed $150 $-1 #
coedge $-1 $405 $514 $250 $397 reversed $248 $-1 #
edge $-1 $412 -97.837458418530844 $516 97.837458418530844 $396 $517 forward 7 unknown #
coedge $-1 $252 $251 $514 $518 forward $93 $-1 #
edge $-1 $403 -195.67491683706169 $516 195.67491683706169 $395 $519 forward 7 unknown #
coedge $-1 $408 $407 $252 $401 reversed $392 $-1 #
edge $-1 $520 -195.67491683706169 $402 195.67491683706169 $400 $521 forward 7 unknown #
vertex $-1 $254 $522 #
vertex $-1 $414 $523 #
straight-curve $-1 195.67491683706169 0 -97.837458418530844 0 -1 0 I I #
coedge $-1 $394 $396 $255 $406 reversed $248 $-1 #
edge $-1 $409 -3.5295268087327365 $412 3.5295268087327365 $405 $524 forward 7 unknown #
coedge $-1 $400 $256 $261 $415 forward $392 $-1 #
coedge $-1 $256 $400 $394 $515 reversed $392 $-1 #
vertex $-1 $257 $525 #
straight-curve $-1 0 3.5295268087327365 97.837458418530844 -1 0 0 I I #
coedge $-1 $258 $395 $260 $414 reversed $150 $-1 #
vertex $-1 $406 $526 #
straight-curve $-1 0 -3.5295268087327365 97.837458418530844 1 0 0 I I #
edge $-1 $263 -97.837458418530844 $403 97.837458418530844 $260 $527 forward 7 unknown #
edge $-1 $264 -97.837458418530844 $402 97.837458418530844 $261 $528 forward 7 unknown #
point $-1 195.67491683706169 -3.5295268087327365 97.837458418530844 #
point $-1 195.67491683706169 3.5295268087327365 97.837458418530844 #
coedge $-1 $418 $418 $-1 $529 reversed $266 $-1 #
vertex $-1 $268 $530 #
ellipse-curve $-1 0 0 -0.25 0 0 -1 0.5 0 0 1 I I #
point $-1 0.5 0 -1.6324579607531966 #
coedge $-1 $422 $422 $-1 $531 reversed $271 $-1 #
vertex $-1 $273 $532 #
ellipse-curve $-1 0 0 -0.25 0 0 -1 0.5 0 0 1 I I #
point $-1 0.5 0 -1.6324579607531966 #
coedge $-1 $426 $426 $-1 $533 reversed $276 $-1 #
vertex $-1 $278 $534 #
ellipse-curve $-1 0 0 -0.25 0 0 -1 0.5 0 0 1 I I #
point $-1 0.5 0 -1.6324579607531966 #
face $-1 $-1 $296 $37 $-1 $535 reversed single #
loop $-1 $-1 $446 $281 #
plane-surface $-1 0 4.5584481472019105 0 0 -1 0 0 0 -1 forward_v I I I I #
coedge $-1 $536 $444 $447 $537 forward $282 $-1 #
coedge $-1 $450 $284 $285 $438 reversed $173 $-1 #
coedge $-1 $444 $536 $284 $436 reversed $282 $-1 #
edge $-1 $451 -97.837458418530844 $538 97.837458418530844 $435 $539 forward 7 unknown #
coedge $-1 $286 $285 $536 $540 forward $112 $-1 #
edge $-1 $442 -195.67491683706169 $538 195.67491683706169 $434 $541 forward 7 unknown #
coedge $-1 $447 $446 $286 $440 reversed $431 $-1 #
edge $-1 $542 -195.67491683706169 $441 195.67491683706169 $439 $543 forward 7 unknown #
vertex $-1 $288 $544 #
vertex $-1 $453 $545 #
straight-curve $-1 195.67491683706169 0 -97.837458418530844 0 -1 0 I I #
coedge $-1 $433 $435 $289 $445 reversed $282 $-1 #
edge $-1 $448 -4.5584481472019105 $451 4.5584481472019105 $444 $546 forward 7 unknown #
coedge $-1 $439 $290 $295 $454 forward $431 $-1 #
coedge $-1 $290 $439 $433 $537 reversed $431 $-1 #
vertex $-1 $291 $547 #
straight-curve $-1 0 4.5584481472019105 97.837458418530844 -1 0 0 I I #
coedge $-1 $292 $434 $294 $453 reversed $173 $-1 #
vertex $-1 $445 $548 #
straight-curve $-1 0 -4.5584481472019105 97.837458418530844 1 0 0 I I #
edge $-1 $297 -97.837458418530844 $442 97.837458418530844 $294 $549 forward 7 unknown #
edge $-1 $298 -97.837458418530844 $441 97.837458418530844 $295 $550 forward 7 unknown #
point $-1 195.67491683706169 -4.5584481472019105 97.837458418530844 #
point $-1 195.67491683706169 4.5584481472019105 97.837458418530844 #
coedge $-1 $457 $457 $-1 $551 reversed $300 $-1 #
vertex $-1 $302 $552 #
ellipse-curve $-1 0 0 -0.5 0 0 -1 1 0 0 1 I I #
point $-1 1 0 -2.1260567033906064 #
coedge $-1 $461 $461 $-1 $553 reversed $305 $-1 #
vertex $-1 $307 $554 #
ellipse-curve $-1 0 0 -0.5 0 0 -1 1 0 0 1 I I #
point $-1 1 0 -2.1260567033906064 #
plane-surface $-1 48.918729209265422 0 0 -1 0 0 0 0 1 forward_v I I I I #
coedge $-1 $315 $313 $317 $470 reversed $191 $-1 #
edge $-1 $328 -7.7278637252880085 $472 7.7278637252880085 $327 $555 forward 7 unknown #
vertex $-1 $470 $556 #
straight-curve $-1 -48.918729209265422 -29.163278053912581 0 0 0 -1 I I #
edge $-1 $468 -29.163278053912581 $472 29.163278053912581 $466 $557 forward 7 unknown #
straight-curve $-1 0 -29.163278053912581 -7.7278637252880085 -1 0 0 I I #
vertex $-1 $320 $558 #
straight-curve $-1 0 29.163278053912581 -7.7278637252880085 1 0 0 I I #
point $-1 48.918729209265422 29.163278053912581 -7.7278637252880085 #
point $-1 48.918729209265422 -29.163278053912581 -7.7278637252880085 #
straight-curve $-1 -48.918729209265422 0 7.7278637252880085 0 -1 0 I I #
point $-1 -48.918729209265422 29.163278053912581 7.7278637252880085 #
point $-1 -48.918729209265422 -29.163278053912581 7.7278637252880085 #
straight-curve $-1 48.918729209265422 -29.163278053912581 0 0 0 -1 I I #
straight-curve $-1 48.918729209265422 29.163278053912581 0 0 0 -1 I I #
plane-surface $-1 48.918729209265422 0 0 -1 0 0 0 0 1 forward_v I I I I #
coedge $-1 $342 $340 $344 $486 reversed $210 $-1 #
edge $-1 $355 -1.5 $488 1.5 $354 $559 forward 7 unknown #
vertex $-1 $486 $560 #
straight-curve $-1 -48.918729209265422 -5.0232623608818967 0 0 0 -1 I I #
edge $-1 $484 -5.0232623608818967 $488 5.0232623608818967 $482 $561 forward 7 unknown #
straight-curve $-1 0 -5.0232623608818967 -1.5 -1 0 0 I I #
vertex $-1 $347 $562 #
straight-curve $-1 0 5.0232623608818967 -1.5 1 0 0 I I #
point $-1 48.918729209265422 5.0232623608818967 -1.5 #
point $-1 48.918729209265422 -5.0232623608818967 -1.5 #
straight-curve $-1 -48.918729209265422 0 1.5 0 -1 0 I I #
point $-1 -48.918729209265422 5.0232623608818967 1.5 #
point $-1 -48.918729209265422 -5.0232623608818967 1.5 #
straight-curve $-1 48.918729209265422 -5.0232623608818967 0 0 0 -1 I I #
straight-curve $-1 48.918729209265422 5.0232623608818967 0 0 0 -1 I I #
plane-surface $-1 48.918729209265422 0 0 -1 0 0 0 0 1 forward_v I I I I #
coedge $-1 $369 $367 $371 $502 reversed $229 $-1 #
edge $-1 $382 -1.5 $504 1.5 $381 $563 forward 7 unknown #
vertex $-1 $502 $564 #
straight-curve $-1 -48.918729209265422 -5.0232623608818976 0 0 0 -1 I I #
edge $-1 $500 -5.0232623608818976 $504 5.0232623608818976 $498 $565 forward 7 unknown #
straight-curve $-1 0 -5.0232623608818976 -1.5 -1 0 0 I I #
vertex $-1 $374 $566 #
straight-curve $-1 0 5.0232623608818976 -1.5 1 0 0 I I #
point $-1 48.918729209265422 5.0232623608818976 -1.5 #
point $-1 48.918729209265422 -5.0232623608818976 -1.5 #
straight-curve $-1 -48.918729209265422 0 1.5 0 -1 0 I I #
point $-1 -48.918729209265422 5.0232623608818976 1.5 #
point $-1 -48.918729209265422 -5.0232623608818976 1.5 #
straight-curve $-1 48.918729209265422 -5.0232623608818976 0 0 0 -1 I I #
straight-curve $-1 48.918729209265422 5.0232623608818976 0 0 0 -1 I I #
plane-surface $-1 195.67491683706169 0 0 -1 0 0 0 0 1 forward_v I I I I #
coedge $-1 $396 $394 $398 $518 reversed $248 $-1 #
edge $-1 $409 -97.837458418530844 $520 97.837458418530844 $408 $567 forward 7 unknown #
vertex $-1 $518 $568 #
straight-curve $-1 -195.67491683706169 -3.5295268087327365 0 0 0 -1 I I #
edge $-1 $516 -3.5295268087327365 $520 3.5295268087327365 $514 $569 forward 7 unknown #
straight-curve $-1 0 -3.5295268087327365 -97.837458418530844 -1 0 0 I I #
vertex $-1 $401 $570 #
straight-curve $-1 0 3.5295268087327365 -97.837458418530844 1 0 0 I I #
point $-1 195.67491683706169 3.5295268087327365 -97.837458418530844 #
point $-1 195.67491683706169 -3.5295268087327365 -97.837458418530844 #
straight-curve $-1 -195.67491683706169 0 97.837458418530844 0 -1 0 I I #
point $-1 -195.67491683706169 3.5295268087327365 97.837458418530844 #
point $-1 -195.67491683706169 -3.5295268087327365 97.837458418530844 #
straight-curve $-1 195.67491683706169 -3.5295268087327365 0 0 0 -1 I I #
straight-curve $-1 195.67491683706169 3.5295268087327365 0 0 0 -1 I I #
edge $-1 $571 1 $571 0 $418 $-1 forward 7 unknown #
point $-1 0.5 0 -0.25 #
edge $-1 $572 1 $572 0 $422 $-1 forward 7 unknown #
point $-1 0.5 0 -0.25 #
edge $-1 $573 1 $573 0 $426 $-1 forward 7 unknown #
point $-1 0.5 0 -0.25 #
plane-surface $-1 195.67491683706169 0 0 -1 0 0 0 0 1 forward_v I I I I #
coedge $-1 $435 $433 $437 $540 reversed $282 $-1 #
edge $-1 $448 -97.837458418530844 $542 97.837458418530844 $447 $574 forward 7 unknown #
vertex $-1 $540 $575 #
straight-curve $-1 -195.67491683706169 -4.5584481472019105 0 0 0 -1 I I #
edge $-1 $538 -4.5584481472019105 $542 4.5584481472019105 $536 $576 forward 7 unknown #
straight-curve $-1 0 -4.5584481472019105 -97.837458418530844 -1 0 0 I I #
vertex $-1 $440 $577 #
straight-curve $-1 0 4.5584481472019105 -97.837458418530844 1 0 0 I I #
point $-1 195.67491683706169 4.5584481472019105 -97.837458418530844 #
point $-1 195.67491683706169 -4.5584481472019105 -97.837458418530844 #
straight-curve $-1 -195.67491683706169 0 97.837458418530844 0 -1 0 I I #
point $-1 -195.67491683706169 4.5584481472019105 97.837458418530844 #
point $-1 -195.67491683706169 -4.5584481472019105 97.837458418530844 #
straight-curve $-1 195.67491683706169 -4.5584481472019105 0 0 0 -1 I I #
straight-curve $-1 195.67491683706169 4.5584481472019105 0 0 0 -1 I I #
edge $-1 $578 1 $578 0 $457 $-1 forward 7 unknown #
point $-1 1 0 -0.5 #
edge $-1 $579 1 $579 0 $461 $-1 forward 7 unknown #
point $-1 1 0 -0.5 #
straight-curve $-1 -48.918729209265422 29.163278053912581 0 0 0 -1 I I #
point $-1 -48.918729209265422 -29.163278053912581 -7.7278637252880085 #
straight-curve $-1 -48.918729209265422 0 -7.7278637252880085 0 1 0 I I #
point $-1 -48.918729209265422 29.163278053912581 -7.7278637252880085 #
straight-curve $-1 -48.918729209265422 5.0232623608818967 0 0 0 -1 I I #
point $-1 -48.918729209265422 -5.0232623608818967 -1.5 #
straight-curve $-1 -48.918729209265422 0 -1.5 0 1 0 I I #
point $-1 -48.918729209265422 5.0232623608818967 -1.5 #
straight-curve $-1 -48.918729209265422 5.0232623608818976 0 0 0 -1 I I #
point $-1 -48.918729209265422 -5.0232623608818976 -1.5 #
straight-curve $-1 -48.918729209265422 0 -1.5 0 1 0 I I #
point $-1 -48.918729209265422 5.0232623608818976 -1.5 #
straight-curve $-1 -195.67491683706169 3.5295268087327365 0 0 0 -1 I I #
point $-1 -195.67491683706169 -3.5295268087327365 -97.837458418530844 #
straight-curve $-1 -195.67491683706169 0 -97.837458418530844 0 1 0 I I #
point $-1 -195.67491683706169 3.5295268087327365 -97.837458418530844 #
vertex $-1 $529 $580 #
vertex $-1 $531 $581 #
vertex $-1 $533 $582 #
straight-curve $-1 -195.67491683706169 4.5584481472019105 0 0 0 -1 I I #
point $-1 -195.67491683706169 -4.5584481472019105 -97.837458418530844 #
straight-curve $-1 -195.67491683706169 0 -97.837458418530844 0 1 0 I I #
point $-1 -195.67491683706169 4.5584481472019105 -97.837458418530844 #
vertex $-1 $551 $583 #
vertex $-1 $553 $584 #
point $-1 0 0 0.25 #
point $-1 0 0 0.25 #
point $-1 0 0 0.25 #
point $-1 0 0 0.5 #
point $-1 0 0 0.5 #
End-of-ACIS-data 