500 0 5 0           
7 Unknown 11 ACIS 5.0 NT 24 Thu Mar 25 17:31:39 1999 
-1 9.9999999999999995e-007 1e-010 
body $-1 $5 $-1 $6 #
body $-1 $7 $-1 $8 #
body $-1 $9 $-1 $10 #
body $-1 $11 $-1 $12 #
body $-1 $13 $-1 $14 #
lump $-1 $-1 $15 $0 #
transform $-1 1 0 0 0 1 0 0 0 1 59.845576342051459 31.394864788711004 8.6304978654521971 1 rotate no_reflect no_shear #
lump $-1 $-1 $16 $1 #
transform $-1 1 0 0 0 1 0 0 0 1 59.845576342051459 31.394864788711004 8.6304978654521971 1 rotate no_reflect no_shear #
lump $-1 $-1 $17 $2 #
transform $-1 1 0 0 0 1 0 0 0 1 59.845576342051459 31.394864788711004 8.6304978654521971 1 rotate no_reflect no_shear #
lump $-1 $-1 $18 $3 #
transform $-1 1 0 0 0 1 0 0 0 1 59.845576342051459 31.394864788711004 8.6304978654521971 1 rotate no_reflect no_shear #
lump $-1 $-1 $19 $4 #
transform $-1 1 0 0 0 1 0 0 0 1 59.845576342051459 31.394864788711004 8.6304978654521971 1 rotate no_reflect no_shear #
shell $-1 $-1 $-1 $20 $-1 $5 #
shell $-1 $-1 $-1 $21 $-1 $7 #
shell $-1 $-1 $-1 $22 $-1 $9 #
shell $-1 $-1 $-1 $23 $-1 $11 #
shell $-1 $-1 $-1 $24 $-1 $13 #
face $-1 $25 $26 $15 $-1 $27 forward single #
face $-1 $28 $29 $16 $-1 $30 reversed single #
face $-1 $31 $32 $17 $-1 $33 reversed single #
face $-1 $34 $35 $18 $-1 $36 forward single #
face $-1 $37 $38 $19 $-1 $39 forward single #
face $-1 $40 $41 $15 $-1 $42 reversed single #
loop $-1 $-1 $43 $20 #
plane-surface $-1 0 0 8.6304978654521971 0 0 1 1 0 0 forward_v I I I I #
face $-1 $44 $45 $16 $-1 $46 reversed single #
loop $-1 $-1 $47 $21 #
plane-surface $-1 -55.56231084863326 -26.636620331222062 0 0 -1 0 0 0 -1 forward_v I I I I #
face $-1 $48 $49 $17 $-1 $50 reversed single #
loop $-1 $-1 $51 $22 #
plane-surface $-1 6.8227246530376995 -116.02929148164989 89.519333122160546 -1 0 0 0 -0.70710678939079041 0.70710677298230451 forward_v I I I I #
face $-1 $52 $53 $18 $-1 $54 forward single #
loop $-1 $55 $56 $23 #
cone-surface $-1 -15.183069523256364 -28.57524359565052 5.8108766509045227 0 0.70710678939079041 -0.70710677298230451 1 0 0 1 I I 0 1 1 forward I I I I #
face $-1 $57 $58 $19 $-1 $59 forward single #
loop $-1 $60 $61 $24 #
cone-surface $-1 -1.9795930174799352 -28.57524359565052 5.8108766509045227 0 0.70710678939079041 -0.70710677298230451 1 0 0 1 I I 0 1 1 forward I I I I #
face $-1 $62 $63 $15 $-1 $64 reversed single #
loop $-1 $-1 $65 $25 #
plane-surface $-1 0 0 -8.6304978654521971 0 0 1 1 0 0 forward_v I I I I #
coedge $-1 $66 $67 $68 $69 forward $26 $-1 #
face $-1 $70 $71 $16 $-1 $72 forward single #
loop $-1 $-1 $73 $28 #
plane-surface $-1 -51.279045355215061 -29.015742559966533 0 -1 0 0 0 0 1 forward_v I I I I #
coedge $-1 $74 $75 $76 $77 forward $29 $-1 #
face $-1 $78 $79 $17 $-1 $80 reversed single #
loop $-1 $-1 $81 $31 #
plane-surface $-1 -8.581331270368139 -31.39486478871099 4.884908393172239 0 -0.70710678939079041 0.70710677298230451 1 0 0 forward_v I I I I #
coedge $-1 $82 $83 $84 $85 reversed $32 $-1 #
face $-1 $-1 $86 $18 $-1 $87 forward single #
loop $-1 $88 $89 $34 #
cone-surface $-1 -15.183069523256364 -27.274863700576219 4.5104967860056711 0 0.70710678939079041 -0.70710677298230451 0.5 0 0 1 I I -0.70710678118654746 0.70710678118654746 0.5 forward I I I I #
loop $-1 $-1 $90 $23 #
coedge $-1 $56 $56 $91 $92 reversed $35 $-1 #
face $-1 $-1 $93 $19 $-1 $94 forward single #
loop $-1 $95 $96 $37 #
cone-surface $-1 -1.9795930174799352 -27.274863700576219 4.5104967860056711 0 0.70710678939079041 -0.70710677298230451 0.5 0 0 1 I I -0.70710678118654746 0.70710678118654746 0.5 forward I I I I #
loop $-1 $-1 $97 $24 #
coedge $-1 $61 $61 $98 $99 reversed $38 $-1 #
face $-1 $100 $101 $15 $-1 $102 reversed single #
loop $-1 $-1 $103 $40 #
plane-surface $-1 0 -31.394864788711004 0 0 1 0 0 0 1 forward_v I I I I #
coedge $-1 $104 $105 $106 $107 forward $41 $-1 #
coedge $-1 $108 $43 $109 $110 forward $26 $-1 #
coedge $-1 $43 $108 $111 $112 forward $26 $-1 #
coedge $-1 $113 $114 $43 $69 reversed $115 $-1 #
edge $-1 $116 -31.394864788711004 $117 31.394864788711004 $68 $118 forward 7 unknown #
face $-1 $119 $120 $16 $-1 $121 reversed single #
loop $-1 $-1 $122 $44 #
plane-surface $-1 0 0 8.6304978654521971 0 0 1 1 0 0 forward_v I I I I #
coedge $-1 $123 $124 $125 $126 reversed $45 $-1 #
coedge $-1 $127 $47 $128 $129 reversed $29 $-1 #
coedge $-1 $47 $127 $130 $131 reversed $29 $-1 #
coedge $-1 $124 $123 $47 $77 reversed $45 $-1 #
edge $-1 $132 -8.6304978654521971 $133 8.6304978654521971 $76 $134 forward 7 unknown #
face $-1 $135 $136 $17 $-1 $137 forward single #
loop $-1 $-1 $138 $48 #
plane-surface $-1 -23.985387193773978 -116.02929148164989 89.519333122160546 1 0 0 0 0.70710678939079041 -0.70710677298230451 forward_v I I I I #
coedge $-1 $139 $140 $141 $142 reversed $49 $-1 #
coedge $-1 $83 $51 $143 $144 reversed $32 $-1 #
coedge $-1 $51 $82 $139 $145 reversed $32 $-1 #
coedge $-1 $141 $146 $51 $85 forward $136 $-1 #
edge $-1 $147 26.619780952113942 $148 30.365370337477124 $84 $149 forward 7 unknown #
loop $-1 $-1 $91 $52 #
plane-surface $-1 -8.581331270368139 -31.39486478871099 4.884908393172239 0 -0.70710678939079041 0.70710677298230451 1 0 0 forward_v I I I I #
loop $-1 $-1 $150 $34 #
coedge $-1 $89 $89 $90 $151 reversed $53 $-1 #
coedge $-1 $90 $90 $89 $151 forward $55 $-1 #
coedge $-1 $91 $91 $56 $92 forward $86 $-1 #
edge $-1 $152 -1.2560737483420732e-015 $152 6.2831853071795996 $91 $153 forward 7 unknown #
loop $-1 $-1 $98 $57 #
plane-surface $-1 -8.581331270368139 -31.39486478871099 4.884908393172239 0 -0.70710678939079041 0.70710677298230451 1 0 0 forward_v I I I I #
loop $-1 $-1 $154 $37 #
coedge $-1 $96 $96 $97 $155 reversed $58 $-1 #
coedge $-1 $97 $97 $96 $155 forward $60 $-1 #
coedge $-1 $98 $98 $61 $99 forward $93 $-1 #
edge $-1 $156 -1.2560737483420732e-015 $156 6.2831853071795996 $98 $157 forward 7 unknown #
face $-1 $158 $159 $15 $-1 $160 reversed single #
loop $-1 $-1 $161 $62 #
plane-surface $-1 -59.845576342051459 0 0 1 0 0 0 0 -1 forward_v I I I I #
coedge $-1 $162 $111 $163 $164 forward $63 $-1 #
coedge $-1 $165 $65 $162 $166 forward $41 $-1 #
coedge $-1 $65 $165 $167 $168 forward $41 $-1 #
coedge $-1 $114 $113 $65 $107 reversed $115 $-1 #
edge $-1 $169 -31.394864788711004 $170 31.394864788711004 $106 $171 forward 7 unknown #
coedge $-1 $67 $66 $172 $173 forward $26 $-1 #
coedge $-1 $174 $175 $66 $110 reversed $159 $-1 #
edge $-1 $117 -59.845576342051459 $176 59.845576342051459 $109 $177 forward 7 unknown #
coedge $-1 $103 $178 $67 $112 reversed $63 $-1 #
edge $-1 $179 -59.845576342051459 $116 59.845576342051459 $111 $180 forward 7 unknown #
coedge $-1 $106 $68 $178 $181 forward $115 $-1 #
coedge $-1 $68 $106 $174 $182 reversed $115 $-1 #
loop $-1 $-1 $113 $158 #
vertex $-1 $69 $183 #
vertex $-1 $69 $184 #
straight-curve $-1 59.845576342051459 0 8.6304978654521971 0 1 0 I I #
face $-1 $185 $186 $16 $-1 $187 reversed single #
loop $-1 $-1 $188 $70 #
plane-surface $-1 -59.845576342051459 0 0 1 0 0 0 0 -1 forward_v I I I I #
coedge $-1 $130 $189 $124 $190 forward $71 $-1 #
coedge $-1 $76 $73 $191 $192 reversed $45 $-1 #
coedge $-1 $73 $76 $122 $190 reversed $45 $-1 #
coedge $-1 $193 $194 $73 $126 forward $195 $-1 #
edge $-1 $196 -8.6304978654521971 $197 8.6304978654521971 $125 $198 forward 7 unknown #
coedge $-1 $75 $74 $188 $199 reversed $29 $-1 #
coedge $-1 $191 $200 $74 $129 forward $186 $-1 #
edge $-1 $201 -32.064420917734829 $133 -23.497889930898431 $128 $202 forward 7 unknown #
coedge $-1 $203 $122 $75 $131 forward $71 $-1 #
edge $-1 $132 23.497889930898431 $204 32.064420917734829 $130 $205 forward 7 unknown #
vertex $-1 $131 $206 #
vertex $-1 $129 $207 #
straight-curve $-1 -51.279045355215061 -26.636620331222062 0 0 0 -1 I I #
face $-1 $-1 $208 $17 $-1 $209 reversed single #
loop $-1 $-1 $84 $78 #
plane-surface $-1 0 0 8.6304978654521971 0 0 1 1 0 0 forward_v I I I I #
coedge $-1 $210 $211 $212 $213 reversed $79 $-1 #
coedge $-1 $214 $81 $83 $145 forward $49 $-1 #
coedge $-1 $81 $214 $210 $215 forward $49 $-1 #
coedge $-1 $212 $84 $81 $142 forward $136 $-1 #
edge $-1 $148 -11.113390288221769 $216 19.694721558589908 $141 $217 forward 7 unknown #
coedge $-1 $218 $219 $82 $144 forward $208 $-1 #
edge $-1 $220 -39.874758167908048 $147 -36.129168695628074 $143 $221 forward 7 unknown #
edge $-1 $148 -5.2970633693207505 $220 2.0097183471152325e-014 $83 $222 forward 7 unknown #
coedge $-1 $84 $212 $218 $223 forward $136 $-1 #
vertex $-1 $144 $224 #
vertex $-1 $85 $225 #
straight-curve $-1 6.8227246530376995 -58.014645740824946 8.6304978654521989 0 1 0 I I #
coedge $-1 $150 $150 $-1 $226 reversed $88 $-1 #
edge $-1 $227 0 $227 6.2831853071796004 $89 $228 forward 7 unknown #
vertex $-1 $92 $229 #
ellipse-curve $-1 -15.183069523256364 -29.522070096029413 6.7577031293122101 0 -0.70710678939079041 0.70710677298230451 1 0 0 1 I I #
coedge $-1 $154 $154 $-1 $230 reversed $95 $-1 #
edge $-1 $231 0 $231 6.2831853071796004 $96 $232 forward 7 unknown #
vertex $-1 $99 $233 #
ellipse-curve $-1 -1.9795930174799352 -29.522070096029413 6.7577031293122101 0 -0.70710678939079041 0.70710677298230451 1 0 0 1 I I #
face $-1 $-1 $115 $15 $-1 $234 reversed single #
loop $-1 $-1 $174 $100 #
plane-surface $-1 0 31.394864788711004 0 0 -1 0 0 0 -1 forward_v I I I I #
coedge $-1 $235 $172 $175 $236 forward $101 $-1 #
coedge $-1 $178 $103 $104 $166 reversed $63 $-1 #
coedge $-1 $172 $235 $103 $164 reversed $101 $-1 #
edge $-1 $179 -8.6304978654521971 $237 8.6304978654521971 $163 $238 forward 7 unknown #
coedge $-1 $105 $104 $235 $239 forward $41 $-1 #
edge $-1 $170 -59.845576342051459 $237 59.845576342051459 $162 $240 forward 7 unknown #
coedge $-1 $175 $174 $105 $168 reversed $159 $-1 #
edge $-1 $241 -59.845576342051459 $169 59.845576342051459 $167 $242 forward 7 unknown #
vertex $-1 $107 $243 #
vertex $-1 $181 $244 #
straight-curve $-1 59.845576342051459 0 -8.6304978654521971 0 -1 0 I I #
coedge $-1 $161 $163 $108 $173 reversed $101 $-1 #
edge $-1 $176 -31.394864788711004 $179 31.394864788711004 $172 $245 forward 7 unknown #
coedge $-1 $167 $109 $114 $182 forward $159 $-1 #
coedge $-1 $109 $167 $161 $236 reversed $159 $-1 #
vertex $-1 $110 $246 #
straight-curve $-1 0 31.394864788711004 8.6304978654521971 -1 0 0 I I #
coedge $-1 $111 $162 $113 $181 reversed $63 $-1 #
vertex $-1 $173 $247 #
straight-curve $-1 0 -31.394864788711004 8.6304978654521971 1 0 0 I I #
edge $-1 $116 -8.6304978654521971 $170 8.6304978654521971 $113 $248 forward 7 unknown #
edge $-1 $117 -8.6304978654521971 $169 8.6304978654521971 $114 $249 forward 7 unknown #
point $-1 59.845576342051459 -31.394864788711004 8.6304978654521971 #
point $-1 59.845576342051459 31.394864788711004 8.6304978654521971 #
face $-1 $-1 $195 $16 $-1 $250 reversed single #
loop $-1 $-1 $191 $119 #
plane-surface $-1 0 0 -8.6304978654521971 0 0 1 1 0 0 forward_v I I I I #
coedge $-1 $251 $252 $127 $199 forward $120 $-1 #
coedge $-1 $122 $203 $193 $253 forward $71 $-1 #
edge $-1 $197 -16.886993508727738 $132 -12.128749051238795 $122 $254 forward 7 unknown #
coedge $-1 $255 $128 $123 $192 forward $186 $-1 #
edge $-1 $133 12.128749051238795 $196 16.886993508727738 $191 $256 forward 7 unknown #
coedge $-1 $257 $125 $189 $253 reversed $195 $-1 #
coedge $-1 $125 $257 $255 $258 reversed $195 $-1 #
loop $-1 $-1 $125 $185 #
vertex $-1 $258 $259 #
vertex $-1 $126 $260 #
straight-curve $-1 -51.279045355215061 -31.394864788711004 0 0 0 1 I I #
edge $-1 $204 -8.6304978654521971 $201 8.6304978654521971 $188 $261 forward 7 unknown #
coedge $-1 $128 $255 $251 $262 forward $186 $-1 #
vertex $-1 $129 $263 #
straight-curve $-1 -27.78115542431663 -26.636620331222062 -8.6304978654521971 1 0 0 I I #
coedge $-1 $189 $130 $252 $264 forward $71 $-1 #
vertex $-1 $264 $265 #
straight-curve $-1 -27.78115542431663 -26.636620331222062 8.6304978654521971 -1 0 0 I I #
point $-1 -51.279045355215061 -26.636620331222062 8.6304978654521971 #
point $-1 -51.279045355215061 -26.636620331222062 -8.6304978654521971 #
loop $-1 $-1 $143 $135 #
plane-surface $-1 0 -31.394864788711004 0 0 1 0 0 0 1 forward_v I I I I #
coedge $-1 $211 $138 $140 $215 reversed $79 $-1 #
coedge $-1 $138 $210 $266 $267 reversed $79 $-1 #
coedge $-1 $146 $141 $138 $213 forward $136 $-1 #
edge $-1 $216 -30.365370337477124 $268 -26.619780952113942 $212 $269 forward 7 unknown #
coedge $-1 $140 $139 $219 $270 reversed $49 $-1 #
edge $-1 $271 -2.0097183471152325e-014 $216 5.2970633693207505 $210 $272 forward 7 unknown #
vertex $-1 $142 $273 #
straight-curve $-1 -4.2906656351840695 -27.649275403347822 8.6304978654521953 -1 0 0 I I #
coedge $-1 $266 $143 $146 $223 reversed $208 $-1 #
coedge $-1 $143 $266 $214 $270 forward $208 $-1 #
vertex $-1 $144 $274 #
straight-curve $-1 6.8227246530376995 -31.394864788711004 44.759666561080273 0 0 1 I I #
straight-curve $-1 6.8227246530376995 -31.39486478871099 4.884908393172239 0 -0.70710677298230451 -0.70710678939079041 I I #
edge $-1 $268 -23.985387193773978 $147 6.8227246530376995 $218 $275 forward 7 unknown #
point $-1 6.8227246530376995 -31.394864788711004 8.6304978654521971 #
point $-1 6.8227246530376995 -27.649275403347822 8.6304978654521971 #
edge $-1 $276 1 $276 0 $150 $-1 forward 7 unknown #
vertex $-1 $151 $277 #
ellipse-curve $-1 -15.183069523256364 -27.628417095271615 4.8640501724968237 0 -0.70710678939079041 0.70710677298230451 1 0 0 1 I I #
point $-1 -14.183069523256364 -29.522070096029427 6.7577031293122225 #
edge $-1 $278 1 $278 0 $154 $-1 forward 7 unknown #
vertex $-1 $155 $279 #
ellipse-curve $-1 -1.9795930174799352 -27.628417095271615 4.8640501724968237 0 -0.70710678939079041 0.70710677298230451 1 0 0 1 I I #
point $-1 -0.97959301747993521 -29.522070096029427 6.7577031293122225 #
plane-surface $-1 59.845576342051459 0 0 -1 0 0 0 0 1 forward_v I I I I #
coedge $-1 $163 $161 $165 $239 reversed $101 $-1 #
edge $-1 $176 -8.6304978654521971 $241 8.6304978654521971 $175 $280 forward 7 unknown #
vertex $-1 $239 $281 #
straight-curve $-1 -59.845576342051459 -31.394864788711004 0 0 0 -1 I I #
edge $-1 $237 -31.394864788711004 $241 31.394864788711004 $235 $282 forward 7 unknown #
straight-curve $-1 0 -31.394864788711004 -8.6304978654521971 -1 0 0 I I #
vertex $-1 $168 $283 #
straight-curve $-1 0 31.394864788711004 -8.6304978654521971 1 0 0 I I #
point $-1 59.845576342051459 31.394864788711004 -8.6304978654521971 #
point $-1 59.845576342051459 -31.394864788711004 -8.6304978654521971 #
straight-curve $-1 -59.845576342051459 0 8.6304978654521971 0 -1 0 I I #
point $-1 -59.845576342051459 31.394864788711004 8.6304978654521971 #
point $-1 -59.845576342051459 -31.394864788711004 8.6304978654521971 #
straight-curve $-1 59.845576342051459 -31.394864788711004 0 0 0 -1 I I #
straight-curve $-1 59.845576342051459 31.394864788711004 0 0 0 -1 I I #
plane-surface $-1 0 -31.394864788711004 0 0 1 0 0 0 1 forward_v I I I I #
coedge $-1 $284 $188 $200 $262 reversed $120 $-1 #
coedge $-1 $188 $284 $203 $264 reversed $120 $-1 #
edge $-1 $285 -59.845576342051459 $197 -51.279045355215061 $193 $286 forward 7 unknown #
straight-curve $-1 -51.279045355215061 -14.507871279983267 8.6304978654521971 0 1 0 I I #
coedge $-1 $200 $191 $194 $258 forward $186 $-1 #
straight-curve $-1 -51.279045355215061 -14.507871279983267 -8.6304978654521971 0 -1 0 I I #
coedge $-1 $194 $193 $284 $287 forward $195 $-1 #
edge $-1 $196 51.279045355215061 $288 59.845576342051459 $194 $289 forward 7 unknown #
point $-1 -51.279045355215061 -31.394864788711004 -8.6304978654521971 #
point $-1 -51.279045355215061 -31.394864788711004 8.6304978654521971 #
straight-curve $-1 -59.845576342051459 -26.636620331222062 0 0 0 -1 I I #
edge $-1 $288 -31.394864788711004 $201 -26.636620331222062 $251 $290 forward 7 unknown #
point $-1 -59.845576342051459 -26.636620331222062 -8.6304978654521971 #
edge $-1 $204 26.636620331222062 $285 31.394864788711004 $252 $291 forward 7 unknown #
point $-1 -59.845576342051459 -26.636620331222062 8.6304978654521971 #
coedge $-1 $219 $218 $211 $267 forward $208 $-1 #
edge $-1 $268 36.129168695628074 $271 39.874758167908048 $266 $292 forward 7 unknown #
vertex $-1 $223 $293 #
straight-curve $-1 -23.985387193773978 -58.014645740824946 8.6304978654521989 0 -1 0 I I #
edge $-1 $271 -19.694721558589908 $220 11.113390288221769 $219 $294 forward 7 unknown #
vertex $-1 $270 $295 #
straight-curve $-1 -23.985387193773978 -31.39486478871099 4.884908393172239 0 0.70710677298230451 0.70710678939079041 I I #
point $-1 -23.985387193773978 -27.649275403347822 8.6304978654521971 #
point $-1 6.8227246530376995 -31.394864788711004 4.8849083931722248 #
straight-curve $-1 0 -31.394864788711004 8.6304978654521971 1 0 0 I I #
vertex $-1 $226 $296 #
point $-1 -14.183069523256364 -27.628417095271615 4.8640501724968237 #
vertex $-1 $230 $297 #
point $-1 -0.97959301747993521 -27.628417095271615 4.8640501724968237 #
straight-curve $-1 -59.845576342051459 31.394864788711004 0 0 0 -1 I I #
point $-1 -59.845576342051459 -31.394864788711004 -8.6304978654521971 #
straight-curve $-1 -59.845576342051459 0 -8.6304978654521971 0 1 0 I I #
point $-1 -59.845576342051459 31.394864788711004 -8.6304978654521971 #
coedge $-1 $252 $251 $257 $287 reversed $120 $-1 #
vertex $-1 $264 $298 #
straight-curve $-1 0 -31.394864788711004 8.6304978654521971 1 0 0 I I #
edge $-1 $285 -8.6304978654521971 $288 8.6304978654521971 $284 $299 forward 7 unknown #
vertex $-1 $262 $300 #
straight-curve $-1 0 -31.394864788711004 -8.6304978654521971 -1 0 0 I I #
straight-curve $-1 -59.845576342051459 0 -8.6304978654521971 0 1 0 I I #
straight-curve $-1 -59.845576342051459 0 8.6304978654521971 0 -1 0 I I #
straight-curve $-1 -23.985387193773978 -31.394864788711004 44.759666561080273 0 0 -1 I I #
point $-1 -23.985387193773978 -31.394864788711004 8.6304978654521971 #
straight-curve $-1 -4.2906656351840695 -31.394864788711004 4.8849083931722248 1 0 0 I I #
point $-1 -23.985387193773978 -31.394864788711004 4.8849083931722248 #
point $-1 -15.183069523256364 -26.921310305880823 4.1569433995145184 #
point $-1 -1.9795930174799352 -26.921310305880823 4.1569433995145184 #
point $-1 -59.845576342051459 -31.394864788711004 8.6304978654521971 #
straight-curve $-1 -59.845576342051459 -31.394864788711004 0 0 0 -1 I I #
point $-1 -59.845576342051459 -31.394864788711004 -8.6304978654521971 #
End-of-ACIS-data 