500 0 11 0           
7 Unknown 11 ACIS 5.0 NT 24 Thu Mar 25 18:14:36 1999 
-1 9.9999999999999995e-007 1e-010 
body $-1 $11 $-1 $12 #
body $-1 $13 $-1 $14 #
body $-1 $15 $-1 $16 #
body $-1 $17 $-1 $18 #
body $-1 $19 $-1 $20 #
body $-1 $21 $-1 $22 #
body $-1 $23 $-1 $24 #
body $-1 $25 $-1 $26 #
body $-1 $27 $-1 $28 #
body $-1 $29 $-1 $30 #
body $-1 $31 $-1 $32 #
lump $-1 $-1 $33 $0 #
transform $-1 1 0 0 0 1 0 0 0 1 48.452406384472184 22.546996896566469 7.3639164826708283 1 rotate no_reflect no_shear #
lump $-1 $-1 $34 $1 #
transform $-1 1 0 0 0 1 0 0 0 1 48.452406384472184 22.546996896566469 7.3639164826708283 1 rotate no_reflect no_shear #
lump $-1 $-1 $35 $2 #
transform $-1 1 0 0 0 1 0 0 0 1 48.452406384472184 22.546996896566469 7.3639164826708283 1 rotate no_reflect no_shear #
lump $-1 $-1 $36 $3 #
transform $-1 1 0 0 0 1 0 0 0 1 48.452406384472184 22.546996896566469 7.3639164826708283 1 rotate no_reflect no_shear #
lump $-1 $-1 $37 $4 #
transform $-1 1 0 0 0 1 0 0 0 1 48.452406384472184 22.546996896566469 7.3639164826708283 1 rotate no_reflect no_shear #
lump $-1 $-1 $38 $5 #
transform $-1 1 0 0 0 1 0 0 0 1 48.452406384472184 22.546996896566469 7.3639164826708283 1 rotate no_reflect no_shear #
lump $-1 $-1 $39 $6 #
transform $-1 1 0 0 0 1 0 0 0 1 48.452406384472184 22.546996896566469 7.3639164826708283 1 rotate no_reflect no_shear #
lump $-1 $-1 $40 $7 #
transform $-1 1 0 0 0 1 0 0 0 1 48.452406384472184 22.546996896566469 7.3639164826708283 1 rotate no_reflect no_shear #
lump $-1 $-1 $41 $8 #
transform $-1 1 0 0 0 1 0 0 0 1 48.452406384472184 22.546996896566469 7.3639164826708283 1 rotate no_reflect no_shear #
lump $-1 $-1 $42 $9 #
transform $-1 1 0 0 0 1 0 0 0 1 48.452406384472184 22.546996896566469 7.3639164826708283 1 rotate no_reflect no_shear #
lump $-1 $-1 $43 $10 #
transform $-1 1 0 0 0 1 0 0 0 1 48.452406384472184 22.546996896566469 7.3639164826708283 1 rotate no_reflect no_shear #
shell $-1 $-1 $-1 $44 $-1 $11 #
shell $-1 $-1 $-1 $45 $-1 $13 #
shell $-1 $-1 $-1 $46 $-1 $15 #
shell $-1 $-1 $-1 $47 $-1 $17 #
shell $-1 $-1 $-1 $48 $-1 $19 #
shell $-1 $-1 $-1 $49 $-1 $21 #
shell $-1 $-1 $-1 $50 $-1 $23 #
shell $-1 $-1 $-1 $51 $-1 $25 #
shell $-1 $-1 $-1 $52 $-1 $27 #
shell $-1 $-1 $-1 $53 $-1 $29 #
shell $-1 $-1 $-1 $54 $-1 $31 #
face $-1 $55 $56 $33 $-1 $57 forward single #
face $-1 $58 $59 $34 $-1 $60 reversed single #
face $-1 $61 $62 $35 $-1 $63 forward single #
face $-1 $64 $65 $36 $-1 $66 forward single #
face $-1 $67 $68 $37 $-1 $69 reversed single #
face $-1 $70 $71 $38 $-1 $72 forward single #
face $-1 $73 $74 $39 $-1 $75 forward single #
face $-1 $76 $77 $40 $-1 $78 reversed single #
face $-1 $79 $80 $41 $-1 $81 forward single #
face $-1 $82 $83 $42 $-1 $84 forward single #
face $-1 $85 $86 $43 $-1 $87 forward single #
face $-1 $88 $89 $33 $-1 $90 reversed single #
loop $-1 $-1 $91 $44 #
plane-surface $-1 0 0 7.3639164826708283 0 0 1 1 0 0 forward_v I I I I #
face $-1 $92 $93 $34 $-1 $94 reversed single #
loop $-1 $-1 $95 $45 #
plane-surface $-1 -128.79013791375155 -12.115900493817637 54.636234374170201 0 1 0 -0.82903758062907751 0 0.55919289150049634 forward_v I I I I #
face $-1 $96 $97 $35 $-1 $98 forward single #
loop $-1 $99 $100 $46 #
cone-surface $-1 -45.705381716637952 -10.298383706314565 3.6262377563801631 0.82903758062907751 0 -0.55919289150049634 0.13979822287512408 0 0.20725939515726938 1 I I 0 1 0.25 forward I I I I #
face $-1 $101 $102 $36 $-1 $103 forward single #
loop $-1 $104 $105 $47 #
cone-surface $-1 -45.705381716637952 -7.57210852505996 3.6262377563801631 0.82903758062907751 0 -0.55919289150049634 0.13979822287512408 0 0.20725939515726938 1 I I 0 1 0.25 forward I I I I #
face $-1 $106 $107 $37 $-1 $108 reversed single #
loop $-1 $-1 $109 $48 #
plane-surface $-1 -128.79013791375155 10.431096402748832 54.636234374170201 0 1 0 -0.82903758062907751 0 0.55919289150049634 forward_v I I I I #
face $-1 $110 $111 $38 $-1 $112 forward single #
loop $-1 $113 $114 $49 #
cone-surface $-1 -45.705381716637952 12.248613190251902 3.6262377563801631 0.82903758062907751 0 -0.55919289150049634 0.13979822287512408 0 0.20725939515726938 1 I I 0 1 0.25 forward I I I I #
face $-1 $115 $116 $39 $-1 $117 forward single #
loop $-1 $118 $119 $50 #
cone-surface $-1 -45.705381716637952 14.974888371506509 3.6262377563801631 0.82903758062907751 0 -0.55919289150049634 0.13979822287512408 0 0.20725939515726938 1 I I 0 1 0.25 forward I I I I #
face $-1 $120 $121 $40 $-1 $122 reversed single #
loop $-1 $-1 $123 $51 #
plane-surface $-1 53.235178176887757 4.2230939314483162 140.7733003809729 0 -1 0 -0.73135370988377701 0 -0.68199835119979291 forward_v I I I I #
face $-1 $124 $125 $41 $-1 $126 forward single #
loop $-1 $127 $128 $52 #
cone-surface $-1 46.115600346753872 -1.9228698727237727 4.9532414635019153 -0.73135370988377701 0 -0.68199835119979291 0.34099917559989645 0 -0.36567685494188851 1 I I 0 1 0.5 forward I I I I #
face $-1 $129 $130 $42 $-1 $131 forward single #
loop $-1 $132 $133 $53 #
cone-surface $-1 46.115600346753872 0.38186655384076218 4.9532414635019153 -0.73135370988377701 0 -0.68199835119979291 0.34099917559989645 0 -0.36567685494188851 1 I I 0 1 0.5 forward I I I I #
face $-1 $134 $135 $43 $-1 $136 forward single #
loop $-1 $137 $138 $54 #
cone-surface $-1 46.115600346753872 2.6866029804052971 4.9532414635019153 -0.73135370988377701 0 -0.68199835119979291 0.34099917559989645 0 -0.36567685494188851 1 I I 0 1 0.5 forward I I I I #
face $-1 $139 $140 $33 $-1 $141 reversed single #
loop $-1 $-1 $142 $55 #
plane-surface $-1 0 0 -7.3639164826708283 0 0 1 1 0 0 forward_v I I I I #
coedge $-1 $143 $144 $145 $146 forward $56 $-1 #
face $-1 $147 $148 $34 $-1 $149 reversed single #
loop $-1 $-1 $150 $58 #
plane-surface $-1 -48.45240638447217 -8.9352461156872636 0.44775192158998323 -0.82903758062907751 0 0.55919289150049634 0.55919289150049634 0 0.82903758062907751 forward_v I I I I #
coedge $-1 $151 $152 $153 $154 reversed $59 $-1 #
face $-1 $-1 $155 $35 $-1 $156 forward single #
loop $-1 $157 $158 $61 #
cone-surface $-1 -45.18723322874478 -10.298383706314565 3.2767421991923529 0.82903758062907751 0 -0.55919289150049634 0.069899111437562042 0 0.10362969757863469 1 I I -0.70710678118654746 0.70710678118654746 0.125 forward I I I I #
loop $-1 $-1 $159 $46 #
coedge $-1 $100 $100 $160 $161 reversed $62 $-1 #
face $-1 $-1 $162 $36 $-1 $163 forward single #
loop $-1 $164 $165 $64 #
cone-surface $-1 -45.18723322874478 -7.57210852505996 3.2767421991923529 0.82903758062907751 0 -0.55919289150049634 0.069899111437562042 0 0.10362969757863469 1 I I -0.70710678118654746 0.70710678118654746 0.125 forward I I I I #
loop $-1 $-1 $166 $47 #
coedge $-1 $105 $105 $167 $168 reversed $65 $-1 #
face $-1 $169 $170 $37 $-1 $171 reversed single #
loop $-1 $-1 $172 $67 #
plane-surface $-1 -48.45240638447217 13.611750780879206 0.44775192158998323 -0.82903758062907751 0 0.55919289150049634 0.55919289150049634 0 0.82903758062907751 forward_v I I I I #
coedge $-1 $173 $174 $175 $176 reversed $68 $-1 #
face $-1 $-1 $177 $38 $-1 $178 forward single #
loop $-1 $179 $180 $70 #
cone-surface $-1 -45.18723322874478 12.248613190251902 3.2767421991923529 0.82903758062907751 0 -0.55919289150049634 0.069899111437562042 0 0.10362969757863469 1 I I -0.70710678118654746 0.70710678118654746 0.125 forward I I I I #
loop $-1 $-1 $181 $49 #
coedge $-1 $114 $114 $182 $183 reversed $71 $-1 #
face $-1 $-1 $184 $39 $-1 $185 forward single #
loop $-1 $186 $187 $73 #
cone-surface $-1 -45.18723322874478 14.974888371506509 3.2767421991923529 0.82903758062907751 0 -0.55919289150049634 0.069899111437562042 0 0.10362969757863469 1 I I -0.70710678118654746 0.70710678118654746 0.125 forward I I I I #
loop $-1 $-1 $188 $50 #
coedge $-1 $119 $119 $189 $190 reversed $74 $-1 #
face $-1 $191 $192 $40 $-1 $193 reversed single #
loop $-1 $-1 $194 $76 #
plane-surface $-1 -17.636516147272516 0.38186655384075863 74.684377849228198 0.73135370988377701 0 0.68199835119979291 0.68199835119979291 0 -0.73135370988377701 forward_v I I I I #
coedge $-1 $195 $196 $197 $198 reversed $77 $-1 #
face $-1 $-1 $199 $41 $-1 $200 forward single #
loop $-1 $201 $202 $79 #
cone-surface $-1 45.251744995013198 -1.9228698727237727 4.1476833353345155 -0.73135370988377701 0 -0.68199835119979291 0.17049958779994823 0 -0.18283842747094425 1 I I -0.70710678118654746 0.70710678118654746 0.25 forward I I I I #
loop $-1 $-1 $203 $52 #
coedge $-1 $128 $128 $204 $205 reversed $80 $-1 #
face $-1 $-1 $206 $42 $-1 $207 forward single #
loop $-1 $208 $209 $82 #
cone-surface $-1 45.251744995013198 0.38186655384076218 4.1476833353345155 -0.73135370988377701 0 -0.68199835119979291 0.17049958779994823 0 -0.18283842747094425 1 I I -0.70710678118654746 0.70710678118654746 0.25 forward I I I I #
loop $-1 $-1 $210 $53 #
coedge $-1 $133 $133 $211 $212 reversed $83 $-1 #
face $-1 $-1 $213 $43 $-1 $214 forward single #
loop $-1 $215 $216 $85 #
cone-surface $-1 45.251744995013198 2.6866029804052971 4.1476833353345155 -0.73135370988377701 0 -0.68199835119979291 0.17049958779994823 0 -0.18283842747094425 1 I I -0.70710678118654746 0.70710678118654746 0.25 forward I I I I #
loop $-1 $-1 $217 $54 #
coedge $-1 $138 $138 $218 $219 reversed $86 $-1 #
face $-1 $220 $221 $33 $-1 $222 reversed single #
loop $-1 $-1 $223 $88 #
plane-surface $-1 0 -22.546996896566469 0 0 1 0 0 0 1 forward_v I I I I #
coedge $-1 $224 $225 $226 $227 forward $89 $-1 #
coedge $-1 $228 $91 $229 $230 forward $56 $-1 #
coedge $-1 $91 $228 $231 $232 forward $56 $-1 #
coedge $-1 $233 $234 $91 $146 reversed $235 $-1 #
edge $-1 $236 -22.546996896566469 $237 22.546996896566469 $145 $238 forward 7 unknown #
face $-1 $239 $240 $34 $-1 $241 reversed single #
loop $-1 $-1 $242 $92 #
plane-surface $-1 -128.79013791375155 -5.7545917375568907 54.636234374170201 0 -1 0 0.82903758062907751 0 -0.55919289150049634 forward_v I I I I #
coedge $-1 $243 $244 $245 $246 reversed $93 $-1 #
coedge $-1 $152 $95 $247 $248 reversed $59 $-1 #
coedge $-1 $95 $151 $243 $249 reversed $59 $-1 #
coedge $-1 $245 $250 $95 $154 forward $251 $-1 #
edge $-1 $252 15.942662572403592 $253 20.607674327442993 $153 $254 forward 7 unknown #
loop $-1 $-1 $160 $96 #
plane-surface $-1 -48.45240638447217 -8.9352461156872636 0.44775192158998323 -0.82903758062907751 0 0.55919289150049634 0.55919289150049634 0 0.82903758062907751 forward_v I I I I #
loop $-1 $-1 $255 $61 #
coedge $-1 $158 $158 $159 $256 reversed $97 $-1 #
coedge $-1 $159 $159 $158 $256 forward $99 $-1 #
coedge $-1 $160 $160 $100 $161 forward $155 $-1 #
edge $-1 $257 0 $257 6.2831853071796004 $160 $258 forward 7 unknown #
loop $-1 $-1 $167 $101 #
plane-surface $-1 -48.45240638447217 -8.9352461156872636 0.44775192158998323 -0.82903758062907751 0 0.55919289150049634 0.55919289150049634 0 0.82903758062907751 forward_v I I I I #
loop $-1 $-1 $259 $64 #
coedge $-1 $165 $165 $166 $260 reversed $102 $-1 #
coedge $-1 $166 $166 $165 $260 forward $104 $-1 #
coedge $-1 $167 $167 $105 $168 forward $162 $-1 #
edge $-1 $261 0 $261 6.2831853071796004 $167 $262 forward 7 unknown #
face $-1 $263 $264 $37 $-1 $265 forward single #
loop $-1 $-1 $266 $106 #
plane-surface $-1 -128.79013791375155 16.792405159009579 54.636234374170201 0 -1 0 0.82903758062907751 0 -0.55919289150049634 forward_v I I I I #
coedge $-1 $267 $268 $269 $270 reversed $107 $-1 #
coedge $-1 $174 $109 $271 $272 reversed $68 $-1 #
coedge $-1 $109 $173 $267 $273 reversed $68 $-1 #
coedge $-1 $269 $274 $109 $176 forward $264 $-1 #
edge $-1 $275 15.942662572403592 $276 20.607674327442993 $175 $277 forward 7 unknown #
loop $-1 $-1 $182 $110 #
plane-surface $-1 -48.45240638447217 13.611750780879206 0.44775192158998323 -0.82903758062907751 0 0.55919289150049634 0.55919289150049634 0 0.82903758062907751 forward_v I I I I #
loop $-1 $-1 $278 $70 #
coedge $-1 $180 $180 $181 $279 reversed $111 $-1 #
coedge $-1 $181 $181 $180 $279 forward $113 $-1 #
coedge $-1 $182 $182 $114 $183 forward $177 $-1 #
edge $-1 $280 0 $280 6.2831853071796004 $182 $281 forward 7 unknown #
loop $-1 $-1 $189 $115 #
plane-surface $-1 -48.45240638447217 13.611750780879206 0.44775192158998323 -0.82903758062907751 0 0.55919289150049634 0.55919289150049634 0 0.82903758062907751 forward_v I I I I #
loop $-1 $-1 $282 $73 #
coedge $-1 $187 $187 $188 $283 reversed $116 $-1 #
coedge $-1 $188 $188 $187 $283 forward $118 $-1 #
coedge $-1 $189 $189 $119 $190 forward $184 $-1 #
edge $-1 $284 0 $284 6.2831853071796004 $189 $285 forward 7 unknown #
face $-1 $286 $287 $40 $-1 $288 forward single #
loop $-1 $-1 $289 $120 #
plane-surface $-1 53.235178176887757 -3.459360823766799 140.7733003809729 0 1 0 0.73135370988377701 0 0.68199835119979291 forward_v I I I I #
coedge $-1 $290 $291 $292 $293 reversed $121 $-1 #
coedge $-1 $196 $123 $294 $295 reversed $77 $-1 #
coedge $-1 $123 $195 $290 $296 reversed $77 $-1 #
coedge $-1 $292 $297 $123 $198 forward $287 $-1 #
edge $-1 $298 -21.834817296028305 $299 -18.523239069131193 $197 $300 forward 7 unknown #
loop $-1 $-1 $204 $124 #
plane-surface $-1 -17.636516147272516 0.38186655384075863 74.684377849228198 0.73135370988377701 0 0.68199835119979291 0.68199835119979291 0 -0.73135370988377701 forward_v I I I I #
loop $-1 $-1 $301 $79 #
coedge $-1 $202 $202 $203 $302 reversed $125 $-1 #
coedge $-1 $203 $203 $202 $302 forward $127 $-1 #
coedge $-1 $204 $204 $128 $205 forward $199 $-1 #
edge $-1 $303 0 $303 6.2831853071796004 $204 $304 forward 7 unknown #
loop $-1 $-1 $211 $129 #
plane-surface $-1 -17.636516147272516 0.38186655384075863 74.684377849228198 0.73135370988377701 0 0.68199835119979291 0.68199835119979291 0 -0.73135370988377701 forward_v I I I I #
loop $-1 $-1 $305 $82 #
coedge $-1 $209 $209 $210 $306 reversed $130 $-1 #
coedge $-1 $210 $210 $209 $306 forward $132 $-1 #
coedge $-1 $211 $211 $133 $212 forward $206 $-1 #
edge $-1 $307 0 $307 6.2831853071796004 $211 $308 forward 7 unknown #
loop $-1 $-1 $218 $134 #
plane-surface $-1 -17.636516147272516 0.38186655384075863 74.684377849228198 0.73135370988377701 0 0.68199835119979291 0.68199835119979291 0 -0.73135370988377701 forward_v I I I I #
loop $-1 $-1 $309 $85 #
coedge $-1 $216 $216 $217 $310 reversed $135 $-1 #
coedge $-1 $217 $217 $216 $310 forward $137 $-1 #
coedge $-1 $218 $218 $138 $219 forward $213 $-1 #
edge $-1 $311 0 $311 6.2831853071796004 $218 $312 forward 7 unknown #
face $-1 $313 $314 $33 $-1 $315 reversed single #
loop $-1 $-1 $316 $139 #
plane-surface $-1 -48.452406384472184 0 0 1 0 0 0 0 -1 forward_v I I I I #
coedge $-1 $317 $231 $318 $319 forward $140 $-1 #
coedge $-1 $320 $142 $317 $321 forward $89 $-1 #
coedge $-1 $142 $320 $322 $323 forward $89 $-1 #
coedge $-1 $234 $233 $142 $227 reversed $235 $-1 #
edge $-1 $324 -22.546996896566469 $325 22.546996896566469 $226 $326 forward 7 unknown #
coedge $-1 $144 $143 $327 $328 forward $56 $-1 #
coedge $-1 $329 $330 $143 $230 reversed $314 $-1 #
edge $-1 $237 -48.452406384472184 $331 48.452406384472184 $229 $332 forward 7 unknown #
coedge $-1 $223 $333 $144 $232 reversed $140 $-1 #
edge $-1 $334 -48.452406384472184 $236 48.452406384472184 $231 $335 forward 7 unknown #
coedge $-1 $226 $145 $333 $336 forward $235 $-1 #
coedge $-1 $145 $226 $329 $337 reversed $235 $-1 #
loop $-1 $-1 $233 $313 #
vertex $-1 $146 $338 #
vertex $-1 $146 $339 #
straight-curve $-1 48.452406384472184 0 7.3639164826708283 0 1 0 I I #
face $-1 $-1 $251 $34 $-1 $340 forward single #
loop $-1 $-1 $341 $147 #
plane-surface $-1 -48.452406384472184 0 0 1 0 0 0 0 -1 forward_v I I I I #
coedge $-1 $342 $343 $344 $345 reversed $148 $-1 #
coedge $-1 $346 $150 $152 $249 forward $93 $-1 #
coedge $-1 $150 $346 $342 $347 forward $93 $-1 #
coedge $-1 $344 $153 $150 $246 forward $251 $-1 #
edge $-1 $253 -7.6482774359740056 $348 -1.2869686797132589 $245 $349 forward 7 unknown #
coedge $-1 $350 $351 $151 $248 forward $240 $-1 #
edge $-1 $352 -26.870365265495138 $252 -19.954200704414273 $247 $353 forward 7 unknown #
edge $-1 $253 -8.3424017471353107 $352 2.5434524534472062e-014 $152 $354 forward 7 unknown #
coedge $-1 $153 $344 $350 $355 forward $251 $-1 #
loop $-1 $-1 $344 $239 #
vertex $-1 $248 $356 #
vertex $-1 $154 $357 #
straight-curve $-1 -64.395068956875775 -12.115900493817637 7.3639164826708274 1 0 0 I I #
coedge $-1 $255 $255 $-1 $358 reversed $157 $-1 #
edge $-1 $359 0 $359 6.2831853071796004 $158 $360 forward 7 unknown #
vertex $-1 $161 $361 #
ellipse-curve $-1 -46.119900506952476 -10.298383706314565 3.9058342021304031 -0.82903758062907751 0 0.55919289150049634 0.13979822287512408 0 0.20725939515726938 1 I I #
coedge $-1 $259 $259 $-1 $362 reversed $164 $-1 #
edge $-1 $363 0 $363 6.2831853071796004 $165 $364 forward 7 unknown #
vertex $-1 $168 $365 #
ellipse-curve $-1 -46.119900506952476 -7.57210852505996 3.9058342021304031 -0.82903758062907751 0 0.55919289150049634 0.13979822287512408 0 0.20725939515726938 1 I I #
face $-1 $-1 $366 $37 $-1 $367 reversed single #
loop $-1 $-1 $175 $169 #
plane-surface $-1 0 0 7.3639164826708283 0 0 1 1 0 0 forward_v I I I I #
coedge $-1 $368 $369 $370 $371 reversed $170 $-1 #
coedge $-1 $372 $172 $174 $273 forward $107 $-1 #
coedge $-1 $172 $372 $368 $373 forward $107 $-1 #
coedge $-1 $370 $175 $172 $270 forward $264 $-1 #
edge $-1 $276 3.625221012309229 $374 9.9865297685699765 $269 $375 forward 7 unknown #
coedge $-1 $376 $377 $173 $272 forward $366 $-1 #
edge $-1 $378 -26.870365265495138 $275 -19.954200704414273 $271 $379 forward 7 unknown #
edge $-1 $276 -8.3424017471353107 $378 2.5434524534472062e-014 $174 $380 forward 7 unknown #
coedge $-1 $175 $370 $376 $381 forward $264 $-1 #
vertex $-1 $176 $382 #
vertex $-1 $176 $383 #
straight-curve $-1 -64.395068956875775 10.431096402748832 7.3639164826708274 1 0 0 I I #
coedge $-1 $278 $278 $-1 $384 reversed $179 $-1 #
edge $-1 $385 0 $385 6.2831853071796004 $180 $386 forward 7 unknown #
vertex $-1 $183 $387 #
ellipse-curve $-1 -46.119900506952476 12.248613190251902 3.9058342021304031 -0.82903758062907751 0 0.55919289150049634 0.13979822287512408 0 0.20725939515726938 1 I I #
coedge $-1 $282 $282 $-1 $388 reversed $186 $-1 #
edge $-1 $389 0 $389 6.2831853071796004 $187 $390 forward 7 unknown #
vertex $-1 $190 $391 #
ellipse-curve $-1 -46.119900506952476 14.974888371506509 3.9058342021304031 -0.82903758062907751 0 0.55919289150049634 0.13979822287512408 0 0.20725939515726938 1 I I #
face $-1 $-1 $392 $40 $-1 $393 reversed single #
loop $-1 $-1 $197 $191 #
plane-surface $-1 0 0 7.3639164826708283 0 0 1 1 0 0 forward_v I I I I #
coedge $-1 $394 $395 $396 $397 reversed $192 $-1 #
coedge $-1 $398 $194 $196 $296 forward $121 $-1 #
coedge $-1 $194 $398 $394 $399 forward $121 $-1 #
coedge $-1 $396 $197 $194 $293 forward $287 $-1 #
edge $-1 $299 -4.0321606545279369 $400 3.6502941006871783 $292 $401 forward 7 unknown #
coedge $-1 $402 $403 $195 $295 forward $392 $-1 #
edge $-1 $404 -66.573966665418524 $298 -63.022733707815618 $294 $405 forward 7 unknown #
edge $-1 $299 92.049114480126974 $404 96.904812768944367 $196 $406 forward 7 unknown #
coedge $-1 $197 $396 $402 $407 forward $287 $-1 #
vertex $-1 $295 $408 #
vertex $-1 $198 $409 #
straight-curve $-1 26.617589088443879 4.2230939314483162 7.363916482670831 -1 0 0 I I #
coedge $-1 $301 $301 $-1 $410 reversed $201 $-1 #
edge $-1 $411 0 $411 6.2831853071796004 $202 $412 forward 7 unknown #
vertex $-1 $205 $413 #
ellipse-curve $-1 46.796617271023621 -1.9228698727237727 5.5883000038693824 0.73135370988377701 0 0.68199835119979291 0.34099917559989645 0 -0.36567685494188851 1 I I #
coedge $-1 $305 $305 $-1 $414 reversed $208 $-1 #
edge $-1 $415 0 $415 6.2831853071796004 $209 $416 forward 7 unknown #
vertex $-1 $212 $417 #
ellipse-curve $-1 46.796617271023621 0.38186655384076218 5.5883000038693824 0.73135370988377701 0 0.68199835119979291 0.34099917559989645 0 -0.36567685494188851 1 I I #
coedge $-1 $309 $309 $-1 $418 reversed $215 $-1 #
edge $-1 $419 0 $419 6.2831853071796004 $216 $420 forward 7 unknown #
vertex $-1 $219 $421 #
ellipse-curve $-1 46.796617271023621 2.6866029804052971 5.5883000038693824 0.73135370988377701 0 0.68199835119979291 0.34099917559989645 0 -0.36567685494188851 1 I I #
face $-1 $-1 $235 $33 $-1 $422 reversed single #
loop $-1 $-1 $329 $220 #
plane-surface $-1 0 22.546996896566469 0 0 -1 0 0 0 -1 forward_v I I I I #
coedge $-1 $423 $327 $330 $424 forward $221 $-1 #
coedge $-1 $333 $223 $224 $321 reversed $140 $-1 #
coedge $-1 $327 $423 $223 $319 reversed $221 $-1 #
edge $-1 $334 -7.3639164826708283 $425 7.3639164826708283 $318 $426 forward 7 unknown #
coedge $-1 $225 $224 $423 $427 forward $89 $-1 #
edge $-1 $325 -48.452406384472184 $425 48.452406384472184 $317 $428 forward 7 unknown #
coedge $-1 $330 $329 $225 $323 reversed $314 $-1 #
edge $-1 $429 -48.452406384472184 $324 48.452406384472184 $322 $430 forward 7 unknown #
vertex $-1 $227 $431 #
vertex $-1 $336 $432 #
straight-curve $-1 48.452406384472184 0 -7.3639164826708283 0 -1 0 I I #
coedge $-1 $316 $318 $228 $328 reversed $221 $-1 #
edge $-1 $331 -22.546996896566469 $334 22.546996896566469 $327 $433 forward 7 unknown #
coedge $-1 $322 $229 $234 $337 forward $314 $-1 #
coedge $-1 $229 $322 $316 $424 reversed $314 $-1 #
vertex $-1 $230 $434 #
straight-curve $-1 0 22.546996896566469 7.3639164826708283 -1 0 0 I I #
coedge $-1 $231 $317 $233 $336 reversed $140 $-1 #
vertex $-1 $328 $435 #
straight-curve $-1 0 -22.546996896566469 7.3639164826708283 1 0 0 I I #
edge $-1 $236 -7.3639164826708283 $325 7.3639164826708283 $233 $436 forward 7 unknown #
edge $-1 $237 -7.3639164826708283 $324 7.3639164826708283 $234 $437 forward 7 unknown #
point $-1 48.452406384472184 -22.546996896566469 7.3639164826708283 #
point $-1 48.452406384472184 22.546996896566469 7.3639164826708283 #
plane-surface $-1 0 0 7.3639164826708283 0 0 1 1 0 0 forward_v I I I I #
coedge $-1 $351 $350 $343 $438 forward $240 $-1 #
coedge $-1 $343 $242 $244 $347 reversed $148 $-1 #
coedge $-1 $242 $342 $341 $438 reversed $148 $-1 #
coedge $-1 $250 $245 $242 $345 forward $251 $-1 #
edge $-1 $348 -20.607674327442993 $439 -15.942662572403592 $344 $440 forward 7 unknown #
coedge $-1 $244 $243 $351 $441 reversed $93 $-1 #
edge $-1 $442 -2.5434524534472062e-014 $348 8.3424017471353107 $342 $443 forward 7 unknown #
vertex $-1 $246 $444 #
straight-curve $-1 -43.787394629432789 -4.4676230578436318 7.3639164826708274 0 1 0 I I #
coedge $-1 $341 $247 $250 $355 reversed $240 $-1 #
coedge $-1 $247 $341 $346 $441 forward $240 $-1 #
vertex $-1 $248 $445 #
straight-curve $-1 -48.452406384472184 -12.115900493817637 27.3181171870851 0 0 1 I I #
straight-curve $-1 -48.45240638447217 -12.115900493817637 0.44775192158998323 -0.55919289150049634 0 -0.82903758062907751 I I #
edge $-1 $439 5.7545917375568907 $252 12.115900493817637 $350 $446 forward 7 unknown #
point $-1 -48.452406384472184 -12.115900493817637 7.3639164826708283 #
point $-1 -43.787394629432782 -12.115900493817637 7.3639164826708292 #
edge $-1 $447 1 $447 0 $255 $-1 forward 7 unknown #
vertex $-1 $256 $448 #
ellipse-curve $-1 -45.290862926323413 -10.298383706314565 3.3466413106299151 -0.82903758062907751 0 0.55919289150049634 0.13979822287512408 0 0.20725939515726938 1 I I #
point $-1 -45.980102284077368 -10.298383706314565 4.1130935972876808 #
edge $-1 $449 1 $449 0 $259 $-1 forward 7 unknown #
vertex $-1 $260 $450 #
ellipse-curve $-1 -45.290862926323413 -7.57210852505996 3.3466413106299151 -0.82903758062907751 0 0.55919289150049634 0.13979822287512408 0 0.20725939515726938 1 I I #
point $-1 -45.980102284077368 -7.57210852505996 4.1130935972876808 #
loop $-1 $-1 $271 $263 #
plane-surface $-1 -48.452406384472184 0 0 1 0 0 0 0 -1 forward_v I I I I #
coedge $-1 $369 $266 $268 $373 reversed $170 $-1 #
coedge $-1 $266 $368 $451 $452 reversed $170 $-1 #
coedge $-1 $274 $269 $266 $371 forward $264 $-1 #
edge $-1 $374 -20.607674327442993 $453 -15.942662572403592 $370 $454 forward 7 unknown #
coedge $-1 $268 $267 $377 $455 reversed $107 $-1 #
edge $-1 $456 -2.5434524534472062e-014 $374 8.3424017471353107 $368 $457 forward 7 unknown #
vertex $-1 $270 $458 #
straight-curve $-1 -43.787394629432789 6.8058753904396028 7.3639164826708274 0 1 0 I I #
coedge $-1 $451 $271 $274 $381 reversed $366 $-1 #
coedge $-1 $271 $451 $372 $455 forward $366 $-1 #
vertex $-1 $272 $459 #
straight-curve $-1 -48.452406384472184 10.431096402748832 27.3181171870851 0 0 1 I I #
straight-curve $-1 -48.45240638447217 10.431096402748832 0.44775192158998323 -0.55919289150049634 0 -0.82903758062907751 I I #
edge $-1 $453 -16.792405159009579 $275 -10.431096402748832 $376 $460 forward 7 unknown #
point $-1 -48.452406384472184 10.431096402748832 7.3639164826708283 #
point $-1 -43.787394629432782 10.431096402748832 7.3639164826708292 #
edge $-1 $461 1 $461 0 $278 $-1 forward 7 unknown #
vertex $-1 $279 $462 #
ellipse-curve $-1 -45.290862926323413 12.248613190251902 3.3466413106299151 -0.82903758062907751 0 0.55919289150049634 0.13979822287512408 0 0.20725939515726938 1 I I #
point $-1 -45.980102284077368 12.248613190251902 4.1130935972876808 #
edge $-1 $463 1 $463 0 $282 $-1 forward 7 unknown #
vertex $-1 $283 $464 #
ellipse-curve $-1 -45.290862926323413 14.974888371506509 3.3466413106299151 -0.82903758062907751 0 0.55919289150049634 0.13979822287512408 0 0.20725939515726938 1 I I #
point $-1 -45.980102284077368 14.974888371506509 4.1130935972876808 #
loop $-1 $-1 $294 $286 #
plane-surface $-1 48.452406384472184 0 0 -1 0 0 0 0 1 forward_v I I I I #
coedge $-1 $395 $289 $291 $399 reversed $192 $-1 #
coedge $-1 $289 $394 $465 $466 reversed $192 $-1 #
coedge $-1 $297 $292 $289 $397 forward $287 $-1 #
edge $-1 $400 18.523239069131193 $467 21.834817296028305 $396 $468 forward 7 unknown #
coedge $-1 $291 $290 $403 $469 reversed $121 $-1 #
edge $-1 $470 -96.904812768944367 $400 -92.049114480126974 $394 $471 forward 7 unknown #
vertex $-1 $293 $472 #
straight-curve $-1 45.140828157575058 0.19093327692037931 7.363916482670831 0 -1 0 I I #
coedge $-1 $465 $294 $297 $407 reversed $392 $-1 #
coedge $-1 $294 $465 $398 $469 forward $392 $-1 #
vertex $-1 $295 $473 #
straight-curve $-1 48.452406384472184 4.2230939314483162 70.386650190486449 0 0 1 I I #
straight-curve $-1 -17.636516147272516 4.2230939314483162 74.684377849228198 0.68199835119979291 0 -0.73135370988377701 I I #
edge $-1 $467 -3.459360823766799 $298 4.2230939314483162 $402 $474 forward 7 unknown #
point $-1 48.452406384472184 4.2230939314483162 7.3639164826708283 #
point $-1 45.140828157575072 4.2230939314483162 7.363916482670831 #
edge $-1 $475 1 $475 0 $301 $-1 forward 7 unknown #
vertex $-1 $302 $476 #
ellipse-curve $-1 45.434583422484138 -1.9228698727237727 4.3181829231344633 0.73135370988377701 0 0.68199835119979291 0.34099917559989645 0 -0.36567685494188851 1 I I #
point $-1 47.137616446623504 -1.9228698727237727 5.2226231489274788 #
edge $-1 $477 1 $477 0 $305 $-1 forward 7 unknown #
vertex $-1 $306 $478 #
ellipse-curve $-1 45.434583422484138 0.38186655384076218 4.3181829231344633 0.73135370988377701 0 0.68199835119979291 0.34099917559989645 0 -0.36567685494188851 1 I I #
point $-1 47.137616446623504 0.38186655384076218 5.2226231489274788 #
edge $-1 $479 1 $479 0 $309 $-1 forward 7 unknown #
vertex $-1 $310 $480 #
ellipse-curve $-1 45.434583422484138 2.6866029804052971 4.3181829231344633 0.73135370988377701 0 0.68199835119979291 0.34099917559989645 0 -0.36567685494188851 1 I I #
point $-1 47.137616446623504 2.6866029804052971 5.2226231489274788 #
plane-surface $-1 48.452406384472184 0 0 -1 0 0 0 0 1 forward_v I I I I #
coedge $-1 $318 $316 $320 $427 reversed $221 $-1 #
edge $-1 $331 -7.3639164826708283 $429 7.3639164826708283 $330 $481 forward 7 unknown #
vertex $-1 $427 $482 #
straight-curve $-1 -48.452406384472184 -22.546996896566469 0 0 0 -1 I I #
edge $-1 $425 -22.546996896566469 $429 22.546996896566469 $423 $483 forward 7 unknown #
straight-curve $-1 0 -22.546996896566469 -7.3639164826708283 -1 0 0 I I #
vertex $-1 $323 $484 #
straight-curve $-1 0 22.546996896566469 -7.3639164826708283 1 0 0 I I #
point $-1 48.452406384472184 22.546996896566469 -7.3639164826708283 #
point $-1 48.452406384472184 -22.546996896566469 -7.3639164826708283 #
straight-curve $-1 -48.452406384472184 0 7.3639164826708283 0 -1 0 I I #
point $-1 -48.452406384472184 22.546996896566469 7.3639164826708283 #
point $-1 -48.452406384472184 -22.546996896566469 7.3639164826708283 #
straight-curve $-1 48.452406384472184 -22.546996896566469 0 0 0 -1 I I #
straight-curve $-1 48.452406384472184 22.546996896566469 0 0 0 -1 I I #
edge $-1 $439 19.954200704414273 $442 26.870365265495138 $341 $485 forward 7 unknown #
vertex $-1 $355 $486 #
straight-curve $-1 -64.395068956875775 -5.7545917375568907 7.3639164826708274 -1 0 0 I I #
edge $-1 $442 1.2869686797132589 $352 7.6482774359740056 $351 $487 forward 7 unknown #
vertex $-1 $441 $488 #
straight-curve $-1 -48.45240638447217 -5.7545917375568907 0.44775192158998323 0.55919289150049634 0 0.82903758062907751 I I #
point $-1 -43.787394629432782 -5.7545917375568907 7.3639164826708292 #
point $-1 -48.452406384472184 -12.115900493817637 0.44775192158996213 #
straight-curve $-1 -48.452406384472184 0 7.3639164826708283 0 -1 0 I I #
vertex $-1 $358 $489 #
point $-1 -45.151064703448291 -10.298383706314565 3.5539007057871843 #
vertex $-1 $362 $490 #
point $-1 -45.151064703448291 -7.57210852505996 3.5539007057871843 #
coedge $-1 $377 $376 $369 $452 forward $366 $-1 #
edge $-1 $453 19.954200704414273 $456 26.870365265495138 $451 $491 forward 7 unknown #
vertex $-1 $381 $492 #
straight-curve $-1 -64.395068956875775 16.792405159009579 7.3639164826708274 -1 0 0 I I #
edge $-1 $456 -9.9865297685699765 $378 -3.625221012309229 $377 $493 forward 7 unknown #
vertex $-1 $455 $494 #
straight-curve $-1 -48.45240638447217 16.792405159009579 0.44775192158998323 0.55919289150049634 0 0.82903758062907751 I I #
point $-1 -43.787394629432782 16.792405159009579 7.3639164826708292 #
point $-1 -48.452406384472184 10.431096402748832 0.44775192158996213 #
straight-curve $-1 -48.452406384472184 0 7.3639164826708283 0 -1 0 I I #
vertex $-1 $384 $495 #
point $-1 -45.151064703448291 12.248613190251902 3.5539007057871843 #
vertex $-1 $388 $496 #
point $-1 -45.151064703448291 14.974888371506509 3.5539007057871843 #
coedge $-1 $403 $402 $395 $466 forward $392 $-1 #
edge $-1 $467 63.022733707815618 $470 66.573966665418524 $465 $497 forward 7 unknown #
vertex $-1 $407 $498 #
straight-curve $-1 26.617589088443879 -3.459360823766799 7.363916482670831 1 0 0 I I #
edge $-1 $470 -3.6502941006871783 $404 4.0321606545279369 $403 $499 forward 7 unknown #
vertex $-1 $469 $500 #
straight-curve $-1 -17.636516147272516 -3.459360823766799 74.684377849228198 -0.68199835119979291 0 0.73135370988377701 I I #
point $-1 45.140828157575072 -3.459360823766799 7.363916482670831 #
point $-1 48.452406384472184 4.2230939314483162 3.812683525067925 #
straight-curve $-1 48.452406384472184 0 7.3639164826708283 0 1 0 I I #
vertex $-1 $410 $501 #
point $-1 45.775582598084036 -1.9228698727237727 3.9525060681925752 #
vertex $-1 $414 $502 #
point $-1 45.775582598084036 0.38186655384076218 3.9525060681925752 #
vertex $-1 $418 $503 #
point $-1 45.775582598084036 2.6866029804052971 3.9525060681925752 #
straight-curve $-1 -48.452406384472184 22.546996896566469 0 0 0 -1 I I #
point $-1 -48.452406384472184 -22.546996896566469 -7.3639164826708283 #
straight-curve $-1 -48.452406384472184 0 -7.3639164826708283 0 1 0 I I #
point $-1 -48.452406384472184 22.546996896566469 -7.3639164826708283 #
straight-curve $-1 -48.452406384472184 -5.7545917375568907 27.3181171870851 0 0 -1 I I #
point $-1 -48.452406384472184 -5.7545917375568907 7.3639164826708283 #
straight-curve $-1 -48.452406384472184 -4.4676230578436318 0.44775192158996635 0 -1 0 I I #
point $-1 -48.452406384472184 -5.7545917375568907 0.44775192158996213 #
point $-1 -45.083603531166148 -10.298383706314565 3.2068430877547907 #
point $-1 -45.083603531166148 -7.57210852505996 3.2068430877547907 #
straight-curve $-1 -48.452406384472184 16.792405159009579 27.3181171870851 0 0 -1 I I #
point $-1 -48.452406384472184 16.792405159009579 7.3639164826708283 #
straight-curve $-1 -48.452406384472184 6.8058753904396028 0.44775192158996635 0 -1 0 I I #
point $-1 -48.452406384472184 16.792405159009579 0.44775192158996213 #
point $-1 -45.083603531166148 12.248613190251902 3.2068430877547907 #
point $-1 -45.083603531166148 14.974888371506509 3.2068430877547907 #
straight-curve $-1 48.452406384472184 -3.459360823766799 70.386650190486449 0 0 -1 I I #
point $-1 48.452406384472184 -3.459360823766799 7.3639164826708283 #
straight-curve $-1 48.45240638447217 0.19093327692037931 3.8126835250679392 0 1 0 I I #
point $-1 48.452406384472184 -3.459360823766799 3.812683525067925 #
point $-1 45.068906567542257 -1.9228698727237727 3.9771837475345673 #
point $-1 45.068906567542257 0.38186655384076218 3.9771837475345673 #
point $-1 45.068906567542257 2.6866029804052971 3.9771837475345673 #
End-of-ACIS-data 