500 0 6 0           
7 Unknown 11 ACIS 5.0 NT 24 Fri Mar 26 01:44:15 1999 
-1 9.9999999999999995e-007 1e-010 
body $-1 $6 $-1 $7 #
body $-1 $8 $-1 $9 #
body $-1 $10 $-1 $11 #
body $-1 $12 $-1 $13 #
body $-1 $14 $-1 $15 #
body $-1 $16 $-1 $17 #
lump $-1 $-1 $18 $0 #
transform $-1 1 0 0 0 1 0 0 0 1 74.334543900875886 45.879751452721152 15.219274221483584 1 rotate no_reflect no_shear #
lump $-1 $-1 $19 $1 #
transform $-1 1 0 0 0 1 0 0 0 1 74.334543900875886 45.879751452721152 15.219274221483584 1 rotate no_reflect no_shear #
lump $-1 $-1 $20 $2 #
transform $-1 1 0 0 0 1 0 0 0 1 74.334543900875886 45.879751452721152 15.219274221483584 1 rotate no_reflect no_shear #
lump $-1 $-1 $21 $3 #
transform $-1 1 0 0 0 1 0 0 0 1 74.334543900875886 45.879751452721152 15.219274221483584 1 rotate no_reflect no_shear #
lump $-1 $-1 $22 $4 #
transform $-1 1 0 0 0 1 0 0 0 1 74.334543900875886 45.879751452721152 15.219274221483584 1 rotate no_reflect no_shear #
lump $-1 $-1 $23 $5 #
transform $-1 1 0 0 0 1 0 0 0 1 74.334543900875886 45.879751452721152 15.219274221483584 1 rotate no_reflect no_shear #
shell $-1 $-1 $-1 $24 $-1 $6 #
shell $-1 $-1 $-1 $25 $-1 $8 #
shell $-1 $-1 $-1 $26 $-1 $10 #
shell $-1 $-1 $-1 $27 $-1 $12 #
shell $-1 $-1 $-1 $28 $-1 $14 #
shell $-1 $-1 $-1 $29 $-1 $16 #
face $-1 $30 $31 $18 $-1 $32 forward single #
face $-1 $33 $34 $19 $-1 $35 forward single #
face $-1 $36 $37 $20 $-1 $38 reversed single #
face $-1 $39 $40 $21 $-1 $41 forward single #
face $-1 $42 $43 $22 $-1 $44 forward single #
face $-1 $45 $46 $23 $-1 $47 forward single #
face $-1 $48 $49 $18 $-1 $50 reversed single #
loop $-1 $-1 $51 $24 #
plane-surface $-1 0 0 15.219274221483584 0 0 1 1 0 0 forward_v I I I I #
face $-1 $52 $53 $19 $-1 $54 reversed single #
loop $-1 $-1 $55 $25 #
plane-surface $-1 -66.310140113690025 0 -12.129158208558071 0 0 1 1 0 0 forward_v I I I I #
face $-1 $56 $57 $20 $-1 $58 reversed single #
loop $-1 $-1 $59 $26 #
plane-surface $-1 103.59566899343953 14.752831411335134 213.4800635793988 0 -1 0 -0.79863551827123203 0 -0.60181501223851219 forward_v I I I I #
face $-1 $60 $61 $21 $-1 $62 forward single #
loop $-1 $63 $64 $27 #
cone-surface $-1 69.966974077590365 -0.96034287812637587 9.7796278970636266 -0.79863551827123203 0 -0.60181501223851219 0.60181501223851219 0 -0.79863551827123203 1 I I 0 1 1 forward I I I I #
face $-1 $65 $66 $22 $-1 $67 forward single #
loop $-1 $68 $69 $28 #
cone-surface $-1 69.966974077590365 4.9320974804216888 9.7796278970636266 -0.79863551827123203 0 -0.60181501223851219 0.60181501223851219 0 -0.79863551827123203 1 I I 0 1 1 forward I I I I #
face $-1 $70 $71 $23 $-1 $72 forward single #
loop $-1 $73 $74 $29 #
cone-surface $-1 69.966974077590365 10.824537838969761 9.7796278970636266 -0.79863551827123203 0 -0.60181501223851219 0.60181501223851219 0 -0.79863551827123203 1 I I 0 1 1 forward I I I I #
face $-1 $75 $76 $18 $-1 $77 reversed single #
loop $-1 $-1 $78 $30 #
plane-surface $-1 0 0 -15.219274221483584 0 0 1 1 0 0 forward_v I I I I #
coedge $-1 $79 $80 $81 $82 forward $31 $-1 #
face $-1 $83 $84 $19 $-1 $85 reversed single #
loop $-1 $-1 $86 $33 #
plane-surface $-1 -58.285736326504171 0 -13.674216215020827 -1 0 0 0 0 1 forward_v I I I I #
coedge $-1 $87 $88 $89 $90 forward $34 $-1 #
face $-1 $91 $92 $20 $-1 $93 reversed single #
loop $-1 $-1 $94 $36 #
plane-surface $-1 -15.136744994023772 4.9320974804216888 124.00877468449913 0.79863551827123203 0 0.60181501223851219 0.60181501223851219 0 -0.79863551827123203 forward_v I I I I #
coedge $-1 $95 $96 $97 $98 reversed $37 $-1 #
face $-1 $-1 $99 $21 $-1 $100 forward single #
loop $-1 $101 $102 $39 #
cone-surface $-1 68.9463477667408 -0.96034287812637587 9.010530828748319 -0.79863551827123203 0 -0.60181501223851219 0.3009075061192561 0 -0.39931775913561601 1 I I -0.70710678118654746 0.70710678118654746 0.5 forward I I I I #
loop $-1 $-1 $103 $27 #
coedge $-1 $64 $64 $104 $105 reversed $40 $-1 #
face $-1 $-1 $106 $22 $-1 $107 forward single #
loop $-1 $108 $109 $42 #
cone-surface $-1 68.9463477667408 4.9320974804216888 9.010530828748319 -0.79863551827123203 0 -0.60181501223851219 0.3009075061192561 0 -0.39931775913561601 1 I I -0.70710678118654746 0.70710678118654746 0.5 forward I I I I #
loop $-1 $-1 $110 $28 #
coedge $-1 $69 $69 $111 $112 reversed $43 $-1 #
face $-1 $-1 $113 $23 $-1 $114 forward single #
loop $-1 $115 $116 $45 #
cone-surface $-1 68.9463477667408 10.824537838969761 9.010530828748319 -0.79863551827123203 0 -0.60181501223851219 0.3009075061192561 0 -0.39931775913561601 1 I I -0.70710678118654746 0.70710678118654746 0.5 forward I I I I #
loop $-1 $-1 $117 $29 #
coedge $-1 $74 $74 $118 $119 reversed $46 $-1 #
face $-1 $120 $121 $18 $-1 $122 reversed single #
loop $-1 $-1 $123 $48 #
plane-surface $-1 0 -45.879751452721152 0 0 1 0 0 0 1 forward_v I I I I #
coedge $-1 $124 $125 $126 $127 forward $49 $-1 #
coedge $-1 $128 $51 $129 $130 forward $31 $-1 #
coedge $-1 $51 $128 $131 $132 forward $31 $-1 #
coedge $-1 $133 $134 $51 $82 reversed $135 $-1 #
edge $-1 $136 -45.879751452721152 $137 45.879751452721152 $81 $138 forward 7 unknown #
face $-1 $139 $140 $19 $-1 $141 reversed single #
loop $-1 $-1 $142 $52 #
plane-surface $-1 0 0 -15.219274221483584 0 0 1 1 0 0 forward_v I I I I #
coedge $-1 $143 $89 $144 $145 reversed $53 $-1 #
coedge $-1 $146 $55 $147 $148 reversed $34 $-1 #
coedge $-1 $55 $146 $149 $150 reversed $34 $-1 #
coedge $-1 $86 $151 $55 $90 reversed $53 $-1 #
edge $-1 $152 -45.879751452721152 $153 45.879751452721152 $89 $154 forward 7 unknown #
face $-1 $155 $156 $20 $-1 $157 forward single #
loop $-1 $-1 $158 $56 #
plane-surface $-1 103.59566899343953 -4.8886364504917559 213.4800635793988 0 1 0 0.79863551827123203 0 0.60181501223851219 forward_v I I I I #
coedge $-1 $159 $160 $161 $162 reversed $57 $-1 #
coedge $-1 $96 $59 $163 $164 reversed $37 $-1 #
coedge $-1 $59 $95 $159 $165 reversed $37 $-1 #
coedge $-1 $161 $166 $59 $98 forward $156 $-1 #
edge $-1 $167 -22.53670940415612 $168 -15.04418686101301 $97 $169 forward 7 unknown #
loop $-1 $-1 $104 $60 #
plane-surface $-1 -15.136744994023772 4.9320974804216888 124.00877468449913 0.79863551827123203 0 0.60181501223851219 0.60181501223851219 0 -0.79863551827123203 forward_v I I I I #
loop $-1 $-1 $170 $39 #
coedge $-1 $102 $102 $103 $171 reversed $61 $-1 #
coedge $-1 $103 $103 $102 $171 forward $63 $-1 #
coedge $-1 $104 $104 $64 $105 forward $99 $-1 #
edge $-1 $172 0 $172 6.2831853071796004 $104 $173 forward 7 unknown #
loop $-1 $-1 $111 $65 #
plane-surface $-1 -15.136744994023772 4.9320974804216888 124.00877468449913 0.79863551827123203 0 0.60181501223851219 0.60181501223851219 0 -0.79863551827123203 forward_v I I I I #
loop $-1 $-1 $174 $42 #
coedge $-1 $109 $109 $110 $175 reversed $66 $-1 #
coedge $-1 $110 $110 $109 $175 forward $68 $-1 #
coedge $-1 $111 $111 $69 $112 forward $106 $-1 #
edge $-1 $176 0 $176 6.2831853071796004 $111 $177 forward 7 unknown #
loop $-1 $-1 $118 $70 #
plane-surface $-1 -15.136744994023772 4.9320974804216888 124.00877468449913 0.79863551827123203 0 0.60181501223851219 0.60181501223851219 0 -0.79863551827123203 forward_v I I I I #
loop $-1 $-1 $178 $45 #
coedge $-1 $116 $116 $117 $179 reversed $71 $-1 #
coedge $-1 $117 $117 $116 $179 forward $73 $-1 #
coedge $-1 $118 $118 $74 $119 forward $113 $-1 #
edge $-1 $180 0 $180 6.2831853071796004 $118 $181 forward 7 unknown #
face $-1 $182 $183 $18 $-1 $184 reversed single #
loop $-1 $-1 $185 $75 #
plane-surface $-1 -74.334543900875886 0 0 1 0 0 0 0 -1 forward_v I I I I #
coedge $-1 $186 $131 $187 $188 forward $76 $-1 #
coedge $-1 $189 $78 $186 $190 forward $49 $-1 #
coedge $-1 $78 $189 $191 $192 forward $49 $-1 #
coedge $-1 $134 $133 $78 $127 reversed $135 $-1 #
edge $-1 $193 -45.879751452721152 $194 45.879751452721152 $126 $195 forward 7 unknown #
coedge $-1 $80 $79 $196 $197 forward $31 $-1 #
coedge $-1 $198 $199 $79 $130 reversed $183 $-1 #
edge $-1 $137 -74.334543900875886 $200 74.334543900875886 $129 $201 forward 7 unknown #
coedge $-1 $123 $202 $80 $132 reversed $76 $-1 #
edge $-1 $203 -74.334543900875886 $136 74.334543900875886 $131 $204 forward 7 unknown #
coedge $-1 $126 $81 $202 $205 forward $135 $-1 #
coedge $-1 $81 $126 $198 $206 reversed $135 $-1 #
loop $-1 $-1 $133 $182 #
vertex $-1 $82 $207 #
vertex $-1 $82 $208 #
straight-curve $-1 74.334543900875886 0 15.219274221483584 0 1 0 I I #
face $-1 $209 $210 $19 $-1 $211 reversed single #
loop $-1 $-1 $144 $83 #
plane-surface $-1 0 -45.879751452721152 0 0 1 0 0 0 1 forward_v I I I I #
coedge $-1 $212 $213 $143 $214 forward $84 $-1 #
coedge $-1 $151 $86 $142 $214 reversed $53 $-1 #
coedge $-1 $149 $215 $86 $145 forward $140 $-1 #
edge $-1 $216 -8.3821661139731702 $152 -5.2920501010476571 $144 $217 forward 7 unknown #
coedge $-1 $88 $87 $218 $219 reversed $34 $-1 #
coedge $-1 $220 $221 $87 $148 forward $222 $-1 #
edge $-1 $223 -41.179473844030873 $153 -25.130666269659159 $147 $224 forward 7 unknown #
coedge $-1 $225 $144 $88 $150 forward $140 $-1 #
edge $-1 $152 25.130666269659159 $226 41.179473844030873 $149 $227 forward 7 unknown #
coedge $-1 $89 $143 $220 $228 reversed $53 $-1 #
vertex $-1 $150 $229 #
vertex $-1 $148 $230 #
straight-curve $-1 -58.285736326504171 0 -12.129158208558071 0 1 0 I I #
face $-1 $-1 $231 $20 $-1 $232 reversed single #
loop $-1 $-1 $97 $91 #
plane-surface $-1 0 0 15.219274221483584 0 0 1 1 0 0 forward_v I I I I #
coedge $-1 $233 $234 $235 $236 reversed $92 $-1 #
coedge $-1 $237 $94 $96 $165 forward $57 $-1 #
coedge $-1 $94 $237 $233 $238 forward $57 $-1 #
coedge $-1 $235 $97 $94 $162 forward $156 $-1 #
edge $-1 $168 -12.286782671124289 $239 7.3546851907026003 $161 $240 forward 7 unknown #
coedge $-1 $241 $242 $95 $164 forward $231 $-1 #
edge $-1 $243 -101.46367109266355 $167 -91.520757568215814 $163 $244 forward 7 unknown #
edge $-1 $168 136.21921136002936 $243 148.66908780175169 $96 $245 forward 7 unknown #
coedge $-1 $97 $235 $241 $246 forward $156 $-1 #
vertex $-1 $164 $247 #
vertex $-1 $98 $248 #
straight-curve $-1 51.797834496719766 14.752831411335134 15.219274221483587 -1 0 0 I I #
coedge $-1 $170 $170 $-1 $249 reversed $101 $-1 #
edge $-1 $250 0 $250 6.2831853071796004 $102 $251 forward 7 unknown #
vertex $-1 $105 $252 #
ellipse-curve $-1 70.588282629304345 -0.96034287812637587 10.2478174592597 0.79863551827123203 0 0.60181501223851219 0.60181501223851219 0 -0.79863551827123203 1 I I #
coedge $-1 $174 $174 $-1 $253 reversed $108 $-1 #
edge $-1 $254 0 $254 6.2831853071796004 $109 $255 forward 7 unknown #
vertex $-1 $112 $256 #
ellipse-curve $-1 70.588282629304345 4.9320974804216888 10.2478174592597 0.79863551827123203 0 0.60181501223851219 0.60181501223851219 0 -0.79863551827123203 1 I I #
coedge $-1 $178 $178 $-1 $257 reversed $115 $-1 #
edge $-1 $258 0 $258 6.2831853071796004 $116 $259 forward 7 unknown #
vertex $-1 $119 $260 #
ellipse-curve $-1 70.588282629304345 10.824537838969761 10.2478174592597 0.79863551827123203 0 0.60181501223851219 0.60181501223851219 0 -0.79863551827123203 1 I I #
face $-1 $-1 $135 $18 $-1 $261 reversed single #
loop $-1 $-1 $198 $120 #
plane-surface $-1 0 45.879751452721152 0 0 -1 0 0 0 -1 forward_v I I I I #
coedge $-1 $262 $196 $199 $263 forward $121 $-1 #
coedge $-1 $202 $123 $124 $190 reversed $76 $-1 #
coedge $-1 $196 $262 $123 $188 reversed $121 $-1 #
edge $-1 $203 -15.219274221483584 $264 15.219274221483584 $187 $265 forward 7 unknown #
coedge $-1 $125 $124 $262 $266 forward $49 $-1 #
edge $-1 $194 -74.334543900875886 $264 74.334543900875886 $186 $267 forward 7 unknown #
coedge $-1 $199 $198 $125 $192 reversed $183 $-1 #
edge $-1 $268 -74.334543900875886 $193 74.334543900875886 $191 $269 forward 7 unknown #
vertex $-1 $127 $270 #
vertex $-1 $205 $271 #
straight-curve $-1 74.334543900875886 0 -15.219274221483584 0 -1 0 I I #
coedge $-1 $185 $187 $128 $197 reversed $121 $-1 #
edge $-1 $200 -45.879751452721152 $203 45.879751452721152 $196 $272 forward 7 unknown #
coedge $-1 $191 $129 $134 $206 forward $183 $-1 #
coedge $-1 $129 $191 $185 $263 reversed $183 $-1 #
vertex $-1 $130 $273 #
straight-curve $-1 0 45.879751452721152 15.219274221483584 -1 0 0 I I #
coedge $-1 $131 $186 $133 $205 reversed $76 $-1 #
vertex $-1 $197 $274 #
straight-curve $-1 0 -45.879751452721152 15.219274221483584 1 0 0 I I #
edge $-1 $136 -15.219274221483584 $194 15.219274221483584 $133 $275 forward 7 unknown #
edge $-1 $137 -15.219274221483584 $193 15.219274221483584 $134 $276 forward 7 unknown #
point $-1 74.334543900875886 -45.879751452721152 15.219274221483584 #
point $-1 74.334543900875886 45.879751452721152 15.219274221483584 #
face $-1 $-1 $222 $19 $-1 $277 reversed single #
loop $-1 $-1 $218 $139 #
plane-surface $-1 -74.334543900875886 0 0 1 0 0 0 0 -1 forward_v I I I I #
coedge $-1 $278 $142 $215 $279 forward $84 $-1 #
coedge $-1 $142 $278 $280 $281 forward $84 $-1 #
edge $-1 $282 -45.879751452721152 $216 45.879751452721152 $142 $283 forward 7 unknown #
coedge $-1 $144 $225 $212 $279 reversed $140 $-1 #
vertex $-1 $279 $284 #
straight-curve $-1 -58.285736326504171 -45.879751452721152 -6.8371081075104136 0 0 1 I I #
coedge $-1 $285 $286 $146 $219 forward $210 $-1 #
edge $-1 $226 -45.879751452721152 $223 45.879751452721152 $218 $287 forward 7 unknown #
coedge $-1 $280 $147 $151 $228 forward $222 $-1 #
coedge $-1 $147 $280 $285 $288 reversed $222 $-1 #
loop $-1 $-1 $220 $209 #
vertex $-1 $288 $289 #
straight-curve $-1 -33.155070056845013 45.879751452721152 -12.129158208558071 1 0 0 I I #
coedge $-1 $215 $149 $286 $290 forward $140 $-1 #
vertex $-1 $290 $291 #
straight-curve $-1 -33.155070056845013 -45.879751452721152 -12.129158208558071 -1 0 0 I I #
edge $-1 $153 5.2920501010476571 $282 8.3821661139731702 $220 $292 forward 7 unknown #
point $-1 -58.285736326504171 -45.879751452721152 -12.129158208558071 #
point $-1 -58.285736326504171 45.879751452721152 -12.129158208558071 #
loop $-1 $-1 $163 $155 #
plane-surface $-1 74.334543900875886 0 0 -1 0 0 0 0 1 forward_v I I I I #
coedge $-1 $234 $158 $160 $238 reversed $92 $-1 #
coedge $-1 $158 $233 $293 $294 reversed $92 $-1 #
coedge $-1 $166 $161 $158 $236 forward $156 $-1 #
edge $-1 $239 15.04418686101301 $295 22.53670940415612 $235 $296 forward 7 unknown #
coedge $-1 $160 $159 $242 $297 reversed $57 $-1 #
edge $-1 $298 -148.66908780175169 $239 -136.21921136002936 $233 $299 forward 7 unknown #
vertex $-1 $162 $300 #
straight-curve $-1 66.842021357732762 2.4660487402108444 15.219274221483587 0 -1 0 I I #
coedge $-1 $293 $163 $166 $246 reversed $231 $-1 #
coedge $-1 $163 $293 $237 $297 forward $231 $-1 #
vertex $-1 $164 $301 #
straight-curve $-1 74.334543900875886 14.752831411335134 106.7400317896994 0 0 1 I I #
straight-curve $-1 -15.136744994023772 14.752831411335134 124.00877468449913 0.60181501223851219 0 -0.79863551827123203 I I #
edge $-1 $295 -4.8886364504917559 $167 14.752831411335134 $241 $302 forward 7 unknown #
point $-1 74.334543900875886 14.752831411335134 15.219274221483584 #
point $-1 66.842021357732776 14.752831411335134 15.219274221483587 #
edge $-1 $303 1 $303 0 $170 $-1 forward 7 unknown #
vertex $-1 $171 $304 #
ellipse-curve $-1 69.345665525876413 -0.96034287812637587 9.3114383348675744 0.79863551827123203 0 0.60181501223851219 0.60181501223851219 0 -0.79863551827123203 1 I I #
point $-1 71.190097641542835 -0.96034287812637587 9.4491819409884457 #
edge $-1 $305 1 $305 0 $174 $-1 forward 7 unknown #
vertex $-1 $175 $306 #
ellipse-curve $-1 69.345665525876413 4.9320974804216888 9.3114383348675744 0.79863551827123203 0 0.60181501223851219 0.60181501223851219 0 -0.79863551827123203 1 I I #
point $-1 71.190097641542835 4.9320974804216888 9.4491819409884457 #
edge $-1 $307 1 $307 0 $178 $-1 forward 7 unknown #
vertex $-1 $179 $308 #
ellipse-curve $-1 69.345665525876413 10.824537838969761 9.3114383348675744 0.79863551827123203 0 0.60181501223851219 0.60181501223851219 0 -0.79863551827123203 1 I I #
point $-1 71.190097641542835 10.824537838969761 9.4491819409884457 #
plane-surface $-1 74.334543900875886 0 0 -1 0 0 0 0 1 forward_v I I I I #
coedge $-1 $187 $185 $189 $266 reversed $121 $-1 #
edge $-1 $200 -15.219274221483584 $268 15.219274221483584 $199 $309 forward 7 unknown #
vertex $-1 $266 $310 #
straight-curve $-1 -74.334543900875886 -45.879751452721152 0 0 0 -1 I I #
edge $-1 $264 -45.879751452721152 $268 45.879751452721152 $262 $311 forward 7 unknown #
straight-curve $-1 0 -45.879751452721152 -15.219274221483584 -1 0 0 I I #
vertex $-1 $192 $312 #
straight-curve $-1 0 45.879751452721152 -15.219274221483584 1 0 0 I I #
point $-1 74.334543900875886 45.879751452721152 -15.219274221483584 #
point $-1 74.334543900875886 -45.879751452721152 -15.219274221483584 #
straight-curve $-1 -74.334543900875886 0 15.219274221483584 0 -1 0 I I #
point $-1 -74.334543900875886 45.879751452721152 15.219274221483584 #
point $-1 -74.334543900875886 -45.879751452721152 15.219274221483584 #
straight-curve $-1 74.334543900875886 -45.879751452721152 0 0 0 -1 I I #
straight-curve $-1 74.334543900875886 45.879751452721152 0 0 0 -1 I I #
plane-surface $-1 0 45.879751452721152 0 0 -1 0 0 0 -1 forward_v I I I I #
coedge $-1 $213 $212 $313 $314 forward $84 $-1 #
edge $-1 $216 58.285736326504171 $315 74.334543900875886 $215 $316 forward 7 unknown #
coedge $-1 $221 $220 $213 $281 reversed $222 $-1 #
edge $-1 $317 -74.334543900875886 $282 -58.285736326504171 $280 $318 forward 7 unknown #
vertex $-1 $228 $319 #
straight-curve $-1 -58.285736326504171 0 -15.219274221483584 0 -1 0 I I #
point $-1 -58.285736326504171 -45.879751452721152 -15.219274221483584 #
coedge $-1 $313 $218 $221 $288 forward $210 $-1 #
coedge $-1 $218 $313 $225 $290 reversed $210 $-1 #
straight-curve $-1 -74.334543900875886 0 -12.129158208558071 0 1 0 I I #
edge $-1 $223 12.129158208558071 $317 15.219274221483584 $221 $320 forward 7 unknown #
point $-1 -74.334543900875886 45.879751452721152 -12.129158208558071 #
edge $-1 $226 12.129158208558071 $315 15.219274221483584 $286 $321 forward 7 unknown #
point $-1 -74.334543900875886 -45.879751452721152 -12.129158208558071 #
straight-curve $-1 -58.285736326504171 45.879751452721152 -6.8371081075104136 0 0 -1 I I #
coedge $-1 $242 $241 $234 $294 forward $231 $-1 #
edge $-1 $295 91.520757568215814 $298 101.46367109266355 $293 $322 forward 7 unknown #
vertex $-1 $246 $323 #
straight-curve $-1 51.797834496719766 -4.8886364504917559 15.219274221483587 1 0 0 I I #
edge $-1 $298 -7.3546851907026003 $243 12.286782671124289 $242 $324 forward 7 unknown #
vertex $-1 $297 $325 #
straight-curve $-1 -15.136744994023772 -4.8886364504917559 124.00877468449913 -0.60181501223851219 0 0.79863551827123203 I I #
point $-1 66.842021357732776 -4.8886364504917559 15.219274221483587 #
point $-1 74.334543900875886 14.752831411335134 5.2763606970358552 #
straight-curve $-1 74.334543900875886 0 15.219274221483584 0 1 0 I I #
vertex $-1 $249 $326 #
point $-1 69.947480538114931 -0.96034287812637587 8.5128028165963432 #
vertex $-1 $253 $327 #
point $-1 69.947480538114931 4.9320974804216888 8.5128028165963432 #
vertex $-1 $257 $328 #
point $-1 69.947480538114931 10.824537838969761 8.5128028165963432 #
straight-curve $-1 -74.334543900875886 45.879751452721152 0 0 0 -1 I I #
point $-1 -74.334543900875886 -45.879751452721152 -15.219274221483584 #
straight-curve $-1 -74.334543900875886 0 -15.219274221483584 0 1 0 I I #
point $-1 -74.334543900875886 45.879751452721152 -15.219274221483584 #
coedge $-1 $286 $285 $278 $314 reversed $210 $-1 #
edge $-1 $315 -45.879751452721152 $317 45.879751452721152 $313 $329 forward 7 unknown #
vertex $-1 $314 $330 #
straight-curve $-1 0 -45.879751452721152 -15.219274221483584 -1 0 0 I I #
vertex $-1 $281 $331 #
straight-curve $-1 0 45.879751452721152 -15.219274221483584 1 0 0 I I #
point $-1 -58.285736326504171 45.879751452721152 -15.219274221483584 #
straight-curve $-1 -74.334543900875886 45.879751452721152 0 0 0 -1 I I #
straight-curve $-1 -74.334543900875886 -45.879751452721152 0 0 0 -1 I I #
straight-curve $-1 74.334543900875886 -4.8886364504917559 106.7400317896994 0 0 -1 I I #
point $-1 74.334543900875886 -4.8886364504917559 15.219274221483584 #
straight-curve $-1 74.334543900875886 2.4660487402108444 5.276360697035841 0 1 0 I I #
point $-1 74.334543900875886 -4.8886364504917559 5.2763606970358552 #
point $-1 68.547030007605187 -0.96034287812637587 8.7096233226290636 #
point $-1 68.547030007605187 4.9320974804216888 8.7096233226290636 #
point $-1 68.547030007605187 10.824537838969761 8.7096233226290636 #
straight-curve $-1 -74.334543900875886 0 -15.219274221483584 0 1 0 I I #
point $-1 -74.334543900875886 -45.879751452721152 -15.219274221483584 #
point $-1 -74.334543900875886 45.879751452721152 -15.219274221483584 #
End-of-ACIS-data 