500 0 8 0           
7 Unknown 11 ACIS 5.0 NT 24 Thu Mar 25 22:38:26 1999 
-1 9.9999999999999995e-007 1e-010 
body $-1 $8 $-1 $9 #
body $-1 $10 $-1 $11 #
body $-1 $12 $-1 $13 #
body $-1 $14 $-1 $15 #
body $-1 $16 $-1 $17 #
body $-1 $18 $-1 $19 #
body $-1 $20 $-1 $21 #
body $-1 $22 $-1 $23 #
lump $-1 $-1 $24 $0 #
transform $-1 1 0 0 0 1 0 0 0 1 69.911801507614371 33.92387651023185 8.9645088633929113 1 rotate no_reflect no_shear #
lump $-1 $-1 $25 $1 #
transform $-1 1 0 0 0 1 0 0 0 1 69.911801507614371 33.92387651023185 8.9645088633929113 1 rotate no_reflect no_shear #
lump $-1 $-1 $26 $2 #
transform $-1 1 0 0 0 1 0 0 0 1 69.911801507614371 33.92387651023185 8.9645088633929113 1 rotate no_reflect no_shear #
lump $-1 $-1 $27 $3 #
transform $-1 1 0 0 0 1 0 0 0 1 69.911801507614371 33.92387651023185 8.9645088633929113 1 rotate no_reflect no_shear #
lump $-1 $-1 $28 $4 #
transform $-1 1 0 0 0 1 0 0 0 1 69.911801507614371 33.92387651023185 8.9645088633929113 1 rotate no_reflect no_shear #
lump $-1 $-1 $29 $5 #
transform $-1 1 0 0 0 1 0 0 0 1 69.911801507614371 33.92387651023185 8.9645088633929113 1 rotate no_reflect no_shear #
lump $-1 $-1 $30 $6 #
transform $-1 1 0 0 0 1 0 0 0 1 69.911801507614371 33.92387651023185 8.9645088633929113 1 rotate no_reflect no_shear #
lump $-1 $-1 $31 $7 #
transform $-1 1 0 0 0 1 0 0 0 1 69.911801507614371 33.92387651023185 8.9645088633929113 1 rotate no_reflect no_shear #
shell $-1 $-1 $-1 $32 $-1 $8 #
shell $-1 $-1 $-1 $33 $-1 $10 #
shell $-1 $-1 $-1 $34 $-1 $12 #
shell $-1 $-1 $-1 $35 $-1 $14 #
shell $-1 $-1 $-1 $36 $-1 $16 #
shell $-1 $-1 $-1 $37 $-1 $18 #
shell $-1 $-1 $-1 $38 $-1 $20 #
shell $-1 $-1 $-1 $39 $-1 $22 #
face $-1 $40 $41 $24 $-1 $42 reversed single #
face $-1 $43 $44 $25 $-1 $45 forward single #
face $-1 $46 $47 $26 $-1 $48 forward single #
face $-1 $49 $50 $27 $-1 $51 reversed single #
face $-1 $52 $53 $28 $-1 $54 forward single #
face $-1 $55 $56 $29 $-1 $57 forward single #
face $-1 $58 $59 $30 $-1 $60 reversed single #
face $-1 $61 $62 $31 $-1 $63 forward single #
face $-1 $64 $65 $24 $-1 $66 reversed single #
loop $-1 $-1 $67 $32 #
plane-surface $-1 69.911801507614371 0 0 -1 0 0 0 0 1 forward_v I I I I #
face $-1 $68 $69 $25 $-1 $70 reversed single #
loop $-1 $-1 $71 $33 #
plane-surface $-1 -69.911801507614371 0 0 1 0 0 0 0 -1 forward_v I I I I #
face $-1 $72 $73 $26 $-1 $74 reversed single #
loop $-1 $-1 $75 $34 #
plane-surface $-1 69.911801507614371 0 0 -1 0 0 0 0 1 forward_v I I I I #
face $-1 $76 $77 $27 $-1 $78 reversed single #
loop $-1 $-1 $79 $35 #
plane-surface $-1 41.766489753422746 -116.11012933496212 113.22142389862931 -1 0 0 0 -0.5877852598018023 0.80901698891910034 forward_v I I I I #
face $-1 $80 $81 $28 $-1 $82 forward single #
loop $-1 $83 $84 $36 #
cone-surface $-1 29.94297193853906 -27.341206461942573 3.8677853136791338 0 0.5877852598018023 -0.80901698891910034 1 0 0 1 I I 0 1 1 forward I I I I #
face $-1 $85 $86 $29 $-1 $87 forward single #
loop $-1 $88 $89 $37 #
cone-surface $-1 37.037082627469275 -27.341206461942573 3.8677853136791338 0 0.5877852598018023 -0.80901698891910034 1 0 0 1 I I 0 1 1 forward I I I I #
face $-1 $90 $91 $30 $-1 $92 reversed single #
loop $-1 $-1 $93 $38 #
plane-surface $-1 -13.135358083243805 77.063423818531916 151.6099377636591 1 0 0 0 -0.66913061440640931 -0.74314481823134659 forward_v I I I I #
face $-1 $94 $95 $31 $-1 $96 forward single #
loop $-1 $97 $98 $39 #
cone-surface $-1 -4.6314652621603045 27.804597747836159 2.9461064370435008 0 -0.66913061440640931 -0.74314481823134659 2 0 0 1 I I 0 1 2 forward I I I I #
face $-1 $99 $100 $24 $-1 $101 forward single #
loop $-1 $-1 $102 $40 #
plane-surface $-1 -69.911801507614371 0 0 1 0 0 0 0 -1 forward_v I I I I #
coedge $-1 $103 $104 $105 $106 reversed $41 $-1 #
face $-1 $107 $108 $25 $-1 $109 reversed single #
loop $-1 $-1 $110 $43 #
plane-surface $-1 0 0 -8.9645088633929113 0 0 1 1 0 0 forward_v I I I I #
coedge $-1 $111 $112 $113 $114 forward $44 $-1 #
face $-1 $115 $116 $26 $-1 $117 reversed single #
loop $-1 $-1 $118 $46 #
plane-surface $-1 0 0 -8.9645088633929113 0 0 1 1 0 0 forward_v I I I I #
coedge $-1 $119 $120 $121 $122 forward $47 $-1 #
face $-1 $123 $124 $27 $-1 $125 reversed single #
loop $-1 $-1 $126 $49 #
plane-surface $-1 33.490027283004167 -33.923876510231835 0.10175360742931616 0 -0.5877852598018023 0.80901698891910034 1 0 0 forward_v I I I I #
coedge $-1 $127 $128 $129 $130 reversed $50 $-1 #
face $-1 $-1 $131 $28 $-1 $132 forward single #
loop $-1 $133 $134 $52 #
cone-surface $-1 29.94297193853906 -26.563911714632724 2.7979308974875998 0 0.5877852598018023 -0.80901698891910034 0.5 0 0 1 I I -0.70710678118654746 0.70710678118654746 0.5 forward I I I I #
loop $-1 $-1 $135 $36 #
coedge $-1 $84 $84 $136 $137 reversed $53 $-1 #
face $-1 $-1 $138 $29 $-1 $139 forward single #
loop $-1 $140 $141 $55 #
cone-surface $-1 37.037082627469275 -26.563911714632724 2.7979308974875998 0 0.5877852598018023 -0.80901698891910034 0.5 0 0 1 I I -0.70710678118654746 0.70710678118654746 0.5 forward I I I I #
loop $-1 $-1 $142 $37 #
coedge $-1 $89 $89 $143 $144 reversed $56 $-1 #
face $-1 $145 $146 $30 $-1 $147 reversed single #
loop $-1 $-1 $148 $58 #
plane-surface $-1 -4.6314652621602903 -16.496829575565954 47.700751716454974 0 0.66913061440640931 0.74314481823134659 1 0 0 forward_v I I I I #
coedge $-1 $149 $150 $151 $152 reversed $59 $-1 #
face $-1 $-1 $153 $31 $-1 $154 forward single #
loop $-1 $155 $156 $61 #
cone-surface $-1 -4.6314652621603045 24.716063837338311 -0.48405790172970953 0 -0.66913061440640931 -0.74314481823134659 1 0 0 1 I I -0.70710678118654735 0.70710678118654768 1 forward I I I I #
loop $-1 $-1 $157 $39 #
coedge $-1 $98 $98 $158 $159 reversed $62 $-1 #
face $-1 $160 $161 $24 $-1 $162 reversed single #
loop $-1 $-1 $163 $64 #
plane-surface $-1 0 0 8.9645088633929113 0 0 1 1 0 0 forward_v I I I I #
coedge $-1 $164 $165 $166 $167 reversed $65 $-1 #
coedge $-1 $168 $67 $169 $170 reversed $41 $-1 #
coedge $-1 $67 $168 $171 $172 forward $41 $-1 #
coedge $-1 $173 $174 $67 $106 forward $161 $-1 #
edge $-1 $175 -33.92387651023185 $176 33.92387651023185 $67 $177 forward 7 unknown #
face $-1 $178 $179 $25 $-1 $180 reversed single #
loop $-1 $-1 $181 $68 #
plane-surface $-1 -73.919985067742957 -21.442637522493563 0 0 1 0 0 0 1 forward_v I I I I #
coedge $-1 $182 $183 $112 $184 forward $69 $-1 #
coedge $-1 $185 $71 $186 $187 reversed $44 $-1 #
coedge $-1 $71 $185 $110 $184 reversed $44 $-1 #
coedge $-1 $188 $189 $71 $114 reversed $190 $-1 #
edge $-1 $191 -8.9645088633929113 $192 8.9645088633929113 $113 $193 forward 7 unknown #
face $-1 $194 $195 $26 $-1 $196 reversed single #
loop $-1 $-1 $121 $72 #
plane-surface $-1 73.919985067742971 -21.442637522493563 0 0 1 0 0 0 1 forward_v I I I I #
coedge $-1 $197 $198 $120 $199 forward $73 $-1 #
coedge $-1 $200 $75 $201 $202 reversed $47 $-1 #
coedge $-1 $75 $200 $118 $199 reversed $47 $-1 #
coedge $-1 $203 $204 $75 $122 reversed $116 $-1 #
edge $-1 $205 -8.9645088633929113 $206 8.9645088633929113 $121 $207 forward 7 unknown #
face $-1 $208 $209 $27 $-1 $210 forward single #
loop $-1 $-1 $211 $76 #
plane-surface $-1 25.213564812585588 -116.11012933496212 113.22142389862931 1 0 0 0 0.5877852598018023 -0.80901698891910034 forward_v I I I I #
coedge $-1 $212 $213 $214 $215 reversed $77 $-1 #
coedge $-1 $128 $79 $216 $217 reversed $50 $-1 #
coedge $-1 $79 $127 $212 $218 reversed $50 $-1 #
coedge $-1 $214 $219 $79 $130 forward $209 $-1 #
edge $-1 $220 24.131188157249213 $221 36.329724019009902 $129 $222 forward 7 unknown #
loop $-1 $-1 $136 $80 #
plane-surface $-1 33.490027283004167 -33.923876510231835 0.10175360742931616 0 -0.5877852598018023 0.80901698891910034 1 0 0 forward_v I I I I #
loop $-1 $-1 $223 $52 #
coedge $-1 $134 $134 $135 $224 reversed $81 $-1 #
coedge $-1 $135 $135 $134 $224 forward $83 $-1 #
coedge $-1 $136 $136 $84 $137 forward $131 $-1 #
edge $-1 $225 1.0383449354295376e-015 $225 6.2831853071796013 $136 $226 forward 7 unknown #
loop $-1 $-1 $143 $85 #
plane-surface $-1 33.490027283004167 -33.923876510231835 0.10175360742931616 0 -0.5877852598018023 0.80901698891910034 1 0 0 forward_v I I I I #
loop $-1 $-1 $227 $55 #
coedge $-1 $141 $141 $142 $228 reversed $86 $-1 #
coedge $-1 $142 $142 $141 $228 forward $88 $-1 #
coedge $-1 $143 $143 $89 $144 forward $138 $-1 #
edge $-1 $229 1.0383449354295376e-015 $229 6.2831853071796013 $143 $230 forward 7 unknown #
face $-1 $231 $232 $30 $-1 $233 reversed single #
loop $-1 $-1 $234 $90 #
plane-surface $-1 3.8724275589232242 77.063423818531916 151.6099377636591 -1 0 0 0 0.66913061440640931 0.74314481823134659 forward_v I I I I #
coedge $-1 $235 $236 $237 $238 reversed $91 $-1 #
coedge $-1 $150 $93 $239 $240 reversed $59 $-1 #
coedge $-1 $93 $149 $235 $241 reversed $59 $-1 #
coedge $-1 $237 $242 $93 $152 forward $243 $-1 #
edge $-1 $244 4.6078353990341085 $245 12.007586331642656 $151 $246 forward 7 unknown #
loop $-1 $-1 $158 $94 #
plane-surface $-1 -4.6314652621602903 -16.496829575565954 47.700751716454974 0 0.66913061440640931 0.74314481823134659 1 0 0 forward_v I I I I #
loop $-1 $-1 $247 $61 #
coedge $-1 $156 $156 $157 $248 reversed $95 $-1 #
coedge $-1 $157 $157 $156 $248 forward $97 $-1 #
coedge $-1 $158 $158 $98 $159 forward $153 $-1 #
edge $-1 $249 -3.9976092028976813e-016 $249 6.2831853071796004 $158 $250 forward 7 unknown #
face $-1 $251 $252 $24 $-1 $253 reversed single #
loop $-1 $-1 $105 $99 #
plane-surface $-1 0 0 -8.9645088633929113 0 0 1 1 0 0 forward_v I I I I #
coedge $-1 $254 $255 $168 $256 forward $100 $-1 #
coedge $-1 $257 $102 $258 $259 reversed $65 $-1 #
coedge $-1 $102 $257 $260 $261 forward $65 $-1 #
coedge $-1 $174 $173 $102 $167 forward $161 $-1 #
edge $-1 $262 -33.92387651023185 $263 33.92387651023185 $102 $264 forward 7 unknown #
coedge $-1 $104 $103 $163 $256 reversed $41 $-1 #
coedge $-1 $265 $266 $103 $170 forward $267 $-1 #
edge $-1 $268 -8.9645088633929113 $175 8.9645088633929113 $103 $269 forward 7 unknown #
coedge $-1 $270 $271 $104 $172 reversed $252 $-1 #
edge $-1 $272 -8.9645088633929113 $176 8.9645088633929113 $104 $273 forward 7 unknown #
coedge $-1 $166 $105 $271 $274 forward $161 $-1 #
coedge $-1 $105 $166 $265 $275 forward $161 $-1 #
vertex $-1 $106 $276 #
vertex $-1 $172 $277 #
straight-curve $-1 69.911801507614371 0 -8.9645088633929113 0 -1 0 I I #
face $-1 $278 $190 $25 $-1 $279 reversed single #
loop $-1 $-1 $280 $107 #
plane-surface $-1 -77.928168627871543 -19.084266119707042 0 1 0 0 0 0 -1 forward_v I I I I #
coedge $-1 $281 $282 $283 $284 forward $108 $-1 #
coedge $-1 $285 $110 $281 $286 forward $69 $-1 #
coedge $-1 $110 $285 $188 $287 forward $69 $-1 #
edge $-1 $191 16.725894716920521 $288 21.442637522493563 $110 $289 forward 7 unknown #
coedge $-1 $112 $111 $290 $291 forward $44 $-1 #
coedge $-1 $292 $293 $111 $187 forward $294 $-1 #
edge $-1 $295 -21.442637522493563 $192 -16.725894716920521 $186 $296 forward 7 unknown #
coedge $-1 $297 $113 $183 $287 reversed $190 $-1 #
coedge $-1 $113 $297 $292 $298 reversed $190 $-1 #
loop $-1 $-1 $113 $178 #
vertex $-1 $184 $299 #
vertex $-1 $298 $300 #
straight-curve $-1 -69.911801507614371 -16.725894716920521 0 0 0 1 I I #
face $-1 $301 $302 $26 $-1 $303 reversed single #
loop $-1 $-1 $304 $115 #
plane-surface $-1 73.919985067742971 -16.725894716920521 0 0 -1 0 0 0 -1 forward_v I I I I #
coedge $-1 $305 $118 $306 $307 forward $73 $-1 #
coedge $-1 $118 $305 $203 $308 forward $73 $-1 #
edge $-1 $205 -21.442637522493563 $309 -16.725894716920521 $118 $310 forward 7 unknown #
coedge $-1 $120 $119 $311 $312 forward $47 $-1 #
coedge $-1 $313 $314 $119 $202 forward $315 $-1 #
edge $-1 $316 16.725894716920521 $206 21.442637522493563 $201 $317 forward 7 unknown #
coedge $-1 $318 $121 $198 $308 reversed $116 $-1 #
coedge $-1 $121 $318 $313 $319 reversed $116 $-1 #
vertex $-1 $199 $320 #
vertex $-1 $319 $321 #
straight-curve $-1 69.911801507614371 -21.442637522493563 0 0 0 1 I I #
face $-1 $-1 $322 $27 $-1 $323 reversed single #
loop $-1 $-1 $129 $123 #
plane-surface $-1 0 0 8.9645088633929113 0 0 1 1 0 0 forward_v I I I I #
coedge $-1 $324 $325 $326 $327 reversed $124 $-1 #
coedge $-1 $328 $126 $128 $218 forward $77 $-1 #
coedge $-1 $126 $328 $324 $329 forward $77 $-1 #
coedge $-1 $326 $129 $126 $215 forward $209 $-1 #
edge $-1 $221 -25.021476111920663 $330 -8.4685511710835044 $214 $331 forward 7 unknown #
coedge $-1 $332 $333 $127 $217 forward $322 $-1 #
edge $-1 $334 -56.508958341885346 $220 -47.646203085921741 $216 $335 forward 7 unknown #
edge $-1 $221 -15.078219652789631 $334 1.756574927105486e-014 $128 $336 forward 7 unknown #
coedge $-1 $129 $326 $332 $337 forward $209 $-1 #
vertex $-1 $130 $338 #
vertex $-1 $130 $339 #
straight-curve $-1 41.766489753422746 -58.055064667481062 8.9645088633929078 0 1 0 I I #
coedge $-1 $223 $223 $-1 $340 reversed $133 $-1 #
edge $-1 $341 0 $341 6.2831853071796004 $134 $342 forward 7 unknown #
vertex $-1 $137 $343 #
ellipse-curve $-1 29.94297193853906 -27.824608579351512 4.5331312354111057 0 -0.5877852598018023 0.80901698891910034 1 0 0 1 I I #
coedge $-1 $227 $227 $-1 $344 reversed $140 $-1 #
edge $-1 $345 0 $345 6.2831853071796004 $141 $346 forward 7 unknown #
vertex $-1 $144 $347 #
ellipse-curve $-1 37.037082627469275 -27.824608579351512 4.5331312354111057 0 -0.5877852598018023 0.80901698891910034 1 0 0 1 I I #
face $-1 $-1 $243 $30 $-1 $348 forward single #
loop $-1 $-1 $349 $145 #
plane-surface $-1 0 33.92387651023185 0 0 -1 0 0 0 -1 forward_v I I I I #
coedge $-1 $350 $351 $352 $353 reversed $146 $-1 #
coedge $-1 $354 $148 $150 $241 forward $91 $-1 #
coedge $-1 $148 $354 $350 $355 forward $91 $-1 #
coedge $-1 $352 $151 $148 $238 forward $243 $-1 #
edge $-1 $245 -10.81962545216366 $356 6.1881601900033694 $237 $357 forward 7 unknown #
coedge $-1 $358 $359 $149 $240 forward $232 $-1 #
edge $-1 $360 -73.503225830051775 $244 -66.840460018436644 $239 $361 forward 7 unknown #
edge $-1 $245 57.890405877521047 $360 67.847753020463713 $150 $362 forward 7 unknown #
coedge $-1 $151 $352 $358 $363 forward $243 $-1 #
loop $-1 $-1 $352 $231 #
vertex $-1 $240 $364 #
vertex $-1 $152 $365 #
straight-curve $-1 -13.135358083243805 38.531711909265958 8.9645088633929078 0 -1 0 I I #
coedge $-1 $247 $247 $-1 $366 reversed $155 $-1 #
edge $-1 $367 0 $367 6.2831853071796004 $156 $368 forward 7 unknown #
vertex $-1 $159 $369 #
ellipse-curve $-1 -4.6314652621603045 30.224001043927576 5.6331259575853405 0 0.66913061440640931 0.74314481823134659 2 0 0 1 I I #
face $-1 $-1 $267 $24 $-1 $370 reversed single #
loop $-1 $-1 $258 $160 #
plane-surface $-1 0 -33.92387651023185 0 0 1 0 0 0 1 forward_v I I I I #
coedge $-1 $371 $163 $266 $372 forward $100 $-1 #
coedge $-1 $163 $371 $270 $373 forward $100 $-1 #
edge $-1 $272 -33.92387651023185 $268 33.92387651023185 $168 $374 forward 7 unknown #
coedge $-1 $165 $164 $371 $375 reversed $65 $-1 #
coedge $-1 $271 $270 $164 $259 forward $252 $-1 #
edge $-1 $376 -8.9645088633929113 $262 8.9645088633929113 $164 $377 forward 7 unknown #
coedge $-1 $266 $265 $165 $261 reversed $267 $-1 #
edge $-1 $378 -8.9645088633929113 $263 8.9645088633929113 $260 $379 forward 7 unknown #
vertex $-1 $167 $380 #
vertex $-1 $275 $381 #
straight-curve $-1 -69.911801507614371 0 -8.9645088633929113 0 1 0 I I #
coedge $-1 $260 $169 $174 $275 reversed $267 $-1 #
coedge $-1 $169 $260 $254 $372 reversed $267 $-1 #
loop $-1 $-1 $169 $251 #
vertex $-1 $256 $382 #
straight-curve $-1 69.911801507614371 33.92387651023185 0 0 0 -1 I I #
coedge $-1 $258 $171 $255 $373 reversed $252 $-1 #
coedge $-1 $171 $258 $173 $274 reversed $252 $-1 #
vertex $-1 $256 $383 #
straight-curve $-1 69.911801507614371 -33.92387651023185 0 0 0 -1 I I #
edge $-1 $176 -69.911801507614371 $262 69.911801507614371 $271 $384 forward 7 unknown #
edge $-1 $263 -69.911801507614371 $175 69.911801507614371 $265 $385 forward 7 unknown #
point $-1 69.911801507614371 33.92387651023185 -8.9645088633929113 #
point $-1 69.911801507614371 -33.92387651023185 -8.9645088633929113 #
face $-1 $-1 $294 $25 $-1 $386 forward single #
plane-surface $-1 -73.919985067742957 -16.725894716920521 0 0 -1 0 0 0 -1 forward_v I I I I #
coedge $-1 $387 $388 $297 $389 forward $179 $-1 #
coedge $-1 $290 $181 $182 $286 reversed $108 $-1 #
coedge $-1 $181 $290 $293 $390 reversed $108 $-1 #
coedge $-1 $388 $387 $181 $284 reversed $179 $-1 #
edge $-1 $391 -8.9645088633929113 $392 8.9645088633929113 $283 $393 forward 7 unknown #
coedge $-1 $183 $182 $387 $394 forward $69 $-1 #
edge $-1 $288 -4.008183560128586 $392 4.008183560128586 $281 $395 forward 7 unknown #
edge $-1 $396 -4.008183560128586 $191 4.008183560128586 $188 $397 forward 7 unknown #
vertex $-1 $286 $398 #
straight-curve $-1 -69.911801507614371 0 -8.9645088633929113 0 -1 0 I I #
coedge $-1 $282 $281 $185 $291 reversed $108 $-1 #
edge $-1 $295 -8.9645088633929113 $288 8.9645088633929113 $290 $399 forward 7 unknown #
coedge $-1 $400 $186 $189 $298 forward $294 $-1 #
coedge $-1 $186 $400 $282 $390 forward $294 $-1 #
loop $-1 $-1 $186 $278 #
vertex $-1 $187 $401 #
straight-curve $-1 -69.911801507614371 0 8.9645088633929113 0 1 0 I I #
coedge $-1 $189 $188 $280 $389 reversed $190 $-1 #
edge $-1 $192 -4.008183560128586 $402 4.008183560128586 $189 $403 forward 7 unknown #
point $-1 -69.911801507614371 -16.725894716920521 -8.9645088633929113 #
point $-1 -69.911801507614371 -16.725894716920521 8.9645088633929113 #
face $-1 $-1 $315 $26 $-1 $404 forward single #
loop $-1 $-1 $405 $194 #
plane-surface $-1 77.928168627871557 -19.084266119707042 0 -1 0 0 0 0 1 forward_v I I I I #
coedge $-1 $306 $406 $407 $408 forward $195 $-1 #
coedge $-1 $198 $197 $409 $410 forward $73 $-1 #
coedge $-1 $311 $304 $197 $307 reversed $195 $-1 #
edge $-1 $309 -4.008183560128586 $411 4.008183560128586 $306 $412 forward 7 unknown #
edge $-1 $413 -4.008183560128586 $205 4.008183560128586 $203 $414 forward 7 unknown #
vertex $-1 $307 $415 #
straight-curve $-1 69.911801507614371 0 -8.9645088633929113 0 1 0 I I #
coedge $-1 $406 $306 $200 $312 reversed $195 $-1 #
edge $-1 $316 -8.9645088633929113 $309 8.9645088633929113 $311 $416 forward 7 unknown #
coedge $-1 $417 $201 $204 $319 forward $315 $-1 #
coedge $-1 $201 $417 $406 $418 forward $315 $-1 #
loop $-1 $-1 $201 $301 #
vertex $-1 $202 $419 #
straight-curve $-1 69.911801507614371 0 8.9645088633929113 0 -1 0 I I #
coedge $-1 $204 $203 $405 $420 reversed $116 $-1 #
edge $-1 $206 -4.008183560128586 $421 4.008183560128586 $204 $422 forward 7 unknown #
point $-1 69.911801507614385 -21.442637522493563 -8.9645088633929113 #
point $-1 69.911801507614385 -21.442637522493563 8.9645088633929113 #
loop $-1 $-1 $216 $208 #
plane-surface $-1 0 -33.92387651023185 0 0 1 0 0 0 1 forward_v I I I I #
coedge $-1 $325 $211 $213 $329 reversed $124 $-1 #
coedge $-1 $211 $324 $423 $424 reversed $124 $-1 #
coedge $-1 $219 $214 $211 $327 forward $209 $-1 #
edge $-1 $330 -36.329724019009902 $425 -24.131188157249213 $326 $426 forward 7 unknown #
coedge $-1 $213 $212 $333 $427 reversed $77 $-1 #
edge $-1 $428 -1.756574927105486e-014 $330 15.078219652789631 $324 $429 forward 7 unknown #
vertex $-1 $215 $430 #
straight-curve $-1 16.745013641502084 -21.725340648471164 8.9645088633929113 -1 0 0 I I #
coedge $-1 $423 $216 $219 $337 reversed $322 $-1 #
coedge $-1 $216 $423 $328 $427 forward $322 $-1 #
vertex $-1 $217 $431 #
straight-curve $-1 41.766489753422746 -33.92387651023185 56.610711949314656 0 0 1 I I #
straight-curve $-1 41.766489753422746 -33.923876510231835 0.10175360742931616 0 -0.80901698891910034 -0.5877852598018023 I I #
edge $-1 $425 25.213564812585588 $220 41.766489753422746 $332 $432 forward 7 unknown #
point $-1 41.766489753422746 -33.92387651023185 8.9645088633929113 #
point $-1 41.766489753422746 -21.725340648471164 8.9645088633929113 #
edge $-1 $433 1 $433 0 $223 $-1 forward 7 unknown #
vertex $-1 $224 $434 #
ellipse-curve $-1 29.94297193853906 -26.857804344533626 3.2024393919471499 0 -0.5877852598018023 0.80901698891910034 1 0 0 1 I I #
point $-1 30.94297193853906 -27.824608579351519 4.5331312354111173 #
edge $-1 $435 1 $435 0 $227 $-1 forward 7 unknown #
vertex $-1 $228 $436 #
ellipse-curve $-1 37.037082627469275 -26.857804344533626 3.2024393919471499 0 -0.5877852598018023 0.80901698891910034 1 0 0 1 I I #
point $-1 38.037082627469275 -27.824608579351519 4.5331312354111173 #
plane-surface $-1 0 0 8.9645088633929113 0 0 1 1 0 0 forward_v I I I I #
coedge $-1 $359 $358 $351 $437 forward $232 $-1 #
coedge $-1 $351 $234 $236 $355 reversed $146 $-1 #
coedge $-1 $234 $350 $349 $437 reversed $146 $-1 #
coedge $-1 $242 $237 $234 $353 forward $243 $-1 #
edge $-1 $356 -12.007586331642656 $438 -4.6078353990341085 $352 $439 forward 7 unknown #
coedge $-1 $236 $235 $359 $440 reversed $91 $-1 #
edge $-1 $441 -67.847753020463713 $356 -57.890405877521047 $350 $442 forward 7 unknown #
vertex $-1 $238 $443 #
straight-curve $-1 -2.3157326310801452 26.524125577623305 8.9645088633929078 1 0 0 I I #
coedge $-1 $349 $239 $242 $363 reversed $232 $-1 #
coedge $-1 $239 $349 $354 $440 forward $232 $-1 #
vertex $-1 $240 $444 #
straight-curve $-1 -13.135358083243805 33.92387651023185 75.804968881829552 0 0 1 I I #
straight-curve $-1 -13.135358083243805 -16.496829575565954 47.700751716454974 0 0.74314481823134659 -0.66913061440640931 I I #
edge $-1 $438 -3.8724275589232242 $244 13.135358083243805 $358 $445 forward 7 unknown #
point $-1 -13.135358083243805 33.92387651023185 8.9645088633929113 #
point $-1 -13.135358083243805 26.524125577623302 8.9645088633929078 #
edge $-1 $446 1 $446 0 $247 $-1 forward 7 unknown #
vertex $-1 $248 $447 #
ellipse-curve $-1 -4.6314652621603045 25.38519445174472 0.2590869165016374 0 0.66913061440640931 0.74314481823134659 2 0 0 1 I I #
point $-1 -2.6314652621603045 30.224001043927597 5.6331259575853654 #
plane-surface $-1 0 33.92387651023185 0 0 -1 0 0 0 -1 forward_v I I I I #
coedge $-1 $255 $254 $257 $375 forward $100 $-1 #
edge $-1 $268 -69.911801507614371 $378 69.911801507614371 $266 $448 forward 7 unknown #
edge $-1 $376 -69.911801507614371 $272 69.911801507614371 $270 $449 forward 7 unknown #
straight-curve $-1 69.911801507614371 0 8.9645088633929113 0 1 0 I I #
edge $-1 $378 -33.92387651023185 $376 33.92387651023185 $257 $450 forward 7 unknown #
vertex $-1 $375 $451 #
straight-curve $-1 -69.911801507614371 -33.92387651023185 0 0 0 -1 I I #
vertex $-1 $372 $452 #
straight-curve $-1 -69.911801507614371 33.92387651023185 0 0 0 -1 I I #
point $-1 -69.911801507614371 -33.92387651023185 -8.9645088633929113 #
point $-1 -69.911801507614371 33.92387651023185 -8.9645088633929113 #
point $-1 69.911801507614371 33.92387651023185 8.9645088633929113 #
point $-1 69.911801507614371 -33.92387651023185 8.9645088633929113 #
straight-curve $-1 0 -33.92387651023185 -8.9645088633929113 -1 0 0 I I #
straight-curve $-1 0 33.92387651023185 -8.9645088633929113 1 0 0 I I #
plane-surface $-1 0 0 8.9645088633929113 0 0 1 1 0 0 forward_v I I I I #
coedge $-1 $283 $280 $285 $394 reversed $179 $-1 #
coedge $-1 $280 $283 $400 $453 reversed $179 $-1 #
edge $-1 $402 -8.9645088633929113 $396 8.9645088633929113 $297 $454 forward 7 unknown #
edge $-1 $391 -4.008183560128586 $295 4.008183560128586 $282 $455 forward 7 unknown #
vertex $-1 $453 $456 #
vertex $-1 $394 $457 #
straight-curve $-1 -77.928168627871543 -21.442637522493563 0 0 0 -1 I I #
edge $-1 $392 -2.3583714027865206 $396 2.3583714027865206 $387 $458 forward 7 unknown #
straight-curve $-1 -73.919985067742957 -21.442637522493563 -8.9645088633929113 -1 0 0 I I #
vertex $-1 $287 $459 #
straight-curve $-1 -73.919985067742957 -16.725894716920521 -8.9645088633929113 1 0 0 I I #
point $-1 -69.911801507614371 -21.442637522493563 -8.9645088633929113 #
straight-curve $-1 -69.911801507614371 -21.442637522493563 0 0 0 -1 I I #
coedge $-1 $293 $292 $388 $453 forward $294 $-1 #
point $-1 -69.911801507614371 -21.442637522493563 8.9645088633929113 #
vertex $-1 $298 $460 #
straight-curve $-1 -73.919985067742957 -16.725894716920521 8.9645088633929113 -1 0 0 I I #
plane-surface $-1 0 0 8.9645088633929113 0 0 1 1 0 0 forward_v I I I I #
coedge $-1 $409 $461 $318 $420 forward $302 $-1 #
coedge $-1 $304 $311 $314 $418 reversed $195 $-1 #
coedge $-1 $461 $409 $304 $408 reversed $302 $-1 #
edge $-1 $462 -8.9645088633929113 $411 8.9645088633929113 $407 $463 forward 7 unknown #
coedge $-1 $407 $405 $305 $410 reversed $302 $-1 #
edge $-1 $411 -2.3583714027865206 $413 2.3583714027865206 $409 $464 forward 7 unknown #
vertex $-1 $410 $465 #
straight-curve $-1 73.919985067742971 -16.725894716920521 -8.9645088633929113 1 0 0 I I #
vertex $-1 $420 $466 #
straight-curve $-1 73.919985067742971 -21.442637522493563 -8.9645088633929113 -1 0 0 I I #
point $-1 69.911801507614385 -16.725894716920521 -8.9645088633929113 #
straight-curve $-1 69.911801507614371 -16.725894716920521 0 0 0 -1 I I #
coedge $-1 $314 $313 $461 $467 forward $315 $-1 #
edge $-1 $462 -4.008183560128586 $316 4.008183560128586 $406 $468 forward 7 unknown #
point $-1 69.911801507614385 -16.725894716920521 8.9645088633929113 #
edge $-1 $421 -8.9645088633929113 $413 8.9645088633929113 $405 $469 forward 7 unknown #
vertex $-1 $467 $470 #
straight-curve $-1 73.919985067742971 -21.442637522493563 8.9645088633929113 1 0 0 I I #
coedge $-1 $333 $332 $325 $424 forward $322 $-1 #
edge $-1 $425 47.646203085921741 $428 56.508958341885346 $423 $471 forward 7 unknown #
vertex $-1 $337 $472 #
straight-curve $-1 25.213564812585588 -58.055064667481062 8.9645088633929078 0 -1 0 I I #
edge $-1 $428 8.4685511710835044 $334 25.021476111920663 $333 $473 forward 7 unknown #
vertex $-1 $427 $474 #
straight-curve $-1 25.213564812585588 -33.923876510231835 0.10175360742931616 0 0.80901698891910034 0.5877852598018023 I I #
point $-1 25.213564812585588 -21.725340648471164 8.9645088633929113 #
point $-1 41.766489753422746 -33.92387651023185 0.10175360742930584 #
straight-curve $-1 0 -33.92387651023185 8.9645088633929113 1 0 0 I I #
vertex $-1 $340 $475 #
point $-1 30.94297193853906 -26.857804344533626 3.2024393919471499 #
vertex $-1 $344 $476 #
point $-1 38.037082627469275 -26.857804344533626 3.2024393919471499 #
edge $-1 $438 66.840460018436644 $441 73.503225830051775 $349 $477 forward 7 unknown #
vertex $-1 $363 $478 #
straight-curve $-1 3.8724275589232242 38.531711909265958 8.9645088633929078 0 1 0 I I #
edge $-1 $441 -6.1881601900033694 $360 10.81962545216366 $359 $479 forward 7 unknown #
vertex $-1 $440 $480 #
straight-curve $-1 3.8724275589232242 -16.496829575565954 47.700751716454974 0 -0.74314481823134659 0.66913061440640931 I I #
point $-1 3.8724275589232242 26.524125577623302 8.9645088633929078 #
point $-1 -13.135358083243805 33.92387651023185 2.3017430517777768 #
straight-curve $-1 0 33.92387651023185 8.9645088633929113 -1 0 0 I I #
vertex $-1 $366 $481 #
point $-1 -2.6314652621603045 25.38519445174472 0.2590869165016374 #
straight-curve $-1 0 33.92387651023185 8.9645088633929113 -1 0 0 I I #
straight-curve $-1 0 -33.92387651023185 8.9645088633929113 1 0 0 I I #
straight-curve $-1 -69.911801507614371 0 8.9645088633929113 0 -1 0 I I #
point $-1 -69.911801507614371 -33.92387651023185 8.9645088633929113 #
point $-1 -69.911801507614371 33.92387651023185 8.9645088633929113 #
edge $-1 $402 -2.3583714027865206 $391 2.3583714027865206 $388 $482 forward 7 unknown #
straight-curve $-1 -77.928168627871543 -16.725894716920521 0 0 0 -1 I I #
straight-curve $-1 -73.919985067742957 -21.442637522493563 8.9645088633929113 1 0 0 I I #
point $-1 -77.928168627871543 -21.442637522493563 8.9645088633929113 #
point $-1 -77.928168627871543 -21.442637522493563 -8.9645088633929113 #
straight-curve $-1 -77.928168627871543 -19.084266119707042 -8.9645088633929113 0 1 0 I I #
point $-1 -77.928168627871543 -16.725894716920521 -8.9645088633929113 #
point $-1 -77.928168627871543 -16.725894716920521 8.9645088633929113 #
coedge $-1 $405 $407 $417 $467 reversed $302 $-1 #
vertex $-1 $467 $483 #
straight-curve $-1 77.928168627871557 -16.725894716920521 0 0 0 -1 I I #
straight-curve $-1 77.928168627871557 -19.084266119707042 -8.9645088633929113 0 -1 0 I I #
point $-1 77.928168627871557 -16.725894716920521 -8.9645088633929113 #
point $-1 77.928168627871557 -21.442637522493563 -8.9645088633929113 #
edge $-1 $421 -2.3583714027865206 $462 2.3583714027865206 $461 $484 forward 7 unknown #
straight-curve $-1 73.919985067742971 -16.725894716920521 8.9645088633929113 -1 0 0 I I #
straight-curve $-1 77.928168627871557 -21.442637522493563 0 0 0 -1 I I #
point $-1 77.928168627871557 -21.442637522493563 8.9645088633929113 #
straight-curve $-1 25.213564812585588 -33.92387651023185 56.610711949314656 0 0 -1 I I #
point $-1 25.213564812585588 -33.92387651023185 8.9645088633929113 #
straight-curve $-1 16.745013641502084 -33.92387651023185 0.10175360742930459 1 0 0 I I #
point $-1 25.213564812585588 -33.92387651023185 0.10175360742930584 #
point $-1 29.94297193853906 -26.270019084731821 2.3934224030280498 #
point $-1 37.037082627469275 -26.270019084731821 2.3934224030280498 #
straight-curve $-1 3.8724275589232242 33.92387651023185 75.804968881829552 0 0 -1 I I #
point $-1 3.8724275589232242 33.92387651023185 8.9645088633929113 #
straight-curve $-1 -2.3157326310801452 33.92387651023185 2.3017430517777768 -1 0 0 I I #
point $-1 3.8724275589232242 33.92387651023185 2.3017430517777768 #
point $-1 -4.6314652621603045 24.046933222931901 -1.2272027199610565 #
straight-curve $-1 -77.928168627871543 -19.084266119707042 8.9645088633929113 0 -1 0 I I #
point $-1 77.928168627871557 -16.725894716920521 8.9645088633929113 #
straight-curve $-1 77.928168627871557 -19.084266119707042 8.9645088633929113 0 1 0 I I #
End-of-ACIS-data 