500 0 8 0           
7 Unknown 11 ACIS 5.0 NT 24 Fri Mar 26 17:54:28 1999 
-1 9.9999999999999995e-007 1e-010 
body $-1 $8 $-1 $9 #
body $-1 $10 $-1 $11 #
body $-1 $12 $-1 $13 #
body $-1 $14 $-1 $15 #
body $-1 $16 $-1 $17 #
body $-1 $18 $-1 $19 #
body $-1 $20 $-1 $21 #
body $-1 $22 $-1 $23 #
lump $-1 $-1 $24 $0 #
transform $-1 1 0 0 0 1 0 0 0 1 73.329874568926044 50.315792379391915 12.907788908411833 1 rotate no_reflect no_shear #
lump $-1 $-1 $25 $1 #
transform $-1 1 0 0 0 1 0 0 0 1 73.329874568926044 50.315792379391915 12.907788908411833 1 rotate no_reflect no_shear #
lump $-1 $-1 $26 $2 #
transform $-1 1 0 0 0 1 0 0 0 1 73.329874568926044 50.315792379391915 12.907788908411833 1 rotate no_reflect no_shear #
lump $-1 $-1 $27 $3 #
transform $-1 1 0 0 0 1 0 0 0 1 73.329874568926044 50.315792379391915 12.907788908411833 1 rotate no_reflect no_shear #
lump $-1 $-1 $28 $4 #
transform $-1 1 0 0 0 1 0 0 0 1 73.329874568926044 50.315792379391915 12.907788908411833 1 rotate no_reflect no_shear #
lump $-1 $-1 $29 $5 #
transform $-1 1 0 0 0 1 0 0 0 1 73.329874568926044 50.315792379391915 12.907788908411833 1 rotate no_reflect no_shear #
lump $-1 $-1 $30 $6 #
transform $-1 1 0 0 0 1 0 0 0 1 73.329874568926044 50.315792379391915 12.907788908411833 1 rotate no_reflect no_shear #
lump $-1 $-1 $31 $7 #
transform $-1 1 0 0 0 1 0 0 0 1 73.329874568926044 50.315792379391915 12.907788908411833 1 rotate no_reflect no_shear #
shell $-1 $-1 $-1 $32 $-1 $8 #
shell $-1 $-1 $-1 $33 $-1 $10 #
shell $-1 $-1 $-1 $34 $-1 $12 #
shell $-1 $-1 $-1 $35 $-1 $14 #
shell $-1 $-1 $-1 $36 $-1 $16 #
shell $-1 $-1 $-1 $37 $-1 $18 #
shell $-1 $-1 $-1 $38 $-1 $20 #
shell $-1 $-1 $-1 $39 $-1 $22 #
face $-1 $40 $41 $24 $-1 $42 forward single #
face $-1 $43 $44 $25 $-1 $45 reversed single #
face $-1 $46 $47 $26 $-1 $48 reversed single #
face $-1 $49 $50 $27 $-1 $51 reversed single #
face $-1 $52 $53 $28 $-1 $54 forward single #
face $-1 $55 $56 $29 $-1 $57 reversed single #
face $-1 $58 $59 $30 $-1 $60 forward single #
face $-1 $61 $62 $31 $-1 $63 forward single #
face $-1 $64 $65 $24 $-1 $66 reversed single #
loop $-1 $-1 $67 $32 #
plane-surface $-1 0 0 12.907788908411833 0 0 1 1 0 0 forward_v I I I I #
face $-1 $68 $69 $25 $-1 $70 reversed single #
loop $-1 $-1 $71 $33 #
plane-surface $-1 -67.880453241266935 0 6.6248979383558684 0 0 1 1 0 0 forward_v I I I I #
face $-1 $72 $73 $26 $-1 $74 reversed single #
loop $-1 $-1 $75 $34 #
plane-surface $-1 67.880453241266935 0 6.6248979383558684 0 0 1 1 0 0 forward_v I I I I #
face $-1 $76 $77 $27 $-1 $78 reversed single #
loop $-1 $-1 $79 $35 #
plane-surface $-1 5.9075942291196881 103.9302641581119 171.55028676075455 1 0 0 0 -0.78801076186113728 -0.61566146476048833 forward_v I I I I #
face $-1 $80 $81 $28 $-1 $82 forward single #
loop $-1 $83 $84 $36 #
cone-surface $-1 21.946236263653191 43.902560025797939 5.764391162827085 0 -0.78801076186113728 -0.61566146476048833 2 0 0 1 I I 0 1 2 forward I I I I #
face $-1 $85 $86 $29 $-1 $87 reversed single #
loop $-1 $-1 $88 $37 #
plane-surface $-1 46.683710560845327 -150.33750196776518 114.02237322039041 1 0 0 0 0.68199836817093118 -0.7313536940579346 forward_v I I I I #
face $-1 $89 $90 $30 $-1 $91 forward single #
loop $-1 $92 $93 $38 #
cone-surface $-1 51.18294523306318 -45.813386939405433 8.5403896248782019 0 0.68199836817093118 -0.7313536940579346 2 0 0 1 I I 0 1 2 forward I I I I #
face $-1 $94 $95 $31 $-1 $96 forward single #
loop $-1 $97 $98 $39 #
cone-surface $-1 57.931797241389972 -45.813386939405433 8.5403896248782019 0 0.68199836817093118 -0.7313536940579346 2 0 0 1 I I 0 1 2 forward I I I I #
face $-1 $99 $100 $24 $-1 $101 reversed single #
loop $-1 $-1 $102 $40 #
plane-surface $-1 0 0 -12.907788908411833 0 0 1 1 0 0 forward_v I I I I #
coedge $-1 $103 $104 $105 $106 forward $41 $-1 #
face $-1 $107 $108 $25 $-1 $109 reversed single #
loop $-1 $-1 $110 $43 #
plane-surface $-1 -62.431031913607825 0 9.7663434233838498 -1 0 0 0 0 1 forward_v I I I I #
coedge $-1 $111 $112 $113 $114 forward $44 $-1 #
face $-1 $115 $116 $26 $-1 $117 forward single #
loop $-1 $-1 $118 $46 #
plane-surface $-1 62.431031913607825 0 9.7663434233838498 1 0 0 0 0 -1 forward_v I I I I #
coedge $-1 $119 $120 $121 $122 reversed $47 $-1 #
face $-1 $123 $124 $27 $-1 $125 reversed single #
loop $-1 $-1 $126 $49 #
plane-surface $-1 21.946236263653191 -11.639196494370196 81.257530785138769 0 0.78801076186113728 0.61566146476048833 1 0 0 forward_v I I I I #
coedge $-1 $127 $128 $129 $130 reversed $50 $-1 #
face $-1 $-1 $131 $28 $-1 $132 forward single #
loop $-1 $133 $134 $52 #
cone-surface $-1 21.946236263653191 40.978476633240369 3.4798469006498021 0 -0.78801076186113728 -0.61566146476048833 1 0 0 1 I I -0.70710678118654746 0.70710678118654746 1 forward I I I I #
loop $-1 $-1 $135 $36 #
coedge $-1 $84 $84 $136 $137 reversed $53 $-1 #
face $-1 $138 $139 $29 $-1 $140 reversed single #
loop $-1 $-1 $141 $55 #
plane-surface $-1 54.557371237226576 -50.315792379391922 6.7622239188122961 0 -0.68199836817093118 0.7313536940579346 1 0 0 forward_v I I I I #
coedge $-1 $142 $143 $144 $145 reversed $56 $-1 #
face $-1 $-1 $146 $30 $-1 $147 forward single #
loop $-1 $148 $149 $58 #
cone-surface $-1 51.18294523306318 -43.924138858138441 6.5144191420864086 0 0.68199836817093118 -0.7313536940579346 1 0 0 1 I I -0.70710678118654746 0.70710678118654746 1 forward I I I I #
loop $-1 $-1 $150 $38 #
coedge $-1 $93 $93 $151 $152 reversed $59 $-1 #
face $-1 $-1 $153 $31 $-1 $154 forward single #
loop $-1 $155 $156 $61 #
cone-surface $-1 57.931797241389972 -43.924138858138441 6.5144191420864086 0 0.68199836817093118 -0.7313536940579346 1 0 0 1 I I -0.70710678118654746 0.70710678118654746 1 forward I I I I #
loop $-1 $-1 $157 $39 #
coedge $-1 $98 $98 $158 $159 reversed $62 $-1 #
face $-1 $160 $161 $24 $-1 $162 reversed single #
loop $-1 $-1 $163 $64 #
plane-surface $-1 0 -50.315792379391915 0 0 1 0 0 0 1 forward_v I I I I #
coedge $-1 $164 $165 $166 $167 forward $65 $-1 #
coedge $-1 $168 $67 $169 $170 forward $41 $-1 #
coedge $-1 $67 $168 $171 $172 forward $41 $-1 #
coedge $-1 $173 $174 $67 $106 reversed $175 $-1 #
edge $-1 $176 -50.315792379391915 $177 50.315792379391915 $105 $178 forward 7 unknown #
face $-1 $179 $180 $25 $-1 $181 reversed single #
loop $-1 $-1 $182 $68 #
plane-surface $-1 0 50.315792379391915 0 0 -1 0 0 0 -1 forward_v I I I I #
coedge $-1 $113 $183 $184 $185 reversed $69 $-1 #
coedge $-1 $186 $71 $187 $188 reversed $44 $-1 #
coedge $-1 $71 $186 $189 $190 reversed $44 $-1 #
coedge $-1 $191 $110 $71 $114 reversed $69 $-1 #
edge $-1 $192 -50.315792379391915 $193 50.315792379391915 $113 $194 forward 7 unknown #
face $-1 $195 $196 $26 $-1 $197 reversed single #
loop $-1 $-1 $198 $72 #
plane-surface $-1 0 0 12.907788908411833 0 0 1 1 0 0 forward_v I I I I #
coedge $-1 $199 $200 $198 $201 reversed $73 $-1 #
coedge $-1 $202 $75 $203 $204 reversed $47 $-1 #
coedge $-1 $75 $202 $205 $206 reversed $47 $-1 #
coedge $-1 $207 $208 $75 $122 forward $209 $-1 #
edge $-1 $210 -50.315792379391915 $211 50.315792379391915 $121 $212 forward 7 unknown #
face $-1 $213 $214 $27 $-1 $215 reversed single #
loop $-1 $-1 $216 $76 #
plane-surface $-1 37.984878298186693 103.9302641581119 171.55028676075455 -1 0 0 0 0.78801076186113728 0.61566146476048833 forward_v I I I I #
coedge $-1 $217 $218 $219 $220 reversed $77 $-1 #
coedge $-1 $128 $79 $221 $222 reversed $50 $-1 #
coedge $-1 $79 $127 $217 $223 reversed $50 $-1 #
coedge $-1 $219 $224 $79 $130 forward $225 $-1 #
edge $-1 $226 1.6493396996640328 $227 10.203659145459177 $129 $228 forward 7 unknown #
loop $-1 $-1 $136 $80 #
plane-surface $-1 21.946236263653191 -11.639196494370196 81.257530785138769 0 0.78801076186113728 0.61566146476048833 1 0 0 forward_v I I I I #
loop $-1 $-1 $229 $52 #
coedge $-1 $134 $134 $135 $230 reversed $81 $-1 #
coedge $-1 $135 $135 $134 $230 forward $83 $-1 #
coedge $-1 $136 $136 $84 $137 forward $131 $-1 #
edge $-1 $231 -4.3713480967034778e-016 $231 6.2831853071796004 $136 $232 forward 7 unknown #
face $-1 $233 $234 $29 $-1 $235 forward single #
loop $-1 $-1 $144 $85 #
plane-surface $-1 0 -50.315792379391915 0 0 1 0 0 0 1 forward_v I I I I #
coedge $-1 $236 $237 $238 $239 reversed $86 $-1 #
coedge $-1 $143 $88 $240 $241 reversed $56 $-1 #
coedge $-1 $88 $142 $236 $242 reversed $56 $-1 #
coedge $-1 $238 $243 $88 $145 forward $139 $-1 #
edge $-1 $244 44.103397701783372 $245 50.2489626913829 $144 $246 forward 7 unknown #
loop $-1 $-1 $151 $89 #
plane-surface $-1 54.557371237226576 -50.315792379391922 6.7622239188122961 0 -0.68199836817093118 0.7313536940579346 1 0 0 forward_v I I I I #
loop $-1 $-1 $247 $58 #
coedge $-1 $149 $149 $150 $248 reversed $90 $-1 #
coedge $-1 $150 $150 $149 $248 forward $92 $-1 #
coedge $-1 $151 $151 $93 $152 forward $146 $-1 #
edge $-1 $249 7.8108157428053546e-016 $249 6.2831853071796013 $151 $250 forward 7 unknown #
loop $-1 $-1 $158 $94 #
plane-surface $-1 54.557371237226576 -50.315792379391922 6.7622239188122961 0 -0.68199836817093118 0.7313536940579346 1 0 0 forward_v I I I I #
loop $-1 $-1 $251 $61 #
coedge $-1 $156 $156 $157 $252 reversed $95 $-1 #
coedge $-1 $157 $157 $156 $252 forward $97 $-1 #
coedge $-1 $158 $158 $98 $159 forward $153 $-1 #
edge $-1 $253 7.8108157428053546e-016 $253 6.2831853071796013 $158 $254 forward 7 unknown #
face $-1 $255 $256 $24 $-1 $257 reversed single #
loop $-1 $-1 $258 $99 #
plane-surface $-1 -73.329874568926044 0 0 1 0 0 0 0 -1 forward_v I I I I #
coedge $-1 $259 $171 $260 $261 forward $100 $-1 #
coedge $-1 $262 $102 $259 $263 forward $65 $-1 #
coedge $-1 $102 $262 $264 $265 forward $65 $-1 #
coedge $-1 $174 $173 $102 $167 reversed $175 $-1 #
edge $-1 $266 -50.315792379391915 $267 50.315792379391915 $166 $268 forward 7 unknown #
coedge $-1 $104 $103 $269 $270 forward $41 $-1 #
coedge $-1 $271 $272 $103 $170 reversed $256 $-1 #
edge $-1 $177 -73.329874568926044 $273 73.329874568926044 $169 $274 forward 7 unknown #
coedge $-1 $163 $275 $104 $172 reversed $100 $-1 #
edge $-1 $276 -73.329874568926044 $176 73.329874568926044 $171 $277 forward 7 unknown #
coedge $-1 $166 $105 $275 $278 forward $175 $-1 #
coedge $-1 $105 $166 $271 $279 reversed $175 $-1 #
loop $-1 $-1 $173 $255 #
vertex $-1 $106 $280 #
vertex $-1 $106 $281 #
straight-curve $-1 73.329874568926044 0 12.907788908411833 0 1 0 I I #
face $-1 $282 $283 $25 $-1 $284 forward single #
loop $-1 $-1 $285 $107 #
plane-surface $-1 -73.329874568926044 0 0 1 0 0 0 0 -1 forward_v I I I I #
coedge $-1 $189 $286 $191 $287 forward $108 $-1 #
coedge $-1 $110 $191 $288 $289 reversed $69 $-1 #
coedge $-1 $290 $187 $110 $185 forward $291 $-1 #
edge $-1 $193 1.7417262266639435 $292 8.0246171967199054 $184 $293 forward 7 unknown #
coedge $-1 $112 $111 $285 $294 reversed $44 $-1 #
coedge $-1 $184 $295 $111 $188 forward $291 $-1 #
edge $-1 $296 -39.389647948292577 $193 -28.490805292974358 $187 $297 forward 7 unknown #
coedge $-1 $298 $182 $112 $190 forward $108 $-1 #
edge $-1 $192 28.490805292974358 $299 39.389647948292577 $189 $300 forward 7 unknown #
coedge $-1 $183 $113 $182 $287 reversed $69 $-1 #
vertex $-1 $190 $301 #
vertex $-1 $188 $302 #
straight-curve $-1 -62.431031913607825 0 6.6248979383558684 0 -1 0 I I #
face $-1 $303 $304 $26 $-1 $305 reversed single #
loop $-1 $-1 $306 $115 #
plane-surface $-1 0 -50.315792379391915 0 0 1 0 0 0 1 forward_v I I I I #
coedge $-1 $307 $308 $118 $201 forward $116 $-1 #
coedge $-1 $309 $118 $310 $311 reversed $73 $-1 #
coedge $-1 $118 $309 $306 $312 reversed $73 $-1 #
edge $-1 $313 -50.315792379391915 $314 50.315792379391915 $198 $315 forward 7 unknown #
coedge $-1 $120 $119 $309 $316 forward $47 $-1 #
coedge $-1 $317 $306 $119 $204 forward $196 $-1 #
edge $-1 $318 28.490805292974358 $210 39.389647948292577 $203 $319 forward 7 unknown #
coedge $-1 $310 $320 $120 $206 forward $304 $-1 #
edge $-1 $211 -39.389647948292577 $321 -28.490805292974358 $205 $322 forward 7 unknown #
coedge $-1 $323 $121 $320 $324 reversed $209 $-1 #
coedge $-1 $121 $323 $317 $325 forward $209 $-1 #
loop $-1 $-1 $121 $303 #
vertex $-1 $204 $326 #
vertex $-1 $122 $327 #
straight-curve $-1 73.329874568926044 0 6.6248979383558684 0 1 0 I I #
face $-1 $-1 $225 $27 $-1 $328 forward single #
loop $-1 $-1 $329 $123 #
plane-surface $-1 0 50.315792379391915 0 0 -1 0 0 0 -1 forward_v I I I I #
coedge $-1 $330 $331 $332 $333 reversed $124 $-1 #
coedge $-1 $334 $126 $128 $223 forward $77 $-1 #
coedge $-1 $126 $334 $330 $335 forward $77 $-1 #
coedge $-1 $332 $129 $126 $220 forward $225 $-1 #
edge $-1 $227 -5.0655239027069072 $336 27.011760166360098 $219 $337 forward 7 unknown #
coedge $-1 $338 $339 $127 $222 forward $214 $-1 #
edge $-1 $340 -83.816384368301399 $226 -72.867354471965442 $221 $341 forward 7 unknown #
edge $-1 $227 86.737066528504442 $340 100.63158475878387 $128 $342 forward 7 unknown #
coedge $-1 $129 $332 $338 $343 forward $225 $-1 #
loop $-1 $-1 $332 $213 #
vertex $-1 $222 $344 #
vertex $-1 $130 $345 #
straight-curve $-1 5.9075942291196881 51.965132079055948 12.907788908411831 0 -1 0 I I #
coedge $-1 $229 $229 $-1 $346 reversed $133 $-1 #
edge $-1 $347 0 $347 6.2831853071796004 $134 $348 forward 7 unknown #
vertex $-1 $137 $349 #
ellipse-curve $-1 21.946236263653191 46.03863265649435 7.433273960243862 0 0.78801076186113728 0.61566146476048833 2 0 0 1 I I #
face $-1 $-1 $350 $29 $-1 $351 forward single #
loop $-1 $-1 $240 $138 #
plane-surface $-1 0 0 12.907788908411833 0 0 1 1 0 0 forward_v I I I I #
coedge $-1 $352 $141 $143 $242 forward $86 $-1 #
coedge $-1 $141 $352 $353 $354 reversed $86 $-1 #
coedge $-1 $355 $144 $141 $239 forward $139 $-1 #
edge $-1 $245 19.405024942232039 $356 35.152346294994537 $238 $357 forward 7 unknown #
coedge $-1 $358 $359 $142 $241 forward $234 $-1 #
edge $-1 $360 -31.443270058271509 $244 -24.852958604490674 $240 $361 forward 7 unknown #
edge $-1 $245 9.4367341760026555e-015 $360 9.0111139211102262 $143 $362 forward 7 unknown #
coedge $-1 $144 $355 $358 $363 reversed $139 $-1 #
vertex $-1 $363 $364 #
vertex $-1 $145 $365 #
straight-curve $-1 46.683710560845327 -50.315792379391915 57.011186610195203 0 0 -1 I I #
coedge $-1 $247 $247 $-1 $366 reversed $148 $-1 #
edge $-1 $367 0 $367 6.2831853071796004 $149 $368 forward 7 unknown #
vertex $-1 $152 $369 #
ellipse-curve $-1 51.18294523306318 -47.020636652501494 9.8350064136120672 0 -0.68199836817093118 0.7313536940579346 2 0 0 1 I I #
coedge $-1 $251 $251 $-1 $370 reversed $155 $-1 #
edge $-1 $371 0 $371 6.2831853071796004 $156 $372 forward 7 unknown #
vertex $-1 $159 $373 #
ellipse-curve $-1 57.931797241389972 -47.020636652501494 9.8350064136120672 0 -0.68199836817093118 0.7313536940579346 2 0 0 1 I I #
face $-1 $-1 $175 $24 $-1 $374 reversed single #
loop $-1 $-1 $271 $160 #
plane-surface $-1 0 50.315792379391915 0 0 -1 0 0 0 -1 forward_v I I I I #
coedge $-1 $375 $269 $272 $376 forward $161 $-1 #
coedge $-1 $275 $163 $164 $263 reversed $100 $-1 #
coedge $-1 $269 $375 $163 $261 reversed $161 $-1 #
edge $-1 $276 -12.907788908411833 $377 12.907788908411833 $260 $378 forward 7 unknown #
coedge $-1 $165 $164 $375 $379 forward $65 $-1 #
edge $-1 $267 -73.329874568926044 $377 73.329874568926044 $259 $380 forward 7 unknown #
coedge $-1 $272 $271 $165 $265 reversed $256 $-1 #
edge $-1 $381 -73.329874568926044 $266 73.329874568926044 $264 $382 forward 7 unknown #
vertex $-1 $167 $383 #
vertex $-1 $278 $384 #
straight-curve $-1 73.329874568926044 0 -12.907788908411833 0 -1 0 I I #
coedge $-1 $258 $260 $168 $270 reversed $161 $-1 #
edge $-1 $273 -50.315792379391915 $276 50.315792379391915 $269 $385 forward 7 unknown #
coedge $-1 $264 $169 $174 $279 forward $256 $-1 #
coedge $-1 $169 $264 $258 $376 reversed $256 $-1 #
vertex $-1 $170 $386 #
straight-curve $-1 0 50.315792379391915 12.907788908411833 -1 0 0 I I #
coedge $-1 $171 $259 $173 $278 reversed $100 $-1 #
vertex $-1 $270 $387 #
straight-curve $-1 0 -50.315792379391915 12.907788908411833 1 0 0 I I #
edge $-1 $176 -12.907788908411833 $267 12.907788908411833 $173 $388 forward 7 unknown #
edge $-1 $177 -12.907788908411833 $266 12.907788908411833 $174 $389 forward 7 unknown #
point $-1 73.329874568926044 -50.315792379391915 12.907788908411833 #
point $-1 73.329874568926044 50.315792379391915 12.907788908411833 #
face $-1 $-1 $291 $25 $-1 $390 reversed single #
loop $-1 $-1 $288 $179 #
plane-surface $-1 0 0 12.907788908411833 0 0 1 1 0 0 forward_v I I I I #
coedge $-1 $391 $392 $186 $294 forward $180 $-1 #
coedge $-1 $182 $298 $393 $394 reversed $108 $-1 #
edge $-1 $395 -8.0246171967199054 $192 -1.7417262266639435 $182 $396 forward 7 unknown #
coedge $-1 $393 $397 $183 $289 forward $283 $-1 #
edge $-1 $292 -50.315792379391915 $395 50.315792379391915 $288 $398 forward 7 unknown #
coedge $-1 $295 $184 $397 $399 reversed $291 $-1 #
loop $-1 $-1 $184 $282 #
vertex $-1 $185 $400 #
straight-curve $-1 -62.431031913607825 -50.315792379391915 4.8831717116919249 0 0 1 I I #
edge $-1 $299 -50.315792379391915 $296 50.315792379391915 $285 $401 forward 7 unknown #
coedge $-1 $187 $290 $391 $402 forward $291 $-1 #
vertex $-1 $294 $403 #
straight-curve $-1 -33.940226620633467 -50.315792379391915 6.6248979383558684 1 0 0 I I #
coedge $-1 $286 $189 $392 $404 reversed $108 $-1 #
vertex $-1 $294 $405 #
straight-curve $-1 -33.940226620633467 50.315792379391915 6.6248979383558684 -1 0 0 I I #
point $-1 -62.431031913607825 50.315792379391915 6.6248979383558684 #
point $-1 -62.431031913607825 -50.315792379391915 6.6248979383558684 #
face $-1 $-1 $209 $26 $-1 $406 reversed single #
loop $-1 $-1 $310 $195 #
plane-surface $-1 0 50.315792379391915 0 0 -1 0 0 0 -1 forward_v I I I I #
coedge $-1 $203 $407 $200 $312 forward $196 $-1 #
coedge $-1 $408 $198 $407 $409 forward $116 $-1 #
coedge $-1 $198 $408 $410 $411 forward $116 $-1 #
coedge $-1 $200 $199 $202 $316 reversed $73 $-1 #
coedge $-1 $410 $205 $199 $311 forward $304 $-1 #
edge $-1 $321 1.7417262266639435 $313 8.0246171967199054 $310 $412 forward 7 unknown #
edge $-1 $314 -8.0246171967199054 $318 -1.7417262266639435 $306 $413 forward 7 unknown #
vertex $-1 $311 $414 #
vertex $-1 $409 $415 #
straight-curve $-1 62.431031913607825 0 12.907788908411833 0 -1 0 I I #
edge $-1 $318 -50.315792379391915 $321 50.315792379391915 $309 $416 forward 7 unknown #
coedge $-1 $407 $203 $208 $325 reversed $196 $-1 #
vertex $-1 $204 $417 #
straight-curve $-1 33.940226620633467 -50.315792379391915 6.6248979383558684 1 0 0 I I #
coedge $-1 $205 $410 $207 $324 forward $304 $-1 #
vertex $-1 $206 $418 #
straight-curve $-1 33.940226620633467 50.315792379391915 6.6248979383558684 -1 0 0 I I #
coedge $-1 $208 $207 $408 $419 reversed $209 $-1 #
edge $-1 $420 -12.907788908411833 $211 -6.6248979383558684 $207 $421 forward 7 unknown #
edge $-1 $422 -12.907788908411833 $210 -6.6248979383558684 $208 $423 forward 7 unknown #
point $-1 73.329874568926044 -50.315792379391915 6.6248979383558684 #
point $-1 73.329874568926044 50.315792379391915 6.6248979383558684 #
plane-surface $-1 0 0 12.907788908411833 0 0 1 1 0 0 forward_v I I I I #
coedge $-1 $339 $338 $331 $424 forward $214 $-1 #
coedge $-1 $331 $216 $218 $335 reversed $124 $-1 #
coedge $-1 $216 $330 $329 $424 reversed $124 $-1 #
coedge $-1 $224 $219 $216 $333 forward $225 $-1 #
edge $-1 $336 -10.203659145459177 $425 -1.6493396996640328 $332 $426 forward 7 unknown #
coedge $-1 $218 $217 $339 $427 reversed $77 $-1 #
edge $-1 $428 -100.63158475878387 $336 -86.737066528504442 $330 $429 forward 7 unknown #
vertex $-1 $220 $430 #
straight-curve $-1 10.973118131826595 41.761472933596778 12.907788908411824 1 0 0 I I #
coedge $-1 $329 $221 $224 $343 reversed $214 $-1 #
coedge $-1 $221 $329 $334 $427 forward $214 $-1 #
vertex $-1 $222 $431 #
straight-curve $-1 5.9075942291196881 50.315792379391915 85.775143380377273 0 0 1 I I #
straight-curve $-1 5.9075942291196881 -11.639196494370196 81.257530785138769 0 0.61566146476048833 -0.78801076186113728 I I #
edge $-1 $425 -37.984878298186693 $226 -5.9075942291196881 $338 $432 forward 7 unknown #
point $-1 5.9075942291196881 50.315792379391915 12.907788908411833 #
point $-1 5.9075942291196881 41.761472933596771 12.907788908411831 #
edge $-1 $433 1 $433 0 $229 $-1 forward 7 unknown #
vertex $-1 $230 $434 #
ellipse-curve $-1 21.946236263653191 41.766487395101507 4.0955083654102902 0 0.78801076186113728 0.61566146476048833 2 0 0 1 I I #
point $-1 23.946236263653191 46.038632656494372 7.4332739602438798 #
loop $-1 $-1 $353 $233 #
plane-surface $-1 62.431031913607825 0 9.7663434233838498 1 0 0 0 0 -1 forward_v I I I I #
coedge $-1 $237 $236 $359 $435 reversed $86 $-1 #
coedge $-1 $436 $437 $237 $354 forward $350 $-1 #
edge $-1 $356 -19.423722613014302 $438 -10.412608691904087 $353 $439 forward 7 unknown #
coedge $-1 $243 $238 $437 $440 forward $139 $-1 #
vertex $-1 $440 $441 #
straight-curve $-1 27.278685618613288 -50.315792379391915 6.7622239188123041 1 0 0 I I #
coedge $-1 $442 $240 $243 $363 forward $234 $-1 #
coedge $-1 $240 $442 $352 $435 forward $234 $-1 #
vertex $-1 $241 $443 #
straight-curve $-1 46.683710560845327 -75.168750983882589 12.907788908411831 0 -1 0 I I #
straight-curve $-1 46.683710560845327 -50.315792379391922 6.7622239188122961 0 0.7313536940579346 0.68199836817093118 I I #
edge $-1 $244 46.683710560845327 $444 62.431031913607825 $243 $445 forward 7 unknown #
point $-1 46.683710560845327 -50.315792379391915 12.907788908411833 #
point $-1 46.683710560845327 -50.315792379391915 6.7622239188123023 #
edge $-1 $446 1 $446 0 $247 $-1 forward 7 unknown #
vertex $-1 $248 $447 #
ellipse-curve $-1 51.18294523306318 -44.606137226309372 7.2457728361443436 0 -0.68199836817093118 0.7313536940579346 2 0 0 1 I I #
point $-1 53.18294523306318 -47.020636652501487 9.8350064136120618 #
edge $-1 $448 1 $448 0 $251 $-1 forward 7 unknown #
vertex $-1 $252 $449 #
ellipse-curve $-1 57.931797241389972 -44.606137226309372 7.2457728361443436 0 -0.68199836817093118 0.7313536940579346 2 0 0 1 I I #
point $-1 59.931797241389972 -47.020636652501487 9.8350064136120618 #
plane-surface $-1 73.329874568926044 0 0 -1 0 0 0 0 1 forward_v I I I I #
coedge $-1 $260 $258 $262 $379 reversed $161 $-1 #
edge $-1 $273 -12.907788908411833 $381 12.907788908411833 $272 $450 forward 7 unknown #
vertex $-1 $379 $451 #
straight-curve $-1 -73.329874568926044 -50.315792379391915 0 0 0 -1 I I #
edge $-1 $377 -50.315792379391915 $381 50.315792379391915 $375 $452 forward 7 unknown #
straight-curve $-1 0 -50.315792379391915 -12.907788908411833 -1 0 0 I I #
vertex $-1 $265 $453 #
straight-curve $-1 0 50.315792379391915 -12.907788908411833 1 0 0 I I #
point $-1 73.329874568926044 50.315792379391915 -12.907788908411833 #
point $-1 73.329874568926044 -50.315792379391915 -12.907788908411833 #
straight-curve $-1 -73.329874568926044 0 12.907788908411833 0 -1 0 I I #
point $-1 -73.329874568926044 50.315792379391915 12.907788908411833 #
point $-1 -73.329874568926044 -50.315792379391915 12.907788908411833 #
straight-curve $-1 73.329874568926044 -50.315792379391915 0 0 0 -1 I I #
straight-curve $-1 73.329874568926044 50.315792379391915 0 0 0 -1 I I #
plane-surface $-1 0 -50.315792379391915 0 0 1 0 0 0 1 forward_v I I I I #
coedge $-1 $454 $285 $295 $402 reversed $180 $-1 #
coedge $-1 $285 $454 $298 $404 forward $180 $-1 #
coedge $-1 $455 $288 $286 $394 forward $283 $-1 #
edge $-1 $395 62.431031913607825 $456 73.329874568926044 $286 $457 forward 7 unknown #
vertex $-1 $394 $458 #
straight-curve $-1 -62.431031913607825 50.315792379391915 4.8831717116919249 0 0 -1 I I #
coedge $-1 $288 $455 $290 $399 forward $283 $-1 #
straight-curve $-1 -62.431031913607825 0 12.907788908411833 0 1 0 I I #
edge $-1 $459 -73.329874568926044 $292 -62.431031913607825 $290 $460 forward 7 unknown #
point $-1 -62.431031913607825 -50.315792379391915 12.907788908411831 #
straight-curve $-1 -73.329874568926044 0 6.6248979383558684 0 -1 0 I I #
edge $-1 $459 -12.907788908411833 $296 -6.6248979383558684 $391 $461 forward 7 unknown #
point $-1 -73.329874568926044 -50.315792379391915 6.6248979383558684 #
edge $-1 $456 -12.907788908411833 $299 -6.6248979383558684 $298 $462 forward 7 unknown #
point $-1 -73.329874568926044 50.315792379391915 6.6248979383558684 #
plane-surface $-1 73.329874568926044 0 0 -1 0 0 0 0 1 forward_v I I I I #
coedge $-1 $306 $317 $307 $409 reversed $196 $-1 #
coedge $-1 $308 $307 $323 $419 forward $116 $-1 #
edge $-1 $314 62.431031913607825 $422 73.329874568926044 $407 $463 forward 7 unknown #
coedge $-1 $320 $310 $308 $411 reversed $304 $-1 #
edge $-1 $420 -73.329874568926044 $313 -62.431031913607825 $410 $464 forward 7 unknown #
straight-curve $-1 62.431031913607825 50.315792379391915 4.8831717116919249 0 0 1 I I #
straight-curve $-1 62.431031913607825 -50.315792379391915 4.8831717116919249 0 0 -1 I I #
point $-1 62.431031913607825 50.315792379391915 12.907788908411831 #
point $-1 62.431031913607825 -50.315792379391915 12.907788908411831 #
straight-curve $-1 62.431031913607825 0 6.6248979383558684 0 1 0 I I #
point $-1 62.431031913607825 -50.315792379391915 6.6248979383558684 #
point $-1 62.431031913607825 50.315792379391915 6.6248979383558684 #
edge $-1 $422 -50.315792379391915 $420 50.315792379391915 $323 $465 forward 7 unknown #
vertex $-1 $419 $466 #
straight-curve $-1 73.329874568926044 50.315792379391915 0 0 0 -1 I I #
vertex $-1 $419 $467 #
straight-curve $-1 73.329874568926044 -50.315792379391915 0 0 0 -1 I I #
edge $-1 $425 72.867354471965442 $428 83.816384368301399 $329 $468 forward 7 unknown #
vertex $-1 $343 $469 #
straight-curve $-1 37.984878298186693 51.965132079055948 12.907788908411831 0 1 0 I I #
edge $-1 $428 -27.011760166360098 $340 5.0655239027069072 $339 $470 forward 7 unknown #
vertex $-1 $427 $471 #
straight-curve $-1 37.984878298186693 -11.639196494370196 81.257530785138769 0 -0.61566146476048833 0.78801076186113728 I I #
point $-1 37.984878298186693 41.761472933596771 12.907788908411831 #
point $-1 5.9075942291196881 50.315792379391915 1.9587590120758733 #
straight-curve $-1 0 50.315792379391915 12.907788908411833 -1 0 0 I I #
vertex $-1 $346 $472 #
point $-1 23.946236263653191 41.766487395101507 4.0955083654102902 #
edge $-1 $438 -35.152346294994537 $360 -19.405024942232039 $359 $473 forward 7 unknown #
coedge $-1 $437 $353 $442 $474 reversed $350 $-1 #
coedge $-1 $353 $436 $355 $440 reversed $350 $-1 #
vertex $-1 $354 $475 #
straight-curve $-1 62.431031913607825 -36.110181094007267 20.009171044692874 0 0.7313536940579346 0.68199836817093118 I I #
edge $-1 $356 1.8790522071203783 $444 8.0246171967199054 $355 $476 forward 7 unknown #
point $-1 62.431031913607825 -50.315792379391915 6.7622239188123032 #
coedge $-1 $359 $358 $436 $474 forward $234 $-1 #
point $-1 46.683710560845327 -43.72548092561108 12.907788908411833 #
vertex $-1 $474 $477 #
straight-curve $-1 0 -50.315792379391915 12.907788908411833 1 0 0 I I #
vertex $-1 $366 $478 #
point $-1 53.18294523306318 -44.606137226309372 7.2457728361443436 #
vertex $-1 $370 $479 #
point $-1 59.931797241389972 -44.606137226309372 7.2457728361443436 #
straight-curve $-1 -73.329874568926044 50.315792379391915 0 0 0 -1 I I #
point $-1 -73.329874568926044 -50.315792379391915 -12.907788908411833 #
straight-curve $-1 -73.329874568926044 0 -12.907788908411833 0 1 0 I I #
point $-1 -73.329874568926044 50.315792379391915 -12.907788908411833 #
coedge $-1 $392 $391 $455 $480 reversed $180 $-1 #
coedge $-1 $397 $393 $454 $480 forward $283 $-1 #
vertex $-1 $394 $481 #
straight-curve $-1 0 50.315792379391915 12.907788908411833 -1 0 0 I I #
point $-1 -62.431031913607825 50.315792379391915 12.907788908411831 #
vertex $-1 $480 $482 #
straight-curve $-1 0 -50.315792379391915 12.907788908411833 1 0 0 I I #
straight-curve $-1 -73.329874568926044 -50.315792379391915 0 0 0 -1 I I #
straight-curve $-1 -73.329874568926044 50.315792379391915 0 0 0 -1 I I #
straight-curve $-1 0 -50.315792379391915 12.907788908411833 1 0 0 I I #
straight-curve $-1 0 50.315792379391915 12.907788908411833 -1 0 0 I I #
straight-curve $-1 73.329874568926044 0 12.907788908411833 0 1 0 I I #
point $-1 73.329874568926044 50.315792379391915 12.907788908411833 #
point $-1 73.329874568926044 -50.315792379391915 12.907788908411833 #
straight-curve $-1 37.984878298186693 50.315792379391915 85.775143380377273 0 0 -1 I I #
point $-1 37.984878298186693 50.315792379391915 12.907788908411833 #
straight-curve $-1 10.973118131826595 50.315792379391915 1.9587590120758804 -1 0 0 I I #
point $-1 37.984878298186693 50.315792379391915 1.9587590120758733 #
point $-1 21.946236263653191 40.190465871379232 2.864185435889314 #
straight-curve $-1 27.278685618613288 -43.725480925611073 12.907788908411833 -1 0 0 I I #
edge $-1 $444 -50.315792379391915 $438 -43.72548092561108 $442 $483 forward 7 unknown #
point $-1 62.431031913607825 -43.72548092561108 12.907788908411833 #
straight-curve $-1 62.431031913607825 -50.315792379391915 4.8831717116919249 0 0 1 I I #
point $-1 62.431031913607825 -50.315792379391915 12.907788908411831 #
point $-1 51.18294523306318 -43.242140489967511 5.7830654480284736 #
point $-1 57.931797241389972 -43.242140489967511 5.7830654480284736 #
edge $-1 $456 -50.315792379391915 $459 50.315792379391915 $454 $484 forward 7 unknown #
point $-1 -73.329874568926044 50.315792379391915 12.907788908411833 #
point $-1 -73.329874568926044 -50.315792379391915 12.907788908411833 #
straight-curve $-1 62.431031913607825 0 12.907788908411833 0 1 0 I I #
straight-curve $-1 -73.329874568926044 0 12.907788908411833 0 -1 0 I I #
End-of-ACIS-data 