500 0 10 0           
7 Unknown 11 ACIS 5.0 NT 24 Fri Mar 26 20:01:36 1999 
-1 9.9999999999999995e-007 1e-010 
body $-1 $10 $-1 $11 #
body $-1 $12 $-1 $13 #
body $-1 $14 $-1 $15 #
body $-1 $16 $-1 $17 #
body $-1 $18 $-1 $19 #
body $-1 $20 $-1 $21 #
body $-1 $22 $-1 $23 #
body $-1 $24 $-1 $25 #
body $-1 $26 $-1 $27 #
body $-1 $28 $-1 $29 #
lump $-1 $-1 $30 $0 #
transform $-1 1 0 0 0 1 0 0 0 1 75.228125858333073 34.735525858297123 8.0073936620146231 1 rotate no_reflect no_shear #
lump $-1 $-1 $31 $1 #
transform $-1 1 0 0 0 1 0 0 0 1 75.228125858333073 34.735525858297123 8.0073936620146231 1 rotate no_reflect no_shear #
lump $-1 $-1 $32 $2 #
transform $-1 1 0 0 0 1 0 0 0 1 75.228125858333073 34.735525858297123 8.0073936620146231 1 rotate no_reflect no_shear #
lump $-1 $-1 $33 $3 #
transform $-1 1 0 0 0 1 0 0 0 1 75.228125858333073 34.735525858297123 8.0073936620146231 1 rotate no_reflect no_shear #
lump $-1 $-1 $34 $4 #
transform $-1 1 0 0 0 1 0 0 0 1 75.228125858333073 34.735525858297123 8.0073936620146231 1 rotate no_reflect no_shear #
lump $-1 $-1 $35 $5 #
transform $-1 1 0 0 0 1 0 0 0 1 75.228125858333073 34.735525858297123 8.0073936620146231 1 rotate no_reflect no_shear #
lump $-1 $-1 $36 $6 #
transform $-1 1 0 0 0 1 0 0 0 1 75.228125858333073 34.735525858297123 8.0073936620146231 1 rotate no_reflect no_shear #
lump $-1 $-1 $37 $7 #
transform $-1 1 0 0 0 1 0 0 0 1 75.228125858333073 34.735525858297123 8.0073936620146231 1 rotate no_reflect no_shear #
lump $-1 $-1 $38 $8 #
transform $-1 1 0 0 0 1 0 0 0 1 75.228125858333073 34.735525858297123 8.0073936620146231 1 rotate no_reflect no_shear #
lump $-1 $-1 $39 $9 #
transform $-1 1 0 0 0 1 0 0 0 1 75.228125858333073 34.735525858297123 8.0073936620146231 1 rotate no_reflect no_shear #
shell $-1 $-1 $-1 $40 $-1 $10 #
shell $-1 $-1 $-1 $41 $-1 $12 #
shell $-1 $-1 $-1 $42 $-1 $14 #
shell $-1 $-1 $-1 $43 $-1 $16 #
shell $-1 $-1 $-1 $44 $-1 $18 #
shell $-1 $-1 $-1 $45 $-1 $20 #
shell $-1 $-1 $-1 $46 $-1 $22 #
shell $-1 $-1 $-1 $47 $-1 $24 #
shell $-1 $-1 $-1 $48 $-1 $26 #
shell $-1 $-1 $-1 $49 $-1 $28 #
face $-1 $50 $51 $30 $-1 $52 forward single #
face $-1 $53 $54 $31 $-1 $55 forward single #
face $-1 $56 $57 $32 $-1 $58 reversed single #
face $-1 $59 $60 $33 $-1 $61 forward single #
face $-1 $62 $63 $34 $-1 $64 forward single #
face $-1 $65 $66 $35 $-1 $67 forward single #
face $-1 $68 $69 $36 $-1 $70 reversed single #
face $-1 $71 $72 $37 $-1 $73 forward single #
face $-1 $74 $75 $38 $-1 $76 forward single #
face $-1 $77 $78 $39 $-1 $79 forward single #
face $-1 $80 $81 $30 $-1 $82 reversed single #
loop $-1 $-1 $83 $40 #
plane-surface $-1 0 0 8.0073936620146231 0 0 1 1 0 0 forward_v I I I I #
face $-1 $84 $85 $31 $-1 $86 reversed single #
loop $-1 $-1 $87 $41 #
plane-surface $-1 0 -31.94091199105447 -4.5154398367028232 0 0 1 1 0 0 forward_v I I I I #
face $-1 $88 $89 $32 $-1 $90 reversed single #
loop $-1 $-1 $91 $42 #
plane-surface $-1 -159.36219519456483 -29.14629812381181 129.31399896155506 0 1 0 -0.55919291073839883 0 0.82903756765294845 forward_v I I I I #
face $-1 $92 $93 $33 $-1 $94 forward single #
loop $-1 $95 $96 $43 #
cone-surface $-1 -71.254873464612146 -25.839618792287567 4.1697229975428893 0.55919291073839883 0 -0.82903756765294845 1.2435563514794228 0 0.83878936610759824 1 I I 0 1 1.5 forward I I I I #
face $-1 $97 $98 $34 $-1 $99 forward single #
loop $-1 $100 $101 $44 #
cone-surface $-1 -71.254873464612146 -20.879599795001198 4.1697229975428893 0.55919291073839883 0 -0.82903756765294845 1.2435563514794228 0 0.83878936610759824 1 I I 0 1 1.5 forward I I I I #
face $-1 $102 $103 $35 $-1 $104 forward single #
loop $-1 $105 $106 $45 #
cone-surface $-1 -71.254873464612146 -15.919580797714829 4.1697229975428893 0.55919291073839883 0 -0.82903756765294845 1.2435563514794228 0 0.83878936610759824 1 I I 0 1 1.5 forward I I I I #
face $-1 $107 $108 $36 $-1 $109 reversed single #
loop $-1 $-1 $110 $46 #
plane-surface $-1 34.628310233200168 -12.612901466190584 213.44806829778682 0 -1 0 -0.55919291073839883 0 -0.82903756765294845 forward_v I I I I #
face $-1 $111 $112 $37 $-1 $113 forward single #
loop $-1 $114 $115 $47 #
cone-surface $-1 71.254873464612146 -25.839618792287567 4.1697229975428947 -0.55919291073839883 0 -0.82903756765294845 1.2435563514794228 0 -0.83878936610759824 1 I I 0 1 1.5 forward I I I I #
face $-1 $116 $117 $38 $-1 $118 forward single #
loop $-1 $119 $120 $48 #
cone-surface $-1 71.254873464612146 -20.879599795001198 4.1697229975428947 -0.55919291073839883 0 -0.82903756765294845 1.2435563514794228 0 -0.83878936610759824 1 I I 0 1 1.5 forward I I I I #
face $-1 $121 $122 $39 $-1 $123 forward single #
loop $-1 $124 $125 $49 #
cone-surface $-1 71.254873464612146 -15.919580797714829 4.1697229975428947 -0.55919291073839883 0 -0.82903756765294845 1.2435563514794228 0 -0.83878936610759824 1 I I 0 1 1.5 forward I I I I #
face $-1 $126 $127 $30 $-1 $128 reversed single #
loop $-1 $-1 $129 $50 #
plane-surface $-1 0 0 -8.0073936620146231 0 0 1 1 0 0 forward_v I I I I #
coedge $-1 $130 $131 $132 $133 forward $51 $-1 #
face $-1 $134 $135 $31 $-1 $136 reversed single #
loop $-1 $-1 $137 $53 #
plane-surface $-1 0 -29.146298123811818 -6.2614167493587232 0 -1 0 0 0 -1 forward_v I I I I #
coedge $-1 $138 $139 $140 $141 reversed $54 $-1 #
face $-1 $142 $143 $32 $-1 $144 reversed single #
loop $-1 $-1 $145 $56 #
plane-surface $-1 -75.228125858333073 -20.879599795001198 4.5801140001904059 -0.55919291073839883 0 0.82903756765294845 0.82903756765294845 0 0.55919291073839883 forward_v I I I I #
coedge $-1 $146 $147 $148 $149 reversed $57 $-1 #
face $-1 $-1 $150 $33 $-1 $151 forward single #
loop $-1 $152 $153 $59 #
cone-surface $-1 -69.402801867194995 -25.839618792287567 1.4239139882435339 0.55919291073839883 0 -0.82903756765294845 0.62177817573971139 0 0.41939468305379912 1 I I -0.70710678118654757 0.70710678118654757 0.75 forward I I I I #
loop $-1 $-1 $154 $43 #
coedge $-1 $96 $96 $155 $156 reversed $60 $-1 #
face $-1 $-1 $157 $34 $-1 $158 forward single #
loop $-1 $159 $160 $62 #
cone-surface $-1 -69.402801867194995 -20.879599795001198 1.4239139882435339 0.55919291073839883 0 -0.82903756765294845 0.62177817573971139 0 0.41939468305379912 1 I I -0.70710678118654757 0.70710678118654757 0.75 forward I I I I #
loop $-1 $-1 $161 $44 #
coedge $-1 $101 $101 $162 $163 reversed $63 $-1 #
face $-1 $-1 $164 $35 $-1 $165 forward single #
loop $-1 $166 $167 $65 #
cone-surface $-1 -69.402801867194995 -15.919580797714829 1.4239139882435339 0.55919291073839883 0 -0.82903756765294845 0.62177817573971139 0 0.41939468305379912 1 I I -0.70710678118654757 0.70710678118654757 0.75 forward I I I I #
loop $-1 $-1 $168 $45 #
coedge $-1 $106 $106 $169 $170 reversed $66 $-1 #
face $-1 $171 $172 $36 $-1 $173 reversed single #
loop $-1 $-1 $174 $68 #
plane-surface $-1 -49.505759103031593 -20.879599795001198 88.714183336422167 0.55919291073839883 0 0.82903756765294845 0.82903756765294845 0 -0.55919291073839883 forward_v I I I I #
coedge $-1 $175 $176 $177 $178 reversed $69 $-1 #
face $-1 $-1 $179 $37 $-1 $180 forward single #
loop $-1 $181 $182 $71 #
cone-surface $-1 69.402801867194995 -25.839618792287567 1.4239139882435392 -0.55919291073839883 0 -0.82903756765294845 0.62177817573971139 0 -0.41939468305379912 1 I I -0.70710678118654757 0.70710678118654757 0.75 forward I I I I #
loop $-1 $-1 $183 $47 #
coedge $-1 $115 $115 $184 $185 reversed $72 $-1 #
face $-1 $-1 $186 $38 $-1 $187 forward single #
loop $-1 $188 $189 $74 #
cone-surface $-1 69.402801867194995 -20.879599795001198 1.4239139882435392 -0.55919291073839883 0 -0.82903756765294845 0.62177817573971139 0 -0.41939468305379912 1 I I -0.70710678118654757 0.70710678118654757 0.75 forward I I I I #
loop $-1 $-1 $190 $48 #
coedge $-1 $120 $120 $191 $192 reversed $75 $-1 #
face $-1 $-1 $193 $39 $-1 $194 forward single #
loop $-1 $195 $196 $77 #
cone-surface $-1 69.402801867194995 -15.919580797714829 1.4239139882435392 -0.55919291073839883 0 -0.82903756765294845 0.62177817573971139 0 -0.41939468305379912 1 I I -0.70710678118654757 0.70710678118654757 0.75 forward I I I I #
loop $-1 $-1 $197 $49 #
coedge $-1 $125 $125 $198 $199 reversed $78 $-1 #
face $-1 $200 $201 $30 $-1 $202 reversed single #
loop $-1 $-1 $203 $80 #
plane-surface $-1 0 -34.735525858297123 0 0 1 0 0 0 1 forward_v I I I I #
coedge $-1 $204 $205 $206 $207 forward $81 $-1 #
coedge $-1 $208 $83 $209 $210 forward $51 $-1 #
coedge $-1 $83 $208 $211 $212 forward $51 $-1 #
coedge $-1 $213 $214 $83 $133 reversed $215 $-1 #
edge $-1 $216 -34.735525858297123 $217 34.735525858297123 $132 $218 forward 7 unknown #
face $-1 $219 $220 $31 $-1 $221 reversed single #
loop $-1 $-1 $222 $84 #
plane-surface $-1 0 0 -8.0073936620146231 0 0 1 1 0 0 forward_v I I I I #
coedge $-1 $223 $224 $225 $226 reversed $85 $-1 #
coedge $-1 $227 $87 $224 $228 forward $54 $-1 #
coedge $-1 $87 $227 $229 $230 reversed $54 $-1 #
coedge $-1 $231 $225 $87 $141 forward $220 $-1 #
edge $-1 $232 13.175842128284582 $233 18.765069862769888 $140 $234 forward 7 unknown #
face $-1 $235 $236 $32 $-1 $237 forward single #
loop $-1 $-1 $238 $88 #
plane-surface $-1 -159.36219519456483 -12.612901466190584 129.31399896155506 0 -1 0 0.55919291073839883 0 -0.82903756765294845 forward_v I I I I #
coedge $-1 $239 $240 $241 $242 reversed $89 $-1 #
coedge $-1 $147 $91 $243 $244 reversed $57 $-1 #
coedge $-1 $91 $146 $239 $245 reversed $57 $-1 #
coedge $-1 $241 $246 $91 $149 forward $236 $-1 #
edge $-1 $247 4.4529717389493442 $248 9.5341226976645572 $148 $249 forward 7 unknown #
loop $-1 $-1 $155 $92 #
plane-surface $-1 -75.228125858333073 -20.879599795001198 4.5801140001904059 -0.55919291073839883 0 0.82903756765294845 0.82903756765294845 0 0.55919291073839883 forward_v I I I I #
loop $-1 $-1 $250 $59 #
coedge $-1 $153 $153 $154 $251 reversed $93 $-1 #
coedge $-1 $154 $154 $153 $251 forward $95 $-1 #
coedge $-1 $155 $155 $96 $156 forward $150 $-1 #
edge $-1 $252 0 $252 6.2831853071796004 $155 $253 forward 7 unknown #
loop $-1 $-1 $162 $97 #
plane-surface $-1 -75.228125858333073 -20.879599795001198 4.5801140001904059 -0.55919291073839883 0 0.82903756765294845 0.82903756765294845 0 0.55919291073839883 forward_v I I I I #
loop $-1 $-1 $254 $62 #
coedge $-1 $160 $160 $161 $255 reversed $98 $-1 #
coedge $-1 $161 $161 $160 $255 forward $100 $-1 #
coedge $-1 $162 $162 $101 $163 forward $157 $-1 #
edge $-1 $256 0 $256 6.2831853071796004 $162 $257 forward 7 unknown #
loop $-1 $-1 $169 $102 #
plane-surface $-1 -75.228125858333073 -20.879599795001198 4.5801140001904059 -0.55919291073839883 0 0.82903756765294845 0.82903756765294845 0 0.55919291073839883 forward_v I I I I #
loop $-1 $-1 $258 $65 #
coedge $-1 $167 $167 $168 $259 reversed $103 $-1 #
coedge $-1 $168 $168 $167 $259 forward $105 $-1 #
coedge $-1 $169 $169 $106 $170 forward $164 $-1 #
edge $-1 $260 0 $260 6.2831853071796004 $169 $261 forward 7 unknown #
face $-1 $262 $263 $36 $-1 $264 reversed single #
loop $-1 $-1 $265 $107 #
plane-surface $-1 34.628310233200168 -29.14629812381181 213.44806829778682 0 1 0 0.55919291073839883 0 0.82903756765294845 forward_v I I I I #
coedge $-1 $266 $267 $268 $269 reversed $108 $-1 #
coedge $-1 $176 $110 $270 $271 reversed $69 $-1 #
coedge $-1 $110 $175 $266 $272 reversed $69 $-1 #
coedge $-1 $268 $273 $110 $178 forward $274 $-1 #
edge $-1 $275 -57.913970741732989 $276 -52.832819783017761 $177 $277 forward 7 unknown #
loop $-1 $-1 $184 $111 #
plane-surface $-1 -49.505759103031593 -20.879599795001198 88.714183336422167 0.55919291073839883 0 0.82903756765294845 0.82903756765294845 0 -0.55919291073839883 forward_v I I I I #
loop $-1 $-1 $278 $71 #
coedge $-1 $182 $182 $183 $279 reversed $112 $-1 #
coedge $-1 $183 $183 $182 $279 forward $114 $-1 #
coedge $-1 $184 $184 $115 $185 forward $179 $-1 #
edge $-1 $280 0 $280 6.2831853071796004 $184 $281 forward 7 unknown #
loop $-1 $-1 $191 $116 #
plane-surface $-1 -49.505759103031593 -20.879599795001198 88.714183336422167 0.55919291073839883 0 0.82903756765294845 0.82903756765294845 0 -0.55919291073839883 forward_v I I I I #
loop $-1 $-1 $282 $74 #
coedge $-1 $189 $189 $190 $283 reversed $117 $-1 #
coedge $-1 $190 $190 $189 $283 forward $119 $-1 #
coedge $-1 $191 $191 $120 $192 forward $186 $-1 #
edge $-1 $284 0 $284 6.2831853071796004 $191 $285 forward 7 unknown #
loop $-1 $-1 $198 $121 #
plane-surface $-1 -49.505759103031593 -20.879599795001198 88.714183336422167 0.55919291073839883 0 0.82903756765294845 0.82903756765294845 0 -0.55919291073839883 forward_v I I I I #
loop $-1 $-1 $286 $77 #
coedge $-1 $196 $196 $197 $287 reversed $122 $-1 #
coedge $-1 $197 $197 $196 $287 forward $124 $-1 #
coedge $-1 $198 $198 $125 $199 forward $193 $-1 #
edge $-1 $288 0 $288 6.2831853071796004 $198 $289 forward 7 unknown #
face $-1 $290 $291 $30 $-1 $292 reversed single #
loop $-1 $-1 $293 $126 #
plane-surface $-1 -75.228125858333073 0 0 1 0 0 0 0 -1 forward_v I I I I #
coedge $-1 $294 $211 $295 $296 forward $127 $-1 #
coedge $-1 $297 $129 $294 $298 forward $81 $-1 #
coedge $-1 $129 $297 $299 $300 forward $81 $-1 #
coedge $-1 $214 $213 $129 $207 reversed $215 $-1 #
edge $-1 $301 -34.735525858297123 $302 34.735525858297123 $206 $303 forward 7 unknown #
coedge $-1 $131 $130 $304 $305 forward $51 $-1 #
coedge $-1 $306 $307 $130 $210 reversed $291 $-1 #
edge $-1 $217 -75.228125858333073 $308 75.228125858333073 $209 $309 forward 7 unknown #
coedge $-1 $203 $310 $131 $212 reversed $127 $-1 #
edge $-1 $311 -75.228125858333073 $216 75.228125858333073 $211 $312 forward 7 unknown #
coedge $-1 $206 $132 $310 $313 forward $215 $-1 #
coedge $-1 $132 $206 $306 $314 reversed $215 $-1 #
loop $-1 $-1 $213 $290 #
vertex $-1 $133 $315 #
vertex $-1 $133 $316 #
straight-curve $-1 75.228125858333073 0 8.0073936620146231 0 1 0 I I #
face $-1 $317 $318 $31 $-1 $319 reversed single #
loop $-1 $-1 $225 $134 #
plane-surface $-1 75.228125858333073 0 0 -1 0 0 0 0 1 forward_v I I I I #
coedge $-1 $320 $321 $223 $322 forward $135 $-1 #
coedge $-1 $323 $137 $222 $322 reversed $85 $-1 #
coedge $-1 $137 $323 $138 $228 reversed $85 $-1 #
coedge $-1 $140 $324 $137 $226 forward $220 $-1 #
edge $-1 $325 -4.8766852873352615 $232 -1.3847314620234616 $225 $326 forward 7 unknown #
coedge $-1 $139 $138 $327 $328 reversed $54 $-1 #
edge $-1 $232 -75.228125858333073 $329 75.228125858333073 $224 $330 forward 7 unknown #
coedge $-1 $331 $332 $139 $230 forward $318 $-1 #
edge $-1 $233 -75.228125858333073 $333 75.228125858333073 $229 $334 forward 7 unknown #
coedge $-1 $324 $140 $332 $335 forward $220 $-1 #
vertex $-1 $141 $336 #
vertex $-1 $335 $337 #
straight-curve $-1 75.228125858333073 -15.970455995527235 -4.5154398367028232 0 -1 0 I I #
face $-1 $-1 $338 $32 $-1 $339 reversed single #
loop $-1 $-1 $148 $142 #
plane-surface $-1 0 0 8.0073936620146231 0 0 1 1 0 0 forward_v I I I I #
coedge $-1 $340 $341 $342 $343 reversed $143 $-1 #
coedge $-1 $344 $145 $147 $245 forward $89 $-1 #
coedge $-1 $145 $344 $340 $345 forward $89 $-1 #
coedge $-1 $342 $148 $145 $242 forward $236 $-1 #
edge $-1 $248 -18.706498226311211 $346 -2.1731015686899848 $241 $347 forward 7 unknown #
coedge $-1 $348 $349 $146 $244 forward $338 $-1 #
edge $-1 $350 -60.076885480587123 $247 -56.649605818762907 $243 $351 forward 7 unknown #
edge $-1 $248 -6.1289755217007071 $350 0 $147 $352 forward 7 unknown #
coedge $-1 $148 $342 $348 $353 forward $236 $-1 #
vertex $-1 $244 $354 #
vertex $-1 $149 $355 #
straight-curve $-1 -79.681097597282417 -29.14629812381181 8.0073936620146213 1 0 0 I I #
coedge $-1 $250 $250 $-1 $356 reversed $152 $-1 #
edge $-1 $357 0 $357 6.2831853071796004 $153 $358 forward 7 unknown #
vertex $-1 $156 $359 #
ellipse-curve $-1 -72.687550378975473 -25.839618792287567 6.2937538311025047 -0.55919291073839883 0 0.82903756765294845 1.2435563514794228 0 0.83878936610759824 1 I I #
coedge $-1 $254 $254 $-1 $360 reversed $159 $-1 #
edge $-1 $361 0 $361 6.2831853071796004 $160 $362 forward 7 unknown #
vertex $-1 $163 $363 #
ellipse-curve $-1 -72.687550378975473 -20.879599795001198 6.2937538311025047 -0.55919291073839883 0 0.82903756765294845 1.2435563514794228 0 0.83878936610759824 1 I I #
coedge $-1 $258 $258 $-1 $364 reversed $166 $-1 #
edge $-1 $365 0 $365 6.2831853071796004 $167 $366 forward 7 unknown #
vertex $-1 $170 $367 #
ellipse-curve $-1 -72.687550378975473 -15.919580797714829 6.2937538311025047 -0.55919291073839883 0 0.82903756765294845 1.2435563514794228 0 0.83878936610759824 1 I I #
face $-1 $-1 $274 $36 $-1 $368 forward single #
loop $-1 $-1 $369 $171 #
plane-surface $-1 75.228125858333073 0 0 -1 0 0 0 0 1 forward_v I I I I #
coedge $-1 $370 $371 $372 $373 reversed $172 $-1 #
coedge $-1 $374 $174 $176 $272 forward $108 $-1 #
coedge $-1 $174 $374 $370 $375 forward $108 $-1 #
coedge $-1 $372 $177 $174 $269 forward $274 $-1 #
edge $-1 $276 2.1731015686899848 $376 18.706498226311211 $268 $377 forward 7 unknown #
coedge $-1 $378 $379 $175 $271 forward $263 $-1 #
edge $-1 $380 -102.14392014870302 $275 -98.716640486878788 $270 $381 forward 7 unknown #
edge $-1 $276 144.32727619496544 $380 150.45625171666617 $176 $382 forward 7 unknown #
coedge $-1 $177 $372 $378 $383 forward $274 $-1 #
loop $-1 $-1 $372 $262 #
vertex $-1 $271 $384 #
vertex $-1 $178 $385 #
straight-curve $-1 17.314155116600084 -12.612901466190584 8.0073936620146213 -1 0 0 I I #
coedge $-1 $278 $278 $-1 $386 reversed $181 $-1 #
edge $-1 $387 0 $387 6.2831853071796004 $182 $388 forward 7 unknown #
vertex $-1 $185 $389 #
ellipse-curve $-1 72.687550378975473 -25.839618792287567 6.2937538311025012 0.55919291073839883 0 0.82903756765294845 1.2435563514794228 0 -0.83878936610759824 1 I I #
coedge $-1 $282 $282 $-1 $390 reversed $188 $-1 #
edge $-1 $391 0 $391 6.2831853071796004 $189 $392 forward 7 unknown #
vertex $-1 $192 $393 #
ellipse-curve $-1 72.687550378975473 -20.879599795001198 6.2937538311025012 0.55919291073839883 0 0.82903756765294845 1.2435563514794228 0 -0.83878936610759824 1 I I #
coedge $-1 $286 $286 $-1 $394 reversed $195 $-1 #
edge $-1 $395 0 $395 6.2831853071796004 $196 $396 forward 7 unknown #
vertex $-1 $199 $397 #
ellipse-curve $-1 72.687550378975473 -15.919580797714829 6.2937538311025012 0.55919291073839883 0 0.82903756765294845 1.2435563514794228 0 -0.83878936610759824 1 I I #
face $-1 $-1 $215 $30 $-1 $398 reversed single #
loop $-1 $-1 $306 $200 #
plane-surface $-1 0 34.735525858297123 0 0 -1 0 0 0 -1 forward_v I I I I #
coedge $-1 $399 $304 $307 $400 forward $201 $-1 #
coedge $-1 $310 $203 $204 $298 reversed $127 $-1 #
coedge $-1 $304 $399 $203 $296 reversed $201 $-1 #
edge $-1 $311 -8.0073936620146231 $401 8.0073936620146231 $295 $402 forward 7 unknown #
coedge $-1 $205 $204 $399 $403 forward $81 $-1 #
edge $-1 $302 -75.228125858333073 $401 75.228125858333073 $294 $404 forward 7 unknown #
coedge $-1 $307 $306 $205 $300 reversed $291 $-1 #
edge $-1 $405 -75.228125858333073 $301 75.228125858333073 $299 $406 forward 7 unknown #
vertex $-1 $207 $407 #
vertex $-1 $313 $408 #
straight-curve $-1 75.228125858333073 0 -8.0073936620146231 0 -1 0 I I #
coedge $-1 $293 $295 $208 $305 reversed $201 $-1 #
edge $-1 $308 -34.735525858297123 $311 34.735525858297123 $304 $409 forward 7 unknown #
coedge $-1 $299 $209 $214 $314 forward $291 $-1 #
coedge $-1 $209 $299 $293 $400 reversed $291 $-1 #
vertex $-1 $210 $410 #
straight-curve $-1 0 34.735525858297123 8.0073936620146231 -1 0 0 I I #
coedge $-1 $211 $294 $213 $313 reversed $127 $-1 #
vertex $-1 $305 $411 #
straight-curve $-1 0 -34.735525858297123 8.0073936620146231 1 0 0 I I #
edge $-1 $216 -8.0073936620146231 $302 8.0073936620146231 $213 $412 forward 7 unknown #
edge $-1 $217 -8.0073936620146231 $301 8.0073936620146231 $214 $413 forward 7 unknown #
point $-1 75.228125858333073 -34.735525858297123 8.0073936620146231 #
point $-1 75.228125858333073 34.735525858297123 8.0073936620146231 #
face $-1 $-1 $414 $31 $-1 $415 reversed single #
loop $-1 $-1 $229 $219 #
plane-surface $-1 0 -34.735525858297123 0 0 1 0 0 0 1 forward_v I I I I #
coedge $-1 $416 $222 $324 $417 forward $135 $-1 #
coedge $-1 $222 $416 $418 $419 forward $135 $-1 #
edge $-1 $420 -75.228125858333073 $325 75.228125858333073 $222 $421 forward 7 unknown #
coedge $-1 $224 $223 $422 $423 reversed $85 $-1 #
coedge $-1 $225 $231 $320 $417 reversed $220 $-1 #
vertex $-1 $417 $424 #
straight-curve $-1 75.228125858333073 -29.146298123811818 -3.1307083746793616 0 0 1 I I #
coedge $-1 $422 $425 $227 $328 forward $414 $-1 #
edge $-1 $333 -18.765069862769888 $329 -13.175842128284582 $327 $426 forward 7 unknown #
vertex $-1 $328 $427 #
straight-curve $-1 0 -29.146298123811818 -4.5154398367028232 -1 0 0 I I #
coedge $-1 $428 $229 $425 $429 forward $318 $-1 #
coedge $-1 $229 $428 $231 $335 reversed $318 $-1 #
vertex $-1 $429 $430 #
straight-curve $-1 0 -34.735525858297123 -4.5154398367028232 -1 0 0 I I #
edge $-1 $233 4.5154398367028232 $431 8.0073936620146231 $231 $432 forward 7 unknown #
point $-1 75.228125858333073 -29.146298123811818 -4.5154398367028232 #
point $-1 75.228125858333073 -34.735525858297123 -4.5154398367028232 #
loop $-1 $-1 $243 $235 #
plane-surface $-1 -75.228125858333073 0 0 1 0 0 0 0 -1 forward_v I I I I #
coedge $-1 $341 $238 $240 $345 reversed $143 $-1 #
coedge $-1 $238 $340 $433 $434 reversed $143 $-1 #
coedge $-1 $246 $241 $238 $343 forward $236 $-1 #
edge $-1 $346 -9.5341226976645572 $435 -4.4529717389493442 $342 $436 forward 7 unknown #
coedge $-1 $240 $239 $349 $437 reversed $89 $-1 #
edge $-1 $438 0 $346 6.1289755217007071 $340 $439 forward 7 unknown #
vertex $-1 $242 $440 #
straight-curve $-1 -70.146974899617845 -10.439799897500599 8.0073936620146213 0 1 0 I I #
coedge $-1 $433 $243 $246 $353 reversed $338 $-1 #
coedge $-1 $243 $433 $344 $437 forward $338 $-1 #
vertex $-1 $244 $441 #
straight-curve $-1 -75.228125858333073 -29.14629812381181 64.656999480777529 0 0 1 I I #
straight-curve $-1 -75.228125858333073 -29.14629812381181 4.5801140001904059 -0.82903756765294845 0 -0.55919291073839883 I I #
edge $-1 $435 12.612901466190584 $247 29.14629812381181 $348 $442 forward 7 unknown #
point $-1 -75.228125858333073 -29.14629812381181 8.0073936620146231 #
point $-1 -70.146974899617859 -29.14629812381181 8.0073936620146231 #
edge $-1 $443 1 $443 0 $250 $-1 forward 7 unknown #
vertex $-1 $251 $444 #
ellipse-curve $-1 -69.82219655024879 -25.839618792287567 2.0456921639832455 -0.55919291073839883 0 0.82903756765294845 1.2435563514794228 0 0.83878936610759824 1 I I #
point $-1 -71.443994027496075 -25.839618792287567 7.132543197210131 #
edge $-1 $445 1 $445 0 $254 $-1 forward 7 unknown #
vertex $-1 $255 $446 #
ellipse-curve $-1 -69.82219655024879 -20.879599795001198 2.0456921639832455 -0.55919291073839883 0 0.82903756765294845 1.2435563514794228 0 0.83878936610759824 1 I I #
point $-1 -71.443994027496075 -20.879599795001198 7.132543197210131 #
edge $-1 $447 1 $447 0 $258 $-1 forward 7 unknown #
vertex $-1 $259 $448 #
ellipse-curve $-1 -69.82219655024879 -15.919580797714829 2.0456921639832455 -0.55919291073839883 0 0.82903756765294845 1.2435563514794228 0 0.83878936610759824 1 I I #
point $-1 -71.443994027496075 -15.919580797714829 7.132543197210131 #
plane-surface $-1 0 0 8.0073936620146231 0 0 1 1 0 0 forward_v I I I I #
coedge $-1 $379 $378 $371 $449 forward $263 $-1 #
coedge $-1 $371 $265 $267 $375 reversed $172 $-1 #
coedge $-1 $265 $370 $369 $449 reversed $172 $-1 #
coedge $-1 $273 $268 $265 $373 forward $274 $-1 #
edge $-1 $376 52.832819783017761 $450 57.913970741732989 $372 $451 forward 7 unknown #
coedge $-1 $267 $266 $379 $452 reversed $108 $-1 #
edge $-1 $453 -150.45625171666617 $376 -144.32727619496544 $370 $454 forward 7 unknown #
vertex $-1 $269 $455 #
straight-curve $-1 70.146974899617845 -10.439799897500599 8.0073936620146213 0 -1 0 I I #
coedge $-1 $369 $270 $273 $383 reversed $263 $-1 #
coedge $-1 $270 $369 $374 $452 forward $263 $-1 #
vertex $-1 $271 $456 #
straight-curve $-1 75.228125858333073 -12.612901466190584 106.72403414889341 0 0 1 I I #
straight-curve $-1 -49.505759103031593 -12.612901466190584 88.714183336422167 0.82903756765294845 0 -0.55919291073839883 I I #
edge $-1 $450 -29.14629812381181 $275 -12.612901466190584 $378 $457 forward 7 unknown #
point $-1 75.228125858333073 -12.612901466190584 8.0073936620146231 #
point $-1 70.146974899617845 -12.612901466190584 8.0073936620146213 #
edge $-1 $458 1 $458 0 $278 $-1 forward 7 unknown #
vertex $-1 $279 $459 #
ellipse-curve $-1 69.82219655024879 -25.839618792287567 2.0456921639832508 0.55919291073839883 0 0.82903756765294845 1.2435563514794228 0 -0.83878936610759824 1 I I #
point $-1 73.931106730454928 -25.839618792287567 5.4549644649949407 #
edge $-1 $460 1 $460 0 $282 $-1 forward 7 unknown #
vertex $-1 $283 $461 #
ellipse-curve $-1 69.82219655024879 -20.879599795001198 2.0456921639832508 0.55919291073839883 0 0.82903756765294845 1.2435563514794228 0 -0.83878936610759824 1 I I #
point $-1 73.931106730454928 -20.879599795001198 5.4549644649949407 #
edge $-1 $462 1 $462 0 $286 $-1 forward 7 unknown #
vertex $-1 $287 $463 #
ellipse-curve $-1 69.82219655024879 -15.919580797714829 2.0456921639832508 0.55919291073839883 0 0.82903756765294845 1.2435563514794228 0 -0.83878936610759824 1 I I #
point $-1 73.931106730454928 -15.919580797714829 5.4549644649949407 #
plane-surface $-1 75.228125858333073 0 0 -1 0 0 0 0 1 forward_v I I I I #
coedge $-1 $295 $293 $297 $403 reversed $201 $-1 #
edge $-1 $308 -8.0073936620146231 $405 8.0073936620146231 $307 $464 forward 7 unknown #
vertex $-1 $403 $465 #
straight-curve $-1 -75.228125858333073 -34.735525858297123 0 0 0 -1 I I #
edge $-1 $401 -34.735525858297123 $405 34.735525858297123 $399 $466 forward 7 unknown #
straight-curve $-1 0 -34.735525858297123 -8.0073936620146231 -1 0 0 I I #
vertex $-1 $300 $467 #
straight-curve $-1 0 34.735525858297123 -8.0073936620146231 1 0 0 I I #
point $-1 75.228125858333073 34.735525858297123 -8.0073936620146231 #
point $-1 75.228125858333073 -34.735525858297123 -8.0073936620146231 #
straight-curve $-1 -75.228125858333073 0 8.0073936620146231 0 -1 0 I I #
point $-1 -75.228125858333073 34.735525858297123 8.0073936620146231 #
point $-1 -75.228125858333073 -34.735525858297123 8.0073936620146231 #
straight-curve $-1 75.228125858333073 -34.735525858297123 0 0 0 -1 I I #
straight-curve $-1 75.228125858333073 34.735525858297123 0 0 0 -1 I I #
loop $-1 $-1 $422 $317 #
plane-surface $-1 -75.228125858333073 0 0 1 0 0 0 0 -1 forward_v I I I I #
coedge $-1 $321 $320 $428 $468 forward $135 $-1 #
edge $-1 $325 29.146298123811818 $431 34.735525858297123 $324 $469 forward 7 unknown #
coedge $-1 $425 $422 $321 $419 reversed $414 $-1 #
edge $-1 $470 -34.735525858297123 $420 -29.146298123811818 $418 $471 forward 7 unknown #
vertex $-1 $423 $472 #
straight-curve $-1 0 -29.146298123811818 -8.0073936620146231 1 0 0 I I #
coedge $-1 $418 $327 $323 $423 forward $414 $-1 #
edge $-1 $329 1.3847314620234616 $420 4.8766852873352615 $422 $473 forward 7 unknown #
point $-1 75.228125858333073 -29.146298123811818 -8.0073936620146231 #
coedge $-1 $327 $418 $331 $429 reversed $414 $-1 #
straight-curve $-1 -75.228125858333073 -15.970455995527235 -4.5154398367028232 0 1 0 I I #
point $-1 -75.228125858333073 -29.146298123811818 -4.5154398367028232 #
coedge $-1 $332 $331 $416 $468 reversed $318 $-1 #
edge $-1 $333 4.5154398367028232 $470 8.0073936620146231 $425 $474 forward 7 unknown #
point $-1 -75.228125858333073 -34.735525858297123 -4.5154398367028232 #
vertex $-1 $335 $475 #
straight-curve $-1 75.228125858333073 -34.735525858297123 0 0 0 -1 I I #
coedge $-1 $349 $348 $341 $434 forward $338 $-1 #
edge $-1 $435 56.649605818762907 $438 60.076885480587123 $433 $476 forward 7 unknown #
vertex $-1 $353 $477 #
straight-curve $-1 -79.681097597282417 -12.612901466190584 8.0073936620146213 -1 0 0 I I #
edge $-1 $438 2.1731015686899848 $350 18.706498226311211 $349 $478 forward 7 unknown #
vertex $-1 $437 $479 #
straight-curve $-1 -75.228125858333073 -12.612901466190584 4.5801140001904059 0.82903756765294845 0 0.55919291073839883 I I #
point $-1 -70.146974899617859 -12.612901466190584 8.0073936620146231 #
point $-1 -75.228125858333073 -29.14629812381181 4.5801140001904059 #
straight-curve $-1 -75.228125858333073 0 8.0073936620146231 0 -1 0 I I #
vertex $-1 $356 $480 #
point $-1 -68.578640198769378 -25.839618792287567 2.8844815300908433 #
vertex $-1 $360 $481 #
point $-1 -68.578640198769378 -20.879599795001198 2.8844815300908433 #
vertex $-1 $364 $482 #
point $-1 -68.578640198769378 -15.919580797714829 2.8844815300908433 #
edge $-1 $450 98.716640486878788 $453 102.14392014870302 $369 $483 forward 7 unknown #
vertex $-1 $383 $484 #
straight-curve $-1 17.314155116600084 -29.14629812381181 8.0073936620146213 1 0 0 I I #
edge $-1 $453 -18.706498226311211 $380 -2.1731015686899848 $379 $485 forward 7 unknown #
vertex $-1 $452 $486 #
straight-curve $-1 -49.505759103031593 -29.14629812381181 88.714183336422167 -0.82903756765294845 0 0.55919291073839883 I I #
point $-1 70.146974899617845 -29.14629812381181 8.0073936620146213 #
point $-1 75.228125858333087 -12.612901466190584 4.5801140001903917 #
straight-curve $-1 75.228125858333073 0 8.0073936620146231 0 1 0 I I #
vertex $-1 $386 $487 #
point $-1 71.065752901728217 -25.839618792287567 1.2069027978756524 #
vertex $-1 $390 $488 #
point $-1 71.065752901728217 -20.879599795001198 1.2069027978756524 #
vertex $-1 $394 $489 #
point $-1 71.065752901728217 -15.919580797714829 1.2069027978756524 #
straight-curve $-1 -75.228125858333073 34.735525858297123 0 0 0 -1 I I #
point $-1 -75.228125858333073 -34.735525858297123 -8.0073936620146231 #
straight-curve $-1 -75.228125858333073 0 -8.0073936620146231 0 1 0 I I #
point $-1 -75.228125858333073 34.735525858297123 -8.0073936620146231 #
edge $-1 $431 -75.228125858333073 $470 75.228125858333073 $428 $490 forward 7 unknown #
straight-curve $-1 75.228125858333073 0 -8.0073936620146231 0 -1 0 I I #
vertex $-1 $419 $491 #
straight-curve $-1 -75.228125858333073 0 -8.0073936620146231 0 1 0 I I #
point $-1 -75.228125858333073 -29.146298123811818 -8.0073936620146231 #
straight-curve $-1 -75.228125858333073 -29.146298123811818 -3.1307083746793616 0 0 -1 I I #
straight-curve $-1 -75.228125858333073 -34.735525858297123 0 0 0 -1 I I #
point $-1 75.228125858333073 -34.735525858297123 -8.0073936620146231 #
straight-curve $-1 -75.228125858333073 -12.612901466190584 64.656999480777529 0 0 -1 I I #
point $-1 -75.228125858333073 -12.612901466190584 8.0073936620146231 #
straight-curve $-1 -75.228125858333073 -10.439799897500599 4.5801140001904015 0 -1 0 I I #
point $-1 -75.228125858333073 -12.612901466190584 4.5801140001904059 #
point $-1 -68.9834071841412 -25.839618792287567 0.80213581250382249 #
point $-1 -68.9834071841412 -20.879599795001198 0.80213581250382249 #
point $-1 -68.9834071841412 -15.919580797714829 0.80213581250382249 #
straight-curve $-1 75.228125858333073 -29.14629812381181 106.72403414889341 0 0 -1 I I #
point $-1 75.228125858333073 -29.14629812381181 8.0073936620146231 #
straight-curve $-1 75.228125858333073 -10.439799897500599 4.5801140001903917 0 1 0 I I #
point $-1 75.228125858333087 -29.14629812381181 4.5801140001903917 #
point $-1 68.9834071841412 -25.839618792287567 0.80213581250382782 #
point $-1 68.9834071841412 -20.879599795001198 0.80213581250382782 #
point $-1 68.9834071841412 -15.919580797714829 0.80213581250382782 #
straight-curve $-1 0 -34.735525858297123 -8.0073936620146231 -1 0 0 I I #
point $-1 -75.228125858333073 -34.735525858297123 -8.0073936620146231 #
End-of-ACIS-data 