500 0 5 0           
7 Unknown 11 ACIS 5.0 NT 24 Fri Mar 26 19:18:25 1999 
-1 9.9999999999999995e-007 1e-010 
body $-1 $5 $-1 $6 #
body $-1 $7 $-1 $8 #
body $-1 $9 $-1 $10 #
body $-1 $11 $-1 $12 #
body $-1 $13 $-1 $14 #
lump $-1 $-1 $15 $0 #
transform $-1 1 0 0 0 1 0 0 0 1 46.018250068666646 26.530819540152848 10.688194932089836 1 rotate no_reflect no_shear #
lump $-1 $-1 $16 $1 #
transform $-1 1 0 0 0 1 0 0 0 1 46.018250068666646 26.530819540152848 10.688194932089836 1 rotate no_reflect no_shear #
lump $-1 $-1 $17 $2 #
transform $-1 1 0 0 0 1 0 0 0 1 46.018250068666646 26.530819540152848 10.688194932089836 1 rotate no_reflect no_shear #
lump $-1 $-1 $18 $3 #
transform $-1 1 0 0 0 1 0 0 0 1 46.018250068666646 26.530819540152848 10.688194932089836 1 rotate no_reflect no_shear #
lump $-1 $-1 $19 $4 #
transform $-1 1 0 0 0 1 0 0 0 1 46.018250068666646 26.530819540152848 10.688194932089836 1 rotate no_reflect no_shear #
shell $-1 $-1 $-1 $20 $-1 $5 #
shell $-1 $-1 $-1 $21 $-1 $7 #
shell $-1 $-1 $-1 $22 $-1 $9 #
shell $-1 $-1 $-1 $23 $-1 $11 #
shell $-1 $-1 $-1 $24 $-1 $13 #
face $-1 $25 $26 $15 $-1 $27 forward single #
face $-1 $28 $29 $16 $-1 $30 reversed single #
face $-1 $31 $32 $17 $-1 $33 forward single #
face $-1 $34 $35 $18 $-1 $36 reversed single #
face $-1 $37 $38 $19 $-1 $39 reversed single #
face $-1 $40 $41 $15 $-1 $42 reversed single #
loop $-1 $-1 $43 $20 #
plane-surface $-1 0 0 10.688194932089836 0 0 1 1 0 0 forward_v I I I I #
face $-1 $44 $45 $16 $-1 $46 forward single #
loop $-1 $-1 $47 $21 #
plane-surface $-1 0 -19.760785677442708 3.9050766909553687 0 0 1 1 0 0 forward_v I I I I #
face $-1 $48 $49 $17 $-1 $50 forward single #
loop $-1 $-1 $51 $22 #
plane-surface $-1 -117.54404521865746 -6.0484120484089985 58.137480147899062 0 1 0 -0.77714596973225614 0 0.62932038083071107 forward_v I I I I #
face $-1 $52 $53 $18 $-1 $54 reversed single #
loop $-1 $55 $56 $23 #
cone-surface $-1 -40.929385532158996 -3.3299657567415117 4.7649661217298691 0.77714596973225614 0 -0.62932038083071107 0.62932038083071107 0 0.77714596973225614 1 I I 0 1 1 forward I I I I #
face $-1 $57 $58 $19 $-1 $59 reversed single #
loop $-1 $60 $61 $24 #
cone-surface $-1 -40.929385532158996 0.74770368075972016 4.7649661217298691 0.77714596973225614 0 -0.62932038083071107 0.62932038083071107 0 0.77714596973225614 1 I I 0 1 1 forward I I I I #
face $-1 $62 $63 $15 $-1 $64 reversed single #
loop $-1 $-1 $65 $25 #
plane-surface $-1 0 0 -10.688194932089836 0 0 1 1 0 0 forward_v I I I I #
coedge $-1 $66 $67 $68 $69 forward $26 $-1 #
face $-1 $70 $71 $16 $-1 $72 forward single #
loop $-1 $-1 $73 $28 #
plane-surface $-1 0 -19.760785677442708 0.90507669095536869 0 0 1 1 0 0 forward_v I I I I #
coedge $-1 $74 $75 $76 $77 reversed $29 $-1 #
face $-1 $78 $79 $17 $-1 $80 forward single #
loop $-1 $-1 $81 $31 #
plane-surface $-1 -46.01825006866666 -1.291131037990894 0.21703483114668387 -0.77714596973225614 0 0.62932038083071107 0.62932038083071107 0 0.77714596973225614 forward_v I I I I #
coedge $-1 $82 $83 $84 $85 reversed $32 $-1 #
face $-1 $86 $87 $18 $-1 $88 forward single #
loop $-1 $89 $90 $34 #
cone-surface $-1 -39.691637026180352 -3.3299657567415117 3.7626571714261257 0.77714596973225614 0 -0.62932038083071107 0.31466019041535553 0 0.38857298486612807 1 I I -0.70710678118654746 0.70710678118654746 0.5 forward I I I I #
loop $-1 $-1 $91 $23 #
coedge $-1 $56 $56 $92 $93 reversed $35 $-1 #
face $-1 $94 $95 $19 $-1 $96 reversed single #
loop $-1 $97 $98 $37 #
cone-surface $-1 -39.691637026180352 0.74770368075972016 3.7626571714261257 0.77714596973225614 0 -0.62932038083071107 0.31466019041535553 0 0.38857298486612807 1 I I -0.70710678118654746 0.70710678118654746 0.5 forward I I I I #
loop $-1 $-1 $99 $24 #
coedge $-1 $61 $61 $100 $101 reversed $38 $-1 #
face $-1 $102 $103 $15 $-1 $104 reversed single #
loop $-1 $-1 $105 $40 #
plane-surface $-1 0 -26.530819540152848 0 0 1 0 0 0 1 forward_v I I I I #
coedge $-1 $106 $107 $108 $109 forward $41 $-1 #
coedge $-1 $110 $43 $111 $112 forward $26 $-1 #
coedge $-1 $43 $110 $113 $114 forward $26 $-1 #
coedge $-1 $115 $116 $43 $69 reversed $117 $-1 #
edge $-1 $118 -26.530819540152848 $119 26.530819540152848 $68 $120 forward 7 unknown #
face $-1 $121 $122 $16 $-1 $123 reversed single #
loop $-1 $-1 $124 $44 #
plane-surface $-1 0 -12.990751814732569 2.4050766909553687 0 -1 0 0 0 -1 forward_v I I I I #
coedge $-1 $125 $126 $127 $128 reversed $45 $-1 #
coedge $-1 $129 $47 $130 $131 reversed $29 $-1 #
coedge $-1 $47 $129 $132 $133 reversed $29 $-1 #
coedge $-1 $134 $135 $47 $77 forward $122 $-1 #
edge $-1 $136 -16.650426701431492 $137 -3.1103589760112147 $76 $138 forward 7 unknown #
face $-1 $139 $140 $17 $-1 $141 forward single #
loop $-1 $-1 $142 $48 #
plane-surface $-1 -117.54404521865746 3.4661499724272105 58.137480147899062 0 -1 0 0.77714596973225614 0 -0.62932038083071107 forward_v I I I I #
coedge $-1 $143 $144 $145 $146 reversed $49 $-1 #
coedge $-1 $83 $51 $144 $147 forward $32 $-1 #
coedge $-1 $51 $82 $148 $149 reversed $32 $-1 #
coedge $-1 $150 $145 $51 $85 forward $140 $-1 #
edge $-1 $151 -21.233150571452342 $152 -12.753772540662084 $84 $153 forward 7 unknown #
face $-1 $154 $155 $18 $-1 $156 forward single #
loop $-1 $-1 $157 $52 #
plane-surface $-1 -117.54404521865746 -6.0484120484089985 58.137480147899062 0 1 0 -0.77714596973225614 0 0.62932038083071107 forward_v I I I I #
loop $-1 $-1 $158 $34 #
coedge $-1 $90 $90 $91 $159 forward $53 $-1 #
coedge $-1 $91 $91 $90 $159 reversed $55 $-1 #
coedge $-1 $92 $92 $56 $93 forward $155 $-1 #
edge $-1 $160 0 $160 6.2831853071796004 $92 $161 forward 7 unknown #
face $-1 $162 $163 $19 $-1 $164 reversed single #
loop $-1 $165 $166 $57 #
cone-surface $-1 -40.929385532158996 -3.3299657567415117 4.7649661217298691 0.77714596973225614 0 -0.62932038083071107 0.62932038083071107 0 0.77714596973225614 1 I I 0 1 1 forward I I I I #
loop $-1 $-1 $167 $37 #
coedge $-1 $98 $98 $99 $168 forward $58 $-1 #
coedge $-1 $99 $99 $98 $168 reversed $60 $-1 #
coedge $-1 $100 $100 $61 $101 forward $169 $-1 #
edge $-1 $170 0 $170 6.2831853071796004 $100 $171 forward 7 unknown #
face $-1 $172 $173 $15 $-1 $174 reversed single #
loop $-1 $-1 $175 $62 #
plane-surface $-1 -46.018250068666646 0 0 1 0 0 0 0 -1 forward_v I I I I #
coedge $-1 $176 $113 $177 $178 forward $63 $-1 #
coedge $-1 $179 $65 $176 $180 forward $41 $-1 #
coedge $-1 $65 $179 $181 $182 forward $41 $-1 #
coedge $-1 $116 $115 $65 $109 reversed $117 $-1 #
edge $-1 $183 -26.530819540152848 $184 26.530819540152848 $108 $185 forward 7 unknown #
coedge $-1 $67 $66 $186 $187 forward $26 $-1 #
coedge $-1 $188 $189 $66 $112 reversed $173 $-1 #
edge $-1 $119 -46.018250068666646 $190 46.018250068666646 $111 $191 forward 7 unknown #
coedge $-1 $105 $192 $67 $114 reversed $63 $-1 #
edge $-1 $193 -46.018250068666646 $118 46.018250068666646 $113 $194 forward 7 unknown #
coedge $-1 $108 $68 $192 $195 forward $117 $-1 #
coedge $-1 $68 $108 $188 $196 reversed $117 $-1 #
loop $-1 $-1 $115 $172 #
vertex $-1 $69 $197 #
vertex $-1 $69 $198 #
straight-curve $-1 46.018250068666646 0 10.688194932089836 0 1 0 I I #
face $-1 $199 $200 $16 $-1 $201 reversed single #
loop $-1 $-1 $76 $70 #
plane-surface $-1 46.018250068666646 0 0 -1 0 0 0 0 1 forward_v I I I I #
coedge $-1 $132 $202 $134 $203 reversed $71 $-1 #
coedge $-1 $204 $73 $202 $205 reversed $45 $-1 #
coedge $-1 $73 $204 $206 $207 reversed $45 $-1 #
coedge $-1 $208 $134 $73 $128 forward $122 $-1 #
edge $-1 $209 3.1103589760112147 $210 16.650426701431492 $127 $211 forward 7 unknown #
coedge $-1 $75 $74 $212 $213 reversed $29 $-1 #
coedge $-1 $214 $215 $74 $131 forward $216 $-1 #
edge $-1 $217 -46.018250068666646 $136 46.018250068666646 $130 $218 forward 7 unknown #
coedge $-1 $219 $124 $75 $133 forward $71 $-1 #
edge $-1 $137 -46.018250068666646 $220 46.018250068666646 $132 $221 forward 7 unknown #
coedge $-1 $127 $76 $124 $203 forward $122 $-1 #
coedge $-1 $76 $222 $214 $223 forward $122 $-1 #
vertex $-1 $131 $224 #
vertex $-1 $77 $225 #
straight-curve $-1 46.018250068666646 -9.8803928387213542 3.9050766909553687 0 1 0 I I #
face $-1 $226 $227 $17 $-1 $228 reversed single #
loop $-1 $-1 $229 $78 #
plane-surface $-1 0 0 10.688194932089836 0 0 1 1 0 0 forward_v I I I I #
coedge $-1 $230 $231 $229 $232 reversed $79 $-1 #
coedge $-1 $233 $81 $231 $234 reversed $49 $-1 #
coedge $-1 $81 $233 $82 $147 reversed $49 $-1 #
coedge $-1 $84 $229 $81 $146 forward $140 $-1 #
edge $-1 $235 -4.1117154914226575 $151 5.4028465294135515 $145 $236 forward 7 unknown #
edge $-1 $151 -13.473865282413673 $237 -2.2575505016944882e-014 $82 $238 forward 7 unknown #
coedge $-1 $239 $240 $83 $149 forward $241 $-1 #
edge $-1 $152 18.380545141859695 $237 28.851705242802829 $148 $242 forward 7 unknown #
coedge $-1 $243 $84 $240 $244 forward $140 $-1 #
vertex $-1 $146 $245 #
vertex $-1 $244 $246 #
straight-curve $-1 -58.772022609328729 -6.0484120484089985 10.688194932089836 -1 0 0 I I #
face $-1 $247 $248 $18 $-1 $249 forward single #
loop $-1 $250 $92 $86 #
plane-surface $-1 -46.01825006866666 -1.291131037990894 0.21703483114668387 -0.77714596973225614 0 0.62932038083071107 0.62932038083071107 0 0.77714596973225614 forward_v I I I I #
coedge $-1 $251 $252 $253 $254 reversed $87 $-1 #
coedge $-1 $158 $158 $-1 $255 forward $89 $-1 #
edge $-1 $256 0 $256 6.2831853071796004 $90 $257 forward 7 unknown #
vertex $-1 $93 $258 #
ellipse-curve $-1 -41.778561053271524 -3.3299657567415117 5.452614881618266 0.77714596973225614 0 -0.62932038083071107 0.62932038083071107 0 0.77714596973225614 1 I I #
face $-1 $259 $260 $19 $-1 $261 forward single #
loop $-1 $262 $263 $94 #
cone-surface $-1 -39.691637026180352 -3.3299657567415117 3.7626571714261257 0.77714596973225614 0 -0.62932038083071107 0.31466019041535553 0 0.38857298486612807 1 I I -0.70710678118654746 0.70710678118654746 0.5 forward I I I I #
loop $-1 $-1 $264 $57 #
coedge $-1 $166 $166 $265 $266 reversed $95 $-1 #
coedge $-1 $167 $167 $-1 $267 forward $97 $-1 #
edge $-1 $268 0 $268 6.2831853071796004 $98 $269 forward 7 unknown #
loop $-1 $270 $100 $259 #
vertex $-1 $101 $271 #
ellipse-curve $-1 -41.778561053271524 0.74770368075972016 5.452614881618266 0.77714596973225614 0 -0.62932038083071107 0.62932038083071107 0 0.77714596973225614 1 I I #
face $-1 $-1 $117 $15 $-1 $272 reversed single #
loop $-1 $-1 $188 $102 #
plane-surface $-1 0 26.530819540152848 0 0 -1 0 0 0 -1 forward_v I I I I #
coedge $-1 $273 $186 $189 $274 forward $103 $-1 #
coedge $-1 $192 $105 $106 $180 reversed $63 $-1 #
coedge $-1 $186 $273 $105 $178 reversed $103 $-1 #
edge $-1 $193 -10.688194932089836 $275 10.688194932089836 $177 $276 forward 7 unknown #
coedge $-1 $107 $106 $273 $277 forward $41 $-1 #
edge $-1 $184 -46.018250068666646 $275 46.018250068666646 $176 $278 forward 7 unknown #
coedge $-1 $189 $188 $107 $182 reversed $173 $-1 #
edge $-1 $279 -46.018250068666646 $183 46.018250068666646 $181 $280 forward 7 unknown #
vertex $-1 $109 $281 #
vertex $-1 $195 $282 #
straight-curve $-1 46.018250068666646 0 -10.688194932089836 0 -1 0 I I #
coedge $-1 $175 $177 $110 $187 reversed $103 $-1 #
edge $-1 $190 -26.530819540152848 $193 26.530819540152848 $186 $283 forward 7 unknown #
coedge $-1 $181 $111 $116 $196 forward $173 $-1 #
coedge $-1 $111 $181 $175 $274 reversed $173 $-1 #
vertex $-1 $112 $284 #
straight-curve $-1 0 26.530819540152848 10.688194932089836 -1 0 0 I I #
coedge $-1 $113 $176 $115 $195 reversed $63 $-1 #
vertex $-1 $187 $285 #
straight-curve $-1 0 -26.530819540152848 10.688194932089836 1 0 0 I I #
edge $-1 $118 -10.688194932089836 $184 10.688194932089836 $115 $286 forward 7 unknown #
edge $-1 $119 -10.688194932089836 $183 10.688194932089836 $116 $287 forward 7 unknown #
point $-1 46.018250068666646 -26.530819540152848 10.688194932089836 #
point $-1 46.018250068666646 26.530819540152848 10.688194932089836 #
face $-1 $288 $289 $16 $-1 $290 forward single #
loop $-1 $-1 $206 $121 #
plane-surface $-1 0 -26.530819540152848 0 0 1 0 0 0 1 forward_v I I I I #
coedge $-1 $124 $219 $125 $205 forward $71 $-1 #
edge $-1 $137 -2.7025383454776843 $209 0.29746165452231565 $134 $291 forward 7 unknown #
coedge $-1 $126 $125 $292 $293 reversed $45 $-1 #
edge $-1 $294 -46.018250068666646 $209 46.018250068666646 $202 $295 forward 7 unknown #
coedge $-1 $296 $297 $126 $207 forward $200 $-1 #
edge $-1 $210 -46.018250068666646 $298 46.018250068666646 $206 $299 forward 7 unknown #
coedge $-1 $300 $127 $297 $301 forward $122 $-1 #
vertex $-1 $128 $302 #
vertex $-1 $301 $303 #
straight-curve $-1 46.018250068666646 -9.8803928387213542 0.90507669095536869 0 -1 0 I I #
coedge $-1 $304 $305 $129 $213 forward $306 $-1 #
edge $-1 $220 3.1103589760112147 $217 16.650426701431492 $212 $307 forward 7 unknown #
coedge $-1 $308 $130 $135 $223 reversed $216 $-1 #
coedge $-1 $130 $308 $304 $309 forward $216 $-1 #
loop $-1 $-1 $130 $310 #
vertex $-1 $213 $311 #
straight-curve $-1 0 -26.530819540152848 3.9050766909553687 1 0 0 I I #
coedge $-1 $202 $132 $305 $312 reversed $71 $-1 #
vertex $-1 $213 $313 #
straight-curve $-1 0 -12.990751814732569 3.9050766909553687 -1 0 0 I I #
coedge $-1 $135 $314 $315 $316 reversed $122 $-1 #
edge $-1 $317 -10.688194932089836 $136 -3.9050766909553687 $135 $318 forward 7 unknown #
point $-1 46.018250068666646 -26.530819540152848 3.9050766909553687 #
point $-1 46.018250068666646 -12.990751814732569 3.9050766909553687 #
face $-1 $319 $320 $17 $-1 $321 forward single #
loop $-1 $-1 $322 $139 #
plane-surface $-1 0 -19.760785677442708 3.9050766909553687 0 0 1 1 0 0 forward_v I I I I #
coedge $-1 $145 $323 $142 $232 forward $140 $-1 #
coedge $-1 $231 $142 $324 $325 reversed $79 $-1 #
coedge $-1 $142 $230 $143 $234 forward $79 $-1 #
edge $-1 $326 12.753772540662084 $235 21.233150571452342 $229 $327 forward 7 unknown #
coedge $-1 $144 $143 $239 $328 reversed $49 $-1 #
edge $-1 $329 2.2575505016944882e-014 $235 13.473865282413673 $231 $330 forward 7 unknown #
vertex $-1 $146 $331 #
straight-curve $-1 -37.538872037876395 -0.64556551899544701 10.688194932089836 0 -1 0 I I #
vertex $-1 $328 $332 #
straight-curve $-1 -46.01825006866666 -6.0484120484089985 0.21703483114668387 -0.62932038083071107 0 -0.77714596973225614 I I #
coedge $-1 $324 $148 $233 $328 forward $241 $-1 #
coedge $-1 $148 $333 $150 $244 reversed $241 $-1 #
loop $-1 $-1 $324 $334 #
straight-curve $-1 -46.018250068666646 -6.0484120484089985 29.068740073949531 0 0 -1 I I #
coedge $-1 $335 $150 $336 $337 forward $140 $-1 #
edge $-1 $152 6.0484120484089985 $338 26.530819540152848 $240 $339 forward 7 unknown #
point $-1 -37.538872037876388 -6.0484120484089985 10.688194932089836 #
point $-1 -46.018250068666646 -6.0484120484089985 10.688194932089836 #
face $-1 $340 $341 $18 $-1 $342 forward single #
loop $-1 $-1 $343 $154 #
plane-surface $-1 -117.54404521865746 3.4661499724272105 58.137480147899062 0 -1 0 0.77714596973225614 0 -0.62932038083071107 forward_v I I I I #
loop $-1 $-1 $344 $86 #
coedge $-1 $252 $157 $345 $346 forward $87 $-1 #
coedge $-1 $157 $251 $347 $348 reversed $87 $-1 #
coedge $-1 $349 $350 $157 $254 forward $341 $-1 #
edge $-1 $351 -21.233150571452342 $352 -12.753772540662084 $253 $353 forward 7 unknown #
edge $-1 $354 1 $354 0 $158 $-1 forward 7 unknown #
vertex $-1 $159 $355 #
ellipse-curve $-1 -40.080210011046482 -3.3299657567415117 4.0773173618414811 -0.77714596973225614 0 0.62932038083071107 0.62932038083071107 0 0.77714596973225614 1 I I #
point $-1 -41.149240672440797 -3.3299657567415117 6.2297608513505125 #
face $-1 $356 $169 $19 $-1 $357 forward single #
loop $-1 $-1 $358 $162 #
plane-surface $-1 -117.54404521865746 -6.0484120484089985 58.137480147899062 0 1 0 -0.77714596973225614 0 0.62932038083071107 forward_v I I I I #
loop $-1 $-1 $359 $94 #
coedge $-1 $263 $263 $264 $360 forward $163 $-1 #
coedge $-1 $264 $264 $263 $360 reversed $165 $-1 #
coedge $-1 $265 $265 $166 $266 forward $270 $-1 #
edge $-1 $361 0 $361 6.2831853071796004 $265 $362 forward 7 unknown #
edge $-1 $363 1 $363 0 $167 $-1 forward 7 unknown #
vertex $-1 $168 $364 #
ellipse-curve $-1 -40.080210011046482 0.74770368075972016 4.0773173618414811 -0.77714596973225614 0 0.62932038083071107 0.62932038083071107 0 0.77714596973225614 1 I I #
loop $-1 $365 $265 $259 #
point $-1 -41.149240672440797 0.74770368075972016 6.2297608513505125 #
plane-surface $-1 46.018250068666646 0 0 -1 0 0 0 0 1 forward_v I I I I #
coedge $-1 $177 $175 $179 $277 reversed $103 $-1 #
edge $-1 $190 -10.688194932089836 $279 10.688194932089836 $189 $366 forward 7 unknown #
vertex $-1 $277 $367 #
straight-curve $-1 -46.018250068666646 -26.530819540152848 0 0 0 -1 I I #
edge $-1 $275 -26.530819540152848 $279 26.530819540152848 $273 $368 forward 7 unknown #
straight-curve $-1 0 -26.530819540152848 -10.688194932089836 -1 0 0 I I #
vertex $-1 $182 $369 #
straight-curve $-1 0 26.530819540152848 -10.688194932089836 1 0 0 I I #
point $-1 46.018250068666646 26.530819540152848 -10.688194932089836 #
point $-1 46.018250068666646 -26.530819540152848 -10.688194932089836 #
straight-curve $-1 -46.018250068666646 0 10.688194932089836 0 -1 0 I I #
point $-1 -46.018250068666646 26.530819540152848 10.688194932089836 #
point $-1 -46.018250068666646 -26.530819540152848 10.688194932089836 #
straight-curve $-1 46.018250068666646 -26.530819540152848 0 0 0 -1 I I #
straight-curve $-1 46.018250068666646 26.530819540152848 0 0 0 -1 I I #
face $-1 $310 $370 $16 $-1 $371 reversed single #
loop $-1 $-1 $315 $199 #
plane-surface $-1 0 0 10.688194932089836 0 0 1 1 0 0 forward_v I I I I #
straight-curve $-1 46.018250068666646 -12.990751814732569 1.2025383454776843 0 0 -1 I I #
coedge $-1 $305 $372 $204 $293 forward $306 $-1 #
edge $-1 $298 -16.650426701431492 $294 -3.1103589760112147 $292 $373 forward 7 unknown #
vertex $-1 $293 $374 #
straight-curve $-1 0 -12.990751814732569 0.90507669095536869 1 0 0 I I #
coedge $-1 $375 $206 $372 $376 forward $200 $-1 #
coedge $-1 $206 $375 $208 $301 reversed $200 $-1 #
vertex $-1 $376 $377 #
straight-curve $-1 0 -26.530819540152848 0.90507669095536869 -1 0 0 I I #
coedge $-1 $314 $208 $378 $379 reversed $122 $-1 #
edge $-1 $210 -0.90507669095536869 $380 10.688194932089836 $208 $318 forward 7 unknown #
point $-1 46.018250068666646 -12.990751814732569 0.90507669095536869 #
point $-1 46.018250068666646 -26.530819540152848 0.90507669095536869 #
coedge $-1 $381 $212 $215 $309 reversed $306 $-1 #
coedge $-1 $212 $292 $219 $312 forward $306 $-1 #
loop $-1 $-1 $212 $382 #
straight-curve $-1 -46.018250068666646 -9.8803928387213542 3.9050766909553687 0 -1 0 I I #
coedge $-1 $215 $214 $383 $384 reversed $216 $-1 #
edge $-1 $385 -10.688194932089836 $217 -3.9050766909553687 $304 $386 forward 7 unknown #
face $-1 $382 $216 $16 $-1 $201 reversed single #
point $-1 -46.018250068666646 -26.530819540152848 3.9050766909553687 #
edge $-1 $294 -0.29746165452231565 $220 2.7025383454776843 $305 $387 forward 7 unknown #
point $-1 -46.018250068666646 -12.990751814732569 3.9050766909553687 #
coedge $-1 $222 $300 $388 $389 reversed $122 $-1 #
coedge $-1 $390 $383 $222 $316 forward $289 $-1 #
edge $-1 $317 -26.530819540152848 $391 26.530819540152848 $222 $392 forward 7 unknown #
vertex $-1 $316 $393 #
straight-curve $-1 46.018250068666646 -26.530819540152848 0 0 0 -1 I I #
face $-1 $394 $395 $17 $-1 $396 forward single #
loop $-1 $-1 $397 $226 #
plane-surface $-1 0 -19.760785677442708 0.90507669095536869 0 0 1 1 0 0 forward_v I I I I #
coedge $-1 $398 $399 $400 $401 reversed $227 $-1 #
coedge $-1 $229 $402 $403 $404 forward $140 $-1 #
coedge $-1 $403 $239 $230 $325 forward $241 $-1 #
edge $-1 $329 -28.851705242802829 $326 -18.380545141859695 $324 $405 forward 7 unknown #
vertex $-1 $325 $406 #
straight-curve $-1 -58.772022609328729 3.4661499724272105 10.688194932089836 1 0 0 I I #
edge $-1 $237 -5.4028465294135515 $329 4.1117154914226575 $239 $407 forward 7 unknown #
vertex $-1 $328 $408 #
straight-curve $-1 -46.01825006866666 3.4661499724272105 0.21703483114668387 0.62932038083071107 0 0.77714596973225614 I I #
point $-1 -37.538872037876388 3.4661499724272105 10.688194932089836 #
point $-1 -46.018250068666646 -6.0484120484089985 0.21703483114670141 #
coedge $-1 $240 $409 $410 $411 reversed $241 $-1 #
face $-1 $412 $241 $17 $-1 $413 reversed single #
coedge $-1 $402 $243 $414 $415 forward $140 $-1 #
coedge $-1 $410 $416 $243 $337 reversed $417 $-1 #
edge $-1 $338 -46.018250068666646 $418 46.018250068666646 $336 $419 forward 7 unknown #
vertex $-1 $244 $420 #
straight-curve $-1 -46.018250068666646 0 10.688194932089836 0 -1 0 I I #
face $-1 $421 $422 $18 $-1 $423 reversed single #
loop $-1 $-1 $424 $247 #
plane-surface $-1 0 0 10.688194932089836 0 0 1 1 0 0 forward_v I I I I #
coedge $-1 $425 $426 $424 $427 reversed $248 $-1 #
coedge $-1 $428 $345 $350 $429 reversed $250 $-1 #
coedge $-1 $344 $430 $251 $346 reversed $250 $-1 #
edge $-1 $351 -13.473865282413673 $431 -2.2575505016944882e-014 $251 $432 forward 7 unknown #
coedge $-1 $433 $434 $252 $348 forward $435 $-1 #
edge $-1 $352 18.380545141859695 $431 28.851705242802829 $347 $436 forward 7 unknown #
coedge $-1 $437 $253 $434 $438 forward $341 $-1 #
coedge $-1 $253 $424 $344 $429 forward $341 $-1 #
vertex $-1 $429 $439 #
vertex $-1 $438 $440 #
straight-curve $-1 -58.772022609328729 -6.0484120484089985 10.688194932089836 -1 0 0 I I #
vertex $-1 $255 $441 #
point $-1 -39.450889630215769 -3.3299657567415117 4.8544633315737373 #
face $-1 $442 $443 $19 $-1 $444 forward single #
plane-surface $-1 -46.01825006866666 -1.291131037990894 0.21703483114668387 -0.77714596973225614 0 0.62932038083071107 0.62932038083071107 0 0.77714596973225614 forward_v I I I I #
coedge $-1 $445 $446 $447 $448 reversed $260 $-1 #
coedge $-1 $359 $359 $-1 $449 forward $262 $-1 #
edge $-1 $450 0 $450 6.2831853071796004 $263 $451 forward 7 unknown #
vertex $-1 $266 $452 #
ellipse-curve $-1 -41.778561053271524 -3.3299657567415117 5.452614881618266 0.77714596973225614 0 -0.62932038083071107 0.62932038083071107 0 0.77714596973225614 1 I I #
vertex $-1 $267 $453 #
point $-1 -39.450889630215769 0.74770368075972016 4.8544633315737373 #
loop $-1 $-1 $454 $259 #
straight-curve $-1 -46.018250068666646 26.530819540152848 0 0 0 -1 I I #
point $-1 -46.018250068666646 -26.530819540152848 -10.688194932089836 #
straight-curve $-1 -46.018250068666646 0 -10.688194932089836 0 1 0 I I #
point $-1 -46.018250068666646 26.530819540152848 -10.688194932089836 #
loop $-1 $-1 $378 $288 #
plane-surface $-1 0 0 -10.688194932089836 0 0 1 1 0 0 forward_v I I I I #
coedge $-1 $292 $455 $296 $376 reversed $306 $-1 #
straight-curve $-1 -46.018250068666646 -9.8803928387213542 0.90507669095536869 0 1 0 I I #
point $-1 -46.018250068666646 -12.990751814732569 0.90507669095536869 #
coedge $-1 $297 $296 $456 $457 reversed $200 $-1 #
edge $-1 $298 -0.90507669095536869 $458 10.688194932089836 $372 $386 forward 7 unknown #
point $-1 -46.018250068666646 -26.530819540152848 0.90507669095536869 #
coedge $-1 $456 $459 $300 $379 forward $370 $-1 #
edge $-1 $460 -26.530819540152848 $380 26.530819540152848 $300 $461 forward 7 unknown #
vertex $-1 $301 $462 #
coedge $-1 $463 $304 $464 $465 reversed $306 $-1 #
face $-1 $466 $306 $16 $-1 $467 reversed single #
coedge $-1 $315 $464 $308 $384 forward $289 $-1 #
edge $-1 $385 -46.018250068666646 $317 46.018250068666646 $308 $468 forward 7 unknown #
vertex $-1 $465 $469 #
straight-curve $-1 -46.018250068666646 -26.530819540152848 0 0 0 -1 I I #
straight-curve $-1 -46.018250068666646 -12.990751814732569 1.2025383454776843 0 0 1 I I #
coedge $-1 $470 $471 $314 $389 forward $472 $-1 #
edge $-1 $391 -10.688194932089836 $460 10.688194932089836 $314 $473 forward 7 unknown #
coedge $-1 $464 $315 $471 $474 forward $289 $-1 #
vertex $-1 $316 $475 #
straight-curve $-1 46.018250068666646 0 10.688194932089836 0 1 0 I I #
point $-1 46.018250068666646 -26.530819540152848 10.688194932089836 #
face $-1 $476 $477 $17 $-1 $478 reversed single #
loop $-1 $-1 $479 $319 #
plane-surface $-1 0 -12.990751814732569 2.4050766909553687 0 -1 0 0 0 -1 forward_v I I I I #
coedge $-1 $480 $481 $482 $483 reversed $320 $-1 #
coedge $-1 $484 $322 $485 $486 reversed $227 $-1 #
coedge $-1 $322 $484 $487 $488 reversed $227 $-1 #
coedge $-1 $489 $490 $322 $401 forward $477 $-1 #
edge $-1 $491 -16.650426701431492 $492 -3.1103589760112147 $400 $493 forward 7 unknown #
coedge $-1 $323 $335 $494 $495 forward $140 $-1 #
coedge $-1 $496 $324 $323 $404 reversed $241 $-1 #
edge $-1 $497 -26.530819540152848 $326 -3.4661499724272105 $403 $339 forward 7 unknown #
straight-curve $-1 -46.018250068666646 3.4661499724272105 29.068740073949531 0 0 1 I I #
point $-1 -46.018250068666646 3.4661499724272105 10.688194932089836 #
straight-curve $-1 -46.018250068666646 -0.64556551899544701 0.21703483114669975 0 1 0 I I #
point $-1 -46.018250068666646 3.4661499724272105 0.21703483114670141 #
coedge $-1 $333 $498 $484 $499 forward $241 $-1 #
coedge $-1 $485 $336 $333 $411 forward $417 $-1 #
edge $-1 $338 -10.688194932089836 $500 -3.9050766909553687 $333 $501 forward 7 unknown #
face $-1 $-1 $502 $17 $-1 $503 reversed single #
plane-surface $-1 -46.018250068666646 0 0 1 0 0 0 0 -1 forward_v I I I I #
coedge $-1 $490 $504 $335 $415 reversed $477 $-1 #
edge $-1 $418 -26.530819540152848 $505 26.530819540152848 $414 $506 forward 7 unknown #
coedge $-1 $336 $485 $490 $507 reversed $417 $-1 #
loop $-1 $-1 $485 $508 #
vertex $-1 $415 $509 #
straight-curve $-1 0 -26.530819540152848 10.688194932089836 1 0 0 I I #
point $-1 -46.018250068666646 -26.530819540152848 10.688194932089836 #
face $-1 $510 $511 $18 $-1 $512 forward single #
loop $-1 $-1 $513 $340 #
plane-surface $-1 0 -19.760785677442708 3.9050766909553687 0 0 1 1 0 0 forward_v I I I I #
coedge $-1 $350 $514 $343 $427 forward $341 $-1 #
coedge $-1 $426 $343 $515 $516 reversed $248 $-1 #
coedge $-1 $343 $425 $428 $517 forward $248 $-1 #
edge $-1 $518 12.753772540662084 $519 21.233150571452342 $424 $520 forward 7 unknown #
coedge $-1 $430 $344 $426 $517 reversed $250 $-1 #
edge $-1 $519 -4.1117154914226575 $351 5.4028465294135515 $350 $521 forward 7 unknown #
coedge $-1 $345 $428 $433 $522 reversed $250 $-1 #
vertex $-1 $522 $523 #
straight-curve $-1 -46.01825006866666 -6.0484120484089985 0.21703483114668387 -0.62932038083071107 0 -0.77714596973225614 I I #
coedge $-1 $515 $347 $430 $522 forward $435 $-1 #
coedge $-1 $347 $524 $349 $438 reversed $435 $-1 #
loop $-1 $-1 $515 $525 #
straight-curve $-1 -46.018250068666646 -6.0484120484089985 29.068740073949531 0 0 -1 I I #
coedge $-1 $526 $349 $527 $528 forward $341 $-1 #
edge $-1 $352 6.0484120484089985 $529 26.530819540152848 $434 $530 forward 7 unknown #
point $-1 -37.538872037876388 -6.0484120484089985 10.688194932089836 #
point $-1 -46.018250068666646 -6.0484120484089985 10.688194932089836 #
point $-1 -39.303064041314222 -3.3299657567415117 3.4479969810107702 #
face $-1 $531 $532 $19 $-1 $533 forward single #
loop $-1 $-1 $534 $356 #
plane-surface $-1 -117.54404521865746 3.4661499724272105 58.137480147899062 0 -1 0 0.77714596973225614 0 -0.62932038083071107 forward_v I I I I #
coedge $-1 $446 $358 $535 $536 forward $260 $-1 #
coedge $-1 $358 $445 $537 $538 reversed $260 $-1 #
coedge $-1 $539 $540 $358 $448 forward $532 $-1 #
edge $-1 $541 -21.233150571452342 $542 -12.753772540662084 $447 $543 forward 7 unknown #
edge $-1 $544 1 $544 0 $359 $-1 forward 7 unknown #
vertex $-1 $360 $545 #
ellipse-curve $-1 -40.080210011046482 -3.3299657567415117 4.0773173618414811 -0.77714596973225614 0 0.62932038083071107 0.62932038083071107 0 0.77714596973225614 1 I I #
point $-1 -41.149240672440797 -3.3299657567415117 6.2297608513505125 #
point $-1 -39.303064041314222 0.74770368075972016 3.4479969810107702 #
coedge $-1 $546 $535 $540 $547 reversed $365 $-1 #
coedge $-1 $372 $463 $548 $549 reversed $306 $-1 #
coedge $-1 $548 $378 $375 $457 forward $370 $-1 #
edge $-1 $380 -46.018250068666646 $458 46.018250068666646 $375 $550 forward 7 unknown #
vertex $-1 $549 $551 #
coedge $-1 $378 $548 $470 $552 forward $370 $-1 #
vertex $-1 $379 $553 #
straight-curve $-1 46.018250068666646 0 -10.688194932089836 0 -1 0 I I #
point $-1 46.018250068666646 -26.530819540152848 -10.688194932089836 #
coedge $-1 $455 $381 $554 $555 forward $306 $-1 #
coedge $-1 $383 $390 $381 $465 forward $289 $-1 #
edge $-1 $556 -26.530819540152848 $385 26.530819540152848 $381 $557 forward 7 unknown #
face $-1 $-1 $472 $16 $-1 $558 reversed single #
plane-surface $-1 -46.018250068666646 0 0 1 0 0 0 0 -1 forward_v I I I I #
straight-curve $-1 0 -26.530819540152848 10.688194932089836 1 0 0 I I #
point $-1 -46.018250068666646 -26.530819540152848 10.688194932089836 #
coedge $-1 $554 $388 $459 $552 reversed $472 $-1 #
coedge $-1 $388 $554 $390 $474 reversed $472 $-1 #
loop $-1 $-1 $388 $466 #
straight-curve $-1 46.018250068666646 26.530819540152848 0 0 0 -1 I I #
edge $-1 $391 -46.018250068666646 $556 46.018250068666646 $471 $559 forward 7 unknown #
point $-1 46.018250068666646 26.530819540152848 10.688194932089836 #
face $-1 $560 $561 $17 $-1 $562 reversed single #
loop $-1 $-1 $400 $394 #
plane-surface $-1 46.018250068666646 0 0 -1 0 0 0 0 1 forward_v I I I I #
coedge $-1 $487 $563 $489 $564 reversed $395 $-1 #
coedge $-1 $565 $397 $563 $566 reversed $320 $-1 #
coedge $-1 $397 $565 $567 $568 reversed $320 $-1 #
coedge $-1 $569 $489 $397 $483 forward $477 $-1 #
edge $-1 $570 3.1103589760112147 $571 16.650426701431492 $482 $572 forward 7 unknown #
coedge $-1 $399 $398 $409 $499 reversed $227 $-1 #
coedge $-1 $416 $410 $398 $486 forward $417 $-1 #
edge $-1 $500 -46.018250068666646 $491 46.018250068666646 $485 $573 forward 7 unknown #
coedge $-1 $574 $479 $399 $488 forward $395 $-1 #
edge $-1 $492 -46.018250068666646 $575 46.018250068666646 $487 $576 forward 7 unknown #
coedge $-1 $482 $400 $479 $564 forward $477 $-1 #
coedge $-1 $400 $414 $416 $507 forward $477 $-1 #
vertex $-1 $486 $577 #
vertex $-1 $401 $578 #
straight-curve $-1 46.018250068666646 -9.8803928387213542 3.9050766909553687 0 1 0 I I #
coedge $-1 $579 $580 $402 $495 reversed $502 $-1 #
edge $-1 $505 -46.018250068666646 $497 46.018250068666646 $494 $581 forward 7 unknown #
coedge $-1 $582 $403 $580 $583 forward $241 $-1 #
vertex $-1 $495 $584 #
coedge $-1 $409 $585 $574 $586 forward $241 $-1 #
edge $-1 $575 3.1103589760112147 $500 16.650426701431492 $409 $587 forward 7 unknown #
vertex $-1 $499 $588 #
straight-curve $-1 -46.018250068666646 -26.530819540152848 0 0 0 -1 I I #
loop $-1 $-1 $579 $412 #
plane-surface $-1 0 26.530819540152848 0 0 -1 0 0 0 -1 forward_v I I I I #
coedge $-1 $414 $589 $579 $590 reversed $477 $-1 #
vertex $-1 $415 $591 #
straight-curve $-1 46.018250068666646 0 10.688194932089836 0 1 0 I I #
edge $-1 $418 -10.688194932089836 $491 -3.9050766909553687 $490 $592 forward 7 unknown #
face $-1 $334 $417 $17 $-1 $562 reversed single #
point $-1 46.018250068666646 -26.530819540152848 10.688194932089836 #
face $-1 $593 $594 $18 $-1 $595 forward single #
loop $-1 $-1 $596 $421 #
plane-surface $-1 0 -19.760785677442708 0.90507669095536869 0 0 1 1 0 0 forward_v I I I I #
coedge $-1 $597 $598 $599 $600 reversed $422 $-1 #
coedge $-1 $424 $601 $602 $603 forward $341 $-1 #
coedge $-1 $602 $433 $425 $516 forward $435 $-1 #
edge $-1 $604 -28.851705242802829 $518 -18.380545141859695 $515 $605 forward 7 unknown #
edge $-1 $604 2.2575505016944882e-014 $519 13.473865282413673 $426 $606 forward 7 unknown #
vertex $-1 $516 $607 #
vertex $-1 $429 $608 #
straight-curve $-1 -58.772022609328729 3.4661499724272105 10.688194932089836 1 0 0 I I #
straight-curve $-1 -37.538872037876395 -0.64556551899544701 10.688194932089836 0 -1 0 I I #
edge $-1 $431 -5.4028465294135515 $604 4.1117154914226575 $433 $609 forward 7 unknown #
point $-1 -46.018250068666646 -6.0484120484089985 0.21703483114670141 #
coedge $-1 $434 $610 $611 $612 reversed $435 $-1 #
face $-1 $613 $435 $18 $-1 $614 reversed single #
coedge $-1 $601 $437 $615 $616 forward $341 $-1 #
coedge $-1 $611 $617 $437 $528 reversed $618 $-1 #
edge $-1 $529 -46.018250068666646 $619 46.018250068666646 $527 $620 forward 7 unknown #
vertex $-1 $438 $621 #
straight-curve $-1 -46.018250068666646 0 10.688194932089836 0 -1 0 I I #
face $-1 $622 $623 $19 $-1 $624 reversed single #
loop $-1 $-1 $625 $442 #
plane-surface $-1 0 0 10.688194932089836 0 0 1 1 0 0 forward_v I I I I #
coedge $-1 $626 $627 $625 $628 reversed $443 $-1 #
coedge $-1 $454 $629 $445 $536 reversed $365 $-1 #
edge $-1 $541 -13.473865282413673 $630 -2.2575505016944882e-014 $445 $631 forward 7 unknown #
coedge $-1 $632 $633 $446 $538 forward $634 $-1 #
edge $-1 $542 18.380545141859695 $630 28.851705242802829 $537 $635 forward 7 unknown #
coedge $-1 $636 $447 $633 $637 forward $532 $-1 #
coedge $-1 $447 $625 $454 $547 forward $532 $-1 #
vertex $-1 $547 $638 #
vertex $-1 $637 $639 #
straight-curve $-1 -58.772022609328729 -6.0484120484089985 10.688194932089836 -1 0 0 I I #
vertex $-1 $449 $640 #
point $-1 -39.450889630215769 -3.3299657567415117 4.8544633315737373 #
coedge $-1 $629 $454 $627 $641 reversed $365 $-1 #
edge $-1 $642 -4.1117154914226575 $541 5.4028465294135515 $540 $643 forward 7 unknown #
coedge $-1 $459 $456 $455 $549 forward $370 $-1 #
edge $-1 $458 -26.530819540152848 $644 26.530819540152848 $455 $645 forward 7 unknown #
straight-curve $-1 0 -26.530819540152848 -10.688194932089836 -1 0 0 I I #
point $-1 -46.018250068666646 -26.530819540152848 -10.688194932089836 #
edge $-1 $644 -46.018250068666646 $460 46.018250068666646 $470 $646 forward 7 unknown #
point $-1 46.018250068666646 26.530819540152848 -10.688194932089836 #
coedge $-1 $471 $470 $463 $555 reversed $472 $-1 #
edge $-1 $556 -10.688194932089836 $644 10.688194932089836 $554 $647 forward 7 unknown #
vertex $-1 $474 $648 #
straight-curve $-1 -46.018250068666646 0 10.688194932089836 0 -1 0 I I #
plane-surface $-1 0 26.530819540152848 0 0 -1 0 0 0 -1 forward_v I I I I #
straight-curve $-1 0 26.530819540152848 10.688194932089836 -1 0 0 I I #
face $-1 $508 $649 $17 $-1 $650 reversed single #
loop $-1 $-1 $567 $476 #
plane-surface $-1 0 -26.530819540152848 0 0 1 0 0 0 1 forward_v I I I I #
coedge $-1 $479 $574 $480 $566 forward $395 $-1 #
edge $-1 $492 -2.7025383454776843 $570 0.29746165452231565 $489 $651 forward 7 unknown #
coedge $-1 $481 $480 $585 $652 reversed $320 $-1 #
edge $-1 $653 -46.018250068666646 $570 46.018250068666646 $563 $654 forward 7 unknown #
coedge $-1 $655 $656 $481 $568 forward $561 $-1 #
edge $-1 $571 -46.018250068666646 $657 46.018250068666646 $567 $658 forward 7 unknown #
coedge $-1 $589 $482 $656 $659 forward $477 $-1 #
vertex $-1 $483 $660 #
vertex $-1 $659 $661 #
straight-curve $-1 46.018250068666646 -9.8803928387213542 0.90507669095536869 0 -1 0 I I #
straight-curve $-1 0 -26.530819540152848 3.9050766909553687 1 0 0 I I #
coedge $-1 $563 $487 $498 $586 reversed $395 $-1 #
vertex $-1 $499 $662 #
straight-curve $-1 0 -12.990751814732569 3.9050766909553687 -1 0 0 I I #
point $-1 46.018250068666646 -26.530819540152848 3.9050766909553687 #
point $-1 46.018250068666646 -12.990751814732569 3.9050766909553687 #
coedge $-1 $663 $494 $504 $590 forward $502 $-1 #
coedge $-1 $494 $663 $496 $583 reversed $502 $-1 #
straight-curve $-1 0 26.530819540152848 10.688194932089836 -1 0 0 I I #
coedge $-1 $664 $496 $665 $666 reversed $241 $-1 #
edge $-1 $497 -10.688194932089836 $667 10.688194932089836 $580 $668 forward 7 unknown #
point $-1 -46.018250068666646 26.530819540152848 10.688194932089836 #
coedge $-1 $498 $664 $565 $652 forward $241 $-1 #
edge $-1 $653 -0.29746165452231565 $575 2.7025383454776843 $498 $669 forward 7 unknown #
straight-curve $-1 -46.018250068666646 -9.8803928387213542 3.9050766909553687 0 -1 0 I I #
point $-1 -46.018250068666646 -26.530819540152848 3.9050766909553687 #
coedge $-1 $504 $569 $670 $671 reversed $477 $-1 #
edge $-1 $505 -10.688194932089836 $672 10.688194932089836 $504 $673 forward 7 unknown #
point $-1 46.018250068666646 26.530819540152848 10.688194932089836 #
straight-curve $-1 46.018250068666646 -26.530819540152848 0 0 0 -1 I I #
face $-1 $674 $675 $18 $-1 $676 reversed single #
loop $-1 $-1 $677 $510 #
plane-surface $-1 0 -12.990751814732569 2.4050766909553687 0 -1 0 0 0 -1 forward_v I I I I #
coedge $-1 $678 $679 $680 $681 reversed $511 $-1 #
coedge $-1 $682 $513 $683 $684 reversed $422 $-1 #
coedge $-1 $513 $682 $685 $686 reversed $422 $-1 #
coedge $-1 $687 $688 $513 $600 forward $675 $-1 #
edge $-1 $689 -16.650426701431492 $690 -3.1103589760112147 $599 $691 forward 7 unknown #
coedge $-1 $514 $526 $692 $693 forward $341 $-1 #
coedge $-1 $694 $515 $514 $603 reversed $435 $-1 #
edge $-1 $695 -26.530819540152848 $518 -3.4661499724272105 $602 $530 forward 7 unknown #
vertex $-1 $522 $696 #
straight-curve $-1 -46.018250068666646 3.4661499724272105 29.068740073949531 0 0 1 I I #
straight-curve $-1 -46.01825006866666 3.4661499724272105 0.21703483114668387 0.62932038083071107 0 0.77714596973225614 I I #
point $-1 -46.018250068666646 3.4661499724272105 10.688194932089836 #
point $-1 -37.538872037876388 3.4661499724272105 10.688194932089836 #
straight-curve $-1 -46.018250068666646 -0.64556551899544701 0.21703483114669975 0 1 0 I I #
coedge $-1 $524 $697 $682 $698 forward $435 $-1 #
coedge $-1 $683 $527 $524 $612 forward $618 $-1 #
edge $-1 $529 -10.688194932089836 $699 -3.9050766909553687 $524 $700 forward 7 unknown #
face $-1 $-1 $701 $18 $-1 $702 reversed single #
plane-surface $-1 -46.018250068666646 0 0 1 0 0 0 0 -1 forward_v I I I I #
coedge $-1 $688 $703 $526 $616 reversed $675 $-1 #
edge $-1 $619 -26.530819540152848 $704 26.530819540152848 $615 $705 forward 7 unknown #
coedge $-1 $527 $683 $688 $706 reversed $618 $-1 #
loop $-1 $-1 $683 $707 #
vertex $-1 $616 $708 #
straight-curve $-1 0 -26.530819540152848 10.688194932089836 1 0 0 I I #
point $-1 -46.018250068666646 -26.530819540152848 10.688194932089836 #
face $-1 $709 $710 $19 $-1 $711 forward single #
loop $-1 $-1 $712 $531 #
plane-surface $-1 0 -19.760785677442708 3.9050766909553687 0 0 1 1 0 0 forward_v I I I I #
coedge $-1 $540 $713 $534 $628 forward $532 $-1 #
coedge $-1 $627 $534 $714 $715 reversed $443 $-1 #
coedge $-1 $534 $626 $546 $641 forward $443 $-1 #
edge $-1 $716 12.753772540662084 $642 21.233150571452342 $625 $717 forward 7 unknown #
coedge $-1 $535 $546 $632 $718 reversed $365 $-1 #
vertex $-1 $718 $719 #
straight-curve $-1 -46.01825006866666 -6.0484120484089985 0.21703483114668387 -0.62932038083071107 0 -0.77714596973225614 I I #
coedge $-1 $714 $537 $629 $718 forward $634 $-1 #
coedge $-1 $537 $720 $539 $637 reversed $634 $-1 #
loop $-1 $-1 $714 $721 #
straight-curve $-1 -46.018250068666646 -6.0484120484089985 29.068740073949531 0 0 -1 I I #
coedge $-1 $722 $539 $723 $724 forward $532 $-1 #
edge $-1 $542 6.0484120484089985 $725 26.530819540152848 $633 $726 forward 7 unknown #
point $-1 -37.538872037876388 -6.0484120484089985 10.688194932089836 #
point $-1 -46.018250068666646 -6.0484120484089985 10.688194932089836 #
point $-1 -39.303064041314222 -3.3299657567415117 3.4479969810107702 #
edge $-1 $727 2.2575505016944882e-014 $642 13.473865282413673 $627 $728 forward 7 unknown #
vertex $-1 $547 $729 #
straight-curve $-1 -37.538872037876395 -0.64556551899544701 10.688194932089836 0 -1 0 I I #
vertex $-1 $552 $730 #
straight-curve $-1 -46.018250068666646 0 -10.688194932089836 0 1 0 I I #
straight-curve $-1 0 26.530819540152848 -10.688194932089836 1 0 0 I I #
straight-curve $-1 -46.018250068666646 26.530819540152848 0 0 0 -1 I I #
point $-1 -46.018250068666646 26.530819540152848 10.688194932089836 #
loop $-1 $-1 $670 $560 #
plane-surface $-1 0 0 -10.688194932089836 0 0 1 1 0 0 forward_v I I I I #
straight-curve $-1 46.018250068666646 -12.990751814732569 1.2025383454776843 0 0 -1 I I #
edge $-1 $657 -16.650426701431492 $653 -3.1103589760112147 $585 $731 forward 7 unknown #
vertex $-1 $652 $732 #
straight-curve $-1 0 -12.990751814732569 0.90507669095536869 1 0 0 I I #
coedge $-1 $733 $567 $664 $734 forward $561 $-1 #
coedge $-1 $567 $733 $569 $659 reversed $561 $-1 #
vertex $-1 $734 $735 #
straight-curve $-1 0 -26.530819540152848 0.90507669095536869 -1 0 0 I I #
edge $-1 $571 -0.90507669095536869 $736 10.688194932089836 $569 $592 forward 7 unknown #
point $-1 46.018250068666646 -12.990751814732569 0.90507669095536869 #
point $-1 46.018250068666646 -26.530819540152848 0.90507669095536869 #
point $-1 -46.018250068666646 -12.990751814732569 3.9050766909553687 #
coedge $-1 $580 $579 $737 $738 reversed $502 $-1 #
coedge $-1 $585 $582 $655 $734 reversed $241 $-1 #
coedge $-1 $737 $739 $582 $666 forward $649 $-1 #
edge $-1 $740 -26.530819540152848 $667 26.530819540152848 $582 $741 forward 7 unknown #
vertex $-1 $738 $742 #
straight-curve $-1 -46.018250068666646 26.530819540152848 0 0 0 -1 I I #
straight-curve $-1 -46.018250068666646 -12.990751814732569 1.2025383454776843 0 0 1 I I #
coedge $-1 $739 $737 $589 $671 forward $649 $-1 #
edge $-1 $672 -26.530819540152848 $736 26.530819540152848 $589 $743 forward 7 unknown #
vertex $-1 $671 $744 #
straight-curve $-1 46.018250068666646 26.530819540152848 0 0 0 -1 I I #
face $-1 $745 $746 $18 $-1 $747 reversed single #
loop $-1 $-1 $599 $593 #
plane-surface $-1 46.018250068666646 0 0 -1 0 0 0 0 1 forward_v I I I I #
coedge $-1 $685 $748 $687 $749 reversed $594 $-1 #
coedge $-1 $750 $596 $748 $751 reversed $511 $-1 #
coedge $-1 $596 $750 $752 $753 reversed $511 $-1 #
coedge $-1 $754 $687 $596 $681 forward $675 $-1 #
edge $-1 $755 3.1103589760112147 $756 16.650426701431492 $680 $757 forward 7 unknown #
coedge $-1 $598 $597 $610 $698 reversed $422 $-1 #
coedge $-1 $617 $611 $597 $684 forward $618 $-1 #
edge $-1 $699 -46.018250068666646 $689 46.018250068666646 $683 $758 forward 7 unknown #
coedge $-1 $759 $677 $598 $686 forward $594 $-1 #
edge $-1 $690 -46.018250068666646 $760 46.018250068666646 $685 $761 forward 7 unknown #
coedge $-1 $680 $599 $677 $749 forward $675 $-1 #
coedge $-1 $599 $615 $617 $706 forward $675 $-1 #
vertex $-1 $684 $762 #
vertex $-1 $600 $763 #
straight-curve $-1 46.018250068666646 -9.8803928387213542 3.9050766909553687 0 1 0 I I #
coedge $-1 $764 $765 $601 $693 reversed $701 $-1 #
edge $-1 $704 -46.018250068666646 $695 46.018250068666646 $692 $766 forward 7 unknown #
coedge $-1 $767 $602 $765 $768 forward $435 $-1 #
vertex $-1 $693 $769 #
point $-1 -46.018250068666646 3.4661499724272105 0.21703483114670141 #
coedge $-1 $610 $770 $759 $771 forward $435 $-1 #
edge $-1 $760 3.1103589760112147 $699 16.650426701431492 $610 $772 forward 7 unknown #
vertex $-1 $698 $773 #
straight-curve $-1 -46.018250068666646 -26.530819540152848 0 0 0 -1 I I #
loop $-1 $-1 $764 $613 #
plane-surface $-1 0 26.530819540152848 0 0 -1 0 0 0 -1 forward_v I I I I #
coedge $-1 $615 $774 $764 $775 reversed $675 $-1 #
vertex $-1 $616 $776 #
straight-curve $-1 46.018250068666646 0 10.688194932089836 0 1 0 I I #
edge $-1 $619 -10.688194932089836 $689 -3.9050766909553687 $688 $777 forward 7 unknown #
face $-1 $525 $618 $18 $-1 $747 reversed single #
point $-1 46.018250068666646 -26.530819540152848 10.688194932089836 #
face $-1 $778 $779 $19 $-1 $780 forward single #
loop $-1 $-1 $781 $622 #
plane-surface $-1 0 -19.760785677442708 0.90507669095536869 0 0 1 1 0 0 forward_v I I I I #
coedge $-1 $782 $783 $784 $785 reversed $623 $-1 #
coedge $-1 $625 $786 $787 $788 forward $532 $-1 #
coedge $-1 $787 $632 $626 $715 forward $634 $-1 #
edge $-1 $727 -28.851705242802829 $716 -18.380545141859695 $714 $789 forward 7 unknown #
vertex $-1 $715 $790 #
straight-curve $-1 -58.772022609328729 3.4661499724272105 10.688194932089836 1 0 0 I I #
edge $-1 $630 -5.4028465294135515 $727 4.1117154914226575 $632 $791 forward 7 unknown #
point $-1 -46.018250068666646 -6.0484120484089985 0.21703483114670141 #
coedge $-1 $633 $792 $793 $794 reversed $634 $-1 #
face $-1 $795 $634 $19 $-1 $796 reversed single #
coedge $-1 $786 $636 $797 $798 forward $532 $-1 #
coedge $-1 $793 $799 $636 $724 reversed $800 $-1 #
edge $-1 $725 -46.018250068666646 $801 46.018250068666646 $723 $802 forward 7 unknown #
vertex $-1 $637 $803 #
straight-curve $-1 -46.018250068666646 0 10.688194932089836 0 -1 0 I I #
vertex $-1 $718 $804 #
straight-curve $-1 -46.01825006866666 3.4661499724272105 0.21703483114668387 0.62932038083071107 0 0.77714596973225614 I I #
point $-1 -37.538872037876388 3.4661499724272105 10.688194932089836 #
point $-1 -46.018250068666646 26.530819540152848 -10.688194932089836 #
straight-curve $-1 -46.018250068666646 -9.8803928387213542 0.90507669095536869 0 1 0 I I #
point $-1 -46.018250068666646 -12.990751814732569 0.90507669095536869 #
coedge $-1 $656 $655 $739 $805 reversed $561 $-1 #
edge $-1 $657 -0.90507669095536869 $740 10.688194932089836 $664 $501 forward 7 unknown #
point $-1 -46.018250068666646 -26.530819540152848 0.90507669095536869 #
vertex $-1 $659 $806 #
coedge $-1 $670 $665 $663 $738 forward $649 $-1 #
edge $-1 $667 -46.018250068666646 $672 46.018250068666646 $663 $807 forward 7 unknown #
coedge $-1 $665 $670 $733 $805 forward $649 $-1 #
vertex $-1 $666 $808 #
straight-curve $-1 -46.018250068666646 0 -10.688194932089836 0 1 0 I I #
point $-1 -46.018250068666646 26.530819540152848 -10.688194932089836 #
straight-curve $-1 46.018250068666646 0 -10.688194932089836 0 -1 0 I I #
point $-1 46.018250068666646 26.530819540152848 -10.688194932089836 #
face $-1 $707 $809 $18 $-1 $810 reversed single #
loop $-1 $-1 $752 $674 #
plane-surface $-1 0 -26.530819540152848 0 0 1 0 0 0 1 forward_v I I I I #
coedge $-1 $677 $759 $678 $751 forward $594 $-1 #
edge $-1 $690 -2.7025383454776843 $755 0.29746165452231565 $687 $811 forward 7 unknown #
coedge $-1 $679 $678 $770 $812 reversed $511 $-1 #
edge $-1 $813 -46.018250068666646 $755 46.018250068666646 $748 $814 forward 7 unknown #
coedge $-1 $815 $816 $679 $753 forward $746 $-1 #
edge $-1 $756 -46.018250068666646 $817 46.018250068666646 $752 $818 forward 7 unknown #
coedge $-1 $774 $680 $816 $819 forward $675 $-1 #
vertex $-1 $681 $820 #
vertex $-1 $819 $821 #
straight-curve $-1 46.018250068666646 -9.8803928387213542 0.90507669095536869 0 -1 0 I I #
straight-curve $-1 0 -26.530819540152848 3.9050766909553687 1 0 0 I I #
coedge $-1 $748 $685 $697 $771 reversed $594 $-1 #
vertex $-1 $698 $822 #
straight-curve $-1 0 -12.990751814732569 3.9050766909553687 -1 0 0 I I #
point $-1 46.018250068666646 -26.530819540152848 3.9050766909553687 #
point $-1 46.018250068666646 -12.990751814732569 3.9050766909553687 #
coedge $-1 $823 $692 $703 $775 forward $701 $-1 #
coedge $-1 $692 $823 $694 $768 reversed $701 $-1 #
straight-curve $-1 0 26.530819540152848 10.688194932089836 -1 0 0 I I #
coedge $-1 $824 $694 $825 $826 reversed $435 $-1 #
edge $-1 $695 -10.688194932089836 $827 10.688194932089836 $765 $828 forward 7 unknown #
point $-1 -46.018250068666646 26.530819540152848 10.688194932089836 #
coedge $-1 $697 $824 $750 $812 forward $435 $-1 #
edge $-1 $813 -0.29746165452231565 $760 2.7025383454776843 $697 $829 forward 7 unknown #
straight-curve $-1 -46.018250068666646 -9.8803928387213542 3.9050766909553687 0 -1 0 I I #
point $-1 -46.018250068666646 -26.530819540152848 3.9050766909553687 #
coedge $-1 $703 $754 $830 $831 reversed $675 $-1 #
edge $-1 $704 -10.688194932089836 $832 10.688194932089836 $703 $833 forward 7 unknown #
point $-1 46.018250068666646 26.530819540152848 10.688194932089836 #
straight-curve $-1 46.018250068666646 -26.530819540152848 0 0 0 -1 I I #
face $-1 $834 $835 $19 $-1 $836 reversed single #
loop $-1 $-1 $837 $709 #
plane-surface $-1 0 -12.990751814732569 2.4050766909553687 0 -1 0 0 0 -1 forward_v I I I I #
coedge $-1 $838 $839 $840 $841 reversed $710 $-1 #
coedge $-1 $842 $712 $843 $844 reversed $623 $-1 #
coedge $-1 $712 $842 $845 $846 reversed $623 $-1 #
coedge $-1 $847 $848 $712 $785 forward $835 $-1 #
edge $-1 $849 -16.650426701431492 $850 -3.1103589760112147 $784 $851 forward 7 unknown #
coedge $-1 $713 $722 $852 $853 forward $532 $-1 #
coedge $-1 $854 $714 $713 $788 reversed $634 $-1 #
edge $-1 $855 -26.530819540152848 $716 -3.4661499724272105 $787 $726 forward 7 unknown #
straight-curve $-1 -46.018250068666646 3.4661499724272105 29.068740073949531 0 0 1 I I #
point $-1 -46.018250068666646 3.4661499724272105 10.688194932089836 #
straight-curve $-1 -46.018250068666646 -0.64556551899544701 0.21703483114669975 0 1 0 I I #
coedge $-1 $720 $856 $842 $857 forward $634 $-1 #
coedge $-1 $843 $723 $720 $794 forward $800 $-1 #
edge $-1 $725 -10.688194932089836 $858 -3.9050766909553687 $720 $859 forward 7 unknown #
face $-1 $-1 $860 $19 $-1 $861 reversed single #
plane-surface $-1 -46.018250068666646 0 0 1 0 0 0 0 -1 forward_v I I I I #
coedge $-1 $848 $862 $722 $798 reversed $835 $-1 #
edge $-1 $801 -26.530819540152848 $863 26.530819540152848 $797 $864 forward 7 unknown #
coedge $-1 $723 $843 $848 $865 reversed $800 $-1 #
loop $-1 $-1 $843 $866 #
vertex $-1 $798 $867 #
straight-curve $-1 0 -26.530819540152848 10.688194932089836 1 0 0 I I #
point $-1 -46.018250068666646 -26.530819540152848 10.688194932089836 #
point $-1 -46.018250068666646 3.4661499724272105 0.21703483114670141 #
edge $-1 $736 -46.018250068666646 $740 46.018250068666646 $733 $868 forward 7 unknown #
point $-1 46.018250068666646 -26.530819540152848 -10.688194932089836 #
straight-curve $-1 0 26.530819540152848 -10.688194932089836 1 0 0 I I #
point $-1 -46.018250068666646 -26.530819540152848 -10.688194932089836 #
loop $-1 $-1 $830 $745 #
plane-surface $-1 0 0 -10.688194932089836 0 0 1 1 0 0 forward_v I I I I #
straight-curve $-1 46.018250068666646 -12.990751814732569 1.2025383454776843 0 0 -1 I I #
edge $-1 $817 -16.650426701431492 $813 -3.1103589760112147 $770 $869 forward 7 unknown #
vertex $-1 $812 $870 #
straight-curve $-1 0 -12.990751814732569 0.90507669095536869 1 0 0 I I #
coedge $-1 $871 $752 $824 $872 forward $746 $-1 #
coedge $-1 $752 $871 $754 $819 reversed $746 $-1 #
vertex $-1 $872 $873 #
straight-curve $-1 0 -26.530819540152848 0.90507669095536869 -1 0 0 I I #
edge $-1 $756 -0.90507669095536869 $874 10.688194932089836 $754 $777 forward 7 unknown #
point $-1 46.018250068666646 -12.990751814732569 0.90507669095536869 #
point $-1 46.018250068666646 -26.530819540152848 0.90507669095536869 #
point $-1 -46.018250068666646 -12.990751814732569 3.9050766909553687 #
coedge $-1 $765 $764 $875 $876 reversed $701 $-1 #
coedge $-1 $770 $767 $815 $872 reversed $435 $-1 #
coedge $-1 $875 $877 $767 $826 forward $809 $-1 #
edge $-1 $878 -26.530819540152848 $827 26.530819540152848 $767 $879 forward 7 unknown #
vertex $-1 $876 $880 #
straight-curve $-1 -46.018250068666646 26.530819540152848 0 0 0 -1 I I #
straight-curve $-1 -46.018250068666646 -12.990751814732569 1.2025383454776843 0 0 1 I I #
coedge $-1 $877 $875 $774 $831 forward $809 $-1 #
edge $-1 $832 -26.530819540152848 $874 26.530819540152848 $774 $881 forward 7 unknown #
vertex $-1 $831 $882 #
straight-curve $-1 46.018250068666646 26.530819540152848 0 0 0 -1 I I #
face $-1 $883 $884 $19 $-1 $885 reversed single #
loop $-1 $-1 $784 $778 #
plane-surface $-1 46.018250068666646 0 0 -1 0 0 0 0 1 forward_v I I I I #
coedge $-1 $845 $886 $847 $887 reversed $779 $-1 #
coedge $-1 $888 $781 $886 $889 reversed $710 $-1 #
coedge $-1 $781 $888 $890 $891 reversed $710 $-1 #
coedge $-1 $892 $847 $781 $841 forward $835 $-1 #
edge $-1 $893 3.1103589760112147 $894 16.650426701431492 $840 $895 forward 7 unknown #
coedge $-1 $783 $782 $792 $857 reversed $623 $-1 #
coedge $-1 $799 $793 $782 $844 forward $800 $-1 #
edge $-1 $858 -46.018250068666646 $849 46.018250068666646 $843 $896 forward 7 unknown #
coedge $-1 $897 $837 $783 $846 forward $779 $-1 #
edge $-1 $850 -46.018250068666646 $898 46.018250068666646 $845 $899 forward 7 unknown #
coedge $-1 $840 $784 $837 $887 forward $835 $-1 #
coedge $-1 $784 $797 $799 $865 forward $835 $-1 #
vertex $-1 $844 $900 #
vertex $-1 $785 $901 #
straight-curve $-1 46.018250068666646 -9.8803928387213542 3.9050766909553687 0 1 0 I I #
coedge $-1 $902 $903 $786 $853 reversed $860 $-1 #
edge $-1 $863 -46.018250068666646 $855 46.018250068666646 $852 $904 forward 7 unknown #
coedge $-1 $905 $787 $903 $906 forward $634 $-1 #
vertex $-1 $853 $907 #
coedge $-1 $792 $908 $897 $909 forward $634 $-1 #
edge $-1 $898 3.1103589760112147 $858 16.650426701431492 $792 $910 forward 7 unknown #
vertex $-1 $857 $911 #
straight-curve $-1 -46.018250068666646 -26.530819540152848 0 0 0 -1 I I #
loop $-1 $-1 $902 $795 #
plane-surface $-1 0 26.530819540152848 0 0 -1 0 0 0 -1 forward_v I I I I #
coedge $-1 $797 $912 $902 $913 reversed $835 $-1 #
vertex $-1 $798 $914 #
straight-curve $-1 46.018250068666646 0 10.688194932089836 0 1 0 I I #
edge $-1 $801 -10.688194932089836 $849 -3.9050766909553687 $848 $915 forward 7 unknown #
face $-1 $721 $800 $19 $-1 $885 reversed single #
point $-1 46.018250068666646 -26.530819540152848 10.688194932089836 #
straight-curve $-1 0 -26.530819540152848 -10.688194932089836 -1 0 0 I I #
straight-curve $-1 -46.018250068666646 -9.8803928387213542 0.90507669095536869 0 1 0 I I #
point $-1 -46.018250068666646 -12.990751814732569 0.90507669095536869 #
coedge $-1 $816 $815 $877 $916 reversed $746 $-1 #
edge $-1 $817 -0.90507669095536869 $878 10.688194932089836 $824 $700 forward 7 unknown #
point $-1 -46.018250068666646 -26.530819540152848 0.90507669095536869 #
vertex $-1 $819 $917 #
coedge $-1 $830 $825 $823 $876 forward $809 $-1 #
edge $-1 $827 -46.018250068666646 $832 46.018250068666646 $823 $918 forward 7 unknown #
coedge $-1 $825 $830 $871 $916 forward $809 $-1 #
vertex $-1 $826 $919 #
straight-curve $-1 -46.018250068666646 0 -10.688194932089836 0 1 0 I I #
point $-1 -46.018250068666646 26.530819540152848 -10.688194932089836 #
straight-curve $-1 46.018250068666646 0 -10.688194932089836 0 -1 0 I I #
point $-1 46.018250068666646 26.530819540152848 -10.688194932089836 #
face $-1 $866 $920 $19 $-1 $921 reversed single #
loop $-1 $-1 $890 $834 #
plane-surface $-1 0 -26.530819540152848 0 0 1 0 0 0 1 forward_v I I I I #
coedge $-1 $837 $897 $838 $889 forward $779 $-1 #
edge $-1 $850 -2.7025383454776843 $893 0.29746165452231565 $847 $922 forward 7 unknown #
coedge $-1 $839 $838 $908 $923 reversed $710 $-1 #
edge $-1 $924 -46.018250068666646 $893 46.018250068666646 $886 $925 forward 7 unknown #
coedge $-1 $926 $927 $839 $891 forward $884 $-1 #
edge $-1 $894 -46.018250068666646 $928 46.018250068666646 $890 $929 forward 7 unknown #
coedge $-1 $912 $840 $927 $930 forward $835 $-1 #
vertex $-1 $841 $931 #
vertex $-1 $930 $932 #
straight-curve $-1 46.018250068666646 -9.8803928387213542 0.90507669095536869 0 -1 0 I I #
straight-curve $-1 0 -26.530819540152848 3.9050766909553687 1 0 0 I I #
coedge $-1 $886 $845 $856 $909 reversed $779 $-1 #
vertex $-1 $857 $933 #
straight-curve $-1 0 -12.990751814732569 3.9050766909553687 -1 0 0 I I #
point $-1 46.018250068666646 -26.530819540152848 3.9050766909553687 #
point $-1 46.018250068666646 -12.990751814732569 3.9050766909553687 #
coedge $-1 $934 $852 $862 $913 forward $860 $-1 #
coedge $-1 $852 $934 $854 $906 reversed $860 $-1 #
straight-curve $-1 0 26.530819540152848 10.688194932089836 -1 0 0 I I #
coedge $-1 $935 $854 $936 $937 reversed $634 $-1 #
edge $-1 $855 -10.688194932089836 $938 10.688194932089836 $903 $939 forward 7 unknown #
point $-1 -46.018250068666646 26.530819540152848 10.688194932089836 #
coedge $-1 $856 $935 $888 $923 forward $634 $-1 #
edge $-1 $924 -0.29746165452231565 $898 2.7025383454776843 $856 $940 forward 7 unknown #
straight-curve $-1 -46.018250068666646 -9.8803928387213542 3.9050766909553687 0 -1 0 I I #
point $-1 -46.018250068666646 -26.530819540152848 3.9050766909553687 #
coedge $-1 $862 $892 $941 $942 reversed $835 $-1 #
edge $-1 $863 -10.688194932089836 $943 10.688194932089836 $862 $944 forward 7 unknown #
point $-1 46.018250068666646 26.530819540152848 10.688194932089836 #
straight-curve $-1 46.018250068666646 -26.530819540152848 0 0 0 -1 I I #
edge $-1 $874 -46.018250068666646 $878 46.018250068666646 $871 $945 forward 7 unknown #
point $-1 46.018250068666646 -26.530819540152848 -10.688194932089836 #
straight-curve $-1 0 26.530819540152848 -10.688194932089836 1 0 0 I I #
point $-1 -46.018250068666646 -26.530819540152848 -10.688194932089836 #
loop $-1 $-1 $941 $883 #
plane-surface $-1 0 0 -10.688194932089836 0 0 1 1 0 0 forward_v I I I I #
straight-curve $-1 46.018250068666646 -12.990751814732569 1.2025383454776843 0 0 -1 I I #
edge $-1 $928 -16.650426701431492 $924 -3.1103589760112147 $908 $946 forward 7 unknown #
vertex $-1 $923 $947 #
straight-curve $-1 0 -12.990751814732569 0.90507669095536869 1 0 0 I I #
coedge $-1 $948 $890 $935 $949 forward $884 $-1 #
coedge $-1 $890 $948 $892 $930 reversed $884 $-1 #
vertex $-1 $949 $950 #
straight-curve $-1 0 -26.530819540152848 0.90507669095536869 -1 0 0 I I #
edge $-1 $894 -0.90507669095536869 $951 10.688194932089836 $892 $915 forward 7 unknown #
point $-1 46.018250068666646 -12.990751814732569 0.90507669095536869 #
point $-1 46.018250068666646 -26.530819540152848 0.90507669095536869 #
point $-1 -46.018250068666646 -12.990751814732569 3.9050766909553687 #
coedge $-1 $903 $902 $952 $953 reversed $860 $-1 #
coedge $-1 $908 $905 $926 $949 reversed $634 $-1 #
coedge $-1 $952 $954 $905 $937 forward $920 $-1 #
edge $-1 $955 -26.530819540152848 $938 26.530819540152848 $905 $956 forward 7 unknown #
vertex $-1 $953 $957 #
straight-curve $-1 -46.018250068666646 26.530819540152848 0 0 0 -1 I I #
straight-curve $-1 -46.018250068666646 -12.990751814732569 1.2025383454776843 0 0 1 I I #
coedge $-1 $954 $952 $912 $942 forward $920 $-1 #
edge $-1 $943 -26.530819540152848 $951 26.530819540152848 $912 $958 forward 7 unknown #
vertex $-1 $942 $959 #
straight-curve $-1 46.018250068666646 26.530819540152848 0 0 0 -1 I I #
straight-curve $-1 0 -26.530819540152848 -10.688194932089836 -1 0 0 I I #
straight-curve $-1 -46.018250068666646 -9.8803928387213542 0.90507669095536869 0 1 0 I I #
point $-1 -46.018250068666646 -12.990751814732569 0.90507669095536869 #
coedge $-1 $927 $926 $954 $960 reversed $884 $-1 #
edge $-1 $928 -0.90507669095536869 $955 10.688194932089836 $935 $859 forward 7 unknown #
point $-1 -46.018250068666646 -26.530819540152848 0.90507669095536869 #
vertex $-1 $930 $961 #
coedge $-1 $941 $936 $934 $953 forward $920 $-1 #
edge $-1 $938 -46.018250068666646 $943 46.018250068666646 $934 $962 forward 7 unknown #
coedge $-1 $936 $941 $948 $960 forward $920 $-1 #
vertex $-1 $937 $963 #
straight-curve $-1 -46.018250068666646 0 -10.688194932089836 0 1 0 I I #
point $-1 -46.018250068666646 26.530819540152848 -10.688194932089836 #
straight-curve $-1 46.018250068666646 0 -10.688194932089836 0 -1 0 I I #
point $-1 46.018250068666646 26.530819540152848 -10.688194932089836 #
edge $-1 $951 -46.018250068666646 $955 46.018250068666646 $948 $964 forward 7 unknown #
point $-1 46.018250068666646 -26.530819540152848 -10.688194932089836 #
straight-curve $-1 0 26.530819540152848 -10.688194932089836 1 0 0 I I #
point $-1 -46.018250068666646 -26.530819540152848 -10.688194932089836 #
straight-curve $-1 0 -26.530819540152848 -10.688194932089836 -1 0 0 I I #
End-of-ACIS-data 