500 0 2 0           
7 Unknown 11 ACIS 5.0 NT 24 Thu Mar 25 17:26:29 1999 
-1 9.9999999999999995e-007 1e-010 
body $-1 $2 $-1 $3 #
body $-1 $4 $-1 $5 #
lump $-1 $-1 $6 $0 #
transform $-1 1 0 0 0 1 0 0 0 1 50.2249214148381 31.604285093791429 12.917854875016266 1 rotate no_reflect no_shear #
lump $-1 $-1 $7 $1 #
transform $-1 1 0 0 0 1 0 0 0 1 50.2249214148381 31.604285093791429 12.917854875016266 1 rotate no_reflect no_shear #
shell $-1 $-1 $-1 $8 $-1 $2 #
shell $-1 $-1 $-1 $9 $-1 $4 #
face $-1 $10 $11 $6 $-1 $12 forward single #
face $-1 $13 $14 $7 $-1 $15 reversed single #
face $-1 $16 $17 $6 $-1 $18 reversed single #
loop $-1 $-1 $19 $8 #
plane-surface $-1 0 0 12.917854875016266 0 0 1 1 0 0 forward_v I I I I #
face $-1 $20 $21 $7 $-1 $22 reversed single #
loop $-1 $-1 $23 $9 #
plane-surface $-1 -58.629194928604903 -9.4509544216597394 0 0 1 0 0 0 1 forward_v I I I I #
face $-1 $24 $25 $6 $-1 $26 reversed single #
loop $-1 $-1 $27 $10 #
plane-surface $-1 0 0 -12.917854875016266 0 0 1 1 0 0 forward_v I I I I #
coedge $-1 $28 $29 $30 $31 forward $11 $-1 #
face $-1 $32 $33 $7 $-1 $34 reversed single #
loop $-1 $-1 $35 $13 #
plane-surface $-1 -67.033468442371699 -7.6097648827093174 0 1 0 0 0 0 -1 forward_v I I I I #
coedge $-1 $36 $37 $38 $39 forward $14 $-1 #
face $-1 $40 $41 $6 $-1 $42 reversed single #
loop $-1 $-1 $43 $16 #
plane-surface $-1 0 -31.604285093791429 0 0 1 0 0 0 1 forward_v I I I I #
coedge $-1 $44 $45 $46 $47 forward $17 $-1 #
coedge $-1 $48 $19 $49 $50 forward $11 $-1 #
coedge $-1 $19 $48 $51 $52 forward $11 $-1 #
coedge $-1 $53 $54 $19 $31 reversed $55 $-1 #
edge $-1 $56 -31.604285093791429 $57 31.604285093791429 $30 $58 forward 7 unknown #
face $-1 $59 $60 $7 $-1 $61 reversed single #
loop $-1 $-1 $62 $20 #
plane-surface $-1 -58.629194928604903 -5.7685753437588954 0 0 -1 0 0 0 -1 forward_v I I I I #
coedge $-1 $63 $64 $65 $66 forward $21 $-1 #
coedge $-1 $67 $23 $68 $69 reversed $14 $-1 #
coedge $-1 $23 $67 $70 $71 reversed $14 $-1 #
coedge $-1 $64 $63 $23 $39 reversed $21 $-1 #
edge $-1 $72 -12.917854875016266 $73 12.917854875016266 $38 $74 forward 7 unknown #
face $-1 $75 $76 $6 $-1 $77 reversed single #
loop $-1 $-1 $78 $24 #
plane-surface $-1 -50.2249214148381 0 0 1 0 0 0 0 -1 forward_v I I I I #
coedge $-1 $79 $51 $80 $81 forward $25 $-1 #
coedge $-1 $82 $27 $79 $83 forward $17 $-1 #
coedge $-1 $27 $82 $84 $85 forward $17 $-1 #
coedge $-1 $54 $53 $27 $47 reversed $55 $-1 #
edge $-1 $86 -31.604285093791429 $87 31.604285093791429 $46 $88 forward 7 unknown #
coedge $-1 $29 $28 $89 $90 forward $11 $-1 #
coedge $-1 $91 $92 $28 $50 reversed $76 $-1 #
edge $-1 $57 -50.2249214148381 $93 50.2249214148381 $49 $94 forward 7 unknown #
coedge $-1 $43 $95 $29 $52 reversed $25 $-1 #
edge $-1 $96 -50.2249214148381 $56 50.2249214148381 $51 $97 forward 7 unknown #
coedge $-1 $46 $30 $95 $98 forward $55 $-1 #
coedge $-1 $30 $46 $91 $99 reversed $55 $-1 #
loop $-1 $-1 $53 $75 #
vertex $-1 $31 $100 #
vertex $-1 $31 $101 #
straight-curve $-1 50.2249214148381 0 12.917854875016266 0 1 0 I I #
face $-1 $102 $103 $7 $-1 $61 reversed single #
loop $-1 $-1 $104 $32 #
plane-surface $-1 -50.2249214148381 0 0 1 0 0 0 0 -1 forward_v I I I I #
coedge $-1 $105 $106 $104 $107 reversed $33 $-1 #
coedge $-1 $38 $35 $108 $109 reversed $21 $-1 #
coedge $-1 $35 $38 $110 $111 reversed $21 $-1 #
coedge $-1 $106 $105 $35 $66 reversed $33 $-1 #
edge $-1 $112 -12.917854875016266 $113 12.917854875016266 $65 $114 forward 7 unknown #
coedge $-1 $37 $36 $115 $116 reversed $14 $-1 #
coedge $-1 $108 $117 $36 $69 forward $118 $-1 #
edge $-1 $119 -8.4042735137668032 $73 8.4042735137667961 $36 $120 forward 7 unknown #
coedge $-1 $121 $110 $37 $71 forward $122 $-1 #
edge $-1 $72 -8.4042735137667961 $123 8.4042735137668032 $37 $124 forward 7 unknown #
vertex $-1 $111 $125 #
vertex $-1 $109 $126 #
straight-curve $-1 -67.033468442371699 -9.4509544216597394 0 0 0 -1 I I #
face $-1 $-1 $55 $6 $-1 $127 reversed single #
loop $-1 $-1 $91 $40 #
plane-surface $-1 0 31.604285093791429 0 0 -1 0 0 0 -1 forward_v I I I I #
coedge $-1 $128 $89 $92 $129 forward $41 $-1 #
coedge $-1 $95 $43 $44 $83 reversed $25 $-1 #
coedge $-1 $89 $128 $43 $81 reversed $41 $-1 #
edge $-1 $96 -12.917854875016266 $130 12.917854875016266 $80 $131 forward 7 unknown #
coedge $-1 $45 $44 $128 $132 forward $17 $-1 #
edge $-1 $87 -50.2249214148381 $130 50.2249214148381 $79 $133 forward 7 unknown #
coedge $-1 $92 $91 $45 $85 reversed $76 $-1 #
edge $-1 $134 -50.2249214148381 $86 50.2249214148381 $84 $135 forward 7 unknown #
vertex $-1 $47 $136 #
vertex $-1 $98 $137 #
straight-curve $-1 50.2249214148381 0 -12.917854875016266 0 -1 0 I I #
coedge $-1 $78 $80 $48 $90 reversed $41 $-1 #
edge $-1 $93 -31.604285093791429 $96 31.604285093791429 $89 $138 forward 7 unknown #
coedge $-1 $84 $49 $54 $99 forward $76 $-1 #
coedge $-1 $49 $84 $78 $129 reversed $76 $-1 #
vertex $-1 $50 $139 #
straight-curve $-1 0 31.604285093791429 12.917854875016266 -1 0 0 I I #
coedge $-1 $51 $79 $53 $98 reversed $25 $-1 #
vertex $-1 $90 $140 #
straight-curve $-1 0 -31.604285093791429 12.917854875016266 1 0 0 I I #
edge $-1 $56 -12.917854875016266 $87 12.917854875016266 $53 $141 forward 7 unknown #
edge $-1 $57 -12.917854875016266 $86 12.917854875016266 $54 $142 forward 7 unknown #
point $-1 50.2249214148381 -31.604285093791429 12.917854875016266 #
point $-1 50.2249214148381 31.604285093791429 12.917854875016266 #
face $-1 $143 $122 $7 $-1 $144 forward single #
loop $-1 $-1 $115 $59 #
coedge $-1 $145 $146 $62 $107 forward $60 $-1 #
coedge $-1 $65 $62 $147 $148 reversed $33 $-1 #
coedge $-1 $62 $65 $149 $150 reversed $33 $-1 #
edge $-1 $151 -12.917854875016266 $152 12.917854875016266 $104 $153 forward 7 unknown #
coedge $-1 $147 $68 $63 $109 forward $118 $-1 #
edge $-1 $73 -1.841189538950422 $113 1.841189538950422 $63 $154 forward 7 unknown #
coedge $-1 $70 $149 $64 $111 forward $122 $-1 #
edge $-1 $112 -1.841189538950422 $72 1.841189538950422 $64 $155 forward 7 unknown #
vertex $-1 $150 $156 #
vertex $-1 $148 $157 #
straight-curve $-1 -67.033468442371699 -5.7685753437588954 0 0 0 -1 I I #
coedge $-1 $158 $159 $67 $116 forward $103 $-1 #
edge $-1 $123 -12.917854875016266 $119 12.917854875016266 $115 $160 forward 7 unknown #
coedge $-1 $68 $161 $158 $162 forward $118 $-1 #
loop $-1 $-1 $163 $143 #
vertex $-1 $69 $164 #
straight-curve $-1 -58.629194928604903 -9.4509544216597394 -12.917854875016266 -1 0 0 I I #
coedge $-1 $165 $70 $159 $166 forward $122 $-1 #
loop $-1 $-1 $167 $102 #
vertex $-1 $166 $168 #
straight-curve $-1 -58.629194928604903 -9.4509544216597394 12.917854875016266 1 0 0 I I #
point $-1 -67.033468442371699 -9.4509544216597394 12.917854875016266 #
point $-1 -67.033468442371699 -9.4509544216597394 -12.917854875016266 #
plane-surface $-1 50.2249214148381 0 0 -1 0 0 0 0 1 forward_v I I I I #
coedge $-1 $80 $78 $82 $132 reversed $41 $-1 #
edge $-1 $93 -12.917854875016266 $134 12.917854875016266 $92 $169 forward 7 unknown #
vertex $-1 $132 $170 #
straight-curve $-1 -50.2249214148381 -31.604285093791429 0 0 0 -1 I I #
edge $-1 $130 -31.604285093791429 $134 31.604285093791429 $128 $171 forward 7 unknown #
straight-curve $-1 0 -31.604285093791429 -12.917854875016266 -1 0 0 I I #
vertex $-1 $85 $172 #
straight-curve $-1 0 31.604285093791429 -12.917854875016266 1 0 0 I I #
point $-1 50.2249214148381 31.604285093791429 -12.917854875016266 #
point $-1 50.2249214148381 -31.604285093791429 -12.917854875016266 #
straight-curve $-1 -50.2249214148381 0 12.917854875016266 0 -1 0 I I #
point $-1 -50.2249214148381 31.604285093791429 12.917854875016266 #
point $-1 -50.2249214148381 -31.604285093791429 12.917854875016266 #
straight-curve $-1 50.2249214148381 -31.604285093791429 0 0 0 -1 I I #
straight-curve $-1 50.2249214148381 31.604285093791429 0 0 0 -1 I I #
face $-1 $173 $118 $7 $-1 $174 reversed single #
plane-surface $-1 0 0 12.917854875016266 0 0 1 1 0 0 forward_v I I I I #
coedge $-1 $175 $104 $176 $177 reversed $60 $-1 #
coedge $-1 $104 $175 $178 $179 reversed $60 $-1 #
coedge $-1 $178 $108 $105 $148 forward $118 $-1 #
edge $-1 $113 -8.4042735137667961 $151 8.4042735137668032 $105 $180 forward 7 unknown #
coedge $-1 $110 $176 $106 $150 forward $122 $-1 #
edge $-1 $152 -8.4042735137668032 $112 8.4042735137667961 $106 $181 forward 7 unknown #
vertex $-1 $179 $182 #
vertex $-1 $150 $183 #
straight-curve $-1 -50.2249214148381 -5.7685753437588954 0 0 0 1 I I #
straight-curve $-1 -67.033468442371699 -7.6097648827093174 -12.917854875016266 0 1 0 I I #
straight-curve $-1 -67.033468442371699 -7.6097648827093174 12.917854875016266 0 -1 0 I I #
point $-1 -67.033468442371699 -5.7685753437588954 12.917854875016266 #
point $-1 -67.033468442371699 -5.7685753437588954 -12.917854875016266 #
coedge $-1 $184 $115 $117 $162 reversed $103 $-1 #
coedge $-1 $115 $184 $121 $166 reversed $103 $-1 #
straight-curve $-1 -50.2249214148381 -9.4509544216597394 0 0 0 -1 I I #
coedge $-1 $117 $163 $185 $186 forward $118 $-1 #
edge $-1 $187 -31.604285093791429 $119 -9.4509544216597394 $158 $188 forward 7 unknown #
coedge $-1 $161 $189 $190 $191 forward $118 $-1 #
point $-1 -50.2249214148381 -9.4509544216597394 -12.917854875016266 #
coedge $-1 $167 $121 $192 $193 forward $122 $-1 #
edge $-1 $123 9.4509544216597394 $194 31.604285093791429 $159 $195 forward 7 unknown #
coedge $-1 $196 $165 $197 $198 forward $122 $-1 #
point $-1 -50.2249214148381 -9.4509544216597394 12.917854875016266 #
straight-curve $-1 -50.2249214148381 31.604285093791429 0 0 0 -1 I I #
point $-1 -50.2249214148381 -31.604285093791429 -12.917854875016266 #
straight-curve $-1 -50.2249214148381 0 -12.917854875016266 0 1 0 I I #
point $-1 -50.2249214148381 31.604285093791429 -12.917854875016266 #
face $-1 $199 $200 $7 $-1 $201 reversed single #
plane-surface $-1 0 0 -12.917854875016266 0 0 1 1 0 0 forward_v I I I I #
coedge $-1 $146 $145 $202 $203 forward $60 $-1 #
coedge $-1 $149 $196 $145 $177 forward $122 $-1 #
edge $-1 $204 -31.604285093791429 $152 5.7685753437588954 $145 $195 forward 7 unknown #
coedge $-1 $189 $147 $146 $179 forward $118 $-1 #
edge $-1 $151 -5.7685753437588954 $205 31.604285093791429 $146 $188 forward 7 unknown #
straight-curve $-1 -58.629194928604903 -5.7685753437588954 -12.917854875016266 1 0 0 I I #
straight-curve $-1 -58.629194928604903 -5.7685753437588954 12.917854875016266 -1 0 0 I I #
point $-1 -50.2249214148381 -5.7685753437588954 -12.917854875016266 #
point $-1 -50.2249214148381 -5.7685753437588954 12.917854875016266 #
coedge $-1 $159 $158 $206 $207 reversed $103 $-1 #
coedge $-1 $208 $206 $161 $186 reversed $200 $-1 #
edge $-1 $209 -50.2249214148381 $187 50.2249214148381 $185 $210 forward 7 unknown #
vertex $-1 $162 $211 #
straight-curve $-1 -50.2249214148381 0 -12.917854875016266 0 1 0 I I #
coedge $-1 $163 $178 $212 $213 forward $118 $-1 #
coedge $-1 $214 $215 $163 $191 reversed $216 $-1 #
edge $-1 $217 -31.604285093791429 $209 31.604285093791429 $190 $218 forward 7 unknown #
coedge $-1 $206 $208 $165 $193 reversed $200 $-1 #
edge $-1 $194 -50.2249214148381 $219 50.2249214148381 $192 $220 forward 7 unknown #
vertex $-1 $166 $221 #
straight-curve $-1 -50.2249214148381 0 12.917854875016266 0 -1 0 I I #
coedge $-1 $176 $167 $222 $223 forward $122 $-1 #
coedge $-1 $215 $214 $167 $198 reversed $216 $-1 #
edge $-1 $219 -31.604285093791429 $224 31.604285093791429 $197 $225 forward 7 unknown #
face $-1 $226 $227 $7 $-1 $228 reversed single #
loop $-1 $-1 $206 $173 #
plane-surface $-1 0 -31.604285093791429 0 0 1 0 0 0 1 forward_v I I I I #
coedge $-1 $222 $212 $175 $203 reversed $227 $-1 #
edge $-1 $204 -12.917854875016266 $205 12.917854875016266 $202 $229 forward 7 unknown #
vertex $-1 $223 $230 #
vertex $-1 $213 $231 #
coedge $-1 $185 $192 $184 $207 forward $200 $-1 #
edge $-1 $194 -12.917854875016266 $187 12.917854875016266 $184 $232 forward 7 unknown #
coedge $-1 $192 $185 $215 $233 reversed $200 $-1 #
vertex $-1 $233 $234 #
straight-curve $-1 0 -31.604285093791429 -12.917854875016266 -1 0 0 I I #
point $-1 -50.2249214148381 -31.604285093791429 -12.917854875016266 #
coedge $-1 $202 $235 $189 $213 reversed $227 $-1 #
edge $-1 $205 -50.2249214148381 $217 50.2249214148381 $212 $236 forward 7 unknown #
coedge $-1 $197 $190 $235 $237 reversed $216 $-1 #
coedge $-1 $190 $197 $208 $233 forward $216 $-1 #
loop $-1 $-1 $215 $226 #
vertex $-1 $191 $238 #
straight-curve $-1 50.2249214148381 0 -12.917854875016266 0 -1 0 I I #
vertex $-1 $198 $239 #
straight-curve $-1 0 -31.604285093791429 12.917854875016266 1 0 0 I I #
point $-1 -50.2249214148381 -31.604285093791429 12.917854875016266 #
coedge $-1 $235 $202 $196 $223 reversed $227 $-1 #
edge $-1 $224 -50.2249214148381 $204 50.2249214148381 $222 $240 forward 7 unknown #
vertex $-1 $198 $241 #
straight-curve $-1 50.2249214148381 0 12.917854875016266 0 1 0 I I #
face $-1 $-1 $216 $7 $-1 $242 reversed single #
loop $-1 $-1 $235 $199 #
plane-surface $-1 0 31.604285093791429 0 0 -1 0 0 0 -1 forward_v I I I I #
straight-curve $-1 -50.2249214148381 31.604285093791429 0 0 0 -1 I I #
point $-1 -50.2249214148381 31.604285093791429 12.917854875016266 #
point $-1 -50.2249214148381 31.604285093791429 -12.917854875016266 #
straight-curve $-1 -50.2249214148381 -31.604285093791429 0 0 0 -1 I I #
edge $-1 $219 -12.917854875016266 $209 12.917854875016266 $215 $243 forward 7 unknown #
point $-1 50.2249214148381 -31.604285093791429 -12.917854875016266 #
coedge $-1 $212 $222 $214 $237 forward $227 $-1 #
straight-curve $-1 0 31.604285093791429 -12.917854875016266 1 0 0 I I #
edge $-1 $224 -12.917854875016266 $217 12.917854875016266 $214 $244 forward 7 unknown #
point $-1 50.2249214148381 31.604285093791429 -12.917854875016266 #
point $-1 50.2249214148381 -31.604285093791429 12.917854875016266 #
straight-curve $-1 0 31.604285093791429 12.917854875016266 -1 0 0 I I #
point $-1 50.2249214148381 31.604285093791429 12.917854875016266 #
plane-surface $-1 50.2249214148381 0 0 -1 0 0 0 0 1 forward_v I I I I #
straight-curve $-1 50.2249214148381 -31.604285093791429 0 0 0 -1 I I #
straight-curve $-1 50.2249214148381 31.604285093791429 0 0 0 -1 I I #
End-of-ACIS-data 