500 0 5 0           
7 Unknown 11 ACIS 5.0 NT 24 Fri Mar 26 16:34:09 1999 
-1 9.9999999999999995e-007 1e-010 
body $-1 $5 $-1 $6 #
body $-1 $7 $-1 $8 #
body $-1 $9 $-1 $10 #
body $-1 $11 $-1 $12 #
body $-1 $13 $-1 $14 #
lump $-1 $-1 $15 $0 #
transform $-1 1 0 0 0 1 0 0 0 1 65.413373210852384 35.770436837876382 11.874645336701075 1 rotate no_reflect no_shear #
lump $-1 $-1 $16 $1 #
transform $-1 1 0 0 0 1 0 0 0 1 65.413373210852384 35.770436837876382 11.874645336701075 1 rotate no_reflect no_shear #
lump $-1 $-1 $17 $2 #
transform $-1 1 0 0 0 1 0 0 0 1 65.413373210852384 35.770436837876382 11.874645336701075 1 rotate no_reflect no_shear #
lump $-1 $-1 $18 $3 #
transform $-1 1 0 0 0 1 0 0 0 1 65.413373210852384 35.770436837876382 11.874645336701075 1 rotate no_reflect no_shear #
lump $-1 $-1 $19 $4 #
transform $-1 1 0 0 0 1 0 0 0 1 65.413373210852384 35.770436837876382 11.874645336701075 1 rotate no_reflect no_shear #
shell $-1 $-1 $-1 $20 $-1 $5 #
shell $-1 $-1 $-1 $21 $-1 $7 #
shell $-1 $-1 $-1 $22 $-1 $9 #
shell $-1 $-1 $-1 $23 $-1 $11 #
shell $-1 $-1 $-1 $24 $-1 $13 #
face $-1 $25 $26 $15 $-1 $27 forward single #
face $-1 $28 $29 $16 $-1 $30 reversed single #
face $-1 $31 $32 $17 $-1 $33 forward single #
face $-1 $34 $35 $18 $-1 $36 reversed single #
face $-1 $37 $38 $19 $-1 $39 forward single #
face $-1 $40 $41 $15 $-1 $42 reversed single #
loop $-1 $-1 $43 $20 #
plane-surface $-1 0 0 11.874645336701075 0 0 1 1 0 0 forward_v I I I I #
face $-1 $44 $45 $16 $-1 $46 reversed single #
loop $-1 $-1 $47 $21 #
plane-surface $-1 -32.147303171417249 39.22759718965289 151.83771719335556 1 0 0 0 -0.50000000669873634 -0.8660253999169214 forward_v I I I I #
face $-1 $48 $49 $17 $-1 $50 forward single #
loop $-1 $51 $52 $22 #
cone-surface $-1 -23.825149798427937 26.926518492187917 5.6631800597276678 0 -0.50000000669873634 -0.8660253999169214 1.5 0 0 1 I I 0 1 1.5 forward I I I I #
face $-1 $53 $54 $18 $-1 $55 reversed single #
loop $-1 $-1 $56 $23 #
plane-surface $-1 15.502996425438631 39.22759718965289 151.83771719335556 1 0 0 0 -0.50000000669873634 -0.8660253999169214 forward_v I I I I #
face $-1 $57 $58 $19 $-1 $59 forward single #
loop $-1 $60 $61 $24 #
cone-surface $-1 23.825149798427944 26.926518492187917 5.6631800597276678 0 -0.50000000669873634 -0.8660253999169214 1.5 0 0 1 I I 0 1 1.5 forward I I I I #
face $-1 $62 $63 $15 $-1 $64 reversed single #
loop $-1 $-1 $65 $25 #
plane-surface $-1 0 0 -11.874645336701075 0 0 1 1 0 0 forward_v I I I I #
coedge $-1 $66 $67 $68 $69 forward $26 $-1 #
face $-1 $70 $71 $16 $-1 $72 reversed single #
loop $-1 $-1 $73 $28 #
plane-surface $-1 -23.825149798427937 -26.185776897573369 38.538431803669027 0 0.50000000669873634 0.8660253999169214 1 0 0 forward_v I I I I #
coedge $-1 $74 $75 $76 $77 reversed $29 $-1 #
face $-1 $-1 $78 $17 $-1 $79 forward single #
loop $-1 $80 $81 $31 #
cone-surface $-1 -23.825149798427937 25.594190980212908 3.3555211578875195 0 -0.50000000669873634 -0.8660253999169214 0.75 0 0 1 I I -0.70710678118654757 0.70710678118654757 0.75 forward I I I I #
loop $-1 $-1 $82 $22 #
coedge $-1 $52 $52 $83 $84 reversed $32 $-1 #
face $-1 $85 $86 $18 $-1 $87 reversed single #
loop $-1 $-1 $88 $34 #
plane-surface $-1 23.825149798427944 -26.185776897573369 38.538431803669027 0 0.50000000669873634 0.8660253999169214 1 0 0 forward_v I I I I #
coedge $-1 $89 $90 $91 $92 reversed $35 $-1 #
face $-1 $-1 $93 $19 $-1 $94 forward single #
loop $-1 $95 $96 $37 #
cone-surface $-1 23.825149798427944 25.594190980212908 3.3555211578875195 0 -0.50000000669873634 -0.8660253999169214 0.75 0 0 1 I I -0.70710678118654757 0.70710678118654757 0.75 forward I I I I #
loop $-1 $-1 $97 $24 #
coedge $-1 $61 $61 $98 $99 reversed $38 $-1 #
face $-1 $100 $101 $15 $-1 $102 reversed single #
loop $-1 $-1 $103 $40 #
plane-surface $-1 0 -35.770436837876382 0 0 1 0 0 0 1 forward_v I I I I #
coedge $-1 $104 $105 $106 $107 forward $41 $-1 #
coedge $-1 $108 $43 $109 $110 forward $26 $-1 #
coedge $-1 $43 $108 $111 $112 forward $26 $-1 #
coedge $-1 $113 $114 $43 $69 reversed $115 $-1 #
edge $-1 $116 -35.770436837876382 $117 35.770436837876382 $68 $118 forward 7 unknown #
face $-1 $119 $120 $16 $-1 $121 reversed single #
loop $-1 $-1 $122 $44 #
plane-surface $-1 -15.502996425438624 39.22759718965289 151.83771719335556 -1 0 0 0 0.50000000669873634 0.8660253999169214 forward_v I I I I #
coedge $-1 $123 $124 $125 $126 reversed $45 $-1 #
coedge $-1 $75 $47 $127 $128 reversed $29 $-1 #
coedge $-1 $47 $74 $123 $129 reversed $29 $-1 #
coedge $-1 $125 $130 $47 $77 forward $131 $-1 #
edge $-1 $132 -16.156638243049937 $133 -0.3834565655749067 $76 $134 forward 7 unknown #
loop $-1 $-1 $83 $48 #
plane-surface $-1 -23.825149798427937 -26.185776897573369 38.538431803669027 0 0.50000000669873634 0.8660253999169214 1 0 0 forward_v I I I I #
loop $-1 $-1 $135 $31 #
coedge $-1 $81 $81 $82 $136 reversed $49 $-1 #
coedge $-1 $82 $82 $81 $136 forward $51 $-1 #
coedge $-1 $83 $83 $52 $84 forward $78 $-1 #
edge $-1 $137 -2.6220229932989088e-015 $137 6.2831853071795978 $83 $138 forward 7 unknown #
face $-1 $139 $140 $18 $-1 $141 forward single #
loop $-1 $-1 $142 $53 #
plane-surface $-1 32.147303171417256 39.22759718965289 151.83771719335556 -1 0 0 0 0.50000000669873634 0.8660253999169214 forward_v I I I I #
coedge $-1 $143 $144 $145 $146 reversed $54 $-1 #
coedge $-1 $90 $56 $147 $148 reversed $35 $-1 #
coedge $-1 $56 $89 $143 $149 reversed $35 $-1 #
coedge $-1 $145 $150 $56 $92 forward $140 $-1 #
edge $-1 $151 -16.156638243049937 $152 -0.3834565655749067 $91 $153 forward 7 unknown #
loop $-1 $-1 $98 $57 #
plane-surface $-1 23.825149798427944 -26.185776897573369 38.538431803669027 0 0.50000000669873634 0.8660253999169214 1 0 0 forward_v I I I I #
loop $-1 $-1 $154 $37 #
coedge $-1 $96 $96 $97 $155 reversed $58 $-1 #
coedge $-1 $97 $97 $96 $155 forward $60 $-1 #
coedge $-1 $98 $98 $61 $99 forward $93 $-1 #
edge $-1 $156 -2.6220229932989088e-015 $156 6.2831853071795978 $98 $157 forward 7 unknown #
face $-1 $158 $159 $15 $-1 $160 reversed single #
loop $-1 $-1 $161 $62 #
plane-surface $-1 -65.413373210852384 0 0 1 0 0 0 0 -1 forward_v I I I I #
coedge $-1 $162 $111 $163 $164 forward $63 $-1 #
coedge $-1 $165 $65 $162 $166 forward $41 $-1 #
coedge $-1 $65 $165 $167 $168 forward $41 $-1 #
coedge $-1 $114 $113 $65 $107 reversed $115 $-1 #
edge $-1 $169 -35.770436837876382 $170 35.770436837876382 $106 $171 forward 7 unknown #
coedge $-1 $67 $66 $172 $173 forward $26 $-1 #
coedge $-1 $174 $175 $66 $110 reversed $159 $-1 #
edge $-1 $117 -65.413373210852384 $176 65.413373210852384 $109 $177 forward 7 unknown #
coedge $-1 $103 $178 $67 $112 reversed $63 $-1 #
edge $-1 $179 -65.413373210852384 $116 65.413373210852384 $111 $180 forward 7 unknown #
coedge $-1 $106 $68 $178 $181 forward $115 $-1 #
coedge $-1 $68 $106 $174 $182 reversed $115 $-1 #
loop $-1 $-1 $113 $158 #
vertex $-1 $69 $183 #
vertex $-1 $69 $184 #
straight-curve $-1 65.413373210852384 0 11.874645336701075 0 1 0 I I #
face $-1 $-1 $131 $16 $-1 $185 forward single #
loop $-1 $-1 $186 $70 #
plane-surface $-1 0 35.770436837876382 0 0 -1 0 0 0 -1 forward_v I I I I #
coedge $-1 $187 $188 $189 $190 reversed $71 $-1 #
coedge $-1 $191 $73 $75 $129 forward $45 $-1 #
coedge $-1 $73 $191 $187 $192 forward $45 $-1 #
coedge $-1 $189 $76 $73 $126 forward $131 $-1 #
edge $-1 $133 -20.234728272203281 $193 -3.5904215262246559 $125 $194 forward 7 unknown #
coedge $-1 $195 $196 $74 $128 forward $120 $-1 #
edge $-1 $197 -73.15086411011859 $132 -64.044213259976701 $127 $198 forward 7 unknown #
edge $-1 $133 53.327572219481212 $197 71.540873675752778 $75 $199 forward 7 unknown #
coedge $-1 $76 $189 $195 $200 forward $131 $-1 #
loop $-1 $-1 $189 $119 #
vertex $-1 $128 $201 #
vertex $-1 $77 $202 #
straight-curve $-1 -32.147303171417249 19.613798594826445 11.874645336701079 0 -1 0 I I #
coedge $-1 $135 $135 $-1 $203 reversed $80 $-1 #
edge $-1 $204 0 $204 6.2831853071796004 $81 $205 forward 7 unknown #
vertex $-1 $84 $206 #
ellipse-curve $-1 -23.825149798427937 27.883845999138877 7.3213199116301313 0 0.50000000669873634 0.8660253999169214 1.5 0 0 1 I I #
face $-1 $-1 $207 $18 $-1 $208 reversed single #
loop $-1 $-1 $91 $85 #
plane-surface $-1 0 0 11.874645336701075 0 0 1 1 0 0 forward_v I I I I #
coedge $-1 $209 $210 $211 $212 reversed $86 $-1 #
coedge $-1 $213 $88 $90 $149 forward $54 $-1 #
coedge $-1 $88 $213 $209 $214 forward $54 $-1 #
coedge $-1 $211 $91 $88 $146 forward $140 $-1 #
edge $-1 $152 3.5904215262246595 $215 20.234728272203284 $145 $216 forward 7 unknown #
coedge $-1 $217 $218 $89 $148 forward $207 $-1 #
edge $-1 $219 -73.15086411011859 $151 -64.044213259976701 $147 $220 forward 7 unknown #
edge $-1 $152 53.327572219481212 $219 71.540873675752778 $90 $221 forward 7 unknown #
coedge $-1 $91 $211 $217 $222 forward $140 $-1 #
vertex $-1 $92 $223 #
vertex $-1 $92 $224 #
straight-curve $-1 15.502996425438631 19.613798594826445 11.874645336701079 0 -1 0 I I #
coedge $-1 $154 $154 $-1 $225 reversed $95 $-1 #
edge $-1 $226 0 $226 6.2831853071796004 $96 $227 forward 7 unknown #
vertex $-1 $99 $228 #
ellipse-curve $-1 23.825149798427944 27.883845999138877 7.3213199116301313 0 0.50000000669873634 0.8660253999169214 1.5 0 0 1 I I #
face $-1 $-1 $115 $15 $-1 $229 reversed single #
loop $-1 $-1 $174 $100 #
plane-surface $-1 0 35.770436837876382 0 0 -1 0 0 0 -1 forward_v I I I I #
coedge $-1 $230 $172 $175 $231 forward $101 $-1 #
coedge $-1 $178 $103 $104 $166 reversed $63 $-1 #
coedge $-1 $172 $230 $103 $164 reversed $101 $-1 #
edge $-1 $179 -11.874645336701075 $232 11.874645336701075 $163 $233 forward 7 unknown #
coedge $-1 $105 $104 $230 $234 forward $41 $-1 #
edge $-1 $170 -65.413373210852384 $232 65.413373210852384 $162 $235 forward 7 unknown #
coedge $-1 $175 $174 $105 $168 reversed $159 $-1 #
edge $-1 $236 -65.413373210852384 $169 65.413373210852384 $167 $237 forward 7 unknown #
vertex $-1 $107 $238 #
vertex $-1 $181 $239 #
straight-curve $-1 65.413373210852384 0 -11.874645336701075 0 -1 0 I I #
coedge $-1 $161 $163 $108 $173 reversed $101 $-1 #
edge $-1 $176 -35.770436837876382 $179 35.770436837876382 $172 $240 forward 7 unknown #
coedge $-1 $167 $109 $114 $182 forward $159 $-1 #
coedge $-1 $109 $167 $161 $231 reversed $159 $-1 #
vertex $-1 $110 $241 #
straight-curve $-1 0 35.770436837876382 11.874645336701075 -1 0 0 I I #
coedge $-1 $111 $162 $113 $181 reversed $63 $-1 #
vertex $-1 $173 $242 #
straight-curve $-1 0 -35.770436837876382 11.874645336701075 1 0 0 I I #
edge $-1 $116 -11.874645336701075 $170 11.874645336701075 $113 $243 forward 7 unknown #
edge $-1 $117 -11.874645336701075 $169 11.874645336701075 $114 $244 forward 7 unknown #
point $-1 65.413373210852384 -35.770436837876382 11.874645336701075 #
point $-1 65.413373210852384 35.770436837876382 11.874645336701075 #
plane-surface $-1 0 0 11.874645336701075 0 0 1 1 0 0 forward_v I I I I #
coedge $-1 $196 $195 $188 $245 forward $120 $-1 #
coedge $-1 $188 $122 $124 $192 reversed $71 $-1 #
coedge $-1 $122 $187 $186 $245 reversed $71 $-1 #
coedge $-1 $130 $125 $122 $190 forward $131 $-1 #
edge $-1 $193 0.3834565655749067 $246 16.156638243049937 $189 $247 forward 7 unknown #
coedge $-1 $124 $123 $196 $248 reversed $45 $-1 #
edge $-1 $249 -71.540873675752778 $193 -53.327572219481212 $187 $250 forward 7 unknown #
vertex $-1 $126 $251 #
straight-curve $-1 -11.912574899213968 19.997255160401355 11.874645336701079 1 0 0 I I #
coedge $-1 $186 $127 $130 $200 reversed $120 $-1 #
coedge $-1 $127 $186 $191 $248 forward $120 $-1 #
vertex $-1 $128 $252 #
straight-curve $-1 -32.147303171417249 35.770436837876382 75.918858596677779 0 0 1 I I #
straight-curve $-1 -32.147303171417249 -26.185776897573369 38.538431803669027 0 0.8660253999169214 -0.50000000669873634 I I #
edge $-1 $246 15.502996425438624 $132 32.147303171417249 $195 $253 forward 7 unknown #
point $-1 -32.147303171417249 35.770436837876382 11.874645336701075 #
point $-1 -32.147303171417249 19.997255160401352 11.874645336701075 #
edge $-1 $254 1 $254 0 $135 $-1 forward 7 unknown #
vertex $-1 $136 $255 #
ellipse-curve $-1 -23.825149798427937 25.96919098523696 4.0050402078252105 0 0.50000000669873634 0.8660253999169214 1.5 0 0 1 I I #
point $-1 -22.325149798427937 27.88384599913887 7.3213199116301269 #
loop $-1 $-1 $147 $139 #
plane-surface $-1 0 35.770436837876382 0 0 -1 0 0 0 -1 forward_v I I I I #
coedge $-1 $210 $142 $144 $214 reversed $86 $-1 #
coedge $-1 $142 $209 $256 $257 reversed $86 $-1 #
coedge $-1 $150 $145 $142 $212 forward $140 $-1 #
edge $-1 $215 0.3834565655749067 $258 16.156638243049937 $211 $259 forward 7 unknown #
coedge $-1 $144 $143 $218 $260 reversed $54 $-1 #
edge $-1 $261 -71.540873675752778 $215 -53.327572219481212 $209 $262 forward 7 unknown #
vertex $-1 $146 $263 #
straight-curve $-1 11.912574899213972 19.997255160401355 11.874645336701079 1 0 0 I I #
coedge $-1 $256 $147 $150 $222 reversed $207 $-1 #
coedge $-1 $147 $256 $213 $260 forward $207 $-1 #
vertex $-1 $148 $264 #
straight-curve $-1 15.502996425438631 35.770436837876382 75.918858596677779 0 0 1 I I #
straight-curve $-1 15.502996425438631 -26.185776897573369 38.538431803669027 0 0.8660253999169214 -0.50000000669873634 I I #
edge $-1 $258 -32.147303171417256 $151 -15.502996425438631 $217 $265 forward 7 unknown #
point $-1 15.502996425438631 35.770436837876382 11.874645336701075 #
point $-1 15.502996425438631 19.997255160401352 11.874645336701075 #
edge $-1 $266 1 $266 0 $154 $-1 forward 7 unknown #
vertex $-1 $155 $267 #
ellipse-curve $-1 23.825149798427944 25.96919098523696 4.0050402078252105 0 0.50000000669873634 0.8660253999169214 1.5 0 0 1 I I #
point $-1 25.325149798427944 27.88384599913887 7.3213199116301269 #
plane-surface $-1 65.413373210852384 0 0 -1 0 0 0 0 1 forward_v I I I I #
coedge $-1 $163 $161 $165 $234 reversed $101 $-1 #
edge $-1 $176 -11.874645336701075 $236 11.874645336701075 $175 $268 forward 7 unknown #
vertex $-1 $234 $269 #
straight-curve $-1 -65.413373210852384 -35.770436837876382 0 0 0 -1 I I #
edge $-1 $232 -35.770436837876382 $236 35.770436837876382 $230 $270 forward 7 unknown #
straight-curve $-1 0 -35.770436837876382 -11.874645336701075 -1 0 0 I I #
vertex $-1 $168 $271 #
straight-curve $-1 0 35.770436837876382 -11.874645336701075 1 0 0 I I #
point $-1 65.413373210852384 35.770436837876382 -11.874645336701075 #
point $-1 65.413373210852384 -35.770436837876382 -11.874645336701075 #
straight-curve $-1 -65.413373210852384 0 11.874645336701075 0 -1 0 I I #
point $-1 -65.413373210852384 35.770436837876382 11.874645336701075 #
point $-1 -65.413373210852384 -35.770436837876382 11.874645336701075 #
straight-curve $-1 65.413373210852384 -35.770436837876382 0 0 0 -1 I I #
straight-curve $-1 65.413373210852384 35.770436837876382 0 0 0 -1 I I #
edge $-1 $246 64.044213259976701 $249 73.15086411011859 $186 $272 forward 7 unknown #
vertex $-1 $200 $273 #
straight-curve $-1 -15.502996425438624 19.613798594826445 11.874645336701079 0 1 0 I I #
edge $-1 $249 3.5904215262246559 $197 20.234728272203281 $196 $274 forward 7 unknown #
vertex $-1 $248 $275 #
straight-curve $-1 -15.502996425438624 -26.185776897573369 38.538431803669027 0 -0.8660253999169214 0.50000000669873634 I I #
point $-1 -15.502996425438624 19.997255160401352 11.874645336701075 #
point $-1 -32.147303171417249 35.770436837876382 2.7679944865591892 #
straight-curve $-1 0 35.770436837876382 11.874645336701075 -1 0 0 I I #
vertex $-1 $203 $276 #
point $-1 -22.325149798427937 25.96919098523696 4.0050402078252105 #
coedge $-1 $218 $217 $210 $257 forward $207 $-1 #
edge $-1 $258 64.044213259976701 $261 73.15086411011859 $256 $277 forward 7 unknown #
vertex $-1 $222 $278 #
straight-curve $-1 32.147303171417256 19.613798594826445 11.874645336701079 0 1 0 I I #
edge $-1 $261 -20.234728272203284 $219 -3.5904215262246595 $218 $279 forward 7 unknown #
vertex $-1 $260 $280 #
straight-curve $-1 32.147303171417256 -26.185776897573369 38.538431803669027 0 -0.8660253999169214 0.50000000669873634 I I #
point $-1 32.147303171417256 19.997255160401352 11.874645336701075 #
point $-1 15.502996425438631 35.770436837876382 2.7679944865591892 #
straight-curve $-1 0 35.770436837876382 11.874645336701075 -1 0 0 I I #
vertex $-1 $225 $281 #
point $-1 25.325149798427944 25.96919098523696 4.0050402078252105 #
straight-curve $-1 -65.413373210852384 35.770436837876382 0 0 0 -1 I I #
point $-1 -65.413373210852384 -35.770436837876382 -11.874645336701075 #
straight-curve $-1 -65.413373210852384 0 -11.874645336701075 0 1 0 I I #
point $-1 -65.413373210852384 35.770436837876382 -11.874645336701075 #
straight-curve $-1 -15.502996425438624 35.770436837876382 75.918858596677779 0 0 -1 I I #
point $-1 -15.502996425438624 35.770436837876382 11.874645336701075 #
straight-curve $-1 -11.912574899213968 35.770436837876382 2.7679944865591857 -1 0 0 I I #
point $-1 -15.502996425438624 35.770436837876382 2.7679944865591892 #
point $-1 -23.825149798427937 25.219190975188855 2.7060021079498284 #
straight-curve $-1 32.147303171417256 35.770436837876382 75.918858596677779 0 0 -1 I I #
point $-1 32.147303171417256 35.770436837876382 11.874645336701075 #
straight-curve $-1 11.912574899213972 35.770436837876382 2.7679944865591857 -1 0 0 I I #
point $-1 32.147303171417256 35.770436837876382 2.7679944865591892 #
point $-1 23.825149798427944 25.219190975188855 2.7060021079498284 #
End-of-ACIS-data 