500 0 4 0           
7 Unknown 11 ACIS 5.0 NT 24 Thu Mar 25 16:55:33 1999 
-1 9.9999999999999995e-007 1e-010 
body $-1 $4 $-1 $5 #
body $-1 $6 $-1 $7 #
body $-1 $8 $-1 $9 #
body $-1 $10 $-1 $11 #
lump $-1 $-1 $12 $0 #
transform $-1 1 0 0 0 1 0 0 0 1 54.183782464064457 26.721648338459303 9.9785176875938628 1 rotate no_reflect no_shear #
lump $-1 $-1 $13 $1 #
transform $-1 1 0 0 0 1 0 0 0 1 54.183782464064457 26.721648338459303 9.9785176875938628 1 rotate no_reflect no_shear #
lump $-1 $-1 $14 $2 #
transform $-1 1 0 0 0 1 0 0 0 1 54.183782464064457 26.721648338459303 9.9785176875938628 1 rotate no_reflect no_shear #
lump $-1 $-1 $15 $3 #
transform $-1 1 0 0 0 1 0 0 0 1 54.183782464064457 26.721648338459303 9.9785176875938628 1 rotate no_reflect no_shear #
shell $-1 $-1 $-1 $16 $-1 $4 #
shell $-1 $-1 $-1 $17 $-1 $6 #
shell $-1 $-1 $-1 $18 $-1 $8 #
shell $-1 $-1 $-1 $19 $-1 $10 #
face $-1 $20 $21 $12 $-1 $22 forward single #
face $-1 $23 $24 $13 $-1 $25 forward single #
face $-1 $26 $27 $14 $-1 $28 forward single #
face $-1 $29 $30 $15 $-1 $31 reversed single #
face $-1 $32 $33 $12 $-1 $34 reversed single #
loop $-1 $-1 $35 $16 #
plane-surface $-1 0 0 9.9785176875938628 0 0 1 1 0 0 forward_v I I I I #
face $-1 $36 $37 $13 $-1 $38 forward single #
loop $-1 $-1 $39 $17 #
plane-surface $-1 -37.226747088876735 -21.339150568609028 0 1 0 0 0 0 -1 forward_v I I I I #
face $-1 $40 $41 $14 $-1 $42 forward single #
loop $-1 $-1 $43 $18 #
plane-surface $-1 19.708936847167529 9.7821220715511892 152.8987539328981 0 -1 0 -0.52991927123019833 0 -0.84804809178421925 forward_v I I I I #
face $-1 $44 $45 $15 $-1 $46 reversed single #
loop $-1 $47 $48 $19 #
cone-surface $-1 48.055828988138266 5.9371620830452869 5.1724220846625197 -0.52991927123019833 0 -0.84804809178421925 0.84804809178421925 0 -0.52991927123019833 1 I I 0 1 1 forward I I I I #
face $-1 $49 $50 $12 $-1 $51 reversed single #
loop $-1 $-1 $52 $20 #
plane-surface $-1 0 0 -9.9785176875938628 0 0 1 1 0 0 forward_v I I I I #
coedge $-1 $53 $54 $55 $56 forward $21 $-1 #
face $-1 $57 $58 $13 $-1 $59 forward single #
loop $-1 $-1 $60 $23 #
plane-surface $-1 -35.726747088876735 -15.956652798758753 0 0 -1 0 0 0 -1 forward_v I I I I #
coedge $-1 $61 $62 $63 $64 reversed $24 $-1 #
face $-1 $65 $66 $14 $-1 $67 forward single #
loop $-1 $-1 $68 $26 #
plane-surface $-1 -37.717124184537745 5.937162083045294 60.997847284295901 0.52991927123019833 0 0.84804809178421925 0.84804809178421925 0 -0.52991927123019833 forward_v I I I I #
coedge $-1 $69 $70 $71 $72 reversed $27 $-1 #
face $-1 $73 $74 $15 $-1 $75 forward single #
loop $-1 $76 $77 $29 #
cone-surface $-1 46.789372549342012 5.9371620830452869 3.1456681533406954 -0.52991927123019833 0 -0.84804809178421925 0.42402404589210962 0 -0.26495963561509916 1 I I -0.70710678118654746 0.70710678118654746 0.5 forward I I I I #
loop $-1 $-1 $78 $19 #
coedge $-1 $48 $48 $79 $80 reversed $30 $-1 #
face $-1 $81 $82 $12 $-1 $83 reversed single #
loop $-1 $-1 $84 $32 #
plane-surface $-1 0 -26.721648338459303 0 0 1 0 0 0 1 forward_v I I I I #
coedge $-1 $85 $86 $87 $88 forward $33 $-1 #
coedge $-1 $89 $35 $90 $91 forward $21 $-1 #
coedge $-1 $35 $89 $92 $93 forward $21 $-1 #
coedge $-1 $94 $95 $35 $56 reversed $96 $-1 #
edge $-1 $97 -26.721648338459303 $98 26.721648338459303 $55 $99 forward 7 unknown #
face $-1 $100 $101 $13 $-1 $102 forward single #
loop $-1 $-1 $103 $36 #
plane-surface $-1 -34.226747088876735 -21.339150568609028 0 -1 0 0 0 0 1 forward_v I I I I #
coedge $-1 $104 $105 $106 $107 reversed $37 $-1 #
coedge $-1 $108 $39 $109 $110 reversed $24 $-1 #
coedge $-1 $39 $108 $111 $112 reversed $24 $-1 #
coedge $-1 $105 $104 $39 $64 forward $37 $-1 #
edge $-1 $113 -9.9785176875938628 $114 9.9785176875938628 $63 $115 forward 7 unknown #
face $-1 $116 $117 $14 $-1 $118 forward single #
loop $-1 $-1 $119 $40 #
plane-surface $-1 19.708936847167529 2.0922020945393989 152.8987539328981 0 1 0 0.52991927123019833 0 0.84804809178421925 forward_v I I I I #
coedge $-1 $120 $121 $122 $123 reversed $41 $-1 #
coedge $-1 $70 $43 $121 $124 forward $27 $-1 #
coedge $-1 $43 $69 $125 $126 reversed $27 $-1 #
coedge $-1 $127 $122 $43 $72 forward $117 $-1 #
edge $-1 $128 34.076400694990639 $129 44.329314040480696 $71 $130 forward 7 unknown #
face $-1 $131 $132 $15 $-1 $133 forward single #
loop $-1 $-1 $134 $44 #
plane-surface $-1 19.708936847167529 9.7821220715511892 152.8987539328981 0 -1 0 -0.52991927123019833 0 -0.84804809178421925 forward_v I I I I #
loop $-1 $-1 $135 $29 #
coedge $-1 $77 $77 $78 $136 forward $45 $-1 #
coedge $-1 $78 $78 $77 $136 reversed $47 $-1 #
coedge $-1 $79 $79 $48 $80 forward $132 $-1 #
edge $-1 $137 0 $137 6.2831853071796004 $79 $138 forward 7 unknown #
face $-1 $139 $140 $12 $-1 $141 reversed single #
loop $-1 $-1 $142 $49 #
plane-surface $-1 -54.183782464064457 0 0 1 0 0 0 0 -1 forward_v I I I I #
coedge $-1 $143 $92 $144 $145 forward $50 $-1 #
coedge $-1 $146 $52 $143 $147 forward $33 $-1 #
coedge $-1 $52 $146 $148 $149 forward $33 $-1 #
coedge $-1 $95 $94 $52 $88 reversed $96 $-1 #
edge $-1 $150 -26.721648338459303 $151 26.721648338459303 $87 $152 forward 7 unknown #
coedge $-1 $54 $53 $153 $154 forward $21 $-1 #
coedge $-1 $155 $156 $53 $91 reversed $140 $-1 #
edge $-1 $98 -54.183782464064457 $157 54.183782464064457 $90 $158 forward 7 unknown #
coedge $-1 $84 $159 $54 $93 reversed $50 $-1 #
edge $-1 $160 -54.183782464064457 $97 54.183782464064457 $92 $161 forward 7 unknown #
coedge $-1 $87 $55 $159 $162 forward $96 $-1 #
coedge $-1 $55 $87 $155 $163 reversed $96 $-1 #
loop $-1 $-1 $94 $139 #
vertex $-1 $56 $164 #
vertex $-1 $56 $165 #
straight-curve $-1 54.183782464064457 0 9.9785176875938628 0 1 0 I I #
face $-1 $166 $167 $13 $-1 $168 reversed single #
loop $-1 $-1 $109 $57 #
plane-surface $-1 0 0 9.9785176875938628 0 0 1 1 0 0 forward_v I I I I #
coedge $-1 $169 $170 $171 $172 reversed $58 $-1 #
coedge $-1 $63 $60 $173 $174 reversed $37 $-1 #
coedge $-1 $60 $63 $175 $176 reversed $37 $-1 #
coedge $-1 $170 $169 $60 $107 forward $58 $-1 #
edge $-1 $177 -9.9785176875938628 $178 9.9785176875938628 $106 $179 forward 7 unknown #
coedge $-1 $62 $61 $180 $181 reversed $24 $-1 #
coedge $-1 $173 $182 $61 $110 forward $101 $-1 #
edge $-1 $183 -16.052073054154789 $113 -5.2870775144542392 $109 $184 forward 7 unknown #
coedge $-1 $185 $175 $62 $112 forward $186 $-1 #
edge $-1 $114 5.2870775144542392 $187 16.052073054154789 $111 $188 forward 7 unknown #
vertex $-1 $110 $189 #
vertex $-1 $112 $190 #
straight-curve $-1 -37.226747088876735 -15.956652798758753 0 0 0 -1 I I #
face $-1 $191 $192 $14 $-1 $193 forward single #
loop $-1 $-1 $194 $65 #
plane-surface $-1 0 0 9.9785176875938628 0 0 1 1 0 0 forward_v I I I I #
coedge $-1 $195 $196 $194 $197 reversed $66 $-1 #
coedge $-1 $198 $68 $196 $199 reversed $41 $-1 #
coedge $-1 $68 $198 $69 $124 reversed $41 $-1 #
coedge $-1 $71 $194 $68 $123 forward $117 $-1 #
edge $-1 $200 -0.87637894698324814 $128 6.8135410300285422 $122 $201 forward 7 unknown #
edge $-1 $128 96.277550877252594 $202 108.36756492812891 $69 $203 forward 7 unknown #
coedge $-1 $204 $205 $70 $126 forward $206 $-1 #
edge $-1 $129 66.470859278855187 $202 72.877590713858424 $125 $207 forward 7 unknown #
coedge $-1 $208 $71 $205 $209 forward $117 $-1 #
vertex $-1 $123 $210 #
vertex $-1 $209 $211 #
straight-curve $-1 9.8544684235837643 9.7821220715511892 9.9785176875938646 1 0 0 I I #
face $-1 $212 $213 $15 $-1 $214 forward single #
loop $-1 $215 $79 $73 #
plane-surface $-1 -37.717124184537745 5.937162083045294 60.997847284295901 0.52991927123019833 0 0.84804809178421925 0.84804809178421925 0 -0.52991927123019833 forward_v I I I I #
coedge $-1 $216 $217 $218 $219 reversed $74 $-1 #
coedge $-1 $135 $135 $-1 $220 forward $76 $-1 #
edge $-1 $221 0 $221 6.2831853071796004 $77 $222 forward 7 unknown #
vertex $-1 $80 $223 #
ellipse-curve $-1 49.057325791319428 5.9371620830452869 6.7751519700922431 -0.52991927123019833 0 -0.84804809178421925 0.84804809178421925 0 -0.52991927123019833 1 I I #
face $-1 $-1 $96 $12 $-1 $224 reversed single #
loop $-1 $-1 $155 $81 #
plane-surface $-1 0 26.721648338459303 0 0 -1 0 0 0 -1 forward_v I I I I #
coedge $-1 $225 $153 $156 $226 forward $82 $-1 #
coedge $-1 $159 $84 $85 $147 reversed $50 $-1 #
coedge $-1 $153 $225 $84 $145 reversed $82 $-1 #
edge $-1 $160 -9.9785176875938628 $227 9.9785176875938628 $144 $228 forward 7 unknown #
coedge $-1 $86 $85 $225 $229 forward $33 $-1 #
edge $-1 $151 -54.183782464064457 $227 54.183782464064457 $143 $230 forward 7 unknown #
coedge $-1 $156 $155 $86 $149 reversed $140 $-1 #
edge $-1 $231 -54.183782464064457 $150 54.183782464064457 $148 $232 forward 7 unknown #
vertex $-1 $88 $233 #
vertex $-1 $162 $234 #
straight-curve $-1 54.183782464064457 0 -9.9785176875938628 0 -1 0 I I #
coedge $-1 $142 $144 $89 $154 reversed $82 $-1 #
edge $-1 $157 -26.721648338459303 $160 26.721648338459303 $153 $235 forward 7 unknown #
coedge $-1 $148 $90 $95 $163 forward $140 $-1 #
coedge $-1 $90 $148 $142 $226 reversed $140 $-1 #
vertex $-1 $91 $236 #
straight-curve $-1 0 26.721648338459303 9.9785176875938628 -1 0 0 I I #
coedge $-1 $92 $143 $94 $162 reversed $50 $-1 #
vertex $-1 $154 $237 #
straight-curve $-1 0 -26.721648338459303 9.9785176875938628 1 0 0 I I #
edge $-1 $97 -9.9785176875938628 $151 9.9785176875938628 $94 $238 forward 7 unknown #
edge $-1 $98 -9.9785176875938628 $150 9.9785176875938628 $95 $239 forward 7 unknown #
point $-1 54.183782464064457 -26.721648338459303 9.9785176875938628 #
point $-1 54.183782464064457 26.721648338459303 9.9785176875938628 #
face $-1 $240 $186 $13 $-1 $241 reversed single #
loop $-1 $-1 $171 $100 #
plane-surface $-1 0 -26.721648338459303 0 0 1 0 0 0 1 forward_v I I I I #
coedge $-1 $106 $103 $242 $243 reversed $58 $-1 #
coedge $-1 $103 $106 $244 $245 reversed $58 $-1 #
coedge $-1 $246 $247 $103 $172 forward $167 $-1 #
edge $-1 $248 -9.9785176875938628 $249 9.9785176875938628 $171 $250 forward 7 unknown #
coedge $-1 $242 $109 $104 $174 forward $101 $-1 #
edge $-1 $113 -19.363373544438367 $177 -16.363373544438367 $173 $251 forward 7 unknown #
coedge $-1 $111 $244 $105 $176 forward $186 $-1 #
edge $-1 $178 16.363373544438367 $114 19.363373544438367 $175 $252 forward 7 unknown #
vertex $-1 $174 $253 #
vertex $-1 $176 $254 #
straight-curve $-1 -34.226747088876735 -15.956652798758753 0 0 0 -1 I I #
coedge $-1 $255 $256 $108 $181 forward $257 $-1 #
edge $-1 $187 -9.9785176875938628 $183 9.9785176875938628 $180 $258 forward 7 unknown #
coedge $-1 $109 $259 $255 $260 forward $101 $-1 #
vertex $-1 $181 $261 #
straight-curve $-1 -37.226747088876735 -10.669575284304514 9.9785176875938628 0 1 0 I I #
coedge $-1 $262 $111 $256 $263 forward $186 $-1 #
loop $-1 $-1 $111 $166 #
vertex $-1 $263 $264 #
straight-curve $-1 -37.226747088876735 -10.669575284304514 -9.9785176875938628 0 -1 0 I I #
point $-1 -37.226747088876735 -15.956652798758753 9.9785176875938628 #
point $-1 -37.226747088876735 -15.956652798758753 -9.9785176875938628 #
face $-1 $265 $266 $14 $-1 $267 forward single #
loop $-1 $-1 $268 $116 #
plane-surface $-1 -37.226747088876735 -21.339150568609028 0 1 0 0 0 0 -1 forward_v I I I I #
coedge $-1 $122 $269 $119 $197 forward $117 $-1 #
coedge $-1 $196 $119 $270 $271 reversed $66 $-1 #
coedge $-1 $119 $195 $120 $199 forward $66 $-1 #
edge $-1 $272 -44.329314040480696 $200 -34.076400694990639 $194 $273 forward 7 unknown #
coedge $-1 $121 $120 $204 $274 reversed $41 $-1 #
edge $-1 $275 -108.36756492812891 $200 -96.277550877252594 $196 $276 forward 7 unknown #
vertex $-1 $123 $277 #
straight-curve $-1 43.930869118574407 2.968581041522647 9.9785176875938646 0 1 0 I I #
vertex $-1 $274 $278 #
straight-curve $-1 -37.717124184537745 9.7821220715511892 60.997847284295901 0.84804809178421925 0 -0.52991927123019833 I I #
coedge $-1 $270 $125 $198 $274 forward $206 $-1 #
coedge $-1 $125 $279 $127 $209 reversed $206 $-1 #
loop $-1 $-1 $270 $280 #
straight-curve $-1 54.183782464064457 9.7821220715511892 76.449376966449051 0 0 -1 I I #
coedge $-1 $281 $127 $282 $283 forward $117 $-1 #
edge $-1 $129 9.7821220715511892 $284 26.721648338459303 $205 $285 forward 7 unknown #
point $-1 43.9308691185744 9.7821220715511892 9.9785176875938646 #
point $-1 54.183782464064457 9.7821220715511892 9.9785176875938628 #
face $-1 $286 $287 $15 $-1 $288 forward single #
loop $-1 $-1 $289 $131 #
plane-surface $-1 19.708936847167529 2.0922020945393989 152.8987539328981 0 1 0 0.52991927123019833 0 0.84804809178421925 forward_v I I I I #
loop $-1 $-1 $290 $73 #
coedge $-1 $217 $134 $291 $292 forward $74 $-1 #
coedge $-1 $134 $216 $293 $294 reversed $74 $-1 #
coedge $-1 $295 $296 $134 $219 forward $287 $-1 #
edge $-1 $297 34.076400694990639 $298 44.329314040480696 $218 $299 forward 7 unknown #
edge $-1 $300 1 $300 0 $135 $-1 forward 7 unknown #
vertex $-1 $136 $301 #
ellipse-curve $-1 47.054332184957111 5.9371620830452869 3.5696921992328052 0.52991927123019833 0 0.84804809178421925 0.84804809178421925 0 -0.52991927123019833 1 I I #
point $-1 49.905373883103636 5.9371620830452869 6.2452326988620346 #
plane-surface $-1 54.183782464064457 0 0 -1 0 0 0 0 1 forward_v I I I I #
coedge $-1 $144 $142 $146 $229 reversed $82 $-1 #
edge $-1 $157 -9.9785176875938628 $231 9.9785176875938628 $156 $302 forward 7 unknown #
vertex $-1 $229 $303 #
straight-curve $-1 -54.183782464064457 -26.721648338459303 0 0 0 -1 I I #
edge $-1 $227 -26.721648338459303 $231 26.721648338459303 $225 $304 forward 7 unknown #
straight-curve $-1 0 -26.721648338459303 -9.9785176875938628 -1 0 0 I I #
vertex $-1 $149 $305 #
straight-curve $-1 0 26.721648338459303 -9.9785176875938628 1 0 0 I I #
point $-1 54.183782464064457 26.721648338459303 -9.9785176875938628 #
point $-1 54.183782464064457 -26.721648338459303 -9.9785176875938628 #
straight-curve $-1 -54.183782464064457 0 9.9785176875938628 0 -1 0 I I #
point $-1 -54.183782464064457 26.721648338459303 9.9785176875938628 #
point $-1 -54.183782464064457 -26.721648338459303 9.9785176875938628 #
straight-curve $-1 54.183782464064457 -26.721648338459303 0 0 0 -1 I I #
straight-curve $-1 54.183782464064457 26.721648338459303 0 0 0 -1 I I #
face $-1 $306 $257 $13 $-1 $168 reversed single #
plane-surface $-1 0 0 -9.9785176875938628 0 0 1 1 0 0 forward_v I I I I #
coedge $-1 $307 $173 $169 $243 forward $101 $-1 #
edge $-1 $177 5.2870775144542392 $248 16.052073054154789 $242 $308 forward 7 unknown #
coedge $-1 $175 $309 $170 $245 forward $186 $-1 #
edge $-1 $249 -16.052073054154789 $178 -5.2870775144542392 $244 $310 forward 7 unknown #
coedge $-1 $311 $171 $309 $312 reversed $167 $-1 #
coedge $-1 $171 $311 $307 $313 reversed $167 $-1 #
vertex $-1 $313 $314 #
vertex $-1 $172 $315 #
straight-curve $-1 -34.226747088876735 -26.721648338459303 0 0 0 -1 I I #
straight-curve $-1 -17.863373544438367 -15.956652798758753 9.9785176875938628 1 0 0 I I #
straight-curve $-1 -17.863373544438367 -15.956652798758753 -9.9785176875938628 -1 0 0 I I #
point $-1 -34.226747088876735 -15.956652798758753 9.9785176875938628 #
point $-1 -34.226747088876735 -15.956652798758753 -9.9785176875938628 #
coedge $-1 $316 $180 $182 $260 reversed $257 $-1 #
coedge $-1 $180 $316 $185 $263 reversed $257 $-1 #
loop $-1 $-1 $180 $240 #
straight-curve $-1 -37.226747088876735 -26.721648338459303 0 0 0 1 I I #
coedge $-1 $182 $317 $318 $319 forward $101 $-1 #
edge $-1 $320 -54.183782464064457 $183 -37.226747088876735 $255 $321 forward 7 unknown #
point $-1 -37.226747088876735 -26.721648338459303 9.9785176875938628 #
coedge $-1 $322 $185 $323 $324 forward $186 $-1 #
edge $-1 $187 37.226747088876735 $325 54.183782464064457 $256 $326 forward 7 unknown #
point $-1 -37.226747088876735 -26.721648338459303 -9.9785176875938628 #
face $-1 $327 $328 $14 $-1 $329 forward single #
loop $-1 $-1 $330 $191 #
plane-surface $-1 -35.726747088876735 -15.956652798758753 0 0 -1 0 0 0 -1 forward_v I I I I #
coedge $-1 $331 $332 $333 $334 reversed $192 $-1 #
coedge $-1 $194 $335 $336 $337 forward $117 $-1 #
coedge $-1 $336 $204 $195 $271 forward $206 $-1 #
edge $-1 $275 -72.877590713858424 $272 -66.470859278855187 $270 $338 forward 7 unknown #
vertex $-1 $271 $339 #
straight-curve $-1 9.8544684235837643 2.0922020945393989 9.9785176875938646 -1 0 0 I I #
edge $-1 $202 -6.8135410300285422 $275 0.87637894698324814 $204 $340 forward 7 unknown #
vertex $-1 $274 $341 #
straight-curve $-1 -37.717124184537745 2.0922020945393989 60.997847284295901 -0.84804809178421925 0 0.52991927123019833 I I #
point $-1 43.9308691185744 2.0922020945393989 9.9785176875938646 #
point $-1 54.183782464064457 9.7821220715511892 3.571786252590627 #
coedge $-1 $205 $342 $343 $344 reversed $206 $-1 #
face $-1 $-1 $206 $14 $-1 $345 reversed single #
coedge $-1 $346 $208 $347 $348 forward $117 $-1 #
coedge $-1 $343 $349 $208 $283 reversed $350 $-1 #
edge $-1 $284 -54.183782464064457 $351 54.183782464064457 $282 $352 forward 7 unknown #
vertex $-1 $209 $353 #
straight-curve $-1 54.183782464064457 0 9.9785176875938628 0 1 0 I I #
face $-1 $354 $355 $15 $-1 $356 forward single #
loop $-1 $-1 $357 $212 #
plane-surface $-1 0 0 9.9785176875938628 0 0 1 1 0 0 forward_v I I I I #
coedge $-1 $358 $359 $357 $360 reversed $213 $-1 #
coedge $-1 $361 $291 $296 $362 reversed $215 $-1 #
coedge $-1 $290 $363 $216 $292 reversed $215 $-1 #
edge $-1 $297 96.277550877252594 $364 108.36756492812891 $216 $365 forward 7 unknown #
coedge $-1 $366 $367 $217 $294 forward $368 $-1 #
edge $-1 $298 66.470859278855187 $364 72.877590713858424 $293 $369 forward 7 unknown #
coedge $-1 $370 $218 $367 $371 forward $287 $-1 #
coedge $-1 $218 $357 $290 $362 forward $287 $-1 #
vertex $-1 $362 $372 #
vertex $-1 $371 $373 #
straight-curve $-1 9.8544684235837643 9.7821220715511892 9.9785176875938646 1 0 0 I I #
vertex $-1 $220 $374 #
point $-1 47.902380276741333 5.9371620830452869 3.0397729280026065 #
straight-curve $-1 -54.183782464064457 26.721648338459303 0 0 0 -1 I I #
point $-1 -54.183782464064457 -26.721648338459303 -9.9785176875938628 #
straight-curve $-1 -54.183782464064457 0 -9.9785176875938628 0 1 0 I I #
point $-1 -54.183782464064457 26.721648338459303 -9.9785176875938628 #
face $-1 $375 $376 $13 $-1 $377 reversed single #
coedge $-1 $378 $242 $247 $313 forward $101 $-1 #
straight-curve $-1 -34.226747088876735 -10.669575284304514 9.9785176875938628 0 -1 0 I I #
coedge $-1 $244 $379 $246 $312 forward $186 $-1 #
straight-curve $-1 -34.226747088876735 -10.669575284304514 -9.9785176875938628 0 1 0 I I #
coedge $-1 $247 $246 $380 $381 reversed $167 $-1 #
edge $-1 $382 -54.183782464064457 $249 34.226747088876735 $246 $326 forward 7 unknown #
edge $-1 $248 -34.226747088876735 $383 54.183782464064457 $247 $321 forward 7 unknown #
point $-1 -34.226747088876735 -26.721648338459303 9.9785176875938628 #
point $-1 -34.226747088876735 -26.721648338459303 -9.9785176875938628 #
coedge $-1 $256 $255 $384 $385 forward $257 $-1 #
coedge $-1 $259 $378 $386 $387 forward $101 $-1 #
coedge $-1 $388 $384 $259 $319 reversed $376 $-1 #
edge $-1 $389 -26.721648338459303 $320 26.721648338459303 $318 $390 forward 7 unknown #
vertex $-1 $319 $391 #
straight-curve $-1 0 -26.721648338459303 9.9785176875938628 1 0 0 I I #
coedge $-1 $379 $262 $392 $393 forward $186 $-1 #
coedge $-1 $384 $388 $262 $324 reversed $376 $-1 #
edge $-1 $325 -26.721648338459303 $394 26.721648338459303 $323 $395 forward 7 unknown #
vertex $-1 $324 $396 #
straight-curve $-1 0 -26.721648338459303 -9.9785176875938628 -1 0 0 I I #
face $-1 $397 $398 $14 $-1 $399 reversed single #
loop $-1 $-1 $400 $265 #
plane-surface $-1 -34.226747088876735 -21.339150568609028 0 -1 0 0 0 0 1 forward_v I I I I #
coedge $-1 $401 $402 $403 $404 reversed $266 $-1 #
coedge $-1 $405 $268 $406 $407 reversed $192 $-1 #
coedge $-1 $268 $405 $408 $409 reversed $192 $-1 #
coedge $-1 $402 $401 $268 $334 forward $266 $-1 #
edge $-1 $410 -9.9785176875938628 $411 9.9785176875938628 $333 $412 forward 7 unknown #
coedge $-1 $269 $413 $414 $415 forward $117 $-1 #
coedge $-1 $416 $270 $269 $337 reversed $206 $-1 #
edge $-1 $417 -26.721648338459303 $272 2.0922020945393989 $336 $285 forward 7 unknown #
straight-curve $-1 54.183782464064457 2.0922020945393989 76.449376966449051 0 0 1 I I #
point $-1 54.183782464064457 2.0922020945393989 9.9785176875938628 #
straight-curve $-1 54.183782464064464 2.968581041522647 3.5717862525906199 0 -1 0 I I #
point $-1 54.183782464064457 2.0922020945393989 3.571786252590627 #
coedge $-1 $279 $416 $418 $419 reversed $206 $-1 #
coedge $-1 $420 $282 $279 $344 forward $350 $-1 #
edge $-1 $284 -9.9785176875938628 $421 9.9785176875938628 $279 $422 forward 7 unknown #
plane-surface $-1 54.183782464064457 0 0 -1 0 0 0 0 1 forward_v I I I I #
coedge $-1 $406 $281 $423 $424 forward $117 $-1 #
coedge $-1 $425 $426 $281 $348 reversed $427 $-1 #
edge $-1 $351 -26.721648338459303 $428 26.721648338459303 $347 $429 forward 7 unknown #
coedge $-1 $282 $420 $425 $430 reversed $350 $-1 #
loop $-1 $-1 $343 $431 #
vertex $-1 $283 $432 #
straight-curve $-1 0 26.721648338459303 9.9785176875938628 -1 0 0 I I #
point $-1 54.183782464064457 26.721648338459303 9.9785176875938628 #
face $-1 $433 $434 $15 $-1 $435 forward single #
loop $-1 $-1 $436 $286 #
plane-surface $-1 -37.226747088876735 -21.339150568609028 0 1 0 0 0 0 -1 forward_v I I I I #
coedge $-1 $296 $437 $289 $360 forward $287 $-1 #
coedge $-1 $359 $289 $438 $439 reversed $213 $-1 #
coedge $-1 $289 $358 $361 $440 forward $213 $-1 #
edge $-1 $441 -44.329314040480696 $442 -34.076400694990639 $357 $443 forward 7 unknown #
coedge $-1 $363 $290 $359 $440 reversed $215 $-1 #
edge $-1 $442 -0.87637894698324814 $297 6.8135410300285422 $296 $444 forward 7 unknown #
coedge $-1 $291 $361 $366 $445 reversed $215 $-1 #
vertex $-1 $445 $446 #
straight-curve $-1 -37.717124184537745 9.7821220715511892 60.997847284295901 0.84804809178421925 0 -0.52991927123019833 I I #
coedge $-1 $438 $293 $363 $445 forward $368 $-1 #
coedge $-1 $293 $447 $295 $371 reversed $368 $-1 #
loop $-1 $-1 $438 $448 #
straight-curve $-1 54.183782464064457 9.7821220715511892 76.449376966449051 0 0 -1 I I #
coedge $-1 $449 $295 $450 $451 forward $287 $-1 #
edge $-1 $298 9.7821220715511892 $452 26.721648338459303 $367 $453 forward 7 unknown #
point $-1 43.9308691185744 9.7821220715511892 9.9785176875938646 #
point $-1 54.183782464064457 9.7821220715511892 9.9785176875938628 #
point $-1 46.524412913726913 5.9371620830452869 2.7216441074485855 #
face $-1 $454 $455 $13 $-1 $456 reversed single #
loop $-1 $-1 $388 $306 #
plane-surface $-1 -54.183782464064457 0 0 1 0 0 0 0 -1 forward_v I I I I #
coedge $-1 $317 $307 $457 $458 forward $101 $-1 #
coedge $-1 $309 $322 $459 $460 forward $186 $-1 #
coedge $-1 $459 $457 $311 $381 forward $461 $-1 #
edge $-1 $383 -9.9785176875938628 $382 9.9785176875938628 $380 $462 forward 7 unknown #
vertex $-1 $381 $463 #
vertex $-1 $458 $464 #
coedge $-1 $318 $323 $316 $385 reversed $376 $-1 #
edge $-1 $320 -9.9785176875938628 $325 9.9785176875938628 $384 $465 forward 7 unknown #
coedge $-1 $466 $467 $317 $387 reversed $455 $-1 #
edge $-1 $468 -54.183782464064457 $389 54.183782464064457 $386 $469 forward 7 unknown #
coedge $-1 $323 $318 $467 $470 forward $376 $-1 #
vertex $-1 $387 $471 #
straight-curve $-1 -54.183782464064457 0 9.9785176875938628 0 -1 0 I I #
point $-1 -54.183782464064457 -26.721648338459303 9.9785176875938628 #
coedge $-1 $467 $466 $322 $393 reversed $455 $-1 #
edge $-1 $394 -54.183782464064457 $472 54.183782464064457 $392 $473 forward 7 unknown #
vertex $-1 $393 $474 #
straight-curve $-1 -54.183782464064457 0 -9.9785176875938628 0 1 0 I I #
point $-1 -54.183782464064457 -26.721648338459303 -9.9785176875938628 #
face $-1 $475 $476 $14 $-1 $477 reversed single #
loop $-1 $-1 $478 $327 #
plane-surface $-1 0 -26.721648338459303 0 0 1 0 0 0 1 forward_v I I I I #
coedge $-1 $479 $480 $478 $481 reversed $328 $-1 #
coedge $-1 $333 $330 $482 $483 reversed $266 $-1 #
coedge $-1 $330 $333 $484 $485 reversed $266 $-1 #
coedge $-1 $480 $479 $330 $404 forward $328 $-1 #
edge $-1 $486 -9.9785176875938628 $487 9.9785176875938628 $403 $488 forward 7 unknown #
coedge $-1 $332 $331 $489 $490 reversed $192 $-1 #
coedge $-1 $482 $346 $331 $407 forward $117 $-1 #
edge $-1 $491 -16.052073054154789 $410 -5.2870775144542392 $406 $492 forward 7 unknown #
coedge $-1 $493 $484 $332 $409 forward $476 $-1 #
edge $-1 $411 5.2870775144542392 $494 16.052073054154789 $408 $495 forward 7 unknown #
vertex $-1 $407 $496 #
vertex $-1 $409 $497 #
straight-curve $-1 -37.226747088876735 -15.956652798758753 0 0 0 -1 I I #
coedge $-1 $335 $482 $479 $498 forward $117 $-1 #
coedge $-1 $478 $499 $335 $415 reversed $398 $-1 #
edge $-1 $500 -34.226747088876735 $417 54.183782464064457 $414 $501 forward 7 unknown #
coedge $-1 $342 $336 $499 $502 forward $206 $-1 #
vertex $-1 $337 $503 #
coedge $-1 $504 $505 $342 $419 forward $476 $-1 #
edge $-1 $421 -26.721648338459303 $506 26.721648338459303 $342 $507 forward 7 unknown #
coedge $-1 $349 $343 $505 $508 reversed $350 $-1 #
vertex $-1 $419 $509 #
straight-curve $-1 54.183782464064457 26.721648338459303 0 0 0 -1 I I #
coedge $-1 $510 $489 $346 $424 reversed $511 $-1 #
edge $-1 $428 -54.183782464064457 $491 -37.226747088876735 $423 $501 forward 7 unknown #
coedge $-1 $512 $347 $349 $430 forward $427 $-1 #
coedge $-1 $347 $512 $510 $513 reversed $427 $-1 #
loop $-1 $-1 $425 $514 #
vertex $-1 $348 $515 #
straight-curve $-1 -54.183782464064457 0 9.9785176875938628 0 -1 0 I I #
edge $-1 $351 -9.9785176875938628 $516 9.9785176875938628 $349 $517 forward 7 unknown #
face $-1 $280 $350 $14 $-1 $518 reversed single #
point $-1 -54.183782464064457 26.721648338459303 9.9785176875938628 #
face $-1 $519 $520 $15 $-1 $521 forward single #
loop $-1 $-1 $522 $354 #
plane-surface $-1 -35.726747088876735 -15.956652798758753 0 0 -1 0 0 0 -1 forward_v I I I I #
coedge $-1 $523 $524 $525 $526 reversed $355 $-1 #
coedge $-1 $357 $527 $528 $529 forward $287 $-1 #
coedge $-1 $528 $366 $358 $439 forward $368 $-1 #
edge $-1 $530 -72.877590713858424 $441 -66.470859278855187 $438 $531 forward 7 unknown #
edge $-1 $530 -108.36756492812891 $442 -96.277550877252594 $359 $532 forward 7 unknown #
vertex $-1 $439 $533 #
vertex $-1 $362 $534 #
straight-curve $-1 9.8544684235837643 2.0922020945393989 9.9785176875938646 -1 0 0 I I #
straight-curve $-1 43.930869118574407 2.968581041522647 9.9785176875938646 0 1 0 I I #
edge $-1 $364 -6.8135410300285422 $530 0.87637894698324814 $366 $535 forward 7 unknown #
point $-1 54.183782464064457 9.7821220715511892 3.571786252590627 #
coedge $-1 $367 $536 $537 $538 reversed $368 $-1 #
face $-1 $-1 $368 $15 $-1 $539 reversed single #
coedge $-1 $540 $370 $541 $542 forward $287 $-1 #
coedge $-1 $537 $543 $370 $451 reversed $544 $-1 #
edge $-1 $452 -54.183782464064457 $545 54.183782464064457 $450 $546 forward 7 unknown #
vertex $-1 $371 $547 #
straight-curve $-1 54.183782464064457 0 9.9785176875938628 0 1 0 I I #
face $-1 $-1 $461 $13 $-1 $548 reversed single #
loop $-1 $-1 $466 $375 #
plane-surface $-1 0 26.721648338459303 0 0 -1 0 0 0 -1 forward_v I I I I #
coedge $-1 $380 $549 $378 $458 reversed $461 $-1 #
edge $-1 $383 -26.721648338459303 $468 26.721648338459303 $457 $550 forward 7 unknown #
coedge $-1 $549 $380 $379 $460 reversed $461 $-1 #
edge $-1 $472 -26.721648338459303 $382 26.721648338459303 $459 $551 forward 7 unknown #
loop $-1 $-1 $380 $454 #
straight-curve $-1 54.183782464064457 -26.721648338459303 0 0 0 -1 I I #
point $-1 54.183782464064457 -26.721648338459303 -9.9785176875938628 #
point $-1 54.183782464064457 -26.721648338459303 9.9785176875938628 #
straight-curve $-1 -54.183782464064457 -26.721648338459303 0 0 0 -1 I I #
coedge $-1 $392 $386 $549 $552 forward $455 $-1 #
coedge $-1 $386 $392 $388 $470 reversed $455 $-1 #
vertex $-1 $458 $553 #
straight-curve $-1 0 26.721648338459303 9.9785176875938628 -1 0 0 I I #
edge $-1 $389 -9.9785176875938628 $394 9.9785176875938628 $467 $554 forward 7 unknown #
point $-1 -54.183782464064457 26.721648338459303 9.9785176875938628 #
vertex $-1 $460 $555 #
straight-curve $-1 0 26.721648338459303 -9.9785176875938628 1 0 0 I I #
point $-1 -54.183782464064457 26.721648338459303 -9.9785176875938628 #
face $-1 $514 $511 $14 $-1 $399 reversed single #
loop $-1 $-1 $408 $397 #
plane-surface $-1 0 0 -9.9785176875938628 0 0 1 1 0 0 forward_v I I I I #
coedge $-1 $556 $414 $400 $481 forward $398 $-1 #
coedge $-1 $403 $400 $413 $498 reversed $328 $-1 #
coedge $-1 $400 $403 $557 $558 reversed $328 $-1 #
edge $-1 $500 -9.9785176875938628 $559 9.9785176875938628 $478 $560 forward 7 unknown #
coedge $-1 $413 $406 $401 $483 forward $117 $-1 #
edge $-1 $410 -19.363373544438367 $486 -16.363373544438367 $482 $561 forward 7 unknown #
coedge $-1 $408 $557 $402 $485 forward $476 $-1 #
edge $-1 $487 16.363373544438367 $411 19.363373544438367 $484 $562 forward 7 unknown #
vertex $-1 $483 $563 #
vertex $-1 $485 $564 #
straight-curve $-1 -34.226747088876735 -15.956652798758753 0 0 0 -1 I I #
coedge $-1 $423 $565 $405 $490 forward $511 $-1 #
edge $-1 $494 -9.9785176875938628 $491 9.9785176875938628 $489 $566 forward 7 unknown #
vertex $-1 $490 $567 #
straight-curve $-1 -37.226747088876735 -10.669575284304514 9.9785176875938628 0 1 0 I I #
coedge $-1 $568 $408 $565 $569 forward $476 $-1 #
vertex $-1 $569 $570 #
straight-curve $-1 -37.226747088876735 -10.669575284304514 -9.9785176875938628 0 -1 0 I I #
point $-1 -37.226747088876735 -15.956652798758753 9.9785176875938628 #
point $-1 -37.226747088876735 -15.956652798758753 -9.9785176875938628 #
edge $-1 $486 5.2870775144542392 $500 16.052073054154789 $413 $571 forward 7 unknown #
coedge $-1 $414 $556 $416 $502 reversed $398 $-1 #
vertex $-1 $415 $572 #
straight-curve $-1 0 -26.721648338459303 9.9785176875938628 1 0 0 I I #
edge $-1 $417 -9.9785176875938628 $506 9.9785176875938628 $416 $573 forward 7 unknown #
point $-1 54.183782464064457 -26.721648338459303 9.9785176875938628 #
coedge $-1 $557 $418 $556 $574 forward $476 $-1 #
coedge $-1 $418 $568 $420 $508 forward $476 $-1 #
vertex $-1 $502 $575 #
straight-curve $-1 54.183782464064457 0 -9.9785176875938628 0 -1 0 I I #
edge $-1 $516 -54.183782464064457 $421 54.183782464064457 $420 $576 forward 7 unknown #
point $-1 54.183782464064457 26.721648338459303 -9.9785176875938628 #
coedge $-1 $565 $423 $426 $513 forward $511 $-1 #
loop $-1 $-1 $489 $475 #
coedge $-1 $426 $425 $568 $577 reversed $427 $-1 #
edge $-1 $428 -9.9785176875938628 $578 9.9785176875938628 $426 $579 forward 7 unknown #
face $-1 $431 $427 $14 $-1 $580 reversed single #
point $-1 -54.183782464064457 -26.721648338459303 9.9785176875938628 #
vertex $-1 $508 $581 #
straight-curve $-1 -54.183782464064457 26.721648338459303 0 0 0 -1 I I #
plane-surface $-1 0 26.721648338459303 0 0 -1 0 0 0 -1 forward_v I I I I #
face $-1 $582 $583 $15 $-1 $584 reversed single #
loop $-1 $-1 $585 $433 #
plane-surface $-1 -34.226747088876735 -21.339150568609028 0 -1 0 0 0 0 1 forward_v I I I I #
coedge $-1 $586 $587 $588 $589 reversed $434 $-1 #
coedge $-1 $590 $436 $591 $592 reversed $355 $-1 #
coedge $-1 $436 $590 $593 $594 reversed $355 $-1 #
coedge $-1 $587 $586 $436 $526 forward $434 $-1 #
edge $-1 $595 -9.9785176875938628 $596 9.9785176875938628 $525 $597 forward 7 unknown #
coedge $-1 $437 $598 $599 $600 forward $287 $-1 #
coedge $-1 $601 $438 $437 $529 reversed $368 $-1 #
edge $-1 $602 -26.721648338459303 $441 2.0922020945393989 $528 $453 forward 7 unknown #
vertex $-1 $445 $603 #
straight-curve $-1 54.183782464064457 2.0922020945393989 76.449376966449051 0 0 1 I I #
straight-curve $-1 -37.717124184537745 2.0922020945393989 60.997847284295901 -0.84804809178421925 0 0.52991927123019833 I I #
point $-1 54.183782464064457 2.0922020945393989 9.9785176875938628 #
point $-1 43.9308691185744 2.0922020945393989 9.9785176875938646 #
straight-curve $-1 54.183782464064464 2.968581041522647 3.5717862525906199 0 -1 0 I I #
coedge $-1 $447 $601 $604 $605 reversed $368 $-1 #
coedge $-1 $606 $450 $447 $538 forward $544 $-1 #
edge $-1 $452 -9.9785176875938628 $607 9.9785176875938628 $447 $608 forward 7 unknown #
plane-surface $-1 54.183782464064457 0 0 -1 0 0 0 0 1 forward_v I I I I #
coedge $-1 $591 $449 $609 $610 forward $287 $-1 #
coedge $-1 $611 $612 $449 $542 reversed $613 $-1 #
edge $-1 $545 -26.721648338459303 $614 26.721648338459303 $541 $615 forward 7 unknown #
coedge $-1 $450 $606 $611 $616 reversed $544 $-1 #
loop $-1 $-1 $537 $617 #
vertex $-1 $451 $618 #
straight-curve $-1 0 26.721648338459303 9.9785176875938628 -1 0 0 I I #
point $-1 54.183782464064457 26.721648338459303 9.9785176875938628 #
plane-surface $-1 54.183782464064457 0 0 -1 0 0 0 0 1 forward_v I I I I #
coedge $-1 $457 $459 $466 $552 reversed $461 $-1 #
straight-curve $-1 54.183782464064457 0 9.9785176875938628 0 1 0 I I #
straight-curve $-1 54.183782464064457 0 -9.9785176875938628 0 -1 0 I I #
edge $-1 $468 -9.9785176875938628 $472 9.9785176875938628 $549 $619 forward 7 unknown #
point $-1 54.183782464064457 26.721648338459303 9.9785176875938628 #
straight-curve $-1 -54.183782464064457 26.721648338459303 0 0 0 -1 I I #
point $-1 54.183782464064457 26.721648338459303 -9.9785176875938628 #
coedge $-1 $499 $478 $504 $574 reversed $398 $-1 #
coedge $-1 $484 $504 $480 $558 forward $476 $-1 #
edge $-1 $559 -16.052073054154789 $487 -5.2870775144542392 $557 $620 forward 7 unknown #
vertex $-1 $481 $621 #
straight-curve $-1 -34.226747088876735 -26.721648338459303 0 0 0 -1 I I #
straight-curve $-1 -17.863373544438367 -15.956652798758753 9.9785176875938628 1 0 0 I I #
straight-curve $-1 -17.863373544438367 -15.956652798758753 -9.9785176875938628 -1 0 0 I I #
point $-1 -34.226747088876735 -15.956652798758753 9.9785176875938628 #
point $-1 -34.226747088876735 -15.956652798758753 -9.9785176875938628 #
coedge $-1 $489 $510 $493 $569 reversed $511 $-1 #
straight-curve $-1 -37.226747088876735 -26.721648338459303 0 0 0 1 I I #
point $-1 -37.226747088876735 -26.721648338459303 9.9785176875938628 #
coedge $-1 $505 $493 $512 $577 forward $476 $-1 #
edge $-1 $494 37.226747088876735 $578 54.183782464064457 $565 $622 forward 7 unknown #
point $-1 -37.226747088876735 -26.721648338459303 -9.9785176875938628 #
straight-curve $-1 -34.226747088876735 -10.669575284304514 9.9785176875938628 0 -1 0 I I #
point $-1 -34.226747088876735 -26.721648338459303 9.9785176875938628 #
straight-curve $-1 54.183782464064457 -26.721648338459303 0 0 0 -1 I I #
edge $-1 $506 -54.183782464064457 $559 34.226747088876735 $556 $622 forward 7 unknown #
point $-1 54.183782464064457 -26.721648338459303 -9.9785176875938628 #
straight-curve $-1 0 26.721648338459303 -9.9785176875938628 1 0 0 I I #
edge $-1 $578 -26.721648338459303 $516 26.721648338459303 $512 $623 forward 7 unknown #
vertex $-1 $577 $624 #
straight-curve $-1 -54.183782464064457 -26.721648338459303 0 0 0 -1 I I #
plane-surface $-1 -54.183782464064457 0 0 1 0 0 0 0 -1 forward_v I I I I #
point $-1 -54.183782464064457 26.721648338459303 -9.9785176875938628 #
face $-1 $625 $626 $15 $-1 $627 reversed single #
loop $-1 $-1 $628 $519 #
plane-surface $-1 0 -26.721648338459303 0 0 1 0 0 0 1 forward_v I I I I #
coedge $-1 $629 $630 $628 $631 reversed $520 $-1 #
coedge $-1 $525 $522 $632 $633 reversed $434 $-1 #
coedge $-1 $522 $525 $634 $635 reversed $434 $-1 #
coedge $-1 $630 $629 $522 $589 forward $520 $-1 #
edge $-1 $636 -9.9785176875938628 $637 9.9785176875938628 $588 $638 forward 7 unknown #
coedge $-1 $524 $523 $639 $640 reversed $355 $-1 #
coedge $-1 $632 $540 $523 $592 forward $287 $-1 #
edge $-1 $641 -16.052073054154789 $595 -5.2870775144542392 $591 $642 forward 7 unknown #
coedge $-1 $643 $634 $524 $594 forward $626 $-1 #
edge $-1 $596 5.2870775144542392 $644 16.052073054154789 $593 $645 forward 7 unknown #
vertex $-1 $592 $646 #
vertex $-1 $594 $647 #
straight-curve $-1 -37.226747088876735 -15.956652798758753 0 0 0 -1 I I #
coedge $-1 $527 $632 $629 $648 forward $287 $-1 #
coedge $-1 $628 $649 $527 $600 reversed $583 $-1 #
edge $-1 $650 -34.226747088876735 $602 54.183782464064457 $599 $651 forward 7 unknown #
coedge $-1 $536 $528 $649 $652 forward $368 $-1 #
vertex $-1 $529 $653 #
point $-1 54.183782464064457 2.0922020945393989 3.571786252590627 #
coedge $-1 $654 $655 $536 $605 forward $626 $-1 #
edge $-1 $607 -26.721648338459303 $656 26.721648338459303 $536 $657 forward 7 unknown #
coedge $-1 $543 $537 $655 $658 reversed $544 $-1 #
vertex $-1 $605 $659 #
straight-curve $-1 54.183782464064457 26.721648338459303 0 0 0 -1 I I #
coedge $-1 $660 $639 $540 $610 reversed $661 $-1 #
edge $-1 $614 -54.183782464064457 $641 -37.226747088876735 $609 $651 forward 7 unknown #
coedge $-1 $662 $541 $543 $616 forward $613 $-1 #
coedge $-1 $541 $662 $660 $663 reversed $613 $-1 #
loop $-1 $-1 $611 $664 #
vertex $-1 $542 $665 #
straight-curve $-1 -54.183782464064457 0 9.9785176875938628 0 -1 0 I I #
edge $-1 $545 -9.9785176875938628 $666 9.9785176875938628 $543 $667 forward 7 unknown #
face $-1 $448 $544 $15 $-1 $668 reversed single #
point $-1 -54.183782464064457 26.721648338459303 9.9785176875938628 #
straight-curve $-1 54.183782464064457 26.721648338459303 0 0 0 -1 I I #
straight-curve $-1 -34.226747088876735 -10.669575284304514 -9.9785176875938628 0 1 0 I I #
point $-1 -34.226747088876735 -26.721648338459303 -9.9785176875938628 #
straight-curve $-1 0 -26.721648338459303 -9.9785176875938628 -1 0 0 I I #
straight-curve $-1 -54.183782464064457 0 -9.9785176875938628 0 1 0 I I #
point $-1 -54.183782464064457 -26.721648338459303 -9.9785176875938628 #
face $-1 $664 $661 $15 $-1 $584 reversed single #
loop $-1 $-1 $593 $582 #
plane-surface $-1 0 0 -9.9785176875938628 0 0 1 1 0 0 forward_v I I I I #
coedge $-1 $669 $599 $585 $631 forward $583 $-1 #
coedge $-1 $588 $585 $598 $648 reversed $520 $-1 #
coedge $-1 $585 $588 $670 $671 reversed $520 $-1 #
edge $-1 $650 -9.9785176875938628 $672 9.9785176875938628 $628 $673 forward 7 unknown #
coedge $-1 $598 $591 $586 $633 forward $287 $-1 #
edge $-1 $595 -19.363373544438367 $636 -16.363373544438367 $632 $674 forward 7 unknown #
coedge $-1 $593 $670 $587 $635 forward $626 $-1 #
edge $-1 $637 16.363373544438367 $596 19.363373544438367 $634 $675 forward 7 unknown #
vertex $-1 $633 $676 #
vertex $-1 $635 $677 #
straight-curve $-1 -34.226747088876735 -15.956652798758753 0 0 0 -1 I I #
coedge $-1 $609 $678 $590 $640 forward $661 $-1 #
edge $-1 $644 -9.9785176875938628 $641 9.9785176875938628 $639 $679 forward 7 unknown #
vertex $-1 $640 $680 #
straight-curve $-1 -37.226747088876735 -10.669575284304514 9.9785176875938628 0 1 0 I I #
coedge $-1 $681 $593 $678 $682 forward $626 $-1 #
vertex $-1 $682 $683 #
straight-curve $-1 -37.226747088876735 -10.669575284304514 -9.9785176875938628 0 -1 0 I I #
point $-1 -37.226747088876735 -15.956652798758753 9.9785176875938628 #
point $-1 -37.226747088876735 -15.956652798758753 -9.9785176875938628 #
edge $-1 $636 5.2870775144542392 $650 16.052073054154789 $598 $684 forward 7 unknown #
coedge $-1 $599 $669 $601 $652 reversed $583 $-1 #
vertex $-1 $600 $685 #
straight-curve $-1 0 -26.721648338459303 9.9785176875938628 1 0 0 I I #
edge $-1 $602 -9.9785176875938628 $656 9.9785176875938628 $601 $686 forward 7 unknown #
point $-1 54.183782464064457 -26.721648338459303 9.9785176875938628 #
coedge $-1 $670 $604 $669 $687 forward $626 $-1 #
coedge $-1 $604 $681 $606 $658 forward $626 $-1 #
vertex $-1 $652 $688 #
straight-curve $-1 54.183782464064457 0 -9.9785176875938628 0 -1 0 I I #
edge $-1 $666 -54.183782464064457 $607 54.183782464064457 $606 $689 forward 7 unknown #
point $-1 54.183782464064457 26.721648338459303 -9.9785176875938628 #
coedge $-1 $678 $609 $612 $663 forward $661 $-1 #
loop $-1 $-1 $639 $625 #
coedge $-1 $612 $611 $681 $690 reversed $613 $-1 #
edge $-1 $614 -9.9785176875938628 $691 9.9785176875938628 $612 $692 forward 7 unknown #
face $-1 $617 $613 $15 $-1 $693 reversed single #
point $-1 -54.183782464064457 -26.721648338459303 9.9785176875938628 #
vertex $-1 $658 $694 #
straight-curve $-1 -54.183782464064457 26.721648338459303 0 0 0 -1 I I #
plane-surface $-1 0 26.721648338459303 0 0 -1 0 0 0 -1 forward_v I I I I #
coedge $-1 $649 $628 $654 $687 reversed $583 $-1 #
coedge $-1 $634 $654 $630 $671 forward $626 $-1 #
edge $-1 $672 -16.052073054154789 $637 -5.2870775144542392 $670 $695 forward 7 unknown #
vertex $-1 $631 $696 #
straight-curve $-1 -34.226747088876735 -26.721648338459303 0 0 0 -1 I I #
straight-curve $-1 -17.863373544438367 -15.956652798758753 9.9785176875938628 1 0 0 I I #
straight-curve $-1 -17.863373544438367 -15.956652798758753 -9.9785176875938628 -1 0 0 I I #
point $-1 -34.226747088876735 -15.956652798758753 9.9785176875938628 #
point $-1 -34.226747088876735 -15.956652798758753 -9.9785176875938628 #
coedge $-1 $639 $660 $643 $682 reversed $661 $-1 #
straight-curve $-1 -37.226747088876735 -26.721648338459303 0 0 0 1 I I #
point $-1 -37.226747088876735 -26.721648338459303 9.9785176875938628 #
coedge $-1 $655 $643 $662 $690 forward $626 $-1 #
edge $-1 $644 37.226747088876735 $691 54.183782464064457 $678 $697 forward 7 unknown #
point $-1 -37.226747088876735 -26.721648338459303 -9.9785176875938628 #
straight-curve $-1 -34.226747088876735 -10.669575284304514 9.9785176875938628 0 -1 0 I I #
point $-1 -34.226747088876735 -26.721648338459303 9.9785176875938628 #
straight-curve $-1 54.183782464064457 -26.721648338459303 0 0 0 -1 I I #
edge $-1 $656 -54.183782464064457 $672 34.226747088876735 $669 $697 forward 7 unknown #
point $-1 54.183782464064457 -26.721648338459303 -9.9785176875938628 #
straight-curve $-1 0 26.721648338459303 -9.9785176875938628 1 0 0 I I #
edge $-1 $691 -26.721648338459303 $666 26.721648338459303 $662 $698 forward 7 unknown #
vertex $-1 $690 $699 #
straight-curve $-1 -54.183782464064457 -26.721648338459303 0 0 0 -1 I I #
plane-surface $-1 -54.183782464064457 0 0 1 0 0 0 0 -1 forward_v I I I I #
point $-1 -54.183782464064457 26.721648338459303 -9.9785176875938628 #
straight-curve $-1 -34.226747088876735 -10.669575284304514 -9.9785176875938628 0 1 0 I I #
point $-1 -34.226747088876735 -26.721648338459303 -9.9785176875938628 #
straight-curve $-1 0 -26.721648338459303 -9.9785176875938628 -1 0 0 I I #
straight-curve $-1 -54.183782464064457 0 -9.9785176875938628 0 1 0 I I #
point $-1 -54.183782464064457 -26.721648338459303 -9.9785176875938628 #
End-of-ACIS-data 