500 0 8 0           
7 Unknown 11 ACIS 5.0 NT 24 Thu Mar 25 17:03:33 1999 
-1 9.9999999999999995e-007 1e-010 
body $-1 $8 $-1 $9 #
body $-1 $10 $-1 $11 #
body $-1 $12 $-1 $13 #
body $-1 $14 $-1 $15 #
body $-1 $16 $-1 $17 #
body $-1 $18 $-1 $19 #
body $-1 $20 $-1 $21 #
body $-1 $22 $-1 $23 #
lump $-1 $-1 $24 $0 #
transform $-1 1 0 0 0 1 0 0 0 1 68.260139774773393 31.058186525715481 13.118048337613976 1 rotate no_reflect no_shear #
lump $-1 $-1 $25 $1 #
transform $-1 1 0 0 0 1 0 0 0 1 68.260139774773393 31.058186525715481 13.118048337613976 1 rotate no_reflect no_shear #
lump $-1 $-1 $26 $2 #
transform $-1 1 0 0 0 1 0 0 0 1 68.260139774773393 31.058186525715481 13.118048337613976 1 rotate no_reflect no_shear #
lump $-1 $-1 $27 $3 #
transform $-1 1 0 0 0 1 0 0 0 1 68.260139774773393 31.058186525715481 13.118048337613976 1 rotate no_reflect no_shear #
lump $-1 $-1 $28 $4 #
transform $-1 1 0 0 0 1 0 0 0 1 68.260139774773393 31.058186525715481 13.118048337613976 1 rotate no_reflect no_shear #
lump $-1 $-1 $29 $5 #
transform $-1 1 0 0 0 1 0 0 0 1 68.260139774773393 31.058186525715481 13.118048337613976 1 rotate no_reflect no_shear #
lump $-1 $-1 $30 $6 #
transform $-1 1 0 0 0 1 0 0 0 1 68.260139774773393 31.058186525715481 13.118048337613976 1 rotate no_reflect no_shear #
lump $-1 $-1 $31 $7 #
transform $-1 1 0 0 0 1 0 0 0 1 68.260139774773393 31.058186525715481 13.118048337613976 1 rotate no_reflect no_shear #
shell $-1 $-1 $-1 $32 $-1 $8 #
shell $-1 $-1 $-1 $33 $-1 $10 #
shell $-1 $-1 $-1 $34 $-1 $12 #
shell $-1 $-1 $-1 $35 $-1 $14 #
shell $-1 $-1 $-1 $36 $-1 $16 #
shell $-1 $-1 $-1 $37 $-1 $18 #
shell $-1 $-1 $-1 $38 $-1 $20 #
shell $-1 $-1 $-1 $39 $-1 $22 #
face $-1 $40 $41 $24 $-1 $42 forward single #
face $-1 $43 $44 $25 $-1 $45 forward single #
face $-1 $46 $47 $26 $-1 $48 forward single #
face $-1 $49 $50 $27 $-1 $51 reversed single #
face $-1 $52 $53 $28 $-1 $54 forward single #
face $-1 $55 $56 $29 $-1 $57 reversed single #
face $-1 $58 $59 $30 $-1 $60 forward single #
face $-1 $61 $62 $31 $-1 $63 forward single #
face $-1 $64 $65 $24 $-1 $66 reversed single #
loop $-1 $-1 $67 $32 #
plane-surface $-1 0 0 13.118048337613976 0 0 1 1 0 0 forward_v I I I I #
face $-1 $68 $69 $25 $-1 $70 reversed single #
loop $-1 $-1 $71 $33 #
plane-surface $-1 0 -23.509894088691659 -1.4162115700512503 0 0 1 1 0 0 forward_v I I I I #
face $-1 $72 $73 $26 $-1 $74 reversed single #
loop $-1 $-1 $75 $34 #
plane-surface $-1 0 23.509894088691656 -1.4162115700512503 0 0 1 1 0 0 forward_v I I I I #
face $-1 $76 $77 $27 $-1 $78 reversed single #
loop $-1 $-1 $79 $35 #
plane-surface $-1 58.15569997795582 7.2197415725954563 199.95792276320486 0 1 0 0.66913061440640931 0 0.74314481823134659 forward_v I I I I #
face $-1 $80 $81 $28 $-1 $82 forward single #
loop $-1 $83 $84 $36 #
cone-surface $-1 63.645138516677534 11.590671612131647 8.6887906348093882 -0.66913061440640931 0 -0.74314481823134659 1.4862896364626932 0 -1.3382612288128186 1 I I 0 1 2 forward I I I I #
face $-1 $85 $86 $29 $-1 $87 reversed single #
loop $-1 $-1 $88 $37 #
plane-surface $-1 -177.29008398735914 -6.4723154516528911 91.621519280376603 0 -1 0 0.79863551827123203 0 -0.60181501223851219 forward_v I I I I #
face $-1 $89 $90 $30 $-1 $91 forward single #
loop $-1 $92 $93 $38 #
cone-surface $-1 -66.37612078611059 -11.388838922941421 10.908252159915909 0.79863551827123203 0 -0.60181501223851219 0.3009075061192561 0 0.39931775913561601 1 I I 0 1 0.5 forward I I I I #
face $-1 $94 $95 $31 $-1 $96 forward single #
loop $-1 $97 $98 $39 #
cone-surface $-1 -66.37612078611059 -8.4389248401683048 10.908252159915909 0.79863551827123203 0 -0.60181501223851219 0.3009075061192561 0 0.39931775913561601 1 I I 0 1 0.5 forward I I I I #
face $-1 $99 $100 $24 $-1 $101 reversed single #
loop $-1 $-1 $102 $40 #
plane-surface $-1 0 0 -13.118048337613976 0 0 1 1 0 0 forward_v I I I I #
coedge $-1 $103 $104 $105 $106 forward $41 $-1 #
face $-1 $107 $108 $25 $-1 $109 reversed single #
loop $-1 $-1 $110 $43 #
plane-surface $-1 0 -23.509894088691659 -6.8292530927075381 0 0 1 1 0 0 forward_v I I I I #
coedge $-1 $111 $112 $113 $114 reversed $44 $-1 #
face $-1 $115 $116 $26 $-1 $117 reversed single #
loop $-1 $-1 $118 $46 #
plane-surface $-1 0 23.509894088691656 -6.8292530927075381 0 0 1 1 0 0 forward_v I I I I #
coedge $-1 $119 $120 $121 $122 reversed $47 $-1 #
face $-1 $123 $124 $27 $-1 $125 reversed single #
loop $-1 $-1 $126 $49 #
plane-surface $-1 -33.194198555967176 11.590671612131647 98.503584432464294 0.66913061440640931 0 0.74314481823134659 0.74314481823134659 0 -0.66913061440640931 forward_v I I I I #
coedge $-1 $127 $128 $129 $130 reversed $50 $-1 #
face $-1 $-1 $131 $28 $-1 $132 forward single #
loop $-1 $133 $134 $52 #
cone-surface $-1 61.673054355953155 11.590671612131647 6.4985693333097831 -0.66913061440640931 0 -0.74314481823134659 0.74314481823134659 0 -0.66913061440640931 1 I I -0.70710678118654746 0.70710678118654746 1 forward I I I I #
loop $-1 $-1 $135 $36 #
coedge $-1 $84 $84 $136 $137 reversed $53 $-1 #
face $-1 $138 $139 $29 $-1 $140 reversed single #
loop $-1 $-1 $141 $55 #
plane-surface $-1 -68.260139774773364 -9.9138818815548611 9.4615655724609979 -0.79863551827123203 0 0.60181501223851219 0.60181501223851219 0 0.79863551827123203 forward_v I I I I #
coedge $-1 $142 $143 $144 $145 reversed $56 $-1 #
face $-1 $-1 $146 $30 $-1 $147 forward single #
loop $-1 $148 $149 $58 #
cone-surface $-1 -65.670121577116049 -11.388838922941421 10.376243611734695 0.79863551827123203 0 -0.60181501223851219 0.15045375305962805 0 0.19965887956780801 1 I I -0.70710678118654746 0.70710678118654746 0.25 forward I I I I #
loop $-1 $-1 $150 $38 #
coedge $-1 $93 $93 $151 $152 reversed $59 $-1 #
face $-1 $-1 $153 $31 $-1 $154 forward single #
loop $-1 $155 $156 $61 #
cone-surface $-1 -65.670121577116049 -8.4389248401683048 10.376243611734695 0.79863551827123203 0 -0.60181501223851219 0.15045375305962805 0 0.19965887956780801 1 I I -0.70710678118654746 0.70710678118654746 0.25 forward I I I I #
loop $-1 $-1 $157 $39 #
coedge $-1 $98 $98 $158 $159 reversed $62 $-1 #
face $-1 $160 $161 $24 $-1 $162 reversed single #
loop $-1 $-1 $163 $64 #
plane-surface $-1 0 -31.058186525715481 0 0 1 0 0 0 1 forward_v I I I I #
coedge $-1 $164 $165 $166 $167 forward $65 $-1 #
coedge $-1 $168 $67 $169 $170 forward $41 $-1 #
coedge $-1 $67 $168 $171 $172 forward $41 $-1 #
coedge $-1 $173 $174 $67 $106 reversed $175 $-1 #
edge $-1 $176 -31.058186525715481 $177 31.058186525715481 $105 $178 forward 7 unknown #
face $-1 $179 $180 $25 $-1 $181 reversed single #
loop $-1 $-1 $182 $68 #
plane-surface $-1 0 -15.961601651667838 -4.1227323313793942 0 -1 0 0 0 -1 forward_v I I I I #
coedge $-1 $183 $184 $185 $186 reversed $69 $-1 #
coedge $-1 $187 $71 $188 $189 forward $44 $-1 #
coedge $-1 $71 $187 $190 $191 reversed $44 $-1 #
coedge $-1 $192 $193 $71 $114 forward $194 $-1 #
edge $-1 $195 4.2066546073220081 $196 19.303239481369651 $113 $197 forward 7 unknown #
face $-1 $198 $199 $26 $-1 $200 reversed single #
loop $-1 $-1 $201 $72 #
plane-surface $-1 0 15.961601651667834 -4.1227323313793942 0 1 0 0 0 1 forward_v I I I I #
coedge $-1 $202 $203 $204 $205 reversed $73 $-1 #
coedge $-1 $206 $75 $207 $208 reversed $47 $-1 #
coedge $-1 $75 $206 $209 $210 forward $47 $-1 #
coedge $-1 $211 $212 $75 $122 forward $199 $-1 #
edge $-1 $213 -19.303239481369651 $214 -4.2066546073220064 $121 $215 forward 7 unknown #
face $-1 $216 $217 $27 $-1 $218 forward single #
loop $-1 $-1 $219 $76 #
plane-surface $-1 58.15569997795582 15.961601651667838 199.95792276320486 0 -1 0 -0.66913061440640931 0 -0.74314481823134659 forward_v I I I I #
coedge $-1 $220 $221 $222 $223 reversed $77 $-1 #
coedge $-1 $128 $79 $224 $225 reversed $50 $-1 #
coedge $-1 $79 $127 $220 $226 reversed $50 $-1 #
coedge $-1 $222 $227 $79 $130 forward $228 $-1 #
edge $-1 $229 86.860913043988461 $230 92.825275483061134 $129 $231 forward 7 unknown #
loop $-1 $-1 $136 $80 #
plane-surface $-1 -33.194198555967176 11.590671612131647 98.503584432464294 0.66913061440640931 0 0.74314481823134659 0.74314481823134659 0 -0.66913061440640931 forward_v I I I I #
loop $-1 $-1 $232 $52 #
coedge $-1 $134 $134 $135 $233 reversed $81 $-1 #
coedge $-1 $135 $135 $134 $233 forward $83 $-1 #
coedge $-1 $136 $136 $84 $137 forward $131 $-1 #
edge $-1 $234 0 $234 6.2831853071796004 $136 $235 forward 7 unknown #
face $-1 $236 $237 $29 $-1 $238 reversed single #
loop $-1 $-1 $239 $85 #
plane-surface $-1 -177.29008398735914 -13.355448311456831 91.621519280376603 0 1 0 -0.79863551827123203 0 0.60181501223851219 forward_v I I I I #
coedge $-1 $240 $241 $242 $243 reversed $86 $-1 #
coedge $-1 $143 $88 $244 $245 reversed $56 $-1 #
coedge $-1 $88 $142 $240 $246 reversed $56 $-1 #
coedge $-1 $242 $247 $88 $145 forward $237 $-1 #
edge $-1 $248 32.692711302574324 $249 36.349194067727339 $144 $250 forward 7 unknown #
loop $-1 $-1 $151 $89 #
plane-surface $-1 -68.260139774773364 -9.9138818815548611 9.4615655724609979 -0.79863551827123203 0 0.60181501223851219 0.60181501223851219 0 0.79863551827123203 forward_v I I I I #
loop $-1 $-1 $251 $58 #
coedge $-1 $149 $149 $150 $252 reversed $90 $-1 #
coedge $-1 $150 $150 $149 $252 forward $92 $-1 #
coedge $-1 $151 $151 $93 $152 forward $146 $-1 #
edge $-1 $253 0 $253 6.2831853071796004 $151 $254 forward 7 unknown #
loop $-1 $-1 $158 $94 #
plane-surface $-1 -68.260139774773364 -9.9138818815548611 9.4615655724609979 -0.79863551827123203 0 0.60181501223851219 0.60181501223851219 0 0.79863551827123203 forward_v I I I I #
loop $-1 $-1 $255 $61 #
coedge $-1 $156 $156 $157 $256 reversed $95 $-1 #
coedge $-1 $157 $157 $156 $256 forward $97 $-1 #
coedge $-1 $158 $158 $98 $159 forward $153 $-1 #
edge $-1 $257 0 $257 6.2831853071796004 $158 $258 forward 7 unknown #
face $-1 $259 $260 $24 $-1 $261 reversed single #
loop $-1 $-1 $262 $99 #
plane-surface $-1 -68.260139774773393 0 0 1 0 0 0 0 -1 forward_v I I I I #
coedge $-1 $263 $171 $264 $265 forward $100 $-1 #
coedge $-1 $266 $102 $263 $267 forward $65 $-1 #
coedge $-1 $102 $266 $268 $269 forward $65 $-1 #
coedge $-1 $174 $173 $102 $167 reversed $175 $-1 #
edge $-1 $270 -31.058186525715481 $271 31.058186525715481 $166 $272 forward 7 unknown #
coedge $-1 $104 $103 $273 $274 forward $41 $-1 #
coedge $-1 $275 $276 $103 $170 reversed $260 $-1 #
edge $-1 $177 -68.260139774773393 $277 68.260139774773393 $169 $278 forward 7 unknown #
coedge $-1 $163 $279 $104 $172 reversed $100 $-1 #
edge $-1 $280 -68.260139774773393 $176 68.260139774773393 $171 $281 forward 7 unknown #
coedge $-1 $166 $105 $279 $282 forward $175 $-1 #
coedge $-1 $105 $166 $275 $283 reversed $175 $-1 #
loop $-1 $-1 $173 $259 #
vertex $-1 $106 $284 #
vertex $-1 $106 $285 #
straight-curve $-1 68.260139774773393 0 13.118048337613976 0 1 0 I I #
face $-1 $286 $287 $25 $-1 $288 reversed single #
loop $-1 $-1 $289 $107 #
plane-surface $-1 -68.260139774773393 0 0 1 0 0 0 0 -1 forward_v I I I I #
coedge $-1 $290 $188 $193 $291 reversed $108 $-1 #
coedge $-1 $292 $110 $293 $294 reversed $69 $-1 #
coedge $-1 $110 $292 $290 $295 forward $69 $-1 #
coedge $-1 $193 $192 $110 $186 forward $194 $-1 #
edge $-1 $296 -19.303239481369651 $297 -4.2066546073220081 $185 $298 forward 7 unknown #
coedge $-1 $112 $111 $289 $299 reversed $44 $-1 #
coedge $-1 $182 $300 $111 $189 reversed $108 $-1 #
edge $-1 $195 -68.260139774773393 $301 68.260139774773393 $188 $302 forward 7 unknown #
coedge $-1 $303 $304 $112 $191 forward $287 $-1 #
edge $-1 $196 -68.260139774773393 $305 68.260139774773393 $190 $306 forward 7 unknown #
coedge $-1 $185 $113 $304 $307 forward $194 $-1 #
coedge $-1 $113 $185 $182 $291 forward $194 $-1 #
loop $-1 $-1 $113 $286 #
vertex $-1 $114 $308 #
vertex $-1 $307 $309 #
straight-curve $-1 68.260139774773393 -11.75494704434583 -1.4162115700512503 0 -1 0 I I #
face $-1 $310 $311 $26 $-1 $312 reversed single #
loop $-1 $-1 $121 $115 #
plane-surface $-1 68.260139774773393 0 0 -1 0 0 0 0 1 forward_v I I I I #
coedge $-1 $313 $209 $314 $315 reversed $116 $-1 #
coedge $-1 $316 $118 $313 $317 forward $73 $-1 #
coedge $-1 $118 $316 $318 $319 reversed $73 $-1 #
coedge $-1 $212 $211 $118 $205 forward $199 $-1 #
edge $-1 $320 4.2066546073220064 $321 19.303239481369651 $204 $322 forward 7 unknown #
coedge $-1 $120 $119 $323 $324 reversed $47 $-1 #
coedge $-1 $325 $326 $119 $208 forward $327 $-1 #
edge $-1 $328 -68.260139774773393 $213 68.260139774773393 $207 $329 forward 7 unknown #
coedge $-1 $201 $330 $120 $210 reversed $116 $-1 #
edge $-1 $331 -68.260139774773393 $214 68.260139774773393 $209 $332 forward 7 unknown #
coedge $-1 $204 $121 $330 $333 forward $199 $-1 #
coedge $-1 $121 $204 $325 $334 reversed $199 $-1 #
vertex $-1 $334 $335 #
vertex $-1 $122 $336 #
straight-curve $-1 68.260139774773393 11.754947044345828 -1.4162115700512503 0 -1 0 I I #
face $-1 $-1 $228 $27 $-1 $337 reversed single #
loop $-1 $-1 $338 $123 #
plane-surface $-1 0 0 13.118048337613976 0 0 1 1 0 0 forward_v I I I I #
coedge $-1 $339 $340 $341 $342 reversed $124 $-1 #
coedge $-1 $343 $126 $128 $226 forward $77 $-1 #
coedge $-1 $126 $343 $339 $344 forward $77 $-1 #
coedge $-1 $341 $129 $126 $223 forward $228 $-1 #
edge $-1 $230 1.4244057665296328 $345 10.166265845602014 $222 $346 forward 7 unknown #
coedge $-1 $347 $348 $127 $225 forward $217 $-1 #
edge $-1 $349 32.558194362239753 $229 39.182289785795483 $224 $350 forward 7 unknown #
edge $-1 $230 -136.52027954954679 $349 -127.60667985666215 $128 $351 forward 7 unknown #
coedge $-1 $129 $341 $347 $352 reversed $228 $-1 #
loop $-1 $-1 $341 $216 #
vertex $-1 $352 $353 #
vertex $-1 $130 $354 #
straight-curve $-1 68.260139774773393 7.2197415725954563 99.978961381602431 0 0 -1 I I #
coedge $-1 $232 $232 $-1 $355 reversed $133 $-1 #
edge $-1 $356 0 $356 6.2831853071796004 $134 $357 forward 7 unknown #
vertex $-1 $137 $358 #
ellipse-curve $-1 64.948092062995499 11.590671612131647 10.135867118077648 0.66913061440640931 0 0.74314481823134659 1.4862896364626932 0 -1.3382612288128186 1 I I #
face $-1 $-1 $359 $29 $-1 $360 forward single #
loop $-1 $-1 $144 $138 #
plane-surface $-1 -68.260139774773393 0 0 1 0 0 0 0 -1 forward_v I I I I #
coedge $-1 $361 $362 $363 $364 reversed $139 $-1 #
coedge $-1 $365 $141 $143 $246 forward $86 $-1 #
coedge $-1 $141 $365 $361 $366 forward $86 $-1 #
coedge $-1 $363 $144 $141 $243 forward $237 $-1 #
edge $-1 $249 1.5153745108754606 $367 8.3985073706794005 $242 $368 forward 7 unknown #
coedge $-1 $369 $370 $142 $245 forward $359 $-1 #
edge $-1 $371 -23.14025953737837 $248 -20.384902218906177 $244 $372 forward 7 unknown #
edge $-1 $249 -4.6896506375148425e-014 $371 4.578412406535576 $143 $373 forward 7 unknown #
coedge $-1 $144 $363 $369 $374 reversed $237 $-1 #
vertex $-1 $374 $375 #
vertex $-1 $145 $376 #
straight-curve $-1 -68.260139774773393 -6.4723154516528911 45.810759640188301 0 0 -1 I I #
coedge $-1 $251 $251 $-1 $377 reversed $148 $-1 #
edge $-1 $378 0 $378 6.2831853071796004 $149 $379 forward 7 unknown #
vertex $-1 $152 $380 #
ellipse-curve $-1 -66.882461115537296 -11.388838922941421 11.289806955037472 -0.79863551827123203 0 0.60181501223851219 0.3009075061192561 0 0.39931775913561601 1 I I #
coedge $-1 $255 $255 $-1 $381 reversed $155 $-1 #
edge $-1 $382 0 $382 6.2831853071796004 $156 $383 forward 7 unknown #
vertex $-1 $159 $384 #
ellipse-curve $-1 -66.882461115537296 -8.4389248401683048 11.289806955037472 -0.79863551827123203 0 0.60181501223851219 0.3009075061192561 0 0.39931775913561601 1 I I #
face $-1 $-1 $175 $24 $-1 $385 reversed single #
loop $-1 $-1 $275 $160 #
plane-surface $-1 0 31.058186525715481 0 0 -1 0 0 0 -1 forward_v I I I I #
coedge $-1 $386 $273 $276 $387 forward $161 $-1 #
coedge $-1 $279 $163 $164 $267 reversed $100 $-1 #
coedge $-1 $273 $386 $163 $265 reversed $161 $-1 #
edge $-1 $280 -13.118048337613976 $388 13.118048337613976 $264 $389 forward 7 unknown #
coedge $-1 $165 $164 $386 $390 forward $65 $-1 #
edge $-1 $271 -68.260139774773393 $388 68.260139774773393 $263 $391 forward 7 unknown #
coedge $-1 $276 $275 $165 $269 reversed $260 $-1 #
edge $-1 $392 -68.260139774773393 $270 68.260139774773393 $268 $393 forward 7 unknown #
vertex $-1 $167 $394 #
vertex $-1 $282 $395 #
straight-curve $-1 68.260139774773393 0 -13.118048337613976 0 -1 0 I I #
coedge $-1 $262 $264 $168 $274 reversed $161 $-1 #
edge $-1 $277 -31.058186525715481 $280 31.058186525715481 $273 $396 forward 7 unknown #
coedge $-1 $268 $169 $174 $283 forward $260 $-1 #
coedge $-1 $169 $268 $262 $387 reversed $260 $-1 #
vertex $-1 $170 $397 #
straight-curve $-1 0 31.058186525715481 13.118048337613976 -1 0 0 I I #
coedge $-1 $171 $263 $173 $282 reversed $100 $-1 #
vertex $-1 $274 $398 #
straight-curve $-1 0 -31.058186525715481 13.118048337613976 1 0 0 I I #
edge $-1 $176 -13.118048337613976 $271 13.118048337613976 $173 $399 forward 7 unknown #
edge $-1 $177 -13.118048337613976 $270 13.118048337613976 $174 $400 forward 7 unknown #
point $-1 68.260139774773393 -31.058186525715481 13.118048337613976 #
point $-1 68.260139774773393 31.058186525715481 13.118048337613976 #
face $-1 $-1 $194 $25 $-1 $401 reversed single #
loop $-1 $-1 $190 $179 #
plane-surface $-1 0 -31.058186525715481 0 0 1 0 0 0 1 forward_v I I I I #
coedge $-1 $402 $403 $187 $299 forward $180 $-1 #
coedge $-1 $300 $182 $184 $295 reversed $108 $-1 #
edge $-1 $297 -4.767886927017841 $195 0.64515459563844679 $193 $404 forward 7 unknown #
coedge $-1 $184 $183 $405 $406 reversed $69 $-1 #
coedge $-1 $304 $303 $183 $294 forward $287 $-1 #
edge $-1 $407 -68.260139774773393 $296 68.260139774773393 $293 $408 forward 7 unknown #
edge $-1 $409 -68.260139774773393 $297 68.260139774773393 $290 $410 forward 7 unknown #
vertex $-1 $294 $411 #
vertex $-1 $186 $412 #
straight-curve $-1 68.260139774773393 -11.75494704434583 -6.8292530927075381 0 1 0 I I #
edge $-1 $305 -19.303239481369651 $301 -4.2066546073220081 $289 $413 forward 7 unknown #
coedge $-1 $188 $290 $402 $414 reversed $108 $-1 #
vertex $-1 $299 $415 #
straight-curve $-1 0 -15.961601651667838 -1.4162115700512503 -1 0 0 I I #
coedge $-1 $293 $190 $403 $416 forward $287 $-1 #
coedge $-1 $190 $293 $192 $307 reversed $287 $-1 #
vertex $-1 $416 $417 #
straight-curve $-1 0 -31.058186525715481 -1.4162115700512503 -1 0 0 I I #
edge $-1 $196 1.4162115700512503 $296 6.8292530927075381 $192 $418 forward 7 unknown #
point $-1 68.260139774773393 -15.961601651667838 -1.4162115700512503 #
point $-1 68.260139774773393 -31.058186525715481 -1.4162115700512503 #
face $-1 $-1 $327 $26 $-1 $419 reversed single #
loop $-1 $-1 $323 $198 #
plane-surface $-1 -68.260139774773393 0 0 1 0 0 0 0 -1 forward_v I I I I #
coedge $-1 $330 $201 $202 $317 reversed $116 $-1 #
coedge $-1 $323 $420 $201 $315 forward $311 $-1 #
edge $-1 $421 -4.767886927017841 $331 0.64515459563844679 $314 $422 forward 7 unknown #
coedge $-1 $203 $202 $420 $423 reversed $73 $-1 #
edge $-1 $320 -68.260139774773393 $421 68.260139774773393 $313 $424 forward 7 unknown #
coedge $-1 $326 $325 $203 $319 forward $327 $-1 #
edge $-1 $321 -68.260139774773393 $425 68.260139774773393 $318 $426 forward 7 unknown #
vertex $-1 $205 $427 #
vertex $-1 $319 $428 #
straight-curve $-1 68.260139774773393 11.754947044345828 -6.8292530927075381 0 1 0 I I #
coedge $-1 $429 $314 $206 $324 forward $311 $-1 #
edge $-1 $331 4.2066546073220064 $328 19.303239481369651 $323 $430 forward 7 unknown #
coedge $-1 $318 $207 $212 $334 forward $327 $-1 #
coedge $-1 $207 $318 $429 $431 reversed $327 $-1 #
loop $-1 $-1 $207 $310 #
vertex $-1 $431 $432 #
straight-curve $-1 0 31.058186525715481 -1.4162115700512503 1 0 0 I I #
coedge $-1 $209 $313 $211 $333 reversed $116 $-1 #
vertex $-1 $324 $433 #
straight-curve $-1 0 15.961601651667834 -1.4162115700512503 1 0 0 I I #
edge $-1 $214 -0.64515459563844679 $320 4.767886927017841 $211 $434 forward 7 unknown #
edge $-1 $213 1.4162115700512503 $321 6.8292530927075381 $212 $435 forward 7 unknown #
point $-1 68.260139774773393 31.058186525715477 -1.4162115700512503 #
point $-1 68.260139774773393 15.961601651667834 -1.4162115700512503 #
plane-surface $-1 68.260139774773393 0 0 -1 0 0 0 0 1 forward_v I I I I #
coedge $-1 $348 $347 $340 $436 forward $217 $-1 #
coedge $-1 $340 $219 $221 $344 reversed $124 $-1 #
coedge $-1 $219 $339 $338 $436 reversed $124 $-1 #
coedge $-1 $227 $222 $219 $342 forward $228 $-1 #
edge $-1 $345 -92.825275483061134 $437 -86.860913043988461 $341 $438 forward 7 unknown #
coedge $-1 $221 $220 $348 $439 reversed $77 $-1 #
edge $-1 $440 127.60667985666215 $345 136.52027954954679 $339 $441 forward 7 unknown #
vertex $-1 $223 $442 #
straight-curve $-1 68.260139774773378 5.7953358060658235 7.1536858985413048 0 1 0 I I #
coedge $-1 $338 $224 $227 $352 forward $217 $-1 #
coedge $-1 $224 $338 $343 $439 forward $217 $-1 #
vertex $-1 $225 $443 #
straight-curve $-1 29.07784998897791 7.2197415725954563 13.11804833761397 1 0 0 I I #
straight-curve $-1 -33.194198555967176 7.2197415725954563 98.503584432464294 -0.74314481823134659 0 0.66913061440640931 I I #
edge $-1 $229 7.2197415725954563 $437 15.961601651667838 $227 $444 forward 7 unknown #
point $-1 68.260139774773393 7.2197415725954563 13.118048337613976 #
point $-1 68.260139774773393 7.2197415725954563 7.1536858985412977 #
edge $-1 $445 1 $445 0 $232 $-1 forward 7 unknown #
vertex $-1 $233 $446 #
ellipse-curve $-1 62.342184970359568 11.590671612131647 7.2417141515411299 0.66913061440640931 0 0.74314481823134659 1.4862896364626932 0 -1.3382612288128186 1 I I #
point $-1 66.4343816994582 11.590671612131647 8.7976058892648297 #
loop $-1 $-1 $244 $236 #
plane-surface $-1 0 0 13.118048337613976 0 0 1 1 0 0 forward_v I I I I #
coedge $-1 $362 $239 $241 $366 reversed $139 $-1 #
coedge $-1 $239 $361 $447 $448 reversed $139 $-1 #
coedge $-1 $247 $242 $239 $364 forward $237 $-1 #
edge $-1 $367 -36.349194067727339 $449 -32.692711302574324 $363 $450 forward 7 unknown #
coedge $-1 $241 $240 $370 $451 reversed $86 $-1 #
edge $-1 $452 -4.578412406535576 $367 4.6896506375148425e-014 $361 $453 forward 7 unknown #
vertex $-1 $243 $454 #
straight-curve $-1 -68.260139774773393 -4.9569409407774305 9.4615655724609553 0 -1 0 I I #
coedge $-1 $447 $244 $247 $374 forward $359 $-1 #
coedge $-1 $244 $447 $365 $451 forward $359 $-1 #
vertex $-1 $245 $455 #
straight-curve $-1 -88.64504199367957 -6.4723154516528911 13.118048337613978 -1 0 0 I I #
straight-curve $-1 -68.260139774773364 -6.4723154516528911 9.4615655724609979 0.60181501223851219 0 0.79863551827123203 I I #
edge $-1 $248 6.4723154516528911 $449 13.355448311456831 $247 $456 forward 7 unknown #
point $-1 -68.260139774773393 -6.4723154516528911 13.118048337613976 #
point $-1 -68.260139774773393 -6.4723154516528911 9.4615655724609606 #
edge $-1 $457 1 $457 0 $251 $-1 forward 7 unknown #
vertex $-1 $252 $458 #
ellipse-curve $-1 -65.869780456683856 -11.388838922941421 10.526697364794323 -0.79863551827123203 0 0.60181501223851219 0.3009075061192561 0 0.39931775913561601 1 I I #
point $-1 -66.581553609418066 -11.388838922941421 11.68912471417311 #
edge $-1 $459 1 $459 0 $255 $-1 forward 7 unknown #
vertex $-1 $256 $460 #
ellipse-curve $-1 -65.869780456683856 -8.4389248401683048 10.526697364794323 -0.79863551827123203 0 0.60181501223851219 0.3009075061192561 0 0.39931775913561601 1 I I #
point $-1 -66.581553609418066 -8.4389248401683048 11.68912471417311 #
plane-surface $-1 68.260139774773393 0 0 -1 0 0 0 0 1 forward_v I I I I #
coedge $-1 $264 $262 $266 $390 reversed $161 $-1 #
edge $-1 $277 -13.118048337613976 $392 13.118048337613976 $276 $461 forward 7 unknown #
vertex $-1 $390 $462 #
straight-curve $-1 -68.260139774773393 -31.058186525715481 0 0 0 -1 I I #
edge $-1 $388 -31.058186525715481 $392 31.058186525715481 $386 $463 forward 7 unknown #
straight-curve $-1 0 -31.058186525715481 -13.118048337613976 -1 0 0 I I #
vertex $-1 $269 $464 #
straight-curve $-1 0 31.058186525715481 -13.118048337613976 1 0 0 I I #
point $-1 68.260139774773393 31.058186525715481 -13.118048337613976 #
point $-1 68.260139774773393 -31.058186525715481 -13.118048337613976 #
straight-curve $-1 -68.260139774773393 0 13.118048337613976 0 -1 0 I I #
point $-1 -68.260139774773393 31.058186525715481 13.118048337613976 #
point $-1 -68.260139774773393 -31.058186525715481 13.118048337613976 #
straight-curve $-1 68.260139774773393 -31.058186525715481 0 0 0 -1 I I #
straight-curve $-1 68.260139774773393 31.058186525715481 0 0 0 -1 I I #
plane-surface $-1 68.260139774773393 0 0 -1 0 0 0 0 1 forward_v I I I I #
coedge $-1 $405 $289 $300 $414 forward $180 $-1 #
coedge $-1 $289 $405 $303 $416 reversed $180 $-1 #
straight-curve $-1 68.260139774773393 -15.961601651667838 -2.0613661656896971 0 0 1 I I #
coedge $-1 $403 $402 $292 $406 forward $180 $-1 #
edge $-1 $409 4.2066546073220081 $407 19.303239481369651 $405 $465 forward 7 unknown #
vertex $-1 $294 $466 #
straight-curve $-1 0 -31.058186525715481 -6.8292530927075381 1 0 0 I I #
vertex $-1 $406 $467 #
straight-curve $-1 0 -15.961601651667838 -6.8292530927075381 1 0 0 I I #
point $-1 68.260139774773393 -31.058186525715481 -6.8292530927075381 #
point $-1 68.260139774773393 -15.961601651667838 -6.8292530927075381 #
straight-curve $-1 -68.260139774773393 -11.75494704434583 -1.4162115700512503 0 1 0 I I #
edge $-1 $301 -0.64515459563844679 $409 4.767886927017841 $402 $468 forward 7 unknown #
point $-1 -68.260139774773393 -15.961601651667838 -1.4162115700512503 #
edge $-1 $305 1.4162115700512503 $407 6.8292530927075381 $403 $469 forward 7 unknown #
point $-1 -68.260139774773393 -31.058186525715481 -1.4162115700512503 #
straight-curve $-1 68.260139774773393 -31.058186525715481 0 0 0 -1 I I #
plane-surface $-1 0 31.058186525715481 0 0 -1 0 0 0 -1 forward_v I I I I #
coedge $-1 $314 $429 $316 $423 forward $311 $-1 #
vertex $-1 $423 $470 #
straight-curve $-1 -68.260139774773393 15.961601651667834 -2.0613661656896971 0 0 1 I I #
edge $-1 $425 -19.303239481369651 $421 -4.2066546073220064 $420 $471 forward 7 unknown #
straight-curve $-1 0 15.961601651667834 -6.8292530927075381 -1 0 0 I I #
vertex $-1 $319 $472 #
straight-curve $-1 0 31.058186525715481 -6.8292530927075381 -1 0 0 I I #
point $-1 68.260139774773393 15.961601651667834 -6.8292530927075381 #
point $-1 68.260139774773393 31.058186525715477 -6.8292530927075381 #
coedge $-1 $420 $323 $326 $431 forward $311 $-1 #
straight-curve $-1 -68.260139774773393 11.754947044345828 -1.4162115700512503 0 1 0 I I #
edge $-1 $328 1.4162115700512503 $425 6.8292530927075381 $326 $473 forward 7 unknown #
point $-1 -68.260139774773393 31.058186525715477 -1.4162115700512503 #
point $-1 -68.260139774773393 15.961601651667834 -1.4162115700512503 #
straight-curve $-1 68.260139774773393 15.961601651667834 -2.0613661656896971 0 0 -1 I I #
straight-curve $-1 68.260139774773393 31.058186525715481 0 0 0 -1 I I #
edge $-1 $437 -39.182289785795483 $440 -32.558194362239753 $338 $474 forward 7 unknown #
vertex $-1 $436 $475 #
straight-curve $-1 68.260139774773393 15.961601651667838 99.978961381602431 0 0 1 I I #
edge $-1 $440 -10.166265845602014 $349 -1.4244057665296328 $348 $476 forward 7 unknown #
vertex $-1 $439 $477 #
straight-curve $-1 -33.194198555967176 15.961601651667838 98.503584432464294 0.74314481823134659 0 -0.66913061440640931 I I #
point $-1 68.260139774773393 15.961601651667838 7.1536858985412977 #
point $-1 61.636044351217663 7.2197415725954563 13.11804833761397 #
straight-curve $-1 68.260139774773393 0 13.118048337613976 0 1 0 I I #
vertex $-1 $355 $478 #
point $-1 63.828474606822255 11.590671612131647 5.9034529227283112 #
coedge $-1 $370 $369 $362 $448 forward $359 $-1 #
edge $-1 $449 20.384902218906177 $452 23.14025953737837 $447 $479 forward 7 unknown #
vertex $-1 $448 $480 #
straight-curve $-1 -68.260139774773393 -13.355448311456831 45.810759640188301 0 0 1 I I #
edge $-1 $452 -8.3985073706794005 $371 -1.5153745108754606 $370 $481 forward 7 unknown #
vertex $-1 $451 $482 #
straight-curve $-1 -68.260139774773364 -13.355448311456831 9.4615655724609979 -0.60181501223851219 0 -0.79863551827123203 I I #
point $-1 -68.260139774773393 -13.355448311456831 9.4615655724609606 #
point $-1 -65.5047824563012 -6.4723154516528911 13.118048337613976 #
straight-curve $-1 -68.260139774773393 0 13.118048337613976 0 -1 0 I I #
vertex $-1 $377 $483 #
point $-1 -65.568872950564597 -11.388838922941421 10.92601512392994 #
vertex $-1 $381 $484 #
point $-1 -65.568872950564597 -8.4389248401683048 10.92601512392994 #
straight-curve $-1 -68.260139774773393 31.058186525715481 0 0 0 -1 I I #
point $-1 -68.260139774773393 -31.058186525715481 -13.118048337613976 #
straight-curve $-1 -68.260139774773393 0 -13.118048337613976 0 1 0 I I #
point $-1 -68.260139774773393 31.058186525715481 -13.118048337613976 #
straight-curve $-1 -68.260139774773393 -11.75494704434583 -6.8292530927075381 0 -1 0 I I #
point $-1 -68.260139774773393 -31.058186525715481 -6.8292530927075381 #
point $-1 -68.260139774773393 -15.961601651667838 -6.8292530927075381 #
straight-curve $-1 -68.260139774773393 -15.961601651667838 -2.0613661656896971 0 0 -1 I I #
straight-curve $-1 -68.260139774773393 -31.058186525715481 0 0 0 -1 I I #
point $-1 -68.260139774773393 15.961601651667834 -6.8292530927075381 #
straight-curve $-1 -68.260139774773393 11.754947044345828 -6.8292530927075381 0 -1 0 I I #
point $-1 -68.260139774773393 31.058186525715477 -6.8292530927075381 #
straight-curve $-1 -68.260139774773393 31.058186525715481 0 0 0 -1 I I #
straight-curve $-1 29.07784998897791 15.961601651667838 13.11804833761397 -1 0 0 I I #
point $-1 68.260139774773393 15.961601651667838 13.118048337613976 #
straight-curve $-1 61.63604435121767 5.7953358060658235 13.11804833761397 0 -1 0 I I #
point $-1 61.636044351217663 15.961601651667838 13.11804833761397 #
point $-1 61.003923741546743 11.590671612131647 5.7554245150784364 #
straight-curve $-1 -88.64504199367957 -13.355448311456831 13.118048337613978 1 0 0 I I #
point $-1 -68.260139774773393 -13.355448311456831 13.118048337613976 #
straight-curve $-1 -65.5047824563012 -4.9569409407774305 13.118048337613978 0 1 0 I I #
point $-1 -65.5047824563012 -13.355448311456831 13.118048337613976 #
point $-1 -65.470462697548243 -11.388838922941421 10.225789858675068 #
point $-1 -65.470462697548243 -8.4389248401683048 10.225789858675068 #
End-of-ACIS-data 