500 0 14 0           
7 Unknown 11 ACIS 5.0 NT 24 Thu Mar 25 22:15:52 1999 
-1 9.9999999999999995e-007 1e-010 
body $-1 $14 $-1 $15 #
body $-1 $16 $-1 $17 #
body $-1 $18 $-1 $19 #
body $-1 $20 $-1 $21 #
body $-1 $22 $-1 $23 #
body $-1 $24 $-1 $25 #
body $-1 $26 $-1 $27 #
body $-1 $28 $-1 $29 #
body $-1 $30 $-1 $31 #
body $-1 $32 $-1 $33 #
body $-1 $34 $-1 $35 #
body $-1 $36 $-1 $37 #
body $-1 $38 $-1 $39 #
body $-1 $40 $-1 $41 #
lump $-1 $-1 $42 $0 #
transform $-1 1 0 0 0 1 0 0 0 1 66.711020233771791 33.533042419641255 14.180546146794061 1 rotate no_reflect no_shear #
lump $-1 $-1 $43 $1 #
transform $-1 1 0 0 0 1 0 0 0 1 66.711020233771791 33.533042419641255 14.180546146794061 1 rotate no_reflect no_shear #
lump $-1 $-1 $44 $2 #
transform $-1 1 0 0 0 1 0 0 0 1 66.711020233771791 33.533042419641255 14.180546146794061 1 rotate no_reflect no_shear #
lump $-1 $-1 $45 $3 #
transform $-1 1 0 0 0 1 0 0 0 1 66.711020233771791 33.533042419641255 14.180546146794061 1 rotate no_reflect no_shear #
lump $-1 $-1 $46 $4 #
transform $-1 1 0 0 0 1 0 0 0 1 66.711020233771791 33.533042419641255 14.180546146794061 1 rotate no_reflect no_shear #
lump $-1 $-1 $47 $5 #
transform $-1 1 0 0 0 1 0 0 0 1 66.711020233771791 33.533042419641255 14.180546146794061 1 rotate no_reflect no_shear #
lump $-1 $-1 $48 $6 #
transform $-1 1 0 0 0 1 0 0 0 1 66.711020233771791 33.533042419641255 14.180546146794061 1 rotate no_reflect no_shear #
lump $-1 $-1 $49 $7 #
transform $-1 1 0 0 0 1 0 0 0 1 66.711020233771791 33.533042419641255 14.180546146794061 1 rotate no_reflect no_shear #
lump $-1 $-1 $50 $8 #
transform $-1 1 0 0 0 1 0 0 0 1 66.711020233771791 33.533042419641255 14.180546146794061 1 rotate no_reflect no_shear #
lump $-1 $-1 $51 $9 #
transform $-1 1 0 0 0 1 0 0 0 1 66.711020233771791 33.533042419641255 14.180546146794061 1 rotate no_reflect no_shear #
lump $-1 $-1 $52 $10 #
transform $-1 1 0 0 0 1 0 0 0 1 66.711020233771791 33.533042419641255 14.180546146794061 1 rotate no_reflect no_shear #
lump $-1 $-1 $53 $11 #
transform $-1 1 0 0 0 1 0 0 0 1 66.711020233771791 33.533042419641255 14.180546146794061 1 rotate no_reflect no_shear #
lump $-1 $-1 $54 $12 #
transform $-1 1 0 0 0 1 0 0 0 1 66.711020233771791 33.533042419641255 14.180546146794061 1 rotate no_reflect no_shear #
lump $-1 $-1 $55 $13 #
transform $-1 1 0 0 0 1 0 0 0 1 66.711020233771791 33.533042419641255 14.180546146794061 1 rotate no_reflect no_shear #
shell $-1 $-1 $-1 $56 $-1 $14 #
shell $-1 $-1 $-1 $57 $-1 $16 #
shell $-1 $-1 $-1 $58 $-1 $18 #
shell $-1 $-1 $-1 $59 $-1 $20 #
shell $-1 $-1 $-1 $60 $-1 $22 #
shell $-1 $-1 $-1 $61 $-1 $24 #
shell $-1 $-1 $-1 $62 $-1 $26 #
shell $-1 $-1 $-1 $63 $-1 $28 #
shell $-1 $-1 $-1 $64 $-1 $30 #
shell $-1 $-1 $-1 $65 $-1 $32 #
shell $-1 $-1 $-1 $66 $-1 $34 #
shell $-1 $-1 $-1 $67 $-1 $36 #
shell $-1 $-1 $-1 $68 $-1 $38 #
shell $-1 $-1 $-1 $69 $-1 $40 #
face $-1 $70 $71 $42 $-1 $72 forward single #
face $-1 $73 $74 $43 $-1 $75 reversed single #
face $-1 $76 $77 $44 $-1 $78 reversed single #
face $-1 $79 $80 $45 $-1 $81 forward single #
face $-1 $82 $83 $46 $-1 $84 forward single #
face $-1 $85 $86 $47 $-1 $87 reversed single #
face $-1 $88 $89 $48 $-1 $90 forward single #
face $-1 $91 $92 $49 $-1 $93 forward single #
face $-1 $94 $95 $50 $-1 $96 reversed single #
face $-1 $97 $98 $51 $-1 $99 forward single #
face $-1 $100 $101 $52 $-1 $102 forward single #
face $-1 $103 $104 $53 $-1 $105 reversed single #
face $-1 $106 $107 $54 $-1 $108 forward single #
face $-1 $109 $110 $55 $-1 $111 forward single #
face $-1 $112 $113 $42 $-1 $114 reversed single #
loop $-1 $-1 $115 $56 #
plane-surface $-1 0 0 14.180546146794061 0 0 1 1 0 0 forward_v I I I I #
face $-1 $116 $117 $43 $-1 $118 reversed single #
loop $-1 $-1 $119 $57 #
plane-surface $-1 -64.565826923580332 -18.461900676195455 0 0 -1 0 0 0 -1 forward_v I I I I #
face $-1 $120 $121 $44 $-1 $122 reversed single #
loop $-1 $-1 $123 $58 #
plane-surface $-1 40.450831048927895 -7.8057055969104621 193.49883260136576 0 -1 0 -0.6018150307709319 0 -0.79863550430605224 forward_v I I I I #
face $-1 $124 $125 $45 $-1 $126 forward single #
loop $-1 $127 $128 $59 #
cone-surface $-1 61.133334952804333 -12.626160167661673 9.6450736043385152 -0.6018150307709319 0 -0.79863550430605224 0.39931775215302612 0 -0.30090751538546595 1 I I 0 1 0.5 forward I I I I #
face $-1 $129 $130 $46 $-1 $131 forward single #
loop $-1 $132 $133 $60 #
cone-surface $-1 61.133334952804333 -9.7338874252109484 9.6450736043385152 -0.6018150307709319 0 -0.79863550430605224 0.39931775215302612 0 -0.30090751538546595 1 I I 0 1 0.5 forward I I I I #
face $-1 $134 $135 $47 $-1 $136 reversed single #
loop $-1 $-1 $137 $61 #
plane-surface $-1 40.450831048927895 18.191765951007888 193.49883260136576 0 -1 0 -0.6018150307709319 0 -0.79863550430605224 forward_v I I I I #
face $-1 $138 $139 $48 $-1 $140 forward single #
loop $-1 $141 $142 $62 #
cone-surface $-1 61.133334952804333 13.371311380256678 9.6450736043385152 -0.6018150307709319 0 -0.79863550430605224 0.39931775215302612 0 -0.30090751538546595 1 I I 0 1 0.5 forward I I I I #
face $-1 $143 $144 $49 $-1 $145 forward single #
loop $-1 $146 $147 $63 #
cone-surface $-1 61.133334952804333 16.263584122707407 9.6450736043385152 -0.6018150307709319 0 -0.79863550430605224 0.39931775215302612 0 -0.30090751538546595 1 I I 0 1 0.5 forward I I I I #
face $-1 $148 $149 $50 $-1 $150 reversed single #
loop $-1 $-1 $151 $64 #
plane-surface $-1 -147.00640962326707 -14.554341995962156 113.20344321187052 0 1 0 -0.6018150307709319 0 0.79863550430605224 forward_v I I I I #
face $-1 $152 $153 $51 $-1 $154 forward single #
loop $-1 $155 $156 $65 #
cone-surface $-1 -61.133334952804319 -12.626160167661673 9.6450736043385366 0.6018150307709319 0 -0.79863550430605224 0.39931775215302612 0 0.30090751538546595 1 I I 0 1 0.5 forward I I I I #
face $-1 $157 $158 $52 $-1 $159 forward single #
loop $-1 $160 $161 $66 #
cone-surface $-1 -61.133334952804319 -9.7338874252109484 9.6450736043385366 0.6018150307709319 0 -0.79863550430605224 0.39931775215302612 0 0.30090751538546595 1 I I 0 1 0.5 forward I I I I #
face $-1 $162 $163 $53 $-1 $164 reversed single #
loop $-1 $-1 $165 $67 #
plane-surface $-1 -147.00640962326707 11.443129551956195 113.20344321187052 0 1 0 -0.6018150307709319 0 0.79863550430605224 forward_v I I I I #
face $-1 $166 $167 $54 $-1 $168 forward single #
loop $-1 $169 $170 $68 #
cone-surface $-1 -61.133334952804319 13.371311380256678 9.6450736043385366 0.6018150307709319 0 -0.79863550430605224 0.39931775215302612 0 0.30090751538546595 1 I I 0 1 0.5 forward I I I I #
face $-1 $171 $172 $55 $-1 $173 forward single #
loop $-1 $174 $175 $69 #
cone-surface $-1 -61.133334952804319 16.263584122707407 9.6450736043385366 0.6018150307709319 0 -0.79863550430605224 0.39931775215302612 0 0.30090751538546595 1 I I 0 1 0.5 forward I I I I #
face $-1 $176 $177 $42 $-1 $178 reversed single #
loop $-1 $-1 $179 $70 #
plane-surface $-1 0 0 -14.180546146794061 0 0 1 1 0 0 forward_v I I I I #
coedge $-1 $180 $181 $182 $183 forward $71 $-1 #
face $-1 $184 $185 $43 $-1 $186 forward single #
loop $-1 $-1 $187 $73 #
plane-surface $-1 -62.420633613388873 -25.997471547918355 0 -1 0 0 0 0 1 forward_v I I I I #
coedge $-1 $188 $189 $190 $191 forward $74 $-1 #
face $-1 $192 $193 $44 $-1 $194 reversed single #
loop $-1 $-1 $195 $76 #
plane-surface $-1 -39.84455834056736 -11.180023796436309 86.943254027026583 0.6018150307709319 0 0.79863550430605224 0.79863550430605224 0 -0.6018150307709319 forward_v I I I I #
coedge $-1 $196 $197 $198 $199 reversed $77 $-1 #
face $-1 $-1 $200 $45 $-1 $201 forward single #
loop $-1 $202 $203 $79 #
cone-surface $-1 60.403298809829977 -12.626160167661673 8.6762829404378543 -0.6018150307709319 0 -0.79863550430605224 0.19965887607651306 0 -0.15045375769273298 1 I I -0.70710678118654746 0.70710678118654746 0.25 forward I I I I #
loop $-1 $-1 $204 $59 #
coedge $-1 $128 $128 $205 $206 reversed $80 $-1 #
face $-1 $-1 $207 $46 $-1 $208 forward single #
loop $-1 $209 $210 $82 #
cone-surface $-1 60.403298809829977 -9.7338874252109484 8.6762829404378543 -0.6018150307709319 0 -0.79863550430605224 0.19965887607651306 0 -0.15045375769273298 1 I I -0.70710678118654746 0.70710678118654746 0.25 forward I I I I #
loop $-1 $-1 $211 $60 #
coedge $-1 $133 $133 $212 $213 reversed $83 $-1 #
face $-1 $214 $215 $47 $-1 $216 reversed single #
loop $-1 $-1 $217 $85 #
plane-surface $-1 -39.84455834056736 14.817447751482042 86.943254027026583 0.6018150307709319 0 0.79863550430605224 0.79863550430605224 0 -0.6018150307709319 forward_v I I I I #
coedge $-1 $218 $219 $220 $221 reversed $86 $-1 #
face $-1 $-1 $222 $48 $-1 $223 forward single #
loop $-1 $224 $225 $88 #
cone-surface $-1 60.403298809829977 13.371311380256678 8.6762829404378543 -0.6018150307709319 0 -0.79863550430605224 0.19965887607651306 0 -0.15045375769273298 1 I I -0.70710678118654746 0.70710678118654746 0.25 forward I I I I #
loop $-1 $-1 $226 $62 #
coedge $-1 $142 $142 $227 $228 reversed $89 $-1 #
face $-1 $-1 $229 $49 $-1 $230 forward single #
loop $-1 $231 $232 $91 #
cone-surface $-1 60.403298809829977 16.263584122707407 8.6762829404378543 -0.6018150307709319 0 -0.79863550430605224 0.19965887607651306 0 -0.15045375769273298 1 I I -0.70710678118654746 0.70710678118654746 0.25 forward I I I I #
loop $-1 $-1 $233 $63 #
coedge $-1 $147 $147 $234 $235 reversed $92 $-1 #
face $-1 $236 $237 $50 $-1 $238 reversed single #
loop $-1 $-1 $239 $94 #
plane-surface $-1 -66.711020233771819 -11.180023796436309 6.6478646375313417 -0.6018150307709319 0 0.79863550430605224 0.79863550430605224 0 0.6018150307709319 forward_v I I I I #
coedge $-1 $240 $241 $242 $243 reversed $95 $-1 #
face $-1 $-1 $244 $51 $-1 $245 forward single #
loop $-1 $246 $247 $97 #
cone-surface $-1 -60.403298809829963 -12.626160167661673 8.6762829404378756 0.6018150307709319 0 -0.79863550430605224 0.19965887607651306 0 0.15045375769273298 1 I I -0.70710678118654746 0.70710678118654746 0.25 forward I I I I #
loop $-1 $-1 $248 $65 #
coedge $-1 $156 $156 $249 $250 reversed $98 $-1 #
face $-1 $-1 $251 $52 $-1 $252 forward single #
loop $-1 $253 $254 $100 #
cone-surface $-1 -60.403298809829963 -9.7338874252109484 8.6762829404378756 0.6018150307709319 0 -0.79863550430605224 0.19965887607651306 0 0.15045375769273298 1 I I -0.70710678118654746 0.70710678118654746 0.25 forward I I I I #
loop $-1 $-1 $255 $66 #
coedge $-1 $161 $161 $256 $257 reversed $101 $-1 #
face $-1 $258 $259 $53 $-1 $260 reversed single #
loop $-1 $-1 $261 $103 #
plane-surface $-1 -66.711020233771819 14.817447751482042 6.6478646375313417 -0.6018150307709319 0 0.79863550430605224 0.79863550430605224 0 0.6018150307709319 forward_v I I I I #
coedge $-1 $262 $263 $264 $265 reversed $104 $-1 #
face $-1 $-1 $266 $54 $-1 $267 forward single #
loop $-1 $268 $269 $106 #
cone-surface $-1 -60.403298809829963 13.371311380256678 8.6762829404378756 0.6018150307709319 0 -0.79863550430605224 0.19965887607651306 0 0.15045375769273298 1 I I -0.70710678118654746 0.70710678118654746 0.25 forward I I I I #
loop $-1 $-1 $270 $68 #
coedge $-1 $170 $170 $271 $272 reversed $107 $-1 #
face $-1 $-1 $273 $55 $-1 $274 forward single #
loop $-1 $275 $276 $109 #
cone-surface $-1 -60.403298809829963 16.263584122707407 8.6762829404378756 0.6018150307709319 0 -0.79863550430605224 0.19965887607651306 0 0.15045375769273298 1 I I -0.70710678118654746 0.70710678118654746 0.25 forward I I I I #
loop $-1 $-1 $277 $69 #
coedge $-1 $175 $175 $278 $279 reversed $110 $-1 #
face $-1 $280 $281 $42 $-1 $282 reversed single #
loop $-1 $-1 $283 $112 #
plane-surface $-1 0 -33.533042419641255 0 0 1 0 0 0 1 forward_v I I I I #
coedge $-1 $284 $285 $286 $287 forward $113 $-1 #
coedge $-1 $288 $115 $289 $290 forward $71 $-1 #
coedge $-1 $115 $288 $291 $292 forward $71 $-1 #
coedge $-1 $293 $294 $115 $183 reversed $295 $-1 #
edge $-1 $296 -33.533042419641255 $297 33.533042419641255 $182 $298 forward 7 unknown #
face $-1 $299 $300 $43 $-1 $301 reversed single #
loop $-1 $-1 $302 $116 #
plane-surface $-1 0 0 14.180546146794061 0 0 1 1 0 0 forward_v I I I I #
coedge $-1 $303 $304 $305 $306 reversed $117 $-1 #
coedge $-1 $307 $119 $308 $309 reversed $74 $-1 #
coedge $-1 $119 $307 $310 $311 reversed $74 $-1 #
coedge $-1 $304 $303 $119 $191 reversed $117 $-1 #
edge $-1 $312 -14.180546146794061 $313 14.180546146794061 $190 $314 forward 7 unknown #
face $-1 $315 $316 $44 $-1 $317 reversed single #
loop $-1 $-1 $318 $120 #
plane-surface $-1 40.450831048927895 -14.554341995962156 193.49883260136576 0 1 0 0.6018150307709319 0 0.79863550430605224 forward_v I I I I #
coedge $-1 $319 $320 $321 $322 reversed $121 $-1 #
coedge $-1 $197 $123 $323 $324 reversed $77 $-1 #
coedge $-1 $123 $196 $319 $325 reversed $77 $-1 #
coedge $-1 $321 $326 $123 $199 forward $327 $-1 #
edge $-1 $328 -46.485604709307843 $329 -36.489398917936178 $198 $330 forward 7 unknown #
loop $-1 $-1 $205 $124 #
plane-surface $-1 -39.84455834056736 -11.180023796436309 86.943254027026583 0.6018150307709319 0 0.79863550430605224 0.79863550430605224 0 -0.6018150307709319 forward_v I I I I #
loop $-1 $-1 $331 $79 #
coedge $-1 $203 $203 $204 $332 reversed $125 $-1 #
coedge $-1 $204 $204 $203 $332 forward $127 $-1 #
coedge $-1 $205 $205 $128 $206 forward $200 $-1 #
edge $-1 $333 0 $333 6.2831853071796004 $205 $334 forward 7 unknown #
loop $-1 $-1 $212 $129 #
plane-surface $-1 -39.84455834056736 -11.180023796436309 86.943254027026583 0.6018150307709319 0 0.79863550430605224 0.79863550430605224 0 -0.6018150307709319 forward_v I I I I #
loop $-1 $-1 $335 $82 #
coedge $-1 $210 $210 $211 $336 reversed $130 $-1 #
coedge $-1 $211 $211 $210 $336 forward $132 $-1 #
coedge $-1 $212 $212 $133 $213 forward $207 $-1 #
edge $-1 $337 0 $337 6.2831853071796004 $212 $338 forward 7 unknown #
face $-1 $339 $340 $47 $-1 $341 reversed single #
loop $-1 $-1 $342 $134 #
plane-surface $-1 40.450831048927895 11.443129551956195 193.49883260136576 0 1 0 0.6018150307709319 0 0.79863550430605224 forward_v I I I I #
coedge $-1 $343 $344 $345 $346 reversed $135 $-1 #
coedge $-1 $219 $137 $347 $348 reversed $86 $-1 #
coedge $-1 $137 $218 $343 $349 reversed $86 $-1 #
coedge $-1 $345 $350 $137 $221 forward $351 $-1 #
edge $-1 $352 -46.485604709307843 $353 -36.489398917936178 $220 $354 forward 7 unknown #
loop $-1 $-1 $227 $138 #
plane-surface $-1 -39.84455834056736 14.817447751482042 86.943254027026583 0.6018150307709319 0 0.79863550430605224 0.79863550430605224 0 -0.6018150307709319 forward_v I I I I #
loop $-1 $-1 $355 $88 #
coedge $-1 $225 $225 $226 $356 reversed $139 $-1 #
coedge $-1 $226 $226 $225 $356 forward $141 $-1 #
coedge $-1 $227 $227 $142 $228 forward $222 $-1 #
edge $-1 $357 0 $357 6.2831853071796004 $227 $358 forward 7 unknown #
loop $-1 $-1 $234 $143 #
plane-surface $-1 -39.84455834056736 14.817447751482042 86.943254027026583 0.6018150307709319 0 0.79863550430605224 0.79863550430605224 0 -0.6018150307709319 forward_v I I I I #
loop $-1 $-1 $359 $91 #
coedge $-1 $232 $232 $233 $360 reversed $144 $-1 #
coedge $-1 $233 $233 $232 $360 forward $146 $-1 #
coedge $-1 $234 $234 $147 $235 forward $229 $-1 #
edge $-1 $361 0 $361 6.2831853071796004 $234 $362 forward 7 unknown #
face $-1 $363 $364 $50 $-1 $365 reversed single #
loop $-1 $-1 $366 $148 #
plane-surface $-1 -147.00640962326707 -7.8057055969104621 113.20344321187052 0 -1 0 0.6018150307709319 0 -0.79863550430605224 forward_v I I I I #
coedge $-1 $367 $368 $369 $370 reversed $149 $-1 #
coedge $-1 $241 $151 $371 $372 reversed $95 $-1 #
coedge $-1 $151 $240 $367 $373 reversed $95 $-1 #
coedge $-1 $369 $374 $151 $243 forward $375 $-1 #
edge $-1 $376 6.7921845778617467 $377 16.788390369233383 $242 $378 forward 7 unknown #
loop $-1 $-1 $249 $152 #
plane-surface $-1 -66.711020233771819 -11.180023796436309 6.6478646375313417 -0.6018150307709319 0 0.79863550430605224 0.79863550430605224 0 0.6018150307709319 forward_v I I I I #
loop $-1 $-1 $379 $97 #
coedge $-1 $247 $247 $248 $380 reversed $153 $-1 #
coedge $-1 $248 $248 $247 $380 forward $155 $-1 #
coedge $-1 $249 $249 $156 $250 forward $244 $-1 #
edge $-1 $381 0 $381 6.2831853071796004 $249 $382 forward 7 unknown #
loop $-1 $-1 $256 $157 #
plane-surface $-1 -66.711020233771819 -11.180023796436309 6.6478646375313417 -0.6018150307709319 0 0.79863550430605224 0.79863550430605224 0 0.6018150307709319 forward_v I I I I #
loop $-1 $-1 $383 $100 #
coedge $-1 $254 $254 $255 $384 reversed $158 $-1 #
coedge $-1 $255 $255 $254 $384 forward $160 $-1 #
coedge $-1 $256 $256 $161 $257 forward $251 $-1 #
edge $-1 $385 0 $385 6.2831853071796004 $256 $386 forward 7 unknown #
face $-1 $387 $388 $53 $-1 $389 forward single #
loop $-1 $-1 $390 $162 #
plane-surface $-1 -147.00640962326707 18.191765951007888 113.20344321187052 0 -1 0 0.6018150307709319 0 -0.79863550430605224 forward_v I I I I #
coedge $-1 $391 $392 $393 $394 reversed $163 $-1 #
coedge $-1 $263 $165 $395 $396 reversed $104 $-1 #
coedge $-1 $165 $262 $391 $397 reversed $104 $-1 #
coedge $-1 $393 $398 $165 $265 forward $388 $-1 #
edge $-1 $399 6.7921845778617467 $400 16.788390369233383 $264 $401 forward 7 unknown #
loop $-1 $-1 $271 $166 #
plane-surface $-1 -66.711020233771819 14.817447751482042 6.6478646375313417 -0.6018150307709319 0 0.79863550430605224 0.79863550430605224 0 0.6018150307709319 forward_v I I I I #
loop $-1 $-1 $402 $106 #
coedge $-1 $269 $269 $270 $403 reversed $167 $-1 #
coedge $-1 $270 $270 $269 $403 forward $169 $-1 #
coedge $-1 $271 $271 $170 $272 forward $266 $-1 #
edge $-1 $404 0 $404 6.2831853071796004 $271 $405 forward 7 unknown #
loop $-1 $-1 $278 $171 #
plane-surface $-1 -66.711020233771819 14.817447751482042 6.6478646375313417 -0.6018150307709319 0 0.79863550430605224 0.79863550430605224 0 0.6018150307709319 forward_v I I I I #
loop $-1 $-1 $406 $109 #
coedge $-1 $276 $276 $277 $407 reversed $172 $-1 #
coedge $-1 $277 $277 $276 $407 forward $174 $-1 #
coedge $-1 $278 $278 $175 $279 forward $273 $-1 #
edge $-1 $408 0 $408 6.2831853071796004 $278 $409 forward 7 unknown #
face $-1 $410 $411 $42 $-1 $412 reversed single #
loop $-1 $-1 $413 $176 #
plane-surface $-1 -66.711020233771791 0 0 1 0 0 0 0 -1 forward_v I I I I #
coedge $-1 $414 $291 $415 $416 forward $177 $-1 #
coedge $-1 $417 $179 $414 $418 forward $113 $-1 #
coedge $-1 $179 $417 $419 $420 forward $113 $-1 #
coedge $-1 $294 $293 $179 $287 reversed $295 $-1 #
edge $-1 $421 -33.533042419641255 $422 33.533042419641255 $286 $423 forward 7 unknown #
coedge $-1 $181 $180 $424 $425 forward $71 $-1 #
coedge $-1 $426 $427 $180 $290 reversed $411 $-1 #
edge $-1 $297 -66.711020233771791 $428 66.711020233771791 $289 $429 forward 7 unknown #
coedge $-1 $283 $430 $181 $292 reversed $177 $-1 #
edge $-1 $431 -66.711020233771791 $296 66.711020233771791 $291 $432 forward 7 unknown #
coedge $-1 $286 $182 $430 $433 forward $295 $-1 #
coedge $-1 $182 $286 $426 $434 reversed $295 $-1 #
loop $-1 $-1 $293 $410 #
vertex $-1 $183 $435 #
vertex $-1 $183 $436 #
straight-curve $-1 66.711020233771791 0 14.180546146794061 0 1 0 I I #
face $-1 $437 $438 $43 $-1 $439 reversed single #
loop $-1 $-1 $440 $184 #
plane-surface $-1 -66.711020233771791 0 0 1 0 0 0 0 -1 forward_v I I I I #
coedge $-1 $310 $441 $304 $442 forward $185 $-1 #
coedge $-1 $190 $187 $443 $444 reversed $117 $-1 #
coedge $-1 $187 $190 $302 $442 reversed $117 $-1 #
coedge $-1 $445 $446 $187 $306 forward $447 $-1 #
edge $-1 $448 -14.180546146794061 $449 14.180546146794061 $305 $450 forward 7 unknown #
coedge $-1 $189 $188 $440 $451 reversed $74 $-1 #
coedge $-1 $443 $452 $188 $309 forward $438 $-1 #
edge $-1 $453 -34.428106771981625 $313 -30.137720151598707 $308 $454 forward 7 unknown #
coedge $-1 $455 $302 $189 $311 forward $185 $-1 #
edge $-1 $312 30.137720151598707 $456 34.428106771981625 $310 $457 forward 7 unknown #
vertex $-1 $311 $458 #
vertex $-1 $309 $459 #
straight-curve $-1 -62.420633613388873 -18.461900676195455 0 0 0 -1 I I #
face $-1 $-1 $327 $44 $-1 $460 forward single #
loop $-1 $-1 $461 $192 #
plane-surface $-1 66.711020233771791 0 0 -1 0 0 0 0 1 forward_v I I I I #
coedge $-1 $462 $463 $464 $465 reversed $193 $-1 #
coedge $-1 $466 $195 $197 $325 forward $121 $-1 #
coedge $-1 $195 $466 $462 $467 forward $121 $-1 #
coedge $-1 $464 $198 $195 $322 forward $327 $-1 #
edge $-1 $329 2.2156936986923075 $468 8.9643300977440017 $321 $469 forward 7 unknown #
coedge $-1 $470 $471 $196 $324 forward $316 $-1 #
edge $-1 $472 -90.10155166315154 $328 -82.568870153888824 $323 $473 forward 7 unknown #
edge $-1 $329 120.90543465991979 $472 133.42204046754355 $197 $474 forward 7 unknown #
coedge $-1 $198 $464 $470 $475 forward $327 $-1 #
loop $-1 $-1 $464 $315 #
vertex $-1 $324 $476 #
vertex $-1 $199 $477 #
straight-curve $-1 20.225415524463948 -7.8057055969104621 14.180546146794057 -1 0 0 I I #
coedge $-1 $331 $331 $-1 $478 reversed $202 $-1 #
edge $-1 $479 0 $479 6.2831853071796004 $203 $480 forward 7 unknown #
vertex $-1 $206 $481 #
ellipse-curve $-1 61.712917338085965 -12.626160167661673 10.414205392162684 0.6018150307709319 0 0.79863550430605224 0.39931775215302612 0 -0.30090751538546595 1 I I #
coedge $-1 $335 $335 $-1 $482 reversed $209 $-1 #
edge $-1 $483 0 $483 6.2831853071796004 $210 $484 forward 7 unknown #
vertex $-1 $213 $485 #
ellipse-curve $-1 61.712917338085965 -9.7338874252109484 10.414205392162684 0.6018150307709319 0 0.79863550430605224 0.39931775215302612 0 -0.30090751538546595 1 I I #
face $-1 $-1 $351 $47 $-1 $486 forward single #
loop $-1 $-1 $487 $214 #
plane-surface $-1 66.711020233771791 0 0 -1 0 0 0 0 1 forward_v I I I I #
coedge $-1 $488 $489 $490 $491 reversed $215 $-1 #
coedge $-1 $492 $217 $219 $349 forward $135 $-1 #
coedge $-1 $217 $492 $488 $493 forward $135 $-1 #
coedge $-1 $490 $220 $217 $346 forward $351 $-1 #
edge $-1 $353 -10.783042075266867 $494 -4.0344056762151741 $345 $495 forward 7 unknown #
coedge $-1 $496 $497 $218 $348 forward $340 $-1 #
edge $-1 $498 -90.10155166315154 $352 -82.568870153888824 $347 $499 forward 7 unknown #
edge $-1 $353 120.90543465991979 $498 133.42204046754355 $219 $500 forward 7 unknown #
coedge $-1 $220 $490 $496 $501 forward $351 $-1 #
loop $-1 $-1 $490 $339 #
vertex $-1 $348 $502 #
vertex $-1 $221 $503 #
straight-curve $-1 20.225415524463948 18.191765951007888 14.180546146794057 -1 0 0 I I #
coedge $-1 $355 $355 $-1 $504 reversed $224 $-1 #
edge $-1 $505 0 $505 6.2831853071796004 $225 $506 forward 7 unknown #
vertex $-1 $228 $507 #
ellipse-curve $-1 61.712917338085965 13.371311380256678 10.414205392162684 0.6018150307709319 0 0.79863550430605224 0.39931775215302612 0 -0.30090751538546595 1 I I #
coedge $-1 $359 $359 $-1 $508 reversed $231 $-1 #
edge $-1 $509 0 $509 6.2831853071796004 $232 $510 forward 7 unknown #
vertex $-1 $235 $511 #
ellipse-curve $-1 61.712917338085965 16.263584122707407 10.414205392162684 0.6018150307709319 0 0.79863550430605224 0.39931775215302612 0 -0.30090751538546595 1 I I #
face $-1 $-1 $375 $50 $-1 $512 forward single #
loop $-1 $-1 $513 $236 #
plane-surface $-1 -66.711020233771791 0 0 1 0 0 0 0 -1 forward_v I I I I #
coedge $-1 $514 $515 $516 $517 reversed $237 $-1 #
coedge $-1 $518 $239 $241 $373 forward $149 $-1 #
coedge $-1 $239 $518 $514 $519 forward $149 $-1 #
coedge $-1 $516 $242 $239 $370 forward $375 $-1 #
edge $-1 $377 -8.9643300977440017 $520 -2.2156936986923075 $369 $521 forward 7 unknown #
coedge $-1 $522 $523 $240 $372 forward $364 $-1 #
edge $-1 $524 -49.953856968403898 $376 -42.421175459141196 $371 $525 forward 7 unknown #
edge $-1 $377 -12.516605807623762 $524 -3.5527045195756588e-014 $241 $526 forward 7 unknown #
coedge $-1 $242 $516 $522 $527 forward $375 $-1 #
loop $-1 $-1 $516 $363 #
vertex $-1 $372 $528 #
vertex $-1 $243 $529 #
straight-curve $-1 -73.503204811633537 -14.554341995962156 14.180546146794065 1 0 0 I I #
coedge $-1 $379 $379 $-1 $530 reversed $246 $-1 #
edge $-1 $531 0 $531 6.2831853071796004 $247 $532 forward 7 unknown #
vertex $-1 $250 $533 #
ellipse-curve $-1 -61.712917338085965 -12.626160167661673 10.414205392162719 -0.6018150307709319 0 0.79863550430605224 0.39931775215302612 0 0.30090751538546595 1 I I #
coedge $-1 $383 $383 $-1 $534 reversed $253 $-1 #
edge $-1 $535 0 $535 6.2831853071796004 $254 $536 forward 7 unknown #
vertex $-1 $257 $537 #
ellipse-curve $-1 -61.712917338085965 -9.7338874252109484 10.414205392162719 -0.6018150307709319 0 0.79863550430605224 0.39931775215302612 0 0.30090751538546595 1 I I #
face $-1 $-1 $538 $53 $-1 $539 reversed single #
loop $-1 $-1 $264 $258 #
plane-surface $-1 0 0 14.180546146794061 0 0 1 1 0 0 forward_v I I I I #
coedge $-1 $540 $541 $542 $543 reversed $259 $-1 #
coedge $-1 $544 $261 $263 $397 forward $163 $-1 #
coedge $-1 $261 $544 $540 $545 forward $163 $-1 #
coedge $-1 $542 $264 $261 $394 forward $388 $-1 #
edge $-1 $400 4.0344056762151741 $546 10.783042075266867 $393 $547 forward 7 unknown #
coedge $-1 $548 $549 $262 $396 forward $538 $-1 #
edge $-1 $550 -49.953856968403898 $399 -42.421175459141196 $395 $551 forward 7 unknown #
edge $-1 $400 -12.516605807623762 $550 -3.5527045195756588e-014 $263 $552 forward 7 unknown #
coedge $-1 $264 $542 $548 $553 forward $388 $-1 #
vertex $-1 $396 $554 #
vertex $-1 $265 $555 #
straight-curve $-1 -73.503204811633537 11.443129551956195 14.180546146794065 1 0 0 I I #
coedge $-1 $402 $402 $-1 $556 reversed $268 $-1 #
edge $-1 $557 0 $557 6.2831853071796004 $269 $558 forward 7 unknown #
vertex $-1 $272 $559 #
ellipse-curve $-1 -61.712917338085965 13.371311380256678 10.414205392162719 -0.6018150307709319 0 0.79863550430605224 0.39931775215302612 0 0.30090751538546595 1 I I #
coedge $-1 $406 $406 $-1 $560 reversed $275 $-1 #
edge $-1 $561 0 $561 6.2831853071796004 $276 $562 forward 7 unknown #
vertex $-1 $279 $563 #
ellipse-curve $-1 -61.712917338085965 16.263584122707407 10.414205392162719 -0.6018150307709319 0 0.79863550430605224 0.39931775215302612 0 0.30090751538546595 1 I I #
face $-1 $-1 $295 $42 $-1 $564 reversed single #
loop $-1 $-1 $426 $280 #
plane-surface $-1 0 33.533042419641255 0 0 -1 0 0 0 -1 forward_v I I I I #
coedge $-1 $565 $424 $427 $566 forward $281 $-1 #
coedge $-1 $430 $283 $284 $418 reversed $177 $-1 #
coedge $-1 $424 $565 $283 $416 reversed $281 $-1 #
edge $-1 $431 -14.180546146794061 $567 14.180546146794061 $415 $568 forward 7 unknown #
coedge $-1 $285 $284 $565 $569 forward $113 $-1 #
edge $-1 $422 -66.711020233771791 $567 66.711020233771791 $414 $570 forward 7 unknown #
coedge $-1 $427 $426 $285 $420 reversed $411 $-1 #
edge $-1 $571 -66.711020233771791 $421 66.711020233771791 $419 $572 forward 7 unknown #
vertex $-1 $287 $573 #
vertex $-1 $433 $574 #
straight-curve $-1 66.711020233771791 0 -14.180546146794061 0 -1 0 I I #
coedge $-1 $413 $415 $288 $425 reversed $281 $-1 #
edge $-1 $428 -33.533042419641255 $431 33.533042419641255 $424 $575 forward 7 unknown #
coedge $-1 $419 $289 $294 $434 forward $411 $-1 #
coedge $-1 $289 $419 $413 $566 reversed $411 $-1 #
vertex $-1 $290 $576 #
straight-curve $-1 0 33.533042419641255 14.180546146794061 -1 0 0 I I #
coedge $-1 $291 $414 $293 $433 reversed $177 $-1 #
vertex $-1 $425 $577 #
straight-curve $-1 0 -33.533042419641255 14.180546146794061 1 0 0 I I #
edge $-1 $296 -14.180546146794061 $422 14.180546146794061 $293 $578 forward 7 unknown #
edge $-1 $297 -14.180546146794061 $421 14.180546146794061 $294 $579 forward 7 unknown #
point $-1 66.711020233771791 -33.533042419641255 14.180546146794061 #
point $-1 66.711020233771791 33.533042419641255 14.180546146794061 #
face $-1 $-1 $447 $43 $-1 $580 reversed single #
loop $-1 $-1 $443 $299 #
plane-surface $-1 0 0 -14.180546146794061 0 0 1 1 0 0 forward_v I I I I #
coedge $-1 $581 $582 $307 $451 forward $300 $-1 #
coedge $-1 $302 $455 $445 $583 forward $185 $-1 #
edge $-1 $449 -20.534306645682079 $312 -5.4631649022362776 $302 $584 forward 7 unknown #
coedge $-1 $585 $308 $303 $444 forward $438 $-1 #
edge $-1 $313 5.4631649022362776 $448 20.534306645682079 $443 $586 forward 7 unknown #
coedge $-1 $587 $305 $441 $583 reversed $447 $-1 #
coedge $-1 $305 $587 $585 $588 reversed $447 $-1 #
loop $-1 $-1 $305 $437 #
vertex $-1 $588 $589 #
vertex $-1 $306 $590 #
straight-curve $-1 -62.420633613388873 -33.533042419641255 0 0 0 1 I I #
edge $-1 $456 -14.180546146794061 $453 14.180546146794061 $440 $591 forward 7 unknown #
coedge $-1 $308 $585 $581 $592 forward $438 $-1 #
vertex $-1 $309 $593 #
straight-curve $-1 -32.282913461790166 -18.461900676195455 -14.180546146794061 1 0 0 I I #
coedge $-1 $441 $310 $582 $594 forward $185 $-1 #
vertex $-1 $594 $595 #
straight-curve $-1 -32.282913461790166 -18.461900676195455 14.180546146794061 -1 0 0 I I #
point $-1 -62.420633613388873 -18.461900676195455 14.180546146794061 #
point $-1 -62.420633613388873 -18.461900676195455 -14.180546146794061 #
plane-surface $-1 0 0 14.180546146794061 0 0 1 1 0 0 forward_v I I I I #
coedge $-1 $471 $470 $463 $596 forward $316 $-1 #
coedge $-1 $463 $318 $320 $467 reversed $193 $-1 #
coedge $-1 $318 $462 $461 $596 reversed $193 $-1 #
coedge $-1 $326 $321 $318 $465 forward $327 $-1 #
edge $-1 $468 36.489398917936178 $597 46.485604709307843 $464 $598 forward 7 unknown #
coedge $-1 $320 $319 $471 $599 reversed $121 $-1 #
edge $-1 $600 -133.42204046754355 $468 -120.90543465991979 $462 $601 forward 7 unknown #
vertex $-1 $322 $602 #
straight-curve $-1 56.714814442400126 -5.5900118982181546 14.180546146794057 0 -1 0 I I #
coedge $-1 $461 $323 $326 $475 reversed $316 $-1 #
coedge $-1 $323 $461 $466 $599 forward $316 $-1 #
vertex $-1 $324 $603 #
straight-curve $-1 66.711020233771791 -7.8057055969104621 96.749416300682881 0 0 1 I I #
straight-curve $-1 -39.84455834056736 -7.8057055969104621 86.943254027026583 0.79863550430605224 0 -0.6018150307709319 I I #
edge $-1 $597 -14.554341995962156 $328 -7.8057055969104621 $470 $604 forward 7 unknown #
point $-1 66.711020233771791 -7.8057055969104621 14.180546146794061 #
point $-1 56.714814442400126 -7.8057055969104621 14.180546146794057 #
edge $-1 $605 1 $605 0 $331 $-1 forward 7 unknown #
vertex $-1 $332 $606 #
ellipse-curve $-1 60.553752567522707 -12.626160167661673 8.8759418165143682 0.6018150307709319 0 0.79863550430605224 0.39931775215302612 0 -0.30090751538546595 1 I I #
point $-1 62.112235090238975 -12.626160167661673 10.113297876777199 #
edge $-1 $607 1 $607 0 $335 $-1 forward 7 unknown #
vertex $-1 $336 $608 #
ellipse-curve $-1 60.553752567522707 -9.7338874252109484 8.8759418165143682 0.6018150307709319 0 0.79863550430605224 0.39931775215302612 0 -0.30090751538546595 1 I I #
point $-1 62.112235090238975 -9.7338874252109484 10.113297876777199 #
plane-surface $-1 0 0 14.180546146794061 0 0 1 1 0 0 forward_v I I I I #
coedge $-1 $497 $496 $489 $609 forward $340 $-1 #
coedge $-1 $489 $342 $344 $493 reversed $215 $-1 #
coedge $-1 $342 $488 $487 $609 reversed $215 $-1 #
coedge $-1 $350 $345 $342 $491 forward $351 $-1 #
edge $-1 $494 36.489398917936178 $610 46.485604709307843 $490 $611 forward 7 unknown #
coedge $-1 $344 $343 $497 $612 reversed $135 $-1 #
edge $-1 $613 -133.42204046754355 $494 -120.90543465991979 $488 $614 forward 7 unknown #
vertex $-1 $346 $615 #
straight-curve $-1 56.714814442400126 7.4087238757410212 14.180546146794057 0 -1 0 I I #
coedge $-1 $487 $347 $350 $501 reversed $340 $-1 #
coedge $-1 $347 $487 $492 $612 forward $340 $-1 #
vertex $-1 $348 $616 #
straight-curve $-1 66.711020233771791 18.191765951007888 96.749416300682881 0 0 1 I I #
straight-curve $-1 -39.84455834056736 18.191765951007888 86.943254027026583 0.79863550430605224 0 -0.6018150307709319 I I #
edge $-1 $610 11.443129551956195 $352 18.191765951007888 $496 $617 forward 7 unknown #
point $-1 66.711020233771791 18.191765951007888 14.180546146794061 #
point $-1 56.714814442400126 18.191765951007888 14.180546146794057 #
edge $-1 $618 1 $618 0 $355 $-1 forward 7 unknown #
vertex $-1 $356 $619 #
ellipse-curve $-1 60.553752567522707 13.371311380256678 8.8759418165143682 0.6018150307709319 0 0.79863550430605224 0.39931775215302612 0 -0.30090751538546595 1 I I #
point $-1 62.112235090238975 13.371311380256678 10.113297876777199 #
edge $-1 $620 1 $620 0 $359 $-1 forward 7 unknown #
vertex $-1 $360 $621 #
ellipse-curve $-1 60.553752567522707 16.263584122707407 8.8759418165143682 0.6018150307709319 0 0.79863550430605224 0.39931775215302612 0 -0.30090751538546595 1 I I #
point $-1 62.112235090238975 16.263584122707407 10.113297876777199 #
plane-surface $-1 0 0 14.180546146794061 0 0 1 1 0 0 forward_v I I I I #
coedge $-1 $523 $522 $515 $622 forward $364 $-1 #
coedge $-1 $515 $366 $368 $519 reversed $237 $-1 #
coedge $-1 $366 $514 $513 $622 reversed $237 $-1 #
coedge $-1 $374 $369 $366 $517 forward $375 $-1 #
edge $-1 $520 -16.788390369233383 $623 -6.7921845778617467 $516 $624 forward 7 unknown #
coedge $-1 $368 $367 $523 $625 reversed $149 $-1 #
edge $-1 $626 3.5527045195756588e-014 $520 12.516605807623762 $514 $627 forward 7 unknown #
vertex $-1 $370 $628 #
straight-curve $-1 -56.714814442400161 -5.5900118982181546 14.180546146794061 0 1 0 I I #
coedge $-1 $513 $371 $374 $527 reversed $364 $-1 #
coedge $-1 $371 $513 $518 $625 forward $364 $-1 #
vertex $-1 $372 $629 #
straight-curve $-1 -66.711020233771791 -14.554341995962156 56.601721605935261 0 0 1 I I #
straight-curve $-1 -66.711020233771819 -14.554341995962156 6.6478646375313417 -0.79863550430605224 0 -0.6018150307709319 I I #
edge $-1 $623 7.8057055969104621 $376 14.554341995962156 $522 $630 forward 7 unknown #
point $-1 -66.711020233771791 -14.554341995962156 14.180546146794061 #
point $-1 -56.714814442400154 -14.554341995962156 14.180546146794061 #
edge $-1 $631 1 $631 0 $379 $-1 forward 7 unknown #
vertex $-1 $380 $632 #
ellipse-curve $-1 -60.553752567522693 -12.626160167661673 8.8759418165143895 -0.6018150307709319 0 0.79863550430605224 0.39931775215302612 0 0.30090751538546595 1 I I #
point $-1 -61.313599585932913 -12.626160167661673 10.715112907548153 #
edge $-1 $633 1 $633 0 $383 $-1 forward 7 unknown #
vertex $-1 $384 $634 #
ellipse-curve $-1 -60.553752567522693 -9.7338874252109484 8.8759418165143895 -0.6018150307709319 0 0.79863550430605224 0.39931775215302612 0 0.30090751538546595 1 I I #
point $-1 -61.313599585932913 -9.7338874252109484 10.715112907548153 #
loop $-1 $-1 $395 $387 #
plane-surface $-1 -66.711020233771791 0 0 1 0 0 0 0 -1 forward_v I I I I #
coedge $-1 $541 $390 $392 $545 reversed $259 $-1 #
coedge $-1 $390 $540 $635 $636 reversed $259 $-1 #
coedge $-1 $398 $393 $390 $543 forward $388 $-1 #
edge $-1 $546 -16.788390369233383 $637 -6.7921845778617467 $542 $638 forward 7 unknown #
coedge $-1 $392 $391 $549 $639 reversed $163 $-1 #
edge $-1 $640 3.5527045195756588e-014 $546 12.516605807623762 $540 $641 forward 7 unknown #
vertex $-1 $394 $642 #
straight-curve $-1 -56.714814442400161 7.4087238757410212 14.180546146794061 0 1 0 I I #
coedge $-1 $635 $395 $398 $553 reversed $538 $-1 #
coedge $-1 $395 $635 $544 $639 forward $538 $-1 #
vertex $-1 $396 $643 #
straight-curve $-1 -66.711020233771791 11.443129551956195 56.601721605935261 0 0 1 I I #
straight-curve $-1 -66.711020233771819 11.443129551956195 6.6478646375313417 -0.79863550430605224 0 -0.6018150307709319 I I #
edge $-1 $637 -18.191765951007888 $399 -11.443129551956195 $548 $644 forward 7 unknown #
point $-1 -66.711020233771791 11.443129551956195 14.180546146794061 #
point $-1 -56.714814442400154 11.443129551956195 14.180546146794061 #
edge $-1 $645 1 $645 0 $402 $-1 forward 7 unknown #
vertex $-1 $403 $646 #
ellipse-curve $-1 -60.553752567522693 13.371311380256678 8.8759418165143895 -0.6018150307709319 0 0.79863550430605224 0.39931775215302612 0 0.30090751538546595 1 I I #
point $-1 -61.313599585932913 13.371311380256678 10.715112907548153 #
edge $-1 $647 1 $647 0 $406 $-1 forward 7 unknown #
vertex $-1 $407 $648 #
ellipse-curve $-1 -60.553752567522693 16.263584122707407 8.8759418165143895 -0.6018150307709319 0 0.79863550430605224 0.39931775215302612 0 0.30090751538546595 1 I I #
point $-1 -61.313599585932913 16.263584122707407 10.715112907548153 #
plane-surface $-1 66.711020233771791 0 0 -1 0 0 0 0 1 forward_v I I I I #
coedge $-1 $415 $413 $417 $569 reversed $281 $-1 #
edge $-1 $428 -14.180546146794061 $571 14.180546146794061 $427 $649 forward 7 unknown #
vertex $-1 $569 $650 #
straight-curve $-1 -66.711020233771791 -33.533042419641255 0 0 0 -1 I I #
edge $-1 $567 -33.533042419641255 $571 33.533042419641255 $565 $651 forward 7 unknown #
straight-curve $-1 0 -33.533042419641255 -14.180546146794061 -1 0 0 I I #
vertex $-1 $420 $652 #
straight-curve $-1 0 33.533042419641255 -14.180546146794061 1 0 0 I I #
point $-1 66.711020233771791 33.533042419641255 -14.180546146794061 #
point $-1 66.711020233771791 -33.533042419641255 -14.180546146794061 #
straight-curve $-1 -66.711020233771791 0 14.180546146794061 0 -1 0 I I #
point $-1 -66.711020233771791 33.533042419641255 14.180546146794061 #
point $-1 -66.711020233771791 -33.533042419641255 14.180546146794061 #
straight-curve $-1 66.711020233771791 -33.533042419641255 0 0 0 -1 I I #
straight-curve $-1 66.711020233771791 33.533042419641255 0 0 0 -1 I I #
plane-surface $-1 0 -33.533042419641255 0 0 1 0 0 0 1 forward_v I I I I #
coedge $-1 $653 $440 $452 $592 reversed $300 $-1 #
coedge $-1 $440 $653 $455 $594 reversed $300 $-1 #
edge $-1 $654 -66.711020233771791 $449 -62.420633613388873 $445 $655 forward 7 unknown #
straight-curve $-1 -62.420633613388873 -12.998735773959178 14.180546146794061 0 1 0 I I #
coedge $-1 $452 $443 $446 $588 forward $438 $-1 #
straight-curve $-1 -62.420633613388873 -12.998735773959178 -14.180546146794061 0 -1 0 I I #
coedge $-1 $446 $445 $653 $656 forward $447 $-1 #
edge $-1 $448 62.420633613388873 $657 66.711020233771791 $446 $658 forward 7 unknown #
point $-1 -62.420633613388873 -33.533042419641255 -14.180546146794061 #
point $-1 -62.420633613388873 -33.533042419641255 14.180546146794061 #
straight-curve $-1 -66.711020233771791 -18.461900676195455 0 0 0 -1 I I #
edge $-1 $657 -33.533042419641255 $453 -18.461900676195455 $581 $659 forward 7 unknown #
point $-1 -66.711020233771791 -18.461900676195455 -14.180546146794061 #
edge $-1 $456 18.461900676195455 $654 33.533042419641255 $582 $660 forward 7 unknown #
point $-1 -66.711020233771791 -18.461900676195455 14.180546146794061 #
edge $-1 $597 82.568870153888824 $600 90.10155166315154 $461 $661 forward 7 unknown #
vertex $-1 $475 $662 #
straight-curve $-1 20.225415524463948 -14.554341995962156 14.180546146794057 1 0 0 I I #
edge $-1 $600 -8.9643300977440017 $472 -2.2156936986923075 $471 $663 forward 7 unknown #
vertex $-1 $599 $664 #
straight-curve $-1 -39.84455834056736 -14.554341995962156 86.943254027026583 -0.79863550430605224 0 0.6018150307709319 I I #
point $-1 56.714814442400126 -14.554341995962156 14.180546146794057 #
point $-1 66.711020233771791 -7.8057055969104621 6.6478646375313417 #
straight-curve $-1 66.711020233771791 0 14.180546146794061 0 1 0 I I #
vertex $-1 $478 $665 #
point $-1 60.953070319675739 -12.626160167661673 8.5750343011289019 #
vertex $-1 $482 $666 #
point $-1 60.953070319675739 -9.7338874252109484 8.5750343011289019 #
edge $-1 $610 82.568870153888824 $613 90.10155166315154 $487 $667 forward 7 unknown #
vertex $-1 $501 $668 #
straight-curve $-1 20.225415524463948 11.443129551956195 14.180546146794057 1 0 0 I I #
edge $-1 $613 4.0344056762151741 $498 10.783042075266867 $497 $669 forward 7 unknown #
vertex $-1 $612 $670 #
straight-curve $-1 -39.84455834056736 11.443129551956195 86.943254027026583 -0.79863550430605224 0 0.6018150307709319 I I #
point $-1 56.714814442400126 11.443129551956195 14.180546146794057 #
point $-1 66.711020233771791 18.191765951007888 6.6478646375313417 #
straight-curve $-1 66.711020233771791 0 14.180546146794061 0 1 0 I I #
vertex $-1 $504 $671 #
point $-1 60.953070319675739 13.371311380256678 8.5750343011289019 #
vertex $-1 $508 $672 #
point $-1 60.953070319675739 16.263584122707407 8.5750343011289019 #
edge $-1 $623 42.421175459141196 $626 49.953856968403898 $513 $673 forward 7 unknown #
vertex $-1 $527 $674 #
straight-curve $-1 -73.503204811633537 -7.8057055969104621 14.180546146794065 -1 0 0 I I #
edge $-1 $626 2.2156936986923075 $524 8.9643300977440017 $523 $675 forward 7 unknown #
vertex $-1 $625 $676 #
straight-curve $-1 -66.711020233771819 -7.8057055969104621 6.6478646375313417 0.79863550430605224 0 0.6018150307709319 I I #
point $-1 -56.714814442400154 -7.8057055969104621 14.180546146794061 #
point $-1 -66.711020233771791 -14.554341995962156 6.647864637531363 #
straight-curve $-1 -66.711020233771791 0 14.180546146794061 0 -1 0 I I #
vertex $-1 $530 $677 #
point $-1 -60.154434815369669 -12.626160167661673 9.1768493318998541 #
vertex $-1 $534 $678 #
point $-1 -60.154434815369669 -9.7338874252109484 9.1768493318998541 #
coedge $-1 $549 $548 $541 $636 forward $538 $-1 #
edge $-1 $637 42.421175459141196 $640 49.953856968403898 $635 $679 forward 7 unknown #
vertex $-1 $553 $680 #
straight-curve $-1 -73.503204811633537 18.191765951007888 14.180546146794065 -1 0 0 I I #
edge $-1 $640 -10.783042075266867 $550 -4.0344056762151741 $549 $681 forward 7 unknown #
vertex $-1 $639 $682 #
straight-curve $-1 -66.711020233771819 18.191765951007888 6.6478646375313417 0.79863550430605224 0 0.6018150307709319 I I #
point $-1 -56.714814442400154 18.191765951007888 14.180546146794061 #
point $-1 -66.711020233771791 11.443129551956195 6.647864637531363 #
straight-curve $-1 -66.711020233771791 0 14.180546146794061 0 -1 0 I I #
vertex $-1 $556 $683 #
point $-1 -60.154434815369669 13.371311380256678 9.1768493318998541 #
vertex $-1 $560 $684 #
point $-1 -60.154434815369669 16.263584122707407 9.1768493318998541 #
straight-curve $-1 -66.711020233771791 33.533042419641255 0 0 0 -1 I I #
point $-1 -66.711020233771791 -33.533042419641255 -14.180546146794061 #
straight-curve $-1 -66.711020233771791 0 -14.180546146794061 0 1 0 I I #
point $-1 -66.711020233771791 33.533042419641255 -14.180546146794061 #
coedge $-1 $582 $581 $587 $656 reversed $300 $-1 #
vertex $-1 $594 $685 #
straight-curve $-1 0 -33.533042419641255 14.180546146794061 1 0 0 I I #
edge $-1 $654 -14.180546146794061 $657 14.180546146794061 $653 $686 forward 7 unknown #
vertex $-1 $592 $687 #
straight-curve $-1 0 -33.533042419641255 -14.180546146794061 -1 0 0 I I #
straight-curve $-1 -66.711020233771791 0 -14.180546146794061 0 1 0 I I #
straight-curve $-1 -66.711020233771791 0 14.180546146794061 0 -1 0 I I #
straight-curve $-1 66.711020233771791 -14.554341995962156 96.749416300682881 0 0 -1 I I #
point $-1 66.711020233771791 -14.554341995962156 14.180546146794061 #
straight-curve $-1 66.711020233771791 -5.5900118982181546 6.6478646375313417 0 1 0 I I #
point $-1 66.711020233771791 -14.554341995962156 6.6478646375313417 #
point $-1 60.252845052137246 -12.626160167661673 8.4766240643613404 #
point $-1 60.252845052137246 -9.7338874252109484 8.4766240643613404 #
straight-curve $-1 66.711020233771791 11.443129551956195 96.749416300682881 0 0 -1 I I #
point $-1 66.711020233771791 11.443129551956195 14.180546146794061 #
straight-curve $-1 66.711020233771791 7.4087238757410212 6.6478646375313417 0 1 0 I I #
point $-1 66.711020233771791 11.443129551956195 6.6478646375313417 #
point $-1 60.252845052137246 13.371311380256678 8.4766240643613404 #
point $-1 60.252845052137246 16.263584122707407 8.4766240643613404 #
straight-curve $-1 -66.711020233771791 -7.8057055969104621 56.601721605935261 0 0 -1 I I #
point $-1 -66.711020233771791 -7.8057055969104621 14.180546146794061 #
straight-curve $-1 -66.711020233771791 -5.5900118982181546 6.6478646375313595 0 -1 0 I I #
point $-1 -66.711020233771791 -7.8057055969104621 6.647864637531363 #
point $-1 -60.252845052137232 -12.626160167661673 8.4766240643613617 #
point $-1 -60.252845052137232 -9.7338874252109484 8.4766240643613617 #
straight-curve $-1 -66.711020233771791 18.191765951007888 56.601721605935261 0 0 -1 I I #
point $-1 -66.711020233771791 18.191765951007888 14.180546146794061 #
straight-curve $-1 -66.711020233771791 7.4087238757410212 6.6478646375313595 0 -1 0 I I #
point $-1 -66.711020233771791 18.191765951007888 6.647864637531363 #
point $-1 -60.252845052137232 13.371311380256678 8.4766240643613617 #
point $-1 -60.252845052137232 16.263584122707407 8.4766240643613617 #
point $-1 -66.711020233771791 -33.533042419641255 14.180546146794061 #
straight-curve $-1 -66.711020233771791 -33.533042419641255 0 0 0 -1 I I #
point $-1 -66.711020233771791 -33.533042419641255 -14.180546146794061 #
End-of-ACIS-data 