500 0 5 0           
7 Unknown 11 ACIS 5.0 NT 24 Thu Mar 25 16:23:22 1999 
-1 9.9999999999999995e-007 1e-010 
body $-1 $5 $-1 $6 #
body $-1 $7 $-1 $8 #
body $-1 $9 $-1 $10 #
body $-1 $11 $-1 $12 #
body $-1 $13 $-1 $14 #
lump $-1 $-1 $15 $0 #
transform $-1 1 0 0 0 1 0 0 0 1 46.631061738944666 30.094660045156306 13.190235915357288 1 rotate no_reflect no_shear #
lump $-1 $-1 $16 $1 #
transform $-1 1 0 0 0 1 0 0 0 1 46.631061738944666 30.094660045156306 13.190235915357288 1 rotate no_reflect no_shear #
lump $-1 $-1 $17 $2 #
transform $-1 1 0 0 0 1 0 0 0 1 46.631061738944666 30.094660045156306 13.190235915357288 1 rotate no_reflect no_shear #
lump $-1 $-1 $18 $3 #
transform $-1 1 0 0 0 1 0 0 0 1 46.631061738944666 30.094660045156306 13.190235915357288 1 rotate no_reflect no_shear #
lump $-1 $-1 $19 $4 #
transform $-1 1 0 0 0 1 0 0 0 1 46.631061738944666 30.094660045156306 13.190235915357288 1 rotate no_reflect no_shear #
shell $-1 $-1 $-1 $20 $-1 $5 #
shell $-1 $-1 $-1 $21 $-1 $7 #
shell $-1 $-1 $-1 $22 $-1 $9 #
shell $-1 $-1 $-1 $23 $-1 $11 #
shell $-1 $-1 $-1 $24 $-1 $13 #
face $-1 $25 $26 $15 $-1 $27 forward single #
face $-1 $28 $29 $16 $-1 $30 forward single #
face $-1 $31 $32 $17 $-1 $33 forward single #
face $-1 $34 $35 $18 $-1 $36 forward single #
face $-1 $37 $38 $19 $-1 $39 reversed single #
face $-1 $40 $41 $15 $-1 $42 reversed single #
loop $-1 $-1 $43 $20 #
plane-surface $-1 0 0 13.190235915357288 0 0 1 1 0 0 forward_v I I I I #
face $-1 $44 $45 $16 $-1 $46 forward single #
loop $-1 $-1 $47 $21 #
plane-surface $-1 -39.77477574148439 -22.258129430250261 0 0 -1 0 0 0 -1 forward_v I I I I #
face $-1 $48 $49 $17 $-1 $50 reversed single #
loop $-1 $-1 $51 $22 #
plane-surface $-1 52.802954551375677 0 -7.8870099259136417 0 0 1 1 0 0 forward_v I I I I #
face $-1 $52 $53 $18 $-1 $54 forward single #
loop $-1 $-1 $55 $23 #
plane-surface $-1 3.9178302578044111 -110.03590341514331 51.073167512081653 -1 0 0 0 -0.85716730853699208 0.51503806187062418 forward_v I I I I #
face $-1 $56 $57 $19 $-1 $58 reversed single #
loop $-1 $59 $60 $24 #
cone-surface $-1 -0.32993430350519759 -25.452572596719676 7.1580378401149733 0 0.85716730853699208 -0.51503806187062418 1 0 0 1 I I 0 1 1 forward I I I I #
face $-1 $61 $62 $15 $-1 $63 reversed single #
loop $-1 $-1 $64 $25 #
plane-surface $-1 0 0 -13.190235915357288 0 0 1 1 0 0 forward_v I I I I #
coedge $-1 $65 $66 $67 $68 forward $26 $-1 #
face $-1 $69 $70 $16 $-1 $71 forward single #
loop $-1 $-1 $72 $28 #
plane-surface $-1 -32.918489744024114 -26.176394737703284 0 -1 0 0 0 0 1 forward_v I I I I #
coedge $-1 $73 $74 $75 $76 reversed $29 $-1 #
face $-1 $77 $78 $17 $-1 $79 forward single #
loop $-1 $-1 $80 $31 #
plane-surface $-1 58.974847363806688 0 -10.538622920635465 -1 0 0 0 0 1 forward_v I I I I #
coedge $-1 $81 $82 $83 $84 forward $32 $-1 #
face $-1 $85 $86 $18 $-1 $87 forward single #
loop $-1 $-1 $88 $34 #
plane-surface $-1 -0.32993430350519759 -30.094660045156289 3.0396241900906986 0 -0.85716730853699208 0.51503806187062418 1 0 0 forward_v I I I I #
coedge $-1 $89 $90 $91 $92 reversed $35 $-1 #
face $-1 $93 $94 $19 $-1 $95 forward single #
loop $-1 $96 $97 $37 #
cone-surface $-1 -0.32993430350519759 -23.431452811309633 5.9436265965706383 0 0.85716730853699208 -0.51503806187062418 0.5 0 0 1 I I -0.70710678118654746 0.70710678118654746 0.5 forward I I I I #
loop $-1 $-1 $98 $24 #
coedge $-1 $60 $60 $99 $100 reversed $38 $-1 #
face $-1 $101 $102 $15 $-1 $103 reversed single #
loop $-1 $-1 $104 $40 #
plane-surface $-1 0 -30.094660045156306 0 0 1 0 0 0 1 forward_v I I I I #
coedge $-1 $105 $106 $107 $108 forward $41 $-1 #
coedge $-1 $109 $43 $110 $111 forward $26 $-1 #
coedge $-1 $43 $109 $112 $113 forward $26 $-1 #
coedge $-1 $114 $115 $43 $68 reversed $116 $-1 #
edge $-1 $117 -30.094660045156306 $118 30.094660045156306 $67 $119 forward 7 unknown #
face $-1 $120 $121 $16 $-1 $122 reversed single #
loop $-1 $-1 $123 $44 #
plane-surface $-1 0 0 13.190235915357288 0 0 1 1 0 0 forward_v I I I I #
coedge $-1 $124 $125 $126 $127 reversed $45 $-1 #
coedge $-1 $128 $47 $123 $129 reversed $29 $-1 #
coedge $-1 $47 $128 $130 $131 reversed $29 $-1 #
coedge $-1 $125 $124 $47 $76 forward $45 $-1 #
edge $-1 $132 -13.190235915357288 $133 13.190235915357288 $75 $134 forward 7 unknown #
face $-1 $135 $136 $17 $-1 $137 forward single #
loop $-1 $-1 $138 $48 #
plane-surface $-1 -39.77477574148439 -22.258129430250261 0 0 -1 0 0 0 -1 forward_v I I I I #
coedge $-1 $139 $83 $140 $141 forward $49 $-1 #
coedge $-1 $142 $51 $143 $144 forward $32 $-1 #
coedge $-1 $51 $142 $145 $146 forward $32 $-1 #
coedge $-1 $80 $147 $51 $84 reversed $49 $-1 #
edge $-1 $148 -30.094660045156306 $149 30.094660045156306 $83 $150 forward 7 unknown #
face $-1 $151 $152 $18 $-1 $153 forward single #
loop $-1 $-1 $154 $52 #
plane-surface $-1 -4.5776988648148063 -110.03590341514331 51.073167512081653 1 0 0 0 0.85716730853699208 -0.51503806187062418 forward_v I I I I #
coedge $-1 $155 $156 $157 $158 reversed $53 $-1 #
coedge $-1 $90 $55 $156 $159 forward $35 $-1 #
coedge $-1 $55 $89 $160 $161 reversed $35 $-1 #
coedge $-1 $162 $157 $55 $92 forward $152 $-1 #
edge $-1 $163 -31.02239429700554 $164 -24.923291662415348 $91 $165 forward 7 unknown #
face $-1 $166 $167 $19 $-1 $168 forward single #
loop $-1 $-1 $169 $56 #
plane-surface $-1 3.9178302578044111 -110.03590341514331 51.073167512081653 -1 0 0 0 -0.85716730853699208 0.51503806187062418 forward_v I I I I #
loop $-1 $-1 $170 $37 #
coedge $-1 $97 $97 $98 $171 forward $57 $-1 #
coedge $-1 $98 $98 $97 $171 reversed $59 $-1 #
coedge $-1 $99 $99 $60 $100 forward $167 $-1 #
edge $-1 $172 -1.8166789961372826e-015 $172 6.2831853071795987 $99 $173 forward 7 unknown #
face $-1 $174 $175 $15 $-1 $176 reversed single #
loop $-1 $-1 $177 $61 #
plane-surface $-1 -46.631061738944666 0 0 1 0 0 0 0 -1 forward_v I I I I #
coedge $-1 $178 $112 $179 $180 forward $62 $-1 #
coedge $-1 $181 $64 $178 $182 forward $41 $-1 #
coedge $-1 $64 $181 $183 $184 forward $41 $-1 #
coedge $-1 $115 $114 $64 $108 reversed $116 $-1 #
edge $-1 $185 -30.094660045156306 $186 30.094660045156306 $107 $187 forward 7 unknown #
coedge $-1 $66 $65 $188 $189 forward $26 $-1 #
coedge $-1 $190 $191 $65 $111 reversed $175 $-1 #
edge $-1 $118 -46.631061738944666 $192 46.631061738944666 $110 $193 forward 7 unknown #
coedge $-1 $104 $194 $66 $113 reversed $62 $-1 #
edge $-1 $195 -46.631061738944666 $117 46.631061738944666 $112 $196 forward 7 unknown #
coedge $-1 $107 $67 $194 $197 forward $116 $-1 #
coedge $-1 $67 $107 $190 $198 reversed $116 $-1 #
loop $-1 $-1 $114 $174 #
vertex $-1 $68 $199 #
vertex $-1 $68 $200 #
straight-curve $-1 46.631061738944666 0 13.190235915357288 0 1 0 I I #
face $-1 $201 $202 $16 $-1 $203 reversed single #
loop $-1 $-1 $126 $69 #
plane-surface $-1 0 -30.094660045156306 0 0 1 0 0 0 1 forward_v I I I I #
coedge $-1 $204 $205 $73 $129 forward $70 $-1 #
coedge $-1 $75 $72 $204 $206 reversed $45 $-1 #
coedge $-1 $72 $75 $207 $208 reversed $45 $-1 #
coedge $-1 $209 $210 $72 $127 forward $121 $-1 #
edge $-1 $211 -13.190235915357288 $212 13.190235915357288 $126 $213 forward 7 unknown #
coedge $-1 $74 $73 $214 $215 reversed $29 $-1 #
edge $-1 $216 -26.743673868202471 $132 -13.031101873281919 $123 $217 forward 7 unknown #
coedge $-1 $218 $207 $74 $131 forward $202 $-1 #
edge $-1 $133 13.031101873281919 $219 26.743673868202471 $130 $220 forward 7 unknown #
vertex $-1 $129 $221 #
vertex $-1 $131 $222 #
straight-curve $-1 -32.918489744024114 -22.258129430250261 0 0 0 -1 I I #
face $-1 $223 $224 $17 $-1 $225 forward single #
loop $-1 $-1 $226 $77 #
plane-surface $-1 -32.918489744024114 -26.176394737703284 0 -1 0 0 0 0 1 forward_v I I I I #
coedge $-1 $227 $228 $229 $230 reversed $78 $-1 #
coedge $-1 $147 $80 $231 $232 reversed $49 $-1 #
coedge $-1 $145 $233 $80 $141 reversed $234 $-1 #
edge $-1 $148 -2.6516129947218232 $235 2.6516129947218232 $80 $236 forward 7 unknown #
coedge $-1 $82 $81 $237 $238 reversed $32 $-1 #
coedge $-1 $239 $240 $81 $144 reversed $241 $-1 #
edge $-1 $149 -6.1718928124310111 $242 6.1718928124310111 $143 $243 forward 7 unknown #
coedge $-1 $244 $140 $82 $146 reversed $234 $-1 #
edge $-1 $245 -6.1718928124310111 $148 6.1718928124310111 $145 $246 forward 7 unknown #
coedge $-1 $83 $139 $239 $247 reversed $49 $-1 #
vertex $-1 $84 $248 #
vertex $-1 $84 $249 #
straight-curve $-1 58.974847363806688 0 -7.8870099259136417 0 1 0 I I #
face $-1 $250 $251 $18 $-1 $252 forward single #
loop $-1 $-1 $253 $85 #
plane-surface $-1 0 0 13.190235915357288 0 0 1 1 0 0 forward_v I I I I #
coedge $-1 $254 $255 $253 $256 reversed $86 $-1 #
coedge $-1 $257 $88 $255 $258 reversed $53 $-1 #
coedge $-1 $88 $257 $89 $159 reversed $53 $-1 #
coedge $-1 $91 $253 $88 $158 forward $152 $-1 #
edge $-1 $259 -4.4127317130622075 $163 4.0827974095570099 $157 $260 forward 7 unknown #
edge $-1 $163 -11.842042532620141 $261 3.465305027230568e-014 $89 $262 forward 7 unknown #
coedge $-1 $263 $264 $90 $161 forward $265 $-1 #
edge $-1 $164 12.346347840683539 $261 22.496959565950156 $160 $266 forward 7 unknown #
coedge $-1 $267 $91 $264 $268 forward $152 $-1 #
vertex $-1 $158 $269 #
vertex $-1 $268 $270 #
straight-curve $-1 3.9178302578044111 -55.017951707571655 13.190235915357288 0 -1 0 I I #
face $-1 $271 $272 $19 $-1 $273 forward single #
loop $-1 $274 $99 $93 #
plane-surface $-1 -0.32993430350519759 -30.094660045156289 3.0396241900906986 0 -0.85716730853699208 0.51503806187062418 1 0 0 forward_v I I I I #
coedge $-1 $275 $276 $277 $278 reversed $94 $-1 #
coedge $-1 $170 $170 $-1 $279 forward $96 $-1 #
edge $-1 $280 0 $280 6.2831853071796004 $97 $281 forward 7 unknown #
vertex $-1 $100 $282 #
ellipse-curve $-1 -0.32993430350519759 -27.045108727861205 8.1149300527239863 0 0.85716730853699208 -0.51503806187062418 1 0 0 1 I I #
face $-1 $-1 $116 $15 $-1 $283 reversed single #
loop $-1 $-1 $190 $101 #
plane-surface $-1 0 30.094660045156306 0 0 -1 0 0 0 -1 forward_v I I I I #
coedge $-1 $284 $188 $191 $285 forward $102 $-1 #
coedge $-1 $194 $104 $105 $182 reversed $62 $-1 #
coedge $-1 $188 $284 $104 $180 reversed $102 $-1 #
edge $-1 $195 -13.190235915357288 $286 13.190235915357288 $179 $287 forward 7 unknown #
coedge $-1 $106 $105 $284 $288 forward $41 $-1 #
edge $-1 $186 -46.631061738944666 $286 46.631061738944666 $178 $289 forward 7 unknown #
coedge $-1 $191 $190 $106 $184 reversed $175 $-1 #
edge $-1 $290 -46.631061738944666 $185 46.631061738944666 $183 $291 forward 7 unknown #
vertex $-1 $108 $292 #
vertex $-1 $197 $293 #
straight-curve $-1 46.631061738944666 0 -13.190235915357288 0 -1 0 I I #
coedge $-1 $177 $179 $109 $189 reversed $102 $-1 #
edge $-1 $192 -30.094660045156306 $195 30.094660045156306 $188 $294 forward 7 unknown #
coedge $-1 $183 $110 $115 $198 forward $175 $-1 #
coedge $-1 $110 $183 $177 $285 reversed $175 $-1 #
vertex $-1 $111 $295 #
straight-curve $-1 0 30.094660045156306 13.190235915357288 -1 0 0 I I #
coedge $-1 $112 $178 $114 $197 reversed $62 $-1 #
vertex $-1 $189 $296 #
straight-curve $-1 0 -30.094660045156306 13.190235915357288 1 0 0 I I #
edge $-1 $117 -13.190235915357288 $186 13.190235915357288 $114 $297 forward 7 unknown #
edge $-1 $118 -13.190235915357288 $185 13.190235915357288 $115 $298 forward 7 unknown #
point $-1 46.631061738944666 -30.094660045156306 13.190235915357288 #
point $-1 46.631061738944666 30.094660045156306 13.190235915357288 #
face $-1 $299 $300 $16 $-1 $301 reversed single #
loop $-1 $-1 $130 $120 #
plane-surface $-1 0 0 -13.190235915357288 0 0 1 1 0 0 forward_v I I I I #
coedge $-1 $302 $123 $124 $206 forward $70 $-1 #
coedge $-1 $123 $303 $304 $305 forward $70 $-1 #
edge $-1 $132 9.1699320613986188 $211 17.006462676304665 $204 $306 forward 7 unknown #
coedge $-1 $130 $307 $125 $208 forward $202 $-1 #
edge $-1 $212 -17.006462676304665 $133 -9.1699320613986188 $207 $308 forward 7 unknown #
coedge $-1 $309 $126 $307 $310 reversed $121 $-1 #
coedge $-1 $126 $309 $302 $311 reversed $121 $-1 #
vertex $-1 $311 $312 #
vertex $-1 $127 $313 #
straight-curve $-1 -32.918489744024114 -30.094660045156306 0 0 0 -1 I I #
coedge $-1 $304 $314 $128 $215 forward $300 $-1 #
edge $-1 $219 -13.190235915357288 $216 13.190235915357288 $214 $315 forward 7 unknown #
vertex $-1 $215 $316 #
straight-curve $-1 -19.887387870742195 -22.258129430250261 13.190235915357288 1 0 0 I I #
coedge $-1 $317 $130 $314 $318 forward $202 $-1 #
vertex $-1 $318 $319 #
straight-curve $-1 -19.887387870742195 -22.258129430250261 -13.190235915357288 -1 0 0 I I #
point $-1 -32.918489744024114 -22.258129430250261 13.190235915357288 #
point $-1 -32.918489744024114 -22.258129430250261 -13.190235915357288 #
face $-1 $320 $234 $17 $-1 $321 reversed single #
loop $-1 $-1 $322 $135 #
plane-surface $-1 0 0 13.190235915357288 0 0 1 1 0 0 forward_v I I I I #
coedge $-1 $323 $324 $325 $326 reversed $136 $-1 #
coedge $-1 $327 $138 $322 $328 reversed $78 $-1 #
coedge $-1 $138 $327 $329 $330 reversed $78 $-1 #
coedge $-1 $324 $323 $138 $230 forward $136 $-1 #
edge $-1 $331 -13.190235915357288 $332 13.190235915357288 $229 $333 forward 7 unknown #
coedge $-1 $334 $335 $139 $232 forward $336 $-1 #
edge $-1 $337 -30.094660045156306 $235 30.094660045156306 $139 $338 forward 7 unknown #
coedge $-1 $140 $325 $334 $339 reversed $234 $-1 #
loop $-1 $-1 $325 $223 #
vertex $-1 $141 $340 #
straight-curve $-1 58.974847363806688 -30.094660045156306 -10.538622920635465 0 0 -1 I I #
coedge $-1 $341 $342 $142 $238 forward $343 $-1 #
edge $-1 $245 -30.094660045156306 $242 30.094660045156306 $237 $344 forward 7 unknown #
coedge $-1 $345 $143 $147 $247 forward $241 $-1 #
coedge $-1 $143 $346 $341 $347 forward $241 $-1 #
loop $-1 $-1 $240 $348 #
vertex $-1 $144 $349 #
straight-curve $-1 52.802954551375677 30.094660045156306 -7.8870099259136417 -1 0 0 I I #
coedge $-1 $350 $145 $342 $351 reversed $234 $-1 #
vertex $-1 $351 $352 #
straight-curve $-1 52.802954551375677 -30.094660045156306 -7.8870099259136417 1 0 0 I I #
edge $-1 $149 -2.6516129947218232 $337 2.6516129947218232 $147 $353 forward 7 unknown #
point $-1 58.974847363806688 -30.094660045156306 -7.8870099259136417 #
point $-1 58.974847363806688 30.094660045156306 -7.8870099259136417 #
face $-1 $354 $355 $18 $-1 $356 reversed single #
loop $-1 $-1 $357 $151 #
plane-surface $-1 52.802954551375677 0 -7.8870099259136417 0 0 1 1 0 0 forward_v I I I I #
coedge $-1 $157 $358 $154 $256 forward $152 $-1 #
coedge $-1 $255 $154 $359 $360 reversed $86 $-1 #
coedge $-1 $154 $254 $155 $258 forward $86 $-1 #
edge $-1 $361 24.923291662415348 $259 31.02239429700554 $253 $362 forward 7 unknown #
coedge $-1 $156 $155 $263 $363 reversed $53 $-1 #
edge $-1 $364 -3.465305027230568e-014 $259 11.842042532620141 $255 $365 forward 7 unknown #
vertex $-1 $158 $366 #
straight-curve $-1 -0.1649671517525988 -23.995557410566114 13.190235915357288 1 0 0 I I #
vertex $-1 $363 $367 #
straight-curve $-1 3.9178302578044111 -30.094660045156289 3.0396241900906986 0 -0.51503806187062418 -0.85716730853699208 I I #
coedge $-1 $359 $160 $257 $363 forward $265 $-1 #
coedge $-1 $160 $368 $162 $268 reversed $265 $-1 #
loop $-1 $-1 $359 $369 #
straight-curve $-1 3.9178302578044111 -30.094660045156303 25.536583756040827 0 0 -1 I I #
coedge $-1 $370 $162 $371 $372 forward $152 $-1 #
edge $-1 $164 3.9178302578044111 $373 46.631061738944666 $264 $374 forward 7 unknown #
point $-1 3.9178302578044111 -23.995557410566114 13.190235915357288 #
point $-1 3.9178302578044111 -30.094660045156306 13.190235915357288 #
face $-1 $375 $376 $19 $-1 $377 forward single #
loop $-1 $-1 $378 $166 #
plane-surface $-1 -4.5776988648148063 -110.03590341514331 51.073167512081653 1 0 0 0 0.85716730853699208 -0.51503806187062418 forward_v I I I I #
loop $-1 $-1 $379 $93 #
coedge $-1 $276 $169 $380 $381 forward $94 $-1 #
coedge $-1 $169 $275 $382 $383 reversed $94 $-1 #
coedge $-1 $384 $385 $169 $278 forward $376 $-1 #
edge $-1 $386 -31.02239429700554 $387 -24.923291662415348 $277 $388 forward 7 unknown #
edge $-1 $389 1 $389 0 $170 $-1 forward 7 unknown #
vertex $-1 $171 $390 #
ellipse-curve $-1 -0.32993430350519759 -23.86003646557813 6.2011456275059507 0 -0.85716730853699208 0.51503806187062418 1 0 0 1 I I #
point $-1 0.67006569649480241 -27.045108727861219 8.1149300527239969 #
plane-surface $-1 46.631061738944666 0 0 -1 0 0 0 0 1 forward_v I I I I #
coedge $-1 $179 $177 $181 $288 reversed $102 $-1 #
edge $-1 $192 -13.190235915357288 $290 13.190235915357288 $191 $391 forward 7 unknown #
vertex $-1 $288 $392 #
straight-curve $-1 -46.631061738944666 -30.094660045156306 0 0 0 -1 I I #
edge $-1 $286 -30.094660045156306 $290 30.094660045156306 $284 $393 forward 7 unknown #
straight-curve $-1 0 -30.094660045156306 -13.190235915357288 -1 0 0 I I #
vertex $-1 $184 $394 #
straight-curve $-1 0 30.094660045156306 -13.190235915357288 1 0 0 I I #
point $-1 46.631061738944666 30.094660045156306 -13.190235915357288 #
point $-1 46.631061738944666 -30.094660045156306 -13.190235915357288 #
straight-curve $-1 -46.631061738944666 0 13.190235915357288 0 -1 0 I I #
point $-1 -46.631061738944666 30.094660045156306 13.190235915357288 #
point $-1 -46.631061738944666 -30.094660045156306 13.190235915357288 #
straight-curve $-1 46.631061738944666 -30.094660045156306 0 0 0 -1 I I #
straight-curve $-1 46.631061738944666 30.094660045156306 0 0 0 -1 I I #
face $-1 $395 $396 $16 $-1 $397 reversed single #
loop $-1 $-1 $214 $201 #
plane-surface $-1 -46.631061738944666 0 0 1 0 0 0 0 -1 forward_v I I I I #
coedge $-1 $398 $204 $210 $311 forward $70 $-1 #
coedge $-1 $205 $398 $399 $400 forward $70 $-1 #
coedge $-1 $401 $214 $205 $305 reversed $300 $-1 #
edge $-1 $402 -30.094660045156306 $216 22.258129430250261 $304 $403 forward 7 unknown #
straight-curve $-1 -32.918489744024114 -13.088197368851642 13.190235915357288 0 -1 0 I I #
coedge $-1 $207 $404 $209 $310 forward $202 $-1 #
straight-curve $-1 -32.918489744024114 -13.088197368851642 -13.190235915357288 0 1 0 I I #
coedge $-1 $210 $209 $405 $406 reversed $121 $-1 #
edge $-1 $407 -46.631061738944666 $212 32.918489744024114 $209 $408 forward 7 unknown #
edge $-1 $211 -32.918489744024114 $409 46.631061738944666 $210 $410 forward 7 unknown #
point $-1 -32.918489744024114 -30.094660045156306 13.190235915357288 #
point $-1 -32.918489744024114 -30.094660045156306 -13.190235915357288 #
coedge $-1 $214 $401 $218 $318 reversed $300 $-1 #
straight-curve $-1 -46.631061738944666 -22.258129430250261 0 0 0 1 I I #
point $-1 -46.631061738944666 -22.258129430250261 13.190235915357288 #
coedge $-1 $404 $218 $411 $412 forward $202 $-1 #
edge $-1 $219 -22.258129430250261 $413 30.094660045156306 $314 $414 forward 7 unknown #
point $-1 -46.631061738944666 -22.258129430250261 -13.190235915357288 #
face $-1 $415 $336 $17 $-1 $416 reversed single #
plane-surface $-1 0 -30.094660045156306 0 0 1 0 0 0 1 forward_v I I I I #
coedge $-1 $417 $418 $227 $328 forward $224 $-1 #
coedge $-1 $229 $226 $417 $419 reversed $136 $-1 #
coedge $-1 $226 $229 $420 $421 reversed $136 $-1 #
coedge $-1 $233 $350 $226 $326 forward $234 $-1 #
edge $-1 $422 -13.190235915357288 $423 13.190235915357288 $325 $424 forward 7 unknown #
coedge $-1 $228 $227 $425 $426 reversed $78 $-1 #
edge $-1 $427 -26.743673868202471 $331 -13.031101873281919 $322 $428 forward 7 unknown #
coedge $-1 $429 $420 $228 $330 forward $336 $-1 #
edge $-1 $332 13.031101873281919 $430 26.743673868202471 $329 $431 forward 7 unknown #
vertex $-1 $328 $432 #
vertex $-1 $330 $433 #
straight-curve $-1 -32.918489744024114 -22.258129430250261 0 0 0 -1 I I #
coedge $-1 $420 $231 $233 $339 forward $336 $-1 #
coedge $-1 $231 $429 $345 $434 forward $336 $-1 #
loop $-1 $-1 $329 $320 #
vertex $-1 $232 $435 #
straight-curve $-1 58.974847363806688 0 -13.190235915357288 0 -1 0 I I #
edge $-1 $235 -6.1718928124310111 $423 85.721444295399792 $233 $436 forward 7 unknown #
point $-1 58.974847363806688 -30.094660045156306 -13.190235915357288 #
coedge $-1 $437 $237 $240 $347 reversed $343 $-1 #
coedge $-1 $237 $437 $244 $351 forward $343 $-1 #
loop $-1 $-1 $237 $438 #
straight-curve $-1 46.631061738944666 0 -7.8870099259136417 0 1 0 I I #
coedge $-1 $439 $239 $335 $434 reversed $241 $-1 #
coedge $-1 $240 $439 $440 $441 reversed $241 $-1 #
edge $-1 $442 -13.190235915357288 $242 7.8870099259136417 $341 $443 forward 7 unknown #
face $-1 $438 $241 $17 $-1 $444 reversed single #
point $-1 46.631061738944666 30.094660045156306 -7.8870099259136417 #
coedge $-1 $325 $244 $445 $446 reversed $234 $-1 #
edge $-1 $447 -13.190235915357288 $245 7.8870099259136417 $342 $448 forward 7 unknown #
point $-1 46.631061738944666 -30.094660045156306 -7.8870099259136417 #
straight-curve $-1 58.974847363806688 30.094660045156306 -10.538622920635465 0 0 -1 I I #
face $-1 $449 $450 $18 $-1 $451 forward single #
loop $-1 $-1 $452 $250 #
plane-surface $-1 58.974847363806688 0 -10.538622920635465 -1 0 0 0 0 1 forward_v I I I I #
coedge $-1 $453 $454 $455 $456 forward $251 $-1 #
coedge $-1 $253 $457 $458 $459 forward $152 $-1 #
coedge $-1 $458 $263 $254 $360 forward $265 $-1 #
edge $-1 $364 -22.496959565950156 $361 -12.346347840683539 $359 $460 forward 7 unknown #
vertex $-1 $360 $461 #
straight-curve $-1 -4.5776988648148063 -55.017951707571655 13.190235915357288 0 1 0 I I #
edge $-1 $261 -4.0827974095570099 $364 4.4127317130622075 $263 $462 forward 7 unknown #
vertex $-1 $363 $463 #
straight-curve $-1 -4.5776988648148063 -30.094660045156289 3.0396241900906986 0 0.51503806187062418 0.85716730853699208 I I #
point $-1 -4.5776988648148063 -23.995557410566114 13.190235915357288 #
point $-1 3.9178302578044111 -30.094660045156306 3.0396241900906689 #
coedge $-1 $264 $464 $465 $466 reversed $265 $-1 #
face $-1 $467 $265 $18 $-1 $468 reversed single #
coedge $-1 $469 $267 $470 $471 forward $152 $-1 #
coedge $-1 $465 $472 $267 $372 reversed $473 $-1 #
edge $-1 $373 -30.094660045156306 $474 30.094660045156306 $371 $475 forward 7 unknown #
vertex $-1 $372 $476 #
straight-curve $-1 0 -30.094660045156306 13.190235915357288 1 0 0 I I #
face $-1 $477 $478 $19 $-1 $479 forward single #
loop $-1 $-1 $480 $271 #
plane-surface $-1 0 0 13.190235915357288 0 0 1 1 0 0 forward_v I I I I #
coedge $-1 $481 $482 $480 $483 reversed $272 $-1 #
coedge $-1 $484 $380 $385 $485 reversed $274 $-1 #
coedge $-1 $379 $486 $275 $381 reversed $274 $-1 #
edge $-1 $386 -11.842042532620141 $487 3.465305027230568e-014 $275 $488 forward 7 unknown #
coedge $-1 $489 $490 $276 $383 forward $491 $-1 #
edge $-1 $387 12.346347840683539 $487 22.496959565950156 $382 $492 forward 7 unknown #
coedge $-1 $493 $277 $490 $494 forward $376 $-1 #
coedge $-1 $277 $480 $379 $485 forward $376 $-1 #
vertex $-1 $485 $495 #
vertex $-1 $494 $496 #
straight-curve $-1 3.9178302578044111 -55.017951707571655 13.190235915357288 0 -1 0 I I #
vertex $-1 $279 $497 #
point $-1 0.67006569649480241 -23.86003646557813 6.2011456275059507 #
straight-curve $-1 -46.631061738944666 30.094660045156306 0 0 0 -1 I I #
point $-1 -46.631061738944666 -30.094660045156306 -13.190235915357288 #
straight-curve $-1 -46.631061738944666 0 -13.190235915357288 0 1 0 I I #
point $-1 -46.631061738944666 30.094660045156306 -13.190235915357288 #
face $-1 $-1 $498 $16 $-1 $499 reversed single #
loop $-1 $-1 $500 $299 #
plane-surface $-1 0 30.094660045156306 0 0 -1 0 0 0 -1 forward_v I I I I #
coedge $-1 $303 $302 $501 $502 forward $70 $-1 #
coedge $-1 $500 $503 $303 $400 reversed $396 $-1 #
edge $-1 $504 -46.631061738944666 $402 46.631061738944666 $399 $505 forward 7 unknown #
coedge $-1 $314 $304 $503 $506 forward $300 $-1 #
vertex $-1 $400 $507 #
straight-curve $-1 -46.631061738944666 0 13.190235915357288 0 -1 0 I I #
coedge $-1 $307 $317 $508 $509 forward $202 $-1 #
coedge $-1 $508 $501 $309 $406 forward $498 $-1 #
edge $-1 $409 -13.190235915357288 $407 13.190235915357288 $405 $510 forward 7 unknown #
vertex $-1 $406 $511 #
straight-curve $-1 0 -30.094660045156306 -13.190235915357288 -1 0 0 I I #
vertex $-1 $502 $512 #
straight-curve $-1 0 -30.094660045156306 13.190235915357288 1 0 0 I I #
coedge $-1 $503 $500 $317 $412 reversed $396 $-1 #
edge $-1 $413 -46.631061738944666 $513 46.631061738944666 $411 $514 forward 7 unknown #
vertex $-1 $412 $515 #
straight-curve $-1 -46.631061738944666 0 -13.190235915357288 0 1 0 I I #
face $-1 $348 $516 $17 $-1 $517 reversed single #
plane-surface $-1 0 0 -13.190235915357288 0 0 1 1 0 0 forward_v I I I I #
coedge $-1 $445 $322 $323 $419 forward $224 $-1 #
coedge $-1 $322 $440 $518 $519 forward $224 $-1 #
edge $-1 $331 9.1699320613986188 $422 17.006462676304665 $417 $520 forward 7 unknown #
coedge $-1 $329 $334 $324 $421 forward $336 $-1 #
edge $-1 $423 -17.006462676304665 $332 -9.1699320613986188 $420 $521 forward 7 unknown #
vertex $-1 $446 $522 #
vertex $-1 $326 $523 #
straight-curve $-1 -32.918489744024114 -30.094660045156306 0 0 0 -1 I I #
coedge $-1 $518 $524 $327 $426 forward $516 $-1 #
edge $-1 $430 -13.190235915357288 $427 13.190235915357288 $425 $525 forward 7 unknown #
vertex $-1 $426 $526 #
straight-curve $-1 -19.887387870742195 -22.258129430250261 13.190235915357288 1 0 0 I I #
coedge $-1 $335 $329 $524 $527 forward $336 $-1 #
vertex $-1 $527 $528 #
straight-curve $-1 -19.887387870742195 -22.258129430250261 -13.190235915357288 -1 0 0 I I #
point $-1 -32.918489744024114 -22.258129430250261 13.190235915357288 #
point $-1 -32.918489744024114 -22.258129430250261 -13.190235915357288 #
edge $-1 $529 -99.434016290320344 $337 6.1718928124310111 $345 $530 forward 7 unknown #
point $-1 58.974847363806688 30.094660045156306 -13.190235915357288 #
straight-curve $-1 52.802954551375677 -30.094660045156306 -13.190235915357288 -1 0 0 I I #
coedge $-1 $342 $341 $531 $532 reversed $343 $-1 #
face $-1 $-1 $343 $17 $-1 $533 reversed single #
coedge $-1 $346 $345 $534 $535 reversed $241 $-1 #
coedge $-1 $418 $531 $346 $441 forward $224 $-1 #
edge $-1 $442 -46.631061738944666 $536 46.631061738944666 $346 $537 forward 7 unknown #
vertex $-1 $532 $538 #
straight-curve $-1 46.631061738944666 30.094660045156306 0 0 0 -1 I I #
plane-surface $-1 0 30.094660045156306 0 0 -1 0 0 0 -1 forward_v I I I I #
coedge $-1 $531 $417 $350 $446 forward $224 $-1 #
edge $-1 $422 -32.918489744024114 $447 46.631061738944666 $350 $539 forward 7 unknown #
vertex $-1 $532 $540 #
straight-curve $-1 46.631061738944666 -30.094660045156306 0 0 0 -1 I I #
face $-1 $369 $541 $18 $-1 $542 forward single #
loop $-1 $-1 $543 $354 #
plane-surface $-1 -39.77477574148439 -22.258129430250261 0 0 -1 0 0 0 -1 forward_v I I I I #
coedge $-1 $544 $455 $545 $546 forward $355 $-1 #
coedge $-1 $547 $357 $548 $549 forward $251 $-1 #
coedge $-1 $357 $547 $464 $550 forward $251 $-1 #
coedge $-1 $452 $551 $357 $456 reversed $355 $-1 #
edge $-1 $552 -30.094660045156306 $553 30.094660045156306 $455 $554 forward 7 unknown #
coedge $-1 $358 $555 $556 $557 forward $152 $-1 #
coedge $-1 $558 $359 $358 $459 reversed $265 $-1 #
edge $-1 $559 -32.918489744024114 $361 -4.5776988648148063 $458 $374 forward 7 unknown #
straight-curve $-1 -4.5776988648148063 -30.094660045156303 25.536583756040827 0 0 1 I I #
point $-1 -4.5776988648148063 -30.094660045156306 13.190235915357288 #
straight-curve $-1 -0.1649671517525988 -30.094660045156306 3.0396241900906658 -1 0 0 I I #
point $-1 -4.5776988648148063 -30.094660045156306 3.0396241900906689 #
coedge $-1 $368 $545 $454 $550 reversed $265 $-1 #
coedge $-1 $560 $371 $368 $466 forward $473 $-1 #
edge $-1 $373 -13.190235915357288 $561 7.8870099259136417 $465 $562 forward 7 unknown #
face $-1 $563 $564 $18 $-1 $565 reversed single #
plane-surface $-1 0 -30.094660045156306 0 0 1 0 0 0 1 forward_v I I I I #
coedge $-1 $555 $370 $566 $567 forward $152 $-1 #
coedge $-1 $568 $569 $370 $471 reversed $570 $-1 #
edge $-1 $474 -46.631061738944666 $571 46.631061738944666 $470 $572 forward 7 unknown #
coedge $-1 $371 $560 $568 $573 reversed $473 $-1 #
loop $-1 $-1 $560 $574 #
vertex $-1 $372 $575 #
straight-curve $-1 46.631061738944666 0 13.190235915357288 0 1 0 I I #
point $-1 46.631061738944666 -30.094660045156306 13.190235915357288 #
face $-1 $576 $577 $19 $-1 $578 reversed single #
loop $-1 $-1 $579 $375 #
plane-surface $-1 52.802954551375677 0 -7.8870099259136417 0 0 1 1 0 0 forward_v I I I I #
coedge $-1 $385 $580 $378 $483 forward $376 $-1 #
coedge $-1 $482 $378 $581 $582 reversed $272 $-1 #
coedge $-1 $378 $481 $484 $583 forward $272 $-1 #
edge $-1 $584 24.923291662415348 $585 31.02239429700554 $480 $586 forward 7 unknown #
coedge $-1 $486 $379 $482 $583 reversed $274 $-1 #
edge $-1 $585 -4.4127317130622075 $386 4.0827974095570099 $385 $587 forward 7 unknown #
coedge $-1 $380 $484 $489 $588 reversed $274 $-1 #
vertex $-1 $588 $589 #
straight-curve $-1 3.9178302578044111 -30.094660045156289 3.0396241900906986 0 -0.51503806187062418 -0.85716730853699208 I I #
coedge $-1 $581 $382 $486 $588 forward $491 $-1 #
coedge $-1 $382 $590 $384 $494 reversed $491 $-1 #
loop $-1 $-1 $581 $591 #
straight-curve $-1 3.9178302578044111 -30.094660045156303 25.536583756040827 0 0 -1 I I #
coedge $-1 $592 $384 $593 $594 forward $376 $-1 #
edge $-1 $387 3.9178302578044111 $595 46.631061738944666 $490 $596 forward 7 unknown #
point $-1 3.9178302578044111 -23.995557410566114 13.190235915357288 #
point $-1 3.9178302578044111 -30.094660045156306 13.190235915357288 #
point $-1 -0.32993430350519759 -23.002869157041136 5.6861075656353259 #
loop $-1 $-1 $405 $395 #
plane-surface $-1 46.631061738944666 0 0 -1 0 0 0 0 1 forward_v I I I I #
coedge $-1 $411 $399 $597 $598 forward $396 $-1 #
coedge $-1 $405 $597 $398 $502 reversed $498 $-1 #
edge $-1 $409 -30.094660045156306 $504 30.094660045156306 $501 $599 forward 7 unknown #
coedge $-1 $399 $411 $401 $506 reversed $396 $-1 #
vertex $-1 $502 $600 #
straight-curve $-1 0 30.094660045156306 13.190235915357288 -1 0 0 I I #
edge $-1 $402 -13.190235915357288 $413 13.190235915357288 $503 $601 forward 7 unknown #
point $-1 -46.631061738944666 30.094660045156306 13.190235915357288 #
coedge $-1 $597 $405 $404 $509 reversed $498 $-1 #
edge $-1 $513 -30.094660045156306 $407 30.094660045156306 $508 $602 forward 7 unknown #
straight-curve $-1 46.631061738944666 -30.094660045156306 0 0 0 -1 I I #
point $-1 46.631061738944666 -30.094660045156306 -13.190235915357288 #
point $-1 46.631061738944666 -30.094660045156306 13.190235915357288 #
vertex $-1 $509 $603 #
straight-curve $-1 0 30.094660045156306 -13.190235915357288 1 0 0 I I #
point $-1 -46.631061738944666 30.094660045156306 -13.190235915357288 #
loop $-1 $-1 $425 $415 #
plane-surface $-1 -46.631061738944666 0 0 1 0 0 0 0 -1 forward_v I I I I #
coedge $-1 $534 $425 $418 $519 reversed $516 $-1 #
edge $-1 $536 -30.094660045156306 $427 22.258129430250261 $518 $604 forward 7 unknown #
straight-curve $-1 -32.918489744024114 -13.088197368851642 13.190235915357288 0 -1 0 I I #
straight-curve $-1 -32.918489744024114 -13.088197368851642 -13.190235915357288 0 1 0 I I #
point $-1 -32.918489744024114 -30.094660045156306 13.190235915357288 #
point $-1 -32.918489744024114 -30.094660045156306 -13.190235915357288 #
coedge $-1 $425 $534 $429 $527 reversed $516 $-1 #
straight-curve $-1 -46.631061738944666 -22.258129430250261 0 0 0 1 I I #
point $-1 -46.631061738944666 -22.258129430250261 13.190235915357288 #
edge $-1 $430 -22.258129430250261 $529 30.094660045156306 $524 $605 forward 7 unknown #
point $-1 -46.631061738944666 -22.258129430250261 -13.190235915357288 #
vertex $-1 $434 $606 #
straight-curve $-1 52.802954551375677 30.094660045156306 -13.190235915357288 1 0 0 I I #
coedge $-1 $440 $445 $437 $532 forward $224 $-1 #
edge $-1 $447 -30.094660045156306 $442 30.094660045156306 $437 $607 forward 7 unknown #
plane-surface $-1 46.631061738944666 0 0 -1 0 0 0 0 1 forward_v I I I I #
coedge $-1 $524 $518 $439 $535 forward $516 $-1 #
edge $-1 $536 -13.190235915357288 $529 13.190235915357288 $439 $608 forward 7 unknown #
vertex $-1 $441 $609 #
straight-curve $-1 0 30.094660045156306 13.190235915357288 -1 0 0 I I #
point $-1 46.631061738944666 30.094660045156306 13.190235915357288 #
straight-curve $-1 0 -30.094660045156306 13.190235915357288 1 0 0 I I #
point $-1 46.631061738944666 -30.094660045156306 13.190235915357288 #
loop $-1 $-1 $610 $449 #
plane-surface $-1 -32.918489744024114 -26.176394737703284 0 -1 0 0 0 0 1 forward_v I I I I #
coedge $-1 $611 $612 $613 $614 reversed $450 $-1 #
coedge $-1 $551 $452 $615 $616 reversed $355 $-1 #
coedge $-1 $464 $617 $452 $546 reversed $265 $-1 #
edge $-1 $552 -2.6516129947218232 $618 2.6516129947218232 $452 $619 forward 7 unknown #
coedge $-1 $454 $453 $560 $620 reversed $251 $-1 #
coedge $-1 $621 $568 $453 $549 reversed $570 $-1 #
edge $-1 $553 -6.1718928124310111 $622 6.1718928124310111 $548 $623 forward 7 unknown #
edge $-1 $561 -6.1718928124310111 $552 6.1718928124310111 $464 $624 forward 7 unknown #
coedge $-1 $455 $544 $621 $625 reversed $355 $-1 #
vertex $-1 $456 $626 #
vertex $-1 $456 $627 #
straight-curve $-1 58.974847363806688 0 -7.8870099259136417 0 1 0 I I #
coedge $-1 $457 $469 $611 $628 forward $152 $-1 #
coedge $-1 $613 $610 $457 $557 reversed $541 $-1 #
edge $-1 $629 9.1699320613986188 $559 17.006462676304665 $457 $630 forward 7 unknown #
coedge $-1 $617 $458 $610 $631 forward $265 $-1 #
vertex $-1 $459 $632 #
coedge $-1 $472 $465 $547 $620 forward $473 $-1 #
vertex $-1 $466 $633 #
straight-curve $-1 46.631061738944666 -30.094660045156306 0 0 0 -1 I I #
face $-1 $634 $635 $18 $-1 $636 reversed single #
loop $-1 $-1 $637 $467 #
plane-surface $-1 0 0 -13.190235915357288 0 0 1 1 0 0 forward_v I I I I #
coedge $-1 $638 $639 $469 $567 reversed $635 $-1 #
edge $-1 $571 -30.094660045156306 $640 22.258129430250261 $566 $641 forward 7 unknown #
coedge $-1 $548 $470 $472 $573 forward $570 $-1 #
coedge $-1 $470 $642 $638 $643 reversed $570 $-1 #
loop $-1 $-1 $568 $634 #
vertex $-1 $471 $644 #
straight-curve $-1 0 30.094660045156306 13.190235915357288 -1 0 0 I I #
edge $-1 $474 -13.190235915357288 $622 7.8870099259136417 $472 $645 forward 7 unknown #
face $-1 $-1 $473 $18 $-1 $646 reversed single #
point $-1 46.631061738944666 30.094660045156306 13.190235915357288 #
face $-1 $647 $648 $19 $-1 $649 forward single #
loop $-1 $-1 $650 $477 #
plane-surface $-1 58.974847363806688 0 -10.538622920635465 -1 0 0 0 0 1 forward_v I I I I #
coedge $-1 $651 $652 $653 $654 forward $478 $-1 #
coedge $-1 $480 $655 $656 $657 forward $376 $-1 #
coedge $-1 $656 $489 $481 $582 forward $491 $-1 #
edge $-1 $658 -22.496959565950156 $584 -12.346347840683539 $581 $659 forward 7 unknown #
edge $-1 $658 -3.465305027230568e-014 $585 11.842042532620141 $482 $660 forward 7 unknown #
vertex $-1 $582 $661 #
vertex $-1 $485 $662 #
straight-curve $-1 -4.5776988648148063 -55.017951707571655 13.190235915357288 0 1 0 I I #
straight-curve $-1 -0.1649671517525988 -23.995557410566114 13.190235915357288 1 0 0 I I #
edge $-1 $487 -4.0827974095570099 $658 4.4127317130622075 $489 $663 forward 7 unknown #
point $-1 3.9178302578044111 -30.094660045156306 3.0396241900906689 #
coedge $-1 $490 $664 $665 $666 reversed $491 $-1 #
face $-1 $667 $491 $19 $-1 $668 reversed single #
coedge $-1 $669 $493 $670 $671 forward $376 $-1 #
coedge $-1 $665 $672 $493 $594 reversed $673 $-1 #
edge $-1 $595 -30.094660045156306 $674 30.094660045156306 $593 $675 forward 7 unknown #
vertex $-1 $594 $676 #
straight-curve $-1 0 -30.094660045156306 13.190235915357288 1 0 0 I I #
coedge $-1 $501 $508 $500 $598 reversed $498 $-1 #
edge $-1 $504 -13.190235915357288 $513 13.190235915357288 $597 $677 forward 7 unknown #
straight-curve $-1 46.631061738944666 0 13.190235915357288 0 1 0 I I #
point $-1 46.631061738944666 30.094660045156306 13.190235915357288 #
straight-curve $-1 -46.631061738944666 30.094660045156306 0 0 0 -1 I I #
straight-curve $-1 46.631061738944666 0 -13.190235915357288 0 -1 0 I I #
point $-1 46.631061738944666 30.094660045156306 -13.190235915357288 #
straight-curve $-1 -46.631061738944666 0 13.190235915357288 0 -1 0 I I #
straight-curve $-1 -46.631061738944666 0 -13.190235915357288 0 1 0 I I #
point $-1 -46.631061738944666 30.094660045156306 -13.190235915357288 #
straight-curve $-1 46.631061738944666 0 13.190235915357288 0 1 0 I I #
straight-curve $-1 -46.631061738944666 30.094660045156306 0 0 0 -1 I I #
point $-1 -46.631061738944666 30.094660045156306 13.190235915357288 #
coedge $-1 $556 $678 $558 $631 reversed $541 $-1 #
coedge $-1 $679 $543 $555 $628 reversed $450 $-1 #
coedge $-1 $543 $679 $637 $680 reversed $450 $-1 #
coedge $-1 $678 $556 $543 $614 forward $541 $-1 #
edge $-1 $629 -13.190235915357288 $681 13.190235915357288 $613 $682 forward 7 unknown #
coedge $-1 $683 $684 $544 $616 forward $564 $-1 #
edge $-1 $685 -30.094660045156306 $618 30.094660045156306 $544 $686 forward 7 unknown #
coedge $-1 $545 $558 $683 $687 reversed $265 $-1 #
vertex $-1 $546 $688 #
straight-curve $-1 58.974847363806688 -30.094660045156306 -10.538622920635465 0 0 -1 I I #
edge $-1 $561 -30.094660045156306 $622 30.094660045156306 $560 $689 forward 7 unknown #
coedge $-1 $642 $548 $551 $625 forward $570 $-1 #
vertex $-1 $549 $690 #
straight-curve $-1 52.802954551375677 30.094660045156306 -7.8870099259136417 -1 0 0 I I #
straight-curve $-1 52.802954551375677 -30.094660045156306 -7.8870099259136417 1 0 0 I I #
edge $-1 $553 -2.6516129947218232 $685 2.6516129947218232 $551 $691 forward 7 unknown #
point $-1 58.974847363806688 -30.094660045156306 -7.8870099259136417 #
point $-1 58.974847363806688 30.094660045156306 -7.8870099259136417 #
edge $-1 $640 -26.743673868202471 $629 -13.031101873281919 $555 $692 forward 7 unknown #
vertex $-1 $628 $693 #
straight-curve $-1 -32.918489744024114 -13.088197368851642 13.190235915357288 0 -1 0 I I #
edge $-1 $559 -13.190235915357288 $694 13.190235915357288 $558 $695 forward 7 unknown #
point $-1 -32.918489744024114 -30.094660045156306 13.190235915357288 #
point $-1 46.631061738944666 -30.094660045156306 -7.8870099259136417 #
face $-1 $574 $570 $18 $-1 $696 reversed single #
loop $-1 $-1 $639 $563 #
plane-surface $-1 -46.631061738944666 0 0 1 0 0 0 0 -1 forward_v I I I I #
coedge $-1 $697 $698 $612 $680 forward $564 $-1 #
coedge $-1 $699 $566 $569 $643 forward $635 $-1 #
coedge $-1 $566 $699 $679 $700 forward $635 $-1 #
vertex $-1 $700 $701 #
straight-curve $-1 -46.631061738944666 0 13.190235915357288 0 -1 0 I I #
coedge $-1 $569 $621 $684 $702 reversed $570 $-1 #
edge $-1 $571 -13.190235915357288 $703 13.190235915357288 $569 $704 forward 7 unknown #
point $-1 -46.631061738944666 30.094660045156306 13.190235915357288 #
straight-curve $-1 46.631061738944666 30.094660045156306 0 0 0 -1 I I #
plane-surface $-1 46.631061738944666 0 0 -1 0 0 0 0 1 forward_v I I I I #
face $-1 $591 $705 $19 $-1 $706 forward single #
loop $-1 $-1 $707 $576 #
plane-surface $-1 -39.77477574148439 -22.258129430250261 0 0 -1 0 0 0 -1 forward_v I I I I #
coedge $-1 $708 $653 $709 $710 forward $577 $-1 #
coedge $-1 $711 $579 $712 $713 forward $478 $-1 #
coedge $-1 $579 $711 $664 $714 forward $478 $-1 #
coedge $-1 $650 $715 $579 $654 reversed $577 $-1 #
edge $-1 $716 -30.094660045156306 $717 30.094660045156306 $653 $718 forward 7 unknown #
coedge $-1 $580 $719 $720 $721 forward $376 $-1 #
coedge $-1 $722 $581 $580 $657 reversed $491 $-1 #
edge $-1 $723 -32.918489744024114 $584 -4.5776988648148063 $656 $596 forward 7 unknown #
vertex $-1 $588 $724 #
straight-curve $-1 -4.5776988648148063 -30.094660045156303 25.536583756040827 0 0 1 I I #
straight-curve $-1 -4.5776988648148063 -30.094660045156289 3.0396241900906986 0 0.51503806187062418 0.85716730853699208 I I #
point $-1 -4.5776988648148063 -30.094660045156306 13.190235915357288 #
point $-1 -4.5776988648148063 -23.995557410566114 13.190235915357288 #
straight-curve $-1 -0.1649671517525988 -30.094660045156306 3.0396241900906658 -1 0 0 I I #
coedge $-1 $590 $709 $652 $714 reversed $491 $-1 #
coedge $-1 $725 $593 $590 $666 forward $673 $-1 #
edge $-1 $595 -13.190235915357288 $726 7.8870099259136417 $665 $727 forward 7 unknown #
face $-1 $728 $729 $19 $-1 $730 reversed single #
plane-surface $-1 0 -30.094660045156306 0 0 1 0 0 0 1 forward_v I I I I #
coedge $-1 $719 $592 $731 $732 forward $376 $-1 #
coedge $-1 $733 $734 $592 $671 reversed $735 $-1 #
edge $-1 $674 -46.631061738944666 $736 46.631061738944666 $670 $737 forward 7 unknown #
coedge $-1 $593 $725 $733 $738 reversed $673 $-1 #
loop $-1 $-1 $725 $739 #
vertex $-1 $594 $740 #
straight-curve $-1 46.631061738944666 0 13.190235915357288 0 1 0 I I #
point $-1 46.631061738944666 -30.094660045156306 13.190235915357288 #
straight-curve $-1 46.631061738944666 30.094660045156306 0 0 0 -1 I I #
coedge $-1 $610 $613 $698 $741 reversed $541 $-1 #
coedge $-1 $612 $611 $639 $700 reversed $450 $-1 #
edge $-1 $681 13.031101873281919 $742 26.743673868202471 $637 $743 forward 7 unknown #
vertex $-1 $680 $744 #
straight-curve $-1 -32.918489744024114 -22.258129430250261 0 0 0 -1 I I #
coedge $-1 $698 $615 $617 $687 forward $564 $-1 #
coedge $-1 $615 $697 $642 $702 forward $564 $-1 #
vertex $-1 $616 $745 #
straight-curve $-1 58.974847363806688 0 -13.190235915357288 0 -1 0 I I #
edge $-1 $618 -6.1718928124310111 $694 85.721444295399792 $617 $746 forward 7 unknown #
point $-1 58.974847363806688 -30.094660045156306 -13.190235915357288 #
straight-curve $-1 46.631061738944666 0 -7.8870099259136417 0 1 0 I I #
point $-1 46.631061738944666 30.094660045156306 -7.8870099259136417 #
straight-curve $-1 58.974847363806688 30.094660045156306 -10.538622920635465 0 0 -1 I I #
straight-curve $-1 -19.887387870742195 -22.258129430250261 13.190235915357288 1 0 0 I I #
point $-1 -32.918489744024114 -22.258129430250261 13.190235915357288 #
vertex $-1 $631 $747 #
straight-curve $-1 -32.918489744024114 -30.094660045156306 0 0 0 -1 I I #
plane-surface $-1 0 30.094660045156306 0 0 -1 0 0 0 -1 forward_v I I I I #
coedge $-1 $684 $637 $699 $748 forward $564 $-1 #
coedge $-1 $637 $683 $678 $741 forward $564 $-1 #
coedge $-1 $639 $638 $697 $748 reversed $635 $-1 #
edge $-1 $742 -13.190235915357288 $640 13.190235915357288 $639 $749 forward 7 unknown #
point $-1 -46.631061738944666 -22.258129430250261 13.190235915357288 #
edge $-1 $703 -99.434016290320344 $685 6.1718928124310111 $642 $750 forward 7 unknown #
vertex $-1 $702 $751 #
straight-curve $-1 -46.631061738944666 30.094660045156306 0 0 0 -1 I I #
loop $-1 $-1 $752 $647 #
plane-surface $-1 -32.918489744024114 -26.176394737703284 0 -1 0 0 0 0 1 forward_v I I I I #
coedge $-1 $753 $754 $755 $756 reversed $648 $-1 #
coedge $-1 $715 $650 $757 $758 reversed $577 $-1 #
coedge $-1 $664 $759 $650 $710 reversed $491 $-1 #
edge $-1 $716 -2.6516129947218232 $760 2.6516129947218232 $650 $761 forward 7 unknown #
coedge $-1 $652 $651 $725 $762 reversed $478 $-1 #
coedge $-1 $763 $733 $651 $713 reversed $735 $-1 #
edge $-1 $717 -6.1718928124310111 $764 6.1718928124310111 $712 $765 forward 7 unknown #
edge $-1 $726 -6.1718928124310111 $716 6.1718928124310111 $664 $766 forward 7 unknown #
coedge $-1 $653 $708 $763 $767 reversed $577 $-1 #
vertex $-1 $654 $768 #
vertex $-1 $654 $769 #
straight-curve $-1 58.974847363806688 0 -7.8870099259136417 0 1 0 I I #
coedge $-1 $655 $669 $753 $770 forward $376 $-1 #
coedge $-1 $755 $752 $655 $721 reversed $705 $-1 #
edge $-1 $771 9.1699320613986188 $723 17.006462676304665 $655 $772 forward 7 unknown #
coedge $-1 $759 $656 $752 $773 forward $491 $-1 #
vertex $-1 $657 $774 #
point $-1 -4.5776988648148063 -30.094660045156306 3.0396241900906689 #
coedge $-1 $672 $665 $711 $762 forward $673 $-1 #
vertex $-1 $666 $775 #
straight-curve $-1 46.631061738944666 -30.094660045156306 0 0 0 -1 I I #
face $-1 $776 $777 $19 $-1 $778 reversed single #
loop $-1 $-1 $779 $667 #
plane-surface $-1 0 0 -13.190235915357288 0 0 1 1 0 0 forward_v I I I I #
coedge $-1 $780 $781 $669 $732 reversed $777 $-1 #
edge $-1 $736 -30.094660045156306 $782 22.258129430250261 $731 $783 forward 7 unknown #
coedge $-1 $712 $670 $672 $738 forward $735 $-1 #
coedge $-1 $670 $784 $780 $785 reversed $735 $-1 #
loop $-1 $-1 $733 $776 #
vertex $-1 $671 $786 #
straight-curve $-1 0 30.094660045156306 13.190235915357288 -1 0 0 I I #
edge $-1 $674 -13.190235915357288 $764 7.8870099259136417 $672 $787 forward 7 unknown #
face $-1 $-1 $673 $19 $-1 $788 reversed single #
point $-1 46.631061738944666 30.094660045156306 13.190235915357288 #
edge $-1 $694 -17.006462676304665 $681 -9.1699320613986188 $698 $789 forward 7 unknown #
vertex $-1 $748 $790 #
straight-curve $-1 -19.887387870742195 -22.258129430250261 -13.190235915357288 -1 0 0 I I #
point $-1 -32.918489744024114 -22.258129430250261 -13.190235915357288 #
point $-1 58.974847363806688 30.094660045156306 -13.190235915357288 #
straight-curve $-1 52.802954551375677 -30.094660045156306 -13.190235915357288 -1 0 0 I I #
point $-1 -32.918489744024114 -30.094660045156306 -13.190235915357288 #
edge $-1 $742 -22.258129430250261 $703 30.094660045156306 $699 $791 forward 7 unknown #
straight-curve $-1 -46.631061738944666 -22.258129430250261 0 0 0 1 I I #
straight-curve $-1 52.802954551375677 30.094660045156306 -13.190235915357288 1 0 0 I I #
point $-1 -46.631061738944666 30.094660045156306 -13.190235915357288 #
coedge $-1 $720 $792 $722 $773 reversed $705 $-1 #
coedge $-1 $793 $707 $719 $770 reversed $648 $-1 #
coedge $-1 $707 $793 $779 $794 reversed $648 $-1 #
coedge $-1 $792 $720 $707 $756 forward $705 $-1 #
edge $-1 $771 -13.190235915357288 $795 13.190235915357288 $755 $796 forward 7 unknown #
coedge $-1 $797 $798 $708 $758 forward $729 $-1 #
edge $-1 $799 -30.094660045156306 $760 30.094660045156306 $708 $800 forward 7 unknown #
coedge $-1 $709 $722 $797 $801 reversed $491 $-1 #
vertex $-1 $710 $802 #
straight-curve $-1 58.974847363806688 -30.094660045156306 -10.538622920635465 0 0 -1 I I #
edge $-1 $726 -30.094660045156306 $764 30.094660045156306 $725 $803 forward 7 unknown #
coedge $-1 $784 $712 $715 $767 forward $735 $-1 #
vertex $-1 $713 $804 #
straight-curve $-1 52.802954551375677 30.094660045156306 -7.8870099259136417 -1 0 0 I I #
straight-curve $-1 52.802954551375677 -30.094660045156306 -7.8870099259136417 1 0 0 I I #
edge $-1 $717 -2.6516129947218232 $799 2.6516129947218232 $715 $805 forward 7 unknown #
point $-1 58.974847363806688 -30.094660045156306 -7.8870099259136417 #
point $-1 58.974847363806688 30.094660045156306 -7.8870099259136417 #
edge $-1 $782 -26.743673868202471 $771 -13.031101873281919 $719 $806 forward 7 unknown #
vertex $-1 $770 $807 #
straight-curve $-1 -32.918489744024114 -13.088197368851642 13.190235915357288 0 -1 0 I I #
edge $-1 $723 -13.190235915357288 $808 13.190235915357288 $722 $809 forward 7 unknown #
point $-1 -32.918489744024114 -30.094660045156306 13.190235915357288 #
point $-1 46.631061738944666 -30.094660045156306 -7.8870099259136417 #
face $-1 $739 $735 $19 $-1 $810 reversed single #
loop $-1 $-1 $781 $728 #
plane-surface $-1 -46.631061738944666 0 0 1 0 0 0 0 -1 forward_v I I I I #
coedge $-1 $811 $812 $754 $794 forward $729 $-1 #
coedge $-1 $813 $731 $734 $785 forward $777 $-1 #
coedge $-1 $731 $813 $793 $814 forward $777 $-1 #
vertex $-1 $814 $815 #
straight-curve $-1 -46.631061738944666 0 13.190235915357288 0 -1 0 I I #
coedge $-1 $734 $763 $798 $816 reversed $735 $-1 #
edge $-1 $736 -13.190235915357288 $817 13.190235915357288 $734 $818 forward 7 unknown #
point $-1 -46.631061738944666 30.094660045156306 13.190235915357288 #
straight-curve $-1 46.631061738944666 30.094660045156306 0 0 0 -1 I I #
plane-surface $-1 46.631061738944666 0 0 -1 0 0 0 0 1 forward_v I I I I #
straight-curve $-1 -32.918489744024114 -13.088197368851642 -13.190235915357288 0 1 0 I I #
point $-1 -46.631061738944666 -22.258129430250261 -13.190235915357288 #
straight-curve $-1 -46.631061738944666 0 -13.190235915357288 0 1 0 I I #
coedge $-1 $752 $755 $812 $819 reversed $705 $-1 #
coedge $-1 $754 $753 $781 $814 reversed $648 $-1 #
edge $-1 $795 13.031101873281919 $820 26.743673868202471 $779 $821 forward 7 unknown #
vertex $-1 $794 $822 #
straight-curve $-1 -32.918489744024114 -22.258129430250261 0 0 0 -1 I I #
coedge $-1 $812 $757 $759 $801 forward $729 $-1 #
coedge $-1 $757 $811 $784 $816 forward $729 $-1 #
vertex $-1 $758 $823 #
straight-curve $-1 58.974847363806688 0 -13.190235915357288 0 -1 0 I I #
edge $-1 $760 -6.1718928124310111 $808 85.721444295399792 $759 $824 forward 7 unknown #
point $-1 58.974847363806688 -30.094660045156306 -13.190235915357288 #
straight-curve $-1 46.631061738944666 0 -7.8870099259136417 0 1 0 I I #
point $-1 46.631061738944666 30.094660045156306 -7.8870099259136417 #
straight-curve $-1 58.974847363806688 30.094660045156306 -10.538622920635465 0 0 -1 I I #
straight-curve $-1 -19.887387870742195 -22.258129430250261 13.190235915357288 1 0 0 I I #
point $-1 -32.918489744024114 -22.258129430250261 13.190235915357288 #
vertex $-1 $773 $825 #
straight-curve $-1 -32.918489744024114 -30.094660045156306 0 0 0 -1 I I #
plane-surface $-1 0 30.094660045156306 0 0 -1 0 0 0 -1 forward_v I I I I #
coedge $-1 $798 $779 $813 $826 forward $729 $-1 #
coedge $-1 $779 $797 $792 $819 forward $729 $-1 #
coedge $-1 $781 $780 $811 $826 reversed $777 $-1 #
edge $-1 $820 -13.190235915357288 $782 13.190235915357288 $781 $827 forward 7 unknown #
point $-1 -46.631061738944666 -22.258129430250261 13.190235915357288 #
edge $-1 $817 -99.434016290320344 $799 6.1718928124310111 $784 $828 forward 7 unknown #
vertex $-1 $816 $829 #
straight-curve $-1 -46.631061738944666 30.094660045156306 0 0 0 -1 I I #
edge $-1 $808 -17.006462676304665 $795 -9.1699320613986188 $812 $830 forward 7 unknown #
vertex $-1 $826 $831 #
straight-curve $-1 -19.887387870742195 -22.258129430250261 -13.190235915357288 -1 0 0 I I #
point $-1 -32.918489744024114 -22.258129430250261 -13.190235915357288 #
point $-1 58.974847363806688 30.094660045156306 -13.190235915357288 #
straight-curve $-1 52.802954551375677 -30.094660045156306 -13.190235915357288 -1 0 0 I I #
point $-1 -32.918489744024114 -30.094660045156306 -13.190235915357288 #
edge $-1 $820 -22.258129430250261 $817 30.094660045156306 $813 $832 forward 7 unknown #
straight-curve $-1 -46.631061738944666 -22.258129430250261 0 0 0 1 I I #
straight-curve $-1 52.802954551375677 30.094660045156306 -13.190235915357288 1 0 0 I I #
point $-1 -46.631061738944666 30.094660045156306 -13.190235915357288 #
straight-curve $-1 -32.918489744024114 -13.088197368851642 -13.190235915357288 0 1 0 I I #
point $-1 -46.631061738944666 -22.258129430250261 -13.190235915357288 #
straight-curve $-1 -46.631061738944666 0 -13.190235915357288 0 1 0 I I #
End-of-ACIS-data 