500 0 18 0           
7 Unknown 11 ACIS 5.0 NT 24 Fri Mar 26 14:27:31 1999 
-1 9.9999999999999995e-007 1e-010 
body $-1 $18 $-1 $19 #
body $-1 $20 $-1 $21 #
body $-1 $22 $-1 $23 #
body $-1 $24 $-1 $25 #
body $-1 $26 $-1 $27 #
body $-1 $28 $-1 $29 #
body $-1 $30 $-1 $31 #
body $-1 $32 $-1 $33 #
body $-1 $34 $-1 $35 #
body $-1 $36 $-1 $37 #
body $-1 $38 $-1 $39 #
body $-1 $40 $-1 $41 #
body $-1 $42 $-1 $43 #
body $-1 $44 $-1 $45 #
body $-1 $46 $-1 $47 #
body $-1 $48 $-1 $49 #
body $-1 $50 $-1 $51 #
body $-1 $52 $-1 $53 #
lump $-1 $-1 $54 $0 #
transform $-1 1 0 0 0 1 0 0 0 1 51.263771477401043 25.34918169176408 8.5615667856252919 1 rotate no_reflect no_shear #
lump $-1 $-1 $55 $1 #
transform $-1 1 0 0 0 1 0 0 0 1 51.263771477401043 25.34918169176408 8.5615667856252919 1 rotate no_reflect no_shear #
lump $-1 $-1 $56 $2 #
transform $-1 1 0 0 0 1 0 0 0 1 51.263771477401043 25.34918169176408 8.5615667856252919 1 rotate no_reflect no_shear #
lump $-1 $-1 $57 $3 #
transform $-1 1 0 0 0 1 0 0 0 1 51.263771477401043 25.34918169176408 8.5615667856252919 1 rotate no_reflect no_shear #
lump $-1 $-1 $58 $4 #
transform $-1 1 0 0 0 1 0 0 0 1 51.263771477401043 25.34918169176408 8.5615667856252919 1 rotate no_reflect no_shear #
lump $-1 $-1 $59 $5 #
transform $-1 1 0 0 0 1 0 0 0 1 51.263771477401043 25.34918169176408 8.5615667856252919 1 rotate no_reflect no_shear #
lump $-1 $-1 $60 $6 #
transform $-1 1 0 0 0 1 0 0 0 1 51.263771477401043 25.34918169176408 8.5615667856252919 1 rotate no_reflect no_shear #
lump $-1 $-1 $61 $7 #
transform $-1 1 0 0 0 1 0 0 0 1 51.263771477401043 25.34918169176408 8.5615667856252919 1 rotate no_reflect no_shear #
lump $-1 $-1 $62 $8 #
transform $-1 1 0 0 0 1 0 0 0 1 51.263771477401043 25.34918169176408 8.5615667856252919 1 rotate no_reflect no_shear #
lump $-1 $-1 $63 $9 #
transform $-1 1 0 0 0 1 0 0 0 1 51.263771477401043 25.34918169176408 8.5615667856252919 1 rotate no_reflect no_shear #
lump $-1 $-1 $64 $10 #
transform $-1 1 0 0 0 1 0 0 0 1 51.263771477401043 25.34918169176408 8.5615667856252919 1 rotate no_reflect no_shear #
lump $-1 $-1 $65 $11 #
transform $-1 1 0 0 0 1 0 0 0 1 51.263771477401043 25.34918169176408 8.5615667856252919 1 rotate no_reflect no_shear #
lump $-1 $-1 $66 $12 #
transform $-1 1 0 0 0 1 0 0 0 1 51.263771477401043 25.34918169176408 8.5615667856252919 1 rotate no_reflect no_shear #
lump $-1 $-1 $67 $13 #
transform $-1 1 0 0 0 1 0 0 0 1 51.263771477401043 25.34918169176408 8.5615667856252919 1 rotate no_reflect no_shear #
lump $-1 $-1 $68 $14 #
transform $-1 1 0 0 0 1 0 0 0 1 51.263771477401043 25.34918169176408 8.5615667856252919 1 rotate no_reflect no_shear #
lump $-1 $-1 $69 $15 #
transform $-1 1 0 0 0 1 0 0 0 1 51.263771477401043 25.34918169176408 8.5615667856252919 1 rotate no_reflect no_shear #
lump $-1 $-1 $70 $16 #
transform $-1 1 0 0 0 1 0 0 0 1 51.263771477401043 25.34918169176408 8.5615667856252919 1 rotate no_reflect no_shear #
lump $-1 $-1 $71 $17 #
transform $-1 1 0 0 0 1 0 0 0 1 51.263771477401043 25.34918169176408 8.5615667856252919 1 rotate no_reflect no_shear #
shell $-1 $-1 $-1 $72 $-1 $18 #
shell $-1 $-1 $-1 $73 $-1 $20 #
shell $-1 $-1 $-1 $74 $-1 $22 #
shell $-1 $-1 $-1 $75 $-1 $24 #
shell $-1 $-1 $-1 $76 $-1 $26 #
shell $-1 $-1 $-1 $77 $-1 $28 #
shell $-1 $-1 $-1 $78 $-1 $30 #
shell $-1 $-1 $-1 $79 $-1 $32 #
shell $-1 $-1 $-1 $80 $-1 $34 #
shell $-1 $-1 $-1 $81 $-1 $36 #
shell $-1 $-1 $-1 $82 $-1 $38 #
shell $-1 $-1 $-1 $83 $-1 $40 #
shell $-1 $-1 $-1 $84 $-1 $42 #
shell $-1 $-1 $-1 $85 $-1 $44 #
shell $-1 $-1 $-1 $86 $-1 $46 #
shell $-1 $-1 $-1 $87 $-1 $48 #
shell $-1 $-1 $-1 $88 $-1 $50 #
shell $-1 $-1 $-1 $89 $-1 $52 #
face $-1 $90 $91 $54 $-1 $92 reversed single #
face $-1 $93 $94 $55 $-1 $95 forward single #
face $-1 $96 $97 $56 $-1 $98 reversed single #
face $-1 $99 $100 $57 $-1 $101 forward single #
face $-1 $102 $103 $58 $-1 $104 reversed single #
face $-1 $105 $106 $59 $-1 $107 forward single #
face $-1 $108 $109 $60 $-1 $110 reversed single #
face $-1 $111 $112 $61 $-1 $113 forward single #
face $-1 $114 $115 $62 $-1 $116 reversed single #
face $-1 $117 $118 $63 $-1 $119 forward single #
face $-1 $120 $121 $64 $-1 $122 reversed single #
face $-1 $123 $124 $65 $-1 $125 forward single #
face $-1 $126 $127 $66 $-1 $128 forward single #
face $-1 $129 $130 $67 $-1 $131 forward single #
face $-1 $132 $133 $68 $-1 $134 reversed single #
face $-1 $135 $136 $69 $-1 $137 forward single #
face $-1 $138 $139 $70 $-1 $140 forward single #
face $-1 $141 $142 $71 $-1 $143 forward single #
face $-1 $144 $145 $54 $-1 $146 forward single #
loop $-1 $-1 $147 $72 #
plane-surface $-1 0 -25.34918169176408 0 0 1 0 0 0 1 forward_v I I I I #
face $-1 $148 $149 $55 $-1 $150 forward single #
loop $-1 $-1 $151 $73 #
plane-surface $-1 0 -25.34918169176408 0 0 1 0 0 0 1 forward_v I I I I #
face $-1 $152 $153 $56 $-1 $154 reversed single #
loop $-1 $-1 $155 $74 #
plane-surface $-1 -130.94263827127625 -16.697418890195983 68.037795768263507 0 1 0 -0.77714596973225614 0 0.62932038083071107 forward_v I I I I #
face $-1 $156 $157 $57 $-1 $158 forward single #
loop $-1 $159 $160 $75 #
cone-surface $-1 -47.60564087211646 -13.544222089225418 4.7306524066115436 0.77714596973225614 0 -0.62932038083071107 0.9439805712460666 0 1.1657189545983841 1 I I 0 1 1.5 forward I I I I #
face $-1 $161 $162 $58 $-1 $163 reversed single #
loop $-1 $-1 $164 $76 #
plane-surface $-1 -130.94263827127625 -4.7840165635230081 68.037795768263507 0 1 0 -0.77714596973225614 0 0.62932038083071107 forward_v I I I I #
face $-1 $165 $166 $59 $-1 $167 forward single #
loop $-1 $168 $169 $77 #
cone-surface $-1 -47.60564087211646 -1.6308197625524414 4.7306524066115436 0.77714596973225614 0 -0.62932038083071107 0.9439805712460666 0 1.1657189545983841 1 I I 0 1 1.5 forward I I I I #
face $-1 $170 $171 $60 $-1 $172 reversed single #
loop $-1 $-1 $173 $78 #
plane-surface $-1 -130.94263827127625 7.1293857631499717 68.037795768263507 0 1 0 -0.77714596973225614 0 0.62932038083071107 forward_v I I I I #
face $-1 $174 $175 $61 $-1 $176 forward single #
loop $-1 $177 $178 $79 #
cone-surface $-1 -47.60564087211646 10.282582564120538 4.7306524066115436 0.77714596973225614 0 -0.62932038083071107 0.9439805712460666 0 1.1657189545983841 1 I I 0 1 1.5 forward I I I I #
face $-1 $179 $180 $62 $-1 $181 reversed single #
loop $-1 $-1 $182 $80 #
plane-surface $-1 -130.94263827127625 19.042788089822952 68.037795768263507 0 1 0 -0.77714596973225614 0 0.62932038083071107 forward_v I I I I #
face $-1 $183 $184 $63 $-1 $185 forward single #
loop $-1 $186 $187 $81 #
cone-surface $-1 -47.60564087211646 22.195984890793518 4.7306524066115436 0.77714596973225614 0 -0.62932038083071107 0.9439805712460666 0 1.1657189545983841 1 I I 0 1 1.5 forward I I I I #
face $-1 $188 $189 $64 $-1 $190 reversed single #
loop $-1 $-1 $191 $82 #
plane-surface $-1 21.117442061556709 0.99840432835937953 147.12938349534079 0 -1 0 -0.54463904215088732 0 -0.83867056331134215 forward_v I I I I #
face $-1 $192 $193 $65 $-1 $194 forward single #
loop $-1 $195 $196 $83 #
cone-surface $-1 48.481843000771313 -3.8638310262889419 6.5124723619178457 -0.54463904215088732 0 -0.83867056331134215 0.41933528165567108 0 -0.27231952107544366 1 I I 0 1 0.5 forward I I I I #
face $-1 $197 $198 $66 $-1 $199 forward single #
loop $-1 $200 $201 $84 #
cone-surface $-1 48.481843000771313 -2.0404927682958203 6.5124723619178457 -0.54463904215088732 0 -0.83867056331134215 0.41933528165567108 0 -0.27231952107544366 1 I I 0 1 0.5 forward I I I I #
face $-1 $202 $203 $67 $-1 $204 forward single #
loop $-1 $205 $206 $85 #
cone-surface $-1 48.481843000771313 -0.21715451030269861 6.5124723619178457 -0.54463904215088732 0 -0.83867056331134215 0.41933528165567108 0 -0.27231952107544366 1 I I 0 1 0.5 forward I I I I #
face $-1 $207 $208 $68 $-1 $209 reversed single #
loop $-1 $-1 $210 $86 #
plane-surface $-1 21.117442061556709 13.731152666519124 147.12938349534079 0 -1 0 -0.54463904215088732 0 -0.83867056331134215 forward_v I I I I #
face $-1 $211 $212 $69 $-1 $213 forward single #
loop $-1 $214 $215 $87 #
cone-surface $-1 48.481843000771313 8.8689173118707956 6.5124723619178457 -0.54463904215088732 0 -0.83867056331134215 0.41933528165567108 0 -0.27231952107544366 1 I I 0 1 0.5 forward I I I I #
face $-1 $216 $217 $70 $-1 $218 forward single #
loop $-1 $219 $220 $88 #
cone-surface $-1 48.481843000771313 10.692255569863924 6.5124723619178457 -0.54463904215088732 0 -0.83867056331134215 0.41933528165567108 0 -0.27231952107544366 1 I I 0 1 0.5 forward I I I I #
face $-1 $221 $222 $71 $-1 $223 forward single #
loop $-1 $224 $225 $89 #
cone-surface $-1 48.481843000771313 12.515593827857039 6.5124723619178457 -0.54463904215088732 0 -0.83867056331134215 0.41933528165567108 0 -0.27231952107544366 1 I I 0 1 0.5 forward I I I I #
face $-1 $226 $227 $54 $-1 $228 reversed single #
loop $-1 $-1 $229 $90 #
plane-surface $-1 0 0 8.5615667856252919 0 0 1 1 0 0 forward_v I I I I #
coedge $-1 $230 $231 $232 $233 reversed $91 $-1 #
face $-1 $234 $235 $55 $-1 $236 reversed single #
loop $-1 $-1 $237 $93 #
plane-surface $-1 0 0 8.5615667856252919 0 0 1 1 0 0 forward_v I I I I #
coedge $-1 $238 $239 $240 $241 forward $94 $-1 #
face $-1 $242 $243 $56 $-1 $244 reversed single #
loop $-1 $-1 $245 $96 #
plane-surface $-1 -51.263771477401036 -13.544222089225418 3.5151233903103645 -0.77714596973225614 0 0.62932038083071107 0.62932038083071107 0 0.77714596973225614 forward_v I I I I #
coedge $-1 $246 $247 $248 $249 reversed $97 $-1 #
face $-1 $-1 $250 $57 $-1 $251 forward single #
loop $-1 $252 $253 $99 #
cone-surface $-1 -45.407915377570347 -13.544222089225418 2.9509694396322228 0.77714596973225614 0 -0.62932038083071107 0.4719902856230333 0 0.58285947729919207 1 I I -0.70710678118654757 0.70710678118654757 0.75 forward I I I I #
loop $-1 $-1 $254 $75 #
coedge $-1 $160 $160 $255 $256 reversed $100 $-1 #
face $-1 $257 $258 $58 $-1 $259 reversed single #
loop $-1 $-1 $260 $102 #
plane-surface $-1 -51.263771477401036 -1.6308197625524414 3.5151233903103645 -0.77714596973225614 0 0.62932038083071107 0.62932038083071107 0 0.77714596973225614 forward_v I I I I #
coedge $-1 $261 $262 $263 $264 reversed $103 $-1 #
face $-1 $-1 $265 $59 $-1 $266 forward single #
loop $-1 $267 $268 $105 #
cone-surface $-1 -45.407915377570347 -1.6308197625524414 2.9509694396322228 0.77714596973225614 0 -0.62932038083071107 0.4719902856230333 0 0.58285947729919207 1 I I -0.70710678118654757 0.70710678118654757 0.75 forward I I I I #
loop $-1 $-1 $269 $77 #
coedge $-1 $169 $169 $270 $271 reversed $106 $-1 #
face $-1 $272 $273 $60 $-1 $274 reversed single #
loop $-1 $-1 $275 $108 #
plane-surface $-1 -51.263771477401036 10.282582564120538 3.5151233903103645 -0.77714596973225614 0 0.62932038083071107 0.62932038083071107 0 0.77714596973225614 forward_v I I I I #
coedge $-1 $276 $277 $278 $279 reversed $109 $-1 #
face $-1 $-1 $280 $61 $-1 $281 forward single #
loop $-1 $282 $283 $111 #
cone-surface $-1 -45.407915377570347 10.282582564120538 2.9509694396322228 0.77714596973225614 0 -0.62932038083071107 0.4719902856230333 0 0.58285947729919207 1 I I -0.70710678118654757 0.70710678118654757 0.75 forward I I I I #
loop $-1 $-1 $284 $79 #
coedge $-1 $178 $178 $285 $286 reversed $112 $-1 #
face $-1 $287 $288 $62 $-1 $289 forward single #
loop $-1 $-1 $290 $114 #
plane-surface $-1 -51.263771477401036 22.195984890793518 3.5151233903103645 -0.77714596973225614 0 0.62932038083071107 0.62932038083071107 0 0.77714596973225614 forward_v I I I I #
coedge $-1 $291 $292 $293 $294 reversed $115 $-1 #
face $-1 $-1 $295 $63 $-1 $296 forward single #
loop $-1 $297 $298 $117 #
cone-surface $-1 -45.407915377570347 22.195984890793518 2.9509694396322228 0.77714596973225614 0 -0.62932038083071107 0.4719902856230333 0 0.58285947729919207 1 I I -0.70710678118654757 0.70710678118654757 0.75 forward I I I I #
loop $-1 $-1 $299 $81 #
coedge $-1 $187 $187 $300 $301 reversed $118 $-1 #
face $-1 $302 $303 $64 $-1 $304 reversed single #
loop $-1 $-1 $305 $120 #
plane-surface $-1 -34.723060727430656 -2.0404927682958203 61.14255129050909 0.54463904215088732 0 0.83867056331134215 0.83867056331134215 0 -0.54463904215088732 forward_v I I I I #
coedge $-1 $306 $307 $308 $309 reversed $121 $-1 #
face $-1 $-1 $310 $65 $-1 $311 forward single #
loop $-1 $312 $313 $123 #
cone-surface $-1 48.073363719158145 -3.8638310262889419 5.8834694394343394 -0.54463904215088732 0 -0.83867056331134215 0.20966764082783554 0 -0.13615976053772183 1 I I -0.70710678118654746 0.70710678118654746 0.25 forward I I I I #
loop $-1 $-1 $314 $83 #
coedge $-1 $196 $196 $315 $316 reversed $124 $-1 #
face $-1 $-1 $317 $66 $-1 $318 forward single #
loop $-1 $319 $320 $126 #
cone-surface $-1 48.073363719158145 -2.0404927682958203 5.8834694394343394 -0.54463904215088732 0 -0.83867056331134215 0.20966764082783554 0 -0.13615976053772183 1 I I -0.70710678118654746 0.70710678118654746 0.25 forward I I I I #
loop $-1 $-1 $321 $84 #
coedge $-1 $201 $201 $322 $323 reversed $127 $-1 #
face $-1 $-1 $324 $67 $-1 $325 forward single #
loop $-1 $326 $327 $129 #
cone-surface $-1 48.073363719158145 -0.21715451030269861 5.8834694394343394 -0.54463904215088732 0 -0.83867056331134215 0.20966764082783554 0 -0.13615976053772183 1 I I -0.70710678118654746 0.70710678118654746 0.25 forward I I I I #
loop $-1 $-1 $328 $85 #
coedge $-1 $206 $206 $329 $330 reversed $130 $-1 #
face $-1 $331 $332 $68 $-1 $333 reversed single #
loop $-1 $-1 $334 $132 #
plane-surface $-1 -34.723060727430656 10.692255569863924 61.14255129050909 0.54463904215088732 0 0.83867056331134215 0.83867056331134215 0 -0.54463904215088732 forward_v I I I I #
coedge $-1 $335 $336 $337 $338 reversed $133 $-1 #
face $-1 $-1 $339 $69 $-1 $340 forward single #
loop $-1 $341 $342 $135 #
cone-surface $-1 48.073363719158145 8.8689173118707956 5.8834694394343394 -0.54463904215088732 0 -0.83867056331134215 0.20966764082783554 0 -0.13615976053772183 1 I I -0.70710678118654746 0.70710678118654746 0.25 forward I I I I #
loop $-1 $-1 $343 $87 #
coedge $-1 $215 $215 $344 $345 reversed $136 $-1 #
face $-1 $-1 $346 $70 $-1 $347 forward single #
loop $-1 $348 $349 $138 #
cone-surface $-1 48.073363719158145 10.692255569863924 5.8834694394343394 -0.54463904215088732 0 -0.83867056331134215 0.20966764082783554 0 -0.13615976053772183 1 I I -0.70710678118654746 0.70710678118654746 0.25 forward I I I I #
loop $-1 $-1 $350 $88 #
coedge $-1 $220 $220 $351 $352 reversed $139 $-1 #
face $-1 $-1 $353 $71 $-1 $354 forward single #
loop $-1 $355 $356 $141 #
cone-surface $-1 48.073363719158145 12.515593827857039 5.8834694394343394 -0.54463904215088732 0 -0.83867056331134215 0.20966764082783554 0 -0.13615976053772183 1 I I -0.70710678118654746 0.70710678118654746 0.25 forward I I I I #
loop $-1 $-1 $357 $89 #
coedge $-1 $225 $225 $358 $359 reversed $142 $-1 #
face $-1 $360 $361 $54 $-1 $362 reversed single #
loop $-1 $-1 $363 $144 #
plane-surface $-1 0 0 -8.5615667856252919 0 0 1 1 0 0 forward_v I I I I #
coedge $-1 $364 $365 $366 $367 forward $145 $-1 #
coedge $-1 $368 $147 $369 $370 reversed $91 $-1 #
coedge $-1 $147 $368 $371 $372 forward $91 $-1 #
coedge $-1 $373 $363 $147 $233 forward $227 $-1 #
edge $-1 $374 -51.263771477401043 $375 51.263771477401043 $147 $376 forward 7 unknown #
face $-1 $377 $378 $55 $-1 $379 reversed single #
loop $-1 $-1 $380 $148 #
plane-surface $-1 -51.263771477401043 0 0 1 0 0 0 0 -1 forward_v I I I I #
coedge $-1 $381 $382 $239 $383 forward $149 $-1 #
coedge $-1 $384 $151 $385 $386 reversed $94 $-1 #
coedge $-1 $151 $384 $237 $383 reversed $94 $-1 #
coedge $-1 $387 $388 $151 $241 reversed $389 $-1 #
edge $-1 $390 -8.5615667856252919 $391 8.5615667856252919 $240 $392 forward 7 unknown #
face $-1 $393 $394 $56 $-1 $395 reversed single #
loop $-1 $-1 $396 $152 #
plane-surface $-1 -130.94263827127625 -10.391025288254852 68.037795768263507 0 -1 0 0.77714596973225614 0 -0.62932038083071107 forward_v I I I I #
coedge $-1 $397 $398 $399 $400 reversed $153 $-1 #
coedge $-1 $247 $155 $401 $402 reversed $97 $-1 #
coedge $-1 $155 $246 $397 $403 reversed $97 $-1 #
coedge $-1 $399 $404 $155 $249 forward $405 $-1 #
edge $-1 $406 14.207547658237083 $407 18.294076834312413 $248 $408 forward 7 unknown #
loop $-1 $-1 $255 $156 #
plane-surface $-1 -51.263771477401036 -13.544222089225418 3.5151233903103645 -0.77714596973225614 0 0.62932038083071107 0.62932038083071107 0 0.77714596973225614 forward_v I I I I #
loop $-1 $-1 $409 $99 #
coedge $-1 $253 $253 $254 $410 reversed $157 $-1 #
coedge $-1 $254 $254 $253 $410 forward $159 $-1 #
coedge $-1 $255 $255 $160 $256 forward $250 $-1 #
edge $-1 $411 0 $411 6.2831853071796004 $255 $412 forward 7 unknown #
face $-1 $413 $414 $58 $-1 $415 forward single #
loop $-1 $-1 $416 $161 #
plane-surface $-1 -130.94263827127625 1.5223770384181252 68.037795768263507 0 -1 0 0.77714596973225614 0 -0.62932038083071107 forward_v I I I I #
coedge $-1 $417 $418 $419 $420 reversed $162 $-1 #
coedge $-1 $262 $164 $421 $422 reversed $103 $-1 #
coedge $-1 $164 $261 $417 $423 reversed $103 $-1 #
coedge $-1 $419 $424 $164 $264 forward $414 $-1 #
edge $-1 $425 14.207547658237083 $426 18.294076834312413 $263 $427 forward 7 unknown #
loop $-1 $-1 $270 $165 #
plane-surface $-1 -51.263771477401036 -1.6308197625524414 3.5151233903103645 -0.77714596973225614 0 0.62932038083071107 0.62932038083071107 0 0.77714596973225614 forward_v I I I I #
loop $-1 $-1 $428 $105 #
coedge $-1 $268 $268 $269 $429 reversed $166 $-1 #
coedge $-1 $269 $269 $268 $429 forward $168 $-1 #
coedge $-1 $270 $270 $169 $271 forward $265 $-1 #
edge $-1 $430 0 $430 6.2831853071796004 $270 $431 forward 7 unknown #
face $-1 $432 $433 $60 $-1 $434 forward single #
loop $-1 $-1 $435 $170 #
plane-surface $-1 -130.94263827127625 13.435779365091104 68.037795768263507 0 -1 0 0.77714596973225614 0 -0.62932038083071107 forward_v I I I I #
coedge $-1 $436 $437 $438 $439 reversed $171 $-1 #
coedge $-1 $277 $173 $440 $441 reversed $109 $-1 #
coedge $-1 $173 $276 $436 $442 reversed $109 $-1 #
coedge $-1 $438 $443 $173 $279 forward $433 $-1 #
edge $-1 $444 14.207547658237083 $445 18.294076834312413 $278 $446 forward 7 unknown #
loop $-1 $-1 $285 $174 #
plane-surface $-1 -51.263771477401036 10.282582564120538 3.5151233903103645 -0.77714596973225614 0 0.62932038083071107 0.62932038083071107 0 0.77714596973225614 forward_v I I I I #
loop $-1 $-1 $447 $111 #
coedge $-1 $283 $283 $284 $448 reversed $175 $-1 #
coedge $-1 $284 $284 $283 $448 forward $177 $-1 #
coedge $-1 $285 $285 $178 $286 forward $280 $-1 #
edge $-1 $449 0 $449 6.2831853071796004 $285 $450 forward 7 unknown #
face $-1 $451 $452 $62 $-1 $453 reversed single #
loop $-1 $-1 $293 $179 #
plane-surface $-1 0 0 8.5615667856252919 0 0 1 1 0 0 forward_v I I I I #
coedge $-1 $454 $455 $456 $457 reversed $180 $-1 #
coedge $-1 $292 $182 $458 $459 reversed $115 $-1 #
coedge $-1 $182 $291 $454 $460 reversed $115 $-1 #
coedge $-1 $456 $461 $182 $294 forward $288 $-1 #
edge $-1 $462 14.207547658237083 $463 18.294076834312413 $293 $464 forward 7 unknown #
loop $-1 $-1 $300 $183 #
plane-surface $-1 -51.263771477401036 22.195984890793518 3.5151233903103645 -0.77714596973225614 0 0.62932038083071107 0.62932038083071107 0 0.77714596973225614 forward_v I I I I #
loop $-1 $-1 $465 $117 #
coedge $-1 $298 $298 $299 $466 reversed $184 $-1 #
coedge $-1 $299 $299 $298 $466 forward $186 $-1 #
coedge $-1 $300 $300 $187 $301 forward $295 $-1 #
edge $-1 $467 0 $467 6.2831853071796004 $300 $468 forward 7 unknown #
face $-1 $469 $470 $64 $-1 $471 forward single #
loop $-1 $-1 $472 $188 #
plane-surface $-1 21.117442061556709 -5.0793898649510201 147.12938349534079 0 1 0 0.54463904215088732 0 0.83867056331134215 forward_v I I I I #
coedge $-1 $473 $474 $475 $476 reversed $189 $-1 #
coedge $-1 $307 $191 $477 $478 reversed $121 $-1 #
coedge $-1 $191 $306 $473 $479 reversed $121 $-1 #
coedge $-1 $475 $480 $191 $309 forward $470 $-1 #
edge $-1 $481 -40.705050446622693 $482 -35.685832535514109 $308 $483 forward 7 unknown #
loop $-1 $-1 $315 $192 #
plane-surface $-1 -34.723060727430656 -2.0404927682958203 61.14255129050909 0.54463904215088732 0 0.83867056331134215 0.83867056331134215 0 -0.54463904215088732 forward_v I I I I #
loop $-1 $-1 $484 $123 #
coedge $-1 $313 $313 $314 $485 reversed $193 $-1 #
coedge $-1 $314 $314 $313 $485 forward $195 $-1 #
coedge $-1 $315 $315 $196 $316 forward $310 $-1 #
edge $-1 $486 0 $486 6.2831853071796004 $315 $487 forward 7 unknown #
loop $-1 $-1 $322 $197 #
plane-surface $-1 -34.723060727430656 -2.0404927682958203 61.14255129050909 0.54463904215088732 0 0.83867056331134215 0.83867056331134215 0 -0.54463904215088732 forward_v I I I I #
loop $-1 $-1 $488 $126 #
coedge $-1 $320 $320 $321 $489 reversed $198 $-1 #
coedge $-1 $321 $321 $320 $489 forward $200 $-1 #
coedge $-1 $322 $322 $201 $323 forward $317 $-1 #
edge $-1 $490 0 $490 6.2831853071796004 $322 $491 forward 7 unknown #
loop $-1 $-1 $329 $202 #
plane-surface $-1 -34.723060727430656 -2.0404927682958203 61.14255129050909 0.54463904215088732 0 0.83867056331134215 0.83867056331134215 0 -0.54463904215088732 forward_v I I I I #
loop $-1 $-1 $492 $129 #
coedge $-1 $327 $327 $328 $493 reversed $203 $-1 #
coedge $-1 $328 $328 $327 $493 forward $205 $-1 #
coedge $-1 $329 $329 $206 $330 forward $324 $-1 #
edge $-1 $494 0 $494 6.2831853071796004 $329 $495 forward 7 unknown #
face $-1 $496 $497 $68 $-1 $498 reversed single #
loop $-1 $-1 $499 $207 #
plane-surface $-1 21.117442061556709 7.6533584732087245 147.12938349534079 0 1 0 0.54463904215088732 0 0.83867056331134215 forward_v I I I I #
coedge $-1 $500 $501 $502 $503 reversed $208 $-1 #
coedge $-1 $336 $210 $504 $505 reversed $133 $-1 #
coedge $-1 $210 $335 $500 $506 reversed $133 $-1 #
coedge $-1 $502 $507 $210 $338 forward $508 $-1 #
edge $-1 $509 -40.705050446622693 $510 -35.685832535514109 $337 $511 forward 7 unknown #
loop $-1 $-1 $344 $211 #
plane-surface $-1 -34.723060727430656 10.692255569863924 61.14255129050909 0.54463904215088732 0 0.83867056331134215 0.83867056331134215 0 -0.54463904215088732 forward_v I I I I #
loop $-1 $-1 $512 $135 #
coedge $-1 $342 $342 $343 $513 reversed $212 $-1 #
coedge $-1 $343 $343 $342 $513 forward $214 $-1 #
coedge $-1 $344 $344 $215 $345 forward $339 $-1 #
edge $-1 $514 0 $514 6.2831853071796004 $344 $515 forward 7 unknown #
loop $-1 $-1 $351 $216 #
plane-surface $-1 -34.723060727430656 10.692255569863924 61.14255129050909 0.54463904215088732 0 0.83867056331134215 0.83867056331134215 0 -0.54463904215088732 forward_v I I I I #
loop $-1 $-1 $516 $138 #
coedge $-1 $349 $349 $350 $517 reversed $217 $-1 #
coedge $-1 $350 $350 $349 $517 forward $219 $-1 #
coedge $-1 $351 $351 $220 $352 forward $346 $-1 #
edge $-1 $518 0 $518 6.2831853071796004 $351 $519 forward 7 unknown #
loop $-1 $-1 $358 $221 #
plane-surface $-1 -34.723060727430656 10.692255569863924 61.14255129050909 0.54463904215088732 0 0.83867056331134215 0.83867056331134215 0 -0.54463904215088732 forward_v I I I I #
loop $-1 $-1 $520 $141 #
coedge $-1 $356 $356 $357 $521 reversed $222 $-1 #
coedge $-1 $357 $357 $356 $521 forward $224 $-1 #
coedge $-1 $358 $358 $225 $359 forward $353 $-1 #
edge $-1 $522 0 $522 6.2831853071796004 $358 $523 forward 7 unknown #
face $-1 $524 $525 $54 $-1 $526 reversed single #
loop $-1 $-1 $527 $226 #
plane-surface $-1 -51.263771477401043 0 0 1 0 0 0 0 -1 forward_v I I I I #
coedge $-1 $232 $528 $529 $530 forward $227 $-1 #
coedge $-1 $531 $229 $532 $533 forward $145 $-1 #
coedge $-1 $229 $531 $368 $534 forward $145 $-1 #
coedge $-1 $369 $535 $229 $367 reversed $536 $-1 #
edge $-1 $537 -25.34918169176408 $538 25.34918169176408 $366 $539 forward 7 unknown #
coedge $-1 $231 $230 $365 $534 reversed $91 $-1 #
coedge $-1 $529 $366 $230 $370 forward $536 $-1 #
edge $-1 $537 -8.5615667856252919 $374 8.5615667856252919 $369 $540 forward 7 unknown #
coedge $-1 $541 $542 $231 $372 reversed $361 $-1 #
edge $-1 $543 -8.5615667856252919 $375 8.5615667856252919 $371 $544 forward 7 unknown #
coedge $-1 $528 $232 $542 $545 forward $227 $-1 #
vertex $-1 $370 $546 #
vertex $-1 $545 $547 #
straight-curve $-1 0 -25.34918169176408 -8.5615667856252919 -1 0 0 I I #
face $-1 $548 $389 $55 $-1 $549 reversed single #
loop $-1 $-1 $550 $234 #
plane-surface $-1 -49.649518852556788 -34.000944493332177 0 0 1 0 0 0 1 forward_v I I I I #
coedge $-1 $551 $552 $384 $553 forward $235 $-1 #
coedge $-1 $554 $237 $552 $555 forward $149 $-1 #
coedge $-1 $237 $554 $387 $556 forward $149 $-1 #
edge $-1 $390 48.035266227712533 $557 51.263771477401043 $237 $558 forward 7 unknown #
coedge $-1 $239 $238 $380 $553 reversed $94 $-1 #
coedge $-1 $559 $560 $238 $386 forward $561 $-1 #
edge $-1 $562 -51.263771477401043 $391 -48.035266227712533 $385 $563 forward 7 unknown #
coedge $-1 $564 $240 $382 $556 reversed $389 $-1 #
coedge $-1 $240 $564 $559 $565 reversed $389 $-1 #
loop $-1 $-1 $564 $377 #
vertex $-1 $383 $566 #
vertex $-1 $565 $567 #
straight-curve $-1 -48.035266227712533 -25.34918169176408 0 0 0 -1 I I #
face $-1 $-1 $405 $56 $-1 $568 forward single #
loop $-1 $-1 $569 $242 #
plane-surface $-1 -51.263771477401043 0 0 1 0 0 0 0 -1 forward_v I I I I #
coedge $-1 $570 $571 $572 $573 reversed $243 $-1 #
coedge $-1 $574 $245 $247 $403 forward $153 $-1 #
coedge $-1 $245 $574 $570 $575 forward $153 $-1 #
coedge $-1 $572 $248 $245 $400 forward $405 $-1 #
edge $-1 $407 -9.9253078455832746 $576 -3.6189142436421431 $399 $577 forward 7 unknown #
coedge $-1 $578 $579 $246 $402 forward $394 $-1 #
edge $-1 $580 -30.503774493821396 $406 -25.457331098506462 $401 $581 forward 7 unknown #
edge $-1 $407 -6.4935592435144933 $580 1.1374033043381581e-014 $247 $582 forward 7 unknown #
coedge $-1 $248 $572 $578 $583 forward $405 $-1 #
loop $-1 $-1 $572 $393 #
vertex $-1 $402 $584 #
vertex $-1 $249 $585 #
straight-curve $-1 -65.471319135638126 -16.697418890195983 8.5615667856252919 1 0 0 I I #
coedge $-1 $409 $409 $-1 $586 reversed $252 $-1 #
edge $-1 $587 0 $587 6.2831853071796004 $253 $588 forward 7 unknown #
vertex $-1 $256 $589 #
ellipse-curve $-1 -49.220506889363378 -13.544222089225418 6.0383450879678255 -0.77714596973225614 0 0.62932038083071107 0.9439805712460666 0 1.1657189545983841 1 I I #
face $-1 $-1 $590 $58 $-1 $591 reversed single #
loop $-1 $-1 $263 $257 #
plane-surface $-1 0 0 8.5615667856252919 0 0 1 1 0 0 forward_v I I I I #
coedge $-1 $592 $593 $594 $595 reversed $258 $-1 #
coedge $-1 $596 $260 $262 $423 forward $162 $-1 #
coedge $-1 $260 $596 $592 $597 forward $162 $-1 #
coedge $-1 $594 $263 $260 $420 forward $414 $-1 #
edge $-1 $426 -3.9686066822467874 $598 2.3377869196943459 $419 $599 forward 7 unknown #
coedge $-1 $600 $601 $261 $422 forward $590 $-1 #
edge $-1 $602 -30.503774493821396 $425 -25.457331098506462 $421 $603 forward 7 unknown #
edge $-1 $426 -6.4935592435144933 $602 1.1374033043381581e-014 $262 $604 forward 7 unknown #
coedge $-1 $263 $594 $600 $605 forward $414 $-1 #
vertex $-1 $422 $606 #
vertex $-1 $264 $607 #
straight-curve $-1 -65.471319135638126 -4.7840165635230081 8.5615667856252919 1 0 0 I I #
coedge $-1 $428 $428 $-1 $608 reversed $267 $-1 #
edge $-1 $609 0 $609 6.2831853071796004 $268 $610 forward 7 unknown #
vertex $-1 $271 $611 #
ellipse-curve $-1 -49.220506889363378 -1.6308197625524414 6.0383450879678255 -0.77714596973225614 0 0.62932038083071107 0.9439805712460666 0 1.1657189545983841 1 I I #
face $-1 $-1 $612 $60 $-1 $613 reversed single #
loop $-1 $-1 $278 $272 #
plane-surface $-1 0 0 8.5615667856252919 0 0 1 1 0 0 forward_v I I I I #
coedge $-1 $614 $615 $616 $617 reversed $273 $-1 #
coedge $-1 $618 $275 $277 $442 forward $171 $-1 #
coedge $-1 $275 $618 $614 $619 forward $171 $-1 #
coedge $-1 $616 $278 $275 $439 forward $433 $-1 #
edge $-1 $445 1.9880944810897025 $620 8.294488083030835 $438 $621 forward 7 unknown #
coedge $-1 $622 $623 $276 $441 forward $612 $-1 #
edge $-1 $624 -30.503774493821396 $444 -25.457331098506462 $440 $625 forward 7 unknown #
edge $-1 $445 -6.4935592435144933 $624 1.1374033043381581e-014 $277 $626 forward 7 unknown #
coedge $-1 $278 $616 $622 $627 forward $433 $-1 #
vertex $-1 $279 $628 #
vertex $-1 $279 $629 #
straight-curve $-1 -65.471319135638126 7.1293857631499717 8.5615667856252919 1 0 0 I I #
coedge $-1 $447 $447 $-1 $630 reversed $282 $-1 #
edge $-1 $631 0 $631 6.2831853071796004 $283 $632 forward 7 unknown #
vertex $-1 $286 $633 #
ellipse-curve $-1 -49.220506889363378 10.282582564120538 6.0383450879678255 -0.77714596973225614 0 0.62932038083071107 0.9439805712460666 0 1.1657189545983841 1 I I #
face $-1 $-1 $634 $62 $-1 $635 reversed single #
loop $-1 $-1 $636 $287 #
plane-surface $-1 0 25.34918169176408 0 0 -1 0 0 0 -1 forward_v I I I I #
coedge $-1 $637 $290 $292 $460 forward $180 $-1 #
coedge $-1 $290 $637 $636 $638 reversed $180 $-1 #
coedge $-1 $639 $293 $290 $457 forward $288 $-1 #
edge $-1 $463 7.9447956444261933 $640 14.251189246367325 $456 $641 forward 7 unknown #
coedge $-1 $642 $643 $291 $459 forward $634 $-1 #
edge $-1 $644 -30.503774493821396 $462 -25.457331098506462 $458 $645 forward 7 unknown #
edge $-1 $463 -6.4935592435144933 $644 1.1374033043381581e-014 $292 $646 forward 7 unknown #
coedge $-1 $293 $639 $642 $647 forward $288 $-1 #
vertex $-1 $459 $648 #
vertex $-1 $294 $649 #
straight-curve $-1 -65.471319135638126 19.042788089822952 8.5615667856252919 1 0 0 I I #
coedge $-1 $465 $465 $-1 $650 reversed $297 $-1 #
edge $-1 $651 0 $651 6.2831853071796004 $298 $652 forward 7 unknown #
vertex $-1 $301 $653 #
ellipse-curve $-1 -49.220506889363378 22.195984890793518 6.0383450879678255 -0.77714596973225614 0 0.62932038083071107 0.9439805712460666 0 1.1657189545983841 1 I I #
face $-1 $-1 $654 $64 $-1 $655 reversed single #
loop $-1 $-1 $308 $302 #
plane-surface $-1 0 0 8.5615667856252919 0 0 1 1 0 0 forward_v I I I I #
coedge $-1 $656 $657 $658 $659 reversed $303 $-1 #
coedge $-1 $660 $305 $307 $479 forward $189 $-1 #
coedge $-1 $305 $660 $656 $661 forward $189 $-1 #
coedge $-1 $658 $308 $305 $476 forward $470 $-1 #
edge $-1 $482 -2.0186507125072897 $662 4.0591434808031099 $475 $663 forward 7 unknown #
coedge $-1 $664 $665 $306 $478 forward $654 $-1 #
edge $-1 $666 -68.26264324614867 $481 -65.003124962045106 $477 $667 forward 7 unknown #
edge $-1 $482 96.542811725782798 $666 102.5275429548021 $307 $668 forward 7 unknown #
coedge $-1 $308 $658 $664 $669 forward $470 $-1 #
vertex $-1 $478 $670 #
vertex $-1 $309 $671 #
straight-curve $-1 10.558721030778354 0.99840432835937953 8.5615667856252884 -1 0 0 I I #
coedge $-1 $484 $484 $-1 $672 reversed $312 $-1 #
edge $-1 $673 0 $673 6.2831853071796004 $313 $674 forward 7 unknown #
vertex $-1 $316 $675 #
ellipse-curve $-1 48.754162521846752 -3.8638310262889419 6.9318076435735048 0.54463904215088732 0 0.83867056331134215 0.41933528165567108 0 -0.27231952107544366 1 I I #
coedge $-1 $488 $488 $-1 $676 reversed $319 $-1 #
edge $-1 $677 0 $677 6.2831853071796004 $320 $678 forward 7 unknown #
vertex $-1 $323 $679 #
ellipse-curve $-1 48.754162521846752 -2.0404927682958203 6.9318076435735048 0.54463904215088732 0 0.83867056331134215 0.41933528165567108 0 -0.27231952107544366 1 I I #
coedge $-1 $492 $492 $-1 $680 reversed $326 $-1 #
edge $-1 $681 0 $681 6.2831853071796004 $327 $682 forward 7 unknown #
vertex $-1 $330 $683 #
ellipse-curve $-1 48.754162521846752 -0.21715451030269861 6.9318076435735048 0.54463904215088732 0 0.83867056331134215 0.41933528165567108 0 -0.27231952107544366 1 I I #
face $-1 $-1 $508 $68 $-1 $684 forward single #
loop $-1 $-1 $685 $331 #
plane-surface $-1 51.263771477401043 0 0 -1 0 0 0 0 1 forward_v I I I I #
coedge $-1 $686 $687 $688 $689 reversed $332 $-1 #
coedge $-1 $690 $334 $336 $506 forward $208 $-1 #
coedge $-1 $334 $690 $686 $691 forward $208 $-1 #
coedge $-1 $688 $337 $334 $503 forward $508 $-1 #
edge $-1 $510 -8.385024881587162 $692 -2.3072306882767624 $502 $693 forward 7 unknown #
coedge $-1 $694 $695 $335 $505 forward $497 $-1 #
edge $-1 $696 -68.26264324614867 $509 -65.003124962045106 $504 $697 forward 7 unknown #
edge $-1 $510 96.542811725782798 $696 102.5275429548021 $336 $698 forward 7 unknown #
coedge $-1 $337 $688 $694 $699 forward $508 $-1 #
loop $-1 $-1 $688 $496 #
vertex $-1 $505 $700 #
vertex $-1 $338 $701 #
straight-curve $-1 10.558721030778354 13.731152666519124 8.5615667856252884 -1 0 0 I I #
coedge $-1 $512 $512 $-1 $702 reversed $341 $-1 #
edge $-1 $703 0 $703 6.2831853071796004 $342 $704 forward 7 unknown #
vertex $-1 $345 $705 #
ellipse-curve $-1 48.754162521846752 8.8689173118707956 6.9318076435735048 0.54463904215088732 0 0.83867056331134215 0.41933528165567108 0 -0.27231952107544366 1 I I #
coedge $-1 $516 $516 $-1 $706 reversed $348 $-1 #
edge $-1 $707 0 $707 6.2831853071796004 $349 $708 forward 7 unknown #
vertex $-1 $352 $709 #
ellipse-curve $-1 48.754162521846752 10.692255569863924 6.9318076435735048 0.54463904215088732 0 0.83867056331134215 0.41933528165567108 0 -0.27231952107544366 1 I I #
coedge $-1 $520 $520 $-1 $710 reversed $355 $-1 #
edge $-1 $711 0 $711 6.2831853071796004 $356 $712 forward 7 unknown #
vertex $-1 $359 $713 #
ellipse-curve $-1 48.754162521846752 12.515593827857039 6.9318076435735048 0.54463904215088732 0 0.83867056331134215 0.41933528165567108 0 -0.27231952107544366 1 I I #
face $-1 $-1 $536 $54 $-1 $714 reversed single #
loop $-1 $-1 $715 $360 #
plane-surface $-1 0 25.34918169176408 0 0 -1 0 0 0 -1 forward_v I I I I #
coedge $-1 $542 $541 $716 $717 forward $361 $-1 #
coedge $-1 $363 $373 $718 $719 forward $227 $-1 #
coedge $-1 $535 $369 $363 $530 reversed $536 $-1 #
edge $-1 $720 -25.34918169176408 $374 25.34918169176408 $529 $721 forward 7 unknown #
coedge $-1 $365 $364 $541 $722 forward $145 $-1 #
coedge $-1 $715 $716 $364 $533 reversed $525 $-1 #
edge $-1 $538 -51.263771477401043 $723 51.263771477401043 $532 $724 forward 7 unknown #
edge $-1 $543 -51.263771477401043 $537 51.263771477401043 $368 $725 forward 7 unknown #
coedge $-1 $366 $529 $715 $726 reversed $536 $-1 #
loop $-1 $-1 $369 $524 #
vertex $-1 $367 $727 #
vertex $-1 $367 $728 #
straight-curve $-1 51.263771477401043 0 8.5615667856252919 0 1 0 I I #
straight-curve $-1 51.263771477401043 -25.34918169176408 0 0 0 -1 I I #
coedge $-1 $527 $371 $531 $722 reversed $361 $-1 #
coedge $-1 $371 $527 $373 $545 reversed $361 $-1 #
vertex $-1 $722 $729 #
straight-curve $-1 -51.263771477401043 -25.34918169176408 0 0 0 -1 I I #
edge $-1 $375 -25.34918169176408 $730 25.34918169176408 $542 $731 forward 7 unknown #
point $-1 51.263771477401043 -25.34918169176408 -8.5615667856252919 #
point $-1 -51.263771477401043 -25.34918169176408 -8.5615667856252919 #
face $-1 $-1 $561 $55 $-1 $732 reversed single #
plane-surface $-1 -48.035266227712533 -29.675063092548129 0 -1 0 0 0 0 1 forward_v I I I I #
coedge $-1 $733 $734 $735 $736 forward $378 $-1 #
coedge $-1 $735 $380 $560 $737 reversed $235 $-1 #
coedge $-1 $380 $735 $381 $555 reversed $235 $-1 #
edge $-1 $557 -8.5615667856252919 $562 8.5615667856252919 $380 $738 forward 7 unknown #
coedge $-1 $382 $381 $734 $739 forward $149 $-1 #
edge $-1 $557 25.34918169176408 $740 34.000944493332177 $552 $741 forward 7 unknown #
edge $-1 $742 -4.3258814007840485 $390 4.3258814007840485 $387 $743 forward 7 unknown #
vertex $-1 $555 $744 #
straight-curve $-1 0 -25.34918169176408 8.5615667856252919 -1 0 0 I I #
coedge $-1 $745 $385 $388 $565 forward $561 $-1 #
coedge $-1 $385 $745 $551 $737 forward $561 $-1 #
loop $-1 $-1 $385 $548 #
vertex $-1 $553 $746 #
straight-curve $-1 0 -25.34918169176408 -8.5615667856252919 1 0 0 I I #
coedge $-1 $388 $387 $747 $748 forward $389 $-1 #
edge $-1 $391 -4.3258814007840485 $749 4.3258814007840485 $388 $750 forward 7 unknown #
point $-1 -48.035266227712533 -25.34918169176408 8.5615667856252919 #
point $-1 -48.035266227712533 -25.34918169176408 -8.5615667856252919 #
plane-surface $-1 0 0 8.5615667856252919 0 0 1 1 0 0 forward_v I I I I #
coedge $-1 $579 $578 $571 $751 forward $394 $-1 #
coedge $-1 $571 $396 $398 $575 reversed $243 $-1 #
coedge $-1 $396 $570 $569 $751 reversed $243 $-1 #
coedge $-1 $404 $399 $396 $573 forward $405 $-1 #
edge $-1 $576 -18.294076834312413 $752 -14.207547658237083 $572 $753 forward 7 unknown #
coedge $-1 $398 $397 $579 $754 reversed $153 $-1 #
edge $-1 $755 -1.1374033043381581e-014 $576 6.4935592435144933 $570 $756 forward 7 unknown #
vertex $-1 $400 $757 #
straight-curve $-1 -47.177242301325705 -6.7721110446127089 8.5615667856252919 0 1 0 I I #
coedge $-1 $569 $401 $404 $583 reversed $394 $-1 #
coedge $-1 $401 $569 $574 $754 forward $394 $-1 #
vertex $-1 $402 $758 #
straight-curve $-1 -51.263771477401043 -16.697418890195983 34.018897884131754 0 0 1 I I #
straight-curve $-1 -51.263771477401036 -16.697418890195983 3.5151233903103645 -0.62932038083071107 0 -0.77714596973225614 I I #
edge $-1 $752 10.391025288254852 $406 16.697418890195983 $578 $759 forward 7 unknown #
point $-1 -51.263771477401043 -16.697418890195983 8.5615667856252919 #
point $-1 -47.177242301325713 -16.697418890195983 8.5615667856252919 #
edge $-1 $760 1 $760 0 $409 $-1 forward 7 unknown #
vertex $-1 $410 $761 #
ellipse-curve $-1 -45.990774854869542 -13.544222089225418 3.4229597252552559 -0.77714596973225614 0 0.62932038083071107 0.9439805712460666 0 1.1657189545983841 1 I I #
point $-1 -48.276526318117313 -13.544222089225418 7.2040640425662144 #
loop $-1 $-1 $421 $413 #
plane-surface $-1 -51.263771477401043 0 0 1 0 0 0 0 -1 forward_v I I I I #
coedge $-1 $593 $416 $418 $597 reversed $258 $-1 #
coedge $-1 $416 $592 $762 $763 reversed $258 $-1 #
coedge $-1 $424 $419 $416 $595 forward $414 $-1 #
edge $-1 $598 -18.294076834312413 $764 -14.207547658237083 $594 $765 forward 7 unknown #
coedge $-1 $418 $417 $601 $766 reversed $162 $-1 #
edge $-1 $767 -1.1374033043381581e-014 $598 6.4935592435144933 $592 $768 forward 7 unknown #
vertex $-1 $420 $769 #
straight-curve $-1 -47.177242301325705 -0.81540988127622072 8.5615667856252919 0 1 0 I I #
coedge $-1 $762 $421 $424 $605 reversed $590 $-1 #
coedge $-1 $421 $762 $596 $766 forward $590 $-1 #
vertex $-1 $422 $770 #
straight-curve $-1 -51.263771477401043 -4.7840165635230081 34.018897884131754 0 0 1 I I #
straight-curve $-1 -51.263771477401036 -4.7840165635230081 3.5151233903103645 -0.62932038083071107 0 -0.77714596973225614 I I #
edge $-1 $764 -1.5223770384181252 $425 4.7840165635230081 $600 $771 forward 7 unknown #
point $-1 -51.263771477401043 -4.7840165635230081 8.5615667856252919 #
point $-1 -47.177242301325713 -4.7840165635230081 8.5615667856252919 #
edge $-1 $772 1 $772 0 $428 $-1 forward 7 unknown #
vertex $-1 $429 $773 #
ellipse-curve $-1 -45.990774854869542 -1.6308197625524414 3.4229597252552559 -0.77714596973225614 0 0.62932038083071107 0.9439805712460666 0 1.1657189545983841 1 I I #
point $-1 -48.276526318117313 -1.6308197625524414 7.2040640425662144 #
loop $-1 $-1 $440 $432 #
plane-surface $-1 -51.263771477401043 0 0 1 0 0 0 0 -1 forward_v I I I I #
coedge $-1 $615 $435 $437 $619 reversed $273 $-1 #
coedge $-1 $435 $614 $774 $775 reversed $273 $-1 #
coedge $-1 $443 $438 $435 $617 forward $433 $-1 #
edge $-1 $620 -18.294076834312413 $776 -14.207547658237083 $616 $777 forward 7 unknown #
coedge $-1 $437 $436 $623 $778 reversed $171 $-1 #
edge $-1 $779 -1.1374033043381581e-014 $620 6.4935592435144933 $614 $780 forward 7 unknown #
vertex $-1 $439 $781 #
straight-curve $-1 -47.177242301325705 5.1412912820602692 8.5615667856252919 0 1 0 I I #
coedge $-1 $774 $440 $443 $627 reversed $612 $-1 #
coedge $-1 $440 $774 $618 $778 forward $612 $-1 #
vertex $-1 $441 $782 #
straight-curve $-1 -51.263771477401043 7.1293857631499717 34.018897884131754 0 0 1 I I #
straight-curve $-1 -51.263771477401036 7.1293857631499717 3.5151233903103645 -0.62932038083071107 0 -0.77714596973225614 I I #
edge $-1 $776 -13.435779365091104 $444 -7.1293857631499717 $622 $783 forward 7 unknown #
point $-1 -51.263771477401043 7.1293857631499717 8.5615667856252919 #
point $-1 -47.177242301325713 7.1293857631499717 8.5615667856252919 #
edge $-1 $784 1 $784 0 $447 $-1 forward 7 unknown #
vertex $-1 $448 $785 #
ellipse-curve $-1 -45.990774854869542 10.282582564120538 3.4229597252552559 -0.77714596973225614 0 0.62932038083071107 0.9439805712460666 0 1.1657189545983841 1 I I #
point $-1 -48.276526318117313 10.282582564120538 7.2040640425662144 #
loop $-1 $-1 $458 $451 #
plane-surface $-1 -51.263771477401043 0 0 1 0 0 0 0 -1 forward_v I I I I #
coedge $-1 $786 $787 $455 $638 forward $452 $-1 #
coedge $-1 $455 $454 $643 $788 reversed $180 $-1 #
edge $-1 $640 8.2712268630281471 $789 14.764786106542651 $636 $790 forward 7 unknown #
coedge $-1 $461 $456 $787 $791 forward $288 $-1 #
vertex $-1 $791 $792 #
straight-curve $-1 -47.177242301325705 11.097992445396759 8.5615667856252919 0 1 0 I I #
coedge $-1 $793 $458 $461 $647 reversed $634 $-1 #
coedge $-1 $458 $793 $637 $788 forward $634 $-1 #
vertex $-1 $459 $794 #
straight-curve $-1 -51.263771477401043 19.042788089822952 34.018897884131754 0 0 1 I I #
straight-curve $-1 -51.263771477401036 19.042788089822952 3.5151233903103645 -0.62932038083071107 0 -0.77714596973225614 I I #
edge $-1 $795 -25.34918169176408 $462 -19.042788089822952 $642 $796 forward 7 unknown #
point $-1 -51.263771477401043 19.042788089822952 8.5615667856252919 #
point $-1 -47.177242301325713 19.042788089822952 8.5615667856252919 #
edge $-1 $797 1 $797 0 $465 $-1 forward 7 unknown #
vertex $-1 $466 $798 #
ellipse-curve $-1 -45.990774854869542 22.195984890793518 3.4229597252552559 -0.77714596973225614 0 0.62932038083071107 0.9439805712460666 0 1.1657189545983841 1 I I #
point $-1 -48.276526318117313 22.195984890793518 7.2040640425662144 #
loop $-1 $-1 $477 $469 #
plane-surface $-1 51.263771477401043 0 0 -1 0 0 0 0 1 forward_v I I I I #
coedge $-1 $657 $472 $474 $661 reversed $303 $-1 #
coedge $-1 $472 $656 $799 $800 reversed $303 $-1 #
coedge $-1 $480 $475 $472 $659 forward $470 $-1 #
edge $-1 $662 35.685832535514109 $801 40.705050446622693 $658 $802 forward 7 unknown #
coedge $-1 $474 $473 $665 $803 reversed $189 $-1 #
edge $-1 $804 -102.5275429548021 $662 -96.542811725782798 $656 $805 forward 7 unknown #
vertex $-1 $476 $806 #
straight-curve $-1 46.244553566292453 -1.0202463841479101 8.5615667856252884 0 -1 0 I I #
coedge $-1 $799 $477 $480 $669 reversed $654 $-1 #
coedge $-1 $477 $799 $660 $803 forward $654 $-1 #
vertex $-1 $478 $807 #
straight-curve $-1 51.263771477401043 0.99840432835937953 73.564691747670395 0 0 1 I I #
straight-curve $-1 -34.723060727430656 0.99840432835937953 61.14255129050909 0.83867056331134215 0 -0.54463904215088732 I I #
edge $-1 $801 -5.0793898649510201 $481 0.99840432835937953 $664 $808 forward 7 unknown #
point $-1 51.263771477401043 0.99840432835937953 8.5615667856252919 #
point $-1 46.24455356629246 0.99840432835937953 8.5615667856252884 #
edge $-1 $809 1 $809 0 $484 $-1 forward 7 unknown #
vertex $-1 $485 $810 #
ellipse-curve $-1 48.209523479695868 -3.8638310262889419 6.0931370802621752 0.54463904215088732 0 0.83867056331134215 0.41933528165567108 0 -0.27231952107544366 1 I I #
point $-1 49.173497803502428 -3.8638310262889419 6.6594881224980735 #
edge $-1 $811 1 $811 0 $488 $-1 forward 7 unknown #
vertex $-1 $489 $812 #
ellipse-curve $-1 48.209523479695868 -2.0404927682958203 6.0931370802621752 0.54463904215088732 0 0.83867056331134215 0.41933528165567108 0 -0.27231952107544366 1 I I #
point $-1 49.173497803502428 -2.0404927682958203 6.6594881224980735 #
edge $-1 $813 1 $813 0 $492 $-1 forward 7 unknown #
vertex $-1 $493 $814 #
ellipse-curve $-1 48.209523479695868 -0.21715451030269861 6.0931370802621752 0.54463904215088732 0 0.83867056331134215 0.41933528165567108 0 -0.27231952107544366 1 I I #
point $-1 49.173497803502428 -0.21715451030269861 6.6594881224980735 #
plane-surface $-1 0 0 8.5615667856252919 0 0 1 1 0 0 forward_v I I I I #
coedge $-1 $695 $694 $687 $815 forward $497 $-1 #
coedge $-1 $687 $499 $501 $691 reversed $332 $-1 #
coedge $-1 $499 $686 $685 $815 reversed $332 $-1 #
coedge $-1 $507 $502 $499 $689 forward $508 $-1 #
edge $-1 $692 35.685832535514109 $816 40.705050446622693 $688 $817 forward 7 unknown #
coedge $-1 $501 $500 $695 $818 reversed $208 $-1 #
edge $-1 $819 -102.5275429548021 $692 -96.542811725782798 $686 $820 forward 7 unknown #
vertex $-1 $503 $821 #
straight-curve $-1 46.244553566292453 5.3461277849319622 8.5615667856252884 0 -1 0 I I #
coedge $-1 $685 $504 $507 $699 reversed $497 $-1 #
coedge $-1 $504 $685 $690 $818 forward $497 $-1 #
vertex $-1 $505 $822 #
straight-curve $-1 51.263771477401043 13.731152666519124 73.564691747670395 0 0 1 I I #
straight-curve $-1 -34.723060727430656 13.731152666519124 61.14255129050909 0.83867056331134215 0 -0.54463904215088732 I I #
edge $-1 $816 7.6533584732087245 $509 13.731152666519124 $694 $823 forward 7 unknown #
point $-1 51.263771477401043 13.731152666519124 8.5615667856252919 #
point $-1 46.24455356629246 13.731152666519124 8.5615667856252884 #
edge $-1 $824 1 $824 0 $512 $-1 forward 7 unknown #
vertex $-1 $513 $825 #
ellipse-curve $-1 48.209523479695868 8.8689173118707956 6.0931370802621752 0.54463904215088732 0 0.83867056331134215 0.41933528165567108 0 -0.27231952107544366 1 I I #
point $-1 49.173497803502428 8.8689173118707956 6.6594881224980735 #
edge $-1 $826 1 $826 0 $516 $-1 forward 7 unknown #
vertex $-1 $517 $827 #
ellipse-curve $-1 48.209523479695868 10.692255569863924 6.0931370802621752 0.54463904215088732 0 0.83867056331134215 0.41933528165567108 0 -0.27231952107544366 1 I I #
point $-1 49.173497803502428 10.692255569863924 6.6594881224980735 #
edge $-1 $828 1 $828 0 $520 $-1 forward 7 unknown #
vertex $-1 $521 $829 #
ellipse-curve $-1 48.209523479695868 12.515593827857039 6.0931370802621752 0.54463904215088732 0 0.83867056331134215 0.41933528165567108 0 -0.27231952107544366 1 I I #
point $-1 49.173497803502428 12.515593827857039 6.6594881224980735 #
plane-surface $-1 51.263771477401043 0 0 -1 0 0 0 0 1 forward_v I I I I #
coedge $-1 $718 $532 $535 $726 forward $525 $-1 #
coedge $-1 $532 $718 $527 $717 reversed $525 $-1 #
edge $-1 $723 -8.5615667856252919 $730 8.5615667856252919 $716 $830 forward 7 unknown #
coedge $-1 $716 $715 $528 $719 reversed $525 $-1 #
edge $-1 $730 -51.263771477401043 $720 51.263771477401043 $718 $831 forward 7 unknown #
vertex $-1 $530 $832 #
straight-curve $-1 51.263771477401043 0 -8.5615667856252919 0 -1 0 I I #
edge $-1 $723 -25.34918169176408 $543 25.34918169176408 $541 $833 forward 7 unknown #
vertex $-1 $533 $834 #
straight-curve $-1 0 25.34918169176408 8.5615667856252919 -1 0 0 I I #
straight-curve $-1 0 -25.34918169176408 8.5615667856252919 1 0 0 I I #
edge $-1 $538 -8.5615667856252919 $720 8.5615667856252919 $535 $835 forward 7 unknown #
point $-1 51.263771477401043 -25.34918169176408 8.5615667856252919 #
point $-1 51.263771477401043 25.34918169176408 8.5615667856252919 #
point $-1 -51.263771477401043 -25.34918169176408 8.5615667856252919 #
vertex $-1 $719 $836 #
straight-curve $-1 -51.263771477401043 0 -8.5615667856252919 0 1 0 I I #
plane-surface $-1 0 0 -8.5615667856252919 0 0 1 1 0 0 forward_v I I I I #
coedge $-1 $747 $550 $745 $837 reversed $378 $-1 #
coedge $-1 $550 $747 $554 $739 reversed $378 $-1 #
coedge $-1 $552 $551 $550 $736 reversed $235 $-1 #
edge $-1 $740 -8.5615667856252919 $838 8.5615667856252919 $735 $839 forward 7 unknown #
edge $-1 $838 -34.000944493332177 $562 -25.34918169176408 $551 $840 forward 7 unknown #
straight-curve $-1 -51.263771477401043 -25.34918169176408 0 0 0 -1 I I #
edge $-1 $740 -1.614252624844255 $742 1.614252624844255 $734 $841 forward 7 unknown #
vertex $-1 $555 $842 #
straight-curve $-1 -51.263771477401043 0 8.5615667856252919 0 -1 0 I I #
vertex $-1 $556 $843 #
straight-curve $-1 -48.035266227712533 -29.675063092548129 8.5615667856252919 0 1 0 I I #
point $-1 -51.263771477401043 -25.34918169176408 8.5615667856252919 #
coedge $-1 $560 $559 $733 $837 forward $561 $-1 #
point $-1 -51.263771477401043 -25.34918169176408 -8.5615667856252919 #
coedge $-1 $734 $733 $564 $748 reversed $378 $-1 #
edge $-1 $742 -8.5615667856252919 $749 8.5615667856252919 $564 $844 forward 7 unknown #
vertex $-1 $748 $845 #
straight-curve $-1 -48.035266227712533 -29.675063092548129 -8.5615667856252919 0 -1 0 I I #
edge $-1 $752 25.457331098506462 $755 30.503774493821396 $569 $846 forward 7 unknown #
vertex $-1 $583 $847 #
straight-curve $-1 -65.471319135638126 -10.391025288254852 8.5615667856252919 -1 0 0 I I #
edge $-1 $755 3.6189142436421431 $580 9.9253078455832746 $579 $848 forward 7 unknown #
vertex $-1 $754 $849 #
straight-curve $-1 -51.263771477401036 -10.391025288254852 3.5151233903103645 0.62932038083071107 0 0.77714596973225614 I I #
point $-1 -47.177242301325713 -10.391025288254852 8.5615667856252919 #
point $-1 -51.263771477401043 -16.697418890195983 3.5151233903103556 #
straight-curve $-1 -51.263771477401043 0 8.5615667856252919 0 -1 0 I I #
vertex $-1 $586 $850 #
point $-1 -45.04679428362347 -13.544222089225418 4.5886786798536399 #
coedge $-1 $601 $600 $593 $763 forward $590 $-1 #
edge $-1 $764 25.457331098506462 $767 30.503774493821396 $762 $851 forward 7 unknown #
vertex $-1 $605 $852 #
straight-curve $-1 -65.471319135638126 1.5223770384181252 8.5615667856252919 -1 0 0 I I #
edge $-1 $767 -2.3377869196943459 $602 3.9686066822467874 $601 $853 forward 7 unknown #
vertex $-1 $766 $854 #
straight-curve $-1 -51.263771477401036 1.5223770384181252 3.5151233903103645 0.62932038083071107 0 0.77714596973225614 I I #
point $-1 -47.177242301325713 1.5223770384181252 8.5615667856252919 #
point $-1 -51.263771477401043 -4.7840165635230081 3.5151233903103556 #
straight-curve $-1 -51.263771477401043 0 8.5615667856252919 0 -1 0 I I #
vertex $-1 $608 $855 #
point $-1 -45.04679428362347 -1.6308197625524414 4.5886786798536399 #
coedge $-1 $623 $622 $615 $775 forward $612 $-1 #
edge $-1 $776 25.457331098506462 $779 30.503774493821396 $774 $856 forward 7 unknown #
vertex $-1 $627 $857 #
straight-curve $-1 -65.471319135638126 13.435779365091104 8.5615667856252919 -1 0 0 I I #
edge $-1 $779 -8.294488083030835 $624 -1.9880944810897025 $623 $858 forward 7 unknown #
vertex $-1 $778 $859 #
straight-curve $-1 -51.263771477401036 13.435779365091104 3.5151233903103645 0.62932038083071107 0 0.77714596973225614 I I #
point $-1 -47.177242301325713 13.435779365091104 8.5615667856252919 #
point $-1 -51.263771477401043 7.1293857631499717 3.5151233903103556 #
straight-curve $-1 -51.263771477401043 0 8.5615667856252919 0 -1 0 I I #
vertex $-1 $630 $860 #
point $-1 -45.04679428362347 10.282582564120538 4.5886786798536399 #
coedge $-1 $787 $636 $793 $861 reversed $452 $-1 #
coedge $-1 $636 $786 $639 $791 reversed $452 $-1 #
edge $-1 $789 -14.251189246367325 $644 -7.9447956444261933 $643 $862 forward 7 unknown #
vertex $-1 $638 $863 #
straight-curve $-1 -41.971990661947629 25.34918169176408 14.989517406968787 -0.62932038083071107 0 -0.77714596973225614 I I #
edge $-1 $640 47.177242301325713 $795 51.263771477401043 $787 $864 forward 7 unknown #
point $-1 -47.177242301325713 25.349181691764084 8.5615667856252919 #
coedge $-1 $643 $642 $786 $861 forward $634 $-1 #
point $-1 -51.263771477401043 19.042788089822952 3.5151233903103556 #
vertex $-1 $791 $865 #
straight-curve $-1 -51.263771477401043 0 8.5615667856252919 0 -1 0 I I #
vertex $-1 $650 $866 #
point $-1 -45.04679428362347 22.195984890793518 4.5886786798536399 #
coedge $-1 $665 $664 $657 $800 forward $654 $-1 #
edge $-1 $801 65.003124962045106 $804 68.26264324614867 $799 $867 forward 7 unknown #
vertex $-1 $669 $868 #
straight-curve $-1 10.558721030778354 -5.0793898649510201 8.5615667856252884 1 0 0 I I #
edge $-1 $804 -4.0591434808031099 $666 2.0186507125072897 $665 $869 forward 7 unknown #
vertex $-1 $803 $870 #
straight-curve $-1 -34.723060727430656 -5.0793898649510201 61.14255129050909 -0.83867056331134215 0 0.54463904215088732 I I #
point $-1 46.24455356629246 -5.0793898649510201 8.5615667856252884 #
point $-1 51.263771477401043 0.99840432835937953 5.3020485015217247 #
straight-curve $-1 51.263771477401043 0 8.5615667856252919 0 1 0 I I #
vertex $-1 $672 $871 #
point $-1 48.628858761351538 -3.8638310262889419 5.8208175591867315 #
vertex $-1 $676 $872 #
point $-1 48.628858761351538 -2.0404927682958203 5.8208175591867315 #
vertex $-1 $680 $873 #
point $-1 48.628858761351538 -0.21715451030269861 5.8208175591867315 #
edge $-1 $816 65.003124962045106 $819 68.26264324614867 $685 $874 forward 7 unknown #
vertex $-1 $699 $875 #
straight-curve $-1 10.558721030778354 7.6533584732087245 8.5615667856252884 1 0 0 I I #
edge $-1 $819 2.3072306882767624 $696 8.385024881587162 $695 $876 forward 7 unknown #
vertex $-1 $818 $877 #
straight-curve $-1 -34.723060727430656 7.6533584732087245 61.14255129050909 -0.83867056331134215 0 0.54463904215088732 I I #
point $-1 46.24455356629246 7.6533584732087245 8.5615667856252884 #
point $-1 51.263771477401043 13.731152666519124 5.3020485015217247 #
straight-curve $-1 51.263771477401043 0 8.5615667856252919 0 1 0 I I #
vertex $-1 $702 $878 #
point $-1 48.628858761351538 8.8689173118707956 5.8208175591867315 #
vertex $-1 $706 $879 #
point $-1 48.628858761351538 10.692255569863924 5.8208175591867315 #
vertex $-1 $710 $880 #
point $-1 48.628858761351538 12.515593827857039 5.8208175591867315 #
straight-curve $-1 -51.263771477401043 25.34918169176408 0 0 0 -1 I I #
straight-curve $-1 0 25.34918169176408 -8.5615667856252919 1 0 0 I I #
point $-1 51.263771477401043 25.34918169176408 -8.5615667856252919 #
straight-curve $-1 -51.263771477401043 0 8.5615667856252919 0 -1 0 I I #
point $-1 -51.263771477401043 25.34918169176408 8.5615667856252919 #
straight-curve $-1 51.263771477401043 25.34918169176408 0 0 0 -1 I I #
point $-1 -51.263771477401043 25.34918169176408 -8.5615667856252919 #
edge $-1 $749 -1.614252624844255 $838 1.614252624844255 $733 $881 forward 7 unknown #
vertex $-1 $737 $882 #
straight-curve $-1 -51.263771477401043 -34.000944493332177 0 0 0 -1 I I #
straight-curve $-1 -51.263771477401043 0 -8.5615667856252919 0 1 0 I I #
straight-curve $-1 -49.649518852556788 -34.000944493332177 8.5615667856252919 1 0 0 I I #
point $-1 -51.263771477401043 -34.000944493332177 8.5615667856252919 #
point $-1 -48.035266227712533 -34.000944493332177 8.5615667856252919 #
straight-curve $-1 -48.035266227712533 -34.000944493332177 0 0 0 -1 I I #
point $-1 -48.035266227712533 -34.000944493332177 -8.5615667856252919 #
straight-curve $-1 -51.263771477401043 -10.391025288254852 34.018897884131754 0 0 -1 I I #
point $-1 -51.263771477401043 -10.391025288254852 8.5615667856252919 #
straight-curve $-1 -51.263771477401043 -6.7721110446127089 3.5151233903103507 0 -1 0 I I #
point $-1 -51.263771477401043 -10.391025288254852 3.5151233903103556 #
point $-1 -44.825055900271153 -13.544222089225418 2.4789791540091897 #
straight-curve $-1 -51.263771477401043 1.5223770384181252 34.018897884131754 0 0 -1 I I #
point $-1 -51.263771477401043 1.5223770384181252 8.5615667856252919 #
straight-curve $-1 -51.263771477401043 -0.81540988127622072 3.5151233903103507 0 -1 0 I I #
point $-1 -51.263771477401043 1.5223770384181252 3.5151233903103556 #
point $-1 -44.825055900271153 -1.6308197625524414 2.4789791540091897 #
straight-curve $-1 -51.263771477401043 13.435779365091104 34.018897884131754 0 0 -1 I I #
point $-1 -51.263771477401043 13.435779365091104 8.5615667856252919 #
straight-curve $-1 -51.263771477401043 5.1412912820602692 3.5151233903103507 0 -1 0 I I #
point $-1 -51.263771477401043 13.435779365091104 3.5151233903103556 #
point $-1 -44.825055900271153 10.282582564120538 2.4789791540091897 #
edge $-1 $795 -8.5615667856252919 $789 -3.5151233903103556 $786 $883 forward 7 unknown #
straight-curve $-1 -51.263771477401043 11.097992445396759 3.5151233903103507 0 -1 0 I I #
point $-1 -51.263771477401043 25.349181691764084 3.5151233903103556 #
straight-curve $-1 0 25.34918169176408 8.5615667856252919 -1 0 0 I I #
point $-1 -51.263771477401043 25.34918169176408 8.5615667856252919 #
point $-1 -44.825055900271153 22.195984890793518 2.4789791540091897 #
straight-curve $-1 51.263771477401043 -5.0793898649510201 73.564691747670395 0 0 -1 I I #
point $-1 51.263771477401043 -5.0793898649510201 8.5615667856252919 #
straight-curve $-1 51.263771477401043 -1.0202463841479101 5.3020485015217211 0 1 0 I I #
point $-1 51.263771477401043 -5.0793898649510201 5.3020485015217247 #
point $-1 47.937203958620422 -3.8638310262889419 5.6738017986065037 #
point $-1 47.937203958620422 -2.0404927682958203 5.6738017986065037 #
point $-1 47.937203958620422 -0.21715451030269861 5.6738017986065037 #
straight-curve $-1 51.263771477401043 7.6533584732087245 73.564691747670395 0 0 -1 I I #
point $-1 51.263771477401043 7.6533584732087245 8.5615667856252919 #
straight-curve $-1 51.263771477401043 5.3461277849319622 5.3020485015217211 0 1 0 I I #
point $-1 51.263771477401043 7.6533584732087245 5.3020485015217247 #
point $-1 47.937203958620422 8.8689173118707956 5.6738017986065037 #
point $-1 47.937203958620422 10.692255569863924 5.6738017986065037 #
point $-1 47.937203958620422 12.515593827857039 5.6738017986065037 #
straight-curve $-1 -49.649518852556788 -34.000944493332177 -8.5615667856252919 -1 0 0 I I #
point $-1 -51.263771477401043 -34.000944493332177 -8.5615667856252919 #
straight-curve $-1 -51.263771477401043 25.34918169176408 0 0 0 -1 I I #
End-of-ACIS-data 