500 0 4 0           
7 Unknown 11 ACIS 5.0 NT 24 Thu Mar 25 15:33:48 1999 
-1 9.9999999999999995e-007 1e-010 
body $-1 $4 $-1 $5 #
body $-1 $6 $-1 $7 #
body $-1 $8 $-1 $9 #
body $-1 $10 $-1 $11 #
lump $-1 $-1 $12 $0 #
transform $-1 1 0 0 0 1 0 0 0 1 67.694936979277927 46.866456628996104 21.595013950669024 1 rotate no_reflect no_shear #
lump $-1 $-1 $13 $1 #
transform $-1 1 0 0 0 1 0 0 0 1 67.694936979277927 46.866456628996104 21.595013950669024 1 rotate no_reflect no_shear #
lump $-1 $-1 $14 $2 #
transform $-1 1 0 0 0 1 0 0 0 1 67.694936979277927 46.866456628996104 21.595013950669024 1 rotate no_reflect no_shear #
lump $-1 $-1 $15 $3 #
transform $-1 1 0 0 0 1 0 0 0 1 67.694936979277927 46.866456628996104 21.595013950669024 1 rotate no_reflect no_shear #
shell $-1 $-1 $-1 $16 $-1 $4 #
shell $-1 $-1 $-1 $17 $-1 $6 #
shell $-1 $-1 $-1 $18 $-1 $8 #
shell $-1 $-1 $-1 $19 $-1 $10 #
face $-1 $20 $21 $12 $-1 $22 forward single #
face $-1 $23 $24 $13 $-1 $25 reversed single #
face $-1 $26 $27 $14 $-1 $28 forward single #
face $-1 $29 $30 $15 $-1 $31 forward single #
face $-1 $32 $33 $12 $-1 $34 reversed single #
loop $-1 $-1 $35 $16 #
plane-surface $-1 0 0 21.595013950669024 0 0 1 1 0 0 forward_v I I I I #
face $-1 $36 $37 $13 $-1 $38 reversed single #
loop $-1 $-1 $39 $17 #
plane-surface $-1 -42.438760742667938 93.096118850554262 161.82045035362083 1 0 0 0 -0.77714596973225614 -0.62932038083071107 forward_v I I I I #
face $-1 $40 $41 $14 $-1 $42 forward single #
loop $-1 $43 $44 $18 #
cone-surface $-1 -32.797864146505887 37.468587275314107 10.91710296732346 0 -0.77714596973225614 -0.62932038083071107 1.5 0 0 1 I I 0 1 1.5 forward I I I I #
face $-1 $45 $46 $15 $-1 $47 forward single #
loop $-1 $48 $49 $19 #
cone-surface $-1 -18.336519252262818 37.468587275314107 10.91710296732346 0 -0.77714596973225614 -0.62932038083071107 1.5 0 0 1 I I 0 1 1.5 forward I I I I #
face $-1 $50 $51 $12 $-1 $52 reversed single #
loop $-1 $-1 $53 $20 #
plane-surface $-1 0 0 -21.595013950669024 0 0 1 1 0 0 forward_v I I I I #
coedge $-1 $54 $55 $56 $57 forward $21 $-1 #
face $-1 $58 $59 $13 $-1 $60 reversed single #
loop $-1 $-1 $61 $23 #
plane-surface $-1 -25.567191699384352 -12.121576038895554 76.616843313400494 0 0.77714596973225614 0.62932038083071107 1 0 0 forward_v I I I I #
coedge $-1 $62 $63 $64 $65 reversed $24 $-1 #
face $-1 $-1 $66 $14 $-1 $67 forward single #
loop $-1 $68 $69 $26 #
cone-surface $-1 -32.797864146505887 34.703975929696853 8.6783649018450255 0 -0.77714596973225614 -0.62932038083071107 0.75 0 0 1 I I -0.70710678118654757 0.70710678118654757 0.75 forward I I I I #
loop $-1 $-1 $70 $18 #
coedge $-1 $44 $44 $71 $72 reversed $27 $-1 #
face $-1 $-1 $73 $15 $-1 $74 forward single #
loop $-1 $75 $76 $29 #
cone-surface $-1 -18.336519252262818 34.703975929696853 8.6783649018450255 0 -0.77714596973225614 -0.62932038083071107 0.75 0 0 1 I I -0.70710678118654757 0.70710678118654757 0.75 forward I I I I #
loop $-1 $-1 $77 $19 #
coedge $-1 $49 $49 $78 $79 reversed $30 $-1 #
face $-1 $80 $81 $12 $-1 $82 reversed single #
loop $-1 $-1 $83 $32 #
plane-surface $-1 0 -46.866456628996104 0 0 1 0 0 0 1 forward_v I I I I #
coedge $-1 $84 $85 $86 $87 forward $33 $-1 #
coedge $-1 $88 $35 $89 $90 forward $21 $-1 #
coedge $-1 $35 $88 $91 $92 forward $21 $-1 #
coedge $-1 $93 $94 $35 $57 reversed $95 $-1 #
edge $-1 $96 -46.866456628996104 $97 46.866456628996104 $56 $98 forward 7 unknown #
face $-1 $99 $100 $13 $-1 $101 reversed single #
loop $-1 $-1 $102 $36 #
plane-surface $-1 -8.6956226561007703 93.096118850554262 161.82045035362083 -1 0 0 0 0.77714596973225614 0.62932038083071107 forward_v I I I I #
coedge $-1 $103 $104 $105 $106 reversed $37 $-1 #
coedge $-1 $63 $39 $107 $108 reversed $24 $-1 #
coedge $-1 $39 $62 $103 $109 reversed $24 $-1 #
coedge $-1 $105 $110 $39 $65 forward $111 $-1 #
edge $-1 $112 -0.31839720371897329 $113 14.113837767008903 $64 $114 forward 7 unknown #
loop $-1 $-1 $71 $40 #
plane-surface $-1 -25.567191699384352 -12.121576038895554 76.616843313400494 0 0.77714596973225614 0.62932038083071107 1 0 0 forward_v I I I I #
loop $-1 $-1 $115 $26 #
coedge $-1 $69 $69 $70 $116 reversed $41 $-1 #
coedge $-1 $70 $70 $69 $116 forward $43 $-1 #
coedge $-1 $71 $71 $44 $72 forward $66 $-1 #
edge $-1 $117 -9.2032570569748882e-016 $117 6.2831853071795996 $71 $118 forward 7 unknown #
loop $-1 $-1 $78 $45 #
plane-surface $-1 -25.567191699384352 -12.121576038895554 76.616843313400494 0 0.77714596973225614 0.62932038083071107 1 0 0 forward_v I I I I #
loop $-1 $-1 $119 $29 #
coedge $-1 $76 $76 $77 $120 reversed $46 $-1 #
coedge $-1 $77 $77 $76 $120 forward $48 $-1 #
coedge $-1 $78 $78 $49 $79 forward $73 $-1 #
edge $-1 $121 -9.2032570569748882e-016 $121 6.2831853071795996 $78 $122 forward 7 unknown #
face $-1 $123 $124 $12 $-1 $125 reversed single #
loop $-1 $-1 $126 $50 #
plane-surface $-1 -67.694936979277927 0 0 1 0 0 0 0 -1 forward_v I I I I #
coedge $-1 $127 $91 $128 $129 forward $51 $-1 #
coedge $-1 $130 $53 $127 $131 forward $33 $-1 #
coedge $-1 $53 $130 $132 $133 forward $33 $-1 #
coedge $-1 $94 $93 $53 $87 reversed $95 $-1 #
edge $-1 $134 -46.866456628996104 $135 46.866456628996104 $86 $136 forward 7 unknown #
coedge $-1 $55 $54 $137 $138 forward $21 $-1 #
coedge $-1 $139 $140 $54 $90 reversed $124 $-1 #
edge $-1 $97 -67.694936979277927 $141 67.694936979277927 $89 $142 forward 7 unknown #
coedge $-1 $83 $143 $55 $92 reversed $51 $-1 #
edge $-1 $144 -67.694936979277927 $96 67.694936979277927 $91 $145 forward 7 unknown #
coedge $-1 $86 $56 $143 $146 forward $95 $-1 #
coedge $-1 $56 $86 $139 $147 reversed $95 $-1 #
loop $-1 $-1 $93 $123 #
vertex $-1 $57 $148 #
vertex $-1 $57 $149 #
straight-curve $-1 67.694936979277927 0 21.595013950669024 0 1 0 I I #
face $-1 $-1 $111 $13 $-1 $150 forward single #
loop $-1 $-1 $151 $58 #
plane-surface $-1 0 46.866456628996104 0 0 -1 0 0 0 -1 forward_v I I I I #
coedge $-1 $152 $153 $154 $155 reversed $59 $-1 #
coedge $-1 $156 $61 $63 $109 forward $37 $-1 #
coedge $-1 $61 $156 $152 $157 forward $37 $-1 #
coedge $-1 $154 $64 $61 $106 forward $111 $-1 #
edge $-1 $113 -29.655164892975762 $158 4.0879731935914059 $105 $159 forward 7 unknown #
coedge $-1 $160 $161 $62 $108 forward $100 $-1 #
edge $-1 $162 -77.13753763312171 $112 -59.315211226141386 $107 $163 forward 7 unknown #
edge $-1 $113 70.799864511537905 $162 93.73291325799218 $63 $164 forward 7 unknown #
coedge $-1 $64 $154 $160 $165 forward $111 $-1 #
loop $-1 $-1 $154 $99 #
vertex $-1 $108 $166 #
vertex $-1 $65 $167 #
straight-curve $-1 -42.438760742667938 46.548059425277131 21.595013950669028 0 -1 0 I I #
coedge $-1 $115 $115 $-1 $168 reversed $68 $-1 #
edge $-1 $169 0 $169 6.2831853071796004 $69 $170 forward 7 unknown #
vertex $-1 $72 $171 #
ellipse-curve $-1 -32.797864146505887 39.650339143632166 12.683850747178859 0 0.77714596973225614 0.62932038083071107 1.5 0 0 1 I I #
coedge $-1 $119 $119 $-1 $172 reversed $75 $-1 #
edge $-1 $173 0 $173 6.2831853071796004 $76 $174 forward 7 unknown #
vertex $-1 $79 $175 #
ellipse-curve $-1 -18.336519252262818 39.650339143632166 12.683850747178859 0 0.77714596973225614 0.62932038083071107 1.5 0 0 1 I I #
face $-1 $-1 $95 $12 $-1 $176 reversed single #
loop $-1 $-1 $139 $80 #
plane-surface $-1 0 46.866456628996104 0 0 -1 0 0 0 -1 forward_v I I I I #
coedge $-1 $177 $137 $140 $178 forward $81 $-1 #
coedge $-1 $143 $83 $84 $131 reversed $51 $-1 #
coedge $-1 $137 $177 $83 $129 reversed $81 $-1 #
edge $-1 $144 -21.595013950669024 $179 21.595013950669024 $128 $180 forward 7 unknown #
coedge $-1 $85 $84 $177 $181 forward $33 $-1 #
edge $-1 $135 -67.694936979277927 $179 67.694936979277927 $127 $182 forward 7 unknown #
coedge $-1 $140 $139 $85 $133 reversed $124 $-1 #
edge $-1 $183 -67.694936979277927 $134 67.694936979277927 $132 $184 forward 7 unknown #
vertex $-1 $87 $185 #
vertex $-1 $146 $186 #
straight-curve $-1 67.694936979277927 0 -21.595013950669024 0 -1 0 I I #
coedge $-1 $126 $128 $88 $138 reversed $81 $-1 #
edge $-1 $141 -46.866456628996104 $144 46.866456628996104 $137 $187 forward 7 unknown #
coedge $-1 $132 $89 $94 $147 forward $124 $-1 #
coedge $-1 $89 $132 $126 $178 reversed $124 $-1 #
vertex $-1 $90 $188 #
straight-curve $-1 0 46.866456628996104 21.595013950669024 -1 0 0 I I #
coedge $-1 $91 $127 $93 $146 reversed $51 $-1 #
vertex $-1 $138 $189 #
straight-curve $-1 0 -46.866456628996104 21.595013950669024 1 0 0 I I #
edge $-1 $96 -21.595013950669024 $135 21.595013950669024 $93 $190 forward 7 unknown #
edge $-1 $97 -21.595013950669024 $134 21.595013950669024 $94 $191 forward 7 unknown #
point $-1 67.694936979277927 -46.866456628996104 21.595013950669024 #
point $-1 67.694936979277927 46.866456628996104 21.595013950669024 #
plane-surface $-1 0 0 21.595013950669024 0 0 1 1 0 0 forward_v I I I I #
coedge $-1 $161 $160 $153 $192 forward $100 $-1 #
coedge $-1 $153 $102 $104 $157 reversed $59 $-1 #
coedge $-1 $102 $152 $151 $192 reversed $59 $-1 #
coedge $-1 $110 $105 $102 $155 forward $111 $-1 #
edge $-1 $158 -14.113837767008903 $193 0.31839720371897329 $154 $194 forward 7 unknown #
coedge $-1 $104 $103 $161 $195 reversed $37 $-1 #
edge $-1 $196 -93.73291325799218 $158 -70.799864511537905 $152 $197 forward 7 unknown #
vertex $-1 $106 $198 #
straight-curve $-1 -12.783595849692176 32.434221658268214 21.595013950669028 1 0 0 I I #
coedge $-1 $151 $107 $110 $165 reversed $100 $-1 #
coedge $-1 $107 $151 $156 $195 forward $100 $-1 #
vertex $-1 $108 $199 #
straight-curve $-1 -42.438760742667938 46.866456628996104 80.910225176810414 0 0 1 I I #
straight-curve $-1 -42.438760742667938 -12.121576038895554 76.616843313400494 0 0.62932038083071107 -0.77714596973225614 I I #
edge $-1 $193 8.6956226561007703 $112 42.438760742667938 $160 $200 forward 7 unknown #
point $-1 -42.438760742667938 46.866456628996104 21.595013950669024 #
point $-1 -42.438760742667938 32.434221658268228 21.595013950669021 #
edge $-1 $201 1 $201 0 $115 $-1 forward 7 unknown #
vertex $-1 $116 $202 #
ellipse-curve $-1 -32.797864146505887 35.286835406996047 9.1503551874680582 0 0.77714596973225614 0.62932038083071107 1.5 0 0 1 I I #
point $-1 -31.297864146505887 39.650339143632166 12.683850747178861 #
edge $-1 $203 1 $203 0 $119 $-1 forward 7 unknown #
vertex $-1 $120 $204 #
ellipse-curve $-1 -18.336519252262818 35.286835406996047 9.1503551874680582 0 0.77714596973225614 0.62932038083071107 1.5 0 0 1 I I #
point $-1 -16.836519252262818 39.650339143632166 12.683850747178861 #
plane-surface $-1 67.694936979277927 0 0 -1 0 0 0 0 1 forward_v I I I I #
coedge $-1 $128 $126 $130 $181 reversed $81 $-1 #
edge $-1 $141 -21.595013950669024 $183 21.595013950669024 $140 $205 forward 7 unknown #
vertex $-1 $181 $206 #
straight-curve $-1 -67.694936979277927 -46.866456628996104 0 0 0 -1 I I #
edge $-1 $179 -46.866456628996104 $183 46.866456628996104 $177 $207 forward 7 unknown #
straight-curve $-1 0 -46.866456628996104 -21.595013950669024 -1 0 0 I I #
vertex $-1 $133 $208 #
straight-curve $-1 0 46.866456628996104 -21.595013950669024 1 0 0 I I #
point $-1 67.694936979277927 46.866456628996104 -21.595013950669024 #
point $-1 67.694936979277927 -46.866456628996104 -21.595013950669024 #
straight-curve $-1 -67.694936979277927 0 21.595013950669024 0 -1 0 I I #
point $-1 -67.694936979277927 46.866456628996104 21.595013950669024 #
point $-1 -67.694936979277927 -46.866456628996104 21.595013950669024 #
straight-curve $-1 67.694936979277927 -46.866456628996104 0 0 0 -1 I I #
straight-curve $-1 67.694936979277927 46.866456628996104 0 0 0 -1 I I #
edge $-1 $193 59.315211226141386 $196 77.13753763312171 $151 $209 forward 7 unknown #
vertex $-1 $165 $210 #
straight-curve $-1 -8.6956226561007703 46.548059425277131 21.595013950669028 0 1 0 I I #
edge $-1 $196 -4.0879731935914059 $162 29.655164892975762 $161 $211 forward 7 unknown #
vertex $-1 $195 $212 #
straight-curve $-1 -8.6956226561007703 -12.121576038895554 76.616843313400494 0 -0.62932038083071107 0.77714596973225614 I I #
point $-1 -8.6956226561007703 32.434221658268228 21.595013950669021 #
point $-1 -42.438760742667938 46.866456628996097 3.7726875436887042 #
straight-curve $-1 0 46.866456628996104 21.595013950669024 -1 0 0 I I #
vertex $-1 $168 $213 #
point $-1 -31.297864146505887 35.286835406996047 9.1503551874680582 #
vertex $-1 $172 $214 #
point $-1 -16.836519252262818 35.286835406996047 9.1503551874680582 #
straight-curve $-1 -67.694936979277927 46.866456628996104 0 0 0 -1 I I #
point $-1 -67.694936979277927 -46.866456628996104 -21.595013950669024 #
straight-curve $-1 -67.694936979277927 0 -21.595013950669024 0 1 0 I I #
point $-1 -67.694936979277927 46.866456628996104 -21.595013950669024 #
straight-curve $-1 -8.6956226561007703 46.866456628996104 80.910225176810414 0 0 -1 I I #
point $-1 -8.6956226561007703 46.866456628996104 21.595013950669024 #
straight-curve $-1 -12.783595849692176 46.866456628996104 3.77268754368869 -1 0 0 I I #
point $-1 -8.6956226561007703 46.866456628996097 3.7726875436887042 #
point $-1 -32.797864146505887 34.121116452397658 8.2063746162219928 #
point $-1 -18.336519252262818 34.121116452397658 8.2063746162219928 #
End-of-ACIS-data 