500 0 10 0           
7 Unknown 11 ACIS 5.0 NT 24 Fri Mar 26 14:56:34 1999 
-1 9.9999999999999995e-007 1e-010 
body $-1 $10 $-1 $11 #
body $-1 $12 $-1 $13 #
body $-1 $14 $-1 $15 #
body $-1 $16 $-1 $17 #
body $-1 $18 $-1 $19 #
body $-1 $20 $-1 $21 #
body $-1 $22 $-1 $23 #
body $-1 $24 $-1 $25 #
body $-1 $26 $-1 $27 #
body $-1 $28 $-1 $29 #
lump $-1 $-1 $30 $0 #
transform $-1 1 0 0 0 1 0 0 0 1 69.38444166386914 43.781843143599495 11.050015039447242 1 rotate no_reflect no_shear #
lump $-1 $-1 $31 $1 #
transform $-1 1 0 0 0 1 0 0 0 1 69.38444166386914 43.781843143599495 11.050015039447242 1 rotate no_reflect no_shear #
lump $-1 $-1 $32 $2 #
transform $-1 1 0 0 0 1 0 0 0 1 69.38444166386914 43.781843143599495 11.050015039447242 1 rotate no_reflect no_shear #
lump $-1 $-1 $33 $3 #
transform $-1 1 0 0 0 1 0 0 0 1 69.38444166386914 43.781843143599495 11.050015039447242 1 rotate no_reflect no_shear #
lump $-1 $-1 $34 $4 #
transform $-1 1 0 0 0 1 0 0 0 1 69.38444166386914 43.781843143599495 11.050015039447242 1 rotate no_reflect no_shear #
lump $-1 $-1 $35 $5 #
transform $-1 1 0 0 0 1 0 0 0 1 69.38444166386914 43.781843143599495 11.050015039447242 1 rotate no_reflect no_shear #
lump $-1 $-1 $36 $6 #
transform $-1 1 0 0 0 1 0 0 0 1 69.38444166386914 43.781843143599495 11.050015039447242 1 rotate no_reflect no_shear #
lump $-1 $-1 $37 $7 #
transform $-1 1 0 0 0 1 0 0 0 1 69.38444166386914 43.781843143599495 11.050015039447242 1 rotate no_reflect no_shear #
lump $-1 $-1 $38 $8 #
transform $-1 1 0 0 0 1 0 0 0 1 69.38444166386914 43.781843143599495 11.050015039447242 1 rotate no_reflect no_shear #
lump $-1 $-1 $39 $9 #
transform $-1 1 0 0 0 1 0 0 0 1 69.38444166386914 43.781843143599495 11.050015039447242 1 rotate no_reflect no_shear #
shell $-1 $-1 $-1 $40 $-1 $10 #
shell $-1 $-1 $-1 $41 $-1 $12 #
shell $-1 $-1 $-1 $42 $-1 $14 #
shell $-1 $-1 $-1 $43 $-1 $16 #
shell $-1 $-1 $-1 $44 $-1 $18 #
shell $-1 $-1 $-1 $45 $-1 $20 #
shell $-1 $-1 $-1 $46 $-1 $22 #
shell $-1 $-1 $-1 $47 $-1 $24 #
shell $-1 $-1 $-1 $48 $-1 $26 #
shell $-1 $-1 $-1 $49 $-1 $28 #
face $-1 $50 $51 $30 $-1 $52 forward single #
face $-1 $53 $54 $31 $-1 $55 reversed single #
face $-1 $56 $57 $32 $-1 $58 forward single #
face $-1 $59 $60 $33 $-1 $61 reversed single #
face $-1 $62 $63 $34 $-1 $64 forward single #
face $-1 $65 $66 $35 $-1 $67 forward single #
face $-1 $68 $69 $36 $-1 $70 reversed single #
face $-1 $71 $72 $37 $-1 $73 forward single #
face $-1 $74 $75 $38 $-1 $76 forward single #
face $-1 $77 $78 $39 $-1 $79 forward single #
face $-1 $80 $81 $30 $-1 $82 reversed single #
loop $-1 $-1 $83 $40 #
plane-surface $-1 0 0 11.050015039447242 0 0 1 1 0 0 forward_v I I I I #
face $-1 $84 $85 $31 $-1 $86 forward single #
loop $-1 $-1 $87 $41 #
plane-surface $-1 0 -29.360971561591032 3.8919724881839759 0 -1 0 0 0 -1 forward_v I I I I #
face $-1 $88 $89 $32 $-1 $90 reversed single #
loop $-1 $-1 $91 $42 #
plane-surface $-1 0 36.571407352595266 6.7801787263304618 0 0 1 1 0 0 forward_v I I I I #
face $-1 $92 $93 $33 $-1 $94 reversed single #
loop $-1 $-1 $95 $43 #
plane-surface $-1 -158.58336157332081 -22.433545158103581 106.40827970009012 0 -1 0 0.64278761758704617 0 -0.76604443648966558 forward_v I I I I #
face $-1 $96 $97 $34 $-1 $98 forward single #
loop $-1 $99 $100 $44 #
cone-surface $-1 -62.541256082947896 -27.381706874880329 5.1945596359751329 0.64278761758704617 0 -0.76604443648966558 0.38302221824483279 0 0.32139380879352308 1 I I 0 1 0.5 forward I I I I #
face $-1 $101 $102 $35 $-1 $103 forward single #
loop $-1 $104 $105 $45 #
cone-surface $-1 -62.541256082947896 -24.41280984481428 5.1945596359751329 0.64278761758704617 0 -0.76604443648966558 0.38302221824483279 0 0.32139380879352308 1 I I 0 1 0.5 forward I I I I #
face $-1 $106 $107 $36 $-1 $108 reversed single #
loop $-1 $-1 $109 $46 #
plane-surface $-1 25.238060481217218 -1.5642727700066601 194.32849387113137 0 -1 0 -0.52991927123019833 0 -0.84804809178421925 forward_v I I I I #
face $-1 $110 $111 $37 $-1 $112 forward single #
loop $-1 $113 $114 $47 #
cone-surface $-1 62.76574326202379 -6.9210122287362807 6.6557342956077452 -0.52991927123019833 0 -0.84804809178421925 0.42402404589210962 0 -0.26495963561509916 1 I I 0 1 0.5 forward I I I I #
face $-1 $115 $116 $38 $-1 $117 forward single #
loop $-1 $118 $119 $48 #
cone-surface $-1 62.76574326202379 -4.9122349317126748 6.6557342956077452 -0.52991927123019833 0 -0.84804809178421925 0.42402404589210962 0 -0.26495963561509916 1 I I 0 1 0.5 forward I I I I #
face $-1 $120 $121 $39 $-1 $122 forward single #
loop $-1 $123 $124 $49 #
cone-surface $-1 62.76574326202379 -2.9034576346890688 6.6557342956077452 -0.52991927123019833 0 -0.84804809178421925 0.42402404589210962 0 -0.26495963561509916 1 I I 0 1 0.5 forward I I I I #
face $-1 $125 $126 $30 $-1 $127 reversed single #
loop $-1 $-1 $128 $50 #
plane-surface $-1 0 0 -11.050015039447242 0 0 1 1 0 0 forward_v I I I I #
coedge $-1 $129 $130 $131 $132 forward $51 $-1 #
face $-1 $133 $134 $31 $-1 $135 reversed single #
loop $-1 $-1 $136 $53 #
plane-surface $-1 0 -36.571407352595266 6.7801787263304618 0 0 1 1 0 0 forward_v I I I I #
coedge $-1 $137 $138 $139 $140 reversed $54 $-1 #
face $-1 $141 $142 $32 $-1 $143 reversed single #
loop $-1 $-1 $144 $56 #
plane-surface $-1 0 36.571407352595266 1.00376625003749 0 0 1 1 0 0 forward_v I I I I #
coedge $-1 $145 $146 $147 $148 reversed $57 $-1 #
face $-1 $149 $150 $33 $-1 $151 forward single #
loop $-1 $-1 $152 $59 #
plane-surface $-1 -69.384441663869154 -25.897258359847307 0.10514866899269748 -0.64278761758704617 0 0.76604443648966558 0.76604443648966558 0 0.64278761758704617 forward_v I I I I #
coedge $-1 $153 $154 $155 $156 reversed $60 $-1 #
face $-1 $-1 $157 $34 $-1 $158 forward single #
loop $-1 $159 $160 $62 #
cone-surface $-1 -62.059165369757615 -27.381706874880329 4.6200263086078834 0.64278761758704617 0 -0.76604443648966558 0.1915111091224164 0 0.16069690439676154 1 I I -0.70710678118654746 0.70710678118654746 0.25 forward I I I I #
loop $-1 $-1 $161 $44 #
coedge $-1 $100 $100 $162 $163 reversed $63 $-1 #
face $-1 $-1 $164 $35 $-1 $165 forward single #
loop $-1 $166 $167 $65 #
cone-surface $-1 -62.059165369757615 -24.41280984481428 4.6200263086078834 0.64278761758704617 0 -0.76604443648966558 0.1915111091224164 0 0.16069690439676154 1 I I -0.70710678118654746 0.70710678118654746 0.25 forward I I I I #
loop $-1 $-1 $168 $45 #
coedge $-1 $105 $105 $169 $170 reversed $66 $-1 #
face $-1 $171 $172 $36 $-1 $173 reversed single #
loop $-1 $-1 $174 $68 #
plane-surface $-1 -48.298245041246275 -4.9122349317126748 76.64580716601597 0.52991927123019833 0 0.84804809178421925 0.84804809178421925 0 -0.52991927123019833 forward_v I I I I #
coedge $-1 $175 $176 $177 $178 reversed $69 $-1 #
face $-1 $-1 $179 $37 $-1 $180 forward single #
loop $-1 $181 $182 $71 #
cone-surface $-1 62.368303808601141 -6.9210122287362807 6.0196982267695809 -0.52991927123019833 0 -0.84804809178421925 0.21201202294605481 0 -0.13247981780754958 1 I I -0.70710678118654746 0.70710678118654746 0.25 forward I I I I #
loop $-1 $-1 $183 $47 #
coedge $-1 $114 $114 $184 $185 reversed $72 $-1 #
face $-1 $-1 $186 $38 $-1 $187 forward single #
loop $-1 $188 $189 $74 #
cone-surface $-1 62.368303808601141 -4.9122349317126748 6.0196982267695809 -0.52991927123019833 0 -0.84804809178421925 0.21201202294605481 0 -0.13247981780754958 1 I I -0.70710678118654746 0.70710678118654746 0.25 forward I I I I #
loop $-1 $-1 $190 $48 #
coedge $-1 $119 $119 $191 $192 reversed $75 $-1 #
face $-1 $-1 $193 $39 $-1 $194 forward single #
loop $-1 $195 $196 $77 #
cone-surface $-1 62.368303808601141 -2.9034576346890688 6.0196982267695809 -0.52991927123019833 0 -0.84804809178421925 0.21201202294605481 0 -0.13247981780754958 1 I I -0.70710678118654746 0.70710678118654746 0.25 forward I I I I #
loop $-1 $-1 $197 $49 #
coedge $-1 $124 $124 $198 $199 reversed $78 $-1 #
face $-1 $200 $201 $30 $-1 $202 reversed single #
loop $-1 $-1 $203 $80 #
plane-surface $-1 0 -43.781843143599495 0 0 1 0 0 0 1 forward_v I I I I #
coedge $-1 $204 $205 $206 $207 forward $81 $-1 #
coedge $-1 $208 $83 $209 $210 forward $51 $-1 #
coedge $-1 $83 $208 $211 $212 forward $51 $-1 #
coedge $-1 $213 $214 $83 $132 reversed $215 $-1 #
edge $-1 $216 -43.781843143599495 $217 43.781843143599495 $131 $218 forward 7 unknown #
face $-1 $219 $220 $31 $-1 $221 reversed single #
loop $-1 $-1 $222 $84 #
plane-surface $-1 0 -36.571407352595266 1.00376625003749 0 0 1 1 0 0 forward_v I I I I #
coedge $-1 $139 $223 $224 $225 reversed $85 $-1 #
coedge $-1 $226 $87 $227 $228 reversed $54 $-1 #
coedge $-1 $87 $226 $229 $230 reversed $54 $-1 #
coedge $-1 $231 $136 $87 $140 forward $85 $-1 #
edge $-1 $232 -69.38444166386914 $233 69.38444166386914 $87 $234 forward 7 unknown #
face $-1 $235 $236 $32 $-1 $237 reversed single #
loop $-1 $-1 $238 $88 #
plane-surface $-1 0 29.360971561591036 3.8919724881839759 0 1 0 0 0 1 forward_v I I I I #
coedge $-1 $239 $240 $241 $242 reversed $89 $-1 #
coedge $-1 $243 $91 $244 $245 reversed $57 $-1 #
coedge $-1 $91 $243 $246 $247 forward $57 $-1 #
coedge $-1 $248 $249 $91 $148 forward $236 $-1 #
edge $-1 $250 -25.496139467301862 $251 -11.075267885293403 $147 $252 forward 7 unknown #
face $-1 $253 $254 $33 $-1 $255 reversed single #
loop $-1 $-1 $256 $92 #
plane-surface $-1 0 0 11.050015039447242 0 0 1 1 0 0 forward_v I I I I #
coedge $-1 $257 $258 $259 $260 reversed $93 $-1 #
coedge $-1 $154 $95 $261 $262 reversed $60 $-1 #
coedge $-1 $95 $153 $257 $263 reversed $60 $-1 #
coedge $-1 $259 $264 $95 $156 forward $254 $-1 #
edge $-1 $265 42.154124810597821 $266 53.098991181052348 $155 $267 forward 7 unknown #
loop $-1 $-1 $162 $96 #
plane-surface $-1 -69.384441663869154 -25.897258359847307 0.10514866899269748 -0.64278761758704617 0 0.76604443648966558 0.76604443648966558 0 0.64278761758704617 forward_v I I I I #
loop $-1 $-1 $268 $62 #
coedge $-1 $160 $160 $161 $269 reversed $97 $-1 #
coedge $-1 $161 $161 $160 $269 forward $99 $-1 #
coedge $-1 $162 $162 $100 $163 forward $157 $-1 #
edge $-1 $270 0 $270 6.2831853071796004 $162 $271 forward 7 unknown #
loop $-1 $-1 $169 $101 #
plane-surface $-1 -69.384441663869154 -25.897258359847307 0.10514866899269748 -0.64278761758704617 0 0.76604443648966558 0.76604443648966558 0 0.64278761758704617 forward_v I I I I #
loop $-1 $-1 $272 $65 #
coedge $-1 $167 $167 $168 $273 reversed $102 $-1 #
coedge $-1 $168 $168 $167 $273 forward $104 $-1 #
coedge $-1 $169 $169 $105 $170 forward $164 $-1 #
edge $-1 $274 0 $274 6.2831853071796004 $169 $275 forward 7 unknown #
face $-1 $276 $277 $36 $-1 $278 reversed single #
loop $-1 $-1 $279 $106 #
plane-surface $-1 25.238060481217218 -8.2601970934186895 194.32849387113137 0 1 0 0.52991927123019833 0 0.84804809178421925 forward_v I I I I #
coedge $-1 $280 $281 $282 $283 reversed $107 $-1 #
coedge $-1 $176 $109 $284 $285 reversed $69 $-1 #
coedge $-1 $109 $175 $280 $286 reversed $69 $-1 #
coedge $-1 $282 $287 $109 $178 forward $288 $-1 #
edge $-1 $289 -56.765411423260531 $290 -44.05793389080003 $177 $291 forward 7 unknown #
loop $-1 $-1 $184 $110 #
plane-surface $-1 -48.298245041246275 -4.9122349317126748 76.64580716601597 0.52991927123019833 0 0.84804809178421925 0.84804809178421925 0 -0.52991927123019833 forward_v I I I I #
loop $-1 $-1 $292 $71 #
coedge $-1 $182 $182 $183 $293 reversed $111 $-1 #
coedge $-1 $183 $183 $182 $293 forward $113 $-1 #
coedge $-1 $184 $184 $114 $185 forward $179 $-1 #
edge $-1 $294 0 $294 6.2831853071796004 $184 $295 forward 7 unknown #
loop $-1 $-1 $191 $115 #
plane-surface $-1 -48.298245041246275 -4.9122349317126748 76.64580716601597 0.52991927123019833 0 0.84804809178421925 0.84804809178421925 0 -0.52991927123019833 forward_v I I I I #
loop $-1 $-1 $296 $74 #
coedge $-1 $189 $189 $190 $297 reversed $116 $-1 #
coedge $-1 $190 $190 $189 $297 forward $118 $-1 #
coedge $-1 $191 $191 $119 $192 forward $186 $-1 #
edge $-1 $298 0 $298 6.2831853071796004 $191 $299 forward 7 unknown #
loop $-1 $-1 $198 $120 #
plane-surface $-1 -48.298245041246275 -4.9122349317126748 76.64580716601597 0.52991927123019833 0 0.84804809178421925 0.84804809178421925 0 -0.52991927123019833 forward_v I I I I #
loop $-1 $-1 $300 $77 #
coedge $-1 $196 $196 $197 $301 reversed $121 $-1 #
coedge $-1 $197 $197 $196 $301 forward $123 $-1 #
coedge $-1 $198 $198 $124 $199 forward $193 $-1 #
edge $-1 $302 0 $302 6.2831853071796004 $198 $303 forward 7 unknown #
face $-1 $304 $305 $30 $-1 $306 reversed single #
loop $-1 $-1 $307 $125 #
plane-surface $-1 -69.38444166386914 0 0 1 0 0 0 0 -1 forward_v I I I I #
coedge $-1 $308 $211 $309 $310 forward $126 $-1 #
coedge $-1 $311 $128 $308 $312 forward $81 $-1 #
coedge $-1 $128 $311 $313 $314 forward $81 $-1 #
coedge $-1 $214 $213 $128 $207 reversed $215 $-1 #
edge $-1 $315 -43.781843143599495 $316 43.781843143599495 $206 $317 forward 7 unknown #
coedge $-1 $130 $129 $318 $319 forward $51 $-1 #
coedge $-1 $320 $321 $129 $210 reversed $305 $-1 #
edge $-1 $217 -69.38444166386914 $322 69.38444166386914 $209 $323 forward 7 unknown #
coedge $-1 $203 $324 $130 $212 reversed $126 $-1 #
edge $-1 $325 -69.38444166386914 $216 69.38444166386914 $211 $326 forward 7 unknown #
coedge $-1 $206 $131 $324 $327 forward $215 $-1 #
coedge $-1 $131 $206 $320 $328 reversed $215 $-1 #
loop $-1 $-1 $213 $304 #
vertex $-1 $132 $329 #
vertex $-1 $132 $330 #
straight-curve $-1 69.38444166386914 0 11.050015039447242 0 1 0 I I #
face $-1 $331 $332 $31 $-1 $333 reversed single #
loop $-1 $-1 $334 $133 #
plane-surface $-1 -69.38444166386914 0 0 1 0 0 0 0 -1 forward_v I I I I #
coedge $-1 $335 $336 $337 $338 reversed $134 $-1 #
coedge $-1 $136 $231 $339 $340 reversed $85 $-1 #
coedge $-1 $341 $227 $136 $225 forward $342 $-1 #
edge $-1 $232 11.0752678852934 $343 25.496139467301862 $224 $344 forward 7 unknown #
coedge $-1 $138 $137 $336 $345 reversed $54 $-1 #
coedge $-1 $224 $337 $137 $228 forward $342 $-1 #
edge $-1 $346 -0.94221999405449797 $232 4.8341924822384739 $227 $347 forward 7 unknown #
coedge $-1 $348 $334 $138 $230 forward $220 $-1 #
edge $-1 $233 -4.8341924822384739 $349 0.94221999405449797 $229 $350 forward 7 unknown #
coedge $-1 $223 $139 $334 $351 reversed $85 $-1 #
vertex $-1 $225 $352 #
vertex $-1 $351 $353 #
straight-curve $-1 0 -29.360971561591032 6.7801787263304618 -1 0 0 I I #
face $-1 $354 $355 $32 $-1 $356 reversed single #
loop $-1 $-1 $147 $141 #
plane-surface $-1 69.38444166386914 0 0 -1 0 0 0 0 1 forward_v I I I I #
coedge $-1 $357 $246 $358 $359 reversed $142 $-1 #
coedge $-1 $360 $144 $357 $361 forward $89 $-1 #
coedge $-1 $144 $360 $362 $363 reversed $89 $-1 #
coedge $-1 $249 $248 $144 $242 forward $236 $-1 #
edge $-1 $364 11.075267885293403 $365 25.496139467301862 $241 $366 forward 7 unknown #
coedge $-1 $146 $145 $367 $368 reversed $57 $-1 #
coedge $-1 $369 $370 $145 $245 forward $371 $-1 #
edge $-1 $372 -69.38444166386914 $250 69.38444166386914 $244 $373 forward 7 unknown #
coedge $-1 $238 $374 $146 $247 reversed $142 $-1 #
edge $-1 $375 -69.38444166386914 $251 69.38444166386914 $246 $376 forward 7 unknown #
coedge $-1 $241 $147 $374 $377 forward $236 $-1 #
coedge $-1 $147 $241 $369 $378 reversed $236 $-1 #
vertex $-1 $378 $379 #
vertex $-1 $148 $380 #
straight-curve $-1 69.38444166386914 18.285703676297633 6.7801787263304618 0 -1 0 I I #
face $-1 $-1 $381 $33 $-1 $382 forward single #
loop $-1 $-1 $383 $149 #
plane-surface $-1 -69.38444166386914 0 0 1 0 0 0 0 -1 forward_v I I I I #
coedge $-1 $384 $385 $386 $387 forward $150 $-1 #
coedge $-1 $388 $152 $154 $263 forward $93 $-1 #
coedge $-1 $152 $388 $389 $390 forward $93 $-1 #
coedge $-1 $383 $155 $152 $260 forward $254 $-1 #
edge $-1 $266 9.4849159781799273 $391 16.412342381667379 $259 $392 forward 7 unknown #
coedge $-1 $385 $384 $153 $262 forward $150 $-1 #
edge $-1 $393 -22.95082266704668 $265 -9.9072391227912675 $261 $394 forward 7 unknown #
edge $-1 $266 1.8548830061813768e-014 $393 17.027189185038083 $154 $395 forward 7 unknown #
coedge $-1 $155 $383 $385 $396 reversed $254 $-1 #
vertex $-1 $396 $397 #
vertex $-1 $156 $398 #
straight-curve $-1 -69.38444166386914 -22.433545158103581 53.20413985004506 0 0 -1 I I #
coedge $-1 $268 $268 $-1 $399 reversed $159 $-1 #
edge $-1 $400 0 $400 6.2831853071796004 $160 $401 forward 7 unknown #
vertex $-1 $163 $402 #
ellipse-curve $-1 -62.862649891741434 -27.381706874880329 5.5775818542199795 -0.64278761758704617 0 0.76604443648966558 0.38302221824483279 0 0.32139380879352308 1 I I #
coedge $-1 $272 $272 $-1 $403 reversed $166 $-1 #
edge $-1 $404 0 $404 6.2831853071796004 $167 $405 forward 7 unknown #
vertex $-1 $170 $406 #
ellipse-curve $-1 -62.862649891741434 -24.41280984481428 5.5775818542199795 -0.64278761758704617 0 0.76604443648966558 0.38302221824483279 0 0.32139380879352308 1 I I #
face $-1 $-1 $288 $36 $-1 $407 forward single #
loop $-1 $-1 $408 $171 #
plane-surface $-1 69.38444166386914 0 0 -1 0 0 0 0 1 forward_v I I I I #
coedge $-1 $409 $410 $411 $412 reversed $172 $-1 #
coedge $-1 $413 $174 $176 $286 forward $107 $-1 #
coedge $-1 $174 $413 $409 $414 forward $107 $-1 #
coedge $-1 $411 $177 $174 $283 forward $288 $-1 #
edge $-1 $290 -0.89184469584967729 $415 5.8040796275623521 $282 $416 forward 7 unknown #
coedge $-1 $417 $418 $175 $285 forward $277 $-1 #
edge $-1 $419 -94.054745292013209 $289 -86.11423189611844 $284 $420 forward 7 unknown #
edge $-1 $290 123.78450018299814 $419 138.76888332773831 $176 $421 forward 7 unknown #
coedge $-1 $177 $411 $417 $422 forward $288 $-1 #
loop $-1 $-1 $411 $276 #
vertex $-1 $285 $423 #
vertex $-1 $178 $424 #
straight-curve $-1 12.619030240608609 -1.5642727700066601 11.050015039447246 -1 0 0 I I #
coedge $-1 $292 $292 $-1 $425 reversed $181 $-1 #
edge $-1 $426 0 $426 6.2831853071796004 $182 $427 forward 7 unknown #
vertex $-1 $185 $428 #
ellipse-curve $-1 63.030702897638889 -6.9210122287362807 7.0797583414998613 0.52991927123019833 0 0.84804809178421925 0.42402404589210962 0 -0.26495963561509916 1 I I #
coedge $-1 $296 $296 $-1 $429 reversed $188 $-1 #
edge $-1 $430 0 $430 6.2831853071796004 $189 $431 forward 7 unknown #
vertex $-1 $192 $432 #
ellipse-curve $-1 63.030702897638889 -4.9122349317126748 7.0797583414998613 0.52991927123019833 0 0.84804809178421925 0.42402404589210962 0 -0.26495963561509916 1 I I #
coedge $-1 $300 $300 $-1 $433 reversed $195 $-1 #
edge $-1 $434 0 $434 6.2831853071796004 $196 $435 forward 7 unknown #
vertex $-1 $199 $436 #
ellipse-curve $-1 63.030702897638889 -2.9034576346890688 7.0797583414998613 0.52991927123019833 0 0.84804809178421925 0.42402404589210962 0 -0.26495963561509916 1 I I #
face $-1 $-1 $215 $30 $-1 $437 reversed single #
loop $-1 $-1 $320 $200 #
plane-surface $-1 0 43.781843143599495 0 0 -1 0 0 0 -1 forward_v I I I I #
coedge $-1 $438 $318 $321 $439 forward $201 $-1 #
coedge $-1 $324 $203 $204 $312 reversed $126 $-1 #
coedge $-1 $318 $438 $203 $310 reversed $201 $-1 #
edge $-1 $325 -11.050015039447242 $440 11.050015039447242 $309 $441 forward 7 unknown #
coedge $-1 $205 $204 $438 $442 forward $81 $-1 #
edge $-1 $316 -69.38444166386914 $440 69.38444166386914 $308 $443 forward 7 unknown #
coedge $-1 $321 $320 $205 $314 reversed $305 $-1 #
edge $-1 $444 -69.38444166386914 $315 69.38444166386914 $313 $445 forward 7 unknown #
vertex $-1 $207 $446 #
vertex $-1 $327 $447 #
straight-curve $-1 69.38444166386914 0 -11.050015039447242 0 -1 0 I I #
coedge $-1 $307 $309 $208 $319 reversed $201 $-1 #
edge $-1 $322 -43.781843143599495 $325 43.781843143599495 $318 $448 forward 7 unknown #
coedge $-1 $313 $209 $214 $328 forward $305 $-1 #
coedge $-1 $209 $313 $307 $439 reversed $305 $-1 #
vertex $-1 $210 $449 #
straight-curve $-1 0 43.781843143599495 11.050015039447242 -1 0 0 I I #
coedge $-1 $211 $308 $213 $327 reversed $126 $-1 #
vertex $-1 $319 $450 #
straight-curve $-1 0 -43.781843143599495 11.050015039447242 1 0 0 I I #
edge $-1 $216 -11.050015039447242 $316 11.050015039447242 $213 $451 forward 7 unknown #
edge $-1 $217 -11.050015039447242 $315 11.050015039447242 $214 $452 forward 7 unknown #
point $-1 69.38444166386914 -43.781843143599495 11.050015039447242 #
point $-1 69.38444166386914 43.781843143599495 11.050015039447242 #
face $-1 $-1 $342 $31 $-1 $453 reversed single #
loop $-1 $-1 $339 $219 #
plane-surface $-1 0 -43.781843143599495 0 0 1 0 0 0 1 forward_v I I I I #
coedge $-1 $229 $454 $231 $351 forward $220 $-1 #
coedge $-1 $455 $222 $456 $457 reversed $134 $-1 #
coedge $-1 $222 $455 $226 $345 forward $134 $-1 #
coedge $-1 $227 $341 $222 $338 forward $342 $-1 #
edge $-1 $458 -25.496139467301862 $346 -11.0752678852934 $337 $459 forward 7 unknown #
coedge $-1 $460 $461 $223 $340 forward $332 $-1 #
edge $-1 $343 -69.38444166386914 $462 69.38444166386914 $339 $463 forward 7 unknown #
coedge $-1 $337 $224 $461 $464 forward $342 $-1 #
loop $-1 $-1 $224 $331 #
vertex $-1 $464 $465 #
straight-curve $-1 69.38444166386914 -18.285703676297633 6.7801787263304618 0 -1 0 I I #
edge $-1 $349 -69.38444166386914 $346 69.38444166386914 $226 $466 forward 7 unknown #
vertex $-1 $338 $467 #
straight-curve $-1 69.38444166386914 -29.360971561591032 1.9459862440919879 0 0 1 I I #
coedge $-1 $454 $229 $455 $468 forward $220 $-1 #
vertex $-1 $468 $469 #
straight-curve $-1 -69.38444166386914 -29.360971561591032 1.9459862440919879 0 0 -1 I I #
edge $-1 $462 -25.496139467301862 $233 -11.0752678852934 $334 $470 forward 7 unknown #
point $-1 69.38444166386914 -29.360971561591032 6.7801787263304618 #
point $-1 -69.38444166386914 -29.360971561591032 6.7801787263304618 #
face $-1 $-1 $371 $32 $-1 $471 reversed single #
loop $-1 $-1 $367 $235 #
plane-surface $-1 -69.38444166386914 0 0 1 0 0 0 0 -1 forward_v I I I I #
coedge $-1 $374 $238 $239 $361 reversed $142 $-1 #
coedge $-1 $367 $472 $238 $359 forward $355 $-1 #
edge $-1 $473 -0.94221999405449797 $375 4.8341924822384739 $358 $474 forward 7 unknown #
coedge $-1 $240 $239 $472 $475 reversed $89 $-1 #
edge $-1 $364 -69.38444166386914 $473 69.38444166386914 $357 $476 forward 7 unknown #
coedge $-1 $370 $369 $240 $363 forward $371 $-1 #
edge $-1 $365 -69.38444166386914 $477 69.38444166386914 $362 $478 forward 7 unknown #
vertex $-1 $242 $479 #
vertex $-1 $363 $480 #
straight-curve $-1 69.38444166386914 18.285703676297633 1.00376625003749 0 1 0 I I #
coedge $-1 $481 $358 $243 $368 forward $355 $-1 #
edge $-1 $375 11.075267885293403 $372 25.496139467301862 $367 $482 forward 7 unknown #
coedge $-1 $362 $244 $249 $378 forward $371 $-1 #
coedge $-1 $244 $362 $481 $483 reversed $371 $-1 #
loop $-1 $-1 $244 $354 #
vertex $-1 $483 $484 #
straight-curve $-1 0 43.781843143599495 6.7801787263304618 1 0 0 I I #
coedge $-1 $246 $357 $248 $377 reversed $142 $-1 #
vertex $-1 $368 $485 #
straight-curve $-1 0 29.360971561591036 6.7801787263304618 1 0 0 I I #
edge $-1 $251 -4.8341924822384739 $364 0.94221999405449797 $248 $486 forward 7 unknown #
edge $-1 $250 -6.7801787263304618 $365 -1.00376625003749 $249 $487 forward 7 unknown #
point $-1 69.38444166386914 43.781843143599495 6.7801787263304618 #
point $-1 69.38444166386914 29.360971561591036 6.7801787263304618 #
loop $-1 $-1 $389 $253 #
plane-surface $-1 0 -29.360971561591032 3.8919724881839759 0 -1 0 0 0 -1 forward_v I I I I #
coedge $-1 $264 $259 $488 $489 forward $254 $-1 #
coedge $-1 $261 $256 $388 $490 forward $150 $-1 #
coedge $-1 $256 $261 $264 $396 forward $150 $-1 #
coedge $-1 $488 $389 $256 $387 reversed $381 $-1 #
edge $-1 $491 9.9072391227912675 $492 22.95082266704668 $256 $493 forward 7 unknown #
coedge $-1 $258 $257 $384 $490 reversed $93 $-1 #
coedge $-1 $386 $488 $258 $390 reversed $381 $-1 #
edge $-1 $492 -17.027189185038083 $391 -1.8548830061813768e-014 $389 $494 forward 7 unknown #
vertex $-1 $260 $495 #
straight-curve $-1 -69.38444166386914 -12.948629179923653 0.10514866899271803 0 -1 0 I I #
vertex $-1 $262 $496 #
straight-curve $-1 -79.291680786660407 -22.433545158103581 11.050015039447246 -1 0 0 I I #
straight-curve $-1 -69.384441663869154 -22.433545158103581 0.10514866899269748 0.76604443648966558 0 0.64278761758704617 I I #
edge $-1 $265 22.433545158103581 $491 29.360971561591032 $264 $497 forward 7 unknown #
point $-1 -69.38444166386914 -22.433545158103581 11.050015039447242 #
point $-1 -69.38444166386914 -22.433545158103581 0.1051486689927094 #
edge $-1 $498 1 $498 0 $268 $-1 forward 7 unknown #
vertex $-1 $269 $499 #
ellipse-curve $-1 -62.219862274154373 -27.381706874880329 4.8115374177302996 -0.64278761758704617 0 0.76604443648966558 0.38302221824483279 0 0.32139380879352308 1 I I #
point $-1 -62.479627673496587 -27.381706874880329 5.8989756630134886 #
edge $-1 $500 1 $500 0 $272 $-1 forward 7 unknown #
vertex $-1 $273 $501 #
ellipse-curve $-1 -62.219862274154373 -24.41280984481428 4.8115374177302996 -0.64278761758704617 0 0.76604443648966558 0.38302221824483279 0 0.32139380879352308 1 I I #
point $-1 -62.479627673496587 -24.41280984481428 5.8989756630134886 #
plane-surface $-1 0 0 11.050015039447242 0 0 1 1 0 0 forward_v I I I I #
coedge $-1 $418 $417 $410 $502 forward $277 $-1 #
coedge $-1 $410 $279 $281 $414 reversed $172 $-1 #
coedge $-1 $279 $409 $408 $502 reversed $172 $-1 #
coedge $-1 $287 $282 $279 $412 forward $288 $-1 #
edge $-1 $415 44.05793389080003 $503 56.765411423260531 $411 $504 forward 7 unknown #
coedge $-1 $281 $280 $418 $505 reversed $107 $-1 #
edge $-1 $506 -138.76888332773831 $415 -123.78450018299814 $409 $507 forward 7 unknown #
vertex $-1 $283 $508 #
straight-curve $-1 56.676964131408639 -2.4561174658563374 11.050015039447239 0 -1 0 I I #
coedge $-1 $408 $284 $287 $422 reversed $277 $-1 #
coedge $-1 $284 $408 $413 $505 forward $277 $-1 #
vertex $-1 $285 $509 #
straight-curve $-1 69.38444166386914 -1.5642727700066601 97.164246935565686 0 0 1 I I #
straight-curve $-1 -48.298245041246275 -1.5642727700066601 76.64580716601597 0.84804809178421925 0 -0.52991927123019833 I I #
edge $-1 $503 -8.2601970934186895 $289 -1.5642727700066601 $417 $510 forward 7 unknown #
point $-1 69.38444166386914 -1.5642727700066601 11.050015039447242 #
point $-1 56.676964131408639 -1.5642727700066601 11.050015039447246 #
edge $-1 $511 1 $511 0 $292 $-1 forward 7 unknown #
vertex $-1 $293 $512 #
ellipse-curve $-1 62.50078362640869 -6.9210122287362807 6.2317102497156354 0.52991927123019833 0 0.84804809178421925 0.42402404589210962 0 -0.26495963561509916 1 I I #
point $-1 63.454726943531 -6.9210122287362807 6.8147987058847557 #
edge $-1 $513 1 $513 0 $296 $-1 forward 7 unknown #
vertex $-1 $297 $514 #
ellipse-curve $-1 62.50078362640869 -4.9122349317126748 6.2317102497156354 0.52991927123019833 0 0.84804809178421925 0.42402404589210962 0 -0.26495963561509916 1 I I #
point $-1 63.454726943531 -4.9122349317126748 6.8147987058847557 #
edge $-1 $515 1 $515 0 $300 $-1 forward 7 unknown #
vertex $-1 $301 $516 #
ellipse-curve $-1 62.50078362640869 -2.9034576346890688 6.2317102497156354 0.52991927123019833 0 0.84804809178421925 0.42402404589210962 0 -0.26495963561509916 1 I I #
point $-1 63.454726943531 -2.9034576346890688 6.8147987058847557 #
plane-surface $-1 69.38444166386914 0 0 -1 0 0 0 0 1 forward_v I I I I #
coedge $-1 $309 $307 $311 $442 reversed $201 $-1 #
edge $-1 $322 -11.050015039447242 $444 11.050015039447242 $321 $517 forward 7 unknown #
vertex $-1 $442 $518 #
straight-curve $-1 -69.38444166386914 -43.781843143599495 0 0 0 -1 I I #
edge $-1 $440 -43.781843143599495 $444 43.781843143599495 $438 $519 forward 7 unknown #
straight-curve $-1 0 -43.781843143599495 -11.050015039447242 -1 0 0 I I #
vertex $-1 $314 $520 #
straight-curve $-1 0 43.781843143599495 -11.050015039447242 1 0 0 I I #
point $-1 69.38444166386914 43.781843143599495 -11.050015039447242 #
point $-1 69.38444166386914 -43.781843143599495 -11.050015039447242 #
straight-curve $-1 -69.38444166386914 0 11.050015039447242 0 -1 0 I I #
point $-1 -69.38444166386914 43.781843143599495 11.050015039447242 #
point $-1 -69.38444166386914 -43.781843143599495 11.050015039447242 #
straight-curve $-1 69.38444166386914 -43.781843143599495 0 0 0 -1 I I #
straight-curve $-1 69.38444166386914 43.781843143599495 0 0 0 -1 I I #
plane-surface $-1 69.38444166386914 0 0 -1 0 0 0 0 1 forward_v I I I I #
coedge $-1 $334 $348 $460 $521 reversed $220 $-1 #
coedge $-1 $336 $335 $348 $468 reversed $134 $-1 #
coedge $-1 $461 $460 $335 $457 forward $332 $-1 #
edge $-1 $522 -69.38444166386914 $458 69.38444166386914 $456 $523 forward 7 unknown #
vertex $-1 $457 $524 #
straight-curve $-1 69.38444166386914 -18.285703676297633 1.00376625003749 0 1 0 I I #
coedge $-1 $456 $339 $454 $521 forward $332 $-1 #
coedge $-1 $339 $456 $341 $464 reversed $332 $-1 #
vertex $-1 $521 $525 #
straight-curve $-1 0 -43.781843143599495 6.7801787263304618 -1 0 0 I I #
edge $-1 $343 -6.7801787263304618 $458 -1.00376625003749 $341 $526 forward 7 unknown #
point $-1 69.38444166386914 -43.781843143599495 6.7801787263304618 #
straight-curve $-1 0 -29.360971561591032 1.00376625003749 1 0 0 I I #
point $-1 69.38444166386914 -29.360971561591032 1.00376625003749 #
edge $-1 $349 11.0752678852934 $522 25.496139467301862 $348 $527 forward 7 unknown #
point $-1 -69.38444166386914 -29.360971561591032 1.00376625003749 #
straight-curve $-1 -69.38444166386914 -18.285703676297633 6.7801787263304618 0 1 0 I I #
plane-surface $-1 0 43.781843143599495 0 0 -1 0 0 0 -1 forward_v I I I I #
coedge $-1 $358 $481 $360 $475 forward $355 $-1 #
vertex $-1 $475 $528 #
straight-curve $-1 -69.38444166386914 29.360971561591036 1.9459862440919879 0 0 1 I I #
edge $-1 $477 -25.496139467301862 $473 -11.075267885293403 $472 $529 forward 7 unknown #
straight-curve $-1 0 29.360971561591036 1.00376625003749 -1 0 0 I I #
vertex $-1 $363 $530 #
straight-curve $-1 0 43.781843143599495 1.00376625003749 -1 0 0 I I #
point $-1 69.38444166386914 29.360971561591036 1.00376625003749 #
point $-1 69.38444166386914 43.781843143599495 1.00376625003749 #
coedge $-1 $472 $367 $370 $483 forward $355 $-1 #
straight-curve $-1 -69.38444166386914 18.285703676297633 6.7801787263304618 0 1 0 I I #
edge $-1 $372 -6.7801787263304618 $477 -1.00376625003749 $370 $531 forward 7 unknown #
point $-1 -69.38444166386914 43.781843143599495 6.7801787263304618 #
point $-1 -69.38444166386914 29.360971561591036 6.7801787263304618 #
straight-curve $-1 69.38444166386914 29.360971561591036 1.9459862440919879 0 0 -1 I I #
straight-curve $-1 69.38444166386914 43.781843143599495 0 0 0 -1 I I #
coedge $-1 $389 $386 $383 $489 reversed $381 $-1 #
edge $-1 $391 -53.098991181052348 $491 -42.154124810597821 $383 $532 forward 7 unknown #
edge $-1 $492 -16.412342381667379 $393 -9.4849159781799273 $384 $533 forward 7 unknown #
vertex $-1 $387 $534 #
vertex $-1 $387 $535 #
straight-curve $-1 -79.291680786660407 -29.360971561591032 11.050015039447246 1 0 0 I I #
straight-curve $-1 -69.384441663869154 -29.360971561591032 0.10514866899269748 -0.76604443648966558 0 -0.64278761758704617 I I #
point $-1 -69.38444166386914 -29.360971561591032 0.1051486689927094 #
point $-1 -56.340858119613728 -22.433545158103581 11.050015039447242 #
straight-curve $-1 -69.38444166386914 0 11.050015039447242 0 -1 0 I I #
vertex $-1 $399 $536 #
point $-1 -61.836840055909541 -27.381706874880329 5.1329312265238229 #
vertex $-1 $403 $537 #
point $-1 -61.836840055909541 -24.41280984481428 5.1329312265238229 #
edge $-1 $503 86.11423189611844 $506 94.054745292013209 $408 $538 forward 7 unknown #
vertex $-1 $422 $539 #
straight-curve $-1 12.619030240608609 -8.2601970934186895 11.050015039447246 1 0 0 I I #
edge $-1 $506 -5.8040796275623521 $419 0.89184469584967729 $418 $540 forward 7 unknown #
vertex $-1 $505 $541 #
straight-curve $-1 -48.298245041246275 -8.2601970934186895 76.64580716601597 -0.84804809178421925 0 0.52991927123019833 I I #
point $-1 56.676964131408639 -8.2601970934186895 11.050015039447246 #
point $-1 69.384441663869126 -1.5642727700066601 3.1095016435524769 #
straight-curve $-1 69.38444166386914 0 11.050015039447242 0 1 0 I I #
vertex $-1 $425 $542 #
point $-1 62.924807672300801 -6.9210122287362807 5.9667506141005369 #
vertex $-1 $429 $543 #
point $-1 62.924807672300801 -4.9122349317126748 5.9667506141005369 #
vertex $-1 $433 $544 #
point $-1 62.924807672300801 -2.9034576346890688 5.9667506141005369 #
straight-curve $-1 -69.38444166386914 43.781843143599495 0 0 0 -1 I I #
point $-1 -69.38444166386914 -43.781843143599495 -11.050015039447242 #
straight-curve $-1 -69.38444166386914 0 -11.050015039447242 0 1 0 I I #
point $-1 -69.38444166386914 43.781843143599495 -11.050015039447242 #
edge $-1 $462 -6.7801787263304618 $522 -1.00376625003749 $454 $545 forward 7 unknown #
vertex $-1 $457 $546 #
straight-curve $-1 0 -43.781843143599495 1.00376625003749 1 0 0 I I #
point $-1 69.38444166386914 -43.781843143599495 1.00376625003749 #
point $-1 -69.38444166386914 -43.781843143599495 6.7801787263304618 #
straight-curve $-1 69.38444166386914 -43.781843143599495 0 0 0 -1 I I #
straight-curve $-1 -69.38444166386914 -18.285703676297633 1.00376625003749 0 -1 0 I I #
point $-1 -69.38444166386914 29.360971561591036 1.00376625003749 #
straight-curve $-1 -69.38444166386914 18.285703676297633 1.00376625003749 0 -1 0 I I #
point $-1 -69.38444166386914 43.781843143599495 1.00376625003749 #
straight-curve $-1 -69.38444166386914 43.781843143599495 0 0 0 -1 I I #
straight-curve $-1 -69.38444166386914 -29.360971561591032 53.20413985004506 0 0 1 I I #
straight-curve $-1 -56.340858119613728 -12.948629179923653 11.050015039447242 0 1 0 I I #
point $-1 -69.38444166386914 -29.360971561591032 11.050015039447242 #
point $-1 -56.340858119613728 -29.360971561591032 11.050015039447242 #
point $-1 -61.898468465360857 -27.381706874880329 4.4285151994854672 #
point $-1 -61.898468465360857 -24.41280984481428 4.4285151994854672 #
straight-curve $-1 69.38444166386914 -8.2601970934186895 97.164246935565686 0 0 -1 I I #
point $-1 69.38444166386914 -8.2601970934186895 11.050015039447242 #
straight-curve $-1 69.38444166386914 -2.4561174658563374 3.1095016435524698 0 1 0 I I #
point $-1 69.384441663869126 -8.2601970934186895 3.1095016435524769 #
point $-1 62.235823990793591 -6.9210122287362807 5.8076862038235264 #
point $-1 62.235823990793591 -4.9122349317126748 5.8076862038235264 #
point $-1 62.235823990793591 -2.9034576346890688 5.8076862038235264 #
straight-curve $-1 -69.38444166386914 -43.781843143599495 0 0 0 -1 I I #
point $-1 -69.38444166386914 -43.781843143599495 1.00376625003749 #
End-of-ACIS-data 