500 0 12 0           
7 Unknown 11 ACIS 5.0 NT 24 Thu Mar 25 22:09:47 1999 
-1 9.9999999999999995e-007 1e-010 
body $-1 $12 $-1 $13 #
body $-1 $14 $-1 $15 #
body $-1 $16 $-1 $17 #
body $-1 $18 $-1 $19 #
body $-1 $20 $-1 $21 #
body $-1 $22 $-1 $23 #
body $-1 $24 $-1 $25 #
body $-1 $26 $-1 $27 #
body $-1 $28 $-1 $29 #
body $-1 $30 $-1 $31 #
body $-1 $32 $-1 $33 #
body $-1 $34 $-1 $35 #
lump $-1 $-1 $36 $0 #
transform $-1 1 0 0 0 1 0 0 0 1 45.890072328867461 22.523906834641853 7.4223652216893772 1 rotate no_reflect no_shear #
lump $-1 $-1 $37 $1 #
transform $-1 1 0 0 0 1 0 0 0 1 45.890072328867461 22.523906834641853 7.4223652216893772 1 rotate no_reflect no_shear #
lump $-1 $-1 $38 $2 #
transform $-1 1 0 0 0 1 0 0 0 1 45.890072328867461 22.523906834641853 7.4223652216893772 1 rotate no_reflect no_shear #
lump $-1 $-1 $39 $3 #
transform $-1 1 0 0 0 1 0 0 0 1 45.890072328867461 22.523906834641853 7.4223652216893772 1 rotate no_reflect no_shear #
lump $-1 $-1 $40 $4 #
transform $-1 1 0 0 0 1 0 0 0 1 45.890072328867461 22.523906834641853 7.4223652216893772 1 rotate no_reflect no_shear #
lump $-1 $-1 $41 $5 #
transform $-1 1 0 0 0 1 0 0 0 1 45.890072328867461 22.523906834641853 7.4223652216893772 1 rotate no_reflect no_shear #
lump $-1 $-1 $42 $6 #
transform $-1 1 0 0 0 1 0 0 0 1 45.890072328867461 22.523906834641853 7.4223652216893772 1 rotate no_reflect no_shear #
lump $-1 $-1 $43 $7 #
transform $-1 1 0 0 0 1 0 0 0 1 45.890072328867461 22.523906834641853 7.4223652216893772 1 rotate no_reflect no_shear #
lump $-1 $-1 $44 $8 #
transform $-1 1 0 0 0 1 0 0 0 1 45.890072328867461 22.523906834641853 7.4223652216893772 1 rotate no_reflect no_shear #
lump $-1 $-1 $45 $9 #
transform $-1 1 0 0 0 1 0 0 0 1 45.890072328867461 22.523906834641853 7.4223652216893772 1 rotate no_reflect no_shear #
lump $-1 $-1 $46 $10 #
transform $-1 1 0 0 0 1 0 0 0 1 45.890072328867461 22.523906834641853 7.4223652216893772 1 rotate no_reflect no_shear #
lump $-1 $-1 $47 $11 #
transform $-1 1 0 0 0 1 0 0 0 1 45.890072328867461 22.523906834641853 7.4223652216893772 1 rotate no_reflect no_shear #
shell $-1 $-1 $-1 $48 $-1 $12 #
shell $-1 $-1 $-1 $49 $-1 $14 #
shell $-1 $-1 $-1 $50 $-1 $16 #
shell $-1 $-1 $-1 $51 $-1 $18 #
shell $-1 $-1 $-1 $52 $-1 $20 #
shell $-1 $-1 $-1 $53 $-1 $22 #
shell $-1 $-1 $-1 $54 $-1 $24 #
shell $-1 $-1 $-1 $55 $-1 $26 #
shell $-1 $-1 $-1 $56 $-1 $28 #
shell $-1 $-1 $-1 $57 $-1 $30 #
shell $-1 $-1 $-1 $58 $-1 $32 #
shell $-1 $-1 $-1 $59 $-1 $34 #
face $-1 $60 $61 $36 $-1 $62 forward single #
face $-1 $63 $64 $37 $-1 $65 forward single #
face $-1 $66 $67 $38 $-1 $68 reversed single #
face $-1 $69 $70 $39 $-1 $71 forward single #
face $-1 $72 $73 $40 $-1 $74 forward single #
face $-1 $75 $76 $41 $-1 $77 forward single #
face $-1 $78 $79 $42 $-1 $80 reversed single #
face $-1 $81 $82 $43 $-1 $83 forward single #
face $-1 $84 $85 $44 $-1 $86 forward single #
face $-1 $87 $88 $45 $-1 $89 forward single #
face $-1 $90 $91 $46 $-1 $92 reversed single #
face $-1 $93 $94 $47 $-1 $95 forward single #
face $-1 $96 $97 $36 $-1 $98 reversed single #
loop $-1 $-1 $99 $48 #
plane-surface $-1 0 0 7.4223652216893772 0 0 1 1 0 0 forward_v I I I I #
face $-1 $100 $101 $37 $-1 $102 reversed single #
loop $-1 $-1 $103 $49 #
plane-surface $-1 0 -22.523906834641853 0 0 1 0 0 0 1 forward_v I I I I #
face $-1 $104 $105 $38 $-1 $106 reversed single #
loop $-1 $-1 $107 $50 #
plane-surface $-1 -104.88521285520736 -6.2992647101659553 71.576060819574508 0 1 0 -0.64278761758704617 0 0.76604443648966558 forward_v I I I I #
face $-1 $108 $109 $39 $-1 $110 forward single #
loop $-1 $111 $112 $51 #
cone-surface $-1 -41.901668525169939 -4.8774852802479387 3.9623562047498369 0.64278761758704617 0 -0.76604443648966558 0.38302221824483279 0 0.32139380879352308 1 I I 0 1 0.5 forward I I I I #
face $-1 $113 $114 $40 $-1 $115 forward single #
loop $-1 $116 $117 $52 #
cone-surface $-1 -41.901668525169939 -2.7448161353709146 3.9623562047498369 0.64278761758704617 0 -0.76604443648966558 0.38302221824483279 0 0.32139380879352308 1 I I 0 1 0.5 forward I I I I #
face $-1 $118 $119 $41 $-1 $120 forward single #
loop $-1 $121 $122 $53 #
cone-surface $-1 -41.901668525169939 -0.61214699049389054 3.9623562047498369 0.64278761758704617 0 -0.76604443648966558 0.38302221824483279 0 0.32139380879352308 1 I I 0 1 0.5 forward I I I I #
face $-1 $123 $124 $42 $-1 $125 reversed single #
loop $-1 $-1 $126 $54 #
plane-surface $-1 -104.88521285520736 13.092706177967132 71.576060819574508 0 1 0 -0.64278761758704617 0 0.76604443648966558 forward_v I I I I #
face $-1 $127 $128 $43 $-1 $129 forward single #
loop $-1 $130 $131 $55 #
cone-surface $-1 -41.901668525169939 14.514485607885145 3.9623562047498369 0.64278761758704617 0 -0.76604443648966558 0.38302221824483279 0 0.32139380879352308 1 I I 0 1 0.5 forward I I I I #
face $-1 $132 $133 $44 $-1 $134 forward single #
loop $-1 $135 $136 $56 #
cone-surface $-1 -41.901668525169939 16.647154752762173 3.9623562047498369 0.64278761758704617 0 -0.76604443648966558 0.38302221824483279 0 0.32139380879352308 1 I I 0 1 0.5 forward I I I I #
face $-1 $137 $138 $45 $-1 $139 forward single #
loop $-1 $140 $141 $57 #
cone-surface $-1 -41.901668525169939 18.779823897639201 3.9623562047498369 0.64278761758704617 0 -0.76604443648966558 0.38302221824483279 0 0.32139380879352308 1 I I 0 1 0.5 forward I I I I #
face $-1 $142 $143 $46 $-1 $144 reversed single #
loop $-1 $-1 $145 $58 #
plane-surface $-1 27.825860796210222 -7.5464039962734759 129.77967526050531 0 -1 0 -0.6018150307709319 0 -0.79863550430605224 forward_v I I I I #
face $-1 $146 $147 $47 $-1 $148 forward single #
loop $-1 $149 $150 $59 #
cone-surface $-1 41.266972289178355 -11.903219468948899 3.6375125928337693 -0.6018150307709319 0 -0.79863550430605224 0.79863550430605224 0 -0.6018150307709319 1 I I 0 1 1 forward I I I I #
face $-1 $151 $152 $36 $-1 $153 reversed single #
loop $-1 $-1 $154 $60 #
plane-surface $-1 0 0 -7.4223652216893772 0 0 1 1 0 0 forward_v I I I I #
coedge $-1 $155 $156 $157 $158 forward $61 $-1 #
face $-1 $159 $160 $37 $-1 $161 forward single #
loop $-1 $-1 $162 $63 #
plane-surface $-1 -45.890072328867461 0 0 1 0 0 0 0 -1 forward_v I I I I #
coedge $-1 $163 $164 $165 $166 forward $64 $-1 #
face $-1 $167 $168 $38 $-1 $169 reversed single #
loop $-1 $-1 $170 $66 #
plane-surface $-1 -45.890072328867461 -2.7448161353709146 1.2683916242999658 -0.64278761758704617 0 0.76604443648966558 0.76604443648966558 0 0.64278761758704617 forward_v I I I I #
coedge $-1 $171 $172 $173 $174 reversed $67 $-1 #
face $-1 $-1 $175 $39 $-1 $176 forward single #
loop $-1 $177 $178 $69 #
cone-surface $-1 -41.419577811979657 -4.8774852802479387 3.3878228773825878 0.64278761758704617 0 -0.76604443648966558 0.1915111091224164 0 0.16069690439676154 1 I I -0.70710678118654746 0.70710678118654746 0.25 forward I I I I #
loop $-1 $-1 $179 $51 #
coedge $-1 $112 $112 $180 $181 reversed $70 $-1 #
face $-1 $-1 $182 $40 $-1 $183 forward single #
loop $-1 $184 $185 $72 #
cone-surface $-1 -41.419577811979657 -2.7448161353709146 3.3878228773825878 0.64278761758704617 0 -0.76604443648966558 0.1915111091224164 0 0.16069690439676154 1 I I -0.70710678118654746 0.70710678118654746 0.25 forward I I I I #
loop $-1 $-1 $186 $52 #
coedge $-1 $117 $117 $187 $188 reversed $73 $-1 #
face $-1 $-1 $189 $41 $-1 $190 forward single #
loop $-1 $191 $192 $75 #
cone-surface $-1 -41.419577811979657 -0.61214699049389054 3.3878228773825878 0.64278761758704617 0 -0.76604443648966558 0.1915111091224164 0 0.16069690439676154 1 I I -0.70710678118654746 0.70710678118654746 0.25 forward I I I I #
loop $-1 $-1 $193 $53 #
coedge $-1 $122 $122 $194 $195 reversed $76 $-1 #
face $-1 $196 $197 $42 $-1 $198 reversed single #
loop $-1 $-1 $199 $78 #
plane-surface $-1 -45.890072328867461 16.647154752762173 1.2683916242999658 -0.64278761758704617 0 0.76604443648966558 0.76604443648966558 0 0.64278761758704617 forward_v I I I I #
coedge $-1 $200 $201 $202 $203 reversed $79 $-1 #
face $-1 $-1 $204 $43 $-1 $205 forward single #
loop $-1 $206 $207 $81 #
cone-surface $-1 -41.419577811979657 14.514485607885145 3.3878228773825878 0.64278761758704617 0 -0.76604443648966558 0.1915111091224164 0 0.16069690439676154 1 I I -0.70710678118654746 0.70710678118654746 0.25 forward I I I I #
loop $-1 $-1 $208 $55 #
coedge $-1 $131 $131 $209 $210 reversed $82 $-1 #
face $-1 $-1 $211 $44 $-1 $212 forward single #
loop $-1 $213 $214 $84 #
cone-surface $-1 -41.419577811979657 16.647154752762173 3.3878228773825878 0.64278761758704617 0 -0.76604443648966558 0.1915111091224164 0 0.16069690439676154 1 I I -0.70710678118654746 0.70710678118654746 0.25 forward I I I I #
loop $-1 $-1 $215 $56 #
coedge $-1 $136 $136 $216 $217 reversed $85 $-1 #
face $-1 $-1 $218 $45 $-1 $219 forward single #
loop $-1 $220 $221 $87 #
cone-surface $-1 -41.419577811979657 18.779823897639201 3.3878228773825878 0.64278761758704617 0 -0.76604443648966558 0.1915111091224164 0 0.16069690439676154 1 I I -0.70710678118654746 0.70710678118654746 0.25 forward I I I I #
loop $-1 $-1 $222 $57 #
coedge $-1 $141 $141 $223 $224 reversed $88 $-1 #
face $-1 $225 $226 $46 $-1 $227 reversed single #
loop $-1 $-1 $228 $90 #
plane-surface $-1 -27.408809785145102 -11.903219468948899 56.480793146492758 0.6018150307709319 0 0.79863550430605224 0.79863550430605224 0 -0.6018150307709319 forward_v I I I I #
coedge $-1 $229 $230 $231 $232 reversed $91 $-1 #
face $-1 $-1 $233 $47 $-1 $234 forward single #
loop $-1 $235 $236 $93 #
cone-surface $-1 40.441040069986684 -11.903219468948899 2.5414635401011108 -0.6018150307709319 0 -0.79863550430605224 0.39931775215302612 0 -0.30090751538546595 1 I I -0.70710678118654746 0.70710678118654746 0.5 forward I I I I #
loop $-1 $-1 $237 $59 #
coedge $-1 $150 $150 $238 $239 reversed $94 $-1 #
face $-1 $240 $241 $36 $-1 $242 reversed single #
loop $-1 $-1 $243 $96 #
plane-surface $-1 0 -22.523906834641853 0 0 1 0 0 0 1 forward_v I I I I #
coedge $-1 $244 $245 $246 $247 forward $97 $-1 #
coedge $-1 $248 $99 $249 $250 forward $61 $-1 #
coedge $-1 $99 $248 $251 $252 forward $61 $-1 #
coedge $-1 $253 $254 $99 $158 reversed $255 $-1 #
edge $-1 $256 -22.523906834641853 $257 22.523906834641853 $157 $258 forward 7 unknown #
face $-1 $259 $260 $37 $-1 $261 reversed single #
loop $-1 $-1 $262 $100 #
plane-surface $-1 0 -25.655842781150618 2.9283403926229252 0 0 1 1 0 0 forward_v I I I I #
coedge $-1 $263 $264 $164 $265 forward $101 $-1 #
coedge $-1 $266 $103 $267 $268 reversed $64 $-1 #
coedge $-1 $103 $266 $162 $265 reversed $64 $-1 #
coedge $-1 $269 $262 $103 $166 reversed $160 $-1 #
edge $-1 $270 -45.890072328867461 $271 45.890072328867461 $165 $272 forward 7 unknown #
face $-1 $273 $274 $38 $-1 $275 forward single #
loop $-1 $-1 $276 $104 #
plane-surface $-1 -104.88521285520736 0.8096324394241261 71.576060819574508 0 -1 0 0.64278761758704617 0 -0.76604443648966558 forward_v I I I I #
coedge $-1 $277 $278 $279 $280 reversed $105 $-1 #
coedge $-1 $172 $107 $281 $282 reversed $67 $-1 #
coedge $-1 $107 $171 $277 $283 reversed $67 $-1 #
coedge $-1 $279 $284 $107 $174 forward $274 $-1 #
edge $-1 $285 6.5525340987362171 $286 13.886554088544209 $173 $287 forward 7 unknown #
loop $-1 $-1 $180 $108 #
plane-surface $-1 -45.890072328867461 -2.7448161353709146 1.2683916242999658 -0.64278761758704617 0 0.76604443648966558 0.76604443648966558 0 0.64278761758704617 forward_v I I I I #
loop $-1 $-1 $288 $69 #
coedge $-1 $178 $178 $179 $289 reversed $109 $-1 #
coedge $-1 $179 $179 $178 $289 forward $111 $-1 #
coedge $-1 $180 $180 $112 $181 forward $175 $-1 #
edge $-1 $290 0 $290 6.2831853071796004 $180 $291 forward 7 unknown #
loop $-1 $-1 $187 $113 #
plane-surface $-1 -45.890072328867461 -2.7448161353709146 1.2683916242999658 -0.64278761758704617 0 0.76604443648966558 0.76604443648966558 0 0.64278761758704617 forward_v I I I I #
loop $-1 $-1 $292 $72 #
coedge $-1 $185 $185 $186 $293 reversed $114 $-1 #
coedge $-1 $186 $186 $185 $293 forward $116 $-1 #
coedge $-1 $187 $187 $117 $188 forward $182 $-1 #
edge $-1 $294 0 $294 6.2831853071796004 $187 $295 forward 7 unknown #
loop $-1 $-1 $194 $118 #
plane-surface $-1 -45.890072328867461 -2.7448161353709146 1.2683916242999658 -0.64278761758704617 0 0.76604443648966558 0.76604443648966558 0 0.64278761758704617 forward_v I I I I #
loop $-1 $-1 $296 $75 #
coedge $-1 $192 $192 $193 $297 reversed $119 $-1 #
coedge $-1 $193 $193 $192 $297 forward $121 $-1 #
coedge $-1 $194 $194 $122 $195 forward $189 $-1 #
edge $-1 $298 0 $298 6.2831853071796004 $194 $299 forward 7 unknown #
face $-1 $300 $301 $42 $-1 $302 forward single #
loop $-1 $-1 $303 $123 #
plane-surface $-1 -104.88521285520736 20.201603327557216 71.576060819574508 0 -1 0 0.64278761758704617 0 -0.76604443648966558 forward_v I I I I #
coedge $-1 $304 $305 $306 $307 reversed $124 $-1 #
coedge $-1 $201 $126 $308 $309 reversed $79 $-1 #
coedge $-1 $126 $200 $304 $310 reversed $79 $-1 #
coedge $-1 $306 $311 $126 $203 forward $301 $-1 #
edge $-1 $312 6.5525340987362171 $313 13.886554088544209 $202 $314 forward 7 unknown #
loop $-1 $-1 $209 $127 #
plane-surface $-1 -45.890072328867461 16.647154752762173 1.2683916242999658 -0.64278761758704617 0 0.76604443648966558 0.76604443648966558 0 0.64278761758704617 forward_v I I I I #
loop $-1 $-1 $315 $81 #
coedge $-1 $207 $207 $208 $316 reversed $128 $-1 #
coedge $-1 $208 $208 $207 $316 forward $130 $-1 #
coedge $-1 $209 $209 $131 $210 forward $204 $-1 #
edge $-1 $317 0 $317 6.2831853071796004 $209 $318 forward 7 unknown #
loop $-1 $-1 $216 $132 #
plane-surface $-1 -45.890072328867461 16.647154752762173 1.2683916242999658 -0.64278761758704617 0 0.76604443648966558 0.76604443648966558 0 0.64278761758704617 forward_v I I I I #
loop $-1 $-1 $319 $84 #
coedge $-1 $214 $214 $215 $320 reversed $133 $-1 #
coedge $-1 $215 $215 $214 $320 forward $135 $-1 #
coedge $-1 $216 $216 $136 $217 forward $211 $-1 #
edge $-1 $321 0 $321 6.2831853071796004 $216 $322 forward 7 unknown #
loop $-1 $-1 $223 $137 #
plane-surface $-1 -45.890072328867461 16.647154752762173 1.2683916242999658 -0.64278761758704617 0 0.76604443648966558 0.76604443648966558 0 0.64278761758704617 forward_v I I I I #
loop $-1 $-1 $323 $87 #
coedge $-1 $221 $221 $222 $324 reversed $138 $-1 #
coedge $-1 $222 $222 $221 $324 forward $140 $-1 #
coedge $-1 $223 $223 $141 $224 forward $218 $-1 #
edge $-1 $325 0 $325 6.2831853071796004 $223 $326 forward 7 unknown #
face $-1 $327 $328 $46 $-1 $329 reversed single #
loop $-1 $-1 $330 $142 #
plane-surface $-1 27.825860796210222 -16.260034941624323 129.77967526050531 0 1 0 0.6018150307709319 0 0.79863550430605224 forward_v I I I I #
coedge $-1 $331 $332 $333 $334 reversed $143 $-1 #
coedge $-1 $230 $145 $335 $336 reversed $91 $-1 #
coedge $-1 $145 $229 $331 $337 reversed $91 $-1 #
coedge $-1 $333 $338 $145 $232 forward $339 $-1 #
edge $-1 $340 -31.97714193076235 $341 -23.780991258996565 $231 $342 forward 7 unknown #
loop $-1 $-1 $238 $146 #
plane-surface $-1 -27.408809785145102 -11.903219468948899 56.480793146492758 0.6018150307709319 0 0.79863550430605224 0.79863550430605224 0 -0.6018150307709319 forward_v I I I I #
loop $-1 $-1 $343 $93 #
coedge $-1 $236 $236 $237 $344 reversed $147 $-1 #
coedge $-1 $237 $237 $236 $344 forward $149 $-1 #
coedge $-1 $238 $238 $150 $239 forward $233 $-1 #
edge $-1 $345 0 $345 6.2831853071796004 $238 $346 forward 7 unknown #
face $-1 $347 $348 $36 $-1 $349 reversed single #
loop $-1 $-1 $350 $151 #
plane-surface $-1 -45.890072328867461 0 0 1 0 0 0 0 -1 forward_v I I I I #
coedge $-1 $351 $251 $352 $353 forward $152 $-1 #
coedge $-1 $354 $154 $351 $355 forward $97 $-1 #
coedge $-1 $154 $354 $356 $357 forward $97 $-1 #
coedge $-1 $254 $253 $154 $247 reversed $255 $-1 #
edge $-1 $358 -22.523906834641853 $359 22.523906834641853 $246 $360 forward 7 unknown #
coedge $-1 $156 $155 $361 $362 forward $61 $-1 #
coedge $-1 $363 $364 $155 $250 reversed $348 $-1 #
edge $-1 $257 -45.890072328867461 $365 45.890072328867461 $249 $366 forward 7 unknown #
coedge $-1 $243 $367 $156 $252 reversed $152 $-1 #
edge $-1 $368 -45.890072328867461 $256 45.890072328867461 $251 $369 forward 7 unknown #
coedge $-1 $246 $157 $367 $370 forward $255 $-1 #
coedge $-1 $157 $246 $363 $371 reversed $255 $-1 #
loop $-1 $-1 $253 $347 #
vertex $-1 $158 $372 #
vertex $-1 $158 $373 #
straight-curve $-1 45.890072328867461 0 7.4223652216893772 0 1 0 I I #
face $-1 $374 $375 $37 $-1 $376 reversed single #
loop $-1 $-1 $377 $159 #
plane-surface $-1 0 -25.655842781150618 -0.081968161016981345 0 0 1 1 0 0 forward_v I I I I #
coedge $-1 $165 $378 $379 $380 forward $160 $-1 #
coedge $-1 $381 $162 $382 $383 reversed $101 $-1 #
coedge $-1 $162 $381 $269 $384 reversed $101 $-1 #
edge $-1 $270 -2.9283403926229252 $385 0.081968161016981345 $162 $386 forward 7 unknown #
coedge $-1 $164 $163 $387 $388 forward $64 $-1 #
coedge $-1 $379 $389 $163 $268 forward $390 $-1 #
edge $-1 $391 -0.081968161016981345 $271 2.9283403926229252 $267 $392 forward 7 unknown #
coedge $-1 $378 $165 $264 $384 forward $160 $-1 #
vertex $-1 $265 $393 #
vertex $-1 $380 $394 #
straight-curve $-1 0 -22.523906834641853 2.9283403926229252 1 0 0 I I #
face $-1 $-1 $395 $38 $-1 $396 reversed single #
loop $-1 $-1 $173 $167 #
plane-surface $-1 0 0 7.4223652216893772 0 0 1 1 0 0 forward_v I I I I #
coedge $-1 $397 $398 $399 $400 reversed $168 $-1 #
coedge $-1 $401 $170 $172 $283 forward $105 $-1 #
coedge $-1 $170 $401 $397 $402 forward $105 $-1 #
coedge $-1 $399 $173 $170 $280 forward $274 $-1 #
edge $-1 $286 -4.926856642480498 $403 2.1820405071095834 $279 $404 forward 7 unknown #
coedge $-1 $405 $406 $171 $282 forward $395 $-1 #
edge $-1 $407 -34.519638785487288 $285 -28.365665188097879 $281 $408 forward 7 unknown #
edge $-1 $286 -9.5738832376559309 $407 0 $172 $409 forward 7 unknown #
coedge $-1 $173 $399 $405 $410 forward $274 $-1 #
vertex $-1 $282 $411 #
vertex $-1 $174 $412 #
straight-curve $-1 -52.442606427603678 -6.2992647101659553 7.4223652216893754 1 0 0 I I #
coedge $-1 $288 $288 $-1 $413 reversed $177 $-1 #
edge $-1 $414 0 $414 6.2831853071796004 $178 $415 forward 7 unknown #
vertex $-1 $181 $416 #
ellipse-curve $-1 -42.223062333963462 -4.8774852802479387 4.3453784229946724 -0.64278761758704617 0 0.76604443648966558 0.38302221824483279 0 0.32139380879352308 1 I I #
coedge $-1 $292 $292 $-1 $417 reversed $184 $-1 #
edge $-1 $418 0 $418 6.2831853071796004 $185 $419 forward 7 unknown #
vertex $-1 $188 $420 #
ellipse-curve $-1 -42.223062333963462 -2.7448161353709146 4.3453784229946724 -0.64278761758704617 0 0.76604443648966558 0.38302221824483279 0 0.32139380879352308 1 I I #
coedge $-1 $296 $296 $-1 $421 reversed $191 $-1 #
edge $-1 $422 0 $422 6.2831853071796004 $192 $423 forward 7 unknown #
vertex $-1 $195 $424 #
ellipse-curve $-1 -42.223062333963462 -0.61214699049389054 4.3453784229946724 -0.64278761758704617 0 0.76604443648966558 0.38302221824483279 0 0.32139380879352308 1 I I #
face $-1 $-1 $425 $42 $-1 $426 reversed single #
loop $-1 $-1 $202 $196 #
plane-surface $-1 0 0 7.4223652216893772 0 0 1 1 0 0 forward_v I I I I #
coedge $-1 $427 $428 $429 $430 reversed $197 $-1 #
coedge $-1 $431 $199 $201 $310 forward $124 $-1 #
coedge $-1 $199 $431 $427 $432 forward $124 $-1 #
coedge $-1 $429 $202 $199 $307 forward $301 $-1 #
edge $-1 $313 4.7691288015860458 $433 11.878025951176129 $306 $434 forward 7 unknown #
coedge $-1 $435 $436 $200 $309 forward $425 $-1 #
edge $-1 $437 -34.519638785487288 $312 -28.365665188097879 $308 $438 forward 7 unknown #
edge $-1 $313 -9.5738832376559309 $437 0 $201 $439 forward 7 unknown #
coedge $-1 $202 $429 $435 $440 forward $301 $-1 #
vertex $-1 $203 $441 #
vertex $-1 $203 $442 #
straight-curve $-1 -52.442606427603678 13.092706177967132 7.4223652216893754 1 0 0 I I #
coedge $-1 $315 $315 $-1 $443 reversed $206 $-1 #
edge $-1 $444 0 $444 6.2831853071796004 $207 $445 forward 7 unknown #
vertex $-1 $210 $446 #
ellipse-curve $-1 -42.223062333963462 14.514485607885145 4.3453784229946724 -0.64278761758704617 0 0.76604443648966558 0.38302221824483279 0 0.32139380879352308 1 I I #
coedge $-1 $319 $319 $-1 $447 reversed $213 $-1 #
edge $-1 $448 0 $448 6.2831853071796004 $214 $449 forward 7 unknown #
vertex $-1 $217 $450 #
ellipse-curve $-1 -42.223062333963462 16.647154752762173 4.3453784229946724 -0.64278761758704617 0 0.76604443648966558 0.38302221824483279 0 0.32139380879352308 1 I I #
coedge $-1 $323 $323 $-1 $451 reversed $220 $-1 #
edge $-1 $452 0 $452 6.2831853071796004 $221 $453 forward 7 unknown #
vertex $-1 $224 $454 #
ellipse-curve $-1 -42.223062333963462 18.779823897639201 4.3453784229946724 -0.64278761758704617 0 0.76604443648966558 0.38302221824483279 0 0.32139380879352308 1 I I #
face $-1 $-1 $339 $46 $-1 $455 forward single #
loop $-1 $-1 $456 $225 #
plane-surface $-1 45.890072328867461 0 0 -1 0 0 0 0 1 forward_v I I I I #
coedge $-1 $457 $458 $459 $460 reversed $226 $-1 #
coedge $-1 $461 $228 $230 $337 forward $143 $-1 #
coedge $-1 $228 $461 $457 $462 forward $143 $-1 #
coedge $-1 $459 $231 $228 $334 forward $339 $-1 #
edge $-1 $341 1.5947942617990263 $463 10.308425207149874 $333 $464 forward 7 unknown #
coedge $-1 $465 $466 $229 $336 forward $328 $-1 #
edge $-1 $467 -63.643715065115231 $340 -57.467472408563282 $335 $468 forward 7 unknown #
edge $-1 $341 81.517452068219328 $467 91.780144657734951 $230 $469 forward 7 unknown #
coedge $-1 $231 $459 $465 $470 forward $339 $-1 #
loop $-1 $-1 $459 $327 #
vertex $-1 $336 $471 #
vertex $-1 $232 $472 #
straight-curve $-1 13.912930398105111 -7.5464039962734759 7.4223652216893754 -1 0 0 I I #
coedge $-1 $343 $343 $-1 $473 reversed $235 $-1 #
edge $-1 $474 0 $474 6.2831853071796004 $236 $475 forward 7 unknown #
vertex $-1 $239 $476 #
ellipse-curve $-1 41.791996992984565 -11.903219468948899 4.3342438934134098 0.6018150307709319 0 0.79863550430605224 0.79863550430605224 0 -0.6018150307709319 1 I I #
face $-1 $-1 $255 $36 $-1 $477 reversed single #
loop $-1 $-1 $363 $240 #
plane-surface $-1 0 22.523906834641853 0 0 -1 0 0 0 -1 forward_v I I I I #
coedge $-1 $478 $361 $364 $479 forward $241 $-1 #
coedge $-1 $367 $243 $244 $355 reversed $152 $-1 #
coedge $-1 $361 $478 $243 $353 reversed $241 $-1 #
edge $-1 $368 -7.4223652216893772 $480 7.4223652216893772 $352 $481 forward 7 unknown #
coedge $-1 $245 $244 $478 $482 forward $97 $-1 #
edge $-1 $359 -45.890072328867461 $480 45.890072328867461 $351 $483 forward 7 unknown #
coedge $-1 $364 $363 $245 $357 reversed $348 $-1 #
edge $-1 $484 -45.890072328867461 $358 45.890072328867461 $356 $485 forward 7 unknown #
vertex $-1 $247 $486 #
vertex $-1 $370 $487 #
straight-curve $-1 45.890072328867461 0 -7.4223652216893772 0 -1 0 I I #
coedge $-1 $350 $352 $248 $362 reversed $241 $-1 #
edge $-1 $365 -22.523906834641853 $368 22.523906834641853 $361 $488 forward 7 unknown #
coedge $-1 $356 $249 $254 $371 forward $348 $-1 #
coedge $-1 $249 $356 $350 $479 reversed $348 $-1 #
vertex $-1 $250 $489 #
straight-curve $-1 0 22.523906834641853 7.4223652216893772 -1 0 0 I I #
coedge $-1 $251 $351 $253 $370 reversed $152 $-1 #
vertex $-1 $362 $490 #
straight-curve $-1 0 -22.523906834641853 7.4223652216893772 1 0 0 I I #
edge $-1 $256 -7.4223652216893772 $359 7.4223652216893772 $253 $491 forward 7 unknown #
edge $-1 $257 -7.4223652216893772 $358 7.4223652216893772 $254 $492 forward 7 unknown #
point $-1 45.890072328867461 -22.523906834641853 7.4223652216893772 #
point $-1 45.890072328867461 22.523906834641853 7.4223652216893772 #
face $-1 $-1 $390 $37 $-1 $493 reversed single #
loop $-1 $-1 $494 $259 #
plane-surface $-1 0 -28.787778727659383 1.4231861158029719 0 1 0 0 0 1 forward_v I I I I #
coedge $-1 $495 $387 $389 $496 forward $260 $-1 #
coedge $-1 $262 $269 $497 $498 forward $160 $-1 #
coedge $-1 $499 $267 $262 $380 reversed $390 $-1 #
edge $-1 $500 -3.1319359465087651 $271 3.1319359465087651 $379 $501 forward 7 unknown #
coedge $-1 $264 $263 $494 $502 reversed $101 $-1 #
coedge $-1 $387 $495 $263 $383 forward $260 $-1 #
edge $-1 $503 -3.1319359465087651 $385 3.1319359465087651 $263 $504 forward 7 unknown #
edge $-1 $270 -3.1319359465087651 $505 3.1319359465087651 $264 $506 forward 7 unknown #
vertex $-1 $265 $507 #
straight-curve $-1 -45.890072328867461 -22.523906834641853 0 0 0 -1 I I #
coedge $-1 $377 $382 $266 $388 reversed $260 $-1 #
edge $-1 $391 -45.890072328867461 $385 45.890072328867461 $387 $508 forward 7 unknown #
coedge $-1 $267 $499 $377 $496 reversed $390 $-1 #
loop $-1 $-1 $267 $374 #
vertex $-1 $268 $509 #
straight-curve $-1 45.890072328867461 -22.523906834641853 0 0 0 1 I I #
point $-1 -45.890072328867461 -22.523906834641853 2.9283403926229252 #
point $-1 45.890072328867461 -22.523906834641853 2.9283403926229252 #
loop $-1 $-1 $281 $273 #
plane-surface $-1 -45.890072328867461 0 0 1 0 0 0 0 -1 forward_v I I I I #
coedge $-1 $398 $276 $278 $402 reversed $168 $-1 #
coedge $-1 $276 $397 $510 $511 reversed $168 $-1 #
coedge $-1 $284 $279 $276 $400 forward $274 $-1 #
edge $-1 $403 -13.886554088544209 $512 -6.5525340987362171 $399 $513 forward 7 unknown #
coedge $-1 $278 $277 $406 $514 reversed $105 $-1 #
edge $-1 $515 0 $403 9.5738832376559309 $397 $516 forward 7 unknown #
vertex $-1 $280 $517 #
straight-curve $-1 -38.556052339059462 -1.3724080676854573 7.4223652216893781 0 1 0 I I #
coedge $-1 $510 $281 $284 $410 reversed $395 $-1 #
coedge $-1 $281 $510 $401 $514 forward $395 $-1 #
vertex $-1 $282 $518 #
straight-curve $-1 -45.890072328867461 -6.2992647101659553 35.788030409787254 0 0 1 I I #
straight-curve $-1 -45.890072328867461 -6.2992647101659553 1.2683916242999658 -0.76604443648966558 0 -0.64278761758704617 I I #
edge $-1 $512 -0.8096324394241261 $285 6.2992647101659553 $405 $519 forward 7 unknown #
point $-1 -45.890072328867461 -6.2992647101659553 7.4223652216893772 #
point $-1 -38.55605233905947 -6.2992647101659553 7.4223652216893781 #
edge $-1 $520 1 $520 0 $288 $-1 forward 7 unknown #
vertex $-1 $289 $521 #
ellipse-curve $-1 -41.580274716376415 -4.8774852802479387 3.579333986505004 -0.64278761758704617 0 0.76604443648966558 0.38302221824483279 0 0.32139380879352308 1 I I #
point $-1 -41.840040115718629 -4.8774852802479387 4.666772231788193 #
edge $-1 $522 1 $522 0 $292 $-1 forward 7 unknown #
vertex $-1 $293 $523 #
ellipse-curve $-1 -41.580274716376415 -2.7448161353709146 3.579333986505004 -0.64278761758704617 0 0.76604443648966558 0.38302221824483279 0 0.32139380879352308 1 I I #
point $-1 -41.840040115718629 -2.7448161353709146 4.666772231788193 #
edge $-1 $524 1 $524 0 $296 $-1 forward 7 unknown #
vertex $-1 $297 $525 #
ellipse-curve $-1 -41.580274716376415 -0.61214699049389054 3.579333986505004 -0.64278761758704617 0 0.76604443648966558 0.38302221824483279 0 0.32139380879352308 1 I I #
point $-1 -41.840040115718629 -0.61214699049389054 4.666772231788193 #
loop $-1 $-1 $308 $300 #
plane-surface $-1 -45.890072328867461 0 0 1 0 0 0 0 -1 forward_v I I I I #
coedge $-1 $428 $303 $305 $432 reversed $197 $-1 #
coedge $-1 $303 $427 $526 $527 reversed $197 $-1 #
coedge $-1 $311 $306 $303 $430 forward $301 $-1 #
edge $-1 $433 -13.886554088544209 $528 -6.5525340987362171 $429 $529 forward 7 unknown #
coedge $-1 $305 $304 $436 $530 reversed $124 $-1 #
edge $-1 $531 0 $433 9.5738832376559309 $427 $532 forward 7 unknown #
vertex $-1 $307 $533 #
straight-curve $-1 -38.556052339059462 8.3235773763810865 7.4223652216893781 0 1 0 I I #
coedge $-1 $526 $308 $311 $440 reversed $425 $-1 #
coedge $-1 $308 $526 $431 $530 forward $425 $-1 #
vertex $-1 $309 $534 #
straight-curve $-1 -45.890072328867461 13.092706177967132 35.788030409787254 0 0 1 I I #
straight-curve $-1 -45.890072328867461 13.092706177967132 1.2683916242999658 -0.76604443648966558 0 -0.64278761758704617 I I #
edge $-1 $528 -20.201603327557216 $312 -13.092706177967132 $435 $535 forward 7 unknown #
point $-1 -45.890072328867461 13.092706177967132 7.4223652216893772 #
point $-1 -38.55605233905947 13.092706177967132 7.4223652216893781 #
edge $-1 $536 1 $536 0 $315 $-1 forward 7 unknown #
vertex $-1 $316 $537 #
ellipse-curve $-1 -41.580274716376415 14.514485607885145 3.579333986505004 -0.64278761758704617 0 0.76604443648966558 0.38302221824483279 0 0.32139380879352308 1 I I #
point $-1 -41.840040115718629 14.514485607885145 4.666772231788193 #
edge $-1 $538 1 $538 0 $319 $-1 forward 7 unknown #
vertex $-1 $320 $539 #
ellipse-curve $-1 -41.580274716376415 16.647154752762173 3.579333986505004 -0.64278761758704617 0 0.76604443648966558 0.38302221824483279 0 0.32139380879352308 1 I I #
point $-1 -41.840040115718629 16.647154752762173 4.666772231788193 #
edge $-1 $540 1 $540 0 $323 $-1 forward 7 unknown #
vertex $-1 $324 $541 #
ellipse-curve $-1 -41.580274716376415 18.779823897639201 3.579333986505004 -0.64278761758704617 0 0.76604443648966558 0.38302221824483279 0 0.32139380879352308 1 I I #
point $-1 -41.840040115718629 18.779823897639201 4.666772231788193 #
plane-surface $-1 0 0 7.4223652216893772 0 0 1 1 0 0 forward_v I I I I #
coedge $-1 $466 $465 $458 $542 forward $328 $-1 #
coedge $-1 $458 $330 $332 $462 reversed $226 $-1 #
coedge $-1 $330 $457 $456 $542 reversed $226 $-1 #
coedge $-1 $338 $333 $330 $460 forward $339 $-1 #
edge $-1 $463 23.780991258996565 $543 31.97714193076235 $459 $544 forward 7 unknown #
coedge $-1 $332 $331 $466 $545 reversed $143 $-1 #
edge $-1 $546 -91.780144657734951 $463 -81.517452068219328 $457 $547 forward 7 unknown #
vertex $-1 $334 $548 #
straight-curve $-1 37.693921657101669 -5.9516097344744496 7.4223652216893754 0 -1 0 I I #
coedge $-1 $456 $335 $338 $470 reversed $328 $-1 #
coedge $-1 $335 $456 $461 $545 forward $328 $-1 #
vertex $-1 $336 $549 #
straight-curve $-1 45.890072328867461 -7.5464039962734759 64.889837630252657 0 0 1 I I #
straight-curve $-1 -27.408809785145102 -7.5464039962734759 56.480793146492758 0.79863550430605224 0 -0.6018150307709319 I I #
edge $-1 $543 -16.260034941624323 $340 -7.5464039962734759 $465 $550 forward 7 unknown #
point $-1 45.890072328867461 -7.5464039962734759 7.4223652216893772 #
point $-1 37.693921657101676 -7.5464039962734759 7.4223652216893754 #
edge $-1 $551 1 $551 0 $343 $-1 forward 7 unknown #
vertex $-1 $344 $552 #
ellipse-curve $-1 40.741947585372152 -11.903219468948899 2.9407812922541368 0.6018150307709319 0 0.79863550430605224 0.79863550430605224 0 -0.6018150307709319 1 I I #
point $-1 42.590632497290606 -11.903219468948899 3.7324288626424695 #
plane-surface $-1 45.890072328867461 0 0 -1 0 0 0 0 1 forward_v I I I I #
coedge $-1 $352 $350 $354 $482 reversed $241 $-1 #
edge $-1 $365 -7.4223652216893772 $484 7.4223652216893772 $364 $553 forward 7 unknown #
vertex $-1 $482 $554 #
straight-curve $-1 -45.890072328867461 -22.523906834641853 0 0 0 -1 I I #
edge $-1 $480 -22.523906834641853 $484 22.523906834641853 $478 $555 forward 7 unknown #
straight-curve $-1 0 -22.523906834641853 -7.4223652216893772 -1 0 0 I I #
vertex $-1 $357 $556 #
straight-curve $-1 0 22.523906834641853 -7.4223652216893772 1 0 0 I I #
point $-1 45.890072328867461 22.523906834641853 -7.4223652216893772 #
point $-1 45.890072328867461 -22.523906834641853 -7.4223652216893772 #
straight-curve $-1 -45.890072328867461 0 7.4223652216893772 0 -1 0 I I #
point $-1 -45.890072328867461 22.523906834641853 7.4223652216893772 #
point $-1 -45.890072328867461 -22.523906834641853 7.4223652216893772 #
straight-curve $-1 45.890072328867461 -22.523906834641853 0 0 0 -1 I I #
straight-curve $-1 45.890072328867461 22.523906834641853 0 0 0 -1 I I #
plane-surface $-1 45.890072328867461 0 0 -1 0 0 0 0 1 forward_v I I I I #
coedge $-1 $557 $497 $381 $502 forward $375 $-1 #
coedge $-1 $382 $377 $557 $558 forward $260 $-1 #
edge $-1 $391 -3.1319359465087651 $559 3.1319359465087651 $389 $560 forward 7 unknown #
coedge $-1 $494 $561 $378 $498 reversed $375 $-1 #
edge $-1 $505 -45.890072328867461 $500 45.890072328867461 $497 $562 forward 7 unknown #
coedge $-1 $389 $379 $561 $563 forward $390 $-1 #
vertex $-1 $380 $564 #
straight-curve $-1 45.890072328867461 -25.655842781150618 2.9283403926229252 0 1 0 I I #
edge $-1 $505 -1.5051542768199533 $503 1.5051542768199533 $381 $565 forward 7 unknown #
vertex $-1 $383 $566 #
straight-curve $-1 -45.890072328867461 -25.655842781150618 -0.081968161016981345 0 1 0 I I #
vertex $-1 $384 $567 #
straight-curve $-1 -45.890072328867461 -25.655842781150618 2.9283403926229252 0 -1 0 I I #
point $-1 -45.890072328867461 -22.523906834641853 -0.081968161016981345 #
straight-curve $-1 0 -22.523906834641853 -0.081968161016981345 -1 0 0 I I #
point $-1 45.890072328867461 -22.523906834641853 -0.081968161016981345 #
coedge $-1 $406 $405 $398 $511 forward $395 $-1 #
edge $-1 $512 28.365665188097879 $515 34.519638785487288 $510 $568 forward 7 unknown #
vertex $-1 $410 $569 #
straight-curve $-1 -52.442606427603678 0.8096324394241261 7.4223652216893754 -1 0 0 I I #
edge $-1 $515 -2.1820405071095834 $407 4.926856642480498 $406 $570 forward 7 unknown #
vertex $-1 $514 $571 #
straight-curve $-1 -45.890072328867461 0.8096324394241261 1.2683916242999658 0.76604443648966558 0 0.64278761758704617 I I #
point $-1 -38.55605233905947 0.8096324394241261 7.4223652216893781 #
point $-1 -45.890072328867461 -6.2992647101659553 1.2683916242999658 #
straight-curve $-1 -45.890072328867461 0 7.4223652216893772 0 -1 0 I I #
vertex $-1 $413 $572 #
point $-1 -41.197252498131583 -4.8774852802479387 3.9007277952985273 #
vertex $-1 $417 $573 #
point $-1 -41.197252498131583 -2.7448161353709146 3.9007277952985273 #
vertex $-1 $421 $574 #
point $-1 -41.197252498131583 -0.61214699049389054 3.9007277952985273 #
coedge $-1 $436 $435 $428 $527 forward $425 $-1 #
edge $-1 $528 28.365665188097879 $531 34.519638785487288 $526 $575 forward 7 unknown #
vertex $-1 $440 $576 #
straight-curve $-1 -52.442606427603678 20.201603327557216 7.4223652216893754 -1 0 0 I I #
edge $-1 $531 -11.878025951176129 $437 -4.7691288015860458 $436 $577 forward 7 unknown #
vertex $-1 $530 $578 #
straight-curve $-1 -45.890072328867461 20.201603327557216 1.2683916242999658 0.76604443648966558 0 0.64278761758704617 I I #
point $-1 -38.55605233905947 20.201603327557216 7.4223652216893781 #
point $-1 -45.890072328867461 13.092706177967132 1.2683916242999658 #
straight-curve $-1 -45.890072328867461 0 7.4223652216893772 0 -1 0 I I #
vertex $-1 $443 $579 #
point $-1 -41.197252498131583 14.514485607885145 3.9007277952985273 #
vertex $-1 $447 $580 #
point $-1 -41.197252498131583 16.647154752762173 3.9007277952985273 #
vertex $-1 $451 $581 #
point $-1 -41.197252498131583 18.779823897639201 3.9007277952985273 #
edge $-1 $543 57.467472408563282 $546 63.643715065115231 $456 $582 forward 7 unknown #
vertex $-1 $470 $583 #
straight-curve $-1 13.912930398105111 -16.260034941624323 7.4223652216893754 1 0 0 I I #
edge $-1 $546 -10.308425207149874 $467 -1.5947942617990263 $466 $584 forward 7 unknown #
vertex $-1 $545 $585 #
straight-curve $-1 -27.408809785145102 -16.260034941624323 56.480793146492758 -0.79863550430605224 0 0.6018150307709319 I I #
point $-1 37.693921657101676 -16.260034941624323 7.4223652216893754 #
point $-1 45.890072328867468 -7.5464039962734759 1.2461225651374264 #
straight-curve $-1 45.890072328867461 0 7.4223652216893772 0 1 0 I I #
vertex $-1 $473 $586 #
point $-1 41.540583089678201 -11.903219468948899 2.338966261483205 #
straight-curve $-1 -45.890072328867461 22.523906834641853 0 0 0 -1 I I #
point $-1 -45.890072328867461 -22.523906834641853 -7.4223652216893772 #
straight-curve $-1 -45.890072328867461 0 -7.4223652216893772 0 1 0 I I #
point $-1 -45.890072328867461 22.523906834641853 -7.4223652216893772 #
coedge $-1 $561 $494 $495 $558 reversed $375 $-1 #
edge $-1 $559 -45.890072328867461 $503 45.890072328867461 $557 $587 forward 7 unknown #
vertex $-1 $563 $588 #
straight-curve $-1 45.890072328867461 -25.655842781150618 -0.081968161016981345 0 -1 0 I I #
coedge $-1 $497 $557 $499 $563 reversed $375 $-1 #
straight-curve $-1 0 -28.787778727659383 2.9283403926229252 1 0 0 I I #
edge $-1 $500 -1.5051542768199533 $559 1.5051542768199533 $499 $589 forward 7 unknown #
point $-1 45.890072328867461 -28.787778727659383 2.9283403926229252 #
straight-curve $-1 -45.890072328867461 -28.787778727659383 1.4231861158029719 0 0 -1 I I #
point $-1 -45.890072328867461 -28.787778727659383 -0.081968161016981345 #
point $-1 -45.890072328867461 -28.787778727659383 2.9283403926229252 #
straight-curve $-1 -45.890072328867461 0.8096324394241261 35.788030409787254 0 0 -1 I I #
point $-1 -45.890072328867461 0.8096324394241261 7.4223652216893772 #
straight-curve $-1 -45.890072328867461 -1.3724080676854573 1.2683916242999658 0 -1 0 I I #
point $-1 -45.890072328867461 0.8096324394241261 1.2683916242999658 #
point $-1 -41.258880907582899 -4.8774852802479387 3.1963117682601716 #
point $-1 -41.258880907582899 -2.7448161353709146 3.1963117682601716 #
point $-1 -41.258880907582899 -0.61214699049389054 3.1963117682601716 #
straight-curve $-1 -45.890072328867461 20.201603327557216 35.788030409787254 0 0 -1 I I #
point $-1 -45.890072328867461 20.201603327557216 7.4223652216893772 #
straight-curve $-1 -45.890072328867461 8.3235773763810865 1.2683916242999658 0 -1 0 I I #
point $-1 -45.890072328867461 20.201603327557216 1.2683916242999658 #
point $-1 -41.258880907582899 14.514485607885145 3.1963117682601716 #
point $-1 -41.258880907582899 16.647154752762173 3.1963117682601716 #
point $-1 -41.258880907582899 18.779823897639201 3.1963117682601716 #
straight-curve $-1 45.890072328867461 -16.260034941624323 64.889837630252657 0 0 -1 I I #
point $-1 45.890072328867461 -16.260034941624323 7.4223652216893772 #
straight-curve $-1 45.890072328867461 -5.9516097344744496 1.2461225651374299 0 1 0 I I #
point $-1 45.890072328867468 -16.260034941624323 1.2461225651374264 #
point $-1 40.140132554601216 -11.903219468948899 2.1421457879480847 #
straight-curve $-1 0 -28.787778727659383 -0.081968161016981345 -1 0 0 I I #
point $-1 45.890072328867461 -28.787778727659383 -0.081968161016981345 #
straight-curve $-1 45.890072328867461 -28.787778727659383 1.4231861158029719 0 0 -1 I I #
End-of-ACIS-data 