500 0 8 0           
7 Unknown 11 ACIS 5.0 NT 24 Fri Mar 26 17:19:27 1999 
-1 9.9999999999999995e-007 1e-010 
body $-1 $8 $-1 $9 #
body $-1 $10 $-1 $11 #
body $-1 $12 $-1 $13 #
body $-1 $14 $-1 $15 #
body $-1 $16 $-1 $17 #
body $-1 $18 $-1 $19 #
body $-1 $20 $-1 $21 #
body $-1 $22 $-1 $23 #
lump $-1 $-1 $24 $0 #
transform $-1 1 0 0 0 1 0 0 0 1 41.607715079195529 26.52699766940648 10.0993972174936 1 rotate no_reflect no_shear #
lump $-1 $-1 $25 $1 #
transform $-1 1 0 0 0 1 0 0 0 1 41.607715079195529 26.52699766940648 10.0993972174936 1 rotate no_reflect no_shear #
lump $-1 $-1 $26 $2 #
transform $-1 1 0 0 0 1 0 0 0 1 41.607715079195529 26.52699766940648 10.0993972174936 1 rotate no_reflect no_shear #
lump $-1 $-1 $27 $3 #
transform $-1 1 0 0 0 1 0 0 0 1 41.607715079195529 26.52699766940648 10.0993972174936 1 rotate no_reflect no_shear #
lump $-1 $-1 $28 $4 #
transform $-1 1 0 0 0 1 0 0 0 1 41.607715079195529 26.52699766940648 10.0993972174936 1 rotate no_reflect no_shear #
lump $-1 $-1 $29 $5 #
transform $-1 1 0 0 0 1 0 0 0 1 41.607715079195529 26.52699766940648 10.0993972174936 1 rotate no_reflect no_shear #
lump $-1 $-1 $30 $6 #
transform $-1 1 0 0 0 1 0 0 0 1 41.607715079195529 26.52699766940648 10.0993972174936 1 rotate no_reflect no_shear #
lump $-1 $-1 $31 $7 #
transform $-1 1 0 0 0 1 0 0 0 1 41.607715079195529 26.52699766940648 10.0993972174936 1 rotate no_reflect no_shear #
shell $-1 $-1 $-1 $32 $-1 $8 #
shell $-1 $-1 $-1 $33 $-1 $10 #
shell $-1 $-1 $-1 $34 $-1 $12 #
shell $-1 $-1 $-1 $35 $-1 $14 #
shell $-1 $-1 $-1 $36 $-1 $16 #
shell $-1 $-1 $-1 $37 $-1 $18 #
shell $-1 $-1 $-1 $38 $-1 $20 #
shell $-1 $-1 $-1 $39 $-1 $22 #
face $-1 $40 $41 $24 $-1 $42 forward single #
face $-1 $43 $44 $25 $-1 $45 reversed single #
face $-1 $46 $47 $26 $-1 $48 forward single #
face $-1 $49 $50 $27 $-1 $51 forward single #
face $-1 $52 $53 $28 $-1 $54 reversed single #
face $-1 $55 $56 $29 $-1 $57 forward single #
face $-1 $58 $59 $30 $-1 $60 forward single #
face $-1 $61 $62 $31 $-1 $63 forward single #
face $-1 $64 $65 $24 $-1 $66 reversed single #
loop $-1 $-1 $67 $32 #
plane-surface $-1 0 0 10.0993972174936 0 0 1 1 0 0 forward_v I I I I #
face $-1 $68 $69 $25 $-1 $70 reversed single #
loop $-1 $-1 $71 $33 #
plane-surface $-1 -11.882131539548709 -19.940709283872835 65.475906116810933 0.7660444514056185 0 0.64278759981090561 0.64278759981090561 0 -0.7660444514056185 forward_v I I I I #
face $-1 $72 $73 $26 $-1 $74 forward single #
loop $-1 $75 $76 $34 #
cone-surface $-1 37.629231120668685 -22.763404306244396 5.5226307896722355 -0.7660444514056185 0 -0.64278759981090561 0.64278759981090561 0 -0.7660444514056185 1 I I 0 1 1 forward I I I I #
face $-1 $77 $78 $27 $-1 $79 forward single #
loop $-1 $80 $81 $35 #
cone-surface $-1 37.629231120668685 -17.118014261501273 5.5226307896722355 -0.7660444514056185 0 -0.64278759981090561 0.64278759981090561 0 -0.7660444514056185 1 I I 0 1 1 forward I I I I #
face $-1 $82 $83 $28 $-1 $84 reversed single #
loop $-1 $-1 $85 $36 #
plane-surface $-1 -111.39804781803932 3.6274267277013141 51.328702829405657 0 1 0 -0.83867057594974714 0 0.54463902268945019 forward_v I I I I #
face $-1 $86 $87 $29 $-1 $88 forward single #
loop $-1 $89 $90 $37 #
cone-surface $-1 -39.66696786975875 5.1880377770411634 7.6556133506870623 0.83867057594974714 0 -0.54463902268945019 0.2723195113447251 0 0.41933528797487357 1 I I 0 1 0.5 forward I I I I #
face $-1 $91 $92 $30 $-1 $93 forward single #
loop $-1 $94 $95 $38 #
cone-surface $-1 -39.66696786975875 7.5289543510509382 7.6556133506870623 0.83867057594974714 0 -0.54463902268945019 0.2723195113447251 0 0.41933528797487357 1 I I 0 1 0.5 forward I I I I #
face $-1 $96 $97 $31 $-1 $98 forward single #
loop $-1 $99 $100 $39 #
cone-surface $-1 -39.66696786975875 9.8698709250607131 7.6556133506870623 0.83867057594974714 0 -0.54463902268945019 0.2723195113447251 0 0.41933528797487357 1 I I 0 1 0.5 forward I I I I #
face $-1 $101 $102 $24 $-1 $103 reversed single #
loop $-1 $-1 $104 $40 #
plane-surface $-1 0 0 -10.0993972174936 0 0 1 1 0 0 forward_v I I I I #
coedge $-1 $105 $106 $107 $108 forward $41 $-1 #
face $-1 $109 $110 $25 $-1 $111 forward single #
loop $-1 $-1 $112 $43 #
plane-surface $-1 51.864587004618528 -13.354420898339191 118.96575273555517 0 -1 0 -0.7660444514056185 0 -0.64278759981090561 forward_v I I I I #
coedge $-1 $113 $114 $115 $116 reversed $44 $-1 #
face $-1 $-1 $117 $26 $-1 $118 forward single #
loop $-1 $119 $120 $46 #
cone-surface $-1 36.779444757433026 -22.763404306244396 4.8095753843703584 -0.7660444514056185 0 -0.64278759981090561 0.3213937999054528 0 -0.38302222570280925 1 I I -0.70710678118654746 0.70710678118654746 0.5 forward I I I I #
loop $-1 $-1 $121 $34 #
coedge $-1 $76 $76 $122 $123 reversed $47 $-1 #
face $-1 $-1 $124 $27 $-1 $125 forward single #
loop $-1 $126 $127 $49 #
cone-surface $-1 36.779444757433026 -17.118014261501273 4.8095753843703584 -0.7660444514056185 0 -0.64278759981090561 0.3213937999054528 0 -0.38302222570280925 1 I I -0.70710678118654746 0.70710678118654746 0.5 forward I I I I #
loop $-1 $-1 $128 $35 #
coedge $-1 $81 $81 $129 $130 reversed $50 $-1 #
face $-1 $131 $132 $28 $-1 $133 reversed single #
loop $-1 $-1 $134 $52 #
plane-surface $-1 -41.607715079195529 7.5289543510509382 6.0063322752573498 -0.83867057594974714 0 0.54463902268945019 0.54463902268945019 0 0.83867057594974714 forward_v I I I I #
coedge $-1 $135 $136 $137 $138 reversed $53 $-1 #
face $-1 $-1 $139 $29 $-1 $140 forward single #
loop $-1 $141 $142 $55 #
cone-surface $-1 -38.845586700042531 5.1880377770411634 7.1222021993262885 0.83867057594974714 0 -0.54463902268945019 0.13615975567236255 0 0.20966764398743679 1 I I -0.70710678118654746 0.70710678118654746 0.25 forward I I I I #
loop $-1 $-1 $143 $37 #
coedge $-1 $90 $90 $144 $145 reversed $56 $-1 #
face $-1 $-1 $146 $30 $-1 $147 forward single #
loop $-1 $148 $149 $58 #
cone-surface $-1 -38.845586700042531 7.5289543510509382 7.1222021993262885 0.83867057594974714 0 -0.54463902268945019 0.13615975567236255 0 0.20966764398743679 1 I I -0.70710678118654746 0.70710678118654746 0.25 forward I I I I #
loop $-1 $-1 $150 $38 #
coedge $-1 $95 $95 $151 $152 reversed $59 $-1 #
face $-1 $-1 $153 $31 $-1 $154 forward single #
loop $-1 $155 $156 $61 #
cone-surface $-1 -38.845586700042531 9.8698709250607131 7.1222021993262885 0.83867057594974714 0 -0.54463902268945019 0.13615975567236255 0 0.20966764398743679 1 I I -0.70710678118654746 0.70710678118654746 0.25 forward I I I I #
loop $-1 $-1 $157 $39 #
coedge $-1 $100 $100 $158 $159 reversed $62 $-1 #
face $-1 $160 $161 $24 $-1 $162 reversed single #
loop $-1 $-1 $163 $64 #
plane-surface $-1 0 -26.52699766940648 0 0 1 0 0 0 1 forward_v I I I I #
coedge $-1 $164 $165 $166 $167 forward $65 $-1 #
coedge $-1 $168 $67 $169 $170 forward $41 $-1 #
coedge $-1 $67 $168 $171 $172 forward $41 $-1 #
coedge $-1 $173 $174 $67 $108 reversed $175 $-1 #
edge $-1 $176 -26.52699766940648 $177 26.52699766940648 $107 $178 forward 7 unknown #
face $-1 $179 $180 $25 $-1 $181 reversed single #
loop $-1 $-1 $182 $68 #
plane-surface $-1 0 0 10.0993972174936 0 0 1 1 0 0 forward_v I I I I #
coedge $-1 $183 $184 $185 $186 reversed $69 $-1 #
coedge $-1 $187 $71 $188 $189 reversed $44 $-1 #
coedge $-1 $71 $187 $183 $190 forward $44 $-1 #
coedge $-1 $185 $191 $71 $116 forward $192 $-1 #
edge $-1 $193 -16.556643027470063 $194 -3.3840662564027735 $115 $195 forward 7 unknown #
loop $-1 $-1 $122 $72 #
plane-surface $-1 -11.882131539548709 -19.940709283872835 65.475906116810933 0.7660444514056185 0 0.64278759981090561 0.64278759981090561 0 -0.7660444514056185 forward_v I I I I #
loop $-1 $-1 $196 $46 #
coedge $-1 $120 $120 $121 $197 reversed $73 $-1 #
coedge $-1 $121 $121 $120 $197 forward $75 $-1 #
coedge $-1 $122 $122 $76 $123 forward $117 $-1 #
edge $-1 $198 0 $198 6.2831853071796004 $122 $199 forward 7 unknown #
loop $-1 $-1 $129 $77 #
plane-surface $-1 -11.882131539548709 -19.940709283872835 65.475906116810933 0.7660444514056185 0 0.64278759981090561 0.64278759981090561 0 -0.7660444514056185 forward_v I I I I #
loop $-1 $-1 $200 $49 #
coedge $-1 $127 $127 $128 $201 reversed $78 $-1 #
coedge $-1 $128 $128 $127 $201 forward $80 $-1 #
coedge $-1 $129 $129 $81 $130 forward $124 $-1 #
edge $-1 $202 0 $202 6.2831853071796004 $129 $203 forward 7 unknown #
face $-1 $204 $205 $28 $-1 $206 reversed single #
loop $-1 $-1 $207 $82 #
plane-surface $-1 -111.39804781803932 11.430481974400562 51.328702829405657 0 -1 0 0.83867057594974714 0 -0.54463902268945019 forward_v I I I I #
coedge $-1 $208 $209 $210 $211 reversed $83 $-1 #
coedge $-1 $136 $85 $212 $213 reversed $53 $-1 #
coedge $-1 $85 $135 $208 $214 reversed $53 $-1 #
coedge $-1 $210 $215 $85 $138 forward $216 $-1 #
edge $-1 $217 14.091308829824129 $218 16.749376197240124 $137 $219 forward 7 unknown #
loop $-1 $-1 $144 $86 #
plane-surface $-1 -41.607715079195529 7.5289543510509382 6.0063322752573498 -0.83867057594974714 0 0.54463902268945019 0.54463902268945019 0 0.83867057594974714 forward_v I I I I #
loop $-1 $-1 $220 $55 #
coedge $-1 $142 $142 $143 $221 reversed $87 $-1 #
coedge $-1 $143 $143 $142 $221 forward $89 $-1 #
coedge $-1 $144 $144 $90 $145 forward $139 $-1 #
edge $-1 $222 0 $222 6.2831853071796004 $144 $223 forward 7 unknown #
loop $-1 $-1 $151 $91 #
plane-surface $-1 -41.607715079195529 7.5289543510509382 6.0063322752573498 -0.83867057594974714 0 0.54463902268945019 0.54463902268945019 0 0.83867057594974714 forward_v I I I I #
loop $-1 $-1 $224 $58 #
coedge $-1 $149 $149 $150 $225 reversed $92 $-1 #
coedge $-1 $150 $150 $149 $225 forward $94 $-1 #
coedge $-1 $151 $151 $95 $152 forward $146 $-1 #
edge $-1 $226 0 $226 6.2831853071796004 $151 $227 forward 7 unknown #
loop $-1 $-1 $158 $96 #
plane-surface $-1 -41.607715079195529 7.5289543510509382 6.0063322752573498 -0.83867057594974714 0 0.54463902268945019 0.54463902268945019 0 0.83867057594974714 forward_v I I I I #
loop $-1 $-1 $228 $61 #
coedge $-1 $156 $156 $157 $229 reversed $97 $-1 #
coedge $-1 $157 $157 $156 $229 forward $99 $-1 #
coedge $-1 $158 $158 $100 $159 forward $153 $-1 #
edge $-1 $230 0 $230 6.2831853071796004 $158 $231 forward 7 unknown #
face $-1 $232 $233 $24 $-1 $234 reversed single #
loop $-1 $-1 $235 $101 #
plane-surface $-1 -41.607715079195529 0 0 1 0 0 0 0 -1 forward_v I I I I #
coedge $-1 $236 $171 $237 $238 forward $102 $-1 #
coedge $-1 $239 $104 $236 $240 forward $65 $-1 #
coedge $-1 $104 $239 $241 $242 forward $65 $-1 #
coedge $-1 $174 $173 $104 $167 reversed $175 $-1 #
edge $-1 $243 -26.52699766940648 $244 26.52699766940648 $166 $245 forward 7 unknown #
coedge $-1 $106 $105 $246 $247 forward $41 $-1 #
coedge $-1 $248 $249 $105 $170 reversed $233 $-1 #
edge $-1 $177 -41.607715079195529 $250 41.607715079195529 $169 $251 forward 7 unknown #
coedge $-1 $163 $252 $106 $172 reversed $102 $-1 #
edge $-1 $253 -41.607715079195529 $176 41.607715079195529 $171 $254 forward 7 unknown #
coedge $-1 $166 $107 $252 $255 forward $175 $-1 #
coedge $-1 $107 $166 $248 $256 reversed $175 $-1 #
loop $-1 $-1 $173 $232 #
vertex $-1 $108 $257 #
vertex $-1 $108 $258 #
straight-curve $-1 41.607715079195529 0 10.0993972174936 0 1 0 I I #
face $-1 $-1 $192 $25 $-1 $259 reversed single #
loop $-1 $-1 $188 $109 #
plane-surface $-1 0 -26.52699766940648 0 0 1 0 0 0 1 forward_v I I I I #
coedge $-1 $260 $261 $184 $262 forward $110 $-1 #
coedge $-1 $184 $112 $114 $190 reversed $69 $-1 #
coedge $-1 $112 $183 $182 $262 reversed $69 $-1 #
coedge $-1 $263 $115 $112 $186 forward $192 $-1 #
edge $-1 $194 -57.75368879513389 $264 -49.383479150283989 $185 $265 forward 7 unknown #
coedge $-1 $114 $113 $260 $266 reversed $44 $-1 #
coedge $-1 $267 $268 $113 $189 forward $180 $-1 #
edge $-1 $269 43.391326895720667 $193 54.317859461149965 $188 $270 forward 7 unknown #
edge $-1 $271 72.288897592961774 $194 83.215430158391072 $183 $272 forward 7 unknown #
coedge $-1 $115 $263 $267 $273 forward $192 $-1 #
loop $-1 $-1 $185 $179 #
vertex $-1 $189 $274 #
vertex $-1 $116 $275 #
straight-curve $-1 41.607715079195522 -9.9703546419364173 1.7291875726436956 0 1 0 I I #
coedge $-1 $196 $196 $-1 $276 reversed $119 $-1 #
edge $-1 $277 0 $277 6.2831853071796004 $120 $278 forward 7 unknown #
vertex $-1 $123 $279 #
ellipse-curve $-1 38.095995258201526 -22.763404306244396 5.914292395068653 0.7660444514056185 0 0.64278759981090561 0.64278759981090561 0 -0.7660444514056185 1 I I #
coedge $-1 $200 $200 $-1 $280 reversed $126 $-1 #
edge $-1 $281 0 $281 6.2831853071796004 $127 $282 forward 7 unknown #
vertex $-1 $130 $283 #
ellipse-curve $-1 38.095995258201526 -17.118014261501273 5.914292395068653 0.7660444514056185 0 0.64278759981090561 0.64278759981090561 0 -0.7660444514056185 1 I I #
face $-1 $-1 $216 $28 $-1 $284 forward single #
loop $-1 $-1 $285 $131 #
plane-surface $-1 -41.607715079195529 0 0 1 0 0 0 0 -1 forward_v I I I I #
coedge $-1 $286 $287 $288 $289 reversed $132 $-1 #
coedge $-1 $290 $134 $136 $214 forward $83 $-1 #
coedge $-1 $134 $290 $286 $291 forward $83 $-1 #
coedge $-1 $288 $137 $134 $211 forward $216 $-1 #
edge $-1 $218 -0.13705044782415499 $292 7.6660047988750932 $210 $293 forward 7 unknown #
coedge $-1 $294 $295 $135 $213 forward $205 $-1 #
edge $-1 $296 -19.658019139445479 $217 -15.564954197209229 $212 $297 forward 7 unknown #
edge $-1 $218 -4.8804203457371615 $296 0 $136 $298 forward 7 unknown #
coedge $-1 $137 $288 $294 $299 forward $216 $-1 #
loop $-1 $-1 $288 $204 #
vertex $-1 $213 $300 #
vertex $-1 $138 $301 #
straight-curve $-1 -55.699023909019658 3.6274267277013141 10.0993972174936 1 0 0 I I #
coedge $-1 $220 $220 $-1 $302 reversed $141 $-1 #
edge $-1 $303 0 $303 6.2831853071796004 $142 $304 forward 7 unknown #
vertex $-1 $145 $305 #
ellipse-curve $-1 -40.278681395487531 5.1880377770411634 8.0528647463754748 -0.83867057594974714 0 0.54463902268945019 0.2723195113447251 0 0.41933528797487357 1 I I #
coedge $-1 $224 $224 $-1 $306 reversed $148 $-1 #
edge $-1 $307 0 $307 6.2831853071796004 $149 $308 forward 7 unknown #
vertex $-1 $152 $309 #
ellipse-curve $-1 -40.278681395487531 7.5289543510509382 8.0528647463754748 -0.83867057594974714 0 0.54463902268945019 0.2723195113447251 0 0.41933528797487357 1 I I #
coedge $-1 $228 $228 $-1 $310 reversed $155 $-1 #
edge $-1 $311 0 $311 6.2831853071796004 $156 $312 forward 7 unknown #
vertex $-1 $159 $313 #
ellipse-curve $-1 -40.278681395487531 9.8698709250607131 8.0528647463754748 -0.83867057594974714 0 0.54463902268945019 0.2723195113447251 0 0.41933528797487357 1 I I #
face $-1 $-1 $175 $24 $-1 $314 reversed single #
loop $-1 $-1 $248 $160 #
plane-surface $-1 0 26.52699766940648 0 0 -1 0 0 0 -1 forward_v I I I I #
coedge $-1 $315 $246 $249 $316 forward $161 $-1 #
coedge $-1 $252 $163 $164 $240 reversed $102 $-1 #
coedge $-1 $246 $315 $163 $238 reversed $161 $-1 #
edge $-1 $253 -10.0993972174936 $317 10.0993972174936 $237 $318 forward 7 unknown #
coedge $-1 $165 $164 $315 $319 forward $65 $-1 #
edge $-1 $244 -41.607715079195529 $317 41.607715079195529 $236 $320 forward 7 unknown #
coedge $-1 $249 $248 $165 $242 reversed $233 $-1 #
edge $-1 $321 -41.607715079195529 $243 41.607715079195529 $241 $322 forward 7 unknown #
vertex $-1 $167 $323 #
vertex $-1 $255 $324 #
straight-curve $-1 41.607715079195529 0 -10.0993972174936 0 -1 0 I I #
coedge $-1 $235 $237 $168 $247 reversed $161 $-1 #
edge $-1 $250 -26.52699766940648 $253 26.52699766940648 $246 $325 forward 7 unknown #
coedge $-1 $241 $169 $174 $256 forward $233 $-1 #
coedge $-1 $169 $241 $235 $316 reversed $233 $-1 #
vertex $-1 $170 $326 #
straight-curve $-1 0 26.52699766940648 10.0993972174936 -1 0 0 I I #
coedge $-1 $171 $236 $173 $255 reversed $102 $-1 #
vertex $-1 $247 $327 #
straight-curve $-1 0 -26.52699766940648 10.0993972174936 1 0 0 I I #
edge $-1 $176 -10.0993972174936 $244 10.0993972174936 $173 $328 forward 7 unknown #
edge $-1 $177 -10.0993972174936 $243 10.0993972174936 $174 $329 forward 7 unknown #
point $-1 41.607715079195529 -26.52699766940648 10.0993972174936 #
point $-1 41.607715079195529 26.52699766940648 10.0993972174936 #
plane-surface $-1 41.607715079195529 0 0 -1 0 0 0 0 1 forward_v I I I I #
coedge $-1 $330 $182 $187 $266 forward $110 $-1 #
coedge $-1 $182 $330 $263 $331 forward $110 $-1 #
edge $-1 $264 -15.675421576886265 $271 -8.6519819348982665 $182 $332 forward 7 unknown #
coedge $-1 $191 $185 $261 $331 reversed $192 $-1 #
vertex $-1 $186 $333 #
straight-curve $-1 41.607715079195529 -13.354420898339191 59.482876367777585 0 0 1 I I #
edge $-1 $271 3.3840662564027735 $269 16.556643027470059 $260 $334 forward 7 unknown #
coedge $-1 $268 $188 $191 $273 reversed $180 $-1 #
coedge $-1 $188 $267 $330 $335 reversed $180 $-1 #
vertex $-1 $335 $336 #
straight-curve $-1 6.6928685692968521 -26.52699766940648 43.339082425087803 0.64278759981090572 0 -0.76604445140561861 I I #
vertex $-1 $266 $337 #
straight-curve $-1 -11.882131539548709 -13.354420898339191 65.475906116810933 0.64278759981090561 0 -0.7660444514056185 I I #
edge $-1 $338 -10.0993972174936 $193 -1.7291875726436927 $191 $339 forward 7 unknown #
point $-1 41.607715079195529 -26.52699766940648 1.7291875726436927 #
point $-1 41.607715079195529 -13.354420898339191 1.7291875726436956 #
edge $-1 $340 1 $340 0 $196 $-1 forward 7 unknown #
vertex $-1 $197 $341 #
ellipse-curve $-1 37.162466983135836 -22.763404306244396 5.1309691842758109 0.7660444514056185 0 0.64278759981090561 0.64278759981090561 0 -0.7660444514056185 1 I I #
point $-1 38.738782858012442 -22.763404306244396 5.1482479436630415 #
edge $-1 $342 1 $342 0 $200 $-1 forward 7 unknown #
vertex $-1 $201 $343 #
ellipse-curve $-1 37.162466983135836 -17.118014261501273 5.1309691842758109 0.7660444514056185 0 0.64278759981090561 0.64278759981090561 0 -0.7660444514056185 1 I I #
point $-1 38.738782858012442 -17.118014261501273 5.1482479436630415 #
plane-surface $-1 0 0 10.0993972174936 0 0 1 1 0 0 forward_v I I I I #
coedge $-1 $295 $294 $287 $344 forward $205 $-1 #
coedge $-1 $287 $207 $209 $291 reversed $132 $-1 #
coedge $-1 $207 $286 $285 $344 reversed $132 $-1 #
coedge $-1 $215 $210 $207 $289 forward $216 $-1 #
edge $-1 $292 -16.749376197240124 $345 -14.091308829824129 $288 $346 forward 7 unknown #
coedge $-1 $209 $208 $295 $347 reversed $83 $-1 #
edge $-1 $348 0 $292 4.8804203457371615 $286 $349 forward 7 unknown #
vertex $-1 $211 $350 #
straight-curve $-1 -38.949647711779534 3.7644771755254691 10.0993972174936 0 1 0 I I #
coedge $-1 $285 $212 $215 $299 reversed $205 $-1 #
coedge $-1 $212 $285 $290 $347 forward $205 $-1 #
vertex $-1 $213 $351 #
straight-curve $-1 -41.607715079195529 3.6274267277013141 25.664351414702828 0 0 1 I I #
straight-curve $-1 -41.607715079195529 3.6274267277013141 6.0063322752573498 -0.54463902268945019 0 -0.83867057594974714 I I #
edge $-1 $345 -11.430481974400562 $217 -3.6274267277013141 $294 $352 forward 7 unknown #
point $-1 -41.607715079195529 3.6274267277013141 10.0993972174936 #
point $-1 -38.949647711779534 3.6274267277013141 10.0993972174936 #
edge $-1 $353 1 $353 0 $220 $-1 forward 7 unknown #
vertex $-1 $221 $354 #
ellipse-curve $-1 -39.055254344029969 5.1880377770411634 7.2583619549986507 -0.83867057594974714 0 0.54463902268945019 0.2723195113447251 0 0.41933528797487357 1 I I #
point $-1 -40.006361884142805 5.1880377770411634 8.4722000343503474 #
edge $-1 $355 1 $355 0 $224 $-1 forward 7 unknown #
vertex $-1 $225 $356 #
ellipse-curve $-1 -39.055254344029969 7.5289543510509382 7.2583619549986507 -0.83867057594974714 0 0.54463902268945019 0.2723195113447251 0 0.41933528797487357 1 I I #
point $-1 -40.006361884142805 7.5289543510509382 8.4722000343503474 #
edge $-1 $357 1 $357 0 $228 $-1 forward 7 unknown #
vertex $-1 $229 $358 #
ellipse-curve $-1 -39.055254344029969 9.8698709250607131 7.2583619549986507 -0.83867057594974714 0 0.54463902268945019 0.2723195113447251 0 0.41933528797487357 1 I I #
point $-1 -40.006361884142805 9.8698709250607131 8.4722000343503474 #
plane-surface $-1 41.607715079195529 0 0 -1 0 0 0 0 1 forward_v I I I I #
coedge $-1 $237 $235 $239 $319 reversed $161 $-1 #
edge $-1 $250 -10.0993972174936 $321 10.0993972174936 $249 $359 forward 7 unknown #
vertex $-1 $319 $360 #
straight-curve $-1 -41.607715079195529 -26.52699766940648 0 0 0 -1 I I #
edge $-1 $317 -26.52699766940648 $321 26.52699766940648 $315 $361 forward 7 unknown #
straight-curve $-1 0 -26.52699766940648 -10.0993972174936 -1 0 0 I I #
vertex $-1 $242 $362 #
straight-curve $-1 0 26.52699766940648 -10.0993972174936 1 0 0 I I #
point $-1 41.607715079195529 26.52699766940648 -10.0993972174936 #
point $-1 41.607715079195529 -26.52699766940648 -10.0993972174936 #
straight-curve $-1 -41.607715079195529 0 10.0993972174936 0 -1 0 I I #
point $-1 -41.607715079195529 26.52699766940648 10.0993972174936 #
point $-1 -41.607715079195529 -26.52699766940648 10.0993972174936 #
straight-curve $-1 41.607715079195529 -26.52699766940648 0 0 0 -1 I I #
straight-curve $-1 41.607715079195529 26.52699766940648 0 0 0 -1 I I #
coedge $-1 $261 $260 $268 $335 forward $110 $-1 #
edge $-1 $338 -26.52699766940648 $264 -13.354420898339191 $263 $363 forward 7 unknown #
straight-curve $-1 25.932293502309264 -13.354420898339191 10.099397217493603 -1 0 0 I I #
point $-1 41.607715079195529 -13.354420898339191 10.0993972174936 #
straight-curve $-1 34.584275437207538 -9.9703546419364173 10.099397217493603 0 -1 0 I I #
edge $-1 $269 34.584275437207531 $338 41.607715079195529 $268 $364 forward 7 unknown #
point $-1 34.584275437207531 -26.526997669406477 10.09939721749361 #
point $-1 34.584275437207531 -13.354420898339191 10.09939721749361 #
vertex $-1 $331 $365 #
straight-curve $-1 41.607715079195529 -26.52699766940648 0 0 0 -1 I I #
vertex $-1 $276 $366 #
point $-1 37.805254582946745 -22.763404306244396 4.3649247328701923 #
vertex $-1 $280 $367 #
point $-1 37.805254582946745 -17.118014261501273 4.3649247328701923 #
edge $-1 $345 15.564954197209229 $348 19.658019139445479 $285 $368 forward 7 unknown #
vertex $-1 $299 $369 #
straight-curve $-1 -55.699023909019658 11.430481974400562 10.0993972174936 -1 0 0 I I #
edge $-1 $348 -7.6660047988750932 $296 0.13705044782415499 $295 $370 forward 7 unknown #
vertex $-1 $347 $371 #
straight-curve $-1 -41.607715079195529 11.430481974400562 6.0063322752573498 0.54463902268945019 0 0.83867057594974714 I I #
point $-1 -38.949647711779534 11.430481974400562 10.0993972174936 #
point $-1 -41.607715079195529 3.6274267277013141 6.0063322752573498 #
straight-curve $-1 -41.607715079195529 0 10.0993972174936 0 -1 0 I I #
vertex $-1 $302 $372 #
point $-1 -38.782934832685243 5.1880377770411634 7.6776972429735242 #
vertex $-1 $306 $373 #
point $-1 -38.782934832685243 7.5289543510509382 7.6776972429735242 #
vertex $-1 $310 $374 #
point $-1 -38.782934832685243 9.8698709250607131 7.6776972429735242 #
straight-curve $-1 -41.607715079195529 26.52699766940648 0 0 0 -1 I I #
point $-1 -41.607715079195529 -26.52699766940648 -10.0993972174936 #
straight-curve $-1 -41.607715079195529 0 -10.0993972174936 0 1 0 I I #
point $-1 -41.607715079195529 26.52699766940648 -10.0993972174936 #
straight-curve $-1 41.607715079195529 0 10.0993972174936 0 1 0 I I #
straight-curve $-1 0 -26.52699766940648 10.0993972174936 1 0 0 I I #
point $-1 41.607715079195529 -26.52699766940648 10.0993972174936 #
point $-1 36.396422531730217 -22.763404306244396 4.4881815844649058 #
point $-1 36.396422531730217 -17.118014261501273 4.4881815844649058 #
straight-curve $-1 -41.607715079195529 11.430481974400562 25.664351414702828 0 0 -1 I I #
point $-1 -41.607715079195529 11.430481974400562 10.0993972174936 #
straight-curve $-1 -41.607715079195529 3.7644771755254691 6.0063322752573534 0 -1 0 I I #
point $-1 -41.607715079195529 11.430481974400562 6.0063322752573498 #
point $-1 -38.635919056055094 5.1880377770411634 6.9860424436539263 #
point $-1 -38.635919056055094 7.5289543510509382 6.9860424436539263 #
point $-1 -38.635919056055094 9.8698709250607131 6.9860424436539263 #
End-of-ACIS-data 