500 0 11 0           
7 Unknown 11 ACIS 5.0 NT 24 Thu Mar 25 15:19:06 1999 
-1 9.9999999999999995e-007 1e-010 
body $-1 $11 $-1 $12 #
body $-1 $13 $-1 $14 #
body $-1 $15 $-1 $16 #
body $-1 $17 $-1 $18 #
body $-1 $19 $-1 $20 #
body $-1 $21 $-1 $22 #
body $-1 $23 $-1 $24 #
body $-1 $25 $-1 $26 #
body $-1 $27 $-1 $28 #
body $-1 $29 $-1 $30 #
body $-1 $31 $-1 $32 #
lump $-1 $-1 $33 $0 #
transform $-1 1 0 0 0 1 0 0 0 1 62.429883724478898 31.495397164349601 7.129261461461148 1 rotate no_reflect no_shear #
lump $-1 $-1 $34 $1 #
transform $-1 1 0 0 0 1 0 0 0 1 62.429883724478898 31.495397164349601 7.129261461461148 1 rotate no_reflect no_shear #
lump $-1 $-1 $35 $2 #
transform $-1 1 0 0 0 1 0 0 0 1 62.429883724478898 31.495397164349601 7.129261461461148 1 rotate no_reflect no_shear #
lump $-1 $-1 $36 $3 #
transform $-1 1 0 0 0 1 0 0 0 1 62.429883724478898 31.495397164349601 7.129261461461148 1 rotate no_reflect no_shear #
lump $-1 $-1 $37 $4 #
transform $-1 1 0 0 0 1 0 0 0 1 62.429883724478898 31.495397164349601 7.129261461461148 1 rotate no_reflect no_shear #
lump $-1 $-1 $38 $5 #
transform $-1 1 0 0 0 1 0 0 0 1 62.429883724478898 31.495397164349601 7.129261461461148 1 rotate no_reflect no_shear #
lump $-1 $-1 $39 $6 #
transform $-1 1 0 0 0 1 0 0 0 1 62.429883724478898 31.495397164349601 7.129261461461148 1 rotate no_reflect no_shear #
lump $-1 $-1 $40 $7 #
transform $-1 1 0 0 0 1 0 0 0 1 62.429883724478898 31.495397164349601 7.129261461461148 1 rotate no_reflect no_shear #
lump $-1 $-1 $41 $8 #
transform $-1 1 0 0 0 1 0 0 0 1 62.429883724478898 31.495397164349601 7.129261461461148 1 rotate no_reflect no_shear #
lump $-1 $-1 $42 $9 #
transform $-1 1 0 0 0 1 0 0 0 1 62.429883724478898 31.495397164349601 7.129261461461148 1 rotate no_reflect no_shear #
lump $-1 $-1 $43 $10 #
transform $-1 1 0 0 0 1 0 0 0 1 62.429883724478898 31.495397164349601 7.129261461461148 1 rotate no_reflect no_shear #
shell $-1 $-1 $-1 $44 $-1 $11 #
shell $-1 $-1 $-1 $45 $-1 $13 #
shell $-1 $-1 $-1 $46 $-1 $15 #
shell $-1 $-1 $-1 $47 $-1 $17 #
shell $-1 $-1 $-1 $48 $-1 $19 #
shell $-1 $-1 $-1 $49 $-1 $21 #
shell $-1 $-1 $-1 $50 $-1 $23 #
shell $-1 $-1 $-1 $51 $-1 $25 #
shell $-1 $-1 $-1 $52 $-1 $27 #
shell $-1 $-1 $-1 $53 $-1 $29 #
shell $-1 $-1 $-1 $54 $-1 $31 #
face $-1 $55 $56 $33 $-1 $57 forward single #
face $-1 $58 $59 $34 $-1 $60 reversed single #
face $-1 $61 $62 $35 $-1 $63 forward single #
face $-1 $64 $65 $36 $-1 $66 forward single #
face $-1 $67 $68 $37 $-1 $69 forward single #
face $-1 $70 $71 $38 $-1 $72 reversed single #
face $-1 $73 $74 $39 $-1 $75 forward single #
face $-1 $76 $77 $40 $-1 $78 forward single #
face $-1 $79 $80 $41 $-1 $81 reversed single #
face $-1 $82 $83 $42 $-1 $84 forward single #
face $-1 $85 $86 $43 $-1 $87 forward single #
face $-1 $88 $89 $33 $-1 $90 reversed single #
loop $-1 $-1 $91 $44 #
plane-surface $-1 0 0 7.129261461461148 0 0 1 1 0 0 forward_v I I I I #
face $-1 $92 $93 $34 $-1 $94 reversed single #
loop $-1 $-1 $95 $45 #
plane-surface $-1 -158.07801578254885 -5.6298549906145734 81.069115866493803 0 1 0 -0.7660444514056185 0 0.64278759981090561 forward_v I I I I #
face $-1 $96 $97 $35 $-1 $98 forward single #
loop $-1 $99 $100 $46 #
cone-surface $-1 -59.241726396995475 -3.0735825564385912 3.5192269306898627 0.7660444514056185 0 -0.64278759981090561 0.64278759981090561 0 0.7660444514056185 1 I I 0 1 1 forward I I I I #
face $-1 $101 $102 $36 $-1 $103 forward single #
loop $-1 $104 $105 $47 #
cone-surface $-1 -59.241726396995475 0.76082609482538643 3.5192269306898627 0.7660444514056185 0 -0.64278759981090561 0.64278759981090561 0 0.7660444514056185 1 I I 0 1 1 forward I I I I #
face $-1 $106 $107 $37 $-1 $108 forward single #
loop $-1 $109 $110 $48 #
cone-surface $-1 -59.241726396995475 4.5952347460893641 3.5192269306898627 0.7660444514056185 0 -0.64278759981090561 0.64278759981090561 0 0.7660444514056185 1 I I 0 1 1 forward I I I I #
face $-1 $111 $112 $38 $-1 $113 reversed single #
loop $-1 $-1 $114 $49 #
plane-surface $-1 -10.96084478026664 -24.961113907934152 102.3622031045725 0.80901700255871778 0 0.5877852410284794 0.5877852410284794 0 -0.80901700255871778 forward_v I I I I #
face $-1 $115 $116 $39 $-1 $117 forward single #
loop $-1 $118 $119 $50 #
cone-surface $-1 59.346612053506405 -27.761521017826489 3.524487458128799 -0.80901700255871778 0 -0.5877852410284794 0.8816778615427191 0 -1.2135255038380768 1 I I 0 1 1.5 forward I I I I #
face $-1 $120 $121 $40 $-1 $122 forward single #
loop $-1 $123 $124 $51 #
cone-surface $-1 59.346612053506405 -22.160706798041815 3.524487458128799 -0.80901700255871778 0 -0.5877852410284794 0.8816778615427191 0 -1.2135255038380768 1 I I 0 1 1.5 forward I I I I #
face $-1 $125 $126 $41 $-1 $127 reversed single #
loop $-1 $-1 $128 $52 #
plane-surface $-1 90.052830021467756 -3.5527136788005009e-015 175.75293160931804 0 1 0 0.80901700255871778 0 0.5877852410284794 forward_v I I I I #
face $-1 $129 $130 $42 $-1 $131 forward single #
loop $-1 $132 $133 $53 #
cone-surface $-1 59.346612053506405 3.7338761465231123 3.524487458128799 -0.80901700255871778 0 -0.5877852410284794 0.8816778615427191 0 -1.2135255038380768 1 I I 0 1 1.5 forward I I I I #
face $-1 $134 $135 $43 $-1 $136 forward single #
loop $-1 $137 $138 $54 #
cone-surface $-1 59.346612053506405 9.3346903663077789 3.524487458128799 -0.80901700255871778 0 -0.5877852410284794 0.8816778615427191 0 -1.2135255038380768 1 I I 0 1 1.5 forward I I I I #
face $-1 $139 $140 $33 $-1 $141 reversed single #
loop $-1 $-1 $142 $55 #
plane-surface $-1 0 0 -7.129261461461148 0 0 1 1 0 0 forward_v I I I I #
coedge $-1 $143 $144 $145 $146 forward $56 $-1 #
face $-1 $147 $148 $34 $-1 $149 reversed single #
loop $-1 $-1 $150 $58 #
plane-surface $-1 -62.42988372447887 0.76082609482538643 0.81080563503037695 -0.7660444514056185 0 0.64278759981090561 0.64278759981090561 0 0.7660444514056185 forward_v I I I I #
coedge $-1 $151 $152 $153 $154 reversed $59 $-1 #
face $-1 $-1 $155 $35 $-1 $156 forward single #
loop $-1 $157 $158 $61 #
cone-surface $-1 -58.321453751189303 -3.0735825564385912 2.7470265132284997 0.7660444514056185 0 -0.64278759981090561 0.3213937999054528 0 0.38302222570280925 1 I I -0.70710678118654746 0.70710678118654746 0.5 forward I I I I #
loop $-1 $-1 $159 $46 #
coedge $-1 $100 $100 $160 $161 reversed $62 $-1 #
face $-1 $-1 $162 $36 $-1 $163 forward single #
loop $-1 $164 $165 $64 #
cone-surface $-1 -58.321453751189303 0.76082609482538643 2.7470265132284997 0.7660444514056185 0 -0.64278759981090561 0.3213937999054528 0 0.38302222570280925 1 I I -0.70710678118654746 0.70710678118654746 0.5 forward I I I I #
loop $-1 $-1 $166 $47 #
coedge $-1 $105 $105 $167 $168 reversed $65 $-1 #
face $-1 $-1 $169 $37 $-1 $170 forward single #
loop $-1 $171 $172 $67 #
cone-surface $-1 -58.321453751189303 4.5952347460893641 2.7470265132284997 0.7660444514056185 0 -0.64278759981090561 0.3213937999054528 0 0.38302222570280925 1 I I -0.70710678118654746 0.70710678118654746 0.5 forward I I I I #
loop $-1 $-1 $173 $48 #
coedge $-1 $110 $110 $174 $175 reversed $68 $-1 #
face $-1 $176 $177 $38 $-1 $178 reversed single #
loop $-1 $-1 $179 $70 #
plane-surface $-1 90.052830021467756 -18.426830651518703 175.75293160931804 0 -1 0 -0.80901700255871778 0 -0.5877852410284794 forward_v I I I I #
coedge $-1 $180 $181 $182 $183 reversed $71 $-1 #
face $-1 $-1 $184 $39 $-1 $185 forward single #
loop $-1 $186 $187 $73 #
cone-surface $-1 57.756551810524627 -27.761521017826489 2.369241103336627 -0.80901700255871778 0 -0.5877852410284794 0.44083893077135955 0 -0.60676275191903839 1 I I -0.70710678118654757 0.70710678118654757 0.75 forward I I I I #
loop $-1 $-1 $188 $50 #
coedge $-1 $119 $119 $189 $190 reversed $74 $-1 #
face $-1 $-1 $191 $40 $-1 $192 forward single #
loop $-1 $193 $194 $76 #
cone-surface $-1 57.756551810524627 -22.160706798041815 2.369241103336627 -0.80901700255871778 0 -0.5877852410284794 0.44083893077135955 0 -0.60676275191903839 1 I I -0.70710678118654757 0.70710678118654757 0.75 forward I I I I #
loop $-1 $-1 $195 $51 #
coedge $-1 $124 $124 $196 $197 reversed $77 $-1 #
face $-1 $198 $199 $41 $-1 $200 reversed single #
loop $-1 $-1 $201 $79 #
plane-surface $-1 -10.96084478026664 6.5342832564154456 102.3622031045725 0.80901700255871778 0 0.5877852410284794 0.5877852410284794 0 -0.80901700255871778 forward_v I I I I #
coedge $-1 $202 $203 $204 $205 reversed $80 $-1 #
face $-1 $-1 $206 $42 $-1 $207 forward single #
loop $-1 $208 $209 $82 #
cone-surface $-1 57.756551810524627 3.7338761465231123 2.369241103336627 -0.80901700255871778 0 -0.5877852410284794 0.44083893077135955 0 -0.60676275191903839 1 I I -0.70710678118654757 0.70710678118654757 0.75 forward I I I I #
loop $-1 $-1 $210 $53 #
coedge $-1 $133 $133 $211 $212 reversed $83 $-1 #
face $-1 $-1 $213 $43 $-1 $214 forward single #
loop $-1 $215 $216 $85 #
cone-surface $-1 57.756551810524627 9.3346903663077789 2.369241103336627 -0.80901700255871778 0 -0.5877852410284794 0.44083893077135955 0 -0.60676275191903839 1 I I -0.70710678118654757 0.70710678118654757 0.75 forward I I I I #
loop $-1 $-1 $217 $54 #
coedge $-1 $138 $138 $218 $219 reversed $86 $-1 #
face $-1 $220 $221 $33 $-1 $222 reversed single #
loop $-1 $-1 $223 $88 #
plane-surface $-1 0 -31.495397164349601 0 0 1 0 0 0 1 forward_v I I I I #
coedge $-1 $224 $225 $226 $227 forward $89 $-1 #
coedge $-1 $228 $91 $229 $230 forward $56 $-1 #
coedge $-1 $91 $228 $231 $232 forward $56 $-1 #
coedge $-1 $233 $234 $91 $146 reversed $235 $-1 #
edge $-1 $236 -31.495397164349601 $237 31.495397164349601 $145 $238 forward 7 unknown #
face $-1 $239 $240 $34 $-1 $241 reversed single #
loop $-1 $-1 $242 $92 #
plane-surface $-1 -158.07801578254885 7.1515071802653463 81.069115866493803 0 -1 0 0.7660444514056185 0 -0.64278759981090561 forward_v I I I I #
coedge $-1 $243 $244 $245 $246 reversed $93 $-1 #
coedge $-1 $152 $95 $247 $248 reversed $59 $-1 #
coedge $-1 $95 $151 $243 $249 reversed $59 $-1 #
coedge $-1 $245 $250 $95 $154 forward $251 $-1 #
edge $-1 $252 16.609124166795525 $253 21.910937981555705 $153 $254 forward 7 unknown #
loop $-1 $-1 $160 $96 #
plane-surface $-1 -62.42988372447887 0.76082609482538643 0.81080563503037695 -0.7660444514056185 0 0.64278759981090561 0.64278759981090561 0 0.7660444514056185 forward_v I I I I #
loop $-1 $-1 $255 $61 #
coedge $-1 $158 $158 $159 $256 reversed $97 $-1 #
coedge $-1 $159 $159 $158 $256 forward $99 $-1 #
coedge $-1 $160 $160 $100 $161 forward $155 $-1 #
edge $-1 $257 0 $257 6.2831853071796004 $160 $258 forward 7 unknown #
loop $-1 $-1 $167 $101 #
plane-surface $-1 -62.42988372447887 0.76082609482538643 0.81080563503037695 -0.7660444514056185 0 0.64278759981090561 0.64278759981090561 0 0.7660444514056185 forward_v I I I I #
loop $-1 $-1 $259 $64 #
coedge $-1 $165 $165 $166 $260 reversed $102 $-1 #
coedge $-1 $166 $166 $165 $260 forward $104 $-1 #
coedge $-1 $167 $167 $105 $168 forward $162 $-1 #
edge $-1 $261 0 $261 6.2831853071796004 $167 $262 forward 7 unknown #
loop $-1 $-1 $174 $106 #
plane-surface $-1 -62.42988372447887 0.76082609482538643 0.81080563503037695 -0.7660444514056185 0 0.64278759981090561 0.64278759981090561 0 0.7660444514056185 forward_v I I I I #
loop $-1 $-1 $263 $67 #
coedge $-1 $172 $172 $173 $264 reversed $107 $-1 #
coedge $-1 $173 $173 $172 $264 forward $109 $-1 #
coedge $-1 $174 $174 $110 $175 forward $169 $-1 #
edge $-1 $265 0 $265 6.2831853071796004 $174 $266 forward 7 unknown #
face $-1 $267 $268 $38 $-1 $269 forward single #
loop $-1 $-1 $182 $111 #
plane-surface $-1 62.429883724478898 0 0 -1 0 0 0 0 1 forward_v I I I I #
coedge $-1 $270 $271 $272 $273 reversed $112 $-1 #
coedge $-1 $274 $114 $275 $276 reversed $71 $-1 #
coedge $-1 $114 $274 $270 $277 forward $71 $-1 #
coedge $-1 $272 $278 $114 $183 forward $177 $-1 #
edge $-1 $279 -19.014840210382523 $280 -5.9462736975516268 $182 $281 forward 7 unknown #
loop $-1 $-1 $189 $115 #
plane-surface $-1 -10.96084478026664 -24.961113907934152 102.3622031045725 0.80901700255871778 0 0.5877852410284794 0.5877852410284794 0 -0.80901700255871778 forward_v I I I I #
loop $-1 $-1 $282 $73 #
coedge $-1 $187 $187 $188 $283 reversed $116 $-1 #
coedge $-1 $188 $188 $187 $283 forward $118 $-1 #
coedge $-1 $189 $189 $119 $190 forward $184 $-1 #
edge $-1 $284 0 $284 6.2831853071796004 $189 $285 forward 7 unknown #
loop $-1 $-1 $196 $120 #
plane-surface $-1 -10.96084478026664 -24.961113907934152 102.3622031045725 0.80901700255871778 0 0.5877852410284794 0.5877852410284794 0 -0.80901700255871778 forward_v I I I I #
loop $-1 $-1 $286 $76 #
coedge $-1 $194 $194 $195 $287 reversed $121 $-1 #
coedge $-1 $195 $195 $194 $287 forward $123 $-1 #
coedge $-1 $196 $196 $124 $197 forward $191 $-1 #
edge $-1 $288 0 $288 6.2831853071796004 $196 $289 forward 7 unknown #
face $-1 $290 $291 $41 $-1 $292 reversed single #
loop $-1 $-1 $293 $125 #
plane-surface $-1 90.052830021467756 13.068566512830895 175.75293160931804 0 -1 0 -0.80901700255871778 0 -0.5877852410284794 forward_v I I I I #
coedge $-1 $294 $295 $296 $297 reversed $126 $-1 #
coedge $-1 $203 $128 $298 $299 reversed $80 $-1 #
coedge $-1 $128 $202 $294 $300 reversed $80 $-1 #
coedge $-1 $296 $301 $128 $205 forward $291 $-1 #
edge $-1 $302 80.747204343197865 $303 86.527937501820901 $204 $304 forward 7 unknown #
loop $-1 $-1 $211 $129 #
plane-surface $-1 -10.96084478026664 6.5342832564154456 102.3622031045725 0.80901700255871778 0 0.5877852410284794 0.5877852410284794 0 -0.80901700255871778 forward_v I I I I #
loop $-1 $-1 $305 $82 #
coedge $-1 $209 $209 $210 $306 reversed $130 $-1 #
coedge $-1 $210 $210 $209 $306 forward $132 $-1 #
coedge $-1 $211 $211 $133 $212 forward $206 $-1 #
edge $-1 $307 0 $307 6.2831853071796004 $211 $308 forward 7 unknown #
loop $-1 $-1 $218 $134 #
plane-surface $-1 -10.96084478026664 6.5342832564154456 102.3622031045725 0.80901700255871778 0 0.5877852410284794 0.5877852410284794 0 -0.80901700255871778 forward_v I I I I #
loop $-1 $-1 $309 $85 #
coedge $-1 $216 $216 $217 $310 reversed $135 $-1 #
coedge $-1 $217 $217 $216 $310 forward $137 $-1 #
coedge $-1 $218 $218 $138 $219 forward $213 $-1 #
edge $-1 $311 0 $311 6.2831853071796004 $218 $312 forward 7 unknown #
face $-1 $313 $314 $33 $-1 $315 reversed single #
loop $-1 $-1 $316 $139 #
plane-surface $-1 -62.429883724478898 0 0 1 0 0 0 0 -1 forward_v I I I I #
coedge $-1 $317 $231 $318 $319 forward $140 $-1 #
coedge $-1 $320 $142 $317 $321 forward $89 $-1 #
coedge $-1 $142 $320 $322 $323 forward $89 $-1 #
coedge $-1 $234 $233 $142 $227 reversed $235 $-1 #
edge $-1 $324 -31.495397164349601 $325 31.495397164349601 $226 $326 forward 7 unknown #
coedge $-1 $144 $143 $327 $328 forward $56 $-1 #
coedge $-1 $329 $330 $143 $230 reversed $314 $-1 #
edge $-1 $237 -62.429883724478898 $331 62.429883724478898 $229 $332 forward 7 unknown #
coedge $-1 $223 $333 $144 $232 reversed $140 $-1 #
edge $-1 $334 -62.429883724478898 $236 62.429883724478898 $231 $335 forward 7 unknown #
coedge $-1 $226 $145 $333 $336 forward $235 $-1 #
coedge $-1 $145 $226 $329 $337 reversed $235 $-1 #
loop $-1 $-1 $233 $313 #
vertex $-1 $146 $338 #
vertex $-1 $146 $339 #
straight-curve $-1 62.429883724478898 0 7.129261461461148 0 1 0 I I #
face $-1 $-1 $251 $34 $-1 $340 forward single #
loop $-1 $-1 $341 $147 #
plane-surface $-1 -62.429883724478898 0 0 1 0 0 0 0 -1 forward_v I I I I #
coedge $-1 $342 $343 $344 $345 reversed $148 $-1 #
coedge $-1 $346 $150 $152 $249 forward $93 $-1 #
coedge $-1 $150 $346 $342 $347 forward $93 $-1 #
coedge $-1 $344 $153 $150 $246 forward $251 $-1 #
edge $-1 $253 -6.0102680380272666 $348 6.771094132852653 $245 $349 forward 7 unknown #
coedge $-1 $350 $351 $151 $248 forward $240 $-1 #
edge $-1 $352 -39.72375229821656 $252 -33.405296471785753 $247 $353 forward 7 unknown #
edge $-1 $253 -8.2481582039227757 $352 4.4208768116316754e-014 $152 $354 forward 7 unknown #
coedge $-1 $153 $344 $350 $355 forward $251 $-1 #
loop $-1 $-1 $344 $239 #
vertex $-1 $248 $356 #
vertex $-1 $154 $357 #
straight-curve $-1 -79.039007891274423 -5.6298549906145734 7.129261461461148 1 0 0 I I #
coedge $-1 $255 $255 $-1 $358 reversed $157 $-1 #
edge $-1 $359 0 $359 6.2831853071796004 $158 $360 forward 7 unknown #
vertex $-1 $161 $361 #
ellipse-curve $-1 -59.778976817098808 -3.0735825564385912 3.9700335482457492 -0.7660444514056185 0 0.64278759981090561 0.64278759981090561 0 0.7660444514056185 1 I I #
coedge $-1 $259 $259 $-1 $362 reversed $164 $-1 #
edge $-1 $363 0 $363 6.2831853071796004 $165 $364 forward 7 unknown #
vertex $-1 $168 $365 #
ellipse-curve $-1 -59.778976817098808 0.76082609482538643 3.9700335482457492 -0.7660444514056185 0 0.64278759981090561 0.64278759981090561 0 0.7660444514056185 1 I I #
coedge $-1 $263 $263 $-1 $366 reversed $171 $-1 #
edge $-1 $367 0 $367 6.2831853071796004 $172 $368 forward 7 unknown #
vertex $-1 $175 $369 #
ellipse-curve $-1 -59.778976817098808 4.5952347460893641 3.9700335482457492 -0.7660444514056185 0 0.64278759981090561 0.64278759981090561 0 0.7660444514056185 1 I I #
face $-1 $-1 $370 $38 $-1 $371 reversed single #
loop $-1 $-1 $372 $176 #
plane-surface $-1 0 0 7.129261461461148 0 0 1 1 0 0 forward_v I I I I #
coedge $-1 $271 $179 $181 $277 reversed $112 $-1 #
coedge $-1 $179 $270 $372 $373 reversed $112 $-1 #
coedge $-1 $374 $182 $179 $273 forward $177 $-1 #
edge $-1 $280 -86.527937501820901 $375 -80.747204343197865 $272 $376 forward 7 unknown #
coedge $-1 $181 $180 $377 $378 reversed $71 $-1 #
coedge $-1 $379 $380 $180 $276 forward $370 $-1 #
edge $-1 $381 73.086695616386777 $279 80.232074687951425 $275 $382 forward 7 unknown #
edge $-1 $383 117.71438837739313 $280 124.85976744895778 $270 $384 forward 7 unknown #
coedge $-1 $182 $374 $379 $385 forward $177 $-1 #
vertex $-1 $276 $386 #
vertex $-1 $183 $387 #
straight-curve $-1 62.429883724478898 -12.480556953967076 1.3485283028381119 0 1 0 I I #
coedge $-1 $282 $282 $-1 $388 reversed $186 $-1 #
edge $-1 $389 0 $389 6.2831853071796004 $187 $390 forward 7 unknown #
vertex $-1 $190 $391 #
ellipse-curve $-1 60.329909544569162 -27.761521017826489 4.2388948821496202 0.80901700255871778 0 0.5877852410284794 0.8816778615427191 0 -1.2135255038380768 1 I I #
coedge $-1 $286 $286 $-1 $392 reversed $193 $-1 #
edge $-1 $393 0 $393 6.2831853071796004 $194 $394 forward 7 unknown #
vertex $-1 $197 $395 #
ellipse-curve $-1 60.329909544569162 -22.160706798041815 4.2388948821496202 0.80901700255871778 0 0.5877852410284794 0.8816778615427191 0 -1.2135255038380768 1 I I #
face $-1 $-1 $396 $41 $-1 $397 forward single #
loop $-1 $-1 $204 $198 #
plane-surface $-1 62.429883724478898 0 0 -1 0 0 0 0 1 forward_v I I I I #
coedge $-1 $398 $399 $400 $401 reversed $199 $-1 #
coedge $-1 $402 $201 $203 $300 forward $126 $-1 #
coedge $-1 $201 $402 $398 $403 forward $126 $-1 #
coedge $-1 $400 $204 $201 $297 forward $291 $-1 #
edge $-1 $303 -3.2671416282077264 $404 9.801424884623172 $296 $405 forward 7 unknown #
coedge $-1 $406 $407 $202 $299 forward $396 $-1 #
edge $-1 $408 13.203520353925533 $302 17.403468713745021 $298 $409 forward 7 unknown #
edge $-1 $303 -124.85976744895778 $408 -117.71438837739313 $203 $410 forward 7 unknown #
coedge $-1 $204 $400 $406 $411 reversed $291 $-1 #
vertex $-1 $411 $412 #
vertex $-1 $205 $413 #
straight-curve $-1 62.429883724478898 -3.5527136788005009e-015 87.87646580465902 0 0 -1 I I #
coedge $-1 $305 $305 $-1 $414 reversed $208 $-1 #
edge $-1 $415 0 $415 6.2831853071796004 $209 $416 forward 7 unknown #
vertex $-1 $212 $417 #
ellipse-curve $-1 60.329909544569162 3.7338761465231123 4.2388948821496202 0.80901700255871778 0 0.5877852410284794 0.8816778615427191 0 -1.2135255038380768 1 I I #
coedge $-1 $309 $309 $-1 $418 reversed $215 $-1 #
edge $-1 $419 0 $419 6.2831853071796004 $216 $420 forward 7 unknown #
vertex $-1 $219 $421 #
ellipse-curve $-1 60.329909544569162 9.3346903663077789 4.2388948821496202 0.80901700255871778 0 0.5877852410284794 0.8816778615427191 0 -1.2135255038380768 1 I I #
face $-1 $-1 $235 $33 $-1 $422 reversed single #
loop $-1 $-1 $329 $220 #
plane-surface $-1 0 31.495397164349601 0 0 -1 0 0 0 -1 forward_v I I I I #
coedge $-1 $423 $327 $330 $424 forward $221 $-1 #
coedge $-1 $333 $223 $224 $321 reversed $140 $-1 #
coedge $-1 $327 $423 $223 $319 reversed $221 $-1 #
edge $-1 $334 -7.129261461461148 $425 7.129261461461148 $318 $426 forward 7 unknown #
coedge $-1 $225 $224 $423 $427 forward $89 $-1 #
edge $-1 $325 -62.429883724478898 $425 62.429883724478898 $317 $428 forward 7 unknown #
coedge $-1 $330 $329 $225 $323 reversed $314 $-1 #
edge $-1 $429 -62.429883724478898 $324 62.429883724478898 $322 $430 forward 7 unknown #
vertex $-1 $227 $431 #
vertex $-1 $336 $432 #
straight-curve $-1 62.429883724478898 0 -7.129261461461148 0 -1 0 I I #
coedge $-1 $316 $318 $228 $328 reversed $221 $-1 #
edge $-1 $331 -31.495397164349601 $334 31.495397164349601 $327 $433 forward 7 unknown #
coedge $-1 $322 $229 $234 $337 forward $314 $-1 #
coedge $-1 $229 $322 $316 $424 reversed $314 $-1 #
vertex $-1 $230 $434 #
straight-curve $-1 0 31.495397164349601 7.129261461461148 -1 0 0 I I #
coedge $-1 $231 $317 $233 $336 reversed $140 $-1 #
vertex $-1 $328 $435 #
straight-curve $-1 0 -31.495397164349601 7.129261461461148 1 0 0 I I #
edge $-1 $236 -7.129261461461148 $325 7.129261461461148 $233 $436 forward 7 unknown #
edge $-1 $237 -7.129261461461148 $324 7.129261461461148 $234 $437 forward 7 unknown #
point $-1 62.429883724478898 -31.495397164349601 7.129261461461148 #
point $-1 62.429883724478898 31.495397164349601 7.129261461461148 #
plane-surface $-1 0 0 7.129261461461148 0 0 1 1 0 0 forward_v I I I I #
coedge $-1 $351 $350 $343 $438 forward $240 $-1 #
coedge $-1 $343 $242 $244 $347 reversed $148 $-1 #
coedge $-1 $242 $342 $341 $438 reversed $148 $-1 #
coedge $-1 $250 $245 $242 $345 forward $251 $-1 #
edge $-1 $348 -21.910937981555705 $439 -16.609124166795525 $344 $440 forward 7 unknown #
coedge $-1 $244 $243 $351 $441 reversed $93 $-1 #
edge $-1 $442 -4.4208768116316754e-014 $348 8.2481582039227757 $342 $443 forward 7 unknown #
vertex $-1 $246 $444 #
straight-curve $-1 -57.128069909718718 0.38041304741269322 7.129261461461148 0 1 0 I I #
coedge $-1 $341 $247 $250 $355 reversed $240 $-1 #
coedge $-1 $247 $341 $346 $441 forward $240 $-1 #
vertex $-1 $248 $445 #
straight-curve $-1 -62.429883724478898 -5.6298549906145734 40.534557933246901 0 0 1 I I #
straight-curve $-1 -62.42988372447887 -5.6298549906145734 0.81080563503037695 -0.64278759981090561 0 -0.7660444514056185 I I #
edge $-1 $439 -7.1515071802653463 $252 5.6298549906145734 $350 $446 forward 7 unknown #
point $-1 -62.429883724478898 -5.6298549906145734 7.129261461461148 #
point $-1 -57.128069909718718 -5.6298549906145734 7.129261461461148 #
edge $-1 $447 1 $447 0 $255 $-1 forward 7 unknown #
vertex $-1 $256 $448 #
ellipse-curve $-1 -58.704475976892112 -3.0735825564385912 3.0684203131339522 -0.7660444514056185 0 0.64278759981090561 0.64278759981090561 0 0.7660444514056185 1 I I #
point $-1 -59.136189217287928 -3.0735825564385912 4.7360779996513918 #
edge $-1 $449 1 $449 0 $259 $-1 forward 7 unknown #
vertex $-1 $260 $450 #
ellipse-curve $-1 -58.704475976892112 0.76082609482538643 3.0684203131339522 -0.7660444514056185 0 0.64278759981090561 0.64278759981090561 0 0.7660444514056185 1 I I #
point $-1 -59.136189217287928 0.76082609482538643 4.7360779996513918 #
edge $-1 $451 1 $451 0 $263 $-1 forward 7 unknown #
vertex $-1 $264 $452 #
ellipse-curve $-1 -58.704475976892112 4.5952347460893641 3.0684203131339522 -0.7660444514056185 0 0.64278759981090561 0.64278759981090561 0 0.7660444514056185 1 I I #
point $-1 -59.136189217287928 4.5952347460893641 4.7360779996513918 #
loop $-1 $-1 $275 $267 #
plane-surface $-1 0 -31.495397164349601 0 0 1 0 0 0 1 forward_v I I I I #
coedge $-1 $377 $453 $271 $373 forward $268 $-1 #
edge $-1 $375 -17.403468713745021 $383 -13.203520353925533 $372 $454 forward 7 unknown #
coedge $-1 $278 $272 $453 $455 reversed $177 $-1 #
vertex $-1 $273 $456 #
straight-curve $-1 62.429883724478898 -18.426830651518703 87.87646580465902 0 0 1 I I #
coedge $-1 $457 $372 $274 $378 forward $268 $-1 #
edge $-1 $383 5.9462736975516268 $381 19.014840210382523 $377 $458 forward 7 unknown #
coedge $-1 $380 $275 $278 $385 reversed $370 $-1 #
coedge $-1 $275 $379 $457 $459 reversed $370 $-1 #
vertex $-1 $459 $460 #
straight-curve $-1 15.270654365806404 -31.495397164349601 66.257640875951751 0.5877852410284794 0 -0.80901700255871778 I I #
vertex $-1 $378 $461 #
straight-curve $-1 -10.96084478026664 -18.426830651518703 102.3622031045725 0.5877852410284794 0 -0.80901700255871778 I I #
edge $-1 $462 -7.129261461461148 $279 -1.3485283028381205 $278 $463 forward 7 unknown #
point $-1 62.429883724478898 -31.495397164349601 1.3485283028381205 #
point $-1 62.429883724478898 -18.426830651518703 1.348528302838119 #
edge $-1 $464 1 $464 0 $282 $-1 forward 7 unknown #
vertex $-1 $283 $465 #
ellipse-curve $-1 58.363314562443662 -27.761521017826489 2.8100800341079863 0.80901700255871778 0 0.5877852410284794 0.8816778615427191 0 -1.2135255038380768 1 I I #
point $-1 61.211587406111867 -27.761521017826489 3.025369378311535 #
edge $-1 $466 1 $466 0 $286 $-1 forward 7 unknown #
vertex $-1 $287 $467 #
ellipse-curve $-1 58.363314562443662 -22.160706798041815 2.8100800341079863 0.80901700255871778 0 0.5877852410284794 0.8816778615427191 0 -1.2135255038380768 1 I I #
point $-1 61.211587406111867 -22.160706798041815 3.025369378311535 #
loop $-1 $-1 $298 $290 #
plane-surface $-1 0 0 7.129261461461148 0 0 1 1 0 0 forward_v I I I I #
coedge $-1 $399 $293 $295 $403 reversed $199 $-1 #
coedge $-1 $293 $398 $468 $469 reversed $199 $-1 #
coedge $-1 $301 $296 $293 $401 forward $291 $-1 #
edge $-1 $404 -86.527937501820901 $470 -80.747204343197865 $400 $471 forward 7 unknown #
coedge $-1 $295 $294 $407 $472 reversed $126 $-1 #
edge $-1 $473 117.71438837739313 $404 124.85976744895778 $398 $474 forward 7 unknown #
vertex $-1 $297 $475 #
straight-curve $-1 62.429883724478898 3.2671416282077228 1.3485283028381119 0 1 0 I I #
coedge $-1 $468 $298 $301 $411 forward $396 $-1 #
coedge $-1 $298 $468 $402 $472 forward $396 $-1 #
vertex $-1 $299 $476 #
straight-curve $-1 45.026415010733878 -3.5527136788005009e-015 7.1292614614611409 1 0 0 I I #
straight-curve $-1 -10.96084478026664 -3.5527136788005009e-015 102.3622031045725 -0.5877852410284794 0 0.80901700255871778 I I #
edge $-1 $302 -3.5527136788005009e-015 $470 13.068566512830895 $301 $477 forward 7 unknown #
point $-1 62.429883724478898 -3.5527136788005009e-015 7.129261461461148 #
point $-1 62.429883724478898 -3.5527136788005009e-015 1.348528302838119 #
edge $-1 $478 1 $478 0 $305 $-1 forward 7 unknown #
vertex $-1 $306 $479 #
ellipse-curve $-1 58.363314562443662 3.7338761465231123 2.8100800341079863 0.80901700255871778 0 0.5877852410284794 0.8816778615427191 0 -1.2135255038380768 1 I I #
point $-1 61.211587406111867 3.7338761465231123 3.025369378311535 #
edge $-1 $480 1 $480 0 $309 $-1 forward 7 unknown #
vertex $-1 $310 $481 #
ellipse-curve $-1 58.363314562443662 9.3346903663077789 2.8100800341079863 0.80901700255871778 0 0.5877852410284794 0.8816778615427191 0 -1.2135255038380768 1 I I #
point $-1 61.211587406111867 9.3346903663077789 3.025369378311535 #
plane-surface $-1 62.429883724478898 0 0 -1 0 0 0 0 1 forward_v I I I I #
coedge $-1 $318 $316 $320 $427 reversed $221 $-1 #
edge $-1 $331 -7.129261461461148 $429 7.129261461461148 $330 $482 forward 7 unknown #
vertex $-1 $427 $483 #
straight-curve $-1 -62.429883724478898 -31.495397164349601 0 0 0 -1 I I #
edge $-1 $425 -31.495397164349601 $429 31.495397164349601 $423 $484 forward 7 unknown #
straight-curve $-1 0 -31.495397164349601 -7.129261461461148 -1 0 0 I I #
vertex $-1 $323 $485 #
straight-curve $-1 0 31.495397164349601 -7.129261461461148 1 0 0 I I #
point $-1 62.429883724478898 31.495397164349601 -7.129261461461148 #
point $-1 62.429883724478898 -31.495397164349601 -7.129261461461148 #
straight-curve $-1 -62.429883724478898 0 7.129261461461148 0 -1 0 I I #
point $-1 -62.429883724478898 31.495397164349601 7.129261461461148 #
point $-1 -62.429883724478898 -31.495397164349601 7.129261461461148 #
straight-curve $-1 62.429883724478898 -31.495397164349601 0 0 0 -1 I I #
straight-curve $-1 62.429883724478898 31.495397164349601 0 0 0 -1 I I #
edge $-1 $439 33.405296471785753 $442 39.72375229821656 $341 $486 forward 7 unknown #
vertex $-1 $355 $487 #
straight-curve $-1 -79.039007891274423 7.1515071802653463 7.129261461461148 -1 0 0 I I #
edge $-1 $442 -6.771094132852653 $352 6.0102680380272666 $351 $488 forward 7 unknown #
vertex $-1 $441 $489 #
straight-curve $-1 -62.42988372447887 7.1515071802653463 0.81080563503037695 0.64278759981090561 0 0.7660444514056185 I I #
point $-1 -57.128069909718718 7.1515071802653463 7.129261461461148 #
point $-1 -62.429883724478898 -5.6298549906145734 0.81080563503034309 #
straight-curve $-1 -62.429883724478898 0 7.129261461461148 0 -1 0 I I #
vertex $-1 $358 $490 #
point $-1 -58.061688377081204 -3.0735825564385912 3.8344647645395709 #
vertex $-1 $362 $491 #
point $-1 -58.061688377081204 0.76082609482538643 3.8344647645395709 #
vertex $-1 $366 $492 #
point $-1 -58.061688377081204 4.5952347460893641 3.8344647645395709 #
coedge $-1 $372 $457 $374 $455 forward $268 $-1 #
straight-curve $-1 45.026415010733878 -18.426830651518703 7.1292614614611409 -1 0 0 I I #
edge $-1 $462 -31.495397164349601 $375 -18.426830651518703 $374 $493 forward 7 unknown #
point $-1 62.429883724478898 -18.426830651518703 7.129261461461148 #
coedge $-1 $453 $377 $380 $459 forward $268 $-1 #
straight-curve $-1 58.229935364659411 -12.480556953967076 7.1292614614611551 0 -1 0 I I #
edge $-1 $381 58.229935364659411 $462 62.429883724478898 $380 $494 forward 7 unknown #
point $-1 58.229935364659411 -31.495397164349601 7.1292614614611409 #
point $-1 58.229935364659411 -18.426830651518703 7.1292614614611409 #
vertex $-1 $455 $495 #
straight-curve $-1 62.429883724478898 -31.495397164349601 0 0 0 -1 I I #
vertex $-1 $388 $496 #
point $-1 59.244992423986382 -27.761521017826489 1.5965545302699098 #
vertex $-1 $392 $497 #
point $-1 59.244992423986382 -22.160706798041815 1.5965545302699098 #
coedge $-1 $407 $406 $399 $469 forward $396 $-1 #
edge $-1 $470 -17.403468713745021 $473 -13.203520353925533 $468 $498 forward 7 unknown #
vertex $-1 $469 $499 #
straight-curve $-1 62.429883724478898 13.068566512830895 87.87646580465902 0 0 1 I I #
edge $-1 $473 -9.801424884623172 $408 3.2671416282077264 $407 $500 forward 7 unknown #
vertex $-1 $472 $501 #
straight-curve $-1 -10.96084478026664 13.068566512830895 102.3622031045725 0.5877852410284794 0 -0.80901700255871778 I I #
point $-1 62.429883724478898 13.068566512830895 1.348528302838119 #
point $-1 58.229935364659411 -3.5527136788005009e-015 7.1292614614611409 #
straight-curve $-1 62.429883724478898 0 7.129261461461148 0 1 0 I I #
vertex $-1 $414 $502 #
point $-1 59.244992423986382 3.7338761465231123 1.5965545302699098 #
vertex $-1 $418 $503 #
point $-1 59.244992423986382 9.3346903663077789 1.5965545302699098 #
straight-curve $-1 -62.429883724478898 31.495397164349601 0 0 0 -1 I I #
point $-1 -62.429883724478898 -31.495397164349601 -7.129261461461148 #
straight-curve $-1 -62.429883724478898 0 -7.129261461461148 0 1 0 I I #
point $-1 -62.429883724478898 31.495397164349601 -7.129261461461148 #
straight-curve $-1 -62.429883724478898 7.1515071802653463 40.534557933246901 0 0 -1 I I #
point $-1 -62.429883724478898 7.1515071802653463 7.129261461461148 #
straight-curve $-1 -62.429883724478898 0.38041304741269322 0.81080563503034175 0 -1 0 I I #
point $-1 -62.429883724478898 7.1515071802653463 0.81080563503034309 #
point $-1 -57.938431525486493 -3.0735825564385912 2.4256327133230471 #
point $-1 -57.938431525486493 0.76082609482538643 2.4256327133230471 #
point $-1 -57.938431525486493 4.5952347460893641 2.4256327133230471 #
straight-curve $-1 62.429883724478898 0 7.129261461461148 0 1 0 I I #
straight-curve $-1 0 -31.495397164349601 7.129261461461148 1 0 0 I I #
point $-1 62.429883724478898 -31.495397164349601 7.129261461461148 #
point $-1 57.149789058605592 -27.761521017826489 1.9284021725652674 #
point $-1 57.149789058605592 -22.160706798041815 1.9284021725652674 #
straight-curve $-1 45.026415010733878 13.068566512830895 7.1292614614611409 -1 0 0 I I #
point $-1 62.429883724478898 13.068566512830895 7.129261461461148 #
straight-curve $-1 58.229935364659411 3.2671416282077228 7.1292614614611551 0 -1 0 I I #
point $-1 58.229935364659411 13.068566512830895 7.1292614614611409 #
point $-1 57.149789058605592 3.7338761465231123 1.9284021725652674 #
point $-1 57.149789058605592 9.3346903663077789 1.9284021725652674 #
End-of-ACIS-data 