500 0 7 0           
7 Unknown 11 ACIS 5.0 NT 24 Fri Mar 26 14:36:10 1999 
-1 9.9999999999999995e-007 1e-010 
body $-1 $7 $-1 $8 #
body $-1 $9 $-1 $10 #
body $-1 $11 $-1 $12 #
body $-1 $13 $-1 $14 #
body $-1 $15 $-1 $16 #
body $-1 $17 $-1 $18 #
body $-1 $19 $-1 $20 #
lump $-1 $-1 $21 $0 #
transform $-1 1 0 0 0 1 0 0 0 1 58.662678914761798 39.71416993823545 16.261393329487515 1 rotate no_reflect no_shear #
lump $-1 $-1 $22 $1 #
transform $-1 1 0 0 0 1 0 0 0 1 58.662678914761798 39.71416993823545 16.261393329487515 1 rotate no_reflect no_shear #
lump $-1 $-1 $23 $2 #
transform $-1 1 0 0 0 1 0 0 0 1 58.662678914761798 39.71416993823545 16.261393329487515 1 rotate no_reflect no_shear #
lump $-1 $-1 $24 $3 #
transform $-1 1 0 0 0 1 0 0 0 1 58.662678914761798 39.71416993823545 16.261393329487515 1 rotate no_reflect no_shear #
lump $-1 $-1 $25 $4 #
transform $-1 1 0 0 0 1 0 0 0 1 58.662678914761798 39.71416993823545 16.261393329487515 1 rotate no_reflect no_shear #
lump $-1 $-1 $26 $5 #
transform $-1 1 0 0 0 1 0 0 0 1 58.662678914761798 39.71416993823545 16.261393329487515 1 rotate no_reflect no_shear #
lump $-1 $-1 $27 $6 #
transform $-1 1 0 0 0 1 0 0 0 1 58.662678914761798 39.71416993823545 16.261393329487515 1 rotate no_reflect no_shear #
shell $-1 $-1 $-1 $28 $-1 $7 #
shell $-1 $-1 $-1 $29 $-1 $9 #
shell $-1 $-1 $-1 $30 $-1 $11 #
shell $-1 $-1 $-1 $31 $-1 $13 #
shell $-1 $-1 $-1 $32 $-1 $15 #
shell $-1 $-1 $-1 $33 $-1 $17 #
shell $-1 $-1 $-1 $34 $-1 $19 #
face $-1 $35 $36 $21 $-1 $37 forward single #
face $-1 $38 $39 $22 $-1 $40 reversed single #
face $-1 $41 $42 $23 $-1 $43 forward single #
face $-1 $44 $45 $24 $-1 $46 forward single #
face $-1 $47 $48 $25 $-1 $49 reversed single #
face $-1 $50 $51 $26 $-1 $52 forward single #
face $-1 $53 $54 $27 $-1 $55 forward single #
face $-1 $56 $57 $21 $-1 $58 reversed single #
loop $-1 $-1 $59 $28 #
plane-surface $-1 0 0 16.261393329487515 0 0 1 1 0 0 forward_v I I I I #
face $-1 $60 $61 $22 $-1 $62 reversed single #
loop $-1 $-1 $63 $29 #
plane-surface $-1 -31.213758709703981 -35.122200101357109 79.372214717064111 0.64278761758704617 0 0.76604443648966558 0.76604443648966558 0 -0.64278761758704617 forward_v I I I I #
face $-1 $64 $65 $23 $-1 $66 forward single #
loop $-1 $67 $68 $30 #
cone-surface $-1 50.811601012597741 -37.090187174304972 9.4904825574454375 -0.64278761758704617 0 -0.76604443648966558 0.76604443648966558 0 -0.64278761758704617 1 I I 0 1 1 forward I I I I #
face $-1 $69 $70 $24 $-1 $71 forward single #
loop $-1 $72 $73 $31 #
cone-surface $-1 50.811601012597741 -33.154213028409245 9.4904825574454375 -0.64278761758704617 0 -0.76604443648966558 0.76604443648966558 0 -0.64278761758704617 1 I I 0 1 1 forward I I I I #
face $-1 $74 $75 $25 $-1 $76 reversed single #
loop $-1 $-1 $77 $32 #
plane-surface $-1 -134.077966156549 -30.530230264478767 93.833365099742707 0 -1 0 0.64278761758704617 0 -0.76604443648966558 forward_v I I I I #
face $-1 $78 $79 $26 $-1 $80 forward single #
loop $-1 $81 $82 $33 #
cone-surface $-1 -50.811601012597755 -37.090187174304972 9.4904825574454232 0.64278761758704617 0 -0.76604443648966558 0.76604443648966558 0 0.64278761758704617 1 I I 0 1 1 forward I I I I #
face $-1 $83 $84 $27 $-1 $85 forward single #
loop $-1 $86 $87 $34 #
cone-surface $-1 -50.811601012597755 -33.154213028409245 9.4904825574454232 0.64278761758704617 0 -0.76604443648966558 0.76604443648966558 0 0.64278761758704617 1 I I 0 1 1 forward I I I I #
face $-1 $88 $89 $21 $-1 $90 reversed single #
loop $-1 $-1 $91 $35 #
plane-surface $-1 0 0 -16.261393329487515 0 0 1 1 0 0 forward_v I I I I #
coedge $-1 $92 $93 $94 $95 forward $36 $-1 #
face $-1 $96 $97 $22 $-1 $98 forward single #
loop $-1 $-1 $99 $38 #
plane-surface $-1 44.201528532083188 -30.530230264478767 169.24865234152989 0 -1 0 -0.64278761758704617 0 -0.76604443648966558 forward_v I I I I #
coedge $-1 $100 $101 $102 $103 reversed $39 $-1 #
face $-1 $-1 $104 $23 $-1 $105 forward single #
loop $-1 $106 $107 $41 #
cone-surface $-1 49.971074841426983 -37.090187174304972 8.4887824942637984 -0.64278761758704617 0 -0.76604443648966558 0.38302221824483279 0 -0.32139380879352308 1 I I -0.70710678118654746 0.70710678118654746 0.5 forward I I I I #
loop $-1 $-1 $108 $30 #
coedge $-1 $68 $68 $109 $110 reversed $42 $-1 #
face $-1 $-1 $111 $24 $-1 $112 forward single #
loop $-1 $113 $114 $44 #
cone-surface $-1 49.971074841426983 -33.154213028409245 8.4887824942637984 -0.64278761758704617 0 -0.76604443648966558 0.38302221824483279 0 -0.32139380879352308 1 I I -0.70710678118654746 0.70710678118654746 0.5 forward I I I I #
loop $-1 $-1 $115 $31 #
coedge $-1 $73 $73 $116 $117 reversed $45 $-1 #
face $-1 $118 $119 $25 $-1 $120 reversed single #
loop $-1 $-1 $121 $47 #
plane-surface $-1 -58.662678914761827 -35.122200101357109 3.9569274752769275 -0.64278761758704617 0 0.76604443648966558 0.76604443648966558 0 0.64278761758704617 forward_v I I I I #
coedge $-1 $122 $123 $124 $125 reversed $48 $-1 #
face $-1 $-1 $126 $26 $-1 $127 forward single #
loop $-1 $128 $129 $50 #
cone-surface $-1 -49.971074841426997 -37.090187174304972 8.4887824942637842 0.64278761758704617 0 -0.76604443648966558 0.38302221824483279 0 0.32139380879352308 1 I I -0.70710678118654746 0.70710678118654746 0.5 forward I I I I #
loop $-1 $-1 $130 $33 #
coedge $-1 $82 $82 $131 $132 reversed $51 $-1 #
face $-1 $-1 $133 $27 $-1 $134 forward single #
loop $-1 $135 $136 $53 #
cone-surface $-1 -49.971074841426997 -33.154213028409245 8.4887824942637842 0.64278761758704617 0 -0.76604443648966558 0.38302221824483279 0 0.32139380879352308 1 I I -0.70710678118654746 0.70710678118654746 0.5 forward I I I I #
loop $-1 $-1 $137 $34 #
coedge $-1 $87 $87 $138 $139 reversed $54 $-1 #
face $-1 $140 $141 $21 $-1 $142 reversed single #
loop $-1 $-1 $143 $56 #
plane-surface $-1 0 -39.71416993823545 0 0 1 0 0 0 1 forward_v I I I I #
coedge $-1 $144 $145 $146 $147 forward $57 $-1 #
coedge $-1 $148 $59 $149 $150 forward $36 $-1 #
coedge $-1 $59 $148 $151 $152 forward $36 $-1 #
coedge $-1 $153 $154 $59 $95 reversed $155 $-1 #
edge $-1 $156 -39.71416993823545 $157 39.71416993823545 $94 $158 forward 7 unknown #
face $-1 $159 $160 $22 $-1 $161 reversed single #
loop $-1 $-1 $162 $60 #
plane-surface $-1 0 0 16.261393329487515 0 0 1 1 0 0 forward_v I I I I #
coedge $-1 $163 $164 $165 $166 reversed $61 $-1 #
coedge $-1 $167 $63 $168 $169 reversed $39 $-1 #
coedge $-1 $63 $167 $163 $170 forward $39 $-1 #
coedge $-1 $165 $171 $63 $103 forward $172 $-1 #
edge $-1 $173 -22.153069887556896 $174 -12.969130213800213 $102 $175 forward 7 unknown #
loop $-1 $-1 $109 $64 #
plane-surface $-1 -31.213758709703981 -35.122200101357109 79.372214717064111 0.64278761758704617 0 0.76604443648966558 0.76604443648966558 0 -0.64278761758704617 forward_v I I I I #
loop $-1 $-1 $176 $41 #
coedge $-1 $107 $107 $108 $177 reversed $65 $-1 #
coedge $-1 $108 $108 $107 $177 forward $67 $-1 #
coedge $-1 $109 $109 $68 $110 forward $104 $-1 #
edge $-1 $178 0 $178 6.2831853071796004 $109 $179 forward 7 unknown #
loop $-1 $-1 $116 $69 #
plane-surface $-1 -31.213758709703981 -35.122200101357109 79.372214717064111 0.64278761758704617 0 0.76604443648966558 0.76604443648966558 0 -0.64278761758704617 forward_v I I I I #
loop $-1 $-1 $180 $44 #
coedge $-1 $114 $114 $115 $181 reversed $70 $-1 #
coedge $-1 $115 $115 $114 $181 forward $72 $-1 #
coedge $-1 $116 $116 $73 $117 forward $111 $-1 #
edge $-1 $182 0 $182 6.2831853071796004 $116 $183 forward 7 unknown #
face $-1 $184 $185 $25 $-1 $186 reversed single #
loop $-1 $-1 $124 $74 #
plane-surface $-1 -58.662678914761798 0 0 1 0 0 0 0 -1 forward_v I I I I #
coedge $-1 $187 $188 $189 $190 reversed $75 $-1 #
coedge $-1 $123 $77 $191 $192 reversed $48 $-1 #
coedge $-1 $77 $122 $187 $193 reversed $48 $-1 #
coedge $-1 $189 $194 $77 $125 forward $119 $-1 #
edge $-1 $195 30.655289220383839 $196 42.959755074594405 $124 $197 forward 7 unknown #
loop $-1 $-1 $131 $78 #
plane-surface $-1 -58.662678914761827 -35.122200101357109 3.9569274752769275 -0.64278761758704617 0 0.76604443648966558 0.76604443648966558 0 0.64278761758704617 forward_v I I I I #
loop $-1 $-1 $198 $50 #
coedge $-1 $129 $129 $130 $199 reversed $79 $-1 #
coedge $-1 $130 $130 $129 $199 forward $81 $-1 #
coedge $-1 $131 $131 $82 $132 forward $126 $-1 #
edge $-1 $200 0 $200 6.2831853071796004 $131 $201 forward 7 unknown #
loop $-1 $-1 $138 $83 #
plane-surface $-1 -58.662678914761827 -35.122200101357109 3.9569274752769275 -0.64278761758704617 0 0.76604443648966558 0.76604443648966558 0 0.64278761758704617 forward_v I I I I #
loop $-1 $-1 $202 $53 #
coedge $-1 $136 $136 $137 $203 reversed $84 $-1 #
coedge $-1 $137 $137 $136 $203 forward $86 $-1 #
coedge $-1 $138 $138 $87 $139 forward $133 $-1 #
edge $-1 $204 0 $204 6.2831853071796004 $138 $205 forward 7 unknown #
face $-1 $206 $207 $21 $-1 $208 reversed single #
loop $-1 $-1 $209 $88 #
plane-surface $-1 -58.662678914761798 0 0 1 0 0 0 0 -1 forward_v I I I I #
coedge $-1 $210 $151 $211 $212 forward $89 $-1 #
coedge $-1 $213 $91 $210 $214 forward $57 $-1 #
coedge $-1 $91 $213 $215 $216 forward $57 $-1 #
coedge $-1 $154 $153 $91 $147 reversed $155 $-1 #
edge $-1 $217 -39.71416993823545 $218 39.71416993823545 $146 $219 forward 7 unknown #
coedge $-1 $93 $92 $220 $221 forward $36 $-1 #
coedge $-1 $222 $223 $92 $150 reversed $207 $-1 #
edge $-1 $157 -58.662678914761798 $224 58.662678914761798 $149 $225 forward 7 unknown #
coedge $-1 $143 $226 $93 $152 reversed $89 $-1 #
edge $-1 $227 -58.662678914761798 $156 58.662678914761798 $151 $228 forward 7 unknown #
coedge $-1 $146 $94 $226 $229 forward $155 $-1 #
coedge $-1 $94 $146 $222 $230 reversed $155 $-1 #
loop $-1 $-1 $153 $206 #
vertex $-1 $95 $231 #
vertex $-1 $95 $232 #
straight-curve $-1 58.662678914761798 0 16.261393329487515 0 1 0 I I #
face $-1 $-1 $172 $22 $-1 $233 reversed single #
loop $-1 $-1 $168 $96 #
plane-surface $-1 0 -39.71416993823545 0 0 1 0 0 0 1 forward_v I I I I #
coedge $-1 $234 $235 $164 $236 forward $97 $-1 #
coedge $-1 $164 $99 $101 $170 reversed $61 $-1 #
coedge $-1 $99 $163 $162 $236 reversed $61 $-1 #
coedge $-1 $237 $102 $99 $166 forward $172 $-1 #
edge $-1 $174 -80.667398695488004 $238 -68.362932841277427 $165 $239 forward 7 unknown #
coedge $-1 $101 $100 $234 $240 reversed $39 $-1 #
coedge $-1 $241 $242 $100 $169 forward $160 $-1 #
edge $-1 $243 60.717705857572255 $173 79.86005632847926 $168 $244 forward 7 unknown #
edge $-1 $245 98.183007358616607 $174 117.3253578295236 $163 $246 forward 7 unknown #
coedge $-1 $102 $237 $241 $247 forward $172 $-1 #
loop $-1 $-1 $165 $159 #
vertex $-1 $169 $248 #
vertex $-1 $103 $249 #
straight-curve $-1 58.662678914761798 -17.561100050678554 3.9569274752769417 0 1 0 I I #
coedge $-1 $176 $176 $-1 $250 reversed $106 $-1 #
edge $-1 $251 0 $251 6.2831853071796004 $107 $252 forward 7 unknown #
vertex $-1 $110 $253 #
ellipse-curve $-1 51.330733374974976 -37.090187174304972 10.109160402382246 0.64278761758704617 0 0.76604443648966558 0.76604443648966558 0 -0.64278761758704617 1 I I #
coedge $-1 $180 $180 $-1 $254 reversed $113 $-1 #
edge $-1 $255 0 $255 6.2831853071796004 $114 $256 forward 7 unknown #
vertex $-1 $117 $257 #
ellipse-curve $-1 51.330733374974976 -33.154213028409245 10.109160402382246 0.64278761758704617 0 0.76604443648966558 0.76604443648966558 0 -0.64278761758704617 1 I I #
face $-1 $-1 $258 $25 $-1 $259 forward single #
loop $-1 $-1 $260 $118 #
plane-surface $-1 0 -39.71416993823545 0 0 1 0 0 0 1 forward_v I I I I #
coedge $-1 $261 $121 $123 $193 forward $75 $-1 #
coedge $-1 $121 $261 $260 $262 reversed $75 $-1 #
coedge $-1 $263 $124 $121 $190 forward $119 $-1 #
edge $-1 $196 12.969130213800213 $264 22.153069887556896 $189 $265 forward 7 unknown #
coedge $-1 $266 $267 $122 $192 forward $258 $-1 #
edge $-1 $268 -23.040195243086316 $195 -8.3763041635126996 $191 $269 forward 7 unknown #
edge $-1 $196 3.7186864825251173e-014 $268 19.142350470907008 $123 $270 forward 7 unknown #
coedge $-1 $124 $263 $266 $271 reversed $119 $-1 #
vertex $-1 $271 $272 #
vertex $-1 $125 $273 #
straight-curve $-1 -58.662678914761798 -30.530230264478767 46.916682549871354 0 0 -1 I I #
coedge $-1 $198 $198 $-1 $274 reversed $128 $-1 #
edge $-1 $275 0 $275 6.2831853071796004 $129 $276 forward 7 unknown #
vertex $-1 $132 $277 #
ellipse-curve $-1 -51.33073337497499 -37.090187174304972 10.109160402382232 -0.64278761758704617 0 0.76604443648966558 0.76604443648966558 0 0.64278761758704617 1 I I #
coedge $-1 $202 $202 $-1 $278 reversed $135 $-1 #
edge $-1 $279 0 $279 6.2831853071796004 $136 $280 forward 7 unknown #
vertex $-1 $139 $281 #
ellipse-curve $-1 -51.33073337497499 -33.154213028409245 10.109160402382232 -0.64278761758704617 0 0.76604443648966558 0.76604443648966558 0 0.64278761758704617 1 I I #
face $-1 $-1 $155 $21 $-1 $282 reversed single #
loop $-1 $-1 $222 $140 #
plane-surface $-1 0 39.71416993823545 0 0 -1 0 0 0 -1 forward_v I I I I #
coedge $-1 $283 $220 $223 $284 forward $141 $-1 #
coedge $-1 $226 $143 $144 $214 reversed $89 $-1 #
coedge $-1 $220 $283 $143 $212 reversed $141 $-1 #
edge $-1 $227 -16.261393329487515 $285 16.261393329487515 $211 $286 forward 7 unknown #
coedge $-1 $145 $144 $283 $287 forward $57 $-1 #
edge $-1 $218 -58.662678914761798 $285 58.662678914761798 $210 $288 forward 7 unknown #
coedge $-1 $223 $222 $145 $216 reversed $207 $-1 #
edge $-1 $289 -58.662678914761798 $217 58.662678914761798 $215 $290 forward 7 unknown #
vertex $-1 $147 $291 #
vertex $-1 $229 $292 #
straight-curve $-1 58.662678914761798 0 -16.261393329487515 0 -1 0 I I #
coedge $-1 $209 $211 $148 $221 reversed $141 $-1 #
edge $-1 $224 -39.71416993823545 $227 39.71416993823545 $220 $293 forward 7 unknown #
coedge $-1 $215 $149 $154 $230 forward $207 $-1 #
coedge $-1 $149 $215 $209 $284 reversed $207 $-1 #
vertex $-1 $150 $294 #
straight-curve $-1 0 39.71416993823545 16.261393329487515 -1 0 0 I I #
coedge $-1 $151 $210 $153 $229 reversed $89 $-1 #
vertex $-1 $221 $295 #
straight-curve $-1 0 -39.71416993823545 16.261393329487515 1 0 0 I I #
edge $-1 $156 -16.261393329487515 $218 16.261393329487515 $153 $296 forward 7 unknown #
edge $-1 $157 -16.261393329487515 $217 16.261393329487515 $154 $297 forward 7 unknown #
point $-1 58.662678914761798 -39.71416993823545 16.261393329487515 #
point $-1 58.662678914761798 39.71416993823545 16.261393329487515 #
plane-surface $-1 58.662678914761798 0 0 -1 0 0 0 0 1 forward_v I I I I #
coedge $-1 $298 $162 $167 $240 forward $97 $-1 #
coedge $-1 $162 $298 $237 $299 forward $97 $-1 #
edge $-1 $238 -36.561914648720204 $245 -21.898023569146574 $162 $300 forward 7 unknown #
coedge $-1 $171 $165 $235 $299 reversed $172 $-1 #
vertex $-1 $166 $301 #
straight-curve $-1 58.662678914761798 -30.530230264478767 84.624326170764945 0 0 1 I I #
edge $-1 $245 12.969130213800213 $243 22.153069887556896 $234 $302 forward 7 unknown #
coedge $-1 $242 $168 $171 $247 reversed $160 $-1 #
coedge $-1 $168 $241 $298 $303 reversed $160 $-1 #
vertex $-1 $303 $304 #
straight-curve $-1 -2.5136729334210397 -39.71416993823545 55.28998282302743 0.76604443648966558 0 -0.64278761758704617 I I #
vertex $-1 $240 $305 #
straight-curve $-1 -31.213758709703981 -30.530230264478767 79.372214717064111 0.76604443648966558 0 -0.64278761758704617 I I #
edge $-1 $306 -16.261393329487515 $173 -3.9569274752769421 $171 $307 forward 7 unknown #
point $-1 58.662678914761798 -39.71416993823545 3.9569274752769421 #
point $-1 58.662678914761798 -30.530230264478767 3.9569274752769417 #
edge $-1 $308 1 $308 0 $176 $-1 forward 7 unknown #
vertex $-1 $177 $309 #
ellipse-curve $-1 50.292468650220506 -37.090187174304972 8.8718047125086308 0.64278761758704617 0 0.76604443648966558 0.76604443648966558 0 -0.64278761758704617 1 I I #
point $-1 52.096777811464641 -37.090187174304972 9.4663727847951957 #
edge $-1 $310 1 $310 0 $180 $-1 forward 7 unknown #
vertex $-1 $181 $311 #
ellipse-curve $-1 50.292468650220506 -33.154213028409245 8.8718047125086308 0.64278761758704617 0 0.76604443648966558 0.76604443648966558 0 -0.64278761758704617 1 I I #
point $-1 52.096777811464641 -33.154213028409245 9.4663727847951957 #
loop $-1 $-1 $191 $184 #
plane-surface $-1 0 0 16.261393329487515 0 0 1 1 0 0 forward_v I I I I #
coedge $-1 $312 $313 $188 $262 forward $185 $-1 #
coedge $-1 $188 $187 $267 $314 reversed $75 $-1 #
edge $-1 $264 -21.19737741371743 $315 -2.0550269428104579 $260 $316 forward 7 unknown #
coedge $-1 $194 $189 $313 $317 reversed $119 $-1 #
vertex $-1 $262 $318 #
straight-curve $-1 -58.662678914761798 -17.561100050678554 3.9569274752769523 0 -1 0 I I #
coedge $-1 $319 $191 $194 $271 forward $258 $-1 #
coedge $-1 $191 $319 $261 $314 forward $258 $-1 #
vertex $-1 $192 $320 #
straight-curve $-1 -67.038983078274498 -30.530230264478767 16.261393329487511 -1 0 0 I I #
straight-curve $-1 -58.662678914761827 -30.530230264478767 3.9569274752769275 0.76604443648966558 0 0.64278761758704617 I I #
edge $-1 $195 30.530230264478767 $321 39.71416993823545 $194 $322 forward 7 unknown #
point $-1 -58.662678914761798 -30.530230264478767 16.261393329487515 #
point $-1 -58.662678914761798 -30.530230264478767 3.9569274752769514 #
edge $-1 $323 1 $323 0 $198 $-1 forward 7 unknown #
vertex $-1 $199 $324 #
ellipse-curve $-1 -50.29246865022052 -37.090187174304972 8.8718047125086166 -0.64278761758704617 0 0.76604443648966558 0.76604443648966558 0 0.64278761758704617 1 I I #
point $-1 -50.564688938485325 -37.090187174304972 10.751948019969273 #
edge $-1 $325 1 $325 0 $202 $-1 forward 7 unknown #
vertex $-1 $203 $326 #
ellipse-curve $-1 -50.29246865022052 -33.154213028409245 8.8718047125086166 -0.64278761758704617 0 0.76604443648966558 0.76604443648966558 0 0.64278761758704617 1 I I #
point $-1 -50.564688938485325 -33.154213028409245 10.751948019969273 #
plane-surface $-1 58.662678914761798 0 0 -1 0 0 0 0 1 forward_v I I I I #
coedge $-1 $211 $209 $213 $287 reversed $141 $-1 #
edge $-1 $224 -16.261393329487515 $289 16.261393329487515 $223 $327 forward 7 unknown #
vertex $-1 $287 $328 #
straight-curve $-1 -58.662678914761798 -39.71416993823545 0 0 0 -1 I I #
edge $-1 $285 -39.71416993823545 $289 39.71416993823545 $283 $329 forward 7 unknown #
straight-curve $-1 0 -39.71416993823545 -16.261393329487515 -1 0 0 I I #
vertex $-1 $216 $330 #
straight-curve $-1 0 39.71416993823545 -16.261393329487515 1 0 0 I I #
point $-1 58.662678914761798 39.71416993823545 -16.261393329487515 #
point $-1 58.662678914761798 -39.71416993823545 -16.261393329487515 #
straight-curve $-1 -58.662678914761798 0 16.261393329487515 0 -1 0 I I #
point $-1 -58.662678914761798 39.71416993823545 16.261393329487515 #
point $-1 -58.662678914761798 -39.71416993823545 16.261393329487515 #
straight-curve $-1 58.662678914761798 -39.71416993823545 0 0 0 -1 I I #
straight-curve $-1 58.662678914761798 39.71416993823545 0 0 0 -1 I I #
coedge $-1 $235 $234 $242 $303 forward $97 $-1 #
edge $-1 $306 -39.71416993823545 $238 -30.530230264478767 $237 $331 forward 7 unknown #
straight-curve $-1 22.100764266041594 -30.530230264478767 16.261393329487518 -1 0 0 I I #
point $-1 58.662678914761798 -30.530230264478767 16.261393329487515 #
straight-curve $-1 43.998787835188175 -17.561100050678554 16.261393329487511 0 -1 0 I I #
edge $-1 $243 43.998787835188168 $306 58.662678914761798 $242 $332 forward 7 unknown #
point $-1 43.998787835188168 -39.71416993823545 16.261393329487518 #
point $-1 43.998787835188168 -30.530230264478767 16.261393329487518 #
vertex $-1 $299 $333 #
straight-curve $-1 58.662678914761798 -39.71416993823545 0 0 0 -1 I I #
vertex $-1 $250 $334 #
point $-1 51.058513086710171 -37.090187174304972 8.2290170949215842 #
vertex $-1 $254 $335 #
point $-1 51.058513086710171 -33.154213028409245 8.2290170949215842 #
coedge $-1 $313 $260 $319 $336 reversed $185 $-1 #
coedge $-1 $260 $312 $263 $317 forward $185 $-1 #
edge $-1 $315 -22.153069887556896 $268 -12.969130213800213 $267 $337 forward 7 unknown #
vertex $-1 $314 $338 #
straight-curve $-1 -42.424545878811863 -39.71416993823545 17.582339202133838 0.76604443648966558 0 0.64278761758704617 I I #
edge $-1 $321 -16.261393329487515 $264 -3.956927475276951 $263 $339 forward 7 unknown #
point $-1 -58.662678914761798 -39.71416993823545 3.956927475276951 #
coedge $-1 $267 $266 $312 $336 forward $258 $-1 #
point $-1 -43.998787835188182 -30.530230264478767 16.261393329487515 #
vertex $-1 $271 $340 #
straight-curve $-1 -58.662678914761798 0 16.261393329487515 0 -1 0 I I #
vertex $-1 $274 $341 #
point $-1 -49.526424213730856 -37.090187174304972 9.5145923300956632 #
vertex $-1 $278 $342 #
point $-1 -49.526424213730856 -33.154213028409245 9.5145923300956632 #
straight-curve $-1 -58.662678914761798 39.71416993823545 0 0 0 -1 I I #
point $-1 -58.662678914761798 -39.71416993823545 -16.261393329487515 #
straight-curve $-1 -58.662678914761798 0 -16.261393329487515 0 1 0 I I #
point $-1 -58.662678914761798 39.71416993823545 -16.261393329487515 #
straight-curve $-1 58.662678914761798 0 16.261393329487515 0 1 0 I I #
straight-curve $-1 0 -39.71416993823545 16.261393329487515 1 0 0 I I #
point $-1 58.662678914761798 -39.71416993823545 16.261393329487515 #
point $-1 49.64968103263346 -37.090187174304972 8.105760276018966 #
point $-1 49.64968103263346 -33.154213028409245 8.105760276018966 #
edge $-1 $321 -58.662678914761798 $315 -43.998787835188182 $312 $343 forward 7 unknown #
straight-curve $-1 -43.998787835188182 -17.561100050678554 16.261393329487515 0 1 0 I I #
point $-1 -43.998787835188182 -39.71416993823545 16.261393329487515 #
straight-curve $-1 -58.662678914761798 -39.71416993823545 0 0 0 -1 I I #
point $-1 -58.662678914761798 -39.71416993823545 16.261393329487515 #
point $-1 -49.649681032633474 -37.090187174304972 8.1057602760189518 #
point $-1 -49.649681032633474 -33.154213028409245 8.1057602760189518 #
straight-curve $-1 0 -39.71416993823545 16.261393329487515 1 0 0 I I #
End-of-ACIS-data 