500 0 15 0           
7 Unknown 11 ACIS 5.0 NT 24 Fri Mar 26 00:33:58 1999 
-1 9.9999999999999995e-007 1e-010 
body $-1 $15 $-1 $16 #
body $-1 $17 $-1 $18 #
body $-1 $19 $-1 $20 #
body $-1 $21 $-1 $22 #
body $-1 $23 $-1 $24 #
body $-1 $25 $-1 $26 #
body $-1 $27 $-1 $28 #
body $-1 $29 $-1 $30 #
body $-1 $31 $-1 $32 #
body $-1 $33 $-1 $34 #
body $-1 $35 $-1 $36 #
body $-1 $37 $-1 $38 #
body $-1 $39 $-1 $40 #
body $-1 $41 $-1 $42 #
body $-1 $43 $-1 $44 #
lump $-1 $-1 $45 $0 #
transform $-1 1 0 0 0 1 0 0 0 1 54.794152653584398 26.048418100066659 7.6389190101980828 1 rotate no_reflect no_shear #
lump $-1 $-1 $46 $1 #
transform $-1 1 0 0 0 1 0 0 0 1 54.794152653584398 26.048418100066659 7.6389190101980828 1 rotate no_reflect no_shear #
lump $-1 $-1 $47 $2 #
transform $-1 1 0 0 0 1 0 0 0 1 54.794152653584398 26.048418100066659 7.6389190101980828 1 rotate no_reflect no_shear #
lump $-1 $-1 $48 $3 #
transform $-1 1 0 0 0 1 0 0 0 1 54.794152653584398 26.048418100066659 7.6389190101980828 1 rotate no_reflect no_shear #
lump $-1 $-1 $49 $4 #
transform $-1 1 0 0 0 1 0 0 0 1 54.794152653584398 26.048418100066659 7.6389190101980828 1 rotate no_reflect no_shear #
lump $-1 $-1 $50 $5 #
transform $-1 1 0 0 0 1 0 0 0 1 54.794152653584398 26.048418100066659 7.6389190101980828 1 rotate no_reflect no_shear #
lump $-1 $-1 $51 $6 #
transform $-1 1 0 0 0 1 0 0 0 1 54.794152653584398 26.048418100066659 7.6389190101980828 1 rotate no_reflect no_shear #
lump $-1 $-1 $52 $7 #
transform $-1 1 0 0 0 1 0 0 0 1 54.794152653584398 26.048418100066659 7.6389190101980828 1 rotate no_reflect no_shear #
lump $-1 $-1 $53 $8 #
transform $-1 1 0 0 0 1 0 0 0 1 54.794152653584398 26.048418100066659 7.6389190101980828 1 rotate no_reflect no_shear #
lump $-1 $-1 $54 $9 #
transform $-1 1 0 0 0 1 0 0 0 1 54.794152653584398 26.048418100066659 7.6389190101980828 1 rotate no_reflect no_shear #
lump $-1 $-1 $55 $10 #
transform $-1 1 0 0 0 1 0 0 0 1 54.794152653584398 26.048418100066659 7.6389190101980828 1 rotate no_reflect no_shear #
lump $-1 $-1 $56 $11 #
transform $-1 1 0 0 0 1 0 0 0 1 54.794152653584398 26.048418100066659 7.6389190101980828 1 rotate no_reflect no_shear #
lump $-1 $-1 $57 $12 #
transform $-1 1 0 0 0 1 0 0 0 1 54.794152653584398 26.048418100066659 7.6389190101980828 1 rotate no_reflect no_shear #
lump $-1 $-1 $58 $13 #
transform $-1 1 0 0 0 1 0 0 0 1 54.794152653584398 26.048418100066659 7.6389190101980828 1 rotate no_reflect no_shear #
lump $-1 $-1 $59 $14 #
transform $-1 1 0 0 0 1 0 0 0 1 54.794152653584398 26.048418100066659 7.6389190101980828 1 rotate no_reflect no_shear #
shell $-1 $-1 $-1 $60 $-1 $15 #
shell $-1 $-1 $-1 $61 $-1 $17 #
shell $-1 $-1 $-1 $62 $-1 $19 #
shell $-1 $-1 $-1 $63 $-1 $21 #
shell $-1 $-1 $-1 $64 $-1 $23 #
shell $-1 $-1 $-1 $65 $-1 $25 #
shell $-1 $-1 $-1 $66 $-1 $27 #
shell $-1 $-1 $-1 $67 $-1 $29 #
shell $-1 $-1 $-1 $68 $-1 $31 #
shell $-1 $-1 $-1 $69 $-1 $33 #
shell $-1 $-1 $-1 $70 $-1 $35 #
shell $-1 $-1 $-1 $71 $-1 $37 #
shell $-1 $-1 $-1 $72 $-1 $39 #
shell $-1 $-1 $-1 $73 $-1 $41 #
shell $-1 $-1 $-1 $74 $-1 $43 #
face $-1 $75 $76 $45 $-1 $77 forward single #
face $-1 $78 $79 $46 $-1 $80 reversed single #
face $-1 $81 $82 $47 $-1 $83 reversed single #
face $-1 $84 $85 $48 $-1 $86 reversed single #
face $-1 $87 $88 $49 $-1 $89 forward single #
face $-1 $90 $91 $50 $-1 $92 forward single #
face $-1 $93 $94 $51 $-1 $95 reversed single #
face $-1 $96 $97 $52 $-1 $98 forward single #
face $-1 $99 $100 $53 $-1 $101 forward single #
face $-1 $102 $103 $54 $-1 $104 reversed single #
face $-1 $105 $106 $55 $-1 $107 forward single #
face $-1 $108 $109 $56 $-1 $110 forward single #
face $-1 $111 $112 $57 $-1 $113 reversed single #
face $-1 $114 $115 $58 $-1 $116 forward single #
face $-1 $117 $118 $59 $-1 $119 forward single #
face $-1 $120 $121 $45 $-1 $122 reversed single #
loop $-1 $-1 $123 $60 #
plane-surface $-1 0 0 7.6389190101980828 0 0 1 1 0 0 forward_v I I I I #
face $-1 $124 $125 $46 $-1 $126 reversed single #
loop $-1 $-1 $127 $61 #
plane-surface $-1 -45.025240848125513 -22.730093782611036 0 1 0 0 0 0 -1 forward_v I I I I #
face $-1 $128 $129 $47 $-1 $130 reversed single #
loop $-1 $-1 $131 $62 #
plane-surface $-1 -49.146583787110046 18.375798045155477 0 0 1 0 0 0 1 forward_v I I I I #
face $-1 $132 $133 $48 $-1 $134 reversed single #
loop $-1 $-1 $135 $63 #
plane-surface $-1 35.906688832992167 -0.51798570999997118 155.61200301541231 0 -1 0 -0.61566148304635926 0 -0.78801074757464917 forward_v I I I I #
face $-1 $136 $137 $49 $-1 $138 forward single #
loop $-1 $139 $140 $64 #
cone-surface $-1 50.492064509516347 -6.453292230940928 4.0003301803444149 -0.61566148304635926 0 -0.78801074757464917 0.78801074757464917 0 -0.61566148304635926 1 I I 0 1 1 forward I I I I #
face $-1 $141 $142 $50 $-1 $143 forward single #
loop $-1 $144 $145 $65 #
cone-surface $-1 50.492064509516347 -2.892108318376355 4.0003301803444149 -0.61566148304635926 0 -0.78801074757464917 0.78801074757464917 0 -0.61566148304635926 1 I I 0 1 1 forward I I I I #
face $-1 $146 $147 $51 $-1 $148 reversed single #
loop $-1 $-1 $149 $66 #
plane-surface $-1 35.906688832992167 7.7914434193173694 155.61200301541231 0 -1 0 -0.61566148304635926 0 -0.78801074757464917 forward_v I I I I #
face $-1 $150 $151 $52 $-1 $152 forward single #
loop $-1 $153 $154 $67 #
cone-surface $-1 50.492064509516347 1.8561368983764126 4.0003301803444149 -0.61566148304635926 0 -0.78801074757464917 0.78801074757464917 0 -0.61566148304635926 1 I I 0 1 1 forward I I I I #
face $-1 $155 $156 $53 $-1 $157 forward single #
loop $-1 $158 $159 $68 #
cone-surface $-1 50.492064509516347 5.4173208109409856 4.0003301803444149 -0.61566148304635926 0 -0.78801074757464917 0.78801074757464917 0 -0.61566148304635926 1 I I 0 1 1 forward I I I I #
face $-1 $160 $161 $54 $-1 $162 reversed single #
loop $-1 $-1 $163 $69 #
plane-surface $-1 -138.74366587308594 -15.533444941990268 74.848460054365688 0 1 0 -0.7660444514056185 0 0.64278759981090561 forward_v I I I I #
face $-1 $164 $165 $55 $-1 $166 forward single #
loop $-1 $167 $168 $70 #
cone-surface $-1 -52.731246299085193 -13.60381207701859 5.4296730934905293 0.7660444514056185 0 -0.64278759981090561 0.3213937999054528 0 0.38302222570280925 1 I I 0 1 0.5 forward I I I I #
face $-1 $169 $170 $56 $-1 $171 forward single #
loop $-1 $172 $173 $71 #
cone-surface $-1 -52.731246299085193 -10.709362779561074 5.4296730934905293 0.7660444514056185 0 -0.64278759981090561 0.3213937999054528 0 0.38302222570280925 1 I I 0 1 0.5 forward I I I I #
face $-1 $174 $175 $57 $-1 $176 reversed single #
loop $-1 $-1 $177 $72 #
plane-surface $-1 -138.74366587308594 7.7437584945894606 74.848460054365688 0 1 0 -0.7660444514056185 0 0.64278759981090561 forward_v I I I I #
face $-1 $178 $179 $58 $-1 $180 forward single #
loop $-1 $181 $182 $73 #
cone-surface $-1 -52.731246299085193 9.6733913595611334 5.4296730934905293 0.7660444514056185 0 -0.64278759981090561 0.3213937999054528 0 0.38302222570280925 1 I I 0 1 0.5 forward I I I I #
face $-1 $183 $184 $59 $-1 $185 forward single #
loop $-1 $186 $187 $74 #
cone-surface $-1 -52.731246299085193 12.567840657018653 5.4296730934905293 0.7660444514056185 0 -0.64278759981090561 0.3213937999054528 0 0.38302222570280925 1 I I 0 1 0.5 forward I I I I #
face $-1 $188 $189 $45 $-1 $190 reversed single #
loop $-1 $-1 $191 $75 #
plane-surface $-1 0 0 -7.6389190101980828 0 0 1 1 0 0 forward_v I I I I #
coedge $-1 $192 $193 $194 $195 forward $76 $-1 #
face $-1 $196 $197 $46 $-1 $198 reversed single #
loop $-1 $-1 $199 $78 #
plane-surface $-1 -43.110533803762038 -19.411769465155412 0 0 -1 0 0 0 -1 forward_v I I I I #
coedge $-1 $200 $201 $202 $203 forward $79 $-1 #
face $-1 $204 $205 $47 $-1 $206 reversed single #
loop $-1 $-1 $207 $81 #
plane-surface $-1 -50.646583787110046 22.21210807261107 0 1 0 0 0 0 -1 forward_v I I I I #
coedge $-1 $208 $209 $210 $211 forward $82 $-1 #
face $-1 $212 $213 $48 $-1 $214 reversed single #
loop $-1 $-1 $215 $84 #
plane-surface $-1 -31.562609736956581 -4.6727002746586415 69.255240624871334 0.61566148304635926 0 0.78801074757464917 0.78801074757464917 0 -0.61566148304635926 forward_v I I I I #
coedge $-1 $216 $217 $218 $219 reversed $85 $-1 #
face $-1 $-1 $220 $49 $-1 $221 forward single #
loop $-1 $222 $223 $87 #
cone-surface $-1 49.627879986940762 -6.453292230940928 2.8942244543411677 -0.61566148304635926 0 -0.78801074757464917 0.39400537378732459 0 -0.30783074152317963 1 I I -0.70710678118654746 0.70710678118654746 0.5 forward I I I I #
loop $-1 $-1 $224 $64 #
coedge $-1 $140 $140 $225 $226 reversed $88 $-1 #
face $-1 $-1 $227 $50 $-1 $228 forward single #
loop $-1 $229 $230 $90 #
cone-surface $-1 49.627879986940762 -2.892108318376355 2.8942244543411677 -0.61566148304635926 0 -0.78801074757464917 0.39400537378732459 0 -0.30783074152317963 1 I I -0.70710678118654746 0.70710678118654746 0.5 forward I I I I #
loop $-1 $-1 $231 $65 #
coedge $-1 $145 $145 $232 $233 reversed $91 $-1 #
face $-1 $234 $235 $51 $-1 $236 forward single #
loop $-1 $-1 $237 $93 #
plane-surface $-1 -31.562609736956581 -4.6727002746586415 69.255240624871334 0.61566148304635926 0 0.78801074757464917 0.78801074757464917 0 -0.61566148304635926 forward_v I I I I #
coedge $-1 $238 $239 $240 $241 reversed $94 $-1 #
face $-1 $-1 $242 $52 $-1 $243 forward single #
loop $-1 $244 $245 $96 #
cone-surface $-1 49.627879986940762 1.8561368983764126 2.8942244543411677 -0.61566148304635926 0 -0.78801074757464917 0.39400537378732459 0 -0.30783074152317963 1 I I -0.70710678118654746 0.70710678118654746 0.5 forward I I I I #
loop $-1 $-1 $246 $67 #
coedge $-1 $154 $154 $247 $248 reversed $97 $-1 #
face $-1 $-1 $249 $53 $-1 $250 forward single #
loop $-1 $251 $252 $99 #
cone-surface $-1 49.627879986940762 5.4173208109409856 2.8942244543411677 -0.61566148304635926 0 -0.78801074757464917 0.39400537378732459 0 -0.30783074152317963 1 I I -0.70710678118654746 0.70710678118654746 0.5 forward I I I I #
loop $-1 $-1 $253 $68 #
coedge $-1 $159 $159 $254 $255 reversed $100 $-1 #
face $-1 $256 $257 $54 $-1 $258 reversed single #
loop $-1 $-1 $259 $102 #
plane-surface $-1 -54.794152653584391 -12.156587428289832 4.4064563186259278 -0.7660444514056185 0 0.64278759981090561 0.64278759981090561 0 0.7660444514056185 forward_v I I I I #
coedge $-1 $260 $261 $262 $263 reversed $103 $-1 #
face $-1 $-1 $264 $55 $-1 $265 forward single #
loop $-1 $266 $267 $105 #
cone-surface $-1 -51.833007922374449 -13.60381207701859 4.6759616226163354 0.7660444514056185 0 -0.64278759981090561 0.1606968999527264 0 0.19151111285140462 1 I I -0.70710678118654746 0.70710678118654746 0.25 forward I I I I #
loop $-1 $-1 $268 $70 #
coedge $-1 $168 $168 $269 $270 reversed $106 $-1 #
face $-1 $-1 $271 $56 $-1 $272 forward single #
loop $-1 $273 $274 $108 #
cone-surface $-1 -51.833007922374449 -10.709362779561074 4.6759616226163354 0.7660444514056185 0 -0.64278759981090561 0.1606968999527264 0 0.19151111285140462 1 I I -0.70710678118654746 0.70710678118654746 0.25 forward I I I I #
loop $-1 $-1 $275 $71 #
coedge $-1 $173 $173 $276 $277 reversed $109 $-1 #
face $-1 $278 $279 $57 $-1 $280 reversed single #
loop $-1 $-1 $281 $111 #
plane-surface $-1 -54.794152653584391 11.120616008289897 4.4064563186259278 -0.7660444514056185 0 0.64278759981090561 0.64278759981090561 0 0.7660444514056185 forward_v I I I I #
coedge $-1 $282 $283 $284 $285 reversed $112 $-1 #
face $-1 $-1 $286 $58 $-1 $287 forward single #
loop $-1 $288 $289 $114 #
cone-surface $-1 -51.833007922374449 9.6733913595611334 4.6759616226163354 0.7660444514056185 0 -0.64278759981090561 0.1606968999527264 0 0.19151111285140462 1 I I -0.70710678118654746 0.70710678118654746 0.25 forward I I I I #
loop $-1 $-1 $290 $73 #
coedge $-1 $182 $182 $291 $292 reversed $115 $-1 #
face $-1 $-1 $293 $59 $-1 $294 forward single #
loop $-1 $295 $296 $117 #
cone-surface $-1 -51.833007922374449 12.567840657018653 4.6759616226163354 0.7660444514056185 0 -0.64278759981090561 0.1606968999527264 0 0.19151111285140462 1 I I -0.70710678118654746 0.70710678118654746 0.25 forward I I I I #
loop $-1 $-1 $297 $74 #
coedge $-1 $187 $187 $298 $299 reversed $118 $-1 #
face $-1 $300 $301 $45 $-1 $302 reversed single #
loop $-1 $-1 $303 $120 #
plane-surface $-1 0 -26.048418100066659 0 0 1 0 0 0 1 forward_v I I I I #
coedge $-1 $304 $305 $306 $307 forward $121 $-1 #
coedge $-1 $308 $123 $309 $310 forward $76 $-1 #
coedge $-1 $123 $308 $311 $312 forward $76 $-1 #
coedge $-1 $313 $314 $123 $195 reversed $315 $-1 #
edge $-1 $316 -26.048418100066659 $317 26.048418100066659 $194 $318 forward 7 unknown #
face $-1 $319 $320 $46 $-1 $321 forward single #
loop $-1 $-1 $322 $124 #
plane-surface $-1 -41.195826759398564 -22.730093782611036 0 -1 0 0 0 0 1 forward_v I I I I #
coedge $-1 $323 $324 $325 $326 forward $125 $-1 #
coedge $-1 $327 $127 $328 $329 reversed $79 $-1 #
coedge $-1 $127 $327 $330 $331 reversed $79 $-1 #
coedge $-1 $324 $323 $127 $203 reversed $125 $-1 #
edge $-1 $332 -7.6389190101980828 $333 7.6389190101980828 $202 $334 forward 7 unknown #
face $-1 $335 $336 $47 $-1 $337 reversed single #
loop $-1 $-1 $338 $128 #
plane-surface $-1 -47.646583787110046 22.21210807261107 0 -1 0 0 0 0 1 forward_v I I I I #
coedge $-1 $339 $340 $341 $342 reversed $129 $-1 #
coedge $-1 $343 $131 $344 $345 reversed $82 $-1 #
coedge $-1 $131 $343 $346 $347 reversed $82 $-1 #
coedge $-1 $340 $339 $131 $211 reversed $129 $-1 #
edge $-1 $348 -7.6389190101980828 $349 7.6389190101980828 $210 $350 forward 7 unknown #
face $-1 $351 $352 $48 $-1 $353 forward single #
loop $-1 $-1 $354 $132 #
plane-surface $-1 35.906688832992167 -8.8274148393173117 155.61200301541231 0 1 0 0.61566148304635926 0 0.78801074757464917 forward_v I I I I #
coedge $-1 $355 $356 $357 $358 reversed $133 $-1 #
coedge $-1 $217 $135 $359 $360 reversed $85 $-1 #
coedge $-1 $135 $216 $355 $361 reversed $85 $-1 #
coedge $-1 $357 $362 $135 $219 forward $352 $-1 #
edge $-1 $363 -36.840808237088311 $364 -29.349339511057043 $218 $365 forward 7 unknown #
loop $-1 $-1 $225 $136 #
plane-surface $-1 -31.562609736956581 -4.6727002746586415 69.255240624871334 0.61566148304635926 0 0.78801074757464917 0.78801074757464917 0 -0.61566148304635926 forward_v I I I I #
loop $-1 $-1 $366 $87 #
coedge $-1 $223 $223 $224 $367 reversed $137 $-1 #
coedge $-1 $224 $224 $223 $367 forward $139 $-1 #
coedge $-1 $225 $225 $140 $226 forward $220 $-1 #
edge $-1 $368 0 $368 6.2831853071796004 $225 $369 forward 7 unknown #
loop $-1 $-1 $232 $141 #
plane-surface $-1 -31.562609736956581 -4.6727002746586415 69.255240624871334 0.61566148304635926 0 0.78801074757464917 0.78801074757464917 0 -0.61566148304635926 forward_v I I I I #
loop $-1 $-1 $370 $90 #
coedge $-1 $230 $230 $231 $371 reversed $142 $-1 #
coedge $-1 $231 $231 $230 $371 forward $144 $-1 #
coedge $-1 $232 $232 $145 $233 forward $227 $-1 #
edge $-1 $372 0 $372 6.2831853071796004 $232 $373 forward 7 unknown #
face $-1 $374 $375 $51 $-1 $376 forward single #
loop $-1 $-1 $377 $146 #
plane-surface $-1 0 0 7.6389190101980828 0 0 1 1 0 0 forward_v I I I I #
coedge $-1 $378 $379 $380 $381 reversed $147 $-1 #
coedge $-1 $239 $149 $382 $383 reversed $94 $-1 #
coedge $-1 $149 $238 $377 $384 reversed $94 $-1 #
coedge $-1 $385 $386 $149 $241 forward $387 $-1 #
edge $-1 $388 -76.02005945278357 $389 -70.167082497508076 $240 $390 forward 7 unknown #
loop $-1 $-1 $247 $150 #
plane-surface $-1 -31.562609736956581 -4.6727002746586415 69.255240624871334 0.61566148304635926 0 0.78801074757464917 0.78801074757464917 0 -0.61566148304635926 forward_v I I I I #
loop $-1 $-1 $391 $96 #
coedge $-1 $245 $245 $246 $392 reversed $151 $-1 #
coedge $-1 $246 $246 $245 $392 forward $153 $-1 #
coedge $-1 $247 $247 $154 $248 forward $242 $-1 #
edge $-1 $393 0 $393 6.2831853071796004 $247 $394 forward 7 unknown #
loop $-1 $-1 $254 $155 #
plane-surface $-1 -31.562609736956581 -4.6727002746586415 69.255240624871334 0.61566148304635926 0 0.78801074757464917 0.78801074757464917 0 -0.61566148304635926 forward_v I I I I #
loop $-1 $-1 $395 $99 #
coedge $-1 $252 $252 $253 $396 reversed $156 $-1 #
coedge $-1 $253 $253 $252 $396 forward $158 $-1 #
coedge $-1 $254 $254 $159 $255 forward $249 $-1 #
edge $-1 $397 0 $397 6.2831853071796004 $254 $398 forward 7 unknown #
face $-1 $399 $400 $54 $-1 $401 reversed single #
loop $-1 $-1 $402 $160 #
plane-surface $-1 -138.74366587308594 -8.7797299145893959 74.848460054365688 0 -1 0 0.7660444514056185 0 -0.64278759981090561 forward_v I I I I #
coedge $-1 $403 $404 $405 $406 reversed $161 $-1 #
coedge $-1 $261 $163 $407 $408 reversed $103 $-1 #
coedge $-1 $163 $260 $403 $409 reversed $103 $-1 #
coedge $-1 $405 $410 $163 $263 forward $411 $-1 #
edge $-1 $412 14.577680282958575 $413 17.2900384642383 $262 $414 forward 7 unknown #
loop $-1 $-1 $269 $164 #
plane-surface $-1 -54.794152653584391 -12.156587428289832 4.4064563186259278 -0.7660444514056185 0 0.64278759981090561 0.64278759981090561 0 0.7660444514056185 forward_v I I I I #
loop $-1 $-1 $415 $105 #
coedge $-1 $267 $267 $268 $416 reversed $165 $-1 #
coedge $-1 $268 $268 $267 $416 forward $167 $-1 #
coedge $-1 $269 $269 $168 $270 forward $264 $-1 #
edge $-1 $417 0 $417 6.2831853071796004 $269 $418 forward 7 unknown #
loop $-1 $-1 $276 $169 #
plane-surface $-1 -54.794152653584391 -12.156587428289832 4.4064563186259278 -0.7660444514056185 0 0.64278759981090561 0.64278759981090561 0 0.7660444514056185 forward_v I I I I #
loop $-1 $-1 $419 $108 #
coedge $-1 $274 $274 $275 $420 reversed $170 $-1 #
coedge $-1 $275 $275 $274 $420 forward $172 $-1 #
coedge $-1 $276 $276 $173 $277 forward $271 $-1 #
edge $-1 $421 0 $421 6.2831853071796004 $276 $422 forward 7 unknown #
face $-1 $423 $424 $57 $-1 $425 forward single #
loop $-1 $-1 $426 $174 #
plane-surface $-1 -138.74366587308594 14.497473521990333 74.848460054365688 0 -1 0 0.7660444514056185 0 -0.64278759981090561 forward_v I I I I #
coedge $-1 $427 $428 $429 $430 reversed $175 $-1 #
coedge $-1 $283 $177 $431 $432 reversed $112 $-1 #
coedge $-1 $177 $282 $427 $433 reversed $112 $-1 #
coedge $-1 $429 $434 $177 $285 forward $424 $-1 #
edge $-1 $435 14.577680282958575 $436 17.2900384642383 $284 $437 forward 7 unknown #
loop $-1 $-1 $291 $178 #
plane-surface $-1 -54.794152653584391 11.120616008289897 4.4064563186259278 -0.7660444514056185 0 0.64278759981090561 0.64278759981090561 0 0.7660444514056185 forward_v I I I I #
loop $-1 $-1 $438 $114 #
coedge $-1 $289 $289 $290 $439 reversed $179 $-1 #
coedge $-1 $290 $290 $289 $439 forward $181 $-1 #
coedge $-1 $291 $291 $182 $292 forward $286 $-1 #
edge $-1 $440 0 $440 6.2831853071796004 $291 $441 forward 7 unknown #
loop $-1 $-1 $298 $183 #
plane-surface $-1 -54.794152653584391 11.120616008289897 4.4064563186259278 -0.7660444514056185 0 0.64278759981090561 0.64278759981090561 0 0.7660444514056185 forward_v I I I I #
loop $-1 $-1 $442 $117 #
coedge $-1 $296 $296 $297 $443 reversed $184 $-1 #
coedge $-1 $297 $297 $296 $443 forward $186 $-1 #
coedge $-1 $298 $298 $187 $299 forward $293 $-1 #
edge $-1 $444 0 $444 6.2831853071796004 $298 $445 forward 7 unknown #
face $-1 $446 $447 $45 $-1 $448 reversed single #
loop $-1 $-1 $449 $188 #
plane-surface $-1 -54.794152653584398 0 0 1 0 0 0 0 -1 forward_v I I I I #
coedge $-1 $450 $311 $451 $452 forward $189 $-1 #
coedge $-1 $453 $191 $450 $454 forward $121 $-1 #
coedge $-1 $191 $453 $455 $456 forward $121 $-1 #
coedge $-1 $314 $313 $191 $307 reversed $315 $-1 #
edge $-1 $457 -26.048418100066659 $458 26.048418100066659 $306 $459 forward 7 unknown #
coedge $-1 $193 $192 $460 $461 forward $76 $-1 #
coedge $-1 $462 $463 $192 $310 reversed $447 $-1 #
edge $-1 $317 -54.794152653584398 $464 54.794152653584398 $309 $465 forward 7 unknown #
coedge $-1 $303 $466 $193 $312 reversed $189 $-1 #
edge $-1 $467 -54.794152653584398 $316 54.794152653584398 $311 $468 forward 7 unknown #
coedge $-1 $306 $194 $466 $469 forward $315 $-1 #
coedge $-1 $194 $306 $462 $470 reversed $315 $-1 #
loop $-1 $-1 $313 $446 #
vertex $-1 $195 $471 #
vertex $-1 $195 $472 #
straight-curve $-1 54.794152653584398 0 7.6389190101980828 0 1 0 I I #
face $-1 $473 $474 $46 $-1 $475 reversed single #
loop $-1 $-1 $476 $196 #
plane-surface $-1 0 0 7.6389190101980828 0 0 1 1 0 0 forward_v I I I I #
coedge $-1 $477 $478 $479 $480 reversed $197 $-1 #
coedge $-1 $202 $199 $481 $482 reversed $125 $-1 #
coedge $-1 $199 $202 $483 $484 reversed $125 $-1 #
coedge $-1 $478 $477 $199 $326 reversed $197 $-1 #
edge $-1 $485 -7.6389190101980828 $486 7.6389190101980828 $325 $487 forward 7 unknown #
coedge $-1 $201 $200 $488 $489 reversed $79 $-1 #
coedge $-1 $481 $490 $200 $329 forward $474 $-1 #
edge $-1 $491 -14.683371208761141 $333 -8.0467225738498946 $328 $492 forward 7 unknown #
coedge $-1 $493 $483 $201 $331 forward $320 $-1 #
edge $-1 $332 8.0467225738498946 $494 14.683371208761141 $330 $495 forward 7 unknown #
vertex $-1 $331 $496 #
vertex $-1 $329 $497 #
straight-curve $-1 -45.025240848125513 -19.411769465155412 0 0 0 -1 I I #
face $-1 $498 $499 $47 $-1 $500 forward single #
loop $-1 $-1 $501 $204 #
plane-surface $-1 0 0 -7.6389190101980828 0 0 1 1 0 0 forward_v I I I I #
coedge $-1 $502 $503 $343 $504 forward $205 $-1 #
coedge $-1 $210 $207 $505 $506 reversed $129 $-1 #
coedge $-1 $207 $210 $507 $508 reversed $129 $-1 #
coedge $-1 $509 $510 $207 $342 forward $511 $-1 #
edge $-1 $512 -7.6389190101980828 $513 7.6389190101980828 $341 $514 forward 7 unknown #
coedge $-1 $209 $208 $338 $504 reversed $82 $-1 #
coedge $-1 $505 $501 $208 $345 forward $336 $-1 #
edge $-1 $515 23.073291893555023 $349 26.073291893555023 $344 $516 forward 7 unknown #
coedge $-1 $517 $507 $209 $347 forward $499 $-1 #
edge $-1 $348 -26.073291893555023 $518 -23.073291893555023 $346 $519 forward 7 unknown #
vertex $-1 $347 $520 #
vertex $-1 $345 $521 #
straight-curve $-1 -50.646583787110046 18.375798045155477 0 0 0 -1 I I #
face $-1 $-1 $522 $48 $-1 $523 reversed single #
loop $-1 $-1 $218 $212 #
plane-surface $-1 0 0 7.6389190101980828 0 0 1 1 0 0 forward_v I I I I #
coedge $-1 $524 $525 $526 $527 reversed $213 $-1 #
coedge $-1 $528 $215 $217 $361 forward $133 $-1 #
coedge $-1 $215 $528 $524 $529 forward $133 $-1 #
coedge $-1 $526 $218 $215 $358 forward $352 $-1 #
edge $-1 $364 -1.8183644273293496 $530 6.491064701987991 $357 $531 forward 7 unknown #
coedge $-1 $532 $533 $216 $360 forward $522 $-1 #
edge $-1 $534 -76.02005945278357 $363 -70.167082497508076 $359 $535 forward 7 unknown #
edge $-1 $364 100.08149496341571 $534 109.5883053071688 $217 $536 forward 7 unknown #
coedge $-1 $218 $526 $532 $537 forward $352 $-1 #
vertex $-1 $219 $538 #
vertex $-1 $219 $539 #
straight-curve $-1 17.953344416496083 -0.51798570999997118 7.6389190101980802 -1 0 0 I I #
coedge $-1 $366 $366 $-1 $540 reversed $222 $-1 #
edge $-1 $541 0 $541 6.2831853071796004 $223 $542 forward 7 unknown #
vertex $-1 $226 $543 #
ellipse-curve $-1 51.048418290568748 -6.453292230940928 4.7124305325603348 0.61566148304635926 0 0.78801074757464917 0.78801074757464917 0 -0.61566148304635926 1 I I #
coedge $-1 $370 $370 $-1 $544 reversed $229 $-1 #
edge $-1 $545 0 $545 6.2831853071796004 $230 $546 forward 7 unknown #
vertex $-1 $233 $547 #
ellipse-curve $-1 51.048418290568748 -2.892108318376355 4.7124305325603348 0.61566148304635926 0 0.78801074757464917 0.78801074757464917 0 -0.61566148304635926 1 I I #
face $-1 $-1 $387 $51 $-1 $548 reversed single #
loop $-1 $-1 $549 $234 #
plane-surface $-1 35.906688832992167 -0.51798570999997118 155.61200301541231 0 -1 0 -0.61566148304635926 0 -0.78801074757464917 forward_v I I I I #
coedge $-1 $550 $551 $239 $384 forward $235 $-1 #
coedge $-1 $382 $237 $550 $552 reversed $147 $-1 #
coedge $-1 $237 $382 $386 $553 reversed $147 $-1 #
coedge $-1 $554 $549 $237 $381 forward $375 $-1 #
edge $-1 $555 100.08149496341571 $556 109.5883053071688 $380 $557 forward 7 unknown #
coedge $-1 $379 $378 $238 $383 forward $147 $-1 #
edge $-1 $558 100.08149496341571 $388 109.5883053071688 $238 $559 forward 7 unknown #
edge $-1 $389 -36.840808237088311 $558 -29.349339511057043 $377 $560 forward 7 unknown #
coedge $-1 $561 $240 $551 $562 reversed $387 $-1 #
coedge $-1 $240 $561 $379 $553 forward $387 $-1 #
loop $-1 $-1 $240 $374 #
vertex $-1 $241 $563 #
vertex $-1 $241 $564 #
straight-curve $-1 54.794152653584398 7.7914434193173694 77.806001507706156 0 0 1 I I #
coedge $-1 $391 $391 $-1 $565 reversed $244 $-1 #
edge $-1 $566 0 $566 6.2831853071796004 $245 $567 forward 7 unknown #
vertex $-1 $248 $568 #
ellipse-curve $-1 51.048418290568748 1.8561368983764126 4.7124305325603348 0.61566148304635926 0 0.78801074757464917 0.78801074757464917 0 -0.61566148304635926 1 I I #
coedge $-1 $395 $395 $-1 $569 reversed $251 $-1 #
edge $-1 $570 0 $570 6.2831853071796004 $252 $571 forward 7 unknown #
vertex $-1 $255 $572 #
ellipse-curve $-1 51.048418290568748 5.4173208109409856 4.7124305325603348 0.61566148304635926 0 0.78801074757464917 0.78801074757464917 0 -0.61566148304635926 1 I I #
face $-1 $-1 $411 $54 $-1 $573 forward single #
loop $-1 $-1 $574 $256 #
plane-surface $-1 -54.794152653584398 0 0 1 0 0 0 0 -1 forward_v I I I I #
coedge $-1 $575 $576 $577 $578 reversed $257 $-1 #
coedge $-1 $579 $259 $261 $409 forward $161 $-1 #
coedge $-1 $259 $579 $575 $580 forward $161 $-1 #
coedge $-1 $577 $262 $259 $406 forward $411 $-1 #
edge $-1 $413 -9.4551512278453522 $581 -2.7014362004444799 $405 $582 forward 7 unknown #
coedge $-1 $583 $584 $260 $408 forward $400 $-1 #
edge $-1 $585 -33.017773708556923 $412 -29.78531101698476 $407 $586 forward 7 unknown #
edge $-1 $413 -4.2196803144267854 $585 1.1371122099518014e-014 $261 $587 forward 7 unknown #
coedge $-1 $262 $577 $583 $588 forward $411 $-1 #
loop $-1 $-1 $577 $399 #
vertex $-1 $408 $589 #
vertex $-1 $263 $590 #
straight-curve $-1 -69.371832936542972 -15.533444941990268 7.6389190101980802 1 0 0 I I #
coedge $-1 $415 $415 $-1 $591 reversed $266 $-1 #
edge $-1 $592 0 $592 6.2831853071796004 $267 $593 forward 7 unknown #
vertex $-1 $270 $594 #
ellipse-curve $-1 -53.437973562944535 -13.60381207701859 6.0226876644119987 -0.7660444514056185 0 0.64278759981090561 0.3213937999054528 0 0.38302222570280925 1 I I #
coedge $-1 $419 $419 $-1 $595 reversed $273 $-1 #
edge $-1 $596 0 $596 6.2831853071796004 $274 $597 forward 7 unknown #
vertex $-1 $277 $598 #
ellipse-curve $-1 -53.437973562944535 -10.709362779561074 6.0226876644119987 -0.7660444514056185 0 0.64278759981090561 0.3213937999054528 0 0.38302222570280925 1 I I #
face $-1 $-1 $599 $57 $-1 $600 reversed single #
loop $-1 $-1 $284 $278 #
plane-surface $-1 0 0 7.6389190101980828 0 0 1 1 0 0 forward_v I I I I #
coedge $-1 $601 $602 $603 $604 reversed $279 $-1 #
coedge $-1 $605 $281 $283 $433 forward $175 $-1 #
coedge $-1 $281 $605 $601 $606 forward $175 $-1 #
coedge $-1 $603 $284 $281 $430 forward $424 $-1 #
edge $-1 $436 2.1834504904445122 $607 8.9371655178453846 $429 $608 forward 7 unknown #
coedge $-1 $609 $610 $282 $432 forward $599 $-1 #
edge $-1 $611 -33.017773708556923 $435 -29.78531101698476 $431 $612 forward 7 unknown #
edge $-1 $436 -4.2196803144267854 $611 1.1371122099518014e-014 $283 $613 forward 7 unknown #
coedge $-1 $284 $603 $609 $614 forward $424 $-1 #
vertex $-1 $432 $615 #
vertex $-1 $285 $616 #
straight-curve $-1 -69.371832936542972 7.7437584945894606 7.6389190101980802 1 0 0 I I #
coedge $-1 $438 $438 $-1 $617 reversed $288 $-1 #
edge $-1 $618 0 $618 6.2831853071796004 $289 $619 forward 7 unknown #
vertex $-1 $292 $620 #
ellipse-curve $-1 -53.437973562944535 9.6733913595611334 6.0226876644119987 -0.7660444514056185 0 0.64278759981090561 0.3213937999054528 0 0.38302222570280925 1 I I #
coedge $-1 $442 $442 $-1 $621 reversed $295 $-1 #
edge $-1 $622 0 $622 6.2831853071796004 $296 $623 forward 7 unknown #
vertex $-1 $299 $624 #
ellipse-curve $-1 -53.437973562944535 12.567840657018653 6.0226876644119987 -0.7660444514056185 0 0.64278759981090561 0.3213937999054528 0 0.38302222570280925 1 I I #
face $-1 $-1 $315 $45 $-1 $625 reversed single #
loop $-1 $-1 $462 $300 #
plane-surface $-1 0 26.048418100066659 0 0 -1 0 0 0 -1 forward_v I I I I #
coedge $-1 $626 $460 $463 $627 forward $301 $-1 #
coedge $-1 $466 $303 $304 $454 reversed $189 $-1 #
coedge $-1 $460 $626 $303 $452 reversed $301 $-1 #
edge $-1 $467 -7.6389190101980828 $628 7.6389190101980828 $451 $629 forward 7 unknown #
coedge $-1 $305 $304 $626 $630 forward $121 $-1 #
edge $-1 $458 -54.794152653584398 $628 54.794152653584398 $450 $631 forward 7 unknown #
coedge $-1 $463 $462 $305 $456 reversed $447 $-1 #
edge $-1 $632 -54.794152653584398 $457 54.794152653584398 $455 $633 forward 7 unknown #
vertex $-1 $307 $634 #
vertex $-1 $469 $635 #
straight-curve $-1 54.794152653584398 0 -7.6389190101980828 0 -1 0 I I #
coedge $-1 $449 $451 $308 $461 reversed $301 $-1 #
edge $-1 $464 -26.048418100066659 $467 26.048418100066659 $460 $636 forward 7 unknown #
coedge $-1 $455 $309 $314 $470 forward $447 $-1 #
coedge $-1 $309 $455 $449 $627 reversed $447 $-1 #
vertex $-1 $310 $637 #
straight-curve $-1 0 26.048418100066659 7.6389190101980828 -1 0 0 I I #
coedge $-1 $311 $450 $313 $469 reversed $189 $-1 #
vertex $-1 $461 $638 #
straight-curve $-1 0 -26.048418100066659 7.6389190101980828 1 0 0 I I #
edge $-1 $316 -7.6389190101980828 $458 7.6389190101980828 $313 $639 forward 7 unknown #
edge $-1 $317 -7.6389190101980828 $457 7.6389190101980828 $314 $640 forward 7 unknown #
point $-1 54.794152653584398 -26.048418100066659 7.6389190101980828 #
point $-1 54.794152653584398 26.048418100066659 7.6389190101980828 #
face $-1 $-1 $641 $46 $-1 $642 reversed single #
loop $-1 $-1 $643 $319 #
plane-surface $-1 0 0 -7.6389190101980828 0 0 1 1 0 0 forward_v I I I I #
coedge $-1 $483 $493 $478 $644 forward $320 $-1 #
coedge $-1 $325 $322 $643 $645 reversed $197 $-1 #
coedge $-1 $322 $325 $476 $644 reversed $197 $-1 #
coedge $-1 $646 $647 $322 $480 forward $641 $-1 #
edge $-1 $648 -7.6389190101980828 $649 7.6389190101980828 $479 $650 forward 7 unknown #
coedge $-1 $643 $328 $323 $482 forward $474 $-1 #
edge $-1 $333 -23.469973946244494 $486 -19.640559857517545 $481 $651 forward 7 unknown #
coedge $-1 $330 $476 $324 $484 forward $320 $-1 #
edge $-1 $485 19.640559857517545 $332 23.469973946244494 $483 $652 forward 7 unknown #
vertex $-1 $484 $653 #
vertex $-1 $482 $654 #
straight-curve $-1 -41.195826759398564 -19.411769465155412 0 0 0 -1 I I #
coedge $-1 $647 $646 $327 $489 forward $641 $-1 #
edge $-1 $494 -7.6389190101980828 $491 7.6389190101980828 $488 $655 forward 7 unknown #
coedge $-1 $328 $643 $647 $656 forward $474 $-1 #
vertex $-1 $329 $657 #
straight-curve $-1 -45.025240848125513 -11.365046891305518 -7.6389190101980828 0 1 0 I I #
coedge $-1 $476 $330 $646 $658 forward $320 $-1 #
vertex $-1 $658 $659 #
straight-curve $-1 -45.025240848125513 -11.365046891305518 7.6389190101980828 0 -1 0 I I #
point $-1 -45.025240848125513 -19.411769465155412 7.6389190101980828 #
point $-1 -45.025240848125513 -19.411769465155412 -7.6389190101980828 #
face $-1 $-1 $511 $47 $-1 $660 reversed single #
loop $-1 $-1 $517 $335 #
plane-surface $-1 0 0 7.6389190101980828 0 0 1 1 0 0 forward_v I I I I #
coedge $-1 $344 $661 $502 $662 forward $336 $-1 #
coedge $-1 $663 $338 $501 $662 reversed $205 $-1 #
coedge $-1 $338 $663 $517 $664 reversed $205 $-1 #
edge $-1 $518 -7.6389190101980828 $515 7.6389190101980828 $338 $665 forward 7 unknown #
coedge $-1 $661 $344 $339 $506 forward $336 $-1 #
edge $-1 $349 7.2697440088499423 $512 14.942364063761127 $505 $666 forward 7 unknown #
coedge $-1 $346 $667 $340 $508 forward $499 $-1 #
edge $-1 $513 -14.942364063761127 $348 -7.2697440088499423 $507 $668 forward 7 unknown #
coedge $-1 $669 $341 $667 $670 reversed $511 $-1 #
coedge $-1 $341 $669 $661 $671 reversed $511 $-1 #
loop $-1 $-1 $669 $498 #
vertex $-1 $671 $672 #
vertex $-1 $342 $673 #
straight-curve $-1 -50.646583787110046 26.048418100066659 0 0 0 1 I I #
vertex $-1 $345 $674 #
straight-curve $-1 -24.573291893555023 18.375798045155477 -7.6389190101980828 -1 0 0 I I #
coedge $-1 $667 $346 $503 $664 forward $499 $-1 #
vertex $-1 $347 $675 #
straight-curve $-1 -24.573291893555023 18.375798045155477 7.6389190101980828 1 0 0 I I #
point $-1 -50.646583787110046 18.375798045155477 7.6389190101980828 #
point $-1 -50.646583787110046 18.375798045155477 -7.6389190101980828 #
loop $-1 $-1 $359 $351 #
plane-surface $-1 54.794152653584398 0 0 -1 0 0 0 0 1 forward_v I I I I #
coedge $-1 $525 $354 $356 $529 reversed $213 $-1 #
coedge $-1 $354 $524 $676 $677 reversed $213 $-1 #
coedge $-1 $362 $357 $354 $527 forward $352 $-1 #
edge $-1 $530 29.349339511057043 $678 36.840808237088311 $526 $679 forward 7 unknown #
coedge $-1 $356 $355 $533 $680 reversed $133 $-1 #
edge $-1 $681 -109.5883053071688 $530 -100.08149496341571 $524 $682 forward 7 unknown #
vertex $-1 $358 $683 #
straight-curve $-1 47.302683927553119 -2.3363501373293207 7.6389190101980802 0 -1 0 I I #
coedge $-1 $676 $359 $362 $537 reversed $522 $-1 #
coedge $-1 $359 $676 $528 $680 forward $522 $-1 #
vertex $-1 $360 $684 #
straight-curve $-1 54.794152653584398 -0.51798570999997118 77.806001507706156 0 0 1 I I #
straight-curve $-1 -31.562609736956581 -0.51798570999997118 69.255240624871334 0.78801074757464917 0 -0.61566148304635926 I I #
edge $-1 $678 -8.8274148393173117 $363 -0.51798570999997118 $532 $685 forward 7 unknown #
point $-1 54.794152653584398 -0.51798570999997118 7.6389190101980828 #
point $-1 47.302683927553126 -0.51798570999997118 7.6389190101980731 #
edge $-1 $686 1 $686 0 $366 $-1 forward 7 unknown #
vertex $-1 $367 $687 #
ellipse-curve $-1 49.935710728463938 -6.453292230940928 3.2882298281284923 0.61566148304635926 0 0.78801074757464917 0.78801074757464917 0 -0.61566148304635926 1 I I #
point $-1 51.836429038143407 -6.453292230940928 4.0967690495139788 #
edge $-1 $688 1 $688 0 $370 $-1 forward 7 unknown #
vertex $-1 $371 $689 #
ellipse-curve $-1 49.935710728463938 -2.892108318376355 3.2882298281284923 0.61566148304635926 0 0.78801074757464917 0.78801074757464917 0 -0.61566148304635926 1 I I #
point $-1 51.836429038143407 -2.892108318376355 4.0967690495139788 #
plane-surface $-1 54.794152653584398 0 0 -1 0 0 0 0 1 forward_v I I I I #
coedge $-1 $380 $554 $690 $691 reversed $375 $-1 #
coedge $-1 $690 $377 $378 $552 forward $235 $-1 #
coedge $-1 $377 $690 $385 $562 forward $235 $-1 #
edge $-1 $558 -10.12779355664669 $555 -1.8183644273293496 $550 $692 forward 7 unknown #
edge $-1 $556 1.8183644273293496 $388 10.12779355664669 $386 $693 forward 7 unknown #
coedge $-1 $549 $380 $561 $694 reversed $375 $-1 #
vertex $-1 $552 $695 #
vertex $-1 $553 $696 #
straight-curve $-1 -31.562609736956581 -0.51798570999997118 69.255240624871334 0.78801074757464917 0 -0.61566148304635926 I I #
vertex $-1 $384 $697 #
straight-curve $-1 -31.562609736956581 7.7914434193173694 69.255240624871334 0.78801074757464917 0 -0.61566148304635926 I I #
straight-curve $-1 17.953344416496083 7.7914434193173694 7.6389190101980802 -1 0 0 I I #
coedge $-1 $386 $385 $554 $694 forward $387 $-1 #
edge $-1 $698 -0.51798570999997118 $389 7.7914434193173694 $385 $699 forward 7 unknown #
point $-1 54.794152653584398 7.7914434193173694 1.785942054922586 #
point $-1 54.794152653584398 7.7914434193173694 7.6389190101980828 #
edge $-1 $700 1 $700 0 $391 $-1 forward 7 unknown #
vertex $-1 $392 $701 #
ellipse-curve $-1 49.935710728463938 1.8561368983764126 3.2882298281284923 0.61566148304635926 0 0.78801074757464917 0.78801074757464917 0 -0.61566148304635926 1 I I #
point $-1 51.836429038143407 1.8561368983764126 4.0967690495139788 #
edge $-1 $702 1 $702 0 $395 $-1 forward 7 unknown #
vertex $-1 $396 $703 #
ellipse-curve $-1 49.935710728463938 5.4173208109409856 3.2882298281284923 0.61566148304635926 0 0.78801074757464917 0.78801074757464917 0 -0.61566148304635926 1 I I #
point $-1 51.836429038143407 5.4173208109409856 4.0967690495139788 #
plane-surface $-1 0 0 7.6389190101980828 0 0 1 1 0 0 forward_v I I I I #
coedge $-1 $584 $583 $576 $704 forward $400 $-1 #
coedge $-1 $576 $402 $404 $580 reversed $257 $-1 #
coedge $-1 $402 $575 $574 $704 reversed $257 $-1 #
coedge $-1 $410 $405 $402 $578 forward $411 $-1 #
edge $-1 $581 -17.2900384642383 $705 -14.577680282958575 $577 $706 forward 7 unknown #
coedge $-1 $404 $403 $584 $707 reversed $161 $-1 #
edge $-1 $708 -1.1371122099518014e-014 $581 4.2196803144267854 $575 $709 forward 7 unknown #
vertex $-1 $406 $710 #
straight-curve $-1 -52.081794472304665 -6.078293714144916 7.6389190101980855 0 1 0 I I #
coedge $-1 $574 $407 $410 $588 reversed $400 $-1 #
coedge $-1 $407 $574 $579 $707 forward $400 $-1 #
vertex $-1 $408 $711 #
straight-curve $-1 -54.794152653584398 -15.533444941990268 37.424230027182844 0 0 1 I I #
straight-curve $-1 -54.794152653584391 -15.533444941990268 4.4064563186259278 -0.64278759981090561 0 -0.7660444514056185 I I #
edge $-1 $705 8.7797299145893959 $412 15.533444941990268 $583 $712 forward 7 unknown #
point $-1 -54.794152653584398 -15.533444941990268 7.6389190101980828 #
point $-1 -52.081794472304672 -15.533444941990268 7.6389190101980828 #
edge $-1 $713 1 $713 0 $415 $-1 forward 7 unknown #
vertex $-1 $416 $714 #
ellipse-curve $-1 -52.02451903522585 -13.60381207701859 4.8366585225690617 -0.7660444514056185 0 0.64278759981090561 0.3213937999054528 0 0.38302222570280925 1 I I #
point $-1 -53.116579763039084 -13.60381207701859 6.4057098901148066 #
edge $-1 $715 1 $715 0 $419 $-1 forward 7 unknown #
vertex $-1 $420 $716 #
ellipse-curve $-1 -52.02451903522585 -10.709362779561074 4.8366585225690617 -0.7660444514056185 0 0.64278759981090561 0.3213937999054528 0 0.38302222570280925 1 I I #
point $-1 -53.116579763039084 -10.709362779561074 6.4057098901148066 #
loop $-1 $-1 $431 $423 #
plane-surface $-1 -54.794152653584398 0 0 1 0 0 0 0 -1 forward_v I I I I #
coedge $-1 $602 $426 $428 $606 reversed $279 $-1 #
coedge $-1 $426 $601 $717 $718 reversed $279 $-1 #
coedge $-1 $434 $429 $426 $604 forward $424 $-1 #
edge $-1 $607 -17.2900384642383 $719 -14.577680282958575 $603 $720 forward 7 unknown #
coedge $-1 $428 $427 $610 $721 reversed $175 $-1 #
edge $-1 $722 -1.1371122099518014e-014 $607 4.2196803144267854 $601 $723 forward 7 unknown #
vertex $-1 $430 $724 #
straight-curve $-1 -52.081794472304665 5.5603080041449484 7.6389190101980855 0 1 0 I I #
coedge $-1 $717 $431 $434 $614 reversed $599 $-1 #
coedge $-1 $431 $717 $605 $721 forward $599 $-1 #
vertex $-1 $432 $725 #
straight-curve $-1 -54.794152653584398 7.7437584945894606 37.424230027182844 0 0 1 I I #
straight-curve $-1 -54.794152653584391 7.7437584945894606 4.4064563186259278 -0.64278759981090561 0 -0.7660444514056185 I I #
edge $-1 $719 -14.497473521990333 $435 -7.7437584945894606 $609 $726 forward 7 unknown #
point $-1 -54.794152653584398 7.7437584945894606 7.6389190101980828 #
point $-1 -52.081794472304672 7.7437584945894606 7.6389190101980828 #
edge $-1 $727 1 $727 0 $438 $-1 forward 7 unknown #
vertex $-1 $439 $728 #
ellipse-curve $-1 -52.02451903522585 9.6733913595611334 4.8366585225690617 -0.7660444514056185 0 0.64278759981090561 0.3213937999054528 0 0.38302222570280925 1 I I #
point $-1 -53.116579763039084 9.6733913595611334 6.4057098901148066 #
edge $-1 $729 1 $729 0 $442 $-1 forward 7 unknown #
vertex $-1 $443 $730 #
ellipse-curve $-1 -52.02451903522585 12.567840657018653 4.8366585225690617 -0.7660444514056185 0 0.64278759981090561 0.3213937999054528 0 0.38302222570280925 1 I I #
point $-1 -53.116579763039084 12.567840657018653 6.4057098901148066 #
plane-surface $-1 54.794152653584398 0 0 -1 0 0 0 0 1 forward_v I I I I #
coedge $-1 $451 $449 $453 $630 reversed $301 $-1 #
edge $-1 $464 -7.6389190101980828 $632 7.6389190101980828 $463 $731 forward 7 unknown #
vertex $-1 $630 $732 #
straight-curve $-1 -54.794152653584398 -26.048418100066659 0 0 0 -1 I I #
edge $-1 $628 -26.048418100066659 $632 26.048418100066659 $626 $733 forward 7 unknown #
straight-curve $-1 0 -26.048418100066659 -7.6389190101980828 -1 0 0 I I #
vertex $-1 $456 $734 #
straight-curve $-1 0 26.048418100066659 -7.6389190101980828 1 0 0 I I #
point $-1 54.794152653584398 26.048418100066659 -7.6389190101980828 #
point $-1 54.794152653584398 -26.048418100066659 -7.6389190101980828 #
straight-curve $-1 -54.794152653584398 0 7.6389190101980828 0 -1 0 I I #
point $-1 -54.794152653584398 26.048418100066659 7.6389190101980828 #
point $-1 -54.794152653584398 -26.048418100066659 7.6389190101980828 #
straight-curve $-1 54.794152653584398 -26.048418100066659 0 0 0 -1 I I #
straight-curve $-1 54.794152653584398 26.048418100066659 0 0 0 -1 I I #
loop $-1 $-1 $479 $473 #
plane-surface $-1 0 -26.048418100066659 0 0 1 0 0 0 1 forward_v I I I I #
coedge $-1 $490 $481 $477 $645 forward $474 $-1 #
edge $-1 $649 -14.683371208761141 $485 -8.0467225738498946 $476 $735 forward 7 unknown #
edge $-1 $486 8.0467225738498946 $648 14.683371208761141 $643 $736 forward 7 unknown #
coedge $-1 $488 $479 $493 $658 reversed $641 $-1 #
coedge $-1 $479 $488 $490 $656 reversed $641 $-1 #
vertex $-1 $656 $737 #
vertex $-1 $480 $738 #
straight-curve $-1 -41.195826759398564 -26.048418100066659 0 0 0 1 I I #
straight-curve $-1 -21.555266901881019 -19.411769465155412 -7.6389190101980828 1 0 0 I I #
straight-curve $-1 -21.555266901881019 -19.411769465155412 7.6389190101980828 -1 0 0 I I #
point $-1 -41.195826759398564 -19.411769465155412 7.6389190101980828 #
point $-1 -41.195826759398564 -19.411769465155412 -7.6389190101980828 #
straight-curve $-1 -45.025240848125513 -26.048418100066659 0 0 0 -1 I I #
edge $-1 $648 41.195826759398564 $491 45.025240848125513 $647 $739 forward 7 unknown #
point $-1 -45.025240848125513 -26.048418100066659 -7.6389190101980828 #
edge $-1 $494 -45.025240848125513 $649 -41.195826759398564 $646 $740 forward 7 unknown #
point $-1 -45.025240848125513 -26.048418100066659 7.6389190101980828 #
plane-surface $-1 0 26.048418100066659 0 0 -1 0 0 0 -1 forward_v I I I I #
coedge $-1 $501 $505 $510 $671 forward $336 $-1 #
edge $-1 $741 -14.942364063761127 $515 -7.2697440088499423 $501 $742 forward 7 unknown #
coedge $-1 $503 $502 $669 $743 reversed $205 $-1 #
edge $-1 $518 7.2697440088499423 $744 14.942364063761127 $517 $745 forward 7 unknown #
straight-curve $-1 -47.646583787110046 18.375798045155477 0 0 0 -1 I I #
straight-curve $-1 -50.646583787110046 11.106054036305535 -7.6389190101980828 0 1 0 I I #
coedge $-1 $507 $517 $509 $670 forward $499 $-1 #
straight-curve $-1 -50.646583787110046 11.106054036305535 7.6389190101980828 0 -1 0 I I #
coedge $-1 $510 $509 $663 $743 forward $511 $-1 #
edge $-1 $744 47.646583787110046 $513 50.646583787110046 $509 $746 forward 7 unknown #
edge $-1 $512 -50.646583787110046 $741 -47.646583787110046 $510 $747 forward 7 unknown #
point $-1 -50.646583787110046 26.048418100066662 -7.6389190101980828 #
point $-1 -50.646583787110046 26.048418100066662 7.6389190101980828 #
point $-1 -47.646583787110046 18.375798045155477 -7.6389190101980828 #
point $-1 -47.646583787110046 18.375798045155477 7.6389190101980828 #
coedge $-1 $533 $532 $525 $677 forward $522 $-1 #
edge $-1 $678 70.167082497508076 $681 76.02005945278357 $676 $748 forward 7 unknown #
vertex $-1 $537 $749 #
straight-curve $-1 17.953344416496083 -8.8274148393173117 7.6389190101980802 1 0 0 I I #
edge $-1 $681 -6.491064701987991 $534 1.8183644273293496 $533 $750 forward 7 unknown #
vertex $-1 $680 $751 #
straight-curve $-1 -31.562609736956581 -8.8274148393173117 69.255240624871334 -0.78801074757464917 0 0.61566148304635926 I I #
point $-1 47.302683927553126 -8.8274148393173117 7.6389190101980731 #
point $-1 54.794152653584398 -0.51798570999997118 1.785942054922586 #
straight-curve $-1 54.794152653584398 0 7.6389190101980828 0 1 0 I I #
vertex $-1 $540 $752 #
point $-1 50.723721476038591 -6.453292230940928 2.6725683450821331 #
vertex $-1 $544 $753 #
point $-1 50.723721476038591 -2.892108318376355 2.6725683450821331 #
coedge $-1 $551 $550 $549 $691 forward $235 $-1 #
edge $-1 $555 29.349339511057043 $698 36.840808237088311 $690 $754 forward 7 unknown #
straight-curve $-1 47.302683927553119 -2.3363501373293207 7.6389190101980802 0 -1 0 I I #
straight-curve $-1 54.794152653584398 -2.3363501373293207 1.785942054922586 0 1 0 I I #
edge $-1 $698 70.167082497508076 $556 76.02005945278357 $561 $755 forward 7 unknown #
point $-1 47.302683927553126 -0.51798570999997118 7.6389190101980731 #
point $-1 54.794152653584398 -0.51798570999997118 1.785942054922586 #
point $-1 47.302683927553126 7.7914434193173694 7.6389190101980731 #
vertex $-1 $562 $756 #
straight-curve $-1 54.794152653584398 0 7.6389190101980828 0 1 0 I I #
vertex $-1 $565 $757 #
point $-1 50.723721476038591 1.8561368983764126 2.6725683450821331 #
vertex $-1 $569 $758 #
point $-1 50.723721476038591 5.4173208109409856 2.6725683450821331 #
edge $-1 $705 29.78531101698476 $708 33.017773708556923 $574 $759 forward 7 unknown #
vertex $-1 $588 $760 #
straight-curve $-1 -69.371832936542972 -8.7797299145893959 7.6389190101980802 -1 0 0 I I #
edge $-1 $708 2.7014362004444799 $585 9.4551512278453522 $584 $761 forward 7 unknown #
vertex $-1 $707 $762 #
straight-curve $-1 -54.794152653584391 -8.7797299145893959 4.4064563186259278 0.64278759981090561 0 0.7660444514056185 I I #
point $-1 -52.081794472304672 -8.7797299145893959 7.6389190101980828 #
point $-1 -54.794152653584398 -15.533444941990268 4.4064563186259189 #
straight-curve $-1 -54.794152653584398 0 7.6389190101980828 0 -1 0 I I #
vertex $-1 $591 $763 #
point $-1 -51.7031252353204 -13.60381207701859 5.2196807482718715 #
vertex $-1 $595 $764 #
point $-1 -51.7031252353204 -10.709362779561074 5.2196807482718715 #
coedge $-1 $610 $609 $602 $718 forward $599 $-1 #
edge $-1 $719 29.78531101698476 $722 33.017773708556923 $717 $765 forward 7 unknown #
vertex $-1 $614 $766 #
straight-curve $-1 -69.371832936542972 14.497473521990333 7.6389190101980802 -1 0 0 I I #
edge $-1 $722 -8.9371655178453846 $611 -2.1834504904445122 $610 $767 forward 7 unknown #
vertex $-1 $721 $768 #
straight-curve $-1 -54.794152653584391 14.497473521990333 4.4064563186259278 0.64278759981090561 0 0.7660444514056185 I I #
point $-1 -52.081794472304672 14.497473521990333 7.6389190101980828 #
point $-1 -54.794152653584398 7.7437584945894606 4.4064563186259189 #
straight-curve $-1 -54.794152653584398 0 7.6389190101980828 0 -1 0 I I #
vertex $-1 $617 $769 #
point $-1 -51.7031252353204 9.6733913595611334 5.2196807482718715 #
vertex $-1 $621 $770 #
point $-1 -51.7031252353204 12.567840657018653 5.2196807482718715 #
straight-curve $-1 -54.794152653584398 26.048418100066659 0 0 0 -1 I I #
point $-1 -54.794152653584398 -26.048418100066659 -7.6389190101980828 #
straight-curve $-1 -54.794152653584398 0 -7.6389190101980828 0 1 0 I I #
point $-1 -54.794152653584398 26.048418100066659 -7.6389190101980828 #
straight-curve $-1 -41.195826759398564 -11.365046891305518 7.6389190101980828 0 1 0 I I #
straight-curve $-1 -41.195826759398564 -11.365046891305518 -7.6389190101980828 0 -1 0 I I #
point $-1 -41.195826759398564 -26.048418100066659 -7.6389190101980828 #
point $-1 -41.195826759398564 -26.048418100066659 7.6389190101980828 #
straight-curve $-1 0 -26.048418100066659 -7.6389190101980828 -1 0 0 I I #
straight-curve $-1 0 -26.048418100066659 7.6389190101980828 1 0 0 I I #
vertex $-1 $743 $771 #
straight-curve $-1 -47.646583787110046 11.106054036305535 -7.6389190101980828 0 -1 0 I I #
edge $-1 $744 -7.6389190101980828 $741 7.6389190101980828 $669 $772 forward 7 unknown #
vertex $-1 $670 $773 #
straight-curve $-1 -47.646583787110046 11.106054036305535 7.6389190101980828 0 1 0 I I #
straight-curve $-1 0 26.048418100066659 7.6389190101980828 -1 0 0 I I #
straight-curve $-1 0 26.048418100066659 -7.6389190101980828 1 0 0 I I #
straight-curve $-1 54.794152653584398 -8.8274148393173117 77.806001507706156 0 0 -1 I I #
point $-1 54.794152653584398 -8.8274148393173117 7.6389190101980828 #
straight-curve $-1 54.794152653584398 -2.3363501373293207 1.785942054922586 0 1 0 I I #
point $-1 54.794152653584398 -8.8274148393173117 1.785942054922586 #
point $-1 49.320049245417586 -6.453292230940928 2.5002190805538431 #
point $-1 49.320049245417586 -2.892108318376355 2.5002190805538431 #
straight-curve $-1 17.953344416496083 -0.51798570999997118 7.6389190101980802 1 0 0 I I #
straight-curve $-1 54.794152653584398 -0.51798570999997118 77.806001507706156 0 0 -1 I I #
point $-1 54.794152653584398 -0.51798570999997118 7.6389190101980828 #
point $-1 49.320049245417586 1.8561368983764126 2.5002190805538431 #
point $-1 49.320049245417586 5.4173208109409856 2.5002190805538431 #
straight-curve $-1 -54.794152653584398 -8.7797299145893959 37.424230027182844 0 0 -1 I I #
point $-1 -54.794152653584398 -8.7797299145893959 7.6389190101980828 #
straight-curve $-1 -54.794152653584398 -6.078293714144916 4.4064563186259127 0 -1 0 I I #
point $-1 -54.794152653584398 -8.7797299145893959 4.4064563186259189 #
point $-1 -51.641496809523048 -13.60381207701859 4.5152647226636091 #
point $-1 -51.641496809523048 -10.709362779561074 4.5152647226636091 #
straight-curve $-1 -54.794152653584398 14.497473521990333 37.424230027182844 0 0 -1 I I #
point $-1 -54.794152653584398 14.497473521990333 7.6389190101980828 #
straight-curve $-1 -54.794152653584398 5.5603080041449484 4.4064563186259127 0 -1 0 I I #
point $-1 -54.794152653584398 14.497473521990333 4.4064563186259189 #
point $-1 -51.641496809523048 9.6733913595611334 4.5152647226636091 #
point $-1 -51.641496809523048 12.567840657018653 4.5152647226636091 #
point $-1 -47.646583787110046 26.048418100066662 -7.6389190101980828 #
straight-curve $-1 -47.646583787110046 26.048418100066659 0 0 0 -1 I I #
point $-1 -47.646583787110046 26.048418100066662 7.6389190101980828 #
End-of-ACIS-data 