500 0 4 0           
7 Unknown 11 ACIS 5.0 NT 24 Fri Mar 26 16:53:22 1999 
-1 9.9999999999999995e-007 1e-010 
body $-1 $4 $-1 $5 #
body $-1 $6 $-1 $7 #
body $-1 $8 $-1 $9 #
body $-1 $10 $-1 $11 #
lump $-1 $-1 $12 $0 #
transform $-1 1 0 0 0 1 0 0 0 1 67.803582873012488 32.710929839673497 14.162623692814842 1 rotate no_reflect no_shear #
lump $-1 $-1 $13 $1 #
transform $-1 1 0 0 0 1 0 0 0 1 67.803582873012488 32.710929839673497 14.162623692814842 1 rotate no_reflect no_shear #
lump $-1 $-1 $14 $2 #
transform $-1 1 0 0 0 1 0 0 0 1 67.803582873012488 32.710929839673497 14.162623692814842 1 rotate no_reflect no_shear #
lump $-1 $-1 $15 $3 #
transform $-1 1 0 0 0 1 0 0 0 1 67.803582873012488 32.710929839673497 14.162623692814842 1 rotate no_reflect no_shear #
shell $-1 $-1 $-1 $16 $-1 $4 #
shell $-1 $-1 $-1 $17 $-1 $6 #
shell $-1 $-1 $-1 $18 $-1 $8 #
shell $-1 $-1 $-1 $19 $-1 $10 #
face $-1 $20 $21 $12 $-1 $22 forward single #
face $-1 $23 $24 $13 $-1 $25 reversed single #
face $-1 $26 $27 $14 $-1 $28 forward single #
face $-1 $29 $30 $15 $-1 $31 reversed single #
face $-1 $32 $33 $12 $-1 $34 reversed single #
loop $-1 $-1 $35 $16 #
plane-surface $-1 0 0 14.162623692814842 0 0 1 1 0 0 forward_v I I I I #
face $-1 $36 $37 $13 $-1 $38 forward single #
loop $-1 $-1 $39 $17 #
plane-surface $-1 0 -23.858250537356497 12.067968840899784 0 0 1 1 0 0 forward_v I I I I #
face $-1 $40 $41 $14 $-1 $42 forward single #
loop $-1 $-1 $43 $18 #
plane-surface $-1 -174.66348886636715 14.194549395707821 89.731844417165277 0 1 0 -0.78801076186113728 0 0.61566146476048833 forward_v I I I I #
face $-1 $44 $45 $15 $-1 $46 reversed single #
loop $-1 $47 $48 $19 #
cone-surface $-1 -61.05541377542184 20.068253272357389 7.3478059020519364 0.78801076186113728 0 -0.61566146476048833 1.5391536619012207 0 1.9700269046528431 1 I I 0 1 2.5 forward I I I I #
face $-1 $49 $50 $12 $-1 $51 reversed single #
loop $-1 $-1 $52 $20 #
plane-surface $-1 0 0 -14.162623692814842 0 0 1 1 0 0 forward_v I I I I #
coedge $-1 $53 $54 $55 $56 forward $21 $-1 #
face $-1 $57 $58 $13 $-1 $59 forward single #
loop $-1 $-1 $60 $23 #
plane-surface $-1 0 -23.858250537356497 4.9265348912888172 0 0 1 1 0 0 forward_v I I I I #
coedge $-1 $61 $62 $63 $64 reversed $24 $-1 #
face $-1 $65 $66 $14 $-1 $67 forward single #
loop $-1 $-1 $68 $26 #
plane-surface $-1 -67.803582873012488 20.068253272357381 6.243738121949221 -0.78801076186113728 0 0.61566146476048833 0.61566146476048833 0 0.78801076186113728 forward_v I I I I #
coedge $-1 $69 $70 $71 $72 reversed $27 $-1 #
face $-1 $73 $74 $15 $-1 $75 forward single #
loop $-1 $76 $77 $29 #
cone-surface $-1 -56.415686877249385 20.068253272357389 3.7228540657712248 0.78801076186113728 0 -0.61566146476048833 0.76957683095061036 0 0.98501345232642157 1 I I -0.70710678118654746 0.70710678118654746 1.25 forward I I I I #
loop $-1 $-1 $78 $19 #
coedge $-1 $48 $48 $79 $80 reversed $30 $-1 #
face $-1 $81 $82 $12 $-1 $83 reversed single #
loop $-1 $-1 $84 $32 #
plane-surface $-1 0 -32.710929839673497 0 0 1 0 0 0 1 forward_v I I I I #
coedge $-1 $85 $86 $87 $88 forward $33 $-1 #
coedge $-1 $89 $35 $90 $91 forward $21 $-1 #
coedge $-1 $35 $89 $92 $93 forward $21 $-1 #
coedge $-1 $94 $95 $35 $56 reversed $96 $-1 #
edge $-1 $97 -32.710929839673497 $98 32.710929839673497 $55 $99 forward 7 unknown #
face $-1 $100 $101 $13 $-1 $102 reversed single #
loop $-1 $-1 $103 $36 #
plane-surface $-1 0 -15.005571235039497 8.4972518660943006 0 -1 0 0 0 -1 forward_v I I I I #
coedge $-1 $104 $105 $106 $107 reversed $37 $-1 #
coedge $-1 $108 $39 $109 $110 reversed $24 $-1 #
coedge $-1 $39 $108 $111 $112 reversed $24 $-1 #
coedge $-1 $113 $114 $39 $64 forward $101 $-1 #
edge $-1 $115 -20.781804570995249 $116 -3.0764459663612485 $63 $117 forward 7 unknown #
face $-1 $118 $119 $14 $-1 $120 forward single #
loop $-1 $-1 $121 $40 #
plane-surface $-1 -174.66348886636715 25.941957149006942 89.731844417165277 0 -1 0 0.78801076186113728 0 -0.61566146476048833 forward_v I I I I #
coedge $-1 $122 $123 $124 $125 reversed $41 $-1 #
coedge $-1 $70 $43 $123 $126 forward $27 $-1 #
coedge $-1 $43 $69 $127 $128 reversed $27 $-1 #
coedge $-1 $129 $124 $43 $72 forward $119 $-1 #
edge $-1 $130 -25.715072863660311 $131 -19.528161560171085 $71 $132 forward 7 unknown #
face $-1 $133 $134 $15 $-1 $135 forward single #
loop $-1 $-1 $136 $44 #
plane-surface $-1 -174.66348886636715 14.194549395707821 89.731844417165277 0 1 0 -0.78801076186113728 0 0.61566146476048833 forward_v I I I I #
loop $-1 $-1 $137 $29 #
coedge $-1 $77 $77 $78 $138 forward $45 $-1 #
coedge $-1 $78 $78 $77 $138 reversed $47 $-1 #
coedge $-1 $79 $79 $48 $80 forward $134 $-1 #
edge $-1 $139 0 $139 6.2831853071796004 $79 $140 forward 7 unknown #
face $-1 $141 $142 $12 $-1 $143 reversed single #
loop $-1 $-1 $144 $49 #
plane-surface $-1 -67.803582873012488 0 0 1 0 0 0 0 -1 forward_v I I I I #
coedge $-1 $145 $92 $146 $147 forward $50 $-1 #
coedge $-1 $148 $52 $145 $149 forward $33 $-1 #
coedge $-1 $52 $148 $150 $151 forward $33 $-1 #
coedge $-1 $95 $94 $52 $88 reversed $96 $-1 #
edge $-1 $152 -32.710929839673497 $153 32.710929839673497 $87 $154 forward 7 unknown #
coedge $-1 $54 $53 $155 $156 forward $21 $-1 #
coedge $-1 $157 $158 $53 $91 reversed $142 $-1 #
edge $-1 $98 -67.803582873012488 $159 67.803582873012488 $90 $160 forward 7 unknown #
coedge $-1 $84 $161 $54 $93 reversed $50 $-1 #
edge $-1 $162 -67.803582873012488 $97 67.803582873012488 $92 $163 forward 7 unknown #
coedge $-1 $87 $55 $161 $164 forward $96 $-1 #
coedge $-1 $55 $87 $157 $165 reversed $96 $-1 #
loop $-1 $-1 $94 $141 #
vertex $-1 $56 $166 #
vertex $-1 $56 $167 #
straight-curve $-1 67.803582873012488 0 14.162623692814842 0 1 0 I I #
face $-1 $168 $169 $13 $-1 $170 reversed single #
loop $-1 $-1 $63 $57 #
plane-surface $-1 67.803582873012488 0 0 -1 0 0 0 0 1 forward_v I I I I #
coedge $-1 $111 $171 $113 $172 reversed $58 $-1 #
coedge $-1 $173 $60 $171 $174 reversed $37 $-1 #
coedge $-1 $60 $173 $175 $176 reversed $37 $-1 #
coedge $-1 $177 $113 $60 $107 forward $101 $-1 #
edge $-1 $178 3.0764459663612485 $179 20.781804570995249 $106 $180 forward 7 unknown #
coedge $-1 $62 $61 $181 $182 reversed $24 $-1 #
coedge $-1 $183 $184 $61 $110 forward $185 $-1 #
edge $-1 $186 -67.803582873012488 $115 67.803582873012488 $109 $187 forward 7 unknown #
coedge $-1 $188 $103 $62 $112 forward $58 $-1 #
edge $-1 $116 -67.803582873012488 $189 67.803582873012488 $111 $190 forward 7 unknown #
coedge $-1 $106 $63 $103 $172 forward $101 $-1 #
coedge $-1 $63 $191 $183 $192 forward $101 $-1 #
vertex $-1 $110 $193 #
vertex $-1 $64 $194 #
straight-curve $-1 67.803582873012488 -11.929125268678249 12.067968840899784 0 1 0 I I #
face $-1 $195 $196 $14 $-1 $197 reversed single #
loop $-1 $-1 $198 $65 #
plane-surface $-1 0 0 14.162623692814842 0 0 1 1 0 0 forward_v I I I I #
coedge $-1 $199 $200 $198 $201 reversed $66 $-1 #
coedge $-1 $202 $68 $200 $203 reversed $41 $-1 #
coedge $-1 $68 $202 $69 $126 reversed $41 $-1 #
coedge $-1 $71 $198 $68 $125 forward $119 $-1 #
edge $-1 $204 -15.907830512828252 $130 -4.1604227595291299 $124 $205 forward 7 unknown #
edge $-1 $130 -10.049209927238383 $206 0 $69 $207 forward 7 unknown #
coedge $-1 $208 $209 $70 $128 forward $210 $-1 #
edge $-1 $131 30.703298515767798 $206 38.622184086633418 $127 $211 forward 7 unknown #
coedge $-1 $212 $71 $209 $213 forward $119 $-1 #
vertex $-1 $125 $214 #
vertex $-1 $213 $215 #
straight-curve $-1 -87.331744433183573 14.194549395707821 14.16262369281484 -1 0 0 I I #
face $-1 $216 $217 $15 $-1 $218 forward single #
loop $-1 $219 $79 $73 #
plane-surface $-1 -67.803582873012488 20.068253272357381 6.243738121949221 -0.78801076186113728 0 0.61566146476048833 0.61566146476048833 0 0.78801076186113728 forward_v I I I I #
coedge $-1 $220 $221 $222 $223 reversed $74 $-1 #
coedge $-1 $137 $137 $-1 $224 forward $76 $-1 #
edge $-1 $225 0 $225 6.2831853071796004 $77 $226 forward 7 unknown #
vertex $-1 $80 $227 #
ellipse-curve $-1 -64.710127221267868 20.068253272357389 10.203180907382036 0.78801076186113728 0 -0.61566146476048833 1.5391536619012207 0 1.9700269046528431 1 I I #
face $-1 $-1 $96 $12 $-1 $228 reversed single #
loop $-1 $-1 $157 $81 #
plane-surface $-1 0 32.710929839673497 0 0 -1 0 0 0 -1 forward_v I I I I #
coedge $-1 $229 $155 $158 $230 forward $82 $-1 #
coedge $-1 $161 $84 $85 $149 reversed $50 $-1 #
coedge $-1 $155 $229 $84 $147 reversed $82 $-1 #
edge $-1 $162 -14.162623692814842 $231 14.162623692814842 $146 $232 forward 7 unknown #
coedge $-1 $86 $85 $229 $233 forward $33 $-1 #
edge $-1 $153 -67.803582873012488 $231 67.803582873012488 $145 $234 forward 7 unknown #
coedge $-1 $158 $157 $86 $151 reversed $142 $-1 #
edge $-1 $235 -67.803582873012488 $152 67.803582873012488 $150 $236 forward 7 unknown #
vertex $-1 $88 $237 #
vertex $-1 $164 $238 #
straight-curve $-1 67.803582873012488 0 -14.162623692814842 0 -1 0 I I #
coedge $-1 $144 $146 $89 $156 reversed $82 $-1 #
edge $-1 $159 -32.710929839673497 $162 32.710929839673497 $155 $239 forward 7 unknown #
coedge $-1 $150 $90 $95 $165 forward $142 $-1 #
coedge $-1 $90 $150 $144 $230 reversed $142 $-1 #
vertex $-1 $91 $240 #
straight-curve $-1 0 32.710929839673497 14.162623692814842 -1 0 0 I I #
coedge $-1 $92 $145 $94 $164 reversed $50 $-1 #
vertex $-1 $156 $241 #
straight-curve $-1 0 -32.710929839673497 14.162623692814842 1 0 0 I I #
edge $-1 $97 -14.162623692814842 $153 14.162623692814842 $94 $242 forward 7 unknown #
edge $-1 $98 -14.162623692814842 $152 14.162623692814842 $95 $243 forward 7 unknown #
point $-1 67.803582873012488 -32.710929839673497 14.162623692814842 #
point $-1 67.803582873012488 32.710929839673497 14.162623692814842 #
face $-1 $244 $245 $13 $-1 $246 forward single #
loop $-1 $-1 $175 $100 #
plane-surface $-1 0 -32.710929839673497 0 0 1 0 0 0 1 forward_v I I I I #
coedge $-1 $103 $188 $104 $174 forward $58 $-1 #
edge $-1 $116 -7.8193429078526338 $178 -0.67790895824166686 $113 $247 forward 7 unknown #
coedge $-1 $105 $104 $248 $249 reversed $37 $-1 #
edge $-1 $250 -67.803582873012488 $178 67.803582873012488 $171 $251 forward 7 unknown #
coedge $-1 $252 $253 $105 $176 forward $169 $-1 #
edge $-1 $179 -67.803582873012488 $254 67.803582873012488 $175 $255 forward 7 unknown #
coedge $-1 $256 $106 $253 $257 forward $101 $-1 #
vertex $-1 $107 $258 #
vertex $-1 $257 $259 #
straight-curve $-1 67.803582873012488 -11.929125268678249 4.9265348912888172 0 -1 0 I I #
coedge $-1 $260 $261 $108 $182 forward $262 $-1 #
edge $-1 $189 3.0764459663612485 $186 20.781804570995249 $181 $263 forward 7 unknown #
coedge $-1 $264 $109 $114 $192 reversed $185 $-1 #
coedge $-1 $109 $264 $260 $265 forward $185 $-1 #
loop $-1 $-1 $109 $266 #
vertex $-1 $182 $267 #
straight-curve $-1 0 -32.710929839673497 12.067968840899784 1 0 0 I I #
coedge $-1 $171 $111 $261 $268 reversed $58 $-1 #
vertex $-1 $182 $269 #
straight-curve $-1 0 -15.005571235039497 12.067968840899784 -1 0 0 I I #
coedge $-1 $114 $270 $271 $272 reversed $101 $-1 #
edge $-1 $273 -14.162623692814842 $115 -12.067968840899784 $114 $274 forward 7 unknown #
point $-1 67.803582873012488 -32.710929839673497 12.067968840899784 #
point $-1 67.803582873012488 -15.005571235039497 12.067968840899784 #
face $-1 $275 $276 $14 $-1 $277 forward single #
loop $-1 $-1 $278 $118 #
plane-surface $-1 0 -23.858250537356497 12.067968840899784 0 0 1 1 0 0 forward_v I I I I #
coedge $-1 $124 $279 $121 $201 forward $119 $-1 #
coedge $-1 $200 $121 $280 $281 reversed $66 $-1 #
coedge $-1 $121 $199 $122 $203 forward $66 $-1 #
edge $-1 $282 19.528161560171085 $204 25.715072863660311 $198 $283 forward 7 unknown #
coedge $-1 $123 $122 $208 $284 reversed $41 $-1 #
edge $-1 $285 0 $204 10.049209927238383 $200 $286 forward 7 unknown #
vertex $-1 $125 $287 #
straight-curve $-1 -61.616671569523263 10.034126636178691 14.162623692814842 0 -1 0 I I #
vertex $-1 $284 $288 #
straight-curve $-1 -67.803582873012488 14.194549395707821 6.243738121949221 -0.61566146476048833 0 -0.78801076186113728 I I #
coedge $-1 $280 $127 $202 $284 forward $210 $-1 #
coedge $-1 $127 $289 $129 $213 reversed $210 $-1 #
loop $-1 $-1 $280 $290 #
straight-curve $-1 -67.803582873012488 14.194549395707821 44.865922208582639 0 0 -1 I I #
coedge $-1 $291 $129 $292 $293 forward $119 $-1 #
edge $-1 $131 -14.194549395707821 $294 32.710929839673497 $209 $295 forward 7 unknown #
point $-1 -61.616671569523263 14.194549395707821 14.162623692814842 #
point $-1 -67.803582873012488 14.194549395707821 14.162623692814842 #
face $-1 $296 $297 $15 $-1 $298 forward single #
loop $-1 $-1 $299 $133 #
plane-surface $-1 -174.66348886636715 25.941957149006942 89.731844417165277 0 -1 0 0.78801076186113728 0 -0.61566146476048833 forward_v I I I I #
loop $-1 $-1 $300 $73 #
coedge $-1 $221 $136 $301 $302 forward $74 $-1 #
coedge $-1 $136 $220 $303 $304 reversed $74 $-1 #
coedge $-1 $305 $306 $136 $223 forward $297 $-1 #
edge $-1 $307 -25.715072863660311 $308 -19.528161560171085 $222 $309 forward 7 unknown #
edge $-1 $310 1 $310 0 $137 $-1 forward 7 unknown #
vertex $-1 $138 $311 #
ellipse-curve $-1 -57.400700329575805 20.068253272357389 4.4924308967218352 -0.78801076186113728 0 0.61566146476048833 1.5391536619012207 0 1.9700269046528431 1 I I #
point $-1 -63.170973559366658 20.068253272357389 12.17320781203488 #
plane-surface $-1 67.803582873012488 0 0 -1 0 0 0 0 1 forward_v I I I I #
coedge $-1 $146 $144 $148 $233 reversed $82 $-1 #
edge $-1 $159 -14.162623692814842 $235 14.162623692814842 $158 $312 forward 7 unknown #
vertex $-1 $233 $313 #
straight-curve $-1 -67.803582873012488 -32.710929839673497 0 0 0 -1 I I #
edge $-1 $231 -32.710929839673497 $235 32.710929839673497 $229 $314 forward 7 unknown #
straight-curve $-1 0 -32.710929839673497 -14.162623692814842 -1 0 0 I I #
vertex $-1 $151 $315 #
straight-curve $-1 0 32.710929839673497 -14.162623692814842 1 0 0 I I #
point $-1 67.803582873012488 32.710929839673497 -14.162623692814842 #
point $-1 67.803582873012488 -32.710929839673497 -14.162623692814842 #
straight-curve $-1 -67.803582873012488 0 14.162623692814842 0 -1 0 I I #
point $-1 -67.803582873012488 32.710929839673497 14.162623692814842 #
point $-1 -67.803582873012488 -32.710929839673497 14.162623692814842 #
straight-curve $-1 67.803582873012488 -32.710929839673497 0 0 0 -1 I I #
straight-curve $-1 67.803582873012488 32.710929839673497 0 0 0 -1 I I #
face $-1 $266 $316 $13 $-1 $317 reversed single #
loop $-1 $-1 $271 $168 #
plane-surface $-1 0 0 14.162623692814842 0 0 1 1 0 0 forward_v I I I I #
straight-curve $-1 67.803582873012488 -15.005571235039497 4.2486259330471503 0 0 -1 I I #
coedge $-1 $261 $318 $173 $249 forward $262 $-1 #
edge $-1 $254 -20.781804570995249 $250 -3.0764459663612485 $248 $319 forward 7 unknown #
vertex $-1 $249 $320 #
straight-curve $-1 0 -15.005571235039497 4.9265348912888172 1 0 0 I I #
coedge $-1 $321 $175 $318 $322 forward $169 $-1 #
coedge $-1 $175 $321 $177 $257 reversed $169 $-1 #
vertex $-1 $322 $323 #
straight-curve $-1 0 -32.710929839673497 4.9265348912888172 -1 0 0 I I #
coedge $-1 $270 $177 $324 $325 reversed $101 $-1 #
edge $-1 $179 -4.9265348912888172 $326 14.162623692814842 $177 $274 forward 7 unknown #
point $-1 67.803582873012488 -15.005571235039497 4.9265348912888172 #
point $-1 67.803582873012488 -32.710929839673497 4.9265348912888172 #
coedge $-1 $327 $181 $184 $265 reversed $262 $-1 #
coedge $-1 $181 $248 $188 $268 forward $262 $-1 #
loop $-1 $-1 $181 $328 #
straight-curve $-1 -67.803582873012488 -11.929125268678249 12.067968840899784 0 -1 0 I I #
coedge $-1 $184 $183 $329 $330 reversed $185 $-1 #
edge $-1 $331 -14.162623692814842 $186 -12.067968840899784 $260 $332 forward 7 unknown #
face $-1 $328 $185 $13 $-1 $170 reversed single #
point $-1 -67.803582873012488 -32.710929839673497 12.067968840899784 #
edge $-1 $250 0.67790895824166686 $189 7.8193429078526338 $261 $333 forward 7 unknown #
point $-1 -67.803582873012488 -15.005571235039497 12.067968840899784 #
coedge $-1 $191 $256 $334 $335 reversed $101 $-1 #
coedge $-1 $336 $329 $191 $272 forward $245 $-1 #
edge $-1 $273 -32.710929839673497 $337 32.710929839673497 $191 $338 forward 7 unknown #
vertex $-1 $272 $339 #
straight-curve $-1 67.803582873012488 -32.710929839673497 0 0 0 -1 I I #
face $-1 $340 $341 $14 $-1 $342 forward single #
loop $-1 $-1 $343 $195 #
plane-surface $-1 0 -23.858250537356497 4.9265348912888172 0 0 1 1 0 0 forward_v I I I I #
coedge $-1 $344 $345 $346 $347 reversed $196 $-1 #
coedge $-1 $198 $348 $349 $350 forward $119 $-1 #
coedge $-1 $349 $208 $199 $281 forward $210 $-1 #
edge $-1 $285 -38.622184086633418 $282 -30.703298515767798 $280 $351 forward 7 unknown #
vertex $-1 $281 $352 #
straight-curve $-1 -87.331744433183573 25.941957149006942 14.16262369281484 1 0 0 I I #
edge $-1 $206 4.1604227595291299 $285 15.907830512828252 $208 $353 forward 7 unknown #
vertex $-1 $284 $354 #
straight-curve $-1 -67.803582873012488 25.941957149006942 6.243738121949221 0.61566146476048833 0 0.78801076186113728 I I #
point $-1 -61.616671569523263 25.941957149006942 14.162623692814842 #
point $-1 -67.803582873012488 14.194549395707821 6.243738121949221 #
coedge $-1 $209 $355 $356 $357 reversed $210 $-1 #
face $-1 $358 $210 $14 $-1 $359 reversed single #
coedge $-1 $348 $212 $360 $361 forward $119 $-1 #
coedge $-1 $356 $362 $212 $293 reversed $363 $-1 #
edge $-1 $294 -67.803582873012488 $364 67.803582873012488 $292 $365 forward 7 unknown #
vertex $-1 $213 $366 #
straight-curve $-1 -67.803582873012488 0 14.162623692814842 0 -1 0 I I #
face $-1 $367 $368 $15 $-1 $369 reversed single #
loop $-1 $-1 $370 $216 #
plane-surface $-1 0 0 14.162623692814842 0 0 1 1 0 0 forward_v I I I I #
coedge $-1 $371 $372 $370 $373 reversed $217 $-1 #
coedge $-1 $374 $301 $306 $375 reversed $219 $-1 #
coedge $-1 $300 $376 $220 $302 reversed $219 $-1 #
edge $-1 $307 -10.049209927238383 $377 0 $220 $378 forward 7 unknown #
coedge $-1 $379 $380 $221 $304 forward $381 $-1 #
edge $-1 $308 30.703298515767798 $377 38.622184086633418 $303 $382 forward 7 unknown #
coedge $-1 $383 $222 $380 $384 forward $297 $-1 #
coedge $-1 $222 $370 $300 $375 forward $297 $-1 #
vertex $-1 $375 $385 #
vertex $-1 $384 $386 #
straight-curve $-1 -87.331744433183573 14.194549395707821 14.16262369281484 -1 0 0 I I #
vertex $-1 $224 $387 #
point $-1 -55.861546667674588 20.068253272357389 6.4624578013746783 #
straight-curve $-1 -67.803582873012488 32.710929839673497 0 0 0 -1 I I #
point $-1 -67.803582873012488 -32.710929839673497 -14.162623692814842 #
straight-curve $-1 -67.803582873012488 0 -14.162623692814842 0 1 0 I I #
point $-1 -67.803582873012488 32.710929839673497 -14.162623692814842 #
loop $-1 $-1 $324 $244 #
plane-surface $-1 0 0 -14.162623692814842 0 0 1 1 0 0 forward_v I I I I #
coedge $-1 $248 $388 $252 $322 reversed $262 $-1 #
straight-curve $-1 -67.803582873012488 -11.929125268678249 4.9265348912888172 0 1 0 I I #
point $-1 -67.803582873012488 -15.005571235039497 4.9265348912888172 #
coedge $-1 $253 $252 $389 $390 reversed $169 $-1 #
edge $-1 $254 -4.9265348912888172 $391 14.162623692814842 $318 $332 forward 7 unknown #
point $-1 -67.803582873012488 -32.710929839673497 4.9265348912888172 #
coedge $-1 $389 $392 $256 $325 forward $316 $-1 #
edge $-1 $393 -32.710929839673497 $326 32.710929839673497 $256 $394 forward 7 unknown #
vertex $-1 $257 $395 #
coedge $-1 $396 $260 $397 $398 reversed $262 $-1 #
face $-1 $399 $262 $13 $-1 $400 reversed single #
coedge $-1 $271 $397 $264 $330 forward $245 $-1 #
edge $-1 $331 -67.803582873012488 $273 67.803582873012488 $264 $401 forward 7 unknown #
vertex $-1 $398 $402 #
straight-curve $-1 -67.803582873012488 -32.710929839673497 0 0 0 -1 I I #
straight-curve $-1 -67.803582873012488 -15.005571235039497 4.2486259330471503 0 0 1 I I #
coedge $-1 $403 $404 $270 $335 forward $405 $-1 #
edge $-1 $337 -14.162623692814842 $393 14.162623692814842 $270 $406 forward 7 unknown #
coedge $-1 $397 $271 $404 $407 forward $245 $-1 #
vertex $-1 $272 $408 #
straight-curve $-1 67.803582873012488 0 14.162623692814842 0 1 0 I I #
point $-1 67.803582873012488 -32.710929839673497 14.162623692814842 #
face $-1 $409 $410 $14 $-1 $411 reversed single #
loop $-1 $-1 $412 $275 #
plane-surface $-1 0 -15.005571235039497 8.4972518660943006 0 -1 0 0 0 -1 forward_v I I I I #
coedge $-1 $413 $414 $415 $416 reversed $276 $-1 #
coedge $-1 $417 $278 $418 $419 reversed $196 $-1 #
coedge $-1 $278 $417 $420 $421 reversed $196 $-1 #
coedge $-1 $422 $423 $278 $347 forward $410 $-1 #
edge $-1 $424 -20.781804570995249 $425 -3.0764459663612485 $346 $426 forward 7 unknown #
coedge $-1 $279 $291 $427 $428 forward $119 $-1 #
coedge $-1 $429 $280 $279 $350 reversed $210 $-1 #
edge $-1 $430 -32.710929839673497 $282 -25.941957149006942 $349 $295 forward 7 unknown #
straight-curve $-1 -67.803582873012488 25.941957149006942 44.865922208582639 0 0 1 I I #
point $-1 -67.803582873012488 25.941957149006942 14.162623692814842 #
straight-curve $-1 -67.803582873012488 10.034126636178691 6.2437381219492272 0 1 0 I I #
point $-1 -67.803582873012488 25.941957149006942 6.243738121949221 #
coedge $-1 $289 $431 $417 $432 forward $210 $-1 #
coedge $-1 $418 $292 $289 $357 forward $363 $-1 #
edge $-1 $294 -14.162623692814842 $433 -12.067968840899784 $289 $434 forward 7 unknown #
face $-1 $-1 $435 $14 $-1 $436 reversed single #
plane-surface $-1 -67.803582873012488 0 0 1 0 0 0 0 -1 forward_v I I I I #
coedge $-1 $423 $437 $291 $361 reversed $410 $-1 #
edge $-1 $364 -32.710929839673497 $438 32.710929839673497 $360 $439 forward 7 unknown #
coedge $-1 $292 $418 $423 $440 reversed $363 $-1 #
loop $-1 $-1 $418 $441 #
vertex $-1 $361 $442 #
straight-curve $-1 0 -32.710929839673497 14.162623692814842 1 0 0 I I #
point $-1 -67.803582873012488 -32.710929839673497 14.162623692814842 #
face $-1 $443 $444 $15 $-1 $445 forward single #
loop $-1 $-1 $446 $296 #
plane-surface $-1 0 -23.858250537356497 12.067968840899784 0 0 1 1 0 0 forward_v I I I I #
coedge $-1 $306 $447 $299 $373 forward $297 $-1 #
coedge $-1 $372 $299 $448 $449 reversed $217 $-1 #
coedge $-1 $299 $371 $374 $450 forward $217 $-1 #
edge $-1 $451 19.528161560171085 $452 25.715072863660311 $370 $453 forward 7 unknown #
coedge $-1 $376 $300 $372 $450 reversed $219 $-1 #
edge $-1 $452 -15.907830512828252 $307 -4.1604227595291299 $306 $454 forward 7 unknown #
coedge $-1 $301 $374 $379 $455 reversed $219 $-1 #
vertex $-1 $455 $456 #
straight-curve $-1 -67.803582873012488 14.194549395707821 6.243738121949221 -0.61566146476048833 0 -0.78801076186113728 I I #
coedge $-1 $448 $303 $376 $455 forward $381 $-1 #
coedge $-1 $303 $457 $305 $384 reversed $381 $-1 #
loop $-1 $-1 $448 $458 #
straight-curve $-1 -67.803582873012488 14.194549395707821 44.865922208582639 0 0 -1 I I #
coedge $-1 $459 $305 $460 $461 forward $297 $-1 #
edge $-1 $308 -14.194549395707821 $462 32.710929839673497 $380 $463 forward 7 unknown #
point $-1 -61.616671569523263 14.194549395707821 14.162623692814842 #
point $-1 -67.803582873012488 14.194549395707821 14.162623692814842 #
point $-1 -55.430673424922965 20.068253272357389 2.9532772348206144 #
coedge $-1 $318 $396 $464 $465 reversed $262 $-1 #
coedge $-1 $464 $324 $321 $390 forward $316 $-1 #
edge $-1 $326 -67.803582873012488 $391 67.803582873012488 $321 $466 forward 7 unknown #
vertex $-1 $465 $467 #
coedge $-1 $324 $464 $403 $468 forward $316 $-1 #
vertex $-1 $325 $469 #
straight-curve $-1 67.803582873012488 0 -14.162623692814842 0 -1 0 I I #
point $-1 67.803582873012488 -32.710929839673497 -14.162623692814842 #
coedge $-1 $388 $327 $470 $471 forward $262 $-1 #
coedge $-1 $329 $336 $327 $398 forward $245 $-1 #
edge $-1 $472 -32.710929839673497 $331 32.710929839673497 $327 $473 forward 7 unknown #
face $-1 $-1 $405 $13 $-1 $474 reversed single #
plane-surface $-1 -67.803582873012488 0 0 1 0 0 0 0 -1 forward_v I I I I #
straight-curve $-1 0 -32.710929839673497 14.162623692814842 1 0 0 I I #
point $-1 -67.803582873012488 -32.710929839673497 14.162623692814842 #
coedge $-1 $470 $334 $392 $468 reversed $405 $-1 #
coedge $-1 $334 $470 $336 $407 reversed $405 $-1 #
loop $-1 $-1 $334 $399 #
straight-curve $-1 67.803582873012488 32.710929839673497 0 0 0 -1 I I #
edge $-1 $337 -67.803582873012488 $472 67.803582873012488 $404 $475 forward 7 unknown #
point $-1 67.803582873012488 32.710929839673497 14.162623692814842 #
face $-1 $476 $477 $14 $-1 $478 reversed single #
loop $-1 $-1 $346 $340 #
plane-surface $-1 67.803582873012488 0 0 -1 0 0 0 0 1 forward_v I I I I #
coedge $-1 $420 $479 $422 $480 reversed $341 $-1 #
coedge $-1 $481 $343 $479 $482 reversed $276 $-1 #
coedge $-1 $343 $481 $483 $484 reversed $276 $-1 #
coedge $-1 $485 $422 $343 $416 forward $410 $-1 #
edge $-1 $486 3.0764459663612485 $487 20.781804570995249 $415 $488 forward 7 unknown #
coedge $-1 $345 $344 $355 $432 reversed $196 $-1 #
coedge $-1 $362 $356 $344 $419 forward $363 $-1 #
edge $-1 $433 -67.803582873012488 $424 67.803582873012488 $418 $489 forward 7 unknown #
coedge $-1 $490 $412 $345 $421 forward $341 $-1 #
edge $-1 $425 -67.803582873012488 $491 67.803582873012488 $420 $492 forward 7 unknown #
coedge $-1 $415 $346 $412 $480 forward $410 $-1 #
coedge $-1 $346 $360 $362 $440 forward $410 $-1 #
vertex $-1 $419 $493 #
vertex $-1 $347 $494 #
straight-curve $-1 67.803582873012488 -11.929125268678249 12.067968840899784 0 1 0 I I #
coedge $-1 $495 $496 $348 $428 reversed $435 $-1 #
edge $-1 $438 -67.803582873012488 $430 67.803582873012488 $427 $497 forward 7 unknown #
coedge $-1 $498 $349 $496 $499 forward $210 $-1 #
vertex $-1 $428 $500 #
coedge $-1 $355 $501 $490 $502 forward $210 $-1 #
edge $-1 $491 3.0764459663612485 $433 20.781804570995249 $355 $503 forward 7 unknown #
vertex $-1 $432 $504 #
straight-curve $-1 -67.803582873012488 -32.710929839673497 0 0 0 -1 I I #
loop $-1 $-1 $495 $358 #
plane-surface $-1 0 32.710929839673497 0 0 -1 0 0 0 -1 forward_v I I I I #
coedge $-1 $360 $505 $495 $506 reversed $410 $-1 #
vertex $-1 $361 $507 #
straight-curve $-1 67.803582873012488 0 14.162623692814842 0 1 0 I I #
edge $-1 $364 -14.162623692814842 $424 -12.067968840899784 $423 $508 forward 7 unknown #
face $-1 $290 $363 $14 $-1 $478 reversed single #
point $-1 67.803582873012488 -32.710929839673497 14.162623692814842 #
face $-1 $509 $510 $15 $-1 $511 forward single #
loop $-1 $-1 $512 $367 #
plane-surface $-1 0 -23.858250537356497 4.9265348912888172 0 0 1 1 0 0 forward_v I I I I #
coedge $-1 $513 $514 $515 $516 reversed $368 $-1 #
coedge $-1 $370 $517 $518 $519 forward $297 $-1 #
coedge $-1 $518 $379 $371 $449 forward $381 $-1 #
edge $-1 $520 -38.622184086633418 $451 -30.703298515767798 $448 $521 forward 7 unknown #
edge $-1 $520 0 $452 10.049209927238383 $372 $522 forward 7 unknown #
vertex $-1 $449 $523 #
vertex $-1 $375 $524 #
straight-curve $-1 -87.331744433183573 25.941957149006942 14.16262369281484 1 0 0 I I #
straight-curve $-1 -61.616671569523263 10.034126636178691 14.162623692814842 0 -1 0 I I #
edge $-1 $377 4.1604227595291299 $520 15.907830512828252 $379 $525 forward 7 unknown #
point $-1 -67.803582873012488 14.194549395707821 6.243738121949221 #
coedge $-1 $380 $526 $527 $528 reversed $381 $-1 #
face $-1 $529 $381 $15 $-1 $530 reversed single #
coedge $-1 $517 $383 $531 $532 forward $297 $-1 #
coedge $-1 $527 $533 $383 $461 reversed $534 $-1 #
edge $-1 $462 -67.803582873012488 $535 67.803582873012488 $460 $536 forward 7 unknown #
vertex $-1 $384 $537 #
straight-curve $-1 -67.803582873012488 0 14.162623692814842 0 -1 0 I I #
coedge $-1 $392 $389 $388 $465 forward $316 $-1 #
edge $-1 $391 -32.710929839673497 $538 32.710929839673497 $388 $539 forward 7 unknown #
straight-curve $-1 0 -32.710929839673497 -14.162623692814842 -1 0 0 I I #
point $-1 -67.803582873012488 -32.710929839673497 -14.162623692814842 #
edge $-1 $538 -67.803582873012488 $393 67.803582873012488 $403 $540 forward 7 unknown #
point $-1 67.803582873012488 32.710929839673497 -14.162623692814842 #
coedge $-1 $404 $403 $396 $471 reversed $405 $-1 #
edge $-1 $472 -14.162623692814842 $538 14.162623692814842 $470 $541 forward 7 unknown #
vertex $-1 $407 $542 #
straight-curve $-1 -67.803582873012488 0 14.162623692814842 0 -1 0 I I #
plane-surface $-1 0 32.710929839673497 0 0 -1 0 0 0 -1 forward_v I I I I #
straight-curve $-1 0 32.710929839673497 14.162623692814842 -1 0 0 I I #
face $-1 $441 $543 $14 $-1 $544 reversed single #
loop $-1 $-1 $483 $409 #
plane-surface $-1 0 -32.710929839673497 0 0 1 0 0 0 1 forward_v I I I I #
coedge $-1 $412 $490 $413 $482 forward $341 $-1 #
edge $-1 $425 -7.8193429078526338 $486 -0.67790895824166686 $422 $545 forward 7 unknown #
coedge $-1 $414 $413 $501 $546 reversed $276 $-1 #
edge $-1 $547 -67.803582873012488 $486 67.803582873012488 $479 $548 forward 7 unknown #
coedge $-1 $549 $550 $414 $484 forward $477 $-1 #
edge $-1 $487 -67.803582873012488 $551 67.803582873012488 $483 $552 forward 7 unknown #
coedge $-1 $505 $415 $550 $553 forward $410 $-1 #
vertex $-1 $416 $554 #
vertex $-1 $553 $555 #
straight-curve $-1 67.803582873012488 -11.929125268678249 4.9265348912888172 0 -1 0 I I #
straight-curve $-1 0 -32.710929839673497 12.067968840899784 1 0 0 I I #
coedge $-1 $479 $420 $431 $502 reversed $341 $-1 #
vertex $-1 $432 $556 #
straight-curve $-1 0 -15.005571235039497 12.067968840899784 -1 0 0 I I #
point $-1 67.803582873012488 -32.710929839673497 12.067968840899784 #
point $-1 67.803582873012488 -15.005571235039497 12.067968840899784 #
coedge $-1 $557 $427 $437 $506 forward $435 $-1 #
coedge $-1 $427 $557 $429 $499 reversed $435 $-1 #
straight-curve $-1 0 32.710929839673497 14.162623692814842 -1 0 0 I I #
coedge $-1 $558 $429 $559 $560 reversed $210 $-1 #
edge $-1 $430 -14.162623692814842 $561 14.162623692814842 $496 $562 forward 7 unknown #
point $-1 -67.803582873012488 32.710929839673497 14.162623692814842 #
coedge $-1 $431 $558 $481 $546 forward $210 $-1 #
edge $-1 $547 0.67790895824166686 $491 7.8193429078526338 $431 $563 forward 7 unknown #
straight-curve $-1 -67.803582873012488 -11.929125268678249 12.067968840899784 0 -1 0 I I #
point $-1 -67.803582873012488 -32.710929839673497 12.067968840899784 #
coedge $-1 $437 $485 $564 $565 reversed $410 $-1 #
edge $-1 $438 -14.162623692814842 $566 14.162623692814842 $437 $567 forward 7 unknown #
point $-1 67.803582873012488 32.710929839673497 14.162623692814842 #
straight-curve $-1 67.803582873012488 -32.710929839673497 0 0 0 -1 I I #
face $-1 $568 $569 $15 $-1 $570 reversed single #
loop $-1 $-1 $571 $443 #
plane-surface $-1 0 -15.005571235039497 8.4972518660943006 0 -1 0 0 0 -1 forward_v I I I I #
coedge $-1 $572 $573 $574 $575 reversed $444 $-1 #
coedge $-1 $576 $446 $577 $578 reversed $368 $-1 #
coedge $-1 $446 $576 $579 $580 reversed $368 $-1 #
coedge $-1 $581 $582 $446 $516 forward $569 $-1 #
edge $-1 $583 -20.781804570995249 $584 -3.0764459663612485 $515 $585 forward 7 unknown #
coedge $-1 $447 $459 $586 $587 forward $297 $-1 #
coedge $-1 $588 $448 $447 $519 reversed $381 $-1 #
edge $-1 $589 -32.710929839673497 $451 -25.941957149006942 $518 $463 forward 7 unknown #
vertex $-1 $455 $590 #
straight-curve $-1 -67.803582873012488 25.941957149006942 44.865922208582639 0 0 1 I I #
straight-curve $-1 -67.803582873012488 25.941957149006942 6.243738121949221 0.61566146476048833 0 0.78801076186113728 I I #
point $-1 -67.803582873012488 25.941957149006942 14.162623692814842 #
point $-1 -61.616671569523263 25.941957149006942 14.162623692814842 #
straight-curve $-1 -67.803582873012488 10.034126636178691 6.2437381219492272 0 1 0 I I #
coedge $-1 $457 $591 $576 $592 forward $381 $-1 #
coedge $-1 $577 $460 $457 $528 forward $534 $-1 #
edge $-1 $462 -14.162623692814842 $593 -12.067968840899784 $457 $594 forward 7 unknown #
face $-1 $-1 $595 $15 $-1 $596 reversed single #
plane-surface $-1 -67.803582873012488 0 0 1 0 0 0 0 -1 forward_v I I I I #
coedge $-1 $582 $597 $459 $532 reversed $569 $-1 #
edge $-1 $535 -32.710929839673497 $598 32.710929839673497 $531 $599 forward 7 unknown #
coedge $-1 $460 $577 $582 $600 reversed $534 $-1 #
loop $-1 $-1 $577 $601 #
vertex $-1 $532 $602 #
straight-curve $-1 0 -32.710929839673497 14.162623692814842 1 0 0 I I #
point $-1 -67.803582873012488 -32.710929839673497 14.162623692814842 #
vertex $-1 $468 $603 #
straight-curve $-1 -67.803582873012488 0 -14.162623692814842 0 1 0 I I #
straight-curve $-1 0 32.710929839673497 -14.162623692814842 1 0 0 I I #
straight-curve $-1 -67.803582873012488 32.710929839673497 0 0 0 -1 I I #
point $-1 -67.803582873012488 32.710929839673497 14.162623692814842 #
loop $-1 $-1 $564 $476 #
plane-surface $-1 0 0 -14.162623692814842 0 0 1 1 0 0 forward_v I I I I #
straight-curve $-1 67.803582873012488 -15.005571235039497 4.2486259330471503 0 0 -1 I I #
edge $-1 $551 -20.781804570995249 $547 -3.0764459663612485 $501 $604 forward 7 unknown #
vertex $-1 $546 $605 #
straight-curve $-1 0 -15.005571235039497 4.9265348912888172 1 0 0 I I #
coedge $-1 $606 $483 $558 $607 forward $477 $-1 #
coedge $-1 $483 $606 $485 $553 reversed $477 $-1 #
vertex $-1 $607 $608 #
straight-curve $-1 0 -32.710929839673497 4.9265348912888172 -1 0 0 I I #
edge $-1 $487 -4.9265348912888172 $609 14.162623692814842 $485 $508 forward 7 unknown #
point $-1 67.803582873012488 -15.005571235039497 4.9265348912888172 #
point $-1 67.803582873012488 -32.710929839673497 4.9265348912888172 #
point $-1 -67.803582873012488 -15.005571235039497 12.067968840899784 #
coedge $-1 $496 $495 $610 $611 reversed $435 $-1 #
coedge $-1 $501 $498 $549 $607 reversed $210 $-1 #
coedge $-1 $610 $612 $498 $560 forward $543 $-1 #
edge $-1 $613 -32.710929839673497 $561 32.710929839673497 $498 $614 forward 7 unknown #
vertex $-1 $611 $615 #
straight-curve $-1 -67.803582873012488 32.710929839673497 0 0 0 -1 I I #
straight-curve $-1 -67.803582873012488 -15.005571235039497 4.2486259330471503 0 0 1 I I #
coedge $-1 $612 $610 $505 $565 forward $543 $-1 #
edge $-1 $566 -32.710929839673497 $609 32.710929839673497 $505 $616 forward 7 unknown #
vertex $-1 $565 $617 #
straight-curve $-1 67.803582873012488 32.710929839673497 0 0 0 -1 I I #
face $-1 $618 $619 $15 $-1 $620 reversed single #
loop $-1 $-1 $515 $509 #
plane-surface $-1 67.803582873012488 0 0 -1 0 0 0 0 1 forward_v I I I I #
coedge $-1 $579 $621 $581 $622 reversed $510 $-1 #
coedge $-1 $623 $512 $621 $624 reversed $444 $-1 #
coedge $-1 $512 $623 $625 $626 reversed $444 $-1 #
coedge $-1 $627 $581 $512 $575 forward $569 $-1 #
edge $-1 $628 3.0764459663612485 $629 20.781804570995249 $574 $630 forward 7 unknown #
coedge $-1 $514 $513 $526 $592 reversed $368 $-1 #
coedge $-1 $533 $527 $513 $578 forward $534 $-1 #
edge $-1 $593 -67.803582873012488 $583 67.803582873012488 $577 $631 forward 7 unknown #
coedge $-1 $632 $571 $514 $580 forward $510 $-1 #
edge $-1 $584 -67.803582873012488 $633 67.803582873012488 $579 $634 forward 7 unknown #
coedge $-1 $574 $515 $571 $622 forward $569 $-1 #
coedge $-1 $515 $531 $533 $600 forward $569 $-1 #
vertex $-1 $578 $635 #
vertex $-1 $516 $636 #
straight-curve $-1 67.803582873012488 -11.929125268678249 12.067968840899784 0 1 0 I I #
coedge $-1 $637 $638 $517 $587 reversed $595 $-1 #
edge $-1 $598 -67.803582873012488 $589 67.803582873012488 $586 $639 forward 7 unknown #
coedge $-1 $640 $518 $638 $641 forward $381 $-1 #
vertex $-1 $587 $642 #
point $-1 -67.803582873012488 25.941957149006942 6.243738121949221 #
coedge $-1 $526 $643 $632 $644 forward $381 $-1 #
edge $-1 $633 3.0764459663612485 $593 20.781804570995249 $526 $645 forward 7 unknown #
vertex $-1 $592 $646 #
straight-curve $-1 -67.803582873012488 -32.710929839673497 0 0 0 -1 I I #
loop $-1 $-1 $637 $529 #
plane-surface $-1 0 32.710929839673497 0 0 -1 0 0 0 -1 forward_v I I I I #
coedge $-1 $531 $647 $637 $648 reversed $569 $-1 #
vertex $-1 $532 $649 #
straight-curve $-1 67.803582873012488 0 14.162623692814842 0 1 0 I I #
edge $-1 $535 -14.162623692814842 $583 -12.067968840899784 $582 $650 forward 7 unknown #
face $-1 $458 $534 $15 $-1 $620 reversed single #
point $-1 67.803582873012488 -32.710929839673497 14.162623692814842 #
point $-1 -67.803582873012488 32.710929839673497 -14.162623692814842 #
straight-curve $-1 -67.803582873012488 -11.929125268678249 4.9265348912888172 0 1 0 I I #
point $-1 -67.803582873012488 -15.005571235039497 4.9265348912888172 #
coedge $-1 $550 $549 $612 $651 reversed $477 $-1 #
edge $-1 $551 -4.9265348912888172 $613 14.162623692814842 $558 $434 forward 7 unknown #
point $-1 -67.803582873012488 -32.710929839673497 4.9265348912888172 #
vertex $-1 $553 $652 #
coedge $-1 $564 $559 $557 $611 forward $543 $-1 #
edge $-1 $561 -67.803582873012488 $566 67.803582873012488 $557 $653 forward 7 unknown #
coedge $-1 $559 $564 $606 $651 forward $543 $-1 #
vertex $-1 $560 $654 #
straight-curve $-1 -67.803582873012488 0 -14.162623692814842 0 1 0 I I #
point $-1 -67.803582873012488 32.710929839673497 -14.162623692814842 #
straight-curve $-1 67.803582873012488 0 -14.162623692814842 0 -1 0 I I #
point $-1 67.803582873012488 32.710929839673497 -14.162623692814842 #
face $-1 $601 $655 $15 $-1 $656 reversed single #
loop $-1 $-1 $625 $568 #
plane-surface $-1 0 -32.710929839673497 0 0 1 0 0 0 1 forward_v I I I I #
coedge $-1 $571 $632 $572 $624 forward $510 $-1 #
edge $-1 $584 -7.8193429078526338 $628 -0.67790895824166686 $581 $657 forward 7 unknown #
coedge $-1 $573 $572 $643 $658 reversed $444 $-1 #
edge $-1 $659 -67.803582873012488 $628 67.803582873012488 $621 $660 forward 7 unknown #
coedge $-1 $661 $662 $573 $626 forward $619 $-1 #
edge $-1 $629 -67.803582873012488 $663 67.803582873012488 $625 $664 forward 7 unknown #
coedge $-1 $647 $574 $662 $665 forward $569 $-1 #
vertex $-1 $575 $666 #
vertex $-1 $665 $667 #
straight-curve $-1 67.803582873012488 -11.929125268678249 4.9265348912888172 0 -1 0 I I #
straight-curve $-1 0 -32.710929839673497 12.067968840899784 1 0 0 I I #
coedge $-1 $621 $579 $591 $644 reversed $510 $-1 #
vertex $-1 $592 $668 #
straight-curve $-1 0 -15.005571235039497 12.067968840899784 -1 0 0 I I #
point $-1 67.803582873012488 -32.710929839673497 12.067968840899784 #
point $-1 67.803582873012488 -15.005571235039497 12.067968840899784 #
coedge $-1 $669 $586 $597 $648 forward $595 $-1 #
coedge $-1 $586 $669 $588 $641 reversed $595 $-1 #
straight-curve $-1 0 32.710929839673497 14.162623692814842 -1 0 0 I I #
coedge $-1 $670 $588 $671 $672 reversed $381 $-1 #
edge $-1 $589 -14.162623692814842 $673 14.162623692814842 $638 $674 forward 7 unknown #
point $-1 -67.803582873012488 32.710929839673497 14.162623692814842 #
coedge $-1 $591 $670 $623 $658 forward $381 $-1 #
edge $-1 $659 0.67790895824166686 $633 7.8193429078526338 $591 $675 forward 7 unknown #
straight-curve $-1 -67.803582873012488 -11.929125268678249 12.067968840899784 0 -1 0 I I #
point $-1 -67.803582873012488 -32.710929839673497 12.067968840899784 #
coedge $-1 $597 $627 $676 $677 reversed $569 $-1 #
edge $-1 $598 -14.162623692814842 $678 14.162623692814842 $597 $679 forward 7 unknown #
point $-1 67.803582873012488 32.710929839673497 14.162623692814842 #
straight-curve $-1 67.803582873012488 -32.710929839673497 0 0 0 -1 I I #
edge $-1 $609 -67.803582873012488 $613 67.803582873012488 $606 $680 forward 7 unknown #
point $-1 67.803582873012488 -32.710929839673497 -14.162623692814842 #
straight-curve $-1 0 32.710929839673497 -14.162623692814842 1 0 0 I I #
point $-1 -67.803582873012488 -32.710929839673497 -14.162623692814842 #
loop $-1 $-1 $676 $618 #
plane-surface $-1 0 0 -14.162623692814842 0 0 1 1 0 0 forward_v I I I I #
straight-curve $-1 67.803582873012488 -15.005571235039497 4.2486259330471503 0 0 -1 I I #
edge $-1 $663 -20.781804570995249 $659 -3.0764459663612485 $643 $681 forward 7 unknown #
vertex $-1 $658 $682 #
straight-curve $-1 0 -15.005571235039497 4.9265348912888172 1 0 0 I I #
coedge $-1 $683 $625 $670 $684 forward $619 $-1 #
coedge $-1 $625 $683 $627 $665 reversed $619 $-1 #
vertex $-1 $684 $685 #
straight-curve $-1 0 -32.710929839673497 4.9265348912888172 -1 0 0 I I #
edge $-1 $629 -4.9265348912888172 $686 14.162623692814842 $627 $650 forward 7 unknown #
point $-1 67.803582873012488 -15.005571235039497 4.9265348912888172 #
point $-1 67.803582873012488 -32.710929839673497 4.9265348912888172 #
point $-1 -67.803582873012488 -15.005571235039497 12.067968840899784 #
coedge $-1 $638 $637 $687 $688 reversed $595 $-1 #
coedge $-1 $643 $640 $661 $684 reversed $381 $-1 #
coedge $-1 $687 $689 $640 $672 forward $655 $-1 #
edge $-1 $690 -32.710929839673497 $673 32.710929839673497 $640 $691 forward 7 unknown #
vertex $-1 $688 $692 #
straight-curve $-1 -67.803582873012488 32.710929839673497 0 0 0 -1 I I #
straight-curve $-1 -67.803582873012488 -15.005571235039497 4.2486259330471503 0 0 1 I I #
coedge $-1 $689 $687 $647 $677 forward $655 $-1 #
edge $-1 $678 -32.710929839673497 $686 32.710929839673497 $647 $693 forward 7 unknown #
vertex $-1 $677 $694 #
straight-curve $-1 67.803582873012488 32.710929839673497 0 0 0 -1 I I #
straight-curve $-1 0 -32.710929839673497 -14.162623692814842 -1 0 0 I I #
straight-curve $-1 -67.803582873012488 -11.929125268678249 4.9265348912888172 0 1 0 I I #
point $-1 -67.803582873012488 -15.005571235039497 4.9265348912888172 #
coedge $-1 $662 $661 $689 $695 reversed $619 $-1 #
edge $-1 $663 -4.9265348912888172 $690 14.162623692814842 $670 $594 forward 7 unknown #
point $-1 -67.803582873012488 -32.710929839673497 4.9265348912888172 #
vertex $-1 $665 $696 #
coedge $-1 $676 $671 $669 $688 forward $655 $-1 #
edge $-1 $673 -67.803582873012488 $678 67.803582873012488 $669 $697 forward 7 unknown #
coedge $-1 $671 $676 $683 $695 forward $655 $-1 #
vertex $-1 $672 $698 #
straight-curve $-1 -67.803582873012488 0 -14.162623692814842 0 1 0 I I #
point $-1 -67.803582873012488 32.710929839673497 -14.162623692814842 #
straight-curve $-1 67.803582873012488 0 -14.162623692814842 0 -1 0 I I #
point $-1 67.803582873012488 32.710929839673497 -14.162623692814842 #
edge $-1 $686 -67.803582873012488 $690 67.803582873012488 $683 $699 forward 7 unknown #
point $-1 67.803582873012488 -32.710929839673497 -14.162623692814842 #
straight-curve $-1 0 32.710929839673497 -14.162623692814842 1 0 0 I I #
point $-1 -67.803582873012488 -32.710929839673497 -14.162623692814842 #
straight-curve $-1 0 -32.710929839673497 -14.162623692814842 -1 0 0 I I #
End-of-ACIS-data 