600 0 10 0           
108 GICL ACIS Healer - Source: /gicl/data5/repository/Drexel/CICIRELLO-THESISDATA/Part10011.smdg.delta.sat - 6 0 18 ACIS 6.0.3 Solaris 24 Fri Apr 12 10:24:40 2002 
1 9.999999999999999547e-07 1.000000000000000036e-10 
body $-1 $10 $-1 $-1 #
body $-1 $11 $-1 $-1 #
body $-1 $12 $-1 $-1 #
body $-1 $13 $-1 $-1 #
body $-1 $14 $-1 $-1 #
body $-1 $15 $-1 $-1 #
body $-1 $16 $-1 $-1 #
body $-1 $17 $-1 $-1 #
body $-1 $18 $-1 $-1 #
body $-1 $19 $-1 $-1 #
lump $-1 $-1 $20 $0 #
lump $-1 $-1 $21 $1 #
lump $-1 $-1 $22 $2 #
lump $-1 $-1 $23 $3 #
lump $-1 $-1 $24 $4 #
lump $-1 $-1 $25 $5 #
lump $-1 $-1 $26 $6 #
lump $-1 $-1 $27 $7 #
lump $-1 $-1 $28 $8 #
lump $-1 $-1 $29 $9 #
shell $-1 $-1 $-1 $30 $-1 $10 #
shell $-1 $-1 $-1 $31 $-1 $11 #
shell $-1 $-1 $-1 $32 $-1 $12 #
shell $-1 $-1 $-1 $33 $-1 $13 #
shell $-1 $-1 $-1 $34 $-1 $14 #
shell $-1 $-1 $-1 $35 $-1 $15 #
shell $-1 $-1 $-1 $36 $-1 $16 #
shell $-1 $-1 $-1 $37 $-1 $17 #
shell $-1 $-1 $-1 $38 $-1 $18 #
shell $-1 $-1 $-1 $39 $-1 $19 #
face $-1 $40 $41 $20 $-1 $42 forward single #
face $-1 $43 $44 $21 $-1 $45 forward single #
face $-1 $46 $47 $22 $-1 $48 forward single #
face $-1 $49 $50 $23 $-1 $51 reversed single #
face $-1 $52 $53 $24 $-1 $54 forward single #
face $-1 $55 $56 $25 $-1 $57 forward single #
face $-1 $58 $59 $26 $-1 $60 reversed single #
face $-1 $61 $62 $27 $-1 $63 forward single #
face $-1 $64 $65 $28 $-1 $66 forward single #
face $-1 $67 $68 $29 $-1 $69 forward single #
face $-1 $70 $71 $20 $-1 $72 reversed single #
loop $-1 $-1 $73 $30 #
plane-surface $-1 52.82753990295113766 25.4375720874282969 15.10495094514328152 0 0 1 1 0 0 forward_v I I I I #
face $-1 $74 $75 $21 $-1 $76 reversed single #
loop $-1 $-1 $77 $31 #
plane-surface $-1 52.82753990295113766 3.448870066421378056 3.272639492320190691 0 0 1 1 0 0 forward_v I I I I #
face $-1 $78 $79 $22 $-1 $80 reversed single #
loop $-1 $-1 $81 $32 #
plane-surface $-1 52.82753990295113766 47.42627410843521574 3.272639492320190691 0 0 1 1 0 0 forward_v I I I I #
face $-1 $82 $83 $23 $-1 $84 reversed single #
loop $-1 $-1 $85 $33 #
plane-surface $-1 -77.27123458411315937 17.52311974131504257 81.88717905170430811 0 -1 0 0.7313537098837770145 0 -0.6819983511997929071 forward_v I I I I #
face $-1 $86 $87 $24 $-1 $88 forward single #
loop $-1 $89 $90 $34 #
cone-surface $-1 3.214659023261532411 9.933562878120550721 11.76330328326142904 0.7313537098837770145 0 -0.6819983511997929071 0.6819983511997929071 0 0.7313537098837770145 1 I I 0 1 1 forward I I I I #
face $-1 $91 $92 $25 $-1 $93 forward single #
loop $-1 $94 $95 $35 #
cone-surface $-1 3.214659023261532411 14.48729699603724619 11.76330328326142904 0.7313537098837770145 0 -0.6819983511997929071 0.6819983511997929071 0 0.7313537098837770145 1 I I 0 1 1 forward I I I I #
face $-1 $96 $97 $26 $-1 $98 reversed single #
loop $-1 $-1 $99 $36 #
plane-surface $-1 141.8027726663706005 16.00752170383482209 154.5640307350214186 0 -1 0 -0.8571673085369920786 0 -0.5150380618706241753 forward_v I I I I #
face $-1 $100 $101 $27 $-1 $102 forward single #
loop $-1 $103 $104 $37 #
cone-surface $-1 103.4656884759800022 10.9205445694669141 12.02544082195370834 -0.8571673085369921896 0 -0.5150380618706242863 0.2575190309353120877 0 -0.4285836542684960393 1 I I 0 1 0.5 forward I I I I #
face $-1 $105 $106 $28 $-1 $107 forward single #
loop $-1 $108 $109 $38 #
cone-surface $-1 103.4656884759800022 12.82816099485487982 12.02544082195370834 -0.8571673085369921896 0 -0.5150380618706242863 0.2575190309353120877 0 -0.4285836542684960393 1 I I 0 1 0.5 forward I I I I #
face $-1 $110 $111 $29 $-1 $112 forward single #
loop $-1 $113 $114 $39 #
cone-surface $-1 103.4656884759800022 14.73577742024284554 12.02544082195370834 -0.8571673085369921896 0 -0.5150380618706242863 0.2575190309353120877 0 -0.4285836542684960393 1 I I 0 1 0.5 forward I I I I #
face $-1 $115 $116 $20 $-1 $117 reversed single #
loop $-1 $-1 $118 $40 #
plane-surface $-1 52.82753990295113766 25.4375720874282969 0 0 0 1 1 0 0 forward_v I I I I #
coedge $-1 $119 $120 $121 $122 forward $41 $-1 #
face $-1 $123 $124 $21 $-1 $125 reversed single #
loop $-1 $-1 $126 $43 #
plane-surface $-1 52.82753990295113766 6.897740132842756111 1.636319746160094901 0 -1 0 0 0 -1 forward_v I I I I #
coedge $-1 $127 $128 $129 $130 reversed $44 $-1 #
face $-1 $131 $132 $22 $-1 $133 reversed single #
loop $-1 $-1 $134 $46 #
plane-surface $-1 52.82753990295113766 43.97740404201383768 1.636319746160094901 0 1 0 0 0 1 forward_v I I I I #
coedge $-1 $135 $136 $137 $138 reversed $47 $-1 #
face $-1 $139 $140 $23 $-1 $141 reversed single #
loop $-1 $-1 $142 $49 #
plane-surface $-1 -7.105427357601001859e-15 12.21042993707889934 9.830588828196422213 -0.7313537098837770145 0 0.6819983511997929071 0.6819983511997929071 0 0.7313537098837770145 forward_v I I I I #
coedge $-1 $143 $144 $145 $146 reversed $50 $-1 #
face $-1 $-1 $147 $24 $-1 $148 forward single #
loop $-1 $149 $150 $52 #
cone-surface $-1 4.335783839310060728 9.933562878120550721 10.71783750425310977 0.7313537098837770145 0 -0.6819983511997929071 0.3409991755998964535 0 0.3656768549418885073 1 I I -0.7071067811865474617 0.7071067811865474617 0.5 forward I I I I #
loop $-1 $-1 $151 $34 #
coedge $-1 $90 $90 $152 $153 reversed $53 $-1 #
face $-1 $-1 $154 $25 $-1 $155 forward single #
loop $-1 $156 $157 $55 #
cone-surface $-1 4.335783839310060728 14.48729699603724619 10.71783750425310977 0.7313537098837770145 0 -0.6819983511997929071 0.3409991755998964535 0 0.3656768549418885073 1 I I -0.7071067811865474617 0.7071067811865474617 0.5 forward I I I I #
loop $-1 $-1 $158 $35 #
coedge $-1 $95 $95 $159 $160 reversed $56 $-1 #
face $-1 $161 $162 $26 $-1 $163 reversed single #
loop $-1 $-1 $164 $58 #
plane-surface $-1 51.23869227588425446 12.82816099485487982 100.1476432050033907 0.8571673085369921896 0 0.5150380618706242863 0.5150380618706241753 0 -0.8571673085369920786 forward_v I I I I #
coedge $-1 $165 $166 $167 $168 reversed $59 $-1 #
face $-1 $-1 $169 $27 $-1 $170 forward single #
loop $-1 $171 $172 $61 #
cone-surface $-1 102.7207976067948181 10.9205445694669141 11.57786524860961208 -0.8571673085369921896 0 -0.5150380618706242863 0.1287595154676560438 0 -0.2142918271342480196 1 I I -0.7071067811865474617 0.7071067811865474617 0.25 forward I I I I #
loop $-1 $-1 $173 $37 #
coedge $-1 $104 $104 $174 $175 reversed $62 $-1 #
face $-1 $-1 $176 $28 $-1 $177 forward single #
loop $-1 $178 $179 $64 #
cone-surface $-1 102.7207976067948181 12.82816099485487982 11.57786524860961208 -0.8571673085369921896 0 -0.5150380618706242863 0.1287595154676560438 0 -0.2142918271342480196 1 I I -0.7071067811865474617 0.7071067811865474617 0.25 forward I I I I #
loop $-1 $-1 $180 $38 #
coedge $-1 $109 $109 $181 $182 reversed $65 $-1 #
face $-1 $-1 $183 $29 $-1 $184 forward single #
loop $-1 $185 $186 $67 #
cone-surface $-1 102.7207976067948181 14.73577742024284554 11.57786524860961208 -0.8571673085369921896 0 -0.5150380618706242863 0.1287595154676560438 0 -0.2142918271342480196 1 I I -0.7071067811865474617 0.7071067811865474617 0.25 forward I I I I #
loop $-1 $-1 $187 $39 #
coedge $-1 $114 $114 $188 $189 reversed $68 $-1 #
face $-1 $190 $191 $20 $-1 $192 reversed single #
loop $-1 $-1 $193 $70 #
plane-surface $-1 52.82753990295113766 0 7.552475472571640758 0 1 0 0 0 1 forward_v I I I I #
coedge $-1 $194 $195 $196 $197 forward $71 $-1 #
coedge $-1 $198 $73 $199 $200 forward $41 $-1 #
coedge $-1 $73 $198 $201 $202 forward $41 $-1 #
coedge $-1 $203 $204 $73 $122 reversed $205 $-1 #
edge $-1 $206 -25.4375720874282969 $207 25.4375720874282969 $121 $208 forward 7 unknown #
face $-1 $209 $210 $21 $-1 $211 reversed single #
loop $-1 $-1 $212 $74 #
plane-surface $-1 52.82753990295113766 25.4375720874282969 0 0 0 1 1 0 0 forward_v I I I I #
coedge $-1 $213 $214 $215 $216 reversed $75 $-1 #
coedge $-1 $217 $77 $214 $218 forward $44 $-1 #
coedge $-1 $77 $217 $219 $220 reversed $44 $-1 #
coedge $-1 $221 $215 $77 $130 forward $210 $-1 #
edge $-1 $222 7.545480944082081365 $223 14.44322107692483748 $129 $224 forward 7 unknown #
face $-1 $225 $226 $22 $-1 $227 reversed single #
loop $-1 $-1 $137 $78 #
plane-surface $-1 105.6550798059022753 25.4375720874282969 7.552475472571640758 -1 0 0 0 0 1 forward_v I I I I #
coedge $-1 $228 $229 $230 $231 reversed $79 $-1 #
coedge $-1 $232 $81 $233 $234 reversed $47 $-1 #
coedge $-1 $81 $232 $229 $235 forward $47 $-1 #
coedge $-1 $236 $237 $81 $138 forward $132 $-1 #
edge $-1 $238 -14.4432210769248357 $239 -7.545480944082079588 $137 $240 forward 7 unknown #
face $-1 $241 $242 $23 $-1 $243 reversed single #
loop $-1 $-1 $244 $82 #
plane-surface $-1 -77.27123458411315937 6.897740132842756111 81.88717905170430811 0 1 0 -0.7313537098837770145 0 0.6819983511997929071 forward_v I I I I #
coedge $-1 $245 $246 $247 $248 reversed $83 $-1 #
coedge $-1 $144 $85 $249 $250 reversed $50 $-1 #
coedge $-1 $85 $143 $245 $251 reversed $50 $-1 #
coedge $-1 $247 $252 $85 $146 forward $242 $-1 #
edge $-1 $253 29.61487631699469603 $254 34.88923843394154289 $145 $255 forward 7 unknown #
loop $-1 $-1 $152 $86 #
plane-surface $-1 -7.105427357601001859e-15 12.21042993707889934 9.830588828196422213 -0.7313537098837770145 0 0.6819983511997929071 0.6819983511997929071 0 0.7313537098837770145 forward_v I I I I #
loop $-1 $-1 $256 $52 #
coedge $-1 $150 $150 $151 $257 reversed $87 $-1 #
coedge $-1 $151 $151 $150 $257 forward $89 $-1 #
coedge $-1 $152 $152 $90 $153 forward $147 $-1 #
edge $-1 $258 0 $258 6.283185307179586232 $152 $259 forward 7 unknown #
loop $-1 $-1 $159 $91 #
plane-surface $-1 -7.105427357601001859e-15 12.21042993707889934 9.830588828196422213 -0.7313537098837770145 0 0.6819983511997929071 0.6819983511997929071 0 0.7313537098837770145 forward_v I I I I #
loop $-1 $-1 $260 $55 #
coedge $-1 $157 $157 $158 $261 reversed $92 $-1 #
coedge $-1 $158 $158 $157 $261 forward $94 $-1 #
coedge $-1 $159 $159 $95 $160 forward $154 $-1 #
edge $-1 $262 0 $262 6.283185307179586232 $159 $263 forward 7 unknown #
face $-1 $264 $265 $26 $-1 $266 forward single #
loop $-1 $-1 $267 $96 #
plane-surface $-1 141.8027726663706005 9.648800285874937543 154.5640307350214186 0 1 0 0.8571673085369920786 0 0.5150380618706241753 forward_v I I I I #
coedge $-1 $268 $269 $270 $271 reversed $97 $-1 #
coedge $-1 $166 $99 $272 $273 reversed $59 $-1 #
coedge $-1 $99 $165 $268 $274 reversed $59 $-1 #
coedge $-1 $270 $275 $99 $168 forward $265 $-1 #
edge $-1 $276 -8.339923521241402682 $277 -5.022338945498717067 $167 $278 forward 7 unknown #
loop $-1 $-1 $174 $100 #
plane-surface $-1 51.23869227588425446 12.82816099485487982 100.1476432050033907 0.8571673085369921896 0 0.5150380618706242863 0.5150380618706241753 0 -0.8571673085369920786 forward_v I I I I #
loop $-1 $-1 $279 $61 #
coedge $-1 $172 $172 $173 $280 reversed $101 $-1 #
coedge $-1 $173 $173 $172 $280 forward $103 $-1 #
coedge $-1 $174 $174 $104 $175 forward $169 $-1 #
edge $-1 $281 0 $281 6.283185307179586232 $174 $282 forward 7 unknown #
loop $-1 $-1 $181 $105 #
plane-surface $-1 51.23869227588425446 12.82816099485487982 100.1476432050033907 0.8571673085369921896 0 0.5150380618706242863 0.5150380618706241753 0 -0.8571673085369920786 forward_v I I I I #
loop $-1 $-1 $283 $64 #
coedge $-1 $179 $179 $180 $284 reversed $106 $-1 #
coedge $-1 $180 $180 $179 $284 forward $108 $-1 #
coedge $-1 $181 $181 $109 $182 forward $176 $-1 #
edge $-1 $285 0 $285 6.283185307179586232 $181 $286 forward 7 unknown #
loop $-1 $-1 $188 $110 #
plane-surface $-1 51.23869227588425446 12.82816099485487982 100.1476432050033907 0.8571673085369921896 0 0.5150380618706242863 0.5150380618706241753 0 -0.8571673085369920786 forward_v I I I I #
loop $-1 $-1 $287 $67 #
coedge $-1 $186 $186 $187 $288 reversed $111 $-1 #
coedge $-1 $187 $187 $186 $288 forward $113 $-1 #
coedge $-1 $188 $188 $114 $189 forward $183 $-1 #
edge $-1 $289 0 $289 6.283185307179586232 $188 $290 forward 7 unknown #
face $-1 $291 $292 $20 $-1 $293 reversed single #
loop $-1 $-1 $294 $115 #
plane-surface $-1 0 25.4375720874282969 7.552475472571640758 1 0 0 0 0 -1 forward_v I I I I #
coedge $-1 $295 $201 $296 $297 forward $116 $-1 #
coedge $-1 $298 $118 $295 $299 forward $71 $-1 #
coedge $-1 $118 $298 $300 $301 forward $71 $-1 #
coedge $-1 $204 $203 $118 $197 reversed $205 $-1 #
edge $-1 $302 -25.4375720874282969 $303 25.4375720874282969 $196 $304 forward 7 unknown #
coedge $-1 $120 $119 $305 $306 forward $41 $-1 #
coedge $-1 $307 $308 $119 $200 reversed $292 $-1 #
edge $-1 $207 -52.82753990295113766 $309 52.82753990295113766 $199 $310 forward 7 unknown #
coedge $-1 $193 $311 $120 $202 reversed $116 $-1 #
edge $-1 $312 -52.82753990295113766 $206 52.82753990295113766 $201 $313 forward 7 unknown #
coedge $-1 $196 $121 $311 $314 forward $205 $-1 #
coedge $-1 $121 $196 $307 $315 reversed $205 $-1 #
loop $-1 $-1 $203 $291 #
vertex $-1 $122 $316 #
vertex $-1 $122 $317 #
straight-curve $-1 105.6550798059022753 25.4375720874282969 15.10495094514328152 0 1 0 I I #
face $-1 $318 $319 $21 $-1 $320 reversed single #
loop $-1 $-1 $215 $123 #
plane-surface $-1 105.6550798059022753 25.4375720874282969 7.552475472571640758 -1 0 0 0 0 1 forward_v I I I I #
coedge $-1 $321 $322 $213 $323 forward $124 $-1 #
coedge $-1 $324 $126 $212 $323 reversed $75 $-1 #
coedge $-1 $126 $324 $127 $218 reversed $75 $-1 #
coedge $-1 $129 $325 $126 $216 forward $210 $-1 #
edge $-1 $326 -4.594397609365868718 $222 -1.321758117045677139 $215 $327 forward 7 unknown #
coedge $-1 $128 $127 $328 $329 reversed $44 $-1 #
edge $-1 $222 -52.82753990295113766 $330 52.82753990295113766 $214 $331 forward 7 unknown #
coedge $-1 $332 $333 $128 $220 forward $319 $-1 #
edge $-1 $223 -52.82753990295113766 $334 52.82753990295113766 $219 $335 forward 7 unknown #
coedge $-1 $325 $129 $333 $336 forward $210 $-1 #
vertex $-1 $130 $337 #
vertex $-1 $336 $338 #
straight-curve $-1 105.6550798059022753 14.44322107692483748 3.272639492320190691 0 -1 0 I I #
face $-1 $339 $340 $22 $-1 $341 reversed single #
loop $-1 $-1 $342 $131 #
plane-surface $-1 52.82753990295113766 25.4375720874282969 0 0 0 1 1 0 0 forward_v I I I I #
coedge $-1 $343 $134 $342 $344 reversed $79 $-1 #
coedge $-1 $134 $343 $136 $235 reversed $79 $-1 #
coedge $-1 $345 $346 $134 $231 forward $340 $-1 #
edge $-1 $347 -4.594397609365868718 $348 -1.321758117045677139 $230 $349 forward 7 unknown #
coedge $-1 $136 $135 $345 $350 reversed $47 $-1 #
coedge $-1 $351 $352 $135 $234 forward $353 $-1 #
edge $-1 $354 -52.82753990295113766 $238 52.82753990295113766 $233 $355 forward 7 unknown #
edge $-1 $348 -52.82753990295113766 $239 52.82753990295113766 $229 $356 forward 7 unknown #
coedge $-1 $357 $137 $343 $358 forward $132 $-1 #
coedge $-1 $137 $357 $351 $359 reversed $132 $-1 #
vertex $-1 $359 $360 #
vertex $-1 $138 $361 #
straight-curve $-1 105.6550798059022753 36.43192309793175809 3.272639492320190691 0 -1 0 I I #
face $-1 $-1 $362 $23 $-1 $363 forward single #
loop $-1 $-1 $145 $139 #
plane-surface $-1 0 25.4375720874282969 7.552475472571640758 1 0 0 0 0 -1 forward_v I I I I #
coedge $-1 $364 $365 $366 $367 reversed $140 $-1 #
coedge $-1 $368 $142 $144 $251 forward $83 $-1 #
coedge $-1 $142 $368 $364 $369 forward $83 $-1 #
coedge $-1 $366 $145 $142 $248 forward $242 $-1 #
edge $-1 $254 1.300881270938553769 $370 11.92626087941084023 $247 $371 forward 7 unknown #
coedge $-1 $372 $373 $143 $250 forward $362 $-1 #
edge $-1 $374 -17.14026946489079251 $253 -12.22184734058101441 $249 $375 forward 7 unknown #
edge $-1 $254 1.134161556531775386e-14 $374 7.211780080783393387 $144 $376 forward 7 unknown #
coedge $-1 $145 $366 $372 $377 reversed $242 $-1 #
vertex $-1 $377 $378 #
vertex $-1 $146 $379 #
straight-curve $-1 0 17.52311974131504257 44.71982726213797577 0 0 -1 I I #
coedge $-1 $256 $256 $-1 $380 reversed $149 $-1 #
edge $-1 $381 0 $381 6.283185307179586232 $150 $382 forward 7 unknown #
vertex $-1 $153 $383 #
ellipse-curve $-1 2.459211062154885497 9.933562878120550721 12.46776988666985631 -0.7313537098837770145 0 0.6819983511997929071 0.6819983511997929071 0 0.7313537098837770145 1 I I #
coedge $-1 $260 $260 $-1 $384 reversed $156 $-1 #
edge $-1 $385 0 $385 6.283185307179586232 $157 $386 forward 7 unknown #
vertex $-1 $160 $387 #
ellipse-curve $-1 2.459211062154885497 14.48729699603724619 12.46776988666985631 -0.7313537098837770145 0 0.6819983511997929071 0.6819983511997929071 0 0.7313537098837770145 1 I I #
face $-1 $-1 $388 $26 $-1 $389 reversed single #
loop $-1 $-1 $167 $161 #
plane-surface $-1 52.82753990295113766 25.4375720874282969 15.10495094514328152 0 0 1 1 0 0 forward_v I I I I #
coedge $-1 $390 $391 $392 $393 reversed $162 $-1 #
coedge $-1 $394 $164 $166 $274 forward $97 $-1 #
coedge $-1 $164 $394 $390 $395 forward $97 $-1 #
coedge $-1 $392 $167 $164 $271 forward $265 $-1 #
edge $-1 $277 3.125344837306766266 $396 9.484066255266650813 $270 $397 forward 7 unknown #
coedge $-1 $398 $399 $165 $273 forward $388 $-1 #
edge $-1 $400 -71.47469028927947932 $276 -65.95330215865324419 $272 $401 forward 7 unknown #
edge $-1 $277 99.21364407260288942 $400 105.6550798059022753 $166 $402 forward 7 unknown #
coedge $-1 $167 $392 $398 $403 forward $265 $-1 #
vertex $-1 $168 $404 #
vertex $-1 $168 $405 #
straight-curve $-1 97.31515628466087264 16.00752170383482209 15.10495094514328329 -1 0 0 I I #
coedge $-1 $279 $279 $-1 $406 reversed $171 $-1 #
edge $-1 $407 0 $407 6.283185307179586232 $172 $408 forward 7 unknown #
vertex $-1 $175 $409 #
ellipse-curve $-1 103.9962875180309396 10.9205445694669141 12.34425687983015152 0.8571673085369921896 0 0.5150380618706242863 0.2575190309353120877 0 -0.4285836542684960393 1 I I #
coedge $-1 $283 $283 $-1 $410 reversed $178 $-1 #
edge $-1 $411 0 $411 6.283185307179586232 $179 $412 forward 7 unknown #
vertex $-1 $182 $413 #
ellipse-curve $-1 103.9962875180309396 12.82816099485487982 12.34425687983015152 0.8571673085369921896 0 0.5150380618706242863 0.2575190309353120877 0 -0.4285836542684960393 1 I I #
coedge $-1 $287 $287 $-1 $414 reversed $185 $-1 #
edge $-1 $415 0 $415 6.283185307179586232 $186 $416 forward 7 unknown #
vertex $-1 $189 $417 #
ellipse-curve $-1 103.9962875180309396 14.73577742024284554 12.34425687983015152 0.8571673085369921896 0 0.5150380618706242863 0.2575190309353120877 0 -0.4285836542684960393 1 I I #
face $-1 $-1 $205 $20 $-1 $418 reversed single #
loop $-1 $-1 $307 $190 #
plane-surface $-1 52.82753990295113766 50.87514417485659379 7.552475472571640758 0 -1 0 0 0 -1 forward_v I I I I #
coedge $-1 $419 $305 $308 $420 forward $191 $-1 #
coedge $-1 $311 $193 $194 $299 reversed $116 $-1 #
coedge $-1 $305 $419 $193 $297 reversed $191 $-1 #
edge $-1 $312 -7.552475472571640758 $421 7.552475472571640758 $296 $422 forward 7 unknown #
coedge $-1 $195 $194 $419 $423 forward $71 $-1 #
edge $-1 $303 -52.82753990295113766 $421 52.82753990295113766 $295 $424 forward 7 unknown #
coedge $-1 $308 $307 $195 $301 reversed $292 $-1 #
edge $-1 $425 -52.82753990295113766 $302 52.82753990295113766 $300 $426 forward 7 unknown #
vertex $-1 $197 $427 #
vertex $-1 $314 $428 #
straight-curve $-1 105.6550798059022753 25.4375720874282969 0 0 -1 0 I I #
coedge $-1 $294 $296 $198 $306 reversed $191 $-1 #
edge $-1 $309 -25.4375720874282969 $312 25.4375720874282969 $305 $429 forward 7 unknown #
coedge $-1 $300 $199 $204 $315 forward $292 $-1 #
coedge $-1 $199 $300 $294 $420 reversed $292 $-1 #
vertex $-1 $200 $430 #
straight-curve $-1 52.82753990295113766 50.87514417485659379 15.10495094514328152 -1 0 0 I I #
coedge $-1 $201 $295 $203 $314 reversed $116 $-1 #
vertex $-1 $306 $431 #
straight-curve $-1 52.82753990295113766 0 15.10495094514328152 1 0 0 I I #
edge $-1 $206 -7.552475472571640758 $303 7.552475472571640758 $203 $432 forward 7 unknown #
edge $-1 $207 -7.552475472571640758 $302 7.552475472571640758 $204 $433 forward 7 unknown #
point $-1 105.6550798059022753 0 15.10495094514328152 #
point $-1 105.6550798059022753 50.87514417485659379 15.10495094514328152 #
face $-1 $-1 $434 $21 $-1 $435 reversed single #
loop $-1 $-1 $219 $209 #
plane-surface $-1 52.82753990295113766 0 7.552475472571640758 0 1 0 0 0 1 forward_v I I I I #
coedge $-1 $436 $212 $325 $437 forward $124 $-1 #
coedge $-1 $212 $436 $438 $439 forward $124 $-1 #
edge $-1 $440 -52.82753990295113766 $326 52.82753990295113766 $212 $441 forward 7 unknown #
coedge $-1 $214 $213 $442 $443 reversed $75 $-1 #
coedge $-1 $215 $221 $321 $437 reversed $210 $-1 #
vertex $-1 $437 $444 #
straight-curve $-1 105.6550798059022753 6.897740132842756111 4.594397609365867829 0 0 1 I I #
coedge $-1 $442 $445 $217 $329 forward $434 $-1 #
edge $-1 $334 -14.44322107692483748 $330 -7.545480944082081365 $328 $446 forward 7 unknown #
vertex $-1 $329 $447 #
straight-curve $-1 52.82753990295113766 6.897740132842756111 3.272639492320190691 -1 0 0 I I #
coedge $-1 $448 $219 $445 $449 forward $319 $-1 #
coedge $-1 $219 $448 $221 $336 reversed $319 $-1 #
vertex $-1 $449 $450 #
straight-curve $-1 52.82753990295113766 0 3.272639492320190691 -1 0 0 I I #
edge $-1 $223 4.279835980251450067 $451 7.552475472571640758 $221 $452 forward 7 unknown #
point $-1 105.6550798059022753 6.897740132842756111 3.272639492320190691 #
point $-1 105.6550798059022753 0 3.272639492320190691 #
face $-1 $-1 $353 $22 $-1 $453 reversed single #
loop $-1 $-1 $345 $225 #
plane-surface $-1 0 25.4375720874282969 7.552475472571640758 1 0 0 0 0 -1 forward_v I I I I #
coedge $-1 $454 $455 $228 $344 forward $226 $-1 #
coedge $-1 $229 $228 $236 $358 reversed $79 $-1 #
edge $-1 $456 -52.82753990295113766 $347 52.82753990295113766 $342 $457 forward 7 unknown #
coedge $-1 $458 $230 $232 $350 forward $340 $-1 #
coedge $-1 $230 $458 $454 $459 reversed $340 $-1 #
vertex $-1 $459 $460 #
vertex $-1 $350 $461 #
straight-curve $-1 0 43.97740404201383768 4.594397609365867829 0 0 1 I I #
edge $-1 $348 7.545480944082079588 $354 14.4432210769248357 $345 $462 forward 7 unknown #
coedge $-1 $463 $233 $237 $359 forward $353 $-1 #
coedge $-1 $233 $463 $458 $464 reversed $353 $-1 #
loop $-1 $-1 $233 $339 #
vertex $-1 $464 $465 #
straight-curve $-1 52.82753990295113766 50.87514417485659379 3.272639492320190691 1 0 0 I I #
straight-curve $-1 52.82753990295113766 43.97740404201383768 3.272639492320190691 1 0 0 I I #
coedge $-1 $237 $236 $455 $466 reversed $132 $-1 #
edge $-1 $239 1.321758117045677139 $456 4.594397609365868718 $236 $467 forward 7 unknown #
edge $-1 $238 4.279835980251450067 $468 7.552475472571640758 $237 $469 forward 7 unknown #
point $-1 105.6550798059022753 50.87514417485659379 3.272639492320190691 #
point $-1 105.6550798059022753 43.97740404201383768 3.272639492320190691 #
loop $-1 $-1 $249 $241 #
plane-surface $-1 52.82753990295113766 25.4375720874282969 15.10495094514328152 0 0 1 1 0 0 forward_v I I I I #
coedge $-1 $365 $244 $246 $369 reversed $140 $-1 #
coedge $-1 $244 $364 $470 $471 reversed $140 $-1 #
coedge $-1 $252 $247 $244 $367 forward $242 $-1 #
edge $-1 $370 -34.88923843394154289 $472 -29.61487631699469603 $366 $473 forward 7 unknown #
coedge $-1 $246 $245 $373 $474 reversed $83 $-1 #
edge $-1 $475 -7.211780080783393387 $370 -1.134161556531775386e-14 $364 $476 forward 7 unknown #
vertex $-1 $248 $477 #
straight-curve $-1 0 18.82400101225359634 9.830588828196434648 0 -1 0 I I #
coedge $-1 $470 $249 $252 $377 forward $362 $-1 #
coedge $-1 $249 $470 $368 $474 forward $362 $-1 #
vertex $-1 $250 $478 #
straight-curve $-1 -12.22184734058101441 17.52311974131504257 15.10495094514328329 -1 0 0 I I #
straight-curve $-1 -7.105427357601001859e-15 17.52311974131504257 9.830588828196422213 0.6819983511997929071 0 0.7313537098837770145 I I #
edge $-1 $253 7.914452346113254322 $472 18.53983195458554079 $252 $479 forward 7 unknown #
point $-1 0 17.52311974131504257 15.10495094514328152 #
point $-1 0 17.52311974131504257 9.830588828196431095 #
edge $-1 $480 1 $480 0 $256 $-1 forward 7 unknown #
vertex $-1 $257 $481 #
ellipse-curve $-1 3.97010698436817222 9.933562878120550721 11.05883667985300534 -0.7313537098837770145 0 0.6819983511997929071 0.6819983511997929071 0 0.7313537098837770145 1 I I #
point $-1 3.141209413354687285 9.933562878120550721 13.19912359655362977 #
edge $-1 $482 1 $482 0 $260 $-1 forward 7 unknown #
vertex $-1 $261 $483 #
ellipse-curve $-1 3.97010698436817222 14.48729699603724619 11.05883667985300534 -0.7313537098837770145 0 0.6819983511997929071 0.6819983511997929071 0 0.7313537098837770145 1 I I #
point $-1 3.141209413354687285 14.48729699603724619 13.19912359655362977 #
loop $-1 $-1 $272 $264 #
plane-surface $-1 105.6550798059022753 25.4375720874282969 7.552475472571640758 -1 0 0 0 0 1 forward_v I I I I #
coedge $-1 $391 $267 $269 $395 reversed $162 $-1 #
coedge $-1 $267 $390 $484 $485 reversed $162 $-1 #
coedge $-1 $275 $270 $267 $393 forward $265 $-1 #
edge $-1 $396 5.022338945498717067 $486 8.339923521241402682 $392 $487 forward 7 unknown #
coedge $-1 $269 $268 $399 $488 reversed $97 $-1 #
edge $-1 $489 -105.6550798059022753 $396 -99.21364407260288942 $390 $490 forward 7 unknown #
vertex $-1 $271 $491 #
straight-curve $-1 102.3374952301595897 19.13286654114158836 15.10495094514328329 0 -1 0 I I #
coedge $-1 $484 $272 $275 $403 reversed $388 $-1 #
coedge $-1 $272 $484 $394 $488 forward $388 $-1 #
vertex $-1 $273 $492 #
straight-curve $-1 105.6550798059022753 16.00752170383482209 81.05825310379653104 0 0 1 I I #
straight-curve $-1 51.23869227588425446 16.00752170383482209 100.1476432050033907 0.5150380618706241753 0 -0.8571673085369920786 I I #
edge $-1 $486 -15.78877180155335935 $276 -9.430050383593474805 $398 $493 forward 7 unknown #
point $-1 105.6550798059022753 16.00752170383482209 15.10495094514328152 #
point $-1 102.3374952301595897 16.00752170383482209 15.10495094514328329 #
edge $-1 $494 1 $494 0 $279 $-1 forward 7 unknown #
vertex $-1 $280 $495 #
ellipse-curve $-1 102.9350894339290647 10.9205445694669141 11.70662476407726871 0.8571673085369921896 0 0.5150380618706242863 0.2575190309353120877 0 -0.4285836542684960393 1 I I #
point $-1 104.2538065489662529 10.9205445694669141 11.91567322556165465 #
edge $-1 $496 1 $496 0 $283 $-1 forward 7 unknown #
vertex $-1 $284 $497 #
ellipse-curve $-1 102.9350894339290647 12.82816099485487982 11.70662476407726871 0.8571673085369921896 0 0.5150380618706242863 0.2575190309353120877 0 -0.4285836542684960393 1 I I #
point $-1 104.2538065489662529 12.82816099485487982 11.91567322556165465 #
edge $-1 $498 1 $498 0 $287 $-1 forward 7 unknown #
vertex $-1 $288 $499 #
ellipse-curve $-1 102.9350894339290647 14.73577742024284554 11.70662476407726871 0.8571673085369921896 0 0.5150380618706242863 0.2575190309353120877 0 -0.4285836542684960393 1 I I #
point $-1 104.2538065489662529 14.73577742024284554 11.91567322556165465 #
plane-surface $-1 105.6550798059022753 25.4375720874282969 7.552475472571640758 -1 0 0 0 0 1 forward_v I I I I #
coedge $-1 $296 $294 $298 $423 reversed $191 $-1 #
edge $-1 $309 -7.552475472571640758 $425 7.552475472571640758 $308 $500 forward 7 unknown #
vertex $-1 $423 $501 #
straight-curve $-1 0 0 7.552475472571640758 0 0 -1 I I #
edge $-1 $421 -25.4375720874282969 $425 25.4375720874282969 $419 $502 forward 7 unknown #
straight-curve $-1 52.82753990295113766 0 0 -1 0 0 I I #
vertex $-1 $301 $503 #
straight-curve $-1 52.82753990295113766 50.87514417485659379 0 1 0 0 I I #
point $-1 105.6550798059022753 50.87514417485659379 0 #
point $-1 105.6550798059022753 0 0 #
straight-curve $-1 0 25.4375720874282969 15.10495094514328152 0 -1 0 I I #
point $-1 0 50.87514417485659379 15.10495094514328152 #
point $-1 0 0 15.10495094514328152 #
straight-curve $-1 105.6550798059022753 0 7.552475472571640758 0 0 -1 I I #
straight-curve $-1 105.6550798059022753 50.87514417485659379 7.552475472571640758 0 0 -1 I I #
loop $-1 $-1 $442 $318 #
plane-surface $-1 0 25.4375720874282969 7.552475472571640758 1 0 0 0 0 -1 forward_v I I I I #
coedge $-1 $322 $321 $448 $504 forward $124 $-1 #
edge $-1 $326 18.53983195458554079 $451 25.4375720874282969 $325 $505 forward 7 unknown #
coedge $-1 $445 $442 $322 $439 reversed $434 $-1 #
edge $-1 $506 -25.4375720874282969 $440 -18.53983195458554079 $438 $507 forward 7 unknown #
vertex $-1 $443 $508 #
straight-curve $-1 52.82753990295113766 6.897740132842756111 0 1 0 0 I I #
coedge $-1 $438 $328 $324 $443 forward $434 $-1 #
edge $-1 $330 1.321758117045677139 $440 4.594397609365868718 $442 $509 forward 7 unknown #
point $-1 105.6550798059022753 6.897740132842756111 -8.881784197001252323e-16 #
coedge $-1 $328 $438 $332 $449 reversed $434 $-1 #
straight-curve $-1 0 14.44322107692483748 3.272639492320190691 0 1 0 I I #
point $-1 0 6.897740132842756111 3.272639492320190691 #
coedge $-1 $333 $332 $436 $504 reversed $319 $-1 #
edge $-1 $334 4.279835980251450067 $506 7.552475472571640758 $445 $510 forward 7 unknown #
point $-1 0 0 3.272639492320190691 #
vertex $-1 $336 $511 #
straight-curve $-1 105.6550798059022753 0 7.552475472571640758 0 0 -1 I I #
plane-surface $-1 52.82753990295113766 50.87514417485659379 7.552475472571640758 0 -1 0 0 0 -1 forward_v I I I I #
coedge $-1 $512 $342 $346 $459 forward $226 $-1 #
coedge $-1 $342 $512 $357 $466 forward $226 $-1 #
vertex $-1 $344 $513 #
straight-curve $-1 52.82753990295113766 43.97740404201383768 0 -1 0 0 I I #
coedge $-1 $346 $345 $352 $464 forward $340 $-1 #
edge $-1 $347 18.53983195458554079 $514 25.4375720874282969 $346 $515 forward 7 unknown #
point $-1 0 43.97740404201383768 -8.881784197001252323e-16 #
point $-1 0 43.97740404201383768 3.272639492320190691 #
straight-curve $-1 0 36.43192309793175809 3.272639492320190691 0 1 0 I I #
coedge $-1 $352 $351 $512 $516 reversed $353 $-1 #
edge $-1 $354 4.279835980251450067 $514 7.552475472571640758 $352 $517 forward 7 unknown #
point $-1 0 50.87514417485659379 3.272639492320190691 #
edge $-1 $468 -25.4375720874282969 $456 -18.53983195458554079 $357 $518 forward 7 unknown #
straight-curve $-1 105.6550798059022753 43.97740404201383768 4.594397609365867829 0 0 -1 I I #
vertex $-1 $466 $519 #
straight-curve $-1 105.6550798059022753 50.87514417485659379 7.552475472571640758 0 0 -1 I I #
coedge $-1 $373 $372 $365 $471 forward $362 $-1 #
edge $-1 $472 12.22184734058101441 $475 17.14026946489079251 $470 $520 forward 7 unknown #
vertex $-1 $471 $521 #
straight-curve $-1 0 6.897740132842756111 44.71982726213797577 0 0 1 I I #
edge $-1 $475 -11.92626087941084023 $374 -1.300881270938553769 $373 $522 forward 7 unknown #
vertex $-1 $474 $523 #
straight-curve $-1 -7.105427357601001859e-15 6.897740132842756111 9.830588828196422213 -0.6819983511997929071 0 -0.7313537098837770145 I I #
point $-1 0 6.897740132842756111 9.830588828196431095 #
point $-1 4.918422124309778098 17.52311974131504257 15.10495094514328152 #
straight-curve $-1 0 25.4375720874282969 15.10495094514328152 0 -1 0 I I #
vertex $-1 $380 $524 #
point $-1 4.652105335567966904 9.933562878120550721 11.79019038973678235 #
vertex $-1 $384 $525 #
point $-1 4.652105335567966904 14.48729699603724619 11.79019038973678235 #
coedge $-1 $399 $398 $391 $485 forward $388 $-1 #
edge $-1 $486 65.95330215865324419 $489 71.47469028927947932 $484 $526 forward 7 unknown #
vertex $-1 $403 $527 #
straight-curve $-1 97.31515628466087264 9.648800285874937543 15.10495094514328329 1 0 0 I I #
edge $-1 $489 -9.484066255266650813 $400 -3.125344837306766266 $399 $528 forward 7 unknown #
vertex $-1 $488 $529 #
straight-curve $-1 51.23869227588425446 9.648800285874937543 100.1476432050033907 -0.5150380618706241753 0 0.8571673085369920786 I I #
point $-1 102.3374952301595897 9.648800285874937543 15.10495094514328329 #
point $-1 105.6550798059022753 16.00752170383482209 9.583562814517048167 #
straight-curve $-1 105.6550798059022753 25.4375720874282969 15.10495094514328152 0 1 0 I I #
vertex $-1 $406 $530 #
point $-1 103.192608464864378 10.9205445694669141 11.27804110980877184 #
vertex $-1 $410 $531 #
point $-1 103.192608464864378 12.82816099485487982 11.27804110980877184 #
vertex $-1 $414 $532 #
point $-1 103.192608464864378 14.73577742024284554 11.27804110980877184 #
straight-curve $-1 0 50.87514417485659379 7.552475472571640758 0 0 -1 I I #
point $-1 0 0 0 #
straight-curve $-1 0 25.4375720874282969 0 0 1 0 I I #
point $-1 0 50.87514417485659379 0 #
edge $-1 $451 -52.82753990295113766 $506 52.82753990295113766 $448 $533 forward 7 unknown #
straight-curve $-1 105.6550798059022753 25.4375720874282969 0 0 -1 0 I I #
vertex $-1 $439 $534 #
straight-curve $-1 0 25.4375720874282969 0 0 1 0 I I #
point $-1 0 6.897740132842756111 -8.881784197001252323e-16 #
straight-curve $-1 0 6.897740132842756111 4.594397609365867829 0 0 -1 I I #
straight-curve $-1 0 0 7.552475472571640758 0 0 -1 I I #
point $-1 105.6550798059022753 0 0 #
coedge $-1 $455 $454 $463 $516 forward $226 $-1 #
point $-1 105.6550798059022753 43.97740404201383768 -8.881784197001252323e-16 #
vertex $-1 $516 $535 #
straight-curve $-1 0 25.4375720874282969 0 0 1 0 I I #
edge $-1 $514 -52.82753990295113766 $468 52.82753990295113766 $463 $536 forward 7 unknown #
straight-curve $-1 0 50.87514417485659379 7.552475472571640758 0 0 -1 I I #
straight-curve $-1 105.6550798059022753 25.4375720874282969 0 0 -1 0 I I #
point $-1 105.6550798059022753 50.87514417485659379 0 #
straight-curve $-1 -12.22184734058101441 6.897740132842756111 15.10495094514328329 1 0 0 I I #
point $-1 0 6.897740132842756111 15.10495094514328152 #
straight-curve $-1 4.918422124309770993 18.82400101225359634 15.10495094514327974 0 1 0 I I #
point $-1 4.918422124309778098 6.897740132842756111 15.10495094514328152 #
point $-1 4.701460694251949235 9.933562878120550721 10.37683832865321421 #
point $-1 4.701460694251949235 14.48729699603724619 10.37683832865321421 #
straight-curve $-1 105.6550798059022753 9.648800285874937543 81.05825310379653104 0 0 -1 I I #
point $-1 105.6550798059022753 9.648800285874937543 15.10495094514328152 #
straight-curve $-1 105.6550798059022753 19.13286654114158836 9.583562814517048167 0 1 0 I I #
point $-1 105.6550798059022753 9.648800285874937543 9.583562814517048167 #
point $-1 102.5065057796605714 10.9205445694669141 11.44910573314195545 #
point $-1 102.5065057796605714 12.82816099485487982 11.44910573314195545 #
point $-1 102.5065057796605714 14.73577742024284554 11.44910573314195545 #
straight-curve $-1 52.82753990295113766 0 0 -1 0 0 I I #
point $-1 0 0 0 #
point $-1 0 50.87514417485659379 0 #
straight-curve $-1 52.82753990295113766 50.87514417485659379 0 1 0 0 I I #
End-of-ACIS-data 