500 0 12 0           
7 Unknown 11 ACIS 5.0 NT 24 Fri Mar 26 03:03:14 1999 
-1 9.9999999999999995e-007 1e-010 
body $-1 $12 $-1 $13 #
body $-1 $14 $-1 $15 #
body $-1 $16 $-1 $17 #
body $-1 $18 $-1 $19 #
body $-1 $20 $-1 $21 #
body $-1 $22 $-1 $23 #
body $-1 $24 $-1 $25 #
body $-1 $26 $-1 $27 #
body $-1 $28 $-1 $29 #
body $-1 $30 $-1 $31 #
body $-1 $32 $-1 $33 #
body $-1 $34 $-1 $35 #
lump $-1 $-1 $36 $0 #
transform $-1 1 0 0 0 1 0 0 0 1 76.768700216681424 31.01673843893558 14.35429324349348 1 rotate no_reflect no_shear #
lump $-1 $-1 $37 $1 #
transform $-1 1 0 0 0 1 0 0 0 1 76.768700216681424 31.01673843893558 14.35429324349348 1 rotate no_reflect no_shear #
lump $-1 $-1 $38 $2 #
transform $-1 1 0 0 0 1 0 0 0 1 76.768700216681424 31.01673843893558 14.35429324349348 1 rotate no_reflect no_shear #
lump $-1 $-1 $39 $3 #
transform $-1 1 0 0 0 1 0 0 0 1 76.768700216681424 31.01673843893558 14.35429324349348 1 rotate no_reflect no_shear #
lump $-1 $-1 $40 $4 #
transform $-1 1 0 0 0 1 0 0 0 1 76.768700216681424 31.01673843893558 14.35429324349348 1 rotate no_reflect no_shear #
lump $-1 $-1 $41 $5 #
transform $-1 1 0 0 0 1 0 0 0 1 76.768700216681424 31.01673843893558 14.35429324349348 1 rotate no_reflect no_shear #
lump $-1 $-1 $42 $6 #
transform $-1 1 0 0 0 1 0 0 0 1 76.768700216681424 31.01673843893558 14.35429324349348 1 rotate no_reflect no_shear #
lump $-1 $-1 $43 $7 #
transform $-1 1 0 0 0 1 0 0 0 1 76.768700216681424 31.01673843893558 14.35429324349348 1 rotate no_reflect no_shear #
lump $-1 $-1 $44 $8 #
transform $-1 1 0 0 0 1 0 0 0 1 76.768700216681424 31.01673843893558 14.35429324349348 1 rotate no_reflect no_shear #
lump $-1 $-1 $45 $9 #
transform $-1 1 0 0 0 1 0 0 0 1 76.768700216681424 31.01673843893558 14.35429324349348 1 rotate no_reflect no_shear #
lump $-1 $-1 $46 $10 #
transform $-1 1 0 0 0 1 0 0 0 1 76.768700216681424 31.01673843893558 14.35429324349348 1 rotate no_reflect no_shear #
lump $-1 $-1 $47 $11 #
transform $-1 1 0 0 0 1 0 0 0 1 76.768700216681424 31.01673843893558 14.35429324349348 1 rotate no_reflect no_shear #
shell $-1 $-1 $-1 $48 $-1 $12 #
shell $-1 $-1 $-1 $49 $-1 $14 #
shell $-1 $-1 $-1 $50 $-1 $16 #
shell $-1 $-1 $-1 $51 $-1 $18 #
shell $-1 $-1 $-1 $52 $-1 $20 #
shell $-1 $-1 $-1 $53 $-1 $22 #
shell $-1 $-1 $-1 $54 $-1 $24 #
shell $-1 $-1 $-1 $55 $-1 $26 #
shell $-1 $-1 $-1 $56 $-1 $28 #
shell $-1 $-1 $-1 $57 $-1 $30 #
shell $-1 $-1 $-1 $58 $-1 $32 #
shell $-1 $-1 $-1 $59 $-1 $34 #
face $-1 $60 $61 $36 $-1 $62 forward single #
face $-1 $63 $64 $37 $-1 $65 forward single #
face $-1 $66 $67 $38 $-1 $68 reversed single #
face $-1 $69 $70 $39 $-1 $71 forward single #
face $-1 $72 $73 $40 $-1 $74 forward single #
face $-1 $75 $76 $41 $-1 $77 reversed single #
face $-1 $78 $79 $42 $-1 $80 forward single #
face $-1 $81 $82 $43 $-1 $83 forward single #
face $-1 $84 $85 $44 $-1 $86 reversed single #
face $-1 $87 $88 $45 $-1 $89 forward single #
face $-1 $90 $91 $46 $-1 $92 forward single #
face $-1 $93 $94 $47 $-1 $95 forward single #
face $-1 $96 $97 $36 $-1 $98 reversed single #
loop $-1 $-1 $99 $48 #
plane-surface $-1 0 0 14.35429324349348 0 0 1 1 0 0 forward_v I I I I #
face $-1 $100 $101 $37 $-1 $102 forward single #
loop $-1 $-1 $103 $49 #
plane-surface $-1 -76.768700216681424 0 0 1 0 0 0 0 -1 forward_v I I I I #
face $-1 $104 $105 $38 $-1 $106 reversed single #
loop $-1 $-1 $107 $50 #
plane-surface $-1 6.7274135204669392 -162.62397872816763 82.582615555484836 -1 0 0 0 -0.85716730853699208 0.51503806187062418 forward_v I I I I #
face $-1 $108 $109 $39 $-1 $110 forward single #
loop $-1 $111 $112 $51 #
cone-surface $-1 -10.382345488955636 -25.541807054620865 7.5984583323570405 0 0.85716730853699208 -0.51503806187062418 2.5 0 0 1 I I 0 1 2.5 forward I I I I #
face $-1 $113 $114 $40 $-1 $115 forward single #
loop $-1 $116 $117 $52 #
cone-surface $-1 -0.11649008330209654 -25.541807054620865 7.5984583323570405 0 0.85716730853699208 -0.51503806187062418 2.5 0 0 1 I I 0 1 2.5 forward I I I I #
face $-1 $118 $119 $41 $-1 $120 reversed single #
loop $-1 $-1 $121 $53 #
plane-surface $-1 -5.2494177861288591 -31.01673843893559 3.5050104116317016 0 -0.85716730853699208 0.51503806187062418 1 0 0 forward_v I I I I #
face $-1 $122 $123 $42 $-1 $124 forward single #
loop $-1 $125 $126 $54 #
cone-surface $-1 13.571317124235961 -25.541807054620865 7.5984583323570405 0 0.85716730853699208 -0.51503806187062418 2.5 0 0 1 I I 0 1 2.5 forward I I I I #
face $-1 $127 $128 $43 $-1 $129 forward single #
loop $-1 $130 $131 $55 #
cone-surface $-1 23.8371725298895 -25.541807054620865 7.5984583323570405 0 0.85716730853699208 -0.51503806187062418 2.5 0 0 1 I I 0 1 2.5 forward I I I I #
face $-1 $132 $133 $44 $-1 $134 reversed single #
loop $-1 $-1 $135 $56 #
plane-surface $-1 54.278621971936687 118.76874375969824 145.89840746560265 1 0 0 0 -0.80901700255871778 -0.5877852410284794 forward_v I I I I #
face $-1 $136 $137 $45 $-1 $138 forward single #
loop $-1 $139 $140 $57 #
cone-surface $-1 58.776637620885623 24.887592778816135 7.8027902712327268 0 -0.80901700255871778 -0.5877852410284794 2 0 0 1 I I 0 1 2 forward I I I I #
face $-1 $141 $142 $46 $-1 $143 forward single #
loop $-1 $144 $145 $58 #
cone-surface $-1 65.523661094309034 24.887592778816135 7.8027902712327268 0 -0.80901700255871778 -0.5877852410284794 2 0 0 1 I I 0 1 2 forward I I I I #
face $-1 $146 $147 $47 $-1 $148 forward single #
loop $-1 $149 $150 $59 #
cone-surface $-1 72.270684567732445 24.887592778816135 7.8027902712327268 0 -0.80901700255871778 -0.5877852410284794 2 0 0 1 I I 0 1 2 forward I I I I #
face $-1 $151 $152 $36 $-1 $153 reversed single #
loop $-1 $-1 $154 $60 #
plane-surface $-1 0 0 -14.35429324349348 0 0 1 1 0 0 forward_v I I I I #
coedge $-1 $155 $156 $157 $158 forward $61 $-1 #
face $-1 $159 $160 $37 $-1 $161 reversed single #
loop $-1 $-1 $162 $63 #
plane-surface $-1 0 0 14.35429324349348 0 0 1 1 0 0 forward_v I I I I #
coedge $-1 $163 $164 $165 $166 forward $64 $-1 #
face $-1 $167 $168 $38 $-1 $169 reversed single #
loop $-1 $-1 $170 $66 #
plane-surface $-1 -5.2494177861288591 -31.01673843893559 3.5050104116317016 0 -0.85716730853699208 0.51503806187062418 1 0 0 forward_v I I I I #
coedge $-1 $171 $172 $173 $174 reversed $67 $-1 #
face $-1 $-1 $175 $39 $-1 $176 forward single #
loop $-1 $177 $178 $69 #
cone-surface $-1 -10.382345488955636 -22.254869821499948 5.6234672598132036 0 0.85716730853699208 -0.51503806187062418 1.25 0 0 1 I I -0.70710678118654746 0.70710678118654746 1.25 forward I I I I #
loop $-1 $-1 $179 $51 #
coedge $-1 $112 $112 $180 $181 reversed $70 $-1 #
face $-1 $-1 $182 $40 $-1 $183 forward single #
loop $-1 $184 $185 $72 #
cone-surface $-1 -0.11649008330209654 -22.254869821499948 5.6234672598132036 0 0.85716730853699208 -0.51503806187062418 1.25 0 0 1 I I -0.70710678118654746 0.70710678118654746 1.25 forward I I I I #
loop $-1 $-1 $186 $52 #
coedge $-1 $117 $117 $187 $188 reversed $73 $-1 #
face $-1 $189 $190 $41 $-1 $191 forward single #
loop $-1 $-1 $192 $75 #
plane-surface $-1 30.681076133658536 -162.62397872816763 82.582615555484836 -1 0 0 0 -0.85716730853699208 0.51503806187062418 forward_v I I I I #
coedge $-1 $193 $194 $195 $196 reversed $76 $-1 #
face $-1 $-1 $197 $42 $-1 $198 forward single #
loop $-1 $199 $200 $78 #
cone-surface $-1 13.571317124235961 -22.254869821499948 5.6234672598132036 0 0.85716730853699208 -0.51503806187062418 1.25 0 0 1 I I -0.70710678118654746 0.70710678118654746 1.25 forward I I I I #
loop $-1 $-1 $201 $54 #
coedge $-1 $126 $126 $202 $203 reversed $79 $-1 #
face $-1 $-1 $204 $43 $-1 $205 forward single #
loop $-1 $206 $207 $81 #
cone-surface $-1 23.8371725298895 -22.254869821499948 5.6234672598132036 0 0.85716730853699208 -0.51503806187062418 1.25 0 0 1 I I -0.70710678118654746 0.70710678118654746 1.25 forward I I I I #
loop $-1 $-1 $208 $55 #
coedge $-1 $131 $131 $209 $210 reversed $82 $-1 #
face $-1 $211 $212 $44 $-1 $213 forward single #
loop $-1 $-1 $214 $84 #
plane-surface $-1 65.523661094309062 -5.4456237195585544 55.651389544992313 0 0.80901700255871778 0.5877852410284794 1 0 0 forward_v I I I I #
coedge $-1 $215 $216 $217 $218 reversed $85 $-1 #
face $-1 $-1 $219 $45 $-1 $220 forward single #
loop $-1 $221 $222 $87 #
cone-surface $-1 58.776637620885623 21.178563261546298 5.1080226682094931 0 -0.80901700255871778 -0.5877852410284794 1 0 0 1 I I -0.70710678118654746 0.70710678118654746 1 forward I I I I #
loop $-1 $-1 $223 $57 #
coedge $-1 $140 $140 $224 $225 reversed $88 $-1 #
face $-1 $-1 $226 $46 $-1 $227 forward single #
loop $-1 $228 $229 $90 #
cone-surface $-1 65.523661094309034 21.178563261546298 5.1080226682094931 0 -0.80901700255871778 -0.5877852410284794 1 0 0 1 I I -0.70710678118654746 0.70710678118654746 1 forward I I I I #
loop $-1 $-1 $230 $58 #
coedge $-1 $145 $145 $231 $232 reversed $91 $-1 #
face $-1 $-1 $233 $47 $-1 $234 forward single #
loop $-1 $235 $236 $93 #
cone-surface $-1 72.270684567732445 21.178563261546298 5.1080226682094931 0 -0.80901700255871778 -0.5877852410284794 1 0 0 1 I I -0.70710678118654746 0.70710678118654746 1 forward I I I I #
loop $-1 $-1 $237 $59 #
coedge $-1 $150 $150 $238 $239 reversed $94 $-1 #
face $-1 $240 $241 $36 $-1 $242 reversed single #
loop $-1 $-1 $243 $96 #
plane-surface $-1 0 -31.01673843893558 0 0 1 0 0 0 1 forward_v I I I I #
coedge $-1 $244 $245 $246 $247 forward $97 $-1 #
coedge $-1 $248 $99 $249 $250 forward $61 $-1 #
coedge $-1 $99 $248 $251 $252 forward $61 $-1 #
coedge $-1 $253 $254 $99 $158 reversed $255 $-1 #
edge $-1 $256 -31.01673843893558 $257 31.01673843893558 $157 $258 forward 7 unknown #
face $-1 $259 $260 $37 $-1 $261 reversed single #
loop $-1 $-1 $262 $100 #
plane-surface $-1 -90.223527257615302 -26.728236174243072 0 1 0 0 0 0 -1 forward_v I I I I #
coedge $-1 $263 $264 $163 $265 forward $101 $-1 #
coedge $-1 $266 $103 $162 $265 reversed $64 $-1 #
coedge $-1 $103 $266 $267 $268 reversed $64 $-1 #
coedge $-1 $269 $270 $103 $166 reversed $260 $-1 #
edge $-1 $271 -14.35429324349348 $272 14.35429324349348 $165 $273 forward 7 unknown #
face $-1 $274 $275 $38 $-1 $276 forward single #
loop $-1 $-1 $277 $104 #
plane-surface $-1 -17.226249092724657 -162.62397872816763 82.582615555484836 1 0 0 0 0.85716730853699208 -0.51503806187062418 forward_v I I I I #
coedge $-1 $278 $279 $280 $281 reversed $105 $-1 #
coedge $-1 $172 $107 $282 $283 reversed $67 $-1 #
coedge $-1 $107 $171 $278 $284 reversed $67 $-1 #
coedge $-1 $280 $285 $107 $174 forward $275 $-1 #
edge $-1 $286 50.295250925148238 $287 56.814157498878316 $173 $288 forward 7 unknown #
loop $-1 $-1 $180 $108 #
plane-surface $-1 -5.2494177861288591 -31.01673843893559 3.5050104116317016 0 -0.85716730853699208 0.51503806187062418 1 0 0 forward_v I I I I #
loop $-1 $-1 $289 $69 #
coedge $-1 $178 $178 $179 $290 reversed $109 $-1 #
coedge $-1 $179 $179 $178 $290 forward $111 $-1 #
coedge $-1 $180 $180 $112 $181 forward $175 $-1 #
edge $-1 $291 7.3191310700426613e-016 $291 6.2831853071796013 $180 $292 forward 7 unknown #
loop $-1 $-1 $187 $113 #
plane-surface $-1 -5.2494177861288591 -31.01673843893559 3.5050104116317016 0 -0.85716730853699208 0.51503806187062418 1 0 0 forward_v I I I I #
loop $-1 $-1 $293 $72 #
coedge $-1 $185 $185 $186 $294 reversed $114 $-1 #
coedge $-1 $186 $186 $185 $294 forward $116 $-1 #
coedge $-1 $187 $187 $117 $188 forward $182 $-1 #
edge $-1 $295 7.3191310700426613e-016 $295 6.2831853071796013 $187 $296 forward 7 unknown #
face $-1 $297 $298 $41 $-1 $299 forward single #
loop $-1 $-1 $300 $118 #
plane-surface $-1 0 0 14.35429324349348 0 0 1 1 0 0 forward_v I I I I #
coedge $-1 $301 $302 $303 $304 reversed $119 $-1 #
coedge $-1 $305 $121 $306 $307 reversed $76 $-1 #
coedge $-1 $121 $305 $308 $309 reversed $76 $-1 #
coedge $-1 $310 $311 $121 $196 forward $298 $-1 #
edge $-1 $312 -12.657135571793177 $313 -2.0715698412831909e-014 $195 $314 forward 7 unknown #
loop $-1 $-1 $202 $122 #
plane-surface $-1 -5.2494177861288591 -31.01673843893559 3.5050104116317016 0 -0.85716730853699208 0.51503806187062418 1 0 0 forward_v I I I I #
loop $-1 $-1 $315 $78 #
coedge $-1 $200 $200 $201 $316 reversed $123 $-1 #
coedge $-1 $201 $201 $200 $316 forward $125 $-1 #
coedge $-1 $202 $202 $126 $203 forward $197 $-1 #
edge $-1 $317 7.3191310700426613e-016 $317 6.2831853071796013 $202 $318 forward 7 unknown #
loop $-1 $-1 $209 $127 #
plane-surface $-1 -5.2494177861288591 -31.01673843893559 3.5050104116317016 0 -0.85716730853699208 0.51503806187062418 1 0 0 forward_v I I I I #
loop $-1 $-1 $319 $81 #
coedge $-1 $207 $207 $208 $320 reversed $128 $-1 #
coedge $-1 $208 $208 $207 $320 forward $130 $-1 #
coedge $-1 $209 $209 $131 $210 forward $204 $-1 #
edge $-1 $321 7.3191310700426613e-016 $321 6.2831853071796013 $209 $322 forward 7 unknown #
face $-1 $323 $324 $44 $-1 $325 reversed single #
loop $-1 $-1 $217 $132 #
plane-surface $-1 0 0 14.35429324349348 0 0 1 1 0 0 forward_v I I I I #
coedge $-1 $326 $327 $328 $329 reversed $133 $-1 #
coedge $-1 $216 $135 $330 $331 reversed $85 $-1 #
coedge $-1 $135 $215 $326 $332 reversed $85 $-1 #
coedge $-1 $328 $333 $135 $218 forward $212 $-1 #
edge $-1 $334 28.36763344091354 $335 34.825899731730232 $217 $336 forward 7 unknown #
loop $-1 $-1 $224 $136 #
plane-surface $-1 65.523661094309062 -5.4456237195585544 55.651389544992313 0 0.80901700255871778 0.5877852410284794 1 0 0 forward_v I I I I #
loop $-1 $-1 $337 $87 #
coedge $-1 $222 $222 $223 $338 reversed $137 $-1 #
coedge $-1 $223 $223 $222 $338 forward $139 $-1 #
coedge $-1 $224 $224 $140 $225 forward $219 $-1 #
edge $-1 $339 4.4886479272123672e-016 $339 6.2831853071796013 $224 $340 forward 7 unknown #
loop $-1 $-1 $231 $141 #
plane-surface $-1 65.523661094309062 -5.4456237195585544 55.651389544992313 0 0.80901700255871778 0.5877852410284794 1 0 0 forward_v I I I I #
loop $-1 $-1 $341 $90 #
coedge $-1 $229 $229 $230 $342 reversed $142 $-1 #
coedge $-1 $230 $230 $229 $342 forward $144 $-1 #
coedge $-1 $231 $231 $145 $232 forward $226 $-1 #
edge $-1 $343 4.4886479272123672e-016 $343 6.2831853071796013 $231 $344 forward 7 unknown #
loop $-1 $-1 $238 $146 #
plane-surface $-1 65.523661094309062 -5.4456237195585544 55.651389544992313 0 0.80901700255871778 0.5877852410284794 1 0 0 forward_v I I I I #
loop $-1 $-1 $345 $93 #
coedge $-1 $236 $236 $237 $346 reversed $147 $-1 #
coedge $-1 $237 $237 $236 $346 forward $149 $-1 #
coedge $-1 $238 $238 $150 $239 forward $233 $-1 #
edge $-1 $347 4.4886479272123672e-016 $347 6.2831853071796013 $238 $348 forward 7 unknown #
face $-1 $349 $350 $36 $-1 $351 reversed single #
loop $-1 $-1 $352 $151 #
plane-surface $-1 -76.768700216681424 0 0 1 0 0 0 0 -1 forward_v I I I I #
coedge $-1 $353 $251 $354 $355 forward $152 $-1 #
coedge $-1 $356 $154 $353 $357 forward $97 $-1 #
coedge $-1 $154 $356 $358 $359 forward $97 $-1 #
coedge $-1 $254 $253 $154 $247 reversed $255 $-1 #
edge $-1 $360 -31.01673843893558 $361 31.01673843893558 $246 $362 forward 7 unknown #
coedge $-1 $156 $155 $363 $364 forward $61 $-1 #
coedge $-1 $365 $366 $155 $250 reversed $350 $-1 #
edge $-1 $257 -76.768700216681424 $367 76.768700216681424 $249 $368 forward 7 unknown #
coedge $-1 $243 $369 $156 $252 reversed $152 $-1 #
edge $-1 $370 -76.768700216681424 $256 76.768700216681424 $251 $371 forward 7 unknown #
coedge $-1 $246 $157 $369 $372 forward $255 $-1 #
coedge $-1 $157 $246 $365 $373 reversed $255 $-1 #
loop $-1 $-1 $253 $349 #
vertex $-1 $158 $374 #
vertex $-1 $158 $375 #
straight-curve $-1 76.768700216681424 0 14.35429324349348 0 1 0 I I #
face $-1 $376 $377 $37 $-1 $378 reversed single #
loop $-1 $-1 $165 $159 #
plane-surface $-1 -83.496113737148363 -22.439733909550565 0 0 -1 0 0 0 -1 forward_v I I I I #
coedge $-1 $379 $380 $381 $382 forward $160 $-1 #
coedge $-1 $383 $162 $270 $384 forward $101 $-1 #
coedge $-1 $162 $383 $385 $386 forward $101 $-1 #
edge $-1 $387 -31.01673843893558 $272 -22.439733909550565 $162 $388 forward 7 unknown #
coedge $-1 $164 $163 $389 $390 reversed $64 $-1 #
coedge $-1 $391 $392 $164 $268 forward $377 $-1 #
edge $-1 $271 22.439733909550565 $393 31.01673843893558 $267 $394 forward 7 unknown #
coedge $-1 $381 $165 $392 $395 reversed $260 $-1 #
coedge $-1 $165 $381 $263 $384 reversed $260 $-1 #
vertex $-1 $268 $396 #
vertex $-1 $384 $397 #
straight-curve $-1 -76.768700216681424 -22.439733909550565 0 0 0 1 I I #
face $-1 $-1 $398 $38 $-1 $399 reversed single #
loop $-1 $-1 $173 $167 #
plane-surface $-1 0 0 14.35429324349348 0 0 1 1 0 0 forward_v I I I I #
coedge $-1 $400 $401 $402 $403 reversed $168 $-1 #
coedge $-1 $404 $170 $172 $284 forward $105 $-1 #
coedge $-1 $170 $404 $400 $405 forward $105 $-1 #
coedge $-1 $402 $173 $170 $281 forward $275 $-1 #
edge $-1 $287 -9.3521224135313687 $406 14.601540199660228 $280 $407 forward 7 unknown #
coedge $-1 $408 $409 $171 $283 forward $398 $-1 #
edge $-1 $410 -37.786297366110702 $286 -26.937014534248938 $282 $411 forward 7 unknown #
edge $-1 $287 -12.657135571793177 $410 -2.0715698412831909e-014 $172 $412 forward 7 unknown #
coedge $-1 $173 $402 $408 $413 forward $275 $-1 #
vertex $-1 $174 $414 #
vertex $-1 $174 $415 #
straight-curve $-1 6.7274135204669392 -81.311989364083814 14.35429324349348 0 1 0 I I #
coedge $-1 $289 $289 $-1 $416 reversed $177 $-1 #
edge $-1 $417 0 $417 6.2831853071796004 $178 $418 forward 7 unknown #
vertex $-1 $181 $419 #
ellipse-curve $-1 -10.382345488955636 -27.757285152070541 8.9296518275625978 0 -0.85716730853699208 0.51503806187062418 2.5 0 0 1 I I #
coedge $-1 $293 $293 $-1 $420 reversed $184 $-1 #
edge $-1 $421 0 $421 6.2831853071796004 $185 $422 forward 7 unknown #
vertex $-1 $188 $423 #
ellipse-curve $-1 -0.11649008330209654 -27.757285152070541 8.9296518275625978 0 -0.85716730853699208 0.51503806187062418 2.5 0 0 1 I I #
face $-1 $-1 $424 $41 $-1 $425 reversed single #
loop $-1 $-1 $311 $189 #
plane-surface $-1 6.7274135204669392 -162.62397872816763 82.582615555484836 -1 0 0 0 -0.85716730853699208 0.51503806187062418 forward_v I I I I #
coedge $-1 $306 $426 $302 $427 forward $190 $-1 #
coedge $-1 $302 $192 $305 $428 reversed $119 $-1 #
coedge $-1 $192 $301 $300 $427 reversed $119 $-1 #
coedge $-1 $429 $308 $192 $304 forward $424 $-1 #
edge $-1 $430 -37.786297366110702 $431 -26.937014534248938 $303 $432 forward 7 unknown #
coedge $-1 $194 $193 $301 $428 forward $76 $-1 #
coedge $-1 $433 $300 $193 $307 forward $190 $-1 #
edge $-1 $434 -33.305785026722965 $312 -9.3521224135313687 $306 $435 forward 7 unknown #
coedge $-1 $303 $436 $194 $309 forward $424 $-1 #
edge $-1 $313 9.3521224135313687 $430 33.305785026722965 $308 $437 forward 7 unknown #
coedge $-1 $311 $195 $436 $438 reversed $298 $-1 #
coedge $-1 $195 $310 $433 $439 reversed $298 $-1 #
vertex $-1 $307 $440 #
vertex $-1 $309 $441 #
straight-curve $-1 6.7274135204669392 -31.01673843893559 3.5050104116317016 0 -0.51503806187062418 -0.85716730853699208 I I #
coedge $-1 $315 $315 $-1 $442 reversed $199 $-1 #
edge $-1 $443 0 $443 6.2831853071796004 $200 $444 forward 7 unknown #
vertex $-1 $203 $445 #
ellipse-curve $-1 13.571317124235961 -27.757285152070541 8.9296518275625978 0 -0.85716730853699208 0.51503806187062418 2.5 0 0 1 I I #
coedge $-1 $319 $319 $-1 $446 reversed $206 $-1 #
edge $-1 $447 0 $447 6.2831853071796004 $207 $448 forward 7 unknown #
vertex $-1 $210 $449 #
ellipse-curve $-1 23.8371725298895 -27.757285152070541 8.9296518275625978 0 -0.85716730853699208 0.51503806187062418 2.5 0 0 1 I I #
face $-1 $-1 $450 $44 $-1 $451 reversed single #
loop $-1 $-1 $452 $211 #
plane-surface $-1 76.768700216681424 0 0 -1 0 0 0 0 1 forward_v I I I I #
coedge $-1 $453 $214 $216 $332 forward $133 $-1 #
coedge $-1 $214 $453 $452 $454 reversed $133 $-1 #
coedge $-1 $455 $217 $214 $329 forward $212 $-1 #
edge $-1 $335 21.516791424782156 $456 44.006869669526907 $328 $457 forward 7 unknown #
coedge $-1 $458 $459 $215 $331 forward $450 $-1 #
edge $-1 $460 -67.4839517098399 $334 -58.594910489307843 $330 $461 forward 7 unknown #
edge $-1 $335 51.046017785641681 $460 62.033476877871209 $216 $462 forward 7 unknown #
coedge $-1 $217 $455 $458 $463 forward $212 $-1 #
vertex $-1 $331 $464 #
vertex $-1 $218 $465 #
straight-curve $-1 54.278621971936687 59.38437187984912 14.354293243493487 0 -1 0 I I #
coedge $-1 $337 $337 $-1 $466 reversed $221 $-1 #
edge $-1 $467 0 $467 6.2831853071796004 $222 $468 forward 7 unknown #
vertex $-1 $225 $469 #
ellipse-curve $-1 58.776637620885623 27.787605293527228 9.90977263322746 0 0.80901700255871778 0.5877852410284794 2 0 0 1 I I #
coedge $-1 $341 $341 $-1 $470 reversed $228 $-1 #
edge $-1 $471 0 $471 6.2831853071796004 $229 $472 forward 7 unknown #
vertex $-1 $232 $473 #
ellipse-curve $-1 65.523661094309034 27.787605293527228 9.90977263322746 0 0.80901700255871778 0.5877852410284794 2 0 0 1 I I #
coedge $-1 $345 $345 $-1 $474 reversed $235 $-1 #
edge $-1 $475 0 $475 6.2831853071796004 $236 $476 forward 7 unknown #
vertex $-1 $239 $477 #
ellipse-curve $-1 72.270684567732445 27.787605293527228 9.90977263322746 0 0.80901700255871778 0.5877852410284794 2 0 0 1 I I #
face $-1 $-1 $255 $36 $-1 $478 reversed single #
loop $-1 $-1 $365 $240 #
plane-surface $-1 0 31.01673843893558 0 0 -1 0 0 0 -1 forward_v I I I I #
coedge $-1 $479 $363 $366 $480 forward $241 $-1 #
coedge $-1 $369 $243 $244 $357 reversed $152 $-1 #
coedge $-1 $363 $479 $243 $355 reversed $241 $-1 #
edge $-1 $370 -14.35429324349348 $481 14.35429324349348 $354 $482 forward 7 unknown #
coedge $-1 $245 $244 $479 $483 forward $97 $-1 #
edge $-1 $361 -76.768700216681424 $481 76.768700216681424 $353 $484 forward 7 unknown #
coedge $-1 $366 $365 $245 $359 reversed $350 $-1 #
edge $-1 $485 -76.768700216681424 $360 76.768700216681424 $358 $486 forward 7 unknown #
vertex $-1 $247 $487 #
vertex $-1 $372 $488 #
straight-curve $-1 76.768700216681424 0 -14.35429324349348 0 -1 0 I I #
coedge $-1 $352 $354 $248 $364 reversed $241 $-1 #
edge $-1 $367 -31.01673843893558 $370 31.01673843893558 $363 $489 forward 7 unknown #
coedge $-1 $358 $249 $254 $373 forward $350 $-1 #
coedge $-1 $249 $358 $352 $480 reversed $350 $-1 #
vertex $-1 $250 $490 #
straight-curve $-1 0 31.01673843893558 14.35429324349348 -1 0 0 I I #
coedge $-1 $251 $353 $253 $372 reversed $152 $-1 #
vertex $-1 $364 $491 #
straight-curve $-1 0 -31.01673843893558 14.35429324349348 1 0 0 I I #
edge $-1 $256 -14.35429324349348 $361 14.35429324349348 $253 $492 forward 7 unknown #
edge $-1 $257 -14.35429324349348 $360 14.35429324349348 $254 $493 forward 7 unknown #
point $-1 76.768700216681424 -31.01673843893558 14.35429324349348 #
point $-1 76.768700216681424 31.01673843893558 14.35429324349348 #
face $-1 $-1 $494 $37 $-1 $495 reversed single #
loop $-1 $-1 $267 $259 #
plane-surface $-1 0 0 -14.35429324349348 0 0 1 1 0 0 forward_v I I I I #
coedge $-1 $496 $262 $497 $498 reversed $160 $-1 #
coedge $-1 $262 $496 $383 $499 reversed $160 $-1 #
coedge $-1 $270 $269 $262 $382 reversed $260 $-1 #
edge $-1 $500 -14.35429324349348 $501 14.35429324349348 $381 $502 forward 7 unknown #
coedge $-1 $264 $263 $380 $499 forward $101 $-1 #
edge $-1 $272 -6.7274135204669392 $500 6.7274135204669392 $270 $503 forward 7 unknown #
coedge $-1 $504 $389 $264 $386 reversed $494 $-1 #
edge $-1 $505 -90.223527257615302 $387 -76.768700216681424 $385 $506 forward 7 unknown #
vertex $-1 $390 $507 #
straight-curve $-1 -76.768700216681424 0 14.35429324349348 0 1 0 I I #
coedge $-1 $385 $508 $266 $390 forward $494 $-1 #
edge $-1 $393 -14.35429324349348 $387 14.35429324349348 $389 $509 forward 7 unknown #
coedge $-1 $497 $267 $508 $510 forward $377 $-1 #
coedge $-1 $267 $497 $269 $395 forward $377 $-1 #
vertex $-1 $510 $511 #
straight-curve $-1 -76.768700216681424 0 -14.35429324349348 0 -1 0 I I #
edge $-1 $501 -6.7274135204669392 $271 6.7274135204669392 $269 $512 forward 7 unknown #
point $-1 -76.768700216681424 -22.439733909550565 -14.35429324349348 #
point $-1 -76.768700216681424 -22.439733909550565 14.35429324349348 #
loop $-1 $-1 $282 $274 #
plane-surface $-1 0 -31.01673843893558 0 0 1 0 0 0 1 forward_v I I I I #
coedge $-1 $401 $277 $279 $405 reversed $168 $-1 #
coedge $-1 $277 $400 $513 $514 reversed $168 $-1 #
coedge $-1 $285 $280 $277 $403 forward $275 $-1 #
edge $-1 $406 -56.814157498878316 $515 -50.295250925148238 $402 $516 forward 7 unknown #
coedge $-1 $279 $278 $409 $517 reversed $105 $-1 #
edge $-1 $518 2.0715698412831909e-014 $406 12.657135571793177 $400 $519 forward 7 unknown #
vertex $-1 $281 $520 #
straight-curve $-1 -2.6247088930644296 -24.497831865205498 14.35429324349348 -1 0 0 I I #
coedge $-1 $513 $282 $285 $413 reversed $398 $-1 #
coedge $-1 $282 $513 $404 $517 forward $398 $-1 #
vertex $-1 $283 $521 #
straight-curve $-1 6.7274135204669392 -31.016738438935576 41.291307777742418 0 0 1 I I #
straight-curve $-1 6.7274135204669392 -31.01673843893559 3.5050104116317016 0 -0.51503806187062418 -0.85716730853699208 I I #
edge $-1 $515 -17.226249092724657 $286 6.7274135204669392 $408 $522 forward 7 unknown #
point $-1 6.7274135204669392 -31.01673843893558 14.35429324349348 #
point $-1 6.7274135204669392 -24.497831865205498 14.35429324349348 #
edge $-1 $523 1 $523 0 $289 $-1 forward 7 unknown #
vertex $-1 $290 $524 #
ellipse-curve $-1 -10.382345488955636 -23.326328957171189 6.2672648371514841 0 -0.85716730853699208 0.51503806187062418 2.5 0 0 1 I I #
point $-1 -7.8823454889556359 -27.757285152070537 8.9296518275625978 #
edge $-1 $525 1 $525 0 $293 $-1 forward 7 unknown #
vertex $-1 $294 $526 #
ellipse-curve $-1 -0.11649008330209654 -23.326328957171189 6.2672648371514841 0 -0.85716730853699208 0.51503806187062418 2.5 0 0 1 I I #
point $-1 2.3835099166979035 -27.757285152070537 8.9296518275625978 #
loop $-1 $-1 $303 $297 #
plane-surface $-1 0 -31.01673843893558 0 0 1 0 0 0 1 forward_v I I I I #
coedge $-1 $300 $433 $429 $527 forward $190 $-1 #
edge $-1 $431 50.295250925148238 $434 56.814157498878316 $300 $528 forward 7 unknown #
edge $-1 $434 -12.657135571793177 $430 -2.0715698412831909e-014 $301 $529 forward 7 unknown #
coedge $-1 $436 $303 $426 $527 reversed $424 $-1 #
vertex $-1 $304 $530 #
vertex $-1 $304 $531 #
straight-curve $-1 30.681076133658536 -31.016738438935576 41.291307777742418 0 0 1 I I #
coedge $-1 $426 $306 $311 $439 forward $190 $-1 #
vertex $-1 $427 $532 #
straight-curve $-1 -2.6247088930644296 -24.497831865205498 14.35429324349348 -1 0 0 I I #
coedge $-1 $308 $429 $310 $438 forward $424 $-1 #
straight-curve $-1 -2.6247088930644296 -31.01673843893558 3.5050104116317149 1 0 0 I I #
edge $-1 $533 26.937014534248938 $313 37.786297366110702 $436 $534 forward 7 unknown #
edge $-1 $312 -56.814157498878316 $533 -50.295250925148238 $433 $535 forward 7 unknown #
point $-1 6.7274135204669392 -24.497831865205498 14.35429324349348 #
point $-1 6.7274135204669392 -31.01673843893558 3.5050104116317193 #
edge $-1 $536 1 $536 0 $315 $-1 forward 7 unknown #
vertex $-1 $316 $537 #
ellipse-curve $-1 13.571317124235961 -23.326328957171189 6.2672648371514841 0 -0.85716730853699208 0.51503806187062418 2.5 0 0 1 I I #
point $-1 16.071317124235961 -27.757285152070537 8.9296518275625978 #
edge $-1 $538 1 $538 0 $319 $-1 forward 7 unknown #
vertex $-1 $320 $539 #
ellipse-curve $-1 23.8371725298895 -23.326328957171189 6.2672648371514841 0 -0.85716730853699208 0.51503806187062418 2.5 0 0 1 I I #
point $-1 26.3371725298895 -27.757285152070537 8.9296518275625978 #
loop $-1 $-1 $330 $323 #
plane-surface $-1 0 31.01673843893558 0 0 -1 0 0 0 -1 forward_v I I I I #
coedge $-1 $540 $541 $327 $454 forward $324 $-1 #
coedge $-1 $327 $326 $459 $542 reversed $133 $-1 #
edge $-1 $456 26.9341289814075 $543 37.921588073637025 $452 $544 forward 7 unknown #
coedge $-1 $333 $328 $541 $545 forward $212 $-1 #
vertex $-1 $545 $546 #
straight-curve $-1 32.761830547154531 24.558472148118884 14.354293243493483 1 0 0 I I #
coedge $-1 $547 $330 $333 $463 reversed $450 $-1 #
coedge $-1 $330 $547 $453 $542 forward $450 $-1 #
vertex $-1 $331 $548 #
straight-curve $-1 54.278621971936687 31.016738438935576 72.949203732801323 0 0 1 I I #
straight-curve $-1 54.278621971936687 -5.4456237195585544 55.651389544992313 0 0.5877852410284794 -0.80901700255871778 I I #
edge $-1 $549 -76.768700216681424 $334 -54.278621971936687 $458 $550 forward 7 unknown #
point $-1 54.278621971936687 31.01673843893558 14.35429324349348 #
point $-1 54.278621971936687 24.558472148118891 14.35429324349348 #
edge $-1 $551 1 $551 0 $337 $-1 forward 7 unknown #
vertex $-1 $338 $552 #
ellipse-curve $-1 58.776637620885623 21.987580264105016 5.6958079092379723 0 0.80901700255871778 0.5877852410284794 2 0 0 1 I I #
point $-1 60.776637620885623 27.787605293527257 9.9097726332274796 #
edge $-1 $553 1 $553 0 $341 $-1 forward 7 unknown #
vertex $-1 $342 $554 #
ellipse-curve $-1 65.523661094309034 21.987580264105016 5.6958079092379723 0 0.80901700255871778 0.5877852410284794 2 0 0 1 I I #
point $-1 67.523661094309034 27.787605293527257 9.9097726332274796 #
edge $-1 $555 1 $555 0 $345 $-1 forward 7 unknown #
vertex $-1 $346 $556 #
ellipse-curve $-1 72.270684567732445 21.987580264105016 5.6958079092379723 0 0.80901700255871778 0.5877852410284794 2 0 0 1 I I #
point $-1 74.270684567732445 27.787605293527257 9.9097726332274796 #
plane-surface $-1 76.768700216681424 0 0 -1 0 0 0 0 1 forward_v I I I I #
coedge $-1 $354 $352 $356 $483 reversed $241 $-1 #
edge $-1 $367 -14.35429324349348 $485 14.35429324349348 $366 $557 forward 7 unknown #
vertex $-1 $483 $558 #
straight-curve $-1 -76.768700216681424 -31.01673843893558 0 0 0 -1 I I #
edge $-1 $481 -31.01673843893558 $485 31.01673843893558 $479 $559 forward 7 unknown #
straight-curve $-1 0 -31.01673843893558 -14.35429324349348 -1 0 0 I I #
vertex $-1 $359 $560 #
straight-curve $-1 0 31.01673843893558 -14.35429324349348 1 0 0 I I #
point $-1 76.768700216681424 31.01673843893558 -14.35429324349348 #
point $-1 76.768700216681424 -31.01673843893558 -14.35429324349348 #
straight-curve $-1 -76.768700216681424 0 14.35429324349348 0 -1 0 I I #
point $-1 -76.768700216681424 31.01673843893558 14.35429324349348 #
point $-1 -76.768700216681424 -31.01673843893558 14.35429324349348 #
straight-curve $-1 76.768700216681424 -31.01673843893558 0 0 0 -1 I I #
straight-curve $-1 76.768700216681424 31.01673843893558 0 0 0 -1 I I #
loop $-1 $-1 $389 $376 #
plane-surface $-1 0 -31.01673843893558 0 0 1 0 0 0 1 forward_v I I I I #
coedge $-1 $380 $379 $504 $561 reversed $160 $-1 #
coedge $-1 $392 $391 $379 $498 forward $377 $-1 #
edge $-1 $562 -4.2885022646925073 $501 4.2885022646925073 $379 $563 forward 7 unknown #
edge $-1 $500 -4.2885022646925073 $505 4.2885022646925073 $380 $564 forward 7 unknown #
vertex $-1 $384 $565 #
vertex $-1 $395 $566 #
straight-curve $-1 -90.223527257615302 -22.439733909550565 0 0 0 -1 I I #
straight-curve $-1 -83.496113737148363 -22.439733909550565 14.35429324349348 -1 0 0 I I #
coedge $-1 $508 $385 $496 $561 forward $494 $-1 #
vertex $-1 $499 $567 #
straight-curve $-1 0 -31.01673843893558 14.35429324349348 1 0 0 I I #
point $-1 -76.768700216681424 -31.01673843893558 14.35429324349348 #
coedge $-1 $389 $504 $391 $510 reversed $494 $-1 #
straight-curve $-1 -76.768700216681424 -31.01673843893558 0 0 0 1 I I #
edge $-1 $393 -6.7274135204669392 $562 6.7274135204669392 $508 $568 forward 7 unknown #
point $-1 -76.768700216681424 -31.01673843893558 -14.35429324349348 #
straight-curve $-1 -83.496113737148363 -22.439733909550565 -14.35429324349348 1 0 0 I I #
coedge $-1 $409 $408 $401 $514 forward $398 $-1 #
edge $-1 $515 26.937014534248938 $518 37.786297366110702 $513 $569 forward 7 unknown #
vertex $-1 $413 $570 #
straight-curve $-1 -17.226249092724657 -81.311989364083814 14.35429324349348 0 -1 0 I I #
edge $-1 $518 -14.601540199660228 $410 9.3521224135313687 $409 $571 forward 7 unknown #
vertex $-1 $517 $572 #
straight-curve $-1 -17.226249092724657 -31.01673843893559 3.5050104116317016 0 0.51503806187062418 0.85716730853699208 I I #
point $-1 -17.226249092724657 -24.497831865205498 14.35429324349348 #
point $-1 6.7274135204669392 -31.01673843893558 3.5050104116317193 #
straight-curve $-1 0 -31.01673843893558 14.35429324349348 1 0 0 I I #
vertex $-1 $416 $573 #
point $-1 -7.8823454889556359 -23.326328957171189 6.2672648371514841 #
vertex $-1 $420 $574 #
point $-1 2.3835099166979035 -23.326328957171189 6.2672648371514841 #
edge $-1 $533 6.7274135204669392 $431 30.681076133658536 $429 $575 forward 7 unknown #
straight-curve $-1 30.681076133658536 -81.311989364083814 14.35429324349348 0 1 0 I I #
straight-curve $-1 30.681076133658536 -31.01673843893559 3.5050104116317016 0 -0.51503806187062418 -0.85716730853699208 I I #
point $-1 30.681076133658536 -31.01673843893558 3.5050104116317193 #
point $-1 30.681076133658536 -31.01673843893558 14.35429324349348 #
point $-1 30.681076133658536 -24.497831865205498 14.35429324349348 #
vertex $-1 $527 $576 #
straight-curve $-1 6.7274135204669392 -31.016738438935576 41.291307777742418 0 0 -1 I I #
straight-curve $-1 6.7274135204669392 -81.311989364083814 14.35429324349348 0 -1 0 I I #
vertex $-1 $442 $577 #
point $-1 16.071317124235961 -23.326328957171189 6.2672648371514841 #
vertex $-1 $446 $578 #
point $-1 26.3371725298895 -23.326328957171189 6.2672648371514841 #
coedge $-1 $541 $452 $547 $579 reversed $324 $-1 #
coedge $-1 $452 $540 $455 $545 reversed $324 $-1 #
edge $-1 $543 -44.006869669526907 $460 -21.516791424782156 $459 $580 forward 7 unknown #
vertex $-1 $454 $581 #
straight-curve $-1 76.768700216681424 8.7269886528901299 36.144461538561664 0 0.5877852410284794 -0.80901700255871778 I I #
edge $-1 $456 24.558472148118891 $549 31.01673843893558 $541 $582 forward 7 unknown #
point $-1 76.768700216681438 24.558472148118891 14.35429324349348 #
coedge $-1 $459 $458 $540 $579 forward $450 $-1 #
point $-1 54.278621971936687 31.016738438935576 5.4652520229614225 #
vertex $-1 $545 $583 #
straight-curve $-1 0 31.01673843893558 14.35429324349348 -1 0 0 I I #
vertex $-1 $466 $584 #
point $-1 60.776637620885623 21.987580264105016 5.6958079092379723 #
vertex $-1 $470 $585 #
point $-1 67.523661094309034 21.987580264105016 5.6958079092379723 #
vertex $-1 $474 $586 #
point $-1 74.270684567732445 21.987580264105016 5.6958079092379723 #
straight-curve $-1 -76.768700216681424 31.01673843893558 0 0 0 -1 I I #
point $-1 -76.768700216681424 -31.01673843893558 -14.35429324349348 #
straight-curve $-1 -76.768700216681424 0 -14.35429324349348 0 1 0 I I #
point $-1 -76.768700216681424 31.01673843893558 -14.35429324349348 #
edge $-1 $505 -14.35429324349348 $562 14.35429324349348 $496 $587 forward 7 unknown #
vertex $-1 $498 $588 #
straight-curve $-1 -90.223527257615302 -26.728236174243072 -14.35429324349348 0 1 0 I I #
straight-curve $-1 -90.223527257615302 -26.728236174243072 14.35429324349348 0 -1 0 I I #
point $-1 -90.223527257615302 -22.439733909550565 14.35429324349348 #
point $-1 -90.223527257615302 -22.439733909550565 -14.35429324349348 #
point $-1 -90.223527257615302 -31.01673843893558 14.35429324349348 #
straight-curve $-1 -83.496113737148363 -31.01673843893558 -14.35429324349348 -1 0 0 I I #
straight-curve $-1 -17.226249092724657 -31.016738438935576 41.291307777742418 0 0 -1 I I #
point $-1 -17.226249092724657 -31.01673843893558 14.35429324349348 #
straight-curve $-1 -2.6247088930644296 -31.01673843893558 3.5050104116317149 1 0 0 I I #
point $-1 -17.226249092724657 -31.01673843893558 3.5050104116317193 #
point $-1 -10.382345488955636 -21.183410685828708 4.9796696824749231 #
point $-1 -0.11649008330209654 -21.183410685828708 4.9796696824749231 #
straight-curve $-1 0 -31.01673843893558 14.35429324349348 1 0 0 I I #
point $-1 6.7274135204669392 -31.01673843893558 14.35429324349348 #
point $-1 13.571317124235961 -21.183410685828708 4.9796696824749231 #
point $-1 23.8371725298895 -21.183410685828708 4.9796696824749231 #
edge $-1 $549 -14.35429324349348 $543 -5.4652520229614225 $540 $589 forward 7 unknown #
straight-curve $-1 32.761830547154531 31.016738438935583 5.4652520229614154 -1 0 0 I I #
point $-1 76.768700216681438 31.016738438935576 5.4652520229614225 #
straight-curve $-1 76.768700216681424 0 14.35429324349348 0 1 0 I I #
point $-1 76.768700216681424 31.01673843893558 14.35429324349348 #
point $-1 58.776637620885623 20.36954625898758 4.520237427181014 #
point $-1 65.523661094309034 20.36954625898758 4.520237427181014 #
point $-1 72.270684567732445 20.36954625898758 4.520237427181014 #
straight-curve $-1 -90.223527257615302 -31.01673843893558 0 0 0 -1 I I #
point $-1 -90.223527257615302 -31.01673843893558 -14.35429324349348 #
straight-curve $-1 76.768700216681424 31.01673843893558 0 0 0 -1 I I #
End-of-ACIS-data 