500 0 9 0           
7 Unknown 11 ACIS 5.0 NT 24 Thu Mar 25 19:34:35 1999 
-1 9.9999999999999995e-007 1e-010 
body $-1 $9 $-1 $10 #
body $-1 $11 $-1 $12 #
body $-1 $13 $-1 $14 #
body $-1 $15 $-1 $16 #
body $-1 $17 $-1 $18 #
body $-1 $19 $-1 $20 #
body $-1 $21 $-1 $22 #
body $-1 $23 $-1 $24 #
body $-1 $25 $-1 $26 #
lump $-1 $-1 $27 $0 #
transform $-1 1 0 0 0 1 0 0 0 1 48.626972258674883 29.463935359384656 8.0983335256108315 1 rotate no_reflect no_shear #
lump $-1 $-1 $28 $1 #
transform $-1 1 0 0 0 1 0 0 0 1 48.626972258674883 29.463935359384656 8.0983335256108315 1 rotate no_reflect no_shear #
lump $-1 $-1 $29 $2 #
transform $-1 1 0 0 0 1 0 0 0 1 48.626972258674883 29.463935359384656 8.0983335256108315 1 rotate no_reflect no_shear #
lump $-1 $-1 $30 $3 #
transform $-1 1 0 0 0 1 0 0 0 1 48.626972258674883 29.463935359384656 8.0983335256108315 1 rotate no_reflect no_shear #
lump $-1 $-1 $31 $4 #
transform $-1 1 0 0 0 1 0 0 0 1 48.626972258674883 29.463935359384656 8.0983335256108315 1 rotate no_reflect no_shear #
lump $-1 $-1 $32 $5 #
transform $-1 1 0 0 0 1 0 0 0 1 48.626972258674883 29.463935359384656 8.0983335256108315 1 rotate no_reflect no_shear #
lump $-1 $-1 $33 $6 #
transform $-1 1 0 0 0 1 0 0 0 1 48.626972258674883 29.463935359384656 8.0983335256108315 1 rotate no_reflect no_shear #
lump $-1 $-1 $34 $7 #
transform $-1 1 0 0 0 1 0 0 0 1 48.626972258674883 29.463935359384656 8.0983335256108315 1 rotate no_reflect no_shear #
lump $-1 $-1 $35 $8 #
transform $-1 1 0 0 0 1 0 0 0 1 48.626972258674883 29.463935359384656 8.0983335256108315 1 rotate no_reflect no_shear #
shell $-1 $-1 $-1 $36 $-1 $9 #
shell $-1 $-1 $-1 $37 $-1 $11 #
shell $-1 $-1 $-1 $38 $-1 $13 #
shell $-1 $-1 $-1 $39 $-1 $15 #
shell $-1 $-1 $-1 $40 $-1 $17 #
shell $-1 $-1 $-1 $41 $-1 $19 #
shell $-1 $-1 $-1 $42 $-1 $21 #
shell $-1 $-1 $-1 $43 $-1 $23 #
shell $-1 $-1 $-1 $44 $-1 $25 #
face $-1 $45 $46 $27 $-1 $47 forward single #
face $-1 $48 $49 $28 $-1 $50 reversed single #
face $-1 $51 $52 $29 $-1 $53 reversed single #
face $-1 $54 $55 $30 $-1 $56 forward single #
face $-1 $57 $58 $31 $-1 $59 forward single #
face $-1 $60 $61 $32 $-1 $62 reversed single #
face $-1 $63 $64 $33 $-1 $65 forward single #
face $-1 $66 $67 $34 $-1 $68 reversed single #
face $-1 $69 $70 $35 $-1 $71 forward single #
face $-1 $72 $73 $27 $-1 $74 reversed single #
loop $-1 $-1 $75 $36 #
plane-surface $-1 0 0 8.0983335256108315 0 0 1 1 0 0 forward_v I I I I #
face $-1 $76 $77 $28 $-1 $78 reversed single #
loop $-1 $-1 $79 $37 #
plane-surface $-1 -35.430305207453216 -26.01993533407353 0 1 0 0 0 0 -1 forward_v I I I I #
face $-1 $80 $81 $29 $-1 $82 reversed single #
loop $-1 $-1 $83 $38 #
plane-surface $-1 17.687689595144221 22.275513017124705 136.15652926362409 0 -1 0 -0.52991927123019833 0 -0.84804809178421925 forward_v I I I I #
face $-1 $84 $85 $30 $-1 $86 forward single #
loop $-1 $87 $88 $39 #
cone-surface $-1 42.968267952988263 12.404762702177216 3.6902622857347671 -0.52991927123019833 0 -0.84804809178421925 0.84804809178421925 0 -0.52991927123019833 1 I I 0 1 1 forward I I I I #
face $-1 $89 $90 $31 $-1 $91 forward single #
loop $-1 $92 $93 $40 #
cone-surface $-1 42.968267952988263 18.327212891145706 3.6902622857347671 -0.52991927123019833 0 -0.84804809178421925 0.84804809178421925 0 -0.52991927123019833 1 I I 0 1 1 forward I I I I #
face $-1 $94 $95 $32 $-1 $96 reversed single #
loop $-1 $-1 $97 $41 #
plane-surface $-1 -118.58560609119864 -18.142585852024556 67.69332098212692 0 1 0 -0.71933980857756763 0 0.69465836192734942 forward_v I I I I #
face $-1 $98 $99 $33 $-1 $100 forward single #
loop $-1 $101 $102 $42 #
cone-surface $-1 -42.359085527226327 -12.254907896469813 1.7769632237570803 0.71933980857756763 0 -0.69465836192734942 1.3893167238546988 0 1.4386796171551353 1 I I 0 1 2 forward I I I I #
face $-1 $103 $104 $34 $-1 $105 reversed single #
loop $-1 $-1 $106 $43 #
plane-surface $-1 -118.58560609119864 13.25522999153732 67.69332098212692 0 1 0 -0.71933980857756763 0 0.69465836192734942 forward_v I I I I #
face $-1 $107 $108 $35 $-1 $109 forward single #
loop $-1 $110 $111 $44 #
cone-surface $-1 -42.359085527226327 19.142907947092063 1.7769632237570803 0.71933980857756763 0 -0.69465836192734942 1.3893167238546988 0 1.4386796171551353 1 I I 0 1 2 forward I I I I #
face $-1 $112 $113 $27 $-1 $114 reversed single #
loop $-1 $-1 $115 $45 #
plane-surface $-1 0 0 -8.0983335256108315 0 0 1 1 0 0 forward_v I I I I #
coedge $-1 $116 $117 $118 $119 forward $46 $-1 #
face $-1 $120 $121 $28 $-1 $122 reversed single #
loop $-1 $-1 $123 $48 #
plane-surface $-1 -33.930305207453216 -22.575935308762404 0 0 -1 0 0 0 -1 forward_v I I I I #
coedge $-1 $124 $125 $126 $127 forward $49 $-1 #
face $-1 $128 $129 $29 $-1 $130 reversed single #
loop $-1 $-1 $131 $51 #
plane-surface $-1 -33.849049807751911 15.365987796661464 53.680507197197301 0.52991927123019833 0 0.84804809178421925 0.84804809178421925 0 -0.52991927123019833 forward_v I I I I #
coedge $-1 $132 $133 $134 $135 reversed $52 $-1 #
face $-1 $-1 $136 $30 $-1 $137 forward single #
loop $-1 $138 $139 $54 #
cone-surface $-1 41.809252496839733 12.404762702177216 1.8354498656214293 -0.52991927123019833 0 -0.84804809178421925 0.42402404589210962 0 -0.26495963561509916 1 I I -0.70710678118654746 0.70710678118654746 0.5 forward I I I I #
loop $-1 $-1 $140 $39 #
coedge $-1 $88 $88 $141 $142 reversed $55 $-1 #
face $-1 $-1 $143 $31 $-1 $144 forward single #
loop $-1 $145 $146 $57 #
cone-surface $-1 41.809252496839733 18.327212891145706 1.8354498656214293 -0.52991927123019833 0 -0.84804809178421925 0.42402404589210962 0 -0.26495963561509916 1 I I -0.70710678118654746 0.70710678118654746 0.5 forward I I I I #
loop $-1 $-1 $147 $40 #
coedge $-1 $93 $93 $148 $149 reversed $58 $-1 #
face $-1 $150 $151 $32 $-1 $152 reversed single #
loop $-1 $-1 $153 $60 #
plane-surface $-1 -48.626972258674883 -12.254907896469813 0.1350551927314001 -0.71933980857756763 0 0.69465836192734942 0.69465836192734942 0 0.71933980857756763 forward_v I I I I #
coedge $-1 $154 $155 $156 $157 reversed $61 $-1 #
face $-1 $-1 $158 $33 $-1 $159 forward single #
loop $-1 $160 $161 $63 #
cone-surface $-1 -39.216883144300688 -12.254907896469813 -1.2574262735843114 0.71933980857756763 0 -0.69465836192734942 0.69465836192734942 0 0.71933980857756763 1 I I -0.70710678118654746 0.70710678118654746 1 forward I I I I #
loop $-1 $-1 $162 $42 #
coedge $-1 $102 $102 $163 $164 reversed $64 $-1 #
face $-1 $165 $166 $34 $-1 $167 reversed single #
loop $-1 $-1 $168 $66 #
plane-surface $-1 -48.626972258674883 19.142907947092063 0.1350551927314001 -0.71933980857756763 0 0.69465836192734942 0.69465836192734942 0 0.71933980857756763 forward_v I I I I #
coedge $-1 $169 $170 $171 $172 reversed $67 $-1 #
face $-1 $-1 $173 $35 $-1 $174 forward single #
loop $-1 $175 $176 $69 #
cone-surface $-1 -39.216883144300688 19.142907947092063 -1.2574262735843114 0.71933980857756763 0 -0.69465836192734942 0.69465836192734942 0 0.71933980857756763 1 I I -0.70710678118654746 0.70710678118654746 1 forward I I I I #
loop $-1 $-1 $177 $44 #
coedge $-1 $111 $111 $178 $179 reversed $70 $-1 #
face $-1 $180 $181 $27 $-1 $182 reversed single #
loop $-1 $-1 $183 $72 #
plane-surface $-1 0 -29.463935359384656 0 0 1 0 0 0 1 forward_v I I I I #
coedge $-1 $184 $185 $186 $187 forward $73 $-1 #
coedge $-1 $188 $75 $189 $190 forward $46 $-1 #
coedge $-1 $75 $188 $191 $192 forward $46 $-1 #
coedge $-1 $193 $194 $75 $119 reversed $195 $-1 #
edge $-1 $196 -29.463935359384656 $197 29.463935359384656 $118 $198 forward 7 unknown #
face $-1 $199 $200 $28 $-1 $201 forward single #
loop $-1 $-1 $202 $76 #
plane-surface $-1 -32.430305207453216 -26.01993533407353 0 -1 0 0 0 0 1 forward_v I I I I #
coedge $-1 $203 $204 $205 $206 forward $77 $-1 #
coedge $-1 $207 $79 $208 $209 reversed $49 $-1 #
coedge $-1 $79 $207 $210 $211 reversed $49 $-1 #
coedge $-1 $204 $203 $79 $127 reversed $77 $-1 #
edge $-1 $212 -8.0983335256108315 $213 8.0983335256108315 $126 $214 forward 7 unknown #
face $-1 $215 $216 $29 $-1 $217 reversed single #
loop $-1 $-1 $218 $80 #
plane-surface $-1 17.687689595144221 8.4564625761982235 136.15652926362409 0 1 0 0.52991927123019833 0 0.84804809178421925 forward_v I I I I #
coedge $-1 $219 $220 $221 $222 reversed $81 $-1 #
coedge $-1 $133 $83 $223 $224 reversed $52 $-1 #
coedge $-1 $83 $132 $219 $225 reversed $52 $-1 #
coedge $-1 $221 $226 $83 $135 forward $227 $-1 #
edge $-1 $228 -39.783127461102772 $229 -30.253830490796453 $134 $230 forward 7 unknown #
loop $-1 $-1 $141 $84 #
plane-surface $-1 -33.849049807751911 15.365987796661464 53.680507197197301 0.52991927123019833 0 0.84804809178421925 0.84804809178421925 0 -0.52991927123019833 forward_v I I I I #
loop $-1 $-1 $231 $54 #
coedge $-1 $139 $139 $140 $232 reversed $85 $-1 #
coedge $-1 $140 $140 $139 $232 forward $87 $-1 #
coedge $-1 $141 $141 $88 $142 forward $136 $-1 #
edge $-1 $233 0 $233 6.2831853071796004 $141 $234 forward 7 unknown #
loop $-1 $-1 $148 $89 #
plane-surface $-1 -33.849049807751911 15.365987796661464 53.680507197197301 0.52991927123019833 0 0.84804809178421925 0.84804809178421925 0 -0.52991927123019833 forward_v I I I I #
loop $-1 $-1 $235 $57 #
coedge $-1 $146 $146 $147 $236 reversed $90 $-1 #
coedge $-1 $147 $147 $146 $236 forward $92 $-1 #
coedge $-1 $148 $148 $93 $149 forward $143 $-1 #
edge $-1 $237 0 $237 6.2831853071796004 $148 $238 forward 7 unknown #
face $-1 $239 $240 $32 $-1 $241 reversed single #
loop $-1 $-1 $242 $94 #
plane-surface $-1 -118.58560609119864 -6.3672299409150703 67.69332098212692 0 -1 0 0.71933980857756763 0 -0.69465836192734942 forward_v I I I I #
coedge $-1 $243 $244 $245 $246 reversed $95 $-1 #
coedge $-1 $155 $97 $247 $248 reversed $61 $-1 #
coedge $-1 $97 $154 $243 $249 reversed $61 $-1 #
coedge $-1 $245 $250 $97 $157 forward $251 $-1 #
edge $-1 $252 10.665830786924438 $253 18.355879101125417 $156 $254 forward 7 unknown #
loop $-1 $-1 $163 $98 #
plane-surface $-1 -48.626972258674883 -12.254907896469813 0.1350551927314001 -0.71933980857756763 0 0.69465836192734942 0.69465836192734942 0 0.71933980857756763 forward_v I I I I #
loop $-1 $-1 $255 $63 #
coedge $-1 $161 $161 $162 $256 reversed $99 $-1 #
coedge $-1 $162 $162 $161 $256 forward $101 $-1 #
coedge $-1 $163 $163 $102 $164 forward $158 $-1 #
edge $-1 $257 0 $257 6.2831853071796004 $163 $258 forward 7 unknown #
face $-1 $259 $260 $34 $-1 $261 forward single #
loop $-1 $-1 $262 $103 #
plane-surface $-1 -118.58560609119864 25.030585902646806 67.69332098212692 0 -1 0 0.71933980857756763 0 -0.69465836192734942 forward_v I I I I #
coedge $-1 $263 $264 $265 $266 reversed $104 $-1 #
coedge $-1 $170 $106 $267 $268 reversed $67 $-1 #
coedge $-1 $106 $169 $263 $269 reversed $67 $-1 #
coedge $-1 $265 $270 $106 $172 forward $260 $-1 #
edge $-1 $271 10.665830786924438 $272 18.355879101125417 $171 $273 forward 7 unknown #
loop $-1 $-1 $178 $107 #
plane-surface $-1 -48.626972258674883 19.142907947092063 0.1350551927314001 -0.71933980857756763 0 0.69465836192734942 0.69465836192734942 0 0.71933980857756763 forward_v I I I I #
loop $-1 $-1 $274 $69 #
coedge $-1 $176 $176 $177 $275 reversed $108 $-1 #
coedge $-1 $177 $177 $176 $275 forward $110 $-1 #
coedge $-1 $178 $178 $111 $179 forward $173 $-1 #
edge $-1 $276 0 $276 6.2831853071796004 $178 $277 forward 7 unknown #
face $-1 $278 $279 $27 $-1 $280 reversed single #
loop $-1 $-1 $281 $112 #
plane-surface $-1 -48.626972258674883 0 0 1 0 0 0 0 -1 forward_v I I I I #
coedge $-1 $282 $191 $283 $284 forward $113 $-1 #
coedge $-1 $285 $115 $282 $286 forward $73 $-1 #
coedge $-1 $115 $285 $287 $288 forward $73 $-1 #
coedge $-1 $194 $193 $115 $187 reversed $195 $-1 #
edge $-1 $289 -29.463935359384656 $290 29.463935359384656 $186 $291 forward 7 unknown #
coedge $-1 $117 $116 $292 $293 forward $46 $-1 #
coedge $-1 $294 $295 $116 $190 reversed $279 $-1 #
edge $-1 $197 -48.626972258674883 $296 48.626972258674883 $189 $297 forward 7 unknown #
coedge $-1 $183 $298 $117 $192 reversed $113 $-1 #
edge $-1 $299 -48.626972258674883 $196 48.626972258674883 $191 $300 forward 7 unknown #
coedge $-1 $186 $118 $298 $301 forward $195 $-1 #
coedge $-1 $118 $186 $294 $302 reversed $195 $-1 #
loop $-1 $-1 $193 $278 #
vertex $-1 $119 $303 #
vertex $-1 $119 $304 #
straight-curve $-1 48.626972258674883 0 8.0983335256108315 0 1 0 I I #
face $-1 $305 $306 $28 $-1 $307 reversed single #
loop $-1 $-1 $308 $120 #
plane-surface $-1 0 0 8.0983335256108315 0 0 1 1 0 0 forward_v I I I I #
coedge $-1 $309 $310 $311 $312 reversed $121 $-1 #
coedge $-1 $126 $123 $313 $314 reversed $77 $-1 #
coedge $-1 $123 $126 $315 $316 reversed $77 $-1 #
coedge $-1 $310 $309 $123 $206 reversed $121 $-1 #
edge $-1 $317 -8.0983335256108315 $318 8.0983335256108315 $205 $319 forward 7 unknown #
coedge $-1 $125 $124 $320 $321 reversed $49 $-1 #
coedge $-1 $313 $322 $124 $209 forward $306 $-1 #
edge $-1 $323 -16.453967692347891 $213 -9.5659676417256385 $208 $324 forward 7 unknown #
coedge $-1 $325 $315 $125 $211 forward $200 $-1 #
edge $-1 $212 9.5659676417256385 $326 16.453967692347891 $210 $327 forward 7 unknown #
vertex $-1 $211 $328 #
vertex $-1 $209 $329 #
straight-curve $-1 -35.430305207453216 -22.575935308762404 0 0 0 -1 I I #
face $-1 $-1 $227 $29 $-1 $330 forward single #
loop $-1 $-1 $331 $128 #
plane-surface $-1 48.626972258674883 0 0 -1 0 0 0 0 1 forward_v I I I I #
coedge $-1 $332 $333 $334 $335 reversed $129 $-1 #
coedge $-1 $336 $131 $133 $225 forward $81 $-1 #
coedge $-1 $131 $336 $332 $337 forward $81 $-1 #
coedge $-1 $334 $134 $131 $222 forward $227 $-1 #
edge $-1 $229 -14.592519118793973 $338 -0.77346867786749129 $221 $339 forward 7 unknown #
coedge $-1 $340 $341 $132 $224 forward $216 $-1 #
edge $-1 $342 -65.934496837510864 $228 -59.979931106201214 $223 $343 forward 7 unknown #
edge $-1 $229 86.017203272808416 $342 97.253944517349765 $133 $344 forward 7 unknown #
coedge $-1 $134 $334 $340 $345 forward $227 $-1 #
loop $-1 $-1 $334 $215 #
vertex $-1 $224 $346 #
vertex $-1 $135 $347 #
straight-curve $-1 8.8438447975721104 22.275513017124705 8.0983335256108262 -1 0 0 I I #
coedge $-1 $231 $231 $-1 $348 reversed $138 $-1 #
edge $-1 $349 0 $349 6.2831853071796004 $139 $350 forward 7 unknown #
vertex $-1 $142 $351 #
ellipse-curve $-1 43.862323773521709 12.404762702177216 5.1210506599560155 0.52991927123019833 0 0.84804809178421925 0.84804809178421925 0 -0.52991927123019833 1 I I #
coedge $-1 $235 $235 $-1 $352 reversed $145 $-1 #
edge $-1 $353 0 $353 6.2831853071796004 $146 $354 forward 7 unknown #
vertex $-1 $149 $355 #
ellipse-curve $-1 43.862323773521709 18.327212891145706 5.1210506599560155 0.52991927123019833 0 0.84804809178421925 0.84804809178421925 0 -0.52991927123019833 1 I I #
face $-1 $-1 $251 $32 $-1 $356 forward single #
loop $-1 $-1 $357 $150 #
plane-surface $-1 -48.626972258674883 0 0 1 0 0 0 0 -1 forward_v I I I I #
coedge $-1 $358 $359 $360 $361 reversed $151 $-1 #
coedge $-1 $362 $153 $155 $249 forward $95 $-1 #
coedge $-1 $153 $362 $358 $363 forward $95 $-1 #
coedge $-1 $360 $156 $153 $246 forward $251 $-1 #
edge $-1 $253 -12.01513190378965 $364 -0.2397759926801637 $245 $365 forward 7 unknown #
coedge $-1 $366 $367 $154 $248 forward $240 $-1 #
edge $-1 $368 -33.71160529833206 $252 -25.748326965452627 $247 $369 forward 7 unknown #
edge $-1 $253 -11.070259476708408 $368 0 $155 $370 forward 7 unknown #
coedge $-1 $156 $360 $366 $371 forward $251 $-1 #
loop $-1 $-1 $360 $239 #
vertex $-1 $248 $372 #
vertex $-1 $157 $373 #
straight-curve $-1 -59.292803045599321 -18.142585852024556 8.0983335256108333 1 0 0 I I #
coedge $-1 $255 $255 $-1 $374 reversed $160 $-1 #
edge $-1 $375 0 $375 6.2831853071796004 $161 $376 forward 7 unknown #
vertex $-1 $164 $377 #
ellipse-curve $-1 -44.781948101574393 -12.254907896469813 4.1166943591711167 -0.71933980857756763 0 0.69465836192734942 1.3893167238546988 0 1.4386796171551353 1 I I #
face $-1 $-1 $378 $34 $-1 $379 reversed single #
loop $-1 $-1 $171 $165 #
plane-surface $-1 0 0 8.0983335256108315 0 0 1 1 0 0 forward_v I I I I #
coedge $-1 $380 $381 $382 $383 reversed $166 $-1 #
coedge $-1 $384 $168 $170 $269 forward $104 $-1 #
coedge $-1 $168 $384 $380 $385 forward $104 $-1 #
coedge $-1 $382 $171 $168 $266 forward $260 $-1 #
edge $-1 $272 3.6837760179912884 $386 15.459131929100774 $265 $387 forward 7 unknown #
coedge $-1 $388 $389 $169 $268 forward $378 $-1 #
edge $-1 $390 -33.71160529833206 $271 -25.748326965452627 $267 $391 forward 7 unknown #
edge $-1 $272 -11.070259476708408 $390 0 $170 $392 forward 7 unknown #
coedge $-1 $171 $382 $388 $393 forward $260 $-1 #
vertex $-1 $268 $394 #
vertex $-1 $172 $395 #
straight-curve $-1 -59.292803045599321 13.25522999153732 8.0983335256108333 1 0 0 I I #
coedge $-1 $274 $274 $-1 $396 reversed $175 $-1 #
edge $-1 $397 0 $397 6.2831853071796004 $176 $398 forward 7 unknown #
vertex $-1 $179 $399 #
ellipse-curve $-1 -44.781948101574393 19.142907947092063 4.1166943591711167 -0.71933980857756763 0 0.69465836192734942 1.3893167238546988 0 1.4386796171551353 1 I I #
face $-1 $-1 $195 $27 $-1 $400 reversed single #
loop $-1 $-1 $294 $180 #
plane-surface $-1 0 29.463935359384656 0 0 -1 0 0 0 -1 forward_v I I I I #
coedge $-1 $401 $292 $295 $402 forward $181 $-1 #
coedge $-1 $298 $183 $184 $286 reversed $113 $-1 #
coedge $-1 $292 $401 $183 $284 reversed $181 $-1 #
edge $-1 $299 -8.0983335256108315 $403 8.0983335256108315 $283 $404 forward 7 unknown #
coedge $-1 $185 $184 $401 $405 forward $73 $-1 #
edge $-1 $290 -48.626972258674883 $403 48.626972258674883 $282 $406 forward 7 unknown #
coedge $-1 $295 $294 $185 $288 reversed $279 $-1 #
edge $-1 $407 -48.626972258674883 $289 48.626972258674883 $287 $408 forward 7 unknown #
vertex $-1 $187 $409 #
vertex $-1 $301 $410 #
straight-curve $-1 48.626972258674883 0 -8.0983335256108315 0 -1 0 I I #
coedge $-1 $281 $283 $188 $293 reversed $181 $-1 #
edge $-1 $296 -29.463935359384656 $299 29.463935359384656 $292 $411 forward 7 unknown #
coedge $-1 $287 $189 $194 $302 forward $279 $-1 #
coedge $-1 $189 $287 $281 $402 reversed $279 $-1 #
vertex $-1 $190 $412 #
straight-curve $-1 0 29.463935359384656 8.0983335256108315 -1 0 0 I I #
coedge $-1 $191 $282 $193 $301 reversed $113 $-1 #
vertex $-1 $293 $413 #
straight-curve $-1 0 -29.463935359384656 8.0983335256108315 1 0 0 I I #
edge $-1 $196 -8.0983335256108315 $290 8.0983335256108315 $193 $414 forward 7 unknown #
edge $-1 $197 -8.0983335256108315 $289 8.0983335256108315 $194 $415 forward 7 unknown #
point $-1 48.626972258674883 -29.463935359384656 8.0983335256108315 #
point $-1 48.626972258674883 29.463935359384656 8.0983335256108315 #
face $-1 $-1 $416 $28 $-1 $417 reversed single #
loop $-1 $-1 $418 $199 #
plane-surface $-1 0 0 -8.0983335256108315 0 0 1 1 0 0 forward_v I I I I #
coedge $-1 $315 $325 $310 $419 forward $200 $-1 #
coedge $-1 $205 $202 $418 $420 reversed $121 $-1 #
coedge $-1 $202 $205 $308 $419 reversed $121 $-1 #
coedge $-1 $421 $422 $202 $312 forward $416 $-1 #
edge $-1 $423 -8.0983335256108315 $424 8.0983335256108315 $311 $425 forward 7 unknown #
coedge $-1 $418 $208 $203 $314 forward $306 $-1 #
edge $-1 $213 -18.465152603726608 $318 -15.465152603726608 $313 $426 forward 7 unknown #
coedge $-1 $210 $308 $204 $316 forward $200 $-1 #
edge $-1 $317 15.465152603726608 $212 18.465152603726608 $315 $427 forward 7 unknown #
vertex $-1 $316 $428 #
vertex $-1 $314 $429 #
straight-curve $-1 -32.430305207453216 -22.575935308762404 0 0 0 -1 I I #
coedge $-1 $422 $421 $207 $321 forward $416 $-1 #
edge $-1 $326 -8.0983335256108315 $323 8.0983335256108315 $320 $430 forward 7 unknown #
coedge $-1 $208 $418 $422 $431 forward $306 $-1 #
vertex $-1 $209 $432 #
straight-curve $-1 -35.430305207453216 -13.009967667036765 -8.0983335256108315 0 1 0 I I #
coedge $-1 $308 $210 $421 $433 forward $200 $-1 #
vertex $-1 $433 $434 #
straight-curve $-1 -35.430305207453216 -13.009967667036765 8.0983335256108315 0 -1 0 I I #
point $-1 -35.430305207453216 -22.575935308762404 8.0983335256108315 #
point $-1 -35.430305207453216 -22.575935308762404 -8.0983335256108315 #
plane-surface $-1 0 0 8.0983335256108315 0 0 1 1 0 0 forward_v I I I I #
coedge $-1 $341 $340 $333 $435 forward $216 $-1 #
coedge $-1 $333 $218 $220 $337 reversed $129 $-1 #
coedge $-1 $218 $332 $331 $435 reversed $129 $-1 #
coedge $-1 $226 $221 $218 $335 forward $227 $-1 #
edge $-1 $338 30.253830490796453 $436 39.783127461102772 $334 $437 forward 7 unknown #
coedge $-1 $220 $219 $341 $438 reversed $81 $-1 #
edge $-1 $439 -97.253944517349765 $338 -86.017203272808416 $332 $440 forward 7 unknown #
vertex $-1 $222 $441 #
straight-curve $-1 39.097675288368571 7.6829938983307322 8.0983335256108262 0 -1 0 I I #
coedge $-1 $331 $223 $226 $345 reversed $216 $-1 #
coedge $-1 $223 $331 $336 $438 forward $216 $-1 #
vertex $-1 $224 $442 #
straight-curve $-1 48.626972258674883 22.275513017124705 68.078264631812047 0 0 1 I I #
straight-curve $-1 -33.849049807751911 22.275513017124705 53.680507197197301 0.84804809178421925 0 -0.52991927123019833 I I #
edge $-1 $436 8.4564625761982235 $228 22.275513017124705 $340 $443 forward 7 unknown #
point $-1 48.626972258674883 22.275513017124705 8.0983335256108315 #
point $-1 39.097675288368563 22.275513017124705 8.0983335256108333 #
edge $-1 $444 1 $444 0 $231 $-1 forward 7 unknown #
vertex $-1 $232 $445 #
ellipse-curve $-1 42.074212132454832 12.404762702177216 2.2594739115135392 0.52991927123019833 0 0.84804809178421925 0.84804809178421925 0 -0.52991927123019833 1 I I #
point $-1 44.710371865305923 12.404762702177216 4.5911313887257972 #
edge $-1 $446 1 $446 0 $235 $-1 forward 7 unknown #
vertex $-1 $236 $447 #
ellipse-curve $-1 42.074212132454832 18.327212891145706 2.2594739115135392 0.52991927123019833 0 0.84804809178421925 0.84804809178421925 0 -0.52991927123019833 1 I I #
point $-1 44.710371865305923 18.327212891145706 4.5911313887257972 #
plane-surface $-1 0 0 8.0983335256108315 0 0 1 1 0 0 forward_v I I I I #
coedge $-1 $367 $366 $359 $448 forward $240 $-1 #
coedge $-1 $359 $242 $244 $363 reversed $151 $-1 #
coedge $-1 $242 $358 $357 $448 reversed $151 $-1 #
coedge $-1 $250 $245 $242 $361 forward $251 $-1 #
edge $-1 $364 -18.355879101125417 $449 -10.665830786924438 $360 $450 forward 7 unknown #
coedge $-1 $244 $243 $367 $451 reversed $95 $-1 #
edge $-1 $452 0 $364 11.070259476708408 $358 $453 forward 7 unknown #
vertex $-1 $246 $454 #
straight-curve $-1 -40.936923944473904 -6.1274539482349066 8.0983335256108333 0 1 0 I I #
coedge $-1 $357 $247 $250 $371 reversed $240 $-1 #
coedge $-1 $247 $357 $362 $451 forward $240 $-1 #
vertex $-1 $248 $455 #
straight-curve $-1 -48.626972258674883 -18.142585852024556 33.84666049106346 0 0 1 I I #
straight-curve $-1 -48.626972258674883 -18.142585852024556 0.1350551927314001 -0.69465836192734942 0 -0.71933980857756763 I I #
edge $-1 $449 6.3672299409150703 $252 18.142585852024556 $366 $456 forward 7 unknown #
point $-1 -48.626972258674883 -18.142585852024556 8.0983335256108315 #
point $-1 -40.936923944473904 -18.142585852024556 8.0983335256108315 #
edge $-1 $457 1 $457 0 $255 $-1 forward 7 unknown #
vertex $-1 $256 $458 #
ellipse-curve $-1 -39.936222952878254 -12.254907896469813 -0.56276791165696194 -0.71933980857756763 0 0.69465836192734942 1.3893167238546988 0 1.4386796171551353 1 I I #
point $-1 -43.392631377719702 -12.254907896469813 5.5553739763262584 #
loop $-1 $-1 $267 $259 #
plane-surface $-1 -48.626972258674883 0 0 1 0 0 0 0 -1 forward_v I I I I #
coedge $-1 $381 $262 $264 $385 reversed $166 $-1 #
coedge $-1 $262 $380 $459 $460 reversed $166 $-1 #
coedge $-1 $270 $265 $262 $383 forward $260 $-1 #
edge $-1 $386 -18.355879101125417 $461 -10.665830786924438 $382 $462 forward 7 unknown #
coedge $-1 $264 $263 $389 $463 reversed $104 $-1 #
edge $-1 $464 0 $386 11.070259476708408 $380 $465 forward 7 unknown #
vertex $-1 $266 $466 #
straight-curve $-1 -40.936923944473904 9.5714539735460313 8.0983335256108333 0 1 0 I I #
coedge $-1 $459 $267 $270 $393 reversed $378 $-1 #
coedge $-1 $267 $459 $384 $463 forward $378 $-1 #
vertex $-1 $268 $467 #
straight-curve $-1 -48.626972258674883 13.25522999153732 33.84666049106346 0 0 1 I I #
straight-curve $-1 -48.626972258674883 13.25522999153732 0.1350551927314001 -0.69465836192734942 0 -0.71933980857756763 I I #
edge $-1 $461 -25.030585902646806 $271 -13.25522999153732 $388 $468 forward 7 unknown #
point $-1 -48.626972258674883 13.25522999153732 8.0983335256108315 #
point $-1 -40.936923944473904 13.25522999153732 8.0983335256108315 #
edge $-1 $469 1 $469 0 $274 $-1 forward 7 unknown #
vertex $-1 $275 $470 #
ellipse-curve $-1 -39.936222952878254 19.142907947092063 -0.56276791165696194 -0.71933980857756763 0 0.69465836192734942 1.3893167238546988 0 1.4386796171551353 1 I I #
point $-1 -43.392631377719702 19.142907947092063 5.5553739763262584 #
plane-surface $-1 48.626972258674883 0 0 -1 0 0 0 0 1 forward_v I I I I #
coedge $-1 $283 $281 $285 $405 reversed $181 $-1 #
edge $-1 $296 -8.0983335256108315 $407 8.0983335256108315 $295 $471 forward 7 unknown #
vertex $-1 $405 $472 #
straight-curve $-1 -48.626972258674883 -29.463935359384656 0 0 0 -1 I I #
edge $-1 $403 -29.463935359384656 $407 29.463935359384656 $401 $473 forward 7 unknown #
straight-curve $-1 0 -29.463935359384656 -8.0983335256108315 -1 0 0 I I #
vertex $-1 $288 $474 #
straight-curve $-1 0 29.463935359384656 -8.0983335256108315 1 0 0 I I #
point $-1 48.626972258674883 29.463935359384656 -8.0983335256108315 #
point $-1 48.626972258674883 -29.463935359384656 -8.0983335256108315 #
straight-curve $-1 -48.626972258674883 0 8.0983335256108315 0 -1 0 I I #
point $-1 -48.626972258674883 29.463935359384656 8.0983335256108315 #
point $-1 -48.626972258674883 -29.463935359384656 8.0983335256108315 #
straight-curve $-1 48.626972258674883 -29.463935359384656 0 0 0 -1 I I #
straight-curve $-1 48.626972258674883 29.463935359384656 0 0 0 -1 I I #
loop $-1 $-1 $311 $305 #
plane-surface $-1 0 -29.463935359384656 0 0 1 0 0 0 1 forward_v I I I I #
coedge $-1 $322 $313 $309 $420 forward $306 $-1 #
edge $-1 $424 -16.453967692347891 $317 -9.5659676417256385 $308 $475 forward 7 unknown #
edge $-1 $318 9.5659676417256385 $423 16.453967692347891 $418 $476 forward 7 unknown #
coedge $-1 $320 $311 $325 $433 reversed $416 $-1 #
coedge $-1 $311 $320 $322 $431 reversed $416 $-1 #
vertex $-1 $431 $477 #
vertex $-1 $312 $478 #
straight-curve $-1 -32.430305207453216 -29.463935359384656 0 0 0 1 I I #
straight-curve $-1 -16.965152603726608 -22.575935308762404 -8.0983335256108315 1 0 0 I I #
straight-curve $-1 -16.965152603726608 -22.575935308762404 8.0983335256108315 -1 0 0 I I #
point $-1 -32.430305207453216 -22.575935308762404 8.0983335256108315 #
point $-1 -32.430305207453216 -22.575935308762404 -8.0983335256108315 #
straight-curve $-1 -35.430305207453216 -29.463935359384656 0 0 0 -1 I I #
edge $-1 $423 32.430305207453216 $323 35.430305207453216 $422 $479 forward 7 unknown #
point $-1 -35.430305207453216 -29.463935359384656 -8.0983335256108315 #
edge $-1 $326 -35.430305207453216 $424 -32.430305207453216 $421 $480 forward 7 unknown #
point $-1 -35.430305207453216 -29.463935359384656 8.0983335256108315 #
edge $-1 $436 59.979931106201214 $439 65.934496837510864 $331 $481 forward 7 unknown #
vertex $-1 $345 $482 #
straight-curve $-1 8.8438447975721104 8.4564625761982235 8.0983335256108262 1 0 0 I I #
edge $-1 $439 0.77346867786749129 $342 14.592519118793973 $341 $483 forward 7 unknown #
vertex $-1 $438 $484 #
straight-curve $-1 -33.849049807751911 8.4564625761982235 53.680507197197301 -0.84804809178421925 0 0.52991927123019833 I I #
point $-1 39.097675288368563 8.4564625761982235 8.0983335256108333 #
point $-1 48.626972258674883 22.275513017124705 2.1437677943011764 #
straight-curve $-1 48.626972258674883 0 8.0983335256108315 0 1 0 I I #
vertex $-1 $348 $485 #
point $-1 42.922260224239054 12.404762702177216 1.7295546402833406 #
vertex $-1 $352 $486 #
point $-1 42.922260224239054 18.327212891145706 1.7295546402833406 #
edge $-1 $449 25.748326965452627 $452 33.71160529833206 $357 $487 forward 7 unknown #
vertex $-1 $371 $488 #
straight-curve $-1 -59.292803045599321 -6.3672299409150703 8.0983335256108333 -1 0 0 I I #
edge $-1 $452 0.2397759926801637 $368 12.01513190378965 $367 $489 forward 7 unknown #
vertex $-1 $451 $490 #
straight-curve $-1 -48.626972258674883 -6.3672299409150703 0.1350551927314001 0.69465836192734942 0 0.71933980857756763 I I #
point $-1 -40.936923944473904 -6.3672299409150703 8.0983335256108315 #
point $-1 -48.626972258674883 -18.142585852024556 0.1350551927314001 #
straight-curve $-1 -48.626972258674883 0 8.0983335256108315 0 -1 0 I I #
vertex $-1 $374 $491 #
point $-1 -38.546906229023556 -12.254907896469813 0.8759117054981731 #
coedge $-1 $389 $388 $381 $460 forward $378 $-1 #
edge $-1 $461 25.748326965452627 $464 33.71160529833206 $459 $492 forward 7 unknown #
vertex $-1 $393 $493 #
straight-curve $-1 -59.292803045599321 25.030585902646806 8.0983335256108333 -1 0 0 I I #
edge $-1 $464 -15.459131929100774 $390 -3.6837760179912884 $389 $494 forward 7 unknown #
vertex $-1 $463 $495 #
straight-curve $-1 -48.626972258674883 25.030585902646806 0.1350551927314001 0.69465836192734942 0 0.71933980857756763 I I #
point $-1 -40.936923944473904 25.030585902646806 8.0983335256108315 #
point $-1 -48.626972258674883 13.25522999153732 0.1350551927314001 #
straight-curve $-1 -48.626972258674883 0 8.0983335256108315 0 -1 0 I I #
vertex $-1 $396 $496 #
point $-1 -38.546906229023556 19.142907947092063 0.8759117054981731 #
straight-curve $-1 -48.626972258674883 29.463935359384656 0 0 0 -1 I I #
point $-1 -48.626972258674883 -29.463935359384656 -8.0983335256108315 #
straight-curve $-1 -48.626972258674883 0 -8.0983335256108315 0 1 0 I I #
point $-1 -48.626972258674883 29.463935359384656 -8.0983335256108315 #
straight-curve $-1 -32.430305207453216 -13.009967667036765 8.0983335256108315 0 1 0 I I #
straight-curve $-1 -32.430305207453216 -13.009967667036765 -8.0983335256108315 0 -1 0 I I #
point $-1 -32.430305207453216 -29.463935359384656 -8.0983335256108315 #
point $-1 -32.430305207453216 -29.463935359384656 8.0983335256108315 #
straight-curve $-1 0 -29.463935359384656 -8.0983335256108315 -1 0 0 I I #
straight-curve $-1 0 -29.463935359384656 8.0983335256108315 1 0 0 I I #
straight-curve $-1 48.626972258674883 8.4564625761982235 68.078264631812047 0 0 -1 I I #
point $-1 48.626972258674883 8.4564625761982235 8.0983335256108315 #
straight-curve $-1 48.62697225867489 7.6829938983307322 2.1437677943011693 0 1 0 I I #
point $-1 48.626972258674883 8.4564625761982235 2.1437677943011764 #
point $-1 41.544292861224633 12.404762702177216 1.4114258197293197 #
point $-1 41.544292861224633 18.327212891145706 1.4114258197293197 #
straight-curve $-1 -48.626972258674883 -6.3672299409150703 33.84666049106346 0 0 -1 I I #
point $-1 -48.626972258674883 -6.3672299409150703 8.0983335256108315 #
straight-curve $-1 -48.626972258674883 -6.1274539482349066 0.13505519273140032 0 -1 0 I I #
point $-1 -48.626972258674883 -6.3672299409150703 0.1350551927314001 #
point $-1 -38.497543335723122 -12.254907896469813 -1.9520846355116608 #
straight-curve $-1 -48.626972258674883 25.030585902646806 33.84666049106346 0 0 -1 I I #
point $-1 -48.626972258674883 25.030585902646806 8.0983335256108315 #
straight-curve $-1 -48.626972258674883 9.5714539735460313 0.13505519273140032 0 -1 0 I I #
point $-1 -48.626972258674883 25.030585902646806 0.1350551927314001 #
point $-1 -38.497543335723122 19.142907947092063 -1.9520846355116608 #
End-of-ACIS-data 