500 0 5 0           
7 Unknown 11 ACIS 5.0 NT 24 Thu Mar 25 18:19:48 1999 
-1 9.9999999999999995e-007 1e-010 
body $-1 $5 $-1 $6 #
body $-1 $7 $-1 $8 #
body $-1 $9 $-1 $10 #
body $-1 $11 $-1 $12 #
body $-1 $13 $-1 $14 #
lump $-1 $-1 $15 $0 #
transform $-1 1 0 0 0 1 0 0 0 1 46.994842371898557 20.154558592473492 8.1058021637377067 1 rotate no_reflect no_shear #
lump $-1 $-1 $16 $1 #
transform $-1 1 0 0 0 1 0 0 0 1 46.994842371898557 20.154558592473492 8.1058021637377067 1 rotate no_reflect no_shear #
lump $-1 $-1 $17 $2 #
transform $-1 1 0 0 0 1 0 0 0 1 46.994842371898557 20.154558592473492 8.1058021637377067 1 rotate no_reflect no_shear #
lump $-1 $-1 $18 $3 #
transform $-1 1 0 0 0 1 0 0 0 1 46.994842371898557 20.154558592473492 8.1058021637377067 1 rotate no_reflect no_shear #
lump $-1 $-1 $19 $4 #
transform $-1 1 0 0 0 1 0 0 0 1 46.994842371898557 20.154558592473492 8.1058021637377067 1 rotate no_reflect no_shear #
shell $-1 $-1 $-1 $20 $-1 $5 #
shell $-1 $-1 $-1 $21 $-1 $7 #
shell $-1 $-1 $-1 $22 $-1 $9 #
shell $-1 $-1 $-1 $23 $-1 $11 #
shell $-1 $-1 $-1 $24 $-1 $13 #
face $-1 $25 $26 $15 $-1 $27 forward single #
face $-1 $28 $29 $16 $-1 $30 forward single #
face $-1 $31 $32 $17 $-1 $33 reversed single #
face $-1 $34 $35 $18 $-1 $36 reversed single #
face $-1 $37 $38 $19 $-1 $39 reversed single #
face $-1 $40 $41 $15 $-1 $42 reversed single #
loop $-1 $-1 $43 $20 #
plane-surface $-1 0 0 8.1058021637377067 0 0 1 1 0 0 forward_v I I I I #
face $-1 $44 $45 $16 $-1 $46 forward single #
loop $-1 $-1 $47 $21 #
plane-surface $-1 -36.127240254255071 78.501755333291371 84.267441089662356 -1 0 0 0 0.84804810408105047 0.52991925155115449 forward_v I I I I #
face $-1 $48 $49 $17 $-1 $50 reversed single #
loop $-1 $51 $52 $22 #
cone-surface $-1 -44.821321948369857 17.284366420487107 3.9261551015059024 0 -0.84804810408105047 -0.52991925155115449 0.5 0 0 1 I I 0 1 0.5 forward I I I I #
face $-1 $53 $54 $18 $-1 $55 reversed single #
loop $-1 $56 $57 $23 #
cone-surface $-1 -41.561041313076814 17.284366420487107 3.9261551015059024 0 -0.84804810408105047 -0.52991925155115449 0.5 0 0 1 I I 0 1 0.5 forward I I I I #
face $-1 $58 $59 $19 $-1 $60 reversed single #
loop $-1 $61 $62 $24 #
cone-surface $-1 -38.300760677783771 17.284366420487107 3.9261551015059024 0 -0.84804810408105047 -0.52991925155115449 0.5 0 0 1 I I 0 1 0.5 forward I I I I #
face $-1 $63 $64 $15 $-1 $65 reversed single #
loop $-1 $-1 $66 $25 #
plane-surface $-1 0 0 -8.1058021637377067 0 0 1 1 0 0 forward_v I I I I #
coedge $-1 $67 $68 $69 $70 forward $26 $-1 #
face $-1 $71 $72 $16 $-1 $73 reversed single #
loop $-1 $-1 $74 $28 #
plane-surface $-1 -41.561041313076814 -1.2060186168613996 34.460497696700429 0 0.84804810408105047 0.52991925155115449 1 0 0 forward_v I I I I #
coedge $-1 $75 $76 $77 $78 reversed $29 $-1 #
face $-1 $79 $80 $17 $-1 $81 forward single #
loop $-1 $82 $83 $31 #
cone-surface $-1 -44.821321948369857 16.64833034242632 3.5287156628425365 0 -0.84804810408105047 -0.52991925155115449 0.25 0 0 1 I I -0.70710678118654746 0.70710678118654746 0.25 forward I I I I #
loop $-1 $-1 $84 $22 #
coedge $-1 $52 $52 $85 $86 reversed $32 $-1 #
face $-1 $87 $88 $18 $-1 $89 reversed single #
loop $-1 $90 $91 $34 #
cone-surface $-1 -41.561041313076814 16.64833034242632 3.5287156628425365 0 -0.84804810408105047 -0.52991925155115449 0.25 0 0 1 I I -0.70710678118654746 0.70710678118654746 0.25 forward I I I I #
loop $-1 $-1 $92 $23 #
coedge $-1 $57 $57 $93 $94 reversed $35 $-1 #
face $-1 $95 $96 $19 $-1 $97 reversed single #
loop $-1 $98 $99 $37 #
cone-surface $-1 -38.300760677783771 16.64833034242632 3.5287156628425365 0 -0.84804810408105047 -0.52991925155115449 0.25 0 0 1 I I -0.70710678118654746 0.70710678118654746 0.25 forward I I I I #
loop $-1 $-1 $100 $24 #
coedge $-1 $62 $62 $101 $102 reversed $38 $-1 #
face $-1 $103 $104 $15 $-1 $105 reversed single #
loop $-1 $-1 $106 $40 #
plane-surface $-1 0 -20.154558592473492 0 0 1 0 0 0 1 forward_v I I I I #
coedge $-1 $107 $108 $109 $110 forward $41 $-1 #
coedge $-1 $111 $43 $112 $113 forward $26 $-1 #
coedge $-1 $43 $111 $114 $115 forward $26 $-1 #
coedge $-1 $116 $117 $43 $70 reversed $118 $-1 #
edge $-1 $119 -20.154558592473492 $120 20.154558592473492 $69 $121 forward 7 unknown #
face $-1 $122 $123 $16 $-1 $124 forward single #
loop $-1 $-1 $125 $44 #
plane-surface $-1 0 20.154558592473492 0 0 -1 0 0 0 -1 forward_v I I I I #
coedge $-1 $126 $127 $125 $128 reversed $45 $-1 #
coedge $-1 $76 $47 $127 $129 forward $29 $-1 #
coedge $-1 $47 $75 $130 $131 reversed $29 $-1 #
coedge $-1 $132 $125 $47 $78 forward $72 $-1 #
edge $-1 $133 -41.857293254005938 $134 -34.027918381093471 $77 $135 forward 7 unknown #
face $-1 $136 $137 $17 $-1 $138 forward single #
loop $-1 $-1 $139 $48 #
plane-surface $-1 -36.127240254255071 78.501755333291371 84.267441089662356 -1 0 0 0 0.84804810408105047 0.52991925155115449 forward_v I I I I #
loop $-1 $-1 $140 $31 #
coedge $-1 $83 $83 $84 $141 forward $49 $-1 #
coedge $-1 $84 $84 $83 $141 reversed $51 $-1 #
coedge $-1 $85 $85 $52 $86 forward $137 $-1 #
edge $-1 $142 7.5400540218334812e-016 $142 6.2831853071796013 $85 $143 forward 7 unknown #
face $-1 $144 $145 $18 $-1 $146 reversed single #
loop $-1 $147 $148 $53 #
cone-surface $-1 -44.821321948369857 17.284366420487107 3.9261551015059024 0 -0.84804810408105047 -0.52991925155115449 0.5 0 0 1 I I 0 1 0.5 forward I I I I #
loop $-1 $-1 $149 $34 #
coedge $-1 $91 $91 $92 $150 forward $54 $-1 #
coedge $-1 $92 $92 $91 $150 reversed $56 $-1 #
coedge $-1 $93 $93 $57 $94 forward $151 $-1 #
edge $-1 $152 7.5400540218334812e-016 $152 6.2831853071796013 $93 $153 forward 7 unknown #
face $-1 $154 $155 $19 $-1 $156 reversed single #
loop $-1 $157 $158 $58 #
cone-surface $-1 -41.561041313076814 17.284366420487107 3.9261551015059024 0 -0.84804810408105047 -0.52991925155115449 0.5 0 0 1 I I 0 1 0.5 forward I I I I #
loop $-1 $-1 $159 $37 #
coedge $-1 $99 $99 $100 $160 forward $59 $-1 #
coedge $-1 $100 $100 $99 $160 reversed $61 $-1 #
coedge $-1 $101 $101 $62 $102 forward $161 $-1 #
edge $-1 $162 7.5400540218334812e-016 $162 6.2831853071796013 $101 $163 forward 7 unknown #
face $-1 $164 $165 $15 $-1 $166 reversed single #
loop $-1 $-1 $167 $63 #
plane-surface $-1 -46.994842371898557 0 0 1 0 0 0 0 -1 forward_v I I I I #
coedge $-1 $168 $114 $169 $170 forward $64 $-1 #
coedge $-1 $171 $66 $168 $172 forward $41 $-1 #
coedge $-1 $66 $171 $173 $174 forward $41 $-1 #
coedge $-1 $117 $116 $66 $110 reversed $118 $-1 #
edge $-1 $175 -20.154558592473492 $176 20.154558592473492 $109 $177 forward 7 unknown #
coedge $-1 $68 $67 $178 $179 forward $26 $-1 #
coedge $-1 $180 $181 $67 $113 reversed $165 $-1 #
edge $-1 $120 -46.994842371898557 $182 46.994842371898557 $112 $183 forward 7 unknown #
coedge $-1 $106 $184 $68 $115 reversed $64 $-1 #
edge $-1 $185 -46.994842371898557 $119 46.994842371898557 $114 $186 forward 7 unknown #
coedge $-1 $109 $69 $184 $187 forward $118 $-1 #
coedge $-1 $69 $109 $180 $188 reversed $118 $-1 #
loop $-1 $-1 $116 $164 #
vertex $-1 $70 $189 #
vertex $-1 $70 $190 #
straight-curve $-1 46.994842371898557 0 8.1058021637377067 0 1 0 I I #
face $-1 $191 $192 $16 $-1 $193 reversed single #
loop $-1 $-1 $130 $71 #
plane-surface $-1 0 0 8.1058021637377067 0 0 1 1 0 0 forward_v I I I I #
coedge $-1 $77 $194 $74 $128 forward $72 $-1 #
coedge $-1 $195 $74 $196 $197 reversed $45 $-1 #
coedge $-1 $74 $195 $75 $129 reversed $45 $-1 #
edge $-1 $198 -26.21432171536015 $133 -15.346719597716664 $125 $199 forward 7 unknown #
edge $-1 $133 -40.309117184946992 $200 -31.076887509253751 $75 $201 forward 7 unknown #
coedge $-1 $202 $203 $76 $131 forward $123 $-1 #
edge $-1 $134 19.096319074172193 $200 23.988655314063916 $130 $204 forward 7 unknown #
coedge $-1 $205 $77 $203 $206 reversed $72 $-1 #
vertex $-1 $128 $207 #
vertex $-1 $131 $208 #
straight-curve $-1 -36.127240254255071 20.154558592473492 42.133720544831178 0 0 1 I I #
face $-1 $209 $210 $17 $-1 $211 reversed single #
loop $-1 $212 $85 $79 #
plane-surface $-1 -41.561041313076814 -1.2060186168613996 34.460497696700429 0 0.84804810408105047 0.52991925155115449 1 0 0 forward_v I I I I #
coedge $-1 $213 $214 $215 $216 reversed $80 $-1 #
coedge $-1 $140 $140 $-1 $217 forward $82 $-1 #
edge $-1 $218 0 $218 6.2831853071796004 $83 $219 forward 7 unknown #
vertex $-1 $86 $220 #
ellipse-curve $-1 -44.821321948369857 17.708390472527629 4.1911147272814766 0 -0.84804810408105047 -0.52991925155115449 0.5 0 0 1 I I #
face $-1 $221 $222 $18 $-1 $223 forward single #
loop $-1 $224 $225 $87 #
cone-surface $-1 -44.821321948369857 16.64833034242632 3.5287156628425365 0 -0.84804810408105047 -0.52991925155115449 0.25 0 0 1 I I -0.70710678118654746 0.70710678118654746 0.25 forward I I I I #
loop $-1 $-1 $226 $53 #
coedge $-1 $148 $148 $227 $228 reversed $88 $-1 #
coedge $-1 $149 $149 $-1 $229 forward $90 $-1 #
edge $-1 $230 0 $230 6.2831853071796004 $91 $231 forward 7 unknown #
loop $-1 $232 $93 $221 #
vertex $-1 $94 $233 #
ellipse-curve $-1 -41.561041313076814 17.708390472527629 4.1911147272814766 0 -0.84804810408105047 -0.52991925155115449 0.5 0 0 1 I I #
face $-1 $234 $235 $19 $-1 $236 reversed single #
loop $-1 $237 $238 $95 #
cone-surface $-1 -41.561041313076814 16.64833034242632 3.5287156628425365 0 -0.84804810408105047 -0.52991925155115449 0.25 0 0 1 I I -0.70710678118654746 0.70710678118654746 0.25 forward I I I I #
loop $-1 $-1 $239 $58 #
coedge $-1 $158 $158 $240 $241 reversed $96 $-1 #
coedge $-1 $159 $159 $-1 $242 forward $98 $-1 #
edge $-1 $243 0 $243 6.2831853071796004 $99 $244 forward 7 unknown #
loop $-1 $245 $101 $246 #
vertex $-1 $102 $247 #
ellipse-curve $-1 -38.300760677783771 17.708390472527629 4.1911147272814766 0 -0.84804810408105047 -0.52991925155115449 0.5 0 0 1 I I #
face $-1 $-1 $118 $15 $-1 $248 reversed single #
loop $-1 $-1 $180 $103 #
plane-surface $-1 0 20.154558592473492 0 0 -1 0 0 0 -1 forward_v I I I I #
coedge $-1 $249 $178 $181 $250 forward $104 $-1 #
coedge $-1 $184 $106 $107 $172 reversed $64 $-1 #
coedge $-1 $178 $249 $106 $170 reversed $104 $-1 #
edge $-1 $185 -8.1058021637377067 $251 8.1058021637377067 $169 $252 forward 7 unknown #
coedge $-1 $108 $107 $249 $253 forward $41 $-1 #
edge $-1 $176 -46.994842371898557 $251 46.994842371898557 $168 $254 forward 7 unknown #
coedge $-1 $181 $180 $108 $174 reversed $165 $-1 #
edge $-1 $255 -46.994842371898557 $175 46.994842371898557 $173 $256 forward 7 unknown #
vertex $-1 $110 $257 #
vertex $-1 $187 $258 #
straight-curve $-1 46.994842371898557 0 -8.1058021637377067 0 -1 0 I I #
coedge $-1 $167 $169 $111 $179 reversed $104 $-1 #
edge $-1 $182 -20.154558592473492 $185 20.154558592473492 $178 $259 forward 7 unknown #
coedge $-1 $173 $112 $117 $188 forward $165 $-1 #
coedge $-1 $112 $173 $167 $250 reversed $165 $-1 #
vertex $-1 $113 $260 #
straight-curve $-1 0 20.154558592473492 8.1058021637377067 -1 0 0 I I #
coedge $-1 $114 $168 $116 $187 reversed $64 $-1 #
vertex $-1 $179 $261 #
straight-curve $-1 0 -20.154558592473492 8.1058021637377067 1 0 0 I I #
edge $-1 $119 -8.1058021637377067 $176 8.1058021637377067 $116 $262 forward 7 unknown #
edge $-1 $120 -8.1058021637377067 $175 8.1058021637377067 $117 $263 forward 7 unknown #
point $-1 46.994842371898557 -20.154558592473492 8.1058021637377067 #
point $-1 46.994842371898557 20.154558592473492 8.1058021637377067 #
face $-1 $264 $265 $16 $-1 $266 reversed single #
loop $-1 $-1 $267 $122 #
plane-surface $-1 0 0 -8.1058021637377067 0 0 1 1 0 0 forward_v I I I I #
coedge $-1 $125 $268 $269 $270 reversed $72 $-1 #
coedge $-1 $127 $126 $202 $271 reversed $45 $-1 #
coedge $-1 $269 $272 $126 $197 forward $273 $-1 #
edge $-1 $274 16.145261399163669 $198 25.377491074856913 $196 $275 forward 7 unknown #
vertex $-1 $270 $276 #
straight-curve $-1 -20.780520656538407 20.154558592473492 0.27642729082523942 1 0 0 I I #
vertex $-1 $271 $277 #
straight-curve $-1 -36.127240254255071 -1.2060186168613996 34.460497696700429 0 -0.52991925155115449 0.84804810408105047 I I #
coedge $-1 $278 $130 $195 $271 forward $123 $-1 #
coedge $-1 $130 $279 $132 $206 forward $123 $-1 #
straight-curve $-1 -36.127240254255071 39.250877666645685 8.1058021637377067 0 -1 0 I I #
coedge $-1 $268 $132 $280 $281 forward $72 $-1 #
edge $-1 $282 -46.994842371898557 $134 36.127240254255071 $132 $283 forward 7 unknown #
point $-1 -36.127240254255071 20.154558592473492 0.27642729082523942 #
point $-1 -36.127240254255071 20.154558592473492 8.1058021637377067 #
face $-1 $284 $285 $17 $-1 $286 forward single #
loop $-1 $-1 $287 $136 #
plane-surface $-1 0 20.154558592473492 0 0 -1 0 0 0 -1 forward_v I I I I #
loop $-1 $-1 $288 $79 #
coedge $-1 $214 $139 $289 $290 forward $80 $-1 #
coedge $-1 $139 $213 $291 $292 reversed $80 $-1 #
coedge $-1 $293 $287 $139 $216 forward $210 $-1 #
edge $-1 $294 -41.857293254005938 $295 -34.027918381093471 $215 $296 forward 7 unknown #
edge $-1 $297 1 $297 0 $140 $-1 forward 7 unknown #
vertex $-1 $141 $298 #
ellipse-curve $-1 -44.821321948369857 16.860342368446581 3.6611954757303251 0 0.84804810408105047 0.52991925155115449 0.5 0 0 1 I I #
point $-1 -44.321321948369857 17.708390472527633 4.1911147272814793 #
face $-1 $299 $151 $18 $-1 $300 forward single #
loop $-1 $-1 $301 $144 #
plane-surface $-1 -36.127240254255071 78.501755333291371 84.267441089662356 -1 0 0 0 0.84804810408105047 0.52991925155115449 forward_v I I I I #
loop $-1 $-1 $302 $87 #
coedge $-1 $225 $225 $226 $303 forward $145 $-1 #
coedge $-1 $226 $226 $225 $303 reversed $147 $-1 #
coedge $-1 $227 $227 $148 $228 forward $232 $-1 #
edge $-1 $304 7.5400540218334812e-016 $304 6.2831853071796013 $227 $305 forward 7 unknown #
edge $-1 $306 1 $306 0 $149 $-1 forward 7 unknown #
vertex $-1 $150 $307 #
ellipse-curve $-1 -41.561041313076814 16.860342368446581 3.6611954757303251 0 0.84804810408105047 0.52991925155115449 0.5 0 0 1 I I #
loop $-1 $308 $227 $221 #
point $-1 -41.061041313076814 17.708390472527633 4.1911147272814793 #
face $-1 $309 $310 $19 $-1 $311 reversed single #
loop $-1 $312 $313 $154 #
cone-surface $-1 -44.821321948369857 17.284366420487107 3.9261551015059024 0 -0.84804810408105047 -0.52991925155115449 0.5 0 0 1 I I 0 1 0.5 forward I I I I #
loop $-1 $-1 $314 $95 #
coedge $-1 $238 $238 $239 $315 forward $155 $-1 #
coedge $-1 $239 $239 $238 $315 reversed $157 $-1 #
coedge $-1 $240 $240 $158 $241 forward $245 $-1 #
edge $-1 $316 7.5400540218334812e-016 $316 6.2831853071796013 $240 $317 forward 7 unknown #
edge $-1 $318 1 $318 0 $159 $-1 forward 7 unknown #
vertex $-1 $160 $319 #
ellipse-curve $-1 -38.300760677783771 16.860342368446581 3.6611954757303251 0 0.84804810408105047 0.52991925155115449 0.5 0 0 1 I I #
loop $-1 $320 $240 $246 #
face $-1 $321 $161 $19 $-1 $322 forward single #
point $-1 -37.800760677783771 17.708390472527633 4.1911147272814793 #
plane-surface $-1 46.994842371898557 0 0 -1 0 0 0 0 1 forward_v I I I I #
coedge $-1 $169 $167 $171 $253 reversed $104 $-1 #
edge $-1 $182 -8.1058021637377067 $255 8.1058021637377067 $181 $323 forward 7 unknown #
vertex $-1 $253 $324 #
straight-curve $-1 -46.994842371898557 -20.154558592473492 0 0 0 -1 I I #
edge $-1 $251 -20.154558592473492 $255 20.154558592473492 $249 $325 forward 7 unknown #
straight-curve $-1 0 -20.154558592473492 -8.1058021637377067 -1 0 0 I I #
vertex $-1 $174 $326 #
straight-curve $-1 0 20.154558592473492 -8.1058021637377067 1 0 0 I I #
point $-1 46.994842371898557 20.154558592473492 -8.1058021637377067 #
point $-1 46.994842371898557 -20.154558592473492 -8.1058021637377067 #
straight-curve $-1 -46.994842371898557 0 8.1058021637377067 0 -1 0 I I #
point $-1 -46.994842371898557 20.154558592473492 8.1058021637377067 #
point $-1 -46.994842371898557 -20.154558592473492 8.1058021637377067 #
straight-curve $-1 46.994842371898557 -20.154558592473492 0 0 0 -1 I I #
straight-curve $-1 46.994842371898557 20.154558592473492 0 0 0 -1 I I #
face $-1 $327 $273 $16 $-1 $328 reversed single #
loop $-1 $-1 $329 $191 #
plane-surface $-1 0 -20.154558592473492 0 0 1 0 0 0 1 forward_v I I I I #
coedge $-1 $330 $331 $332 $333 forward $192 $-1 #
coedge $-1 $194 $205 $331 $334 reversed $72 $-1 #
coedge $-1 $335 $196 $194 $270 forward $273 $-1 #
edge $-1 $198 -0.27642729082523776 $336 8.1058021637377067 $194 $337 forward 7 unknown #
edge $-1 $200 15.346719597716664 $274 26.21432171536015 $202 $338 forward 7 unknown #
coedge $-1 $196 $339 $278 $340 reversed $273 $-1 #
loop $-1 $-1 $196 $264 #
vertex $-1 $340 $341 #
straight-curve $-1 -46.994842371898557 6.7065375158392113 21.797760483191425 0 0.52991925155115449 -0.84804810408105047 I I #
point $-1 -46.994842371898557 20.154558592473492 0.27642729082523776 #
point $-1 -36.127240254255071 15.26222235258177 8.1058021637377067 #
coedge $-1 $342 $202 $272 $340 forward $123 $-1 #
coedge $-1 $203 $342 $343 $344 forward $123 $-1 #
coedge $-1 $343 $332 $205 $281 reversed $345 $-1 #
edge $-1 $282 -8.1058021637377067 $346 8.1058021637377067 $280 $347 forward 7 unknown #
vertex $-1 $344 $348 #
straight-curve $-1 0 20.154558592473492 8.1058021637377067 -1 0 0 I I #
face $-1 $349 $350 $17 $-1 $351 reversed single #
loop $-1 $-1 $291 $209 #
plane-surface $-1 0 0 8.1058021637377067 0 0 1 1 0 0 forward_v I I I I #
coedge $-1 $215 $352 $288 $353 forward $210 $-1 #
coedge $-1 $354 $289 $287 $353 reversed $212 $-1 #
coedge $-1 $288 $355 $213 $290 reversed $212 $-1 #
edge $-1 $294 -40.309117184946992 $356 -31.076887509253751 $213 $357 forward 7 unknown #
coedge $-1 $358 $359 $214 $292 forward $285 $-1 #
edge $-1 $295 19.096319074172193 $356 23.988655314063916 $291 $360 forward 7 unknown #
coedge $-1 $361 $215 $359 $362 reversed $210 $-1 #
vertex $-1 $353 $363 #
vertex $-1 $292 $364 #
straight-curve $-1 -36.127240254255071 20.154558592473492 42.133720544831178 0 0 1 I I #
vertex $-1 $217 $365 #
point $-1 -44.321321948369857 16.860342368446581 3.6611954757303251 #
face $-1 $366 $367 $18 $-1 $368 reversed single #
plane-surface $-1 -41.561041313076814 -1.2060186168613996 34.460497696700429 0 0.84804810408105047 0.52991925155115449 1 0 0 forward_v I I I I #
coedge $-1 $369 $370 $371 $372 reversed $222 $-1 #
coedge $-1 $302 $302 $-1 $373 forward $224 $-1 #
edge $-1 $374 0 $374 6.2831853071796004 $225 $375 forward 7 unknown #
vertex $-1 $228 $376 #
ellipse-curve $-1 -44.821321948369857 17.708390472527629 4.1911147272814766 0 -0.84804810408105047 -0.52991925155115449 0.5 0 0 1 I I #
vertex $-1 $229 $377 #
point $-1 -41.061041313076814 16.860342368446581 3.6611954757303251 #
loop $-1 $-1 $378 $221 #
face $-1 $246 $379 $19 $-1 $380 forward single #
loop $-1 $381 $382 $234 #
cone-surface $-1 -44.821321948369857 16.64833034242632 3.5287156628425365 0 -0.84804810408105047 -0.52991925155115449 0.25 0 0 1 I I -0.70710678118654746 0.70710678118654746 0.25 forward I I I I #
loop $-1 $-1 $383 $154 #
coedge $-1 $313 $313 $384 $385 reversed $235 $-1 #
coedge $-1 $314 $314 $-1 $386 forward $237 $-1 #
edge $-1 $387 0 $387 6.2831853071796004 $238 $388 forward 7 unknown #
vertex $-1 $241 $389 #
ellipse-curve $-1 -41.561041313076814 17.708390472527629 4.1911147272814766 0 -0.84804810408105047 -0.52991925155115449 0.5 0 0 1 I I #
vertex $-1 $242 $390 #
point $-1 -37.800760677783771 16.860342368446581 3.6611954757303251 #
loop $-1 $391 $384 $246 #
face $-1 $392 $393 $19 $-1 $394 reversed single #
plane-surface $-1 -41.561041313076814 -1.2060186168613996 34.460497696700429 0 0.84804810408105047 0.52991925155115449 1 0 0 forward_v I I I I #
straight-curve $-1 -46.994842371898557 20.154558592473492 0 0 0 -1 I I #
point $-1 -46.994842371898557 -20.154558592473492 -8.1058021637377067 #
straight-curve $-1 -46.994842371898557 0 -8.1058021637377067 0 1 0 I I #
point $-1 -46.994842371898557 20.154558592473492 -8.1058021637377067 #
face $-1 $-1 $345 $16 $-1 $395 reversed single #
plane-surface $-1 -46.994842371898557 0 0 1 0 0 0 0 -1 forward_v I I I I #
coedge $-1 $396 $397 $339 $398 forward $265 $-1 #
coedge $-1 $399 $267 $396 $400 forward $192 $-1 #
coedge $-1 $267 $399 $268 $334 forward $192 $-1 #
coedge $-1 $280 $401 $267 $333 reversed $345 $-1 #
edge $-1 $346 -20.154558592473492 $402 20.154558592473492 $332 $403 forward 7 unknown #
edge $-1 $336 -46.994842371898557 $346 46.994842371898557 $268 $404 forward 7 unknown #
coedge $-1 $339 $269 $399 $405 reversed $273 $-1 #
vertex $-1 $334 $406 #
straight-curve $-1 -46.994842371898557 20.154558592473492 0 0 0 -1 I I #
straight-curve $-1 -20.780520656538407 15.26222235258177 8.1058021637377067 -1 0 0 I I #
coedge $-1 $272 $335 $329 $398 reversed $273 $-1 #
edge $-1 $274 -15.26222235258177 $407 20.154558592473492 $272 $408 forward 7 unknown #
point $-1 -46.994842371898557 15.26222235258177 8.1058021637377067 #
coedge $-1 $279 $278 $397 $409 forward $123 $-1 #
coedge $-1 $401 $280 $279 $344 reversed $345 $-1 #
edge $-1 $410 -20.154558592473492 $282 20.154558592473492 $343 $411 forward 7 unknown #
loop $-1 $-1 $401 $327 #
vertex $-1 $333 $412 #
straight-curve $-1 46.994842371898557 20.154558592473492 0 0 0 -1 I I #
point $-1 46.994842371898557 20.154558592473492 8.1058021637377067 #
face $-1 $413 $414 $17 $-1 $415 reversed single #
loop $-1 $-1 $416 $284 #
plane-surface $-1 0 0 -8.1058021637377067 0 0 1 1 0 0 forward_v I I I I #
coedge $-1 $287 $417 $418 $419 reversed $210 $-1 #
edge $-1 $420 -26.21432171536015 $294 -15.346719597716664 $287 $421 forward 7 unknown #
coedge $-1 $355 $288 $422 $423 reversed $212 $-1 #
coedge $-1 $289 $354 $358 $424 reversed $212 $-1 #
vertex $-1 $424 $425 #
straight-curve $-1 -36.127240254255071 -1.2060186168613996 34.460497696700429 0 -0.52991925155115449 0.84804810408105047 I I #
coedge $-1 $426 $291 $355 $424 forward $285 $-1 #
coedge $-1 $291 $427 $293 $362 forward $285 $-1 #
straight-curve $-1 -36.127240254255071 39.250877666645685 8.1058021637377067 0 -1 0 I I #
coedge $-1 $417 $293 $428 $429 forward $210 $-1 #
edge $-1 $430 -46.994842371898557 $295 36.127240254255071 $293 $431 forward 7 unknown #
point $-1 -36.127240254255071 20.154558592473492 0.27642729082523942 #
point $-1 -36.127240254255071 20.154558592473492 8.1058021637377067 #
point $-1 -44.821321948369857 16.436318316406059 3.3962358499547478 #
face $-1 $432 $433 $18 $-1 $434 forward single #
loop $-1 $-1 $435 $299 #
plane-surface $-1 0 20.154558592473492 0 0 -1 0 0 0 -1 forward_v I I I I #
coedge $-1 $370 $301 $436 $437 forward $222 $-1 #
coedge $-1 $301 $369 $438 $439 reversed $222 $-1 #
coedge $-1 $440 $435 $301 $372 forward $367 $-1 #
edge $-1 $441 -41.857293254005938 $442 -34.027918381093471 $371 $443 forward 7 unknown #
edge $-1 $444 1 $444 0 $302 $-1 forward 7 unknown #
vertex $-1 $303 $445 #
ellipse-curve $-1 -44.821321948369857 16.860342368446581 3.6611954757303251 0 0.84804810408105047 0.52991925155115449 0.5 0 0 1 I I #
point $-1 -44.321321948369857 17.708390472527633 4.1911147272814793 #
point $-1 -41.561041313076814 16.436318316406059 3.3962358499547478 #
coedge $-1 $446 $436 $435 $447 reversed $308 $-1 #
loop $-1 $-1 $448 $309 #
plane-surface $-1 -36.127240254255071 78.501755333291371 84.267441089662356 -1 0 0 0 0.84804810408105047 0.52991925155115449 forward_v I I I I #
loop $-1 $-1 $449 $234 #
coedge $-1 $382 $382 $383 $450 forward $310 $-1 #
coedge $-1 $383 $383 $382 $450 reversed $312 $-1 #
coedge $-1 $384 $384 $313 $385 forward $320 $-1 #
edge $-1 $451 7.5400540218334812e-016 $451 6.2831853071796013 $384 $452 forward 7 unknown #
edge $-1 $453 1 $453 0 $314 $-1 forward 7 unknown #
vertex $-1 $315 $454 #
ellipse-curve $-1 -41.561041313076814 16.860342368446581 3.6611954757303251 0 0.84804810408105047 0.52991925155115449 0.5 0 0 1 I I #
point $-1 -41.061041313076814 17.708390472527633 4.1911147272814793 #
point $-1 -38.300760677783771 16.436318316406059 3.3962358499547478 #
loop $-1 $-1 $455 $246 #
face $-1 $456 $457 $19 $-1 $458 forward single #
loop $-1 $-1 $459 $321 #
plane-surface $-1 0 20.154558592473492 0 0 -1 0 0 0 -1 forward_v I I I I #
plane-surface $-1 46.994842371898557 0 0 -1 0 0 0 0 1 forward_v I I I I #
coedge $-1 $460 $329 $330 $400 reversed $265 $-1 #
coedge $-1 $329 $460 $342 $409 reversed $265 $-1 #
edge $-1 $407 -8.1058021637377067 $461 8.1058021637377067 $339 $462 forward 7 unknown #
coedge $-1 $331 $330 $335 $405 forward $192 $-1 #
edge $-1 $402 -46.994842371898557 $461 46.994842371898557 $396 $463 forward 7 unknown #
coedge $-1 $332 $343 $460 $464 forward $345 $-1 #
vertex $-1 $464 $465 #
straight-curve $-1 46.994842371898557 0 -8.1058021637377067 0 -1 0 I I #
straight-curve $-1 0 20.154558592473492 -8.1058021637377067 1 0 0 I I #
edge $-1 $461 -20.154558592473492 $336 20.154558592473492 $335 $466 forward 7 unknown #
point $-1 -46.994842371898557 20.154558592473492 -8.1058021637377067 #
vertex $-1 $340 $467 #
straight-curve $-1 -46.994842371898557 0 8.1058021637377067 0 -1 0 I I #
edge $-1 $407 -46.994842371898557 $410 46.994842371898557 $397 $468 forward 7 unknown #
vertex $-1 $344 $469 #
straight-curve $-1 46.994842371898557 0 8.1058021637377067 0 1 0 I I #
point $-1 46.994842371898557 20.154558592473492 -8.1058021637377067 #
face $-1 $470 $471 $17 $-1 $472 reversed single #
loop $-1 $-1 $473 $349 #
plane-surface $-1 0 -20.154558592473492 0 0 1 0 0 0 1 forward_v I I I I #
coedge $-1 $474 $475 $476 $477 forward $350 $-1 #
coedge $-1 $352 $361 $475 $478 reversed $210 $-1 #
coedge $-1 $479 $422 $352 $419 forward $471 $-1 #
edge $-1 $420 -0.27642729082523776 $480 8.1058021637377067 $352 $481 forward 7 unknown #
vertex $-1 $419 $482 #
straight-curve $-1 -20.780520656538407 20.154558592473492 0.27642729082523942 1 0 0 I I #
coedge $-1 $418 $483 $354 $423 forward $471 $-1 #
edge $-1 $484 16.145261399163669 $420 25.377491074856913 $422 $485 forward 7 unknown #
edge $-1 $356 15.346719597716664 $484 26.21432171536015 $358 $486 forward 7 unknown #
point $-1 -36.127240254255071 15.26222235258177 8.1058021637377067 #
coedge $-1 $487 $358 $483 $488 forward $285 $-1 #
coedge $-1 $359 $487 $489 $490 forward $285 $-1 #
coedge $-1 $489 $476 $361 $429 reversed $491 $-1 #
edge $-1 $430 -8.1058021637377067 $492 8.1058021637377067 $428 $493 forward 7 unknown #
vertex $-1 $490 $494 #
straight-curve $-1 0 20.154558592473492 8.1058021637377067 -1 0 0 I I #
face $-1 $495 $496 $18 $-1 $497 reversed single #
loop $-1 $-1 $438 $366 #
plane-surface $-1 0 0 8.1058021637377067 0 0 1 1 0 0 forward_v I I I I #
coedge $-1 $371 $498 $378 $447 forward $367 $-1 #
coedge $-1 $378 $499 $369 $437 reversed $308 $-1 #
edge $-1 $441 -40.309117184946992 $500 -31.076887509253751 $369 $501 forward 7 unknown #
coedge $-1 $502 $503 $370 $439 forward $433 $-1 #
edge $-1 $442 19.096319074172193 $500 23.988655314063916 $438 $504 forward 7 unknown #
coedge $-1 $505 $371 $503 $506 reversed $367 $-1 #
vertex $-1 $447 $507 #
vertex $-1 $439 $508 #
straight-curve $-1 -36.127240254255071 20.154558592473492 42.133720544831178 0 0 1 I I #
vertex $-1 $373 $509 #
point $-1 -44.321321948369857 16.860342368446581 3.6611954757303251 #
coedge $-1 $499 $378 $510 $511 reversed $308 $-1 #
edge $-1 $512 -26.21432171536015 $441 -15.346719597716664 $435 $513 forward 7 unknown #
coedge $-1 $514 $515 $516 $517 reversed $379 $-1 #
coedge $-1 $449 $449 $-1 $518 forward $381 $-1 #
edge $-1 $519 0 $519 6.2831853071796004 $382 $520 forward 7 unknown #
vertex $-1 $385 $521 #
ellipse-curve $-1 -44.821321948369857 17.708390472527629 4.1911147272814766 0 -0.84804810408105047 -0.52991925155115449 0.5 0 0 1 I I #
vertex $-1 $386 $522 #
point $-1 -41.061041313076814 16.860342368446581 3.6611954757303251 #
coedge $-1 $523 $524 $459 $525 reversed $391 $-1 #
face $-1 $526 $527 $19 $-1 $528 reversed single #
loop $-1 $-1 $529 $392 #
plane-surface $-1 0 0 8.1058021637377067 0 0 1 1 0 0 forward_v I I I I #
coedge $-1 $516 $530 $455 $525 forward $393 $-1 #
coedge $-1 $397 $396 $401 $464 reversed $265 $-1 #
vertex $-1 $405 $531 #
straight-curve $-1 -46.994842371898557 -20.154558592473492 0 0 0 -1 I I #
straight-curve $-1 0 -20.154558592473492 -8.1058021637377067 -1 0 0 I I #
edge $-1 $410 -8.1058021637377067 $402 8.1058021637377067 $401 $532 forward 7 unknown #
point $-1 46.994842371898557 -20.154558592473492 -8.1058021637377067 #
straight-curve $-1 -46.994842371898557 0 -8.1058021637377067 0 1 0 I I #
point $-1 -46.994842371898557 -20.154558592473492 8.1058021637377067 #
straight-curve $-1 0 -20.154558592473492 8.1058021637377067 1 0 0 I I #
point $-1 46.994842371898557 -20.154558592473492 8.1058021637377067 #
face $-1 $-1 $491 $17 $-1 $533 reversed single #
loop $-1 $-1 $422 $413 #
plane-surface $-1 -46.994842371898557 0 0 1 0 0 0 0 -1 forward_v I I I I #
coedge $-1 $534 $535 $536 $537 forward $414 $-1 #
coedge $-1 $538 $416 $534 $539 forward $350 $-1 #
coedge $-1 $416 $538 $417 $478 forward $350 $-1 #
coedge $-1 $428 $540 $416 $477 reversed $491 $-1 #
edge $-1 $492 -20.154558592473492 $541 20.154558592473492 $476 $542 forward 7 unknown #
edge $-1 $480 -46.994842371898557 $492 46.994842371898557 $417 $543 forward 7 unknown #
coedge $-1 $536 $418 $538 $544 reversed $471 $-1 #
vertex $-1 $478 $545 #
straight-curve $-1 -46.994842371898557 20.154558592473492 0 0 0 -1 I I #
point $-1 -46.994842371898557 20.154558592473492 0.27642729082523776 #
coedge $-1 $422 $536 $426 $488 reversed $471 $-1 #
vertex $-1 $488 $546 #
straight-curve $-1 -46.994842371898557 6.7065375158392113 21.797760483191425 0 0.52991925155115449 -0.84804810408105047 I I #
straight-curve $-1 -20.780520656538407 15.26222235258177 8.1058021637377067 -1 0 0 I I #
coedge $-1 $427 $426 $535 $547 forward $285 $-1 #
edge $-1 $484 -15.26222235258177 $548 20.154558592473492 $483 $549 forward 7 unknown #
coedge $-1 $540 $428 $427 $490 reversed $491 $-1 #
edge $-1 $550 -20.154558592473492 $430 20.154558592473492 $489 $551 forward 7 unknown #
loop $-1 $-1 $540 $470 #
vertex $-1 $477 $552 #
straight-curve $-1 46.994842371898557 20.154558592473492 0 0 0 -1 I I #
point $-1 46.994842371898557 20.154558592473492 8.1058021637377067 #
face $-1 $553 $554 $18 $-1 $555 reversed single #
loop $-1 $-1 $556 $432 #
plane-surface $-1 0 0 -8.1058021637377067 0 0 1 1 0 0 forward_v I I I I #
coedge $-1 $435 $557 $558 $559 reversed $367 $-1 #
coedge $-1 $436 $446 $502 $560 reversed $308 $-1 #
vertex $-1 $560 $561 #
straight-curve $-1 -36.127240254255071 -1.2060186168613996 34.460497696700429 0 -0.52991925155115449 0.84804810408105047 I I #
coedge $-1 $562 $438 $499 $560 forward $433 $-1 #
coedge $-1 $438 $563 $440 $506 forward $433 $-1 #
straight-curve $-1 -36.127240254255071 39.250877666645685 8.1058021637377067 0 -1 0 I I #
coedge $-1 $557 $440 $564 $565 forward $367 $-1 #
edge $-1 $566 -46.994842371898557 $442 36.127240254255071 $440 $567 forward 7 unknown #
point $-1 -36.127240254255071 20.154558592473492 0.27642729082523942 #
point $-1 -36.127240254255071 20.154558592473492 8.1058021637377067 #
point $-1 -44.821321948369857 16.436318316406059 3.3962358499547478 #
coedge $-1 $558 $568 $446 $511 forward $569 $-1 #
edge $-1 $570 16.145261399163669 $512 25.377491074856913 $510 $571 forward 7 unknown #
vertex $-1 $559 $572 #
straight-curve $-1 -20.780520656538407 20.154558592473492 0.27642729082523942 1 0 0 I I #
coedge $-1 $515 $448 $524 $573 forward $379 $-1 #
coedge $-1 $448 $514 $529 $574 reversed $379 $-1 #
coedge $-1 $575 $459 $448 $517 forward $393 $-1 #
edge $-1 $576 -41.857293254005938 $577 -34.027918381093471 $516 $578 forward 7 unknown #
edge $-1 $579 1 $579 0 $449 $-1 forward 7 unknown #
vertex $-1 $450 $580 #
ellipse-curve $-1 -44.821321948369857 16.860342368446581 3.6611954757303251 0 0.84804810408105047 0.52991925155115449 0.5 0 0 1 I I #
point $-1 -44.321321948369857 17.708390472527633 4.1911147272814793 #
point $-1 -41.561041313076814 16.436318316406059 3.3962358499547478 #
coedge $-1 $581 $455 $582 $583 reversed $391 $-1 #
coedge $-1 $455 $581 $514 $573 reversed $391 $-1 #
edge $-1 $584 -26.21432171536015 $576 -15.346719597716664 $459 $585 forward 7 unknown #
face $-1 $586 $587 $19 $-1 $588 reversed single #
loop $-1 $-1 $589 $456 #
plane-surface $-1 0 0 -8.1058021637377067 0 0 1 1 0 0 forward_v I I I I #
coedge $-1 $590 $591 $515 $574 forward $457 $-1 #
coedge $-1 $459 $592 $593 $594 reversed $393 $-1 #
point $-1 -46.994842371898557 -20.154558592473492 -8.1058021637377067 #
straight-curve $-1 46.994842371898557 -20.154558592473492 0 0 0 -1 I I #
plane-surface $-1 46.994842371898557 0 0 -1 0 0 0 0 1 forward_v I I I I #
coedge $-1 $595 $473 $474 $539 reversed $414 $-1 #
coedge $-1 $473 $595 $487 $547 reversed $414 $-1 #
coedge $-1 $483 $479 $473 $537 reversed $471 $-1 #
edge $-1 $548 -8.1058021637377067 $596 8.1058021637377067 $536 $597 forward 7 unknown #
coedge $-1 $475 $474 $479 $544 forward $350 $-1 #
edge $-1 $541 -46.994842371898557 $596 46.994842371898557 $534 $598 forward 7 unknown #
coedge $-1 $476 $489 $595 $599 forward $491 $-1 #
vertex $-1 $599 $600 #
straight-curve $-1 46.994842371898557 0 -8.1058021637377067 0 -1 0 I I #
straight-curve $-1 0 20.154558592473492 -8.1058021637377067 1 0 0 I I #
edge $-1 $596 -20.154558592473492 $480 20.154558592473492 $479 $601 forward 7 unknown #
point $-1 -46.994842371898557 20.154558592473492 -8.1058021637377067 #
point $-1 -46.994842371898557 15.26222235258177 8.1058021637377067 #
edge $-1 $548 -46.994842371898557 $550 46.994842371898557 $535 $602 forward 7 unknown #
vertex $-1 $488 $603 #
straight-curve $-1 -46.994842371898557 0 8.1058021637377067 0 -1 0 I I #
vertex $-1 $490 $604 #
straight-curve $-1 46.994842371898557 0 8.1058021637377067 0 1 0 I I #
point $-1 46.994842371898557 20.154558592473492 -8.1058021637377067 #
face $-1 $605 $569 $18 $-1 $606 reversed single #
loop $-1 $-1 $607 $495 #
plane-surface $-1 0 -20.154558592473492 0 0 1 0 0 0 1 forward_v I I I I #
coedge $-1 $608 $609 $610 $611 forward $496 $-1 #
coedge $-1 $498 $505 $609 $612 reversed $367 $-1 #
coedge $-1 $613 $510 $498 $559 forward $569 $-1 #
edge $-1 $512 -0.27642729082523776 $614 8.1058021637377067 $498 $615 forward 7 unknown #
edge $-1 $500 15.346719597716664 $570 26.21432171536015 $502 $616 forward 7 unknown #
point $-1 -36.127240254255071 15.26222235258177 8.1058021637377067 #
coedge $-1 $617 $502 $568 $618 forward $433 $-1 #
coedge $-1 $503 $617 $619 $620 forward $433 $-1 #
coedge $-1 $619 $610 $505 $565 reversed $621 $-1 #
edge $-1 $566 -8.1058021637377067 $622 8.1058021637377067 $564 $623 forward 7 unknown #
vertex $-1 $620 $624 #
straight-curve $-1 0 20.154558592473492 8.1058021637377067 -1 0 0 I I #
coedge $-1 $510 $625 $562 $618 reversed $569 $-1 #
loop $-1 $-1 $510 $553 #
vertex $-1 $618 $626 #
straight-curve $-1 -46.994842371898557 6.7065375158392113 21.797760483191425 0 0.52991925155115449 -0.84804810408105047 I I #
point $-1 -46.994842371898557 20.154558592473492 0.27642729082523776 #
edge $-1 $576 -40.309117184946992 $627 -31.076887509253751 $514 $628 forward 7 unknown #
edge $-1 $577 19.096319074172193 $627 23.988655314063916 $529 $629 forward 7 unknown #
coedge $-1 $630 $516 $591 $631 reversed $393 $-1 #
vertex $-1 $525 $632 #
vertex $-1 $574 $633 #
straight-curve $-1 -36.127240254255071 20.154558592473492 42.133720544831178 0 0 1 I I #
vertex $-1 $518 $634 #
point $-1 -44.321321948369857 16.860342368446581 3.6611954757303251 #
coedge $-1 $524 $523 $590 $635 reversed $391 $-1 #
coedge $-1 $593 $636 $523 $583 forward $637 $-1 #
edge $-1 $638 16.145261399163669 $584 25.377491074856913 $582 $639 forward 7 unknown #
vertex $-1 $594 $640 #
straight-curve $-1 -20.780520656538407 20.154558592473492 0.27642729082523942 1 0 0 I I #
face $-1 $641 $637 $19 $-1 $642 reversed single #
loop $-1 $-1 $643 $526 #
plane-surface $-1 0 -20.154558592473492 0 0 1 0 0 0 1 forward_v I I I I #
coedge $-1 $644 $645 $646 $647 forward $527 $-1 #
coedge $-1 $648 $529 $581 $635 forward $457 $-1 #
coedge $-1 $529 $649 $575 $631 forward $457 $-1 #
coedge $-1 $530 $630 $645 $650 reversed $393 $-1 #
coedge $-1 $651 $582 $530 $594 forward $637 $-1 #
edge $-1 $584 -0.27642729082523776 $652 8.1058021637377067 $530 $653 forward 7 unknown #
coedge $-1 $535 $534 $540 $599 reversed $414 $-1 #
vertex $-1 $544 $654 #
straight-curve $-1 -46.994842371898557 -20.154558592473492 0 0 0 -1 I I #
straight-curve $-1 0 -20.154558592473492 -8.1058021637377067 -1 0 0 I I #
edge $-1 $550 -8.1058021637377067 $541 8.1058021637377067 $540 $655 forward 7 unknown #
point $-1 46.994842371898557 -20.154558592473492 -8.1058021637377067 #
straight-curve $-1 -46.994842371898557 0 -8.1058021637377067 0 1 0 I I #
straight-curve $-1 0 -20.154558592473492 8.1058021637377067 1 0 0 I I #
point $-1 -46.994842371898557 -20.154558592473492 8.1058021637377067 #
point $-1 46.994842371898557 -20.154558592473492 8.1058021637377067 #
face $-1 $-1 $621 $18 $-1 $656 reversed single #
plane-surface $-1 -46.994842371898557 0 0 1 0 0 0 0 -1 forward_v I I I I #
coedge $-1 $657 $658 $625 $659 forward $554 $-1 #
coedge $-1 $660 $556 $657 $661 forward $496 $-1 #
coedge $-1 $556 $660 $557 $612 forward $496 $-1 #
coedge $-1 $564 $662 $556 $611 reversed $621 $-1 #
edge $-1 $622 -20.154558592473492 $663 20.154558592473492 $610 $664 forward 7 unknown #
edge $-1 $614 -46.994842371898557 $622 46.994842371898557 $557 $665 forward 7 unknown #
coedge $-1 $625 $558 $660 $666 reversed $569 $-1 #
vertex $-1 $612 $667 #
straight-curve $-1 -46.994842371898557 20.154558592473492 0 0 0 -1 I I #
straight-curve $-1 -20.780520656538407 15.26222235258177 8.1058021637377067 -1 0 0 I I #
coedge $-1 $563 $562 $658 $668 forward $433 $-1 #
edge $-1 $570 -15.26222235258177 $669 20.154558592473492 $568 $670 forward 7 unknown #
coedge $-1 $662 $564 $563 $620 reversed $621 $-1 #
edge $-1 $671 -20.154558592473492 $566 20.154558592473492 $619 $672 forward 7 unknown #
loop $-1 $-1 $662 $605 #
vertex $-1 $611 $673 #
straight-curve $-1 46.994842371898557 20.154558592473492 0 0 0 -1 I I #
point $-1 46.994842371898557 20.154558592473492 8.1058021637377067 #
coedge $-1 $568 $613 $607 $659 reversed $569 $-1 #
point $-1 -46.994842371898557 15.26222235258177 8.1058021637377067 #
vertex $-1 $635 $674 #
straight-curve $-1 -36.127240254255071 -1.2060186168613996 34.460497696700429 0 -0.52991925155115449 0.84804810408105047 I I #
straight-curve $-1 -36.127240254255071 39.250877666645685 8.1058021637377067 0 -1 0 I I #
coedge $-1 $592 $575 $675 $676 forward $393 $-1 #
edge $-1 $677 -46.994842371898557 $577 36.127240254255071 $575 $678 forward 7 unknown #
point $-1 -36.127240254255071 20.154558592473492 0.27642729082523942 #
point $-1 -36.127240254255071 20.154558592473492 8.1058021637377067 #
point $-1 -44.821321948369857 16.436318316406059 3.3962358499547478 #
edge $-1 $627 15.346719597716664 $638 26.21432171536015 $590 $679 forward 7 unknown #
coedge $-1 $582 $680 $648 $681 reversed $637 $-1 #
loop $-1 $-1 $582 $586 #
vertex $-1 $681 $682 #
straight-curve $-1 -46.994842371898557 6.7065375158392113 21.797760483191425 0 0.52991925155115449 -0.84804810408105047 I I #
point $-1 -46.994842371898557 20.154558592473492 0.27642729082523776 #
face $-1 $-1 $683 $19 $-1 $684 reversed single #
plane-surface $-1 -46.994842371898557 0 0 1 0 0 0 0 -1 forward_v I I I I #
coedge $-1 $685 $686 $680 $687 forward $587 $-1 #
coedge $-1 $688 $589 $685 $689 forward $527 $-1 #
coedge $-1 $589 $688 $592 $650 forward $527 $-1 #
coedge $-1 $675 $690 $589 $647 reversed $683 $-1 #
edge $-1 $691 -20.154558592473492 $692 20.154558592473492 $646 $693 forward 7 unknown #
coedge $-1 $694 $590 $636 $681 forward $457 $-1 #
coedge $-1 $591 $694 $695 $696 forward $457 $-1 #
edge $-1 $652 -46.994842371898557 $691 46.994842371898557 $592 $697 forward 7 unknown #
coedge $-1 $680 $593 $688 $698 reversed $637 $-1 #
vertex $-1 $650 $699 #
straight-curve $-1 -46.994842371898557 20.154558592473492 0 0 0 -1 I I #
point $-1 -46.994842371898557 -20.154558592473492 -8.1058021637377067 #
straight-curve $-1 46.994842371898557 -20.154558592473492 0 0 0 -1 I I #
plane-surface $-1 46.994842371898557 0 0 -1 0 0 0 0 1 forward_v I I I I #
coedge $-1 $700 $607 $608 $661 reversed $554 $-1 #
coedge $-1 $607 $700 $617 $668 reversed $554 $-1 #
edge $-1 $669 -8.1058021637377067 $701 8.1058021637377067 $625 $702 forward 7 unknown #
coedge $-1 $609 $608 $613 $666 forward $496 $-1 #
edge $-1 $663 -46.994842371898557 $701 46.994842371898557 $657 $703 forward 7 unknown #
coedge $-1 $610 $619 $700 $704 forward $621 $-1 #
vertex $-1 $704 $705 #
straight-curve $-1 46.994842371898557 0 -8.1058021637377067 0 -1 0 I I #
straight-curve $-1 0 20.154558592473492 -8.1058021637377067 1 0 0 I I #
edge $-1 $701 -20.154558592473492 $614 20.154558592473492 $613 $706 forward 7 unknown #
point $-1 -46.994842371898557 20.154558592473492 -8.1058021637377067 #
edge $-1 $669 -46.994842371898557 $671 46.994842371898557 $658 $707 forward 7 unknown #
vertex $-1 $618 $708 #
straight-curve $-1 -46.994842371898557 0 8.1058021637377067 0 -1 0 I I #
vertex $-1 $620 $709 #
straight-curve $-1 46.994842371898557 0 8.1058021637377067 0 1 0 I I #
point $-1 46.994842371898557 20.154558592473492 -8.1058021637377067 #
point $-1 -36.127240254255071 15.26222235258177 8.1058021637377067 #
coedge $-1 $695 $646 $630 $676 reversed $683 $-1 #
edge $-1 $677 -8.1058021637377067 $691 8.1058021637377067 $675 $710 forward 7 unknown #
vertex $-1 $696 $711 #
straight-curve $-1 0 20.154558592473492 8.1058021637377067 -1 0 0 I I #
straight-curve $-1 -20.780520656538407 15.26222235258177 8.1058021637377067 -1 0 0 I I #
coedge $-1 $636 $651 $643 $687 reversed $637 $-1 #
edge $-1 $638 -15.26222235258177 $712 20.154558592473492 $636 $713 forward 7 unknown #
point $-1 -46.994842371898557 15.26222235258177 8.1058021637377067 #
loop $-1 $-1 $690 $641 #
plane-surface $-1 46.994842371898557 0 0 -1 0 0 0 0 1 forward_v I I I I #
coedge $-1 $714 $643 $644 $689 reversed $587 $-1 #
coedge $-1 $643 $714 $694 $715 reversed $587 $-1 #
edge $-1 $712 -8.1058021637377067 $716 8.1058021637377067 $680 $717 forward 7 unknown #
coedge $-1 $645 $644 $651 $698 forward $527 $-1 #
edge $-1 $692 -46.994842371898557 $716 46.994842371898557 $685 $718 forward 7 unknown #
coedge $-1 $646 $695 $714 $719 forward $683 $-1 #
vertex $-1 $647 $720 #
vertex $-1 $719 $721 #
straight-curve $-1 46.994842371898557 0 -8.1058021637377067 0 -1 0 I I #
coedge $-1 $649 $648 $686 $715 forward $457 $-1 #
coedge $-1 $690 $675 $649 $696 reversed $683 $-1 #
edge $-1 $722 -20.154558592473492 $677 20.154558592473492 $695 $723 forward 7 unknown #
straight-curve $-1 0 20.154558592473492 -8.1058021637377067 1 0 0 I I #
edge $-1 $716 -20.154558592473492 $652 20.154558592473492 $651 $724 forward 7 unknown #
point $-1 -46.994842371898557 20.154558592473492 -8.1058021637377067 #
coedge $-1 $658 $657 $662 $704 reversed $554 $-1 #
vertex $-1 $666 $725 #
straight-curve $-1 -46.994842371898557 -20.154558592473492 0 0 0 -1 I I #
straight-curve $-1 0 -20.154558592473492 -8.1058021637377067 -1 0 0 I I #
edge $-1 $671 -8.1058021637377067 $663 8.1058021637377067 $662 $726 forward 7 unknown #
point $-1 46.994842371898557 -20.154558592473492 -8.1058021637377067 #
straight-curve $-1 -46.994842371898557 0 -8.1058021637377067 0 1 0 I I #
straight-curve $-1 0 -20.154558592473492 8.1058021637377067 1 0 0 I I #
point $-1 -46.994842371898557 -20.154558592473492 8.1058021637377067 #
point $-1 46.994842371898557 -20.154558592473492 8.1058021637377067 #
straight-curve $-1 46.994842371898557 20.154558592473492 0 0 0 -1 I I #
point $-1 46.994842371898557 20.154558592473492 8.1058021637377067 #
vertex $-1 $681 $727 #
straight-curve $-1 -46.994842371898557 0 8.1058021637377067 0 -1 0 I I #
coedge $-1 $686 $685 $690 $719 reversed $587 $-1 #
edge $-1 $712 -46.994842371898557 $722 46.994842371898557 $686 $728 forward 7 unknown #
vertex $-1 $698 $729 #
straight-curve $-1 -46.994842371898557 -20.154558592473492 0 0 0 -1 I I #
straight-curve $-1 0 -20.154558592473492 -8.1058021637377067 -1 0 0 I I #
edge $-1 $722 -8.1058021637377067 $692 8.1058021637377067 $690 $730 forward 7 unknown #
point $-1 46.994842371898557 20.154558592473492 -8.1058021637377067 #
point $-1 46.994842371898557 -20.154558592473492 -8.1058021637377067 #
vertex $-1 $696 $731 #
straight-curve $-1 46.994842371898557 0 8.1058021637377067 0 1 0 I I #
straight-curve $-1 -46.994842371898557 0 -8.1058021637377067 0 1 0 I I #
point $-1 -46.994842371898557 -20.154558592473492 -8.1058021637377067 #
straight-curve $-1 46.994842371898557 -20.154558592473492 0 0 0 -1 I I #
point $-1 -46.994842371898557 -20.154558592473492 8.1058021637377067 #
straight-curve $-1 0 -20.154558592473492 8.1058021637377067 1 0 0 I I #
point $-1 -46.994842371898557 -20.154558592473492 -8.1058021637377067 #
straight-curve $-1 46.994842371898557 -20.154558592473492 0 0 0 -1 I I #
point $-1 46.994842371898557 -20.154558592473492 8.1058021637377067 #
End-of-ACIS-data 