500 0 8 0           
7 Unknown 11 ACIS 5.0 NT 24 Thu Mar 25 21:07:11 1999 
-1 9.9999999999999995e-007 1e-010 
body $-1 $8 $-1 $9 #
body $-1 $10 $-1 $11 #
body $-1 $12 $-1 $13 #
body $-1 $14 $-1 $15 #
body $-1 $16 $-1 $17 #
body $-1 $18 $-1 $19 #
body $-1 $20 $-1 $21 #
body $-1 $22 $-1 $23 #
lump $-1 $-1 $24 $0 #
transform $-1 1 0 0 0 1 0 0 0 1 75.955687124240853 36.389280911092186 11.533359753592507 1 rotate no_reflect no_shear #
lump $-1 $-1 $25 $1 #
transform $-1 1 0 0 0 1 0 0 0 1 75.955687124240853 36.389280911092186 11.533359753592507 1 rotate no_reflect no_shear #
lump $-1 $-1 $26 $2 #
transform $-1 1 0 0 0 1 0 0 0 1 75.955687124240853 36.389280911092186 11.533359753592507 1 rotate no_reflect no_shear #
lump $-1 $-1 $27 $3 #
transform $-1 1 0 0 0 1 0 0 0 1 75.955687124240853 36.389280911092186 11.533359753592507 1 rotate no_reflect no_shear #
lump $-1 $-1 $28 $4 #
transform $-1 1 0 0 0 1 0 0 0 1 75.955687124240853 36.389280911092186 11.533359753592507 1 rotate no_reflect no_shear #
lump $-1 $-1 $29 $5 #
transform $-1 1 0 0 0 1 0 0 0 1 75.955687124240853 36.389280911092186 11.533359753592507 1 rotate no_reflect no_shear #
lump $-1 $-1 $30 $6 #
transform $-1 1 0 0 0 1 0 0 0 1 75.955687124240853 36.389280911092186 11.533359753592507 1 rotate no_reflect no_shear #
lump $-1 $-1 $31 $7 #
transform $-1 1 0 0 0 1 0 0 0 1 75.955687124240853 36.389280911092186 11.533359753592507 1 rotate no_reflect no_shear #
shell $-1 $-1 $-1 $32 $-1 $8 #
shell $-1 $-1 $-1 $33 $-1 $10 #
shell $-1 $-1 $-1 $34 $-1 $12 #
shell $-1 $-1 $-1 $35 $-1 $14 #
shell $-1 $-1 $-1 $36 $-1 $16 #
shell $-1 $-1 $-1 $37 $-1 $18 #
shell $-1 $-1 $-1 $38 $-1 $20 #
shell $-1 $-1 $-1 $39 $-1 $22 #
face $-1 $40 $41 $24 $-1 $42 forward single #
face $-1 $43 $44 $25 $-1 $45 forward single #
face $-1 $46 $47 $26 $-1 $48 reversed single #
face $-1 $49 $50 $27 $-1 $51 forward single #
face $-1 $52 $53 $28 $-1 $54 forward single #
face $-1 $55 $56 $29 $-1 $57 reversed single #
face $-1 $58 $59 $30 $-1 $60 forward single #
face $-1 $61 $62 $31 $-1 $63 forward single #
face $-1 $64 $65 $24 $-1 $66 reversed single #
loop $-1 $-1 $67 $32 #
plane-surface $-1 0 0 11.533359753592507 0 0 1 1 0 0 forward_v I I I I #
face $-1 $68 $69 $25 $-1 $70 reversed single #
loop $-1 $-1 $71 $33 #
plane-surface $-1 0 -36.389280911092186 0 0 1 0 0 0 1 forward_v I I I I #
face $-1 $72 $73 $26 $-1 $74 reversed single #
loop $-1 $-1 $75 $34 #
plane-surface $-1 -207.5147975222709 28.771715693965113 77.538290369403654 0 1 0 -0.86602541151947299 0 0.49999998660252726 forward_v I I I I #
face $-1 $76 $77 $27 $-1 $78 forward single #
loop $-1 $79 $80 $35 #
cone-surface $-1 -72.280102045691422 30.94816289885857 6.0943415186421044 0.86602541151947299 0 -0.49999998660252726 0.24999999330126363 0 0.43301270575973649 1 I I 0 1 0.5 forward I I I I #
face $-1 $81 $82 $28 $-1 $83 forward single #
loop $-1 $84 $85 $36 #
cone-surface $-1 -72.280102045691422 34.212833706198737 6.0943415186421044 0.86602541151947299 0 -0.49999998660252726 0.24999999330126363 0 0.43301270575973649 1 I I 0 1 0.5 forward I I I I #
face $-1 $86 $87 $29 $-1 $88 reversed single #
loop $-1 $-1 $89 $37 #
plane-surface $-1 131.55911243325852 28.771715693965113 209.09740076743373 0 1 0 0.86602541151947299 0 0.49999998660252726 forward_v I I I I #
face $-1 $90 $91 $30 $-1 $92 forward single #
loop $-1 $93 $94 $38 #
cone-surface $-1 72.280102045691436 30.94816289885857 6.0943415186421079 -0.86602541151947299 0 -0.49999998660252726 0.24999999330126363 0 -0.43301270575973649 1 I I 0 1 0.5 forward I I I I #
face $-1 $95 $96 $31 $-1 $97 forward single #
loop $-1 $98 $99 $39 #
cone-surface $-1 72.280102045691436 34.212833706198737 6.0943415186421079 -0.86602541151947299 0 -0.49999998660252726 0.24999999330126363 0 -0.43301270575973649 1 I I 0 1 0.5 forward I I I I #
face $-1 $100 $101 $24 $-1 $102 reversed single #
loop $-1 $-1 $103 $40 #
plane-surface $-1 0 0 -11.533359753592507 0 0 1 1 0 0 forward_v I I I I #
coedge $-1 $104 $105 $106 $107 forward $41 $-1 #
face $-1 $108 $109 $25 $-1 $110 reversed single #
loop $-1 $-1 $111 $43 #
plane-surface $-1 0 0 -11.533359753592507 0 0 1 1 0 0 forward_v I I I I #
coedge $-1 $112 $113 $114 $115 forward $44 $-1 #
face $-1 $116 $117 $26 $-1 $118 reversed single #
loop $-1 $-1 $119 $46 #
plane-surface $-1 -75.955687124240853 32.580498302528639 1.5826052803912916 -0.86602541151947299 0 0.49999998660252726 0.49999998660252726 0 0.86602541151947299 forward_v I I I I #
coedge $-1 $120 $121 $122 $123 reversed $47 $-1 #
face $-1 $-1 $124 $27 $-1 $125 forward single #
loop $-1 $126 $127 $49 #
cone-surface $-1 -71.260545898507516 30.94816289885857 5.5057005236416749 0.86602541151947299 0 -0.49999998660252726 0.12499999665063181 0 0.21650635287986825 1 I I -0.70710678118654879 0.70710678118654635 0.25 forward I I I I #
loop $-1 $-1 $128 $35 #
coedge $-1 $80 $80 $129 $130 reversed $50 $-1 #
face $-1 $-1 $131 $28 $-1 $132 forward single #
loop $-1 $133 $134 $52 #
cone-surface $-1 -71.260545898507516 34.212833706198737 5.5057005236416749 0.86602541151947299 0 -0.49999998660252726 0.12499999665063181 0 0.21650635287986825 1 I I -0.70710678118654879 0.70710678118654635 0.25 forward I I I I #
loop $-1 $-1 $135 $36 #
coedge $-1 $85 $85 $136 $137 reversed $53 $-1 #
face $-1 $138 $139 $29 $-1 $140 forward single #
loop $-1 $-1 $141 $55 #
plane-surface $-1 2.0352284764157957e-006 32.580498302528639 133.14171567842135 0.86602541151947299 0 0.49999998660252726 0.49999998660252726 0 -0.86602541151947299 forward_v I I I I #
coedge $-1 $142 $143 $144 $145 reversed $56 $-1 #
face $-1 $-1 $146 $30 $-1 $147 forward single #
loop $-1 $148 $149 $58 #
cone-surface $-1 71.26054589850753 30.94816289885857 5.5057005236416785 -0.86602541151947299 0 -0.49999998660252726 0.12499999665063181 0 -0.21650635287986825 1 I I -0.70710678118654879 0.70710678118654635 0.25 forward I I I I #
loop $-1 $-1 $150 $38 #
coedge $-1 $94 $94 $151 $152 reversed $59 $-1 #
face $-1 $-1 $153 $31 $-1 $154 forward single #
loop $-1 $155 $156 $61 #
cone-surface $-1 71.26054589850753 34.212833706198737 5.5057005236416785 -0.86602541151947299 0 -0.49999998660252726 0.12499999665063181 0 -0.21650635287986825 1 I I -0.70710678118654879 0.70710678118654635 0.25 forward I I I I #
loop $-1 $-1 $157 $39 #
coedge $-1 $99 $99 $158 $159 reversed $62 $-1 #
face $-1 $160 $161 $24 $-1 $162 reversed single #
loop $-1 $-1 $163 $64 #
plane-surface $-1 0 -36.389280911092186 0 0 1 0 0 0 1 forward_v I I I I #
coedge $-1 $164 $165 $166 $167 forward $65 $-1 #
coedge $-1 $168 $67 $169 $170 forward $41 $-1 #
coedge $-1 $67 $168 $171 $172 forward $41 $-1 #
coedge $-1 $173 $174 $67 $107 reversed $175 $-1 #
edge $-1 $176 -36.389280911092186 $177 36.389280911092186 $106 $178 forward 7 unknown #
face $-1 $179 $180 $25 $-1 $181 forward single #
loop $-1 $-1 $182 $68 #
plane-surface $-1 75.955687124240853 0 0 -1 0 0 0 0 1 forward_v I I I I #
coedge $-1 $183 $184 $185 $186 forward $69 $-1 #
coedge $-1 $185 $71 $182 $187 reversed $44 $-1 #
coedge $-1 $71 $185 $188 $189 reversed $44 $-1 #
coedge $-1 $190 $191 $71 $115 reversed $180 $-1 #
edge $-1 $192 -75.955687124240853 $193 75.955687124240853 $114 $194 forward 7 unknown #
face $-1 $195 $196 $26 $-1 $197 reversed single #
loop $-1 $-1 $198 $72 #
plane-surface $-1 0 36.389280911092186 0 0 -1 0 0 0 -1 forward_v I I I I #
coedge $-1 $199 $200 $201 $202 reversed $73 $-1 #
coedge $-1 $121 $75 $203 $204 reversed $47 $-1 #
coedge $-1 $75 $120 $199 $205 reversed $47 $-1 #
coedge $-1 $201 $206 $75 $123 forward $207 $-1 #
edge $-1 $208 27.801711636894595 $209 33.546782205385384 $122 $210 forward 7 unknown #
loop $-1 $-1 $129 $76 #
plane-surface $-1 -75.955687124240853 32.580498302528639 1.5826052803912916 -0.86602541151947299 0 0.49999998660252726 0.49999998660252726 0 0.86602541151947299 forward_v I I I I #
loop $-1 $-1 $211 $49 #
coedge $-1 $127 $127 $128 $212 reversed $77 $-1 #
coedge $-1 $128 $128 $127 $212 forward $79 $-1 #
coedge $-1 $129 $129 $80 $130 forward $124 $-1 #
edge $-1 $213 0 $213 6.2831853071796004 $129 $214 forward 7 unknown #
loop $-1 $-1 $136 $81 #
plane-surface $-1 -75.955687124240853 32.580498302528639 1.5826052803912916 -0.86602541151947299 0 0.49999998660252726 0.49999998660252726 0 0.86602541151947299 forward_v I I I I #
loop $-1 $-1 $215 $52 #
coedge $-1 $134 $134 $135 $216 reversed $82 $-1 #
coedge $-1 $135 $135 $134 $216 forward $84 $-1 #
coedge $-1 $136 $136 $85 $137 forward $131 $-1 #
edge $-1 $217 0 $217 6.2831853071796004 $136 $218 forward 7 unknown #
face $-1 $219 $220 $29 $-1 $221 reversed single #
loop $-1 $-1 $222 $86 #
plane-surface $-1 0 0 11.533359753592507 0 0 1 1 0 0 forward_v I I I I #
coedge $-1 $223 $224 $225 $226 reversed $87 $-1 #
coedge $-1 $143 $89 $227 $228 reversed $56 $-1 #
coedge $-1 $89 $142 $223 $229 reversed $56 $-1 #
coedge $-1 $225 $230 $89 $145 forward $231 $-1 #
edge $-1 $232 93.015340630124356 $233 102.96609510332559 $144 $234 forward 7 unknown #
loop $-1 $-1 $151 $90 #
plane-surface $-1 2.0352284764157957e-006 32.580498302528639 133.14171567842135 0.86602541151947299 0 0.49999998660252726 0.49999998660252726 0 -0.86602541151947299 forward_v I I I I #
loop $-1 $-1 $235 $58 #
coedge $-1 $149 $149 $150 $236 reversed $91 $-1 #
coedge $-1 $150 $150 $149 $236 forward $93 $-1 #
coedge $-1 $151 $151 $94 $152 forward $146 $-1 #
edge $-1 $237 0 $237 6.2831853071796004 $151 $238 forward 7 unknown #
loop $-1 $-1 $158 $95 #
plane-surface $-1 2.0352284764157957e-006 32.580498302528639 133.14171567842135 0.86602541151947299 0 0.49999998660252726 0.49999998660252726 0 -0.86602541151947299 forward_v I I I I #
loop $-1 $-1 $239 $61 #
coedge $-1 $156 $156 $157 $240 reversed $96 $-1 #
coedge $-1 $157 $157 $156 $240 forward $98 $-1 #
coedge $-1 $158 $158 $99 $159 forward $153 $-1 #
edge $-1 $241 0 $241 6.2831853071796004 $158 $242 forward 7 unknown #
face $-1 $243 $244 $24 $-1 $245 reversed single #
loop $-1 $-1 $246 $100 #
plane-surface $-1 -75.955687124240853 0 0 1 0 0 0 0 -1 forward_v I I I I #
coedge $-1 $171 $247 $173 $248 reversed $101 $-1 #
coedge $-1 $249 $103 $247 $250 forward $65 $-1 #
coedge $-1 $103 $249 $251 $252 forward $65 $-1 #
coedge $-1 $174 $173 $103 $167 reversed $175 $-1 #
edge $-1 $253 -36.389280911092186 $254 36.389280911092186 $166 $255 forward 7 unknown #
coedge $-1 $105 $104 $256 $257 forward $41 $-1 #
coedge $-1 $258 $259 $104 $170 reversed $244 $-1 #
edge $-1 $177 -75.955687124240853 $260 75.955687124240853 $169 $261 forward 7 unknown #
coedge $-1 $262 $163 $105 $172 reversed $101 $-1 #
edge $-1 $263 -75.955687124240853 $176 75.955687124240853 $171 $264 forward 7 unknown #
coedge $-1 $166 $106 $163 $248 forward $175 $-1 #
coedge $-1 $106 $166 $258 $265 reversed $175 $-1 #
loop $-1 $-1 $173 $243 #
vertex $-1 $107 $266 #
vertex $-1 $107 $267 #
straight-curve $-1 75.955687124240853 0 11.533359753592507 0 1 0 I I #
face $-1 $268 $269 $25 $-1 $270 reversed single #
loop $-1 $-1 $191 $108 #
plane-surface $-1 0 -42.535903103401544 -7.2744606677281132 0 0 1 1 0 0 forward_v I I I I #
coedge $-1 $271 $272 $112 $187 forward $109 $-1 #
coedge $-1 $273 $111 $272 $274 forward $69 $-1 #
coedge $-1 $111 $273 $275 $276 forward $69 $-1 #
coedge $-1 $113 $112 $111 $186 reversed $44 $-1 #
edge $-1 $277 -75.955687124240853 $278 75.955687124240853 $111 $279 forward 7 unknown #
edge $-1 $278 -11.533359753592507 $193 -7.2744606677281132 $182 $280 forward 7 unknown #
coedge $-1 $275 $281 $113 $189 forward $282 $-1 #
edge $-1 $192 7.2744606677281132 $277 11.533359753592507 $188 $283 forward 7 unknown #
coedge $-1 $284 $114 $281 $285 forward $180 $-1 #
coedge $-1 $114 $284 $271 $286 forward $180 $-1 #
vertex $-1 $189 $287 #
vertex $-1 $286 $288 #
straight-curve $-1 0 -36.389280911092186 -7.2744606677281132 1 0 0 I I #
face $-1 $-1 $207 $26 $-1 $289 forward single #
loop $-1 $-1 $290 $116 #
plane-surface $-1 -75.955687124240853 0 0 1 0 0 0 0 -1 forward_v I I I I #
coedge $-1 $291 $292 $200 $293 forward $117 $-1 #
coedge $-1 $294 $119 $121 $205 forward $73 $-1 #
coedge $-1 $119 $294 $198 $293 reversed $73 $-1 #
coedge $-1 $295 $122 $119 $202 forward $207 $-1 #
edge $-1 $209 12.481466542700794 $296 20.099031759827845 $201 $297 forward 7 unknown #
coedge $-1 $298 $290 $120 $204 forward $196 $-1 #
edge $-1 $299 -37.186539904310536 $208 -27.235785431109321 $203 $300 forward 7 unknown #
edge $-1 $209 -11.490141444859287 $299 0 $121 $301 forward 7 unknown #
coedge $-1 $122 $295 $298 $302 forward $207 $-1 #
loop $-1 $-1 $201 $195 #
vertex $-1 $204 $303 #
vertex $-1 $123 $304 #
straight-curve $-1 -103.75739876113545 28.771715693965113 11.533359753592507 1 0 0 I I #
coedge $-1 $211 $211 $-1 $305 reversed $126 $-1 #
edge $-1 $306 0 $306 6.2831853071796004 $127 $307 forward 7 unknown #
vertex $-1 $130 $308 #
ellipse-curve $-1 -73.083151839995466 30.94816289885857 6.5579825169918999 -0.86602541151947299 0 0.49999998660252726 0.24999999330126363 0 0.43301270575973649 1 I I #
coedge $-1 $215 $215 $-1 $309 reversed $133 $-1 #
edge $-1 $310 0 $310 6.2831853071796004 $134 $311 forward 7 unknown #
vertex $-1 $137 $312 #
ellipse-curve $-1 -73.083151839995466 34.212833706198737 6.5579825169918999 -0.86602541151947299 0 0.49999998660252726 0.24999999330126363 0 0.43301270575973649 1 I I #
face $-1 $-1 $231 $29 $-1 $313 reversed single #
loop $-1 $-1 $314 $138 #
plane-surface $-1 0 36.389280911092186 0 0 -1 0 0 0 -1 forward_v I I I I #
coedge $-1 $227 $315 $316 $317 forward $139 $-1 #
coedge $-1 $316 $141 $143 $229 forward $87 $-1 #
coedge $-1 $141 $316 $314 $318 reversed $87 $-1 #
coedge $-1 $319 $144 $141 $226 forward $231 $-1 #
edge $-1 $233 12.481466542700794 $320 20.099031759827866 $225 $321 forward 7 unknown #
coedge $-1 $322 $222 $142 $228 forward $139 $-1 #
edge $-1 $323 4.4310603391208048 $232 10.176130907611594 $227 $324 forward 7 unknown #
edge $-1 $233 -151.91137424848174 $323 -140.42123280362244 $143 $325 forward 7 unknown #
coedge $-1 $144 $319 $322 $326 reversed $231 $-1 #
loop $-1 $-1 $225 $219 #
vertex $-1 $326 $327 #
vertex $-1 $145 $328 #
straight-curve $-1 75.955687124240853 28.771715693965113 104.54870038371686 0 0 -1 I I #
coedge $-1 $235 $235 $-1 $329 reversed $148 $-1 #
edge $-1 $330 0 $330 6.2831853071796004 $149 $331 forward 7 unknown #
vertex $-1 $152 $332 #
ellipse-curve $-1 73.083151839995452 30.94816289885857 6.5579825169918893 0.86602541151947299 0 0.49999998660252726 0.24999999330126363 0 -0.43301270575973649 1 I I #
coedge $-1 $239 $239 $-1 $333 reversed $155 $-1 #
edge $-1 $334 0 $334 6.2831853071796004 $156 $335 forward 7 unknown #
vertex $-1 $159 $336 #
ellipse-curve $-1 73.083151839995452 34.212833706198737 6.5579825169918893 0.86602541151947299 0 0.49999998660252726 0.24999999330126363 0 -0.43301270575973649 1 I I #
face $-1 $-1 $175 $24 $-1 $337 reversed single #
loop $-1 $-1 $258 $160 #
plane-surface $-1 0 36.389280911092186 0 0 -1 0 0 0 -1 forward_v I I I I #
coedge $-1 $338 $256 $259 $339 forward $161 $-1 #
coedge $-1 $163 $262 $164 $250 reversed $101 $-1 #
edge $-1 $176 -11.533359753592507 $254 11.533359753592507 $173 $340 forward 7 unknown #
coedge $-1 $165 $164 $338 $341 forward $65 $-1 #
edge $-1 $254 -75.955687124240853 $342 75.955687124240853 $247 $343 forward 7 unknown #
coedge $-1 $259 $258 $165 $252 reversed $244 $-1 #
edge $-1 $344 -75.955687124240853 $253 75.955687124240853 $251 $345 forward 7 unknown #
vertex $-1 $167 $346 #
vertex $-1 $248 $347 #
straight-curve $-1 75.955687124240853 0 -11.533359753592507 0 -1 0 I I #
coedge $-1 $246 $348 $168 $257 reversed $161 $-1 #
edge $-1 $260 -36.389280911092186 $263 36.389280911092186 $256 $349 forward 7 unknown #
coedge $-1 $251 $169 $174 $265 forward $244 $-1 #
coedge $-1 $169 $251 $246 $339 reversed $244 $-1 #
vertex $-1 $170 $350 #
straight-curve $-1 0 36.389280911092186 11.533359753592507 -1 0 0 I I #
coedge $-1 $247 $171 $348 $351 forward $101 $-1 #
vertex $-1 $257 $352 #
straight-curve $-1 0 -36.389280911092186 11.533359753592507 1 0 0 I I #
edge $-1 $177 -11.533359753592507 $253 11.533359753592507 $174 $353 forward 7 unknown #
point $-1 75.955687124240853 -36.389280911092186 11.533359753592507 #
point $-1 75.955687124240853 36.389280911092186 11.533359753592507 #
face $-1 $-1 $282 $25 $-1 $354 reversed single #
loop $-1 $-1 $355 $179 #
plane-surface $-1 0 -48.682525295710903 -9.4039102106603103 0 1 0 0 0 1 forward_v I I I I #
coedge $-1 $356 $182 $191 $286 reversed $109 $-1 #
coedge $-1 $182 $356 $183 $274 reversed $109 $-1 #
coedge $-1 $184 $183 $357 $358 forward $69 $-1 #
edge $-1 $278 36.389280911092186 $359 48.682525295710903 $272 $360 forward 7 unknown #
coedge $-1 $361 $188 $184 $276 reversed $282 $-1 #
edge $-1 $362 -48.682525295710903 $277 -36.389280911092186 $275 $363 forward 7 unknown #
vertex $-1 $189 $364 #
vertex $-1 $274 $365 #
straight-curve $-1 0 -36.389280911092186 -11.533359753592507 1 0 0 I I #
straight-curve $-1 75.955687124240853 -36.389280911092186 0 0 0 1 I I #
coedge $-1 $188 $361 $190 $285 reversed $282 $-1 #
loop $-1 $-1 $188 $268 #
straight-curve $-1 -75.955687124240853 -36.389280911092186 0 0 0 -1 I I #
coedge $-1 $191 $190 $366 $367 forward $180 $-1 #
edge $-1 $192 -6.1466221923093585 $368 6.1466221923093585 $281 $369 forward 7 unknown #
edge $-1 $370 -6.1466221923093585 $193 6.1466221923093585 $271 $371 forward 7 unknown #
point $-1 -75.955687124240853 -36.389280911092186 -7.2744606677281132 #
point $-1 75.955687124240853 -36.389280911092186 -7.2744606677281132 #
plane-surface $-1 0 0 11.533359753592507 0 0 1 1 0 0 forward_v I I I I #
coedge $-1 $203 $372 $294 $373 forward $196 $-1 #
coedge $-1 $292 $198 $372 $374 reversed $117 $-1 #
coedge $-1 $198 $291 $295 $375 reversed $117 $-1 #
edge $-1 $296 6.8134916327819273 $376 18.303633077641216 $198 $377 forward 7 unknown #
coedge $-1 $200 $199 $290 $373 reversed $73 $-1 #
coedge $-1 $206 $201 $292 $375 forward $207 $-1 #
vertex $-1 $375 $378 #
straight-curve $-1 -70.210616555750065 16.290249151264319 11.533359753592507 0 1 0 I I #
coedge $-1 $372 $203 $206 $302 reversed $196 $-1 #
vertex $-1 $204 $379 #
straight-curve $-1 -75.955687124240853 28.771715693965113 38.769145184701827 0 0 1 I I #
straight-curve $-1 -75.955687124240853 28.771715693965113 1.5826052803912916 -0.49999998660252726 0 -0.86602541151947299 I I #
edge $-1 $380 -36.389280911092186 $208 -28.771715693965113 $298 $381 forward 7 unknown #
point $-1 -75.955687124240853 28.771715693965113 11.533359753592507 #
point $-1 -70.210616555750065 28.771715693965113 11.533359753592507 #
edge $-1 $382 1 $382 0 $211 $-1 forward 7 unknown #
vertex $-1 $212 $383 #
ellipse-curve $-1 -71.477052251387377 30.94816289885857 5.6307005202923062 -0.86602541151947299 0 0.49999998660252726 0.24999999330126363 0 0.43301270575973649 1 I I #
point $-1 -72.833151846694207 30.94816289885857 6.9909952227516392 #
edge $-1 $384 1 $384 0 $215 $-1 forward 7 unknown #
vertex $-1 $216 $385 #
ellipse-curve $-1 -71.477052251387377 34.212833706198737 5.6307005202923062 -0.86602541151947299 0 0.49999998660252726 0.24999999330126363 0 0.43301270575973649 1 I I #
point $-1 -72.833151846694207 34.212833706198737 6.9909952227516392 #
plane-surface $-1 75.955687124240853 0 0 -1 0 0 0 0 1 forward_v I I I I #
coedge $-1 $386 $387 $224 $318 forward $220 $-1 #
coedge $-1 $222 $322 $386 $388 forward $139 $-1 #
coedge $-1 $224 $223 $222 $317 reversed $87 $-1 #
edge $-1 $389 -20.099031759827845 $323 -12.481466542700794 $222 $390 forward 7 unknown #
edge $-1 $320 -94.259320201882119 $389 -82.769178757022786 $314 $391 forward 7 unknown #
coedge $-1 $230 $225 $387 $392 reversed $231 $-1 #
vertex $-1 $226 $393 #
straight-curve $-1 75.955687124240853 16.290249151264319 1.5826052803912489 0 1 0 I I #
coedge $-1 $315 $227 $230 $326 forward $139 $-1 #
vertex $-1 $228 $394 #
straight-curve $-1 65.77955621662926 28.771715693965113 11.533359753592507 1 0 0 I I #
straight-curve $-1 2.0352284764157957e-006 28.771715693965113 133.14171567842135 -0.49999998660252726 0 0.86602541151947299 I I #
edge $-1 $232 28.771715693965113 $395 36.389280911092186 $230 $396 forward 7 unknown #
point $-1 75.955687124240853 28.771715693965113 11.533359753592507 #
point $-1 75.955687124240853 28.771715693965113 1.5826052803912773 #
edge $-1 $397 1 $397 0 $235 $-1 forward 7 unknown #
vertex $-1 $236 $398 #
ellipse-curve $-1 71.477052251387391 30.94816289885857 5.6307005202923097 0.86602541151947299 0 0.49999998660252726 0.24999999330126363 0 -0.43301270575973649 1 I I #
point $-1 73.333151833296739 30.94816289885857 6.1249698112321695 #
edge $-1 $399 1 $399 0 $239 $-1 forward 7 unknown #
vertex $-1 $240 $400 #
ellipse-curve $-1 71.477052251387391 34.212833706198737 5.6307005202923097 0.86602541151947299 0 0.49999998660252726 0.24999999330126363 0 -0.43301270575973649 1 I I #
point $-1 73.333151833296739 34.212833706198737 6.1249698112321695 #
plane-surface $-1 75.955687124240853 0 0 -1 0 0 0 0 1 forward_v I I I I #
coedge $-1 $348 $246 $249 $341 reversed $161 $-1 #
edge $-1 $260 -11.533359753592507 $344 11.533359753592507 $259 $401 forward 7 unknown #
straight-curve $-1 75.955687124240853 -36.389280911092186 0 0 0 -1 I I #
edge $-1 $342 -36.389280911092186 $344 36.389280911092186 $338 $402 forward 7 unknown #
vertex $-1 $341 $403 #
straight-curve $-1 0 -36.389280911092186 -11.533359753592507 -1 0 0 I I #
vertex $-1 $252 $404 #
straight-curve $-1 0 36.389280911092186 -11.533359753592507 1 0 0 I I #
point $-1 75.955687124240853 36.389280911092186 -11.533359753592507 #
point $-1 75.955687124240853 -36.389280911092186 -11.533359753592507 #
coedge $-1 $256 $338 $262 $351 reversed $161 $-1 #
straight-curve $-1 -75.955687124240853 0 11.533359753592507 0 -1 0 I I #
point $-1 -75.955687124240853 36.389280911092186 11.533359753592507 #
edge $-1 $263 -11.533359753592507 $342 11.533359753592507 $348 $405 forward 7 unknown #
point $-1 -75.955687124240853 -36.389280911092186 11.533359753592507 #
straight-curve $-1 75.955687124240853 36.389280911092186 0 0 0 -1 I I #
plane-surface $-1 -75.955687124240853 0 0 1 0 0 0 0 -1 forward_v I I I I #
coedge $-1 $357 $366 $361 $406 forward $269 $-1 #
coedge $-1 $272 $271 $407 $408 forward $109 $-1 #
coedge $-1 $407 $355 $273 $358 reversed $269 $-1 #
edge $-1 $359 -75.955687124240853 $362 75.955687124240853 $357 $409 forward 7 unknown #
vertex $-1 $408 $410 #
straight-curve $-1 75.955687124240853 0 -11.533359753592507 0 -1 0 I I #
coedge $-1 $281 $275 $355 $406 reversed $282 $-1 #
vertex $-1 $276 $411 #
straight-curve $-1 -75.955687124240853 0 -11.533359753592507 0 1 0 I I #
point $-1 -75.955687124240853 -36.389280911092186 -11.533359753592507 #
point $-1 75.955687124240853 -36.389280911092186 -11.533359753592507 #
coedge $-1 $355 $407 $284 $367 reversed $269 $-1 #
edge $-1 $368 -75.955687124240853 $370 75.955687124240853 $366 $412 forward 7 unknown #
vertex $-1 $285 $413 #
straight-curve $-1 -75.955687124240853 -42.535903103401544 -7.2744606677281132 0 -1 0 I I #
vertex $-1 $286 $414 #
straight-curve $-1 75.955687124240853 -42.535903103401544 -7.2744606677281132 0 1 0 I I #
coedge $-1 $290 $298 $291 $374 forward $196 $-1 #
edge $-1 $376 -20.099031759827845 $299 -12.481466542700794 $290 $415 forward 7 unknown #
edge $-1 $380 -11.533359753592507 $376 -1.5826052803912916 $291 $416 forward 7 unknown #
edge $-1 $296 70.210616555750065 $380 75.955687124240853 $292 $417 forward 7 unknown #
vertex $-1 $293 $418 #
straight-curve $-1 -66.803870830642666 36.389280911092186 17.434016648756959 -0.49999998660252726 0 -0.86602541151947299 I I #
point $-1 -70.210616555750065 36.389280911092165 11.533359753592507 #
point $-1 -75.955687124240853 28.771715693965113 1.5826052803912916 #
vertex $-1 $375 $419 #
straight-curve $-1 -75.955687124240853 0 11.533359753592507 0 -1 0 I I #
vertex $-1 $305 $420 #
point $-1 -71.227052258086118 30.94816289885857 6.0637132260520428 #
vertex $-1 $309 $421 #
point $-1 -71.227052258086118 34.212833706198737 6.0637132260520428 #
coedge $-1 $387 $314 $315 $388 reversed $220 $-1 #
coedge $-1 $314 $386 $319 $392 forward $220 $-1 #
edge $-1 $395 -75.955687124240853 $389 -70.210616555750065 $386 $422 forward 7 unknown #
vertex $-1 $318 $423 #
straight-curve $-1 70.21061655575005 16.290249151264319 11.533359753592507 0 -1 0 I I #
straight-curve $-1 28.826028286136477 36.389280911092186 83.213571847771988 -0.49999998660252726 0 0.86602541151947299 I I #
edge $-1 $395 -11.533359753592507 $320 -1.5826052803912554 $319 $424 forward 7 unknown #
point $-1 75.955687124240853 36.389280911092186 1.5826052803912554 #
point $-1 70.210616555750065 28.771715693965113 11.533359753592507 #
vertex $-1 $326 $425 #
straight-curve $-1 75.955687124240853 0 11.533359753592507 0 1 0 I I #
vertex $-1 $329 $426 #
point $-1 71.727052244688664 30.94816289885857 5.1976878145325731 #
vertex $-1 $333 $427 #
point $-1 71.727052244688664 34.212833706198737 5.1976878145325731 #
straight-curve $-1 -75.955687124240853 36.389280911092186 0 0 0 -1 I I #
straight-curve $-1 -75.955687124240853 0 -11.533359753592507 0 1 0 I I #
point $-1 -75.955687124240853 -36.389280911092186 -11.533359753592507 #
point $-1 -75.955687124240853 36.389280911092186 -11.533359753592507 #
straight-curve $-1 -75.955687124240853 -36.389280911092186 0 0 0 -1 I I #
edge $-1 $368 -2.1294495429321971 $362 2.1294495429321962 $361 $428 forward 7 unknown #
coedge $-1 $366 $357 $356 $408 reversed $269 $-1 #
edge $-1 $370 -2.1294495429321971 $359 2.1294495429321962 $356 $429 forward 7 unknown #
straight-curve $-1 0 -48.682525295710903 -11.533359753592507 -1 0 0 I I #
point $-1 75.955687124240853 -48.682525295710903 -11.533359753592507 #
point $-1 -75.955687124240853 -48.682525295710903 -11.533359753592507 #
straight-curve $-1 0 -48.682525295710903 -7.2744606677281132 1 0 0 I I #
point $-1 -75.955687124240853 -48.682525295710903 -7.2744606677281132 #
point $-1 75.955687124240853 -48.682525295710903 -7.2744606677281132 #
straight-curve $-1 -75.955687124240853 16.290249151264319 1.5826052803912989 0 -1 0 I I #
straight-curve $-1 -75.955687124240853 36.389280911092186 0 0 0 -1 I I #
straight-curve $-1 0 36.389280911092186 11.533359753592507 -1 0 0 I I #
point $-1 -75.955687124240853 36.389280911092165 1.5826052803912916 #
point $-1 -75.955687124240853 36.389280911092186 11.533359753592507 #
point $-1 -71.044039545627655 30.94816289885857 5.3807005269910437 #
point $-1 -71.044039545627655 34.212833706198737 5.3807005269910437 #
straight-curve $-1 0 36.389280911092186 11.533359753592507 -1 0 0 I I #
point $-1 70.210616555750065 36.389280911092165 11.533359753592507 #
straight-curve $-1 75.955687124240853 36.389280911092186 0 0 0 -1 I I #
point $-1 75.955687124240853 36.389280911092186 11.533359753592507 #
point $-1 71.044039545627669 30.94816289885857 5.3807005269910473 #
point $-1 71.044039545627669 34.212833706198737 5.3807005269910473 #
straight-curve $-1 -75.955687124240853 -48.682525295710903 -9.4039102106603103 0 0 -1 I I #
straight-curve $-1 75.955687124240853 -48.682525295710903 -9.4039102106603103 0 0 -1 I I #
End-of-ACIS-data 