500 0 12 0           
7 Unknown 11 ACIS 5.0 NT 24 Thu Mar 25 15:32:20 1999 
-1 9.9999999999999995e-007 1e-010 
body $-1 $12 $-1 $13 #
body $-1 $14 $-1 $15 #
body $-1 $16 $-1 $17 #
body $-1 $18 $-1 $19 #
body $-1 $20 $-1 $21 #
body $-1 $22 $-1 $23 #
body $-1 $24 $-1 $25 #
body $-1 $26 $-1 $27 #
body $-1 $28 $-1 $29 #
body $-1 $30 $-1 $31 #
body $-1 $32 $-1 $33 #
body $-1 $34 $-1 $35 #
lump $-1 $-1 $36 $0 #
transform $-1 1 0 0 0 1 0 0 0 1 58.062074648274177 25.845038904458846 6.0445225727234693 1 rotate no_reflect no_shear #
lump $-1 $-1 $37 $1 #
transform $-1 1 0 0 0 1 0 0 0 1 58.062074648274177 25.845038904458846 6.0445225727234693 1 rotate no_reflect no_shear #
lump $-1 $-1 $38 $2 #
transform $-1 1 0 0 0 1 0 0 0 1 58.062074648274177 25.845038904458846 6.0445225727234693 1 rotate no_reflect no_shear #
lump $-1 $-1 $39 $3 #
transform $-1 1 0 0 0 1 0 0 0 1 58.062074648274177 25.845038904458846 6.0445225727234693 1 rotate no_reflect no_shear #
lump $-1 $-1 $40 $4 #
transform $-1 1 0 0 0 1 0 0 0 1 58.062074648274177 25.845038904458846 6.0445225727234693 1 rotate no_reflect no_shear #
lump $-1 $-1 $41 $5 #
transform $-1 1 0 0 0 1 0 0 0 1 58.062074648274177 25.845038904458846 6.0445225727234693 1 rotate no_reflect no_shear #
lump $-1 $-1 $42 $6 #
transform $-1 1 0 0 0 1 0 0 0 1 58.062074648274177 25.845038904458846 6.0445225727234693 1 rotate no_reflect no_shear #
lump $-1 $-1 $43 $7 #
transform $-1 1 0 0 0 1 0 0 0 1 58.062074648274177 25.845038904458846 6.0445225727234693 1 rotate no_reflect no_shear #
lump $-1 $-1 $44 $8 #
transform $-1 1 0 0 0 1 0 0 0 1 58.062074648274177 25.845038904458846 6.0445225727234693 1 rotate no_reflect no_shear #
lump $-1 $-1 $45 $9 #
transform $-1 1 0 0 0 1 0 0 0 1 58.062074648274177 25.845038904458846 6.0445225727234693 1 rotate no_reflect no_shear #
lump $-1 $-1 $46 $10 #
transform $-1 1 0 0 0 1 0 0 0 1 58.062074648274177 25.845038904458846 6.0445225727234693 1 rotate no_reflect no_shear #
lump $-1 $-1 $47 $11 #
transform $-1 1 0 0 0 1 0 0 0 1 58.062074648274177 25.845038904458846 6.0445225727234693 1 rotate no_reflect no_shear #
shell $-1 $-1 $-1 $48 $-1 $12 #
shell $-1 $-1 $-1 $49 $-1 $14 #
shell $-1 $-1 $-1 $50 $-1 $16 #
shell $-1 $-1 $-1 $51 $-1 $18 #
shell $-1 $-1 $-1 $52 $-1 $20 #
shell $-1 $-1 $-1 $53 $-1 $22 #
shell $-1 $-1 $-1 $54 $-1 $24 #
shell $-1 $-1 $-1 $55 $-1 $26 #
shell $-1 $-1 $-1 $56 $-1 $28 #
shell $-1 $-1 $-1 $57 $-1 $30 #
shell $-1 $-1 $-1 $58 $-1 $32 #
shell $-1 $-1 $-1 $59 $-1 $34 #
face $-1 $60 $61 $36 $-1 $62 forward single #
face $-1 $63 $64 $37 $-1 $65 forward single #
face $-1 $66 $67 $38 $-1 $68 reversed single #
face $-1 $69 $70 $39 $-1 $71 forward single #
face $-1 $72 $73 $40 $-1 $74 forward single #
face $-1 $75 $76 $41 $-1 $77 reversed single #
face $-1 $78 $79 $42 $-1 $80 forward single #
face $-1 $81 $82 $43 $-1 $83 forward single #
face $-1 $84 $85 $44 $-1 $86 reversed single #
face $-1 $87 $88 $45 $-1 $89 forward single #
face $-1 $90 $91 $46 $-1 $92 reversed single #
face $-1 $93 $94 $47 $-1 $95 forward single #
face $-1 $96 $97 $36 $-1 $98 reversed single #
loop $-1 $-1 $99 $48 #
plane-surface $-1 0 0 6.0445225727234693 0 0 1 1 0 0 forward_v I I I I #
face $-1 $100 $101 $37 $-1 $102 reversed single #
loop $-1 $-1 $103 $49 #
plane-surface $-1 0 -23.003270268204094 -3.0445225727234693 0 0 1 1 0 0 forward_v I I I I #
face $-1 $104 $105 $38 $-1 $106 reversed single #
loop $-1 $-1 $107 $50 #
plane-surface $-1 -150.80294480552902 -15.310187578296784 70.839300269928685 0 1 0 -0.79863551827123203 0 0.60181501223851219 forward_v I I I I #
face $-1 $108 $109 $39 $-1 $110 forward single #
loop $-1 $111 $112 $51 #
cone-surface $-1 -55.696157082848188 -12.461557951965613 3.1617345883404573 0.79863551827123203 0 -0.60181501223851219 0.60181501223851219 0 0.79863551827123203 1 I I 0 1 1 forward I I I I #
face $-1 $113 $114 $40 $-1 $115 forward single #
loop $-1 $116 $117 $52 #
cone-surface $-1 -55.696157082848188 -8.1886135124688586 3.1617345883404573 0.79863551827123203 0 -0.60181501223851219 0.60181501223851219 0 0.79863551827123203 1 I I 0 1 1 forward I I I I #
face $-1 $118 $119 $41 $-1 $120 reversed single #
loop $-1 $-1 $121 $53 #
plane-surface $-1 -150.80294480552902 7.6930826899073104 70.839300269928685 0 1 0 -0.79863551827123203 0 0.60181501223851219 forward_v I I I I #
face $-1 $122 $123 $42 $-1 $124 forward single #
loop $-1 $125 $126 $54 #
cone-surface $-1 -55.696157082848188 10.541712316238481 3.1617345883404573 0.79863551827123203 0 -0.60181501223851219 0.60181501223851219 0 0.79863551827123203 1 I I 0 1 1 forward I I I I #
face $-1 $127 $128 $43 $-1 $129 forward single #
loop $-1 $130 $131 $55 #
cone-surface $-1 -55.696157082848188 14.814656755735236 3.1617345883404573 0.79863551827123203 0 -0.60181501223851219 0.60181501223851219 0 0.79863551827123203 1 I I 0 1 1 forward I I I I #
face $-1 $132 $133 $44 $-1 $134 reversed single #
loop $-1 $-1 $135 $56 #
plane-surface $-1 92.206238636968919 -10.247712912325373 163.210769930391 0 -1 0 -0.83867057594974714 0 -0.54463902268945019 forward_v I I I I #
face $-1 $136 $137 $45 $-1 $138 forward single #
loop $-1 $139 $140 $57 #
cone-surface $-1 55.852136623428443 -15.204607272137359 3.6062465874296921 -0.83867057594974714 0 -0.54463902268945019 0.54463902268945019 0 -0.83867057594974714 1 I I 0 1 1 forward I I I I #
face $-1 $141 $142 $46 $-1 $143 reversed single #
loop $-1 $-1 $144 $58 #
plane-surface $-1 92.206238636968919 15.93125018483487 163.210769930391 0 1 0 0.83867057594974714 0 0.54463902268945019 forward_v I I I I #
face $-1 $145 $146 $47 $-1 $147 forward single #
loop $-1 $148 $149 $59 #
cone-surface $-1 55.852136623428443 20.888144544646856 3.6062465874296921 -0.83867057594974714 0 -0.54463902268945019 0.54463902268945019 0 -0.83867057594974714 1 I I 0 1 1 forward I I I I #
face $-1 $150 $151 $36 $-1 $152 reversed single #
loop $-1 $-1 $153 $60 #
plane-surface $-1 0 0 -6.0445225727234693 0 0 1 1 0 0 forward_v I I I I #
coedge $-1 $154 $155 $156 $157 forward $61 $-1 #
face $-1 $158 $159 $37 $-1 $160 reversed single #
loop $-1 $-1 $161 $63 #
plane-surface $-1 0 -20.161501631949342 -4.5445225727234693 0 -1 0 0 0 -1 forward_v I I I I #
coedge $-1 $162 $163 $164 $165 reversed $64 $-1 #
face $-1 $166 $167 $38 $-1 $168 reversed single #
loop $-1 $-1 $169 $66 #
plane-surface $-1 -58.062074648274205 -10.325085732217236 0.95404393983962166 -0.79863551827123203 0 0.60181501223851219 0.60181501223851219 0 0.79863551827123203 forward_v I I I I #
coedge $-1 $170 $171 $172 $173 reversed $67 $-1 #
face $-1 $-1 $174 $39 $-1 $175 forward single #
loop $-1 $176 $177 $69 #
cone-surface $-1 -54.848897099140657 -12.461557951965613 2.5232784142801172 0.79863551827123203 0 -0.60181501223851219 0.3009075061192561 0 0.39931775913561601 1 I I -0.70710678118654746 0.70710678118654746 0.5 forward I I I I #
loop $-1 $-1 $178 $51 #
coedge $-1 $112 $112 $179 $180 reversed $70 $-1 #
face $-1 $-1 $181 $40 $-1 $182 forward single #
loop $-1 $183 $184 $72 #
cone-surface $-1 -54.848897099140657 -8.1886135124688586 2.5232784142801172 0.79863551827123203 0 -0.60181501223851219 0.3009075061192561 0 0.39931775913561601 1 I I -0.70710678118654746 0.70710678118654746 0.5 forward I I I I #
loop $-1 $-1 $185 $52 #
coedge $-1 $117 $117 $186 $187 reversed $73 $-1 #
face $-1 $188 $189 $41 $-1 $190 reversed single #
loop $-1 $-1 $191 $75 #
plane-surface $-1 -58.062074648274205 12.678184535986858 0.95404393983962166 -0.79863551827123203 0 0.60181501223851219 0.60181501223851219 0 0.79863551827123203 forward_v I I I I #
coedge $-1 $192 $193 $194 $195 reversed $76 $-1 #
face $-1 $-1 $196 $42 $-1 $197 forward single #
loop $-1 $198 $199 $78 #
cone-surface $-1 -54.848897099140657 10.541712316238481 2.5232784142801172 0.79863551827123203 0 -0.60181501223851219 0.3009075061192561 0 0.39931775913561601 1 I I -0.70710678118654746 0.70710678118654746 0.5 forward I I I I #
loop $-1 $-1 $200 $54 #
coedge $-1 $126 $126 $201 $202 reversed $79 $-1 #
face $-1 $-1 $203 $43 $-1 $204 forward single #
loop $-1 $205 $206 $81 #
cone-surface $-1 -54.848897099140657 14.814656755735236 2.5232784142801172 0.79863551827123203 0 -0.60181501223851219 0.3009075061192561 0 0.39931775913561601 1 I I -0.70710678118654746 0.70710678118654746 0.5 forward I I I I #
loop $-1 $-1 $207 $55 #
coedge $-1 $131 $131 $208 $209 reversed $82 $-1 #
face $-1 $210 $211 $44 $-1 $212 reversed single #
loop $-1 $-1 $213 $84 #
plane-surface $-1 -5.1836685352417078 -15.204607272137359 99.965026746875097 0.83867057594974714 0 0.54463902268945019 0.54463902268945019 0 -0.83867057594974714 forward_v I I I I #
coedge $-1 $214 $215 $216 $217 reversed $85 $-1 #
face $-1 $-1 $218 $45 $-1 $219 forward single #
loop $-1 $220 $221 $87 #
cone-surface $-1 54.349391599762882 -15.204607272137359 2.630352589820685 -0.83867057594974714 0 -0.54463902268945019 0.2723195113447251 0 -0.41933528797487357 1 I I -0.70710678118654746 0.70710678118654746 0.5 forward I I I I #
loop $-1 $-1 $222 $57 #
coedge $-1 $140 $140 $223 $224 reversed $88 $-1 #
face $-1 $225 $226 $46 $-1 $227 reversed single #
loop $-1 $-1 $228 $90 #
plane-surface $-1 -5.1836685352417078 20.888144544646856 99.965026746875097 0.83867057594974714 0 0.54463902268945019 0.54463902268945019 0 -0.83867057594974714 forward_v I I I I #
coedge $-1 $229 $230 $231 $232 reversed $91 $-1 #
face $-1 $-1 $233 $47 $-1 $234 forward single #
loop $-1 $235 $236 $93 #
cone-surface $-1 54.349391599762882 20.888144544646856 2.630352589820685 -0.83867057594974714 0 -0.54463902268945019 0.2723195113447251 0 -0.41933528797487357 1 I I -0.70710678118654746 0.70710678118654746 0.5 forward I I I I #
loop $-1 $-1 $237 $59 #
coedge $-1 $149 $149 $238 $239 reversed $94 $-1 #
face $-1 $240 $241 $36 $-1 $242 reversed single #
loop $-1 $-1 $243 $96 #
plane-surface $-1 0 -25.845038904458846 0 0 1 0 0 0 1 forward_v I I I I #
coedge $-1 $244 $245 $246 $247 forward $97 $-1 #
coedge $-1 $248 $99 $249 $250 forward $61 $-1 #
coedge $-1 $99 $248 $251 $252 forward $61 $-1 #
coedge $-1 $253 $254 $99 $157 reversed $255 $-1 #
edge $-1 $256 -25.845038904458846 $257 25.845038904458846 $156 $258 forward 7 unknown #
face $-1 $259 $260 $37 $-1 $261 reversed single #
loop $-1 $-1 $262 $100 #
plane-surface $-1 0 0 -6.0445225727234693 0 0 1 1 0 0 forward_v I I I I #
coedge $-1 $263 $264 $265 $266 reversed $101 $-1 #
coedge $-1 $267 $103 $264 $268 forward $64 $-1 #
coedge $-1 $103 $267 $269 $270 reversed $64 $-1 #
coedge $-1 $271 $265 $103 $165 forward $260 $-1 #
edge $-1 $272 8.659866497847295 $273 14.343403770356799 $164 $274 forward 7 unknown #
face $-1 $275 $276 $38 $-1 $277 forward single #
loop $-1 $-1 $278 $104 #
plane-surface $-1 -150.80294480552902 -5.3399838861376878 70.839300269928685 0 -1 0 0.79863551827123203 0 -0.60181501223851219 forward_v I I I I #
coedge $-1 $279 $280 $281 $282 reversed $105 $-1 #
coedge $-1 $171 $107 $283 $284 reversed $67 $-1 #
coedge $-1 $107 $170 $279 $285 reversed $67 $-1 #
coedge $-1 $281 $286 $107 $173 forward $276 $-1 #
edge $-1 $287 17.339397754490335 $288 21.175348436198462 $172 $289 forward 7 unknown #
loop $-1 $-1 $179 $108 #
plane-surface $-1 -58.062074648274205 -10.325085732217236 0.95404393983962166 -0.79863551827123203 0 0.60181501223851219 0.60181501223851219 0 0.79863551827123203 forward_v I I I I #
loop $-1 $-1 $290 $69 #
coedge $-1 $177 $177 $178 $291 reversed $109 $-1 #
coedge $-1 $178 $178 $177 $291 forward $111 $-1 #
coedge $-1 $179 $179 $112 $180 forward $174 $-1 #
edge $-1 $292 0 $292 6.2831853071796004 $179 $293 forward 7 unknown #
loop $-1 $-1 $186 $113 #
plane-surface $-1 -58.062074648274205 -10.325085732217236 0.95404393983962166 -0.79863551827123203 0 0.60181501223851219 0.60181501223851219 0 0.79863551827123203 forward_v I I I I #
loop $-1 $-1 $294 $72 #
coedge $-1 $184 $184 $185 $295 reversed $114 $-1 #
coedge $-1 $185 $185 $184 $295 forward $116 $-1 #
coedge $-1 $186 $186 $117 $187 forward $181 $-1 #
edge $-1 $296 0 $296 6.2831853071796004 $186 $297 forward 7 unknown #
face $-1 $298 $299 $41 $-1 $300 forward single #
loop $-1 $-1 $301 $118 #
plane-surface $-1 -150.80294480552902 17.663286382066406 70.839300269928685 0 -1 0 0.79863551827123203 0 -0.60181501223851219 forward_v I I I I #
coedge $-1 $302 $303 $304 $305 reversed $119 $-1 #
coedge $-1 $193 $121 $306 $307 reversed $76 $-1 #
coedge $-1 $121 $192 $302 $308 reversed $76 $-1 #
coedge $-1 $304 $309 $121 $195 forward $299 $-1 #
edge $-1 $310 17.339397754490335 $311 21.175348436198462 $194 $312 forward 7 unknown #
loop $-1 $-1 $201 $122 #
plane-surface $-1 -58.062074648274205 12.678184535986858 0.95404393983962166 -0.79863551827123203 0 0.60181501223851219 0.60181501223851219 0 0.79863551827123203 forward_v I I I I #
loop $-1 $-1 $313 $78 #
coedge $-1 $199 $199 $200 $314 reversed $123 $-1 #
coedge $-1 $200 $200 $199 $314 forward $125 $-1 #
coedge $-1 $201 $201 $126 $202 forward $196 $-1 #
edge $-1 $315 0 $315 6.2831853071796004 $201 $316 forward 7 unknown #
loop $-1 $-1 $208 $127 #
plane-surface $-1 -58.062074648274205 12.678184535986858 0.95404393983962166 -0.79863551827123203 0 0.60181501223851219 0.60181501223851219 0 0.79863551827123203 forward_v I I I I #
loop $-1 $-1 $317 $81 #
coedge $-1 $206 $206 $207 $318 reversed $128 $-1 #
coedge $-1 $207 $207 $206 $318 forward $130 $-1 #
coedge $-1 $208 $208 $131 $209 forward $203 $-1 #
edge $-1 $319 0 $319 6.2831853071796004 $208 $320 forward 7 unknown #
face $-1 $321 $322 $44 $-1 $323 reversed single #
loop $-1 $-1 $324 $132 #
plane-surface $-1 92.206238636968919 -20.161501631949346 163.210769930391 0 1 0 0.83867057594974714 0 0.54463902268945019 forward_v I I I I #
coedge $-1 $325 $326 $327 $328 reversed $133 $-1 #
coedge $-1 $215 $135 $329 $330 reversed $85 $-1 #
coedge $-1 $135 $214 $325 $331 reversed $85 $-1 #
coedge $-1 $327 $332 $135 $217 forward $333 $-1 #
edge $-1 $334 -11.958955329789717 $335 -9.7058987514796229 $216 $336 forward 7 unknown #
loop $-1 $-1 $223 $136 #
plane-surface $-1 -5.1836685352417078 -15.204607272137359 99.965026746875097 0.83867057594974714 0 0.54463902268945019 0.54463902268945019 0 -0.83867057594974714 forward_v I I I I #
loop $-1 $-1 $337 $87 #
coedge $-1 $221 $221 $222 $338 reversed $137 $-1 #
coedge $-1 $222 $222 $221 $338 forward $139 $-1 #
coedge $-1 $223 $223 $140 $224 forward $218 $-1 #
edge $-1 $339 0 $339 6.2831853071796004 $223 $340 forward 7 unknown #
face $-1 $341 $342 $46 $-1 $343 forward single #
loop $-1 $-1 $231 $141 #
plane-surface $-1 58.062074648274177 0 0 -1 0 0 0 0 1 forward_v I I I I #
coedge $-1 $344 $345 $346 $347 reversed $142 $-1 #
coedge $-1 $230 $144 $348 $349 reversed $91 $-1 #
coedge $-1 $144 $229 $344 $350 reversed $91 $-1 #
coedge $-1 $346 $351 $144 $232 forward $226 $-1 #
edge $-1 $352 75.560862392472032 $353 79.030265390531014 $231 $354 forward 7 unknown #
loop $-1 $-1 $238 $145 #
plane-surface $-1 -5.1836685352417078 20.888144544646856 99.965026746875097 0.83867057594974714 0 0.54463902268945019 0.54463902268945019 0 -0.83867057594974714 forward_v I I I I #
loop $-1 $-1 $355 $93 #
coedge $-1 $236 $236 $237 $356 reversed $146 $-1 #
coedge $-1 $237 $237 $236 $356 forward $148 $-1 #
coedge $-1 $238 $238 $149 $239 forward $233 $-1 #
edge $-1 $357 0 $357 6.2831853071796004 $238 $358 forward 7 unknown #
face $-1 $359 $360 $36 $-1 $361 reversed single #
loop $-1 $-1 $362 $150 #
plane-surface $-1 -58.062074648274177 0 0 1 0 0 0 0 -1 forward_v I I I I #
coedge $-1 $363 $251 $364 $365 forward $151 $-1 #
coedge $-1 $366 $153 $363 $367 forward $97 $-1 #
coedge $-1 $153 $366 $368 $369 forward $97 $-1 #
coedge $-1 $254 $253 $153 $247 reversed $255 $-1 #
edge $-1 $370 -25.845038904458846 $371 25.845038904458846 $246 $372 forward 7 unknown #
coedge $-1 $155 $154 $373 $374 forward $61 $-1 #
coedge $-1 $375 $376 $154 $250 reversed $360 $-1 #
edge $-1 $257 -58.062074648274177 $377 58.062074648274177 $249 $378 forward 7 unknown #
coedge $-1 $243 $379 $155 $252 reversed $151 $-1 #
edge $-1 $380 -58.062074648274177 $256 58.062074648274177 $251 $381 forward 7 unknown #
coedge $-1 $246 $156 $379 $382 forward $255 $-1 #
coedge $-1 $156 $246 $375 $383 reversed $255 $-1 #
loop $-1 $-1 $253 $359 #
vertex $-1 $157 $384 #
vertex $-1 $157 $385 #
straight-curve $-1 58.062074648274177 0 6.0445225727234693 0 1 0 I I #
face $-1 $386 $387 $37 $-1 $388 reversed single #
loop $-1 $-1 $265 $158 #
plane-surface $-1 58.062074648274177 0 0 -1 0 0 0 0 1 forward_v I I I I #
coedge $-1 $389 $390 $263 $391 forward $159 $-1 #
coedge $-1 $392 $161 $262 $391 reversed $101 $-1 #
coedge $-1 $161 $392 $162 $268 reversed $101 $-1 #
coedge $-1 $164 $393 $161 $266 forward $260 $-1 #
edge $-1 $394 -3.7722612863617346 $272 -0.77226128636173463 $265 $395 forward 7 unknown #
coedge $-1 $163 $162 $396 $397 reversed $64 $-1 #
edge $-1 $272 -58.062074648274177 $398 58.062074648274177 $264 $399 forward 7 unknown #
coedge $-1 $400 $401 $163 $270 forward $387 $-1 #
edge $-1 $273 -58.062074648274177 $402 58.062074648274177 $269 $403 forward 7 unknown #
coedge $-1 $393 $164 $401 $404 forward $260 $-1 #
vertex $-1 $165 $405 #
vertex $-1 $404 $406 #
straight-curve $-1 58.062074648274177 -11.501635134102047 -3.0445225727234693 0 -1 0 I I #
face $-1 $-1 $407 $38 $-1 $408 reversed single #
loop $-1 $-1 $172 $166 #
plane-surface $-1 0 0 6.0445225727234693 0 0 1 1 0 0 forward_v I I I I #
coedge $-1 $409 $410 $411 $412 reversed $167 $-1 #
coedge $-1 $413 $169 $171 $285 forward $105 $-1 #
coedge $-1 $169 $413 $409 $414 forward $105 $-1 #
coedge $-1 $411 $172 $169 $282 forward $276 $-1 #
edge $-1 $288 -10.147644712188166 $415 -0.17744102002906992 $281 $416 forward 7 unknown #
coedge $-1 $417 $418 $170 $284 forward $407 $-1 #
edge $-1 $419 -34.465606195124685 $287 -29.375127562240873 $283 $420 forward 7 unknown #
edge $-1 $288 -6.3739697476803467 $419 -4.7251171791415696e-014 $171 $421 forward 7 unknown #
coedge $-1 $172 $411 $417 $422 forward $276 $-1 #
vertex $-1 $284 $423 #
vertex $-1 $173 $424 #
straight-curve $-1 -75.401472402764512 -15.310187578296784 6.0445225727234728 1 0 0 I I #
coedge $-1 $290 $290 $-1 $425 reversed $176 $-1 #
edge $-1 $426 0 $426 6.2831853071796004 $177 $427 forward 7 unknown #
vertex $-1 $180 $428 #
ellipse-curve $-1 -56.14409930742012 -12.461557951965613 3.4992832562815561 -0.79863551827123203 0 0.60181501223851219 0.60181501223851219 0 0.79863551827123203 1 I I #
coedge $-1 $294 $294 $-1 $429 reversed $183 $-1 #
edge $-1 $430 0 $430 6.2831853071796004 $184 $431 forward 7 unknown #
vertex $-1 $187 $432 #
ellipse-curve $-1 -56.14409930742012 -8.1886135124688586 3.4992832562815561 -0.79863551827123203 0 0.60181501223851219 0.60181501223851219 0 0.79863551827123203 1 I I #
face $-1 $-1 $433 $41 $-1 $434 reversed single #
loop $-1 $-1 $194 $188 #
plane-surface $-1 0 0 6.0445225727234693 0 0 1 1 0 0 forward_v I I I I #
coedge $-1 $435 $436 $437 $438 reversed $189 $-1 #
coedge $-1 $439 $191 $193 $308 forward $119 $-1 #
coedge $-1 $191 $439 $435 $440 forward $119 $-1 #
coedge $-1 $437 $194 $191 $305 forward $299 $-1 #
edge $-1 $311 1.3539904219138812 $441 11.324194114072977 $304 $442 forward 7 unknown #
coedge $-1 $443 $444 $192 $307 forward $433 $-1 #
edge $-1 $445 -34.465606195124685 $310 -29.375127562240873 $306 $446 forward 7 unknown #
edge $-1 $311 -6.3739697476803467 $445 -4.7251171791415696e-014 $193 $447 forward 7 unknown #
coedge $-1 $194 $437 $443 $448 forward $299 $-1 #
vertex $-1 $195 $449 #
vertex $-1 $195 $450 #
straight-curve $-1 -75.401472402764512 7.6930826899073104 6.0445225727234728 1 0 0 I I #
coedge $-1 $313 $313 $-1 $451 reversed $198 $-1 #
edge $-1 $452 0 $452 6.2831853071796004 $199 $453 forward 7 unknown #
vertex $-1 $202 $454 #
ellipse-curve $-1 -56.14409930742012 10.541712316238481 3.4992832562815561 -0.79863551827123203 0 0.60181501223851219 0.60181501223851219 0 0.79863551827123203 1 I I #
coedge $-1 $317 $317 $-1 $455 reversed $205 $-1 #
edge $-1 $456 0 $456 6.2831853071796004 $206 $457 forward 7 unknown #
vertex $-1 $209 $458 #
ellipse-curve $-1 -56.14409930742012 14.814656755735236 3.4992832562815561 -0.79863551827123203 0 0.60181501223851219 0.60181501223851219 0 0.79863551827123203 1 I I #
face $-1 $-1 $333 $44 $-1 $459 forward single #
loop $-1 $-1 $460 $210 #
plane-surface $-1 58.062074648274177 0 0 -1 0 0 0 0 1 forward_v I I I I #
coedge $-1 $461 $462 $463 $464 reversed $211 $-1 #
coedge $-1 $465 $213 $215 $331 forward $133 $-1 #
coedge $-1 $213 $465 $461 $466 forward $133 $-1 #
coedge $-1 $463 $216 $213 $328 forward $333 $-1 #
edge $-1 $335 2.645409276256693 $467 12.559197995880666 $327 $468 forward 7 unknown #
coedge $-1 $469 $470 $214 $330 forward $322 $-1 #
edge $-1 $471 -79.030265390531014 $334 -75.560862392472032 $329 $472 forward 7 unknown #
edge $-1 $335 111.98736055308957 $471 116.12414929654834 $215 $473 forward 7 unknown #
coedge $-1 $216 $463 $469 $474 forward $333 $-1 #
loop $-1 $-1 $463 $321 #
vertex $-1 $330 $475 #
vertex $-1 $217 $476 #
straight-curve $-1 46.10311931848446 -10.247712912325373 6.0445225727234657 -1 0 0 I I #
coedge $-1 $337 $337 $-1 $477 reversed $220 $-1 #
edge $-1 $478 0 $478 6.2831853071796004 $221 $479 forward 7 unknown #
vertex $-1 $224 $480 #
ellipse-curve $-1 56.93554635911913 -15.204607272137359 4.3098210736939739 0.83867057594974714 0 0.54463902268945019 0.54463902268945019 0 -0.83867057594974714 1 I I #
face $-1 $-1 $481 $46 $-1 $482 reversed single #
loop $-1 $-1 $348 $225 #
plane-surface $-1 0 0 6.0445225727234693 0 0 1 1 0 0 forward_v I I I I #
coedge $-1 $483 $228 $230 $350 forward $142 $-1 #
coedge $-1 $228 $483 $484 $485 reversed $142 $-1 #
coedge $-1 $486 $231 $228 $347 forward $226 $-1 #
edge $-1 $353 5.4871779125114415 $487 15.400966632135418 $346 $488 forward 7 unknown #
coedge $-1 $489 $490 $229 $349 forward $342 $-1 #
edge $-1 $491 9.7058987514796229 $352 11.958955329789717 $348 $492 forward 7 unknown #
edge $-1 $353 -116.12414929654834 $491 -111.98736055308957 $230 $493 forward 7 unknown #
coedge $-1 $231 $486 $489 $494 reversed $226 $-1 #
vertex $-1 $494 $495 #
vertex $-1 $232 $496 #
straight-curve $-1 58.062074648274177 15.93125018483487 81.605384965195498 0 0 -1 I I #
coedge $-1 $355 $355 $-1 $497 reversed $235 $-1 #
edge $-1 $498 0 $498 6.2831853071796004 $236 $499 forward 7 unknown #
vertex $-1 $239 $500 #
ellipse-curve $-1 56.93554635911913 20.888144544646856 4.3098210736939739 0.83867057594974714 0 0.54463902268945019 0.54463902268945019 0 -0.83867057594974714 1 I I #
face $-1 $-1 $255 $36 $-1 $501 reversed single #
loop $-1 $-1 $375 $240 #
plane-surface $-1 0 25.845038904458846 0 0 -1 0 0 0 -1 forward_v I I I I #
coedge $-1 $502 $373 $376 $503 forward $241 $-1 #
coedge $-1 $379 $243 $244 $367 reversed $151 $-1 #
coedge $-1 $373 $502 $243 $365 reversed $241 $-1 #
edge $-1 $380 -6.0445225727234693 $504 6.0445225727234693 $364 $505 forward 7 unknown #
coedge $-1 $245 $244 $502 $506 forward $97 $-1 #
edge $-1 $371 -58.062074648274177 $504 58.062074648274177 $363 $507 forward 7 unknown #
coedge $-1 $376 $375 $245 $369 reversed $360 $-1 #
edge $-1 $508 -58.062074648274177 $370 58.062074648274177 $368 $509 forward 7 unknown #
vertex $-1 $247 $510 #
vertex $-1 $382 $511 #
straight-curve $-1 58.062074648274177 0 -6.0445225727234693 0 -1 0 I I #
coedge $-1 $362 $364 $248 $374 reversed $241 $-1 #
edge $-1 $377 -25.845038904458846 $380 25.845038904458846 $373 $512 forward 7 unknown #
coedge $-1 $368 $249 $254 $383 forward $360 $-1 #
coedge $-1 $249 $368 $362 $503 reversed $360 $-1 #
vertex $-1 $250 $513 #
straight-curve $-1 0 25.845038904458846 6.0445225727234693 -1 0 0 I I #
coedge $-1 $251 $363 $253 $382 reversed $151 $-1 #
vertex $-1 $374 $514 #
straight-curve $-1 0 -25.845038904458846 6.0445225727234693 1 0 0 I I #
edge $-1 $256 -6.0445225727234693 $371 6.0445225727234693 $253 $515 forward 7 unknown #
edge $-1 $257 -6.0445225727234693 $370 6.0445225727234693 $254 $516 forward 7 unknown #
point $-1 58.062074648274177 -25.845038904458846 6.0445225727234693 #
point $-1 58.062074648274177 25.845038904458846 6.0445225727234693 #
face $-1 $-1 $517 $37 $-1 $518 reversed single #
loop $-1 $-1 $269 $259 #
plane-surface $-1 0 -25.845038904458846 0 0 1 0 0 0 1 forward_v I I I I #
coedge $-1 $519 $262 $393 $520 forward $159 $-1 #
coedge $-1 $262 $519 $521 $522 forward $159 $-1 #
edge $-1 $523 -58.062074648274177 $394 58.062074648274177 $262 $524 forward 7 unknown #
coedge $-1 $264 $263 $525 $526 reversed $101 $-1 #
coedge $-1 $265 $271 $389 $520 reversed $260 $-1 #
vertex $-1 $520 $527 #
straight-curve $-1 58.062074648274177 -20.161501631949342 -2.2722612863617346 0 0 1 I I #
coedge $-1 $525 $528 $267 $397 forward $517 $-1 #
edge $-1 $402 -14.343403770356799 $398 -8.659866497847295 $396 $529 forward 7 unknown #
vertex $-1 $397 $530 #
straight-curve $-1 0 -20.161501631949342 -3.0445225727234693 -1 0 0 I I #
coedge $-1 $531 $269 $528 $532 forward $387 $-1 #
coedge $-1 $269 $531 $271 $404 reversed $387 $-1 #
vertex $-1 $532 $533 #
straight-curve $-1 0 -25.845038904458846 -3.0445225727234693 -1 0 0 I I #
edge $-1 $273 3.0445225727234693 $534 6.0445225727234693 $271 $535 forward 7 unknown #
point $-1 58.062074648274177 -20.161501631949342 -3.0445225727234693 #
point $-1 58.062074648274177 -25.845038904458846 -3.0445225727234693 #
loop $-1 $-1 $283 $275 #
plane-surface $-1 -58.062074648274177 0 0 1 0 0 0 0 -1 forward_v I I I I #
coedge $-1 $410 $278 $280 $414 reversed $167 $-1 #
coedge $-1 $278 $409 $536 $537 reversed $167 $-1 #
coedge $-1 $286 $281 $278 $412 forward $276 $-1 #
edge $-1 $415 -21.175348436198462 $538 -17.339397754490335 $411 $539 forward 7 unknown #
coedge $-1 $280 $279 $418 $540 reversed $105 $-1 #
edge $-1 $541 4.7251171791415696e-014 $415 6.3739697476803467 $409 $542 forward 7 unknown #
vertex $-1 $282 $543 #
straight-curve $-1 -54.22612396656605 -5.1625428661086179 6.044522572723471 0 1 0 I I #
coedge $-1 $536 $283 $286 $422 reversed $407 $-1 #
coedge $-1 $283 $536 $413 $540 forward $407 $-1 #
vertex $-1 $284 $544 #
straight-curve $-1 -58.062074648274177 -15.310187578296784 35.419650134964343 0 0 1 I I #
straight-curve $-1 -58.062074648274205 -15.310187578296784 0.95404393983962166 -0.60181501223851219 0 -0.79863551827123203 I I #
edge $-1 $538 5.3399838861376878 $287 15.310187578296784 $417 $545 forward 7 unknown #
point $-1 -58.062074648274177 -15.310187578296784 6.0445225727234693 #
point $-1 -54.22612396656605 -15.310187578296784 6.0445225727234693 #
edge $-1 $546 1 $546 0 $290 $-1 forward 7 unknown #
vertex $-1 $291 $547 #
ellipse-curve $-1 -55.24821485827627 -12.461557951965613 2.8241859203993736 -0.79863551827123203 0 0.60181501223851219 0.60181501223851219 0 0.79863551827123203 1 I I #
point $-1 -55.542284295181588 -12.461557951965613 4.2979187745527732 #
edge $-1 $548 1 $548 0 $294 $-1 forward 7 unknown #
vertex $-1 $295 $549 #
ellipse-curve $-1 -55.24821485827627 -8.1886135124688586 2.8241859203993736 -0.79863551827123203 0 0.60181501223851219 0.60181501223851219 0 0.79863551827123203 1 I I #
point $-1 -55.542284295181588 -8.1886135124688586 4.2979187745527732 #
loop $-1 $-1 $306 $298 #
plane-surface $-1 -58.062074648274177 0 0 1 0 0 0 0 -1 forward_v I I I I #
coedge $-1 $436 $301 $303 $440 reversed $189 $-1 #
coedge $-1 $301 $435 $550 $551 reversed $189 $-1 #
coedge $-1 $309 $304 $301 $438 forward $299 $-1 #
edge $-1 $441 -21.175348436198462 $552 -17.339397754490335 $437 $553 forward 7 unknown #
coedge $-1 $303 $302 $444 $554 reversed $119 $-1 #
edge $-1 $555 4.7251171791415696e-014 $441 6.3739697476803467 $435 $556 forward 7 unknown #
vertex $-1 $305 $557 #
straight-curve $-1 -54.22612396656605 6.3390922679934292 6.044522572723471 0 1 0 I I #
coedge $-1 $550 $306 $309 $448 reversed $433 $-1 #
coedge $-1 $306 $550 $439 $554 forward $433 $-1 #
vertex $-1 $307 $558 #
straight-curve $-1 -58.062074648274177 7.6930826899073104 35.419650134964343 0 0 1 I I #
straight-curve $-1 -58.062074648274205 7.6930826899073104 0.95404393983962166 -0.60181501223851219 0 -0.79863551827123203 I I #
edge $-1 $552 -17.663286382066406 $310 -7.6930826899073104 $443 $559 forward 7 unknown #
point $-1 -58.062074648274177 7.6930826899073104 6.0445225727234693 #
point $-1 -54.22612396656605 7.6930826899073104 6.0445225727234693 #
edge $-1 $560 1 $560 0 $313 $-1 forward 7 unknown #
vertex $-1 $314 $561 #
ellipse-curve $-1 -55.24821485827627 10.541712316238481 2.8241859203993736 -0.79863551827123203 0 0.60181501223851219 0.60181501223851219 0 0.79863551827123203 1 I I #
point $-1 -55.542284295181588 10.541712316238481 4.2979187745527732 #
edge $-1 $562 1 $562 0 $317 $-1 forward 7 unknown #
vertex $-1 $318 $563 #
ellipse-curve $-1 -55.24821485827627 14.814656755735236 2.8241859203993736 -0.79863551827123203 0 0.60181501223851219 0.60181501223851219 0 0.79863551827123203 1 I I #
point $-1 -55.542284295181588 14.814656755735236 4.2979187745527732 #
plane-surface $-1 0 0 6.0445225727234693 0 0 1 1 0 0 forward_v I I I I #
coedge $-1 $470 $469 $462 $564 forward $322 $-1 #
coedge $-1 $462 $324 $326 $466 reversed $211 $-1 #
coedge $-1 $324 $461 $460 $564 reversed $211 $-1 #
coedge $-1 $332 $327 $324 $464 forward $333 $-1 #
edge $-1 $467 9.7058987514796229 $565 11.958955329789717 $463 $566 forward 7 unknown #
coedge $-1 $326 $325 $470 $567 reversed $133 $-1 #
edge $-1 $568 -116.12414929654834 $467 -111.98736055308957 $461 $569 forward 7 unknown #
vertex $-1 $328 $570 #
straight-curve $-1 55.80901806996409 -7.6023036360686795 6.0445225727234657 0 -1 0 I I #
coedge $-1 $460 $329 $332 $474 reversed $322 $-1 #
coedge $-1 $329 $460 $465 $567 forward $322 $-1 #
vertex $-1 $330 $571 #
straight-curve $-1 58.062074648274177 -10.247712912325373 81.605384965195498 0 0 1 I I #
straight-curve $-1 -5.1836685352417078 -10.247712912325373 99.965026746875097 0.54463902268945019 0 -0.83867057594974714 I I #
edge $-1 $565 -20.161501631949346 $334 -10.247712912325373 $469 $572 forward 7 unknown #
point $-1 58.062074648274177 -10.247712912325373 6.0445225727234693 #
point $-1 55.809018069964083 -10.247712912325373 6.0445225727234657 #
edge $-1 $573 1 $573 0 $337 $-1 forward 7 unknown #
vertex $-1 $338 $574 #
ellipse-curve $-1 54.768726887737756 -15.204607272137359 2.9026721011654102 0.83867057594974714 0 0.54463902268945019 0.54463902268945019 0 -0.83867057594974714 1 I I #
point $-1 57.480185381808582 -15.204607272137359 3.4711504977442273 #
loop $-1 $-1 $484 $341 #
plane-surface $-1 0 25.845038904458846 0 0 -1 0 0 0 -1 forward_v I I I I #
coedge $-1 $345 $344 $490 $575 reversed $142 $-1 #
coedge $-1 $576 $577 $345 $485 forward $481 $-1 #
edge $-1 $487 -72.793671935741472 $578 -68.65688319228272 $484 $579 forward 7 unknown #
coedge $-1 $351 $346 $577 $580 reversed $226 $-1 #
vertex $-1 $347 $581 #
straight-curve $-1 58.062074648274177 10.444072272323428 2.5751195746644839 0 1 0 I I #
coedge $-1 $582 $348 $351 $494 forward $342 $-1 #
coedge $-1 $348 $582 $483 $575 forward $342 $-1 #
vertex $-1 $349 $583 #
straight-curve $-1 46.10311931848446 15.93125018483487 6.0445225727234657 1 0 0 I I #
straight-curve $-1 -5.1836685352417078 15.93125018483487 99.965026746875097 -0.54463902268945019 0 0.83867057594974714 I I #
edge $-1 $352 15.93125018483487 $584 25.845038904458846 $351 $585 forward 7 unknown #
point $-1 58.062074648274177 15.93125018483487 6.0445225727234693 #
point $-1 58.062074648274177 15.93125018483487 2.5751195746644839 #
edge $-1 $586 1 $586 0 $355 $-1 forward 7 unknown #
vertex $-1 $356 $587 #
ellipse-curve $-1 54.768726887737756 20.888144544646856 2.9026721011654102 0.83867057594974714 0 0.54463902268945019 0.54463902268945019 0 -0.83867057594974714 1 I I #
point $-1 57.480185381808582 20.888144544646856 3.4711504977442273 #
plane-surface $-1 58.062074648274177 0 0 -1 0 0 0 0 1 forward_v I I I I #
coedge $-1 $364 $362 $366 $506 reversed $241 $-1 #
edge $-1 $377 -6.0445225727234693 $508 6.0445225727234693 $376 $588 forward 7 unknown #
vertex $-1 $506 $589 #
straight-curve $-1 -58.062074648274177 -25.845038904458846 0 0 0 -1 I I #
edge $-1 $504 -25.845038904458846 $508 25.845038904458846 $502 $590 forward 7 unknown #
straight-curve $-1 0 -25.845038904458846 -6.0445225727234693 -1 0 0 I I #
vertex $-1 $369 $591 #
straight-curve $-1 0 25.845038904458846 -6.0445225727234693 1 0 0 I I #
point $-1 58.062074648274177 25.845038904458846 -6.0445225727234693 #
point $-1 58.062074648274177 -25.845038904458846 -6.0445225727234693 #
straight-curve $-1 -58.062074648274177 0 6.0445225727234693 0 -1 0 I I #
point $-1 -58.062074648274177 25.845038904458846 6.0445225727234693 #
point $-1 -58.062074648274177 -25.845038904458846 6.0445225727234693 #
straight-curve $-1 58.062074648274177 -25.845038904458846 0 0 0 -1 I I #
straight-curve $-1 58.062074648274177 25.845038904458846 0 0 0 -1 I I #
loop $-1 $-1 $525 $386 #
plane-surface $-1 -58.062074648274177 0 0 1 0 0 0 0 -1 forward_v I I I I #
coedge $-1 $390 $389 $531 $592 forward $159 $-1 #
edge $-1 $394 20.161501631949342 $534 25.845038904458846 $393 $593 forward 7 unknown #
coedge $-1 $528 $525 $390 $522 reversed $517 $-1 #
edge $-1 $594 -25.845038904458846 $523 -20.161501631949342 $521 $595 forward 7 unknown #
vertex $-1 $526 $596 #
straight-curve $-1 0 -20.161501631949342 -6.0445225727234693 1 0 0 I I #
coedge $-1 $521 $396 $392 $526 forward $517 $-1 #
edge $-1 $398 0.77226128636173463 $523 3.7722612863617346 $525 $597 forward 7 unknown #
point $-1 58.062074648274177 -20.161501631949342 -6.0445225727234693 #
coedge $-1 $396 $521 $400 $532 reversed $517 $-1 #
straight-curve $-1 -58.062074648274177 -11.501635134102047 -3.0445225727234693 0 1 0 I I #
point $-1 -58.062074648274177 -20.161501631949342 -3.0445225727234693 #
coedge $-1 $401 $400 $519 $592 reversed $387 $-1 #
edge $-1 $402 3.0445225727234693 $594 6.0445225727234693 $528 $598 forward 7 unknown #
point $-1 -58.062074648274177 -25.845038904458846 -3.0445225727234693 #
vertex $-1 $404 $599 #
straight-curve $-1 58.062074648274177 -25.845038904458846 0 0 0 -1 I I #
coedge $-1 $418 $417 $410 $537 forward $407 $-1 #
edge $-1 $538 29.375127562240873 $541 34.465606195124685 $536 $600 forward 7 unknown #
vertex $-1 $422 $601 #
straight-curve $-1 -75.401472402764512 -5.3399838861376878 6.0445225727234728 -1 0 0 I I #
edge $-1 $541 0.17744102002906992 $419 10.147644712188166 $418 $602 forward 7 unknown #
vertex $-1 $540 $603 #
straight-curve $-1 -58.062074648274205 -5.3399838861376878 0.95404393983962166 0.60181501223851219 0 0.79863551827123203 I I #
point $-1 -54.22612396656605 -5.3399838861376878 6.0445225727234693 #
point $-1 -58.062074648274177 -15.310187578296784 0.95404393983965941 #
straight-curve $-1 -58.062074648274177 0 6.0445225727234693 0 -1 0 I I #
vertex $-1 $425 $604 #
point $-1 -54.64639984603776 -12.461557951965613 3.6228214386706052 #
vertex $-1 $429 $605 #
point $-1 -54.64639984603776 -8.1886135124688586 3.6228214386706052 #
coedge $-1 $444 $443 $436 $551 forward $433 $-1 #
edge $-1 $552 29.375127562240873 $555 34.465606195124685 $550 $606 forward 7 unknown #
vertex $-1 $448 $607 #
straight-curve $-1 -75.401472402764512 17.663286382066406 6.0445225727234728 -1 0 0 I I #
edge $-1 $555 -11.324194114072977 $445 -1.3539904219138812 $444 $608 forward 7 unknown #
vertex $-1 $554 $609 #
straight-curve $-1 -58.062074648274205 17.663286382066406 0.95404393983962166 0.60181501223851219 0 0.79863551827123203 I I #
point $-1 -54.22612396656605 17.663286382066406 6.0445225727234693 #
point $-1 -58.062074648274177 7.6930826899073104 0.95404393983965941 #
straight-curve $-1 -58.062074648274177 0 6.0445225727234693 0 -1 0 I I #
vertex $-1 $451 $610 #
point $-1 -54.64639984603776 10.541712316238481 3.6228214386706052 #
vertex $-1 $455 $611 #
point $-1 -54.64639984603776 14.814656755735236 3.6228214386706052 #
edge $-1 $565 75.560862392472032 $568 79.030265390531014 $460 $612 forward 7 unknown #
vertex $-1 $474 $613 #
straight-curve $-1 46.10311931848446 -20.161501631949346 6.0445225727234657 1 0 0 I I #
edge $-1 $568 -12.559197995880666 $471 -2.645409276256693 $470 $614 forward 7 unknown #
vertex $-1 $567 $615 #
straight-curve $-1 -5.1836685352417078 -20.161501631949346 99.965026746875097 -0.54463902268945019 0 0.83867057594974714 I I #
point $-1 55.809018069964083 -20.161501631949346 6.0445225727234657 #
point $-1 58.062074648274177 -10.247712912325373 2.5751195746644839 #
straight-curve $-1 58.062074648274177 0 6.0445225727234693 0 1 0 I I #
vertex $-1 $477 $616 #
point $-1 55.313365910427208 -15.204607272137359 2.0640015252156632 #
edge $-1 $578 -15.400966632135415 $491 -5.4871779125114415 $490 $617 forward 7 unknown #
coedge $-1 $577 $484 $582 $618 reversed $481 $-1 #
coedge $-1 $484 $576 $486 $580 forward $481 $-1 #
vertex $-1 $485 $619 #
straight-curve $-1 18.415800307215484 25.845038904458846 63.625030342509731 -0.54463902268945019 0 0.83867057594974714 I I #
edge $-1 $584 -6.0445225727234693 $487 -2.5751195746644862 $486 $620 forward 7 unknown #
point $-1 58.062074648274177 25.845038904458846 2.5751195746644862 #
coedge $-1 $490 $489 $576 $618 forward $342 $-1 #
point $-1 55.809018069964083 15.93125018483487 6.0445225727234657 #
vertex $-1 $494 $621 #
straight-curve $-1 58.062074648274177 0 6.0445225727234693 0 1 0 I I #
vertex $-1 $497 $622 #
point $-1 55.313365910427208 20.888144544646856 2.0640015252156632 #
straight-curve $-1 -58.062074648274177 25.845038904458846 0 0 0 -1 I I #
point $-1 -58.062074648274177 -25.845038904458846 -6.0445225727234693 #
straight-curve $-1 -58.062074648274177 0 -6.0445225727234693 0 1 0 I I #
point $-1 -58.062074648274177 25.845038904458846 -6.0445225727234693 #
edge $-1 $534 -58.062074648274177 $594 58.062074648274177 $531 $623 forward 7 unknown #
straight-curve $-1 58.062074648274177 0 -6.0445225727234693 0 -1 0 I I #
vertex $-1 $522 $624 #
straight-curve $-1 -58.062074648274177 0 -6.0445225727234693 0 1 0 I I #
point $-1 -58.062074648274177 -20.161501631949342 -6.0445225727234693 #
straight-curve $-1 -58.062074648274177 -20.161501631949342 -2.2722612863617346 0 0 -1 I I #
straight-curve $-1 -58.062074648274177 -25.845038904458846 0 0 0 -1 I I #
point $-1 58.062074648274177 -25.845038904458846 -6.0445225727234693 #
straight-curve $-1 -58.062074648274177 -5.3399838861376878 35.419650134964343 0 0 -1 I I #
point $-1 -58.062074648274177 -5.3399838861376878 6.0445225727234693 #
straight-curve $-1 -58.062074648274177 -5.1625428661086179 0.95404393983966218 0 -1 0 I I #
point $-1 -58.062074648274177 -5.3399838861376878 0.95404393983965941 #
point $-1 -54.449579340005045 -12.461557951965613 2.2223709081608609 #
point $-1 -54.449579340005045 -8.1886135124688586 2.2223709081608609 #
straight-curve $-1 -58.062074648274177 17.663286382066406 35.419650134964343 0 0 -1 I I #
point $-1 -58.062074648274177 17.663286382066406 6.0445225727234693 #
straight-curve $-1 -58.062074648274177 6.3390922679934292 0.95404393983966218 0 -1 0 I I #
point $-1 -58.062074648274177 17.663286382066406 0.95404393983965941 #
point $-1 -54.449579340005045 10.541712316238481 2.2223709081608609 #
point $-1 -54.449579340005045 14.814656755735236 2.2223709081608609 #
straight-curve $-1 58.062074648274177 -20.161501631949346 81.605384965195498 0 0 -1 I I #
point $-1 58.062074648274177 -20.161501631949346 6.0445225727234693 #
straight-curve $-1 58.062074648274177 -7.6023036360686795 2.5751195746644839 0 1 0 I I #
point $-1 58.062074648274177 -20.161501631949346 2.5751195746644839 #
point $-1 53.930056311788007 -15.204607272137359 2.3580330784759598 #
straight-curve $-1 55.80901806996409 10.444072272323428 6.0445225727234657 0 -1 0 I I #
edge $-1 $584 -58.062074648274177 $578 -55.809018069964083 $576 $625 forward 7 unknown #
point $-1 55.809018069964083 25.845038904458843 6.0445225727234657 #
straight-curve $-1 58.062074648274177 25.845038904458846 0 0 0 -1 I I #
point $-1 58.062074648274177 25.845038904458846 6.0445225727234693 #
point $-1 53.930056311788007 20.888144544646856 2.3580330784759598 #
straight-curve $-1 0 -25.845038904458846 -6.0445225727234693 -1 0 0 I I #
point $-1 -58.062074648274177 -25.845038904458846 -6.0445225727234693 #
straight-curve $-1 0 25.845038904458846 6.0445225727234693 -1 0 0 I I #
End-of-ACIS-data 