500 0 9 0           
7 Unknown 11 ACIS 5.0 NT 24 Thu Mar 25 22:47:13 1999 
-1 9.9999999999999995e-007 1e-010 
body $-1 $9 $-1 $10 #
body $-1 $11 $-1 $12 #
body $-1 $13 $-1 $14 #
body $-1 $15 $-1 $16 #
body $-1 $17 $-1 $18 #
body $-1 $19 $-1 $20 #
body $-1 $21 $-1 $22 #
body $-1 $23 $-1 $24 #
body $-1 $25 $-1 $26 #
lump $-1 $-1 $27 $0 #
transform $-1 1 0 0 0 1 0 0 0 1 77.043366801965391 51.400178013989837 24.511831466005589 1 rotate no_reflect no_shear #
lump $-1 $-1 $28 $1 #
transform $-1 1 0 0 0 1 0 0 0 1 77.043366801965391 51.400178013989837 24.511831466005589 1 rotate no_reflect no_shear #
lump $-1 $-1 $29 $2 #
transform $-1 1 0 0 0 1 0 0 0 1 77.043366801965391 51.400178013989837 24.511831466005589 1 rotate no_reflect no_shear #
lump $-1 $-1 $30 $3 #
transform $-1 1 0 0 0 1 0 0 0 1 77.043366801965391 51.400178013989837 24.511831466005589 1 rotate no_reflect no_shear #
lump $-1 $-1 $31 $4 #
transform $-1 1 0 0 0 1 0 0 0 1 77.043366801965391 51.400178013989837 24.511831466005589 1 rotate no_reflect no_shear #
lump $-1 $-1 $32 $5 #
transform $-1 1 0 0 0 1 0 0 0 1 77.043366801965391 51.400178013989837 24.511831466005589 1 rotate no_reflect no_shear #
lump $-1 $-1 $33 $6 #
transform $-1 1 0 0 0 1 0 0 0 1 77.043366801965391 51.400178013989837 24.511831466005589 1 rotate no_reflect no_shear #
lump $-1 $-1 $34 $7 #
transform $-1 1 0 0 0 1 0 0 0 1 77.043366801965391 51.400178013989837 24.511831466005589 1 rotate no_reflect no_shear #
lump $-1 $-1 $35 $8 #
transform $-1 1 0 0 0 1 0 0 0 1 77.043366801965391 51.400178013989837 24.511831466005589 1 rotate no_reflect no_shear #
shell $-1 $-1 $-1 $36 $-1 $9 #
shell $-1 $-1 $-1 $37 $-1 $11 #
shell $-1 $-1 $-1 $38 $-1 $13 #
shell $-1 $-1 $-1 $39 $-1 $15 #
shell $-1 $-1 $-1 $40 $-1 $17 #
shell $-1 $-1 $-1 $41 $-1 $19 #
shell $-1 $-1 $-1 $42 $-1 $21 #
shell $-1 $-1 $-1 $43 $-1 $23 #
shell $-1 $-1 $-1 $44 $-1 $25 #
face $-1 $45 $46 $27 $-1 $47 forward single #
face $-1 $48 $49 $28 $-1 $50 reversed single #
face $-1 $51 $52 $29 $-1 $53 forward single #
face $-1 $54 $55 $30 $-1 $56 forward single #
face $-1 $57 $58 $31 $-1 $59 forward single #
face $-1 $60 $61 $32 $-1 $62 reversed single #
face $-1 $63 $64 $33 $-1 $65 forward single #
face $-1 $66 $67 $34 $-1 $68 reversed single #
face $-1 $69 $70 $35 $-1 $71 forward single #
face $-1 $72 $73 $27 $-1 $74 reversed single #
loop $-1 $-1 $75 $36 #
plane-surface $-1 0 0 24.511831466005589 0 0 1 1 0 0 forward_v I I I I #
face $-1 $76 $77 $28 $-1 $78 reversed single #
loop $-1 $-1 $79 $37 #
plane-surface $-1 -180.14751753024032 -22.521143863216096 122.10850619549609 0 1 0 -0.66913061440640931 0 0.74314481823134659 forward_v I I I I #
face $-1 $80 $81 $29 $-1 $82 forward single #
loop $-1 $83 $84 $38 #
cone-surface $-1 -66.076654445618587 -17.872084273274332 14.306212062005137 0.66913061440640931 0 -0.74314481823134659 1.4862896364626932 0 1.3382612288128186 1 I I 0 1 2 forward I I I I #
face $-1 $85 $86 $30 $-1 $87 forward single #
loop $-1 $88 $89 $39 #
cone-surface $-1 -66.076654445618587 -10.898494888361675 14.306212062005137 0.66913061440640931 0 -0.74314481823134659 1.4862896364626932 0 1.3382612288128186 1 I I 0 1 2 forward I I I I #
face $-1 $90 $91 $31 $-1 $92 forward single #
loop $-1 $93 $94 $40 #
cone-surface $-1 -66.076654445618587 -3.9249055034490183 14.306212062005137 0.66913061440640931 0 -0.74314481823134659 1.4862896364626932 0 1.3382612288128186 1 I I 0 1 2 forward I I I I #
face $-1 $95 $96 $32 $-1 $97 reversed single #
loop $-1 $-1 $98 $41 #
plane-surface $-1 39.203425458611449 -18.427372535178364 233.89906572907759 0 -1 0 -0.57357644374324357 0 -0.81915203911291934 forward_v I I I I #
face $-1 $99 $100 $33 $-1 $101 forward single #
loop $-1 $102 $103 $42 #
cone-surface $-1 72.719485243275216 -23.792571023057899 21.046812541163362 -0.57357644374324357 0 -0.81915203911291934 1.228728058669379 0 -0.86036466561486535 1 I I 0 1 1.5 forward I I I I #
face $-1 $104 $105 $34 $-1 $106 reversed single #
loop $-1 $-1 $107 $43 #
plane-surface $-1 39.203425458611449 29.157769510937445 233.89906572907759 0 -1 0 -0.57357644374324357 0 -0.81915203911291934 forward_v I I I I #
face $-1 $108 $109 $35 $-1 $110 forward single #
loop $-1 $111 $112 $44 #
cone-surface $-1 72.719485243275216 23.79257102305791 21.046812541163362 -0.57357644374324357 0 -0.81915203911291934 1.228728058669379 0 -0.86036466561486535 1 I I 0 1 1.5 forward I I I I #
face $-1 $113 $114 $27 $-1 $115 reversed single #
loop $-1 $-1 $116 $45 #
plane-surface $-1 0 0 -24.511831466005589 0 0 1 1 0 0 forward_v I I I I #
coedge $-1 $117 $118 $119 $120 forward $46 $-1 #
face $-1 $121 $122 $28 $-1 $123 reversed single #
loop $-1 $-1 $124 $48 #
plane-surface $-1 -77.043366801965405 -10.898494888361675 7.5997485595410268 -0.66913061440640931 0 0.74314481823134659 0.74314481823134659 0 0.66913061440640931 forward_v I I I I #
coedge $-1 $125 $126 $127 $128 reversed $49 $-1 #
face $-1 $-1 $129 $29 $-1 $130 forward single #
loop $-1 $131 $132 $51 #
cone-surface $-1 -63.832196734219664 -17.872084273274332 11.813489293005617 0.66913061440640931 0 -0.74314481823134659 0.74314481823134659 0 0.66913061440640931 1 I I -0.70710678118654746 0.70710678118654746 1 forward I I I I #
loop $-1 $-1 $133 $38 #
coedge $-1 $84 $84 $134 $135 reversed $52 $-1 #
face $-1 $-1 $136 $30 $-1 $137 forward single #
loop $-1 $138 $139 $54 #
cone-surface $-1 -63.832196734219664 -10.898494888361675 11.813489293005617 0.66913061440640931 0 -0.74314481823134659 0.74314481823134659 0 0.66913061440640931 1 I I -0.70710678118654746 0.70710678118654746 1 forward I I I I #
loop $-1 $-1 $140 $39 #
coedge $-1 $89 $89 $141 $142 reversed $55 $-1 #
face $-1 $-1 $143 $31 $-1 $144 forward single #
loop $-1 $145 $146 $57 #
cone-surface $-1 -63.832196734219664 -3.9249055034490183 11.813489293005617 0.66913061440640931 0 -0.74314481823134659 0.74314481823134659 0 0.66913061440640931 1 I I -0.70710678118654746 0.70710678118654746 1 forward I I I I #
loop $-1 $-1 $147 $40 #
coedge $-1 $94 $94 $148 $149 reversed $58 $-1 #
face $-1 $150 $151 $32 $-1 $152 reversed single #
loop $-1 $-1 $153 $60 #
plane-surface $-1 -49.177095229943717 -23.792571023057899 107.6786036971685 0.57357644374324357 0 0.81915203911291934 0.81915203911291934 0 -0.57357644374324357 forward_v I I I I #
coedge $-1 $154 $155 $156 $157 reversed $61 $-1 #
face $-1 $-1 $158 $33 $-1 $159 forward single #
loop $-1 $160 $161 $63 #
cone-surface $-1 71.688423513810676 -23.792571023057899 19.574303815682569 -0.57357644374324357 0 -0.81915203911291934 0.61436402933468948 0 -0.43018233280743268 1 I I -0.70710678118654757 0.70710678118654757 0.75 forward I I I I #
loop $-1 $-1 $162 $42 #
coedge $-1 $103 $103 $163 $164 reversed $64 $-1 #
face $-1 $165 $166 $34 $-1 $167 reversed single #
loop $-1 $-1 $168 $66 #
plane-surface $-1 -49.177095229943717 23.79257102305791 107.6786036971685 0.57357644374324357 0 0.81915203911291934 0.81915203911291934 0 -0.57357644374324357 forward_v I I I I #
coedge $-1 $169 $170 $171 $172 reversed $67 $-1 #
face $-1 $-1 $173 $35 $-1 $174 forward single #
loop $-1 $175 $176 $69 #
cone-surface $-1 71.688423513810676 23.79257102305791 19.574303815682569 -0.57357644374324357 0 -0.81915203911291934 0.61436402933468948 0 -0.43018233280743268 1 I I -0.70710678118654757 0.70710678118654757 0.75 forward I I I I #
loop $-1 $-1 $177 $44 #
coedge $-1 $112 $112 $178 $179 reversed $70 $-1 #
face $-1 $180 $181 $27 $-1 $182 reversed single #
loop $-1 $-1 $183 $72 #
plane-surface $-1 0 -51.400178013989837 0 0 1 0 0 0 1 forward_v I I I I #
coedge $-1 $184 $185 $186 $187 forward $73 $-1 #
coedge $-1 $188 $75 $189 $190 forward $46 $-1 #
coedge $-1 $75 $188 $191 $192 forward $46 $-1 #
coedge $-1 $193 $194 $75 $120 reversed $195 $-1 #
edge $-1 $196 -51.400178013989837 $197 51.400178013989837 $119 $198 forward 7 unknown #
face $-1 $199 $200 $28 $-1 $201 reversed single #
loop $-1 $-1 $202 $76 #
plane-surface $-1 -180.14751753024032 0.7241540864927476 122.10850619549609 0 -1 0 0.66913061440640931 0 -0.74314481823134659 forward_v I I I I #
coedge $-1 $203 $204 $205 $206 reversed $77 $-1 #
coedge $-1 $126 $79 $207 $208 reversed $49 $-1 #
coedge $-1 $79 $125 $203 $209 reversed $49 $-1 #
coedge $-1 $205 $210 $79 $128 forward $211 $-1 #
edge $-1 $212 13.03039196315477 $213 31.813162481863344 $127 $214 forward 7 unknown #
loop $-1 $-1 $134 $80 #
plane-surface $-1 -77.043366801965405 -10.898494888361675 7.5997485595410268 -0.66913061440640931 0 0.74314481823134659 0.74314481823134659 0 0.66913061440640931 forward_v I I I I #
loop $-1 $-1 $215 $51 #
coedge $-1 $132 $132 $133 $216 reversed $81 $-1 #
coedge $-1 $133 $133 $132 $216 forward $83 $-1 #
coedge $-1 $134 $134 $84 $135 forward $129 $-1 #
edge $-1 $217 0 $217 6.2831853071796004 $134 $218 forward 7 unknown #
loop $-1 $-1 $141 $85 #
plane-surface $-1 -77.043366801965405 -10.898494888361675 7.5997485595410268 -0.66913061440640931 0 0.74314481823134659 0.74314481823134659 0 0.66913061440640931 forward_v I I I I #
loop $-1 $-1 $219 $54 #
coedge $-1 $139 $139 $140 $220 reversed $86 $-1 #
coedge $-1 $140 $140 $139 $220 forward $88 $-1 #
coedge $-1 $141 $141 $89 $142 forward $136 $-1 #
edge $-1 $221 0 $221 6.2831853071796004 $141 $222 forward 7 unknown #
loop $-1 $-1 $148 $90 #
plane-surface $-1 -77.043366801965405 -10.898494888361675 7.5997485595410268 -0.66913061440640931 0 0.74314481823134659 0.74314481823134659 0 0.66913061440640931 forward_v I I I I #
loop $-1 $-1 $223 $57 #
coedge $-1 $146 $146 $147 $224 reversed $91 $-1 #
coedge $-1 $147 $147 $146 $224 forward $93 $-1 #
coedge $-1 $148 $148 $94 $149 forward $143 $-1 #
edge $-1 $225 0 $225 6.2831853071796004 $148 $226 forward 7 unknown #
face $-1 $227 $228 $32 $-1 $229 forward single #
loop $-1 $-1 $230 $95 #
plane-surface $-1 39.203425458611449 -29.157769510937435 233.89906572907759 0 1 0 0.57357644374324357 0 0.81915203911291934 forward_v I I I I #
coedge $-1 $231 $232 $233 $234 reversed $96 $-1 #
coedge $-1 $155 $98 $235 $236 reversed $61 $-1 #
coedge $-1 $98 $154 $231 $237 reversed $61 $-1 #
coedge $-1 $233 $238 $98 $157 forward $228 $-1 #
edge $-1 $239 -57.441654072659666 $240 -49.995649748593458 $156 $241 forward 7 unknown #
loop $-1 $-1 $163 $99 #
plane-surface $-1 -49.177095229943717 -23.792571023057899 107.6786036971685 0.57357644374324357 0 0.81915203911291934 0.81915203911291934 0 -0.57357644374324357 forward_v I I I I #
loop $-1 $-1 $242 $63 #
coedge $-1 $161 $161 $162 $243 reversed $100 $-1 #
coedge $-1 $162 $162 $161 $243 forward $102 $-1 #
coedge $-1 $163 $163 $103 $164 forward $158 $-1 #
edge $-1 $244 0 $244 6.2831853071796004 $163 $245 forward 7 unknown #
face $-1 $246 $247 $34 $-1 $248 reversed single #
loop $-1 $-1 $249 $104 #
plane-surface $-1 39.203425458611449 18.427372535178375 233.89906572907759 0 1 0 0.57357644374324357 0 0.81915203911291934 forward_v I I I I #
coedge $-1 $250 $251 $252 $253 reversed $105 $-1 #
coedge $-1 $170 $107 $254 $255 reversed $67 $-1 #
coedge $-1 $107 $169 $250 $256 reversed $67 $-1 #
coedge $-1 $252 $257 $107 $172 forward $258 $-1 #
edge $-1 $259 -57.441654072659666 $260 -49.995649748593458 $171 $261 forward 7 unknown #
loop $-1 $-1 $178 $108 #
plane-surface $-1 -49.177095229943717 23.79257102305791 107.6786036971685 0.57357644374324357 0 0.81915203911291934 0.81915203911291934 0 -0.57357644374324357 forward_v I I I I #
loop $-1 $-1 $262 $69 #
coedge $-1 $176 $176 $177 $263 reversed $109 $-1 #
coedge $-1 $177 $177 $176 $263 forward $111 $-1 #
coedge $-1 $178 $178 $112 $179 forward $173 $-1 #
edge $-1 $264 0 $264 6.2831853071796004 $178 $265 forward 7 unknown #
face $-1 $266 $267 $27 $-1 $268 reversed single #
loop $-1 $-1 $269 $113 #
plane-surface $-1 -77.043366801965391 0 0 1 0 0 0 0 -1 forward_v I I I I #
coedge $-1 $270 $191 $271 $272 forward $114 $-1 #
coedge $-1 $273 $116 $270 $274 forward $73 $-1 #
coedge $-1 $116 $273 $275 $276 forward $73 $-1 #
coedge $-1 $194 $193 $116 $187 reversed $195 $-1 #
edge $-1 $277 -51.400178013989837 $278 51.400178013989837 $186 $279 forward 7 unknown #
coedge $-1 $118 $117 $280 $281 forward $46 $-1 #
coedge $-1 $282 $283 $117 $190 reversed $267 $-1 #
edge $-1 $197 -77.043366801965391 $284 77.043366801965391 $189 $285 forward 7 unknown #
coedge $-1 $183 $286 $118 $192 reversed $114 $-1 #
edge $-1 $287 -77.043366801965391 $196 77.043366801965391 $191 $288 forward 7 unknown #
coedge $-1 $186 $119 $286 $289 forward $195 $-1 #
coedge $-1 $119 $186 $282 $290 reversed $195 $-1 #
loop $-1 $-1 $193 $266 #
vertex $-1 $120 $291 #
vertex $-1 $120 $292 #
straight-curve $-1 77.043366801965391 0 24.511831466005589 0 1 0 I I #
face $-1 $-1 $211 $28 $-1 $293 forward single #
loop $-1 $-1 $294 $121 #
plane-surface $-1 -77.043366801965391 0 0 1 0 0 0 0 -1 forward_v I I I I #
coedge $-1 $295 $296 $297 $298 reversed $122 $-1 #
coedge $-1 $299 $124 $126 $209 forward $77 $-1 #
coedge $-1 $124 $299 $295 $300 forward $77 $-1 #
coedge $-1 $297 $127 $124 $206 forward $211 $-1 #
edge $-1 $213 -17.071896419035259 $301 6.1734015306735852 $205 $302 forward 7 unknown #
coedge $-1 $303 $304 $125 $208 forward $200 $-1 #
edge $-1 $305 -53.454504538207004 $212 -36.542421631742457 $207 $306 forward 7 unknown #
edge $-1 $213 -25.274711009101555 $305 -1.8881026247711288e-014 $126 $307 forward 7 unknown #
coedge $-1 $127 $297 $303 $308 forward $211 $-1 #
loop $-1 $-1 $297 $199 #
vertex $-1 $208 $309 #
vertex $-1 $128 $310 #
straight-curve $-1 -90.073758765120161 -22.521143863216096 24.511831466005589 1 0 0 I I #
coedge $-1 $215 $215 $-1 $311 reversed $131 $-1 #
edge $-1 $312 0 $312 6.2831853071796004 $132 $313 forward 7 unknown #
vertex $-1 $135 $314 #
ellipse-curve $-1 -67.651981542611097 -17.872084273274332 16.055790012773315 -0.66913061440640931 0 0.74314481823134659 1.4862896364626932 0 1.3382612288128186 1 I I #
coedge $-1 $219 $219 $-1 $315 reversed $138 $-1 #
edge $-1 $316 0 $316 6.2831853071796004 $139 $317 forward 7 unknown #
vertex $-1 $142 $318 #
ellipse-curve $-1 -67.651981542611097 -10.898494888361675 16.055790012773315 -0.66913061440640931 0 0.74314481823134659 1.4862896364626932 0 1.3382612288128186 1 I I #
coedge $-1 $223 $223 $-1 $319 reversed $145 $-1 #
edge $-1 $320 0 $320 6.2831853071796004 $146 $321 forward 7 unknown #
vertex $-1 $149 $322 #
ellipse-curve $-1 -67.651981542611097 -3.9249055034490183 16.055790012773315 -0.66913061440640931 0 0.74314481823134659 1.4862896364626932 0 1.3382612288128186 1 I I #
face $-1 $-1 $323 $32 $-1 $324 reversed single #
loop $-1 $-1 $156 $150 #
plane-surface $-1 0 0 24.511831466005589 0 0 1 1 0 0 forward_v I I I I #
coedge $-1 $325 $326 $327 $328 reversed $151 $-1 #
coedge $-1 $329 $153 $155 $237 forward $96 $-1 #
coedge $-1 $153 $329 $325 $330 forward $96 $-1 #
coedge $-1 $327 $156 $153 $234 forward $228 $-1 #
edge $-1 $240 6.5310870236494143 $331 17.261483999408483 $233 $332 forward 7 unknown #
coedge $-1 $333 $334 $154 $236 forward $323 $-1 #
edge $-1 $335 -97.651449855925478 $239 -92.437701398533207 $235 $336 forward 7 unknown #
edge $-1 $240 144.99684067986547 $335 154.08673360393081 $155 $337 forward 7 unknown #
coedge $-1 $156 $327 $333 $338 forward $228 $-1 #
vertex $-1 $236 $339 #
vertex $-1 $157 $340 #
straight-curve $-1 19.601712729305724 -18.427372535178364 24.511831466005589 -1 0 0 I I #
coedge $-1 $242 $242 $-1 $341 reversed $160 $-1 #
edge $-1 $342 0 $342 6.2831853071796004 $161 $343 forward 7 unknown #
vertex $-1 $164 $344 #
ellipse-curve $-1 73.320364639932308 -23.792571023057899 21.904957237309446 0.57357644374324357 0 0.81915203911291934 1.228728058669379 0 -0.86036466561486535 1 I I #
face $-1 $-1 $258 $34 $-1 $345 forward single #
loop $-1 $-1 $346 $165 #
plane-surface $-1 77.043366801965391 0 0 -1 0 0 0 0 1 forward_v I I I I #
coedge $-1 $347 $348 $349 $350 reversed $166 $-1 #
coedge $-1 $351 $168 $170 $256 forward $105 $-1 #
coedge $-1 $168 $351 $347 $352 forward $105 $-1 #
coedge $-1 $349 $171 $168 $253 forward $258 $-1 #
edge $-1 $260 -17.26148399940849 $353 -6.5310870236494196 $252 $354 forward 7 unknown #
coedge $-1 $355 $356 $169 $255 forward $247 $-1 #
edge $-1 $357 -97.651449855925478 $259 -92.437701398533207 $254 $358 forward 7 unknown #
edge $-1 $260 144.99684067986547 $357 154.08673360393081 $170 $359 forward 7 unknown #
coedge $-1 $171 $349 $355 $360 forward $258 $-1 #
loop $-1 $-1 $349 $246 #
vertex $-1 $255 $361 #
vertex $-1 $172 $362 #
straight-curve $-1 19.601712729305724 29.157769510937445 24.511831466005589 -1 0 0 I I #
coedge $-1 $262 $262 $-1 $363 reversed $175 $-1 #
edge $-1 $364 0 $364 6.2831853071796004 $176 $365 forward 7 unknown #
vertex $-1 $179 $366 #
ellipse-curve $-1 73.320364639932308 23.79257102305791 21.904957237309446 0.57357644374324357 0 0.81915203911291934 1.228728058669379 0 -0.86036466561486535 1 I I #
face $-1 $-1 $195 $27 $-1 $367 reversed single #
loop $-1 $-1 $282 $180 #
plane-surface $-1 0 51.400178013989837 0 0 -1 0 0 0 -1 forward_v I I I I #
coedge $-1 $368 $280 $283 $369 forward $181 $-1 #
coedge $-1 $286 $183 $184 $274 reversed $114 $-1 #
coedge $-1 $280 $368 $183 $272 reversed $181 $-1 #
edge $-1 $287 -24.511831466005589 $370 24.511831466005589 $271 $371 forward 7 unknown #
coedge $-1 $185 $184 $368 $372 forward $73 $-1 #
edge $-1 $278 -77.043366801965391 $370 77.043366801965391 $270 $373 forward 7 unknown #
coedge $-1 $283 $282 $185 $276 reversed $267 $-1 #
edge $-1 $374 -77.043366801965391 $277 77.043366801965391 $275 $375 forward 7 unknown #
vertex $-1 $187 $376 #
vertex $-1 $289 $377 #
straight-curve $-1 77.043366801965391 0 -24.511831466005589 0 -1 0 I I #
coedge $-1 $269 $271 $188 $281 reversed $181 $-1 #
edge $-1 $284 -51.400178013989837 $287 51.400178013989837 $280 $378 forward 7 unknown #
coedge $-1 $275 $189 $194 $290 forward $267 $-1 #
coedge $-1 $189 $275 $269 $369 reversed $267 $-1 #
vertex $-1 $190 $379 #
straight-curve $-1 0 51.400178013989837 24.511831466005589 -1 0 0 I I #
coedge $-1 $191 $270 $193 $289 reversed $114 $-1 #
vertex $-1 $281 $380 #
straight-curve $-1 0 -51.400178013989837 24.511831466005589 1 0 0 I I #
edge $-1 $196 -24.511831466005589 $278 24.511831466005589 $193 $381 forward 7 unknown #
edge $-1 $197 -24.511831466005589 $277 24.511831466005589 $194 $382 forward 7 unknown #
point $-1 77.043366801965391 -51.400178013989837 24.511831466005589 #
point $-1 77.043366801965391 51.400178013989837 24.511831466005589 #
plane-surface $-1 0 0 24.511831466005589 0 0 1 1 0 0 forward_v I I I I #
coedge $-1 $304 $303 $296 $383 forward $200 $-1 #
coedge $-1 $296 $202 $204 $300 reversed $122 $-1 #
coedge $-1 $202 $295 $294 $383 reversed $122 $-1 #
coedge $-1 $210 $205 $202 $298 forward $211 $-1 #
edge $-1 $301 -31.813162481863344 $384 -13.03039196315477 $297 $385 forward 7 unknown #
coedge $-1 $204 $203 $304 $386 reversed $77 $-1 #
edge $-1 $387 1.8881026247711288e-014 $301 25.274711009101555 $295 $388 forward 7 unknown #
vertex $-1 $206 $389 #
straight-curve $-1 -58.26059628325681 -5.4492474441808376 24.511831466005589 0 1 0 I I #
coedge $-1 $294 $207 $210 $308 reversed $200 $-1 #
coedge $-1 $207 $294 $299 $386 forward $200 $-1 #
vertex $-1 $208 $390 #
straight-curve $-1 -77.043366801965391 -22.521143863216096 61.054253097748045 0 0 1 I I #
straight-curve $-1 -77.043366801965405 -22.521143863216096 7.5997485595410268 -0.74314481823134659 0 -0.66913061440640931 I I #
edge $-1 $384 -0.7241540864927476 $212 22.521143863216096 $303 $391 forward 7 unknown #
point $-1 -77.043366801965391 -22.521143863216096 24.511831466005589 #
point $-1 -58.260596283256817 -22.521143863216096 24.511831466005589 #
edge $-1 $392 1 $392 0 $215 $-1 forward 7 unknown #
vertex $-1 $216 $393 #
ellipse-curve $-1 -64.501327348626077 -17.872084273274332 12.556634111236963 -0.66913061440640931 0 0.74314481823134659 1.4862896364626932 0 1.3382612288128186 1 I I #
point $-1 -66.16569190614841 -17.872084273274332 17.394051241586133 #
edge $-1 $394 1 $394 0 $219 $-1 forward 7 unknown #
vertex $-1 $220 $395 #
ellipse-curve $-1 -64.501327348626077 -10.898494888361675 12.556634111236963 -0.66913061440640931 0 0.74314481823134659 1.4862896364626932 0 1.3382612288128186 1 I I #
point $-1 -66.16569190614841 -10.898494888361675 17.394051241586133 #
edge $-1 $396 1 $396 0 $223 $-1 forward 7 unknown #
vertex $-1 $224 $397 #
ellipse-curve $-1 -64.501327348626077 -3.9249055034490183 12.556634111236963 -0.66913061440640931 0 0.74314481823134659 1.4862896364626932 0 1.3382612288128186 1 I I #
point $-1 -66.16569190614841 -3.9249055034490183 17.394051241586133 #
loop $-1 $-1 $235 $227 #
plane-surface $-1 77.043366801965391 0 0 -1 0 0 0 0 1 forward_v I I I I #
coedge $-1 $326 $230 $232 $330 reversed $151 $-1 #
coedge $-1 $230 $325 $398 $399 reversed $151 $-1 #
coedge $-1 $238 $233 $230 $328 forward $228 $-1 #
edge $-1 $331 49.995649748593458 $400 57.441654072659666 $327 $401 forward 7 unknown #
coedge $-1 $232 $231 $334 $402 reversed $96 $-1 #
edge $-1 $403 -154.08673360393081 $331 -144.99684067986547 $325 $404 forward 7 unknown #
vertex $-1 $234 $405 #
straight-curve $-1 69.597362477899182 -11.89628551152895 24.511831466005589 0 -1 0 I I #
coedge $-1 $398 $235 $238 $338 reversed $323 $-1 #
coedge $-1 $235 $398 $329 $402 forward $323 $-1 #
vertex $-1 $236 $406 #
straight-curve $-1 77.043366801965391 -18.427372535178364 116.9495328645388 0 0 1 I I #
straight-curve $-1 -49.177095229943717 -18.427372535178364 107.6786036971685 0.81915203911291934 0 -0.57357644374324357 I I #
edge $-1 $400 -29.157769510937435 $239 -18.427372535178364 $333 $407 forward 7 unknown #
point $-1 77.043366801965391 -18.427372535178364 24.511831466005589 #
point $-1 69.597362477899182 -18.427372535178364 24.511831466005589 #
edge $-1 $408 1 $408 0 $242 $-1 forward 7 unknown #
vertex $-1 $243 $409 #
ellipse-curve $-1 72.118605846618109 -23.792571023057899 20.188667845017257 0.57357644374324357 0 0.81915203911291934 1.228728058669379 0 -0.86036466561486535 1 I I #
point $-1 74.549092698601697 -23.792571023057899 21.044592571694601 #
plane-surface $-1 0 0 24.511831466005589 0 0 1 1 0 0 forward_v I I I I #
coedge $-1 $356 $355 $348 $410 forward $247 $-1 #
coedge $-1 $348 $249 $251 $352 reversed $166 $-1 #
coedge $-1 $249 $347 $346 $410 reversed $166 $-1 #
coedge $-1 $257 $252 $249 $350 forward $258 $-1 #
edge $-1 $353 49.995649748593458 $411 57.441654072659666 $349 $412 forward 7 unknown #
coedge $-1 $251 $250 $356 $413 reversed $105 $-1 #
edge $-1 $414 -154.08673360393081 $353 -144.99684067986547 $347 $415 forward 7 unknown #
vertex $-1 $253 $416 #
straight-curve $-1 69.597362477899182 11.896285511528955 24.511831466005589 0 -1 0 I I #
coedge $-1 $346 $254 $257 $360 reversed $247 $-1 #
coedge $-1 $254 $346 $351 $413 forward $247 $-1 #
vertex $-1 $255 $417 #
straight-curve $-1 77.043366801965391 29.157769510937445 116.9495328645388 0 0 1 I I #
straight-curve $-1 -49.177095229943717 29.157769510937445 107.6786036971685 0.81915203911291934 0 -0.57357644374324357 I I #
edge $-1 $411 18.427372535178375 $259 29.157769510937445 $355 $418 forward 7 unknown #
point $-1 77.043366801965391 29.157769510937445 24.511831466005589 #
point $-1 69.597362477899182 29.157769510937445 24.511831466005589 #
edge $-1 $419 1 $419 0 $262 $-1 forward 7 unknown #
vertex $-1 $263 $420 #
ellipse-curve $-1 72.118605846618109 23.79257102305791 20.188667845017257 0.57357644374324357 0 0.81915203911291934 1.228728058669379 0 -0.86036466561486535 1 I I #
point $-1 74.549092698601697 23.79257102305791 21.044592571694601 #
plane-surface $-1 77.043366801965391 0 0 -1 0 0 0 0 1 forward_v I I I I #
coedge $-1 $271 $269 $273 $372 reversed $181 $-1 #
edge $-1 $284 -24.511831466005589 $374 24.511831466005589 $283 $421 forward 7 unknown #
vertex $-1 $372 $422 #
straight-curve $-1 -77.043366801965391 -51.400178013989837 0 0 0 -1 I I #
edge $-1 $370 -51.400178013989837 $374 51.400178013989837 $368 $423 forward 7 unknown #
straight-curve $-1 0 -51.400178013989837 -24.511831466005589 -1 0 0 I I #
vertex $-1 $276 $424 #
straight-curve $-1 0 51.400178013989837 -24.511831466005589 1 0 0 I I #
point $-1 77.043366801965391 51.400178013989837 -24.511831466005589 #
point $-1 77.043366801965391 -51.400178013989837 -24.511831466005589 #
straight-curve $-1 -77.043366801965391 0 24.511831466005589 0 -1 0 I I #
point $-1 -77.043366801965391 51.400178013989837 24.511831466005589 #
point $-1 -77.043366801965391 -51.400178013989837 24.511831466005589 #
straight-curve $-1 77.043366801965391 -51.400178013989837 0 0 0 -1 I I #
straight-curve $-1 77.043366801965391 51.400178013989837 0 0 0 -1 I I #
edge $-1 $384 36.542421631742457 $387 53.454504538207004 $294 $425 forward 7 unknown #
vertex $-1 $308 $426 #
straight-curve $-1 -90.073758765120161 0.7241540864927476 24.511831466005589 -1 0 0 I I #
edge $-1 $387 -6.1734015306735852 $305 17.071896419035259 $304 $427 forward 7 unknown #
vertex $-1 $386 $428 #
straight-curve $-1 -77.043366801965405 0.7241540864927476 7.5997485595410268 0.74314481823134659 0 0.66913061440640931 I I #
point $-1 -58.260596283256817 0.7241540864927476 24.511831466005589 #
point $-1 -77.043366801965391 -22.521143863216096 7.5997485595410392 #
straight-curve $-1 -77.043366801965391 0 24.511831466005589 0 -1 0 I I #
vertex $-1 $311 $429 #
point $-1 -63.015037712163384 -17.872084273274332 13.894895340049782 #
vertex $-1 $315 $430 #
point $-1 -63.015037712163384 -10.898494888361675 13.894895340049782 #
vertex $-1 $319 $431 #
point $-1 -63.015037712163384 -3.9249055034490183 13.894895340049782 #
coedge $-1 $334 $333 $326 $399 forward $323 $-1 #
edge $-1 $400 92.437701398533207 $403 97.651449855925478 $398 $432 forward 7 unknown #
vertex $-1 $338 $433 #
straight-curve $-1 19.601712729305724 -29.157769510937435 24.511831466005589 1 0 0 I I #
edge $-1 $403 -17.261483999408483 $335 -6.5310870236494143 $334 $434 forward 7 unknown #
vertex $-1 $402 $435 #
straight-curve $-1 -49.177095229943717 -29.157769510937435 107.6786036971685 -0.81915203911291934 0 0.57357644374324357 I I #
point $-1 69.597362477899182 -29.157769510937435 24.511831466005589 #
point $-1 77.043366801965391 -18.427372535178364 19.298083008613318 #
straight-curve $-1 77.043366801965391 0 24.511831466005589 0 1 0 I I #
vertex $-1 $341 $436 #
point $-1 73.347333905287485 -23.792571023057899 19.328303179402393 #
edge $-1 $411 92.437701398533207 $414 97.651449855925478 $346 $437 forward 7 unknown #
vertex $-1 $360 $438 #
straight-curve $-1 19.601712729305724 18.427372535178375 24.511831466005589 1 0 0 I I #
edge $-1 $414 6.5310870236494196 $357 17.26148399940849 $356 $439 forward 7 unknown #
vertex $-1 $413 $440 #
straight-curve $-1 -49.177095229943717 18.427372535178375 107.6786036971685 -0.81915203911291934 0 0.57357644374324357 I I #
point $-1 69.597362477899182 18.427372535178375 24.511831466005589 #
point $-1 77.043366801965391 29.157769510937445 19.298083008613318 #
straight-curve $-1 77.043366801965391 0 24.511831466005589 0 1 0 I I #
vertex $-1 $363 $441 #
point $-1 73.347333905287485 23.79257102305791 19.328303179402393 #
straight-curve $-1 -77.043366801965391 51.400178013989837 0 0 0 -1 I I #
point $-1 -77.043366801965391 -51.400178013989837 -24.511831466005589 #
straight-curve $-1 -77.043366801965391 0 -24.511831466005589 0 1 0 I I #
point $-1 -77.043366801965391 51.400178013989837 -24.511831466005589 #
straight-curve $-1 -77.043366801965391 0.7241540864927476 61.054253097748045 0 0 -1 I I #
point $-1 -77.043366801965391 0.7241540864927476 24.511831466005589 #
straight-curve $-1 -77.043366801965391 -5.4492474441808376 7.5997485595410303 0 -1 0 I I #
point $-1 -77.043366801965391 0.7241540864927476 7.5997485595410392 #
point $-1 -63.163066119813251 -17.872084273274332 11.07034447477427 #
point $-1 -63.163066119813251 -10.898494888361675 11.07034447477427 #
point $-1 -63.163066119813251 -3.9249055034490183 11.07034447477427 #
straight-curve $-1 77.043366801965391 -29.157769510937435 116.9495328645388 0 0 -1 I I #
point $-1 77.043366801965391 -29.157769510937435 24.511831466005589 #
straight-curve $-1 77.043366801965391 -11.89628551152895 19.298083008613311 0 1 0 I I #
point $-1 77.043366801965391 -29.157769510937435 19.298083008613318 #
point $-1 71.258241181003243 -23.792571023057899 18.959939786347881 #
straight-curve $-1 77.043366801965391 18.427372535178375 116.9495328645388 0 0 -1 I I #
point $-1 77.043366801965391 18.427372535178375 24.511831466005589 #
straight-curve $-1 77.043366801965391 11.896285511528955 19.298083008613311 0 1 0 I I #
point $-1 77.043366801965391 18.427372535178375 19.298083008613318 #
point $-1 71.258241181003243 23.79257102305791 18.959939786347881 #
End-of-ACIS-data 