500 0 8 0           
7 Unknown 11 ACIS 5.0 NT 24 Thu Mar 25 17:56:04 1999 
-1 9.9999999999999995e-007 1e-010 
body $-1 $8 $-1 $9 #
body $-1 $10 $-1 $11 #
body $-1 $12 $-1 $13 #
body $-1 $14 $-1 $15 #
body $-1 $16 $-1 $17 #
body $-1 $18 $-1 $19 #
body $-1 $20 $-1 $21 #
body $-1 $22 $-1 $23 #
lump $-1 $-1 $24 $0 #
transform $-1 1 0 0 0 1 0 0 0 1 52.507705923642689 31.39854090602908 8.8126151661878609 1 rotate no_reflect no_shear #
lump $-1 $-1 $25 $1 #
transform $-1 1 0 0 0 1 0 0 0 1 52.507705923642689 31.39854090602908 8.8126151661878609 1 rotate no_reflect no_shear #
lump $-1 $-1 $26 $2 #
transform $-1 1 0 0 0 1 0 0 0 1 52.507705923642689 31.39854090602908 8.8126151661878609 1 rotate no_reflect no_shear #
lump $-1 $-1 $27 $3 #
transform $-1 1 0 0 0 1 0 0 0 1 52.507705923642689 31.39854090602908 8.8126151661878609 1 rotate no_reflect no_shear #
lump $-1 $-1 $28 $4 #
transform $-1 1 0 0 0 1 0 0 0 1 52.507705923642689 31.39854090602908 8.8126151661878609 1 rotate no_reflect no_shear #
lump $-1 $-1 $29 $5 #
transform $-1 1 0 0 0 1 0 0 0 1 52.507705923642689 31.39854090602908 8.8126151661878609 1 rotate no_reflect no_shear #
lump $-1 $-1 $30 $6 #
transform $-1 1 0 0 0 1 0 0 0 1 52.507705923642689 31.39854090602908 8.8126151661878609 1 rotate no_reflect no_shear #
lump $-1 $-1 $31 $7 #
transform $-1 1 0 0 0 1 0 0 0 1 52.507705923642689 31.39854090602908 8.8126151661878609 1 rotate no_reflect no_shear #
shell $-1 $-1 $-1 $32 $-1 $8 #
shell $-1 $-1 $-1 $33 $-1 $10 #
shell $-1 $-1 $-1 $34 $-1 $12 #
shell $-1 $-1 $-1 $35 $-1 $14 #
shell $-1 $-1 $-1 $36 $-1 $16 #
shell $-1 $-1 $-1 $37 $-1 $18 #
shell $-1 $-1 $-1 $38 $-1 $20 #
shell $-1 $-1 $-1 $39 $-1 $22 #
face $-1 $40 $41 $24 $-1 $42 forward single #
face $-1 $43 $44 $25 $-1 $45 reversed single #
face $-1 $46 $47 $26 $-1 $48 reversed single #
face $-1 $49 $50 $27 $-1 $51 forward single #
face $-1 $52 $53 $28 $-1 $54 forward single #
face $-1 $55 $56 $29 $-1 $57 reversed single #
face $-1 $58 $59 $30 $-1 $60 forward single #
face $-1 $61 $62 $31 $-1 $63 forward single #
face $-1 $64 $65 $24 $-1 $66 reversed single #
loop $-1 $-1 $67 $32 #
plane-surface $-1 0 0 8.8126151661878609 0 0 1 1 0 0 forward_v I I I I #
face $-1 $68 $69 $25 $-1 $70 reversed single #
loop $-1 $-1 $71 $33 #
plane-surface $-1 0 -25.897109831529253 5.8126151661878609 0 0 1 1 0 0 forward_v I I I I #
face $-1 $72 $73 $26 $-1 $74 reversed single #
loop $-1 $-1 $75 $34 #
plane-surface $-1 -52.507705923642675 -17.351146253830763 1.1324727689731446 -0.7660444514056185 0 0.64278759981090561 0.64278759981090561 0 0.7660444514056185 forward_v I I I I #
face $-1 $76 $77 $27 $-1 $78 forward single #
loop $-1 $79 $80 $35 #
cone-surface $-1 -48.720099660862303 -18.655945898058761 4.4981136747698498 0.7660444514056185 0 -0.64278759981090561 0.3213937999054528 0 0.38302222570280925 1 I I 0 1 0.5 forward I I I I #
face $-1 $81 $82 $28 $-1 $83 forward single #
loop $-1 $84 $85 $36 #
cone-surface $-1 -48.720099660862303 -16.046346609602764 4.4981136747698498 0.7660444514056185 0 -0.64278759981090561 0.3213937999054528 0 0.38302222570280925 1 I I 0 1 0.5 forward I I I I #
face $-1 $86 $87 $29 $-1 $88 reversed single #
loop $-1 $-1 $89 $37 #
plane-surface $-1 -132.95417948133149 5.5014310744998278 68.635077293443459 0 1 0 -0.7660444514056185 0 0.64278759981090561 forward_v I I I I #
face $-1 $90 $91 $30 $-1 $92 forward single #
loop $-1 $93 $94 $38 #
cone-surface $-1 -48.720099660862303 7.2411639334704923 4.4981136747698498 0.7660444514056185 0 -0.64278759981090561 0.3213937999054528 0 0.38302222570280925 1 I I 0 1 0.5 forward I I I I #
face $-1 $95 $96 $31 $-1 $97 forward single #
loop $-1 $98 $99 $39 #
cone-surface $-1 -48.720099660862303 9.8507632219264885 4.4981136747698498 0.7660444514056185 0 -0.64278759981090561 0.3213937999054528 0 0.38302222570280925 1 I I 0 1 0.5 forward I I I I #
face $-1 $100 $101 $24 $-1 $102 reversed single #
loop $-1 $-1 $103 $40 #
plane-surface $-1 0 0 -8.8126151661878609 0 0 1 1 0 0 forward_v I I I I #
coedge $-1 $104 $105 $106 $107 forward $41 $-1 #
face $-1 $108 $109 $25 $-1 $110 reversed single #
loop $-1 $-1 $111 $43 #
plane-surface $-1 0 -20.395678757029426 7.3126151661878609 0 -1 0 0 0 -1 forward_v I I I I #
coedge $-1 $112 $113 $114 $115 reversed $44 $-1 #
face $-1 $116 $117 $26 $-1 $118 forward single #
loop $-1 $-1 $119 $46 #
plane-surface $-1 -132.95417948133149 -14.306613750632099 68.635077293443459 0 -1 0 0.7660444514056185 0 -0.64278759981090561 forward_v I I I I #
coedge $-1 $120 $121 $122 $123 reversed $47 $-1 #
face $-1 $-1 $124 $27 $-1 $125 forward single #
loop $-1 $126 $127 $49 #
cone-surface $-1 -47.96318452731532 -18.655945898058761 3.8629864820064661 0.7660444514056185 0 -0.64278759981090561 0.1606968999527264 0 0.19151111285140462 1 I I -0.70710678118654813 0.70710678118654691 0.25 forward I I I I #
loop $-1 $-1 $128 $35 #
coedge $-1 $80 $80 $129 $130 reversed $50 $-1 #
face $-1 $-1 $131 $28 $-1 $132 forward single #
loop $-1 $133 $134 $52 #
cone-surface $-1 -47.96318452731532 -16.046346609602764 3.8629864820064661 0.7660444514056185 0 -0.64278759981090561 0.1606968999527264 0 0.19151111285140462 1 I I -0.70710678118654813 0.70710678118654691 0.25 forward I I I I #
loop $-1 $-1 $135 $36 #
coedge $-1 $85 $85 $136 $137 reversed $53 $-1 #
face $-1 $138 $139 $29 $-1 $140 reversed single #
loop $-1 $-1 $141 $55 #
plane-surface $-1 -52.507705923642675 8.5459635776984904 1.1324727689731446 -0.7660444514056185 0 0.64278759981090561 0.64278759981090561 0 0.7660444514056185 forward_v I I I I #
coedge $-1 $142 $143 $144 $145 reversed $56 $-1 #
face $-1 $-1 $146 $30 $-1 $147 forward single #
loop $-1 $148 $149 $58 #
cone-surface $-1 -47.96318452731532 7.2411639334704923 3.8629864820064661 0.7660444514056185 0 -0.64278759981090561 0.1606968999527264 0 0.19151111285140462 1 I I -0.70710678118654813 0.70710678118654691 0.25 forward I I I I #
loop $-1 $-1 $150 $38 #
coedge $-1 $94 $94 $151 $152 reversed $59 $-1 #
face $-1 $-1 $153 $31 $-1 $154 forward single #
loop $-1 $155 $156 $61 #
cone-surface $-1 -47.96318452731532 9.8507632219264885 3.8629864820064661 0.7660444514056185 0 -0.64278759981090561 0.1606968999527264 0 0.19151111285140462 1 I I -0.70710678118654813 0.70710678118654691 0.25 forward I I I I #
loop $-1 $-1 $157 $39 #
coedge $-1 $99 $99 $158 $159 reversed $62 $-1 #
face $-1 $160 $161 $24 $-1 $162 reversed single #
loop $-1 $-1 $163 $64 #
plane-surface $-1 0 -31.39854090602908 0 0 1 0 0 0 1 forward_v I I I I #
coedge $-1 $164 $165 $166 $167 forward $65 $-1 #
coedge $-1 $168 $67 $169 $170 forward $41 $-1 #
coedge $-1 $67 $168 $171 $172 forward $41 $-1 #
coedge $-1 $173 $174 $67 $107 reversed $175 $-1 #
edge $-1 $176 -31.39854090602908 $177 31.39854090602908 $106 $178 forward 7 unknown #
face $-1 $179 $180 $25 $-1 $181 reversed single #
loop $-1 $-1 $182 $68 #
plane-surface $-1 -52.507705923642689 0 0 1 0 0 0 0 -1 forward_v I I I I #
coedge $-1 $183 $184 $185 $186 reversed $69 $-1 #
coedge $-1 $187 $71 $188 $189 reversed $44 $-1 #
coedge $-1 $71 $187 $190 $191 forward $44 $-1 #
coedge $-1 $192 $193 $71 $115 forward $194 $-1 #
edge $-1 $195 -18.449985990264452 $196 -7.4471238412647995 $114 $197 forward 7 unknown #
face $-1 $198 $199 $26 $-1 $200 reversed single #
loop $-1 $-1 $122 $72 #
plane-surface $-1 0 0 8.8126151661878609 0 0 1 1 0 0 forward_v I I I I #
coedge $-1 $201 $202 $203 $204 reversed $73 $-1 #
coedge $-1 $205 $75 $206 $207 reversed $47 $-1 #
coedge $-1 $75 $205 $201 $208 forward $47 $-1 #
coedge $-1 $203 $209 $75 $123 forward $117 $-1 #
edge $-1 $210 -11.720105630114045 $211 -5.6310406237167179 $122 $212 forward 7 unknown #
loop $-1 $-1 $129 $76 #
plane-surface $-1 -52.507705923642675 -17.351146253830763 1.1324727689731446 -0.7660444514056185 0 0.64278759981090561 0.64278759981090561 0 0.7660444514056185 forward_v I I I I #
loop $-1 $-1 $213 $49 #
coedge $-1 $127 $127 $128 $214 reversed $77 $-1 #
coedge $-1 $128 $128 $127 $214 forward $79 $-1 #
coedge $-1 $129 $129 $80 $130 forward $124 $-1 #
edge $-1 $215 0 $215 6.2831853071796004 $129 $216 forward 7 unknown #
loop $-1 $-1 $136 $81 #
plane-surface $-1 -52.507705923642675 -17.351146253830763 1.1324727689731446 -0.7660444514056185 0 0.64278759981090561 0.64278759981090561 0 0.7660444514056185 forward_v I I I I #
loop $-1 $-1 $217 $52 #
coedge $-1 $134 $134 $135 $218 reversed $82 $-1 #
coedge $-1 $135 $135 $134 $218 forward $84 $-1 #
coedge $-1 $136 $136 $85 $137 forward $131 $-1 #
edge $-1 $219 0 $219 6.2831853071796004 $136 $220 forward 7 unknown #
face $-1 $221 $222 $29 $-1 $223 forward single #
loop $-1 $-1 $224 $86 #
plane-surface $-1 -132.95417948133149 11.590496080897154 68.635077293443459 0 -1 0 0.7660444514056185 0 -0.64278759981090561 forward_v I I I I #
coedge $-1 $225 $226 $227 $228 reversed $87 $-1 #
coedge $-1 $143 $89 $229 $230 reversed $56 $-1 #
coedge $-1 $89 $142 $225 $231 reversed $56 $-1 #
coedge $-1 $227 $232 $89 $145 forward $222 $-1 #
edge $-1 $233 13.969383817023058 $234 20.413788301192689 $144 $235 forward 7 unknown #
loop $-1 $-1 $151 $90 #
plane-surface $-1 -52.507705923642675 8.5459635776984904 1.1324727689731446 -0.7660444514056185 0 0.64278759981090561 0.64278759981090561 0 0.7660444514056185 forward_v I I I I #
loop $-1 $-1 $236 $58 #
coedge $-1 $149 $149 $150 $237 reversed $91 $-1 #
coedge $-1 $150 $150 $149 $237 forward $93 $-1 #
coedge $-1 $151 $151 $94 $152 forward $146 $-1 #
edge $-1 $238 0 $238 6.2831853071796004 $151 $239 forward 7 unknown #
loop $-1 $-1 $158 $95 #
plane-surface $-1 -52.507705923642675 8.5459635776984904 1.1324727689731446 -0.7660444514056185 0 0.64278759981090561 0.64278759981090561 0 0.7660444514056185 forward_v I I I I #
loop $-1 $-1 $240 $61 #
coedge $-1 $156 $156 $157 $241 reversed $96 $-1 #
coedge $-1 $157 $157 $156 $241 forward $98 $-1 #
coedge $-1 $158 $158 $99 $159 forward $153 $-1 #
edge $-1 $242 0 $242 6.2831853071796004 $158 $243 forward 7 unknown #
face $-1 $244 $245 $24 $-1 $246 reversed single #
loop $-1 $-1 $247 $100 #
plane-surface $-1 -52.507705923642689 0 0 1 0 0 0 0 -1 forward_v I I I I #
coedge $-1 $248 $171 $249 $250 forward $101 $-1 #
coedge $-1 $251 $103 $248 $252 forward $65 $-1 #
coedge $-1 $103 $251 $253 $254 forward $65 $-1 #
coedge $-1 $174 $173 $103 $167 reversed $175 $-1 #
edge $-1 $255 -31.39854090602908 $256 31.39854090602908 $166 $257 forward 7 unknown #
coedge $-1 $105 $104 $258 $259 forward $41 $-1 #
coedge $-1 $260 $261 $104 $170 reversed $245 $-1 #
edge $-1 $177 -52.507705923642689 $262 52.507705923642689 $169 $263 forward 7 unknown #
coedge $-1 $163 $264 $105 $172 reversed $101 $-1 #
edge $-1 $265 -52.507705923642689 $176 52.507705923642689 $171 $266 forward 7 unknown #
coedge $-1 $166 $106 $264 $267 forward $175 $-1 #
coedge $-1 $106 $166 $260 $268 reversed $175 $-1 #
loop $-1 $-1 $173 $244 #
vertex $-1 $107 $269 #
vertex $-1 $107 $270 #
straight-curve $-1 52.507705923642689 0 8.8126151661878609 0 1 0 I I #
face $-1 $271 $272 $25 $-1 $273 forward single #
loop $-1 $-1 $188 $108 #
plane-surface $-1 0 -31.39854090602908 0 0 1 0 0 0 1 forward_v I I I I #
coedge $-1 $274 $275 $184 $276 forward $109 $-1 #
coedge $-1 $190 $111 $192 $277 reversed $69 $-1 #
coedge $-1 $111 $190 $182 $276 reversed $69 $-1 #
coedge $-1 $278 $279 $111 $186 forward $272 $-1 #
edge $-1 $280 -52.507705923642689 $281 52.507705923642689 $185 $282 forward 7 unknown #
coedge $-1 $113 $112 $274 $283 reversed $44 $-1 #
coedge $-1 $284 $285 $112 $189 forward $180 $-1 #
edge $-1 $286 -52.507705923642689 $195 52.507705923642689 $188 $287 forward 7 unknown #
coedge $-1 $184 $183 $113 $191 reversed $69 $-1 #
edge $-1 $288 -52.507705923642689 $196 52.507705923642689 $190 $289 forward 7 unknown #
coedge $-1 $290 $114 $183 $277 forward $194 $-1 #
coedge $-1 $114 $290 $284 $291 forward $194 $-1 #
loop $-1 $-1 $192 $271 #
vertex $-1 $189 $292 #
vertex $-1 $115 $293 #
straight-curve $-1 52.507705923642689 -12.948554915764626 5.8126151661878609 0 1 0 I I #
face $-1 $-1 $294 $26 $-1 $295 forward single #
loop $-1 $-1 $296 $116 #
plane-surface $-1 -52.507705923642689 0 0 1 0 0 0 0 -1 forward_v I I I I #
coedge $-1 $202 $119 $121 $208 reversed $73 $-1 #
coedge $-1 $119 $201 $296 $297 reversed $73 $-1 #
coedge $-1 $298 $122 $119 $204 forward $117 $-1 #
edge $-1 $211 -20.413788301192689 $299 -13.969383817023058 $203 $300 forward 7 unknown #
coedge $-1 $121 $120 $301 $302 reversed $47 $-1 #
coedge $-1 $303 $304 $120 $207 forward $294 $-1 #
edge $-1 $305 -19.242783027259073 $210 -9.2170692672776404 $206 $306 forward 7 unknown #
edge $-1 $307 -2.2061860048766535e-014 $211 10.025713759981409 $201 $308 forward 7 unknown #
coedge $-1 $122 $298 $303 $309 forward $117 $-1 #
vertex $-1 $207 $310 #
vertex $-1 $123 $311 #
straight-curve $-1 -46.063301439473051 -8.6755731269153813 8.8126151661878609 0 1 0 I I #
coedge $-1 $213 $213 $-1 $312 reversed $126 $-1 #
edge $-1 $313 0 $313 6.2831853071796004 $127 $314 forward 7 unknown #
vertex $-1 $130 $315 #
ellipse-curve $-1 -49.28550368155787 -18.655945898058761 4.9725439675804974 -0.7660444514056185 0 0.64278759981090561 0.3213937999054528 0 0.38302222570280925 1 I I #
coedge $-1 $217 $217 $-1 $316 reversed $133 $-1 #
edge $-1 $317 0 $317 6.2831853071796004 $134 $318 forward 7 unknown #
vertex $-1 $137 $319 #
ellipse-curve $-1 -49.28550368155787 -16.046346609602764 4.9725439675804974 -0.7660444514056185 0 0.64278759981090561 0.3213937999054528 0 0.38302222570280925 1 I I #
face $-1 $-1 $320 $29 $-1 $321 reversed single #
loop $-1 $-1 $144 $138 #
plane-surface $-1 0 0 8.8126151661878609 0 0 1 1 0 0 forward_v I I I I #
coedge $-1 $322 $323 $324 $325 reversed $139 $-1 #
coedge $-1 $326 $141 $143 $231 forward $87 $-1 #
coedge $-1 $141 $326 $322 $327 forward $87 $-1 #
coedge $-1 $324 $144 $141 $228 forward $222 $-1 #
edge $-1 $234 1.2284492856505826 $328 7.3175142920479086 $227 $329 forward 7 unknown #
coedge $-1 $330 $331 $142 $230 forward $320 $-1 #
edge $-1 $332 -33.185065877748599 $233 -25.504923480533868 $229 $333 forward 7 unknown #
edge $-1 $234 -10.025713759981409 $332 2.2061860048766535e-014 $143 $334 forward 7 unknown #
coedge $-1 $144 $324 $330 $335 forward $222 $-1 #
vertex $-1 $145 $336 #
vertex $-1 $145 $337 #
straight-curve $-1 -66.477089740665747 5.5014310744998278 8.8126151661878609 1 0 0 I I #
coedge $-1 $236 $236 $-1 $338 reversed $148 $-1 #
edge $-1 $339 0 $339 6.2831853071796004 $149 $340 forward 7 unknown #
vertex $-1 $152 $341 #
ellipse-curve $-1 -49.28550368155787 7.2411639334704923 4.9725439675804974 -0.7660444514056185 0 0.64278759981090561 0.3213937999054528 0 0.38302222570280925 1 I I #
coedge $-1 $240 $240 $-1 $342 reversed $155 $-1 #
edge $-1 $343 0 $343 6.2831853071796004 $156 $344 forward 7 unknown #
vertex $-1 $159 $345 #
ellipse-curve $-1 -49.28550368155787 9.8507632219264885 4.9725439675804974 -0.7660444514056185 0 0.64278759981090561 0.3213937999054528 0 0.38302222570280925 1 I I #
face $-1 $-1 $175 $24 $-1 $346 reversed single #
loop $-1 $-1 $260 $160 #
plane-surface $-1 0 31.39854090602908 0 0 -1 0 0 0 -1 forward_v I I I I #
coedge $-1 $347 $258 $261 $348 forward $161 $-1 #
coedge $-1 $264 $163 $164 $252 reversed $101 $-1 #
coedge $-1 $258 $347 $163 $250 reversed $161 $-1 #
edge $-1 $265 -8.8126151661878609 $349 8.8126151661878609 $249 $350 forward 7 unknown #
coedge $-1 $165 $164 $347 $351 forward $65 $-1 #
edge $-1 $256 -52.507705923642689 $349 52.507705923642689 $248 $352 forward 7 unknown #
coedge $-1 $261 $260 $165 $254 reversed $245 $-1 #
edge $-1 $353 -52.507705923642689 $255 52.507705923642689 $253 $354 forward 7 unknown #
vertex $-1 $167 $355 #
vertex $-1 $267 $356 #
straight-curve $-1 52.507705923642689 0 -8.8126151661878609 0 -1 0 I I #
coedge $-1 $247 $249 $168 $259 reversed $161 $-1 #
edge $-1 $262 -31.39854090602908 $265 31.39854090602908 $258 $357 forward 7 unknown #
coedge $-1 $253 $169 $174 $268 forward $245 $-1 #
coedge $-1 $169 $253 $247 $348 reversed $245 $-1 #
vertex $-1 $170 $358 #
straight-curve $-1 0 31.39854090602908 8.8126151661878609 -1 0 0 I I #
coedge $-1 $171 $248 $173 $267 reversed $101 $-1 #
vertex $-1 $259 $359 #
straight-curve $-1 0 -31.39854090602908 8.8126151661878609 1 0 0 I I #
edge $-1 $176 -8.8126151661878609 $256 8.8126151661878609 $173 $360 forward 7 unknown #
edge $-1 $177 -8.8126151661878609 $255 8.8126151661878609 $174 $361 forward 7 unknown #
point $-1 52.507705923642689 -31.39854090602908 8.8126151661878609 #
point $-1 52.507705923642689 31.39854090602908 8.8126151661878609 #
face $-1 $-1 $194 $25 $-1 $362 reversed single #
loop $-1 $-1 $185 $179 #
plane-surface $-1 0 0 8.8126151661878609 0 0 1 1 0 0 forward_v I I I I #
coedge $-1 $363 $182 $187 $283 forward $109 $-1 #
coedge $-1 $182 $363 $278 $364 reversed $109 $-1 #
edge $-1 $281 -5.1563075830939304 $288 -2.1563075830939304 $182 $365 forward 7 unknown #
edge $-1 $196 2.1563075830939304 $280 5.1563075830939304 $192 $366 forward 7 unknown #
coedge $-1 $367 $185 $275 $364 forward $272 $-1 #
coedge $-1 $185 $367 $290 $368 forward $272 $-1 #
vertex $-1 $277 $369 #
vertex $-1 $364 $370 #
straight-curve $-1 0 -20.395678757029426 8.8126151661878609 -1 0 0 I I #
edge $-1 $288 7.4471238412647995 $286 18.449985990264452 $274 $371 forward 7 unknown #
coedge $-1 $372 $188 $193 $291 reversed $180 $-1 #
coedge $-1 $188 $372 $363 $373 forward $180 $-1 #
vertex $-1 $189 $374 #
straight-curve $-1 0 -31.39854090602908 5.8126151661878609 1 0 0 I I #
vertex $-1 $283 $375 #
straight-curve $-1 0 -20.395678757029426 5.8126151661878609 1 0 0 I I #
coedge $-1 $193 $192 $279 $368 reversed $194 $-1 #
edge $-1 $376 -8.8126151661878609 $195 -5.8126151661878609 $193 $377 forward 7 unknown #
point $-1 52.507705923642689 -31.39854090602908 5.8126151661878609 #
point $-1 52.507705923642689 -20.395678757029426 5.8126151661878609 #
loop $-1 $-1 $206 $198 #
plane-surface $-1 0 -20.395678757029426 7.3126151661878609 0 -1 0 0 0 -1 forward_v I I I I #
coedge $-1 $301 $378 $202 $297 forward $199 $-1 #
edge $-1 $299 25.504923480533868 $307 33.185065877748599 $296 $379 forward 7 unknown #
coedge $-1 $209 $203 $378 $380 forward $117 $-1 #
vertex $-1 $380 $381 #
straight-curve $-1 -66.477089740665747 -14.306613750632099 8.8126151661878609 -1 0 0 I I #
coedge $-1 $382 $296 $205 $302 forward $199 $-1 #
edge $-1 $307 5.6310406237167179 $305 11.720105630114045 $301 $383 forward 7 unknown #
coedge $-1 $304 $206 $209 $309 reversed $294 $-1 #
coedge $-1 $206 $303 $382 $384 reversed $294 $-1 #
vertex $-1 $384 $385 #
straight-curve $-1 -40.138683607868799 -20.395678757029426 15.873299936607149 0.64278759981090572 0 0.76604445140561861 I I #
vertex $-1 $302 $386 #
straight-curve $-1 -52.507705923642675 -14.306613750632099 1.1324727689731446 0.64278759981090561 0 0.7660444514056185 I I #
edge $-1 $387 -52.507705923642689 $210 -46.063301439473051 $209 $388 forward 7 unknown #
point $-1 -46.063301439473051 -20.395678757029426 8.8126151661878609 #
point $-1 -46.063301439473058 -14.306613750632099 8.8126151661878609 #
edge $-1 $389 1 $389 0 $213 $-1 forward 7 unknown #
vertex $-1 $214 $390 #
ellipse-curve $-1 -48.154695640166722 -18.655945898058761 4.0236833819591924 -0.7660444514056185 0 0.64278759981090561 0.3213937999054528 0 0.38302222570280925 1 I I #
point $-1 -48.964109881652433 -18.655945898058761 5.3555661932833161 #
edge $-1 $391 1 $391 0 $217 $-1 forward 7 unknown #
vertex $-1 $218 $392 #
ellipse-curve $-1 -48.154695640166722 -16.046346609602764 4.0236833819591924 -0.7660444514056185 0 0.64278759981090561 0.3213937999054528 0 0.38302222570280925 1 I I #
point $-1 -48.964109881652433 -16.046346609602764 5.3555661932833161 #
loop $-1 $-1 $229 $221 #
plane-surface $-1 -52.507705923642689 0 0 1 0 0 0 0 -1 forward_v I I I I #
coedge $-1 $323 $224 $226 $327 reversed $139 $-1 #
coedge $-1 $224 $322 $393 $394 reversed $139 $-1 #
coedge $-1 $232 $227 $224 $325 forward $222 $-1 #
edge $-1 $328 -20.413788301192689 $395 -13.969383817023058 $324 $396 forward 7 unknown #
coedge $-1 $226 $225 $331 $397 reversed $87 $-1 #
edge $-1 $398 -2.2061860048766535e-014 $328 10.025713759981409 $322 $399 forward 7 unknown #
vertex $-1 $228 $400 #
straight-curve $-1 -46.063301439473051 4.2729817888492452 8.8126151661878609 0 1 0 I I #
coedge $-1 $393 $229 $232 $335 reversed $320 $-1 #
coedge $-1 $229 $393 $326 $397 forward $320 $-1 #
vertex $-1 $230 $401 #
straight-curve $-1 -52.507705923642689 5.5014310744998278 34.317538646721729 0 0 1 I I #
straight-curve $-1 -52.507705923642675 5.5014310744998278 1.1324727689731446 -0.64278759981090561 0 -0.7660444514056185 I I #
edge $-1 $395 -11.590496080897154 $233 -5.5014310744998278 $330 $402 forward 7 unknown #
point $-1 -52.507705923642689 5.5014310744998278 8.8126151661878609 #
point $-1 -46.063301439473058 5.5014310744998278 8.8126151661878609 #
edge $-1 $403 1 $403 0 $236 $-1 forward 7 unknown #
vertex $-1 $237 $404 #
ellipse-curve $-1 -48.154695640166722 7.2411639334704923 4.0236833819591924 -0.7660444514056185 0 0.64278759981090561 0.3213937999054528 0 0.38302222570280925 1 I I #
point $-1 -48.964109881652433 7.2411639334704923 5.3555661932833161 #
edge $-1 $405 1 $405 0 $240 $-1 forward 7 unknown #
vertex $-1 $241 $406 #
ellipse-curve $-1 -48.154695640166722 9.8507632219264885 4.0236833819591924 -0.7660444514056185 0 0.64278759981090561 0.3213937999054528 0 0.38302222570280925 1 I I #
point $-1 -48.964109881652433 9.8507632219264885 5.3555661932833161 #
plane-surface $-1 52.507705923642689 0 0 -1 0 0 0 0 1 forward_v I I I I #
coedge $-1 $249 $247 $251 $351 reversed $161 $-1 #
edge $-1 $262 -8.8126151661878609 $353 8.8126151661878609 $261 $407 forward 7 unknown #
vertex $-1 $351 $408 #
straight-curve $-1 -52.507705923642689 -31.39854090602908 0 0 0 -1 I I #
edge $-1 $349 -31.39854090602908 $353 31.39854090602908 $347 $409 forward 7 unknown #
straight-curve $-1 0 -31.39854090602908 -8.8126151661878609 -1 0 0 I I #
vertex $-1 $254 $410 #
straight-curve $-1 0 31.39854090602908 -8.8126151661878609 1 0 0 I I #
point $-1 52.507705923642689 31.39854090602908 -8.8126151661878609 #
point $-1 52.507705923642689 -31.39854090602908 -8.8126151661878609 #
straight-curve $-1 -52.507705923642689 0 8.8126151661878609 0 -1 0 I I #
point $-1 -52.507705923642689 31.39854090602908 8.8126151661878609 #
point $-1 -52.507705923642689 -31.39854090602908 8.8126151661878609 #
straight-curve $-1 52.507705923642689 -31.39854090602908 0 0 0 -1 I I #
straight-curve $-1 52.507705923642689 31.39854090602908 0 0 0 -1 I I #
plane-surface $-1 52.507705923642689 0 0 -1 0 0 0 0 1 forward_v I I I I #
coedge $-1 $275 $274 $285 $373 reversed $109 $-1 #
edge $-1 $281 20.395678757029426 $411 31.39854090602908 $275 $412 forward 7 unknown #
straight-curve $-1 -52.507705923642689 -20.395678757029426 3.6563075830939304 0 0 -1 I I #
straight-curve $-1 52.507705923642689 -20.395678757029426 3.6563075830939304 0 0 1 I I #
coedge $-1 $279 $278 $372 $413 forward $272 $-1 #
edge $-1 $376 -31.39854090602908 $280 -20.395678757029426 $290 $414 forward 7 unknown #
point $-1 52.507705923642689 -20.395678757029426 8.8126151661878609 #
point $-1 -52.507705923642689 -20.395678757029426 8.8126151661878609 #
straight-curve $-1 -52.507705923642689 -12.948554915764626 5.8126151661878609 0 -1 0 I I #
coedge $-1 $285 $284 $367 $413 reversed $180 $-1 #
edge $-1 $411 -8.8126151661878609 $286 -5.8126151661878609 $363 $415 forward 7 unknown #
point $-1 -52.507705923642689 -31.39854090602908 5.8126151661878609 #
point $-1 -52.507705923642689 -20.395678757029426 5.8126151661878609 #
vertex $-1 $368 $416 #
straight-curve $-1 52.507705923642689 -31.39854090602908 0 0 0 -1 I I #
coedge $-1 $296 $382 $298 $380 reversed $199 $-1 #
straight-curve $-1 -52.507705923642689 -14.306613750632099 34.317538646721729 0 0 -1 I I #
edge $-1 $299 14.306613750632099 $387 20.395678757029426 $378 $417 forward 7 unknown #
point $-1 -52.507705923642689 -14.306613750632099 8.8126151661878609 #
coedge $-1 $378 $301 $304 $384 forward $199 $-1 #
straight-curve $-1 -52.507705923642689 -8.6755731269153813 1.1324727689731304 0 -1 0 I I #
edge $-1 $305 -33.185065877748599 $387 -25.504923480533868 $382 $418 forward 7 unknown #
point $-1 -52.507705923642689 -20.395678757029426 1.1324727689731278 #
point $-1 -52.507705923642689 -14.306613750632099 1.1324727689731278 #
vertex $-1 $384 $419 #
straight-curve $-1 0 -20.395678757029426 8.8126151661878609 1 0 0 I I #
vertex $-1 $312 $420 #
point $-1 -47.833301840261271 -18.655945898058761 4.4067056076620013 #
vertex $-1 $316 $421 #
point $-1 -47.833301840261271 -16.046346609602764 4.4067056076620013 #
coedge $-1 $331 $330 $323 $394 forward $320 $-1 #
edge $-1 $395 25.504923480533868 $398 33.185065877748599 $393 $422 forward 7 unknown #
vertex $-1 $335 $423 #
straight-curve $-1 -66.477089740665747 11.590496080897154 8.8126151661878609 -1 0 0 I I #
edge $-1 $398 -7.3175142920479086 $332 -1.2284492856505826 $331 $424 forward 7 unknown #
vertex $-1 $397 $425 #
straight-curve $-1 -52.507705923642675 11.590496080897154 1.1324727689731446 0.64278759981090561 0 0.7660444514056185 I I #
point $-1 -46.063301439473058 11.590496080897154 8.8126151661878609 #
point $-1 -52.507705923642689 5.5014310744998278 1.1324727689731278 #
straight-curve $-1 -52.507705923642689 0 8.8126151661878609 0 -1 0 I I #
vertex $-1 $338 $426 #
point $-1 -47.833301840261271 7.2411639334704923 4.4067056076620013 #
vertex $-1 $342 $427 #
point $-1 -47.833301840261271 9.8507632219264885 4.4067056076620013 #
straight-curve $-1 -52.507705923642689 31.39854090602908 0 0 0 -1 I I #
point $-1 -52.507705923642689 -31.39854090602908 -8.8126151661878609 #
straight-curve $-1 -52.507705923642689 0 -8.8126151661878609 0 1 0 I I #
point $-1 -52.507705923642689 31.39854090602908 -8.8126151661878609 #
vertex $-1 $364 $428 #
straight-curve $-1 -52.507705923642689 0 8.8126151661878609 0 -1 0 I I #
edge $-1 $411 -52.507705923642689 $376 52.507705923642689 $372 $429 forward 7 unknown #
straight-curve $-1 52.507705923642689 0 8.8126151661878609 0 1 0 I I #
straight-curve $-1 -52.507705923642689 -31.39854090602908 0 0 0 -1 I I #
point $-1 52.507705923642689 -31.39854090602908 8.8126151661878609 #
straight-curve $-1 -52.507705923642689 0 8.8126151661878609 0 -1 0 I I #
straight-curve $-1 -52.507705923642689 -20.395678757029426 34.317538646721729 0 0 1 I I #
point $-1 -52.507705923642689 -20.395678757029426 8.8126151661878609 #
point $-1 -47.771673414463919 -18.655945898058761 3.7022895820537398 #
point $-1 -47.771673414463919 -16.046346609602764 3.7022895820537398 #
straight-curve $-1 -52.507705923642689 11.590496080897154 34.317538646721729 0 0 -1 I I #
point $-1 -52.507705923642689 11.590496080897154 8.8126151661878609 #
straight-curve $-1 -52.507705923642689 4.2729817888492452 1.1324727689731304 0 -1 0 I I #
point $-1 -52.507705923642689 11.590496080897154 1.1324727689731278 #
point $-1 -47.771673414463919 7.2411639334704923 3.7022895820537398 #
point $-1 -47.771673414463919 9.8507632219264885 3.7022895820537398 #
point $-1 -52.507705923642689 -31.39854090602908 8.8126151661878609 #
straight-curve $-1 0 -31.39854090602908 8.8126151661878609 1 0 0 I I #
End-of-ACIS-data 