500 0 9 0           
7 Unknown 11 ACIS 5.0 NT 24 Fri Mar 26 20:03:33 1999 
-1 9.9999999999999995e-007 1e-010 
body $-1 $9 $-1 $10 #
body $-1 $11 $-1 $12 #
body $-1 $13 $-1 $14 #
body $-1 $15 $-1 $16 #
body $-1 $17 $-1 $18 #
body $-1 $19 $-1 $20 #
body $-1 $21 $-1 $22 #
body $-1 $23 $-1 $24 #
body $-1 $25 $-1 $26 #
lump $-1 $-1 $27 $0 #
transform $-1 1 0 0 0 1 0 0 0 1 55.785393841364787 29.21689136417168 6.3904092140837436 1 rotate no_reflect no_shear #
lump $-1 $-1 $28 $1 #
transform $-1 1 0 0 0 1 0 0 0 1 55.785393841364787 29.21689136417168 6.3904092140837436 1 rotate no_reflect no_shear #
lump $-1 $-1 $29 $2 #
transform $-1 1 0 0 0 1 0 0 0 1 55.785393841364787 29.21689136417168 6.3904092140837436 1 rotate no_reflect no_shear #
lump $-1 $-1 $30 $3 #
transform $-1 1 0 0 0 1 0 0 0 1 55.785393841364787 29.21689136417168 6.3904092140837436 1 rotate no_reflect no_shear #
lump $-1 $-1 $31 $4 #
transform $-1 1 0 0 0 1 0 0 0 1 55.785393841364787 29.21689136417168 6.3904092140837436 1 rotate no_reflect no_shear #
lump $-1 $-1 $32 $5 #
transform $-1 1 0 0 0 1 0 0 0 1 55.785393841364787 29.21689136417168 6.3904092140837436 1 rotate no_reflect no_shear #
lump $-1 $-1 $33 $6 #
transform $-1 1 0 0 0 1 0 0 0 1 55.785393841364787 29.21689136417168 6.3904092140837436 1 rotate no_reflect no_shear #
lump $-1 $-1 $34 $7 #
transform $-1 1 0 0 0 1 0 0 0 1 55.785393841364787 29.21689136417168 6.3904092140837436 1 rotate no_reflect no_shear #
lump $-1 $-1 $35 $8 #
transform $-1 1 0 0 0 1 0 0 0 1 55.785393841364787 29.21689136417168 6.3904092140837436 1 rotate no_reflect no_shear #
shell $-1 $-1 $-1 $36 $-1 $9 #
shell $-1 $-1 $-1 $37 $-1 $11 #
shell $-1 $-1 $-1 $38 $-1 $13 #
shell $-1 $-1 $-1 $39 $-1 $15 #
shell $-1 $-1 $-1 $40 $-1 $17 #
shell $-1 $-1 $-1 $41 $-1 $19 #
shell $-1 $-1 $-1 $42 $-1 $21 #
shell $-1 $-1 $-1 $43 $-1 $23 #
shell $-1 $-1 $-1 $44 $-1 $25 #
face $-1 $45 $46 $27 $-1 $47 forward single #
face $-1 $48 $49 $28 $-1 $50 reversed single #
face $-1 $51 $52 $29 $-1 $53 forward single #
face $-1 $54 $55 $30 $-1 $56 forward single #
face $-1 $57 $58 $31 $-1 $59 forward single #
face $-1 $60 $61 $32 $-1 $62 reversed single #
face $-1 $63 $64 $33 $-1 $65 forward single #
face $-1 $66 $67 $34 $-1 $68 forward single #
face $-1 $69 $70 $35 $-1 $71 forward single #
face $-1 $72 $73 $27 $-1 $74 reversed single #
loop $-1 $-1 $75 $36 #
plane-surface $-1 0 0 6.3904092140837436 0 0 1 1 0 0 forward_v I I I I #
face $-1 $76 $77 $28 $-1 $78 reversed single #
loop $-1 $-1 $79 $37 #
plane-surface $-1 80.468395735731292 17.135305620338325 157.86548007320775 0 1 0 0.80901700255871778 0 0.5877852410284794 forward_v I I I I #
face $-1 $80 $81 $29 $-1 $82 forward single #
loop $-1 $83 $84 $38 #
cone-surface $-1 52.778591195599837 19.551622769105002 3.1748699959607838 -0.80901700255871778 0 -0.5877852410284794 0.5877852410284794 0 -0.80901700255871778 1 I I 0 1 1 forward I I I I #
face $-1 $85 $86 $30 $-1 $87 forward single #
loop $-1 $88 $89 $39 #
cone-surface $-1 52.778591195599837 23.176098492255008 3.1748699959607838 -0.80901700255871778 0 -0.5877852410284794 0.5877852410284794 0 -0.80901700255871778 1 I I 0 1 1 forward I I I I #
face $-1 $90 $91 $31 $-1 $92 forward single #
loop $-1 $93 $94 $40 #
cone-surface $-1 52.778591195599837 26.800574215405014 3.1748699959607838 -0.80901700255871778 0 -0.5877852410284794 0.5877852410284794 0 -0.80901700255871778 1 I I 0 1 1 forward I I I I #
face $-1 $95 $96 $32 $-1 $97 reversed single #
loop $-1 $-1 $98 $41 #
plane-surface $-1 -146.04805806556178 17.135305620338325 67.602815849010767 0 1 0 -0.80901700255871778 0 0.5877852410284794 forward_v I I I I #
face $-1 $99 $100 $33 $-1 $101 forward single #
loop $-1 $102 $103 $42 #
cone-surface $-1 -52.77859119559983 19.551622769105002 3.174869995960782 0.80901700255871778 0 -0.5877852410284794 0.5877852410284794 0 0.80901700255871778 1 I I 0 1 1 forward I I I I #
face $-1 $104 $105 $34 $-1 $106 forward single #
loop $-1 $107 $108 $43 #
cone-surface $-1 -52.77859119559983 23.176098492255008 3.174869995960782 0.80901700255871778 0 -0.5877852410284794 0.5877852410284794 0 0.80901700255871778 1 I I 0 1 1 forward I I I I #
face $-1 $109 $110 $35 $-1 $111 forward single #
loop $-1 $112 $113 $44 #
cone-surface $-1 -52.77859119559983 26.800574215405014 3.174869995960782 0.80901700255871778 0 -0.5877852410284794 0.5877852410284794 0 0.80901700255871778 1 I I 0 1 1 forward I I I I #
face $-1 $114 $115 $27 $-1 $116 reversed single #
loop $-1 $-1 $117 $45 #
plane-surface $-1 0 0 -6.3904092140837436 0 0 1 1 0 0 forward_v I I I I #
coedge $-1 $118 $119 $120 $121 forward $46 $-1 #
face $-1 $122 $123 $28 $-1 $124 forward single #
loop $-1 $-1 $125 $48 #
plane-surface $-1 -9.7942684884657041 23.176098492255001 92.285817743377251 0.80901700255871778 0 0.5877852410284794 0.5877852410284794 0 -0.80901700255871778 forward_v I I I I #
coedge $-1 $126 $127 $128 $129 reversed $49 $-1 #
face $-1 $-1 $130 $29 $-1 $131 forward single #
loop $-1 $132 $133 $51 #
cone-surface $-1 50.953778498614689 19.551622769105002 1.8490660047753265 -0.80901700255871778 0 -0.5877852410284794 0.2938926205142397 0 -0.40450850127935889 1 I I -0.70710678118654746 0.70710678118654746 0.5 forward I I I I #
loop $-1 $-1 $134 $38 #
coedge $-1 $84 $84 $135 $136 reversed $52 $-1 #
face $-1 $-1 $137 $30 $-1 $138 forward single #
loop $-1 $139 $140 $54 #
cone-surface $-1 50.953778498614689 23.176098492255008 1.8490660047753265 -0.80901700255871778 0 -0.5877852410284794 0.2938926205142397 0 -0.40450850127935889 1 I I -0.70710678118654746 0.70710678118654746 0.5 forward I I I I #
loop $-1 $-1 $141 $39 #
coedge $-1 $89 $89 $142 $143 reversed $55 $-1 #
face $-1 $-1 $144 $31 $-1 $145 forward single #
loop $-1 $146 $147 $57 #
cone-surface $-1 50.953778498614689 26.800574215405014 1.8490660047753265 -0.80901700255871778 0 -0.5877852410284794 0.2938926205142397 0 -0.40450850127935889 1 I I -0.70710678118654746 0.70710678118654746 0.5 forward I I I I #
loop $-1 $-1 $148 $40 #
coedge $-1 $94 $94 $149 $150 reversed $58 $-1 #
face $-1 $151 $152 $32 $-1 $153 reversed single #
loop $-1 $-1 $154 $60 #
plane-surface $-1 -55.78539384136478 23.176098492255001 2.0231535191802692 -0.80901700255871778 0 0.5877852410284794 0.5877852410284794 0 0.80901700255871778 forward_v I I I I #
coedge $-1 $155 $156 $157 $158 reversed $61 $-1 #
face $-1 $-1 $159 $33 $-1 $160 forward single #
loop $-1 $161 $162 $63 #
cone-surface $-1 -50.953778498614682 19.551622769105002 1.8490660047753247 0.80901700255871778 0 -0.5877852410284794 0.2938926205142397 0 0.40450850127935889 1 I I -0.70710678118654746 0.70710678118654746 0.5 forward I I I I #
loop $-1 $-1 $163 $42 #
coedge $-1 $103 $103 $164 $165 reversed $64 $-1 #
face $-1 $-1 $166 $34 $-1 $167 forward single #
loop $-1 $168 $169 $66 #
cone-surface $-1 -50.953778498614682 23.176098492255008 1.8490660047753247 0.80901700255871778 0 -0.5877852410284794 0.2938926205142397 0 0.40450850127935889 1 I I -0.70710678118654746 0.70710678118654746 0.5 forward I I I I #
loop $-1 $-1 $170 $43 #
coedge $-1 $108 $108 $171 $172 reversed $67 $-1 #
face $-1 $-1 $173 $35 $-1 $174 forward single #
loop $-1 $175 $176 $69 #
cone-surface $-1 -50.953778498614682 26.800574215405014 1.8490660047753247 0.80901700255871778 0 -0.5877852410284794 0.2938926205142397 0 0.40450850127935889 1 I I -0.70710678118654746 0.70710678118654746 0.5 forward I I I I #
loop $-1 $-1 $177 $44 #
coedge $-1 $113 $113 $178 $179 reversed $70 $-1 #
face $-1 $180 $181 $27 $-1 $182 reversed single #
loop $-1 $-1 $183 $72 #
plane-surface $-1 0 -29.21689136417168 0 0 1 0 0 0 1 forward_v I I I I #
coedge $-1 $184 $185 $186 $187 forward $73 $-1 #
coedge $-1 $188 $75 $189 $190 forward $46 $-1 #
coedge $-1 $75 $188 $191 $192 forward $46 $-1 #
coedge $-1 $193 $194 $75 $121 reversed $195 $-1 #
edge $-1 $196 -29.21689136417168 $197 29.21689136417168 $120 $198 forward 7 unknown #
face $-1 $199 $200 $28 $-1 $201 reversed single #
loop $-1 $-1 $202 $76 #
plane-surface $-1 0 0 6.3904092140837436 0 0 1 1 0 0 forward_v I I I I #
coedge $-1 $203 $204 $205 $206 reversed $77 $-1 #
coedge $-1 $127 $79 $207 $208 reversed $49 $-1 #
coedge $-1 $79 $126 $203 $209 reversed $49 $-1 #
coedge $-1 $205 $210 $79 $129 forward $200 $-1 #
edge $-1 $211 72.542330822520128 $212 76.909586517423591 $128 $213 forward 7 unknown #
loop $-1 $-1 $135 $80 #
plane-surface $-1 -9.7942684884657041 23.176098492255001 92.285817743377251 0.80901700255871778 0 0.5877852410284794 0.5877852410284794 0 -0.80901700255871778 forward_v I I I I #
loop $-1 $-1 $214 $51 #
coedge $-1 $133 $133 $134 $215 reversed $81 $-1 #
coedge $-1 $134 $134 $133 $215 forward $83 $-1 #
coedge $-1 $135 $135 $84 $136 forward $130 $-1 #
edge $-1 $216 0 $216 6.2831853071796004 $135 $217 forward 7 unknown #
loop $-1 $-1 $142 $85 #
plane-surface $-1 -9.7942684884657041 23.176098492255001 92.285817743377251 0.80901700255871778 0 0.5877852410284794 0.5877852410284794 0 -0.80901700255871778 forward_v I I I I #
loop $-1 $-1 $218 $54 #
coedge $-1 $140 $140 $141 $219 reversed $86 $-1 #
coedge $-1 $141 $141 $140 $219 forward $88 $-1 #
coedge $-1 $142 $142 $89 $143 forward $137 $-1 #
edge $-1 $220 0 $220 6.2831853071796004 $142 $221 forward 7 unknown #
loop $-1 $-1 $149 $90 #
plane-surface $-1 -9.7942684884657041 23.176098492255001 92.285817743377251 0.80901700255871778 0 0.5877852410284794 0.5877852410284794 0 -0.80901700255871778 forward_v I I I I #
loop $-1 $-1 $222 $57 #
coedge $-1 $147 $147 $148 $223 reversed $91 $-1 #
coedge $-1 $148 $148 $147 $223 forward $93 $-1 #
coedge $-1 $149 $149 $94 $150 forward $144 $-1 #
edge $-1 $224 0 $224 6.2831853071796004 $149 $225 forward 7 unknown #
face $-1 $226 $227 $32 $-1 $228 forward single #
loop $-1 $-1 $229 $95 #
plane-surface $-1 0 29.21689136417168 0 0 -1 0 0 0 -1 forward_v I I I I #
coedge $-1 $230 $231 $232 $233 reversed $96 $-1 #
coedge $-1 $156 $98 $234 $235 reversed $61 $-1 #
coedge $-1 $98 $155 $230 $236 reversed $61 $-1 #
coedge $-1 $232 $237 $98 $158 forward $227 $-1 #
edge $-1 $238 17.238635191416101 $239 20.411632091534443 $157 $240 forward 7 unknown #
loop $-1 $-1 $164 $99 #
plane-surface $-1 -55.78539384136478 23.176098492255001 2.0231535191802692 -0.80901700255871778 0 0.5877852410284794 0.5877852410284794 0 0.80901700255871778 forward_v I I I I #
loop $-1 $-1 $241 $63 #
coedge $-1 $162 $162 $163 $242 reversed $100 $-1 #
coedge $-1 $163 $163 $162 $242 forward $102 $-1 #
coedge $-1 $164 $164 $103 $165 forward $159 $-1 #
edge $-1 $243 0 $243 6.2831853071796004 $164 $244 forward 7 unknown #
loop $-1 $-1 $171 $104 #
plane-surface $-1 -55.78539384136478 23.176098492255001 2.0231535191802692 -0.80901700255871778 0 0.5877852410284794 0.5877852410284794 0 0.80901700255871778 forward_v I I I I #
loop $-1 $-1 $245 $66 #
coedge $-1 $169 $169 $170 $246 reversed $105 $-1 #
coedge $-1 $170 $170 $169 $246 forward $107 $-1 #
coedge $-1 $171 $171 $108 $172 forward $166 $-1 #
edge $-1 $247 0 $247 6.2831853071796004 $171 $248 forward 7 unknown #
loop $-1 $-1 $178 $109 #
plane-surface $-1 -55.78539384136478 23.176098492255001 2.0231535191802692 -0.80901700255871778 0 0.5877852410284794 0.5877852410284794 0 0.80901700255871778 forward_v I I I I #
loop $-1 $-1 $249 $69 #
coedge $-1 $176 $176 $177 $250 reversed $110 $-1 #
coedge $-1 $177 $177 $176 $250 forward $112 $-1 #
coedge $-1 $178 $178 $113 $179 forward $173 $-1 #
edge $-1 $251 0 $251 6.2831853071796004 $178 $252 forward 7 unknown #
face $-1 $253 $254 $27 $-1 $255 reversed single #
loop $-1 $-1 $256 $114 #
plane-surface $-1 -55.785393841364787 0 0 1 0 0 0 0 -1 forward_v I I I I #
coedge $-1 $257 $191 $258 $259 forward $115 $-1 #
coedge $-1 $260 $117 $257 $261 forward $73 $-1 #
coedge $-1 $117 $260 $262 $263 forward $73 $-1 #
coedge $-1 $194 $193 $117 $187 reversed $195 $-1 #
edge $-1 $264 -29.21689136417168 $265 29.21689136417168 $186 $266 forward 7 unknown #
coedge $-1 $119 $118 $267 $268 forward $46 $-1 #
coedge $-1 $269 $270 $118 $190 reversed $254 $-1 #
edge $-1 $197 -55.785393841364787 $271 55.785393841364787 $189 $272 forward 7 unknown #
coedge $-1 $183 $273 $119 $192 reversed $115 $-1 #
edge $-1 $274 -55.785393841364787 $196 55.785393841364787 $191 $275 forward 7 unknown #
coedge $-1 $186 $120 $273 $276 forward $195 $-1 #
coedge $-1 $120 $186 $269 $277 reversed $195 $-1 #
loop $-1 $-1 $193 $253 #
vertex $-1 $121 $278 #
vertex $-1 $121 $279 #
straight-curve $-1 55.785393841364787 0 6.3904092140837436 0 1 0 I I #
face $-1 $-1 $280 $28 $-1 $281 reversed single #
loop $-1 $-1 $128 $122 #
plane-surface $-1 55.785393841364787 0 0 -1 0 0 0 0 1 forward_v I I I I #
coedge $-1 $207 $282 $283 $284 forward $123 $-1 #
coedge $-1 $283 $125 $127 $209 forward $77 $-1 #
coedge $-1 $125 $283 $285 $286 reversed $77 $-1 #
coedge $-1 $287 $128 $125 $206 forward $200 $-1 #
edge $-1 $212 5.547256374210825 $288 17.628842118044179 $205 $289 forward 7 unknown #
coedge $-1 $290 $202 $126 $208 forward $123 $-1 #
edge $-1 $291 12.378199073380813 $211 15.551195973499141 $207 $292 forward 7 unknown #
edge $-1 $212 -111.57078768272955 $291 -106.1725628233126 $127 $293 forward 7 unknown #
coedge $-1 $128 $287 $290 $294 reversed $200 $-1 #
vertex $-1 $294 $295 #
vertex $-1 $129 $296 #
straight-curve $-1 55.785393841364787 17.135305620338325 78.932740036603875 0 0 -1 I I #
coedge $-1 $214 $214 $-1 $297 reversed $132 $-1 #
edge $-1 $298 0 $298 6.2831853071796004 $133 $299 forward 7 unknown #
vertex $-1 $136 $300 #
ellipse-curve $-1 54.198895391305626 19.551622769105002 4.2067813666320015 0.80901700255871778 0 0.5877852410284794 0.5877852410284794 0 -0.80901700255871778 1 I I #
coedge $-1 $218 $218 $-1 $301 reversed $139 $-1 #
edge $-1 $302 0 $302 6.2831853071796004 $140 $303 forward 7 unknown #
vertex $-1 $143 $304 #
ellipse-curve $-1 54.198895391305626 23.176098492255008 4.2067813666320015 0.80901700255871778 0 0.5877852410284794 0.5877852410284794 0 -0.80901700255871778 1 I I #
coedge $-1 $222 $222 $-1 $305 reversed $146 $-1 #
edge $-1 $306 0 $306 6.2831853071796004 $147 $307 forward 7 unknown #
vertex $-1 $150 $308 #
ellipse-curve $-1 54.198895391305626 26.800574215405014 4.2067813666320015 0.80901700255871778 0 0.5877852410284794 0.5877852410284794 0 -0.80901700255871778 1 I I #
face $-1 $-1 $309 $32 $-1 $310 reversed single #
loop $-1 $-1 $232 $151 #
plane-surface $-1 0 0 6.3904092140837436 0 0 1 1 0 0 forward_v I I I I #
coedge $-1 $311 $312 $231 $313 forward $152 $-1 #
coedge $-1 $314 $154 $156 $236 forward $96 $-1 #
coedge $-1 $154 $314 $229 $313 reversed $96 $-1 #
coedge $-1 $315 $157 $154 $233 forward $227 $-1 #
edge $-1 $239 5.547256374210825 $316 17.628842118044176 $232 $317 forward 7 unknown #
coedge $-1 $318 $319 $155 $235 forward $309 $-1 #
edge $-1 $320 -31.778254405325125 $238 -27.410998710421641 $234 $321 forward 7 unknown #
edge $-1 $239 -5.3982248594169722 $320 1.2080531203272332e-014 $156 $322 forward 7 unknown #
coedge $-1 $157 $315 $318 $323 forward $227 $-1 #
vertex $-1 $235 $324 #
vertex $-1 $158 $325 #
straight-curve $-1 -73.024029032780888 17.135305620338325 6.3904092140837427 1 0 0 I I #
coedge $-1 $241 $241 $-1 $326 reversed $161 $-1 #
edge $-1 $327 0 $327 6.2831853071796004 $162 $328 forward 7 unknown #
vertex $-1 $165 $329 #
ellipse-curve $-1 -54.198895391305619 19.551622769105002 4.2067813666319998 -0.80901700255871778 0 0.5877852410284794 0.5877852410284794 0 0.80901700255871778 1 I I #
coedge $-1 $245 $245 $-1 $330 reversed $168 $-1 #
edge $-1 $331 0 $331 6.2831853071796004 $169 $332 forward 7 unknown #
vertex $-1 $172 $333 #
ellipse-curve $-1 -54.198895391305619 23.176098492255008 4.2067813666319998 -0.80901700255871778 0 0.5877852410284794 0.5877852410284794 0 0.80901700255871778 1 I I #
coedge $-1 $249 $249 $-1 $334 reversed $175 $-1 #
edge $-1 $335 0 $335 6.2831853071796004 $176 $336 forward 7 unknown #
vertex $-1 $179 $337 #
ellipse-curve $-1 -54.198895391305619 26.800574215405014 4.2067813666319998 -0.80901700255871778 0 0.5877852410284794 0.5877852410284794 0 0.80901700255871778 1 I I #
face $-1 $-1 $195 $27 $-1 $338 reversed single #
loop $-1 $-1 $269 $180 #
plane-surface $-1 0 29.21689136417168 0 0 -1 0 0 0 -1 forward_v I I I I #
coedge $-1 $339 $267 $270 $340 forward $181 $-1 #
coedge $-1 $273 $183 $184 $261 reversed $115 $-1 #
coedge $-1 $267 $339 $183 $259 reversed $181 $-1 #
edge $-1 $274 -6.3904092140837436 $341 6.3904092140837436 $258 $342 forward 7 unknown #
coedge $-1 $185 $184 $339 $343 forward $73 $-1 #
edge $-1 $265 -55.785393841364787 $341 55.785393841364787 $257 $344 forward 7 unknown #
coedge $-1 $270 $269 $185 $263 reversed $254 $-1 #
edge $-1 $345 -55.785393841364787 $264 55.785393841364787 $262 $346 forward 7 unknown #
vertex $-1 $187 $347 #
vertex $-1 $276 $348 #
straight-curve $-1 55.785393841364787 0 -6.3904092140837436 0 -1 0 I I #
coedge $-1 $256 $258 $188 $268 reversed $181 $-1 #
edge $-1 $271 -29.21689136417168 $274 29.21689136417168 $267 $349 forward 7 unknown #
coedge $-1 $262 $189 $194 $277 forward $254 $-1 #
coedge $-1 $189 $262 $256 $340 reversed $254 $-1 #
vertex $-1 $190 $350 #
straight-curve $-1 0 29.21689136417168 6.3904092140837436 -1 0 0 I I #
coedge $-1 $191 $257 $193 $276 reversed $115 $-1 #
vertex $-1 $268 $351 #
straight-curve $-1 0 -29.21689136417168 6.3904092140837436 1 0 0 I I #
edge $-1 $196 -6.3904092140837436 $265 6.3904092140837436 $193 $352 forward 7 unknown #
edge $-1 $197 -6.3904092140837436 $264 6.3904092140837436 $194 $353 forward 7 unknown #
point $-1 55.785393841364787 -29.21689136417168 6.3904092140837436 #
point $-1 55.785393841364787 29.21689136417168 6.3904092140837436 #
loop $-1 $-1 $285 $199 #
plane-surface $-1 0 29.21689136417168 0 0 -1 0 0 0 -1 forward_v I I I I #
coedge $-1 $202 $290 $354 $355 forward $123 $-1 #
coedge $-1 $204 $203 $202 $284 reversed $77 $-1 #
edge $-1 $356 -17.628842118044176 $291 -5.547256374210825 $202 $357 forward 7 unknown #
coedge $-1 $354 $358 $204 $286 forward $280 $-1 #
edge $-1 $288 -71.361926625920717 $356 -65.96370176650376 $285 $359 forward 7 unknown #
coedge $-1 $210 $205 $358 $360 reversed $200 $-1 #
vertex $-1 $206 $361 #
straight-curve $-1 55.785393841364787 11.5880492461275 2.0231535191802834 0 1 0 I I #
coedge $-1 $282 $207 $210 $294 forward $123 $-1 #
vertex $-1 $208 $362 #
straight-curve $-1 40.234197867865646 17.135305620338325 6.3904092140837463 1 0 0 I I #
straight-curve $-1 -9.7942684884657041 17.135305620338325 92.285817743377251 -0.5877852410284794 0 0.80901700255871778 I I #
edge $-1 $211 17.135305620338325 $363 29.21689136417168 $210 $364 forward 7 unknown #
point $-1 55.785393841364787 17.135305620338325 6.3904092140837436 #
point $-1 55.78539384136478 17.135305620338325 2.0231535191802834 #
edge $-1 $365 1 $365 0 $214 $-1 forward 7 unknown #
vertex $-1 $215 $366 #
ellipse-curve $-1 51.358286999894048 19.551622769105002 2.142958625289566 0.80901700255871778 0 0.5877852410284794 0.5877852410284794 0 -0.80901700255871778 1 I I #
point $-1 54.786680632334104 19.551622769105002 3.397764364073284 #
edge $-1 $367 1 $367 0 $218 $-1 forward 7 unknown #
vertex $-1 $219 $368 #
ellipse-curve $-1 51.358286999894048 23.176098492255008 2.142958625289566 0.80901700255871778 0 0.5877852410284794 0.5877852410284794 0 -0.80901700255871778 1 I I #
point $-1 54.786680632334104 23.176098492255008 3.397764364073284 #
edge $-1 $369 1 $369 0 $222 $-1 forward 7 unknown #
vertex $-1 $223 $370 #
ellipse-curve $-1 51.358286999894048 26.800574215405014 2.142958625289566 0.80901700255871778 0 0.5877852410284794 0.5877852410284794 0 -0.80901700255871778 1 I I #
point $-1 54.786680632334104 26.800574215405014 3.397764364073284 #
loop $-1 $-1 $234 $226 #
plane-surface $-1 -55.785393841364787 0 0 1 0 0 0 0 -1 forward_v I I I I #
coedge $-1 $312 $229 $371 $372 reversed $152 $-1 #
coedge $-1 $229 $311 $315 $373 reversed $152 $-1 #
edge $-1 $316 10.178307925138977 $374 15.576532784555962 $229 $375 forward 7 unknown #
coedge $-1 $231 $230 $319 $376 reversed $96 $-1 #
coedge $-1 $237 $232 $312 $373 forward $227 $-1 #
vertex $-1 $373 $377 #
straight-curve $-1 -52.612396941246445 11.5880492461275 6.3904092140837445 0 1 0 I I #
coedge $-1 $371 $234 $237 $323 reversed $309 $-1 #
coedge $-1 $234 $371 $314 $376 forward $309 $-1 #
vertex $-1 $235 $378 #
straight-curve $-1 -55.785393841364787 17.135305620338325 33.801407924505384 0 0 1 I I #
straight-curve $-1 -55.78539384136478 17.135305620338325 2.0231535191802692 -0.5877852410284794 0 -0.80901700255871778 I I #
edge $-1 $379 -29.21689136417168 $238 -17.135305620338325 $318 $380 forward 7 unknown #
point $-1 -55.785393841364787 17.135305620338325 6.3904092140837436 #
point $-1 -52.612396941246445 17.135305620338325 6.3904092140837436 #
edge $-1 $381 1 $381 0 $241 $-1 forward 7 unknown #
vertex $-1 $242 $382 #
ellipse-curve $-1 -51.358286999894041 19.551622769105002 2.1429586252895643 -0.80901700255871778 0 0.5877852410284794 0.5877852410284794 0 0.80901700255871778 1 I I #
point $-1 -53.611110150277135 19.551622769105002 5.0157983691907173 #
edge $-1 $383 1 $383 0 $245 $-1 forward 7 unknown #
vertex $-1 $246 $384 #
ellipse-curve $-1 -51.358286999894041 23.176098492255008 2.1429586252895643 -0.80901700255871778 0 0.5877852410284794 0.5877852410284794 0 0.80901700255871778 1 I I #
point $-1 -53.611110150277135 23.176098492255008 5.0157983691907173 #
edge $-1 $385 1 $385 0 $249 $-1 forward 7 unknown #
vertex $-1 $250 $386 #
ellipse-curve $-1 -51.358286999894041 26.800574215405014 2.1429586252895643 -0.80901700255871778 0 0.5877852410284794 0.5877852410284794 0 0.80901700255871778 1 I I #
point $-1 -53.611110150277135 26.800574215405014 5.0157983691907173 #
plane-surface $-1 55.785393841364787 0 0 -1 0 0 0 0 1 forward_v I I I I #
coedge $-1 $258 $256 $260 $343 reversed $181 $-1 #
edge $-1 $271 -6.3904092140837436 $345 6.3904092140837436 $270 $387 forward 7 unknown #
vertex $-1 $343 $388 #
straight-curve $-1 -55.785393841364787 -29.21689136417168 0 0 0 -1 I I #
edge $-1 $341 -29.21689136417168 $345 29.21689136417168 $339 $389 forward 7 unknown #
straight-curve $-1 0 -29.21689136417168 -6.3904092140837436 -1 0 0 I I #
vertex $-1 $263 $390 #
straight-curve $-1 0 29.21689136417168 -6.3904092140837436 1 0 0 I I #
point $-1 55.785393841364787 29.21689136417168 -6.3904092140837436 #
point $-1 55.785393841364787 -29.21689136417168 -6.3904092140837436 #
straight-curve $-1 -55.785393841364787 0 6.3904092140837436 0 -1 0 I I #
point $-1 -55.785393841364787 29.21689136417168 6.3904092140837436 #
point $-1 -55.785393841364787 -29.21689136417168 6.3904092140837436 #
straight-curve $-1 55.785393841364787 -29.21689136417168 0 0 0 -1 I I #
straight-curve $-1 55.785393841364787 29.21689136417168 0 0 0 -1 I I #
coedge $-1 $358 $285 $282 $355 reversed $280 $-1 #
edge $-1 $363 -55.785393841364787 $356 -52.612396941246459 $354 $391 forward 7 unknown #
vertex $-1 $286 $392 #
straight-curve $-1 52.612396941246445 11.5880492461275 6.3904092140837534 0 -1 0 I I #
coedge $-1 $285 $354 $287 $360 forward $280 $-1 #
straight-curve $-1 13.839906599291307 29.21689136417168 59.756165494897814 -0.5877852410284794 0 0.80901700255871778 I I #
edge $-1 $363 -6.3904092140837436 $288 -2.0231535191802856 $287 $393 forward 7 unknown #
point $-1 55.785393841364787 29.21689136417168 2.0231535191802856 #
point $-1 52.612396941246459 17.135305620338325 6.3904092140837463 #
vertex $-1 $294 $394 #
straight-curve $-1 55.785393841364787 0 6.3904092140837436 0 1 0 I I #
vertex $-1 $297 $395 #
point $-1 51.946072240922526 19.551622769105002 1.3339416227308485 #
vertex $-1 $301 $396 #
point $-1 51.946072240922526 23.176098492255008 1.3339416227308485 #
vertex $-1 $305 $397 #
point $-1 51.946072240922526 26.800574215405014 1.3339416227308485 #
coedge $-1 $319 $318 $311 $372 forward $309 $-1 #
edge $-1 $379 -6.3904092140837436 $374 -2.0231535191802594 $311 $398 forward 7 unknown #
edge $-1 $316 52.612396941246445 $379 55.785393841364787 $312 $399 forward 7 unknown #
vertex $-1 $313 $400 #
straight-curve $-1 -46.629737764206553 29.21689136417168 14.624833382799325 -0.5877852410284794 0 -0.80901700255871778 I I #
edge $-1 $374 -17.628842118044176 $320 -5.547256374210825 $319 $401 forward 7 unknown #
point $-1 -52.612396941246445 29.216891364171676 6.3904092140837436 #
point $-1 -55.785393841364787 17.135305620338325 2.0231535191802594 #
vertex $-1 $373 $402 #
straight-curve $-1 -55.785393841364787 0 6.3904092140837436 0 -1 0 I I #
vertex $-1 $326 $403 #
point $-1 -50.770501758865564 19.551622769105002 2.9519756278482823 #
vertex $-1 $330 $404 #
point $-1 -50.770501758865564 23.176098492255008 2.9519756278482823 #
vertex $-1 $334 $405 #
point $-1 -50.770501758865564 26.800574215405014 2.9519756278482823 #
straight-curve $-1 -55.785393841364787 29.21689136417168 0 0 0 -1 I I #
point $-1 -55.785393841364787 -29.21689136417168 -6.3904092140837436 #
straight-curve $-1 -55.785393841364787 0 -6.3904092140837436 0 1 0 I I #
point $-1 -55.785393841364787 29.21689136417168 -6.3904092140837436 #
straight-curve $-1 0 29.21689136417168 6.3904092140837436 -1 0 0 I I #
point $-1 52.612396941246459 29.216891364171676 6.3904092140837463 #
straight-curve $-1 55.785393841364787 29.21689136417168 0 0 0 -1 I I #
point $-1 55.785393841364787 29.21689136417168 6.3904092140837436 #
point $-1 50.54926999733533 19.551622769105002 1.5551733842610869 #
point $-1 50.54926999733533 23.176098492255008 1.5551733842610869 #
point $-1 50.54926999733533 26.800574215405014 1.5551733842610869 #
straight-curve $-1 -55.785393841364787 29.21689136417168 0 0 0 -1 I I #
straight-curve $-1 0 29.21689136417168 6.3904092140837436 -1 0 0 I I #
point $-1 -55.785393841364787 29.216891364171676 2.0231535191802594 #
straight-curve $-1 -55.785393841364787 11.5880492461275 2.0231535191802563 0 -1 0 I I #
point $-1 -55.785393841364787 29.21689136417168 6.3904092140837436 #
point $-1 -50.549269997335323 19.551622769105002 1.5551733842610851 #
point $-1 -50.549269997335323 23.176098492255008 1.5551733842610851 #
point $-1 -50.549269997335323 26.800574215405014 1.5551733842610851 #
End-of-ACIS-data 