500 0 4 0           
7 Unknown 11 ACIS 5.0 NT 24 Thu Mar 25 17:26:31 1999 
-1 9.9999999999999995e-007 1e-010 
body $-1 $4 $-1 $5 #
body $-1 $6 $-1 $7 #
body $-1 $8 $-1 $9 #
body $-1 $10 $-1 $11 #
lump $-1 $-1 $12 $0 #
transform $-1 1 0 0 0 1 0 0 0 1 70.7358012634663 37.157073643823388 12.244473091563957 1 rotate no_reflect no_shear #
lump $-1 $-1 $13 $1 #
transform $-1 1 0 0 0 1 0 0 0 1 70.7358012634663 37.157073643823388 12.244473091563957 1 rotate no_reflect no_shear #
lump $-1 $-1 $14 $2 #
transform $-1 1 0 0 0 1 0 0 0 1 70.7358012634663 37.157073643823388 12.244473091563957 1 rotate no_reflect no_shear #
lump $-1 $-1 $15 $3 #
transform $-1 1 0 0 0 1 0 0 0 1 70.7358012634663 37.157073643823388 12.244473091563957 1 rotate no_reflect no_shear #
shell $-1 $-1 $-1 $16 $-1 $4 #
shell $-1 $-1 $-1 $17 $-1 $6 #
shell $-1 $-1 $-1 $18 $-1 $8 #
shell $-1 $-1 $-1 $19 $-1 $10 #
face $-1 $20 $21 $12 $-1 $22 forward single #
face $-1 $23 $24 $13 $-1 $25 forward single #
face $-1 $26 $27 $14 $-1 $28 forward single #
face $-1 $29 $30 $15 $-1 $31 reversed single #
face $-1 $32 $33 $12 $-1 $34 reversed single #
loop $-1 $-1 $35 $16 #
plane-surface $-1 0 0 12.244473091563957 0 0 1 1 0 0 forward_v I I I I #
face $-1 $36 $37 $13 $-1 $38 reversed single #
loop $-1 $-1 $39 $17 #
plane-surface $-1 0 -43.066348209110288 -5.5221389067627662 0 0 1 1 0 0 forward_v I I I I #
face $-1 $40 $41 $14 $-1 $42 forward single #
loop $-1 $-1 $43 $18 #
plane-surface $-1 -46.219727145338879 87.300285301844326 153.33686185567996 -1 0 0 0 0.71933980857756763 0.69465836192734942 forward_v I I I I #
face $-1 $44 $45 $15 $-1 $46 reversed single #
loop $-1 $47 $48 $19 #
cone-surface $-1 -58.47776420440259 28.623854749496992 3.6452590182493703 0 -0.71933980857756763 -0.69465836192734942 2.5 0 0 1 I I 0 1 2.5 forward I I I I #
face $-1 $49 $50 $12 $-1 $51 reversed single #
loop $-1 $-1 $52 $20 #
plane-surface $-1 0 0 -12.244473091563957 0 0 1 1 0 0 forward_v I I I I #
coedge $-1 $53 $54 $55 $56 forward $21 $-1 #
face $-1 $57 $58 $13 $-1 $59 forward single #
loop $-1 $-1 $60 $23 #
plane-surface $-1 0 -48.975622774397188 -8.8833059991633618 0 1 0 0 0 1 forward_v I I I I #
coedge $-1 $61 $62 $63 $64 forward $24 $-1 #
face $-1 $65 $66 $14 $-1 $67 reversed single #
loop $-1 $-1 $68 $26 #
plane-surface $-1 -58.47776420440259 -14.465870179041104 55.062430185083883 0 0.71933980857756763 0.69465836192734942 1 0 0 forward_v I I I I #
coedge $-1 $69 $70 $71 $72 reversed $27 $-1 #
face $-1 $73 $74 $15 $-1 $75 forward single #
loop $-1 $76 $77 $29 #
cone-surface $-1 -58.47776420440259 24.328523233901237 -0.50269431198387693 0 -0.71933980857756763 -0.69465836192734942 1.25 0 0 1 I I -0.70710678118654746 0.70710678118654746 1.25 forward I I I I #
loop $-1 $-1 $78 $19 #
coedge $-1 $48 $48 $79 $80 reversed $30 $-1 #
face $-1 $81 $82 $12 $-1 $83 reversed single #
loop $-1 $-1 $84 $32 #
plane-surface $-1 0 -37.157073643823388 0 0 1 0 0 0 1 forward_v I I I I #
coedge $-1 $85 $86 $87 $88 forward $33 $-1 #
coedge $-1 $89 $35 $90 $91 forward $21 $-1 #
coedge $-1 $35 $89 $92 $93 forward $21 $-1 #
coedge $-1 $94 $95 $35 $56 reversed $96 $-1 #
edge $-1 $97 -37.157073643823388 $98 37.157073643823388 $55 $99 forward 7 unknown #
face $-1 $100 $101 $13 $-1 $102 reversed single #
loop $-1 $-1 $103 $36 #
plane-surface $-1 0 0 12.244473091563957 0 0 1 1 0 0 forward_v I I I I #
coedge $-1 $104 $105 $106 $107 forward $37 $-1 #
coedge $-1 $108 $39 $109 $110 reversed $24 $-1 #
coedge $-1 $39 $108 $105 $111 forward $24 $-1 #
coedge $-1 $112 $113 $39 $64 reversed $114 $-1 #
edge $-1 $115 -5.9092745652868999 $116 5.9092745652868999 $63 $117 forward 7 unknown #
face $-1 $118 $119 $14 $-1 $120 forward single #
loop $-1 $-1 $121 $40 #
plane-surface $-1 0 37.157073643823388 0 0 -1 0 0 0 -1 forward_v I I I I #
coedge $-1 $122 $123 $121 $124 reversed $41 $-1 #
coedge $-1 $70 $43 $123 $125 forward $27 $-1 #
coedge $-1 $43 $69 $126 $127 reversed $27 $-1 #
coedge $-1 $128 $121 $43 $72 forward $66 $-1 #
edge $-1 $129 -75.063125227257103 $130 -64.423957836276017 $71 $131 forward 7 unknown #
face $-1 $132 $133 $15 $-1 $134 forward single #
loop $-1 $-1 $135 $44 #
plane-surface $-1 -46.219727145338879 87.300285301844326 153.33686185567996 -1 0 0 0 0.71933980857756763 0.69465836192734942 forward_v I I I I #
loop $-1 $-1 $136 $29 #
coedge $-1 $77 $77 $78 $137 forward $45 $-1 #
coedge $-1 $78 $78 $77 $137 reversed $47 $-1 #
coedge $-1 $79 $79 $48 $80 forward $133 $-1 #
edge $-1 $138 -2.5556083776392584e-016 $138 6.2831853071796004 $79 $139 forward 7 unknown #
face $-1 $140 $141 $12 $-1 $142 reversed single #
loop $-1 $-1 $143 $49 #
plane-surface $-1 -70.7358012634663 0 0 1 0 0 0 0 -1 forward_v I I I I #
coedge $-1 $144 $92 $145 $146 forward $50 $-1 #
coedge $-1 $147 $52 $144 $148 forward $33 $-1 #
coedge $-1 $52 $147 $149 $150 forward $33 $-1 #
coedge $-1 $95 $94 $52 $88 reversed $96 $-1 #
edge $-1 $151 -37.157073643823388 $152 37.157073643823388 $87 $153 forward 7 unknown #
coedge $-1 $54 $53 $154 $155 forward $21 $-1 #
coedge $-1 $156 $157 $53 $91 reversed $141 $-1 #
edge $-1 $98 -70.7358012634663 $158 70.7358012634663 $90 $159 forward 7 unknown #
coedge $-1 $84 $160 $54 $93 reversed $50 $-1 #
edge $-1 $161 -70.7358012634663 $97 70.7358012634663 $92 $162 forward 7 unknown #
coedge $-1 $87 $55 $160 $163 forward $96 $-1 #
coedge $-1 $55 $87 $156 $164 reversed $96 $-1 #
loop $-1 $-1 $94 $140 #
vertex $-1 $56 $165 #
vertex $-1 $56 $166 #
straight-curve $-1 70.7358012634663 0 12.244473091563957 0 1 0 I I #
face $-1 $167 $168 $13 $-1 $169 reversed single #
loop $-1 $-1 $170 $57 #
plane-surface $-1 0 0 -12.244473091563957 0 0 1 1 0 0 forward_v I I I I #
coedge $-1 $171 $172 $173 $174 forward $58 $-1 #
coedge $-1 $175 $60 $176 $177 reversed $37 $-1 #
coedge $-1 $60 $175 $62 $111 reversed $37 $-1 #
coedge $-1 $178 $179 $60 $107 reversed $180 $-1 #
edge $-1 $181 -3.3611670924005956 $182 3.3611670924005956 $106 $183 forward 7 unknown #
coedge $-1 $62 $61 $178 $184 forward $24 $-1 #
coedge $-1 $185 $186 $61 $110 forward $168 $-1 #
edge $-1 $187 -70.7358012634663 $116 70.7358012634663 $109 $188 forward 7 unknown #
edge $-1 $181 -70.7358012634663 $115 70.7358012634663 $105 $189 forward 7 unknown #
coedge $-1 $190 $63 $175 $191 forward $114 $-1 #
coedge $-1 $63 $173 $185 $192 forward $114 $-1 #
loop $-1 $-1 $113 $193 #
vertex $-1 $64 $194 #
vertex $-1 $64 $195 #
straight-curve $-1 70.7358012634663 -43.066348209110288 -5.5221389067627662 0 1 0 I I #
face $-1 $196 $197 $14 $-1 $198 forward single #
loop $-1 $-1 $126 $65 #
plane-surface $-1 0 0 12.244473091563957 0 0 1 1 0 0 forward_v I I I I #
coedge $-1 $71 $199 $68 $124 forward $66 $-1 #
coedge $-1 $200 $68 $201 $202 reversed $41 $-1 #
coedge $-1 $68 $200 $69 $125 reversed $41 $-1 #
edge $-1 $203 -41.496919161265005 $129 -16.980845043137585 $121 $204 forward 7 unknown #
edge $-1 $129 -74.31414728764679 $205 -59.523964311371472 $69 $206 forward 7 unknown #
coedge $-1 $207 $208 $70 $127 forward $119 $-1 #
edge $-1 $130 6.4930690070987751 $205 16.767193286003952 $126 $209 forward 7 unknown #
coedge $-1 $210 $71 $208 $211 reversed $66 $-1 #
vertex $-1 $124 $212 #
vertex $-1 $127 $213 #
straight-curve $-1 -46.219727145338879 37.157073643823388 76.668430927839978 0 0 1 I I #
face $-1 $214 $215 $15 $-1 $216 reversed single #
loop $-1 $217 $79 $73 #
plane-surface $-1 -58.47776420440259 -14.465870179041104 55.062430185083883 0 0.71933980857756763 0.69465836192734942 1 0 0 forward_v I I I I #
coedge $-1 $218 $219 $220 $221 reversed $74 $-1 #
coedge $-1 $136 $136 $-1 $222 forward $76 $-1 #
edge $-1 $223 0 $223 6.2831853071796004 $77 $224 forward 7 unknown #
vertex $-1 $80 $225 #
ellipse-curve $-1 -58.47776420440259 32.020011504370792 6.9248893960734303 0 -0.71933980857756763 -0.69465836192734942 2.5 0 0 1 I I #
face $-1 $-1 $96 $12 $-1 $226 reversed single #
loop $-1 $-1 $156 $81 #
plane-surface $-1 0 37.157073643823388 0 0 -1 0 0 0 -1 forward_v I I I I #
coedge $-1 $227 $154 $157 $228 forward $82 $-1 #
coedge $-1 $160 $84 $85 $148 reversed $50 $-1 #
coedge $-1 $154 $227 $84 $146 reversed $82 $-1 #
edge $-1 $161 -12.244473091563957 $229 12.244473091563957 $145 $230 forward 7 unknown #
coedge $-1 $86 $85 $227 $231 forward $33 $-1 #
edge $-1 $152 -70.7358012634663 $229 70.7358012634663 $144 $232 forward 7 unknown #
coedge $-1 $157 $156 $86 $150 reversed $141 $-1 #
edge $-1 $233 -70.7358012634663 $151 70.7358012634663 $149 $234 forward 7 unknown #
vertex $-1 $88 $235 #
vertex $-1 $163 $236 #
straight-curve $-1 70.7358012634663 0 -12.244473091563957 0 -1 0 I I #
coedge $-1 $143 $145 $89 $155 reversed $82 $-1 #
edge $-1 $158 -37.157073643823388 $161 37.157073643823388 $154 $237 forward 7 unknown #
coedge $-1 $149 $90 $95 $164 forward $141 $-1 #
coedge $-1 $90 $149 $143 $228 reversed $141 $-1 #
vertex $-1 $91 $238 #
straight-curve $-1 0 37.157073643823388 12.244473091563957 -1 0 0 I I #
coedge $-1 $92 $144 $94 $163 reversed $50 $-1 #
vertex $-1 $155 $239 #
straight-curve $-1 0 -37.157073643823388 12.244473091563957 1 0 0 I I #
edge $-1 $97 -12.244473091563957 $152 12.244473091563957 $94 $240 forward 7 unknown #
edge $-1 $98 -12.244473091563957 $151 12.244473091563957 $95 $241 forward 7 unknown #
point $-1 70.7358012634663 -37.157073643823388 12.244473091563957 #
point $-1 70.7358012634663 37.157073643823388 12.244473091563957 #
face $-1 $242 $180 $13 $-1 $243 reversed single #
loop $-1 $-1 $109 $100 #
plane-surface $-1 0 -37.157073643823388 0 0 1 0 0 0 1 forward_v I I I I #
coedge $-1 $176 $244 $190 $245 forward $101 $-1 #
coedge $-1 $246 $103 $247 $248 forward $58 $-1 #
coedge $-1 $103 $246 $249 $250 forward $58 $-1 #
coedge $-1 $113 $251 $103 $174 reversed $114 $-1 #
edge $-1 $252 -37.157073643823388 $253 37.157073643823388 $173 $254 forward 7 unknown #
coedge $-1 $105 $104 $112 $191 reversed $37 $-1 #
coedge $-1 $255 $170 $104 $177 forward $101 $-1 #
edge $-1 $256 -70.7358012634663 $182 70.7358012634663 $104 $257 forward 7 unknown #
coedge $-1 $258 $106 $108 $184 reversed $180 $-1 #
coedge $-1 $106 $259 $255 $260 reversed $180 $-1 #
loop $-1 $-1 $259 $167 #
vertex $-1 $184 $261 #
vertex $-1 $260 $262 #
straight-curve $-1 -70.7358012634663 -48.975622774397188 -8.8833059991633618 0 0 -1 I I #
edge $-1 $187 -5.9092745652868999 $181 5.9092745652868999 $178 $263 forward 7 unknown #
coedge $-1 $249 $109 $113 $192 reversed $168 $-1 #
coedge $-1 $109 $249 $258 $264 forward $168 $-1 #
vertex $-1 $264 $265 #
straight-curve $-1 0 -37.157073643823388 -5.5221389067627662 1 0 0 I I #
straight-curve $-1 0 -48.975622774397188 -5.5221389067627662 1 0 0 I I #
coedge $-1 $251 $112 $170 $245 reversed $114 $-1 #
edge $-1 $115 -3.3611670924005956 $256 3.3611670924005956 $112 $266 forward 7 unknown #
edge $-1 $252 -12.244473091563957 $116 5.5221389067627662 $113 $267 forward 7 unknown #
face $-1 $-1 $114 $13 $-1 $268 reversed single #
point $-1 70.7358012634663 -48.975622774397188 -5.5221389067627662 #
point $-1 70.7358012634663 -37.157073643823388 -5.5221389067627662 #
face $-1 $269 $270 $14 $-1 $271 reversed single #
loop $-1 $-1 $272 $118 #
plane-surface $-1 0 -43.066348209110288 -5.5221389067627662 0 0 1 1 0 0 forward_v I I I I #
coedge $-1 $121 $273 $274 $275 reversed $66 $-1 #
coedge $-1 $123 $122 $207 $276 reversed $41 $-1 #
coedge $-1 $274 $277 $122 $202 forward $278 $-1 #
edge $-1 $279 34.695246475581314 $203 49.485429451856632 $201 $280 forward 7 unknown #
vertex $-1 $275 $281 #
straight-curve $-1 -29.238882102201295 37.157073643823388 1.6053057005828784 1 0 0 I I #
vertex $-1 $276 $282 #
straight-curve $-1 -46.219727145338879 -14.465870179041104 55.062430185083883 0 -0.69465836192734942 0.71933980857756763 I I #
coedge $-1 $283 $126 $200 $276 forward $119 $-1 #
coedge $-1 $126 $284 $128 $211 forward $119 $-1 #
straight-curve $-1 -46.219727145338879 43.650142650922163 12.244473091563961 0 -1 0 I I #
coedge $-1 $273 $128 $285 $286 forward $66 $-1 #
edge $-1 $287 -70.7358012634663 $130 46.219727145338879 $128 $288 forward 7 unknown #
point $-1 -46.219727145338879 37.157073643823395 1.6053057005828748 #
point $-1 -46.219727145338879 37.157073643823388 12.244473091563957 #
face $-1 $289 $290 $15 $-1 $291 forward single #
loop $-1 $-1 $292 $132 #
plane-surface $-1 0 37.157073643823388 0 0 -1 0 0 0 -1 forward_v I I I I #
loop $-1 $-1 $293 $73 #
coedge $-1 $219 $135 $294 $295 forward $74 $-1 #
coedge $-1 $135 $218 $296 $297 reversed $74 $-1 #
coedge $-1 $298 $292 $135 $221 forward $215 $-1 #
edge $-1 $299 -75.063125227257103 $300 -64.423957836276017 $220 $301 forward 7 unknown #
edge $-1 $302 1 $302 0 $136 $-1 forward 7 unknown #
vertex $-1 $137 $303 #
ellipse-curve $-1 -58.47776420440259 25.227697994623195 0.36562864042530985 0 0.71933980857756763 0.69465836192734942 2.5 0 0 1 I I #
point $-1 -55.97776420440259 32.020011504370792 6.9248893960734295 #
plane-surface $-1 70.7358012634663 0 0 -1 0 0 0 0 1 forward_v I I I I #
coedge $-1 $145 $143 $147 $231 reversed $82 $-1 #
edge $-1 $158 -12.244473091563957 $233 12.244473091563957 $157 $304 forward 7 unknown #
vertex $-1 $231 $305 #
straight-curve $-1 -70.7358012634663 -37.157073643823388 0 0 0 -1 I I #
edge $-1 $229 -37.157073643823388 $233 37.157073643823388 $227 $306 forward 7 unknown #
straight-curve $-1 0 -37.157073643823388 -12.244473091563957 -1 0 0 I I #
vertex $-1 $150 $307 #
straight-curve $-1 0 37.157073643823388 -12.244473091563957 1 0 0 I I #
point $-1 70.7358012634663 37.157073643823388 -12.244473091563957 #
point $-1 70.7358012634663 -37.157073643823388 -12.244473091563957 #
straight-curve $-1 -70.7358012634663 0 12.244473091563957 0 -1 0 I I #
point $-1 -70.7358012634663 37.157073643823388 12.244473091563957 #
point $-1 -70.7358012634663 -37.157073643823388 12.244473091563957 #
straight-curve $-1 70.7358012634663 -37.157073643823388 0 0 0 -1 I I #
straight-curve $-1 70.7358012634663 37.157073643823388 0 0 0 -1 I I #
face $-1 $193 $308 $13 $-1 $309 reversed single #
plane-surface $-1 -70.7358012634663 0 0 1 0 0 0 0 -1 forward_v I I I I #
coedge $-1 $170 $255 $310 $311 forward $101 $-1 #
edge $-1 $312 -37.157073643823388 $256 48.975622774397188 $190 $313 forward 7 unknown #
coedge $-1 $172 $171 $314 $315 forward $58 $-1 #
coedge $-1 $316 $317 $171 $248 reversed $308 $-1 #
edge $-1 $253 -70.7358012634663 $318 70.7358012634663 $247 $319 forward 7 unknown #
coedge $-1 $186 $185 $172 $250 reversed $168 $-1 #
edge $-1 $320 -70.7358012634663 $252 70.7358012634663 $249 $321 forward 7 unknown #
coedge $-1 $173 $190 $316 $322 reversed $114 $-1 #
vertex $-1 $174 $323 #
vertex $-1 $174 $324 #
straight-curve $-1 70.7358012634663 0 12.244473091563957 0 1 0 I I #
coedge $-1 $244 $176 $179 $260 forward $101 $-1 #
vertex $-1 $191 $325 #
straight-curve $-1 0 -48.975622774397188 -12.244473091563957 -1 0 0 I I #
coedge $-1 $314 $178 $186 $264 reversed $180 $-1 #
coedge $-1 $179 $314 $317 $326 forward $180 $-1 #
edge $-1 $182 -48.975622774397188 $327 37.157073643823388 $179 $328 forward 7 unknown #
point $-1 -70.7358012634663 -48.975622774397188 -5.5221389067627662 #
point $-1 -70.7358012634663 -48.975622774397188 -12.244473091563957 #
straight-curve $-1 -70.7358012634663 -43.066348209110288 -5.5221389067627662 0 -1 0 I I #
edge $-1 $320 -12.244473091563957 $187 5.5221389067627662 $258 $329 forward 7 unknown #
point $-1 -70.7358012634663 -37.157073643823388 -5.5221389067627662 #
straight-curve $-1 70.7358012634663 -48.975622774397188 -8.8833059991633618 0 0 -1 I I #
straight-curve $-1 70.7358012634663 -37.157073643823388 0 0 0 -1 I I #
plane-surface $-1 70.7358012634663 0 0 -1 0 0 0 0 1 forward_v I I I I #
face $-1 $330 $331 $14 $-1 $332 reversed single #
loop $-1 $-1 $333 $196 #
plane-surface $-1 0 -48.975622774397188 -8.8833059991633618 0 1 0 0 0 1 forward_v I I I I #
coedge $-1 $334 $335 $336 $337 forward $197 $-1 #
coedge $-1 $199 $210 $338 $339 reversed $66 $-1 #
coedge $-1 $340 $201 $199 $275 forward $278 $-1 #
edge $-1 $203 -1.6053057005828753 $341 12.244473091563957 $199 $342 forward 7 unknown #
edge $-1 $205 16.980845043137585 $279 41.496919161265005 $207 $343 forward 7 unknown #
coedge $-1 $201 $344 $283 $345 reversed $278 $-1 #
loop $-1 $-1 $201 $346 #
vertex $-1 $345 $347 #
straight-curve $-1 -70.7358012634663 2.7816062815252476 37.20214504986015 0 0.69465836192734942 -0.71933980857756763 I I #
point $-1 -70.7358012634663 37.157073643823388 1.6053057005828753 #
point $-1 -46.219727145338879 26.882949364918211 12.244473091563961 #
coedge $-1 $348 $207 $277 $345 forward $119 $-1 #
coedge $-1 $208 $348 $349 $350 forward $119 $-1 #
coedge $-1 $349 $351 $210 $286 reversed $352 $-1 #
edge $-1 $287 -12.244473091563957 $353 12.244473091563957 $285 $354 forward 7 unknown #
vertex $-1 $350 $355 #
straight-curve $-1 0 37.157073643823388 12.244473091563957 -1 0 0 I I #
face $-1 $356 $357 $15 $-1 $358 forward single #
loop $-1 $-1 $296 $214 #
plane-surface $-1 0 0 12.244473091563957 0 0 1 1 0 0 forward_v I I I I #
coedge $-1 $220 $359 $293 $360 forward $215 $-1 #
coedge $-1 $361 $294 $292 $360 reversed $217 $-1 #
coedge $-1 $293 $362 $218 $295 reversed $217 $-1 #
edge $-1 $299 -74.31414728764679 $363 -59.523964311371472 $218 $364 forward 7 unknown #
coedge $-1 $365 $366 $219 $297 forward $290 $-1 #
edge $-1 $300 6.4930690070987751 $363 16.767193286003952 $296 $367 forward 7 unknown #
coedge $-1 $368 $220 $366 $369 reversed $215 $-1 #
vertex $-1 $360 $370 #
vertex $-1 $297 $371 #
straight-curve $-1 -46.219727145338879 37.157073643823388 76.668430927839978 0 0 1 I I #
vertex $-1 $222 $372 #
point $-1 -55.97776420440259 25.227697994623195 0.36562864042530985 #
straight-curve $-1 -70.7358012634663 37.157073643823388 0 0 0 -1 I I #
point $-1 -70.7358012634663 -37.157073643823388 -12.244473091563957 #
straight-curve $-1 -70.7358012634663 0 -12.244473091563957 0 1 0 I I #
point $-1 -70.7358012634663 37.157073643823388 -12.244473091563957 #
loop $-1 $-1 $316 $242 #
plane-surface $-1 0 37.157073643823388 0 0 -1 0 0 0 -1 forward_v I I I I #
coedge $-1 $317 $316 $244 $311 reversed $308 $-1 #
edge $-1 $327 -70.7358012634663 $312 70.7358012634663 $310 $373 forward 7 unknown #
vertex $-1 $245 $374 #
straight-curve $-1 70.7358012634663 0 -12.244473091563957 0 -1 0 I I #
coedge $-1 $259 $258 $246 $315 reversed $180 $-1 #
edge $-1 $318 -37.157073643823388 $320 37.157073643823388 $314 $375 forward 7 unknown #
coedge $-1 $310 $247 $251 $322 forward $308 $-1 #
coedge $-1 $247 $310 $259 $326 reversed $308 $-1 #
vertex $-1 $248 $376 #
straight-curve $-1 0 37.157073643823388 12.244473091563957 -1 0 0 I I #
vertex $-1 $315 $377 #
straight-curve $-1 0 -37.157073643823388 12.244473091563957 1 0 0 I I #
edge $-1 $253 -12.244473091563957 $312 12.244473091563957 $251 $378 forward 7 unknown #
point $-1 70.7358012634663 -37.157073643823388 12.244473091563957 #
point $-1 70.7358012634663 37.157073643823388 12.244473091563957 #
point $-1 70.7358012634663 -48.975622774397188 -12.244473091563957 #
edge $-1 $318 -12.244473091563957 $327 12.244473091563957 $317 $379 forward 7 unknown #
vertex $-1 $311 $380 #
straight-curve $-1 -70.7358012634663 0 -12.244473091563957 0 1 0 I I #
straight-curve $-1 -70.7358012634663 -37.157073643823388 0 0 0 -1 I I #
face $-1 $346 $381 $14 $-1 $382 reversed single #
loop $-1 $-1 $383 $269 #
plane-surface $-1 0 0 -12.244473091563957 0 0 1 1 0 0 forward_v I I I I #
coedge $-1 $384 $385 $386 $387 forward $270 $-1 #
coedge $-1 $388 $272 $389 $390 reversed $197 $-1 #
coedge $-1 $272 $388 $385 $391 forward $197 $-1 #
coedge $-1 $392 $393 $272 $337 reversed $352 $-1 #
edge $-1 $394 -5.9092745652868999 $395 5.9092745652868999 $336 $396 forward 7 unknown #
coedge $-1 $383 $397 $273 $339 forward $331 $-1 #
edge $-1 $341 -70.7358012634663 $353 70.7358012634663 $273 $398 forward 7 unknown #
coedge $-1 $386 $274 $397 $399 reversed $278 $-1 #
vertex $-1 $339 $400 #
straight-curve $-1 -70.7358012634663 37.157073643823388 0 0 0 -1 I I #
straight-curve $-1 -29.238882102201295 26.882949364918211 12.244473091563957 -1 0 0 I I #
coedge $-1 $277 $401 $402 $403 reversed $278 $-1 #
edge $-1 $279 -26.882949364918211 $404 37.157073643823388 $277 $405 forward 7 unknown #
face $-1 $406 $278 $14 $-1 $407 reversed single #
point $-1 -70.7358012634663 26.882949364918211 12.244473091563961 #
coedge $-1 $284 $283 $408 $409 forward $119 $-1 #
coedge $-1 $393 $285 $284 $350 reversed $352 $-1 #
edge $-1 $410 -37.157073643823388 $287 37.157073643823388 $349 $411 forward 7 unknown #
coedge $-1 $285 $392 $383 $412 reversed $352 $-1 #
loop $-1 $-1 $393 $406 #
vertex $-1 $412 $413 #
straight-curve $-1 70.7358012634663 37.157073643823388 0 0 0 -1 I I #
point $-1 70.7358012634663 37.157073643823388 12.244473091563957 #
face $-1 $414 $415 $15 $-1 $416 reversed single #
loop $-1 $-1 $417 $289 #
plane-surface $-1 0 -43.066348209110288 -5.5221389067627662 0 0 1 1 0 0 forward_v I I I I #
coedge $-1 $292 $418 $419 $420 reversed $215 $-1 #
edge $-1 $421 -41.496919161265005 $299 -16.980845043137585 $292 $422 forward 7 unknown #
coedge $-1 $362 $293 $423 $424 reversed $217 $-1 #
coedge $-1 $294 $361 $365 $425 reversed $217 $-1 #
vertex $-1 $425 $426 #
straight-curve $-1 -46.219727145338879 -14.465870179041104 55.062430185083883 0 -0.69465836192734942 0.71933980857756763 I I #
coedge $-1 $427 $296 $362 $425 forward $290 $-1 #
coedge $-1 $296 $428 $298 $369 forward $290 $-1 #
straight-curve $-1 -46.219727145338879 43.650142650922163 12.244473091563961 0 -1 0 I I #
coedge $-1 $418 $298 $429 $430 forward $215 $-1 #
edge $-1 $431 -70.7358012634663 $300 46.219727145338879 $298 $432 forward 7 unknown #
point $-1 -46.219727145338879 37.157073643823395 1.6053057005828748 #
point $-1 -46.219727145338879 37.157073643823388 12.244473091563957 #
point $-1 -58.47776420440259 23.429348473179278 -1.3710172643930636 #
straight-curve $-1 0 37.157073643823388 -12.244473091563957 1 0 0 I I #
point $-1 70.7358012634663 37.157073643823388 -12.244473091563957 #
straight-curve $-1 -70.7358012634663 0 12.244473091563957 0 -1 0 I I #
point $-1 -70.7358012634663 37.157073643823388 12.244473091563957 #
point $-1 -70.7358012634663 -37.157073643823388 12.244473091563957 #
straight-curve $-1 70.7358012634663 37.157073643823388 0 0 0 -1 I I #
straight-curve $-1 -70.7358012634663 37.157073643823388 0 0 0 -1 I I #
point $-1 -70.7358012634663 37.157073643823388 -12.244473091563957 #
loop $-1 $-1 $389 $330 #
plane-surface $-1 0 -37.157073643823388 0 0 1 0 0 0 1 forward_v I I I I #
coedge $-1 $433 $338 $351 $412 forward $331 $-1 #
coedge $-1 $434 $333 $433 $435 reversed $270 $-1 #
coedge $-1 $333 $434 $335 $391 reversed $270 $-1 #
coedge $-1 $401 $340 $333 $387 reversed $278 $-1 #
edge $-1 $436 -3.3611670924005956 $437 3.3611670924005956 $386 $438 forward 7 unknown #
coedge $-1 $335 $334 $401 $439 forward $197 $-1 #
coedge $-1 $440 $402 $334 $390 forward $381 $-1 #
edge $-1 $441 -70.7358012634663 $395 70.7358012634663 $389 $442 forward 7 unknown #
edge $-1 $436 -70.7358012634663 $394 70.7358012634663 $385 $443 forward 7 unknown #
coedge $-1 $351 $336 $434 $444 forward $352 $-1 #
coedge $-1 $336 $349 $440 $445 forward $352 $-1 #
vertex $-1 $337 $446 #
vertex $-1 $337 $447 #
straight-curve $-1 70.7358012634663 -43.066348209110288 -5.5221389067627662 0 1 0 I I #
coedge $-1 $338 $433 $340 $399 forward $331 $-1 #
straight-curve $-1 0 37.157073643823388 -12.244473091563957 1 0 0 I I #
edge $-1 $437 -48.975622774397188 $341 37.157073643823388 $340 $448 forward 7 unknown #
point $-1 -70.7358012634663 37.157073643823388 -12.244473091563957 #
coedge $-1 $344 $386 $388 $439 reversed $278 $-1 #
coedge $-1 $389 $408 $344 $403 forward $381 $-1 #
edge $-1 $404 -12.244473091563957 $441 5.5221389067627662 $344 $449 forward 7 unknown #
vertex $-1 $345 $450 #
straight-curve $-1 -70.7358012634663 0 12.244473091563957 0 -1 0 I I #
face $-1 $-1 $352 $14 $-1 $451 reversed single #
plane-surface $-1 -70.7358012634663 0 0 1 0 0 0 0 -1 forward_v I I I I #
coedge $-1 $402 $440 $348 $409 reversed $381 $-1 #
edge $-1 $404 -70.7358012634663 $410 70.7358012634663 $408 $452 forward 7 unknown #
vertex $-1 $350 $453 #
straight-curve $-1 70.7358012634663 0 12.244473091563957 0 1 0 I I #
edge $-1 $353 -37.157073643823388 $454 48.975622774397188 $351 $455 forward 7 unknown #
point $-1 70.7358012634663 37.157073643823388 -12.244473091563957 #
face $-1 $456 $457 $15 $-1 $458 reversed single #
loop $-1 $-1 $459 $356 #
plane-surface $-1 0 -48.975622774397188 -8.8833059991633618 0 1 0 0 0 1 forward_v I I I I #
coedge $-1 $460 $461 $462 $463 forward $357 $-1 #
coedge $-1 $359 $368 $464 $465 reversed $215 $-1 #
coedge $-1 $466 $423 $359 $420 forward $467 $-1 #
edge $-1 $421 -1.6053057005828753 $468 12.244473091563957 $359 $469 forward 7 unknown #
vertex $-1 $420 $470 #
straight-curve $-1 -29.238882102201295 37.157073643823388 1.6053057005828784 1 0 0 I I #
coedge $-1 $419 $471 $361 $424 forward $467 $-1 #
edge $-1 $472 34.695246475581314 $421 49.485429451856632 $423 $473 forward 7 unknown #
edge $-1 $363 16.980845043137585 $472 41.496919161265005 $365 $474 forward 7 unknown #
point $-1 -46.219727145338879 26.882949364918211 12.244473091563961 #
coedge $-1 $475 $365 $471 $476 forward $290 $-1 #
coedge $-1 $366 $475 $477 $478 forward $290 $-1 #
coedge $-1 $477 $479 $368 $430 reversed $480 $-1 #
edge $-1 $431 -12.244473091563957 $481 12.244473091563957 $429 $482 forward 7 unknown #
vertex $-1 $478 $483 #
straight-curve $-1 0 37.157073643823388 12.244473091563957 -1 0 0 I I #
coedge $-1 $397 $383 $384 $435 forward $331 $-1 #
coedge $-1 $385 $384 $392 $444 reversed $270 $-1 #
edge $-1 $454 -70.7358012634663 $437 70.7358012634663 $384 $484 forward 7 unknown #
vertex $-1 $439 $485 #
vertex $-1 $399 $486 #
straight-curve $-1 -70.7358012634663 -48.975622774397188 -8.8833059991633618 0 0 -1 I I #
edge $-1 $441 -5.9092745652868999 $436 5.9092745652868999 $401 $487 forward 7 unknown #
coedge $-1 $408 $389 $393 $445 reversed $381 $-1 #
vertex $-1 $403 $488 #
straight-curve $-1 0 -37.157073643823388 -5.5221389067627662 1 0 0 I I #
straight-curve $-1 0 -48.975622774397188 -5.5221389067627662 1 0 0 I I #
edge $-1 $394 -3.3611670924005956 $454 3.3611670924005956 $392 $489 forward 7 unknown #
edge $-1 $410 -12.244473091563957 $395 5.5221389067627662 $393 $490 forward 7 unknown #
point $-1 70.7358012634663 -48.975622774397188 -5.5221389067627662 #
point $-1 70.7358012634663 -37.157073643823388 -5.5221389067627662 #
straight-curve $-1 -70.7358012634663 0 -12.244473091563957 0 1 0 I I #
straight-curve $-1 -70.7358012634663 -37.157073643823388 0 0 0 -1 I I #
point $-1 -70.7358012634663 -37.157073643823388 12.244473091563957 #
plane-surface $-1 70.7358012634663 0 0 -1 0 0 0 0 1 forward_v I I I I #
straight-curve $-1 0 -37.157073643823388 12.244473091563957 1 0 0 I I #
point $-1 70.7358012634663 -37.157073643823388 12.244473091563957 #
vertex $-1 $444 $491 #
straight-curve $-1 70.7358012634663 0 -12.244473091563957 0 -1 0 I I #
face $-1 $492 $493 $15 $-1 $494 reversed single #
loop $-1 $-1 $495 $414 #
plane-surface $-1 0 0 -12.244473091563957 0 0 1 1 0 0 forward_v I I I I #
coedge $-1 $496 $497 $498 $499 forward $415 $-1 #
coedge $-1 $500 $417 $501 $502 reversed $357 $-1 #
coedge $-1 $417 $500 $497 $503 forward $357 $-1 #
coedge $-1 $504 $505 $417 $463 reversed $480 $-1 #
edge $-1 $506 -5.9092745652868999 $507 5.9092745652868999 $462 $508 forward 7 unknown #
coedge $-1 $495 $509 $418 $465 forward $457 $-1 #
edge $-1 $468 -70.7358012634663 $481 70.7358012634663 $418 $510 forward 7 unknown #
coedge $-1 $498 $419 $509 $511 reversed $467 $-1 #
loop $-1 $-1 $423 $492 #
vertex $-1 $465 $512 #
straight-curve $-1 -70.7358012634663 37.157073643823388 0 0 0 -1 I I #
point $-1 -70.7358012634663 37.157073643823388 1.6053057005828753 #
coedge $-1 $423 $513 $427 $476 reversed $467 $-1 #
vertex $-1 $476 $514 #
straight-curve $-1 -70.7358012634663 2.7816062815252476 37.20214504986015 0 0.69465836192734942 -0.71933980857756763 I I #
straight-curve $-1 -29.238882102201295 26.882949364918211 12.244473091563957 -1 0 0 I I #
coedge $-1 $428 $427 $515 $516 forward $290 $-1 #
edge $-1 $472 -26.882949364918211 $517 37.157073643823388 $471 $518 forward 7 unknown #
coedge $-1 $505 $429 $428 $478 reversed $480 $-1 #
edge $-1 $519 -37.157073643823388 $431 37.157073643823388 $477 $520 forward 7 unknown #
coedge $-1 $429 $504 $495 $521 reversed $480 $-1 #
loop $-1 $-1 $505 $522 #
vertex $-1 $521 $523 #
straight-curve $-1 70.7358012634663 37.157073643823388 0 0 0 -1 I I #
point $-1 70.7358012634663 37.157073643823388 12.244473091563957 #
straight-curve $-1 0 -48.975622774397188 -12.244473091563957 -1 0 0 I I #
point $-1 -70.7358012634663 -48.975622774397188 -5.5221389067627662 #
point $-1 -70.7358012634663 -48.975622774397188 -12.244473091563957 #
straight-curve $-1 -70.7358012634663 -43.066348209110288 -5.5221389067627662 0 -1 0 I I #
point $-1 -70.7358012634663 -37.157073643823388 -5.5221389067627662 #
straight-curve $-1 70.7358012634663 -48.975622774397188 -8.8833059991633618 0 0 -1 I I #
straight-curve $-1 70.7358012634663 -37.157073643823388 0 0 0 -1 I I #
point $-1 70.7358012634663 -48.975622774397188 -12.244473091563957 #
face $-1 $522 $467 $15 $-1 $524 reversed single #
loop $-1 $-1 $501 $456 #
plane-surface $-1 0 -37.157073643823388 0 0 1 0 0 0 1 forward_v I I I I #
coedge $-1 $525 $464 $479 $521 forward $457 $-1 #
coedge $-1 $526 $459 $525 $527 reversed $415 $-1 #
coedge $-1 $459 $526 $461 $503 reversed $415 $-1 #
coedge $-1 $528 $466 $459 $499 reversed $467 $-1 #
edge $-1 $529 -3.3611670924005956 $530 3.3611670924005956 $498 $531 forward 7 unknown #
coedge $-1 $461 $460 $528 $532 forward $357 $-1 #
coedge $-1 $533 $534 $460 $502 forward $493 $-1 #
edge $-1 $535 -70.7358012634663 $507 70.7358012634663 $501 $536 forward 7 unknown #
edge $-1 $529 -70.7358012634663 $506 70.7358012634663 $497 $537 forward 7 unknown #
coedge $-1 $479 $462 $526 $538 forward $480 $-1 #
coedge $-1 $462 $477 $533 $539 forward $480 $-1 #
vertex $-1 $463 $540 #
vertex $-1 $463 $541 #
straight-curve $-1 70.7358012634663 -43.066348209110288 -5.5221389067627662 0 1 0 I I #
coedge $-1 $464 $525 $466 $511 forward $457 $-1 #
straight-curve $-1 0 37.157073643823388 -12.244473091563957 1 0 0 I I #
edge $-1 $530 -48.975622774397188 $468 37.157073643823388 $466 $542 forward 7 unknown #
point $-1 -70.7358012634663 37.157073643823388 -12.244473091563957 #
coedge $-1 $471 $528 $534 $543 reversed $467 $-1 #
point $-1 -70.7358012634663 26.882949364918211 12.244473091563961 #
coedge $-1 $534 $533 $475 $516 reversed $493 $-1 #
edge $-1 $517 -70.7358012634663 $519 70.7358012634663 $515 $544 forward 7 unknown #
vertex $-1 $476 $545 #
straight-curve $-1 -70.7358012634663 0 12.244473091563957 0 -1 0 I I #
vertex $-1 $478 $546 #
straight-curve $-1 70.7358012634663 0 12.244473091563957 0 1 0 I I #
edge $-1 $481 -37.157073643823388 $547 48.975622774397188 $479 $548 forward 7 unknown #
face $-1 $-1 $480 $15 $-1 $549 reversed single #
point $-1 70.7358012634663 37.157073643823388 -12.244473091563957 #
plane-surface $-1 -70.7358012634663 0 0 1 0 0 0 0 -1 forward_v I I I I #
coedge $-1 $509 $495 $496 $527 forward $457 $-1 #
coedge $-1 $497 $496 $504 $538 reversed $415 $-1 #
edge $-1 $547 -70.7358012634663 $530 70.7358012634663 $496 $550 forward 7 unknown #
coedge $-1 $513 $498 $500 $532 reversed $467 $-1 #
vertex $-1 $532 $551 #
vertex $-1 $511 $552 #
straight-curve $-1 -70.7358012634663 -48.975622774397188 -8.8833059991633618 0 0 -1 I I #
edge $-1 $535 -5.9092745652868999 $529 5.9092745652868999 $528 $553 forward 7 unknown #
coedge $-1 $515 $501 $505 $539 reversed $493 $-1 #
coedge $-1 $501 $515 $513 $543 forward $493 $-1 #
vertex $-1 $543 $554 #
straight-curve $-1 0 -37.157073643823388 -5.5221389067627662 1 0 0 I I #
straight-curve $-1 0 -48.975622774397188 -5.5221389067627662 1 0 0 I I #
edge $-1 $506 -3.3611670924005956 $547 3.3611670924005956 $504 $555 forward 7 unknown #
edge $-1 $519 -12.244473091563957 $507 5.5221389067627662 $505 $556 forward 7 unknown #
point $-1 70.7358012634663 -48.975622774397188 -5.5221389067627662 #
point $-1 70.7358012634663 -37.157073643823388 -5.5221389067627662 #
straight-curve $-1 -70.7358012634663 0 -12.244473091563957 0 1 0 I I #
edge $-1 $517 -12.244473091563957 $535 5.5221389067627662 $513 $557 forward 7 unknown #
straight-curve $-1 0 -37.157073643823388 12.244473091563957 1 0 0 I I #
point $-1 -70.7358012634663 -37.157073643823388 12.244473091563957 #
point $-1 70.7358012634663 -37.157073643823388 12.244473091563957 #
vertex $-1 $538 $558 #
straight-curve $-1 70.7358012634663 0 -12.244473091563957 0 -1 0 I I #
plane-surface $-1 70.7358012634663 0 0 -1 0 0 0 0 1 forward_v I I I I #
straight-curve $-1 0 -48.975622774397188 -12.244473091563957 -1 0 0 I I #
point $-1 -70.7358012634663 -48.975622774397188 -5.5221389067627662 #
point $-1 -70.7358012634663 -48.975622774397188 -12.244473091563957 #
straight-curve $-1 -70.7358012634663 -43.066348209110288 -5.5221389067627662 0 -1 0 I I #
point $-1 -70.7358012634663 -37.157073643823388 -5.5221389067627662 #
straight-curve $-1 70.7358012634663 -48.975622774397188 -8.8833059991633618 0 0 -1 I I #
straight-curve $-1 70.7358012634663 -37.157073643823388 0 0 0 -1 I I #
straight-curve $-1 -70.7358012634663 -37.157073643823388 0 0 0 -1 I I #
point $-1 70.7358012634663 -48.975622774397188 -12.244473091563957 #
End-of-ACIS-data 