500 0 11 0           
7 Unknown 11 ACIS 5.0 NT 24 Thu Mar 25 18:25:17 1999 
-1 9.9999999999999995e-007 1e-010 
body $-1 $11 $-1 $12 #
body $-1 $13 $-1 $14 #
body $-1 $15 $-1 $16 #
body $-1 $17 $-1 $18 #
body $-1 $19 $-1 $20 #
body $-1 $21 $-1 $22 #
body $-1 $23 $-1 $24 #
body $-1 $25 $-1 $26 #
body $-1 $27 $-1 $28 #
body $-1 $29 $-1 $30 #
body $-1 $31 $-1 $32 #
lump $-1 $-1 $33 $0 #
transform $-1 1 0 0 0 1 0 0 0 1 43.33872493667409 28.787642559181073 13.035925215273684 1 rotate no_reflect no_shear #
lump $-1 $-1 $34 $1 #
transform $-1 1 0 0 0 1 0 0 0 1 43.33872493667409 28.787642559181073 13.035925215273684 1 rotate no_reflect no_shear #
lump $-1 $-1 $35 $2 #
transform $-1 1 0 0 0 1 0 0 0 1 43.33872493667409 28.787642559181073 13.035925215273684 1 rotate no_reflect no_shear #
lump $-1 $-1 $36 $3 #
transform $-1 1 0 0 0 1 0 0 0 1 43.33872493667409 28.787642559181073 13.035925215273684 1 rotate no_reflect no_shear #
lump $-1 $-1 $37 $4 #
transform $-1 1 0 0 0 1 0 0 0 1 43.33872493667409 28.787642559181073 13.035925215273684 1 rotate no_reflect no_shear #
lump $-1 $-1 $38 $5 #
transform $-1 1 0 0 0 1 0 0 0 1 43.33872493667409 28.787642559181073 13.035925215273684 1 rotate no_reflect no_shear #
lump $-1 $-1 $39 $6 #
transform $-1 1 0 0 0 1 0 0 0 1 43.33872493667409 28.787642559181073 13.035925215273684 1 rotate no_reflect no_shear #
lump $-1 $-1 $40 $7 #
transform $-1 1 0 0 0 1 0 0 0 1 43.33872493667409 28.787642559181073 13.035925215273684 1 rotate no_reflect no_shear #
lump $-1 $-1 $41 $8 #
transform $-1 1 0 0 0 1 0 0 0 1 43.33872493667409 28.787642559181073 13.035925215273684 1 rotate no_reflect no_shear #
lump $-1 $-1 $42 $9 #
transform $-1 1 0 0 0 1 0 0 0 1 43.33872493667409 28.787642559181073 13.035925215273684 1 rotate no_reflect no_shear #
lump $-1 $-1 $43 $10 #
transform $-1 1 0 0 0 1 0 0 0 1 43.33872493667409 28.787642559181073 13.035925215273684 1 rotate no_reflect no_shear #
shell $-1 $-1 $-1 $44 $-1 $11 #
shell $-1 $-1 $-1 $45 $-1 $13 #
shell $-1 $-1 $-1 $46 $-1 $15 #
shell $-1 $-1 $-1 $47 $-1 $17 #
shell $-1 $-1 $-1 $48 $-1 $19 #
shell $-1 $-1 $-1 $49 $-1 $21 #
shell $-1 $-1 $-1 $50 $-1 $23 #
shell $-1 $-1 $-1 $51 $-1 $25 #
shell $-1 $-1 $-1 $52 $-1 $27 #
shell $-1 $-1 $-1 $53 $-1 $29 #
shell $-1 $-1 $-1 $54 $-1 $31 #
face $-1 $55 $56 $33 $-1 $57 forward single #
face $-1 $58 $59 $34 $-1 $60 forward single #
face $-1 $61 $62 $35 $-1 $63 reversed single #
face $-1 $64 $65 $36 $-1 $66 forward single #
face $-1 $67 $68 $37 $-1 $69 forward single #
face $-1 $70 $71 $38 $-1 $72 reversed single #
face $-1 $73 $74 $39 $-1 $75 forward single #
face $-1 $76 $77 $40 $-1 $78 forward single #
face $-1 $79 $80 $41 $-1 $81 reversed single #
face $-1 $82 $83 $42 $-1 $84 forward single #
face $-1 $85 $86 $43 $-1 $87 forward single #
face $-1 $88 $89 $33 $-1 $90 reversed single #
loop $-1 $-1 $91 $44 #
plane-surface $-1 0 0 13.035925215273684 0 0 1 1 0 0 forward_v I I I I #
face $-1 $92 $93 $34 $-1 $94 reversed single #
loop $-1 $-1 $95 $45 #
plane-surface $-1 0 -23.731022803170795 -5.3144658771236903 0 0 1 1 0 0 forward_v I I I I #
face $-1 $96 $97 $35 $-1 $98 reversed single #
loop $-1 $-1 $99 $46 #
plane-surface $-1 32.65513819469394 16.617892037664568 126.9562799267553 0 -1 0 -0.64278761758704617 0 -0.76604443648966558 forward_v I I I I #
face $-1 $100 $101 $36 $-1 $102 forward single #
loop $-1 $103 $104 $47 #
cone-surface $-1 37.918159569663914 10.526190474131326 8.2977392955809037 -0.64278761758704617 0 -0.76604443648966558 0.38302221824483279 0 -0.32139380879352308 1 I I 0 1 0.5 forward I I I I #
face $-1 $105 $106 $37 $-1 $107 forward single #
loop $-1 $108 $109 $48 #
cone-surface $-1 37.918159569663914 14.181211412251272 8.2977392955809037 -0.64278761758704617 0 -0.76604443648966558 0.38302221824483279 0 -0.32139380879352308 1 I I 0 1 0.5 forward I I I I #
face $-1 $110 $111 $38 $-1 $112 reversed single #
loop $-1 $-1 $113 $49 #
plane-surface $-1 -109.7375044741411 -7.1132308226691379 57.887338209346673 0 1 0 -0.7660444514056185 0 0.64278759981090561 forward_v I I I I #
face $-1 $114 $115 $39 $-1 $116 forward single #
loop $-1 $117 $118 $50 #
cone-surface $-1 -38.391343042002447 -4.7080816698837538 7.2772188532653921 0.7660444514056185 0 -0.64278759981090561 0.3213937999054528 0 0.38302222570280925 1 I I 0 1 0.5 forward I I I I #
face $-1 $119 $120 $40 $-1 $121 forward single #
loop $-1 $122 $123 $51 #
cone-surface $-1 -38.391343042002447 -1.1003579407056776 7.2772188532653921 0.7660444514056185 0 -0.64278759981090561 0.3213937999054528 0 0.38302222570280925 1 I I 0 1 0.5 forward I I I I #
face $-1 $124 $125 $41 $-1 $126 reversed single #
loop $-1 $-1 $127 $52 #
plane-surface $-1 -109.7375044741411 8.8084482999408529 57.887338209346673 0 1 0 -0.7660444514056185 0 0.64278759981090561 forward_v I I I I #
face $-1 $128 $129 $42 $-1 $130 forward single #
loop $-1 $131 $132 $53 #
cone-surface $-1 -38.391343042002447 11.213597452726233 7.2772188532653921 0.7660444514056185 0 -0.64278759981090561 0.3213937999054528 0 0.38302222570280925 1 I I 0 1 0.5 forward I I I I #
face $-1 $133 $134 $43 $-1 $135 forward single #
loop $-1 $136 $137 $54 #
cone-surface $-1 -38.391343042002447 14.82132118190431 7.2772188532653921 0.7660444514056185 0 -0.64278759981090561 0.3213937999054528 0 0.38302222570280925 1 I I 0 1 0.5 forward I I I I #
face $-1 $138 $139 $33 $-1 $140 reversed single #
loop $-1 $-1 $141 $55 #
plane-surface $-1 0 0 -13.035925215273684 0 0 1 1 0 0 forward_v I I I I #
coedge $-1 $142 $143 $144 $145 forward $56 $-1 #
face $-1 $146 $147 $34 $-1 $148 reversed single #
loop $-1 $-1 $149 $58 #
plane-surface $-1 0 -18.674403047160517 -9.1751955461986867 0 -1 0 0 0 -1 forward_v I I I I #
coedge $-1 $150 $151 $152 $153 reversed $59 $-1 #
face $-1 $154 $155 $35 $-1 $156 reversed single #
loop $-1 $-1 $157 $61 #
plane-surface $-1 -23.060053307916156 12.353700943191299 60.557501682165054 0.64278761758704617 0 0.76604443648966558 0.76604443648966558 0 -0.64278761758704617 forward_v I I I I #
coedge $-1 $158 $159 $160 $161 reversed $62 $-1 #
face $-1 $-1 $162 $36 $-1 $163 forward single #
loop $-1 $164 $165 $64 #
cone-surface $-1 37.219282273571487 10.526190474131326 7.4648497846250681 -0.64278761758704617 0 -0.76604443648966558 0.1915111091224164 0 -0.16069690439676154 1 I I -0.70710678118654624 0.70710678118654879 0.25 forward I I I I #
loop $-1 $-1 $166 $47 #
coedge $-1 $104 $104 $167 $168 reversed $65 $-1 #
face $-1 $-1 $169 $37 $-1 $170 forward single #
loop $-1 $171 $172 $67 #
cone-surface $-1 37.219282273571487 14.181211412251272 7.4648497846250681 -0.64278761758704617 0 -0.76604443648966558 0.1915111091224164 0 -0.16069690439676154 1 I I -0.70710678118654624 0.70710678118654879 0.25 forward I I I I #
loop $-1 $-1 $173 $48 #
coedge $-1 $109 $109 $174 $175 reversed $68 $-1 #
face $-1 $176 $177 $38 $-1 $178 reversed single #
loop $-1 $-1 $179 $70 #
plane-surface $-1 -43.338724936674097 -2.9042198052947121 2.1721482475271117 -0.7660444514056185 0 0.64278759981090561 0.64278759981090561 0 0.7660444514056185 forward_v I I I I #
coedge $-1 $180 $181 $182 $183 reversed $71 $-1 #
face $-1 $-1 $184 $39 $-1 $185 forward single #
loop $-1 $186 $187 $73 #
cone-surface $-1 -37.810345538562416 -4.7080816698837538 6.7897040751776618 0.7660444514056185 0 -0.64278759981090561 0.1606968999527264 0 0.19151111285140462 1 I I -0.70710678118654746 0.70710678118654746 0.25 forward I I I I #
loop $-1 $-1 $188 $50 #
coedge $-1 $118 $118 $189 $190 reversed $74 $-1 #
face $-1 $-1 $191 $40 $-1 $192 forward single #
loop $-1 $193 $194 $76 #
cone-surface $-1 -37.810345538562416 -1.1003579407056776 6.7897040751776618 0.7660444514056185 0 -0.64278759981090561 0.1606968999527264 0 0.19151111285140462 1 I I -0.70710678118654746 0.70710678118654746 0.25 forward I I I I #
loop $-1 $-1 $195 $51 #
coedge $-1 $123 $123 $196 $197 reversed $77 $-1 #
face $-1 $198 $199 $41 $-1 $200 reversed single #
loop $-1 $-1 $201 $79 #
plane-surface $-1 -43.338724936674097 13.017459317315279 2.1721482475271117 -0.7660444514056185 0 0.64278759981090561 0.64278759981090561 0 0.7660444514056185 forward_v I I I I #
coedge $-1 $202 $203 $204 $205 reversed $80 $-1 #
face $-1 $-1 $206 $42 $-1 $207 forward single #
loop $-1 $208 $209 $82 #
cone-surface $-1 -37.810345538562416 11.213597452726233 6.7897040751776618 0.7660444514056185 0 -0.64278759981090561 0.1606968999527264 0 0.19151111285140462 1 I I -0.70710678118654746 0.70710678118654746 0.25 forward I I I I #
loop $-1 $-1 $210 $53 #
coedge $-1 $132 $132 $211 $212 reversed $83 $-1 #
face $-1 $-1 $213 $43 $-1 $214 forward single #
loop $-1 $215 $216 $85 #
cone-surface $-1 -37.810345538562416 14.82132118190431 6.7897040751776618 0.7660444514056185 0 -0.64278759981090561 0.1606968999527264 0 0.19151111285140462 1 I I -0.70710678118654746 0.70710678118654746 0.25 forward I I I I #
loop $-1 $-1 $217 $54 #
coedge $-1 $137 $137 $218 $219 reversed $86 $-1 #
face $-1 $220 $221 $33 $-1 $222 reversed single #
loop $-1 $-1 $223 $88 #
plane-surface $-1 0 -28.787642559181073 0 0 1 0 0 0 1 forward_v I I I I #
coedge $-1 $224 $225 $226 $227 forward $89 $-1 #
coedge $-1 $228 $91 $229 $230 forward $56 $-1 #
coedge $-1 $91 $228 $231 $232 forward $56 $-1 #
coedge $-1 $233 $234 $91 $145 reversed $235 $-1 #
edge $-1 $236 -28.787642559181073 $237 28.787642559181073 $144 $238 forward 7 unknown #
face $-1 $239 $240 $34 $-1 $241 reversed single #
loop $-1 $-1 $242 $92 #
plane-surface $-1 0 0 -13.035925215273684 0 0 1 1 0 0 forward_v I I I I #
coedge $-1 $243 $244 $245 $246 reversed $93 $-1 #
coedge $-1 $247 $95 $244 $248 forward $59 $-1 #
coedge $-1 $95 $247 $249 $250 reversed $59 $-1 #
coedge $-1 $251 $245 $95 $153 forward $240 $-1 #
edge $-1 $252 6.8088916455751196 $253 16.922131157595675 $152 $254 forward 7 unknown #
face $-1 $255 $256 $35 $-1 $257 reversed single #
loop $-1 $-1 $258 $96 #
plane-surface $-1 32.65513819469394 8.0895098487180306 126.9562799267553 0 1 0 0.64278761758704617 0 0.76604443648966558 forward_v I I I I #
coedge $-1 $259 $260 $261 $262 reversed $97 $-1 #
coedge $-1 $159 $99 $263 $264 reversed $62 $-1 #
coedge $-1 $99 $158 $259 $265 reversed $62 $-1 #
coedge $-1 $261 $266 $99 $161 forward $267 $-1 #
edge $-1 $268 -27.01115583932712 $269 -17.246385888698097 $160 $270 forward 7 unknown #
loop $-1 $-1 $167 $100 #
plane-surface $-1 -23.060053307916156 12.353700943191299 60.557501682165054 0.64278761758704617 0 0.76604443648966558 0.76604443648966558 0 -0.64278761758704617 forward_v I I I I #
loop $-1 $-1 $271 $64 #
coedge $-1 $165 $165 $166 $272 reversed $101 $-1 #
coedge $-1 $166 $166 $165 $272 forward $103 $-1 #
coedge $-1 $167 $167 $104 $168 forward $162 $-1 #
edge $-1 $273 0 $273 6.2831853071796004 $167 $274 forward 7 unknown #
loop $-1 $-1 $174 $105 #
plane-surface $-1 -23.060053307916156 12.353700943191299 60.557501682165054 0.64278761758704617 0 0.76604443648966558 0.76604443648966558 0 -0.64278761758704617 forward_v I I I I #
loop $-1 $-1 $275 $67 #
coedge $-1 $172 $172 $173 $276 reversed $106 $-1 #
coedge $-1 $173 $173 $172 $276 forward $108 $-1 #
coedge $-1 $174 $174 $109 $175 forward $169 $-1 #
edge $-1 $277 0 $277 6.2831853071796004 $174 $278 forward 7 unknown #
face $-1 $279 $280 $38 $-1 $281 forward single #
loop $-1 $-1 $282 $110 #
plane-surface $-1 -109.7375044741411 1.3047912120797136 57.887338209346673 0 -1 0 0.7660444514056185 0 -0.64278759981090561 forward_v I I I I #
coedge $-1 $283 $284 $285 $286 reversed $111 $-1 #
coedge $-1 $181 $113 $287 $288 reversed $71 $-1 #
coedge $-1 $113 $180 $283 $289 reversed $71 $-1 #
coedge $-1 $285 $290 $113 $183 forward $280 $-1 #
edge $-1 $291 11.530027300396462 $292 20.645818308562482 $182 $293 forward 7 unknown #
loop $-1 $-1 $189 $114 #
plane-surface $-1 -43.338724936674097 -2.9042198052947121 2.1721482475271117 -0.7660444514056185 0 0.64278759981090561 0.64278759981090561 0 0.7660444514056185 forward_v I I I I #
loop $-1 $-1 $294 $73 #
coedge $-1 $187 $187 $188 $295 reversed $115 $-1 #
coedge $-1 $188 $188 $187 $295 forward $117 $-1 #
coedge $-1 $189 $189 $118 $190 forward $184 $-1 #
edge $-1 $296 0 $296 6.2831853071796004 $189 $297 forward 7 unknown #
loop $-1 $-1 $196 $119 #
plane-surface $-1 -43.338724936674097 -2.9042198052947121 2.1721482475271117 -0.7660444514056185 0 0.64278759981090561 0.64278759981090561 0 0.7660444514056185 forward_v I I I I #
loop $-1 $-1 $298 $76 #
coedge $-1 $194 $194 $195 $299 reversed $120 $-1 #
coedge $-1 $195 $195 $194 $299 forward $122 $-1 #
coedge $-1 $196 $196 $123 $197 forward $191 $-1 #
edge $-1 $300 0 $300 6.2831853071796004 $196 $301 forward 7 unknown #
face $-1 $302 $303 $41 $-1 $304 forward single #
loop $-1 $-1 $305 $124 #
plane-surface $-1 -109.7375044741411 17.226470334689704 57.887338209346673 0 -1 0 0.7660444514056185 0 -0.64278759981090561 forward_v I I I I #
coedge $-1 $306 $307 $308 $309 reversed $125 $-1 #
coedge $-1 $203 $127 $310 $311 reversed $80 $-1 #
coedge $-1 $127 $202 $306 $312 reversed $80 $-1 #
coedge $-1 $308 $313 $127 $205 forward $303 $-1 #
edge $-1 $314 11.530027300396462 $315 20.645818308562482 $204 $316 forward 7 unknown #
loop $-1 $-1 $211 $128 #
plane-surface $-1 -43.338724936674097 13.017459317315279 2.1721482475271117 -0.7660444514056185 0 0.64278759981090561 0.64278759981090561 0 0.7660444514056185 forward_v I I I I #
loop $-1 $-1 $317 $82 #
coedge $-1 $209 $209 $210 $318 reversed $129 $-1 #
coedge $-1 $210 $210 $209 $318 forward $131 $-1 #
coedge $-1 $211 $211 $132 $212 forward $206 $-1 #
edge $-1 $319 0 $319 6.2831853071796004 $211 $320 forward 7 unknown #
loop $-1 $-1 $218 $133 #
plane-surface $-1 -43.338724936674097 13.017459317315279 2.1721482475271117 -0.7660444514056185 0 0.64278759981090561 0.64278759981090561 0 0.7660444514056185 forward_v I I I I #
loop $-1 $-1 $321 $85 #
coedge $-1 $216 $216 $217 $322 reversed $134 $-1 #
coedge $-1 $217 $217 $216 $322 forward $136 $-1 #
coedge $-1 $218 $218 $137 $219 forward $213 $-1 #
edge $-1 $323 0 $323 6.2831853071796004 $218 $324 forward 7 unknown #
face $-1 $325 $326 $33 $-1 $327 reversed single #
loop $-1 $-1 $328 $138 #
plane-surface $-1 -43.33872493667409 0 0 1 0 0 0 0 -1 forward_v I I I I #
coedge $-1 $329 $231 $330 $331 forward $139 $-1 #
coedge $-1 $332 $141 $329 $333 forward $89 $-1 #
coedge $-1 $141 $332 $334 $335 forward $89 $-1 #
coedge $-1 $234 $233 $141 $227 reversed $235 $-1 #
edge $-1 $336 -28.787642559181073 $337 28.787642559181073 $226 $338 forward 7 unknown #
coedge $-1 $143 $142 $339 $340 forward $56 $-1 #
coedge $-1 $341 $342 $142 $230 reversed $326 $-1 #
edge $-1 $237 -43.33872493667409 $343 43.33872493667409 $229 $344 forward 7 unknown #
coedge $-1 $223 $345 $143 $232 reversed $139 $-1 #
edge $-1 $346 -43.33872493667409 $236 43.33872493667409 $231 $347 forward 7 unknown #
coedge $-1 $226 $144 $345 $348 forward $235 $-1 #
coedge $-1 $144 $226 $341 $349 reversed $235 $-1 #
loop $-1 $-1 $233 $325 #
vertex $-1 $145 $350 #
vertex $-1 $145 $351 #
straight-curve $-1 43.33872493667409 0 13.035925215273684 0 1 0 I I #
face $-1 $352 $353 $34 $-1 $354 reversed single #
loop $-1 $-1 $245 $146 #
plane-surface $-1 43.33872493667409 0 0 -1 0 0 0 0 1 forward_v I I I I #
coedge $-1 $355 $356 $243 $357 forward $147 $-1 #
coedge $-1 $358 $149 $242 $357 reversed $93 $-1 #
coedge $-1 $149 $358 $150 $248 reversed $93 $-1 #
coedge $-1 $152 $359 $149 $246 forward $240 $-1 #
edge $-1 $360 -8.4483274421743388 $252 -0.72686810402434698 $245 $361 forward 7 unknown #
coedge $-1 $151 $150 $362 $363 reversed $59 $-1 #
edge $-1 $252 -43.33872493667409 $364 43.33872493667409 $244 $365 forward 7 unknown #
coedge $-1 $366 $367 $151 $250 forward $353 $-1 #
edge $-1 $253 -43.33872493667409 $368 43.33872493667409 $249 $369 forward 7 unknown #
coedge $-1 $359 $152 $367 $370 forward $240 $-1 #
vertex $-1 $153 $371 #
vertex $-1 $370 $372 #
straight-curve $-1 43.33872493667409 -11.865511401585398 -5.3144658771236903 0 -1 0 I I #
face $-1 $-1 $267 $35 $-1 $373 forward single #
loop $-1 $-1 $374 $154 #
plane-surface $-1 43.33872493667409 0 0 -1 0 0 0 0 1 forward_v I I I I #
coedge $-1 $375 $376 $377 $378 reversed $155 $-1 #
coedge $-1 $379 $157 $159 $265 forward $97 $-1 #
coedge $-1 $157 $379 $375 $380 forward $97 $-1 #
coedge $-1 $377 $160 $157 $262 forward $267 $-1 #
edge $-1 $269 -10.441041566068918 $381 -1.912659377122381 $261 $382 forward 7 unknown #
coedge $-1 $383 $384 $158 $264 forward $256 $-1 #
edge $-1 $385 -58.635829783822693 $268 -50.442214748103964 $263 $386 forward 7 unknown #
edge $-1 $269 73.930447890832312 $385 86.677449873348195 $159 $387 forward 7 unknown #
coedge $-1 $160 $377 $383 $388 forward $267 $-1 #
loop $-1 $-1 $377 $255 #
vertex $-1 $264 $389 #
vertex $-1 $161 $390 #
straight-curve $-1 16.32756909734697 16.617892037664568 13.035925215273686 -1 0 0 I I #
coedge $-1 $271 $271 $-1 $391 reversed $164 $-1 #
edge $-1 $392 0 $392 6.2831853071796004 $165 $393 forward 7 unknown #
vertex $-1 $168 $394 #
ellipse-curve $-1 38.456339961359575 10.526190474131326 8.9391176974143232 0.64278761758704617 0 0.76604443648966558 0.38302221824483279 0 -0.32139380879352308 1 I I #
coedge $-1 $275 $275 $-1 $395 reversed $171 $-1 #
edge $-1 $396 0 $396 6.2831853071796004 $172 $397 forward 7 unknown #
vertex $-1 $175 $398 #
ellipse-curve $-1 38.456339961359575 14.181211412251272 8.9391176974143232 0.64278761758704617 0 0.76604443648966558 0.38302221824483279 0 -0.32139380879352308 1 I I #
face $-1 $-1 $399 $38 $-1 $400 reversed single #
loop $-1 $-1 $182 $176 #
plane-surface $-1 0 0 13.035925215273684 0 0 1 1 0 0 forward_v I I I I #
coedge $-1 $401 $402 $403 $404 reversed $177 $-1 #
coedge $-1 $405 $179 $181 $289 forward $111 $-1 #
coedge $-1 $179 $405 $401 $406 forward $111 $-1 #
coedge $-1 $403 $182 $179 $286 forward $280 $-1 #
edge $-1 $292 -5.6611209200217818 $407 2.7569011147270697 $285 $408 forward 7 unknown #
coedge $-1 $409 $410 $180 $288 forward $399 $-1 #
edge $-1 $411 -26.771520857146218 $291 -15.907743889399653 $287 $412 forward 7 unknown #
edge $-1 $292 -14.181653489967296 $411 -1.1030930024383267e-014 $181 $413 forward 7 unknown #
coedge $-1 $182 $403 $409 $414 forward $280 $-1 #
vertex $-1 $288 $415 #
vertex $-1 $183 $416 #
straight-curve $-1 -54.868752237070552 -7.1132308226691379 13.035925215273686 1 0 0 I I #
coedge $-1 $294 $294 $-1 $417 reversed $186 $-1 #
edge $-1 $418 0 $418 6.2831853071796004 $187 $419 forward 7 unknown #
vertex $-1 $190 $420 #
ellipse-curve $-1 -38.780829432591077 -4.7080816698837538 7.6040367314003996 -0.7660444514056185 0 0.64278759981090561 0.3213937999054528 0 0.38302222570280925 1 I I #
coedge $-1 $298 $298 $-1 $421 reversed $193 $-1 #
edge $-1 $422 0 $422 6.2831853071796004 $194 $423 forward 7 unknown #
vertex $-1 $197 $424 #
ellipse-curve $-1 -38.780829432591077 -1.1003579407056776 7.6040367314003996 -0.7660444514056185 0 0.64278759981090561 0.3213937999054528 0 0.38302222570280925 1 I I #
face $-1 $-1 $425 $41 $-1 $426 reversed single #
loop $-1 $-1 $204 $198 #
plane-surface $-1 0 0 13.035925215273684 0 0 1 1 0 0 forward_v I I I I #
coedge $-1 $427 $428 $429 $430 reversed $199 $-1 #
coedge $-1 $431 $201 $203 $312 forward $125 $-1 #
coedge $-1 $201 $431 $427 $432 forward $125 $-1 #
coedge $-1 $429 $204 $201 $309 forward $303 $-1 #
edge $-1 $315 2.2997186412832136 $433 10.717740676032065 $308 $434 forward 7 unknown #
coedge $-1 $435 $436 $202 $311 forward $425 $-1 #
edge $-1 $437 -26.771520857146218 $314 -15.907743889399653 $310 $438 forward 7 unknown #
edge $-1 $315 -14.181653489967296 $437 -1.1030930024383267e-014 $203 $439 forward 7 unknown #
coedge $-1 $204 $429 $435 $440 forward $303 $-1 #
vertex $-1 $205 $441 #
vertex $-1 $205 $442 #
straight-curve $-1 -54.868752237070552 8.8084482999408529 13.035925215273686 1 0 0 I I #
coedge $-1 $317 $317 $-1 $443 reversed $208 $-1 #
edge $-1 $444 0 $444 6.2831853071796004 $209 $445 forward 7 unknown #
vertex $-1 $212 $446 #
ellipse-curve $-1 -38.780829432591077 11.213597452726233 7.6040367314003996 -0.7660444514056185 0 0.64278759981090561 0.3213937999054528 0 0.38302222570280925 1 I I #
coedge $-1 $321 $321 $-1 $447 reversed $215 $-1 #
edge $-1 $448 0 $448 6.2831853071796004 $216 $449 forward 7 unknown #
vertex $-1 $219 $450 #
ellipse-curve $-1 -38.780829432591077 14.82132118190431 7.6040367314003996 -0.7660444514056185 0 0.64278759981090561 0.3213937999054528 0 0.38302222570280925 1 I I #
face $-1 $-1 $235 $33 $-1 $451 reversed single #
loop $-1 $-1 $341 $220 #
plane-surface $-1 0 28.787642559181073 0 0 -1 0 0 0 -1 forward_v I I I I #
coedge $-1 $452 $339 $342 $453 forward $221 $-1 #
coedge $-1 $345 $223 $224 $333 reversed $139 $-1 #
coedge $-1 $339 $452 $223 $331 reversed $221 $-1 #
edge $-1 $346 -13.035925215273684 $454 13.035925215273684 $330 $455 forward 7 unknown #
coedge $-1 $225 $224 $452 $456 forward $89 $-1 #
edge $-1 $337 -43.33872493667409 $454 43.33872493667409 $329 $457 forward 7 unknown #
coedge $-1 $342 $341 $225 $335 reversed $326 $-1 #
edge $-1 $458 -43.33872493667409 $336 43.33872493667409 $334 $459 forward 7 unknown #
vertex $-1 $227 $460 #
vertex $-1 $348 $461 #
straight-curve $-1 43.33872493667409 0 -13.035925215273684 0 -1 0 I I #
coedge $-1 $328 $330 $228 $340 reversed $221 $-1 #
edge $-1 $343 -28.787642559181073 $346 28.787642559181073 $339 $462 forward 7 unknown #
coedge $-1 $334 $229 $234 $349 forward $326 $-1 #
coedge $-1 $229 $334 $328 $453 reversed $326 $-1 #
vertex $-1 $230 $463 #
straight-curve $-1 0 28.787642559181073 13.035925215273684 -1 0 0 I I #
coedge $-1 $231 $329 $233 $348 reversed $139 $-1 #
vertex $-1 $340 $464 #
straight-curve $-1 0 -28.787642559181073 13.035925215273684 1 0 0 I I #
edge $-1 $236 -13.035925215273684 $337 13.035925215273684 $233 $465 forward 7 unknown #
edge $-1 $237 -13.035925215273684 $336 13.035925215273684 $234 $466 forward 7 unknown #
point $-1 43.33872493667409 -28.787642559181073 13.035925215273684 #
point $-1 43.33872493667409 28.787642559181073 13.035925215273684 #
face $-1 $-1 $467 $34 $-1 $468 reversed single #
loop $-1 $-1 $249 $239 #
plane-surface $-1 0 -28.787642559181073 0 0 1 0 0 0 1 forward_v I I I I #
coedge $-1 $469 $242 $359 $470 forward $147 $-1 #
coedge $-1 $242 $469 $471 $472 forward $147 $-1 #
edge $-1 $473 -43.33872493667409 $360 43.33872493667409 $242 $474 forward 7 unknown #
coedge $-1 $244 $243 $475 $476 reversed $93 $-1 #
coedge $-1 $245 $251 $355 $470 reversed $240 $-1 #
vertex $-1 $470 $477 #
straight-curve $-1 43.33872493667409 -18.674403047160517 -4.5875977730993434 0 0 1 I I #
coedge $-1 $475 $478 $247 $363 forward $467 $-1 #
edge $-1 $368 -16.922131157595675 $364 -6.8088916455751196 $362 $479 forward 7 unknown #
vertex $-1 $363 $480 #
straight-curve $-1 0 -18.674403047160517 -5.3144658771236903 -1 0 0 I I #
coedge $-1 $481 $249 $478 $482 forward $353 $-1 #
coedge $-1 $249 $481 $251 $370 reversed $353 $-1 #
vertex $-1 $482 $483 #
straight-curve $-1 0 -28.787642559181073 -5.3144658771236903 -1 0 0 I I #
edge $-1 $253 5.3144658771236903 $484 13.035925215273684 $251 $485 forward 7 unknown #
point $-1 43.33872493667409 -18.674403047160517 -5.3144658771236903 #
point $-1 43.33872493667409 -28.787642559181073 -5.3144658771236903 #
plane-surface $-1 0 0 13.035925215273684 0 0 1 1 0 0 forward_v I I I I #
coedge $-1 $384 $383 $376 $486 forward $256 $-1 #
coedge $-1 $376 $258 $260 $380 reversed $155 $-1 #
coedge $-1 $258 $375 $374 $486 reversed $155 $-1 #
coedge $-1 $266 $261 $258 $378 forward $267 $-1 #
edge $-1 $381 17.246385888698097 $487 27.01115583932712 $377 $488 forward 7 unknown #
coedge $-1 $260 $259 $384 $489 reversed $97 $-1 #
edge $-1 $490 -86.677449873348195 $381 -73.930447890832312 $375 $491 forward 7 unknown #
vertex $-1 $262 $492 #
straight-curve $-1 33.573954986045067 6.1768504715956496 13.035925215273693 0 -1 0 I I #
coedge $-1 $374 $263 $266 $388 reversed $256 $-1 #
coedge $-1 $263 $374 $379 $489 forward $256 $-1 #
vertex $-1 $264 $493 #
straight-curve $-1 43.33872493667409 16.617892037664568 63.47813996337765 0 0 1 I I #
straight-curve $-1 -23.060053307916156 16.617892037664568 60.557501682165054 0.76604443648966558 0 -0.64278761758704617 I I #
edge $-1 $487 8.0895098487180306 $268 16.617892037664568 $383 $494 forward 7 unknown #
point $-1 43.33872493667409 16.617892037664568 13.035925215273684 #
point $-1 33.573954986045067 16.617892037664568 13.035925215273693 #
edge $-1 $495 1 $495 0 $271 $-1 forward 7 unknown #
vertex $-1 $272 $496 #
ellipse-curve $-1 37.379979177968252 10.526190474131326 7.6563608937474852 0.64278761758704617 0 0.76604443648966558 0.38302221824483279 0 -0.32139380879352308 1 I I #
point $-1 38.839362179604407 10.526190474131326 8.6177238886208016 #
edge $-1 $497 1 $497 0 $275 $-1 forward 7 unknown #
vertex $-1 $276 $498 #
ellipse-curve $-1 37.379979177968252 14.181211412251272 7.6563608937474852 0.64278761758704617 0 0.76604443648966558 0.38302221824483279 0 -0.32139380879352308 1 I I #
point $-1 38.839362179604407 14.181211412251272 8.6177238886208016 #
loop $-1 $-1 $287 $279 #
plane-surface $-1 -43.33872493667409 0 0 1 0 0 0 0 -1 forward_v I I I I #
coedge $-1 $402 $282 $284 $406 reversed $177 $-1 #
coedge $-1 $282 $401 $499 $500 reversed $177 $-1 #
coedge $-1 $290 $285 $282 $404 forward $280 $-1 #
edge $-1 $407 -20.645818308562482 $501 -11.530027300396462 $403 $502 forward 7 unknown #
coedge $-1 $284 $283 $410 $503 reversed $111 $-1 #
edge $-1 $504 1.1030930024383267e-014 $407 14.181653489967296 $401 $505 forward 7 unknown #
vertex $-1 $286 $506 #
straight-curve $-1 -34.222933928508063 -1.4521099026473561 13.035925215273684 0 1 0 I I #
coedge $-1 $499 $287 $290 $414 reversed $399 $-1 #
coedge $-1 $287 $499 $405 $503 forward $399 $-1 #
vertex $-1 $288 $507 #
straight-curve $-1 -43.33872493667409 -7.1132308226691379 28.943669104673337 0 0 1 I I #
straight-curve $-1 -43.338724936674097 -7.1132308226691379 2.1721482475271117 -0.64278759981090561 0 -0.7660444514056185 I I #
edge $-1 $501 -1.3047912120797136 $291 7.1132308226691379 $409 $508 forward 7 unknown #
point $-1 -43.33872493667409 -7.1132308226691379 13.035925215273684 #
point $-1 -34.22293392850807 -7.1132308226691379 13.035925215273684 #
edge $-1 $509 1 $509 0 $294 $-1 forward 7 unknown #
vertex $-1 $295 $510 #
ellipse-curve $-1 -38.001856651413817 -4.7080816698837538 6.9504009751303881 -0.7660444514056185 0 0.64278759981090561 0.3213937999054528 0 0.38302222570280925 1 I I #
point $-1 -38.459435632685626 -4.7080816698837538 7.9870589571032058 #
edge $-1 $511 1 $511 0 $298 $-1 forward 7 unknown #
vertex $-1 $299 $512 #
ellipse-curve $-1 -38.001856651413817 -1.1003579407056776 6.9504009751303881 -0.7660444514056185 0 0.64278759981090561 0.3213937999054528 0 0.38302222570280925 1 I I #
point $-1 -38.459435632685626 -1.1003579407056776 7.9870589571032058 #
loop $-1 $-1 $310 $302 #
plane-surface $-1 -43.33872493667409 0 0 1 0 0 0 0 -1 forward_v I I I I #
coedge $-1 $428 $305 $307 $432 reversed $199 $-1 #
coedge $-1 $305 $427 $513 $514 reversed $199 $-1 #
coedge $-1 $313 $308 $305 $430 forward $303 $-1 #
edge $-1 $433 -20.645818308562482 $515 -11.530027300396462 $429 $516 forward 7 unknown #
coedge $-1 $307 $306 $436 $517 reversed $125 $-1 #
edge $-1 $518 1.1030930024383267e-014 $433 14.181653489967296 $427 $519 forward 7 unknown #
vertex $-1 $309 $520 #
straight-curve $-1 -34.222933928508063 6.5087296586576393 13.035925215273684 0 1 0 I I #
coedge $-1 $513 $310 $313 $440 reversed $425 $-1 #
coedge $-1 $310 $513 $431 $517 forward $425 $-1 #
vertex $-1 $311 $521 #
straight-curve $-1 -43.33872493667409 8.8084482999408529 28.943669104673337 0 0 1 I I #
straight-curve $-1 -43.338724936674097 8.8084482999408529 2.1721482475271117 -0.64278759981090561 0 -0.7660444514056185 I I #
edge $-1 $515 -17.226470334689704 $314 -8.8084482999408529 $435 $522 forward 7 unknown #
point $-1 -43.33872493667409 8.8084482999408529 13.035925215273684 #
point $-1 -34.22293392850807 8.8084482999408529 13.035925215273684 #
edge $-1 $523 1 $523 0 $317 $-1 forward 7 unknown #
vertex $-1 $318 $524 #
ellipse-curve $-1 -38.001856651413817 11.213597452726233 6.9504009751303881 -0.7660444514056185 0 0.64278759981090561 0.3213937999054528 0 0.38302222570280925 1 I I #
point $-1 -38.459435632685626 11.213597452726233 7.9870589571032058 #
edge $-1 $525 1 $525 0 $321 $-1 forward 7 unknown #
vertex $-1 $322 $526 #
ellipse-curve $-1 -38.001856651413817 14.82132118190431 6.9504009751303881 -0.7660444514056185 0 0.64278759981090561 0.3213937999054528 0 0.38302222570280925 1 I I #
point $-1 -38.459435632685626 14.82132118190431 7.9870589571032058 #
plane-surface $-1 43.33872493667409 0 0 -1 0 0 0 0 1 forward_v I I I I #
coedge $-1 $330 $328 $332 $456 reversed $221 $-1 #
edge $-1 $343 -13.035925215273684 $458 13.035925215273684 $342 $527 forward 7 unknown #
vertex $-1 $456 $528 #
straight-curve $-1 -43.33872493667409 -28.787642559181073 0 0 0 -1 I I #
edge $-1 $454 -28.787642559181073 $458 28.787642559181073 $452 $529 forward 7 unknown #
straight-curve $-1 0 -28.787642559181073 -13.035925215273684 -1 0 0 I I #
vertex $-1 $335 $530 #
straight-curve $-1 0 28.787642559181073 -13.035925215273684 1 0 0 I I #
point $-1 43.33872493667409 28.787642559181073 -13.035925215273684 #
point $-1 43.33872493667409 -28.787642559181073 -13.035925215273684 #
straight-curve $-1 -43.33872493667409 0 13.035925215273684 0 -1 0 I I #
point $-1 -43.33872493667409 28.787642559181073 13.035925215273684 #
point $-1 -43.33872493667409 -28.787642559181073 13.035925215273684 #
straight-curve $-1 43.33872493667409 -28.787642559181073 0 0 0 -1 I I #
straight-curve $-1 43.33872493667409 28.787642559181073 0 0 0 -1 I I #
loop $-1 $-1 $475 $352 #
plane-surface $-1 -43.33872493667409 0 0 1 0 0 0 0 -1 forward_v I I I I #
coedge $-1 $356 $355 $481 $531 forward $147 $-1 #
edge $-1 $360 18.674403047160517 $484 28.787642559181073 $359 $532 forward 7 unknown #
coedge $-1 $478 $475 $356 $472 reversed $467 $-1 #
edge $-1 $533 -28.787642559181073 $473 -18.674403047160517 $471 $534 forward 7 unknown #
vertex $-1 $476 $535 #
straight-curve $-1 0 -18.674403047160517 -13.035925215273684 1 0 0 I I #
coedge $-1 $471 $362 $358 $476 forward $467 $-1 #
edge $-1 $364 0.72686810402434698 $473 8.4483274421743388 $475 $536 forward 7 unknown #
point $-1 43.33872493667409 -18.674403047160517 -13.035925215273682 #
coedge $-1 $362 $471 $366 $482 reversed $467 $-1 #
straight-curve $-1 -43.33872493667409 -11.865511401585398 -5.3144658771236903 0 1 0 I I #
point $-1 -43.33872493667409 -18.674403047160517 -5.3144658771236903 #
coedge $-1 $367 $366 $469 $531 reversed $353 $-1 #
edge $-1 $368 5.3144658771236903 $533 13.035925215273684 $478 $537 forward 7 unknown #
point $-1 -43.33872493667409 -28.787642559181073 -5.3144658771236903 #
vertex $-1 $370 $538 #
straight-curve $-1 43.33872493667409 -28.787642559181073 0 0 0 -1 I I #
edge $-1 $487 50.442214748103964 $490 58.635829783822693 $374 $539 forward 7 unknown #
vertex $-1 $388 $540 #
straight-curve $-1 16.32756909734697 8.0895098487180306 13.035925215273686 1 0 0 I I #
edge $-1 $490 1.912659377122381 $385 10.441041566068918 $384 $541 forward 7 unknown #
vertex $-1 $489 $542 #
straight-curve $-1 -23.060053307916156 8.0895098487180306 60.557501682165054 -0.76604443648966558 0 0.64278761758704617 I I #
point $-1 33.573954986045067 8.0895098487180306 13.035925215273693 #
point $-1 43.33872493667409 16.617892037664568 4.842310179554957 #
straight-curve $-1 43.33872493667409 0 13.035925215273684 0 1 0 I I #
vertex $-1 $391 $543 #
point $-1 37.763001396213085 10.526190474131326 7.3349670849539619 #
vertex $-1 $395 $544 #
point $-1 37.763001396213085 14.181211412251272 7.3349670849539619 #
coedge $-1 $410 $409 $402 $500 forward $399 $-1 #
edge $-1 $501 15.907743889399653 $504 26.771520857146218 $499 $545 forward 7 unknown #
vertex $-1 $414 $546 #
straight-curve $-1 -54.868752237070552 1.3047912120797136 13.035925215273686 -1 0 0 I I #
edge $-1 $504 -2.7569011147270697 $411 5.6611209200217818 $410 $547 forward 7 unknown #
vertex $-1 $503 $548 #
straight-curve $-1 -43.338724936674097 1.3047912120797136 2.1721482475271117 0.64278759981090561 0 0.7660444514056185 I I #
point $-1 -34.22293392850807 1.3047912120797136 13.035925215273684 #
point $-1 -43.33872493667409 -7.1132308226691379 2.1721482475271201 #
straight-curve $-1 -43.33872493667409 0 13.035925215273684 0 -1 0 I I #
vertex $-1 $417 $549 #
point $-1 -37.680462851508366 -4.7080816698837538 7.333423200833197 #
vertex $-1 $421 $550 #
point $-1 -37.680462851508366 -1.1003579407056776 7.333423200833197 #
coedge $-1 $436 $435 $428 $514 forward $425 $-1 #
edge $-1 $515 15.907743889399653 $518 26.771520857146218 $513 $551 forward 7 unknown #
vertex $-1 $440 $552 #
straight-curve $-1 -54.868752237070552 17.226470334689704 13.035925215273686 -1 0 0 I I #
edge $-1 $518 -10.717740676032065 $437 -2.2997186412832136 $436 $553 forward 7 unknown #
vertex $-1 $517 $554 #
straight-curve $-1 -43.338724936674097 17.226470334689704 2.1721482475271117 0.64278759981090561 0 0.7660444514056185 I I #
point $-1 -34.22293392850807 17.226470334689704 13.035925215273684 #
point $-1 -43.33872493667409 8.8084482999408529 2.1721482475271201 #
straight-curve $-1 -43.33872493667409 0 13.035925215273684 0 -1 0 I I #
vertex $-1 $443 $555 #
point $-1 -37.680462851508366 11.213597452726233 7.333423200833197 #
vertex $-1 $447 $556 #
point $-1 -37.680462851508366 14.82132118190431 7.333423200833197 #
straight-curve $-1 -43.33872493667409 28.787642559181073 0 0 0 -1 I I #
point $-1 -43.33872493667409 -28.787642559181073 -13.035925215273684 #
straight-curve $-1 -43.33872493667409 0 -13.035925215273684 0 1 0 I I #
point $-1 -43.33872493667409 28.787642559181073 -13.035925215273684 #
edge $-1 $484 -43.33872493667409 $533 43.33872493667409 $481 $557 forward 7 unknown #
straight-curve $-1 43.33872493667409 0 -13.035925215273684 0 -1 0 I I #
vertex $-1 $472 $558 #
straight-curve $-1 -43.33872493667409 0 -13.035925215273684 0 1 0 I I #
point $-1 -43.33872493667409 -18.674403047160517 -13.035925215273682 #
straight-curve $-1 -43.33872493667409 -18.674403047160517 -4.5875977730993434 0 0 -1 I I #
straight-curve $-1 -43.33872493667409 -28.787642559181073 0 0 0 -1 I I #
point $-1 43.33872493667409 -28.787642559181073 -13.035925215273684 #
straight-curve $-1 43.33872493667409 8.0895098487180306 63.47813996337765 0 0 -1 I I #
point $-1 43.33872493667409 8.0895098487180306 13.035925215273684 #
straight-curve $-1 43.33872493667409 6.1768504715956496 4.8423101795549535 0 1 0 I I #
point $-1 43.33872493667409 8.0895098487180306 4.842310179554957 #
point $-1 37.058585369174722 10.526190474131326 7.273338675502651 #
point $-1 37.058585369174722 14.181211412251272 7.273338675502651 #
straight-curve $-1 -43.33872493667409 1.3047912120797136 28.943669104673337 0 0 -1 I I #
point $-1 -43.33872493667409 1.3047912120797136 13.035925215273684 #
straight-curve $-1 -43.33872493667409 -1.4521099026473561 2.1721482475271241 0 -1 0 I I #
point $-1 -43.33872493667409 1.3047912120797136 2.1721482475271201 #
point $-1 -37.618834425711015 -4.7080816698837538 6.6290071752249355 #
point $-1 -37.618834425711015 -1.1003579407056776 6.6290071752249355 #
straight-curve $-1 -43.33872493667409 17.226470334689704 28.943669104673337 0 0 -1 I I #
point $-1 -43.33872493667409 17.226470334689704 13.035925215273684 #
straight-curve $-1 -43.33872493667409 6.5087296586576393 2.1721482475271241 0 -1 0 I I #
point $-1 -43.33872493667409 17.226470334689704 2.1721482475271201 #
point $-1 -37.618834425711015 11.213597452726233 6.6290071752249355 #
point $-1 -37.618834425711015 14.82132118190431 6.6290071752249355 #
straight-curve $-1 0 -28.787642559181073 -13.035925215273684 -1 0 0 I I #
point $-1 -43.33872493667409 -28.787642559181073 -13.035925215273684 #
End-of-ACIS-data 