500 0 15 0           
7 Unknown 11 ACIS 5.0 NT 24 Thu Mar 25 17:27:59 1999 
-1 9.9999999999999995e-007 1e-010 
body $-1 $15 $-1 $16 #
body $-1 $17 $-1 $18 #
body $-1 $19 $-1 $20 #
body $-1 $21 $-1 $22 #
body $-1 $23 $-1 $24 #
body $-1 $25 $-1 $26 #
body $-1 $27 $-1 $28 #
body $-1 $29 $-1 $30 #
body $-1 $31 $-1 $32 #
body $-1 $33 $-1 $34 #
body $-1 $35 $-1 $36 #
body $-1 $37 $-1 $38 #
body $-1 $39 $-1 $40 #
body $-1 $41 $-1 $42 #
body $-1 $43 $-1 $44 #
lump $-1 $-1 $45 $0 #
transform $-1 1 0 0 0 1 0 0 0 1 74.496902371288186 37.114540008250103 11.651770427895991 1 rotate no_reflect no_shear #
lump $-1 $-1 $46 $1 #
transform $-1 1 0 0 0 1 0 0 0 1 74.496902371288186 37.114540008250103 11.651770427895991 1 rotate no_reflect no_shear #
lump $-1 $-1 $47 $2 #
transform $-1 1 0 0 0 1 0 0 0 1 74.496902371288186 37.114540008250103 11.651770427895991 1 rotate no_reflect no_shear #
lump $-1 $-1 $48 $3 #
transform $-1 1 0 0 0 1 0 0 0 1 74.496902371288186 37.114540008250103 11.651770427895991 1 rotate no_reflect no_shear #
lump $-1 $-1 $49 $4 #
transform $-1 1 0 0 0 1 0 0 0 1 74.496902371288186 37.114540008250103 11.651770427895991 1 rotate no_reflect no_shear #
lump $-1 $-1 $50 $5 #
transform $-1 1 0 0 0 1 0 0 0 1 74.496902371288186 37.114540008250103 11.651770427895991 1 rotate no_reflect no_shear #
lump $-1 $-1 $51 $6 #
transform $-1 1 0 0 0 1 0 0 0 1 74.496902371288186 37.114540008250103 11.651770427895991 1 rotate no_reflect no_shear #
lump $-1 $-1 $52 $7 #
transform $-1 1 0 0 0 1 0 0 0 1 74.496902371288186 37.114540008250103 11.651770427895991 1 rotate no_reflect no_shear #
lump $-1 $-1 $53 $8 #
transform $-1 1 0 0 0 1 0 0 0 1 74.496902371288186 37.114540008250103 11.651770427895991 1 rotate no_reflect no_shear #
lump $-1 $-1 $54 $9 #
transform $-1 1 0 0 0 1 0 0 0 1 74.496902371288186 37.114540008250103 11.651770427895991 1 rotate no_reflect no_shear #
lump $-1 $-1 $55 $10 #
transform $-1 1 0 0 0 1 0 0 0 1 74.496902371288186 37.114540008250103 11.651770427895991 1 rotate no_reflect no_shear #
lump $-1 $-1 $56 $11 #
transform $-1 1 0 0 0 1 0 0 0 1 74.496902371288186 37.114540008250103 11.651770427895991 1 rotate no_reflect no_shear #
lump $-1 $-1 $57 $12 #
transform $-1 1 0 0 0 1 0 0 0 1 74.496902371288186 37.114540008250103 11.651770427895991 1 rotate no_reflect no_shear #
lump $-1 $-1 $58 $13 #
transform $-1 1 0 0 0 1 0 0 0 1 74.496902371288186 37.114540008250103 11.651770427895991 1 rotate no_reflect no_shear #
lump $-1 $-1 $59 $14 #
transform $-1 1 0 0 0 1 0 0 0 1 74.496902371288186 37.114540008250103 11.651770427895991 1 rotate no_reflect no_shear #
shell $-1 $-1 $-1 $60 $-1 $15 #
shell $-1 $-1 $-1 $61 $-1 $17 #
shell $-1 $-1 $-1 $62 $-1 $19 #
shell $-1 $-1 $-1 $63 $-1 $21 #
shell $-1 $-1 $-1 $64 $-1 $23 #
shell $-1 $-1 $-1 $65 $-1 $25 #
shell $-1 $-1 $-1 $66 $-1 $27 #
shell $-1 $-1 $-1 $67 $-1 $29 #
shell $-1 $-1 $-1 $68 $-1 $31 #
shell $-1 $-1 $-1 $69 $-1 $33 #
shell $-1 $-1 $-1 $70 $-1 $35 #
shell $-1 $-1 $-1 $71 $-1 $37 #
shell $-1 $-1 $-1 $72 $-1 $39 #
shell $-1 $-1 $-1 $73 $-1 $41 #
shell $-1 $-1 $-1 $74 $-1 $43 #
face $-1 $75 $76 $45 $-1 $77 forward single #
face $-1 $78 $79 $46 $-1 $80 forward single #
face $-1 $81 $82 $47 $-1 $83 forward single #
face $-1 $84 $85 $48 $-1 $86 reversed single #
face $-1 $87 $88 $49 $-1 $89 forward single #
face $-1 $90 $91 $50 $-1 $92 reversed single #
face $-1 $93 $94 $51 $-1 $95 forward single #
face $-1 $96 $97 $52 $-1 $98 reversed single #
face $-1 $99 $100 $53 $-1 $101 forward single #
face $-1 $102 $103 $54 $-1 $104 reversed single #
face $-1 $105 $106 $55 $-1 $107 forward single #
face $-1 $108 $109 $56 $-1 $110 reversed single #
face $-1 $111 $112 $57 $-1 $113 forward single #
face $-1 $114 $115 $58 $-1 $116 forward single #
face $-1 $117 $118 $59 $-1 $119 forward single #
face $-1 $120 $121 $45 $-1 $122 reversed single #
loop $-1 $-1 $123 $60 #
plane-surface $-1 0 0 11.651770427895991 0 0 1 1 0 0 forward_v I I I I #
face $-1 $124 $125 $46 $-1 $126 reversed single #
loop $-1 $-1 $127 $61 #
plane-surface $-1 -67.898171265733239 0 -7.3406118136278113 0 0 1 1 0 0 forward_v I I I I #
face $-1 $128 $129 $47 $-1 $130 reversed single #
loop $-1 $-1 $131 $62 #
plane-surface $-1 67.898171265733239 0 -7.3406118136278113 0 0 1 1 0 0 forward_v I I I I #
face $-1 $132 $133 $48 $-1 $134 reversed single #
loop $-1 $-1 $135 $63 #
plane-surface $-1 -43.988573293935261 -157.65306132090811 94.433455840717102 1 0 0 0 0.80901700255871778 -0.5877852410284794 forward_v I I I I #
face $-1 $136 $137 $49 $-1 $138 forward single #
loop $-1 $139 $140 $64 #
cone-surface $-1 -37.319146687012207 -34.968264266407523 8.9605407976095872 0 0.80901700255871778 -0.5877852410284794 0.5 0 0 1 I I 0 1 0.5 forward I I I I #
face $-1 $141 $142 $50 $-1 $143 reversed single #
loop $-1 $-1 $144 $65 #
plane-surface $-1 -19.109142169260465 -157.65306132090811 94.433455840717102 1 0 0 0 0.80901700255871778 -0.5877852410284794 forward_v I I I I #
face $-1 $145 $146 $51 $-1 $147 forward single #
loop $-1 $148 $149 $66 #
cone-surface $-1 -12.439715562337412 -34.968264266407523 8.9605407976095872 0 0.80901700255871778 -0.5877852410284794 0.5 0 0 1 I I 0 1 0.5 forward I I I I #
face $-1 $150 $151 $52 $-1 $152 reversed single #
loop $-1 $-1 $153 $67 #
plane-surface $-1 5.7702889554143315 -157.65306132090811 94.433455840717102 1 0 0 0 0.80901700255871778 -0.5877852410284794 forward_v I I I I #
face $-1 $154 $155 $53 $-1 $156 forward single #
loop $-1 $157 $158 $68 #
cone-surface $-1 12.439715562337383 -34.968264266407523 8.9605407976095872 0 0.80901700255871778 -0.5877852410284794 0.5 0 0 1 I I 0 1 0.5 forward I I I I #
face $-1 $159 $160 $54 $-1 $161 reversed single #
loop $-1 $-1 $162 $69 #
plane-surface $-1 30.649720080089125 -157.65306132090811 94.433455840717102 1 0 0 0 0.80901700255871778 -0.5877852410284794 forward_v I I I I #
face $-1 $163 $164 $55 $-1 $165 forward single #
loop $-1 $166 $167 $70 #
cone-surface $-1 37.319146687012179 -34.968264266407523 8.9605407976095872 0 0.80901700255871778 -0.5877852410284794 0.5 0 0 1 I I 0 1 0.5 forward I I I I #
face $-1 $168 $169 $56 $-1 $170 reversed single #
loop $-1 $-1 $171 $71 #
plane-surface $-1 48.257801115574452 58.892123418244637 172.37963023446801 -1 0 0 0 0.55919291073839883 0.82903756765294845 forward_v I I I I #
face $-1 $172 $173 $57 $-1 $174 forward single #
loop $-1 $175 $176 $72 #
cone-surface $-1 19.086099642405387 32.848857184613777 7.9044918180648285 0 -0.55919291073839883 -0.82903756765294845 1 0 0 1 I I 0 1 1 forward I I I I #
face $-1 $177 $178 $58 $-1 $179 forward single #
loop $-1 $180 $181 $73 #
cone-surface $-1 30.02548769484379 32.848857184613777 7.9044918180648285 0 -0.55919291073839883 -0.82903756765294845 1 0 0 1 I I 0 1 1 forward I I I I #
face $-1 $182 $183 $59 $-1 $184 forward single #
loop $-1 $185 $186 $74 #
cone-surface $-1 40.964875747282193 32.848857184613777 7.9044918180648285 0 -0.55919291073839883 -0.82903756765294845 1 0 0 1 I I 0 1 1 forward I I I I #
face $-1 $187 $188 $45 $-1 $189 reversed single #
loop $-1 $-1 $190 $75 #
plane-surface $-1 0 0 -11.651770427895991 0 0 1 1 0 0 forward_v I I I I #
coedge $-1 $191 $192 $193 $194 forward $76 $-1 #
face $-1 $195 $196 $46 $-1 $197 reversed single #
loop $-1 $-1 $198 $78 #
plane-surface $-1 -61.299440160178293 0 -9.4961911207619014 -1 0 0 0 0 1 forward_v I I I I #
coedge $-1 $199 $200 $201 $202 forward $79 $-1 #
face $-1 $203 $204 $47 $-1 $205 reversed single #
loop $-1 $-1 $206 $81 #
plane-surface $-1 61.299440160178293 0 -9.4961911207619014 1 0 0 0 0 -1 forward_v I I I I #
coedge $-1 $207 $208 $209 $210 reversed $82 $-1 #
face $-1 $211 $212 $48 $-1 $213 reversed single #
loop $-1 $-1 $214 $84 #
plane-surface $-1 -37.319146687012207 -37.114540008250103 6.8570964083516515 0 -0.80901700255871778 0.5877852410284794 1 0 0 forward_v I I I I #
coedge $-1 $215 $216 $217 $218 reversed $85 $-1 #
face $-1 $-1 $219 $49 $-1 $220 forward single #
loop $-1 $221 $222 $87 #
cone-surface $-1 -37.319146687012207 -34.361501514488488 8.5197018668382274 0 0.80901700255871778 -0.5877852410284794 0.25 0 0 1 I I -0.70710678118654746 0.70710678118654746 0.25 forward I I I I #
loop $-1 $-1 $223 $64 #
coedge $-1 $140 $140 $224 $225 reversed $88 $-1 #
face $-1 $226 $227 $50 $-1 $228 reversed single #
loop $-1 $-1 $229 $90 #
plane-surface $-1 -12.439715562337412 -37.114540008250103 6.8570964083516515 0 -0.80901700255871778 0.5877852410284794 1 0 0 forward_v I I I I #
coedge $-1 $230 $231 $232 $233 reversed $91 $-1 #
face $-1 $-1 $234 $51 $-1 $235 forward single #
loop $-1 $236 $237 $93 #
cone-surface $-1 -12.439715562337412 -34.361501514488488 8.5197018668382274 0 0.80901700255871778 -0.5877852410284794 0.25 0 0 1 I I -0.70710678118654746 0.70710678118654746 0.25 forward I I I I #
loop $-1 $-1 $238 $66 #
coedge $-1 $149 $149 $239 $240 reversed $94 $-1 #
face $-1 $241 $242 $52 $-1 $243 reversed single #
loop $-1 $-1 $244 $96 #
plane-surface $-1 12.439715562337383 -37.114540008250103 6.8570964083516515 0 -0.80901700255871778 0.5877852410284794 1 0 0 forward_v I I I I #
coedge $-1 $245 $246 $247 $248 reversed $97 $-1 #
face $-1 $-1 $249 $53 $-1 $250 forward single #
loop $-1 $251 $252 $99 #
cone-surface $-1 12.439715562337383 -34.361501514488488 8.5197018668382274 0 0.80901700255871778 -0.5877852410284794 0.25 0 0 1 I I -0.70710678118654746 0.70710678118654746 0.25 forward I I I I #
loop $-1 $-1 $253 $68 #
coedge $-1 $158 $158 $254 $255 reversed $100 $-1 #
face $-1 $256 $257 $54 $-1 $258 reversed single #
loop $-1 $-1 $259 $102 #
plane-surface $-1 37.319146687012179 -37.114540008250103 6.8570964083516515 0 -0.80901700255871778 0.5877852410284794 1 0 0 forward_v I I I I #
coedge $-1 $260 $261 $262 $263 reversed $103 $-1 #
face $-1 $-1 $264 $55 $-1 $265 forward single #
loop $-1 $266 $267 $105 #
cone-surface $-1 37.319146687012179 -34.361501514488488 8.5197018668382274 0 0.80901700255871778 -0.5877852410284794 0.25 0 0 1 I I -0.70710678118654746 0.70710678118654746 0.25 forward I I I I #
loop $-1 $-1 $268 $70 #
coedge $-1 $167 $167 $269 $270 reversed $106 $-1 #
face $-1 $271 $272 $56 $-1 $273 reversed single #
loop $-1 $-1 $274 $108 #
plane-surface $-1 30.02548769484379 -24.424155937745297 48.858168755324158 0 0.55919291073839883 0.82903756765294845 1 0 0 forward_v I I I I #
coedge $-1 $275 $276 $277 $278 reversed $109 $-1 #
face $-1 $-1 $279 $57 $-1 $280 forward single #
loop $-1 $281 $282 $111 #
cone-surface $-1 19.086099642405387 31.492549430550554 5.8936829186232575 0 -0.55919291073839883 -0.82903756765294845 0.5 0 0 1 I I -0.70710678118654746 0.70710678118654746 0.5 forward I I I I #
loop $-1 $-1 $283 $72 #
coedge $-1 $176 $176 $284 $285 reversed $112 $-1 #
face $-1 $-1 $286 $58 $-1 $287 forward single #
loop $-1 $288 $289 $114 #
cone-surface $-1 30.02548769484379 31.492549430550554 5.8936829186232575 0 -0.55919291073839883 -0.82903756765294845 0.5 0 0 1 I I -0.70710678118654746 0.70710678118654746 0.5 forward I I I I #
loop $-1 $-1 $290 $73 #
coedge $-1 $181 $181 $291 $292 reversed $115 $-1 #
face $-1 $-1 $293 $59 $-1 $294 forward single #
loop $-1 $295 $296 $117 #
cone-surface $-1 40.964875747282193 31.492549430550554 5.8936829186232575 0 -0.55919291073839883 -0.82903756765294845 0.5 0 0 1 I I -0.70710678118654746 0.70710678118654746 0.5 forward I I I I #
loop $-1 $-1 $297 $74 #
coedge $-1 $186 $186 $298 $299 reversed $118 $-1 #
face $-1 $300 $301 $45 $-1 $302 reversed single #
loop $-1 $-1 $303 $120 #
plane-surface $-1 0 -37.114540008250103 0 0 1 0 0 0 1 forward_v I I I I #
coedge $-1 $304 $305 $306 $307 forward $121 $-1 #
coedge $-1 $308 $123 $309 $310 forward $76 $-1 #
coedge $-1 $123 $308 $311 $312 forward $76 $-1 #
coedge $-1 $313 $314 $123 $194 reversed $315 $-1 #
edge $-1 $316 -37.114540008250103 $317 37.114540008250103 $193 $318 forward 7 unknown #
face $-1 $319 $320 $46 $-1 $321 reversed single #
loop $-1 $-1 $322 $124 #
plane-surface $-1 0 0 -11.651770427895991 0 0 1 1 0 0 forward_v I I I I #
coedge $-1 $323 $201 $324 $325 reversed $125 $-1 #
coedge $-1 $326 $127 $327 $328 reversed $79 $-1 #
coedge $-1 $127 $326 $329 $330 reversed $79 $-1 #
coedge $-1 $198 $331 $127 $202 reversed $125 $-1 #
edge $-1 $332 -37.114540008250103 $333 37.114540008250103 $201 $334 forward 7 unknown #
face $-1 $335 $336 $47 $-1 $337 reversed single #
loop $-1 $-1 $338 $128 #
plane-surface $-1 0 -37.114540008250103 0 0 1 0 0 0 1 forward_v I I I I #
coedge $-1 $339 $340 $341 $342 reversed $129 $-1 #
coedge $-1 $343 $131 $344 $345 reversed $82 $-1 #
coedge $-1 $131 $343 $338 $346 reversed $82 $-1 #
coedge $-1 $347 $348 $131 $210 forward $349 $-1 #
edge $-1 $350 -37.114540008250103 $351 37.114540008250103 $209 $352 forward 7 unknown #
face $-1 $353 $354 $48 $-1 $355 forward single #
loop $-1 $-1 $356 $132 #
plane-surface $-1 -30.649720080089153 -157.65306132090811 94.433455840717102 -1 0 0 0 -0.80901700255871778 0.5877852410284794 forward_v I I I I #
coedge $-1 $357 $358 $359 $360 reversed $133 $-1 #
coedge $-1 $216 $135 $361 $362 reversed $85 $-1 #
coedge $-1 $135 $215 $357 $363 reversed $85 $-1 #
coedge $-1 $359 $364 $135 $218 forward $365 $-1 #
edge $-1 $366 35.564957492462561 $367 40.359631512006899 $217 $368 forward 7 unknown #
loop $-1 $-1 $224 $136 #
plane-surface $-1 -37.319146687012207 -37.114540008250103 6.8570964083516515 0 -0.80901700255871778 0.5877852410284794 1 0 0 forward_v I I I I #
loop $-1 $-1 $369 $87 #
coedge $-1 $222 $222 $223 $370 reversed $137 $-1 #
coedge $-1 $223 $223 $222 $370 forward $139 $-1 #
coedge $-1 $224 $224 $140 $225 forward $219 $-1 #
edge $-1 $371 -2.6045191212506401e-015 $371 6.2831853071795978 $224 $372 forward 7 unknown #
face $-1 $373 $374 $50 $-1 $375 reversed single #
loop $-1 $-1 $376 $141 #
plane-surface $-1 -5.7702889554143599 -157.65306132090811 94.433455840717102 -1 0 0 0 -0.80901700255871778 0.5877852410284794 forward_v I I I I #
coedge $-1 $377 $378 $379 $380 reversed $142 $-1 #
coedge $-1 $231 $144 $381 $382 reversed $91 $-1 #
coedge $-1 $144 $230 $377 $383 reversed $91 $-1 #
coedge $-1 $379 $384 $144 $233 forward $374 $-1 #
edge $-1 $385 35.564957492462561 $386 40.359631512006899 $232 $387 forward 7 unknown #
loop $-1 $-1 $239 $145 #
plane-surface $-1 -12.439715562337412 -37.114540008250103 6.8570964083516515 0 -0.80901700255871778 0.5877852410284794 1 0 0 forward_v I I I I #
loop $-1 $-1 $388 $93 #
coedge $-1 $237 $237 $238 $389 reversed $146 $-1 #
coedge $-1 $238 $238 $237 $389 forward $148 $-1 #
coedge $-1 $239 $239 $149 $240 forward $234 $-1 #
edge $-1 $390 -2.6045191212506401e-015 $390 6.2831853071795978 $239 $391 forward 7 unknown #
face $-1 $392 $393 $52 $-1 $394 reversed single #
loop $-1 $-1 $395 $150 #
plane-surface $-1 19.109142169260437 -157.65306132090811 94.433455840717102 -1 0 0 0 -0.80901700255871778 0.5877852410284794 forward_v I I I I #
coedge $-1 $396 $397 $398 $399 reversed $151 $-1 #
coedge $-1 $246 $153 $400 $401 reversed $97 $-1 #
coedge $-1 $153 $245 $396 $402 reversed $97 $-1 #
coedge $-1 $398 $403 $153 $248 forward $393 $-1 #
edge $-1 $404 35.564957492462561 $405 40.359631512006899 $247 $406 forward 7 unknown #
loop $-1 $-1 $254 $154 #
plane-surface $-1 12.439715562337383 -37.114540008250103 6.8570964083516515 0 -0.80901700255871778 0.5877852410284794 1 0 0 forward_v I I I I #
loop $-1 $-1 $407 $99 #
coedge $-1 $252 $252 $253 $408 reversed $155 $-1 #
coedge $-1 $253 $253 $252 $408 forward $157 $-1 #
coedge $-1 $254 $254 $158 $255 forward $249 $-1 #
edge $-1 $409 -2.6045191212506401e-015 $409 6.2831853071795978 $254 $410 forward 7 unknown #
face $-1 $411 $412 $54 $-1 $413 reversed single #
loop $-1 $-1 $414 $159 #
plane-surface $-1 43.988573293935232 -157.65306132090811 94.433455840717102 -1 0 0 0 -0.80901700255871778 0.5877852410284794 forward_v I I I I #
coedge $-1 $415 $416 $417 $418 reversed $160 $-1 #
coedge $-1 $261 $162 $419 $420 reversed $103 $-1 #
coedge $-1 $162 $260 $415 $421 reversed $103 $-1 #
coedge $-1 $417 $422 $162 $263 forward $412 $-1 #
edge $-1 $423 35.564957492462561 $424 40.359631512006899 $262 $425 forward 7 unknown #
loop $-1 $-1 $269 $163 #
plane-surface $-1 37.319146687012179 -37.114540008250103 6.8570964083516515 0 -0.80901700255871778 0.5877852410284794 1 0 0 forward_v I I I I #
loop $-1 $-1 $426 $105 #
coedge $-1 $267 $267 $268 $427 reversed $164 $-1 #
coedge $-1 $268 $268 $267 $427 forward $166 $-1 #
coedge $-1 $269 $269 $167 $270 forward $264 $-1 #
edge $-1 $428 -2.6045191212506401e-015 $428 6.2831853071795978 $269 $429 forward 7 unknown #
face $-1 $430 $431 $56 $-1 $432 reversed single #
loop $-1 $-1 $433 $168 #
plane-surface $-1 11.793174274113127 58.892123418244637 172.37963023446801 1 0 0 0 -0.55919291073839883 -0.82903756765294845 forward_v I I I I #
coedge $-1 $434 $435 $436 $437 reversed $169 $-1 #
coedge $-1 $276 $171 $438 $439 reversed $109 $-1 #
coedge $-1 $171 $275 $434 $440 reversed $109 $-1 #
coedge $-1 $436 $441 $171 $278 forward $431 $-1 #
edge $-1 $442 74.538044689338008 $443 78.840021677770096 $277 $444 forward 7 unknown #
loop $-1 $-1 $284 $172 #
plane-surface $-1 30.02548769484379 -24.424155937745297 48.858168755324158 0 0.55919291073839883 0.82903756765294845 1 0 0 forward_v I I I I #
loop $-1 $-1 $445 $111 #
coedge $-1 $282 $282 $283 $446 reversed $173 $-1 #
coedge $-1 $283 $283 $282 $446 forward $175 $-1 #
coedge $-1 $284 $284 $176 $285 forward $279 $-1 #
edge $-1 $447 -3.7654325195607146e-015 $447 6.2831853071795969 $284 $448 forward 7 unknown #
loop $-1 $-1 $291 $177 #
plane-surface $-1 30.02548769484379 -24.424155937745297 48.858168755324158 0 0.55919291073839883 0.82903756765294845 1 0 0 forward_v I I I I #
loop $-1 $-1 $449 $114 #
coedge $-1 $289 $289 $290 $450 reversed $178 $-1 #
coedge $-1 $290 $290 $289 $450 forward $180 $-1 #
coedge $-1 $291 $291 $181 $292 forward $286 $-1 #
edge $-1 $451 -3.7654325195607146e-015 $451 6.2831853071795969 $291 $452 forward 7 unknown #
loop $-1 $-1 $298 $182 #
plane-surface $-1 30.02548769484379 -24.424155937745297 48.858168755324158 0 0.55919291073839883 0.82903756765294845 1 0 0 forward_v I I I I #
loop $-1 $-1 $453 $117 #
coedge $-1 $296 $296 $297 $454 reversed $183 $-1 #
coedge $-1 $297 $297 $296 $454 forward $185 $-1 #
coedge $-1 $298 $298 $186 $299 forward $293 $-1 #
edge $-1 $455 -3.7654325195607146e-015 $455 6.2831853071795969 $298 $456 forward 7 unknown #
face $-1 $457 $458 $45 $-1 $459 reversed single #
loop $-1 $-1 $460 $187 #
plane-surface $-1 -74.496902371288186 0 0 1 0 0 0 0 -1 forward_v I I I I #
coedge $-1 $461 $311 $462 $463 forward $188 $-1 #
coedge $-1 $464 $190 $461 $465 forward $121 $-1 #
coedge $-1 $190 $464 $466 $467 forward $121 $-1 #
coedge $-1 $314 $313 $190 $307 reversed $315 $-1 #
edge $-1 $468 -37.114540008250103 $469 37.114540008250103 $306 $470 forward 7 unknown #
coedge $-1 $192 $191 $471 $472 forward $76 $-1 #
coedge $-1 $473 $474 $191 $310 reversed $458 $-1 #
edge $-1 $317 -74.496902371288186 $475 74.496902371288186 $309 $476 forward 7 unknown #
coedge $-1 $303 $477 $192 $312 reversed $188 $-1 #
edge $-1 $478 -74.496902371288186 $316 74.496902371288186 $311 $479 forward 7 unknown #
coedge $-1 $306 $193 $477 $480 forward $315 $-1 #
coedge $-1 $193 $306 $473 $481 reversed $315 $-1 #
loop $-1 $-1 $313 $457 #
vertex $-1 $194 $482 #
vertex $-1 $194 $483 #
straight-curve $-1 74.496902371288186 0 11.651770427895991 0 1 0 I I #
face $-1 $484 $485 $46 $-1 $486 reversed single #
loop $-1 $-1 $324 $195 #
plane-surface $-1 0 -37.114540008250103 0 0 1 0 0 0 1 forward_v I I I I #
coedge $-1 $487 $488 $323 $489 forward $196 $-1 #
coedge $-1 $331 $198 $322 $489 reversed $125 $-1 #
coedge $-1 $329 $490 $198 $325 forward $320 $-1 #
edge $-1 $491 -6.9036748675150408 $332 -2.5925162532468606 $324 $492 forward 7 unknown #
coedge $-1 $200 $199 $493 $494 reversed $79 $-1 #
coedge $-1 $495 $496 $199 $328 forward $497 $-1 #
edge $-1 $498 -40.547816738421567 $333 -27.350354527311673 $327 $499 forward 7 unknown #
coedge $-1 $500 $324 $200 $330 forward $320 $-1 #
edge $-1 $332 27.350354527311673 $501 40.547816738421567 $329 $502 forward 7 unknown #
coedge $-1 $201 $323 $495 $503 reversed $125 $-1 #
vertex $-1 $330 $504 #
vertex $-1 $328 $505 #
straight-curve $-1 -61.299440160178293 0 -7.3406118136278113 0 1 0 I I #
face $-1 $506 $507 $47 $-1 $508 reversed single #
loop $-1 $-1 $509 $203 #
plane-surface $-1 0 0 -11.651770427895991 0 0 1 1 0 0 forward_v I I I I #
coedge $-1 $510 $511 $208 $346 forward $204 $-1 #
coedge $-1 $512 $206 $509 $513 reversed $129 $-1 #
coedge $-1 $206 $512 $343 $514 reversed $129 $-1 #
coedge $-1 $344 $515 $206 $342 forward $507 $-1 #
edge $-1 $516 -6.9036748675150408 $517 -2.5925162532468606 $341 $518 forward 7 unknown #
coedge $-1 $208 $207 $340 $514 forward $82 $-1 #
coedge $-1 $519 $341 $207 $345 forward $507 $-1 #
edge $-1 $517 27.350354527311673 $350 40.547816738421567 $344 $520 forward 7 unknown #
edge $-1 $351 -40.547816738421567 $521 -27.350354527311673 $338 $522 forward 7 unknown #
coedge $-1 $523 $209 $511 $524 forward $349 $-1 #
coedge $-1 $209 $523 $519 $525 reversed $349 $-1 #
loop $-1 $-1 $209 $506 #
vertex $-1 $525 $526 #
vertex $-1 $524 $527 #
straight-curve $-1 74.496902371288186 0 -7.3406118136278113 0 -1 0 I I #
face $-1 $-1 $365 $48 $-1 $528 reversed single #
loop $-1 $-1 $529 $211 #
plane-surface $-1 0 0 11.651770427895991 0 0 1 1 0 0 forward_v I I I I #
coedge $-1 $530 $531 $532 $533 reversed $212 $-1 #
coedge $-1 $534 $214 $216 $363 forward $133 $-1 #
coedge $-1 $214 $534 $530 $535 forward $133 $-1 #
coedge $-1 $532 $217 $214 $360 forward $365 $-1 #
edge $-1 $367 -25.328999950429157 $536 -11.99014673658305 $359 $537 forward 7 unknown #
coedge $-1 $538 $539 $215 $362 forward $354 $-1 #
edge $-1 $540 -45.195525133330399 $366 -41.711990652203951 $361 $541 forward 7 unknown #
edge $-1 $367 0 $540 5.9265429581578495 $216 $542 forward 7 unknown #
coedge $-1 $217 $532 $538 $543 reversed $365 $-1 #
loop $-1 $-1 $532 $353 #
vertex $-1 $543 $544 #
vertex $-1 $218 $545 #
straight-curve $-1 -43.988573293935261 -37.114540008250103 47.216727920358551 0 0 -1 I I #
coedge $-1 $369 $369 $-1 $546 reversed $221 $-1 #
edge $-1 $547 0 $547 6.2831853071796004 $222 $548 forward 7 unknown #
vertex $-1 $225 $549 #
ellipse-curve $-1 -37.319146687012207 -35.372772767686875 9.2544334181238224 0 -0.80901700255871778 0.5877852410284794 0.5 0 0 1 I I #
face $-1 $-1 $550 $50 $-1 $551 forward single #
loop $-1 $-1 $232 $226 #
plane-surface $-1 0 -37.114540008250103 0 0 1 0 0 0 1 forward_v I I I I #
coedge $-1 $552 $553 $554 $555 reversed $227 $-1 #
coedge $-1 $556 $229 $231 $383 forward $142 $-1 #
coedge $-1 $229 $556 $552 $557 forward $142 $-1 #
coedge $-1 $554 $232 $229 $380 forward $374 $-1 #
edge $-1 $386 -12.88928438809176 $558 0.44956882575434598 $379 $559 forward 7 unknown #
coedge $-1 $560 $561 $230 $382 forward $550 $-1 #
edge $-1 $562 -45.195525133330399 $385 -41.711990652203951 $381 $563 forward 7 unknown #
edge $-1 $386 0 $562 5.9265429581578495 $231 $564 forward 7 unknown #
coedge $-1 $232 $554 $560 $565 reversed $374 $-1 #
vertex $-1 $565 $566 #
vertex $-1 $233 $567 #
straight-curve $-1 -19.109142169260465 -37.114540008250103 47.216727920358551 0 0 -1 I I #
coedge $-1 $388 $388 $-1 $568 reversed $236 $-1 #
edge $-1 $569 0 $569 6.2831853071796004 $237 $570 forward 7 unknown #
vertex $-1 $240 $571 #
ellipse-curve $-1 -12.439715562337412 -35.372772767686875 9.2544334181238224 0 -0.80901700255871778 0.5877852410284794 0.5 0 0 1 I I #
face $-1 $-1 $572 $52 $-1 $573 forward single #
loop $-1 $-1 $247 $241 #
plane-surface $-1 0 -37.114540008250103 0 0 1 0 0 0 1 forward_v I I I I #
coedge $-1 $574 $575 $576 $577 reversed $242 $-1 #
coedge $-1 $578 $244 $246 $402 forward $151 $-1 #
coedge $-1 $244 $578 $574 $579 forward $151 $-1 #
coedge $-1 $576 $247 $244 $399 forward $393 $-1 #
edge $-1 $405 -0.44956882575436019 $580 12.889284388091745 $398 $581 forward 7 unknown #
coedge $-1 $582 $583 $245 $401 forward $572 $-1 #
edge $-1 $584 -45.195525133330399 $404 -41.711990652203951 $400 $585 forward 7 unknown #
edge $-1 $405 0 $584 5.9265429581578495 $246 $586 forward 7 unknown #
coedge $-1 $247 $576 $582 $587 reversed $393 $-1 #
vertex $-1 $587 $588 #
vertex $-1 $248 $589 #
straight-curve $-1 5.7702889554143315 -37.114540008250103 47.216727920358551 0 0 -1 I I #
coedge $-1 $407 $407 $-1 $590 reversed $251 $-1 #
edge $-1 $591 0 $591 6.2831853071796004 $252 $592 forward 7 unknown #
vertex $-1 $255 $593 #
ellipse-curve $-1 12.439715562337383 -35.372772767686875 9.2544334181238224 0 -0.80901700255871778 0.5877852410284794 0.5 0 0 1 I I #
face $-1 $-1 $594 $54 $-1 $595 forward single #
loop $-1 $-1 $262 $256 #
plane-surface $-1 0 -37.114540008250103 0 0 1 0 0 0 1 forward_v I I I I #
coedge $-1 $596 $597 $598 $599 reversed $257 $-1 #
coedge $-1 $600 $259 $261 $421 forward $160 $-1 #
coedge $-1 $259 $600 $596 $601 forward $160 $-1 #
coedge $-1 $598 $262 $259 $418 forward $412 $-1 #
edge $-1 $424 11.990146736583036 $602 25.328999950429143 $417 $603 forward 7 unknown #
coedge $-1 $604 $605 $260 $420 forward $594 $-1 #
edge $-1 $606 -45.195525133330399 $423 -41.711990652203951 $419 $607 forward 7 unknown #
edge $-1 $424 0 $606 5.9265429581578495 $261 $608 forward 7 unknown #
coedge $-1 $262 $598 $604 $609 reversed $412 $-1 #
vertex $-1 $609 $610 #
vertex $-1 $263 $611 #
straight-curve $-1 30.649720080089125 -37.114540008250103 47.216727920358551 0 0 -1 I I #
coedge $-1 $426 $426 $-1 $612 reversed $266 $-1 #
edge $-1 $613 0 $613 6.2831853071796004 $267 $614 forward 7 unknown #
vertex $-1 $270 $615 #
ellipse-curve $-1 37.319146687012179 -35.372772767686875 9.2544334181238224 0 -0.80901700255871778 0.5877852410284794 0.5 0 0 1 I I #
face $-1 $-1 $616 $56 $-1 $617 forward single #
loop $-1 $-1 $277 $271 #
plane-surface $-1 0 37.114540008250103 0 0 -1 0 0 0 -1 forward_v I I I I #
coedge $-1 $618 $619 $620 $621 reversed $272 $-1 #
coedge $-1 $622 $274 $276 $440 forward $169 $-1 #
coedge $-1 $274 $622 $618 $623 forward $169 $-1 #
coedge $-1 $620 $277 $274 $437 forward $431 $-1 #
edge $-1 $443 -33.245057268152557 $624 3.2195695733087675 $436 $625 forward 7 unknown #
coedge $-1 $626 $627 $275 $439 forward $616 $-1 #
edge $-1 $628 1.2905352492432129 $442 7.6684782991277842 $438 $629 forward 7 unknown #
edge $-1 $443 -74.229080016500177 $628 -66.535890589703911 $276 $630 forward 7 unknown #
coedge $-1 $277 $620 $626 $631 reversed $431 $-1 #
vertex $-1 $631 $632 #
vertex $-1 $278 $633 #
straight-curve $-1 48.257801115574452 37.114540008250103 86.189815117234005 0 0 -1 I I #
coedge $-1 $445 $445 $-1 $634 reversed $281 $-1 #
edge $-1 $635 0 $635 6.2831853071796004 $282 $636 forward 7 unknown #
vertex $-1 $285 $637 #
ellipse-curve $-1 19.086099642405387 33.925568483307821 9.5007819336799493 0 0.55919291073839883 0.82903756765294845 1 0 0 1 I I #
coedge $-1 $449 $449 $-1 $638 reversed $288 $-1 #
edge $-1 $639 0 $639 6.2831853071796004 $289 $640 forward 7 unknown #
vertex $-1 $292 $641 #
ellipse-curve $-1 30.02548769484379 33.925568483307821 9.5007819336799493 0 0.55919291073839883 0.82903756765294845 1 0 0 1 I I #
coedge $-1 $453 $453 $-1 $642 reversed $295 $-1 #
edge $-1 $643 0 $643 6.2831853071796004 $296 $644 forward 7 unknown #
vertex $-1 $299 $645 #
ellipse-curve $-1 40.964875747282193 33.925568483307821 9.5007819336799493 0 0.55919291073839883 0.82903756765294845 1 0 0 1 I I #
face $-1 $-1 $315 $45 $-1 $646 reversed single #
loop $-1 $-1 $473 $300 #
plane-surface $-1 0 37.114540008250103 0 0 -1 0 0 0 -1 forward_v I I I I #
coedge $-1 $647 $471 $474 $648 forward $301 $-1 #
coedge $-1 $477 $303 $304 $465 reversed $188 $-1 #
coedge $-1 $471 $647 $303 $463 reversed $301 $-1 #
edge $-1 $478 -11.651770427895991 $649 11.651770427895991 $462 $650 forward 7 unknown #
coedge $-1 $305 $304 $647 $651 forward $121 $-1 #
edge $-1 $469 -74.496902371288186 $649 74.496902371288186 $461 $652 forward 7 unknown #
coedge $-1 $474 $473 $305 $467 reversed $458 $-1 #
edge $-1 $653 -74.496902371288186 $468 74.496902371288186 $466 $654 forward 7 unknown #
vertex $-1 $307 $655 #
vertex $-1 $480 $656 #
straight-curve $-1 74.496902371288186 0 -11.651770427895991 0 -1 0 I I #
coedge $-1 $460 $462 $308 $472 reversed $301 $-1 #
edge $-1 $475 -37.114540008250103 $478 37.114540008250103 $471 $657 forward 7 unknown #
coedge $-1 $466 $309 $314 $481 forward $458 $-1 #
coedge $-1 $309 $466 $460 $648 reversed $458 $-1 #
vertex $-1 $310 $658 #
straight-curve $-1 0 37.114540008250103 11.651770427895991 -1 0 0 I I #
coedge $-1 $311 $461 $313 $480 reversed $188 $-1 #
vertex $-1 $472 $659 #
straight-curve $-1 0 -37.114540008250103 11.651770427895991 1 0 0 I I #
edge $-1 $316 -11.651770427895991 $469 11.651770427895991 $313 $660 forward 7 unknown #
edge $-1 $317 -11.651770427895991 $468 11.651770427895991 $314 $661 forward 7 unknown #
point $-1 74.496902371288186 -37.114540008250103 11.651770427895991 #
point $-1 74.496902371288186 37.114540008250103 11.651770427895991 #
face $-1 $-1 $497 $46 $-1 $662 reversed single #
loop $-1 $-1 $493 $319 #
plane-surface $-1 -74.496902371288186 0 0 1 0 0 0 0 -1 forward_v I I I I #
coedge $-1 $663 $322 $490 $664 forward $196 $-1 #
coedge $-1 $322 $663 $665 $666 forward $196 $-1 #
edge $-1 $667 -37.114540008250103 $491 37.114540008250103 $322 $668 forward 7 unknown #
coedge $-1 $324 $500 $487 $664 reversed $320 $-1 #
vertex $-1 $664 $669 #
straight-curve $-1 -61.299440160178293 -37.114540008250103 -4.7480955603809507 0 0 1 I I #
coedge $-1 $670 $671 $326 $494 forward $485 $-1 #
edge $-1 $501 -37.114540008250103 $498 37.114540008250103 $493 $672 forward 7 unknown #
coedge $-1 $665 $327 $331 $503 forward $497 $-1 #
coedge $-1 $327 $665 $670 $673 reversed $497 $-1 #
loop $-1 $-1 $495 $484 #
vertex $-1 $673 $674 #
straight-curve $-1 -33.94908563286662 37.114540008250103 -7.3406118136278113 1 0 0 I I #
coedge $-1 $490 $329 $671 $675 forward $320 $-1 #
vertex $-1 $675 $676 #
straight-curve $-1 -33.94908563286662 -37.114540008250103 -7.3406118136278113 -1 0 0 I I #
edge $-1 $333 2.5925162532468606 $667 6.9036748675150408 $495 $677 forward 7 unknown #
point $-1 -61.299440160178293 -37.114540008250103 -7.3406118136278113 #
point $-1 -61.299440160178293 37.114540008250103 -7.3406118136278113 #
face $-1 $-1 $349 $47 $-1 $678 reversed single #
loop $-1 $-1 $344 $335 #
plane-surface $-1 0 37.114540008250103 0 0 -1 0 0 0 -1 forward_v I I I I #
coedge $-1 $679 $680 $339 $513 forward $336 $-1 #
coedge $-1 $681 $338 $512 $682 forward $204 $-1 #
coedge $-1 $338 $681 $347 $524 reversed $204 $-1 #
coedge $-1 $340 $339 $510 $682 reversed $129 $-1 #
edge $-1 $683 -37.114540008250103 $516 37.114540008250103 $509 $684 forward 7 unknown #
edge $-1 $517 -37.114540008250103 $521 37.114540008250103 $340 $685 forward 7 unknown #
coedge $-1 $341 $519 $679 $686 reversed $507 $-1 #
vertex $-1 $686 $687 #
vertex $-1 $345 $688 #
straight-curve $-1 61.299440160178293 37.114540008250103 -4.7480955603809507 0 0 1 I I #
coedge $-1 $515 $344 $348 $525 forward $507 $-1 #
straight-curve $-1 33.94908563286662 37.114540008250103 -7.3406118136278113 1 0 0 I I #
vertex $-1 $346 $689 #
straight-curve $-1 33.94908563286662 -37.114540008250103 -7.3406118136278113 -1 0 0 I I #
coedge $-1 $348 $347 $690 $691 reversed $349 $-1 #
edge $-1 $351 7.3406118136278113 $692 11.651770427895991 $347 $693 forward 7 unknown #
edge $-1 $350 7.3406118136278113 $694 11.651770427895991 $348 $695 forward 7 unknown #
point $-1 74.496902371288186 37.114540008250103 -7.3406118136278113 #
point $-1 74.496902371288186 -37.114540008250103 -7.3406118136278113 #
plane-surface $-1 0 -37.114540008250103 0 0 1 0 0 0 1 forward_v I I I I #
coedge $-1 $539 $538 $531 $696 forward $354 $-1 #
coedge $-1 $531 $356 $358 $535 reversed $212 $-1 #
coedge $-1 $356 $530 $529 $696 reversed $212 $-1 #
coedge $-1 $364 $359 $356 $533 forward $365 $-1 #
edge $-1 $536 -40.359631512006899 $697 -35.564957492462561 $532 $698 forward 7 unknown #
coedge $-1 $358 $357 $539 $699 reversed $133 $-1 #
edge $-1 $700 -5.9265429581578495 $536 0 $530 $701 forward 7 unknown #
vertex $-1 $360 $702 #
straight-curve $-1 -18.659573343506104 -37.114540008250103 6.857096408351655 1 0 0 I I #
coedge $-1 $529 $361 $364 $543 forward $354 $-1 #
coedge $-1 $361 $529 $534 $699 forward $354 $-1 #
vertex $-1 $362 $703 #
straight-curve $-1 -43.988573293935261 -78.826530660454054 11.65177042789599 0 -1 0 I I #
straight-curve $-1 -43.988573293935261 -37.114540008250103 6.8570964083516515 0 0.5877852410284794 0.80901700255871778 I I #
edge $-1 $366 -43.988573293935261 $697 -30.649720080089153 $364 $704 forward 7 unknown #
point $-1 -43.988573293935261 -37.114540008250103 11.651770427895991 #
point $-1 -43.988573293935261 -37.114540008250103 6.8570964083516515 #
edge $-1 $705 1 $705 0 $369 $-1 forward 7 unknown #
vertex $-1 $370 $706 #
ellipse-curve $-1 -37.319146687012207 -34.563755765128164 8.6666481770953467 0 -0.80901700255871778 0.5877852410284794 0.5 0 0 1 I I #
point $-1 -36.819146687012207 -35.372772767686882 9.2544334181238259 #
loop $-1 $-1 $381 $373 #
plane-surface $-1 0 0 11.651770427895991 0 0 1 1 0 0 forward_v I I I I #
coedge $-1 $553 $376 $378 $557 reversed $227 $-1 #
coedge $-1 $376 $552 $707 $708 reversed $227 $-1 #
coedge $-1 $384 $379 $376 $555 forward $374 $-1 #
edge $-1 $558 -40.359631512006899 $709 -35.564957492462561 $554 $710 forward 7 unknown #
coedge $-1 $378 $377 $561 $711 reversed $142 $-1 #
edge $-1 $712 -5.9265429581578495 $558 0 $552 $713 forward 7 unknown #
vertex $-1 $380 $714 #
straight-curve $-1 -6.2198577811687059 -37.114540008250103 6.857096408351655 1 0 0 I I #
coedge $-1 $707 $381 $384 $565 forward $550 $-1 #
coedge $-1 $381 $707 $556 $711 forward $550 $-1 #
vertex $-1 $382 $715 #
straight-curve $-1 -19.109142169260465 -78.826530660454054 11.65177042789599 0 -1 0 I I #
straight-curve $-1 -19.109142169260465 -37.114540008250103 6.8570964083516515 0 0.5877852410284794 0.80901700255871778 I I #
edge $-1 $385 -19.109142169260465 $709 -5.7702889554143599 $384 $716 forward 7 unknown #
point $-1 -19.109142169260465 -37.114540008250103 11.651770427895991 #
point $-1 -19.109142169260465 -37.114540008250103 6.8570964083516515 #
edge $-1 $717 1 $717 0 $388 $-1 forward 7 unknown #
vertex $-1 $389 $718 #
ellipse-curve $-1 -12.439715562337412 -34.563755765128164 8.6666481770953467 0 -0.80901700255871778 0.5877852410284794 0.5 0 0 1 I I #
point $-1 -11.939715562337412 -35.372772767686882 9.2544334181238259 #
loop $-1 $-1 $400 $392 #
plane-surface $-1 0 0 11.651770427895991 0 0 1 1 0 0 forward_v I I I I #
coedge $-1 $575 $395 $397 $579 reversed $242 $-1 #
coedge $-1 $395 $574 $719 $720 reversed $242 $-1 #
coedge $-1 $403 $398 $395 $577 forward $393 $-1 #
edge $-1 $580 -40.359631512006899 $721 -35.564957492462561 $576 $722 forward 7 unknown #
coedge $-1 $397 $396 $583 $723 reversed $151 $-1 #
edge $-1 $724 -5.9265429581578495 $580 0 $574 $725 forward 7 unknown #
vertex $-1 $399 $726 #
straight-curve $-1 6.2198577811686917 -37.114540008250103 6.857096408351655 1 0 0 I I #
coedge $-1 $719 $400 $403 $587 forward $572 $-1 #
coedge $-1 $400 $719 $578 $723 forward $572 $-1 #
vertex $-1 $401 $727 #
straight-curve $-1 5.7702889554143315 -78.826530660454054 11.65177042789599 0 -1 0 I I #
straight-curve $-1 5.7702889554143315 -37.114540008250103 6.8570964083516515 0 0.5877852410284794 0.80901700255871778 I I #
edge $-1 $404 5.7702889554143315 $721 19.109142169260437 $403 $728 forward 7 unknown #
point $-1 5.7702889554143315 -37.114540008250103 11.651770427895991 #
point $-1 5.7702889554143315 -37.114540008250103 6.8570964083516515 #
edge $-1 $729 1 $729 0 $407 $-1 forward 7 unknown #
vertex $-1 $408 $730 #
ellipse-curve $-1 12.439715562337383 -34.563755765128164 8.6666481770953467 0 -0.80901700255871778 0.5877852410284794 0.5 0 0 1 I I #
point $-1 12.939715562337383 -35.372772767686882 9.2544334181238259 #
loop $-1 $-1 $419 $411 #
plane-surface $-1 0 0 11.651770427895991 0 0 1 1 0 0 forward_v I I I I #
coedge $-1 $597 $414 $416 $601 reversed $257 $-1 #
coedge $-1 $414 $596 $731 $732 reversed $257 $-1 #
coedge $-1 $422 $417 $414 $599 forward $412 $-1 #
edge $-1 $602 -40.359631512006899 $733 -35.564957492462561 $598 $734 forward 7 unknown #
coedge $-1 $416 $415 $605 $735 reversed $160 $-1 #
edge $-1 $736 -5.9265429581578495 $602 0 $596 $737 forward 7 unknown #
vertex $-1 $418 $738 #
straight-curve $-1 18.659573343506089 -37.114540008250103 6.857096408351655 1 0 0 I I #
coedge $-1 $731 $419 $422 $609 forward $594 $-1 #
coedge $-1 $419 $731 $600 $735 forward $594 $-1 #
vertex $-1 $420 $739 #
straight-curve $-1 30.649720080089125 -78.826530660454054 11.65177042789599 0 -1 0 I I #
straight-curve $-1 30.649720080089125 -37.114540008250103 6.8570964083516515 0 0.5877852410284794 0.80901700255871778 I I #
edge $-1 $423 30.649720080089125 $733 43.988573293935232 $422 $740 forward 7 unknown #
point $-1 30.649720080089125 -37.114540008250103 11.651770427895991 #
point $-1 30.649720080089125 -37.114540008250103 6.8570964083516515 #
edge $-1 $741 1 $741 0 $426 $-1 forward 7 unknown #
vertex $-1 $427 $742 #
ellipse-curve $-1 37.319146687012179 -34.563755765128164 8.6666481770953467 0 -0.80901700255871778 0.5877852410284794 0.5 0 0 1 I I #
point $-1 37.819146687012179 -35.372772767686882 9.2544334181238259 #
loop $-1 $-1 $438 $430 #
plane-surface $-1 0 0 11.651770427895991 0 0 1 1 0 0 forward_v I I I I #
coedge $-1 $619 $433 $435 $623 reversed $272 $-1 #
coedge $-1 $433 $618 $743 $744 reversed $272 $-1 #
coedge $-1 $441 $436 $433 $621 forward $431 $-1 #
edge $-1 $624 -78.840021677770096 $745 -74.538044689338008 $620 $746 forward 7 unknown #
coedge $-1 $435 $434 $627 $747 reversed $169 $-1 #
edge $-1 $748 66.535890589703911 $624 74.229080016500177 $618 $749 forward 7 unknown #
vertex $-1 $437 $750 #
straight-curve $-1 15.012743847421895 37.11454000825011 7.3497934394638982 -1 0 0 I I #
coedge $-1 $743 $438 $441 $631 forward $616 $-1 #
coedge $-1 $438 $743 $622 $747 forward $616 $-1 #
vertex $-1 $439 $751 #
straight-curve $-1 48.257801115574452 29.446061709122318 11.651770427895997 0 1 0 I I #
straight-curve $-1 48.257801115574452 -24.424155937745297 48.858168755324158 0 -0.82903756765294845 0.55919291073839883 I I #
edge $-1 $442 -48.257801115574452 $745 -11.793174274113127 $441 $752 forward 7 unknown #
point $-1 48.257801115574452 37.114540008250103 11.651770427895991 #
point $-1 48.257801115574452 37.114540008250103 7.3497934394639017 #
edge $-1 $753 1 $753 0 $445 $-1 forward 7 unknown #
vertex $-1 $446 $754 #
ellipse-curve $-1 19.086099642405387 31.772145885919752 6.3082017024497317 0 0.55919291073839883 0.82903756765294845 1 0 0 1 I I #
point $-1 20.086099642405387 33.925568483307799 9.5007819336799244 #
edge $-1 $755 1 $755 0 $449 $-1 forward 7 unknown #
vertex $-1 $450 $756 #
ellipse-curve $-1 30.02548769484379 31.772145885919752 6.3082017024497317 0 0.55919291073839883 0.82903756765294845 1 0 0 1 I I #
point $-1 31.02548769484379 33.925568483307799 9.5007819336799244 #
edge $-1 $757 1 $757 0 $453 $-1 forward 7 unknown #
vertex $-1 $454 $758 #
ellipse-curve $-1 40.964875747282193 31.772145885919752 6.3082017024497317 0 0.55919291073839883 0.82903756765294845 1 0 0 1 I I #
point $-1 41.964875747282193 33.925568483307799 9.5007819336799244 #
plane-surface $-1 74.496902371288186 0 0 -1 0 0 0 0 1 forward_v I I I I #
coedge $-1 $462 $460 $464 $651 reversed $301 $-1 #
edge $-1 $475 -11.651770427895991 $653 11.651770427895991 $474 $759 forward 7 unknown #
vertex $-1 $651 $760 #
straight-curve $-1 -74.496902371288186 -37.114540008250103 0 0 0 -1 I I #
edge $-1 $649 -37.114540008250103 $653 37.114540008250103 $647 $761 forward 7 unknown #
straight-curve $-1 0 -37.114540008250103 -11.651770427895991 -1 0 0 I I #
vertex $-1 $467 $762 #
straight-curve $-1 0 37.114540008250103 -11.651770427895991 1 0 0 I I #
point $-1 74.496902371288186 37.114540008250103 -11.651770427895991 #
point $-1 74.496902371288186 -37.114540008250103 -11.651770427895991 #
straight-curve $-1 -74.496902371288186 0 11.651770427895991 0 -1 0 I I #
point $-1 -74.496902371288186 37.114540008250103 11.651770427895991 #
point $-1 -74.496902371288186 -37.114540008250103 11.651770427895991 #
straight-curve $-1 74.496902371288186 -37.114540008250103 0 0 0 -1 I I #
straight-curve $-1 74.496902371288186 37.114540008250103 0 0 0 -1 I I #
plane-surface $-1 0 37.114540008250103 0 0 -1 0 0 0 -1 forward_v I I I I #
coedge $-1 $488 $487 $763 $764 forward $196 $-1 #
edge $-1 $491 61.299440160178293 $765 74.496902371288186 $490 $766 forward 7 unknown #
coedge $-1 $496 $495 $488 $666 reversed $497 $-1 #
edge $-1 $767 -74.496902371288186 $667 -61.299440160178293 $665 $768 forward 7 unknown #
vertex $-1 $503 $769 #
straight-curve $-1 -61.299440160178293 0 -11.651770427895991 0 -1 0 I I #
point $-1 -61.299440160178293 -37.114540008250103 -11.651770427895991 #
coedge $-1 $763 $493 $496 $673 forward $485 $-1 #
coedge $-1 $493 $763 $500 $675 reversed $485 $-1 #
straight-curve $-1 -74.496902371288186 0 -7.3406118136278113 0 1 0 I I #
edge $-1 $498 7.3406118136278113 $767 11.651770427895991 $496 $770 forward 7 unknown #
point $-1 -74.496902371288186 37.114540008250103 -7.3406118136278113 #
edge $-1 $501 7.3406118136278113 $765 11.651770427895991 $671 $771 forward 7 unknown #
point $-1 -74.496902371288186 -37.114540008250103 -7.3406118136278113 #
straight-curve $-1 -61.299440160178293 37.114540008250103 -4.7480955603809507 0 0 -1 I I #
plane-surface $-1 74.496902371288186 0 0 -1 0 0 0 0 1 forward_v I I I I #
coedge $-1 $690 $509 $515 $686 forward $336 $-1 #
coedge $-1 $509 $690 $681 $772 forward $336 $-1 #
coedge $-1 $511 $510 $680 $772 reversed $204 $-1 #
edge $-1 $521 2.5925162532468606 $683 6.9036748675150408 $510 $773 forward 7 unknown #
vertex $-1 $513 $774 #
straight-curve $-1 61.299440160178293 0 -11.651770427895991 0 1 0 I I #
straight-curve $-1 61.299440160178293 0 -7.3406118136278113 0 -1 0 I I #
edge $-1 $516 61.299440160178293 $694 74.496902371288186 $515 $775 forward 7 unknown #
point $-1 61.299440160178293 37.114540008250103 -11.651770427895991 #
point $-1 61.299440160178293 37.114540008250103 -7.3406118136278113 #
point $-1 61.299440160178293 -37.114540008250103 -7.3406118136278113 #
coedge $-1 $680 $679 $523 $691 forward $336 $-1 #
edge $-1 $694 -37.114540008250103 $692 37.114540008250103 $523 $776 forward 7 unknown #
vertex $-1 $524 $777 #
straight-curve $-1 74.496902371288186 -37.114540008250103 0 0 0 -1 I I #
vertex $-1 $691 $778 #
straight-curve $-1 74.496902371288186 37.114540008250103 0 0 0 -1 I I #
edge $-1 $697 41.711990652203951 $700 45.195525133330399 $529 $779 forward 7 unknown #
vertex $-1 $696 $780 #
straight-curve $-1 -30.649720080089153 -37.114540008250103 47.216727920358551 0 0 1 I I #
edge $-1 $700 11.99014673658305 $540 25.328999950429157 $539 $781 forward 7 unknown #
vertex $-1 $699 $782 #
straight-curve $-1 -30.649720080089153 -37.114540008250103 6.8570964083516515 0 -0.5877852410284794 -0.80901700255871778 I I #
point $-1 -30.649720080089153 -37.114540008250103 6.8570964083516515 #
point $-1 -43.988573293935261 -33.631005527123655 11.651770427895991 #
straight-curve $-1 0 -37.114540008250103 11.651770427895991 1 0 0 I I #
vertex $-1 $546 $783 #
point $-1 -36.819146687012207 -34.563755765128164 8.6666481770953467 #
coedge $-1 $561 $560 $553 $708 forward $550 $-1 #
edge $-1 $709 41.711990652203951 $712 45.195525133330399 $707 $784 forward 7 unknown #
vertex $-1 $708 $785 #
straight-curve $-1 -5.7702889554143599 -37.114540008250103 47.216727920358551 0 0 1 I I #
edge $-1 $712 -0.44956882575434598 $562 12.88928438809176 $561 $786 forward 7 unknown #
vertex $-1 $711 $787 #
straight-curve $-1 -5.7702889554143599 -37.114540008250103 6.8570964083516515 0 -0.5877852410284794 -0.80901700255871778 I I #
point $-1 -5.7702889554143599 -37.114540008250103 6.8570964083516515 #
point $-1 -19.109142169260465 -33.631005527123655 11.651770427895991 #
straight-curve $-1 0 -37.114540008250103 11.651770427895991 1 0 0 I I #
vertex $-1 $568 $788 #
point $-1 -11.939715562337412 -34.563755765128164 8.6666481770953467 #
coedge $-1 $583 $582 $575 $720 forward $572 $-1 #
edge $-1 $721 41.711990652203951 $724 45.195525133330399 $719 $789 forward 7 unknown #
vertex $-1 $720 $790 #
straight-curve $-1 19.109142169260437 -37.114540008250103 47.216727920358551 0 0 1 I I #
edge $-1 $724 -12.889284388091745 $584 0.44956882575436019 $583 $791 forward 7 unknown #
vertex $-1 $723 $792 #
straight-curve $-1 19.109142169260437 -37.114540008250103 6.8570964083516515 0 -0.5877852410284794 -0.80901700255871778 I I #
point $-1 19.109142169260437 -37.114540008250103 6.8570964083516515 #
point $-1 5.7702889554143315 -33.631005527123655 11.651770427895991 #
straight-curve $-1 0 -37.114540008250103 11.651770427895991 1 0 0 I I #
vertex $-1 $590 $793 #
point $-1 12.939715562337383 -34.563755765128164 8.6666481770953467 #
coedge $-1 $605 $604 $597 $732 forward $594 $-1 #
edge $-1 $733 41.711990652203951 $736 45.195525133330399 $731 $794 forward 7 unknown #
vertex $-1 $732 $795 #
straight-curve $-1 43.988573293935232 -37.114540008250103 47.216727920358551 0 0 1 I I #
edge $-1 $736 -25.328999950429143 $606 -11.990146736583036 $605 $796 forward 7 unknown #
vertex $-1 $735 $797 #
straight-curve $-1 43.988573293935232 -37.114540008250103 6.8570964083516515 0 -0.5877852410284794 -0.80901700255871778 I I #
point $-1 43.988573293935232 -37.114540008250103 6.8570964083516515 #
point $-1 30.649720080089125 -33.631005527123655 11.651770427895991 #
straight-curve $-1 0 -37.114540008250103 11.651770427895991 1 0 0 I I #
vertex $-1 $612 $798 #
point $-1 37.819146687012179 -34.563755765128164 8.6666481770953467 #
coedge $-1 $627 $626 $619 $744 forward $616 $-1 #
edge $-1 $745 -7.6684782991277842 $748 -1.2905352492432129 $743 $799 forward 7 unknown #
vertex $-1 $744 $800 #
straight-curve $-1 11.793174274113127 37.114540008250103 86.189815117234005 0 0 1 I I #
edge $-1 $748 -3.2195695733087675 $628 33.245057268152557 $627 $801 forward 7 unknown #
vertex $-1 $747 $802 #
straight-curve $-1 11.793174274113127 -24.424155937745297 48.858168755324158 0 0.82903756765294845 -0.55919291073839883 I I #
point $-1 11.793174274113127 37.114540008250103 7.3497934394639017 #
point $-1 48.257801115574452 30.736596958365531 11.65177042789599 #
straight-curve $-1 0 37.114540008250103 11.651770427895991 -1 0 0 I I #
vertex $-1 $634 $803 #
point $-1 20.086099642405387 31.772145885919752 6.3082017024497317 #
vertex $-1 $638 $804 #
point $-1 31.02548769484379 31.772145885919752 6.3082017024497317 #
vertex $-1 $642 $805 #
point $-1 41.964875747282193 31.772145885919752 6.3082017024497317 #
straight-curve $-1 -74.496902371288186 37.114540008250103 0 0 0 -1 I I #
point $-1 -74.496902371288186 -37.114540008250103 -11.651770427895991 #
straight-curve $-1 -74.496902371288186 0 -11.651770427895991 0 1 0 I I #
point $-1 -74.496902371288186 37.114540008250103 -11.651770427895991 #
coedge $-1 $671 $670 $663 $764 reversed $485 $-1 #
edge $-1 $765 -37.114540008250103 $767 37.114540008250103 $763 $806 forward 7 unknown #
vertex $-1 $764 $807 #
straight-curve $-1 0 -37.114540008250103 -11.651770427895991 -1 0 0 I I #
vertex $-1 $666 $808 #
straight-curve $-1 0 37.114540008250103 -11.651770427895991 1 0 0 I I #
point $-1 -61.299440160178293 37.114540008250103 -11.651770427895991 #
straight-curve $-1 -74.496902371288186 37.114540008250103 0 0 0 -1 I I #
straight-curve $-1 -74.496902371288186 -37.114540008250103 0 0 0 -1 I I #
edge $-1 $692 -74.496902371288186 $683 -61.299440160178293 $681 $809 forward 7 unknown #
straight-curve $-1 61.299440160178293 -37.114540008250103 -4.7480955603809507 0 0 -1 I I #
point $-1 61.299440160178293 -37.114540008250103 -11.651770427895991 #
straight-curve $-1 0 37.114540008250103 -11.651770427895991 1 0 0 I I #
straight-curve $-1 74.496902371288186 0 -11.651770427895991 0 -1 0 I I #
point $-1 74.496902371288186 -37.114540008250103 -11.651770427895991 #
point $-1 74.496902371288186 37.114540008250103 -11.651770427895991 #
straight-curve $-1 -30.649720080089153 -78.826530660454054 11.65177042789599 0 1 0 I I #
point $-1 -30.649720080089153 -37.114540008250103 11.651770427895991 #
straight-curve $-1 -18.659573343506104 -33.631005527123655 11.651770427895991 -1 0 0 I I #
point $-1 -30.649720080089153 -33.631005527123655 11.651770427895991 #
point $-1 -37.319146687012207 -34.159247263848812 8.372755556581108 #
straight-curve $-1 -5.7702889554143599 -78.826530660454054 11.65177042789599 0 1 0 I I #
point $-1 -5.7702889554143599 -37.114540008250103 11.651770427895991 #
straight-curve $-1 -6.2198577811687059 -33.631005527123655 11.651770427895991 -1 0 0 I I #
point $-1 -5.7702889554143599 -33.631005527123655 11.651770427895991 #
point $-1 -12.439715562337412 -34.159247263848812 8.372755556581108 #
straight-curve $-1 19.109142169260437 -78.826530660454054 11.65177042789599 0 1 0 I I #
point $-1 19.109142169260437 -37.114540008250103 11.651770427895991 #
straight-curve $-1 6.2198577811686917 -33.631005527123655 11.651770427895991 -1 0 0 I I #
point $-1 19.109142169260437 -33.631005527123655 11.651770427895991 #
point $-1 12.439715562337383 -34.159247263848812 8.372755556581108 #
straight-curve $-1 43.988573293935232 -78.826530660454054 11.65177042789599 0 1 0 I I #
point $-1 43.988573293935232 -37.114540008250103 11.651770427895991 #
straight-curve $-1 18.659573343506089 -33.631005527123655 11.651770427895991 -1 0 0 I I #
point $-1 43.988573293935232 -33.631005527123655 11.651770427895991 #
point $-1 37.319146687012179 -34.159247263848812 8.372755556581108 #
straight-curve $-1 11.793174274113127 29.446061709122318 11.651770427895997 0 -1 0 I I #
point $-1 11.793174274113127 37.114540008250103 11.651770427895991 #
straight-curve $-1 15.012743847421895 30.736596958365531 11.65177042789599 1 0 0 I I #
point $-1 11.793174274113127 30.736596958365531 11.65177042789599 #
point $-1 19.086099642405387 31.212952975181356 5.4791641347967834 #
point $-1 30.02548769484379 31.212952975181356 5.4791641347967834 #
point $-1 40.964875747282193 31.212952975181356 5.4791641347967834 #
straight-curve $-1 -74.496902371288186 0 -11.651770427895991 0 1 0 I I #
point $-1 -74.496902371288186 -37.114540008250103 -11.651770427895991 #
point $-1 -74.496902371288186 37.114540008250103 -11.651770427895991 #
straight-curve $-1 0 -37.114540008250103 -11.651770427895991 -1 0 0 I I #
End-of-ACIS-data 