500 0 6 0           
7 Unknown 11 ACIS 5.0 NT 24 Fri Mar 26 02:09:52 1999 
-1 9.9999999999999995e-007 1e-010 
body $-1 $6 $-1 $7 #
body $-1 $8 $-1 $9 #
body $-1 $10 $-1 $11 #
body $-1 $12 $-1 $13 #
body $-1 $14 $-1 $15 #
body $-1 $16 $-1 $17 #
lump $-1 $-1 $18 $0 #
transform $-1 1 0 0 0 1 0 0 0 1 54.994354075746941 37.94068325560275 16.027787889056196 1 rotate no_reflect no_shear #
lump $-1 $-1 $19 $1 #
transform $-1 1 0 0 0 1 0 0 0 1 54.994354075746941 37.94068325560275 16.027787889056196 1 rotate no_reflect no_shear #
lump $-1 $-1 $20 $2 #
transform $-1 1 0 0 0 1 0 0 0 1 54.994354075746941 37.94068325560275 16.027787889056196 1 rotate no_reflect no_shear #
lump $-1 $-1 $21 $3 #
transform $-1 1 0 0 0 1 0 0 0 1 54.994354075746941 37.94068325560275 16.027787889056196 1 rotate no_reflect no_shear #
lump $-1 $-1 $22 $4 #
transform $-1 1 0 0 0 1 0 0 0 1 54.994354075746941 37.94068325560275 16.027787889056196 1 rotate no_reflect no_shear #
lump $-1 $-1 $23 $5 #
transform $-1 1 0 0 0 1 0 0 0 1 54.994354075746941 37.94068325560275 16.027787889056196 1 rotate no_reflect no_shear #
shell $-1 $-1 $-1 $24 $-1 $6 #
shell $-1 $-1 $-1 $25 $-1 $8 #
shell $-1 $-1 $-1 $26 $-1 $10 #
shell $-1 $-1 $-1 $27 $-1 $12 #
shell $-1 $-1 $-1 $28 $-1 $14 #
shell $-1 $-1 $-1 $29 $-1 $16 #
face $-1 $30 $31 $18 $-1 $32 forward single #
face $-1 $33 $34 $19 $-1 $35 forward single #
face $-1 $36 $37 $20 $-1 $38 reversed single #
face $-1 $39 $40 $21 $-1 $41 forward single #
face $-1 $42 $43 $22 $-1 $44 reversed single #
face $-1 $45 $46 $23 $-1 $47 forward single #
face $-1 $48 $49 $18 $-1 $50 reversed single #
loop $-1 $-1 $51 $24 #
plane-surface $-1 0 0 16.027787889056196 0 0 1 1 0 0 forward_v I I I I #
face $-1 $52 $53 $19 $-1 $54 reversed single #
loop $-1 $-1 $55 $25 #
plane-surface $-1 -46.64276965223182 0 6.1561086041364277 0 0 1 1 0 0 forward_v I I I I #
face $-1 $56 $57 $20 $-1 $58 reversed single #
loop $-1 $-1 $59 $26 #
plane-surface $-1 -21.870234317276356 -111.53749511877909 93.566994170014411 1 0 0 0 0.66913061440640931 -0.74314481823134659 forward_v I I I I #
face $-1 $60 $61 $21 $-1 $62 forward single #
loop $-1 $63 $64 $27 #
cone-surface $-1 -10.533452003841965 -35.192808885098259 13.466035832601124 0 0.66913061440640931 -0.74314481823134659 0.5 0 0 1 I I 0 1 0.5 forward I I I I #
face $-1 $65 $66 $22 $-1 $67 reversed single #
loop $-1 $-1 $68 $28 #
plane-surface $-1 15.899838537437823 -111.53749511877909 93.566994170014411 1 0 0 0 0.66913061440640931 -0.74314481823134659 forward_v I I I I #
face $-1 $69 $70 $23 $-1 $71 forward single #
loop $-1 $72 $73 $29 #
cone-surface $-1 27.236620850872214 -35.192808885098259 13.466035832601124 0 0.66913061440640931 -0.74314481823134659 0.5 0 0 1 I I 0 1 0.5 forward I I I I #
face $-1 $74 $75 $18 $-1 $76 reversed single #
loop $-1 $-1 $77 $30 #
plane-surface $-1 0 0 -16.027787889056196 0 0 1 1 0 0 forward_v I I I I #
coedge $-1 $78 $79 $80 $81 forward $31 $-1 #
face $-1 $82 $83 $19 $-1 $84 reversed single #
loop $-1 $-1 $85 $33 #
plane-surface $-1 -46.64276965223182 0 0.071252627627096388 0 0 1 1 0 0 forward_v I I I I #
coedge $-1 $86 $87 $88 $89 forward $34 $-1 #
face $-1 $90 $91 $20 $-1 $92 reversed single #
loop $-1 $-1 $93 $36 #
plane-surface $-1 -10.533452003841965 -37.94068325560275 11.829455643271857 0 -0.66913061440640931 0.74314481823134659 1 0 0 forward_v I I I I #
coedge $-1 $94 $95 $96 $97 reversed $37 $-1 #
face $-1 $-1 $98 $21 $-1 $99 forward single #
loop $-1 $100 $101 $39 #
cone-surface $-1 -10.533452003841965 -34.609011977010731 12.817663694480384 0 0.66913061440640931 -0.74314481823134659 0.25 0 0 1 I I -0.70710678118654746 0.70710678118654746 0.25 forward I I I I #
loop $-1 $-1 $102 $27 #
coedge $-1 $64 $64 $103 $104 reversed $40 $-1 #
face $-1 $105 $106 $22 $-1 $107 reversed single #
loop $-1 $-1 $108 $42 #
plane-surface $-1 27.236620850872214 -37.94068325560275 11.829455643271857 0 -0.66913061440640931 0.74314481823134659 1 0 0 forward_v I I I I #
coedge $-1 $109 $110 $111 $112 reversed $43 $-1 #
face $-1 $-1 $113 $23 $-1 $114 forward single #
loop $-1 $115 $116 $45 #
cone-surface $-1 27.236620850872214 -34.609011977010731 12.817663694480384 0 0.66913061440640931 -0.74314481823134659 0.25 0 0 1 I I -0.70710678118654746 0.70710678118654746 0.25 forward I I I I #
loop $-1 $-1 $117 $29 #
coedge $-1 $73 $73 $118 $119 reversed $46 $-1 #
face $-1 $120 $121 $18 $-1 $122 reversed single #
loop $-1 $-1 $123 $48 #
plane-surface $-1 0 -37.94068325560275 0 0 1 0 0 0 1 forward_v I I I I #
coedge $-1 $124 $125 $126 $127 forward $49 $-1 #
coedge $-1 $128 $51 $129 $130 forward $31 $-1 #
coedge $-1 $51 $128 $131 $132 forward $31 $-1 #
coedge $-1 $133 $134 $51 $81 reversed $135 $-1 #
edge $-1 $136 -37.94068325560275 $137 37.94068325560275 $80 $138 forward 7 unknown #
face $-1 $139 $140 $19 $-1 $141 reversed single #
loop $-1 $-1 $142 $52 #
plane-surface $-1 -38.291185228716699 0 3.113680615881762 -1 0 0 0 0 1 forward_v I I I I #
coedge $-1 $143 $144 $145 $146 forward $53 $-1 #
coedge $-1 $147 $55 $148 $149 reversed $34 $-1 #
coedge $-1 $55 $147 $150 $151 reversed $34 $-1 #
coedge $-1 $142 $152 $55 $89 reversed $83 $-1 #
edge $-1 $153 -37.94068325560275 $154 37.94068325560275 $88 $155 forward 7 unknown #
face $-1 $156 $157 $20 $-1 $158 forward single #
loop $-1 $-1 $159 $56 #
plane-surface $-1 0.80333030959242535 -111.53749511877909 93.566994170014411 -1 0 0 0 -0.66913061440640931 0.74314481823134659 forward_v I I I I #
coedge $-1 $160 $161 $162 $163 reversed $57 $-1 #
coedge $-1 $95 $59 $164 $165 reversed $37 $-1 #
coedge $-1 $59 $94 $160 $166 reversed $37 $-1 #
coedge $-1 $162 $167 $59 $97 forward $168 $-1 #
edge $-1 $169 30.75570919595101 $170 34.954041441735349 $96 $171 forward 7 unknown #
loop $-1 $-1 $103 $60 #
plane-surface $-1 -10.533452003841965 -37.94068325560275 11.829455643271857 0 -0.66913061440640931 0.74314481823134659 1 0 0 forward_v I I I I #
loop $-1 $-1 $172 $39 #
coedge $-1 $101 $101 $102 $173 reversed $61 $-1 #
coedge $-1 $102 $102 $101 $173 forward $63 $-1 #
coedge $-1 $103 $103 $64 $104 forward $98 $-1 #
edge $-1 $174 4.7544589734116678e-015 $174 6.2831853071796049 $103 $175 forward 7 unknown #
face $-1 $176 $177 $22 $-1 $178 reversed single #
loop $-1 $-1 $179 $65 #
plane-surface $-1 38.573403164306605 -111.53749511877909 93.566994170014411 -1 0 0 0 -0.66913061440640931 0.74314481823134659 forward_v I I I I #
coedge $-1 $180 $181 $182 $183 reversed $66 $-1 #
coedge $-1 $110 $68 $184 $185 reversed $43 $-1 #
coedge $-1 $68 $109 $180 $186 reversed $43 $-1 #
coedge $-1 $182 $187 $68 $112 forward $177 $-1 #
edge $-1 $188 30.75570919595101 $189 34.954041441735349 $111 $190 forward 7 unknown #
loop $-1 $-1 $118 $69 #
plane-surface $-1 27.236620850872214 -37.94068325560275 11.829455643271857 0 -0.66913061440640931 0.74314481823134659 1 0 0 forward_v I I I I #
loop $-1 $-1 $191 $45 #
coedge $-1 $116 $116 $117 $192 reversed $70 $-1 #
coedge $-1 $117 $117 $116 $192 forward $72 $-1 #
coedge $-1 $118 $118 $73 $119 forward $113 $-1 #
edge $-1 $193 4.7544589734116678e-015 $193 6.2831853071796049 $118 $194 forward 7 unknown #
face $-1 $195 $196 $18 $-1 $197 reversed single #
loop $-1 $-1 $198 $74 #
plane-surface $-1 -54.994354075746941 0 0 1 0 0 0 0 -1 forward_v I I I I #
coedge $-1 $199 $131 $200 $201 forward $75 $-1 #
coedge $-1 $202 $77 $199 $203 forward $49 $-1 #
coedge $-1 $77 $202 $204 $205 forward $49 $-1 #
coedge $-1 $134 $133 $77 $127 reversed $135 $-1 #
edge $-1 $206 -37.94068325560275 $207 37.94068325560275 $126 $208 forward 7 unknown #
coedge $-1 $79 $78 $209 $210 forward $31 $-1 #
coedge $-1 $211 $212 $78 $130 reversed $196 $-1 #
edge $-1 $137 -54.994354075746941 $213 54.994354075746941 $129 $214 forward 7 unknown #
coedge $-1 $123 $215 $79 $132 reversed $75 $-1 #
edge $-1 $216 -54.994354075746941 $136 54.994354075746941 $131 $217 forward 7 unknown #
coedge $-1 $126 $80 $215 $218 forward $135 $-1 #
coedge $-1 $80 $126 $211 $219 reversed $135 $-1 #
loop $-1 $-1 $133 $195 #
vertex $-1 $81 $220 #
vertex $-1 $81 $221 #
straight-curve $-1 54.994354075746941 0 16.027787889056196 0 1 0 I I #
face $-1 $222 $223 $19 $-1 $224 reversed single #
loop $-1 $-1 $225 $82 #
plane-surface $-1 0 -37.94068325560275 0 0 1 0 0 0 1 forward_v I I I I #
coedge $-1 $145 $88 $226 $227 reversed $83 $-1 #
coedge $-1 $228 $85 $225 $229 reversed $53 $-1 #
coedge $-1 $85 $228 $230 $231 reversed $53 $-1 #
coedge $-1 $152 $142 $85 $146 reversed $83 $-1 #
edge $-1 $232 -37.94068325560275 $233 37.94068325560275 $145 $234 forward 7 unknown #
coedge $-1 $87 $86 $235 $236 reversed $34 $-1 #
coedge $-1 $237 $238 $86 $149 forward $239 $-1 #
edge $-1 $240 -31.672969249631031 $154 -14.969800402600789 $148 $241 forward 7 unknown #
coedge $-1 $242 $226 $87 $151 forward $140 $-1 #
edge $-1 $153 14.969800402600789 $243 31.672969249631031 $150 $244 forward 7 unknown #
coedge $-1 $88 $145 $237 $245 reversed $83 $-1 #
vertex $-1 $151 $246 #
vertex $-1 $149 $247 #
straight-curve $-1 -38.291185228716699 0 6.1561086041364277 0 1 0 I I #
face $-1 $-1 $168 $20 $-1 $248 reversed single #
loop $-1 $-1 $249 $90 #
plane-surface $-1 0 0 16.027787889056196 0 0 1 1 0 0 forward_v I I I I #
coedge $-1 $250 $251 $252 $253 reversed $91 $-1 #
coedge $-1 $254 $93 $95 $166 forward $57 $-1 #
coedge $-1 $93 $254 $250 $255 forward $57 $-1 #
coedge $-1 $252 $96 $93 $163 forward $168 $-1 #
edge $-1 $170 -16.603508315355374 $256 6.0700563115134081 $162 $257 forward 7 unknown #
coedge $-1 $258 $259 $94 $165 forward $157 $-1 #
edge $-1 $260 -22.490784535823934 $169 -17.828064303786796 $164 $261 forward 7 unknown #
edge $-1 $170 0 $260 6.2743090144047766 $95 $262 forward 7 unknown #
coedge $-1 $96 $252 $258 $263 reversed $168 $-1 #
loop $-1 $-1 $252 $156 #
vertex $-1 $263 $264 #
vertex $-1 $97 $265 #
straight-curve $-1 -21.870234317276356 -37.94068325560275 46.783497085007205 0 0 -1 I I #
coedge $-1 $172 $172 $-1 $266 reversed $100 $-1 #
edge $-1 $267 0 $267 6.2831853071796004 $101 $268 forward 7 unknown #
vertex $-1 $104 $269 #
ellipse-curve $-1 -10.533452003841965 -35.609323139584184 13.928621766164024 0 -0.66913061440640931 0.74314481823134659 0.5 0 0 1 I I #
face $-1 $-1 $270 $22 $-1 $271 forward single #
loop $-1 $-1 $111 $105 #
plane-surface $-1 0 -37.94068325560275 0 0 1 0 0 0 1 forward_v I I I I #
coedge $-1 $272 $273 $274 $275 reversed $106 $-1 #
coedge $-1 $276 $108 $110 $186 forward $66 $-1 #
coedge $-1 $108 $276 $272 $277 forward $66 $-1 #
coedge $-1 $274 $111 $108 $183 forward $177 $-1 #
edge $-1 $189 2.2815281120017161 $278 24.955092738870498 $182 $279 forward 7 unknown #
coedge $-1 $280 $281 $109 $185 forward $270 $-1 #
edge $-1 $282 -22.490784535823934 $188 -17.828064303786796 $184 $283 forward 7 unknown #
edge $-1 $189 0 $282 6.2743090144047766 $110 $284 forward 7 unknown #
coedge $-1 $111 $274 $280 $285 reversed $177 $-1 #
vertex $-1 $285 $286 #
vertex $-1 $112 $287 #
straight-curve $-1 15.899838537437823 -37.94068325560275 46.783497085007205 0 0 -1 I I #
coedge $-1 $191 $191 $-1 $288 reversed $115 $-1 #
edge $-1 $289 0 $289 6.2831853071796004 $116 $290 forward 7 unknown #
vertex $-1 $119 $291 #
ellipse-curve $-1 27.236620850872214 -35.609323139584184 13.928621766164024 0 -0.66913061440640931 0.74314481823134659 0.5 0 0 1 I I #
face $-1 $-1 $135 $18 $-1 $292 reversed single #
loop $-1 $-1 $211 $120 #
plane-surface $-1 0 37.94068325560275 0 0 -1 0 0 0 -1 forward_v I I I I #
coedge $-1 $293 $209 $212 $294 forward $121 $-1 #
coedge $-1 $215 $123 $124 $203 reversed $75 $-1 #
coedge $-1 $209 $293 $123 $201 reversed $121 $-1 #
edge $-1 $216 -16.027787889056196 $295 16.027787889056196 $200 $296 forward 7 unknown #
coedge $-1 $125 $124 $293 $297 forward $49 $-1 #
edge $-1 $207 -54.994354075746941 $295 54.994354075746941 $199 $298 forward 7 unknown #
coedge $-1 $212 $211 $125 $205 reversed $196 $-1 #
edge $-1 $299 -54.994354075746941 $206 54.994354075746941 $204 $300 forward 7 unknown #
vertex $-1 $127 $301 #
vertex $-1 $218 $302 #
straight-curve $-1 54.994354075746941 0 -16.027787889056196 0 -1 0 I I #
coedge $-1 $198 $200 $128 $210 reversed $121 $-1 #
edge $-1 $213 -37.94068325560275 $216 37.94068325560275 $209 $303 forward 7 unknown #
coedge $-1 $204 $129 $134 $219 forward $196 $-1 #
coedge $-1 $129 $204 $198 $294 reversed $196 $-1 #
vertex $-1 $130 $304 #
straight-curve $-1 0 37.94068325560275 16.027787889056196 -1 0 0 I I #
coedge $-1 $131 $199 $133 $218 reversed $75 $-1 #
vertex $-1 $210 $305 #
straight-curve $-1 0 -37.94068325560275 16.027787889056196 1 0 0 I I #
edge $-1 $136 -16.027787889056196 $207 16.027787889056196 $133 $306 forward 7 unknown #
edge $-1 $137 -16.027787889056196 $206 16.027787889056196 $134 $307 forward 7 unknown #
point $-1 54.994354075746941 -37.94068325560275 16.027787889056196 #
point $-1 54.994354075746941 37.94068325560275 16.027787889056196 #
face $-1 $-1 $239 $19 $-1 $308 reversed single #
loop $-1 $-1 $309 $139 #
plane-surface $-1 -54.994354075746941 0 0 1 0 0 0 0 -1 forward_v I I I I #
coedge $-1 $226 $242 $143 $229 forward $140 $-1 #
coedge $-1 $150 $225 $142 $227 forward $140 $-1 #
edge $-1 $233 -1.4855876803137846 $153 4.5992682961955467 $226 $310 forward 7 unknown #
coedge $-1 $144 $143 $309 $311 reversed $53 $-1 #
edge $-1 $312 -31.672969249631031 $233 -14.969800402600789 $225 $313 forward 7 unknown #
coedge $-1 $238 $237 $144 $231 forward $239 $-1 #
edge $-1 $232 14.969800402600789 $314 31.672969249631031 $230 $315 forward 7 unknown #
vertex $-1 $231 $316 #
vertex $-1 $229 $317 #
straight-curve $-1 -38.291185228716699 0 0.071252627627096388 0 -1 0 I I #
coedge $-1 $318 $319 $147 $236 forward $223 $-1 #
edge $-1 $243 -37.94068325560275 $240 37.94068325560275 $235 $320 forward 7 unknown #
coedge $-1 $230 $148 $152 $245 forward $239 $-1 #
coedge $-1 $148 $230 $318 $321 reversed $239 $-1 #
loop $-1 $-1 $230 $222 #
vertex $-1 $321 $322 #
straight-curve $-1 -23.32138482611591 37.94068325560275 6.1561086041364277 1 0 0 I I #
coedge $-1 $225 $150 $319 $323 forward $140 $-1 #
vertex $-1 $323 $324 #
straight-curve $-1 -23.32138482611591 -37.94068325560275 6.1561086041364277 -1 0 0 I I #
edge $-1 $154 -4.5992682961955467 $232 1.4855876803137846 $237 $325 forward 7 unknown #
point $-1 -38.291185228716699 -37.94068325560275 6.1561086041364277 #
point $-1 -38.291185228716699 37.94068325560275 6.1561086041364277 #
plane-surface $-1 0 -37.94068325560275 0 0 1 0 0 0 1 forward_v I I I I #
coedge $-1 $259 $258 $251 $326 forward $157 $-1 #
coedge $-1 $251 $159 $161 $255 reversed $91 $-1 #
coedge $-1 $159 $250 $249 $326 reversed $91 $-1 #
coedge $-1 $167 $162 $159 $253 forward $168 $-1 #
edge $-1 $256 -34.954041441735349 $327 -30.75570919595101 $252 $328 forward 7 unknown #
coedge $-1 $161 $160 $259 $329 reversed $57 $-1 #
edge $-1 $330 -6.2743090144047766 $256 0 $250 $331 forward 7 unknown #
vertex $-1 $163 $332 #
straight-curve $-1 -5.2667260019209827 -37.94068325560275 11.829455643271857 1 0 0 I I #
coedge $-1 $249 $164 $167 $263 forward $157 $-1 #
coedge $-1 $164 $249 $254 $329 forward $157 $-1 #
vertex $-1 $165 $333 #
straight-curve $-1 -21.870234317276356 -55.768747559389546 16.027787889056199 0 -1 0 I I #
straight-curve $-1 -21.870234317276356 -37.94068325560275 11.829455643271857 0 0.74314481823134659 0.66913061440640931 I I #
edge $-1 $169 -21.870234317276356 $327 0.80333030959242535 $167 $334 forward 7 unknown #
point $-1 -21.870234317276356 -37.94068325560275 16.027787889056196 #
point $-1 -21.870234317276356 -37.94068325560275 11.829455643271857 #
edge $-1 $335 1 $335 0 $172 $-1 forward 7 unknown #
vertex $-1 $173 $336 #
ellipse-curve $-1 -10.533452003841965 -34.776294630612334 13.00344989903822 0 -0.66913061440640931 0.74314481823134659 0.5 0 0 1 I I #
point $-1 -10.033452003841965 -35.609323139584184 13.928621766164028 #
loop $-1 $-1 $184 $176 #
plane-surface $-1 0 0 16.027787889056196 0 0 1 1 0 0 forward_v I I I I #
coedge $-1 $273 $179 $181 $277 reversed $106 $-1 #
coedge $-1 $179 $272 $337 $338 reversed $106 $-1 #
coedge $-1 $187 $182 $179 $275 forward $177 $-1 #
edge $-1 $278 -34.954041441735349 $339 -30.75570919595101 $274 $340 forward 7 unknown #
coedge $-1 $181 $180 $281 $341 reversed $66 $-1 #
edge $-1 $342 -6.2743090144047766 $278 0 $272 $343 forward 7 unknown #
vertex $-1 $183 $344 #
straight-curve $-1 13.618310425436107 -37.94068325560275 11.829455643271857 1 0 0 I I #
coedge $-1 $337 $184 $187 $285 forward $270 $-1 #
coedge $-1 $184 $337 $276 $341 forward $270 $-1 #
vertex $-1 $185 $345 #
straight-curve $-1 15.899838537437823 -55.768747559389546 16.027787889056199 0 -1 0 I I #
straight-curve $-1 15.899838537437823 -37.94068325560275 11.829455643271857 0 0.74314481823134659 0.66913061440640931 I I #
edge $-1 $188 15.899838537437823 $339 38.573403164306605 $187 $346 forward 7 unknown #
point $-1 15.899838537437823 -37.94068325560275 16.027787889056196 #
point $-1 15.899838537437823 -37.94068325560275 11.829455643271857 #
edge $-1 $347 1 $347 0 $191 $-1 forward 7 unknown #
vertex $-1 $192 $348 #
ellipse-curve $-1 27.236620850872214 -34.776294630612334 13.00344989903822 0 -0.66913061440640931 0.74314481823134659 0.5 0 0 1 I I #
point $-1 27.736620850872214 -35.609323139584184 13.928621766164028 #
plane-surface $-1 54.994354075746941 0 0 -1 0 0 0 0 1 forward_v I I I I #
coedge $-1 $200 $198 $202 $297 reversed $121 $-1 #
edge $-1 $213 -16.027787889056196 $299 16.027787889056196 $212 $349 forward 7 unknown #
vertex $-1 $297 $350 #
straight-curve $-1 -54.994354075746941 -37.94068325560275 0 0 0 -1 I I #
edge $-1 $295 -37.94068325560275 $299 37.94068325560275 $293 $351 forward 7 unknown #
straight-curve $-1 0 -37.94068325560275 -16.027787889056196 -1 0 0 I I #
vertex $-1 $205 $352 #
straight-curve $-1 0 37.94068325560275 -16.027787889056196 1 0 0 I I #
point $-1 54.994354075746941 37.94068325560275 -16.027787889056196 #
point $-1 54.994354075746941 -37.94068325560275 -16.027787889056196 #
straight-curve $-1 -54.994354075746941 0 16.027787889056196 0 -1 0 I I #
point $-1 -54.994354075746941 37.94068325560275 16.027787889056196 #
point $-1 -54.994354075746941 -37.94068325560275 16.027787889056196 #
straight-curve $-1 54.994354075746941 -37.94068325560275 0 0 0 -1 I I #
straight-curve $-1 54.994354075746941 37.94068325560275 0 0 0 -1 I I #
plane-surface $-1 0 37.94068325560275 0 0 -1 0 0 0 -1 forward_v I I I I #
coedge $-1 $319 $318 $228 $311 forward $223 $-1 #
straight-curve $-1 -38.291185228716699 -37.94068325560275 1.556840307940881 0 0 1 I I #
edge $-1 $314 -37.94068325560275 $312 37.94068325560275 $309 $353 forward 7 unknown #
vertex $-1 $229 $354 #
straight-curve $-1 -23.32138482611591 -37.94068325560275 0.071252627627096388 1 0 0 I I #
vertex $-1 $231 $355 #
straight-curve $-1 -23.32138482611591 37.94068325560275 0.071252627627096388 -1 0 0 I I #
point $-1 -38.291185228716699 37.94068325560275 0.071252627627096388 #
point $-1 -38.291185228716699 -37.94068325560275 0.071252627627096388 #
coedge $-1 $309 $235 $238 $321 forward $223 $-1 #
coedge $-1 $235 $309 $242 $323 reversed $223 $-1 #
straight-curve $-1 -54.994354075746941 0 6.1561086041364277 0 1 0 I I #
edge $-1 $240 -6.1561086041364277 $314 -0.071252627627096388 $238 $356 forward 7 unknown #
point $-1 -54.994354075746941 37.94068325560275 6.1561086041364277 #
edge $-1 $243 -6.1561086041364277 $312 -0.071252627627096388 $319 $357 forward 7 unknown #
point $-1 -54.994354075746941 -37.94068325560275 6.1561086041364277 #
straight-curve $-1 -38.291185228716699 37.94068325560275 1.556840307940881 0 0 -1 I I #
edge $-1 $327 17.828064303786796 $330 22.490784535823934 $249 $358 forward 7 unknown #
vertex $-1 $326 $359 #
straight-curve $-1 0.80333030959242535 -37.94068325560275 46.783497085007205 0 0 1 I I #
edge $-1 $330 -6.0700563115134081 $260 16.603508315355374 $259 $360 forward 7 unknown #
vertex $-1 $329 $361 #
straight-curve $-1 0.80333030959242535 -37.94068325560275 11.829455643271857 0 -0.74314481823134659 -0.66913061440640931 I I #
point $-1 0.80333030959242535 -37.94068325560275 11.829455643271857 #
point $-1 -21.870234317276356 -33.277963023565611 16.027787889056196 #
straight-curve $-1 0 -37.94068325560275 16.027787889056196 1 0 0 I I #
vertex $-1 $266 $362 #
point $-1 -10.033452003841965 -34.776294630612334 13.00344989903822 #
coedge $-1 $281 $280 $273 $338 forward $270 $-1 #
edge $-1 $339 17.828064303786796 $342 22.490784535823934 $337 $363 forward 7 unknown #
vertex $-1 $338 $364 #
straight-curve $-1 38.573403164306605 -37.94068325560275 46.783497085007205 0 0 1 I I #
edge $-1 $342 -24.955092738870498 $282 -2.2815281120017161 $281 $365 forward 7 unknown #
vertex $-1 $341 $366 #
straight-curve $-1 38.573403164306605 -37.94068325560275 11.829455643271857 0 -0.74314481823134659 -0.66913061440640931 I I #
point $-1 38.573403164306605 -37.94068325560275 11.829455643271857 #
point $-1 15.899838537437823 -33.277963023565611 16.027787889056196 #
straight-curve $-1 0 -37.94068325560275 16.027787889056196 1 0 0 I I #
vertex $-1 $288 $367 #
point $-1 27.736620850872214 -34.776294630612334 13.00344989903822 #
straight-curve $-1 -54.994354075746941 37.94068325560275 0 0 0 -1 I I #
point $-1 -54.994354075746941 -37.94068325560275 -16.027787889056196 #
straight-curve $-1 -54.994354075746941 0 -16.027787889056196 0 1 0 I I #
point $-1 -54.994354075746941 37.94068325560275 -16.027787889056196 #
straight-curve $-1 -54.994354075746941 0 0.071252627627096388 0 -1 0 I I #
point $-1 -54.994354075746941 -37.94068325560275 0.071252627627096388 #
point $-1 -54.994354075746941 37.94068325560275 0.071252627627096388 #
straight-curve $-1 -54.994354075746941 37.94068325560275 0 0 0 -1 I I #
straight-curve $-1 -54.994354075746941 -37.94068325560275 0 0 0 -1 I I #
straight-curve $-1 0.80333030959242535 -55.768747559389546 16.027787889056199 0 1 0 I I #
point $-1 0.80333030959242535 -37.94068325560275 16.027787889056196 #
straight-curve $-1 -5.2667260019209827 -33.277963023565611 16.027787889056192 -1 0 0 I I #
point $-1 0.80333030959242535 -33.277963023565611 16.027787889056196 #
point $-1 -10.533452003841965 -34.441729323409128 12.631877489922548 #
straight-curve $-1 38.573403164306605 -55.768747559389546 16.027787889056199 0 1 0 I I #
point $-1 38.573403164306605 -37.94068325560275 16.027787889056196 #
straight-curve $-1 13.618310425436107 -33.277963023565611 16.027787889056192 -1 0 0 I I #
point $-1 38.573403164306605 -33.277963023565611 16.027787889056196 #
point $-1 27.236620850872214 -34.441729323409128 12.631877489922548 #
End-of-ACIS-data 