500 0 7 0           
7 Unknown 11 ACIS 5.0 NT 24 Fri Mar 26 01:11:50 1999 
-1 9.9999999999999995e-007 1e-010 
body $-1 $7 $-1 $8 #
body $-1 $9 $-1 $10 #
body $-1 $11 $-1 $12 #
body $-1 $13 $-1 $14 #
body $-1 $15 $-1 $16 #
body $-1 $17 $-1 $18 #
body $-1 $19 $-1 $20 #
lump $-1 $-1 $21 $0 #
transform $-1 1 0 0 0 1 0 0 0 1 50.243232520523698 34.825259336615559 8.819132647154218 1 rotate no_reflect no_shear #
lump $-1 $-1 $22 $1 #
transform $-1 1 0 0 0 1 0 0 0 1 50.243232520523698 34.825259336615559 8.819132647154218 1 rotate no_reflect no_shear #
lump $-1 $-1 $23 $2 #
transform $-1 1 0 0 0 1 0 0 0 1 50.243232520523698 34.825259336615559 8.819132647154218 1 rotate no_reflect no_shear #
lump $-1 $-1 $24 $3 #
transform $-1 1 0 0 0 1 0 0 0 1 50.243232520523698 34.825259336615559 8.819132647154218 1 rotate no_reflect no_shear #
lump $-1 $-1 $25 $4 #
transform $-1 1 0 0 0 1 0 0 0 1 50.243232520523698 34.825259336615559 8.819132647154218 1 rotate no_reflect no_shear #
lump $-1 $-1 $26 $5 #
transform $-1 1 0 0 0 1 0 0 0 1 50.243232520523698 34.825259336615559 8.819132647154218 1 rotate no_reflect no_shear #
lump $-1 $-1 $27 $6 #
transform $-1 1 0 0 0 1 0 0 0 1 50.243232520523698 34.825259336615559 8.819132647154218 1 rotate no_reflect no_shear #
shell $-1 $-1 $-1 $28 $-1 $7 #
shell $-1 $-1 $-1 $29 $-1 $9 #
shell $-1 $-1 $-1 $30 $-1 $11 #
shell $-1 $-1 $-1 $31 $-1 $13 #
shell $-1 $-1 $-1 $32 $-1 $15 #
shell $-1 $-1 $-1 $33 $-1 $17 #
shell $-1 $-1 $-1 $34 $-1 $19 #
face $-1 $35 $36 $21 $-1 $37 forward single #
face $-1 $38 $39 $22 $-1 $40 forward single #
face $-1 $41 $42 $23 $-1 $43 reversed single #
face $-1 $44 $45 $24 $-1 $46 forward single #
face $-1 $47 $48 $25 $-1 $49 forward single #
face $-1 $50 $51 $26 $-1 $52 reversed single #
face $-1 $53 $54 $27 $-1 $55 forward single #
face $-1 $56 $57 $21 $-1 $58 reversed single #
loop $-1 $-1 $59 $28 #
plane-surface $-1 0 0 8.819132647154218 0 0 1 1 0 0 forward_v I I I I #
face $-1 $60 $61 $22 $-1 $62 reversed single #
loop $-1 $-1 $63 $29 #
plane-surface $-1 -46.459655859861435 0 -4.6582848659897564 0 0 1 1 0 0 forward_v I I I I #
face $-1 $64 $65 $23 $-1 $66 reversed single #
loop $-1 $-1 $67 $30 #
plane-surface $-1 -9.2760834128540246 46.06132247184614 124.64481218024207 1 0 0 0 -0.64278761758704617 -0.76604443648966558 forward_v I I I I #
face $-1 $68 $69 $24 $-1 $70 forward single #
loop $-1 $71 $72 $31 #
cone-surface $-1 -1.4786376895048221 30.716895449939315 5.1673950996185294 0 -0.64278761758704617 -0.76604443648966558 1.5 0 0 1 I I 0 1 1.5 forward I I I I #
face $-1 $73 $74 $25 $-1 $75 forward single #
loop $-1 $76 $77 $32 #
cone-surface $-1 10.217530895518969 30.716895449939315 5.1673950996185294 0 -0.64278761758704617 -0.76604443648966558 1.5 0 0 1 I I 0 1 1.5 forward I I I I #
face $-1 $78 $79 $26 $-1 $80 reversed single #
loop $-1 $-1 $81 $33 #
plane-surface $-1 11.690880638754006 -116.12051808184512 62.00821371438461 -1 0 0 0 -0.80901700255871778 0.5877852410284794 forward_v I I I I #
face $-1 $82 $83 $27 $-1 $84 forward single #
loop $-1 $85 $86 $34 #
cone-surface $-1 -2.0124988585696144 -31.571446047176991 5.0681098172983035 0 0.80901700255871778 -0.5877852410284794 1.5 0 0 1 I I 0 1 1.5 forward I I I I #
face $-1 $87 $88 $21 $-1 $89 reversed single #
loop $-1 $-1 $90 $35 #
plane-surface $-1 0 0 -8.819132647154218 0 0 1 1 0 0 forward_v I I I I #
coedge $-1 $91 $92 $93 $94 forward $36 $-1 #
face $-1 $95 $96 $22 $-1 $97 reversed single #
loop $-1 $-1 $98 $38 #
plane-surface $-1 -42.676079199199172 0 -6.7387087565719872 -1 0 0 0 0 1 forward_v I I I I #
coedge $-1 $99 $100 $101 $102 forward $39 $-1 #
face $-1 $103 $104 $23 $-1 $105 reversed single #
loop $-1 $-1 $106 $41 #
plane-surface $-1 4.36944660300707 -18.530132991632712 47.667714693034441 0 0.64278761758704617 0.76604443648966558 1 0 0 forward_v I I I I #
coedge $-1 $107 $108 $109 $110 reversed $42 $-1 #
face $-1 $-1 $111 $24 $-1 $112 forward single #
loop $-1 $113 $114 $44 #
cone-surface $-1 -1.4786376895048221 29.655168888866783 3.902078682609643 0 -0.64278761758704617 -0.76604443648966558 0.75 0 0 1 I I -0.70710678118654757 0.70710678118654757 0.75 forward I I I I #
loop $-1 $-1 $115 $31 #
coedge $-1 $72 $72 $116 $117 reversed $45 $-1 #
face $-1 $-1 $118 $25 $-1 $119 forward single #
loop $-1 $120 $121 $47 #
cone-surface $-1 10.217530895518969 29.655168888866783 3.902078682609643 0 -0.64278761758704617 -0.76604443648966558 0.75 0 0 1 I I -0.70710678118654757 0.70710678118654757 0.75 forward I I I I #
loop $-1 $-1 $122 $32 #
coedge $-1 $77 $77 $123 $124 reversed $48 $-1 #
face $-1 $125 $126 $26 $-1 $127 reversed single #
loop $-1 $-1 $128 $50 #
plane-surface $-1 -2.0124988585696073 -34.825259336615574 2.9437526401327005 0 -0.80901700255871778 0.5877852410284794 1 0 0 forward_v I I I I #
coedge $-1 $129 $130 $131 $132 reversed $51 $-1 #
face $-1 $-1 $133 $27 $-1 $134 forward single #
loop $-1 $135 $136 $53 #
cone-surface $-1 -2.0124988585696144 -29.845226664974021 3.8139380601817869 0 0.80901700255871778 -0.5877852410284794 0.75 0 0 1 I I -0.70710678118654757 0.70710678118654757 0.75 forward I I I I #
loop $-1 $-1 $137 $34 #
coedge $-1 $86 $86 $138 $139 reversed $54 $-1 #
face $-1 $140 $141 $21 $-1 $142 reversed single #
loop $-1 $-1 $143 $56 #
plane-surface $-1 0 -34.825259336615559 0 0 1 0 0 0 1 forward_v I I I I #
coedge $-1 $144 $145 $146 $147 forward $57 $-1 #
coedge $-1 $148 $59 $149 $150 forward $36 $-1 #
coedge $-1 $59 $148 $151 $152 forward $36 $-1 #
coedge $-1 $153 $154 $59 $94 reversed $155 $-1 #
edge $-1 $156 -34.825259336615559 $157 34.825259336615559 $93 $158 forward 7 unknown #
face $-1 $159 $160 $22 $-1 $161 reversed single #
loop $-1 $-1 $162 $60 #
plane-surface $-1 0 0 -8.819132647154218 0 0 1 1 0 0 forward_v I I I I #
coedge $-1 $163 $101 $164 $165 reversed $61 $-1 #
coedge $-1 $166 $63 $167 $168 reversed $39 $-1 #
coedge $-1 $63 $166 $169 $170 reversed $39 $-1 #
coedge $-1 $98 $171 $63 $102 reversed $61 $-1 #
edge $-1 $172 -34.825259336615559 $173 34.825259336615559 $101 $174 forward 7 unknown #
face $-1 $175 $176 $23 $-1 $177 reversed single #
loop $-1 $-1 $178 $64 #
plane-surface $-1 18.014976618868165 46.06132247184614 124.64481218024207 -1 0 0 0 0.64278761758704617 0.76604443648966558 forward_v I I I I #
coedge $-1 $179 $180 $181 $182 reversed $65 $-1 #
coedge $-1 $108 $67 $183 $184 reversed $42 $-1 #
coedge $-1 $67 $107 $179 $185 reversed $42 $-1 #
coedge $-1 $181 $186 $67 $110 forward $187 $-1 #
edge $-1 $188 -11.79459810069249 $189 -4.7371420231044894 $109 $190 forward 7 unknown #
loop $-1 $-1 $116 $68 #
plane-surface $-1 4.36944660300707 -18.530132991632712 47.667714693034441 0 0.64278761758704617 0.76604443648966558 1 0 0 forward_v I I I I #
loop $-1 $-1 $191 $44 #
coedge $-1 $114 $114 $115 $192 reversed $69 $-1 #
coedge $-1 $115 $115 $114 $192 forward $71 $-1 #
coedge $-1 $116 $116 $72 $117 forward $111 $-1 #
edge $-1 $193 1.0531442448688763e-015 $193 6.2831853071796013 $116 $194 forward 7 unknown #
loop $-1 $-1 $123 $73 #
plane-surface $-1 4.36944660300707 -18.530132991632712 47.667714693034441 0 0.64278761758704617 0.76604443648966558 1 0 0 forward_v I I I I #
loop $-1 $-1 $195 $47 #
coedge $-1 $121 $121 $122 $196 reversed $74 $-1 #
coedge $-1 $122 $122 $121 $196 forward $76 $-1 #
coedge $-1 $123 $123 $77 $124 forward $118 $-1 #
edge $-1 $197 1.0531442448688763e-015 $197 6.2831853071796013 $123 $198 forward 7 unknown #
face $-1 $199 $200 $26 $-1 $201 forward single #
loop $-1 $-1 $202 $78 #
plane-surface $-1 -15.715878355893221 -116.12051808184512 62.00821371438461 1 0 0 0 0.80901700255871778 -0.5877852410284794 forward_v I I I I #
coedge $-1 $203 $204 $205 $206 reversed $79 $-1 #
coedge $-1 $130 $81 $207 $208 reversed $51 $-1 #
coedge $-1 $81 $129 $203 $209 reversed $51 $-1 #
coedge $-1 $205 $210 $81 $132 forward $200 $-1 #
edge $-1 $211 23.234999704307 $212 27.503713022616267 $131 $213 forward 7 unknown #
loop $-1 $-1 $138 $82 #
plane-surface $-1 -2.0124988585696073 -34.825259336615574 2.9437526401327005 0 -0.80901700255871778 0.5877852410284794 1 0 0 forward_v I I I I #
loop $-1 $-1 $214 $53 #
coedge $-1 $136 $136 $137 $215 reversed $83 $-1 #
coedge $-1 $137 $137 $136 $215 forward $85 $-1 #
coedge $-1 $138 $138 $86 $139 forward $133 $-1 #
edge $-1 $216 -8.9895550040632195e-017 $216 6.2831853071796004 $138 $217 forward 7 unknown #
face $-1 $218 $219 $21 $-1 $220 reversed single #
loop $-1 $-1 $221 $87 #
plane-surface $-1 -50.243232520523698 0 0 1 0 0 0 0 -1 forward_v I I I I #
coedge $-1 $222 $151 $223 $224 forward $88 $-1 #
coedge $-1 $225 $90 $222 $226 forward $57 $-1 #
coedge $-1 $90 $225 $227 $228 forward $57 $-1 #
coedge $-1 $154 $153 $90 $147 reversed $155 $-1 #
edge $-1 $229 -34.825259336615559 $230 34.825259336615559 $146 $231 forward 7 unknown #
coedge $-1 $92 $91 $232 $233 forward $36 $-1 #
coedge $-1 $234 $235 $91 $150 reversed $219 $-1 #
edge $-1 $157 -50.243232520523698 $236 50.243232520523698 $149 $237 forward 7 unknown #
coedge $-1 $143 $238 $92 $152 reversed $88 $-1 #
edge $-1 $239 -50.243232520523698 $156 50.243232520523698 $151 $240 forward 7 unknown #
coedge $-1 $146 $93 $238 $241 forward $155 $-1 #
coedge $-1 $93 $146 $234 $242 reversed $155 $-1 #
loop $-1 $-1 $153 $218 #
vertex $-1 $94 $243 #
vertex $-1 $94 $244 #
straight-curve $-1 50.243232520523698 0 8.819132647154218 0 1 0 I I #
face $-1 $245 $246 $22 $-1 $247 reversed single #
loop $-1 $-1 $164 $95 #
plane-surface $-1 0 -34.825259336615559 0 0 1 0 0 0 1 forward_v I I I I #
coedge $-1 $248 $249 $163 $250 forward $96 $-1 #
coedge $-1 $171 $98 $162 $250 reversed $61 $-1 #
coedge $-1 $169 $251 $98 $165 forward $160 $-1 #
edge $-1 $252 -5.4497782688682239 $172 -1.2889304877037628 $164 $253 forward 7 unknown #
coedge $-1 $100 $99 $254 $255 reversed $39 $-1 #
coedge $-1 $256 $257 $99 $168 forward $258 $-1 #
edge $-1 $259 -27.01340459059298 $173 -19.446251269268455 $167 $260 forward 7 unknown #
coedge $-1 $261 $164 $100 $170 forward $160 $-1 #
edge $-1 $172 19.446251269268455 $262 27.01340459059298 $169 $263 forward 7 unknown #
coedge $-1 $101 $163 $256 $264 reversed $61 $-1 #
vertex $-1 $170 $265 #
vertex $-1 $168 $266 #
straight-curve $-1 -42.676079199199172 0 -4.6582848659897564 0 1 0 I I #
face $-1 $-1 $187 $23 $-1 $267 forward single #
loop $-1 $-1 $268 $103 #
plane-surface $-1 0 34.825259336615559 0 0 -1 0 0 0 -1 forward_v I I I I #
coedge $-1 $269 $270 $271 $272 reversed $104 $-1 #
coedge $-1 $273 $106 $108 $185 forward $65 $-1 #
coedge $-1 $106 $273 $269 $274 forward $65 $-1 #
coedge $-1 $271 $109 $106 $182 forward $187 $-1 #
edge $-1 $189 -11.46080671435756 $275 15.83025331736463 $181 $276 forward 7 unknown #
coedge $-1 $277 $278 $107 $184 forward $176 $-1 #
edge $-1 $279 -59.425182358754903 $188 -53.503273442966815 $183 $280 forward 7 unknown #
edge $-1 $189 60.437663985677752 $279 69.650518673231133 $108 $281 forward 7 unknown #
coedge $-1 $109 $271 $277 $282 forward $187 $-1 #
loop $-1 $-1 $271 $175 #
vertex $-1 $184 $283 #
vertex $-1 $110 $284 #
straight-curve $-1 -9.2760834128540246 23.03066123592307 8.8191326471542197 0 -1 0 I I #
coedge $-1 $191 $191 $-1 $285 reversed $113 $-1 #
edge $-1 $286 0 $286 6.2831853071796004 $114 $287 forward 7 unknown #
vertex $-1 $117 $288 #
ellipse-curve $-1 -1.4786376895048221 31.296531297821563 5.8581781892601654 0 0.64278761758704617 0.76604443648966558 1.5 0 0 1 I I #
coedge $-1 $195 $195 $-1 $289 reversed $120 $-1 #
edge $-1 $290 0 $290 6.2831853071796004 $121 $291 forward 7 unknown #
vertex $-1 $124 $292 #
ellipse-curve $-1 10.217530895518969 31.296531297821563 5.8581781892601654 0 0.64278761758704617 0.76604443648966558 1.5 0 0 1 I I #
face $-1 $-1 $293 $26 $-1 $294 reversed single #
loop $-1 $-1 $131 $125 #
plane-surface $-1 0 0 8.819132647154218 0 0 1 1 0 0 forward_v I I I I #
coedge $-1 $295 $296 $297 $298 reversed $126 $-1 #
coedge $-1 $299 $128 $130 $209 forward $79 $-1 #
coedge $-1 $128 $299 $295 $300 forward $79 $-1 #
coedge $-1 $297 $131 $128 $206 forward $200 $-1 #
edge $-1 $212 -12.69713006803881 $301 14.709628926608417 $205 $302 forward 7 unknown #
coedge $-1 $303 $304 $129 $208 forward $293 $-1 #
edge $-1 $305 -28.060354217059583 $211 -22.184974210038085 $207 $306 forward 7 unknown #
edge $-1 $212 -7.262369008857867 $305 -2.4161062406544664e-014 $130 $307 forward 7 unknown #
coedge $-1 $131 $297 $303 $308 forward $200 $-1 #
vertex $-1 $132 $309 #
vertex $-1 $132 $310 #
straight-curve $-1 11.690880638754006 -58.06025904092256 8.8191326471542197 0 1 0 I I #
coedge $-1 $214 $214 $-1 $311 reversed $135 $-1 #
edge $-1 $312 0 $312 6.2831853071796004 $136 $313 forward 7 unknown #
vertex $-1 $139 $314 #
ellipse-curve $-1 -2.0124988585696144 -32.690902677460926 5.8814426436434664 0 -0.80901700255871778 0.5877852410284794 1.5 0 0 1 I I #
face $-1 $-1 $155 $21 $-1 $315 reversed single #
loop $-1 $-1 $234 $140 #
plane-surface $-1 0 34.825259336615559 0 0 -1 0 0 0 -1 forward_v I I I I #
coedge $-1 $316 $232 $235 $317 forward $141 $-1 #
coedge $-1 $238 $143 $144 $226 reversed $88 $-1 #
coedge $-1 $232 $316 $143 $224 reversed $141 $-1 #
edge $-1 $239 -8.819132647154218 $318 8.819132647154218 $223 $319 forward 7 unknown #
coedge $-1 $145 $144 $316 $320 forward $57 $-1 #
edge $-1 $230 -50.243232520523698 $318 50.243232520523698 $222 $321 forward 7 unknown #
coedge $-1 $235 $234 $145 $228 reversed $219 $-1 #
edge $-1 $322 -50.243232520523698 $229 50.243232520523698 $227 $323 forward 7 unknown #
vertex $-1 $147 $324 #
vertex $-1 $241 $325 #
straight-curve $-1 50.243232520523698 0 -8.819132647154218 0 -1 0 I I #
coedge $-1 $221 $223 $148 $233 reversed $141 $-1 #
edge $-1 $236 -34.825259336615559 $239 34.825259336615559 $232 $326 forward 7 unknown #
coedge $-1 $227 $149 $154 $242 forward $219 $-1 #
coedge $-1 $149 $227 $221 $317 reversed $219 $-1 #
vertex $-1 $150 $327 #
straight-curve $-1 0 34.825259336615559 8.819132647154218 -1 0 0 I I #
coedge $-1 $151 $222 $153 $241 reversed $88 $-1 #
vertex $-1 $233 $328 #
straight-curve $-1 0 -34.825259336615559 8.819132647154218 1 0 0 I I #
edge $-1 $156 -8.819132647154218 $230 8.819132647154218 $153 $329 forward 7 unknown #
edge $-1 $157 -8.819132647154218 $229 8.819132647154218 $154 $330 forward 7 unknown #
point $-1 50.243232520523698 -34.825259336615559 8.819132647154218 #
point $-1 50.243232520523698 34.825259336615559 8.819132647154218 #
face $-1 $-1 $258 $22 $-1 $331 reversed single #
loop $-1 $-1 $254 $159 #
plane-surface $-1 -50.243232520523698 0 0 1 0 0 0 0 -1 forward_v I I I I #
coedge $-1 $332 $162 $251 $333 forward $96 $-1 #
coedge $-1 $162 $332 $334 $335 forward $96 $-1 #
edge $-1 $336 -34.825259336615559 $252 34.825259336615559 $162 $337 forward 7 unknown #
coedge $-1 $164 $261 $248 $333 reversed $160 $-1 #
vertex $-1 $333 $338 #
straight-curve $-1 -42.676079199199172 -34.825259336615559 -3.3693543782859936 0 0 1 I I #
coedge $-1 $339 $340 $166 $255 forward $246 $-1 #
edge $-1 $262 -34.825259336615559 $259 34.825259336615559 $254 $341 forward 7 unknown #
coedge $-1 $334 $167 $171 $264 forward $258 $-1 #
coedge $-1 $167 $334 $339 $342 reversed $258 $-1 #
loop $-1 $-1 $256 $245 #
vertex $-1 $342 $343 #
straight-curve $-1 -23.229827929930718 34.825259336615559 -4.6582848659897564 1 0 0 I I #
coedge $-1 $251 $169 $340 $344 forward $160 $-1 #
vertex $-1 $344 $345 #
straight-curve $-1 -23.229827929930718 -34.825259336615559 -4.6582848659897564 -1 0 0 I I #
edge $-1 $173 1.2889304877037628 $336 5.4497782688682239 $256 $346 forward 7 unknown #
point $-1 -42.676079199199172 -34.825259336615559 -4.6582848659897564 #
point $-1 -42.676079199199172 34.825259336615559 -4.6582848659897564 #
plane-surface $-1 0 0 8.819132647154218 0 0 1 1 0 0 forward_v I I I I #
coedge $-1 $278 $277 $270 $347 forward $176 $-1 #
coedge $-1 $270 $178 $180 $274 reversed $104 $-1 #
coedge $-1 $178 $269 $268 $347 reversed $104 $-1 #
coedge $-1 $186 $181 $178 $272 forward $187 $-1 #
edge $-1 $275 4.7371420231044894 $348 11.79459810069249 $271 $349 forward 7 unknown #
coedge $-1 $180 $179 $278 $350 reversed $65 $-1 #
edge $-1 $351 -69.650518673231133 $275 -60.437663985677752 $269 $352 forward 7 unknown #
vertex $-1 $182 $353 #
straight-curve $-1 2.184723301503535 27.767803259027556 8.8191326471542233 1 0 0 I I #
coedge $-1 $268 $183 $186 $282 reversed $176 $-1 #
coedge $-1 $183 $268 $273 $350 forward $176 $-1 #
vertex $-1 $184 $354 #
straight-curve $-1 -9.2760834128540246 34.825259336615559 62.322406090121035 0 0 1 I I #
straight-curve $-1 -9.2760834128540246 -18.530132991632712 47.667714693034441 0 0.76604443648966558 -0.64278761758704617 I I #
edge $-1 $348 -18.014976618868165 $188 9.2760834128540246 $277 $355 forward 7 unknown #
point $-1 -9.2760834128540246 34.825259336615559 8.819132647154218 #
point $-1 -9.2760834128540246 27.767803259027559 8.8191326471542197 #
edge $-1 $356 1 $356 0 $191 $-1 forward 7 unknown #
vertex $-1 $192 $357 #
ellipse-curve $-1 -1.4786376895048221 30.137259602057068 4.4766120099768925 0 0.64278761758704617 0.76604443648966558 1.5 0 0 1 I I #
point $-1 0.021362310495177894 31.296531297821566 5.8581781892601672 #
edge $-1 $358 1 $358 0 $195 $-1 forward 7 unknown #
vertex $-1 $196 $359 #
ellipse-curve $-1 10.217530895518969 30.137259602057068 4.4766120099768925 0 0.64278761758704617 0.76604443648966558 1.5 0 0 1 I I #
point $-1 11.717530895518969 31.296531297821566 5.8581781892601672 #
loop $-1 $-1 $207 $199 #
plane-surface $-1 0 -34.825259336615559 0 0 1 0 0 0 1 forward_v I I I I #
coedge $-1 $296 $202 $204 $300 reversed $126 $-1 #
coedge $-1 $202 $295 $360 $361 reversed $126 $-1 #
coedge $-1 $210 $205 $202 $298 forward $200 $-1 #
edge $-1 $301 -27.503713022616267 $362 -23.234999704307 $297 $363 forward 7 unknown #
coedge $-1 $204 $203 $304 $364 reversed $79 $-1 #
edge $-1 $365 2.4161062406544664e-014 $301 7.262369008857867 $295 $366 forward 7 unknown #
vertex $-1 $206 $367 #
straight-curve $-1 -1.0062494292848037 -30.556546018306296 8.819132647154218 -1 0 0 I I #
coedge $-1 $360 $207 $210 $308 reversed $293 $-1 #
coedge $-1 $207 $360 $299 $364 forward $293 $-1 #
vertex $-1 $208 $368 #
straight-curve $-1 11.690880638754006 -34.825259336615559 31.004106857192305 0 0 1 I I #
straight-curve $-1 11.690880638754006 -34.825259336615574 2.9437526401327005 0 -0.5877852410284794 -0.80901700255871778 I I #
edge $-1 $362 -15.715878355893221 $211 11.690880638754006 $303 $369 forward 7 unknown #
point $-1 11.690880638754006 -34.825259336615559 8.819132647154218 #
point $-1 11.690880638754006 -30.556546018306292 8.819132647154218 #
edge $-1 $370 1 $370 0 $214 $-1 forward 7 unknown #
vertex $-1 $215 $371 #
ellipse-curve $-1 -2.0124988585696144 -30.45198941689306 4.2547769909531468 0 -0.80901700255871778 0.5877852410284794 1.5 0 0 1 I I #
point $-1 -0.51249885856961441 -32.690902677460919 5.881442643643461 #
plane-surface $-1 50.243232520523698 0 0 -1 0 0 0 0 1 forward_v I I I I #
coedge $-1 $223 $221 $225 $320 reversed $141 $-1 #
edge $-1 $236 -8.819132647154218 $322 8.819132647154218 $235 $372 forward 7 unknown #
vertex $-1 $320 $373 #
straight-curve $-1 -50.243232520523698 -34.825259336615559 0 0 0 -1 I I #
edge $-1 $318 -34.825259336615559 $322 34.825259336615559 $316 $374 forward 7 unknown #
straight-curve $-1 0 -34.825259336615559 -8.819132647154218 -1 0 0 I I #
vertex $-1 $228 $375 #
straight-curve $-1 0 34.825259336615559 -8.819132647154218 1 0 0 I I #
point $-1 50.243232520523698 34.825259336615559 -8.819132647154218 #
point $-1 50.243232520523698 -34.825259336615559 -8.819132647154218 #
straight-curve $-1 -50.243232520523698 0 8.819132647154218 0 -1 0 I I #
point $-1 -50.243232520523698 34.825259336615559 8.819132647154218 #
point $-1 -50.243232520523698 -34.825259336615559 8.819132647154218 #
straight-curve $-1 50.243232520523698 -34.825259336615559 0 0 0 -1 I I #
straight-curve $-1 50.243232520523698 34.825259336615559 0 0 0 -1 I I #
plane-surface $-1 0 34.825259336615559 0 0 -1 0 0 0 -1 forward_v I I I I #
coedge $-1 $249 $248 $376 $377 forward $96 $-1 #
edge $-1 $252 42.676079199199172 $378 50.243232520523698 $251 $379 forward 7 unknown #
coedge $-1 $257 $256 $249 $335 reversed $258 $-1 #
edge $-1 $380 -50.243232520523698 $336 -42.676079199199172 $334 $381 forward 7 unknown #
vertex $-1 $264 $382 #
straight-curve $-1 -42.676079199199172 0 -8.819132647154218 0 -1 0 I I #
point $-1 -42.676079199199172 -34.825259336615559 -8.819132647154218 #
coedge $-1 $376 $254 $257 $342 forward $246 $-1 #
coedge $-1 $254 $376 $261 $344 reversed $246 $-1 #
straight-curve $-1 -50.243232520523698 0 -4.6582848659897564 0 1 0 I I #
edge $-1 $259 4.6582848659897564 $380 8.819132647154218 $257 $383 forward 7 unknown #
point $-1 -50.243232520523698 34.825259336615559 -4.6582848659897564 #
edge $-1 $262 4.6582848659897564 $378 8.819132647154218 $340 $384 forward 7 unknown #
point $-1 -50.243232520523698 -34.825259336615559 -4.6582848659897564 #
straight-curve $-1 -42.676079199199172 34.825259336615559 -3.3693543782859936 0 0 -1 I I #
edge $-1 $348 53.503273442966815 $351 59.425182358754903 $268 $385 forward 7 unknown #
vertex $-1 $282 $386 #
straight-curve $-1 18.014976618868165 23.03066123592307 8.8191326471542197 0 1 0 I I #
edge $-1 $351 -15.83025331736463 $279 11.46080671435756 $278 $387 forward 7 unknown #
vertex $-1 $350 $388 #
straight-curve $-1 18.014976618868165 -18.530132991632712 47.667714693034441 0 -0.76604443648966558 0.64278761758704617 I I #
point $-1 18.014976618868165 27.767803259027559 8.8191326471542197 #
point $-1 -9.2760834128540246 34.825259336615559 2.8972237313661324 #
straight-curve $-1 0 34.825259336615559 8.819132647154218 -1 0 0 I I #
vertex $-1 $285 $389 #
point $-1 0.021362310495177894 30.137259602057068 4.4766120099768925 #
vertex $-1 $289 $390 #
point $-1 11.717530895518969 30.137259602057068 4.4766120099768925 #
coedge $-1 $304 $303 $296 $361 forward $293 $-1 #
edge $-1 $362 22.184974210038085 $365 28.060354217059583 $360 $391 forward 7 unknown #
vertex $-1 $308 $392 #
straight-curve $-1 -15.715878355893221 -58.06025904092256 8.8191326471542197 0 -1 0 I I #
edge $-1 $365 -14.709628926608417 $305 12.69713006803881 $304 $393 forward 7 unknown #
vertex $-1 $364 $394 #
straight-curve $-1 -15.715878355893221 -34.825259336615574 2.9437526401327005 0 0.5877852410284794 0.80901700255871778 I I #
point $-1 -15.715878355893221 -30.556546018306292 8.819132647154218 #
point $-1 11.690880638754006 -34.825259336615559 2.9437526401327201 #
straight-curve $-1 0 -34.825259336615559 8.819132647154218 1 0 0 I I #
vertex $-1 $311 $395 #
point $-1 -0.51249885856961441 -30.45198941689306 4.2547769909531468 #
straight-curve $-1 -50.243232520523698 34.825259336615559 0 0 0 -1 I I #
point $-1 -50.243232520523698 -34.825259336615559 -8.819132647154218 #
straight-curve $-1 -50.243232520523698 0 -8.819132647154218 0 1 0 I I #
point $-1 -50.243232520523698 34.825259336615559 -8.819132647154218 #
coedge $-1 $340 $339 $332 $377 reversed $246 $-1 #
edge $-1 $378 -34.825259336615559 $380 34.825259336615559 $376 $396 forward 7 unknown #
vertex $-1 $377 $397 #
straight-curve $-1 0 -34.825259336615559 -8.819132647154218 -1 0 0 I I #
vertex $-1 $335 $398 #
straight-curve $-1 0 34.825259336615559 -8.819132647154218 1 0 0 I I #
point $-1 -42.676079199199172 34.825259336615559 -8.819132647154218 #
straight-curve $-1 -50.243232520523698 34.825259336615559 0 0 0 -1 I I #
straight-curve $-1 -50.243232520523698 -34.825259336615559 0 0 0 -1 I I #
straight-curve $-1 18.014976618868165 34.825259336615559 62.322406090121035 0 0 -1 I I #
point $-1 18.014976618868165 34.825259336615559 8.819132647154218 #
straight-curve $-1 2.184723301503535 34.825259336615552 2.897223731366136 -1 0 0 I I #
point $-1 18.014976618868165 34.825259336615559 2.8972237313661324 #
point $-1 -1.4786376895048221 29.173078175676498 3.3275453552423939 #
point $-1 10.217530895518969 29.173078175676498 3.3275453552423939 #
straight-curve $-1 -15.715878355893221 -34.825259336615559 31.004106857192305 0 0 -1 I I #
point $-1 -15.715878355893221 -34.825259336615559 8.819132647154218 #
straight-curve $-1 -1.0062494292848037 -34.825259336615559 2.9437526401327228 1 0 0 I I #
point $-1 -15.715878355893221 -34.825259336615559 2.9437526401327201 #
point $-1 -2.0124988585696144 -29.238463913054982 3.3730991294104276 #
straight-curve $-1 -50.243232520523698 0 -8.819132647154218 0 1 0 I I #
point $-1 -50.243232520523698 -34.825259336615559 -8.819132647154218 #
point $-1 -50.243232520523698 34.825259336615559 -8.819132647154218 #
End-of-ACIS-data 