500 0 3 0           
7 Unknown 11 ACIS 5.0 NT 24 Thu Mar 25 19:03:42 1999 
-1 9.9999999999999995e-007 1e-010 
body $-1 $3 $-1 $4 #
body $-1 $5 $-1 $6 #
body $-1 $7 $-1 $8 #
lump $-1 $-1 $9 $0 #
transform $-1 1 0 0 0 1 0 0 0 1 57.161168248542744 32.817387289810959 9.6032446677557424 1 rotate no_reflect no_shear #
lump $-1 $-1 $10 $1 #
transform $-1 1 0 0 0 1 0 0 0 1 57.161168248542744 32.817387289810959 9.6032446677557424 1 rotate no_reflect no_shear #
lump $-1 $-1 $11 $2 #
transform $-1 1 0 0 0 1 0 0 0 1 57.161168248542744 32.817387289810959 9.6032446677557424 1 rotate no_reflect no_shear #
shell $-1 $-1 $-1 $12 $-1 $3 #
shell $-1 $-1 $-1 $13 $-1 $5 #
shell $-1 $-1 $-1 $14 $-1 $7 #
face $-1 $15 $16 $9 $-1 $17 reversed single #
face $-1 $18 $19 $10 $-1 $20 forward single #
face $-1 $21 $22 $11 $-1 $23 forward single #
face $-1 $24 $25 $9 $-1 $26 forward single #
loop $-1 $-1 $27 $12 #
plane-surface $-1 0 -32.817387289810959 0 0 1 0 0 0 1 forward_v I I I I #
face $-1 $28 $29 $10 $-1 $30 forward single #
loop $-1 $-1 $31 $13 #
plane-surface $-1 0 -32.817387289810959 0 0 1 0 0 0 1 forward_v I I I I #
face $-1 $32 $33 $11 $-1 $34 reversed single #
loop $-1 $-1 $35 $14 #
plane-surface $-1 0 28.416840438211715 6.1833052817734862 0 0 1 1 0 0 forward_v I I I I #
face $-1 $36 $37 $9 $-1 $38 reversed single #
loop $-1 $-1 $39 $15 #
plane-surface $-1 0 0 9.6032446677557424 0 0 1 1 0 0 forward_v I I I I #
coedge $-1 $40 $41 $42 $43 reversed $16 $-1 #
face $-1 $44 $45 $10 $-1 $46 reversed single #
loop $-1 $-1 $47 $18 #
plane-surface $-1 0 0 9.6032446677557424 0 0 1 1 0 0 forward_v I I I I #
coedge $-1 $48 $49 $50 $51 forward $19 $-1 #
face $-1 $52 $53 $11 $-1 $54 reversed single #
loop $-1 $-1 $55 $21 #
plane-surface $-1 0 28.416840438211715 2.24816425104268 0 0 1 1 0 0 forward_v I I I I #
coedge $-1 $56 $57 $58 $59 reversed $22 $-1 #
face $-1 $60 $61 $9 $-1 $62 reversed single #
loop $-1 $-1 $63 $24 #
plane-surface $-1 0 0 -9.6032446677557424 0 0 1 1 0 0 forward_v I I I I #
coedge $-1 $64 $65 $66 $67 forward $25 $-1 #
coedge $-1 $68 $27 $69 $70 reversed $16 $-1 #
coedge $-1 $27 $68 $71 $72 forward $16 $-1 #
coedge $-1 $73 $63 $27 $43 forward $37 $-1 #
edge $-1 $74 -57.161168248542744 $75 57.161168248542744 $27 $76 forward 7 unknown #
face $-1 $77 $78 $10 $-1 $79 reversed single #
loop $-1 $-1 $80 $28 #
plane-surface $-1 -57.161168248542744 0 0 1 0 0 0 0 -1 forward_v I I I I #
coedge $-1 $81 $82 $49 $83 forward $29 $-1 #
coedge $-1 $84 $31 $85 $86 reversed $19 $-1 #
coedge $-1 $31 $84 $47 $83 reversed $19 $-1 #
coedge $-1 $87 $88 $31 $51 reversed $89 $-1 #
edge $-1 $90 -9.6032446677557424 $91 9.6032446677557424 $50 $92 forward 7 unknown #
face $-1 $93 $94 $11 $-1 $95 reversed single #
loop $-1 $-1 $96 $32 #
plane-surface $-1 0 24.01629358661247 4.2157347664080831 0 1 0 0 0 1 forward_v I I I I #
coedge $-1 $97 $98 $99 $100 reversed $33 $-1 #
coedge $-1 $101 $35 $102 $103 reversed $22 $-1 #
coedge $-1 $35 $101 $104 $105 forward $22 $-1 #
coedge $-1 $106 $107 $35 $59 forward $108 $-1 #
edge $-1 $109 -18.608967070705102 $110 -9.8078733675066125 $58 $111 forward 7 unknown #
face $-1 $112 $113 $9 $-1 $114 reversed single #
loop $-1 $-1 $115 $36 #
plane-surface $-1 -57.161168248542744 0 0 1 0 0 0 0 -1 forward_v I I I I #
coedge $-1 $42 $116 $117 $118 forward $37 $-1 #
coedge $-1 $119 $39 $120 $121 forward $25 $-1 #
coedge $-1 $39 $119 $68 $122 forward $25 $-1 #
coedge $-1 $69 $123 $39 $67 reversed $124 $-1 #
edge $-1 $125 -32.817387289810959 $126 32.817387289810959 $66 $127 forward 7 unknown #
coedge $-1 $41 $40 $65 $122 reversed $16 $-1 #
coedge $-1 $117 $66 $40 $70 forward $124 $-1 #
edge $-1 $125 -9.6032446677557424 $74 9.6032446677557424 $69 $128 forward 7 unknown #
coedge $-1 $129 $130 $41 $72 reversed $61 $-1 #
edge $-1 $131 -9.6032446677557424 $75 9.6032446677557424 $71 $132 forward 7 unknown #
coedge $-1 $116 $42 $130 $133 forward $37 $-1 #
vertex $-1 $70 $134 #
vertex $-1 $133 $135 #
straight-curve $-1 0 -32.817387289810959 -9.6032446677557424 -1 0 0 I I #
face $-1 $136 $89 $10 $-1 $137 reversed single #
loop $-1 $-1 $138 $44 #
plane-surface $-1 -55.309890573051774 -42.87848812229813 0 0 1 0 0 0 1 forward_v I I I I #
coedge $-1 $139 $140 $84 $141 forward $45 $-1 #
coedge $-1 $142 $47 $140 $143 forward $29 $-1 #
coedge $-1 $47 $142 $87 $144 forward $29 $-1 #
edge $-1 $90 53.458612897560805 $145 57.161168248542744 $47 $146 forward 7 unknown #
coedge $-1 $49 $48 $80 $141 reversed $19 $-1 #
coedge $-1 $147 $148 $48 $86 forward $149 $-1 #
edge $-1 $150 -57.161168248542744 $91 -53.458612897560805 $85 $151 forward 7 unknown #
coedge $-1 $152 $50 $82 $144 reversed $89 $-1 #
coedge $-1 $50 $152 $147 $153 reversed $89 $-1 #
loop $-1 $-1 $152 $77 #
vertex $-1 $83 $154 #
vertex $-1 $153 $155 #
straight-curve $-1 -53.458612897560805 -32.817387289810959 0 0 0 -1 I I #
face $-1 $156 $108 $11 $-1 $157 reversed single #
loop $-1 $-1 $158 $52 #
plane-surface $-1 -57.161168248542744 0 0 1 0 0 0 0 -1 forward_v I I I I #
coedge $-1 $159 $104 $160 $161 reversed $53 $-1 #
coedge $-1 $162 $55 $159 $163 forward $33 $-1 #
coedge $-1 $55 $162 $164 $165 reversed $33 $-1 #
coedge $-1 $107 $106 $55 $100 forward $108 $-1 #
edge $-1 $166 9.8078733675066125 $167 18.608967070705102 $99 $168 forward 7 unknown #
coedge $-1 $57 $56 $169 $170 reversed $22 $-1 #
coedge $-1 $171 $172 $56 $103 forward $173 $-1 #
edge $-1 $174 -57.161168248542744 $109 57.161168248542744 $102 $175 forward 7 unknown #
coedge $-1 $96 $176 $57 $105 reversed $53 $-1 #
edge $-1 $177 -57.161168248542744 $110 57.161168248542744 $104 $178 forward 7 unknown #
coedge $-1 $99 $58 $176 $179 forward $108 $-1 #
coedge $-1 $58 $99 $171 $180 reversed $108 $-1 #
loop $-1 $-1 $58 $93 #
vertex $-1 $180 $181 #
vertex $-1 $59 $182 #
straight-curve $-1 57.161168248542744 14.208420219105857 6.1833052817734862 0 -1 0 I I #
face $-1 $-1 $124 $9 $-1 $183 reversed single #
loop $-1 $-1 $184 $60 #
plane-surface $-1 0 32.817387289810959 0 0 -1 0 0 0 -1 forward_v I I I I #
coedge $-1 $130 $129 $185 $186 forward $61 $-1 #
coedge $-1 $63 $73 $187 $188 forward $37 $-1 #
coedge $-1 $123 $69 $63 $118 reversed $124 $-1 #
edge $-1 $189 -32.817387289810959 $74 32.817387289810959 $117 $190 forward 7 unknown #
coedge $-1 $65 $64 $129 $191 forward $25 $-1 #
coedge $-1 $184 $185 $64 $121 reversed $113 $-1 #
edge $-1 $126 -57.161168248542744 $192 57.161168248542744 $120 $193 forward 7 unknown #
edge $-1 $131 -57.161168248542744 $125 57.161168248542744 $68 $194 forward 7 unknown #
coedge $-1 $66 $117 $184 $195 reversed $124 $-1 #
loop $-1 $-1 $69 $112 #
vertex $-1 $67 $196 #
vertex $-1 $67 $197 #
straight-curve $-1 57.161168248542744 0 9.6032446677557424 0 1 0 I I #
straight-curve $-1 57.161168248542744 -32.817387289810959 0 0 0 -1 I I #
coedge $-1 $115 $71 $119 $191 reversed $61 $-1 #
coedge $-1 $71 $115 $73 $133 reversed $61 $-1 #
vertex $-1 $191 $198 #
straight-curve $-1 -57.161168248542744 -32.817387289810959 0 0 0 -1 I I #
edge $-1 $75 -32.817387289810959 $199 32.817387289810959 $130 $200 forward 7 unknown #
point $-1 57.161168248542744 -32.817387289810959 -9.6032446677557424 #
point $-1 -57.161168248542744 -32.817387289810959 -9.6032446677557424 #
face $-1 $-1 $149 $10 $-1 $201 reversed single #
plane-surface $-1 -53.458612897560805 -37.847937706054545 0 -1 0 0 0 0 1 forward_v I I I I #
coedge $-1 $202 $203 $204 $205 forward $78 $-1 #
coedge $-1 $204 $80 $148 $206 reversed $45 $-1 #
coedge $-1 $80 $204 $81 $143 reversed $45 $-1 #
edge $-1 $145 -9.6032446677557424 $150 9.6032446677557424 $80 $207 forward 7 unknown #
coedge $-1 $82 $81 $203 $208 forward $29 $-1 #
edge $-1 $145 32.817387289810959 $209 42.87848812229813 $140 $210 forward 7 unknown #
edge $-1 $211 -5.0305504162435852 $90 5.0305504162435852 $87 $212 forward 7 unknown #
vertex $-1 $143 $213 #
straight-curve $-1 0 -32.817387289810959 9.6032446677557424 -1 0 0 I I #
coedge $-1 $214 $85 $88 $153 forward $149 $-1 #
coedge $-1 $85 $214 $139 $206 forward $149 $-1 #
loop $-1 $-1 $85 $136 #
vertex $-1 $141 $215 #
straight-curve $-1 0 -32.817387289810959 -9.6032446677557424 1 0 0 I I #
coedge $-1 $88 $87 $216 $217 forward $89 $-1 #
edge $-1 $91 -5.0305504162435852 $218 5.0305504162435852 $88 $219 forward 7 unknown #
point $-1 -53.458612897560805 -32.817387289810959 9.6032446677557424 #
point $-1 -53.458612897560805 -32.817387289810959 -9.6032446677557424 #
face $-1 $-1 $173 $11 $-1 $220 reversed single #
plane-surface $-1 57.161168248542744 0 0 -1 0 0 0 0 1 forward_v I I I I #
coedge $-1 $160 $221 $162 $222 forward $94 $-1 #
coedge $-1 $176 $96 $97 $163 reversed $53 $-1 #
coedge $-1 $169 $158 $96 $161 forward $94 $-1 #
edge $-1 $223 0.14029686783863848 $177 4.0754378985694446 $160 $224 forward 7 unknown #
coedge $-1 $98 $97 $158 $222 reversed $33 $-1 #
edge $-1 $166 -57.161168248542744 $223 57.161168248542744 $159 $225 forward 7 unknown #
coedge $-1 $172 $171 $98 $165 forward $173 $-1 #
edge $-1 $167 -57.161168248542744 $226 57.161168248542744 $164 $227 forward 7 unknown #
vertex $-1 $100 $228 #
vertex $-1 $100 $229 #
straight-curve $-1 57.161168248542744 14.208420219105857 2.24816425104268 0 1 0 I I #
coedge $-1 $221 $160 $101 $170 forward $94 $-1 #
edge $-1 $177 9.8078733675066125 $174 18.608967070705102 $169 $230 forward 7 unknown #
coedge $-1 $164 $102 $107 $180 forward $173 $-1 #
coedge $-1 $102 $164 $221 $231 reversed $173 $-1 #
loop $-1 $-1 $164 $156 #
vertex $-1 $231 $232 #
straight-curve $-1 0 32.817387289810959 6.1833052817734862 1 0 0 I I #
coedge $-1 $104 $159 $106 $179 reversed $53 $-1 #
vertex $-1 $170 $233 #
straight-curve $-1 0 24.01629358661247 6.1833052817734862 1 0 0 I I #
edge $-1 $110 -4.0754378985694446 $166 -0.14029686783863848 $106 $234 forward 7 unknown #
edge $-1 $109 -6.1833052817734862 $167 -2.24816425104268 $107 $235 forward 7 unknown #
point $-1 57.161168248542744 32.817387289810959 6.1833052817734862 #
point $-1 57.161168248542744 24.01629358661247 6.1833052817734862 #
plane-surface $-1 57.161168248542744 0 0 -1 0 0 0 0 1 forward_v I I I I #
coedge $-1 $187 $120 $123 $195 forward $113 $-1 #
coedge $-1 $120 $187 $115 $186 reversed $113 $-1 #
edge $-1 $192 -9.6032446677557424 $199 9.6032446677557424 $185 $236 forward 7 unknown #
coedge $-1 $185 $184 $116 $188 reversed $113 $-1 #
edge $-1 $199 -57.161168248542744 $189 57.161168248542744 $187 $237 forward 7 unknown #
vertex $-1 $118 $238 #
straight-curve $-1 57.161168248542744 0 -9.6032446677557424 0 -1 0 I I #
edge $-1 $192 -32.817387289810959 $131 32.817387289810959 $129 $239 forward 7 unknown #
vertex $-1 $121 $240 #
straight-curve $-1 0 32.817387289810959 9.6032446677557424 -1 0 0 I I #
straight-curve $-1 0 -32.817387289810959 9.6032446677557424 1 0 0 I I #
edge $-1 $126 -9.6032446677557424 $189 9.6032446677557424 $123 $241 forward 7 unknown #
point $-1 57.161168248542744 -32.817387289810959 9.6032446677557424 #
point $-1 57.161168248542744 32.817387289810959 9.6032446677557424 #
point $-1 -57.161168248542744 -32.817387289810959 9.6032446677557424 #
vertex $-1 $188 $242 #
straight-curve $-1 -57.161168248542744 0 -9.6032446677557424 0 1 0 I I #
plane-surface $-1 0 0 -9.6032446677557424 0 0 1 1 0 0 forward_v I I I I #
coedge $-1 $216 $138 $214 $243 reversed $78 $-1 #
coedge $-1 $138 $216 $142 $208 reversed $78 $-1 #
coedge $-1 $140 $139 $138 $205 reversed $45 $-1 #
edge $-1 $209 -9.6032446677557424 $244 9.6032446677557424 $204 $245 forward 7 unknown #
edge $-1 $244 -42.87848812229813 $150 -32.817387289810959 $139 $246 forward 7 unknown #
straight-curve $-1 -57.161168248542744 -32.817387289810959 0 0 0 -1 I I #
edge $-1 $209 -1.8512776754909694 $211 1.8512776754909694 $203 $247 forward 7 unknown #
vertex $-1 $143 $248 #
straight-curve $-1 -57.161168248542744 0 9.6032446677557424 0 -1 0 I I #
vertex $-1 $144 $249 #
straight-curve $-1 -53.458612897560805 -37.847937706054545 9.6032446677557424 0 1 0 I I #
point $-1 -57.161168248542744 -32.817387289810959 9.6032446677557424 #
coedge $-1 $148 $147 $202 $243 forward $149 $-1 #
point $-1 -57.161168248542744 -32.817387289810959 -9.6032446677557424 #
coedge $-1 $203 $202 $152 $217 reversed $78 $-1 #
edge $-1 $211 -9.6032446677557424 $218 9.6032446677557424 $152 $250 forward 7 unknown #
vertex $-1 $217 $251 #
straight-curve $-1 -53.458612897560805 -37.847937706054545 -9.6032446677557424 0 -1 0 I I #
plane-surface $-1 0 32.817387289810959 0 0 -1 0 0 0 -1 forward_v I I I I #
coedge $-1 $158 $169 $172 $231 forward $94 $-1 #
edge $-1 $226 -18.608967070705102 $223 -9.8078733675066125 $158 $252 forward 7 unknown #
vertex $-1 $222 $253 #
straight-curve $-1 -57.161168248542744 24.01629358661247 2.1078673832040415 0 0 1 I I #
straight-curve $-1 0 24.01629358661247 2.24816425104268 -1 0 0 I I #
vertex $-1 $165 $254 #
straight-curve $-1 0 32.817387289810959 2.24816425104268 -1 0 0 I I #
point $-1 57.161168248542744 24.01629358661247 2.24816425104268 #
point $-1 57.161168248542744 32.817387289810959 2.24816425104268 #
straight-curve $-1 -57.161168248542744 14.208420219105857 6.1833052817734862 0 1 0 I I #
edge $-1 $174 -6.1833052817734862 $226 -2.24816425104268 $172 $255 forward 7 unknown #
point $-1 -57.161168248542744 32.817387289810959 6.1833052817734862 #
point $-1 -57.161168248542744 24.01629358661247 6.1833052817734862 #
straight-curve $-1 57.161168248542744 24.01629358661247 2.1078673832040415 0 0 -1 I I #
straight-curve $-1 57.161168248542744 32.817387289810959 0 0 0 -1 I I #
straight-curve $-1 -57.161168248542744 32.817387289810959 0 0 0 -1 I I #
straight-curve $-1 0 32.817387289810959 -9.6032446677557424 1 0 0 I I #
point $-1 57.161168248542744 32.817387289810959 -9.6032446677557424 #
straight-curve $-1 -57.161168248542744 0 9.6032446677557424 0 -1 0 I I #
point $-1 -57.161168248542744 32.817387289810959 9.6032446677557424 #
straight-curve $-1 57.161168248542744 32.817387289810959 0 0 0 -1 I I #
point $-1 -57.161168248542744 32.817387289810959 -9.6032446677557424 #
edge $-1 $218 -1.8512776754909694 $244 1.8512776754909694 $202 $256 forward 7 unknown #
vertex $-1 $206 $257 #
straight-curve $-1 -57.161168248542744 -42.87848812229813 0 0 0 -1 I I #
straight-curve $-1 -57.161168248542744 0 -9.6032446677557424 0 1 0 I I #
straight-curve $-1 -55.309890573051774 -42.87848812229813 9.6032446677557424 1 0 0 I I #
point $-1 -57.161168248542744 -42.87848812229813 9.6032446677557424 #
point $-1 -53.458612897560805 -42.87848812229813 9.6032446677557424 #
straight-curve $-1 -53.458612897560805 -42.87848812229813 0 0 0 -1 I I #
point $-1 -53.458612897560805 -42.87848812229813 -9.6032446677557424 #
straight-curve $-1 -57.161168248542744 14.208420219105857 2.24816425104268 0 -1 0 I I #
point $-1 -57.161168248542744 24.01629358661247 2.24816425104268 #
point $-1 -57.161168248542744 32.817387289810959 2.24816425104268 #
straight-curve $-1 -57.161168248542744 32.817387289810959 0 0 0 -1 I I #
straight-curve $-1 -55.309890573051774 -42.87848812229813 -9.6032446677557424 -1 0 0 I I #
point $-1 -57.161168248542744 -42.87848812229813 -9.6032446677557424 #
End-of-ACIS-data 