500 0 11 0           
7 Unknown 11 ACIS 5.0 NT 24 Thu Mar 25 23:19:24 1999 
-1 9.9999999999999995e-007 1e-010 
body $-1 $11 $-1 $12 #
body $-1 $13 $-1 $14 #
body $-1 $15 $-1 $16 #
body $-1 $17 $-1 $18 #
body $-1 $19 $-1 $20 #
body $-1 $21 $-1 $22 #
body $-1 $23 $-1 $24 #
body $-1 $25 $-1 $26 #
body $-1 $27 $-1 $28 #
body $-1 $29 $-1 $30 #
body $-1 $31 $-1 $32 #
lump $-1 $-1 $33 $0 #
transform $-1 1 0 0 0 1 0 0 0 1 50.61922055726798 29.232070769889187 7.1120637038677206 1 rotate no_reflect no_shear #
lump $-1 $-1 $34 $1 #
transform $-1 1 0 0 0 1 0 0 0 1 50.61922055726798 29.232070769889187 7.1120637038677206 1 rotate no_reflect no_shear #
lump $-1 $-1 $35 $2 #
transform $-1 1 0 0 0 1 0 0 0 1 50.61922055726798 29.232070769889187 7.1120637038677206 1 rotate no_reflect no_shear #
lump $-1 $-1 $36 $3 #
transform $-1 1 0 0 0 1 0 0 0 1 50.61922055726798 29.232070769889187 7.1120637038677206 1 rotate no_reflect no_shear #
lump $-1 $-1 $37 $4 #
transform $-1 1 0 0 0 1 0 0 0 1 50.61922055726798 29.232070769889187 7.1120637038677206 1 rotate no_reflect no_shear #
lump $-1 $-1 $38 $5 #
transform $-1 1 0 0 0 1 0 0 0 1 50.61922055726798 29.232070769889187 7.1120637038677206 1 rotate no_reflect no_shear #
lump $-1 $-1 $39 $6 #
transform $-1 1 0 0 0 1 0 0 0 1 50.61922055726798 29.232070769889187 7.1120637038677206 1 rotate no_reflect no_shear #
lump $-1 $-1 $40 $7 #
transform $-1 1 0 0 0 1 0 0 0 1 50.61922055726798 29.232070769889187 7.1120637038677206 1 rotate no_reflect no_shear #
lump $-1 $-1 $41 $8 #
transform $-1 1 0 0 0 1 0 0 0 1 50.61922055726798 29.232070769889187 7.1120637038677206 1 rotate no_reflect no_shear #
lump $-1 $-1 $42 $9 #
transform $-1 1 0 0 0 1 0 0 0 1 50.61922055726798 29.232070769889187 7.1120637038677206 1 rotate no_reflect no_shear #
lump $-1 $-1 $43 $10 #
transform $-1 1 0 0 0 1 0 0 0 1 50.61922055726798 29.232070769889187 7.1120637038677206 1 rotate no_reflect no_shear #
shell $-1 $-1 $-1 $44 $-1 $11 #
shell $-1 $-1 $-1 $45 $-1 $13 #
shell $-1 $-1 $-1 $46 $-1 $15 #
shell $-1 $-1 $-1 $47 $-1 $17 #
shell $-1 $-1 $-1 $48 $-1 $19 #
shell $-1 $-1 $-1 $49 $-1 $21 #
shell $-1 $-1 $-1 $50 $-1 $23 #
shell $-1 $-1 $-1 $51 $-1 $25 #
shell $-1 $-1 $-1 $52 $-1 $27 #
shell $-1 $-1 $-1 $53 $-1 $29 #
shell $-1 $-1 $-1 $54 $-1 $31 #
face $-1 $55 $56 $33 $-1 $57 forward single #
face $-1 $58 $59 $34 $-1 $60 forward single #
face $-1 $61 $62 $35 $-1 $63 reversed single #
face $-1 $64 $65 $36 $-1 $66 forward single #
face $-1 $67 $68 $37 $-1 $69 forward single #
face $-1 $70 $71 $38 $-1 $72 reversed single #
face $-1 $73 $74 $39 $-1 $75 forward single #
face $-1 $76 $77 $40 $-1 $78 forward single #
face $-1 $79 $80 $41 $-1 $81 reversed single #
face $-1 $82 $83 $42 $-1 $84 forward single #
face $-1 $85 $86 $43 $-1 $87 forward single #
face $-1 $88 $89 $33 $-1 $90 reversed single #
loop $-1 $-1 $91 $44 #
plane-surface $-1 0 0 7.1120637038677206 0 0 1 1 0 0 forward_v I I I I #
face $-1 $92 $93 $34 $-1 $94 reversed single #
loop $-1 $-1 $95 $45 #
plane-surface $-1 0 -26.07965130053201 -4.1120637038677206 0 0 1 1 0 0 forward_v I I I I #
face $-1 $96 $97 $35 $-1 $98 reversed single #
loop $-1 $-1 $99 $46 #
plane-surface $-1 80.386516647826099 3.1524194693571719 141.45980578072962 0 -1 0 -0.83867057594974714 0 -0.54463902268945019 forward_v I I I I #
face $-1 $100 $101 $36 $-1 $102 forward single #
loop $-1 $103 $104 $47 #
cone-surface $-1 47.648132520004737 -5.4197592048147918 3.5355986179794741 -0.83867057594974714 0 -0.54463902268945019 0.54463902268945019 0 -0.83867057594974714 1 I I 0 1 1 forward I I I I #
face $-1 $105 $106 $37 $-1 $107 forward single #
loop $-1 $108 $109 $48 #
cone-surface $-1 47.648132520004737 -0.2764520003116111 3.5355986179794741 -0.83867057594974714 0 -0.54463902268945019 0.54463902268945019 0 -0.83867057594974714 1 I I 0 1 1 forward I I I I #
face $-1 $110 $111 $38 $-1 $112 reversed single #
loop $-1 $-1 $113 $49 #
plane-surface $-1 80.386516647826099 15.153469613197929 141.45980578072962 0 -1 0 -0.83867057594974714 0 -0.54463902268945019 forward_v I I I I #
face $-1 $114 $115 $39 $-1 $116 forward single #
loop $-1 $117 $118 $50 #
cone-surface $-1 47.648132520004737 6.5812909390259655 3.5355986179794741 -0.83867057594974714 0 -0.54463902268945019 0.54463902268945019 0 -0.83867057594974714 1 I I 0 1 1 forward I I I I #
face $-1 $119 $120 $40 $-1 $121 forward single #
loop $-1 $122 $123 $51 #
cone-surface $-1 47.648132520004737 11.724598143529146 3.5355986179794741 -0.83867057594974714 0 -0.54463902268945019 0.54463902268945019 0 -0.83867057594974714 1 I I 0 1 1 forward I I I I #
face $-1 $124 $125 $41 $-1 $126 reversed single #
loop $-1 $-1 $127 $52 #
plane-surface $-1 -138.29428318507394 -14.754219221732701 51.425643999080961 0 1 0 -0.86602541151947299 0 0.49999998660252726 forward_v I I I I #
face $-1 $128 $129 $42 $-1 $130 forward single #
loop $-1 $131 $132 $53 #
cone-surface $-1 -47.218172841710334 -10.580045290579722 3.0465882495848455 0.86602541151947299 0 -0.49999998660252726 0.49999998660252726 0 0.86602541151947299 1 I I 0 1 1 forward I I I I #
face $-1 $133 $134 $43 $-1 $135 forward single #
loop $-1 $136 $137 $54 #
cone-surface $-1 -47.218172841710334 -4.3187843938502546 3.0465882495848455 0.86602541151947299 0 -0.49999998660252726 0.49999998660252726 0 0.86602541151947299 1 I I 0 1 1 forward I I I I #
face $-1 $138 $139 $33 $-1 $140 reversed single #
loop $-1 $-1 $141 $55 #
plane-surface $-1 0 0 -7.1120637038677206 0 0 1 1 0 0 forward_v I I I I #
coedge $-1 $142 $143 $144 $145 forward $56 $-1 #
face $-1 $146 $147 $34 $-1 $148 reversed single #
loop $-1 $-1 $149 $58 #
plane-surface $-1 0 -22.927231831174833 -5.6120637038677206 0 -1 0 0 0 -1 forward_v I I I I #
coedge $-1 $150 $151 $152 $153 reversed $59 $-1 #
face $-1 $154 $155 $35 $-1 $156 reversed single #
loop $-1 $-1 $157 $61 #
plane-surface $-1 -4.5191850699563361 -2.848105602563205 86.321400153505309 0.83867057594974714 0 0.54463902268945019 0.54463902268945019 0 -0.83867057594974714 forward_v I I I I #
coedge $-1 $158 $159 $160 $161 reversed $62 $-1 #
face $-1 $-1 $162 $36 $-1 $163 forward single #
loop $-1 $164 $165 $64 #
cone-surface $-1 46.107340564635038 -5.4197592048147918 2.5349966548189098 -0.83867057594974714 0 -0.54463902268945019 0.2723195113447251 0 -0.41933528797487357 1 I I -0.70710678118654746 0.70710678118654746 0.5 forward I I I I #
loop $-1 $-1 $166 $47 #
coedge $-1 $104 $104 $167 $168 reversed $65 $-1 #
face $-1 $-1 $169 $37 $-1 $170 forward single #
loop $-1 $171 $172 $67 #
cone-surface $-1 46.107340564635038 -0.2764520003116111 2.5349966548189098 -0.83867057594974714 0 -0.54463902268945019 0.2723195113447251 0 -0.41933528797487357 1 I I -0.70710678118654746 0.70710678118654746 0.5 forward I I I I #
loop $-1 $-1 $173 $48 #
coedge $-1 $109 $109 $174 $175 reversed $68 $-1 #
face $-1 $176 $177 $38 $-1 $178 forward single #
loop $-1 $-1 $179 $70 #
plane-surface $-1 -4.5191850699563361 -2.848105602563205 86.321400153505309 0.83867057594974714 0 0.54463902268945019 0.54463902268945019 0 -0.83867057594974714 forward_v I I I I #
coedge $-1 $180 $181 $182 $183 reversed $71 $-1 #
face $-1 $-1 $184 $39 $-1 $185 forward single #
loop $-1 $186 $187 $73 #
cone-surface $-1 46.107340564635038 6.5812909390259655 2.5349966548189098 -0.83867057594974714 0 -0.54463902268945019 0.2723195113447251 0 -0.41933528797487357 1 I I -0.70710678118654746 0.70710678118654746 0.5 forward I I I I #
loop $-1 $-1 $188 $50 #
coedge $-1 $118 $118 $189 $190 reversed $74 $-1 #
face $-1 $-1 $191 $40 $-1 $192 forward single #
loop $-1 $193 $194 $76 #
cone-surface $-1 46.107340564635038 11.724598143529146 2.5349966548189098 -0.83867057594974714 0 -0.54463902268945019 0.2723195113447251 0 -0.41933528797487357 1 I I -0.70710678118654746 0.70710678118654746 0.5 forward I I I I #
loop $-1 $-1 $195 $51 #
coedge $-1 $123 $123 $196 $197 reversed $77 $-1 #
face $-1 $198 $199 $41 $-1 $200 reversed single #
loop $-1 $-1 $201 $79 #
plane-surface $-1 -50.619220557267994 -7.4494148422149884 0.80642479815223567 -0.86602541151947299 0 0.49999998660252726 0.49999998660252726 0 0.86602541151947299 forward_v I I I I #
coedge $-1 $202 $203 $204 $205 reversed $80 $-1 #
face $-1 $-1 $206 $42 $-1 $207 forward single #
loop $-1 $208 $209 $82 #
cone-surface $-1 -45.204393515174218 -10.580045290579722 1.8839322548584541 0.86602541151947299 0 -0.49999998660252726 0.24999999330126363 0 0.43301270575973649 1 I I -0.70710678118654746 0.70710678118654746 0.5 forward I I I I #
loop $-1 $-1 $210 $53 #
coedge $-1 $132 $132 $211 $212 reversed $83 $-1 #
face $-1 $-1 $213 $43 $-1 $214 forward single #
loop $-1 $215 $216 $85 #
cone-surface $-1 -45.204393515174218 -4.3187843938502546 1.8839322548584541 0.86602541151947299 0 -0.49999998660252726 0.24999999330126363 0 0.43301270575973649 1 I I -0.70710678118654746 0.70710678118654746 0.5 forward I I I I #
loop $-1 $-1 $217 $54 #
coedge $-1 $137 $137 $218 $219 reversed $86 $-1 #
face $-1 $220 $221 $33 $-1 $222 reversed single #
loop $-1 $-1 $223 $88 #
plane-surface $-1 0 -29.232070769889187 0 0 1 0 0 0 1 forward_v I I I I #
coedge $-1 $224 $225 $226 $227 forward $89 $-1 #
coedge $-1 $228 $91 $229 $230 forward $56 $-1 #
coedge $-1 $91 $228 $231 $232 forward $56 $-1 #
coedge $-1 $233 $234 $91 $145 reversed $235 $-1 #
edge $-1 $236 -29.232070769889187 $237 29.232070769889187 $144 $238 forward 7 unknown #
face $-1 $239 $240 $34 $-1 $241 reversed single #
loop $-1 $-1 $242 $92 #
plane-surface $-1 0 0 -7.1120637038677206 0 0 1 1 0 0 forward_v I I I I #
coedge $-1 $243 $244 $245 $246 reversed $93 $-1 #
coedge $-1 $247 $95 $244 $248 forward $59 $-1 #
coedge $-1 $95 $247 $249 $250 reversed $59 $-1 #
coedge $-1 $251 $245 $95 $153 forward $240 $-1 #
edge $-1 $252 9.8874061809088278 $253 16.19224511962318 $152 $254 forward 7 unknown #
face $-1 $255 $256 $35 $-1 $257 reversed single #
loop $-1 $-1 $258 $96 #
plane-surface $-1 80.386516647826099 -8.8486306744835819 141.45980578072962 0 1 0 0.83867057594974714 0 0.54463902268945019 forward_v I I I I #
coedge $-1 $259 $260 $261 $262 reversed $97 $-1 #
coedge $-1 $159 $99 $263 $264 reversed $62 $-1 #
coedge $-1 $99 $158 $259 $265 reversed $62 $-1 #
coedge $-1 $261 $266 $99 $161 forward $267 $-1 #
edge $-1 $268 -10.42596223335493 $269 -6.7266994936180922 $160 $270 forward 7 unknown #
loop $-1 $-1 $167 $100 #
plane-surface $-1 -4.5191850699563361 -2.848105602563205 86.321400153505309 0.83867057594974714 0 0.54463902268945019 0.54463902268945019 0 -0.83867057594974714 forward_v I I I I #
loop $-1 $-1 $271 $64 #
coedge $-1 $165 $165 $166 $272 reversed $101 $-1 #
coedge $-1 $166 $166 $165 $272 forward $103 $-1 #
coedge $-1 $167 $167 $104 $168 forward $162 $-1 #
edge $-1 $273 0 $273 6.2831853071796004 $167 $274 forward 7 unknown #
loop $-1 $-1 $174 $105 #
plane-surface $-1 -4.5191850699563361 -2.848105602563205 86.321400153505309 0.83867057594974714 0 0.54463902268945019 0.54463902268945019 0 -0.83867057594974714 forward_v I I I I #
loop $-1 $-1 $275 $67 #
coedge $-1 $172 $172 $173 $276 reversed $106 $-1 #
coedge $-1 $173 $173 $172 $276 forward $108 $-1 #
coedge $-1 $174 $174 $109 $175 forward $169 $-1 #
edge $-1 $277 0 $277 6.2831853071796004 $174 $278 forward 7 unknown #
face $-1 $279 $280 $38 $-1 $281 forward single #
loop $-1 $-1 $282 $110 #
plane-surface $-1 0 0 7.1120637038677206 0 0 1 1 0 0 forward_v I I I I #
coedge $-1 $283 $284 $285 $286 reversed $111 $-1 #
coedge $-1 $181 $113 $287 $288 reversed $71 $-1 #
coedge $-1 $113 $180 $282 $289 reversed $71 $-1 #
coedge $-1 $290 $291 $113 $183 forward $292 $-1 #
edge $-1 $293 -69.314204454641938 $294 -63.617839186497093 $182 $295 forward 7 unknown #
loop $-1 $-1 $189 $114 #
plane-surface $-1 -4.5191850699563361 -2.848105602563205 86.321400153505309 0.83867057594974714 0 0.54463902268945019 0.54463902268945019 0 -0.83867057594974714 forward_v I I I I #
loop $-1 $-1 $296 $73 #
coedge $-1 $187 $187 $188 $297 reversed $115 $-1 #
coedge $-1 $188 $188 $187 $297 forward $117 $-1 #
coedge $-1 $189 $189 $118 $190 forward $184 $-1 #
edge $-1 $298 0 $298 6.2831853071796004 $189 $299 forward 7 unknown #
loop $-1 $-1 $196 $119 #
plane-surface $-1 -4.5191850699563361 -2.848105602563205 86.321400153505309 0.83867057594974714 0 0.54463902268945019 0.54463902268945019 0 -0.83867057594974714 forward_v I I I I #
loop $-1 $-1 $300 $76 #
coedge $-1 $194 $194 $195 $301 reversed $120 $-1 #
coedge $-1 $195 $195 $194 $301 forward $122 $-1 #
coedge $-1 $196 $196 $123 $197 forward $191 $-1 #
edge $-1 $302 0 $302 6.2831853071796004 $196 $303 forward 7 unknown #
face $-1 $304 $305 $41 $-1 $306 reversed single #
loop $-1 $-1 $307 $124 #
plane-surface $-1 -138.29428318507394 -0.14461046269727618 51.425643999080961 0 -1 0 0.86602541151947299 0 -0.49999998660252726 forward_v I I I I #
coedge $-1 $308 $309 $310 $311 reversed $125 $-1 #
coedge $-1 $203 $127 $312 $313 reversed $80 $-1 #
coedge $-1 $127 $202 $308 $314 reversed $80 $-1 #
coedge $-1 $310 $315 $127 $205 forward $316 $-1 #
edge $-1 $317 18.527921035268989 $318 22.168483224831498 $204 $319 forward 7 unknown #
loop $-1 $-1 $211 $128 #
plane-surface $-1 -50.619220557267994 -7.4494148422149884 0.80642479815223567 -0.86602541151947299 0 0.49999998660252726 0.49999998660252726 0 0.86602541151947299 forward_v I I I I #
loop $-1 $-1 $320 $82 #
coedge $-1 $209 $209 $210 $321 reversed $129 $-1 #
coedge $-1 $210 $210 $209 $321 forward $131 $-1 #
coedge $-1 $211 $211 $132 $212 forward $206 $-1 #
edge $-1 $322 0 $322 6.2831853071796004 $211 $323 forward 7 unknown #
loop $-1 $-1 $218 $133 #
plane-surface $-1 -50.619220557267994 -7.4494148422149884 0.80642479815223567 -0.86602541151947299 0 0.49999998660252726 0.49999998660252726 0 0.86602541151947299 forward_v I I I I #
loop $-1 $-1 $324 $85 #
coedge $-1 $216 $216 $217 $325 reversed $134 $-1 #
coedge $-1 $217 $217 $216 $325 forward $136 $-1 #
coedge $-1 $218 $218 $137 $219 forward $213 $-1 #
edge $-1 $326 0 $326 6.2831853071796004 $218 $327 forward 7 unknown #
face $-1 $328 $329 $33 $-1 $330 reversed single #
loop $-1 $-1 $331 $138 #
plane-surface $-1 -50.61922055726798 0 0 1 0 0 0 0 -1 forward_v I I I I #
coedge $-1 $332 $231 $333 $334 forward $139 $-1 #
coedge $-1 $335 $141 $332 $336 forward $89 $-1 #
coedge $-1 $141 $335 $337 $338 forward $89 $-1 #
coedge $-1 $234 $233 $141 $227 reversed $235 $-1 #
edge $-1 $339 -29.232070769889187 $340 29.232070769889187 $226 $341 forward 7 unknown #
coedge $-1 $143 $142 $342 $343 forward $56 $-1 #
coedge $-1 $344 $345 $142 $230 reversed $329 $-1 #
edge $-1 $237 -50.61922055726798 $346 50.61922055726798 $229 $347 forward 7 unknown #
coedge $-1 $223 $348 $143 $232 reversed $139 $-1 #
edge $-1 $349 -50.61922055726798 $236 50.61922055726798 $231 $350 forward 7 unknown #
coedge $-1 $226 $144 $348 $351 forward $235 $-1 #
coedge $-1 $144 $226 $344 $352 reversed $235 $-1 #
loop $-1 $-1 $233 $328 #
vertex $-1 $145 $353 #
vertex $-1 $145 $354 #
straight-curve $-1 50.61922055726798 0 7.1120637038677206 0 1 0 I I #
face $-1 $355 $356 $34 $-1 $357 reversed single #
loop $-1 $-1 $245 $146 #
plane-surface $-1 50.61922055726798 0 0 -1 0 0 0 0 1 forward_v I I I I #
coedge $-1 $358 $359 $243 $360 forward $147 $-1 #
coedge $-1 $361 $149 $242 $360 reversed $93 $-1 #
coedge $-1 $149 $361 $150 $248 reversed $93 $-1 #
coedge $-1 $152 $362 $149 $246 forward $240 $-1 #
edge $-1 $363 -4.3060318519338603 $252 -1.3060318519338603 $245 $364 forward 7 unknown #
coedge $-1 $151 $150 $365 $366 reversed $59 $-1 #
edge $-1 $252 -50.61922055726798 $367 50.61922055726798 $244 $368 forward 7 unknown #
coedge $-1 $369 $370 $151 $250 forward $356 $-1 #
edge $-1 $253 -50.61922055726798 $371 50.61922055726798 $249 $372 forward 7 unknown #
coedge $-1 $362 $152 $370 $373 forward $240 $-1 #
vertex $-1 $153 $374 #
vertex $-1 $373 $375 #
straight-curve $-1 50.61922055726798 -13.039825650266005 -4.1120637038677206 0 -1 0 I I #
face $-1 $-1 $267 $35 $-1 $376 forward single #
loop $-1 $-1 $377 $154 #
plane-surface $-1 50.61922055726798 0 0 -1 0 0 0 0 1 forward_v I I I I #
coedge $-1 $378 $379 $380 $381 reversed $155 $-1 #
coedge $-1 $382 $157 $159 $265 forward $97 $-1 #
coedge $-1 $157 $382 $378 $383 forward $97 $-1 #
coedge $-1 $380 $160 $157 $262 forward $267 $-1 #
edge $-1 $269 -4.5764722706387744 $384 7.4245778732019794 $261 $385 forward 7 unknown #
coedge $-1 $386 $387 $158 $264 forward $256 $-1 #
edge $-1 $388 -69.314204454641938 $268 -63.617839186497093 $263 $389 forward 7 unknown #
edge $-1 $269 94.446304331039016 $388 101.23844111453596 $159 $390 forward 7 unknown #
coedge $-1 $160 $380 $386 $391 forward $267 $-1 #
loop $-1 $-1 $380 $255 #
vertex $-1 $264 $392 #
vertex $-1 $161 $393 #
straight-curve $-1 40.193258323913049 3.1524194693571719 7.1120637038677188 -1 0 0 I I #
coedge $-1 $271 $271 $-1 $394 reversed $164 $-1 #
edge $-1 $395 0 $395 6.2831853071796004 $165 $396 forward 7 unknown #
vertex $-1 $168 $397 #
ellipse-curve $-1 48.769589187399554 -5.4197592048147918 4.2638810697953078 0.83867057594974714 0 0.54463902268945019 0.54463902268945019 0 -0.83867057594974714 1 I I #
coedge $-1 $275 $275 $-1 $398 reversed $171 $-1 #
edge $-1 $399 0 $399 6.2831853071796004 $172 $400 forward 7 unknown #
vertex $-1 $175 $401 #
ellipse-curve $-1 48.769589187399554 -0.2764520003116111 4.2638810697953078 0.83867057594974714 0 0.54463902268945019 0.54463902268945019 0 -0.83867057594974714 1 I I #
face $-1 $-1 $292 $38 $-1 $402 reversed single #
loop $-1 $-1 $403 $176 #
plane-surface $-1 80.386516647826099 3.1524194693571719 141.45980578072962 0 -1 0 -0.83867057594974714 0 -0.54463902268945019 forward_v I I I I #
coedge $-1 $404 $405 $181 $289 forward $177 $-1 #
coedge $-1 $287 $179 $404 $406 reversed $111 $-1 #
coedge $-1 $179 $287 $291 $407 reversed $111 $-1 #
coedge $-1 $408 $403 $179 $286 forward $280 $-1 #
edge $-1 $409 94.446304331039016 $410 101.23844111453596 $285 $411 forward 7 unknown #
coedge $-1 $284 $283 $180 $288 forward $111 $-1 #
edge $-1 $412 94.446304331039016 $293 101.23844111453596 $180 $413 forward 7 unknown #
edge $-1 $294 -10.42596223335493 $412 -6.7266994936180922 $282 $414 forward 7 unknown #
coedge $-1 $415 $182 $405 $416 reversed $292 $-1 #
coedge $-1 $182 $415 $284 $407 forward $292 $-1 #
loop $-1 $-1 $182 $279 #
vertex $-1 $183 $417 #
vertex $-1 $183 $418 #
straight-curve $-1 50.61922055726798 15.153469613197929 70.729902890364812 0 0 1 I I #
coedge $-1 $296 $296 $-1 $419 reversed $186 $-1 #
edge $-1 $420 0 $420 6.2831853071796004 $187 $421 forward 7 unknown #
vertex $-1 $190 $422 #
ellipse-curve $-1 48.769589187399554 6.5812909390259655 4.2638810697953078 0.83867057594974714 0 0.54463902268945019 0.54463902268945019 0 -0.83867057594974714 1 I I #
coedge $-1 $300 $300 $-1 $423 reversed $193 $-1 #
edge $-1 $424 0 $424 6.2831853071796004 $194 $425 forward 7 unknown #
vertex $-1 $197 $426 #
ellipse-curve $-1 48.769589187399554 11.724598143529146 4.2638810697953078 0.83867057594974714 0 0.54463902268945019 0.54463902268945019 0 -0.83867057594974714 1 I I #
face $-1 $-1 $316 $41 $-1 $427 forward single #
loop $-1 $-1 $428 $198 #
plane-surface $-1 -50.61922055726798 0 0 1 0 0 0 0 -1 forward_v I I I I #
coedge $-1 $429 $430 $431 $432 reversed $199 $-1 #
coedge $-1 $433 $201 $203 $314 forward $125 $-1 #
coedge $-1 $201 $433 $429 $434 forward $125 $-1 #
coedge $-1 $431 $204 $201 $311 forward $316 $-1 #
edge $-1 $318 -11.029511800625206 $435 3.580096958410218 $310 $436 forward 7 unknown #
coedge $-1 $437 $438 $202 $313 forward $305 $-1 #
edge $-1 $439 -24.90639720138822 $317 -18.600758295672762 $312 $440 forward 7 unknown #
edge $-1 $318 -7.2811245742223809 $439 -2.8450313176714033e-014 $203 $441 forward 7 unknown #
coedge $-1 $204 $431 $437 $442 forward $316 $-1 #
loop $-1 $-1 $431 $304 #
vertex $-1 $313 $443 #
vertex $-1 $205 $444 #
straight-curve $-1 -69.147141592536968 -14.754219221732701 7.1120637038677188 1 0 0 I I #
coedge $-1 $320 $320 $-1 $445 reversed $208 $-1 #
edge $-1 $446 0 $446 6.2831853071796004 $209 $447 forward 7 unknown #
vertex $-1 $212 $448 #
ellipse-curve $-1 -48.798939462486729 -10.580045290579722 3.9592442510099817 -0.86602541151947299 0 0.49999998660252726 0.49999998660252726 0 0.86602541151947299 1 I I #
coedge $-1 $324 $324 $-1 $449 reversed $215 $-1 #
edge $-1 $450 0 $450 6.2831853071796004 $216 $451 forward 7 unknown #
vertex $-1 $219 $452 #
ellipse-curve $-1 -48.798939462486729 -4.3187843938502546 3.9592442510099817 -0.86602541151947299 0 0.49999998660252726 0.49999998660252726 0 0.86602541151947299 1 I I #
face $-1 $-1 $235 $33 $-1 $453 reversed single #
loop $-1 $-1 $344 $220 #
plane-surface $-1 0 29.232070769889187 0 0 -1 0 0 0 -1 forward_v I I I I #
coedge $-1 $454 $342 $345 $455 forward $221 $-1 #
coedge $-1 $348 $223 $224 $336 reversed $139 $-1 #
coedge $-1 $342 $454 $223 $334 reversed $221 $-1 #
edge $-1 $349 -7.1120637038677206 $456 7.1120637038677206 $333 $457 forward 7 unknown #
coedge $-1 $225 $224 $454 $458 forward $89 $-1 #
edge $-1 $340 -50.61922055726798 $456 50.61922055726798 $332 $459 forward 7 unknown #
coedge $-1 $345 $344 $225 $338 reversed $329 $-1 #
edge $-1 $460 -50.61922055726798 $339 50.61922055726798 $337 $461 forward 7 unknown #
vertex $-1 $227 $462 #
vertex $-1 $351 $463 #
straight-curve $-1 50.61922055726798 0 -7.1120637038677206 0 -1 0 I I #
coedge $-1 $331 $333 $228 $343 reversed $221 $-1 #
edge $-1 $346 -29.232070769889187 $349 29.232070769889187 $342 $464 forward 7 unknown #
coedge $-1 $337 $229 $234 $352 forward $329 $-1 #
coedge $-1 $229 $337 $331 $455 reversed $329 $-1 #
vertex $-1 $230 $465 #
straight-curve $-1 0 29.232070769889187 7.1120637038677206 -1 0 0 I I #
coedge $-1 $231 $332 $233 $351 reversed $139 $-1 #
vertex $-1 $343 $466 #
straight-curve $-1 0 -29.232070769889187 7.1120637038677206 1 0 0 I I #
edge $-1 $236 -7.1120637038677206 $340 7.1120637038677206 $233 $467 forward 7 unknown #
edge $-1 $237 -7.1120637038677206 $339 7.1120637038677206 $234 $468 forward 7 unknown #
point $-1 50.61922055726798 -29.232070769889187 7.1120637038677206 #
point $-1 50.61922055726798 29.232070769889187 7.1120637038677206 #
face $-1 $-1 $469 $34 $-1 $470 reversed single #
loop $-1 $-1 $249 $239 #
plane-surface $-1 0 -29.232070769889187 0 0 1 0 0 0 1 forward_v I I I I #
coedge $-1 $471 $242 $362 $472 forward $147 $-1 #
coedge $-1 $242 $471 $473 $474 forward $147 $-1 #
edge $-1 $475 -50.61922055726798 $363 50.61922055726798 $242 $476 forward 7 unknown #
coedge $-1 $244 $243 $477 $478 reversed $93 $-1 #
coedge $-1 $245 $251 $358 $472 reversed $240 $-1 #
vertex $-1 $472 $479 #
straight-curve $-1 50.61922055726798 -22.927231831174833 -2.8060318519338603 0 0 1 I I #
coedge $-1 $477 $480 $247 $366 forward $469 $-1 #
edge $-1 $371 -16.19224511962318 $367 -9.8874061809088278 $365 $481 forward 7 unknown #
vertex $-1 $366 $482 #
straight-curve $-1 0 -22.927231831174833 -4.1120637038677206 -1 0 0 I I #
coedge $-1 $483 $249 $480 $484 forward $356 $-1 #
coedge $-1 $249 $483 $251 $373 reversed $356 $-1 #
vertex $-1 $484 $485 #
straight-curve $-1 0 -29.232070769889187 -4.1120637038677206 -1 0 0 I I #
edge $-1 $253 4.1120637038677206 $486 7.1120637038677206 $251 $487 forward 7 unknown #
point $-1 50.61922055726798 -22.927231831174833 -4.1120637038677206 #
point $-1 50.61922055726798 -29.232070769889187 -4.1120637038677206 #
plane-surface $-1 0 0 7.1120637038677206 0 0 1 1 0 0 forward_v I I I I #
coedge $-1 $387 $386 $379 $488 forward $256 $-1 #
coedge $-1 $379 $258 $260 $383 reversed $155 $-1 #
coedge $-1 $258 $378 $377 $488 reversed $155 $-1 #
coedge $-1 $266 $261 $258 $381 forward $267 $-1 #
edge $-1 $384 6.7266994936180922 $489 10.42596223335493 $380 $490 forward 7 unknown #
coedge $-1 $260 $259 $387 $491 reversed $97 $-1 #
edge $-1 $492 -101.23844111453596 $384 -94.446304331039016 $378 $493 forward 7 unknown #
vertex $-1 $262 $494 #
straight-curve $-1 46.919957817531142 -1.4240528012816025 7.1120637038677117 0 -1 0 I I #
coedge $-1 $377 $263 $266 $391 reversed $256 $-1 #
coedge $-1 $263 $377 $382 $491 forward $256 $-1 #
vertex $-1 $264 $495 #
straight-curve $-1 50.61922055726798 3.1524194693571719 70.729902890364812 0 0 1 I I #
straight-curve $-1 -4.5191850699563361 3.1524194693571719 86.321400153505309 0.54463902268945019 0 -0.83867057594974714 I I #
edge $-1 $489 -8.8486306744835819 $268 3.1524194693571719 $386 $496 forward 7 unknown #
point $-1 50.61922055726798 3.1524194693571719 7.1120637038677206 #
point $-1 46.919957817531142 3.1524194693571719 7.1120637038677188 #
edge $-1 $497 1 $497 0 $271 $-1 forward 7 unknown #
vertex $-1 $272 $498 #
ellipse-curve $-1 46.526675852609912 -5.4197592048147918 2.807316166163635 0.83867057594974714 0 0.54463902268945019 0.54463902268945019 0 -0.83867057594974714 1 I I #
point $-1 49.314228210089006 -5.4197592048147918 3.4252104938455665 #
edge $-1 $499 1 $499 0 $275 $-1 forward 7 unknown #
vertex $-1 $276 $500 #
ellipse-curve $-1 46.526675852609912 -0.2764520003116111 2.807316166163635 0.83867057594974714 0 0.54463902268945019 0.54463902268945019 0 -0.83867057594974714 1 I I #
point $-1 49.314228210089006 -0.2764520003116111 3.4252104938455665 #
plane-surface $-1 50.61922055726798 0 0 -1 0 0 0 0 1 forward_v I I I I #
coedge $-1 $285 $408 $501 $502 reversed $280 $-1 #
coedge $-1 $501 $282 $283 $406 forward $177 $-1 #
coedge $-1 $282 $501 $290 $416 forward $177 $-1 #
edge $-1 $412 -16.577522414479532 $409 -4.5764722706387744 $404 $503 forward 7 unknown #
edge $-1 $410 4.5764722706387744 $293 16.577522414479532 $291 $504 forward 7 unknown #
coedge $-1 $403 $285 $415 $505 reversed $280 $-1 #
vertex $-1 $406 $506 #
vertex $-1 $407 $507 #
straight-curve $-1 -4.5191850699563361 3.1524194693571719 86.321400153505309 0.54463902268945019 0 -0.83867057594974714 I I #
vertex $-1 $289 $508 #
straight-curve $-1 -4.5191850699563361 15.153469613197929 86.321400153505309 0.54463902268945019 0 -0.83867057594974714 I I #
straight-curve $-1 40.193258323913049 15.153469613197929 7.1120637038677188 -1 0 0 I I #
coedge $-1 $291 $290 $408 $505 forward $292 $-1 #
edge $-1 $509 3.1524194693571719 $294 15.153469613197929 $290 $510 forward 7 unknown #
point $-1 50.61922055726798 15.153469613197929 1.4156984357228737 #
point $-1 50.61922055726798 15.153469613197929 7.1120637038677206 #
edge $-1 $511 1 $511 0 $296 $-1 forward 7 unknown #
vertex $-1 $297 $512 #
ellipse-curve $-1 46.526675852609912 6.5812909390259655 2.807316166163635 0.83867057594974714 0 0.54463902268945019 0.54463902268945019 0 -0.83867057594974714 1 I I #
point $-1 49.314228210089006 6.5812909390259655 3.4252104938455665 #
edge $-1 $513 1 $513 0 $300 $-1 forward 7 unknown #
vertex $-1 $301 $514 #
ellipse-curve $-1 46.526675852609912 11.724598143529146 2.807316166163635 0.83867057594974714 0 0.54463902268945019 0.54463902268945019 0 -0.83867057594974714 1 I I #
point $-1 49.314228210089006 11.724598143529146 3.4252104938455665 #
plane-surface $-1 0 0 7.1120637038677206 0 0 1 1 0 0 forward_v I I I I #
coedge $-1 $438 $437 $430 $515 forward $305 $-1 #
coedge $-1 $430 $307 $309 $434 reversed $199 $-1 #
coedge $-1 $307 $429 $428 $515 reversed $199 $-1 #
coedge $-1 $315 $310 $307 $432 forward $316 $-1 #
edge $-1 $435 -22.168483224831498 $516 -18.527921035268989 $431 $517 forward 7 unknown #
coedge $-1 $309 $308 $438 $518 reversed $125 $-1 #
edge $-1 $519 2.8450313176714033e-014 $435 7.2811245742223809 $429 $520 forward 7 unknown #
vertex $-1 $311 $521 #
straight-curve $-1 -46.978658367705471 -3.7247074211074942 7.1120637038677206 0 1 0 I I #
coedge $-1 $428 $312 $315 $442 reversed $305 $-1 #
coedge $-1 $312 $428 $433 $518 forward $305 $-1 #
vertex $-1 $313 $522 #
straight-curve $-1 -50.61922055726798 -14.754219221732701 25.712821999540481 0 0 1 I I #
straight-curve $-1 -50.619220557267994 -14.754219221732701 0.80642479815223567 -0.49999998660252726 0 -0.86602541151947299 I I #
edge $-1 $516 0.14461046269727618 $317 14.754219221732701 $437 $523 forward 7 unknown #
point $-1 -50.61922055726798 -14.754219221732701 7.1120637038677206 #
point $-1 -46.978658367705471 -14.754219221732701 7.1120637038677206 #
edge $-1 $524 1 $524 0 $320 $-1 forward 7 unknown #
vertex $-1 $321 $525 #
ellipse-curve $-1 -45.637406220933954 -10.580045290579722 2.1339322481597178 -0.86602541151947299 0 0.49999998660252726 0.49999998660252726 0 0.86602541151947299 1 I I #
point $-1 -48.29893947588419 -10.580045290579722 4.825269662529446 #
edge $-1 $526 1 $526 0 $324 $-1 forward 7 unknown #
vertex $-1 $325 $527 #
ellipse-curve $-1 -45.637406220933954 -4.3187843938502546 2.1339322481597178 -0.86602541151947299 0 0.49999998660252726 0.49999998660252726 0 0.86602541151947299 1 I I #
point $-1 -48.29893947588419 -4.3187843938502546 4.825269662529446 #
plane-surface $-1 50.61922055726798 0 0 -1 0 0 0 0 1 forward_v I I I I #
coedge $-1 $333 $331 $335 $458 reversed $221 $-1 #
edge $-1 $346 -7.1120637038677206 $460 7.1120637038677206 $345 $528 forward 7 unknown #
vertex $-1 $458 $529 #
straight-curve $-1 -50.61922055726798 -29.232070769889187 0 0 0 -1 I I #
edge $-1 $456 -29.232070769889187 $460 29.232070769889187 $454 $530 forward 7 unknown #
straight-curve $-1 0 -29.232070769889187 -7.1120637038677206 -1 0 0 I I #
vertex $-1 $338 $531 #
straight-curve $-1 0 29.232070769889187 -7.1120637038677206 1 0 0 I I #
point $-1 50.61922055726798 29.232070769889187 -7.1120637038677206 #
point $-1 50.61922055726798 -29.232070769889187 -7.1120637038677206 #
straight-curve $-1 -50.61922055726798 0 7.1120637038677206 0 -1 0 I I #
point $-1 -50.61922055726798 29.232070769889187 7.1120637038677206 #
point $-1 -50.61922055726798 -29.232070769889187 7.1120637038677206 #
straight-curve $-1 50.61922055726798 -29.232070769889187 0 0 0 -1 I I #
straight-curve $-1 50.61922055726798 29.232070769889187 0 0 0 -1 I I #
loop $-1 $-1 $477 $355 #
plane-surface $-1 -50.61922055726798 0 0 1 0 0 0 0 -1 forward_v I I I I #
coedge $-1 $359 $358 $483 $532 forward $147 $-1 #
edge $-1 $363 22.927231831174833 $486 29.232070769889187 $362 $533 forward 7 unknown #
coedge $-1 $480 $477 $359 $474 reversed $469 $-1 #
edge $-1 $534 -29.232070769889187 $475 -22.927231831174833 $473 $535 forward 7 unknown #
vertex $-1 $478 $536 #
straight-curve $-1 0 -22.927231831174833 -7.1120637038677206 1 0 0 I I #
coedge $-1 $473 $365 $361 $478 forward $469 $-1 #
edge $-1 $367 1.3060318519338603 $475 4.3060318519338603 $477 $537 forward 7 unknown #
point $-1 50.61922055726798 -22.927231831174833 -7.1120637038677206 #
coedge $-1 $365 $473 $369 $484 reversed $469 $-1 #
straight-curve $-1 -50.61922055726798 -13.039825650266005 -4.1120637038677206 0 1 0 I I #
point $-1 -50.61922055726798 -22.927231831174833 -4.1120637038677206 #
coedge $-1 $370 $369 $471 $532 reversed $356 $-1 #
edge $-1 $371 4.1120637038677206 $534 7.1120637038677206 $480 $538 forward 7 unknown #
point $-1 -50.61922055726798 -29.232070769889187 -4.1120637038677206 #
vertex $-1 $373 $539 #
straight-curve $-1 50.61922055726798 -29.232070769889187 0 0 0 -1 I I #
edge $-1 $489 63.617839186497093 $492 69.314204454641938 $377 $540 forward 7 unknown #
vertex $-1 $391 $541 #
straight-curve $-1 40.193258323913049 -8.8486306744835819 7.1120637038677188 1 0 0 I I #
edge $-1 $492 -7.4245778732019794 $388 4.5764722706387744 $387 $542 forward 7 unknown #
vertex $-1 $491 $543 #
straight-curve $-1 -4.5191850699563361 -8.8486306744835819 86.321400153505309 -0.54463902268945019 0 0.83867057594974714 I I #
point $-1 46.919957817531142 -8.8486306744835819 7.1120637038677188 #
point $-1 50.61922055726798 3.1524194693571719 1.4156984357228737 #
straight-curve $-1 50.61922055726798 0 7.1120637038677206 0 1 0 I I #
vertex $-1 $394 $544 #
point $-1 47.071314875299365 -5.4197592048147918 1.9686455902138877 #
vertex $-1 $398 $545 #
point $-1 47.071314875299365 -0.2764520003116111 1.9686455902138877 #
coedge $-1 $405 $404 $403 $502 forward $177 $-1 #
edge $-1 $409 6.7266994936180922 $509 10.42596223335493 $501 $546 forward 7 unknown #
straight-curve $-1 46.919957817531142 -1.4240528012816025 7.1120637038677117 0 -1 0 I I #
straight-curve $-1 50.61922055726798 -1.4240528012816025 1.4156984357228737 0 1 0 I I #
edge $-1 $509 63.617839186497093 $410 69.314204454641938 $415 $547 forward 7 unknown #
point $-1 46.919957817531142 3.1524194693571719 7.1120637038677188 #
point $-1 50.61922055726798 3.1524194693571719 1.4156984357228737 #
point $-1 46.919957817531142 15.153469613197929 7.1120637038677188 #
vertex $-1 $416 $548 #
straight-curve $-1 50.61922055726798 0 7.1120637038677206 0 1 0 I I #
vertex $-1 $419 $549 #
point $-1 47.071314875299365 6.5812909390259655 1.9686455902138877 #
vertex $-1 $423 $550 #
point $-1 47.071314875299365 11.724598143529146 1.9686455902138877 #
edge $-1 $516 18.600758295672762 $519 24.90639720138822 $428 $551 forward 7 unknown #
vertex $-1 $442 $552 #
straight-curve $-1 -69.147141592536968 -0.14461046269727618 7.1120637038677188 -1 0 0 I I #
edge $-1 $519 -3.580096958410218 $439 11.029511800625206 $438 $553 forward 7 unknown #
vertex $-1 $518 $554 #
straight-curve $-1 -50.619220557267994 -0.14461046269727618 0.80642479815223567 0.49999998660252726 0 0.86602541151947299 I I #
point $-1 -46.978658367705471 -0.14461046269727618 7.1120637038677206 #
point $-1 -50.61922055726798 -14.754219221732701 0.80642479815226031 #
straight-curve $-1 -50.61922055726798 0 7.1120637038677206 0 -1 0 I I #
vertex $-1 $445 $555 #
point $-1 -45.137406234331429 -10.580045290579722 2.9999576596791906 #
vertex $-1 $449 $556 #
point $-1 -45.137406234331429 -4.3187843938502546 2.9999576596791906 #
straight-curve $-1 -50.61922055726798 29.232070769889187 0 0 0 -1 I I #
point $-1 -50.61922055726798 -29.232070769889187 -7.1120637038677206 #
straight-curve $-1 -50.61922055726798 0 -7.1120637038677206 0 1 0 I I #
point $-1 -50.61922055726798 29.232070769889187 -7.1120637038677206 #
edge $-1 $486 -50.61922055726798 $534 50.61922055726798 $483 $557 forward 7 unknown #
straight-curve $-1 50.61922055726798 0 -7.1120637038677206 0 -1 0 I I #
vertex $-1 $474 $558 #
straight-curve $-1 -50.61922055726798 0 -7.1120637038677206 0 1 0 I I #
point $-1 -50.61922055726798 -22.927231831174833 -7.1120637038677206 #
straight-curve $-1 -50.61922055726798 -22.927231831174833 -2.8060318519338603 0 0 -1 I I #
straight-curve $-1 -50.61922055726798 -29.232070769889187 0 0 0 -1 I I #
point $-1 50.61922055726798 -29.232070769889187 -7.1120637038677206 #
straight-curve $-1 50.61922055726798 -8.8486306744835819 70.729902890364812 0 0 -1 I I #
point $-1 50.61922055726798 -8.8486306744835819 7.1120637038677206 #
straight-curve $-1 50.61922055726798 -1.4240528012816025 1.4156984357228737 0 1 0 I I #
point $-1 50.61922055726798 -8.8486306744835819 1.4156984357228737 #
point $-1 45.688005276660164 -5.4197592048147918 2.2626771434741846 #
point $-1 45.688005276660164 -0.2764520003116111 2.2626771434741846 #
straight-curve $-1 40.193258323913049 3.1524194693571719 7.1120637038677188 1 0 0 I I #
straight-curve $-1 50.61922055726798 3.1524194693571719 70.729902890364812 0 0 -1 I I #
point $-1 50.61922055726798 3.1524194693571719 7.1120637038677206 #
point $-1 45.688005276660164 6.5812909390259655 2.2626771434741846 #
point $-1 45.688005276660164 11.724598143529146 2.2626771434741846 #
straight-curve $-1 -50.61922055726798 -0.14461046269727618 25.712821999540481 0 0 -1 I I #
point $-1 -50.61922055726798 -0.14461046269727618 7.1120637038677206 #
straight-curve $-1 -50.61922055726798 -3.7247074211074942 0.80642479815226464 0 -1 0 I I #
point $-1 -50.61922055726798 -0.14461046269727618 0.80642479815226031 #
point $-1 -44.771380809414481 -10.580045290579722 1.6339322615571905 #
point $-1 -44.771380809414481 -4.3187843938502546 1.6339322615571905 #
straight-curve $-1 0 -29.232070769889187 -7.1120637038677206 -1 0 0 I I #
point $-1 -50.61922055726798 -29.232070769889187 -7.1120637038677206 #
End-of-ACIS-data 