500 0 11 0           
7 Unknown 11 ACIS 5.0 NT 24 Thu Mar 25 23:55:57 1999 
-1 9.9999999999999995e-007 1e-010 
body $-1 $11 $-1 $12 #
body $-1 $13 $-1 $14 #
body $-1 $15 $-1 $16 #
body $-1 $17 $-1 $18 #
body $-1 $19 $-1 $20 #
body $-1 $21 $-1 $22 #
body $-1 $23 $-1 $24 #
body $-1 $25 $-1 $26 #
body $-1 $27 $-1 $28 #
body $-1 $29 $-1 $30 #
body $-1 $31 $-1 $32 #
lump $-1 $-1 $33 $0 #
transform $-1 1 0 0 0 1 0 0 0 1 76.707663197729431 36.915987220800034 12.087966346838339 1 rotate no_reflect no_shear #
lump $-1 $-1 $34 $1 #
transform $-1 1 0 0 0 1 0 0 0 1 76.707663197729431 36.915987220800034 12.087966346838339 1 rotate no_reflect no_shear #
lump $-1 $-1 $35 $2 #
transform $-1 1 0 0 0 1 0 0 0 1 76.707663197729431 36.915987220800034 12.087966346838339 1 rotate no_reflect no_shear #
lump $-1 $-1 $36 $3 #
transform $-1 1 0 0 0 1 0 0 0 1 76.707663197729431 36.915987220800034 12.087966346838339 1 rotate no_reflect no_shear #
lump $-1 $-1 $37 $4 #
transform $-1 1 0 0 0 1 0 0 0 1 76.707663197729431 36.915987220800034 12.087966346838339 1 rotate no_reflect no_shear #
lump $-1 $-1 $38 $5 #
transform $-1 1 0 0 0 1 0 0 0 1 76.707663197729431 36.915987220800034 12.087966346838339 1 rotate no_reflect no_shear #
lump $-1 $-1 $39 $6 #
transform $-1 1 0 0 0 1 0 0 0 1 76.707663197729431 36.915987220800034 12.087966346838339 1 rotate no_reflect no_shear #
lump $-1 $-1 $40 $7 #
transform $-1 1 0 0 0 1 0 0 0 1 76.707663197729431 36.915987220800034 12.087966346838339 1 rotate no_reflect no_shear #
lump $-1 $-1 $41 $8 #
transform $-1 1 0 0 0 1 0 0 0 1 76.707663197729431 36.915987220800034 12.087966346838339 1 rotate no_reflect no_shear #
lump $-1 $-1 $42 $9 #
transform $-1 1 0 0 0 1 0 0 0 1 76.707663197729431 36.915987220800034 12.087966346838339 1 rotate no_reflect no_shear #
lump $-1 $-1 $43 $10 #
transform $-1 1 0 0 0 1 0 0 0 1 76.707663197729431 36.915987220800034 12.087966346838339 1 rotate no_reflect no_shear #
shell $-1 $-1 $-1 $44 $-1 $11 #
shell $-1 $-1 $-1 $45 $-1 $13 #
shell $-1 $-1 $-1 $46 $-1 $15 #
shell $-1 $-1 $-1 $47 $-1 $17 #
shell $-1 $-1 $-1 $48 $-1 $19 #
shell $-1 $-1 $-1 $49 $-1 $21 #
shell $-1 $-1 $-1 $50 $-1 $23 #
shell $-1 $-1 $-1 $51 $-1 $25 #
shell $-1 $-1 $-1 $52 $-1 $27 #
shell $-1 $-1 $-1 $53 $-1 $29 #
shell $-1 $-1 $-1 $54 $-1 $31 #
face $-1 $55 $56 $33 $-1 $57 forward single #
face $-1 $58 $59 $34 $-1 $60 reversed single #
face $-1 $61 $62 $35 $-1 $63 reversed single #
face $-1 $64 $65 $36 $-1 $66 reversed single #
face $-1 $67 $68 $37 $-1 $69 forward single #
face $-1 $70 $71 $38 $-1 $72 forward single #
face $-1 $73 $74 $39 $-1 $75 forward single #
face $-1 $76 $77 $40 $-1 $78 reversed single #
face $-1 $79 $80 $41 $-1 $81 forward single #
face $-1 $82 $83 $42 $-1 $84 reversed single #
face $-1 $85 $86 $43 $-1 $87 forward single #
face $-1 $88 $89 $33 $-1 $90 reversed single #
loop $-1 $-1 $91 $44 #
plane-surface $-1 0 0 12.087966346838339 0 0 1 1 0 0 forward_v I I I I #
face $-1 $92 $93 $34 $-1 $94 reversed single #
loop $-1 $-1 $95 $45 #
plane-surface $-1 -55.531730504052753 -31.676087880756597 0 1 0 0 0 0 -1 forward_v I I I I #
face $-1 $96 $97 $35 $-1 $98 reversed single #
loop $-1 $-1 $99 $46 #
plane-surface $-1 -54.031730504052753 26.436188540713161 0 0 1 0 0 0 1 forward_v I I I I #
face $-1 $100 $101 $36 $-1 $102 reversed single #
loop $-1 $-1 $103 $47 #
plane-surface $-1 95.617153315608931 24.17542794441643 220.66113623968442 0 -1 0 -0.7660444514056185 0 -0.64278759981090561 forward_v I I I I #
face $-1 $104 $105 $37 $-1 $106 forward single #
loop $-1 $107 $108 $48 #
cone-surface $-1 73.15147710245445 14.414324421266024 7.9849430064724976 -0.7660444514056185 0 -0.64278759981090561 0.3213937999054528 0 -0.38302222570280925 1 I I 0 1 0.5 forward I I I I #
face $-1 $109 $110 $38 $-1 $111 forward single #
loop $-1 $112 $113 $49 #
cone-surface $-1 73.15147710245445 18.074738242447424 7.9849430064724976 -0.7660444514056185 0 -0.64278759981090561 0.3213937999054528 0 -0.38302222570280925 1 I I 0 1 0.5 forward I I I I #
face $-1 $114 $115 $39 $-1 $116 forward single #
loop $-1 $117 $118 $50 #
cone-surface $-1 73.15147710245445 21.735152063628824 7.9849430064724976 -0.7660444514056185 0 -0.64278759981090561 0.3213937999054528 0 -0.38302222570280925 1 I I 0 1 0.5 forward I I I I #
face $-1 $119 $120 $40 $-1 $121 reversed single #
loop $-1 $-1 $122 $51 #
plane-surface $-1 -199.23059190431692 -16.666976576757769 93.014645422639546 0 1 0 -0.79863551827123203 0 0.60181501223851219 forward_v I I I I #
face $-1 $123 $124 $41 $-1 $125 forward single #
loop $-1 $126 $127 $52 #
cone-surface $-1 -71.127672382754298 -11.44308452968648 5.4196416845931754 0.79863551827123203 0 -0.60181501223851219 1.2036300244770244 0 1.5972710365424641 1 I I 0 1 2 forward I I I I #
face $-1 $128 $129 $42 $-1 $130 reversed single #
loop $-1 $-1 $131 $53 #
plane-surface $-1 -199.23059190431692 6.2191924826151848 93.014645422639546 0 1 0 -0.79863551827123203 0 0.60181501223851219 forward_v I I I I #
face $-1 $132 $133 $43 $-1 $134 forward single #
loop $-1 $135 $136 $54 #
cone-surface $-1 -71.127672382754298 11.443084529686473 5.4196416845931754 0.79863551827123203 0 -0.60181501223851219 1.2036300244770244 0 1.5972710365424641 1 I I 0 1 2 forward I I I I #
face $-1 $137 $138 $33 $-1 $139 reversed single #
loop $-1 $-1 $140 $55 #
plane-surface $-1 0 0 -12.087966346838339 0 0 1 1 0 0 forward_v I I I I #
coedge $-1 $141 $142 $143 $144 forward $56 $-1 #
face $-1 $145 $146 $34 $-1 $147 reversed single #
loop $-1 $-1 $148 $58 #
plane-surface $-1 -54.031730504052753 -26.436188540713161 0 0 -1 0 0 0 -1 forward_v I I I I #
coedge $-1 $149 $150 $151 $152 forward $59 $-1 #
face $-1 $153 $154 $35 $-1 $155 reversed single #
loop $-1 $-1 $156 $61 #
plane-surface $-1 -55.531730504052753 31.676087880756597 0 1 0 0 0 0 -1 forward_v I I I I #
coedge $-1 $157 $158 $159 $160 forward $62 $-1 #
face $-1 $161 $162 $36 $-1 $163 reversed single #
loop $-1 $-1 $164 $64 #
plane-surface $-1 -21.905806230214253 18.074738242447424 122.04766681174075 0.7660444514056185 0 0.64278759981090561 0.64278759981090561 0 -0.7660444514056185 forward_v I I I I #
coedge $-1 $165 $166 $167 $168 reversed $65 $-1 #
face $-1 $-1 $169 $37 $-1 $170 forward single #
loop $-1 $171 $172 $67 #
cone-surface $-1 72.576943763900232 14.414324421266024 7.5028523066143187 -0.7660444514056185 0 -0.64278759981090561 0.1606968999527264 0 -0.19151111285140462 1 I I -0.70710678118654746 0.70710678118654746 0.25 forward I I I I #
loop $-1 $-1 $173 $48 #
coedge $-1 $108 $108 $174 $175 reversed $68 $-1 #
face $-1 $-1 $176 $38 $-1 $177 forward single #
loop $-1 $178 $179 $70 #
cone-surface $-1 72.576943763900232 18.074738242447424 7.5028523066143187 -0.7660444514056185 0 -0.64278759981090561 0.1606968999527264 0 -0.19151111285140462 1 I I -0.70710678118654746 0.70710678118654746 0.25 forward I I I I #
loop $-1 $-1 $180 $49 #
coedge $-1 $113 $113 $181 $182 reversed $71 $-1 #
face $-1 $-1 $183 $39 $-1 $184 forward single #
loop $-1 $185 $186 $73 #
cone-surface $-1 72.576943763900232 21.735152063628824 7.5028523066143187 -0.7660444514056185 0 -0.64278759981090561 0.1606968999527264 0 -0.19151111285140462 1 I I -0.70710678118654746 0.70710678118654746 0.25 forward I I I I #
loop $-1 $-1 $187 $50 #
coedge $-1 $118 $118 $188 $189 reversed $74 $-1 #
face $-1 $190 $191 $40 $-1 $192 reversed single #
loop $-1 $-1 $193 $76 #
plane-surface $-1 -76.707663197729417 -11.44308452968648 0.68699889038113326 -0.79863551827123203 0 0.60181501223851219 0.60181501223851219 0 0.79863551827123203 forward_v I I I I #
coedge $-1 $194 $195 $196 $197 reversed $77 $-1 #
face $-1 $-1 $198 $41 $-1 $199 forward single #
loop $-1 $200 $201 $79 #
cone-surface $-1 -69.044668528327151 -11.44308452968648 3.849985738338102 0.79863551827123203 0 -0.60181501223851219 0.60181501223851219 0 0.79863551827123203 1 I I -0.70710678118654768 0.70710678118654735 1 forward I I I I #
loop $-1 $-1 $202 $52 #
coedge $-1 $127 $127 $203 $204 reversed $80 $-1 #
face $-1 $205 $206 $42 $-1 $207 reversed single #
loop $-1 $-1 $208 $82 #
plane-surface $-1 -76.707663197729417 11.443084529686473 0.68699889038113326 -0.79863551827123203 0 0.60181501223851219 0.60181501223851219 0 0.79863551827123203 forward_v I I I I #
coedge $-1 $209 $210 $211 $212 reversed $83 $-1 #
face $-1 $-1 $213 $43 $-1 $214 forward single #
loop $-1 $215 $216 $85 #
cone-surface $-1 -69.044668528327151 11.443084529686473 3.849985738338102 0.79863551827123203 0 -0.60181501223851219 0.60181501223851219 0 0.79863551827123203 1 I I -0.70710678118654768 0.70710678118654735 1 forward I I I I #
loop $-1 $-1 $217 $54 #
coedge $-1 $136 $136 $218 $219 reversed $86 $-1 #
face $-1 $220 $221 $33 $-1 $222 reversed single #
loop $-1 $-1 $223 $88 #
plane-surface $-1 0 -36.915987220800034 0 0 1 0 0 0 1 forward_v I I I I #
coedge $-1 $224 $225 $226 $227 forward $89 $-1 #
coedge $-1 $228 $91 $229 $230 forward $56 $-1 #
coedge $-1 $91 $228 $231 $232 forward $56 $-1 #
coedge $-1 $233 $234 $91 $144 reversed $235 $-1 #
edge $-1 $236 -36.915987220800034 $237 36.915987220800034 $143 $238 forward 7 unknown #
face $-1 $239 $240 $34 $-1 $241 forward single #
loop $-1 $-1 $242 $92 #
plane-surface $-1 -52.531730504052753 -31.676087880756597 0 -1 0 0 0 0 1 forward_v I I I I #
coedge $-1 $243 $244 $245 $246 forward $93 $-1 #
coedge $-1 $247 $95 $248 $249 reversed $59 $-1 #
coedge $-1 $95 $247 $250 $251 reversed $59 $-1 #
coedge $-1 $244 $243 $95 $152 reversed $93 $-1 #
edge $-1 $252 -12.087966346838339 $253 12.087966346838339 $151 $254 forward 7 unknown #
face $-1 $255 $256 $35 $-1 $257 reversed single #
loop $-1 $-1 $258 $96 #
plane-surface $-1 -52.531730504052753 31.676087880756597 0 -1 0 0 0 0 1 forward_v I I I I #
coedge $-1 $259 $260 $261 $262 reversed $97 $-1 #
coedge $-1 $263 $99 $264 $265 reversed $62 $-1 #
coedge $-1 $99 $263 $266 $267 reversed $62 $-1 #
coedge $-1 $260 $259 $99 $160 reversed $97 $-1 #
edge $-1 $268 -12.087966346838339 $269 12.087966346838339 $159 $270 forward 7 unknown #
face $-1 $271 $272 $36 $-1 $273 forward single #
loop $-1 $-1 $274 $100 #
plane-surface $-1 95.617153315608931 11.974048540478417 220.66113623968442 0 1 0 0.7660444514056185 0 0.64278759981090561 forward_v I I I I #
coedge $-1 $275 $276 $277 $278 reversed $101 $-1 #
coedge $-1 $166 $103 $279 $280 reversed $65 $-1 #
coedge $-1 $103 $165 $275 $281 reversed $65 $-1 #
coedge $-1 $277 $282 $103 $168 forward $272 $-1 #
edge $-1 $283 -28.899086539924966 $284 -22.552758800780595 $167 $285 forward 7 unknown #
loop $-1 $-1 $174 $104 #
plane-surface $-1 -21.905806230214253 18.074738242447424 122.04766681174075 0.7660444514056185 0 0.64278759981090561 0.64278759981090561 0 -0.7660444514056185 forward_v I I I I #
loop $-1 $-1 $286 $67 #
coedge $-1 $172 $172 $173 $287 reversed $105 $-1 #
coedge $-1 $173 $173 $172 $287 forward $107 $-1 #
coedge $-1 $174 $174 $108 $175 forward $169 $-1 #
edge $-1 $288 0 $288 6.2831853071796004 $174 $289 forward 7 unknown #
loop $-1 $-1 $181 $109 #
plane-surface $-1 -21.905806230214253 18.074738242447424 122.04766681174075 0.7660444514056185 0 0.64278759981090561 0.64278759981090561 0 -0.7660444514056185 forward_v I I I I #
loop $-1 $-1 $290 $70 #
coedge $-1 $179 $179 $180 $291 reversed $110 $-1 #
coedge $-1 $180 $180 $179 $291 forward $112 $-1 #
coedge $-1 $181 $181 $113 $182 forward $176 $-1 #
edge $-1 $292 0 $292 6.2831853071796004 $181 $293 forward 7 unknown #
loop $-1 $-1 $188 $114 #
plane-surface $-1 -21.905806230214253 18.074738242447424 122.04766681174075 0.7660444514056185 0 0.64278759981090561 0.64278759981090561 0 -0.7660444514056185 forward_v I I I I #
loop $-1 $-1 $294 $73 #
coedge $-1 $186 $186 $187 $295 reversed $115 $-1 #
coedge $-1 $187 $187 $186 $295 forward $117 $-1 #
coedge $-1 $188 $188 $118 $189 forward $183 $-1 #
edge $-1 $296 0 $296 6.2831853071796004 $188 $297 forward 7 unknown #
face $-1 $298 $299 $40 $-1 $300 reversed single #
loop $-1 $-1 $301 $119 #
plane-surface $-1 -199.23059190431692 -6.2191924826151919 93.014645422639546 0 -1 0 0.79863551827123203 0 -0.60181501223851219 forward_v I I I I #
coedge $-1 $302 $303 $304 $305 reversed $120 $-1 #
coedge $-1 $195 $122 $306 $307 reversed $77 $-1 #
coedge $-1 $122 $194 $302 $308 reversed $77 $-1 #
coedge $-1 $304 $309 $122 $197 forward $310 $-1 #
edge $-1 $311 22.907632754429031 $312 31.498877712067468 $196 $313 forward 7 unknown #
loop $-1 $-1 $203 $123 #
plane-surface $-1 -76.707663197729417 -11.44308452968648 0.68699889038113326 -0.79863551827123203 0 0.60181501223851219 0.60181501223851219 0 0.79863551827123203 forward_v I I I I #
loop $-1 $-1 $314 $79 #
coedge $-1 $201 $201 $202 $315 reversed $124 $-1 #
coedge $-1 $202 $202 $201 $315 forward $126 $-1 #
coedge $-1 $203 $203 $127 $204 forward $198 $-1 #
edge $-1 $316 0 $316 6.2831853071796004 $203 $317 forward 7 unknown #
face $-1 $318 $319 $42 $-1 $320 forward single #
loop $-1 $-1 $321 $128 #
plane-surface $-1 -199.23059190431692 16.666976576757762 93.014645422639546 0 -1 0 0.79863551827123203 0 -0.60181501223851219 forward_v I I I I #
coedge $-1 $322 $323 $324 $325 reversed $129 $-1 #
coedge $-1 $210 $131 $326 $327 reversed $83 $-1 #
coedge $-1 $131 $209 $322 $328 reversed $83 $-1 #
coedge $-1 $324 $329 $131 $212 forward $319 $-1 #
edge $-1 $330 22.907632754429031 $331 31.498877712067468 $211 $332 forward 7 unknown #
loop $-1 $-1 $218 $132 #
plane-surface $-1 -76.707663197729417 11.443084529686473 0.68699889038113326 -0.79863551827123203 0 0.60181501223851219 0.60181501223851219 0 0.79863551827123203 forward_v I I I I #
loop $-1 $-1 $333 $85 #
coedge $-1 $216 $216 $217 $334 reversed $133 $-1 #
coedge $-1 $217 $217 $216 $334 forward $135 $-1 #
coedge $-1 $218 $218 $136 $219 forward $213 $-1 #
edge $-1 $335 0 $335 6.2831853071796004 $218 $336 forward 7 unknown #
face $-1 $337 $338 $33 $-1 $339 reversed single #
loop $-1 $-1 $340 $137 #
plane-surface $-1 -76.707663197729431 0 0 1 0 0 0 0 -1 forward_v I I I I #
coedge $-1 $341 $231 $342 $343 forward $138 $-1 #
coedge $-1 $344 $140 $341 $345 forward $89 $-1 #
coedge $-1 $140 $344 $346 $347 forward $89 $-1 #
coedge $-1 $234 $233 $140 $227 reversed $235 $-1 #
edge $-1 $348 -36.915987220800034 $349 36.915987220800034 $226 $350 forward 7 unknown #
coedge $-1 $142 $141 $351 $352 forward $56 $-1 #
coedge $-1 $353 $354 $141 $230 reversed $338 $-1 #
edge $-1 $237 -76.707663197729431 $355 76.707663197729431 $229 $356 forward 7 unknown #
coedge $-1 $223 $357 $142 $232 reversed $138 $-1 #
edge $-1 $358 -76.707663197729431 $236 76.707663197729431 $231 $359 forward 7 unknown #
coedge $-1 $226 $143 $357 $360 forward $235 $-1 #
coedge $-1 $143 $226 $353 $361 reversed $235 $-1 #
loop $-1 $-1 $233 $337 #
vertex $-1 $144 $362 #
vertex $-1 $144 $363 #
straight-curve $-1 76.707663197729431 0 12.087966346838339 0 1 0 I I #
face $-1 $364 $365 $34 $-1 $366 reversed single #
loop $-1 $-1 $367 $145 #
plane-surface $-1 0 0 12.087966346838339 0 0 1 1 0 0 forward_v I I I I #
coedge $-1 $368 $369 $370 $371 reversed $146 $-1 #
coedge $-1 $151 $148 $372 $373 reversed $93 $-1 #
coedge $-1 $148 $151 $374 $375 reversed $93 $-1 #
coedge $-1 $369 $368 $148 $246 reversed $146 $-1 #
edge $-1 $376 -12.087966346838339 $377 12.087966346838339 $245 $378 forward 7 unknown #
coedge $-1 $150 $149 $379 $380 reversed $59 $-1 #
coedge $-1 $372 $381 $149 $249 forward $365 $-1 #
edge $-1 $382 -21.077943280421735 $253 -10.598144600334862 $248 $383 forward 7 unknown #
coedge $-1 $384 $374 $150 $251 forward $240 $-1 #
edge $-1 $252 10.598144600334862 $385 21.077943280421735 $250 $386 forward 7 unknown #
vertex $-1 $251 $387 #
vertex $-1 $249 $388 #
straight-curve $-1 -55.531730504052753 -26.436188540713161 0 0 0 -1 I I #
face $-1 $389 $390 $35 $-1 $391 forward single #
loop $-1 $-1 $392 $153 #
plane-surface $-1 0 0 -12.087966346838339 0 0 1 1 0 0 forward_v I I I I #
coedge $-1 $393 $394 $263 $395 forward $154 $-1 #
coedge $-1 $159 $156 $396 $397 reversed $97 $-1 #
coedge $-1 $156 $159 $398 $399 reversed $97 $-1 #
coedge $-1 $400 $401 $156 $262 forward $402 $-1 #
edge $-1 $403 -12.087966346838339 $404 12.087966346838339 $261 $405 forward 7 unknown #
coedge $-1 $158 $157 $258 $395 reversed $62 $-1 #
coedge $-1 $396 $392 $157 $265 forward $256 $-1 #
edge $-1 $406 25.515865252026376 $269 28.515865252026376 $264 $407 forward 7 unknown #
coedge $-1 $408 $398 $158 $267 forward $390 $-1 #
edge $-1 $268 -28.515865252026376 $409 -25.515865252026376 $266 $410 forward 7 unknown #
vertex $-1 $267 $411 #
vertex $-1 $265 $412 #
straight-curve $-1 -55.531730504052753 26.436188540713161 0 0 0 -1 I I #
face $-1 $-1 $413 $36 $-1 $414 reversed single #
loop $-1 $-1 $167 $161 #
plane-surface $-1 0 0 12.087966346838339 0 0 1 1 0 0 forward_v I I I I #
coedge $-1 $415 $416 $417 $418 reversed $162 $-1 #
coedge $-1 $419 $164 $166 $281 forward $101 $-1 #
coedge $-1 $164 $419 $415 $420 forward $101 $-1 #
coedge $-1 $417 $167 $164 $278 forward $272 $-1 #
edge $-1 $284 -15.138058823192718 $421 -2.9366794192547054 $277 $422 forward 7 unknown #
coedge $-1 $423 $424 $165 $280 forward $413 $-1 #
edge $-1 $425 -105.80586085392466 $283 -98.242601773003869 $279 $426 forward 7 unknown #
edge $-1 $284 143.54219296691841 $425 153.41532639545892 $166 $427 forward 7 unknown #
coedge $-1 $167 $417 $423 $428 forward $272 $-1 #
vertex $-1 $168 $429 #
vertex $-1 $168 $430 #
straight-curve $-1 47.808576657804466 24.17542794441643 12.087966346838343 -1 0 0 I I #
coedge $-1 $286 $286 $-1 $431 reversed $171 $-1 #
edge $-1 $432 0 $432 6.2831853071796004 $172 $433 forward 7 unknown #
vertex $-1 $175 $434 #
ellipse-curve $-1 73.534499328157253 14.414324421266024 8.3063368063779404 0.7660444514056185 0 0.64278759981090561 0.3213937999054528 0 -0.38302222570280925 1 I I #
coedge $-1 $290 $290 $-1 $435 reversed $178 $-1 #
edge $-1 $436 0 $436 6.2831853071796004 $179 $437 forward 7 unknown #
vertex $-1 $182 $438 #
ellipse-curve $-1 73.534499328157253 18.074738242447424 8.3063368063779404 0.7660444514056185 0 0.64278759981090561 0.3213937999054528 0 -0.38302222570280925 1 I I #
coedge $-1 $294 $294 $-1 $439 reversed $185 $-1 #
edge $-1 $440 0 $440 6.2831853071796004 $186 $441 forward 7 unknown #
vertex $-1 $189 $442 #
ellipse-curve $-1 73.534499328157253 21.735152063628824 8.3063368063779404 0.7660444514056185 0 0.64278759981090561 0.3213937999054528 0 -0.38302222570280925 1 I I #
face $-1 $-1 $310 $40 $-1 $443 forward single #
loop $-1 $-1 $444 $190 #
plane-surface $-1 -76.707663197729431 0 0 1 0 0 0 0 -1 forward_v I I I I #
coedge $-1 $445 $446 $447 $448 reversed $191 $-1 #
coedge $-1 $449 $193 $195 $308 forward $120 $-1 #
coedge $-1 $193 $449 $445 $450 forward $120 $-1 #
coedge $-1 $447 $196 $193 $305 forward $310 $-1 #
edge $-1 $312 -10.945434311914529 $451 -0.49765021777195173 $304 $452 forward 7 unknown #
coedge $-1 $453 $454 $194 $307 forward $299 $-1 #
edge $-1 $455 -45.820323820938661 $311 -34.41935636448143 $306 $456 forward 7 unknown #
edge $-1 $312 -14.275557742706376 $455 2.3625585895707848e-014 $195 $457 forward 7 unknown #
coedge $-1 $196 $447 $453 $458 forward $310 $-1 #
loop $-1 $-1 $447 $298 #
vertex $-1 $307 $459 #
vertex $-1 $197 $460 #
straight-curve $-1 -99.615295952158462 -16.666976576757769 12.087966346838336 1 0 0 I I #
coedge $-1 $314 $314 $-1 $461 reversed $200 $-1 #
edge $-1 $462 0 $462 6.2831853071796004 $201 $463 forward 7 unknown #
vertex $-1 $204 $464 #
ellipse-curve $-1 -72.412040718910205 -11.44308452968648 6.3874826186097327 -0.79863551827123203 0 0.60181501223851219 1.2036300244770244 0 1.5972710365424641 1 I I #
face $-1 $-1 $465 $42 $-1 $466 reversed single #
loop $-1 $-1 $211 $205 #
plane-surface $-1 0 0 12.087966346838339 0 0 1 1 0 0 forward_v I I I I #
coedge $-1 $467 $468 $469 $470 reversed $206 $-1 #
coedge $-1 $471 $208 $210 $328 forward $129 $-1 #
coedge $-1 $208 $471 $467 $472 forward $129 $-1 #
coedge $-1 $469 $211 $208 $325 forward $319 $-1 #
edge $-1 $331 0.49765021777194818 $473 10.945434311914525 $324 $474 forward 7 unknown #
coedge $-1 $475 $476 $209 $327 forward $465 $-1 #
edge $-1 $477 -45.820323820938661 $330 -34.41935636448143 $326 $478 forward 7 unknown #
edge $-1 $331 -14.275557742706376 $477 2.3625585895707848e-014 $210 $479 forward 7 unknown #
coedge $-1 $211 $469 $475 $480 forward $319 $-1 #
vertex $-1 $327 $481 #
vertex $-1 $212 $482 #
straight-curve $-1 -99.615295952158462 6.2191924826151848 12.087966346838336 1 0 0 I I #
coedge $-1 $333 $333 $-1 $483 reversed $215 $-1 #
edge $-1 $484 0 $484 6.2831853071796004 $216 $485 forward 7 unknown #
vertex $-1 $219 $486 #
ellipse-curve $-1 -72.412040718910205 11.443084529686473 6.3874826186097327 -0.79863551827123203 0 0.60181501223851219 1.2036300244770244 0 1.5972710365424641 1 I I #
face $-1 $-1 $235 $33 $-1 $487 reversed single #
loop $-1 $-1 $353 $220 #
plane-surface $-1 0 36.915987220800034 0 0 -1 0 0 0 -1 forward_v I I I I #
coedge $-1 $488 $351 $354 $489 forward $221 $-1 #
coedge $-1 $357 $223 $224 $345 reversed $138 $-1 #
coedge $-1 $351 $488 $223 $343 reversed $221 $-1 #
edge $-1 $358 -12.087966346838339 $490 12.087966346838339 $342 $491 forward 7 unknown #
coedge $-1 $225 $224 $488 $492 forward $89 $-1 #
edge $-1 $349 -76.707663197729431 $490 76.707663197729431 $341 $493 forward 7 unknown #
coedge $-1 $354 $353 $225 $347 reversed $338 $-1 #
edge $-1 $494 -76.707663197729431 $348 76.707663197729431 $346 $495 forward 7 unknown #
vertex $-1 $227 $496 #
vertex $-1 $360 $497 #
straight-curve $-1 76.707663197729431 0 -12.087966346838339 0 -1 0 I I #
coedge $-1 $340 $342 $228 $352 reversed $221 $-1 #
edge $-1 $355 -36.915987220800034 $358 36.915987220800034 $351 $498 forward 7 unknown #
coedge $-1 $346 $229 $234 $361 forward $338 $-1 #
coedge $-1 $229 $346 $340 $489 reversed $338 $-1 #
vertex $-1 $230 $499 #
straight-curve $-1 0 36.915987220800034 12.087966346838339 -1 0 0 I I #
coedge $-1 $231 $341 $233 $360 reversed $138 $-1 #
vertex $-1 $352 $500 #
straight-curve $-1 0 -36.915987220800034 12.087966346838339 1 0 0 I I #
edge $-1 $236 -12.087966346838339 $349 12.087966346838339 $233 $501 forward 7 unknown #
edge $-1 $237 -12.087966346838339 $348 12.087966346838339 $234 $502 forward 7 unknown #
point $-1 76.707663197729431 -36.915987220800034 12.087966346838339 #
point $-1 76.707663197729431 36.915987220800034 12.087966346838339 #
face $-1 $-1 $503 $34 $-1 $504 reversed single #
loop $-1 $-1 $505 $239 #
plane-surface $-1 0 0 -12.087966346838339 0 0 1 1 0 0 forward_v I I I I #
coedge $-1 $374 $384 $369 $506 forward $240 $-1 #
coedge $-1 $245 $242 $505 $507 reversed $146 $-1 #
coedge $-1 $242 $245 $367 $506 reversed $146 $-1 #
coedge $-1 $508 $509 $242 $371 forward $503 $-1 #
edge $-1 $510 -12.087966346838339 $511 12.087966346838339 $370 $512 forward 7 unknown #
coedge $-1 $505 $248 $243 $373 forward $365 $-1 #
edge $-1 $253 -28.515865252026376 $377 -25.515865252026376 $372 $513 forward 7 unknown #
coedge $-1 $250 $367 $244 $375 forward $240 $-1 #
edge $-1 $376 25.515865252026376 $252 28.515865252026376 $374 $514 forward 7 unknown #
vertex $-1 $375 $515 #
vertex $-1 $373 $516 #
straight-curve $-1 -52.531730504052753 -26.436188540713161 0 0 0 -1 I I #
coedge $-1 $509 $508 $247 $380 forward $503 $-1 #
edge $-1 $385 -12.087966346838339 $382 12.087966346838339 $379 $517 forward 7 unknown #
coedge $-1 $248 $505 $509 $518 forward $365 $-1 #
vertex $-1 $249 $519 #
straight-curve $-1 -55.531730504052753 -15.838043940378299 -12.087966346838339 0 1 0 I I #
coedge $-1 $367 $250 $508 $520 forward $240 $-1 #
vertex $-1 $520 $521 #
straight-curve $-1 -55.531730504052753 -15.838043940378299 12.087966346838339 0 -1 0 I I #
point $-1 -55.531730504052753 -26.436188540713161 12.087966346838339 #
point $-1 -55.531730504052753 -26.436188540713161 -12.087966346838339 #
face $-1 $-1 $402 $35 $-1 $522 reversed single #
loop $-1 $-1 $408 $255 #
plane-surface $-1 0 0 12.087966346838339 0 0 1 1 0 0 forward_v I I I I #
coedge $-1 $264 $523 $393 $524 forward $256 $-1 #
coedge $-1 $525 $258 $392 $524 reversed $154 $-1 #
coedge $-1 $258 $525 $408 $526 reversed $154 $-1 #
edge $-1 $409 -12.087966346838339 $406 12.087966346838339 $258 $527 forward 7 unknown #
coedge $-1 $523 $264 $259 $397 forward $256 $-1 #
edge $-1 $269 10.598144600334862 $403 21.077943280421735 $396 $528 forward 7 unknown #
coedge $-1 $266 $529 $260 $399 forward $390 $-1 #
edge $-1 $404 -21.077943280421735 $268 -10.598144600334862 $398 $530 forward 7 unknown #
coedge $-1 $531 $261 $529 $532 reversed $402 $-1 #
coedge $-1 $261 $531 $523 $533 reversed $402 $-1 #
loop $-1 $-1 $531 $389 #
vertex $-1 $533 $534 #
vertex $-1 $262 $535 #
straight-curve $-1 -55.531730504052753 36.915987220800034 0 0 0 1 I I #
vertex $-1 $265 $536 #
straight-curve $-1 -27.015865252026376 26.436188540713161 -12.087966346838339 -1 0 0 I I #
coedge $-1 $529 $266 $394 $526 forward $390 $-1 #
vertex $-1 $267 $537 #
straight-curve $-1 -27.015865252026376 26.436188540713161 12.087966346838339 1 0 0 I I #
point $-1 -55.531730504052753 26.436188540713161 12.087966346838339 #
point $-1 -55.531730504052753 26.436188540713161 -12.087966346838339 #
loop $-1 $-1 $279 $271 #
plane-surface $-1 76.707663197729431 0 0 -1 0 0 0 0 1 forward_v I I I I #
coedge $-1 $416 $274 $276 $420 reversed $162 $-1 #
coedge $-1 $274 $415 $538 $539 reversed $162 $-1 #
coedge $-1 $282 $277 $274 $418 forward $272 $-1 #
edge $-1 $421 22.552758800780595 $540 28.899086539924966 $417 $541 forward 7 unknown #
coedge $-1 $276 $275 $424 $542 reversed $101 $-1 #
edge $-1 $543 -153.41532639545892 $421 -143.54219296691841 $415 $544 forward 7 unknown #
vertex $-1 $278 $545 #
straight-curve $-1 70.361335458585046 9.0373691212237119 12.087966346838343 0 -1 0 I I #
coedge $-1 $538 $279 $282 $428 reversed $413 $-1 #
coedge $-1 $279 $538 $419 $542 forward $413 $-1 #
vertex $-1 $280 $546 #
straight-curve $-1 76.707663197729431 24.17542794441643 110.33056811984221 0 0 1 I I #
straight-curve $-1 -21.905806230214253 24.17542794441643 122.04766681174075 0.64278759981090561 0 -0.7660444514056185 I I #
edge $-1 $540 11.974048540478417 $283 24.17542794441643 $423 $547 forward 7 unknown #
point $-1 76.707663197729431 24.17542794441643 12.087966346838339 #
point $-1 70.36133545858506 24.17542794441643 12.087966346838343 #
edge $-1 $548 1 $548 0 $286 $-1 forward 7 unknown #
vertex $-1 $287 $549 #
ellipse-curve $-1 72.768454876751633 14.414324421266024 7.663549206567045 0.7660444514056185 0 0.64278759981090561 0.3213937999054528 0 -0.38302222570280925 1 I I #
point $-1 73.855893128062704 14.414324421266024 7.9233145806751413 #
edge $-1 $550 1 $550 0 $290 $-1 forward 7 unknown #
vertex $-1 $291 $551 #
ellipse-curve $-1 72.768454876751633 18.074738242447424 7.663549206567045 0.7660444514056185 0 0.64278759981090561 0.3213937999054528 0 -0.38302222570280925 1 I I #
point $-1 73.855893128062704 18.074738242447424 7.9233145806751413 #
edge $-1 $552 1 $552 0 $294 $-1 forward 7 unknown #
vertex $-1 $295 $553 #
ellipse-curve $-1 72.768454876751633 21.735152063628824 7.663549206567045 0.7660444514056185 0 0.64278759981090561 0.3213937999054528 0 -0.38302222570280925 1 I I #
point $-1 73.855893128062704 21.735152063628824 7.9233145806751413 #
plane-surface $-1 0 0 12.087966346838339 0 0 1 1 0 0 forward_v I I I I #
coedge $-1 $454 $453 $446 $554 forward $299 $-1 #
coedge $-1 $446 $301 $303 $450 reversed $191 $-1 #
coedge $-1 $301 $445 $444 $554 reversed $191 $-1 #
coedge $-1 $309 $304 $301 $448 forward $310 $-1 #
edge $-1 $451 -31.498877712067468 $555 -22.907632754429031 $447 $556 forward 7 unknown #
coedge $-1 $303 $302 $454 $557 reversed $120 $-1 #
edge $-1 $558 -2.3625585895707848e-014 $451 14.275557742706376 $445 $559 forward 7 unknown #
vertex $-1 $305 $560 #
straight-curve $-1 -68.116418240090979 -5.7215422648432401 12.087966346838339 0 1 0 I I #
coedge $-1 $444 $306 $309 $458 reversed $299 $-1 #
coedge $-1 $306 $444 $449 $557 forward $299 $-1 #
vertex $-1 $307 $561 #
straight-curve $-1 -76.707663197729431 -16.666976576757769 46.507322711319773 0 0 1 I I #
straight-curve $-1 -76.707663197729417 -16.666976576757769 0.68699889038113326 -0.60181501223851219 0 -0.79863551827123203 I I #
edge $-1 $555 6.2191924826151919 $311 16.666976576757769 $453 $562 forward 7 unknown #
point $-1 -76.707663197729431 -16.666976576757769 12.087966346838339 #
point $-1 -68.116418240090994 -16.666976576757769 12.087966346838339 #
edge $-1 $563 1 $563 0 $314 $-1 forward 7 unknown #
vertex $-1 $315 $564 #
ellipse-curve $-1 -69.843304046598377 -11.44308452968648 4.4518007505766137 -0.79863551827123203 0 0.60181501223851219 1.2036300244770244 0 1.5972710365424641 1 I I #
point $-1 -71.208410694433184 -11.44308452968648 7.9847536551521996 #
loop $-1 $-1 $326 $318 #
plane-surface $-1 -76.707663197729431 0 0 1 0 0 0 0 -1 forward_v I I I I #
coedge $-1 $468 $321 $323 $472 reversed $206 $-1 #
coedge $-1 $321 $467 $565 $566 reversed $206 $-1 #
coedge $-1 $329 $324 $321 $470 forward $319 $-1 #
edge $-1 $473 -31.498877712067468 $567 -22.907632754429031 $469 $568 forward 7 unknown #
coedge $-1 $323 $322 $476 $569 reversed $129 $-1 #
edge $-1 $570 -2.3625585895707848e-014 $473 14.275557742706376 $467 $571 forward 7 unknown #
vertex $-1 $325 $572 #
straight-curve $-1 -68.116418240090979 5.7215422648432366 12.087966346838339 0 1 0 I I #
coedge $-1 $565 $326 $329 $480 reversed $465 $-1 #
coedge $-1 $326 $565 $471 $569 forward $465 $-1 #
vertex $-1 $327 $573 #
straight-curve $-1 -76.707663197729431 6.2191924826151848 46.507322711319773 0 0 1 I I #
straight-curve $-1 -76.707663197729417 6.2191924826151848 0.68699889038113326 -0.60181501223851219 0 -0.79863551827123203 I I #
edge $-1 $567 -16.666976576757762 $330 -6.2191924826151848 $475 $574 forward 7 unknown #
point $-1 -76.707663197729431 6.2191924826151848 12.087966346838339 #
point $-1 -68.116418240090994 6.2191924826151848 12.087966346838339 #
edge $-1 $575 1 $575 0 $333 $-1 forward 7 unknown #
vertex $-1 $334 $576 #
ellipse-curve $-1 -69.843304046598377 11.443084529686473 4.4518007505766137 -0.79863551827123203 0 0.60181501223851219 1.2036300244770244 0 1.5972710365424641 1 I I #
point $-1 -71.208410694433184 11.443084529686473 7.9847536551521996 #
plane-surface $-1 76.707663197729431 0 0 -1 0 0 0 0 1 forward_v I I I I #
coedge $-1 $342 $340 $344 $492 reversed $221 $-1 #
edge $-1 $355 -12.087966346838339 $494 12.087966346838339 $354 $577 forward 7 unknown #
vertex $-1 $492 $578 #
straight-curve $-1 -76.707663197729431 -36.915987220800034 0 0 0 -1 I I #
edge $-1 $490 -36.915987220800034 $494 36.915987220800034 $488 $579 forward 7 unknown #
straight-curve $-1 0 -36.915987220800034 -12.087966346838339 -1 0 0 I I #
vertex $-1 $347 $580 #
straight-curve $-1 0 36.915987220800034 -12.087966346838339 1 0 0 I I #
point $-1 76.707663197729431 36.915987220800034 -12.087966346838339 #
point $-1 76.707663197729431 -36.915987220800034 -12.087966346838339 #
straight-curve $-1 -76.707663197729431 0 12.087966346838339 0 -1 0 I I #
point $-1 -76.707663197729431 36.915987220800034 12.087966346838339 #
point $-1 -76.707663197729431 -36.915987220800034 12.087966346838339 #
straight-curve $-1 76.707663197729431 -36.915987220800034 0 0 0 -1 I I #
straight-curve $-1 76.707663197729431 36.915987220800034 0 0 0 -1 I I #
loop $-1 $-1 $370 $364 #
plane-surface $-1 0 -36.915987220800034 0 0 1 0 0 0 1 forward_v I I I I #
coedge $-1 $381 $372 $368 $507 forward $365 $-1 #
edge $-1 $511 -21.077943280421735 $376 -10.598144600334862 $367 $581 forward 7 unknown #
edge $-1 $377 10.598144600334862 $510 21.077943280421735 $505 $582 forward 7 unknown #
coedge $-1 $379 $370 $384 $520 reversed $503 $-1 #
coedge $-1 $370 $379 $381 $518 reversed $503 $-1 #
vertex $-1 $518 $583 #
vertex $-1 $371 $584 #
straight-curve $-1 -52.531730504052753 -36.915987220800034 0 0 0 1 I I #
straight-curve $-1 -27.015865252026376 -26.436188540713161 -12.087966346838339 1 0 0 I I #
straight-curve $-1 -27.015865252026376 -26.436188540713161 12.087966346838339 -1 0 0 I I #
point $-1 -52.531730504052753 -26.436188540713161 12.087966346838339 #
point $-1 -52.531730504052753 -26.436188540713161 -12.087966346838339 #
straight-curve $-1 -55.531730504052753 -36.915987220800034 0 0 0 -1 I I #
edge $-1 $510 52.531730504052753 $382 55.531730504052753 $509 $585 forward 7 unknown #
point $-1 -55.531730504052753 -36.915987220800034 -12.087966346838339 #
edge $-1 $385 -55.531730504052753 $511 -52.531730504052753 $508 $586 forward 7 unknown #
point $-1 -55.531730504052753 -36.915987220800034 12.087966346838339 #
plane-surface $-1 0 36.915987220800034 0 0 -1 0 0 0 -1 forward_v I I I I #
coedge $-1 $392 $396 $401 $533 forward $256 $-1 #
edge $-1 $587 -21.077943280421735 $406 -10.598144600334862 $392 $588 forward 7 unknown #
coedge $-1 $394 $393 $531 $589 reversed $154 $-1 #
edge $-1 $409 10.598144600334862 $590 21.077943280421735 $408 $591 forward 7 unknown #
straight-curve $-1 -52.531730504052753 26.436188540713161 0 0 0 -1 I I #
straight-curve $-1 -55.531730504052753 15.838043940378299 -12.087966346838339 0 1 0 I I #
coedge $-1 $398 $408 $400 $532 forward $390 $-1 #
straight-curve $-1 -55.531730504052753 15.838043940378299 12.087966346838339 0 -1 0 I I #
coedge $-1 $401 $400 $525 $589 forward $402 $-1 #
edge $-1 $590 52.531730504052753 $404 55.531730504052753 $400 $592 forward 7 unknown #
edge $-1 $403 -55.531730504052753 $587 -52.531730504052753 $401 $593 forward 7 unknown #
point $-1 -55.531730504052753 36.915987220800034 -12.087966346838339 #
point $-1 -55.531730504052753 36.915987220800034 12.087966346838339 #
point $-1 -52.531730504052753 26.436188540713161 -12.087966346838339 #
point $-1 -52.531730504052753 26.436188540713161 12.087966346838339 #
coedge $-1 $424 $423 $416 $539 forward $413 $-1 #
edge $-1 $540 98.242601773003869 $543 105.80586085392466 $538 $594 forward 7 unknown #
vertex $-1 $428 $595 #
straight-curve $-1 47.808576657804466 11.974048540478417 12.087966346838343 1 0 0 I I #
edge $-1 $543 2.9366794192547054 $425 15.138058823192718 $424 $596 forward 7 unknown #
vertex $-1 $542 $597 #
straight-curve $-1 -21.905806230214253 11.974048540478417 122.04766681174075 -0.64278759981090561 0 0.7660444514056185 I I #
point $-1 70.36133545858506 11.974048540478417 12.087966346838343 #
point $-1 76.707663197729445 24.17542794441643 4.5247072659175558 #
straight-curve $-1 76.707663197729431 0 12.087966346838339 0 1 0 I I #
vertex $-1 $431 $598 #
point $-1 73.089848676657084 14.414324421266024 7.2805269808642361 #
vertex $-1 $435 $599 #
point $-1 73.089848676657084 18.074738242447424 7.2805269808642361 #
vertex $-1 $439 $600 #
point $-1 73.089848676657084 21.735152063628824 7.2805269808642361 #
edge $-1 $555 34.41935636448143 $558 45.820323820938661 $444 $601 forward 7 unknown #
vertex $-1 $458 $602 #
straight-curve $-1 -99.615295952158462 -6.2191924826151919 12.087966346838336 -1 0 0 I I #
edge $-1 $558 0.49765021777195173 $455 10.945434311914529 $454 $603 forward 7 unknown #
vertex $-1 $557 $604 #
straight-curve $-1 -76.707663197729417 -6.2191924826151919 0.68699889038113326 0.60181501223851219 0 0.79863551827123203 I I #
point $-1 -68.116418240090994 -6.2191924826151919 12.087966346838339 #
point $-1 -76.707663197729431 -16.666976576757769 0.68699889038111439 #
straight-curve $-1 -76.707663197729431 0 12.087966346838339 0 -1 0 I I #
vertex $-1 $461 $605 #
point $-1 -68.639674022121355 -11.44308452968648 6.049071787119078 #
coedge $-1 $476 $475 $468 $566 forward $465 $-1 #
edge $-1 $567 34.41935636448143 $570 45.820323820938661 $565 $606 forward 7 unknown #
vertex $-1 $480 $607 #
straight-curve $-1 -99.615295952158462 16.666976576757762 12.087966346838336 -1 0 0 I I #
edge $-1 $570 -10.945434311914525 $477 -0.49765021777194818 $476 $608 forward 7 unknown #
vertex $-1 $569 $609 #
straight-curve $-1 -76.707663197729417 16.666976576757762 0.68699889038113326 0.60181501223851219 0 0.79863551827123203 I I #
point $-1 -68.116418240090994 16.666976576757762 12.087966346838339 #
point $-1 -76.707663197729431 6.2191924826151848 0.68699889038111439 #
straight-curve $-1 -76.707663197729431 0 12.087966346838339 0 -1 0 I I #
vertex $-1 $483 $610 #
point $-1 -68.639674022121355 11.443084529686473 6.049071787119078 #
straight-curve $-1 -76.707663197729431 36.915987220800034 0 0 0 -1 I I #
point $-1 -76.707663197729431 -36.915987220800034 -12.087966346838339 #
straight-curve $-1 -76.707663197729431 0 -12.087966346838339 0 1 0 I I #
point $-1 -76.707663197729431 36.915987220800034 -12.087966346838339 #
straight-curve $-1 -52.531730504052753 -15.838043940378299 12.087966346838339 0 1 0 I I #
straight-curve $-1 -52.531730504052753 -15.838043940378299 -12.087966346838339 0 -1 0 I I #
point $-1 -52.531730504052753 -36.915987220800034 -12.087966346838339 #
point $-1 -52.531730504052753 -36.915987220800034 12.087966346838339 #
straight-curve $-1 0 -36.915987220800034 -12.087966346838339 -1 0 0 I I #
straight-curve $-1 0 -36.915987220800034 12.087966346838339 1 0 0 I I #
vertex $-1 $589 $611 #
straight-curve $-1 -52.531730504052753 15.838043940378299 -12.087966346838339 0 -1 0 I I #
edge $-1 $590 -12.087966346838339 $587 12.087966346838339 $531 $612 forward 7 unknown #
vertex $-1 $532 $613 #
straight-curve $-1 -52.531730504052753 15.838043940378299 12.087966346838339 0 1 0 I I #
straight-curve $-1 0 36.915987220800034 12.087966346838339 -1 0 0 I I #
straight-curve $-1 0 36.915987220800034 -12.087966346838339 1 0 0 I I #
straight-curve $-1 76.707663197729431 11.974048540478417 110.33056811984221 0 0 -1 I I #
point $-1 76.707663197729431 11.974048540478417 12.087966346838339 #
straight-curve $-1 76.707663197729417 9.0373691212237119 4.5247072659175629 0 1 0 I I #
point $-1 76.707663197729445 11.974048540478417 4.5247072659175558 #
point $-1 72.385432651048831 14.414324421266024 7.3421554066615924 #
point $-1 72.385432651048831 18.074738242447424 7.3421554066615924 #
point $-1 72.385432651048831 21.735152063628824 7.3421554066615924 #
straight-curve $-1 -76.707663197729431 -6.2191924826151919 46.507322711319773 0 0 -1 I I #
point $-1 -76.707663197729431 -6.2191924826151919 12.087966346838339 #
straight-curve $-1 -76.707663197729431 -5.7215422648432401 0.68699889038111972 0 -1 0 I I #
point $-1 -76.707663197729431 -6.2191924826151919 0.68699889038111439 #
point $-1 -68.246033010055925 -11.44308452968648 3.2481707260995902 #
straight-curve $-1 -76.707663197729431 16.666976576757762 46.507322711319773 0 0 -1 I I #
point $-1 -76.707663197729431 16.666976576757762 12.087966346838339 #
straight-curve $-1 -76.707663197729431 5.7215422648432366 0.68699889038111972 0 -1 0 I I #
point $-1 -76.707663197729431 16.666976576757762 0.68699889038111439 #
point $-1 -68.246033010055925 11.443084529686473 3.2481707260995902 #
point $-1 -52.531730504052753 36.915987220800034 -12.087966346838339 #
straight-curve $-1 -52.531730504052753 36.915987220800034 0 0 0 -1 I I #
point $-1 -52.531730504052753 36.915987220800034 12.087966346838339 #
End-of-ACIS-data 