500 0 5 0           
7 Unknown 11 ACIS 5.0 NT 24 Thu Mar 25 21:39:06 1999 
-1 9.9999999999999995e-007 1e-010 
body $-1 $5 $-1 $6 #
body $-1 $7 $-1 $8 #
body $-1 $9 $-1 $10 #
body $-1 $11 $-1 $12 #
body $-1 $13 $-1 $14 #
lump $-1 $-1 $15 $0 #
transform $-1 1 0 0 0 1 0 0 0 1 40.809350871303444 27.573431306351587 6.4858614396711589 1 rotate no_reflect no_shear #
lump $-1 $-1 $16 $1 #
transform $-1 1 0 0 0 1 0 0 0 1 40.809350871303444 27.573431306351587 6.4858614396711589 1 rotate no_reflect no_shear #
lump $-1 $-1 $17 $2 #
transform $-1 1 0 0 0 1 0 0 0 1 40.809350871303444 27.573431306351587 6.4858614396711589 1 rotate no_reflect no_shear #
lump $-1 $-1 $18 $3 #
transform $-1 1 0 0 0 1 0 0 0 1 40.809350871303444 27.573431306351587 6.4858614396711589 1 rotate no_reflect no_shear #
lump $-1 $-1 $19 $4 #
transform $-1 1 0 0 0 1 0 0 0 1 40.809350871303444 27.573431306351587 6.4858614396711589 1 rotate no_reflect no_shear #
shell $-1 $-1 $-1 $20 $-1 $5 #
shell $-1 $-1 $-1 $21 $-1 $7 #
shell $-1 $-1 $-1 $22 $-1 $9 #
shell $-1 $-1 $-1 $23 $-1 $11 #
shell $-1 $-1 $-1 $24 $-1 $13 #
face $-1 $25 $26 $15 $-1 $27 forward single #
face $-1 $28 $29 $16 $-1 $30 forward single #
face $-1 $31 $32 $17 $-1 $33 forward single #
face $-1 $34 $35 $18 $-1 $36 reversed single #
face $-1 $37 $38 $19 $-1 $39 forward single #
face $-1 $40 $41 $15 $-1 $42 reversed single #
loop $-1 $-1 $43 $20 #
plane-surface $-1 0 0 6.4858614396711589 0 0 1 1 0 0 forward_v I I I I #
face $-1 $44 $45 $16 $-1 $46 reversed single #
loop $-1 $-1 $47 $21 #
plane-surface $-1 -37.074951907673722 0 -2.7896706072008248 0 0 1 1 0 0 forward_v I I I I #
face $-1 $48 $49 $17 $-1 $50 reversed single #
loop $-1 $-1 $51 $22 #
plane-surface $-1 37.074951907673729 0 -2.7896706072008248 0 0 1 1 0 0 forward_v I I I I #
face $-1 $52 $53 $18 $-1 $54 reversed single #
loop $-1 $-1 $55 $23 #
plane-surface $-1 -2.9296242059096009 -98.25730107067784 42.486482429463017 1 0 0 0 0.86602541151947299 -0.49999998660252726 forward_v I I I I #
face $-1 $56 $57 $19 $-1 $58 forward single #
loop $-1 $59 $60 $24 #
cone-surface $-1 6.3830809798065928 -24.843680822940964 3.3069296662838452 0 0.86602541151947299 -0.49999998660252726 1 0 0 1 I I 0 1 1 forward I I I I #
face $-1 $61 $62 $15 $-1 $63 reversed single #
loop $-1 $-1 $64 $25 #
plane-surface $-1 0 0 -6.4858614396711589 0 0 1 1 0 0 forward_v I I I I #
coedge $-1 $65 $66 $67 $68 forward $26 $-1 #
face $-1 $69 $70 $16 $-1 $71 reversed single #
loop $-1 $-1 $72 $28 #
plane-surface $-1 -33.340552944043999 0 -4.6377660234359919 -1 0 0 0 0 1 forward_v I I I I #
coedge $-1 $73 $74 $75 $76 forward $29 $-1 #
face $-1 $77 $78 $17 $-1 $79 reversed single #
loop $-1 $-1 $80 $31 #
plane-surface $-1 33.340552944044006 0 -4.6377660234359919 1 0 0 0 0 -1 forward_v I I I I #
coedge $-1 $81 $82 $83 $84 reversed $32 $-1 #
face $-1 $85 $86 $18 $-1 $87 reversed single #
loop $-1 $-1 $88 $34 #
plane-surface $-1 6.3830809798065999 -27.57343130635158 1.6771326516439018 0 -0.86602541151947299 0.49999998660252726 1 0 0 forward_v I I I I #
coedge $-1 $89 $90 $91 $92 reversed $35 $-1 #
face $-1 $-1 $93 $19 $-1 $94 forward single #
loop $-1 $95 $96 $37 #
cone-surface $-1 6.3830809798065928 -23.069078014290081 2.2823622936088954 0 0.86602541151947299 -0.49999998660252726 0.5 0 0 1 I I -0.70710678118654746 0.70710678118654746 0.5 forward I I I I #
loop $-1 $-1 $97 $24 #
coedge $-1 $60 $60 $98 $99 reversed $38 $-1 #
face $-1 $100 $101 $15 $-1 $102 reversed single #
loop $-1 $-1 $103 $40 #
plane-surface $-1 0 -27.573431306351587 0 0 1 0 0 0 1 forward_v I I I I #
coedge $-1 $104 $105 $106 $107 forward $41 $-1 #
coedge $-1 $108 $43 $109 $110 forward $26 $-1 #
coedge $-1 $43 $108 $111 $112 forward $26 $-1 #
coedge $-1 $113 $114 $43 $68 reversed $115 $-1 #
edge $-1 $116 -27.573431306351587 $117 27.573431306351587 $67 $118 forward 7 unknown #
face $-1 $119 $120 $16 $-1 $121 reversed single #
loop $-1 $-1 $122 $44 #
plane-surface $-1 0 0 -6.4858614396711589 0 0 1 1 0 0 forward_v I I I I #
coedge $-1 $123 $75 $124 $125 reversed $45 $-1 #
coedge $-1 $126 $47 $127 $128 reversed $29 $-1 #
coedge $-1 $47 $126 $129 $130 reversed $29 $-1 #
coedge $-1 $72 $131 $47 $76 reversed $45 $-1 #
edge $-1 $132 -27.573431306351587 $133 27.573431306351587 $75 $134 forward 7 unknown #
face $-1 $135 $136 $17 $-1 $137 reversed single #
loop $-1 $-1 $138 $48 #
plane-surface $-1 0 -27.573431306351587 0 0 1 0 0 0 1 forward_v I I I I #
coedge $-1 $139 $140 $141 $142 reversed $49 $-1 #
coedge $-1 $143 $51 $144 $145 reversed $32 $-1 #
coedge $-1 $51 $143 $138 $146 reversed $32 $-1 #
coedge $-1 $147 $148 $51 $84 forward $149 $-1 #
edge $-1 $150 -27.573431306351587 $151 27.573431306351587 $83 $152 forward 7 unknown #
face $-1 $153 $154 $18 $-1 $155 forward single #
loop $-1 $-1 $156 $52 #
plane-surface $-1 15.695786165522801 -98.25730107067784 42.486482429463017 -1 0 0 0 -0.86602541151947299 0.49999998660252726 forward_v I I I I #
coedge $-1 $157 $158 $159 $160 reversed $53 $-1 #
coedge $-1 $90 $55 $161 $162 reversed $35 $-1 #
coedge $-1 $55 $89 $157 $163 reversed $35 $-1 #
coedge $-1 $159 $164 $55 $92 forward $165 $-1 #
edge $-1 $166 14.75737977506035 $167 19.566108563087617 $91 $168 forward 7 unknown #
loop $-1 $-1 $98 $56 #
plane-surface $-1 6.3830809798065999 -27.57343130635158 1.6771326516439018 0 -0.86602541151947299 0.49999998660252726 1 0 0 forward_v I I I I #
loop $-1 $-1 $169 $37 #
coedge $-1 $96 $96 $97 $170 reversed $57 $-1 #
coedge $-1 $97 $97 $96 $170 forward $59 $-1 #
coedge $-1 $98 $98 $60 $99 forward $93 $-1 #
edge $-1 $171 -4.7597325791166719e-016 $171 6.2831853071795996 $98 $172 forward 7 unknown #
face $-1 $173 $174 $15 $-1 $175 reversed single #
loop $-1 $-1 $176 $61 #
plane-surface $-1 -40.809350871303444 0 0 1 0 0 0 0 -1 forward_v I I I I #
coedge $-1 $177 $111 $178 $179 forward $62 $-1 #
coedge $-1 $180 $64 $177 $181 forward $41 $-1 #
coedge $-1 $64 $180 $182 $183 forward $41 $-1 #
coedge $-1 $114 $113 $64 $107 reversed $115 $-1 #
edge $-1 $184 -27.573431306351587 $185 27.573431306351587 $106 $186 forward 7 unknown #
coedge $-1 $66 $65 $187 $188 forward $26 $-1 #
coedge $-1 $189 $190 $65 $110 reversed $174 $-1 #
edge $-1 $117 -40.809350871303444 $191 40.809350871303444 $109 $192 forward 7 unknown #
coedge $-1 $103 $193 $66 $112 reversed $62 $-1 #
edge $-1 $194 -40.809350871303444 $116 40.809350871303444 $111 $195 forward 7 unknown #
coedge $-1 $106 $67 $193 $196 forward $115 $-1 #
coedge $-1 $67 $106 $189 $197 reversed $115 $-1 #
loop $-1 $-1 $113 $173 #
vertex $-1 $68 $198 #
vertex $-1 $68 $199 #
straight-curve $-1 40.809350871303444 0 6.4858614396711589 0 1 0 I I #
face $-1 $200 $201 $16 $-1 $202 reversed single #
loop $-1 $-1 $124 $69 #
plane-surface $-1 0 -27.573431306351587 0 0 1 0 0 0 1 forward_v I I I I #
coedge $-1 $203 $204 $123 $205 forward $70 $-1 #
coedge $-1 $131 $72 $122 $205 reversed $45 $-1 #
coedge $-1 $129 $206 $72 $125 forward $120 $-1 #
edge $-1 $207 -4.166978427953163 $132 -0.47078759548282889 $124 $208 forward 7 unknown #
coedge $-1 $74 $73 $209 $210 reversed $29 $-1 #
coedge $-1 $211 $212 $73 $128 forward $213 $-1 #
edge $-1 $214 -22.271874917466583 $133 -14.803076990207138 $127 $215 forward 7 unknown #
coedge $-1 $216 $124 $74 $130 forward $120 $-1 #
edge $-1 $132 14.803076990207138 $217 22.271874917466583 $129 $218 forward 7 unknown #
coedge $-1 $75 $123 $211 $219 reversed $45 $-1 #
vertex $-1 $130 $220 #
vertex $-1 $128 $221 #
straight-curve $-1 -33.340552944043999 0 -2.7896706072008248 0 1 0 I I #
face $-1 $222 $223 $17 $-1 $224 reversed single #
loop $-1 $-1 $225 $77 #
plane-surface $-1 0 0 -6.4858614396711589 0 0 1 1 0 0 forward_v I I I I #
coedge $-1 $226 $227 $82 $146 forward $78 $-1 #
coedge $-1 $228 $80 $225 $229 reversed $49 $-1 #
coedge $-1 $80 $228 $143 $230 reversed $49 $-1 #
coedge $-1 $144 $231 $80 $142 forward $223 $-1 #
edge $-1 $232 -4.166978427953163 $233 -0.47078759548282889 $141 $234 forward 7 unknown #
coedge $-1 $82 $81 $140 $230 forward $32 $-1 #
coedge $-1 $235 $141 $81 $145 forward $223 $-1 #
edge $-1 $233 14.803076990207142 $150 22.271874917466587 $144 $236 forward 7 unknown #
edge $-1 $151 -22.271874917466587 $237 -14.803076990207142 $138 $238 forward 7 unknown #
coedge $-1 $239 $83 $227 $240 forward $149 $-1 #
coedge $-1 $83 $239 $235 $241 reversed $149 $-1 #
loop $-1 $-1 $83 $222 #
vertex $-1 $241 $242 #
vertex $-1 $240 $243 #
straight-curve $-1 40.809350871303444 0 -2.7896706072008248 0 -1 0 I I #
face $-1 $-1 $165 $18 $-1 $244 reversed single #
loop $-1 $-1 $245 $85 #
plane-surface $-1 0 0 6.4858614396711589 0 0 1 1 0 0 forward_v I I I I #
coedge $-1 $246 $247 $248 $249 reversed $86 $-1 #
coedge $-1 $250 $88 $90 $163 forward $53 $-1 #
coedge $-1 $88 $250 $246 $251 forward $53 $-1 #
coedge $-1 $248 $91 $88 $160 forward $165 $-1 #
edge $-1 $167 -6.1211646958129009 $252 12.504245675619501 $159 $253 forward 7 unknown #
coedge $-1 $254 $255 $89 $162 forward $154 $-1 #
edge $-1 $256 -24.331539990026293 $166 -21.555219228987333 $161 $257 forward 7 unknown #
edge $-1 $167 -1.4129008453179079e-014 $256 5.5526416708606359 $90 $258 forward 7 unknown #
coedge $-1 $91 $248 $254 $259 reversed $165 $-1 #
loop $-1 $-1 $248 $153 #
vertex $-1 $259 $260 #
vertex $-1 $92 $261 #
straight-curve $-1 -2.9296242059096009 -27.573431306351587 21.243241214731508 0 0 -1 I I #
coedge $-1 $169 $169 $-1 $262 reversed $95 $-1 #
edge $-1 $263 0 $263 6.2831853071796004 $96 $264 forward 7 unknown #
vertex $-1 $99 $265 #
ellipse-curve $-1 6.3830809798065928 -26.185270925832103 4.0814970456575281 0 -0.86602541151947299 0.49999998660252726 1 0 0 1 I I #
face $-1 $-1 $115 $15 $-1 $266 reversed single #
loop $-1 $-1 $189 $100 #
plane-surface $-1 0 27.573431306351587 0 0 -1 0 0 0 -1 forward_v I I I I #
coedge $-1 $267 $187 $190 $268 forward $101 $-1 #
coedge $-1 $193 $103 $104 $181 reversed $62 $-1 #
coedge $-1 $187 $267 $103 $179 reversed $101 $-1 #
edge $-1 $194 -6.4858614396711589 $269 6.4858614396711589 $178 $270 forward 7 unknown #
coedge $-1 $105 $104 $267 $271 forward $41 $-1 #
edge $-1 $185 -40.809350871303444 $269 40.809350871303444 $177 $272 forward 7 unknown #
coedge $-1 $190 $189 $105 $183 reversed $174 $-1 #
edge $-1 $273 -40.809350871303444 $184 40.809350871303444 $182 $274 forward 7 unknown #
vertex $-1 $107 $275 #
vertex $-1 $196 $276 #
straight-curve $-1 40.809350871303444 0 -6.4858614396711589 0 -1 0 I I #
coedge $-1 $176 $178 $108 $188 reversed $101 $-1 #
edge $-1 $191 -27.573431306351587 $194 27.573431306351587 $187 $277 forward 7 unknown #
coedge $-1 $182 $109 $114 $197 forward $174 $-1 #
coedge $-1 $109 $182 $176 $268 reversed $174 $-1 #
vertex $-1 $110 $278 #
straight-curve $-1 0 27.573431306351587 6.4858614396711589 -1 0 0 I I #
coedge $-1 $111 $177 $113 $196 reversed $62 $-1 #
vertex $-1 $188 $279 #
straight-curve $-1 0 -27.573431306351587 6.4858614396711589 1 0 0 I I #
edge $-1 $116 -6.4858614396711589 $185 6.4858614396711589 $113 $280 forward 7 unknown #
edge $-1 $117 -6.4858614396711589 $184 6.4858614396711589 $114 $281 forward 7 unknown #
point $-1 40.809350871303444 -27.573431306351587 6.4858614396711589 #
point $-1 40.809350871303444 27.573431306351587 6.4858614396711589 #
face $-1 $-1 $213 $16 $-1 $282 reversed single #
loop $-1 $-1 $209 $119 #
plane-surface $-1 -40.809350871303444 0 0 1 0 0 0 0 -1 forward_v I I I I #
coedge $-1 $283 $122 $206 $284 forward $70 $-1 #
coedge $-1 $122 $283 $285 $286 forward $70 $-1 #
edge $-1 $287 -27.573431306351587 $207 27.573431306351587 $122 $288 forward 7 unknown #
coedge $-1 $124 $216 $203 $284 reversed $120 $-1 #
vertex $-1 $284 $289 #
straight-curve $-1 -33.340552944043999 -27.573431306351587 -2.3188830117179959 0 0 1 I I #
coedge $-1 $290 $291 $126 $210 forward $201 $-1 #
edge $-1 $217 -27.573431306351587 $214 27.573431306351587 $209 $292 forward 7 unknown #
coedge $-1 $285 $127 $131 $219 forward $213 $-1 #
coedge $-1 $127 $285 $290 $293 reversed $213 $-1 #
loop $-1 $-1 $211 $200 #
vertex $-1 $293 $294 #
straight-curve $-1 -18.537475953836861 27.573431306351587 -2.7896706072008248 1 0 0 I I #
coedge $-1 $206 $129 $291 $295 forward $120 $-1 #
vertex $-1 $295 $296 #
straight-curve $-1 -18.537475953836861 -27.573431306351587 -2.7896706072008248 -1 0 0 I I #
edge $-1 $133 0.47078759548282889 $287 4.166978427953163 $211 $297 forward 7 unknown #
point $-1 -33.340552944043999 -27.573431306351587 -2.7896706072008248 #
point $-1 -33.340552944043999 27.573431306351587 -2.7896706072008248 #
face $-1 $-1 $149 $17 $-1 $298 reversed single #
loop $-1 $-1 $144 $135 #
plane-surface $-1 0 27.573431306351587 0 0 -1 0 0 0 -1 forward_v I I I I #
coedge $-1 $299 $300 $139 $229 forward $136 $-1 #
coedge $-1 $301 $138 $228 $302 forward $78 $-1 #
coedge $-1 $138 $301 $147 $240 reversed $78 $-1 #
coedge $-1 $140 $139 $226 $302 reversed $49 $-1 #
edge $-1 $303 -27.573431306351587 $232 27.573431306351587 $225 $304 forward 7 unknown #
edge $-1 $233 -27.573431306351587 $237 27.573431306351587 $140 $305 forward 7 unknown #
coedge $-1 $141 $235 $299 $306 reversed $223 $-1 #
vertex $-1 $306 $307 #
vertex $-1 $145 $308 #
straight-curve $-1 33.340552944044006 27.573431306351587 -2.3188830117179959 0 0 1 I I #
coedge $-1 $231 $144 $148 $241 forward $223 $-1 #
straight-curve $-1 18.537475953836864 27.573431306351587 -2.7896706072008248 1 0 0 I I #
vertex $-1 $146 $309 #
straight-curve $-1 18.537475953836864 -27.573431306351587 -2.7896706072008248 -1 0 0 I I #
coedge $-1 $148 $147 $310 $311 reversed $149 $-1 #
edge $-1 $151 2.7896706072008248 $312 6.4858614396711589 $147 $313 forward 7 unknown #
edge $-1 $150 2.7896706072008248 $314 6.4858614396711589 $148 $315 forward 7 unknown #
point $-1 40.809350871303451 27.573431306351587 -2.7896706072008248 #
point $-1 40.809350871303451 -27.573431306351587 -2.7896706072008248 #
plane-surface $-1 0 -27.573431306351587 0 0 1 0 0 0 1 forward_v I I I I #
coedge $-1 $255 $254 $247 $316 forward $154 $-1 #
coedge $-1 $247 $156 $158 $251 reversed $86 $-1 #
coedge $-1 $156 $246 $245 $316 reversed $86 $-1 #
coedge $-1 $164 $159 $156 $249 forward $165 $-1 #
edge $-1 $252 -19.566108563087617 $317 -14.75737977506035 $248 $318 forward 7 unknown #
coedge $-1 $158 $157 $255 $319 reversed $53 $-1 #
edge $-1 $320 -5.5526416708606359 $252 1.4129008453179079e-014 $246 $321 forward 7 unknown #
vertex $-1 $160 $322 #
straight-curve $-1 3.1915404899033 -27.573431306351587 1.6771326516438887 1 0 0 I I #
coedge $-1 $245 $161 $164 $259 forward $154 $-1 #
coedge $-1 $161 $245 $250 $319 forward $154 $-1 #
vertex $-1 $162 $323 #
straight-curve $-1 -2.9296242059096009 -49.12865053533892 6.485861439671158 0 -1 0 I I #
straight-curve $-1 -2.9296242059096009 -27.57343130635158 1.6771326516439018 0 0.49999998660252726 0.86602541151947299 I I #
edge $-1 $166 -2.9296242059096009 $317 15.695786165522801 $164 $324 forward 7 unknown #
point $-1 -2.9296242059096009 -27.573431306351587 6.4858614396711589 #
point $-1 -2.9296242059096009 -27.573431306351587 1.6771326516438896 #
edge $-1 $325 1 $325 0 $169 $-1 forward 7 unknown #
vertex $-1 $170 $326 #
ellipse-curve $-1 6.3830809798065928 -23.502090720049818 2.5323622869101592 0 -0.86602541151947299 0.49999998660252726 1 0 0 1 I I #
point $-1 7.3830809798065928 -26.185270925832111 4.0814970456575317 #
plane-surface $-1 40.809350871303444 0 0 -1 0 0 0 0 1 forward_v I I I I #
coedge $-1 $178 $176 $180 $271 reversed $101 $-1 #
edge $-1 $191 -6.4858614396711589 $273 6.4858614396711589 $190 $327 forward 7 unknown #
vertex $-1 $271 $328 #
straight-curve $-1 -40.809350871303444 -27.573431306351587 0 0 0 -1 I I #
edge $-1 $269 -27.573431306351587 $273 27.573431306351587 $267 $329 forward 7 unknown #
straight-curve $-1 0 -27.573431306351587 -6.4858614396711589 -1 0 0 I I #
vertex $-1 $183 $330 #
straight-curve $-1 0 27.573431306351587 -6.4858614396711589 1 0 0 I I #
point $-1 40.809350871303444 27.573431306351587 -6.4858614396711589 #
point $-1 40.809350871303444 -27.573431306351587 -6.4858614396711589 #
straight-curve $-1 -40.809350871303444 0 6.4858614396711589 0 -1 0 I I #
point $-1 -40.809350871303444 27.573431306351587 6.4858614396711589 #
point $-1 -40.809350871303444 -27.573431306351587 6.4858614396711589 #
straight-curve $-1 40.809350871303444 -27.573431306351587 0 0 0 -1 I I #
straight-curve $-1 40.809350871303444 27.573431306351587 0 0 0 -1 I I #
plane-surface $-1 0 27.573431306351587 0 0 -1 0 0 0 -1 forward_v I I I I #
coedge $-1 $204 $203 $331 $332 forward $70 $-1 #
edge $-1 $207 33.340552944043999 $333 40.809350871303444 $206 $334 forward 7 unknown #
coedge $-1 $212 $211 $204 $286 reversed $213 $-1 #
edge $-1 $335 -40.809350871303444 $287 -33.340552944043999 $285 $336 forward 7 unknown #
vertex $-1 $219 $337 #
straight-curve $-1 -33.340552944043999 0 -6.4858614396711589 0 -1 0 I I #
point $-1 -33.340552944043999 -27.573431306351587 -6.4858614396711589 #
coedge $-1 $331 $209 $212 $293 forward $201 $-1 #
coedge $-1 $209 $331 $216 $295 reversed $201 $-1 #
straight-curve $-1 -40.809350871303444 0 -2.7896706072008248 0 1 0 I I #
edge $-1 $214 2.7896706072008248 $335 6.4858614396711589 $212 $338 forward 7 unknown #
point $-1 -40.809350871303444 27.573431306351587 -2.7896706072008248 #
edge $-1 $217 2.7896706072008248 $333 6.4858614396711589 $291 $339 forward 7 unknown #
point $-1 -40.809350871303444 -27.573431306351587 -2.7896706072008248 #
straight-curve $-1 -33.340552944043999 27.573431306351587 -2.3188830117179959 0 0 -1 I I #
plane-surface $-1 40.809350871303444 0 0 -1 0 0 0 0 1 forward_v I I I I #
coedge $-1 $310 $225 $231 $306 forward $136 $-1 #
coedge $-1 $225 $310 $301 $340 forward $136 $-1 #
coedge $-1 $227 $226 $300 $340 reversed $78 $-1 #
edge $-1 $237 0.47078759548282889 $303 4.166978427953163 $226 $341 forward 7 unknown #
vertex $-1 $229 $342 #
straight-curve $-1 33.340552944044006 0 -6.4858614396711589 0 1 0 I I #
straight-curve $-1 33.340552944044006 0 -2.7896706072008248 0 -1 0 I I #
edge $-1 $232 33.340552944044006 $314 40.809350871303444 $231 $343 forward 7 unknown #
point $-1 33.340552944044006 27.573431306351587 -6.4858614396711589 #
point $-1 33.340552944044006 27.573431306351587 -2.7896706072008248 #
point $-1 33.340552944044006 -27.573431306351587 -2.7896706072008248 #
coedge $-1 $300 $299 $239 $311 forward $136 $-1 #
edge $-1 $314 -27.573431306351587 $312 27.573431306351587 $239 $344 forward 7 unknown #
vertex $-1 $240 $345 #
straight-curve $-1 40.809350871303444 -27.573431306351587 0 0 0 -1 I I #
vertex $-1 $311 $346 #
straight-curve $-1 40.809350871303444 27.573431306351587 0 0 0 -1 I I #
edge $-1 $317 21.555219228987333 $320 24.331539990026293 $245 $347 forward 7 unknown #
vertex $-1 $316 $348 #
straight-curve $-1 15.695786165522801 -27.573431306351587 21.243241214731508 0 0 1 I I #
edge $-1 $320 -12.504245675619501 $256 6.1211646958129009 $255 $349 forward 7 unknown #
vertex $-1 $319 $350 #
straight-curve $-1 15.695786165522801 -27.57343130635158 1.6771326516439018 0 -0.49999998660252726 -0.86602541151947299 I I #
point $-1 15.695786165522801 -27.573431306351587 1.6771326516438896 #
point $-1 -2.9296242059096009 -24.797110545312627 6.4858614396711589 #
straight-curve $-1 0 -27.573431306351587 6.4858614396711589 1 0 0 I I #
vertex $-1 $262 $351 #
point $-1 7.3830809798065928 -23.502090720049818 2.5323622869101592 #
straight-curve $-1 -40.809350871303444 27.573431306351587 0 0 0 -1 I I #
point $-1 -40.809350871303444 -27.573431306351587 -6.4858614396711589 #
straight-curve $-1 -40.809350871303444 0 -6.4858614396711589 0 1 0 I I #
point $-1 -40.809350871303444 27.573431306351587 -6.4858614396711589 #
coedge $-1 $291 $290 $283 $332 reversed $201 $-1 #
edge $-1 $333 -27.573431306351587 $335 27.573431306351587 $331 $352 forward 7 unknown #
vertex $-1 $332 $353 #
straight-curve $-1 0 -27.573431306351587 -6.4858614396711589 -1 0 0 I I #
vertex $-1 $286 $354 #
straight-curve $-1 0 27.573431306351587 -6.4858614396711589 1 0 0 I I #
point $-1 -33.340552944043999 27.573431306351587 -6.4858614396711589 #
straight-curve $-1 -40.809350871303444 27.573431306351587 0 0 0 -1 I I #
straight-curve $-1 -40.809350871303444 -27.573431306351587 0 0 0 -1 I I #
edge $-1 $312 -40.809350871303444 $303 -33.340552944044006 $301 $355 forward 7 unknown #
straight-curve $-1 33.340552944044006 -27.573431306351587 -2.3188830117179959 0 0 -1 I I #
point $-1 33.340552944044006 -27.573431306351587 -6.4858614396711589 #
straight-curve $-1 0 27.573431306351587 -6.4858614396711589 1 0 0 I I #
straight-curve $-1 40.809350871303444 0 -6.4858614396711589 0 -1 0 I I #
point $-1 40.809350871303444 -27.573431306351587 -6.4858614396711589 #
point $-1 40.809350871303444 27.573431306351587 -6.4858614396711589 #
straight-curve $-1 15.695786165522801 -49.12865053533892 6.485861439671158 0 1 0 I I #
point $-1 15.695786165522801 -27.573431306351587 6.4858614396711589 #
straight-curve $-1 3.1915404899033 -24.797110545312627 6.485861439671158 -1 0 0 I I #
point $-1 15.695786165522801 -24.797110545312627 6.4858614396711589 #
point $-1 6.3830809798065928 -22.636065308530345 2.0323623003076317 #
straight-curve $-1 -40.809350871303444 0 -6.4858614396711589 0 1 0 I I #
point $-1 -40.809350871303444 -27.573431306351587 -6.4858614396711589 #
point $-1 -40.809350871303444 27.573431306351587 -6.4858614396711589 #
straight-curve $-1 0 -27.573431306351587 -6.4858614396711589 -1 0 0 I I #
End-of-ACIS-data 