500 0 5 0           
7 Unknown 11 ACIS 5.0 NT 24 Thu Mar 25 16:29:40 1999 
-1 9.9999999999999995e-007 1e-010 
body $-1 $5 $-1 $6 #
body $-1 $7 $-1 $8 #
body $-1 $9 $-1 $10 #
body $-1 $11 $-1 $12 #
body $-1 $13 $-1 $14 #
lump $-1 $-1 $15 $0 #
transform $-1 1 0 0 0 1 0 0 0 1 78.590044862208927 49.421522519996714 23.432048933802697 1 rotate no_reflect no_shear #
lump $-1 $-1 $16 $1 #
transform $-1 1 0 0 0 1 0 0 0 1 78.590044862208927 49.421522519996714 23.432048933802697 1 rotate no_reflect no_shear #
lump $-1 $-1 $17 $2 #
transform $-1 1 0 0 0 1 0 0 0 1 78.590044862208927 49.421522519996714 23.432048933802697 1 rotate no_reflect no_shear #
lump $-1 $-1 $18 $3 #
transform $-1 1 0 0 0 1 0 0 0 1 78.590044862208927 49.421522519996714 23.432048933802697 1 rotate no_reflect no_shear #
lump $-1 $-1 $19 $4 #
transform $-1 1 0 0 0 1 0 0 0 1 78.590044862208927 49.421522519996714 23.432048933802697 1 rotate no_reflect no_shear #
shell $-1 $-1 $-1 $20 $-1 $5 #
shell $-1 $-1 $-1 $21 $-1 $7 #
shell $-1 $-1 $-1 $22 $-1 $9 #
shell $-1 $-1 $-1 $23 $-1 $11 #
shell $-1 $-1 $-1 $24 $-1 $13 #
face $-1 $25 $26 $15 $-1 $27 forward single #
face $-1 $28 $29 $16 $-1 $30 reversed single #
face $-1 $31 $32 $17 $-1 $33 forward single #
face $-1 $34 $35 $18 $-1 $36 reversed single #
face $-1 $37 $38 $19 $-1 $39 forward single #
face $-1 $40 $41 $15 $-1 $42 reversed single #
loop $-1 $-1 $43 $20 #
plane-surface $-1 0 0 23.432048933802697 0 0 1 1 0 0 forward_v I I I I #
face $-1 $44 $45 $16 $-1 $46 reversed single #
loop $-1 $-1 $47 $21 #
plane-surface $-1 -48.721174819573577 -132.7142811186574 145.63768915603876 -1 0 0 0 -0.52991927123019833 0.84804809178421925 forward_v I I I I #
face $-1 $48 $49 $17 $-1 $50 forward single #
loop $-1 $51 $52 $22 #
cone-surface $-1 -63.655609840891252 -39.787734584499844 16.67139730978856 0 0.52991927123019833 -0.84804809178421925 1.5 0 0 1 I I 0 1 1.5 forward I I I I #
face $-1 $53 $54 $18 $-1 $55 reversed single #
loop $-1 $-1 $56 $23 #
plane-surface $-1 -48.721174819573577 48.890625386349328 198.01652354980575 -1 0 0 0 0.52991927123019833 0.84804809178421925 forward_v I I I I #
face $-1 $57 $58 $19 $-1 $59 forward single #
loop $-1 $60 $61 $24 #
cone-surface $-1 -63.655609840891252 39.787734584499844 16.671397309788553 0 -0.52991927123019833 -0.84804809178421925 1.5 0 0 1 I I 0 1 1.5 forward I I I I #
face $-1 $62 $63 $15 $-1 $64 reversed single #
loop $-1 $-1 $65 $25 #
plane-surface $-1 0 0 -23.432048933802697 0 0 1 1 0 0 forward_v I I I I #
coedge $-1 $66 $67 $68 $69 forward $26 $-1 #
face $-1 $70 $71 $16 $-1 $72 forward single #
loop $-1 $-1 $73 $28 #
plane-surface $-1 -63.655609840891252 -49.421522519996699 12.341413998773845 0 -0.52991927123019833 0.84804809178421925 1 0 0 forward_v I I I I #
coedge $-1 $74 $75 $76 $77 reversed $29 $-1 #
face $-1 $-1 $78 $17 $-1 $79 forward single #
loop $-1 $80 $81 $31 #
cone-surface $-1 -63.655609840891252 -38.630870050409285 14.820027084450679 0 0.52991927123019833 -0.84804809178421925 0.75 0 0 1 I I -0.70710678118654668 0.70710678118654835 0.75 forward I I I I #
loop $-1 $-1 $82 $22 #
coedge $-1 $52 $52 $83 $84 reversed $32 $-1 #
face $-1 $85 $86 $18 $-1 $87 reversed single #
loop $-1 $-1 $88 $34 #
plane-surface $-1 -63.655609840891252 -34.402133212311369 64.720248392540839 0 0.52991927123019833 0.84804809178421925 1 0 0 forward_v I I I I #
coedge $-1 $89 $90 $91 $92 reversed $35 $-1 #
face $-1 $-1 $93 $19 $-1 $94 forward single #
loop $-1 $95 $96 $37 #
cone-surface $-1 -63.655609840891252 38.630870050409285 14.820027084450672 0 -0.52991927123019833 -0.84804809178421925 0.75 0 0 1 I I -0.70710678118654668 0.70710678118654835 0.75 forward I I I I #
loop $-1 $-1 $97 $24 #
coedge $-1 $61 $61 $98 $99 reversed $38 $-1 #
face $-1 $100 $101 $15 $-1 $102 reversed single #
loop $-1 $-1 $103 $40 #
plane-surface $-1 0 -49.421522519996714 0 0 1 0 0 0 1 forward_v I I I I #
coedge $-1 $104 $105 $106 $107 forward $41 $-1 #
coedge $-1 $108 $43 $109 $110 forward $26 $-1 #
coedge $-1 $43 $108 $111 $112 forward $26 $-1 #
coedge $-1 $113 $114 $43 $69 reversed $115 $-1 #
edge $-1 $116 -49.421522519996714 $117 49.421522519996714 $68 $118 forward 7 unknown #
face $-1 $119 $120 $16 $-1 $121 reversed single #
loop $-1 $-1 $76 $44 #
plane-surface $-1 0 0 23.432048933802697 0 0 1 1 0 0 forward_v I I I I #
coedge $-1 $122 $123 $124 $125 reversed $45 $-1 #
coedge $-1 $75 $47 $126 $127 reversed $29 $-1 #
coedge $-1 $47 $74 $122 $128 reversed $29 $-1 #
coedge $-1 $124 $129 $47 $77 forward $71 $-1 #
edge $-1 $130 16.935618039331985 $131 34.684343748989932 $76 $132 forward 7 unknown #
loop $-1 $-1 $83 $48 #
plane-surface $-1 -63.655609840891252 -49.421522519996699 12.341413998773845 0 -0.52991927123019833 0.84804809178421925 1 0 0 forward_v I I I I #
loop $-1 $-1 $133 $31 #
coedge $-1 $81 $81 $82 $134 reversed $49 $-1 #
coedge $-1 $82 $82 $81 $134 forward $51 $-1 #
coedge $-1 $83 $83 $52 $84 forward $78 $-1 #
edge $-1 $135 1.0032411082087709e-015 $135 6.2831853071796013 $83 $136 forward 7 unknown #
face $-1 $137 $138 $18 $-1 $139 forward single #
loop $-1 $-1 $91 $53 #
plane-surface $-1 0 49.421522519996714 0 0 -1 0 0 0 -1 forward_v I I I I #
coedge $-1 $140 $141 $142 $143 reversed $54 $-1 #
coedge $-1 $90 $56 $144 $145 reversed $35 $-1 #
coedge $-1 $56 $89 $140 $146 reversed $35 $-1 #
coedge $-1 $142 $147 $56 $92 forward $86 $-1 #
edge $-1 $148 75.576212841100187 $149 86.666847776129032 $91 $150 forward 7 unknown #
loop $-1 $-1 $98 $57 #
plane-surface $-1 -63.655609840891252 -34.402133212311369 64.720248392540839 0 0.52991927123019833 0.84804809178421925 1 0 0 forward_v I I I I #
loop $-1 $-1 $151 $37 #
coedge $-1 $96 $96 $97 $152 reversed $58 $-1 #
coedge $-1 $97 $97 $96 $152 forward $60 $-1 #
coedge $-1 $98 $98 $61 $99 forward $93 $-1 #
edge $-1 $153 2.5185985416424116e-016 $153 6.2831853071796004 $98 $154 forward 7 unknown #
face $-1 $155 $156 $15 $-1 $157 reversed single #
loop $-1 $-1 $158 $62 #
plane-surface $-1 -78.590044862208927 0 0 1 0 0 0 0 -1 forward_v I I I I #
coedge $-1 $159 $111 $160 $161 forward $63 $-1 #
coedge $-1 $162 $65 $159 $163 forward $41 $-1 #
coedge $-1 $65 $162 $164 $165 forward $41 $-1 #
coedge $-1 $114 $113 $65 $107 reversed $115 $-1 #
edge $-1 $166 -49.421522519996714 $167 49.421522519996714 $106 $168 forward 7 unknown #
coedge $-1 $67 $66 $169 $170 forward $26 $-1 #
coedge $-1 $171 $172 $66 $110 reversed $156 $-1 #
edge $-1 $117 -78.590044862208927 $173 78.590044862208927 $109 $174 forward 7 unknown #
coedge $-1 $103 $175 $67 $112 reversed $63 $-1 #
edge $-1 $176 -78.590044862208927 $116 78.590044862208927 $111 $177 forward 7 unknown #
coedge $-1 $106 $68 $175 $178 forward $115 $-1 #
coedge $-1 $68 $106 $171 $179 reversed $115 $-1 #
loop $-1 $-1 $113 $155 #
vertex $-1 $69 $180 #
vertex $-1 $69 $181 #
straight-curve $-1 78.590044862208927 0 23.432048933802697 0 1 0 I I #
face $-1 $-1 $182 $16 $-1 $183 reversed single #
loop $-1 $-1 $184 $70 #
plane-surface $-1 -78.590044862208927 0 0 1 0 0 0 0 -1 forward_v I I I I #
coedge $-1 $185 $73 $75 $128 forward $45 $-1 #
coedge $-1 $73 $185 $184 $186 reversed $45 $-1 #
coedge $-1 $187 $76 $73 $125 forward $71 $-1 #
edge $-1 $131 16.893369899127951 $188 46.762239941763298 $124 $189 forward 7 unknown #
coedge $-1 $190 $191 $74 $127 forward $182 $-1 #
edge $-1 $192 -60.477430579245542 $130 -49.386795644216683 $126 $193 forward 7 unknown #
edge $-1 $131 -20.928914151927589 $192 1.675811683274863e-014 $75 $194 forward 7 unknown #
coedge $-1 $76 $187 $190 $195 forward $71 $-1 #
vertex $-1 $127 $196 #
vertex $-1 $77 $197 #
straight-curve $-1 -48.721174819573577 -66.357140559328698 23.432048933802697 0 1 0 I I #
coedge $-1 $133 $133 $-1 $198 reversed $80 $-1 #
edge $-1 $199 0 $199 6.2831853071796004 $81 $200 forward 7 unknown #
vertex $-1 $84 $201 #
ellipse-curve $-1 -63.655609840891252 -40.547159665167747 17.886731466288264 0 -0.52991927123019833 0.84804809178421925 1.5 0 0 1 I I #
face $-1 $-1 $202 $18 $-1 $203 reversed single #
loop $-1 $-1 $144 $85 #
plane-surface $-1 0 0 23.432048933802697 0 0 1 1 0 0 forward_v I I I I #
coedge $-1 $204 $88 $90 $146 forward $54 $-1 #
coedge $-1 $88 $204 $205 $206 reversed $54 $-1 #
coedge $-1 $207 $91 $88 $143 forward $86 $-1 #
edge $-1 $149 16.893369899127951 $208 46.762239941763298 $142 $209 forward 7 unknown #
coedge $-1 $210 $211 $89 $145 forward $138 $-1 #
edge $-1 $212 7.2274841171641171 $148 24.97620982682205 $144 $213 forward 7 unknown #
edge $-1 $149 -98.843045039993456 $212 -77.91413088806587 $90 $214 forward 7 unknown #
coedge $-1 $91 $207 $210 $215 reversed $86 $-1 #
vertex $-1 $215 $216 #
vertex $-1 $92 $217 #
straight-curve $-1 -48.721174819573577 49.421522519996714 99.008261774902877 0 0 -1 I I #
coedge $-1 $151 $151 $-1 $218 reversed $95 $-1 #
edge $-1 $219 0 $219 6.2831853071796004 $96 $220 forward 7 unknown #
vertex $-1 $99 $221 #
ellipse-curve $-1 -63.655609840891252 40.547159665167747 17.886731466288261 0 0.52991927123019833 0.84804809178421925 1.5 0 0 1 I I #
face $-1 $-1 $115 $15 $-1 $222 reversed single #
loop $-1 $-1 $171 $100 #
plane-surface $-1 0 49.421522519996714 0 0 -1 0 0 0 -1 forward_v I I I I #
coedge $-1 $223 $169 $172 $224 forward $101 $-1 #
coedge $-1 $175 $103 $104 $163 reversed $63 $-1 #
coedge $-1 $169 $223 $103 $161 reversed $101 $-1 #
edge $-1 $176 -23.432048933802697 $225 23.432048933802697 $160 $226 forward 7 unknown #
coedge $-1 $105 $104 $223 $227 forward $41 $-1 #
edge $-1 $167 -78.590044862208927 $225 78.590044862208927 $159 $228 forward 7 unknown #
coedge $-1 $172 $171 $105 $165 reversed $156 $-1 #
edge $-1 $229 -78.590044862208927 $166 78.590044862208927 $164 $230 forward 7 unknown #
vertex $-1 $107 $231 #
vertex $-1 $178 $232 #
straight-curve $-1 78.590044862208927 0 -23.432048933802697 0 -1 0 I I #
coedge $-1 $158 $160 $108 $170 reversed $101 $-1 #
edge $-1 $173 -49.421522519996714 $176 49.421522519996714 $169 $233 forward 7 unknown #
coedge $-1 $164 $109 $114 $179 forward $156 $-1 #
coedge $-1 $109 $164 $158 $224 reversed $156 $-1 #
vertex $-1 $110 $234 #
straight-curve $-1 0 49.421522519996714 23.432048933802697 -1 0 0 I I #
coedge $-1 $111 $159 $113 $178 reversed $63 $-1 #
vertex $-1 $170 $235 #
straight-curve $-1 0 -49.421522519996714 23.432048933802697 1 0 0 I I #
edge $-1 $116 -23.432048933802697 $167 23.432048933802697 $113 $236 forward 7 unknown #
edge $-1 $117 -23.432048933802697 $166 23.432048933802697 $114 $237 forward 7 unknown #
point $-1 78.590044862208927 -49.421522519996714 23.432048933802697 #
point $-1 78.590044862208927 49.421522519996714 23.432048933802697 #
loop $-1 $-1 $126 $119 #
plane-surface $-1 0 -49.421522519996714 0 0 1 0 0 0 1 forward_v I I I I #
coedge $-1 $238 $239 $123 $186 forward $120 $-1 #
coedge $-1 $123 $122 $191 $240 reversed $45 $-1 #
edge $-1 $188 -3.2429767749407841 $241 17.685937376986821 $184 $242 forward 7 unknown #
coedge $-1 $129 $124 $239 $243 forward $71 $-1 #
vertex $-1 $243 $244 #
straight-curve $-1 -31.827804920445626 -31.672796810338767 23.432048933802697 -1 0 0 I I #
coedge $-1 $245 $126 $129 $195 reversed $182 $-1 #
coedge $-1 $126 $245 $185 $240 forward $182 $-1 #
vertex $-1 $127 $246 #
straight-curve $-1 -48.721174819573577 -49.421522519996714 72.81884457801938 0 0 1 I I #
straight-curve $-1 -48.721174819573577 -49.421522519996699 12.341413998773845 0 -0.84804809178421925 -0.52991927123019833 I I #
edge $-1 $247 -78.590044862208927 $130 -48.721174819573577 $190 $248 forward 7 unknown #
point $-1 -48.721174819573577 -49.421522519996714 23.432048933802697 #
point $-1 -48.721174819573577 -31.672796810338767 23.432048933802697 #
edge $-1 $249 1 $249 0 $133 $-1 forward 7 unknown #
vertex $-1 $134 $250 #
ellipse-curve $-1 -63.655609840891252 -39.028309503831935 15.456063153288845 0 -0.52991927123019833 0.84804809178421925 1.5 0 0 1 I I #
point $-1 -62.155609840891252 -40.547159665167754 17.886731466288278 #
loop $-1 $-1 $205 $137 #
plane-surface $-1 -78.590044862208927 0 0 1 0 0 0 0 -1 forward_v I I I I #
coedge $-1 $141 $140 $211 $251 reversed $54 $-1 #
coedge $-1 $252 $253 $141 $206 forward $202 $-1 #
edge $-1 $208 -67.107459896983542 $254 -46.178545745055956 $205 $255 forward 7 unknown #
coedge $-1 $147 $142 $253 $256 reversed $86 $-1 #
vertex $-1 $143 $257 #
straight-curve $-1 -31.827804920445626 49.421522519996721 12.341413998773838 -1 0 0 I I #
coedge $-1 $258 $144 $147 $215 forward $138 $-1 #
coedge $-1 $144 $258 $204 $251 forward $138 $-1 #
vertex $-1 $145 $259 #
straight-curve $-1 -48.721174819573577 24.445312693174664 23.432048933802704 0 1 0 I I #
straight-curve $-1 -48.721174819573577 -34.402133212311369 64.720248392540839 0 -0.84804809178421925 0.52991927123019833 I I #
edge $-1 $148 48.721174819573577 $260 78.590044862208927 $147 $261 forward 7 unknown #
point $-1 -48.721174819573577 49.421522519996714 23.432048933802697 #
point $-1 -48.721174819573577 49.421522519996714 12.341413998773838 #
edge $-1 $262 1 $262 0 $151 $-1 forward 7 unknown #
vertex $-1 $152 $263 #
ellipse-curve $-1 -63.655609840891252 39.028309503831935 15.456063153288838 0 0.52991927123019833 0.84804809178421925 1.5 0 0 1 I I #
point $-1 -62.155609840891252 40.547159665167754 17.886731466288271 #
plane-surface $-1 78.590044862208927 0 0 -1 0 0 0 0 1 forward_v I I I I #
coedge $-1 $160 $158 $162 $227 reversed $101 $-1 #
edge $-1 $173 -23.432048933802697 $229 23.432048933802697 $172 $264 forward 7 unknown #
vertex $-1 $227 $265 #
straight-curve $-1 -78.590044862208927 -49.421522519996714 0 0 0 -1 I I #
edge $-1 $225 -49.421522519996714 $229 49.421522519996714 $223 $266 forward 7 unknown #
straight-curve $-1 0 -49.421522519996714 -23.432048933802697 -1 0 0 I I #
vertex $-1 $165 $267 #
straight-curve $-1 0 49.421522519996714 -23.432048933802697 1 0 0 I I #
point $-1 78.590044862208927 49.421522519996714 -23.432048933802697 #
point $-1 78.590044862208927 -49.421522519996714 -23.432048933802697 #
straight-curve $-1 -78.590044862208927 0 23.432048933802697 0 -1 0 I I #
point $-1 -78.590044862208927 49.421522519996714 23.432048933802697 #
point $-1 -78.590044862208927 -49.421522519996714 23.432048933802697 #
straight-curve $-1 78.590044862208927 -49.421522519996714 0 0 0 -1 I I #
straight-curve $-1 78.590044862208927 49.421522519996714 0 0 0 -1 I I #
coedge $-1 $239 $184 $245 $268 reversed $120 $-1 #
coedge $-1 $184 $238 $187 $243 reversed $120 $-1 #
edge $-1 $241 -46.762239941763298 $192 -16.893369899127951 $191 $269 forward 7 unknown #
vertex $-1 $186 $270 #
straight-curve $-1 -78.590044862208927 -34.422997076027841 21.713533044609619 0 -0.84804809178421925 -0.52991927123019833 I I #
edge $-1 $188 31.672796810338767 $247 49.421522519996714 $239 $271 forward 7 unknown #
point $-1 -78.590044862208927 -31.672796810338767 23.432048933802697 #
coedge $-1 $191 $190 $238 $268 forward $182 $-1 #
point $-1 -48.721174819573577 -49.421522519996714 12.341413998773836 #
vertex $-1 $243 $272 #
straight-curve $-1 0 -49.421522519996714 23.432048933802697 1 0 0 I I #
vertex $-1 $198 $273 #
point $-1 -62.155609840891252 -39.028309503831935 15.456063153288845 #
edge $-1 $254 -46.762239941763298 $212 -16.893369899127951 $211 $274 forward 7 unknown #
coedge $-1 $253 $205 $258 $275 reversed $202 $-1 #
coedge $-1 $205 $252 $207 $256 forward $202 $-1 #
vertex $-1 $206 $276 #
straight-curve $-1 -78.590044862208927 -7.4888307901261939 47.902950241493116 0 -0.84804809178421925 0.52991927123019833 I I #
edge $-1 $260 -23.432048933802697 $208 -12.341413998773847 $207 $277 forward 7 unknown #
point $-1 -78.590044862208927 49.421522519996714 12.341413998773847 #
coedge $-1 $211 $210 $252 $275 forward $138 $-1 #
point $-1 -48.721174819573577 31.672796810338781 23.432048933802697 #
vertex $-1 $215 $278 #
straight-curve $-1 0 49.421522519996714 23.432048933802697 -1 0 0 I I #
vertex $-1 $218 $279 #
point $-1 -62.155609840891252 39.028309503831935 15.456063153288838 #
straight-curve $-1 -78.590044862208927 49.421522519996714 0 0 0 -1 I I #
point $-1 -78.590044862208927 -49.421522519996714 -23.432048933802697 #
straight-curve $-1 -78.590044862208927 0 -23.432048933802697 0 1 0 I I #
point $-1 -78.590044862208927 49.421522519996714 -23.432048933802697 #
edge $-1 $247 -23.432048933802697 $241 -12.341413998773836 $238 $280 forward 7 unknown #
straight-curve $-1 -31.827804920445626 -49.421522519996714 12.341413998773838 1 0 0 I I #
point $-1 -78.590044862208927 -49.421522519996714 12.341413998773836 #
straight-curve $-1 -78.590044862208927 0 23.432048933802697 0 -1 0 I I #
point $-1 -78.590044862208927 -49.421522519996714 23.432048933802697 #
point $-1 -63.655609840891252 -38.233430596986636 14.183991015612513 #
straight-curve $-1 -31.827804920445626 31.672796810338774 23.432048933802697 1 0 0 I I #
edge $-1 $260 -49.421522519996714 $254 -31.672796810338781 $252 $281 forward 7 unknown #
point $-1 -78.590044862208927 31.672796810338781 23.432048933802697 #
straight-curve $-1 -78.590044862208927 49.421522519996714 0 0 0 -1 I I #
point $-1 -78.590044862208927 49.421522519996714 23.432048933802697 #
point $-1 -63.655609840891252 38.233430596986636 14.183991015612506 #
straight-curve $-1 -78.590044862208927 -49.421522519996714 0 0 0 -1 I I #
straight-curve $-1 -78.590044862208927 0 23.432048933802697 0 -1 0 I I #
End-of-ACIS-data 