500 0 6 0           
7 Unknown 11 ACIS 5.0 NT 24 Fri Mar 26 00:43:08 1999 
-1 9.9999999999999995e-007 1e-010 
body $-1 $6 $-1 $7 #
body $-1 $8 $-1 $9 #
body $-1 $10 $-1 $11 #
body $-1 $12 $-1 $13 #
body $-1 $14 $-1 $15 #
body $-1 $16 $-1 $17 #
lump $-1 $-1 $18 $0 #
transform $-1 1 0 0 0 1 0 0 0 1 50.53376873073519 29.384444994481942 8.2422081345342431 1 rotate no_reflect no_shear #
lump $-1 $-1 $19 $1 #
transform $-1 1 0 0 0 1 0 0 0 1 50.53376873073519 29.384444994481942 8.2422081345342431 1 rotate no_reflect no_shear #
lump $-1 $-1 $20 $2 #
transform $-1 1 0 0 0 1 0 0 0 1 50.53376873073519 29.384444994481942 8.2422081345342431 1 rotate no_reflect no_shear #
lump $-1 $-1 $21 $3 #
transform $-1 1 0 0 0 1 0 0 0 1 50.53376873073519 29.384444994481942 8.2422081345342431 1 rotate no_reflect no_shear #
lump $-1 $-1 $22 $4 #
transform $-1 1 0 0 0 1 0 0 0 1 50.53376873073519 29.384444994481942 8.2422081345342431 1 rotate no_reflect no_shear #
lump $-1 $-1 $23 $5 #
transform $-1 1 0 0 0 1 0 0 0 1 50.53376873073519 29.384444994481942 8.2422081345342431 1 rotate no_reflect no_shear #
shell $-1 $-1 $-1 $24 $-1 $6 #
shell $-1 $-1 $-1 $25 $-1 $8 #
shell $-1 $-1 $-1 $26 $-1 $10 #
shell $-1 $-1 $-1 $27 $-1 $12 #
shell $-1 $-1 $-1 $28 $-1 $14 #
shell $-1 $-1 $-1 $29 $-1 $16 #
face $-1 $30 $31 $18 $-1 $32 forward single #
face $-1 $33 $34 $19 $-1 $35 reversed single #
face $-1 $36 $37 $20 $-1 $38 forward single #
face $-1 $39 $40 $21 $-1 $41 reversed single #
face $-1 $42 $43 $22 $-1 $44 forward single #
face $-1 $45 $46 $23 $-1 $47 forward single #
face $-1 $48 $49 $18 $-1 $50 reversed single #
loop $-1 $-1 $51 $24 #
plane-surface $-1 0 0 8.2422081345342431 0 0 1 1 0 0 forward_v I I I I #
face $-1 $52 $53 $19 $-1 $54 reversed single #
loop $-1 $-1 $55 $25 #
plane-surface $-1 -112.75715873210751 -23.448036952535098 83.459693009007097 0 1 0 -0.61566148304635926 0 0.78801074757464917 forward_v I I I I #
face $-1 $56 $57 $20 $-1 $58 forward single #
loop $-1 $59 $60 $26 #
cone-surface $-1 -46.6000899253212 -17.844119197241305 4.619401068397841 0.61566148304635926 0 -0.78801074757464917 1.1820161213619738 0 0.92349222456953894 1 I I 0 1 1.5 forward I I I I #
face $-1 $61 $62 $21 $-1 $63 reversed single #
loop $-1 $-1 $64 $27 #
plane-surface $-1 43.053335412977432 21.396366566537484 147.52881213088938 0 1 0 0.66913061440640931 0 0.74314481823134659 forward_v I I I I #
face $-1 $65 $66 $22 $-1 $67 forward single #
loop $-1 $68 $69 $28 #
cone-surface $-1 48.034628293017107 23.67867468880733 5.869186362656996 -0.66913061440640931 0 -0.74314481823134659 0.3715724091156733 0 -0.33456530720320465 1 I I 0 1 0.5 forward I I I I #
face $-1 $70 $71 $23 $-1 $72 forward single #
loop $-1 $73 $74 $29 #
cone-surface $-1 48.034628293017107 27.102136872212096 5.869186362656996 -0.66913061440640931 0 -0.74314481823134659 0.3715724091156733 0 -0.33456530720320465 1 I I 0 1 0.5 forward I I I I #
face $-1 $75 $76 $18 $-1 $77 reversed single #
loop $-1 $-1 $78 $30 #
plane-surface $-1 0 0 -8.2422081345342431 0 0 1 1 0 0 forward_v I I I I #
coedge $-1 $79 $80 $81 $82 forward $31 $-1 #
face $-1 $83 $84 $19 $-1 $85 reversed single #
loop $-1 $-1 $86 $33 #
plane-surface $-1 -50.53376873073519 -17.844119197241305 3.8173872584649615 -0.61566148304635926 0 0.78801074757464917 0.78801074757464917 0 0.61566148304635926 forward_v I I I I #
coedge $-1 $87 $88 $89 $90 reversed $34 $-1 #
face $-1 $-1 $91 $20 $-1 $92 forward single #
loop $-1 $93 $94 $36 #
cone-surface $-1 -45.036421177573317 -17.844119197241305 2.6179963796150911 0.61566148304635926 0 -0.78801074757464917 0.59100806068098688 0 0.46174611228476947 1 I I -0.70710678118654768 0.70710678118654735 0.75 forward I I I I #
loop $-1 $-1 $95 $26 #
coedge $-1 $60 $60 $96 $97 reversed $37 $-1 #
face $-1 $98 $99 $21 $-1 $100 reversed single #
loop $-1 $-1 $101 $39 #
plane-surface $-1 -24.57404802515903 25.390405780509713 72.420995374995158 0.66913061440640931 0 0.74314481823134659 0.74314481823134659 0 -0.66913061440640931 forward_v I I I I #
coedge $-1 $102 $103 $104 $105 reversed $40 $-1 #
face $-1 $-1 $106 $22 $-1 $107 forward single #
loop $-1 $108 $109 $42 #
cone-surface $-1 47.283232207858532 23.67867468880733 5.0346764850596717 -0.66913061440640931 0 -0.74314481823134659 0.18578620455783665 0 -0.16728265360160233 1 I I -0.70710678118654746 0.70710678118654746 0.25 forward I I I I #
loop $-1 $-1 $110 $28 #
coedge $-1 $69 $69 $111 $112 reversed $43 $-1 #
face $-1 $-1 $113 $23 $-1 $114 forward single #
loop $-1 $115 $116 $45 #
cone-surface $-1 47.283232207858532 27.102136872212096 5.0346764850596717 -0.66913061440640931 0 -0.74314481823134659 0.18578620455783665 0 -0.16728265360160233 1 I I -0.70710678118654746 0.70710678118654746 0.25 forward I I I I #
loop $-1 $-1 $117 $29 #
coedge $-1 $74 $74 $118 $119 reversed $46 $-1 #
face $-1 $120 $121 $18 $-1 $122 reversed single #
loop $-1 $-1 $123 $48 #
plane-surface $-1 0 -29.384444994481942 0 0 1 0 0 0 1 forward_v I I I I #
coedge $-1 $124 $125 $126 $127 forward $49 $-1 #
coedge $-1 $128 $51 $129 $130 forward $31 $-1 #
coedge $-1 $51 $128 $131 $132 forward $31 $-1 #
coedge $-1 $133 $134 $51 $82 reversed $135 $-1 #
edge $-1 $136 -29.384444994481942 $137 29.384444994481942 $81 $138 forward 7 unknown #
face $-1 $139 $140 $19 $-1 $141 reversed single #
loop $-1 $-1 $142 $52 #
plane-surface $-1 -112.75715873210751 -12.240201441947514 83.459693009007097 0 -1 0 0.61566148304635926 0 -0.78801074757464917 forward_v I I I I #
coedge $-1 $143 $144 $145 $146 reversed $53 $-1 #
coedge $-1 $88 $55 $147 $148 reversed $34 $-1 #
coedge $-1 $55 $87 $143 $149 reversed $34 $-1 #
coedge $-1 $145 $150 $55 $90 forward $151 $-1 #
edge $-1 $152 5.8448106353185665 $153 11.508322975220317 $89 $154 forward 7 unknown #
loop $-1 $-1 $96 $56 #
plane-surface $-1 -50.53376873073519 -17.844119197241305 3.8173872584649615 -0.61566148304635926 0 0.78801074757464917 0.78801074757464917 0 0.61566148304635926 forward_v I I I I #
loop $-1 $-1 $155 $36 #
coedge $-1 $94 $94 $95 $156 reversed $57 $-1 #
coedge $-1 $95 $95 $94 $156 forward $59 $-1 #
coedge $-1 $96 $96 $60 $97 forward $91 $-1 #
edge $-1 $157 0 $157 6.2831853071796004 $96 $158 forward 7 unknown #
face $-1 $159 $160 $21 $-1 $161 forward single #
loop $-1 $-1 $162 $61 #
plane-surface $-1 0 29.384444994481942 0 0 -1 0 0 0 -1 forward_v I I I I #
coedge $-1 $163 $164 $165 $166 reversed $62 $-1 #
coedge $-1 $103 $64 $167 $168 reversed $40 $-1 #
coedge $-1 $64 $102 $163 $169 reversed $40 $-1 #
coedge $-1 $165 $170 $64 $105 forward $171 $-1 #
edge $-1 $172 65.522197930910451 $173 68.970794128585993 $104 $174 forward 7 unknown #
loop $-1 $-1 $111 $65 #
plane-surface $-1 -24.57404802515903 25.390405780509713 72.420995374995158 0.66913061440640931 0 0.74314481823134659 0.74314481823134659 0 -0.66913061440640931 forward_v I I I I #
loop $-1 $-1 $175 $42 #
coedge $-1 $109 $109 $110 $176 reversed $66 $-1 #
coedge $-1 $110 $110 $109 $176 forward $68 $-1 #
coedge $-1 $111 $111 $69 $112 forward $106 $-1 #
edge $-1 $177 0 $177 6.2831853071796004 $111 $178 forward 7 unknown #
loop $-1 $-1 $118 $70 #
plane-surface $-1 -24.57404802515903 25.390405780509713 72.420995374995158 0.66913061440640931 0 0.74314481823134659 0.74314481823134659 0 -0.66913061440640931 forward_v I I I I #
loop $-1 $-1 $179 $45 #
coedge $-1 $116 $116 $117 $180 reversed $71 $-1 #
coedge $-1 $117 $117 $116 $180 forward $73 $-1 #
coedge $-1 $118 $118 $74 $119 forward $113 $-1 #
edge $-1 $181 0 $181 6.2831853071796004 $118 $182 forward 7 unknown #
face $-1 $183 $184 $18 $-1 $185 reversed single #
loop $-1 $-1 $186 $75 #
plane-surface $-1 -50.53376873073519 0 0 1 0 0 0 0 -1 forward_v I I I I #
coedge $-1 $187 $131 $188 $189 forward $76 $-1 #
coedge $-1 $190 $78 $187 $191 forward $49 $-1 #
coedge $-1 $78 $190 $192 $193 forward $49 $-1 #
coedge $-1 $134 $133 $78 $127 reversed $135 $-1 #
edge $-1 $194 -29.384444994481942 $195 29.384444994481942 $126 $196 forward 7 unknown #
coedge $-1 $80 $79 $197 $198 forward $31 $-1 #
coedge $-1 $199 $200 $79 $130 reversed $184 $-1 #
edge $-1 $137 -50.53376873073519 $201 50.53376873073519 $129 $202 forward 7 unknown #
coedge $-1 $123 $203 $80 $132 reversed $76 $-1 #
edge $-1 $204 -50.53376873073519 $136 50.53376873073519 $131 $205 forward 7 unknown #
coedge $-1 $126 $81 $203 $206 forward $135 $-1 #
coedge $-1 $81 $126 $199 $207 reversed $135 $-1 #
loop $-1 $-1 $133 $183 #
vertex $-1 $82 $208 #
vertex $-1 $82 $209 #
straight-curve $-1 50.53376873073519 0 8.2422081345342431 0 1 0 I I #
face $-1 $-1 $151 $19 $-1 $210 forward single #
loop $-1 $-1 $211 $83 #
plane-surface $-1 -50.53376873073519 0 0 1 0 0 0 0 -1 forward_v I I I I #
coedge $-1 $212 $213 $214 $215 reversed $84 $-1 #
coedge $-1 $216 $86 $88 $149 forward $53 $-1 #
coedge $-1 $86 $216 $212 $217 forward $53 $-1 #
coedge $-1 $214 $89 $86 $146 forward $151 $-1 #
edge $-1 $153 -14.525977353914445 $218 -3.3181418433268615 $145 $219 forward 7 unknown #
coedge $-1 $220 $221 $87 $148 forward $140 $-1 #
edge $-1 $222 -37.912459246038587 $152 -33.487638369969304 $147 $223 forward 7 unknown #
edge $-1 $153 -7.1871003756395329 $222 0 $88 $224 forward 7 unknown #
coedge $-1 $89 $214 $220 $225 forward $151 $-1 #
loop $-1 $-1 $214 $139 #
vertex $-1 $148 $226 #
vertex $-1 $90 $227 #
straight-curve $-1 -56.378579366053756 -23.448036952535098 8.2422081345342448 1 0 0 I I #
coedge $-1 $155 $155 $-1 $228 reversed $93 $-1 #
edge $-1 $229 0 $229 6.2831853071796004 $94 $230 forward 7 unknown #
vertex $-1 $97 $231 #
ellipse-curve $-1 -47.702012560784311 -17.844119197241305 6.0297976964996032 -0.61566148304635926 0 0.78801074757464917 1.1820161213619738 0 0.92349222456953894 1 I I #
face $-1 $-1 $171 $21 $-1 $232 reversed single #
loop $-1 $-1 $233 $98 #
plane-surface $-1 0 0 8.2422081345342431 0 0 1 1 0 0 forward_v I I I I #
coedge $-1 $234 $235 $164 $236 forward $99 $-1 #
coedge $-1 $237 $101 $103 $169 forward $62 $-1 #
coedge $-1 $101 $237 $162 $236 reversed $62 $-1 #
coedge $-1 $238 $104 $101 $166 forward $171 $-1 #
edge $-1 $173 8.7011636762826274 $239 16.689242104227084 $165 $240 forward 7 unknown #
coedge $-1 $241 $233 $102 $168 forward $160 $-1 #
edge $-1 $242 25.177047011924252 $172 29.007101024246474 $167 $243 forward 7 unknown #
edge $-1 $173 -101.06753746147038 $242 -95.913691376076699 $103 $244 forward 7 unknown #
coedge $-1 $104 $238 $241 $245 reversed $171 $-1 #
loop $-1 $-1 $165 $159 #
vertex $-1 $245 $246 #
vertex $-1 $105 $247 #
straight-curve $-1 50.53376873073519 21.396366566537484 73.764406065444689 0 0 -1 I I #
coedge $-1 $175 $175 $-1 $248 reversed $108 $-1 #
edge $-1 $249 0 $249 6.2831853071796004 $109 $250 forward 7 unknown #
vertex $-1 $112 $251 #
ellipse-curve $-1 48.618741724574072 23.67867468880733 6.5179100356964756 0.66913061440640931 0 0.74314481823134659 0.3715724091156733 0 -0.33456530720320465 1 I I #
coedge $-1 $179 $179 $-1 $252 reversed $115 $-1 #
edge $-1 $253 0 $253 6.2831853071796004 $116 $254 forward 7 unknown #
vertex $-1 $119 $255 #
ellipse-curve $-1 48.618741724574072 27.102136872212096 6.5179100356964756 0.66913061440640931 0 0.74314481823134659 0.3715724091156733 0 -0.33456530720320465 1 I I #
face $-1 $-1 $135 $18 $-1 $256 reversed single #
loop $-1 $-1 $199 $120 #
plane-surface $-1 0 29.384444994481942 0 0 -1 0 0 0 -1 forward_v I I I I #
coedge $-1 $257 $197 $200 $258 forward $121 $-1 #
coedge $-1 $203 $123 $124 $191 reversed $76 $-1 #
coedge $-1 $197 $257 $123 $189 reversed $121 $-1 #
edge $-1 $204 -8.2422081345342431 $259 8.2422081345342431 $188 $260 forward 7 unknown #
coedge $-1 $125 $124 $257 $261 forward $49 $-1 #
edge $-1 $195 -50.53376873073519 $259 50.53376873073519 $187 $262 forward 7 unknown #
coedge $-1 $200 $199 $125 $193 reversed $184 $-1 #
edge $-1 $263 -50.53376873073519 $194 50.53376873073519 $192 $264 forward 7 unknown #
vertex $-1 $127 $265 #
vertex $-1 $206 $266 #
straight-curve $-1 50.53376873073519 0 -8.2422081345342431 0 -1 0 I I #
coedge $-1 $186 $188 $128 $198 reversed $121 $-1 #
edge $-1 $201 -29.384444994481942 $204 29.384444994481942 $197 $267 forward 7 unknown #
coedge $-1 $192 $129 $134 $207 forward $184 $-1 #
coedge $-1 $129 $192 $186 $258 reversed $184 $-1 #
vertex $-1 $130 $268 #
straight-curve $-1 0 29.384444994481942 8.2422081345342431 -1 0 0 I I #
coedge $-1 $131 $187 $133 $206 reversed $76 $-1 #
vertex $-1 $198 $269 #
straight-curve $-1 0 -29.384444994481942 8.2422081345342431 1 0 0 I I #
edge $-1 $136 -8.2422081345342431 $195 8.2422081345342431 $133 $270 forward 7 unknown #
edge $-1 $137 -8.2422081345342431 $194 8.2422081345342431 $134 $271 forward 7 unknown #
point $-1 50.53376873073519 -29.384444994481942 8.2422081345342431 #
point $-1 50.53376873073519 29.384444994481942 8.2422081345342431 #
plane-surface $-1 0 0 8.2422081345342431 0 0 1 1 0 0 forward_v I I I I #
coedge $-1 $221 $220 $213 $272 forward $140 $-1 #
coedge $-1 $213 $142 $144 $217 reversed $84 $-1 #
coedge $-1 $142 $212 $211 $272 reversed $84 $-1 #
coedge $-1 $150 $145 $142 $215 forward $151 $-1 #
edge $-1 $218 -11.508322975220317 $273 -5.8448106353185665 $214 $274 forward 7 unknown #
coedge $-1 $144 $143 $221 $275 reversed $53 $-1 #
edge $-1 $276 0 $218 7.1871003756395329 $212 $277 forward 7 unknown #
vertex $-1 $146 $278 #
straight-curve $-1 -44.87025639083344 -8.9220595986206526 8.2422081345342431 0 1 0 I I #
coedge $-1 $211 $147 $150 $225 reversed $140 $-1 #
coedge $-1 $147 $211 $216 $275 forward $140 $-1 #
vertex $-1 $148 $279 #
straight-curve $-1 -50.53376873073519 -23.448036952535098 41.729846504503548 0 0 1 I I #
straight-curve $-1 -50.53376873073519 -23.448036952535098 3.8173872584649615 -0.78801074757464917 0 -0.61566148304635926 I I #
edge $-1 $273 12.240201441947514 $152 23.448036952535098 $220 $280 forward 7 unknown #
point $-1 -50.53376873073519 -23.448036952535098 8.2422081345342431 #
point $-1 -44.87025639083344 -23.448036952535098 8.2422081345342431 #
edge $-1 $281 1 $281 0 $155 $-1 forward 7 unknown #
vertex $-1 $156 $282 #
ellipse-curve $-1 -45.498167289858088 -17.844119197241305 3.2090044402960776 -0.61566148304635926 0 0.78801074757464917 1.1820161213619738 0 0.92349222456953894 1 I I #
point $-1 -46.519996439422343 -17.844119197241305 6.9532899210691426 #
plane-surface $-1 50.53376873073519 0 0 -1 0 0 0 0 1 forward_v I I I I #
coedge $-1 $167 $283 $237 $284 forward $160 $-1 #
coedge $-1 $235 $162 $283 $285 reversed $99 $-1 #
coedge $-1 $162 $234 $238 $286 forward $99 $-1 #
edge $-1 $239 -67.706946669440669 $287 -62.553100584046987 $162 $288 forward 7 unknown #
coedge $-1 $164 $163 $233 $284 reversed $62 $-1 #
coedge $-1 $170 $165 $235 $286 reversed $171 $-1 #
vertex $-1 $236 $289 #
straight-curve $-1 50.53376873073519 12.695202890254857 4.7936119368586958 0 1 0 I I #
coedge $-1 $283 $167 $170 $245 forward $160 $-1 #
vertex $-1 $168 $290 #
straight-curve $-1 21.526667706488716 21.396366566537484 8.2422081345342377 1 0 0 I I #
straight-curve $-1 -24.57404802515903 21.396366566537484 72.420995374995158 -0.74314481823134659 0 0.66913061440640931 I I #
edge $-1 $172 21.396366566537484 $291 29.384444994481942 $170 $292 forward 7 unknown #
point $-1 50.53376873073519 21.396366566537484 8.2422081345342431 #
point $-1 50.53376873073519 21.396366566537484 4.7936119368586958 #
edge $-1 $293 1 $293 0 $175 $-1 forward 7 unknown #
vertex $-1 $176 $294 #
ellipse-curve $-1 47.450514861460135 23.67867468880733 5.2204626896175084 0.66913061440640931 0 0.74314481823134659 0.3715724091156733 0 -0.33456530720320465 1 I I #
point $-1 48.990314133689751 23.67867468880733 6.1833447284932781 #
edge $-1 $295 1 $295 0 $179 $-1 forward 7 unknown #
vertex $-1 $180 $296 #
ellipse-curve $-1 47.450514861460135 27.102136872212096 5.2204626896175084 0.66913061440640931 0 0.74314481823134659 0.3715724091156733 0 -0.33456530720320465 1 I I #
point $-1 48.990314133689751 27.102136872212096 6.1833447284932781 #
plane-surface $-1 50.53376873073519 0 0 -1 0 0 0 0 1 forward_v I I I I #
coedge $-1 $188 $186 $190 $261 reversed $121 $-1 #
edge $-1 $201 -8.2422081345342431 $263 8.2422081345342431 $200 $297 forward 7 unknown #
vertex $-1 $261 $298 #
straight-curve $-1 -50.53376873073519 -29.384444994481942 0 0 0 -1 I I #
edge $-1 $259 -29.384444994481942 $263 29.384444994481942 $257 $299 forward 7 unknown #
straight-curve $-1 0 -29.384444994481942 -8.2422081345342431 -1 0 0 I I #
vertex $-1 $193 $300 #
straight-curve $-1 0 29.384444994481942 -8.2422081345342431 1 0 0 I I #
point $-1 50.53376873073519 29.384444994481942 -8.2422081345342431 #
point $-1 50.53376873073519 -29.384444994481942 -8.2422081345342431 #
straight-curve $-1 -50.53376873073519 0 8.2422081345342431 0 -1 0 I I #
point $-1 -50.53376873073519 29.384444994481942 8.2422081345342431 #
point $-1 -50.53376873073519 -29.384444994481942 8.2422081345342431 #
straight-curve $-1 50.53376873073519 -29.384444994481942 0 0 0 -1 I I #
straight-curve $-1 50.53376873073519 29.384444994481942 0 0 0 -1 I I #
edge $-1 $273 33.487638369969304 $276 37.912459246038587 $211 $301 forward 7 unknown #
vertex $-1 $225 $302 #
straight-curve $-1 -56.378579366053756 -12.240201441947514 8.2422081345342448 -1 0 0 I I #
edge $-1 $276 3.3181418433268615 $222 14.525977353914445 $221 $303 forward 7 unknown #
vertex $-1 $275 $304 #
straight-curve $-1 -50.53376873073519 -12.240201441947514 3.8173872584649615 0.78801074757464917 0 0.61566148304635926 I I #
point $-1 -44.87025639083344 -12.240201441947514 8.2422081345342431 #
point $-1 -50.53376873073519 -23.448036952535098 3.8173872584649615 #
straight-curve $-1 -50.53376873073519 0 8.2422081345342431 0 -1 0 I I #
vertex $-1 $228 $305 #
point $-1 -44.316151168496113 -17.844119197241305 4.1324966648656165 #
coedge $-1 $233 $241 $234 $285 forward $160 $-1 #
edge $-1 $287 -16.689242104227084 $242 -8.7011636762826274 $233 $306 forward 7 unknown #
edge $-1 $291 -50.53376873073519 $287 -46.703714718412968 $234 $307 forward 7 unknown #
edge $-1 $291 -8.2422081345342431 $239 -4.7936119368586878 $238 $308 forward 7 unknown #
vertex $-1 $236 $309 #
straight-curve $-1 0.21770215507422641 29.384444994481942 50.098402761363516 -0.74314481823134659 0 0.66913061440640931 I I #
point $-1 50.53376873073519 29.384444994481942 4.7936119368586878 #
point $-1 46.703714718412968 21.396366566537484 8.2422081345342377 #
vertex $-1 $245 $310 #
straight-curve $-1 50.53376873073519 0 8.2422081345342431 0 1 0 I I #
vertex $-1 $248 $311 #
point $-1 47.822087270575807 23.67867468880733 4.8858973824143037 #
vertex $-1 $252 $312 #
point $-1 47.822087270575807 27.102136872212096 4.8858973824143037 #
straight-curve $-1 -50.53376873073519 29.384444994481942 0 0 0 -1 I I #
point $-1 -50.53376873073519 -29.384444994481942 -8.2422081345342431 #
straight-curve $-1 -50.53376873073519 0 -8.2422081345342431 0 1 0 I I #
point $-1 -50.53376873073519 29.384444994481942 -8.2422081345342431 #
straight-curve $-1 -50.53376873073519 -12.240201441947514 41.729846504503548 0 0 -1 I I #
point $-1 -50.53376873073519 -12.240201441947514 8.2422081345342431 #
straight-curve $-1 -50.53376873073519 -8.9220595986206526 3.8173872584649629 0 -1 0 I I #
point $-1 -50.53376873073519 -12.240201441947514 3.8173872584649615 #
point $-1 -44.574675065288545 -17.844119197241305 2.0269883189341047 #
straight-curve $-1 46.703714718412954 12.695202890254857 8.2422081345342377 0 -1 0 I I #
straight-curve $-1 0 29.384444994481942 8.2422081345342431 -1 0 0 I I #
straight-curve $-1 50.53376873073519 29.384444994481942 0 0 0 -1 I I #
point $-1 46.703714718412968 29.384444994481942 8.2422081345342377 #
point $-1 50.53376873073519 29.384444994481942 8.2422081345342431 #
point $-1 47.115949554256929 23.67867468880733 4.848890280501835 #
point $-1 47.115949554256929 27.102136872212096 4.848890280501835 #
End-of-ACIS-data 