500 0 11 0           
7 Unknown 11 ACIS 5.0 NT 24 Fri Mar 26 18:36:01 1999 
-1 9.9999999999999995e-007 1e-010 
body $-1 $11 $-1 $12 #
body $-1 $13 $-1 $14 #
body $-1 $15 $-1 $16 #
body $-1 $17 $-1 $18 #
body $-1 $19 $-1 $20 #
body $-1 $21 $-1 $22 #
body $-1 $23 $-1 $24 #
body $-1 $25 $-1 $26 #
body $-1 $27 $-1 $28 #
body $-1 $29 $-1 $30 #
body $-1 $31 $-1 $32 #
lump $-1 $-1 $33 $0 #
transform $-1 1 0 0 0 1 0 0 0 1 56.071047090060119 28.706829180987899 8.0597618462579543 1 rotate no_reflect no_shear #
lump $-1 $-1 $34 $1 #
transform $-1 1 0 0 0 1 0 0 0 1 56.071047090060119 28.706829180987899 8.0597618462579543 1 rotate no_reflect no_shear #
lump $-1 $-1 $35 $2 #
transform $-1 1 0 0 0 1 0 0 0 1 56.071047090060119 28.706829180987899 8.0597618462579543 1 rotate no_reflect no_shear #
lump $-1 $-1 $36 $3 #
transform $-1 1 0 0 0 1 0 0 0 1 56.071047090060119 28.706829180987899 8.0597618462579543 1 rotate no_reflect no_shear #
lump $-1 $-1 $37 $4 #
transform $-1 1 0 0 0 1 0 0 0 1 56.071047090060119 28.706829180987899 8.0597618462579543 1 rotate no_reflect no_shear #
lump $-1 $-1 $38 $5 #
transform $-1 1 0 0 0 1 0 0 0 1 56.071047090060119 28.706829180987899 8.0597618462579543 1 rotate no_reflect no_shear #
lump $-1 $-1 $39 $6 #
transform $-1 1 0 0 0 1 0 0 0 1 56.071047090060119 28.706829180987899 8.0597618462579543 1 rotate no_reflect no_shear #
lump $-1 $-1 $40 $7 #
transform $-1 1 0 0 0 1 0 0 0 1 56.071047090060119 28.706829180987899 8.0597618462579543 1 rotate no_reflect no_shear #
lump $-1 $-1 $41 $8 #
transform $-1 1 0 0 0 1 0 0 0 1 56.071047090060119 28.706829180987899 8.0597618462579543 1 rotate no_reflect no_shear #
lump $-1 $-1 $42 $9 #
transform $-1 1 0 0 0 1 0 0 0 1 56.071047090060119 28.706829180987899 8.0597618462579543 1 rotate no_reflect no_shear #
lump $-1 $-1 $43 $10 #
transform $-1 1 0 0 0 1 0 0 0 1 56.071047090060119 28.706829180987899 8.0597618462579543 1 rotate no_reflect no_shear #
shell $-1 $-1 $-1 $44 $-1 $11 #
shell $-1 $-1 $-1 $45 $-1 $13 #
shell $-1 $-1 $-1 $46 $-1 $15 #
shell $-1 $-1 $-1 $47 $-1 $17 #
shell $-1 $-1 $-1 $48 $-1 $19 #
shell $-1 $-1 $-1 $49 $-1 $21 #
shell $-1 $-1 $-1 $50 $-1 $23 #
shell $-1 $-1 $-1 $51 $-1 $25 #
shell $-1 $-1 $-1 $52 $-1 $27 #
shell $-1 $-1 $-1 $53 $-1 $29 #
shell $-1 $-1 $-1 $54 $-1 $31 #
face $-1 $55 $56 $33 $-1 $57 forward single #
face $-1 $58 $59 $34 $-1 $60 reversed single #
face $-1 $61 $62 $35 $-1 $63 reversed single #
face $-1 $64 $65 $36 $-1 $66 reversed single #
face $-1 $67 $68 $37 $-1 $69 forward single #
face $-1 $70 $71 $38 $-1 $72 forward single #
face $-1 $73 $74 $39 $-1 $75 forward single #
face $-1 $76 $77 $40 $-1 $78 reversed single #
face $-1 $79 $80 $41 $-1 $81 forward single #
face $-1 $82 $83 $42 $-1 $84 forward single #
face $-1 $85 $86 $43 $-1 $87 forward single #
face $-1 $88 $89 $33 $-1 $90 reversed single #
loop $-1 $-1 $91 $44 #
plane-surface $-1 0 0 8.0597618462579543 0 0 1 1 0 0 forward_v I I I I #
face $-1 $92 $93 $34 $-1 $94 reversed single #
loop $-1 $-1 $95 $45 #
plane-surface $-1 -46.406859615249914 -26.334554205705189 0 -1 0 0 0 0 1 forward_v I I I I #
face $-1 $96 $97 $35 $-1 $98 reversed single #
loop $-1 $-1 $99 $46 #
plane-surface $-1 51.238953352655017 -28.168348648052884 0 0 1 0 0 0 1 forward_v I I I I #
face $-1 $100 $101 $36 $-1 $102 reversed single #
loop $-1 $-1 $103 $47 #
plane-surface $-1 -34.295783858731227 -84.777877022258338 100.87608805606094 -1 0 0 0 -0.50000000669873634 0.8660253999169214 forward_v I I I I #
face $-1 $104 $105 $37 $-1 $106 forward single #
loop $-1 $107 $108 $48 #
cone-surface $-1 -43.984644463946182 -24.450205225703389 4.9886485382266654 0 0.50000000669873634 -0.8660253999169214 1 0 0 1 I I 0 1 1 forward I I I I #
face $-1 $109 $110 $38 $-1 $111 forward single #
loop $-1 $112 $113 $49 #
cone-surface $-1 -40.35132173699057 -24.450205225703389 4.9886485382266654 0 0.50000000669873634 -0.8660253999169214 1 0 0 1 I I 0 1 1 forward I I I I #
face $-1 $114 $115 $39 $-1 $116 forward single #
loop $-1 $117 $118 $50 #
cone-surface $-1 -36.717999010034966 -24.450205225703389 4.9886485382266654 0 0.50000000669873634 -0.8660253999169214 1 0 0 1 I I 0 1 1 forward I I I I #
face $-1 $119 $120 $40 $-1 $121 reversed single #
loop $-1 $-1 $122 $51 #
plane-surface $-1 -46.406859615249914 35.056190578634755 129.58291762164779 1 0 0 0 -0.50000000669873634 -0.8660253999169214 forward_v I I I I #
face $-1 $123 $124 $41 $-1 $125 forward single #
loop $-1 $126 $127 $52 #
cone-surface $-1 -43.984644463946182 24.450205225703385 4.9886485382266601 0 -0.50000000669873634 -0.8660253999169214 1 0 0 1 I I 0 1 1 forward I I I I #
face $-1 $128 $129 $42 $-1 $130 forward single #
loop $-1 $131 $132 $53 #
cone-surface $-1 -40.35132173699057 24.450205225703385 4.9886485382266601 0 -0.50000000669873634 -0.8660253999169214 1 0 0 1 I I 0 1 1 forward I I I I #
face $-1 $133 $134 $43 $-1 $135 forward single #
loop $-1 $136 $137 $54 #
cone-surface $-1 -36.717999010034966 24.450205225703385 4.9886485382266601 0 -0.50000000669873634 -0.8660253999169214 1 0 0 1 I I 0 1 1 forward I I I I #
face $-1 $138 $139 $33 $-1 $140 reversed single #
loop $-1 $-1 $141 $55 #
plane-surface $-1 0 0 -8.0597618462579543 0 0 1 1 0 0 forward_v I I I I #
coedge $-1 $142 $143 $144 $145 forward $56 $-1 #
face $-1 $146 $147 $34 $-1 $148 reversed single #
loop $-1 $-1 $149 $58 #
plane-surface $-1 -51.238953352655017 -28.168348648052884 0 0 1 0 0 0 1 forward_v I I I I #
coedge $-1 $150 $151 $152 $153 forward $59 $-1 #
face $-1 $154 $155 $35 $-1 $156 reversed single #
loop $-1 $-1 $157 $61 #
plane-surface $-1 46.406859615249914 -26.334554205705189 0 1 0 0 0 0 -1 forward_v I I I I #
coedge $-1 $158 $159 $160 $161 forward $62 $-1 #
face $-1 $162 $163 $36 $-1 $164 reversed single #
loop $-1 $-1 $165 $64 #
plane-surface $-1 -40.35132173699057 -28.706829180987896 3.7581860962012428 0 -0.50000000669873634 0.8660253999169214 1 0 0 forward_v I I I I #
coedge $-1 $166 $167 $168 $169 reversed $65 $-1 #
face $-1 $-1 $170 $37 $-1 $171 forward single #
loop $-1 $172 $173 $67 #
cone-surface $-1 -43.984644463946182 -23.668855076376055 3.6353104052652725 0 0.50000000669873634 -0.8660253999169214 0.5 0 0 1 I I -0.70710678118654746 0.70710678118654746 0.5 forward I I I I #
loop $-1 $-1 $174 $48 #
coedge $-1 $108 $108 $175 $176 reversed $68 $-1 #
face $-1 $-1 $177 $38 $-1 $178 forward single #
loop $-1 $179 $180 $70 #
cone-surface $-1 -40.35132173699057 -23.668855076376055 3.6353104052652725 0 0.50000000669873634 -0.8660253999169214 0.5 0 0 1 I I -0.70710678118654746 0.70710678118654746 0.5 forward I I I I #
loop $-1 $-1 $181 $49 #
coedge $-1 $113 $113 $182 $183 reversed $71 $-1 #
face $-1 $-1 $184 $39 $-1 $185 forward single #
loop $-1 $186 $187 $73 #
cone-surface $-1 -36.717999010034966 -23.668855076376055 3.6353104052652725 0 0.50000000669873634 -0.8660253999169214 0.5 0 0 1 I I -0.70710678118654746 0.70710678118654746 0.5 forward I I I I #
loop $-1 $-1 $188 $50 #
coedge $-1 $118 $118 $189 $190 reversed $74 $-1 #
face $-1 $191 $192 $40 $-1 $193 reversed single #
loop $-1 $-1 $194 $76 #
plane-surface $-1 -40.35132173699057 -21.014857262635687 32.465015661788101 0 0.50000000669873634 0.8660253999169214 1 0 0 forward_v I I I I #
coedge $-1 $195 $196 $197 $198 reversed $77 $-1 #
face $-1 $-1 $199 $41 $-1 $200 forward single #
loop $-1 $201 $202 $79 #
cone-surface $-1 -43.984644463946182 23.668855076376051 3.6353104052652672 0 -0.50000000669873634 -0.8660253999169214 0.5 0 0 1 I I -0.70710678118654746 0.70710678118654746 0.5 forward I I I I #
loop $-1 $-1 $203 $52 #
coedge $-1 $127 $127 $204 $205 reversed $80 $-1 #
face $-1 $-1 $206 $42 $-1 $207 forward single #
loop $-1 $208 $209 $82 #
cone-surface $-1 -40.35132173699057 23.668855076376051 3.6353104052652672 0 -0.50000000669873634 -0.8660253999169214 0.5 0 0 1 I I -0.70710678118654746 0.70710678118654746 0.5 forward I I I I #
loop $-1 $-1 $210 $53 #
coedge $-1 $132 $132 $211 $212 reversed $83 $-1 #
face $-1 $-1 $213 $43 $-1 $214 forward single #
loop $-1 $215 $216 $85 #
cone-surface $-1 -36.717999010034966 23.668855076376051 3.6353104052652672 0 -0.50000000669873634 -0.8660253999169214 0.5 0 0 1 I I -0.70710678118654746 0.70710678118654746 0.5 forward I I I I #
loop $-1 $-1 $217 $54 #
coedge $-1 $137 $137 $218 $219 reversed $86 $-1 #
face $-1 $220 $221 $33 $-1 $222 reversed single #
loop $-1 $-1 $223 $88 #
plane-surface $-1 0 -28.706829180987899 0 0 1 0 0 0 1 forward_v I I I I #
coedge $-1 $224 $225 $226 $227 forward $89 $-1 #
coedge $-1 $228 $91 $229 $230 forward $56 $-1 #
coedge $-1 $91 $228 $231 $232 forward $56 $-1 #
coedge $-1 $233 $234 $91 $145 reversed $235 $-1 #
edge $-1 $236 -28.706829180987899 $237 28.706829180987899 $144 $238 forward 7 unknown #
face $-1 $239 $240 $34 $-1 $241 reversed single #
loop $-1 $-1 $242 $92 #
plane-surface $-1 -51.238953352655017 -24.500759763357493 0 0 -1 0 0 0 -1 forward_v I I I I #
coedge $-1 $243 $244 $245 $246 reversed $93 $-1 #
coedge $-1 $247 $95 $248 $249 reversed $59 $-1 #
coedge $-1 $95 $247 $250 $251 reversed $59 $-1 #
coedge $-1 $244 $243 $95 $153 reversed $93 $-1 #
edge $-1 $252 -8.0597618462579543 $253 8.0597618462579543 $95 $254 forward 7 unknown #
face $-1 $255 $256 $35 $-1 $257 reversed single #
loop $-1 $-1 $258 $96 #
plane-surface $-1 51.238953352655017 -24.500759763357493 0 0 -1 0 0 0 -1 forward_v I I I I #
coedge $-1 $259 $260 $261 $262 forward $97 $-1 #
coedge $-1 $263 $99 $264 $265 reversed $62 $-1 #
coedge $-1 $99 $263 $266 $267 reversed $62 $-1 #
coedge $-1 $260 $259 $99 $161 reversed $97 $-1 #
edge $-1 $268 -8.0597618462579543 $269 8.0597618462579543 $160 $270 forward 7 unknown #
face $-1 $271 $272 $36 $-1 $273 forward single #
loop $-1 $-1 $274 $100 #
plane-surface $-1 0 -28.706829180987899 0 0 1 0 0 0 1 forward_v I I I I #
coedge $-1 $275 $276 $277 $278 reversed $101 $-1 #
coedge $-1 $167 $103 $279 $280 reversed $65 $-1 #
coedge $-1 $103 $166 $275 $281 reversed $65 $-1 #
coedge $-1 $277 $282 $103 $169 forward $272 $-1 #
edge $-1 $283 13.68210933014127 $284 21.132656948754352 $168 $285 forward 7 unknown #
loop $-1 $-1 $175 $104 #
plane-surface $-1 -40.35132173699057 -28.706829180987896 3.7581860962012428 0 -0.50000000669873634 0.8660253999169214 1 0 0 forward_v I I I I #
loop $-1 $-1 $286 $67 #
coedge $-1 $173 $173 $174 $287 reversed $105 $-1 #
coedge $-1 $174 $174 $173 $287 forward $107 $-1 #
coedge $-1 $175 $175 $108 $176 forward $170 $-1 #
edge $-1 $288 0 $288 6.2831853071796004 $175 $289 forward 7 unknown #
loop $-1 $-1 $182 $109 #
plane-surface $-1 -40.35132173699057 -28.706829180987896 3.7581860962012428 0 -0.50000000669873634 0.8660253999169214 1 0 0 forward_v I I I I #
loop $-1 $-1 $290 $70 #
coedge $-1 $180 $180 $181 $291 reversed $110 $-1 #
coedge $-1 $181 $181 $180 $291 forward $112 $-1 #
coedge $-1 $182 $182 $113 $183 forward $177 $-1 #
edge $-1 $292 0 $292 6.2831853071796004 $182 $293 forward 7 unknown #
loop $-1 $-1 $189 $114 #
plane-surface $-1 -40.35132173699057 -28.706829180987896 3.7581860962012428 0 -0.50000000669873634 0.8660253999169214 1 0 0 forward_v I I I I #
loop $-1 $-1 $294 $73 #
coedge $-1 $187 $187 $188 $295 reversed $115 $-1 #
coedge $-1 $188 $188 $187 $295 forward $117 $-1 #
coedge $-1 $189 $189 $118 $190 forward $184 $-1 #
edge $-1 $296 0 $296 6.2831853071796004 $189 $297 forward 7 unknown #
face $-1 $298 $299 $40 $-1 $300 reversed single #
loop $-1 $-1 $301 $119 #
plane-surface $-1 -34.295783858731227 35.056190578634755 129.58291762164779 -1 0 0 0 0.50000000669873634 0.8660253999169214 forward_v I I I I #
coedge $-1 $302 $303 $304 $305 reversed $120 $-1 #
coedge $-1 $196 $122 $306 $307 reversed $77 $-1 #
coedge $-1 $122 $195 $302 $308 reversed $77 $-1 #
coedge $-1 $304 $309 $122 $198 forward $310 $-1 #
edge $-1 $311 -11.178733891670522 $312 -3.7281862730574389 $197 $313 forward 7 unknown #
loop $-1 $-1 $204 $123 #
plane-surface $-1 -40.35132173699057 -21.014857262635687 32.465015661788101 0 0.50000000669873634 0.8660253999169214 1 0 0 forward_v I I I I #
loop $-1 $-1 $314 $79 #
coedge $-1 $202 $202 $203 $315 reversed $124 $-1 #
coedge $-1 $203 $203 $202 $315 forward $126 $-1 #
coedge $-1 $204 $204 $127 $205 forward $199 $-1 #
edge $-1 $316 -8.2440997935021322e-016 $316 6.2831853071795996 $204 $317 forward 7 unknown #
loop $-1 $-1 $211 $128 #
plane-surface $-1 -40.35132173699057 -21.014857262635687 32.465015661788101 0 0.50000000669873634 0.8660253999169214 1 0 0 forward_v I I I I #
loop $-1 $-1 $318 $82 #
coedge $-1 $209 $209 $210 $319 reversed $129 $-1 #
coedge $-1 $210 $210 $209 $319 forward $131 $-1 #
coedge $-1 $211 $211 $132 $212 forward $206 $-1 #
edge $-1 $320 -8.2440997935021322e-016 $320 6.2831853071795996 $211 $321 forward 7 unknown #
loop $-1 $-1 $218 $133 #
plane-surface $-1 -40.35132173699057 -21.014857262635687 32.465015661788101 0 0.50000000669873634 0.8660253999169214 1 0 0 forward_v I I I I #
loop $-1 $-1 $322 $85 #
coedge $-1 $216 $216 $217 $323 reversed $134 $-1 #
coedge $-1 $217 $217 $216 $323 forward $136 $-1 #
coedge $-1 $218 $218 $137 $219 forward $213 $-1 #
edge $-1 $324 -8.2440997935021322e-016 $324 6.2831853071795996 $218 $325 forward 7 unknown #
face $-1 $326 $327 $33 $-1 $328 reversed single #
loop $-1 $-1 $329 $138 #
plane-surface $-1 -56.071047090060119 0 0 1 0 0 0 0 -1 forward_v I I I I #
coedge $-1 $330 $231 $331 $332 forward $139 $-1 #
coedge $-1 $333 $141 $330 $334 forward $89 $-1 #
coedge $-1 $141 $333 $335 $336 forward $89 $-1 #
coedge $-1 $234 $233 $141 $227 reversed $235 $-1 #
edge $-1 $337 -28.706829180987899 $338 28.706829180987899 $226 $339 forward 7 unknown #
coedge $-1 $143 $142 $340 $341 forward $56 $-1 #
coedge $-1 $342 $343 $142 $230 reversed $327 $-1 #
edge $-1 $237 -56.071047090060119 $344 56.071047090060119 $229 $345 forward 7 unknown #
coedge $-1 $223 $346 $143 $232 reversed $139 $-1 #
edge $-1 $347 -56.071047090060119 $236 56.071047090060119 $231 $348 forward 7 unknown #
coedge $-1 $226 $144 $346 $349 forward $235 $-1 #
coedge $-1 $144 $226 $342 $350 reversed $235 $-1 #
loop $-1 $-1 $233 $326 #
vertex $-1 $145 $351 #
vertex $-1 $145 $352 #
straight-curve $-1 56.071047090060119 0 8.0597618462579543 0 1 0 I I #
face $-1 $353 $354 $34 $-1 $355 forward single #
loop $-1 $-1 $356 $146 #
plane-surface $-1 0 0 -8.0597618462579543 0 0 1 1 0 0 forward_v I I I I #
coedge $-1 $357 $358 $247 $359 forward $147 $-1 #
coedge $-1 $152 $149 $360 $361 reversed $93 $-1 #
coedge $-1 $149 $152 $362 $363 reversed $93 $-1 #
coedge $-1 $364 $365 $149 $246 forward $366 $-1 #
edge $-1 $367 -8.0597618462579543 $368 8.0597618462579543 $245 $369 forward 7 unknown #
coedge $-1 $151 $150 $242 $359 reversed $59 $-1 #
coedge $-1 $360 $356 $150 $249 forward $240 $-1 #
edge $-1 $370 11.333482660504899 $253 15.00107154520029 $248 $371 forward 7 unknown #
coedge $-1 $372 $362 $151 $251 forward $354 $-1 #
edge $-1 $252 -15.00107154520029 $373 -11.333482660504899 $250 $374 forward 7 unknown #
vertex $-1 $363 $375 #
vertex $-1 $361 $376 #
straight-curve $-1 -46.406859615249914 -28.168348648052884 0 0 0 -1 I I #
face $-1 $377 $378 $35 $-1 $379 forward single #
loop $-1 $-1 $264 $154 #
plane-surface $-1 0 0 -8.0597618462579543 0 0 1 1 0 0 forward_v I I I I #
coedge $-1 $380 $381 $382 $383 reversed $155 $-1 #
coedge $-1 $160 $157 $384 $385 reversed $97 $-1 #
coedge $-1 $157 $160 $386 $387 reversed $97 $-1 #
coedge $-1 $381 $380 $157 $262 reversed $155 $-1 #
edge $-1 $388 -8.0597618462579543 $389 8.0597618462579543 $261 $390 forward 7 unknown #
coedge $-1 $159 $158 $391 $392 reversed $62 $-1 #
coedge $-1 $384 $393 $158 $265 forward $256 $-1 #
edge $-1 $394 -30.451570413732611 $269 -20.787382938922406 $264 $395 forward 7 unknown #
coedge $-1 $396 $386 $159 $267 forward $378 $-1 #
edge $-1 $268 20.787382938922406 $397 30.451570413732611 $266 $398 forward 7 unknown #
vertex $-1 $267 $399 #
vertex $-1 $265 $400 #
straight-curve $-1 46.406859615249914 -28.168348648052884 0 0 0 -1 I I #
face $-1 $-1 $401 $36 $-1 $402 forward single #
loop $-1 $-1 $403 $162 #
plane-surface $-1 0 0 8.0597618462579543 0 0 1 1 0 0 forward_v I I I I #
coedge $-1 $404 $405 $406 $407 forward $163 $-1 #
coedge $-1 $408 $165 $167 $281 forward $101 $-1 #
coedge $-1 $165 $408 $409 $410 reversed $101 $-1 #
coedge $-1 $403 $168 $165 $278 forward $272 $-1 #
edge $-1 $284 14.120122990235942 $411 26.231198746754629 $277 $412 forward 7 unknown #
coedge $-1 $405 $404 $166 $280 forward $163 $-1 #
edge $-1 $413 -46.679857931829225 $283 -42.378282181772512 $279 $414 forward 7 unknown #
edge $-1 $284 -8.6031513848529357 $413 4.1869633239728596e-015 $167 $415 forward 7 unknown #
coedge $-1 $168 $403 $405 $416 forward $272 $-1 #
vertex $-1 $280 $417 #
vertex $-1 $169 $418 #
straight-curve $-1 -34.295783858731227 -42.388938511129169 8.0597618462579561 0 1 0 I I #
coedge $-1 $286 $286 $-1 $419 reversed $172 $-1 #
edge $-1 $420 0 $420 6.2831853071796004 $173 $421 forward 7 unknown #
vertex $-1 $176 $422 #
ellipse-curve $-1 -43.984644463946182 -24.981555371681356 5.9089739712295977 0 -0.50000000669873634 0.8660253999169214 1 0 0 1 I I #
coedge $-1 $290 $290 $-1 $423 reversed $179 $-1 #
edge $-1 $424 0 $424 6.2831853071796004 $180 $425 forward 7 unknown #
vertex $-1 $183 $426 #
ellipse-curve $-1 -40.35132173699057 -24.981555371681356 5.9089739712295977 0 -0.50000000669873634 0.8660253999169214 1 0 0 1 I I #
coedge $-1 $294 $294 $-1 $427 reversed $186 $-1 #
edge $-1 $428 0 $428 6.2831853071796004 $187 $429 forward 7 unknown #
vertex $-1 $190 $430 #
ellipse-curve $-1 -36.717999010034966 -24.981555371681356 5.9089739712295977 0 -0.50000000669873634 0.8660253999169214 1 0 0 1 I I #
face $-1 $-1 $310 $40 $-1 $431 forward single #
loop $-1 $-1 $432 $191 #
plane-surface $-1 0 28.706829180987899 0 0 -1 0 0 0 -1 forward_v I I I I #
coedge $-1 $433 $434 $435 $436 reversed $192 $-1 #
coedge $-1 $437 $194 $196 $308 forward $120 $-1 #
coedge $-1 $194 $437 $433 $438 forward $120 $-1 #
coedge $-1 $435 $197 $194 $305 forward $310 $-1 #
edge $-1 $312 -26.231198746754629 $439 -14.120122990235942 $304 $440 forward 7 unknown #
coedge $-1 $441 $442 $195 $307 forward $299 $-1 #
edge $-1 $443 -61.033272714622655 $311 -56.731696964565941 $306 $444 forward 7 unknown #
edge $-1 $312 48.810506977122856 $443 57.413658361975791 $196 $445 forward 7 unknown #
coedge $-1 $197 $435 $441 $446 forward $310 $-1 #
loop $-1 $-1 $435 $298 #
vertex $-1 $307 $447 #
vertex $-1 $198 $448 #
straight-curve $-1 -46.406859615249914 17.528095289317378 8.0597618462579561 0 -1 0 I I #
coedge $-1 $314 $314 $-1 $449 reversed $201 $-1 #
edge $-1 $450 0 $450 6.2831853071796004 $202 $451 forward 7 unknown #
vertex $-1 $205 $452 #
ellipse-curve $-1 -43.984644463946182 24.98155537168136 5.908973971229603 0 0.50000000669873634 0.8660253999169214 1 0 0 1 I I #
coedge $-1 $318 $318 $-1 $453 reversed $208 $-1 #
edge $-1 $454 0 $454 6.2831853071796004 $209 $455 forward 7 unknown #
vertex $-1 $212 $456 #
ellipse-curve $-1 -40.35132173699057 24.98155537168136 5.908973971229603 0 0.50000000669873634 0.8660253999169214 1 0 0 1 I I #
coedge $-1 $322 $322 $-1 $457 reversed $215 $-1 #
edge $-1 $458 0 $458 6.2831853071796004 $216 $459 forward 7 unknown #
vertex $-1 $219 $460 #
ellipse-curve $-1 -36.717999010034966 24.98155537168136 5.908973971229603 0 0.50000000669873634 0.8660253999169214 1 0 0 1 I I #
face $-1 $-1 $235 $33 $-1 $461 reversed single #
loop $-1 $-1 $342 $220 #
plane-surface $-1 0 28.706829180987899 0 0 -1 0 0 0 -1 forward_v I I I I #
coedge $-1 $462 $340 $343 $463 forward $221 $-1 #
coedge $-1 $346 $223 $224 $334 reversed $139 $-1 #
coedge $-1 $340 $462 $223 $332 reversed $221 $-1 #
edge $-1 $347 -8.0597618462579543 $464 8.0597618462579543 $331 $465 forward 7 unknown #
coedge $-1 $225 $224 $462 $466 forward $89 $-1 #
edge $-1 $338 -56.071047090060119 $464 56.071047090060119 $330 $467 forward 7 unknown #
coedge $-1 $343 $342 $225 $336 reversed $327 $-1 #
edge $-1 $468 -56.071047090060119 $337 56.071047090060119 $335 $469 forward 7 unknown #
vertex $-1 $227 $470 #
vertex $-1 $349 $471 #
straight-curve $-1 56.071047090060119 0 -8.0597618462579543 0 -1 0 I I #
coedge $-1 $329 $331 $228 $341 reversed $221 $-1 #
edge $-1 $344 -28.706829180987899 $347 28.706829180987899 $340 $472 forward 7 unknown #
coedge $-1 $335 $229 $234 $350 forward $327 $-1 #
coedge $-1 $229 $335 $329 $463 reversed $327 $-1 #
vertex $-1 $230 $473 #
straight-curve $-1 0 28.706829180987899 8.0597618462579543 -1 0 0 I I #
coedge $-1 $231 $330 $233 $349 reversed $139 $-1 #
vertex $-1 $341 $474 #
straight-curve $-1 0 -28.706829180987899 8.0597618462579543 1 0 0 I I #
edge $-1 $236 -8.0597618462579543 $338 8.0597618462579543 $233 $475 forward 7 unknown #
edge $-1 $237 -8.0597618462579543 $337 8.0597618462579543 $234 $476 forward 7 unknown #
point $-1 56.071047090060119 -28.706829180987899 8.0597618462579543 #
point $-1 56.071047090060119 28.706829180987899 8.0597618462579543 #
face $-1 $-1 $366 $34 $-1 $477 reversed single #
loop $-1 $-1 $372 $239 #
plane-surface $-1 0 0 8.0597618462579543 0 0 1 1 0 0 forward_v I I I I #
coedge $-1 $248 $478 $357 $479 forward $240 $-1 #
coedge $-1 $480 $242 $356 $479 reversed $147 $-1 #
coedge $-1 $242 $480 $372 $481 reversed $147 $-1 #
edge $-1 $373 -8.0597618462579543 $370 8.0597618462579543 $247 $482 forward 7 unknown #
coedge $-1 $478 $248 $243 $361 forward $240 $-1 #
edge $-1 $253 20.787382938922406 $367 30.451570413732611 $360 $483 forward 7 unknown #
coedge $-1 $250 $484 $244 $363 forward $354 $-1 #
edge $-1 $368 -30.451570413732611 $252 -20.787382938922406 $362 $485 forward 7 unknown #
coedge $-1 $486 $245 $484 $487 reversed $366 $-1 #
coedge $-1 $245 $486 $478 $488 reversed $366 $-1 #
loop $-1 $-1 $486 $353 #
vertex $-1 $488 $489 #
vertex $-1 $246 $490 #
straight-curve $-1 -56.071047090060119 -28.168348648052884 0 0 0 1 I I #
vertex $-1 $479 $491 #
straight-curve $-1 -46.406859615249914 -13.167277102852594 -8.0597618462579543 0 -1 0 I I #
coedge $-1 $484 $250 $358 $481 forward $354 $-1 #
vertex $-1 $481 $492 #
straight-curve $-1 -46.406859615249914 -13.167277102852594 8.0597618462579543 0 1 0 I I #
point $-1 -46.406859615249914 -28.168348648052884 8.0597618462579543 #
point $-1 -46.406859615249914 -28.168348648052884 -8.0597618462579543 #
face $-1 $-1 $493 $35 $-1 $494 reversed single #
loop $-1 $-1 $266 $255 #
plane-surface $-1 0 0 8.0597618462579543 0 0 1 1 0 0 forward_v I I I I #
coedge $-1 $261 $258 $495 $496 reversed $155 $-1 #
coedge $-1 $258 $261 $497 $498 reversed $155 $-1 #
coedge $-1 $499 $500 $258 $383 forward $493 $-1 #
edge $-1 $501 -8.0597618462579543 $502 8.0597618462579543 $382 $503 forward 7 unknown #
coedge $-1 $495 $264 $259 $385 forward $256 $-1 #
edge $-1 $269 -15.00107154520029 $389 -11.333482660504899 $384 $504 forward 7 unknown #
coedge $-1 $266 $497 $260 $387 forward $378 $-1 #
edge $-1 $388 11.333482660504899 $268 15.00107154520029 $386 $505 forward 7 unknown #
vertex $-1 $387 $506 #
vertex $-1 $385 $507 #
straight-curve $-1 46.406859615249914 -24.500759763357493 0 0 0 -1 I I #
coedge $-1 $500 $499 $263 $392 forward $493 $-1 #
edge $-1 $397 -8.0597618462579543 $394 8.0597618462579543 $391 $508 forward 7 unknown #
coedge $-1 $264 $495 $500 $509 forward $256 $-1 #
vertex $-1 $392 $510 #
straight-curve $-1 25.619476676327508 -28.168348648052884 -8.0597618462579543 -1 0 0 I I #
coedge $-1 $497 $266 $499 $511 forward $378 $-1 #
vertex $-1 $511 $512 #
straight-curve $-1 25.619476676327508 -28.168348648052884 8.0597618462579543 1 0 0 I I #
point $-1 46.406859615249914 -28.168348648052884 8.0597618462579543 #
point $-1 46.406859615249914 -28.168348648052884 -8.0597618462579543 #
loop $-1 $-1 $409 $271 #
plane-surface $-1 -46.406859615249914 -26.334554205705189 0 -1 0 0 0 0 1 forward_v I I I I #
coedge $-1 $282 $277 $513 $514 forward $272 $-1 #
coedge $-1 $279 $274 $408 $515 forward $163 $-1 #
coedge $-1 $274 $279 $282 $416 reversed $163 $-1 #
coedge $-1 $513 $409 $274 $407 reversed $401 $-1 #
edge $-1 $516 42.378282181772512 $517 46.679857931829225 $274 $518 forward 7 unknown #
coedge $-1 $276 $275 $404 $515 reversed $101 $-1 #
coedge $-1 $406 $513 $276 $410 forward $401 $-1 #
edge $-1 $411 -8.5154727293997396 $517 0.087678655453200138 $409 $519 forward 7 unknown #
vertex $-1 $278 $520 #
straight-curve $-1 -20.175660868495285 -21.256281562374816 8.0597618462579543 -1 0 0 I I #
vertex $-1 $280 $521 #
straight-curve $-1 -34.295783858731227 -28.706829180987899 50.438044028030468 0 0 1 I I #
straight-curve $-1 -34.295783858731227 -28.706829180987896 3.7581860962012428 0 -0.8660253999169214 -0.50000000669873634 I I #
edge $-1 $516 -46.406859615249914 $283 -34.295783858731227 $405 $522 forward 7 unknown #
point $-1 -34.295783858731227 -28.706829180987899 8.0597618462579543 #
point $-1 -34.295783858731227 -21.256281562374816 8.0597618462579543 #
edge $-1 $523 1 $523 0 $286 $-1 forward 7 unknown #
vertex $-1 $287 $524 #
ellipse-curve $-1 -43.984644463946182 -23.918855079725422 4.0683231052237332 0 -0.50000000669873634 0.8660253999169214 1 0 0 1 I I #
point $-1 -42.984644463946182 -24.981555371681356 5.9089739712295977 #
edge $-1 $525 1 $525 0 $290 $-1 forward 7 unknown #
vertex $-1 $291 $526 #
ellipse-curve $-1 -40.35132173699057 -23.918855079725422 4.0683231052237332 0 -0.50000000669873634 0.8660253999169214 1 0 0 1 I I #
point $-1 -39.35132173699057 -24.981555371681356 5.9089739712295977 #
edge $-1 $527 1 $527 0 $294 $-1 forward 7 unknown #
vertex $-1 $295 $528 #
ellipse-curve $-1 -36.717999010034966 -23.918855079725422 4.0683231052237332 0 -0.50000000669873634 0.8660253999169214 1 0 0 1 I I #
point $-1 -35.717999010034966 -24.981555371681356 5.9089739712295977 #
plane-surface $-1 0 0 8.0597618462579543 0 0 1 1 0 0 forward_v I I I I #
coedge $-1 $442 $441 $434 $529 forward $299 $-1 #
coedge $-1 $434 $301 $303 $438 reversed $192 $-1 #
coedge $-1 $301 $433 $432 $529 reversed $192 $-1 #
coedge $-1 $309 $304 $301 $436 forward $310 $-1 #
edge $-1 $439 3.7281862730574389 $530 11.178733891670522 $435 $531 forward 7 unknown #
coedge $-1 $303 $302 $442 $532 reversed $120 $-1 #
edge $-1 $533 -57.413658361975791 $439 -48.810506977122856 $433 $534 forward 7 unknown #
vertex $-1 $305 $535 #
straight-curve $-1 -20.175660868495285 21.256281562374816 8.0597618462579597 1 0 0 I I #
coedge $-1 $432 $306 $309 $446 reversed $299 $-1 #
coedge $-1 $306 $432 $437 $532 forward $299 $-1 #
vertex $-1 $307 $536 #
straight-curve $-1 -46.406859615249914 28.706829180987899 64.791458810823897 0 0 1 I I #
straight-curve $-1 -46.406859615249914 -21.014857262635687 32.465015661788101 0 0.8660253999169214 -0.50000000669873634 I I #
edge $-1 $530 34.295783858731227 $311 46.406859615249914 $441 $537 forward 7 unknown #
point $-1 -46.406859615249914 28.706829180987899 8.0597618462579543 #
point $-1 -46.406859615249914 21.256281562374816 8.0597618462579561 #
edge $-1 $538 1 $538 0 $314 $-1 forward 7 unknown #
vertex $-1 $315 $539 #
ellipse-curve $-1 -43.984644463946182 23.918855079725418 4.0683231052237279 0 0.50000000669873634 0.8660253999169214 1 0 0 1 I I #
point $-1 -42.984644463946182 24.981555371681353 5.9089739712295923 #
edge $-1 $540 1 $540 0 $318 $-1 forward 7 unknown #
vertex $-1 $319 $541 #
ellipse-curve $-1 -40.35132173699057 23.918855079725418 4.0683231052237279 0 0.50000000669873634 0.8660253999169214 1 0 0 1 I I #
point $-1 -39.35132173699057 24.981555371681353 5.9089739712295923 #
edge $-1 $542 1 $542 0 $322 $-1 forward 7 unknown #
vertex $-1 $323 $543 #
ellipse-curve $-1 -36.717999010034966 23.918855079725418 4.0683231052237279 0 0.50000000669873634 0.8660253999169214 1 0 0 1 I I #
point $-1 -35.717999010034966 24.981555371681353 5.9089739712295923 #
plane-surface $-1 56.071047090060119 0 0 -1 0 0 0 0 1 forward_v I I I I #
coedge $-1 $331 $329 $333 $466 reversed $221 $-1 #
edge $-1 $344 -8.0597618462579543 $468 8.0597618462579543 $343 $544 forward 7 unknown #
vertex $-1 $466 $545 #
straight-curve $-1 -56.071047090060119 -28.706829180987899 0 0 0 -1 I I #
edge $-1 $464 -28.706829180987899 $468 28.706829180987899 $462 $546 forward 7 unknown #
straight-curve $-1 0 -28.706829180987899 -8.0597618462579543 -1 0 0 I I #
vertex $-1 $336 $547 #
straight-curve $-1 0 28.706829180987899 -8.0597618462579543 1 0 0 I I #
point $-1 56.071047090060119 28.706829180987899 -8.0597618462579543 #
point $-1 56.071047090060119 -28.706829180987899 -8.0597618462579543 #
straight-curve $-1 -56.071047090060119 0 8.0597618462579543 0 -1 0 I I #
point $-1 -56.071047090060119 28.706829180987899 8.0597618462579543 #
point $-1 -56.071047090060119 -28.706829180987899 8.0597618462579543 #
straight-curve $-1 56.071047090060119 -28.706829180987899 0 0 0 -1 I I #
straight-curve $-1 56.071047090060119 28.706829180987899 0 0 0 -1 I I #
plane-surface $-1 -56.071047090060119 0 0 1 0 0 0 0 -1 forward_v I I I I #
coedge $-1 $356 $360 $365 $488 forward $240 $-1 #
edge $-1 $548 -30.451570413732611 $370 -20.787382938922406 $356 $549 forward 7 unknown #
coedge $-1 $358 $357 $486 $550 reversed $147 $-1 #
edge $-1 $373 20.787382938922406 $551 30.451570413732611 $372 $552 forward 7 unknown #
straight-curve $-1 -46.406859615249914 -24.500759763357493 0 0 0 -1 I I #
straight-curve $-1 -25.619476676327508 -28.168348648052884 -8.0597618462579543 -1 0 0 I I #
coedge $-1 $362 $372 $364 $487 forward $354 $-1 #
straight-curve $-1 -25.619476676327508 -28.168348648052884 8.0597618462579543 1 0 0 I I #
coedge $-1 $365 $364 $480 $550 forward $366 $-1 #
edge $-1 $551 24.500759763357493 $368 28.168348648052884 $364 $553 forward 7 unknown #
edge $-1 $367 -28.168348648052884 $548 -24.500759763357493 $365 $554 forward 7 unknown #
point $-1 -56.071047090060119 -28.168348648052884 -8.0597618462579543 #
point $-1 -56.071047090060119 -28.168348648052884 8.0597618462579543 #
point $-1 -46.406859615249914 -24.500759763357493 -8.0597618462579543 #
point $-1 -46.406859615249914 -24.500759763357493 8.0597618462579543 #
loop $-1 $-1 $391 $377 #
plane-surface $-1 56.071047090060119 0 0 -1 0 0 0 0 1 forward_v I I I I #
coedge $-1 $393 $384 $380 $496 forward $256 $-1 #
edge $-1 $389 20.787382938922406 $501 30.451570413732611 $495 $555 forward 7 unknown #
coedge $-1 $386 $396 $381 $498 forward $378 $-1 #
edge $-1 $502 -30.451570413732611 $388 -20.787382938922406 $497 $556 forward 7 unknown #
coedge $-1 $391 $382 $396 $511 reversed $493 $-1 #
coedge $-1 $382 $391 $393 $509 reversed $493 $-1 #
vertex $-1 $509 $557 #
vertex $-1 $383 $558 #
straight-curve $-1 56.071047090060119 -24.500759763357493 0 0 0 1 I I #
straight-curve $-1 46.406859615249914 -13.167277102852594 -8.0597618462579543 0 1 0 I I #
straight-curve $-1 46.406859615249914 -13.167277102852594 8.0597618462579543 0 -1 0 I I #
point $-1 46.406859615249914 -24.500759763357493 8.0597618462579543 #
point $-1 46.406859615249914 -24.500759763357493 -8.0597618462579543 #
straight-curve $-1 56.071047090060119 -28.168348648052884 0 0 0 -1 I I #
edge $-1 $501 24.500759763357493 $394 28.168348648052884 $500 $559 forward 7 unknown #
point $-1 56.071047090060119 -28.168348648052884 -8.0597618462579543 #
edge $-1 $397 -28.168348648052884 $502 -24.500759763357493 $499 $560 forward 7 unknown #
point $-1 56.071047090060119 -28.168348648052884 8.0597618462579543 #
coedge $-1 $409 $406 $403 $514 reversed $401 $-1 #
edge $-1 $411 -21.132656948754352 $516 -13.68210933014127 $403 $561 forward 7 unknown #
edge $-1 $517 -26.231198746754629 $413 -14.120122990235942 $404 $562 forward 7 unknown #
vertex $-1 $416 $563 #
vertex $-1 $407 $564 #
straight-curve $-1 -46.406859615249914 -28.706829180987899 50.438044028030468 0 0 -1 I I #
straight-curve $-1 -46.406859615249914 -28.630897238334864 3.8020254245151772 0 -0.8660253999169214 -0.50000000669873634 I I #
point $-1 -46.406859615249914 -21.256281562374816 8.0597618462579543 #
point $-1 -34.295783858731227 -28.706829180987899 3.7581860962012406 #
straight-curve $-1 0 -28.706829180987899 8.0597618462579543 1 0 0 I I #
vertex $-1 $419 $565 #
point $-1 -42.984644463946182 -23.918855079725422 4.0683231052237332 #
vertex $-1 $423 $566 #
point $-1 -39.35132173699057 -23.918855079725422 4.0683231052237332 #
vertex $-1 $427 $567 #
point $-1 -35.717999010034966 -23.918855079725422 4.0683231052237332 #
edge $-1 $530 56.731696964565941 $533 61.033272714622655 $432 $568 forward 7 unknown #
vertex $-1 $446 $569 #
straight-curve $-1 -34.295783858731227 17.528095289317378 8.0597618462579561 0 1 0 I I #
edge $-1 $533 14.120122990235942 $443 26.231198746754629 $442 $570 forward 7 unknown #
vertex $-1 $532 $571 #
straight-curve $-1 -34.295783858731227 -21.014857262635687 32.465015661788101 0 -0.8660253999169214 0.50000000669873634 I I #
point $-1 -34.295783858731227 21.256281562374816 8.0597618462579561 #
point $-1 -46.406859615249914 28.706829180987896 3.7581860962012463 #
straight-curve $-1 0 28.706829180987899 8.0597618462579543 -1 0 0 I I #
vertex $-1 $449 $572 #
point $-1 -42.984644463946182 23.918855079725418 4.0683231052237279 #
vertex $-1 $453 $573 #
point $-1 -39.35132173699057 23.918855079725418 4.0683231052237279 #
vertex $-1 $457 $574 #
point $-1 -35.717999010034966 23.918855079725418 4.0683231052237279 #
straight-curve $-1 -56.071047090060119 28.706829180987899 0 0 0 -1 I I #
point $-1 -56.071047090060119 -28.706829180987899 -8.0597618462579543 #
straight-curve $-1 -56.071047090060119 0 -8.0597618462579543 0 1 0 I I #
point $-1 -56.071047090060119 28.706829180987899 -8.0597618462579543 #
vertex $-1 $550 $575 #
straight-curve $-1 -25.619476676327508 -24.500759763357493 -8.0597618462579543 1 0 0 I I #
edge $-1 $551 -8.0597618462579543 $548 8.0597618462579543 $486 $576 forward 7 unknown #
vertex $-1 $487 $577 #
straight-curve $-1 -25.619476676327508 -24.500759763357493 8.0597618462579543 -1 0 0 I I #
straight-curve $-1 -56.071047090060119 0 8.0597618462579543 0 -1 0 I I #
straight-curve $-1 -56.071047090060119 0 -8.0597618462579543 0 1 0 I I #
straight-curve $-1 25.619476676327508 -24.500759763357493 -8.0597618462579543 1 0 0 I I #
straight-curve $-1 25.619476676327508 -24.500759763357493 8.0597618462579543 -1 0 0 I I #
point $-1 56.071047090060119 -24.500759763357493 -8.0597618462579543 #
point $-1 56.071047090060119 -24.500759763357493 8.0597618462579543 #
straight-curve $-1 56.071047090060119 0 -8.0597618462579543 0 -1 0 I I #
straight-curve $-1 56.071047090060119 0 8.0597618462579543 0 1 0 I I #
straight-curve $-1 -46.406859615249914 -42.388938511129169 8.0597618462579561 0 -1 0 I I #
straight-curve $-1 -20.175660868495285 -28.706829180987899 3.7581860962012388 1 0 0 I I #
point $-1 -46.406859615249914 -28.706829180987899 8.0597618462579543 #
point $-1 -46.406859615249914 -28.706829180987899 3.7581860962012406 #
point $-1 -43.984644463946182 -23.418855073026688 3.2022977053068118 #
point $-1 -40.35132173699057 -23.418855073026688 3.2022977053068118 #
point $-1 -36.717999010034966 -23.418855073026688 3.2022977053068118 #
straight-curve $-1 -34.295783858731227 28.706829180987899 64.791458810823897 0 0 -1 I I #
point $-1 -34.295783858731227 28.706829180987899 8.0597618462579543 #
straight-curve $-1 -20.175660868495285 28.706829180987896 3.7581860962012463 -1 0 0 I I #
point $-1 -34.295783858731227 28.706829180987896 3.7581860962012463 #
point $-1 -43.984644463946182 23.418855073026684 3.2022977053068065 #
point $-1 -40.35132173699057 23.418855073026684 3.2022977053068065 #
point $-1 -36.717999010034966 23.418855073026684 3.2022977053068065 #
point $-1 -56.071047090060119 -24.500759763357493 -8.0597618462579543 #
straight-curve $-1 -56.071047090060119 -24.500759763357493 0 0 0 -1 I I #
point $-1 -56.071047090060119 -24.500759763357493 8.0597618462579543 #
End-of-ACIS-data 