500 0 6 0           
7 Unknown 11 ACIS 5.0 NT 24 Fri Mar 26 01:39:47 1999 
-1 9.9999999999999995e-007 1e-010 
body $-1 $6 $-1 $7 #
body $-1 $8 $-1 $9 #
body $-1 $10 $-1 $11 #
body $-1 $12 $-1 $13 #
body $-1 $14 $-1 $15 #
body $-1 $16 $-1 $17 #
lump $-1 $-1 $18 $0 #
transform $-1 1 0 0 0 1 0 0 0 1 58.184148686178169 31.228056045857223 8.6195229131609992 1 rotate no_reflect no_shear #
lump $-1 $-1 $19 $1 #
transform $-1 1 0 0 0 1 0 0 0 1 58.184148686178169 31.228056045857223 8.6195229131609992 1 rotate no_reflect no_shear #
lump $-1 $-1 $20 $2 #
transform $-1 1 0 0 0 1 0 0 0 1 58.184148686178169 31.228056045857223 8.6195229131609992 1 rotate no_reflect no_shear #
lump $-1 $-1 $21 $3 #
transform $-1 1 0 0 0 1 0 0 0 1 58.184148686178169 31.228056045857223 8.6195229131609992 1 rotate no_reflect no_shear #
lump $-1 $-1 $22 $4 #
transform $-1 1 0 0 0 1 0 0 0 1 58.184148686178169 31.228056045857223 8.6195229131609992 1 rotate no_reflect no_shear #
lump $-1 $-1 $23 $5 #
transform $-1 1 0 0 0 1 0 0 0 1 58.184148686178169 31.228056045857223 8.6195229131609992 1 rotate no_reflect no_shear #
shell $-1 $-1 $-1 $24 $-1 $6 #
shell $-1 $-1 $-1 $25 $-1 $8 #
shell $-1 $-1 $-1 $26 $-1 $10 #
shell $-1 $-1 $-1 $27 $-1 $12 #
shell $-1 $-1 $-1 $28 $-1 $14 #
shell $-1 $-1 $-1 $29 $-1 $16 #
face $-1 $30 $31 $18 $-1 $32 forward single #
face $-1 $33 $34 $19 $-1 $35 reversed single #
face $-1 $36 $37 $20 $-1 $38 reversed single #
face $-1 $39 $40 $21 $-1 $41 forward single #
face $-1 $42 $43 $22 $-1 $44 reversed single #
face $-1 $45 $46 $23 $-1 $47 forward single #
face $-1 $48 $49 $18 $-1 $50 reversed single #
loop $-1 $-1 $51 $24 #
plane-surface $-1 0 0 8.6195229131609992 0 0 1 1 0 0 forward_v I I I I #
face $-1 $52 $53 $19 $-1 $54 reversed single #
loop $-1 $-1 $55 $25 #
plane-surface $-1 -54.585690557714877 -28.228056045857223 0 0 -1 0 0 0 -1 forward_v I I I I #
face $-1 $56 $57 $20 $-1 $58 reversed single #
loop $-1 $-1 $59 $26 #
plane-surface $-1 45.599970548355536 -31.228056045857215 2.3287912118232867 0 -0.80901700255871778 0.5877852410284794 1 0 0 forward_v I I I I #
face $-1 $60 $61 $21 $-1 $62 forward single #
loop $-1 $63 $64 $27 #
cone-surface $-1 45.599970548355536 -28.538305554841113 5.1802644419778971 0 0.80901700255871778 -0.5877852410284794 0.5 0 0 1 I I 0 1 0.5 forward I I I I #
face $-1 $65 $66 $22 $-1 $67 reversed single #
loop $-1 $-1 $68 $28 #
plane-surface $-1 45.599970548355536 -5.4827248536728632 52.856847807733388 0 0.80901700255871778 0.5877852410284794 1 0 0 forward_v I I I I #
face $-1 $69 $70 $23 $-1 $71 forward single #
loop $-1 $72 $73 $29 #
cone-surface $-1 45.599970548355536 28.53830555484112 5.1802644419778936 0 -0.80901700255871778 -0.5877852410284794 0.5 0 0 1 I I 0 1 0.5 forward I I I I #
face $-1 $74 $75 $18 $-1 $76 reversed single #
loop $-1 $-1 $77 $30 #
plane-surface $-1 0 0 -8.6195229131609992 0 0 1 1 0 0 forward_v I I I I #
coedge $-1 $78 $79 $80 $81 forward $31 $-1 #
face $-1 $82 $83 $19 $-1 $84 forward single #
loop $-1 $-1 $85 $33 #
plane-surface $-1 -50.987232429251584 -29.728056045857223 0 -1 0 0 0 0 1 forward_v I I I I #
coedge $-1 $86 $87 $88 $89 forward $34 $-1 #
face $-1 $90 $91 $20 $-1 $92 reversed single #
loop $-1 $-1 $93 $36 #
plane-surface $-1 33.01579241053291 -125.37198717890246 70.728358930907518 1 0 0 0 0.80901700255871778 -0.5877852410284794 forward_v I I I I #
coedge $-1 $94 $95 $96 $97 reversed $37 $-1 #
face $-1 $-1 $98 $21 $-1 $99 forward single #
loop $-1 $100 $101 $39 #
cone-surface $-1 45.599970548355536 -27.931542802922074 4.7394255112065373 0 0.80901700255871778 -0.5877852410284794 0.25 0 0 1 I I -0.70710678118654746 0.70710678118654746 0.25 forward I I I I #
loop $-1 $-1 $102 $27 #
coedge $-1 $64 $64 $103 $104 reversed $40 $-1 #
face $-1 $105 $106 $22 $-1 $107 reversed single #
loop $-1 $-1 $108 $42 #
plane-surface $-1 33.01579241053291 88.661206279372379 121.25641552681762 1 0 0 0 -0.80901700255871778 -0.5877852410284794 forward_v I I I I #
coedge $-1 $109 $110 $111 $112 reversed $43 $-1 #
face $-1 $-1 $113 $23 $-1 $114 forward single #
loop $-1 $115 $116 $45 #
cone-surface $-1 45.599970548355536 27.931542802922081 4.7394255112065338 0 -0.80901700255871778 -0.5877852410284794 0.25 0 0 1 I I -0.70710678118654746 0.70710678118654746 0.25 forward I I I I #
loop $-1 $-1 $117 $29 #
coedge $-1 $73 $73 $118 $119 reversed $46 $-1 #
face $-1 $120 $121 $18 $-1 $122 reversed single #
loop $-1 $-1 $123 $48 #
plane-surface $-1 0 -31.228056045857223 0 0 1 0 0 0 1 forward_v I I I I #
coedge $-1 $124 $125 $126 $127 forward $49 $-1 #
coedge $-1 $128 $51 $129 $130 forward $31 $-1 #
coedge $-1 $51 $128 $131 $132 forward $31 $-1 #
coedge $-1 $133 $134 $51 $81 reversed $135 $-1 #
edge $-1 $136 -31.228056045857223 $137 31.228056045857223 $80 $138 forward 7 unknown #
face $-1 $139 $140 $19 $-1 $141 reversed single #
loop $-1 $-1 $142 $52 #
plane-surface $-1 0 0 8.6195229131609992 0 0 1 1 0 0 forward_v I I I I #
coedge $-1 $143 $144 $145 $146 reversed $53 $-1 #
coedge $-1 $147 $55 $148 $149 reversed $34 $-1 #
coedge $-1 $55 $147 $150 $151 reversed $34 $-1 #
coedge $-1 $144 $143 $55 $89 reversed $53 $-1 #
edge $-1 $152 -8.6195229131609992 $153 8.6195229131609992 $88 $154 forward 7 unknown #
face $-1 $155 $156 $20 $-1 $157 forward single #
loop $-1 $-1 $158 $56 #
plane-surface $-1 58.184148686178169 0 0 -1 0 0 0 0 1 forward_v I I I I #
coedge $-1 $159 $160 $161 $162 reversed $57 $-1 #
coedge $-1 $163 $59 $158 $164 reversed $37 $-1 #
coedge $-1 $59 $163 $159 $165 forward $37 $-1 #
coedge $-1 $161 $166 $59 $97 forward $156 $-1 #
edge $-1 $167 -35.38416341200039 $168 -10.215807136355142 $96 $169 forward 7 unknown #
loop $-1 $-1 $103 $60 #
plane-surface $-1 45.599970548355536 -31.228056045857215 2.3287912118232867 0 -0.80901700255871778 0.5877852410284794 1 0 0 forward_v I I I I #
loop $-1 $-1 $170 $39 #
coedge $-1 $101 $101 $102 $171 reversed $61 $-1 #
coedge $-1 $102 $102 $101 $171 forward $63 $-1 #
coedge $-1 $103 $103 $64 $104 forward $98 $-1 #
edge $-1 $172 -2.8742057713725365e-015 $172 6.2831853071795978 $103 $173 forward 7 unknown #
face $-1 $174 $175 $22 $-1 $176 reversed single #
loop $-1 $-1 $177 $65 #
plane-surface $-1 58.184148686178169 0 0 -1 0 0 0 0 1 forward_v I I I I #
coedge $-1 $178 $179 $180 $181 reversed $66 $-1 #
coedge $-1 $182 $68 $177 $183 reversed $43 $-1 #
coedge $-1 $68 $182 $178 $184 forward $43 $-1 #
coedge $-1 $180 $185 $68 $112 forward $175 $-1 #
edge $-1 $186 -35.384163412000404 $187 -10.215807136355142 $111 $188 forward 7 unknown #
loop $-1 $-1 $118 $69 #
plane-surface $-1 45.599970548355536 -5.4827248536728632 52.856847807733388 0 0.80901700255871778 0.5877852410284794 1 0 0 forward_v I I I I #
loop $-1 $-1 $189 $45 #
coedge $-1 $116 $116 $117 $190 reversed $70 $-1 #
coedge $-1 $117 $117 $116 $190 forward $72 $-1 #
coedge $-1 $118 $118 $73 $119 forward $113 $-1 #
edge $-1 $191 4.0452997518284518e-016 $191 6.2831853071796004 $118 $192 forward 7 unknown #
face $-1 $193 $194 $18 $-1 $195 reversed single #
loop $-1 $-1 $196 $74 #
plane-surface $-1 -58.184148686178169 0 0 1 0 0 0 0 -1 forward_v I I I I #
coedge $-1 $197 $131 $198 $199 forward $75 $-1 #
coedge $-1 $200 $77 $197 $201 forward $49 $-1 #
coedge $-1 $77 $200 $202 $203 forward $49 $-1 #
coedge $-1 $134 $133 $77 $127 reversed $135 $-1 #
edge $-1 $204 -31.228056045857223 $205 31.228056045857223 $126 $206 forward 7 unknown #
coedge $-1 $79 $78 $207 $208 forward $31 $-1 #
coedge $-1 $209 $210 $78 $130 reversed $194 $-1 #
edge $-1 $137 -58.184148686178169 $211 58.184148686178169 $129 $212 forward 7 unknown #
coedge $-1 $123 $213 $79 $132 reversed $75 $-1 #
edge $-1 $214 -58.184148686178169 $136 58.184148686178169 $131 $215 forward 7 unknown #
coedge $-1 $126 $80 $213 $216 forward $135 $-1 #
coedge $-1 $80 $126 $209 $217 reversed $135 $-1 #
loop $-1 $-1 $133 $193 #
vertex $-1 $81 $218 #
vertex $-1 $81 $219 #
straight-curve $-1 58.184148686178169 0 8.6195229131609992 0 1 0 I I #
face $-1 $220 $221 $19 $-1 $222 reversed single #
loop $-1 $-1 $223 $82 #
plane-surface $-1 -58.184148686178169 0 0 1 0 0 0 0 -1 forward_v I I I I #
coedge $-1 $150 $224 $144 $225 forward $83 $-1 #
coedge $-1 $88 $85 $226 $227 reversed $53 $-1 #
coedge $-1 $85 $88 $142 $225 reversed $53 $-1 #
coedge $-1 $228 $229 $85 $146 forward $230 $-1 #
edge $-1 $231 -8.6195229131609992 $232 8.6195229131609992 $145 $233 forward 7 unknown #
coedge $-1 $87 $86 $223 $234 reversed $34 $-1 #
coedge $-1 $226 $235 $86 $149 forward $221 $-1 #
edge $-1 $236 -30.891303407320731 $153 -23.694387150394146 $148 $237 forward 7 unknown #
coedge $-1 $238 $142 $87 $151 forward $83 $-1 #
edge $-1 $152 23.694387150394146 $239 30.891303407320731 $150 $240 forward 7 unknown #
vertex $-1 $151 $241 #
vertex $-1 $149 $242 #
straight-curve $-1 -50.987232429251584 -28.228056045857223 0 0 0 -1 I I #
face $-1 $-1 $243 $20 $-1 $244 reversed single #
loop $-1 $-1 $96 $90 #
plane-surface $-1 0 0 8.6195229131609992 0 0 1 1 0 0 forward_v I I I I #
coedge $-1 $245 $246 $94 $164 forward $91 $-1 #
coedge $-1 $160 $93 $95 $165 reversed $57 $-1 #
coedge $-1 $93 $159 $247 $248 reversed $57 $-1 #
coedge $-1 $249 $96 $93 $162 forward $156 $-1 #
edge $-1 $168 -36.028421523067507 $250 -31.457937543594007 $161 $251 forward 7 unknown #
coedge $-1 $95 $94 $252 $253 reversed $37 $-1 #
edge $-1 $254 -8.2356793819953573 $167 -0.45990744958637625 $158 $255 forward 7 unknown #
edge $-1 $256 -1.2080531203272332e-014 $168 7.7757719324089685 $159 $257 forward 7 unknown #
coedge $-1 $96 $249 $245 $258 forward $156 $-1 #
vertex $-1 $164 $259 #
vertex $-1 $97 $260 #
straight-curve $-1 22.799985274177768 -26.657572066383725 8.6195229131609992 -1 0 0 I I #
coedge $-1 $170 $170 $-1 $261 reversed $100 $-1 #
edge $-1 $262 0 $262 6.2831853071796004 $101 $263 forward 7 unknown #
vertex $-1 $104 $264 #
ellipse-curve $-1 45.599970548355536 -28.942814056120472 5.4741570624921385 0 -0.80901700255871778 0.5877852410284794 0.5 0 0 1 I I #
face $-1 $-1 $265 $22 $-1 $266 forward single #
loop $-1 $-1 $111 $105 #
plane-surface $-1 0 31.228056045857223 0 0 -1 0 0 0 -1 forward_v I I I I #
coedge $-1 $267 $268 $109 $183 forward $106 $-1 #
coedge $-1 $179 $108 $110 $184 reversed $66 $-1 #
coedge $-1 $108 $178 $269 $270 reversed $66 $-1 #
coedge $-1 $271 $111 $108 $181 forward $175 $-1 #
edge $-1 $187 -58.299416551585509 $272 -52.008684850247811 $180 $273 forward 7 unknown #
coedge $-1 $110 $109 $274 $275 reversed $43 $-1 #
edge $-1 $276 31.687963495443597 $186 39.463735427852541 $177 $277 forward 7 unknown #
edge $-1 $278 54.680340159305466 $187 62.456112091714417 $178 $279 forward 7 unknown #
coedge $-1 $111 $271 $267 $280 forward $175 $-1 #
vertex $-1 $112 $281 #
vertex $-1 $112 $282 #
straight-curve $-1 22.799985274177768 31.228056045857219 2.328791211823301 -1 0 0 I I #
coedge $-1 $189 $189 $-1 $283 reversed $115 $-1 #
edge $-1 $284 0 $284 6.2831853071796004 $116 $285 forward 7 unknown #
vertex $-1 $119 $286 #
ellipse-curve $-1 45.599970548355536 28.94281405612049 5.4741570624921412 0 0.80901700255871778 0.5877852410284794 0.5 0 0 1 I I #
face $-1 $-1 $135 $18 $-1 $287 reversed single #
loop $-1 $-1 $209 $120 #
plane-surface $-1 0 31.228056045857223 0 0 -1 0 0 0 -1 forward_v I I I I #
coedge $-1 $288 $207 $210 $289 forward $121 $-1 #
coedge $-1 $213 $123 $124 $201 reversed $75 $-1 #
coedge $-1 $207 $288 $123 $199 reversed $121 $-1 #
edge $-1 $214 -8.6195229131609992 $290 8.6195229131609992 $198 $291 forward 7 unknown #
coedge $-1 $125 $124 $288 $292 forward $49 $-1 #
edge $-1 $205 -58.184148686178169 $290 58.184148686178169 $197 $293 forward 7 unknown #
coedge $-1 $210 $209 $125 $203 reversed $194 $-1 #
edge $-1 $294 -58.184148686178169 $204 58.184148686178169 $202 $295 forward 7 unknown #
vertex $-1 $127 $296 #
vertex $-1 $216 $297 #
straight-curve $-1 58.184148686178169 0 -8.6195229131609992 0 -1 0 I I #
coedge $-1 $196 $198 $128 $208 reversed $121 $-1 #
edge $-1 $211 -31.228056045857223 $214 31.228056045857223 $207 $298 forward 7 unknown #
coedge $-1 $202 $129 $134 $217 forward $194 $-1 #
coedge $-1 $129 $202 $196 $289 reversed $194 $-1 #
vertex $-1 $130 $299 #
straight-curve $-1 0 31.228056045857223 8.6195229131609992 -1 0 0 I I #
coedge $-1 $131 $197 $133 $216 reversed $75 $-1 #
vertex $-1 $208 $300 #
straight-curve $-1 0 -31.228056045857223 8.6195229131609992 1 0 0 I I #
edge $-1 $136 -8.6195229131609992 $205 8.6195229131609992 $133 $301 forward 7 unknown #
edge $-1 $137 -8.6195229131609992 $204 8.6195229131609992 $134 $302 forward 7 unknown #
point $-1 58.184148686178169 -31.228056045857223 8.6195229131609992 #
point $-1 58.184148686178169 31.228056045857223 8.6195229131609992 #
face $-1 $-1 $230 $19 $-1 $303 reversed single #
loop $-1 $-1 $226 $139 #
plane-surface $-1 0 0 -8.6195229131609992 0 0 1 1 0 0 forward_v I I I I #
coedge $-1 $304 $305 $147 $234 forward $140 $-1 #
coedge $-1 $142 $238 $228 $306 forward $83 $-1 #
edge $-1 $232 -16.364028022928611 $152 -13.364028022928611 $142 $307 forward 7 unknown #
coedge $-1 $308 $148 $143 $227 forward $221 $-1 #
edge $-1 $153 13.364028022928611 $231 16.364028022928611 $226 $309 forward 7 unknown #
coedge $-1 $310 $145 $224 $306 reversed $230 $-1 #
coedge $-1 $145 $310 $308 $311 reversed $230 $-1 #
loop $-1 $-1 $145 $220 #
vertex $-1 $311 $312 #
vertex $-1 $146 $313 #
straight-curve $-1 -50.987232429251584 -31.228056045857223 0 0 0 1 I I #
edge $-1 $239 -8.6195229131609992 $236 8.6195229131609992 $223 $314 forward 7 unknown #
coedge $-1 $148 $308 $304 $315 forward $221 $-1 #
vertex $-1 $149 $316 #
straight-curve $-1 -27.292845278857438 -28.228056045857223 -8.6195229131609992 1 0 0 I I #
coedge $-1 $224 $150 $305 $317 forward $83 $-1 #
vertex $-1 $317 $318 #
straight-curve $-1 -27.292845278857438 -28.228056045857223 8.6195229131609992 -1 0 0 I I #
point $-1 -50.987232429251584 -28.228056045857223 8.6195229131609992 #
point $-1 -50.987232429251584 -28.228056045857223 -8.6195229131609992 #
loop $-1 $-1 $252 $155 #
plane-surface $-1 0 -31.228056045857223 0 0 1 0 0 0 1 forward_v I I I I #
coedge $-1 $246 $158 $166 $258 reversed $91 $-1 #
coedge $-1 $158 $245 $319 $320 forward $91 $-1 #
coedge $-1 $252 $321 $160 $248 forward $243 $-1 #
edge $-1 $250 26.74465655229276 $256 33.035388253630479 $247 $322 forward 7 unknown #
coedge $-1 $166 $161 $321 $323 forward $156 $-1 #
vertex $-1 $323 $324 #
straight-curve $-1 33.01579241053291 -62.685993589451229 8.6195229131609992 0 -1 0 I I #
coedge $-1 $319 $247 $163 $253 forward $243 $-1 #
edge $-1 $256 10.215807136355142 $254 35.38416341200039 $252 $325 forward 7 unknown #
vertex $-1 $164 $326 #
straight-curve $-1 58.184148686178169 -26.387245255277804 8.9915958594797942 0 0.5877852410284794 0.80901700255871778 I I #
vertex $-1 $253 $327 #
straight-curve $-1 33.01579241053291 -31.228056045857215 2.3287912118232867 0 0.5877852410284794 0.80901700255871778 I I #
edge $-1 $328 -31.228056045857223 $167 -26.657572066383725 $245 $329 forward 7 unknown #
point $-1 58.184148686178162 -26.657572066383725 8.6195229131609992 #
point $-1 33.01579241053291 -26.657572066383725 8.6195229131609992 #
edge $-1 $330 1 $330 0 $170 $-1 forward 7 unknown #
vertex $-1 $171 $331 #
ellipse-curve $-1 45.599970548355536 -28.133797053561754 4.8863718214636576 0 -0.80901700255871778 0.5877852410284794 0.5 0 0 1 I I #
point $-1 46.099970548355536 -28.942814056120472 5.4741570624921367 #
loop $-1 $-1 $274 $174 #
plane-surface $-1 0 0 8.6195229131609992 0 0 1 1 0 0 forward_v I I I I #
coedge $-1 $268 $177 $185 $280 reversed $106 $-1 #
coedge $-1 $177 $267 $332 $333 reversed $106 $-1 #
coedge $-1 $274 $334 $179 $270 forward $265 $-1 #
edge $-1 $272 13.102547093828967 $278 17.673031073302447 $269 $335 forward 7 unknown #
coedge $-1 $185 $180 $334 $336 reversed $175 $-1 #
vertex $-1 $181 $337 #
straight-curve $-1 33.01579241053291 31.228056045857223 60.62820776340881 0 0 1 I I #
coedge $-1 $332 $269 $182 $275 forward $265 $-1 #
edge $-1 $278 10.215807136355142 $276 35.38416341200039 $274 $338 forward 7 unknown #
vertex $-1 $333 $339 #
straight-curve $-1 58.184148686178169 8.0318548055127703 34.255624157434845 0 0.5877852410284794 -0.80901700255871778 I I #
vertex $-1 $275 $340 #
straight-curve $-1 33.01579241053291 -5.4827248536728632 52.856847807733388 0 0.5877852410284794 -0.80901700255871778 I I #
edge $-1 $341 -8.6195229131609992 $186 -2.3287912118233005 $267 $342 forward 7 unknown #
point $-1 58.184148686178169 31.228056045857223 2.3287912118233005 #
point $-1 33.01579241053291 31.228056045857223 2.328791211823301 #
edge $-1 $343 1 $343 0 $189 $-1 forward 7 unknown #
vertex $-1 $190 $344 #
ellipse-curve $-1 45.599970548355536 28.133797053561761 4.886371821463654 0 0.80901700255871778 0.5877852410284794 0.5 0 0 1 I I #
point $-1 46.099970548355536 28.942814056120479 5.4741570624921332 #
plane-surface $-1 58.184148686178169 0 0 -1 0 0 0 0 1 forward_v I I I I #
coedge $-1 $198 $196 $200 $292 reversed $121 $-1 #
edge $-1 $211 -8.6195229131609992 $294 8.6195229131609992 $210 $345 forward 7 unknown #
vertex $-1 $292 $346 #
straight-curve $-1 -58.184148686178169 -31.228056045857223 0 0 0 -1 I I #
edge $-1 $290 -31.228056045857223 $294 31.228056045857223 $288 $347 forward 7 unknown #
straight-curve $-1 0 -31.228056045857223 -8.6195229131609992 -1 0 0 I I #
vertex $-1 $203 $348 #
straight-curve $-1 0 31.228056045857223 -8.6195229131609992 1 0 0 I I #
point $-1 58.184148686178169 31.228056045857223 -8.6195229131609992 #
point $-1 58.184148686178169 -31.228056045857223 -8.6195229131609992 #
straight-curve $-1 -58.184148686178169 0 8.6195229131609992 0 -1 0 I I #
point $-1 -58.184148686178169 31.228056045857223 8.6195229131609992 #
point $-1 -58.184148686178169 -31.228056045857223 8.6195229131609992 #
straight-curve $-1 58.184148686178169 -31.228056045857223 0 0 0 -1 I I #
straight-curve $-1 58.184148686178169 31.228056045857223 0 0 0 -1 I I #
plane-surface $-1 0 -31.228056045857223 0 0 1 0 0 0 1 forward_v I I I I #
coedge $-1 $349 $223 $235 $315 reversed $140 $-1 #
coedge $-1 $223 $349 $238 $317 reversed $140 $-1 #
edge $-1 $350 -58.184148686178169 $232 -50.987232429251584 $228 $351 forward 7 unknown #
straight-curve $-1 -50.987232429251584 -14.864028022928611 8.6195229131609992 0 1 0 I I #
coedge $-1 $235 $226 $229 $311 forward $221 $-1 #
straight-curve $-1 -50.987232429251584 -14.864028022928611 -8.6195229131609992 0 -1 0 I I #
coedge $-1 $229 $228 $349 $352 forward $230 $-1 #
edge $-1 $231 50.987232429251584 $353 58.184148686178169 $229 $354 forward 7 unknown #
point $-1 -50.987232429251584 -31.228056045857223 -8.6195229131609992 #
point $-1 -50.987232429251584 -31.228056045857223 8.6195229131609992 #
straight-curve $-1 -58.184148686178169 -28.228056045857223 0 0 0 -1 I I #
edge $-1 $353 -31.228056045857223 $236 -28.228056045857223 $304 $355 forward 7 unknown #
point $-1 -58.184148686178169 -28.228056045857223 -8.6195229131609992 #
edge $-1 $239 28.228056045857223 $350 31.228056045857223 $305 $356 forward 7 unknown #
point $-1 -58.184148686178169 -28.228056045857223 8.6195229131609992 #
coedge $-1 $321 $252 $246 $320 reversed $243 $-1 #
edge $-1 $328 -8.6195229131609992 $254 -2.328791211823277 $246 $357 forward 7 unknown #
coedge $-1 $247 $319 $249 $323 reversed $243 $-1 #
straight-curve $-1 33.01579241053291 -31.228056045857223 35.364179465453759 0 0 -1 I I #
edge $-1 $250 33.01579241053291 $328 58.184148686178169 $321 $358 forward 7 unknown #
point $-1 33.01579241053291 -31.228056045857223 8.6195229131609992 #
straight-curve $-1 22.799985274177768 -31.228056045857223 2.3287912118232752 1 0 0 I I #
point $-1 58.184148686178162 -31.228056045857223 2.328791211823277 #
point $-1 33.01579241053291 -31.228056045857223 2.328791211823277 #
vertex $-1 $258 $359 #
straight-curve $-1 58.184148686178169 0 8.6195229131609992 0 1 0 I I #
vertex $-1 $261 $360 #
point $-1 46.099970548355536 -28.133797053561754 4.8863718214636576 #
coedge $-1 $334 $274 $268 $333 forward $265 $-1 #
edge $-1 $276 26.657572066383743 $341 31.228056045857223 $268 $361 forward 7 unknown #
coedge $-1 $269 $332 $271 $336 forward $265 $-1 #
straight-curve $-1 33.01579241053291 44.33060313968619 8.6195229131609992 0 -1 0 I I #
edge $-1 $341 -58.184148686178169 $272 -33.01579241053291 $271 $362 forward 7 unknown #
point $-1 33.01579241053291 31.228056045857223 8.6195229131609992 #
straight-curve $-1 22.799985274177768 26.657572066383743 8.6195229131609992 1 0 0 I I #
point $-1 58.184148686178162 26.657572066383743 8.6195229131609992 #
point $-1 33.01579241053291 26.657572066383743 8.6195229131609992 #
vertex $-1 $333 $363 #
straight-curve $-1 58.184148686178169 31.228056045857223 0 0 0 -1 I I #
vertex $-1 $283 $364 #
point $-1 46.099970548355536 28.133797053561761 4.886371821463654 #
straight-curve $-1 -58.184148686178169 31.228056045857223 0 0 0 -1 I I #
point $-1 -58.184148686178169 -31.228056045857223 -8.6195229131609992 #
straight-curve $-1 -58.184148686178169 0 -8.6195229131609992 0 1 0 I I #
point $-1 -58.184148686178169 31.228056045857223 -8.6195229131609992 #
coedge $-1 $305 $304 $310 $352 reversed $140 $-1 #
vertex $-1 $317 $365 #
straight-curve $-1 0 -31.228056045857223 8.6195229131609992 1 0 0 I I #
edge $-1 $350 -8.6195229131609992 $353 8.6195229131609992 $349 $366 forward 7 unknown #
vertex $-1 $315 $367 #
straight-curve $-1 0 -31.228056045857223 -8.6195229131609992 -1 0 0 I I #
straight-curve $-1 -58.184148686178169 0 -8.6195229131609992 0 1 0 I I #
straight-curve $-1 -58.184148686178169 0 8.6195229131609992 0 -1 0 I I #
straight-curve $-1 58.184148686178169 -31.228056045857223 0 0 0 -1 I I #
straight-curve $-1 0 -31.228056045857223 8.6195229131609992 1 0 0 I I #
point $-1 58.184148686178169 -31.228056045857223 8.6195229131609992 #
point $-1 45.599970548355536 -27.729288552282394 4.5924792009494171 #
straight-curve $-1 58.184148686178169 0 8.6195229131609992 0 1 0 I I #
straight-curve $-1 0 31.228056045857223 8.6195229131609992 -1 0 0 I I #
point $-1 58.184148686178169 31.228056045857223 8.6195229131609992 #
point $-1 45.599970548355536 27.729288552282402 4.5924792009494135 #
point $-1 -58.184148686178169 -31.228056045857223 8.6195229131609992 #
straight-curve $-1 -58.184148686178169 -31.228056045857223 0 0 0 -1 I I #
point $-1 -58.184148686178169 -31.228056045857223 -8.6195229131609992 #
End-of-ACIS-data 