500 0 17 0           
7 Unknown 11 ACIS 5.0 NT 24 Thu Mar 25 20:33:34 1999 
-1 9.9999999999999995e-007 1e-010 
body $-1 $17 $-1 $18 #
body $-1 $19 $-1 $20 #
body $-1 $21 $-1 $22 #
body $-1 $23 $-1 $24 #
body $-1 $25 $-1 $26 #
body $-1 $27 $-1 $28 #
body $-1 $29 $-1 $30 #
body $-1 $31 $-1 $32 #
body $-1 $33 $-1 $34 #
body $-1 $35 $-1 $36 #
body $-1 $37 $-1 $38 #
body $-1 $39 $-1 $40 #
body $-1 $41 $-1 $42 #
body $-1 $43 $-1 $44 #
body $-1 $45 $-1 $46 #
body $-1 $47 $-1 $48 #
body $-1 $49 $-1 $50 #
lump $-1 $-1 $51 $0 #
transform $-1 1 0 0 0 1 0 0 0 1 41.037629322183903 27.834751783365494 5.9275525519317025 1 rotate no_reflect no_shear #
lump $-1 $-1 $52 $1 #
transform $-1 1 0 0 0 1 0 0 0 1 41.037629322183903 27.834751783365494 5.9275525519317025 1 rotate no_reflect no_shear #
lump $-1 $-1 $53 $2 #
transform $-1 1 0 0 0 1 0 0 0 1 41.037629322183903 27.834751783365494 5.9275525519317025 1 rotate no_reflect no_shear #
lump $-1 $-1 $54 $3 #
transform $-1 1 0 0 0 1 0 0 0 1 41.037629322183903 27.834751783365494 5.9275525519317025 1 rotate no_reflect no_shear #
lump $-1 $-1 $55 $4 #
transform $-1 1 0 0 0 1 0 0 0 1 41.037629322183903 27.834751783365494 5.9275525519317025 1 rotate no_reflect no_shear #
lump $-1 $-1 $56 $5 #
transform $-1 1 0 0 0 1 0 0 0 1 41.037629322183903 27.834751783365494 5.9275525519317025 1 rotate no_reflect no_shear #
lump $-1 $-1 $57 $6 #
transform $-1 1 0 0 0 1 0 0 0 1 41.037629322183903 27.834751783365494 5.9275525519317025 1 rotate no_reflect no_shear #
lump $-1 $-1 $58 $7 #
transform $-1 1 0 0 0 1 0 0 0 1 41.037629322183903 27.834751783365494 5.9275525519317025 1 rotate no_reflect no_shear #
lump $-1 $-1 $59 $8 #
transform $-1 1 0 0 0 1 0 0 0 1 41.037629322183903 27.834751783365494 5.9275525519317025 1 rotate no_reflect no_shear #
lump $-1 $-1 $60 $9 #
transform $-1 1 0 0 0 1 0 0 0 1 41.037629322183903 27.834751783365494 5.9275525519317025 1 rotate no_reflect no_shear #
lump $-1 $-1 $61 $10 #
transform $-1 1 0 0 0 1 0 0 0 1 41.037629322183903 27.834751783365494 5.9275525519317025 1 rotate no_reflect no_shear #
lump $-1 $-1 $62 $11 #
transform $-1 1 0 0 0 1 0 0 0 1 41.037629322183903 27.834751783365494 5.9275525519317025 1 rotate no_reflect no_shear #
lump $-1 $-1 $63 $12 #
transform $-1 1 0 0 0 1 0 0 0 1 41.037629322183903 27.834751783365494 5.9275525519317025 1 rotate no_reflect no_shear #
lump $-1 $-1 $64 $13 #
transform $-1 1 0 0 0 1 0 0 0 1 41.037629322183903 27.834751783365494 5.9275525519317025 1 rotate no_reflect no_shear #
lump $-1 $-1 $65 $14 #
transform $-1 1 0 0 0 1 0 0 0 1 41.037629322183903 27.834751783365494 5.9275525519317025 1 rotate no_reflect no_shear #
lump $-1 $-1 $66 $15 #
transform $-1 1 0 0 0 1 0 0 0 1 41.037629322183903 27.834751783365494 5.9275525519317025 1 rotate no_reflect no_shear #
lump $-1 $-1 $67 $16 #
transform $-1 1 0 0 0 1 0 0 0 1 41.037629322183903 27.834751783365494 5.9275525519317025 1 rotate no_reflect no_shear #
shell $-1 $-1 $-1 $68 $-1 $17 #
shell $-1 $-1 $-1 $69 $-1 $19 #
shell $-1 $-1 $-1 $70 $-1 $21 #
shell $-1 $-1 $-1 $71 $-1 $23 #
shell $-1 $-1 $-1 $72 $-1 $25 #
shell $-1 $-1 $-1 $73 $-1 $27 #
shell $-1 $-1 $-1 $74 $-1 $29 #
shell $-1 $-1 $-1 $75 $-1 $31 #
shell $-1 $-1 $-1 $76 $-1 $33 #
shell $-1 $-1 $-1 $77 $-1 $35 #
shell $-1 $-1 $-1 $78 $-1 $37 #
shell $-1 $-1 $-1 $79 $-1 $39 #
shell $-1 $-1 $-1 $80 $-1 $41 #
shell $-1 $-1 $-1 $81 $-1 $43 #
shell $-1 $-1 $-1 $82 $-1 $45 #
shell $-1 $-1 $-1 $83 $-1 $47 #
shell $-1 $-1 $-1 $84 $-1 $49 #
face $-1 $85 $86 $51 $-1 $87 forward single #
face $-1 $88 $89 $52 $-1 $90 reversed single #
face $-1 $91 $92 $53 $-1 $93 reversed single #
face $-1 $94 $95 $54 $-1 $96 forward single #
face $-1 $97 $98 $55 $-1 $99 forward single #
face $-1 $100 $101 $56 $-1 $102 reversed single #
face $-1 $103 $104 $57 $-1 $105 forward single #
face $-1 $106 $107 $58 $-1 $108 forward single #
face $-1 $109 $110 $59 $-1 $111 reversed single #
face $-1 $112 $113 $60 $-1 $114 forward single #
face $-1 $115 $116 $61 $-1 $117 forward single #
face $-1 $118 $119 $62 $-1 $120 reversed single #
face $-1 $121 $122 $63 $-1 $123 forward single #
face $-1 $124 $125 $64 $-1 $126 forward single #
face $-1 $127 $128 $65 $-1 $129 reversed single #
face $-1 $130 $131 $66 $-1 $132 forward single #
face $-1 $133 $134 $67 $-1 $135 forward single #
face $-1 $136 $137 $51 $-1 $138 reversed single #
loop $-1 $-1 $139 $68 #
plane-surface $-1 0 0 5.9275525519317025 0 0 1 1 0 0 forward_v I I I I #
face $-1 $140 $141 $52 $-1 $142 reversed single #
loop $-1 $-1 $143 $69 #
plane-surface $-1 0 -24.912403432138493 2.9275525519317025 0 0 1 1 0 0 forward_v I I I I #
face $-1 $144 $145 $53 $-1 $146 reversed single #
loop $-1 $-1 $147 $70 #
plane-surface $-1 -41.037629322183918 -15.473691510294163 0.53749675443040701 -0.71933980857756763 0 0.69465836192734942 0.69465836192734942 0 0.71933980857756763 forward_v I I I I #
face $-1 $148 $149 $54 $-1 $150 forward single #
loop $-1 $151 $152 $71 #
cone-surface $-1 -36.918540116991956 -18.266418754844445 1.768027649899345 0.71933980857756763 0 -0.69465836192734942 1.0419875428910241 0 1.0790097128663514 1 I I 0 1 1.5 forward I I I I #
face $-1 $153 $154 $55 $-1 $155 forward single #
loop $-1 $156 $157 $72 #
cone-surface $-1 -36.918540116991956 -12.680964265743876 1.768027649899345 0.71933980857756763 0 -0.69465836192734942 1.0419875428910241 0 1.0790097128663514 1 I I 0 1 1.5 forward I I I I #
face $-1 $158 $159 $56 $-1 $160 reversed single #
loop $-1 $-1 $161 $73 #
plane-surface $-1 49.134400292849435 -11.894400073844999 116.60777306444793 0 -1 0 -0.75470958851134928 0 -0.65605901945558964 forward_v I I I I #
face $-1 $162 $163 $57 $-1 $164 forward single #
loop $-1 $165 $166 $74 #
cone-surface $-1 38.167745183196324 -16.583504175289953 2.8086350195931664 -0.75470958851134928 0 -0.65605901945558964 0.32802950972779482 0 -0.37735479425567464 1 I I 0 1 0.5 forward I I I I #
face $-1 $167 $168 $58 $-1 $169 forward single #
loop $-1 $170 $171 $75 #
cone-surface $-1 38.167745183196324 -13.77004171442298 2.8086350195931664 -0.75470958851134928 0 -0.65605901945558964 0.32802950972779482 0 -0.37735479425567464 1 I I 0 1 0.5 forward I I I I #
face $-1 $172 $173 $59 $-1 $174 reversed single #
loop $-1 $-1 $175 $76 #
plane-surface $-1 49.134400292849435 0.17168079021064564 116.60777306444793 0 -1 0 -0.75470958851134928 0 -0.65605901945558964 forward_v I I I I #
face $-1 $176 $177 $60 $-1 $178 forward single #
loop $-1 $179 $180 $77 #
cone-surface $-1 38.167745183196324 -4.5174233112343103 2.8086350195931664 -0.75470958851134928 0 -0.65605901945558964 0.32802950972779482 0 -0.37735479425567464 1 I I 0 1 0.5 forward I I I I #
face $-1 $181 $182 $61 $-1 $183 forward single #
loop $-1 $184 $185 $78 #
cone-surface $-1 38.167745183196324 -1.7039608503673342 2.8086350195931664 -0.75470958851134928 0 -0.65605901945558964 0.32802950972779482 0 -0.37735479425567464 1 I I 0 1 0.5 forward I I I I #
face $-1 $186 $187 $62 $-1 $188 reversed single #
loop $-1 $-1 $189 $79 #
plane-surface $-1 49.134400292849435 12.237761654266292 116.60777306444793 0 -1 0 -0.75470958851134928 0 -0.65605901945558964 forward_v I I I I #
face $-1 $190 $191 $63 $-1 $192 forward single #
loop $-1 $193 $194 $80 #
cone-surface $-1 38.167745183196324 7.5486575528213358 2.8086350195931664 -0.75470958851134928 0 -0.65605901945558964 0.32802950972779482 0 -0.37735479425567464 1 I I 0 1 0.5 forward I I I I #
face $-1 $195 $196 $64 $-1 $197 forward single #
loop $-1 $198 $199 $81 #
cone-surface $-1 38.167745183196324 10.362120013688308 2.8086350195931664 -0.75470958851134928 0 -0.65605901945558964 0.32802950972779482 0 -0.37735479425567464 1 I I 0 1 0.5 forward I I I I #
face $-1 $200 $201 $65 $-1 $202 reversed single #
loop $-1 $-1 $203 $82 #
plane-surface $-1 49.134400292849435 24.303842518321936 116.60777306444793 0 -1 0 -0.75470958851134928 0 -0.65605901945558964 forward_v I I I I #
face $-1 $204 $205 $66 $-1 $206 forward single #
loop $-1 $207 $208 $83 #
cone-surface $-1 38.167745183196324 19.614738416876978 2.8086350195931664 -0.75470958851134928 0 -0.65605901945558964 0.32802950972779482 0 -0.37735479425567464 1 I I 0 1 0.5 forward I I I I #
face $-1 $209 $210 $67 $-1 $211 forward single #
loop $-1 $212 $213 $84 #
cone-surface $-1 38.167745183196324 22.428200877743951 2.8086350195931664 -0.75470958851134928 0 -0.65605901945558964 0.32802950972779482 0 -0.37735479425567464 1 I I 0 1 0.5 forward I I I I #
face $-1 $214 $215 $51 $-1 $216 reversed single #
loop $-1 $-1 $217 $85 #
plane-surface $-1 0 0 -5.9275525519317025 0 0 1 1 0 0 forward_v I I I I #
coedge $-1 $218 $219 $220 $221 forward $86 $-1 #
face $-1 $222 $223 $52 $-1 $224 reversed single #
loop $-1 $-1 $225 $88 #
plane-surface $-1 0 -21.990055080911493 4.4275525519317025 0 -1 0 0 0 -1 forward_v I I I I #
coedge $-1 $226 $227 $228 $229 reversed $89 $-1 #
face $-1 $230 $231 $53 $-1 $232 forward single #
loop $-1 $-1 $233 $91 #
plane-surface $-1 -100.07763016437781 -8.9573279396768335 57.551761479090473 0 -1 0 0.71933980857756763 0 -0.69465836192734942 forward_v I I I I #
coedge $-1 $234 $235 $236 $237 reversed $92 $-1 #
face $-1 $-1 $238 $54 $-1 $239 forward single #
loop $-1 $240 $241 $94 #
cone-surface $-1 -34.862504183209907 -18.266418754844445 -0.21746312482787644 0.71933980857756763 0 -0.69465836192734942 0.52099377144551207 0 0.53950485643317569 1 I I -0.70710678118654757 0.70710678118654757 0.75 forward I I I I #
loop $-1 $-1 $242 $71 #
coedge $-1 $152 $152 $243 $244 reversed $95 $-1 #
face $-1 $-1 $245 $55 $-1 $246 forward single #
loop $-1 $247 $248 $97 #
cone-surface $-1 -34.862504183209907 -12.680964265743876 -0.21746312482787644 0.71933980857756763 0 -0.69465836192734942 0.52099377144551207 0 0.53950485643317569 1 I I -0.70710678118654757 0.70710678118654757 0.75 forward I I I I #
loop $-1 $-1 $249 $72 #
coedge $-1 $157 $157 $250 $251 reversed $98 $-1 #
face $-1 $252 $253 $56 $-1 $254 reversed single #
loop $-1 $-1 $255 $100 #
plane-surface $-1 -12.808584385603957 -15.176772944856468 62.761559356660072 0.75470958851134928 0 0.65605901945558964 0.65605901945558964 0 -0.75470958851134928 forward_v I I I I #
coedge $-1 $256 $257 $258 $259 reversed $101 $-1 #
face $-1 $-1 $260 $57 $-1 $261 forward single #
loop $-1 $262 $263 $103 #
cone-surface $-1 37.329766945133116 -16.583504175289953 2.0801916692532476 -0.75470958851134928 0 -0.65605901945558964 0.16401475486389741 0 -0.18867739712783732 1 I I -0.70710678118654746 0.70710678118654746 0.25 forward I I I I #
loop $-1 $-1 $264 $74 #
coedge $-1 $166 $166 $265 $266 reversed $104 $-1 #
face $-1 $-1 $267 $58 $-1 $268 forward single #
loop $-1 $269 $270 $106 #
cone-surface $-1 37.329766945133116 -13.77004171442298 2.0801916692532476 -0.75470958851134928 0 -0.65605901945558964 0.16401475486389741 0 -0.18867739712783732 1 I I -0.70710678118654746 0.70710678118654746 0.25 forward I I I I #
loop $-1 $-1 $271 $75 #
coedge $-1 $171 $171 $272 $273 reversed $107 $-1 #
face $-1 $274 $275 $59 $-1 $276 reversed single #
loop $-1 $-1 $277 $109 #
plane-surface $-1 -12.808584385603957 -3.110692080800824 62.761559356660072 0.75470958851134928 0 0.65605901945558964 0.65605901945558964 0 -0.75470958851134928 forward_v I I I I #
coedge $-1 $278 $279 $280 $281 reversed $110 $-1 #
face $-1 $-1 $282 $60 $-1 $283 forward single #
loop $-1 $284 $285 $112 #
cone-surface $-1 37.329766945133116 -4.5174233112343103 2.0801916692532476 -0.75470958851134928 0 -0.65605901945558964 0.16401475486389741 0 -0.18867739712783732 1 I I -0.70710678118654746 0.70710678118654746 0.25 forward I I I I #
loop $-1 $-1 $286 $77 #
coedge $-1 $180 $180 $287 $288 reversed $113 $-1 #
face $-1 $-1 $289 $61 $-1 $290 forward single #
loop $-1 $291 $292 $115 #
cone-surface $-1 37.329766945133116 -1.7039608503673342 2.0801916692532476 -0.75470958851134928 0 -0.65605901945558964 0.16401475486389741 0 -0.18867739712783732 1 I I -0.70710678118654746 0.70710678118654746 0.25 forward I I I I #
loop $-1 $-1 $293 $78 #
coedge $-1 $185 $185 $294 $295 reversed $116 $-1 #
face $-1 $296 $297 $62 $-1 $298 reversed single #
loop $-1 $-1 $299 $118 #
plane-surface $-1 -12.808584385603957 8.955388783254822 62.761559356660072 0.75470958851134928 0 0.65605901945558964 0.65605901945558964 0 -0.75470958851134928 forward_v I I I I #
coedge $-1 $300 $301 $302 $303 reversed $119 $-1 #
face $-1 $-1 $304 $63 $-1 $305 forward single #
loop $-1 $306 $307 $121 #
cone-surface $-1 37.329766945133116 7.5486575528213358 2.0801916692532476 -0.75470958851134928 0 -0.65605901945558964 0.16401475486389741 0 -0.18867739712783732 1 I I -0.70710678118654746 0.70710678118654746 0.25 forward I I I I #
loop $-1 $-1 $308 $80 #
coedge $-1 $194 $194 $309 $310 reversed $122 $-1 #
face $-1 $-1 $311 $64 $-1 $312 forward single #
loop $-1 $313 $314 $124 #
cone-surface $-1 37.329766945133116 10.362120013688308 2.0801916692532476 -0.75470958851134928 0 -0.65605901945558964 0.16401475486389741 0 -0.18867739712783732 1 I I -0.70710678118654746 0.70710678118654746 0.25 forward I I I I #
loop $-1 $-1 $315 $81 #
coedge $-1 $199 $199 $316 $317 reversed $125 $-1 #
face $-1 $318 $319 $65 $-1 $320 reversed single #
loop $-1 $-1 $321 $127 #
plane-surface $-1 -12.808584385603957 21.021469647310465 62.761559356660072 0.75470958851134928 0 0.65605901945558964 0.65605901945558964 0 -0.75470958851134928 forward_v I I I I #
coedge $-1 $322 $323 $324 $325 reversed $128 $-1 #
face $-1 $-1 $326 $66 $-1 $327 forward single #
loop $-1 $328 $329 $130 #
cone-surface $-1 37.329766945133116 19.614738416876978 2.0801916692532476 -0.75470958851134928 0 -0.65605901945558964 0.16401475486389741 0 -0.18867739712783732 1 I I -0.70710678118654746 0.70710678118654746 0.25 forward I I I I #
loop $-1 $-1 $330 $83 #
coedge $-1 $208 $208 $331 $332 reversed $131 $-1 #
face $-1 $-1 $333 $67 $-1 $334 forward single #
loop $-1 $335 $336 $133 #
cone-surface $-1 37.329766945133116 22.428200877743951 2.0801916692532476 -0.75470958851134928 0 -0.65605901945558964 0.16401475486389741 0 -0.18867739712783732 1 I I -0.70710678118654746 0.70710678118654746 0.25 forward I I I I #
loop $-1 $-1 $337 $84 #
coedge $-1 $213 $213 $338 $339 reversed $134 $-1 #
face $-1 $340 $341 $51 $-1 $342 reversed single #
loop $-1 $-1 $343 $136 #
plane-surface $-1 0 -27.834751783365494 0 0 1 0 0 0 1 forward_v I I I I #
coedge $-1 $344 $345 $346 $347 forward $137 $-1 #
coedge $-1 $348 $139 $349 $350 forward $86 $-1 #
coedge $-1 $139 $348 $351 $352 forward $86 $-1 #
coedge $-1 $353 $354 $139 $221 reversed $355 $-1 #
edge $-1 $356 -27.834751783365494 $357 27.834751783365494 $220 $358 forward 7 unknown #
face $-1 $359 $360 $52 $-1 $361 reversed single #
loop $-1 $-1 $362 $140 #
plane-surface $-1 -41.037629322183903 0 0 1 0 0 0 0 -1 forward_v I I I I #
coedge $-1 $363 $364 $365 $366 reversed $141 $-1 #
coedge $-1 $367 $143 $368 $369 reversed $89 $-1 #
coedge $-1 $143 $367 $363 $370 forward $89 $-1 #
coedge $-1 $365 $371 $143 $229 forward $372 $-1 #
edge $-1 $373 -15.378550067296247 $374 -9.5338533648422459 $228 $375 forward 7 unknown #
face $-1 $376 $377 $53 $-1 $378 reversed single #
loop $-1 $-1 $236 $144 #
plane-surface $-1 0 0 5.9275525519317025 0 0 1 1 0 0 forward_v I I I I #
coedge $-1 $379 $380 $381 $382 reversed $145 $-1 #
coedge $-1 $383 $147 $384 $385 reversed $92 $-1 #
coedge $-1 $147 $383 $379 $386 forward $92 $-1 #
coedge $-1 $381 $387 $147 $237 forward $231 $-1 #
edge $-1 $388 -14.253209325764411 $389 -1.220482184529752 $236 $390 forward 7 unknown #
loop $-1 $-1 $243 $148 #
plane-surface $-1 -41.037629322183918 -15.473691510294163 0.53749675443040701 -0.71933980857756763 0 0.69465836192734942 0.69465836192734942 0 0.71933980857756763 forward_v I I I I #
loop $-1 $-1 $391 $94 #
coedge $-1 $241 $241 $242 $392 reversed $149 $-1 #
coedge $-1 $242 $242 $241 $392 forward $151 $-1 #
coedge $-1 $243 $243 $152 $244 forward $238 $-1 #
edge $-1 $393 0 $393 6.2831853071796004 $243 $394 forward 7 unknown #
loop $-1 $-1 $250 $153 #
plane-surface $-1 -41.037629322183918 -15.473691510294163 0.53749675443040701 -0.71933980857756763 0 0.69465836192734942 0.69465836192734942 0 0.71933980857756763 forward_v I I I I #
loop $-1 $-1 $395 $97 #
coedge $-1 $248 $248 $249 $396 reversed $154 $-1 #
coedge $-1 $249 $249 $248 $396 forward $156 $-1 #
coedge $-1 $250 $250 $157 $251 forward $245 $-1 #
edge $-1 $397 0 $397 6.2831853071796004 $250 $398 forward 7 unknown #
face $-1 $399 $400 $56 $-1 $401 reversed single #
loop $-1 $-1 $402 $158 #
plane-surface $-1 49.134400292849435 -18.459145815867938 116.60777306444793 0 1 0 0.75470958851134928 0 0.65605901945558964 forward_v I I I I #
coedge $-1 $403 $404 $405 $406 reversed $159 $-1 #
coedge $-1 $257 $161 $407 $408 reversed $101 $-1 #
coedge $-1 $161 $256 $403 $409 reversed $101 $-1 #
coedge $-1 $405 $410 $161 $259 forward $411 $-1 #
edge $-1 $412 -16.470429175759186 $413 -12.02926257965472 $258 $414 forward 7 unknown #
loop $-1 $-1 $265 $162 #
plane-surface $-1 -12.808584385603957 -15.176772944856468 62.761559356660072 0.75470958851134928 0 0.65605901945558964 0.65605901945558964 0 -0.75470958851134928 forward_v I I I I #
loop $-1 $-1 $415 $103 #
coedge $-1 $263 $263 $264 $416 reversed $163 $-1 #
coedge $-1 $264 $264 $263 $416 forward $165 $-1 #
coedge $-1 $265 $265 $166 $266 forward $260 $-1 #
edge $-1 $417 0 $417 6.2831853071796004 $265 $418 forward 7 unknown #
loop $-1 $-1 $272 $167 #
plane-surface $-1 -12.808584385603957 -15.176772944856468 62.761559356660072 0.75470958851134928 0 0.65605901945558964 0.65605901945558964 0 -0.75470958851134928 forward_v I I I I #
loop $-1 $-1 $419 $106 #
coedge $-1 $270 $270 $271 $420 reversed $168 $-1 #
coedge $-1 $271 $271 $270 $420 forward $170 $-1 #
coedge $-1 $272 $272 $171 $273 forward $267 $-1 #
edge $-1 $421 0 $421 6.2831853071796004 $272 $422 forward 7 unknown #
face $-1 $423 $424 $59 $-1 $425 reversed single #
loop $-1 $-1 $426 $172 #
plane-surface $-1 49.134400292849435 -6.3930649518122937 116.60777306444793 0 1 0 0.75470958851134928 0 0.65605901945558964 forward_v I I I I #
coedge $-1 $427 $428 $429 $430 reversed $173 $-1 #
coedge $-1 $279 $175 $431 $432 reversed $110 $-1 #
coedge $-1 $175 $278 $427 $433 reversed $110 $-1 #
coedge $-1 $429 $434 $175 $281 forward $435 $-1 #
edge $-1 $436 -16.470429175759186 $437 -12.02926257965472 $280 $438 forward 7 unknown #
loop $-1 $-1 $287 $176 #
plane-surface $-1 -12.808584385603957 -3.110692080800824 62.761559356660072 0.75470958851134928 0 0.65605901945558964 0.65605901945558964 0 -0.75470958851134928 forward_v I I I I #
loop $-1 $-1 $439 $112 #
coedge $-1 $285 $285 $286 $440 reversed $177 $-1 #
coedge $-1 $286 $286 $285 $440 forward $179 $-1 #
coedge $-1 $287 $287 $180 $288 forward $282 $-1 #
edge $-1 $441 0 $441 6.2831853071796004 $287 $442 forward 7 unknown #
loop $-1 $-1 $294 $181 #
plane-surface $-1 -12.808584385603957 -3.110692080800824 62.761559356660072 0.75470958851134928 0 0.65605901945558964 0.65605901945558964 0 -0.75470958851134928 forward_v I I I I #
loop $-1 $-1 $443 $115 #
coedge $-1 $292 $292 $293 $444 reversed $182 $-1 #
coedge $-1 $293 $293 $292 $444 forward $184 $-1 #
coedge $-1 $294 $294 $185 $295 forward $289 $-1 #
edge $-1 $445 0 $445 6.2831853071796004 $294 $446 forward 7 unknown #
face $-1 $447 $448 $62 $-1 $449 reversed single #
loop $-1 $-1 $450 $186 #
plane-surface $-1 49.134400292849435 5.6730159122433523 116.60777306444793 0 1 0 0.75470958851134928 0 0.65605901945558964 forward_v I I I I #
coedge $-1 $451 $452 $453 $454 reversed $187 $-1 #
coedge $-1 $301 $189 $455 $456 reversed $119 $-1 #
coedge $-1 $189 $300 $451 $457 reversed $119 $-1 #
coedge $-1 $453 $458 $189 $303 forward $459 $-1 #
edge $-1 $460 -16.470429175759186 $461 -12.02926257965472 $302 $462 forward 7 unknown #
loop $-1 $-1 $309 $190 #
plane-surface $-1 -12.808584385603957 8.955388783254822 62.761559356660072 0.75470958851134928 0 0.65605901945558964 0.65605901945558964 0 -0.75470958851134928 forward_v I I I I #
loop $-1 $-1 $463 $121 #
coedge $-1 $307 $307 $308 $464 reversed $191 $-1 #
coedge $-1 $308 $308 $307 $464 forward $193 $-1 #
coedge $-1 $309 $309 $194 $310 forward $304 $-1 #
edge $-1 $465 0 $465 6.2831853071796004 $309 $466 forward 7 unknown #
loop $-1 $-1 $316 $195 #
plane-surface $-1 -12.808584385603957 8.955388783254822 62.761559356660072 0.75470958851134928 0 0.65605901945558964 0.65605901945558964 0 -0.75470958851134928 forward_v I I I I #
loop $-1 $-1 $467 $124 #
coedge $-1 $314 $314 $315 $468 reversed $196 $-1 #
coedge $-1 $315 $315 $314 $468 forward $198 $-1 #
coedge $-1 $316 $316 $199 $317 forward $311 $-1 #
edge $-1 $469 0 $469 6.2831853071796004 $316 $470 forward 7 unknown #
face $-1 $471 $472 $65 $-1 $473 reversed single #
loop $-1 $-1 $474 $200 #
plane-surface $-1 49.134400292849435 17.739096776298993 116.60777306444793 0 1 0 0.75470958851134928 0 0.65605901945558964 forward_v I I I I #
coedge $-1 $475 $476 $477 $478 reversed $201 $-1 #
coedge $-1 $323 $203 $479 $480 reversed $128 $-1 #
coedge $-1 $203 $322 $475 $481 reversed $128 $-1 #
coedge $-1 $477 $482 $203 $325 forward $483 $-1 #
edge $-1 $484 -16.470429175759186 $485 -12.02926257965472 $324 $486 forward 7 unknown #
loop $-1 $-1 $331 $204 #
plane-surface $-1 -12.808584385603957 21.021469647310465 62.761559356660072 0.75470958851134928 0 0.65605901945558964 0.65605901945558964 0 -0.75470958851134928 forward_v I I I I #
loop $-1 $-1 $487 $130 #
coedge $-1 $329 $329 $330 $488 reversed $205 $-1 #
coedge $-1 $330 $330 $329 $488 forward $207 $-1 #
coedge $-1 $331 $331 $208 $332 forward $326 $-1 #
edge $-1 $489 0 $489 6.2831853071796004 $331 $490 forward 7 unknown #
loop $-1 $-1 $338 $209 #
plane-surface $-1 -12.808584385603957 21.021469647310465 62.761559356660072 0.75470958851134928 0 0.65605901945558964 0.65605901945558964 0 -0.75470958851134928 forward_v I I I I #
loop $-1 $-1 $491 $133 #
coedge $-1 $336 $336 $337 $492 reversed $210 $-1 #
coedge $-1 $337 $337 $336 $492 forward $212 $-1 #
coedge $-1 $338 $338 $213 $339 forward $333 $-1 #
edge $-1 $493 0 $493 6.2831853071796004 $338 $494 forward 7 unknown #
face $-1 $495 $496 $51 $-1 $497 reversed single #
loop $-1 $-1 $498 $214 #
plane-surface $-1 -41.037629322183903 0 0 1 0 0 0 0 -1 forward_v I I I I #
coedge $-1 $499 $351 $500 $501 forward $215 $-1 #
coedge $-1 $502 $217 $499 $503 forward $137 $-1 #
coedge $-1 $217 $502 $504 $505 forward $137 $-1 #
coedge $-1 $354 $353 $217 $347 reversed $355 $-1 #
edge $-1 $506 -27.834751783365494 $507 27.834751783365494 $346 $508 forward 7 unknown #
coedge $-1 $219 $218 $509 $510 forward $86 $-1 #
coedge $-1 $511 $512 $218 $350 reversed $496 $-1 #
edge $-1 $357 -41.037629322183903 $513 41.037629322183903 $349 $514 forward 7 unknown #
coedge $-1 $343 $515 $219 $352 reversed $215 $-1 #
edge $-1 $516 -41.037629322183903 $356 41.037629322183903 $351 $517 forward 7 unknown #
coedge $-1 $346 $220 $515 $518 forward $355 $-1 #
coedge $-1 $220 $346 $511 $519 reversed $355 $-1 #
loop $-1 $-1 $353 $495 #
vertex $-1 $221 $520 #
vertex $-1 $221 $521 #
straight-curve $-1 41.037629322183903 0 5.9275525519317025 0 1 0 I I #
face $-1 $522 $523 $52 $-1 $524 forward single #
loop $-1 $-1 $368 $222 #
plane-surface $-1 0 -27.834751783365494 0 0 1 0 0 0 1 forward_v I I I I #
coedge $-1 $525 $526 $527 $528 forward $223 $-1 #
coedge $-1 $527 $225 $227 $370 reversed $141 $-1 #
coedge $-1 $225 $527 $529 $530 reversed $141 $-1 #
coedge $-1 $531 $228 $225 $366 forward $372 $-1 #
edge $-1 $374 0.71377627596585125 $532 3.7137762759658512 $365 $533 forward 7 unknown #
coedge $-1 $227 $226 $525 $534 reversed $89 $-1 #
coedge $-1 $535 $536 $226 $369 forward $360 $-1 #
edge $-1 $537 -41.037629322183903 $373 41.037629322183903 $368 $538 forward 7 unknown #
edge $-1 $539 -41.037629322183903 $374 41.037629322183903 $363 $540 forward 7 unknown #
coedge $-1 $228 $531 $535 $541 forward $372 $-1 #
loop $-1 $-1 $365 $522 #
vertex $-1 $369 $542 #
vertex $-1 $229 $543 #
straight-curve $-1 41.037629322183903 -12.456201716069247 2.9275525519317025 0 1 0 I I #
face $-1 $-1 $544 $53 $-1 $545 forward single #
loop $-1 $-1 $546 $230 #
plane-surface $-1 -41.037629322183903 0 0 1 0 0 0 0 -1 forward_v I I I I #
coedge $-1 $380 $233 $235 $386 reversed $145 $-1 #
coedge $-1 $233 $379 $546 $547 reversed $145 $-1 #
coedge $-1 $548 $236 $233 $382 forward $231 $-1 #
edge $-1 $389 -14.206302015691136 $549 -9.0011857600050007 $381 $550 forward 7 unknown #
coedge $-1 $235 $234 $551 $552 reversed $92 $-1 #
coedge $-1 $553 $554 $234 $385 forward $544 $-1 #
edge $-1 $555 -15.652702177530321 $388 -8.159642940116985 $384 $556 forward 7 unknown #
edge $-1 $557 2.0493436377612941e-014 $389 7.49305923741335 $379 $558 forward 7 unknown #
coedge $-1 $236 $548 $553 $559 forward $231 $-1 #
vertex $-1 $385 $560 #
vertex $-1 $237 $561 #
straight-curve $-1 -35.832513066497761 -7.7368457551470815 5.9275525519317034 0 1 0 I I #
coedge $-1 $391 $391 $-1 $562 reversed $240 $-1 #
edge $-1 $563 0 $563 6.2831853071796004 $241 $564 forward 7 unknown #
vertex $-1 $244 $565 #
ellipse-curve $-1 -38.435071194340836 -18.266418754844445 3.232524653181061 -0.71933980857756763 0 0.69465836192734942 1.0419875428910241 0 1.0790097128663514 1 I I #
coedge $-1 $395 $395 $-1 $566 reversed $247 $-1 #
edge $-1 $567 0 $567 6.2831853071796004 $248 $568 forward 7 unknown #
vertex $-1 $251 $569 #
ellipse-curve $-1 -38.435071194340836 -12.680964265743876 3.232524653181061 -0.71933980857756763 0 0.69465836192734942 1.0419875428910241 0 1.0790097128663514 1 I I #
face $-1 $-1 $411 $56 $-1 $570 forward single #
loop $-1 $-1 $571 $252 #
plane-surface $-1 41.037629322183903 0 0 -1 0 0 0 0 1 forward_v I I I I #
coedge $-1 $572 $573 $574 $575 reversed $253 $-1 #
coedge $-1 $576 $255 $257 $409 forward $159 $-1 #
coedge $-1 $255 $576 $572 $577 forward $159 $-1 #
coedge $-1 $574 $258 $255 $406 forward $411 $-1 #
edge $-1 $413 4.3060136014167645 $578 10.870759343439705 $405 $579 forward 7 unknown #
coedge $-1 $580 $581 $256 $408 forward $400 $-1 #
edge $-1 $582 -57.48531185401729 $412 -52.376333980292259 $407 $583 forward 7 unknown #
edge $-1 $413 75.305796653296014 $582 82.07525864436785 $257 $584 forward 7 unknown #
coedge $-1 $258 $574 $580 $585 forward $411 $-1 #
loop $-1 $-1 $574 $399 #
vertex $-1 $408 $586 #
vertex $-1 $259 $587 #
straight-curve $-1 24.567200146424717 -11.894400073844999 5.9275525519317043 -1 0 0 I I #
coedge $-1 $415 $415 $-1 $588 reversed $262 $-1 #
edge $-1 $589 0 $589 6.2831853071796004 $263 $590 forward 7 unknown #
vertex $-1 $266 $591 #
ellipse-curve $-1 38.817046024131677 -16.583504175289953 3.3730636150691766 0.75470958851134928 0 0.65605901945558964 0.32802950972779482 0 -0.37735479425567464 1 I I #
coedge $-1 $419 $419 $-1 $592 reversed $269 $-1 #
edge $-1 $593 0 $593 6.2831853071796004 $270 $594 forward 7 unknown #
vertex $-1 $273 $595 #
ellipse-curve $-1 38.817046024131677 -13.77004171442298 3.3730636150691766 0.75470958851134928 0 0.65605901945558964 0.32802950972779482 0 -0.37735479425567464 1 I I #
face $-1 $-1 $435 $59 $-1 $596 forward single #
loop $-1 $-1 $597 $274 #
plane-surface $-1 41.037629322183903 0 0 -1 0 0 0 0 1 forward_v I I I I #
coedge $-1 $598 $599 $600 $601 reversed $275 $-1 #
coedge $-1 $602 $277 $279 $433 forward $173 $-1 #
coedge $-1 $277 $602 $598 $603 forward $173 $-1 #
coedge $-1 $600 $280 $277 $430 forward $435 $-1 #
edge $-1 $437 -1.7270268306110577 $604 4.8377189114118817 $429 $605 forward 7 unknown #
coedge $-1 $606 $607 $278 $432 forward $424 $-1 #
edge $-1 $608 -57.48531185401729 $436 -52.376333980292259 $431 $609 forward 7 unknown #
edge $-1 $437 75.305796653296014 $608 82.07525864436785 $279 $610 forward 7 unknown #
coedge $-1 $280 $600 $606 $611 forward $435 $-1 #
loop $-1 $-1 $600 $423 #
vertex $-1 $432 $612 #
vertex $-1 $281 $613 #
straight-curve $-1 24.567200146424717 0.17168079021064564 5.9275525519317043 -1 0 0 I I #
coedge $-1 $439 $439 $-1 $614 reversed $284 $-1 #
edge $-1 $615 0 $615 6.2831853071796004 $285 $616 forward 7 unknown #
vertex $-1 $288 $617 #
ellipse-curve $-1 38.817046024131677 -4.5174233112343103 3.3730636150691766 0.75470958851134928 0 0.65605901945558964 0.32802950972779482 0 -0.37735479425567464 1 I I #
coedge $-1 $443 $443 $-1 $618 reversed $291 $-1 #
edge $-1 $619 0 $619 6.2831853071796004 $292 $620 forward 7 unknown #
vertex $-1 $295 $621 #
ellipse-curve $-1 38.817046024131677 -1.7039608503673342 3.3730636150691766 0.75470958851134928 0 0.65605901945558964 0.32802950972779482 0 -0.37735479425567464 1 I I #
face $-1 $-1 $459 $62 $-1 $622 forward single #
loop $-1 $-1 $623 $296 #
plane-surface $-1 41.037629322183903 0 0 -1 0 0 0 0 1 forward_v I I I I #
coedge $-1 $624 $625 $626 $627 reversed $297 $-1 #
coedge $-1 $628 $299 $301 $457 forward $187 $-1 #
coedge $-1 $299 $628 $624 $629 forward $187 $-1 #
coedge $-1 $626 $302 $299 $454 forward $459 $-1 #
edge $-1 $461 -7.7600672626388807 $630 -1.1953215206159413 $453 $631 forward 7 unknown #
coedge $-1 $632 $633 $300 $456 forward $448 $-1 #
edge $-1 $634 -57.48531185401729 $460 -52.376333980292259 $455 $635 forward 7 unknown #
edge $-1 $461 75.305796653296014 $634 82.07525864436785 $301 $636 forward 7 unknown #
coedge $-1 $302 $626 $632 $637 forward $459 $-1 #
loop $-1 $-1 $626 $447 #
vertex $-1 $456 $638 #
vertex $-1 $303 $639 #
straight-curve $-1 24.567200146424717 12.237761654266292 5.9275525519317043 -1 0 0 I I #
coedge $-1 $463 $463 $-1 $640 reversed $306 $-1 #
edge $-1 $641 0 $641 6.2831853071796004 $307 $642 forward 7 unknown #
vertex $-1 $310 $643 #
ellipse-curve $-1 38.817046024131677 7.5486575528213358 3.3730636150691766 0.75470958851134928 0 0.65605901945558964 0.32802950972779482 0 -0.37735479425567464 1 I I #
coedge $-1 $467 $467 $-1 $644 reversed $313 $-1 #
edge $-1 $645 0 $645 6.2831853071796004 $314 $646 forward 7 unknown #
vertex $-1 $317 $647 #
ellipse-curve $-1 38.817046024131677 10.362120013688308 3.3730636150691766 0.75470958851134928 0 0.65605901945558964 0.32802950972779482 0 -0.37735479425567464 1 I I #
face $-1 $-1 $483 $65 $-1 $648 forward single #
loop $-1 $-1 $649 $318 #
plane-surface $-1 41.037629322183903 0 0 -1 0 0 0 0 1 forward_v I I I I #
coedge $-1 $650 $651 $652 $653 reversed $319 $-1 #
coedge $-1 $654 $321 $323 $481 forward $201 $-1 #
coedge $-1 $321 $654 $650 $655 forward $201 $-1 #
coedge $-1 $652 $324 $321 $478 forward $483 $-1 #
edge $-1 $485 -13.793107694666704 $656 -7.2283619526437608 $477 $657 forward 7 unknown #
coedge $-1 $658 $659 $322 $480 forward $472 $-1 #
edge $-1 $660 -57.48531185401729 $484 -52.376333980292259 $479 $661 forward 7 unknown #
edge $-1 $485 75.305796653296014 $660 82.07525864436785 $323 $662 forward 7 unknown #
coedge $-1 $324 $652 $658 $663 forward $483 $-1 #
loop $-1 $-1 $652 $471 #
vertex $-1 $480 $664 #
vertex $-1 $325 $665 #
straight-curve $-1 24.567200146424717 24.303842518321936 5.9275525519317043 -1 0 0 I I #
coedge $-1 $487 $487 $-1 $666 reversed $328 $-1 #
edge $-1 $667 0 $667 6.2831853071796004 $329 $668 forward 7 unknown #
vertex $-1 $332 $669 #
ellipse-curve $-1 38.817046024131677 19.614738416876978 3.3730636150691766 0.75470958851134928 0 0.65605901945558964 0.32802950972779482 0 -0.37735479425567464 1 I I #
coedge $-1 $491 $491 $-1 $670 reversed $335 $-1 #
edge $-1 $671 0 $671 6.2831853071796004 $336 $672 forward 7 unknown #
vertex $-1 $339 $673 #
ellipse-curve $-1 38.817046024131677 22.428200877743951 3.3730636150691766 0.75470958851134928 0 0.65605901945558964 0.32802950972779482 0 -0.37735479425567464 1 I I #
face $-1 $-1 $355 $51 $-1 $674 reversed single #
loop $-1 $-1 $511 $340 #
plane-surface $-1 0 27.834751783365494 0 0 -1 0 0 0 -1 forward_v I I I I #
coedge $-1 $675 $509 $512 $676 forward $341 $-1 #
coedge $-1 $515 $343 $344 $503 reversed $215 $-1 #
coedge $-1 $509 $675 $343 $501 reversed $341 $-1 #
edge $-1 $516 -5.9275525519317025 $677 5.9275525519317025 $500 $678 forward 7 unknown #
coedge $-1 $345 $344 $675 $679 forward $137 $-1 #
edge $-1 $507 -41.037629322183903 $677 41.037629322183903 $499 $680 forward 7 unknown #
coedge $-1 $512 $511 $345 $505 reversed $496 $-1 #
edge $-1 $681 -41.037629322183903 $506 41.037629322183903 $504 $682 forward 7 unknown #
vertex $-1 $347 $683 #
vertex $-1 $518 $684 #
straight-curve $-1 41.037629322183903 0 -5.9275525519317025 0 -1 0 I I #
coedge $-1 $498 $500 $348 $510 reversed $341 $-1 #
edge $-1 $513 -27.834751783365494 $516 27.834751783365494 $509 $685 forward 7 unknown #
coedge $-1 $504 $349 $354 $519 forward $496 $-1 #
coedge $-1 $349 $504 $498 $676 reversed $496 $-1 #
vertex $-1 $350 $686 #
straight-curve $-1 0 27.834751783365494 5.9275525519317025 -1 0 0 I I #
coedge $-1 $351 $499 $353 $518 reversed $215 $-1 #
vertex $-1 $510 $687 #
straight-curve $-1 0 -27.834751783365494 5.9275525519317025 1 0 0 I I #
edge $-1 $356 -5.9275525519317025 $507 5.9275525519317025 $353 $688 forward 7 unknown #
edge $-1 $357 -5.9275525519317025 $506 5.9275525519317025 $354 $689 forward 7 unknown #
point $-1 41.037629322183903 -27.834751783365494 5.9275525519317025 #
point $-1 41.037629322183903 27.834751783365494 5.9275525519317025 #
face $-1 $-1 $372 $52 $-1 $690 reversed single #
loop $-1 $-1 $529 $359 #
plane-surface $-1 0 0 5.9275525519317025 0 0 1 1 0 0 forward_v I I I I #
coedge $-1 $691 $362 $367 $534 forward $223 $-1 #
coedge $-1 $362 $691 $692 $693 reversed $223 $-1 #
coedge $-1 $364 $363 $362 $528 reversed $141 $-1 #
edge $-1 $694 -3.7137762759658512 $539 -0.71377627596585125 $362 $695 forward 7 unknown #
coedge $-1 $692 $696 $364 $530 forward $523 $-1 #
edge $-1 $532 -41.037629322183903 $694 41.037629322183903 $529 $697 forward 7 unknown #
coedge $-1 $371 $365 $696 $698 reversed $372 $-1 #
vertex $-1 $366 $699 #
straight-curve $-1 41.037629322183903 -21.990055080911493 2.2137762759658512 0 0 1 I I #
edge $-1 $539 9.5338533648422459 $537 15.378550067296247 $525 $700 forward 7 unknown #
coedge $-1 $701 $368 $371 $541 reversed $360 $-1 #
coedge $-1 $368 $701 $691 $702 forward $360 $-1 #
vertex $-1 $369 $703 #
straight-curve $-1 0 -27.834751783365494 2.9275525519317025 1 0 0 I I #
vertex $-1 $534 $704 #
straight-curve $-1 0 -21.990055080911493 2.9275525519317025 1 0 0 I I #
edge $-1 $705 -5.9275525519317025 $373 -2.9275525519317025 $371 $706 forward 7 unknown #
point $-1 41.037629322183903 -27.834751783365494 2.9275525519317025 #
point $-1 41.037629322183903 -21.990055080911493 2.9275525519317025 #
loop $-1 $-1 $384 $376 #
plane-surface $-1 0 -21.990055080911493 4.4275525519317025 0 -1 0 0 0 -1 forward_v I I I I #
coedge $-1 $551 $707 $380 $547 forward $377 $-1 #
edge $-1 $549 22.848328187613532 $557 28.238383985114815 $546 $708 forward 7 unknown #
coedge $-1 $387 $381 $707 $709 forward $231 $-1 #
vertex $-1 $709 $710 #
straight-curve $-1 -50.038815082188904 -8.9573279396768335 5.9275525519317007 -1 0 0 I I #
coedge $-1 $711 $546 $383 $552 forward $377 $-1 #
edge $-1 $557 1.220482184529752 $555 14.253209325764411 $551 $712 forward 7 unknown #
coedge $-1 $554 $384 $387 $559 reversed $544 $-1 #
coedge $-1 $384 $553 $711 $713 reversed $544 $-1 #
vertex $-1 $713 $714 #
straight-curve $-1 -30.164348867804037 -21.990055080911493 11.797108542536758 0.69465836192734942 0 0.71933980857756763 I I #
vertex $-1 $552 $715 #
straight-curve $-1 -41.037629322183918 -8.9573279396768335 0.53749675443040701 0.69465836192734942 0 0.71933980857756763 I I #
edge $-1 $716 -41.037629322183903 $388 -35.832513066497761 $387 $717 forward 7 unknown #
point $-1 -35.832513066497761 -21.990055080911493 5.9275525519317025 #
point $-1 -35.832513066497768 -8.9573279396768335 5.9275525519317025 #
edge $-1 $718 1 $718 0 $391 $-1 forward 7 unknown #
vertex $-1 $392 $719 #
ellipse-curve $-1 -35.402009039643083 -18.266418754844445 0.30353064661763562 -0.71933980857756763 0 0.69465836192734942 1.0419875428910241 0 1.0790097128663514 1 I I #
point $-1 -37.393083651449807 -18.266418754844445 4.3115343660474057 #
edge $-1 $720 1 $720 0 $395 $-1 forward 7 unknown #
vertex $-1 $396 $721 #
ellipse-curve $-1 -35.402009039643083 -12.680964265743876 0.30353064661763562 -0.71933980857756763 0 0.69465836192734942 1.0419875428910241 0 1.0790097128663514 1 I I #
point $-1 -37.393083651449807 -12.680964265743876 4.3115343660474057 #
plane-surface $-1 0 0 5.9275525519317025 0 0 1 1 0 0 forward_v I I I I #
coedge $-1 $581 $580 $573 $722 forward $400 $-1 #
coedge $-1 $573 $402 $404 $577 reversed $253 $-1 #
coedge $-1 $402 $572 $571 $722 reversed $253 $-1 #
coedge $-1 $410 $405 $402 $575 forward $411 $-1 #
edge $-1 $578 12.02926257965472 $723 16.470429175759186 $574 $724 forward 7 unknown #
coedge $-1 $404 $403 $581 $725 reversed $159 $-1 #
edge $-1 $726 -82.07525864436785 $578 -75.305796653296014 $572 $727 forward 7 unknown #
vertex $-1 $406 $728 #
straight-curve $-1 36.596462726079437 -7.5883864724282342 5.9275525519316972 0 -1 0 I I #
coedge $-1 $571 $407 $410 $585 reversed $400 $-1 #
coedge $-1 $407 $571 $576 $725 forward $400 $-1 #
vertex $-1 $408 $729 #
straight-curve $-1 41.037629322183903 -11.894400073844999 58.303886532223963 0 0 1 I I #
straight-curve $-1 -12.808584385603957 -11.894400073844999 62.761559356660072 0.65605901945558964 0 -0.75470958851134928 I I #
edge $-1 $723 -18.459145815867938 $412 -11.894400073844999 $580 $730 forward 7 unknown #
point $-1 41.037629322183903 -11.894400073844999 5.9275525519317025 #
point $-1 36.596462726079437 -11.894400073844999 5.9275525519317043 #
edge $-1 $731 1 $731 0 $415 $-1 forward 7 unknown #
vertex $-1 $416 $732 #
ellipse-curve $-1 37.518444342260956 -16.583504175289953 2.2442064241171451 0.75470958851134928 0 0.65605901945558964 0.32802950972779482 0 -0.37735479425567464 1 I I #
point $-1 39.145075533859483 -16.583504175289953 2.9957088208135132 #
edge $-1 $733 1 $733 0 $419 $-1 forward 7 unknown #
vertex $-1 $420 $734 #
ellipse-curve $-1 37.518444342260956 -13.77004171442298 2.2442064241171451 0.75470958851134928 0 0.65605901945558964 0.32802950972779482 0 -0.37735479425567464 1 I I #
point $-1 39.145075533859483 -13.77004171442298 2.9957088208135132 #
plane-surface $-1 0 0 5.9275525519317025 0 0 1 1 0 0 forward_v I I I I #
coedge $-1 $607 $606 $599 $735 forward $424 $-1 #
coedge $-1 $599 $426 $428 $603 reversed $275 $-1 #
coedge $-1 $426 $598 $597 $735 reversed $275 $-1 #
coedge $-1 $434 $429 $426 $601 forward $435 $-1 #
edge $-1 $604 12.02926257965472 $736 16.470429175759186 $600 $737 forward 7 unknown #
coedge $-1 $428 $427 $607 $738 reversed $173 $-1 #
edge $-1 $739 -82.07525864436785 $604 -75.305796653296014 $598 $740 forward 7 unknown #
vertex $-1 $430 $741 #
straight-curve $-1 36.596462726079437 -1.555346040400412 5.9275525519316972 0 -1 0 I I #
coedge $-1 $597 $431 $434 $611 reversed $424 $-1 #
coedge $-1 $431 $597 $602 $738 forward $424 $-1 #
vertex $-1 $432 $742 #
straight-curve $-1 41.037629322183903 0.17168079021064564 58.303886532223963 0 0 1 I I #
straight-curve $-1 -12.808584385603957 0.17168079021064564 62.761559356660072 0.65605901945558964 0 -0.75470958851134928 I I #
edge $-1 $736 -6.3930649518122937 $436 0.17168079021064564 $606 $743 forward 7 unknown #
point $-1 41.037629322183903 0.17168079021064564 5.9275525519317025 #
point $-1 36.596462726079437 0.17168079021064564 5.9275525519317043 #
edge $-1 $744 1 $744 0 $439 $-1 forward 7 unknown #
vertex $-1 $440 $745 #
ellipse-curve $-1 37.518444342260956 -4.5174233112343103 2.2442064241171451 0.75470958851134928 0 0.65605901945558964 0.32802950972779482 0 -0.37735479425567464 1 I I #
point $-1 39.145075533859483 -4.5174233112343103 2.9957088208135132 #
edge $-1 $746 1 $746 0 $443 $-1 forward 7 unknown #
vertex $-1 $444 $747 #
ellipse-curve $-1 37.518444342260956 -1.7039608503673342 2.2442064241171451 0.75470958851134928 0 0.65605901945558964 0.32802950972779482 0 -0.37735479425567464 1 I I #
point $-1 39.145075533859483 -1.7039608503673342 2.9957088208135132 #
plane-surface $-1 0 0 5.9275525519317025 0 0 1 1 0 0 forward_v I I I I #
coedge $-1 $633 $632 $625 $748 forward $448 $-1 #
coedge $-1 $625 $450 $452 $629 reversed $297 $-1 #
coedge $-1 $450 $624 $623 $748 reversed $297 $-1 #
coedge $-1 $458 $453 $450 $627 forward $459 $-1 #
edge $-1 $630 12.02926257965472 $749 16.470429175759186 $626 $750 forward 7 unknown #
coedge $-1 $452 $451 $633 $751 reversed $187 $-1 #
edge $-1 $752 -82.07525864436785 $630 -75.305796653296014 $624 $753 forward 7 unknown #
vertex $-1 $454 $754 #
straight-curve $-1 36.596462726079437 4.477694391627411 5.9275525519316972 0 -1 0 I I #
coedge $-1 $623 $455 $458 $637 reversed $448 $-1 #
coedge $-1 $455 $623 $628 $751 forward $448 $-1 #
vertex $-1 $456 $755 #
straight-curve $-1 41.037629322183903 12.237761654266292 58.303886532223963 0 0 1 I I #
straight-curve $-1 -12.808584385603957 12.237761654266292 62.761559356660072 0.65605901945558964 0 -0.75470958851134928 I I #
edge $-1 $749 5.6730159122433523 $460 12.237761654266292 $632 $756 forward 7 unknown #
point $-1 41.037629322183903 12.237761654266292 5.9275525519317025 #
point $-1 36.596462726079437 12.237761654266292 5.9275525519317043 #
edge $-1 $757 1 $757 0 $463 $-1 forward 7 unknown #
vertex $-1 $464 $758 #
ellipse-curve $-1 37.518444342260956 7.5486575528213358 2.2442064241171451 0.75470958851134928 0 0.65605901945558964 0.32802950972779482 0 -0.37735479425567464 1 I I #
point $-1 39.145075533859483 7.5486575528213358 2.9957088208135132 #
edge $-1 $759 1 $759 0 $467 $-1 forward 7 unknown #
vertex $-1 $468 $760 #
ellipse-curve $-1 37.518444342260956 10.362120013688308 2.2442064241171451 0.75470958851134928 0 0.65605901945558964 0.32802950972779482 0 -0.37735479425567464 1 I I #
point $-1 39.145075533859483 10.362120013688308 2.9957088208135132 #
plane-surface $-1 0 0 5.9275525519317025 0 0 1 1 0 0 forward_v I I I I #
coedge $-1 $659 $658 $651 $761 forward $472 $-1 #
coedge $-1 $651 $474 $476 $655 reversed $319 $-1 #
coedge $-1 $474 $650 $649 $761 reversed $319 $-1 #
coedge $-1 $482 $477 $474 $653 forward $483 $-1 #
edge $-1 $656 12.02926257965472 $762 16.470429175759186 $652 $763 forward 7 unknown #
coedge $-1 $476 $475 $659 $764 reversed $201 $-1 #
edge $-1 $765 -82.07525864436785 $656 -75.305796653296014 $650 $766 forward 7 unknown #
vertex $-1 $478 $767 #
straight-curve $-1 36.596462726079437 10.510734823655232 5.9275525519316972 0 -1 0 I I #
coedge $-1 $649 $479 $482 $663 reversed $472 $-1 #
coedge $-1 $479 $649 $654 $764 forward $472 $-1 #
vertex $-1 $480 $768 #
straight-curve $-1 41.037629322183903 24.303842518321936 58.303886532223963 0 0 1 I I #
straight-curve $-1 -12.808584385603957 24.303842518321936 62.761559356660072 0.65605901945558964 0 -0.75470958851134928 I I #
edge $-1 $762 17.739096776298993 $484 24.303842518321936 $658 $769 forward 7 unknown #
point $-1 41.037629322183903 24.303842518321936 5.9275525519317025 #
point $-1 36.596462726079437 24.303842518321936 5.9275525519317043 #
edge $-1 $770 1 $770 0 $487 $-1 forward 7 unknown #
vertex $-1 $488 $771 #
ellipse-curve $-1 37.518444342260956 19.614738416876978 2.2442064241171451 0.75470958851134928 0 0.65605901945558964 0.32802950972779482 0 -0.37735479425567464 1 I I #
point $-1 39.145075533859483 19.614738416876978 2.9957088208135132 #
edge $-1 $772 1 $772 0 $491 $-1 forward 7 unknown #
vertex $-1 $492 $773 #
ellipse-curve $-1 37.518444342260956 22.428200877743951 2.2442064241171451 0.75470958851134928 0 0.65605901945558964 0.32802950972779482 0 -0.37735479425567464 1 I I #
point $-1 39.145075533859483 22.428200877743951 2.9957088208135132 #
plane-surface $-1 41.037629322183903 0 0 -1 0 0 0 0 1 forward_v I I I I #
coedge $-1 $500 $498 $502 $679 reversed $341 $-1 #
edge $-1 $513 -5.9275525519317025 $681 5.9275525519317025 $512 $774 forward 7 unknown #
vertex $-1 $679 $775 #
straight-curve $-1 -41.037629322183903 -27.834751783365494 0 0 0 -1 I I #
edge $-1 $677 -27.834751783365494 $681 27.834751783365494 $675 $776 forward 7 unknown #
straight-curve $-1 0 -27.834751783365494 -5.9275525519317025 -1 0 0 I I #
vertex $-1 $505 $777 #
straight-curve $-1 0 27.834751783365494 -5.9275525519317025 1 0 0 I I #
point $-1 41.037629322183903 27.834751783365494 -5.9275525519317025 #
point $-1 41.037629322183903 -27.834751783365494 -5.9275525519317025 #
straight-curve $-1 -41.037629322183903 0 5.9275525519317025 0 -1 0 I I #
point $-1 -41.037629322183903 27.834751783365494 5.9275525519317025 #
point $-1 -41.037629322183903 -27.834751783365494 5.9275525519317025 #
straight-curve $-1 41.037629322183903 -27.834751783365494 0 0 0 -1 I I #
straight-curve $-1 41.037629322183903 27.834751783365494 0 0 0 -1 I I #
plane-surface $-1 41.037629322183903 0 0 -1 0 0 0 0 1 forward_v I I I I #
coedge $-1 $526 $525 $536 $702 reversed $223 $-1 #
coedge $-1 $778 $529 $526 $693 forward $523 $-1 #
edge $-1 $694 21.990055080911493 $779 27.834751783365494 $526 $780 forward 7 unknown #
vertex $-1 $693 $781 #
straight-curve $-1 -41.037629322183903 -21.990055080911493 2.2137762759658512 0 0 -1 I I #
coedge $-1 $529 $778 $531 $698 forward $523 $-1 #
straight-curve $-1 0 -21.990055080911493 5.9275525519317025 -1 0 0 I I #
edge $-1 $705 -27.834751783365494 $532 -21.990055080911493 $531 $782 forward 7 unknown #
point $-1 41.037629322183903 -21.990055080911493 5.9275525519317025 #
straight-curve $-1 -41.037629322183903 -12.456201716069247 2.9275525519317025 0 -1 0 I I #
coedge $-1 $536 $535 $778 $783 reversed $360 $-1 #
edge $-1 $779 -5.9275525519317025 $537 -2.9275525519317025 $691 $784 forward 7 unknown #
point $-1 -41.037629322183903 -27.834751783365494 2.9275525519317025 #
point $-1 -41.037629322183903 -21.990055080911493 2.9275525519317025 #
vertex $-1 $698 $785 #
straight-curve $-1 41.037629322183903 -27.834751783365494 0 0 0 -1 I I #
coedge $-1 $546 $711 $548 $709 reversed $377 $-1 #
straight-curve $-1 -41.037629322183903 -8.9573279396768335 28.775880739545237 0 0 -1 I I #
edge $-1 $549 8.9573279396768335 $716 21.990055080911493 $707 $786 forward 7 unknown #
point $-1 -41.037629322183903 -8.9573279396768335 5.9275525519317025 #
coedge $-1 $707 $551 $554 $713 forward $377 $-1 #
straight-curve $-1 -41.037629322183903 -7.7368457551470815 0.537496754430422 0 -1 0 I I #
edge $-1 $555 -28.238383985114815 $716 -22.848328187613532 $711 $787 forward 7 unknown #
point $-1 -41.037629322183903 -21.990055080911493 0.53749675443042177 #
point $-1 -41.037629322183903 -8.9573279396768335 0.53749675443042177 #
vertex $-1 $713 $788 #
straight-curve $-1 0 -21.990055080911493 5.9275525519317025 1 0 0 I I #
vertex $-1 $562 $789 #
point $-1 -34.360021496752061 -18.266418754844445 1.3825403594839871 #
vertex $-1 $566 $790 #
point $-1 -34.360021496752061 -12.680964265743876 1.3825403594839871 #
edge $-1 $723 52.376333980292259 $726 57.48531185401729 $571 $791 forward 7 unknown #
vertex $-1 $585 $792 #
straight-curve $-1 24.567200146424717 -18.459145815867938 5.9275525519317043 1 0 0 I I #
edge $-1 $726 -10.870759343439705 $582 -4.3060136014167645 $581 $793 forward 7 unknown #
vertex $-1 $725 $794 #
straight-curve $-1 -12.808584385603957 -18.459145815867938 62.761559356660072 -0.65605901945558964 0 0.75470958851134928 I I #
point $-1 36.596462726079437 -18.459145815867938 5.9275525519317043 #
point $-1 41.037629322183903 -11.894400073844999 0.81857467820667296 #
straight-curve $-1 41.037629322183903 0 5.9275525519317025 0 1 0 I I #
vertex $-1 $588 $795 #
point $-1 37.846473851988748 -16.583504175289953 1.8668516298614704 #
vertex $-1 $592 $796 #
point $-1 37.846473851988748 -13.77004171442298 1.8668516298614704 #
edge $-1 $736 52.376333980292259 $739 57.48531185401729 $597 $797 forward 7 unknown #
vertex $-1 $611 $798 #
straight-curve $-1 24.567200146424717 -6.3930649518122937 5.9275525519317043 1 0 0 I I #
edge $-1 $739 -4.8377189114118817 $608 1.7270268306110577 $607 $799 forward 7 unknown #
vertex $-1 $738 $800 #
straight-curve $-1 -12.808584385603957 -6.3930649518122937 62.761559356660072 -0.65605901945558964 0 0.75470958851134928 I I #
point $-1 36.596462726079437 -6.3930649518122937 5.9275525519317043 #
point $-1 41.037629322183903 0.17168079021064564 0.81857467820667296 #
straight-curve $-1 41.037629322183903 0 5.9275525519317025 0 1 0 I I #
vertex $-1 $614 $801 #
point $-1 37.846473851988748 -4.5174233112343103 1.8668516298614704 #
vertex $-1 $618 $802 #
point $-1 37.846473851988748 -1.7039608503673342 1.8668516298614704 #
edge $-1 $749 52.376333980292259 $752 57.48531185401729 $623 $803 forward 7 unknown #
vertex $-1 $637 $804 #
straight-curve $-1 24.567200146424717 5.6730159122433523 5.9275525519317043 1 0 0 I I #
edge $-1 $752 1.1953215206159413 $634 7.7600672626388807 $633 $805 forward 7 unknown #
vertex $-1 $751 $806 #
straight-curve $-1 -12.808584385603957 5.6730159122433523 62.761559356660072 -0.65605901945558964 0 0.75470958851134928 I I #
point $-1 36.596462726079437 5.6730159122433523 5.9275525519317043 #
point $-1 41.037629322183903 12.237761654266292 0.81857467820667296 #
straight-curve $-1 41.037629322183903 0 5.9275525519317025 0 1 0 I I #
vertex $-1 $640 $807 #
point $-1 37.846473851988748 7.5486575528213358 1.8668516298614704 #
vertex $-1 $644 $808 #
point $-1 37.846473851988748 10.362120013688308 1.8668516298614704 #
edge $-1 $762 52.376333980292259 $765 57.48531185401729 $649 $809 forward 7 unknown #
vertex $-1 $663 $810 #
straight-curve $-1 24.567200146424717 17.739096776298993 5.9275525519317043 1 0 0 I I #
edge $-1 $765 7.2283619526437608 $660 13.793107694666704 $659 $811 forward 7 unknown #
vertex $-1 $764 $812 #
straight-curve $-1 -12.808584385603957 17.739096776298993 62.761559356660072 -0.65605901945558964 0 0.75470958851134928 I I #
point $-1 36.596462726079437 17.739096776298993 5.9275525519317043 #
point $-1 41.037629322183903 24.303842518321936 0.81857467820667296 #
straight-curve $-1 41.037629322183903 0 5.9275525519317025 0 1 0 I I #
vertex $-1 $666 $813 #
point $-1 37.846473851988748 19.614738416876978 1.8668516298614704 #
vertex $-1 $670 $814 #
point $-1 37.846473851988748 22.428200877743951 1.8668516298614704 #
straight-curve $-1 -41.037629322183903 27.834751783365494 0 0 0 -1 I I #
point $-1 -41.037629322183903 -27.834751783365494 -5.9275525519317025 #
straight-curve $-1 -41.037629322183903 0 -5.9275525519317025 0 1 0 I I #
point $-1 -41.037629322183903 27.834751783365494 -5.9275525519317025 #
coedge $-1 $696 $692 $701 $783 forward $523 $-1 #
vertex $-1 $693 $815 #
straight-curve $-1 -41.037629322183903 0 5.9275525519317025 0 -1 0 I I #
point $-1 -41.037629322183903 -21.990055080911493 5.9275525519317025 #
straight-curve $-1 41.037629322183903 0 5.9275525519317025 0 1 0 I I #
edge $-1 $779 -41.037629322183903 $705 41.037629322183903 $701 $816 forward 7 unknown #
straight-curve $-1 -41.037629322183903 -27.834751783365494 0 0 0 -1 I I #
point $-1 41.037629322183903 -27.834751783365494 5.9275525519317025 #
straight-curve $-1 -41.037629322183903 0 5.9275525519317025 0 -1 0 I I #
straight-curve $-1 -41.037629322183903 -21.990055080911493 28.775880739545237 0 0 1 I I #
point $-1 -41.037629322183903 -21.990055080911493 5.9275525519317025 #
point $-1 -34.322999326776731 -18.266418754844445 -0.73845689627338851 #
point $-1 -34.322999326776731 -12.680964265743876 -0.73845689627338851 #
straight-curve $-1 41.037629322183903 -18.459145815867938 58.303886532223963 0 0 -1 I I #
point $-1 41.037629322183903 -18.459145815867938 5.9275525519317025 #
straight-curve $-1 41.037629322183903 -7.5883864724282342 0.81857467820666585 0 1 0 I I #
point $-1 41.037629322183903 -18.459145815867938 0.81857467820667296 #
point $-1 37.141089548005276 -16.583504175289953 1.9161769143893501 #
point $-1 37.141089548005276 -13.77004171442298 1.9161769143893501 #
straight-curve $-1 41.037629322183903 -6.3930649518122937 58.303886532223963 0 0 -1 I I #
point $-1 41.037629322183903 -6.3930649518122937 5.9275525519317025 #
straight-curve $-1 41.037629322183903 -1.555346040400412 0.81857467820666585 0 1 0 I I #
point $-1 41.037629322183903 -6.3930649518122937 0.81857467820667296 #
point $-1 37.141089548005276 -4.5174233112343103 1.9161769143893501 #
point $-1 37.141089548005276 -1.7039608503673342 1.9161769143893501 #
straight-curve $-1 41.037629322183903 5.6730159122433523 58.303886532223963 0 0 -1 I I #
point $-1 41.037629322183903 5.6730159122433523 5.9275525519317025 #
straight-curve $-1 41.037629322183903 4.477694391627411 0.81857467820666585 0 1 0 I I #
point $-1 41.037629322183903 5.6730159122433523 0.81857467820667296 #
point $-1 37.141089548005276 7.5486575528213358 1.9161769143893501 #
point $-1 37.141089548005276 10.362120013688308 1.9161769143893501 #
straight-curve $-1 41.037629322183903 17.739096776298993 58.303886532223963 0 0 -1 I I #
point $-1 41.037629322183903 17.739096776298993 5.9275525519317025 #
straight-curve $-1 41.037629322183903 10.510734823655232 0.81857467820666585 0 1 0 I I #
point $-1 41.037629322183903 17.739096776298993 0.81857467820667296 #
point $-1 37.141089548005276 19.614738416876978 1.9161769143893501 #
point $-1 37.141089548005276 22.428200877743951 1.9161769143893501 #
point $-1 -41.037629322183903 -27.834751783365494 5.9275525519317025 #
straight-curve $-1 0 -27.834751783365494 5.9275525519317025 1 0 0 I I #
End-of-ACIS-data 