500 0 11 0           
7 Unknown 11 ACIS 5.0 NT 24 Fri Mar 26 00:45:16 1999 
-1 9.9999999999999995e-007 1e-010 
body $-1 $11 $-1 $12 #
body $-1 $13 $-1 $14 #
body $-1 $15 $-1 $16 #
body $-1 $17 $-1 $18 #
body $-1 $19 $-1 $20 #
body $-1 $21 $-1 $22 #
body $-1 $23 $-1 $24 #
body $-1 $25 $-1 $26 #
body $-1 $27 $-1 $28 #
body $-1 $29 $-1 $30 #
body $-1 $31 $-1 $32 #
lump $-1 $-1 $33 $0 #
transform $-1 1 0 0 0 1 0 0 0 1 55.492416150395215 23.257295503151415 7.2475430885549219 1 rotate no_reflect no_shear #
lump $-1 $-1 $34 $1 #
transform $-1 1 0 0 0 1 0 0 0 1 55.492416150395215 23.257295503151415 7.2475430885549219 1 rotate no_reflect no_shear #
lump $-1 $-1 $35 $2 #
transform $-1 1 0 0 0 1 0 0 0 1 55.492416150395215 23.257295503151415 7.2475430885549219 1 rotate no_reflect no_shear #
lump $-1 $-1 $36 $3 #
transform $-1 1 0 0 0 1 0 0 0 1 55.492416150395215 23.257295503151415 7.2475430885549219 1 rotate no_reflect no_shear #
lump $-1 $-1 $37 $4 #
transform $-1 1 0 0 0 1 0 0 0 1 55.492416150395215 23.257295503151415 7.2475430885549219 1 rotate no_reflect no_shear #
lump $-1 $-1 $38 $5 #
transform $-1 1 0 0 0 1 0 0 0 1 55.492416150395215 23.257295503151415 7.2475430885549219 1 rotate no_reflect no_shear #
lump $-1 $-1 $39 $6 #
transform $-1 1 0 0 0 1 0 0 0 1 55.492416150395215 23.257295503151415 7.2475430885549219 1 rotate no_reflect no_shear #
lump $-1 $-1 $40 $7 #
transform $-1 1 0 0 0 1 0 0 0 1 55.492416150395215 23.257295503151415 7.2475430885549219 1 rotate no_reflect no_shear #
lump $-1 $-1 $41 $8 #
transform $-1 1 0 0 0 1 0 0 0 1 55.492416150395215 23.257295503151415 7.2475430885549219 1 rotate no_reflect no_shear #
lump $-1 $-1 $42 $9 #
transform $-1 1 0 0 0 1 0 0 0 1 55.492416150395215 23.257295503151415 7.2475430885549219 1 rotate no_reflect no_shear #
lump $-1 $-1 $43 $10 #
transform $-1 1 0 0 0 1 0 0 0 1 55.492416150395215 23.257295503151415 7.2475430885549219 1 rotate no_reflect no_shear #
shell $-1 $-1 $-1 $44 $-1 $11 #
shell $-1 $-1 $-1 $45 $-1 $13 #
shell $-1 $-1 $-1 $46 $-1 $15 #
shell $-1 $-1 $-1 $47 $-1 $17 #
shell $-1 $-1 $-1 $48 $-1 $19 #
shell $-1 $-1 $-1 $49 $-1 $21 #
shell $-1 $-1 $-1 $50 $-1 $23 #
shell $-1 $-1 $-1 $51 $-1 $25 #
shell $-1 $-1 $-1 $52 $-1 $27 #
shell $-1 $-1 $-1 $53 $-1 $29 #
shell $-1 $-1 $-1 $54 $-1 $31 #
face $-1 $55 $56 $33 $-1 $57 forward single #
face $-1 $58 $59 $34 $-1 $60 forward single #
face $-1 $61 $62 $35 $-1 $63 forward single #
face $-1 $64 $65 $36 $-1 $66 reversed single #
face $-1 $67 $68 $37 $-1 $69 forward single #
face $-1 $70 $71 $38 $-1 $72 forward single #
face $-1 $73 $74 $39 $-1 $75 forward single #
face $-1 $76 $77 $40 $-1 $78 reversed single #
face $-1 $79 $80 $41 $-1 $81 forward single #
face $-1 $82 $83 $42 $-1 $84 forward single #
face $-1 $85 $86 $43 $-1 $87 forward single #
face $-1 $88 $89 $33 $-1 $90 reversed single #
loop $-1 $-1 $91 $44 #
plane-surface $-1 0 0 7.2475430885549219 0 0 1 1 0 0 forward_v I I I I #
face $-1 $92 $93 $34 $-1 $94 reversed single #
loop $-1 $-1 $95 $45 #
plane-surface $-1 0 -19.132002028251286 -0.9793773640925032 0 0 1 1 0 0 forward_v I I I I #
face $-1 $96 $97 $35 $-1 $98 reversed single #
loop $-1 $-1 $99 $46 #
plane-surface $-1 0 19.132002028251289 -0.9793773640925032 0 0 1 1 0 0 forward_v I I I I #
face $-1 $100 $101 $36 $-1 $102 reversed single #
loop $-1 $-1 $103 $47 #
plane-surface $-1 -137.97022090029128 3.5527136788005009e-015 77.115696676001164 0 -1 0 0.74314483375859142 0 -0.66913059716165679 forward_v I I I I #
face $-1 $104 $105 $37 $-1 $106 forward single #
loop $-1 $107 $108 $48 #
cone-surface $-1 -53.091265273679781 -4.8527805035519727 4.6695923347128847 0.74314483375859142 0 -0.66913059716165679 0.3345652985808284 0 0.37157241687929571 1 I I 0 1 0.5 forward I I I I #
face $-1 $109 $110 $38 $-1 $111 forward single #
loop $-1 $112 $113 $49 #
cone-surface $-1 -53.091265273679781 -3.0329878147199807 4.6695923347128847 0.74314483375859142 0 -0.66913059716165679 0.3345652985808284 0 0.37157241687929571 1 I I 0 1 0.5 forward I I I I #
face $-1 $114 $115 $39 $-1 $116 forward single #
loop $-1 $117 $118 $50 #
cone-surface $-1 -53.091265273679781 -1.2131951258879887 4.6695923347128847 0.74314483375859142 0 -0.66913059716165679 0.3345652985808284 0 0.37157241687929571 1 I I 0 1 0.5 forward I I I I #
face $-1 $119 $120 $40 $-1 $121 reversed single #
loop $-1 $-1 $122 $51 #
plane-surface $-1 -55.492416150395229 -3.0329878147199807 2.8523495626869249 -0.74314483375859142 0 0.66913059716165679 0.66913059716165679 0 0.74314483375859142 forward_v I I I I #
face $-1 $123 $124 $41 $-1 $125 forward single #
loop $-1 $126 $127 $52 #
cone-surface $-1 -53.091265273679781 1.2131951258879958 4.6695923347128847 0.74314483375859142 0 -0.66913059716165679 0.3345652985808284 0 0.37157241687929571 1 I I 0 1 0.5 forward I I I I #
face $-1 $128 $129 $42 $-1 $130 forward single #
loop $-1 $131 $132 $53 #
cone-surface $-1 -53.091265273679781 3.0329878147199878 4.6695923347128847 0.74314483375859142 0 -0.66913059716165679 0.3345652985808284 0 0.37157241687929571 1 I I 0 1 0.5 forward I I I I #
face $-1 $133 $134 $43 $-1 $135 forward single #
loop $-1 $136 $137 $54 #
cone-surface $-1 -53.091265273679781 4.8527805035519798 4.6695923347128847 0.74314483375859142 0 -0.66913059716165679 0.3345652985808284 0 0.37157241687929571 1 I I 0 1 0.5 forward I I I I #
face $-1 $138 $139 $33 $-1 $140 reversed single #
loop $-1 $-1 $141 $55 #
plane-surface $-1 0 0 -7.2475430885549219 0 0 1 1 0 0 forward_v I I I I #
coedge $-1 $142 $143 $144 $145 forward $56 $-1 #
face $-1 $146 $147 $34 $-1 $148 reversed single #
loop $-1 $-1 $149 $58 #
plane-surface $-1 0 -19.132002028251286 -4.3217804717431534 0 0 1 1 0 0 forward_v I I I I #
coedge $-1 $150 $151 $152 $153 reversed $59 $-1 #
face $-1 $154 $155 $35 $-1 $156 reversed single #
loop $-1 $-1 $157 $61 #
plane-surface $-1 0 19.132002028251289 -4.3217804717431534 0 0 1 1 0 0 forward_v I I I I #
coedge $-1 $158 $159 $160 $161 reversed $62 $-1 #
face $-1 $162 $163 $36 $-1 $164 reversed single #
loop $-1 $-1 $165 $64 #
plane-surface $-1 -55.492416150395229 -3.0329878147199807 2.8523495626869249 -0.74314483375859142 0 0.66913059716165679 0.66913059716165679 0 0.74314483375859142 forward_v I I I I #
coedge $-1 $166 $167 $168 $169 reversed $65 $-1 #
face $-1 $-1 $170 $37 $-1 $171 forward single #
loop $-1 $172 $173 $67 #
cone-surface $-1 -52.483053152358906 -4.8527805035519727 4.1219556945144316 0.74314483375859142 0 -0.66913059716165679 0.1672826492904142 0 0.18578620843964785 1 I I -0.70710678118654746 0.70710678118654746 0.25 forward I I I I #
loop $-1 $-1 $174 $48 #
coedge $-1 $108 $108 $175 $176 reversed $68 $-1 #
face $-1 $-1 $177 $38 $-1 $178 forward single #
loop $-1 $179 $180 $70 #
cone-surface $-1 -52.483053152358906 -3.0329878147199807 4.1219556945144316 0.74314483375859142 0 -0.66913059716165679 0.1672826492904142 0 0.18578620843964785 1 I I -0.70710678118654746 0.70710678118654746 0.25 forward I I I I #
loop $-1 $-1 $181 $49 #
coedge $-1 $113 $113 $182 $183 reversed $71 $-1 #
face $-1 $-1 $184 $39 $-1 $185 forward single #
loop $-1 $186 $187 $73 #
cone-surface $-1 -52.483053152358906 -1.2131951258879887 4.1219556945144316 0.74314483375859142 0 -0.66913059716165679 0.1672826492904142 0 0.18578620843964785 1 I I -0.70710678118654746 0.70710678118654746 0.25 forward I I I I #
loop $-1 $-1 $188 $50 #
coedge $-1 $118 $118 $189 $190 reversed $74 $-1 #
face $-1 $191 $192 $40 $-1 $193 reversed single #
loop $-1 $-1 $194 $76 #
plane-surface $-1 -137.97022090029128 6.065975629439972 77.115696676001164 0 -1 0 0.74314483375859142 0 -0.66913059716165679 forward_v I I I I #
coedge $-1 $195 $196 $197 $198 reversed $77 $-1 #
face $-1 $-1 $199 $41 $-1 $200 forward single #
loop $-1 $201 $202 $79 #
cone-surface $-1 -52.483053152358906 1.2131951258879958 4.1219556945144316 0.74314483375859142 0 -0.66913059716165679 0.1672826492904142 0 0.18578620843964785 1 I I -0.70710678118654746 0.70710678118654746 0.25 forward I I I I #
loop $-1 $-1 $203 $52 #
coedge $-1 $127 $127 $204 $205 reversed $80 $-1 #
face $-1 $-1 $206 $42 $-1 $207 forward single #
loop $-1 $208 $209 $82 #
cone-surface $-1 -52.483053152358906 3.0329878147199878 4.1219556945144316 0.74314483375859142 0 -0.66913059716165679 0.1672826492904142 0 0.18578620843964785 1 I I -0.70710678118654746 0.70710678118654746 0.25 forward I I I I #
loop $-1 $-1 $210 $53 #
coedge $-1 $132 $132 $211 $212 reversed $83 $-1 #
face $-1 $-1 $213 $43 $-1 $214 forward single #
loop $-1 $215 $216 $85 #
cone-surface $-1 -52.483053152358906 4.8527805035519798 4.1219556945144316 0.74314483375859142 0 -0.66913059716165679 0.1672826492904142 0 0.18578620843964785 1 I I -0.70710678118654746 0.70710678118654746 0.25 forward I I I I #
loop $-1 $-1 $217 $54 #
coedge $-1 $137 $137 $218 $219 reversed $86 $-1 #
face $-1 $220 $221 $33 $-1 $222 reversed single #
loop $-1 $-1 $223 $88 #
plane-surface $-1 0 -23.257295503151415 0 0 1 0 0 0 1 forward_v I I I I #
coedge $-1 $224 $225 $226 $227 forward $89 $-1 #
coedge $-1 $228 $91 $229 $230 forward $56 $-1 #
coedge $-1 $91 $228 $231 $232 forward $56 $-1 #
coedge $-1 $233 $234 $91 $145 reversed $235 $-1 #
edge $-1 $236 -23.257295503151415 $237 23.257295503151415 $144 $238 forward 7 unknown #
face $-1 $239 $240 $34 $-1 $241 reversed single #
loop $-1 $-1 $242 $92 #
plane-surface $-1 0 -15.006708553351157 -2.6505789179178283 0 -1 0 0 0 -1 forward_v I I I I #
coedge $-1 $243 $244 $245 $246 reversed $93 $-1 #
coedge $-1 $247 $95 $248 $249 forward $59 $-1 #
coedge $-1 $95 $247 $250 $251 reversed $59 $-1 #
coedge $-1 $252 $253 $95 $153 forward $254 $-1 #
edge $-1 $255 5.4407075392255138 $256 13.691294489025772 $152 $257 forward 7 unknown #
face $-1 $258 $259 $35 $-1 $260 reversed single #
loop $-1 $-1 $261 $96 #
plane-surface $-1 0 15.00670855335116 -2.6505789179178283 0 1 0 0 0 1 forward_v I I I I #
coedge $-1 $262 $263 $264 $265 reversed $97 $-1 #
coedge $-1 $266 $99 $267 $268 reversed $62 $-1 #
coedge $-1 $99 $266 $269 $270 forward $62 $-1 #
coedge $-1 $271 $272 $99 $161 forward $259 $-1 #
edge $-1 $273 -13.691294489025774 $274 -5.4407075392255155 $160 $275 forward 7 unknown #
face $-1 $276 $277 $36 $-1 $278 reversed single #
loop $-1 $-1 $279 $100 #
plane-surface $-1 -137.97022090029128 -6.0659756294399649 77.115696676001164 0 1 0 -0.74314483375859142 0 0.66913059716165679 forward_v I I I I #
coedge $-1 $280 $281 $282 $283 reversed $101 $-1 #
coedge $-1 $167 $103 $284 $285 reversed $65 $-1 #
coedge $-1 $103 $166 $280 $286 reversed $65 $-1 #
coedge $-1 $282 $287 $103 $169 forward $277 $-1 #
edge $-1 $288 31.310305249445662 $289 35.705498775313643 $168 $290 forward 7 unknown #
loop $-1 $-1 $175 $104 #
plane-surface $-1 -55.492416150395229 -3.0329878147199807 2.8523495626869249 -0.74314483375859142 0 0.66913059716165679 0.66913059716165679 0 0.74314483375859142 forward_v I I I I #
loop $-1 $-1 $291 $67 #
coedge $-1 $173 $173 $174 $292 reversed $105 $-1 #
coedge $-1 $174 $174 $173 $292 forward $107 $-1 #
coedge $-1 $175 $175 $108 $176 forward $170 $-1 #
edge $-1 $293 0 $293 6.2831853071796004 $175 $294 forward 7 unknown #
loop $-1 $-1 $182 $109 #
plane-surface $-1 -55.492416150395229 -3.0329878147199807 2.8523495626869249 -0.74314483375859142 0 0.66913059716165679 0.66913059716165679 0 0.74314483375859142 forward_v I I I I #
loop $-1 $-1 $295 $70 #
coedge $-1 $180 $180 $181 $296 reversed $110 $-1 #
coedge $-1 $181 $181 $180 $296 forward $112 $-1 #
coedge $-1 $182 $182 $113 $183 forward $177 $-1 #
edge $-1 $297 0 $297 6.2831853071796004 $182 $298 forward 7 unknown #
loop $-1 $-1 $189 $114 #
plane-surface $-1 -55.492416150395229 -3.0329878147199807 2.8523495626869249 -0.74314483375859142 0 0.66913059716165679 0.66913059716165679 0 0.74314483375859142 forward_v I I I I #
loop $-1 $-1 $299 $73 #
coedge $-1 $187 $187 $188 $300 reversed $115 $-1 #
coedge $-1 $188 $188 $187 $300 forward $117 $-1 #
coedge $-1 $189 $189 $118 $190 forward $184 $-1 #
edge $-1 $301 0 $301 6.2831853071796004 $189 $302 forward 7 unknown #
face $-1 $303 $304 $40 $-1 $305 forward single #
loop $-1 $-1 $306 $119 #
plane-surface $-1 -55.492416150395215 0 0 1 0 0 0 0 -1 forward_v I I I I #
coedge $-1 $307 $308 $309 $310 reversed $120 $-1 #
coedge $-1 $311 $122 $312 $313 reversed $77 $-1 #
coedge $-1 $122 $311 $314 $315 reversed $77 $-1 #
coedge $-1 $316 $317 $122 $198 forward $304 $-1 #
edge $-1 $318 2.1389731374768986e-014 $319 5.9143161954561361 $197 $320 forward 7 unknown #
loop $-1 $-1 $204 $123 #
plane-surface $-1 -55.492416150395229 -3.0329878147199807 2.8523495626869249 -0.74314483375859142 0 0.66913059716165679 0.66913059716165679 0 0.74314483375859142 forward_v I I I I #
loop $-1 $-1 $321 $79 #
coedge $-1 $202 $202 $203 $322 reversed $124 $-1 #
coedge $-1 $203 $203 $202 $322 forward $126 $-1 #
coedge $-1 $204 $204 $127 $205 forward $199 $-1 #
edge $-1 $323 0 $323 6.2831853071796004 $204 $324 forward 7 unknown #
loop $-1 $-1 $211 $128 #
plane-surface $-1 -55.492416150395229 -3.0329878147199807 2.8523495626869249 -0.74314483375859142 0 0.66913059716165679 0.66913059716165679 0 0.74314483375859142 forward_v I I I I #
loop $-1 $-1 $325 $82 #
coedge $-1 $209 $209 $210 $326 reversed $129 $-1 #
coedge $-1 $210 $210 $209 $326 forward $131 $-1 #
coedge $-1 $211 $211 $132 $212 forward $206 $-1 #
edge $-1 $327 0 $327 6.2831853071796004 $211 $328 forward 7 unknown #
loop $-1 $-1 $218 $133 #
plane-surface $-1 -55.492416150395229 -3.0329878147199807 2.8523495626869249 -0.74314483375859142 0 0.66913059716165679 0.66913059716165679 0 0.74314483375859142 forward_v I I I I #
loop $-1 $-1 $329 $85 #
coedge $-1 $216 $216 $217 $330 reversed $134 $-1 #
coedge $-1 $217 $217 $216 $330 forward $136 $-1 #
coedge $-1 $218 $218 $137 $219 forward $213 $-1 #
edge $-1 $331 0 $331 6.2831853071796004 $218 $332 forward 7 unknown #
face $-1 $333 $334 $33 $-1 $335 reversed single #
loop $-1 $-1 $336 $138 #
plane-surface $-1 -55.492416150395215 0 0 1 0 0 0 0 -1 forward_v I I I I #
coedge $-1 $337 $231 $338 $339 forward $139 $-1 #
coedge $-1 $340 $141 $337 $341 forward $89 $-1 #
coedge $-1 $141 $340 $342 $343 forward $89 $-1 #
coedge $-1 $234 $233 $141 $227 reversed $235 $-1 #
edge $-1 $344 -23.257295503151415 $345 23.257295503151415 $226 $346 forward 7 unknown #
coedge $-1 $143 $142 $347 $348 forward $56 $-1 #
coedge $-1 $349 $350 $142 $230 reversed $334 $-1 #
edge $-1 $237 -55.492416150395215 $351 55.492416150395215 $229 $352 forward 7 unknown #
coedge $-1 $223 $353 $143 $232 reversed $139 $-1 #
edge $-1 $354 -55.492416150395215 $236 55.492416150395215 $231 $355 forward 7 unknown #
coedge $-1 $226 $144 $353 $356 forward $235 $-1 #
coedge $-1 $144 $226 $349 $357 reversed $235 $-1 #
loop $-1 $-1 $233 $333 #
vertex $-1 $145 $358 #
vertex $-1 $145 $359 #
straight-curve $-1 55.492416150395215 0 7.2475430885549219 0 1 0 I I #
face $-1 $360 $361 $34 $-1 $362 reversed single #
loop $-1 $-1 $363 $146 #
plane-surface $-1 -55.492416150395215 0 0 1 0 0 0 0 -1 forward_v I I I I #
coedge $-1 $364 $248 $253 $365 reversed $147 $-1 #
coedge $-1 $366 $149 $367 $368 reversed $93 $-1 #
coedge $-1 $149 $366 $364 $369 forward $93 $-1 #
coedge $-1 $253 $252 $149 $246 forward $254 $-1 #
edge $-1 $370 -13.691294489025772 $371 -5.4407075392255138 $245 $372 forward 7 unknown #
coedge $-1 $151 $150 $363 $373 reversed $59 $-1 #
coedge $-1 $242 $374 $150 $249 reversed $147 $-1 #
edge $-1 $255 -55.492416150395215 $375 55.492416150395215 $248 $376 forward 7 unknown #
coedge $-1 $377 $378 $151 $251 forward $361 $-1 #
edge $-1 $256 -55.492416150395215 $379 55.492416150395215 $250 $380 forward 7 unknown #
coedge $-1 $245 $152 $378 $381 forward $254 $-1 #
coedge $-1 $152 $245 $242 $365 forward $254 $-1 #
loop $-1 $-1 $152 $360 #
vertex $-1 $153 $382 #
vertex $-1 $381 $383 #
straight-curve $-1 55.492416150395215 -9.5660010141256429 -0.9793773640925032 0 -1 0 I I #
face $-1 $384 $385 $35 $-1 $386 reversed single #
loop $-1 $-1 $160 $154 #
plane-surface $-1 55.492416150395215 0 0 -1 0 0 0 0 1 forward_v I I I I #
coedge $-1 $387 $269 $388 $389 reversed $155 $-1 #
coedge $-1 $390 $157 $387 $391 forward $97 $-1 #
coedge $-1 $157 $390 $392 $393 reversed $97 $-1 #
coedge $-1 $272 $271 $157 $265 forward $259 $-1 #
edge $-1 $394 5.4407075392255155 $395 13.691294489025774 $264 $396 forward 7 unknown #
coedge $-1 $159 $158 $397 $398 reversed $62 $-1 #
coedge $-1 $399 $400 $158 $268 forward $401 $-1 #
edge $-1 $402 -55.492416150395215 $273 55.492416150395215 $267 $403 forward 7 unknown #
coedge $-1 $261 $404 $159 $270 reversed $155 $-1 #
edge $-1 $405 -55.492416150395215 $274 55.492416150395215 $269 $406 forward 7 unknown #
coedge $-1 $264 $160 $404 $407 forward $259 $-1 #
coedge $-1 $160 $264 $399 $408 reversed $259 $-1 #
vertex $-1 $408 $409 #
vertex $-1 $161 $410 #
straight-curve $-1 55.492416150395215 9.5660010141256446 -0.9793773640925032 0 -1 0 I I #
face $-1 $-1 $411 $36 $-1 $412 forward single #
loop $-1 $-1 $168 $162 #
plane-surface $-1 -55.492416150395215 0 0 1 0 0 0 0 -1 forward_v I I I I #
coedge $-1 $413 $414 $415 $416 reversed $163 $-1 #
coedge $-1 $417 $165 $167 $286 forward $101 $-1 #
coedge $-1 $165 $417 $413 $418 forward $101 $-1 #
coedge $-1 $415 $168 $165 $283 forward $277 $-1 #
edge $-1 $289 -1.5164939073599939 $419 4.5494817220799746 $282 $420 forward 7 unknown #
coedge $-1 $421 $422 $166 $285 forward $411 $-1 #
edge $-1 $423 -17.450144227418832 $288 -13.492694299750426 $284 $424 forward 7 unknown #
edge $-1 $289 2.1389731374768986e-014 $423 5.9143161954561361 $167 $425 forward 7 unknown #
coedge $-1 $168 $415 $421 $426 reversed $277 $-1 #
vertex $-1 $426 $427 #
vertex $-1 $169 $428 #
straight-curve $-1 -55.492416150395215 3.5527136788005009e-015 38.557848338000582 0 0 -1 I I #
coedge $-1 $291 $291 $-1 $429 reversed $172 $-1 #
edge $-1 $430 0 $430 6.2831853071796004 $173 $431 forward 7 unknown #
vertex $-1 $176 $432 #
ellipse-curve $-1 -53.513691186561012 -4.8527805035519727 5.0499463256209296 -0.74314483375859142 0 0.66913059716165679 0.3345652985808284 0 0.37157241687929571 1 I I #
coedge $-1 $295 $295 $-1 $433 reversed $179 $-1 #
edge $-1 $434 0 $434 6.2831853071796004 $180 $435 forward 7 unknown #
vertex $-1 $183 $436 #
ellipse-curve $-1 -53.513691186561012 -3.0329878147199807 5.0499463256209296 -0.74314483375859142 0 0.66913059716165679 0.3345652985808284 0 0.37157241687929571 1 I I #
coedge $-1 $299 $299 $-1 $437 reversed $186 $-1 #
edge $-1 $438 0 $438 6.2831853071796004 $187 $439 forward 7 unknown #
vertex $-1 $190 $440 #
ellipse-curve $-1 -53.513691186561012 -1.2131951258879887 5.0499463256209296 -0.74314483375859142 0 0.66913059716165679 0.3345652985808284 0 0.37157241687929571 1 I I #
face $-1 $-1 $441 $40 $-1 $442 forward single #
loop $-1 $-1 $317 $191 #
plane-surface $-1 -137.97022090029128 3.5527136788005009e-015 77.115696676001164 0 -1 0 0.74314483375859142 0 -0.66913059716165679 forward_v I I I I #
coedge $-1 $312 $443 $308 $444 forward $192 $-1 #
coedge $-1 $308 $194 $311 $445 reversed $120 $-1 #
coedge $-1 $194 $307 $306 $444 reversed $120 $-1 #
coedge $-1 $446 $314 $194 $310 forward $441 $-1 #
edge $-1 $447 -17.450144227418832 $448 -13.492694299750426 $309 $449 forward 7 unknown #
coedge $-1 $196 $195 $307 $445 forward $77 $-1 #
coedge $-1 $450 $306 $195 $313 forward $192 $-1 #
edge $-1 $451 -7.5824695367999624 $318 -1.5164939073599939 $312 $452 forward 7 unknown #
coedge $-1 $309 $453 $196 $315 forward $441 $-1 #
edge $-1 $319 1.5164939073599939 $447 7.5824695367999624 $314 $454 forward 7 unknown #
coedge $-1 $317 $197 $453 $455 reversed $304 $-1 #
coedge $-1 $197 $316 $450 $456 reversed $304 $-1 #
vertex $-1 $313 $457 #
vertex $-1 $315 $458 #
straight-curve $-1 -55.492416150395229 3.5527136788005009e-015 2.8523495626869249 0.66913059716165679 0 0.74314483375859142 I I #
coedge $-1 $321 $321 $-1 $459 reversed $201 $-1 #
edge $-1 $460 0 $460 6.2831853071796004 $202 $461 forward 7 unknown #
vertex $-1 $205 $462 #
ellipse-curve $-1 -53.513691186561012 1.2131951258879958 5.0499463256209296 -0.74314483375859142 0 0.66913059716165679 0.3345652985808284 0 0.37157241687929571 1 I I #
coedge $-1 $325 $325 $-1 $463 reversed $208 $-1 #
edge $-1 $464 0 $464 6.2831853071796004 $209 $465 forward 7 unknown #
vertex $-1 $212 $466 #
ellipse-curve $-1 -53.513691186561012 3.0329878147199878 5.0499463256209296 -0.74314483375859142 0 0.66913059716165679 0.3345652985808284 0 0.37157241687929571 1 I I #
coedge $-1 $329 $329 $-1 $467 reversed $215 $-1 #
edge $-1 $468 0 $468 6.2831853071796004 $216 $469 forward 7 unknown #
vertex $-1 $219 $470 #
ellipse-curve $-1 -53.513691186561012 4.8527805035519798 5.0499463256209296 -0.74314483375859142 0 0.66913059716165679 0.3345652985808284 0 0.37157241687929571 1 I I #
face $-1 $-1 $235 $33 $-1 $471 reversed single #
loop $-1 $-1 $349 $220 #
plane-surface $-1 0 23.257295503151415 0 0 -1 0 0 0 -1 forward_v I I I I #
coedge $-1 $472 $347 $350 $473 forward $221 $-1 #
coedge $-1 $353 $223 $224 $341 reversed $139 $-1 #
coedge $-1 $347 $472 $223 $339 reversed $221 $-1 #
edge $-1 $354 -7.2475430885549219 $474 7.2475430885549219 $338 $475 forward 7 unknown #
coedge $-1 $225 $224 $472 $476 forward $89 $-1 #
edge $-1 $345 -55.492416150395215 $474 55.492416150395215 $337 $477 forward 7 unknown #
coedge $-1 $350 $349 $225 $343 reversed $334 $-1 #
edge $-1 $478 -55.492416150395215 $344 55.492416150395215 $342 $479 forward 7 unknown #
vertex $-1 $227 $480 #
vertex $-1 $356 $481 #
straight-curve $-1 55.492416150395215 0 -7.2475430885549219 0 -1 0 I I #
coedge $-1 $336 $338 $228 $348 reversed $221 $-1 #
edge $-1 $351 -23.257295503151415 $354 23.257295503151415 $347 $482 forward 7 unknown #
coedge $-1 $342 $229 $234 $357 forward $334 $-1 #
coedge $-1 $229 $342 $336 $473 reversed $334 $-1 #
vertex $-1 $230 $483 #
straight-curve $-1 0 23.257295503151415 7.2475430885549219 -1 0 0 I I #
coedge $-1 $231 $337 $233 $356 reversed $139 $-1 #
vertex $-1 $348 $484 #
straight-curve $-1 0 -23.257295503151415 7.2475430885549219 1 0 0 I I #
edge $-1 $236 -7.2475430885549219 $345 7.2475430885549219 $233 $485 forward 7 unknown #
edge $-1 $237 -7.2475430885549219 $344 7.2475430885549219 $234 $486 forward 7 unknown #
point $-1 55.492416150395215 -23.257295503151415 7.2475430885549219 #
point $-1 55.492416150395215 23.257295503151415 7.2475430885549219 #
face $-1 $-1 $254 $34 $-1 $487 reversed single #
loop $-1 $-1 $250 $239 #
plane-surface $-1 0 -23.257295503151415 0 0 1 0 0 0 1 forward_v I I I I #
coedge $-1 $488 $489 $247 $373 forward $240 $-1 #
coedge $-1 $374 $242 $244 $369 reversed $147 $-1 #
edge $-1 $371 -2.9964910127842392 $255 0.34591209486641095 $253 $490 forward 7 unknown #
coedge $-1 $244 $243 $491 $492 reversed $93 $-1 #
coedge $-1 $378 $377 $243 $368 forward $361 $-1 #
edge $-1 $493 -55.492416150395215 $370 55.492416150395215 $367 $494 forward 7 unknown #
edge $-1 $495 -55.492416150395215 $371 55.492416150395215 $364 $496 forward 7 unknown #
vertex $-1 $368 $497 #
vertex $-1 $246 $498 #
straight-curve $-1 55.492416150395215 -9.5660010141256429 -4.3217804717431534 0 1 0 I I #
edge $-1 $379 -13.691294489025772 $375 -5.4407075392255138 $363 $499 forward 7 unknown #
coedge $-1 $248 $364 $488 $500 reversed $147 $-1 #
vertex $-1 $373 $501 #
straight-curve $-1 0 -15.006708553351157 -0.9793773640925032 -1 0 0 I I #
coedge $-1 $367 $250 $489 $502 forward $361 $-1 #
coedge $-1 $250 $367 $252 $381 reversed $361 $-1 #
vertex $-1 $502 $503 #
straight-curve $-1 0 -23.257295503151415 -0.9793773640925032 -1 0 0 I I #
edge $-1 $256 0.9793773640925032 $370 4.3217804717431534 $252 $504 forward 7 unknown #
point $-1 55.492416150395215 -15.006708553351157 -0.9793773640925032 #
point $-1 55.492416150395215 -23.257295503151415 -0.9793773640925032 #
face $-1 $-1 $401 $35 $-1 $505 reversed single #
loop $-1 $-1 $397 $258 #
plane-surface $-1 -55.492416150395215 0 0 1 0 0 0 0 -1 forward_v I I I I #
coedge $-1 $404 $261 $262 $391 reversed $155 $-1 #
coedge $-1 $397 $506 $261 $389 forward $385 $-1 #
edge $-1 $507 -2.9964910127842392 $405 0.34591209486641095 $388 $508 forward 7 unknown #
coedge $-1 $263 $262 $506 $509 reversed $97 $-1 #
edge $-1 $394 -55.492416150395215 $507 55.492416150395215 $387 $510 forward 7 unknown #
coedge $-1 $400 $399 $263 $393 forward $401 $-1 #
edge $-1 $395 -55.492416150395215 $511 55.492416150395215 $392 $512 forward 7 unknown #
vertex $-1 $265 $513 #
vertex $-1 $393 $514 #
straight-curve $-1 55.492416150395215 9.5660010141256446 -4.3217804717431534 0 1 0 I I #
coedge $-1 $515 $388 $266 $398 forward $385 $-1 #
edge $-1 $405 5.4407075392255155 $402 13.691294489025774 $397 $516 forward 7 unknown #
coedge $-1 $392 $267 $272 $408 forward $401 $-1 #
coedge $-1 $267 $392 $515 $517 reversed $401 $-1 #
loop $-1 $-1 $267 $384 #
vertex $-1 $517 $518 #
straight-curve $-1 0 23.257295503151415 -0.9793773640925032 1 0 0 I I #
coedge $-1 $269 $387 $271 $407 reversed $155 $-1 #
vertex $-1 $398 $519 #
straight-curve $-1 0 15.00670855335116 -0.9793773640925032 1 0 0 I I #
edge $-1 $274 -0.34591209486641095 $394 2.9964910127842392 $271 $520 forward 7 unknown #
edge $-1 $273 0.9793773640925032 $395 4.3217804717431534 $272 $521 forward 7 unknown #
point $-1 55.492416150395215 23.257295503151418 -0.9793773640925032 #
point $-1 55.492416150395215 15.00670855335116 -0.9793773640925032 #
loop $-1 $-1 $284 $276 #
plane-surface $-1 0 0 7.2475430885549219 0 0 1 1 0 0 forward_v I I I I #
coedge $-1 $414 $279 $281 $418 reversed $163 $-1 #
coedge $-1 $279 $413 $522 $523 reversed $163 $-1 #
coedge $-1 $287 $282 $279 $416 forward $277 $-1 #
edge $-1 $419 -35.705498775313643 $524 -31.310305249445662 $415 $525 forward 7 unknown #
coedge $-1 $281 $280 $422 $526 reversed $101 $-1 #
edge $-1 $527 -5.9143161954561361 $419 -2.1389731374768986e-014 $413 $528 forward 7 unknown #
vertex $-1 $283 $529 #
straight-curve $-1 -55.492416150395215 -1.5164939073599903 2.8523495626869426 0 -1 0 I I #
coedge $-1 $522 $284 $287 $426 forward $411 $-1 #
coedge $-1 $284 $522 $417 $526 forward $411 $-1 #
vertex $-1 $285 $530 #
straight-curve $-1 -68.98511045014564 3.5527136788005009e-015 7.2475430885549201 -1 0 0 I I #
straight-curve $-1 -55.492416150395229 3.5527136788005009e-015 2.8523495626869249 0.66913059716165679 0 0.74314483375859142 I I #
edge $-1 $288 -3.5527136788005009e-015 $524 6.0659756294399649 $287 $531 forward 7 unknown #
point $-1 -55.492416150395215 3.5527136788005009e-015 7.2475430885549219 #
point $-1 -55.492416150395215 3.5527136788005009e-015 2.8523495626869408 #
edge $-1 $532 1 $532 0 $291 $-1 forward 7 unknown #
vertex $-1 $292 $533 #
ellipse-curve $-1 -52.66883936079855 -4.8527805035519727 4.289238343804846 -0.74314483375859142 0 0.66913059716165679 0.3345652985808284 0 0.37157241687929571 1 I I #
point $-1 -53.179125887980177 -4.8527805035519727 5.4215187425002203 #
edge $-1 $534 1 $534 0 $295 $-1 forward 7 unknown #
vertex $-1 $296 $535 #
ellipse-curve $-1 -52.66883936079855 -3.0329878147199807 4.289238343804846 -0.74314483375859142 0 0.66913059716165679 0.3345652985808284 0 0.37157241687929571 1 I I #
point $-1 -53.179125887980177 -3.0329878147199807 5.4215187425002203 #
edge $-1 $536 1 $536 0 $299 $-1 forward 7 unknown #
vertex $-1 $300 $537 #
ellipse-curve $-1 -52.66883936079855 -1.2131951258879887 4.289238343804846 -0.74314483375859142 0 0.66913059716165679 0.3345652985808284 0 0.37157241687929571 1 I I #
point $-1 -53.179125887980177 -1.2131951258879887 5.4215187425002203 #
loop $-1 $-1 $309 $303 #
plane-surface $-1 0 0 7.2475430885549219 0 0 1 1 0 0 forward_v I I I I #
coedge $-1 $306 $450 $446 $538 reversed $192 $-1 #
edge $-1 $448 31.310305249445662 $451 35.705498775313643 $306 $539 forward 7 unknown #
edge $-1 $451 2.1389731374768986e-014 $447 5.9143161954561361 $307 $540 forward 7 unknown #
coedge $-1 $453 $309 $443 $538 forward $441 $-1 #
vertex $-1 $310 $541 #
vertex $-1 $538 $542 #
straight-curve $-1 -68.98511045014564 6.065975629439972 7.2475430885549201 -1 0 0 I I #
coedge $-1 $443 $312 $317 $456 forward $192 $-1 #
vertex $-1 $444 $543 #
straight-curve $-1 -55.492416150395215 -1.5164939073599903 2.8523495626869426 0 -1 0 I I #
coedge $-1 $314 $446 $316 $455 forward $441 $-1 #
straight-curve $-1 -51.534966222726794 -1.5164939073599903 7.2475430885549219 0 1 0 I I #
edge $-1 $544 13.492694299750426 $319 17.450144227418832 $453 $545 forward 7 unknown #
edge $-1 $318 -35.705498775313643 $544 -31.310305249445662 $450 $546 forward 7 unknown #
point $-1 -55.492416150395215 3.5527136788005009e-015 2.8523495626869408 #
point $-1 -51.534966222726808 3.5527136788005009e-015 7.2475430885549219 #
edge $-1 $547 1 $547 0 $321 $-1 forward 7 unknown #
vertex $-1 $322 $548 #
ellipse-curve $-1 -52.66883936079855 1.2131951258879958 4.289238343804846 -0.74314483375859142 0 0.66913059716165679 0.3345652985808284 0 0.37157241687929571 1 I I #
point $-1 -53.179125887980177 1.2131951258879958 5.4215187425002203 #
edge $-1 $549 1 $549 0 $325 $-1 forward 7 unknown #
vertex $-1 $326 $550 #
ellipse-curve $-1 -52.66883936079855 3.0329878147199878 4.289238343804846 -0.74314483375859142 0 0.66913059716165679 0.3345652985808284 0 0.37157241687929571 1 I I #
point $-1 -53.179125887980177 3.0329878147199878 5.4215187425002203 #
edge $-1 $551 1 $551 0 $329 $-1 forward 7 unknown #
vertex $-1 $330 $552 #
ellipse-curve $-1 -52.66883936079855 4.8527805035519798 4.289238343804846 -0.74314483375859142 0 0.66913059716165679 0.3345652985808284 0 0.37157241687929571 1 I I #
point $-1 -53.179125887980177 4.8527805035519798 5.4215187425002203 #
plane-surface $-1 55.492416150395215 0 0 -1 0 0 0 0 1 forward_v I I I I #
coedge $-1 $338 $336 $340 $476 reversed $221 $-1 #
edge $-1 $351 -7.2475430885549219 $478 7.2475430885549219 $350 $553 forward 7 unknown #
vertex $-1 $476 $554 #
straight-curve $-1 -55.492416150395215 -23.257295503151415 0 0 0 -1 I I #
edge $-1 $474 -23.257295503151415 $478 23.257295503151415 $472 $555 forward 7 unknown #
straight-curve $-1 0 -23.257295503151415 -7.2475430885549219 -1 0 0 I I #
vertex $-1 $343 $556 #
straight-curve $-1 0 23.257295503151415 -7.2475430885549219 1 0 0 I I #
point $-1 55.492416150395215 23.257295503151415 -7.2475430885549219 #
point $-1 55.492416150395215 -23.257295503151415 -7.2475430885549219 #
straight-curve $-1 -55.492416150395215 0 7.2475430885549219 0 -1 0 I I #
point $-1 -55.492416150395215 23.257295503151415 7.2475430885549219 #
point $-1 -55.492416150395215 -23.257295503151415 7.2475430885549219 #
straight-curve $-1 55.492416150395215 -23.257295503151415 0 0 0 -1 I I #
straight-curve $-1 55.492416150395215 23.257295503151415 0 0 0 -1 I I #
plane-surface $-1 55.492416150395215 0 0 -1 0 0 0 0 1 forward_v I I I I #
coedge $-1 $491 $363 $374 $500 forward $240 $-1 #
coedge $-1 $363 $491 $377 $502 reversed $240 $-1 #
straight-curve $-1 55.492416150395215 -15.006708553351157 -1.3252894589589141 0 0 1 I I #
coedge $-1 $489 $488 $366 $492 forward $240 $-1 #
edge $-1 $495 5.4407075392255138 $493 13.691294489025772 $491 $557 forward 7 unknown #
vertex $-1 $368 $558 #
straight-curve $-1 0 -23.257295503151415 -4.3217804717431534 1 0 0 I I #
vertex $-1 $492 $559 #
straight-curve $-1 0 -15.006708553351157 -4.3217804717431534 1 0 0 I I #
point $-1 55.492416150395215 -23.257295503151415 -4.3217804717431534 #
point $-1 55.492416150395215 -15.006708553351157 -4.3217804717431534 #
straight-curve $-1 -55.492416150395215 -9.5660010141256429 -0.9793773640925032 0 1 0 I I #
edge $-1 $375 -0.34591209486641095 $495 2.9964910127842392 $488 $560 forward 7 unknown #
point $-1 -55.492416150395215 -15.006708553351157 -0.9793773640925032 #
edge $-1 $379 0.9793773640925032 $493 4.3217804717431534 $489 $561 forward 7 unknown #
point $-1 -55.492416150395215 -23.257295503151415 -0.9793773640925032 #
straight-curve $-1 55.492416150395215 -23.257295503151415 0 0 0 -1 I I #
plane-surface $-1 0 23.257295503151415 0 0 -1 0 0 0 -1 forward_v I I I I #
coedge $-1 $388 $515 $390 $509 forward $385 $-1 #
vertex $-1 $509 $562 #
straight-curve $-1 -55.492416150395215 15.00670855335116 -1.3252894589589141 0 0 1 I I #
edge $-1 $511 -13.691294489025774 $507 -5.4407075392255155 $506 $563 forward 7 unknown #
straight-curve $-1 0 15.00670855335116 -4.3217804717431534 -1 0 0 I I #
vertex $-1 $393 $564 #
straight-curve $-1 0 23.257295503151415 -4.3217804717431534 -1 0 0 I I #
point $-1 55.492416150395215 15.00670855335116 -4.3217804717431534 #
point $-1 55.492416150395215 23.257295503151418 -4.3217804717431534 #
coedge $-1 $506 $397 $400 $517 forward $385 $-1 #
straight-curve $-1 -55.492416150395215 9.5660010141256446 -0.9793773640925032 0 1 0 I I #
edge $-1 $402 0.9793773640925032 $511 4.3217804717431534 $400 $565 forward 7 unknown #
point $-1 -55.492416150395215 23.257295503151418 -0.9793773640925032 #
point $-1 -55.492416150395215 15.00670855335116 -0.9793773640925032 #
straight-curve $-1 55.492416150395215 15.00670855335116 -1.3252894589589141 0 0 -1 I I #
straight-curve $-1 55.492416150395215 23.257295503151415 0 0 0 -1 I I #
coedge $-1 $422 $421 $414 $523 forward $411 $-1 #
edge $-1 $524 13.492694299750426 $527 17.450144227418832 $522 $566 forward 7 unknown #
vertex $-1 $523 $567 #
straight-curve $-1 -55.492416150395215 -6.0659756294399649 38.557848338000582 0 0 1 I I #
edge $-1 $527 -4.5494817220799746 $423 1.5164939073599939 $422 $568 forward 7 unknown #
vertex $-1 $526 $569 #
straight-curve $-1 -55.492416150395229 -6.0659756294399649 2.8523495626869249 -0.66913059716165679 0 -0.74314483375859142 I I #
point $-1 -55.492416150395215 -6.0659756294399649 2.8523495626869408 #
point $-1 -51.534966222726808 3.5527136788005009e-015 7.2475430885549219 #
straight-curve $-1 -55.492416150395215 0 7.2475430885549219 0 -1 0 I I #
vertex $-1 $429 $570 #
point $-1 -52.334274062217723 -4.8527805035519727 4.6608107606841411 #
vertex $-1 $433 $571 #
point $-1 -52.334274062217723 -3.0329878147199807 4.6608107606841411 #
vertex $-1 $437 $572 #
point $-1 -52.334274062217723 -1.2131951258879887 4.6608107606841411 #
edge $-1 $448 -6.065975629439972 $544 -3.5527136788005009e-015 $443 $573 forward 7 unknown #
straight-curve $-1 -55.492416150395215 6.065975629439972 38.557848338000582 0 0 -1 I I #
straight-curve $-1 -55.492416150395229 6.065975629439972 2.8523495626869249 0.66913059716165679 0 0.74314483375859142 I I #
point $-1 -51.534966222726808 6.065975629439972 7.2475430885549219 #
point $-1 -55.492416150395215 6.065975629439972 7.2475430885549219 #
point $-1 -55.492416150395215 6.065975629439972 2.8523495626869408 #
vertex $-1 $455 $574 #
straight-curve $-1 -68.98511045014564 3.5527136788005009e-015 7.2475430885549201 1 0 0 I I #
straight-curve $-1 -55.492416150395215 3.5527136788005009e-015 38.557848338000582 0 0 1 I I #
vertex $-1 $459 $575 #
point $-1 -52.334274062217723 1.2131951258879958 4.6608107606841411 #
vertex $-1 $463 $576 #
point $-1 -52.334274062217723 3.0329878147199878 4.6608107606841411 #
vertex $-1 $467 $577 #
point $-1 -52.334274062217723 4.8527805035519798 4.6608107606841411 #
straight-curve $-1 -55.492416150395215 23.257295503151415 0 0 0 -1 I I #
point $-1 -55.492416150395215 -23.257295503151415 -7.2475430885549219 #
straight-curve $-1 -55.492416150395215 0 -7.2475430885549219 0 1 0 I I #
point $-1 -55.492416150395215 23.257295503151415 -7.2475430885549219 #
straight-curve $-1 -55.492416150395215 -9.5660010141256429 -4.3217804717431534 0 -1 0 I I #
point $-1 -55.492416150395215 -23.257295503151415 -4.3217804717431534 #
point $-1 -55.492416150395215 -15.006708553351157 -4.3217804717431534 #
straight-curve $-1 -55.492416150395215 -15.006708553351157 -1.3252894589589141 0 0 -1 I I #
straight-curve $-1 -55.492416150395215 -23.257295503151415 0 0 0 -1 I I #
point $-1 -55.492416150395215 15.00670855335116 -4.3217804717431534 #
straight-curve $-1 -55.492416150395215 9.5660010141256446 -4.3217804717431534 0 -1 0 I I #
point $-1 -55.492416150395215 23.257295503151418 -4.3217804717431534 #
straight-curve $-1 -55.492416150395215 23.257295503151415 0 0 0 -1 I I #
straight-curve $-1 -68.98511045014564 -6.0659756294399649 7.2475430885549201 1 0 0 I I #
point $-1 -55.492416150395215 -6.0659756294399649 7.2475430885549219 #
straight-curve $-1 -51.534966222726794 -1.5164939073599903 7.2475430885549219 0 1 0 I I #
point $-1 -51.534966222726808 -6.0659756294399649 7.2475430885549219 #
point $-1 -52.297266943919261 -4.8527805035519727 3.9546730452240175 #
point $-1 -52.297266943919261 -3.0329878147199807 3.9546730452240175 #
point $-1 -52.297266943919261 -1.2131951258879887 3.9546730452240175 #
straight-curve $-1 -55.492416150395215 0 7.2475430885549219 0 -1 0 I I #
point $-1 -55.492416150395215 3.5527136788005009e-015 7.2475430885549219 #
point $-1 -52.297266943919261 1.2131951258879958 3.9546730452240175 #
point $-1 -52.297266943919261 3.0329878147199878 3.9546730452240175 #
point $-1 -52.297266943919261 4.8527805035519798 3.9546730452240175 #
End-of-ACIS-data 