500 0 5 0           
7 Unknown 11 ACIS 5.0 NT 24 Thu Mar 25 23:34:42 1999 
-1 9.9999999999999995e-007 1e-010 
body $-1 $5 $-1 $6 #
body $-1 $7 $-1 $8 #
body $-1 $9 $-1 $10 #
body $-1 $11 $-1 $12 #
body $-1 $13 $-1 $14 #
lump $-1 $-1 $15 $0 #
transform $-1 1 0 0 0 1 0 0 0 1 69.974059266945403 46.827331510531288 14.031764799014327 1 rotate no_reflect no_shear #
lump $-1 $-1 $16 $1 #
transform $-1 1 0 0 0 1 0 0 0 1 69.974059266945403 46.827331510531288 14.031764799014327 1 rotate no_reflect no_shear #
lump $-1 $-1 $17 $2 #
transform $-1 1 0 0 0 1 0 0 0 1 69.974059266945403 46.827331510531288 14.031764799014327 1 rotate no_reflect no_shear #
lump $-1 $-1 $18 $3 #
transform $-1 1 0 0 0 1 0 0 0 1 69.974059266945403 46.827331510531288 14.031764799014327 1 rotate no_reflect no_shear #
lump $-1 $-1 $19 $4 #
transform $-1 1 0 0 0 1 0 0 0 1 69.974059266945403 46.827331510531288 14.031764799014327 1 rotate no_reflect no_shear #
shell $-1 $-1 $-1 $20 $-1 $5 #
shell $-1 $-1 $-1 $21 $-1 $7 #
shell $-1 $-1 $-1 $22 $-1 $9 #
shell $-1 $-1 $-1 $23 $-1 $11 #
shell $-1 $-1 $-1 $24 $-1 $13 #
face $-1 $25 $26 $15 $-1 $27 forward single #
face $-1 $28 $29 $16 $-1 $30 forward single #
face $-1 $31 $32 $17 $-1 $33 forward single #
face $-1 $34 $35 $18 $-1 $36 reversed single #
face $-1 $37 $38 $19 $-1 $39 reversed single #
face $-1 $40 $41 $15 $-1 $42 reversed single #
loop $-1 $-1 $43 $20 #
plane-surface $-1 0 0 14.031764799014327 0 0 1 1 0 0 forward_v I I I I #
face $-1 $44 $45 $16 $-1 $46 forward single #
loop $-1 $-1 $47 $21 #
plane-surface $-1 -65.113232747848144 -35.36363450163536 0 0 1 0 0 0 1 forward_v I I I I #
face $-1 $48 $49 $17 $-1 $50 forward single #
loop $-1 $-1 $51 $22 #
plane-surface $-1 35.427156915033599 -154.03381119807415 94.849110843084517 -1 0 0 0 -0.7660444514056185 0.64278759981090561 forward_v I I I I #
face $-1 $52 $53 $18 $-1 $54 reversed single #
loop $-1 $55 $56 $23 #
cone-surface $-1 13.001501977436277 -40.922394783189404 7.7246813076612515 0 0.7660444514056185 -0.64278759981090561 2.5 0 0 1 I I 0 1 2.5 forward I I I I #
face $-1 $57 $58 $19 $-1 $59 reversed single #
loop $-1 $60 $61 $24 #
cone-surface $-1 26.456894939994669 -40.922394783189404 7.7246813076612515 0 0.7660444514056185 -0.64278759981090561 2.5 0 0 1 I I 0 1 2.5 forward I I I I #
face $-1 $62 $63 $15 $-1 $64 reversed single #
loop $-1 $-1 $65 $25 #
plane-surface $-1 0 0 -14.031764799014327 0 0 1 1 0 0 forward_v I I I I #
coedge $-1 $66 $67 $68 $69 forward $26 $-1 #
face $-1 $70 $71 $16 $-1 $72 forward single #
loop $-1 $-1 $73 $28 #
plane-surface $-1 -65.113232747848144 -29.679071831845771 0 0 -1 0 0 0 -1 forward_v I I I I #
coedge $-1 $74 $75 $76 $77 reversed $29 $-1 #
face $-1 $78 $79 $17 $-1 $80 forward single #
loop $-1 $-1 $81 $31 #
plane-surface $-1 19.729198458715473 -46.827331510531295 4.8921956326327347 0 -0.7660444514056185 0.64278759981090561 1 0 0 forward_v I I I I #
coedge $-1 $82 $83 $84 $85 reversed $32 $-1 #
face $-1 $86 $87 $18 $-1 $88 forward single #
loop $-1 $89 $90 $34 #
cone-surface $-1 13.001501977436277 -37.894406949513581 5.1838978997353369 0 0.7660444514056185 -0.64278759981090561 1.25 0 0 1 I I -0.70710678118654746 0.70710678118654746 1.25 forward I I I I #
loop $-1 $-1 $91 $23 #
coedge $-1 $56 $56 $92 $93 reversed $35 $-1 #
face $-1 $94 $95 $19 $-1 $96 reversed single #
loop $-1 $97 $98 $37 #
cone-surface $-1 26.456894939994669 -37.894406949513581 5.1838978997353369 0 0.7660444514056185 -0.64278759981090561 1.25 0 0 1 I I -0.70710678118654746 0.70710678118654746 1.25 forward I I I I #
loop $-1 $-1 $99 $24 #
coedge $-1 $61 $61 $100 $101 reversed $38 $-1 #
face $-1 $102 $103 $15 $-1 $104 reversed single #
loop $-1 $-1 $105 $40 #
plane-surface $-1 0 -46.827331510531288 0 0 1 0 0 0 1 forward_v I I I I #
coedge $-1 $106 $107 $108 $109 forward $41 $-1 #
coedge $-1 $110 $43 $111 $112 forward $26 $-1 #
coedge $-1 $43 $110 $113 $114 forward $26 $-1 #
coedge $-1 $115 $116 $43 $69 reversed $117 $-1 #
edge $-1 $118 -46.827331510531288 $119 46.827331510531288 $68 $120 forward 7 unknown #
face $-1 $121 $122 $16 $-1 $123 forward single #
loop $-1 $-1 $124 $44 #
plane-surface $-1 -60.252406228750893 -32.521353166740568 0 -1 0 0 0 0 1 forward_v I I I I #
coedge $-1 $125 $126 $127 $128 reversed $45 $-1 #
coedge $-1 $129 $47 $130 $131 reversed $29 $-1 #
coedge $-1 $47 $129 $132 $133 reversed $29 $-1 #
coedge $-1 $134 $135 $47 $77 forward $136 $-1 #
edge $-1 $137 -14.031764799014327 $138 14.031764799014327 $76 $139 forward 7 unknown #
face $-1 $140 $141 $17 $-1 $142 forward single #
loop $-1 $-1 $143 $48 #
plane-surface $-1 4.0312400023973467 -154.03381119807415 94.849110843084517 1 0 0 0 0.7660444514056185 -0.64278759981090561 forward_v I I I I #
coedge $-1 $144 $145 $146 $147 reversed $49 $-1 #
coedge $-1 $83 $51 $145 $148 forward $32 $-1 #
coedge $-1 $51 $82 $149 $150 reversed $32 $-1 #
coedge $-1 $151 $146 $51 $85 forward $141 $-1 #
edge $-1 $152 -37.858583004351956 $153 -30.189574088505786 $84 $154 forward 7 unknown #
face $-1 $155 $156 $18 $-1 $157 forward single #
loop $-1 $-1 $158 $52 #
plane-surface $-1 35.427156915033599 -154.03381119807415 94.849110843084517 -1 0 0 0 -0.7660444514056185 0.64278759981090561 forward_v I I I I #
loop $-1 $-1 $159 $34 #
coedge $-1 $90 $90 $91 $160 forward $53 $-1 #
coedge $-1 $91 $91 $90 $160 reversed $55 $-1 #
coedge $-1 $92 $92 $56 $93 forward $156 $-1 #
edge $-1 $161 -5.4430732021559327e-016 $161 6.2831853071795996 $92 $162 forward 7 unknown #
face $-1 $163 $164 $19 $-1 $165 reversed single #
loop $-1 $166 $167 $57 #
cone-surface $-1 13.001501977436277 -40.922394783189404 7.7246813076612515 0 0.7660444514056185 -0.64278759981090561 2.5 0 0 1 I I 0 1 2.5 forward I I I I #
loop $-1 $-1 $168 $37 #
coedge $-1 $98 $98 $99 $169 forward $58 $-1 #
coedge $-1 $99 $99 $98 $169 reversed $60 $-1 #
coedge $-1 $100 $100 $61 $101 forward $170 $-1 #
edge $-1 $171 -5.4430732021559327e-016 $171 6.2831853071795996 $100 $172 forward 7 unknown #
face $-1 $173 $174 $15 $-1 $175 reversed single #
loop $-1 $-1 $176 $62 #
plane-surface $-1 -69.974059266945403 0 0 1 0 0 0 0 -1 forward_v I I I I #
coedge $-1 $177 $113 $178 $179 forward $63 $-1 #
coedge $-1 $180 $65 $177 $181 forward $41 $-1 #
coedge $-1 $65 $180 $182 $183 forward $41 $-1 #
coedge $-1 $116 $115 $65 $109 reversed $117 $-1 #
edge $-1 $184 -46.827331510531288 $185 46.827331510531288 $108 $186 forward 7 unknown #
coedge $-1 $67 $66 $187 $188 forward $26 $-1 #
coedge $-1 $189 $190 $66 $112 reversed $174 $-1 #
edge $-1 $119 -69.974059266945403 $191 69.974059266945403 $111 $192 forward 7 unknown #
coedge $-1 $105 $193 $67 $114 reversed $63 $-1 #
edge $-1 $194 -69.974059266945403 $118 69.974059266945403 $113 $195 forward 7 unknown #
coedge $-1 $108 $68 $193 $196 forward $117 $-1 #
coedge $-1 $68 $108 $189 $197 reversed $117 $-1 #
loop $-1 $-1 $115 $173 #
vertex $-1 $69 $198 #
vertex $-1 $69 $199 #
straight-curve $-1 69.974059266945403 0 14.031764799014327 0 1 0 I I #
face $-1 $200 $136 $16 $-1 $201 reversed single #
loop $-1 $-1 $202 $70 #
plane-surface $-1 0 0 14.031764799014327 0 0 1 1 0 0 forward_v I I I I #
coedge $-1 $203 $204 $129 $205 reversed $71 $-1 #
coedge $-1 $206 $73 $202 $207 reversed $45 $-1 #
coedge $-1 $73 $206 $208 $209 reversed $45 $-1 #
coedge $-1 $204 $203 $73 $128 forward $71 $-1 #
edge $-1 $210 -14.031764799014327 $211 14.031764799014327 $127 $212 forward 7 unknown #
coedge $-1 $75 $74 $124 $205 forward $29 $-1 #
coedge $-1 $213 $214 $74 $131 forward $122 $-1 #
edge $-1 $215 27.69578985482682 $137 37.417442893021331 $130 $216 forward 7 unknown #
coedge $-1 $217 $218 $75 $133 forward $219 $-1 #
edge $-1 $138 -37.417442893021331 $220 -27.69578985482682 $132 $221 forward 7 unknown #
coedge $-1 $222 $76 $218 $223 reversed $136 $-1 #
coedge $-1 $76 $222 $213 $224 reversed $136 $-1 #
loop $-1 $-1 $76 $121 #
vertex $-1 $224 $225 #
vertex $-1 $77 $226 #
straight-curve $-1 -69.974059266945403 -35.36363450163536 0 0 0 -1 I I #
face $-1 $227 $228 $17 $-1 $229 forward single #
loop $-1 $-1 $230 $78 #
plane-surface $-1 0 0 14.031764799014327 0 0 1 1 0 0 forward_v I I I I #
coedge $-1 $231 $232 $230 $233 reversed $79 $-1 #
coedge $-1 $234 $81 $232 $235 reversed $49 $-1 #
coedge $-1 $81 $234 $82 $148 reversed $49 $-1 #
coedge $-1 $84 $230 $81 $147 forward $141 $-1 #
edge $-1 $236 -5.8333592269603898 $152 25.562557685675863 $146 $237 forward 7 unknown #
edge $-1 $152 -11.930860082089696 $238 -1.1371122099518014e-014 $82 $239 forward 7 unknown #
coedge $-1 $240 $241 $83 $150 forward $242 $-1 #
edge $-1 $153 33.392790622527933 $238 42.532359788909517 $149 $243 forward 7 unknown #
coedge $-1 $244 $84 $241 $245 forward $141 $-1 #
vertex $-1 $147 $246 #
vertex $-1 $245 $247 #
straight-curve $-1 35.427156915033599 -77.016905599037074 14.031764799014326 0 -1 0 I I #
face $-1 $248 $249 $18 $-1 $250 forward single #
loop $-1 $251 $92 $86 #
plane-surface $-1 19.729198458715473 -46.827331510531295 4.8921956326327347 0 -0.7660444514056185 0.64278759981090561 1 0 0 forward_v I I I I #
coedge $-1 $252 $253 $254 $255 reversed $87 $-1 #
coedge $-1 $159 $159 $-1 $256 forward $89 $-1 #
edge $-1 $257 0 $257 6.2831853071796004 $90 $258 forward 7 unknown #
vertex $-1 $93 $259 #
ellipse-curve $-1 13.001501977436277 -42.992827052608206 9.4619802158235338 0 0.7660444514056185 -0.64278759981090561 2.5 0 0 1 I I #
face $-1 $260 $261 $19 $-1 $262 forward single #
loop $-1 $263 $264 $94 #
cone-surface $-1 13.001501977436277 -37.894406949513581 5.1838978997353369 0 0.7660444514056185 -0.64278759981090561 1.25 0 0 1 I I -0.70710678118654746 0.70710678118654746 1.25 forward I I I I #
loop $-1 $-1 $265 $57 #
coedge $-1 $167 $167 $266 $267 reversed $95 $-1 #
coedge $-1 $168 $168 $-1 $268 forward $97 $-1 #
edge $-1 $269 0 $269 6.2831853071796004 $98 $270 forward 7 unknown #
loop $-1 $271 $100 $260 #
vertex $-1 $101 $272 #
ellipse-curve $-1 26.456894939994669 -42.992827052608206 9.4619802158235338 0 0.7660444514056185 -0.64278759981090561 2.5 0 0 1 I I #
face $-1 $-1 $117 $15 $-1 $273 reversed single #
loop $-1 $-1 $189 $102 #
plane-surface $-1 0 46.827331510531288 0 0 -1 0 0 0 -1 forward_v I I I I #
coedge $-1 $274 $187 $190 $275 forward $103 $-1 #
coedge $-1 $193 $105 $106 $181 reversed $63 $-1 #
coedge $-1 $187 $274 $105 $179 reversed $103 $-1 #
edge $-1 $194 -14.031764799014327 $276 14.031764799014327 $178 $277 forward 7 unknown #
coedge $-1 $107 $106 $274 $278 forward $41 $-1 #
edge $-1 $185 -69.974059266945403 $276 69.974059266945403 $177 $279 forward 7 unknown #
coedge $-1 $190 $189 $107 $183 reversed $174 $-1 #
edge $-1 $280 -69.974059266945403 $184 69.974059266945403 $182 $281 forward 7 unknown #
vertex $-1 $109 $282 #
vertex $-1 $196 $283 #
straight-curve $-1 69.974059266945403 0 -14.031764799014327 0 -1 0 I I #
coedge $-1 $176 $178 $110 $188 reversed $103 $-1 #
edge $-1 $191 -46.827331510531288 $194 46.827331510531288 $187 $284 forward 7 unknown #
coedge $-1 $182 $111 $116 $197 forward $174 $-1 #
coedge $-1 $111 $182 $176 $275 reversed $174 $-1 #
vertex $-1 $112 $285 #
straight-curve $-1 0 46.827331510531288 14.031764799014327 -1 0 0 I I #
coedge $-1 $113 $177 $115 $196 reversed $63 $-1 #
vertex $-1 $188 $286 #
straight-curve $-1 0 -46.827331510531288 14.031764799014327 1 0 0 I I #
edge $-1 $118 -14.031764799014327 $185 14.031764799014327 $115 $287 forward 7 unknown #
edge $-1 $119 -14.031764799014327 $184 14.031764799014327 $116 $288 forward 7 unknown #
point $-1 69.974059266945403 -46.827331510531288 14.031764799014327 #
point $-1 69.974059266945403 46.827331510531288 14.031764799014327 #
face $-1 $289 $219 $16 $-1 $290 reversed single #
plane-surface $-1 -69.974059266945403 0 0 1 0 0 0 0 -1 forward_v I I I I #
coedge $-1 $214 $291 $125 $207 forward $122 $-1 #
coedge $-1 $127 $124 $214 $292 reversed $71 $-1 #
coedge $-1 $124 $127 $217 $293 reversed $71 $-1 #
edge $-1 $215 -14.031764799014327 $220 14.031764799014327 $124 $294 forward 7 unknown #
coedge $-1 $126 $125 $295 $296 reversed $45 $-1 #
edge $-1 $297 -37.417442893021331 $210 -27.69578985482682 $202 $298 forward 7 unknown #
coedge $-1 $299 $217 $126 $209 forward $219 $-1 #
edge $-1 $211 27.69578985482682 $300 37.417442893021331 $208 $301 forward 7 unknown #
vertex $-1 $207 $302 #
vertex $-1 $209 $303 #
straight-curve $-1 -60.252406228750893 -29.679071831845771 0 0 0 -1 I I #
coedge $-1 $304 $130 $135 $224 forward $122 $-1 #
coedge $-1 $130 $202 $203 $292 forward $122 $-1 #
vertex $-1 $131 $305 #
straight-curve $-1 -32.556616373924072 -35.36363450163536 14.031764799014327 -1 0 0 I I #
coedge $-1 $208 $132 $204 $293 forward $219 $-1 #
coedge $-1 $132 $306 $134 $223 forward $219 $-1 #
loop $-1 $-1 $208 $200 #
vertex $-1 $133 $307 #
straight-curve $-1 -32.556616373924072 -35.36363450163536 -14.031764799014327 1 0 0 I I #
coedge $-1 $135 $134 $308 $309 reversed $136 $-1 #
edge $-1 $310 -46.827331510531288 $138 -35.36363450163536 $134 $311 forward 7 unknown #
edge $-1 $137 35.36363450163536 $312 46.827331510531288 $135 $313 forward 7 unknown #
point $-1 -69.974059266945403 -35.36363450163536 14.031764799014327 #
point $-1 -69.974059266945403 -35.36363450163536 -14.031764799014327 #
face $-1 $314 $315 $17 $-1 $316 forward single #
loop $-1 $-1 $317 $140 #
plane-surface $-1 -65.113232747848144 -35.36363450163536 0 0 1 0 0 0 1 forward_v I I I I #
coedge $-1 $146 $318 $143 $233 forward $141 $-1 #
coedge $-1 $232 $143 $319 $320 reversed $79 $-1 #
coedge $-1 $143 $231 $144 $235 forward $79 $-1 #
edge $-1 $321 30.189574088505786 $236 37.858583004351956 $230 $322 forward 7 unknown #
coedge $-1 $145 $144 $240 $323 reversed $49 $-1 #
edge $-1 $324 1.1371122099518014e-014 $236 11.930860082089696 $232 $325 forward 7 unknown #
vertex $-1 $147 $326 #
straight-curve $-1 9.8645992293577365 -39.158322594685117 14.031764799014327 1 0 0 I I #
vertex $-1 $323 $327 #
straight-curve $-1 35.427156915033599 -46.827331510531295 4.8921956326327347 0 -0.64278759981090561 -0.7660444514056185 I I #
coedge $-1 $319 $149 $234 $323 forward $242 $-1 #
coedge $-1 $149 $328 $151 $245 reversed $242 $-1 #
loop $-1 $-1 $319 $329 #
straight-curve $-1 35.427156915033599 -46.827331510531288 47.424555421542259 0 0 -1 I I #
coedge $-1 $330 $151 $331 $332 forward $141 $-1 #
edge $-1 $153 35.427156915033599 $333 69.974059266945403 $241 $334 forward 7 unknown #
point $-1 35.427156915033599 -39.158322594685117 14.031764799014327 #
point $-1 35.427156915033599 -46.827331510531288 14.031764799014327 #
face $-1 $335 $336 $18 $-1 $337 forward single #
loop $-1 $-1 $338 $155 #
plane-surface $-1 4.0312400023973467 -154.03381119807415 94.849110843084517 1 0 0 0 0.7660444514056185 -0.64278759981090561 forward_v I I I I #
loop $-1 $-1 $339 $86 #
coedge $-1 $253 $158 $340 $341 forward $87 $-1 #
coedge $-1 $158 $252 $342 $343 reversed $87 $-1 #
coedge $-1 $344 $345 $158 $255 forward $336 $-1 #
edge $-1 $346 -37.858583004351956 $347 -30.189574088505786 $254 $348 forward 7 unknown #
edge $-1 $349 1 $349 0 $159 $-1 forward 7 unknown #
vertex $-1 $160 $350 #
ellipse-curve $-1 13.001501977436277 -38.851962513770602 5.9873823994989692 0 -0.7660444514056185 0.64278759981090561 2.5 0 0 1 I I #
point $-1 15.501501977436277 -42.992827052608206 9.4619802158235355 #
face $-1 $351 $170 $19 $-1 $352 forward single #
loop $-1 $-1 $353 $163 #
plane-surface $-1 35.427156915033599 -154.03381119807415 94.849110843084517 -1 0 0 0 -0.7660444514056185 0.64278759981090561 forward_v I I I I #
loop $-1 $-1 $354 $94 #
coedge $-1 $264 $264 $265 $355 forward $164 $-1 #
coedge $-1 $265 $265 $264 $355 reversed $166 $-1 #
coedge $-1 $266 $266 $167 $267 forward $271 $-1 #
edge $-1 $356 -5.4430732021559327e-016 $356 6.2831853071795996 $266 $357 forward 7 unknown #
edge $-1 $358 1 $358 0 $168 $-1 forward 7 unknown #
vertex $-1 $169 $359 #
ellipse-curve $-1 26.456894939994669 -38.851962513770602 5.9873823994989692 0 -0.7660444514056185 0.64278759981090561 2.5 0 0 1 I I #
loop $-1 $360 $266 $260 #
point $-1 28.956894939994669 -42.992827052608206 9.4619802158235355 #
plane-surface $-1 69.974059266945403 0 0 -1 0 0 0 0 1 forward_v I I I I #
coedge $-1 $178 $176 $180 $278 reversed $103 $-1 #
edge $-1 $191 -14.031764799014327 $280 14.031764799014327 $190 $361 forward 7 unknown #
vertex $-1 $278 $362 #
straight-curve $-1 -69.974059266945403 -46.827331510531288 0 0 0 -1 I I #
edge $-1 $276 -46.827331510531288 $280 46.827331510531288 $274 $363 forward 7 unknown #
straight-curve $-1 0 -46.827331510531288 -14.031764799014327 -1 0 0 I I #
vertex $-1 $183 $364 #
straight-curve $-1 0 46.827331510531288 -14.031764799014327 1 0 0 I I #
point $-1 69.974059266945403 46.827331510531288 -14.031764799014327 #
point $-1 69.974059266945403 -46.827331510531288 -14.031764799014327 #
straight-curve $-1 -69.974059266945403 0 14.031764799014327 0 -1 0 I I #
point $-1 -69.974059266945403 46.827331510531288 14.031764799014327 #
point $-1 -69.974059266945403 -46.827331510531288 14.031764799014327 #
straight-curve $-1 69.974059266945403 -46.827331510531288 0 0 0 -1 I I #
straight-curve $-1 69.974059266945403 46.827331510531288 0 0 0 -1 I I #
face $-1 $365 $366 $16 $-1 $367 reversed single #
plane-surface $-1 0 0 -14.031764799014327 0 0 1 1 0 0 forward_v I I I I #
coedge $-1 $202 $368 $369 $370 forward $122 $-1 #
edge $-1 $210 13.418395248475488 $215 19.102957918265076 $214 $371 forward 7 unknown #
edge $-1 $220 -19.102957918265076 $211 -13.418395248475488 $217 $372 forward 7 unknown #
straight-curve $-1 -60.252406228750893 -35.36363450163536 0 0 0 -1 I I #
coedge $-1 $369 $373 $206 $296 forward $374 $-1 #
edge $-1 $300 -14.031764799014327 $297 14.031764799014327 $295 $375 forward 7 unknown #
vertex $-1 $296 $376 #
straight-curve $-1 -32.556616373924072 -29.679071831845771 14.031764799014327 1 0 0 I I #
coedge $-1 $377 $208 $373 $378 forward $219 $-1 #
vertex $-1 $378 $379 #
straight-curve $-1 -32.556616373924072 -29.679071831845771 -14.031764799014327 -1 0 0 I I #
point $-1 -60.252406228750893 -29.679071831845771 14.031764799014327 #
point $-1 -60.252406228750893 -29.679071831845771 -14.031764799014327 #
coedge $-1 $380 $213 $381 $382 forward $122 $-1 #
point $-1 -60.252406228750893 -35.36363450163536 14.031764799014327 #
coedge $-1 $218 $383 $384 $385 forward $219 $-1 #
point $-1 -60.252406228750893 -35.36363450163536 -14.031764799014327 #
coedge $-1 $384 $381 $222 $309 forward $366 $-1 #
edge $-1 $312 -14.031764799014327 $310 14.031764799014327 $222 $386 forward 7 unknown #
vertex $-1 $223 $387 #
straight-curve $-1 -69.974059266945403 0 -14.031764799014327 0 1 0 I I #
vertex $-1 $224 $388 #
straight-curve $-1 -69.974059266945403 0 14.031764799014327 0 -1 0 I I #
face $-1 $389 $390 $17 $-1 $391 forward single #
loop $-1 $-1 $392 $227 #
plane-surface $-1 -65.113232747848144 -29.679071831845771 0 0 -1 0 0 0 -1 forward_v I I I I #
coedge $-1 $393 $394 $395 $396 reversed $228 $-1 #
coedge $-1 $230 $397 $398 $399 forward $141 $-1 #
coedge $-1 $398 $240 $231 $320 forward $242 $-1 #
edge $-1 $324 -42.532359788909517 $321 -33.392790622527933 $319 $400 forward 7 unknown #
vertex $-1 $320 $401 #
straight-curve $-1 4.0312400023973467 -77.016905599037074 14.031764799014326 0 1 0 I I #
edge $-1 $238 -25.562557685675863 $324 5.8333592269603898 $240 $402 forward 7 unknown #
vertex $-1 $323 $403 #
straight-curve $-1 4.0312400023973467 -46.827331510531295 4.8921956326327347 0 0.64278759981090561 0.7660444514056185 I I #
point $-1 4.0312400023973467 -39.158322594685117 14.031764799014327 #
point $-1 35.427156915033599 -46.827331510531288 4.8921956326327436 #
coedge $-1 $241 $404 $405 $406 reversed $242 $-1 #
face $-1 $407 $242 $17 $-1 $408 reversed single #
coedge $-1 $409 $244 $410 $411 forward $141 $-1 #
coedge $-1 $405 $412 $244 $332 reversed $413 $-1 #
edge $-1 $333 -46.827331510531288 $414 46.827331510531288 $331 $415 forward 7 unknown #
vertex $-1 $332 $416 #
straight-curve $-1 0 -46.827331510531288 14.031764799014327 1 0 0 I I #
face $-1 $417 $418 $18 $-1 $419 forward single #
loop $-1 $-1 $420 $248 #
plane-surface $-1 0 0 14.031764799014327 0 0 1 1 0 0 forward_v I I I I #
coedge $-1 $421 $422 $420 $423 reversed $249 $-1 #
coedge $-1 $424 $340 $345 $425 reversed $251 $-1 #
coedge $-1 $339 $426 $252 $341 reversed $251 $-1 #
edge $-1 $346 -11.930860082089696 $427 -1.1371122099518014e-014 $252 $428 forward 7 unknown #
coedge $-1 $429 $430 $253 $343 forward $431 $-1 #
edge $-1 $347 33.392790622527933 $427 42.532359788909517 $342 $432 forward 7 unknown #
coedge $-1 $433 $254 $430 $434 forward $336 $-1 #
coedge $-1 $254 $420 $339 $425 forward $336 $-1 #
vertex $-1 $425 $435 #
vertex $-1 $434 $436 #
straight-curve $-1 35.427156915033599 -77.016905599037074 14.031764799014326 0 -1 0 I I #
vertex $-1 $256 $437 #
point $-1 15.501501977436277 -38.851962513770602 5.9873823994989692 #
face $-1 $438 $439 $19 $-1 $440 forward single #
plane-surface $-1 19.729198458715473 -46.827331510531295 4.8921956326327347 0 -0.7660444514056185 0.64278759981090561 1 0 0 forward_v I I I I #
coedge $-1 $441 $442 $443 $444 reversed $261 $-1 #
coedge $-1 $354 $354 $-1 $445 forward $263 $-1 #
edge $-1 $446 0 $446 6.2831853071796004 $264 $447 forward 7 unknown #
vertex $-1 $267 $448 #
ellipse-curve $-1 13.001501977436277 -42.992827052608206 9.4619802158235338 0 0.7660444514056185 -0.64278759981090561 2.5 0 0 1 I I #
vertex $-1 $268 $449 #
point $-1 28.956894939994669 -38.851962513770602 5.9873823994989692 #
loop $-1 $-1 $450 $260 #
straight-curve $-1 -69.974059266945403 46.827331510531288 0 0 0 -1 I I #
point $-1 -69.974059266945403 -46.827331510531288 -14.031764799014327 #
straight-curve $-1 -69.974059266945403 0 -14.031764799014327 0 1 0 I I #
point $-1 -69.974059266945403 46.827331510531288 -14.031764799014327 #
face $-1 $451 $374 $16 $-1 $201 reversed single #
loop $-1 $-1 $308 $289 #
plane-surface $-1 0 -46.827331510531288 0 0 1 0 0 0 1 forward_v I I I I #
coedge $-1 $291 $380 $452 $453 forward $122 $-1 #
coedge $-1 $454 $295 $291 $370 reversed $374 $-1 #
edge $-1 $455 -46.827331510531288 $297 29.679071831845771 $369 $313 forward 7 unknown #
straight-curve $-1 -60.252406228750893 -16.260676583370284 14.031764799014327 0 -1 0 I I #
straight-curve $-1 -60.252406228750893 -16.260676583370284 -14.031764799014327 0 1 0 I I #
coedge $-1 $295 $454 $299 $378 reversed $374 $-1 #
loop $-1 $-1 $295 $365 #
straight-curve $-1 -69.974059266945403 -29.679071831845771 0 0 0 1 I I #
point $-1 -69.974059266945403 -29.679071831845771 14.031764799014327 #
coedge $-1 $383 $299 $456 $457 forward $219 $-1 #
edge $-1 $300 -29.679071831845771 $458 46.827331510531288 $373 $311 forward 7 unknown #
point $-1 -69.974059266945403 -29.679071831845771 -14.031764799014327 #
coedge $-1 $368 $304 $459 $460 forward $122 $-1 #
coedge $-1 $308 $461 $304 $382 reversed $366 $-1 #
edge $-1 $312 -69.974059266945403 $462 69.974059266945403 $381 $463 forward 7 unknown #
coedge $-1 $306 $377 $464 $465 forward $219 $-1 #
coedge $-1 $461 $308 $306 $385 reversed $366 $-1 #
edge $-1 $466 -69.974059266945403 $310 69.974059266945403 $384 $467 forward 7 unknown #
straight-curve $-1 -69.974059266945403 -46.827331510531288 0 0 0 -1 I I #
point $-1 -69.974059266945403 -46.827331510531288 -14.031764799014327 #
point $-1 -69.974059266945403 -46.827331510531288 14.031764799014327 #
face $-1 $468 $469 $17 $-1 $470 reversed single #
loop $-1 $-1 $471 $314 #
plane-surface $-1 -60.252406228750893 -32.521353166740568 0 -1 0 0 0 0 1 forward_v I I I I #
coedge $-1 $472 $473 $474 $475 reversed $315 $-1 #
coedge $-1 $476 $317 $477 $478 reversed $228 $-1 #
coedge $-1 $317 $476 $479 $480 reversed $228 $-1 #
coedge $-1 $481 $482 $317 $396 forward $469 $-1 #
edge $-1 $483 -14.031764799014327 $484 14.031764799014327 $395 $485 forward 7 unknown #
coedge $-1 $318 $477 $482 $486 forward $141 $-1 #
coedge $-1 $487 $319 $318 $399 reversed $242 $-1 #
edge $-1 $488 -69.974059266945403 $321 4.0312400023973467 $398 $334 forward 7 unknown #
straight-curve $-1 4.0312400023973467 -46.827331510531288 47.424555421542259 0 0 1 I I #
point $-1 4.0312400023973467 -46.827331510531288 14.031764799014327 #
straight-curve $-1 9.8645992293577365 -46.827331510531288 4.8921956326327489 -1 0 0 I I #
point $-1 4.0312400023973467 -46.827331510531288 4.8921956326327436 #
coedge $-1 $328 $487 $489 $490 reversed $242 $-1 #
coedge $-1 $491 $331 $328 $406 forward $413 $-1 #
edge $-1 $333 -14.031764799014327 $492 14.031764799014327 $405 $493 forward 7 unknown #
face $-1 $494 $495 $17 $-1 $470 reversed single #
plane-surface $-1 0 -46.827331510531288 0 0 1 0 0 0 1 forward_v I I I I #
coedge $-1 $496 $330 $497 $498 forward $141 $-1 #
coedge $-1 $499 $500 $330 $411 reversed $501 $-1 #
edge $-1 $414 -69.974059266945403 $502 69.974059266945403 $410 $503 forward 7 unknown #
coedge $-1 $331 $491 $499 $504 reversed $413 $-1 #
loop $-1 $-1 $405 $505 #
vertex $-1 $332 $506 #
straight-curve $-1 69.974059266945403 0 14.031764799014327 0 1 0 I I #
point $-1 69.974059266945403 -46.827331510531288 14.031764799014327 #
face $-1 $507 $508 $18 $-1 $509 forward single #
loop $-1 $-1 $510 $335 #
plane-surface $-1 -65.113232747848144 -35.36363450163536 0 0 1 0 0 0 1 forward_v I I I I #
coedge $-1 $345 $511 $338 $423 forward $336 $-1 #
coedge $-1 $422 $338 $512 $513 reversed $249 $-1 #
coedge $-1 $338 $421 $424 $514 forward $249 $-1 #
edge $-1 $515 30.189574088505786 $516 37.858583004351956 $420 $517 forward 7 unknown #
coedge $-1 $426 $339 $422 $514 reversed $251 $-1 #
edge $-1 $516 -5.8333592269603898 $346 25.562557685675863 $345 $518 forward 7 unknown #
coedge $-1 $340 $424 $429 $519 reversed $251 $-1 #
vertex $-1 $519 $520 #
straight-curve $-1 35.427156915033599 -46.827331510531295 4.8921956326327347 0 -0.64278759981090561 -0.7660444514056185 I I #
coedge $-1 $512 $342 $426 $519 forward $431 $-1 #
coedge $-1 $342 $521 $344 $434 reversed $431 $-1 #
loop $-1 $-1 $512 $522 #
straight-curve $-1 35.427156915033599 -46.827331510531288 47.424555421542259 0 0 -1 I I #
coedge $-1 $523 $344 $524 $525 forward $336 $-1 #
edge $-1 $347 35.427156915033599 $526 69.974059266945403 $430 $527 forward 7 unknown #
point $-1 35.427156915033599 -39.158322594685117 14.031764799014327 #
point $-1 35.427156915033599 -46.827331510531288 14.031764799014327 #
point $-1 13.001501977436277 -36.93685138525656 4.3804133999717045 #
face $-1 $528 $529 $19 $-1 $530 forward single #
loop $-1 $-1 $531 $351 #
plane-surface $-1 4.0312400023973467 -154.03381119807415 94.849110843084517 1 0 0 0 0.7660444514056185 -0.64278759981090561 forward_v I I I I #
coedge $-1 $442 $353 $532 $533 forward $261 $-1 #
coedge $-1 $353 $441 $534 $535 reversed $261 $-1 #
coedge $-1 $536 $537 $353 $444 forward $529 $-1 #
edge $-1 $538 -37.858583004351956 $539 -30.189574088505786 $443 $540 forward 7 unknown #
edge $-1 $541 1 $541 0 $354 $-1 forward 7 unknown #
vertex $-1 $355 $542 #
ellipse-curve $-1 13.001501977436277 -38.851962513770602 5.9873823994989692 0 -0.7660444514056185 0.64278759981090561 2.5 0 0 1 I I #
point $-1 15.501501977436277 -42.992827052608206 9.4619802158235355 #
point $-1 26.456894939994669 -36.93685138525656 4.3804133999717045 #
coedge $-1 $543 $532 $537 $544 reversed $360 $-1 #
face $-1 $545 $546 $16 $-1 $547 reversed single #
coedge $-1 $548 $549 $368 $453 reversed $546 $-1 #
edge $-1 $550 -69.974059266945403 $455 69.974059266945403 $452 $551 forward 7 unknown #
coedge $-1 $373 $369 $549 $552 forward $374 $-1 #
vertex $-1 $453 $553 #
coedge $-1 $549 $548 $377 $457 reversed $546 $-1 #
edge $-1 $458 -69.974059266945403 $554 69.974059266945403 $456 $555 forward 7 unknown #
vertex $-1 $457 $556 #
coedge $-1 $557 $558 $380 $460 reversed $559 $-1 #
edge $-1 $462 -46.827331510531288 $550 46.827331510531288 $459 $560 forward 7 unknown #
coedge $-1 $381 $384 $557 $561 reversed $366 $-1 #
vertex $-1 $460 $562 #
straight-curve $-1 0 -46.827331510531288 14.031764799014327 1 0 0 I I #
coedge $-1 $558 $557 $383 $465 reversed $559 $-1 #
edge $-1 $554 -46.827331510531288 $466 46.827331510531288 $464 $563 forward 7 unknown #
vertex $-1 $561 $564 #
straight-curve $-1 0 -46.827331510531288 -14.031764799014327 -1 0 0 I I #
face $-1 $329 $565 $17 $-1 $566 reversed single #
loop $-1 $-1 $395 $389 #
plane-surface $-1 -69.974059266945403 0 0 1 0 0 0 0 -1 forward_v I I I I #
coedge $-1 $567 $568 $476 $569 reversed $390 $-1 #
coedge $-1 $570 $392 $496 $571 reversed $315 $-1 #
coedge $-1 $392 $570 $572 $573 reversed $315 $-1 #
coedge $-1 $568 $567 $392 $475 forward $390 $-1 #
edge $-1 $574 -14.031764799014327 $575 14.031764799014327 $474 $576 forward 7 unknown #
coedge $-1 $394 $393 $471 $569 forward $228 $-1 #
coedge $-1 $397 $577 $393 $478 forward $141 $-1 #
edge $-1 $578 27.69578985482682 $483 37.417442893021331 $477 $579 forward 7 unknown #
coedge $-1 $580 $581 $394 $480 forward $565 $-1 #
edge $-1 $484 -37.417442893021331 $582 -27.69578985482682 $479 $583 forward 7 unknown #
coedge $-1 $584 $395 $581 $585 reversed $469 $-1 #
coedge $-1 $395 $584 $397 $486 reversed $469 $-1 #
vertex $-1 $486 $586 #
vertex $-1 $396 $587 #
straight-curve $-1 -69.974059266945403 -35.36363450163536 0 0 0 -1 I I #
edge $-1 $483 35.36363450163536 $488 46.827331510531288 $482 $588 forward 7 unknown #
coedge $-1 $404 $398 $584 $589 forward $242 $-1 #
vertex $-1 $486 $590 #
coedge $-1 $581 $591 $404 $490 forward $565 $-1 #
edge $-1 $492 -69.974059266945403 $592 69.974059266945403 $404 $593 forward 7 unknown #
coedge $-1 $412 $405 $591 $594 reversed $413 $-1 #
vertex $-1 $406 $595 #
straight-curve $-1 69.974059266945403 -46.827331510531288 0 0 0 -1 I I #
face $-1 $505 $501 $17 $-1 $596 reversed single #
loop $-1 $-1 $597 $407 #
coedge $-1 $577 $409 $472 $571 forward $141 $-1 #
coedge $-1 $598 $597 $409 $498 reversed $495 $-1 #
edge $-1 $502 -46.827331510531288 $599 29.679071831845771 $497 $588 forward 7 unknown #
coedge $-1 $600 $410 $412 $504 forward $501 $-1 #
coedge $-1 $410 $600 $598 $601 reversed $501 $-1 #
loop $-1 $-1 $499 $494 #
vertex $-1 $411 $602 #
straight-curve $-1 0 46.827331510531288 14.031764799014327 -1 0 0 I I #
edge $-1 $414 -14.031764799014327 $603 14.031764799014327 $412 $604 forward 7 unknown #
face $-1 $-1 $413 $17 $-1 $605 reversed single #
point $-1 69.974059266945403 46.827331510531288 14.031764799014327 #
face $-1 $606 $607 $18 $-1 $608 forward single #
loop $-1 $-1 $609 $417 #
plane-surface $-1 -65.113232747848144 -29.679071831845771 0 0 -1 0 0 0 -1 forward_v I I I I #
coedge $-1 $610 $611 $612 $613 reversed $418 $-1 #
coedge $-1 $420 $614 $615 $616 forward $336 $-1 #
coedge $-1 $615 $429 $421 $513 forward $431 $-1 #
edge $-1 $617 -42.532359788909517 $515 -33.392790622527933 $512 $618 forward 7 unknown #
edge $-1 $617 1.1371122099518014e-014 $516 11.930860082089696 $422 $619 forward 7 unknown #
vertex $-1 $513 $620 #
vertex $-1 $425 $621 #
straight-curve $-1 4.0312400023973467 -77.016905599037074 14.031764799014326 0 1 0 I I #
straight-curve $-1 9.8645992293577365 -39.158322594685117 14.031764799014327 1 0 0 I I #
edge $-1 $427 -25.562557685675863 $617 5.8333592269603898 $429 $622 forward 7 unknown #
point $-1 35.427156915033599 -46.827331510531288 4.8921956326327436 #
coedge $-1 $430 $623 $624 $625 reversed $431 $-1 #
face $-1 $626 $431 $18 $-1 $627 reversed single #
coedge $-1 $628 $433 $629 $630 forward $336 $-1 #
coedge $-1 $624 $631 $433 $525 reversed $632 $-1 #
edge $-1 $526 -46.827331510531288 $633 46.827331510531288 $524 $634 forward 7 unknown #
vertex $-1 $525 $635 #
straight-curve $-1 0 -46.827331510531288 14.031764799014327 1 0 0 I I #
face $-1 $636 $637 $19 $-1 $638 forward single #
loop $-1 $-1 $639 $438 #
plane-surface $-1 0 0 14.031764799014327 0 0 1 1 0 0 forward_v I I I I #
coedge $-1 $640 $641 $639 $642 reversed $439 $-1 #
coedge $-1 $450 $643 $441 $533 reversed $360 $-1 #
edge $-1 $538 -11.930860082089696 $644 -1.1371122099518014e-014 $441 $645 forward 7 unknown #
coedge $-1 $646 $647 $442 $535 forward $648 $-1 #
edge $-1 $539 33.392790622527933 $644 42.532359788909517 $534 $649 forward 7 unknown #
coedge $-1 $650 $443 $647 $651 forward $529 $-1 #
coedge $-1 $443 $639 $450 $544 forward $529 $-1 #
vertex $-1 $544 $652 #
vertex $-1 $651 $653 #
straight-curve $-1 35.427156915033599 -77.016905599037074 14.031764799014326 0 -1 0 I I #
vertex $-1 $445 $654 #
point $-1 15.501501977436277 -38.851962513770602 5.9873823994989692 #
coedge $-1 $643 $450 $641 $655 reversed $360 $-1 #
edge $-1 $656 -5.8333592269603898 $538 25.562557685675863 $537 $657 forward 7 unknown #
face $-1 $-1 $559 $16 $-1 $658 reversed single #
loop $-1 $-1 $548 $451 #
plane-surface $-1 0 46.827331510531288 0 0 -1 0 0 0 -1 forward_v I I I I #
coedge $-1 $456 $452 $558 $659 forward $546 $-1 #
coedge $-1 $452 $456 $454 $552 reversed $546 $-1 #
vertex $-1 $460 $660 #
straight-curve $-1 0 46.827331510531288 14.031764799014327 -1 0 0 I I #
edge $-1 $455 -14.031764799014327 $458 14.031764799014327 $549 $661 forward 7 unknown #
point $-1 -69.974059266945403 46.827331510531288 14.031764799014327 #
vertex $-1 $465 $662 #
straight-curve $-1 0 46.827331510531288 -14.031764799014327 1 0 0 I I #
point $-1 -69.974059266945403 46.827331510531288 -14.031764799014327 #
coedge $-1 $464 $459 $461 $561 forward $559 $-1 #
coedge $-1 $459 $464 $548 $659 reversed $559 $-1 #
loop $-1 $-1 $557 $545 #
straight-curve $-1 69.974059266945403 0 14.031764799014327 0 1 0 I I #
edge $-1 $462 -14.031764799014327 $466 14.031764799014327 $557 $663 forward 7 unknown #
point $-1 69.974059266945403 -46.827331510531288 14.031764799014327 #
straight-curve $-1 69.974059266945403 0 -14.031764799014327 0 -1 0 I I #
point $-1 69.974059266945403 -46.827331510531288 -14.031764799014327 #
loop $-1 $-1 $572 $468 #
plane-surface $-1 0 0 -14.031764799014327 0 0 1 1 0 0 forward_v I I I I #
coedge $-1 $474 $471 $577 $664 reversed $390 $-1 #
coedge $-1 $471 $474 $580 $665 reversed $390 $-1 #
edge $-1 $578 -14.031764799014327 $582 14.031764799014327 $471 $666 forward 7 unknown #
coedge $-1 $473 $472 $597 $667 reversed $315 $-1 #
edge $-1 $599 -37.417442893021331 $574 -27.69578985482682 $496 $668 forward 7 unknown #
coedge $-1 $669 $580 $473 $573 forward $565 $-1 #
edge $-1 $575 27.69578985482682 $670 37.417442893021331 $572 $671 forward 7 unknown #
vertex $-1 $571 $672 #
vertex $-1 $573 $673 #
straight-curve $-1 -60.252406228750893 -29.679071831845771 0 0 0 -1 I I #
coedge $-1 $477 $496 $567 $664 forward $141 $-1 #
vertex $-1 $478 $674 #
straight-curve $-1 -32.556616373924072 -35.36363450163536 14.031764799014327 -1 0 0 I I #
coedge $-1 $572 $479 $568 $665 forward $565 $-1 #
coedge $-1 $479 $489 $481 $585 forward $565 $-1 #
vertex $-1 $480 $675 #
straight-curve $-1 -32.556616373924072 -35.36363450163536 -14.031764799014327 1 0 0 I I #
coedge $-1 $482 $481 $487 $589 reversed $469 $-1 #
edge $-1 $592 -46.827331510531288 $484 -35.36363450163536 $481 $676 forward 7 unknown #
point $-1 -69.974059266945403 -35.36363450163536 14.031764799014327 #
point $-1 -69.974059266945403 -35.36363450163536 -14.031764799014327 #
straight-curve $-1 -69.974059266945403 0 14.031764799014327 0 -1 0 I I #
edge $-1 $488 -14.031764799014327 $592 14.031764799014327 $584 $677 forward 7 unknown #
point $-1 -69.974059266945403 -46.827331510531288 14.031764799014327 #
coedge $-1 $489 $678 $491 $594 forward $565 $-1 #
vertex $-1 $585 $679 #
straight-curve $-1 0 -46.827331510531288 -14.031764799014327 -1 0 0 I I #
edge $-1 $603 -46.827331510531288 $492 46.827331510531288 $491 $680 forward 7 unknown #
point $-1 69.974059266945403 -46.827331510531288 -14.031764799014327 #
plane-surface $-1 0 46.827331510531288 0 0 -1 0 0 0 -1 forward_v I I I I #
coedge $-1 $497 $681 $570 $667 forward $495 $-1 #
coedge $-1 $681 $497 $500 $601 forward $495 $-1 #
vertex $-1 $667 $682 #
coedge $-1 $500 $499 $678 $683 reversed $501 $-1 #
edge $-1 $502 -14.031764799014327 $684 14.031764799014327 $500 $685 forward 7 unknown #
point $-1 -69.974059266945403 46.827331510531288 14.031764799014327 #
vertex $-1 $594 $686 #
straight-curve $-1 69.974059266945403 46.827331510531288 0 0 0 -1 I I #
plane-surface $-1 69.974059266945403 0 0 -1 0 0 0 0 1 forward_v I I I I #
face $-1 $687 $688 $18 $-1 $689 reversed single #
loop $-1 $-1 $690 $507 #
plane-surface $-1 -60.252406228750893 -32.521353166740568 0 -1 0 0 0 0 1 forward_v I I I I #
coedge $-1 $691 $692 $693 $694 reversed $508 $-1 #
coedge $-1 $695 $510 $696 $697 reversed $418 $-1 #
coedge $-1 $510 $695 $698 $699 reversed $418 $-1 #
coedge $-1 $700 $701 $510 $613 forward $688 $-1 #
edge $-1 $702 -14.031764799014327 $703 14.031764799014327 $612 $704 forward 7 unknown #
coedge $-1 $511 $696 $701 $705 forward $336 $-1 #
coedge $-1 $706 $512 $511 $616 reversed $431 $-1 #
edge $-1 $707 -69.974059266945403 $515 4.0312400023973467 $615 $527 forward 7 unknown #
vertex $-1 $519 $708 #
straight-curve $-1 4.0312400023973467 -46.827331510531288 47.424555421542259 0 0 1 I I #
straight-curve $-1 4.0312400023973467 -46.827331510531295 4.8921956326327347 0 0.64278759981090561 0.7660444514056185 I I #
point $-1 4.0312400023973467 -46.827331510531288 14.031764799014327 #
point $-1 4.0312400023973467 -39.158322594685117 14.031764799014327 #
straight-curve $-1 9.8645992293577365 -46.827331510531288 4.8921956326327489 -1 0 0 I I #
coedge $-1 $521 $706 $709 $710 reversed $431 $-1 #
coedge $-1 $711 $524 $521 $625 forward $632 $-1 #
edge $-1 $526 -14.031764799014327 $712 14.031764799014327 $624 $713 forward 7 unknown #
face $-1 $714 $715 $18 $-1 $689 reversed single #
plane-surface $-1 0 -46.827331510531288 0 0 1 0 0 0 1 forward_v I I I I #
coedge $-1 $716 $523 $717 $718 forward $336 $-1 #
coedge $-1 $719 $720 $523 $630 reversed $721 $-1 #
edge $-1 $633 -69.974059266945403 $722 69.974059266945403 $629 $723 forward 7 unknown #
coedge $-1 $524 $711 $719 $724 reversed $632 $-1 #
loop $-1 $-1 $624 $725 #
vertex $-1 $525 $726 #
straight-curve $-1 69.974059266945403 0 14.031764799014327 0 1 0 I I #
point $-1 69.974059266945403 -46.827331510531288 14.031764799014327 #
face $-1 $727 $728 $19 $-1 $729 forward single #
loop $-1 $-1 $730 $528 #
plane-surface $-1 -65.113232747848144 -35.36363450163536 0 0 1 0 0 0 1 forward_v I I I I #
coedge $-1 $537 $731 $531 $642 forward $529 $-1 #
coedge $-1 $641 $531 $732 $733 reversed $439 $-1 #
coedge $-1 $531 $640 $543 $655 forward $439 $-1 #
edge $-1 $734 30.189574088505786 $656 37.858583004351956 $639 $735 forward 7 unknown #
coedge $-1 $532 $543 $646 $736 reversed $360 $-1 #
vertex $-1 $736 $737 #
straight-curve $-1 35.427156915033599 -46.827331510531295 4.8921956326327347 0 -0.64278759981090561 -0.7660444514056185 I I #
coedge $-1 $732 $534 $643 $736 forward $648 $-1 #
coedge $-1 $534 $738 $536 $651 reversed $648 $-1 #
loop $-1 $-1 $732 $739 #
straight-curve $-1 35.427156915033599 -46.827331510531288 47.424555421542259 0 0 -1 I I #
coedge $-1 $740 $536 $741 $742 forward $529 $-1 #
edge $-1 $539 35.427156915033599 $743 69.974059266945403 $647 $744 forward 7 unknown #
point $-1 35.427156915033599 -39.158322594685117 14.031764799014327 #
point $-1 35.427156915033599 -46.827331510531288 14.031764799014327 #
point $-1 13.001501977436277 -36.93685138525656 4.3804133999717045 #
edge $-1 $745 1.1371122099518014e-014 $656 11.930860082089696 $641 $746 forward 7 unknown #
vertex $-1 $544 $747 #
straight-curve $-1 9.8645992293577365 -39.158322594685117 14.031764799014327 1 0 0 I I #
plane-surface $-1 69.974059266945403 0 0 -1 0 0 0 0 1 forward_v I I I I #
edge $-1 $550 -14.031764799014327 $554 14.031764799014327 $558 $748 forward 7 unknown #
point $-1 69.974059266945403 46.827331510531288 14.031764799014327 #
straight-curve $-1 -69.974059266945403 46.827331510531288 0 0 0 -1 I I #
point $-1 69.974059266945403 46.827331510531288 -14.031764799014327 #
straight-curve $-1 69.974059266945403 -46.827331510531288 0 0 0 -1 I I #
edge $-1 $574 13.418395248475488 $578 19.102957918265076 $577 $749 forward 7 unknown #
edge $-1 $582 -19.102957918265076 $575 -13.418395248475488 $580 $750 forward 7 unknown #
straight-curve $-1 -60.252406228750893 -35.36363450163536 0 0 0 -1 I I #
edge $-1 $670 -14.031764799014327 $599 14.031764799014327 $597 $751 forward 7 unknown #
straight-curve $-1 -32.556616373924072 -29.679071831845771 14.031764799014327 1 0 0 I I #
coedge $-1 $678 $572 $681 $752 forward $565 $-1 #
vertex $-1 $752 $753 #
straight-curve $-1 -32.556616373924072 -29.679071831845771 -14.031764799014327 -1 0 0 I I #
point $-1 -60.252406228750893 -29.679071831845771 14.031764799014327 #
point $-1 -60.252406228750893 -29.679071831845771 -14.031764799014327 #
point $-1 -60.252406228750893 -35.36363450163536 14.031764799014327 #
point $-1 -60.252406228750893 -35.36363450163536 -14.031764799014327 #
straight-curve $-1 -69.974059266945403 0 -14.031764799014327 0 1 0 I I #
straight-curve $-1 -69.974059266945403 -46.827331510531288 0 0 0 -1 I I #
coedge $-1 $591 $669 $600 $683 forward $565 $-1 #
point $-1 -69.974059266945403 -46.827331510531288 -14.031764799014327 #
straight-curve $-1 69.974059266945403 0 -14.031764799014327 0 -1 0 I I #
coedge $-1 $597 $598 $669 $752 reversed $495 $-1 #
point $-1 -69.974059266945403 -29.679071831845771 14.031764799014327 #
edge $-1 $684 -69.974059266945403 $603 69.974059266945403 $600 $754 forward 7 unknown #
vertex $-1 $683 $755 #
straight-curve $-1 -69.974059266945403 46.827331510531288 0 0 0 -1 I I #
point $-1 69.974059266945403 46.827331510531288 -14.031764799014327 #
face $-1 $522 $756 $18 $-1 $757 reversed single #
loop $-1 $-1 $612 $606 #
plane-surface $-1 -69.974059266945403 0 0 1 0 0 0 0 -1 forward_v I I I I #
coedge $-1 $758 $759 $695 $760 reversed $607 $-1 #
coedge $-1 $761 $609 $716 $762 reversed $508 $-1 #
coedge $-1 $609 $761 $763 $764 reversed $508 $-1 #
coedge $-1 $759 $758 $609 $694 forward $607 $-1 #
edge $-1 $765 -14.031764799014327 $766 14.031764799014327 $693 $767 forward 7 unknown #
coedge $-1 $611 $610 $690 $760 forward $418 $-1 #
coedge $-1 $614 $768 $610 $697 forward $336 $-1 #
edge $-1 $769 27.69578985482682 $702 37.417442893021331 $696 $770 forward 7 unknown #
coedge $-1 $771 $772 $611 $699 forward $756 $-1 #
edge $-1 $703 -37.417442893021331 $773 -27.69578985482682 $698 $774 forward 7 unknown #
coedge $-1 $775 $612 $772 $776 reversed $688 $-1 #
coedge $-1 $612 $775 $614 $705 reversed $688 $-1 #
vertex $-1 $705 $777 #
vertex $-1 $613 $778 #
straight-curve $-1 -69.974059266945403 -35.36363450163536 0 0 0 -1 I I #
edge $-1 $702 35.36363450163536 $707 46.827331510531288 $701 $779 forward 7 unknown #
coedge $-1 $623 $615 $775 $780 forward $431 $-1 #
vertex $-1 $705 $781 #
point $-1 4.0312400023973467 -46.827331510531288 4.8921956326327436 #
coedge $-1 $772 $782 $623 $710 forward $756 $-1 #
edge $-1 $712 -69.974059266945403 $783 69.974059266945403 $623 $784 forward 7 unknown #
coedge $-1 $631 $624 $782 $785 reversed $632 $-1 #
vertex $-1 $625 $786 #
straight-curve $-1 69.974059266945403 -46.827331510531288 0 0 0 -1 I I #
face $-1 $725 $721 $18 $-1 $787 reversed single #
loop $-1 $-1 $788 $626 #
coedge $-1 $768 $628 $691 $762 forward $336 $-1 #
coedge $-1 $789 $788 $628 $718 reversed $715 $-1 #
edge $-1 $722 -46.827331510531288 $790 29.679071831845771 $717 $779 forward 7 unknown #
coedge $-1 $791 $629 $631 $724 forward $721 $-1 #
coedge $-1 $629 $791 $789 $792 reversed $721 $-1 #
loop $-1 $-1 $719 $714 #
vertex $-1 $630 $793 #
straight-curve $-1 0 46.827331510531288 14.031764799014327 -1 0 0 I I #
edge $-1 $633 -14.031764799014327 $794 14.031764799014327 $631 $795 forward 7 unknown #
face $-1 $-1 $632 $18 $-1 $796 reversed single #
point $-1 69.974059266945403 46.827331510531288 14.031764799014327 #
face $-1 $797 $798 $19 $-1 $799 forward single #
loop $-1 $-1 $800 $636 #
plane-surface $-1 -65.113232747848144 -29.679071831845771 0 0 -1 0 0 0 -1 forward_v I I I I #
coedge $-1 $801 $802 $803 $804 reversed $637 $-1 #
coedge $-1 $639 $805 $806 $807 forward $529 $-1 #
coedge $-1 $806 $646 $640 $733 forward $648 $-1 #
edge $-1 $745 -42.532359788909517 $734 -33.392790622527933 $732 $808 forward 7 unknown #
vertex $-1 $733 $809 #
straight-curve $-1 4.0312400023973467 -77.016905599037074 14.031764799014326 0 1 0 I I #
edge $-1 $644 -25.562557685675863 $745 5.8333592269603898 $646 $810 forward 7 unknown #
point $-1 35.427156915033599 -46.827331510531288 4.8921956326327436 #
coedge $-1 $647 $811 $812 $813 reversed $648 $-1 #
face $-1 $814 $648 $19 $-1 $815 reversed single #
coedge $-1 $816 $650 $817 $818 forward $529 $-1 #
coedge $-1 $812 $819 $650 $742 reversed $820 $-1 #
edge $-1 $743 -46.827331510531288 $821 46.827331510531288 $741 $822 forward 7 unknown #
vertex $-1 $742 $823 #
straight-curve $-1 0 -46.827331510531288 14.031764799014327 1 0 0 I I #
vertex $-1 $736 $824 #
straight-curve $-1 4.0312400023973467 -46.827331510531295 4.8921956326327347 0 0.64278759981090561 0.7660444514056185 I I #
point $-1 4.0312400023973467 -39.158322594685117 14.031764799014327 #
straight-curve $-1 69.974059266945403 46.827331510531288 0 0 0 -1 I I #
straight-curve $-1 -60.252406228750893 -16.260676583370284 14.031764799014327 0 -1 0 I I #
straight-curve $-1 -60.252406228750893 -16.260676583370284 -14.031764799014327 0 1 0 I I #
straight-curve $-1 -69.974059266945403 -29.679071831845771 0 0 0 1 I I #
edge $-1 $670 -29.679071831845771 $684 46.827331510531288 $681 $676 forward 7 unknown #
point $-1 -69.974059266945403 -29.679071831845771 -14.031764799014327 #
straight-curve $-1 0 46.827331510531288 -14.031764799014327 1 0 0 I I #
point $-1 -69.974059266945403 46.827331510531288 -14.031764799014327 #
loop $-1 $-1 $763 $687 #
plane-surface $-1 0 0 -14.031764799014327 0 0 1 1 0 0 forward_v I I I I #
coedge $-1 $693 $690 $768 $825 reversed $607 $-1 #
coedge $-1 $690 $693 $771 $826 reversed $607 $-1 #
edge $-1 $769 -14.031764799014327 $773 14.031764799014327 $690 $827 forward 7 unknown #
coedge $-1 $692 $691 $788 $828 reversed $508 $-1 #
edge $-1 $790 -37.417442893021331 $765 -27.69578985482682 $716 $829 forward 7 unknown #
coedge $-1 $830 $771 $692 $764 forward $756 $-1 #
edge $-1 $766 27.69578985482682 $831 37.417442893021331 $763 $832 forward 7 unknown #
vertex $-1 $762 $833 #
vertex $-1 $764 $834 #
straight-curve $-1 -60.252406228750893 -29.679071831845771 0 0 0 -1 I I #
coedge $-1 $696 $716 $758 $825 forward $336 $-1 #
vertex $-1 $697 $835 #
straight-curve $-1 -32.556616373924072 -35.36363450163536 14.031764799014327 -1 0 0 I I #
coedge $-1 $763 $698 $759 $826 forward $756 $-1 #
coedge $-1 $698 $709 $700 $776 forward $756 $-1 #
vertex $-1 $699 $836 #
straight-curve $-1 -32.556616373924072 -35.36363450163536 -14.031764799014327 1 0 0 I I #
coedge $-1 $701 $700 $706 $780 reversed $688 $-1 #
edge $-1 $783 -46.827331510531288 $703 -35.36363450163536 $700 $837 forward 7 unknown #
point $-1 -69.974059266945403 -35.36363450163536 14.031764799014327 #
point $-1 -69.974059266945403 -35.36363450163536 -14.031764799014327 #
straight-curve $-1 -69.974059266945403 0 14.031764799014327 0 -1 0 I I #
edge $-1 $707 -14.031764799014327 $783 14.031764799014327 $775 $838 forward 7 unknown #
point $-1 -69.974059266945403 -46.827331510531288 14.031764799014327 #
coedge $-1 $709 $839 $711 $785 forward $756 $-1 #
vertex $-1 $776 $840 #
straight-curve $-1 0 -46.827331510531288 -14.031764799014327 -1 0 0 I I #
edge $-1 $794 -46.827331510531288 $712 46.827331510531288 $711 $841 forward 7 unknown #
point $-1 69.974059266945403 -46.827331510531288 -14.031764799014327 #
plane-surface $-1 0 46.827331510531288 0 0 -1 0 0 0 -1 forward_v I I I I #
coedge $-1 $717 $842 $761 $828 forward $715 $-1 #
coedge $-1 $842 $717 $720 $792 forward $715 $-1 #
vertex $-1 $828 $843 #
coedge $-1 $720 $719 $839 $844 reversed $721 $-1 #
edge $-1 $722 -14.031764799014327 $845 14.031764799014327 $720 $846 forward 7 unknown #
point $-1 -69.974059266945403 46.827331510531288 14.031764799014327 #
vertex $-1 $785 $847 #
straight-curve $-1 69.974059266945403 46.827331510531288 0 0 0 -1 I I #
plane-surface $-1 69.974059266945403 0 0 -1 0 0 0 0 1 forward_v I I I I #
face $-1 $848 $849 $19 $-1 $850 reversed single #
loop $-1 $-1 $851 $727 #
plane-surface $-1 -60.252406228750893 -32.521353166740568 0 -1 0 0 0 0 1 forward_v I I I I #
coedge $-1 $852 $853 $854 $855 reversed $728 $-1 #
coedge $-1 $856 $730 $857 $858 reversed $637 $-1 #
coedge $-1 $730 $856 $859 $860 reversed $637 $-1 #
coedge $-1 $861 $862 $730 $804 forward $849 $-1 #
edge $-1 $863 -14.031764799014327 $864 14.031764799014327 $803 $865 forward 7 unknown #
coedge $-1 $731 $857 $862 $866 forward $529 $-1 #
coedge $-1 $867 $732 $731 $807 reversed $648 $-1 #
edge $-1 $868 -69.974059266945403 $734 4.0312400023973467 $806 $744 forward 7 unknown #
straight-curve $-1 4.0312400023973467 -46.827331510531288 47.424555421542259 0 0 1 I I #
point $-1 4.0312400023973467 -46.827331510531288 14.031764799014327 #
straight-curve $-1 9.8645992293577365 -46.827331510531288 4.8921956326327489 -1 0 0 I I #
coedge $-1 $738 $867 $869 $870 reversed $648 $-1 #
coedge $-1 $871 $741 $738 $813 forward $820 $-1 #
edge $-1 $743 -14.031764799014327 $872 14.031764799014327 $812 $873 forward 7 unknown #
face $-1 $874 $875 $19 $-1 $850 reversed single #
plane-surface $-1 0 -46.827331510531288 0 0 1 0 0 0 1 forward_v I I I I #
coedge $-1 $876 $740 $877 $878 forward $529 $-1 #
coedge $-1 $879 $880 $740 $818 reversed $881 $-1 #
edge $-1 $821 -69.974059266945403 $882 69.974059266945403 $817 $883 forward 7 unknown #
coedge $-1 $741 $871 $879 $884 reversed $820 $-1 #
loop $-1 $-1 $812 $885 #
vertex $-1 $742 $886 #
straight-curve $-1 69.974059266945403 0 14.031764799014327 0 1 0 I I #
point $-1 69.974059266945403 -46.827331510531288 14.031764799014327 #
point $-1 4.0312400023973467 -46.827331510531288 4.8921956326327436 #
edge $-1 $765 13.418395248475488 $769 19.102957918265076 $768 $887 forward 7 unknown #
edge $-1 $773 -19.102957918265076 $766 -13.418395248475488 $771 $888 forward 7 unknown #
straight-curve $-1 -60.252406228750893 -35.36363450163536 0 0 0 -1 I I #
edge $-1 $831 -14.031764799014327 $790 14.031764799014327 $788 $889 forward 7 unknown #
straight-curve $-1 -32.556616373924072 -29.679071831845771 14.031764799014327 1 0 0 I I #
coedge $-1 $839 $763 $842 $890 forward $756 $-1 #
vertex $-1 $890 $891 #
straight-curve $-1 -32.556616373924072 -29.679071831845771 -14.031764799014327 -1 0 0 I I #
point $-1 -60.252406228750893 -29.679071831845771 14.031764799014327 #
point $-1 -60.252406228750893 -29.679071831845771 -14.031764799014327 #
point $-1 -60.252406228750893 -35.36363450163536 14.031764799014327 #
point $-1 -60.252406228750893 -35.36363450163536 -14.031764799014327 #
straight-curve $-1 -69.974059266945403 0 -14.031764799014327 0 1 0 I I #
straight-curve $-1 -69.974059266945403 -46.827331510531288 0 0 0 -1 I I #
coedge $-1 $782 $830 $791 $844 forward $756 $-1 #
point $-1 -69.974059266945403 -46.827331510531288 -14.031764799014327 #
straight-curve $-1 69.974059266945403 0 -14.031764799014327 0 -1 0 I I #
coedge $-1 $788 $789 $830 $890 reversed $715 $-1 #
point $-1 -69.974059266945403 -29.679071831845771 14.031764799014327 #
edge $-1 $845 -69.974059266945403 $794 69.974059266945403 $791 $892 forward 7 unknown #
vertex $-1 $844 $893 #
straight-curve $-1 -69.974059266945403 46.827331510531288 0 0 0 -1 I I #
point $-1 69.974059266945403 46.827331510531288 -14.031764799014327 #
face $-1 $739 $894 $19 $-1 $895 reversed single #
loop $-1 $-1 $803 $797 #
plane-surface $-1 -69.974059266945403 0 0 1 0 0 0 0 -1 forward_v I I I I #
coedge $-1 $896 $897 $856 $898 reversed $798 $-1 #
coedge $-1 $899 $800 $876 $900 reversed $728 $-1 #
coedge $-1 $800 $899 $901 $902 reversed $728 $-1 #
coedge $-1 $897 $896 $800 $855 forward $798 $-1 #
edge $-1 $903 -14.031764799014327 $904 14.031764799014327 $854 $905 forward 7 unknown #
coedge $-1 $802 $801 $851 $898 forward $637 $-1 #
coedge $-1 $805 $906 $801 $858 forward $529 $-1 #
edge $-1 $907 27.69578985482682 $863 37.417442893021331 $857 $908 forward 7 unknown #
coedge $-1 $909 $910 $802 $860 forward $894 $-1 #
edge $-1 $864 -37.417442893021331 $911 -27.69578985482682 $859 $912 forward 7 unknown #
coedge $-1 $913 $803 $910 $914 reversed $849 $-1 #
coedge $-1 $803 $913 $805 $866 reversed $849 $-1 #
vertex $-1 $866 $915 #
vertex $-1 $804 $916 #
straight-curve $-1 -69.974059266945403 -35.36363450163536 0 0 0 -1 I I #
edge $-1 $863 35.36363450163536 $868 46.827331510531288 $862 $917 forward 7 unknown #
coedge $-1 $811 $806 $913 $918 forward $648 $-1 #
vertex $-1 $866 $919 #
coedge $-1 $910 $920 $811 $870 forward $894 $-1 #
edge $-1 $872 -69.974059266945403 $921 69.974059266945403 $811 $922 forward 7 unknown #
coedge $-1 $819 $812 $920 $923 reversed $820 $-1 #
vertex $-1 $813 $924 #
straight-curve $-1 69.974059266945403 -46.827331510531288 0 0 0 -1 I I #
face $-1 $885 $881 $19 $-1 $925 reversed single #
loop $-1 $-1 $926 $814 #
coedge $-1 $906 $816 $852 $900 forward $529 $-1 #
coedge $-1 $927 $926 $816 $878 reversed $875 $-1 #
edge $-1 $882 -46.827331510531288 $928 29.679071831845771 $877 $917 forward 7 unknown #
coedge $-1 $929 $817 $819 $884 forward $881 $-1 #
coedge $-1 $817 $929 $927 $930 reversed $881 $-1 #
loop $-1 $-1 $879 $874 #
vertex $-1 $818 $931 #
straight-curve $-1 0 46.827331510531288 14.031764799014327 -1 0 0 I I #
edge $-1 $821 -14.031764799014327 $932 14.031764799014327 $819 $933 forward 7 unknown #
face $-1 $-1 $820 $19 $-1 $934 reversed single #
point $-1 69.974059266945403 46.827331510531288 14.031764799014327 #
straight-curve $-1 -60.252406228750893 -16.260676583370284 14.031764799014327 0 -1 0 I I #
straight-curve $-1 -60.252406228750893 -16.260676583370284 -14.031764799014327 0 1 0 I I #
straight-curve $-1 -69.974059266945403 -29.679071831845771 0 0 0 1 I I #
edge $-1 $831 -29.679071831845771 $845 46.827331510531288 $842 $837 forward 7 unknown #
point $-1 -69.974059266945403 -29.679071831845771 -14.031764799014327 #
straight-curve $-1 0 46.827331510531288 -14.031764799014327 1 0 0 I I #
point $-1 -69.974059266945403 46.827331510531288 -14.031764799014327 #
loop $-1 $-1 $901 $848 #
plane-surface $-1 0 0 -14.031764799014327 0 0 1 1 0 0 forward_v I I I I #
coedge $-1 $854 $851 $906 $935 reversed $798 $-1 #
coedge $-1 $851 $854 $909 $936 reversed $798 $-1 #
edge $-1 $907 -14.031764799014327 $911 14.031764799014327 $851 $937 forward 7 unknown #
coedge $-1 $853 $852 $926 $938 reversed $728 $-1 #
edge $-1 $928 -37.417442893021331 $903 -27.69578985482682 $876 $939 forward 7 unknown #
coedge $-1 $940 $909 $853 $902 forward $894 $-1 #
edge $-1 $904 27.69578985482682 $941 37.417442893021331 $901 $942 forward 7 unknown #
vertex $-1 $900 $943 #
vertex $-1 $902 $944 #
straight-curve $-1 -60.252406228750893 -29.679071831845771 0 0 0 -1 I I #
coedge $-1 $857 $876 $896 $935 forward $529 $-1 #
vertex $-1 $858 $945 #
straight-curve $-1 -32.556616373924072 -35.36363450163536 14.031764799014327 -1 0 0 I I #
coedge $-1 $901 $859 $897 $936 forward $894 $-1 #
coedge $-1 $859 $869 $861 $914 forward $894 $-1 #
vertex $-1 $860 $946 #
straight-curve $-1 -32.556616373924072 -35.36363450163536 -14.031764799014327 1 0 0 I I #
coedge $-1 $862 $861 $867 $918 reversed $849 $-1 #
edge $-1 $921 -46.827331510531288 $864 -35.36363450163536 $861 $947 forward 7 unknown #
point $-1 -69.974059266945403 -35.36363450163536 14.031764799014327 #
point $-1 -69.974059266945403 -35.36363450163536 -14.031764799014327 #
straight-curve $-1 -69.974059266945403 0 14.031764799014327 0 -1 0 I I #
edge $-1 $868 -14.031764799014327 $921 14.031764799014327 $913 $948 forward 7 unknown #
point $-1 -69.974059266945403 -46.827331510531288 14.031764799014327 #
coedge $-1 $869 $949 $871 $923 forward $894 $-1 #
vertex $-1 $914 $950 #
straight-curve $-1 0 -46.827331510531288 -14.031764799014327 -1 0 0 I I #
edge $-1 $932 -46.827331510531288 $872 46.827331510531288 $871 $951 forward 7 unknown #
point $-1 69.974059266945403 -46.827331510531288 -14.031764799014327 #
plane-surface $-1 0 46.827331510531288 0 0 -1 0 0 0 -1 forward_v I I I I #
coedge $-1 $877 $952 $899 $938 forward $875 $-1 #
coedge $-1 $952 $877 $880 $930 forward $875 $-1 #
vertex $-1 $938 $953 #
coedge $-1 $880 $879 $949 $954 reversed $881 $-1 #
edge $-1 $882 -14.031764799014327 $955 14.031764799014327 $880 $956 forward 7 unknown #
point $-1 -69.974059266945403 46.827331510531288 14.031764799014327 #
vertex $-1 $923 $957 #
straight-curve $-1 69.974059266945403 46.827331510531288 0 0 0 -1 I I #
plane-surface $-1 69.974059266945403 0 0 -1 0 0 0 0 1 forward_v I I I I #
edge $-1 $903 13.418395248475488 $907 19.102957918265076 $906 $958 forward 7 unknown #
edge $-1 $911 -19.102957918265076 $904 -13.418395248475488 $909 $959 forward 7 unknown #
straight-curve $-1 -60.252406228750893 -35.36363450163536 0 0 0 -1 I I #
edge $-1 $941 -14.031764799014327 $928 14.031764799014327 $926 $960 forward 7 unknown #
straight-curve $-1 -32.556616373924072 -29.679071831845771 14.031764799014327 1 0 0 I I #
coedge $-1 $949 $901 $952 $961 forward $894 $-1 #
vertex $-1 $961 $962 #
straight-curve $-1 -32.556616373924072 -29.679071831845771 -14.031764799014327 -1 0 0 I I #
point $-1 -60.252406228750893 -29.679071831845771 14.031764799014327 #
point $-1 -60.252406228750893 -29.679071831845771 -14.031764799014327 #
point $-1 -60.252406228750893 -35.36363450163536 14.031764799014327 #
point $-1 -60.252406228750893 -35.36363450163536 -14.031764799014327 #
straight-curve $-1 -69.974059266945403 0 -14.031764799014327 0 1 0 I I #
straight-curve $-1 -69.974059266945403 -46.827331510531288 0 0 0 -1 I I #
coedge $-1 $920 $940 $929 $954 forward $894 $-1 #
point $-1 -69.974059266945403 -46.827331510531288 -14.031764799014327 #
straight-curve $-1 69.974059266945403 0 -14.031764799014327 0 -1 0 I I #
coedge $-1 $926 $927 $940 $961 reversed $875 $-1 #
point $-1 -69.974059266945403 -29.679071831845771 14.031764799014327 #
edge $-1 $955 -69.974059266945403 $932 69.974059266945403 $929 $963 forward 7 unknown #
vertex $-1 $954 $964 #
straight-curve $-1 -69.974059266945403 46.827331510531288 0 0 0 -1 I I #
point $-1 69.974059266945403 46.827331510531288 -14.031764799014327 #
straight-curve $-1 -60.252406228750893 -16.260676583370284 14.031764799014327 0 -1 0 I I #
straight-curve $-1 -60.252406228750893 -16.260676583370284 -14.031764799014327 0 1 0 I I #
straight-curve $-1 -69.974059266945403 -29.679071831845771 0 0 0 1 I I #
edge $-1 $941 -29.679071831845771 $955 46.827331510531288 $952 $947 forward 7 unknown #
point $-1 -69.974059266945403 -29.679071831845771 -14.031764799014327 #
straight-curve $-1 0 46.827331510531288 -14.031764799014327 1 0 0 I I #
point $-1 -69.974059266945403 46.827331510531288 -14.031764799014327 #
End-of-ACIS-data 