500 0 10 0           
7 Unknown 11 ACIS 5.0 NT 24 Fri Mar 26 03:01:00 1999 
-1 9.9999999999999995e-007 1e-010 
body $-1 $10 $-1 $11 #
body $-1 $12 $-1 $13 #
body $-1 $14 $-1 $15 #
body $-1 $16 $-1 $17 #
body $-1 $18 $-1 $19 #
body $-1 $20 $-1 $21 #
body $-1 $22 $-1 $23 #
body $-1 $24 $-1 $25 #
body $-1 $26 $-1 $27 #
body $-1 $28 $-1 $29 #
lump $-1 $-1 $30 $0 #
transform $-1 1 0 0 0 1 0 0 0 1 66.404614398632773 37.468844712468083 11.874834793712191 1 rotate no_reflect no_shear #
lump $-1 $-1 $31 $1 #
transform $-1 1 0 0 0 1 0 0 0 1 66.404614398632773 37.468844712468083 11.874834793712191 1 rotate no_reflect no_shear #
lump $-1 $-1 $32 $2 #
transform $-1 1 0 0 0 1 0 0 0 1 66.404614398632773 37.468844712468083 11.874834793712191 1 rotate no_reflect no_shear #
lump $-1 $-1 $33 $3 #
transform $-1 1 0 0 0 1 0 0 0 1 66.404614398632773 37.468844712468083 11.874834793712191 1 rotate no_reflect no_shear #
lump $-1 $-1 $34 $4 #
transform $-1 1 0 0 0 1 0 0 0 1 66.404614398632773 37.468844712468083 11.874834793712191 1 rotate no_reflect no_shear #
lump $-1 $-1 $35 $5 #
transform $-1 1 0 0 0 1 0 0 0 1 66.404614398632773 37.468844712468083 11.874834793712191 1 rotate no_reflect no_shear #
lump $-1 $-1 $36 $6 #
transform $-1 1 0 0 0 1 0 0 0 1 66.404614398632773 37.468844712468083 11.874834793712191 1 rotate no_reflect no_shear #
lump $-1 $-1 $37 $7 #
transform $-1 1 0 0 0 1 0 0 0 1 66.404614398632773 37.468844712468083 11.874834793712191 1 rotate no_reflect no_shear #
lump $-1 $-1 $38 $8 #
transform $-1 1 0 0 0 1 0 0 0 1 66.404614398632773 37.468844712468083 11.874834793712191 1 rotate no_reflect no_shear #
lump $-1 $-1 $39 $9 #
transform $-1 1 0 0 0 1 0 0 0 1 66.404614398632773 37.468844712468083 11.874834793712191 1 rotate no_reflect no_shear #
shell $-1 $-1 $-1 $40 $-1 $10 #
shell $-1 $-1 $-1 $41 $-1 $12 #
shell $-1 $-1 $-1 $42 $-1 $14 #
shell $-1 $-1 $-1 $43 $-1 $16 #
shell $-1 $-1 $-1 $44 $-1 $18 #
shell $-1 $-1 $-1 $45 $-1 $20 #
shell $-1 $-1 $-1 $46 $-1 $22 #
shell $-1 $-1 $-1 $47 $-1 $24 #
shell $-1 $-1 $-1 $48 $-1 $26 #
shell $-1 $-1 $-1 $49 $-1 $28 #
face $-1 $50 $51 $30 $-1 $52 forward single #
face $-1 $53 $54 $31 $-1 $55 reversed single #
face $-1 $56 $57 $32 $-1 $58 reversed single #
face $-1 $59 $60 $33 $-1 $61 reversed single #
face $-1 $62 $63 $34 $-1 $64 forward single #
face $-1 $65 $66 $35 $-1 $67 forward single #
face $-1 $68 $69 $36 $-1 $70 reversed single #
face $-1 $71 $72 $37 $-1 $73 forward single #
face $-1 $74 $75 $38 $-1 $76 forward single #
face $-1 $77 $78 $39 $-1 $79 forward single #
face $-1 $80 $81 $30 $-1 $82 reversed single #
loop $-1 $-1 $83 $40 #
plane-surface $-1 0 0 11.874834793712191 0 0 1 1 0 0 forward_v I I I I #
face $-1 $84 $85 $31 $-1 $86 reversed single #
loop $-1 $-1 $87 $41 #
plane-surface $-1 -60.973309875434893 -32.767255256224132 0 0 -1 0 0 0 -1 forward_v I I I I #
face $-1 $88 $89 $32 $-1 $90 reversed single #
loop $-1 $-1 $91 $42 #
plane-surface $-1 61.37729416871602 -17.626523792265179 0 0 1 0 0 0 1 forward_v I I I I #
face $-1 $92 $93 $33 $-1 $94 reversed single #
loop $-1 $-1 $95 $43 #
plane-surface $-1 56.349973938799266 -111.73482393653299 110.57782178101112 -1 0 0 0 -0.55919291073839883 0.82903756765294845 forward_v I I I I #
face $-1 $96 $97 $34 $-1 $98 forward single #
loop $-1 $99 $100 $44 #
cone-surface $-1 36.59573620222254 -26.812636846919126 2.905393760755719 0 0.55919291073839883 -0.82903756765294845 2 0 0 1 I I 0 1 2 forward I I I I #
face $-1 $101 $102 $35 $-1 $103 forward single #
loop $-1 $104 $105 $45 #
cone-surface $-1 48.44827884416857 -26.812636846919126 2.905393760755719 0 0.55919291073839883 -0.82903756765294845 2 0 0 1 I I 0 1 2 forward I I I I #
face $-1 $106 $107 $36 $-1 $108 reversed single #
loop $-1 $-1 $109 $46 #
plane-surface $-1 -55.542005352237013 46.953901670147204 159.31205486154343 1 0 0 0 -0.54463904215088732 -0.83867056331134215 forward_v I I I I #
face $-1 $110 $111 $37 $-1 $112 forward single #
loop $-1 $113 $114 $47 #
cone-surface $-1 -50.681617467960038 33.360540161852235 8.8119926190048368 0 -0.54463904215088732 -0.83867056331134215 1 0 0 1 I I 0 1 1 forward I I I I #
face $-1 $115 $116 $38 $-1 $117 forward single #
loop $-1 $118 $119 $48 #
cone-surface $-1 -43.391035641544583 33.360540161852235 8.8119926190048368 0 -0.54463904215088732 -0.83867056331134215 1 0 0 1 I I 0 1 1 forward I I I I #
face $-1 $120 $121 $39 $-1 $122 forward single #
loop $-1 $123 $124 $49 #
cone-surface $-1 -36.100453815129129 33.360540161852235 8.8119926190048368 0 -0.54463904215088732 -0.83867056331134215 1 0 0 1 I I 0 1 1 forward I I I I #
face $-1 $125 $126 $30 $-1 $127 reversed single #
loop $-1 $-1 $128 $50 #
plane-surface $-1 0 0 -11.874834793712191 0 0 1 1 0 0 forward_v I I I I #
coedge $-1 $129 $130 $131 $132 forward $51 $-1 #
face $-1 $133 $134 $31 $-1 $135 forward single #
loop $-1 $-1 $136 $53 #
plane-surface $-1 -55.542005352237013 -35.118049984346108 0 -1 0 0 0 0 1 forward_v I I I I #
coedge $-1 $137 $138 $139 $140 forward $54 $-1 #
face $-1 $141 $142 $32 $-1 $143 reversed single #
loop $-1 $-1 $144 $56 #
plane-surface $-1 56.349973938799266 -15.67284945865444 0 1 0 0 0 0 -1 forward_v I I I I #
coedge $-1 $145 $146 $147 $148 forward $57 $-1 #
face $-1 $149 $150 $33 $-1 $151 reversed single #
loop $-1 $-1 $152 $59 #
plane-surface $-1 42.522007523195555 -37.468844712468083 0.47398177706217837 0 -0.55919291073839883 0.82903756765294845 1 0 0 forward_v I I I I #
coedge $-1 $153 $154 $155 $156 reversed $60 $-1 #
face $-1 $-1 $157 $34 $-1 $158 forward single #
loop $-1 $159 $160 $62 #
cone-surface $-1 36.59573620222254 -24.048465755939787 -1.192658331528694 0 0.55919291073839883 -0.82903756765294845 1 0 0 1 I I -0.70710678118654746 0.70710678118654746 1 forward I I I I #
loop $-1 $-1 $161 $44 #
coedge $-1 $100 $100 $162 $163 reversed $63 $-1 #
face $-1 $-1 $164 $35 $-1 $165 forward single #
loop $-1 $166 $167 $65 #
cone-surface $-1 48.44827884416857 -24.048465755939787 -1.192658331528694 0 0.55919291073839883 -0.82903756765294845 1 0 0 1 I I -0.70710678118654746 0.70710678118654746 1 forward I I I I #
loop $-1 $-1 $168 $45 #
coedge $-1 $105 $105 $169 $170 reversed $66 $-1 #
face $-1 $171 $172 $36 $-1 $173 reversed single #
loop $-1 $-1 $174 $68 #
plane-surface $-1 -43.391035641544583 -25.37918949079355 47.928864133195816 0 0.54463904215088732 0.83867056331134215 1 0 0 forward_v I I I I #
coedge $-1 $175 $176 $177 $178 reversed $69 $-1 #
face $-1 $-1 $179 $37 $-1 $180 forward single #
loop $-1 $181 $182 $71 #
cone-surface $-1 -50.681617467960038 32.644765416768962 7.7097961875989593 0 -0.54463904215088732 -0.83867056331134215 0.5 0 0 1 I I -0.70710678118654746 0.70710678118654746 0.5 forward I I I I #
loop $-1 $-1 $183 $47 #
coedge $-1 $114 $114 $184 $185 reversed $72 $-1 #
face $-1 $-1 $186 $38 $-1 $187 forward single #
loop $-1 $188 $189 $74 #
cone-surface $-1 -43.391035641544583 32.644765416768962 7.7097961875989593 0 -0.54463904215088732 -0.83867056331134215 0.5 0 0 1 I I -0.70710678118654746 0.70710678118654746 0.5 forward I I I I #
loop $-1 $-1 $190 $48 #
coedge $-1 $119 $119 $191 $192 reversed $75 $-1 #
face $-1 $-1 $193 $39 $-1 $194 forward single #
loop $-1 $195 $196 $77 #
cone-surface $-1 -36.100453815129129 32.644765416768962 7.7097961875989593 0 -0.54463904215088732 -0.83867056331134215 0.5 0 0 1 I I -0.70710678118654746 0.70710678118654746 0.5 forward I I I I #
loop $-1 $-1 $197 $49 #
coedge $-1 $124 $124 $198 $199 reversed $78 $-1 #
face $-1 $200 $201 $30 $-1 $202 reversed single #
loop $-1 $-1 $203 $80 #
plane-surface $-1 0 -37.468844712468083 0 0 1 0 0 0 1 forward_v I I I I #
coedge $-1 $204 $205 $206 $207 forward $81 $-1 #
coedge $-1 $208 $83 $209 $210 forward $51 $-1 #
coedge $-1 $83 $208 $211 $212 forward $51 $-1 #
coedge $-1 $213 $214 $83 $132 reversed $215 $-1 #
edge $-1 $216 -37.468844712468083 $217 37.468844712468083 $131 $218 forward 7 unknown #
face $-1 $219 $220 $31 $-1 $221 reversed single #
loop $-1 $-1 $222 $84 #
plane-surface $-1 0 0 11.874834793712191 0 0 1 1 0 0 forward_v I I I I #
coedge $-1 $223 $224 $225 $226 reversed $85 $-1 #
coedge $-1 $227 $87 $228 $229 reversed $54 $-1 #
coedge $-1 $87 $227 $230 $231 reversed $54 $-1 #
coedge $-1 $224 $223 $87 $140 reversed $85 $-1 #
edge $-1 $232 -11.874834793712191 $233 11.874834793712191 $139 $234 forward 7 unknown #
face $-1 $235 $236 $32 $-1 $237 reversed single #
loop $-1 $-1 $238 $88 #
plane-surface $-1 61.37729416871602 -13.719175125043702 0 0 -1 0 0 0 -1 forward_v I I I I #
coedge $-1 $239 $240 $241 $242 forward $89 $-1 #
coedge $-1 $243 $91 $244 $245 reversed $57 $-1 #
coedge $-1 $91 $243 $246 $247 reversed $57 $-1 #
coedge $-1 $240 $239 $91 $148 reversed $89 $-1 #
edge $-1 $248 -11.874834793712191 $249 11.874834793712191 $147 $250 forward 7 unknown #
face $-1 $251 $252 $33 $-1 $253 forward single #
loop $-1 $-1 $254 $92 #
plane-surface $-1 28.694041107591843 -111.73482393653299 110.57782178101112 1 0 0 0 0.55919291073839883 -0.82903756765294845 forward_v I I I I #
coedge $-1 $255 $256 $257 $258 reversed $93 $-1 #
coedge $-1 $154 $95 $259 $260 reversed $60 $-1 #
coedge $-1 $95 $153 $255 $261 reversed $60 $-1 #
coedge $-1 $257 $262 $95 $156 forward $252 $-1 #
edge $-1 $263 18.398567255798412 $264 35.301026626414448 $155 $265 forward 7 unknown #
loop $-1 $-1 $162 $96 #
plane-surface $-1 42.522007523195555 -37.468844712468083 0.47398177706217837 0 -0.55919291073839883 0.82903756765294845 1 0 0 forward_v I I I I #
loop $-1 $-1 $266 $62 #
coedge $-1 $160 $160 $161 $267 reversed $97 $-1 #
coedge $-1 $161 $161 $160 $267 forward $99 $-1 #
coedge $-1 $162 $162 $100 $163 forward $157 $-1 #
edge $-1 $268 1.2243350155364907e-015 $268 6.2831853071796013 $162 $269 forward 7 unknown #
loop $-1 $-1 $169 $101 #
plane-surface $-1 42.522007523195555 -37.468844712468083 0.47398177706217837 0 -0.55919291073839883 0.82903756765294845 1 0 0 forward_v I I I I #
loop $-1 $-1 $270 $65 #
coedge $-1 $167 $167 $168 $271 reversed $102 $-1 #
coedge $-1 $168 $168 $167 $271 forward $104 $-1 #
coedge $-1 $169 $169 $105 $170 forward $164 $-1 #
edge $-1 $272 1.2243350155364907e-015 $272 6.2831853071796013 $169 $273 forward 7 unknown #
face $-1 $274 $275 $36 $-1 $276 reversed single #
loop $-1 $-1 $277 $106 #
plane-surface $-1 -31.240065930852154 46.953901670147204 159.31205486154343 -1 0 0 0 0.54463904215088732 0.83867056331134215 forward_v I I I I #
coedge $-1 $278 $279 $280 $281 reversed $107 $-1 #
coedge $-1 $176 $109 $282 $283 reversed $69 $-1 #
coedge $-1 $109 $175 $278 $284 reversed $69 $-1 #
coedge $-1 $280 $285 $109 $178 forward $286 $-1 #
edge $-1 $287 -13.991893877394482 $288 -6.662195224178447 $177 $289 forward 7 unknown #
loop $-1 $-1 $184 $110 #
plane-surface $-1 -43.391035641544583 -25.37918949079355 47.928864133195816 0 0.54463904215088732 0.83867056331134215 1 0 0 forward_v I I I I #
loop $-1 $-1 $290 $71 #
coedge $-1 $182 $182 $183 $291 reversed $111 $-1 #
coedge $-1 $183 $183 $182 $291 forward $113 $-1 #
coedge $-1 $184 $184 $114 $185 forward $179 $-1 #
edge $-1 $292 4.0241661895087928e-015 $292 6.2831853071796049 $184 $293 forward 7 unknown #
loop $-1 $-1 $191 $115 #
plane-surface $-1 -43.391035641544583 -25.37918949079355 47.928864133195816 0 0.54463904215088732 0.83867056331134215 1 0 0 forward_v I I I I #
loop $-1 $-1 $294 $74 #
coedge $-1 $189 $189 $190 $295 reversed $116 $-1 #
coedge $-1 $190 $190 $189 $295 forward $118 $-1 #
coedge $-1 $191 $191 $119 $192 forward $186 $-1 #
edge $-1 $296 4.0241661895087928e-015 $296 6.2831853071796049 $191 $297 forward 7 unknown #
loop $-1 $-1 $198 $120 #
plane-surface $-1 -43.391035641544583 -25.37918949079355 47.928864133195816 0 0.54463904215088732 0.83867056331134215 1 0 0 forward_v I I I I #
loop $-1 $-1 $298 $77 #
coedge $-1 $196 $196 $197 $299 reversed $121 $-1 #
coedge $-1 $197 $197 $196 $299 forward $123 $-1 #
coedge $-1 $198 $198 $124 $199 forward $193 $-1 #
edge $-1 $300 4.0241661895087928e-015 $300 6.2831853071796049 $198 $301 forward 7 unknown #
face $-1 $302 $303 $30 $-1 $304 reversed single #
loop $-1 $-1 $305 $125 #
plane-surface $-1 -66.404614398632773 0 0 1 0 0 0 0 -1 forward_v I I I I #
coedge $-1 $306 $211 $307 $308 forward $126 $-1 #
coedge $-1 $309 $128 $306 $310 forward $81 $-1 #
coedge $-1 $128 $309 $311 $312 forward $81 $-1 #
coedge $-1 $214 $213 $128 $207 reversed $215 $-1 #
edge $-1 $313 -37.468844712468083 $314 37.468844712468083 $206 $315 forward 7 unknown #
coedge $-1 $130 $129 $316 $317 forward $51 $-1 #
coedge $-1 $318 $319 $129 $210 reversed $303 $-1 #
edge $-1 $217 -66.404614398632773 $320 66.404614398632773 $209 $321 forward 7 unknown #
coedge $-1 $203 $322 $130 $212 reversed $126 $-1 #
edge $-1 $323 -66.404614398632773 $216 66.404614398632773 $211 $324 forward 7 unknown #
coedge $-1 $206 $131 $322 $325 forward $215 $-1 #
coedge $-1 $131 $206 $318 $326 reversed $215 $-1 #
loop $-1 $-1 $213 $302 #
vertex $-1 $132 $327 #
vertex $-1 $132 $328 #
straight-curve $-1 66.404614398632773 0 11.874834793712191 0 1 0 I I #
face $-1 $329 $330 $31 $-1 $331 reversed single #
loop $-1 $-1 $332 $133 #
plane-surface $-1 -66.404614398632773 0 0 1 0 0 0 0 -1 forward_v I I I I #
coedge $-1 $230 $333 $224 $334 forward $134 $-1 #
coedge $-1 $139 $136 $335 $336 reversed $85 $-1 #
coedge $-1 $136 $139 $222 $334 reversed $85 $-1 #
coedge $-1 $337 $338 $136 $226 forward $339 $-1 #
edge $-1 $340 -11.874834793712191 $341 11.874834793712191 $225 $342 forward 7 unknown #
coedge $-1 $138 $137 $332 $343 reversed $54 $-1 #
coedge $-1 $335 $344 $137 $229 forward $330 $-1 #
edge $-1 $345 -35.917959460915327 $233 -25.055350414519566 $228 $346 forward 7 unknown #
coedge $-1 $347 $222 $138 $231 forward $134 $-1 #
edge $-1 $232 25.055350414519566 $348 35.917959460915327 $230 $349 forward 7 unknown #
vertex $-1 $231 $350 #
vertex $-1 $229 $351 #
straight-curve $-1 -55.542005352237013 -32.767255256224132 0 0 0 -1 I I #
face $-1 $352 $353 $32 $-1 $354 forward single #
loop $-1 $-1 $244 $141 #
plane-surface $-1 0 0 -11.874834793712191 0 0 1 1 0 0 forward_v I I I I #
coedge $-1 $355 $356 $357 $358 reversed $142 $-1 #
coedge $-1 $147 $144 $359 $360 reversed $89 $-1 #
coedge $-1 $144 $147 $361 $362 reversed $89 $-1 #
coedge $-1 $356 $355 $144 $242 reversed $142 $-1 #
edge $-1 $363 -11.874834793712191 $364 11.874834793712191 $241 $365 forward 7 unknown #
coedge $-1 $146 $145 $366 $367 reversed $57 $-1 #
coedge $-1 $359 $368 $145 $245 forward $236 $-1 #
edge $-1 $369 -35.715967314274764 $249 -25.661326854441256 $244 $370 forward 7 unknown #
coedge $-1 $371 $361 $146 $247 forward $353 $-1 #
edge $-1 $248 25.661326854441256 $372 35.715967314274764 $246 $373 forward 7 unknown #
vertex $-1 $247 $374 #
vertex $-1 $245 $375 #
straight-curve $-1 56.349973938799266 -17.626523792265179 0 0 0 -1 I I #
face $-1 $-1 $376 $33 $-1 $377 reversed single #
loop $-1 $-1 $155 $149 #
plane-surface $-1 0 0 11.874834793712191 0 0 1 1 0 0 forward_v I I I I #
coedge $-1 $378 $379 $380 $381 reversed $150 $-1 #
coedge $-1 $382 $152 $154 $261 forward $93 $-1 #
coedge $-1 $152 $382 $378 $383 forward $93 $-1 #
coedge $-1 $380 $155 $152 $258 forward $252 $-1 #
edge $-1 $264 -35.088970177201489 $384 -7.433037345994066 $257 $385 forward 7 unknown #
coedge $-1 $386 $387 $153 $260 forward $376 $-1 #
edge $-1 $388 -54.814929113443384 $263 -43.414076096793373 $259 $389 forward 7 unknown #
edge $-1 $264 -20.388049987249481 $388 0 $154 $390 forward 7 unknown #
coedge $-1 $155 $380 $386 $391 forward $252 $-1 #
vertex $-1 $156 $392 #
vertex $-1 $156 $393 #
straight-curve $-1 56.349973938799266 -55.867411968266495 11.874834793712189 0 1 0 I I #
coedge $-1 $266 $266 $-1 $394 reversed $159 $-1 #
edge $-1 $395 0 $395 6.2831853071796004 $160 $396 forward 7 unknown #
vertex $-1 $163 $397 #
ellipse-curve $-1 36.59573620222254 -29.017615027160065 6.1744082853871847 0 -0.55919291073839883 0.82903756765294845 2 0 0 1 I I #
coedge $-1 $270 $270 $-1 $398 reversed $166 $-1 #
edge $-1 $399 0 $399 6.2831853071796004 $167 $400 forward 7 unknown #
vertex $-1 $170 $401 #
ellipse-curve $-1 48.44827884416857 -29.017615027160065 6.1744082853871847 0 -0.55919291073839883 0.82903756765294845 2 0 0 1 I I #
face $-1 $-1 $286 $36 $-1 $402 forward single #
loop $-1 $-1 $403 $171 #
plane-surface $-1 0 37.468844712468083 0 0 -1 0 0 0 -1 forward_v I I I I #
coedge $-1 $404 $405 $406 $407 reversed $172 $-1 #
coedge $-1 $408 $174 $176 $284 forward $107 $-1 #
coedge $-1 $174 $408 $404 $409 forward $107 $-1 #
coedge $-1 $406 $177 $174 $281 forward $286 $-1 #
edge $-1 $288 -33.846487531464717 $410 -9.5445481100798624 $280 $411 forward 7 unknown #
coedge $-1 $412 $413 $175 $283 forward $275 $-1 #
edge $-1 $414 -72.541154686973812 $287 -67.781192637059519 $282 $415 forward 7 unknown #
edge $-1 $288 66.198025755001211 $414 74.937689424936167 $176 $416 forward 7 unknown #
coedge $-1 $177 $406 $412 $417 forward $286 $-1 #
loop $-1 $-1 $406 $274 #
vertex $-1 $283 $418 #
vertex $-1 $178 $419 #
straight-curve $-1 -55.542005352237013 23.476950835073602 11.874834793712196 0 -1 0 I I #
coedge $-1 $290 $290 $-1 $420 reversed $181 $-1 #
edge $-1 $421 0 $421 6.2831853071796004 $182 $422 forward 7 unknown #
vertex $-1 $185 $423 #
ellipse-curve $-1 -50.681617467960038 33.803995385860063 9.4948537687550374 0 0.54463904215088732 0.83867056331134215 1 0 0 1 I I #
coedge $-1 $294 $294 $-1 $424 reversed $188 $-1 #
edge $-1 $425 0 $425 6.2831853071796004 $189 $426 forward 7 unknown #
vertex $-1 $192 $427 #
ellipse-curve $-1 -43.391035641544583 33.803995385860063 9.4948537687550374 0 0.54463904215088732 0.83867056331134215 1 0 0 1 I I #
coedge $-1 $298 $298 $-1 $428 reversed $195 $-1 #
edge $-1 $429 0 $429 6.2831853071796004 $196 $430 forward 7 unknown #
vertex $-1 $199 $431 #
ellipse-curve $-1 -36.100453815129129 33.803995385860063 9.4948537687550374 0 0.54463904215088732 0.83867056331134215 1 0 0 1 I I #
face $-1 $-1 $215 $30 $-1 $432 reversed single #
loop $-1 $-1 $318 $200 #
plane-surface $-1 0 37.468844712468083 0 0 -1 0 0 0 -1 forward_v I I I I #
coedge $-1 $433 $316 $319 $434 forward $201 $-1 #
coedge $-1 $322 $203 $204 $310 reversed $126 $-1 #
coedge $-1 $316 $433 $203 $308 reversed $201 $-1 #
edge $-1 $323 -11.874834793712191 $435 11.874834793712191 $307 $436 forward 7 unknown #
coedge $-1 $205 $204 $433 $437 forward $81 $-1 #
edge $-1 $314 -66.404614398632773 $435 66.404614398632773 $306 $438 forward 7 unknown #
coedge $-1 $319 $318 $205 $312 reversed $303 $-1 #
edge $-1 $439 -66.404614398632773 $313 66.404614398632773 $311 $440 forward 7 unknown #
vertex $-1 $207 $441 #
vertex $-1 $325 $442 #
straight-curve $-1 66.404614398632773 0 -11.874834793712191 0 -1 0 I I #
coedge $-1 $305 $307 $208 $317 reversed $201 $-1 #
edge $-1 $320 -37.468844712468083 $323 37.468844712468083 $316 $443 forward 7 unknown #
coedge $-1 $311 $209 $214 $326 forward $303 $-1 #
coedge $-1 $209 $311 $305 $434 reversed $303 $-1 #
vertex $-1 $210 $444 #
straight-curve $-1 0 37.468844712468083 11.874834793712191 -1 0 0 I I #
coedge $-1 $211 $306 $213 $325 reversed $126 $-1 #
vertex $-1 $317 $445 #
straight-curve $-1 0 -37.468844712468083 11.874834793712191 1 0 0 I I #
edge $-1 $216 -11.874834793712191 $314 11.874834793712191 $213 $446 forward 7 unknown #
edge $-1 $217 -11.874834793712191 $313 11.874834793712191 $214 $447 forward 7 unknown #
point $-1 66.404614398632773 -37.468844712468083 11.874834793712191 #
point $-1 66.404614398632773 37.468844712468083 11.874834793712191 #
face $-1 $-1 $339 $31 $-1 $448 reversed single #
loop $-1 $-1 $335 $219 #
plane-surface $-1 0 0 -11.874834793712191 0 0 1 1 0 0 forward_v I I I I #
coedge $-1 $449 $450 $227 $343 forward $220 $-1 #
coedge $-1 $222 $347 $337 $451 forward $134 $-1 #
edge $-1 $341 -19.90981972029503 $232 -15.208230264051078 $222 $452 forward 7 unknown #
coedge $-1 $453 $228 $223 $336 forward $330 $-1 #
edge $-1 $233 15.208230264051078 $340 19.90981972029503 $335 $454 forward 7 unknown #
coedge $-1 $455 $225 $333 $451 reversed $339 $-1 #
coedge $-1 $225 $455 $453 $456 reversed $339 $-1 #
loop $-1 $-1 $225 $329 #
vertex $-1 $456 $457 #
vertex $-1 $226 $458 #
straight-curve $-1 -55.542005352237013 -37.468844712468083 0 0 0 1 I I #
edge $-1 $348 -11.874834793712191 $345 11.874834793712191 $332 $459 forward 7 unknown #
coedge $-1 $228 $453 $449 $460 forward $330 $-1 #
vertex $-1 $229 $461 #
straight-curve $-1 -30.486654937717447 -32.767255256224132 -11.874834793712191 1 0 0 I I #
coedge $-1 $333 $230 $450 $462 forward $134 $-1 #
vertex $-1 $462 $463 #
straight-curve $-1 -30.486654937717447 -32.767255256224132 11.874834793712191 -1 0 0 I I #
point $-1 -55.542005352237013 -32.767255256224132 11.874834793712191 #
point $-1 -55.542005352237013 -32.767255256224132 -11.874834793712191 #
face $-1 $-1 $464 $32 $-1 $465 reversed single #
loop $-1 $-1 $246 $235 #
plane-surface $-1 0 0 11.874834793712191 0 0 1 1 0 0 forward_v I I I I #
coedge $-1 $241 $238 $466 $467 reversed $142 $-1 #
coedge $-1 $238 $241 $468 $469 reversed $142 $-1 #
coedge $-1 $470 $471 $238 $358 forward $464 $-1 #
edge $-1 $472 -11.874834793712191 $473 11.874834793712191 $357 $474 forward 7 unknown #
coedge $-1 $466 $244 $239 $360 forward $236 $-1 #
edge $-1 $249 -9.7900990629379585 $364 -5.8827503957164815 $359 $475 forward 7 unknown #
coedge $-1 $246 $468 $240 $362 forward $353 $-1 #
edge $-1 $363 5.8827503957164815 $248 9.7900990629379585 $361 $476 forward 7 unknown #
vertex $-1 $362 $477 #
vertex $-1 $360 $478 #
straight-curve $-1 56.349973938799266 -13.719175125043702 0 0 0 -1 I I #
coedge $-1 $471 $470 $243 $367 forward $464 $-1 #
edge $-1 $372 -11.874834793712191 $369 11.874834793712191 $366 $479 forward 7 unknown #
coedge $-1 $244 $466 $471 $480 forward $236 $-1 #
vertex $-1 $367 $481 #
straight-curve $-1 30.68864708435801 -17.626523792265179 -11.874834793712191 -1 0 0 I I #
coedge $-1 $468 $246 $470 $482 forward $353 $-1 #
vertex $-1 $482 $483 #
straight-curve $-1 30.68864708435801 -17.626523792265179 11.874834793712191 1 0 0 I I #
point $-1 56.349973938799266 -17.626523792265179 11.874834793712191 #
point $-1 56.349973938799266 -17.626523792265179 -11.874834793712191 #
loop $-1 $-1 $259 $251 #
plane-surface $-1 0 -37.468844712468083 0 0 1 0 0 0 1 forward_v I I I I #
coedge $-1 $379 $254 $256 $383 reversed $150 $-1 #
coedge $-1 $254 $378 $484 $485 reversed $150 $-1 #
coedge $-1 $262 $257 $254 $381 forward $252 $-1 #
edge $-1 $384 -35.301026626414448 $486 -18.398567255798412 $380 $487 forward 7 unknown #
coedge $-1 $256 $255 $387 $488 reversed $93 $-1 #
edge $-1 $489 0 $384 20.388049987249481 $378 $490 forward 7 unknown #
vertex $-1 $258 $491 #
straight-curve $-1 21.261003761597777 -20.566385341852047 11.874834793712191 -1 0 0 I I #
coedge $-1 $484 $259 $262 $391 reversed $376 $-1 #
coedge $-1 $259 $484 $382 $488 forward $376 $-1 #
vertex $-1 $260 $492 #
straight-curve $-1 56.349973938799266 -37.468844712468083 55.288910890505562 0 0 1 I I #
straight-curve $-1 56.349973938799266 -37.468844712468083 0.47398177706217837 0 -0.82903756765294845 -0.55919291073839883 I I #
edge $-1 $486 28.694041107591843 $263 56.349973938799266 $386 $493 forward 7 unknown #
point $-1 56.349973938799266 -37.468844712468083 11.874834793712191 #
point $-1 56.349973938799266 -20.566385341852047 11.874834793712191 #
edge $-1 $494 1 $494 0 $266 $-1 forward 7 unknown #
vertex $-1 $267 $495 #
ellipse-curve $-1 36.59573620222254 -24.607658666678187 -0.3636207638757456 0 -0.55919291073839883 0.82903756765294845 2 0 0 1 I I #
point $-1 38.59573620222254 -29.017615027160062 6.1744082853871838 #
edge $-1 $496 1 $496 0 $270 $-1 forward 7 unknown #
vertex $-1 $271 $497 #
ellipse-curve $-1 48.44827884416857 -24.607658666678187 -0.3636207638757456 0 -0.55919291073839883 0.82903756765294845 2 0 0 1 I I #
point $-1 50.44827884416857 -29.017615027160062 6.1744082853871838 #
plane-surface $-1 0 0 11.874834793712191 0 0 1 1 0 0 forward_v I I I I #
coedge $-1 $413 $412 $405 $498 forward $275 $-1 #
coedge $-1 $405 $277 $279 $409 reversed $172 $-1 #
coedge $-1 $277 $404 $403 $498 reversed $172 $-1 #
coedge $-1 $285 $280 $277 $407 forward $286 $-1 #
edge $-1 $410 6.662195224178447 $499 13.991893877394482 $406 $500 forward 7 unknown #
coedge $-1 $279 $278 $413 $501 reversed $107 $-1 #
edge $-1 $502 -74.937689424936167 $410 -66.198025755001211 $404 $503 forward 7 unknown #
vertex $-1 $281 $504 #
straight-curve $-1 -21.695517820772292 30.139146059252052 11.874834793712186 1 0 0 I I #
coedge $-1 $403 $282 $285 $417 reversed $275 $-1 #
coedge $-1 $282 $403 $408 $501 forward $275 $-1 #
vertex $-1 $283 $505 #
straight-curve $-1 -55.542005352237013 37.468844712468083 79.656027430771715 0 0 1 I I #
straight-curve $-1 -55.542005352237013 -25.37918949079355 47.928864133195816 0 0.83867056331134215 -0.54463904215088732 I I #
edge $-1 $499 31.240065930852154 $287 55.542005352237013 $412 $506 forward 7 unknown #
point $-1 -55.542005352237013 37.468844712468083 11.874834793712191 #
point $-1 -55.542005352237013 30.139146059252049 11.874834793712189 #
edge $-1 $507 1 $507 0 $290 $-1 forward 7 unknown #
vertex $-1 $291 $508 #
ellipse-curve $-1 -50.681617467960038 32.917084937844407 8.1291314692546308 0 0.54463904215088732 0.83867056331134215 1 0 0 1 I I #
point $-1 -49.681617467960038 33.80399538586007 9.4948537687550409 #
edge $-1 $509 1 $509 0 $294 $-1 forward 7 unknown #
vertex $-1 $295 $510 #
ellipse-curve $-1 -43.391035641544583 32.917084937844407 8.1291314692546308 0 0.54463904215088732 0.83867056331134215 1 0 0 1 I I #
point $-1 -42.391035641544583 33.80399538586007 9.4948537687550409 #
edge $-1 $511 1 $511 0 $298 $-1 forward 7 unknown #
vertex $-1 $299 $512 #
ellipse-curve $-1 -36.100453815129129 32.917084937844407 8.1291314692546308 0 0.54463904215088732 0.83867056331134215 1 0 0 1 I I #
point $-1 -35.100453815129129 33.80399538586007 9.4948537687550409 #
plane-surface $-1 66.404614398632773 0 0 -1 0 0 0 0 1 forward_v I I I I #
coedge $-1 $307 $305 $309 $437 reversed $201 $-1 #
edge $-1 $320 -11.874834793712191 $439 11.874834793712191 $319 $513 forward 7 unknown #
vertex $-1 $437 $514 #
straight-curve $-1 -66.404614398632773 -37.468844712468083 0 0 0 -1 I I #
edge $-1 $435 -37.468844712468083 $439 37.468844712468083 $433 $515 forward 7 unknown #
straight-curve $-1 0 -37.468844712468083 -11.874834793712191 -1 0 0 I I #
vertex $-1 $312 $516 #
straight-curve $-1 0 37.468844712468083 -11.874834793712191 1 0 0 I I #
point $-1 66.404614398632773 37.468844712468083 -11.874834793712191 #
point $-1 66.404614398632773 -37.468844712468083 -11.874834793712191 #
straight-curve $-1 -66.404614398632773 0 11.874834793712191 0 -1 0 I I #
point $-1 -66.404614398632773 37.468844712468083 11.874834793712191 #
point $-1 -66.404614398632773 -37.468844712468083 11.874834793712191 #
straight-curve $-1 66.404614398632773 -37.468844712468083 0 0 0 -1 I I #
straight-curve $-1 66.404614398632773 37.468844712468083 0 0 0 -1 I I #
plane-surface $-1 0 -37.468844712468083 0 0 1 0 0 0 1 forward_v I I I I #
coedge $-1 $517 $332 $344 $460 reversed $220 $-1 #
coedge $-1 $332 $517 $347 $462 reversed $220 $-1 #
edge $-1 $518 -66.404614398632773 $341 -55.542005352237013 $337 $519 forward 7 unknown #
straight-curve $-1 -55.542005352237013 -17.559024992173054 11.874834793712191 0 1 0 I I #
coedge $-1 $344 $335 $338 $456 forward $330 $-1 #
straight-curve $-1 -55.542005352237013 -17.559024992173054 -11.874834793712191 0 -1 0 I I #
coedge $-1 $338 $337 $517 $520 forward $339 $-1 #
edge $-1 $340 55.542005352237013 $521 66.404614398632773 $338 $522 forward 7 unknown #
point $-1 -55.542005352237013 -37.468844712468083 -11.874834793712191 #
point $-1 -55.542005352237013 -37.468844712468083 11.874834793712191 #
straight-curve $-1 -66.404614398632773 -32.767255256224132 0 0 0 -1 I I #
edge $-1 $521 -37.468844712468083 $345 -32.767255256224132 $449 $523 forward 7 unknown #
point $-1 -66.404614398632773 -32.767255256224132 -11.874834793712191 #
edge $-1 $348 32.767255256224132 $518 37.468844712468083 $450 $524 forward 7 unknown #
point $-1 -66.404614398632773 -32.767255256224132 11.874834793712191 #
loop $-1 $-1 $366 $352 #
plane-surface $-1 66.404614398632773 0 0 -1 0 0 0 0 1 forward_v I I I I #
coedge $-1 $368 $359 $355 $467 forward $236 $-1 #
edge $-1 $364 25.661326854441256 $472 35.715967314274764 $466 $525 forward 7 unknown #
coedge $-1 $361 $371 $356 $469 forward $353 $-1 #
edge $-1 $473 -35.715967314274764 $363 -25.661326854441256 $468 $526 forward 7 unknown #
coedge $-1 $366 $357 $371 $482 reversed $464 $-1 #
coedge $-1 $357 $366 $368 $480 reversed $464 $-1 #
vertex $-1 $480 $527 #
vertex $-1 $358 $528 #
straight-curve $-1 66.404614398632773 -13.719175125043702 0 0 0 1 I I #
straight-curve $-1 56.349973938799266 -7.83642472932722 -11.874834793712191 0 1 0 I I #
straight-curve $-1 56.349973938799266 -7.83642472932722 11.874834793712191 0 -1 0 I I #
point $-1 56.349973938799266 -13.719175125043702 11.874834793712191 #
point $-1 56.349973938799266 -13.719175125043702 -11.874834793712191 #
straight-curve $-1 66.404614398632773 -17.626523792265179 0 0 0 -1 I I #
edge $-1 $472 13.719175125043702 $369 17.626523792265179 $471 $529 forward 7 unknown #
point $-1 66.404614398632773 -17.626523792265179 -11.874834793712191 #
edge $-1 $372 -17.626523792265179 $473 -13.719175125043702 $470 $530 forward 7 unknown #
point $-1 66.404614398632773 -17.626523792265179 11.874834793712191 #
coedge $-1 $387 $386 $379 $485 forward $376 $-1 #
edge $-1 $486 43.414076096793373 $489 54.814929113443384 $484 $531 forward 7 unknown #
vertex $-1 $391 $532 #
straight-curve $-1 28.694041107591843 -55.867411968266495 11.874834793712189 0 -1 0 I I #
edge $-1 $489 7.433037345994066 $388 35.088970177201489 $387 $533 forward 7 unknown #
vertex $-1 $488 $534 #
straight-curve $-1 28.694041107591843 -37.468844712468083 0.47398177706217837 0 0.82903756765294845 0.55919291073839883 I I #
point $-1 28.694041107591843 -20.566385341852047 11.874834793712191 #
point $-1 56.349973938799266 -37.468844712468083 0.47398177706217837 #
straight-curve $-1 0 -37.468844712468083 11.874834793712191 1 0 0 I I #
vertex $-1 $394 $535 #
point $-1 38.59573620222254 -24.607658666678187 -0.3636207638757456 #
vertex $-1 $398 $536 #
point $-1 50.44827884416857 -24.607658666678187 -0.3636207638757456 #
edge $-1 $499 67.781192637059519 $502 72.541154686973812 $403 $537 forward 7 unknown #
vertex $-1 $417 $538 #
straight-curve $-1 -31.240065930852154 23.476950835073602 11.874834793712196 0 1 0 I I #
edge $-1 $502 9.5445481100798624 $414 33.846487531464717 $413 $539 forward 7 unknown #
vertex $-1 $501 $540 #
straight-curve $-1 -31.240065930852154 -25.37918949079355 47.928864133195816 0 -0.83867056331134215 0.54463904215088732 I I #
point $-1 -31.240065930852154 30.139146059252049 11.874834793712189 #
point $-1 -55.542005352237013 37.468844712468083 7.1148727437978962 #
straight-curve $-1 0 37.468844712468083 11.874834793712191 -1 0 0 I I #
vertex $-1 $420 $541 #
point $-1 -49.681617467960038 32.917084937844407 8.1291314692546308 #
vertex $-1 $424 $542 #
point $-1 -42.391035641544583 32.917084937844407 8.1291314692546308 #
vertex $-1 $428 $543 #
point $-1 -35.100453815129129 32.917084937844407 8.1291314692546308 #
straight-curve $-1 -66.404614398632773 37.468844712468083 0 0 0 -1 I I #
point $-1 -66.404614398632773 -37.468844712468083 -11.874834793712191 #
straight-curve $-1 -66.404614398632773 0 -11.874834793712191 0 1 0 I I #
point $-1 -66.404614398632773 37.468844712468083 -11.874834793712191 #
coedge $-1 $450 $449 $455 $520 reversed $220 $-1 #
vertex $-1 $462 $544 #
straight-curve $-1 0 -37.468844712468083 11.874834793712191 1 0 0 I I #
edge $-1 $518 -11.874834793712191 $521 11.874834793712191 $517 $545 forward 7 unknown #
vertex $-1 $460 $546 #
straight-curve $-1 0 -37.468844712468083 -11.874834793712191 -1 0 0 I I #
straight-curve $-1 -66.404614398632773 0 -11.874834793712191 0 1 0 I I #
straight-curve $-1 -66.404614398632773 0 11.874834793712191 0 -1 0 I I #
straight-curve $-1 30.68864708435801 -13.719175125043702 -11.874834793712191 1 0 0 I I #
straight-curve $-1 30.68864708435801 -13.719175125043702 11.874834793712191 -1 0 0 I I #
point $-1 66.404614398632773 -13.719175125043702 -11.874834793712191 #
point $-1 66.404614398632773 -13.719175125043702 11.874834793712191 #
straight-curve $-1 66.404614398632773 0 -11.874834793712191 0 -1 0 I I #
straight-curve $-1 66.404614398632773 0 11.874834793712191 0 1 0 I I #
straight-curve $-1 28.694041107591843 -37.468844712468083 55.288910890505562 0 0 -1 I I #
point $-1 28.694041107591843 -37.468844712468083 11.874834793712191 #
straight-curve $-1 21.261003761597777 -37.468844712468083 0.47398177706217864 1 0 0 I I #
point $-1 28.694041107591843 -37.468844712468083 0.47398177706217837 #
point $-1 36.59573620222254 -23.489272845201388 -2.0216958991816423 #
point $-1 48.44827884416857 -23.489272845201388 -2.0216958991816423 #
straight-curve $-1 -31.240065930852154 37.468844712468083 79.656027430771715 0 0 -1 I I #
point $-1 -31.240065930852154 37.468844712468083 11.874834793712191 #
straight-curve $-1 -21.695517820772292 37.468844712468083 7.1148727437978962 -1 0 0 I I #
point $-1 -31.240065930852154 37.468844712468083 7.1148727437978962 #
point $-1 -50.681617467960038 32.372445895693517 7.2904609059432879 #
point $-1 -43.391035641544583 32.372445895693517 7.2904609059432879 #
point $-1 -36.100453815129129 32.372445895693517 7.2904609059432879 #
point $-1 -66.404614398632773 -37.468844712468083 11.874834793712191 #
straight-curve $-1 -66.404614398632773 -37.468844712468083 0 0 0 -1 I I #
point $-1 -66.404614398632773 -37.468844712468083 -11.874834793712191 #
End-of-ACIS-data 