500 0 7 0           
7 Unknown 11 ACIS 5.0 NT 24 Fri Mar 26 20:00:24 1999 
-1 9.9999999999999995e-007 1e-010 
body $-1 $7 $-1 $8 #
body $-1 $9 $-1 $10 #
body $-1 $11 $-1 $12 #
body $-1 $13 $-1 $14 #
body $-1 $15 $-1 $16 #
body $-1 $17 $-1 $18 #
body $-1 $19 $-1 $20 #
lump $-1 $-1 $21 $0 #
transform $-1 1 0 0 0 1 0 0 0 1 53.607593005157625 23.909343133496353 6.6383871280742763 1 rotate no_reflect no_shear #
lump $-1 $-1 $22 $1 #
transform $-1 1 0 0 0 1 0 0 0 1 53.607593005157625 23.909343133496353 6.6383871280742763 1 rotate no_reflect no_shear #
lump $-1 $-1 $23 $2 #
transform $-1 1 0 0 0 1 0 0 0 1 53.607593005157625 23.909343133496353 6.6383871280742763 1 rotate no_reflect no_shear #
lump $-1 $-1 $24 $3 #
transform $-1 1 0 0 0 1 0 0 0 1 53.607593005157625 23.909343133496353 6.6383871280742763 1 rotate no_reflect no_shear #
lump $-1 $-1 $25 $4 #
transform $-1 1 0 0 0 1 0 0 0 1 53.607593005157625 23.909343133496353 6.6383871280742763 1 rotate no_reflect no_shear #
lump $-1 $-1 $26 $5 #
transform $-1 1 0 0 0 1 0 0 0 1 53.607593005157625 23.909343133496353 6.6383871280742763 1 rotate no_reflect no_shear #
lump $-1 $-1 $27 $6 #
transform $-1 1 0 0 0 1 0 0 0 1 53.607593005157625 23.909343133496353 6.6383871280742763 1 rotate no_reflect no_shear #
shell $-1 $-1 $-1 $28 $-1 $7 #
shell $-1 $-1 $-1 $29 $-1 $9 #
shell $-1 $-1 $-1 $30 $-1 $11 #
shell $-1 $-1 $-1 $31 $-1 $13 #
shell $-1 $-1 $-1 $32 $-1 $15 #
shell $-1 $-1 $-1 $33 $-1 $17 #
shell $-1 $-1 $-1 $34 $-1 $19 #
face $-1 $35 $36 $21 $-1 $37 forward single #
face $-1 $38 $39 $22 $-1 $40 forward single #
face $-1 $41 $42 $23 $-1 $43 reversed single #
face $-1 $44 $45 $24 $-1 $46 forward single #
face $-1 $47 $48 $25 $-1 $49 forward single #
face $-1 $50 $51 $26 $-1 $52 reversed single #
face $-1 $53 $54 $27 $-1 $55 forward single #
face $-1 $56 $57 $21 $-1 $58 reversed single #
loop $-1 $-1 $59 $28 #
plane-surface $-1 0 0 6.6383871280742763 0 0 1 1 0 0 forward_v I I I I #
face $-1 $60 $61 $22 $-1 $62 reversed single #
loop $-1 $-1 $63 $29 #
plane-surface $-1 -53.607593005157625 0 0 1 0 0 0 0 -1 forward_v I I I I #
face $-1 $64 $65 $23 $-1 $66 reversed single #
loop $-1 $-1 $67 $30 #
plane-surface $-1 -0.6832926876573886 -85.405448240563331 88.626678511228832 -1 0 0 0 -0.57357644374324357 0.81915203911291934 forward_v I I I I #
face $-1 $68 $69 $24 $-1 $70 forward single #
loop $-1 $71 $72 $31 #
cone-surface $-1 -10.375557077578947 -18.363593511534123 1.7524563412995153 0 0.57357644374324357 -0.81915203911291934 1.5 0 0 1 I I 0 1 1.5 forward I I I I #
face $-1 $73 $74 $25 $-1 $75 forward single #
loop $-1 $76 $77 $32 #
cone-surface $-1 -4.5601984436260139 -18.363593511534123 1.7524563412995153 0 0.57357644374324357 -0.81915203911291934 1.5 0 0 1 I I 0 1 1.5 forward I I I I #
face $-1 $78 $79 $26 $-1 $80 reversed single #
loop $-1 $-1 $81 $33 #
plane-surface $-1 -8.6644536939175936 36.104739958986087 117.39155865179804 1 0 0 0 -0.50000000669873634 -0.8660253999169214 forward_v I I I I #
face $-1 $82 $83 $27 $-1 $84 forward single #
loop $-1 $85 $86 $34 #
cone-surface $-1 -1.3133118887903734 17.876491434997146 2.1964276083227992 0 -0.50000000669873634 -0.8660253999169214 2 0 0 1 I I 0 1 2 forward I I I I #
face $-1 $87 $88 $21 $-1 $89 reversed single #
loop $-1 $-1 $90 $35 #
plane-surface $-1 0 0 -6.6383871280742763 0 0 1 1 0 0 forward_v I I I I #
coedge $-1 $91 $92 $93 $94 forward $36 $-1 #
face $-1 $95 $96 $22 $-1 $97 forward single #
loop $-1 $-1 $98 $38 #
plane-surface $-1 0 23.909343133496353 0 0 -1 0 0 0 -1 forward_v I I I I #
coedge $-1 $99 $100 $101 $102 forward $39 $-1 #
face $-1 $103 $104 $23 $-1 $105 reversed single #
loop $-1 $-1 $106 $41 #
plane-surface $-1 -7.4678777606024767 -23.90934313349635 0.80114026700815089 0 -0.57357644374324357 0.81915203911291934 1 0 0 forward_v I I I I #
coedge $-1 $107 $108 $109 $110 reversed $42 $-1 #
face $-1 $-1 $111 $24 $-1 $112 forward single #
loop $-1 $113 $114 $44 #
cone-surface $-1 -10.375557077578947 -16.555887711453131 -0.82921504427686976 0 0.57357644374324357 -0.81915203911291934 0.75 0 0 1 I I -0.70710678118654757 0.70710678118654757 0.75 forward I I I I #
loop $-1 $-1 $115 $31 #
coedge $-1 $72 $72 $116 $117 reversed $45 $-1 #
face $-1 $-1 $118 $25 $-1 $119 forward single #
loop $-1 $120 $121 $47 #
cone-surface $-1 -4.5601984436260139 -16.555887711453131 -0.82921504427686976 0 0.57357644374324357 -0.81915203911291934 0.75 0 0 1 I I -0.70710678118654757 0.70710678118654757 0.75 forward I I I I #
loop $-1 $-1 $122 $32 #
coedge $-1 $77 $77 $123 $124 reversed $48 $-1 #
face $-1 $125 $126 $26 $-1 $127 reversed single #
loop $-1 $-1 $128 $50 #
plane-surface $-1 -1.3133118887903734 -17.502853764377804 24.54048431004766 0 0.50000000669873634 0.8660253999169214 1 0 0 forward_v I I I I #
coedge $-1 $129 $130 $131 $132 reversed $51 $-1 #
face $-1 $-1 $133 $27 $-1 $134 forward single #
loop $-1 $135 $136 $53 #
cone-surface $-1 -1.3133118887903734 16.546067515076206 -0.10793417542171646 0 -0.50000000669873634 -0.8660253999169214 1 0 0 1 I I -0.70710678118654757 0.70710678118654746 1 forward I I I I #
loop $-1 $-1 $137 $34 #
coedge $-1 $86 $86 $138 $139 reversed $54 $-1 #
face $-1 $140 $141 $21 $-1 $142 reversed single #
loop $-1 $-1 $143 $56 #
plane-surface $-1 0 -23.909343133496353 0 0 1 0 0 0 1 forward_v I I I I #
coedge $-1 $144 $145 $146 $147 forward $57 $-1 #
coedge $-1 $148 $59 $149 $150 forward $36 $-1 #
coedge $-1 $59 $148 $151 $152 forward $36 $-1 #
coedge $-1 $153 $154 $59 $94 reversed $155 $-1 #
edge $-1 $156 -23.909343133496353 $157 23.909343133496353 $93 $158 forward 7 unknown #
face $-1 $159 $160 $22 $-1 $161 reversed single #
loop $-1 $-1 $101 $60 #
plane-surface $-1 -57.551289693001465 0 -3.6383871280742763 0 0 1 1 0 0 forward_v I I I I #
coedge $-1 $162 $163 $100 $164 forward $61 $-1 #
coedge $-1 $165 $63 $166 $167 reversed $39 $-1 #
coedge $-1 $63 $165 $98 $164 reversed $39 $-1 #
coedge $-1 $168 $169 $63 $102 reversed $96 $-1 #
edge $-1 $170 -23.909343133496353 $171 23.909343133496353 $101 $172 forward 7 unknown #
face $-1 $173 $174 $23 $-1 $175 reversed single #
loop $-1 $-1 $176 $64 #
plane-surface $-1 -14.252462833547565 -85.405448240563331 88.626678511228832 1 0 0 0 0.57357644374324357 -0.81915203911291934 forward_v I I I I #
coedge $-1 $177 $178 $179 $180 reversed $65 $-1 #
coedge $-1 $108 $67 $181 $182 reversed $42 $-1 #
coedge $-1 $67 $107 $177 $183 reversed $42 $-1 #
coedge $-1 $179 $184 $67 $110 forward $185 $-1 #
edge $-1 $186 18.793380986785312 $187 27.129833296162655 $109 $188 forward 7 unknown #
loop $-1 $-1 $116 $68 #
plane-surface $-1 -7.4678777606024767 -23.90934313349635 0.80114026700815089 0 -0.57357644374324357 0.81915203911291934 1 0 0 forward_v I I I I #
loop $-1 $-1 $189 $44 #
coedge $-1 $114 $114 $115 $190 reversed $69 $-1 #
coedge $-1 $115 $115 $114 $190 forward $71 $-1 #
coedge $-1 $116 $116 $72 $117 forward $111 $-1 #
edge $-1 $191 -5.0943821938109186e-016 $191 6.2831853071795996 $116 $192 forward 7 unknown #
loop $-1 $-1 $123 $73 #
plane-surface $-1 -7.4678777606024767 -23.90934313349635 0.80114026700815089 0 -0.57357644374324357 0.81915203911291934 1 0 0 forward_v I I I I #
loop $-1 $-1 $193 $47 #
coedge $-1 $121 $121 $122 $194 reversed $74 $-1 #
coedge $-1 $122 $122 $121 $194 forward $76 $-1 #
coedge $-1 $123 $123 $77 $124 forward $118 $-1 #
edge $-1 $195 -5.0943821938109186e-016 $195 6.2831853071795996 $123 $196 forward 7 unknown #
face $-1 $197 $198 $26 $-1 $199 forward single #
loop $-1 $-1 $200 $78 #
plane-surface $-1 6.0378299163368467 36.104739958986087 117.39155865179804 -1 0 0 0 0.50000000669873634 0.8660253999169214 forward_v I I I I #
coedge $-1 $201 $202 $203 $204 reversed $79 $-1 #
coedge $-1 $130 $81 $205 $206 reversed $51 $-1 #
coedge $-1 $81 $129 $201 $207 reversed $51 $-1 #
coedge $-1 $203 $208 $81 $132 forward $198 $-1 #
edge $-1 $209 -5.8569731540033096 $210 4.5478824165506779 $131 $211 forward 7 unknown #
loop $-1 $-1 $138 $82 #
plane-surface $-1 -1.3133118887903734 -17.502853764377804 24.54048431004766 0 0.50000000669873634 0.8660253999169214 1 0 0 forward_v I I I I #
loop $-1 $-1 $212 $53 #
coedge $-1 $136 $136 $137 $213 reversed $83 $-1 #
coedge $-1 $137 $137 $136 $213 forward $85 $-1 #
coedge $-1 $138 $138 $86 $139 forward $133 $-1 #
edge $-1 $214 -9.5137439636246229e-016 $214 6.2831853071795996 $138 $215 forward 7 unknown #
face $-1 $216 $217 $21 $-1 $218 reversed single #
loop $-1 $-1 $219 $87 #
plane-surface $-1 -53.607593005157625 0 0 1 0 0 0 0 -1 forward_v I I I I #
coedge $-1 $220 $151 $219 $221 forward $88 $-1 #
coedge $-1 $222 $90 $220 $223 forward $57 $-1 #
coedge $-1 $90 $222 $224 $225 forward $57 $-1 #
coedge $-1 $154 $153 $90 $147 reversed $155 $-1 #
edge $-1 $226 -23.909343133496353 $227 23.909343133496353 $146 $228 forward 7 unknown #
coedge $-1 $92 $91 $229 $230 forward $36 $-1 #
coedge $-1 $231 $232 $91 $150 reversed $217 $-1 #
edge $-1 $157 -53.607593005157625 $233 53.607593005157625 $149 $234 forward 7 unknown #
coedge $-1 $143 $235 $92 $152 reversed $88 $-1 #
edge $-1 $236 -53.607593005157625 $156 53.607593005157625 $151 $237 forward 7 unknown #
coedge $-1 $146 $93 $235 $238 forward $155 $-1 #
coedge $-1 $93 $146 $231 $239 reversed $155 $-1 #
loop $-1 $-1 $153 $216 #
vertex $-1 $94 $240 #
vertex $-1 $94 $241 #
straight-curve $-1 53.607593005157625 0 6.6383871280742763 0 1 0 I I #
face $-1 $242 $243 $22 $-1 $244 reversed single #
loop $-1 $-1 $245 $95 #
plane-surface $-1 -61.494986380845305 0 -5.1383871280742763 1 0 0 0 0 -1 forward_v I I I I #
coedge $-1 $246 $98 $247 $248 reversed $61 $-1 #
coedge $-1 $98 $246 $168 $249 reversed $61 $-1 #
edge $-1 $170 3.6383871280742763 $250 6.6383871280742763 $98 $251 forward 7 unknown #
coedge $-1 $100 $99 $252 $253 reversed $39 $-1 #
coedge $-1 $254 $255 $99 $167 forward $256 $-1 #
edge $-1 $257 -6.6383871280742763 $171 -3.6383871280742763 $166 $258 forward 7 unknown #
coedge $-1 $259 $101 $163 $249 forward $96 $-1 #
coedge $-1 $101 $259 $254 $260 forward $96 $-1 #
vertex $-1 $164 $261 #
vertex $-1 $260 $262 #
straight-curve $-1 -53.607593005157625 0 -3.6383871280742763 0 -1 0 I I #
face $-1 $-1 $185 $23 $-1 $263 forward single #
loop $-1 $-1 $264 $103 #
plane-surface $-1 0 -23.909343133496353 0 0 1 0 0 0 1 forward_v I I I I #
coedge $-1 $265 $266 $267 $268 reversed $104 $-1 #
coedge $-1 $269 $106 $108 $183 forward $65 $-1 #
coedge $-1 $106 $269 $265 $270 forward $65 $-1 #
coedge $-1 $267 $109 $106 $180 forward $185 $-1 #
edge $-1 $187 -3.0506461926438497 $271 10.518523953246326 $179 $272 forward 7 unknown #
coedge $-1 $273 $274 $107 $182 forward $174 $-1 #
edge $-1 $275 -43.512198988606265 $186 -37.674952127540138 $181 $276 forward 7 unknown #
edge $-1 $187 -10.176929204015773 $275 4.3111677576717944e-015 $108 $277 forward 7 unknown #
coedge $-1 $109 $267 $273 $278 forward $185 $-1 #
loop $-1 $-1 $267 $173 #
vertex $-1 $182 $279 #
vertex $-1 $110 $280 #
straight-curve $-1 -0.6832926876573886 -42.702724120281665 6.6383871280742781 0 1 0 I I #
coedge $-1 $189 $189 $-1 $281 reversed $113 $-1 #
edge $-1 $282 0 $282 6.2831853071796004 $114 $283 forward 7 unknown #
vertex $-1 $117 $284 #
ellipse-curve $-1 -10.375557077578947 -19.741116978807682 3.7197636975412123 0 -0.57357644374324357 0.81915203911291934 1.5 0 0 1 I I #
coedge $-1 $193 $193 $-1 $285 reversed $120 $-1 #
edge $-1 $286 0 $286 6.2831853071796004 $121 $287 forward 7 unknown #
vertex $-1 $124 $288 #
ellipse-curve $-1 -4.5601984436260139 -19.741116978807682 3.7197636975412123 0 -0.57357644374324357 0.81915203911291934 1.5 0 0 1 I I #
face $-1 $-1 $289 $26 $-1 $290 reversed single #
loop $-1 $-1 $131 $125 #
plane-surface $-1 0 0 6.6383871280742763 0 0 1 1 0 0 forward_v I I I I #
coedge $-1 $291 $292 $293 $294 reversed $126 $-1 #
coedge $-1 $295 $128 $130 $207 forward $79 $-1 #
coedge $-1 $128 $295 $291 $296 forward $79 $-1 #
coedge $-1 $293 $131 $128 $204 forward $198 $-1 #
edge $-1 $210 -8.0077977495224069 $297 6.6944858607320334 $203 $298 forward 7 unknown #
coedge $-1 $299 $300 $129 $206 forward $289 $-1 #
edge $-1 $301 -58.064638469672488 $209 -52.05739219782474 $205 $302 forward 7 unknown #
edge $-1 $210 35.804193884261053 $301 47.818686266992714 $130 $303 forward 7 unknown #
coedge $-1 $131 $293 $299 $304 forward $198 $-1 #
vertex $-1 $206 $305 #
vertex $-1 $132 $306 #
straight-curve $-1 -8.6644536939175936 18.052369979493044 6.6383871280742781 0 -1 0 I I #
coedge $-1 $212 $212 $-1 $307 reversed $135 $-1 #
edge $-1 $308 0 $308 6.2831853071796004 $136 $309 forward 7 unknown #
vertex $-1 $139 $310 #
ellipse-curve $-1 -1.3133118887903734 18.706915348219358 3.6347639921504076 0 0.50000000669873634 0.8660253999169214 2 0 0 1 I I #
face $-1 $-1 $155 $21 $-1 $311 reversed single #
loop $-1 $-1 $231 $140 #
plane-surface $-1 0 23.909343133496353 0 0 -1 0 0 0 -1 forward_v I I I I #
coedge $-1 $229 $312 $143 $221 reversed $141 $-1 #
coedge $-1 $235 $143 $144 $223 reversed $88 $-1 #
edge $-1 $236 -6.6383871280742763 $313 6.6383871280742763 $219 $314 forward 7 unknown #
coedge $-1 $145 $144 $312 $315 forward $57 $-1 #
edge $-1 $227 -53.607593005157625 $313 53.607593005157625 $220 $316 forward 7 unknown #
coedge $-1 $232 $231 $145 $225 reversed $217 $-1 #
edge $-1 $317 -53.607593005157625 $226 53.607593005157625 $224 $318 forward 7 unknown #
vertex $-1 $147 $319 #
vertex $-1 $238 $320 #
straight-curve $-1 53.607593005157625 0 -6.6383871280742763 0 -1 0 I I #
coedge $-1 $321 $219 $148 $230 reversed $141 $-1 #
edge $-1 $233 -23.909343133496353 $236 23.909343133496353 $229 $322 forward 7 unknown #
coedge $-1 $224 $149 $154 $239 forward $217 $-1 #
coedge $-1 $149 $224 $321 $323 reversed $217 $-1 #
vertex $-1 $150 $324 #
straight-curve $-1 0 23.909343133496353 6.6383871280742763 -1 0 0 I I #
coedge $-1 $151 $220 $153 $238 reversed $88 $-1 #
vertex $-1 $230 $325 #
straight-curve $-1 0 -23.909343133496353 6.6383871280742763 1 0 0 I I #
edge $-1 $156 -6.6383871280742763 $227 6.6383871280742763 $153 $326 forward 7 unknown #
edge $-1 $157 -6.6383871280742763 $226 6.6383871280742763 $154 $327 forward 7 unknown #
point $-1 53.607593005157625 -23.909343133496353 6.6383871280742763 #
point $-1 53.607593005157625 23.909343133496353 6.6383871280742763 #
face $-1 $-1 $256 $22 $-1 $328 reversed single #
loop $-1 $-1 $252 $159 #
plane-surface $-1 0 0 -6.6383871280742763 0 0 1 1 0 0 forward_v I I I I #
coedge $-1 $329 $330 $246 $331 forward $160 $-1 #
coedge $-1 $163 $162 $245 $331 reversed $61 $-1 #
coedge $-1 $252 $332 $162 $248 forward $243 $-1 #
edge $-1 $333 -61.494986380845305 $250 -53.607593005157625 $162 $334 forward 7 unknown #
edge $-1 $170 -3.9436966878438398 $335 3.9436966878438398 $163 $336 forward 7 unknown #
vertex $-1 $164 $337 #
straight-curve $-1 -53.607593005157625 23.909343133496353 0 0 0 -1 I I #
coedge $-1 $338 $247 $165 $253 forward $243 $-1 #
edge $-1 $250 -23.909343133496353 $257 23.909343133496353 $252 $339 forward 7 unknown #
coedge $-1 $340 $166 $169 $260 reversed $256 $-1 #
coedge $-1 $166 $340 $338 $341 reversed $256 $-1 #
loop $-1 $-1 $166 $242 #
vertex $-1 $341 $342 #
straight-curve $-1 -53.607593005157625 -23.909343133496353 0 0 0 1 I I #
coedge $-1 $169 $168 $330 $343 forward $96 $-1 #
edge $-1 $344 -3.9436966878438398 $171 3.9436966878438398 $254 $345 forward 7 unknown #
point $-1 -53.607593005157625 23.909343133496353 -3.6383871280742763 #
point $-1 -53.607593005157625 -23.909343133496353 -3.6383871280742763 #
plane-surface $-1 0 0 6.6383871280742763 0 0 1 1 0 0 forward_v I I I I #
coedge $-1 $274 $273 $266 $346 forward $174 $-1 #
coedge $-1 $266 $176 $178 $270 reversed $104 $-1 #
coedge $-1 $176 $265 $264 $346 reversed $104 $-1 #
coedge $-1 $184 $179 $176 $268 forward $185 $-1 #
edge $-1 $271 -27.129833296162655 $347 -18.793380986785312 $267 $348 forward 7 unknown #
coedge $-1 $178 $177 $274 $349 reversed $65 $-1 #
edge $-1 $350 -4.3111677576717944e-015 $271 10.176929204015773 $265 $351 forward 7 unknown #
vertex $-1 $180 $352 #
straight-curve $-1 -3.7339388803012383 -15.57289082411901 6.6383871280742763 -1 0 0 I I #
coedge $-1 $264 $181 $184 $278 reversed $174 $-1 #
coedge $-1 $181 $264 $269 $349 forward $174 $-1 #
vertex $-1 $182 $353 #
straight-curve $-1 -0.6832926876573886 -23.909343133496353 44.313339255614416 0 0 1 I I #
straight-curve $-1 -0.6832926876573886 -23.90934313349635 0.80114026700815089 0 -0.81915203911291934 -0.57357644374324357 I I #
edge $-1 $347 -14.252462833547565 $186 -0.6832926876573886 $273 $354 forward 7 unknown #
point $-1 -0.6832926876573886 -23.909343133496353 6.6383871280742763 #
point $-1 -0.6832926876573886 -15.57289082411901 6.6383871280742763 #
edge $-1 $355 1 $355 0 $189 $-1 forward 7 unknown #
vertex $-1 $190 $356 #
ellipse-curve $-1 -10.375557077578947 -16.986070044260565 -0.21485101494218029 0 -0.57357644374324357 0.81915203911291934 1.5 0 0 1 I I #
point $-1 -8.8755570775789465 -19.741116978807682 3.7197636975412109 #
edge $-1 $357 1 $357 0 $193 $-1 forward 7 unknown #
vertex $-1 $194 $358 #
ellipse-curve $-1 -4.5601984436260139 -16.986070044260565 -0.21485101494218029 0 -0.57357644374324357 0.81915203911291934 1.5 0 0 1 I I #
point $-1 -3.0601984436260139 -19.741116978807682 3.7197636975412109 #
loop $-1 $-1 $205 $197 #
plane-surface $-1 0 23.909343133496353 0 0 -1 0 0 0 -1 forward_v I I I I #
coedge $-1 $292 $200 $202 $296 reversed $126 $-1 #
coedge $-1 $200 $291 $359 $360 reversed $126 $-1 #
coedge $-1 $208 $203 $200 $294 forward $198 $-1 #
edge $-1 $297 -4.5478824165506779 $361 5.8569731540033096 $293 $362 forward 7 unknown #
coedge $-1 $202 $201 $300 $363 reversed $79 $-1 #
edge $-1 $364 -47.818686266992714 $297 -35.804193884261053 $291 $365 forward 7 unknown #
vertex $-1 $204 $366 #
straight-curve $-1 -0.65665594439518671 13.504487562942373 6.6383871280742763 1 0 0 I I #
coedge $-1 $359 $205 $208 $304 reversed $289 $-1 #
coedge $-1 $205 $359 $295 $363 forward $289 $-1 #
vertex $-1 $206 $367 #
straight-curve $-1 -8.6644536939175936 23.909343133496353 58.695779325899018 0 0 1 I I #
straight-curve $-1 -8.6644536939175936 -17.502853764377804 24.54048431004766 0 0.8660253999169214 -0.50000000669873634 I I #
edge $-1 $361 -6.0378299163368467 $209 8.6644536939175936 $299 $368 forward 7 unknown #
point $-1 -8.6644536939175936 23.909343133496353 6.6383871280742763 #
point $-1 -8.6644536939175936 13.504487562942366 6.6383871280742781 #
edge $-1 $369 1 $369 0 $212 $-1 forward 7 unknown #
vertex $-1 $213 $370 #
ellipse-curve $-1 -1.3133118887903734 17.046067521774944 0.75809122449520472 0 0.50000000669873634 0.8660253999169214 2 0 0 1 I I #
point $-1 0.68668811120962658 18.706915348219347 3.6347639921503929 #
plane-surface $-1 53.607593005157625 0 0 -1 0 0 0 0 1 forward_v I I I I #
coedge $-1 $219 $321 $222 $315 reversed $141 $-1 #
vertex $-1 $315 $371 #
straight-curve $-1 -53.607593005157625 -23.909343133496353 0 0 0 -1 I I #
edge $-1 $313 -23.909343133496353 $317 23.909343133496353 $312 $372 forward 7 unknown #
straight-curve $-1 0 -23.909343133496353 -6.6383871280742763 -1 0 0 I I #
vertex $-1 $225 $373 #
straight-curve $-1 0 23.909343133496353 -6.6383871280742763 1 0 0 I I #
point $-1 53.607593005157625 23.909343133496353 -6.6383871280742763 #
point $-1 53.607593005157625 -23.909343133496353 -6.6383871280742763 #
coedge $-1 $312 $229 $232 $323 forward $141 $-1 #
straight-curve $-1 -53.607593005157625 0 6.6383871280742763 0 -1 0 I I #
edge $-1 $233 -6.6383871280742763 $317 6.6383871280742763 $232 $374 forward 7 unknown #
point $-1 -53.607593005157625 23.909343133496353 6.6383871280742763 #
point $-1 -53.607593005157625 -23.909343133496353 6.6383871280742763 #
straight-curve $-1 53.607593005157625 -23.909343133496353 0 0 0 -1 I I #
straight-curve $-1 53.607593005157625 23.909343133496353 0 0 0 -1 I I #
plane-surface $-1 0 -23.909343133496353 0 0 1 0 0 0 1 forward_v I I I I #
coedge $-1 $375 $245 $332 $376 reversed $160 $-1 #
coedge $-1 $245 $375 $259 $343 reversed $160 $-1 #
edge $-1 $335 -1.5 $333 1.5 $246 $377 forward 7 unknown #
coedge $-1 $247 $338 $329 $376 forward $243 $-1 #
vertex $-1 $248 $378 #
straight-curve $-1 0 23.909343133496353 -6.6383871280742763 1 0 0 I I #
vertex $-1 $249 $379 #
straight-curve $-1 -57.551289693001465 23.909343133496353 -3.6383871280742763 -1 0 0 I I #
point $-1 -53.607593005157625 23.909343133496353 -6.6383871280742763 #
coedge $-1 $332 $252 $255 $341 forward $243 $-1 #
straight-curve $-1 -53.607593005157625 0 -6.6383871280742763 0 -1 0 I I #
coedge $-1 $255 $254 $375 $380 forward $256 $-1 #
edge $-1 $257 -3.9436966878438398 $381 3.9436966878438398 $255 $382 forward 7 unknown #
point $-1 -53.607593005157625 -23.909343133496353 -6.6383871280742763 #
edge $-1 $335 -23.909343133496353 $344 23.909343133496353 $330 $383 forward 7 unknown #
vertex $-1 $343 $384 #
straight-curve $-1 -57.551289693001465 -23.909343133496353 -3.6383871280742763 1 0 0 I I #
edge $-1 $347 37.674952127540138 $350 43.512198988606265 $264 $385 forward 7 unknown #
vertex $-1 $278 $386 #
straight-curve $-1 -14.252462833547565 -42.702724120281665 6.6383871280742781 0 -1 0 I I #
edge $-1 $350 -10.518523953246326 $275 3.0506461926438497 $274 $387 forward 7 unknown #
vertex $-1 $349 $388 #
straight-curve $-1 -14.252462833547565 -23.90934313349635 0.80114026700815089 0 0.81915203911291934 0.57357644374324357 I I #
point $-1 -14.252462833547565 -15.57289082411901 6.6383871280742763 #
point $-1 -0.6832926876573886 -23.909343133496353 0.80114026700814844 #
straight-curve $-1 0 -23.909343133496353 6.6383871280742763 1 0 0 I I #
vertex $-1 $281 $389 #
point $-1 -8.8755570775789465 -16.986070044260565 -0.21485101494218029 #
vertex $-1 $285 $390 #
point $-1 -3.0601984436260139 -16.986070044260565 -0.21485101494218029 #
coedge $-1 $300 $299 $292 $360 forward $289 $-1 #
edge $-1 $361 52.05739219782474 $364 58.064638469672488 $359 $391 forward 7 unknown #
vertex $-1 $304 $392 #
straight-curve $-1 6.0378299163368467 18.052369979493044 6.6383871280742781 0 1 0 I I #
edge $-1 $364 -6.6944858607320334 $301 8.0077977495224069 $300 $393 forward 7 unknown #
vertex $-1 $363 $394 #
straight-curve $-1 6.0378299163368467 -17.502853764377804 24.54048431004766 0 -0.8660253999169214 0.50000000669873634 I I #
point $-1 6.0378299163368467 13.504487562942366 6.6383871280742781 #
point $-1 -8.6644536939175936 23.90934313349635 0.63114085622653349 #
straight-curve $-1 0 23.909343133496353 6.6383871280742763 -1 0 0 I I #
vertex $-1 $307 $395 #
point $-1 0.68668811120962658 17.046067521774944 0.75809122449520472 #
point $-1 -53.607593005157625 -23.909343133496353 -6.6383871280742763 #
straight-curve $-1 -53.607593005157625 0 -6.6383871280742763 0 1 0 I I #
point $-1 -53.607593005157625 23.909343133496353 -6.6383871280742763 #
straight-curve $-1 -53.607593005157625 23.909343133496353 0 0 0 -1 I I #
coedge $-1 $330 $329 $340 $380 reversed $160 $-1 #
edge $-1 $381 -23.909343133496353 $333 23.909343133496353 $329 $396 forward 7 unknown #
straight-curve $-1 -61.494986380845305 23.909343133496353 -5.1383871280742763 0 0 -1 I I #
point $-1 -61.494986380845305 23.909343133496353 -6.6383871280742763 #
point $-1 -61.494986380845305 23.909343133496353 -3.6383871280742763 #
edge $-1 $344 -1.5 $381 1.5 $375 $397 forward 7 unknown #
vertex $-1 $376 $398 #
straight-curve $-1 -57.551289693001465 -23.909343133496353 -6.6383871280742763 -1 0 0 I I #
straight-curve $-1 -61.494986380845305 0 -3.6383871280742763 0 -1 0 I I #
point $-1 -61.494986380845305 -23.909343133496353 -3.6383871280742763 #
straight-curve $-1 -14.252462833547565 -23.909343133496353 44.313339255614416 0 0 -1 I I #
point $-1 -14.252462833547565 -23.909343133496353 6.6383871280742763 #
straight-curve $-1 -3.7339388803012383 -23.909343133496353 0.801140267008148 1 0 0 I I #
point $-1 -14.252462833547565 -23.909343133496353 0.80114026700814844 #
point $-1 -10.375557077578947 -16.125705378645698 -1.4435790736115592 #
point $-1 -4.5601984436260139 -16.125705378645698 -1.4435790736115592 #
straight-curve $-1 6.0378299163368467 23.909343133496353 58.695779325899018 0 0 -1 I I #
point $-1 6.0378299163368467 23.909343133496353 6.6383871280742763 #
straight-curve $-1 -0.65665594439518671 23.909343133496353 0.63114085622653526 -1 0 0 I I #
point $-1 6.0378299163368467 23.90934313349635 0.63114085622653349 #
point $-1 -1.3133118887903734 16.046067508377469 -0.97395957533863764 #
straight-curve $-1 -61.494986380845305 0 -6.6383871280742763 0 1 0 I I #
straight-curve $-1 -61.494986380845305 -23.909343133496353 -5.1383871280742763 0 0 -1 I I #
point $-1 -61.494986380845305 -23.909343133496353 -6.6383871280742763 #
End-of-ACIS-data 