500 0 5 0           
7 Unknown 11 ACIS 5.0 NT 24 Thu Mar 25 15:24:12 1999 
-1 9.9999999999999995e-007 1e-010 
body $-1 $5 $-1 $6 #
body $-1 $7 $-1 $8 #
body $-1 $9 $-1 $10 #
body $-1 $11 $-1 $12 #
body $-1 $13 $-1 $14 #
lump $-1 $-1 $15 $0 #
transform $-1 1 0 0 0 1 0 0 0 1 60.064088869899592 40.928524731535724 19.760906786180843 1 rotate no_reflect no_shear #
lump $-1 $-1 $16 $1 #
transform $-1 1 0 0 0 1 0 0 0 1 60.064088869899592 40.928524731535724 19.760906786180843 1 rotate no_reflect no_shear #
lump $-1 $-1 $17 $2 #
transform $-1 1 0 0 0 1 0 0 0 1 60.064088869899592 40.928524731535724 19.760906786180843 1 rotate no_reflect no_shear #
lump $-1 $-1 $18 $3 #
transform $-1 1 0 0 0 1 0 0 0 1 60.064088869899592 40.928524731535724 19.760906786180843 1 rotate no_reflect no_shear #
lump $-1 $-1 $19 $4 #
transform $-1 1 0 0 0 1 0 0 0 1 60.064088869899592 40.928524731535724 19.760906786180843 1 rotate no_reflect no_shear #
shell $-1 $-1 $-1 $20 $-1 $5 #
shell $-1 $-1 $-1 $21 $-1 $7 #
shell $-1 $-1 $-1 $22 $-1 $9 #
shell $-1 $-1 $-1 $23 $-1 $11 #
shell $-1 $-1 $-1 $24 $-1 $13 #
face $-1 $25 $26 $15 $-1 $27 forward single #
face $-1 $28 $29 $16 $-1 $30 forward single #
face $-1 $31 $32 $17 $-1 $33 forward single #
face $-1 $34 $35 $18 $-1 $36 reversed single #
face $-1 $37 $38 $19 $-1 $39 reversed single #
face $-1 $40 $41 $15 $-1 $42 reversed single #
loop $-1 $-1 $43 $20 #
plane-surface $-1 0 0 19.760906786180843 0 0 1 1 0 0 forward_v I I I I #
face $-1 $44 $45 $16 $-1 $46 forward single #
loop $-1 $-1 $47 $21 #
plane-surface $-1 0 -30.996321608188573 8.9532280082900719 0 0 1 1 0 0 forward_v I I I I #
face $-1 $48 $49 $17 $-1 $50 forward single #
loop $-1 $-1 $51 $22 #
plane-surface $-1 65.993058170300785 14.258531181819286 178.92985903998814 0 -1 0 -0.73135370988377701 0 -0.68199835119979291 forward_v I I I I #
face $-1 $52 $53 $18 $-1 $54 reversed single #
loop $-1 $55 $56 $23 #
cone-surface $-1 52.540070172708305 1.2338570849761155 12.052500432408491 -0.73135370988377701 0 -0.68199835119979291 1.3639967023995858 0 -1.462707419767554 1 I I 0 1 2 forward I I I I #
face $-1 $57 $58 $19 $-1 $59 reversed single #
loop $-1 $60 $61 $24 #
cone-surface $-1 52.540070172708305 9.0486615430820265 12.052500432408491 -0.73135370988377701 0 -0.68199835119979291 1.3639967023995858 0 -1.462707419767554 1 I I 0 1 2 forward I I I I #
face $-1 $62 $63 $15 $-1 $64 reversed single #
loop $-1 $-1 $65 $25 #
plane-surface $-1 0 0 -19.760906786180843 0 0 1 1 0 0 forward_v I I I I #
coedge $-1 $66 $67 $68 $69 forward $26 $-1 #
face $-1 $70 $71 $16 $-1 $72 forward single #
loop $-1 $-1 $73 $28 #
plane-surface $-1 0 -21.064118484841423 14.357067397235458 0 -1 0 0 0 -1 forward_v I I I I #
coedge $-1 $74 $75 $76 $77 reversed $29 $-1 #
face $-1 $78 $79 $17 $-1 $80 forward single #
loop $-1 $-1 $81 $31 #
plane-surface $-1 -21.863130281279112 5.1412593140290639 97.002639888809441 0.73135370988377701 0 0.68199835119979291 0.68199835119979291 0 -0.73135370988377701 forward_v I I I I #
coedge $-1 $82 $83 $84 $85 reversed $32 $-1 #
face $-1 $86 $87 $18 $-1 $88 forward single #
loop $-1 $89 $90 $34 #
cone-surface $-1 49.233767517408353 1.2338570849761155 8.9693234019119892 -0.73135370988377701 0 -0.68199835119979291 0.68199835119979291 0 -0.73135370988377701 1 I I -0.70710678118654746 0.70710678118654746 1 forward I I I I #
loop $-1 $-1 $91 $23 #
coedge $-1 $56 $56 $92 $93 reversed $35 $-1 #
face $-1 $94 $95 $19 $-1 $96 reversed single #
loop $-1 $97 $98 $37 #
cone-surface $-1 49.233767517408353 9.0486615430820265 8.9693234019119892 -0.73135370988377701 0 -0.68199835119979291 0.68199835119979291 0 -0.73135370988377701 1 I I -0.70710678118654746 0.70710678118654746 1 forward I I I I #
loop $-1 $-1 $99 $24 #
coedge $-1 $61 $61 $100 $101 reversed $38 $-1 #
face $-1 $102 $103 $15 $-1 $104 reversed single #
loop $-1 $-1 $105 $40 #
plane-surface $-1 0 -40.928524731535724 0 0 1 0 0 0 1 forward_v I I I I #
coedge $-1 $106 $107 $108 $109 forward $41 $-1 #
coedge $-1 $110 $43 $111 $112 forward $26 $-1 #
coedge $-1 $43 $110 $113 $114 forward $26 $-1 #
coedge $-1 $115 $116 $43 $69 reversed $117 $-1 #
edge $-1 $118 -40.928524731535724 $119 40.928524731535724 $68 $120 forward 7 unknown #
face $-1 $121 $122 $16 $-1 $123 reversed single #
loop $-1 $-1 $124 $44 #
plane-surface $-1 0 0 19.760906786180843 0 0 1 1 0 0 forward_v I I I I #
coedge $-1 $125 $126 $127 $128 reversed $45 $-1 #
coedge $-1 $129 $47 $126 $130 reversed $29 $-1 #
coedge $-1 $47 $129 $131 $132 reversed $29 $-1 #
coedge $-1 $133 $127 $47 $77 forward $122 $-1 #
edge $-1 $134 5.565957680747136 $135 25.430363927441437 $76 $136 forward 7 unknown #
face $-1 $137 $138 $17 $-1 $139 forward single #
loop $-1 $-1 $140 $48 #
plane-surface $-1 65.993058170300785 -3.9760125537611586 178.92985903998814 0 1 0 0.73135370988377701 0 0.68199835119979291 forward_v I I I I #
coedge $-1 $141 $142 $143 $144 reversed $49 $-1 #
coedge $-1 $83 $51 $142 $145 forward $32 $-1 #
coedge $-1 $51 $82 $146 $147 reversed $32 $-1 #
coedge $-1 $148 $143 $51 $85 forward $138 $-1 #
edge $-1 $149 17.169420281199002 $150 27.0675597847492 $84 $151 forward 7 unknown #
face $-1 $152 $153 $18 $-1 $154 forward single #
loop $-1 $-1 $155 $52 #
plane-surface $-1 65.993058170300785 14.258531181819286 178.92985903998814 0 -1 0 -0.73135370988377701 0 -0.68199835119979291 forward_v I I I I #
loop $-1 $-1 $156 $34 #
coedge $-1 $90 $90 $91 $157 forward $53 $-1 #
coedge $-1 $91 $91 $90 $157 reversed $55 $-1 #
coedge $-1 $92 $92 $56 $93 forward $153 $-1 #
edge $-1 $158 0 $158 6.2831853071796004 $92 $159 forward 7 unknown #
face $-1 $160 $161 $19 $-1 $162 reversed single #
loop $-1 $163 $164 $57 #
cone-surface $-1 52.540070172708305 1.2338570849761155 12.052500432408491 -0.73135370988377701 0 -0.68199835119979291 1.3639967023995858 0 -1.462707419767554 1 I I 0 1 2 forward I I I I #
loop $-1 $-1 $165 $37 #
coedge $-1 $98 $98 $99 $166 forward $58 $-1 #
coedge $-1 $99 $99 $98 $166 reversed $60 $-1 #
coedge $-1 $100 $100 $61 $101 forward $167 $-1 #
edge $-1 $168 0 $168 6.2831853071796004 $100 $169 forward 7 unknown #
face $-1 $170 $171 $15 $-1 $172 reversed single #
loop $-1 $-1 $173 $62 #
plane-surface $-1 -60.064088869899592 0 0 1 0 0 0 0 -1 forward_v I I I I #
coedge $-1 $174 $113 $175 $176 forward $63 $-1 #
coedge $-1 $177 $65 $174 $178 forward $41 $-1 #
coedge $-1 $65 $177 $179 $180 forward $41 $-1 #
coedge $-1 $116 $115 $65 $109 reversed $117 $-1 #
edge $-1 $181 -40.928524731535724 $182 40.928524731535724 $108 $183 forward 7 unknown #
coedge $-1 $67 $66 $184 $185 forward $26 $-1 #
coedge $-1 $186 $187 $66 $112 reversed $171 $-1 #
edge $-1 $119 -60.064088869899592 $188 60.064088869899592 $111 $189 forward 7 unknown #
coedge $-1 $105 $190 $67 $114 reversed $63 $-1 #
edge $-1 $191 -60.064088869899592 $118 60.064088869899592 $113 $192 forward 7 unknown #
coedge $-1 $108 $68 $190 $193 forward $117 $-1 #
coedge $-1 $68 $108 $186 $194 reversed $117 $-1 #
loop $-1 $-1 $115 $170 #
vertex $-1 $69 $195 #
vertex $-1 $69 $196 #
straight-curve $-1 60.064088869899592 0 19.760906786180843 0 1 0 I I #
face $-1 $197 $198 $16 $-1 $199 reversed single #
loop $-1 $-1 $127 $70 #
plane-surface $-1 60.064088869899592 0 0 -1 0 0 0 0 1 forward_v I I I I #
coedge $-1 $200 $201 $125 $202 forward $71 $-1 #
coedge $-1 $203 $73 $124 $202 reversed $45 $-1 #
coedge $-1 $73 $203 $74 $130 forward $45 $-1 #
coedge $-1 $76 $204 $73 $128 forward $122 $-1 #
edge $-1 $205 -12.582373087563115 $134 -1.7746943096723431 $127 $206 forward 7 unknown #
coedge $-1 $75 $74 $207 $208 reversed $29 $-1 #
edge $-1 $209 -60.064088869899592 $134 60.064088869899592 $126 $210 forward 7 unknown #
coedge $-1 $211 $212 $75 $132 forward $213 $-1 #
edge $-1 $135 -60.064088869899592 $214 60.064088869899592 $131 $215 forward 7 unknown #
coedge $-1 $216 $76 $212 $217 forward $122 $-1 #
vertex $-1 $77 $218 #
vertex $-1 $217 $219 #
straight-curve $-1 60.064088869899592 -15.498160804094287 8.9532280082900719 0 -1 0 I I #
face $-1 $220 $221 $17 $-1 $222 forward single #
loop $-1 $-1 $223 $78 #
plane-surface $-1 0 0 19.760906786180843 0 0 1 1 0 0 forward_v I I I I #
coedge $-1 $224 $225 $223 $226 reversed $79 $-1 #
coedge $-1 $227 $81 $225 $228 reversed $49 $-1 #
coedge $-1 $81 $227 $82 $145 reversed $49 $-1 #
coedge $-1 $84 $223 $81 $144 forward $138 $-1 #
edge $-1 $229 -6.5466422107756905 $149 11.687901524804754 $143 $230 forward 7 unknown #
edge $-1 $149 105.61474162058119 $231 120.12817773979918 $82 $232 forward 7 unknown #
coedge $-1 $233 $234 $83 $147 forward $235 $-1 #
edge $-1 $150 69.704022733813233 $231 80.318478082764528 $146 $236 forward 7 unknown #
coedge $-1 $237 $84 $234 $238 forward $138 $-1 #
vertex $-1 $144 $239 #
vertex $-1 $238 $240 #
straight-curve $-1 32.996529085150392 14.258531181819286 19.76090678618084 1 0 0 I I #
face $-1 $241 $242 $18 $-1 $243 forward single #
loop $-1 $244 $92 $86 #
plane-surface $-1 -21.863130281279112 5.1412593140290639 97.002639888809441 0.73135370988377701 0 0.68199835119979291 0.68199835119979291 0 -0.73135370988377701 forward_v I I I I #
coedge $-1 $245 $246 $247 $248 reversed $87 $-1 #
coedge $-1 $156 $156 $-1 $249 forward $89 $-1 #
edge $-1 $250 0 $250 6.2831853071796004 $90 $251 forward 7 unknown #
vertex $-1 $93 $252 #
ellipse-curve $-1 55.115019118124494 1.2338570849761155 14.453679111705211 -0.73135370988377701 0 -0.68199835119979291 1.3639967023995858 0 -1.462707419767554 1 I I #
face $-1 $253 $254 $19 $-1 $255 forward single #
loop $-1 $256 $257 $94 #
cone-surface $-1 49.233767517408353 1.2338570849761155 8.9693234019119892 -0.73135370988377701 0 -0.68199835119979291 0.68199835119979291 0 -0.73135370988377701 1 I I -0.70710678118654746 0.70710678118654746 1 forward I I I I #
loop $-1 $-1 $258 $57 #
coedge $-1 $164 $164 $259 $260 reversed $95 $-1 #
coedge $-1 $165 $165 $-1 $261 forward $97 $-1 #
edge $-1 $262 0 $262 6.2831853071796004 $98 $263 forward 7 unknown #
loop $-1 $264 $100 $253 #
vertex $-1 $101 $265 #
ellipse-curve $-1 55.115019118124494 9.0486615430820265 14.453679111705211 -0.73135370988377701 0 -0.68199835119979291 1.3639967023995858 0 -1.462707419767554 1 I I #
face $-1 $-1 $117 $15 $-1 $266 reversed single #
loop $-1 $-1 $186 $102 #
plane-surface $-1 0 40.928524731535724 0 0 -1 0 0 0 -1 forward_v I I I I #
coedge $-1 $267 $184 $187 $268 forward $103 $-1 #
coedge $-1 $190 $105 $106 $178 reversed $63 $-1 #
coedge $-1 $184 $267 $105 $176 reversed $103 $-1 #
edge $-1 $191 -19.760906786180843 $269 19.760906786180843 $175 $270 forward 7 unknown #
coedge $-1 $107 $106 $267 $271 forward $41 $-1 #
edge $-1 $182 -60.064088869899592 $269 60.064088869899592 $174 $272 forward 7 unknown #
coedge $-1 $187 $186 $107 $180 reversed $171 $-1 #
edge $-1 $273 -60.064088869899592 $181 60.064088869899592 $179 $274 forward 7 unknown #
vertex $-1 $109 $275 #
vertex $-1 $193 $276 #
straight-curve $-1 60.064088869899592 0 -19.760906786180843 0 -1 0 I I #
coedge $-1 $173 $175 $110 $185 reversed $103 $-1 #
edge $-1 $188 -40.928524731535724 $191 40.928524731535724 $184 $277 forward 7 unknown #
coedge $-1 $179 $111 $116 $194 forward $171 $-1 #
coedge $-1 $111 $179 $173 $268 reversed $171 $-1 #
vertex $-1 $112 $278 #
straight-curve $-1 0 40.928524731535724 19.760906786180843 -1 0 0 I I #
coedge $-1 $113 $174 $115 $193 reversed $63 $-1 #
vertex $-1 $185 $279 #
straight-curve $-1 0 -40.928524731535724 19.760906786180843 1 0 0 I I #
edge $-1 $118 -19.760906786180843 $182 19.760906786180843 $115 $280 forward 7 unknown #
edge $-1 $119 -19.760906786180843 $181 19.760906786180843 $116 $281 forward 7 unknown #
point $-1 60.064088869899592 -40.928524731535724 19.760906786180843 #
point $-1 60.064088869899592 40.928524731535724 19.760906786180843 #
face $-1 $282 $213 $16 $-1 $283 reversed single #
loop $-1 $-1 $284 $121 #
plane-surface $-1 0 0 -19.760906786180843 0 0 1 1 0 0 forward_v I I I I #
coedge $-1 $285 $124 $204 $286 forward $71 $-1 #
coedge $-1 $124 $285 $287 $288 forward $71 $-1 #
edge $-1 $289 -60.064088869899592 $205 60.064088869899592 $124 $290 forward 7 unknown #
coedge $-1 $126 $125 $291 $292 reversed $45 $-1 #
coedge $-1 $127 $293 $200 $286 reversed $122 $-1 #
vertex $-1 $286 $294 #
straight-curve $-1 60.064088869899592 -21.064118484841423 7.1785336986177288 0 0 -1 I I #
coedge $-1 $291 $295 $129 $208 forward $296 $-1 #
edge $-1 $214 -25.430363927441437 $209 -5.565957680747136 $207 $297 forward 7 unknown #
vertex $-1 $208 $298 #
straight-curve $-1 0 -21.064118484841423 8.9532280082900719 1 0 0 I I #
coedge $-1 $299 $131 $295 $300 forward $213 $-1 #
coedge $-1 $131 $299 $133 $217 reversed $213 $-1 #
loop $-1 $-1 $131 $197 #
vertex $-1 $300 $301 #
straight-curve $-1 0 -40.928524731535724 8.9532280082900719 -1 0 0 I I #
coedge $-1 $293 $133 $284 $302 reversed $122 $-1 #
edge $-1 $135 -8.9532280082900719 $303 19.760906786180843 $133 $304 forward 7 unknown #
point $-1 60.064088869899592 -21.064118484841423 8.9532280082900719 #
point $-1 60.064088869899592 -40.928524731535724 8.9532280082900719 #
face $-1 $305 $306 $17 $-1 $307 forward single #
loop $-1 $-1 $308 $137 #
plane-surface $-1 0 -30.996321608188573 8.9532280082900719 0 0 1 1 0 0 forward_v I I I I #
coedge $-1 $143 $309 $140 $226 forward $138 $-1 #
coedge $-1 $225 $140 $310 $311 reversed $79 $-1 #
coedge $-1 $140 $224 $141 $228 forward $79 $-1 #
edge $-1 $312 -27.0675597847492 $229 -17.169420281199002 $223 $313 forward 7 unknown #
coedge $-1 $142 $141 $233 $314 reversed $49 $-1 #
edge $-1 $315 -120.12817773979918 $229 -105.61474162058119 $225 $316 forward 7 unknown #
vertex $-1 $144 $317 #
straight-curve $-1 50.165949366349395 2.5706296570145319 19.76090678618084 0 1 0 I I #
vertex $-1 $314 $318 #
straight-curve $-1 -21.863130281279112 14.258531181819286 97.002639888809441 0.68199835119979291 0 -0.73135370988377701 I I #
coedge $-1 $310 $146 $227 $314 forward $235 $-1 #
coedge $-1 $146 $319 $148 $238 reversed $235 $-1 #
loop $-1 $-1 $310 $305 #
straight-curve $-1 60.064088869899592 14.258531181819286 89.464929519994072 0 0 -1 I I #
coedge $-1 $320 $148 $321 $322 forward $138 $-1 #
edge $-1 $150 14.258531181819286 $323 40.928524731535724 $234 $324 forward 7 unknown #
point $-1 50.165949366349395 14.258531181819286 19.76090678618084 #
point $-1 60.064088869899592 14.258531181819286 19.760906786180843 #
face $-1 $325 $326 $18 $-1 $327 forward single #
loop $-1 $-1 $328 $152 #
plane-surface $-1 65.993058170300785 -3.9760125537611586 178.92985903998814 0 1 0 0.73135370988377701 0 0.68199835119979291 forward_v I I I I #
loop $-1 $-1 $329 $86 #
coedge $-1 $246 $155 $330 $331 forward $87 $-1 #
coedge $-1 $155 $245 $332 $333 reversed $87 $-1 #
coedge $-1 $334 $335 $155 $248 forward $326 $-1 #
edge $-1 $336 17.169420281199002 $337 27.0675597847492 $247 $338 forward 7 unknown #
edge $-1 $339 1 $339 0 $156 $-1 forward 7 unknown #
vertex $-1 $157 $340 #
ellipse-curve $-1 49.96512122729213 1.2338570849761155 9.6513217531117821 0.73135370988377701 0 0.68199835119979291 1.3639967023995858 0 -1.462707419767554 1 I I #
point $-1 56.479015820524069 1.2338570849761155 12.990971691937649 #
face $-1 $341 $167 $19 $-1 $342 forward single #
loop $-1 $-1 $343 $160 #
plane-surface $-1 65.993058170300785 14.258531181819286 178.92985903998814 0 -1 0 -0.73135370988377701 0 -0.68199835119979291 forward_v I I I I #
loop $-1 $-1 $344 $94 #
coedge $-1 $257 $257 $258 $345 forward $161 $-1 #
coedge $-1 $258 $258 $257 $345 reversed $163 $-1 #
coedge $-1 $259 $259 $164 $260 forward $264 $-1 #
edge $-1 $346 0 $346 6.2831853071796004 $259 $347 forward 7 unknown #
edge $-1 $348 1 $348 0 $165 $-1 forward 7 unknown #
vertex $-1 $166 $349 #
ellipse-curve $-1 49.96512122729213 9.0486615430820265 9.6513217531117821 0.73135370988377701 0 0.68199835119979291 1.3639967023995858 0 -1.462707419767554 1 I I #
loop $-1 $350 $259 $253 #
point $-1 56.479015820524069 9.0486615430820265 12.990971691937649 #
plane-surface $-1 60.064088869899592 0 0 -1 0 0 0 0 1 forward_v I I I I #
coedge $-1 $175 $173 $177 $271 reversed $103 $-1 #
edge $-1 $188 -19.760906786180843 $273 19.760906786180843 $187 $351 forward 7 unknown #
vertex $-1 $271 $352 #
straight-curve $-1 -60.064088869899592 -40.928524731535724 0 0 0 -1 I I #
edge $-1 $269 -40.928524731535724 $273 40.928524731535724 $267 $353 forward 7 unknown #
straight-curve $-1 0 -40.928524731535724 -19.760906786180843 -1 0 0 I I #
vertex $-1 $180 $354 #
straight-curve $-1 0 40.928524731535724 -19.760906786180843 1 0 0 I I #
point $-1 60.064088869899592 40.928524731535724 -19.760906786180843 #
point $-1 60.064088869899592 -40.928524731535724 -19.760906786180843 #
straight-curve $-1 -60.064088869899592 0 19.760906786180843 0 -1 0 I I #
point $-1 -60.064088869899592 40.928524731535724 19.760906786180843 #
point $-1 -60.064088869899592 -40.928524731535724 19.760906786180843 #
straight-curve $-1 60.064088869899592 -40.928524731535724 0 0 0 -1 I I #
straight-curve $-1 60.064088869899592 40.928524731535724 0 0 0 -1 I I #
face $-1 $355 $296 $16 $-1 $356 reversed single #
plane-surface $-1 0 -40.928524731535724 0 0 1 0 0 0 1 forward_v I I I I #
coedge $-1 $357 $358 $216 $302 forward $198 $-1 #
coedge $-1 $201 $200 $359 $360 forward $71 $-1 #
edge $-1 $205 -21.064118484841423 $361 40.928524731535724 $204 $362 forward 7 unknown #
coedge $-1 $363 $291 $201 $288 reversed $296 $-1 #
edge $-1 $364 -40.928524731535724 $289 21.064118484841423 $287 $365 forward 7 unknown #
vertex $-1 $292 $366 #
straight-curve $-1 0 -21.064118484841423 19.760906786180843 1 0 0 I I #
coedge $-1 $287 $207 $203 $292 forward $296 $-1 #
edge $-1 $209 1.7746943096723431 $289 12.582373087563115 $291 $367 forward 7 unknown #
coedge $-1 $204 $216 $368 $369 reversed $122 $-1 #
point $-1 60.064088869899592 -21.064118484841423 19.760906786180843 #
coedge $-1 $207 $370 $211 $300 reversed $296 $-1 #
loop $-1 $-1 $291 $282 #
straight-curve $-1 -60.064088869899592 -15.498160804094287 8.9532280082900719 0 1 0 I I #
point $-1 -60.064088869899592 -21.064118484841423 8.9532280082900719 #
coedge $-1 $212 $211 $357 $371 reversed $213 $-1 #
edge $-1 $214 -8.9532280082900719 $372 19.760906786180843 $295 $373 forward 7 unknown #
point $-1 -60.064088869899592 -40.928524731535724 8.9532280082900719 #
edge $-1 $374 -40.928524731535724 $303 40.928524731535724 $216 $375 forward 7 unknown #
vertex $-1 $217 $376 #
straight-curve $-1 60.064088869899592 -40.928524731535724 0 0 0 -1 I I #
face $-1 $377 $235 $17 $-1 $378 reversed single #
loop $-1 $-1 $379 $220 #
plane-surface $-1 0 -21.064118484841423 14.357067397235458 0 -1 0 0 0 -1 forward_v I I I I #
coedge $-1 $380 $381 $382 $383 reversed $221 $-1 #
coedge $-1 $223 $384 $385 $386 forward $138 $-1 #
coedge $-1 $385 $233 $224 $311 forward $235 $-1 #
edge $-1 $315 -80.318478082764528 $312 -69.704022733813233 $310 $387 forward 7 unknown #
vertex $-1 $311 $388 #
straight-curve $-1 32.996529085150392 -3.9760125537611586 19.76090678618084 -1 0 0 I I #
edge $-1 $231 -11.687901524804754 $315 6.5466422107756905 $233 $389 forward 7 unknown #
vertex $-1 $314 $390 #
straight-curve $-1 -21.863130281279112 -3.9760125537611586 97.002639888809441 -0.68199835119979291 0 0.73135370988377701 I I #
point $-1 50.165949366349395 -3.9760125537611586 19.76090678618084 #
point $-1 60.064088869899592 14.258531181819286 9.146451437229544 #
coedge $-1 $234 $391 $392 $393 reversed $235 $-1 #
coedge $-1 $384 $237 $394 $395 forward $138 $-1 #
coedge $-1 $392 $396 $237 $322 reversed $397 $-1 #
edge $-1 $323 -60.064088869899592 $398 60.064088869899592 $321 $399 forward 7 unknown #
vertex $-1 $238 $400 #
straight-curve $-1 60.064088869899592 0 19.760906786180843 0 1 0 I I #
face $-1 $401 $402 $18 $-1 $403 forward single #
loop $-1 $-1 $404 $241 #
plane-surface $-1 0 0 19.760906786180843 0 0 1 1 0 0 forward_v I I I I #
coedge $-1 $405 $406 $404 $407 reversed $242 $-1 #
coedge $-1 $408 $330 $335 $409 reversed $244 $-1 #
coedge $-1 $329 $410 $245 $331 reversed $244 $-1 #
edge $-1 $336 105.61474162058119 $411 120.12817773979918 $245 $412 forward 7 unknown #
coedge $-1 $413 $414 $246 $333 forward $415 $-1 #
edge $-1 $337 69.704022733813233 $411 80.318478082764528 $332 $416 forward 7 unknown #
coedge $-1 $417 $247 $414 $418 forward $326 $-1 #
coedge $-1 $247 $404 $329 $409 forward $326 $-1 #
vertex $-1 $409 $419 #
vertex $-1 $418 $420 #
straight-curve $-1 32.996529085150392 14.258531181819286 19.76090678618084 1 0 0 I I #
vertex $-1 $249 $421 #
point $-1 51.329117929691719 1.2338570849761155 8.1886143333442281 #
face $-1 $422 $423 $19 $-1 $424 forward single #
plane-surface $-1 -21.863130281279112 5.1412593140290639 97.002639888809441 0.73135370988377701 0 0.68199835119979291 0.68199835119979291 0 -0.73135370988377701 forward_v I I I I #
coedge $-1 $425 $426 $427 $428 reversed $254 $-1 #
coedge $-1 $344 $344 $-1 $429 forward $256 $-1 #
edge $-1 $430 0 $430 6.2831853071796004 $257 $431 forward 7 unknown #
vertex $-1 $260 $432 #
ellipse-curve $-1 55.115019118124494 1.2338570849761155 14.453679111705211 -0.73135370988377701 0 -0.68199835119979291 1.3639967023995858 0 -1.462707419767554 1 I I #
vertex $-1 $261 $433 #
point $-1 51.329117929691719 9.0486615430820265 8.1886143333442281 #
loop $-1 $-1 $434 $253 #
straight-curve $-1 -60.064088869899592 40.928524731535724 0 0 0 -1 I I #
point $-1 -60.064088869899592 -40.928524731535724 -19.760906786180843 #
straight-curve $-1 -60.064088869899592 0 -19.760906786180843 0 1 0 I I #
point $-1 -60.064088869899592 40.928524731535724 -19.760906786180843 #
face $-1 $-1 $435 $16 $-1 $436 reversed single #
plane-surface $-1 -60.064088869899592 0 0 1 0 0 0 0 -1 forward_v I I I I #
coedge $-1 $437 $284 $299 $371 forward $198 $-1 #
coedge $-1 $284 $437 $438 $439 forward $198 $-1 #
coedge $-1 $368 $440 $285 $360 reversed $435 $-1 #
edge $-1 $361 -60.064088869899592 $364 60.064088869899592 $359 $441 forward 7 unknown #
vertex $-1 $286 $442 #
straight-curve $-1 60.064088869899592 0 19.760906786180843 0 1 0 I I #
coedge $-1 $370 $287 $440 $443 forward $296 $-1 #
vertex $-1 $360 $444 #
straight-curve $-1 -60.064088869899592 0 19.760906786180843 0 -1 0 I I #
point $-1 -60.064088869899592 -21.064118484841423 19.760906786180843 #
straight-curve $-1 -60.064088869899592 -21.064118484841423 7.1785336986177288 0 0 1 I I #
coedge $-1 $438 $359 $293 $369 forward $435 $-1 #
edge $-1 $361 -19.760906786180843 $374 19.760906786180843 $293 $445 forward 7 unknown #
coedge $-1 $295 $363 $437 $446 reversed $296 $-1 #
edge $-1 $303 -60.064088869899592 $372 60.064088869899592 $299 $447 forward 7 unknown #
vertex $-1 $446 $448 #
straight-curve $-1 -60.064088869899592 -40.928524731535724 0 0 0 -1 I I #
vertex $-1 $302 $449 #
straight-curve $-1 60.064088869899592 0 -19.760906786180843 0 -1 0 I I #
point $-1 60.064088869899592 -40.928524731535724 -19.760906786180843 #
face $-1 $450 $451 $17 $-1 $452 reversed single #
plane-surface $-1 60.064088869899592 0 0 -1 0 0 0 0 1 forward_v I I I I #
coedge $-1 $453 $454 $455 $456 reversed $306 $-1 #
coedge $-1 $457 $308 $454 $458 reversed $221 $-1 #
coedge $-1 $308 $457 $459 $460 reversed $221 $-1 #
coedge $-1 $461 $455 $308 $383 forward $235 $-1 #
edge $-1 $462 5.565957680747136 $463 25.430363927441437 $382 $464 forward 7 unknown #
coedge $-1 $309 $320 $453 $465 forward $138 $-1 #
coedge $-1 $455 $310 $309 $386 reversed $235 $-1 #
edge $-1 $466 -21.064118484841423 $312 -3.9760125537611586 $385 $324 forward 7 unknown #
straight-curve $-1 60.064088869899592 -3.9760125537611586 89.464929519994072 0 0 1 I I #
point $-1 60.064088869899592 -3.9760125537611586 19.760906786180843 #
straight-curve $-1 60.064088869899592 2.5706296570145319 9.1464514372295511 0 -1 0 I I #
point $-1 60.064088869899592 -3.9760125537611586 9.146451437229544 #
coedge $-1 $319 $461 $467 $468 reversed $235 $-1 #
coedge $-1 $469 $321 $319 $393 forward $397 $-1 #
edge $-1 $323 -19.760906786180843 $470 19.760906786180843 $319 $471 forward 7 unknown #
coedge $-1 $472 $473 $320 $395 reversed $474 $-1 #
edge $-1 $398 -40.928524731535724 $475 21.064118484841423 $394 $476 forward 7 unknown #
coedge $-1 $321 $469 $472 $477 reversed $397 $-1 #
loop $-1 $-1 $392 $478 #
vertex $-1 $322 $479 #
straight-curve $-1 0 40.928524731535724 19.760906786180843 -1 0 0 I I #
point $-1 60.064088869899592 40.928524731535724 19.760906786180843 #
face $-1 $480 $481 $18 $-1 $482 forward single #
loop $-1 $-1 $483 $325 #
plane-surface $-1 0 -30.996321608188573 8.9532280082900719 0 0 1 1 0 0 forward_v I I I I #
coedge $-1 $335 $484 $328 $407 forward $326 $-1 #
coedge $-1 $406 $328 $485 $486 reversed $242 $-1 #
coedge $-1 $328 $405 $408 $487 forward $242 $-1 #
edge $-1 $488 -27.0675597847492 $489 -17.169420281199002 $404 $490 forward 7 unknown #
coedge $-1 $410 $329 $406 $487 reversed $244 $-1 #
edge $-1 $489 -6.5466422107756905 $336 11.687901524804754 $335 $491 forward 7 unknown #
coedge $-1 $330 $408 $413 $492 reversed $244 $-1 #
vertex $-1 $492 $493 #
straight-curve $-1 -21.863130281279112 14.258531181819286 97.002639888809441 0.68199835119979291 0 -0.73135370988377701 I I #
coedge $-1 $485 $332 $410 $492 forward $415 $-1 #
coedge $-1 $332 $494 $334 $418 reversed $415 $-1 #
loop $-1 $-1 $485 $480 #
straight-curve $-1 60.064088869899592 14.258531181819286 89.464929519994072 0 0 -1 I I #
coedge $-1 $495 $334 $496 $497 forward $326 $-1 #
edge $-1 $337 14.258531181819286 $498 40.928524731535724 $414 $499 forward 7 unknown #
point $-1 50.165949366349395 14.258531181819286 19.76090678618084 #
point $-1 60.064088869899592 14.258531181819286 19.760906786180843 #
point $-1 48.502413807524576 1.2338570849761155 8.2873250507121963 #
face $-1 $500 $501 $19 $-1 $502 forward single #
loop $-1 $-1 $503 $341 #
plane-surface $-1 65.993058170300785 -3.9760125537611586 178.92985903998814 0 1 0 0.73135370988377701 0 0.68199835119979291 forward_v I I I I #
coedge $-1 $426 $343 $504 $505 forward $254 $-1 #
coedge $-1 $343 $425 $506 $507 reversed $254 $-1 #
coedge $-1 $508 $509 $343 $428 forward $501 $-1 #
edge $-1 $510 17.169420281199002 $511 27.0675597847492 $427 $512 forward 7 unknown #
edge $-1 $513 1 $513 0 $344 $-1 forward 7 unknown #
vertex $-1 $345 $514 #
ellipse-curve $-1 49.96512122729213 1.2338570849761155 9.6513217531117821 0.73135370988377701 0 0.68199835119979291 1.3639967023995858 0 -1.462707419767554 1 I I #
point $-1 56.479015820524069 1.2338570849761155 12.990971691937649 #
point $-1 48.502413807524576 9.0486615430820265 8.2873250507121963 #
coedge $-1 $515 $504 $509 $516 reversed $350 $-1 #
loop $-1 $-1 $368 $355 #
plane-surface $-1 0 40.928524731535724 0 0 -1 0 0 0 -1 forward_v I I I I #
coedge $-1 $358 $357 $370 $446 forward $198 $-1 #
coedge $-1 $440 $368 $358 $439 reversed $435 $-1 #
edge $-1 $517 -60.064088869899592 $374 60.064088869899592 $438 $518 forward 7 unknown #
coedge $-1 $359 $438 $363 $443 reversed $435 $-1 #
straight-curve $-1 0 40.928524731535724 19.760906786180843 -1 0 0 I I #
point $-1 60.064088869899592 40.928524731535724 19.760906786180843 #
edge $-1 $364 -19.760906786180843 $517 19.760906786180843 $440 $519 forward 7 unknown #
point $-1 -60.064088869899592 40.928524731535724 19.760906786180843 #
straight-curve $-1 60.064088869899592 40.928524731535724 0 0 0 -1 I I #
edge $-1 $372 -40.928524731535724 $517 40.928524731535724 $370 $520 forward 7 unknown #
straight-curve $-1 0 -40.928524731535724 -19.760906786180843 -1 0 0 I I #
point $-1 -60.064088869899592 -40.928524731535724 -19.760906786180843 #
point $-1 60.064088869899592 40.928524731535724 -19.760906786180843 #
face $-1 $521 $522 $17 $-1 $523 reversed single #
loop $-1 $-1 $467 $377 #
plane-surface $-1 0 0 -19.760906786180843 0 0 1 1 0 0 forward_v I I I I #
coedge $-1 $524 $379 $384 $465 reversed $306 $-1 #
coedge $-1 $379 $524 $380 $458 forward $306 $-1 #
coedge $-1 $382 $385 $379 $456 forward $235 $-1 #
edge $-1 $466 -12.582373087563115 $462 -1.7746943096723431 $455 $525 forward 7 unknown #
coedge $-1 $381 $380 $526 $527 reversed $221 $-1 #
edge $-1 $528 -60.064088869899592 $462 60.064088869899592 $454 $529 forward 7 unknown #
coedge $-1 $530 $531 $381 $460 forward $522 $-1 #
edge $-1 $463 -60.064088869899592 $532 60.064088869899592 $459 $533 forward 7 unknown #
coedge $-1 $391 $382 $531 $534 forward $235 $-1 #
vertex $-1 $383 $535 #
vertex $-1 $534 $536 #
straight-curve $-1 60.064088869899592 -15.498160804094287 8.9532280082900719 0 -1 0 I I #
edge $-1 $475 -60.064088869899592 $466 60.064088869899592 $384 $537 forward 7 unknown #
vertex $-1 $386 $538 #
coedge $-1 $539 $540 $391 $468 forward $451 $-1 #
edge $-1 $470 -40.928524731535724 $541 40.928524731535724 $391 $542 forward 7 unknown #
coedge $-1 $396 $392 $540 $543 reversed $397 $-1 #
vertex $-1 $468 $544 #
straight-curve $-1 60.064088869899592 40.928524731535724 0 0 0 -1 I I #
coedge $-1 $545 $394 $396 $477 forward $474 $-1 #
coedge $-1 $394 $526 $524 $546 forward $474 $-1 #
loop $-1 $-1 $473 $521 #
vertex $-1 $546 $547 #
straight-curve $-1 -60.064088869899592 0 19.760906786180843 0 -1 0 I I #
edge $-1 $398 -19.760906786180843 $548 19.760906786180843 $396 $549 forward 7 unknown #
face $-1 $-1 $397 $17 $-1 $550 reversed single #
point $-1 -60.064088869899592 40.928524731535724 19.760906786180843 #
face $-1 $551 $415 $18 $-1 $552 reversed single #
loop $-1 $-1 $553 $401 #
plane-surface $-1 0 -21.064118484841423 14.357067397235458 0 -1 0 0 0 -1 forward_v I I I I #
coedge $-1 $554 $555 $556 $557 reversed $402 $-1 #
coedge $-1 $404 $558 $559 $560 forward $326 $-1 #
coedge $-1 $559 $413 $405 $486 forward $415 $-1 #
edge $-1 $561 -80.318478082764528 $488 -69.704022733813233 $485 $562 forward 7 unknown #
edge $-1 $561 -120.12817773979918 $489 -105.61474162058119 $406 $563 forward 7 unknown #
vertex $-1 $486 $564 #
vertex $-1 $409 $565 #
straight-curve $-1 32.996529085150392 -3.9760125537611586 19.76090678618084 -1 0 0 I I #
straight-curve $-1 50.165949366349395 2.5706296570145319 19.76090678618084 0 1 0 I I #
edge $-1 $411 -11.687901524804754 $561 6.5466422107756905 $413 $566 forward 7 unknown #
point $-1 60.064088869899592 14.258531181819286 9.146451437229544 #
coedge $-1 $414 $567 $568 $569 reversed $415 $-1 #
coedge $-1 $558 $417 $570 $571 forward $326 $-1 #
coedge $-1 $568 $572 $417 $497 reversed $573 $-1 #
edge $-1 $498 -60.064088869899592 $574 60.064088869899592 $496 $575 forward 7 unknown #
vertex $-1 $418 $576 #
straight-curve $-1 60.064088869899592 0 19.760906786180843 0 1 0 I I #
face $-1 $577 $578 $19 $-1 $579 forward single #
loop $-1 $-1 $580 $422 #
plane-surface $-1 0 0 19.760906786180843 0 0 1 1 0 0 forward_v I I I I #
coedge $-1 $581 $582 $580 $583 reversed $423 $-1 #
coedge $-1 $434 $584 $425 $505 reversed $350 $-1 #
edge $-1 $510 105.61474162058119 $585 120.12817773979918 $425 $586 forward 7 unknown #
coedge $-1 $587 $588 $426 $507 forward $589 $-1 #
edge $-1 $511 69.704022733813233 $585 80.318478082764528 $506 $590 forward 7 unknown #
coedge $-1 $591 $427 $588 $592 forward $501 $-1 #
coedge $-1 $427 $580 $434 $516 forward $501 $-1 #
vertex $-1 $516 $593 #
vertex $-1 $592 $594 #
straight-curve $-1 32.996529085150392 14.258531181819286 19.76090678618084 1 0 0 I I #
vertex $-1 $429 $595 #
point $-1 51.329117929691719 1.2338570849761155 8.1886143333442281 #
coedge $-1 $584 $434 $582 $596 reversed $350 $-1 #
edge $-1 $597 -6.5466422107756905 $510 11.687901524804754 $509 $598 forward 7 unknown #
vertex $-1 $439 $599 #
straight-curve $-1 0 40.928524731535724 -19.760906786180843 1 0 0 I I #
straight-curve $-1 -60.064088869899592 40.928524731535724 0 0 0 -1 I I #
straight-curve $-1 -60.064088869899592 0 -19.760906786180843 0 1 0 I I #
face $-1 $478 $474 $17 $-1 $600 reversed single #
loop $-1 $-1 $459 $450 #
plane-surface $-1 0 -40.928524731535724 0 0 1 0 0 0 1 forward_v I I I I #
coedge $-1 $454 $453 $473 $546 reversed $306 $-1 #
straight-curve $-1 60.064088869899592 -21.064118484841423 7.1785336986177288 0 0 -1 I I #
coedge $-1 $473 $601 $457 $527 forward $474 $-1 #
edge $-1 $532 -25.430363927441437 $528 -5.565957680747136 $526 $602 forward 7 unknown #
vertex $-1 $527 $603 #
straight-curve $-1 0 -21.064118484841423 8.9532280082900719 1 0 0 I I #
coedge $-1 $604 $459 $601 $605 forward $522 $-1 #
coedge $-1 $459 $604 $461 $534 reversed $522 $-1 #
vertex $-1 $605 $606 #
straight-curve $-1 0 -40.928524731535724 8.9532280082900719 -1 0 0 I I #
edge $-1 $463 -8.9532280082900719 $541 19.760906786180843 $461 $607 forward 7 unknown #
point $-1 60.064088869899592 -21.064118484841423 8.9532280082900719 #
point $-1 60.064088869899592 -40.928524731535724 8.9532280082900719 #
straight-curve $-1 0 -21.064118484841423 19.760906786180843 1 0 0 I I #
point $-1 60.064088869899592 -21.064118484841423 19.760906786180843 #
coedge $-1 $608 $467 $604 $609 forward $451 $-1 #
coedge $-1 $467 $608 $469 $543 forward $451 $-1 #
vertex $-1 $534 $610 #
straight-curve $-1 60.064088869899592 0 -19.760906786180843 0 -1 0 I I #
edge $-1 $548 -60.064088869899592 $470 60.064088869899592 $469 $611 forward 7 unknown #
point $-1 60.064088869899592 40.928524731535724 -19.760906786180843 #
coedge $-1 $601 $472 $608 $612 reversed $474 $-1 #
edge $-1 $528 1.7746943096723431 $475 12.582373087563115 $473 $613 forward 7 unknown #
point $-1 -60.064088869899592 -21.064118484841423 19.760906786180843 #
vertex $-1 $543 $614 #
straight-curve $-1 -60.064088869899592 40.928524731535724 0 0 0 -1 I I #
plane-surface $-1 0 40.928524731535724 0 0 -1 0 0 0 -1 forward_v I I I I #
face $-1 $615 $616 $18 $-1 $617 reversed single #
plane-surface $-1 60.064088869899592 0 0 -1 0 0 0 0 1 forward_v I I I I #
coedge $-1 $618 $619 $620 $621 reversed $481 $-1 #
coedge $-1 $622 $483 $619 $623 reversed $402 $-1 #
coedge $-1 $483 $622 $624 $625 reversed $402 $-1 #
coedge $-1 $626 $620 $483 $557 forward $415 $-1 #
edge $-1 $627 5.565957680747136 $628 25.430363927441437 $556 $629 forward 7 unknown #
coedge $-1 $484 $495 $618 $630 forward $326 $-1 #
coedge $-1 $620 $485 $484 $560 reversed $415 $-1 #
edge $-1 $631 -21.064118484841423 $488 -3.9760125537611586 $559 $499 forward 7 unknown #
vertex $-1 $492 $632 #
straight-curve $-1 60.064088869899592 -3.9760125537611586 89.464929519994072 0 0 1 I I #
straight-curve $-1 -21.863130281279112 -3.9760125537611586 97.002639888809441 -0.68199835119979291 0 0.73135370988377701 I I #
point $-1 60.064088869899592 -3.9760125537611586 19.760906786180843 #
point $-1 50.165949366349395 -3.9760125537611586 19.76090678618084 #
straight-curve $-1 60.064088869899592 2.5706296570145319 9.1464514372295511 0 -1 0 I I #
coedge $-1 $494 $626 $633 $634 reversed $415 $-1 #
coedge $-1 $635 $496 $494 $569 forward $573 $-1 #
edge $-1 $498 -19.760906786180843 $636 19.760906786180843 $494 $637 forward 7 unknown #
coedge $-1 $638 $639 $495 $571 reversed $640 $-1 #
edge $-1 $574 -40.928524731535724 $641 21.064118484841423 $570 $642 forward 7 unknown #
coedge $-1 $496 $635 $638 $643 reversed $573 $-1 #
loop $-1 $-1 $568 $644 #
vertex $-1 $497 $645 #
straight-curve $-1 0 40.928524731535724 19.760906786180843 -1 0 0 I I #
point $-1 60.064088869899592 40.928524731535724 19.760906786180843 #
face $-1 $646 $647 $19 $-1 $648 forward single #
loop $-1 $-1 $649 $500 #
plane-surface $-1 0 -30.996321608188573 8.9532280082900719 0 0 1 1 0 0 forward_v I I I I #
coedge $-1 $509 $650 $503 $583 forward $501 $-1 #
coedge $-1 $582 $503 $651 $652 reversed $423 $-1 #
coedge $-1 $503 $581 $515 $596 forward $423 $-1 #
edge $-1 $653 -27.0675597847492 $597 -17.169420281199002 $580 $654 forward 7 unknown #
coedge $-1 $504 $515 $587 $655 reversed $350 $-1 #
vertex $-1 $655 $656 #
straight-curve $-1 -21.863130281279112 14.258531181819286 97.002639888809441 0.68199835119979291 0 -0.73135370988377701 I I #
coedge $-1 $651 $506 $584 $655 forward $589 $-1 #
coedge $-1 $506 $657 $508 $592 reversed $589 $-1 #
loop $-1 $-1 $651 $646 #
straight-curve $-1 60.064088869899592 14.258531181819286 89.464929519994072 0 0 -1 I I #
coedge $-1 $658 $508 $659 $660 forward $501 $-1 #
edge $-1 $511 14.258531181819286 $661 40.928524731535724 $588 $662 forward 7 unknown #
point $-1 50.165949366349395 14.258531181819286 19.76090678618084 #
point $-1 60.064088869899592 14.258531181819286 19.760906786180843 #
point $-1 48.502413807524576 1.2338570849761155 8.2873250507121963 #
edge $-1 $663 -120.12817773979918 $597 -105.61474162058119 $582 $664 forward 7 unknown #
vertex $-1 $516 $665 #
straight-curve $-1 50.165949366349395 2.5706296570145319 19.76090678618084 0 1 0 I I #
point $-1 -60.064088869899592 40.928524731535724 -19.760906786180843 #
plane-surface $-1 -60.064088869899592 0 0 1 0 0 0 0 -1 forward_v I I I I #
coedge $-1 $526 $545 $530 $605 reversed $474 $-1 #
straight-curve $-1 -60.064088869899592 -15.498160804094287 8.9532280082900719 0 1 0 I I #
point $-1 -60.064088869899592 -21.064118484841423 8.9532280082900719 #
coedge $-1 $531 $530 $539 $609 reversed $522 $-1 #
edge $-1 $532 -8.9532280082900719 $666 19.760906786180843 $601 $667 forward 7 unknown #
point $-1 -60.064088869899592 -40.928524731535724 8.9532280082900719 #
straight-curve $-1 60.064088869899592 -40.928524731535724 0 0 0 -1 I I #
coedge $-1 $540 $539 $545 $612 forward $451 $-1 #
edge $-1 $541 -60.064088869899592 $666 60.064088869899592 $604 $668 forward 7 unknown #
point $-1 60.064088869899592 -40.928524731535724 -19.760906786180843 #
straight-curve $-1 0 40.928524731535724 -19.760906786180843 1 0 0 I I #
edge $-1 $666 -40.928524731535724 $548 40.928524731535724 $545 $669 forward 7 unknown #
straight-curve $-1 -60.064088869899592 -21.064118484841423 7.1785336986177288 0 0 1 I I #
point $-1 -60.064088869899592 40.928524731535724 -19.760906786180843 #
face $-1 $670 $671 $18 $-1 $672 reversed single #
loop $-1 $-1 $633 $551 #
plane-surface $-1 0 0 -19.760906786180843 0 0 1 1 0 0 forward_v I I I I #
coedge $-1 $673 $553 $558 $630 reversed $481 $-1 #
coedge $-1 $553 $673 $554 $623 forward $481 $-1 #
coedge $-1 $556 $559 $553 $621 forward $415 $-1 #
edge $-1 $631 -12.582373087563115 $627 -1.7746943096723431 $620 $674 forward 7 unknown #
coedge $-1 $555 $554 $675 $676 reversed $402 $-1 #
edge $-1 $677 -60.064088869899592 $627 60.064088869899592 $619 $678 forward 7 unknown #
coedge $-1 $679 $680 $555 $625 forward $671 $-1 #
edge $-1 $628 -60.064088869899592 $681 60.064088869899592 $624 $682 forward 7 unknown #
coedge $-1 $567 $556 $680 $683 forward $415 $-1 #
vertex $-1 $557 $684 #
vertex $-1 $683 $685 #
straight-curve $-1 60.064088869899592 -15.498160804094287 8.9532280082900719 0 -1 0 I I #
edge $-1 $641 -60.064088869899592 $631 60.064088869899592 $558 $686 forward 7 unknown #
vertex $-1 $560 $687 #
point $-1 60.064088869899592 -3.9760125537611586 9.146451437229544 #
coedge $-1 $688 $689 $567 $634 forward $616 $-1 #
edge $-1 $636 -40.928524731535724 $690 40.928524731535724 $567 $691 forward 7 unknown #
coedge $-1 $572 $568 $689 $692 reversed $573 $-1 #
vertex $-1 $634 $693 #
straight-curve $-1 60.064088869899592 40.928524731535724 0 0 0 -1 I I #
coedge $-1 $694 $570 $572 $643 forward $640 $-1 #
coedge $-1 $570 $675 $673 $695 forward $640 $-1 #
loop $-1 $-1 $639 $670 #
vertex $-1 $695 $696 #
straight-curve $-1 -60.064088869899592 0 19.760906786180843 0 -1 0 I I #
edge $-1 $574 -19.760906786180843 $697 19.760906786180843 $572 $698 forward 7 unknown #
face $-1 $-1 $573 $18 $-1 $699 reversed single #
point $-1 -60.064088869899592 40.928524731535724 19.760906786180843 #
face $-1 $700 $589 $19 $-1 $701 reversed single #
loop $-1 $-1 $702 $577 #
plane-surface $-1 0 -21.064118484841423 14.357067397235458 0 -1 0 0 0 -1 forward_v I I I I #
coedge $-1 $703 $704 $705 $706 reversed $578 $-1 #
coedge $-1 $580 $707 $708 $709 forward $501 $-1 #
coedge $-1 $708 $587 $581 $652 forward $589 $-1 #
edge $-1 $663 -80.318478082764528 $653 -69.704022733813233 $651 $710 forward 7 unknown #
vertex $-1 $652 $711 #
straight-curve $-1 32.996529085150392 -3.9760125537611586 19.76090678618084 -1 0 0 I I #
edge $-1 $585 -11.687901524804754 $663 6.5466422107756905 $587 $712 forward 7 unknown #
point $-1 60.064088869899592 14.258531181819286 9.146451437229544 #
coedge $-1 $588 $713 $714 $715 reversed $589 $-1 #
coedge $-1 $707 $591 $716 $717 forward $501 $-1 #
coedge $-1 $714 $718 $591 $660 reversed $719 $-1 #
edge $-1 $661 -60.064088869899592 $720 60.064088869899592 $659 $721 forward 7 unknown #
vertex $-1 $592 $722 #
straight-curve $-1 60.064088869899592 0 19.760906786180843 0 1 0 I I #
vertex $-1 $655 $723 #
straight-curve $-1 -21.863130281279112 -3.9760125537611586 97.002639888809441 -0.68199835119979291 0 0.73135370988377701 I I #
point $-1 50.165949366349395 -3.9760125537611586 19.76090678618084 #
vertex $-1 $612 $724 #
straight-curve $-1 -60.064088869899592 -40.928524731535724 0 0 0 -1 I I #
straight-curve $-1 0 -40.928524731535724 -19.760906786180843 -1 0 0 I I #
straight-curve $-1 -60.064088869899592 0 -19.760906786180843 0 1 0 I I #
face $-1 $644 $640 $18 $-1 $725 reversed single #
loop $-1 $-1 $624 $615 #
plane-surface $-1 0 -40.928524731535724 0 0 1 0 0 0 1 forward_v I I I I #
coedge $-1 $619 $618 $639 $695 reversed $481 $-1 #
straight-curve $-1 60.064088869899592 -21.064118484841423 7.1785336986177288 0 0 -1 I I #
coedge $-1 $639 $726 $622 $676 forward $640 $-1 #
edge $-1 $681 -25.430363927441437 $677 -5.565957680747136 $675 $727 forward 7 unknown #
vertex $-1 $676 $728 #
straight-curve $-1 0 -21.064118484841423 8.9532280082900719 1 0 0 I I #
coedge $-1 $729 $624 $726 $730 forward $671 $-1 #
coedge $-1 $624 $729 $626 $683 reversed $671 $-1 #
vertex $-1 $730 $731 #
straight-curve $-1 0 -40.928524731535724 8.9532280082900719 -1 0 0 I I #
edge $-1 $628 -8.9532280082900719 $690 19.760906786180843 $626 $732 forward 7 unknown #
point $-1 60.064088869899592 -21.064118484841423 8.9532280082900719 #
point $-1 60.064088869899592 -40.928524731535724 8.9532280082900719 #
straight-curve $-1 0 -21.064118484841423 19.760906786180843 1 0 0 I I #
point $-1 60.064088869899592 -21.064118484841423 19.760906786180843 #
coedge $-1 $733 $633 $729 $734 forward $616 $-1 #
coedge $-1 $633 $733 $635 $692 forward $616 $-1 #
vertex $-1 $683 $735 #
straight-curve $-1 60.064088869899592 0 -19.760906786180843 0 -1 0 I I #
edge $-1 $697 -60.064088869899592 $636 60.064088869899592 $635 $736 forward 7 unknown #
point $-1 60.064088869899592 40.928524731535724 -19.760906786180843 #
coedge $-1 $726 $638 $733 $737 reversed $640 $-1 #
edge $-1 $677 1.7746943096723431 $641 12.582373087563115 $639 $738 forward 7 unknown #
point $-1 -60.064088869899592 -21.064118484841423 19.760906786180843 #
vertex $-1 $692 $739 #
straight-curve $-1 -60.064088869899592 40.928524731535724 0 0 0 -1 I I #
plane-surface $-1 0 40.928524731535724 0 0 -1 0 0 0 -1 forward_v I I I I #
face $-1 $740 $741 $19 $-1 $742 reversed single #
plane-surface $-1 60.064088869899592 0 0 -1 0 0 0 0 1 forward_v I I I I #
coedge $-1 $743 $744 $745 $746 reversed $647 $-1 #
coedge $-1 $747 $649 $744 $748 reversed $578 $-1 #
coedge $-1 $649 $747 $749 $750 reversed $578 $-1 #
coedge $-1 $751 $745 $649 $706 forward $589 $-1 #
edge $-1 $752 5.565957680747136 $753 25.430363927441437 $705 $754 forward 7 unknown #
coedge $-1 $650 $658 $743 $755 forward $501 $-1 #
coedge $-1 $745 $651 $650 $709 reversed $589 $-1 #
edge $-1 $756 -21.064118484841423 $653 -3.9760125537611586 $708 $662 forward 7 unknown #
straight-curve $-1 60.064088869899592 -3.9760125537611586 89.464929519994072 0 0 1 I I #
point $-1 60.064088869899592 -3.9760125537611586 19.760906786180843 #
straight-curve $-1 60.064088869899592 2.5706296570145319 9.1464514372295511 0 -1 0 I I #
coedge $-1 $657 $751 $757 $758 reversed $589 $-1 #
coedge $-1 $759 $659 $657 $715 forward $719 $-1 #
edge $-1 $661 -19.760906786180843 $760 19.760906786180843 $657 $761 forward 7 unknown #
coedge $-1 $762 $763 $658 $717 reversed $764 $-1 #
edge $-1 $720 -40.928524731535724 $765 21.064118484841423 $716 $766 forward 7 unknown #
coedge $-1 $659 $759 $762 $767 reversed $719 $-1 #
loop $-1 $-1 $714 $768 #
vertex $-1 $660 $769 #
straight-curve $-1 0 40.928524731535724 19.760906786180843 -1 0 0 I I #
point $-1 60.064088869899592 40.928524731535724 19.760906786180843 #
point $-1 60.064088869899592 -3.9760125537611586 9.146451437229544 #
point $-1 -60.064088869899592 -40.928524731535724 -19.760906786180843 #
plane-surface $-1 -60.064088869899592 0 0 1 0 0 0 0 -1 forward_v I I I I #
coedge $-1 $675 $694 $679 $730 reversed $640 $-1 #
straight-curve $-1 -60.064088869899592 -15.498160804094287 8.9532280082900719 0 1 0 I I #
point $-1 -60.064088869899592 -21.064118484841423 8.9532280082900719 #
coedge $-1 $680 $679 $688 $734 reversed $671 $-1 #
edge $-1 $681 -8.9532280082900719 $770 19.760906786180843 $726 $771 forward 7 unknown #
point $-1 -60.064088869899592 -40.928524731535724 8.9532280082900719 #
straight-curve $-1 60.064088869899592 -40.928524731535724 0 0 0 -1 I I #
coedge $-1 $689 $688 $694 $737 forward $616 $-1 #
edge $-1 $690 -60.064088869899592 $770 60.064088869899592 $729 $772 forward 7 unknown #
point $-1 60.064088869899592 -40.928524731535724 -19.760906786180843 #
straight-curve $-1 0 40.928524731535724 -19.760906786180843 1 0 0 I I #
edge $-1 $770 -40.928524731535724 $697 40.928524731535724 $694 $773 forward 7 unknown #
straight-curve $-1 -60.064088869899592 -21.064118484841423 7.1785336986177288 0 0 1 I I #
point $-1 -60.064088869899592 40.928524731535724 -19.760906786180843 #
face $-1 $774 $775 $19 $-1 $776 reversed single #
loop $-1 $-1 $757 $700 #
plane-surface $-1 0 0 -19.760906786180843 0 0 1 1 0 0 forward_v I I I I #
coedge $-1 $777 $702 $707 $755 reversed $647 $-1 #
coedge $-1 $702 $777 $703 $748 forward $647 $-1 #
coedge $-1 $705 $708 $702 $746 forward $589 $-1 #
edge $-1 $756 -12.582373087563115 $752 -1.7746943096723431 $745 $778 forward 7 unknown #
coedge $-1 $704 $703 $779 $780 reversed $578 $-1 #
edge $-1 $781 -60.064088869899592 $752 60.064088869899592 $744 $782 forward 7 unknown #
coedge $-1 $783 $784 $704 $750 forward $775 $-1 #
edge $-1 $753 -60.064088869899592 $785 60.064088869899592 $749 $786 forward 7 unknown #
coedge $-1 $713 $705 $784 $787 forward $589 $-1 #
vertex $-1 $706 $788 #
vertex $-1 $787 $789 #
straight-curve $-1 60.064088869899592 -15.498160804094287 8.9532280082900719 0 -1 0 I I #
edge $-1 $765 -60.064088869899592 $756 60.064088869899592 $707 $790 forward 7 unknown #
vertex $-1 $709 $791 #
coedge $-1 $792 $793 $713 $758 forward $741 $-1 #
edge $-1 $760 -40.928524731535724 $794 40.928524731535724 $713 $795 forward 7 unknown #
coedge $-1 $718 $714 $793 $796 reversed $719 $-1 #
vertex $-1 $758 $797 #
straight-curve $-1 60.064088869899592 40.928524731535724 0 0 0 -1 I I #
coedge $-1 $798 $716 $718 $767 forward $764 $-1 #
coedge $-1 $716 $779 $777 $799 forward $764 $-1 #
loop $-1 $-1 $763 $774 #
vertex $-1 $799 $800 #
straight-curve $-1 -60.064088869899592 0 19.760906786180843 0 -1 0 I I #
edge $-1 $720 -19.760906786180843 $801 19.760906786180843 $718 $802 forward 7 unknown #
face $-1 $-1 $719 $19 $-1 $803 reversed single #
point $-1 -60.064088869899592 40.928524731535724 19.760906786180843 #
vertex $-1 $737 $804 #
straight-curve $-1 -60.064088869899592 -40.928524731535724 0 0 0 -1 I I #
straight-curve $-1 0 -40.928524731535724 -19.760906786180843 -1 0 0 I I #
straight-curve $-1 -60.064088869899592 0 -19.760906786180843 0 1 0 I I #
face $-1 $768 $764 $19 $-1 $805 reversed single #
loop $-1 $-1 $749 $740 #
plane-surface $-1 0 -40.928524731535724 0 0 1 0 0 0 1 forward_v I I I I #
coedge $-1 $744 $743 $763 $799 reversed $647 $-1 #
straight-curve $-1 60.064088869899592 -21.064118484841423 7.1785336986177288 0 0 -1 I I #
coedge $-1 $763 $806 $747 $780 forward $764 $-1 #
edge $-1 $785 -25.430363927441437 $781 -5.565957680747136 $779 $807 forward 7 unknown #
vertex $-1 $780 $808 #
straight-curve $-1 0 -21.064118484841423 8.9532280082900719 1 0 0 I I #
coedge $-1 $809 $749 $806 $810 forward $775 $-1 #
coedge $-1 $749 $809 $751 $787 reversed $775 $-1 #
vertex $-1 $810 $811 #
straight-curve $-1 0 -40.928524731535724 8.9532280082900719 -1 0 0 I I #
edge $-1 $753 -8.9532280082900719 $794 19.760906786180843 $751 $812 forward 7 unknown #
point $-1 60.064088869899592 -21.064118484841423 8.9532280082900719 #
point $-1 60.064088869899592 -40.928524731535724 8.9532280082900719 #
straight-curve $-1 0 -21.064118484841423 19.760906786180843 1 0 0 I I #
point $-1 60.064088869899592 -21.064118484841423 19.760906786180843 #
coedge $-1 $813 $757 $809 $814 forward $741 $-1 #
coedge $-1 $757 $813 $759 $796 forward $741 $-1 #
vertex $-1 $787 $815 #
straight-curve $-1 60.064088869899592 0 -19.760906786180843 0 -1 0 I I #
edge $-1 $801 -60.064088869899592 $760 60.064088869899592 $759 $816 forward 7 unknown #
point $-1 60.064088869899592 40.928524731535724 -19.760906786180843 #
coedge $-1 $806 $762 $813 $817 reversed $764 $-1 #
edge $-1 $781 1.7746943096723431 $765 12.582373087563115 $763 $818 forward 7 unknown #
point $-1 -60.064088869899592 -21.064118484841423 19.760906786180843 #
vertex $-1 $796 $819 #
straight-curve $-1 -60.064088869899592 40.928524731535724 0 0 0 -1 I I #
plane-surface $-1 0 40.928524731535724 0 0 -1 0 0 0 -1 forward_v I I I I #
point $-1 -60.064088869899592 -40.928524731535724 -19.760906786180843 #
plane-surface $-1 -60.064088869899592 0 0 1 0 0 0 0 -1 forward_v I I I I #
coedge $-1 $779 $798 $783 $810 reversed $764 $-1 #
straight-curve $-1 -60.064088869899592 -15.498160804094287 8.9532280082900719 0 1 0 I I #
point $-1 -60.064088869899592 -21.064118484841423 8.9532280082900719 #
coedge $-1 $784 $783 $792 $814 reversed $775 $-1 #
edge $-1 $785 -8.9532280082900719 $820 19.760906786180843 $806 $821 forward 7 unknown #
point $-1 -60.064088869899592 -40.928524731535724 8.9532280082900719 #
straight-curve $-1 60.064088869899592 -40.928524731535724 0 0 0 -1 I I #
coedge $-1 $793 $792 $798 $817 forward $741 $-1 #
edge $-1 $794 -60.064088869899592 $820 60.064088869899592 $809 $822 forward 7 unknown #
point $-1 60.064088869899592 -40.928524731535724 -19.760906786180843 #
straight-curve $-1 0 40.928524731535724 -19.760906786180843 1 0 0 I I #
edge $-1 $820 -40.928524731535724 $801 40.928524731535724 $798 $823 forward 7 unknown #
straight-curve $-1 -60.064088869899592 -21.064118484841423 7.1785336986177288 0 0 1 I I #
point $-1 -60.064088869899592 40.928524731535724 -19.760906786180843 #
vertex $-1 $817 $824 #
straight-curve $-1 -60.064088869899592 -40.928524731535724 0 0 0 -1 I I #
straight-curve $-1 0 -40.928524731535724 -19.760906786180843 -1 0 0 I I #
straight-curve $-1 -60.064088869899592 0 -19.760906786180843 0 1 0 I I #
point $-1 -60.064088869899592 -40.928524731535724 -19.760906786180843 #
End-of-ACIS-data 