500 0 11 0           
7 Unknown 11 ACIS 5.0 NT 24 Fri Mar 26 02:18:21 1999 
-1 9.9999999999999995e-007 1e-010 
body $-1 $11 $-1 $12 #
body $-1 $13 $-1 $14 #
body $-1 $15 $-1 $16 #
body $-1 $17 $-1 $18 #
body $-1 $19 $-1 $20 #
body $-1 $21 $-1 $22 #
body $-1 $23 $-1 $24 #
body $-1 $25 $-1 $26 #
body $-1 $27 $-1 $28 #
body $-1 $29 $-1 $30 #
body $-1 $31 $-1 $32 #
lump $-1 $-1 $33 $0 #
transform $-1 1 0 0 0 1 0 0 0 1 46.938688314462723 30.723374851393405 9.4321051459575802 1 rotate no_reflect no_shear #
lump $-1 $-1 $34 $1 #
transform $-1 1 0 0 0 1 0 0 0 1 46.938688314462723 30.723374851393405 9.4321051459575802 1 rotate no_reflect no_shear #
lump $-1 $-1 $35 $2 #
transform $-1 1 0 0 0 1 0 0 0 1 46.938688314462723 30.723374851393405 9.4321051459575802 1 rotate no_reflect no_shear #
lump $-1 $-1 $36 $3 #
transform $-1 1 0 0 0 1 0 0 0 1 46.938688314462723 30.723374851393405 9.4321051459575802 1 rotate no_reflect no_shear #
lump $-1 $-1 $37 $4 #
transform $-1 1 0 0 0 1 0 0 0 1 46.938688314462723 30.723374851393405 9.4321051459575802 1 rotate no_reflect no_shear #
lump $-1 $-1 $38 $5 #
transform $-1 1 0 0 0 1 0 0 0 1 46.938688314462723 30.723374851393405 9.4321051459575802 1 rotate no_reflect no_shear #
lump $-1 $-1 $39 $6 #
transform $-1 1 0 0 0 1 0 0 0 1 46.938688314462723 30.723374851393405 9.4321051459575802 1 rotate no_reflect no_shear #
lump $-1 $-1 $40 $7 #
transform $-1 1 0 0 0 1 0 0 0 1 46.938688314462723 30.723374851393405 9.4321051459575802 1 rotate no_reflect no_shear #
lump $-1 $-1 $41 $8 #
transform $-1 1 0 0 0 1 0 0 0 1 46.938688314462723 30.723374851393405 9.4321051459575802 1 rotate no_reflect no_shear #
lump $-1 $-1 $42 $9 #
transform $-1 1 0 0 0 1 0 0 0 1 46.938688314462723 30.723374851393405 9.4321051459575802 1 rotate no_reflect no_shear #
lump $-1 $-1 $43 $10 #
transform $-1 1 0 0 0 1 0 0 0 1 46.938688314462723 30.723374851393405 9.4321051459575802 1 rotate no_reflect no_shear #
shell $-1 $-1 $-1 $44 $-1 $11 #
shell $-1 $-1 $-1 $45 $-1 $13 #
shell $-1 $-1 $-1 $46 $-1 $15 #
shell $-1 $-1 $-1 $47 $-1 $17 #
shell $-1 $-1 $-1 $48 $-1 $19 #
shell $-1 $-1 $-1 $49 $-1 $21 #
shell $-1 $-1 $-1 $50 $-1 $23 #
shell $-1 $-1 $-1 $51 $-1 $25 #
shell $-1 $-1 $-1 $52 $-1 $27 #
shell $-1 $-1 $-1 $53 $-1 $29 #
shell $-1 $-1 $-1 $54 $-1 $31 #
face $-1 $55 $56 $33 $-1 $57 forward single #
face $-1 $58 $59 $34 $-1 $60 forward single #
face $-1 $61 $62 $35 $-1 $63 reversed single #
face $-1 $64 $65 $36 $-1 $66 forward single #
face $-1 $67 $68 $37 $-1 $69 forward single #
face $-1 $70 $71 $38 $-1 $72 reversed single #
face $-1 $73 $74 $39 $-1 $75 forward single #
face $-1 $76 $77 $40 $-1 $78 forward single #
face $-1 $79 $80 $41 $-1 $81 reversed single #
face $-1 $82 $83 $42 $-1 $84 forward single #
face $-1 $85 $86 $43 $-1 $87 forward single #
face $-1 $88 $89 $33 $-1 $90 reversed single #
loop $-1 $-1 $91 $44 #
plane-surface $-1 0 0 9.4321051459575802 0 0 1 1 0 0 forward_v I I I I #
face $-1 $92 $93 $34 $-1 $94 reversed single #
loop $-1 $-1 $95 $45 #
plane-surface $-1 -46.938688314462723 0 0 1 0 0 0 0 -1 forward_v I I I I #
face $-1 $96 $97 $35 $-1 $98 reversed single #
loop $-1 $-1 $99 $46 #
plane-surface $-1 32.573996655233493 -104.69975793027787 60.693064056796374 -1 0 0 0 -0.78801076186113728 0.61566146476048833 forward_v I I I I #
face $-1 $100 $101 $36 $-1 $102 forward single #
loop $-1 $103 $104 $47 #
cone-surface $-1 15.205733044177926 -25.410892865398839 4.0084038687687125 0 0.78801076186113728 -0.61566146476048833 2 0 0 1 I I 0 1 2 forward I I I I #
face $-1 $105 $106 $37 $-1 $107 forward single #
loop $-1 $108 $109 $48 #
cone-surface $-1 25.626691210811273 -25.410892865398839 4.0084038687687125 0 0.78801076186113728 -0.61566146476048833 2 0 0 1 I I 0 1 2 forward I I I I #
face $-1 $110 $111 $38 $-1 $112 reversed single #
loop $-1 $-1 $113 $49 #
plane-surface $-1 -16.892911652591337 42.049229968524969 116.60247379325249 1 0 0 0 -0.62932039886446345 -0.77714595512881146 forward_v I I I I #
face $-1 $114 $115 $39 $-1 $116 forward single #
loop $-1 $117 $118 $50 #
cone-surface $-1 -10.8777201182398 27.11126950548568 6.1410956667147909 0 -0.62932039886446345 -0.77714595512881146 1.5 0 0 1 I I 0 1 1.5 forward I I I I #
face $-1 $119 $120 $40 $-1 $121 forward single #
loop $-1 $122 $123 $51 #
cone-surface $-1 -1.8549328167124983 27.11126950548568 6.1410956667147909 0 -0.62932039886446345 -0.77714595512881146 1.5 0 0 1 I I 0 1 1.5 forward I I I I #
face $-1 $124 $125 $41 $-1 $126 reversed single #
loop $-1 $-1 $127 $52 #
plane-surface $-1 -6.3663264674761493 -17.029718135939852 43.646050267979064 0 0.62932039886446345 0.77714595512881146 1 0 0 forward_v I I I I #
face $-1 $128 $129 $42 $-1 $130 forward single #
loop $-1 $131 $132 $53 #
cone-surface $-1 10.175450251990561 27.11126950548568 6.1410956667147909 0 -0.62932039886446345 -0.77714595512881146 1.5 0 0 1 I I 0 1 1.5 forward I I I I #
face $-1 $133 $134 $43 $-1 $135 forward single #
loop $-1 $136 $137 $54 #
cone-surface $-1 19.198237553517856 27.11126950548568 6.1410956667147909 0 -0.62932039886446345 -0.77714595512881146 1.5 0 0 1 I I 0 1 1.5 forward I I I I #
face $-1 $138 $139 $33 $-1 $140 reversed single #
loop $-1 $-1 $141 $55 #
plane-surface $-1 0 0 -9.4321051459575802 0 0 1 1 0 0 forward_v I I I I #
coedge $-1 $142 $143 $144 $145 forward $56 $-1 #
face $-1 $146 $147 $34 $-1 $148 reversed single #
loop $-1 $-1 $149 $58 #
plane-surface $-1 0 30.723374851393405 0 0 -1 0 0 0 -1 forward_v I I I I #
coedge $-1 $150 $151 $152 $153 forward $59 $-1 #
face $-1 $154 $155 $35 $-1 $156 reversed single #
loop $-1 $-1 $157 $61 #
plane-surface $-1 20.416212127494589 -30.723374851393402 2.8963808535600961 0 -0.78801076186113728 0.61566146476048833 1 0 0 forward_v I I I I #
coedge $-1 $158 $159 $160 $161 reversed $62 $-1 #
face $-1 $-1 $162 $36 $-1 $163 forward single #
loop $-1 $164 $165 $64 #
cone-surface $-1 15.205733044177926 -21.863533771216005 1.2369032730180916 0 0.78801076186113728 -0.61566146476048833 1 0 0 1 I I -0.70710678118654746 0.70710678118654746 1 forward I I I I #
loop $-1 $-1 $166 $47 #
coedge $-1 $104 $104 $167 $168 reversed $65 $-1 #
face $-1 $-1 $169 $37 $-1 $170 forward single #
loop $-1 $171 $172 $67 #
cone-surface $-1 25.626691210811273 -21.863533771216005 1.2369032730180916 0 0.78801076186113728 -0.61566146476048833 1 0 0 1 I I -0.70710678118654746 0.70710678118654746 1 forward I I I I #
loop $-1 $-1 $173 $48 #
coedge $-1 $109 $109 $174 $175 reversed $68 $-1 #
face $-1 $176 $177 $38 $-1 $178 reversed single #
loop $-1 $-1 $179 $70 #
plane-surface $-1 -6.3663264674761493 -17.029718135939852 43.646050267979064 0 0.62932039886446345 0.77714595512881146 1 0 0 forward_v I I I I #
coedge $-1 $180 $181 $182 $183 reversed $71 $-1 #
face $-1 $-1 $184 $39 $-1 $185 forward single #
loop $-1 $186 $187 $73 #
cone-surface $-1 -10.8777201182398 25.77836901592627 4.4951006760559853 0 -0.62932039886446345 -0.77714595512881146 0.75 0 0 1 I I -0.70710678118654757 0.70710678118654757 0.75 forward I I I I #
loop $-1 $-1 $188 $50 #
coedge $-1 $118 $118 $189 $190 reversed $74 $-1 #
face $-1 $-1 $191 $40 $-1 $192 forward single #
loop $-1 $193 $194 $76 #
cone-surface $-1 -1.8549328167124983 25.77836901592627 4.4951006760559853 0 -0.62932039886446345 -0.77714595512881146 0.75 0 0 1 I I -0.70710678118654757 0.70710678118654757 0.75 forward I I I I #
loop $-1 $-1 $195 $51 #
coedge $-1 $123 $123 $196 $197 reversed $77 $-1 #
face $-1 $198 $199 $41 $-1 $200 forward single #
loop $-1 $-1 $201 $79 #
plane-surface $-1 25.2134290878694 42.049229968524969 116.60247379325249 -1 0 0 0 0.62932039886446345 0.77714595512881146 forward_v I I I I #
coedge $-1 $202 $203 $204 $205 reversed $80 $-1 #
face $-1 $-1 $206 $42 $-1 $207 forward single #
loop $-1 $208 $209 $82 #
cone-surface $-1 10.175450251990561 25.77836901592627 4.4951006760559853 0 -0.62932039886446345 -0.77714595512881146 0.75 0 0 1 I I -0.70710678118654757 0.70710678118654757 0.75 forward I I I I #
loop $-1 $-1 $210 $53 #
coedge $-1 $132 $132 $211 $212 reversed $83 $-1 #
face $-1 $-1 $213 $43 $-1 $214 forward single #
loop $-1 $215 $216 $85 #
cone-surface $-1 19.198237553517856 25.77836901592627 4.4951006760559853 0 -0.62932039886446345 -0.77714595512881146 0.75 0 0 1 I I -0.70710678118654757 0.70710678118654757 0.75 forward I I I I #
loop $-1 $-1 $217 $54 #
coedge $-1 $137 $137 $218 $219 reversed $86 $-1 #
face $-1 $220 $221 $33 $-1 $222 reversed single #
loop $-1 $-1 $223 $88 #
plane-surface $-1 0 -30.723374851393405 0 0 1 0 0 0 1 forward_v I I I I #
coedge $-1 $224 $225 $226 $227 forward $89 $-1 #
coedge $-1 $228 $91 $229 $230 forward $56 $-1 #
coedge $-1 $91 $228 $231 $232 forward $56 $-1 #
coedge $-1 $233 $234 $91 $145 reversed $235 $-1 #
edge $-1 $236 -30.723374851393405 $237 30.723374851393405 $144 $238 forward 7 unknown #
face $-1 $239 $240 $34 $-1 $241 reversed single #
loop $-1 $-1 $152 $92 #
plane-surface $-1 -51.098947032101755 0 5.5609898035744889 0 0 1 1 0 0 forward_v I I I I #
coedge $-1 $242 $243 $150 $244 forward $93 $-1 #
coedge $-1 $245 $95 $149 $244 reversed $59 $-1 #
coedge $-1 $95 $245 $246 $247 reversed $59 $-1 #
coedge $-1 $248 $249 $95 $153 reversed $147 $-1 #
edge $-1 $250 -30.723374851393405 $251 30.723374851393405 $152 $252 forward 7 unknown #
face $-1 $253 $254 $35 $-1 $255 reversed single #
loop $-1 $-1 $256 $96 #
plane-surface $-1 8.2584275997556844 -104.69975793027787 60.693064056796374 1 0 0 0 0.78801076186113728 -0.61566146476048833 forward_v I I I I #
coedge $-1 $257 $258 $259 $260 reversed $97 $-1 #
coedge $-1 $159 $99 $261 $262 reversed $62 $-1 #
coedge $-1 $99 $158 $257 $263 reversed $62 $-1 #
coedge $-1 $259 $264 $99 $161 forward $265 $-1 #
edge $-1 $266 21.626504113745529 $267 26.732771421091282 $160 $268 forward 7 unknown #
loop $-1 $-1 $167 $100 #
plane-surface $-1 20.416212127494589 -30.723374851393402 2.8963808535600961 0 -0.78801076186113728 0.61566146476048833 1 0 0 forward_v I I I I #
loop $-1 $-1 $269 $64 #
coedge $-1 $165 $165 $166 $270 reversed $101 $-1 #
coedge $-1 $166 $166 $165 $270 forward $103 $-1 #
coedge $-1 $167 $167 $104 $168 forward $162 $-1 #
edge $-1 $271 2.6236062875286906e-016 $271 6.2831853071796004 $167 $272 forward 7 unknown #
loop $-1 $-1 $174 $105 #
plane-surface $-1 20.416212127494589 -30.723374851393402 2.8963808535600961 0 -0.78801076186113728 0.61566146476048833 1 0 0 forward_v I I I I #
loop $-1 $-1 $273 $67 #
coedge $-1 $172 $172 $173 $274 reversed $106 $-1 #
coedge $-1 $173 $173 $172 $274 forward $108 $-1 #
coedge $-1 $174 $174 $109 $175 forward $169 $-1 #
edge $-1 $275 2.6236062875286906e-016 $275 6.2831853071796004 $174 $276 forward 7 unknown #
face $-1 $277 $278 $38 $-1 $279 forward single #
loop $-1 $-1 $280 $110 #
plane-surface $-1 4.1602587176390369 42.049229968524969 116.60247379325249 -1 0 0 0 0.62932039886446345 0.77714595512881146 forward_v I I I I #
coedge $-1 $281 $282 $283 $284 reversed $111 $-1 #
coedge $-1 $181 $113 $285 $286 reversed $71 $-1 #
coedge $-1 $113 $180 $281 $287 reversed $71 $-1 #
coedge $-1 $283 $288 $113 $183 forward $278 $-1 #
edge $-1 $289 -9.6987598671309208 $290 -4.1963695561376397 $182 $291 forward 7 unknown #
loop $-1 $-1 $189 $114 #
plane-surface $-1 -6.3663264674761493 -17.029718135939852 43.646050267979064 0 0.62932039886446345 0.77714595512881146 1 0 0 forward_v I I I I #
loop $-1 $-1 $292 $73 #
coedge $-1 $187 $187 $188 $293 reversed $115 $-1 #
coedge $-1 $188 $188 $187 $293 forward $117 $-1 #
coedge $-1 $189 $189 $118 $190 forward $184 $-1 #
edge $-1 $294 -1.0053411895908183e-015 $294 6.2831853071795996 $189 $295 forward 7 unknown #
loop $-1 $-1 $196 $119 #
plane-surface $-1 -6.3663264674761493 -17.029718135939852 43.646050267979064 0 0.62932039886446345 0.77714595512881146 1 0 0 forward_v I I I I #
loop $-1 $-1 $296 $76 #
coedge $-1 $194 $194 $195 $297 reversed $120 $-1 #
coedge $-1 $195 $195 $194 $297 forward $122 $-1 #
coedge $-1 $196 $196 $123 $197 forward $191 $-1 #
edge $-1 $298 -1.0053411895908183e-015 $298 6.2831853071795996 $196 $299 forward 7 unknown #
face $-1 $300 $301 $41 $-1 $302 forward single #
loop $-1 $-1 $303 $124 #
plane-surface $-1 0 0 9.4321051459575802 0 0 1 1 0 0 forward_v I I I I #
coedge $-1 $304 $305 $306 $307 reversed $125 $-1 #
coedge $-1 $308 $127 $309 $310 reversed $80 $-1 #
coedge $-1 $127 $308 $303 $311 reversed $80 $-1 #
coedge $-1 $312 $313 $127 $205 forward $301 $-1 #
edge $-1 $314 -61.446749702786803 $315 -54.366496277185078 $204 $316 forward 7 unknown #
loop $-1 $-1 $211 $128 #
plane-surface $-1 -6.3663264674761493 -17.029718135939852 43.646050267979064 0 0.62932039886446345 0.77714595512881146 1 0 0 forward_v I I I I #
loop $-1 $-1 $317 $82 #
coedge $-1 $209 $209 $210 $318 reversed $129 $-1 #
coedge $-1 $210 $210 $209 $318 forward $131 $-1 #
coedge $-1 $211 $211 $132 $212 forward $206 $-1 #
edge $-1 $319 -1.0053411895908183e-015 $319 6.2831853071795996 $211 $320 forward 7 unknown #
loop $-1 $-1 $218 $133 #
plane-surface $-1 -6.3663264674761493 -17.029718135939852 43.646050267979064 0 0.62932039886446345 0.77714595512881146 1 0 0 forward_v I I I I #
loop $-1 $-1 $321 $85 #
coedge $-1 $216 $216 $217 $322 reversed $134 $-1 #
coedge $-1 $217 $217 $216 $322 forward $136 $-1 #
coedge $-1 $218 $218 $137 $219 forward $213 $-1 #
edge $-1 $323 -1.0053411895908183e-015 $323 6.2831853071795996 $218 $324 forward 7 unknown #
face $-1 $325 $326 $33 $-1 $327 reversed single #
loop $-1 $-1 $328 $138 #
plane-surface $-1 -46.938688314462723 0 0 1 0 0 0 0 -1 forward_v I I I I #
coedge $-1 $329 $231 $330 $331 forward $139 $-1 #
coedge $-1 $332 $141 $329 $333 forward $89 $-1 #
coedge $-1 $141 $332 $334 $335 forward $89 $-1 #
coedge $-1 $234 $233 $141 $227 reversed $235 $-1 #
edge $-1 $336 -30.723374851393405 $337 30.723374851393405 $226 $338 forward 7 unknown #
coedge $-1 $143 $142 $339 $340 forward $56 $-1 #
coedge $-1 $341 $342 $142 $230 reversed $326 $-1 #
edge $-1 $237 -46.938688314462723 $343 46.938688314462723 $229 $344 forward 7 unknown #
coedge $-1 $223 $345 $143 $232 reversed $139 $-1 #
edge $-1 $346 -46.938688314462723 $236 46.938688314462723 $231 $347 forward 7 unknown #
coedge $-1 $226 $144 $345 $348 forward $235 $-1 #
coedge $-1 $144 $226 $341 $349 reversed $235 $-1 #
loop $-1 $-1 $233 $325 #
vertex $-1 $145 $350 #
vertex $-1 $145 $351 #
straight-curve $-1 46.938688314462723 0 9.4321051459575802 0 1 0 I I #
face $-1 $352 $353 $34 $-1 $354 forward single #
loop $-1 $-1 $355 $146 #
plane-surface $-1 -55.259205749740786 0 7.4965474747660341 1 0 0 0 0 -1 forward_v I I I I #
coedge $-1 $356 $149 $249 $357 reversed $93 $-1 #
coedge $-1 $149 $356 $358 $359 reversed $93 $-1 #
edge $-1 $360 -9.4321051459575802 $251 -5.5609898035744889 $149 $361 forward 7 unknown #
coedge $-1 $151 $150 $362 $363 reversed $59 $-1 #
coedge $-1 $364 $365 $151 $247 forward $366 $-1 #
edge $-1 $250 5.5609898035744889 $367 9.4321051459575802 $246 $368 forward 7 unknown #
coedge $-1 $369 $152 $365 $370 forward $147 $-1 #
coedge $-1 $152 $369 $242 $357 forward $147 $-1 #
vertex $-1 $247 $371 #
vertex $-1 $244 $372 #
straight-curve $-1 -46.938688314462723 0 5.5609898035744889 0 1 0 I I #
face $-1 $-1 $265 $35 $-1 $373 forward single #
loop $-1 $-1 $374 $154 #
plane-surface $-1 0 -30.723374851393405 0 0 1 0 0 0 1 forward_v I I I I #
coedge $-1 $375 $376 $377 $378 reversed $155 $-1 #
coedge $-1 $379 $157 $159 $263 forward $97 $-1 #
coedge $-1 $157 $379 $375 $380 forward $97 $-1 #
coedge $-1 $377 $160 $157 $260 forward $265 $-1 #
edge $-1 $267 -22.365890591486199 $381 1.94967846399161 $259 $382 forward 7 unknown #
coedge $-1 $383 $384 $158 $262 forward $254 $-1 #
edge $-1 $385 -27.450151174838094 $266 -20.914426882440608 $261 $386 forward 7 unknown #
edge $-1 $267 -8.2939530888655639 $385 5.6867396732475225e-015 $159 $387 forward 7 unknown #
coedge $-1 $160 $377 $383 $388 forward $265 $-1 #
loop $-1 $-1 $377 $253 #
vertex $-1 $262 $389 #
vertex $-1 $161 $390 #
straight-curve $-1 32.573996655233493 -52.349878965138934 9.4321051459575784 0 1 0 I I #
coedge $-1 $269 $269 $-1 $391 reversed $164 $-1 #
edge $-1 $392 0 $392 6.2831853071796004 $165 $393 forward 7 unknown #
vertex $-1 $168 $394 #
ellipse-curve $-1 15.205733044177926 -28.170241197720529 6.1642429997588382 0 -0.78801076186113728 0.61566146476048833 2 0 0 1 I I #
coedge $-1 $273 $273 $-1 $395 reversed $171 $-1 #
edge $-1 $396 0 $396 6.2831853071796004 $172 $397 forward 7 unknown #
vertex $-1 $175 $398 #
ellipse-curve $-1 25.626691210811273 -28.170241197720529 6.1642429997588382 0 -0.78801076186113728 0.61566146476048833 2 0 0 1 I I #
face $-1 $-1 $399 $38 $-1 $400 reversed single #
loop $-1 $-1 $182 $176 #
plane-surface $-1 0 0 9.4321051459575802 0 0 1 1 0 0 forward_v I I I I #
coedge $-1 $401 $402 $403 $404 reversed $177 $-1 #
coedge $-1 $405 $179 $181 $287 forward $111 $-1 #
coedge $-1 $179 $405 $401 $406 forward $111 $-1 #
coedge $-1 $403 $182 $179 $284 forward $278 $-1 #
edge $-1 $290 -13.709748418853263 $407 7.3434219513771115 $283 $408 forward 7 unknown #
coedge $-1 $409 $410 $180 $286 forward $399 $-1 #
edge $-1 $411 -53.324879660529824 $289 -48.869131750668664 $285 $412 forward 7 unknown #
edge $-1 $290 54.366496277185078 $411 61.446749702786803 $181 $413 forward 7 unknown #
coedge $-1 $182 $403 $409 $414 forward $278 $-1 #
vertex $-1 $286 $415 #
vertex $-1 $183 $416 #
straight-curve $-1 -16.892911652591337 21.024614984262485 9.4321051459575784 0 -1 0 I I #
coedge $-1 $292 $292 $-1 $417 reversed $186 $-1 #
edge $-1 $418 0 $418 6.2831853071796004 $187 $419 forward 7 unknown #
vertex $-1 $190 $420 #
ellipse-curve $-1 -10.8777201182398 27.972179695896759 7.2042311910270076 0 0.62932039886446345 0.77714595512881146 1.5 0 0 1 I I #
coedge $-1 $296 $296 $-1 $421 reversed $193 $-1 #
edge $-1 $422 0 $422 6.2831853071796004 $194 $423 forward 7 unknown #
vertex $-1 $197 $424 #
ellipse-curve $-1 -1.8549328167124983 27.972179695896759 7.2042311910270076 0 0.62932039886446345 0.77714595512881146 1.5 0 0 1 I I #
face $-1 $-1 $425 $41 $-1 $426 reversed single #
loop $-1 $-1 $312 $198 #
plane-surface $-1 4.1602587176390369 42.049229968524969 116.60247379325249 -1 0 0 0 0.62932039886446345 0.77714595512881146 forward_v I I I I #
coedge $-1 $306 $427 $203 $311 forward $199 $-1 #
coedge $-1 $305 $201 $308 $428 reversed $125 $-1 #
coedge $-1 $201 $304 $429 $430 reversed $125 $-1 #
coedge $-1 $431 $303 $201 $307 forward $199 $-1 #
edge $-1 $432 4.1963695561376397 $433 9.6987598671309208 $306 $434 forward 7 unknown #
coedge $-1 $203 $202 $304 $428 forward $80 $-1 #
coedge $-1 $435 $429 $202 $310 forward $425 $-1 #
edge $-1 $436 -28.396592321607475 $314 -7.3434219513771115 $309 $437 forward 7 unknown #
edge $-1 $315 7.3434219513771115 $432 28.396592321607475 $303 $438 forward 7 unknown #
coedge $-1 $313 $204 $427 $439 reversed $301 $-1 #
coedge $-1 $204 $312 $435 $440 reversed $301 $-1 #
vertex $-1 $310 $441 #
vertex $-1 $311 $442 #
straight-curve $-1 4.1602587176390369 -17.029718135939852 43.646050267979064 0 -0.77714595512881146 0.62932039886446345 I I #
coedge $-1 $317 $317 $-1 $443 reversed $208 $-1 #
edge $-1 $444 0 $444 6.2831853071796004 $209 $445 forward 7 unknown #
vertex $-1 $212 $446 #
ellipse-curve $-1 10.175450251990561 27.972179695896759 7.2042311910270076 0 0.62932039886446345 0.77714595512881146 1.5 0 0 1 I I #
coedge $-1 $321 $321 $-1 $447 reversed $215 $-1 #
edge $-1 $448 0 $448 6.2831853071796004 $216 $449 forward 7 unknown #
vertex $-1 $219 $450 #
ellipse-curve $-1 19.198237553517856 27.972179695896759 7.2042311910270076 0 0.62932039886446345 0.77714595512881146 1.5 0 0 1 I I #
face $-1 $-1 $235 $33 $-1 $451 reversed single #
loop $-1 $-1 $341 $220 #
plane-surface $-1 0 30.723374851393405 0 0 -1 0 0 0 -1 forward_v I I I I #
coedge $-1 $452 $339 $342 $453 forward $221 $-1 #
coedge $-1 $345 $223 $224 $333 reversed $139 $-1 #
coedge $-1 $339 $452 $223 $331 reversed $221 $-1 #
edge $-1 $346 -9.4321051459575802 $454 9.4321051459575802 $330 $455 forward 7 unknown #
coedge $-1 $225 $224 $452 $456 forward $89 $-1 #
edge $-1 $337 -46.938688314462723 $454 46.938688314462723 $329 $457 forward 7 unknown #
coedge $-1 $342 $341 $225 $335 reversed $326 $-1 #
edge $-1 $458 -46.938688314462723 $336 46.938688314462723 $334 $459 forward 7 unknown #
vertex $-1 $227 $460 #
vertex $-1 $348 $461 #
straight-curve $-1 46.938688314462723 0 -9.4321051459575802 0 -1 0 I I #
coedge $-1 $328 $330 $228 $340 reversed $221 $-1 #
edge $-1 $343 -30.723374851393405 $346 30.723374851393405 $339 $462 forward 7 unknown #
coedge $-1 $334 $229 $234 $349 forward $326 $-1 #
coedge $-1 $229 $334 $328 $453 reversed $326 $-1 #
vertex $-1 $230 $463 #
straight-curve $-1 0 30.723374851393405 9.4321051459575802 -1 0 0 I I #
coedge $-1 $231 $329 $233 $348 reversed $139 $-1 #
vertex $-1 $340 $464 #
straight-curve $-1 0 -30.723374851393405 9.4321051459575802 1 0 0 I I #
edge $-1 $236 -9.4321051459575802 $337 9.4321051459575802 $233 $465 forward 7 unknown #
edge $-1 $237 -9.4321051459575802 $336 9.4321051459575802 $234 $466 forward 7 unknown #
point $-1 46.938688314462723 -30.723374851393405 9.4321051459575802 #
point $-1 46.938688314462723 30.723374851393405 9.4321051459575802 #
face $-1 $-1 $366 $34 $-1 $467 reversed single #
loop $-1 $-1 $362 $239 #
plane-surface $-1 0 0 9.4321051459575802 0 0 1 1 0 0 forward_v I I I I #
coedge $-1 $468 $469 $356 $470 forward $240 $-1 #
coedge $-1 $243 $242 $355 $470 reversed $93 $-1 #
edge $-1 $471 -4.1602587176390315 $251 4.1602587176390315 $242 $472 forward 7 unknown #
coedge $-1 $473 $362 $243 $359 forward $353 $-1 #
edge $-1 $360 46.938688314462723 $474 55.259205749740786 $243 $475 forward 7 unknown #
vertex $-1 $359 $476 #
straight-curve $-1 -46.938688314462723 30.723374851393405 0 0 0 -1 I I #
coedge $-1 $358 $477 $245 $363 forward $353 $-1 #
edge $-1 $367 -30.723374851393405 $360 30.723374851393405 $362 $478 forward 7 unknown #
coedge $-1 $479 $246 $477 $480 reversed $366 $-1 #
coedge $-1 $246 $479 $248 $370 reversed $366 $-1 #
loop $-1 $-1 $246 $352 #
vertex $-1 $247 $481 #
straight-curve $-1 -46.938688314462723 -30.723374851393405 0 0 0 1 I I #
coedge $-1 $249 $248 $468 $482 forward $147 $-1 #
edge $-1 $250 -4.1602587176390315 $483 4.1602587176390315 $365 $484 forward 7 unknown #
point $-1 -46.938688314462723 -30.723374851393405 5.5609898035744889 #
point $-1 -46.938688314462723 30.723374851393405 5.5609898035744889 #
plane-surface $-1 0 0 9.4321051459575802 0 0 1 1 0 0 forward_v I I I I #
coedge $-1 $384 $383 $376 $485 forward $254 $-1 #
coedge $-1 $376 $256 $258 $380 reversed $155 $-1 #
coedge $-1 $256 $375 $374 $485 reversed $155 $-1 #
coedge $-1 $264 $259 $256 $378 forward $265 $-1 #
edge $-1 $381 -26.732771421091282 $486 -21.626504113745529 $377 $487 forward 7 unknown #
coedge $-1 $258 $257 $384 $488 reversed $97 $-1 #
edge $-1 $489 -5.6867396732475225e-015 $381 8.2939530888655639 $375 $490 forward 7 unknown #
vertex $-1 $260 $491 #
straight-curve $-1 10.208106063747294 -25.617107544047652 9.4321051459575802 -1 0 0 I I #
coedge $-1 $374 $261 $264 $388 reversed $254 $-1 #
coedge $-1 $261 $374 $379 $488 forward $254 $-1 #
vertex $-1 $262 $492 #
straight-curve $-1 32.573996655233493 -30.723374851393402 30.346532028398187 0 0 1 I I #
straight-curve $-1 32.573996655233493 -30.723374851393402 2.8963808535600961 0 -0.61566146476048833 -0.78801076186113728 I I #
edge $-1 $486 8.2584275997556844 $266 32.573996655233493 $383 $493 forward 7 unknown #
point $-1 32.573996655233493 -30.723374851393405 9.4321051459575802 #
point $-1 32.573996655233493 -25.617107544047652 9.4321051459575802 #
edge $-1 $494 1 $494 0 $269 $-1 forward 7 unknown #
vertex $-1 $270 $495 #
ellipse-curve $-1 15.205733044177926 -22.651544533077143 1.8525647377785799 0 -0.78801076186113728 0.61566146476048833 2 0 0 1 I I #
point $-1 17.205733044177926 -28.170241197720536 6.1642429997588444 #
edge $-1 $496 1 $496 0 $273 $-1 forward 7 unknown #
vertex $-1 $274 $497 #
ellipse-curve $-1 25.626691210811273 -22.651544533077143 1.8525647377785799 0 -0.78801076186113728 0.61566146476048833 2 0 0 1 I I #
point $-1 27.626691210811273 -28.170241197720536 6.1642429997588444 #
loop $-1 $-1 $285 $277 #
plane-surface $-1 0 30.723374851393405 0 0 -1 0 0 0 -1 forward_v I I I I #
coedge $-1 $402 $280 $282 $406 reversed $177 $-1 #
coedge $-1 $280 $401 $498 $499 reversed $177 $-1 #
coedge $-1 $288 $283 $280 $404 forward $278 $-1 #
edge $-1 $407 4.1963695561376397 $500 9.6987598671309208 $403 $501 forward 7 unknown #
coedge $-1 $282 $281 $410 $502 reversed $111 $-1 #
edge $-1 $503 -61.446749702786803 $407 -54.366496277185078 $401 $504 forward 7 unknown #
vertex $-1 $284 $505 #
straight-curve $-1 -3.1831632337380746 25.220984540400124 9.4321051459575749 1 0 0 I I #
coedge $-1 $498 $285 $288 $414 reversed $399 $-1 #
coedge $-1 $285 $498 $405 $502 forward $399 $-1 #
vertex $-1 $286 $506 #
straight-curve $-1 -16.892911652591337 30.723374851393405 58.301236896626243 0 0 1 I I #
straight-curve $-1 -16.892911652591337 -17.029718135939852 43.646050267979064 0 0.77714595512881146 -0.62932039886446345 I I #
edge $-1 $500 -4.1602587176390369 $289 16.892911652591337 $409 $507 forward 7 unknown #
point $-1 -16.892911652591337 30.723374851393405 9.4321051459575802 #
point $-1 -16.892911652591337 25.220984540400124 9.4321051459575784 #
edge $-1 $508 1 $508 0 $292 $-1 forward 7 unknown #
vertex $-1 $293 $509 #
ellipse-curve $-1 -10.8777201182398 26.250359315074618 5.0779601424025937 0 0.62932039886446345 0.77714595512881146 1.5 0 0 1 I I #
point $-1 -9.3777201182398002 27.972179695896742 7.2042311910269881 #
edge $-1 $510 1 $510 0 $296 $-1 forward 7 unknown #
vertex $-1 $297 $511 #
ellipse-curve $-1 -1.8549328167124983 26.250359315074618 5.0779601424025937 0 0.62932039886446345 0.77714595512881146 1.5 0 0 1 I I #
point $-1 -0.35493281671249832 27.972179695896742 7.2042311910269881 #
loop $-1 $-1 $309 $300 #
plane-surface $-1 0 30.723374851393405 0 0 -1 0 0 0 -1 forward_v I I I I #
coedge $-1 $303 $431 $312 $439 forward $199 $-1 #
edge $-1 $436 -61.446749702786803 $432 -54.366496277185078 $304 $512 forward 7 unknown #
coedge $-1 $309 $513 $305 $430 forward $425 $-1 #
edge $-1 $433 48.869131750668664 $436 53.324879660529824 $429 $514 forward 7 unknown #
coedge $-1 $427 $306 $513 $515 forward $199 $-1 #
vertex $-1 $307 $516 #
vertex $-1 $515 $517 #
straight-curve $-1 25.2134290878694 21.024614984262485 9.4321051459575784 0 1 0 I I #
coedge $-1 $513 $309 $313 $440 forward $425 $-1 #
vertex $-1 $430 $518 #
straight-curve $-1 -3.1831632337380746 30.723374851393405 4.9763572360964261 -1 0 0 I I #
straight-curve $-1 -3.1831632337380746 25.220984540400124 9.4321051459575749 1 0 0 I I #
edge $-1 $519 -9.6987598671309208 $315 -4.1963695561376397 $427 $520 forward 7 unknown #
edge $-1 $314 -53.324879660529824 $519 -48.869131750668664 $435 $521 forward 7 unknown #
point $-1 4.1602587176390369 30.723374851393409 4.976357236096419 #
point $-1 4.1602587176390369 25.220984540400124 9.4321051459575784 #
edge $-1 $522 1 $522 0 $317 $-1 forward 7 unknown #
vertex $-1 $318 $523 #
ellipse-curve $-1 10.175450251990561 26.250359315074618 5.0779601424025937 0 0.62932039886446345 0.77714595512881146 1.5 0 0 1 I I #
point $-1 11.675450251990561 27.972179695896742 7.2042311910269881 #
edge $-1 $524 1 $524 0 $321 $-1 forward 7 unknown #
vertex $-1 $322 $525 #
ellipse-curve $-1 19.198237553517856 26.250359315074618 5.0779601424025937 0 0.62932039886446345 0.77714595512881146 1.5 0 0 1 I I #
point $-1 20.698237553517856 27.972179695896742 7.2042311910269881 #
plane-surface $-1 46.938688314462723 0 0 -1 0 0 0 0 1 forward_v I I I I #
coedge $-1 $330 $328 $332 $456 reversed $221 $-1 #
edge $-1 $343 -9.4321051459575802 $458 9.4321051459575802 $342 $526 forward 7 unknown #
vertex $-1 $456 $527 #
straight-curve $-1 -46.938688314462723 -30.723374851393405 0 0 0 -1 I I #
edge $-1 $454 -30.723374851393405 $458 30.723374851393405 $452 $528 forward 7 unknown #
straight-curve $-1 0 -30.723374851393405 -9.4321051459575802 -1 0 0 I I #
vertex $-1 $335 $529 #
straight-curve $-1 0 30.723374851393405 -9.4321051459575802 1 0 0 I I #
point $-1 46.938688314462723 30.723374851393405 -9.4321051459575802 #
point $-1 46.938688314462723 -30.723374851393405 -9.4321051459575802 #
straight-curve $-1 -46.938688314462723 0 9.4321051459575802 0 -1 0 I I #
point $-1 -46.938688314462723 30.723374851393405 9.4321051459575802 #
point $-1 -46.938688314462723 -30.723374851393405 9.4321051459575802 #
straight-curve $-1 46.938688314462723 -30.723374851393405 0 0 0 -1 I I #
straight-curve $-1 46.938688314462723 30.723374851393405 0 0 0 -1 I I #
plane-surface $-1 0 -30.723374851393405 0 0 1 0 0 0 1 forward_v I I I I #
coedge $-1 $530 $355 $369 $482 reversed $240 $-1 #
coedge $-1 $355 $530 $473 $531 reversed $240 $-1 #
edge $-1 $474 -1.9355576711915443 $471 1.9355576711915452 $356 $532 forward 7 unknown #
vertex $-1 $357 $533 #
straight-curve $-1 -51.098947032101755 30.723374851393405 5.5609898035744889 1 0 0 I I #
coedge $-1 $477 $358 $469 $531 forward $353 $-1 #
vertex $-1 $359 $534 #
straight-curve $-1 0 30.723374851393405 9.4321051459575802 -1 0 0 I I #
point $-1 -46.938688314462723 30.723374851393405 9.4321051459575802 #
coedge $-1 $362 $473 $364 $480 forward $353 $-1 #
straight-curve $-1 -46.938688314462723 0 9.4321051459575802 0 1 0 I I #
coedge $-1 $365 $364 $530 $535 forward $366 $-1 #
edge $-1 $536 -55.259205749740786 $367 -46.938688314462723 $364 $537 forward 7 unknown #
point $-1 -46.938688314462723 -30.723374851393405 9.4321051459575802 #
edge $-1 $483 -30.723374851393405 $471 30.723374851393405 $468 $538 forward 7 unknown #
vertex $-1 $482 $539 #
straight-curve $-1 -51.098947032101755 -30.723374851393405 5.5609898035744889 -1 0 0 I I #
edge $-1 $486 20.914426882440608 $489 27.450151174838094 $374 $540 forward 7 unknown #
vertex $-1 $388 $541 #
straight-curve $-1 8.2584275997556844 -52.349878965138934 9.4321051459575784 0 -1 0 I I #
edge $-1 $489 -1.94967846399161 $385 22.365890591486199 $384 $542 forward 7 unknown #
vertex $-1 $488 $543 #
straight-curve $-1 8.2584275997556844 -30.723374851393402 2.8963808535600961 0 0.61566146476048833 0.78801076186113728 I I #
point $-1 8.2584275997556844 -25.617107544047652 9.4321051459575802 #
point $-1 32.573996655233493 -30.723374851393405 2.8963808535600917 #
straight-curve $-1 0 -30.723374851393405 9.4321051459575802 1 0 0 I I #
vertex $-1 $391 $544 #
point $-1 17.205733044177926 -22.651544533077143 1.8525647377785799 #
vertex $-1 $395 $545 #
point $-1 27.626691210811273 -22.651544533077143 1.8525647377785799 #
coedge $-1 $410 $409 $402 $499 forward $399 $-1 #
edge $-1 $500 48.869131750668664 $503 53.324879660529824 $498 $546 forward 7 unknown #
vertex $-1 $414 $547 #
straight-curve $-1 4.1602587176390369 21.024614984262485 9.4321051459575784 0 1 0 I I #
edge $-1 $503 -7.3434219513771115 $411 13.709748418853263 $410 $548 forward 7 unknown #
vertex $-1 $502 $549 #
straight-curve $-1 4.1602587176390369 -17.029718135939852 43.646050267979064 0 -0.77714595512881146 0.62932039886446345 I I #
point $-1 4.1602587176390369 25.220984540400124 9.4321051459575784 #
point $-1 -16.892911652591337 30.723374851393409 4.976357236096419 #
straight-curve $-1 0 30.723374851393405 9.4321051459575802 -1 0 0 I I #
vertex $-1 $417 $550 #
point $-1 -9.3777201182398002 26.250359315074618 5.0779601424025937 #
vertex $-1 $421 $551 #
point $-1 -0.35493281671249832 26.250359315074618 5.0779601424025937 #
straight-curve $-1 25.2134290878694 -17.029718135939852 43.646050267979064 0 -0.77714595512881146 0.62932039886446345 I I #
coedge $-1 $429 $435 $431 $515 reversed $425 $-1 #
straight-curve $-1 25.2134290878694 30.723374851393405 58.301236896626243 0 0 -1 I I #
edge $-1 $433 -25.2134290878694 $519 -4.1602587176390369 $513 $552 forward 7 unknown #
point $-1 25.2134290878694 25.220984540400124 9.4321051459575784 #
point $-1 25.2134290878694 30.723374851393405 9.4321051459575802 #
point $-1 25.2134290878694 30.723374851393409 4.976357236096419 #
vertex $-1 $440 $553 #
straight-curve $-1 4.1602587176390369 21.024614984262485 9.4321051459575784 0 -1 0 I I #
straight-curve $-1 4.1602587176390369 30.723374851393405 58.301236896626243 0 0 1 I I #
vertex $-1 $443 $554 #
point $-1 11.675450251990561 26.250359315074618 5.0779601424025937 #
vertex $-1 $447 $555 #
point $-1 20.698237553517856 26.250359315074618 5.0779601424025937 #
straight-curve $-1 -46.938688314462723 30.723374851393405 0 0 0 -1 I I #
point $-1 -46.938688314462723 -30.723374851393405 -9.4321051459575802 #
straight-curve $-1 -46.938688314462723 0 -9.4321051459575802 0 1 0 I I #
point $-1 -46.938688314462723 30.723374851393405 -9.4321051459575802 #
coedge $-1 $469 $468 $479 $535 reversed $240 $-1 #
edge $-1 $474 -30.723374851393405 $536 30.723374851393405 $469 $556 forward 7 unknown #
straight-curve $-1 -55.259205749740786 30.723374851393405 7.4965474747660341 0 0 -1 I I #
point $-1 -55.259205749740786 30.723374851393405 5.5609898035744889 #
point $-1 -55.259205749740786 30.723374851393405 9.4321051459575784 #
edge $-1 $536 -1.9355576711915443 $483 1.9355576711915452 $530 $557 forward 7 unknown #
vertex $-1 $531 $558 #
straight-curve $-1 0 -30.723374851393405 9.4321051459575802 1 0 0 I I #
straight-curve $-1 -55.259205749740786 0 5.5609898035744889 0 1 0 I I #
point $-1 -55.259205749740786 -30.723374851393405 5.5609898035744889 #
straight-curve $-1 8.2584275997556844 -30.723374851393402 30.346532028398187 0 0 -1 I I #
point $-1 8.2584275997556844 -30.723374851393405 9.4321051459575802 #
straight-curve $-1 10.208106063747294 -30.723374851393405 2.8963808535600908 1 0 0 I I #
point $-1 8.2584275997556844 -30.723374851393405 2.8963808535600917 #
point $-1 15.205733044177926 -21.075523009354868 0.62124180825760322 #
point $-1 25.626691210811273 -21.075523009354868 0.62124180825760322 #
straight-curve $-1 4.1602587176390369 30.723374851393405 58.301236896626243 0 0 -1 I I #
point $-1 4.1602587176390369 30.723374851393405 9.4321051459575802 #
straight-curve $-1 -3.1831632337380746 30.723374851393405 4.9763572360964261 -1 0 0 I I #
point $-1 4.1602587176390369 30.723374851393409 4.976357236096419 #
point $-1 -10.8777201182398 25.306378716777921 3.9122412097093768 #
point $-1 -1.8549328167124983 25.306378716777921 3.9122412097093768 #
straight-curve $-1 0 30.723374851393405 9.4321051459575802 -1 0 0 I I #
point $-1 4.1602587176390369 30.723374851393405 9.4321051459575802 #
point $-1 10.175450251990561 25.306378716777921 3.9122412097093768 #
point $-1 19.198237553517856 25.306378716777921 3.9122412097093768 #
straight-curve $-1 -55.259205749740786 0 9.4321051459575784 0 -1 0 I I #
straight-curve $-1 -55.259205749740786 -30.723374851393405 7.4965474747660341 0 0 -1 I I #
point $-1 -55.259205749740786 -30.723374851393405 9.4321051459575784 #
End-of-ACIS-data 