500 0 12 0           
7 Unknown 11 ACIS 5.0 NT 24 Thu Mar 25 15:24:20 1999 
-1 9.9999999999999995e-007 1e-010 
body $-1 $12 $-1 $13 #
body $-1 $14 $-1 $15 #
body $-1 $16 $-1 $17 #
body $-1 $18 $-1 $19 #
body $-1 $20 $-1 $21 #
body $-1 $22 $-1 $23 #
body $-1 $24 $-1 $25 #
body $-1 $26 $-1 $27 #
body $-1 $28 $-1 $29 #
body $-1 $30 $-1 $31 #
body $-1 $32 $-1 $33 #
body $-1 $34 $-1 $35 #
lump $-1 $-1 $36 $0 #
transform $-1 1 0 0 0 1 0 0 0 1 50.478835413678397 34.306412967642608 7.5654817378516643 1 rotate no_reflect no_shear #
lump $-1 $-1 $37 $1 #
transform $-1 1 0 0 0 1 0 0 0 1 50.478835413678397 34.306412967642608 7.5654817378516643 1 rotate no_reflect no_shear #
lump $-1 $-1 $38 $2 #
transform $-1 1 0 0 0 1 0 0 0 1 50.478835413678397 34.306412967642608 7.5654817378516643 1 rotate no_reflect no_shear #
lump $-1 $-1 $39 $3 #
transform $-1 1 0 0 0 1 0 0 0 1 50.478835413678397 34.306412967642608 7.5654817378516643 1 rotate no_reflect no_shear #
lump $-1 $-1 $40 $4 #
transform $-1 1 0 0 0 1 0 0 0 1 50.478835413678397 34.306412967642608 7.5654817378516643 1 rotate no_reflect no_shear #
lump $-1 $-1 $41 $5 #
transform $-1 1 0 0 0 1 0 0 0 1 50.478835413678397 34.306412967642608 7.5654817378516643 1 rotate no_reflect no_shear #
lump $-1 $-1 $42 $6 #
transform $-1 1 0 0 0 1 0 0 0 1 50.478835413678397 34.306412967642608 7.5654817378516643 1 rotate no_reflect no_shear #
lump $-1 $-1 $43 $7 #
transform $-1 1 0 0 0 1 0 0 0 1 50.478835413678397 34.306412967642608 7.5654817378516643 1 rotate no_reflect no_shear #
lump $-1 $-1 $44 $8 #
transform $-1 1 0 0 0 1 0 0 0 1 50.478835413678397 34.306412967642608 7.5654817378516643 1 rotate no_reflect no_shear #
lump $-1 $-1 $45 $9 #
transform $-1 1 0 0 0 1 0 0 0 1 50.478835413678397 34.306412967642608 7.5654817378516643 1 rotate no_reflect no_shear #
lump $-1 $-1 $46 $10 #
transform $-1 1 0 0 0 1 0 0 0 1 50.478835413678397 34.306412967642608 7.5654817378516643 1 rotate no_reflect no_shear #
lump $-1 $-1 $47 $11 #
transform $-1 1 0 0 0 1 0 0 0 1 50.478835413678397 34.306412967642608 7.5654817378516643 1 rotate no_reflect no_shear #
shell $-1 $-1 $-1 $48 $-1 $12 #
shell $-1 $-1 $-1 $49 $-1 $14 #
shell $-1 $-1 $-1 $50 $-1 $16 #
shell $-1 $-1 $-1 $51 $-1 $18 #
shell $-1 $-1 $-1 $52 $-1 $20 #
shell $-1 $-1 $-1 $53 $-1 $22 #
shell $-1 $-1 $-1 $54 $-1 $24 #
shell $-1 $-1 $-1 $55 $-1 $26 #
shell $-1 $-1 $-1 $56 $-1 $28 #
shell $-1 $-1 $-1 $57 $-1 $30 #
shell $-1 $-1 $-1 $58 $-1 $32 #
shell $-1 $-1 $-1 $59 $-1 $34 #
face $-1 $60 $61 $36 $-1 $62 forward single #
face $-1 $63 $64 $37 $-1 $65 reversed single #
face $-1 $66 $67 $38 $-1 $68 reversed single #
face $-1 $69 $70 $39 $-1 $71 forward single #
face $-1 $72 $73 $40 $-1 $74 forward single #
face $-1 $75 $76 $41 $-1 $77 forward single #
face $-1 $78 $79 $42 $-1 $80 reversed single #
face $-1 $81 $82 $43 $-1 $83 forward single #
face $-1 $84 $85 $44 $-1 $86 forward single #
face $-1 $87 $88 $45 $-1 $89 forward single #
face $-1 $90 $91 $46 $-1 $92 reversed single #
face $-1 $93 $94 $47 $-1 $95 forward single #
face $-1 $96 $97 $36 $-1 $98 reversed single #
loop $-1 $-1 $99 $48 #
plane-surface $-1 0 0 7.5654817378516643 0 0 1 1 0 0 forward_v I I I I #
face $-1 $100 $101 $37 $-1 $102 reversed single #
loop $-1 $-1 $103 $49 #
plane-surface $-1 -47.005434941418606 -22.849834985653043 0 0 1 0 0 0 1 forward_v I I I I #
face $-1 $104 $105 $38 $-1 $106 reversed single #
loop $-1 $-1 $107 $50 #
plane-surface $-1 -23.698716419251419 -103.15937972623797 77.072440840158293 -1 0 0 0 -0.68199836817093118 0.7313536940579346 forward_v I I I I #
face $-1 $108 $109 $39 $-1 $110 forward single #
loop $-1 $111 $112 $51 #
cone-surface $-1 -37.305919788822322 -30.837891214939901 4.1705531251956174 0 0.68199836817093118 -0.7313536940579346 1 0 0 1 I I 0 1 1 forward I I I I #
face $-1 $113 $114 $40 $-1 $115 forward single #
loop $-1 $116 $117 $52 #
cone-surface $-1 -32.203218525233233 -30.837891214939901 4.1705531251956174 0 0.68199836817093118 -0.7313536940579346 1 0 0 1 I I 0 1 1 forward I I I I #
face $-1 $118 $119 $41 $-1 $120 forward single #
loop $-1 $121 $122 $53 #
cone-surface $-1 -27.100517261644143 -30.837891214939901 4.1705531251956174 0 0.68199836817093118 -0.7313536940579346 1 0 0 1 I I 0 1 1 forward I I I I #
face $-1 $123 $124 $42 $-1 $125 reversed single #
loop $-1 $-1 $126 $54 #
plane-surface $-1 47.654521575734606 -103.15937972623797 77.072440840158293 -1 0 0 0 -0.68199836817093118 0.7313536940579346 forward_v I I I I #
face $-1 $127 $128 $43 $-1 $129 forward single #
loop $-1 $130 $131 $55 #
cone-surface $-1 34.047318206163709 -30.837891214939901 4.1705531251956174 0 0.68199836817093118 -0.7313536940579346 1 0 0 1 I I 0 1 1 forward I I I I #
face $-1 $132 $133 $44 $-1 $134 forward single #
loop $-1 $135 $136 $56 #
cone-surface $-1 39.150019469752792 -30.837891214939901 4.1705531251956174 0 0.68199836817093118 -0.7313536940579346 1 0 0 1 I I 0 1 1 forward I I I I #
face $-1 $137 $138 $45 $-1 $139 forward single #
loop $-1 $140 $141 $57 #
cone-surface $-1 44.252720733341889 -30.837891214939901 4.1705531251956174 0 0.68199836817093118 -0.7313536940579346 1 0 0 1 I I 0 1 1 forward I I I I #
face $-1 $142 $143 $46 $-1 $144 reversed single #
loop $-1 $-1 $145 $58 #
plane-surface $-1 6.271147692441005 33.878616455777411 123.20454433588496 1 0 0 0 -0.55919291073839883 -0.82903756765294845 forward_v I I I I #
face $-1 $146 $147 $47 $-1 $148 forward single #
loop $-1 $149 $150 $59 #
cone-surface $-1 17.729789395421733 28.311100141911304 2.5264637794433944 0 -0.55919291073839883 -0.82903756765294845 2 0 0 1 I I 0 1 2 forward I I I I #
face $-1 $151 $152 $36 $-1 $153 reversed single #
loop $-1 $-1 $154 $60 #
plane-surface $-1 0 0 -7.5654817378516643 0 0 1 1 0 0 forward_v I I I I #
coedge $-1 $155 $156 $157 $158 forward $61 $-1 #
face $-1 $159 $160 $37 $-1 $161 reversed single #
loop $-1 $-1 $162 $63 #
plane-surface $-1 -47.005434941418606 -19.175449491939279 0 0 -1 0 0 0 -1 forward_v I I I I #
coedge $-1 $163 $164 $165 $166 reversed $64 $-1 #
face $-1 $167 $168 $38 $-1 $169 reversed single #
loop $-1 $-1 $170 $66 #
plane-surface $-1 -32.203218525233233 -34.306412967642615 3.2366753370859271 0 -0.68199836817093118 0.7313536940579346 1 0 0 forward_v I I I I #
coedge $-1 $171 $172 $173 $174 reversed $67 $-1 #
face $-1 $-1 $175 $39 $-1 $176 forward single #
loop $-1 $177 $178 $69 #
cone-surface $-1 -37.305919788822322 -29.349408494527776 2.5743508658934786 0 0.68199836817093118 -0.7313536940579346 0.5 0 0 1 I I -0.70710678118654746 0.70710678118654746 0.5 forward I I I I #
loop $-1 $-1 $179 $51 #
coedge $-1 $112 $112 $180 $181 reversed $70 $-1 #
face $-1 $-1 $182 $40 $-1 $183 forward single #
loop $-1 $184 $185 $72 #
cone-surface $-1 -32.203218525233233 -29.349408494527776 2.5743508658934786 0 0.68199836817093118 -0.7313536940579346 0.5 0 0 1 I I -0.70710678118654746 0.70710678118654746 0.5 forward I I I I #
loop $-1 $-1 $186 $52 #
coedge $-1 $117 $117 $187 $188 reversed $73 $-1 #
face $-1 $-1 $189 $41 $-1 $190 forward single #
loop $-1 $191 $192 $75 #
cone-surface $-1 -27.100517261644143 -29.349408494527776 2.5743508658934786 0 0.68199836817093118 -0.7313536940579346 0.5 0 0 1 I I -0.70710678118654746 0.70710678118654746 0.5 forward I I I I #
loop $-1 $-1 $193 $53 #
coedge $-1 $122 $122 $194 $195 reversed $76 $-1 #
face $-1 $196 $197 $42 $-1 $198 reversed single #
loop $-1 $-1 $199 $78 #
plane-surface $-1 39.150019469752792 -34.306412967642615 3.2366753370859271 0 -0.68199836817093118 0.7313536940579346 1 0 0 forward_v I I I I #
coedge $-1 $200 $201 $202 $203 reversed $79 $-1 #
face $-1 $-1 $204 $43 $-1 $205 forward single #
loop $-1 $206 $207 $81 #
cone-surface $-1 34.047318206163709 -29.349408494527776 2.5743508658934786 0 0.68199836817093118 -0.7313536940579346 0.5 0 0 1 I I -0.70710678118654746 0.70710678118654746 0.5 forward I I I I #
loop $-1 $-1 $208 $55 #
coedge $-1 $131 $131 $209 $210 reversed $82 $-1 #
face $-1 $-1 $211 $44 $-1 $212 forward single #
loop $-1 $213 $214 $84 #
cone-surface $-1 39.150019469752792 -29.349408494527776 2.5743508658934786 0 0.68199836817093118 -0.7313536940579346 0.5 0 0 1 I I -0.70710678118654746 0.70710678118654746 0.5 forward I I I I #
loop $-1 $-1 $215 $56 #
coedge $-1 $136 $136 $216 $217 reversed $85 $-1 #
face $-1 $-1 $218 $45 $-1 $219 forward single #
loop $-1 $220 $221 $87 #
cone-surface $-1 44.252720733341889 -29.349408494527776 2.5743508658934786 0 0.68199836817093118 -0.7313536940579346 0.5 0 0 1 I I -0.70710678118654746 0.70710678118654746 0.5 forward I I I I #
loop $-1 $-1 $222 $57 #
coedge $-1 $141 $141 $223 $224 reversed $88 $-1 #
face $-1 $225 $226 $46 $-1 $227 reversed single #
loop $-1 $-1 $228 $90 #
plane-surface $-1 17.729789395421733 -22.576197355541368 39.506842477266048 0 0.55919291073839883 0.82903756765294845 1 0 0 forward_v I I I I #
coedge $-1 $229 $230 $231 $232 reversed $91 $-1 #
face $-1 $-1 $233 $47 $-1 $234 forward single #
loop $-1 $235 $236 $93 #
cone-surface $-1 17.729789395421733 26.520392658047044 -0.12836919195538776 0 -0.55919291073839883 -0.82903756765294845 1 0 0 1 I I -0.70710678118654746 0.70710678118654746 1 forward I I I I #
loop $-1 $-1 $237 $59 #
coedge $-1 $150 $150 $238 $239 reversed $94 $-1 #
face $-1 $240 $241 $36 $-1 $242 reversed single #
loop $-1 $-1 $243 $96 #
plane-surface $-1 0 -34.306412967642608 0 0 1 0 0 0 1 forward_v I I I I #
coedge $-1 $244 $245 $246 $247 forward $97 $-1 #
coedge $-1 $248 $99 $249 $250 forward $61 $-1 #
coedge $-1 $99 $248 $251 $252 forward $61 $-1 #
coedge $-1 $253 $254 $99 $158 reversed $255 $-1 #
edge $-1 $256 -34.306412967642608 $257 34.306412967642608 $157 $258 forward 7 unknown #
face $-1 $259 $260 $37 $-1 $261 reversed single #
loop $-1 $-1 $262 $100 #
plane-surface $-1 -43.532034469158816 -21.012642238796161 0 -1 0 0 0 0 1 forward_v I I I I #
coedge $-1 $263 $264 $265 $266 forward $101 $-1 #
coedge $-1 $267 $103 $268 $269 reversed $64 $-1 #
coedge $-1 $103 $267 $270 $271 reversed $64 $-1 #
coedge $-1 $272 $273 $103 $166 forward $274 $-1 #
edge $-1 $275 -7.5654817378516643 $276 7.5654817378516643 $165 $277 forward 7 unknown #
face $-1 $278 $279 $38 $-1 $280 reversed single #
loop $-1 $-1 $281 $104 #
plane-surface $-1 -40.707720631215047 -103.15937972623797 77.072440840158293 1 0 0 0 0.68199836817093118 -0.7313536940579346 forward_v I I I I #
coedge $-1 $282 $283 $284 $285 reversed $105 $-1 #
coedge $-1 $172 $107 $286 $287 reversed $67 $-1 #
coedge $-1 $107 $171 $282 $288 reversed $67 $-1 #
coedge $-1 $284 $289 $107 $174 forward $290 $-1 #
edge $-1 $291 17.273276895476378 $292 21.915353328228449 $173 $293 forward 7 unknown #
loop $-1 $-1 $180 $108 #
plane-surface $-1 -32.203218525233233 -34.306412967642615 3.2366753370859271 0 -0.68199836817093118 0.7313536940579346 1 0 0 forward_v I I I I #
loop $-1 $-1 $294 $69 #
coedge $-1 $178 $178 $179 $295 reversed $109 $-1 #
coedge $-1 $179 $179 $178 $295 forward $111 $-1 #
coedge $-1 $180 $180 $112 $181 forward $175 $-1 #
edge $-1 $296 5.2603602420124135e-016 $296 6.2831853071796013 $180 $297 forward 7 unknown #
loop $-1 $-1 $187 $113 #
plane-surface $-1 -32.203218525233233 -34.306412967642615 3.2366753370859271 0 -0.68199836817093118 0.7313536940579346 1 0 0 forward_v I I I I #
loop $-1 $-1 $298 $72 #
coedge $-1 $185 $185 $186 $299 reversed $114 $-1 #
coedge $-1 $186 $186 $185 $299 forward $116 $-1 #
coedge $-1 $187 $187 $117 $188 forward $182 $-1 #
edge $-1 $300 5.2603602420124135e-016 $300 6.2831853071796013 $187 $301 forward 7 unknown #
loop $-1 $-1 $194 $118 #
plane-surface $-1 -32.203218525233233 -34.306412967642615 3.2366753370859271 0 -0.68199836817093118 0.7313536940579346 1 0 0 forward_v I I I I #
loop $-1 $-1 $302 $75 #
coedge $-1 $192 $192 $193 $303 reversed $119 $-1 #
coedge $-1 $193 $193 $192 $303 forward $121 $-1 #
coedge $-1 $194 $194 $122 $195 forward $189 $-1 #
edge $-1 $304 5.2603602420124135e-016 $304 6.2831853071796013 $194 $305 forward 7 unknown #
face $-1 $306 $307 $42 $-1 $308 reversed single #
loop $-1 $-1 $309 $123 #
plane-surface $-1 30.645517363770978 -103.15937972623797 77.072440840158293 1 0 0 0 0.68199836817093118 -0.7313536940579346 forward_v I I I I #
coedge $-1 $310 $311 $312 $313 reversed $124 $-1 #
coedge $-1 $201 $126 $314 $315 reversed $79 $-1 #
coedge $-1 $126 $200 $310 $316 reversed $79 $-1 #
coedge $-1 $312 $317 $126 $203 forward $318 $-1 #
edge $-1 $319 17.273276895476378 $320 21.915353328228449 $202 $321 forward 7 unknown #
loop $-1 $-1 $209 $127 #
plane-surface $-1 39.150019469752792 -34.306412967642615 3.2366753370859271 0 -0.68199836817093118 0.7313536940579346 1 0 0 forward_v I I I I #
loop $-1 $-1 $322 $81 #
coedge $-1 $207 $207 $208 $323 reversed $128 $-1 #
coedge $-1 $208 $208 $207 $323 forward $130 $-1 #
coedge $-1 $209 $209 $131 $210 forward $204 $-1 #
edge $-1 $324 5.2603602420124135e-016 $324 6.2831853071796013 $209 $325 forward 7 unknown #
loop $-1 $-1 $216 $132 #
plane-surface $-1 39.150019469752792 -34.306412967642615 3.2366753370859271 0 -0.68199836817093118 0.7313536940579346 1 0 0 forward_v I I I I #
loop $-1 $-1 $326 $84 #
coedge $-1 $214 $214 $215 $327 reversed $133 $-1 #
coedge $-1 $215 $215 $214 $327 forward $135 $-1 #
coedge $-1 $216 $216 $136 $217 forward $211 $-1 #
edge $-1 $328 5.2603602420124135e-016 $328 6.2831853071796013 $216 $329 forward 7 unknown #
loop $-1 $-1 $223 $137 #
plane-surface $-1 39.150019469752792 -34.306412967642615 3.2366753370859271 0 -0.68199836817093118 0.7313536940579346 1 0 0 forward_v I I I I #
loop $-1 $-1 $330 $87 #
coedge $-1 $221 $221 $222 $331 reversed $138 $-1 #
coedge $-1 $222 $222 $221 $331 forward $140 $-1 #
coedge $-1 $223 $223 $141 $224 forward $218 $-1 #
edge $-1 $332 5.2603602420124135e-016 $332 6.2831853071796013 $223 $333 forward 7 unknown #
face $-1 $334 $335 $46 $-1 $336 reversed single #
loop $-1 $-1 $337 $142 #
plane-surface $-1 29.188431098402461 33.878616455777411 123.20454433588496 -1 0 0 0 0.55919291073839883 0.82903756765294845 forward_v I I I I #
coedge $-1 $338 $339 $340 $341 reversed $143 $-1 #
coedge $-1 $230 $145 $342 $343 reversed $91 $-1 #
coedge $-1 $145 $229 $338 $344 reversed $91 $-1 #
coedge $-1 $340 $345 $145 $232 forward $346 $-1 #
edge $-1 $347 -17.367104739753902 $348 -7.8395082345430431 $231 $349 forward 7 unknown #
loop $-1 $-1 $238 $146 #
plane-surface $-1 17.729789395421733 -22.576197355541368 39.506842477266048 0 0.55919291073839883 0.82903756765294845 1 0 0 forward_v I I I I #
loop $-1 $-1 $350 $93 #
coedge $-1 $236 $236 $237 $351 reversed $147 $-1 #
coedge $-1 $237 $237 $236 $351 forward $149 $-1 #
coedge $-1 $238 $238 $150 $239 forward $233 $-1 #
edge $-1 $352 -1.9636351623946226e-016 $352 6.2831853071796004 $238 $353 forward 7 unknown #
face $-1 $354 $355 $36 $-1 $356 reversed single #
loop $-1 $-1 $357 $151 #
plane-surface $-1 -50.478835413678397 0 0 1 0 0 0 0 -1 forward_v I I I I #
coedge $-1 $358 $251 $359 $360 forward $152 $-1 #
coedge $-1 $361 $154 $358 $362 forward $97 $-1 #
coedge $-1 $154 $361 $363 $364 forward $97 $-1 #
coedge $-1 $254 $253 $154 $247 reversed $255 $-1 #
edge $-1 $365 -34.306412967642608 $366 34.306412967642608 $246 $367 forward 7 unknown #
coedge $-1 $156 $155 $368 $369 forward $61 $-1 #
coedge $-1 $370 $371 $155 $250 reversed $355 $-1 #
edge $-1 $257 -50.478835413678397 $372 50.478835413678397 $249 $373 forward 7 unknown #
coedge $-1 $243 $374 $156 $252 reversed $152 $-1 #
edge $-1 $375 -50.478835413678397 $256 50.478835413678397 $251 $376 forward 7 unknown #
coedge $-1 $246 $157 $374 $377 forward $255 $-1 #
coedge $-1 $157 $246 $370 $378 reversed $255 $-1 #
loop $-1 $-1 $253 $354 #
vertex $-1 $158 $379 #
vertex $-1 $158 $380 #
straight-curve $-1 50.478835413678397 0 7.5654817378516643 0 1 0 I I #
face $-1 $381 $382 $37 $-1 $383 forward single #
loop $-1 $-1 $384 $159 #
plane-surface $-1 0 0 -7.5654817378516643 0 0 1 1 0 0 forward_v I I I I #
coedge $-1 $385 $386 $267 $387 forward $160 $-1 #
coedge $-1 $388 $162 $384 $389 reversed $101 $-1 #
coedge $-1 $162 $388 $390 $391 reversed $101 $-1 #
coedge $-1 $386 $385 $162 $266 reversed $160 $-1 #
edge $-1 $392 -7.5654817378516643 $393 7.5654817378516643 $265 $394 forward 7 unknown #
coedge $-1 $164 $163 $262 $387 reversed $64 $-1 #
coedge $-1 $395 $396 $163 $269 forward $260 $-1 #
edge $-1 $397 20.029316998449513 $275 26.976117942969093 $268 $398 forward 7 unknown #
coedge $-1 $399 $400 $164 $271 forward $382 $-1 #
edge $-1 $276 -26.976117942969093 $401 -20.029316998449513 $270 $402 forward 7 unknown #
coedge $-1 $403 $165 $400 $404 reversed $274 $-1 #
coedge $-1 $165 $403 $395 $405 reversed $274 $-1 #
loop $-1 $-1 $403 $381 #
vertex $-1 $405 $406 #
vertex $-1 $166 $407 #
straight-curve $-1 -50.478835413678397 -22.849834985653043 0 0 0 1 I I #
face $-1 $-1 $290 $38 $-1 $408 forward single #
loop $-1 $-1 $409 $167 #
plane-surface $-1 0 -34.306412967642608 0 0 1 0 0 0 1 forward_v I I I I #
coedge $-1 $410 $411 $412 $413 reversed $168 $-1 #
coedge $-1 $414 $170 $172 $288 forward $105 $-1 #
coedge $-1 $170 $414 $410 $415 forward $105 $-1 #
coedge $-1 $412 $173 $170 $285 forward $290 $-1 #
edge $-1 $292 7.5971071566348023 $416 24.60611136859843 $284 $417 forward 7 unknown #
coedge $-1 $418 $419 $171 $287 forward $279 $-1 #
edge $-1 $420 -35.299545082993212 $291 -30.970738682227484 $286 $421 forward 7 unknown #
edge $-1 $292 -6.3472386486426258 $420 -9.739602292442716e-015 $172 $422 forward 7 unknown #
coedge $-1 $173 $412 $418 $423 forward $290 $-1 #
loop $-1 $-1 $412 $278 #
vertex $-1 $287 $424 #
vertex $-1 $174 $425 #
straight-curve $-1 -23.698716419251419 -51.579689863118986 7.5654817378516626 0 1 0 I I #
coedge $-1 $294 $294 $-1 $426 reversed $177 $-1 #
edge $-1 $427 0 $427 6.2831853071796004 $178 $428 forward 7 unknown #
vertex $-1 $181 $429 #
ellipse-curve $-1 -37.305919788822322 -31.985374751266573 5.4010785374688002 0 -0.68199836817093118 0.7313536940579346 1 0 0 1 I I #
coedge $-1 $298 $298 $-1 $430 reversed $184 $-1 #
edge $-1 $431 0 $431 6.2831853071796004 $185 $432 forward 7 unknown #
vertex $-1 $188 $433 #
ellipse-curve $-1 -32.203218525233233 -31.985374751266573 5.4010785374688002 0 -0.68199836817093118 0.7313536940579346 1 0 0 1 I I #
coedge $-1 $302 $302 $-1 $434 reversed $191 $-1 #
edge $-1 $435 0 $435 6.2831853071796004 $192 $436 forward 7 unknown #
vertex $-1 $195 $437 #
ellipse-curve $-1 -27.100517261644143 -31.985374751266573 5.4010785374688002 0 -0.68199836817093118 0.7313536940579346 1 0 0 1 I I #
face $-1 $-1 $318 $42 $-1 $438 forward single #
loop $-1 $-1 $439 $196 #
plane-surface $-1 0 -34.306412967642608 0 0 1 0 0 0 1 forward_v I I I I #
coedge $-1 $440 $441 $442 $443 reversed $197 $-1 #
coedge $-1 $444 $199 $201 $316 forward $124 $-1 #
coedge $-1 $199 $444 $440 $445 forward $124 $-1 #
coedge $-1 $442 $202 $199 $313 forward $318 $-1 #
edge $-1 $320 -28.07951184085821 $446 -11.070507628894582 $312 $447 forward 7 unknown #
coedge $-1 $448 $449 $200 $315 forward $307 $-1 #
edge $-1 $450 -35.299545082993212 $319 -30.970738682227484 $314 $451 forward 7 unknown #
edge $-1 $320 -6.3472386486426258 $450 -9.739602292442716e-015 $201 $452 forward 7 unknown #
coedge $-1 $202 $442 $448 $453 forward $318 $-1 #
loop $-1 $-1 $442 $306 #
vertex $-1 $315 $454 #
vertex $-1 $203 $455 #
straight-curve $-1 47.654521575734606 -51.579689863118986 7.5654817378516626 0 1 0 I I #
coedge $-1 $322 $322 $-1 $456 reversed $206 $-1 #
edge $-1 $457 0 $457 6.2831853071796004 $207 $458 forward 7 unknown #
vertex $-1 $210 $459 #
ellipse-curve $-1 34.047318206163709 -31.985374751266573 5.4010785374688002 0 -0.68199836817093118 0.7313536940579346 1 0 0 1 I I #
coedge $-1 $326 $326 $-1 $460 reversed $213 $-1 #
edge $-1 $461 0 $461 6.2831853071796004 $214 $462 forward 7 unknown #
vertex $-1 $217 $463 #
ellipse-curve $-1 39.150019469752792 -31.985374751266573 5.4010785374688002 0 -0.68199836817093118 0.7313536940579346 1 0 0 1 I I #
coedge $-1 $330 $330 $-1 $464 reversed $220 $-1 #
edge $-1 $465 0 $465 6.2831853071796004 $221 $466 forward 7 unknown #
vertex $-1 $224 $467 #
ellipse-curve $-1 44.252720733341889 -31.985374751266573 5.4010785374688002 0 -0.68199836817093118 0.7313536940579346 1 0 0 1 I I #
face $-1 $-1 $346 $46 $-1 $468 forward single #
loop $-1 $-1 $469 $225 #
plane-surface $-1 0 34.306412967642608 0 0 -1 0 0 0 -1 forward_v I I I I #
coedge $-1 $470 $471 $472 $473 reversed $226 $-1 #
coedge $-1 $474 $228 $230 $344 forward $143 $-1 #
coedge $-1 $228 $474 $470 $475 forward $143 $-1 #
coedge $-1 $472 $231 $228 $341 forward $346 $-1 #
edge $-1 $348 -2.5937470052698615 $476 20.323536400691594 $340 $477 forward 7 unknown #
coedge $-1 $478 $479 $229 $343 forward $335 $-1 #
edge $-1 $480 -60.463235539415663 $347 -54.036790430090818 $342 $481 forward 7 unknown #
edge $-1 $348 57.120467956642543 $480 68.612825935285201 $230 $482 forward 7 unknown #
coedge $-1 $231 $472 $478 $483 forward $346 $-1 #
loop $-1 $-1 $472 $334 #
vertex $-1 $343 $484 #
vertex $-1 $232 $485 #
straight-curve $-1 6.271147692441005 16.939308227888706 7.5654817378516626 0 -1 0 I I #
coedge $-1 $350 $350 $-1 $486 reversed $235 $-1 #
edge $-1 $487 0 $487 6.2831853071796004 $236 $488 forward 7 unknown #
vertex $-1 $239 $489 #
ellipse-curve $-1 17.729789395421733 29.542614715037175 4.3522591831892434 0 0.55919291073839883 0.82903756765294845 2 0 0 1 I I #
face $-1 $-1 $255 $36 $-1 $490 reversed single #
loop $-1 $-1 $370 $240 #
plane-surface $-1 0 34.306412967642608 0 0 -1 0 0 0 -1 forward_v I I I I #
coedge $-1 $491 $368 $371 $492 forward $241 $-1 #
coedge $-1 $374 $243 $244 $362 reversed $152 $-1 #
coedge $-1 $368 $491 $243 $360 reversed $241 $-1 #
edge $-1 $375 -7.5654817378516643 $493 7.5654817378516643 $359 $494 forward 7 unknown #
coedge $-1 $245 $244 $491 $495 forward $97 $-1 #
edge $-1 $366 -50.478835413678397 $493 50.478835413678397 $358 $496 forward 7 unknown #
coedge $-1 $371 $370 $245 $364 reversed $355 $-1 #
edge $-1 $497 -50.478835413678397 $365 50.478835413678397 $363 $498 forward 7 unknown #
vertex $-1 $247 $499 #
vertex $-1 $377 $500 #
straight-curve $-1 50.478835413678397 0 -7.5654817378516643 0 -1 0 I I #
coedge $-1 $357 $359 $248 $369 reversed $241 $-1 #
edge $-1 $372 -34.306412967642608 $375 34.306412967642608 $368 $501 forward 7 unknown #
coedge $-1 $363 $249 $254 $378 forward $355 $-1 #
coedge $-1 $249 $363 $357 $492 reversed $355 $-1 #
vertex $-1 $250 $502 #
straight-curve $-1 0 34.306412967642608 7.5654817378516643 -1 0 0 I I #
coedge $-1 $251 $358 $253 $377 reversed $152 $-1 #
vertex $-1 $369 $503 #
straight-curve $-1 0 -34.306412967642608 7.5654817378516643 1 0 0 I I #
edge $-1 $256 -7.5654817378516643 $366 7.5654817378516643 $253 $504 forward 7 unknown #
edge $-1 $257 -7.5654817378516643 $365 7.5654817378516643 $254 $505 forward 7 unknown #
point $-1 50.478835413678397 -34.306412967642608 7.5654817378516643 #
point $-1 50.478835413678397 34.306412967642608 7.5654817378516643 #
face $-1 $-1 $274 $37 $-1 $506 reversed single #
loop $-1 $-1 $390 $259 #
plane-surface $-1 0 0 7.5654817378516643 0 0 1 1 0 0 forward_v I I I I #
coedge $-1 $396 $395 $263 $389 forward $260 $-1 #
coedge $-1 $265 $262 $396 $507 reversed $160 $-1 #
coedge $-1 $262 $265 $399 $508 reversed $160 $-1 #
edge $-1 $401 -7.5654817378516643 $397 7.5654817378516643 $262 $509 forward 7 unknown #
coedge $-1 $264 $263 $403 $510 reversed $101 $-1 #
edge $-1 $511 -26.976117942969093 $393 -20.029316998449513 $384 $512 forward 7 unknown #
coedge $-1 $400 $399 $264 $391 forward $382 $-1 #
edge $-1 $392 20.029316998449513 $513 26.976117942969093 $390 $514 forward 7 unknown #
vertex $-1 $391 $515 #
vertex $-1 $389 $516 #
straight-curve $-1 -43.532034469158816 -19.175449491939279 0 0 0 -1 I I #
coedge $-1 $384 $268 $273 $405 forward $260 $-1 #
coedge $-1 $268 $384 $385 $507 forward $260 $-1 #
vertex $-1 $269 $517 #
straight-curve $-1 -23.502717470709303 -22.849834985653043 -7.5654817378516643 -1 0 0 I I #
coedge $-1 $390 $270 $386 $508 forward $382 $-1 #
coedge $-1 $270 $390 $272 $404 forward $382 $-1 #
vertex $-1 $271 $518 #
straight-curve $-1 -23.502717470709303 -22.849834985653043 7.5654817378516643 1 0 0 I I #
coedge $-1 $273 $272 $388 $510 forward $274 $-1 #
edge $-1 $513 19.175449491939279 $276 22.849834985653043 $272 $519 forward 7 unknown #
edge $-1 $275 -22.849834985653043 $511 -19.175449491939279 $273 $520 forward 7 unknown #
point $-1 -50.478835413678397 -22.849834985653043 -7.5654817378516643 #
point $-1 -50.478835413678397 -22.849834985653043 7.5654817378516643 #
plane-surface $-1 0 0 7.5654817378516643 0 0 1 1 0 0 forward_v I I I I #
coedge $-1 $419 $418 $411 $521 forward $279 $-1 #
coedge $-1 $411 $281 $283 $415 reversed $168 $-1 #
coedge $-1 $281 $410 $409 $521 reversed $168 $-1 #
coedge $-1 $289 $284 $281 $413 forward $290 $-1 #
edge $-1 $416 -21.915353328228449 $522 -17.273276895476378 $412 $523 forward 7 unknown #
coedge $-1 $283 $282 $419 $524 reversed $105 $-1 #
edge $-1 $525 9.739602292442716e-015 $416 6.3472386486426258 $410 $526 forward 7 unknown #
vertex $-1 $285 $527 #
straight-curve $-1 -16.101609262616616 -29.664336534890538 7.5654817378516643 -1 0 0 I I #
coedge $-1 $409 $286 $289 $423 reversed $279 $-1 #
coedge $-1 $286 $409 $414 $524 forward $279 $-1 #
vertex $-1 $287 $528 #
straight-curve $-1 -23.698716419251419 -34.306412967642608 38.536220420079147 0 0 1 I I #
straight-curve $-1 -23.698716419251419 -34.306412967642615 3.2366753370859271 0 -0.7313536940579346 -0.68199836817093118 I I #
edge $-1 $522 -40.707720631215047 $291 -23.698716419251419 $418 $529 forward 7 unknown #
point $-1 -23.698716419251419 -34.306412967642608 7.5654817378516643 #
point $-1 -23.698716419251419 -29.664336534890538 7.5654817378516643 #
edge $-1 $530 1 $530 0 $294 $-1 forward 7 unknown #
vertex $-1 $295 $531 #
ellipse-curve $-1 -37.305919788822322 -29.690407678613241 2.9400277129224461 0 -0.68199836817093118 0.7313536940579346 1 0 0 1 I I #
point $-1 -36.305919788822322 -31.985374751266562 5.4010785374687895 #
edge $-1 $532 1 $532 0 $298 $-1 forward 7 unknown #
vertex $-1 $299 $533 #
ellipse-curve $-1 -32.203218525233233 -29.690407678613241 2.9400277129224461 0 -0.68199836817093118 0.7313536940579346 1 0 0 1 I I #
point $-1 -31.203218525233233 -31.985374751266562 5.4010785374687895 #
edge $-1 $534 1 $534 0 $302 $-1 forward 7 unknown #
vertex $-1 $303 $535 #
ellipse-curve $-1 -27.100517261644143 -29.690407678613241 2.9400277129224461 0 -0.68199836817093118 0.7313536940579346 1 0 0 1 I I #
point $-1 -26.100517261644143 -31.985374751266562 5.4010785374687895 #
plane-surface $-1 0 0 7.5654817378516643 0 0 1 1 0 0 forward_v I I I I #
coedge $-1 $449 $448 $441 $536 forward $307 $-1 #
coedge $-1 $441 $309 $311 $445 reversed $197 $-1 #
coedge $-1 $309 $440 $439 $536 reversed $197 $-1 #
coedge $-1 $317 $312 $309 $443 forward $318 $-1 #
edge $-1 $446 -21.915353328228449 $537 -17.273276895476378 $442 $538 forward 7 unknown #
coedge $-1 $311 $310 $449 $539 reversed $124 $-1 #
edge $-1 $540 9.739602292442716e-015 $446 6.3472386486426258 $440 $541 forward 7 unknown #
vertex $-1 $313 $542 #
straight-curve $-1 19.575009734876396 -29.664336534890538 7.5654817378516643 -1 0 0 I I #
coedge $-1 $439 $314 $317 $453 reversed $307 $-1 #
coedge $-1 $314 $439 $444 $539 forward $307 $-1 #
vertex $-1 $315 $543 #
straight-curve $-1 47.654521575734606 -34.306412967642608 38.536220420079147 0 0 1 I I #
straight-curve $-1 47.654521575734606 -34.306412967642615 3.2366753370859271 0 -0.7313536940579346 -0.68199836817093118 I I #
edge $-1 $537 30.645517363770978 $319 47.654521575734606 $448 $544 forward 7 unknown #
point $-1 47.654521575734606 -34.306412967642608 7.5654817378516643 #
point $-1 47.654521575734606 -29.664336534890538 7.5654817378516643 #
edge $-1 $545 1 $545 0 $322 $-1 forward 7 unknown #
vertex $-1 $323 $546 #
ellipse-curve $-1 34.047318206163709 -29.690407678613241 2.9400277129224461 0 -0.68199836817093118 0.7313536940579346 1 0 0 1 I I #
point $-1 35.047318206163709 -31.985374751266562 5.4010785374687895 #
edge $-1 $547 1 $547 0 $326 $-1 forward 7 unknown #
vertex $-1 $327 $548 #
ellipse-curve $-1 39.150019469752792 -29.690407678613241 2.9400277129224461 0 -0.68199836817093118 0.7313536940579346 1 0 0 1 I I #
point $-1 40.150019469752792 -31.985374751266562 5.4010785374687895 #
edge $-1 $549 1 $549 0 $330 $-1 forward 7 unknown #
vertex $-1 $331 $550 #
ellipse-curve $-1 44.252720733341889 -29.690407678613241 2.9400277129224461 0 -0.68199836817093118 0.7313536940579346 1 0 0 1 I I #
point $-1 45.252720733341889 -31.985374751266562 5.4010785374687895 #
plane-surface $-1 0 0 7.5654817378516643 0 0 1 1 0 0 forward_v I I I I #
coedge $-1 $479 $478 $471 $551 forward $335 $-1 #
coedge $-1 $471 $337 $339 $475 reversed $226 $-1 #
coedge $-1 $337 $470 $469 $551 reversed $226 $-1 #
coedge $-1 $345 $340 $337 $473 forward $346 $-1 #
edge $-1 $476 7.8395082345430431 $552 17.367104739753902 $472 $553 forward 7 unknown #
coedge $-1 $339 $338 $479 $554 reversed $143 $-1 #
edge $-1 $555 -68.612825935285201 $476 -57.120467956642543 $470 $556 forward 7 unknown #
vertex $-1 $341 $557 #
straight-curve $-1 8.8648946977108665 24.778816462431749 7.5654817378516626 1 0 0 I I #
coedge $-1 $469 $342 $345 $483 reversed $335 $-1 #
coedge $-1 $342 $469 $474 $554 forward $335 $-1 #
vertex $-1 $343 $558 #
straight-curve $-1 6.271147692441005 34.306412967642608 61.602272167942481 0 0 1 I I #
straight-curve $-1 6.271147692441005 -22.576197355541368 39.506842477266048 0 0.82903756765294845 -0.55919291073839883 I I #
edge $-1 $552 -29.188431098402461 $347 -6.271147692441005 $478 $559 forward 7 unknown #
point $-1 6.271147692441005 34.306412967642608 7.5654817378516643 #
point $-1 6.271147692441005 24.778816462431749 7.5654817378516626 #
edge $-1 $560 1 $560 0 $350 $-1 forward 7 unknown #
vertex $-1 $351 $561 #
ellipse-curve $-1 17.729789395421733 27.079585568785443 0.70066837569756069 0 0.55919291073839883 0.82903756765294845 2 0 0 1 I I #
point $-1 19.729789395421733 29.542614715037164 4.3522591831892283 #
plane-surface $-1 50.478835413678397 0 0 -1 0 0 0 0 1 forward_v I I I I #
coedge $-1 $359 $357 $361 $495 reversed $241 $-1 #
edge $-1 $372 -7.5654817378516643 $497 7.5654817378516643 $371 $562 forward 7 unknown #
vertex $-1 $495 $563 #
straight-curve $-1 -50.478835413678397 -34.306412967642608 0 0 0 -1 I I #
edge $-1 $493 -34.306412967642608 $497 34.306412967642608 $491 $564 forward 7 unknown #
straight-curve $-1 0 -34.306412967642608 -7.5654817378516643 -1 0 0 I I #
vertex $-1 $364 $565 #
straight-curve $-1 0 34.306412967642608 -7.5654817378516643 1 0 0 I I #
point $-1 50.478835413678397 34.306412967642608 -7.5654817378516643 #
point $-1 50.478835413678397 -34.306412967642608 -7.5654817378516643 #
straight-curve $-1 -50.478835413678397 0 7.5654817378516643 0 -1 0 I I #
point $-1 -50.478835413678397 34.306412967642608 7.5654817378516643 #
point $-1 -50.478835413678397 -34.306412967642608 7.5654817378516643 #
straight-curve $-1 50.478835413678397 -34.306412967642608 0 0 0 -1 I I #
straight-curve $-1 50.478835413678397 34.306412967642608 0 0 0 -1 I I #
plane-surface $-1 -50.478835413678397 0 0 1 0 0 0 0 -1 forward_v I I I I #
edge $-1 $393 8.6691283725411985 $397 12.343513866254963 $396 $566 forward 7 unknown #
edge $-1 $401 -12.343513866254963 $392 -8.6691283725411985 $399 $567 forward 7 unknown #
straight-curve $-1 -43.532034469158816 -22.849834985653043 0 0 0 -1 I I #
edge $-1 $513 -7.5654817378516643 $511 7.5654817378516643 $403 $568 forward 7 unknown #
vertex $-1 $510 $569 #
straight-curve $-1 -23.502717470709303 -19.175449491939279 -7.5654817378516643 1 0 0 I I #
vertex $-1 $404 $570 #
straight-curve $-1 -23.502717470709303 -19.175449491939279 7.5654817378516643 -1 0 0 I I #
point $-1 -43.532034469158816 -19.175449491939279 7.5654817378516643 #
point $-1 -43.532034469158816 -19.175449491939279 -7.5654817378516643 #
point $-1 -43.532034469158816 -22.849834985653043 -7.5654817378516643 #
point $-1 -43.532034469158816 -22.849834985653043 7.5654817378516643 #
straight-curve $-1 -50.478835413678397 0 7.5654817378516643 0 -1 0 I I #
straight-curve $-1 -50.478835413678397 0 -7.5654817378516643 0 1 0 I I #
edge $-1 $522 30.970738682227484 $525 35.299545082993212 $409 $571 forward 7 unknown #
vertex $-1 $423 $572 #
straight-curve $-1 -40.707720631215047 -51.579689863118986 7.5654817378516626 0 -1 0 I I #
edge $-1 $525 -24.60611136859843 $420 -7.5971071566348023 $419 $573 forward 7 unknown #
vertex $-1 $524 $574 #
straight-curve $-1 -40.707720631215047 -34.306412967642615 3.2366753370859271 0 0.7313536940579346 0.68199836817093118 I I #
point $-1 -40.707720631215047 -29.664336534890538 7.5654817378516643 #
point $-1 -23.698716419251419 -34.306412967642608 3.2366753370859338 #
straight-curve $-1 0 -34.306412967642608 7.5654817378516643 1 0 0 I I #
vertex $-1 $426 $575 #
point $-1 -36.305919788822322 -29.690407678613241 2.9400277129224461 #
vertex $-1 $430 $576 #
point $-1 -31.203218525233233 -29.690407678613241 2.9400277129224461 #
vertex $-1 $434 $577 #
point $-1 -26.100517261644143 -29.690407678613241 2.9400277129224461 #
edge $-1 $537 30.970738682227484 $540 35.299545082993212 $439 $578 forward 7 unknown #
vertex $-1 $453 $579 #
straight-curve $-1 30.645517363770978 -51.579689863118986 7.5654817378516626 0 -1 0 I I #
edge $-1 $540 11.070507628894582 $450 28.07951184085821 $449 $580 forward 7 unknown #
vertex $-1 $539 $581 #
straight-curve $-1 30.645517363770978 -34.306412967642615 3.2366753370859271 0 0.7313536940579346 0.68199836817093118 I I #
point $-1 30.645517363770978 -29.664336534890538 7.5654817378516643 #
point $-1 47.654521575734606 -34.306412967642608 3.2366753370859338 #
straight-curve $-1 0 -34.306412967642608 7.5654817378516643 1 0 0 I I #
vertex $-1 $456 $582 #
point $-1 35.047318206163709 -29.690407678613241 2.9400277129224461 #
vertex $-1 $460 $583 #
point $-1 40.150019469752792 -29.690407678613241 2.9400277129224461 #
vertex $-1 $464 $584 #
point $-1 45.252720733341889 -29.690407678613241 2.9400277129224461 #
edge $-1 $552 54.036790430090818 $555 60.463235539415663 $469 $585 forward 7 unknown #
vertex $-1 $483 $586 #
straight-curve $-1 29.188431098402461 16.939308227888706 7.5654817378516626 0 1 0 I I #
edge $-1 $555 -20.323536400691594 $480 2.5937470052698615 $479 $587 forward 7 unknown #
vertex $-1 $554 $588 #
straight-curve $-1 29.188431098402461 -22.576197355541368 39.506842477266048 0 -0.82903756765294845 0.55919291073839883 I I #
point $-1 29.188431098402461 24.778816462431749 7.5654817378516626 #
point $-1 6.271147692441005 34.306412967642615 1.1390366285268172 #
straight-curve $-1 0 34.306412967642608 7.5654817378516643 -1 0 0 I I #
vertex $-1 $486 $589 #
point $-1 19.729789395421733 27.079585568785443 0.70066837569756069 #
straight-curve $-1 -50.478835413678397 34.306412967642608 0 0 0 -1 I I #
point $-1 -50.478835413678397 -34.306412967642608 -7.5654817378516643 #
straight-curve $-1 -50.478835413678397 0 -7.5654817378516643 0 1 0 I I #
point $-1 -50.478835413678397 34.306412967642608 -7.5654817378516643 #
straight-curve $-1 -43.532034469158816 -10.506321119398081 -7.5654817378516643 0 -1 0 I I #
straight-curve $-1 -43.532034469158816 -10.506321119398081 7.5654817378516643 0 1 0 I I #
straight-curve $-1 -50.478835413678397 -19.175449491939279 0 0 0 -1 I I #
point $-1 -50.478835413678397 -19.175449491939279 -7.5654817378516643 #
point $-1 -50.478835413678397 -19.175449491939279 7.5654817378516643 #
straight-curve $-1 -40.707720631215047 -34.306412967642608 38.536220420079147 0 0 -1 I I #
point $-1 -40.707720631215047 -34.306412967642608 7.5654817378516643 #
straight-curve $-1 -16.101609262616616 -34.306412967642608 3.2366753370859391 1 0 0 I I #
point $-1 -40.707720631215047 -34.306412967642608 3.2366753370859338 #
point $-1 -37.305919788822322 -29.00840931044231 2.2086740188645111 #
point $-1 -32.203218525233233 -29.00840931044231 2.2086740188645111 #
point $-1 -27.100517261644143 -29.00840931044231 2.2086740188645111 #
straight-curve $-1 30.645517363770978 -34.306412967642608 38.536220420079147 0 0 -1 I I #
point $-1 30.645517363770978 -34.306412967642608 7.5654817378516643 #
straight-curve $-1 19.575009734876396 -34.306412967642608 3.2366753370859391 1 0 0 I I #
point $-1 30.645517363770978 -34.306412967642608 3.2366753370859338 #
point $-1 34.047318206163709 -29.00840931044231 2.2086740188645111 #
point $-1 39.150019469752792 -29.00840931044231 2.2086740188645111 #
point $-1 44.252720733341889 -29.00840931044231 2.2086740188645111 #
straight-curve $-1 29.188431098402461 34.306412967642608 61.602272167942481 0 0 -1 I I #
point $-1 29.188431098402461 34.306412967642608 7.5654817378516643 #
straight-curve $-1 8.8648946977108665 34.306412967642615 1.1390366285268172 -1 0 0 I I #
point $-1 29.188431098402461 34.306412967642615 1.1390366285268172 #
point $-1 17.729789395421733 25.961199747308644 -0.95740675960833621 #
End-of-ACIS-data 