500 0 3 0           
7 Unknown 11 ACIS 5.0 NT 24 Thu Mar 25 15:27:11 1999 
-1 9.9999999999999995e-007 1e-010 
body $-1 $3 $-1 $4 #
body $-1 $5 $-1 $6 #
body $-1 $7 $-1 $8 #
lump $-1 $-1 $9 $0 #
transform $-1 1 0 0 0 1 0 0 0 1 64.872585222937715 36.350782052149803 12.355183409924546 1 rotate no_reflect no_shear #
lump $-1 $-1 $10 $1 #
transform $-1 1 0 0 0 1 0 0 0 1 64.872585222937715 36.350782052149803 12.355183409924546 1 rotate no_reflect no_shear #
lump $-1 $-1 $11 $2 #
transform $-1 1 0 0 0 1 0 0 0 1 64.872585222937715 36.350782052149803 12.355183409924546 1 rotate no_reflect no_shear #
shell $-1 $-1 $-1 $12 $-1 $3 #
shell $-1 $-1 $-1 $13 $-1 $5 #
shell $-1 $-1 $-1 $14 $-1 $7 #
face $-1 $15 $16 $9 $-1 $17 forward single #
face $-1 $18 $19 $10 $-1 $20 forward single #
face $-1 $21 $22 $11 $-1 $23 forward single #
face $-1 $24 $25 $9 $-1 $26 reversed single #
loop $-1 $-1 $27 $12 #
plane-surface $-1 0 0 12.355183409924546 0 0 1 1 0 0 forward_v I I I I #
face $-1 $28 $29 $10 $-1 $30 forward single #
loop $-1 $-1 $31 $13 #
plane-surface $-1 -58.337003520934196 -31.763071350878651 0 0 -1 0 0 0 -1 forward_v I I I I #
face $-1 $32 $33 $11 $-1 $34 forward single #
loop $-1 $-1 $35 $14 #
plane-surface $-1 51.80142181893067 -34.056926701514229 0 1 0 0 0 0 -1 forward_v I I I I #
face $-1 $36 $37 $9 $-1 $38 reversed single #
loop $-1 $-1 $39 $15 #
plane-surface $-1 0 0 -12.355183409924546 0 0 1 1 0 0 forward_v I I I I #
coedge $-1 $40 $41 $42 $43 forward $16 $-1 #
face $-1 $44 $45 $10 $-1 $46 forward single #
loop $-1 $-1 $47 $18 #
plane-surface $-1 -51.801421818930677 -34.056926701514229 0 -1 0 0 0 0 1 forward_v I I I I #
coedge $-1 $48 $49 $50 $51 reversed $19 $-1 #
face $-1 $52 $53 $11 $-1 $54 reversed single #
loop $-1 $-1 $55 $21 #
plane-surface $-1 58.337003520934189 -31.763071350878651 0 0 -1 0 0 0 -1 forward_v I I I I #
coedge $-1 $56 $57 $58 $59 reversed $22 $-1 #
face $-1 $60 $61 $9 $-1 $62 reversed single #
loop $-1 $-1 $63 $24 #
plane-surface $-1 0 -36.350782052149803 0 0 1 0 0 0 1 forward_v I I I I #
coedge $-1 $64 $65 $66 $67 forward $25 $-1 #
coedge $-1 $68 $27 $69 $70 forward $16 $-1 #
coedge $-1 $27 $68 $71 $72 forward $16 $-1 #
coedge $-1 $73 $74 $27 $43 reversed $75 $-1 #
edge $-1 $76 -36.350782052149803 $77 36.350782052149803 $42 $78 forward 7 unknown #
face $-1 $79 $80 $10 $-1 $81 reversed single #
loop $-1 $-1 $82 $28 #
plane-surface $-1 0 0 12.355183409924546 0 0 1 1 0 0 forward_v I I I I #
coedge $-1 $83 $84 $85 $86 reversed $29 $-1 #
coedge $-1 $87 $31 $82 $88 reversed $19 $-1 #
coedge $-1 $31 $87 $89 $90 reversed $19 $-1 #
coedge $-1 $84 $83 $31 $51 forward $29 $-1 #
edge $-1 $91 -12.355183409924546 $92 12.355183409924546 $50 $93 forward 7 unknown #
face $-1 $94 $95 $11 $-1 $96 reversed single #
loop $-1 $-1 $97 $32 #
plane-surface $-1 64.872585222937715 0 0 -1 0 0 0 0 1 forward_v I I I I #
coedge $-1 $98 $99 $97 $100 reversed $33 $-1 #
coedge $-1 $101 $35 $102 $103 reversed $22 $-1 #
coedge $-1 $35 $101 $104 $105 reversed $22 $-1 #
coedge $-1 $99 $98 $35 $59 forward $33 $-1 #
edge $-1 $106 -12.355183409924546 $107 12.355183409924546 $58 $108 forward 7 unknown #
face $-1 $109 $110 $9 $-1 $111 reversed single #
loop $-1 $-1 $112 $36 #
plane-surface $-1 -64.872585222937715 0 0 1 0 0 0 0 -1 forward_v I I I I #
coedge $-1 $113 $71 $114 $115 forward $37 $-1 #
coedge $-1 $116 $39 $113 $117 forward $25 $-1 #
coedge $-1 $39 $116 $118 $119 forward $25 $-1 #
coedge $-1 $74 $73 $39 $67 reversed $75 $-1 #
edge $-1 $120 -36.350782052149803 $121 36.350782052149803 $66 $122 forward 7 unknown #
coedge $-1 $41 $40 $123 $124 forward $16 $-1 #
coedge $-1 $125 $126 $40 $70 reversed $110 $-1 #
edge $-1 $77 -64.872585222937715 $127 64.872585222937715 $69 $128 forward 7 unknown #
coedge $-1 $63 $129 $41 $72 reversed $37 $-1 #
edge $-1 $130 -64.872585222937715 $76 64.872585222937715 $71 $131 forward 7 unknown #
coedge $-1 $66 $42 $129 $132 forward $75 $-1 #
coedge $-1 $42 $66 $125 $133 reversed $75 $-1 #
loop $-1 $-1 $73 $109 #
vertex $-1 $43 $134 #
vertex $-1 $43 $135 #
straight-curve $-1 64.872585222937715 0 12.355183409924546 0 1 0 I I #
face $-1 $136 $137 $10 $-1 $138 reversed single #
loop $-1 $-1 $85 $44 #
plane-surface $-1 0 -36.350782052149803 0 0 1 0 0 0 1 forward_v I I I I #
coedge $-1 $139 $140 $48 $88 forward $45 $-1 #
coedge $-1 $50 $47 $139 $141 reversed $29 $-1 #
coedge $-1 $47 $50 $142 $143 reversed $29 $-1 #
coedge $-1 $144 $145 $47 $86 forward $80 $-1 #
edge $-1 $146 -12.355183409924546 $147 12.355183409924546 $85 $148 forward 7 unknown #
coedge $-1 $49 $48 $149 $150 reversed $19 $-1 #
edge $-1 $151 -35.704083462470621 $91 -22.632920058463579 $82 $152 forward 7 unknown #
coedge $-1 $153 $142 $49 $90 forward $137 $-1 #
edge $-1 $92 22.632920058463579 $154 35.704083462470621 $89 $155 forward 7 unknown #
vertex $-1 $88 $156 #
vertex $-1 $90 $157 #
straight-curve $-1 -51.801421818930677 -31.763071350878651 0 0 0 -1 I I #
face $-1 $158 $159 $11 $-1 $160 forward single #
loop $-1 $-1 $161 $52 #
plane-surface $-1 0 0 -12.355183409924546 0 0 1 1 0 0 forward_v I I I I #
coedge $-1 $162 $163 $55 $100 forward $53 $-1 #
coedge $-1 $58 $55 $164 $165 reversed $33 $-1 #
coedge $-1 $55 $58 $161 $166 reversed $33 $-1 #
edge $-1 $167 -12.355183409924546 $168 12.355183409924546 $97 $169 forward 7 unknown #
coedge $-1 $57 $56 $170 $171 reversed $22 $-1 #
coedge $-1 $164 $172 $56 $103 forward $173 $-1 #
edge $-1 $174 -19.322318701392689 $106 -14.734608000121536 $102 $175 forward 7 unknown #
coedge $-1 $176 $161 $57 $105 forward $95 $-1 #
edge $-1 $107 14.734608000121536 $177 19.322318701392689 $104 $178 forward 7 unknown #
vertex $-1 $103 $179 #
vertex $-1 $105 $180 #
straight-curve $-1 51.80142181893067 -31.763071350878651 0 0 0 -1 I I #
face $-1 $-1 $75 $9 $-1 $181 reversed single #
loop $-1 $-1 $125 $60 #
plane-surface $-1 0 36.350782052149803 0 0 -1 0 0 0 -1 forward_v I I I I #
coedge $-1 $182 $123 $126 $183 forward $61 $-1 #
coedge $-1 $129 $63 $64 $117 reversed $37 $-1 #
coedge $-1 $123 $182 $63 $115 reversed $61 $-1 #
edge $-1 $130 -12.355183409924546 $184 12.355183409924546 $114 $185 forward 7 unknown #
coedge $-1 $65 $64 $182 $186 forward $25 $-1 #
edge $-1 $121 -64.872585222937715 $184 64.872585222937715 $113 $187 forward 7 unknown #
coedge $-1 $126 $125 $65 $119 reversed $110 $-1 #
edge $-1 $188 -64.872585222937715 $120 64.872585222937715 $118 $189 forward 7 unknown #
vertex $-1 $67 $190 #
vertex $-1 $132 $191 #
straight-curve $-1 64.872585222937715 0 -12.355183409924546 0 -1 0 I I #
coedge $-1 $112 $114 $68 $124 reversed $61 $-1 #
edge $-1 $127 -36.350782052149803 $130 36.350782052149803 $123 $192 forward 7 unknown #
coedge $-1 $118 $69 $74 $133 forward $110 $-1 #
coedge $-1 $69 $118 $112 $183 reversed $110 $-1 #
vertex $-1 $70 $193 #
straight-curve $-1 0 36.350782052149803 12.355183409924546 -1 0 0 I I #
coedge $-1 $71 $113 $73 $132 reversed $37 $-1 #
vertex $-1 $124 $194 #
straight-curve $-1 0 -36.350782052149803 12.355183409924546 1 0 0 I I #
edge $-1 $76 -12.355183409924546 $121 12.355183409924546 $73 $195 forward 7 unknown #
edge $-1 $77 -12.355183409924546 $120 12.355183409924546 $74 $196 forward 7 unknown #
point $-1 64.872585222937715 -36.350782052149803 12.355183409924546 #
point $-1 64.872585222937715 36.350782052149803 12.355183409924546 #
face $-1 $197 $198 $10 $-1 $199 reversed single #
loop $-1 $-1 $89 $79 #
plane-surface $-1 0 0 -12.355183409924546 0 0 1 1 0 0 forward_v I I I I #
coedge $-1 $200 $82 $83 $141 forward $45 $-1 #
coedge $-1 $82 $201 $202 $203 forward $45 $-1 #
edge $-1 $91 14.734608000121536 $146 19.322318701392689 $139 $204 forward 7 unknown #
coedge $-1 $89 $205 $84 $143 forward $137 $-1 #
edge $-1 $147 -19.322318701392689 $92 -14.734608000121536 $142 $206 forward 7 unknown #
coedge $-1 $207 $85 $205 $208 reversed $80 $-1 #
coedge $-1 $85 $207 $200 $209 reversed $80 $-1 #
vertex $-1 $209 $210 #
vertex $-1 $86 $211 #
straight-curve $-1 -51.801421818930677 -36.350782052149803 0 0 0 -1 I I #
coedge $-1 $202 $212 $87 $150 forward $198 $-1 #
edge $-1 $154 -12.355183409924546 $151 12.355183409924546 $149 $213 forward 7 unknown #
vertex $-1 $150 $214 #
straight-curve $-1 -29.168501760467098 -31.763071350878651 12.355183409924546 1 0 0 I I #
coedge $-1 $215 $89 $212 $216 forward $137 $-1 #
vertex $-1 $216 $217 #
straight-curve $-1 -29.168501760467098 -31.763071350878651 -12.355183409924546 -1 0 0 I I #
point $-1 -51.801421818930677 -31.763071350878651 12.355183409924546 #
point $-1 -51.801421818930677 -31.763071350878651 -12.355183409924546 #
face $-1 $218 $219 $11 $-1 $220 forward single #
loop $-1 $-1 $221 $94 #
plane-surface $-1 -58.337003520934196 -31.763071350878651 0 0 -1 0 0 0 -1 forward_v I I I I #
coedge $-1 $104 $222 $99 $166 forward $95 $-1 #
coedge $-1 $223 $97 $222 $224 reversed $53 $-1 #
coedge $-1 $97 $223 $225 $226 reversed $53 $-1 #
coedge $-1 $225 $102 $98 $165 forward $173 $-1 #
edge $-1 $106 22.632920058463576 $167 35.704083462470621 $164 $227 forward 7 unknown #
edge $-1 $168 -35.704083462470621 $107 -22.632920058463576 $161 $228 forward 7 unknown #
vertex $-1 $226 $229 #
vertex $-1 $100 $230 #
straight-curve $-1 64.872585222937715 -31.763071350878651 0 0 0 -1 I I #
coedge $-1 $231 $232 $101 $171 forward $233 $-1 #
edge $-1 $177 -12.355183409924546 $174 12.355183409924546 $170 $234 forward 7 unknown #
coedge $-1 $102 $235 $231 $236 forward $173 $-1 #
loop $-1 $-1 $164 $218 #
vertex $-1 $171 $237 #
straight-curve $-1 51.80142181893067 -17.028463350757114 12.355183409924546 0 1 0 I I #
coedge $-1 $238 $104 $232 $239 forward $95 $-1 #
vertex $-1 $239 $240 #
straight-curve $-1 51.80142181893067 -17.028463350757114 -12.355183409924546 0 -1 0 I I #
point $-1 51.80142181893067 -31.763071350878651 12.355183409924546 #
point $-1 51.80142181893067 -31.763071350878651 -12.355183409924546 #
plane-surface $-1 64.872585222937715 0 0 -1 0 0 0 0 1 forward_v I I I I #
coedge $-1 $114 $112 $116 $186 reversed $61 $-1 #
edge $-1 $127 -12.355183409924546 $188 12.355183409924546 $126 $241 forward 7 unknown #
vertex $-1 $186 $242 #
straight-curve $-1 -64.872585222937715 -36.350782052149803 0 0 0 -1 I I #
edge $-1 $184 -36.350782052149803 $188 36.350782052149803 $182 $243 forward 7 unknown #
straight-curve $-1 0 -36.350782052149803 -12.355183409924546 -1 0 0 I I #
vertex $-1 $119 $244 #
straight-curve $-1 0 36.350782052149803 -12.355183409924546 1 0 0 I I #
point $-1 64.872585222937715 36.350782052149803 -12.355183409924546 #
point $-1 64.872585222937715 -36.350782052149803 -12.355183409924546 #
straight-curve $-1 -64.872585222937715 0 12.355183409924546 0 -1 0 I I #
point $-1 -64.872585222937715 36.350782052149803 12.355183409924546 #
point $-1 -64.872585222937715 -36.350782052149803 12.355183409924546 #
straight-curve $-1 64.872585222937715 -36.350782052149803 0 0 0 -1 I I #
straight-curve $-1 64.872585222937715 36.350782052149803 0 0 0 -1 I I #
face $-1 $245 $246 $10 $-1 $247 reversed single #
loop $-1 $-1 $149 $136 #
plane-surface $-1 -64.872585222937715 0 0 1 0 0 0 0 -1 forward_v I I I I #
coedge $-1 $248 $139 $145 $209 forward $45 $-1 #
coedge $-1 $140 $248 $249 $250 forward $45 $-1 #
coedge $-1 $251 $149 $140 $203 reversed $198 $-1 #
edge $-1 $252 -36.350782052149803 $151 31.763071350878651 $202 $253 forward 7 unknown #
straight-curve $-1 -51.801421818930677 -17.028463350757114 12.355183409924546 0 -1 0 I I #
coedge $-1 $142 $254 $144 $208 forward $137 $-1 #
straight-curve $-1 -51.801421818930677 -17.028463350757114 -12.355183409924546 0 1 0 I I #
coedge $-1 $145 $144 $255 $256 reversed $80 $-1 #
edge $-1 $257 -64.872585222937715 $147 51.801421818930677 $144 $258 forward 7 unknown #
edge $-1 $146 -51.801421818930677 $259 64.872585222937715 $145 $260 forward 7 unknown #
point $-1 -51.801421818930677 -36.350782052149803 12.355183409924546 #
point $-1 -51.801421818930677 -36.350782052149803 -12.355183409924546 #
coedge $-1 $149 $251 $153 $216 reversed $198 $-1 #
straight-curve $-1 -64.872585222937715 -31.763071350878651 0 0 0 1 I I #
point $-1 -64.872585222937715 -31.763071350878651 12.355183409924546 #
coedge $-1 $254 $153 $261 $262 forward $137 $-1 #
edge $-1 $154 -31.763071350878651 $263 36.350782052149803 $212 $264 forward 7 unknown #
point $-1 -64.872585222937715 -31.763071350878651 -12.355183409924546 #
face $-1 $265 $173 $11 $-1 $266 forward single #
loop $-1 $-1 $267 $158 #
plane-surface $-1 -51.801421818930677 -34.056926701514229 0 -1 0 0 0 0 1 forward_v I I I I #
coedge $-1 $268 $269 $270 $271 reversed $159 $-1 #
coedge $-1 $161 $272 $162 $224 forward $95 $-1 #
coedge $-1 $163 $162 $273 $274 reversed $53 $-1 #
edge $-1 $275 -36.350782052149803 $168 31.763071350878651 $162 $276 forward 7 unknown #
coedge $-1 $277 $164 $163 $226 forward $173 $-1 #
edge $-1 $167 -31.763071350878651 $278 36.350782052149803 $163 $279 forward 7 unknown #
straight-curve $-1 29.168501760467095 -31.763071350878651 12.355183409924546 1 0 0 I I #
straight-curve $-1 29.168501760467095 -31.763071350878651 -12.355183409924546 -1 0 0 I I #
point $-1 64.872585222937715 -31.763071350878651 12.355183409924546 #
point $-1 64.872585222937715 -31.763071350878651 -12.355183409924546 #
coedge $-1 $280 $170 $172 $236 reversed $233 $-1 #
coedge $-1 $170 $280 $176 $239 reversed $233 $-1 #
loop $-1 $-1 $170 $265 #
straight-curve $-1 51.80142181893067 -36.350782052149803 0 0 0 1 I I #
coedge $-1 $172 $281 $282 $283 forward $173 $-1 #
edge $-1 $284 -51.801421818930677 $174 51.80142181893067 $231 $285 forward 7 unknown #
point $-1 51.80142181893067 -36.350782052149803 12.355183409924546 #
coedge $-1 $286 $176 $287 $288 forward $95 $-1 #
edge $-1 $177 -51.80142181893067 $289 51.801421818930677 $232 $290 forward 7 unknown #
point $-1 51.80142181893067 -36.350782052149803 -12.355183409924546 #
straight-curve $-1 -64.872585222937715 36.350782052149803 0 0 0 -1 I I #
point $-1 -64.872585222937715 -36.350782052149803 -12.355183409924546 #
straight-curve $-1 -64.872585222937715 0 -12.355183409924546 0 1 0 I I #
point $-1 -64.872585222937715 36.350782052149803 -12.355183409924546 #
face $-1 $-1 $291 $10 $-1 $292 reversed single #
loop $-1 $-1 $293 $197 #
plane-surface $-1 0 36.350782052149803 0 0 -1 0 0 0 -1 forward_v I I I I #
coedge $-1 $201 $200 $294 $295 forward $45 $-1 #
coedge $-1 $293 $296 $201 $250 reversed $246 $-1 #
edge $-1 $297 -64.872585222937715 $252 64.872585222937715 $249 $298 forward 7 unknown #
coedge $-1 $212 $202 $296 $299 forward $198 $-1 #
vertex $-1 $250 $300 #
straight-curve $-1 -64.872585222937715 0 12.355183409924546 0 -1 0 I I #
coedge $-1 $205 $215 $301 $302 forward $137 $-1 #
coedge $-1 $301 $294 $207 $256 forward $291 $-1 #
edge $-1 $259 -12.355183409924546 $257 12.355183409924546 $255 $303 forward 7 unknown #
vertex $-1 $256 $304 #
straight-curve $-1 0 -36.350782052149803 -12.355183409924546 -1 0 0 I I #
vertex $-1 $295 $305 #
straight-curve $-1 0 -36.350782052149803 12.355183409924546 1 0 0 I I #
coedge $-1 $296 $293 $215 $262 reversed $246 $-1 #
edge $-1 $263 -64.872585222937715 $306 64.872585222937715 $261 $307 forward 7 unknown #
vertex $-1 $262 $308 #
straight-curve $-1 -64.872585222937715 0 -12.355183409924546 0 1 0 I I #
face $-1 $309 $233 $11 $-1 $310 reversed single #
plane-surface $-1 0 0 12.355183409924546 0 0 1 1 0 0 forward_v I I I I #
coedge $-1 $282 $287 $280 $311 reversed $219 $-1 #
coedge $-1 $312 $221 $281 $313 reversed $159 $-1 #
coedge $-1 $221 $312 $286 $314 reversed $159 $-1 #
coedge $-1 $287 $282 $221 $271 forward $219 $-1 #
edge $-1 $315 -12.355183409924546 $316 12.355183409924546 $270 $317 forward 7 unknown #
coedge $-1 $222 $318 $319 $320 forward $95 $-1 #
coedge $-1 $319 $321 $223 $274 forward $322 $-1 #
edge $-1 $278 -12.355183409924546 $275 12.355183409924546 $223 $323 forward 7 unknown #
vertex $-1 $224 $324 #
straight-curve $-1 64.872585222937715 0 -12.355183409924546 0 -1 0 I I #
coedge $-1 $325 $225 $321 $326 forward $173 $-1 #
vertex $-1 $226 $327 #
straight-curve $-1 64.872585222937715 0 12.355183409924546 0 1 0 I I #
coedge $-1 $232 $231 $267 $311 forward $233 $-1 #
coedge $-1 $235 $325 $268 $313 forward $173 $-1 #
coedge $-1 $270 $267 $235 $283 reversed $219 $-1 #
edge $-1 $315 14.734608000121536 $284 19.322318701392689 $235 $328 forward 7 unknown #
vertex $-1 $236 $329 #
straight-curve $-1 0 -36.350782052149803 12.355183409924546 1 0 0 I I #
coedge $-1 $318 $238 $269 $314 forward $95 $-1 #
coedge $-1 $267 $270 $238 $288 reversed $219 $-1 #
edge $-1 $289 -19.322318701392689 $316 -14.734608000121536 $238 $330 forward 7 unknown #
vertex $-1 $311 $331 #
straight-curve $-1 0 -36.350782052149803 -12.355183409924546 -1 0 0 I I #
loop $-1 $-1 $255 $245 #
plane-surface $-1 64.872585222937715 0 0 -1 0 0 0 0 1 forward_v I I I I #
coedge $-1 $261 $249 $332 $333 forward $246 $-1 #
coedge $-1 $255 $332 $248 $295 reversed $291 $-1 #
edge $-1 $259 -36.350782052149803 $297 36.350782052149803 $294 $334 forward 7 unknown #
coedge $-1 $249 $261 $251 $299 reversed $246 $-1 #
vertex $-1 $295 $335 #
straight-curve $-1 0 36.350782052149803 12.355183409924546 -1 0 0 I I #
edge $-1 $252 -12.355183409924546 $263 12.355183409924546 $296 $336 forward 7 unknown #
point $-1 -64.872585222937715 36.350782052149803 12.355183409924546 #
coedge $-1 $332 $255 $254 $302 reversed $291 $-1 #
edge $-1 $306 -36.350782052149803 $257 36.350782052149803 $301 $337 forward 7 unknown #
straight-curve $-1 64.872585222937715 -36.350782052149803 0 0 0 -1 I I #
point $-1 64.872585222937715 -36.350782052149803 -12.355183409924546 #
point $-1 64.872585222937715 -36.350782052149803 12.355183409924546 #
vertex $-1 $302 $338 #
straight-curve $-1 0 36.350782052149803 -12.355183409924546 1 0 0 I I #
point $-1 -64.872585222937715 36.350782052149803 -12.355183409924546 #
face $-1 $339 $340 $11 $-1 $341 reversed single #
plane-surface $-1 0 -36.350782052149803 0 0 1 0 0 0 1 forward_v I I I I #
edge $-1 $284 -12.355183409924546 $289 12.355183409924546 $280 $342 forward 7 unknown #
coedge $-1 $269 $268 $343 $344 reversed $159 $-1 #
edge $-1 $345 -35.704083462470621 $315 -22.632920058463579 $281 $346 forward 7 unknown #
edge $-1 $316 22.632920058463579 $347 35.704083462470621 $286 $348 forward 7 unknown #
vertex $-1 $313 $349 #
vertex $-1 $314 $350 #
straight-curve $-1 -51.801421818930677 -31.763071350878651 0 0 0 -1 I I #
coedge $-1 $272 $286 $351 $352 forward $95 $-1 #
coedge $-1 $353 $273 $272 $320 reversed $322 $-1 #
edge $-1 $354 -64.872585222937715 $275 64.872585222937715 $319 $355 forward 7 unknown #
coedge $-1 $273 $353 $277 $326 reversed $322 $-1 #
loop $-1 $-1 $273 $339 #
straight-curve $-1 64.872585222937715 36.350782052149803 0 0 0 -1 I I #
point $-1 64.872585222937715 36.350782052149803 -12.355183409924546 #
coedge $-1 $281 $277 $356 $357 forward $173 $-1 #
edge $-1 $278 -64.872585222937715 $358 64.872585222937715 $321 $359 forward 7 unknown #
point $-1 64.872585222937715 36.350782052149803 12.355183409924546 #
straight-curve $-1 -51.801421818930677 -17.028463350757114 12.355183409924546 0 -1 0 I I #
point $-1 -51.801421818930677 -36.350782052149803 12.355183409924546 #
straight-curve $-1 -51.801421818930677 -17.028463350757114 -12.355183409924546 0 1 0 I I #
point $-1 -51.801421818930677 -36.350782052149803 -12.355183409924546 #
coedge $-1 $294 $301 $293 $333 reversed $291 $-1 #
edge $-1 $297 -12.355183409924546 $306 12.355183409924546 $332 $360 forward 7 unknown #
straight-curve $-1 64.872585222937715 0 12.355183409924546 0 1 0 I I #
point $-1 64.872585222937715 36.350782052149803 12.355183409924546 #
straight-curve $-1 -64.872585222937715 36.350782052149803 0 0 0 -1 I I #
straight-curve $-1 64.872585222937715 0 -12.355183409924546 0 -1 0 I I #
point $-1 64.872585222937715 36.350782052149803 -12.355183409924546 #
face $-1 $-1 $322 $11 $-1 $361 reversed single #
loop $-1 $-1 $343 $309 #
plane-surface $-1 -64.872585222937715 0 0 1 0 0 0 0 -1 forward_v I I I I #
straight-curve $-1 -51.801421818930677 -36.350782052149803 0 0 0 -1 I I #
coedge $-1 $356 $351 $312 $344 forward $340 $-1 #
edge $-1 $347 -12.355183409924546 $345 12.355183409924546 $343 $362 forward 7 unknown #
vertex $-1 $344 $363 #
straight-curve $-1 -29.168501760467098 -31.763071350878651 12.355183409924546 1 0 0 I I #
vertex $-1 $352 $364 #
straight-curve $-1 -29.168501760467098 -31.763071350878651 -12.355183409924546 -1 0 0 I I #
point $-1 -51.801421818930677 -31.763071350878651 12.355183409924546 #
point $-1 -51.801421818930677 -31.763071350878651 -12.355183409924546 #
coedge $-1 $343 $365 $318 $352 reversed $340 $-1 #
edge $-1 $347 -31.763071350878651 $354 36.350782052149803 $351 $366 forward 7 unknown #
coedge $-1 $321 $319 $365 $367 reversed $322 $-1 #
vertex $-1 $320 $368 #
straight-curve $-1 0 36.350782052149803 -12.355183409924546 1 0 0 I I #
coedge $-1 $365 $343 $325 $357 reversed $340 $-1 #
edge $-1 $358 -36.350782052149803 $345 31.763071350878651 $356 $369 forward 7 unknown #
vertex $-1 $326 $370 #
straight-curve $-1 0 36.350782052149803 12.355183409924546 -1 0 0 I I #
straight-curve $-1 64.872585222937715 36.350782052149803 0 0 0 -1 I I #
plane-surface $-1 0 36.350782052149803 0 0 -1 0 0 0 -1 forward_v I I I I #
straight-curve $-1 -64.872585222937715 -31.763071350878651 0 0 0 1 I I #
point $-1 -64.872585222937715 -31.763071350878651 12.355183409924546 #
point $-1 -64.872585222937715 -31.763071350878651 -12.355183409924546 #
coedge $-1 $351 $356 $353 $367 forward $340 $-1 #
straight-curve $-1 -64.872585222937715 0 -12.355183409924546 0 1 0 I I #
edge $-1 $358 -12.355183409924546 $354 12.355183409924546 $353 $371 forward 7 unknown #
point $-1 -64.872585222937715 36.350782052149803 -12.355183409924546 #
straight-curve $-1 -64.872585222937715 0 12.355183409924546 0 -1 0 I I #
point $-1 -64.872585222937715 36.350782052149803 12.355183409924546 #
straight-curve $-1 -64.872585222937715 36.350782052149803 0 0 0 -1 I I #
End-of-ACIS-data 