500 0 7 0           
7 Unknown 11 ACIS 5.0 NT 24 Fri Mar 26 20:36:07 1999 
-1 9.9999999999999995e-007 1e-010 
body $-1 $7 $-1 $8 #
body $-1 $9 $-1 $10 #
body $-1 $11 $-1 $12 #
body $-1 $13 $-1 $14 #
body $-1 $15 $-1 $16 #
body $-1 $17 $-1 $18 #
body $-1 $19 $-1 $20 #
lump $-1 $-1 $21 $0 #
transform $-1 1 0 0 0 1 0 0 0 1 43.907589953306683 19.67875282379455 4.1757368200886109 1 rotate no_reflect no_shear #
lump $-1 $-1 $22 $1 #
transform $-1 1 0 0 0 1 0 0 0 1 43.907589953306683 19.67875282379455 4.1757368200886109 1 rotate no_reflect no_shear #
lump $-1 $-1 $23 $2 #
transform $-1 1 0 0 0 1 0 0 0 1 43.907589953306683 19.67875282379455 4.1757368200886109 1 rotate no_reflect no_shear #
lump $-1 $-1 $24 $3 #
transform $-1 1 0 0 0 1 0 0 0 1 43.907589953306683 19.67875282379455 4.1757368200886109 1 rotate no_reflect no_shear #
lump $-1 $-1 $25 $4 #
transform $-1 1 0 0 0 1 0 0 0 1 43.907589953306683 19.67875282379455 4.1757368200886109 1 rotate no_reflect no_shear #
lump $-1 $-1 $26 $5 #
transform $-1 1 0 0 0 1 0 0 0 1 43.907589953306683 19.67875282379455 4.1757368200886109 1 rotate no_reflect no_shear #
lump $-1 $-1 $27 $6 #
transform $-1 1 0 0 0 1 0 0 0 1 43.907589953306683 19.67875282379455 4.1757368200886109 1 rotate no_reflect no_shear #
shell $-1 $-1 $-1 $28 $-1 $7 #
shell $-1 $-1 $-1 $29 $-1 $9 #
shell $-1 $-1 $-1 $30 $-1 $11 #
shell $-1 $-1 $-1 $31 $-1 $13 #
shell $-1 $-1 $-1 $32 $-1 $15 #
shell $-1 $-1 $-1 $33 $-1 $17 #
shell $-1 $-1 $-1 $34 $-1 $19 #
face $-1 $35 $36 $21 $-1 $37 forward single #
face $-1 $38 $39 $22 $-1 $40 reversed single #
face $-1 $41 $42 $23 $-1 $43 forward single #
face $-1 $44 $45 $24 $-1 $46 reversed single #
face $-1 $47 $48 $25 $-1 $49 forward single #
face $-1 $50 $51 $26 $-1 $52 reversed single #
face $-1 $53 $54 $27 $-1 $55 forward single #
face $-1 $56 $57 $21 $-1 $58 reversed single #
loop $-1 $-1 $59 $28 #
plane-surface $-1 0 0 4.1757368200886109 0 0 1 1 0 0 forward_v I I I I #
face $-1 $60 $61 $22 $-1 $62 reversed single #
loop $-1 $-1 $63 $29 #
plane-surface $-1 -107.07654465753461 -16.41322669230119 61.038076632803815 0 1 0 -0.71933980857756763 0 0.69465836192734942 forward_v I I I I #
face $-1 $64 $65 $23 $-1 $66 forward single #
loop $-1 $67 $68 $30 #
cone-surface $-1 -41.540303402922291 -12.565824170710991 1.7500898579045376 0.71933980857756763 0 -0.69465836192734942 0.69465836192734942 0 0.71933980857756763 1 I I 0 1 1 forward I I I I #
face $-1 $69 $70 $24 $-1 $71 reversed single #
loop $-1 $-1 $72 $31 #
plane-surface $-1 -107.07654465753461 -3.2940581431048255 61.038076632803815 0 1 0 -0.71933980857756763 0 0.69465836192734942 forward_v I I I I #
face $-1 $73 $74 $25 $-1 $75 forward single #
loop $-1 $76 $77 $32 #
cone-surface $-1 -41.540303402922291 0.55334437848537377 1.7500898579045376 0.71933980857756763 0 -0.69465836192734942 0.69465836192734942 0 0.71933980857756763 1 I I 0 1 1 forward I I I I #
face $-1 $78 $79 $26 $-1 $80 reversed single #
loop $-1 $-1 $81 $33 #
plane-surface $-1 -107.07654465753461 9.8251104060915413 61.038076632803815 0 1 0 -0.71933980857756763 0 0.69465836192734942 forward_v I I I I #
face $-1 $82 $83 $27 $-1 $84 forward single #
loop $-1 $85 $86 $34 #
cone-surface $-1 -41.540303402922291 13.672512927681741 1.7500898579045376 0.71933980857756763 0 -0.69465836192734942 0.69465836192734942 0 0.71933980857756763 1 I I 0 1 1 forward I I I I #
face $-1 $87 $88 $21 $-1 $89 reversed single #
loop $-1 $-1 $90 $35 #
plane-surface $-1 0 0 -4.1757368200886109 0 0 1 1 0 0 forward_v I I I I #
coedge $-1 $91 $92 $93 $94 forward $36 $-1 #
face $-1 $95 $96 $22 $-1 $97 reversed single #
loop $-1 $-1 $98 $38 #
plane-surface $-1 -43.90758995330669 -12.565824170710991 0.036527606520287748 -0.71933980857756763 0 0.69465836192734942 0.69465836192734942 0 0.71933980857756763 forward_v I I I I #
coedge $-1 $99 $100 $101 $102 reversed $39 $-1 #
face $-1 $-1 $103 $23 $-1 $104 forward single #
loop $-1 $105 $106 $41 #
cone-surface $-1 -40.811940837872498 -12.565824170710991 1.0467183215409523 0.71933980857756763 0 -0.69465836192734942 0.34732918096367471 0 0.35966990428878381 1 I I -0.70710678118654746 0.70710678118654746 0.5 forward I I I I #
loop $-1 $-1 $107 $30 #
coedge $-1 $68 $68 $108 $109 reversed $42 $-1 #
face $-1 $110 $111 $24 $-1 $112 reversed single #
loop $-1 $-1 $113 $44 #
plane-surface $-1 -43.90758995330669 0.55334437848537377 0.036527606520287748 -0.71933980857756763 0 0.69465836192734942 0.69465836192734942 0 0.71933980857756763 forward_v I I I I #
coedge $-1 $114 $115 $116 $117 reversed $45 $-1 #
face $-1 $-1 $118 $25 $-1 $119 forward single #
loop $-1 $120 $121 $47 #
cone-surface $-1 -40.811940837872498 0.55334437848537377 1.0467183215409523 0.71933980857756763 0 -0.69465836192734942 0.34732918096367471 0 0.35966990428878381 1 I I -0.70710678118654746 0.70710678118654746 0.5 forward I I I I #
loop $-1 $-1 $122 $32 #
coedge $-1 $77 $77 $123 $124 reversed $48 $-1 #
face $-1 $125 $126 $26 $-1 $127 reversed single #
loop $-1 $-1 $128 $50 #
plane-surface $-1 -43.90758995330669 13.672512927681741 0.036527606520287748 -0.71933980857756763 0 0.69465836192734942 0.69465836192734942 0 0.71933980857756763 forward_v I I I I #
coedge $-1 $129 $130 $131 $132 reversed $51 $-1 #
face $-1 $-1 $133 $27 $-1 $134 forward single #
loop $-1 $135 $136 $53 #
cone-surface $-1 -40.811940837872498 13.672512927681741 1.0467183215409523 0.71933980857756763 0 -0.69465836192734942 0.34732918096367471 0 0.35966990428878381 1 I I -0.70710678118654746 0.70710678118654746 0.5 forward I I I I #
loop $-1 $-1 $137 $34 #
coedge $-1 $86 $86 $138 $139 reversed $54 $-1 #
face $-1 $140 $141 $21 $-1 $142 reversed single #
loop $-1 $-1 $143 $56 #
plane-surface $-1 0 -19.67875282379455 0 0 1 0 0 0 1 forward_v I I I I #
coedge $-1 $144 $145 $146 $147 forward $57 $-1 #
coedge $-1 $148 $59 $149 $150 forward $36 $-1 #
coedge $-1 $59 $148 $151 $152 forward $36 $-1 #
coedge $-1 $153 $154 $59 $94 reversed $155 $-1 #
edge $-1 $156 -19.67875282379455 $157 19.67875282379455 $93 $158 forward 7 unknown #
face $-1 $159 $160 $22 $-1 $161 reversed single #
loop $-1 $-1 $162 $60 #
plane-surface $-1 -107.07654465753461 -8.718421649120792 61.038076632803815 0 -1 0 0.71933980857756763 0 -0.69465836192734942 forward_v I I I I #
coedge $-1 $163 $164 $165 $166 reversed $61 $-1 #
coedge $-1 $100 $63 $167 $168 reversed $39 $-1 #
coedge $-1 $63 $99 $163 $169 reversed $39 $-1 #
coedge $-1 $165 $170 $63 $102 forward $171 $-1 #
edge $-1 $172 9.6306823754606228 $173 13.627870154707388 $101 $174 forward 7 unknown #
loop $-1 $-1 $108 $64 #
plane-surface $-1 -43.90758995330669 -12.565824170710991 0.036527606520287748 -0.71933980857756763 0 0.69465836192734942 0.69465836192734942 0 0.71933980857756763 forward_v I I I I #
loop $-1 $-1 $175 $41 #
coedge $-1 $106 $106 $107 $176 reversed $65 $-1 #
coedge $-1 $107 $107 $106 $176 forward $67 $-1 #
coedge $-1 $108 $108 $68 $109 forward $103 $-1 #
edge $-1 $177 0 $177 6.2831853071796004 $108 $178 forward 7 unknown #
face $-1 $179 $180 $24 $-1 $181 forward single #
loop $-1 $-1 $182 $69 #
plane-surface $-1 -107.07654465753461 4.400746900075573 61.038076632803815 0 -1 0 0.71933980857756763 0 -0.69465836192734942 forward_v I I I I #
coedge $-1 $183 $184 $185 $186 reversed $70 $-1 #
coedge $-1 $115 $72 $187 $188 reversed $45 $-1 #
coedge $-1 $72 $114 $183 $189 reversed $45 $-1 #
coedge $-1 $185 $190 $72 $117 forward $180 $-1 #
edge $-1 $191 9.6306823754606228 $192 13.627870154707388 $116 $193 forward 7 unknown #
loop $-1 $-1 $123 $73 #
plane-surface $-1 -43.90758995330669 0.55334437848537377 0.036527606520287748 -0.71933980857756763 0 0.69465836192734942 0.69465836192734942 0 0.71933980857756763 forward_v I I I I #
loop $-1 $-1 $194 $47 #
coedge $-1 $121 $121 $122 $195 reversed $74 $-1 #
coedge $-1 $122 $122 $121 $195 forward $76 $-1 #
coedge $-1 $123 $123 $77 $124 forward $118 $-1 #
edge $-1 $196 0 $196 6.2831853071796004 $123 $197 forward 7 unknown #
face $-1 $198 $199 $26 $-1 $200 forward single #
loop $-1 $-1 $201 $78 #
plane-surface $-1 -107.07654465753461 17.519915449271942 61.038076632803815 0 -1 0 0.71933980857756763 0 -0.69465836192734942 forward_v I I I I #
coedge $-1 $202 $203 $204 $205 reversed $79 $-1 #
coedge $-1 $130 $81 $206 $207 reversed $51 $-1 #
coedge $-1 $81 $129 $202 $208 reversed $51 $-1 #
coedge $-1 $204 $209 $81 $132 forward $199 $-1 #
edge $-1 $210 9.6306823754606228 $211 13.627870154707388 $131 $212 forward 7 unknown #
loop $-1 $-1 $138 $82 #
plane-surface $-1 -43.90758995330669 13.672512927681741 0.036527606520287748 -0.71933980857756763 0 0.69465836192734942 0.69465836192734942 0 0.71933980857756763 forward_v I I I I #
loop $-1 $-1 $213 $53 #
coedge $-1 $136 $136 $137 $214 reversed $83 $-1 #
coedge $-1 $137 $137 $136 $214 forward $85 $-1 #
coedge $-1 $138 $138 $86 $139 forward $133 $-1 #
edge $-1 $215 0 $215 6.2831853071796004 $138 $216 forward 7 unknown #
face $-1 $217 $218 $21 $-1 $219 reversed single #
loop $-1 $-1 $220 $87 #
plane-surface $-1 -43.907589953306683 0 0 1 0 0 0 0 -1 forward_v I I I I #
coedge $-1 $221 $151 $222 $223 forward $88 $-1 #
coedge $-1 $224 $90 $221 $225 forward $57 $-1 #
coedge $-1 $90 $224 $226 $227 forward $57 $-1 #
coedge $-1 $154 $153 $90 $147 reversed $155 $-1 #
edge $-1 $228 -19.67875282379455 $229 19.67875282379455 $146 $230 forward 7 unknown #
coedge $-1 $92 $91 $231 $232 forward $36 $-1 #
coedge $-1 $233 $234 $91 $150 reversed $218 $-1 #
edge $-1 $157 -43.907589953306683 $235 43.907589953306683 $149 $236 forward 7 unknown #
coedge $-1 $143 $237 $92 $152 reversed $88 $-1 #
edge $-1 $238 -43.907589953306683 $156 43.907589953306683 $151 $239 forward 7 unknown #
coedge $-1 $146 $93 $237 $240 forward $155 $-1 #
coedge $-1 $93 $146 $233 $241 reversed $155 $-1 #
loop $-1 $-1 $153 $217 #
vertex $-1 $94 $242 #
vertex $-1 $94 $243 #
straight-curve $-1 43.907589953306683 0 4.1757368200886109 0 1 0 I I #
face $-1 $-1 $171 $22 $-1 $244 forward single #
loop $-1 $-1 $245 $95 #
plane-surface $-1 -43.907589953306683 0 0 1 0 0 0 0 -1 forward_v I I I I #
coedge $-1 $246 $247 $248 $249 reversed $96 $-1 #
coedge $-1 $250 $98 $100 $169 forward $61 $-1 #
coedge $-1 $98 $250 $246 $251 forward $61 $-1 #
coedge $-1 $248 $101 $98 $166 forward $171 $-1 #
edge $-1 $173 -10.130314606945696 $252 -2.4355095637652964 $165 $253 forward 7 unknown #
coedge $-1 $254 $255 $99 $168 forward $160 $-1 #
edge $-1 $256 -30.482510709881613 $172 -26.343301496313295 $167 $257 forward 7 unknown #
edge $-1 $173 -5.7541778783983242 $256 -1.0226752498356164e-014 $100 $258 forward 7 unknown #
coedge $-1 $101 $248 $254 $259 forward $171 $-1 #
loop $-1 $-1 $248 $159 #
vertex $-1 $168 $260 #
vertex $-1 $102 $261 #
straight-curve $-1 -53.538272328767306 -16.41322669230119 4.1757368200886091 1 0 0 I I #
coedge $-1 $175 $175 $-1 $262 reversed $105 $-1 #
edge $-1 $263 0 $263 6.2831853071796004 $106 $264 forward 7 unknown #
vertex $-1 $109 $265 #
ellipse-curve $-1 -41.908996063683304 -12.565824170710991 2.106132213304452 -0.71933980857756763 0 0.69465836192734942 0.69465836192734942 0 0.71933980857756763 1 I I #
face $-1 $-1 $266 $24 $-1 $267 reversed single #
loop $-1 $-1 $116 $110 #
plane-surface $-1 0 0 4.1757368200886109 0 0 1 1 0 0 forward_v I I I I #
coedge $-1 $268 $269 $270 $271 reversed $111 $-1 #
coedge $-1 $272 $113 $115 $189 forward $70 $-1 #
coedge $-1 $113 $272 $268 $273 forward $70 $-1 #
coedge $-1 $270 $116 $113 $186 forward $180 $-1 #
edge $-1 $192 -3.5707303323475124 $274 4.1240747108328861 $185 $275 forward 7 unknown #
coedge $-1 $276 $277 $114 $188 forward $266 $-1 #
edge $-1 $278 -30.482510709881613 $191 -26.343301496313295 $187 $279 forward 7 unknown #
edge $-1 $192 -5.7541778783983242 $278 -1.0226752498356164e-014 $115 $280 forward 7 unknown #
coedge $-1 $116 $270 $276 $281 forward $180 $-1 #
vertex $-1 $117 $282 #
vertex $-1 $117 $283 #
straight-curve $-1 -53.538272328767306 -3.2940581431048255 4.1757368200886091 1 0 0 I I #
coedge $-1 $194 $194 $-1 $284 reversed $120 $-1 #
edge $-1 $285 0 $285 6.2831853071796004 $121 $286 forward 7 unknown #
vertex $-1 $124 $287 #
ellipse-curve $-1 -41.908996063683304 0.55334437848537377 2.106132213304452 -0.71933980857756763 0 0.69465836192734942 0.69465836192734942 0 0.71933980857756763 1 I I #
face $-1 $-1 $288 $26 $-1 $289 reversed single #
loop $-1 $-1 $131 $125 #
plane-surface $-1 0 0 4.1757368200886109 0 0 1 1 0 0 forward_v I I I I #
coedge $-1 $290 $291 $292 $293 reversed $126 $-1 #
coedge $-1 $294 $128 $130 $208 forward $79 $-1 #
coedge $-1 $128 $294 $290 $295 forward $79 $-1 #
coedge $-1 $292 $131 $128 $205 forward $199 $-1 #
edge $-1 $211 2.988853942250671 $296 10.683658985431071 $204 $297 forward 7 unknown #
coedge $-1 $298 $299 $129 $207 forward $288 $-1 #
edge $-1 $300 -30.482510709881613 $210 -26.343301496313295 $206 $301 forward 7 unknown #
edge $-1 $211 -5.7541778783983242 $300 -1.0226752498356164e-014 $130 $302 forward 7 unknown #
coedge $-1 $131 $292 $298 $303 forward $199 $-1 #
vertex $-1 $132 $304 #
vertex $-1 $132 $305 #
straight-curve $-1 -53.538272328767306 9.8251104060915413 4.1757368200886091 1 0 0 I I #
coedge $-1 $213 $213 $-1 $306 reversed $135 $-1 #
edge $-1 $307 0 $307 6.2831853071796004 $136 $308 forward 7 unknown #
vertex $-1 $139 $309 #
ellipse-curve $-1 -41.908996063683304 13.672512927681741 2.106132213304452 -0.71933980857756763 0 0.69465836192734942 0.69465836192734942 0 0.71933980857756763 1 I I #
face $-1 $-1 $155 $21 $-1 $310 reversed single #
loop $-1 $-1 $233 $140 #
plane-surface $-1 0 19.67875282379455 0 0 -1 0 0 0 -1 forward_v I I I I #
coedge $-1 $311 $231 $234 $312 forward $141 $-1 #
coedge $-1 $237 $143 $144 $225 reversed $88 $-1 #
coedge $-1 $231 $311 $143 $223 reversed $141 $-1 #
edge $-1 $238 -4.1757368200886109 $313 4.1757368200886109 $222 $314 forward 7 unknown #
coedge $-1 $145 $144 $311 $315 forward $57 $-1 #
edge $-1 $229 -43.907589953306683 $313 43.907589953306683 $221 $316 forward 7 unknown #
coedge $-1 $234 $233 $145 $227 reversed $218 $-1 #
edge $-1 $317 -43.907589953306683 $228 43.907589953306683 $226 $318 forward 7 unknown #
vertex $-1 $147 $319 #
vertex $-1 $240 $320 #
straight-curve $-1 43.907589953306683 0 -4.1757368200886109 0 -1 0 I I #
coedge $-1 $220 $222 $148 $232 reversed $141 $-1 #
edge $-1 $235 -19.67875282379455 $238 19.67875282379455 $231 $321 forward 7 unknown #
coedge $-1 $226 $149 $154 $241 forward $218 $-1 #
coedge $-1 $149 $226 $220 $312 reversed $218 $-1 #
vertex $-1 $150 $322 #
straight-curve $-1 0 19.67875282379455 4.1757368200886109 -1 0 0 I I #
coedge $-1 $151 $221 $153 $240 reversed $88 $-1 #
vertex $-1 $232 $323 #
straight-curve $-1 0 -19.67875282379455 4.1757368200886109 1 0 0 I I #
edge $-1 $156 -4.1757368200886109 $229 4.1757368200886109 $153 $324 forward 7 unknown #
edge $-1 $157 -4.1757368200886109 $228 4.1757368200886109 $154 $325 forward 7 unknown #
point $-1 43.907589953306683 -19.67875282379455 4.1757368200886109 #
point $-1 43.907589953306683 19.67875282379455 4.1757368200886109 #
plane-surface $-1 0 0 4.1757368200886109 0 0 1 1 0 0 forward_v I I I I #
coedge $-1 $255 $254 $247 $326 forward $160 $-1 #
coedge $-1 $247 $162 $164 $251 reversed $96 $-1 #
coedge $-1 $162 $246 $245 $326 reversed $96 $-1 #
coedge $-1 $170 $165 $162 $249 forward $171 $-1 #
edge $-1 $252 -13.627870154707388 $327 -9.6306823754606228 $248 $328 forward 7 unknown #
coedge $-1 $164 $163 $255 $329 reversed $61 $-1 #
edge $-1 $330 1.0226752498356164e-014 $252 5.7541778783983242 $246 $331 forward 7 unknown #
vertex $-1 $166 $332 #
straight-curve $-1 -39.910402174059925 -6.2829120853554956 4.1757368200886118 0 1 0 I I #
coedge $-1 $245 $167 $170 $259 reversed $160 $-1 #
coedge $-1 $167 $245 $250 $329 forward $160 $-1 #
vertex $-1 $168 $333 #
straight-curve $-1 -43.907589953306683 -16.41322669230119 30.519038316401907 0 0 1 I I #
straight-curve $-1 -43.90758995330669 -16.41322669230119 0.036527606520287748 -0.69465836192734942 0 -0.71933980857756763 I I #
edge $-1 $327 8.718421649120792 $172 16.41322669230119 $254 $334 forward 7 unknown #
point $-1 -43.907589953306683 -16.41322669230119 4.1757368200886109 #
point $-1 -39.910402174059918 -16.41322669230119 4.1757368200886109 #
edge $-1 $335 1 $335 0 $175 $-1 forward 7 unknown #
vertex $-1 $176 $336 #
ellipse-curve $-1 -41.171610742161285 -12.565824170710991 1.3940475025046271 -0.71933980857756763 0 0.69465836192734942 0.69465836192734942 0 0.71933980857756763 1 I I #
point $-1 -41.214337701755952 -12.565824170710991 2.8254720218820162 #
loop $-1 $-1 $187 $179 #
plane-surface $-1 -43.907589953306683 0 0 1 0 0 0 0 -1 forward_v I I I I #
coedge $-1 $269 $182 $184 $273 reversed $111 $-1 #
coedge $-1 $182 $268 $337 $338 reversed $111 $-1 #
coedge $-1 $190 $185 $182 $271 forward $180 $-1 #
edge $-1 $274 -13.627870154707388 $339 -9.6306823754606228 $270 $340 forward 7 unknown #
coedge $-1 $184 $183 $277 $341 reversed $70 $-1 #
edge $-1 $342 1.0226752498356164e-014 $274 5.7541778783983242 $268 $343 forward 7 unknown #
vertex $-1 $186 $344 #
straight-curve $-1 -39.910402174059925 0.27667218924268688 4.1757368200886118 0 1 0 I I #
coedge $-1 $337 $187 $190 $281 reversed $266 $-1 #
coedge $-1 $187 $337 $272 $341 forward $266 $-1 #
vertex $-1 $188 $345 #
straight-curve $-1 -43.907589953306683 -3.2940581431048255 30.519038316401907 0 0 1 I I #
straight-curve $-1 -43.90758995330669 -3.2940581431048255 0.036527606520287748 -0.69465836192734942 0 -0.71933980857756763 I I #
edge $-1 $339 -4.400746900075573 $191 3.2940581431048255 $276 $346 forward 7 unknown #
point $-1 -43.907589953306683 -3.2940581431048255 4.1757368200886109 #
point $-1 -39.910402174059918 -3.2940581431048255 4.1757368200886109 #
edge $-1 $347 1 $347 0 $194 $-1 forward 7 unknown #
vertex $-1 $195 $348 #
ellipse-curve $-1 -41.171610742161285 0.55334437848537377 1.3940475025046271 -0.71933980857756763 0 0.69465836192734942 0.69465836192734942 0 0.71933980857756763 1 I I #
point $-1 -41.214337701755952 0.55334437848537377 2.8254720218820162 #
loop $-1 $-1 $206 $198 #
plane-surface $-1 -43.907589953306683 0 0 1 0 0 0 0 -1 forward_v I I I I #
coedge $-1 $291 $201 $203 $295 reversed $126 $-1 #
coedge $-1 $201 $290 $349 $350 reversed $126 $-1 #
coedge $-1 $209 $204 $201 $293 forward $199 $-1 #
edge $-1 $296 -13.627870154707388 $351 -9.6306823754606228 $292 $352 forward 7 unknown #
coedge $-1 $203 $202 $299 $353 reversed $79 $-1 #
edge $-1 $354 1.0226752498356164e-014 $296 5.7541778783983242 $290 $355 forward 7 unknown #
vertex $-1 $205 $356 #
straight-curve $-1 -39.910402174059925 6.8362564638408703 4.1757368200886118 0 1 0 I I #
coedge $-1 $349 $206 $209 $303 reversed $288 $-1 #
coedge $-1 $206 $349 $294 $353 forward $288 $-1 #
vertex $-1 $207 $357 #
straight-curve $-1 -43.907589953306683 9.8251104060915413 30.519038316401907 0 0 1 I I #
straight-curve $-1 -43.90758995330669 9.8251104060915413 0.036527606520287748 -0.69465836192734942 0 -0.71933980857756763 I I #
edge $-1 $351 -17.519915449271942 $210 -9.8251104060915413 $298 $358 forward 7 unknown #
point $-1 -43.907589953306683 9.8251104060915413 4.1757368200886109 #
point $-1 -39.910402174059918 9.8251104060915413 4.1757368200886109 #
edge $-1 $359 1 $359 0 $213 $-1 forward 7 unknown #
vertex $-1 $214 $360 #
ellipse-curve $-1 -41.171610742161285 13.672512927681741 1.3940475025046271 -0.71933980857756763 0 0.69465836192734942 0.69465836192734942 0 0.71933980857756763 1 I I #
point $-1 -41.214337701755952 13.672512927681741 2.8254720218820162 #
plane-surface $-1 43.907589953306683 0 0 -1 0 0 0 0 1 forward_v I I I I #
coedge $-1 $222 $220 $224 $315 reversed $141 $-1 #
edge $-1 $235 -4.1757368200886109 $317 4.1757368200886109 $234 $361 forward 7 unknown #
vertex $-1 $315 $362 #
straight-curve $-1 -43.907589953306683 -19.67875282379455 0 0 0 -1 I I #
edge $-1 $313 -19.67875282379455 $317 19.67875282379455 $311 $363 forward 7 unknown #
straight-curve $-1 0 -19.67875282379455 -4.1757368200886109 -1 0 0 I I #
vertex $-1 $227 $364 #
straight-curve $-1 0 19.67875282379455 -4.1757368200886109 1 0 0 I I #
point $-1 43.907589953306683 19.67875282379455 -4.1757368200886109 #
point $-1 43.907589953306683 -19.67875282379455 -4.1757368200886109 #
straight-curve $-1 -43.907589953306683 0 4.1757368200886109 0 -1 0 I I #
point $-1 -43.907589953306683 19.67875282379455 4.1757368200886109 #
point $-1 -43.907589953306683 -19.67875282379455 4.1757368200886109 #
straight-curve $-1 43.907589953306683 -19.67875282379455 0 0 0 -1 I I #
straight-curve $-1 43.907589953306683 19.67875282379455 0 0 0 -1 I I #
edge $-1 $327 26.343301496313295 $330 30.482510709881613 $245 $365 forward 7 unknown #
vertex $-1 $259 $366 #
straight-curve $-1 -53.538272328767306 -8.718421649120792 4.1757368200886091 -1 0 0 I I #
edge $-1 $330 2.4355095637652964 $256 10.130314606945696 $255 $367 forward 7 unknown #
vertex $-1 $329 $368 #
straight-curve $-1 -43.90758995330669 -8.718421649120792 0.036527606520287748 0.69465836192734942 0 0.71933980857756763 I I #
point $-1 -39.910402174059918 -8.718421649120792 4.1757368200886109 #
point $-1 -43.907589953306683 -16.41322669230119 0.036527606520295103 #
straight-curve $-1 -43.907589953306683 0 4.1757368200886109 0 -1 0 I I #
vertex $-1 $262 $369 #
point $-1 -40.476952380233932 -12.565824170710991 2.1133873110821946 #
coedge $-1 $277 $276 $269 $338 forward $266 $-1 #
edge $-1 $339 26.343301496313295 $342 30.482510709881613 $337 $370 forward 7 unknown #
vertex $-1 $281 $371 #
straight-curve $-1 -53.538272328767306 4.400746900075573 4.1757368200886091 -1 0 0 I I #
edge $-1 $342 -4.1240747108328861 $278 3.5707303323475124 $277 $372 forward 7 unknown #
vertex $-1 $341 $373 #
straight-curve $-1 -43.90758995330669 4.400746900075573 0.036527606520287748 0.69465836192734942 0 0.71933980857756763 I I #
point $-1 -39.910402174059918 4.400746900075573 4.1757368200886109 #
point $-1 -43.907589953306683 -3.2940581431048255 0.036527606520295103 #
straight-curve $-1 -43.907589953306683 0 4.1757368200886109 0 -1 0 I I #
vertex $-1 $284 $374 #
point $-1 -40.476952380233932 0.55334437848537377 2.1133873110821946 #
coedge $-1 $299 $298 $291 $350 forward $288 $-1 #
edge $-1 $351 26.343301496313295 $354 30.482510709881613 $349 $375 forward 7 unknown #
vertex $-1 $303 $376 #
straight-curve $-1 -53.538272328767306 17.519915449271942 4.1757368200886091 -1 0 0 I I #
edge $-1 $354 -10.683658985431071 $300 -2.988853942250671 $299 $377 forward 7 unknown #
vertex $-1 $353 $378 #
straight-curve $-1 -43.90758995330669 17.519915449271942 0.036527606520287748 0.69465836192734942 0 0.71933980857756763 I I #
point $-1 -39.910402174059918 17.519915449271942 4.1757368200886109 #
point $-1 -43.907589953306683 9.8251104060915413 0.036527606520295103 #
straight-curve $-1 -43.907589953306683 0 4.1757368200886109 0 -1 0 I I #
vertex $-1 $306 $379 #
point $-1 -40.476952380233932 13.672512927681741 2.1133873110821946 #
straight-curve $-1 -43.907589953306683 19.67875282379455 0 0 0 -1 I I #
point $-1 -43.907589953306683 -19.67875282379455 -4.1757368200886109 #
straight-curve $-1 -43.907589953306683 0 -4.1757368200886109 0 1 0 I I #
point $-1 -43.907589953306683 19.67875282379455 -4.1757368200886109 #
straight-curve $-1 -43.907589953306683 -8.718421649120792 30.519038316401907 0 0 -1 I I #
point $-1 -43.907589953306683 -8.718421649120792 4.1757368200886109 #
straight-curve $-1 -43.907589953306683 -6.2829120853554956 0.036527606520293916 0 -1 0 I I #
point $-1 -43.907589953306683 -8.718421649120792 0.036527606520295103 #
point $-1 -40.452270933583712 -12.565824170710991 0.69938914057727763 #
straight-curve $-1 -43.907589953306683 4.400746900075573 30.519038316401907 0 0 -1 I I #
point $-1 -43.907589953306683 4.400746900075573 4.1757368200886109 #
straight-curve $-1 -43.907589953306683 0.27667218924268688 0.036527606520293916 0 -1 0 I I #
point $-1 -43.907589953306683 4.400746900075573 0.036527606520295103 #
point $-1 -40.452270933583712 0.55334437848537377 0.69938914057727763 #
straight-curve $-1 -43.907589953306683 17.519915449271942 30.519038316401907 0 0 -1 I I #
point $-1 -43.907589953306683 17.519915449271942 4.1757368200886109 #
straight-curve $-1 -43.907589953306683 6.8362564638408703 0.036527606520293916 0 -1 0 I I #
point $-1 -43.907589953306683 17.519915449271942 0.036527606520295103 #
point $-1 -40.452270933583712 13.672512927681741 0.69938914057727763 #
End-of-ACIS-data 