500 0 6 0           
7 Unknown 11 ACIS 5.0 NT 24 Thu Mar 25 23:01:41 1999 
-1 9.9999999999999995e-007 1e-010 
body $-1 $6 $-1 $7 #
body $-1 $8 $-1 $9 #
body $-1 $10 $-1 $11 #
body $-1 $12 $-1 $13 #
body $-1 $14 $-1 $15 #
body $-1 $16 $-1 $17 #
lump $-1 $-1 $18 $0 #
transform $-1 1 0 0 0 1 0 0 0 1 73.27982421338541 35.817143854240406 12.354493444568217 1 rotate no_reflect no_shear #
lump $-1 $-1 $19 $1 #
transform $-1 1 0 0 0 1 0 0 0 1 73.27982421338541 35.817143854240406 12.354493444568217 1 rotate no_reflect no_shear #
lump $-1 $-1 $20 $2 #
transform $-1 1 0 0 0 1 0 0 0 1 73.27982421338541 35.817143854240406 12.354493444568217 1 rotate no_reflect no_shear #
lump $-1 $-1 $21 $3 #
transform $-1 1 0 0 0 1 0 0 0 1 73.27982421338541 35.817143854240406 12.354493444568217 1 rotate no_reflect no_shear #
lump $-1 $-1 $22 $4 #
transform $-1 1 0 0 0 1 0 0 0 1 73.27982421338541 35.817143854240406 12.354493444568217 1 rotate no_reflect no_shear #
lump $-1 $-1 $23 $5 #
transform $-1 1 0 0 0 1 0 0 0 1 73.27982421338541 35.817143854240406 12.354493444568217 1 rotate no_reflect no_shear #
shell $-1 $-1 $-1 $24 $-1 $6 #
shell $-1 $-1 $-1 $25 $-1 $8 #
shell $-1 $-1 $-1 $26 $-1 $10 #
shell $-1 $-1 $-1 $27 $-1 $12 #
shell $-1 $-1 $-1 $28 $-1 $14 #
shell $-1 $-1 $-1 $29 $-1 $16 #
face $-1 $30 $31 $18 $-1 $32 forward single #
face $-1 $33 $34 $19 $-1 $35 reversed single #
face $-1 $36 $37 $20 $-1 $38 forward single #
face $-1 $39 $40 $21 $-1 $41 reversed single #
face $-1 $42 $43 $22 $-1 $44 forward single #
face $-1 $45 $46 $23 $-1 $47 forward single #
face $-1 $48 $49 $18 $-1 $50 reversed single #
loop $-1 $-1 $51 $24 #
plane-surface $-1 0 0 12.354493444568217 0 0 1 1 0 0 forward_v I I I I #
face $-1 $52 $53 $19 $-1 $54 reversed single #
loop $-1 $-1 $55 $25 #
plane-surface $-1 8.6561739629420806 -128.05012025961136 122.71402083811336 -1 0 0 0 -0.62932039886446345 0.77714595512881146 forward_v I I I I #
face $-1 $56 $57 $20 $-1 $58 forward single #
loop $-1 $59 $60 $26 #
cone-surface $-1 -6.2750906130236075 -32.454916381655558 9.1313484632301858 0 0.62932039886446345 -0.77714595512881146 1 0 0 1 I I 0 1 1 forward I I I I #
face $-1 $61 $62 $21 $-1 $63 reversed single #
loop $-1 $-1 $64 $27 #
plane-surface $-1 -44.819959502710034 58.384744612412341 162.36048433650285 -1 0 0 0 0.55919291073839883 0.82903756765294845 forward_v I I I I #
face $-1 $65 $66 $22 $-1 $67 forward single #
loop $-1 $68 $69 $28 #
cone-surface $-1 -65.148434296049587 25.758064204556689 4.3625742140510031 0 -0.55919291073839883 -0.82903756765294845 2 0 0 1 I I 0 1 2 forward I I I I #
face $-1 $70 $71 $23 $-1 $72 forward single #
loop $-1 $73 $74 $29 #
cone-surface $-1 -52.951349420045858 25.758064204556689 4.3625742140510031 0 -0.55919291073839883 -0.82903756765294845 2 0 0 1 I I 0 1 2 forward I I I I #
face $-1 $75 $76 $18 $-1 $77 reversed single #
loop $-1 $-1 $78 $30 #
plane-surface $-1 0 0 -12.354493444568217 0 0 1 1 0 0 forward_v I I I I #
coedge $-1 $79 $80 $81 $82 forward $31 $-1 #
face $-1 $83 $84 $19 $-1 $85 reversed single #
loop $-1 $-1 $86 $33 #
plane-surface $-1 -6.2750906130236075 -35.817143854240413 8.8157828781477434 0 -0.62932039886446345 0.77714595512881146 1 0 0 forward_v I I I I #
coedge $-1 $87 $88 $89 $90 reversed $34 $-1 #
face $-1 $-1 $91 $20 $-1 $92 forward single #
loop $-1 $93 $94 $36 #
cone-surface $-1 -6.2750906130236075 -30.963000472851228 7.2889857875379924 0 0.62932039886446345 -0.77714595512881146 0.5 0 0 1 I I -0.70710678118654746 0.70710678118654746 0.5 forward I I I I #
loop $-1 $-1 $95 $26 #
coedge $-1 $60 $60 $96 $97 reversed $37 $-1 #
face $-1 $98 $99 $21 $-1 $100 reversed single #
loop $-1 $-1 $101 $39 #
plane-surface $-1 -59.049891858047722 -23.570371788150034 40.85702988870149 0 0.55919291073839883 0.82903756765294845 1 0 0 forward_v I I I I #
coedge $-1 $102 $103 $104 $105 reversed $40 $-1 #
face $-1 $-1 $106 $22 $-1 $107 forward single #
loop $-1 $108 $109 $42 #
cone-surface $-1 -65.148434296049587 23.705175847018488 1.319042120002841 0 -0.55919291073839883 -0.82903756765294845 1 0 0 1 I I -0.70710678118654746 0.70710678118654746 1 forward I I I I #
loop $-1 $-1 $110 $28 #
coedge $-1 $69 $69 $111 $112 reversed $43 $-1 #
face $-1 $-1 $113 $23 $-1 $114 forward single #
loop $-1 $115 $116 $45 #
cone-surface $-1 -52.951349420045858 23.705175847018488 1.319042120002841 0 -0.55919291073839883 -0.82903756765294845 1 0 0 1 I I -0.70710678118654746 0.70710678118654746 1 forward I I I I #
loop $-1 $-1 $117 $29 #
coedge $-1 $74 $74 $118 $119 reversed $46 $-1 #
face $-1 $120 $121 $18 $-1 $122 reversed single #
loop $-1 $-1 $123 $48 #
plane-surface $-1 0 -35.817143854240406 0 0 1 0 0 0 1 forward_v I I I I #
coedge $-1 $124 $125 $126 $127 forward $49 $-1 #
coedge $-1 $128 $51 $129 $130 forward $31 $-1 #
coedge $-1 $51 $128 $131 $132 forward $31 $-1 #
coedge $-1 $133 $134 $51 $82 reversed $135 $-1 #
edge $-1 $136 -35.817143854240406 $137 35.817143854240406 $81 $138 forward 7 unknown #
face $-1 $139 $140 $19 $-1 $141 reversed single #
loop $-1 $-1 $142 $52 #
plane-surface $-1 -21.206355188989296 -128.05012025961136 122.71402083811336 1 0 0 0 0.62932039886446345 -0.77714595512881146 forward_v I I I I #
coedge $-1 $143 $144 $145 $146 reversed $53 $-1 #
coedge $-1 $88 $55 $147 $148 reversed $34 $-1 #
coedge $-1 $55 $87 $143 $149 reversed $34 $-1 #
coedge $-1 $145 $150 $55 $90 forward $151 $-1 #
edge $-1 $152 28.207916275565275 $153 32.577859801990741 $89 $154 forward 7 unknown #
loop $-1 $-1 $96 $56 #
plane-surface $-1 -6.2750906130236075 -35.817143854240413 8.8157828781477434 0 -0.62932039886446345 0.77714595512881146 1 0 0 forward_v I I I I #
loop $-1 $-1 $155 $36 #
coedge $-1 $94 $94 $95 $156 reversed $57 $-1 #
coedge $-1 $95 $95 $94 $156 forward $59 $-1 #
coedge $-1 $96 $96 $60 $97 forward $91 $-1 #
edge $-1 $157 9.8282990856958618e-016 $157 6.2831853071796013 $96 $158 forward 7 unknown #
face $-1 $159 $160 $21 $-1 $161 forward single #
loop $-1 $-1 $104 $61 #
plane-surface $-1 0 35.817143854240406 0 0 -1 0 0 0 -1 forward_v I I I I #
coedge $-1 $162 $163 $164 $165 reversed $62 $-1 #
coedge $-1 $103 $64 $166 $167 reversed $40 $-1 #
coedge $-1 $64 $102 $162 $168 reversed $40 $-1 #
coedge $-1 $164 $169 $64 $105 forward $99 $-1 #
edge $-1 $170 68.825748723683205 $171 80.380598131927229 $104 $172 forward 7 unknown #
loop $-1 $-1 $111 $65 #
plane-surface $-1 -59.049891858047722 -23.570371788150034 40.85702988870149 0 0.55919291073839883 0.82903756765294845 1 0 0 forward_v I I I I #
loop $-1 $-1 $173 $42 #
coedge $-1 $109 $109 $110 $174 reversed $66 $-1 #
coedge $-1 $110 $110 $109 $174 forward $68 $-1 #
coedge $-1 $111 $111 $69 $112 forward $106 $-1 #
edge $-1 $175 1.9636351623946226e-016 $175 6.2831853071796004 $111 $176 forward 7 unknown #
loop $-1 $-1 $118 $70 #
plane-surface $-1 -59.049891858047722 -23.570371788150034 40.85702988870149 0 0.55919291073839883 0.82903756765294845 1 0 0 forward_v I I I I #
loop $-1 $-1 $177 $45 #
coedge $-1 $116 $116 $117 $178 reversed $71 $-1 #
coedge $-1 $117 $117 $116 $178 forward $73 $-1 #
coedge $-1 $118 $118 $74 $119 forward $113 $-1 #
edge $-1 $179 1.9636351623946226e-016 $179 6.2831853071796004 $118 $180 forward 7 unknown #
face $-1 $181 $182 $18 $-1 $183 reversed single #
loop $-1 $-1 $184 $75 #
plane-surface $-1 -73.27982421338541 0 0 1 0 0 0 0 -1 forward_v I I I I #
coedge $-1 $185 $131 $186 $187 forward $76 $-1 #
coedge $-1 $188 $78 $185 $189 forward $49 $-1 #
coedge $-1 $78 $188 $190 $191 forward $49 $-1 #
coedge $-1 $134 $133 $78 $127 reversed $135 $-1 #
edge $-1 $192 -35.817143854240406 $193 35.817143854240406 $126 $194 forward 7 unknown #
coedge $-1 $80 $79 $195 $196 forward $31 $-1 #
coedge $-1 $197 $198 $79 $130 reversed $182 $-1 #
edge $-1 $137 -73.27982421338541 $199 73.27982421338541 $129 $200 forward 7 unknown #
coedge $-1 $123 $201 $80 $132 reversed $76 $-1 #
edge $-1 $202 -73.27982421338541 $136 73.27982421338541 $131 $203 forward 7 unknown #
coedge $-1 $126 $81 $201 $204 forward $135 $-1 #
coedge $-1 $81 $126 $197 $205 reversed $135 $-1 #
loop $-1 $-1 $133 $181 #
vertex $-1 $82 $206 #
vertex $-1 $82 $207 #
straight-curve $-1 73.27982421338541 0 12.354493444568217 0 1 0 I I #
face $-1 $-1 $151 $19 $-1 $208 forward single #
loop $-1 $-1 $209 $83 #
plane-surface $-1 0 -35.817143854240406 0 0 1 0 0 0 1 forward_v I I I I #
coedge $-1 $210 $211 $212 $213 reversed $84 $-1 #
coedge $-1 $214 $86 $88 $149 forward $53 $-1 #
coedge $-1 $86 $214 $210 $215 forward $53 $-1 #
coedge $-1 $212 $89 $86 $146 forward $151 $-1 #
edge $-1 $153 -11.793719269453884 $216 18.068809882477492 $145 $217 forward 7 unknown #
coedge $-1 $218 $219 $87 $148 forward $140 $-1 #
edge $-1 $220 -52.541227540908928 $152 -49.002516974488458 $147 $221 forward 7 unknown #
edge $-1 $153 -5.6230666808285115 $220 -8.8756469145121664e-015 $88 $222 forward 7 unknown #
coedge $-1 $89 $212 $218 $223 forward $151 $-1 #
loop $-1 $-1 $212 $139 #
vertex $-1 $148 $224 #
vertex $-1 $90 $225 #
straight-curve $-1 8.6561739629420806 -64.025060129805681 12.35449344456822 0 1 0 I I #
coedge $-1 $155 $155 $-1 $226 reversed $93 $-1 #
edge $-1 $227 0 $227 6.2831853071796004 $94 $228 forward 7 unknown #
vertex $-1 $97 $229 #
ellipse-curve $-1 -6.2750906130236075 -33.63217209102767 10.585138161357987 0 -0.62932039886446345 0.77714595512881146 1 0 0 1 I I #
face $-1 $-1 $230 $21 $-1 $231 reversed single #
loop $-1 $-1 $166 $98 #
plane-surface $-1 0 0 12.354493444568217 0 0 1 1 0 0 forward_v I I I I #
coedge $-1 $232 $101 $103 $168 forward $62 $-1 #
coedge $-1 $101 $232 $233 $234 reversed $62 $-1 #
coedge $-1 $235 $104 $101 $165 forward $99 $-1 #
edge $-1 $171 15.295013573686173 $236 43.754878284361553 $164 $237 forward 7 unknown #
coedge $-1 $238 $239 $102 $167 forward $160 $-1 #
edge $-1 $240 -10.505996857733631 $170 6.6247715480342357 $166 $241 forward 7 unknown #
edge $-1 $171 -71.634287708480812 $240 -50.970847263597207 $103 $242 forward 7 unknown #
coedge $-1 $104 $235 $238 $243 reversed $99 $-1 #
vertex $-1 $243 $244 #
vertex $-1 $105 $245 #
straight-curve $-1 -44.819959502710034 35.817143854240406 81.180242168251425 0 0 -1 I I #
coedge $-1 $173 $173 $-1 $246 reversed $108 $-1 #
edge $-1 $247 0 $247 6.2831853071796004 $109 $248 forward 7 unknown #
vertex $-1 $112 $249 #
ellipse-curve $-1 -65.148434296049587 27.25175965135648 6.5770687404462009 0 0.55919291073839883 0.82903756765294845 2 0 0 1 I I #
coedge $-1 $177 $177 $-1 $250 reversed $115 $-1 #
edge $-1 $251 0 $251 6.2831853071796004 $116 $252 forward 7 unknown #
vertex $-1 $119 $253 #
ellipse-curve $-1 -52.951349420045858 27.25175965135648 6.5770687404462009 0 0.55919291073839883 0.82903756765294845 2 0 0 1 I I #
face $-1 $-1 $135 $18 $-1 $254 reversed single #
loop $-1 $-1 $197 $120 #
plane-surface $-1 0 35.817143854240406 0 0 -1 0 0 0 -1 forward_v I I I I #
coedge $-1 $255 $195 $198 $256 forward $121 $-1 #
coedge $-1 $201 $123 $124 $189 reversed $76 $-1 #
coedge $-1 $195 $255 $123 $187 reversed $121 $-1 #
edge $-1 $202 -12.354493444568217 $257 12.354493444568217 $186 $258 forward 7 unknown #
coedge $-1 $125 $124 $255 $259 forward $49 $-1 #
edge $-1 $193 -73.27982421338541 $257 73.27982421338541 $185 $260 forward 7 unknown #
coedge $-1 $198 $197 $125 $191 reversed $182 $-1 #
edge $-1 $261 -73.27982421338541 $192 73.27982421338541 $190 $262 forward 7 unknown #
vertex $-1 $127 $263 #
vertex $-1 $204 $264 #
straight-curve $-1 73.27982421338541 0 -12.354493444568217 0 -1 0 I I #
coedge $-1 $184 $186 $128 $196 reversed $121 $-1 #
edge $-1 $199 -35.817143854240406 $202 35.817143854240406 $195 $265 forward 7 unknown #
coedge $-1 $190 $129 $134 $205 forward $182 $-1 #
coedge $-1 $129 $190 $184 $256 reversed $182 $-1 #
vertex $-1 $130 $266 #
straight-curve $-1 0 35.817143854240406 12.354493444568217 -1 0 0 I I #
coedge $-1 $131 $185 $133 $204 reversed $76 $-1 #
vertex $-1 $196 $267 #
straight-curve $-1 0 -35.817143854240406 12.354493444568217 1 0 0 I I #
edge $-1 $136 -12.354493444568217 $193 12.354493444568217 $133 $268 forward 7 unknown #
edge $-1 $137 -12.354493444568217 $192 12.354493444568217 $134 $269 forward 7 unknown #
point $-1 73.27982421338541 -35.817143854240406 12.354493444568217 #
point $-1 73.27982421338541 35.817143854240406 12.354493444568217 #
plane-surface $-1 0 0 12.354493444568217 0 0 1 1 0 0 forward_v I I I I #
coedge $-1 $219 $218 $211 $270 forward $140 $-1 #
coedge $-1 $211 $142 $144 $215 reversed $84 $-1 #
coedge $-1 $142 $210 $209 $270 reversed $84 $-1 #
coedge $-1 $150 $145 $142 $213 forward $151 $-1 #
edge $-1 $216 -32.577859801990741 $271 -28.207916275565275 $212 $272 forward 7 unknown #
coedge $-1 $144 $143 $219 $273 reversed $53 $-1 #
edge $-1 $274 8.8756469145121664e-015 $216 5.6230666808285115 $210 $275 forward 7 unknown #
vertex $-1 $146 $276 #
straight-curve $-1 -3.1375453065118037 -31.447200327814944 12.354493444568217 -1 0 0 I I #
coedge $-1 $209 $147 $150 $223 reversed $140 $-1 #
coedge $-1 $147 $209 $214 $273 forward $140 $-1 #
vertex $-1 $148 $277 #
straight-curve $-1 8.6561739629420806 -35.817143854240406 61.357010419056678 0 0 1 I I #
straight-curve $-1 8.6561739629420806 -35.817143854240413 8.8157828781477434 0 -0.77714595512881146 -0.62932039886446345 I I #
edge $-1 $271 -21.206355188989296 $152 8.6561739629420806 $218 $278 forward 7 unknown #
point $-1 8.6561739629420806 -35.817143854240406 12.354493444568217 #
point $-1 8.6561739629420806 -31.447200327814944 12.354493444568217 #
edge $-1 $279 1 $279 0 $155 $-1 forward 7 unknown #
vertex $-1 $156 $280 #
ellipse-curve $-1 -6.2750906130236075 -31.27766067228346 7.6775587651023978 0 -0.62932039886446345 0.77714595512881146 1 0 0 1 I I #
point $-1 -5.2750906130236075 -33.632172091027655 10.585138161357971 #
loop $-1 $-1 $233 $159 #
plane-surface $-1 -73.27982421338541 0 0 1 0 0 0 0 -1 forward_v I I I I #
coedge $-1 $163 $162 $239 $281 reversed $62 $-1 #
coedge $-1 $282 $283 $163 $234 forward $230 $-1 #
edge $-1 $236 -50.440445126724654 $284 -29.777004681841042 $233 $285 forward 7 unknown #
coedge $-1 $169 $164 $283 $286 reversed $99 $-1 #
vertex $-1 $165 $287 #
straight-curve $-1 -29.524945929023861 35.817143854240406 0.79964403632419234 -1 0 0 I I #
coedge $-1 $288 $166 $169 $243 forward $160 $-1 #
coedge $-1 $166 $288 $232 $281 forward $160 $-1 #
vertex $-1 $167 $289 #
straight-curve $-1 -44.819959502710034 29.19237230620617 12.35449344456822 0 1 0 I I #
straight-curve $-1 -44.819959502710034 -23.570371788150034 40.85702988870149 0 -0.82903756765294845 0.55919291073839883 I I #
edge $-1 $170 44.819959502710034 $290 73.27982421338541 $169 $291 forward 7 unknown #
point $-1 -44.819959502710034 35.817143854240406 12.354493444568217 #
point $-1 -44.819959502710034 35.817143854240399 0.79964403632419589 #
edge $-1 $292 1 $292 0 $173 $-1 forward 7 unknown #
vertex $-1 $174 $293 #
ellipse-curve $-1 -65.148434296049587 24.264368757756888 2.1480796876557893 0 0.55919291073839883 0.82903756765294845 2 0 0 1 I I #
point $-1 -63.148434296049587 27.25175965135649 6.577068740446216 #
edge $-1 $294 1 $294 0 $177 $-1 forward 7 unknown #
vertex $-1 $178 $295 #
ellipse-curve $-1 -52.951349420045858 24.264368757756888 2.1480796876557893 0 0.55919291073839883 0.82903756765294845 2 0 0 1 I I #
point $-1 -50.951349420045858 27.25175965135649 6.577068740446216 #
plane-surface $-1 73.27982421338541 0 0 -1 0 0 0 0 1 forward_v I I I I #
coedge $-1 $186 $184 $188 $259 reversed $121 $-1 #
edge $-1 $199 -12.354493444568217 $261 12.354493444568217 $198 $296 forward 7 unknown #
vertex $-1 $259 $297 #
straight-curve $-1 -73.27982421338541 -35.817143854240406 0 0 0 -1 I I #
edge $-1 $257 -35.817143854240406 $261 35.817143854240406 $255 $298 forward 7 unknown #
straight-curve $-1 0 -35.817143854240406 -12.354493444568217 -1 0 0 I I #
vertex $-1 $191 $299 #
straight-curve $-1 0 35.817143854240406 -12.354493444568217 1 0 0 I I #
point $-1 73.27982421338541 35.817143854240406 -12.354493444568217 #
point $-1 73.27982421338541 -35.817143854240406 -12.354493444568217 #
straight-curve $-1 -73.27982421338541 0 12.354493444568217 0 -1 0 I I #
point $-1 -73.27982421338541 35.817143854240406 12.354493444568217 #
point $-1 -73.27982421338541 -35.817143854240406 12.354493444568217 #
straight-curve $-1 73.27982421338541 -35.817143854240406 0 0 0 -1 I I #
straight-curve $-1 73.27982421338541 35.817143854240406 0 0 0 -1 I I #
edge $-1 $271 49.002516974488458 $274 52.541227540908928 $209 $300 forward 7 unknown #
vertex $-1 $223 $301 #
straight-curve $-1 -21.206355188989296 -64.025060129805681 12.35449344456822 0 -1 0 I I #
edge $-1 $274 -18.068809882477492 $220 11.793719269453884 $219 $302 forward 7 unknown #
vertex $-1 $273 $303 #
straight-curve $-1 -21.206355188989296 -35.817143854240413 8.8157828781477434 0 0.77714595512881146 0.62932039886446345 I I #
point $-1 -21.206355188989296 -31.447200327814944 12.354493444568217 #
point $-1 8.6561739629420806 -35.817143854240406 8.8157828781477487 #
straight-curve $-1 0 -35.817143854240406 12.354493444568217 1 0 0 I I #
vertex $-1 $226 $304 #
point $-1 -5.2750906130236075 -31.27766067228346 7.6775587651023978 #
edge $-1 $284 -43.754878284361553 $240 -15.295013573686173 $239 $305 forward 7 unknown #
coedge $-1 $283 $233 $288 $306 reversed $230 $-1 #
coedge $-1 $233 $282 $235 $286 forward $230 $-1 #
vertex $-1 $234 $307 #
straight-curve $-1 -73.27982421338541 -5.9998800849514193 29.005583365677836 0 -0.82903756765294845 0.55919291073839883 I I #
edge $-1 $290 -12.354493444568217 $236 -0.79964403632419045 $235 $308 forward 7 unknown #
point $-1 -73.27982421338541 35.817143854240406 0.79964403632419045 #
coedge $-1 $239 $238 $282 $306 forward $160 $-1 #
point $-1 -44.819959502710034 18.686375448472539 12.354493444568217 #
vertex $-1 $243 $309 #
straight-curve $-1 0 35.817143854240406 12.354493444568217 -1 0 0 I I #
vertex $-1 $246 $310 #
point $-1 -63.148434296049587 24.264368757756888 2.1480796876557893 #
vertex $-1 $250 $311 #
point $-1 -50.951349420045858 24.264368757756888 2.1480796876557893 #
straight-curve $-1 -73.27982421338541 35.817143854240406 0 0 0 -1 I I #
point $-1 -73.27982421338541 -35.817143854240406 -12.354493444568217 #
straight-curve $-1 -73.27982421338541 0 -12.354493444568217 0 1 0 I I #
point $-1 -73.27982421338541 35.817143854240406 -12.354493444568217 #
straight-curve $-1 -21.206355188989296 -35.817143854240406 61.357010419056678 0 0 -1 I I #
point $-1 -21.206355188989296 -35.817143854240406 12.354493444568217 #
straight-curve $-1 -3.1375453065118037 -35.817143854240406 8.8157828781477505 1 0 0 I I #
point $-1 -21.206355188989296 -35.817143854240406 8.8157828781477487 #
point $-1 -6.2750906130236075 -30.648340273418995 6.9004128099735871 #
straight-curve $-1 -29.524945929023861 18.686375448472536 12.354493444568217 1 0 0 I I #
edge $-1 $290 -35.817143854240406 $284 -18.686375448472539 $282 $312 forward 7 unknown #
point $-1 -73.27982421338541 18.686375448472539 12.354493444568217 #
straight-curve $-1 -73.27982421338541 35.817143854240406 0 0 0 -1 I I #
point $-1 -73.27982421338541 35.817143854240406 12.354493444568217 #
point $-1 -65.148434296049587 23.145982936280088 0.4900045523498926 #
point $-1 -52.951349420045858 23.145982936280088 0.4900045523498926 #
straight-curve $-1 -73.27982421338541 0 12.354493444568217 0 -1 0 I I #
End-of-ACIS-data 