500 0 20 0           
7 Unknown 11 ACIS 5.0 NT 24 Thu Mar 25 21:59:08 1999 
-1 9.9999999999999995e-007 1e-010 
body $-1 $20 $-1 $21 #
body $-1 $22 $-1 $23 #
body $-1 $24 $-1 $25 #
body $-1 $26 $-1 $27 #
body $-1 $28 $-1 $29 #
body $-1 $30 $-1 $31 #
body $-1 $32 $-1 $33 #
body $-1 $34 $-1 $35 #
body $-1 $36 $-1 $37 #
body $-1 $38 $-1 $39 #
body $-1 $40 $-1 $41 #
body $-1 $42 $-1 $43 #
body $-1 $44 $-1 $45 #
body $-1 $46 $-1 $47 #
body $-1 $48 $-1 $49 #
body $-1 $50 $-1 $51 #
body $-1 $52 $-1 $53 #
body $-1 $54 $-1 $55 #
body $-1 $56 $-1 $57 #
body $-1 $58 $-1 $59 #
lump $-1 $-1 $60 $0 #
transform $-1 1 0 0 0 1 0 0 0 1 79.177220984527111 32.002172826226953 11.627804468435018 1 rotate no_reflect no_shear #
lump $-1 $-1 $61 $1 #
transform $-1 1 0 0 0 1 0 0 0 1 79.177220984527111 6.0817246344499774 17.176505465181126 1 rotate no_reflect no_shear #
lump $-1 $-1 $62 $2 #
transform $-1 0.80901698891910034 0 0.5877852598018023 0 1 0 -0.5877852598018023 0 0.80901698891910034 -93.078406813549947 21.817099053151811 148.29068351823486 1 rotate no_reflect no_shear #
lump $-1 $-1 $63 $3 #
transform $-1 0.80901698891910034 0 0.5877852598018023 0 -1 0 0.5877852598018023 0 -0.80901698891910034 2.8518541544867322 19.83315446616983 20.706158079519248 1 rotate no_reflect no_shear #
lump $-1 $-1 $64 $4 #
transform $-1 0.80901698891910034 0 0.5877852598018023 0 -1 0 0.5877852598018023 0 -0.80901698891910034 2.8518541544867322 21.817099053151811 20.706158079519248 1 rotate no_reflect no_shear #
lump $-1 $-1 $65 $5 #
transform $-1 0.80901698891910034 0 0.5877852598018023 0 -1 0 0.5877852598018023 0 -0.80901698891910034 2.8518541544867322 23.801043640133791 20.706158079519248 1 rotate no_reflect no_shear #
lump $-1 $-1 $66 $6 #
transform $-1 0.80901698891910034 0 0.5877852598018023 0 1 0 -0.5877852598018023 0 0.80901698891910034 -93.078406813549947 32.661631324835227 148.29068351823486 1 rotate no_reflect no_shear #
lump $-1 $-1 $67 $7 #
transform $-1 0.80901698891910034 0 0.5877852598018023 0 -1 0 0.5877852598018023 0 -0.80901698891910034 2.8518541544867322 30.677686737853243 20.706158079519248 1 rotate no_reflect no_shear #
lump $-1 $-1 $68 $8 #
transform $-1 0.80901698891910034 0 0.5877852598018023 0 -1 0 0.5877852598018023 0 -0.80901698891910034 2.8518541544867322 32.661631324835227 20.706158079519248 1 rotate no_reflect no_shear #
lump $-1 $-1 $69 $9 #
transform $-1 0.80901698891910034 0 0.5877852598018023 0 -1 0 0.5877852598018023 0 -0.80901698891910034 2.8518541544867322 34.645575911817204 20.706158079519248 1 rotate no_reflect no_shear #
lump $-1 $-1 $70 $10 #
transform $-1 0.80901698891910034 0 0.5877852598018023 0 1 0 -0.5877852598018023 0 0.80901698891910034 -93.078406813549947 43.50616359651864 148.29068351823486 1 rotate no_reflect no_shear #
lump $-1 $-1 $71 $11 #
transform $-1 0.80901698891910034 0 0.5877852598018023 0 -1 0 0.5877852598018023 0 -0.80901698891910034 2.8518541544867322 41.522219009536656 20.706158079519248 1 rotate no_reflect no_shear #
lump $-1 $-1 $72 $12 #
transform $-1 0.80901698891910034 0 0.5877852598018023 0 -1 0 0.5877852598018023 0 -0.80901698891910034 2.8518541544867322 43.50616359651864 20.706158079519248 1 rotate no_reflect no_shear #
lump $-1 $-1 $73 $13 #
transform $-1 0.80901698891910034 0 0.5877852598018023 0 -1 0 0.5877852598018023 0 -0.80901698891910034 2.8518541544867322 45.490108183500617 20.706158079519248 1 rotate no_reflect no_shear #
lump $-1 $-1 $74 $14 #
transform $-1 0.80901698891910034 0 0.5877852598018023 0 1 0 -0.5877852598018023 0 0.80901698891910034 -93.078406813549947 54.350695868202052 148.29068351823486 1 rotate no_reflect no_shear #
lump $-1 $-1 $75 $15 #
transform $-1 0.80901698891910034 0 0.5877852598018023 0 -1 0 0.5877852598018023 0 -0.80901698891910034 2.8518541544867322 52.366751281220068 20.706158079519248 1 rotate no_reflect no_shear #
lump $-1 $-1 $76 $16 #
transform $-1 0.80901698891910034 0 0.5877852598018023 0 -1 0 0.5877852598018023 0 -0.80901698891910034 2.8518541544867322 54.350695868202052 20.706158079519248 1 rotate no_reflect no_shear #
lump $-1 $-1 $77 $17 #
transform $-1 0.80901698891910034 0 0.5877852598018023 0 -1 0 0.5877852598018023 0 -0.80901698891910034 2.8518541544867322 56.334640455184029 20.706158079519248 1 rotate no_reflect no_shear #
lump $-1 $-1 $78 $18 #
transform $-1 0.64278759981090561 0 -0.7660444514056185 0 1 0 0.7660444514056185 0 0.64278759981090561 177.87271192219748 33.043214155096038 239.02585603799992 1 rotate no_reflect no_shear #
lump $-1 $-1 $79 $19 #
transform $-1 0.64278759981090561 0 -0.7660444514056185 0 -1 0 -0.7660444514056185 0 -0.64278759981090561 152.25741985864764 33.043214155096031 17.055887115020965 1 rotate no_reflect no_shear #
shell $-1 $-1 $-1 $80 $-1 $20 #
shell $-1 $-1 $-1 $81 $-1 $22 #
shell $-1 $-1 $-1 $82 $-1 $24 #
shell $-1 $-1 $-1 $83 $-1 $26 #
shell $-1 $-1 $-1 $84 $-1 $28 #
shell $-1 $-1 $-1 $85 $-1 $30 #
shell $-1 $-1 $-1 $86 $-1 $32 #
shell $-1 $-1 $-1 $87 $-1 $34 #
shell $-1 $-1 $-1 $88 $-1 $36 #
shell $-1 $-1 $-1 $89 $-1 $38 #
shell $-1 $-1 $-1 $90 $-1 $40 #
shell $-1 $-1 $-1 $91 $-1 $42 #
shell $-1 $-1 $-1 $92 $-1 $44 #
shell $-1 $-1 $-1 $93 $-1 $46 #
shell $-1 $-1 $-1 $94 $-1 $48 #
shell $-1 $-1 $-1 $95 $-1 $50 #
shell $-1 $-1 $-1 $96 $-1 $52 #
shell $-1 $-1 $-1 $97 $-1 $54 #
shell $-1 $-1 $-1 $98 $-1 $56 #
shell $-1 $-1 $-1 $99 $-1 $58 #
face $-1 $100 $101 $60 $-1 $102 forward single #
face $-1 $103 $104 $61 $-1 $105 forward single #
face $-1 $106 $107 $62 $-1 $108 forward single #
face $-1 $109 $110 $63 $-1 $111 forward single #
face $-1 $112 $113 $64 $-1 $114 forward single #
face $-1 $115 $116 $65 $-1 $117 forward single #
face $-1 $118 $119 $66 $-1 $120 forward single #
face $-1 $121 $122 $67 $-1 $123 forward single #
face $-1 $124 $125 $68 $-1 $126 forward single #
face $-1 $127 $128 $69 $-1 $129 forward single #
face $-1 $130 $131 $70 $-1 $132 forward single #
face $-1 $133 $134 $71 $-1 $135 forward single #
face $-1 $136 $137 $72 $-1 $138 forward single #
face $-1 $139 $140 $73 $-1 $141 forward single #
face $-1 $142 $143 $74 $-1 $144 forward single #
face $-1 $145 $146 $75 $-1 $147 forward single #
face $-1 $148 $149 $76 $-1 $150 forward single #
face $-1 $151 $152 $77 $-1 $153 forward single #
face $-1 $154 $155 $78 $-1 $156 forward single #
face $-1 $157 $158 $79 $-1 $159 forward single #
face $-1 $160 $161 $60 $-1 $162 reversed single #
loop $-1 $-1 $163 $80 #
plane-surface $-1 0 0 11.627804468435018 0 0 1 1 0 0 forward_v I I I I #
face $-1 $164 $165 $61 $-1 $166 reversed single #
loop $-1 $-1 $167 $81 #
plane-surface $-1 0 0 2.9925973651161035 0 0 1 1 0 0 forward_v I I I I #
face $-1 $168 $169 $62 $-1 $170 reversed single #
loop $-1 $-1 $171 $82 #
plane-surface $-1 0 0 158.35444196905422 0 0 1 1 0 0 forward_v I I I I #
face $-1 $172 $173 $63 $-1 $174 forward single #
loop $-1 $175 $176 $83 #
cone-surface $-1 0 0 -0.75 0 0 1 0.5 0 0 1 I I 0 1 0.5 forward I I I I #
face $-1 $177 $178 $64 $-1 $179 forward single #
loop $-1 $180 $181 $84 #
cone-surface $-1 0 0 -0.75 0 0 1 0.5 0 0 1 I I 0 1 0.5 forward I I I I #
face $-1 $182 $183 $65 $-1 $184 forward single #
loop $-1 $185 $186 $85 #
cone-surface $-1 0 0 -0.75 0 0 1 0.5 0 0 1 I I 0 1 0.5 forward I I I I #
face $-1 $187 $188 $66 $-1 $189 reversed single #
loop $-1 $-1 $190 $86 #
plane-surface $-1 0 0 158.35444196905422 0 0 1 1 0 0 forward_v I I I I #
face $-1 $191 $192 $67 $-1 $193 forward single #
loop $-1 $194 $195 $87 #
cone-surface $-1 0 0 -0.75 0 0 1 0.5 0 0 1 I I 0 1 0.5 forward I I I I #
face $-1 $196 $197 $68 $-1 $198 forward single #
loop $-1 $199 $200 $88 #
cone-surface $-1 0 0 -0.75 0 0 1 0.5 0 0 1 I I 0 1 0.5 forward I I I I #
face $-1 $201 $202 $69 $-1 $203 forward single #
loop $-1 $204 $205 $89 #
cone-surface $-1 0 0 -0.75 0 0 1 0.5 0 0 1 I I 0 1 0.5 forward I I I I #
face $-1 $206 $207 $70 $-1 $208 reversed single #
loop $-1 $-1 $209 $90 #
plane-surface $-1 0 0 158.35444196905422 0 0 1 1 0 0 forward_v I I I I #
face $-1 $210 $211 $71 $-1 $212 forward single #
loop $-1 $213 $214 $91 #
cone-surface $-1 0 0 -0.75 0 0 1 0.5 0 0 1 I I 0 1 0.5 forward I I I I #
face $-1 $215 $216 $72 $-1 $217 forward single #
loop $-1 $218 $219 $92 #
cone-surface $-1 0 0 -0.75 0 0 1 0.5 0 0 1 I I 0 1 0.5 forward I I I I #
face $-1 $220 $221 $73 $-1 $222 forward single #
loop $-1 $223 $224 $93 #
cone-surface $-1 0 0 -0.75 0 0 1 0.5 0 0 1 I I 0 1 0.5 forward I I I I #
face $-1 $225 $226 $74 $-1 $227 reversed single #
loop $-1 $-1 $228 $94 #
plane-surface $-1 0 0 158.35444196905422 0 0 1 1 0 0 forward_v I I I I #
face $-1 $229 $230 $75 $-1 $231 forward single #
loop $-1 $232 $233 $95 #
cone-surface $-1 0 0 -0.75 0 0 1 0.5 0 0 1 I I 0 1 0.5 forward I I I I #
face $-1 $234 $235 $76 $-1 $236 forward single #
loop $-1 $237 $238 $96 #
cone-surface $-1 0 0 -0.75 0 0 1 0.5 0 0 1 I I 0 1 0.5 forward I I I I #
face $-1 $239 $240 $77 $-1 $241 forward single #
loop $-1 $242 $243 $97 #
cone-surface $-1 0 0 -0.75 0 0 1 0.5 0 0 1 I I 0 1 0.5 forward I I I I #
face $-1 $244 $245 $78 $-1 $246 reversed single #
loop $-1 $-1 $247 $98 #
plane-surface $-1 0 0 158.35444196905422 0 0 1 1 0 0 forward_v I I I I #
face $-1 $248 $249 $79 $-1 $250 forward single #
loop $-1 $251 $252 $99 #
cone-surface $-1 0 0 -2.2237769707327484 0 0 1 1 0 0 1 I I 0 1 1 forward I I I I #
face $-1 $253 $254 $60 $-1 $255 reversed single #
loop $-1 $-1 $256 $100 #
plane-surface $-1 0 0 -11.627804468435018 0 0 1 1 0 0 forward_v I I I I #
coedge $-1 $257 $258 $259 $260 forward $101 $-1 #
face $-1 $261 $262 $61 $-1 $263 reversed single #
loop $-1 $-1 $264 $103 #
plane-surface $-1 0 0 -2.9925973651161035 0 0 1 1 0 0 forward_v I I I I #
coedge $-1 $265 $266 $267 $268 forward $104 $-1 #
face $-1 $269 $270 $62 $-1 $271 reversed single #
loop $-1 $-1 $272 $106 #
plane-surface $-1 0 0 -158.35444196905422 0 0 1 1 0 0 forward_v I I I I #
coedge $-1 $273 $274 $275 $276 forward $107 $-1 #
face $-1 $-1 $277 $63 $-1 $278 forward single #
loop $-1 $-1 $279 $109 #
plane-surface $-1 0 0 -1.25 0 0 -1 -1 0 0 forward_v I I I I #
loop $-1 $-1 $280 $83 #
coedge $-1 $176 $176 $279 $281 reversed $110 $-1 #
face $-1 $-1 $282 $64 $-1 $283 forward single #
loop $-1 $-1 $284 $112 #
plane-surface $-1 0 0 -1.25 0 0 -1 -1 0 0 forward_v I I I I #
loop $-1 $-1 $285 $84 #
coedge $-1 $181 $181 $284 $286 reversed $113 $-1 #
face $-1 $-1 $287 $65 $-1 $288 forward single #
loop $-1 $-1 $289 $115 #
plane-surface $-1 0 0 -1.25 0 0 -1 -1 0 0 forward_v I I I I #
loop $-1 $-1 $290 $85 #
coedge $-1 $186 $186 $289 $291 reversed $116 $-1 #
face $-1 $292 $293 $66 $-1 $294 reversed single #
loop $-1 $-1 $295 $118 #
plane-surface $-1 0 0 -158.35444196905422 0 0 1 1 0 0 forward_v I I I I #
coedge $-1 $296 $297 $298 $299 forward $119 $-1 #
face $-1 $-1 $300 $67 $-1 $301 forward single #
loop $-1 $-1 $302 $121 #
plane-surface $-1 0 0 -1.25 0 0 -1 -1 0 0 forward_v I I I I #
loop $-1 $-1 $303 $87 #
coedge $-1 $195 $195 $302 $304 reversed $122 $-1 #
face $-1 $-1 $305 $68 $-1 $306 forward single #
loop $-1 $-1 $307 $124 #
plane-surface $-1 0 0 -1.25 0 0 -1 -1 0 0 forward_v I I I I #
loop $-1 $-1 $308 $88 #
coedge $-1 $200 $200 $307 $309 reversed $125 $-1 #
face $-1 $-1 $310 $69 $-1 $311 forward single #
loop $-1 $-1 $312 $127 #
plane-surface $-1 0 0 -1.25 0 0 -1 -1 0 0 forward_v I I I I #
loop $-1 $-1 $313 $89 #
coedge $-1 $205 $205 $312 $314 reversed $128 $-1 #
face $-1 $315 $316 $70 $-1 $317 reversed single #
loop $-1 $-1 $318 $130 #
plane-surface $-1 0 0 -158.35444196905422 0 0 1 1 0 0 forward_v I I I I #
coedge $-1 $319 $320 $321 $322 forward $131 $-1 #
face $-1 $-1 $323 $71 $-1 $324 forward single #
loop $-1 $-1 $325 $133 #
plane-surface $-1 0 0 -1.25 0 0 -1 -1 0 0 forward_v I I I I #
loop $-1 $-1 $326 $91 #
coedge $-1 $214 $214 $325 $327 reversed $134 $-1 #
face $-1 $-1 $328 $72 $-1 $329 forward single #
loop $-1 $-1 $330 $136 #
plane-surface $-1 0 0 -1.25 0 0 -1 -1 0 0 forward_v I I I I #
loop $-1 $-1 $331 $92 #
coedge $-1 $219 $219 $330 $332 reversed $137 $-1 #
face $-1 $-1 $333 $73 $-1 $334 forward single #
loop $-1 $-1 $335 $139 #
plane-surface $-1 0 0 -1.25 0 0 -1 -1 0 0 forward_v I I I I #
loop $-1 $-1 $336 $93 #
coedge $-1 $224 $224 $335 $337 reversed $140 $-1 #
face $-1 $338 $339 $74 $-1 $340 reversed single #
loop $-1 $-1 $341 $142 #
plane-surface $-1 0 0 -158.35444196905422 0 0 1 1 0 0 forward_v I I I I #
coedge $-1 $342 $343 $344 $345 forward $143 $-1 #
face $-1 $-1 $346 $75 $-1 $347 forward single #
loop $-1 $-1 $348 $145 #
plane-surface $-1 0 0 -1.25 0 0 -1 -1 0 0 forward_v I I I I #
loop $-1 $-1 $349 $95 #
coedge $-1 $233 $233 $348 $350 reversed $146 $-1 #
face $-1 $-1 $351 $76 $-1 $352 forward single #
loop $-1 $-1 $353 $148 #
plane-surface $-1 0 0 -1.25 0 0 -1 -1 0 0 forward_v I I I I #
loop $-1 $-1 $354 $96 #
coedge $-1 $238 $238 $353 $355 reversed $149 $-1 #
face $-1 $-1 $356 $77 $-1 $357 forward single #
loop $-1 $-1 $358 $151 #
plane-surface $-1 0 0 -1.25 0 0 -1 -1 0 0 forward_v I I I I #
loop $-1 $-1 $359 $97 #
coedge $-1 $243 $243 $358 $360 reversed $152 $-1 #
face $-1 $361 $362 $78 $-1 $363 reversed single #
loop $-1 $-1 $364 $154 #
plane-surface $-1 0 0 -158.35444196905422 0 0 1 1 0 0 forward_v I I I I #
coedge $-1 $365 $366 $367 $368 forward $155 $-1 #
face $-1 $-1 $369 $79 $-1 $370 forward single #
loop $-1 $-1 $371 $157 #
plane-surface $-1 0 0 -3.9475539414654977 0 0 -1 -1 0 0 forward_v I I I I #
loop $-1 $-1 $372 $99 #
coedge $-1 $252 $252 $371 $373 reversed $158 $-1 #
face $-1 $374 $375 $60 $-1 $376 reversed single #
loop $-1 $-1 $377 $160 #
plane-surface $-1 0 -32.002172826226953 0 0 1 0 0 0 1 forward_v I I I I #
coedge $-1 $378 $379 $380 $381 forward $161 $-1 #
coedge $-1 $382 $163 $383 $384 forward $101 $-1 #
coedge $-1 $163 $382 $385 $386 forward $101 $-1 #
coedge $-1 $387 $388 $163 $260 reversed $389 $-1 #
edge $-1 $390 -32.002172826226953 $391 32.002172826226953 $259 $392 forward 7 unknown #
face $-1 $393 $394 $61 $-1 $395 reversed single #
loop $-1 $-1 $396 $164 #
plane-surface $-1 0 -6.0817246344499774 0 0 1 0 0 0 1 forward_v I I I I #
coedge $-1 $397 $398 $399 $400 forward $165 $-1 #
coedge $-1 $401 $167 $402 $403 forward $104 $-1 #
coedge $-1 $167 $401 $404 $405 forward $104 $-1 #
coedge $-1 $406 $407 $167 $268 reversed $408 $-1 #
edge $-1 $409 -6.0817246344499774 $410 6.0817246344499774 $267 $411 forward 7 unknown #
face $-1 $412 $413 $62 $-1 $414 reversed single #
loop $-1 $-1 $415 $168 #
plane-surface $-1 0 -3.3065743116366342 0 0 1 0 0 0 1 forward_v I I I I #
coedge $-1 $416 $417 $418 $419 forward $169 $-1 #
coedge $-1 $420 $171 $421 $422 forward $107 $-1 #
coedge $-1 $171 $420 $423 $424 forward $107 $-1 #
coedge $-1 $425 $426 $171 $276 reversed $427 $-1 #
edge $-1 $428 -3.3065743116366342 $429 3.3065743116366342 $275 $430 forward 7 unknown #
loop $-1 $431 $432 $172 #
cone-surface $-1 0 0 0 0 0 1 0.25 0 0 1 I I -0.70710678118654746 0.70710678118654746 0.25 forward I I I I #
coedge $-1 $279 $279 $176 $281 forward $173 $-1 #
coedge $-1 $280 $280 $432 $433 forward $175 $-1 #
edge $-1 $434 0 $434 6.2831853071796004 $279 $435 forward 7 unknown #
loop $-1 $436 $437 $177 #
cone-surface $-1 0 0 0 0 0 1 0.25 0 0 1 I I -0.70710678118654746 0.70710678118654746 0.25 forward I I I I #
coedge $-1 $284 $284 $181 $286 forward $178 $-1 #
coedge $-1 $285 $285 $437 $438 forward $180 $-1 #
edge $-1 $439 0 $439 6.2831853071796004 $284 $440 forward 7 unknown #
loop $-1 $441 $442 $182 #
cone-surface $-1 0 0 0 0 0 1 0.25 0 0 1 I I -0.70710678118654746 0.70710678118654746 0.25 forward I I I I #
coedge $-1 $289 $289 $186 $291 forward $183 $-1 #
coedge $-1 $290 $290 $442 $443 forward $185 $-1 #
edge $-1 $444 0 $444 6.2831853071796004 $289 $445 forward 7 unknown #
face $-1 $446 $447 $66 $-1 $448 reversed single #
loop $-1 $-1 $449 $187 #
plane-surface $-1 0 -3.3065743116366342 0 0 1 0 0 0 1 forward_v I I I I #
coedge $-1 $450 $451 $452 $453 forward $188 $-1 #
coedge $-1 $454 $190 $455 $456 forward $119 $-1 #
coedge $-1 $190 $454 $457 $458 forward $119 $-1 #
coedge $-1 $459 $460 $190 $299 reversed $461 $-1 #
edge $-1 $462 -3.3065743116366342 $463 3.3065743116366342 $298 $464 forward 7 unknown #
loop $-1 $465 $466 $191 #
cone-surface $-1 0 0 0 0 0 1 0.25 0 0 1 I I -0.70710678118654746 0.70710678118654746 0.25 forward I I I I #
coedge $-1 $302 $302 $195 $304 forward $192 $-1 #
coedge $-1 $303 $303 $466 $467 forward $194 $-1 #
edge $-1 $468 0 $468 6.2831853071796004 $302 $469 forward 7 unknown #
loop $-1 $470 $471 $196 #
cone-surface $-1 0 0 0 0 0 1 0.25 0 0 1 I I -0.70710678118654746 0.70710678118654746 0.25 forward I I I I #
coedge $-1 $307 $307 $200 $309 forward $197 $-1 #
coedge $-1 $308 $308 $471 $472 forward $199 $-1 #
edge $-1 $473 0 $473 6.2831853071796004 $307 $474 forward 7 unknown #
loop $-1 $475 $476 $201 #
cone-surface $-1 0 0 0 0 0 1 0.25 0 0 1 I I -0.70710678118654746 0.70710678118654746 0.25 forward I I I I #
coedge $-1 $312 $312 $205 $314 forward $202 $-1 #
coedge $-1 $313 $313 $476 $477 forward $204 $-1 #
edge $-1 $478 0 $478 6.2831853071796004 $312 $479 forward 7 unknown #
face $-1 $480 $481 $70 $-1 $482 reversed single #
loop $-1 $-1 $483 $206 #
plane-surface $-1 0 -3.3065743116366342 0 0 1 0 0 0 1 forward_v I I I I #
coedge $-1 $484 $485 $486 $487 forward $207 $-1 #
coedge $-1 $488 $209 $489 $490 forward $131 $-1 #
coedge $-1 $209 $488 $491 $492 forward $131 $-1 #
coedge $-1 $493 $494 $209 $322 reversed $495 $-1 #
edge $-1 $496 -3.3065743116366342 $497 3.3065743116366342 $321 $498 forward 7 unknown #
loop $-1 $499 $500 $210 #
cone-surface $-1 0 0 0 0 0 1 0.25 0 0 1 I I -0.70710678118654746 0.70710678118654746 0.25 forward I I I I #
coedge $-1 $325 $325 $214 $327 forward $211 $-1 #
coedge $-1 $326 $326 $500 $501 forward $213 $-1 #
edge $-1 $502 0 $502 6.2831853071796004 $325 $503 forward 7 unknown #
loop $-1 $504 $505 $215 #
cone-surface $-1 0 0 0 0 0 1 0.25 0 0 1 I I -0.70710678118654746 0.70710678118654746 0.25 forward I I I I #
coedge $-1 $330 $330 $219 $332 forward $216 $-1 #
coedge $-1 $331 $331 $505 $506 forward $218 $-1 #
edge $-1 $507 0 $507 6.2831853071796004 $330 $508 forward 7 unknown #
loop $-1 $509 $510 $220 #
cone-surface $-1 0 0 0 0 0 1 0.25 0 0 1 I I -0.70710678118654746 0.70710678118654746 0.25 forward I I I I #
coedge $-1 $335 $335 $224 $337 forward $221 $-1 #
coedge $-1 $336 $336 $510 $511 forward $223 $-1 #
edge $-1 $512 0 $512 6.2831853071796004 $335 $513 forward 7 unknown #
face $-1 $514 $515 $74 $-1 $516 reversed single #
loop $-1 $-1 $517 $225 #
plane-surface $-1 0 -3.3065743116366342 0 0 1 0 0 0 1 forward_v I I I I #
coedge $-1 $518 $519 $520 $521 forward $226 $-1 #
coedge $-1 $522 $228 $523 $524 forward $143 $-1 #
coedge $-1 $228 $522 $525 $526 forward $143 $-1 #
coedge $-1 $527 $528 $228 $345 reversed $529 $-1 #
edge $-1 $530 -3.3065743116366342 $531 3.3065743116366342 $344 $532 forward 7 unknown #
loop $-1 $533 $534 $229 #
cone-surface $-1 0 0 0 0 0 1 0.25 0 0 1 I I -0.70710678118654746 0.70710678118654746 0.25 forward I I I I #
coedge $-1 $348 $348 $233 $350 forward $230 $-1 #
coedge $-1 $349 $349 $534 $535 forward $232 $-1 #
edge $-1 $536 0 $536 6.2831853071796004 $348 $537 forward 7 unknown #
loop $-1 $538 $539 $234 #
cone-surface $-1 0 0 0 0 0 1 0.25 0 0 1 I I -0.70710678118654746 0.70710678118654746 0.25 forward I I I I #
coedge $-1 $353 $353 $238 $355 forward $235 $-1 #
coedge $-1 $354 $354 $539 $540 forward $237 $-1 #
edge $-1 $541 0 $541 6.2831853071796004 $353 $542 forward 7 unknown #
loop $-1 $543 $544 $239 #
cone-surface $-1 0 0 0 0 0 1 0.25 0 0 1 I I -0.70710678118654746 0.70710678118654746 0.25 forward I I I I #
coedge $-1 $358 $358 $243 $360 forward $240 $-1 #
coedge $-1 $359 $359 $544 $545 forward $242 $-1 #
edge $-1 $546 0 $546 6.2831853071796004 $358 $547 forward 7 unknown #
face $-1 $548 $549 $78 $-1 $550 reversed single #
loop $-1 $-1 $551 $244 #
plane-surface $-1 0 -4.0182828858402111 0 0 1 0 0 0 1 forward_v I I I I #
coedge $-1 $552 $553 $554 $555 forward $245 $-1 #
coedge $-1 $556 $247 $557 $558 forward $155 $-1 #
coedge $-1 $247 $556 $559 $560 forward $155 $-1 #
coedge $-1 $561 $562 $247 $368 reversed $563 $-1 #
edge $-1 $564 -4.0182828858402111 $565 4.0182828858402111 $367 $566 forward 7 unknown #
loop $-1 $567 $568 $248 #
cone-surface $-1 0 0 0 0 0 1 0.5 0 0 1 I I -0.70710678118654746 0.70710678118654746 0.5 forward I I I I #
coedge $-1 $371 $371 $252 $373 forward $249 $-1 #
coedge $-1 $372 $372 $568 $569 forward $251 $-1 #
edge $-1 $570 0 $570 6.2831853071796004 $371 $571 forward 7 unknown #
face $-1 $572 $573 $60 $-1 $574 reversed single #
loop $-1 $-1 $575 $253 #
plane-surface $-1 -79.177220984527111 0 0 1 0 0 0 0 -1 forward_v I I I I #
coedge $-1 $576 $385 $577 $578 forward $254 $-1 #
coedge $-1 $579 $256 $576 $580 forward $161 $-1 #
coedge $-1 $256 $579 $581 $582 forward $161 $-1 #
coedge $-1 $388 $387 $256 $381 reversed $389 $-1 #
edge $-1 $583 -32.002172826226953 $584 32.002172826226953 $380 $585 forward 7 unknown #
coedge $-1 $258 $257 $586 $587 forward $101 $-1 #
coedge $-1 $588 $589 $257 $384 reversed $573 $-1 #
edge $-1 $391 -79.177220984527111 $590 79.177220984527111 $383 $591 forward 7 unknown #
coedge $-1 $377 $592 $258 $386 reversed $254 $-1 #
edge $-1 $593 -79.177220984527111 $390 79.177220984527111 $385 $594 forward 7 unknown #
coedge $-1 $380 $259 $592 $595 forward $389 $-1 #
coedge $-1 $259 $380 $588 $596 reversed $389 $-1 #
loop $-1 $-1 $387 $572 #
vertex $-1 $260 $597 #
vertex $-1 $260 $598 #
straight-curve $-1 79.177220984527111 0 11.627804468435018 0 1 0 I I #
face $-1 $599 $600 $61 $-1 $601 reversed single #
loop $-1 $-1 $602 $261 #
plane-surface $-1 -79.177220984527111 0 0 1 0 0 0 0 -1 forward_v I I I I #
coedge $-1 $603 $404 $604 $605 forward $262 $-1 #
coedge $-1 $606 $264 $603 $607 forward $165 $-1 #
coedge $-1 $264 $606 $608 $609 forward $165 $-1 #
coedge $-1 $407 $406 $264 $400 reversed $408 $-1 #
edge $-1 $610 -6.0817246344499774 $611 6.0817246344499774 $399 $612 forward 7 unknown #
coedge $-1 $266 $265 $613 $614 forward $104 $-1 #
coedge $-1 $615 $616 $265 $403 reversed $600 $-1 #
edge $-1 $410 -79.177220984527111 $617 79.177220984527111 $402 $618 forward 7 unknown #
coedge $-1 $396 $619 $266 $405 reversed $262 $-1 #
edge $-1 $620 -79.177220984527111 $409 79.177220984527111 $404 $621 forward 7 unknown #
coedge $-1 $399 $267 $619 $622 forward $408 $-1 #
coedge $-1 $267 $399 $615 $623 reversed $408 $-1 #
loop $-1 $-1 $406 $599 #
vertex $-1 $268 $624 #
vertex $-1 $268 $625 #
straight-curve $-1 79.177220984527111 0 2.9925973651161035 0 1 0 I I #
face $-1 $626 $627 $62 $-1 $628 reversed single #
loop $-1 $-1 $629 $269 #
plane-surface $-1 -316.70888393810844 0 0 1 0 0 0 0 -1 forward_v I I I I #
coedge $-1 $630 $423 $631 $632 forward $270 $-1 #
coedge $-1 $633 $272 $630 $634 forward $169 $-1 #
coedge $-1 $272 $633 $635 $636 forward $169 $-1 #
coedge $-1 $426 $425 $272 $419 reversed $427 $-1 #
edge $-1 $637 -3.3065743116366342 $638 3.3065743116366342 $418 $639 forward 7 unknown #
coedge $-1 $274 $273 $640 $641 forward $107 $-1 #
coedge $-1 $642 $643 $273 $422 reversed $627 $-1 #
edge $-1 $429 -316.70888393810844 $644 316.70888393810844 $421 $645 forward 7 unknown #
coedge $-1 $415 $646 $274 $424 reversed $270 $-1 #
edge $-1 $647 -316.70888393810844 $428 316.70888393810844 $423 $648 forward 7 unknown #
coedge $-1 $418 $275 $646 $649 forward $427 $-1 #
coedge $-1 $275 $418 $642 $650 reversed $427 $-1 #
loop $-1 $-1 $425 $626 #
vertex $-1 $276 $651 #
vertex $-1 $276 $652 #
straight-curve $-1 316.70888393810844 0 158.35444196905422 0 1 0 I I #
loop $-1 $-1 $653 $172 #
coedge $-1 $432 $432 $280 $433 reversed $277 $-1 #
edge $-1 $654 0 $654 6.2831853071796004 $432 $655 forward 7 unknown #
vertex $-1 $281 $656 #
ellipse-curve $-1 0 0 -1.25 0 0 -1 0.5 0 0 1 I I #
loop $-1 $-1 $657 $177 #
coedge $-1 $437 $437 $285 $438 reversed $282 $-1 #
edge $-1 $658 0 $658 6.2831853071796004 $437 $659 forward 7 unknown #
vertex $-1 $286 $660 #
ellipse-curve $-1 0 0 -1.25 0 0 -1 0.5 0 0 1 I I #
loop $-1 $-1 $661 $182 #
coedge $-1 $442 $442 $290 $443 reversed $287 $-1 #
edge $-1 $662 0 $662 6.2831853071796004 $442 $663 forward 7 unknown #
vertex $-1 $291 $664 #
ellipse-curve $-1 0 0 -1.25 0 0 -1 0.5 0 0 1 I I #
face $-1 $665 $666 $66 $-1 $667 reversed single #
loop $-1 $-1 $668 $292 #
plane-surface $-1 -316.70888393810844 0 0 1 0 0 0 0 -1 forward_v I I I I #
coedge $-1 $669 $457 $670 $671 forward $293 $-1 #
coedge $-1 $672 $295 $669 $673 forward $188 $-1 #
coedge $-1 $295 $672 $674 $675 forward $188 $-1 #
coedge $-1 $460 $459 $295 $453 reversed $461 $-1 #
edge $-1 $676 -3.3065743116366342 $677 3.3065743116366342 $452 $678 forward 7 unknown #
coedge $-1 $297 $296 $679 $680 forward $119 $-1 #
coedge $-1 $681 $682 $296 $456 reversed $666 $-1 #
edge $-1 $463 -316.70888393810844 $683 316.70888393810844 $455 $684 forward 7 unknown #
coedge $-1 $449 $685 $297 $458 reversed $293 $-1 #
edge $-1 $686 -316.70888393810844 $462 316.70888393810844 $457 $687 forward 7 unknown #
coedge $-1 $452 $298 $685 $688 forward $461 $-1 #
coedge $-1 $298 $452 $681 $689 reversed $461 $-1 #
loop $-1 $-1 $459 $665 #
vertex $-1 $299 $690 #
vertex $-1 $299 $691 #
straight-curve $-1 316.70888393810844 0 158.35444196905422 0 1 0 I I #
loop $-1 $-1 $692 $191 #
coedge $-1 $466 $466 $303 $467 reversed $300 $-1 #
edge $-1 $693 0 $693 6.2831853071796004 $466 $694 forward 7 unknown #
vertex $-1 $304 $695 #
ellipse-curve $-1 0 0 -1.25 0 0 -1 0.5 0 0 1 I I #
loop $-1 $-1 $696 $196 #
coedge $-1 $471 $471 $308 $472 reversed $305 $-1 #
edge $-1 $697 0 $697 6.2831853071796004 $471 $698 forward 7 unknown #
vertex $-1 $309 $699 #
ellipse-curve $-1 0 0 -1.25 0 0 -1 0.5 0 0 1 I I #
loop $-1 $-1 $700 $201 #
coedge $-1 $476 $476 $313 $477 reversed $310 $-1 #
edge $-1 $701 0 $701 6.2831853071796004 $476 $702 forward 7 unknown #
vertex $-1 $314 $703 #
ellipse-curve $-1 0 0 -1.25 0 0 -1 0.5 0 0 1 I I #
face $-1 $704 $705 $70 $-1 $706 reversed single #
loop $-1 $-1 $707 $315 #
plane-surface $-1 -316.70888393810844 0 0 1 0 0 0 0 -1 forward_v I I I I #
coedge $-1 $708 $491 $709 $710 forward $316 $-1 #
coedge $-1 $711 $318 $708 $712 forward $207 $-1 #
coedge $-1 $318 $711 $713 $714 forward $207 $-1 #
coedge $-1 $494 $493 $318 $487 reversed $495 $-1 #
edge $-1 $715 -3.3065743116366342 $716 3.3065743116366342 $486 $717 forward 7 unknown #
coedge $-1 $320 $319 $718 $719 forward $131 $-1 #
coedge $-1 $720 $721 $319 $490 reversed $705 $-1 #
edge $-1 $497 -316.70888393810844 $722 316.70888393810844 $489 $723 forward 7 unknown #
coedge $-1 $483 $724 $320 $492 reversed $316 $-1 #
edge $-1 $725 -316.70888393810844 $496 316.70888393810844 $491 $726 forward 7 unknown #
coedge $-1 $486 $321 $724 $727 forward $495 $-1 #
coedge $-1 $321 $486 $720 $728 reversed $495 $-1 #
loop $-1 $-1 $493 $704 #
vertex $-1 $322 $729 #
vertex $-1 $322 $730 #
straight-curve $-1 316.70888393810844 0 158.35444196905422 0 1 0 I I #
loop $-1 $-1 $731 $210 #
coedge $-1 $500 $500 $326 $501 reversed $323 $-1 #
edge $-1 $732 0 $732 6.2831853071796004 $500 $733 forward 7 unknown #
vertex $-1 $327 $734 #
ellipse-curve $-1 0 0 -1.25 0 0 -1 0.5 0 0 1 I I #
loop $-1 $-1 $735 $215 #
coedge $-1 $505 $505 $331 $506 reversed $328 $-1 #
edge $-1 $736 0 $736 6.2831853071796004 $505 $737 forward 7 unknown #
vertex $-1 $332 $738 #
ellipse-curve $-1 0 0 -1.25 0 0 -1 0.5 0 0 1 I I #
loop $-1 $-1 $739 $220 #
coedge $-1 $510 $510 $336 $511 reversed $333 $-1 #
edge $-1 $740 0 $740 6.2831853071796004 $510 $741 forward 7 unknown #
vertex $-1 $337 $742 #
ellipse-curve $-1 0 0 -1.25 0 0 -1 0.5 0 0 1 I I #
face $-1 $743 $744 $74 $-1 $745 reversed single #
loop $-1 $-1 $746 $338 #
plane-surface $-1 -316.70888393810844 0 0 1 0 0 0 0 -1 forward_v I I I I #
coedge $-1 $747 $525 $748 $749 forward $339 $-1 #
coedge $-1 $750 $341 $747 $751 forward $226 $-1 #
coedge $-1 $341 $750 $752 $753 forward $226 $-1 #
coedge $-1 $528 $527 $341 $521 reversed $529 $-1 #
edge $-1 $754 -3.3065743116366342 $755 3.3065743116366342 $520 $756 forward 7 unknown #
coedge $-1 $343 $342 $757 $758 forward $143 $-1 #
coedge $-1 $759 $760 $342 $524 reversed $744 $-1 #
edge $-1 $531 -316.70888393810844 $761 316.70888393810844 $523 $762 forward 7 unknown #
coedge $-1 $517 $763 $343 $526 reversed $339 $-1 #
edge $-1 $764 -316.70888393810844 $530 316.70888393810844 $525 $765 forward 7 unknown #
coedge $-1 $520 $344 $763 $766 forward $529 $-1 #
coedge $-1 $344 $520 $759 $767 reversed $529 $-1 #
loop $-1 $-1 $527 $743 #
vertex $-1 $345 $768 #
vertex $-1 $345 $769 #
straight-curve $-1 316.70888393810844 0 158.35444196905422 0 1 0 I I #
loop $-1 $-1 $770 $229 #
coedge $-1 $534 $534 $349 $535 reversed $346 $-1 #
edge $-1 $771 0 $771 6.2831853071796004 $534 $772 forward 7 unknown #
vertex $-1 $350 $773 #
ellipse-curve $-1 0 0 -1.25 0 0 -1 0.5 0 0 1 I I #
loop $-1 $-1 $774 $234 #
coedge $-1 $539 $539 $354 $540 reversed $351 $-1 #
edge $-1 $775 0 $775 6.2831853071796004 $539 $776 forward 7 unknown #
vertex $-1 $355 $777 #
ellipse-curve $-1 0 0 -1.25 0 0 -1 0.5 0 0 1 I I #
loop $-1 $-1 $778 $239 #
coedge $-1 $544 $544 $359 $545 reversed $356 $-1 #
edge $-1 $779 0 $779 6.2831853071796004 $544 $780 forward 7 unknown #
vertex $-1 $360 $781 #
ellipse-curve $-1 0 0 -1.25 0 0 -1 0.5 0 0 1 I I #
face $-1 $782 $783 $78 $-1 $784 reversed single #
loop $-1 $-1 $785 $361 #
plane-surface $-1 -316.70888393810844 0 0 1 0 0 0 0 -1 forward_v I I I I #
coedge $-1 $786 $559 $787 $788 forward $362 $-1 #
coedge $-1 $789 $364 $786 $790 forward $245 $-1 #
coedge $-1 $364 $789 $791 $792 forward $245 $-1 #
coedge $-1 $562 $561 $364 $555 reversed $563 $-1 #
edge $-1 $793 -4.0182828858402111 $794 4.0182828858402111 $554 $795 forward 7 unknown #
coedge $-1 $366 $365 $796 $797 forward $155 $-1 #
coedge $-1 $798 $799 $365 $558 reversed $783 $-1 #
edge $-1 $565 -316.70888393810844 $800 316.70888393810844 $557 $801 forward 7 unknown #
coedge $-1 $551 $802 $366 $560 reversed $362 $-1 #
edge $-1 $803 -316.70888393810844 $564 316.70888393810844 $559 $804 forward 7 unknown #
coedge $-1 $554 $367 $802 $805 forward $563 $-1 #
coedge $-1 $367 $554 $798 $806 reversed $563 $-1 #
loop $-1 $-1 $561 $782 #
vertex $-1 $368 $807 #
vertex $-1 $368 $808 #
straight-curve $-1 316.70888393810844 0 158.35444196905422 0 1 0 I I #
loop $-1 $-1 $809 $248 #
coedge $-1 $568 $568 $372 $569 reversed $369 $-1 #
edge $-1 $810 0 $810 6.2831853071796004 $568 $811 forward 7 unknown #
vertex $-1 $373 $812 #
ellipse-curve $-1 0 0 -3.9475539414654977 0 0 -1 1 0 0 1 I I #
face $-1 $-1 $389 $60 $-1 $813 reversed single #
loop $-1 $-1 $588 $374 #
plane-surface $-1 0 32.002172826226953 0 0 -1 0 0 0 -1 forward_v I I I I #
coedge $-1 $814 $586 $589 $815 forward $375 $-1 #
coedge $-1 $592 $377 $378 $580 reversed $254 $-1 #
coedge $-1 $586 $814 $377 $578 reversed $375 $-1 #
edge $-1 $593 -11.627804468435018 $816 11.627804468435018 $577 $817 forward 7 unknown #
coedge $-1 $379 $378 $814 $818 forward $161 $-1 #
edge $-1 $584 -79.177220984527111 $816 79.177220984527111 $576 $819 forward 7 unknown #
coedge $-1 $589 $588 $379 $582 reversed $573 $-1 #
edge $-1 $820 -79.177220984527111 $583 79.177220984527111 $581 $821 forward 7 unknown #
vertex $-1 $381 $822 #
vertex $-1 $595 $823 #
straight-curve $-1 79.177220984527111 0 -11.627804468435018 0 -1 0 I I #
coedge $-1 $575 $577 $382 $587 reversed $375 $-1 #
edge $-1 $590 -32.002172826226953 $593 32.002172826226953 $586 $824 forward 7 unknown #
coedge $-1 $581 $383 $388 $596 forward $573 $-1 #
coedge $-1 $383 $581 $575 $815 reversed $573 $-1 #
vertex $-1 $384 $825 #
straight-curve $-1 0 32.002172826226953 11.627804468435018 -1 0 0 I I #
coedge $-1 $385 $576 $387 $595 reversed $254 $-1 #
vertex $-1 $587 $826 #
straight-curve $-1 0 -32.002172826226953 11.627804468435018 1 0 0 I I #
edge $-1 $390 -11.627804468435018 $584 11.627804468435018 $387 $827 forward 7 unknown #
edge $-1 $391 -11.627804468435018 $583 11.627804468435018 $388 $828 forward 7 unknown #
point $-1 79.177220984527111 -32.002172826226953 11.627804468435018 #
point $-1 79.177220984527111 32.002172826226953 11.627804468435018 #
face $-1 $-1 $408 $61 $-1 $829 reversed single #
loop $-1 $-1 $615 $393 #
plane-surface $-1 0 6.0817246344499774 0 0 -1 0 0 0 -1 forward_v I I I I #
coedge $-1 $830 $613 $616 $831 forward $394 $-1 #
coedge $-1 $619 $396 $397 $607 reversed $262 $-1 #
coedge $-1 $613 $830 $396 $605 reversed $394 $-1 #
edge $-1 $620 -2.9925973651161035 $832 2.9925973651161035 $604 $833 forward 7 unknown #
coedge $-1 $398 $397 $830 $834 forward $165 $-1 #
edge $-1 $611 -79.177220984527111 $832 79.177220984527111 $603 $835 forward 7 unknown #
coedge $-1 $616 $615 $398 $609 reversed $600 $-1 #
edge $-1 $836 -79.177220984527111 $610 79.177220984527111 $608 $837 forward 7 unknown #
vertex $-1 $400 $838 #
vertex $-1 $622 $839 #
straight-curve $-1 79.177220984527111 0 -2.9925973651161035 0 -1 0 I I #
coedge $-1 $602 $604 $401 $614 reversed $394 $-1 #
edge $-1 $617 -6.0817246344499774 $620 6.0817246344499774 $613 $840 forward 7 unknown #
coedge $-1 $608 $402 $407 $623 forward $600 $-1 #
coedge $-1 $402 $608 $602 $831 reversed $600 $-1 #
vertex $-1 $403 $841 #
straight-curve $-1 0 6.0817246344499774 2.9925973651161035 -1 0 0 I I #
coedge $-1 $404 $603 $406 $622 reversed $262 $-1 #
vertex $-1 $614 $842 #
straight-curve $-1 0 -6.0817246344499774 2.9925973651161035 1 0 0 I I #
edge $-1 $409 -2.9925973651161035 $611 2.9925973651161035 $406 $843 forward 7 unknown #
edge $-1 $410 -2.9925973651161035 $610 2.9925973651161035 $407 $844 forward 7 unknown #
point $-1 79.177220984527111 -6.0817246344499774 2.9925973651161035 #
point $-1 79.177220984527111 6.0817246344499774 2.9925973651161035 #
face $-1 $-1 $427 $62 $-1 $845 reversed single #
loop $-1 $-1 $642 $412 #
plane-surface $-1 0 3.3065743116366342 0 0 -1 0 0 0 -1 forward_v I I I I #
coedge $-1 $846 $640 $643 $847 forward $413 $-1 #
coedge $-1 $646 $415 $416 $634 reversed $270 $-1 #
coedge $-1 $640 $846 $415 $632 reversed $413 $-1 #
edge $-1 $647 -158.35444196905422 $848 158.35444196905422 $631 $849 forward 7 unknown #
coedge $-1 $417 $416 $846 $850 forward $169 $-1 #
edge $-1 $638 -316.70888393810844 $848 316.70888393810844 $630 $851 forward 7 unknown #
coedge $-1 $643 $642 $417 $636 reversed $627 $-1 #
edge $-1 $852 -316.70888393810844 $637 316.70888393810844 $635 $853 forward 7 unknown #
vertex $-1 $419 $854 #
vertex $-1 $649 $855 #
straight-curve $-1 316.70888393810844 0 -158.35444196905422 0 -1 0 I I #
coedge $-1 $629 $631 $420 $641 reversed $413 $-1 #
edge $-1 $644 -3.3065743116366342 $647 3.3065743116366342 $640 $856 forward 7 unknown #
coedge $-1 $635 $421 $426 $650 forward $627 $-1 #
coedge $-1 $421 $635 $629 $847 reversed $627 $-1 #
vertex $-1 $422 $857 #
straight-curve $-1 0 3.3065743116366342 158.35444196905422 -1 0 0 I I #
coedge $-1 $423 $630 $425 $649 reversed $270 $-1 #
vertex $-1 $641 $858 #
straight-curve $-1 0 -3.3065743116366342 158.35444196905422 1 0 0 I I #
edge $-1 $428 -158.35444196905422 $638 158.35444196905422 $425 $859 forward 7 unknown #
edge $-1 $429 -158.35444196905422 $637 158.35444196905422 $426 $860 forward 7 unknown #
point $-1 316.70888393810844 -3.3065743116366342 158.35444196905422 #
point $-1 316.70888393810844 3.3065743116366342 158.35444196905422 #
coedge $-1 $653 $653 $-1 $861 reversed $431 $-1 #
vertex $-1 $433 $862 #
ellipse-curve $-1 0 0 -0.25 0 0 -1 0.5 0 0 1 I I #
point $-1 0.5 0 -1.25 #
coedge $-1 $657 $657 $-1 $863 reversed $436 $-1 #
vertex $-1 $438 $864 #
ellipse-curve $-1 0 0 -0.25 0 0 -1 0.5 0 0 1 I I #
point $-1 0.5 0 -1.25 #
coedge $-1 $661 $661 $-1 $865 reversed $441 $-1 #
vertex $-1 $443 $866 #
ellipse-curve $-1 0 0 -0.25 0 0 -1 0.5 0 0 1 I I #
point $-1 0.5 0 -1.25 #
face $-1 $-1 $461 $66 $-1 $867 reversed single #
loop $-1 $-1 $681 $446 #
plane-surface $-1 0 3.3065743116366342 0 0 -1 0 0 0 -1 forward_v I I I I #
coedge $-1 $868 $679 $682 $869 forward $447 $-1 #
coedge $-1 $685 $449 $450 $673 reversed $293 $-1 #
coedge $-1 $679 $868 $449 $671 reversed $447 $-1 #
edge $-1 $686 -158.35444196905422 $870 158.35444196905422 $670 $871 forward 7 unknown #
coedge $-1 $451 $450 $868 $872 forward $188 $-1 #
edge $-1 $677 -316.70888393810844 $870 316.70888393810844 $669 $873 forward 7 unknown #
coedge $-1 $682 $681 $451 $675 reversed $666 $-1 #
edge $-1 $874 -316.70888393810844 $676 316.70888393810844 $674 $875 forward 7 unknown #
vertex $-1 $453 $876 #
vertex $-1 $688 $877 #
straight-curve $-1 316.70888393810844 0 -158.35444196905422 0 -1 0 I I #
coedge $-1 $668 $670 $454 $680 reversed $447 $-1 #
edge $-1 $683 -3.3065743116366342 $686 3.3065743116366342 $679 $878 forward 7 unknown #
coedge $-1 $674 $455 $460 $689 forward $666 $-1 #
coedge $-1 $455 $674 $668 $869 reversed $666 $-1 #
vertex $-1 $456 $879 #
straight-curve $-1 0 3.3065743116366342 158.35444196905422 -1 0 0 I I #
coedge $-1 $457 $669 $459 $688 reversed $293 $-1 #
vertex $-1 $680 $880 #
straight-curve $-1 0 -3.3065743116366342 158.35444196905422 1 0 0 I I #
edge $-1 $462 -158.35444196905422 $677 158.35444196905422 $459 $881 forward 7 unknown #
edge $-1 $463 -158.35444196905422 $676 158.35444196905422 $460 $882 forward 7 unknown #
point $-1 316.70888393810844 -3.3065743116366342 158.35444196905422 #
point $-1 316.70888393810844 3.3065743116366342 158.35444196905422 #
coedge $-1 $692 $692 $-1 $883 reversed $465 $-1 #
vertex $-1 $467 $884 #
ellipse-curve $-1 0 0 -0.25 0 0 -1 0.5 0 0 1 I I #
point $-1 0.5 0 -1.25 #
coedge $-1 $696 $696 $-1 $885 reversed $470 $-1 #
vertex $-1 $472 $886 #
ellipse-curve $-1 0 0 -0.25 0 0 -1 0.5 0 0 1 I I #
point $-1 0.5 0 -1.25 #
coedge $-1 $700 $700 $-1 $887 reversed $475 $-1 #
vertex $-1 $477 $888 #
ellipse-curve $-1 0 0 -0.25 0 0 -1 0.5 0 0 1 I I #
point $-1 0.5 0 -1.25 #
face $-1 $-1 $495 $70 $-1 $889 reversed single #
loop $-1 $-1 $720 $480 #
plane-surface $-1 0 3.3065743116366342 0 0 -1 0 0 0 -1 forward_v I I I I #
coedge $-1 $890 $718 $721 $891 forward $481 $-1 #
coedge $-1 $724 $483 $484 $712 reversed $316 $-1 #
coedge $-1 $718 $890 $483 $710 reversed $481 $-1 #
edge $-1 $725 -158.35444196905422 $892 158.35444196905422 $709 $893 forward 7 unknown #
coedge $-1 $485 $484 $890 $894 forward $207 $-1 #
edge $-1 $716 -316.70888393810844 $892 316.70888393810844 $708 $895 forward 7 unknown #
coedge $-1 $721 $720 $485 $714 reversed $705 $-1 #
edge $-1 $896 -316.70888393810844 $715 316.70888393810844 $713 $897 forward 7 unknown #
vertex $-1 $487 $898 #
vertex $-1 $727 $899 #
straight-curve $-1 316.70888393810844 0 -158.35444196905422 0 -1 0 I I #
coedge $-1 $707 $709 $488 $719 reversed $481 $-1 #
edge $-1 $722 -3.3065743116366342 $725 3.3065743116366342 $718 $900 forward 7 unknown #
coedge $-1 $713 $489 $494 $728 forward $705 $-1 #
coedge $-1 $489 $713 $707 $891 reversed $705 $-1 #
vertex $-1 $490 $901 #
straight-curve $-1 0 3.3065743116366342 158.35444196905422 -1 0 0 I I #
coedge $-1 $491 $708 $493 $727 reversed $316 $-1 #
vertex $-1 $719 $902 #
straight-curve $-1 0 -3.3065743116366342 158.35444196905422 1 0 0 I I #
edge $-1 $496 -158.35444196905422 $716 158.35444196905422 $493 $903 forward 7 unknown #
edge $-1 $497 -158.35444196905422 $715 158.35444196905422 $494 $904 forward 7 unknown #
point $-1 316.70888393810844 -3.3065743116366342 158.35444196905422 #
point $-1 316.70888393810844 3.3065743116366342 158.35444196905422 #
coedge $-1 $731 $731 $-1 $905 reversed $499 $-1 #
vertex $-1 $501 $906 #
ellipse-curve $-1 0 0 -0.25 0 0 -1 0.5 0 0 1 I I #
point $-1 0.5 0 -1.25 #
coedge $-1 $735 $735 $-1 $907 reversed $504 $-1 #
vertex $-1 $506 $908 #
ellipse-curve $-1 0 0 -0.25 0 0 -1 0.5 0 0 1 I I #
point $-1 0.5 0 -1.25 #
coedge $-1 $739 $739 $-1 $909 reversed $509 $-1 #
vertex $-1 $511 $910 #
ellipse-curve $-1 0 0 -0.25 0 0 -1 0.5 0 0 1 I I #
point $-1 0.5 0 -1.25 #
face $-1 $-1 $529 $74 $-1 $911 reversed single #
loop $-1 $-1 $759 $514 #
plane-surface $-1 0 3.3065743116366342 0 0 -1 0 0 0 -1 forward_v I I I I #
coedge $-1 $912 $757 $760 $913 forward $515 $-1 #
coedge $-1 $763 $517 $518 $751 reversed $339 $-1 #
coedge $-1 $757 $912 $517 $749 reversed $515 $-1 #
edge $-1 $764 -158.35444196905422 $914 158.35444196905422 $748 $915 forward 7 unknown #
coedge $-1 $519 $518 $912 $916 forward $226 $-1 #
edge $-1 $755 -316.70888393810844 $914 316.70888393810844 $747 $917 forward 7 unknown #
coedge $-1 $760 $759 $519 $753 reversed $744 $-1 #
edge $-1 $918 -316.70888393810844 $754 316.70888393810844 $752 $919 forward 7 unknown #
vertex $-1 $521 $920 #
vertex $-1 $766 $921 #
straight-curve $-1 316.70888393810844 0 -158.35444196905422 0 -1 0 I I #
coedge $-1 $746 $748 $522 $758 reversed $515 $-1 #
edge $-1 $761 -3.3065743116366342 $764 3.3065743116366342 $757 $922 forward 7 unknown #
coedge $-1 $752 $523 $528 $767 forward $744 $-1 #
coedge $-1 $523 $752 $746 $913 reversed $744 $-1 #
vertex $-1 $524 $923 #
straight-curve $-1 0 3.3065743116366342 158.35444196905422 -1 0 0 I I #
coedge $-1 $525 $747 $527 $766 reversed $339 $-1 #
vertex $-1 $758 $924 #
straight-curve $-1 0 -3.3065743116366342 158.35444196905422 1 0 0 I I #
edge $-1 $530 -158.35444196905422 $755 158.35444196905422 $527 $925 forward 7 unknown #
edge $-1 $531 -158.35444196905422 $754 158.35444196905422 $528 $926 forward 7 unknown #
point $-1 316.70888393810844 -3.3065743116366342 158.35444196905422 #
point $-1 316.70888393810844 3.3065743116366342 158.35444196905422 #
coedge $-1 $770 $770 $-1 $927 reversed $533 $-1 #
vertex $-1 $535 $928 #
ellipse-curve $-1 0 0 -0.25 0 0 -1 0.5 0 0 1 I I #
point $-1 0.5 0 -1.25 #
coedge $-1 $774 $774 $-1 $929 reversed $538 $-1 #
vertex $-1 $540 $930 #
ellipse-curve $-1 0 0 -0.25 0 0 -1 0.5 0 0 1 I I #
point $-1 0.5 0 -1.25 #
coedge $-1 $778 $778 $-1 $931 reversed $543 $-1 #
vertex $-1 $545 $932 #
ellipse-curve $-1 0 0 -0.25 0 0 -1 0.5 0 0 1 I I #
point $-1 0.5 0 -1.25 #
face $-1 $-1 $563 $78 $-1 $933 reversed single #
loop $-1 $-1 $798 $548 #
plane-surface $-1 0 4.0182828858402111 0 0 -1 0 0 0 -1 forward_v I I I I #
coedge $-1 $934 $796 $799 $935 forward $549 $-1 #
coedge $-1 $802 $551 $552 $790 reversed $362 $-1 #
coedge $-1 $796 $934 $551 $788 reversed $549 $-1 #
edge $-1 $803 -158.35444196905422 $936 158.35444196905422 $787 $937 forward 7 unknown #
coedge $-1 $553 $552 $934 $938 forward $245 $-1 #
edge $-1 $794 -316.70888393810844 $936 316.70888393810844 $786 $939 forward 7 unknown #
coedge $-1 $799 $798 $553 $792 reversed $783 $-1 #
edge $-1 $940 -316.70888393810844 $793 316.70888393810844 $791 $941 forward 7 unknown #
vertex $-1 $555 $942 #
vertex $-1 $805 $943 #
straight-curve $-1 316.70888393810844 0 -158.35444196905422 0 -1 0 I I #
coedge $-1 $785 $787 $556 $797 reversed $549 $-1 #
edge $-1 $800 -4.0182828858402111 $803 4.0182828858402111 $796 $944 forward 7 unknown #
coedge $-1 $791 $557 $562 $806 forward $783 $-1 #
coedge $-1 $557 $791 $785 $935 reversed $783 $-1 #
vertex $-1 $558 $945 #
straight-curve $-1 0 4.0182828858402111 158.35444196905422 -1 0 0 I I #
coedge $-1 $559 $786 $561 $805 reversed $362 $-1 #
vertex $-1 $797 $946 #
straight-curve $-1 0 -4.0182828858402111 158.35444196905422 1 0 0 I I #
edge $-1 $564 -158.35444196905422 $794 158.35444196905422 $561 $947 forward 7 unknown #
edge $-1 $565 -158.35444196905422 $793 158.35444196905422 $562 $948 forward 7 unknown #
point $-1 316.70888393810844 -4.0182828858402111 158.35444196905422 #
point $-1 316.70888393810844 4.0182828858402111 158.35444196905422 #
coedge $-1 $809 $809 $-1 $949 reversed $567 $-1 #
vertex $-1 $569 $950 #
ellipse-curve $-1 0 0 -0.5 0 0 -1 1 0 0 1 I I #
point $-1 1 0 -3.9475539414654977 #
plane-surface $-1 79.177220984527111 0 0 -1 0 0 0 0 1 forward_v I I I I #
coedge $-1 $577 $575 $579 $818 reversed $375 $-1 #
edge $-1 $590 -11.627804468435018 $820 11.627804468435018 $589 $951 forward 7 unknown #
vertex $-1 $818 $952 #
straight-curve $-1 -79.177220984527111 -32.002172826226953 0 0 0 -1 I I #
edge $-1 $816 -32.002172826226953 $820 32.002172826226953 $814 $953 forward 7 unknown #
straight-curve $-1 0 -32.002172826226953 -11.627804468435018 -1 0 0 I I #
vertex $-1 $582 $954 #
straight-curve $-1 0 32.002172826226953 -11.627804468435018 1 0 0 I I #
point $-1 79.177220984527111 32.002172826226953 -11.627804468435018 #
point $-1 79.177220984527111 -32.002172826226953 -11.627804468435018 #
straight-curve $-1 -79.177220984527111 0 11.627804468435018 0 -1 0 I I #
point $-1 -79.177220984527111 32.002172826226953 11.627804468435018 #
point $-1 -79.177220984527111 -32.002172826226953 11.627804468435018 #
straight-curve $-1 79.177220984527111 -32.002172826226953 0 0 0 -1 I I #
straight-curve $-1 79.177220984527111 32.002172826226953 0 0 0 -1 I I #
plane-surface $-1 79.177220984527111 0 0 -1 0 0 0 0 1 forward_v I I I I #
coedge $-1 $604 $602 $606 $834 reversed $394 $-1 #
edge $-1 $617 -2.9925973651161035 $836 2.9925973651161035 $616 $955 forward 7 unknown #
vertex $-1 $834 $956 #
straight-curve $-1 -79.177220984527111 -6.0817246344499774 0 0 0 -1 I I #
edge $-1 $832 -6.0817246344499774 $836 6.0817246344499774 $830 $957 forward 7 unknown #
straight-curve $-1 0 -6.0817246344499774 -2.9925973651161035 -1 0 0 I I #
vertex $-1 $609 $958 #
straight-curve $-1 0 6.0817246344499774 -2.9925973651161035 1 0 0 I I #
point $-1 79.177220984527111 6.0817246344499774 -2.9925973651161035 #
point $-1 79.177220984527111 -6.0817246344499774 -2.9925973651161035 #
straight-curve $-1 -79.177220984527111 0 2.9925973651161035 0 -1 0 I I #
point $-1 -79.177220984527111 6.0817246344499774 2.9925973651161035 #
point $-1 -79.177220984527111 -6.0817246344499774 2.9925973651161035 #
straight-curve $-1 79.177220984527111 -6.0817246344499774 0 0 0 -1 I I #
straight-curve $-1 79.177220984527111 6.0817246344499774 0 0 0 -1 I I #
plane-surface $-1 316.70888393810844 0 0 -1 0 0 0 0 1 forward_v I I I I #
coedge $-1 $631 $629 $633 $850 reversed $413 $-1 #
edge $-1 $644 -158.35444196905422 $852 158.35444196905422 $643 $959 forward 7 unknown #
vertex $-1 $850 $960 #
straight-curve $-1 -316.70888393810844 -3.3065743116366342 0 0 0 -1 I I #
edge $-1 $848 -3.3065743116366342 $852 3.3065743116366342 $846 $961 forward 7 unknown #
straight-curve $-1 0 -3.3065743116366342 -158.35444196905422 -1 0 0 I I #
vertex $-1 $636 $962 #
straight-curve $-1 0 3.3065743116366342 -158.35444196905422 1 0 0 I I #
point $-1 316.70888393810844 3.3065743116366342 -158.35444196905422 #
point $-1 316.70888393810844 -3.3065743116366342 -158.35444196905422 #
straight-curve $-1 -316.70888393810844 0 158.35444196905422 0 -1 0 I I #
point $-1 -316.70888393810844 3.3065743116366342 158.35444196905422 #
point $-1 -316.70888393810844 -3.3065743116366342 158.35444196905422 #
straight-curve $-1 316.70888393810844 -3.3065743116366342 0 0 0 -1 I I #
straight-curve $-1 316.70888393810844 3.3065743116366342 0 0 0 -1 I I #
edge $-1 $963 1 $963 0 $653 $-1 forward 7 unknown #
point $-1 0.5 0 -0.25 #
edge $-1 $964 1 $964 0 $657 $-1 forward 7 unknown #
point $-1 0.5 0 -0.25 #
edge $-1 $965 1 $965 0 $661 $-1 forward 7 unknown #
point $-1 0.5 0 -0.25 #
plane-surface $-1 316.70888393810844 0 0 -1 0 0 0 0 1 forward_v I I I I #
coedge $-1 $670 $668 $672 $872 reversed $447 $-1 #
edge $-1 $683 -158.35444196905422 $874 158.35444196905422 $682 $966 forward 7 unknown #
vertex $-1 $872 $967 #
straight-curve $-1 -316.70888393810844 -3.3065743116366342 0 0 0 -1 I I #
edge $-1 $870 -3.3065743116366342 $874 3.3065743116366342 $868 $968 forward 7 unknown #
straight-curve $-1 0 -3.3065743116366342 -158.35444196905422 -1 0 0 I I #
vertex $-1 $675 $969 #
straight-curve $-1 0 3.3065743116366342 -158.35444196905422 1 0 0 I I #
point $-1 316.70888393810844 3.3065743116366342 -158.35444196905422 #
point $-1 316.70888393810844 -3.3065743116366342 -158.35444196905422 #
straight-curve $-1 -316.70888393810844 0 158.35444196905422 0 -1 0 I I #
point $-1 -316.70888393810844 3.3065743116366342 158.35444196905422 #
point $-1 -316.70888393810844 -3.3065743116366342 158.35444196905422 #
straight-curve $-1 316.70888393810844 -3.3065743116366342 0 0 0 -1 I I #
straight-curve $-1 316.70888393810844 3.3065743116366342 0 0 0 -1 I I #
edge $-1 $970 1 $970 0 $692 $-1 forward 7 unknown #
point $-1 0.5 0 -0.25 #
edge $-1 $971 1 $971 0 $696 $-1 forward 7 unknown #
point $-1 0.5 0 -0.25 #
edge $-1 $972 1 $972 0 $700 $-1 forward 7 unknown #
point $-1 0.5 0 -0.25 #
plane-surface $-1 316.70888393810844 0 0 -1 0 0 0 0 1 forward_v I I I I #
coedge $-1 $709 $707 $711 $894 reversed $481 $-1 #
edge $-1 $722 -158.35444196905422 $896 158.35444196905422 $721 $973 forward 7 unknown #
vertex $-1 $894 $974 #
straight-curve $-1 -316.70888393810844 -3.3065743116366342 0 0 0 -1 I I #
edge $-1 $892 -3.3065743116366342 $896 3.3065743116366342 $890 $975 forward 7 unknown #
straight-curve $-1 0 -3.3065743116366342 -158.35444196905422 -1 0 0 I I #
vertex $-1 $714 $976 #
straight-curve $-1 0 3.3065743116366342 -158.35444196905422 1 0 0 I I #
point $-1 316.70888393810844 3.3065743116366342 -158.35444196905422 #
point $-1 316.70888393810844 -3.3065743116366342 -158.35444196905422 #
straight-curve $-1 -316.70888393810844 0 158.35444196905422 0 -1 0 I I #
point $-1 -316.70888393810844 3.3065743116366342 158.35444196905422 #
point $-1 -316.70888393810844 -3.3065743116366342 158.35444196905422 #
straight-curve $-1 316.70888393810844 -3.3065743116366342 0 0 0 -1 I I #
straight-curve $-1 316.70888393810844 3.3065743116366342 0 0 0 -1 I I #
edge $-1 $977 1 $977 0 $731 $-1 forward 7 unknown #
point $-1 0.5 0 -0.25 #
edge $-1 $978 1 $978 0 $735 $-1 forward 7 unknown #
point $-1 0.5 0 -0.25 #
edge $-1 $979 1 $979 0 $739 $-1 forward 7 unknown #
point $-1 0.5 0 -0.25 #
plane-surface $-1 316.70888393810844 0 0 -1 0 0 0 0 1 forward_v I I I I #
coedge $-1 $748 $746 $750 $916 reversed $515 $-1 #
edge $-1 $761 -158.35444196905422 $918 158.35444196905422 $760 $980 forward 7 unknown #
vertex $-1 $916 $981 #
straight-curve $-1 -316.70888393810844 -3.3065743116366342 0 0 0 -1 I I #
edge $-1 $914 -3.3065743116366342 $918 3.3065743116366342 $912 $982 forward 7 unknown #
straight-curve $-1 0 -3.3065743116366342 -158.35444196905422 -1 0 0 I I #
vertex $-1 $753 $983 #
straight-curve $-1 0 3.3065743116366342 -158.35444196905422 1 0 0 I I #
point $-1 316.70888393810844 3.3065743116366342 -158.35444196905422 #
point $-1 316.70888393810844 -3.3065743116366342 -158.35444196905422 #
straight-curve $-1 -316.70888393810844 0 158.35444196905422 0 -1 0 I I #
point $-1 -316.70888393810844 3.3065743116366342 158.35444196905422 #
point $-1 -316.70888393810844 -3.3065743116366342 158.35444196905422 #
straight-curve $-1 316.70888393810844 -3.3065743116366342 0 0 0 -1 I I #
straight-curve $-1 316.70888393810844 3.3065743116366342 0 0 0 -1 I I #
edge $-1 $984 1 $984 0 $770 $-1 forward 7 unknown #
point $-1 0.5 0 -0.25 #
edge $-1 $985 1 $985 0 $774 $-1 forward 7 unknown #
point $-1 0.5 0 -0.25 #
edge $-1 $986 1 $986 0 $778 $-1 forward 7 unknown #
point $-1 0.5 0 -0.25 #
plane-surface $-1 316.70888393810844 0 0 -1 0 0 0 0 1 forward_v I I I I #
coedge $-1 $787 $785 $789 $938 reversed $549 $-1 #
edge $-1 $800 -158.35444196905422 $940 158.35444196905422 $799 $987 forward 7 unknown #
vertex $-1 $938 $988 #
straight-curve $-1 -316.70888393810844 -4.0182828858402111 0 0 0 -1 I I #
edge $-1 $936 -4.0182828858402111 $940 4.0182828858402111 $934 $989 forward 7 unknown #
straight-curve $-1 0 -4.0182828858402111 -158.35444196905422 -1 0 0 I I #
vertex $-1 $792 $990 #
straight-curve $-1 0 4.0182828858402111 -158.35444196905422 1 0 0 I I #
point $-1 316.70888393810844 4.0182828858402111 -158.35444196905422 #
point $-1 316.70888393810844 -4.0182828858402111 -158.35444196905422 #
straight-curve $-1 -316.70888393810844 0 158.35444196905422 0 -1 0 I I #
point $-1 -316.70888393810844 4.0182828858402111 158.35444196905422 #
point $-1 -316.70888393810844 -4.0182828858402111 158.35444196905422 #
straight-curve $-1 316.70888393810844 -4.0182828858402111 0 0 0 -1 I I #
straight-curve $-1 316.70888393810844 4.0182828858402111 0 0 0 -1 I I #
edge $-1 $991 1 $991 0 $809 $-1 forward 7 unknown #
point $-1 1 0 -0.5 #
straight-curve $-1 -79.177220984527111 32.002172826226953 0 0 0 -1 I I #
point $-1 -79.177220984527111 -32.002172826226953 -11.627804468435018 #
straight-curve $-1 -79.177220984527111 0 -11.627804468435018 0 1 0 I I #
point $-1 -79.177220984527111 32.002172826226953 -11.627804468435018 #
straight-curve $-1 -79.177220984527111 6.0817246344499774 0 0 0 -1 I I #
point $-1 -79.177220984527111 -6.0817246344499774 -2.9925973651161035 #
straight-curve $-1 -79.177220984527111 0 -2.9925973651161035 0 1 0 I I #
point $-1 -79.177220984527111 6.0817246344499774 -2.9925973651161035 #
straight-curve $-1 -316.70888393810844 3.3065743116366342 0 0 0 -1 I I #
point $-1 -316.70888393810844 -3.3065743116366342 -158.35444196905422 #
straight-curve $-1 -316.70888393810844 0 -158.35444196905422 0 1 0 I I #
point $-1 -316.70888393810844 3.3065743116366342 -158.35444196905422 #
vertex $-1 $861 $992 #
vertex $-1 $863 $993 #
vertex $-1 $865 $994 #
straight-curve $-1 -316.70888393810844 3.3065743116366342 0 0 0 -1 I I #
point $-1 -316.70888393810844 -3.3065743116366342 -158.35444196905422 #
straight-curve $-1 -316.70888393810844 0 -158.35444196905422 0 1 0 I I #
point $-1 -316.70888393810844 3.3065743116366342 -158.35444196905422 #
vertex $-1 $883 $995 #
vertex $-1 $885 $996 #
vertex $-1 $887 $997 #
straight-curve $-1 -316.70888393810844 3.3065743116366342 0 0 0 -1 I I #
point $-1 -316.70888393810844 -3.3065743116366342 -158.35444196905422 #
straight-curve $-1 -316.70888393810844 0 -158.35444196905422 0 1 0 I I #
point $-1 -316.70888393810844 3.3065743116366342 -158.35444196905422 #
vertex $-1 $905 $998 #
vertex $-1 $907 $999 #
vertex $-1 $909 $1000 #
straight-curve $-1 -316.70888393810844 3.3065743116366342 0 0 0 -1 I I #
point $-1 -316.70888393810844 -3.3065743116366342 -158.35444196905422 #
straight-curve $-1 -316.70888393810844 0 -158.35444196905422 0 1 0 I I #
point $-1 -316.70888393810844 3.3065743116366342 -158.35444196905422 #
vertex $-1 $927 $1001 #
vertex $-1 $929 $1002 #
vertex $-1 $931 $1003 #
straight-curve $-1 -316.70888393810844 4.0182828858402111 0 0 0 -1 I I #
point $-1 -316.70888393810844 -4.0182828858402111 -158.35444196905422 #
straight-curve $-1 -316.70888393810844 0 -158.35444196905422 0 1 0 I I #
point $-1 -316.70888393810844 4.0182828858402111 -158.35444196905422 #
vertex $-1 $949 $1004 #
point $-1 0 0 0.25 #
point $-1 0 0 0.25 #
point $-1 0 0 0.25 #
point $-1 0 0 0.25 #
point $-1 0 0 0.25 #
point $-1 0 0 0.25 #
point $-1 0 0 0.25 #
point $-1 0 0 0.25 #
point $-1 0 0 0.25 #
point $-1 0 0 0.25 #
point $-1 0 0 0.25 #
point $-1 0 0 0.25 #
point $-1 0 0 0.5 #
End-of-ACIS-data 