500 0 12 0           
7 Unknown 11 ACIS 5.0 NT 24 Thu Mar 25 15:52:34 1999 
-1 9.9999999999999995e-007 1e-010 
body $-1 $12 $-1 $13 #
body $-1 $14 $-1 $15 #
body $-1 $16 $-1 $17 #
body $-1 $18 $-1 $19 #
body $-1 $20 $-1 $21 #
body $-1 $22 $-1 $23 #
body $-1 $24 $-1 $25 #
body $-1 $26 $-1 $27 #
body $-1 $28 $-1 $29 #
body $-1 $30 $-1 $31 #
body $-1 $32 $-1 $33 #
body $-1 $34 $-1 $35 #
lump $-1 $-1 $36 $0 #
transform $-1 1 0 0 0 1 0 0 0 1 58.594317453535567 29.537315495285192 10.254903059097977 1 rotate no_reflect no_shear #
lump $-1 $-1 $37 $1 #
transform $-1 1 0 0 0 1 0 0 0 1 58.594317453535567 29.537315495285192 10.254903059097977 1 rotate no_reflect no_shear #
lump $-1 $-1 $38 $2 #
transform $-1 1 0 0 0 1 0 0 0 1 58.594317453535567 29.537315495285192 10.254903059097977 1 rotate no_reflect no_shear #
lump $-1 $-1 $39 $3 #
transform $-1 1 0 0 0 1 0 0 0 1 58.594317453535567 29.537315495285192 10.254903059097977 1 rotate no_reflect no_shear #
lump $-1 $-1 $40 $4 #
transform $-1 1 0 0 0 1 0 0 0 1 58.594317453535567 29.537315495285192 10.254903059097977 1 rotate no_reflect no_shear #
lump $-1 $-1 $41 $5 #
transform $-1 1 0 0 0 1 0 0 0 1 58.594317453535567 29.537315495285192 10.254903059097977 1 rotate no_reflect no_shear #
lump $-1 $-1 $42 $6 #
transform $-1 1 0 0 0 1 0 0 0 1 58.594317453535567 29.537315495285192 10.254903059097977 1 rotate no_reflect no_shear #
lump $-1 $-1 $43 $7 #
transform $-1 1 0 0 0 1 0 0 0 1 58.594317453535567 29.537315495285192 10.254903059097977 1 rotate no_reflect no_shear #
lump $-1 $-1 $44 $8 #
transform $-1 1 0 0 0 1 0 0 0 1 58.594317453535567 29.537315495285192 10.254903059097977 1 rotate no_reflect no_shear #
lump $-1 $-1 $45 $9 #
transform $-1 1 0 0 0 1 0 0 0 1 58.594317453535567 29.537315495285192 10.254903059097977 1 rotate no_reflect no_shear #
lump $-1 $-1 $46 $10 #
transform $-1 1 0 0 0 1 0 0 0 1 58.594317453535567 29.537315495285192 10.254903059097977 1 rotate no_reflect no_shear #
lump $-1 $-1 $47 $11 #
transform $-1 1 0 0 0 1 0 0 0 1 58.594317453535567 29.537315495285192 10.254903059097977 1 rotate no_reflect no_shear #
shell $-1 $-1 $-1 $48 $-1 $12 #
shell $-1 $-1 $-1 $49 $-1 $14 #
shell $-1 $-1 $-1 $50 $-1 $16 #
shell $-1 $-1 $-1 $51 $-1 $18 #
shell $-1 $-1 $-1 $52 $-1 $20 #
shell $-1 $-1 $-1 $53 $-1 $22 #
shell $-1 $-1 $-1 $54 $-1 $24 #
shell $-1 $-1 $-1 $55 $-1 $26 #
shell $-1 $-1 $-1 $56 $-1 $28 #
shell $-1 $-1 $-1 $57 $-1 $30 #
shell $-1 $-1 $-1 $58 $-1 $32 #
shell $-1 $-1 $-1 $59 $-1 $34 #
face $-1 $60 $61 $36 $-1 $62 forward single #
face $-1 $63 $64 $37 $-1 $65 reversed single #
face $-1 $66 $67 $38 $-1 $68 reversed single #
face $-1 $69 $70 $39 $-1 $71 reversed single #
face $-1 $72 $73 $40 $-1 $74 forward single #
face $-1 $75 $76 $41 $-1 $77 forward single #
face $-1 $78 $79 $42 $-1 $80 reversed single #
face $-1 $81 $82 $43 $-1 $83 forward single #
face $-1 $84 $85 $44 $-1 $86 forward single #
face $-1 $87 $88 $45 $-1 $89 reversed single #
face $-1 $90 $91 $46 $-1 $92 forward single #
face $-1 $93 $94 $47 $-1 $95 forward single #
face $-1 $96 $97 $36 $-1 $98 reversed single #
loop $-1 $-1 $99 $48 #
plane-surface $-1 0 0 10.254903059097977 0 0 1 1 0 0 forward_v I I I I #
face $-1 $100 $101 $37 $-1 $102 reversed single #
loop $-1 $-1 $103 $49 #
plane-surface $-1 -50.133369574547125 -24.126052239330278 0 1 0 0 0 0 -1 forward_v I I I I #
face $-1 $104 $105 $38 $-1 $106 reversed single #
loop $-1 $-1 $107 $50 #
plane-surface $-1 -47.126188965276981 18.714788983375364 0 0 1 0 0 0 1 forward_v I I I I #
face $-1 $108 $109 $39 $-1 $110 reversed single #
loop $-1 $-1 $111 $51 #
plane-surface $-1 -141.45919683576415 -12.684384739236014 86.47229148997755 0 1 0 -0.70710678939079041 0 0.70710677298230451 forward_v I I I I #
face $-1 $112 $113 $40 $-1 $114 forward single #
loop $-1 $115 $116 $52 #
cone-surface $-1 -54.662625615977667 -9.8879361353510191 6.3232111585197286 0.70710678939079041 0 -0.70710677298230451 0.70710677298230451 0 0.70710678939079041 1 I I 0 1 1 forward I I I I #
face $-1 $117 $118 $41 $-1 $119 forward single #
loop $-1 $120 $121 $53 #
cone-surface $-1 -54.662625615977667 -5.6932632295235308 6.3232111585197286 0.70710678939079041 0 -0.70710677298230451 0.70710677298230451 0 0.70710678939079041 1 I I 0 1 1 forward I I I I #
face $-1 $122 $123 $42 $-1 $124 reversed single #
loop $-1 $-1 $125 $54 #
plane-surface $-1 93.051473799715538 -4.2236590626603725 163.83736646315444 0 -1 0 -0.83867057594974714 0 -0.54463902268945019 forward_v I I I I #
face $-1 $126 $127 $43 $-1 $128 forward single #
loop $-1 $129 $130 $55 #
cone-surface $-1 55.088503109427378 -9.2902121241424354 5.5131232054961394 -0.83867057594974714 0 -0.54463902268945019 0.2723195113447251 0 -0.41933528797487357 1 I I 0 1 0.5 forward I I I I #
face $-1 $131 $132 $44 $-1 $133 forward single #
loop $-1 $134 $135 $56 #
cone-surface $-1 55.088503109427378 -6.2502802872531973 5.5131232054961394 -0.83867057594974714 0 -0.54463902268945019 0.2723195113447251 0 -0.41933528797487357 1 I I 0 1 0.5 forward I I I I #
face $-1 $136 $137 $45 $-1 $138 reversed single #
loop $-1 $-1 $139 $57 #
plane-surface $-1 93.051473799715538 14.491129920714991 163.83736646315444 0 -1 0 -0.83867057594974714 0 -0.54463902268945019 forward_v I I I I #
face $-1 $140 $141 $46 $-1 $142 forward single #
loop $-1 $143 $144 $58 #
cone-surface $-1 55.088503109427378 9.4245768592329284 5.5131232054961394 -0.83867057594974714 0 -0.54463902268945019 0.2723195113447251 0 -0.41933528797487357 1 I I 0 1 0.5 forward I I I I #
face $-1 $145 $146 $47 $-1 $147 forward single #
loop $-1 $148 $149 $59 #
cone-surface $-1 55.088503109427378 12.464508696122166 5.5131232054961394 -0.83867057594974714 0 -0.54463902268945019 0.2723195113447251 0 -0.41933528797487357 1 I I 0 1 0.5 forward I I I I #
face $-1 $150 $151 $36 $-1 $152 reversed single #
loop $-1 $-1 $153 $60 #
plane-surface $-1 0 0 -10.254903059097977 0 0 1 1 0 0 forward_v I I I I #
coedge $-1 $154 $155 $156 $157 forward $61 $-1 #
face $-1 $158 $159 $37 $-1 $160 reversed single #
loop $-1 $-1 $161 $63 #
plane-surface $-1 -47.126188965276981 -18.714788983375364 0 0 -1 0 0 0 -1 forward_v I I I I #
coedge $-1 $162 $163 $164 $165 forward $64 $-1 #
face $-1 $166 $167 $38 $-1 $168 reversed single #
loop $-1 $-1 $169 $66 #
plane-surface $-1 -50.133369574547125 24.126052239330278 0 1 0 0 0 0 -1 forward_v I I I I #
coedge $-1 $170 $171 $172 $173 forward $67 $-1 #
face $-1 $174 $175 $39 $-1 $176 reversed single #
loop $-1 $-1 $177 $69 #
plane-surface $-1 -58.594317453535567 -7.790599682437275 3.607414030637031 -0.70710678939079041 0 0.70710677298230451 0.70710677298230451 0 0.70710678939079041 forward_v I I I I #
coedge $-1 $178 $179 $180 $181 reversed $70 $-1 #
face $-1 $-1 $182 $40 $-1 $183 forward single #
loop $-1 $184 $185 $72 #
cone-surface $-1 -53.701124820827019 -9.8879361353510191 5.3617103856808033 0.70710678939079041 0 -0.70710677298230451 0.35355338649115226 0 0.35355339469539521 1 I I -0.70710678118654746 0.70710678118654746 0.5 forward I I I I #
loop $-1 $-1 $186 $52 #
coedge $-1 $116 $116 $187 $188 reversed $73 $-1 #
face $-1 $-1 $189 $41 $-1 $190 forward single #
loop $-1 $191 $192 $75 #
cone-surface $-1 -53.701124820827019 -5.6932632295235308 5.3617103856808033 0.70710678939079041 0 -0.70710677298230451 0.35355338649115226 0 0.35355339469539521 1 I I -0.70710678118654746 0.70710678118654746 0.5 forward I I I I #
loop $-1 $-1 $193 $53 #
coedge $-1 $121 $121 $194 $195 reversed $76 $-1 #
face $-1 $196 $197 $42 $-1 $198 reversed single #
loop $-1 $-1 $199 $78 #
plane-surface $-1 -5.2311861325624562 -7.7702462056978163 100.01186287705643 0.83867057594974714 0 0.54463902268945019 0.54463902268945019 0 -0.83867057594974714 forward_v I I I I #
coedge $-1 $200 $201 $202 $203 reversed $79 $-1 #
face $-1 $-1 $204 $43 $-1 $205 forward single #
loop $-1 $206 $207 $81 #
cone-surface $-1 54.141348228043412 -9.2902121241424354 4.8980336533816811 -0.83867057594974714 0 -0.54463902268945019 0.13615975567236255 0 -0.20966764398743679 1 I I -0.70710678118654746 0.70710678118654746 0.25 forward I I I I #
loop $-1 $-1 $208 $55 #
coedge $-1 $130 $130 $209 $210 reversed $82 $-1 #
face $-1 $-1 $211 $44 $-1 $212 forward single #
loop $-1 $213 $214 $84 #
cone-surface $-1 54.141348228043412 -6.2502802872531973 4.8980336533816811 -0.83867057594974714 0 -0.54463902268945019 0.13615975567236255 0 -0.20966764398743679 1 I I -0.70710678118654746 0.70710678118654746 0.25 forward I I I I #
loop $-1 $-1 $215 $56 #
coedge $-1 $135 $135 $216 $217 reversed $85 $-1 #
face $-1 $218 $219 $45 $-1 $220 reversed single #
loop $-1 $-1 $221 $87 #
plane-surface $-1 -5.2311861325624562 10.944542777677547 100.01186287705643 0.83867057594974714 0 0.54463902268945019 0.54463902268945019 0 -0.83867057594974714 forward_v I I I I #
coedge $-1 $222 $223 $224 $225 reversed $88 $-1 #
face $-1 $-1 $226 $46 $-1 $227 forward single #
loop $-1 $228 $229 $90 #
cone-surface $-1 54.141348228043412 9.4245768592329284 4.8980336533816811 -0.83867057594974714 0 -0.54463902268945019 0.13615975567236255 0 -0.20966764398743679 1 I I -0.70710678118654746 0.70710678118654746 0.25 forward I I I I #
loop $-1 $-1 $230 $58 #
coedge $-1 $144 $144 $231 $232 reversed $91 $-1 #
face $-1 $-1 $233 $47 $-1 $234 forward single #
loop $-1 $235 $236 $93 #
cone-surface $-1 54.141348228043412 12.464508696122166 4.8980336533816811 -0.83867057594974714 0 -0.54463902268945019 0.13615975567236255 0 -0.20966764398743679 1 I I -0.70710678118654746 0.70710678118654746 0.25 forward I I I I #
loop $-1 $-1 $237 $59 #
coedge $-1 $149 $149 $238 $239 reversed $94 $-1 #
face $-1 $240 $241 $36 $-1 $242 reversed single #
loop $-1 $-1 $243 $96 #
plane-surface $-1 0 -29.537315495285192 0 0 1 0 0 0 1 forward_v I I I I #
coedge $-1 $244 $245 $246 $247 forward $97 $-1 #
coedge $-1 $248 $99 $249 $250 forward $61 $-1 #
coedge $-1 $99 $248 $251 $252 forward $61 $-1 #
coedge $-1 $253 $254 $99 $157 reversed $255 $-1 #
edge $-1 $256 -29.537315495285192 $257 29.537315495285192 $156 $258 forward 7 unknown #
face $-1 $259 $260 $37 $-1 $261 forward single #
loop $-1 $-1 $262 $100 #
plane-surface $-1 -44.119008356006837 -24.126052239330278 0 -1 0 0 0 0 1 forward_v I I I I #
coedge $-1 $263 $264 $265 $266 forward $101 $-1 #
coedge $-1 $267 $103 $268 $269 reversed $64 $-1 #
coedge $-1 $103 $267 $270 $271 reversed $64 $-1 #
coedge $-1 $264 $263 $103 $165 reversed $101 $-1 #
edge $-1 $272 -10.254903059097977 $273 10.254903059097977 $164 $274 forward 7 unknown #
face $-1 $275 $276 $38 $-1 $277 reversed single #
loop $-1 $-1 $278 $104 #
plane-surface $-1 -44.119008356006837 24.126052239330278 0 -1 0 0 0 0 1 forward_v I I I I #
coedge $-1 $279 $280 $281 $282 reversed $105 $-1 #
coedge $-1 $283 $107 $284 $285 reversed $67 $-1 #
coedge $-1 $107 $283 $286 $287 reversed $67 $-1 #
coedge $-1 $280 $279 $107 $173 reversed $105 $-1 #
edge $-1 $288 -10.254903059097977 $289 10.254903059097977 $172 $290 forward 7 unknown #
face $-1 $291 $292 $39 $-1 $293 reversed single #
loop $-1 $-1 $294 $108 #
plane-surface $-1 -141.45919683576415 -2.8968146256385356 86.47229148997755 0 -1 0 0.70710678939079041 0 -0.70710677298230451 forward_v I I I I #
coedge $-1 $295 $296 $297 $298 reversed $109 $-1 #
coedge $-1 $179 $111 $299 $300 reversed $70 $-1 #
coedge $-1 $111 $178 $295 $301 reversed $70 $-1 #
coedge $-1 $297 $302 $111 $181 forward $303 $-1 #
edge $-1 $304 12.135280964346506 $305 18.782769838551786 $180 $306 forward 7 unknown #
loop $-1 $-1 $187 $112 #
plane-surface $-1 -58.594317453535567 -7.790599682437275 3.607414030637031 -0.70710678939079041 0 0.70710677298230451 0.70710677298230451 0 0.70710678939079041 forward_v I I I I #
loop $-1 $-1 $307 $72 #
coedge $-1 $185 $185 $186 $308 reversed $113 $-1 #
coedge $-1 $186 $186 $185 $308 forward $115 $-1 #
coedge $-1 $187 $187 $116 $188 forward $182 $-1 #
edge $-1 $309 0 $309 6.2831853071796004 $187 $310 forward 7 unknown #
loop $-1 $-1 $194 $117 #
plane-surface $-1 -58.594317453535567 -7.790599682437275 3.607414030637031 -0.70710678939079041 0 0.70710677298230451 0.70710677298230451 0 0.70710678939079041 forward_v I I I I #
loop $-1 $-1 $311 $75 #
coedge $-1 $192 $192 $193 $312 reversed $118 $-1 #
coedge $-1 $193 $193 $192 $312 forward $120 $-1 #
coedge $-1 $194 $194 $121 $195 forward $189 $-1 #
edge $-1 $313 0 $313 6.2831853071796004 $194 $314 forward 7 unknown #
face $-1 $315 $316 $42 $-1 $317 forward single #
loop $-1 $-1 $318 $122 #
plane-surface $-1 93.051473799715538 -11.31683334873526 163.83736646315444 0 1 0 0.83867057594974714 0 0.54463902268945019 forward_v I I I I #
coedge $-1 $319 $320 $321 $322 reversed $123 $-1 #
coedge $-1 $201 $125 $323 $324 reversed $79 $-1 #
coedge $-1 $125 $200 $319 $325 reversed $79 $-1 #
coedge $-1 $321 $326 $125 $203 forward $316 $-1 #
edge $-1 $327 -12.068580553677798 $328 -6.5319263402544721 $202 $329 forward 7 unknown #
loop $-1 $-1 $209 $126 #
plane-surface $-1 -5.2311861325624562 -7.7702462056978163 100.01186287705643 0.83867057594974714 0 0.54463902268945019 0.54463902268945019 0 -0.83867057594974714 forward_v I I I I #
loop $-1 $-1 $330 $81 #
coedge $-1 $207 $207 $208 $331 reversed $127 $-1 #
coedge $-1 $208 $208 $207 $331 forward $129 $-1 #
coedge $-1 $209 $209 $130 $210 forward $204 $-1 #
edge $-1 $332 0 $332 6.2831853071796004 $209 $333 forward 7 unknown #
loop $-1 $-1 $216 $131 #
plane-surface $-1 -5.2311861325624562 -7.7702462056978163 100.01186287705643 0.83867057594974714 0 0.54463902268945019 0.54463902268945019 0 -0.83867057594974714 forward_v I I I I #
loop $-1 $-1 $334 $84 #
coedge $-1 $214 $214 $215 $335 reversed $132 $-1 #
coedge $-1 $215 $215 $214 $335 forward $134 $-1 #
coedge $-1 $216 $216 $135 $217 forward $211 $-1 #
edge $-1 $336 0 $336 6.2831853071796004 $216 $337 forward 7 unknown #
face $-1 $338 $339 $45 $-1 $340 reversed single #
loop $-1 $-1 $341 $136 #
plane-surface $-1 93.051473799715538 7.3979556346401036 163.83736646315444 0 1 0 0.83867057594974714 0 0.54463902268945019 forward_v I I I I #
coedge $-1 $342 $343 $344 $345 reversed $137 $-1 #
coedge $-1 $223 $139 $346 $347 reversed $88 $-1 #
coedge $-1 $139 $222 $342 $348 reversed $88 $-1 #
coedge $-1 $344 $349 $139 $225 forward $350 $-1 #
edge $-1 $351 -12.068580553677798 $352 -6.5319263402544721 $224 $353 forward 7 unknown #
loop $-1 $-1 $231 $140 #
plane-surface $-1 -5.2311861325624562 10.944542777677547 100.01186287705643 0.83867057594974714 0 0.54463902268945019 0.54463902268945019 0 -0.83867057594974714 forward_v I I I I #
loop $-1 $-1 $354 $90 #
coedge $-1 $229 $229 $230 $355 reversed $141 $-1 #
coedge $-1 $230 $230 $229 $355 forward $143 $-1 #
coedge $-1 $231 $231 $144 $232 forward $226 $-1 #
edge $-1 $356 0 $356 6.2831853071796004 $231 $357 forward 7 unknown #
loop $-1 $-1 $238 $145 #
plane-surface $-1 -5.2311861325624562 10.944542777677547 100.01186287705643 0.83867057594974714 0 0.54463902268945019 0.54463902268945019 0 -0.83867057594974714 forward_v I I I I #
loop $-1 $-1 $358 $93 #
coedge $-1 $236 $236 $237 $359 reversed $146 $-1 #
coedge $-1 $237 $237 $236 $359 forward $148 $-1 #
coedge $-1 $238 $238 $149 $239 forward $233 $-1 #
edge $-1 $360 0 $360 6.2831853071796004 $238 $361 forward 7 unknown #
face $-1 $362 $363 $36 $-1 $364 reversed single #
loop $-1 $-1 $365 $150 #
plane-surface $-1 -58.594317453535567 0 0 1 0 0 0 0 -1 forward_v I I I I #
coedge $-1 $366 $251 $367 $368 forward $151 $-1 #
coedge $-1 $369 $153 $366 $370 forward $97 $-1 #
coedge $-1 $153 $369 $371 $372 forward $97 $-1 #
coedge $-1 $254 $253 $153 $247 reversed $255 $-1 #
edge $-1 $373 -29.537315495285192 $374 29.537315495285192 $246 $375 forward 7 unknown #
coedge $-1 $155 $154 $376 $377 forward $61 $-1 #
coedge $-1 $378 $379 $154 $250 reversed $363 $-1 #
edge $-1 $257 -58.594317453535567 $380 58.594317453535567 $249 $381 forward 7 unknown #
coedge $-1 $243 $382 $155 $252 reversed $151 $-1 #
edge $-1 $383 -58.594317453535567 $256 58.594317453535567 $251 $384 forward 7 unknown #
coedge $-1 $246 $156 $382 $385 forward $255 $-1 #
coedge $-1 $156 $246 $378 $386 reversed $255 $-1 #
loop $-1 $-1 $253 $362 #
vertex $-1 $157 $387 #
vertex $-1 $157 $388 #
straight-curve $-1 58.594317453535567 0 10.254903059097977 0 1 0 I I #
face $-1 $389 $390 $37 $-1 $391 reversed single #
loop $-1 $-1 $392 $158 #
plane-surface $-1 0 0 10.254903059097977 0 0 1 1 0 0 forward_v I I I I #
coedge $-1 $393 $394 $395 $396 reversed $159 $-1 #
coedge $-1 $164 $161 $397 $398 reversed $101 $-1 #
coedge $-1 $161 $164 $399 $400 reversed $101 $-1 #
coedge $-1 $394 $393 $161 $266 reversed $159 $-1 #
edge $-1 $401 -10.254903059097977 $402 10.254903059097977 $265 $403 forward 7 unknown #
coedge $-1 $163 $162 $404 $405 reversed $64 $-1 #
coedge $-1 $397 $406 $162 $269 forward $390 $-1 #
edge $-1 $407 -17.474289375620053 $273 -6.6517628637102248 $268 $408 forward 7 unknown #
coedge $-1 $409 $399 $163 $271 forward $260 $-1 #
edge $-1 $272 6.6517628637102248 $410 17.474289375620053 $270 $411 forward 7 unknown #
vertex $-1 $271 $412 #
vertex $-1 $269 $413 #
straight-curve $-1 -50.133369574547125 -18.714788983375364 0 0 0 -1 I I #
face $-1 $414 $415 $38 $-1 $416 forward single #
loop $-1 $-1 $417 $166 #
plane-surface $-1 0 0 -10.254903059097977 0 0 1 1 0 0 forward_v I I I I #
coedge $-1 $418 $419 $283 $420 forward $167 $-1 #
coedge $-1 $172 $169 $421 $422 reversed $105 $-1 #
coedge $-1 $169 $172 $423 $424 reversed $105 $-1 #
coedge $-1 $425 $426 $169 $282 forward $427 $-1 #
edge $-1 $428 -10.254903059097977 $429 10.254903059097977 $281 $430 forward 7 unknown #
coedge $-1 $171 $170 $278 $420 reversed $67 $-1 #
coedge $-1 $421 $417 $170 $285 forward $276 $-1 #
edge $-1 $431 20.555913873368347 $289 26.570275091908634 $284 $432 forward 7 unknown #
coedge $-1 $433 $423 $171 $287 forward $415 $-1 #
edge $-1 $288 -26.570275091908634 $434 -20.555913873368347 $286 $435 forward 7 unknown #
vertex $-1 $287 $436 #
vertex $-1 $285 $437 #
straight-curve $-1 -50.133369574547125 18.714788983375364 0 0 0 -1 I I #
face $-1 $-1 $303 $39 $-1 $438 forward single #
loop $-1 $-1 $439 $174 #
plane-surface $-1 -58.594317453535567 0 0 1 0 0 0 0 -1 forward_v I I I I #
coedge $-1 $440 $441 $442 $443 reversed $175 $-1 #
coedge $-1 $444 $177 $179 $301 forward $109 $-1 #
coedge $-1 $177 $444 $440 $445 forward $109 $-1 #
coedge $-1 $442 $180 $177 $298 forward $303 $-1 #
edge $-1 $305 -8.7890848980173768 $446 0.99848521558010184 $297 $447 forward 7 unknown #
coedge $-1 $448 $449 $178 $300 forward $292 $-1 #
edge $-1 $450 -39.628731714351744 $304 -32.981242685890798 $299 $451 forward 7 unknown #
edge $-1 $305 -9.4009690307005958 $450 0 $179 $452 forward 7 unknown #
coedge $-1 $180 $442 $448 $453 forward $303 $-1 #
loop $-1 $-1 $442 $291 #
vertex $-1 $300 $454 #
vertex $-1 $181 $455 #
straight-curve $-1 -70.729598417882073 -12.684384739236014 10.254903059097977 1 0 0 I I #
coedge $-1 $307 $307 $-1 $456 reversed $184 $-1 #
edge $-1 $457 0 $457 6.2831853071796004 $185 $458 forward 7 unknown #
vertex $-1 $188 $459 #
ellipse-curve $-1 -55.270573016432927 -9.8879361353510191 6.9311585448675057 -0.70710678939079041 0 0.70710677298230451 0.70710677298230451 0 0.70710678939079041 1 I I #
coedge $-1 $311 $311 $-1 $460 reversed $191 $-1 #
edge $-1 $461 0 $461 6.2831853071796004 $192 $462 forward 7 unknown #
vertex $-1 $195 $463 #
ellipse-curve $-1 -55.270573016432927 -5.6932632295235308 6.9311585448675057 -0.70710678939079041 0 0.70710677298230451 0.70710677298230451 0 0.70710678939079041 1 I I #
face $-1 $-1 $464 $42 $-1 $465 reversed single #
loop $-1 $-1 $202 $196 #
plane-surface $-1 0 0 10.254903059097977 0 0 1 1 0 0 forward_v I I I I #
coedge $-1 $466 $467 $468 $469 reversed $197 $-1 #
coedge $-1 $470 $199 $201 $325 forward $123 $-1 #
coedge $-1 $199 $470 $466 $471 forward $123 $-1 #
coedge $-1 $468 $202 $199 $322 forward $316 $-1 #
edge $-1 $328 0.33853595981146434 $472 7.431710245886352 $321 $473 forward 7 unknown #
coedge $-1 $474 $475 $200 $324 forward $464 $-1 #
edge $-1 $476 -80.189480286798798 $327 -71.66378017247925 $323 $477 forward 7 unknown #
edge $-1 $328 107.02290314205166 $476 117.18863490707116 $201 $478 forward 7 unknown #
coedge $-1 $202 $468 $474 $479 forward $316 $-1 #
vertex $-1 $203 $480 #
vertex $-1 $203 $481 #
straight-curve $-1 46.525736899857769 -4.2236590626603725 10.254903059097984 -1 0 0 I I #
coedge $-1 $330 $330 $-1 $482 reversed $206 $-1 #
edge $-1 $483 0 $483 6.2831853071796004 $207 $484 forward 7 unknown #
vertex $-1 $210 $485 #
ellipse-curve $-1 55.825990346823886 -9.2902121241424354 5.9920530019382214 0.83867057594974714 0 0.54463902268945019 0.2723195113447251 0 -0.41933528797487357 1 I I #
coedge $-1 $334 $334 $-1 $486 reversed $213 $-1 #
edge $-1 $487 0 $487 6.2831853071796004 $214 $488 forward 7 unknown #
vertex $-1 $217 $489 #
ellipse-curve $-1 55.825990346823886 -6.2502802872531973 5.9920530019382214 0.83867057594974714 0 0.54463902268945019 0.2723195113447251 0 -0.41933528797487357 1 I I #
face $-1 $-1 $350 $45 $-1 $490 forward single #
loop $-1 $-1 $491 $218 #
plane-surface $-1 58.594317453535567 0 0 -1 0 0 0 0 1 forward_v I I I I #
coedge $-1 $492 $493 $494 $495 reversed $219 $-1 #
coedge $-1 $496 $221 $223 $348 forward $137 $-1 #
coedge $-1 $221 $496 $492 $497 forward $137 $-1 #
coedge $-1 $494 $224 $221 $345 forward $350 $-1 #
edge $-1 $352 -9.0188585318762176 $498 -1.9256842458013299 $344 $499 forward 7 unknown #
coedge $-1 $500 $501 $222 $347 forward $339 $-1 #
edge $-1 $502 -80.189480286798798 $351 -71.66378017247925 $346 $503 forward 7 unknown #
edge $-1 $352 107.02290314205166 $502 117.18863490707116 $223 $504 forward 7 unknown #
coedge $-1 $224 $494 $500 $505 forward $350 $-1 #
loop $-1 $-1 $494 $338 #
vertex $-1 $347 $506 #
vertex $-1 $225 $507 #
straight-curve $-1 46.525736899857769 14.491129920714991 10.254903059097984 -1 0 0 I I #
coedge $-1 $354 $354 $-1 $508 reversed $228 $-1 #
edge $-1 $509 0 $509 6.2831853071796004 $229 $510 forward 7 unknown #
vertex $-1 $232 $511 #
ellipse-curve $-1 55.825990346823886 9.4245768592329284 5.9920530019382214 0.83867057594974714 0 0.54463902268945019 0.2723195113447251 0 -0.41933528797487357 1 I I #
coedge $-1 $358 $358 $-1 $512 reversed $235 $-1 #
edge $-1 $513 0 $513 6.2831853071796004 $236 $514 forward 7 unknown #
vertex $-1 $239 $515 #
ellipse-curve $-1 55.825990346823886 12.464508696122166 5.9920530019382214 0.83867057594974714 0 0.54463902268945019 0.2723195113447251 0 -0.41933528797487357 1 I I #
face $-1 $-1 $255 $36 $-1 $516 reversed single #
loop $-1 $-1 $378 $240 #
plane-surface $-1 0 29.537315495285192 0 0 -1 0 0 0 -1 forward_v I I I I #
coedge $-1 $517 $376 $379 $518 forward $241 $-1 #
coedge $-1 $382 $243 $244 $370 reversed $151 $-1 #
coedge $-1 $376 $517 $243 $368 reversed $241 $-1 #
edge $-1 $383 -10.254903059097977 $519 10.254903059097977 $367 $520 forward 7 unknown #
coedge $-1 $245 $244 $517 $521 forward $97 $-1 #
edge $-1 $374 -58.594317453535567 $519 58.594317453535567 $366 $522 forward 7 unknown #
coedge $-1 $379 $378 $245 $372 reversed $363 $-1 #
edge $-1 $523 -58.594317453535567 $373 58.594317453535567 $371 $524 forward 7 unknown #
vertex $-1 $247 $525 #
vertex $-1 $385 $526 #
straight-curve $-1 58.594317453535567 0 -10.254903059097977 0 -1 0 I I #
coedge $-1 $365 $367 $248 $377 reversed $241 $-1 #
edge $-1 $380 -29.537315495285192 $383 29.537315495285192 $376 $527 forward 7 unknown #
coedge $-1 $371 $249 $254 $386 forward $363 $-1 #
coedge $-1 $249 $371 $365 $518 reversed $363 $-1 #
vertex $-1 $250 $528 #
straight-curve $-1 0 29.537315495285192 10.254903059097977 -1 0 0 I I #
coedge $-1 $251 $366 $253 $385 reversed $151 $-1 #
vertex $-1 $377 $529 #
straight-curve $-1 0 -29.537315495285192 10.254903059097977 1 0 0 I I #
edge $-1 $256 -10.254903059097977 $374 10.254903059097977 $253 $530 forward 7 unknown #
edge $-1 $257 -10.254903059097977 $373 10.254903059097977 $254 $531 forward 7 unknown #
point $-1 58.594317453535567 -29.537315495285192 10.254903059097977 #
point $-1 58.594317453535567 29.537315495285192 10.254903059097977 #
face $-1 $-1 $532 $37 $-1 $533 reversed single #
loop $-1 $-1 $534 $259 #
plane-surface $-1 0 0 -10.254903059097977 0 0 1 1 0 0 forward_v I I I I #
coedge $-1 $399 $409 $394 $535 forward $260 $-1 #
coedge $-1 $265 $262 $534 $536 reversed $159 $-1 #
coedge $-1 $262 $265 $392 $535 reversed $159 $-1 #
coedge $-1 $537 $538 $262 $396 forward $532 $-1 #
edge $-1 $539 -10.254903059097977 $540 10.254903059097977 $395 $541 forward 7 unknown #
coedge $-1 $534 $268 $263 $398 forward $390 $-1 #
edge $-1 $273 -26.570275091908634 $402 -20.555913873368347 $397 $542 forward 7 unknown #
coedge $-1 $270 $392 $264 $400 forward $260 $-1 #
edge $-1 $401 20.555913873368347 $272 26.570275091908634 $399 $543 forward 7 unknown #
vertex $-1 $400 $544 #
vertex $-1 $398 $545 #
straight-curve $-1 -44.119008356006837 -18.714788983375364 0 0 0 -1 I I #
coedge $-1 $538 $537 $267 $405 forward $532 $-1 #
edge $-1 $410 -10.254903059097977 $407 10.254903059097977 $404 $546 forward 7 unknown #
coedge $-1 $268 $534 $538 $547 forward $390 $-1 #
vertex $-1 $269 $548 #
straight-curve $-1 -50.133369574547125 -12.063026119665139 -10.254903059097977 0 1 0 I I #
coedge $-1 $392 $270 $537 $549 forward $260 $-1 #
vertex $-1 $549 $550 #
straight-curve $-1 -50.133369574547125 -12.063026119665139 10.254903059097977 0 -1 0 I I #
point $-1 -50.133369574547125 -18.714788983375364 10.254903059097977 #
point $-1 -50.133369574547125 -18.714788983375364 -10.254903059097977 #
face $-1 $-1 $427 $38 $-1 $551 reversed single #
loop $-1 $-1 $433 $275 #
plane-surface $-1 0 0 10.254903059097977 0 0 1 1 0 0 forward_v I I I I #
coedge $-1 $284 $552 $418 $553 forward $276 $-1 #
coedge $-1 $554 $278 $417 $553 reversed $167 $-1 #
coedge $-1 $278 $554 $433 $555 reversed $167 $-1 #
edge $-1 $434 -10.254903059097977 $431 10.254903059097977 $278 $556 forward 7 unknown #
coedge $-1 $552 $284 $279 $422 forward $276 $-1 #
edge $-1 $289 6.6517628637102248 $428 17.474289375620053 $421 $557 forward 7 unknown #
coedge $-1 $286 $558 $280 $424 forward $415 $-1 #
edge $-1 $429 -17.474289375620053 $288 -6.6517628637102248 $423 $559 forward 7 unknown #
coedge $-1 $560 $281 $558 $561 reversed $427 $-1 #
coedge $-1 $281 $560 $552 $562 reversed $427 $-1 #
loop $-1 $-1 $560 $414 #
vertex $-1 $562 $563 #
vertex $-1 $282 $564 #
straight-curve $-1 -50.133369574547125 29.537315495285192 0 0 0 1 I I #
vertex $-1 $285 $565 #
straight-curve $-1 -23.56309448263849 18.714788983375364 -10.254903059097977 -1 0 0 I I #
coedge $-1 $558 $286 $419 $555 forward $415 $-1 #
vertex $-1 $287 $566 #
straight-curve $-1 -23.56309448263849 18.714788983375364 10.254903059097977 1 0 0 I I #
point $-1 -50.133369574547125 18.714788983375364 10.254903059097977 #
point $-1 -50.133369574547125 18.714788983375364 -10.254903059097977 #
plane-surface $-1 0 0 10.254903059097977 0 0 1 1 0 0 forward_v I I I I #
coedge $-1 $449 $448 $441 $567 forward $292 $-1 #
coedge $-1 $441 $294 $296 $445 reversed $175 $-1 #
coedge $-1 $294 $440 $439 $567 reversed $175 $-1 #
coedge $-1 $302 $297 $294 $443 forward $303 $-1 #
edge $-1 $446 -18.782769838551786 $568 -12.135280964346506 $442 $569 forward 7 unknown #
coedge $-1 $296 $295 $449 $570 reversed $109 $-1 #
edge $-1 $571 0 $446 9.4009690307005958 $440 $572 forward 7 unknown #
vertex $-1 $298 $573 #
straight-curve $-1 -51.946828579330287 -3.8952998412186375 10.254903059097977 0 1 0 I I #
coedge $-1 $439 $299 $302 $453 reversed $292 $-1 #
coedge $-1 $299 $439 $444 $570 forward $292 $-1 #
vertex $-1 $300 $574 #
straight-curve $-1 -58.594317453535567 -12.684384739236014 43.236145744988775 0 0 1 I I #
straight-curve $-1 -58.594317453535567 -12.684384739236014 3.607414030637031 -0.70710677298230451 0 -0.70710678939079041 I I #
edge $-1 $568 2.8968146256385356 $304 12.684384739236014 $448 $575 forward 7 unknown #
point $-1 -58.594317453535567 -12.684384739236014 10.254903059097977 #
point $-1 -51.946828579330287 -12.684384739236014 10.254903059097977 #
edge $-1 $576 1 $576 0 $307 $-1 forward 7 unknown #
vertex $-1 $308 $577 #
ellipse-curve $-1 -54.054678215522415 -9.8879361353510191 5.7152637721719559 -0.70710678939079041 0 0.70710677298230451 0.70710677298230451 0 0.70710678939079041 1 I I #
point $-1 -54.56346624345062 -9.8879361353510191 7.6382653342582927 #
edge $-1 $578 1 $578 0 $311 $-1 forward 7 unknown #
vertex $-1 $312 $579 #
ellipse-curve $-1 -54.054678215522415 -5.6932632295235308 5.7152637721719559 -0.70710678939079041 0 0.70710677298230451 0.70710677298230451 0 0.70710678939079041 1 I I #
point $-1 -54.56346624345062 -5.6932632295235308 7.6382653342582927 #
loop $-1 $-1 $323 $315 #
plane-surface $-1 58.594317453535567 0 0 -1 0 0 0 0 1 forward_v I I I I #
coedge $-1 $467 $318 $320 $471 reversed $197 $-1 #
coedge $-1 $318 $466 $580 $581 reversed $197 $-1 #
coedge $-1 $326 $321 $318 $469 forward $316 $-1 #
edge $-1 $472 6.5319263402544721 $582 12.068580553677798 $468 $583 forward 7 unknown #
coedge $-1 $320 $319 $475 $584 reversed $123 $-1 #
edge $-1 $585 -117.18863490707116 $472 -107.02290314205166 $466 $586 forward 7 unknown #
vertex $-1 $322 $587 #
straight-curve $-1 53.057663240112234 -3.8851231028489082 10.254903059097977 0 -1 0 I I #
coedge $-1 $580 $323 $326 $479 reversed $464 $-1 #
coedge $-1 $323 $580 $470 $584 forward $464 $-1 #
vertex $-1 $324 $588 #
straight-curve $-1 58.594317453535567 -4.2236590626603725 81.918683231577219 0 0 1 I I #
straight-curve $-1 -5.2311861325624562 -4.2236590626603725 100.01186287705643 0.54463902268945019 0 -0.83867057594974714 I I #
edge $-1 $582 -11.31683334873526 $327 -4.2236590626603725 $474 $589 forward 7 unknown #
point $-1 58.594317453535567 -4.2236590626603725 10.254903059097977 #
point $-1 53.057663240112241 -4.2236590626603725 10.25490305909797 #
edge $-1 $590 1 $590 0 $330 $-1 forward 7 unknown #
vertex $-1 $331 $591 #
ellipse-curve $-1 54.35101587203085 -9.2902121241424354 5.0341934090540432 0.83867057594974714 0 0.54463902268945019 0.2723195113447251 0 -0.41933528797487357 1 I I #
point $-1 56.098309858168633 -9.2902121241424354 5.5727177139633612 #
edge $-1 $592 1 $592 0 $334 $-1 forward 7 unknown #
vertex $-1 $335 $593 #
ellipse-curve $-1 54.35101587203085 -6.2502802872531973 5.0341934090540432 0.83867057594974714 0 0.54463902268945019 0.2723195113447251 0 -0.41933528797487357 1 I I #
point $-1 56.098309858168633 -6.2502802872531973 5.5727177139633612 #
plane-surface $-1 0 0 10.254903059097977 0 0 1 1 0 0 forward_v I I I I #
coedge $-1 $501 $500 $493 $594 forward $339 $-1 #
coedge $-1 $493 $341 $343 $497 reversed $219 $-1 #
coedge $-1 $341 $492 $491 $594 reversed $219 $-1 #
coedge $-1 $349 $344 $341 $495 forward $350 $-1 #
edge $-1 $498 6.5319263402544721 $595 12.068580553677798 $494 $596 forward 7 unknown #
coedge $-1 $343 $342 $501 $597 reversed $137 $-1 #
edge $-1 $598 -117.18863490707116 $498 -107.02290314205166 $492 $599 forward 7 unknown #
vertex $-1 $345 $600 #
straight-curve $-1 53.057663240112234 5.4722713888387737 10.254903059097977 0 -1 0 I I #
coedge $-1 $491 $346 $349 $505 reversed $339 $-1 #
coedge $-1 $346 $491 $496 $597 forward $339 $-1 #
vertex $-1 $347 $601 #
straight-curve $-1 58.594317453535567 14.491129920714991 81.918683231577219 0 0 1 I I #
straight-curve $-1 -5.2311861325624562 14.491129920714991 100.01186287705643 0.54463902268945019 0 -0.83867057594974714 I I #
edge $-1 $595 7.3979556346401036 $351 14.491129920714991 $500 $602 forward 7 unknown #
point $-1 58.594317453535567 14.491129920714991 10.254903059097977 #
point $-1 53.057663240112241 14.491129920714991 10.25490305909797 #
edge $-1 $603 1 $603 0 $354 $-1 forward 7 unknown #
vertex $-1 $355 $604 #
ellipse-curve $-1 54.35101587203085 9.4245768592329284 5.0341934090540432 0.83867057594974714 0 0.54463902268945019 0.2723195113447251 0 -0.41933528797487357 1 I I #
point $-1 56.098309858168633 9.4245768592329284 5.5727177139633612 #
edge $-1 $605 1 $605 0 $358 $-1 forward 7 unknown #
vertex $-1 $359 $606 #
ellipse-curve $-1 54.35101587203085 12.464508696122166 5.0341934090540432 0.83867057594974714 0 0.54463902268945019 0.2723195113447251 0 -0.41933528797487357 1 I I #
point $-1 56.098309858168633 12.464508696122166 5.5727177139633612 #
plane-surface $-1 58.594317453535567 0 0 -1 0 0 0 0 1 forward_v I I I I #
coedge $-1 $367 $365 $369 $521 reversed $241 $-1 #
edge $-1 $380 -10.254903059097977 $523 10.254903059097977 $379 $607 forward 7 unknown #
vertex $-1 $521 $608 #
straight-curve $-1 -58.594317453535567 -29.537315495285192 0 0 0 -1 I I #
edge $-1 $519 -29.537315495285192 $523 29.537315495285192 $517 $609 forward 7 unknown #
straight-curve $-1 0 -29.537315495285192 -10.254903059097977 -1 0 0 I I #
vertex $-1 $372 $610 #
straight-curve $-1 0 29.537315495285192 -10.254903059097977 1 0 0 I I #
point $-1 58.594317453535567 29.537315495285192 -10.254903059097977 #
point $-1 58.594317453535567 -29.537315495285192 -10.254903059097977 #
straight-curve $-1 -58.594317453535567 0 10.254903059097977 0 -1 0 I I #
point $-1 -58.594317453535567 29.537315495285192 10.254903059097977 #
point $-1 -58.594317453535567 -29.537315495285192 10.254903059097977 #
straight-curve $-1 58.594317453535567 -29.537315495285192 0 0 0 -1 I I #
straight-curve $-1 58.594317453535567 29.537315495285192 0 0 0 -1 I I #
loop $-1 $-1 $395 $389 #
plane-surface $-1 0 -29.537315495285192 0 0 1 0 0 0 1 forward_v I I I I #
coedge $-1 $406 $397 $393 $536 forward $390 $-1 #
edge $-1 $540 -17.474289375620053 $401 -6.6517628637102248 $392 $611 forward 7 unknown #
edge $-1 $402 6.6517628637102248 $539 17.474289375620053 $534 $612 forward 7 unknown #
coedge $-1 $404 $395 $409 $549 reversed $532 $-1 #
coedge $-1 $395 $404 $406 $547 reversed $532 $-1 #
vertex $-1 $547 $613 #
vertex $-1 $396 $614 #
straight-curve $-1 -44.119008356006837 -29.537315495285192 0 0 0 1 I I #
straight-curve $-1 -23.56309448263849 -18.714788983375364 -10.254903059097977 1 0 0 I I #
straight-curve $-1 -23.56309448263849 -18.714788983375364 10.254903059097977 -1 0 0 I I #
point $-1 -44.119008356006837 -18.714788983375364 10.254903059097977 #
point $-1 -44.119008356006837 -18.714788983375364 -10.254903059097977 #
straight-curve $-1 -50.133369574547125 -29.537315495285192 0 0 0 -1 I I #
edge $-1 $539 44.119008356006837 $407 50.133369574547125 $538 $615 forward 7 unknown #
point $-1 -50.133369574547125 -29.537315495285192 -10.254903059097977 #
edge $-1 $410 -50.133369574547125 $540 -44.119008356006837 $537 $616 forward 7 unknown #
point $-1 -50.133369574547125 -29.537315495285192 10.254903059097977 #
plane-surface $-1 0 29.537315495285192 0 0 -1 0 0 0 -1 forward_v I I I I #
coedge $-1 $417 $421 $426 $562 forward $276 $-1 #
edge $-1 $617 -17.474289375620053 $431 -6.6517628637102248 $417 $618 forward 7 unknown #
coedge $-1 $419 $418 $560 $619 reversed $167 $-1 #
edge $-1 $434 6.6517628637102248 $620 17.474289375620053 $433 $621 forward 7 unknown #
straight-curve $-1 -44.119008356006837 18.714788983375364 0 0 0 -1 I I #
straight-curve $-1 -50.133369574547125 12.063026119665139 -10.254903059097977 0 1 0 I I #
coedge $-1 $423 $433 $425 $561 forward $415 $-1 #
straight-curve $-1 -50.133369574547125 12.063026119665139 10.254903059097977 0 -1 0 I I #
coedge $-1 $426 $425 $554 $619 forward $427 $-1 #
edge $-1 $620 44.119008356006837 $429 50.133369574547125 $425 $622 forward 7 unknown #
edge $-1 $428 -50.133369574547125 $617 -44.119008356006837 $426 $623 forward 7 unknown #
point $-1 -50.133369574547125 29.537315495285192 -10.254903059097977 #
point $-1 -50.133369574547125 29.537315495285192 10.254903059097977 #
point $-1 -44.119008356006837 18.714788983375364 -10.254903059097977 #
point $-1 -44.119008356006837 18.714788983375364 10.254903059097977 #
edge $-1 $568 32.981242685890798 $571 39.628731714351744 $439 $624 forward 7 unknown #
vertex $-1 $453 $625 #
straight-curve $-1 -70.729598417882073 -2.8968146256385356 10.254903059097977 -1 0 0 I I #
edge $-1 $571 -0.99848521558010184 $450 8.7890848980173768 $449 $626 forward 7 unknown #
vertex $-1 $570 $627 #
straight-curve $-1 -58.594317453535567 -2.8968146256385356 3.607414030637031 0.70710677298230451 0 0.70710678939079041 I I #
point $-1 -51.946828579330287 -2.8968146256385356 10.254903059097977 #
point $-1 -58.594317453535567 -12.684384739236014 3.607414030637031 #
straight-curve $-1 -58.594317453535567 0 10.254903059097977 0 -1 0 I I #
vertex $-1 $456 $628 #
point $-1 -53.347571442540108 -9.8879361353510191 6.4223705615627456 #
vertex $-1 $460 $629 #
point $-1 -53.347571442540108 -5.6932632295235308 6.4223705615627456 #
coedge $-1 $475 $474 $467 $581 forward $464 $-1 #
edge $-1 $582 71.66378017247925 $585 80.189480286798798 $580 $630 forward 7 unknown #
vertex $-1 $479 $631 #
straight-curve $-1 46.525736899857769 -11.31683334873526 10.254903059097984 1 0 0 I I #
edge $-1 $585 -7.431710245886352 $476 -0.33853595981146434 $475 $632 forward 7 unknown #
vertex $-1 $584 $633 #
straight-curve $-1 -5.2311861325624562 -11.31683334873526 100.01186287705643 -0.54463902268945019 0 0.83867057594974714 I I #
point $-1 53.057663240112241 -11.31683334873526 10.25490305909797 #
point $-1 58.594317453535567 -4.2236590626603725 1.7292029447784216 #
straight-curve $-1 58.594317453535567 0 10.254903059097977 0 1 0 I I #
vertex $-1 $482 $634 #
point $-1 54.623335383375576 -9.2902121241424354 4.6148581210791697 #
vertex $-1 $486 $635 #
point $-1 54.623335383375576 -6.2502802872531973 4.6148581210791697 #
edge $-1 $595 71.66378017247925 $598 80.189480286798798 $491 $636 forward 7 unknown #
vertex $-1 $505 $637 #
straight-curve $-1 46.525736899857769 7.3979556346401036 10.254903059097984 1 0 0 I I #
edge $-1 $598 1.9256842458013299 $502 9.0188585318762176 $501 $638 forward 7 unknown #
vertex $-1 $597 $639 #
straight-curve $-1 -5.2311861325624562 7.3979556346401036 100.01186287705643 -0.54463902268945019 0 0.83867057594974714 I I #
point $-1 53.057663240112241 7.3979556346401036 10.25490305909797 #
point $-1 58.594317453535567 14.491129920714991 1.7292029447784216 #
straight-curve $-1 58.594317453535567 0 10.254903059097977 0 1 0 I I #
vertex $-1 $508 $640 #
point $-1 54.623335383375576 9.4245768592329284 4.6148581210791697 #
vertex $-1 $512 $641 #
point $-1 54.623335383375576 12.464508696122166 4.6148581210791697 #
straight-curve $-1 -58.594317453535567 29.537315495285192 0 0 0 -1 I I #
point $-1 -58.594317453535567 -29.537315495285192 -10.254903059097977 #
straight-curve $-1 -58.594317453535567 0 -10.254903059097977 0 1 0 I I #
point $-1 -58.594317453535567 29.537315495285192 -10.254903059097977 #
straight-curve $-1 -44.119008356006837 -12.063026119665139 10.254903059097977 0 1 0 I I #
straight-curve $-1 -44.119008356006837 -12.063026119665139 -10.254903059097977 0 -1 0 I I #
point $-1 -44.119008356006837 -29.537315495285192 -10.254903059097977 #
point $-1 -44.119008356006837 -29.537315495285192 10.254903059097977 #
straight-curve $-1 0 -29.537315495285192 -10.254903059097977 -1 0 0 I I #
straight-curve $-1 0 -29.537315495285192 10.254903059097977 1 0 0 I I #
vertex $-1 $619 $642 #
straight-curve $-1 -44.119008356006837 12.063026119665139 -10.254903059097977 0 -1 0 I I #
edge $-1 $620 -10.254903059097977 $617 10.254903059097977 $560 $643 forward 7 unknown #
vertex $-1 $561 $644 #
straight-curve $-1 -44.119008356006837 12.063026119665139 10.254903059097977 0 1 0 I I #
straight-curve $-1 0 29.537315495285192 10.254903059097977 -1 0 0 I I #
straight-curve $-1 0 29.537315495285192 -10.254903059097977 1 0 0 I I #
straight-curve $-1 -58.594317453535567 -2.8968146256385356 43.236145744988775 0 0 -1 I I #
point $-1 -58.594317453535567 -2.8968146256385356 10.254903059097977 #
straight-curve $-1 -58.594317453535567 -3.8952998412186375 3.6074140306370279 0 -1 0 I I #
point $-1 -58.594317453535567 -2.8968146256385356 3.607414030637031 #
point $-1 -53.347571426131623 -9.8879361353510191 5.0081569991896506 #
point $-1 -53.347571426131623 -5.6932632295235308 5.0081569991896506 #
straight-curve $-1 58.594317453535567 -11.31683334873526 81.918683231577219 0 0 -1 I I #
point $-1 58.594317453535567 -11.31683334873526 10.254903059097977 #
straight-curve $-1 58.594317453535567 -3.8851231028489082 1.7292029447784216 0 1 0 I I #
point $-1 58.594317453535567 -11.31683334873526 1.7292029447784216 #
point $-1 53.931680584055975 -9.2902121241424354 4.7618738977093189 #
point $-1 53.931680584055975 -6.2502802872531973 4.7618738977093189 #
straight-curve $-1 58.594317453535567 7.3979556346401036 81.918683231577219 0 0 -1 I I #
point $-1 58.594317453535567 7.3979556346401036 10.254903059097977 #
straight-curve $-1 58.594317453535567 5.4722713888387737 1.7292029447784216 0 1 0 I I #
point $-1 58.594317453535567 7.3979556346401036 1.7292029447784216 #
point $-1 53.931680584055975 9.4245768592329284 4.7618738977093189 #
point $-1 53.931680584055975 12.464508696122166 4.7618738977093189 #
point $-1 -44.119008356006837 29.537315495285192 -10.254903059097977 #
straight-curve $-1 -44.119008356006837 29.537315495285192 0 0 0 -1 I I #
point $-1 -44.119008356006837 29.537315495285192 10.254903059097977 #
End-of-ACIS-data 