500 0 11 0           
7 Unknown 11 ACIS 5.0 NT 24 Fri Mar 26 16:39:42 1999 
-1 9.9999999999999995e-007 1e-010 
body $-1 $11 $-1 $12 #
body $-1 $13 $-1 $14 #
body $-1 $15 $-1 $16 #
body $-1 $17 $-1 $18 #
body $-1 $19 $-1 $20 #
body $-1 $21 $-1 $22 #
body $-1 $23 $-1 $24 #
body $-1 $25 $-1 $26 #
body $-1 $27 $-1 $28 #
body $-1 $29 $-1 $30 #
body $-1 $31 $-1 $32 #
lump $-1 $-1 $33 $0 #
transform $-1 1 0 0 0 1 0 0 0 1 61.182287057100133 34.012399810013868 13.955391339022505 1 rotate no_reflect no_shear #
lump $-1 $-1 $34 $1 #
transform $-1 1 0 0 0 1 0 0 0 1 61.182287057100133 34.012399810013868 13.955391339022505 1 rotate no_reflect no_shear #
lump $-1 $-1 $35 $2 #
transform $-1 1 0 0 0 1 0 0 0 1 61.182287057100133 34.012399810013868 13.955391339022505 1 rotate no_reflect no_shear #
lump $-1 $-1 $36 $3 #
transform $-1 1 0 0 0 1 0 0 0 1 61.182287057100133 34.012399810013868 13.955391339022505 1 rotate no_reflect no_shear #
lump $-1 $-1 $37 $4 #
transform $-1 1 0 0 0 1 0 0 0 1 61.182287057100133 34.012399810013868 13.955391339022505 1 rotate no_reflect no_shear #
lump $-1 $-1 $38 $5 #
transform $-1 1 0 0 0 1 0 0 0 1 61.182287057100133 34.012399810013868 13.955391339022505 1 rotate no_reflect no_shear #
lump $-1 $-1 $39 $6 #
transform $-1 1 0 0 0 1 0 0 0 1 61.182287057100133 34.012399810013868 13.955391339022505 1 rotate no_reflect no_shear #
lump $-1 $-1 $40 $7 #
transform $-1 1 0 0 0 1 0 0 0 1 61.182287057100133 34.012399810013868 13.955391339022505 1 rotate no_reflect no_shear #
lump $-1 $-1 $41 $8 #
transform $-1 1 0 0 0 1 0 0 0 1 61.182287057100133 34.012399810013868 13.955391339022505 1 rotate no_reflect no_shear #
lump $-1 $-1 $42 $9 #
transform $-1 1 0 0 0 1 0 0 0 1 61.182287057100133 34.012399810013868 13.955391339022505 1 rotate no_reflect no_shear #
lump $-1 $-1 $43 $10 #
transform $-1 1 0 0 0 1 0 0 0 1 61.182287057100133 34.012399810013868 13.955391339022505 1 rotate no_reflect no_shear #
shell $-1 $-1 $-1 $44 $-1 $11 #
shell $-1 $-1 $-1 $45 $-1 $13 #
shell $-1 $-1 $-1 $46 $-1 $15 #
shell $-1 $-1 $-1 $47 $-1 $17 #
shell $-1 $-1 $-1 $48 $-1 $19 #
shell $-1 $-1 $-1 $49 $-1 $21 #
shell $-1 $-1 $-1 $50 $-1 $23 #
shell $-1 $-1 $-1 $51 $-1 $25 #
shell $-1 $-1 $-1 $52 $-1 $27 #
shell $-1 $-1 $-1 $53 $-1 $29 #
shell $-1 $-1 $-1 $54 $-1 $31 #
face $-1 $55 $56 $33 $-1 $57 forward single #
face $-1 $58 $59 $34 $-1 $60 forward single #
face $-1 $61 $62 $35 $-1 $63 forward single #
face $-1 $64 $65 $36 $-1 $66 reversed single #
face $-1 $67 $68 $37 $-1 $69 forward single #
face $-1 $70 $71 $38 $-1 $72 reversed single #
face $-1 $73 $74 $39 $-1 $75 forward single #
face $-1 $76 $77 $40 $-1 $78 reversed single #
face $-1 $79 $80 $41 $-1 $81 forward single #
face $-1 $82 $83 $42 $-1 $84 reversed single #
face $-1 $85 $86 $43 $-1 $87 forward single #
face $-1 $88 $89 $33 $-1 $90 reversed single #
loop $-1 $-1 $91 $44 #
plane-surface $-1 0 0 13.955391339022505 0 0 1 1 0 0 forward_v I I I I #
face $-1 $92 $93 $34 $-1 $94 reversed single #
loop $-1 $-1 $95 $45 #
plane-surface $-1 -56.099291194032446 0 -10.511156292827401 0 0 1 1 0 0 forward_v I I I I #
face $-1 $96 $97 $35 $-1 $98 reversed single #
loop $-1 $-1 $99 $46 #
plane-surface $-1 61.182287057100133 0 0 -1 0 0 0 0 1 forward_v I I I I #
face $-1 $100 $101 $36 $-1 $102 reversed single #
loop $-1 $-1 $103 $47 #
plane-surface $-1 -51.016295330964752 -135.45723028835792 78.421897884289194 1 0 0 0 0.82903758062907751 -0.55919289150049634 forward_v I I I I #
face $-1 $104 $105 $37 $-1 $106 forward single #
loop $-1 $107 $108 $48 #
cone-surface $-1 -40.625103968349819 -31.427566959078931 11.133025358810814 0 0.82903758062907751 -0.55919289150049634 1 0 0 1 I I 0 1 1 forward I I I I #
face $-1 $109 $110 $38 $-1 $111 reversed single #
loop $-1 $-1 $112 $49 #
plane-surface $-1 -3.1878701588813154 -135.45723028835792 78.421897884289194 1 0 0 0 0.82903758062907751 -0.55919289150049634 forward_v I I I I #
face $-1 $113 $114 $39 $-1 $115 forward single #
loop $-1 $116 $117 $50 #
cone-surface $-1 7.2033212037336156 -31.427566959078931 11.133025358810814 0 0.82903758062907751 -0.55919289150049634 1 0 0 1 I I 0 1 1 forward I I I I #
face $-1 $118 $119 $40 $-1 $120 reversed single #
loop $-1 $-1 $121 $51 #
plane-surface $-1 -51.016295330964752 97.418245895092724 134.81701318405479 1 0 0 0 -0.82903758062907751 -0.55919289150049634 forward_v I I I I #
face $-1 $122 $123 $41 $-1 $124 forward single #
loop $-1 $125 $126 $52 #
cone-surface $-1 -40.625103968349819 31.427566959078931 11.133025358810796 0 -0.82903758062907751 -0.55919289150049634 1 0 0 1 I I 0 1 1 forward I I I I #
face $-1 $127 $128 $42 $-1 $129 reversed single #
loop $-1 $-1 $130 $53 #
plane-surface $-1 -3.1878701588813154 97.418245895092724 134.81701318405479 1 0 0 0 -0.82903758062907751 -0.55919289150049634 forward_v I I I I #
face $-1 $131 $132 $43 $-1 $133 forward single #
loop $-1 $134 $135 $54 #
cone-surface $-1 7.2033212037336156 31.427566959078931 11.133025358810796 0 -0.82903758062907751 -0.55919289150049634 1 0 0 1 I I 0 1 1 forward I I I I #
face $-1 $136 $137 $33 $-1 $138 reversed single #
loop $-1 $-1 $139 $55 #
plane-surface $-1 0 0 -13.955391339022505 0 0 1 1 0 0 forward_v I I I I #
coedge $-1 $140 $141 $142 $143 forward $56 $-1 #
face $-1 $144 $145 $34 $-1 $146 reversed single #
loop $-1 $-1 $147 $58 #
plane-surface $-1 -51.016295330964752 0 -12.233273815924953 -1 0 0 0 0 1 forward_v I I I I #
coedge $-1 $148 $149 $150 $151 forward $59 $-1 #
face $-1 $152 $153 $35 $-1 $154 forward single #
loop $-1 $-1 $155 $61 #
plane-surface $-1 0 34.012399810013868 0 0 -1 0 0 0 -1 forward_v I I I I #
coedge $-1 $156 $157 $158 $159 forward $62 $-1 #
face $-1 $160 $161 $36 $-1 $162 reversed single #
loop $-1 $-1 $163 $64 #
plane-surface $-1 -40.625103968349819 -34.012399810013875 9.9964978681427539 0 -0.82903758062907751 0.55919289150049634 1 0 0 forward_v I I I I #
coedge $-1 $164 $165 $166 $167 reversed $65 $-1 #
face $-1 $-1 $168 $37 $-1 $169 forward single #
loop $-1 $170 $171 $67 #
cone-surface $-1 -40.625103968349819 -29.763368957935761 10.010509668288744 0 0.82903758062907751 -0.55919289150049634 0.5 0 0 1 I I -0.70710678118654746 0.70710678118654746 0.5 forward I I I I #
loop $-1 $-1 $172 $48 #
coedge $-1 $108 $108 $173 $174 reversed $68 $-1 #
face $-1 $175 $176 $38 $-1 $177 reversed single #
loop $-1 $-1 $178 $70 #
plane-surface $-1 7.2033212037336156 -34.012399810013875 9.9964978681427539 0 -0.82903758062907751 0.55919289150049634 1 0 0 forward_v I I I I #
coedge $-1 $179 $180 $181 $182 reversed $71 $-1 #
face $-1 $-1 $183 $39 $-1 $184 forward single #
loop $-1 $185 $186 $73 #
cone-surface $-1 7.2033212037336156 -29.763368957935761 10.010509668288744 0 0.82903758062907751 -0.55919289150049634 0.5 0 0 1 I I -0.70710678118654746 0.70710678118654746 0.5 forward I I I I #
loop $-1 $-1 $187 $50 #
coedge $-1 $117 $117 $188 $189 reversed $74 $-1 #
face $-1 $190 $191 $40 $-1 $192 reversed single #
loop $-1 $-1 $193 $76 #
plane-surface $-1 -40.625103968349819 -4.0265845832513207 66.391613167908346 0 0.82903758062907751 0.55919289150049634 1 0 0 forward_v I I I I #
coedge $-1 $194 $195 $196 $197 reversed $77 $-1 #
face $-1 $-1 $198 $41 $-1 $199 forward single #
loop $-1 $200 $201 $79 #
cone-surface $-1 -40.625103968349819 29.763368957935761 10.010509668288726 0 -0.82903758062907751 -0.55919289150049634 0.5 0 0 1 I I -0.70710678118654746 0.70710678118654746 0.5 forward I I I I #
loop $-1 $-1 $202 $52 #
coedge $-1 $126 $126 $203 $204 reversed $80 $-1 #
face $-1 $205 $206 $42 $-1 $207 reversed single #
loop $-1 $-1 $208 $82 #
plane-surface $-1 7.2033212037336156 -4.0265845832513207 66.391613167908346 0 0.82903758062907751 0.55919289150049634 1 0 0 forward_v I I I I #
coedge $-1 $209 $210 $211 $212 reversed $83 $-1 #
face $-1 $-1 $213 $43 $-1 $214 forward single #
loop $-1 $215 $216 $85 #
cone-surface $-1 7.2033212037336156 29.763368957935761 10.010509668288726 0 -0.82903758062907751 -0.55919289150049634 0.5 0 0 1 I I -0.70710678118654746 0.70710678118654746 0.5 forward I I I I #
loop $-1 $-1 $217 $54 #
coedge $-1 $135 $135 $218 $219 reversed $86 $-1 #
face $-1 $220 $221 $33 $-1 $222 reversed single #
loop $-1 $-1 $223 $88 #
plane-surface $-1 0 -34.012399810013868 0 0 1 0 0 0 1 forward_v I I I I #
coedge $-1 $224 $225 $226 $227 forward $89 $-1 #
coedge $-1 $228 $91 $229 $230 forward $56 $-1 #
coedge $-1 $91 $228 $231 $232 forward $56 $-1 #
coedge $-1 $233 $234 $91 $143 reversed $235 $-1 #
edge $-1 $236 -34.012399810013868 $237 34.012399810013868 $142 $238 forward 7 unknown #
face $-1 $239 $240 $34 $-1 $241 reversed single #
loop $-1 $-1 $242 $92 #
plane-surface $-1 0 0 -13.955391339022505 0 0 1 1 0 0 forward_v I I I I #
coedge $-1 $243 $150 $244 $245 reversed $93 $-1 #
coedge $-1 $246 $95 $247 $248 reversed $59 $-1 #
coedge $-1 $95 $246 $249 $250 reversed $59 $-1 #
coedge $-1 $147 $251 $95 $151 reversed $93 $-1 #
edge $-1 $252 -34.012399810013868 $253 34.012399810013868 $150 $254 forward 7 unknown #
face $-1 $255 $256 $35 $-1 $257 reversed single #
loop $-1 $-1 $258 $96 #
plane-surface $-1 69.453153079049144 0 3.7659845943824353 0 0 1 1 0 0 forward_v I I I I #
coedge $-1 $259 $260 $157 $261 forward $97 $-1 #
coedge $-1 $262 $99 $263 $264 reversed $62 $-1 #
coedge $-1 $99 $262 $155 $261 reversed $62 $-1 #
coedge $-1 $265 $266 $99 $159 reversed $256 $-1 #
edge $-1 $267 -34.012399810013868 $268 34.012399810013868 $158 $269 forward 7 unknown #
face $-1 $270 $271 $36 $-1 $272 forward single #
loop $-1 $-1 $273 $100 #
plane-surface $-1 -30.233912605734886 -135.45723028835792 78.421897884289194 -1 0 0 0 -0.82903758062907751 0.55919289150049634 forward_v I I I I #
coedge $-1 $274 $275 $276 $277 reversed $101 $-1 #
coedge $-1 $165 $103 $278 $279 reversed $65 $-1 #
coedge $-1 $103 $164 $274 $280 reversed $65 $-1 #
coedge $-1 $276 $281 $103 $167 forward $282 $-1 #
edge $-1 $283 25.255557603122092 $284 29.214451074001833 $166 $285 forward 7 unknown #
loop $-1 $-1 $173 $104 #
plane-surface $-1 -40.625103968349819 -34.012399810013875 9.9964978681427539 0 -0.82903758062907751 0.55919289150049634 1 0 0 forward_v I I I I #
loop $-1 $-1 $286 $67 #
coedge $-1 $171 $171 $172 $287 reversed $105 $-1 #
coedge $-1 $172 $172 $171 $287 forward $107 $-1 #
coedge $-1 $173 $173 $108 $174 forward $168 $-1 #
edge $-1 $288 0 $288 6.2831853071796004 $173 $289 forward 7 unknown #
face $-1 $290 $291 $38 $-1 $292 reversed single #
loop $-1 $-1 $293 $109 #
plane-surface $-1 17.594512566348548 -135.45723028835792 78.421897884289194 -1 0 0 0 -0.82903758062907751 0.55919289150049634 forward_v I I I I #
coedge $-1 $294 $295 $296 $297 reversed $110 $-1 #
coedge $-1 $180 $112 $298 $299 reversed $71 $-1 #
coedge $-1 $112 $179 $294 $300 reversed $71 $-1 #
coedge $-1 $296 $301 $112 $182 forward $291 $-1 #
edge $-1 $302 25.255557603122092 $303 29.214451074001833 $181 $304 forward 7 unknown #
loop $-1 $-1 $188 $113 #
plane-surface $-1 7.2033212037336156 -34.012399810013875 9.9964978681427539 0 -0.82903758062907751 0.55919289150049634 1 0 0 forward_v I I I I #
loop $-1 $-1 $305 $73 #
coedge $-1 $186 $186 $187 $306 reversed $114 $-1 #
coedge $-1 $187 $187 $186 $306 forward $116 $-1 #
coedge $-1 $188 $188 $117 $189 forward $183 $-1 #
edge $-1 $307 0 $307 6.2831853071796004 $188 $308 forward 7 unknown #
face $-1 $309 $310 $40 $-1 $311 reversed single #
loop $-1 $-1 $312 $118 #
plane-surface $-1 -30.233912605734886 97.418245895092724 134.81701318405479 -1 0 0 0 0.82903758062907751 0.55919289150049634 forward_v I I I I #
coedge $-1 $313 $314 $315 $316 reversed $119 $-1 #
coedge $-1 $195 $121 $317 $318 reversed $77 $-1 #
coedge $-1 $121 $194 $313 $319 reversed $77 $-1 #
coedge $-1 $315 $320 $121 $197 forward $321 $-1 #
edge $-1 $322 14.696723137532494 $323 17.367030417745127 $196 $324 forward 7 unknown #
loop $-1 $-1 $203 $122 #
plane-surface $-1 -40.625103968349819 -4.0265845832513207 66.391613167908346 0 0.82903758062907751 0.55919289150049634 1 0 0 forward_v I I I I #
loop $-1 $-1 $325 $79 #
coedge $-1 $201 $201 $202 $326 reversed $123 $-1 #
coedge $-1 $202 $202 $201 $326 forward $125 $-1 #
coedge $-1 $203 $203 $126 $204 forward $198 $-1 #
edge $-1 $327 2.500637892973337e-015 $327 6.2831853071796031 $203 $328 forward 7 unknown #
face $-1 $329 $330 $42 $-1 $331 reversed single #
loop $-1 $-1 $332 $127 #
plane-surface $-1 17.594512566348548 97.418245895092724 134.81701318405479 -1 0 0 0 0.82903758062907751 0.55919289150049634 forward_v I I I I #
coedge $-1 $333 $334 $335 $336 reversed $128 $-1 #
coedge $-1 $210 $130 $337 $338 reversed $83 $-1 #
coedge $-1 $130 $209 $333 $339 reversed $83 $-1 #
coedge $-1 $335 $340 $130 $212 forward $341 $-1 #
edge $-1 $342 14.696723137532494 $343 17.367030417745127 $211 $344 forward 7 unknown #
loop $-1 $-1 $218 $131 #
plane-surface $-1 7.2033212037336156 -4.0265845832513207 66.391613167908346 0 0.82903758062907751 0.55919289150049634 1 0 0 forward_v I I I I #
loop $-1 $-1 $345 $85 #
coedge $-1 $216 $216 $217 $346 reversed $132 $-1 #
coedge $-1 $217 $217 $216 $346 forward $134 $-1 #
coedge $-1 $218 $218 $135 $219 forward $213 $-1 #
edge $-1 $347 2.500637892973337e-015 $347 6.2831853071796031 $218 $348 forward 7 unknown #
face $-1 $349 $350 $33 $-1 $351 reversed single #
loop $-1 $-1 $352 $136 #
plane-surface $-1 -61.182287057100133 0 0 1 0 0 0 0 -1 forward_v I I I I #
coedge $-1 $353 $231 $354 $355 forward $137 $-1 #
coedge $-1 $356 $139 $353 $357 forward $89 $-1 #
coedge $-1 $139 $356 $358 $359 forward $89 $-1 #
coedge $-1 $234 $233 $139 $227 reversed $235 $-1 #
edge $-1 $360 -34.012399810013868 $361 34.012399810013868 $226 $362 forward 7 unknown #
coedge $-1 $141 $140 $363 $364 forward $56 $-1 #
coedge $-1 $365 $366 $140 $230 reversed $350 $-1 #
edge $-1 $237 -61.182287057100133 $367 61.182287057100133 $229 $368 forward 7 unknown #
coedge $-1 $223 $369 $141 $232 reversed $137 $-1 #
edge $-1 $370 -61.182287057100133 $236 61.182287057100133 $231 $371 forward 7 unknown #
coedge $-1 $226 $142 $369 $372 forward $235 $-1 #
coedge $-1 $142 $226 $365 $373 reversed $235 $-1 #
loop $-1 $-1 $233 $349 #
vertex $-1 $143 $374 #
vertex $-1 $143 $375 #
straight-curve $-1 61.182287057100133 0 13.955391339022505 0 1 0 I I #
face $-1 $376 $377 $34 $-1 $378 reversed single #
loop $-1 $-1 $244 $144 #
plane-surface $-1 0 -34.012399810013868 0 0 1 0 0 0 1 forward_v I I I I #
coedge $-1 $379 $380 $243 $381 forward $145 $-1 #
coedge $-1 $251 $147 $242 $381 reversed $93 $-1 #
coedge $-1 $249 $382 $147 $245 forward $240 $-1 #
edge $-1 $383 -7.8387544310600283 $252 -4.3945193848649247 $244 $384 forward 7 unknown #
coedge $-1 $149 $148 $385 $386 reversed $59 $-1 #
coedge $-1 $387 $388 $148 $248 forward $389 $-1 #
edge $-1 $390 -33.132641460083917 $253 -22.966649733948529 $247 $391 forward 7 unknown #
coedge $-1 $392 $244 $149 $250 forward $240 $-1 #
edge $-1 $252 22.966649733948529 $393 33.132641460083917 $249 $394 forward 7 unknown #
coedge $-1 $150 $243 $387 $395 reversed $93 $-1 #
vertex $-1 $250 $396 #
vertex $-1 $248 $397 #
straight-curve $-1 -51.016295330964752 0 -10.511156292827401 0 1 0 I I #
face $-1 $398 $399 $35 $-1 $400 reversed single #
loop $-1 $-1 $401 $152 #
plane-surface $-1 69.453153079049144 0 -1.1378871960095127 0 0 1 1 0 0 forward_v I I I I #
coedge $-1 $402 $403 $404 $405 forward $153 $-1 #
coedge $-1 $406 $155 $402 $407 reversed $97 $-1 #
coedge $-1 $155 $406 $265 $408 reversed $97 $-1 #
edge $-1 $267 -1.1378871960095127 $409 3.7659845943824353 $155 $410 forward 7 unknown #
coedge $-1 $157 $156 $411 $412 forward $62 $-1 #
coedge $-1 $413 $414 $156 $264 forward $415 $-1 #
edge $-1 $416 -3.7659845943824353 $268 1.1378871960095127 $263 $417 forward 7 unknown #
coedge $-1 $401 $158 $260 $408 forward $256 $-1 #
coedge $-1 $158 $401 $413 $418 forward $256 $-1 #
vertex $-1 $261 $419 #
vertex $-1 $264 $420 #
straight-curve $-1 61.182287057100133 0 -1.1378871960095127 0 -1 0 I I #
face $-1 $-1 $282 $36 $-1 $421 reversed single #
loop $-1 $-1 $422 $160 #
plane-surface $-1 0 0 13.955391339022505 0 0 1 1 0 0 forward_v I I I I #
coedge $-1 $423 $424 $425 $426 reversed $161 $-1 #
coedge $-1 $427 $163 $165 $280 forward $101 $-1 #
coedge $-1 $163 $427 $423 $428 forward $101 $-1 #
coedge $-1 $425 $166 $163 $277 forward $282 $-1 #
edge $-1 $284 -30.703743346789842 $429 -9.9213606215599768 $276 $430 forward 7 unknown #
coedge $-1 $431 $432 $164 $279 forward $271 $-1 #
edge $-1 $433 -36.386522614377711 $283 -33.716215334165092 $278 $434 forward 7 unknown #
edge $-1 $284 1.2809303928265426e-014 $433 4.7752883142833227 $165 $435 forward 7 unknown #
coedge $-1 $166 $425 $431 $436 reversed $282 $-1 #
loop $-1 $-1 $425 $270 #
vertex $-1 $436 $437 #
vertex $-1 $167 $438 #
straight-curve $-1 -51.016295330964752 -34.012399810013868 39.210948942144597 0 0 -1 I I #
coedge $-1 $286 $286 $-1 $439 reversed $170 $-1 #
edge $-1 $440 0 $440 6.2831853071796004 $171 $441 forward 7 unknown #
vertex $-1 $174 $442 #
ellipse-curve $-1 -40.625103968349819 -32.677246169907562 11.975944603582635 0 -0.82903758062907751 0.55919289150049634 1 0 0 1 I I #
face $-1 $-1 $443 $38 $-1 $444 forward single #
loop $-1 $-1 $181 $175 #
plane-surface $-1 0 -34.012399810013868 0 0 1 0 0 0 1 forward_v I I I I #
coedge $-1 $445 $446 $447 $448 reversed $176 $-1 #
coedge $-1 $449 $178 $180 $300 forward $110 $-1 #
coedge $-1 $178 $449 $445 $450 forward $110 $-1 #
coedge $-1 $447 $181 $178 $297 forward $291 $-1 #
edge $-1 $303 -6.7895307607481232 $451 13.992851964481741 $296 $452 forward 7 unknown #
coedge $-1 $453 $454 $179 $299 forward $443 $-1 #
edge $-1 $455 -36.386522614377711 $302 -33.716215334165092 $298 $456 forward 7 unknown #
edge $-1 $303 1.2809303928265426e-014 $455 4.7752883142833227 $180 $457 forward 7 unknown #
coedge $-1 $181 $447 $453 $458 reversed $291 $-1 #
vertex $-1 $458 $459 #
vertex $-1 $182 $460 #
straight-curve $-1 -3.1878701588813154 -34.012399810013868 39.210948942144597 0 0 -1 I I #
coedge $-1 $305 $305 $-1 $461 reversed $185 $-1 #
edge $-1 $462 0 $462 6.2831853071796004 $186 $463 forward 7 unknown #
vertex $-1 $189 $464 #
ellipse-curve $-1 7.2033212037336156 -32.677246169907562 11.975944603582635 0 -0.82903758062907751 0.55919289150049634 1 0 0 1 I I #
face $-1 $-1 $321 $40 $-1 $465 forward single #
loop $-1 $-1 $466 $190 #
plane-surface $-1 0 34.012399810013868 0 0 -1 0 0 0 -1 forward_v I I I I #
coedge $-1 $467 $468 $469 $470 reversed $191 $-1 #
coedge $-1 $471 $193 $195 $319 forward $119 $-1 #
coedge $-1 $193 $471 $467 $472 forward $119 $-1 #
coedge $-1 $469 $196 $193 $316 forward $321 $-1 #
edge $-1 $323 -30.703743346789842 $473 -9.9213606215599768 $315 $474 forward 7 unknown #
coedge $-1 $475 $476 $194 $318 forward $310 $-1 #
edge $-1 $477 -57.412008723884654 $322 -53.453115253004889 $317 $478 forward 7 unknown #
edge $-1 $323 63.24951130574442 $477 68.024799620027764 $195 $479 forward 7 unknown #
coedge $-1 $196 $469 $475 $480 forward $321 $-1 #
loop $-1 $-1 $469 $309 #
vertex $-1 $318 $481 #
vertex $-1 $197 $482 #
straight-curve $-1 -51.016295330964752 48.709122947546362 13.955391339022505 0 -1 0 I I #
coedge $-1 $325 $325 $-1 $483 reversed $200 $-1 #
edge $-1 $484 0 $484 6.2831853071796004 $201 $485 forward 7 unknown #
vertex $-1 $204 $486 #
ellipse-curve $-1 -40.625103968349819 32.677246169907555 11.975944603582615 0 0.82903758062907751 0.55919289150049634 1 0 0 1 I I #
face $-1 $-1 $341 $42 $-1 $487 forward single #
loop $-1 $-1 $488 $205 #
plane-surface $-1 0 34.012399810013868 0 0 -1 0 0 0 -1 forward_v I I I I #
coedge $-1 $489 $490 $491 $492 reversed $206 $-1 #
coedge $-1 $493 $208 $210 $339 forward $128 $-1 #
coedge $-1 $208 $493 $489 $494 forward $128 $-1 #
coedge $-1 $491 $211 $208 $336 forward $341 $-1 #
edge $-1 $343 -6.7895307607481232 $495 13.992851964481741 $335 $496 forward 7 unknown #
coedge $-1 $497 $498 $209 $338 forward $330 $-1 #
edge $-1 $499 -57.412008723884654 $342 -53.453115253004889 $337 $500 forward 7 unknown #
edge $-1 $343 63.24951130574442 $499 68.024799620027764 $210 $501 forward 7 unknown #
coedge $-1 $211 $491 $497 $502 forward $341 $-1 #
loop $-1 $-1 $491 $329 #
vertex $-1 $338 $503 #
vertex $-1 $212 $504 #
straight-curve $-1 -3.1878701588813154 48.709122947546362 13.955391339022505 0 -1 0 I I #
coedge $-1 $345 $345 $-1 $505 reversed $215 $-1 #
edge $-1 $506 0 $506 6.2831853071796004 $216 $507 forward 7 unknown #
vertex $-1 $219 $508 #
ellipse-curve $-1 7.2033212037336156 32.677246169907555 11.975944603582615 0 0.82903758062907751 0.55919289150049634 1 0 0 1 I I #
face $-1 $-1 $235 $33 $-1 $509 reversed single #
loop $-1 $-1 $365 $220 #
plane-surface $-1 0 34.012399810013868 0 0 -1 0 0 0 -1 forward_v I I I I #
coedge $-1 $510 $363 $366 $511 forward $221 $-1 #
coedge $-1 $369 $223 $224 $357 reversed $137 $-1 #
coedge $-1 $363 $510 $223 $355 reversed $221 $-1 #
edge $-1 $370 -13.955391339022505 $512 13.955391339022505 $354 $513 forward 7 unknown #
coedge $-1 $225 $224 $510 $514 forward $89 $-1 #
edge $-1 $361 -61.182287057100133 $512 61.182287057100133 $353 $515 forward 7 unknown #
coedge $-1 $366 $365 $225 $359 reversed $350 $-1 #
edge $-1 $516 -61.182287057100133 $360 61.182287057100133 $358 $517 forward 7 unknown #
vertex $-1 $227 $518 #
vertex $-1 $372 $519 #
straight-curve $-1 61.182287057100133 0 -13.955391339022505 0 -1 0 I I #
coedge $-1 $352 $354 $228 $364 reversed $221 $-1 #
edge $-1 $367 -34.012399810013868 $370 34.012399810013868 $363 $520 forward 7 unknown #
coedge $-1 $358 $229 $234 $373 forward $350 $-1 #
coedge $-1 $229 $358 $352 $511 reversed $350 $-1 #
vertex $-1 $230 $521 #
straight-curve $-1 0 34.012399810013868 13.955391339022505 -1 0 0 I I #
coedge $-1 $231 $353 $233 $372 reversed $137 $-1 #
vertex $-1 $364 $522 #
straight-curve $-1 0 -34.012399810013868 13.955391339022505 1 0 0 I I #
edge $-1 $236 -13.955391339022505 $361 13.955391339022505 $233 $523 forward 7 unknown #
edge $-1 $237 -13.955391339022505 $360 13.955391339022505 $234 $524 forward 7 unknown #
point $-1 61.182287057100133 -34.012399810013868 13.955391339022505 #
point $-1 61.182287057100133 34.012399810013868 13.955391339022505 #
face $-1 $-1 $389 $34 $-1 $525 reversed single #
loop $-1 $-1 $385 $239 #
plane-surface $-1 -61.182287057100133 0 0 1 0 0 0 0 -1 forward_v I I I I #
coedge $-1 $526 $242 $382 $527 forward $145 $-1 #
coedge $-1 $242 $526 $528 $529 forward $145 $-1 #
edge $-1 $530 -34.012399810013868 $383 34.012399810013868 $242 $531 forward 7 unknown #
coedge $-1 $244 $392 $379 $527 reversed $240 $-1 #
vertex $-1 $527 $532 #
straight-curve $-1 -51.016295330964752 -34.012399810013868 -6.1166369079624765 0 0 1 I I #
coedge $-1 $533 $534 $246 $386 forward $377 $-1 #
edge $-1 $393 -34.012399810013868 $390 34.012399810013868 $385 $535 forward 7 unknown #
coedge $-1 $528 $247 $251 $395 forward $389 $-1 #
coedge $-1 $247 $528 $533 $536 reversed $389 $-1 #
loop $-1 $-1 $387 $376 #
vertex $-1 $536 $537 #
straight-curve $-1 -28.049645597016223 34.012399810013868 -10.511156292827401 1 0 0 I I #
coedge $-1 $382 $249 $534 $538 forward $240 $-1 #
vertex $-1 $538 $539 #
straight-curve $-1 -28.049645597016223 -34.012399810013868 -10.511156292827401 -1 0 0 I I #
edge $-1 $253 4.3945193848649247 $530 7.8387544310600283 $387 $540 forward 7 unknown #
point $-1 -51.016295330964752 -34.012399810013868 -10.511156292827401 #
point $-1 -51.016295330964752 34.012399810013868 -10.511156292827401 #
face $-1 $-1 $415 $35 $-1 $541 reversed single #
loop $-1 $-1 $542 $255 #
plane-surface $-1 77.724019100998134 0 1.3140486991864613 -1 0 0 0 0 1 forward_v I I I I #
coedge $-1 $266 $265 $543 $544 forward $256 $-1 #
coedge $-1 $411 $258 $259 $407 forward $153 $-1 #
coedge $-1 $258 $411 $414 $545 forward $153 $-1 #
coedge $-1 $542 $546 $258 $405 reversed $399 $-1 #
edge $-1 $547 -34.012399810013868 $548 34.012399810013868 $404 $549 forward 7 unknown #
coedge $-1 $260 $259 $546 $550 forward $97 $-1 #
edge $-1 $548 -8.27086602194899 $409 8.2708660219489971 $259 $551 forward 7 unknown #
edge $-1 $267 -8.2708660219489971 $552 8.27086602194899 $260 $553 forward 7 unknown #
vertex $-1 $407 $554 #
straight-curve $-1 61.182287057100133 34.012399810013868 0 0 0 1 I I #
coedge $-1 $403 $402 $262 $412 reversed $153 $-1 #
edge $-1 $416 -34.012399810013868 $409 34.012399810013868 $411 $555 forward 7 unknown #
coedge $-1 $556 $263 $266 $418 reversed $415 $-1 #
coedge $-1 $263 $556 $403 $545 reversed $415 $-1 #
loop $-1 $-1 $263 $398 #
vertex $-1 $264 $557 #
straight-curve $-1 61.182287057100133 -34.012399810013868 0 0 0 -1 I I #
edge $-1 $558 -8.27086602194899 $268 8.2708660219489971 $413 $559 forward 7 unknown #
point $-1 61.182287057100147 34.012399810013868 -1.1378871960095127 #
point $-1 61.182287057100147 -34.012399810013868 -1.1378871960095127 #
plane-surface $-1 0 -34.012399810013868 0 0 1 0 0 0 1 forward_v I I I I #
coedge $-1 $432 $431 $424 $560 forward $271 $-1 #
coedge $-1 $424 $273 $275 $428 reversed $161 $-1 #
coedge $-1 $273 $423 $422 $560 reversed $161 $-1 #
coedge $-1 $281 $276 $273 $426 forward $282 $-1 #
edge $-1 $429 -29.214451074001833 $561 -25.255557603122092 $425 $562 forward 7 unknown #
coedge $-1 $275 $274 $432 $563 reversed $101 $-1 #
edge $-1 $564 -4.7752883142833227 $429 -1.2809303928265426e-014 $423 $565 forward 7 unknown #
vertex $-1 $277 $566 #
straight-curve $-1 -20.31255198417491 -34.012399810013868 9.9964978681427716 1 0 0 I I #
coedge $-1 $422 $278 $281 $436 forward $271 $-1 #
coedge $-1 $278 $422 $427 $563 forward $271 $-1 #
vertex $-1 $279 $567 #
straight-curve $-1 -51.016295330964752 -67.72861514417896 13.955391339022505 0 -1 0 I I #
straight-curve $-1 -51.016295330964752 -34.012399810013875 9.9964978681427539 0 0.55919289150049634 0.82903758062907751 I I #
edge $-1 $283 -51.016295330964752 $561 -30.233912605734886 $281 $568 forward 7 unknown #
point $-1 -51.016295330964752 -34.012399810013868 13.955391339022505 #
point $-1 -51.016295330964752 -34.012399810013868 9.9964978681427645 #
edge $-1 $569 1 $569 0 $286 $-1 forward 7 unknown #
vertex $-1 $287 $570 #
ellipse-curve $-1 -40.625103968349819 -30.177887748250299 10.290106114038993 0 -0.82903758062907751 0.55919289150049634 1 0 0 1 I I #
point $-1 -39.625103968349819 -32.677246169907562 11.975944603582635 #
loop $-1 $-1 $298 $290 #
plane-surface $-1 0 0 13.955391339022505 0 0 1 1 0 0 forward_v I I I I #
coedge $-1 $446 $293 $295 $450 reversed $176 $-1 #
coedge $-1 $293 $445 $571 $572 reversed $176 $-1 #
coedge $-1 $301 $296 $293 $448 forward $291 $-1 #
edge $-1 $451 -29.214451074001833 $573 -25.255557603122092 $447 $574 forward 7 unknown #
coedge $-1 $295 $294 $454 $575 reversed $110 $-1 #
edge $-1 $576 -4.7752883142833227 $451 -1.2809303928265426e-014 $445 $577 forward 7 unknown #
vertex $-1 $297 $578 #
straight-curve $-1 3.6016606018668078 -34.012399810013868 9.9964978681427716 1 0 0 I I #
coedge $-1 $571 $298 $301 $458 forward $443 $-1 #
coedge $-1 $298 $571 $449 $575 forward $443 $-1 #
vertex $-1 $299 $579 #
straight-curve $-1 -3.1878701588813154 -67.72861514417896 13.955391339022505 0 -1 0 I I #
straight-curve $-1 -3.1878701588813154 -34.012399810013875 9.9964978681427539 0 0.55919289150049634 0.82903758062907751 I I #
edge $-1 $302 -3.1878701588813154 $573 17.594512566348548 $301 $580 forward 7 unknown #
point $-1 -3.1878701588813154 -34.012399810013868 13.955391339022505 #
point $-1 -3.1878701588813154 -34.012399810013868 9.9964978681427645 #
edge $-1 $581 1 $581 0 $305 $-1 forward 7 unknown #
vertex $-1 $306 $582 #
ellipse-curve $-1 7.2033212037336156 -30.177887748250299 10.290106114038993 0 -0.82903758062907751 0.55919289150049634 1 0 0 1 I I #
point $-1 8.2033212037336156 -32.677246169907562 11.975944603582635 #
plane-surface $-1 0 0 13.955391339022505 0 0 1 1 0 0 forward_v I I I I #
coedge $-1 $476 $475 $468 $583 forward $310 $-1 #
coedge $-1 $468 $312 $314 $472 reversed $191 $-1 #
coedge $-1 $312 $467 $466 $583 reversed $191 $-1 #
coedge $-1 $320 $315 $312 $470 forward $321 $-1 #
edge $-1 $473 -17.367030417745127 $584 -14.696723137532494 $469 $585 forward 7 unknown #
coedge $-1 $314 $313 $476 $586 reversed $119 $-1 #
edge $-1 $587 -68.024799620027764 $473 -63.24951130574442 $467 $588 forward 7 unknown #
vertex $-1 $316 $589 #
straight-curve $-1 -20.31255198417491 31.342092529801238 13.955391339022505 1 0 0 I I #
coedge $-1 $466 $317 $320 $480 reversed $310 $-1 #
coedge $-1 $317 $466 $471 $586 forward $310 $-1 #
vertex $-1 $318 $590 #
straight-curve $-1 -51.016295330964752 34.012399810013868 67.408506592027393 0 0 1 I I #
straight-curve $-1 -51.016295330964752 -4.0265845832513207 66.391613167908346 0 0.55919289150049634 -0.82903758062907751 I I #
edge $-1 $584 30.233912605734886 $322 51.016295330964752 $475 $591 forward 7 unknown #
point $-1 -51.016295330964752 34.012399810013868 13.955391339022505 #
point $-1 -51.016295330964752 31.342092529801235 13.955391339022505 #
edge $-1 $592 1 $592 0 $325 $-1 forward 7 unknown #
vertex $-1 $326 $593 #
ellipse-curve $-1 -40.625103968349819 30.177887748250299 10.290106114038975 0 0.82903758062907751 0.55919289150049634 1 0 0 1 I I #
point $-1 -39.625103968349819 32.677246169907562 11.975944603582617 #
plane-surface $-1 0 0 13.955391339022505 0 0 1 1 0 0 forward_v I I I I #
coedge $-1 $498 $497 $490 $594 forward $330 $-1 #
coedge $-1 $490 $332 $334 $494 reversed $206 $-1 #
coedge $-1 $332 $489 $488 $594 reversed $206 $-1 #
coedge $-1 $340 $335 $332 $492 forward $341 $-1 #
edge $-1 $495 -17.367030417745127 $595 -14.696723137532494 $491 $596 forward 7 unknown #
coedge $-1 $334 $333 $498 $597 reversed $128 $-1 #
edge $-1 $598 -68.024799620027764 $495 -63.24951130574442 $489 $599 forward 7 unknown #
vertex $-1 $336 $600 #
straight-curve $-1 3.6016606018668078 31.342092529801238 13.955391339022505 1 0 0 I I #
coedge $-1 $488 $337 $340 $502 reversed $330 $-1 #
coedge $-1 $337 $488 $493 $597 forward $330 $-1 #
vertex $-1 $338 $601 #
straight-curve $-1 -3.1878701588813154 34.012399810013868 67.408506592027393 0 0 1 I I #
straight-curve $-1 -3.1878701588813154 -4.0265845832513207 66.391613167908346 0 0.55919289150049634 -0.82903758062907751 I I #
edge $-1 $595 -17.594512566348548 $342 3.1878701588813154 $497 $602 forward 7 unknown #
point $-1 -3.1878701588813154 34.012399810013868 13.955391339022505 #
point $-1 -3.1878701588813154 31.342092529801235 13.955391339022505 #
edge $-1 $603 1 $603 0 $345 $-1 forward 7 unknown #
vertex $-1 $346 $604 #
ellipse-curve $-1 7.2033212037336156 30.177887748250299 10.290106114038975 0 0.82903758062907751 0.55919289150049634 1 0 0 1 I I #
point $-1 8.2033212037336156 32.677246169907562 11.975944603582617 #
plane-surface $-1 61.182287057100133 0 0 -1 0 0 0 0 1 forward_v I I I I #
coedge $-1 $354 $352 $356 $514 reversed $221 $-1 #
edge $-1 $367 -13.955391339022505 $516 13.955391339022505 $366 $605 forward 7 unknown #
vertex $-1 $514 $606 #
straight-curve $-1 -61.182287057100133 -34.012399810013868 0 0 0 -1 I I #
edge $-1 $512 -34.012399810013868 $516 34.012399810013868 $510 $607 forward 7 unknown #
straight-curve $-1 0 -34.012399810013868 -13.955391339022505 -1 0 0 I I #
vertex $-1 $359 $608 #
straight-curve $-1 0 34.012399810013868 -13.955391339022505 1 0 0 I I #
point $-1 61.182287057100133 34.012399810013868 -13.955391339022505 #
point $-1 61.182287057100133 -34.012399810013868 -13.955391339022505 #
straight-curve $-1 -61.182287057100133 0 13.955391339022505 0 -1 0 I I #
point $-1 -61.182287057100133 34.012399810013868 13.955391339022505 #
point $-1 -61.182287057100133 -34.012399810013868 13.955391339022505 #
straight-curve $-1 61.182287057100133 -34.012399810013868 0 0 0 -1 I I #
straight-curve $-1 61.182287057100133 34.012399810013868 0 0 0 -1 I I #
plane-surface $-1 0 34.012399810013868 0 0 -1 0 0 0 -1 forward_v I I I I #
coedge $-1 $380 $379 $609 $610 forward $145 $-1 #
edge $-1 $383 51.016295330964752 $611 61.182287057100133 $382 $612 forward 7 unknown #
coedge $-1 $388 $387 $380 $529 reversed $389 $-1 #
edge $-1 $613 -61.182287057100133 $530 -51.016295330964752 $528 $614 forward 7 unknown #
vertex $-1 $395 $615 #
straight-curve $-1 -51.016295330964752 0 -13.955391339022505 0 -1 0 I I #
point $-1 -51.016295330964752 -34.012399810013868 -13.955391339022505 #
coedge $-1 $609 $385 $388 $536 forward $377 $-1 #
coedge $-1 $385 $609 $392 $538 reversed $377 $-1 #
straight-curve $-1 -61.182287057100133 0 -10.511156292827401 0 1 0 I I #
edge $-1 $390 10.511156292827401 $613 13.955391339022505 $388 $616 forward 7 unknown #
point $-1 -61.18228705710014 34.012399810013868 -10.511156292827401 #
edge $-1 $393 10.511156292827401 $611 13.955391339022505 $534 $617 forward 7 unknown #
point $-1 -61.18228705710014 -34.012399810013868 -10.511156292827401 #
straight-curve $-1 -51.016295330964752 34.012399810013868 -6.1166369079624765 0 0 -1 I I #
plane-surface $-1 0 -34.012399810013868 0 0 1 0 0 0 1 forward_v I I I I #
coedge $-1 $543 $404 $556 $618 forward $399 $-1 #
coedge $-1 $546 $542 $401 $544 reversed $399 $-1 #
edge $-1 $552 -34.012399810013868 $558 34.012399810013868 $543 $619 forward 7 unknown #
edge $-1 $416 -8.2708660219489971 $547 8.27086602194899 $414 $620 forward 7 unknown #
coedge $-1 $404 $543 $406 $550 reversed $399 $-1 #
vertex $-1 $405 $621 #
vertex $-1 $405 $622 #
straight-curve $-1 77.724019100998134 0 3.7659845943824353 0 1 0 I I #
edge $-1 $548 -2.451935895195974 $552 2.451935895195974 $546 $623 forward 7 unknown #
straight-curve $-1 69.453153079049144 34.012399810013868 3.7659845943824353 -1 0 0 I I #
vertex $-1 $544 $624 #
straight-curve $-1 69.453153079049144 34.012399810013868 -1.1378871960095127 1 0 0 I I #
point $-1 61.182287057100147 34.012399810013868 3.7659845943824353 #
straight-curve $-1 61.182287057100133 0 3.7659845943824353 0 1 0 I I #
coedge $-1 $414 $413 $542 $618 reversed $415 $-1 #
point $-1 61.182287057100147 -34.012399810013868 3.7659845943824353 #
vertex $-1 $618 $625 #
straight-curve $-1 69.453153079049144 -34.012399810013868 -1.1378871960095127 -1 0 0 I I #
edge $-1 $561 33.716215334165092 $564 36.386522614377711 $422 $626 forward 7 unknown #
vertex $-1 $426 $627 #
straight-curve $-1 -30.233912605734886 -34.012399810013868 39.210948942144597 0 0 1 I I #
edge $-1 $564 9.9213606215599768 $433 30.703743346789842 $432 $628 forward 7 unknown #
vertex $-1 $563 $629 #
straight-curve $-1 -30.233912605734886 -34.012399810013875 9.9964978681427539 0 -0.55919289150049634 -0.82903758062907751 I I #
point $-1 -30.233912605734886 -34.012399810013868 9.9964978681427645 #
point $-1 -51.016295330964752 -31.342092529801253 13.955391339022505 #
straight-curve $-1 0 -34.012399810013868 13.955391339022505 1 0 0 I I #
vertex $-1 $439 $630 #
point $-1 -39.625103968349819 -30.177887748250299 10.290106114038993 #
coedge $-1 $454 $453 $446 $572 forward $443 $-1 #
edge $-1 $573 33.716215334165092 $576 36.386522614377711 $571 $631 forward 7 unknown #
vertex $-1 $572 $632 #
straight-curve $-1 17.594512566348548 -34.012399810013868 39.210948942144597 0 0 1 I I #
edge $-1 $576 -13.992851964481741 $455 6.7895307607481232 $454 $633 forward 7 unknown #
vertex $-1 $575 $634 #
straight-curve $-1 17.594512566348548 -34.012399810013875 9.9964978681427539 0 -0.55919289150049634 -0.82903758062907751 I I #
point $-1 17.594512566348548 -34.012399810013868 9.9964978681427645 #
point $-1 -3.1878701588813154 -31.342092529801253 13.955391339022505 #
straight-curve $-1 0 -34.012399810013868 13.955391339022505 1 0 0 I I #
vertex $-1 $461 $635 #
point $-1 8.2033212037336156 -30.177887748250299 10.290106114038993 #
edge $-1 $584 53.453115253004889 $587 57.412008723884654 $466 $636 forward 7 unknown #
vertex $-1 $480 $637 #
straight-curve $-1 -30.233912605734886 48.709122947546362 13.955391339022505 0 1 0 I I #
edge $-1 $587 9.9213606215599768 $477 30.703743346789842 $476 $638 forward 7 unknown #
vertex $-1 $586 $639 #
straight-curve $-1 -30.233912605734886 -4.0265845832513207 66.391613167908346 0 -0.55919289150049634 0.82903758062907751 I I #
point $-1 -30.233912605734886 31.342092529801235 13.955391339022505 #
point $-1 -51.016295330964752 34.012399810013868 9.9964978681427397 #
straight-curve $-1 0 34.012399810013868 13.955391339022505 -1 0 0 I I #
vertex $-1 $483 $640 #
point $-1 -39.625103968349819 30.177887748250299 10.290106114038975 #
edge $-1 $595 53.453115253004889 $598 57.412008723884654 $488 $641 forward 7 unknown #
vertex $-1 $502 $642 #
straight-curve $-1 17.594512566348548 48.709122947546362 13.955391339022505 0 1 0 I I #
edge $-1 $598 -13.992851964481741 $499 6.7895307607481232 $498 $643 forward 7 unknown #
vertex $-1 $597 $644 #
straight-curve $-1 17.594512566348548 -4.0265845832513207 66.391613167908346 0 -0.55919289150049634 0.82903758062907751 I I #
point $-1 17.594512566348548 31.342092529801235 13.955391339022505 #
point $-1 -3.1878701588813154 34.012399810013868 9.9964978681427397 #
straight-curve $-1 0 34.012399810013868 13.955391339022505 -1 0 0 I I #
vertex $-1 $505 $645 #
point $-1 8.2033212037336156 30.177887748250299 10.290106114038975 #
straight-curve $-1 -61.182287057100133 34.012399810013868 0 0 0 -1 I I #
point $-1 -61.182287057100133 -34.012399810013868 -13.955391339022505 #
straight-curve $-1 -61.182287057100133 0 -13.955391339022505 0 1 0 I I #
point $-1 -61.182287057100133 34.012399810013868 -13.955391339022505 #
coedge $-1 $534 $533 $526 $610 reversed $377 $-1 #
edge $-1 $611 -34.012399810013868 $613 34.012399810013868 $609 $646 forward 7 unknown #
vertex $-1 $610 $647 #
straight-curve $-1 0 -34.012399810013868 -13.955391339022505 -1 0 0 I I #
vertex $-1 $529 $648 #
straight-curve $-1 0 34.012399810013868 -13.955391339022505 1 0 0 I I #
point $-1 -51.016295330964752 34.012399810013868 -13.955391339022505 #
straight-curve $-1 -61.182287057100133 34.012399810013868 0 0 0 -1 I I #
straight-curve $-1 -61.182287057100133 -34.012399810013868 0 0 0 -1 I I #
edge $-1 $547 -2.451935895195974 $558 2.451935895195974 $542 $649 forward 7 unknown #
straight-curve $-1 77.724019100998134 0 -1.1378871960095127 0 -1 0 I I #
straight-curve $-1 69.453153079049144 -34.012399810013868 3.7659845943824353 1 0 0 I I #
point $-1 77.724019100998134 -34.012399810013868 3.7659845943824353 #
point $-1 77.724019100998134 34.012399810013868 3.7659845943824353 #
straight-curve $-1 77.724019100998134 34.012399810013868 1.3140486991864613 0 0 -1 I I #
point $-1 77.724019100998134 34.012399810013868 -1.1378871960095127 #
point $-1 77.724019100998134 -34.012399810013868 -1.1378871960095127 #
straight-curve $-1 -30.233912605734886 -67.72861514417896 13.955391339022505 0 1 0 I I #
point $-1 -30.233912605734886 -34.012399810013868 13.955391339022505 #
straight-curve $-1 -20.31255198417491 -31.342092529801256 13.955391339022505 -1 0 0 I I #
point $-1 -30.233912605734886 -31.342092529801253 13.955391339022505 #
point $-1 -40.625103968349819 -29.348850167621222 9.7309132225384953 #
straight-curve $-1 17.594512566348548 -67.72861514417896 13.955391339022505 0 1 0 I I #
point $-1 17.594512566348548 -34.012399810013868 13.955391339022505 #
straight-curve $-1 3.6016606018668078 -31.342092529801256 13.955391339022505 -1 0 0 I I #
point $-1 17.594512566348548 -31.342092529801253 13.955391339022505 #
point $-1 7.2033212037336156 -29.348850167621222 9.7309132225384953 #
straight-curve $-1 -30.233912605734886 34.012399810013868 67.408506592027393 0 0 -1 I I #
point $-1 -30.233912605734886 34.012399810013868 13.955391339022505 #
straight-curve $-1 -20.31255198417491 34.012399810013868 9.9964978681427361 -1 0 0 I I #
point $-1 -30.233912605734886 34.012399810013868 9.9964978681427397 #
point $-1 -40.625103968349819 29.348850167621222 9.7309132225384776 #
straight-curve $-1 17.594512566348548 34.012399810013868 67.408506592027393 0 0 -1 I I #
point $-1 17.594512566348548 34.012399810013868 13.955391339022505 #
straight-curve $-1 3.6016606018668078 34.012399810013868 9.9964978681427361 -1 0 0 I I #
point $-1 17.594512566348548 34.012399810013868 9.9964978681427397 #
point $-1 7.2033212037336156 29.348850167621222 9.7309132225384776 #
straight-curve $-1 -61.182287057100133 0 -13.955391339022505 0 1 0 I I #
point $-1 -61.182287057100133 -34.012399810013868 -13.955391339022505 #
point $-1 -61.182287057100133 34.012399810013868 -13.955391339022505 #
straight-curve $-1 77.724019100998134 -34.012399810013868 1.3140486991864613 0 0 -1 I I #
End-of-ACIS-data 