500 0 7 0           
7 Unknown 11 ACIS 5.0 NT 24 Fri Mar 26 16:49:59 1999 
-1 9.9999999999999995e-007 1e-010 
body $-1 $7 $-1 $8 #
body $-1 $9 $-1 $10 #
body $-1 $11 $-1 $12 #
body $-1 $13 $-1 $14 #
body $-1 $15 $-1 $16 #
body $-1 $17 $-1 $18 #
body $-1 $19 $-1 $20 #
lump $-1 $-1 $21 $0 #
transform $-1 1 0 0 0 1 0 0 0 1 54.477980895413069 36.138484943295602 10.28855508562034 1 rotate no_reflect no_shear #
lump $-1 $-1 $22 $1 #
transform $-1 1 0 0 0 1 0 0 0 1 54.477980895413069 36.138484943295602 10.28855508562034 1 rotate no_reflect no_shear #
lump $-1 $-1 $23 $2 #
transform $-1 1 0 0 0 1 0 0 0 1 54.477980895413069 36.138484943295602 10.28855508562034 1 rotate no_reflect no_shear #
lump $-1 $-1 $24 $3 #
transform $-1 1 0 0 0 1 0 0 0 1 54.477980895413069 36.138484943295602 10.28855508562034 1 rotate no_reflect no_shear #
lump $-1 $-1 $25 $4 #
transform $-1 1 0 0 0 1 0 0 0 1 54.477980895413069 36.138484943295602 10.28855508562034 1 rotate no_reflect no_shear #
lump $-1 $-1 $26 $5 #
transform $-1 1 0 0 0 1 0 0 0 1 54.477980895413069 36.138484943295602 10.28855508562034 1 rotate no_reflect no_shear #
lump $-1 $-1 $27 $6 #
transform $-1 1 0 0 0 1 0 0 0 1 54.477980895413069 36.138484943295602 10.28855508562034 1 rotate no_reflect no_shear #
shell $-1 $-1 $-1 $28 $-1 $7 #
shell $-1 $-1 $-1 $29 $-1 $9 #
shell $-1 $-1 $-1 $30 $-1 $11 #
shell $-1 $-1 $-1 $31 $-1 $13 #
shell $-1 $-1 $-1 $32 $-1 $15 #
shell $-1 $-1 $-1 $33 $-1 $17 #
shell $-1 $-1 $-1 $34 $-1 $19 #
face $-1 $35 $36 $21 $-1 $37 forward single #
face $-1 $38 $39 $22 $-1 $40 reversed single #
face $-1 $41 $42 $23 $-1 $43 reversed single #
face $-1 $44 $45 $24 $-1 $46 reversed single #
face $-1 $47 $48 $25 $-1 $49 forward single #
face $-1 $50 $51 $26 $-1 $52 forward single #
face $-1 $53 $54 $27 $-1 $55 forward single #
face $-1 $56 $57 $21 $-1 $58 reversed single #
loop $-1 $-1 $59 $28 #
plane-surface $-1 0 0 10.28855508562034 0 0 1 1 0 0 forward_v I I I I #
face $-1 $60 $61 $22 $-1 $62 reversed single #
loop $-1 $-1 $63 $29 #
plane-surface $-1 -50.489342294877872 0 6.0935676392595219 0 0 1 1 0 0 forward_v I I I I #
face $-1 $64 $65 $23 $-1 $66 reversed single #
loop $-1 $-1 $67 $30 #
plane-surface $-1 50.489342294877872 0 6.0935676392595219 0 0 1 1 0 0 forward_v I I I I #
face $-1 $68 $69 $24 $-1 $70 reversed single #
loop $-1 $-1 $71 $31 #
plane-surface $-1 -32.926846436552268 -3.226373298692252 66.909722675735736 0 0.83867057594974714 0.54463902268945019 1 0 0 forward_v I I I I #
face $-1 $72 $73 $25 $-1 $74 forward single #
loop $-1 $75 $76 $32 #
cone-surface $-1 -41.071160791226504 33.513423939312688 7.4286108946327296 0 -0.83867057594974714 -0.54463902268945019 1 0 0 1 I I 0 1 1 forward I I I I #
face $-1 $77 $78 $26 $-1 $79 forward single #
loop $-1 $80 $81 $33 #
cone-surface $-1 -32.926846436552268 33.513423939312688 7.4286108946327296 0 -0.83867057594974714 -0.54463902268945019 1 0 0 1 I I 0 1 1 forward I I I I #
face $-1 $82 $83 $27 $-1 $84 forward single #
loop $-1 $85 $86 $34 #
cone-surface $-1 -24.782532081878021 33.513423939312688 7.4286108946327296 0 -0.83867057594974714 -0.54463902268945019 1 0 0 1 I I 0 1 1 forward I I I I #
face $-1 $87 $88 $21 $-1 $89 reversed single #
loop $-1 $-1 $90 $35 #
plane-surface $-1 0 0 -10.28855508562034 0 0 1 1 0 0 forward_v I I I I #
coedge $-1 $91 $92 $93 $94 forward $36 $-1 #
face $-1 $95 $96 $22 $-1 $97 reversed single #
loop $-1 $-1 $98 $38 #
plane-surface $-1 -46.500703694342675 0 8.19106136243993 -1 0 0 0 0 1 forward_v I I I I #
coedge $-1 $99 $100 $101 $102 forward $39 $-1 #
face $-1 $103 $104 $23 $-1 $105 forward single #
loop $-1 $-1 $106 $41 #
plane-surface $-1 46.500703694342675 0 8.19106136243993 1 0 0 0 0 -1 forward_v I I I I #
coedge $-1 $107 $108 $109 $110 reversed $42 $-1 #
face $-1 $111 $112 $24 $-1 $113 reversed single #
loop $-1 $-1 $114 $44 #
plane-surface $-1 -19.352989178761863 88.151785929578551 126.25139122168036 -1 0 0 0 0.83867057594974714 0.54463902268945019 forward_v I I I I #
coedge $-1 $115 $116 $117 $118 reversed $45 $-1 #
face $-1 $-1 $119 $25 $-1 $120 forward single #
loop $-1 $121 $122 $47 #
cone-surface $-1 -41.071160791226504 31.766349275520888 6.29404737858769 0 -0.83867057594974714 -0.54463902268945019 0.5 0 0 1 I I -0.70710678118654746 0.70710678118654746 0.5 forward I I I I #
loop $-1 $-1 $123 $32 #
coedge $-1 $76 $76 $124 $125 reversed $48 $-1 #
face $-1 $-1 $126 $26 $-1 $127 forward single #
loop $-1 $128 $129 $50 #
cone-surface $-1 -32.926846436552268 31.766349275520888 6.29404737858769 0 -0.83867057594974714 -0.54463902268945019 0.5 0 0 1 I I -0.70710678118654746 0.70710678118654746 0.5 forward I I I I #
loop $-1 $-1 $130 $33 #
coedge $-1 $81 $81 $131 $132 reversed $51 $-1 #
face $-1 $-1 $133 $27 $-1 $134 forward single #
loop $-1 $135 $136 $53 #
cone-surface $-1 -24.782532081878021 31.766349275520888 6.29404737858769 0 -0.83867057594974714 -0.54463902268945019 0.5 0 0 1 I I -0.70710678118654746 0.70710678118654746 0.5 forward I I I I #
loop $-1 $-1 $137 $34 #
coedge $-1 $86 $86 $138 $139 reversed $54 $-1 #
face $-1 $140 $141 $21 $-1 $142 reversed single #
loop $-1 $-1 $143 $56 #
plane-surface $-1 0 -36.138484943295602 0 0 1 0 0 0 1 forward_v I I I I #
coedge $-1 $144 $145 $146 $147 forward $57 $-1 #
coedge $-1 $148 $59 $149 $150 forward $36 $-1 #
coedge $-1 $59 $148 $151 $152 forward $36 $-1 #
coedge $-1 $153 $154 $59 $94 reversed $155 $-1 #
edge $-1 $156 -36.138484943295602 $157 36.138484943295602 $93 $158 forward 7 unknown #
face $-1 $159 $160 $22 $-1 $161 reversed single #
loop $-1 $-1 $162 $60 #
plane-surface $-1 0 36.138484943295602 0 0 -1 0 0 0 -1 forward_v I I I I #
coedge $-1 $101 $163 $164 $165 reversed $61 $-1 #
coedge $-1 $166 $63 $167 $168 reversed $39 $-1 #
coedge $-1 $63 $166 $169 $170 reversed $39 $-1 #
coedge $-1 $171 $98 $63 $102 reversed $61 $-1 #
edge $-1 $172 -36.138484943295602 $173 36.138484943295602 $101 $174 forward 7 unknown #
face $-1 $175 $176 $23 $-1 $177 reversed single #
loop $-1 $-1 $178 $64 #
plane-surface $-1 0 0 10.28855508562034 0 0 1 1 0 0 forward_v I I I I #
coedge $-1 $179 $180 $181 $182 reversed $65 $-1 #
coedge $-1 $183 $67 $184 $185 reversed $42 $-1 #
coedge $-1 $67 $183 $186 $187 reversed $42 $-1 #
coedge $-1 $188 $189 $67 $110 forward $190 $-1 #
edge $-1 $191 -36.138484943295602 $192 36.138484943295602 $109 $193 forward 7 unknown #
face $-1 $194 $195 $24 $-1 $196 forward single #
loop $-1 $-1 $197 $68 #
plane-surface $-1 0 36.138484943295602 0 0 -1 0 0 0 -1 forward_v I I I I #
coedge $-1 $198 $199 $200 $201 reversed $69 $-1 #
coedge $-1 $202 $71 $203 $204 reversed $45 $-1 #
coedge $-1 $71 $202 $198 $205 forward $45 $-1 #
coedge $-1 $200 $206 $71 $118 forward $195 $-1 #
edge $-1 $207 -30.037280476066542 $208 -2.8895659604857293 $117 $209 forward 7 unknown #
loop $-1 $-1 $124 $72 #
plane-surface $-1 -32.926846436552268 -3.226373298692252 66.909722675735736 0 0.83867057594974714 0.54463902268945019 1 0 0 forward_v I I I I #
loop $-1 $-1 $210 $47 #
coedge $-1 $122 $122 $123 $211 reversed $73 $-1 #
coedge $-1 $123 $123 $122 $211 forward $75 $-1 #
coedge $-1 $124 $124 $76 $125 forward $119 $-1 #
edge $-1 $212 -1.4897782135920807e-015 $212 6.2831853071795987 $124 $213 forward 7 unknown #
loop $-1 $-1 $131 $77 #
plane-surface $-1 -32.926846436552268 -3.226373298692252 66.909722675735736 0 0.83867057594974714 0.54463902268945019 1 0 0 forward_v I I I I #
loop $-1 $-1 $214 $50 #
coedge $-1 $129 $129 $130 $215 reversed $78 $-1 #
coedge $-1 $130 $130 $129 $215 forward $80 $-1 #
coedge $-1 $131 $131 $81 $132 forward $126 $-1 #
edge $-1 $216 -1.4897782135920807e-015 $216 6.2831853071795987 $131 $217 forward 7 unknown #
loop $-1 $-1 $138 $82 #
plane-surface $-1 -32.926846436552268 -3.226373298692252 66.909722675735736 0 0.83867057594974714 0.54463902268945019 1 0 0 forward_v I I I I #
loop $-1 $-1 $218 $53 #
coedge $-1 $136 $136 $137 $219 reversed $83 $-1 #
coedge $-1 $137 $137 $136 $219 forward $85 $-1 #
coedge $-1 $138 $138 $86 $139 forward $133 $-1 #
edge $-1 $220 -1.4897782135920807e-015 $220 6.2831853071795987 $138 $221 forward 7 unknown #
face $-1 $222 $223 $21 $-1 $224 reversed single #
loop $-1 $-1 $225 $87 #
plane-surface $-1 -54.477980895413069 0 0 1 0 0 0 0 -1 forward_v I I I I #
coedge $-1 $226 $151 $227 $228 forward $88 $-1 #
coedge $-1 $229 $90 $226 $230 forward $57 $-1 #
coedge $-1 $90 $229 $231 $232 forward $57 $-1 #
coedge $-1 $154 $153 $90 $147 reversed $155 $-1 #
edge $-1 $233 -36.138484943295602 $234 36.138484943295602 $146 $235 forward 7 unknown #
coedge $-1 $92 $91 $236 $237 forward $36 $-1 #
coedge $-1 $238 $239 $91 $150 reversed $223 $-1 #
edge $-1 $157 -54.477980895413069 $240 54.477980895413069 $149 $241 forward 7 unknown #
coedge $-1 $143 $242 $92 $152 reversed $88 $-1 #
edge $-1 $243 -54.477980895413069 $156 54.477980895413069 $151 $244 forward 7 unknown #
coedge $-1 $146 $93 $242 $245 forward $155 $-1 #
coedge $-1 $93 $146 $238 $246 reversed $155 $-1 #
loop $-1 $-1 $153 $222 #
vertex $-1 $94 $247 #
vertex $-1 $94 $248 #
straight-curve $-1 54.477980895413069 0 10.28855508562034 0 1 0 I I #
face $-1 $249 $250 $22 $-1 $251 forward single #
loop $-1 $-1 $252 $95 #
plane-surface $-1 -54.477980895413069 0 0 1 0 0 0 0 -1 forward_v I I I I #
coedge $-1 $169 $253 $171 $254 forward $96 $-1 #
coedge $-1 $98 $171 $255 $256 reversed $61 $-1 #
coedge $-1 $257 $167 $98 $165 forward $258 $-1 #
edge $-1 $173 1.9980369580395569 $259 6.1930244044003731 $164 $260 forward 7 unknown #
coedge $-1 $100 $99 $252 $261 reversed $39 $-1 #
coedge $-1 $164 $262 $99 $168 forward $258 $-1 #
edge $-1 $263 -29.233309747974133 $173 -21.256032546903739 $167 $264 forward 7 unknown #
coedge $-1 $265 $162 $100 $170 forward $96 $-1 #
edge $-1 $172 21.256032546903739 $266 29.233309747974133 $169 $267 forward 7 unknown #
coedge $-1 $163 $101 $162 $254 reversed $61 $-1 #
vertex $-1 $170 $268 #
vertex $-1 $168 $269 #
straight-curve $-1 -46.500703694342675 0 6.0935676392595219 0 -1 0 I I #
face $-1 $270 $271 $23 $-1 $272 reversed single #
loop $-1 $-1 $273 $103 #
plane-surface $-1 0 -36.138484943295602 0 0 1 0 0 0 1 forward_v I I I I #
coedge $-1 $274 $275 $180 $276 forward $104 $-1 #
coedge $-1 $277 $106 $183 $278 reversed $65 $-1 #
coedge $-1 $106 $277 $178 $276 reversed $65 $-1 #
coedge $-1 $279 $186 $106 $182 forward $271 $-1 #
edge $-1 $280 1.9980369580395569 $281 6.1930244044003731 $181 $282 forward 7 unknown #
coedge $-1 $108 $107 $179 $278 forward $42 $-1 #
coedge $-1 $283 $273 $107 $185 forward $176 $-1 #
edge $-1 $284 21.256032546903739 $191 29.233309747974133 $184 $285 forward 7 unknown #
coedge $-1 $181 $286 $108 $187 forward $271 $-1 #
edge $-1 $192 -29.233309747974133 $280 -21.256032546903739 $186 $287 forward 7 unknown #
coedge $-1 $288 $109 $286 $289 reversed $190 $-1 #
coedge $-1 $109 $288 $283 $290 forward $190 $-1 #
loop $-1 $-1 $109 $270 #
vertex $-1 $185 $291 #
vertex $-1 $110 $292 #
straight-curve $-1 54.477980895413069 0 6.0935676392595219 0 1 0 I I #
face $-1 $-1 $293 $24 $-1 $294 forward single #
loop $-1 $-1 $200 $111 #
plane-surface $-1 0 0 10.28855508562034 0 0 1 1 0 0 forward_v I I I I #
coedge $-1 $295 $296 $199 $297 forward $112 $-1 #
coedge $-1 $199 $114 $116 $205 reversed $69 $-1 #
coedge $-1 $114 $198 $197 $297 reversed $69 $-1 #
coedge $-1 $298 $117 $114 $201 forward $195 $-1 #
edge $-1 $208 -10.532051277825673 $299 -7.937408021493674 $200 $300 forward 7 unknown #
coedge $-1 $116 $115 $295 $301 reversed $45 $-1 #
coedge $-1 $302 $303 $115 $204 forward $293 $-1 #
edge $-1 $304 -46.775558735165696 $207 -42.01159003619231 $203 $305 forward 7 unknown #
edge $-1 $306 -72.276969886591218 $208 -67.513001187617817 $198 $307 forward 7 unknown #
coedge $-1 $117 $298 $302 $308 forward $195 $-1 #
vertex $-1 $204 $309 #
vertex $-1 $118 $310 #
straight-curve $-1 -16.463423218276134 33.54384168696361 10.288555085620338 1 0 0 I I #
coedge $-1 $210 $210 $-1 $311 reversed $121 $-1 #
edge $-1 $312 0 $312 6.2831853071796004 $122 $313 forward 7 unknown #
vertex $-1 $125 $314 #
ellipse-curve $-1 -41.071160791226504 34.841163315129606 8.2908548993330431 0 0.83867057594974714 0.54463902268945019 1 0 0 1 I I #
coedge $-1 $214 $214 $-1 $315 reversed $128 $-1 #
edge $-1 $316 0 $316 6.2831853071796004 $129 $317 forward 7 unknown #
vertex $-1 $132 $318 #
ellipse-curve $-1 -32.926846436552268 34.841163315129606 8.2908548993330431 0 0.83867057594974714 0.54463902268945019 1 0 0 1 I I #
coedge $-1 $218 $218 $-1 $319 reversed $135 $-1 #
edge $-1 $320 0 $320 6.2831853071796004 $136 $321 forward 7 unknown #
vertex $-1 $139 $322 #
ellipse-curve $-1 -24.782532081878021 34.841163315129606 8.2908548993330431 0 0.83867057594974714 0.54463902268945019 1 0 0 1 I I #
face $-1 $-1 $155 $21 $-1 $323 reversed single #
loop $-1 $-1 $238 $140 #
plane-surface $-1 0 36.138484943295602 0 0 -1 0 0 0 -1 forward_v I I I I #
coedge $-1 $324 $236 $239 $325 forward $141 $-1 #
coedge $-1 $242 $143 $144 $230 reversed $88 $-1 #
coedge $-1 $236 $324 $143 $228 reversed $141 $-1 #
edge $-1 $243 -10.28855508562034 $326 10.28855508562034 $227 $327 forward 7 unknown #
coedge $-1 $145 $144 $324 $328 forward $57 $-1 #
edge $-1 $234 -54.477980895413069 $326 54.477980895413069 $226 $329 forward 7 unknown #
coedge $-1 $239 $238 $145 $232 reversed $223 $-1 #
edge $-1 $330 -54.477980895413069 $233 54.477980895413069 $231 $331 forward 7 unknown #
vertex $-1 $147 $332 #
vertex $-1 $245 $333 #
straight-curve $-1 54.477980895413069 0 -10.28855508562034 0 -1 0 I I #
coedge $-1 $225 $227 $148 $237 reversed $141 $-1 #
edge $-1 $240 -36.138484943295602 $243 36.138484943295602 $236 $334 forward 7 unknown #
coedge $-1 $231 $149 $154 $246 forward $223 $-1 #
coedge $-1 $149 $231 $225 $325 reversed $223 $-1 #
vertex $-1 $150 $335 #
straight-curve $-1 0 36.138484943295602 10.28855508562034 -1 0 0 I I #
coedge $-1 $151 $226 $153 $245 reversed $88 $-1 #
vertex $-1 $237 $336 #
straight-curve $-1 0 -36.138484943295602 10.28855508562034 1 0 0 I I #
edge $-1 $156 -10.28855508562034 $234 10.28855508562034 $153 $337 forward 7 unknown #
edge $-1 $157 -10.28855508562034 $233 10.28855508562034 $154 $338 forward 7 unknown #
point $-1 54.477980895413069 -36.138484943295602 10.28855508562034 #
point $-1 54.477980895413069 36.138484943295602 10.28855508562034 #
face $-1 $-1 $258 $22 $-1 $339 reversed single #
loop $-1 $-1 $255 $159 #
plane-surface $-1 0 0 10.28855508562034 0 0 1 1 0 0 forward_v I I I I #
coedge $-1 $340 $341 $166 $261 forward $160 $-1 #
coedge $-1 $162 $265 $342 $343 reversed $96 $-1 #
edge $-1 $344 -6.1930244044003731 $172 -1.9980369580395569 $162 $345 forward 7 unknown #
coedge $-1 $342 $346 $163 $256 forward $250 $-1 #
edge $-1 $259 -36.138484943295602 $344 36.138484943295602 $255 $347 forward 7 unknown #
coedge $-1 $262 $164 $346 $348 reversed $258 $-1 #
loop $-1 $-1 $164 $249 #
vertex $-1 $165 $349 #
straight-curve $-1 -46.500703694342675 -36.138484943295602 4.095530681219965 0 0 1 I I #
edge $-1 $266 -36.138484943295602 $263 36.138484943295602 $252 $350 forward 7 unknown #
coedge $-1 $167 $257 $340 $351 forward $258 $-1 #
vertex $-1 $261 $352 #
straight-curve $-1 -25.244671147438936 -36.138484943295602 6.0935676392595219 1 0 0 I I #
coedge $-1 $253 $169 $341 $353 reversed $96 $-1 #
vertex $-1 $261 $354 #
straight-curve $-1 -25.244671147438936 36.138484943295602 6.0935676392595219 -1 0 0 I I #
point $-1 -46.500703694342675 36.138484943295602 6.0935676392595219 #
point $-1 -46.500703694342675 -36.138484943295602 6.0935676392595219 #
face $-1 $-1 $190 $23 $-1 $355 reversed single #
loop $-1 $-1 $181 $175 #
plane-surface $-1 0 36.138484943295602 0 0 -1 0 0 0 -1 forward_v I I I I #
coedge $-1 $184 $356 $277 $357 forward $176 $-1 #
coedge $-1 $358 $178 $356 $359 forward $104 $-1 #
coedge $-1 $178 $358 $279 $360 forward $104 $-1 #
edge $-1 $281 -36.138484943295602 $361 36.138484943295602 $178 $362 forward 7 unknown #
coedge $-1 $180 $179 $273 $357 reversed $65 $-1 #
edge $-1 $284 -36.138484943295602 $280 36.138484943295602 $179 $363 forward 7 unknown #
coedge $-1 $286 $181 $275 $360 reversed $271 $-1 #
vertex $-1 $187 $364 #
vertex $-1 $182 $365 #
straight-curve $-1 46.500703694342675 36.138484943295602 4.095530681219965 0 0 1 I I #
coedge $-1 $356 $184 $189 $290 reversed $176 $-1 #
vertex $-1 $185 $366 #
straight-curve $-1 25.244671147438936 -36.138484943295602 6.0935676392595219 1 0 0 I I #
coedge $-1 $186 $279 $188 $289 forward $271 $-1 #
straight-curve $-1 25.244671147438936 36.138484943295602 6.0935676392595219 -1 0 0 I I #
coedge $-1 $189 $188 $358 $367 reversed $190 $-1 #
edge $-1 $368 -10.28855508562034 $192 -6.0935676392595219 $188 $369 forward 7 unknown #
edge $-1 $370 -10.28855508562034 $191 -6.0935676392595219 $189 $371 forward 7 unknown #
point $-1 54.477980895413069 -36.138484943295602 6.0935676392595219 #
point $-1 54.477980895413069 36.138484943295602 6.0935676392595219 #
loop $-1 $-1 $203 $194 #
plane-surface $-1 -46.500703694342675 0 8.19106136243993 -1 0 0 0 0 1 forward_v I I I I #
coedge $-1 $372 $197 $202 $301 forward $112 $-1 #
coedge $-1 $197 $372 $298 $373 reversed $112 $-1 #
edge $-1 $299 52.837140525219844 $306 56.832540897794424 $197 $374 forward 7 unknown #
coedge $-1 $206 $200 $296 $373 forward $195 $-1 #
vertex $-1 $373 $375 #
straight-curve $-1 -19.352989178761863 44.075892964789276 10.288555085620338 0 1 0 I I #
edge $-1 $306 2.8895659604857293 $304 30.037280476066542 $295 $376 forward 7 unknown #
coedge $-1 $303 $203 $206 $308 reversed $293 $-1 #
coedge $-1 $203 $302 $372 $377 reversed $293 $-1 #
vertex $-1 $377 $378 #
straight-curve $-1 -46.500703694342675 10.662690348021984 45.522439497838398 0 -0.54463902268945019 0.83867057594974714 I I #
vertex $-1 $301 $379 #
straight-curve $-1 -19.352989178761863 -3.226373298692252 66.909722675735736 0 -0.54463902268945019 0.83867057594974714 I I #
edge $-1 $380 -36.138484943295602 $207 -33.543841686963603 $206 $381 forward 7 unknown #
point $-1 -46.500703694342675 33.543841686963603 10.288555085620338 #
point $-1 -19.352989178761863 33.543841686963603 10.288555085620338 #
edge $-1 $382 1 $382 0 $210 $-1 forward 7 unknown #
vertex $-1 $211 $383 #
ellipse-curve $-1 -41.071160791226504 32.185684563495762 6.5663668899324152 0 0.83867057594974714 0.54463902268945019 1 0 0 1 I I #
point $-1 -40.071160791226504 34.841163315129606 8.2908548993330449 #
edge $-1 $384 1 $384 0 $214 $-1 forward 7 unknown #
vertex $-1 $215 $385 #
ellipse-curve $-1 -32.926846436552268 32.185684563495762 6.5663668899324152 0 0.83867057594974714 0.54463902268945019 1 0 0 1 I I #
point $-1 -31.926846436552268 34.841163315129606 8.2908548993330449 #
edge $-1 $386 1 $386 0 $218 $-1 forward 7 unknown #
vertex $-1 $219 $387 #
ellipse-curve $-1 -24.782532081878021 32.185684563495762 6.5663668899324152 0 0.83867057594974714 0.54463902268945019 1 0 0 1 I I #
point $-1 -23.782532081878021 34.841163315129606 8.2908548993330449 #
plane-surface $-1 54.477980895413069 0 0 -1 0 0 0 0 1 forward_v I I I I #
coedge $-1 $227 $225 $229 $328 reversed $141 $-1 #
edge $-1 $240 -10.28855508562034 $330 10.28855508562034 $239 $388 forward 7 unknown #
vertex $-1 $328 $389 #
straight-curve $-1 -54.477980895413069 -36.138484943295602 0 0 0 -1 I I #
edge $-1 $326 -36.138484943295602 $330 36.138484943295602 $324 $390 forward 7 unknown #
straight-curve $-1 0 -36.138484943295602 -10.28855508562034 -1 0 0 I I #
vertex $-1 $232 $391 #
straight-curve $-1 0 36.138484943295602 -10.28855508562034 1 0 0 I I #
point $-1 54.477980895413069 36.138484943295602 -10.28855508562034 #
point $-1 54.477980895413069 -36.138484943295602 -10.28855508562034 #
straight-curve $-1 -54.477980895413069 0 10.28855508562034 0 -1 0 I I #
point $-1 -54.477980895413069 36.138484943295602 10.28855508562034 #
point $-1 -54.477980895413069 -36.138484943295602 10.28855508562034 #
straight-curve $-1 54.477980895413069 -36.138484943295602 0 0 0 -1 I I #
straight-curve $-1 54.477980895413069 36.138484943295602 0 0 0 -1 I I #
plane-surface $-1 0 -36.138484943295602 0 0 1 0 0 0 1 forward_v I I I I #
coedge $-1 $392 $252 $262 $351 reversed $160 $-1 #
coedge $-1 $252 $392 $265 $353 forward $160 $-1 #
coedge $-1 $393 $255 $253 $343 forward $250 $-1 #
edge $-1 $344 46.500703694342675 $394 54.477980895413069 $253 $395 forward 7 unknown #
vertex $-1 $343 $396 #
straight-curve $-1 -46.500703694342675 36.138484943295602 4.095530681219965 0 0 -1 I I #
coedge $-1 $255 $393 $257 $348 forward $250 $-1 #
straight-curve $-1 -46.500703694342675 0 10.28855508562034 0 1 0 I I #
edge $-1 $397 -54.477980895413069 $259 -46.500703694342675 $257 $398 forward 7 unknown #
point $-1 -46.500703694342675 -36.138484943295602 10.288555085620338 #
straight-curve $-1 -54.477980895413069 0 6.0935676392595219 0 -1 0 I I #
edge $-1 $397 -10.28855508562034 $263 -6.0935676392595219 $340 $399 forward 7 unknown #
point $-1 -54.477980895413069 -36.138484943295602 6.0935676392595219 #
edge $-1 $394 -10.28855508562034 $266 -6.0935676392595219 $265 $400 forward 7 unknown #
point $-1 -54.477980895413069 36.138484943295602 6.0935676392595219 #
plane-surface $-1 54.477980895413069 0 0 -1 0 0 0 0 1 forward_v I I I I #
coedge $-1 $273 $283 $274 $359 reversed $176 $-1 #
edge $-1 $361 -6.1930244044003731 $284 -1.9980369580395569 $273 $401 forward 7 unknown #
coedge $-1 $275 $274 $288 $367 forward $104 $-1 #
edge $-1 $361 46.500703694342675 $370 54.477980895413069 $356 $402 forward 7 unknown #
edge $-1 $368 -54.477980895413069 $281 -46.500703694342675 $279 $403 forward 7 unknown #
vertex $-1 $359 $404 #
straight-curve $-1 46.500703694342675 0 10.28855508562034 0 -1 0 I I #
straight-curve $-1 46.500703694342675 0 6.0935676392595219 0 1 0 I I #
point $-1 46.500703694342675 36.138484943295602 6.0935676392595219 #
point $-1 46.500703694342675 36.138484943295602 10.288555085620338 #
point $-1 46.500703694342675 -36.138484943295602 6.0935676392595219 #
edge $-1 $370 -36.138484943295602 $368 36.138484943295602 $288 $405 forward 7 unknown #
vertex $-1 $367 $406 #
straight-curve $-1 54.477980895413069 36.138484943295602 0 0 0 -1 I I #
vertex $-1 $367 $407 #
straight-curve $-1 54.477980895413069 -36.138484943295602 0 0 0 -1 I I #
coedge $-1 $296 $295 $303 $377 forward $112 $-1 #
edge $-1 $299 19.352989178761863 $380 46.500703694342675 $296 $408 forward 7 unknown #
straight-curve $-1 -19.352989178761863 36.138484943295602 63.125695610840182 0 0 -1 I I #
point $-1 -19.352989178761863 36.138484943295602 10.28855508562034 #
straight-curve $-1 -16.463423218276134 36.138484943295602 6.2931547130457623 -1 0 0 I I #
edge $-1 $304 2.1976240318257938 $380 6.1930244044003731 $372 $409 forward 7 unknown #
point $-1 -46.500703694342675 36.138484943295602 6.2931547130457588 #
point $-1 -19.352989178761863 36.138484943295602 6.2931547130457588 #
vertex $-1 $308 $410 #
straight-curve $-1 -46.500703694342675 0 10.28855508562034 0 -1 0 I I #
vertex $-1 $311 $411 #
point $-1 -40.071160791226504 32.185684563495762 6.5663668899324152 #
vertex $-1 $315 $412 #
point $-1 -31.926846436552268 32.185684563495762 6.5663668899324152 #
vertex $-1 $319 $413 #
point $-1 -23.782532081878021 32.185684563495762 6.5663668899324152 #
straight-curve $-1 -54.477980895413069 36.138484943295602 0 0 0 -1 I I #
point $-1 -54.477980895413069 -36.138484943295602 -10.28855508562034 #
straight-curve $-1 -54.477980895413069 0 -10.28855508562034 0 1 0 I I #
point $-1 -54.477980895413069 36.138484943295602 -10.28855508562034 #
coedge $-1 $341 $340 $393 $414 reversed $160 $-1 #
coedge $-1 $346 $342 $392 $414 forward $250 $-1 #
vertex $-1 $343 $415 #
straight-curve $-1 0 36.138484943295602 10.28855508562034 -1 0 0 I I #
point $-1 -46.500703694342675 36.138484943295602 10.288555085620338 #
vertex $-1 $414 $416 #
straight-curve $-1 0 -36.138484943295602 10.28855508562034 1 0 0 I I #
straight-curve $-1 -54.477980895413069 -36.138484943295602 0 0 0 -1 I I #
straight-curve $-1 -54.477980895413069 36.138484943295602 0 0 0 -1 I I #
straight-curve $-1 46.500703694342675 -36.138484943295602 4.095530681219965 0 0 -1 I I #
straight-curve $-1 0 -36.138484943295602 10.28855508562034 1 0 0 I I #
straight-curve $-1 0 36.138484943295602 10.28855508562034 -1 0 0 I I #
point $-1 46.500703694342675 -36.138484943295602 10.288555085620338 #
straight-curve $-1 54.477980895413069 0 10.28855508562034 0 1 0 I I #
point $-1 54.477980895413069 36.138484943295602 10.28855508562034 #
point $-1 54.477980895413069 -36.138484943295602 10.28855508562034 #
straight-curve $-1 0 36.138484943295602 10.28855508562034 -1 0 0 I I #
straight-curve $-1 -46.500703694342675 36.138484943295602 4.095530681219965 0 0 1 I I #
point $-1 -46.500703694342675 36.138484943295602 10.288555085620338 #
point $-1 -41.071160791226504 31.347013987546013 6.0217278672429648 #
point $-1 -32.926846436552268 31.347013987546013 6.0217278672429648 #
point $-1 -24.782532081878021 31.347013987546013 6.0217278672429648 #
edge $-1 $394 -36.138484943295602 $397 36.138484943295602 $392 $417 forward 7 unknown #
point $-1 -54.477980895413069 36.138484943295602 10.28855508562034 #
point $-1 -54.477980895413069 -36.138484943295602 10.28855508562034 #
straight-curve $-1 -54.477980895413069 0 10.28855508562034 0 -1 0 I I #
End-of-ACIS-data 