500 0 10 0           
7 Unknown 11 ACIS 5.0 NT 24 Fri Mar 26 00:26:18 1999 
-1 9.9999999999999995e-007 1e-010 
body $-1 $10 $-1 $11 #
body $-1 $12 $-1 $13 #
body $-1 $14 $-1 $15 #
body $-1 $16 $-1 $17 #
body $-1 $18 $-1 $19 #
body $-1 $20 $-1 $21 #
body $-1 $22 $-1 $23 #
body $-1 $24 $-1 $25 #
body $-1 $26 $-1 $27 #
body $-1 $28 $-1 $29 #
lump $-1 $-1 $30 $0 #
transform $-1 1 0 0 0 1 0 0 0 1 47.610095522934657 24.983567262143382 8.1816665200706744 1 rotate no_reflect no_shear #
lump $-1 $-1 $31 $1 #
transform $-1 1 0 0 0 1 0 0 0 1 47.610095522934657 24.983567262143382 8.1816665200706744 1 rotate no_reflect no_shear #
lump $-1 $-1 $32 $2 #
transform $-1 1 0 0 0 1 0 0 0 1 47.610095522934657 24.983567262143382 8.1816665200706744 1 rotate no_reflect no_shear #
lump $-1 $-1 $33 $3 #
transform $-1 1 0 0 0 1 0 0 0 1 47.610095522934657 24.983567262143382 8.1816665200706744 1 rotate no_reflect no_shear #
lump $-1 $-1 $34 $4 #
transform $-1 1 0 0 0 1 0 0 0 1 47.610095522934657 24.983567262143382 8.1816665200706744 1 rotate no_reflect no_shear #
lump $-1 $-1 $35 $5 #
transform $-1 1 0 0 0 1 0 0 0 1 47.610095522934657 24.983567262143382 8.1816665200706744 1 rotate no_reflect no_shear #
lump $-1 $-1 $36 $6 #
transform $-1 1 0 0 0 1 0 0 0 1 47.610095522934657 24.983567262143382 8.1816665200706744 1 rotate no_reflect no_shear #
lump $-1 $-1 $37 $7 #
transform $-1 1 0 0 0 1 0 0 0 1 47.610095522934657 24.983567262143382 8.1816665200706744 1 rotate no_reflect no_shear #
lump $-1 $-1 $38 $8 #
transform $-1 1 0 0 0 1 0 0 0 1 47.610095522934657 24.983567262143382 8.1816665200706744 1 rotate no_reflect no_shear #
lump $-1 $-1 $39 $9 #
transform $-1 1 0 0 0 1 0 0 0 1 47.610095522934657 24.983567262143382 8.1816665200706744 1 rotate no_reflect no_shear #
shell $-1 $-1 $-1 $40 $-1 $10 #
shell $-1 $-1 $-1 $41 $-1 $12 #
shell $-1 $-1 $-1 $42 $-1 $14 #
shell $-1 $-1 $-1 $43 $-1 $16 #
shell $-1 $-1 $-1 $44 $-1 $18 #
shell $-1 $-1 $-1 $45 $-1 $20 #
shell $-1 $-1 $-1 $46 $-1 $22 #
shell $-1 $-1 $-1 $47 $-1 $24 #
shell $-1 $-1 $-1 $48 $-1 $26 #
shell $-1 $-1 $-1 $49 $-1 $28 #
face $-1 $50 $51 $30 $-1 $52 forward single #
face $-1 $53 $54 $31 $-1 $55 reversed single #
face $-1 $56 $57 $32 $-1 $58 reversed single #
face $-1 $59 $60 $33 $-1 $61 reversed single #
face $-1 $62 $63 $34 $-1 $64 forward single #
face $-1 $65 $66 $35 $-1 $67 forward single #
face $-1 $68 $69 $36 $-1 $70 reversed single #
face $-1 $71 $72 $37 $-1 $73 forward single #
face $-1 $74 $75 $38 $-1 $76 reversed single #
face $-1 $77 $78 $39 $-1 $79 forward single #
face $-1 $80 $81 $30 $-1 $82 reversed single #
loop $-1 $-1 $83 $40 #
plane-surface $-1 0 0 8.1816665200706744 0 0 1 1 0 0 forward_v I I I I #
face $-1 $84 $85 $31 $-1 $86 reversed single #
loop $-1 $-1 $87 $41 #
plane-surface $-1 -36.446867188742679 -20.963429373726672 0 1 0 0 0 0 -1 forward_v I I I I #
face $-1 $88 $89 $32 $-1 $90 reversed single #
loop $-1 $-1 $91 $42 #
plane-surface $-1 -34.813455284255042 16.94329148530996 0 0 1 0 0 0 1 forward_v I I I I #
face $-1 $92 $93 $33 $-1 $94 reversed single #
loop $-1 $-1 $95 $43 #
plane-surface $-1 21.915435738824172 -10.696005460853751 137.18152957924454 0 -1 0 -0.55919291073839883 0 -0.82903756765294845 forward_v I I I I #
face $-1 $96 $97 $34 $-1 $98 forward single #
loop $-1 $99 $100 $44 #
cone-surface $-1 44.89344786713265 -15.158352621179619 6.0634872814184302 -0.55919291073839883 0 -0.82903756765294845 0.41451878382647422 0 -0.27959645536919941 1 I I 0 1 0.5 forward I I I I #
face $-1 $101 $102 $35 $-1 $103 forward single #
loop $-1 $104 $105 $45 #
cone-surface $-1 44.89344786713265 -12.480944324984099 6.0634872814184302 -0.55919291073839883 0 -0.82903756765294845 0.41451878382647422 0 -0.27959645536919941 1 I I 0 1 0.5 forward I I I I #
face $-1 $106 $107 $36 $-1 $108 reversed single #
loop $-1 $-1 $109 $46 #
plane-surface $-1 -104.9150377272185 -16.943291485309963 78.535771974874109 0 1 0 -0.6018150307709319 0 0.79863550430605224 forward_v I I I I #
face $-1 $110 $111 $37 $-1 $112 forward single #
loop $-1 $113 $114 $47 #
cone-surface $-1 -43.466357359782144 -12.781126930816562 4.8487282512984553 0.6018150307709319 0 -0.79863550430605224 0.79863550430605224 0 0.6018150307709319 1 I I 0 1 1 forward I I I I #
face $-1 $115 $116 $38 $-1 $117 reversed single #
loop $-1 $-1 $118 $48 #
plane-surface $-1 -104.9150377272185 -8.8817841970012523e-016 78.535771974874109 0 1 0 -0.6018150307709319 0 0.79863550430605224 forward_v I I I I #
face $-1 $119 $120 $39 $-1 $121 forward single #
loop $-1 $122 $123 $49 #
cone-surface $-1 -43.466357359782144 4.1621645544934012 4.8487282512984553 0.6018150307709319 0 -0.79863550430605224 0.79863550430605224 0 0.6018150307709319 1 I I 0 1 1 forward I I I I #
face $-1 $124 $125 $30 $-1 $126 reversed single #
loop $-1 $-1 $127 $50 #
plane-surface $-1 0 0 -8.1816665200706744 0 0 1 1 0 0 forward_v I I I I #
coedge $-1 $128 $129 $130 $131 forward $51 $-1 #
face $-1 $132 $133 $31 $-1 $134 reversed single #
loop $-1 $-1 $135 $53 #
plane-surface $-1 -34.813455284255042 -16.943291485309963 0 0 -1 0 0 0 -1 forward_v I I I I #
coedge $-1 $136 $137 $138 $139 forward $54 $-1 #
face $-1 $140 $141 $32 $-1 $142 reversed single #
loop $-1 $-1 $143 $56 #
plane-surface $-1 -36.446867188742679 20.963429373726669 0 1 0 0 0 0 -1 forward_v I I I I #
coedge $-1 $144 $145 $146 $147 forward $57 $-1 #
face $-1 $148 $149 $33 $-1 $150 reversed single #
loop $-1 $-1 $151 $59 #
plane-surface $-1 -31.331020053181909 -13.819648473081859 58.240414003127981 0.55919291073839883 0 0.82903756765294845 0.82903756765294845 0 -0.55919291073839883 forward_v I I I I #
coedge $-1 $152 $153 $154 $155 reversed $60 $-1 #
face $-1 $-1 $156 $34 $-1 $157 forward single #
loop $-1 $158 $159 $62 #
cone-surface $-1 44.399987897888337 -15.158352621179619 5.331902805327335 -0.55919291073839883 0 -0.82903756765294845 0.20725939191323711 0 -0.13979822768459971 1 I I -0.70710678118654746 0.70710678118654746 0.25 forward I I I I #
loop $-1 $-1 $160 $44 #
coedge $-1 $100 $100 $161 $162 reversed $63 $-1 #
face $-1 $-1 $163 $35 $-1 $164 forward single #
loop $-1 $165 $166 $65 #
cone-surface $-1 44.399987897888337 -12.480944324984099 5.331902805327335 -0.55919291073839883 0 -0.82903756765294845 0.20725939191323711 0 -0.13979822768459971 1 I I -0.70710678118654746 0.70710678118654746 0.25 forward I I I I #
loop $-1 $-1 $167 $45 #
coedge $-1 $105 $105 $168 $169 reversed $66 $-1 #
face $-1 $170 $171 $36 $-1 $172 reversed single #
loop $-1 $-1 $173 $68 #
plane-surface $-1 -47.61009552293465 -12.781126930816562 2.4895466788376268 -0.6018150307709319 0 0.79863550430605224 0.79863550430605224 0 0.6018150307709319 forward_v I I I I #
coedge $-1 $174 $175 $176 $177 reversed $69 $-1 #
face $-1 $-1 $178 $37 $-1 $179 forward single #
loop $-1 $180 $181 $71 #
cone-surface $-1 -42.798560685954335 -12.781126930816562 3.9625321509897322 0.6018150307709319 0 -0.79863550430605224 0.39931775215302612 0 0.30090751538546595 1 I I -0.70710678118654746 0.70710678118654746 0.5 forward I I I I #
loop $-1 $-1 $182 $47 #
coedge $-1 $114 $114 $183 $184 reversed $72 $-1 #
face $-1 $185 $186 $38 $-1 $187 reversed single #
loop $-1 $-1 $188 $74 #
plane-surface $-1 -47.61009552293465 4.1621645544934012 2.4895466788376268 -0.6018150307709319 0 0.79863550430605224 0.79863550430605224 0 0.6018150307709319 forward_v I I I I #
coedge $-1 $189 $190 $191 $192 reversed $75 $-1 #
face $-1 $-1 $193 $39 $-1 $194 forward single #
loop $-1 $195 $196 $77 #
cone-surface $-1 -42.798560685954335 4.1621645544934012 3.9625321509897322 0.6018150307709319 0 -0.79863550430605224 0.39931775215302612 0 0.30090751538546595 1 I I -0.70710678118654746 0.70710678118654746 0.5 forward I I I I #
loop $-1 $-1 $197 $49 #
coedge $-1 $123 $123 $198 $199 reversed $78 $-1 #
face $-1 $200 $201 $30 $-1 $202 reversed single #
loop $-1 $-1 $203 $80 #
plane-surface $-1 0 -24.983567262143382 0 0 1 0 0 0 1 forward_v I I I I #
coedge $-1 $204 $205 $206 $207 forward $81 $-1 #
coedge $-1 $208 $83 $209 $210 forward $51 $-1 #
coedge $-1 $83 $208 $211 $212 forward $51 $-1 #
coedge $-1 $213 $214 $83 $131 reversed $215 $-1 #
edge $-1 $216 -24.983567262143382 $217 24.983567262143382 $130 $218 forward 7 unknown #
face $-1 $219 $220 $31 $-1 $221 forward single #
loop $-1 $-1 $222 $84 #
plane-surface $-1 -33.180043379767405 -20.963429373726672 0 -1 0 0 0 0 1 forward_v I I I I #
coedge $-1 $223 $224 $225 $226 forward $85 $-1 #
coedge $-1 $227 $87 $228 $229 reversed $54 $-1 #
coedge $-1 $87 $227 $230 $231 reversed $54 $-1 #
coedge $-1 $224 $223 $87 $139 reversed $85 $-1 #
edge $-1 $232 -8.1816665200706744 $233 8.1816665200706744 $138 $234 forward 7 unknown #
face $-1 $235 $236 $32 $-1 $237 reversed single #
loop $-1 $-1 $238 $88 #
plane-surface $-1 -33.180043379767405 20.963429373726669 0 -1 0 0 0 0 1 forward_v I I I I #
coedge $-1 $239 $240 $241 $242 reversed $89 $-1 #
coedge $-1 $243 $91 $244 $245 reversed $57 $-1 #
coedge $-1 $91 $243 $246 $247 reversed $57 $-1 #
coedge $-1 $240 $239 $91 $147 reversed $89 $-1 #
edge $-1 $248 -8.1816665200706744 $249 8.1816665200706744 $146 $250 forward 7 unknown #
face $-1 $251 $252 $33 $-1 $253 forward single #
loop $-1 $-1 $254 $92 #
plane-surface $-1 21.915435738824172 -16.943291485309967 137.18152957924454 0 1 0 0.55919291073839883 0 0.82903756765294845 forward_v I I I I #
coedge $-1 $255 $256 $257 $258 reversed $93 $-1 #
coedge $-1 $153 $95 $259 $260 reversed $60 $-1 #
coedge $-1 $95 $152 $255 $261 reversed $60 $-1 #
coedge $-1 $257 $262 $95 $155 forward $252 $-1 #
edge $-1 $263 -36.652377653522571 $264 -31.926405825037932 $154 $265 forward 7 unknown #
loop $-1 $-1 $161 $96 #
plane-surface $-1 -31.331020053181909 -13.819648473081859 58.240414003127981 0.55919291073839883 0 0.82903756765294845 0.82903756765294845 0 -0.55919291073839883 forward_v I I I I #
loop $-1 $-1 $266 $62 #
coedge $-1 $159 $159 $160 $267 reversed $97 $-1 #
coedge $-1 $160 $160 $159 $267 forward $99 $-1 #
coedge $-1 $161 $161 $100 $162 forward $156 $-1 #
edge $-1 $268 0 $268 6.2831853071796004 $161 $269 forward 7 unknown #
loop $-1 $-1 $168 $101 #
plane-surface $-1 -31.331020053181909 -13.819648473081859 58.240414003127981 0.55919291073839883 0 0.82903756765294845 0.82903756765294845 0 -0.55919291073839883 forward_v I I I I #
loop $-1 $-1 $270 $65 #
coedge $-1 $166 $166 $167 $271 reversed $102 $-1 #
coedge $-1 $167 $167 $166 $271 forward $104 $-1 #
coedge $-1 $168 $168 $105 $169 forward $163 $-1 #
edge $-1 $272 0 $272 6.2831853071796004 $168 $273 forward 7 unknown #
face $-1 $274 $275 $36 $-1 $276 reversed single #
loop $-1 $-1 $277 $106 #
plane-surface $-1 -104.9150377272185 -8.6189623763231609 78.535771974874109 0 -1 0 0.6018150307709319 0 -0.79863550430605224 forward_v I I I I #
coedge $-1 $278 $279 $280 $281 reversed $107 $-1 #
coedge $-1 $175 $109 $282 $283 reversed $69 $-1 #
coedge $-1 $109 $174 $278 $284 reversed $69 $-1 #
coedge $-1 $280 $285 $109 $177 forward $286 $-1 #
edge $-1 $287 4.8474233406745952 $288 12.401121350094961 $176 $289 forward 7 unknown #
loop $-1 $-1 $183 $110 #
plane-surface $-1 -47.61009552293465 -12.781126930816562 2.4895466788376268 -0.6018150307709319 0 0.79863550430605224 0.79863550430605224 0 0.6018150307709319 forward_v I I I I #
loop $-1 $-1 $290 $71 #
coedge $-1 $181 $181 $182 $291 reversed $111 $-1 #
coedge $-1 $182 $182 $181 $291 forward $113 $-1 #
coedge $-1 $183 $183 $114 $184 forward $178 $-1 #
edge $-1 $292 0 $292 6.2831853071796004 $183 $293 forward 7 unknown #
face $-1 $294 $295 $38 $-1 $296 forward single #
loop $-1 $-1 $297 $115 #
plane-surface $-1 -104.9150377272185 8.3243291089868023 78.535771974874109 0 -1 0 0.6018150307709319 0 -0.79863550430605224 forward_v I I I I #
coedge $-1 $298 $299 $300 $301 reversed $116 $-1 #
coedge $-1 $190 $118 $302 $303 reversed $75 $-1 #
coedge $-1 $118 $189 $298 $304 reversed $75 $-1 #
coedge $-1 $300 $305 $118 $192 forward $295 $-1 #
edge $-1 $306 4.8474233406745952 $307 12.401121350094961 $191 $308 forward 7 unknown #
loop $-1 $-1 $198 $119 #
plane-surface $-1 -47.61009552293465 4.1621645544934012 2.4895466788376268 -0.6018150307709319 0 0.79863550430605224 0.79863550430605224 0 0.6018150307709319 forward_v I I I I #
loop $-1 $-1 $309 $77 #
coedge $-1 $196 $196 $197 $310 reversed $120 $-1 #
coedge $-1 $197 $197 $196 $310 forward $122 $-1 #
coedge $-1 $198 $198 $123 $199 forward $193 $-1 #
edge $-1 $311 0 $311 6.2831853071796004 $198 $312 forward 7 unknown #
face $-1 $313 $314 $30 $-1 $315 reversed single #
loop $-1 $-1 $316 $124 #
plane-surface $-1 -47.610095522934657 0 0 1 0 0 0 0 -1 forward_v I I I I #
coedge $-1 $317 $211 $318 $319 forward $125 $-1 #
coedge $-1 $320 $127 $317 $321 forward $81 $-1 #
coedge $-1 $127 $320 $322 $323 forward $81 $-1 #
coedge $-1 $214 $213 $127 $207 reversed $215 $-1 #
edge $-1 $324 -24.983567262143382 $325 24.983567262143382 $206 $326 forward 7 unknown #
coedge $-1 $129 $128 $327 $328 forward $51 $-1 #
coedge $-1 $329 $330 $128 $210 reversed $314 $-1 #
edge $-1 $217 -47.610095522934657 $331 47.610095522934657 $209 $332 forward 7 unknown #
coedge $-1 $203 $333 $129 $212 reversed $125 $-1 #
edge $-1 $334 -47.610095522934657 $216 47.610095522934657 $211 $335 forward 7 unknown #
coedge $-1 $206 $130 $333 $336 forward $215 $-1 #
coedge $-1 $130 $206 $329 $337 reversed $215 $-1 #
loop $-1 $-1 $213 $313 #
vertex $-1 $131 $338 #
vertex $-1 $131 $339 #
straight-curve $-1 47.610095522934657 0 8.1816665200706744 0 1 0 I I #
face $-1 $340 $341 $31 $-1 $342 reversed single #
loop $-1 $-1 $343 $132 #
plane-surface $-1 0 0 8.1816665200706744 0 0 1 1 0 0 forward_v I I I I #
coedge $-1 $344 $345 $346 $347 reversed $133 $-1 #
coedge $-1 $138 $135 $348 $349 reversed $85 $-1 #
coedge $-1 $135 $138 $350 $351 reversed $85 $-1 #
coedge $-1 $345 $344 $135 $226 reversed $133 $-1 #
edge $-1 $352 -8.1816665200706744 $353 8.1816665200706744 $225 $354 forward 7 unknown #
coedge $-1 $137 $136 $355 $356 reversed $54 $-1 #
coedge $-1 $348 $357 $136 $229 forward $341 $-1 #
edge $-1 $358 -14.501852575280045 $233 -6.461576798446627 $228 $359 forward 7 unknown #
coedge $-1 $360 $350 $137 $231 forward $220 $-1 #
edge $-1 $232 6.461576798446627 $361 14.501852575280045 $230 $362 forward 7 unknown #
vertex $-1 $231 $363 #
vertex $-1 $229 $364 #
straight-curve $-1 -36.446867188742679 -16.943291485309963 0 0 0 -1 I I #
face $-1 $365 $366 $32 $-1 $367 forward single #
loop $-1 $-1 $368 $140 #
plane-surface $-1 0 0 -8.1816665200706744 0 0 1 1 0 0 forward_v I I I I #
coedge $-1 $369 $370 $243 $371 forward $141 $-1 #
coedge $-1 $146 $143 $372 $373 reversed $89 $-1 #
coedge $-1 $143 $146 $374 $375 reversed $89 $-1 #
coedge $-1 $376 $377 $143 $242 forward $378 $-1 #
edge $-1 $379 -8.1816665200706744 $380 8.1816665200706744 $241 $381 forward 7 unknown #
coedge $-1 $145 $144 $238 $371 reversed $57 $-1 #
coedge $-1 $372 $368 $144 $245 forward $236 $-1 #
edge $-1 $382 15.773315737639884 $249 19.040139546615158 $244 $383 forward 7 unknown #
coedge $-1 $384 $374 $145 $247 forward $366 $-1 #
edge $-1 $248 -19.040139546615158 $385 -15.773315737639884 $246 $386 forward 7 unknown #
vertex $-1 $247 $387 #
vertex $-1 $245 $388 #
straight-curve $-1 -36.446867188742679 16.94329148530996 0 0 0 -1 I I #
face $-1 $-1 $389 $33 $-1 $390 reversed single #
loop $-1 $-1 $154 $148 #
plane-surface $-1 0 0 8.1816665200706744 0 0 1 1 0 0 forward_v I I I I #
coedge $-1 $391 $392 $393 $394 reversed $149 $-1 #
coedge $-1 $395 $151 $153 $261 forward $93 $-1 #
coedge $-1 $151 $395 $391 $396 forward $93 $-1 #
coedge $-1 $393 $154 $151 $258 forward $252 $-1 #
edge $-1 $264 3.7861812243128217 $397 10.033467248769037 $257 $398 forward 7 unknown #
coedge $-1 $399 $400 $152 $260 forward $389 $-1 #
edge $-1 $401 -63.596806578500377 $263 -60.409098269551592 $259 $402 forward 7 unknown #
edge $-1 $264 89.519638968520013 $401 95.220191045869313 $153 $403 forward 7 unknown #
coedge $-1 $154 $393 $399 $404 forward $252 $-1 #
vertex $-1 $155 $405 #
vertex $-1 $155 $406 #
straight-curve $-1 10.957717869412086 -10.696005460853751 8.181666520070678 -1 0 0 I I #
coedge $-1 $266 $266 $-1 $407 reversed $158 $-1 #
edge $-1 $408 0 $408 6.2831853071796004 $159 $409 forward 7 unknown #
vertex $-1 $162 $410 #
ellipse-curve $-1 45.247109608692355 -15.158352621179619 6.5878123655962737 0.55919291073839883 0 0.82903756765294845 0.41451878382647422 0 -0.27959645536919941 1 I I #
coedge $-1 $270 $270 $-1 $411 reversed $165 $-1 #
edge $-1 $412 0 $412 6.2831853071796004 $166 $413 forward 7 unknown #
vertex $-1 $169 $414 #
ellipse-curve $-1 45.247109608692355 -12.480944324984099 6.5878123655962737 0.55919291073839883 0 0.82903756765294845 0.41451878382647422 0 -0.27959645536919941 1 I I #
face $-1 $-1 $286 $36 $-1 $415 forward single #
loop $-1 $-1 $416 $170 #
plane-surface $-1 -47.610095522934657 0 0 1 0 0 0 0 -1 forward_v I I I I #
coedge $-1 $417 $418 $419 $420 reversed $171 $-1 #
coedge $-1 $421 $173 $175 $284 forward $107 $-1 #
coedge $-1 $173 $421 $417 $422 forward $107 $-1 #
coedge $-1 $419 $176 $173 $281 forward $286 $-1 #
edge $-1 $288 -10.552728019901682 $423 -2.2283989109148798 $280 $424 forward 7 unknown #
coedge $-1 $425 $426 $174 $283 forward $275 $-1 #
edge $-1 $427 -36.778339308599435 $287 -31.08621946736638 $282 $428 forward 7 unknown #
edge $-1 $288 -9.4582546965325491 $427 8.8817612989391469e-015 $175 $429 forward 7 unknown #
coedge $-1 $176 $419 $425 $430 forward $286 $-1 #
loop $-1 $-1 $419 $274 #
vertex $-1 $283 $431 #
vertex $-1 $177 $432 #
straight-curve $-1 -52.457518863609252 -16.943291485309963 8.181666520070678 1 0 0 I I #
coedge $-1 $290 $290 $-1 $433 reversed $180 $-1 #
edge $-1 $434 0 $434 6.2831853071796004 $181 $435 forward 7 unknown #
vertex $-1 $184 $436 #
ellipse-curve $-1 -43.833246518224477 -12.781126930816562 5.3356065994541444 -0.6018150307709319 0 0.79863550430605224 0.79863550430605224 0 0.6018150307709319 1 I I #
face $-1 $-1 $437 $38 $-1 $438 reversed single #
loop $-1 $-1 $191 $185 #
plane-surface $-1 0 0 8.1816665200706744 0 0 1 1 0 0 forward_v I I I I #
coedge $-1 $439 $440 $441 $442 reversed $186 $-1 #
coedge $-1 $443 $188 $190 $304 forward $116 $-1 #
coedge $-1 $188 $443 $439 $444 forward $116 $-1 #
coedge $-1 $441 $191 $188 $301 forward $295 $-1 #
edge $-1 $307 -2.0810822772467015 $445 6.2432468317401018 $300 $446 forward 7 unknown #
coedge $-1 $447 $448 $189 $303 forward $437 $-1 #
edge $-1 $449 -36.778339308599435 $306 -31.08621946736638 $302 $450 forward 7 unknown #
edge $-1 $307 -9.4582546965325491 $449 8.8817612989391469e-015 $190 $451 forward 7 unknown #
coedge $-1 $191 $441 $447 $452 forward $295 $-1 #
vertex $-1 $303 $453 #
vertex $-1 $192 $454 #
straight-curve $-1 -52.457518863609252 -8.8817841970012523e-016 8.181666520070678 1 0 0 I I #
coedge $-1 $309 $309 $-1 $455 reversed $195 $-1 #
edge $-1 $456 0 $456 6.2831853071796004 $196 $457 forward 7 unknown #
vertex $-1 $199 $458 #
ellipse-curve $-1 -43.833246518224477 4.1621645544934012 5.3356065994541444 -0.6018150307709319 0 0.79863550430605224 0.79863550430605224 0 0.6018150307709319 1 I I #
face $-1 $-1 $215 $30 $-1 $459 reversed single #
loop $-1 $-1 $329 $200 #
plane-surface $-1 0 24.983567262143382 0 0 -1 0 0 0 -1 forward_v I I I I #
coedge $-1 $460 $327 $330 $461 forward $201 $-1 #
coedge $-1 $333 $203 $204 $321 reversed $125 $-1 #
coedge $-1 $327 $460 $203 $319 reversed $201 $-1 #
edge $-1 $334 -8.1816665200706744 $462 8.1816665200706744 $318 $463 forward 7 unknown #
coedge $-1 $205 $204 $460 $464 forward $81 $-1 #
edge $-1 $325 -47.610095522934657 $462 47.610095522934657 $317 $465 forward 7 unknown #
coedge $-1 $330 $329 $205 $323 reversed $314 $-1 #
edge $-1 $466 -47.610095522934657 $324 47.610095522934657 $322 $467 forward 7 unknown #
vertex $-1 $207 $468 #
vertex $-1 $336 $469 #
straight-curve $-1 47.610095522934657 0 -8.1816665200706744 0 -1 0 I I #
coedge $-1 $316 $318 $208 $328 reversed $201 $-1 #
edge $-1 $331 -24.983567262143382 $334 24.983567262143382 $327 $470 forward 7 unknown #
coedge $-1 $322 $209 $214 $337 forward $314 $-1 #
coedge $-1 $209 $322 $316 $461 reversed $314 $-1 #
vertex $-1 $210 $471 #
straight-curve $-1 0 24.983567262143382 8.1816665200706744 -1 0 0 I I #
coedge $-1 $211 $317 $213 $336 reversed $125 $-1 #
vertex $-1 $328 $472 #
straight-curve $-1 0 -24.983567262143382 8.1816665200706744 1 0 0 I I #
edge $-1 $216 -8.1816665200706744 $325 8.1816665200706744 $213 $473 forward 7 unknown #
edge $-1 $217 -8.1816665200706744 $324 8.1816665200706744 $214 $474 forward 7 unknown #
point $-1 47.610095522934657 -24.983567262143382 8.1816665200706744 #
point $-1 47.610095522934657 24.983567262143382 8.1816665200706744 #
face $-1 $-1 $475 $31 $-1 $476 reversed single #
loop $-1 $-1 $477 $219 #
plane-surface $-1 0 0 -8.1816665200706744 0 0 1 1 0 0 forward_v I I I I #
coedge $-1 $350 $360 $345 $478 forward $220 $-1 #
coedge $-1 $225 $222 $477 $479 reversed $133 $-1 #
coedge $-1 $222 $225 $343 $478 reversed $133 $-1 #
coedge $-1 $480 $481 $222 $347 forward $475 $-1 #
edge $-1 $482 -8.1816665200706744 $483 8.1816665200706744 $346 $484 forward 7 unknown #
coedge $-1 $477 $228 $223 $349 forward $341 $-1 #
edge $-1 $233 -19.040139546615158 $353 -15.773315737639884 $348 $485 forward 7 unknown #
coedge $-1 $230 $343 $224 $351 forward $220 $-1 #
edge $-1 $352 15.773315737639884 $232 19.040139546615158 $350 $486 forward 7 unknown #
vertex $-1 $351 $487 #
vertex $-1 $349 $488 #
straight-curve $-1 -33.180043379767405 -16.943291485309963 0 0 0 -1 I I #
coedge $-1 $481 $480 $227 $356 forward $475 $-1 #
edge $-1 $361 -8.1816665200706744 $358 8.1816665200706744 $355 $489 forward 7 unknown #
coedge $-1 $228 $477 $481 $490 forward $341 $-1 #
vertex $-1 $229 $491 #
straight-curve $-1 -36.446867188742679 -10.481714686863336 -8.1816665200706744 0 1 0 I I #
coedge $-1 $343 $230 $480 $492 forward $220 $-1 #
vertex $-1 $492 $493 #
straight-curve $-1 -36.446867188742679 -10.481714686863336 8.1816665200706744 0 -1 0 I I #
point $-1 -36.446867188742679 -16.943291485309963 8.1816665200706744 #
point $-1 -36.446867188742679 -16.943291485309963 -8.1816665200706744 #
face $-1 $-1 $378 $32 $-1 $494 reversed single #
loop $-1 $-1 $384 $235 #
plane-surface $-1 0 0 8.1816665200706744 0 0 1 1 0 0 forward_v I I I I #
coedge $-1 $244 $495 $369 $496 forward $236 $-1 #
coedge $-1 $497 $238 $368 $496 reversed $141 $-1 #
coedge $-1 $238 $497 $384 $498 reversed $141 $-1 #
edge $-1 $385 -8.1816665200706744 $382 8.1816665200706744 $238 $499 forward 7 unknown #
coedge $-1 $495 $244 $239 $373 forward $236 $-1 #
edge $-1 $249 6.4615767984466252 $379 14.501852575280044 $372 $500 forward 7 unknown #
coedge $-1 $246 $501 $240 $375 forward $366 $-1 #
edge $-1 $380 -14.501852575280044 $248 -6.4615767984466252 $374 $502 forward 7 unknown #
coedge $-1 $503 $241 $501 $504 reversed $378 $-1 #
coedge $-1 $241 $503 $495 $505 reversed $378 $-1 #
loop $-1 $-1 $503 $365 #
vertex $-1 $505 $506 #
vertex $-1 $242 $507 #
straight-curve $-1 -36.446867188742679 24.983567262143382 0 0 0 1 I I #
vertex $-1 $245 $508 #
straight-curve $-1 -17.406727642127521 16.94329148530996 -8.1816665200706744 -1 0 0 I I #
coedge $-1 $501 $246 $370 $498 forward $366 $-1 #
vertex $-1 $247 $509 #
straight-curve $-1 -17.406727642127521 16.94329148530996 8.1816665200706744 1 0 0 I I #
point $-1 -36.446867188742679 16.94329148530996 8.1816665200706744 #
point $-1 -36.446867188742679 16.94329148530996 -8.1816665200706744 #
loop $-1 $-1 $259 $251 #
plane-surface $-1 47.610095522934657 0 0 -1 0 0 0 0 1 forward_v I I I I #
coedge $-1 $392 $254 $256 $396 reversed $149 $-1 #
coedge $-1 $254 $391 $510 $511 reversed $149 $-1 #
coedge $-1 $262 $257 $254 $394 forward $252 $-1 #
edge $-1 $397 31.926405825037932 $512 36.652377653522571 $393 $513 forward 7 unknown #
coedge $-1 $256 $255 $400 $514 reversed $93 $-1 #
edge $-1 $515 -95.220191045869313 $397 -89.519638968520013 $391 $516 forward 7 unknown #
vertex $-1 $258 $517 #
straight-curve $-1 42.884123694450025 -6.9098242365409295 8.181666520070678 0 -1 0 I I #
coedge $-1 $510 $259 $262 $404 reversed $389 $-1 #
coedge $-1 $259 $510 $395 $514 forward $389 $-1 #
vertex $-1 $260 $518 #
straight-curve $-1 47.610095522934657 -10.696005460853751 68.59076478962227 0 0 1 I I #
straight-curve $-1 -31.331020053181909 -10.696005460853751 58.240414003127981 0.82903756765294845 0 -0.55919291073839883 I I #
edge $-1 $512 -16.943291485309967 $263 -10.696005460853751 $399 $519 forward 7 unknown #
point $-1 47.610095522934657 -10.696005460853751 8.1816665200706744 #
point $-1 42.884123694450018 -10.696005460853751 8.181666520070678 #
edge $-1 $520 1 $520 0 $266 $-1 forward 7 unknown #
vertex $-1 $267 $521 #
ellipse-curve $-1 44.539786125572938 -15.158352621179619 5.5391621972405725 0.55919291073839883 0 0.82903756765294845 0.41451878382647422 0 -0.27959645536919941 1 I I #
point $-1 45.661628392518843 -15.158352621179619 6.3082159102270889 #
edge $-1 $522 1 $522 0 $270 $-1 forward 7 unknown #
vertex $-1 $271 $523 #
ellipse-curve $-1 44.539786125572938 -12.480944324984099 5.5391621972405725 0.55919291073839883 0 0.82903756765294845 0.41451878382647422 0 -0.27959645536919941 1 I I #
point $-1 45.661628392518843 -12.480944324984099 6.3082159102270889 #
plane-surface $-1 0 0 8.1816665200706744 0 0 1 1 0 0 forward_v I I I I #
coedge $-1 $426 $425 $418 $524 forward $275 $-1 #
coedge $-1 $418 $277 $279 $422 reversed $171 $-1 #
coedge $-1 $277 $417 $416 $524 reversed $171 $-1 #
coedge $-1 $285 $280 $277 $420 forward $286 $-1 #
edge $-1 $423 -12.401121350094961 $525 -4.8474233406745952 $419 $526 forward 7 unknown #
coedge $-1 $279 $278 $426 $527 reversed $107 $-1 #
edge $-1 $528 -8.8817612989391469e-015 $423 9.4582546965325491 $417 $529 forward 7 unknown #
vertex $-1 $281 $530 #
straight-curve $-1 -40.056397513514291 -6.390563465408281 8.1816665200706744 0 1 0 I I #
coedge $-1 $416 $282 $285 $430 reversed $275 $-1 #
coedge $-1 $282 $416 $421 $527 forward $275 $-1 #
vertex $-1 $283 $531 #
straight-curve $-1 -47.610095522934657 -16.943291485309963 39.267885987437054 0 0 1 I I #
straight-curve $-1 -47.61009552293465 -16.943291485309963 2.4895466788376268 -0.79863550430605224 0 -0.6018150307709319 I I #
edge $-1 $525 8.6189623763231609 $287 16.943291485309963 $425 $532 forward 7 unknown #
point $-1 -47.610095522934657 -16.943291485309963 8.1816665200706744 #
point $-1 -40.056397513514291 -16.943291485309963 8.1816665200706744 #
edge $-1 $533 1 $533 0 $290 $-1 forward 7 unknown #
vertex $-1 $291 $534 #
ellipse-curve $-1 -43.099468201339803 -12.781126930816562 4.3618499031427582 -0.6018150307709319 0 0.79863550430605224 0.79863550430605224 0 0.6018150307709319 1 I I #
point $-1 -43.034611013918429 -12.781126930816562 5.9374216302250833 #
loop $-1 $-1 $302 $294 #
plane-surface $-1 -47.610095522934657 0 0 1 0 0 0 0 -1 forward_v I I I I #
coedge $-1 $440 $297 $299 $444 reversed $186 $-1 #
coedge $-1 $297 $439 $535 $536 reversed $186 $-1 #
coedge $-1 $305 $300 $297 $442 forward $295 $-1 #
edge $-1 $445 -12.401121350094961 $537 -4.8474233406745952 $441 $538 forward 7 unknown #
coedge $-1 $299 $298 $448 $539 reversed $116 $-1 #
edge $-1 $540 -8.8817612989391469e-015 $445 9.4582546965325491 $439 $541 forward 7 unknown #
vertex $-1 $301 $542 #
straight-curve $-1 -40.056397513514291 2.0810822772467006 8.1816665200706744 0 1 0 I I #
coedge $-1 $535 $302 $305 $452 reversed $437 $-1 #
coedge $-1 $302 $535 $443 $539 forward $437 $-1 #
vertex $-1 $303 $543 #
straight-curve $-1 -47.610095522934657 -8.8817841970012523e-016 39.267885987437054 0 0 1 I I #
straight-curve $-1 -47.61009552293465 -8.8817841970012523e-016 2.4895466788376268 -0.79863550430605224 0 -0.6018150307709319 I I #
edge $-1 $537 -8.3243291089868023 $306 8.8817841970012523e-016 $447 $544 forward 7 unknown #
point $-1 -47.610095522934657 -8.8817841970012523e-016 8.1816665200706744 #
point $-1 -40.056397513514291 -8.8817841970012523e-016 8.1816665200706744 #
edge $-1 $545 1 $545 0 $309 $-1 forward 7 unknown #
vertex $-1 $310 $546 #
ellipse-curve $-1 -43.099468201339803 4.1621645544934012 4.3618499031427582 -0.6018150307709319 0 0.79863550430605224 0.79863550430605224 0 0.6018150307709319 1 I I #
point $-1 -43.034611013918429 4.1621645544934012 5.9374216302250833 #
plane-surface $-1 47.610095522934657 0 0 -1 0 0 0 0 1 forward_v I I I I #
coedge $-1 $318 $316 $320 $464 reversed $201 $-1 #
edge $-1 $331 -8.1816665200706744 $466 8.1816665200706744 $330 $547 forward 7 unknown #
vertex $-1 $464 $548 #
straight-curve $-1 -47.610095522934657 -24.983567262143382 0 0 0 -1 I I #
edge $-1 $462 -24.983567262143382 $466 24.983567262143382 $460 $549 forward 7 unknown #
straight-curve $-1 0 -24.983567262143382 -8.1816665200706744 -1 0 0 I I #
vertex $-1 $323 $550 #
straight-curve $-1 0 24.983567262143382 -8.1816665200706744 1 0 0 I I #
point $-1 47.610095522934657 24.983567262143382 -8.1816665200706744 #
point $-1 47.610095522934657 -24.983567262143382 -8.1816665200706744 #
straight-curve $-1 -47.610095522934657 0 8.1816665200706744 0 -1 0 I I #
point $-1 -47.610095522934657 24.983567262143382 8.1816665200706744 #
point $-1 -47.610095522934657 -24.983567262143382 8.1816665200706744 #
straight-curve $-1 47.610095522934657 -24.983567262143382 0 0 0 -1 I I #
straight-curve $-1 47.610095522934657 24.983567262143382 0 0 0 -1 I I #
loop $-1 $-1 $346 $340 #
plane-surface $-1 0 -24.983567262143382 0 0 1 0 0 0 1 forward_v I I I I #
coedge $-1 $357 $348 $344 $479 forward $341 $-1 #
edge $-1 $483 -14.501852575280045 $352 -6.461576798446627 $343 $551 forward 7 unknown #
edge $-1 $353 6.461576798446627 $482 14.501852575280045 $477 $552 forward 7 unknown #
coedge $-1 $355 $346 $360 $492 reversed $475 $-1 #
coedge $-1 $346 $355 $357 $490 reversed $475 $-1 #
vertex $-1 $490 $553 #
vertex $-1 $347 $554 #
straight-curve $-1 -33.180043379767405 -24.983567262143382 0 0 0 1 I I #
straight-curve $-1 -17.406727642127521 -16.943291485309963 -8.1816665200706744 1 0 0 I I #
straight-curve $-1 -17.406727642127521 -16.943291485309963 8.1816665200706744 -1 0 0 I I #
point $-1 -33.180043379767405 -16.943291485309963 8.1816665200706744 #
point $-1 -33.180043379767405 -16.943291485309963 -8.1816665200706744 #
straight-curve $-1 -36.446867188742679 -24.983567262143382 0 0 0 -1 I I #
edge $-1 $482 33.180043379767405 $358 36.446867188742679 $481 $555 forward 7 unknown #
point $-1 -36.446867188742679 -24.983567262143382 -8.1816665200706744 #
edge $-1 $361 -36.446867188742679 $483 -33.180043379767405 $480 $556 forward 7 unknown #
point $-1 -36.446867188742679 -24.983567262143382 8.1816665200706744 #
plane-surface $-1 0 24.983567262143382 0 0 -1 0 0 0 -1 forward_v I I I I #
coedge $-1 $368 $372 $377 $505 forward $236 $-1 #
edge $-1 $557 -14.501852575280044 $382 -6.4615767984466252 $368 $558 forward 7 unknown #
coedge $-1 $370 $369 $503 $559 reversed $141 $-1 #
edge $-1 $385 6.4615767984466252 $560 14.501852575280044 $384 $561 forward 7 unknown #
straight-curve $-1 -33.180043379767405 16.94329148530996 0 0 0 -1 I I #
straight-curve $-1 -36.446867188742679 10.481714686863334 -8.1816665200706744 0 1 0 I I #
coedge $-1 $374 $384 $376 $504 forward $366 $-1 #
straight-curve $-1 -36.446867188742679 10.481714686863334 8.1816665200706744 0 -1 0 I I #
coedge $-1 $377 $376 $497 $559 forward $378 $-1 #
edge $-1 $560 33.180043379767405 $380 36.446867188742679 $376 $562 forward 7 unknown #
edge $-1 $379 -36.446867188742679 $557 -33.180043379767405 $377 $563 forward 7 unknown #
point $-1 -36.446867188742679 24.983567262143378 -8.1816665200706744 #
point $-1 -36.446867188742679 24.983567262143378 8.1816665200706744 #
point $-1 -33.180043379767405 16.94329148530996 -8.1816665200706744 #
point $-1 -33.180043379767405 16.94329148530996 8.1816665200706744 #
coedge $-1 $400 $399 $392 $511 forward $389 $-1 #
edge $-1 $512 60.409098269551592 $515 63.596806578500377 $510 $564 forward 7 unknown #
vertex $-1 $404 $565 #
straight-curve $-1 10.957717869412086 -16.943291485309967 8.181666520070678 1 0 0 I I #
edge $-1 $515 -10.033467248769037 $401 -3.7861812243128217 $400 $566 forward 7 unknown #
vertex $-1 $514 $567 #
straight-curve $-1 -31.331020053181909 -16.943291485309967 58.240414003127981 -0.82903756765294845 0 0.55919291073839883 I I #
point $-1 42.884123694450018 -16.943291485309967 8.181666520070678 #
point $-1 47.610095522934664 -10.696005460853751 4.9939582111218925 #
straight-curve $-1 47.610095522934657 0 8.1816665200706744 0 1 0 I I #
vertex $-1 $407 $568 #
point $-1 44.954304909399411 -15.158352621179619 5.2595657418713726 #
vertex $-1 $411 $569 #
point $-1 44.954304909399411 -12.480944324984099 5.2595657418713726 #
edge $-1 $525 31.08621946736638 $528 36.778339308599435 $416 $570 forward 7 unknown #
vertex $-1 $430 $571 #
straight-curve $-1 -52.457518863609252 -8.6189623763231609 8.181666520070678 -1 0 0 I I #
edge $-1 $528 2.2283989109148798 $427 10.552728019901682 $426 $572 forward 7 unknown #
vertex $-1 $527 $573 #
straight-curve $-1 -47.61009552293465 -8.6189623763231609 2.4895466788376268 0.79863550430605224 0 0.6018150307709319 I I #
point $-1 -40.056397513514291 -8.6189623763231609 8.1816665200706744 #
point $-1 -47.610095522934657 -16.943291485309963 2.4895466788376215 #
straight-curve $-1 -47.610095522934657 0 8.1816665200706744 0 -1 0 I I #
vertex $-1 $433 $574 #
point $-1 -42.300832697033748 -12.781126930816562 4.96366493391369 #
coedge $-1 $448 $447 $440 $536 forward $437 $-1 #
edge $-1 $537 31.08621946736638 $540 36.778339308599435 $535 $575 forward 7 unknown #
vertex $-1 $452 $576 #
straight-curve $-1 -52.457518863609252 8.3243291089868023 8.181666520070678 -1 0 0 I I #
edge $-1 $540 -6.2432468317401018 $449 2.0810822772467015 $448 $577 forward 7 unknown #
vertex $-1 $539 $578 #
straight-curve $-1 -47.61009552293465 8.3243291089868023 2.4895466788376268 0.79863550430605224 0 0.6018150307709319 I I #
point $-1 -40.056397513514291 8.3243291089868023 8.1816665200706744 #
point $-1 -47.610095522934657 -8.8817841970012523e-016 2.4895466788376215 #
straight-curve $-1 -47.610095522934657 0 8.1816665200706744 0 -1 0 I I #
vertex $-1 $455 $579 #
point $-1 -42.300832697033748 4.1621645544934012 4.96366493391369 #
straight-curve $-1 -47.610095522934657 24.983567262143382 0 0 0 -1 I I #
point $-1 -47.610095522934657 -24.983567262143382 -8.1816665200706744 #
straight-curve $-1 -47.610095522934657 0 -8.1816665200706744 0 1 0 I I #
point $-1 -47.610095522934657 24.983567262143382 -8.1816665200706744 #
straight-curve $-1 -33.180043379767405 -10.481714686863336 8.1816665200706744 0 1 0 I I #
straight-curve $-1 -33.180043379767405 -10.481714686863336 -8.1816665200706744 0 -1 0 I I #
point $-1 -33.180043379767405 -24.983567262143382 -8.1816665200706744 #
point $-1 -33.180043379767405 -24.983567262143382 8.1816665200706744 #
straight-curve $-1 0 -24.983567262143382 -8.1816665200706744 -1 0 0 I I #
straight-curve $-1 0 -24.983567262143382 8.1816665200706744 1 0 0 I I #
vertex $-1 $559 $580 #
straight-curve $-1 -33.180043379767405 10.481714686863334 -8.1816665200706744 0 -1 0 I I #
edge $-1 $560 -8.1816665200706744 $557 8.1816665200706744 $503 $581 forward 7 unknown #
vertex $-1 $504 $582 #
straight-curve $-1 -33.180043379767405 10.481714686863334 8.1816665200706744 0 1 0 I I #
straight-curve $-1 0 24.983567262143382 8.1816665200706744 -1 0 0 I I #
straight-curve $-1 0 24.983567262143382 -8.1816665200706744 1 0 0 I I #
straight-curve $-1 47.610095522934657 -16.943291485309967 68.59076478962227 0 0 -1 I I #
point $-1 47.610095522934657 -16.943291485309967 8.1816665200706744 #
straight-curve $-1 47.610095522934657 -6.9098242365409295 4.993958211121889 0 1 0 I I #
point $-1 47.610095522934664 -16.943291485309967 4.9939582111218925 #
point $-1 44.260189670203737 -15.158352621179619 5.1246434134140975 #
point $-1 44.260189670203737 -12.480944324984099 5.1246434134140975 #
straight-curve $-1 -47.610095522934657 -8.6189623763231609 39.267885987437054 0 0 -1 I I #
point $-1 -47.610095522934657 -8.6189623763231609 8.1816665200706744 #
straight-curve $-1 -47.610095522934657 -6.390563465408281 2.4895466788376228 0 -1 0 I I #
point $-1 -47.610095522934657 -8.6189623763231609 2.4895466788376215 #
point $-1 -42.497653170568867 -12.781126930816562 3.5632143988367062 #
straight-curve $-1 -47.610095522934657 8.3243291089868023 39.267885987437054 0 0 -1 I I #
point $-1 -47.610095522934657 8.3243291089868023 8.1816665200706744 #
straight-curve $-1 -47.610095522934657 2.0810822772467006 2.4895466788376228 0 -1 0 I I #
point $-1 -47.610095522934657 8.3243291089868023 2.4895466788376215 #
point $-1 -42.497653170568867 4.1621645544934012 3.5632143988367062 #
point $-1 -33.180043379767405 24.983567262143378 -8.1816665200706744 #
straight-curve $-1 -33.180043379767405 24.983567262143382 0 0 0 -1 I I #
point $-1 -33.180043379767405 24.983567262143378 8.1816665200706744 #
End-of-ACIS-data 