500 0 6 0           
7 Unknown 11 ACIS 5.0 NT 24 Fri Mar 26 15:10:37 1999 
-1 9.9999999999999995e-007 1e-010 
body $-1 $6 $-1 $7 #
body $-1 $8 $-1 $9 #
body $-1 $10 $-1 $11 #
body $-1 $12 $-1 $13 #
body $-1 $14 $-1 $15 #
body $-1 $16 $-1 $17 #
lump $-1 $-1 $18 $0 #
transform $-1 1 0 0 0 1 0 0 0 1 69.521164586321603 29.957942193133409 11.614359656247167 1 rotate no_reflect no_shear #
lump $-1 $-1 $19 $1 #
transform $-1 1 0 0 0 1 0 0 0 1 69.521164586321603 29.957942193133409 11.614359656247167 1 rotate no_reflect no_shear #
lump $-1 $-1 $20 $2 #
transform $-1 1 0 0 0 1 0 0 0 1 69.521164586321603 29.957942193133409 11.614359656247167 1 rotate no_reflect no_shear #
lump $-1 $-1 $21 $3 #
transform $-1 1 0 0 0 1 0 0 0 1 69.521164586321603 29.957942193133409 11.614359656247167 1 rotate no_reflect no_shear #
lump $-1 $-1 $22 $4 #
transform $-1 1 0 0 0 1 0 0 0 1 69.521164586321603 29.957942193133409 11.614359656247167 1 rotate no_reflect no_shear #
lump $-1 $-1 $23 $5 #
transform $-1 1 0 0 0 1 0 0 0 1 69.521164586321603 29.957942193133409 11.614359656247167 1 rotate no_reflect no_shear #
shell $-1 $-1 $-1 $24 $-1 $6 #
shell $-1 $-1 $-1 $25 $-1 $8 #
shell $-1 $-1 $-1 $26 $-1 $10 #
shell $-1 $-1 $-1 $27 $-1 $12 #
shell $-1 $-1 $-1 $28 $-1 $14 #
shell $-1 $-1 $-1 $29 $-1 $16 #
face $-1 $30 $31 $18 $-1 $32 forward single #
face $-1 $33 $34 $19 $-1 $35 forward single #
face $-1 $36 $37 $20 $-1 $38 reversed single #
face $-1 $39 $40 $21 $-1 $41 forward single #
face $-1 $42 $43 $22 $-1 $44 forward single #
face $-1 $45 $46 $23 $-1 $47 forward single #
face $-1 $48 $49 $18 $-1 $50 reversed single #
loop $-1 $-1 $51 $24 #
plane-surface $-1 0 0 11.614359656247167 0 0 1 1 0 0 forward_v I I I I #
face $-1 $52 $53 $19 $-1 $54 reversed single #
loop $-1 $-1 $55 $25 #
plane-surface $-1 0 -29.957942193133409 0 0 1 0 0 0 1 forward_v I I I I #
face $-1 $56 $57 $20 $-1 $58 reversed single #
loop $-1 $-1 $59 $26 #
plane-surface $-1 -164.3478061887497 5.5053917995913935 107.589327796048 0 1 0 -0.68199836817093118 0 0.7313536940579346 forward_v I I I I #
face $-1 $60 $61 $21 $-1 $62 forward single #
loop $-1 $63 $64 $27 #
cone-surface $-1 -66.1163260665721 7.2160536335010583 8.3916063437026551 0.68199836817093118 0 -0.7313536940579346 0.3656768470289673 0 0.34099918408546559 1 I I 0 1 0.5 forward I I I I #
face $-1 $65 $66 $22 $-1 $67 forward single #
loop $-1 $68 $69 $28 #
cone-surface $-1 -66.1163260665721 9.7820463843655467 8.3916063437026551 0.68199836817093118 0 -0.7313536940579346 0.3656768470289673 0 0.34099918408546559 1 I I 0 1 0.5 forward I I I I #
face $-1 $70 $71 $23 $-1 $72 forward single #
loop $-1 $73 $74 $29 #
cone-surface $-1 -66.1163260665721 12.348039135230035 8.3916063437026551 0.68199836817093118 0 -0.7313536940579346 0.3656768470289673 0 0.34099918408546559 1 I I 0 1 0.5 forward I I I I #
face $-1 $75 $76 $18 $-1 $77 reversed single #
loop $-1 $-1 $78 $30 #
plane-surface $-1 0 0 -11.614359656247167 0 0 1 1 0 0 forward_v I I I I #
coedge $-1 $79 $80 $81 $82 forward $31 $-1 #
face $-1 $83 $84 $19 $-1 $85 reversed single #
loop $-1 $-1 $86 $33 #
plane-surface $-1 0 0 -11.614359656247167 0 0 1 1 0 0 forward_v I I I I #
coedge $-1 $87 $88 $89 $90 forward $34 $-1 #
face $-1 $91 $92 $20 $-1 $93 reversed single #
loop $-1 $-1 $94 $36 #
plane-surface $-1 -69.521164586321575 9.7820463843655396 5.9002067252160657 -0.68199836817093118 0 0.7313536940579346 0.7313536940579346 0 0.68199836817093118 forward_v I I I I #
coedge $-1 $95 $96 $97 $98 reversed $37 $-1 #
face $-1 $-1 $99 $21 $-1 $100 forward single #
loop $-1 $101 $102 $39 #
cone-surface $-1 -65.604827290443907 7.2160536335010583 7.8430910731592043 0.68199836817093118 0 -0.7313536940579346 0.18283842351448365 0 0.17049959204273279 1 I I -0.70710678118654746 0.70710678118654746 0.25 forward I I I I #
loop $-1 $-1 $103 $27 #
coedge $-1 $64 $64 $104 $105 reversed $40 $-1 #
face $-1 $-1 $106 $22 $-1 $107 forward single #
loop $-1 $108 $109 $42 #
cone-surface $-1 -65.604827290443907 9.7820463843655467 7.8430910731592043 0.68199836817093118 0 -0.7313536940579346 0.18283842351448365 0 0.17049959204273279 1 I I -0.70710678118654746 0.70710678118654746 0.25 forward I I I I #
loop $-1 $-1 $110 $28 #
coedge $-1 $69 $69 $111 $112 reversed $43 $-1 #
face $-1 $-1 $113 $23 $-1 $114 forward single #
loop $-1 $115 $116 $45 #
cone-surface $-1 -65.604827290443907 12.348039135230035 7.8430910731592043 0.68199836817093118 0 -0.7313536940579346 0.18283842351448365 0 0.17049959204273279 1 I I -0.70710678118654746 0.70710678118654746 0.25 forward I I I I #
loop $-1 $-1 $117 $29 #
coedge $-1 $74 $74 $118 $119 reversed $46 $-1 #
face $-1 $120 $121 $18 $-1 $122 reversed single #
loop $-1 $-1 $123 $48 #
plane-surface $-1 0 -29.957942193133409 0 0 1 0 0 0 1 forward_v I I I I #
coedge $-1 $124 $125 $126 $127 forward $49 $-1 #
coedge $-1 $128 $51 $129 $130 forward $31 $-1 #
coedge $-1 $51 $128 $131 $132 forward $31 $-1 #
coedge $-1 $133 $134 $51 $82 reversed $135 $-1 #
edge $-1 $136 -29.957942193133409 $137 29.957942193133409 $81 $138 forward 7 unknown #
face $-1 $139 $140 $19 $-1 $141 forward single #
loop $-1 $-1 $142 $52 #
plane-surface $-1 69.521164586321603 0 0 -1 0 0 0 0 1 forward_v I I I I #
coedge $-1 $143 $144 $145 $146 forward $53 $-1 #
coedge $-1 $145 $55 $142 $147 reversed $34 $-1 #
coedge $-1 $55 $145 $148 $149 reversed $34 $-1 #
coedge $-1 $150 $151 $55 $90 reversed $140 $-1 #
edge $-1 $152 -69.521164586321603 $153 69.521164586321603 $89 $154 forward 7 unknown #
face $-1 $155 $156 $20 $-1 $157 forward single #
loop $-1 $-1 $158 $56 #
plane-surface $-1 -164.3478061887497 14.058700969139686 107.589327796048 0 -1 0 0.68199836817093118 0 -0.7313536940579346 forward_v I I I I #
coedge $-1 $159 $160 $161 $162 reversed $57 $-1 #
coedge $-1 $96 $59 $163 $164 reversed $37 $-1 #
coedge $-1 $59 $95 $159 $165 reversed $37 $-1 #
coedge $-1 $161 $166 $59 $98 forward $156 $-1 #
edge $-1 $167 12.652738508053247 $168 18.780417179381352 $97 $169 forward 7 unknown #
loop $-1 $-1 $104 $60 #
plane-surface $-1 -69.521164586321575 9.7820463843655396 5.9002067252160657 -0.68199836817093118 0 0.7313536940579346 0.7313536940579346 0 0.68199836817093118 forward_v I I I I #
loop $-1 $-1 $170 $39 #
coedge $-1 $102 $102 $103 $171 reversed $61 $-1 #
coedge $-1 $103 $103 $102 $171 forward $63 $-1 #
coedge $-1 $104 $104 $64 $105 forward $99 $-1 #
edge $-1 $172 0 $172 6.2831853071796004 $104 $173 forward 7 unknown #
loop $-1 $-1 $111 $65 #
plane-surface $-1 -69.521164586321575 9.7820463843655396 5.9002067252160657 -0.68199836817093118 0 0.7313536940579346 0.7313536940579346 0 0.68199836817093118 forward_v I I I I #
loop $-1 $-1 $174 $42 #
coedge $-1 $109 $109 $110 $175 reversed $66 $-1 #
coedge $-1 $110 $110 $109 $175 forward $68 $-1 #
coedge $-1 $111 $111 $69 $112 forward $106 $-1 #
edge $-1 $176 0 $176 6.2831853071796004 $111 $177 forward 7 unknown #
loop $-1 $-1 $118 $70 #
plane-surface $-1 -69.521164586321575 9.7820463843655396 5.9002067252160657 -0.68199836817093118 0 0.7313536940579346 0.7313536940579346 0 0.68199836817093118 forward_v I I I I #
loop $-1 $-1 $178 $45 #
coedge $-1 $116 $116 $117 $179 reversed $71 $-1 #
coedge $-1 $117 $117 $116 $179 forward $73 $-1 #
coedge $-1 $118 $118 $74 $119 forward $113 $-1 #
edge $-1 $180 0 $180 6.2831853071796004 $118 $181 forward 7 unknown #
face $-1 $182 $183 $18 $-1 $184 reversed single #
loop $-1 $-1 $185 $75 #
plane-surface $-1 -69.521164586321603 0 0 1 0 0 0 0 -1 forward_v I I I I #
coedge $-1 $131 $186 $133 $187 reversed $76 $-1 #
coedge $-1 $188 $78 $186 $189 forward $49 $-1 #
coedge $-1 $78 $188 $190 $191 forward $49 $-1 #
coedge $-1 $134 $133 $78 $127 reversed $135 $-1 #
edge $-1 $192 -29.957942193133409 $193 29.957942193133409 $126 $194 forward 7 unknown #
coedge $-1 $80 $79 $195 $196 forward $31 $-1 #
coedge $-1 $197 $198 $79 $130 reversed $183 $-1 #
edge $-1 $137 -69.521164586321603 $199 69.521164586321603 $129 $200 forward 7 unknown #
coedge $-1 $201 $123 $80 $132 reversed $76 $-1 #
edge $-1 $202 -69.521164586321603 $136 69.521164586321603 $131 $203 forward 7 unknown #
coedge $-1 $126 $81 $123 $187 forward $135 $-1 #
coedge $-1 $81 $126 $197 $204 reversed $135 $-1 #
loop $-1 $-1 $133 $182 #
vertex $-1 $82 $205 #
vertex $-1 $82 $206 #
straight-curve $-1 69.521164586321603 0 11.614359656247167 0 1 0 I I #
face $-1 $207 $208 $19 $-1 $209 reversed single #
loop $-1 $-1 $151 $83 #
plane-surface $-1 0 -35.490013367819195 -6.9919387975442255 0 0 1 1 0 0 forward_v I I I I #
coedge $-1 $210 $211 $87 $147 forward $84 $-1 #
coedge $-1 $212 $86 $211 $213 forward $53 $-1 #
coedge $-1 $86 $212 $214 $215 forward $53 $-1 #
coedge $-1 $88 $87 $86 $146 reversed $34 $-1 #
edge $-1 $216 -69.521164586321603 $217 69.521164586321603 $86 $218 forward 7 unknown #
edge $-1 $217 -11.614359656247167 $153 -6.9919387975442255 $142 $219 forward 7 unknown #
coedge $-1 $214 $220 $88 $149 forward $221 $-1 #
edge $-1 $152 6.9919387975442255 $216 11.614359656247167 $148 $222 forward 7 unknown #
coedge $-1 $223 $89 $220 $224 forward $140 $-1 #
coedge $-1 $89 $223 $210 $225 forward $140 $-1 #
vertex $-1 $149 $226 #
vertex $-1 $225 $227 #
straight-curve $-1 0 -29.957942193133409 -6.9919387975442255 1 0 0 I I #
face $-1 $-1 $228 $20 $-1 $229 reversed single #
loop $-1 $-1 $97 $91 #
plane-surface $-1 0 0 11.614359656247167 0 0 1 1 0 0 forward_v I I I I #
coedge $-1 $230 $231 $232 $233 reversed $92 $-1 #
coedge $-1 $234 $94 $96 $165 forward $57 $-1 #
coedge $-1 $94 $234 $230 $235 forward $57 $-1 #
coedge $-1 $232 $97 $94 $162 forward $156 $-1 #
edge $-1 $168 0.61436860740862365 $236 9.167677776956916 $161 $237 forward 7 unknown #
coedge $-1 $238 $239 $95 $164 forward $228 $-1 #
edge $-1 $240 -47.894457172807961 $167 -42.180304241776831 $163 $241 forward 7 unknown #
edge $-1 $168 -8.3785434067181601 $240 3.8958409169770864e-014 $96 $242 forward 7 unknown #
coedge $-1 $97 $232 $238 $243 forward $156 $-1 #
vertex $-1 $164 $244 #
vertex $-1 $98 $245 #
straight-curve $-1 -82.17390309437485 5.5053917995913935 11.614359656247167 1 0 0 I I #
coedge $-1 $170 $170 $-1 $246 reversed $101 $-1 #
edge $-1 $247 0 $247 6.2831853071796004 $102 $248 forward 7 unknown #
vertex $-1 $105 $249 #
ellipse-curve $-1 -66.457325250657547 7.2160536335010583 8.757283190731604 -0.68199836817093118 0 0.7313536940579346 0.3656768470289673 0 0.34099918408546559 1 I I #
coedge $-1 $174 $174 $-1 $250 reversed $108 $-1 #
edge $-1 $251 0 $251 6.2831853071796004 $109 $252 forward 7 unknown #
vertex $-1 $112 $253 #
ellipse-curve $-1 -66.457325250657547 9.7820463843655467 8.757283190731604 -0.68199836817093118 0 0.7313536940579346 0.3656768470289673 0 0.34099918408546559 1 I I #
coedge $-1 $178 $178 $-1 $254 reversed $115 $-1 #
edge $-1 $255 0 $255 6.2831853071796004 $116 $256 forward 7 unknown #
vertex $-1 $119 $257 #
ellipse-curve $-1 -66.457325250657547 12.348039135230035 8.757283190731604 -0.68199836817093118 0 0.7313536940579346 0.3656768470289673 0 0.34099918408546559 1 I I #
face $-1 $-1 $135 $18 $-1 $258 reversed single #
loop $-1 $-1 $197 $120 #
plane-surface $-1 0 29.957942193133409 0 0 -1 0 0 0 -1 forward_v I I I I #
coedge $-1 $259 $195 $198 $260 forward $121 $-1 #
coedge $-1 $123 $201 $124 $189 reversed $76 $-1 #
edge $-1 $136 -11.614359656247167 $193 11.614359656247167 $133 $261 forward 7 unknown #
coedge $-1 $125 $124 $259 $262 forward $49 $-1 #
edge $-1 $193 -69.521164586321603 $263 69.521164586321603 $186 $264 forward 7 unknown #
coedge $-1 $198 $197 $125 $191 reversed $183 $-1 #
edge $-1 $265 -69.521164586321603 $192 69.521164586321603 $190 $266 forward 7 unknown #
vertex $-1 $127 $267 #
vertex $-1 $187 $268 #
straight-curve $-1 69.521164586321603 0 -11.614359656247167 0 -1 0 I I #
coedge $-1 $185 $269 $128 $196 reversed $121 $-1 #
edge $-1 $199 -29.957942193133409 $202 29.957942193133409 $195 $270 forward 7 unknown #
coedge $-1 $190 $129 $134 $204 forward $183 $-1 #
coedge $-1 $129 $190 $185 $260 reversed $183 $-1 #
vertex $-1 $130 $271 #
straight-curve $-1 0 29.957942193133409 11.614359656247167 -1 0 0 I I #
coedge $-1 $186 $131 $269 $272 forward $76 $-1 #
vertex $-1 $196 $273 #
straight-curve $-1 0 -29.957942193133409 11.614359656247167 1 0 0 I I #
edge $-1 $137 -11.614359656247167 $192 11.614359656247167 $134 $274 forward 7 unknown #
point $-1 69.521164586321603 -29.957942193133409 11.614359656247167 #
point $-1 69.521164586321603 29.957942193133409 11.614359656247167 #
face $-1 $-1 $221 $19 $-1 $275 reversed single #
loop $-1 $-1 $276 $139 #
plane-surface $-1 0 -41.022084542504984 -9.3031492268956963 0 1 0 0 0 1 forward_v I I I I #
coedge $-1 $277 $142 $151 $225 reversed $84 $-1 #
coedge $-1 $142 $277 $143 $213 reversed $84 $-1 #
coedge $-1 $144 $143 $278 $279 forward $53 $-1 #
edge $-1 $217 29.957942193133409 $280 41.022084542504984 $211 $281 forward 7 unknown #
coedge $-1 $282 $148 $144 $215 reversed $221 $-1 #
edge $-1 $283 -41.022084542504984 $216 -29.957942193133409 $214 $284 forward 7 unknown #
vertex $-1 $149 $285 #
vertex $-1 $213 $286 #
straight-curve $-1 0 -29.957942193133409 -11.614359656247167 1 0 0 I I #
straight-curve $-1 69.521164586321603 -29.957942193133409 0 0 0 1 I I #
coedge $-1 $148 $282 $150 $224 reversed $221 $-1 #
loop $-1 $-1 $148 $207 #
straight-curve $-1 -69.521164586321603 -29.957942193133409 0 0 0 -1 I I #
coedge $-1 $151 $150 $287 $288 forward $140 $-1 #
edge $-1 $152 -5.5320711746857896 $289 5.5320711746857896 $220 $290 forward 7 unknown #
edge $-1 $291 -5.5320711746857896 $153 5.5320711746857896 $210 $292 forward 7 unknown #
point $-1 -69.521164586321603 -29.957942193133405 -6.9919387975442255 #
point $-1 69.521164586321603 -29.957942193133405 -6.9919387975442255 #
loop $-1 $-1 $163 $155 #
plane-surface $-1 -69.521164586321603 0 0 1 0 0 0 0 -1 forward_v I I I I #
coedge $-1 $231 $158 $160 $235 reversed $92 $-1 #
coedge $-1 $158 $230 $293 $294 reversed $92 $-1 #
coedge $-1 $166 $161 $158 $233 forward $156 $-1 #
edge $-1 $236 -18.780417179381352 $295 -12.652738508053247 $232 $296 forward 7 unknown #
coedge $-1 $160 $159 $239 $297 reversed $57 $-1 #
edge $-1 $298 -3.8958409169770864e-014 $236 8.3785434067181601 $230 $299 forward 7 unknown #
vertex $-1 $162 $300 #
straight-curve $-1 -63.393485914993491 4.8910231921827698 11.614359656247167 0 1 0 I I #
coedge $-1 $293 $163 $166 $243 reversed $228 $-1 #
coedge $-1 $163 $293 $234 $297 forward $228 $-1 #
vertex $-1 $164 $301 #
straight-curve $-1 -69.521164586321603 5.5053917995913935 53.794663898023998 0 0 1 I I #
straight-curve $-1 -69.521164586321575 5.5053917995913935 5.9002067252160657 -0.7313536940579346 0 -0.68199836817093118 I I #
edge $-1 $295 -14.058700969139686 $167 -5.5053917995913935 $238 $302 forward 7 unknown #
point $-1 -69.521164586321603 5.5053917995913935 11.614359656247167 #
point $-1 -63.393485914993498 5.5053917995913935 11.614359656247167 #
edge $-1 $303 1 $303 0 $170 $-1 forward 7 unknown #
vertex $-1 $171 $304 #
ellipse-curve $-1 -65.775326882486638 7.2160536335010583 8.0259294966736885 -0.68199836817093118 0 0.7313536940579346 0.3656768470289673 0 0.34099918408546559 1 I I #
point $-1 -66.091648403628611 7.2160536335010583 9.0982823748170887 #
edge $-1 $305 1 $305 0 $174 $-1 forward 7 unknown #
vertex $-1 $175 $306 #
ellipse-curve $-1 -65.775326882486638 9.7820463843655467 8.0259294966736885 -0.68199836817093118 0 0.7313536940579346 0.3656768470289673 0 0.34099918408546559 1 I I #
point $-1 -66.091648403628611 9.7820463843655467 9.0982823748170887 #
edge $-1 $307 1 $307 0 $178 $-1 forward 7 unknown #
vertex $-1 $179 $308 #
ellipse-curve $-1 -65.775326882486638 12.348039135230035 8.0259294966736885 -0.68199836817093118 0 0.7313536940579346 0.3656768470289673 0 0.34099918408546559 1 I I #
point $-1 -66.091648403628611 12.348039135230035 9.0982823748170887 #
plane-surface $-1 69.521164586321603 0 0 -1 0 0 0 0 1 forward_v I I I I #
coedge $-1 $269 $185 $188 $262 reversed $121 $-1 #
edge $-1 $199 -11.614359656247167 $265 11.614359656247167 $198 $309 forward 7 unknown #
straight-curve $-1 69.521164586321603 -29.957942193133409 0 0 0 -1 I I #
edge $-1 $263 -29.957942193133409 $265 29.957942193133409 $259 $310 forward 7 unknown #
vertex $-1 $262 $311 #
straight-curve $-1 0 -29.957942193133409 -11.614359656247167 -1 0 0 I I #
vertex $-1 $191 $312 #
straight-curve $-1 0 29.957942193133409 -11.614359656247167 1 0 0 I I #
point $-1 69.521164586321603 29.957942193133409 -11.614359656247167 #
point $-1 69.521164586321603 -29.957942193133409 -11.614359656247167 #
coedge $-1 $195 $259 $201 $272 reversed $121 $-1 #
straight-curve $-1 -69.521164586321603 0 11.614359656247167 0 -1 0 I I #
point $-1 -69.521164586321603 29.957942193133409 11.614359656247167 #
edge $-1 $202 -11.614359656247167 $263 11.614359656247167 $269 $313 forward 7 unknown #
point $-1 -69.521164586321603 -29.957942193133409 11.614359656247167 #
straight-curve $-1 69.521164586321603 29.957942193133409 0 0 0 -1 I I #
plane-surface $-1 -69.521164586321603 0 0 1 0 0 0 0 -1 forward_v I I I I #
coedge $-1 $278 $287 $282 $314 forward $208 $-1 #
coedge $-1 $211 $210 $315 $316 forward $84 $-1 #
coedge $-1 $315 $276 $212 $279 reversed $208 $-1 #
edge $-1 $280 -69.521164586321603 $283 69.521164586321603 $278 $317 forward 7 unknown #
vertex $-1 $316 $318 #
straight-curve $-1 69.521164586321603 0 -11.614359656247167 0 -1 0 I I #
coedge $-1 $220 $214 $276 $314 reversed $221 $-1 #
vertex $-1 $215 $319 #
straight-curve $-1 -69.521164586321603 0 -11.614359656247167 0 1 0 I I #
point $-1 -69.521164586321603 -29.957942193133409 -11.614359656247167 #
point $-1 69.521164586321603 -29.957942193133409 -11.614359656247167 #
coedge $-1 $276 $315 $223 $288 reversed $208 $-1 #
edge $-1 $289 -69.521164586321603 $291 69.521164586321603 $287 $320 forward 7 unknown #
vertex $-1 $224 $321 #
straight-curve $-1 -69.521164586321603 -35.490013367819195 -6.9919387975442255 0 -1 0 I I #
vertex $-1 $225 $322 #
straight-curve $-1 69.521164586321603 -35.490013367819195 -6.9919387975442255 0 1 0 I I #
coedge $-1 $239 $238 $231 $294 forward $228 $-1 #
edge $-1 $295 42.180304241776831 $298 47.894457172807961 $293 $323 forward 7 unknown #
vertex $-1 $243 $324 #
straight-curve $-1 -82.17390309437485 14.058700969139686 11.614359656247167 -1 0 0 I I #
edge $-1 $298 -9.167677776956916 $240 -0.61436860740862365 $239 $325 forward 7 unknown #
vertex $-1 $297 $326 #
straight-curve $-1 -69.521164586321575 14.058700969139686 5.9002067252160657 0.7313536940579346 0 0.68199836817093118 I I #
point $-1 -63.393485914993498 14.058700969139686 11.614359656247167 #
point $-1 -69.521164586321603 5.5053917995913935 5.9002067252160391 #
straight-curve $-1 -69.521164586321603 0 11.614359656247167 0 -1 0 I I #
vertex $-1 $246 $327 #
point $-1 -65.409650035457673 7.2160536335010583 8.3669286807591536 #
vertex $-1 $250 $328 #
point $-1 -65.409650035457673 9.7820463843655467 8.3669286807591536 #
vertex $-1 $254 $329 #
point $-1 -65.409650035457673 12.348039135230035 8.3669286807591536 #
straight-curve $-1 -69.521164586321603 29.957942193133409 0 0 0 -1 I I #
straight-curve $-1 -69.521164586321603 0 -11.614359656247167 0 1 0 I I #
point $-1 -69.521164586321603 -29.957942193133409 -11.614359656247167 #
point $-1 -69.521164586321603 29.957942193133409 -11.614359656247167 #
straight-curve $-1 -69.521164586321603 -29.957942193133409 0 0 0 -1 I I #
edge $-1 $289 -2.3112104293514708 $283 2.3112104293514708 $282 $330 forward 7 unknown #
coedge $-1 $287 $278 $277 $316 reversed $208 $-1 #
edge $-1 $291 -2.3112104293514708 $280 2.3112104293514708 $277 $331 forward 7 unknown #
straight-curve $-1 0 -41.022084542504984 -11.614359656247167 -1 0 0 I I #
point $-1 69.521164586321603 -41.022084542504984 -11.614359656247167 #
point $-1 -69.521164586321603 -41.022084542504984 -11.614359656247167 #
straight-curve $-1 0 -41.022084542504984 -6.9919387975442255 1 0 0 I I #
point $-1 -69.521164586321603 -41.022084542504984 -6.9919387975442255 #
point $-1 69.521164586321603 -41.022084542504984 -6.9919387975442255 #
straight-curve $-1 -69.521164586321603 14.058700969139686 53.794663898023998 0 0 -1 I I #
point $-1 -69.521164586321603 14.058700969139686 11.614359656247167 #
straight-curve $-1 -69.521164586321603 4.8910231921827698 5.9002067252160382 0 -1 0 I I #
point $-1 -69.521164586321603 14.058700969139686 5.9002067252160391 #
point $-1 -65.434327698401177 7.2160536335010583 7.660252649644721 #
point $-1 -65.434327698401177 9.7820463843655467 7.660252649644721 #
point $-1 -65.434327698401177 12.348039135230035 7.660252649644721 #
straight-curve $-1 -69.521164586321603 -41.022084542504984 -9.3031492268956963 0 0 -1 I I #
straight-curve $-1 69.521164586321603 -41.022084542504984 -9.3031492268956963 0 0 -1 I I #
End-of-ACIS-data 