500 0 5 0           
7 Unknown 11 ACIS 5.0 NT 24 Thu Mar 25 23:40:16 1999 
-1 9.9999999999999995e-007 1e-010 
body $-1 $5 $-1 $6 #
body $-1 $7 $-1 $8 #
body $-1 $9 $-1 $10 #
body $-1 $11 $-1 $12 #
body $-1 $13 $-1 $14 #
lump $-1 $-1 $15 $0 #
transform $-1 1 0 0 0 1 0 0 0 1 65.918759727774898 40.713841708019693 19.380668361258266 1 rotate no_reflect no_shear #
lump $-1 $-1 $16 $1 #
transform $-1 1 0 0 0 1 0 0 0 1 65.918759727774898 40.713841708019693 19.380668361258266 1 rotate no_reflect no_shear #
lump $-1 $-1 $17 $2 #
transform $-1 1 0 0 0 1 0 0 0 1 65.918759727774898 40.713841708019693 19.380668361258266 1 rotate no_reflect no_shear #
lump $-1 $-1 $18 $3 #
transform $-1 1 0 0 0 1 0 0 0 1 65.918759727774898 40.713841708019693 19.380668361258266 1 rotate no_reflect no_shear #
lump $-1 $-1 $19 $4 #
transform $-1 1 0 0 0 1 0 0 0 1 65.918759727774898 40.713841708019693 19.380668361258266 1 rotate no_reflect no_shear #
shell $-1 $-1 $-1 $20 $-1 $5 #
shell $-1 $-1 $-1 $21 $-1 $7 #
shell $-1 $-1 $-1 $22 $-1 $9 #
shell $-1 $-1 $-1 $23 $-1 $11 #
shell $-1 $-1 $-1 $24 $-1 $13 #
face $-1 $25 $26 $15 $-1 $27 forward single #
face $-1 $28 $29 $16 $-1 $30 forward single #
face $-1 $31 $32 $17 $-1 $33 reversed single #
face $-1 $34 $35 $18 $-1 $36 reversed single #
face $-1 $37 $38 $19 $-1 $39 reversed single #
face $-1 $40 $41 $15 $-1 $42 reversed single #
loop $-1 $-1 $43 $20 #
plane-surface $-1 0 0 19.380668361258266 0 0 1 1 0 0 forward_v I I I I #
face $-1 $44 $45 $16 $-1 $46 forward single #
loop $-1 $-1 $47 $21 #
plane-surface $-1 72.425647788510304 -26.101718917471402 201.53920120636278 0 -1 0 -0.73135370988377701 0 -0.68199835119979291 forward_v I I I I #
face $-1 $48 $49 $17 $-1 $50 reversed single #
loop $-1 $51 $52 $22 #
cone-surface $-1 63.606785454275951 -33.487490862633983 16.95252068288735 -0.73135370988377701 0 -0.68199835119979291 0.34099917559989645 0 -0.36567685494188851 1 I I 0 1 0.5 forward I I I I #
face $-1 $53 $54 $18 $-1 $55 reversed single #
loop $-1 $56 $57 $23 #
cone-surface $-1 63.606785454275951 -30.717826383198016 16.95252068288735 -0.73135370988377701 0 -0.68199835119979291 0.34099917559989645 0 -0.36567685494188851 1 I I 0 1 0.5 forward I I I I #
face $-1 $58 $59 $19 $-1 $60 reversed single #
loop $-1 $61 $62 $24 #
cone-surface $-1 63.606785454275951 -27.948161903762049 16.95252068288735 -0.73135370988377701 0 -0.68199835119979291 0.34099917559989645 0 -0.36567685494188851 1 I I 0 1 0.5 forward I I I I #
face $-1 $63 $64 $15 $-1 $65 reversed single #
loop $-1 $-1 $66 $25 #
plane-surface $-1 0 0 -19.380668361258266 0 0 1 1 0 0 forward_v I I I I #
coedge $-1 $67 $68 $69 $70 forward $26 $-1 #
face $-1 $71 $72 $16 $-1 $73 forward single #
loop $-1 $-1 $74 $28 #
plane-surface $-1 -23.994211167180666 -30.717826383198016 111.6262303114072 0.73135370988377701 0 0.68199835119979291 0.68199835119979291 0 -0.73135370988377701 forward_v I I I I #
coedge $-1 $75 $76 $77 $78 reversed $29 $-1 #
face $-1 $79 $80 $17 $-1 $81 forward single #
loop $-1 $82 $83 $31 #
cone-surface $-1 63.058270171863114 -33.487490862633983 16.441021919487504 -0.73135370988377701 0 -0.68199835119979291 0.17049958779994823 0 -0.18283842747094425 1 I I -0.70710678118654746 0.70710678118654746 0.25 forward I I I I #
loop $-1 $-1 $84 $22 #
coedge $-1 $52 $52 $85 $86 reversed $32 $-1 #
face $-1 $87 $88 $18 $-1 $89 reversed single #
loop $-1 $90 $91 $34 #
cone-surface $-1 63.058270171863114 -30.717826383198016 16.441021919487504 -0.73135370988377701 0 -0.68199835119979291 0.17049958779994823 0 -0.18283842747094425 1 I I -0.70710678118654746 0.70710678118654746 0.25 forward I I I I #
loop $-1 $-1 $92 $23 #
coedge $-1 $57 $57 $93 $94 reversed $35 $-1 #
face $-1 $95 $96 $19 $-1 $97 reversed single #
loop $-1 $98 $99 $37 #
cone-surface $-1 63.058270171863114 -27.948161903762049 16.441021919487504 -0.73135370988377701 0 -0.68199835119979291 0.17049958779994823 0 -0.18283842747094425 1 I I -0.70710678118654746 0.70710678118654746 0.25 forward I I I I #
loop $-1 $-1 $100 $24 #
coedge $-1 $62 $62 $101 $102 reversed $38 $-1 #
face $-1 $103 $104 $15 $-1 $105 reversed single #
loop $-1 $-1 $106 $40 #
plane-surface $-1 0 -40.713841708019693 0 0 1 0 0 0 1 forward_v I I I I #
coedge $-1 $107 $108 $109 $110 forward $41 $-1 #
coedge $-1 $111 $43 $112 $113 forward $26 $-1 #
coedge $-1 $43 $111 $114 $115 forward $26 $-1 #
coedge $-1 $116 $117 $43 $70 reversed $118 $-1 #
edge $-1 $119 -40.713841708019693 $120 40.713841708019693 $69 $121 forward 7 unknown #
face $-1 $122 $123 $16 $-1 $124 forward single #
loop $-1 $-1 $125 $44 #
plane-surface $-1 72.425647788510304 -35.33393384892463 201.53920120636278 0 1 0 0.73135370988377701 0 0.68199835119979291 forward_v I I I I #
coedge $-1 $126 $127 $128 $129 reversed $45 $-1 #
coedge $-1 $76 $47 $127 $130 forward $29 $-1 #
coedge $-1 $47 $75 $131 $132 reversed $29 $-1 #
coedge $-1 $133 $128 $47 $78 forward $123 $-1 #
edge $-1 $134 25.813340996405557 $135 29.705935833519746 $77 $136 forward 7 unknown #
face $-1 $137 $138 $17 $-1 $139 forward single #
loop $-1 $-1 $140 $48 #
plane-surface $-1 72.425647788510304 -26.101718917471402 201.53920120636278 0 -1 0 -0.73135370988377701 0 -0.68199835119979291 forward_v I I I I #
loop $-1 $-1 $141 $31 #
coedge $-1 $83 $83 $84 $142 forward $49 $-1 #
coedge $-1 $84 $84 $83 $142 reversed $51 $-1 #
coedge $-1 $85 $85 $52 $86 forward $138 $-1 #
edge $-1 $143 0 $143 6.2831853071796004 $85 $144 forward 7 unknown #
face $-1 $145 $146 $18 $-1 $147 reversed single #
loop $-1 $148 $149 $53 #
cone-surface $-1 63.606785454275951 -33.487490862633983 16.95252068288735 -0.73135370988377701 0 -0.68199835119979291 0.34099917559989645 0 -0.36567685494188851 1 I I 0 1 0.5 forward I I I I #
loop $-1 $-1 $150 $34 #
coedge $-1 $91 $91 $92 $151 forward $54 $-1 #
coedge $-1 $92 $92 $91 $151 reversed $56 $-1 #
coedge $-1 $93 $93 $57 $94 forward $152 $-1 #
edge $-1 $153 0 $153 6.2831853071796004 $93 $154 forward 7 unknown #
face $-1 $155 $156 $19 $-1 $157 reversed single #
loop $-1 $158 $159 $58 #
cone-surface $-1 63.606785454275951 -30.717826383198016 16.95252068288735 -0.73135370988377701 0 -0.68199835119979291 0.34099917559989645 0 -0.36567685494188851 1 I I 0 1 0.5 forward I I I I #
loop $-1 $-1 $160 $37 #
coedge $-1 $99 $99 $100 $161 forward $59 $-1 #
coedge $-1 $100 $100 $99 $161 reversed $61 $-1 #
coedge $-1 $101 $101 $62 $102 forward $162 $-1 #
edge $-1 $163 0 $163 6.2831853071796004 $101 $164 forward 7 unknown #
face $-1 $165 $166 $15 $-1 $167 reversed single #
loop $-1 $-1 $168 $63 #
plane-surface $-1 -65.918759727774898 0 0 1 0 0 0 0 -1 forward_v I I I I #
coedge $-1 $169 $114 $170 $171 forward $64 $-1 #
coedge $-1 $172 $66 $169 $173 forward $41 $-1 #
coedge $-1 $66 $172 $174 $175 forward $41 $-1 #
coedge $-1 $117 $116 $66 $110 reversed $118 $-1 #
edge $-1 $176 -40.713841708019693 $177 40.713841708019693 $109 $178 forward 7 unknown #
coedge $-1 $68 $67 $179 $180 forward $26 $-1 #
coedge $-1 $181 $182 $67 $113 reversed $166 $-1 #
edge $-1 $120 -65.918759727774898 $183 65.918759727774898 $112 $184 forward 7 unknown #
coedge $-1 $106 $185 $68 $115 reversed $64 $-1 #
edge $-1 $186 -65.918759727774898 $119 65.918759727774898 $114 $187 forward 7 unknown #
coedge $-1 $109 $69 $185 $188 forward $118 $-1 #
coedge $-1 $69 $109 $181 $189 reversed $118 $-1 #
loop $-1 $-1 $116 $165 #
vertex $-1 $70 $190 #
vertex $-1 $70 $191 #
straight-curve $-1 65.918759727774898 0 19.380668361258266 0 1 0 I I #
face $-1 $192 $193 $16 $-1 $194 reversed single #
loop $-1 $-1 $195 $71 #
plane-surface $-1 0 0 19.380668361258266 0 0 1 1 0 0 forward_v I I I I #
coedge $-1 $196 $197 $195 $198 reversed $72 $-1 #
coedge $-1 $199 $74 $197 $200 reversed $45 $-1 #
coedge $-1 $74 $199 $75 $130 reversed $45 $-1 #
coedge $-1 $77 $195 $74 $129 forward $123 $-1 #
edge $-1 $201 -19.975020657325622 $134 -10.742805725872394 $128 $202 forward 7 unknown #
edge $-1 $134 126.12988859358916 $203 131.83751945554977 $75 $204 forward 7 unknown #
coedge $-1 $205 $206 $76 $132 forward $207 $-1 #
edge $-1 $135 81.388932241923129 $203 85.563229247465145 $131 $208 forward 7 unknown #
coedge $-1 $209 $77 $206 $210 forward $123 $-1 #
vertex $-1 $129 $211 #
vertex $-1 $210 $212 #
straight-curve $-1 36.212823894255152 -26.101718917471402 19.380668361258273 1 0 0 I I #
face $-1 $213 $214 $17 $-1 $215 forward single #
loop $-1 $216 $85 $79 #
plane-surface $-1 -23.994211167180666 -30.717826383198016 111.6262303114072 0.73135370988377701 0 0.68199835119979291 0.68199835119979291 0 -0.73135370988377701 forward_v I I I I #
coedge $-1 $217 $218 $219 $220 reversed $80 $-1 #
coedge $-1 $141 $141 $-1 $221 forward $82 $-1 #
edge $-1 $222 0 $222 6.2831853071796004 $83 $223 forward 7 unknown #
vertex $-1 $86 $224 #
ellipse-curve $-1 63.972462309217832 -33.487490862633983 17.293519858487237 -0.73135370988377701 0 -0.68199835119979291 0.34099917559989645 0 -0.36567685494188851 1 I I #
face $-1 $225 $226 $18 $-1 $227 forward single #
loop $-1 $228 $229 $87 #
cone-surface $-1 63.058270171863114 -33.487490862633983 16.441021919487504 -0.73135370988377701 0 -0.68199835119979291 0.17049958779994823 0 -0.18283842747094425 1 I I -0.70710678118654746 0.70710678118654746 0.25 forward I I I I #
loop $-1 $-1 $230 $53 #
coedge $-1 $149 $149 $231 $232 reversed $88 $-1 #
coedge $-1 $150 $150 $-1 $233 forward $90 $-1 #
edge $-1 $234 0 $234 6.2831853071796004 $91 $235 forward 7 unknown #
loop $-1 $236 $93 $225 #
vertex $-1 $94 $237 #
ellipse-curve $-1 63.972462309217832 -30.717826383198016 17.293519858487237 -0.73135370988377701 0 -0.68199835119979291 0.34099917559989645 0 -0.36567685494188851 1 I I #
face $-1 $238 $239 $19 $-1 $240 reversed single #
loop $-1 $241 $242 $95 #
cone-surface $-1 63.058270171863114 -30.717826383198016 16.441021919487504 -0.73135370988377701 0 -0.68199835119979291 0.17049958779994823 0 -0.18283842747094425 1 I I -0.70710678118654746 0.70710678118654746 0.25 forward I I I I #
loop $-1 $-1 $243 $58 #
coedge $-1 $159 $159 $244 $245 reversed $96 $-1 #
coedge $-1 $160 $160 $-1 $246 forward $98 $-1 #
edge $-1 $247 0 $247 6.2831853071796004 $99 $248 forward 7 unknown #
loop $-1 $249 $101 $250 #
vertex $-1 $102 $251 #
ellipse-curve $-1 63.972462309217832 -27.948161903762049 17.293519858487237 -0.73135370988377701 0 -0.68199835119979291 0.34099917559989645 0 -0.36567685494188851 1 I I #
face $-1 $-1 $118 $15 $-1 $252 reversed single #
loop $-1 $-1 $181 $103 #
plane-surface $-1 0 40.713841708019693 0 0 -1 0 0 0 -1 forward_v I I I I #
coedge $-1 $253 $179 $182 $254 forward $104 $-1 #
coedge $-1 $185 $106 $107 $173 reversed $64 $-1 #
coedge $-1 $179 $253 $106 $171 reversed $104 $-1 #
edge $-1 $186 -19.380668361258266 $255 19.380668361258266 $170 $256 forward 7 unknown #
coedge $-1 $108 $107 $253 $257 forward $41 $-1 #
edge $-1 $177 -65.918759727774898 $255 65.918759727774898 $169 $258 forward 7 unknown #
coedge $-1 $182 $181 $108 $175 reversed $166 $-1 #
edge $-1 $259 -65.918759727774898 $176 65.918759727774898 $174 $260 forward 7 unknown #
vertex $-1 $110 $261 #
vertex $-1 $188 $262 #
straight-curve $-1 65.918759727774898 0 -19.380668361258266 0 -1 0 I I #
coedge $-1 $168 $170 $111 $180 reversed $104 $-1 #
edge $-1 $183 -40.713841708019693 $186 40.713841708019693 $179 $263 forward 7 unknown #
coedge $-1 $174 $112 $117 $189 forward $166 $-1 #
coedge $-1 $112 $174 $168 $254 reversed $166 $-1 #
vertex $-1 $113 $264 #
straight-curve $-1 0 40.713841708019693 19.380668361258266 -1 0 0 I I #
coedge $-1 $114 $169 $116 $188 reversed $64 $-1 #
vertex $-1 $180 $265 #
straight-curve $-1 0 -40.713841708019693 19.380668361258266 1 0 0 I I #
edge $-1 $119 -19.380668361258266 $177 19.380668361258266 $116 $266 forward 7 unknown #
edge $-1 $120 -19.380668361258266 $176 19.380668361258266 $117 $267 forward 7 unknown #
point $-1 65.918759727774898 -40.713841708019693 19.380668361258266 #
point $-1 65.918759727774898 40.713841708019693 19.380668361258266 #
face $-1 $268 $269 $16 $-1 $270 reversed single #
loop $-1 $-1 $271 $122 #
plane-surface $-1 0 0 -19.380668361258266 0 0 1 1 0 0 forward_v I I I I #
coedge $-1 $128 $272 $125 $198 forward $123 $-1 #
coedge $-1 $197 $125 $273 $274 reversed $72 $-1 #
coedge $-1 $125 $196 $126 $200 forward $72 $-1 #
edge $-1 $275 -29.705935833519746 $201 -25.813340996405557 $195 $276 forward 7 unknown #
coedge $-1 $127 $126 $205 $277 reversed $45 $-1 #
edge $-1 $278 -131.83751945554977 $201 -126.12988859358916 $197 $279 forward 7 unknown #
vertex $-1 $129 $280 #
straight-curve $-1 62.026164890660709 -15.358913191599008 19.380668361258266 0 1 0 I I #
vertex $-1 $277 $281 #
straight-curve $-1 -23.994211167180666 -26.101718917471402 111.6262303114072 0.68199835119979291 0 -0.73135370988377701 I I #
coedge $-1 $273 $131 $199 $277 forward $207 $-1 #
coedge $-1 $131 $282 $133 $210 reversed $207 $-1 #
loop $-1 $-1 $273 $283 #
straight-curve $-1 65.918759727774898 -26.101718917471402 100.76960060318139 0 0 -1 I I #
coedge $-1 $284 $133 $285 $286 forward $123 $-1 #
edge $-1 $135 -26.101718917471402 $287 40.713841708019693 $206 $288 forward 7 unknown #
point $-1 62.026164890660709 -26.101718917471402 19.380668361258273 #
point $-1 65.918759727774898 -26.101718917471402 19.380668361258266 #
face $-1 $289 $290 $17 $-1 $291 forward single #
loop $-1 $-1 $292 $137 #
plane-surface $-1 72.425647788510304 -35.33393384892463 201.53920120636278 0 1 0 0.73135370988377701 0 0.68199835119979291 forward_v I I I I #
loop $-1 $-1 $293 $79 #
coedge $-1 $218 $140 $294 $295 forward $80 $-1 #
coedge $-1 $140 $217 $296 $297 reversed $80 $-1 #
coedge $-1 $298 $299 $140 $220 forward $290 $-1 #
edge $-1 $300 25.813340996405557 $301 29.705935833519746 $219 $302 forward 7 unknown #
edge $-1 $303 1 $303 0 $141 $-1 forward 7 unknown #
vertex $-1 $142 $304 #
ellipse-curve $-1 63.241108599334055 -33.487490862633983 16.611521507287453 0.73135370988377701 0 0.68199835119979291 0.34099917559989645 0 -0.36567685494188851 1 I I #
point $-1 64.313461484817736 -33.487490862633983 16.927843003545355 #
face $-1 $305 $152 $18 $-1 $306 forward single #
loop $-1 $-1 $307 $145 #
plane-surface $-1 72.425647788510304 -26.101718917471402 201.53920120636278 0 -1 0 -0.73135370988377701 0 -0.68199835119979291 forward_v I I I I #
loop $-1 $-1 $308 $87 #
coedge $-1 $229 $229 $230 $309 forward $146 $-1 #
coedge $-1 $230 $230 $229 $309 reversed $148 $-1 #
coedge $-1 $231 $231 $149 $232 forward $236 $-1 #
edge $-1 $310 0 $310 6.2831853071796004 $231 $311 forward 7 unknown #
edge $-1 $312 1 $312 0 $150 $-1 forward 7 unknown #
vertex $-1 $151 $313 #
ellipse-curve $-1 63.241108599334055 -30.717826383198016 16.611521507287453 0.73135370988377701 0 0.68199835119979291 0.34099917559989645 0 -0.36567685494188851 1 I I #
loop $-1 $314 $231 $225 #
point $-1 64.313461484817736 -30.717826383198016 16.927843003545355 #
face $-1 $315 $316 $19 $-1 $317 reversed single #
loop $-1 $318 $319 $155 #
cone-surface $-1 63.606785454275951 -33.487490862633983 16.95252068288735 -0.73135370988377701 0 -0.68199835119979291 0.34099917559989645 0 -0.36567685494188851 1 I I 0 1 0.5 forward I I I I #
loop $-1 $-1 $320 $95 #
coedge $-1 $242 $242 $243 $321 forward $156 $-1 #
coedge $-1 $243 $243 $242 $321 reversed $158 $-1 #
coedge $-1 $244 $244 $159 $245 forward $249 $-1 #
edge $-1 $322 0 $322 6.2831853071796004 $244 $323 forward 7 unknown #
edge $-1 $324 1 $324 0 $160 $-1 forward 7 unknown #
vertex $-1 $161 $325 #
ellipse-curve $-1 63.241108599334055 -27.948161903762049 16.611521507287453 0.73135370988377701 0 0.68199835119979291 0.34099917559989645 0 -0.36567685494188851 1 I I #
loop $-1 $326 $244 $250 #
face $-1 $327 $162 $19 $-1 $328 forward single #
point $-1 64.313461484817736 -27.948161903762049 16.927843003545355 #
plane-surface $-1 65.918759727774898 0 0 -1 0 0 0 0 1 forward_v I I I I #
coedge $-1 $170 $168 $172 $257 reversed $104 $-1 #
edge $-1 $183 -19.380668361258266 $259 19.380668361258266 $182 $329 forward 7 unknown #
vertex $-1 $257 $330 #
straight-curve $-1 -65.918759727774898 -40.713841708019693 0 0 0 -1 I I #
edge $-1 $255 -40.713841708019693 $259 40.713841708019693 $253 $331 forward 7 unknown #
straight-curve $-1 0 -40.713841708019693 -19.380668361258266 -1 0 0 I I #
vertex $-1 $175 $332 #
straight-curve $-1 0 40.713841708019693 -19.380668361258266 1 0 0 I I #
point $-1 65.918759727774898 40.713841708019693 -19.380668361258266 #
point $-1 65.918759727774898 -40.713841708019693 -19.380668361258266 #
straight-curve $-1 -65.918759727774898 0 19.380668361258266 0 -1 0 I I #
point $-1 -65.918759727774898 40.713841708019693 19.380668361258266 #
point $-1 -65.918759727774898 -40.713841708019693 19.380668361258266 #
straight-curve $-1 65.918759727774898 -40.713841708019693 0 0 0 -1 I I #
straight-curve $-1 65.918759727774898 40.713841708019693 0 0 0 -1 I I #
face $-1 $333 $334 $16 $-1 $335 reversed single #
loop $-1 $-1 $336 $192 #
plane-surface $-1 0 -40.713841708019693 0 0 1 0 0 0 1 forward_v I I I I #
coedge $-1 $337 $338 $339 $340 forward $193 $-1 #
coedge $-1 $195 $341 $342 $343 forward $123 $-1 #
coedge $-1 $342 $205 $196 $274 forward $207 $-1 #
edge $-1 $278 -85.563229247465145 $275 -81.388932241923129 $273 $344 forward 7 unknown #
vertex $-1 $274 $345 #
straight-curve $-1 36.212823894255152 -35.33393384892463 19.380668361258273 -1 0 0 I I #
edge $-1 $203 10.742805725872394 $278 19.975020657325622 $205 $346 forward 7 unknown #
vertex $-1 $277 $347 #
straight-curve $-1 -23.994211167180666 -35.33393384892463 111.6262303114072 -0.68199835119979291 0 0.73135370988377701 I I #
point $-1 62.026164890660709 -35.33393384892463 19.380668361258273 #
point $-1 65.918759727774898 -26.101718917471402 15.206371355716243 #
coedge $-1 $206 $339 $348 $349 reversed $207 $-1 #
face $-1 $-1 $207 $16 $-1 $350 reversed single #
coedge $-1 $341 $209 $351 $352 forward $123 $-1 #
coedge $-1 $348 $353 $209 $286 reversed $354 $-1 #
edge $-1 $287 -65.918759727774898 $355 65.918759727774898 $285 $356 forward 7 unknown #
vertex $-1 $210 $357 #
straight-curve $-1 65.918759727774898 0 19.380668361258266 0 1 0 I I #
face $-1 $358 $359 $17 $-1 $360 reversed single #
loop $-1 $-1 $361 $213 #
plane-surface $-1 0 0 19.380668361258266 0 0 1 1 0 0 forward_v I I I I #
coedge $-1 $362 $363 $361 $364 reversed $214 $-1 #
coedge $-1 $365 $294 $299 $366 reversed $216 $-1 #
coedge $-1 $293 $367 $217 $295 reversed $216 $-1 #
edge $-1 $300 126.12988859358916 $368 131.83751945554977 $217 $369 forward 7 unknown #
coedge $-1 $370 $371 $218 $297 forward $372 $-1 #
edge $-1 $301 81.388932241923129 $368 85.563229247465145 $296 $373 forward 7 unknown #
coedge $-1 $374 $219 $371 $375 forward $290 $-1 #
coedge $-1 $219 $361 $293 $366 forward $290 $-1 #
vertex $-1 $366 $376 #
vertex $-1 $375 $377 #
straight-curve $-1 36.212823894255152 -26.101718917471402 19.380668361258273 1 0 0 I I #
vertex $-1 $221 $378 #
point $-1 63.582107774933952 -33.487490862633983 16.245844652345564 #
face $-1 $379 $380 $18 $-1 $381 forward single #
plane-surface $-1 -23.994211167180666 -30.717826383198016 111.6262303114072 0.73135370988377701 0 0.68199835119979291 0.68199835119979291 0 -0.73135370988377701 forward_v I I I I #
coedge $-1 $382 $383 $384 $385 reversed $226 $-1 #
coedge $-1 $308 $308 $-1 $386 forward $228 $-1 #
edge $-1 $387 0 $387 6.2831853071796004 $229 $388 forward 7 unknown #
vertex $-1 $232 $389 #
ellipse-curve $-1 63.972462309217832 -33.487490862633983 17.293519858487237 -0.73135370988377701 0 -0.68199835119979291 0.34099917559989645 0 -0.36567685494188851 1 I I #
vertex $-1 $233 $390 #
point $-1 63.582107774933952 -30.717826383198016 16.245844652345564 #
loop $-1 $-1 $391 $225 #
face $-1 $250 $392 $19 $-1 $393 forward single #
loop $-1 $394 $395 $238 #
cone-surface $-1 63.058270171863114 -33.487490862633983 16.441021919487504 -0.73135370988377701 0 -0.68199835119979291 0.17049958779994823 0 -0.18283842747094425 1 I I -0.70710678118654746 0.70710678118654746 0.25 forward I I I I #
loop $-1 $-1 $396 $155 #
coedge $-1 $319 $319 $397 $398 reversed $239 $-1 #
coedge $-1 $320 $320 $-1 $399 forward $241 $-1 #
edge $-1 $400 0 $400 6.2831853071796004 $242 $401 forward 7 unknown #
vertex $-1 $245 $402 #
ellipse-curve $-1 63.972462309217832 -30.717826383198016 17.293519858487237 -0.73135370988377701 0 -0.68199835119979291 0.34099917559989645 0 -0.36567685494188851 1 I I #
vertex $-1 $246 $403 #
point $-1 63.582107774933952 -27.948161903762049 16.245844652345564 #
loop $-1 $404 $397 $250 #
face $-1 $405 $406 $19 $-1 $407 forward single #
plane-surface $-1 -23.994211167180666 -30.717826383198016 111.6262303114072 0.73135370988377701 0 0.68199835119979291 0.68199835119979291 0 -0.73135370988377701 forward_v I I I I #
straight-curve $-1 -65.918759727774898 40.713841708019693 0 0 0 -1 I I #
point $-1 -65.918759727774898 -40.713841708019693 -19.380668361258266 #
straight-curve $-1 -65.918759727774898 0 -19.380668361258266 0 1 0 I I #
point $-1 -65.918759727774898 40.713841708019693 -19.380668361258266 #
face $-1 $283 $354 $16 $-1 $408 reversed single #
loop $-1 $-1 $409 $268 #
plane-surface $-1 -65.918759727774898 0 0 1 0 0 0 0 -1 forward_v I I I I #
coedge $-1 $410 $411 $412 $413 forward $269 $-1 #
coedge $-1 $414 $271 $410 $415 forward $193 $-1 #
coedge $-1 $271 $414 $416 $417 forward $193 $-1 #
coedge $-1 $282 $418 $271 $340 reversed $207 $-1 #
edge $-1 $419 -40.713841708019693 $420 40.713841708019693 $339 $421 forward 7 unknown #
coedge $-1 $272 $284 $411 $422 forward $123 $-1 #
coedge $-1 $418 $273 $272 $343 reversed $207 $-1 #
edge $-1 $423 -40.713841708019693 $275 -35.33393384892463 $342 $288 forward 7 unknown #
straight-curve $-1 65.918759727774898 -35.33393384892463 100.76960060318139 0 0 1 I I #
point $-1 65.918759727774898 -35.33393384892463 19.380668361258266 #
straight-curve $-1 65.918759727774898 -15.358913191599008 15.206371355716236 0 -1 0 I I #
point $-1 65.918759727774898 -35.33393384892463 15.206371355716243 #
coedge $-1 $416 $285 $282 $349 forward $354 $-1 #
edge $-1 $287 -19.380668361258266 $419 19.380668361258266 $282 $424 forward 7 unknown #
plane-surface $-1 65.918759727774898 0 0 -1 0 0 0 0 1 forward_v I I I I #
coedge $-1 $409 $412 $284 $352 reversed $334 $-1 #
edge $-1 $355 -40.713841708019693 $425 40.713841708019693 $351 $426 forward 7 unknown #
coedge $-1 $285 $416 $409 $427 reversed $354 $-1 #
loop $-1 $-1 $348 $333 #
vertex $-1 $286 $428 #
straight-curve $-1 0 40.713841708019693 19.380668361258266 -1 0 0 I I #
point $-1 65.918759727774898 40.713841708019693 19.380668361258266 #
face $-1 $429 $430 $17 $-1 $431 reversed single #
loop $-1 $-1 $432 $289 #
plane-surface $-1 0 0 -19.380668361258266 0 0 1 1 0 0 forward_v I I I I #
coedge $-1 $299 $433 $292 $364 forward $290 $-1 #
coedge $-1 $363 $292 $434 $435 reversed $214 $-1 #
coedge $-1 $292 $362 $365 $436 forward $214 $-1 #
edge $-1 $437 -29.705935833519746 $438 -25.813340996405557 $361 $439 forward 7 unknown #
coedge $-1 $367 $293 $363 $436 reversed $216 $-1 #
edge $-1 $438 -19.975020657325622 $300 -10.742805725872394 $299 $440 forward 7 unknown #
coedge $-1 $294 $365 $370 $441 reversed $216 $-1 #
vertex $-1 $441 $442 #
straight-curve $-1 -23.994211167180666 -26.101718917471402 111.6262303114072 0.68199835119979291 0 -0.73135370988377701 I I #
coedge $-1 $434 $296 $367 $441 forward $372 $-1 #
coedge $-1 $296 $443 $298 $375 reversed $372 $-1 #
loop $-1 $-1 $434 $444 #
straight-curve $-1 65.918759727774898 -26.101718917471402 100.76960060318139 0 0 -1 I I #
coedge $-1 $445 $298 $446 $447 forward $290 $-1 #
edge $-1 $301 -26.101718917471402 $448 40.713841708019693 $371 $449 forward 7 unknown #
point $-1 62.026164890660709 -26.101718917471402 19.380668361258273 #
point $-1 65.918759727774898 -26.101718917471402 19.380668361258266 #
point $-1 62.875431744392174 -33.487490862633983 16.270522331687555 #
face $-1 $450 $451 $18 $-1 $452 forward single #
loop $-1 $-1 $453 $305 #
plane-surface $-1 72.425647788510304 -35.33393384892463 201.53920120636278 0 1 0 0.73135370988377701 0 0.68199835119979291 forward_v I I I I #
coedge $-1 $383 $307 $454 $455 forward $226 $-1 #
coedge $-1 $307 $382 $456 $457 reversed $226 $-1 #
coedge $-1 $458 $459 $307 $385 forward $451 $-1 #
edge $-1 $460 25.813340996405557 $461 29.705935833519746 $384 $462 forward 7 unknown #
edge $-1 $463 1 $463 0 $308 $-1 forward 7 unknown #
vertex $-1 $309 $464 #
ellipse-curve $-1 63.241108599334055 -33.487490862633983 16.611521507287453 0.73135370988377701 0 0.68199835119979291 0.34099917559989645 0 -0.36567685494188851 1 I I #
point $-1 64.313461484817736 -33.487490862633983 16.927843003545355 #
point $-1 62.875431744392174 -30.717826383198016 16.270522331687555 #
coedge $-1 $465 $454 $459 $466 reversed $314 $-1 #
loop $-1 $-1 $467 $315 #
plane-surface $-1 72.425647788510304 -26.101718917471402 201.53920120636278 0 -1 0 -0.73135370988377701 0 -0.68199835119979291 forward_v I I I I #
loop $-1 $-1 $468 $238 #
coedge $-1 $395 $395 $396 $469 forward $316 $-1 #
coedge $-1 $396 $396 $395 $469 reversed $318 $-1 #
coedge $-1 $397 $397 $319 $398 forward $326 $-1 #
edge $-1 $470 0 $470 6.2831853071796004 $397 $471 forward 7 unknown #
edge $-1 $472 1 $472 0 $320 $-1 forward 7 unknown #
vertex $-1 $321 $473 #
ellipse-curve $-1 63.241108599334055 -30.717826383198016 16.611521507287453 0.73135370988377701 0 0.68199835119979291 0.34099917559989645 0 -0.36567685494188851 1 I I #
point $-1 64.313461484817736 -30.717826383198016 16.927843003545355 #
point $-1 62.875431744392174 -27.948161903762049 16.270522331687555 #
loop $-1 $-1 $474 $250 #
face $-1 $475 $476 $19 $-1 $477 forward single #
loop $-1 $-1 $478 $327 #
plane-surface $-1 72.425647788510304 -35.33393384892463 201.53920120636278 0 1 0 0.73135370988377701 0 0.68199835119979291 forward_v I I I I #
plane-surface $-1 0 40.713841708019693 0 0 -1 0 0 0 -1 forward_v I I I I #
coedge $-1 $479 $351 $353 $427 forward $334 $-1 #
coedge $-1 $480 $336 $337 $415 reversed $269 $-1 #
coedge $-1 $336 $480 $341 $422 reversed $269 $-1 #
coedge $-1 $351 $479 $336 $413 reversed $334 $-1 #
edge $-1 $425 -19.380668361258266 $481 19.380668361258266 $412 $482 forward 7 unknown #
coedge $-1 $338 $337 $479 $483 forward $193 $-1 #
edge $-1 $420 -65.918759727774898 $481 65.918759727774898 $410 $484 forward 7 unknown #
coedge $-1 $353 $348 $338 $417 reversed $354 $-1 #
edge $-1 $485 -65.918759727774898 $419 65.918759727774898 $416 $486 forward 7 unknown #
coedge $-1 $339 $342 $480 $487 forward $207 $-1 #
vertex $-1 $340 $488 #
vertex $-1 $487 $489 #
straight-curve $-1 65.918759727774898 0 -19.380668361258266 0 -1 0 I I #
edge $-1 $425 -65.918759727774898 $423 65.918759727774898 $411 $490 forward 7 unknown #
vertex $-1 $343 $491 #
straight-curve $-1 65.918759727774898 40.713841708019693 0 0 0 -1 I I #
vertex $-1 $352 $492 #
straight-curve $-1 -65.918759727774898 0 19.380668361258266 0 -1 0 I I #
edge $-1 $355 -19.380668361258266 $485 19.380668361258266 $353 $493 forward 7 unknown #
point $-1 -65.918759727774898 40.713841708019693 19.380668361258266 #
face $-1 $494 $495 $17 $-1 $496 reversed single #
loop $-1 $-1 $497 $358 #
plane-surface $-1 0 -40.713841708019693 0 0 1 0 0 0 1 forward_v I I I I #
coedge $-1 $498 $499 $500 $501 forward $359 $-1 #
coedge $-1 $361 $502 $503 $504 forward $290 $-1 #
coedge $-1 $503 $370 $362 $435 forward $372 $-1 #
edge $-1 $505 -85.563229247465145 $437 -81.388932241923129 $434 $506 forward 7 unknown #
edge $-1 $505 -131.83751945554977 $438 -126.12988859358916 $363 $507 forward 7 unknown #
vertex $-1 $435 $508 #
vertex $-1 $366 $509 #
straight-curve $-1 36.212823894255152 -35.33393384892463 19.380668361258273 -1 0 0 I I #
straight-curve $-1 62.026164890660709 -15.358913191599008 19.380668361258266 0 1 0 I I #
edge $-1 $368 10.742805725872394 $505 19.975020657325622 $370 $510 forward 7 unknown #
point $-1 65.918759727774898 -26.101718917471402 15.206371355716243 #
coedge $-1 $371 $500 $511 $512 reversed $372 $-1 #
face $-1 $-1 $372 $17 $-1 $513 reversed single #
coedge $-1 $502 $374 $514 $515 forward $290 $-1 #
coedge $-1 $511 $516 $374 $447 reversed $517 $-1 #
edge $-1 $448 -65.918759727774898 $518 65.918759727774898 $446 $519 forward 7 unknown #
vertex $-1 $375 $520 #
straight-curve $-1 65.918759727774898 0 19.380668361258266 0 1 0 I I #
face $-1 $521 $522 $18 $-1 $523 reversed single #
loop $-1 $-1 $524 $379 #
plane-surface $-1 0 0 19.380668361258266 0 0 1 1 0 0 forward_v I I I I #
coedge $-1 $525 $526 $524 $527 reversed $380 $-1 #
coedge $-1 $391 $528 $382 $455 reversed $314 $-1 #
edge $-1 $460 126.12988859358916 $529 131.83751945554977 $382 $530 forward 7 unknown #
coedge $-1 $531 $532 $383 $457 forward $533 $-1 #
edge $-1 $461 81.388932241923129 $529 85.563229247465145 $456 $534 forward 7 unknown #
coedge $-1 $535 $384 $532 $536 forward $451 $-1 #
coedge $-1 $384 $524 $391 $466 forward $451 $-1 #
vertex $-1 $466 $537 #
vertex $-1 $536 $538 #
straight-curve $-1 36.212823894255152 -26.101718917471402 19.380668361258273 1 0 0 I I #
vertex $-1 $386 $539 #
point $-1 63.582107774933952 -33.487490862633983 16.245844652345564 #
coedge $-1 $528 $391 $526 $540 reversed $314 $-1 #
edge $-1 $541 -19.975020657325622 $460 -10.742805725872394 $459 $542 forward 7 unknown #
coedge $-1 $543 $544 $545 $546 reversed $392 $-1 #
coedge $-1 $468 $468 $-1 $547 forward $394 $-1 #
edge $-1 $548 0 $548 6.2831853071796004 $395 $549 forward 7 unknown #
vertex $-1 $398 $550 #
ellipse-curve $-1 63.972462309217832 -33.487490862633983 17.293519858487237 -0.73135370988377701 0 -0.68199835119979291 0.34099917559989645 0 -0.36567685494188851 1 I I #
vertex $-1 $399 $551 #
point $-1 63.582107774933952 -30.717826383198016 16.245844652345564 #
coedge $-1 $552 $553 $554 $555 reversed $404 $-1 #
face $-1 $556 $557 $19 $-1 $558 reversed single #
loop $-1 $-1 $559 $405 #
plane-surface $-1 0 0 19.380668361258266 0 0 1 1 0 0 forward_v I I I I #
coedge $-1 $560 $561 $559 $562 reversed $406 $-1 #
coedge $-1 $412 $409 $414 $483 reversed $334 $-1 #
coedge $-1 $411 $410 $418 $487 reversed $269 $-1 #
vertex $-1 $483 $563 #
straight-curve $-1 -65.918759727774898 -40.713841708019693 0 0 0 -1 I I #
edge $-1 $481 -40.713841708019693 $485 40.713841708019693 $479 $564 forward 7 unknown #
straight-curve $-1 0 -40.713841708019693 -19.380668361258266 -1 0 0 I I #
vertex $-1 $417 $565 #
straight-curve $-1 0 40.713841708019693 -19.380668361258266 1 0 0 I I #
edge $-1 $423 -19.380668361258266 $420 19.380668361258266 $418 $566 forward 7 unknown #
point $-1 65.918759727774898 40.713841708019693 -19.380668361258266 #
point $-1 65.918759727774898 -40.713841708019693 -19.380668361258266 #
straight-curve $-1 0 -40.713841708019693 19.380668361258266 1 0 0 I I #
point $-1 65.918759727774898 -40.713841708019693 19.380668361258266 #
point $-1 -65.918759727774898 -40.713841708019693 19.380668361258266 #
straight-curve $-1 -65.918759727774898 40.713841708019693 0 0 0 -1 I I #
face $-1 $444 $517 $17 $-1 $567 reversed single #
loop $-1 $-1 $568 $429 #
plane-surface $-1 -65.918759727774898 0 0 1 0 0 0 0 -1 forward_v I I I I #
coedge $-1 $569 $570 $571 $572 forward $430 $-1 #
coedge $-1 $573 $432 $569 $574 forward $359 $-1 #
coedge $-1 $432 $573 $575 $576 forward $359 $-1 #
coedge $-1 $443 $577 $432 $501 reversed $372 $-1 #
edge $-1 $578 -40.713841708019693 $579 40.713841708019693 $500 $580 forward 7 unknown #
coedge $-1 $433 $445 $570 $581 forward $290 $-1 #
coedge $-1 $577 $434 $433 $504 reversed $372 $-1 #
edge $-1 $582 -40.713841708019693 $437 -35.33393384892463 $503 $449 forward 7 unknown #
vertex $-1 $441 $583 #
straight-curve $-1 65.918759727774898 -35.33393384892463 100.76960060318139 0 0 1 I I #
straight-curve $-1 -23.994211167180666 -35.33393384892463 111.6262303114072 -0.68199835119979291 0 0.73135370988377701 I I #
point $-1 65.918759727774898 -35.33393384892463 19.380668361258266 #
point $-1 62.026164890660709 -35.33393384892463 19.380668361258273 #
straight-curve $-1 65.918759727774898 -15.358913191599008 15.206371355716236 0 -1 0 I I #
coedge $-1 $575 $446 $443 $512 forward $517 $-1 #
edge $-1 $448 -19.380668361258266 $578 19.380668361258266 $443 $584 forward 7 unknown #
plane-surface $-1 65.918759727774898 0 0 -1 0 0 0 0 1 forward_v I I I I #
coedge $-1 $568 $571 $445 $515 reversed $495 $-1 #
edge $-1 $518 -40.713841708019693 $585 40.713841708019693 $514 $586 forward 7 unknown #
coedge $-1 $446 $575 $568 $587 reversed $517 $-1 #
loop $-1 $-1 $511 $494 #
vertex $-1 $447 $588 #
straight-curve $-1 0 40.713841708019693 19.380668361258266 -1 0 0 I I #
point $-1 65.918759727774898 40.713841708019693 19.380668361258266 #
face $-1 $589 $590 $18 $-1 $591 reversed single #
loop $-1 $-1 $592 $450 #
plane-surface $-1 0 0 -19.380668361258266 0 0 1 1 0 0 forward_v I I I I #
coedge $-1 $459 $593 $453 $527 forward $451 $-1 #
coedge $-1 $526 $453 $594 $595 reversed $380 $-1 #
coedge $-1 $453 $525 $465 $540 forward $380 $-1 #
edge $-1 $596 -29.705935833519746 $541 -25.813340996405557 $524 $597 forward 7 unknown #
coedge $-1 $454 $465 $531 $598 reversed $314 $-1 #
vertex $-1 $598 $599 #
straight-curve $-1 -23.994211167180666 -26.101718917471402 111.6262303114072 0.68199835119979291 0 -0.73135370988377701 I I #
coedge $-1 $594 $456 $528 $598 forward $533 $-1 #
coedge $-1 $456 $600 $458 $536 reversed $533 $-1 #
loop $-1 $-1 $594 $601 #
straight-curve $-1 65.918759727774898 -26.101718917471402 100.76960060318139 0 0 -1 I I #
coedge $-1 $602 $458 $603 $604 forward $451 $-1 #
edge $-1 $461 -26.101718917471402 $605 40.713841708019693 $532 $606 forward 7 unknown #
point $-1 62.026164890660709 -26.101718917471402 19.380668361258273 #
point $-1 65.918759727774898 -26.101718917471402 19.380668361258266 #
point $-1 62.875431744392174 -33.487490862633983 16.270522331687555 #
edge $-1 $607 -131.83751945554977 $541 -126.12988859358916 $526 $608 forward 7 unknown #
vertex $-1 $466 $609 #
straight-curve $-1 62.026164890660709 -15.358913191599008 19.380668361258266 0 1 0 I I #
coedge $-1 $544 $467 $553 $610 forward $392 $-1 #
coedge $-1 $467 $543 $611 $612 reversed $392 $-1 #
coedge $-1 $613 $554 $467 $546 forward $476 $-1 #
edge $-1 $614 25.813340996405557 $615 29.705935833519746 $545 $616 forward 7 unknown #
edge $-1 $617 1 $617 0 $468 $-1 forward 7 unknown #
vertex $-1 $469 $618 #
ellipse-curve $-1 63.241108599334055 -33.487490862633983 16.611521507287453 0.73135370988377701 0 0.68199835119979291 0.34099917559989645 0 -0.36567685494188851 1 I I #
point $-1 64.313461484817736 -33.487490862633983 16.927843003545355 #
point $-1 62.875431744392174 -30.717826383198016 16.270522331687555 #
coedge $-1 $619 $474 $561 $620 reversed $404 $-1 #
coedge $-1 $474 $619 $543 $610 reversed $404 $-1 #
coedge $-1 $545 $559 $474 $555 forward $476 $-1 #
edge $-1 $621 -19.975020657325622 $614 -10.742805725872394 $554 $622 forward 7 unknown #
face $-1 $623 $624 $19 $-1 $625 reversed single #
loop $-1 $-1 $626 $475 #
plane-surface $-1 0 0 -19.380668361258266 0 0 1 1 0 0 forward_v I I I I #
coedge $-1 $554 $627 $478 $562 forward $476 $-1 #
coedge $-1 $561 $478 $628 $629 reversed $406 $-1 #
coedge $-1 $478 $560 $552 $620 forward $406 $-1 #
edge $-1 $630 -29.705935833519746 $621 -25.813340996405557 $559 $631 forward 7 unknown #
point $-1 -65.918759727774898 -40.713841708019693 -19.380668361258266 #
straight-curve $-1 -65.918759727774898 0 -19.380668361258266 0 1 0 I I #
point $-1 -65.918759727774898 40.713841708019693 -19.380668361258266 #
straight-curve $-1 65.918759727774898 -40.713841708019693 0 0 0 -1 I I #
plane-surface $-1 0 40.713841708019693 0 0 -1 0 0 0 -1 forward_v I I I I #
coedge $-1 $632 $514 $516 $587 forward $495 $-1 #
coedge $-1 $633 $497 $498 $574 reversed $430 $-1 #
coedge $-1 $497 $633 $502 $581 reversed $430 $-1 #
coedge $-1 $514 $632 $497 $572 reversed $495 $-1 #
edge $-1 $585 -19.380668361258266 $634 19.380668361258266 $571 $635 forward 7 unknown #
coedge $-1 $499 $498 $632 $636 forward $359 $-1 #
edge $-1 $579 -65.918759727774898 $634 65.918759727774898 $569 $637 forward 7 unknown #
coedge $-1 $516 $511 $499 $576 reversed $517 $-1 #
edge $-1 $638 -65.918759727774898 $578 65.918759727774898 $575 $639 forward 7 unknown #
coedge $-1 $500 $503 $633 $640 forward $372 $-1 #
vertex $-1 $501 $641 #
vertex $-1 $640 $642 #
straight-curve $-1 65.918759727774898 0 -19.380668361258266 0 -1 0 I I #
edge $-1 $585 -65.918759727774898 $582 65.918759727774898 $570 $643 forward 7 unknown #
vertex $-1 $504 $644 #
point $-1 65.918759727774898 -35.33393384892463 15.206371355716243 #
straight-curve $-1 65.918759727774898 40.713841708019693 0 0 0 -1 I I #
vertex $-1 $515 $645 #
straight-curve $-1 -65.918759727774898 0 19.380668361258266 0 -1 0 I I #
edge $-1 $518 -19.380668361258266 $638 19.380668361258266 $516 $646 forward 7 unknown #
point $-1 -65.918759727774898 40.713841708019693 19.380668361258266 #
face $-1 $647 $648 $18 $-1 $649 reversed single #
loop $-1 $-1 $650 $521 #
plane-surface $-1 0 -40.713841708019693 0 0 1 0 0 0 1 forward_v I I I I #
coedge $-1 $651 $652 $653 $654 forward $522 $-1 #
coedge $-1 $524 $655 $656 $657 forward $451 $-1 #
coedge $-1 $656 $531 $525 $595 forward $533 $-1 #
edge $-1 $607 -85.563229247465145 $596 -81.388932241923129 $594 $658 forward 7 unknown #
vertex $-1 $595 $659 #
straight-curve $-1 36.212823894255152 -35.33393384892463 19.380668361258273 -1 0 0 I I #
edge $-1 $529 10.742805725872394 $607 19.975020657325622 $531 $660 forward 7 unknown #
point $-1 65.918759727774898 -26.101718917471402 15.206371355716243 #
coedge $-1 $532 $653 $661 $662 reversed $533 $-1 #
face $-1 $-1 $533 $18 $-1 $663 reversed single #
coedge $-1 $655 $535 $664 $665 forward $451 $-1 #
coedge $-1 $661 $666 $535 $604 reversed $667 $-1 #
edge $-1 $605 -65.918759727774898 $668 65.918759727774898 $603 $669 forward 7 unknown #
vertex $-1 $536 $670 #
straight-curve $-1 65.918759727774898 0 19.380668361258266 0 1 0 I I #
vertex $-1 $598 $671 #
straight-curve $-1 -23.994211167180666 -35.33393384892463 111.6262303114072 -0.68199835119979291 0 0.73135370988377701 I I #
point $-1 62.026164890660709 -35.33393384892463 19.380668361258273 #
edge $-1 $614 126.12988859358916 $672 131.83751945554977 $543 $673 forward 7 unknown #
coedge $-1 $674 $675 $544 $612 forward $676 $-1 #
edge $-1 $615 81.388932241923129 $672 85.563229247465145 $611 $677 forward 7 unknown #
coedge $-1 $678 $545 $675 $679 forward $476 $-1 #
vertex $-1 $555 $680 #
vertex $-1 $679 $681 #
straight-curve $-1 36.212823894255152 -26.101718917471402 19.380668361258273 1 0 0 I I #
vertex $-1 $547 $682 #
point $-1 63.582107774933952 -33.487490862633983 16.245844652345564 #
coedge $-1 $553 $552 $674 $683 reversed $404 $-1 #
edge $-1 $684 -131.83751945554977 $621 -126.12988859358916 $561 $685 forward 7 unknown #
vertex $-1 $555 $686 #
straight-curve $-1 62.026164890660709 -15.358913191599008 19.380668361258266 0 1 0 I I #
face $-1 $687 $688 $19 $-1 $689 reversed single #
loop $-1 $-1 $690 $556 #
plane-surface $-1 0 -40.713841708019693 0 0 1 0 0 0 1 forward_v I I I I #
coedge $-1 $691 $692 $693 $694 forward $557 $-1 #
coedge $-1 $559 $695 $696 $697 forward $476 $-1 #
coedge $-1 $696 $674 $560 $629 forward $676 $-1 #
edge $-1 $684 -85.563229247465145 $630 -81.388932241923129 $628 $698 forward 7 unknown #
vertex $-1 $629 $699 #
straight-curve $-1 36.212823894255152 -35.33393384892463 19.380668361258273 -1 0 0 I I #
coedge $-1 $571 $568 $573 $636 reversed $495 $-1 #
coedge $-1 $570 $569 $577 $640 reversed $430 $-1 #
vertex $-1 $636 $700 #
straight-curve $-1 -65.918759727774898 -40.713841708019693 0 0 0 -1 I I #
edge $-1 $634 -40.713841708019693 $638 40.713841708019693 $632 $701 forward 7 unknown #
straight-curve $-1 0 -40.713841708019693 -19.380668361258266 -1 0 0 I I #
vertex $-1 $576 $702 #
straight-curve $-1 0 40.713841708019693 -19.380668361258266 1 0 0 I I #
edge $-1 $582 -19.380668361258266 $579 19.380668361258266 $577 $703 forward 7 unknown #
point $-1 65.918759727774898 40.713841708019693 -19.380668361258266 #
point $-1 65.918759727774898 -40.713841708019693 -19.380668361258266 #
straight-curve $-1 0 -40.713841708019693 19.380668361258266 1 0 0 I I #
point $-1 65.918759727774898 -40.713841708019693 19.380668361258266 #
point $-1 -65.918759727774898 -40.713841708019693 19.380668361258266 #
straight-curve $-1 -65.918759727774898 40.713841708019693 0 0 0 -1 I I #
face $-1 $601 $667 $18 $-1 $704 reversed single #
loop $-1 $-1 $705 $589 #
plane-surface $-1 -65.918759727774898 0 0 1 0 0 0 0 -1 forward_v I I I I #
coedge $-1 $706 $707 $708 $709 forward $590 $-1 #
coedge $-1 $710 $592 $706 $711 forward $522 $-1 #
coedge $-1 $592 $710 $712 $713 forward $522 $-1 #
coedge $-1 $600 $714 $592 $654 reversed $533 $-1 #
edge $-1 $715 -40.713841708019693 $716 40.713841708019693 $653 $717 forward 7 unknown #
coedge $-1 $593 $602 $707 $718 forward $451 $-1 #
coedge $-1 $714 $594 $593 $657 reversed $533 $-1 #
edge $-1 $719 -40.713841708019693 $596 -35.33393384892463 $656 $606 forward 7 unknown #
straight-curve $-1 65.918759727774898 -35.33393384892463 100.76960060318139 0 0 1 I I #
point $-1 65.918759727774898 -35.33393384892463 19.380668361258266 #
straight-curve $-1 65.918759727774898 -15.358913191599008 15.206371355716236 0 -1 0 I I #
coedge $-1 $712 $603 $600 $662 forward $667 $-1 #
edge $-1 $605 -19.380668361258266 $715 19.380668361258266 $600 $720 forward 7 unknown #
plane-surface $-1 65.918759727774898 0 0 -1 0 0 0 0 1 forward_v I I I I #
coedge $-1 $705 $708 $602 $665 reversed $648 $-1 #
edge $-1 $668 -40.713841708019693 $721 40.713841708019693 $664 $722 forward 7 unknown #
coedge $-1 $603 $712 $705 $723 reversed $667 $-1 #
loop $-1 $-1 $661 $647 #
vertex $-1 $604 $724 #
straight-curve $-1 0 40.713841708019693 19.380668361258266 -1 0 0 I I #
point $-1 65.918759727774898 40.713841708019693 19.380668361258266 #
point $-1 65.918759727774898 -35.33393384892463 15.206371355716243 #
vertex $-1 $683 $725 #
straight-curve $-1 -23.994211167180666 -26.101718917471402 111.6262303114072 0.68199835119979291 0 -0.73135370988377701 I I #
coedge $-1 $628 $611 $619 $683 forward $676 $-1 #
coedge $-1 $611 $726 $613 $679 reversed $676 $-1 #
loop $-1 $-1 $628 $727 #
straight-curve $-1 65.918759727774898 -26.101718917471402 100.76960060318139 0 0 -1 I I #
coedge $-1 $728 $613 $729 $730 forward $476 $-1 #
edge $-1 $615 -26.101718917471402 $731 40.713841708019693 $675 $732 forward 7 unknown #
point $-1 62.026164890660709 -26.101718917471402 19.380668361258273 #
point $-1 65.918759727774898 -26.101718917471402 19.380668361258266 #
point $-1 62.875431744392174 -33.487490862633983 16.270522331687555 #
edge $-1 $672 10.742805725872394 $684 19.975020657325622 $674 $733 forward 7 unknown #
vertex $-1 $683 $734 #
straight-curve $-1 -23.994211167180666 -35.33393384892463 111.6262303114072 -0.68199835119979291 0 0.73135370988377701 I I #
point $-1 62.026164890660709 -35.33393384892463 19.380668361258273 #
face $-1 $727 $735 $19 $-1 $736 reversed single #
loop $-1 $-1 $737 $623 #
plane-surface $-1 -65.918759727774898 0 0 1 0 0 0 0 -1 forward_v I I I I #
coedge $-1 $738 $739 $740 $741 forward $624 $-1 #
coedge $-1 $742 $626 $738 $743 forward $557 $-1 #
coedge $-1 $626 $742 $744 $745 forward $557 $-1 #
coedge $-1 $726 $746 $626 $694 reversed $676 $-1 #
edge $-1 $747 -40.713841708019693 $748 40.713841708019693 $693 $749 forward 7 unknown #
coedge $-1 $627 $728 $739 $750 forward $476 $-1 #
coedge $-1 $746 $628 $627 $697 reversed $676 $-1 #
edge $-1 $751 -40.713841708019693 $630 -35.33393384892463 $696 $732 forward 7 unknown #
straight-curve $-1 65.918759727774898 -35.33393384892463 100.76960060318139 0 0 1 I I #
point $-1 65.918759727774898 -35.33393384892463 19.380668361258266 #
point $-1 -65.918759727774898 -40.713841708019693 -19.380668361258266 #
straight-curve $-1 -65.918759727774898 0 -19.380668361258266 0 1 0 I I #
point $-1 -65.918759727774898 40.713841708019693 -19.380668361258266 #
straight-curve $-1 65.918759727774898 -40.713841708019693 0 0 0 -1 I I #
plane-surface $-1 0 40.713841708019693 0 0 -1 0 0 0 -1 forward_v I I I I #
coedge $-1 $752 $664 $666 $723 forward $648 $-1 #
coedge $-1 $753 $650 $651 $711 reversed $590 $-1 #
coedge $-1 $650 $753 $655 $718 reversed $590 $-1 #
coedge $-1 $664 $752 $650 $709 reversed $648 $-1 #
edge $-1 $721 -19.380668361258266 $754 19.380668361258266 $708 $755 forward 7 unknown #
coedge $-1 $652 $651 $752 $756 forward $522 $-1 #
edge $-1 $716 -65.918759727774898 $754 65.918759727774898 $706 $757 forward 7 unknown #
coedge $-1 $666 $661 $652 $713 reversed $667 $-1 #
edge $-1 $758 -65.918759727774898 $715 65.918759727774898 $712 $759 forward 7 unknown #
coedge $-1 $653 $656 $753 $760 forward $533 $-1 #
vertex $-1 $654 $761 #
vertex $-1 $760 $762 #
straight-curve $-1 65.918759727774898 0 -19.380668361258266 0 -1 0 I I #
edge $-1 $721 -65.918759727774898 $719 65.918759727774898 $707 $763 forward 7 unknown #
vertex $-1 $657 $764 #
straight-curve $-1 65.918759727774898 40.713841708019693 0 0 0 -1 I I #
vertex $-1 $665 $765 #
straight-curve $-1 -65.918759727774898 0 19.380668361258266 0 -1 0 I I #
edge $-1 $668 -19.380668361258266 $758 19.380668361258266 $666 $766 forward 7 unknown #
point $-1 -65.918759727774898 40.713841708019693 19.380668361258266 #
point $-1 65.918759727774898 -26.101718917471402 15.206371355716243 #
coedge $-1 $675 $693 $767 $768 reversed $676 $-1 #
face $-1 $-1 $676 $19 $-1 $769 reversed single #
coedge $-1 $695 $678 $770 $771 forward $476 $-1 #
coedge $-1 $767 $772 $678 $730 reversed $735 $-1 #
edge $-1 $731 -65.918759727774898 $773 65.918759727774898 $729 $774 forward 7 unknown #
vertex $-1 $679 $775 #
straight-curve $-1 65.918759727774898 0 19.380668361258266 0 1 0 I I #
straight-curve $-1 65.918759727774898 -15.358913191599008 15.206371355716236 0 -1 0 I I #
point $-1 65.918759727774898 -35.33393384892463 15.206371355716243 #
loop $-1 $-1 $767 $687 #
plane-surface $-1 0 40.713841708019693 0 0 -1 0 0 0 -1 forward_v I I I I #
coedge $-1 $776 $770 $772 $777 forward $688 $-1 #
coedge $-1 $778 $690 $691 $743 reversed $624 $-1 #
coedge $-1 $690 $778 $695 $750 reversed $624 $-1 #
coedge $-1 $770 $776 $690 $741 reversed $688 $-1 #
edge $-1 $779 -19.380668361258266 $780 19.380668361258266 $740 $781 forward 7 unknown #
coedge $-1 $692 $691 $776 $782 forward $557 $-1 #
edge $-1 $748 -65.918759727774898 $780 65.918759727774898 $738 $783 forward 7 unknown #
coedge $-1 $772 $767 $692 $745 reversed $735 $-1 #
edge $-1 $784 -65.918759727774898 $747 65.918759727774898 $744 $785 forward 7 unknown #
coedge $-1 $693 $696 $778 $786 forward $676 $-1 #
vertex $-1 $694 $787 #
vertex $-1 $786 $788 #
straight-curve $-1 65.918759727774898 0 -19.380668361258266 0 -1 0 I I #
edge $-1 $779 -65.918759727774898 $751 65.918759727774898 $739 $789 forward 7 unknown #
vertex $-1 $697 $790 #
coedge $-1 $708 $705 $710 $756 reversed $648 $-1 #
coedge $-1 $707 $706 $714 $760 reversed $590 $-1 #
vertex $-1 $756 $791 #
straight-curve $-1 -65.918759727774898 -40.713841708019693 0 0 0 -1 I I #
edge $-1 $754 -40.713841708019693 $758 40.713841708019693 $752 $792 forward 7 unknown #
straight-curve $-1 0 -40.713841708019693 -19.380668361258266 -1 0 0 I I #
vertex $-1 $713 $793 #
straight-curve $-1 0 40.713841708019693 -19.380668361258266 1 0 0 I I #
edge $-1 $719 -19.380668361258266 $716 19.380668361258266 $714 $794 forward 7 unknown #
point $-1 65.918759727774898 40.713841708019693 -19.380668361258266 #
point $-1 65.918759727774898 -40.713841708019693 -19.380668361258266 #
straight-curve $-1 0 -40.713841708019693 19.380668361258266 1 0 0 I I #
point $-1 65.918759727774898 -40.713841708019693 19.380668361258266 #
point $-1 -65.918759727774898 -40.713841708019693 19.380668361258266 #
straight-curve $-1 -65.918759727774898 40.713841708019693 0 0 0 -1 I I #
coedge $-1 $744 $729 $726 $768 forward $735 $-1 #
edge $-1 $731 -19.380668361258266 $747 19.380668361258266 $726 $795 forward 7 unknown #
plane-surface $-1 65.918759727774898 0 0 -1 0 0 0 0 1 forward_v I I I I #
coedge $-1 $737 $740 $728 $771 reversed $688 $-1 #
edge $-1 $773 -40.713841708019693 $779 40.713841708019693 $770 $796 forward 7 unknown #
coedge $-1 $729 $744 $737 $777 reversed $735 $-1 #
vertex $-1 $730 $797 #
straight-curve $-1 0 40.713841708019693 19.380668361258266 -1 0 0 I I #
point $-1 65.918759727774898 40.713841708019693 19.380668361258266 #
coedge $-1 $740 $737 $742 $782 reversed $688 $-1 #
edge $-1 $773 -19.380668361258266 $784 19.380668361258266 $772 $798 forward 7 unknown #
coedge $-1 $739 $738 $746 $786 reversed $624 $-1 #
vertex $-1 $771 $799 #
vertex $-1 $782 $800 #
straight-curve $-1 -65.918759727774898 -40.713841708019693 0 0 0 -1 I I #
edge $-1 $780 -40.713841708019693 $784 40.713841708019693 $776 $801 forward 7 unknown #
straight-curve $-1 0 -40.713841708019693 -19.380668361258266 -1 0 0 I I #
vertex $-1 $745 $802 #
straight-curve $-1 0 40.713841708019693 -19.380668361258266 1 0 0 I I #
edge $-1 $751 -19.380668361258266 $748 19.380668361258266 $746 $803 forward 7 unknown #
point $-1 65.918759727774898 40.713841708019693 -19.380668361258266 #
point $-1 65.918759727774898 -40.713841708019693 -19.380668361258266 #
straight-curve $-1 0 -40.713841708019693 19.380668361258266 1 0 0 I I #
point $-1 65.918759727774898 -40.713841708019693 19.380668361258266 #
point $-1 -65.918759727774898 -40.713841708019693 -19.380668361258266 #
straight-curve $-1 -65.918759727774898 0 -19.380668361258266 0 1 0 I I #
point $-1 -65.918759727774898 40.713841708019693 -19.380668361258266 #
straight-curve $-1 65.918759727774898 -40.713841708019693 0 0 0 -1 I I #
straight-curve $-1 65.918759727774898 40.713841708019693 0 0 0 -1 I I #
straight-curve $-1 -65.918759727774898 0 19.380668361258266 0 -1 0 I I #
point $-1 -65.918759727774898 40.713841708019693 19.380668361258266 #
straight-curve $-1 -65.918759727774898 40.713841708019693 0 0 0 -1 I I #
point $-1 -65.918759727774898 -40.713841708019693 19.380668361258266 #
point $-1 -65.918759727774898 -40.713841708019693 -19.380668361258266 #
straight-curve $-1 -65.918759727774898 0 -19.380668361258266 0 1 0 I I #
point $-1 -65.918759727774898 40.713841708019693 -19.380668361258266 #
straight-curve $-1 65.918759727774898 -40.713841708019693 0 0 0 -1 I I #
End-of-ACIS-data 