500 0 12 0           
7 Unknown 11 ACIS 5.0 NT 24 Thu Mar 25 16:24:35 1999 
-1 9.9999999999999995e-007 1e-010 
body $-1 $12 $-1 $13 #
body $-1 $14 $-1 $15 #
body $-1 $16 $-1 $17 #
body $-1 $18 $-1 $19 #
body $-1 $20 $-1 $21 #
body $-1 $22 $-1 $23 #
body $-1 $24 $-1 $25 #
body $-1 $26 $-1 $27 #
body $-1 $28 $-1 $29 #
body $-1 $30 $-1 $31 #
body $-1 $32 $-1 $33 #
body $-1 $34 $-1 $35 #
lump $-1 $-1 $36 $0 #
transform $-1 1 0 0 0 1 0 0 0 1 61.65471358378857 29.523212928100719 9.3166563506100601 1 rotate no_reflect no_shear #
lump $-1 $-1 $37 $1 #
transform $-1 1 0 0 0 1 0 0 0 1 61.65471358378857 29.523212928100719 9.3166563506100601 1 rotate no_reflect no_shear #
lump $-1 $-1 $38 $2 #
transform $-1 1 0 0 0 1 0 0 0 1 61.65471358378857 29.523212928100719 9.3166563506100601 1 rotate no_reflect no_shear #
lump $-1 $-1 $39 $3 #
transform $-1 1 0 0 0 1 0 0 0 1 61.65471358378857 29.523212928100719 9.3166563506100601 1 rotate no_reflect no_shear #
lump $-1 $-1 $40 $4 #
transform $-1 1 0 0 0 1 0 0 0 1 61.65471358378857 29.523212928100719 9.3166563506100601 1 rotate no_reflect no_shear #
lump $-1 $-1 $41 $5 #
transform $-1 1 0 0 0 1 0 0 0 1 61.65471358378857 29.523212928100719 9.3166563506100601 1 rotate no_reflect no_shear #
lump $-1 $-1 $42 $6 #
transform $-1 1 0 0 0 1 0 0 0 1 61.65471358378857 29.523212928100719 9.3166563506100601 1 rotate no_reflect no_shear #
lump $-1 $-1 $43 $7 #
transform $-1 1 0 0 0 1 0 0 0 1 61.65471358378857 29.523212928100719 9.3166563506100601 1 rotate no_reflect no_shear #
lump $-1 $-1 $44 $8 #
transform $-1 1 0 0 0 1 0 0 0 1 61.65471358378857 29.523212928100719 9.3166563506100601 1 rotate no_reflect no_shear #
lump $-1 $-1 $45 $9 #
transform $-1 1 0 0 0 1 0 0 0 1 61.65471358378857 29.523212928100719 9.3166563506100601 1 rotate no_reflect no_shear #
lump $-1 $-1 $46 $10 #
transform $-1 1 0 0 0 1 0 0 0 1 61.65471358378857 29.523212928100719 9.3166563506100601 1 rotate no_reflect no_shear #
lump $-1 $-1 $47 $11 #
transform $-1 1 0 0 0 1 0 0 0 1 61.65471358378857 29.523212928100719 9.3166563506100601 1 rotate no_reflect no_shear #
shell $-1 $-1 $-1 $48 $-1 $12 #
shell $-1 $-1 $-1 $49 $-1 $14 #
shell $-1 $-1 $-1 $50 $-1 $16 #
shell $-1 $-1 $-1 $51 $-1 $18 #
shell $-1 $-1 $-1 $52 $-1 $20 #
shell $-1 $-1 $-1 $53 $-1 $22 #
shell $-1 $-1 $-1 $54 $-1 $24 #
shell $-1 $-1 $-1 $55 $-1 $26 #
shell $-1 $-1 $-1 $56 $-1 $28 #
shell $-1 $-1 $-1 $57 $-1 $30 #
shell $-1 $-1 $-1 $58 $-1 $32 #
shell $-1 $-1 $-1 $59 $-1 $34 #
face $-1 $60 $61 $36 $-1 $62 forward single #
face $-1 $63 $64 $37 $-1 $65 reversed single #
face $-1 $66 $67 $38 $-1 $68 reversed single #
face $-1 $69 $70 $39 $-1 $71 forward single #
face $-1 $72 $73 $40 $-1 $74 forward single #
face $-1 $75 $76 $41 $-1 $77 forward single #
face $-1 $78 $79 $42 $-1 $80 reversed single #
face $-1 $81 $82 $43 $-1 $83 forward single #
face $-1 $84 $85 $44 $-1 $86 forward single #
face $-1 $87 $88 $45 $-1 $89 forward single #
face $-1 $90 $91 $46 $-1 $92 reversed single #
face $-1 $93 $94 $47 $-1 $95 forward single #
face $-1 $96 $97 $36 $-1 $98 reversed single #
loop $-1 $-1 $99 $48 #
plane-surface $-1 0 0 9.3166563506100601 0 0 1 1 0 0 forward_v I I I I #
face $-1 $100 $101 $37 $-1 $102 reversed single #
loop $-1 $-1 $103 $49 #
plane-surface $-1 0 -25.581454390992882 4.7312589396084928 0 0 1 1 0 0 forward_v I I I I #
face $-1 $104 $105 $38 $-1 $106 reversed single #
loop $-1 $-1 $107 $50 #
plane-surface $-1 -142.55297762051174 -17.813069112030078 94.81493655955984 0 1 0 -0.6560590369687036 0 0.75470957328743171 forward_v I I I I #
face $-1 $108 $109 $39 $-1 $110 forward single #
loop $-1 $111 $112 $51 #
cone-surface $-1 -56.69050133461424 -15.822976385808252 4.8289683317697625 0.6560590369687036 0 -0.75470957328743171 0.37735478664371586 0 0.3280295184843518 1 I I 0 1 0.5 forward I I I I #
face $-1 $113 $114 $40 $-1 $115 forward single #
loop $-1 $116 $117 $52 #
cone-surface $-1 -56.69050133461424 -12.837837296475509 4.8289683317697625 0.6560590369687036 0 -0.75470957328743171 0.37735478664371586 0 0.3280295184843518 1 I I 0 1 0.5 forward I I I I #
face $-1 $118 $119 $41 $-1 $120 forward single #
loop $-1 $121 $122 $53 #
cone-surface $-1 -56.69050133461424 -9.8526982071427689 4.8289683317697625 0.6560590369687036 0 -0.75470957328743171 0.37735478664371586 0 0.3280295184843518 1 I I 0 1 0.5 forward I I I I #
face $-1 $123 $124 $42 $-1 $125 reversed single #
loop $-1 $-1 $126 $54 #
plane-surface $-1 -142.55297762051174 15.746122555136605 94.81493655955984 0 1 0 -0.6560590369687036 0 0.75470957328743171 forward_v I I I I #
face $-1 $127 $128 $43 $-1 $129 forward single #
loop $-1 $130 $131 $55 #
cone-surface $-1 -56.69050133461424 17.736215281358433 4.8289683317697625 0.6560590369687036 0 -0.75470957328743171 0.37735478664371586 0 0.3280295184843518 1 I I 0 1 0.5 forward I I I I #
face $-1 $132 $133 $44 $-1 $134 forward single #
loop $-1 $135 $136 $56 #
cone-surface $-1 -56.69050133461424 20.721354370691174 4.8289683317697625 0.6560590369687036 0 -0.75470957328743171 0.37735478664371586 0 0.3280295184843518 1 I I 0 1 0.5 forward I I I I #
face $-1 $137 $138 $45 $-1 $139 forward single #
loop $-1 $140 $141 $57 #
cone-surface $-1 -56.69050133461424 23.706493460023921 4.8289683317697625 0.6560590369687036 0 -0.75470957328743171 0.37735478664371586 0 0.3280295184843518 1 I I 0 1 0.5 forward I I I I #
face $-1 $142 $143 $46 $-1 $144 reversed single #
loop $-1 $-1 $145 $58 #
plane-surface $-1 -20.855397052514164 23.827712143306776 94.546701422692706 0.74314483375859142 0 0.66913059716165679 0.66913059716165679 0 -0.74314483375859142 forward_v I I I I #
face $-1 $146 $147 $47 $-1 $148 forward single #
loop $-1 $149 $150 $59 #
cone-surface $-1 57.547666758305411 23.827712143306776 5.012346728161643 -0.74314483375859142 0 -0.66913059716165679 1.0036958957424851 0 -1.1147172506378871 1 I I 0 1 1.5 forward I I I I #
face $-1 $151 $152 $36 $-1 $153 reversed single #
loop $-1 $-1 $154 $60 #
plane-surface $-1 0 0 -9.3166563506100601 0 0 1 1 0 0 forward_v I I I I #
coedge $-1 $155 $156 $157 $158 forward $61 $-1 #
face $-1 $159 $160 $37 $-1 $161 reversed single #
loop $-1 $-1 $162 $63 #
plane-surface $-1 0 -21.639695853885044 7.0239576451092773 0 -1 0 0 0 -1 forward_v I I I I #
coedge $-1 $163 $164 $165 $166 reversed $64 $-1 #
face $-1 $167 $168 $38 $-1 $169 reversed single #
loop $-1 $-1 $170 $66 #
plane-surface $-1 -61.654713583788578 -12.837837296475509 1.7521313996000458 -0.6560590369687036 0 0.75470957328743171 0.75470957328743171 0 0.6560590369687036 forward_v I I I I #
coedge $-1 $171 $172 $173 $174 reversed $67 $-1 #
face $-1 $-1 $175 $39 $-1 $176 forward single #
loop $-1 $177 $178 $69 #
cone-surface $-1 -55.913269492941581 -15.822976385808252 3.9348653951126131 0.6560590369687036 0 -0.75470957328743171 0.18867739332185793 0 0.1640147592421759 1 I I -0.70710678118654746 0.70710678118654746 0.25 forward I I I I #
loop $-1 $-1 $179 $51 #
coedge $-1 $112 $112 $180 $181 reversed $70 $-1 #
face $-1 $-1 $182 $40 $-1 $183 forward single #
loop $-1 $184 $185 $72 #
cone-surface $-1 -55.913269492941581 -12.837837296475509 3.9348653951126131 0.6560590369687036 0 -0.75470957328743171 0.18867739332185793 0 0.1640147592421759 1 I I -0.70710678118654746 0.70710678118654746 0.25 forward I I I I #
loop $-1 $-1 $186 $52 #
coedge $-1 $117 $117 $187 $188 reversed $73 $-1 #
face $-1 $-1 $189 $41 $-1 $190 forward single #
loop $-1 $191 $192 $75 #
cone-surface $-1 -55.913269492941581 -9.8526982071427689 3.9348653951126131 0.6560590369687036 0 -0.75470957328743171 0.18867739332185793 0 0.1640147592421759 1 I I -0.70710678118654746 0.70710678118654746 0.25 forward I I I I #
loop $-1 $-1 $193 $53 #
coedge $-1 $122 $122 $194 $195 reversed $76 $-1 #
face $-1 $196 $197 $42 $-1 $198 reversed single #
loop $-1 $-1 $199 $78 #
plane-surface $-1 -61.654713583788578 20.721354370691174 1.7521313996000458 -0.6560590369687036 0 0.75470957328743171 0.75470957328743171 0 0.6560590369687036 forward_v I I I I #
coedge $-1 $200 $201 $202 $203 reversed $79 $-1 #
face $-1 $-1 $204 $43 $-1 $205 forward single #
loop $-1 $206 $207 $81 #
cone-surface $-1 -55.913269492941581 17.736215281358433 3.9348653951126131 0.6560590369687036 0 -0.75470957328743171 0.18867739332185793 0 0.1640147592421759 1 I I -0.70710678118654746 0.70710678118654746 0.25 forward I I I I #
loop $-1 $-1 $208 $55 #
coedge $-1 $131 $131 $209 $210 reversed $82 $-1 #
face $-1 $-1 $211 $44 $-1 $212 forward single #
loop $-1 $213 $214 $84 #
cone-surface $-1 -55.913269492941581 20.721354370691174 3.9348653951126131 0.6560590369687036 0 -0.75470957328743171 0.18867739332185793 0 0.1640147592421759 1 I I -0.70710678118654746 0.70710678118654746 0.25 forward I I I I #
loop $-1 $-1 $215 $56 #
coedge $-1 $136 $136 $216 $217 reversed $85 $-1 #
face $-1 $-1 $218 $45 $-1 $219 forward single #
loop $-1 $220 $221 $87 #
cone-surface $-1 -55.913269492941581 23.706493460023921 3.9348653951126131 0.6560590369687036 0 -0.75470957328743171 0.18867739332185793 0 0.1640147592421759 1 I I -0.70710678118654746 0.70710678118654746 0.25 forward I I I I #
loop $-1 $-1 $222 $57 #
coedge $-1 $141 $141 $223 $224 reversed $88 $-1 #
face $-1 $225 $226 $46 $-1 $227 reversed single #
loop $-1 $-1 $228 $90 #
plane-surface $-1 70.781366700802096 18.132211358512833 177.05681205899543 0 1 0 0.74314483375859142 0 0.66913059716165679 forward_v I I I I #
coedge $-1 $229 $230 $231 $232 reversed $91 $-1 #
face $-1 $-1 $233 $47 $-1 $234 forward single #
loop $-1 $235 $236 $93 #
cone-surface $-1 55.767578941347715 23.827712143306776 3.4095484984587898 -0.74314483375859142 0 -0.66913059716165679 0.50184794787124254 0 -0.55735862531894353 1 I I -0.70710678118654724 0.70710678118654768 0.75 forward I I I I #
loop $-1 $-1 $237 $59 #
coedge $-1 $150 $150 $238 $239 reversed $94 $-1 #
face $-1 $240 $241 $36 $-1 $242 reversed single #
loop $-1 $-1 $243 $96 #
plane-surface $-1 0 -29.523212928100719 0 0 1 0 0 0 1 forward_v I I I I #
coedge $-1 $244 $245 $246 $247 forward $97 $-1 #
coedge $-1 $248 $99 $249 $250 forward $61 $-1 #
coedge $-1 $99 $248 $251 $252 forward $61 $-1 #
coedge $-1 $253 $254 $99 $158 reversed $255 $-1 #
edge $-1 $256 -29.523212928100719 $257 29.523212928100719 $157 $258 forward 7 unknown #
face $-1 $259 $260 $37 $-1 $261 reversed single #
loop $-1 $-1 $262 $100 #
plane-surface $-1 -61.65471358378857 0 0 1 0 0 0 0 -1 forward_v I I I I #
coedge $-1 $263 $264 $265 $266 reversed $101 $-1 #
coedge $-1 $267 $103 $268 $269 reversed $64 $-1 #
coedge $-1 $103 $267 $263 $270 forward $64 $-1 #
coedge $-1 $265 $271 $103 $166 forward $272 $-1 #
edge $-1 $273 -16.732485732604278 $274 -8.8489686583886034 $165 $275 forward 7 unknown #
face $-1 $276 $277 $38 $-1 $278 forward single #
loop $-1 $-1 $279 $104 #
plane-surface $-1 -142.55297762051174 -7.8626054809209398 94.81493655955984 0 -1 0 0.6560590369687036 0 -0.75470957328743171 forward_v I I I I #
coedge $-1 $280 $281 $282 $283 reversed $105 $-1 #
coedge $-1 $172 $107 $284 $285 reversed $67 $-1 #
coedge $-1 $107 $171 $280 $286 reversed $67 $-1 #
coedge $-1 $282 $287 $107 $174 forward $277 $-1 #
edge $-1 $288 9.6217752264672995 $289 18.323765559954978 $173 $290 forward 7 unknown #
loop $-1 $-1 $180 $108 #
plane-surface $-1 -61.654713583788578 -12.837837296475509 1.7521313996000458 -0.6560590369687036 0 0.75470957328743171 0.75470957328743171 0 0.6560590369687036 forward_v I I I I #
loop $-1 $-1 $291 $69 #
coedge $-1 $178 $178 $179 $292 reversed $109 $-1 #
coedge $-1 $179 $179 $178 $292 forward $111 $-1 #
coedge $-1 $180 $180 $112 $181 forward $175 $-1 #
edge $-1 $293 0 $293 6.2831853071796004 $180 $294 forward 7 unknown #
loop $-1 $-1 $187 $113 #
plane-surface $-1 -61.654713583788578 -12.837837296475509 1.7521313996000458 -0.6560590369687036 0 0.75470957328743171 0.75470957328743171 0 0.6560590369687036 forward_v I I I I #
loop $-1 $-1 $295 $72 #
coedge $-1 $185 $185 $186 $296 reversed $114 $-1 #
coedge $-1 $186 $186 $185 $296 forward $116 $-1 #
coedge $-1 $187 $187 $117 $188 forward $182 $-1 #
edge $-1 $297 0 $297 6.2831853071796004 $187 $298 forward 7 unknown #
loop $-1 $-1 $194 $118 #
plane-surface $-1 -61.654713583788578 -12.837837296475509 1.7521313996000458 -0.6560590369687036 0 0.75470957328743171 0.75470957328743171 0 0.6560590369687036 forward_v I I I I #
loop $-1 $-1 $299 $75 #
coedge $-1 $192 $192 $193 $300 reversed $119 $-1 #
coedge $-1 $193 $193 $192 $300 forward $121 $-1 #
coedge $-1 $194 $194 $122 $195 forward $189 $-1 #
edge $-1 $301 0 $301 6.2831853071796004 $194 $302 forward 7 unknown #
face $-1 $303 $304 $42 $-1 $305 forward single #
loop $-1 $-1 $306 $123 #
plane-surface $-1 -142.55297762051174 25.696586186245742 94.81493655955984 0 -1 0 0.6560590369687036 0 -0.75470957328743171 forward_v I I I I #
coedge $-1 $307 $308 $309 $310 reversed $124 $-1 #
coedge $-1 $201 $126 $311 $312 reversed $79 $-1 #
coedge $-1 $126 $200 $307 $313 reversed $79 $-1 #
coedge $-1 $309 $314 $126 $203 forward $304 $-1 #
edge $-1 $315 9.6217752264672995 $316 18.323765559954978 $202 $317 forward 7 unknown #
loop $-1 $-1 $209 $127 #
plane-surface $-1 -61.654713583788578 20.721354370691174 1.7521313996000458 -0.6560590369687036 0 0.75470957328743171 0.75470957328743171 0 0.6560590369687036 forward_v I I I I #
loop $-1 $-1 $318 $81 #
coedge $-1 $207 $207 $208 $319 reversed $128 $-1 #
coedge $-1 $208 $208 $207 $319 forward $130 $-1 #
coedge $-1 $209 $209 $131 $210 forward $204 $-1 #
edge $-1 $320 0 $320 6.2831853071796004 $209 $321 forward 7 unknown #
loop $-1 $-1 $216 $132 #
plane-surface $-1 -61.654713583788578 20.721354370691174 1.7521313996000458 -0.6560590369687036 0 0.75470957328743171 0.75470957328743171 0 0.6560590369687036 forward_v I I I I #
loop $-1 $-1 $322 $84 #
coedge $-1 $214 $214 $215 $323 reversed $133 $-1 #
coedge $-1 $215 $215 $214 $323 forward $135 $-1 #
coedge $-1 $216 $216 $136 $217 forward $211 $-1 #
edge $-1 $324 0 $324 6.2831853071796004 $216 $325 forward 7 unknown #
loop $-1 $-1 $223 $137 #
plane-surface $-1 -61.654713583788578 20.721354370691174 1.7521313996000458 -0.6560590369687036 0 0.75470957328743171 0.75470957328743171 0 0.6560590369687036 forward_v I I I I #
loop $-1 $-1 $326 $87 #
coedge $-1 $221 $221 $222 $327 reversed $138 $-1 #
coedge $-1 $222 $222 $221 $327 forward $140 $-1 #
coedge $-1 $223 $223 $141 $224 forward $218 $-1 #
edge $-1 $328 0 $328 6.2831853071796004 $223 $329 forward 7 unknown #
face $-1 $330 $331 $46 $-1 $332 forward single #
loop $-1 $-1 $333 $142 #
plane-surface $-1 0 29.523212928100719 0 0 -1 0 0 0 -1 forward_v I I I I #
coedge $-1 $334 $335 $336 $337 reversed $143 $-1 #
coedge $-1 $338 $145 $333 $339 reversed $91 $-1 #
coedge $-1 $145 $338 $334 $340 forward $91 $-1 #
coedge $-1 $336 $341 $145 $232 forward $331 $-1 #
edge $-1 $342 -17.609356856447331 $343 -6.2183552868594454 $231 $344 forward 7 unknown #
loop $-1 $-1 $238 $146 #
plane-surface $-1 -20.855397052514164 23.827712143306776 94.546701422692706 0.74314483375859142 0 0.66913059716165679 0.66913059716165679 0 -0.74314483375859142 forward_v I I I I #
loop $-1 $-1 $345 $93 #
coedge $-1 $236 $236 $237 $346 reversed $147 $-1 #
coedge $-1 $237 $237 $236 $346 forward $149 $-1 #
coedge $-1 $238 $238 $150 $239 forward $233 $-1 #
edge $-1 $347 0 $347 6.2831853071796004 $238 $348 forward 7 unknown #
face $-1 $349 $350 $36 $-1 $351 reversed single #
loop $-1 $-1 $352 $151 #
plane-surface $-1 -61.65471358378857 0 0 1 0 0 0 0 -1 forward_v I I I I #
coedge $-1 $353 $251 $354 $355 forward $152 $-1 #
coedge $-1 $356 $154 $353 $357 forward $97 $-1 #
coedge $-1 $154 $356 $358 $359 forward $97 $-1 #
coedge $-1 $254 $253 $154 $247 reversed $255 $-1 #
edge $-1 $360 -29.523212928100719 $361 29.523212928100719 $246 $362 forward 7 unknown #
coedge $-1 $156 $155 $363 $364 forward $61 $-1 #
coedge $-1 $365 $366 $155 $250 reversed $350 $-1 #
edge $-1 $257 -61.65471358378857 $367 61.65471358378857 $249 $368 forward 7 unknown #
coedge $-1 $243 $369 $156 $252 reversed $152 $-1 #
edge $-1 $370 -61.65471358378857 $256 61.65471358378857 $251 $371 forward 7 unknown #
coedge $-1 $246 $157 $369 $372 forward $255 $-1 #
coedge $-1 $157 $246 $365 $373 reversed $255 $-1 #
loop $-1 $-1 $253 $349 #
vertex $-1 $158 $374 #
vertex $-1 $158 $375 #
straight-curve $-1 61.65471358378857 0 9.3166563506100601 0 1 0 I I #
face $-1 $376 $377 $37 $-1 $378 forward single #
loop $-1 $-1 $268 $159 #
plane-surface $-1 0 -29.523212928100719 0 0 1 0 0 0 1 forward_v I I I I #
coedge $-1 $379 $380 $381 $382 forward $160 $-1 #
coedge $-1 $381 $162 $164 $270 reversed $101 $-1 #
coedge $-1 $162 $381 $383 $384 reversed $101 $-1 #
coedge $-1 $385 $165 $162 $266 forward $272 $-1 #
edge $-1 $274 1.2192801170538541 $386 5.8046775280554233 $265 $387 forward 7 unknown #
coedge $-1 $164 $163 $379 $388 reversed $64 $-1 #
coedge $-1 $389 $390 $163 $269 forward $260 $-1 #
edge $-1 $391 -61.65471358378857 $273 61.65471358378857 $268 $392 forward 7 unknown #
edge $-1 $393 -61.65471358378857 $274 61.65471358378857 $263 $394 forward 7 unknown #
coedge $-1 $165 $385 $389 $395 forward $272 $-1 #
loop $-1 $-1 $265 $376 #
vertex $-1 $269 $396 #
vertex $-1 $166 $397 #
straight-curve $-1 61.65471358378857 -12.790727195496441 4.7312589396084928 0 1 0 I I #
face $-1 $-1 $398 $38 $-1 $399 reversed single #
loop $-1 $-1 $173 $167 #
plane-surface $-1 0 0 9.3166563506100601 0 0 1 1 0 0 forward_v I I I I #
coedge $-1 $400 $401 $402 $403 reversed $168 $-1 #
coedge $-1 $404 $170 $172 $286 forward $105 $-1 #
coedge $-1 $170 $404 $400 $405 forward $105 $-1 #
coedge $-1 $402 $173 $170 $283 forward $277 $-1 #
edge $-1 $289 -11.394150463792323 $406 -1.4436868326831851 $282 $407 forward 7 unknown #
coedge $-1 $408 $409 $171 $285 forward $398 $-1 #
edge $-1 $410 -45.655336880179867 $288 -38.09081192916986 $284 $411 forward 7 unknown #
edge $-1 $289 -11.530250365823207 $410 -9.44141639987384e-015 $172 $412 forward 7 unknown #
coedge $-1 $173 $402 $408 $413 forward $277 $-1 #
vertex $-1 $285 $414 #
vertex $-1 $174 $415 #
straight-curve $-1 -71.27648881025587 -17.813069112030078 9.3166563506100601 1 0 0 I I #
coedge $-1 $291 $291 $-1 $416 reversed $177 $-1 #
edge $-1 $417 0 $417 6.2831853071796004 $178 $418 forward 7 unknown #
vertex $-1 $181 $419 #
ellipse-curve $-1 -57.303718417044728 -15.822976385808252 5.5343938751050583 -0.6560590369687036 0 0.75470957328743171 0.37735478664371586 0 0.3280295184843518 1 I I #
coedge $-1 $295 $295 $-1 $420 reversed $184 $-1 #
edge $-1 $421 0 $421 6.2831853071796004 $185 $422 forward 7 unknown #
vertex $-1 $188 $423 #
ellipse-curve $-1 -57.303718417044728 -12.837837296475509 5.5343938751050583 -0.6560590369687036 0 0.75470957328743171 0.37735478664371586 0 0.3280295184843518 1 I I #
coedge $-1 $299 $299 $-1 $424 reversed $191 $-1 #
edge $-1 $425 0 $425 6.2831853071796004 $192 $426 forward 7 unknown #
vertex $-1 $195 $427 #
ellipse-curve $-1 -57.303718417044728 -9.8526982071427689 5.5343938751050583 -0.6560590369687036 0 0.75470957328743171 0.37735478664371586 0 0.3280295184843518 1 I I #
face $-1 $-1 $428 $42 $-1 $429 reversed single #
loop $-1 $-1 $202 $196 #
plane-surface $-1 0 0 9.3166563506100601 0 0 1 1 0 0 forward_v I I I I #
coedge $-1 $430 $431 $432 $433 reversed $197 $-1 #
coedge $-1 $434 $199 $201 $313 forward $124 $-1 #
coedge $-1 $199 $434 $430 $435 forward $124 $-1 #
coedge $-1 $432 $202 $199 $310 forward $304 $-1 #
edge $-1 $316 5.3854453697910181 $436 15.335909000900156 $309 $437 forward 7 unknown #
coedge $-1 $438 $439 $200 $312 forward $428 $-1 #
edge $-1 $440 -45.655336880179867 $315 -38.09081192916986 $311 $441 forward 7 unknown #
edge $-1 $316 -11.530250365823207 $440 -9.44141639987384e-015 $201 $442 forward 7 unknown #
coedge $-1 $202 $432 $438 $443 forward $304 $-1 #
vertex $-1 $203 $444 #
vertex $-1 $203 $445 #
straight-curve $-1 -71.27648881025587 15.746122555136605 9.3166563506100601 1 0 0 I I #
coedge $-1 $318 $318 $-1 $446 reversed $206 $-1 #
edge $-1 $447 0 $447 6.2831853071796004 $207 $448 forward 7 unknown #
vertex $-1 $210 $449 #
ellipse-curve $-1 -57.303718417044728 17.736215281358433 5.5343938751050583 -0.6560590369687036 0 0.75470957328743171 0.37735478664371586 0 0.3280295184843518 1 I I #
coedge $-1 $322 $322 $-1 $450 reversed $213 $-1 #
edge $-1 $451 0 $451 6.2831853071796004 $214 $452 forward 7 unknown #
vertex $-1 $217 $453 #
ellipse-curve $-1 -57.303718417044728 20.721354370691174 5.5343938751050583 -0.6560590369687036 0 0.75470957328743171 0.37735478664371586 0 0.3280295184843518 1 I I #
coedge $-1 $326 $326 $-1 $454 reversed $220 $-1 #
edge $-1 $455 0 $455 6.2831853071796004 $221 $456 forward 7 unknown #
vertex $-1 $224 $457 #
ellipse-curve $-1 -57.303718417044728 23.706493460023921 5.5343938751050583 -0.6560590369687036 0 0.75470957328743171 0.37735478664371586 0 0.3280295184843518 1 I I #
face $-1 $-1 $458 $46 $-1 $459 reversed single #
loop $-1 $-1 $231 $225 #
plane-surface $-1 0 0 9.3166563506100601 0 0 1 1 0 0 forward_v I I I I #
coedge $-1 $460 $461 $229 $339 forward $226 $-1 #
coedge $-1 $335 $228 $230 $340 reversed $143 $-1 #
coedge $-1 $228 $334 $462 $463 reversed $143 $-1 #
coedge $-1 $464 $231 $228 $337 forward $331 $-1 #
edge $-1 $343 20.495394965698651 $465 26.264030233387523 $336 $466 forward 7 unknown #
coedge $-1 $230 $229 $467 $468 reversed $91 $-1 #
edge $-1 $469 -81.200988670085934 $342 -72.579898419306076 $333 $470 forward 7 unknown #
edge $-1 $471 -123.30942716757713 $343 -114.68833691679728 $334 $472 forward 7 unknown #
coedge $-1 $231 $464 $460 $473 forward $331 $-1 #
vertex $-1 $232 $474 #
vertex $-1 $232 $475 #
straight-curve $-1 55.886078316099685 11.913856071653388 9.3166563506100601 0 -1 0 I I #
coedge $-1 $345 $345 $-1 $476 reversed $235 $-1 #
edge $-1 $477 0 $477 6.2831853071796004 $236 $478 forward 7 unknown #
vertex $-1 $239 $479 #
ellipse-curve $-1 58.770395949944138 23.827712143306776 6.1132970099932322 0.74314483375859142 0 0.66913059716165679 1.0036958957424851 0 -1.1147172506378871 1 I I #
face $-1 $-1 $255 $36 $-1 $480 reversed single #
loop $-1 $-1 $365 $240 #
plane-surface $-1 0 29.523212928100719 0 0 -1 0 0 0 -1 forward_v I I I I #
coedge $-1 $481 $363 $366 $482 forward $241 $-1 #
coedge $-1 $369 $243 $244 $357 reversed $152 $-1 #
coedge $-1 $363 $481 $243 $355 reversed $241 $-1 #
edge $-1 $370 -9.3166563506100601 $483 9.3166563506100601 $354 $484 forward 7 unknown #
coedge $-1 $245 $244 $481 $485 forward $97 $-1 #
edge $-1 $361 -61.65471358378857 $483 61.65471358378857 $353 $486 forward 7 unknown #
coedge $-1 $366 $365 $245 $359 reversed $350 $-1 #
edge $-1 $487 -61.65471358378857 $360 61.65471358378857 $358 $488 forward 7 unknown #
vertex $-1 $247 $489 #
vertex $-1 $372 $490 #
straight-curve $-1 61.65471358378857 0 -9.3166563506100601 0 -1 0 I I #
coedge $-1 $352 $354 $248 $364 reversed $241 $-1 #
edge $-1 $367 -29.523212928100719 $370 29.523212928100719 $363 $491 forward 7 unknown #
coedge $-1 $358 $249 $254 $373 forward $350 $-1 #
coedge $-1 $249 $358 $352 $482 reversed $350 $-1 #
vertex $-1 $250 $492 #
straight-curve $-1 0 29.523212928100719 9.3166563506100601 -1 0 0 I I #
coedge $-1 $251 $353 $253 $372 reversed $152 $-1 #
vertex $-1 $364 $493 #
straight-curve $-1 0 -29.523212928100719 9.3166563506100601 1 0 0 I I #
edge $-1 $256 -9.3166563506100601 $361 9.3166563506100601 $253 $494 forward 7 unknown #
edge $-1 $257 -9.3166563506100601 $360 9.3166563506100601 $254 $495 forward 7 unknown #
point $-1 61.65471358378857 -29.523212928100719 9.3166563506100601 #
point $-1 61.65471358378857 29.523212928100719 9.3166563506100601 #
face $-1 $-1 $272 $37 $-1 $496 reversed single #
loop $-1 $-1 $383 $259 #
plane-surface $-1 0 0 9.3166563506100601 0 0 1 1 0 0 forward_v I I I I #
coedge $-1 $497 $262 $267 $388 forward $160 $-1 #
coedge $-1 $262 $497 $498 $499 reversed $160 $-1 #
coedge $-1 $264 $263 $262 $382 reversed $101 $-1 #
edge $-1 $500 -5.8046775280554233 $393 -1.2192801170538541 $262 $501 forward 7 unknown #
coedge $-1 $498 $502 $264 $384 forward $377 $-1 #
edge $-1 $386 -61.65471358378857 $500 61.65471358378857 $383 $503 forward 7 unknown #
coedge $-1 $271 $265 $502 $504 reversed $272 $-1 #
vertex $-1 $266 $505 #
straight-curve $-1 61.65471358378857 -21.639695853885044 3.5119788225546387 0 0 1 I I #
edge $-1 $393 8.8489686583886034 $391 16.732485732604278 $379 $506 forward 7 unknown #
coedge $-1 $507 $268 $271 $395 reversed $260 $-1 #
coedge $-1 $268 $507 $497 $508 forward $260 $-1 #
vertex $-1 $269 $509 #
straight-curve $-1 0 -29.523212928100719 4.7312589396084928 1 0 0 I I #
vertex $-1 $388 $510 #
straight-curve $-1 0 -21.639695853885044 4.7312589396084928 1 0 0 I I #
edge $-1 $511 -9.3166563506100601 $273 -4.7312589396084928 $271 $512 forward 7 unknown #
point $-1 61.65471358378857 -29.523212928100719 4.7312589396084928 #
point $-1 61.65471358378857 -21.639695853885044 4.7312589396084928 #
loop $-1 $-1 $284 $276 #
plane-surface $-1 -61.65471358378857 0 0 1 0 0 0 0 -1 forward_v I I I I #
coedge $-1 $401 $279 $281 $405 reversed $168 $-1 #
coedge $-1 $279 $400 $513 $514 reversed $168 $-1 #
coedge $-1 $287 $282 $279 $403 forward $277 $-1 #
edge $-1 $406 -18.323765559954978 $515 -9.6217752264672995 $402 $516 forward 7 unknown #
coedge $-1 $281 $280 $409 $517 reversed $105 $-1 #
edge $-1 $518 9.44141639987384e-015 $406 11.530250365823207 $400 $519 forward 7 unknown #
vertex $-1 $283 $520 #
straight-curve $-1 -52.952723250300892 -6.4189186482377547 9.3166563506100601 0 1 0 I I #
coedge $-1 $513 $284 $287 $413 reversed $398 $-1 #
coedge $-1 $284 $513 $404 $517 forward $398 $-1 #
vertex $-1 $285 $521 #
straight-curve $-1 -61.65471358378857 -17.813069112030078 47.40746827977992 0 0 1 I I #
straight-curve $-1 -61.654713583788578 -17.813069112030078 1.7521313996000458 -0.75470957328743171 0 -0.6560590369687036 I I #
edge $-1 $515 7.8626054809209398 $288 17.813069112030078 $408 $522 forward 7 unknown #
point $-1 -61.65471358378857 -17.813069112030078 9.3166563506100601 #
point $-1 -52.952723250300892 -17.813069112030078 9.3166563506100601 #
edge $-1 $523 1 $523 0 $291 $-1 forward 7 unknown #
vertex $-1 $292 $524 #
ellipse-curve $-1 -56.077284252183759 -15.822976385808252 4.1235427884344711 -0.6560590369687036 0 0.75470957328743171 0.37735478664371586 0 0.3280295184843518 1 I I #
point $-1 -56.926363630401013 -15.822976385808252 5.8624233935894061 #
edge $-1 $525 1 $525 0 $295 $-1 forward 7 unknown #
vertex $-1 $296 $526 #
ellipse-curve $-1 -56.077284252183759 -12.837837296475509 4.1235427884344711 -0.6560590369687036 0 0.75470957328743171 0.37735478664371586 0 0.3280295184843518 1 I I #
point $-1 -56.926363630401013 -12.837837296475509 5.8624233935894061 #
edge $-1 $527 1 $527 0 $299 $-1 forward 7 unknown #
vertex $-1 $300 $528 #
ellipse-curve $-1 -56.077284252183759 -9.8526982071427689 4.1235427884344711 -0.6560590369687036 0 0.75470957328743171 0.37735478664371586 0 0.3280295184843518 1 I I #
point $-1 -56.926363630401013 -9.8526982071427689 5.8624233935894061 #
loop $-1 $-1 $311 $303 #
plane-surface $-1 -61.65471358378857 0 0 1 0 0 0 0 -1 forward_v I I I I #
coedge $-1 $431 $306 $308 $435 reversed $197 $-1 #
coedge $-1 $306 $430 $529 $530 reversed $197 $-1 #
coedge $-1 $314 $309 $306 $433 forward $304 $-1 #
edge $-1 $436 -18.323765559954978 $531 -9.6217752264672995 $432 $532 forward 7 unknown #
coedge $-1 $308 $307 $439 $533 reversed $124 $-1 #
edge $-1 $534 9.44141639987384e-015 $436 11.530250365823207 $430 $535 forward 7 unknown #
vertex $-1 $310 $536 #
straight-curve $-1 -52.952723250300892 10.360677185345587 9.3166563506100601 0 1 0 I I #
coedge $-1 $529 $311 $314 $443 reversed $428 $-1 #
coedge $-1 $311 $529 $434 $533 forward $428 $-1 #
vertex $-1 $312 $537 #
straight-curve $-1 -61.65471358378857 15.746122555136605 47.40746827977992 0 0 1 I I #
straight-curve $-1 -61.654713583788578 15.746122555136605 1.7521313996000458 -0.75470957328743171 0 -0.6560590369687036 I I #
edge $-1 $531 -25.696586186245742 $315 -15.746122555136605 $438 $538 forward 7 unknown #
point $-1 -61.65471358378857 15.746122555136605 9.3166563506100601 #
point $-1 -52.952723250300892 15.746122555136605 9.3166563506100601 #
edge $-1 $539 1 $539 0 $318 $-1 forward 7 unknown #
vertex $-1 $319 $540 #
ellipse-curve $-1 -56.077284252183759 17.736215281358433 4.1235427884344711 -0.6560590369687036 0 0.75470957328743171 0.37735478664371586 0 0.3280295184843518 1 I I #
point $-1 -56.926363630401013 17.736215281358433 5.8624233935894061 #
edge $-1 $541 1 $541 0 $322 $-1 forward 7 unknown #
vertex $-1 $323 $542 #
ellipse-curve $-1 -56.077284252183759 20.721354370691174 4.1235427884344711 -0.6560590369687036 0 0.75470957328743171 0.37735478664371586 0 0.3280295184843518 1 I I #
point $-1 -56.926363630401013 20.721354370691174 5.8624233935894061 #
edge $-1 $543 1 $543 0 $326 $-1 forward 7 unknown #
vertex $-1 $327 $544 #
ellipse-curve $-1 -56.077284252183759 23.706493460023921 4.1235427884344711 -0.6560590369687036 0 0.75470957328743171 0.37735478664371586 0 0.3280295184843518 1 I I #
point $-1 -56.926363630401013 23.706493460023921 5.8624233935894061 #
loop $-1 $-1 $467 $330 #
plane-surface $-1 61.65471358378857 0 0 -1 0 0 0 0 1 forward_v I I I I #
coedge $-1 $461 $333 $341 $473 reversed $226 $-1 #
coedge $-1 $333 $460 $545 $546 forward $226 $-1 #
coedge $-1 $467 $547 $335 $463 forward $458 $-1 #
edge $-1 $465 79.211749678887657 $471 85.61846836012127 $462 $548 forward 7 unknown #
coedge $-1 $341 $336 $547 $549 forward $331 $-1 #
vertex $-1 $549 $550 #
straight-curve $-1 35.390683350401048 18.132211358512833 9.3166563506100601 1 0 0 I I #
coedge $-1 $545 $462 $338 $468 forward $458 $-1 #
edge $-1 $471 6.2183552868594454 $469 17.609356856447331 $467 $551 forward 7 unknown #
vertex $-1 $468 $552 #
straight-curve $-1 7.3206475448570245 29.523212928100719 63.254032895640727 -0.66913059716165679 0 0.74314483375859142 I I #
vertex $-1 $468 $553 #
straight-curve $-1 -20.855397052514164 18.132211358512833 94.546701422692706 -0.66913059716165679 0 0.74314483375859142 I I #
edge $-1 $554 -61.65471358378857 $342 -55.886078316099699 $460 $555 forward 7 unknown #
point $-1 55.886078316099699 29.523212928100719 9.3166563506100601 #
point $-1 55.886078316099699 18.132211358512833 9.3166563506100601 #
edge $-1 $556 1 $556 0 $345 $-1 forward 7 unknown #
vertex $-1 $346 $557 #
ellipse-curve $-1 56.324937566666655 23.827712143306776 3.9113964463300328 0.74314483375859142 0 0.66913059716165679 1.0036958957424851 0 -1.1147172506378871 1 I I #
point $-1 59.774091845686641 23.827712143306776 4.9985797593553674 #
plane-surface $-1 61.65471358378857 0 0 -1 0 0 0 0 1 forward_v I I I I #
coedge $-1 $354 $352 $356 $485 reversed $241 $-1 #
edge $-1 $367 -9.3166563506100601 $487 9.3166563506100601 $366 $558 forward 7 unknown #
vertex $-1 $485 $559 #
straight-curve $-1 -61.65471358378857 -29.523212928100719 0 0 0 -1 I I #
edge $-1 $483 -29.523212928100719 $487 29.523212928100719 $481 $560 forward 7 unknown #
straight-curve $-1 0 -29.523212928100719 -9.3166563506100601 -1 0 0 I I #
vertex $-1 $359 $561 #
straight-curve $-1 0 29.523212928100719 -9.3166563506100601 1 0 0 I I #
point $-1 61.65471358378857 29.523212928100719 -9.3166563506100601 #
point $-1 61.65471358378857 -29.523212928100719 -9.3166563506100601 #
straight-curve $-1 -61.65471358378857 0 9.3166563506100601 0 -1 0 I I #
point $-1 -61.65471358378857 29.523212928100719 9.3166563506100601 #
point $-1 -61.65471358378857 -29.523212928100719 9.3166563506100601 #
straight-curve $-1 61.65471358378857 -29.523212928100719 0 0 0 -1 I I #
straight-curve $-1 61.65471358378857 29.523212928100719 0 0 0 -1 I I #
plane-surface $-1 61.65471358378857 0 0 -1 0 0 0 0 1 forward_v I I I I #
coedge $-1 $380 $379 $390 $508 reversed $160 $-1 #
coedge $-1 $562 $383 $380 $499 forward $377 $-1 #
edge $-1 $500 21.639695853885044 $563 29.523212928100719 $380 $564 forward 7 unknown #
vertex $-1 $499 $565 #
straight-curve $-1 -61.65471358378857 -21.639695853885044 3.5119788225546387 0 0 -1 I I #
coedge $-1 $383 $562 $385 $504 forward $377 $-1 #
straight-curve $-1 0 -21.639695853885044 9.3166563506100601 -1 0 0 I I #
edge $-1 $511 -29.523212928100719 $386 -21.639695853885044 $385 $566 forward 7 unknown #
point $-1 61.65471358378857 -21.639695853885044 9.3166563506100619 #
straight-curve $-1 -61.65471358378857 -12.790727195496441 4.7312589396084928 0 -1 0 I I #
coedge $-1 $390 $389 $562 $567 reversed $260 $-1 #
edge $-1 $563 -9.3166563506100601 $391 -4.7312589396084928 $497 $568 forward 7 unknown #
point $-1 -61.65471358378857 -29.523212928100719 4.7312589396084928 #
point $-1 -61.65471358378857 -21.639695853885044 4.7312589396084928 #
vertex $-1 $504 $569 #
straight-curve $-1 61.65471358378857 -29.523212928100719 0 0 0 -1 I I #
coedge $-1 $409 $408 $401 $514 forward $398 $-1 #
edge $-1 $515 38.09081192916986 $518 45.655336880179867 $513 $570 forward 7 unknown #
vertex $-1 $413 $571 #
straight-curve $-1 -71.27648881025587 -7.8626054809209398 9.3166563506100601 -1 0 0 I I #
edge $-1 $518 1.4436868326831851 $410 11.394150463792323 $409 $572 forward 7 unknown #
vertex $-1 $517 $573 #
straight-curve $-1 -61.654713583788578 -7.8626054809209398 1.7521313996000458 0.75470957328743171 0 0.6560590369687036 I I #
point $-1 -52.952723250300892 -7.8626054809209398 9.3166563506100601 #
point $-1 -61.65471358378857 -17.813069112030078 1.752131399600052 #
straight-curve $-1 -61.65471358378857 0 9.3166563506100601 0 -1 0 I I #
vertex $-1 $416 $574 #
point $-1 -55.699929465540038 -15.822976385808252 4.4515723069188233 #
vertex $-1 $420 $575 #
point $-1 -55.699929465540038 -12.837837296475509 4.4515723069188233 #
vertex $-1 $424 $576 #
point $-1 -55.699929465540038 -9.8526982071427689 4.4515723069188233 #
coedge $-1 $439 $438 $431 $530 forward $428 $-1 #
edge $-1 $531 38.09081192916986 $534 45.655336880179867 $529 $577 forward 7 unknown #
vertex $-1 $443 $578 #
straight-curve $-1 -71.27648881025587 25.696586186245742 9.3166563506100601 -1 0 0 I I #
edge $-1 $534 -15.335909000900156 $440 -5.3854453697910181 $439 $579 forward 7 unknown #
vertex $-1 $533 $580 #
straight-curve $-1 -61.654713583788578 25.696586186245742 1.7521313996000458 0.75470957328743171 0 0.6560590369687036 I I #
point $-1 -52.952723250300892 25.696586186245742 9.3166563506100601 #
point $-1 -61.65471358378857 15.746122555136605 1.752131399600052 #
straight-curve $-1 -61.65471358378857 0 9.3166563506100601 0 -1 0 I I #
vertex $-1 $446 $581 #
point $-1 -55.699929465540038 17.736215281358433 4.4515723069188233 #
vertex $-1 $450 $582 #
point $-1 -55.699929465540038 20.721354370691174 4.4515723069188233 #
vertex $-1 $454 $583 #
point $-1 -55.699929465540038 23.706493460023921 4.4515723069188233 #
coedge $-1 $547 $467 $461 $546 reversed $458 $-1 #
edge $-1 $554 -9.3166563506100601 $469 -2.9099376693764469 $545 $584 forward 7 unknown #
coedge $-1 $462 $545 $464 $549 reversed $458 $-1 #
straight-curve $-1 61.65471358378857 18.132211358512833 88.528406029497717 0 0 -1 I I #
edge $-1 $465 18.132211358512833 $554 29.523212928100719 $547 $585 forward 7 unknown #
point $-1 61.65471358378857 18.132211358512833 9.3166563506100601 #
straight-curve $-1 61.654713583788563 11.913856071653388 2.9099376693764398 0 1 0 I I #
point $-1 61.654713583788563 29.523212928100719 2.9099376693764469 #
point $-1 61.654713583788563 18.132211358512833 2.9099376693764469 #
vertex $-1 $549 $586 #
straight-curve $-1 0 29.523212928100719 9.3166563506100601 -1 0 0 I I #
vertex $-1 $476 $587 #
point $-1 57.328633462409144 23.827712143306776 2.7966791956921457 #
straight-curve $-1 -61.65471358378857 29.523212928100719 0 0 0 -1 I I #
point $-1 -61.65471358378857 -29.523212928100719 -9.3166563506100601 #
straight-curve $-1 -61.65471358378857 0 -9.3166563506100601 0 1 0 I I #
point $-1 -61.65471358378857 29.523212928100719 -9.3166563506100601 #
coedge $-1 $502 $498 $507 $567 forward $377 $-1 #
vertex $-1 $499 $588 #
straight-curve $-1 -61.65471358378857 0 9.3166563506100601 0 -1 0 I I #
point $-1 -61.65471358378857 -21.639695853885044 9.3166563506100619 #
straight-curve $-1 61.65471358378857 0 9.3166563506100601 0 1 0 I I #
edge $-1 $563 -61.65471358378857 $511 61.65471358378857 $507 $589 forward 7 unknown #
straight-curve $-1 -61.65471358378857 -29.523212928100719 0 0 0 -1 I I #
point $-1 61.65471358378857 -29.523212928100719 9.3166563506100601 #
straight-curve $-1 -61.65471358378857 -7.8626054809209398 47.40746827977992 0 0 -1 I I #
point $-1 -61.65471358378857 -7.8626054809209398 9.3166563506100601 #
straight-curve $-1 -61.65471358378857 -6.4189186482377547 1.7521313996000549 0 -1 0 I I #
point $-1 -61.65471358378857 -7.8626054809209398 1.752131399600052 #
point $-1 -55.749254733699402 -15.822976385808252 3.7461880017907552 #
point $-1 -55.749254733699402 -12.837837296475509 3.7461880017907552 #
point $-1 -55.749254733699402 -9.8526982071427689 3.7461880017907552 #
straight-curve $-1 -61.65471358378857 25.696586186245742 47.40746827977992 0 0 -1 I I #
point $-1 -61.65471358378857 25.696586186245742 9.3166563506100601 #
straight-curve $-1 -61.65471358378857 10.360677185345587 1.7521313996000549 0 -1 0 I I #
point $-1 -61.65471358378857 25.696586186245742 1.752131399600052 #
point $-1 -55.749254733699402 17.736215281358433 3.7461880017907552 #
point $-1 -55.749254733699402 20.721354370691174 3.7461880017907552 #
point $-1 -55.749254733699402 23.706493460023921 3.7461880017907552 #
straight-curve $-1 61.65471358378857 29.523212928100719 0 0 0 -1 I I #
straight-curve $-1 61.65471358378857 0 9.3166563506100601 0 1 0 I I #
point $-1 61.65471358378857 29.523212928100719 9.3166563506100601 #
point $-1 55.210220316028774 23.827712143306776 2.9077005505875468 #
point $-1 -61.65471358378857 -29.523212928100719 9.3166563506100601 #
straight-curve $-1 0 -29.523212928100719 9.3166563506100601 1 0 0 I I #
End-of-ACIS-data 