500 0 10 0           
7 Unknown 11 ACIS 5.0 NT 24 Fri Mar 26 01:06:47 1999 
-1 9.9999999999999995e-007 1e-010 
body $-1 $10 $-1 $11 #
body $-1 $12 $-1 $13 #
body $-1 $14 $-1 $15 #
body $-1 $16 $-1 $17 #
body $-1 $18 $-1 $19 #
body $-1 $20 $-1 $21 #
body $-1 $22 $-1 $23 #
body $-1 $24 $-1 $25 #
body $-1 $26 $-1 $27 #
body $-1 $28 $-1 $29 #
lump $-1 $-1 $30 $0 #
transform $-1 1 0 0 0 1 0 0 0 1 78.095645008697772 43.361947295457128 15.604451854727069 1 rotate no_reflect no_shear #
lump $-1 $-1 $31 $1 #
transform $-1 1 0 0 0 1 0 0 0 1 78.095645008697772 43.361947295457128 15.604451854727069 1 rotate no_reflect no_shear #
lump $-1 $-1 $32 $2 #
transform $-1 1 0 0 0 1 0 0 0 1 78.095645008697772 43.361947295457128 15.604451854727069 1 rotate no_reflect no_shear #
lump $-1 $-1 $33 $3 #
transform $-1 1 0 0 0 1 0 0 0 1 78.095645008697772 43.361947295457128 15.604451854727069 1 rotate no_reflect no_shear #
lump $-1 $-1 $34 $4 #
transform $-1 1 0 0 0 1 0 0 0 1 78.095645008697772 43.361947295457128 15.604451854727069 1 rotate no_reflect no_shear #
lump $-1 $-1 $35 $5 #
transform $-1 1 0 0 0 1 0 0 0 1 78.095645008697772 43.361947295457128 15.604451854727069 1 rotate no_reflect no_shear #
lump $-1 $-1 $36 $6 #
transform $-1 1 0 0 0 1 0 0 0 1 78.095645008697772 43.361947295457128 15.604451854727069 1 rotate no_reflect no_shear #
lump $-1 $-1 $37 $7 #
transform $-1 1 0 0 0 1 0 0 0 1 78.095645008697772 43.361947295457128 15.604451854727069 1 rotate no_reflect no_shear #
lump $-1 $-1 $38 $8 #
transform $-1 1 0 0 0 1 0 0 0 1 78.095645008697772 43.361947295457128 15.604451854727069 1 rotate no_reflect no_shear #
lump $-1 $-1 $39 $9 #
transform $-1 1 0 0 0 1 0 0 0 1 78.095645008697772 43.361947295457128 15.604451854727069 1 rotate no_reflect no_shear #
shell $-1 $-1 $-1 $40 $-1 $10 #
shell $-1 $-1 $-1 $41 $-1 $12 #
shell $-1 $-1 $-1 $42 $-1 $14 #
shell $-1 $-1 $-1 $43 $-1 $16 #
shell $-1 $-1 $-1 $44 $-1 $18 #
shell $-1 $-1 $-1 $45 $-1 $20 #
shell $-1 $-1 $-1 $46 $-1 $22 #
shell $-1 $-1 $-1 $47 $-1 $24 #
shell $-1 $-1 $-1 $48 $-1 $26 #
shell $-1 $-1 $-1 $49 $-1 $28 #
face $-1 $50 $51 $30 $-1 $52 forward single #
face $-1 $53 $54 $31 $-1 $55 forward single #
face $-1 $56 $57 $32 $-1 $58 forward single #
face $-1 $59 $60 $33 $-1 $61 reversed single #
face $-1 $62 $63 $34 $-1 $64 forward single #
face $-1 $65 $66 $35 $-1 $67 forward single #
face $-1 $68 $69 $36 $-1 $70 forward single #
face $-1 $71 $72 $37 $-1 $73 reversed single #
face $-1 $74 $75 $38 $-1 $76 forward single #
face $-1 $77 $78 $39 $-1 $79 forward single #
face $-1 $80 $81 $30 $-1 $82 reversed single #
loop $-1 $-1 $83 $40 #
plane-surface $-1 0 0 15.604451854727069 0 0 1 1 0 0 forward_v I I I I #
face $-1 $84 $85 $31 $-1 $86 forward single #
loop $-1 $-1 $87 $41 #
plane-surface $-1 0 -43.361947295457128 0 0 1 0 0 0 1 forward_v I I I I #
face $-1 $88 $89 $32 $-1 $90 reversed single #
loop $-1 $-1 $91 $42 #
plane-surface $-1 0 43.361947295457128 0 0 -1 0 0 0 -1 forward_v I I I I #
face $-1 $92 $93 $33 $-1 $94 reversed single #
loop $-1 $-1 $95 $43 #
plane-surface $-1 -204.45705428435048 8.2447646994235946 92.813998709682011 0 1 0 -0.80901700255871778 0 0.5877852410284794 forward_v I I I I #
face $-1 $96 $97 $34 $-1 $98 forward single #
loop $-1 $99 $100 $44 #
cone-surface $-1 -70.687820247705446 11.877459062792518 6.7763761499820765 0.80901700255871778 0 -0.5877852410284794 0.8816778615427191 0 1.2135255038380768 1 I I 0 1 1.5 forward I I I I #
face $-1 $101 $102 $35 $-1 $103 forward single #
loop $-1 $104 $105 $45 #
cone-surface $-1 -70.687820247705446 17.326500607845915 6.7763761499820765 0.80901700255871778 0 -0.5877852410284794 0.8816778615427191 0 1.2135255038380768 1 I I 0 1 1.5 forward I I I I #
face $-1 $106 $107 $36 $-1 $108 forward single #
loop $-1 $109 $110 $46 #
cone-surface $-1 -70.687820247705446 22.775542152899305 6.7763761499820765 0.80901700255871778 0 -0.5877852410284794 0.8816778615427191 0 1.2135255038380768 1 I I 0 1 1.5 forward I I I I #
face $-1 $111 $112 $37 $-1 $113 reversed single #
loop $-1 $-1 $114 $47 #
plane-surface $-1 66.535271033670369 20.07113761952537 221.3783093334718 0 -1 0 -0.66913061440640931 0 -0.74314481823134659 forward_v I I I I #
face $-1 $115 $116 $38 $-1 $117 forward single #
loop $-1 $118 $119 $48 #
cone-surface $-1 69.404853264155051 12.878042985651462 7.6812696332317625 -0.66913061440640931 0 -0.74314481823134659 0.74314481823134659 0 -0.66913061440640931 1 I I 0 1 1 forward I I I I #
face $-1 $120 $121 $39 $-1 $122 forward single #
loop $-1 $123 $124 $49 #
cone-surface $-1 69.404853264155051 17.193899765975807 7.6812696332317625 -0.66913061440640931 0 -0.74314481823134659 0.74314481823134659 0 -0.66913061440640931 1 I I 0 1 1 forward I I I I #
face $-1 $125 $126 $30 $-1 $127 reversed single #
loop $-1 $-1 $128 $50 #
plane-surface $-1 0 0 -15.604451854727069 0 0 1 1 0 0 forward_v I I I I #
coedge $-1 $129 $130 $131 $132 forward $51 $-1 #
face $-1 $133 $134 $31 $-1 $135 reversed single #
loop $-1 $-1 $136 $53 #
plane-surface $-1 0 0 15.604451854727069 0 0 1 1 0 0 forward_v I I I I #
coedge $-1 $137 $138 $139 $140 forward $54 $-1 #
face $-1 $141 $142 $32 $-1 $143 reversed single #
loop $-1 $-1 $144 $56 #
plane-surface $-1 78.095645008697772 0 0 -1 0 0 0 0 1 forward_v I I I I #
coedge $-1 $145 $146 $147 $148 forward $57 $-1 #
face $-1 $149 $150 $33 $-1 $151 reversed single #
loop $-1 $-1 $152 $59 #
plane-surface $-1 -78.095645008697758 17.326500607845915 1.0070636602580407 -0.80901700255871778 0 0.5877852410284794 0.5877852410284794 0 0.80901700255871778 forward_v I I I I #
coedge $-1 $153 $154 $155 $156 reversed $60 $-1 #
face $-1 $-1 $157 $34 $-1 $158 forward single #
loop $-1 $159 $160 $62 #
cone-surface $-1 -67.976044240074856 11.877459062792518 4.8061556117002393 0.80901700255871778 0 -0.5877852410284794 0.44083893077135955 0 0.60676275191903839 1 I I -0.70710678118654757 0.70710678118654757 0.75 forward I I I I #
loop $-1 $-1 $161 $44 #
coedge $-1 $100 $100 $162 $163 reversed $63 $-1 #
face $-1 $-1 $164 $35 $-1 $165 forward single #
loop $-1 $166 $167 $65 #
cone-surface $-1 -67.976044240074856 17.326500607845915 4.8061556117002393 0.80901700255871778 0 -0.5877852410284794 0.44083893077135955 0 0.60676275191903839 1 I I -0.70710678118654757 0.70710678118654757 0.75 forward I I I I #
loop $-1 $-1 $168 $45 #
coedge $-1 $105 $105 $169 $170 reversed $66 $-1 #
face $-1 $-1 $171 $36 $-1 $172 forward single #
loop $-1 $173 $174 $68 #
cone-surface $-1 -67.976044240074856 22.775542152899305 4.8061556117002393 0.80901700255871778 0 -0.5877852410284794 0.44083893077135955 0 0.60676275191903839 1 I I -0.70710678118654757 0.70710678118654757 0.75 forward I I I I #
loop $-1 $-1 $175 $46 #
coedge $-1 $110 $110 $176 $177 reversed $69 $-1 #
face $-1 $178 $179 $37 $-1 $180 reversed single #
loop $-1 $-1 $181 $71 #
plane-surface $-1 -37.977102820599171 15.035971375813631 105.30556150417485 0.66913061440640931 0 0.74314481823134659 0.74314481823134659 0 -0.66913061440640931 forward_v I I I I #
coedge $-1 $182 $183 $184 $185 reversed $72 $-1 #
face $-1 $-1 $186 $38 $-1 $187 forward single #
loop $-1 $188 $189 $74 #
cone-surface $-1 68.604283726453048 12.878042985651462 6.7921471050316651 -0.66913061440640931 0 -0.74314481823134659 0.3715724091156733 0 -0.33456530720320465 1 I I -0.70710678118654746 0.70710678118654746 0.5 forward I I I I #
loop $-1 $-1 $190 $48 #
coedge $-1 $119 $119 $191 $192 reversed $75 $-1 #
face $-1 $-1 $193 $39 $-1 $194 forward single #
loop $-1 $195 $196 $77 #
cone-surface $-1 68.604283726453048 17.193899765975807 6.7921471050316651 -0.66913061440640931 0 -0.74314481823134659 0.3715724091156733 0 -0.33456530720320465 1 I I -0.70710678118654746 0.70710678118654746 0.5 forward I I I I #
loop $-1 $-1 $197 $49 #
coedge $-1 $124 $124 $198 $199 reversed $78 $-1 #
face $-1 $200 $201 $30 $-1 $202 reversed single #
loop $-1 $-1 $203 $80 #
plane-surface $-1 0 -43.361947295457128 0 0 1 0 0 0 1 forward_v I I I I #
coedge $-1 $204 $205 $206 $207 forward $81 $-1 #
coedge $-1 $208 $83 $209 $210 forward $51 $-1 #
coedge $-1 $83 $208 $211 $212 forward $51 $-1 #
coedge $-1 $213 $214 $83 $132 reversed $215 $-1 #
edge $-1 $216 -43.361947295457128 $217 43.361947295457128 $131 $218 forward 7 unknown #
face $-1 $219 $220 $31 $-1 $221 reversed single #
loop $-1 $-1 $222 $84 #
plane-surface $-1 -78.095645008697772 0 0 1 0 0 0 0 -1 forward_v I I I I #
coedge $-1 $223 $224 $225 $226 forward $85 $-1 #
coedge $-1 $225 $87 $222 $227 reversed $54 $-1 #
coedge $-1 $87 $225 $228 $229 reversed $54 $-1 #
coedge $-1 $230 $231 $87 $140 reversed $220 $-1 #
edge $-1 $232 -78.095645008697772 $233 78.095645008697772 $139 $234 forward 7 unknown #
face $-1 $235 $236 $32 $-1 $237 reversed single #
loop $-1 $-1 $238 $88 #
plane-surface $-1 0 49.787507877286231 6.3583605268585472 0 0 1 1 0 0 forward_v I I I I #
coedge $-1 $239 $240 $145 $241 forward $89 $-1 #
coedge $-1 $242 $91 $144 $241 reversed $57 $-1 #
coedge $-1 $91 $242 $243 $244 reversed $57 $-1 #
coedge $-1 $245 $238 $91 $148 reversed $142 $-1 #
edge $-1 $246 -78.095645008697772 $247 78.095645008697772 $147 $248 forward 7 unknown #
face $-1 $249 $250 $33 $-1 $251 reversed single #
loop $-1 $-1 $252 $92 #
plane-surface $-1 -204.45705428435048 26.408236516268236 92.813998709682011 0 -1 0 0.80901700255871778 0 -0.5877852410284794 forward_v I I I I #
coedge $-1 $253 $254 $255 $256 reversed $93 $-1 #
coedge $-1 $154 $95 $257 $258 reversed $60 $-1 #
coedge $-1 $95 $153 $253 $259 reversed $60 $-1 #
coedge $-1 $255 $260 $95 $156 forward $261 $-1 #
edge $-1 $262 24.132882133477466 $263 34.73850514403901 $155 $264 forward 7 unknown #
loop $-1 $-1 $162 $96 #
plane-surface $-1 -78.095645008697758 17.326500607845915 1.0070636602580407 -0.80901700255871778 0 0.5877852410284794 0.5877852410284794 0 0.80901700255871778 forward_v I I I I #
loop $-1 $-1 $265 $62 #
coedge $-1 $160 $160 $161 $266 reversed $97 $-1 #
coedge $-1 $161 $161 $160 $266 forward $99 $-1 #
coedge $-1 $162 $162 $100 $163 forward $157 $-1 #
edge $-1 $267 0 $267 6.2831853071796004 $162 $268 forward 7 unknown #
loop $-1 $-1 $169 $101 #
plane-surface $-1 -78.095645008697758 17.326500607845915 1.0070636602580407 -0.80901700255871778 0 0.5877852410284794 0.5877852410284794 0 0.80901700255871778 forward_v I I I I #
loop $-1 $-1 $269 $65 #
coedge $-1 $167 $167 $168 $270 reversed $102 $-1 #
coedge $-1 $168 $168 $167 $270 forward $104 $-1 #
coedge $-1 $169 $169 $105 $170 forward $164 $-1 #
edge $-1 $271 0 $271 6.2831853071796004 $169 $272 forward 7 unknown #
loop $-1 $-1 $176 $106 #
plane-surface $-1 -78.095645008697758 17.326500607845915 1.0070636602580407 -0.80901700255871778 0 0.5877852410284794 0.5877852410284794 0 0.80901700255871778 forward_v I I I I #
loop $-1 $-1 $273 $68 #
coedge $-1 $174 $174 $175 $274 reversed $107 $-1 #
coedge $-1 $175 $175 $174 $274 forward $109 $-1 #
coedge $-1 $176 $176 $110 $177 forward $171 $-1 #
edge $-1 $275 0 $275 6.2831853071796004 $176 $276 forward 7 unknown #
face $-1 $277 $278 $37 $-1 $279 forward single #
loop $-1 $-1 $280 $111 #
plane-surface $-1 66.535271033670369 10.000805132101892 221.3783093334718 0 1 0 0.66913061440640931 0 0.74314481823134659 forward_v I I I I #
coedge $-1 $281 $282 $283 $284 reversed $112 $-1 #
coedge $-1 $183 $114 $285 $286 reversed $72 $-1 #
coedge $-1 $114 $182 $281 $287 reversed $72 $-1 #
coedge $-1 $283 $288 $114 $185 forward $278 $-1 #
edge $-1 $289 -44.828009491862588 $290 -28.378434463774781 $184 $291 forward 7 unknown #
loop $-1 $-1 $191 $115 #
plane-surface $-1 -37.977102820599171 15.035971375813631 105.30556150417485 0.66913061440640931 0 0.74314481823134659 0.74314481823134659 0 -0.66913061440640931 forward_v I I I I #
loop $-1 $-1 $292 $74 #
coedge $-1 $189 $189 $190 $293 reversed $116 $-1 #
coedge $-1 $190 $190 $189 $293 forward $118 $-1 #
coedge $-1 $191 $191 $119 $192 forward $186 $-1 #
edge $-1 $294 0 $294 6.2831853071796004 $191 $295 forward 7 unknown #
loop $-1 $-1 $198 $120 #
plane-surface $-1 -37.977102820599171 15.035971375813631 105.30556150417485 0.66913061440640931 0 0.74314481823134659 0.74314481823134659 0 -0.66913061440640931 forward_v I I I I #
loop $-1 $-1 $296 $77 #
coedge $-1 $196 $196 $197 $297 reversed $121 $-1 #
coedge $-1 $197 $197 $196 $297 forward $123 $-1 #
coedge $-1 $198 $198 $124 $199 forward $193 $-1 #
edge $-1 $298 0 $298 6.2831853071796004 $198 $299 forward 7 unknown #
face $-1 $300 $301 $30 $-1 $302 reversed single #
loop $-1 $-1 $303 $125 #
plane-surface $-1 -78.095645008697772 0 0 1 0 0 0 0 -1 forward_v I I I I #
coedge $-1 $304 $211 $305 $306 forward $126 $-1 #
coedge $-1 $307 $128 $304 $308 forward $81 $-1 #
coedge $-1 $128 $307 $309 $310 forward $81 $-1 #
coedge $-1 $214 $213 $128 $207 reversed $215 $-1 #
edge $-1 $311 -43.361947295457128 $312 43.361947295457128 $206 $313 forward 7 unknown #
coedge $-1 $130 $129 $314 $315 forward $51 $-1 #
coedge $-1 $316 $317 $129 $210 reversed $301 $-1 #
edge $-1 $217 -78.095645008697772 $318 78.095645008697772 $209 $319 forward 7 unknown #
coedge $-1 $203 $320 $130 $212 reversed $126 $-1 #
edge $-1 $321 -78.095645008697772 $216 78.095645008697772 $211 $322 forward 7 unknown #
coedge $-1 $206 $131 $320 $323 forward $215 $-1 #
coedge $-1 $131 $206 $316 $324 reversed $215 $-1 #
loop $-1 $-1 $213 $300 #
vertex $-1 $132 $325 #
vertex $-1 $132 $326 #
straight-curve $-1 78.095645008697772 0 15.604451854727069 0 1 0 I I #
face $-1 $327 $328 $31 $-1 $329 reversed single #
loop $-1 $-1 $230 $133 #
plane-surface $-1 0 -49.787507877286238 6.3583605268585472 0 0 1 1 0 0 forward_v I I I I #
coedge $-1 $330 $331 $137 $227 forward $134 $-1 #
coedge $-1 $332 $136 $331 $333 forward $85 $-1 #
coedge $-1 $136 $332 $334 $335 forward $85 $-1 #
coedge $-1 $138 $137 $136 $226 reversed $54 $-1 #
edge $-1 $336 -78.095645008697772 $337 78.095645008697772 $136 $338 forward 7 unknown #
edge $-1 $337 -15.604451854727069 $233 -6.3583605268585472 $222 $339 forward 7 unknown #
coedge $-1 $334 $340 $138 $229 forward $341 $-1 #
edge $-1 $232 6.3583605268585472 $336 15.604451854727069 $228 $342 forward 7 unknown #
coedge $-1 $343 $139 $340 $344 forward $220 $-1 #
coedge $-1 $139 $343 $330 $345 forward $220 $-1 #
vertex $-1 $229 $346 #
vertex $-1 $227 $347 #
straight-curve $-1 0 -43.361947295457128 6.3583605268585472 -1 0 0 I I #
face $-1 $348 $349 $32 $-1 $350 forward single #
loop $-1 $-1 $351 $141 #
plane-surface $-1 0 56.213068459115341 10.981406190792809 0 -1 0 0 0 -1 forward_v I I I I #
coedge $-1 $147 $352 $239 $353 forward $142 $-1 #
coedge $-1 $354 $144 $238 $353 reversed $89 $-1 #
coedge $-1 $144 $354 $355 $356 reversed $89 $-1 #
edge $-1 $357 -15.604451854727069 $247 -6.3583605268585472 $144 $358 forward 7 unknown #
coedge $-1 $146 $145 $359 $360 reversed $57 $-1 #
coedge $-1 $361 $362 $146 $244 forward $363 $-1 #
edge $-1 $246 6.3583605268585472 $364 15.604451854727069 $243 $365 forward 7 unknown #
coedge $-1 $352 $147 $362 $366 forward $142 $-1 #
vertex $-1 $244 $367 #
vertex $-1 $241 $368 #
straight-curve $-1 0 43.361947295457128 6.3583605268585472 1 0 0 I I #
face $-1 $-1 $261 $33 $-1 $369 forward single #
loop $-1 $-1 $370 $149 #
plane-surface $-1 -78.095645008697772 0 0 1 0 0 0 0 -1 forward_v I I I I #
coedge $-1 $371 $372 $373 $374 reversed $150 $-1 #
coedge $-1 $375 $152 $154 $259 forward $93 $-1 #
coedge $-1 $152 $375 $371 $376 forward $93 $-1 #
coedge $-1 $373 $155 $152 $256 forward $261 $-1 #
edge $-1 $263 -0.41848560449936301 $377 17.744986212345278 $255 $378 forward 7 unknown #
coedge $-1 $379 $380 $153 $258 forward $250 $-1 #
edge $-1 $381 -45.399935694582986 $262 -30.802547500113938 $257 $382 forward 7 unknown #
edge $-1 $263 -18.043363919795443 $381 2.4161062406544664e-014 $154 $383 forward 7 unknown #
coedge $-1 $155 $373 $379 $384 forward $261 $-1 #
loop $-1 $-1 $373 $249 #
vertex $-1 $258 $385 #
vertex $-1 $156 $386 #
straight-curve $-1 -102.22852714217524 8.2447646994235946 15.604451854727067 1 0 0 I I #
coedge $-1 $265 $265 $-1 $387 reversed $159 $-1 #
edge $-1 $388 0 $388 6.2831853071796004 $160 $389 forward 7 unknown #
vertex $-1 $163 $390 #
ellipse-curve $-1 -72.792833503417 11.877459062792518 8.3057577574925503 -0.80901700255871778 0 0.5877852410284794 0.8816778615427191 0 1.2135255038380768 1 I I #
coedge $-1 $269 $269 $-1 $391 reversed $166 $-1 #
edge $-1 $392 0 $392 6.2831853071796004 $167 $393 forward 7 unknown #
vertex $-1 $170 $394 #
ellipse-curve $-1 -72.792833503417 17.326500607845915 8.3057577574925503 -0.80901700255871778 0 0.5877852410284794 0.8816778615427191 0 1.2135255038380768 1 I I #
coedge $-1 $273 $273 $-1 $395 reversed $173 $-1 #
edge $-1 $396 0 $396 6.2831853071796004 $174 $397 forward 7 unknown #
vertex $-1 $177 $398 #
ellipse-curve $-1 -72.792833503417 22.775542152899305 8.3057577574925503 -0.80901700255871778 0 0.5877852410284794 0.8816778615427191 0 1.2135255038380768 1 I I #
face $-1 $-1 $399 $37 $-1 $400 reversed single #
loop $-1 $-1 $184 $178 #
plane-surface $-1 0 0 15.604451854727069 0 0 1 1 0 0 forward_v I I I I #
coedge $-1 $401 $402 $403 $404 reversed $179 $-1 #
coedge $-1 $405 $181 $183 $287 forward $112 $-1 #
coedge $-1 $181 $405 $401 $406 forward $112 $-1 #
coedge $-1 $403 $184 $181 $284 forward $278 $-1 #
edge $-1 $290 -12.553151931618554 $407 -2.4828194441950764 $283 $408 forward 7 unknown #
coedge $-1 $409 $410 $182 $286 forward $399 $-1 #
edge $-1 $411 -109.8959670168306 $289 -95.084702812008828 $285 $412 forward 7 unknown #
edge $-1 $290 134.05620325565627 $411 156.19129001739554 $183 $413 forward 7 unknown #
coedge $-1 $184 $403 $409 $414 forward $278 $-1 #
vertex $-1 $286 $415 #
vertex $-1 $185 $416 #
straight-curve $-1 33.267635516835185 20.07113761952537 15.604451854727074 -1 0 0 I I #
coedge $-1 $292 $292 $-1 $417 reversed $188 $-1 #
edge $-1 $418 0 $418 6.2831853071796004 $189 $419 forward 7 unknown #
vertex $-1 $192 $420 #
ellipse-curve $-1 69.870857494653862 12.878042985651462 8.1988197523162043 0.66913061440640931 0 0.74314481823134659 0.74314481823134659 0 -0.66913061440640931 1 I I #
coedge $-1 $296 $296 $-1 $421 reversed $195 $-1 #
edge $-1 $422 0 $422 6.2831853071796004 $196 $423 forward 7 unknown #
vertex $-1 $199 $424 #
ellipse-curve $-1 69.870857494653862 17.193899765975807 8.1988197523162043 0.66913061440640931 0 0.74314481823134659 0.74314481823134659 0 -0.66913061440640931 1 I I #
face $-1 $-1 $215 $30 $-1 $425 reversed single #
loop $-1 $-1 $316 $200 #
plane-surface $-1 0 43.361947295457128 0 0 -1 0 0 0 -1 forward_v I I I I #
coedge $-1 $426 $314 $317 $427 forward $201 $-1 #
coedge $-1 $320 $203 $204 $308 reversed $126 $-1 #
coedge $-1 $314 $426 $203 $306 reversed $201 $-1 #
edge $-1 $321 -15.604451854727069 $428 15.604451854727069 $305 $429 forward 7 unknown #
coedge $-1 $205 $204 $426 $430 forward $81 $-1 #
edge $-1 $312 -78.095645008697772 $428 78.095645008697772 $304 $431 forward 7 unknown #
coedge $-1 $317 $316 $205 $310 reversed $301 $-1 #
edge $-1 $432 -78.095645008697772 $311 78.095645008697772 $309 $433 forward 7 unknown #
vertex $-1 $207 $434 #
vertex $-1 $323 $435 #
straight-curve $-1 78.095645008697772 0 -15.604451854727069 0 -1 0 I I #
coedge $-1 $303 $305 $208 $315 reversed $201 $-1 #
edge $-1 $318 -43.361947295457128 $321 43.361947295457128 $314 $436 forward 7 unknown #
coedge $-1 $309 $209 $214 $324 forward $301 $-1 #
coedge $-1 $209 $309 $303 $427 reversed $301 $-1 #
vertex $-1 $210 $437 #
straight-curve $-1 0 43.361947295457128 15.604451854727069 -1 0 0 I I #
coedge $-1 $211 $304 $213 $323 reversed $126 $-1 #
vertex $-1 $315 $438 #
straight-curve $-1 0 -43.361947295457128 15.604451854727069 1 0 0 I I #
edge $-1 $216 -15.604451854727069 $312 15.604451854727069 $213 $439 forward 7 unknown #
edge $-1 $217 -15.604451854727069 $311 15.604451854727069 $214 $440 forward 7 unknown #
point $-1 78.095645008697772 -43.361947295457128 15.604451854727069 #
point $-1 78.095645008697772 43.361947295457128 15.604451854727069 #
face $-1 $-1 $341 $31 $-1 $441 reversed single #
loop $-1 $-1 $442 $219 #
plane-surface $-1 0 -56.213068459115348 10.981406190792809 0 1 0 0 0 1 forward_v I I I I #
coedge $-1 $443 $222 $231 $345 reversed $134 $-1 #
coedge $-1 $222 $443 $223 $333 reversed $134 $-1 #
coedge $-1 $224 $223 $444 $445 forward $85 $-1 #
edge $-1 $337 43.361947295457128 $446 56.213068459115348 $331 $447 forward 7 unknown #
coedge $-1 $448 $228 $224 $335 reversed $341 $-1 #
edge $-1 $449 -56.213068459115348 $336 -43.361947295457128 $334 $450 forward 7 unknown #
vertex $-1 $229 $451 #
vertex $-1 $333 $452 #
straight-curve $-1 0 -43.361947295457128 15.604451854727069 -1 0 0 I I #
straight-curve $-1 -78.095645008697772 -43.361947295457128 0 0 0 -1 I I #
coedge $-1 $228 $448 $230 $344 reversed $341 $-1 #
loop $-1 $-1 $228 $327 #
straight-curve $-1 78.095645008697772 -43.361947295457128 0 0 0 1 I I #
coedge $-1 $231 $230 $453 $454 forward $220 $-1 #
edge $-1 $232 -6.4255605818291102 $455 6.4255605818291102 $340 $456 forward 7 unknown #
edge $-1 $457 -6.4255605818291102 $233 6.4255605818291102 $330 $458 forward 7 unknown #
point $-1 78.095645008697772 -43.361947295457128 6.3583605268585472 #
point $-1 -78.095645008697772 -43.361947295457128 6.3583605268585472 #
face $-1 $-1 $363 $32 $-1 $459 reversed single #
loop $-1 $-1 $359 $235 #
plane-surface $-1 0 0 15.604451854727069 0 0 1 1 0 0 forward_v I I I I #
coedge $-1 $460 $461 $354 $462 forward $236 $-1 #
coedge $-1 $238 $245 $460 $463 forward $142 $-1 #
edge $-1 $464 -6.4255605818291102 $247 6.4255605818291102 $239 $465 forward 7 unknown #
coedge $-1 $240 $239 $351 $462 reversed $89 $-1 #
coedge $-1 $466 $359 $240 $356 forward $349 $-1 #
edge $-1 $357 43.361947295457128 $467 56.213068459115341 $240 $468 forward 7 unknown #
vertex $-1 $356 $469 #
straight-curve $-1 78.095645008697772 43.361947295457128 0 0 0 -1 I I #
coedge $-1 $355 $470 $242 $360 forward $349 $-1 #
edge $-1 $364 -78.095645008697772 $357 78.095645008697772 $359 $471 forward 7 unknown #
coedge $-1 $472 $243 $470 $473 reversed $363 $-1 #
coedge $-1 $243 $472 $245 $366 reversed $363 $-1 #
loop $-1 $-1 $243 $348 #
vertex $-1 $244 $474 #
straight-curve $-1 -78.095645008697772 43.361947295457128 0 0 0 1 I I #
edge $-1 $246 -6.4255605818291102 $475 6.4255605818291102 $362 $476 forward 7 unknown #
point $-1 -78.095645008697772 43.361947295457121 6.3583605268585472 #
point $-1 78.095645008697772 43.361947295457121 6.3583605268585472 #
plane-surface $-1 0 0 15.604451854727069 0 0 1 1 0 0 forward_v I I I I #
coedge $-1 $380 $379 $372 $477 forward $250 $-1 #
coedge $-1 $372 $252 $254 $376 reversed $150 $-1 #
coedge $-1 $252 $371 $370 $477 reversed $150 $-1 #
coedge $-1 $260 $255 $252 $374 forward $261 $-1 #
edge $-1 $377 -34.73850514403901 $478 -24.132882133477466 $373 $479 forward 7 unknown #
coedge $-1 $254 $253 $380 $480 reversed $93 $-1 #
edge $-1 $481 -2.4161062406544664e-014 $377 18.043363919795443 $371 $482 forward 7 unknown #
vertex $-1 $256 $483 #
straight-curve $-1 -67.490021998136228 8.6632503039229576 15.604451854727069 0 1 0 I I #
coedge $-1 $370 $257 $260 $384 reversed $250 $-1 #
coedge $-1 $257 $370 $375 $480 forward $250 $-1 #
vertex $-1 $258 $484 #
straight-curve $-1 -78.095645008697772 8.2447646994235946 46.406999354841005 0 0 1 I I #
straight-curve $-1 -78.095645008697758 8.2447646994235946 1.0070636602580407 -0.5877852410284794 0 -0.80901700255871778 I I #
edge $-1 $478 -26.408236516268236 $262 -8.2447646994235946 $379 $485 forward 7 unknown #
point $-1 -78.095645008697772 8.2447646994235946 15.604451854727069 #
point $-1 -67.490021998136228 8.2447646994235946 15.604451854727069 #
edge $-1 $486 1 $486 0 $265 $-1 forward 7 unknown #
vertex $-1 $266 $487 #
ellipse-curve $-1 -68.582806991993891 11.877459062792518 5.2469945424715991 -0.80901700255871778 0 0.5877852410284794 0.8816778615427191 0 1.2135255038380768 1 I I #
point $-1 -71.911155641874288 11.877459062792518 9.5192832613306315 #
edge $-1 $488 1 $488 0 $269 $-1 forward 7 unknown #
vertex $-1 $270 $489 #
ellipse-curve $-1 -68.582806991993891 17.326500607845915 5.2469945424715991 -0.80901700255871778 0 0.5877852410284794 0.8816778615427191 0 1.2135255038380768 1 I I #
point $-1 -71.911155641874288 17.326500607845915 9.5192832613306315 #
edge $-1 $490 1 $490 0 $273 $-1 forward 7 unknown #
vertex $-1 $274 $491 #
ellipse-curve $-1 -68.582806991993891 22.775542152899305 5.2469945424715991 -0.80901700255871778 0 0.5877852410284794 0.8816778615427191 0 1.2135255038380768 1 I I #
point $-1 -71.911155641874288 22.775542152899305 9.5192832613306315 #
loop $-1 $-1 $285 $277 #
plane-surface $-1 78.095645008697772 0 0 -1 0 0 0 0 1 forward_v I I I I #
coedge $-1 $402 $280 $282 $406 reversed $179 $-1 #
coedge $-1 $280 $401 $492 $493 reversed $179 $-1 #
coedge $-1 $288 $283 $280 $404 forward $278 $-1 #
edge $-1 $407 28.378434463774781 $494 44.828009491862588 $403 $495 forward 7 unknown #
coedge $-1 $282 $281 $410 $496 reversed $112 $-1 #
edge $-1 $497 -156.19129001739554 $407 -134.05620325565627 $401 $498 forward 7 unknown #
vertex $-1 $284 $499 #
straight-curve $-1 61.646069980609994 7.5179856879068154 15.604451854727053 0 -1 0 I I #
coedge $-1 $492 $285 $288 $414 reversed $399 $-1 #
coedge $-1 $285 $492 $405 $496 forward $399 $-1 #
vertex $-1 $286 $500 #
straight-curve $-1 78.095645008697772 20.07113761952537 110.6891546667359 0 0 1 I I #
straight-curve $-1 -37.977102820599171 20.07113761952537 105.30556150417485 0.74314481823134659 0 -0.66913061440640931 I I #
edge $-1 $494 10.000805132101892 $289 20.07113761952537 $409 $501 forward 7 unknown #
point $-1 78.095645008697772 20.07113761952537 15.604451854727069 #
point $-1 61.646069980609965 20.07113761952537 15.604451854727074 #
edge $-1 $502 1 $502 0 $292 $-1 forward 7 unknown #
vertex $-1 $293 $503 #
ellipse-curve $-1 68.938849033656254 12.878042985651462 7.1637195141473384 0.66913061440640931 0 0.74314481823134659 0.74314481823134659 0 -0.66913061440640931 1 I I #
point $-1 70.614002312885205 12.878042985651462 7.5296891379097772 #
edge $-1 $504 1 $504 0 $296 $-1 forward 7 unknown #
vertex $-1 $297 $505 #
ellipse-curve $-1 68.938849033656254 17.193899765975807 7.1637195141473384 0.66913061440640931 0 0.74314481823134659 0.74314481823134659 0 -0.66913061440640931 1 I I #
point $-1 70.614002312885205 17.193899765975807 7.5296891379097772 #
plane-surface $-1 78.095645008697772 0 0 -1 0 0 0 0 1 forward_v I I I I #
coedge $-1 $305 $303 $307 $430 reversed $201 $-1 #
edge $-1 $318 -15.604451854727069 $432 15.604451854727069 $317 $506 forward 7 unknown #
vertex $-1 $430 $507 #
straight-curve $-1 -78.095645008697772 -43.361947295457128 0 0 0 -1 I I #
edge $-1 $428 -43.361947295457128 $432 43.361947295457128 $426 $508 forward 7 unknown #
straight-curve $-1 0 -43.361947295457128 -15.604451854727069 -1 0 0 I I #
vertex $-1 $310 $509 #
straight-curve $-1 0 43.361947295457128 -15.604451854727069 1 0 0 I I #
point $-1 78.095645008697772 43.361947295457128 -15.604451854727069 #
point $-1 78.095645008697772 -43.361947295457128 -15.604451854727069 #
straight-curve $-1 -78.095645008697772 0 15.604451854727069 0 -1 0 I I #
point $-1 -78.095645008697772 43.361947295457128 15.604451854727069 #
point $-1 -78.095645008697772 -43.361947295457128 15.604451854727069 #
straight-curve $-1 78.095645008697772 -43.361947295457128 0 0 0 -1 I I #
straight-curve $-1 78.095645008697772 43.361947295457128 0 0 0 -1 I I #
plane-surface $-1 78.095645008697772 0 0 -1 0 0 0 0 1 forward_v I I I I #
coedge $-1 $453 $444 $443 $510 forward $328 $-1 #
coedge $-1 $331 $330 $442 $510 reversed $134 $-1 #
coedge $-1 $442 $511 $332 $445 reversed $328 $-1 #
edge $-1 $446 -78.095645008697772 $449 78.095645008697772 $444 $512 forward 7 unknown #
vertex $-1 $333 $513 #
straight-curve $-1 -78.095645008697772 0 15.604451854727069 0 -1 0 I I #
coedge $-1 $340 $334 $511 $514 forward $341 $-1 #
vertex $-1 $335 $515 #
straight-curve $-1 78.095645008697772 0 15.604451854727069 0 1 0 I I #
point $-1 78.095645008697772 -43.361947295457128 15.604451854727069 #
point $-1 -78.095645008697772 -43.361947295457128 15.604451854727069 #
coedge $-1 $511 $442 $343 $454 reversed $328 $-1 #
edge $-1 $455 -78.095645008697772 $457 78.095645008697772 $453 $516 forward 7 unknown #
vertex $-1 $514 $517 #
straight-curve $-1 78.095645008697772 -49.787507877286238 6.3583605268585472 0 -1 0 I I #
vertex $-1 $345 $518 #
straight-curve $-1 -78.095645008697772 -49.787507877286238 6.3583605268585472 0 1 0 I I #
plane-surface $-1 -78.095645008697772 0 0 1 0 0 0 0 -1 forward_v I I I I #
coedge $-1 $519 $351 $352 $463 reversed $236 $-1 #
coedge $-1 $351 $519 $466 $520 reversed $236 $-1 #
edge $-1 $467 -4.6230456639342616 $464 4.6230456639342616 $354 $521 forward 7 unknown #
edge $-1 $475 -78.095645008697772 $464 78.095645008697772 $460 $522 forward 7 unknown #
vertex $-1 $353 $523 #
straight-curve $-1 78.095645008697772 49.787507877286231 6.3583605268585472 0 -1 0 I I #
coedge $-1 $470 $355 $461 $520 forward $349 $-1 #
vertex $-1 $356 $524 #
straight-curve $-1 78.095645008697772 0 15.604451854727069 0 1 0 I I #
point $-1 78.095645008697772 43.361947295457128 15.604451854727069 #
coedge $-1 $359 $466 $361 $473 forward $349 $-1 #
straight-curve $-1 0 43.361947295457128 15.604451854727069 1 0 0 I I #
coedge $-1 $362 $361 $519 $525 forward $363 $-1 #
edge $-1 $526 -56.213068459115341 $364 -43.361947295457128 $361 $527 forward 7 unknown #
point $-1 -78.095645008697772 43.361947295457128 15.604451854727069 #
vertex $-1 $463 $528 #
straight-curve $-1 -78.095645008697772 49.787507877286231 6.3583605268585472 0 1 0 I I #
edge $-1 $478 30.802547500113938 $481 45.399935694582986 $370 $529 forward 7 unknown #
vertex $-1 $384 $530 #
straight-curve $-1 -102.22852714217524 26.408236516268236 15.604451854727067 -1 0 0 I I #
edge $-1 $481 -17.744986212345278 $381 0.41848560449936301 $380 $531 forward 7 unknown #
vertex $-1 $480 $532 #
straight-curve $-1 -78.095645008697758 26.408236516268236 1.0070636602580407 0.5877852410284794 0 0.80901700255871778 I I #
point $-1 -67.490021998136228 26.408236516268236 15.604451854727069 #
point $-1 -78.095645008697772 8.2447646994235946 1.0070636602580212 #
straight-curve $-1 -78.095645008697772 0 15.604451854727069 0 -1 0 I I #
vertex $-1 $387 $533 #
point $-1 -67.701129130451179 11.877459062792518 6.4605200463096759 #
vertex $-1 $391 $534 #
point $-1 -67.701129130451179 17.326500607845915 6.4605200463096759 #
vertex $-1 $395 $535 #
point $-1 -67.701129130451179 22.775542152899305 6.4605200463096759 #
coedge $-1 $410 $409 $402 $493 forward $399 $-1 #
edge $-1 $494 95.084702812008828 $497 109.8959670168306 $492 $536 forward 7 unknown #
vertex $-1 $414 $537 #
straight-curve $-1 33.267635516835185 10.000805132101892 15.604451854727074 1 0 0 I I #
edge $-1 $497 2.4828194441950764 $411 12.553151931618554 $410 $538 forward 7 unknown #
vertex $-1 $496 $539 #
straight-curve $-1 -37.977102820599171 10.000805132101892 105.30556150417485 -0.74314481823134659 0 0.66913061440640931 I I #
point $-1 61.646069980609965 10.000805132101892 15.604451854727074 #
point $-1 78.095645008697787 20.07113761952537 0.7931876499053061 #
straight-curve $-1 78.095645008697772 0 15.604451854727069 0 1 0 I I #
vertex $-1 $417 $540 #
point $-1 69.681993851887597 12.878042985651462 6.4945888997409291 #
vertex $-1 $421 $541 #
point $-1 69.681993851887597 17.193899765975807 6.4945888997409291 #
straight-curve $-1 -78.095645008697772 43.361947295457128 0 0 0 -1 I I #
point $-1 -78.095645008697772 -43.361947295457128 -15.604451854727069 #
straight-curve $-1 -78.095645008697772 0 -15.604451854727069 0 1 0 I I #
point $-1 -78.095645008697772 43.361947295457128 -15.604451854727069 #
edge $-1 $446 -4.6230456639342616 $457 4.6230456639342616 $443 $542 forward 7 unknown #
coedge $-1 $444 $453 $448 $514 reversed $328 $-1 #
straight-curve $-1 0 -56.213068459115348 15.604451854727071 1 0 0 I I #
point $-1 -78.095645008697772 -56.213068459115348 15.604451854727071 #
edge $-1 $449 -4.6230456639342616 $455 4.6230456639342616 $448 $543 forward 7 unknown #
point $-1 78.095645008697772 -56.213068459115348 15.604451854727071 #
straight-curve $-1 0 -56.213068459115348 6.3583605268585472 -1 0 0 I I #
point $-1 78.095645008697772 -56.213068459115348 6.3583605268585472 #
point $-1 -78.095645008697772 -56.213068459115348 6.3583605268585472 #
coedge $-1 $461 $460 $472 $525 reversed $236 $-1 #
edge $-1 $467 -78.095645008697772 $526 78.095645008697772 $461 $544 forward 7 unknown #
straight-curve $-1 78.095645008697772 56.213068459115341 10.981406190792809 0 0 -1 I I #
straight-curve $-1 0 56.213068459115341 6.3583605268585472 1 0 0 I I #
point $-1 78.095645008697772 56.213068459115341 6.3583605268585472 #
point $-1 78.095645008697772 56.213068459115341 15.604451854727071 #
edge $-1 $526 -4.6230456639342616 $475 4.6230456639342616 $519 $545 forward 7 unknown #
vertex $-1 $520 $546 #
straight-curve $-1 -78.095645008697772 0 15.604451854727069 0 -1 0 I I #
point $-1 -78.095645008697772 56.213068459115341 6.3583605268585472 #
straight-curve $-1 -78.095645008697772 26.408236516268236 46.406999354841005 0 0 -1 I I #
point $-1 -78.095645008697772 26.408236516268236 15.604451854727069 #
straight-curve $-1 -78.095645008697772 8.6632503039229576 1.0070636602580252 0 -1 0 I I #
point $-1 -78.095645008697772 26.408236516268236 1.0070636602580212 #
point $-1 -67.369281488155821 11.877459062792518 4.3653166809288795 #
point $-1 -67.369281488155821 17.326500607845915 4.3653166809288795 #
point $-1 -67.369281488155821 22.775542152899305 4.3653166809288795 #
straight-curve $-1 78.095645008697772 10.000805132101892 110.6891546667359 0 0 -1 I I #
point $-1 78.095645008697772 10.000805132101892 15.604451854727069 #
straight-curve $-1 78.095645008697772 7.5179856879068154 0.7931876499053061 0 1 0 I I #
point $-1 78.095645008697787 10.000805132101892 0.7931876499053061 #
point $-1 68.269718419249841 12.878042985651462 6.4205746959159917 #
point $-1 68.269718419249841 17.193899765975807 6.4205746959159917 #
straight-curve $-1 -78.095645008697772 -56.213068459115348 10.981406190792809 0 0 -1 I I #
straight-curve $-1 78.095645008697772 -56.213068459115348 10.981406190792809 0 0 -1 I I #
straight-curve $-1 0 56.213068459115341 15.604451854727071 -1 0 0 I I #
straight-curve $-1 -78.095645008697772 56.213068459115341 10.981406190792809 0 0 -1 I I #
point $-1 -78.095645008697772 56.213068459115341 15.604451854727071 #
End-of-ACIS-data 