500 0 10 0           
7 Unknown 11 ACIS 5.0 NT 24 Thu Mar 25 15:21:03 1999 
-1 9.9999999999999995e-007 1e-010 
body $-1 $10 $-1 $11 #
body $-1 $12 $-1 $13 #
body $-1 $14 $-1 $15 #
body $-1 $16 $-1 $17 #
body $-1 $18 $-1 $19 #
body $-1 $20 $-1 $21 #
body $-1 $22 $-1 $23 #
body $-1 $24 $-1 $25 #
body $-1 $26 $-1 $27 #
body $-1 $28 $-1 $29 #
lump $-1 $-1 $30 $0 #
transform $-1 1 0 0 0 1 0 0 0 1 64.394054994354079 31.907355458047189 12.164758386781047 1 rotate no_reflect no_shear #
lump $-1 $-1 $31 $1 #
transform $-1 1 0 0 0 1 0 0 0 1 64.394054994354079 31.907355458047189 12.164758386781047 1 rotate no_reflect no_shear #
lump $-1 $-1 $32 $2 #
transform $-1 1 0 0 0 1 0 0 0 1 64.394054994354079 31.907355458047189 12.164758386781047 1 rotate no_reflect no_shear #
lump $-1 $-1 $33 $3 #
transform $-1 1 0 0 0 1 0 0 0 1 64.394054994354079 31.907355458047189 12.164758386781047 1 rotate no_reflect no_shear #
lump $-1 $-1 $34 $4 #
transform $-1 1 0 0 0 1 0 0 0 1 64.394054994354079 31.907355458047189 12.164758386781047 1 rotate no_reflect no_shear #
lump $-1 $-1 $35 $5 #
transform $-1 1 0 0 0 1 0 0 0 1 64.394054994354079 31.907355458047189 12.164758386781047 1 rotate no_reflect no_shear #
lump $-1 $-1 $36 $6 #
transform $-1 1 0 0 0 1 0 0 0 1 64.394054994354079 31.907355458047189 12.164758386781047 1 rotate no_reflect no_shear #
lump $-1 $-1 $37 $7 #
transform $-1 1 0 0 0 1 0 0 0 1 64.394054994354079 31.907355458047189 12.164758386781047 1 rotate no_reflect no_shear #
lump $-1 $-1 $38 $8 #
transform $-1 1 0 0 0 1 0 0 0 1 64.394054994354079 31.907355458047189 12.164758386781047 1 rotate no_reflect no_shear #
lump $-1 $-1 $39 $9 #
transform $-1 1 0 0 0 1 0 0 0 1 64.394054994354079 31.907355458047189 12.164758386781047 1 rotate no_reflect no_shear #
shell $-1 $-1 $-1 $40 $-1 $10 #
shell $-1 $-1 $-1 $41 $-1 $12 #
shell $-1 $-1 $-1 $42 $-1 $14 #
shell $-1 $-1 $-1 $43 $-1 $16 #
shell $-1 $-1 $-1 $44 $-1 $18 #
shell $-1 $-1 $-1 $45 $-1 $20 #
shell $-1 $-1 $-1 $46 $-1 $22 #
shell $-1 $-1 $-1 $47 $-1 $24 #
shell $-1 $-1 $-1 $48 $-1 $26 #
shell $-1 $-1 $-1 $49 $-1 $28 #
face $-1 $50 $51 $30 $-1 $52 reversed single #
face $-1 $53 $54 $31 $-1 $55 forward single #
face $-1 $56 $57 $32 $-1 $58 reversed single #
face $-1 $59 $60 $33 $-1 $61 forward single #
face $-1 $62 $63 $34 $-1 $64 reversed single #
face $-1 $65 $66 $35 $-1 $67 forward single #
face $-1 $68 $69 $36 $-1 $70 reversed single #
face $-1 $71 $72 $37 $-1 $73 forward single #
face $-1 $74 $75 $38 $-1 $76 reversed single #
face $-1 $77 $78 $39 $-1 $79 forward single #
face $-1 $80 $81 $30 $-1 $82 forward single #
loop $-1 $-1 $83 $40 #
plane-surface $-1 -64.394054994354079 0 0 1 0 0 0 0 -1 forward_v I I I I #
face $-1 $84 $85 $31 $-1 $86 reversed single #
loop $-1 $-1 $87 $41 #
plane-surface $-1 -64.394054994354079 0 0 1 0 0 0 0 -1 forward_v I I I I #
face $-1 $88 $89 $32 $-1 $90 reversed single #
loop $-1 $-1 $91 $42 #
plane-surface $-1 -23.183538202601369 73.069511746439716 144.77404092381181 1 0 0 0 -0.68199836817093118 -0.7313536940579346 forward_v I I I I #
face $-1 $92 $93 $33 $-1 $94 forward single #
loop $-1 $95 $96 $43 #
cone-surface $-1 -9.2027734587659396 28.41490244336201 8.8021393016902536 0 -0.68199836817093118 -0.7313536940579346 1.5 0 0 1 I I 0 1 1.5 forward I I I I #
face $-1 $97 $98 $34 $-1 $99 reversed single #
loop $-1 $-1 $100 $44 #
plane-surface $-1 -9.2027734587659396 -14.763769105677653 50.584380932830513 0 0.68199836817093118 0.7313536940579346 1 0 0 forward_v I I I I #
face $-1 $101 $102 $35 $-1 $103 forward single #
loop $-1 $104 $105 $45 #
cone-surface $-1 18.758756028904926 28.41490244336201 8.8021393016902536 0 -0.68199836817093118 -0.7313536940579346 1.5 0 0 1 I I 0 1 1.5 forward I I I I #
face $-1 $106 $107 $36 $-1 $108 reversed single #
loop $-1 $-1 $109 $46 #
plane-surface $-1 4.7779912850694899 -119.74063631016455 101.25251221373574 -1 0 0 0 -0.68199836817093118 0.7313536940579346 forward_v I I I I #
face $-1 $110 $111 $37 $-1 $112 forward single #
loop $-1 $113 $114 $47 #
cone-surface $-1 -9.2027734587659396 -28.414902443362013 8.8021393016902536 0 0.68199836817093118 -0.7313536940579346 1.5 0 0 1 I I 0 1 1.5 forward I I I I #
face $-1 $115 $116 $38 $-1 $117 reversed single #
loop $-1 $-1 $118 $48 #
plane-surface $-1 32.739520772740356 -119.74063631016455 101.25251221373574 -1 0 0 0 -0.68199836817093118 0.7313536940579346 forward_v I I I I #
face $-1 $119 $120 $39 $-1 $121 forward single #
loop $-1 $122 $123 $49 #
cone-surface $-1 18.758756028904926 -28.414902443362013 8.8021393016902536 0 0.68199836817093118 -0.7313536940579346 1.5 0 0 1 I I 0 1 1.5 forward I I I I #
face $-1 $124 $125 $30 $-1 $126 reversed single #
loop $-1 $-1 $127 $50 #
plane-surface $-1 0 0 12.164758386781047 0 0 1 1 0 0 forward_v I I I I #
coedge $-1 $128 $129 $130 $131 reversed $51 $-1 #
face $-1 $132 $133 $31 $-1 $134 reversed single #
loop $-1 $-1 $135 $53 #
plane-surface $-1 0 0 -12.164758386781047 0 0 1 1 0 0 forward_v I I I I #
coedge $-1 $136 $137 $138 $139 forward $54 $-1 #
face $-1 $140 $141 $32 $-1 $142 reversed single #
loop $-1 $-1 $143 $56 #
plane-surface $-1 -9.2027734587659396 -14.763769105677653 50.584380932830513 0 0.68199836817093118 0.7313536940579346 1 0 0 forward_v I I I I #
coedge $-1 $144 $145 $146 $147 reversed $57 $-1 #
face $-1 $-1 $148 $33 $-1 $149 forward single #
loop $-1 $150 $151 $59 #
cone-surface $-1 -9.2027734587659396 27.146512857634885 7.4419580280693065 0 -0.68199836817093118 -0.7313536940579346 0.75 0 0 1 I I -0.70710678118654757 0.70710678118654757 0.75 forward I I I I #
loop $-1 $-1 $152 $43 #
coedge $-1 $96 $96 $153 $154 reversed $60 $-1 #
face $-1 $155 $156 $34 $-1 $157 forward single #
loop $-1 $-1 $158 $62 #
plane-surface $-1 32.739520772740356 73.069511746439716 144.77404092381181 -1 0 0 0 0.68199836817093118 0.7313536940579346 forward_v I I I I #
coedge $-1 $159 $160 $161 $162 reversed $63 $-1 #
face $-1 $-1 $163 $35 $-1 $164 forward single #
loop $-1 $165 $166 $65 #
cone-surface $-1 18.758756028904926 27.146512857634885 7.4419580280693065 0 -0.68199836817093118 -0.7313536940579346 0.75 0 0 1 I I -0.70710678118654757 0.70710678118654757 0.75 forward I I I I #
loop $-1 $-1 $167 $45 #
coedge $-1 $105 $105 $168 $169 reversed $66 $-1 #
face $-1 $170 $171 $36 $-1 $172 reversed single #
loop $-1 $-1 $173 $68 #
plane-surface $-1 -9.2027734587659396 -31.907355458047178 7.0628522227544437 0 -0.68199836817093118 0.7313536940579346 1 0 0 forward_v I I I I #
coedge $-1 $174 $175 $176 $177 reversed $69 $-1 #
face $-1 $-1 $178 $37 $-1 $179 forward single #
loop $-1 $180 $181 $71 #
cone-surface $-1 -9.2027734587659396 -27.146512857634889 7.4419580280693065 0 0.68199836817093118 -0.7313536940579346 0.75 0 0 1 I I -0.70710678118654757 0.70710678118654757 0.75 forward I I I I #
loop $-1 $-1 $182 $47 #
coedge $-1 $114 $114 $183 $184 reversed $72 $-1 #
face $-1 $185 $186 $38 $-1 $187 forward single #
loop $-1 $-1 $188 $74 #
plane-surface $-1 -9.2027734587659396 -31.907355458047178 7.0628522227544437 0 -0.68199836817093118 0.7313536940579346 1 0 0 forward_v I I I I #
coedge $-1 $189 $190 $191 $192 reversed $75 $-1 #
face $-1 $-1 $193 $39 $-1 $194 forward single #
loop $-1 $195 $196 $77 #
cone-surface $-1 18.758756028904926 -27.146512857634889 7.4419580280693065 0 0.68199836817093118 -0.7313536940579346 0.75 0 0 1 I I -0.70710678118654757 0.70710678118654757 0.75 forward I I I I #
loop $-1 $-1 $197 $49 #
coedge $-1 $123 $123 $198 $199 reversed $78 $-1 #
face $-1 $200 $201 $30 $-1 $202 reversed single #
loop $-1 $-1 $203 $80 #
plane-surface $-1 0 0 -12.164758386781047 0 0 1 1 0 0 forward_v I I I I #
coedge $-1 $204 $205 $206 $207 forward $81 $-1 #
coedge $-1 $208 $83 $209 $210 reversed $51 $-1 #
coedge $-1 $83 $208 $211 $212 forward $51 $-1 #
coedge $-1 $213 $214 $83 $131 forward $125 $-1 #
edge $-1 $215 -31.907355458047189 $216 31.907355458047189 $83 $217 forward 7 unknown #
face $-1 $218 $219 $31 $-1 $220 reversed single #
loop $-1 $-1 $221 $84 #
plane-surface $-1 -69.172046279423569 -11.741559232936408 0 0 1 0 0 0 1 forward_v I I I I #
coedge $-1 $222 $223 $137 $224 forward $85 $-1 #
coedge $-1 $225 $87 $226 $227 reversed $54 $-1 #
coedge $-1 $87 $225 $135 $224 reversed $54 $-1 #
coedge $-1 $228 $229 $87 $139 reversed $230 $-1 #
edge $-1 $231 -12.164758386781047 $232 12.164758386781047 $138 $233 forward 7 unknown #
face $-1 $234 $235 $32 $-1 $236 forward single #
loop $-1 $-1 $237 $88 #
plane-surface $-1 4.7779912850694899 73.069511746439716 144.77404092381181 -1 0 0 0 0.68199836817093118 0.7313536940579346 forward_v I I I I #
coedge $-1 $238 $239 $240 $241 reversed $89 $-1 #
coedge $-1 $145 $91 $242 $243 reversed $57 $-1 #
coedge $-1 $91 $144 $238 $244 reversed $57 $-1 #
coedge $-1 $240 $245 $91 $147 forward $235 $-1 #
edge $-1 $246 4.6274004151726693 $247 10.098524825345201 $146 $248 forward 7 unknown #
loop $-1 $-1 $153 $92 #
plane-surface $-1 -9.2027734587659396 -14.763769105677653 50.584380932830513 0 0.68199836817093118 0.7313536940579346 1 0 0 forward_v I I I I #
loop $-1 $-1 $249 $59 #
coedge $-1 $151 $151 $152 $250 reversed $93 $-1 #
coedge $-1 $152 $152 $151 $250 forward $95 $-1 #
coedge $-1 $153 $153 $96 $154 forward $148 $-1 #
edge $-1 $251 -2.0722542487196611e-015 $251 6.2831853071795987 $153 $252 forward 7 unknown #
face $-1 $253 $254 $34 $-1 $255 forward single #
loop $-1 $-1 $256 $97 #
plane-surface $-1 0 0 12.164758386781047 0 0 1 1 0 0 forward_v I I I I #
coedge $-1 $257 $258 $259 $260 reversed $98 $-1 #
coedge $-1 $261 $100 $262 $263 reversed $63 $-1 #
coedge $-1 $100 $261 $256 $264 reversed $63 $-1 #
coedge $-1 $265 $266 $100 $162 forward $254 $-1 #
edge $-1 $267 -63.814710916094398 $268 -56.333892189636806 $161 $269 forward 7 unknown #
loop $-1 $-1 $168 $101 #
plane-surface $-1 -9.2027734587659396 -14.763769105677653 50.584380932830513 0 0.68199836817093118 0.7313536940579346 1 0 0 forward_v I I I I #
loop $-1 $-1 $270 $65 #
coedge $-1 $166 $166 $167 $271 reversed $102 $-1 #
coedge $-1 $167 $167 $166 $271 forward $104 $-1 #
coedge $-1 $168 $168 $105 $169 forward $163 $-1 #
edge $-1 $272 -2.0722542487196611e-015 $272 6.2831853071795987 $168 $273 forward 7 unknown #
face $-1 $274 $275 $36 $-1 $276 forward single #
loop $-1 $-1 $277 $106 #
plane-surface $-1 -23.183538202601369 -119.74063631016455 101.25251221373574 1 0 0 0 0.68199836817093118 -0.7313536940579346 forward_v I I I I #
coedge $-1 $278 $279 $280 $281 reversed $107 $-1 #
coedge $-1 $175 $109 $282 $283 reversed $69 $-1 #
coedge $-1 $109 $174 $278 $284 reversed $69 $-1 #
coedge $-1 $280 $285 $109 $177 forward $275 $-1 #
edge $-1 $286 27.962962697035085 $287 33.43408710720761 $176 $288 forward 7 unknown #
loop $-1 $-1 $183 $110 #
plane-surface $-1 -9.2027734587659396 -31.907355458047178 7.0628522227544437 0 -0.68199836817093118 0.7313536940579346 1 0 0 forward_v I I I I #
loop $-1 $-1 $289 $71 #
coedge $-1 $181 $181 $182 $290 reversed $111 $-1 #
coedge $-1 $182 $182 $181 $290 forward $113 $-1 #
coedge $-1 $183 $183 $114 $184 forward $178 $-1 #
edge $-1 $291 -3.5069068280082758e-016 $291 6.2831853071796004 $183 $292 forward 7 unknown #
face $-1 $293 $294 $38 $-1 $295 forward single #
loop $-1 $-1 $296 $115 #
plane-surface $-1 0 0 12.164758386781047 0 0 1 1 0 0 forward_v I I I I #
coedge $-1 $297 $298 $299 $300 reversed $116 $-1 #
coedge $-1 $190 $118 $301 $302 reversed $75 $-1 #
coedge $-1 $118 $189 $296 $303 reversed $75 $-1 #
coedge $-1 $304 $305 $118 $192 forward $306 $-1 #
edge $-1 $307 -43.563403884113434 $308 -38.461497720086825 $191 $309 forward 7 unknown #
loop $-1 $-1 $198 $119 #
plane-surface $-1 -9.2027734587659396 -31.907355458047178 7.0628522227544437 0 -0.68199836817093118 0.7313536940579346 1 0 0 forward_v I I I I #
loop $-1 $-1 $310 $77 #
coedge $-1 $196 $196 $197 $311 reversed $120 $-1 #
coedge $-1 $197 $197 $196 $311 forward $122 $-1 #
coedge $-1 $198 $198 $123 $199 forward $193 $-1 #
edge $-1 $312 -3.5069068280082758e-016 $312 6.2831853071796004 $198 $313 forward 7 unknown #
face $-1 $314 $315 $30 $-1 $316 reversed single #
loop $-1 $-1 $209 $124 #
plane-surface $-1 0 -31.907355458047189 0 0 1 0 0 0 1 forward_v I I I I #
coedge $-1 $214 $213 $317 $318 forward $125 $-1 #
coedge $-1 $319 $127 $320 $321 forward $81 $-1 #
coedge $-1 $127 $319 $322 $323 forward $81 $-1 #
coedge $-1 $324 $325 $127 $207 reversed $326 $-1 #
edge $-1 $327 -31.907355458047189 $328 31.907355458047189 $206 $329 forward 7 unknown #
coedge $-1 $129 $128 $319 $330 reversed $51 $-1 #
coedge $-1 $331 $322 $128 $210 forward $201 $-1 #
edge $-1 $332 -12.164758386781047 $215 12.164758386781047 $128 $333 forward 7 unknown #
coedge $-1 $320 $334 $129 $212 reversed $315 $-1 #
edge $-1 $335 -12.164758386781047 $216 12.164758386781047 $211 $336 forward 7 unknown #
coedge $-1 $203 $130 $334 $337 forward $125 $-1 #
coedge $-1 $130 $203 $331 $338 forward $125 $-1 #
vertex $-1 $131 $339 #
vertex $-1 $337 $340 #
straight-curve $-1 -64.394054994354079 0 -12.164758386781047 0 1 0 I I #
face $-1 $341 $230 $31 $-1 $342 reversed single #
loop $-1 $-1 $343 $132 #
plane-surface $-1 -73.950037564493059 -9.6596989587107522 0 1 0 0 0 0 -1 forward_v I I I I #
coedge $-1 $344 $345 $346 $347 forward $133 $-1 #
coedge $-1 $348 $135 $344 $349 forward $85 $-1 #
coedge $-1 $135 $348 $228 $350 forward $85 $-1 #
edge $-1 $231 7.577838684485096 $351 11.741559232936408 $135 $352 forward 7 unknown #
coedge $-1 $137 $136 $353 $354 forward $54 $-1 #
coedge $-1 $355 $356 $136 $227 forward $357 $-1 #
edge $-1 $358 -11.741559232936408 $232 -7.577838684485096 $226 $359 forward 7 unknown #
coedge $-1 $360 $138 $223 $350 reversed $230 $-1 #
coedge $-1 $138 $360 $355 $361 reversed $230 $-1 #
loop $-1 $-1 $138 $218 #
vertex $-1 $224 $362 #
vertex $-1 $361 $363 #
straight-curve $-1 -64.394054994354079 -7.577838684485096 0 0 0 1 I I #
face $-1 $-1 $364 $32 $-1 $365 reversed single #
loop $-1 $-1 $146 $140 #
plane-surface $-1 0 0 12.164758386781047 0 0 1 1 0 0 forward_v I I I I #
coedge $-1 $366 $367 $368 $369 reversed $141 $-1 #
coedge $-1 $370 $143 $145 $244 forward $89 $-1 #
coedge $-1 $143 $370 $366 $371 forward $89 $-1 #
coedge $-1 $368 $146 $143 $241 forward $235 $-1 #
edge $-1 $247 -18.582151473218399 $372 9.3793780144524597 $240 $373 forward 7 unknown #
coedge $-1 $374 $375 $144 $243 forward $364 $-1 #
edge $-1 $376 -65.324168239151476 $246 -60.22226207512486 $242 $377 forward 7 unknown #
edge $-1 $247 56.333892189636806 $376 63.814710916094398 $145 $378 forward 7 unknown #
coedge $-1 $146 $368 $374 $379 forward $235 $-1 #
vertex $-1 $243 $380 #
vertex $-1 $147 $381 #
straight-curve $-1 -23.183538202601369 36.534755873219858 12.164758386781045 0 -1 0 I I #
coedge $-1 $249 $249 $-1 $382 reversed $150 $-1 #
edge $-1 $383 0 $383 6.2831853071796004 $151 $384 forward 7 unknown #
vertex $-1 $154 $385 #
ellipse-curve $-1 -9.2027734587659396 29.171793252960921 9.6138053047677339 0 0.68199836817093118 0.7313536940579346 1.5 0 0 1 I I #
face $-1 $-1 $386 $34 $-1 $387 reversed single #
loop $-1 $-1 $265 $155 #
plane-surface $-1 4.7779912850694899 73.069511746439716 144.77404092381181 -1 0 0 0 0.68199836817093118 0.7313536940579346 forward_v I I I I #
coedge $-1 $259 $388 $160 $264 forward $156 $-1 #
coedge $-1 $258 $158 $261 $389 reversed $98 $-1 #
coedge $-1 $158 $257 $390 $391 reversed $98 $-1 #
coedge $-1 $392 $256 $158 $260 forward $156 $-1 #
edge $-1 $393 -10.098524825345201 $394 -4.6274004151726693 $259 $395 forward 7 unknown #
coedge $-1 $160 $159 $257 $389 forward $63 $-1 #
coedge $-1 $396 $390 $159 $263 forward $386 $-1 #
edge $-1 $397 -37.340907502123329 $267 -9.3793780144524597 $262 $398 forward 7 unknown #
edge $-1 $268 9.3793780144524597 $393 37.340907502123329 $256 $399 forward 7 unknown #
coedge $-1 $266 $161 $388 $400 reversed $254 $-1 #
coedge $-1 $161 $265 $396 $401 reversed $254 $-1 #
vertex $-1 $263 $402 #
vertex $-1 $264 $403 #
straight-curve $-1 4.7779912850694899 -14.763769105677653 50.584380932830513 0 -0.7313536940579346 0.68199836817093118 I I #
coedge $-1 $270 $270 $-1 $404 reversed $165 $-1 #
edge $-1 $405 0 $405 6.2831853071796004 $166 $406 forward 7 unknown #
vertex $-1 $169 $407 #
ellipse-curve $-1 18.758756028904926 29.171793252960921 9.6138053047677339 0 0.68199836817093118 0.7313536940579346 1.5 0 0 1 I I #
face $-1 $-1 $408 $36 $-1 $409 reversed single #
loop $-1 $-1 $176 $170 #
plane-surface $-1 0 0 12.164758386781047 0 0 1 1 0 0 forward_v I I I I #
coedge $-1 $410 $411 $412 $413 reversed $171 $-1 #
coedge $-1 $414 $173 $175 $284 forward $107 $-1 #
coedge $-1 $173 $414 $410 $415 forward $107 $-1 #
coedge $-1 $412 $176 $173 $281 forward $275 $-1 #
edge $-1 $287 -9.3793780144524597 $416 18.582151473218399 $280 $417 forward 7 unknown #
coedge $-1 $418 $419 $174 $283 forward $408 $-1 #
edge $-1 $420 -43.563403884113434 $286 -38.461497720086825 $282 $421 forward 7 unknown #
edge $-1 $287 -7.4808187264575654 $420 1.4457969380444042e-014 $175 $422 forward 7 unknown #
coedge $-1 $176 $412 $418 $423 forward $275 $-1 #
vertex $-1 $177 $424 #
vertex $-1 $177 $425 #
straight-curve $-1 4.7779912850694899 -59.870318155082273 12.164758386781045 0 1 0 I I #
coedge $-1 $289 $289 $-1 $426 reversed $180 $-1 #
edge $-1 $427 0 $427 6.2831853071796004 $181 $428 forward 7 unknown #
vertex $-1 $184 $429 #
ellipse-curve $-1 -9.2027734587659396 -29.171793252960928 9.6138053047677392 0 -0.68199836817093118 0.7313536940579346 1.5 0 0 1 I I #
face $-1 $-1 $306 $38 $-1 $430 reversed single #
loop $-1 $-1 $431 $185 #
plane-surface $-1 4.7779912850694899 -119.74063631016455 101.25251221373574 -1 0 0 0 -0.68199836817093118 0.7313536940579346 forward_v I I I I #
coedge $-1 $432 $433 $190 $303 forward $186 $-1 #
coedge $-1 $301 $188 $432 $434 reversed $116 $-1 #
coedge $-1 $188 $301 $305 $435 reversed $116 $-1 #
coedge $-1 $436 $431 $188 $300 forward $294 $-1 #
edge $-1 $437 -7.4808187264575654 $438 1.4457969380444042e-014 $299 $439 forward 7 unknown #
coedge $-1 $298 $297 $189 $302 forward $116 $-1 #
edge $-1 $440 -7.4808187264575654 $307 1.4457969380444042e-014 $189 $441 forward 7 unknown #
edge $-1 $308 27.962962697035085 $440 33.43408710720761 $296 $442 forward 7 unknown #
coedge $-1 $443 $191 $433 $444 reversed $306 $-1 #
coedge $-1 $191 $443 $298 $435 forward $306 $-1 #
loop $-1 $-1 $191 $293 #
vertex $-1 $192 $445 #
vertex $-1 $303 $446 #
straight-curve $-1 32.739520772740356 -31.907355458047192 50.626256106867871 0 0 1 I I #
coedge $-1 $310 $310 $-1 $447 reversed $195 $-1 #
edge $-1 $448 0 $448 6.2831853071796004 $196 $449 forward 7 unknown #
vertex $-1 $199 $450 #
ellipse-curve $-1 18.758756028904926 -29.171793252960928 9.6138053047677392 0 -0.68199836817093118 0.7313536940579346 1.5 0 0 1 I I #
face $-1 $-1 $326 $30 $-1 $451 reversed single #
loop $-1 $-1 $452 $200 #
plane-surface $-1 0 31.907355458047189 0 0 -1 0 0 0 -1 forward_v I I I I #
coedge $-1 $325 $324 $203 $318 reversed $326 $-1 #
edge $-1 $453 -31.907355458047189 $454 31.907355458047189 $317 $455 forward 7 unknown #
coedge $-1 $205 $204 $208 $330 forward $81 $-1 #
coedge $-1 $452 $211 $204 $321 reversed $315 $-1 #
edge $-1 $328 -64.394054994354079 $335 64.394054994354079 $320 $456 forward 7 unknown #
coedge $-1 $209 $457 $205 $323 reversed $201 $-1 #
edge $-1 $332 -64.394054994354079 $327 64.394054994354079 $322 $458 forward 7 unknown #
coedge $-1 $317 $206 $457 $459 forward $326 $-1 #
coedge $-1 $206 $317 $452 $460 reversed $326 $-1 #
loop $-1 $-1 $324 $314 #
vertex $-1 $207 $461 #
vertex $-1 $207 $462 #
straight-curve $-1 64.394054994354079 0 12.164758386781047 0 1 0 I I #
edge $-1 $335 -31.907355458047189 $332 31.907355458047189 $208 $463 forward 7 unknown #
coedge $-1 $457 $209 $214 $338 reversed $201 $-1 #
vertex $-1 $330 $464 #
straight-curve $-1 -64.394054994354079 -31.907355458047189 0 0 0 -1 I I #
coedge $-1 $211 $452 $213 $337 reversed $315 $-1 #
vertex $-1 $321 $465 #
straight-curve $-1 -64.394054994354079 31.907355458047189 0 0 0 -1 I I #
edge $-1 $216 -64.394054994354079 $453 64.394054994354079 $334 $466 forward 7 unknown #
edge $-1 $454 -64.394054994354079 $215 64.394054994354079 $331 $467 forward 7 unknown #
point $-1 -64.394054994354079 -31.907355458047189 -12.164758386781047 #
point $-1 -64.394054994354079 31.907355458047189 -12.164758386781047 #
face $-1 $-1 $357 $31 $-1 $468 forward single #
plane-surface $-1 -69.172046279423569 -7.577838684485096 0 0 -1 0 0 0 -1 forward_v I I I I #
coedge $-1 $469 $470 $360 $471 forward $219 $-1 #
coedge $-1 $353 $221 $222 $349 reversed $133 $-1 #
coedge $-1 $221 $353 $356 $472 reversed $133 $-1 #
coedge $-1 $470 $469 $221 $347 reversed $219 $-1 #
edge $-1 $473 -12.164758386781047 $474 12.164758386781047 $346 $475 forward 7 unknown #
coedge $-1 $223 $222 $469 $476 forward $85 $-1 #
edge $-1 $351 -4.7779912850694899 $474 4.7779912850694899 $344 $477 forward 7 unknown #
edge $-1 $478 -4.7779912850694899 $231 4.7779912850694899 $228 $479 forward 7 unknown #
vertex $-1 $349 $480 #
straight-curve $-1 -64.394054994354079 0 -12.164758386781047 0 -1 0 I I #
coedge $-1 $345 $344 $225 $354 reversed $133 $-1 #
edge $-1 $358 -12.164758386781047 $351 12.164758386781047 $353 $481 forward 7 unknown #
coedge $-1 $482 $226 $229 $361 forward $357 $-1 #
coedge $-1 $226 $482 $345 $472 forward $357 $-1 #
loop $-1 $-1 $226 $341 #
vertex $-1 $227 $483 #
straight-curve $-1 -64.394054994354079 0 12.164758386781047 0 1 0 I I #
coedge $-1 $229 $228 $343 $471 reversed $230 $-1 #
edge $-1 $232 -4.7779912850694899 $484 4.7779912850694899 $229 $485 forward 7 unknown #
point $-1 -64.394054994354079 -7.577838684485096 -12.164758386781047 #
point $-1 -64.394054994354079 -7.577838684485096 12.164758386781047 #
loop $-1 $-1 $242 $234 #
plane-surface $-1 0 31.907355458047189 0 0 -1 0 0 0 -1 forward_v I I I I #
coedge $-1 $367 $237 $239 $371 reversed $141 $-1 #
coedge $-1 $237 $366 $486 $487 reversed $141 $-1 #
coedge $-1 $245 $240 $237 $369 forward $235 $-1 #
edge $-1 $372 -10.098524825345201 $488 -4.6274004151726693 $368 $489 forward 7 unknown #
coedge $-1 $239 $238 $375 $490 reversed $89 $-1 #
edge $-1 $491 -63.814710916094398 $372 -56.333892189636806 $366 $492 forward 7 unknown #
vertex $-1 $241 $493 #
straight-curve $-1 -4.6013867293829698 26.43623104787466 12.164758386781045 1 0 0 I I #
coedge $-1 $486 $242 $245 $379 reversed $364 $-1 #
coedge $-1 $242 $486 $370 $490 forward $364 $-1 #
vertex $-1 $243 $494 #
straight-curve $-1 -23.183538202601369 31.907355458047189 72.387020461905905 0 0 1 I I #
straight-curve $-1 -23.183538202601369 -14.763769105677653 50.584380932830513 0 0.7313536940579346 -0.68199836817093118 I I #
edge $-1 $488 -4.7779912850694899 $246 23.183538202601369 $374 $495 forward 7 unknown #
point $-1 -23.183538202601369 31.907355458047189 12.164758386781047 #
point $-1 -23.183538202601369 26.436231047874656 12.164758386781045 #
edge $-1 $496 1 $496 0 $249 $-1 forward 7 unknown #
vertex $-1 $250 $497 #
ellipse-curve $-1 -9.2027734587659396 27.658011633763085 7.9904732986127573 0 0.68199836817093118 0.7313536940579346 1.5 0 0 1 I I #
point $-1 -7.7027734587659396 29.171793252960931 9.6138053047677499 #
loop $-1 $-1 $262 $253 #
plane-surface $-1 0 31.907355458047189 0 0 -1 0 0 0 -1 forward_v I I I I #
coedge $-1 $256 $392 $265 $400 forward $156 $-1 #
edge $-1 $397 -63.814710916094398 $393 -56.333892189636806 $257 $498 forward 7 unknown #
coedge $-1 $262 $499 $258 $391 forward $386 $-1 #
edge $-1 $394 60.22226207512486 $397 65.324168239151476 $390 $500 forward 7 unknown #
coedge $-1 $388 $259 $499 $501 forward $156 $-1 #
vertex $-1 $260 $502 #
vertex $-1 $501 $503 #
straight-curve $-1 32.739520772740356 36.534755873219858 12.164758386781045 0 1 0 I I #
coedge $-1 $499 $262 $266 $401 forward $386 $-1 #
vertex $-1 $391 $504 #
straight-curve $-1 -4.6013867293829698 31.907355458047189 7.0628522227544259 -1 0 0 I I #
straight-curve $-1 -4.6013867293829698 26.43623104787466 12.164758386781045 1 0 0 I I #
edge $-1 $505 4.6274004151726693 $268 10.098524825345201 $388 $506 forward 7 unknown #
edge $-1 $267 -65.324168239151476 $505 -60.22226207512486 $396 $507 forward 7 unknown #
point $-1 4.7779912850694899 31.907355458047192 7.0628522227544224 #
point $-1 4.7779912850694899 26.436231047874656 12.164758386781045 #
edge $-1 $508 1 $508 0 $270 $-1 forward 7 unknown #
vertex $-1 $271 $509 #
ellipse-curve $-1 18.758756028904926 27.658011633763085 7.9904732986127573 0 0.68199836817093118 0.7313536940579346 1.5 0 0 1 I I #
point $-1 20.258756028904926 29.171793252960931 9.6138053047677499 #
loop $-1 $-1 $282 $274 #
plane-surface $-1 0 -31.907355458047189 0 0 1 0 0 0 1 forward_v I I I I #
coedge $-1 $411 $277 $279 $415 reversed $171 $-1 #
coedge $-1 $277 $410 $510 $511 reversed $171 $-1 #
coedge $-1 $285 $280 $277 $413 forward $275 $-1 #
edge $-1 $416 -33.43408710720761 $512 -27.962962697035085 $412 $513 forward 7 unknown #
coedge $-1 $279 $278 $419 $514 reversed $107 $-1 #
edge $-1 $515 -1.4457969380444042e-014 $416 7.4808187264575654 $410 $516 forward 7 unknown #
vertex $-1 $281 $517 #
straight-curve $-1 -4.6013867293829698 -26.436231047874664 12.164758386781047 -1 0 0 I I #
coedge $-1 $510 $282 $285 $423 reversed $408 $-1 #
coedge $-1 $282 $510 $414 $514 forward $408 $-1 #
vertex $-1 $283 $518 #
straight-curve $-1 4.7779912850694899 -31.907355458047192 50.626256106867871 0 0 1 I I #
straight-curve $-1 4.7779912850694899 -31.907355458047178 7.0628522227544437 0 -0.7313536940579346 -0.68199836817093118 I I #
edge $-1 $512 -23.183538202601369 $286 4.7779912850694899 $418 $519 forward 7 unknown #
point $-1 4.7779912850694899 -31.907355458047189 12.164758386781047 #
point $-1 4.7779912850694899 -26.436231047874664 12.164758386781047 #
edge $-1 $520 1 $520 0 $289 $-1 forward 7 unknown #
vertex $-1 $290 $521 #
ellipse-curve $-1 -9.2027734587659396 -27.658011633763088 7.9904732986127573 0 -0.68199836817093118 0.7313536940579346 1.5 0 0 1 I I #
point $-1 -7.7027734587659396 -29.171793252960939 9.6138053047677499 #
plane-surface $-1 0 -31.907355458047189 0 0 1 0 0 0 1 forward_v I I I I #
coedge $-1 $299 $436 $522 $523 reversed $294 $-1 #
coedge $-1 $522 $296 $297 $434 forward $186 $-1 #
coedge $-1 $296 $522 $304 $444 forward $186 $-1 #
edge $-1 $440 -37.340907502123329 $437 -9.3793780144524597 $432 $524 forward 7 unknown #
edge $-1 $438 9.3793780144524597 $307 37.340907502123329 $305 $525 forward 7 unknown #
coedge $-1 $431 $299 $443 $526 reversed $294 $-1 #
vertex $-1 $434 $527 #
vertex $-1 $435 $528 #
straight-curve $-1 4.7779912850694899 -31.907355458047178 7.0628522227544437 0 -0.7313536940579346 -0.68199836817093118 I I #
vertex $-1 $303 $529 #
straight-curve $-1 32.739520772740356 -31.907355458047178 7.0628522227544437 0 -0.7313536940579346 -0.68199836817093118 I I #
straight-curve $-1 32.739520772740356 -59.870318155082273 12.164758386781045 0 1 0 I I #
coedge $-1 $305 $304 $436 $526 forward $306 $-1 #
edge $-1 $530 4.7779912850694899 $308 32.739520772740356 $304 $531 forward 7 unknown #
point $-1 32.739520772740356 -31.907355458047189 7.0628522227544339 #
point $-1 32.739520772740356 -31.907355458047189 12.164758386781047 #
edge $-1 $532 1 $532 0 $310 $-1 forward 7 unknown #
vertex $-1 $311 $533 #
ellipse-curve $-1 18.758756028904926 -27.658011633763088 7.9904732986127573 0 -0.68199836817093118 0.7313536940579346 1.5 0 0 1 I I #
point $-1 20.258756028904926 -29.171793252960939 9.6138053047677499 #
plane-surface $-1 64.394054994354079 0 0 -1 0 0 0 0 1 forward_v I I I I #
coedge $-1 $334 $320 $325 $460 forward $315 $-1 #
vertex $-1 $318 $534 #
vertex $-1 $459 $535 #
straight-curve $-1 64.394054994354079 0 -12.164758386781047 0 -1 0 I I #
straight-curve $-1 0 31.907355458047189 12.164758386781047 -1 0 0 I I #
coedge $-1 $322 $331 $324 $459 reversed $201 $-1 #
straight-curve $-1 0 -31.907355458047189 12.164758386781047 1 0 0 I I #
edge $-1 $327 -12.164758386781047 $454 12.164758386781047 $324 $536 forward 7 unknown #
edge $-1 $328 -12.164758386781047 $453 12.164758386781047 $325 $537 forward 7 unknown #
point $-1 64.394054994354079 -31.907355458047189 12.164758386781047 #
point $-1 64.394054994354079 31.907355458047189 12.164758386781047 #
straight-curve $-1 -64.394054994354079 0 12.164758386781047 0 -1 0 I I #
point $-1 -64.394054994354079 -31.907355458047189 12.164758386781047 #
point $-1 -64.394054994354079 31.907355458047189 12.164758386781047 #
straight-curve $-1 0 31.907355458047189 -12.164758386781047 1 0 0 I I #
straight-curve $-1 0 -31.907355458047189 -12.164758386781047 -1 0 0 I I #
plane-surface $-1 0 0 12.164758386781047 0 0 1 1 0 0 forward_v I I I I #
coedge $-1 $346 $343 $348 $476 reversed $219 $-1 #
coedge $-1 $343 $346 $482 $538 reversed $219 $-1 #
edge $-1 $484 -12.164758386781047 $478 12.164758386781047 $360 $539 forward 7 unknown #
edge $-1 $473 -4.7779912850694899 $358 4.7779912850694899 $345 $540 forward 7 unknown #
vertex $-1 $538 $541 #
vertex $-1 $476 $542 #
straight-curve $-1 -73.950037564493059 -11.741559232936408 0 0 0 -1 I I #
edge $-1 $474 -2.0818602742256562 $478 2.0818602742256562 $469 $543 forward 7 unknown #
straight-curve $-1 -69.172046279423569 -11.741559232936408 -12.164758386781047 -1 0 0 I I #
vertex $-1 $350 $544 #
straight-curve $-1 -69.172046279423569 -7.577838684485096 -12.164758386781047 1 0 0 I I #
point $-1 -64.394054994354079 -11.741559232936408 -12.164758386781047 #
straight-curve $-1 -64.394054994354079 -11.741559232936408 0 0 0 -1 I I #
coedge $-1 $356 $355 $470 $538 forward $357 $-1 #
point $-1 -64.394054994354079 -11.741559232936408 12.164758386781047 #
vertex $-1 $361 $545 #
straight-curve $-1 -69.172046279423569 -7.577838684485096 12.164758386781047 -1 0 0 I I #
coedge $-1 $375 $374 $367 $487 forward $364 $-1 #
edge $-1 $488 60.22226207512486 $491 65.324168239151476 $486 $546 forward 7 unknown #
vertex $-1 $379 $547 #
straight-curve $-1 4.7779912850694899 36.534755873219858 12.164758386781045 0 1 0 I I #
edge $-1 $491 -9.3793780144524597 $376 18.582151473218399 $375 $548 forward 7 unknown #
vertex $-1 $490 $549 #
straight-curve $-1 4.7779912850694899 -14.763769105677653 50.584380932830513 0 -0.7313536940579346 0.68199836817093118 I I #
point $-1 4.7779912850694899 26.436231047874656 12.164758386781045 #
point $-1 -23.183538202601369 31.907355458047192 7.0628522227544224 #
straight-curve $-1 0 31.907355458047189 12.164758386781047 -1 0 0 I I #
vertex $-1 $382 $550 #
point $-1 -7.7027734587659396 27.658011633763085 7.9904732986127573 #
straight-curve $-1 32.739520772740356 -14.763769105677653 50.584380932830513 0 -0.7313536940579346 0.68199836817093118 I I #
coedge $-1 $390 $396 $392 $501 reversed $386 $-1 #
straight-curve $-1 32.739520772740356 31.907355458047189 72.387020461905905 0 0 -1 I I #
edge $-1 $394 -32.739520772740356 $505 -4.7779912850694899 $499 $551 forward 7 unknown #
point $-1 32.739520772740356 26.436231047874656 12.164758386781045 #
point $-1 32.739520772740356 31.907355458047189 12.164758386781047 #
point $-1 32.739520772740356 31.907355458047192 7.0628522227544224 #
vertex $-1 $401 $552 #
straight-curve $-1 4.7779912850694899 36.534755873219858 12.164758386781045 0 -1 0 I I #
straight-curve $-1 4.7779912850694899 31.907355458047189 72.387020461905905 0 0 1 I I #
vertex $-1 $404 $553 #
point $-1 20.258756028904926 27.658011633763085 7.9904732986127573 #
coedge $-1 $419 $418 $411 $511 forward $408 $-1 #
edge $-1 $512 38.461497720086825 $515 43.563403884113434 $510 $554 forward 7 unknown #
vertex $-1 $423 $555 #
straight-curve $-1 -23.183538202601369 -59.870318155082273 12.164758386781045 0 -1 0 I I #
edge $-1 $515 -18.582151473218399 $420 9.3793780144524597 $419 $556 forward 7 unknown #
vertex $-1 $514 $557 #
straight-curve $-1 -23.183538202601369 -31.907355458047178 7.0628522227544437 0 0.7313536940579346 0.68199836817093118 I I #
point $-1 -23.183538202601369 -26.436231047874664 12.164758386781047 #
point $-1 4.7779912850694899 -31.907355458047189 7.0628522227544339 #
straight-curve $-1 0 -31.907355458047189 12.164758386781047 1 0 0 I I #
vertex $-1 $426 $558 #
point $-1 -7.7027734587659396 -27.658011633763088 7.9904732986127573 #
coedge $-1 $433 $432 $431 $523 forward $186 $-1 #
edge $-1 $437 -33.43408710720761 $530 -27.962962697035085 $522 $559 forward 7 unknown #
straight-curve $-1 -4.6013867293829698 -26.436231047874664 12.164758386781047 -1 0 0 I I #
straight-curve $-1 -4.6013867293829698 -31.907355458047189 7.0628522227544384 1 0 0 I I #
edge $-1 $530 38.461497720086825 $438 43.563403884113434 $443 $560 forward 7 unknown #
point $-1 4.7779912850694899 -26.436231047874664 12.164758386781047 #
point $-1 4.7779912850694899 -31.907355458047189 7.0628522227544339 #
point $-1 32.739520772740356 -26.436231047874664 12.164758386781047 #
vertex $-1 $444 $561 #
straight-curve $-1 0 -31.907355458047189 12.164758386781047 1 0 0 I I #
vertex $-1 $447 $562 #
point $-1 20.258756028904926 -27.658011633763088 7.9904732986127573 #
point $-1 64.394054994354079 31.907355458047189 -12.164758386781047 #
point $-1 64.394054994354079 -31.907355458047189 -12.164758386781047 #
straight-curve $-1 64.394054994354079 -31.907355458047189 0 0 0 -1 I I #
straight-curve $-1 64.394054994354079 31.907355458047189 0 0 0 -1 I I #
edge $-1 $484 -2.0818602742256562 $473 2.0818602742256562 $470 $563 forward 7 unknown #
straight-curve $-1 -73.950037564493059 -7.577838684485096 0 0 0 -1 I I #
straight-curve $-1 -69.172046279423569 -11.741559232936408 12.164758386781047 1 0 0 I I #
point $-1 -73.950037564493059 -11.741559232936408 12.164758386781047 #
point $-1 -73.950037564493059 -11.741559232936408 -12.164758386781047 #
straight-curve $-1 -73.950037564493059 -9.6596989587107522 -12.164758386781047 0 1 0 I I #
point $-1 -73.950037564493059 -7.577838684485096 -12.164758386781047 #
point $-1 -73.950037564493059 -7.577838684485096 12.164758386781047 #
straight-curve $-1 4.7779912850694899 31.907355458047189 72.387020461905905 0 0 -1 I I #
point $-1 4.7779912850694899 31.907355458047189 12.164758386781047 #
straight-curve $-1 -4.6013867293829698 31.907355458047189 7.0628522227544259 -1 0 0 I I #
point $-1 4.7779912850694899 31.907355458047192 7.0628522227544224 #
point $-1 -9.2027734587659396 26.635014081506686 6.8934427575258557 #
straight-curve $-1 0 31.907355458047189 12.164758386781047 -1 0 0 I I #
point $-1 4.7779912850694899 31.907355458047189 12.164758386781047 #
point $-1 18.758756028904926 26.635014081506686 6.8934427575258557 #
straight-curve $-1 -23.183538202601369 -31.907355458047192 50.626256106867871 0 0 -1 I I #
point $-1 -23.183538202601369 -31.907355458047189 12.164758386781047 #
straight-curve $-1 -4.6013867293829698 -31.907355458047189 7.0628522227544384 1 0 0 I I #
point $-1 -23.183538202601369 -31.907355458047189 7.0628522227544339 #
point $-1 -9.2027734587659396 -26.635014081506689 6.8934427575258557 #
straight-curve $-1 4.7779912850694899 -59.870318155082273 12.164758386781045 0 -1 0 I I #
straight-curve $-1 4.7779912850694899 -31.907355458047192 50.626256106867871 0 0 -1 I I #
point $-1 4.7779912850694899 -31.907355458047189 12.164758386781047 #
point $-1 18.758756028904926 -26.635014081506689 6.8934427575258557 #
straight-curve $-1 -73.950037564493059 -9.6596989587107522 12.164758386781047 0 -1 0 I I #
End-of-ACIS-data 