500 0 5 0           
7 Unknown 11 ACIS 5.0 NT 24 Thu Mar 25 17:15:22 1999 
-1 9.9999999999999995e-007 1e-010 
body $-1 $5 $-1 $6 #
body $-1 $7 $-1 $8 #
body $-1 $9 $-1 $10 #
body $-1 $11 $-1 $12 #
body $-1 $13 $-1 $14 #
lump $-1 $-1 $15 $0 #
transform $-1 1 0 0 0 1 0 0 0 1 57.561571092867823 36.409050761853976 10.308582645284101 1 rotate no_reflect no_shear #
lump $-1 $-1 $16 $1 #
transform $-1 1 0 0 0 1 0 0 0 1 57.561571092867823 36.409050761853976 10.308582645284101 1 rotate no_reflect no_shear #
lump $-1 $-1 $17 $2 #
transform $-1 1 0 0 0 1 0 0 0 1 57.561571092867823 36.409050761853976 10.308582645284101 1 rotate no_reflect no_shear #
lump $-1 $-1 $18 $3 #
transform $-1 1 0 0 0 1 0 0 0 1 57.561571092867823 36.409050761853976 10.308582645284101 1 rotate no_reflect no_shear #
lump $-1 $-1 $19 $4 #
transform $-1 1 0 0 0 1 0 0 0 1 57.561571092867823 36.409050761853976 10.308582645284101 1 rotate no_reflect no_shear #
shell $-1 $-1 $-1 $20 $-1 $5 #
shell $-1 $-1 $-1 $21 $-1 $7 #
shell $-1 $-1 $-1 $22 $-1 $9 #
shell $-1 $-1 $-1 $23 $-1 $11 #
shell $-1 $-1 $-1 $24 $-1 $13 #
face $-1 $25 $26 $15 $-1 $27 forward single #
face $-1 $28 $29 $16 $-1 $30 forward single #
face $-1 $31 $32 $17 $-1 $33 forward single #
face $-1 $34 $35 $18 $-1 $36 forward single #
face $-1 $37 $38 $19 $-1 $39 reversed single #
face $-1 $40 $41 $15 $-1 $42 reversed single #
loop $-1 $-1 $43 $20 #
plane-surface $-1 0 0 10.308582645284101 0 0 1 1 0 0 forward_v I I I I #
face $-1 $44 $45 $16 $-1 $46 forward single #
loop $-1 $-1 $47 $21 #
plane-surface $-1 -56.061571092867823 -27.93286453509474 0 0 -1 0 0 0 -1 forward_v I I I I #
face $-1 $48 $49 $17 $-1 $50 reversed single #
loop $-1 $-1 $51 $22 #
plane-surface $-1 0 40.908248284134416 -0.28404049264938536 0 0 1 1 0 0 forward_v I I I I #
face $-1 $52 $53 $18 $-1 $54 forward single #
loop $-1 $-1 $55 $23 #
plane-surface $-1 15.423577705820904 27.410655717293086 162.66378272914579 0 -1 0 -0.50000000669873634 0 -0.8660253999169214 forward_v I I I I #
face $-1 $56 $57 $19 $-1 $58 reversed single #
loop $-1 $59 $60 $24 #
cone-surface $-1 51.669193387163645 21.936328855420918 5.0086220323007034 -0.50000000669873634 0 -0.8660253999169214 1.7320507998338428 0 -1.0000000133974727 1 I I 0 1 2 forward I I I I #
face $-1 $61 $62 $15 $-1 $63 reversed single #
loop $-1 $-1 $64 $25 #
plane-surface $-1 0 0 -10.308582645284101 0 0 1 1 0 0 forward_v I I I I #
coedge $-1 $65 $66 $67 $68 forward $26 $-1 #
face $-1 $69 $70 $16 $-1 $71 forward single #
loop $-1 $-1 $72 $28 #
plane-surface $-1 -54.561571092867823 -32.170957648474356 0 -1 0 0 0 0 1 forward_v I I I I #
coedge $-1 $73 $74 $75 $76 reversed $29 $-1 #
face $-1 $77 $78 $17 $-1 $79 reversed single #
loop $-1 $-1 $80 $31 #
plane-surface $-1 0 40.908248284134416 -4.4880747310273694 0 0 1 1 0 0 forward_v I I I I #
coedge $-1 $81 $82 $83 $84 forward $32 $-1 #
face $-1 $85 $86 $18 $-1 $87 forward single #
loop $-1 $-1 $88 $34 #
plane-surface $-1 -42.137994158226498 21.936328855420925 62.964217478051481 0.50000000669873634 0 0.8660253999169214 0.8660253999169214 0 -0.50000000669873634 forward_v I I I I #
coedge $-1 $89 $90 $91 $92 reversed $35 $-1 #
face $-1 $93 $94 $19 $-1 $95 forward single #
loop $-1 $96 $97 $37 #
cone-surface $-1 49.525481697320856 21.936328855420918 1.2956045350403933 -0.50000000669873634 0 -0.8660253999169214 0.8660253999169214 0 -0.50000000669873634 1 I I -0.70710678118654746 0.70710678118654746 1 forward I I I I #
loop $-1 $-1 $98 $24 #
coedge $-1 $60 $60 $99 $100 reversed $38 $-1 #
face $-1 $101 $102 $15 $-1 $103 reversed single #
loop $-1 $-1 $104 $40 #
plane-surface $-1 0 -36.409050761853976 0 0 1 0 0 0 1 forward_v I I I I #
coedge $-1 $105 $106 $107 $108 forward $41 $-1 #
coedge $-1 $109 $43 $110 $111 forward $26 $-1 #
coedge $-1 $43 $109 $112 $113 forward $26 $-1 #
coedge $-1 $114 $115 $43 $68 reversed $116 $-1 #
edge $-1 $117 -36.409050761853976 $118 36.409050761853976 $67 $119 forward 7 unknown #
face $-1 $120 $121 $16 $-1 $122 reversed single #
loop $-1 $-1 $123 $44 #
plane-surface $-1 0 0 10.308582645284101 0 0 1 1 0 0 forward_v I I I I #
coedge $-1 $124 $125 $126 $127 reversed $45 $-1 #
coedge $-1 $128 $47 $123 $129 reversed $29 $-1 #
coedge $-1 $47 $128 $130 $131 reversed $29 $-1 #
coedge $-1 $125 $124 $47 $76 forward $45 $-1 #
edge $-1 $132 -10.308582645284101 $133 10.308582645284101 $75 $134 forward 7 unknown #
face $-1 $135 $136 $17 $-1 $137 reversed single #
loop $-1 $-1 $138 $48 #
plane-surface $-1 0 45.407445806414863 -2.3860576118383774 0 -1 0 0 0 -1 forward_v I I I I #
coedge $-1 $139 $140 $141 $142 forward $49 $-1 #
coedge $-1 $143 $51 $144 $145 forward $32 $-1 #
coedge $-1 $51 $143 $146 $147 reversed $32 $-1 #
coedge $-1 $148 $149 $51 $84 reversed $150 $-1 #
edge $-1 $151 -4.499197522280447 $152 4.499197522280447 $83 $153 forward 7 unknown #
face $-1 $154 $155 $18 $-1 $156 forward single #
loop $-1 $-1 $157 $52 #
plane-surface $-1 15.423577705820904 16.462001993548764 162.66378272914579 0 1 0 0.50000000669873634 0 0.8660253999169214 forward_v I I I I #
coedge $-1 $158 $159 $160 $161 reversed $53 $-1 #
coedge $-1 $90 $55 $159 $162 forward $35 $-1 #
coedge $-1 $55 $89 $163 $164 reversed $35 $-1 #
coedge $-1 $165 $160 $55 $92 forward $155 $-1 #
edge $-1 $166 41.352450194837104 $167 49.849782239957371 $91 $168 forward 7 unknown #
face $-1 $169 $170 $19 $-1 $171 forward single #
loop $-1 $-1 $172 $56 #
plane-surface $-1 15.423577705820904 27.410655717293086 162.66378272914579 0 -1 0 -0.50000000669873634 0 -0.8660253999169214 forward_v I I I I #
loop $-1 $-1 $173 $37 #
coedge $-1 $97 $97 $98 $174 forward $57 $-1 #
coedge $-1 $98 $98 $97 $174 reversed $59 $-1 #
coedge $-1 $99 $99 $60 $100 forward $170 $-1 #
edge $-1 $175 0 $175 6.2831853071796004 $99 $176 forward 7 unknown #
face $-1 $177 $178 $15 $-1 $179 reversed single #
loop $-1 $-1 $180 $61 #
plane-surface $-1 -57.561571092867823 0 0 1 0 0 0 0 -1 forward_v I I I I #
coedge $-1 $181 $112 $182 $183 forward $62 $-1 #
coedge $-1 $184 $64 $181 $185 forward $41 $-1 #
coedge $-1 $64 $184 $186 $187 forward $41 $-1 #
coedge $-1 $115 $114 $64 $108 reversed $116 $-1 #
edge $-1 $188 -36.409050761853976 $189 36.409050761853976 $107 $190 forward 7 unknown #
coedge $-1 $66 $65 $191 $192 forward $26 $-1 #
coedge $-1 $193 $194 $65 $111 reversed $178 $-1 #
edge $-1 $118 -57.561571092867823 $195 57.561571092867823 $110 $196 forward 7 unknown #
coedge $-1 $104 $197 $66 $113 reversed $62 $-1 #
edge $-1 $198 -57.561571092867823 $117 57.561571092867823 $112 $199 forward 7 unknown #
coedge $-1 $107 $67 $197 $200 forward $116 $-1 #
coedge $-1 $67 $107 $193 $201 reversed $116 $-1 #
loop $-1 $-1 $114 $177 #
vertex $-1 $68 $202 #
vertex $-1 $68 $203 #
straight-curve $-1 57.561571092867823 0 10.308582645284101 0 1 0 I I #
face $-1 $204 $205 $16 $-1 $206 reversed single #
loop $-1 $-1 $126 $69 #
plane-surface $-1 0 -36.409050761853976 0 0 1 0 0 0 1 forward_v I I I I #
coedge $-1 $207 $208 $73 $129 forward $70 $-1 #
coedge $-1 $75 $72 $207 $209 reversed $45 $-1 #
coedge $-1 $72 $75 $210 $211 reversed $45 $-1 #
coedge $-1 $212 $213 $72 $127 forward $121 $-1 #
edge $-1 $214 -10.308582645284101 $215 10.308582645284101 $126 $216 forward 7 unknown #
coedge $-1 $74 $73 $217 $218 reversed $29 $-1 #
edge $-1 $219 -29.530785546433911 $132 -26.530785546433911 $123 $220 forward 7 unknown #
coedge $-1 $221 $210 $74 $131 forward $205 $-1 #
edge $-1 $133 26.530785546433911 $222 29.530785546433911 $130 $223 forward 7 unknown #
vertex $-1 $129 $224 #
vertex $-1 $131 $225 #
straight-curve $-1 -54.561571092867823 -27.93286453509474 0 0 0 -1 I I #
face $-1 $226 $227 $17 $-1 $137 reversed single #
loop $-1 $-1 $228 $77 #
plane-surface $-1 0 36.409050761853976 0 0 -1 0 0 0 -1 forward_v I I I I #
coedge $-1 $229 $144 $149 $230 forward $78 $-1 #
coedge $-1 $231 $80 $228 $232 reversed $49 $-1 #
coedge $-1 $80 $231 $229 $233 forward $49 $-1 #
coedge $-1 $149 $234 $80 $142 reversed $150 $-1 #
edge $-1 $235 -4.499197522280447 $236 4.499197522280447 $141 $237 forward 7 unknown #
coedge $-1 $82 $81 $238 $239 forward $32 $-1 #
coedge $-1 $138 $240 $81 $145 reversed $78 $-1 #
edge $-1 $152 -57.561571092867823 $241 57.561571092867823 $144 $242 forward 7 unknown #
coedge $-1 $243 $244 $82 $147 forward $227 $-1 #
edge $-1 $151 -57.561571092867823 $245 57.561571092867823 $146 $246 forward 7 unknown #
coedge $-1 $247 $83 $244 $248 reversed $150 $-1 #
coedge $-1 $83 $141 $138 $230 reversed $150 $-1 #
loop $-1 $-1 $249 $250 #
vertex $-1 $248 $251 #
vertex $-1 $84 $252 #
straight-curve $-1 57.561571092867823 40.908248284134416 -0.28404049264938536 0 1 0 I I #
face $-1 $253 $254 $18 $-1 $255 forward single #
loop $-1 $-1 $256 $85 #
plane-surface $-1 0 0 10.308582645284101 0 0 1 1 0 0 forward_v I I I I #
coedge $-1 $257 $258 $256 $259 reversed $86 $-1 #
coedge $-1 $260 $88 $258 $261 reversed $53 $-1 #
coedge $-1 $88 $260 $89 $162 reversed $53 $-1 #
coedge $-1 $91 $256 $88 $161 forward $155 $-1 #
edge $-1 $262 5.4938375658383016 $166 16.442491289582623 $160 $263 forward 7 unknown #
edge $-1 $166 105.31126825462991 $264 115.12314218573567 $89 $265 forward 7 unknown #
coedge $-1 $266 $267 $90 $164 forward $268 $-1 #
edge $-1 $167 71.023308719288792 $264 75.929245750568825 $163 $269 forward 7 unknown #
coedge $-1 $270 $91 $267 $271 forward $155 $-1 #
vertex $-1 $161 $272 #
vertex $-1 $271 $273 #
straight-curve $-1 7.7117888529104519 27.410655717293086 10.308582645284105 1 0 0 I I #
face $-1 $274 $275 $19 $-1 $276 forward single #
loop $-1 $277 $99 $93 #
plane-surface $-1 -42.137994158226498 21.936328855420925 62.964217478051481 0.50000000669873634 0 0.8660253999169214 0.8660253999169214 0 -0.50000000669873634 forward_v I I I I #
coedge $-1 $278 $279 $280 $281 reversed $94 $-1 #
coedge $-1 $173 $173 $-1 $282 forward $96 $-1 #
edge $-1 $283 0 $283 6.2831853071796004 $97 $284 forward 7 unknown #
vertex $-1 $100 $285 #
ellipse-curve $-1 53.312905070307693 21.936328855420918 7.8556141296440867 -0.50000000669873634 0 -0.8660253999169214 1.7320507998338428 0 -1.0000000133974727 1 I I #
face $-1 $-1 $116 $15 $-1 $286 reversed single #
loop $-1 $-1 $193 $101 #
plane-surface $-1 0 36.409050761853976 0 0 -1 0 0 0 -1 forward_v I I I I #
coedge $-1 $287 $191 $194 $288 forward $102 $-1 #
coedge $-1 $197 $104 $105 $185 reversed $62 $-1 #
coedge $-1 $191 $287 $104 $183 reversed $102 $-1 #
edge $-1 $198 -10.308582645284101 $289 10.308582645284101 $182 $290 forward 7 unknown #
coedge $-1 $106 $105 $287 $291 forward $41 $-1 #
edge $-1 $189 -57.561571092867823 $289 57.561571092867823 $181 $292 forward 7 unknown #
coedge $-1 $194 $193 $106 $187 reversed $178 $-1 #
edge $-1 $293 -57.561571092867823 $188 57.561571092867823 $186 $294 forward 7 unknown #
vertex $-1 $108 $295 #
vertex $-1 $200 $296 #
straight-curve $-1 57.561571092867823 0 -10.308582645284101 0 -1 0 I I #
coedge $-1 $180 $182 $109 $192 reversed $102 $-1 #
edge $-1 $195 -36.409050761853976 $198 36.409050761853976 $191 $297 forward 7 unknown #
coedge $-1 $186 $110 $115 $201 forward $178 $-1 #
coedge $-1 $110 $186 $180 $288 reversed $178 $-1 #
vertex $-1 $111 $298 #
straight-curve $-1 0 36.409050761853976 10.308582645284101 -1 0 0 I I #
coedge $-1 $112 $181 $114 $200 reversed $62 $-1 #
vertex $-1 $192 $299 #
straight-curve $-1 0 -36.409050761853976 10.308582645284101 1 0 0 I I #
edge $-1 $117 -10.308582645284101 $189 10.308582645284101 $114 $300 forward 7 unknown #
edge $-1 $118 -10.308582645284101 $188 10.308582645284101 $115 $301 forward 7 unknown #
point $-1 57.561571092867823 -36.409050761853976 10.308582645284101 #
point $-1 57.561571092867823 36.409050761853976 10.308582645284101 #
face $-1 $302 $303 $16 $-1 $304 reversed single #
loop $-1 $-1 $130 $120 #
plane-surface $-1 0 0 -10.308582645284101 0 0 1 1 0 0 forward_v I I I I #
coedge $-1 $305 $123 $124 $209 forward $70 $-1 #
coedge $-1 $123 $306 $307 $308 forward $70 $-1 #
edge $-1 $132 11.847385710857562 $214 20.323571937616798 $207 $309 forward 7 unknown #
coedge $-1 $130 $310 $125 $211 forward $205 $-1 #
edge $-1 $215 -20.323571937616798 $133 -11.847385710857562 $210 $311 forward 7 unknown #
coedge $-1 $312 $126 $310 $313 reversed $121 $-1 #
coedge $-1 $126 $312 $305 $314 reversed $121 $-1 #
vertex $-1 $314 $315 #
vertex $-1 $127 $316 #
straight-curve $-1 -54.561571092867823 -36.409050761853976 0 0 0 -1 I I #
coedge $-1 $307 $317 $128 $218 forward $303 $-1 #
edge $-1 $222 -10.308582645284101 $219 10.308582645284101 $217 $318 forward 7 unknown #
vertex $-1 $218 $319 #
straight-curve $-1 -28.030785546433911 -27.93286453509474 10.308582645284101 1 0 0 I I #
coedge $-1 $320 $130 $317 $321 forward $205 $-1 #
vertex $-1 $321 $322 #
straight-curve $-1 -28.030785546433911 -27.93286453509474 -10.308582645284101 -1 0 0 I I #
point $-1 -54.561571092867823 -27.93286453509474 10.308582645284101 #
point $-1 -54.561571092867823 -27.93286453509474 -10.308582645284101 #
face $-1 $323 $324 $17 $-1 $325 forward single #
loop $-1 $-1 $146 $135 #
coedge $-1 $326 $327 $139 $232 forward $136 $-1 #
coedge $-1 $240 $138 $140 $233 reversed $78 $-1 #
edge $-1 $152 -2.102017119188992 $235 2.102017119188992 $149 $328 forward 7 unknown #
coedge $-1 $140 $139 $329 $330 forward $49 $-1 #
edge $-1 $331 -57.561571092867823 $236 57.561571092867823 $228 $332 forward 7 unknown #
edge $-1 $333 -57.561571092867823 $235 57.561571092867823 $229 $334 forward 7 unknown #
coedge $-1 $141 $335 $326 $336 reversed $150 $-1 #
vertex $-1 $142 $337 #
vertex $-1 $336 $338 #
straight-curve $-1 57.561571092867823 40.908248284134416 -4.4880747310273694 0 -1 0 I I #
coedge $-1 $339 $340 $143 $239 reversed $341 $-1 #
edge $-1 $241 -4.499197522280447 $245 4.499197522280447 $238 $342 forward 7 unknown #
coedge $-1 $144 $229 $339 $343 reversed $78 $-1 #
vertex $-1 $145 $344 #
straight-curve $-1 0 45.407445806414863 -0.28404049264938536 -1 0 0 I I #
coedge $-1 $345 $146 $340 $346 reversed $227 $-1 #
coedge $-1 $146 $345 $148 $248 forward $227 $-1 #
vertex $-1 $239 $347 #
straight-curve $-1 0 36.409050761853976 -0.28404049264938536 -1 0 0 I I #
coedge $-1 $249 $148 $348 $349 reversed $150 $-1 #
edge $-1 $350 -10.308582645284101 $151 0.28404049264938536 $148 $351 forward 7 unknown #
coedge $-1 $335 $247 $352 $353 forward $150 $-1 #
face $-1 $-1 $150 $17 $-1 $354 reversed single #
point $-1 57.561571092867823 36.409050761853969 -0.28404049264938536 #
point $-1 57.561571092867823 45.407445806414863 -0.28404049264938536 #
face $-1 $355 $356 $18 $-1 $357 reversed single #
loop $-1 $-1 $358 $154 #
plane-surface $-1 0 40.908248284134416 -0.28404049264938536 0 0 1 1 0 0 forward_v I I I I #
coedge $-1 $160 $359 $157 $259 forward $155 $-1 #
coedge $-1 $258 $157 $360 $361 reversed $86 $-1 #
coedge $-1 $157 $257 $158 $261 forward $86 $-1 #
edge $-1 $362 -49.849782239957371 $262 -41.352450194837104 $256 $363 forward 7 unknown #
coedge $-1 $159 $158 $266 $364 reversed $53 $-1 #
edge $-1 $365 -115.12314218573567 $262 -105.31126825462991 $258 $366 forward 7 unknown #
vertex $-1 $161 $367 #
straight-curve $-1 49.064239047747563 10.968164427710462 10.308582645284105 0 1 0 I I #
vertex $-1 $364 $368 #
straight-curve $-1 -42.137994158226498 27.410655717293086 62.964217478051481 0.8660253999169214 0 -0.50000000669873634 I I #
coedge $-1 $360 $163 $260 $364 forward $268 $-1 #
coedge $-1 $163 $369 $165 $271 reversed $268 $-1 #
loop $-1 $-1 $360 $370 #
straight-curve $-1 57.561571092867823 27.410655717293086 81.331891364572897 0 0 -1 I I #
coedge $-1 $371 $165 $372 $373 forward $155 $-1 #
edge $-1 $167 27.410655717293086 $374 36.409050761853976 $267 $375 forward 7 unknown #
point $-1 49.064239047747556 27.410655717293086 10.308582645284105 #
point $-1 57.561571092867823 27.410655717293086 10.308582645284101 #
face $-1 $376 $377 $19 $-1 $378 forward single #
loop $-1 $-1 $379 $169 #
plane-surface $-1 15.423577705820904 16.462001993548764 162.66378272914579 0 1 0 0.50000000669873634 0 0.8660253999169214 forward_v I I I I #
loop $-1 $-1 $380 $93 #
coedge $-1 $279 $172 $381 $382 forward $94 $-1 #
coedge $-1 $172 $278 $383 $384 reversed $94 $-1 #
coedge $-1 $385 $386 $172 $281 forward $377 $-1 #
edge $-1 $387 41.352450194837104 $388 49.849782239957371 $280 $389 forward 7 unknown #
edge $-1 $390 1 $390 0 $173 $-1 forward 7 unknown #
vertex $-1 $174 $391 #
ellipse-curve $-1 50.02548170401959 21.936328855420918 2.1616299349573147 0.50000000669873634 0 0.8660253999169214 1.7320507998338428 0 -1.0000000133974727 1 I I #
point $-1 55.044955870141543 21.936328855420918 6.8556141162466213 #
plane-surface $-1 57.561571092867823 0 0 -1 0 0 0 0 1 forward_v I I I I #
coedge $-1 $182 $180 $184 $291 reversed $102 $-1 #
edge $-1 $195 -10.308582645284101 $293 10.308582645284101 $194 $392 forward 7 unknown #
vertex $-1 $291 $393 #
straight-curve $-1 -57.561571092867823 -36.409050761853976 0 0 0 -1 I I #
edge $-1 $289 -36.409050761853976 $293 36.409050761853976 $287 $394 forward 7 unknown #
straight-curve $-1 0 -36.409050761853976 -10.308582645284101 -1 0 0 I I #
vertex $-1 $187 $395 #
straight-curve $-1 0 36.409050761853976 -10.308582645284101 1 0 0 I I #
point $-1 57.561571092867823 36.409050761853976 -10.308582645284101 #
point $-1 57.561571092867823 -36.409050761853976 -10.308582645284101 #
straight-curve $-1 -57.561571092867823 0 10.308582645284101 0 -1 0 I I #
point $-1 -57.561571092867823 36.409050761853976 10.308582645284101 #
point $-1 -57.561571092867823 -36.409050761853976 10.308582645284101 #
straight-curve $-1 57.561571092867823 -36.409050761853976 0 0 0 -1 I I #
straight-curve $-1 57.561571092867823 36.409050761853976 0 0 0 -1 I I #
face $-1 $396 $397 $16 $-1 $398 reversed single #
loop $-1 $-1 $217 $204 #
plane-surface $-1 -57.561571092867823 0 0 1 0 0 0 0 -1 forward_v I I I I #
coedge $-1 $399 $207 $213 $314 forward $70 $-1 #
coedge $-1 $208 $399 $400 $401 forward $70 $-1 #
coedge $-1 $402 $217 $208 $308 reversed $303 $-1 #
edge $-1 $403 -36.409050761853976 $219 27.93286453509474 $307 $404 forward 7 unknown #
straight-curve $-1 -54.561571092867823 -16.085478824237178 10.308582645284101 0 -1 0 I I #
coedge $-1 $210 $405 $212 $313 forward $205 $-1 #
straight-curve $-1 -54.561571092867823 -16.085478824237178 -10.308582645284101 0 1 0 I I #
coedge $-1 $213 $212 $406 $407 reversed $121 $-1 #
edge $-1 $408 -57.561571092867823 $215 54.561571092867823 $212 $409 forward 7 unknown #
edge $-1 $214 -54.561571092867823 $410 57.561571092867823 $213 $411 forward 7 unknown #
point $-1 -54.561571092867823 -36.409050761853976 10.308582645284101 #
point $-1 -54.561571092867823 -36.409050761853976 -10.308582645284101 #
coedge $-1 $217 $402 $221 $321 reversed $303 $-1 #
straight-curve $-1 -57.561571092867823 -27.93286453509474 0 0 0 1 I I #
point $-1 -57.561571092867823 -27.93286453509474 10.308582645284101 #
coedge $-1 $405 $221 $412 $413 forward $205 $-1 #
edge $-1 $222 -27.93286453509474 $414 36.409050761853976 $317 $415 forward 7 unknown #
point $-1 -57.561571092867823 -27.93286453509474 -10.308582645284101 #
face $-1 $416 $417 $17 $-1 $418 forward single #
loop $-1 $-1 $419 $226 #
plane-surface $-1 -56.061571092867823 -27.93286453509474 0 0 -1 0 0 0 -1 forward_v I I I I #
coedge $-1 $420 $228 $234 $336 forward $136 $-1 #
coedge $-1 $228 $420 $421 $422 reversed $136 $-1 #
straight-curve $-1 57.561571092867823 45.407445806414863 -2.3860576118383774 0 0 -1 I I #
coedge $-1 $421 $339 $231 $330 reversed $341 $-1 #
edge $-1 $331 -4.499197522280447 $333 4.499197522280447 $329 $423 forward 7 unknown #
vertex $-1 $422 $424 #
straight-curve $-1 0 36.409050761853976 -4.4880747310273694 1 0 0 I I #
vertex $-1 $233 $425 #
straight-curve $-1 0 45.407445806414863 -4.4880747310273694 1 0 0 I I #
coedge $-1 $234 $249 $426 $427 reversed $150 $-1 #
edge $-1 $236 4.4880747310273694 $428 10.308582645284101 $234 $351 forward 7 unknown #
point $-1 57.561571092867823 45.407445806414863 -4.4880747310273694 #
point $-1 57.561571092867823 36.409050761853969 -4.4880747310273694 #
coedge $-1 $329 $238 $240 $343 forward $341 $-1 #
coedge $-1 $238 $429 $243 $346 forward $341 $-1 #
loop $-1 $-1 $430 $431 #
straight-curve $-1 -57.561571092867823 40.908248284134416 -0.28404049264938536 0 -1 0 I I #
edge $-1 $241 -2.102017119188992 $333 2.102017119188992 $240 $432 forward 7 unknown #
point $-1 -57.561571092867823 45.407445806414863 -0.28404049264938536 #
coedge $-1 $244 $243 $433 $434 reversed $227 $-1 #
edge $-1 $435 -10.308582645284101 $245 0.28404049264938536 $243 $436 forward 7 unknown #
point $-1 -57.561571092867823 36.409050761853969 -0.28404049264938536 #
coedge $-1 $433 $437 $247 $349 forward $438 $-1 #
edge $-1 $439 -36.409050761853976 $350 36.409050761853976 $247 $440 forward 7 unknown #
vertex $-1 $349 $441 #
straight-curve $-1 57.561571092867823 36.409050761853976 0 0 0 -1 I I #
coedge $-1 $442 $443 $249 $353 reversed $444 $-1 #
edge $-1 $439 -10.308582645284101 $445 10.308582645284101 $249 $446 forward 7 unknown #
plane-surface $-1 57.561571092867823 0 0 -1 0 0 0 0 1 forward_v I I I I #
face $-1 $447 $448 $18 $-1 $449 reversed single #
loop $-1 $-1 $450 $253 #
plane-surface $-1 0 40.908248284134416 -4.4880747310273694 0 0 1 1 0 0 forward_v I I I I #
coedge $-1 $451 $452 $453 $454 forward $254 $-1 #
coedge $-1 $256 $455 $456 $457 forward $155 $-1 #
coedge $-1 $456 $266 $257 $361 forward $268 $-1 #
edge $-1 $365 -75.929245750568825 $362 -71.023308719288792 $360 $458 forward 7 unknown #
vertex $-1 $361 $459 #
straight-curve $-1 7.7117888529104519 16.462001993548764 10.308582645284105 -1 0 0 I I #
edge $-1 $264 -16.442491289582623 $365 -5.4938375658383016 $266 $460 forward 7 unknown #
vertex $-1 $364 $461 #
straight-curve $-1 -42.137994158226498 16.462001993548764 62.964217478051481 -0.8660253999169214 0 0.50000000669873634 I I #
point $-1 49.064239047747556 16.462001993548764 10.308582645284105 #
point $-1 57.56157109286783 27.410655717293086 5.4026456140040722 #
coedge $-1 $267 $453 $462 $463 reversed $268 $-1 #
face $-1 $-1 $268 $18 $-1 $464 reversed single #
coedge $-1 $465 $270 $466 $467 forward $155 $-1 #
coedge $-1 $462 $468 $270 $373 reversed $469 $-1 #
edge $-1 $374 -57.561571092867823 $470 57.561571092867823 $372 $471 forward 7 unknown #
vertex $-1 $271 $472 #
straight-curve $-1 57.561571092867823 0 10.308582645284101 0 1 0 I I #
face $-1 $473 $474 $19 $-1 $475 forward single #
loop $-1 $-1 $476 $274 #
plane-surface $-1 0 0 10.308582645284101 0 0 1 1 0 0 forward_v I I I I #
coedge $-1 $477 $478 $476 $479 reversed $275 $-1 #
coedge $-1 $480 $381 $386 $481 reversed $277 $-1 #
coedge $-1 $380 $482 $278 $382 reversed $277 $-1 #
edge $-1 $387 105.31126825462991 $483 115.12314218573567 $278 $484 forward 7 unknown #
coedge $-1 $485 $486 $279 $384 forward $487 $-1 #
edge $-1 $388 71.023308719288792 $483 75.929245750568825 $383 $488 forward 7 unknown #
coedge $-1 $489 $280 $486 $490 forward $377 $-1 #
coedge $-1 $280 $476 $380 $481 forward $377 $-1 #
vertex $-1 $481 $491 #
vertex $-1 $490 $492 #
straight-curve $-1 7.7117888529104519 27.410655717293086 10.308582645284105 1 0 0 I I #
vertex $-1 $282 $493 #
point $-1 51.757532503853433 21.936328855420918 1.161629921559842 #
straight-curve $-1 -57.561571092867823 36.409050761853976 0 0 0 -1 I I #
point $-1 -57.561571092867823 -36.409050761853976 -10.308582645284101 #
straight-curve $-1 -57.561571092867823 0 -10.308582645284101 0 1 0 I I #
point $-1 -57.561571092867823 36.409050761853976 -10.308582645284101 #
face $-1 $-1 $494 $16 $-1 $495 reversed single #
loop $-1 $-1 $496 $302 #
plane-surface $-1 0 36.409050761853976 0 0 -1 0 0 0 -1 forward_v I I I I #
coedge $-1 $306 $305 $497 $498 forward $70 $-1 #
coedge $-1 $496 $499 $306 $401 reversed $397 $-1 #
edge $-1 $500 -57.561571092867823 $403 57.561571092867823 $400 $501 forward 7 unknown #
coedge $-1 $317 $307 $499 $502 forward $303 $-1 #
vertex $-1 $401 $503 #
straight-curve $-1 -57.561571092867823 0 10.308582645284101 0 -1 0 I I #
coedge $-1 $310 $320 $504 $505 forward $205 $-1 #
coedge $-1 $504 $497 $312 $407 forward $494 $-1 #
edge $-1 $410 -10.308582645284101 $408 10.308582645284101 $406 $506 forward 7 unknown #
vertex $-1 $407 $507 #
straight-curve $-1 0 -36.409050761853976 -10.308582645284101 -1 0 0 I I #
vertex $-1 $498 $508 #
straight-curve $-1 0 -36.409050761853976 10.308582645284101 1 0 0 I I #
coedge $-1 $499 $496 $320 $413 reversed $397 $-1 #
edge $-1 $414 -57.561571092867823 $509 57.561571092867823 $412 $510 forward 7 unknown #
vertex $-1 $413 $511 #
straight-curve $-1 -57.561571092867823 0 -10.308582645284101 0 1 0 I I #
face $-1 $512 $438 $17 $-1 $513 forward single #
loop $-1 $-1 $514 $323 #
plane-surface $-1 -54.561571092867823 -32.170957648474356 0 -1 0 0 0 0 1 forward_v I I I I #
coedge $-1 $515 $516 $517 $518 reversed $324 $-1 #
coedge $-1 $327 $326 $519 $520 reversed $136 $-1 #
coedge $-1 $521 $329 $327 $422 forward $341 $-1 #
edge $-1 $331 4.4880747310273694 $522 10.308582645284101 $327 $436 forward 7 unknown #
straight-curve $-1 -57.561571092867823 40.908248284134416 -4.4880747310273694 0 1 0 I I #
point $-1 -57.561571092867823 36.409050761853969 -4.4880747310273694 #
point $-1 -57.561571092867823 45.407445806414863 -4.4880747310273694 #
coedge $-1 $523 $519 $335 $427 forward $524 $-1 #
edge $-1 $428 -36.409050761853976 $445 36.409050761853976 $335 $525 forward 7 unknown #
vertex $-1 $427 $526 #
coedge $-1 $340 $430 $527 $528 reversed $341 $-1 #
coedge $-1 $429 $521 $529 $530 forward $341 $-1 #
face $-1 $250 $341 $17 $-1 $531 reversed single #
straight-curve $-1 -57.561571092867823 45.407445806414863 -2.3860576118383774 0 0 -1 I I #
coedge $-1 $527 $348 $345 $434 forward $438 $-1 #
edge $-1 $350 -57.561571092867823 $435 57.561571092867823 $345 $532 forward 7 unknown #
vertex $-1 $434 $533 #
straight-curve $-1 -57.561571092867823 36.409050761853976 0 0 0 -1 I I #
coedge $-1 $348 $534 $442 $535 forward $438 $-1 #
loop $-1 $-1 $536 $416 #
vertex $-1 $349 $537 #
straight-curve $-1 57.561571092867823 0 10.308582645284101 0 1 0 I I #
point $-1 57.561571092867823 36.409050761853976 10.308582645284101 #
coedge $-1 $538 $352 $437 $535 reversed $444 $-1 #
coedge $-1 $352 $538 $523 $539 reversed $444 $-1 #
loop $-1 $-1 $538 $512 #
vertex $-1 $353 $540 #
straight-curve $-1 57.561571092867823 -36.409050761853976 0 0 0 -1 I I #
face $-1 $541 $542 $18 $-1 $543 reversed single #
loop $-1 $-1 $544 $355 #
plane-surface $-1 0 45.407445806414863 -2.3860576118383774 0 -1 0 0 0 -1 forward_v I I I I #
coedge $-1 $545 $546 $547 $548 forward $356 $-1 #
coedge $-1 $549 $358 $550 $551 forward $254 $-1 #
coedge $-1 $358 $549 $552 $553 reversed $254 $-1 #
coedge $-1 $369 $554 $358 $454 reversed $268 $-1 #
edge $-1 $555 -4.499197522280447 $556 4.499197522280447 $453 $557 forward 7 unknown #
coedge $-1 $359 $558 $559 $560 forward $155 $-1 #
coedge $-1 $561 $360 $359 $457 reversed $268 $-1 #
edge $-1 $562 -36.409050761853976 $362 16.462001993548764 $456 $375 forward 7 unknown #
straight-curve $-1 57.561571092867823 16.462001993548764 81.331891364572897 0 0 1 I I #
point $-1 57.561571092867823 16.462001993548764 10.308582645284101 #
straight-curve $-1 57.561571092867815 10.968164427710462 5.4026456140040757 0 -1 0 I I #
point $-1 57.56157109286783 16.462001993548764 5.4026456140040722 #
coedge $-1 $552 $372 $369 $463 forward $469 $-1 #
edge $-1 $374 -10.308582645284101 $555 0.28404049264938536 $369 $563 forward 7 unknown #
plane-surface $-1 57.561571092867823 0 0 -1 0 0 0 0 1 forward_v I I I I #
coedge $-1 $558 $371 $564 $565 forward $155 $-1 #
coedge $-1 $566 $567 $371 $467 reversed $568 $-1 #
edge $-1 $470 -36.409050761853976 $569 27.93286453509474 $466 $570 forward 7 unknown #
coedge $-1 $372 $552 $566 $571 reversed $469 $-1 #
loop $-1 $-1 $552 $541 #
vertex $-1 $373 $572 #
straight-curve $-1 0 36.409050761853976 10.308582645284101 -1 0 0 I I #
point $-1 57.561571092867823 36.409050761853976 10.308582645284101 #
face $-1 $573 $574 $19 $-1 $575 reversed single #
loop $-1 $-1 $576 $376 #
plane-surface $-1 0 40.908248284134416 -0.28404049264938536 0 0 1 1 0 0 forward_v I I I I #
coedge $-1 $386 $577 $379 $479 forward $377 $-1 #
coedge $-1 $478 $379 $578 $579 reversed $275 $-1 #
coedge $-1 $379 $477 $480 $580 forward $275 $-1 #
edge $-1 $581 -49.849782239957371 $582 -41.352450194837104 $476 $583 forward 7 unknown #
coedge $-1 $482 $380 $478 $580 reversed $277 $-1 #
edge $-1 $582 5.4938375658383016 $387 16.442491289582623 $386 $584 forward 7 unknown #
coedge $-1 $381 $480 $485 $585 reversed $277 $-1 #
vertex $-1 $585 $586 #
straight-curve $-1 -42.137994158226498 27.410655717293086 62.964217478051481 0.8660253999169214 0 -0.50000000669873634 I I #
coedge $-1 $578 $383 $482 $585 forward $487 $-1 #
coedge $-1 $383 $587 $385 $490 reversed $487 $-1 #
loop $-1 $-1 $578 $588 #
straight-curve $-1 57.561571092867823 27.410655717293086 81.331891364572897 0 0 -1 I I #
coedge $-1 $589 $385 $590 $591 forward $377 $-1 #
edge $-1 $388 27.410655717293086 $592 36.409050761853976 $486 $593 forward 7 unknown #
point $-1 49.064239047747556 27.410655717293086 10.308582645284105 #
point $-1 57.561571092867823 27.410655717293086 10.308582645284101 #
point $-1 49.025481690622122 21.936328855420918 0.4295791351234719 #
loop $-1 $-1 $406 $396 #
plane-surface $-1 57.561571092867823 0 0 -1 0 0 0 0 1 forward_v I I I I #
coedge $-1 $412 $400 $594 $595 forward $397 $-1 #
coedge $-1 $406 $594 $399 $498 reversed $494 $-1 #
edge $-1 $410 -36.409050761853976 $500 36.409050761853976 $497 $596 forward 7 unknown #
coedge $-1 $400 $412 $402 $502 reversed $397 $-1 #
vertex $-1 $498 $597 #
straight-curve $-1 0 36.409050761853976 10.308582645284101 -1 0 0 I I #
edge $-1 $403 -10.308582645284101 $414 10.308582645284101 $499 $598 forward 7 unknown #
point $-1 -57.561571092867823 36.409050761853976 10.308582645284101 #
coedge $-1 $594 $406 $405 $505 reversed $494 $-1 #
edge $-1 $509 -36.409050761853976 $408 36.409050761853976 $504 $599 forward 7 unknown #
straight-curve $-1 57.561571092867823 -36.409050761853976 0 0 0 -1 I I #
point $-1 57.561571092867823 -36.409050761853976 -10.308582645284101 #
point $-1 57.561571092867823 -36.409050761853976 10.308582645284101 #
vertex $-1 $505 $600 #
straight-curve $-1 0 36.409050761853976 -10.308582645284101 1 0 0 I I #
point $-1 -57.561571092867823 36.409050761853976 -10.308582645284101 #
face $-1 $601 $444 $17 $-1 $602 reversed single #
plane-surface $-1 0 0 10.308582645284101 0 0 1 1 0 0 forward_v I I I I #
coedge $-1 $603 $604 $538 $605 reversed $417 $-1 #
coedge $-1 $529 $419 $536 $606 reversed $324 $-1 #
coedge $-1 $419 $529 $607 $608 reversed $324 $-1 #
coedge $-1 $604 $603 $419 $518 forward $417 $-1 #
edge $-1 $609 -10.308582645284101 $610 10.308582645284101 $517 $611 forward 7 unknown #
coedge $-1 $426 $612 $420 $520 forward $524 $-1 #
edge $-1 $522 -57.561571092867823 $428 57.561571092867823 $420 $613 forward 7 unknown #
coedge $-1 $430 $421 $612 $614 reversed $341 $-1 #
vertex $-1 $520 $615 #
coedge $-1 $616 $426 $443 $539 forward $524 $-1 #
loop $-1 $-1 $607 $601 #
straight-curve $-1 57.561571092867823 0 -10.308582645284101 0 -1 0 I I #
point $-1 57.561571092867823 36.409050761853976 -10.308582645284101 #
coedge $-1 $536 $433 $429 $528 forward $438 $-1 #
edge $-1 $435 -36.409050761853976 $617 27.93286453509474 $429 $618 forward 7 unknown #
coedge $-1 $516 $515 $430 $530 reversed $324 $-1 #
edge $-1 $619 -10.308582645284101 $617 10.308582645284101 $430 $620 forward 7 unknown #
plane-surface $-1 -57.561571092867823 0 0 1 0 0 0 0 -1 forward_v I I I I #
straight-curve $-1 0 36.409050761853976 10.308582645284101 -1 0 0 I I #
point $-1 -57.561571092867823 36.409050761853976 10.308582645284101 #
coedge $-1 $437 $536 $603 $621 forward $438 $-1 #
edge $-1 $622 -54.561571092867823 $439 57.561571092867823 $442 $623 forward 7 unknown #
coedge $-1 $534 $527 $515 $606 forward $438 $-1 #
point $-1 57.561571092867823 -36.409050761853976 10.308582645284101 #
coedge $-1 $443 $442 $514 $605 forward $444 $-1 #
edge $-1 $445 -57.561571092867823 $624 54.561571092867823 $443 $625 forward 7 unknown #
point $-1 57.561571092867823 -36.409050761853976 -10.308582645284101 #
face $-1 $626 $469 $18 $-1 $543 reversed single #
loop $-1 $-1 $627 $447 #
plane-surface $-1 0 36.409050761853976 0 0 -1 0 0 0 -1 forward_v I I I I #
coedge $-1 $628 $550 $554 $629 forward $448 $-1 #
coedge $-1 $630 $450 $627 $631 reversed $356 $-1 #
coedge $-1 $450 $630 $628 $632 forward $356 $-1 #
coedge $-1 $554 $633 $450 $548 reversed $268 $-1 #
edge $-1 $634 -4.499197522280447 $635 4.499197522280447 $547 $636 forward 7 unknown #
coedge $-1 $452 $451 $637 $638 forward $254 $-1 #
coedge $-1 $544 $639 $451 $551 reversed $448 $-1 #
edge $-1 $556 -57.561571092867823 $640 57.561571092867823 $550 $641 forward 7 unknown #
coedge $-1 $468 $462 $452 $553 forward $469 $-1 #
edge $-1 $555 -57.561571092867823 $642 57.561571092867823 $552 $643 forward 7 unknown #
coedge $-1 $453 $547 $544 $629 reversed $268 $-1 #
vertex $-1 $463 $644 #
vertex $-1 $454 $645 #
straight-curve $-1 57.561571092867823 40.908248284134416 -0.28404049264938536 0 1 0 I I #
coedge $-1 $455 $465 $646 $647 forward $155 $-1 #
coedge $-1 $648 $649 $455 $560 reversed $650 $-1 #
edge $-1 $651 -54.561571092867823 $562 57.561571092867823 $559 $652 forward 7 unknown #
coedge $-1 $653 $456 $649 $654 forward $268 $-1 #
vertex $-1 $457 $655 #
straight-curve $-1 57.561571092867823 36.409050761853976 0 0 0 -1 I I #
coedge $-1 $656 $657 $465 $565 reversed $658 $-1 #
edge $-1 $569 -29.530785546433911 $659 -26.530785546433911 $465 $660 forward 7 unknown #
coedge $-1 $637 $466 $468 $571 forward $568 $-1 #
coedge $-1 $466 $661 $656 $662 forward $568 $-1 #
loop $-1 $-1 $567 $663 #
vertex $-1 $662 $664 #
straight-curve $-1 -57.561571092867823 0 10.308582645284101 0 -1 0 I I #
edge $-1 $470 -10.308582645284101 $642 0.28404049264938536 $468 $665 forward 7 unknown #
point $-1 -57.561571092867823 36.409050761853976 10.308582645284101 #
face $-1 $666 $667 $19 $-1 $668 reversed single #
loop $-1 $-1 $669 $473 #
plane-surface $-1 0 40.908248284134416 -4.4880747310273694 0 0 1 1 0 0 forward_v I I I I #
coedge $-1 $670 $671 $672 $673 forward $474 $-1 #
coedge $-1 $476 $674 $675 $676 forward $377 $-1 #
coedge $-1 $675 $485 $477 $579 forward $487 $-1 #
edge $-1 $677 -75.929245750568825 $581 -71.023308719288792 $578 $678 forward 7 unknown #
edge $-1 $677 -115.12314218573567 $582 -105.31126825462991 $478 $679 forward 7 unknown #
vertex $-1 $579 $680 #
vertex $-1 $481 $681 #
straight-curve $-1 7.7117888529104519 16.462001993548764 10.308582645284105 -1 0 0 I I #
straight-curve $-1 49.064239047747563 10.968164427710462 10.308582645284105 0 1 0 I I #
edge $-1 $483 -16.442491289582623 $677 -5.4938375658383016 $485 $682 forward 7 unknown #
point $-1 57.56157109286783 27.410655717293086 5.4026456140040722 #
coedge $-1 $486 $672 $683 $684 reversed $487 $-1 #
face $-1 $-1 $487 $19 $-1 $685 reversed single #
coedge $-1 $686 $489 $687 $688 forward $377 $-1 #
coedge $-1 $683 $689 $489 $591 reversed $690 $-1 #
edge $-1 $592 -57.561571092867823 $691 57.561571092867823 $590 $692 forward 7 unknown #
vertex $-1 $490 $693 #
straight-curve $-1 57.561571092867823 0 10.308582645284101 0 1 0 I I #
coedge $-1 $497 $504 $496 $595 reversed $494 $-1 #
edge $-1 $500 -10.308582645284101 $509 10.308582645284101 $594 $694 forward 7 unknown #
straight-curve $-1 57.561571092867823 0 10.308582645284101 0 1 0 I I #
point $-1 57.561571092867823 36.409050761853976 10.308582645284101 #
straight-curve $-1 -57.561571092867823 36.409050761853976 0 0 0 -1 I I #
straight-curve $-1 57.561571092867823 0 -10.308582645284101 0 -1 0 I I #
point $-1 57.561571092867823 36.409050761853976 -10.308582645284101 #
face $-1 $431 $524 $17 $-1 $695 reversed single #
plane-surface $-1 0 -36.409050761853976 0 0 1 0 0 0 1 forward_v I I I I #
coedge $-1 $517 $514 $534 $621 reversed $417 $-1 #
coedge $-1 $514 $517 $616 $696 reversed $417 $-1 #
edge $-1 $622 -10.308582645284101 $624 10.308582645284101 $538 $697 forward 7 unknown #
edge $-1 $617 -29.530785546433911 $609 -26.530785546433911 $536 $698 forward 7 unknown #
coedge $-1 $612 $616 $516 $608 forward $524 $-1 #
edge $-1 $610 26.530785546433911 $619 29.530785546433911 $607 $699 forward 7 unknown #
vertex $-1 $606 $700 #
vertex $-1 $608 $701 #
straight-curve $-1 -54.561571092867823 -27.93286453509474 0 0 0 -1 I I #
coedge $-1 $519 $607 $521 $614 forward $524 $-1 #
straight-curve $-1 0 36.409050761853976 -10.308582645284101 1 0 0 I I #
edge $-1 $619 -27.93286453509474 $522 36.409050761853976 $521 $702 forward 7 unknown #
point $-1 -57.561571092867823 36.409050761853976 -10.308582645284101 #
coedge $-1 $607 $523 $604 $696 forward $524 $-1 #
vertex $-1 $530 $703 #
straight-curve $-1 -57.561571092867823 0 10.308582645284101 0 -1 0 I I #
vertex $-1 $614 $704 #
straight-curve $-1 -57.561571092867823 -27.93286453509474 0 0 0 1 I I #
edge $-1 $609 11.847385710857562 $622 20.323571937616798 $534 $705 forward 7 unknown #
vertex $-1 $535 $706 #
straight-curve $-1 0 -36.409050761853976 10.308582645284101 1 0 0 I I #
vertex $-1 $605 $707 #
straight-curve $-1 0 -36.409050761853976 -10.308582645284101 -1 0 0 I I #
face $-1 $708 $658 $18 $-1 $709 forward single #
coedge $-1 $710 $711 $545 $631 forward $542 $-1 #
coedge $-1 $639 $544 $546 $632 reversed $448 $-1 #
edge $-1 $556 -2.102017119188992 $634 2.102017119188992 $554 $712 forward 7 unknown #
coedge $-1 $546 $545 $713 $714 forward $356 $-1 #
edge $-1 $715 -57.561571092867823 $635 57.561571092867823 $627 $716 forward 7 unknown #
edge $-1 $717 -57.561571092867823 $634 57.561571092867823 $628 $718 forward 7 unknown #
coedge $-1 $547 $653 $710 $719 reversed $268 $-1 #
vertex $-1 $548 $720 #
vertex $-1 $719 $721 #
straight-curve $-1 57.561571092867823 40.908248284134416 -4.4880747310273694 0 -1 0 I I #
coedge $-1 $722 $566 $549 $638 reversed $568 $-1 #
edge $-1 $640 -4.499197522280447 $642 4.499197522280447 $637 $723 forward 7 unknown #
coedge $-1 $550 $628 $722 $724 reversed $448 $-1 #
vertex $-1 $551 $725 #
straight-curve $-1 0 45.407445806414863 -0.28404049264938536 -1 0 0 I I #
vertex $-1 $638 $726 #
straight-curve $-1 0 36.409050761853976 -0.28404049264938536 -1 0 0 I I #
point $-1 57.561571092867823 36.409050761853969 -0.28404049264938536 #
point $-1 57.561571092867823 45.407445806414863 -0.28404049264938536 #
coedge $-1 $727 $728 $558 $647 reversed $729 $-1 #
edge $-1 $659 11.847385710857562 $651 20.323571937616798 $558 $730 forward 7 unknown #
coedge $-1 $731 $559 $728 $732 forward $650 $-1 #
coedge $-1 $559 $731 $561 $654 reversed $650 $-1 #
loop $-1 $-1 $648 $733 #
vertex $-1 $560 $734 #
straight-curve $-1 0 -36.409050761853976 10.308582645284101 1 0 0 I I #
coedge $-1 $633 $561 $735 $736 reversed $268 $-1 #
edge $-1 $562 -10.308582645284101 $737 10.308582645284101 $561 $738 forward 7 unknown #
point $-1 57.561571092867823 -36.409050761853976 10.308582645284101 #
coedge $-1 $739 $564 $567 $662 reversed $658 $-1 #
coedge $-1 $564 $739 $727 $740 reversed $658 $-1 #
loop $-1 $-1 $657 $626 #
vertex $-1 $565 $741 #
straight-curve $-1 -28.030785546433911 -27.93286453509474 10.308582645284101 1 0 0 I I #
coedge $-1 $567 $742 $743 $744 reversed $568 $-1 #
edge $-1 $745 -10.308582645284101 $569 10.308582645284101 $567 $746 forward 7 unknown #
face $-1 $370 $568 $18 $-1 $747 reversed single #
point $-1 -57.561571092867823 -27.93286453509474 10.308582645284101 #
straight-curve $-1 -57.561571092867823 36.409050761853976 0 0 0 -1 I I #
face $-1 $748 $749 $19 $-1 $750 reversed single #
loop $-1 $-1 $751 $573 #
plane-surface $-1 0 45.407445806414863 -2.3860576118383774 0 -1 0 0 0 -1 forward_v I I I I #
coedge $-1 $752 $753 $754 $755 forward $574 $-1 #
coedge $-1 $756 $576 $757 $758 forward $474 $-1 #
coedge $-1 $576 $756 $759 $760 reversed $474 $-1 #
coedge $-1 $587 $761 $576 $673 reversed $487 $-1 #
edge $-1 $762 -4.499197522280447 $763 4.499197522280447 $672 $764 forward 7 unknown #
coedge $-1 $577 $765 $766 $767 forward $377 $-1 #
coedge $-1 $768 $578 $577 $676 reversed $487 $-1 #
edge $-1 $769 -36.409050761853976 $581 16.462001993548764 $675 $593 forward 7 unknown #
vertex $-1 $585 $770 #
straight-curve $-1 57.561571092867823 16.462001993548764 81.331891364572897 0 0 1 I I #
straight-curve $-1 -42.137994158226498 16.462001993548764 62.964217478051481 -0.8660253999169214 0 0.50000000669873634 I I #
point $-1 57.561571092867823 16.462001993548764 10.308582645284101 #
point $-1 49.064239047747556 16.462001993548764 10.308582645284105 #
straight-curve $-1 57.561571092867815 10.968164427710462 5.4026456140040757 0 -1 0 I I #
coedge $-1 $759 $590 $587 $684 forward $690 $-1 #
edge $-1 $592 -10.308582645284101 $762 0.28404049264938536 $587 $771 forward 7 unknown #
plane-surface $-1 57.561571092867823 0 0 -1 0 0 0 0 1 forward_v I I I I #
coedge $-1 $765 $589 $772 $773 forward $377 $-1 #
coedge $-1 $774 $775 $589 $688 reversed $776 $-1 #
edge $-1 $691 -36.409050761853976 $777 27.93286453509474 $687 $778 forward 7 unknown #
coedge $-1 $590 $759 $774 $779 reversed $690 $-1 #
loop $-1 $-1 $759 $748 #
vertex $-1 $591 $780 #
straight-curve $-1 0 36.409050761853976 10.308582645284101 -1 0 0 I I #
point $-1 57.561571092867823 36.409050761853976 10.308582645284101 #
straight-curve $-1 57.561571092867823 36.409050761853976 0 0 0 -1 I I #
plane-surface $-1 0 0 -10.308582645284101 0 0 1 1 0 0 forward_v I I I I #
edge $-1 $624 -20.323571937616798 $610 -11.847385710857562 $616 $781 forward 7 unknown #
straight-curve $-1 -54.561571092867823 -36.409050761853976 0 0 0 -1 I I #
straight-curve $-1 -28.030785546433911 -27.93286453509474 10.308582645284101 1 0 0 I I #
straight-curve $-1 -28.030785546433911 -27.93286453509474 -10.308582645284101 -1 0 0 I I #
point $-1 -54.561571092867823 -27.93286453509474 10.308582645284101 #
point $-1 -54.561571092867823 -27.93286453509474 -10.308582645284101 #
straight-curve $-1 -57.561571092867823 0 -10.308582645284101 0 1 0 I I #
point $-1 -57.561571092867823 -27.93286453509474 10.308582645284101 #
point $-1 -57.561571092867823 -27.93286453509474 -10.308582645284101 #
straight-curve $-1 -54.561571092867823 -16.085478824237178 10.308582645284101 0 -1 0 I I #
point $-1 -54.561571092867823 -36.409050761853976 10.308582645284101 #
point $-1 -54.561571092867823 -36.409050761853976 -10.308582645284101 #
face $-1 $733 $729 $18 $-1 $782 forward single #
plane-surface $-1 -56.061571092867823 -27.93286453509474 0 0 -1 0 0 0 -1 forward_v I I I I #
coedge $-1 $783 $627 $633 $719 forward $542 $-1 #
coedge $-1 $627 $783 $742 $784 reversed $542 $-1 #
straight-curve $-1 57.561571092867823 45.407445806414863 -2.3860576118383774 0 0 -1 I I #
coedge $-1 $742 $722 $630 $714 reversed $568 $-1 #
edge $-1 $715 -4.499197522280447 $717 4.499197522280447 $713 $785 forward 7 unknown #
vertex $-1 $784 $786 #
straight-curve $-1 0 36.409050761853976 -4.4880747310273694 1 0 0 I I #
vertex $-1 $632 $787 #
straight-curve $-1 0 45.407445806414863 -4.4880747310273694 1 0 0 I I #
edge $-1 $635 4.4880747310273694 $788 10.308582645284101 $633 $563 forward 7 unknown #
point $-1 57.561571092867823 45.407445806414863 -4.4880747310273694 #
point $-1 57.561571092867823 36.409050761853969 -4.4880747310273694 #
coedge $-1 $713 $637 $639 $724 forward $568 $-1 #
straight-curve $-1 -57.561571092867823 40.908248284134416 -0.28404049264938536 0 -1 0 I I #
edge $-1 $640 -2.102017119188992 $717 2.102017119188992 $639 $789 forward 7 unknown #
point $-1 -57.561571092867823 45.407445806414863 -0.28404049264938536 #
point $-1 -57.561571092867823 36.409050761853969 -0.28404049264938536 #
coedge $-1 $790 $646 $657 $740 forward $729 $-1 #
coedge $-1 $646 $790 $648 $732 reversed $729 $-1 #
loop $-1 $-1 $728 $708 #
straight-curve $-1 -54.561571092867823 -16.085478824237178 10.308582645284101 0 -1 0 I I #
coedge $-1 $649 $648 $791 $792 reversed $650 $-1 #
edge $-1 $651 -10.308582645284101 $793 10.308582645284101 $648 $794 forward 7 unknown #
face $-1 $795 $650 $18 $-1 $796 reversed single #
point $-1 -54.561571092867823 -36.409050761853976 10.308582645284101 #
coedge $-1 $791 $797 $653 $736 forward $798 $-1 #
edge $-1 $788 -36.409050761853976 $737 36.409050761853976 $653 $799 forward 7 unknown #
vertex $-1 $654 $800 #
straight-curve $-1 57.561571092867823 -36.409050761853976 0 0 0 -1 I I #
coedge $-1 $657 $656 $801 $802 reversed $658 $-1 #
edge $-1 $659 -10.308582645284101 $803 10.308582645284101 $727 $804 forward 7 unknown #
point $-1 -54.561571092867823 -27.93286453509474 10.308582645284101 #
coedge $-1 $661 $713 $711 $784 forward $568 $-1 #
coedge $-1 $797 $801 $661 $744 forward $798 $-1 #
edge $-1 $745 -27.93286453509474 $805 36.409050761853976 $661 $806 forward 7 unknown #
vertex $-1 $744 $807 #
straight-curve $-1 -57.561571092867823 -27.93286453509474 0 0 0 1 I I #
plane-surface $-1 -57.561571092867823 0 0 1 0 0 0 0 -1 forward_v I I I I #
face $-1 $808 $690 $19 $-1 $750 reversed single #
loop $-1 $-1 $809 $666 #
plane-surface $-1 0 36.409050761853976 0 0 -1 0 0 0 -1 forward_v I I I I #
coedge $-1 $810 $757 $761 $811 forward $667 $-1 #
coedge $-1 $812 $669 $809 $813 reversed $574 $-1 #
coedge $-1 $669 $812 $810 $814 forward $574 $-1 #
coedge $-1 $761 $815 $669 $755 reversed $487 $-1 #
edge $-1 $816 -4.499197522280447 $817 4.499197522280447 $754 $818 forward 7 unknown #
coedge $-1 $671 $670 $819 $820 forward $474 $-1 #
coedge $-1 $751 $821 $670 $758 reversed $667 $-1 #
edge $-1 $763 -57.561571092867823 $822 57.561571092867823 $757 $823 forward 7 unknown #
coedge $-1 $689 $683 $671 $760 forward $690 $-1 #
edge $-1 $762 -57.561571092867823 $824 57.561571092867823 $759 $825 forward 7 unknown #
coedge $-1 $672 $754 $751 $811 reversed $487 $-1 #
vertex $-1 $684 $826 #
vertex $-1 $673 $827 #
straight-curve $-1 57.561571092867823 40.908248284134416 -0.28404049264938536 0 1 0 I I #
coedge $-1 $674 $686 $828 $829 forward $377 $-1 #
coedge $-1 $830 $831 $674 $767 reversed $832 $-1 #
edge $-1 $833 -54.561571092867823 $769 57.561571092867823 $766 $834 forward 7 unknown #
coedge $-1 $835 $675 $831 $836 forward $487 $-1 #
vertex $-1 $676 $837 #
point $-1 57.56157109286783 16.462001993548764 5.4026456140040722 #
straight-curve $-1 57.561571092867823 36.409050761853976 0 0 0 -1 I I #
coedge $-1 $838 $839 $686 $773 reversed $840 $-1 #
edge $-1 $777 -29.530785546433911 $841 -26.530785546433911 $686 $842 forward 7 unknown #
coedge $-1 $819 $687 $689 $779 forward $776 $-1 #
coedge $-1 $687 $843 $838 $844 forward $776 $-1 #
loop $-1 $-1 $775 $845 #
vertex $-1 $844 $846 #
straight-curve $-1 -57.561571092867823 0 10.308582645284101 0 -1 0 I I #
edge $-1 $691 -10.308582645284101 $824 0.28404049264938536 $689 $847 forward 7 unknown #
point $-1 -57.561571092867823 36.409050761853976 10.308582645284101 #
straight-curve $-1 -54.561571092867823 -16.085478824237178 -10.308582645284101 0 1 0 I I #
plane-surface $-1 -54.561571092867823 -32.170957648474356 0 -1 0 0 0 0 1 forward_v I I I I #
coedge $-1 $711 $710 $797 $848 reversed $542 $-1 #
edge $-1 $715 4.4880747310273694 $805 10.308582645284101 $711 $665 forward 7 unknown #
straight-curve $-1 -57.561571092867823 40.908248284134416 -4.4880747310273694 0 1 0 I I #
point $-1 -57.561571092867823 36.409050761853969 -4.4880747310273694 #
point $-1 -57.561571092867823 45.407445806414863 -4.4880747310273694 #
vertex $-1 $736 $849 #
straight-curve $-1 -57.561571092867823 45.407445806414863 -2.3860576118383774 0 0 -1 I I #
coedge $-1 $728 $727 $850 $851 reversed $729 $-1 #
coedge $-1 $850 $735 $731 $792 forward $798 $-1 #
edge $-1 $737 -57.561571092867823 $793 54.561571092867823 $731 $852 forward 7 unknown #
vertex $-1 $732 $853 #
straight-curve $-1 -54.561571092867823 -36.409050761853976 0 0 0 -1 I I #
face $-1 $663 $798 $18 $-1 $854 reversed single #
plane-surface $-1 0 -36.409050761853976 0 0 1 0 0 0 1 forward_v I I I I #
coedge $-1 $735 $743 $783 $848 forward $798 $-1 #
loop $-1 $-1 $801 $795 #
straight-curve $-1 57.561571092867823 0 -10.308582645284101 0 -1 0 I I #
point $-1 57.561571092867823 -36.409050761853976 -10.308582645284101 #
coedge $-1 $743 $850 $739 $802 forward $798 $-1 #
edge $-1 $803 26.530785546433911 $745 29.530785546433911 $801 $855 forward 7 unknown #
vertex $-1 $802 $856 #
straight-curve $-1 -54.561571092867823 -27.93286453509474 0 0 0 -1 I I #
vertex $-1 $848 $857 #
straight-curve $-1 -57.561571092867823 0 -10.308582645284101 0 1 0 I I #
point $-1 -57.561571092867823 -27.93286453509474 -10.308582645284101 #
face $-1 $858 $840 $19 $-1 $859 forward single #
coedge $-1 $860 $861 $752 $813 forward $749 $-1 #
coedge $-1 $821 $751 $753 $814 reversed $667 $-1 #
edge $-1 $763 -2.102017119188992 $816 2.102017119188992 $761 $862 forward 7 unknown #
coedge $-1 $753 $752 $863 $864 forward $574 $-1 #
edge $-1 $865 -57.561571092867823 $817 57.561571092867823 $809 $866 forward 7 unknown #
edge $-1 $867 -57.561571092867823 $816 57.561571092867823 $810 $868 forward 7 unknown #
coedge $-1 $754 $835 $860 $869 reversed $487 $-1 #
vertex $-1 $755 $870 #
vertex $-1 $869 $871 #
straight-curve $-1 57.561571092867823 40.908248284134416 -4.4880747310273694 0 -1 0 I I #
coedge $-1 $872 $774 $756 $820 reversed $776 $-1 #
edge $-1 $822 -4.499197522280447 $824 4.499197522280447 $819 $873 forward 7 unknown #
coedge $-1 $757 $810 $872 $874 reversed $667 $-1 #
vertex $-1 $758 $875 #
straight-curve $-1 0 45.407445806414863 -0.28404049264938536 -1 0 0 I I #
vertex $-1 $820 $876 #
straight-curve $-1 0 36.409050761853976 -0.28404049264938536 -1 0 0 I I #
point $-1 57.561571092867823 36.409050761853969 -0.28404049264938536 #
point $-1 57.561571092867823 45.407445806414863 -0.28404049264938536 #
coedge $-1 $877 $878 $765 $829 reversed $879 $-1 #
edge $-1 $841 11.847385710857562 $833 20.323571937616798 $765 $880 forward 7 unknown #
coedge $-1 $881 $766 $878 $882 forward $832 $-1 #
coedge $-1 $766 $881 $768 $836 reversed $832 $-1 #
loop $-1 $-1 $830 $883 #
vertex $-1 $767 $884 #
straight-curve $-1 0 -36.409050761853976 10.308582645284101 1 0 0 I I #
coedge $-1 $815 $768 $885 $886 reversed $487 $-1 #
edge $-1 $769 -10.308582645284101 $887 10.308582645284101 $768 $888 forward 7 unknown #
point $-1 57.561571092867823 -36.409050761853976 10.308582645284101 #
coedge $-1 $889 $772 $775 $844 reversed $840 $-1 #
coedge $-1 $772 $889 $877 $890 reversed $840 $-1 #
loop $-1 $-1 $839 $808 #
vertex $-1 $773 $891 #
straight-curve $-1 -28.030785546433911 -27.93286453509474 10.308582645284101 1 0 0 I I #
coedge $-1 $775 $892 $893 $894 reversed $776 $-1 #
edge $-1 $895 -10.308582645284101 $777 10.308582645284101 $775 $896 forward 7 unknown #
face $-1 $588 $776 $19 $-1 $897 reversed single #
point $-1 -57.561571092867823 -27.93286453509474 10.308582645284101 #
straight-curve $-1 -57.561571092867823 36.409050761853976 0 0 0 -1 I I #
edge $-1 $805 -57.561571092867823 $788 57.561571092867823 $783 $898 forward 7 unknown #
point $-1 57.561571092867823 36.409050761853976 -10.308582645284101 #
coedge $-1 $801 $791 $790 $851 forward $798 $-1 #
edge $-1 $793 -20.323571937616798 $803 -11.847385710857562 $850 $899 forward 7 unknown #
straight-curve $-1 0 -36.409050761853976 -10.308582645284101 -1 0 0 I I #
point $-1 -54.561571092867823 -36.409050761853976 -10.308582645284101 #
plane-surface $-1 0 0 -10.308582645284101 0 0 1 1 0 0 forward_v I I I I #
straight-curve $-1 -28.030785546433911 -27.93286453509474 -10.308582645284101 -1 0 0 I I #
point $-1 -54.561571092867823 -27.93286453509474 -10.308582645284101 #
point $-1 -57.561571092867823 36.409050761853976 -10.308582645284101 #
face $-1 $883 $879 $19 $-1 $900 forward single #
plane-surface $-1 -56.061571092867823 -27.93286453509474 0 0 -1 0 0 0 -1 forward_v I I I I #
coedge $-1 $901 $809 $815 $869 forward $749 $-1 #
coedge $-1 $809 $901 $892 $902 reversed $749 $-1 #
straight-curve $-1 57.561571092867823 45.407445806414863 -2.3860576118383774 0 0 -1 I I #
coedge $-1 $892 $872 $812 $864 reversed $776 $-1 #
edge $-1 $865 -4.499197522280447 $867 4.499197522280447 $863 $903 forward 7 unknown #
vertex $-1 $902 $904 #
straight-curve $-1 0 36.409050761853976 -4.4880747310273694 1 0 0 I I #
vertex $-1 $814 $905 #
straight-curve $-1 0 45.407445806414863 -4.4880747310273694 1 0 0 I I #
edge $-1 $817 4.4880747310273694 $906 10.308582645284101 $815 $771 forward 7 unknown #
point $-1 57.561571092867823 45.407445806414863 -4.4880747310273694 #
point $-1 57.561571092867823 36.409050761853969 -4.4880747310273694 #
coedge $-1 $863 $819 $821 $874 forward $776 $-1 #
straight-curve $-1 -57.561571092867823 40.908248284134416 -0.28404049264938536 0 -1 0 I I #
edge $-1 $822 -2.102017119188992 $867 2.102017119188992 $821 $907 forward 7 unknown #
point $-1 -57.561571092867823 45.407445806414863 -0.28404049264938536 #
point $-1 -57.561571092867823 36.409050761853969 -0.28404049264938536 #
coedge $-1 $908 $828 $839 $890 forward $879 $-1 #
coedge $-1 $828 $908 $830 $882 reversed $879 $-1 #
loop $-1 $-1 $878 $858 #
straight-curve $-1 -54.561571092867823 -16.085478824237178 10.308582645284101 0 -1 0 I I #
coedge $-1 $831 $830 $909 $910 reversed $832 $-1 #
edge $-1 $833 -10.308582645284101 $911 10.308582645284101 $830 $912 forward 7 unknown #
face $-1 $913 $832 $19 $-1 $914 reversed single #
point $-1 -54.561571092867823 -36.409050761853976 10.308582645284101 #
coedge $-1 $909 $915 $835 $886 forward $916 $-1 #
edge $-1 $906 -36.409050761853976 $887 36.409050761853976 $835 $917 forward 7 unknown #
vertex $-1 $836 $918 #
straight-curve $-1 57.561571092867823 -36.409050761853976 0 0 0 -1 I I #
coedge $-1 $839 $838 $919 $920 reversed $840 $-1 #
edge $-1 $841 -10.308582645284101 $921 10.308582645284101 $877 $922 forward 7 unknown #
point $-1 -54.561571092867823 -27.93286453509474 10.308582645284101 #
coedge $-1 $843 $863 $861 $902 forward $776 $-1 #
coedge $-1 $915 $919 $843 $894 forward $916 $-1 #
edge $-1 $895 -27.93286453509474 $923 36.409050761853976 $843 $924 forward 7 unknown #
vertex $-1 $894 $925 #
straight-curve $-1 -57.561571092867823 -27.93286453509474 0 0 0 1 I I #
plane-surface $-1 -57.561571092867823 0 0 1 0 0 0 0 -1 forward_v I I I I #
straight-curve $-1 0 36.409050761853976 -10.308582645284101 1 0 0 I I #
straight-curve $-1 -54.561571092867823 -16.085478824237178 -10.308582645284101 0 1 0 I I #
plane-surface $-1 -54.561571092867823 -32.170957648474356 0 -1 0 0 0 0 1 forward_v I I I I #
coedge $-1 $861 $860 $915 $926 reversed $749 $-1 #
edge $-1 $865 4.4880747310273694 $923 10.308582645284101 $861 $847 forward 7 unknown #
straight-curve $-1 -57.561571092867823 40.908248284134416 -4.4880747310273694 0 1 0 I I #
point $-1 -57.561571092867823 36.409050761853969 -4.4880747310273694 #
point $-1 -57.561571092867823 45.407445806414863 -4.4880747310273694 #
vertex $-1 $886 $927 #
straight-curve $-1 -57.561571092867823 45.407445806414863 -2.3860576118383774 0 0 -1 I I #
coedge $-1 $878 $877 $928 $929 reversed $879 $-1 #
coedge $-1 $928 $885 $881 $910 forward $916 $-1 #
edge $-1 $887 -57.561571092867823 $911 54.561571092867823 $881 $930 forward 7 unknown #
vertex $-1 $882 $931 #
straight-curve $-1 -54.561571092867823 -36.409050761853976 0 0 0 -1 I I #
face $-1 $845 $916 $19 $-1 $932 reversed single #
plane-surface $-1 0 -36.409050761853976 0 0 1 0 0 0 1 forward_v I I I I #
coedge $-1 $885 $893 $901 $926 forward $916 $-1 #
loop $-1 $-1 $919 $913 #
straight-curve $-1 57.561571092867823 0 -10.308582645284101 0 -1 0 I I #
point $-1 57.561571092867823 -36.409050761853976 -10.308582645284101 #
coedge $-1 $893 $928 $889 $920 forward $916 $-1 #
edge $-1 $921 26.530785546433911 $895 29.530785546433911 $919 $933 forward 7 unknown #
vertex $-1 $920 $934 #
straight-curve $-1 -54.561571092867823 -27.93286453509474 0 0 0 -1 I I #
vertex $-1 $926 $935 #
straight-curve $-1 -57.561571092867823 0 -10.308582645284101 0 1 0 I I #
point $-1 -57.561571092867823 -27.93286453509474 -10.308582645284101 #
edge $-1 $923 -57.561571092867823 $906 57.561571092867823 $901 $936 forward 7 unknown #
point $-1 57.561571092867823 36.409050761853976 -10.308582645284101 #
coedge $-1 $919 $909 $908 $929 forward $916 $-1 #
edge $-1 $911 -20.323571937616798 $921 -11.847385710857562 $928 $937 forward 7 unknown #
straight-curve $-1 0 -36.409050761853976 -10.308582645284101 -1 0 0 I I #
point $-1 -54.561571092867823 -36.409050761853976 -10.308582645284101 #
plane-surface $-1 0 0 -10.308582645284101 0 0 1 1 0 0 forward_v I I I I #
straight-curve $-1 -28.030785546433911 -27.93286453509474 -10.308582645284101 -1 0 0 I I #
point $-1 -54.561571092867823 -27.93286453509474 -10.308582645284101 #
point $-1 -57.561571092867823 36.409050761853976 -10.308582645284101 #
straight-curve $-1 0 36.409050761853976 -10.308582645284101 1 0 0 I I #
straight-curve $-1 -54.561571092867823 -16.085478824237178 -10.308582645284101 0 1 0 I I #
End-of-ACIS-data 