500 0 10 0           
7 Unknown 11 ACIS 5.0 NT 24 Thu Mar 25 16:30:08 1999 
-1 9.9999999999999995e-007 1e-010 
body $-1 $10 $-1 $11 #
body $-1 $12 $-1 $13 #
body $-1 $14 $-1 $15 #
body $-1 $16 $-1 $17 #
body $-1 $18 $-1 $19 #
body $-1 $20 $-1 $21 #
body $-1 $22 $-1 $23 #
body $-1 $24 $-1 $25 #
body $-1 $26 $-1 $27 #
body $-1 $28 $-1 $29 #
lump $-1 $-1 $30 $0 #
transform $-1 1 0 0 0 1 0 0 0 1 76.900540177617728 31.475548101630849 15.043557961059003 1 rotate no_reflect no_shear #
lump $-1 $-1 $31 $1 #
transform $-1 1 0 0 0 1 0 0 0 1 76.900540177617728 31.475548101630849 15.043557961059003 1 rotate no_reflect no_shear #
lump $-1 $-1 $32 $2 #
transform $-1 1 0 0 0 1 0 0 0 1 76.900540177617728 31.475548101630849 15.043557961059003 1 rotate no_reflect no_shear #
lump $-1 $-1 $33 $3 #
transform $-1 1 0 0 0 1 0 0 0 1 76.900540177617728 31.475548101630849 15.043557961059003 1 rotate no_reflect no_shear #
lump $-1 $-1 $34 $4 #
transform $-1 1 0 0 0 1 0 0 0 1 76.900540177617728 31.475548101630849 15.043557961059003 1 rotate no_reflect no_shear #
lump $-1 $-1 $35 $5 #
transform $-1 1 0 0 0 1 0 0 0 1 76.900540177617728 31.475548101630849 15.043557961059003 1 rotate no_reflect no_shear #
lump $-1 $-1 $36 $6 #
transform $-1 1 0 0 0 1 0 0 0 1 76.900540177617728 31.475548101630849 15.043557961059003 1 rotate no_reflect no_shear #
lump $-1 $-1 $37 $7 #
transform $-1 1 0 0 0 1 0 0 0 1 76.900540177617728 31.475548101630849 15.043557961059003 1 rotate no_reflect no_shear #
lump $-1 $-1 $38 $8 #
transform $-1 1 0 0 0 1 0 0 0 1 76.900540177617728 31.475548101630849 15.043557961059003 1 rotate no_reflect no_shear #
lump $-1 $-1 $39 $9 #
transform $-1 1 0 0 0 1 0 0 0 1 76.900540177617728 31.475548101630849 15.043557961059003 1 rotate no_reflect no_shear #
shell $-1 $-1 $-1 $40 $-1 $10 #
shell $-1 $-1 $-1 $41 $-1 $12 #
shell $-1 $-1 $-1 $42 $-1 $14 #
shell $-1 $-1 $-1 $43 $-1 $16 #
shell $-1 $-1 $-1 $44 $-1 $18 #
shell $-1 $-1 $-1 $45 $-1 $20 #
shell $-1 $-1 $-1 $46 $-1 $22 #
shell $-1 $-1 $-1 $47 $-1 $24 #
shell $-1 $-1 $-1 $48 $-1 $26 #
shell $-1 $-1 $-1 $49 $-1 $28 #
face $-1 $50 $51 $30 $-1 $52 forward single #
face $-1 $53 $54 $31 $-1 $55 reversed single #
face $-1 $56 $57 $32 $-1 $58 reversed single #
face $-1 $59 $60 $33 $-1 $61 forward single #
face $-1 $62 $63 $34 $-1 $64 reversed single #
face $-1 $65 $66 $35 $-1 $67 forward single #
face $-1 $68 $69 $36 $-1 $70 reversed single #
face $-1 $71 $72 $37 $-1 $73 forward single #
face $-1 $74 $75 $38 $-1 $76 forward single #
face $-1 $77 $78 $39 $-1 $79 forward single #
face $-1 $80 $81 $30 $-1 $82 reversed single #
loop $-1 $-1 $83 $40 #
plane-surface $-1 0 0 15.043557961059003 0 0 1 1 0 0 forward_v I I I I #
face $-1 $84 $85 $31 $-1 $86 reversed single #
loop $-1 $-1 $87 $41 #
plane-surface $-1 -70.034926055302435 -18.25557265561936 0 0 1 0 0 0 1 forward_v I I I I #
face $-1 $88 $89 $32 $-1 $90 reversed single #
loop $-1 $-1 $91 $42 #
plane-surface $-1 -63.169311932987128 93.031528733302892 155.76548217273478 1 0 0 0 -0.69465837861970381 -0.71933979245794832 forward_v I I I I #
face $-1 $92 $93 $33 $-1 $94 forward single #
loop $-1 $95 $96 $43 #
cone-surface $-1 -53.489094584716995 23.288424087242635 7.0588877465772883 0 -0.69465837861970381 -0.71933979245794832 1.5 0 0 1 I I 0 1 1.5 forward I I I I #
face $-1 $97 $98 $34 $-1 $99 reversed single #
loop $-1 $-1 $100 $44 #
plane-surface $-1 6.8656141223153071 93.031528733302892 155.76548217273478 1 0 0 0 -0.69465837861970381 -0.71933979245794832 forward_v I I I I #
face $-1 $101 $102 $35 $-1 $103 forward single #
loop $-1 $104 $105 $45 #
cone-surface $-1 16.545831470585441 23.288424087242635 7.0588877465772883 0 -0.69465837861970381 -0.71933979245794832 1.5 0 0 1 I I 0 1 1.5 forward I I I I #
face $-1 $106 $107 $36 $-1 $108 reversed single #
loop $-1 $-1 $109 $46 #
plane-surface $-1 31.052910577609822 -154.30655362180971 93.142000533693164 -1 0 0 0 -0.79863551827123203 0.60181501223851219 forward_v I I I I #
face $-1 $110 $111 $37 $-1 $112 forward single #
loop $-1 $113 $114 $47 #
cone-surface $-1 2.8004106060100611 -24.80105394987212 6.8891826611274602 0 0.79863551827123203 -0.60181501223851219 2.5 0 0 1 I I 0 1 2.5 forward I I I I #
face $-1 $115 $116 $38 $-1 $117 forward single #
loop $-1 $118 $119 $48 #
cone-surface $-1 13.39509809535997 -24.80105394987212 6.8891826611274602 0 0.79863551827123203 -0.60181501223851219 2.5 0 0 1 I I 0 1 2.5 forward I I I I #
face $-1 $120 $121 $39 $-1 $122 forward single #
loop $-1 $123 $124 $49 #
cone-surface $-1 23.989785584709878 -24.80105394987212 6.8891826611274602 0 0.79863551827123203 -0.60181501223851219 2.5 0 0 1 I I 0 1 2.5 forward I I I I #
face $-1 $125 $126 $30 $-1 $127 reversed single #
loop $-1 $-1 $128 $50 #
plane-surface $-1 0 0 -15.043557961059003 0 0 1 1 0 0 forward_v I I I I #
coedge $-1 $129 $130 $131 $132 forward $51 $-1 #
face $-1 $133 $134 $31 $-1 $135 reversed single #
loop $-1 $-1 $136 $53 #
plane-surface $-1 -70.034926055302435 -9.5041674875504327 0 0 -1 0 0 0 -1 forward_v I I I I #
coedge $-1 $137 $138 $139 $140 reversed $54 $-1 #
face $-1 $141 $142 $32 $-1 $143 reversed single #
loop $-1 $-1 $144 $56 #
plane-surface $-1 -53.489094584716995 -13.807680376223743 45.130244950191468 0 0.69465837861970381 0.71933979245794832 1 0 0 forward_v I I I I #
coedge $-1 $145 $146 $147 $148 reversed $57 $-1 #
face $-1 $-1 $149 $33 $-1 $150 forward single #
loop $-1 $151 $152 $59 #
cone-surface $-1 -53.489094584716995 21.644082672097234 5.3561224036312733 0 -0.69465837861970381 -0.71933979245794832 0.75 0 0 1 I I -0.70710678118654757 0.70710678118654757 0.75 forward I I I I #
loop $-1 $-1 $153 $43 #
coedge $-1 $96 $96 $154 $155 reversed $60 $-1 #
face $-1 $156 $157 $34 $-1 $158 reversed single #
loop $-1 $-1 $159 $62 #
plane-surface $-1 16.545831470585441 -13.807680376223743 45.130244950191468 0 0.69465837861970381 0.71933979245794832 1 0 0 forward_v I I I I #
coedge $-1 $160 $161 $162 $163 reversed $63 $-1 #
face $-1 $-1 $164 $35 $-1 $165 forward single #
loop $-1 $166 $167 $65 #
cone-surface $-1 16.545831470585441 21.644082672097234 5.3561224036312733 0 -0.69465837861970381 -0.71933979245794832 0.75 0 0 1 I I -0.70710678118654757 0.70710678118654757 0.75 forward I I I I #
loop $-1 $-1 $168 $45 #
coedge $-1 $105 $105 $169 $170 reversed $66 $-1 #
face $-1 $171 $172 $36 $-1 $173 reversed single #
loop $-1 $-1 $174 $68 #
plane-surface $-1 13.39509809535997 -31.475548101630835 0.58220147741073447 0 -0.79863551827123203 0.60181501223851219 1 0 0 forward_v I I I I #
coedge $-1 $175 $176 $177 $178 reversed $69 $-1 #
face $-1 $-1 $179 $37 $-1 $180 forward single #
loop $-1 $181 $182 $71 #
cone-surface $-1 2.8004106060100611 -22.576972119474227 5.2132168377219141 0 0.79863551827123203 -0.60181501223851219 1.25 0 0 1 I I -0.70710678118654746 0.70710678118654746 1.25 forward I I I I #
loop $-1 $-1 $183 $47 #
coedge $-1 $114 $114 $184 $185 reversed $72 $-1 #
face $-1 $-1 $186 $38 $-1 $187 forward single #
loop $-1 $188 $189 $74 #
cone-surface $-1 13.39509809535997 -22.576972119474227 5.2132168377219141 0 0.79863551827123203 -0.60181501223851219 1.25 0 0 1 I I -0.70710678118654746 0.70710678118654746 1.25 forward I I I I #
loop $-1 $-1 $190 $48 #
coedge $-1 $119 $119 $191 $192 reversed $75 $-1 #
face $-1 $-1 $193 $39 $-1 $194 forward single #
loop $-1 $195 $196 $77 #
cone-surface $-1 23.989785584709878 -22.576972119474227 5.2132168377219141 0 0.79863551827123203 -0.60181501223851219 1.25 0 0 1 I I -0.70710678118654746 0.70710678118654746 1.25 forward I I I I #
loop $-1 $-1 $197 $49 #
coedge $-1 $124 $124 $198 $199 reversed $78 $-1 #
face $-1 $200 $201 $30 $-1 $202 reversed single #
loop $-1 $-1 $203 $80 #
plane-surface $-1 0 -31.475548101630849 0 0 1 0 0 0 1 forward_v I I I I #
coedge $-1 $204 $205 $206 $207 forward $81 $-1 #
coedge $-1 $208 $83 $209 $210 forward $51 $-1 #
coedge $-1 $83 $208 $211 $212 forward $51 $-1 #
coedge $-1 $213 $214 $83 $132 reversed $215 $-1 #
edge $-1 $216 -31.475548101630849 $217 31.475548101630849 $131 $218 forward 7 unknown #
face $-1 $219 $220 $31 $-1 $221 reversed single #
loop $-1 $-1 $222 $84 #
plane-surface $-1 -63.169311932987135 -13.879870071584897 0 -1 0 0 0 0 1 forward_v I I I I #
coedge $-1 $223 $224 $225 $226 forward $85 $-1 #
coedge $-1 $227 $87 $228 $229 reversed $54 $-1 #
coedge $-1 $87 $227 $230 $231 reversed $54 $-1 #
coedge $-1 $232 $233 $87 $140 forward $234 $-1 #
edge $-1 $235 -15.043557961059003 $236 15.043557961059003 $139 $237 forward 7 unknown #
face $-1 $238 $239 $32 $-1 $240 reversed single #
loop $-1 $-1 $241 $88 #
plane-surface $-1 -43.808877236446861 93.031528733302892 155.76548217273478 -1 0 0 0 0.69465837861970381 0.71933979245794832 forward_v I I I I #
coedge $-1 $242 $243 $244 $245 reversed $89 $-1 #
coedge $-1 $146 $91 $246 $247 reversed $57 $-1 #
coedge $-1 $91 $145 $242 $248 reversed $57 $-1 #
coedge $-1 $244 $249 $91 $148 forward $250 $-1 #
edge $-1 $251 15.040216265020597 $252 29.167769031435757 $147 $253 forward 7 unknown #
loop $-1 $-1 $154 $92 #
plane-surface $-1 -53.489094584716995 -13.807680376223743 45.130244950191468 0 0.69465837861970381 0.71933979245794832 1 0 0 forward_v I I I I #
loop $-1 $-1 $254 $59 #
coedge $-1 $152 $152 $153 $255 reversed $93 $-1 #
coedge $-1 $153 $153 $152 $255 forward $95 $-1 #
coedge $-1 $154 $154 $96 $155 forward $149 $-1 #
edge $-1 $256 5.8881145045782098e-016 $256 6.2831853071796013 $154 $257 forward 7 unknown #
face $-1 $258 $259 $34 $-1 $260 forward single #
loop $-1 $-1 $261 $97 #
plane-surface $-1 26.226048818855574 93.031528733302892 155.76548217273478 -1 0 0 0 0.69465837861970381 0.71933979245794832 forward_v I I I I #
coedge $-1 $262 $263 $264 $265 reversed $98 $-1 #
coedge $-1 $161 $100 $266 $267 reversed $63 $-1 #
coedge $-1 $100 $160 $262 $268 reversed $63 $-1 #
coedge $-1 $264 $269 $100 $163 forward $259 $-1 #
edge $-1 $270 15.040216265020597 $271 29.167769031435757 $162 $272 forward 7 unknown #
loop $-1 $-1 $169 $101 #
plane-surface $-1 16.545831470585441 -13.807680376223743 45.130244950191468 0 0.69465837861970381 0.71933979245794832 1 0 0 forward_v I I I I #
loop $-1 $-1 $273 $65 #
coedge $-1 $167 $167 $168 $274 reversed $102 $-1 #
coedge $-1 $168 $168 $167 $274 forward $104 $-1 #
coedge $-1 $169 $169 $105 $170 forward $164 $-1 #
edge $-1 $275 5.8881145045782098e-016 $275 6.2831853071796013 $169 $276 forward 7 unknown #
face $-1 $277 $278 $36 $-1 $279 forward single #
loop $-1 $-1 $280 $106 #
plane-surface $-1 -4.2627143868898827 -154.30655362180971 93.142000533693164 1 0 0 0 0.79863551827123203 -0.60181501223851219 forward_v I I I I #
coedge $-1 $281 $282 $283 $284 reversed $107 $-1 #
coedge $-1 $176 $109 $285 $286 reversed $69 $-1 #
coedge $-1 $109 $175 $281 $287 reversed $69 $-1 #
coedge $-1 $283 $288 $109 $178 forward $278 $-1 #
edge $-1 $289 45.677728709274007 $290 56.575142147673766 $177 $291 forward 7 unknown #
loop $-1 $-1 $184 $110 #
plane-surface $-1 13.39509809535997 -31.475548101630835 0.58220147741073447 0 -0.79863551827123203 0.60181501223851219 1 0 0 forward_v I I I I #
loop $-1 $-1 $292 $71 #
coedge $-1 $182 $182 $183 $293 reversed $111 $-1 #
coedge $-1 $183 $183 $182 $293 forward $113 $-1 #
coedge $-1 $184 $184 $114 $185 forward $179 $-1 #
edge $-1 $294 -2.917994758007358e-016 $294 6.2831853071796004 $184 $295 forward 7 unknown #
loop $-1 $-1 $191 $115 #
plane-surface $-1 13.39509809535997 -31.475548101630835 0.58220147741073447 0 -0.79863551827123203 0.60181501223851219 1 0 0 forward_v I I I I #
loop $-1 $-1 $296 $74 #
coedge $-1 $189 $189 $190 $297 reversed $116 $-1 #
coedge $-1 $190 $190 $189 $297 forward $118 $-1 #
coedge $-1 $191 $191 $119 $192 forward $186 $-1 #
edge $-1 $298 -2.917994758007358e-016 $298 6.2831853071796004 $191 $299 forward 7 unknown #
loop $-1 $-1 $198 $120 #
plane-surface $-1 13.39509809535997 -31.475548101630835 0.58220147741073447 0 -0.79863551827123203 0.60181501223851219 1 0 0 forward_v I I I I #
loop $-1 $-1 $300 $77 #
coedge $-1 $196 $196 $197 $301 reversed $121 $-1 #
coedge $-1 $197 $197 $196 $301 forward $123 $-1 #
coedge $-1 $198 $198 $124 $199 forward $193 $-1 #
edge $-1 $302 -2.917994758007358e-016 $302 6.2831853071796004 $198 $303 forward 7 unknown #
face $-1 $304 $305 $30 $-1 $306 reversed single #
loop $-1 $-1 $307 $125 #
plane-surface $-1 -76.900540177617728 0 0 1 0 0 0 0 -1 forward_v I I I I #
coedge $-1 $308 $211 $309 $310 forward $126 $-1 #
coedge $-1 $311 $128 $308 $312 forward $81 $-1 #
coedge $-1 $128 $311 $313 $314 forward $81 $-1 #
coedge $-1 $214 $213 $128 $207 reversed $215 $-1 #
edge $-1 $315 -31.475548101630849 $316 31.475548101630849 $206 $317 forward 7 unknown #
coedge $-1 $130 $129 $318 $319 forward $51 $-1 #
coedge $-1 $320 $321 $129 $210 reversed $305 $-1 #
edge $-1 $217 -76.900540177617728 $322 76.900540177617728 $209 $323 forward 7 unknown #
coedge $-1 $203 $324 $130 $212 reversed $126 $-1 #
edge $-1 $325 -76.900540177617728 $216 76.900540177617728 $211 $326 forward 7 unknown #
coedge $-1 $206 $131 $324 $327 forward $215 $-1 #
coedge $-1 $131 $206 $320 $328 reversed $215 $-1 #
loop $-1 $-1 $213 $304 #
vertex $-1 $132 $329 #
vertex $-1 $132 $330 #
straight-curve $-1 76.900540177617728 0 15.043557961059003 0 1 0 I I #
face $-1 $331 $332 $31 $-1 $333 forward single #
loop $-1 $-1 $334 $133 #
plane-surface $-1 0 0 -15.043557961059003 0 0 1 1 0 0 forward_v I I I I #
coedge $-1 $335 $336 $227 $337 forward $134 $-1 #
coedge $-1 $338 $136 $334 $339 reversed $85 $-1 #
coedge $-1 $136 $338 $340 $341 reversed $85 $-1 #
coedge $-1 $336 $335 $136 $226 reversed $134 $-1 #
edge $-1 $342 -15.043557961059003 $343 15.043557961059003 $225 $344 forward 7 unknown #
coedge $-1 $138 $137 $222 $337 reversed $54 $-1 #
coedge $-1 $345 $346 $137 $229 forward $220 $-1 #
edge $-1 $347 28.151848905335918 $235 41.88307714996651 $228 $348 forward 7 unknown #
coedge $-1 $349 $350 $138 $231 forward $332 $-1 #
edge $-1 $236 -41.88307714996651 $351 -28.151848905335918 $230 $352 forward 7 unknown #
coedge $-1 $353 $139 $350 $354 reversed $234 $-1 #
coedge $-1 $139 $353 $345 $355 reversed $234 $-1 #
loop $-1 $-1 $353 $331 #
vertex $-1 $355 $356 #
vertex $-1 $140 $357 #
straight-curve $-1 -76.900540177617728 -18.25557265561936 0 0 0 1 I I #
face $-1 $-1 $250 $32 $-1 $358 forward single #
loop $-1 $-1 $359 $141 #
plane-surface $-1 0 31.475548101630849 0 0 -1 0 0 0 -1 forward_v I I I I #
coedge $-1 $360 $361 $362 $363 reversed $142 $-1 #
coedge $-1 $364 $144 $146 $248 forward $89 $-1 #
coedge $-1 $144 $364 $360 $365 forward $89 $-1 #
coedge $-1 $362 $147 $144 $245 forward $250 $-1 #
edge $-1 $252 -36.424764640628631 $366 -17.064329944088364 $244 $367 forward 7 unknown #
coedge $-1 $368 $369 $145 $247 forward $239 $-1 #
edge $-1 $370 -76.482002557066664 $251 -62.839183125308388 $246 $371 forward 7 unknown #
edge $-1 $252 43.311486502063275 $370 62.95109620326167 $146 $372 forward 7 unknown #
coedge $-1 $147 $362 $368 $373 forward $250 $-1 #
loop $-1 $-1 $362 $238 #
vertex $-1 $247 $374 #
vertex $-1 $148 $375 #
straight-curve $-1 -63.169311932987128 46.515764366651446 15.043557961059008 0 -1 0 I I #
coedge $-1 $254 $254 $-1 $376 reversed $151 $-1 #
edge $-1 $377 0 $377 6.2831853071796004 $152 $378 forward 7 unknown #
vertex $-1 $155 $379 #
ellipse-curve $-1 -53.489094584716995 24.411771718423275 8.2221482451798575 0 0.69465837861970381 0.71933979245794832 1.5 0 0 1 I I #
face $-1 $-1 $380 $34 $-1 $381 reversed single #
loop $-1 $-1 $162 $156 #
plane-surface $-1 0 0 15.043557961059003 0 0 1 1 0 0 forward_v I I I I #
coedge $-1 $382 $383 $384 $385 reversed $157 $-1 #
coedge $-1 $386 $159 $161 $268 forward $98 $-1 #
coedge $-1 $159 $386 $382 $387 forward $98 $-1 #
coedge $-1 $384 $162 $159 $265 forward $259 $-1 #
edge $-1 $271 -1.4073016129774132 $388 17.953133083562854 $264 $389 forward 7 unknown #
coedge $-1 $390 $391 $160 $267 forward $380 $-1 #
edge $-1 $392 -76.482002557066664 $270 -62.839183125308388 $266 $393 forward 7 unknown #
edge $-1 $271 43.311486502063275 $392 62.95109620326167 $161 $394 forward 7 unknown #
coedge $-1 $162 $384 $390 $395 forward $259 $-1 #
vertex $-1 $267 $396 #
vertex $-1 $163 $397 #
straight-curve $-1 6.8656141223153071 46.515764366651446 15.043557961059008 0 -1 0 I I #
coedge $-1 $273 $273 $-1 $398 reversed $166 $-1 #
edge $-1 $399 0 $399 6.2831853071796004 $167 $400 forward 7 unknown #
vertex $-1 $170 $401 #
ellipse-curve $-1 16.545831470585441 24.411771718423275 8.2221482451798575 0 0.69465837861970381 0.71933979245794832 1.5 0 0 1 I I #
face $-1 $-1 $402 $36 $-1 $403 reversed single #
loop $-1 $-1 $177 $171 #
plane-surface $-1 0 0 15.043557961059003 0 0 1 1 0 0 forward_v I I I I #
coedge $-1 $404 $405 $406 $407 reversed $172 $-1 #
coedge $-1 $408 $174 $176 $287 forward $107 $-1 #
coedge $-1 $174 $408 $404 $409 forward $107 $-1 #
coedge $-1 $406 $177 $174 $284 forward $278 $-1 #
edge $-1 $290 -24.355361529929837 $410 10.960263434569868 $283 $411 forward 7 unknown #
coedge $-1 $412 $413 $175 $286 forward $402 $-1 #
edge $-1 $414 -45.988798789435869 $289 -31.527442305787581 $285 $415 forward 7 unknown #
edge $-1 $290 -18.107579932022148 $414 2.3625585895707848e-014 $176 $416 forward 7 unknown #
coedge $-1 $177 $406 $412 $417 forward $278 $-1 #
vertex $-1 $286 $418 #
vertex $-1 $178 $419 #
straight-curve $-1 31.052910577609822 -77.153276810904856 15.043557961059001 0 1 0 I I #
coedge $-1 $292 $292 $-1 $420 reversed $181 $-1 #
edge $-1 $421 0 $421 6.2831853071796004 $182 $422 forward 7 unknown #
vertex $-1 $185 $423 #
ellipse-curve $-1 2.8004106060100611 -26.026841382430966 7.8128797192348616 0 -0.79863551827123203 0.60181501223851219 2.5 0 0 1 I I #
coedge $-1 $296 $296 $-1 $424 reversed $188 $-1 #
edge $-1 $425 0 $425 6.2831853071796004 $189 $426 forward 7 unknown #
vertex $-1 $192 $427 #
ellipse-curve $-1 13.39509809535997 -26.026841382430966 7.8128797192348616 0 -0.79863551827123203 0.60181501223851219 2.5 0 0 1 I I #
coedge $-1 $300 $300 $-1 $428 reversed $195 $-1 #
edge $-1 $429 0 $429 6.2831853071796004 $196 $430 forward 7 unknown #
vertex $-1 $199 $431 #
ellipse-curve $-1 23.989785584709878 -26.026841382430966 7.8128797192348616 0 -0.79863551827123203 0.60181501223851219 2.5 0 0 1 I I #
face $-1 $-1 $215 $30 $-1 $432 reversed single #
loop $-1 $-1 $320 $200 #
plane-surface $-1 0 31.475548101630849 0 0 -1 0 0 0 -1 forward_v I I I I #
coedge $-1 $433 $318 $321 $434 forward $201 $-1 #
coedge $-1 $324 $203 $204 $312 reversed $126 $-1 #
coedge $-1 $318 $433 $203 $310 reversed $201 $-1 #
edge $-1 $325 -15.043557961059003 $435 15.043557961059003 $309 $436 forward 7 unknown #
coedge $-1 $205 $204 $433 $437 forward $81 $-1 #
edge $-1 $316 -76.900540177617728 $435 76.900540177617728 $308 $438 forward 7 unknown #
coedge $-1 $321 $320 $205 $314 reversed $305 $-1 #
edge $-1 $439 -76.900540177617728 $315 76.900540177617728 $313 $440 forward 7 unknown #
vertex $-1 $207 $441 #
vertex $-1 $327 $442 #
straight-curve $-1 76.900540177617728 0 -15.043557961059003 0 -1 0 I I #
coedge $-1 $307 $309 $208 $319 reversed $201 $-1 #
edge $-1 $322 -31.475548101630849 $325 31.475548101630849 $318 $443 forward 7 unknown #
coedge $-1 $313 $209 $214 $328 forward $305 $-1 #
coedge $-1 $209 $313 $307 $434 reversed $305 $-1 #
vertex $-1 $210 $444 #
straight-curve $-1 0 31.475548101630849 15.043557961059003 -1 0 0 I I #
coedge $-1 $211 $308 $213 $327 reversed $126 $-1 #
vertex $-1 $319 $445 #
straight-curve $-1 0 -31.475548101630849 15.043557961059003 1 0 0 I I #
edge $-1 $216 -15.043557961059003 $316 15.043557961059003 $213 $446 forward 7 unknown #
edge $-1 $217 -15.043557961059003 $315 15.043557961059003 $214 $447 forward 7 unknown #
point $-1 76.900540177617728 -31.475548101630849 15.043557961059003 #
point $-1 76.900540177617728 31.475548101630849 15.043557961059003 #
face $-1 $-1 $234 $31 $-1 $448 reversed single #
loop $-1 $-1 $340 $219 #
plane-surface $-1 0 0 15.043557961059003 0 0 1 1 0 0 forward_v I I I I #
coedge $-1 $346 $345 $223 $339 forward $220 $-1 #
coedge $-1 $225 $222 $346 $449 reversed $134 $-1 #
coedge $-1 $222 $225 $349 $450 reversed $134 $-1 #
edge $-1 $351 -15.043557961059003 $347 15.043557961059003 $222 $451 forward 7 unknown #
coedge $-1 $224 $223 $353 $452 reversed $85 $-1 #
edge $-1 $453 -41.88307714996651 $343 -28.151848905335918 $334 $454 forward 7 unknown #
coedge $-1 $350 $349 $224 $341 forward $332 $-1 #
edge $-1 $342 28.151848905335918 $455 41.88307714996651 $340 $456 forward 7 unknown #
vertex $-1 $341 $457 #
vertex $-1 $339 $458 #
straight-curve $-1 -63.169311932987135 -9.5041674875504327 0 0 0 -1 I I #
coedge $-1 $334 $228 $233 $355 forward $220 $-1 #
coedge $-1 $228 $334 $335 $449 forward $220 $-1 #
vertex $-1 $229 $459 #
straight-curve $-1 -35.017463027651218 -18.25557265561936 -15.043557961059003 -1 0 0 I I #
coedge $-1 $340 $230 $336 $450 forward $332 $-1 #
coedge $-1 $230 $340 $232 $354 forward $332 $-1 #
vertex $-1 $231 $460 #
straight-curve $-1 -35.017463027651218 -18.25557265561936 15.043557961059003 1 0 0 I I #
coedge $-1 $233 $232 $338 $452 forward $234 $-1 #
edge $-1 $455 9.5041674875504327 $236 18.25557265561936 $232 $461 forward 7 unknown #
edge $-1 $235 -18.25557265561936 $453 -9.5041674875504327 $233 $462 forward 7 unknown #
point $-1 -76.900540177617728 -18.25557265561936 -15.043557961059003 #
point $-1 -76.900540177617728 -18.25557265561936 15.043557961059003 #
plane-surface $-1 0 0 15.043557961059003 0 0 1 1 0 0 forward_v I I I I #
coedge $-1 $369 $368 $361 $463 forward $239 $-1 #
coedge $-1 $361 $241 $243 $365 reversed $142 $-1 #
coedge $-1 $241 $360 $359 $463 reversed $142 $-1 #
coedge $-1 $249 $244 $241 $363 forward $250 $-1 #
edge $-1 $366 -29.167769031435757 $464 -15.040216265020597 $362 $465 forward 7 unknown #
coedge $-1 $243 $242 $369 $466 reversed $89 $-1 #
edge $-1 $467 -62.95109620326167 $366 -43.311486502063275 $360 $468 forward 7 unknown #
vertex $-1 $245 $469 #
straight-curve $-1 -26.744547292358497 17.347995335215689 15.043557961059001 1 0 0 I I #
coedge $-1 $359 $246 $249 $373 reversed $239 $-1 #
coedge $-1 $246 $359 $364 $466 forward $239 $-1 #
vertex $-1 $247 $470 #
straight-curve $-1 -63.169311932987128 31.475548101630849 77.882741086367389 0 0 1 I I #
straight-curve $-1 -63.169311932987128 -13.807680376223743 45.130244950191468 0 0.71933979245794832 -0.69465837861970381 I I #
edge $-1 $464 43.808877236446861 $251 63.169311932987128 $368 $471 forward 7 unknown #
point $-1 -63.169311932987128 31.475548101630849 15.043557961059003 #
point $-1 -63.169311932987128 17.347995335215689 15.043557961059001 #
edge $-1 $472 1 $472 0 $254 $-1 forward 7 unknown #
vertex $-1 $255 $473 #
ellipse-curve $-1 -53.489094584716995 22.16507645606201 5.8956272479747343 0 0.69465837861970381 0.71933979245794832 1.5 0 0 1 I I #
point $-1 -51.989094584716995 24.41177171842326 8.2221482451798416 #
loop $-1 $-1 $266 $258 #
plane-surface $-1 0 31.475548101630849 0 0 -1 0 0 0 -1 forward_v I I I I #
coedge $-1 $383 $261 $263 $387 reversed $157 $-1 #
coedge $-1 $261 $382 $474 $475 reversed $157 $-1 #
coedge $-1 $269 $264 $261 $385 forward $259 $-1 #
edge $-1 $388 -29.167769031435757 $476 -15.040216265020597 $384 $477 forward 7 unknown #
coedge $-1 $263 $262 $391 $478 reversed $98 $-1 #
edge $-1 $479 -62.95109620326167 $388 -43.311486502063275 $382 $480 forward 7 unknown #
vertex $-1 $265 $481 #
straight-curve $-1 8.2729157352927203 17.347995335215689 15.043557961059001 1 0 0 I I #
coedge $-1 $474 $266 $269 $395 reversed $380 $-1 #
coedge $-1 $266 $474 $386 $478 forward $380 $-1 #
vertex $-1 $267 $482 #
straight-curve $-1 6.8656141223153071 31.475548101630849 77.882741086367389 0 0 1 I I #
straight-curve $-1 6.8656141223153071 -13.807680376223743 45.130244950191468 0 0.71933979245794832 -0.69465837861970381 I I #
edge $-1 $476 -26.226048818855574 $270 -6.8656141223153071 $390 $483 forward 7 unknown #
point $-1 6.8656141223153071 31.475548101630849 15.043557961059003 #
point $-1 6.8656141223153071 17.347995335215689 15.043557961059001 #
edge $-1 $484 1 $484 0 $273 $-1 forward 7 unknown #
vertex $-1 $274 $485 #
ellipse-curve $-1 16.545831470585441 22.16507645606201 5.8956272479747343 0 0.69465837861970381 0.71933979245794832 1.5 0 0 1 I I #
point $-1 18.045831470585441 24.41177171842326 8.2221482451798416 #
loop $-1 $-1 $285 $277 #
plane-surface $-1 0 -31.475548101630849 0 0 1 0 0 0 1 forward_v I I I I #
coedge $-1 $405 $280 $282 $409 reversed $172 $-1 #
coedge $-1 $280 $404 $486 $487 reversed $172 $-1 #
coedge $-1 $288 $283 $280 $407 forward $278 $-1 #
edge $-1 $410 -56.575142147673766 $488 -45.677728709274007 $406 $489 forward 7 unknown #
coedge $-1 $282 $281 $413 $490 reversed $107 $-1 #
edge $-1 $491 -2.3625585895707848e-014 $410 18.107579932022148 $404 $492 forward 7 unknown #
vertex $-1 $284 $493 #
straight-curve $-1 6.6975490476799848 -20.578134663231086 15.043557961059003 -1 0 0 I I #
coedge $-1 $486 $285 $288 $417 reversed $402 $-1 #
coedge $-1 $285 $486 $408 $490 forward $402 $-1 #
vertex $-1 $286 $494 #
straight-curve $-1 31.052910577609822 -31.475548101630849 46.571000266846582 0 0 1 I I #
straight-curve $-1 31.052910577609822 -31.475548101630835 0.58220147741073447 0 -0.60181501223851219 -0.79863551827123203 I I #
edge $-1 $488 -4.2627143868898827 $289 31.052910577609822 $412 $495 forward 7 unknown #
point $-1 31.052910577609822 -31.475548101630849 15.043557961059003 #
point $-1 31.052910577609822 -20.57813466323109 15.043557961059003 #
edge $-1 $496 1 $496 0 $292 $-1 forward 7 unknown #
vertex $-1 $293 $497 #
ellipse-curve $-1 2.8004106060100611 -23.575266517313267 5.9654856030200545 0 -0.79863551827123203 0.60181501223851219 2.5 0 0 1 I I #
point $-1 5.3004106060100611 -26.026841382430973 7.812879719234866 #
edge $-1 $498 1 $498 0 $296 $-1 forward 7 unknown #
vertex $-1 $297 $499 #
ellipse-curve $-1 13.39509809535997 -23.575266517313267 5.9654856030200545 0 -0.79863551827123203 0.60181501223851219 2.5 0 0 1 I I #
point $-1 15.89509809535997 -26.026841382430973 7.812879719234866 #
edge $-1 $500 1 $500 0 $300 $-1 forward 7 unknown #
vertex $-1 $301 $501 #
ellipse-curve $-1 23.989785584709878 -23.575266517313267 5.9654856030200545 0 -0.79863551827123203 0.60181501223851219 2.5 0 0 1 I I #
point $-1 26.489785584709878 -26.026841382430973 7.812879719234866 #
plane-surface $-1 76.900540177617728 0 0 -1 0 0 0 0 1 forward_v I I I I #
coedge $-1 $309 $307 $311 $437 reversed $201 $-1 #
edge $-1 $322 -15.043557961059003 $439 15.043557961059003 $321 $502 forward 7 unknown #
vertex $-1 $437 $503 #
straight-curve $-1 -76.900540177617728 -31.475548101630849 0 0 0 -1 I I #
edge $-1 $435 -31.475548101630849 $439 31.475548101630849 $433 $504 forward 7 unknown #
straight-curve $-1 0 -31.475548101630849 -15.043557961059003 -1 0 0 I I #
vertex $-1 $314 $505 #
straight-curve $-1 0 31.475548101630849 -15.043557961059003 1 0 0 I I #
point $-1 76.900540177617728 31.475548101630849 -15.043557961059003 #
point $-1 76.900540177617728 -31.475548101630849 -15.043557961059003 #
straight-curve $-1 -76.900540177617728 0 15.043557961059003 0 -1 0 I I #
point $-1 -76.900540177617728 31.475548101630849 15.043557961059003 #
point $-1 -76.900540177617728 -31.475548101630849 15.043557961059003 #
straight-curve $-1 76.900540177617728 -31.475548101630849 0 0 0 -1 I I #
straight-curve $-1 76.900540177617728 31.475548101630849 0 0 0 -1 I I #
plane-surface $-1 -76.900540177617728 0 0 1 0 0 0 0 -1 forward_v I I I I #
edge $-1 $343 2.5642324517579844 $347 11.315637619826912 $346 $506 forward 7 unknown #
edge $-1 $351 -11.315637619826912 $342 -2.5642324517579844 $349 $507 forward 7 unknown #
straight-curve $-1 -63.169311932987135 -18.25557265561936 0 0 0 -1 I I #
edge $-1 $455 -15.043557961059003 $453 15.043557961059003 $353 $508 forward 7 unknown #
vertex $-1 $452 $509 #
straight-curve $-1 -35.017463027651218 -9.5041674875504327 -15.043557961059003 1 0 0 I I #
vertex $-1 $354 $510 #
straight-curve $-1 -35.017463027651218 -9.5041674875504327 15.043557961059003 -1 0 0 I I #
point $-1 -63.169311932987135 -9.5041674875504327 15.043557961059003 #
point $-1 -63.169311932987135 -9.5041674875504327 -15.043557961059003 #
point $-1 -63.169311932987135 -18.25557265561936 -15.043557961059003 #
point $-1 -63.169311932987135 -18.25557265561936 15.043557961059003 #
straight-curve $-1 -76.900540177617728 0 15.043557961059003 0 -1 0 I I #
straight-curve $-1 -76.900540177617728 0 -15.043557961059003 0 1 0 I I #
edge $-1 $464 62.839183125308388 $467 76.482002557066664 $359 $511 forward 7 unknown #
vertex $-1 $373 $512 #
straight-curve $-1 -43.808877236446861 46.515764366651446 15.043557961059008 0 1 0 I I #
edge $-1 $467 17.064329944088364 $370 36.424764640628631 $369 $513 forward 7 unknown #
vertex $-1 $466 $514 #
straight-curve $-1 -43.808877236446861 -13.807680376223743 45.130244950191468 0 -0.71933979245794832 0.69465837861970381 I I #
point $-1 -43.808877236446861 17.347995335215689 15.043557961059001 #
point $-1 -63.169311932987128 31.475548101630849 1.4007385293007175 #
straight-curve $-1 0 31.475548101630849 15.043557961059003 -1 0 0 I I #
vertex $-1 $376 $515 #
point $-1 -51.989094584716995 22.16507645606201 5.8956272479747343 #
coedge $-1 $391 $390 $383 $475 forward $380 $-1 #
edge $-1 $476 62.839183125308388 $479 76.482002557066664 $474 $516 forward 7 unknown #
vertex $-1 $395 $517 #
straight-curve $-1 26.226048818855574 46.515764366651446 15.043557961059008 0 1 0 I I #
edge $-1 $479 -17.953133083562854 $392 1.4073016129774132 $391 $518 forward 7 unknown #
vertex $-1 $478 $519 #
straight-curve $-1 26.226048818855574 -13.807680376223743 45.130244950191468 0 -0.71933979245794832 0.69465837861970381 I I #
point $-1 26.226048818855574 17.347995335215689 15.043557961059001 #
point $-1 6.8656141223153071 31.475548101630849 1.4007385293007175 #
straight-curve $-1 0 31.475548101630849 15.043557961059003 -1 0 0 I I #
vertex $-1 $398 $520 #
point $-1 18.045831470585441 22.16507645606201 5.8956272479747343 #
coedge $-1 $413 $412 $405 $487 forward $402 $-1 #
edge $-1 $488 31.527442305787581 $491 45.988798789435869 $486 $521 forward 7 unknown #
vertex $-1 $417 $522 #
straight-curve $-1 -4.2627143868898827 -77.153276810904856 15.043557961059001 0 -1 0 I I #
edge $-1 $491 -10.960263434569868 $414 24.355361529929837 $413 $523 forward 7 unknown #
vertex $-1 $490 $524 #
straight-curve $-1 -4.2627143868898827 -31.475548101630835 0.58220147741073447 0 0.60181501223851219 0.79863551827123203 I I #
point $-1 -4.2627143868898827 -20.57813466323109 15.043557961059003 #
point $-1 31.052910577609822 -31.475548101630849 0.5822014774107156 #
straight-curve $-1 0 -31.475548101630849 15.043557961059003 1 0 0 I I #
vertex $-1 $420 $525 #
point $-1 5.3004106060100611 -23.575266517313267 5.9654856030200545 #
vertex $-1 $424 $526 #
point $-1 15.89509809535997 -23.575266517313267 5.9654856030200545 #
vertex $-1 $428 $527 #
point $-1 26.489785584709878 -23.575266517313267 5.9654856030200545 #
straight-curve $-1 -76.900540177617728 31.475548101630849 0 0 0 -1 I I #
point $-1 -76.900540177617728 -31.475548101630849 -15.043557961059003 #
straight-curve $-1 -76.900540177617728 0 -15.043557961059003 0 1 0 I I #
point $-1 -76.900540177617728 31.475548101630849 -15.043557961059003 #
straight-curve $-1 -63.169311932987135 -6.9399350357924483 -15.043557961059003 0 -1 0 I I #
straight-curve $-1 -63.169311932987135 -6.9399350357924483 15.043557961059003 0 1 0 I I #
straight-curve $-1 -76.900540177617728 -9.5041674875504327 0 0 0 -1 I I #
point $-1 -76.900540177617728 -9.5041674875504327 -15.043557961059003 #
point $-1 -76.900540177617728 -9.5041674875504327 15.043557961059003 #
straight-curve $-1 -43.808877236446861 31.475548101630849 77.882741086367389 0 0 -1 I I #
point $-1 -43.808877236446861 31.475548101630849 15.043557961059003 #
straight-curve $-1 -26.744547292358497 31.475548101630846 1.4007385293007246 -1 0 0 I I #
point $-1 -43.808877236446861 31.475548101630849 1.4007385293007175 #
point $-1 -53.489094584716995 21.123088888132457 4.8166175592878124 #
straight-curve $-1 26.226048818855574 31.475548101630849 77.882741086367389 0 0 -1 I I #
point $-1 26.226048818855574 31.475548101630849 15.043557961059003 #
straight-curve $-1 8.2729157352927203 31.475548101630846 1.4007385293007246 -1 0 0 I I #
point $-1 26.226048818855574 31.475548101630849 1.4007385293007175 #
point $-1 16.545831470585441 21.123088888132457 4.8166175592878124 #
straight-curve $-1 -4.2627143868898827 -31.475548101630849 46.571000266846582 0 0 -1 I I #
point $-1 -4.2627143868898827 -31.475548101630849 15.043557961059003 #
straight-curve $-1 6.6975490476799848 -31.475548101630849 0.58220147741071449 1 0 0 I I #
point $-1 -4.2627143868898827 -31.475548101630849 0.5822014774107156 #
point $-1 2.8004106060100611 -21.578677721635188 4.4609480724237738 #
point $-1 13.39509809535997 -21.578677721635188 4.4609480724237738 #
point $-1 23.989785584709878 -21.578677721635188 4.4609480724237738 #
End-of-ACIS-data 