500 0 13 0           
7 Unknown 11 ACIS 5.0 NT 24 Fri Mar 26 17:17:03 1999 
-1 9.9999999999999995e-007 1e-010 
body $-1 $13 $-1 $14 #
body $-1 $15 $-1 $16 #
body $-1 $17 $-1 $18 #
body $-1 $19 $-1 $20 #
body $-1 $21 $-1 $22 #
body $-1 $23 $-1 $24 #
body $-1 $25 $-1 $26 #
body $-1 $27 $-1 $28 #
body $-1 $29 $-1 $30 #
body $-1 $31 $-1 $32 #
body $-1 $33 $-1 $34 #
body $-1 $35 $-1 $36 #
body $-1 $37 $-1 $38 #
lump $-1 $-1 $39 $0 #
transform $-1 1 0 0 0 1 0 0 0 1 65.53178502761925 26.986687850754986 9.4894441790947894 1 rotate no_reflect no_shear #
lump $-1 $-1 $40 $1 #
transform $-1 1 0 0 0 1 0 0 0 1 65.53178502761925 26.986687850754986 9.4894441790947894 1 rotate no_reflect no_shear #
lump $-1 $-1 $41 $2 #
transform $-1 1 0 0 0 1 0 0 0 1 65.53178502761925 26.986687850754986 9.4894441790947894 1 rotate no_reflect no_shear #
lump $-1 $-1 $42 $3 #
transform $-1 1 0 0 0 1 0 0 0 1 65.53178502761925 26.986687850754986 9.4894441790947894 1 rotate no_reflect no_shear #
lump $-1 $-1 $43 $4 #
transform $-1 1 0 0 0 1 0 0 0 1 65.53178502761925 26.986687850754986 9.4894441790947894 1 rotate no_reflect no_shear #
lump $-1 $-1 $44 $5 #
transform $-1 1 0 0 0 1 0 0 0 1 65.53178502761925 26.986687850754986 9.4894441790947894 1 rotate no_reflect no_shear #
lump $-1 $-1 $45 $6 #
transform $-1 1 0 0 0 1 0 0 0 1 65.53178502761925 26.986687850754986 9.4894441790947894 1 rotate no_reflect no_shear #
lump $-1 $-1 $46 $7 #
transform $-1 1 0 0 0 1 0 0 0 1 65.53178502761925 26.986687850754986 9.4894441790947894 1 rotate no_reflect no_shear #
lump $-1 $-1 $47 $8 #
transform $-1 1 0 0 0 1 0 0 0 1 65.53178502761925 26.986687850754986 9.4894441790947894 1 rotate no_reflect no_shear #
lump $-1 $-1 $48 $9 #
transform $-1 1 0 0 0 1 0 0 0 1 65.53178502761925 26.986687850754986 9.4894441790947894 1 rotate no_reflect no_shear #
lump $-1 $-1 $49 $10 #
transform $-1 1 0 0 0 1 0 0 0 1 65.53178502761925 26.986687850754986 9.4894441790947894 1 rotate no_reflect no_shear #
lump $-1 $-1 $50 $11 #
transform $-1 1 0 0 0 1 0 0 0 1 65.53178502761925 26.986687850754986 9.4894441790947894 1 rotate no_reflect no_shear #
lump $-1 $-1 $51 $12 #
transform $-1 1 0 0 0 1 0 0 0 1 65.53178502761925 26.986687850754986 9.4894441790947894 1 rotate no_reflect no_shear #
shell $-1 $-1 $-1 $52 $-1 $13 #
shell $-1 $-1 $-1 $53 $-1 $15 #
shell $-1 $-1 $-1 $54 $-1 $17 #
shell $-1 $-1 $-1 $55 $-1 $19 #
shell $-1 $-1 $-1 $56 $-1 $21 #
shell $-1 $-1 $-1 $57 $-1 $23 #
shell $-1 $-1 $-1 $58 $-1 $25 #
shell $-1 $-1 $-1 $59 $-1 $27 #
shell $-1 $-1 $-1 $60 $-1 $29 #
shell $-1 $-1 $-1 $61 $-1 $31 #
shell $-1 $-1 $-1 $62 $-1 $33 #
shell $-1 $-1 $-1 $63 $-1 $35 #
shell $-1 $-1 $-1 $64 $-1 $37 #
face $-1 $65 $66 $39 $-1 $67 forward single #
face $-1 $68 $69 $40 $-1 $70 forward single #
face $-1 $71 $72 $41 $-1 $73 reversed single #
face $-1 $74 $75 $42 $-1 $76 forward single #
face $-1 $77 $78 $43 $-1 $79 forward single #
face $-1 $80 $81 $44 $-1 $82 reversed single #
face $-1 $83 $84 $45 $-1 $85 forward single #
face $-1 $86 $87 $46 $-1 $88 reversed single #
face $-1 $89 $90 $47 $-1 $91 forward single #
face $-1 $92 $93 $48 $-1 $94 reversed single #
face $-1 $95 $96 $49 $-1 $97 forward single #
face $-1 $98 $99 $50 $-1 $100 reversed single #
face $-1 $101 $102 $51 $-1 $103 forward single #
face $-1 $104 $105 $39 $-1 $106 reversed single #
loop $-1 $-1 $107 $52 #
plane-surface $-1 0 0 9.4894441790947894 0 0 1 1 0 0 forward_v I I I I #
face $-1 $108 $109 $40 $-1 $110 reversed single #
loop $-1 $-1 $111 $53 #
plane-surface $-1 0 -20.870353442786516 -6.0897864375135118 0 0 1 1 0 0 forward_v I I I I #
face $-1 $112 $113 $41 $-1 $114 reversed single #
loop $-1 $-1 $115 $54 #
plane-surface $-1 52.602293549822804 20.852927466583974 185.29210984978295 0 1 0 0.6560590369687036 0 0.75470957328743171 forward_v I I I I #
face $-1 $116 $117 $42 $-1 $118 forward single #
loop $-1 $119 $120 $55 #
cone-surface $-1 59.662030948603132 22.605430433489975 4.2079243591128552 -0.6560590369687036 0 -0.75470957328743171 0.37735478664371586 0 -0.3280295184843518 1 I I 0 1 0.5 forward I I I I #
face $-1 $121 $122 $43 $-1 $123 forward single #
loop $-1 $124 $125 $56 #
cone-surface $-1 59.662030948603132 25.234184883848979 4.2079243591128552 -0.6560590369687036 0 -0.75470957328743171 0.37735478664371586 0 -0.3280295184843518 1 I I 0 1 0.5 forward I I I I #
face $-1 $126 $127 $44 $-1 $128 reversed single #
loop $-1 $-1 $129 $57 #
plane-surface $-1 -142.56901960308932 -10.687614310340177 106.72621947226176 0 1 0 -0.5877852598018023 0 0.80901698891910034 forward_v I I I I #
face $-1 $130 $131 $45 $-1 $132 forward single #
loop $-1 $133 $134 $58 #
cone-surface $-1 -57.760712081922094 -7.5032283118824807 2.7271166587095124 0.5877852598018023 0 -0.80901698891910034 1.2135254833786506 0 0.88167788970270344 1 I I 0 1 1.5 forward I I I I #
face $-1 $135 $136 $46 $-1 $137 reversed single #
loop $-1 $-1 $138 $59 #
plane-surface $-1 -142.56901960308932 -0.25243758894691837 106.72621947226176 0 1 0 -0.5877852598018023 0 0.80901698891910034 forward_v I I I I #
face $-1 $139 $140 $47 $-1 $141 forward single #
loop $-1 $142 $143 $60 #
cone-surface $-1 -57.760712081922094 2.9319484095107775 2.7271166587095124 0.5877852598018023 0 -0.80901698891910034 1.2135254833786506 0 0.88167788970270344 1 I I 0 1 1.5 forward I I I I #
face $-1 $144 $145 $48 $-1 $146 reversed single #
loop $-1 $-1 $147 $61 #
plane-surface $-1 -142.56901960308932 10.182739132446336 106.72621947226176 0 1 0 -0.5877852598018023 0 0.80901698891910034 forward_v I I I I #
face $-1 $148 $149 $49 $-1 $150 forward single #
loop $-1 $151 $152 $62 #
cone-surface $-1 -57.760712081922094 13.367125130904032 2.7271166587095124 0.5877852598018023 0 -0.80901698891910034 1.2135254833786506 0 0.88167788970270344 1 I I 0 1 1.5 forward I I I I #
face $-1 $153 $154 $50 $-1 $155 reversed single #
loop $-1 $-1 $156 $63 #
plane-surface $-1 -142.56901960308932 20.617915853839598 106.72621947226176 0 1 0 -0.5877852598018023 0 0.80901698891910034 forward_v I I I I #
face $-1 $157 $158 $51 $-1 $159 forward single #
loop $-1 $160 $161 $64 #
cone-surface $-1 -57.760712081922094 23.802301852297294 2.7271166587095124 0.5877852598018023 0 -0.80901698891910034 1.2135254833786506 0 0.88167788970270344 1 I I 0 1 1.5 forward I I I I #
face $-1 $162 $163 $39 $-1 $164 reversed single #
loop $-1 $-1 $165 $65 #
plane-surface $-1 0 0 -9.4894441790947894 0 0 1 1 0 0 forward_v I I I I #
coedge $-1 $166 $167 $168 $169 forward $66 $-1 #
face $-1 $170 $171 $40 $-1 $172 reversed single #
loop $-1 $-1 $173 $68 #
plane-surface $-1 0 -14.754019034818047 -7.7896153083041506 0 -1 0 0 0 -1 forward_v I I I I #
coedge $-1 $174 $175 $176 $177 reversed $69 $-1 #
face $-1 $178 $179 $41 $-1 $180 forward single #
loop $-1 $-1 $181 $71 #
plane-surface $-1 -33.383146002297181 23.91980765866948 86.377178819866486 0.6560590369687036 0 0.75470957328743171 0.75470957328743171 0 -0.6560590369687036 forward_v I I I I #
coedge $-1 $182 $183 $184 $185 reversed $72 $-1 #
face $-1 $-1 $186 $42 $-1 $187 forward single #
loop $-1 $188 $189 $74 #
cone-surface $-1 58.861118152739522 22.605430433489975 3.2865796014832114 -0.6560590369687036 0 -0.75470957328743171 0.18867739332185793 0 -0.1640147592421759 1 I I -0.70710678118654746 0.70710678118654746 0.25 forward I I I I #
loop $-1 $-1 $190 $55 #
coedge $-1 $120 $120 $191 $192 reversed $75 $-1 #
face $-1 $-1 $193 $43 $-1 $194 forward single #
loop $-1 $195 $196 $77 #
cone-surface $-1 58.861118152739522 25.234184883848979 3.2865796014832114 -0.6560590369687036 0 -0.75470957328743171 0.18867739332185793 0 -0.1640147592421759 1 I I -0.70710678118654746 0.70710678118654746 0.25 forward I I I I #
loop $-1 $-1 $197 $56 #
coedge $-1 $125 $125 $198 $199 reversed $78 $-1 #
face $-1 $200 $201 $44 $-1 $202 reversed single #
loop $-1 $-1 $203 $80 #
plane-surface $-1 -65.531785027619236 -7.5032283118824807 0.69356466918515025 -0.5877852598018023 0 0.80901698891910034 0.80901698891910034 0 0.5877852598018023 forward_v I I I I #
coedge $-1 $204 $205 $206 $207 reversed $81 $-1 #
face $-1 $-1 $208 $45 $-1 $209 forward single #
loop $-1 $210 $211 $83 #
cone-surface $-1 -55.602044839258916 -7.5032283118824807 -0.24403384841026998 0.5877852598018023 0 -0.80901698891910034 0.60676274168932531 0 0.44083894485135172 1 I I -0.70710678118654757 0.70710678118654757 0.75 forward I I I I #
loop $-1 $-1 $212 $58 #
coedge $-1 $134 $134 $213 $214 reversed $84 $-1 #
face $-1 $215 $216 $46 $-1 $217 reversed single #
loop $-1 $-1 $218 $86 #
plane-surface $-1 -65.531785027619236 2.9319484095107775 0.69356466918515025 -0.5877852598018023 0 0.80901698891910034 0.80901698891910034 0 0.5877852598018023 forward_v I I I I #
coedge $-1 $219 $220 $221 $222 reversed $87 $-1 #
face $-1 $-1 $223 $47 $-1 $224 forward single #
loop $-1 $225 $226 $89 #
cone-surface $-1 -55.602044839258916 2.9319484095107775 -0.24403384841026998 0.5877852598018023 0 -0.80901698891910034 0.60676274168932531 0 0.44083894485135172 1 I I -0.70710678118654757 0.70710678118654757 0.75 forward I I I I #
loop $-1 $-1 $227 $60 #
coedge $-1 $143 $143 $228 $229 reversed $90 $-1 #
face $-1 $230 $231 $48 $-1 $232 reversed single #
loop $-1 $-1 $233 $92 #
plane-surface $-1 -65.531785027619236 13.367125130904032 0.69356466918515025 -0.5877852598018023 0 0.80901698891910034 0.80901698891910034 0 0.5877852598018023 forward_v I I I I #
coedge $-1 $234 $235 $236 $237 reversed $93 $-1 #
face $-1 $-1 $238 $49 $-1 $239 forward single #
loop $-1 $240 $241 $95 #
cone-surface $-1 -55.602044839258916 13.367125130904032 -0.24403384841026998 0.5877852598018023 0 -0.80901698891910034 0.60676274168932531 0 0.44083894485135172 1 I I -0.70710678118654757 0.70710678118654757 0.75 forward I I I I #
loop $-1 $-1 $242 $62 #
coedge $-1 $152 $152 $243 $244 reversed $96 $-1 #
face $-1 $245 $246 $50 $-1 $247 forward single #
loop $-1 $-1 $248 $98 #
plane-surface $-1 -65.531785027619236 23.802301852297294 0.69356466918515025 -0.5877852598018023 0 0.80901698891910034 0.80901698891910034 0 0.5877852598018023 forward_v I I I I #
coedge $-1 $249 $250 $251 $252 reversed $99 $-1 #
face $-1 $-1 $253 $51 $-1 $254 forward single #
loop $-1 $255 $256 $101 #
cone-surface $-1 -55.602044839258916 23.802301852297294 -0.24403384841026998 0.5877852598018023 0 -0.80901698891910034 0.60676274168932531 0 0.44083894485135172 1 I I -0.70710678118654757 0.70710678118654757 0.75 forward I I I I #
loop $-1 $-1 $257 $64 #
coedge $-1 $161 $161 $258 $259 reversed $102 $-1 #
face $-1 $260 $261 $39 $-1 $262 reversed single #
loop $-1 $-1 $263 $104 #
plane-surface $-1 0 -26.986687850754986 0 0 1 0 0 0 1 forward_v I I I I #
coedge $-1 $264 $265 $266 $267 forward $105 $-1 #
coedge $-1 $268 $107 $269 $270 forward $66 $-1 #
coedge $-1 $107 $268 $271 $272 forward $66 $-1 #
coedge $-1 $273 $274 $107 $169 reversed $275 $-1 #
edge $-1 $276 -26.986687850754986 $277 26.986687850754986 $168 $278 forward 7 unknown #
face $-1 $279 $280 $40 $-1 $281 reversed single #
loop $-1 $-1 $282 $108 #
plane-surface $-1 0 0 -9.4894441790947894 0 0 1 1 0 0 forward_v I I I I #
coedge $-1 $283 $284 $285 $286 reversed $109 $-1 #
coedge $-1 $287 $111 $284 $288 forward $69 $-1 #
coedge $-1 $111 $287 $289 $290 reversed $69 $-1 #
coedge $-1 $291 $285 $111 $177 forward $280 $-1 #
edge $-1 $292 4.3188423134247884 $293 16.551511129361728 $176 $294 forward 7 unknown #
face $-1 $295 $296 $41 $-1 $297 reversed single #
loop $-1 $-1 $298 $112 #
plane-surface $-1 0 0 9.4894441790947894 0 0 1 1 0 0 forward_v I I I I #
coedge $-1 $299 $300 $301 $302 reversed $113 $-1 #
coedge $-1 $183 $115 $303 $304 reversed $72 $-1 #
coedge $-1 $115 $182 $299 $305 reversed $72 $-1 #
coedge $-1 $301 $306 $115 $185 forward $307 $-1 #
edge $-1 $308 83.156610745796684 $309 92.254315657144957 $184 $310 forward 7 unknown #
loop $-1 $-1 $191 $116 #
plane-surface $-1 -33.383146002297181 23.91980765866948 86.377178819866486 0.6560590369687036 0 0.75470957328743171 0.75470957328743171 0 -0.6560590369687036 forward_v I I I I #
loop $-1 $-1 $311 $74 #
coedge $-1 $189 $189 $190 $312 reversed $117 $-1 #
coedge $-1 $190 $190 $189 $312 forward $119 $-1 #
coedge $-1 $191 $191 $120 $192 forward $186 $-1 #
edge $-1 $313 0 $313 6.2831853071796004 $191 $314 forward 7 unknown #
loop $-1 $-1 $198 $121 #
plane-surface $-1 -33.383146002297181 23.91980765866948 86.377178819866486 0.6560590369687036 0 0.75470957328743171 0.75470957328743171 0 -0.6560590369687036 forward_v I I I I #
loop $-1 $-1 $315 $77 #
coedge $-1 $196 $196 $197 $316 reversed $122 $-1 #
coedge $-1 $197 $197 $196 $316 forward $124 $-1 #
coedge $-1 $198 $198 $125 $199 forward $193 $-1 #
edge $-1 $317 0 $317 6.2831853071796004 $198 $318 forward 7 unknown #
face $-1 $319 $320 $44 $-1 $321 reversed single #
loop $-1 $-1 $322 $126 #
plane-surface $-1 -142.56901960308932 -4.3188423134247849 106.72621947226176 0 -1 0 0.5877852598018023 0 -0.80901698891910034 forward_v I I I I #
coedge $-1 $323 $324 $325 $326 reversed $127 $-1 #
coedge $-1 $205 $129 $327 $328 reversed $81 $-1 #
coedge $-1 $129 $204 $323 $329 reversed $81 $-1 #
coedge $-1 $325 $330 $129 $207 forward $331 $-1 #
edge $-1 $332 5.7527247739254079 $333 17.859214069696101 $206 $334 forward 7 unknown #
loop $-1 $-1 $213 $130 #
plane-surface $-1 -65.531785027619236 -7.5032283118824807 0.69356466918515025 -0.5877852598018023 0 0.80901698891910034 0.80901698891910034 0 0.5877852598018023 forward_v I I I I #
loop $-1 $-1 $335 $83 #
coedge $-1 $211 $211 $212 $336 reversed $131 $-1 #
coedge $-1 $212 $212 $211 $336 forward $133 $-1 #
coedge $-1 $213 $213 $134 $214 forward $208 $-1 #
edge $-1 $337 0 $337 6.2831853071796004 $213 $338 forward 7 unknown #
face $-1 $339 $340 $46 $-1 $341 forward single #
loop $-1 $-1 $342 $135 #
plane-surface $-1 -142.56901960308932 6.1163344079684734 106.72621947226176 0 -1 0 0.5877852598018023 0 -0.80901698891910034 forward_v I I I I #
coedge $-1 $343 $344 $345 $346 reversed $136 $-1 #
coedge $-1 $220 $138 $347 $348 reversed $87 $-1 #
coedge $-1 $138 $219 $343 $349 reversed $87 $-1 #
coedge $-1 $345 $350 $138 $222 forward $340 $-1 #
edge $-1 $351 5.7527247739254079 $352 17.859214069696101 $221 $353 forward 7 unknown #
loop $-1 $-1 $228 $139 #
plane-surface $-1 -65.531785027619236 2.9319484095107775 0.69356466918515025 -0.5877852598018023 0 0.80901698891910034 0.80901698891910034 0 0.5877852598018023 forward_v I I I I #
loop $-1 $-1 $354 $89 #
coedge $-1 $226 $226 $227 $355 reversed $140 $-1 #
coedge $-1 $227 $227 $226 $355 forward $142 $-1 #
coedge $-1 $228 $228 $143 $229 forward $223 $-1 #
edge $-1 $356 0 $356 6.2831853071796004 $228 $357 forward 7 unknown #
face $-1 $358 $359 $48 $-1 $360 forward single #
loop $-1 $-1 $361 $144 #
plane-surface $-1 -142.56901960308932 16.551511129361728 106.72621947226176 0 -1 0 0.5877852598018023 0 -0.80901698891910034 forward_v I I I I #
coedge $-1 $362 $363 $364 $365 reversed $145 $-1 #
coedge $-1 $235 $147 $366 $367 reversed $93 $-1 #
coedge $-1 $147 $234 $362 $368 reversed $93 $-1 #
coedge $-1 $364 $369 $147 $237 forward $359 $-1 #
edge $-1 $370 5.7527247739254079 $371 17.859214069696101 $236 $372 forward 7 unknown #
loop $-1 $-1 $243 $148 #
plane-surface $-1 -65.531785027619236 13.367125130904032 0.69356466918515025 -0.5877852598018023 0 0.80901698891910034 0.80901698891910034 0 0.5877852598018023 forward_v I I I I #
loop $-1 $-1 $373 $95 #
coedge $-1 $241 $241 $242 $374 reversed $149 $-1 #
coedge $-1 $242 $242 $241 $374 forward $151 $-1 #
coedge $-1 $243 $243 $152 $244 forward $238 $-1 #
edge $-1 $375 0 $375 6.2831853071796004 $243 $376 forward 7 unknown #
face $-1 $377 $378 $50 $-1 $379 reversed single #
loop $-1 $-1 $251 $153 #
plane-surface $-1 0 0 9.4894441790947894 0 0 1 1 0 0 forward_v I I I I #
coedge $-1 $380 $381 $382 $383 reversed $154 $-1 #
coedge $-1 $250 $156 $384 $385 reversed $99 $-1 #
coedge $-1 $156 $249 $380 $386 reversed $99 $-1 #
coedge $-1 $382 $387 $156 $252 forward $246 $-1 #
edge $-1 $388 5.7527247739254079 $389 17.859214069696101 $251 $390 forward 7 unknown #
loop $-1 $-1 $258 $157 #
plane-surface $-1 -65.531785027619236 23.802301852297294 0.69356466918515025 -0.5877852598018023 0 0.80901698891910034 0.80901698891910034 0 0.5877852598018023 forward_v I I I I #
loop $-1 $-1 $391 $101 #
coedge $-1 $256 $256 $257 $392 reversed $158 $-1 #
coedge $-1 $257 $257 $256 $392 forward $160 $-1 #
coedge $-1 $258 $258 $161 $259 forward $253 $-1 #
edge $-1 $393 0 $393 6.2831853071796004 $258 $394 forward 7 unknown #
face $-1 $395 $396 $39 $-1 $397 reversed single #
loop $-1 $-1 $398 $162 #
plane-surface $-1 -65.53178502761925 0 0 1 0 0 0 0 -1 forward_v I I I I #
coedge $-1 $399 $271 $400 $401 forward $163 $-1 #
coedge $-1 $402 $165 $399 $403 forward $105 $-1 #
coedge $-1 $165 $402 $404 $405 forward $105 $-1 #
coedge $-1 $274 $273 $165 $267 reversed $275 $-1 #
edge $-1 $406 -26.986687850754986 $407 26.986687850754986 $266 $408 forward 7 unknown #
coedge $-1 $167 $166 $409 $410 forward $66 $-1 #
coedge $-1 $411 $412 $166 $270 reversed $396 $-1 #
edge $-1 $277 -65.53178502761925 $413 65.53178502761925 $269 $414 forward 7 unknown #
coedge $-1 $263 $415 $167 $272 reversed $163 $-1 #
edge $-1 $416 -65.53178502761925 $276 65.53178502761925 $271 $417 forward 7 unknown #
coedge $-1 $266 $168 $415 $418 forward $275 $-1 #
coedge $-1 $168 $266 $411 $419 reversed $275 $-1 #
loop $-1 $-1 $273 $395 #
vertex $-1 $169 $420 #
vertex $-1 $169 $421 #
straight-curve $-1 65.53178502761925 0 9.4894441790947894 0 1 0 I I #
face $-1 $422 $423 $40 $-1 $424 reversed single #
loop $-1 $-1 $285 $170 #
plane-surface $-1 65.53178502761925 0 0 -1 0 0 0 0 1 forward_v I I I I #
coedge $-1 $425 $426 $283 $427 forward $171 $-1 #
coedge $-1 $428 $173 $282 $427 reversed $109 $-1 #
coedge $-1 $173 $428 $174 $288 reversed $109 $-1 #
coedge $-1 $176 $429 $173 $286 forward $280 $-1 #
edge $-1 $430 -5.5946365249427146 $292 -2.1949787833614365 $285 $431 forward 7 unknown #
coedge $-1 $175 $174 $432 $433 reversed $69 $-1 #
edge $-1 $292 -65.53178502761925 $434 65.53178502761925 $284 $435 forward 7 unknown #
coedge $-1 $436 $437 $175 $290 forward $423 $-1 #
edge $-1 $293 -65.53178502761925 $438 65.53178502761925 $289 $439 forward 7 unknown #
coedge $-1 $429 $176 $437 $440 forward $280 $-1 #
vertex $-1 $177 $441 #
vertex $-1 $440 $442 #
straight-curve $-1 65.53178502761925 -10.435176721393258 -6.0897864375135118 0 -1 0 I I #
face $-1 $-1 $307 $41 $-1 $443 reversed single #
loop $-1 $-1 $444 $178 #
plane-surface $-1 0 26.986687850754986 0 0 -1 0 0 0 -1 forward_v I I I I #
coedge $-1 $303 $445 $446 $447 forward $179 $-1 #
coedge $-1 $446 $181 $183 $305 forward $113 $-1 #
coedge $-1 $181 $446 $444 $448 reversed $113 $-1 #
coedge $-1 $449 $184 $181 $302 forward $307 $-1 #
edge $-1 $309 8.8930236372492342 $450 15.026784021420246 $301 $451 forward 7 unknown #
coedge $-1 $452 $298 $182 $304 forward $179 $-1 #
edge $-1 $453 28.764926167918503 $308 39.230638252707848 $303 $454 forward 7 unknown #
edge $-1 $309 -131.06357005523847 $453 -117.19636543081339 $183 $455 forward 7 unknown #
coedge $-1 $184 $449 $452 $456 reversed $307 $-1 #
loop $-1 $-1 $301 $295 #
vertex $-1 $456 $457 #
vertex $-1 $185 $458 #
straight-curve $-1 65.53178502761925 20.852927466583974 92.646054924891473 0 0 -1 I I #
coedge $-1 $311 $311 $-1 $459 reversed $188 $-1 #
edge $-1 $460 0 $460 6.2831853071796004 $189 $461 forward 7 unknown #
vertex $-1 $192 $462 #
ellipse-curve $-1 60.298928985224578 22.605430433489975 4.9405917234206571 0.6560590369687036 0 0.75470957328743171 0.37735478664371586 0 -0.3280295184843518 1 I I #
coedge $-1 $315 $315 $-1 $463 reversed $195 $-1 #
edge $-1 $464 0 $464 6.2831853071796004 $196 $465 forward 7 unknown #
vertex $-1 $199 $466 #
ellipse-curve $-1 60.298928985224578 25.234184883848979 4.9405917234206571 0.6560590369687036 0 0.75470957328743171 0.37735478664371586 0 -0.3280295184843518 1 I I #
face $-1 $-1 $331 $44 $-1 $467 forward single #
loop $-1 $-1 $468 $200 #
plane-surface $-1 -65.53178502761925 0 0 1 0 0 0 0 -1 forward_v I I I I #
coedge $-1 $469 $470 $471 $472 reversed $201 $-1 #
coedge $-1 $473 $203 $205 $329 forward $127 $-1 #
coedge $-1 $203 $473 $469 $474 forward $127 $-1 #
coedge $-1 $471 $206 $203 $326 forward $331 $-1 #
edge $-1 $333 -6.9360001543989362 $475 -0.56722815748354449 $325 $476 forward 7 unknown #
coedge $-1 $477 $478 $204 $328 forward $320 $-1 #
edge $-1 $479 -52.669545066945737 $332 -43.873665557036091 $327 $480 forward 7 unknown #
edge $-1 $333 -14.964443839363302 $479 1.756574927105486e-014 $205 $481 forward 7 unknown #
coedge $-1 $206 $471 $477 $482 forward $331 $-1 #
loop $-1 $-1 $471 $319 #
vertex $-1 $328 $483 #
vertex $-1 $207 $484 #
straight-curve $-1 -71.284509801544658 -10.687614310340177 9.4894441790947894 1 0 0 I I #
coedge $-1 $335 $335 $-1 $485 reversed $210 $-1 #
edge $-1 $486 0 $486 6.2831853071796004 $211 $487 forward 7 unknown #
vertex $-1 $214 $488 #
ellipse-curve $-1 -59.478540379733907 -7.5032283118824807 5.091504424139961 -0.5877852598018023 0 0.80901698891910034 1.2135254833786506 0 0.88167788970270344 1 I I #
face $-1 $-1 $489 $46 $-1 $490 reversed single #
loop $-1 $-1 $221 $215 #
plane-surface $-1 0 0 9.4894441790947894 0 0 1 1 0 0 forward_v I I I I #
coedge $-1 $491 $492 $493 $494 reversed $216 $-1 #
coedge $-1 $495 $218 $220 $349 forward $136 $-1 #
coedge $-1 $218 $495 $491 $496 forward $136 $-1 #
coedge $-1 $493 $221 $218 $346 forward $340 $-1 #
edge $-1 $352 -1.7184117937023071 $497 4.6503602032130846 $345 $498 forward 7 unknown #
coedge $-1 $499 $500 $219 $348 forward $489 $-1 #
edge $-1 $501 -52.669545066945737 $351 -43.873665557036091 $347 $502 forward 7 unknown #
edge $-1 $352 -14.964443839363302 $501 1.756574927105486e-014 $220 $503 forward 7 unknown #
coedge $-1 $221 $493 $499 $504 forward $340 $-1 #
vertex $-1 $348 $505 #
vertex $-1 $222 $506 #
straight-curve $-1 -71.284509801544658 -0.25243758894691837 9.4894441790947894 1 0 0 I I #
coedge $-1 $354 $354 $-1 $507 reversed $225 $-1 #
edge $-1 $508 0 $508 6.2831853071796004 $226 $509 forward 7 unknown #
vertex $-1 $229 $510 #
ellipse-curve $-1 -59.478540379733907 2.9319484095107775 5.091504424139961 -0.5877852598018023 0 0.80901698891910034 1.2135254833786506 0 0.88167788970270344 1 I I #
face $-1 $-1 $511 $48 $-1 $512 reversed single #
loop $-1 $-1 $236 $230 #
plane-surface $-1 0 0 9.4894441790947894 0 0 1 1 0 0 forward_v I I I I #
coedge $-1 $513 $514 $515 $516 reversed $231 $-1 #
coedge $-1 $517 $233 $235 $368 forward $145 $-1 #
coedge $-1 $233 $517 $513 $518 forward $145 $-1 #
coedge $-1 $515 $236 $233 $365 forward $359 $-1 #
edge $-1 $371 3.4991765669943202 $519 9.867948563909712 $364 $520 forward 7 unknown #
coedge $-1 $521 $522 $234 $367 forward $511 $-1 #
edge $-1 $523 -52.669545066945737 $370 -43.873665557036091 $366 $524 forward 7 unknown #
edge $-1 $371 -14.964443839363302 $523 1.756574927105486e-014 $235 $525 forward 7 unknown #
coedge $-1 $236 $515 $521 $526 forward $359 $-1 #
vertex $-1 $237 $527 #
vertex $-1 $237 $528 #
straight-curve $-1 -71.284509801544658 10.182739132446336 9.4894441790947894 1 0 0 I I #
coedge $-1 $373 $373 $-1 $529 reversed $240 $-1 #
edge $-1 $530 0 $530 6.2831853071796004 $241 $531 forward 7 unknown #
vertex $-1 $244 $532 #
ellipse-curve $-1 -59.478540379733907 13.367125130904032 5.091504424139961 -0.5877852598018023 0 0.80901698891910034 1.2135254833786506 0 0.88167788970270344 1 I I #
face $-1 $-1 $533 $50 $-1 $534 reversed single #
loop $-1 $-1 $535 $245 #
plane-surface $-1 0 26.986687850754986 0 0 -1 0 0 0 -1 forward_v I I I I #
coedge $-1 $536 $248 $250 $386 forward $154 $-1 #
coedge $-1 $248 $536 $535 $537 reversed $154 $-1 #
coedge $-1 $538 $251 $248 $383 forward $246 $-1 #
edge $-1 $389 8.7167649276909511 $539 15.085536924606343 $382 $540 forward 7 unknown #
coedge $-1 $541 $542 $249 $385 forward $533 $-1 #
edge $-1 $543 -52.669545066945737 $388 -43.873665557036091 $384 $544 forward 7 unknown #
edge $-1 $389 -14.964443839363302 $543 1.756574927105486e-014 $250 $545 forward 7 unknown #
coedge $-1 $251 $538 $541 $546 forward $246 $-1 #
vertex $-1 $385 $547 #
vertex $-1 $252 $548 #
straight-curve $-1 -71.284509801544658 20.617915853839598 9.4894441790947894 1 0 0 I I #
coedge $-1 $391 $391 $-1 $549 reversed $255 $-1 #
edge $-1 $550 0 $550 6.2831853071796004 $256 $551 forward 7 unknown #
vertex $-1 $259 $552 #
ellipse-curve $-1 -59.478540379733907 23.802301852297294 5.091504424139961 -0.5877852598018023 0 0.80901698891910034 1.2135254833786506 0 0.88167788970270344 1 I I #
face $-1 $-1 $275 $39 $-1 $553 reversed single #
loop $-1 $-1 $411 $260 #
plane-surface $-1 0 26.986687850754986 0 0 -1 0 0 0 -1 forward_v I I I I #
coedge $-1 $554 $409 $412 $555 forward $261 $-1 #
coedge $-1 $415 $263 $264 $403 reversed $163 $-1 #
coedge $-1 $409 $554 $263 $401 reversed $261 $-1 #
edge $-1 $416 -9.4894441790947894 $556 9.4894441790947894 $400 $557 forward 7 unknown #
coedge $-1 $265 $264 $554 $558 forward $105 $-1 #
edge $-1 $407 -65.53178502761925 $556 65.53178502761925 $399 $559 forward 7 unknown #
coedge $-1 $412 $411 $265 $405 reversed $396 $-1 #
edge $-1 $560 -65.53178502761925 $406 65.53178502761925 $404 $561 forward 7 unknown #
vertex $-1 $267 $562 #
vertex $-1 $418 $563 #
straight-curve $-1 65.53178502761925 0 -9.4894441790947894 0 -1 0 I I #
coedge $-1 $398 $400 $268 $410 reversed $261 $-1 #
edge $-1 $413 -26.986687850754986 $416 26.986687850754986 $409 $564 forward 7 unknown #
coedge $-1 $404 $269 $274 $419 forward $396 $-1 #
coedge $-1 $269 $404 $398 $555 reversed $396 $-1 #
vertex $-1 $270 $565 #
straight-curve $-1 0 26.986687850754986 9.4894441790947894 -1 0 0 I I #
coedge $-1 $271 $399 $273 $418 reversed $163 $-1 #
vertex $-1 $410 $566 #
straight-curve $-1 0 -26.986687850754986 9.4894441790947894 1 0 0 I I #
edge $-1 $276 -9.4894441790947894 $407 9.4894441790947894 $273 $567 forward 7 unknown #
edge $-1 $277 -9.4894441790947894 $406 9.4894441790947894 $274 $568 forward 7 unknown #
point $-1 65.53178502761925 -26.986687850754986 9.4894441790947894 #
point $-1 65.53178502761925 26.986687850754986 9.4894441790947894 #
face $-1 $-1 $569 $40 $-1 $570 reversed single #
loop $-1 $-1 $289 $279 #
plane-surface $-1 0 -26.986687850754986 0 0 1 0 0 0 1 forward_v I I I I #
coedge $-1 $571 $282 $429 $572 forward $171 $-1 #
coedge $-1 $282 $571 $573 $574 forward $171 $-1 #
edge $-1 $575 -65.53178502761925 $430 65.53178502761925 $282 $576 forward 7 unknown #
coedge $-1 $284 $283 $577 $578 reversed $109 $-1 #
coedge $-1 $285 $291 $425 $572 reversed $280 $-1 #
vertex $-1 $572 $579 #
straight-curve $-1 65.53178502761925 -14.754019034818047 -3.8948076541520753 0 0 1 I I #
coedge $-1 $577 $580 $287 $433 forward $569 $-1 #
edge $-1 $438 -16.551511129361728 $434 -4.3188423134247884 $432 $581 forward 7 unknown #
vertex $-1 $433 $582 #
straight-curve $-1 0 -14.754019034818047 -6.0897864375135118 -1 0 0 I I #
coedge $-1 $583 $289 $580 $584 forward $423 $-1 #
coedge $-1 $289 $583 $291 $440 reversed $423 $-1 #
vertex $-1 $584 $585 #
straight-curve $-1 0 -26.986687850754986 -6.0897864375135118 -1 0 0 I I #
edge $-1 $293 6.0897864375135118 $586 9.4894441790947894 $291 $587 forward 7 unknown #
point $-1 65.53178502761925 -14.754019034818047 -6.0897864375135118 #
point $-1 65.53178502761925 -26.986687850754986 -6.0897864375135118 #
plane-surface $-1 65.53178502761925 0 0 -1 0 0 0 0 1 forward_v I I I I #
coedge $-1 $588 $589 $300 $448 forward $296 $-1 #
coedge $-1 $298 $452 $588 $590 forward $179 $-1 #
coedge $-1 $300 $299 $298 $447 reversed $113 $-1 #
edge $-1 $591 -15.026784021420246 $453 -8.8930236372492342 $298 $592 forward 7 unknown #
edge $-1 $450 -90.132015741728026 $591 -76.264811117302969 $444 $593 forward 7 unknown #
coedge $-1 $306 $301 $589 $594 reversed $307 $-1 #
vertex $-1 $302 $595 #
straight-curve $-1 65.53178502761925 11.95990382933474 0.39173926774652301 0 1 0 I I #
coedge $-1 $445 $303 $306 $456 forward $179 $-1 #
vertex $-1 $304 $596 #
straight-curve $-1 26.301146774911402 20.852927466583974 9.4894441790947894 1 0 0 I I #
straight-curve $-1 -33.383146002297181 20.852927466583974 86.377178819866486 -0.75470957328743171 0 0.6560590369687036 I I #
edge $-1 $308 20.852927466583974 $597 26.986687850754986 $306 $598 forward 7 unknown #
point $-1 65.53178502761925 20.852927466583974 9.4894441790947894 #
point $-1 65.531785027619264 20.852927466583974 0.39173926774651591 #
edge $-1 $599 1 $599 0 $311 $-1 forward 7 unknown #
vertex $-1 $312 $600 #
ellipse-curve $-1 59.0251329119817 22.605430433489975 3.4752569948050693 0.6560590369687036 0 0.75470957328743171 0.37735478664371586 0 -0.3280295184843518 1 I I #
point $-1 60.676283771868277 22.605430433489975 4.6125622049362889 #
edge $-1 $601 1 $601 0 $315 $-1 forward 7 unknown #
vertex $-1 $316 $602 #
ellipse-curve $-1 59.0251329119817 25.234184883848979 3.4752569948050693 0.6560590369687036 0 0.75470957328743171 0.37735478664371586 0 -0.3280295184843518 1 I I #
point $-1 60.676283771868277 25.234184883848979 4.6125622049362889 #
plane-surface $-1 0 0 9.4894441790947894 0 0 1 1 0 0 forward_v I I I I #
coedge $-1 $478 $477 $470 $603 forward $320 $-1 #
coedge $-1 $470 $322 $324 $474 reversed $201 $-1 #
coedge $-1 $322 $469 $468 $603 reversed $201 $-1 #
coedge $-1 $330 $325 $322 $472 forward $331 $-1 #
edge $-1 $475 -17.859214069696101 $604 -5.7527247739254079 $471 $605 forward 7 unknown #
coedge $-1 $324 $323 $478 $606 reversed $127 $-1 #
edge $-1 $607 -1.756574927105486e-014 $475 14.964443839363302 $469 $608 forward 7 unknown #
vertex $-1 $326 $609 #
straight-curve $-1 -53.425295731848557 -3.7516141559412404 9.4894441790947894 0 1 0 I I #
coedge $-1 $468 $327 $330 $482 reversed $320 $-1 #
coedge $-1 $327 $468 $473 $606 forward $320 $-1 #
vertex $-1 $328 $610 #
straight-curve $-1 -65.53178502761925 -10.687614310340177 53.36310973613088 0 0 1 I I #
straight-curve $-1 -65.531785027619236 -10.687614310340177 0.69356466918515025 -0.80901698891910034 0 -0.5877852598018023 I I #
edge $-1 $604 4.3188423134247849 $332 10.687614310340177 $477 $611 forward 7 unknown #
point $-1 -65.53178502761925 -10.687614310340177 9.4894441790947894 #
point $-1 -53.425295731848557 -10.687614310340177 9.4894441790947894 #
edge $-1 $612 1 $612 0 $335 $-1 forward 7 unknown #
vertex $-1 $336 $613 #
ellipse-curve $-1 -56.042883784110266 -7.5032283118824807 0.36272889327905533 -0.5877852598018023 0 0.80901698891910034 1.2135254833786506 0 0.88167788970270344 1 I I #
point $-1 -58.265014896355261 -7.5032283118824807 5.9731823138426732 #
loop $-1 $-1 $347 $339 #
plane-surface $-1 -65.53178502761925 0 0 1 0 0 0 0 -1 forward_v I I I I #
coedge $-1 $492 $342 $344 $496 reversed $216 $-1 #
coedge $-1 $342 $491 $614 $615 reversed $216 $-1 #
coedge $-1 $350 $345 $342 $494 forward $340 $-1 #
edge $-1 $497 -17.859214069696101 $616 -5.7527247739254079 $493 $617 forward 7 unknown #
coedge $-1 $344 $343 $500 $618 reversed $136 $-1 #
edge $-1 $619 -1.756574927105486e-014 $497 14.964443839363302 $491 $620 forward 7 unknown #
vertex $-1 $346 $621 #
straight-curve $-1 -53.425295731848557 1.4659742047553888 9.4894441790947894 0 1 0 I I #
coedge $-1 $614 $347 $350 $504 reversed $489 $-1 #
coedge $-1 $347 $614 $495 $618 forward $489 $-1 #
vertex $-1 $348 $622 #
straight-curve $-1 -65.53178502761925 -0.25243758894691837 53.36310973613088 0 0 1 I I #
straight-curve $-1 -65.531785027619236 -0.25243758894691837 0.69356466918515025 -0.80901698891910034 0 -0.5877852598018023 I I #
edge $-1 $616 -6.1163344079684734 $351 0.25243758894691837 $499 $623 forward 7 unknown #
point $-1 -65.53178502761925 -0.25243758894691837 9.4894441790947894 #
point $-1 -53.425295731848557 -0.25243758894691837 9.4894441790947894 #
edge $-1 $624 1 $624 0 $354 $-1 forward 7 unknown #
vertex $-1 $355 $625 #
ellipse-curve $-1 -56.042883784110266 2.9319484095107775 0.36272889327905533 -0.5877852598018023 0 0.80901698891910034 1.2135254833786506 0 0.88167788970270344 1 I I #
point $-1 -58.265014896355261 2.9319484095107775 5.9731823138426732 #
loop $-1 $-1 $366 $358 #
plane-surface $-1 -65.53178502761925 0 0 1 0 0 0 0 -1 forward_v I I I I #
coedge $-1 $514 $361 $363 $518 reversed $231 $-1 #
coedge $-1 $361 $513 $626 $627 reversed $231 $-1 #
coedge $-1 $369 $364 $361 $516 forward $359 $-1 #
edge $-1 $519 -17.859214069696101 $628 -5.7527247739254079 $515 $629 forward 7 unknown #
coedge $-1 $363 $362 $522 $630 reversed $145 $-1 #
edge $-1 $631 -1.756574927105486e-014 $519 14.964443839363302 $513 $632 forward 7 unknown #
vertex $-1 $365 $633 #
straight-curve $-1 -53.425295731848557 6.6835625654520161 9.4894441790947894 0 1 0 I I #
coedge $-1 $626 $366 $369 $526 reversed $511 $-1 #
coedge $-1 $366 $626 $517 $630 forward $511 $-1 #
vertex $-1 $367 $634 #
straight-curve $-1 -65.53178502761925 10.182739132446336 53.36310973613088 0 0 1 I I #
straight-curve $-1 -65.531785027619236 10.182739132446336 0.69356466918515025 -0.80901698891910034 0 -0.5877852598018023 I I #
edge $-1 $628 -16.551511129361728 $370 -10.182739132446336 $521 $635 forward 7 unknown #
point $-1 -65.53178502761925 10.182739132446336 9.4894441790947894 #
point $-1 -53.425295731848557 10.182739132446336 9.4894441790947894 #
edge $-1 $636 1 $636 0 $373 $-1 forward 7 unknown #
vertex $-1 $374 $637 #
ellipse-curve $-1 -56.042883784110266 13.367125130904032 0.36272889327905533 -0.5877852598018023 0 0.80901698891910034 1.2135254833786506 0 0.88167788970270344 1 I I #
point $-1 -58.265014896355261 13.367125130904032 5.9731823138426732 #
loop $-1 $-1 $384 $377 #
plane-surface $-1 -65.53178502761925 0 0 1 0 0 0 0 -1 forward_v I I I I #
coedge $-1 $638 $639 $381 $537 forward $378 $-1 #
coedge $-1 $381 $380 $542 $640 reversed $154 $-1 #
edge $-1 $539 11.339886316772674 $641 26.304330156135993 $535 $642 forward 7 unknown #
coedge $-1 $387 $382 $639 $643 forward $246 $-1 #
vertex $-1 $643 $644 #
straight-curve $-1 -53.425295731848557 11.901150926148647 9.4894441790947894 0 1 0 I I #
coedge $-1 $645 $384 $387 $546 reversed $533 $-1 #
coedge $-1 $384 $645 $536 $640 forward $533 $-1 #
vertex $-1 $385 $646 #
straight-curve $-1 -65.53178502761925 20.617915853839598 53.36310973613088 0 0 1 I I #
straight-curve $-1 -65.531785027619236 20.617915853839598 0.69356466918515025 -0.80901698891910034 0 -0.5877852598018023 I I #
edge $-1 $647 -26.986687850754986 $388 -20.617915853839598 $541 $648 forward 7 unknown #
point $-1 -65.53178502761925 20.617915853839598 9.4894441790947894 #
point $-1 -53.425295731848557 20.617915853839598 9.4894441790947894 #
edge $-1 $649 1 $649 0 $391 $-1 forward 7 unknown #
vertex $-1 $392 $650 #
ellipse-curve $-1 -56.042883784110266 23.802301852297294 0.36272889327905533 -0.5877852598018023 0 0.80901698891910034 1.2135254833786506 0 0.88167788970270344 1 I I #
point $-1 -58.265014896355261 23.802301852297294 5.9731823138426732 #
plane-surface $-1 65.53178502761925 0 0 -1 0 0 0 0 1 forward_v I I I I #
coedge $-1 $400 $398 $402 $558 reversed $261 $-1 #
edge $-1 $413 -9.4894441790947894 $560 9.4894441790947894 $412 $651 forward 7 unknown #
vertex $-1 $558 $652 #
straight-curve $-1 -65.53178502761925 -26.986687850754986 0 0 0 -1 I I #
edge $-1 $556 -26.986687850754986 $560 26.986687850754986 $554 $653 forward 7 unknown #
straight-curve $-1 0 -26.986687850754986 -9.4894441790947894 -1 0 0 I I #
vertex $-1 $405 $654 #
straight-curve $-1 0 26.986687850754986 -9.4894441790947894 1 0 0 I I #
point $-1 65.53178502761925 26.986687850754986 -9.4894441790947894 #
point $-1 65.53178502761925 -26.986687850754986 -9.4894441790947894 #
straight-curve $-1 -65.53178502761925 0 9.4894441790947894 0 -1 0 I I #
point $-1 -65.53178502761925 26.986687850754986 9.4894441790947894 #
point $-1 -65.53178502761925 -26.986687850754986 9.4894441790947894 #
straight-curve $-1 65.53178502761925 -26.986687850754986 0 0 0 -1 I I #
straight-curve $-1 65.53178502761925 26.986687850754986 0 0 0 -1 I I #
loop $-1 $-1 $577 $422 #
plane-surface $-1 -65.53178502761925 0 0 1 0 0 0 0 -1 forward_v I I I I #
coedge $-1 $426 $425 $583 $655 forward $171 $-1 #
edge $-1 $430 14.754019034818047 $586 26.986687850754986 $429 $656 forward 7 unknown #
coedge $-1 $580 $577 $426 $574 reversed $569 $-1 #
edge $-1 $657 -26.986687850754986 $575 -14.754019034818047 $573 $658 forward 7 unknown #
vertex $-1 $578 $659 #
straight-curve $-1 0 -14.754019034818047 -9.4894441790947894 1 0 0 I I #
coedge $-1 $573 $432 $428 $578 forward $569 $-1 #
edge $-1 $434 2.1949787833614365 $575 5.5946365249427146 $577 $660 forward 7 unknown #
point $-1 65.53178502761925 -14.754019034818047 -9.4894441790947894 #
coedge $-1 $432 $573 $436 $584 reversed $569 $-1 #
straight-curve $-1 -65.53178502761925 -10.435176721393258 -6.0897864375135118 0 1 0 I I #
point $-1 -65.53178502761925 -14.754019034818047 -6.0897864375135118 #
coedge $-1 $437 $436 $571 $655 reversed $423 $-1 #
edge $-1 $438 6.0897864375135118 $657 9.4894441790947894 $580 $661 forward 7 unknown #
point $-1 -65.53178502761925 -26.986687850754986 -6.0897864375135118 #
vertex $-1 $440 $662 #
straight-curve $-1 65.53178502761925 -26.986687850754986 0 0 0 -1 I I #
coedge $-1 $589 $444 $445 $590 reversed $296 $-1 #
coedge $-1 $444 $588 $449 $594 forward $296 $-1 #
edge $-1 $597 -65.53178502761925 $591 -55.066072942829905 $588 $663 forward 7 unknown #
vertex $-1 $447 $664 #
straight-curve $-1 55.066072942829898 11.95990382933474 9.4894441790947965 0 -1 0 I I #
straight-curve $-1 -2.4917101123563938 26.986687850754986 59.523662715312653 -0.75470957328743171 0 0.6560590369687036 I I #
edge $-1 $597 -9.4894441790947894 $450 -0.39173926774653267 $449 $665 forward 7 unknown #
point $-1 65.53178502761925 26.986687850754986 0.39173926774653267 #
point $-1 55.066072942829905 20.852927466583974 9.4894441790947894 #
vertex $-1 $456 $666 #
straight-curve $-1 65.53178502761925 0 9.4894441790947894 0 1 0 I I #
vertex $-1 $459 $667 #
point $-1 59.402487698625414 22.605430433489975 3.1472274763207175 #
vertex $-1 $463 $668 #
point $-1 59.402487698625414 25.234184883848979 3.1472274763207175 #
edge $-1 $604 43.873665557036091 $607 52.669545066945737 $468 $669 forward 7 unknown #
vertex $-1 $482 $670 #
straight-curve $-1 -71.284509801544658 -4.3188423134247849 9.4894441790947894 -1 0 0 I I #
edge $-1 $607 0.56722815748354449 $479 6.9360001543989362 $478 $671 forward 7 unknown #
vertex $-1 $606 $672 #
straight-curve $-1 -65.531785027619236 -4.3188423134247849 0.69356466918515025 0.80901698891910034 0 0.5877852598018023 I I #
point $-1 -53.425295731848557 -4.3188423134247849 9.4894441790947894 #
point $-1 -65.53178502761925 -10.687614310340177 0.69356466918513993 #
straight-curve $-1 -65.53178502761925 0 9.4894441790947894 0 -1 0 I I #
vertex $-1 $485 $673 #
point $-1 -54.82935830073162 -7.5032283118824807 1.2444067829817587 #
coedge $-1 $500 $499 $492 $615 forward $489 $-1 #
edge $-1 $616 43.873665557036091 $619 52.669545066945737 $614 $674 forward 7 unknown #
vertex $-1 $504 $675 #
straight-curve $-1 -71.284509801544658 6.1163344079684734 9.4894441790947894 -1 0 0 I I #
edge $-1 $619 -4.6503602032130846 $501 1.7184117937023071 $500 $676 forward 7 unknown #
vertex $-1 $618 $677 #
straight-curve $-1 -65.531785027619236 6.1163344079684734 0.69356466918515025 0.80901698891910034 0 0.5877852598018023 I I #
point $-1 -53.425295731848557 6.1163344079684734 9.4894441790947894 #
point $-1 -65.53178502761925 -0.25243758894691837 0.69356466918513993 #
straight-curve $-1 -65.53178502761925 0 9.4894441790947894 0 -1 0 I I #
vertex $-1 $507 $678 #
point $-1 -54.82935830073162 2.9319484095107775 1.2444067829817587 #
coedge $-1 $522 $521 $514 $627 forward $511 $-1 #
edge $-1 $628 43.873665557036091 $631 52.669545066945737 $626 $679 forward 7 unknown #
vertex $-1 $526 $680 #
straight-curve $-1 -71.284509801544658 16.551511129361728 9.4894441790947894 -1 0 0 I I #
edge $-1 $631 -9.867948563909712 $523 -3.4991765669943202 $522 $681 forward 7 unknown #
vertex $-1 $630 $682 #
straight-curve $-1 -65.531785027619236 16.551511129361728 0.69356466918515025 0.80901698891910034 0 0.5877852598018023 I I #
point $-1 -53.425295731848557 16.551511129361728 9.4894441790947894 #
point $-1 -65.53178502761925 10.182739132446336 0.69356466918513993 #
straight-curve $-1 -65.53178502761925 0 9.4894441790947894 0 -1 0 I I #
vertex $-1 $529 $683 #
point $-1 -54.82935830073162 13.367125130904032 1.2444067829817587 #
coedge $-1 $639 $535 $645 $684 reversed $378 $-1 #
coedge $-1 $535 $638 $538 $643 reversed $378 $-1 #
edge $-1 $641 -15.085536924606343 $543 -8.7167649276909511 $542 $685 forward 7 unknown #
vertex $-1 $537 $686 #
straight-curve $-1 -44.251135049168219 26.986687850754986 16.154862203921915 -0.80901698891910034 0 -0.5877852598018023 I I #
edge $-1 $539 53.425295731848557 $647 65.53178502761925 $639 $687 forward 7 unknown #
point $-1 -53.425295731848557 26.98668785075499 9.4894441790947894 #
coedge $-1 $542 $541 $638 $684 forward $533 $-1 #
point $-1 -65.53178502761925 20.617915853839598 0.69356466918513993 #
vertex $-1 $643 $688 #
straight-curve $-1 -65.53178502761925 0 9.4894441790947894 0 -1 0 I I #
vertex $-1 $549 $689 #
point $-1 -54.82935830073162 23.802301852297294 1.2444067829817587 #
straight-curve $-1 -65.53178502761925 26.986687850754986 0 0 0 -1 I I #
point $-1 -65.53178502761925 -26.986687850754986 -9.4894441790947894 #
straight-curve $-1 -65.53178502761925 0 -9.4894441790947894 0 1 0 I I #
point $-1 -65.53178502761925 26.986687850754986 -9.4894441790947894 #
edge $-1 $586 -65.53178502761925 $657 65.53178502761925 $583 $690 forward 7 unknown #
straight-curve $-1 65.53178502761925 0 -9.4894441790947894 0 -1 0 I I #
vertex $-1 $574 $691 #
straight-curve $-1 -65.53178502761925 0 -9.4894441790947894 0 1 0 I I #
point $-1 -65.53178502761925 -14.754019034818047 -9.4894441790947894 #
straight-curve $-1 -65.53178502761925 -14.754019034818047 -3.8948076541520753 0 0 -1 I I #
straight-curve $-1 -65.53178502761925 -26.986687850754986 0 0 0 -1 I I #
point $-1 65.53178502761925 -26.986687850754986 -9.4894441790947894 #
straight-curve $-1 0 26.986687850754986 9.4894441790947894 -1 0 0 I I #
point $-1 55.066072942829905 26.986687850754986 9.4894441790947894 #
straight-curve $-1 65.53178502761925 26.986687850754986 0 0 0 -1 I I #
point $-1 65.53178502761925 26.986687850754986 9.4894441790947894 #
point $-1 58.697103393497343 22.605430433489975 3.0979022081613534 #
point $-1 58.697103393497343 25.234184883848979 3.0979022081613534 #
straight-curve $-1 -65.53178502761925 -4.3188423134247849 53.36310973613088 0 0 -1 I I #
point $-1 -65.53178502761925 -4.3188423134247849 9.4894441790947894 #
straight-curve $-1 -65.53178502761925 -3.7516141559412404 0.69356466918513593 0 -1 0 I I #
point $-1 -65.53178502761925 -4.3188423134247849 0.69356466918513993 #
point $-1 -55.161205894407566 -7.5032283118824807 -0.8507965900995953 #
straight-curve $-1 -65.53178502761925 6.1163344079684734 53.36310973613088 0 0 -1 I I #
point $-1 -65.53178502761925 6.1163344079684734 9.4894441790947894 #
straight-curve $-1 -65.53178502761925 1.4659742047553888 0.69356466918513593 0 -1 0 I I #
point $-1 -65.53178502761925 6.1163344079684734 0.69356466918513993 #
point $-1 -55.161205894407566 2.9319484095107775 -0.8507965900995953 #
straight-curve $-1 -65.53178502761925 16.551511129361728 53.36310973613088 0 0 -1 I I #
point $-1 -65.53178502761925 16.551511129361728 9.4894441790947894 #
straight-curve $-1 -65.53178502761925 6.6835625654520161 0.69356466918513593 0 -1 0 I I #
point $-1 -65.53178502761925 16.551511129361728 0.69356466918513993 #
point $-1 -55.161205894407566 13.367125130904032 -0.8507965900995953 #
edge $-1 $647 -9.4894441790947894 $641 -0.69356466918513993 $638 $692 forward 7 unknown #
straight-curve $-1 -65.53178502761925 11.901150926148647 0.69356466918513593 0 -1 0 I I #
point $-1 -65.53178502761925 26.98668785075499 0.69356466918513993 #
straight-curve $-1 0 26.986687850754986 9.4894441790947894 -1 0 0 I I #
point $-1 -65.53178502761925 26.986687850754986 9.4894441790947894 #
point $-1 -55.161205894407566 23.802301852297294 -0.8507965900995953 #
straight-curve $-1 0 -26.986687850754986 -9.4894441790947894 -1 0 0 I I #
point $-1 -65.53178502761925 -26.986687850754986 -9.4894441790947894 #
straight-curve $-1 -65.53178502761925 26.986687850754986 0 0 0 -1 I I #
End-of-ACIS-data 