500 0 3 0           
7 Unknown 11 ACIS 5.0 NT 24 Fri Mar 26 02:14:39 1999 
-1 9.9999999999999995e-007 1e-010 
body $-1 $3 $-1 $4 #
body $-1 $5 $-1 $6 #
body $-1 $7 $-1 $8 #
lump $-1 $-1 $9 $0 #
transform $-1 1 0 0 0 1 0 0 0 1 53.734550004577777 34.561514180928327 11.963787675057151 1 rotate no_reflect no_shear #
lump $-1 $-1 $10 $1 #
transform $-1 1 0 0 0 1 0 0 0 1 53.734550004577777 34.561514180928327 11.963787675057151 1 rotate no_reflect no_shear #
lump $-1 $-1 $11 $2 #
transform $-1 1 0 0 0 1 0 0 0 1 53.734550004577777 34.561514180928327 11.963787675057151 1 rotate no_reflect no_shear #
shell $-1 $-1 $-1 $12 $-1 $3 #
shell $-1 $-1 $-1 $13 $-1 $5 #
shell $-1 $-1 $-1 $14 $-1 $7 #
face $-1 $15 $16 $9 $-1 $17 forward single #
face $-1 $18 $19 $10 $-1 $20 forward single #
face $-1 $21 $22 $11 $-1 $23 reversed single #
face $-1 $24 $25 $9 $-1 $26 reversed single #
loop $-1 $-1 $27 $12 #
plane-surface $-1 0 0 11.963787675057151 0 0 1 1 0 0 forward_v I I I I #
face $-1 $28 $29 $10 $-1 $30 reversed single #
loop $-1 $-1 $31 $13 #
plane-surface $-1 -53.734550004577777 0 0 1 0 0 0 0 -1 forward_v I I I I #
face $-1 $32 $33 $11 $-1 $34 reversed single #
loop $-1 $-1 $35 $14 #
plane-surface $-1 47.687468183666375 0 6.3067384035400629 0 0 1 1 0 0 forward_v I I I I #
face $-1 $36 $37 $9 $-1 $38 reversed single #
loop $-1 $-1 $39 $15 #
plane-surface $-1 0 0 -11.963787675057151 0 0 1 1 0 0 forward_v I I I I #
coedge $-1 $40 $41 $42 $43 forward $16 $-1 #
face $-1 $44 $45 $10 $-1 $46 forward single #
loop $-1 $-1 $47 $18 #
plane-surface $-1 0 34.561514180928327 0 0 -1 0 0 0 -1 forward_v I I I I #
coedge $-1 $48 $49 $50 $51 forward $19 $-1 #
face $-1 $52 $53 $11 $-1 $54 reversed single #
loop $-1 $-1 $55 $21 #
plane-surface $-1 41.640386362754981 0 9.1352630392986072 1 0 0 0 0 -1 forward_v I I I I #
coedge $-1 $56 $57 $58 $59 reversed $22 $-1 #
face $-1 $60 $61 $9 $-1 $62 reversed single #
loop $-1 $-1 $63 $24 #
plane-surface $-1 0 -34.561514180928327 0 0 1 0 0 0 1 forward_v I I I I #
coedge $-1 $64 $65 $66 $67 forward $25 $-1 #
coedge $-1 $68 $27 $69 $70 forward $16 $-1 #
coedge $-1 $27 $68 $71 $72 forward $16 $-1 #
coedge $-1 $73 $74 $27 $43 reversed $75 $-1 #
edge $-1 $76 -34.561514180928327 $77 34.561514180928327 $42 $78 forward 7 unknown #
face $-1 $79 $80 $10 $-1 $81 reversed single #
loop $-1 $-1 $50 $28 #
plane-surface $-1 -57.9880385365339 0 0.44186588010111549 0 0 1 1 0 0 forward_v I I I I #
coedge $-1 $82 $83 $49 $84 forward $29 $-1 #
coedge $-1 $85 $31 $86 $87 reversed $19 $-1 #
coedge $-1 $31 $85 $47 $84 reversed $19 $-1 #
coedge $-1 $88 $89 $31 $51 reversed $45 $-1 #
edge $-1 $90 -34.561514180928327 $91 34.561514180928327 $50 $92 forward 7 unknown #
face $-1 $93 $94 $11 $-1 $95 reversed single #
loop $-1 $-1 $96 $32 #
plane-surface $-1 0 -34.561514180928327 0 0 1 0 0 0 1 forward_v I I I I #
coedge $-1 $97 $98 $99 $100 reversed $33 $-1 #
coedge $-1 $101 $35 $102 $103 reversed $22 $-1 #
coedge $-1 $35 $101 $104 $105 reversed $22 $-1 #
coedge $-1 $106 $107 $35 $59 forward $94 $-1 #
edge $-1 $108 -34.561514180928327 $109 34.561514180928327 $58 $110 forward 7 unknown #
face $-1 $111 $112 $9 $-1 $113 reversed single #
loop $-1 $-1 $114 $36 #
plane-surface $-1 -53.734550004577777 0 0 1 0 0 0 0 -1 forward_v I I I I #
coedge $-1 $115 $71 $116 $117 forward $37 $-1 #
coedge $-1 $118 $39 $115 $119 forward $25 $-1 #
coedge $-1 $39 $118 $120 $121 forward $25 $-1 #
coedge $-1 $74 $73 $39 $67 reversed $75 $-1 #
edge $-1 $122 -34.561514180928327 $123 34.561514180928327 $66 $124 forward 7 unknown #
coedge $-1 $41 $40 $125 $126 forward $16 $-1 #
coedge $-1 $127 $128 $40 $70 reversed $112 $-1 #
edge $-1 $77 -53.734550004577777 $129 53.734550004577777 $69 $130 forward 7 unknown #
coedge $-1 $63 $131 $41 $72 reversed $37 $-1 #
edge $-1 $132 -53.734550004577777 $76 53.734550004577777 $71 $133 forward 7 unknown #
coedge $-1 $66 $42 $131 $134 forward $75 $-1 #
coedge $-1 $42 $66 $127 $135 reversed $75 $-1 #
loop $-1 $-1 $73 $111 #
vertex $-1 $43 $136 #
vertex $-1 $43 $137 #
straight-curve $-1 53.734550004577777 0 11.963787675057151 0 1 0 I I #
face $-1 $138 $139 $10 $-1 $140 reversed single #
loop $-1 $-1 $141 $44 #
plane-surface $-1 -57.9880385365339 0 -6.5564770833343644 0 0 1 1 0 0 forward_v I I I I #
coedge $-1 $142 $47 $143 $144 reversed $29 $-1 #
coedge $-1 $47 $142 $88 $145 reversed $29 $-1 #
edge $-1 $90 -0.44186588010111549 $146 6.5564770833343644 $47 $147 forward 7 unknown #
coedge $-1 $49 $48 $141 $148 forward $19 $-1 #
coedge $-1 $149 $150 $48 $87 forward $151 $-1 #
edge $-1 $152 -6.5564770833343644 $91 0.44186588010111549 $86 $153 forward 7 unknown #
coedge $-1 $154 $50 $83 $145 forward $45 $-1 #
coedge $-1 $50 $154 $149 $155 forward $45 $-1 #
vertex $-1 $84 $156 #
vertex $-1 $155 $157 #
straight-curve $-1 -53.734550004577777 0 0.44186588010111549 0 -1 0 I I #
face $-1 $158 $159 $11 $-1 $160 forward single #
loop $-1 $-1 $58 $52 #
plane-surface $-1 53.734550004577777 0 0 -1 0 0 0 0 1 forward_v I I I I #
coedge $-1 $102 $161 $162 $163 forward $53 $-1 #
coedge $-1 $162 $55 $101 $164 reversed $33 $-1 #
coedge $-1 $55 $162 $165 $166 reversed $33 $-1 #
coedge $-1 $167 $104 $55 $100 forward $168 $-1 #
edge $-1 $169 1.7391068838907593 $170 7.3961561554078479 $99 $171 forward 7 unknown #
coedge $-1 $57 $56 $97 $164 forward $22 $-1 #
coedge $-1 $172 $96 $56 $103 forward $53 $-1 #
edge $-1 $173 17.796652270921793 $108 29.890815912744582 $102 $174 forward 7 unknown #
coedge $-1 $99 $175 $57 $105 forward $168 $-1 #
edge $-1 $109 -29.890815912744582 $169 -17.796652270921793 $104 $176 forward 7 unknown #
coedge $-1 $177 $58 $175 $178 reversed $94 $-1 #
coedge $-1 $58 $177 $172 $179 forward $94 $-1 #
vertex $-1 $59 $180 #
vertex $-1 $59 $181 #
straight-curve $-1 53.734550004577777 0 6.3067384035400629 0 1 0 I I #
face $-1 $-1 $75 $9 $-1 $182 reversed single #
loop $-1 $-1 $127 $60 #
plane-surface $-1 0 34.561514180928327 0 0 -1 0 0 0 -1 forward_v I I I I #
coedge $-1 $183 $125 $128 $184 forward $61 $-1 #
coedge $-1 $131 $63 $64 $119 reversed $37 $-1 #
coedge $-1 $125 $183 $63 $117 reversed $61 $-1 #
edge $-1 $132 -11.963787675057151 $185 11.963787675057151 $116 $186 forward 7 unknown #
coedge $-1 $65 $64 $183 $187 forward $25 $-1 #
edge $-1 $123 -53.734550004577777 $185 53.734550004577777 $115 $188 forward 7 unknown #
coedge $-1 $128 $127 $65 $121 reversed $112 $-1 #
edge $-1 $189 -53.734550004577777 $122 53.734550004577777 $120 $190 forward 7 unknown #
vertex $-1 $67 $191 #
vertex $-1 $134 $192 #
straight-curve $-1 53.734550004577777 0 -11.963787675057151 0 -1 0 I I #
coedge $-1 $114 $116 $68 $126 reversed $61 $-1 #
edge $-1 $129 -34.561514180928327 $132 34.561514180928327 $125 $193 forward 7 unknown #
coedge $-1 $120 $69 $74 $135 forward $112 $-1 #
coedge $-1 $69 $120 $114 $184 reversed $112 $-1 #
vertex $-1 $70 $194 #
straight-curve $-1 0 34.561514180928327 11.963787675057151 -1 0 0 I I #
coedge $-1 $71 $115 $73 $134 reversed $37 $-1 #
vertex $-1 $126 $195 #
straight-curve $-1 0 -34.561514180928327 11.963787675057151 1 0 0 I I #
edge $-1 $76 -11.963787675057151 $123 11.963787675057151 $73 $196 forward 7 unknown #
edge $-1 $77 -11.963787675057151 $122 11.963787675057151 $74 $197 forward 7 unknown #
point $-1 53.734550004577777 -34.561514180928327 11.963787675057151 #
point $-1 53.734550004577777 34.561514180928327 11.963787675057151 #
face $-1 $-1 $151 $10 $-1 $198 reversed single #
loop $-1 $-1 $199 $79 #
plane-surface $-1 -62.241527068490022 0 -3.0573056016166245 1 0 0 0 0 -1 forward_v I I I I #
coedge $-1 $200 $143 $85 $148 reversed $80 $-1 #
coedge $-1 $83 $82 $199 $201 reversed $29 $-1 #
coedge $-1 $141 $202 $82 $144 forward $80 $-1 #
edge $-1 $203 -4.2534885319561226 $146 4.2534885319561226 $82 $204 forward 7 unknown #
edge $-1 $90 -4.2534885319561226 $205 4.2534885319561226 $83 $206 forward 7 unknown #
vertex $-1 $84 $207 #
straight-curve $-1 -53.734550004577777 34.561514180928327 0 0 0 -1 I I #
edge $-1 $152 -34.561514180928327 $146 34.561514180928327 $141 $208 forward 7 unknown #
coedge $-1 $209 $86 $89 $155 reversed $151 $-1 #
coedge $-1 $86 $209 $200 $210 reversed $151 $-1 #
loop $-1 $-1 $86 $138 #
vertex $-1 $87 $211 #
straight-curve $-1 -53.734550004577777 -34.561514180928327 0 0 0 1 I I #
coedge $-1 $89 $88 $212 $213 forward $45 $-1 #
edge $-1 $214 -4.2534885319561226 $91 4.2534885319561226 $149 $215 forward 7 unknown #
point $-1 -53.734550004577777 34.561514180928327 0.44186588010111549 #
point $-1 -53.734550004577777 -34.561514180928327 0.44186588010111549 #
face $-1 $-1 $168 $11 $-1 $216 reversed single #
loop $-1 $-1 $165 $93 #
plane-surface $-1 0 0 11.963787675057151 0 0 1 1 0 0 forward_v I I I I #
coedge $-1 $96 $172 $217 $218 reversed $53 $-1 #
coedge $-1 $98 $97 $96 $163 reversed $33 $-1 #
edge $-1 $219 -7.3961561554078479 $173 -1.7391068838907593 $96 $220 forward 7 unknown #
edge $-1 $173 -34.561514180928327 $169 34.561514180928327 $97 $221 forward 7 unknown #
coedge $-1 $217 $222 $98 $166 forward $159 $-1 #
edge $-1 $170 -34.561514180928327 $219 34.561514180928327 $165 $223 forward 7 unknown #
coedge $-1 $175 $99 $222 $224 reversed $168 $-1 #
loop $-1 $-1 $99 $158 #
vertex $-1 $105 $225 #
vertex $-1 $100 $226 #
straight-curve $-1 41.640386362754981 34.561514180928327 4.5676315196493036 0 0 1 I I #
coedge $-1 $161 $102 $107 $179 reversed $53 $-1 #
vertex $-1 $103 $227 #
straight-curve $-1 23.843734091833188 -34.561514180928327 6.3067384035400629 1 0 0 I I #
coedge $-1 $104 $167 $106 $178 forward $168 $-1 #
straight-curve $-1 23.843734091833188 34.561514180928327 6.3067384035400629 -1 0 0 I I #
coedge $-1 $107 $106 $228 $229 reversed $94 $-1 #
edge $-1 $230 -11.963787675057151 $109 -6.3067384035400629 $106 $231 forward 7 unknown #
edge $-1 $232 -11.963787675057151 $108 -6.3067384035400629 $107 $233 forward 7 unknown #
point $-1 53.73455000457777 -34.561514180928327 6.3067384035400629 #
point $-1 53.73455000457777 34.561514180928327 6.3067384035400629 #
plane-surface $-1 53.734550004577777 0 0 -1 0 0 0 0 1 forward_v I I I I #
coedge $-1 $116 $114 $118 $187 reversed $61 $-1 #
edge $-1 $129 -11.963787675057151 $189 11.963787675057151 $128 $234 forward 7 unknown #
vertex $-1 $187 $235 #
straight-curve $-1 -53.734550004577777 -34.561514180928327 0 0 0 -1 I I #
edge $-1 $185 -34.561514180928327 $189 34.561514180928327 $183 $236 forward 7 unknown #
straight-curve $-1 0 -34.561514180928327 -11.963787675057151 -1 0 0 I I #
vertex $-1 $121 $237 #
straight-curve $-1 0 34.561514180928327 -11.963787675057151 1 0 0 I I #
point $-1 53.734550004577777 34.561514180928327 -11.963787675057151 #
point $-1 53.734550004577777 -34.561514180928327 -11.963787675057151 #
straight-curve $-1 -53.734550004577777 0 11.963787675057151 0 -1 0 I I #
point $-1 -53.734550004577777 34.561514180928327 11.963787675057151 #
point $-1 -53.734550004577777 -34.561514180928327 11.963787675057151 #
straight-curve $-1 53.734550004577777 -34.561514180928327 0 0 0 -1 I I #
straight-curve $-1 53.734550004577777 34.561514180928327 0 0 0 -1 I I #
plane-surface $-1 0 -34.561514180928327 0 0 1 0 0 0 1 forward_v I I I I #
coedge $-1 $238 $212 $142 $201 forward $139 $-1 #
coedge $-1 $202 $141 $150 $210 forward $80 $-1 #
edge $-1 $205 -3.49917148171774 $203 3.49917148171774 $142 $239 forward 7 unknown #
coedge $-1 $143 $200 $238 $240 forward $80 $-1 #
vertex $-1 $144 $241 #
straight-curve $-1 -57.9880385365339 34.561514180928327 -6.5564770833343644 1 0 0 I I #
vertex $-1 $145 $242 #
straight-curve $-1 -57.9880385365339 34.561514180928327 0.44186588010111549 -1 0 0 I I #
point $-1 -53.734550004577777 34.561514180928327 -6.5564770833343644 #
straight-curve $-1 -53.734550004577777 0 -6.5564770833343644 0 1 0 I I #
coedge $-1 $150 $149 $243 $244 forward $151 $-1 #
edge $-1 $152 -4.2534885319561226 $245 4.2534885319561226 $150 $246 forward 7 unknown #
point $-1 -53.734550004577777 -34.561514180928327 -6.5564770833343644 #
coedge $-1 $199 $243 $154 $213 reversed $139 $-1 #
edge $-1 $205 -34.561514180928327 $214 34.561514180928327 $212 $247 forward 7 unknown #
vertex $-1 $213 $248 #
straight-curve $-1 -57.9880385365339 -34.561514180928327 0.44186588010111549 1 0 0 I I #
plane-surface $-1 0 34.561514180928327 0 0 -1 0 0 0 -1 forward_v I I I I #
coedge $-1 $228 $165 $161 $218 forward $159 $-1 #
edge $-1 $219 41.640386362754981 $232 53.734550004577777 $161 $249 forward 7 unknown #
vertex $-1 $218 $250 #
straight-curve $-1 41.640386362754981 -34.561514180928327 4.5676315196493036 0 0 -1 I I #
straight-curve $-1 41.640386362754981 0 6.3067384035400629 0 1 0 I I #
coedge $-1 $165 $228 $167 $224 forward $159 $-1 #
straight-curve $-1 41.640386362754981 0 11.963787675057151 0 -1 0 I I #
edge $-1 $230 -53.734550004577777 $170 -41.640386362754981 $167 $251 forward 7 unknown #
point $-1 41.640386362754981 34.561514180928327 6.3067384035400629 #
point $-1 41.640386362754981 34.561514180928327 11.963787675057151 #
point $-1 41.640386362754981 -34.561514180928327 6.3067384035400629 #
coedge $-1 $222 $217 $177 $229 forward $159 $-1 #
edge $-1 $232 -34.561514180928327 $230 34.561514180928327 $177 $252 forward 7 unknown #
vertex $-1 $229 $253 #
straight-curve $-1 53.734550004577777 34.561514180928327 0 0 0 -1 I I #
vertex $-1 $229 $254 #
straight-curve $-1 53.734550004577777 -34.561514180928327 0 0 0 -1 I I #
straight-curve $-1 -53.734550004577777 34.561514180928327 0 0 0 -1 I I #
point $-1 -53.734550004577777 -34.561514180928327 -11.963787675057151 #
straight-curve $-1 -53.734550004577777 0 -11.963787675057151 0 1 0 I I #
point $-1 -53.734550004577777 34.561514180928327 -11.963787675057151 #
coedge $-1 $243 $199 $202 $240 reversed $139 $-1 #
straight-curve $-1 -62.241527068490022 34.561514180928327 -3.0573056016166245 0 0 -1 I I #
edge $-1 $245 -34.561514180928327 $203 34.561514180928327 $238 $255 forward 7 unknown #
point $-1 -62.241527068490022 34.561514180928327 -6.5564770833343644 #
point $-1 -62.241527068490022 34.561514180928327 0.44186588010111549 #
coedge $-1 $212 $238 $209 $244 reversed $139 $-1 #
edge $-1 $214 -3.49917148171774 $245 3.49917148171774 $243 $256 forward 7 unknown #
vertex $-1 $240 $257 #
straight-curve $-1 -57.9880385365339 -34.561514180928327 -6.5564770833343644 -1 0 0 I I #
straight-curve $-1 -62.241527068490022 0 0.44186588010111549 0 -1 0 I I #
point $-1 -62.241527068490022 -34.561514180928327 0.44186588010111549 #
straight-curve $-1 0 -34.561514180928327 11.963787675057151 1 0 0 I I #
point $-1 41.640386362754981 -34.561514180928327 11.963787675057151 #
straight-curve $-1 0 34.561514180928327 11.963787675057151 -1 0 0 I I #
straight-curve $-1 53.734550004577777 0 11.963787675057151 0 1 0 I I #
point $-1 53.734550004577777 34.561514180928327 11.963787675057151 #
point $-1 53.734550004577777 -34.561514180928327 11.963787675057151 #
straight-curve $-1 -62.241527068490022 0 -6.5564770833343644 0 1 0 I I #
straight-curve $-1 -62.241527068490022 -34.561514180928327 -3.0573056016166245 0 0 -1 I I #
point $-1 -62.241527068490022 -34.561514180928327 -6.5564770833343644 #
End-of-ACIS-data 