500 0 7 0           
7 Unknown 11 ACIS 5.0 NT 24 Thu Mar 25 16:58:21 1999 
-1 9.9999999999999995e-007 1e-010 
body $-1 $7 $-1 $8 #
body $-1 $9 $-1 $10 #
body $-1 $11 $-1 $12 #
body $-1 $13 $-1 $14 #
body $-1 $15 $-1 $16 #
body $-1 $17 $-1 $18 #
body $-1 $19 $-1 $20 #
lump $-1 $-1 $21 $0 #
transform $-1 1 0 0 0 1 0 0 0 1 72.477797784356213 29.078710922338345 8.9846978054454212 1 rotate no_reflect no_shear #
lump $-1 $-1 $22 $1 #
transform $-1 1 0 0 0 1 0 0 0 1 72.477797784356213 29.078710922338345 8.9846978054454212 1 rotate no_reflect no_shear #
lump $-1 $-1 $23 $2 #
transform $-1 1 0 0 0 1 0 0 0 1 72.477797784356213 29.078710922338345 8.9846978054454212 1 rotate no_reflect no_shear #
lump $-1 $-1 $24 $3 #
transform $-1 1 0 0 0 1 0 0 0 1 72.477797784356213 29.078710922338345 8.9846978054454212 1 rotate no_reflect no_shear #
lump $-1 $-1 $25 $4 #
transform $-1 1 0 0 0 1 0 0 0 1 72.477797784356213 29.078710922338345 8.9846978054454212 1 rotate no_reflect no_shear #
lump $-1 $-1 $26 $5 #
transform $-1 1 0 0 0 1 0 0 0 1 72.477797784356213 29.078710922338345 8.9846978054454212 1 rotate no_reflect no_shear #
lump $-1 $-1 $27 $6 #
transform $-1 1 0 0 0 1 0 0 0 1 72.477797784356213 29.078710922338345 8.9846978054454212 1 rotate no_reflect no_shear #
shell $-1 $-1 $-1 $28 $-1 $7 #
shell $-1 $-1 $-1 $29 $-1 $9 #
shell $-1 $-1 $-1 $30 $-1 $11 #
shell $-1 $-1 $-1 $31 $-1 $13 #
shell $-1 $-1 $-1 $32 $-1 $15 #
shell $-1 $-1 $-1 $33 $-1 $17 #
shell $-1 $-1 $-1 $34 $-1 $19 #
face $-1 $35 $36 $21 $-1 $37 forward single #
face $-1 $38 $39 $22 $-1 $40 forward single #
face $-1 $41 $42 $23 $-1 $43 reversed single #
face $-1 $44 $45 $24 $-1 $46 forward single #
face $-1 $47 $48 $25 $-1 $49 reversed single #
face $-1 $50 $51 $26 $-1 $52 forward single #
face $-1 $53 $54 $27 $-1 $55 forward single #
face $-1 $56 $57 $21 $-1 $58 reversed single #
loop $-1 $-1 $59 $28 #
plane-surface $-1 0 0 8.9846978054454212 0 0 1 1 0 0 forward_v I I I I #
face $-1 $60 $61 $22 $-1 $62 reversed single #
loop $-1 $-1 $63 $29 #
plane-surface $-1 -67.773437762423001 0 -5.9846978054454212 0 0 1 1 0 0 forward_v I I I I #
face $-1 $64 $65 $23 $-1 $66 reversed single #
loop $-1 $-1 $67 $30 #
plane-surface $-1 -63.069077740489796 92.951501898442302 146.15742416504298 1 0 0 0 -0.71933980857756763 -0.69465836192734942 forward_v I I I I #
face $-1 $68 $69 $24 $-1 $70 forward single #
loop $-1 $71 $72 $31 #
cone-surface $-1 -51.043517130897719 25.838129351506115 5.6746580048284478 0 -0.71933980857756763 -0.69465836192734942 1 0 0 1 I I 0 1 1 forward I I I I #
face $-1 $73 $74 $25 $-1 $75 reversed single #
loop $-1 $-1 $76 $32 #
plane-surface $-1 54.112050607917837 -129.77332991195365 105.71247641898867 -1 0 0 0 -0.69465837861970381 0.71933979245794832 forward_v I I I I #
face $-1 $77 $78 $26 $-1 $79 forward single #
loop $-1 $80 $81 $33 #
cone-surface $-1 26.100463718166111 -23.918504046383323 3.9139694375093721 0 0.69465837861970381 -0.71933979245794832 1.5 0 0 1 I I 0 1 1.5 forward I I I I #
face $-1 $82 $83 $27 $-1 $84 forward single #
loop $-1 $85 $86 $34 #
cone-surface $-1 42.907415852017138 -23.918504046383323 3.9139694375093721 0 0.69465837861970381 -0.71933979245794832 1.5 0 0 1 I I 0 1 1.5 forward I I I I #
face $-1 $87 $88 $21 $-1 $89 reversed single #
loop $-1 $-1 $90 $35 #
plane-surface $-1 0 0 -8.9846978054454212 0 0 1 1 0 0 forward_v I I I I #
coedge $-1 $91 $92 $93 $94 forward $36 $-1 #
face $-1 $95 $96 $22 $-1 $97 reversed single #
loop $-1 $-1 $98 $38 #
plane-surface $-1 -63.069077740489789 0 -7.4846978054454212 -1 0 0 0 0 1 forward_v I I I I #
coedge $-1 $99 $100 $101 $102 forward $39 $-1 #
face $-1 $103 $104 $23 $-1 $105 reversed single #
loop $-1 $-1 $106 $41 #
plane-surface $-1 -51.043517130897719 -11.320828470202599 45.462807595077862 0 0.71933980857756763 0.69465836192734942 1 0 0 forward_v I I I I #
coedge $-1 $107 $108 $109 $110 reversed $42 $-1 #
face $-1 $-1 $111 $24 $-1 $112 forward single #
loop $-1 $113 $114 $44 #
cone-surface $-1 -51.043517130897719 24.824397415696112 4.6957084769888766 0 -0.71933980857756763 -0.69465836192734942 0.5 0 0 1 I I -0.70710678118654746 0.70710678118654746 0.5 forward I I I I #
loop $-1 $-1 $115 $31 #
coedge $-1 $72 $72 $116 $117 reversed $45 $-1 #
face $-1 $118 $119 $25 $-1 $120 reversed single #
loop $-1 $-1 $121 $47 #
plane-surface $-1 34.503939785091632 -29.07871092233836 1.4401483869727798 0 -0.69465837861970381 0.71933979245794832 1 0 0 forward_v I I I I #
coedge $-1 $122 $123 $124 $125 reversed $48 $-1 #
face $-1 $-1 $126 $26 $-1 $127 forward single #
loop $-1 $128 $129 $50 #
cone-surface $-1 26.100463718166111 -22.143608111137368 2.076010934466181 0 0.69465837861970381 -0.71933979245794832 0.75 0 0 1 I I -0.70710678118654757 0.70710678118654757 0.75 forward I I I I #
loop $-1 $-1 $130 $33 #
coedge $-1 $81 $81 $131 $132 reversed $51 $-1 #
face $-1 $-1 $133 $27 $-1 $134 forward single #
loop $-1 $135 $136 $53 #
cone-surface $-1 42.907415852017138 -22.143608111137368 2.076010934466181 0 0.69465837861970381 -0.71933979245794832 0.75 0 0 1 I I -0.70710678118654757 0.70710678118654757 0.75 forward I I I I #
loop $-1 $-1 $137 $34 #
coedge $-1 $86 $86 $138 $139 reversed $54 $-1 #
face $-1 $140 $141 $21 $-1 $142 reversed single #
loop $-1 $-1 $143 $56 #
plane-surface $-1 0 -29.078710922338345 0 0 1 0 0 0 1 forward_v I I I I #
coedge $-1 $144 $145 $146 $147 forward $57 $-1 #
coedge $-1 $148 $59 $149 $150 forward $36 $-1 #
coedge $-1 $59 $148 $151 $152 forward $36 $-1 #
coedge $-1 $153 $154 $59 $94 reversed $155 $-1 #
edge $-1 $156 -29.078710922338345 $157 29.078710922338345 $93 $158 forward 7 unknown #
face $-1 $159 $160 $22 $-1 $161 reversed single #
loop $-1 $-1 $162 $60 #
plane-surface $-1 0 0 -8.9846978054454212 0 0 1 1 0 0 forward_v I I I I #
coedge $-1 $163 $101 $164 $165 reversed $61 $-1 #
coedge $-1 $166 $63 $167 $168 reversed $39 $-1 #
coedge $-1 $63 $166 $169 $170 reversed $39 $-1 #
coedge $-1 $98 $171 $63 $102 reversed $61 $-1 #
edge $-1 $172 -29.078710922338345 $173 29.078710922338345 $101 $174 forward 7 unknown #
face $-1 $175 $176 $23 $-1 $177 reversed single #
loop $-1 $-1 $178 $64 #
plane-surface $-1 -39.017956521305642 92.951501898442302 146.15742416504298 -1 0 0 0 0.71933980857756763 0.69465836192734942 forward_v I I I I #
coedge $-1 $179 $180 $181 $182 reversed $65 $-1 #
coedge $-1 $108 $67 $183 $184 reversed $42 $-1 #
coedge $-1 $67 $107 $179 $185 reversed $42 $-1 #
coedge $-1 $181 $186 $67 $110 forward $187 $-1 #
edge $-1 $188 17.397040026882806 $189 22.570079105504803 $109 $190 forward 7 unknown #
loop $-1 $-1 $116 $68 #
plane-surface $-1 -51.043517130897719 -11.320828470202599 45.462807595077862 0 0.71933980857756763 0.69465836192734942 1 0 0 forward_v I I I I #
loop $-1 $-1 $191 $44 #
coedge $-1 $114 $114 $115 $192 reversed $69 $-1 #
coedge $-1 $115 $115 $114 $192 forward $71 $-1 #
coedge $-1 $116 $116 $72 $117 forward $111 $-1 #
edge $-1 $193 -2.0047152877573836e-016 $193 6.2831853071796004 $116 $194 forward 7 unknown #
face $-1 $195 $196 $25 $-1 $197 forward single #
loop $-1 $-1 $198 $73 #
plane-surface $-1 14.895828962265426 -129.77332991195365 105.71247641898867 1 0 0 0 0.69465837861970381 -0.71933979245794832 forward_v I I I I #
coedge $-1 $199 $200 $201 $202 reversed $74 $-1 #
coedge $-1 $123 $76 $203 $204 reversed $48 $-1 #
coedge $-1 $76 $122 $199 $205 reversed $48 $-1 #
coedge $-1 $201 $206 $76 $125 forward $196 $-1 #
edge $-1 $207 35.807954033638481 $208 43.620563482986157 $124 $209 forward 7 unknown #
loop $-1 $-1 $131 $77 #
plane-surface $-1 34.503939785091632 -29.07871092233836 1.4401483869727798 0 -0.69465837861970381 0.71933979245794832 1 0 0 forward_v I I I I #
loop $-1 $-1 $210 $50 #
coedge $-1 $129 $129 $130 $211 reversed $78 $-1 #
coedge $-1 $130 $130 $129 $211 forward $80 $-1 #
coedge $-1 $131 $131 $81 $132 forward $126 $-1 #
edge $-1 $212 -1.1755038308709547e-015 $212 6.2831853071795996 $131 $213 forward 7 unknown #
loop $-1 $-1 $138 $82 #
plane-surface $-1 34.503939785091632 -29.07871092233836 1.4401483869727798 0 -0.69465837861970381 0.71933979245794832 1 0 0 forward_v I I I I #
loop $-1 $-1 $214 $53 #
coedge $-1 $136 $136 $137 $215 reversed $83 $-1 #
coedge $-1 $137 $137 $136 $215 forward $85 $-1 #
coedge $-1 $138 $138 $86 $139 forward $133 $-1 #
edge $-1 $216 -1.1755038308709547e-015 $216 6.2831853071795996 $138 $217 forward 7 unknown #
face $-1 $218 $219 $21 $-1 $220 reversed single #
loop $-1 $-1 $221 $87 #
plane-surface $-1 -72.477797784356213 0 0 1 0 0 0 0 -1 forward_v I I I I #
coedge $-1 $222 $151 $223 $224 forward $88 $-1 #
coedge $-1 $225 $90 $222 $226 forward $57 $-1 #
coedge $-1 $90 $225 $227 $228 forward $57 $-1 #
coedge $-1 $154 $153 $90 $147 reversed $155 $-1 #
edge $-1 $229 -29.078710922338345 $230 29.078710922338345 $146 $231 forward 7 unknown #
coedge $-1 $92 $91 $232 $233 forward $36 $-1 #
coedge $-1 $234 $235 $91 $150 reversed $219 $-1 #
edge $-1 $157 -72.477797784356213 $236 72.477797784356213 $149 $237 forward 7 unknown #
coedge $-1 $143 $238 $92 $152 reversed $88 $-1 #
edge $-1 $239 -72.477797784356213 $156 72.477797784356213 $151 $240 forward 7 unknown #
coedge $-1 $146 $93 $238 $241 forward $155 $-1 #
coedge $-1 $93 $146 $234 $242 reversed $155 $-1 #
loop $-1 $-1 $153 $218 #
vertex $-1 $94 $243 #
vertex $-1 $94 $244 #
straight-curve $-1 72.477797784356213 0 8.9846978054454212 0 1 0 I I #
face $-1 $245 $246 $22 $-1 $247 reversed single #
loop $-1 $-1 $164 $95 #
plane-surface $-1 0 -29.078710922338345 0 0 1 0 0 0 1 forward_v I I I I #
coedge $-1 $248 $249 $163 $250 forward $96 $-1 #
coedge $-1 $171 $98 $162 $250 reversed $61 $-1 #
coedge $-1 $169 $251 $98 $165 forward $160 $-1 #
edge $-1 $252 -5.2423489027227106 $172 -2.2423489027227106 $164 $253 forward 7 unknown #
coedge $-1 $100 $99 $254 $255 reversed $39 $-1 #
coedge $-1 $256 $257 $99 $168 forward $258 $-1 #
edge $-1 $259 -38.591078903144712 $173 -29.182358859278288 $167 $260 forward 7 unknown #
coedge $-1 $261 $164 $100 $170 forward $160 $-1 #
edge $-1 $172 29.182358859278288 $262 38.591078903144712 $169 $263 forward 7 unknown #
coedge $-1 $101 $163 $256 $264 reversed $61 $-1 #
vertex $-1 $170 $265 #
vertex $-1 $168 $266 #
straight-curve $-1 -63.069077740489789 0 -5.9846978054454212 0 1 0 I I #
face $-1 $-1 $187 $23 $-1 $267 forward single #
loop $-1 $-1 $268 $103 #
plane-surface $-1 0 29.078710922338345 0 0 -1 0 0 0 -1 forward_v I I I I #
coedge $-1 $269 $270 $271 $272 reversed $104 $-1 #
coedge $-1 $273 $106 $108 $185 forward $65 $-1 #
coedge $-1 $106 $273 $269 $274 forward $65 $-1 #
coedge $-1 $271 $109 $106 $182 forward $187 $-1 #
edge $-1 $189 -37.54731917504094 $275 -13.496197955856783 $181 $276 forward 7 unknown #
coedge $-1 $277 $278 $107 $184 forward $176 $-1 #
edge $-1 $279 -69.450853184558184 $188 -64.09401427707607 $183 $280 forward 7 unknown #
edge $-1 $189 50.710539517845888 $279 58.157421844676669 $108 $281 forward 7 unknown #
coedge $-1 $109 $271 $277 $282 forward $187 $-1 #
loop $-1 $-1 $271 $175 #
vertex $-1 $184 $283 #
vertex $-1 $110 $284 #
straight-curve $-1 -63.069077740489796 46.475750949221151 8.9846978054454212 0 -1 0 I I #
coedge $-1 $191 $191 $-1 $285 reversed $113 $-1 #
edge $-1 $286 0 $286 6.2831853071796004 $114 $287 forward 7 unknown #
vertex $-1 $117 $288 #
ellipse-curve $-1 -51.043517130897719 26.49219138302735 6.3062783517043606 0 0.71933980857756763 0.69465836192734942 1 0 0 1 I I #
face $-1 $-1 $289 $25 $-1 $290 reversed single #
loop $-1 $-1 $124 $118 #
plane-surface $-1 0 0 8.9846978054454212 0 0 1 1 0 0 forward_v I I I I #
coedge $-1 $291 $292 $293 $294 reversed $119 $-1 #
coedge $-1 $295 $121 $123 $205 forward $74 $-1 #
coedge $-1 $121 $295 $291 $296 forward $74 $-1 #
coedge $-1 $293 $124 $121 $202 forward $196 $-1 #
edge $-1 $208 -36.860080715372021 $297 2.3561409302803895 $201 $298 forward 7 unknown #
coedge $-1 $299 $300 $122 $204 forward $289 $-1 #
edge $-1 $301 -51.416089822521542 $207 -43.871540404048915 $203 $302 forward 7 unknown #
edge $-1 $208 -10.860805326301207 $301 -1.9785632286268914e-014 $123 $303 forward 7 unknown #
coedge $-1 $124 $293 $299 $304 forward $196 $-1 #
vertex $-1 $125 $305 #
vertex $-1 $125 $306 #
straight-curve $-1 54.112050607917837 -64.886664955976826 8.9846978054454212 0 1 0 I I #
coedge $-1 $210 $210 $-1 $307 reversed $128 $-1 #
edge $-1 $308 0 $308 6.2831853071796004 $129 $309 forward 7 unknown #
vertex $-1 $132 $310 #
ellipse-curve $-1 26.100463718166111 -25.172406197664504 5.2124230962091085 0 -0.69465837861970381 0.71933979245794832 1.5 0 0 1 I I #
coedge $-1 $214 $214 $-1 $311 reversed $135 $-1 #
edge $-1 $312 0 $312 6.2831853071796004 $136 $313 forward 7 unknown #
vertex $-1 $139 $314 #
ellipse-curve $-1 42.907415852017138 -25.172406197664504 5.2124230962091085 0 -0.69465837861970381 0.71933979245794832 1.5 0 0 1 I I #
face $-1 $-1 $155 $21 $-1 $315 reversed single #
loop $-1 $-1 $234 $140 #
plane-surface $-1 0 29.078710922338345 0 0 -1 0 0 0 -1 forward_v I I I I #
coedge $-1 $316 $232 $235 $317 forward $141 $-1 #
coedge $-1 $238 $143 $144 $226 reversed $88 $-1 #
coedge $-1 $232 $316 $143 $224 reversed $141 $-1 #
edge $-1 $239 -8.9846978054454212 $318 8.9846978054454212 $223 $319 forward 7 unknown #
coedge $-1 $145 $144 $316 $320 forward $57 $-1 #
edge $-1 $230 -72.477797784356213 $318 72.477797784356213 $222 $321 forward 7 unknown #
coedge $-1 $235 $234 $145 $228 reversed $219 $-1 #
edge $-1 $322 -72.477797784356213 $229 72.477797784356213 $227 $323 forward 7 unknown #
vertex $-1 $147 $324 #
vertex $-1 $241 $325 #
straight-curve $-1 72.477797784356213 0 -8.9846978054454212 0 -1 0 I I #
coedge $-1 $221 $223 $148 $233 reversed $141 $-1 #
edge $-1 $236 -29.078710922338345 $239 29.078710922338345 $232 $326 forward 7 unknown #
coedge $-1 $227 $149 $154 $242 forward $219 $-1 #
coedge $-1 $149 $227 $221 $317 reversed $219 $-1 #
vertex $-1 $150 $327 #
straight-curve $-1 0 29.078710922338345 8.9846978054454212 -1 0 0 I I #
coedge $-1 $151 $222 $153 $241 reversed $88 $-1 #
vertex $-1 $233 $328 #
straight-curve $-1 0 -29.078710922338345 8.9846978054454212 1 0 0 I I #
edge $-1 $156 -8.9846978054454212 $230 8.9846978054454212 $153 $329 forward 7 unknown #
edge $-1 $157 -8.9846978054454212 $229 8.9846978054454212 $154 $330 forward 7 unknown #
point $-1 72.477797784356213 -29.078710922338345 8.9846978054454212 #
point $-1 72.477797784356213 29.078710922338345 8.9846978054454212 #
face $-1 $-1 $258 $22 $-1 $331 reversed single #
loop $-1 $-1 $254 $159 #
plane-surface $-1 -72.477797784356213 0 0 1 0 0 0 0 -1 forward_v I I I I #
coedge $-1 $332 $162 $251 $333 forward $96 $-1 #
coedge $-1 $162 $332 $334 $335 forward $96 $-1 #
edge $-1 $336 -29.078710922338345 $252 29.078710922338345 $162 $337 forward 7 unknown #
coedge $-1 $164 $261 $248 $333 reversed $160 $-1 #
vertex $-1 $333 $338 #
straight-curve $-1 -63.069077740489789 -29.078710922338345 -3.7423489027227106 0 0 1 I I #
coedge $-1 $339 $340 $166 $255 forward $246 $-1 #
edge $-1 $262 -29.078710922338345 $259 29.078710922338345 $254 $341 forward 7 unknown #
coedge $-1 $334 $167 $171 $264 forward $258 $-1 #
coedge $-1 $167 $334 $339 $342 reversed $258 $-1 #
loop $-1 $-1 $256 $245 #
vertex $-1 $342 $343 #
straight-curve $-1 -33.8867188812115 29.078710922338345 -5.9846978054454212 1 0 0 I I #
coedge $-1 $251 $169 $340 $344 forward $160 $-1 #
vertex $-1 $344 $345 #
straight-curve $-1 -33.8867188812115 -29.078710922338345 -5.9846978054454212 -1 0 0 I I #
edge $-1 $173 2.2423489027227106 $336 5.2423489027227106 $256 $346 forward 7 unknown #
point $-1 -63.069077740489789 -29.078710922338345 -5.9846978054454212 #
point $-1 -63.069077740489789 29.078710922338345 -5.9846978054454212 #
plane-surface $-1 0 0 8.9846978054454212 0 0 1 1 0 0 forward_v I I I I #
coedge $-1 $278 $277 $270 $347 forward $176 $-1 #
coedge $-1 $270 $178 $180 $274 reversed $104 $-1 #
coedge $-1 $178 $269 $268 $347 reversed $104 $-1 #
coedge $-1 $186 $181 $178 $272 forward $187 $-1 #
edge $-1 $275 -22.570079105504803 $348 -17.397040026882806 $271 $349 forward 7 unknown #
coedge $-1 $180 $179 $278 $350 reversed $65 $-1 #
edge $-1 $351 -58.157421844676669 $275 -50.710539517845888 $269 $352 forward 7 unknown #
vertex $-1 $182 $353 #
straight-curve $-1 -25.521758565448859 23.905671843716341 8.9846978054454283 1 0 0 I I #
coedge $-1 $268 $183 $186 $282 reversed $176 $-1 #
coedge $-1 $183 $268 $273 $350 forward $176 $-1 #
vertex $-1 $184 $354 #
straight-curve $-1 -63.069077740489796 29.078710922338345 73.078712082521491 0 0 1 I I #
straight-curve $-1 -63.069077740489796 -11.320828470202599 45.462807595077862 0 0.69465836192734942 -0.71933980857756763 I I #
edge $-1 $348 39.017956521305642 $188 63.069077740489796 $277 $355 forward 7 unknown #
point $-1 -63.069077740489796 29.078710922338345 8.9846978054454212 #
point $-1 -63.069077740489796 23.905671843716348 8.9846978054454212 #
edge $-1 $356 1 $356 0 $191 $-1 forward 7 unknown #
vertex $-1 $192 $357 #
ellipse-curve $-1 -51.043517130897719 25.184067319984894 5.0430376579525511 0 0.71933980857756763 0.69465836192734942 1 0 0 1 I I #
point $-1 -50.043517130897719 26.492191383027333 6.3062783517043437 #
loop $-1 $-1 $203 $195 #
plane-surface $-1 0 -29.078710922338345 0 0 1 0 0 0 1 forward_v I I I I #
coedge $-1 $292 $198 $200 $296 reversed $119 $-1 #
coedge $-1 $198 $291 $358 $359 reversed $119 $-1 #
coedge $-1 $206 $201 $198 $294 forward $196 $-1 #
edge $-1 $297 -43.620563482986157 $360 -35.807954033638481 $293 $361 forward 7 unknown #
coedge $-1 $200 $199 $300 $362 reversed $74 $-1 #
edge $-1 $363 1.9785632286268914e-014 $297 10.860805326301207 $291 $364 forward 7 unknown #
vertex $-1 $202 $365 #
straight-curve $-1 17.251969892545816 -21.266101472990666 8.9846978054454212 -1 0 0 I I #
coedge $-1 $358 $203 $206 $304 reversed $289 $-1 #
coedge $-1 $203 $358 $295 $362 forward $289 $-1 #
vertex $-1 $204 $366 #
straight-curve $-1 54.112050607917837 -29.078710922338345 52.856238209494336 0 0 1 I I #
straight-curve $-1 54.112050607917837 -29.07871092233836 1.4401483869727798 0 -0.71933979245794832 -0.69465837861970381 I I #
edge $-1 $360 14.895828962265426 $207 54.112050607917837 $299 $367 forward 7 unknown #
point $-1 54.112050607917837 -29.078710922338345 8.9846978054454212 #
point $-1 54.112050607917837 -21.26610147299067 8.9846978054454212 #
edge $-1 $368 1 $368 0 $210 $-1 forward 7 unknown #
vertex $-1 $211 $369 #
ellipse-curve $-1 26.100463718166111 -22.664601895102145 2.6155157788096424 0 -0.69465837861970381 0.71933979245794832 1.5 0 0 1 I I #
point $-1 27.600463718166111 -25.1724061976645 5.2124230962091023 #
edge $-1 $370 1 $370 0 $214 $-1 forward 7 unknown #
vertex $-1 $215 $371 #
ellipse-curve $-1 42.907415852017138 -22.664601895102145 2.6155157788096424 0 -0.69465837861970381 0.71933979245794832 1.5 0 0 1 I I #
point $-1 44.407415852017138 -25.1724061976645 5.2124230962091023 #
plane-surface $-1 72.477797784356213 0 0 -1 0 0 0 0 1 forward_v I I I I #
coedge $-1 $223 $221 $225 $320 reversed $141 $-1 #
edge $-1 $236 -8.9846978054454212 $322 8.9846978054454212 $235 $372 forward 7 unknown #
vertex $-1 $320 $373 #
straight-curve $-1 -72.477797784356213 -29.078710922338345 0 0 0 -1 I I #
edge $-1 $318 -29.078710922338345 $322 29.078710922338345 $316 $374 forward 7 unknown #
straight-curve $-1 0 -29.078710922338345 -8.9846978054454212 -1 0 0 I I #
vertex $-1 $228 $375 #
straight-curve $-1 0 29.078710922338345 -8.9846978054454212 1 0 0 I I #
point $-1 72.477797784356213 29.078710922338345 -8.9846978054454212 #
point $-1 72.477797784356213 -29.078710922338345 -8.9846978054454212 #
straight-curve $-1 -72.477797784356213 0 8.9846978054454212 0 -1 0 I I #
point $-1 -72.477797784356213 29.078710922338345 8.9846978054454212 #
point $-1 -72.477797784356213 -29.078710922338345 8.9846978054454212 #
straight-curve $-1 72.477797784356213 -29.078710922338345 0 0 0 -1 I I #
straight-curve $-1 72.477797784356213 29.078710922338345 0 0 0 -1 I I #
plane-surface $-1 0 29.078710922338345 0 0 -1 0 0 0 -1 forward_v I I I I #
coedge $-1 $249 $248 $376 $377 forward $96 $-1 #
edge $-1 $252 63.069077740489789 $378 72.477797784356213 $251 $379 forward 7 unknown #
coedge $-1 $257 $256 $249 $335 reversed $258 $-1 #
edge $-1 $380 -72.477797784356213 $336 -63.069077740489789 $334 $381 forward 7 unknown #
vertex $-1 $264 $382 #
straight-curve $-1 -63.069077740489789 0 -8.9846978054454212 0 -1 0 I I #
point $-1 -63.069077740489789 -29.078710922338345 -8.9846978054454212 #
coedge $-1 $376 $254 $257 $342 forward $246 $-1 #
coedge $-1 $254 $376 $261 $344 reversed $246 $-1 #
straight-curve $-1 -72.477797784356213 0 -5.9846978054454212 0 1 0 I I #
edge $-1 $259 5.9846978054454212 $380 8.9846978054454212 $257 $383 forward 7 unknown #
point $-1 -72.477797784356213 29.078710922338345 -5.9846978054454212 #
edge $-1 $262 5.9846978054454212 $378 8.9846978054454212 $340 $384 forward 7 unknown #
point $-1 -72.477797784356213 -29.078710922338345 -5.9846978054454212 #
straight-curve $-1 -63.069077740489789 29.078710922338345 -3.7423489027227106 0 0 -1 I I #
edge $-1 $348 64.09401427707607 $351 69.450853184558184 $268 $385 forward 7 unknown #
vertex $-1 $282 $386 #
straight-curve $-1 -39.017956521305642 46.475750949221151 8.9846978054454212 0 1 0 I I #
edge $-1 $351 13.496197955856783 $279 37.54731917504094 $278 $387 forward 7 unknown #
vertex $-1 $350 $388 #
straight-curve $-1 -39.017956521305642 -11.320828470202599 45.462807595077862 0 -0.69465836192734942 0.71933980857756763 I I #
point $-1 -39.017956521305642 23.905671843716348 8.9846978054454212 #
point $-1 -63.069077740489796 29.078710922338345 3.6278588979633 #
straight-curve $-1 0 29.078710922338345 8.9846978054454212 -1 0 0 I I #
vertex $-1 $285 $389 #
point $-1 -50.043517130897719 25.184067319984894 5.0430376579525511 #
coedge $-1 $300 $299 $292 $359 forward $289 $-1 #
edge $-1 $360 43.871540404048915 $363 51.416089822521542 $358 $390 forward 7 unknown #
vertex $-1 $304 $391 #
straight-curve $-1 14.895828962265426 -64.886664955976826 8.9846978054454212 0 -1 0 I I #
edge $-1 $363 -2.3561409302803895 $301 36.860080715372021 $300 $392 forward 7 unknown #
vertex $-1 $362 $393 #
straight-curve $-1 14.895828962265426 -29.07871092233836 1.4401483869727798 0 0.71933979245794832 0.69465837861970381 I I #
point $-1 14.895828962265426 -21.26610147299067 8.9846978054454212 #
point $-1 54.112050607917837 -29.078710922338345 1.4401483869727936 #
straight-curve $-1 0 -29.078710922338345 8.9846978054454212 1 0 0 I I #
vertex $-1 $307 $394 #
point $-1 27.600463718166111 -22.664601895102145 2.6155157788096424 #
vertex $-1 $311 $395 #
point $-1 44.407415852017138 -22.664601895102145 2.6155157788096424 #
straight-curve $-1 -72.477797784356213 29.078710922338345 0 0 0 -1 I I #
point $-1 -72.477797784356213 -29.078710922338345 -8.9846978054454212 #
straight-curve $-1 -72.477797784356213 0 -8.9846978054454212 0 1 0 I I #
point $-1 -72.477797784356213 29.078710922338345 -8.9846978054454212 #
coedge $-1 $340 $339 $332 $377 reversed $246 $-1 #
edge $-1 $378 -29.078710922338345 $380 29.078710922338345 $376 $396 forward 7 unknown #
vertex $-1 $377 $397 #
straight-curve $-1 0 -29.078710922338345 -8.9846978054454212 -1 0 0 I I #
vertex $-1 $335 $398 #
straight-curve $-1 0 29.078710922338345 -8.9846978054454212 1 0 0 I I #
point $-1 -63.069077740489789 29.078710922338345 -8.9846978054454212 #
straight-curve $-1 -72.477797784356213 29.078710922338345 0 0 0 -1 I I #
straight-curve $-1 -72.477797784356213 -29.078710922338345 0 0 0 -1 I I #
straight-curve $-1 -39.017956521305642 29.078710922338345 73.078712082521491 0 0 -1 I I #
point $-1 -39.017956521305642 29.078710922338345 8.9846978054454212 #
straight-curve $-1 -25.521758565448859 29.078710922338345 3.6278588979633 -1 0 0 I I #
point $-1 -39.017956521305642 29.078710922338345 3.6278588979633 #
point $-1 -51.043517130897719 24.464727511407329 4.3483792960252021 #
straight-curve $-1 14.895828962265426 -29.078710922338345 52.856238209494336 0 0 -1 I I #
point $-1 14.895828962265426 -29.078710922338345 8.9846978054454212 #
straight-curve $-1 17.251969892545816 -29.078710922338345 1.4401483869727929 1 0 0 I I #
point $-1 14.895828962265426 -29.078710922338345 1.4401483869727936 #
point $-1 26.100463718166111 -21.622614327172592 1.5365060901227197 #
point $-1 42.907415852017138 -21.622614327172592 1.5365060901227197 #
straight-curve $-1 -72.477797784356213 0 -8.9846978054454212 0 1 0 I I #
point $-1 -72.477797784356213 -29.078710922338345 -8.9846978054454212 #
point $-1 -72.477797784356213 29.078710922338345 -8.9846978054454212 #
End-of-ACIS-data 