500 0 6 0           
7 Unknown 11 ACIS 5.0 NT 24 Fri Mar 26 18:32:05 1999 
-1 9.9999999999999995e-007 1e-010 
body $-1 $6 $-1 $7 #
body $-1 $8 $-1 $9 #
body $-1 $10 $-1 $11 #
body $-1 $12 $-1 $13 #
body $-1 $14 $-1 $15 #
body $-1 $16 $-1 $17 #
lump $-1 $-1 $18 $0 #
transform $-1 1 0 0 0 1 0 0 0 1 48.539078951384013 33.037889221748472 14.951492522366586 1 rotate no_reflect no_shear #
lump $-1 $-1 $19 $1 #
transform $-1 1 0 0 0 1 0 0 0 1 48.539078951384013 33.037889221748472 14.951492522366586 1 rotate no_reflect no_shear #
lump $-1 $-1 $20 $2 #
transform $-1 1 0 0 0 1 0 0 0 1 48.539078951384013 33.037889221748472 14.951492522366586 1 rotate no_reflect no_shear #
lump $-1 $-1 $21 $3 #
transform $-1 1 0 0 0 1 0 0 0 1 48.539078951384013 33.037889221748472 14.951492522366586 1 rotate no_reflect no_shear #
lump $-1 $-1 $22 $4 #
transform $-1 1 0 0 0 1 0 0 0 1 48.539078951384013 33.037889221748472 14.951492522366586 1 rotate no_reflect no_shear #
lump $-1 $-1 $23 $5 #
transform $-1 1 0 0 0 1 0 0 0 1 48.539078951384013 33.037889221748472 14.951492522366586 1 rotate no_reflect no_shear #
shell $-1 $-1 $-1 $24 $-1 $6 #
shell $-1 $-1 $-1 $25 $-1 $8 #
shell $-1 $-1 $-1 $26 $-1 $10 #
shell $-1 $-1 $-1 $27 $-1 $12 #
shell $-1 $-1 $-1 $28 $-1 $14 #
shell $-1 $-1 $-1 $29 $-1 $16 #
face $-1 $30 $31 $18 $-1 $32 forward single #
face $-1 $33 $34 $19 $-1 $35 forward single #
face $-1 $36 $37 $20 $-1 $38 forward single #
face $-1 $39 $40 $21 $-1 $41 reversed single #
face $-1 $42 $43 $22 $-1 $44 forward single #
face $-1 $45 $46 $23 $-1 $47 forward single #
face $-1 $48 $49 $18 $-1 $50 reversed single #
loop $-1 $-1 $51 $24 #
plane-surface $-1 0 0 14.951492522366586 0 0 1 1 0 0 forward_v I I I I #
face $-1 $52 $53 $19 $-1 $54 reversed single #
loop $-1 $-1 $55 $25 #
plane-surface $-1 0 -33.037889221748472 0 0 1 0 0 0 1 forward_v I I I I #
face $-1 $56 $57 $20 $-1 $58 reversed single #
loop $-1 $-1 $59 $26 #
plane-surface $-1 0 33.037889221748472 0 0 -1 0 0 0 -1 forward_v I I I I #
face $-1 $60 $61 $21 $-1 $62 reversed single #
loop $-1 $-1 $63 $27 #
plane-surface $-1 -125.03771212042003 1.160975813110511 62.310260286582924 0 1 0 -0.78801076186113728 0 0.61566146476048833 forward_v I I I I #
face $-1 $64 $65 $22 $-1 $66 forward single #
loop $-1 $67 $68 $28 #
cone-surface $-1 -43.0117394464406 3.8272415971494453 8.215928025250955 0.78801076186113728 0 -0.61566146476048833 0.30783073238024417 0 0.39400538093056864 1 I I 0 1 0.5 forward I I I I #
face $-1 $69 $70 $23 $-1 $71 forward single #
loop $-1 $72 $73 $29 #
cone-surface $-1 -43.0117394464406 7.8266402732078433 8.215928025250955 0.78801076186113728 0 -0.61566146476048833 0.30783073238024417 0 0.39400538093056864 1 I I 0 1 0.5 forward I I I I #
face $-1 $74 $75 $18 $-1 $76 reversed single #
loop $-1 $-1 $77 $30 #
plane-surface $-1 0 0 -14.951492522366586 0 0 1 1 0 0 forward_v I I I I #
coedge $-1 $78 $79 $80 $81 forward $31 $-1 #
face $-1 $82 $83 $19 $-1 $84 reversed single #
loop $-1 $-1 $85 $33 #
plane-surface $-1 0 0 -14.951492522366586 0 0 1 1 0 0 forward_v I I I I #
coedge $-1 $86 $87 $88 $89 forward $34 $-1 #
face $-1 $90 $91 $20 $-1 $92 reversed single #
loop $-1 $-1 $93 $36 #
plane-surface $-1 0 0 -14.951492522366586 0 0 1 1 0 0 forward_v I I I I #
coedge $-1 $94 $95 $96 $97 forward $37 $-1 #
face $-1 $98 $99 $21 $-1 $100 reversed single #
loop $-1 $-1 $101 $39 #
plane-surface $-1 -48.539078951384013 5.8269409351786408 2.5429793959147844 -0.78801076186113728 0 0.61566146476048833 0.61566146476048833 0 0.78801076186113728 forward_v I I I I #
coedge $-1 $102 $103 $104 $105 reversed $40 $-1 #
face $-1 $-1 $106 $22 $-1 $107 forward single #
loop $-1 $108 $109 $42 #
cone-surface $-1 -42.134693593081906 3.8272415971494453 7.5307047251711055 0.78801076186113728 0 -0.61566146476048833 0.15391536619012208 0 0.19700269046528432 1 I I -0.70710678118654746 0.70710678118654746 0.25 forward I I I I #
loop $-1 $-1 $110 $28 #
coedge $-1 $68 $68 $111 $112 reversed $43 $-1 #
face $-1 $-1 $113 $23 $-1 $114 forward single #
loop $-1 $115 $116 $45 #
cone-surface $-1 -42.134693593081906 7.8266402732078433 7.5307047251711055 0.78801076186113728 0 -0.61566146476048833 0.15391536619012208 0 0.19700269046528432 1 I I -0.70710678118654746 0.70710678118654746 0.25 forward I I I I #
loop $-1 $-1 $117 $29 #
coedge $-1 $73 $73 $118 $119 reversed $46 $-1 #
face $-1 $120 $121 $18 $-1 $122 reversed single #
loop $-1 $-1 $123 $48 #
plane-surface $-1 0 -33.037889221748472 0 0 1 0 0 0 1 forward_v I I I I #
coedge $-1 $124 $125 $126 $127 forward $49 $-1 #
coedge $-1 $128 $51 $129 $130 forward $31 $-1 #
coedge $-1 $51 $128 $131 $132 forward $31 $-1 #
coedge $-1 $133 $134 $51 $81 reversed $135 $-1 #
edge $-1 $136 -33.037889221748472 $137 33.037889221748472 $80 $138 forward 7 unknown #
face $-1 $139 $140 $19 $-1 $141 reversed single #
loop $-1 $-1 $142 $52 #
plane-surface $-1 -26.968938915200205 -47.9788504032106 0 0 1 0 0 0 1 forward_v I I I I #
coedge $-1 $143 $144 $87 $145 forward $53 $-1 #
coedge $-1 $146 $55 $147 $148 reversed $34 $-1 #
coedge $-1 $55 $146 $85 $145 reversed $34 $-1 #
coedge $-1 $149 $150 $55 $89 reversed $140 $-1 #
edge $-1 $151 -14.951492522366586 $152 14.951492522366586 $88 $153 forward 7 unknown #
face $-1 $154 $155 $20 $-1 $156 reversed single #
loop $-1 $-1 $157 $56 #
plane-surface $-1 -31.426735057576998 40.508369812479529 0 1 0 0 0 0 -1 forward_v I I I I #
coedge $-1 $158 $159 $95 $160 forward $57 $-1 #
coedge $-1 $161 $59 $162 $163 reversed $37 $-1 #
coedge $-1 $59 $161 $93 $160 reversed $37 $-1 #
coedge $-1 $164 $165 $59 $97 reversed $166 $-1 #
edge $-1 $167 -14.951492522366586 $168 14.951492522366586 $96 $169 forward 7 unknown #
face $-1 $170 $171 $21 $-1 $172 reversed single #
loop $-1 $-1 $173 $60 #
plane-surface $-1 -125.03771212042003 10.492906057246771 62.310260286582924 0 -1 0 0.78801076186113728 0 -0.61566146476048833 forward_v I I I I #
coedge $-1 $174 $175 $176 $177 reversed $61 $-1 #
coedge $-1 $103 $63 $178 $179 reversed $40 $-1 #
coedge $-1 $63 $102 $174 $180 reversed $40 $-1 #
coedge $-1 $176 $181 $63 $105 forward $182 $-1 #
edge $-1 $183 13.979777108825999 $184 23.674369792926015 $104 $185 forward 7 unknown #
loop $-1 $-1 $111 $64 #
plane-surface $-1 -48.539078951384013 5.8269409351786408 2.5429793959147844 -0.78801076186113728 0 0.61566146476048833 0.61566146476048833 0 0.78801076186113728 forward_v I I I I #
loop $-1 $-1 $186 $42 #
coedge $-1 $109 $109 $110 $187 reversed $65 $-1 #
coedge $-1 $110 $110 $109 $187 forward $67 $-1 #
coedge $-1 $111 $111 $68 $112 forward $106 $-1 #
edge $-1 $188 0 $188 6.2831853071796004 $111 $189 forward 7 unknown #
loop $-1 $-1 $118 $69 #
plane-surface $-1 -48.539078951384013 5.8269409351786408 2.5429793959147844 -0.78801076186113728 0 0.61566146476048833 0.61566146476048833 0 0.78801076186113728 forward_v I I I I #
loop $-1 $-1 $190 $45 #
coedge $-1 $116 $116 $117 $191 reversed $70 $-1 #
coedge $-1 $117 $117 $116 $191 forward $72 $-1 #
coedge $-1 $118 $118 $73 $119 forward $113 $-1 #
edge $-1 $192 0 $192 6.2831853071796004 $118 $193 forward 7 unknown #
face $-1 $194 $195 $18 $-1 $196 reversed single #
loop $-1 $-1 $197 $74 #
plane-surface $-1 -48.539078951384013 0 0 1 0 0 0 0 -1 forward_v I I I I #
coedge $-1 $198 $131 $199 $200 forward $75 $-1 #
coedge $-1 $201 $77 $198 $202 forward $49 $-1 #
coedge $-1 $77 $201 $203 $204 forward $49 $-1 #
coedge $-1 $134 $133 $77 $127 reversed $135 $-1 #
edge $-1 $205 -33.037889221748472 $206 33.037889221748472 $126 $207 forward 7 unknown #
coedge $-1 $79 $78 $208 $209 forward $31 $-1 #
coedge $-1 $210 $211 $78 $130 reversed $195 $-1 #
edge $-1 $137 -48.539078951384013 $212 48.539078951384013 $129 $213 forward 7 unknown #
coedge $-1 $123 $214 $79 $132 reversed $75 $-1 #
edge $-1 $215 -48.539078951384013 $136 48.539078951384013 $131 $216 forward 7 unknown #
coedge $-1 $126 $80 $214 $217 forward $135 $-1 #
coedge $-1 $80 $126 $210 $218 reversed $135 $-1 #
loop $-1 $-1 $133 $194 #
vertex $-1 $81 $219 #
vertex $-1 $81 $220 #
straight-curve $-1 48.539078951384013 0 14.951492522366586 0 1 0 I I #
face $-1 $221 $222 $19 $-1 $223 reversed single #
loop $-1 $-1 $88 $82 #
plane-surface $-1 -31.426735057576998 -40.508369812479536 0 1 0 0 0 0 -1 forward_v I I I I #
coedge $-1 $224 $225 $226 $227 forward $83 $-1 #
coedge $-1 $228 $85 $229 $230 forward $53 $-1 #
coedge $-1 $85 $228 $149 $231 forward $53 $-1 #
edge $-1 $151 -31.426735057576998 $232 -22.511142772823412 $85 $233 forward 7 unknown #
coedge $-1 $87 $86 $234 $235 forward $34 $-1 #
coedge $-1 $236 $237 $86 $148 forward $238 $-1 #
edge $-1 $239 22.511142772823412 $152 31.426735057576998 $147 $240 forward 7 unknown #
coedge $-1 $226 $88 $144 $231 reversed $140 $-1 #
coedge $-1 $88 $226 $236 $241 reversed $140 $-1 #
vertex $-1 $145 $242 #
vertex $-1 $241 $243 #
straight-curve $-1 -31.426735057576998 -33.037889221748472 0 0 0 1 I I #
face $-1 $244 $166 $20 $-1 $245 reversed single #
loop $-1 $-1 $246 $90 #
plane-surface $-1 -26.968938915200205 47.978850403210593 0 0 -1 0 0 0 -1 forward_v I I I I #
coedge $-1 $247 $248 $249 $250 forward $91 $-1 #
coedge $-1 $251 $93 $247 $252 forward $57 $-1 #
coedge $-1 $93 $251 $164 $253 forward $57 $-1 #
edge $-1 $167 22.511142772823412 $254 31.426735057576998 $93 $255 forward 7 unknown #
coedge $-1 $95 $94 $256 $257 forward $37 $-1 #
coedge $-1 $258 $259 $94 $163 forward $260 $-1 #
edge $-1 $261 -31.426735057576998 $168 -22.511142772823412 $162 $262 forward 7 unknown #
coedge $-1 $263 $96 $159 $253 reversed $166 $-1 #
coedge $-1 $96 $263 $258 $264 reversed $166 $-1 #
loop $-1 $-1 $96 $154 #
vertex $-1 $160 $265 #
vertex $-1 $264 $266 #
straight-curve $-1 -22.511142772823412 33.037889221748472 0 0 0 1 I I #
face $-1 $-1 $182 $21 $-1 $267 forward single #
loop $-1 $-1 $268 $98 #
plane-surface $-1 -48.539078951384013 0 0 1 0 0 0 0 -1 forward_v I I I I #
coedge $-1 $269 $270 $271 $272 reversed $99 $-1 #
coedge $-1 $273 $101 $103 $180 forward $61 $-1 #
coedge $-1 $101 $273 $269 $274 forward $61 $-1 #
coedge $-1 $271 $104 $101 $177 forward $182 $-1 #
edge $-1 $184 -1.7524946544788094 $275 7.5794355896574501 $176 $276 forward 7 unknown #
coedge $-1 $277 $278 $102 $179 forward $171 $-1 #
edge $-1 $279 -28.612150747376678 $183 -16.203637620924876 $178 $280 forward 7 unknown #
edge $-1 $184 -15.746629014488537 $279 0 $103 $281 forward 7 unknown #
coedge $-1 $104 $271 $277 $282 forward $182 $-1 #
loop $-1 $-1 $271 $170 #
vertex $-1 $179 $283 #
vertex $-1 $105 $284 #
straight-curve $-1 -62.518856060210013 1.160975813110511 14.951492522366586 1 0 0 I I #
coedge $-1 $186 $186 $-1 $285 reversed $108 $-1 #
edge $-1 $286 0 $286 6.2831853071796004 $109 $287 forward 7 unknown #
vertex $-1 $112 $288 #
ellipse-curve $-1 -43.691782609334005 3.8272415971494453 8.7472359591406814 -0.78801076186113728 0 0.61566146476048833 0.30783073238024417 0 0.39400538093056864 1 I I #
coedge $-1 $190 $190 $-1 $289 reversed $115 $-1 #
edge $-1 $290 0 $290 6.2831853071796004 $116 $291 forward 7 unknown #
vertex $-1 $119 $292 #
ellipse-curve $-1 -43.691782609334005 7.8266402732078433 8.7472359591406814 -0.78801076186113728 0 0.61566146476048833 0.30783073238024417 0 0.39400538093056864 1 I I #
face $-1 $-1 $135 $18 $-1 $293 reversed single #
loop $-1 $-1 $210 $120 #
plane-surface $-1 0 33.037889221748472 0 0 -1 0 0 0 -1 forward_v I I I I #
coedge $-1 $294 $208 $211 $295 forward $121 $-1 #
coedge $-1 $214 $123 $124 $202 reversed $75 $-1 #
coedge $-1 $208 $294 $123 $200 reversed $121 $-1 #
edge $-1 $215 -14.951492522366586 $296 14.951492522366586 $199 $297 forward 7 unknown #
coedge $-1 $125 $124 $294 $298 forward $49 $-1 #
edge $-1 $206 -48.539078951384013 $296 48.539078951384013 $198 $299 forward 7 unknown #
coedge $-1 $211 $210 $125 $204 reversed $195 $-1 #
edge $-1 $300 -48.539078951384013 $205 48.539078951384013 $203 $301 forward 7 unknown #
vertex $-1 $127 $302 #
vertex $-1 $217 $303 #
straight-curve $-1 48.539078951384013 0 -14.951492522366586 0 -1 0 I I #
coedge $-1 $197 $199 $128 $209 reversed $121 $-1 #
edge $-1 $212 -33.037889221748472 $215 33.037889221748472 $208 $304 forward 7 unknown #
coedge $-1 $203 $129 $134 $218 forward $195 $-1 #
coedge $-1 $129 $203 $197 $295 reversed $195 $-1 #
vertex $-1 $130 $305 #
straight-curve $-1 0 33.037889221748472 14.951492522366586 -1 0 0 I I #
coedge $-1 $131 $198 $133 $217 reversed $75 $-1 #
vertex $-1 $209 $306 #
straight-curve $-1 0 -33.037889221748472 14.951492522366586 1 0 0 I I #
edge $-1 $136 -14.951492522366586 $206 14.951492522366586 $133 $307 forward 7 unknown #
edge $-1 $137 -14.951492522366586 $205 14.951492522366586 $134 $308 forward 7 unknown #
point $-1 48.539078951384013 -33.037889221748472 14.951492522366586 #
point $-1 48.539078951384013 33.037889221748472 14.951492522366586 #
face $-1 $-1 $238 $19 $-1 $309 forward single #
loop $-1 $-1 $310 $139 #
plane-surface $-1 -22.511142772823412 -40.508369812479536 0 -1 0 0 0 0 1 forward_v I I I I #
coedge $-1 $311 $142 $228 $312 reversed $83 $-1 #
coedge $-1 $142 $311 $313 $314 reversed $83 $-1 #
coedge $-1 $150 $149 $142 $227 reversed $140 $-1 #
edge $-1 $315 -14.951492522366586 $316 14.951492522366586 $226 $317 forward 7 unknown #
coedge $-1 $144 $143 $224 $312 forward $53 $-1 #
coedge $-1 $234 $310 $143 $230 reversed $222 $-1 #
edge $-1 $232 -7.4704805907310643 $318 7.4704805907310643 $229 $319 forward 7 unknown #
edge $-1 $316 -7.4704805907310643 $151 7.4704805907310643 $149 $320 forward 7 unknown #
vertex $-1 $230 $321 #
straight-curve $-1 0 -33.037889221748472 -14.951492522366586 1 0 0 I I #
coedge $-1 $322 $229 $146 $235 reversed $222 $-1 #
edge $-1 $239 -14.951492522366586 $232 14.951492522366586 $234 $323 forward 7 unknown #
coedge $-1 $313 $147 $150 $241 forward $238 $-1 #
coedge $-1 $147 $313 $322 $324 forward $238 $-1 #
loop $-1 $-1 $147 $221 #
vertex $-1 $148 $325 #
straight-curve $-1 0 -33.037889221748472 14.951492522366586 -1 0 0 I I #
edge $-1 $152 -7.4704805907310643 $315 7.4704805907310643 $150 $326 forward 7 unknown #
point $-1 -31.426735057576998 -33.037889221748472 -14.951492522366586 #
point $-1 -31.426735057576998 -33.037889221748472 14.951492522366586 #
face $-1 $-1 $260 $20 $-1 $327 forward single #
plane-surface $-1 -22.511142772823412 40.508369812479529 0 -1 0 0 0 0 1 forward_v I I I I #
coedge $-1 $328 $329 $263 $330 forward $155 $-1 #
coedge $-1 $256 $157 $158 $252 reversed $91 $-1 #
coedge $-1 $157 $256 $259 $331 reversed $91 $-1 #
coedge $-1 $329 $328 $157 $250 reversed $155 $-1 #
edge $-1 $332 -14.951492522366586 $333 14.951492522366586 $249 $334 forward 7 unknown #
coedge $-1 $159 $158 $328 $335 forward $57 $-1 #
edge $-1 $254 -7.4704805907310643 $333 7.4704805907310643 $247 $336 forward 7 unknown #
edge $-1 $337 -7.4704805907310643 $167 7.4704805907310643 $164 $338 forward 7 unknown #
vertex $-1 $252 $339 #
straight-curve $-1 0 33.037889221748472 -14.951492522366586 -1 0 0 I I #
coedge $-1 $248 $247 $161 $257 reversed $91 $-1 #
edge $-1 $261 -14.951492522366586 $254 14.951492522366586 $256 $340 forward 7 unknown #
coedge $-1 $341 $162 $165 $264 forward $260 $-1 #
coedge $-1 $162 $341 $248 $331 forward $260 $-1 #
loop $-1 $-1 $162 $244 #
vertex $-1 $163 $342 #
straight-curve $-1 0 33.037889221748472 14.951492522366586 1 0 0 I I #
coedge $-1 $165 $164 $246 $330 reversed $166 $-1 #
edge $-1 $168 -7.4704805907310643 $343 7.4704805907310643 $165 $344 forward 7 unknown #
point $-1 -22.511142772823412 33.037889221748465 -14.951492522366586 #
point $-1 -22.511142772823412 33.037889221748465 14.951492522366586 #
plane-surface $-1 0 0 14.951492522366586 0 0 1 1 0 0 forward_v I I I I #
coedge $-1 $278 $277 $270 $345 forward $171 $-1 #
coedge $-1 $270 $173 $175 $274 reversed $99 $-1 #
coedge $-1 $173 $269 $268 $345 reversed $99 $-1 #
coedge $-1 $181 $176 $173 $272 forward $182 $-1 #
edge $-1 $275 -23.674369792926015 $346 -13.979777108825999 $271 $347 forward 7 unknown #
coedge $-1 $175 $174 $278 $348 reversed $61 $-1 #
edge $-1 $349 0 $275 15.746629014488537 $269 $350 forward 7 unknown #
vertex $-1 $177 $351 #
straight-curve $-1 -38.844486267283997 2.9134704675893204 14.951492522366586 0 1 0 I I #
coedge $-1 $268 $178 $181 $282 reversed $171 $-1 #
coedge $-1 $178 $268 $273 $348 forward $171 $-1 #
vertex $-1 $179 $352 #
straight-curve $-1 -48.539078951384013 1.160975813110511 31.155130143291462 0 0 1 I I #
straight-curve $-1 -48.539078951384013 1.160975813110511 2.5429793959147844 -0.61566146476048833 0 -0.78801076186113728 I I #
edge $-1 $346 -10.492906057246771 $183 -1.160975813110511 $277 $353 forward 7 unknown #
point $-1 -48.539078951384013 1.160975813110511 14.951492522366586 #
point $-1 -38.844486267283997 1.160975813110511 14.951492522366586 #
edge $-1 $354 1 $354 0 $186 $-1 forward 7 unknown #
vertex $-1 $187 $355 #
ellipse-curve $-1 -42.331696283547188 3.8272415971494453 7.6846200913612277 -0.78801076186113728 0 0.61566146476048833 0.30783073238024417 0 0.39400538093056864 1 I I #
point $-1 -43.383951876953766 3.8272415971494453 9.141241340071252 #
edge $-1 $356 1 $356 0 $190 $-1 forward 7 unknown #
vertex $-1 $191 $357 #
ellipse-curve $-1 -42.331696283547188 7.8266402732078433 7.6846200913612277 -0.78801076186113728 0 0.61566146476048833 0.30783073238024417 0 0.39400538093056864 1 I I #
point $-1 -43.383951876953766 7.8266402732078433 9.141241340071252 #
plane-surface $-1 48.539078951384013 0 0 -1 0 0 0 0 1 forward_v I I I I #
coedge $-1 $199 $197 $201 $298 reversed $121 $-1 #
edge $-1 $212 -14.951492522366586 $300 14.951492522366586 $211 $358 forward 7 unknown #
vertex $-1 $298 $359 #
straight-curve $-1 -48.539078951384013 -33.037889221748472 0 0 0 -1 I I #
edge $-1 $296 -33.037889221748472 $300 33.037889221748472 $294 $360 forward 7 unknown #
straight-curve $-1 0 -33.037889221748472 -14.951492522366586 -1 0 0 I I #
vertex $-1 $204 $361 #
straight-curve $-1 0 33.037889221748472 -14.951492522366586 1 0 0 I I #
point $-1 48.539078951384013 33.037889221748472 -14.951492522366586 #
point $-1 48.539078951384013 -33.037889221748472 -14.951492522366586 #
straight-curve $-1 -48.539078951384013 0 14.951492522366586 0 -1 0 I I #
point $-1 -48.539078951384013 33.037889221748472 14.951492522366586 #
point $-1 -48.539078951384013 -33.037889221748472 14.951492522366586 #
straight-curve $-1 48.539078951384013 -33.037889221748472 0 0 0 -1 I I #
straight-curve $-1 48.539078951384013 33.037889221748472 0 0 0 -1 I I #
plane-surface $-1 0 0 14.951492522366586 0 0 1 1 0 0 forward_v I I I I #
coedge $-1 $229 $322 $311 $362 forward $222 $-1 #
coedge $-1 $225 $224 $310 $362 reversed $83 $-1 #
edge $-1 $318 -4.4577961423767931 $316 4.4577961423767931 $224 $363 forward 7 unknown #
coedge $-1 $237 $236 $225 $314 forward $238 $-1 #
edge $-1 $315 -4.4577961423767931 $364 4.4577961423767931 $225 $365 forward 7 unknown #
vertex $-1 $241 $366 #
vertex $-1 $231 $367 #
straight-curve $-1 -31.426735057576998 -47.9788504032106 0 0 0 -1 I I #
vertex $-1 $362 $368 #
straight-curve $-1 -22.511142772823412 -40.508369812479536 -14.951492522366586 0 -1 0 I I #
straight-curve $-1 -31.426735057576998 -40.508369812479536 -14.951492522366586 0 1 0 I I #
point $-1 -22.511142772823412 -33.037889221748472 -14.951492522366586 #
coedge $-1 $310 $234 $237 $324 reversed $222 $-1 #
straight-curve $-1 -22.511142772823412 -33.037889221748472 0 0 0 -1 I I #
edge $-1 $364 -7.4704805907310643 $239 7.4704805907310643 $322 $369 forward 7 unknown #
point $-1 -22.511142772823412 -33.037889221748472 14.951492522366586 #
straight-curve $-1 -31.426735057576998 -40.508369812479536 14.951492522366586 0 -1 0 I I #
plane-surface $-1 0 0 14.951492522366586 0 0 1 1 0 0 forward_v I I I I #
coedge $-1 $249 $246 $251 $335 reversed $155 $-1 #
coedge $-1 $246 $249 $341 $370 reversed $155 $-1 #
edge $-1 $343 -14.951492522366586 $337 14.951492522366586 $263 $371 forward 7 unknown #
edge $-1 $332 -7.4704805907310643 $261 7.4704805907310643 $248 $372 forward 7 unknown #
vertex $-1 $370 $373 #
vertex $-1 $335 $374 #
straight-curve $-1 -31.426735057576998 47.978850403210593 0 0 0 -1 I I #
edge $-1 $333 -4.4577961423767931 $337 4.4577961423767931 $328 $375 forward 7 unknown #
straight-curve $-1 -31.426735057576998 40.508369812479529 -14.951492522366586 0 1 0 I I #
vertex $-1 $253 $376 #
straight-curve $-1 -22.511142772823412 40.508369812479529 -14.951492522366586 0 -1 0 I I #
point $-1 -31.426735057576998 33.037889221748465 -14.951492522366586 #
straight-curve $-1 -31.426735057576998 33.037889221748472 0 0 0 -1 I I #
coedge $-1 $259 $258 $329 $370 forward $260 $-1 #
point $-1 -31.426735057576998 33.037889221748465 14.951492522366586 #
vertex $-1 $264 $377 #
straight-curve $-1 -22.511142772823412 40.508369812479529 14.951492522366586 0 1 0 I I #
edge $-1 $346 16.203637620924876 $349 28.612150747376678 $268 $378 forward 7 unknown #
vertex $-1 $282 $379 #
straight-curve $-1 -62.518856060210013 10.492906057246771 14.951492522366586 -1 0 0 I I #
edge $-1 $349 -7.5794355896574501 $279 1.7524946544788094 $278 $380 forward 7 unknown #
vertex $-1 $348 $381 #
straight-curve $-1 -48.539078951384013 10.492906057246771 2.5429793959147844 0.61566146476048833 0 0.78801076186113728 I I #
point $-1 -38.844486267283997 10.492906057246771 14.951492522366586 #
point $-1 -48.539078951384013 1.160975813110511 2.5429793959147844 #
straight-curve $-1 -48.539078951384013 0 14.951492522366586 0 -1 0 I I #
vertex $-1 $285 $382 #
point $-1 -42.023865551166949 3.8272415971494453 8.0786254722917956 #
vertex $-1 $289 $383 #
point $-1 -42.023865551166949 7.8266402732078433 8.0786254722917956 #
straight-curve $-1 -48.539078951384013 33.037889221748472 0 0 0 -1 I I #
point $-1 -48.539078951384013 -33.037889221748472 -14.951492522366586 #
straight-curve $-1 -48.539078951384013 0 -14.951492522366586 0 1 0 I I #
point $-1 -48.539078951384013 33.037889221748472 -14.951492522366586 #
edge $-1 $364 -14.951492522366586 $318 14.951492522366586 $310 $384 forward 7 unknown #
straight-curve $-1 -26.968938915200205 -47.9788504032106 -14.951492522366586 -1 0 0 I I #
vertex $-1 $324 $385 #
straight-curve $-1 -26.968938915200205 -47.9788504032106 14.951492522366586 1 0 0 I I #
point $-1 -31.426735057576998 -47.9788504032106 14.951492522366586 #
point $-1 -31.426735057576998 -47.9788504032106 -14.951492522366586 #
point $-1 -22.511142772823412 -47.9788504032106 -14.951492522366586 #
straight-curve $-1 -22.511142772823412 -40.508369812479536 14.951492522366586 0 1 0 I I #
edge $-1 $343 -4.4577961423767931 $332 4.4577961423767931 $329 $386 forward 7 unknown #
straight-curve $-1 -22.511142772823412 47.978850403210593 0 0 0 -1 I I #
straight-curve $-1 -31.426735057576998 40.508369812479529 14.951492522366586 0 -1 0 I I #
point $-1 -31.426735057576998 47.978850403210593 14.951492522366586 #
point $-1 -31.426735057576998 47.978850403210593 -14.951492522366586 #
straight-curve $-1 -26.968938915200205 47.978850403210593 -14.951492522366586 1 0 0 I I #
point $-1 -22.511142772823412 47.978850403210593 -14.951492522366586 #
point $-1 -22.511142772823412 47.978850403210593 14.951492522366586 #
straight-curve $-1 -48.539078951384013 10.492906057246771 31.155130143291462 0 0 -1 I I #
point $-1 -48.539078951384013 10.492906057246771 14.951492522366586 #
straight-curve $-1 -48.539078951384013 2.9134704675893204 2.5429793959147853 0 -1 0 I I #
point $-1 -48.539078951384013 10.492906057246771 2.5429793959147844 #
point $-1 -41.937690902616623 3.8272415971494453 7.3767893589809832 #
point $-1 -41.937690902616623 7.8266402732078433 7.3767893589809832 #
straight-curve $-1 -22.511142772823412 -47.9788504032106 0 0 0 -1 I I #
point $-1 -22.511142772823412 -47.9788504032106 14.951492522366586 #
straight-curve $-1 -26.968938915200205 47.978850403210593 14.951492522366586 -1 0 0 I I #
End-of-ACIS-data 