500 0 5 0           
7 Unknown 11 ACIS 5.0 NT 24 Thu Mar 25 22:58:36 1999 
-1 9.9999999999999995e-007 1e-010 
body $-1 $5 $-1 $6 #
body $-1 $7 $-1 $8 #
body $-1 $9 $-1 $10 #
body $-1 $11 $-1 $12 #
body $-1 $13 $-1 $14 #
lump $-1 $-1 $15 $0 #
transform $-1 1 0 0 0 1 0 0 0 1 55.099337748344368 22.285913969736555 8.7830319294102903 1 rotate no_reflect no_shear #
lump $-1 $-1 $16 $1 #
transform $-1 1 0 0 0 1 0 0 0 1 55.099337748344368 22.285913969736555 8.7830319294102903 1 rotate no_reflect no_shear #
lump $-1 $-1 $17 $2 #
transform $-1 1 0 0 0 1 0 0 0 1 55.099337748344368 22.285913969736555 8.7830319294102903 1 rotate no_reflect no_shear #
lump $-1 $-1 $18 $3 #
transform $-1 1 0 0 0 1 0 0 0 1 55.099337748344368 22.285913969736555 8.7830319294102903 1 rotate no_reflect no_shear #
lump $-1 $-1 $19 $4 #
transform $-1 1 0 0 0 1 0 0 0 1 55.099337748344368 22.285913969736555 8.7830319294102903 1 rotate no_reflect no_shear #
shell $-1 $-1 $-1 $20 $-1 $5 #
shell $-1 $-1 $-1 $21 $-1 $7 #
shell $-1 $-1 $-1 $22 $-1 $9 #
shell $-1 $-1 $-1 $23 $-1 $11 #
shell $-1 $-1 $-1 $24 $-1 $13 #
face $-1 $25 $26 $15 $-1 $27 forward single #
face $-1 $28 $29 $16 $-1 $30 forward single #
face $-1 $31 $32 $17 $-1 $33 forward single #
face $-1 $34 $35 $18 $-1 $36 reversed single #
face $-1 $37 $38 $19 $-1 $39 forward single #
face $-1 $40 $41 $15 $-1 $42 reversed single #
loop $-1 $-1 $43 $20 #
plane-surface $-1 0 0 8.7830319294102903 0 0 1 1 0 0 forward_v I I I I #
face $-1 $44 $45 $16 $-1 $46 reversed single #
loop $-1 $-1 $47 $21 #
plane-surface $-1 -55.099337748344368 0 0 1 0 0 0 0 -1 forward_v I I I I #
face $-1 $48 $49 $17 $-1 $50 reversed single #
loop $-1 $-1 $51 $22 #
plane-surface $-1 55.099337748344368 0 0 -1 0 0 0 0 1 forward_v I I I I #
face $-1 $52 $53 $18 $-1 $54 reversed single #
loop $-1 $-1 $55 $23 #
plane-surface $-1 37.611157292772766 -107.92637050182093 71.388196857292343 -1 0 0 0 -0.77714596973225614 0.62932038083071107 forward_v I I I I #
face $-1 $56 $57 $19 $-1 $58 forward single #
loop $-1 $59 $60 $24 #
cone-surface $-1 26.296384363888592 -19.166300879350022 5.095817987627913 0 0.77714596973225614 -0.62932038083071107 0.5 0 0 1 I I 0 1 0.5 forward I I I I #
face $-1 $61 $62 $15 $-1 $63 reversed single #
loop $-1 $-1 $64 $25 #
plane-surface $-1 0 0 -8.7830319294102903 0 0 1 1 0 0 forward_v I I I I #
coedge $-1 $65 $66 $67 $68 forward $26 $-1 #
face $-1 $69 $70 $16 $-1 $71 forward single #
loop $-1 $-1 $72 $28 #
plane-surface $-1 0 22.285913969736555 0 0 -1 0 0 0 -1 forward_v I I I I #
coedge $-1 $73 $74 $75 $76 forward $29 $-1 #
face $-1 $77 $78 $17 $-1 $79 forward single #
loop $-1 $-1 $80 $31 #
plane-surface $-1 0 -22.285913969736555 0 0 1 0 0 0 1 forward_v I I I I #
coedge $-1 $81 $82 $83 $84 forward $32 $-1 #
face $-1 $85 $86 $18 $-1 $87 reversed single #
loop $-1 $-1 $88 $34 #
plane-surface $-1 26.296384363888592 -22.285913969736541 2.0379244266762413 0 -0.77714596973225614 0.62932038083071107 1 0 0 forward_v I I I I #
coedge $-1 $89 $90 $91 $92 reversed $35 $-1 #
face $-1 $-1 $93 $19 $-1 $94 forward single #
loop $-1 $95 $96 $37 #
cone-surface $-1 26.296384363888592 -18.583441402050831 4.6238277020048795 0 0.77714596973225614 -0.62932038083071107 0.25 0 0 1 I I -0.70710678118654746 0.70710678118654746 0.25 forward I I I I #
loop $-1 $-1 $97 $24 #
coedge $-1 $60 $60 $98 $99 reversed $38 $-1 #
face $-1 $100 $101 $15 $-1 $102 reversed single #
loop $-1 $-1 $103 $40 #
plane-surface $-1 0 -22.285913969736555 0 0 1 0 0 0 1 forward_v I I I I #
coedge $-1 $104 $105 $106 $107 forward $41 $-1 #
coedge $-1 $108 $43 $109 $110 forward $26 $-1 #
coedge $-1 $43 $108 $111 $112 forward $26 $-1 #
coedge $-1 $113 $114 $43 $68 reversed $115 $-1 #
edge $-1 $116 -22.285913969736555 $117 22.285913969736555 $67 $118 forward 7 unknown #
face $-1 $119 $120 $16 $-1 $121 reversed single #
loop $-1 $-1 $75 $44 #
plane-surface $-1 -60.055729156566464 0 -3.6201739675085136 0 0 1 1 0 0 forward_v I I I I #
coedge $-1 $122 $123 $74 $124 forward $45 $-1 #
coedge $-1 $125 $47 $126 $127 reversed $29 $-1 #
coedge $-1 $47 $125 $72 $124 reversed $29 $-1 #
coedge $-1 $128 $129 $47 $76 reversed $70 $-1 #
edge $-1 $130 -22.285913969736555 $131 22.285913969736555 $75 $132 forward 7 unknown #
face $-1 $133 $134 $17 $-1 $135 reversed single #
loop $-1 $-1 $136 $48 #
plane-surface $-1 60.055729156566457 0 -3.6201739675085136 0 0 1 1 0 0 forward_v I I I I #
coedge $-1 $137 $138 $82 $139 forward $49 $-1 #
coedge $-1 $140 $51 $141 $142 reversed $32 $-1 #
coedge $-1 $51 $140 $80 $139 reversed $32 $-1 #
coedge $-1 $143 $144 $51 $84 reversed $78 $-1 #
edge $-1 $145 -22.285913969736555 $146 22.285913969736555 $83 $147 forward 7 unknown #
face $-1 $148 $149 $18 $-1 $150 forward single #
loop $-1 $-1 $151 $52 #
plane-surface $-1 14.981611435004417 -107.92637050182093 71.388196857292343 1 0 0 0 0.77714596973225614 -0.62932038083071107 forward_v I I I I #
coedge $-1 $152 $153 $154 $155 reversed $53 $-1 #
coedge $-1 $90 $55 $156 $157 reversed $35 $-1 #
coedge $-1 $55 $89 $152 $158 reversed $35 $-1 #
coedge $-1 $154 $159 $55 $92 forward $149 $-1 #
edge $-1 $160 31.677271281173908 $161 37.139351492214736 $91 $162 forward 7 unknown #
loop $-1 $-1 $98 $56 #
plane-surface $-1 26.296384363888592 -22.285913969736541 2.0379244266762413 0 -0.77714596973225614 0.62932038083071107 1 0 0 forward_v I I I I #
loop $-1 $-1 $163 $37 #
coedge $-1 $96 $96 $97 $164 reversed $57 $-1 #
coedge $-1 $97 $97 $96 $164 forward $59 $-1 #
coedge $-1 $98 $98 $60 $99 forward $93 $-1 #
edge $-1 $165 -9.9037372503514738e-016 $165 6.2831853071795996 $98 $166 forward 7 unknown #
face $-1 $167 $168 $15 $-1 $169 reversed single #
loop $-1 $-1 $170 $61 #
plane-surface $-1 -55.099337748344368 0 0 1 0 0 0 0 -1 forward_v I I I I #
coedge $-1 $171 $111 $172 $173 forward $62 $-1 #
coedge $-1 $174 $64 $171 $175 forward $41 $-1 #
coedge $-1 $64 $174 $176 $177 forward $41 $-1 #
coedge $-1 $114 $113 $64 $107 reversed $115 $-1 #
edge $-1 $178 -22.285913969736555 $179 22.285913969736555 $106 $180 forward 7 unknown #
coedge $-1 $66 $65 $181 $182 forward $26 $-1 #
coedge $-1 $183 $184 $65 $110 reversed $168 $-1 #
edge $-1 $117 -55.099337748344368 $185 55.099337748344368 $109 $186 forward 7 unknown #
coedge $-1 $103 $187 $66 $112 reversed $62 $-1 #
edge $-1 $188 -55.099337748344368 $116 55.099337748344368 $111 $189 forward 7 unknown #
coedge $-1 $106 $67 $187 $190 forward $115 $-1 #
coedge $-1 $67 $106 $183 $191 reversed $115 $-1 #
loop $-1 $-1 $113 $167 #
vertex $-1 $68 $192 #
vertex $-1 $68 $193 #
straight-curve $-1 55.099337748344368 0 8.7830319294102903 0 1 0 I I #
face $-1 $194 $195 $16 $-1 $196 reversed single #
loop $-1 $-1 $197 $69 #
plane-surface $-1 -60.055729156566464 0 -8.2830319294102903 0 0 1 1 0 0 forward_v I I I I #
coedge $-1 $198 $72 $199 $200 reversed $45 $-1 #
coedge $-1 $72 $198 $128 $201 reversed $45 $-1 #
edge $-1 $130 3.6201739675085136 $202 8.2830319294102903 $72 $203 forward 7 unknown #
coedge $-1 $74 $73 $197 $204 forward $29 $-1 #
coedge $-1 $205 $206 $73 $127 forward $207 $-1 #
edge $-1 $208 -8.2830319294102903 $131 -3.6201739675085136 $126 $209 forward 7 unknown #
coedge $-1 $210 $75 $123 $201 forward $70 $-1 #
coedge $-1 $75 $210 $205 $211 forward $70 $-1 #
vertex $-1 $124 $212 #
vertex $-1 $211 $213 #
straight-curve $-1 -55.099337748344368 0 -3.6201739675085136 0 -1 0 I I #
face $-1 $214 $215 $17 $-1 $216 reversed single #
loop $-1 $-1 $217 $77 #
plane-surface $-1 60.055729156566457 0 -8.2830319294102903 0 0 1 1 0 0 forward_v I I I I #
coedge $-1 $144 $143 $218 $219 forward $78 $-1 #
coedge $-1 $220 $80 $221 $222 reversed $49 $-1 #
coedge $-1 $80 $220 $143 $223 reversed $49 $-1 #
edge $-1 $145 3.6201739675085136 $224 8.2830319294102903 $80 $225 forward 7 unknown #
coedge $-1 $82 $81 $226 $227 forward $32 $-1 #
coedge $-1 $228 $229 $81 $142 forward $230 $-1 #
edge $-1 $231 -8.2830319294102903 $146 -3.6201739675085136 $141 $232 forward 7 unknown #
coedge $-1 $136 $83 $138 $223 forward $78 $-1 #
coedge $-1 $83 $136 $228 $233 forward $78 $-1 #
vertex $-1 $139 $234 #
vertex $-1 $233 $235 #
straight-curve $-1 55.099337748344368 0 -3.6201739675085136 0 1 0 I I #
face $-1 $-1 $236 $18 $-1 $237 reversed single #
loop $-1 $-1 $91 $85 #
plane-surface $-1 0 0 8.7830319294102903 0 0 1 1 0 0 forward_v I I I I #
coedge $-1 $238 $239 $240 $241 reversed $86 $-1 #
coedge $-1 $242 $88 $90 $158 forward $53 $-1 #
coedge $-1 $88 $242 $238 $243 forward $53 $-1 #
coedge $-1 $240 $91 $88 $155 forward $149 $-1 #
edge $-1 $161 -24.46296511082847 $244 -1.8334192530601214 $154 $245 forward 7 unknown #
coedge $-1 $246 $247 $89 $157 forward $236 $-1 #
edge $-1 $248 -33.656174001969944 $160 -26.911066499235879 $156 $249 forward 7 unknown #
edge $-1 $161 -8.6793315097006651 $248 2.2748066086763162e-014 $90 $250 forward 7 unknown #
coedge $-1 $91 $240 $246 $251 forward $149 $-1 #
vertex $-1 $157 $252 #
vertex $-1 $92 $253 #
straight-curve $-1 37.611157292772766 -53.963185250910463 8.7830319294102921 0 1 0 I I #
coedge $-1 $163 $163 $-1 $254 reversed $95 $-1 #
edge $-1 $255 0 $255 6.2831853071796004 $96 $256 forward 7 unknown #
vertex $-1 $99 $257 #
ellipse-curve $-1 26.296384363888592 -19.554873864216141 5.4104781780432605 0 -0.77714596973225614 0.62932038083071107 0.5 0 0 1 I I #
face $-1 $-1 $115 $15 $-1 $258 reversed single #
loop $-1 $-1 $183 $100 #
plane-surface $-1 0 22.285913969736555 0 0 -1 0 0 0 -1 forward_v I I I I #
coedge $-1 $259 $181 $184 $260 forward $101 $-1 #
coedge $-1 $187 $103 $104 $175 reversed $62 $-1 #
coedge $-1 $181 $259 $103 $173 reversed $101 $-1 #
edge $-1 $188 -8.7830319294102903 $261 8.7830319294102903 $172 $262 forward 7 unknown #
coedge $-1 $105 $104 $259 $263 forward $41 $-1 #
edge $-1 $179 -55.099337748344368 $261 55.099337748344368 $171 $264 forward 7 unknown #
coedge $-1 $184 $183 $105 $177 reversed $168 $-1 #
edge $-1 $265 -55.099337748344368 $178 55.099337748344368 $176 $266 forward 7 unknown #
vertex $-1 $107 $267 #
vertex $-1 $190 $268 #
straight-curve $-1 55.099337748344368 0 -8.7830319294102903 0 -1 0 I I #
coedge $-1 $170 $172 $108 $182 reversed $101 $-1 #
edge $-1 $185 -22.285913969736555 $188 22.285913969736555 $181 $269 forward 7 unknown #
coedge $-1 $176 $109 $114 $191 forward $168 $-1 #
coedge $-1 $109 $176 $170 $260 reversed $168 $-1 #
vertex $-1 $110 $270 #
straight-curve $-1 0 22.285913969736555 8.7830319294102903 -1 0 0 I I #
coedge $-1 $111 $171 $113 $190 reversed $62 $-1 #
vertex $-1 $182 $271 #
straight-curve $-1 0 -22.285913969736555 8.7830319294102903 1 0 0 I I #
edge $-1 $116 -8.7830319294102903 $179 8.7830319294102903 $113 $272 forward 7 unknown #
edge $-1 $117 -8.7830319294102903 $178 8.7830319294102903 $114 $273 forward 7 unknown #
point $-1 55.099337748344368 -22.285913969736555 8.7830319294102903 #
point $-1 55.099337748344368 22.285913969736555 8.7830319294102903 #
face $-1 $-1 $207 $16 $-1 $274 reversed single #
loop $-1 $-1 $275 $119 #
plane-surface $-1 -65.01212056478856 0 -5.951602948459402 1 0 0 0 0 -1 forward_v I I I I #
coedge $-1 $276 $199 $125 $204 reversed $120 $-1 #
coedge $-1 $123 $122 $275 $277 reversed $45 $-1 #
coedge $-1 $197 $278 $122 $200 forward $120 $-1 #
edge $-1 $279 -4.9563914082220961 $202 4.9563914082220961 $122 $280 forward 7 unknown #
edge $-1 $130 -4.9563914082220961 $281 4.9563914082220961 $123 $282 forward 7 unknown #
vertex $-1 $124 $283 #
straight-curve $-1 -55.099337748344368 22.285913969736555 0 0 0 -1 I I #
edge $-1 $208 -22.285913969736555 $202 22.285913969736555 $197 $284 forward 7 unknown #
coedge $-1 $285 $126 $129 $211 reversed $207 $-1 #
coedge $-1 $126 $285 $276 $286 reversed $207 $-1 #
loop $-1 $-1 $126 $194 #
vertex $-1 $127 $287 #
straight-curve $-1 -55.099337748344368 -22.285913969736555 0 0 0 1 I I #
coedge $-1 $129 $128 $288 $289 forward $70 $-1 #
edge $-1 $290 -4.9563914082220961 $131 4.9563914082220961 $205 $291 forward 7 unknown #
point $-1 -55.099337748344368 22.285913969736555 -3.6201739675085136 #
point $-1 -55.099337748344368 -22.285913969736555 -3.6201739675085136 #
face $-1 $-1 $230 $17 $-1 $292 reversed single #
loop $-1 $-1 $293 $133 #
plane-surface $-1 65.012120564788546 0 -5.951602948459402 -1 0 0 0 0 1 forward_v I I I I #
coedge $-1 $221 $294 $295 $296 forward $134 $-1 #
coedge $-1 $293 $297 $136 $219 reversed $215 $-1 #
edge $-1 $298 -22.285913969736555 $299 22.285913969736555 $218 $300 forward 7 unknown #
coedge $-1 $138 $137 $293 $301 reversed $49 $-1 #
coedge $-1 $226 $217 $137 $222 forward $134 $-1 #
edge $-1 $302 -4.956391408222089 $224 4.9563914082220961 $137 $303 forward 7 unknown #
edge $-1 $145 -4.9563914082220961 $298 4.956391408222089 $138 $304 forward 7 unknown #
vertex $-1 $139 $305 #
straight-curve $-1 55.099337748344368 -22.285913969736555 0 0 0 -1 I I #
coedge $-1 $294 $221 $140 $227 reversed $134 $-1 #
edge $-1 $231 -22.285913969736555 $224 22.285913969736555 $226 $306 forward 7 unknown #
coedge $-1 $307 $141 $144 $233 reversed $230 $-1 #
coedge $-1 $141 $307 $294 $308 reversed $230 $-1 #
loop $-1 $-1 $141 $214 #
vertex $-1 $142 $309 #
straight-curve $-1 55.099337748344368 22.285913969736555 0 0 0 1 I I #
edge $-1 $299 -4.956391408222089 $146 4.9563914082220961 $228 $310 forward 7 unknown #
point $-1 55.099337748344361 -22.285913969736555 -3.6201739675085136 #
point $-1 55.099337748344361 22.285913969736555 -3.6201739675085136 #
loop $-1 $-1 $156 $148 #
plane-surface $-1 0 -22.285913969736555 0 0 1 0 0 0 1 forward_v I I I I #
coedge $-1 $239 $151 $153 $243 reversed $86 $-1 #
coedge $-1 $151 $238 $311 $312 reversed $86 $-1 #
coedge $-1 $159 $154 $151 $241 forward $149 $-1 #
edge $-1 $244 -37.139351492214736 $313 -31.677271281173908 $240 $314 forward 7 unknown #
coedge $-1 $153 $152 $247 $315 reversed $53 $-1 #
edge $-1 $316 -2.2748066086763162e-014 $244 8.6793315097006651 $238 $317 forward 7 unknown #
vertex $-1 $155 $318 #
straight-curve $-1 13.148192181944296 -16.823833758695731 8.7830319294102903 -1 0 0 I I #
coedge $-1 $311 $156 $159 $251 reversed $236 $-1 #
coedge $-1 $156 $311 $242 $315 forward $236 $-1 #
vertex $-1 $157 $319 #
straight-curve $-1 37.611157292772766 -22.285913969736555 35.694098428646171 0 0 1 I I #
straight-curve $-1 37.611157292772766 -22.285913969736541 2.0379244266762413 0 -0.62932038083071107 -0.77714596973225614 I I #
edge $-1 $313 14.981611435004417 $160 37.611157292772766 $246 $320 forward 7 unknown #
point $-1 37.611157292772766 -22.285913969736555 8.7830319294102903 #
point $-1 37.611157292772766 -16.823833758695727 8.7830319294102903 #
edge $-1 $321 1 $321 0 $163 $-1 forward 7 unknown #
vertex $-1 $164 $322 #
ellipse-curve $-1 26.296384363888592 -18.777727894483895 4.7811577972125576 0 -0.77714596973225614 0.62932038083071107 0.5 0 0 1 I I #
point $-1 26.796384363888592 -19.554873864216152 5.4104781780432685 #
plane-surface $-1 55.099337748344368 0 0 -1 0 0 0 0 1 forward_v I I I I #
coedge $-1 $172 $170 $174 $263 reversed $101 $-1 #
edge $-1 $185 -8.7830319294102903 $265 8.7830319294102903 $184 $323 forward 7 unknown #
vertex $-1 $263 $324 #
straight-curve $-1 -55.099337748344368 -22.285913969736555 0 0 0 -1 I I #
edge $-1 $261 -22.285913969736555 $265 22.285913969736555 $259 $325 forward 7 unknown #
straight-curve $-1 0 -22.285913969736555 -8.7830319294102903 -1 0 0 I I #
vertex $-1 $177 $326 #
straight-curve $-1 0 22.285913969736555 -8.7830319294102903 1 0 0 I I #
point $-1 55.099337748344368 22.285913969736555 -8.7830319294102903 #
point $-1 55.099337748344368 -22.285913969736555 -8.7830319294102903 #
straight-curve $-1 -55.099337748344368 0 8.7830319294102903 0 -1 0 I I #
point $-1 -55.099337748344368 22.285913969736555 8.7830319294102903 #
point $-1 -55.099337748344368 -22.285913969736555 8.7830319294102903 #
straight-curve $-1 55.099337748344368 -22.285913969736555 0 0 0 -1 I I #
straight-curve $-1 55.099337748344368 22.285913969736555 0 0 0 -1 I I #
plane-surface $-1 0 -22.285913969736555 0 0 1 0 0 0 1 forward_v I I I I #
coedge $-1 $327 $288 $198 $277 forward $195 $-1 #
coedge $-1 $278 $197 $206 $286 forward $120 $-1 #
edge $-1 $281 -2.3314289809508884 $279 2.3314289809508884 $198 $328 forward 7 unknown #
coedge $-1 $199 $276 $327 $329 forward $120 $-1 #
vertex $-1 $200 $330 #
straight-curve $-1 -60.055729156566464 22.285913969736555 -8.2830319294102903 1 0 0 I I #
vertex $-1 $201 $331 #
straight-curve $-1 -60.055729156566464 22.285913969736555 -3.6201739675085136 -1 0 0 I I #
point $-1 -55.099337748344368 22.285913969736555 -8.2830319294102903 #
straight-curve $-1 -55.099337748344368 0 -8.2830319294102903 0 1 0 I I #
coedge $-1 $206 $205 $332 $333 forward $207 $-1 #
edge $-1 $208 -4.9563914082220961 $334 4.9563914082220961 $206 $335 forward 7 unknown #
point $-1 -55.099337748344368 -22.285913969736555 -8.2830319294102903 #
coedge $-1 $275 $332 $210 $289 reversed $195 $-1 #
edge $-1 $281 -22.285913969736555 $290 22.285913969736555 $288 $336 forward 7 unknown #
vertex $-1 $289 $337 #
straight-curve $-1 -60.055729156566464 -22.285913969736555 -3.6201739675085136 1 0 0 I I #
plane-surface $-1 0 22.285913969736555 0 0 -1 0 0 0 -1 forward_v I I I I #
coedge $-1 $295 $218 $220 $301 forward $215 $-1 #
coedge $-1 $217 $226 $229 $308 forward $134 $-1 #
coedge $-1 $297 $293 $217 $296 reversed $215 $-1 #
edge $-1 $338 -22.285913969736555 $302 22.285913969736555 $295 $339 forward 7 unknown #
coedge $-1 $218 $295 $307 $340 reversed $215 $-1 #
vertex $-1 $219 $341 #
vertex $-1 $219 $342 #
straight-curve $-1 65.012120564788546 0 -3.6201739675085136 0 1 0 I I #
edge $-1 $298 -2.3314289809508884 $302 2.3314289809508884 $293 $343 forward 7 unknown #
vertex $-1 $301 $344 #
straight-curve $-1 60.055729156566457 -22.285913969736555 -8.2830319294102903 -1 0 0 I I #
straight-curve $-1 60.055729156566457 -22.285913969736555 -3.6201739675085136 1 0 0 I I #
point $-1 55.099337748344361 -22.285913969736555 -8.2830319294102903 #
straight-curve $-1 55.099337748344368 0 -8.2830319294102903 0 -1 0 I I #
coedge $-1 $229 $228 $297 $340 forward $230 $-1 #
edge $-1 $231 -4.9563914082220961 $338 4.956391408222089 $229 $345 forward 7 unknown #
point $-1 55.099337748344361 22.285913969736555 -8.2830319294102903 #
straight-curve $-1 60.055729156566457 22.285913969736555 -3.6201739675085136 -1 0 0 I I #
coedge $-1 $247 $246 $239 $312 forward $236 $-1 #
edge $-1 $313 26.911066499235879 $316 33.656174001969944 $311 $346 forward 7 unknown #
vertex $-1 $251 $347 #
straight-curve $-1 14.981611435004417 -53.963185250910463 8.7830319294102921 0 -1 0 I I #
edge $-1 $316 1.8334192530601214 $248 24.46296511082847 $247 $348 forward 7 unknown #
vertex $-1 $315 $349 #
straight-curve $-1 14.981611435004417 -22.285913969736541 2.0379244266762413 0 0.62932038083071107 0.77714596973225614 I I #
point $-1 14.981611435004417 -16.823833758695727 8.7830319294102903 #
point $-1 37.611157292772766 -22.285913969736555 2.0379244266762235 #
straight-curve $-1 0 -22.285913969736555 8.7830319294102903 1 0 0 I I #
vertex $-1 $254 $350 #
point $-1 26.796384363888592 -18.777727894483895 4.7811577972125576 #
straight-curve $-1 -55.099337748344368 22.285913969736555 0 0 0 -1 I I #
point $-1 -55.099337748344368 -22.285913969736555 -8.7830319294102903 #
straight-curve $-1 -55.099337748344368 0 -8.7830319294102903 0 1 0 I I #
point $-1 -55.099337748344368 22.285913969736555 -8.7830319294102903 #
coedge $-1 $332 $275 $278 $329 reversed $195 $-1 #
straight-curve $-1 -65.01212056478856 22.285913969736555 -5.951602948459402 0 0 -1 I I #
edge $-1 $334 -22.285913969736555 $279 22.285913969736555 $327 $351 forward 7 unknown #
point $-1 -65.01212056478856 22.285913969736555 -8.2830319294102903 #
point $-1 -65.01212056478856 22.285913969736555 -3.6201739675085136 #
coedge $-1 $288 $327 $285 $333 reversed $195 $-1 #
edge $-1 $290 -2.3314289809508884 $334 2.3314289809508884 $332 $352 forward 7 unknown #
vertex $-1 $329 $353 #
straight-curve $-1 -60.055729156566464 -22.285913969736555 -8.2830319294102903 -1 0 0 I I #
straight-curve $-1 -65.01212056478856 0 -3.6201739675085136 0 -1 0 I I #
point $-1 -65.01212056478856 -22.285913969736555 -3.6201739675085136 #
vertex $-1 $296 $354 #
straight-curve $-1 65.012120564788546 0 -8.2830319294102903 0 -1 0 I I #
edge $-1 $299 -2.3314289809508884 $338 2.3314289809508884 $297 $355 forward 7 unknown #
point $-1 65.012120564788546 -22.285913969736555 -3.6201739675085136 #
point $-1 65.012120564788546 22.285913969736555 -3.6201739675085136 #
straight-curve $-1 65.012120564788546 -22.285913969736555 -5.951602948459402 0 0 -1 I I #
point $-1 65.012120564788546 -22.285913969736555 -8.2830319294102903 #
straight-curve $-1 60.055729156566457 22.285913969736555 -8.2830319294102903 1 0 0 I I #
straight-curve $-1 14.981611435004417 -22.285913969736555 35.694098428646171 0 0 -1 I I #
point $-1 14.981611435004417 -22.285913969736555 8.7830319294102903 #
straight-curve $-1 13.148192181944296 -22.285913969736555 2.0379244266762244 1 0 0 I I #
point $-1 14.981611435004417 -22.285913969736555 2.0379244266762235 #
point $-1 26.296384363888592 -18.389154909617766 4.4664976067972013 #
straight-curve $-1 -65.01212056478856 0 -8.2830319294102903 0 1 0 I I #
straight-curve $-1 -65.01212056478856 -22.285913969736555 -5.951602948459402 0 0 -1 I I #
point $-1 -65.01212056478856 -22.285913969736555 -8.2830319294102903 #
point $-1 65.012120564788546 22.285913969736555 -8.2830319294102903 #
straight-curve $-1 65.012120564788546 22.285913969736555 -5.951602948459402 0 0 -1 I I #
End-of-ACIS-data 