500 0 14 0           
7 Unknown 11 ACIS 5.0 NT 24 Thu Mar 25 17:33:28 1999 
-1 9.9999999999999995e-007 1e-010 
body $-1 $14 $-1 $15 #
body $-1 $16 $-1 $17 #
body $-1 $18 $-1 $19 #
body $-1 $20 $-1 $21 #
body $-1 $22 $-1 $23 #
body $-1 $24 $-1 $25 #
body $-1 $26 $-1 $27 #
body $-1 $28 $-1 $29 #
body $-1 $30 $-1 $31 #
body $-1 $32 $-1 $33 #
body $-1 $34 $-1 $35 #
body $-1 $36 $-1 $37 #
body $-1 $38 $-1 $39 #
body $-1 $40 $-1 $41 #
lump $-1 $-1 $42 $0 #
transform $-1 1 0 0 0 1 0 0 0 1 60.586565752128664 26.422376921839614 8.6226117332353649 1 rotate no_reflect no_shear #
lump $-1 $-1 $43 $1 #
transform $-1 1 0 0 0 1 0 0 0 1 60.586565752128664 26.422376921839614 8.6226117332353649 1 rotate no_reflect no_shear #
lump $-1 $-1 $44 $2 #
transform $-1 1 0 0 0 1 0 0 0 1 60.586565752128664 26.422376921839614 8.6226117332353649 1 rotate no_reflect no_shear #
lump $-1 $-1 $45 $3 #
transform $-1 1 0 0 0 1 0 0 0 1 60.586565752128664 26.422376921839614 8.6226117332353649 1 rotate no_reflect no_shear #
lump $-1 $-1 $46 $4 #
transform $-1 1 0 0 0 1 0 0 0 1 60.586565752128664 26.422376921839614 8.6226117332353649 1 rotate no_reflect no_shear #
lump $-1 $-1 $47 $5 #
transform $-1 1 0 0 0 1 0 0 0 1 60.586565752128664 26.422376921839614 8.6226117332353649 1 rotate no_reflect no_shear #
lump $-1 $-1 $48 $6 #
transform $-1 1 0 0 0 1 0 0 0 1 60.586565752128664 26.422376921839614 8.6226117332353649 1 rotate no_reflect no_shear #
lump $-1 $-1 $49 $7 #
transform $-1 1 0 0 0 1 0 0 0 1 60.586565752128664 26.422376921839614 8.6226117332353649 1 rotate no_reflect no_shear #
lump $-1 $-1 $50 $8 #
transform $-1 1 0 0 0 1 0 0 0 1 60.586565752128664 26.422376921839614 8.6226117332353649 1 rotate no_reflect no_shear #
lump $-1 $-1 $51 $9 #
transform $-1 1 0 0 0 1 0 0 0 1 60.586565752128664 26.422376921839614 8.6226117332353649 1 rotate no_reflect no_shear #
lump $-1 $-1 $52 $10 #
transform $-1 1 0 0 0 1 0 0 0 1 60.586565752128664 26.422376921839614 8.6226117332353649 1 rotate no_reflect no_shear #
lump $-1 $-1 $53 $11 #
transform $-1 1 0 0 0 1 0 0 0 1 60.586565752128664 26.422376921839614 8.6226117332353649 1 rotate no_reflect no_shear #
lump $-1 $-1 $54 $12 #
transform $-1 1 0 0 0 1 0 0 0 1 60.586565752128664 26.422376921839614 8.6226117332353649 1 rotate no_reflect no_shear #
lump $-1 $-1 $55 $13 #
transform $-1 1 0 0 0 1 0 0 0 1 60.586565752128664 26.422376921839614 8.6226117332353649 1 rotate no_reflect no_shear #
shell $-1 $-1 $-1 $56 $-1 $14 #
shell $-1 $-1 $-1 $57 $-1 $16 #
shell $-1 $-1 $-1 $58 $-1 $18 #
shell $-1 $-1 $-1 $59 $-1 $20 #
shell $-1 $-1 $-1 $60 $-1 $22 #
shell $-1 $-1 $-1 $61 $-1 $24 #
shell $-1 $-1 $-1 $62 $-1 $26 #
shell $-1 $-1 $-1 $63 $-1 $28 #
shell $-1 $-1 $-1 $64 $-1 $30 #
shell $-1 $-1 $-1 $65 $-1 $32 #
shell $-1 $-1 $-1 $66 $-1 $34 #
shell $-1 $-1 $-1 $67 $-1 $36 #
shell $-1 $-1 $-1 $68 $-1 $38 #
shell $-1 $-1 $-1 $69 $-1 $40 #
face $-1 $70 $71 $42 $-1 $72 forward single #
face $-1 $73 $74 $43 $-1 $75 reversed single #
face $-1 $76 $77 $44 $-1 $78 reversed single #
face $-1 $79 $80 $45 $-1 $81 forward single #
face $-1 $82 $83 $46 $-1 $84 forward single #
face $-1 $85 $86 $47 $-1 $87 forward single #
face $-1 $88 $89 $48 $-1 $90 reversed single #
face $-1 $91 $92 $49 $-1 $93 forward single #
face $-1 $94 $95 $50 $-1 $96 forward single #
face $-1 $97 $98 $51 $-1 $99 forward single #
face $-1 $100 $101 $52 $-1 $102 reversed single #
face $-1 $103 $104 $53 $-1 $105 forward single #
face $-1 $106 $107 $54 $-1 $108 forward single #
face $-1 $109 $110 $55 $-1 $111 forward single #
face $-1 $112 $113 $42 $-1 $114 reversed single #
loop $-1 $-1 $115 $56 #
plane-surface $-1 0 0 8.6226117332353649 0 0 1 1 0 0 forward_v I I I I #
face $-1 $116 $117 $43 $-1 $118 reversed single #
loop $-1 $-1 $119 $57 #
plane-surface $-1 -54.926730461520279 -23.422376921839614 0 0 -1 0 0 0 -1 forward_v I I I I #
face $-1 $120 $121 $44 $-1 $122 reversed single #
loop $-1 $-1 $123 $58 #
plane-surface $-1 -35.322408562731447 -26.422376921839614 3.3095282601065179 0 -0.84804810408105047 0.52991925155115449 1 0 0 forward_v I I I I #
face $-1 $124 $125 $45 $-1 $126 forward single #
loop $-1 $127 $128 $59 #
cone-surface $-1 -43.689100527639717 -24.180706300672664 5.6025965270639544 0 0.84804810408105047 -0.52991925155115449 1 0 0 1 I I 0 1 1 forward I I I I #
face $-1 $129 $130 $46 $-1 $131 forward single #
loop $-1 $132 $133 $60 #
cone-surface $-1 -35.322408562731447 -24.180706300672664 5.6025965270639544 0 0.84804810408105047 -0.52991925155115449 1 0 0 1 I I 0 1 1 forward I I I I #
face $-1 $134 $135 $47 $-1 $136 forward single #
loop $-1 $137 $138 $61 #
cone-surface $-1 -26.955716597823177 -24.180706300672664 5.6025965270639544 0 0.84804810408105047 -0.52991925155115449 1 0 0 1 I I 0 1 1 forward I I I I #
face $-1 $139 $140 $48 $-1 $141 reversed single #
loop $-1 $-1 $142 $62 #
plane-surface $-1 -37.493749598055587 57.142492150808465 129.28324150059885 1 0 0 0 -0.6018150307709319 -0.79863550430605224 forward_v I I I I #
face $-1 $143 $144 $49 $-1 $145 forward single #
loop $-1 $146 $147 $63 #
cone-surface $-1 -32.638130741929984 20.163673668858017 3.3289942385977387 0 -0.6018150307709319 -0.79863550430605224 1.5 0 0 1 I I 0 1 1.5 forward I I I I #
face $-1 $148 $149 $50 $-1 $150 forward single #
loop $-1 $151 $152 $64 #
cone-surface $-1 -25.354702457741595 20.163673668858017 3.3289942385977387 0 -0.6018150307709319 -0.79863550430605224 1.5 0 0 1 I I 0 1 1.5 forward I I I I #
face $-1 $153 $154 $51 $-1 $155 forward single #
loop $-1 $156 $157 $65 #
cone-surface $-1 -18.071274173553206 20.163673668858017 3.3289942385977387 0 -0.6018150307709319 -0.79863550430605224 1.5 0 0 1 I I 0 1 1.5 forward I I I I #
face $-1 $158 $159 $52 $-1 $160 reversed single #
loop $-1 $-1 $161 $66 #
plane-surface $-1 17.432980863464696 57.142492150808465 129.28324150059885 1 0 0 0 -0.6018150307709319 -0.79863550430605224 forward_v I I I I #
face $-1 $162 $163 $53 $-1 $164 forward single #
loop $-1 $165 $166 $67 #
cone-surface $-1 22.288599719590295 20.163673668858017 3.3289942385977387 0 -0.6018150307709319 -0.79863550430605224 1.5 0 0 1 I I 0 1 1.5 forward I I I I #
face $-1 $167 $168 $54 $-1 $169 forward single #
loop $-1 $170 $171 $68 #
cone-surface $-1 29.572028003778684 20.163673668858017 3.3289942385977387 0 -0.6018150307709319 -0.79863550430605224 1.5 0 0 1 I I 0 1 1.5 forward I I I I #
face $-1 $172 $173 $55 $-1 $174 forward single #
loop $-1 $175 $176 $69 #
cone-surface $-1 36.855456287967073 20.163673668858017 3.3289942385977387 0 -0.6018150307709319 -0.79863550430605224 1.5 0 0 1 I I 0 1 1.5 forward I I I I #
face $-1 $177 $178 $42 $-1 $179 reversed single #
loop $-1 $-1 $180 $70 #
plane-surface $-1 0 0 -8.6226117332353649 0 0 1 1 0 0 forward_v I I I I #
coedge $-1 $181 $182 $183 $184 forward $71 $-1 #
face $-1 $185 $186 $43 $-1 $187 forward single #
loop $-1 $-1 $188 $73 #
plane-surface $-1 -49.266895170911894 -24.922376921839614 0 -1 0 0 0 0 1 forward_v I I I I #
coedge $-1 $189 $190 $191 $192 forward $74 $-1 #
face $-1 $193 $194 $44 $-1 $195 forward single #
loop $-1 $-1 $196 $76 #
plane-surface $-1 -21.377921954550999 -129.18302135958885 67.521503414952178 -1 0 0 0 -0.84804810408105047 0.52991925155115449 forward_v I I I I #
coedge $-1 $197 $198 $199 $200 reversed $77 $-1 #
face $-1 $-1 $201 $45 $-1 $202 forward single #
loop $-1 $203 $204 $79 #
cone-surface $-1 -43.689100527639717 -23.175003085473424 4.9741634316813883 0 0.84804810408105047 -0.52991925155115449 0.5 0 0 1 I I -0.70710678118654746 0.70710678118654746 0.5 forward I I I I #
loop $-1 $-1 $205 $59 #
coedge $-1 $128 $128 $206 $207 reversed $80 $-1 #
face $-1 $-1 $208 $46 $-1 $209 forward single #
loop $-1 $210 $211 $82 #
cone-surface $-1 -35.322408562731447 -23.175003085473424 4.9741634316813883 0 0.84804810408105047 -0.52991925155115449 0.5 0 0 1 I I -0.70710678118654746 0.70710678118654746 0.5 forward I I I I #
loop $-1 $-1 $212 $60 #
coedge $-1 $133 $133 $213 $214 reversed $83 $-1 #
face $-1 $-1 $215 $47 $-1 $216 forward single #
loop $-1 $217 $218 $85 #
cone-surface $-1 -26.955716597823177 -23.175003085473424 4.9741634316813883 0 0.84804810408105047 -0.52991925155115449 0.5 0 0 1 I I -0.70710678118654746 0.70710678118654746 0.5 forward I I I I #
loop $-1 $-1 $219 $61 #
coedge $-1 $138 $138 $220 $221 reversed $86 $-1 #
face $-1 $222 $223 $48 $-1 $224 reversed single #
loop $-1 $-1 $225 $88 #
plane-surface $-1 -25.354702457741595 -15.781319714036343 32.510076513352715 0 0.6018150307709319 0.79863550430605224 1 0 0 forward_v I I I I #
coedge $-1 $226 $227 $228 $229 reversed $89 $-1 #
face $-1 $-1 $230 $49 $-1 $231 forward single #
loop $-1 $232 $233 $91 #
cone-surface $-1 -32.638130741929984 18.705589556287428 1.3940513059299651 0 -0.6018150307709319 -0.79863550430605224 0.75 0 0 1 I I -0.70710678118654757 0.70710678118654757 0.75 forward I I I I #
loop $-1 $-1 $234 $63 #
coedge $-1 $147 $147 $235 $236 reversed $92 $-1 #
face $-1 $-1 $237 $50 $-1 $238 forward single #
loop $-1 $239 $240 $94 #
cone-surface $-1 -25.354702457741595 18.705589556287428 1.3940513059299651 0 -0.6018150307709319 -0.79863550430605224 0.75 0 0 1 I I -0.70710678118654757 0.70710678118654757 0.75 forward I I I I #
loop $-1 $-1 $241 $64 #
coedge $-1 $152 $152 $242 $243 reversed $95 $-1 #
face $-1 $-1 $244 $51 $-1 $245 forward single #
loop $-1 $246 $247 $97 #
cone-surface $-1 -18.071274173553206 18.705589556287428 1.3940513059299651 0 -0.6018150307709319 -0.79863550430605224 0.75 0 0 1 I I -0.70710678118654757 0.70710678118654757 0.75 forward I I I I #
loop $-1 $-1 $248 $65 #
coedge $-1 $157 $157 $249 $250 reversed $98 $-1 #
face $-1 $251 $252 $52 $-1 $253 reversed single #
loop $-1 $-1 $254 $100 #
plane-surface $-1 29.572028003778684 -15.781319714036343 32.510076513352715 0 0.6018150307709319 0.79863550430605224 1 0 0 forward_v I I I I #
coedge $-1 $255 $256 $257 $258 reversed $101 $-1 #
face $-1 $-1 $259 $53 $-1 $260 forward single #
loop $-1 $261 $262 $103 #
cone-surface $-1 22.288599719590295 18.705589556287428 1.3940513059299651 0 -0.6018150307709319 -0.79863550430605224 0.75 0 0 1 I I -0.70710678118654757 0.70710678118654757 0.75 forward I I I I #
loop $-1 $-1 $263 $67 #
coedge $-1 $166 $166 $264 $265 reversed $104 $-1 #
face $-1 $-1 $266 $54 $-1 $267 forward single #
loop $-1 $268 $269 $106 #
cone-surface $-1 29.572028003778684 18.705589556287428 1.3940513059299651 0 -0.6018150307709319 -0.79863550430605224 0.75 0 0 1 I I -0.70710678118654757 0.70710678118654757 0.75 forward I I I I #
loop $-1 $-1 $270 $68 #
coedge $-1 $171 $171 $271 $272 reversed $107 $-1 #
face $-1 $-1 $273 $55 $-1 $274 forward single #
loop $-1 $275 $276 $109 #
cone-surface $-1 36.855456287967073 18.705589556287428 1.3940513059299651 0 -0.6018150307709319 -0.79863550430605224 0.75 0 0 1 I I -0.70710678118654757 0.70710678118654757 0.75 forward I I I I #
loop $-1 $-1 $277 $69 #
coedge $-1 $176 $176 $278 $279 reversed $110 $-1 #
face $-1 $280 $281 $42 $-1 $282 reversed single #
loop $-1 $-1 $283 $112 #
plane-surface $-1 0 -26.422376921839614 0 0 1 0 0 0 1 forward_v I I I I #
coedge $-1 $284 $285 $286 $287 forward $113 $-1 #
coedge $-1 $288 $115 $289 $290 forward $71 $-1 #
coedge $-1 $115 $288 $291 $292 forward $71 $-1 #
coedge $-1 $293 $294 $115 $184 reversed $295 $-1 #
edge $-1 $296 -26.422376921839614 $297 26.422376921839614 $183 $298 forward 7 unknown #
face $-1 $299 $300 $43 $-1 $301 reversed single #
loop $-1 $-1 $302 $116 #
plane-surface $-1 0 0 8.6226117332353649 0 0 1 1 0 0 forward_v I I I I #
coedge $-1 $303 $304 $305 $306 reversed $117 $-1 #
coedge $-1 $307 $119 $308 $309 reversed $74 $-1 #
coedge $-1 $119 $307 $310 $311 reversed $74 $-1 #
coedge $-1 $304 $303 $119 $192 reversed $117 $-1 #
edge $-1 $312 -8.6226117332353649 $313 8.6226117332353649 $191 $314 forward 7 unknown #
face $-1 $315 $316 $44 $-1 $317 forward single #
loop $-1 $-1 $318 $120 #
plane-surface $-1 0 0 8.6226117332353649 0 0 1 1 0 0 forward_v I I I I #
coedge $-1 $319 $320 $321 $322 reversed $121 $-1 #
coedge $-1 $323 $123 $324 $325 reversed $77 $-1 #
coedge $-1 $123 $323 $319 $326 forward $77 $-1 #
coedge $-1 $321 $327 $123 $200 forward $328 $-1 #
edge $-1 $329 -31.605690889546171 $330 -3.7167176731852756 $199 $331 forward 7 unknown #
loop $-1 $-1 $206 $124 #
plane-surface $-1 -35.322408562731447 -26.422376921839614 3.3095282601065179 0 -0.84804810408105047 0.52991925155115449 1 0 0 forward_v I I I I #
loop $-1 $-1 $332 $79 #
coedge $-1 $204 $204 $205 $333 reversed $125 $-1 #
coedge $-1 $205 $205 $204 $333 forward $127 $-1 #
coedge $-1 $206 $206 $128 $207 forward $201 $-1 #
edge $-1 $334 7.5321802491239463e-016 $334 6.2831853071796013 $206 $335 forward 7 unknown #
loop $-1 $-1 $213 $129 #
plane-surface $-1 -35.322408562731447 -26.422376921839614 3.3095282601065179 0 -0.84804810408105047 0.52991925155115449 1 0 0 forward_v I I I I #
loop $-1 $-1 $336 $82 #
coedge $-1 $211 $211 $212 $337 reversed $130 $-1 #
coedge $-1 $212 $212 $211 $337 forward $132 $-1 #
coedge $-1 $213 $213 $133 $214 forward $208 $-1 #
edge $-1 $338 7.5321802491239463e-016 $338 6.2831853071796013 $213 $339 forward 7 unknown #
loop $-1 $-1 $220 $134 #
plane-surface $-1 -35.322408562731447 -26.422376921839614 3.3095282601065179 0 -0.84804810408105047 0.52991925155115449 1 0 0 forward_v I I I I #
loop $-1 $-1 $340 $85 #
coedge $-1 $218 $218 $219 $341 reversed $135 $-1 #
coedge $-1 $219 $219 $218 $341 forward $137 $-1 #
coedge $-1 $220 $220 $138 $221 forward $215 $-1 #
edge $-1 $342 7.5321802491239463e-016 $342 6.2831853071796013 $220 $343 forward 7 unknown #
face $-1 $344 $345 $48 $-1 $346 reversed single #
loop $-1 $-1 $347 $139 #
plane-surface $-1 -13.215655317427608 57.142492150808465 129.28324150059885 -1 0 0 0 0.6018150307709319 0.79863550430605224 forward_v I I I I #
coedge $-1 $348 $349 $350 $351 reversed $140 $-1 #
coedge $-1 $227 $142 $352 $353 reversed $89 $-1 #
coedge $-1 $142 $226 $348 $354 reversed $89 $-1 #
coedge $-1 $350 $355 $142 $229 forward $356 $-1 #
edge $-1 $357 2.1488691535646183 $358 12.652829980543043 $228 $359 forward 7 unknown #
loop $-1 $-1 $235 $143 #
plane-surface $-1 -25.354702457741595 -15.781319714036343 32.510076513352715 0 0.6018150307709319 0.79863550430605224 1 0 0 forward_v I I I I #
loop $-1 $-1 $360 $91 #
coedge $-1 $233 $233 $234 $361 reversed $144 $-1 #
coedge $-1 $234 $234 $233 $361 forward $146 $-1 #
coedge $-1 $235 $235 $147 $236 forward $230 $-1 #
edge $-1 $362 -3.5634608198793902e-016 $362 6.2831853071796004 $235 $363 forward 7 unknown #
loop $-1 $-1 $242 $148 #
plane-surface $-1 -25.354702457741595 -15.781319714036343 32.510076513352715 0 0.6018150307709319 0.79863550430605224 1 0 0 forward_v I I I I #
loop $-1 $-1 $364 $94 #
coedge $-1 $240 $240 $241 $365 reversed $149 $-1 #
coedge $-1 $241 $241 $240 $365 forward $151 $-1 #
coedge $-1 $242 $242 $152 $243 forward $237 $-1 #
edge $-1 $366 -3.5634608198793902e-016 $366 6.2831853071796004 $242 $367 forward 7 unknown #
loop $-1 $-1 $249 $153 #
plane-surface $-1 -25.354702457741595 -15.781319714036343 32.510076513352715 0 0.6018150307709319 0.79863550430605224 1 0 0 forward_v I I I I #
loop $-1 $-1 $368 $97 #
coedge $-1 $247 $247 $248 $369 reversed $154 $-1 #
coedge $-1 $248 $248 $247 $369 forward $156 $-1 #
coedge $-1 $249 $249 $157 $250 forward $244 $-1 #
edge $-1 $370 -3.5634608198793902e-016 $370 6.2831853071796004 $249 $371 forward 7 unknown #
face $-1 $372 $373 $52 $-1 $374 forward single #
loop $-1 $-1 $375 $158 #
plane-surface $-1 41.711075144092675 57.142492150808465 129.28324150059885 -1 0 0 0 0.6018150307709319 0.79863550430605224 forward_v I I I I #
coedge $-1 $376 $377 $378 $379 reversed $159 $-1 #
coedge $-1 $256 $161 $380 $381 reversed $101 $-1 #
coedge $-1 $161 $255 $376 $382 reversed $101 $-1 #
coedge $-1 $378 $383 $161 $258 forward $373 $-1 #
edge $-1 $384 2.1488691535646183 $385 12.652829980543043 $257 $386 forward 7 unknown #
loop $-1 $-1 $264 $162 #
plane-surface $-1 29.572028003778684 -15.781319714036343 32.510076513352715 0 0.6018150307709319 0.79863550430605224 1 0 0 forward_v I I I I #
loop $-1 $-1 $387 $103 #
coedge $-1 $262 $262 $263 $388 reversed $163 $-1 #
coedge $-1 $263 $263 $262 $388 forward $165 $-1 #
coedge $-1 $264 $264 $166 $265 forward $259 $-1 #
edge $-1 $389 -3.5634608198793902e-016 $389 6.2831853071796004 $264 $390 forward 7 unknown #
loop $-1 $-1 $271 $167 #
plane-surface $-1 29.572028003778684 -15.781319714036343 32.510076513352715 0 0.6018150307709319 0.79863550430605224 1 0 0 forward_v I I I I #
loop $-1 $-1 $391 $106 #
coedge $-1 $269 $269 $270 $392 reversed $168 $-1 #
coedge $-1 $270 $270 $269 $392 forward $170 $-1 #
coedge $-1 $271 $271 $171 $272 forward $266 $-1 #
edge $-1 $393 -3.5634608198793902e-016 $393 6.2831853071796004 $271 $394 forward 7 unknown #
loop $-1 $-1 $278 $172 #
plane-surface $-1 29.572028003778684 -15.781319714036343 32.510076513352715 0 0.6018150307709319 0.79863550430605224 1 0 0 forward_v I I I I #
loop $-1 $-1 $395 $109 #
coedge $-1 $276 $276 $277 $396 reversed $173 $-1 #
coedge $-1 $277 $277 $276 $396 forward $175 $-1 #
coedge $-1 $278 $278 $176 $279 forward $273 $-1 #
edge $-1 $397 -3.5634608198793902e-016 $397 6.2831853071796004 $278 $398 forward 7 unknown #
face $-1 $399 $400 $42 $-1 $401 reversed single #
loop $-1 $-1 $402 $177 #
plane-surface $-1 -60.586565752128664 0 0 1 0 0 0 0 -1 forward_v I I I I #
coedge $-1 $403 $291 $404 $405 forward $178 $-1 #
coedge $-1 $406 $180 $403 $407 forward $113 $-1 #
coedge $-1 $180 $406 $408 $409 forward $113 $-1 #
coedge $-1 $294 $293 $180 $287 reversed $295 $-1 #
edge $-1 $410 -26.422376921839614 $411 26.422376921839614 $286 $412 forward 7 unknown #
coedge $-1 $182 $181 $413 $414 forward $71 $-1 #
coedge $-1 $415 $416 $181 $290 reversed $400 $-1 #
edge $-1 $297 -60.586565752128664 $417 60.586565752128664 $289 $418 forward 7 unknown #
coedge $-1 $283 $419 $182 $292 reversed $178 $-1 #
edge $-1 $420 -60.586565752128664 $296 60.586565752128664 $291 $421 forward 7 unknown #
coedge $-1 $286 $183 $419 $422 forward $295 $-1 #
coedge $-1 $183 $286 $415 $423 reversed $295 $-1 #
loop $-1 $-1 $293 $399 #
vertex $-1 $184 $424 #
vertex $-1 $184 $425 #
straight-curve $-1 60.586565752128664 0 8.6226117332353649 0 1 0 I I #
face $-1 $426 $427 $43 $-1 $428 reversed single #
loop $-1 $-1 $429 $185 #
plane-surface $-1 -60.586565752128664 0 0 1 0 0 0 0 -1 forward_v I I I I #
coedge $-1 $310 $430 $304 $431 forward $186 $-1 #
coedge $-1 $191 $188 $432 $433 reversed $117 $-1 #
coedge $-1 $188 $191 $302 $431 reversed $117 $-1 #
coedge $-1 $434 $435 $188 $306 forward $436 $-1 #
edge $-1 $437 -8.6226117332353649 $438 8.6226117332353649 $305 $439 forward 7 unknown #
coedge $-1 $190 $189 $429 $440 reversed $74 $-1 #
coedge $-1 $432 $441 $189 $309 forward $427 $-1 #
edge $-1 $442 -33.123200521368524 $313 -21.803529940151755 $308 $443 forward 7 unknown #
coedge $-1 $444 $302 $190 $311 forward $186 $-1 #
edge $-1 $312 21.803529940151755 $445 33.123200521368524 $310 $446 forward 7 unknown #
vertex $-1 $311 $447 #
vertex $-1 $309 $448 #
straight-curve $-1 -49.266895170911894 -23.422376921839614 0 0 0 -1 I I #
face $-1 $-1 $328 $44 $-1 $449 reversed single #
loop $-1 $-1 $324 $193 #
plane-surface $-1 -49.266895170911894 -24.922376921839614 0 -1 0 0 0 0 1 forward_v I I I I #
coedge $-1 $450 $451 $320 $452 forward $194 $-1 #
coedge $-1 $320 $196 $198 $326 reversed $121 $-1 #
coedge $-1 $196 $319 $318 $452 reversed $121 $-1 #
coedge $-1 $453 $199 $196 $322 forward $328 $-1 #
edge $-1 $330 -30.451223447369571 $454 -25.138139974240723 $321 $455 forward 7 unknown #
coedge $-1 $198 $197 $450 $456 reversed $77 $-1 #
coedge $-1 $457 $458 $197 $325 forward $316 $-1 #
edge $-1 $459 -7.2709533727589779 $329 -1.0058801445296286 $324 $460 forward 7 unknown #
edge $-1 $461 -6.2650732282293493 $330 0 $319 $462 forward 7 unknown #
coedge $-1 $199 $453 $457 $463 forward $328 $-1 #
loop $-1 $-1 $321 $315 #
vertex $-1 $325 $464 #
vertex $-1 $200 $465 #
straight-curve $-1 -17.661204281365723 -26.422376921839614 3.3095282601065206 1 0 0 I I #
coedge $-1 $332 $332 $-1 $466 reversed $203 $-1 #
edge $-1 $467 0 $467 6.2831853071796004 $204 $468 forward 7 unknown #
vertex $-1 $207 $469 #
ellipse-curve $-1 -43.689100527639717 -24.762385463831379 5.9660699966709423 0 -0.84804810408105047 0.52991925155115449 1 0 0 1 I I #
coedge $-1 $336 $336 $-1 $470 reversed $210 $-1 #
edge $-1 $471 0 $471 6.2831853071796004 $211 $472 forward 7 unknown #
vertex $-1 $214 $473 #
ellipse-curve $-1 -35.322408562731447 -24.762385463831379 5.9660699966709423 0 -0.84804810408105047 0.52991925155115449 1 0 0 1 I I #
coedge $-1 $340 $340 $-1 $474 reversed $217 $-1 #
edge $-1 $475 0 $475 6.2831853071796004 $218 $476 forward 7 unknown #
vertex $-1 $221 $477 #
ellipse-curve $-1 -26.955716597823177 -24.762385463831379 5.9660699966709423 0 -0.84804810408105047 0.52991925155115449 1 0 0 1 I I #
face $-1 $-1 $356 $48 $-1 $478 forward single #
loop $-1 $-1 $479 $222 #
plane-surface $-1 0 26.422376921839614 0 0 -1 0 0 0 -1 forward_v I I I I #
coedge $-1 $480 $481 $482 $483 reversed $223 $-1 #
coedge $-1 $484 $225 $227 $354 forward $140 $-1 #
coedge $-1 $225 $484 $480 $485 forward $140 $-1 #
coedge $-1 $482 $228 $225 $351 forward $356 $-1 #
edge $-1 $358 -24.816398369184789 $486 -0.53830408855681 $350 $487 forward 7 unknown #
coedge $-1 $488 $489 $226 $353 forward $345 $-1 #
edge $-1 $490 -63.934311397462849 $357 -56.019009017064057 $352 $491 forward 7 unknown #
edge $-1 $358 39.69236984579338 $490 52.844753843679243 $227 $492 forward 7 unknown #
coedge $-1 $228 $482 $488 $493 forward $356 $-1 #
loop $-1 $-1 $482 $344 #
vertex $-1 $353 $494 #
vertex $-1 $229 $495 #
straight-curve $-1 -37.493749598055587 28.571246075404233 8.6226117332353667 0 -1 0 I I #
coedge $-1 $360 $360 $-1 $496 reversed $232 $-1 #
edge $-1 $497 0 $497 6.2831853071796004 $233 $498 forward 7 unknown #
vertex $-1 $236 $499 #
ellipse-curve $-1 -32.638130741929984 21.170396508350404 4.6649605430359724 0 0.6018150307709319 0.79863550430605224 1.5 0 0 1 I I #
coedge $-1 $364 $364 $-1 $500 reversed $239 $-1 #
edge $-1 $501 0 $501 6.2831853071796004 $240 $502 forward 7 unknown #
vertex $-1 $243 $503 #
ellipse-curve $-1 -25.354702457741595 21.170396508350404 4.6649605430359724 0 0.6018150307709319 0.79863550430605224 1.5 0 0 1 I I #
coedge $-1 $368 $368 $-1 $504 reversed $246 $-1 #
edge $-1 $505 0 $505 6.2831853071796004 $247 $506 forward 7 unknown #
vertex $-1 $250 $507 #
ellipse-curve $-1 -18.071274173553206 21.170396508350404 4.6649605430359724 0 0.6018150307709319 0.79863550430605224 1.5 0 0 1 I I #
face $-1 $-1 $508 $52 $-1 $509 reversed single #
loop $-1 $-1 $257 $251 #
plane-surface $-1 0 0 8.6226117332353649 0 0 1 1 0 0 forward_v I I I I #
coedge $-1 $510 $511 $512 $513 reversed $252 $-1 #
coedge $-1 $514 $254 $256 $382 forward $159 $-1 #
coedge $-1 $254 $514 $510 $515 forward $159 $-1 #
coedge $-1 $512 $257 $254 $379 forward $373 $-1 #
edge $-1 $385 2.6469668615753541 $516 26.925061142203333 $378 $517 forward 7 unknown #
coedge $-1 $518 $519 $255 $381 forward $508 $-1 #
edge $-1 $520 -63.934311397462849 $384 -56.019009017064057 $380 $521 forward 7 unknown #
edge $-1 $385 39.69236984579338 $520 52.844753843679243 $256 $522 forward 7 unknown #
coedge $-1 $257 $512 $518 $523 forward $373 $-1 #
vertex $-1 $381 $524 #
vertex $-1 $258 $525 #
straight-curve $-1 17.432980863464696 28.571246075404233 8.6226117332353667 0 -1 0 I I #
coedge $-1 $387 $387 $-1 $526 reversed $261 $-1 #
edge $-1 $527 0 $527 6.2831853071796004 $262 $528 forward 7 unknown #
vertex $-1 $265 $529 #
ellipse-curve $-1 22.288599719590295 21.170396508350404 4.6649605430359724 0 0.6018150307709319 0.79863550430605224 1.5 0 0 1 I I #
coedge $-1 $391 $391 $-1 $530 reversed $268 $-1 #
edge $-1 $531 0 $531 6.2831853071796004 $269 $532 forward 7 unknown #
vertex $-1 $272 $533 #
ellipse-curve $-1 29.572028003778684 21.170396508350404 4.6649605430359724 0 0.6018150307709319 0.79863550430605224 1.5 0 0 1 I I #
coedge $-1 $395 $395 $-1 $534 reversed $275 $-1 #
edge $-1 $535 0 $535 6.2831853071796004 $276 $536 forward 7 unknown #
vertex $-1 $279 $537 #
ellipse-curve $-1 36.855456287967073 21.170396508350404 4.6649605430359724 0 0.6018150307709319 0.79863550430605224 1.5 0 0 1 I I #
face $-1 $-1 $295 $42 $-1 $538 reversed single #
loop $-1 $-1 $415 $280 #
plane-surface $-1 0 26.422376921839614 0 0 -1 0 0 0 -1 forward_v I I I I #
coedge $-1 $539 $413 $416 $540 forward $281 $-1 #
coedge $-1 $419 $283 $284 $407 reversed $178 $-1 #
coedge $-1 $413 $539 $283 $405 reversed $281 $-1 #
edge $-1 $420 -8.6226117332353649 $541 8.6226117332353649 $404 $542 forward 7 unknown #
coedge $-1 $285 $284 $539 $543 forward $113 $-1 #
edge $-1 $411 -60.586565752128664 $541 60.586565752128664 $403 $544 forward 7 unknown #
coedge $-1 $416 $415 $285 $409 reversed $400 $-1 #
edge $-1 $545 -60.586565752128664 $410 60.586565752128664 $408 $546 forward 7 unknown #
vertex $-1 $287 $547 #
vertex $-1 $422 $548 #
straight-curve $-1 60.586565752128664 0 -8.6226117332353649 0 -1 0 I I #
coedge $-1 $402 $404 $288 $414 reversed $281 $-1 #
edge $-1 $417 -26.422376921839614 $420 26.422376921839614 $413 $549 forward 7 unknown #
coedge $-1 $408 $289 $294 $423 forward $400 $-1 #
coedge $-1 $289 $408 $402 $540 reversed $400 $-1 #
vertex $-1 $290 $550 #
straight-curve $-1 0 26.422376921839614 8.6226117332353649 -1 0 0 I I #
coedge $-1 $291 $403 $293 $422 reversed $178 $-1 #
vertex $-1 $414 $551 #
straight-curve $-1 0 -26.422376921839614 8.6226117332353649 1 0 0 I I #
edge $-1 $296 -8.6226117332353649 $411 8.6226117332353649 $293 $552 forward 7 unknown #
edge $-1 $297 -8.6226117332353649 $410 8.6226117332353649 $294 $553 forward 7 unknown #
point $-1 60.586565752128664 -26.422376921839614 8.6226117332353649 #
point $-1 60.586565752128664 26.422376921839614 8.6226117332353649 #
face $-1 $-1 $436 $43 $-1 $554 reversed single #
loop $-1 $-1 $432 $299 #
plane-surface $-1 0 0 -8.6226117332353649 0 0 1 1 0 0 forward_v I I I I #
coedge $-1 $555 $556 $307 $440 forward $300 $-1 #
coedge $-1 $302 $444 $434 $557 forward $186 $-1 #
edge $-1 $438 -13.961188460919807 $312 -10.961188460919807 $302 $558 forward 7 unknown #
coedge $-1 $559 $308 $303 $433 forward $427 $-1 #
edge $-1 $313 10.961188460919807 $437 13.961188460919807 $432 $560 forward 7 unknown #
coedge $-1 $561 $305 $430 $557 reversed $436 $-1 #
coedge $-1 $305 $561 $559 $562 reversed $436 $-1 #
loop $-1 $-1 $305 $426 #
vertex $-1 $562 $563 #
vertex $-1 $306 $564 #
straight-curve $-1 -49.266895170911894 -26.422376921839614 0 0 0 1 I I #
edge $-1 $445 -8.6226117332353649 $442 8.6226117332353649 $429 $565 forward 7 unknown #
coedge $-1 $308 $559 $555 $566 forward $427 $-1 #
vertex $-1 $309 $567 #
straight-curve $-1 -27.463365230760139 -23.422376921839614 -8.6226117332353649 1 0 0 I I #
coedge $-1 $430 $310 $556 $568 forward $186 $-1 #
vertex $-1 $568 $569 #
straight-curve $-1 -27.463365230760139 -23.422376921839614 8.6226117332353649 -1 0 0 I I #
point $-1 -49.266895170911894 -23.422376921839614 8.6226117332353649 #
point $-1 -49.266895170911894 -23.422376921839614 -8.6226117332353649 #
plane-surface $-1 0 -26.422376921839614 0 0 1 0 0 0 1 forward_v I I I I #
coedge $-1 $570 $318 $323 $456 forward $194 $-1 #
coedge $-1 $318 $570 $453 $571 forward $194 $-1 #
edge $-1 $454 38.16913375795481 $461 41.489116673971282 $318 $572 forward 7 unknown #
coedge $-1 $327 $321 $451 $571 reversed $328 $-1 #
vertex $-1 $452 $573 #
straight-curve $-1 -21.377921954550999 -26.422376921839614 33.760751707476089 0 0 1 I I #
edge $-1 $461 3.7167176731852756 $459 31.605690889546171 $450 $574 forward 7 unknown #
coedge $-1 $458 $324 $327 $463 reversed $316 $-1 #
coedge $-1 $324 $457 $570 $575 reversed $316 $-1 #
vertex $-1 $575 $576 #
straight-curve $-1 -49.266895170911894 -26.955412175178921 2.4564935106053927 0 -0.52991925155115449 -0.84804810408105047 I I #
vertex $-1 $456 $577 #
straight-curve $-1 -21.377921954550999 -26.422376921839614 3.3095282601065179 0 -0.52991925155115449 -0.84804810408105047 I I #
edge $-1 $578 -8.6226117332353649 $329 -3.3095282601065179 $327 $579 forward 7 unknown #
point $-1 -49.266895170911894 -26.422376921839614 3.3095282601065179 #
point $-1 -21.377921954550999 -26.422376921839614 3.3095282601065179 #
edge $-1 $580 1 $580 0 $332 $-1 forward 7 unknown #
vertex $-1 $333 $581 #
ellipse-curve $-1 -43.689100527639717 -23.59902713751395 5.2391230574569656 0 -0.84804810408105047 0.52991925155115449 1 0 0 1 I I #
point $-1 -42.689100527639717 -24.762385463831379 5.9660699966709432 #
edge $-1 $582 1 $582 0 $336 $-1 forward 7 unknown #
vertex $-1 $337 $583 #
ellipse-curve $-1 -35.322408562731447 -23.59902713751395 5.2391230574569656 0 -0.84804810408105047 0.52991925155115449 1 0 0 1 I I #
point $-1 -34.322408562731447 -24.762385463831379 5.9660699966709432 #
edge $-1 $584 1 $584 0 $340 $-1 forward 7 unknown #
vertex $-1 $341 $585 #
ellipse-curve $-1 -26.955716597823177 -23.59902713751395 5.2391230574569656 0 -0.84804810408105047 0.52991925155115449 1 0 0 1 I I #
point $-1 -25.955716597823177 -24.762385463831379 5.9660699966709432 #
plane-surface $-1 0 0 8.6226117332353649 0 0 1 1 0 0 forward_v I I I I #
coedge $-1 $489 $488 $481 $586 forward $345 $-1 #
coedge $-1 $481 $347 $349 $485 reversed $223 $-1 #
coedge $-1 $347 $480 $479 $586 reversed $223 $-1 #
coedge $-1 $355 $350 $347 $483 forward $356 $-1 #
edge $-1 $486 -12.652829980543043 $587 -2.1488691535646183 $482 $588 forward 7 unknown #
coedge $-1 $349 $348 $489 $589 reversed $140 $-1 #
edge $-1 $590 -52.844753843679243 $486 -39.69236984579338 $480 $591 forward 7 unknown #
vertex $-1 $351 $592 #
straight-curve $-1 -12.677351228870798 15.91841609486119 8.6226117332353667 1 0 0 I I #
coedge $-1 $479 $352 $355 $493 reversed $345 $-1 #
coedge $-1 $352 $479 $484 $589 forward $345 $-1 #
vertex $-1 $353 $593 #
straight-curve $-1 -37.493749598055587 26.422376921839614 64.641620750299424 0 0 1 I I #
straight-curve $-1 -37.493749598055587 -15.781319714036343 32.510076513352715 0 0.79863550430605224 -0.6018150307709319 I I #
edge $-1 $587 13.215655317427608 $357 37.493749598055587 $488 $594 forward 7 unknown #
point $-1 -37.493749598055587 26.422376921839614 8.6226117332353649 #
point $-1 -37.493749598055587 15.91841609486119 8.6226117332353667 #
edge $-1 $595 1 $595 0 $360 $-1 forward 7 unknown #
vertex $-1 $361 $596 #
ellipse-curve $-1 -32.638130741929984 19.156950829365627 1.9930279341595043 0 0.6018150307709319 0.79863550430605224 1.5 0 0 1 I I #
point $-1 -31.138130741929984 21.170396508350404 4.6649605430359733 #
edge $-1 $597 1 $597 0 $364 $-1 forward 7 unknown #
vertex $-1 $365 $598 #
ellipse-curve $-1 -25.354702457741595 19.156950829365627 1.9930279341595043 0 0.6018150307709319 0.79863550430605224 1.5 0 0 1 I I #
point $-1 -23.854702457741595 21.170396508350404 4.6649605430359733 #
edge $-1 $599 1 $599 0 $368 $-1 forward 7 unknown #
vertex $-1 $369 $600 #
ellipse-curve $-1 -18.071274173553206 19.156950829365627 1.9930279341595043 0 0.6018150307709319 0.79863550430605224 1.5 0 0 1 I I #
point $-1 -16.571274173553206 21.170396508350404 4.6649605430359733 #
loop $-1 $-1 $380 $372 #
plane-surface $-1 0 26.422376921839614 0 0 -1 0 0 0 -1 forward_v I I I I #
coedge $-1 $511 $375 $377 $515 reversed $252 $-1 #
coedge $-1 $375 $510 $601 $602 reversed $252 $-1 #
coedge $-1 $383 $378 $375 $513 forward $373 $-1 #
edge $-1 $516 -12.652829980543043 $603 -2.1488691535646183 $512 $604 forward 7 unknown #
coedge $-1 $377 $376 $519 $605 reversed $159 $-1 #
edge $-1 $606 -52.844753843679243 $516 -39.69236984579338 $510 $607 forward 7 unknown #
vertex $-1 $379 $608 #
straight-curve $-1 14.786014001889342 15.91841609486119 8.6226117332353667 1 0 0 I I #
coedge $-1 $601 $380 $383 $523 reversed $508 $-1 #
coedge $-1 $380 $601 $514 $605 forward $508 $-1 #
vertex $-1 $381 $609 #
straight-curve $-1 17.432980863464696 26.422376921839614 64.641620750299424 0 0 1 I I #
straight-curve $-1 17.432980863464696 -15.781319714036343 32.510076513352715 0 0.79863550430605224 -0.6018150307709319 I I #
edge $-1 $603 -41.711075144092675 $384 -17.432980863464696 $518 $610 forward 7 unknown #
point $-1 17.432980863464696 26.422376921839614 8.6226117332353649 #
point $-1 17.432980863464696 15.91841609486119 8.6226117332353667 #
edge $-1 $611 1 $611 0 $387 $-1 forward 7 unknown #
vertex $-1 $388 $612 #
ellipse-curve $-1 22.288599719590295 19.156950829365627 1.9930279341595043 0 0.6018150307709319 0.79863550430605224 1.5 0 0 1 I I #
point $-1 23.788599719590295 21.170396508350404 4.6649605430359733 #
edge $-1 $613 1 $613 0 $391 $-1 forward 7 unknown #
vertex $-1 $392 $614 #
ellipse-curve $-1 29.572028003778684 19.156950829365627 1.9930279341595043 0 0.6018150307709319 0.79863550430605224 1.5 0 0 1 I I #
point $-1 31.072028003778684 21.170396508350404 4.6649605430359733 #
edge $-1 $615 1 $615 0 $395 $-1 forward 7 unknown #
vertex $-1 $396 $616 #
ellipse-curve $-1 36.855456287967073 19.156950829365627 1.9930279341595043 0 0.6018150307709319 0.79863550430605224 1.5 0 0 1 I I #
point $-1 38.355456287967073 21.170396508350404 4.6649605430359733 #
plane-surface $-1 60.586565752128664 0 0 -1 0 0 0 0 1 forward_v I I I I #
coedge $-1 $404 $402 $406 $543 reversed $281 $-1 #
edge $-1 $417 -8.6226117332353649 $545 8.6226117332353649 $416 $617 forward 7 unknown #
vertex $-1 $543 $618 #
straight-curve $-1 -60.586565752128664 -26.422376921839614 0 0 0 -1 I I #
edge $-1 $541 -26.422376921839614 $545 26.422376921839614 $539 $619 forward 7 unknown #
straight-curve $-1 0 -26.422376921839614 -8.6226117332353649 -1 0 0 I I #
vertex $-1 $409 $620 #
straight-curve $-1 0 26.422376921839614 -8.6226117332353649 1 0 0 I I #
point $-1 60.586565752128664 26.422376921839614 -8.6226117332353649 #
point $-1 60.586565752128664 -26.422376921839614 -8.6226117332353649 #
straight-curve $-1 -60.586565752128664 0 8.6226117332353649 0 -1 0 I I #
point $-1 -60.586565752128664 26.422376921839614 8.6226117332353649 #
point $-1 -60.586565752128664 -26.422376921839614 8.6226117332353649 #
straight-curve $-1 60.586565752128664 -26.422376921839614 0 0 0 -1 I I #
straight-curve $-1 60.586565752128664 26.422376921839614 0 0 0 -1 I I #
plane-surface $-1 0 -26.422376921839614 0 0 1 0 0 0 1 forward_v I I I I #
coedge $-1 $621 $429 $441 $566 reversed $300 $-1 #
coedge $-1 $429 $621 $444 $568 reversed $300 $-1 #
edge $-1 $622 -60.586565752128664 $438 -49.266895170911894 $434 $623 forward 7 unknown #
straight-curve $-1 -49.266895170911894 -12.461188460919807 8.6226117332353649 0 1 0 I I #
coedge $-1 $441 $432 $435 $562 forward $427 $-1 #
straight-curve $-1 -49.266895170911894 -12.461188460919807 -8.6226117332353649 0 -1 0 I I #
coedge $-1 $435 $434 $621 $624 forward $436 $-1 #
edge $-1 $437 49.266895170911894 $625 60.586565752128664 $435 $626 forward 7 unknown #
point $-1 -49.266895170911894 -26.422376921839614 -8.6226117332353649 #
point $-1 -49.266895170911894 -26.422376921839614 8.6226117332353649 #
straight-curve $-1 -60.586565752128664 -23.422376921839614 0 0 0 -1 I I #
edge $-1 $625 -26.422376921839614 $442 -23.422376921839614 $555 $627 forward 7 unknown #
point $-1 -60.586565752128664 -23.422376921839614 -8.6226117332353649 #
edge $-1 $445 23.422376921839614 $622 26.422376921839614 $556 $628 forward 7 unknown #
point $-1 -60.586565752128664 -23.422376921839614 8.6226117332353649 #
coedge $-1 $451 $450 $458 $575 forward $194 $-1 #
edge $-1 $578 -49.266895170911894 $454 -21.377921954550999 $453 $629 forward 7 unknown #
straight-curve $-1 -21.377921954550999 -64.591510679794425 8.6226117332353667 0 1 0 I I #
point $-1 -21.377921954550999 -26.422376921839614 8.6226117332353649 #
straight-curve $-1 -17.661204281365723 -23.102394005823143 8.6226117332353649 -1 0 0 I I #
edge $-1 $459 -41.489116673971282 $578 -38.16913375795481 $570 $630 forward 7 unknown #
point $-1 -49.266895170911894 -23.102394005823143 8.6226117332353649 #
point $-1 -21.377921954550999 -23.102394005823143 8.6226117332353649 #
vertex $-1 $571 $631 #
straight-curve $-1 -49.266895170911894 -26.422376921839614 0 0 0 -1 I I #
vertex $-1 $466 $632 #
point $-1 -42.689100527639717 -23.59902713751395 5.2391230574569656 #
vertex $-1 $470 $633 #
point $-1 -34.322408562731447 -23.59902713751395 5.2391230574569656 #
vertex $-1 $474 $634 #
point $-1 -25.955716597823177 -23.59902713751395 5.2391230574569656 #
edge $-1 $587 56.019009017064057 $590 63.934311397462849 $479 $635 forward 7 unknown #
vertex $-1 $493 $636 #
straight-curve $-1 -13.215655317427608 28.571246075404233 8.6226117332353667 0 1 0 I I #
edge $-1 $590 0.53830408855681 $490 24.816398369184789 $489 $637 forward 7 unknown #
vertex $-1 $589 $638 #
straight-curve $-1 -13.215655317427608 -15.781319714036343 32.510076513352715 0 -0.79863550430605224 0.6018150307709319 I I #
point $-1 -13.215655317427608 15.91841609486119 8.6226117332353667 #
point $-1 -37.493749598055587 26.422376921839614 0.70730935283657459 #
straight-curve $-1 0 26.422376921839614 8.6226117332353649 -1 0 0 I I #
vertex $-1 $496 $639 #
point $-1 -31.138130741929984 19.156950829365627 1.9930279341595043 #
vertex $-1 $500 $640 #
point $-1 -23.854702457741595 19.156950829365627 1.9930279341595043 #
vertex $-1 $504 $641 #
point $-1 -16.571274173553206 19.156950829365627 1.9930279341595043 #
coedge $-1 $519 $518 $511 $602 forward $508 $-1 #
edge $-1 $603 56.019009017064057 $606 63.934311397462849 $601 $642 forward 7 unknown #
vertex $-1 $523 $643 #
straight-curve $-1 41.711075144092675 28.571246075404233 8.6226117332353667 0 1 0 I I #
edge $-1 $606 -26.925061142203333 $520 -2.6469668615753541 $519 $644 forward 7 unknown #
vertex $-1 $605 $645 #
straight-curve $-1 41.711075144092675 -15.781319714036343 32.510076513352715 0 -0.79863550430605224 0.6018150307709319 I I #
point $-1 41.711075144092675 15.91841609486119 8.6226117332353667 #
point $-1 17.432980863464696 26.422376921839614 0.70730935283657459 #
straight-curve $-1 0 26.422376921839614 8.6226117332353649 -1 0 0 I I #
vertex $-1 $526 $646 #
point $-1 23.788599719590295 19.156950829365627 1.9930279341595043 #
vertex $-1 $530 $647 #
point $-1 31.072028003778684 19.156950829365627 1.9930279341595043 #
vertex $-1 $534 $648 #
point $-1 38.355456287967073 19.156950829365627 1.9930279341595043 #
straight-curve $-1 -60.586565752128664 26.422376921839614 0 0 0 -1 I I #
point $-1 -60.586565752128664 -26.422376921839614 -8.6226117332353649 #
straight-curve $-1 -60.586565752128664 0 -8.6226117332353649 0 1 0 I I #
point $-1 -60.586565752128664 26.422376921839614 -8.6226117332353649 #
coedge $-1 $556 $555 $561 $624 reversed $300 $-1 #
vertex $-1 $568 $649 #
straight-curve $-1 0 -26.422376921839614 8.6226117332353649 1 0 0 I I #
edge $-1 $622 -8.6226117332353649 $625 8.6226117332353649 $621 $650 forward 7 unknown #
vertex $-1 $566 $651 #
straight-curve $-1 0 -26.422376921839614 -8.6226117332353649 -1 0 0 I I #
straight-curve $-1 -60.586565752128664 0 -8.6226117332353649 0 1 0 I I #
straight-curve $-1 -60.586565752128664 0 8.6226117332353649 0 -1 0 I I #
straight-curve $-1 0 -26.422376921839614 8.6226117332353649 1 0 0 I I #
straight-curve $-1 -49.266895170911894 -64.591510679794425 8.6226117332353667 0 -1 0 I I #
point $-1 -49.266895170911894 -26.422376921839614 8.6226117332353649 #
point $-1 -43.689100527639717 -22.750979033432898 4.709203805905811 #
point $-1 -35.322408562731447 -22.750979033432898 4.709203805905811 #
point $-1 -26.955716597823177 -22.750979033432898 4.709203805905811 #
straight-curve $-1 -13.215655317427608 26.422376921839614 64.641620750299424 0 0 -1 I I #
point $-1 -13.215655317427608 26.422376921839614 8.6226117332353649 #
straight-curve $-1 -12.677351228870798 26.422376921839614 0.70730935283657459 -1 0 0 I I #
point $-1 -13.215655317427608 26.422376921839614 0.70730935283657459 #
point $-1 -32.638130741929984 18.25422828320923 0.79507467770042584 #
point $-1 -25.354702457741595 18.25422828320923 0.79507467770042584 #
point $-1 -18.071274173553206 18.25422828320923 0.79507467770042584 #
straight-curve $-1 41.711075144092675 26.422376921839614 64.641620750299424 0 0 -1 I I #
point $-1 41.711075144092675 26.422376921839614 8.6226117332353649 #
straight-curve $-1 14.786014001889342 26.422376921839614 0.70730935283657459 -1 0 0 I I #
point $-1 41.711075144092675 26.422376921839614 0.70730935283657459 #
point $-1 22.288599719590295 18.25422828320923 0.79507467770042584 #
point $-1 29.572028003778684 18.25422828320923 0.79507467770042584 #
point $-1 36.855456287967073 18.25422828320923 0.79507467770042584 #
point $-1 -60.586565752128664 -26.422376921839614 8.6226117332353649 #
straight-curve $-1 -60.586565752128664 -26.422376921839614 0 0 0 -1 I I #
point $-1 -60.586565752128664 -26.422376921839614 -8.6226117332353649 #
End-of-ACIS-data 