500 0 14 0           
7 Unknown 11 ACIS 5.0 NT 24 Fri Mar 26 01:46:14 1999 
-1 9.9999999999999995e-007 1e-010 
body $-1 $14 $-1 $15 #
body $-1 $16 $-1 $17 #
body $-1 $18 $-1 $19 #
body $-1 $20 $-1 $21 #
body $-1 $22 $-1 $23 #
body $-1 $24 $-1 $25 #
body $-1 $26 $-1 $27 #
body $-1 $28 $-1 $29 #
body $-1 $30 $-1 $31 #
body $-1 $32 $-1 $33 #
body $-1 $34 $-1 $35 #
body $-1 $36 $-1 $37 #
body $-1 $38 $-1 $39 #
body $-1 $40 $-1 $41 #
lump $-1 $-1 $42 $0 #
transform $-1 1 0 0 0 1 0 0 0 1 63.748283333841975 37.008322999298343 9.2184799438542768 1 rotate no_reflect no_shear #
lump $-1 $-1 $43 $1 #
transform $-1 1 0 0 0 1 0 0 0 1 63.748283333841975 37.008322999298343 9.2184799438542768 1 rotate no_reflect no_shear #
lump $-1 $-1 $44 $2 #
transform $-1 1 0 0 0 1 0 0 0 1 63.748283333841975 37.008322999298343 9.2184799438542768 1 rotate no_reflect no_shear #
lump $-1 $-1 $45 $3 #
transform $-1 1 0 0 0 1 0 0 0 1 63.748283333841975 37.008322999298343 9.2184799438542768 1 rotate no_reflect no_shear #
lump $-1 $-1 $46 $4 #
transform $-1 1 0 0 0 1 0 0 0 1 63.748283333841975 37.008322999298343 9.2184799438542768 1 rotate no_reflect no_shear #
lump $-1 $-1 $47 $5 #
transform $-1 1 0 0 0 1 0 0 0 1 63.748283333841975 37.008322999298343 9.2184799438542768 1 rotate no_reflect no_shear #
lump $-1 $-1 $48 $6 #
transform $-1 1 0 0 0 1 0 0 0 1 63.748283333841975 37.008322999298343 9.2184799438542768 1 rotate no_reflect no_shear #
lump $-1 $-1 $49 $7 #
transform $-1 1 0 0 0 1 0 0 0 1 63.748283333841975 37.008322999298343 9.2184799438542768 1 rotate no_reflect no_shear #
lump $-1 $-1 $50 $8 #
transform $-1 1 0 0 0 1 0 0 0 1 63.748283333841975 37.008322999298343 9.2184799438542768 1 rotate no_reflect no_shear #
lump $-1 $-1 $51 $9 #
transform $-1 1 0 0 0 1 0 0 0 1 63.748283333841975 37.008322999298343 9.2184799438542768 1 rotate no_reflect no_shear #
lump $-1 $-1 $52 $10 #
transform $-1 1 0 0 0 1 0 0 0 1 63.748283333841975 37.008322999298343 9.2184799438542768 1 rotate no_reflect no_shear #
lump $-1 $-1 $53 $11 #
transform $-1 1 0 0 0 1 0 0 0 1 63.748283333841975 37.008322999298343 9.2184799438542768 1 rotate no_reflect no_shear #
lump $-1 $-1 $54 $12 #
transform $-1 1 0 0 0 1 0 0 0 1 63.748283333841975 37.008322999298343 9.2184799438542768 1 rotate no_reflect no_shear #
lump $-1 $-1 $55 $13 #
transform $-1 1 0 0 0 1 0 0 0 1 63.748283333841975 37.008322999298343 9.2184799438542768 1 rotate no_reflect no_shear #
shell $-1 $-1 $-1 $56 $-1 $14 #
shell $-1 $-1 $-1 $57 $-1 $16 #
shell $-1 $-1 $-1 $58 $-1 $18 #
shell $-1 $-1 $-1 $59 $-1 $20 #
shell $-1 $-1 $-1 $60 $-1 $22 #
shell $-1 $-1 $-1 $61 $-1 $24 #
shell $-1 $-1 $-1 $62 $-1 $26 #
shell $-1 $-1 $-1 $63 $-1 $28 #
shell $-1 $-1 $-1 $64 $-1 $30 #
shell $-1 $-1 $-1 $65 $-1 $32 #
shell $-1 $-1 $-1 $66 $-1 $34 #
shell $-1 $-1 $-1 $67 $-1 $36 #
shell $-1 $-1 $-1 $68 $-1 $38 #
shell $-1 $-1 $-1 $69 $-1 $40 #
face $-1 $70 $71 $42 $-1 $72 forward single #
face $-1 $73 $74 $43 $-1 $75 reversed single #
face $-1 $76 $77 $44 $-1 $78 reversed single #
face $-1 $79 $80 $45 $-1 $81 forward single #
face $-1 $82 $83 $46 $-1 $84 reversed single #
face $-1 $85 $86 $47 $-1 $87 forward single #
face $-1 $88 $89 $48 $-1 $90 reversed single #
face $-1 $91 $92 $49 $-1 $93 forward single #
face $-1 $94 $95 $50 $-1 $96 reversed single #
face $-1 $97 $98 $51 $-1 $99 forward single #
face $-1 $100 $101 $52 $-1 $102 reversed single #
face $-1 $103 $104 $53 $-1 $105 forward single #
face $-1 $106 $107 $54 $-1 $108 reversed single #
face $-1 $109 $110 $55 $-1 $111 forward single #
face $-1 $112 $113 $42 $-1 $114 reversed single #
loop $-1 $-1 $115 $56 #
plane-surface $-1 0 0 9.2184799438542768 0 0 1 1 0 0 forward_v I I I I #
face $-1 $116 $117 $43 $-1 $118 reversed single #
loop $-1 $-1 $119 $57 #
plane-surface $-1 -59.759194798449293 -32.192046326559968 0 1 0 0 0 0 -1 forward_v I I I I #
face $-1 $120 $121 $44 $-1 $122 reversed single #
loop $-1 $-1 $123 $58 #
plane-surface $-1 41.774343838784567 -11.27974649054161 179.06302396897178 0 -1 0 -0.61566148304635926 0 -0.78801074757464917 forward_v I I I I #
face $-1 $124 $125 $45 $-1 $126 forward single #
loop $-1 $127 $128 $59 #
cone-surface $-1 57.034728441258785 -14.750066179231684 3.5355758249558029 -0.61566148304635926 0 -0.78801074757464917 0.78801074757464917 0 -0.61566148304635926 1 I I 0 1 1 forward I I I I #
face $-1 $129 $130 $46 $-1 $131 reversed single #
loop $-1 $-1 $132 $60 #
plane-surface $-1 41.774343838784567 1.7644820774384318 179.06302396897178 0 -1 0 -0.61566148304635926 0 -0.78801074757464917 forward_v I I I I #
face $-1 $133 $134 $47 $-1 $135 forward single #
loop $-1 $136 $137 $61 #
cone-surface $-1 57.034728441258785 -1.7058376112516385 3.5355758249558029 -0.61566148304635926 0 -0.78801074757464917 0.78801074757464917 0 -0.61566148304635926 1 I I 0 1 1 forward I I I I #
face $-1 $138 $139 $48 $-1 $140 reversed single #
loop $-1 $-1 $141 $62 #
plane-surface $-1 41.774343838784567 14.808710645418474 179.06302396897178 0 -1 0 -0.61566148304635926 0 -0.78801074757464917 forward_v I I I I #
face $-1 $142 $143 $49 $-1 $144 forward single #
loop $-1 $145 $146 $63 #
cone-surface $-1 57.034728441258785 11.338390956728404 3.5355758249558029 -0.61566148304635926 0 -0.78801074757464917 0.78801074757464917 0 -0.61566148304635926 1 I I 0 1 1 forward I I I I #
face $-1 $147 $148 $50 $-1 $149 reversed single #
loop $-1 $-1 $150 $64 #
plane-surface $-1 41.774343838784567 27.852939213398514 179.06302396897178 0 -1 0 -0.61566148304635926 0 -0.78801074757464917 forward_v I I I I #
face $-1 $151 $152 $51 $-1 $153 forward single #
loop $-1 $154 $155 $65 #
cone-surface $-1 57.034728441258785 24.382619524708446 3.5355758249558029 -0.61566148304635926 0 -0.78801074757464917 0.78801074757464917 0 -0.61566148304635926 1 I I 0 1 1 forward I I I I #
face $-1 $156 $157 $52 $-1 $158 reversed single #
loop $-1 $-1 $159 $66 #
plane-surface $-1 -135.04345955789648 -21.30500010193747 108.07547332772074 0 1 0 -0.55919291073839883 0 0.82903756765294845 forward_v I I I I #
face $-1 $160 $161 $53 $-1 $162 forward single #
loop $-1 $163 $164 $67 #
cone-surface $-1 -56.463979960735294 -14.10877550614078 2.5176392388445246 0.55919291073839883 0 -0.82903756765294845 2.4871127029588456 0 1.6775787322151965 1 I I 0 1 3 forward I I I I #
face $-1 $165 $166 $54 $-1 $167 reversed single #
loop $-1 $-1 $168 $68 #
plane-surface $-1 -135.04345955789648 10.887046224622498 108.07547332772074 0 1 0 -0.55919291073839883 0 0.82903756765294845 forward_v I I I I #
face $-1 $169 $170 $55 $-1 $171 forward single #
loop $-1 $172 $173 $69 #
cone-surface $-1 -56.463979960735294 18.083270820419187 2.5176392388445246 0.55919291073839883 0 -0.82903756765294845 2.4871127029588456 0 1.6775787322151965 1 I I 0 1 3 forward I I I I #
face $-1 $174 $175 $42 $-1 $176 reversed single #
loop $-1 $-1 $177 $70 #
plane-surface $-1 0 0 -9.2184799438542768 0 0 1 1 0 0 forward_v I I I I #
coedge $-1 $178 $179 $180 $181 forward $71 $-1 #
face $-1 $182 $183 $43 $-1 $184 reversed single #
loop $-1 $-1 $185 $73 #
plane-surface $-1 -58.250427255161959 -27.375769653821592 0 0 -1 0 0 0 -1 forward_v I I I I #
coedge $-1 $186 $187 $188 $189 forward $74 $-1 #
face $-1 $190 $191 $44 $-1 $192 reversed single #
loop $-1 $-1 $193 $76 #
plane-surface $-1 -36.720381479160743 -14.750066179231688 78.594359155969045 0.61566148304635926 0 0.78801074757464917 0.78801074757464917 0 -0.61566148304635926 forward_v I I I I #
coedge $-1 $194 $195 $196 $197 reversed $77 $-1 #
face $-1 $-1 $198 $45 $-1 $199 forward single #
loop $-1 $200 $201 $79 #
cone-surface $-1 55.849138073503873 -14.750066179231684 2.0180893851852915 -0.61566148304635926 0 -0.78801074757464917 0.39400537378732459 0 -0.30783074152317963 1 I I -0.70710678118654746 0.70710678118654746 0.5 forward I I I I #
loop $-1 $-1 $202 $59 #
coedge $-1 $128 $128 $203 $204 reversed $80 $-1 #
face $-1 $205 $206 $46 $-1 $207 reversed single #
loop $-1 $-1 $208 $82 #
plane-surface $-1 -36.720381479160743 -1.7058376112516456 78.594359155969045 0.61566148304635926 0 0.78801074757464917 0.78801074757464917 0 -0.61566148304635926 forward_v I I I I #
coedge $-1 $209 $210 $211 $212 reversed $83 $-1 #
face $-1 $-1 $213 $47 $-1 $214 forward single #
loop $-1 $215 $216 $85 #
cone-surface $-1 55.849138073503873 -1.7058376112516385 2.0180893851852915 -0.61566148304635926 0 -0.78801074757464917 0.39400537378732459 0 -0.30783074152317963 1 I I -0.70710678118654746 0.70710678118654746 0.5 forward I I I I #
loop $-1 $-1 $217 $61 #
coedge $-1 $137 $137 $218 $219 reversed $86 $-1 #
face $-1 $220 $221 $48 $-1 $222 reversed single #
loop $-1 $-1 $223 $88 #
plane-surface $-1 -36.720381479160743 11.338390956728396 78.594359155969045 0.61566148304635926 0 0.78801074757464917 0.78801074757464917 0 -0.61566148304635926 forward_v I I I I #
coedge $-1 $224 $225 $226 $227 reversed $89 $-1 #
face $-1 $-1 $228 $49 $-1 $229 forward single #
loop $-1 $230 $231 $91 #
cone-surface $-1 55.849138073503873 11.338390956728404 2.0180893851852915 -0.61566148304635926 0 -0.78801074757464917 0.39400537378732459 0 -0.30783074152317963 1 I I -0.70710678118654746 0.70710678118654746 0.5 forward I I I I #
loop $-1 $-1 $232 $63 #
coedge $-1 $146 $146 $233 $234 reversed $92 $-1 #
face $-1 $235 $236 $50 $-1 $237 reversed single #
loop $-1 $-1 $238 $94 #
plane-surface $-1 -36.720381479160743 24.382619524708439 78.594359155969045 0.61566148304635926 0 0.78801074757464917 0.78801074757464917 0 -0.61566148304635926 forward_v I I I I #
coedge $-1 $239 $240 $241 $242 reversed $95 $-1 #
face $-1 $-1 $243 $51 $-1 $244 forward single #
loop $-1 $245 $246 $97 #
cone-surface $-1 55.849138073503873 24.382619524708446 2.0180893851852915 -0.61566148304635926 0 -0.78801074757464917 0.39400537378732459 0 -0.30783074152317963 1 I I -0.70710678118654746 0.70710678118654746 0.5 forward I I I I #
loop $-1 $-1 $247 $65 #
coedge $-1 $155 $155 $248 $249 reversed $98 $-1 #
face $-1 $250 $251 $52 $-1 $252 reversed single #
loop $-1 $-1 $253 $100 #
plane-surface $-1 -63.748283333841982 -14.10877550614078 2.3760298134420594 -0.55919291073839883 0 0.82903756765294845 0.82903756765294845 0 0.55919291073839883 forward_v I I I I #
coedge $-1 $254 $255 $256 $257 reversed $101 $-1 #
face $-1 $-1 $258 $53 $-1 $259 forward single #
loop $-1 $260 $261 $103 #
cone-surface $-1 -53.413061871779888 -14.10877550614078 -2.005532752438536 0.55919291073839883 0 -0.82903756765294845 1.2435563514794228 0 0.83878936610759824 1 I I -0.70710678118654757 0.70710678118654757 1.5 forward I I I I #
loop $-1 $-1 $262 $67 #
coedge $-1 $164 $164 $263 $264 reversed $104 $-1 #
face $-1 $265 $266 $54 $-1 $267 reversed single #
loop $-1 $-1 $268 $106 #
plane-surface $-1 -63.748283333841982 18.083270820419187 2.3760298134420594 -0.55919291073839883 0 0.82903756765294845 0.82903756765294845 0 0.55919291073839883 forward_v I I I I #
coedge $-1 $269 $270 $271 $272 reversed $107 $-1 #
face $-1 $-1 $273 $55 $-1 $274 forward single #
loop $-1 $275 $276 $109 #
cone-surface $-1 -53.413061871779888 18.083270820419187 -2.005532752438536 0.55919291073839883 0 -0.82903756765294845 1.2435563514794228 0 0.83878936610759824 1 I I -0.70710678118654757 0.70710678118654757 1.5 forward I I I I #
loop $-1 $-1 $277 $69 #
coedge $-1 $173 $173 $278 $279 reversed $110 $-1 #
face $-1 $280 $281 $42 $-1 $282 reversed single #
loop $-1 $-1 $283 $112 #
plane-surface $-1 0 -37.008322999298343 0 0 1 0 0 0 1 forward_v I I I I #
coedge $-1 $284 $285 $286 $287 forward $113 $-1 #
coedge $-1 $288 $115 $289 $290 forward $71 $-1 #
coedge $-1 $115 $288 $291 $292 forward $71 $-1 #
coedge $-1 $293 $294 $115 $181 reversed $295 $-1 #
edge $-1 $296 -37.008322999298343 $297 37.008322999298343 $180 $298 forward 7 unknown #
face $-1 $299 $300 $43 $-1 $301 forward single #
loop $-1 $-1 $302 $116 #
plane-surface $-1 -56.741659711874625 -32.192046326559968 0 -1 0 0 0 0 1 forward_v I I I I #
coedge $-1 $303 $304 $305 $306 forward $117 $-1 #
coedge $-1 $307 $119 $308 $309 reversed $74 $-1 #
coedge $-1 $119 $307 $310 $311 reversed $74 $-1 #
coedge $-1 $304 $303 $119 $189 reversed $117 $-1 #
edge $-1 $312 -9.2184799438542768 $313 9.2184799438542768 $188 $314 forward 7 unknown #
face $-1 $315 $316 $44 $-1 $317 reversed single #
loop $-1 $-1 $318 $120 #
plane-surface $-1 41.774343838784567 -18.220385867921763 179.06302396897178 0 1 0 0.61566148304635926 0 0.78801074757464917 forward_v I I I I #
coedge $-1 $319 $320 $321 $322 reversed $121 $-1 #
coedge $-1 $195 $123 $323 $324 reversed $77 $-1 #
coedge $-1 $123 $194 $319 $325 reversed $77 $-1 #
coedge $-1 $321 $326 $123 $197 forward $327 $-1 #
edge $-1 $328 -42.861111414449695 $329 -31.189520881746798 $196 $330 forward 7 unknown #
loop $-1 $-1 $203 $124 #
plane-surface $-1 -36.720381479160743 -14.750066179231688 78.594359155969045 0.61566148304635926 0 0.78801074757464917 0.78801074757464917 0 -0.61566148304635926 forward_v I I I I #
loop $-1 $-1 $331 $79 #
coedge $-1 $201 $201 $202 $332 reversed $125 $-1 #
coedge $-1 $202 $202 $201 $332 forward $127 $-1 #
coedge $-1 $203 $203 $128 $204 forward $198 $-1 #
edge $-1 $333 0 $333 6.2831853071796004 $203 $334 forward 7 unknown #
face $-1 $335 $336 $46 $-1 $337 reversed single #
loop $-1 $-1 $338 $129 #
plane-surface $-1 41.774343838784567 -5.1761572999417229 179.06302396897178 0 1 0 0.61566148304635926 0 0.78801074757464917 forward_v I I I I #
coedge $-1 $339 $340 $341 $342 reversed $130 $-1 #
coedge $-1 $210 $132 $343 $344 reversed $83 $-1 #
coedge $-1 $132 $209 $339 $345 reversed $83 $-1 #
coedge $-1 $341 $346 $132 $212 forward $347 $-1 #
edge $-1 $348 -42.861111414449695 $349 -31.189520881746798 $211 $350 forward 7 unknown #
loop $-1 $-1 $218 $133 #
plane-surface $-1 -36.720381479160743 -1.7058376112516456 78.594359155969045 0.61566148304635926 0 0.78801074757464917 0.78801074757464917 0 -0.61566148304635926 forward_v I I I I #
loop $-1 $-1 $351 $85 #
coedge $-1 $216 $216 $217 $352 reversed $134 $-1 #
coedge $-1 $217 $217 $216 $352 forward $136 $-1 #
coedge $-1 $218 $218 $137 $219 forward $213 $-1 #
edge $-1 $353 0 $353 6.2831853071796004 $218 $354 forward 7 unknown #
face $-1 $355 $356 $48 $-1 $357 reversed single #
loop $-1 $-1 $358 $138 #
plane-surface $-1 41.774343838784567 7.8680712680383191 179.06302396897178 0 1 0 0.61566148304635926 0 0.78801074757464917 forward_v I I I I #
coedge $-1 $359 $360 $361 $362 reversed $139 $-1 #
coedge $-1 $225 $141 $363 $364 reversed $89 $-1 #
coedge $-1 $141 $224 $359 $365 reversed $89 $-1 #
coedge $-1 $361 $366 $141 $227 forward $367 $-1 #
edge $-1 $368 -42.861111414449695 $369 -31.189520881746798 $226 $370 forward 7 unknown #
loop $-1 $-1 $233 $142 #
plane-surface $-1 -36.720381479160743 11.338390956728396 78.594359155969045 0.61566148304635926 0 0.78801074757464917 0.78801074757464917 0 -0.61566148304635926 forward_v I I I I #
loop $-1 $-1 $371 $91 #
coedge $-1 $231 $231 $232 $372 reversed $143 $-1 #
coedge $-1 $232 $232 $231 $372 forward $145 $-1 #
coedge $-1 $233 $233 $146 $234 forward $228 $-1 #
edge $-1 $373 0 $373 6.2831853071796004 $233 $374 forward 7 unknown #
face $-1 $375 $376 $50 $-1 $377 reversed single #
loop $-1 $-1 $378 $147 #
plane-surface $-1 41.774343838784567 20.912299836018363 179.06302396897178 0 1 0 0.61566148304635926 0 0.78801074757464917 forward_v I I I I #
coedge $-1 $379 $380 $381 $382 reversed $148 $-1 #
coedge $-1 $240 $150 $383 $384 reversed $95 $-1 #
coedge $-1 $150 $239 $379 $385 reversed $95 $-1 #
coedge $-1 $381 $386 $150 $242 forward $387 $-1 #
edge $-1 $388 -42.861111414449695 $389 -31.189520881746798 $241 $390 forward 7 unknown #
loop $-1 $-1 $248 $151 #
plane-surface $-1 -36.720381479160743 24.382619524708439 78.594359155969045 0.61566148304635926 0 0.78801074757464917 0.78801074757464917 0 -0.61566148304635926 forward_v I I I I #
loop $-1 $-1 $391 $97 #
coedge $-1 $246 $246 $247 $392 reversed $152 $-1 #
coedge $-1 $247 $247 $246 $392 forward $154 $-1 #
coedge $-1 $248 $248 $155 $249 forward $243 $-1 #
edge $-1 $393 0 $393 6.2831853071796004 $248 $394 forward 7 unknown #
face $-1 $395 $396 $52 $-1 $397 reversed single #
loop $-1 $-1 $398 $156 #
plane-surface $-1 -135.04345955789648 -6.9125509103440912 108.07547332772074 0 -1 0 0.55919291073839883 0 -0.82903756765294845 forward_v I I I I #
coedge $-1 $399 $400 $401 $402 reversed $157 $-1 #
coedge $-1 $255 $159 $403 $404 reversed $101 $-1 #
coedge $-1 $159 $254 $399 $405 reversed $101 $-1 #
coedge $-1 $401 $406 $159 $257 forward $407 $-1 #
edge $-1 $408 3.7734464451062664 $409 13.917795745623977 $256 $410 forward 7 unknown #
loop $-1 $-1 $263 $160 #
plane-surface $-1 -63.748283333841982 -14.10877550614078 2.3760298134420594 -0.55919291073839883 0 0.82903756765294845 0.82903756765294845 0 0.55919291073839883 forward_v I I I I #
loop $-1 $-1 $411 $103 #
coedge $-1 $261 $261 $262 $412 reversed $161 $-1 #
coedge $-1 $262 $262 $261 $412 forward $163 $-1 #
coedge $-1 $263 $263 $164 $264 forward $258 $-1 #
edge $-1 $413 0 $413 6.2831853071796004 $263 $414 forward 7 unknown #
face $-1 $415 $416 $54 $-1 $417 forward single #
loop $-1 $-1 $418 $165 #
plane-surface $-1 -135.04345955789648 25.279495416215877 108.07547332772074 0 -1 0 0.55919291073839883 0 -0.82903756765294845 forward_v I I I I #
coedge $-1 $419 $420 $421 $422 reversed $166 $-1 #
coedge $-1 $270 $168 $423 $424 reversed $107 $-1 #
coedge $-1 $168 $269 $419 $425 reversed $107 $-1 #
coedge $-1 $421 $426 $168 $272 forward $416 $-1 #
edge $-1 $427 3.7734464451062664 $428 13.917795745623977 $271 $429 forward 7 unknown #
loop $-1 $-1 $278 $169 #
plane-surface $-1 -63.748283333841982 18.083270820419187 2.3760298134420594 -0.55919291073839883 0 0.82903756765294845 0.82903756765294845 0 0.55919291073839883 forward_v I I I I #
loop $-1 $-1 $430 $109 #
coedge $-1 $276 $276 $277 $431 reversed $170 $-1 #
coedge $-1 $277 $277 $276 $431 forward $172 $-1 #
coedge $-1 $278 $278 $173 $279 forward $273 $-1 #
edge $-1 $432 0 $432 6.2831853071796004 $278 $433 forward 7 unknown #
face $-1 $434 $435 $42 $-1 $436 reversed single #
loop $-1 $-1 $437 $174 #
plane-surface $-1 -63.748283333841975 0 0 1 0 0 0 0 -1 forward_v I I I I #
coedge $-1 $438 $291 $439 $440 forward $175 $-1 #
coedge $-1 $441 $177 $438 $442 forward $113 $-1 #
coedge $-1 $177 $441 $443 $444 forward $113 $-1 #
coedge $-1 $294 $293 $177 $287 reversed $295 $-1 #
edge $-1 $445 -37.008322999298343 $446 37.008322999298343 $286 $447 forward 7 unknown #
coedge $-1 $179 $178 $448 $449 forward $71 $-1 #
coedge $-1 $450 $451 $178 $290 reversed $435 $-1 #
edge $-1 $297 -63.748283333841975 $452 63.748283333841975 $289 $453 forward 7 unknown #
coedge $-1 $283 $454 $179 $292 reversed $175 $-1 #
edge $-1 $455 -63.748283333841975 $296 63.748283333841975 $291 $456 forward 7 unknown #
coedge $-1 $286 $180 $454 $457 forward $295 $-1 #
coedge $-1 $180 $286 $450 $458 reversed $295 $-1 #
loop $-1 $-1 $293 $434 #
vertex $-1 $181 $459 #
vertex $-1 $181 $460 #
straight-curve $-1 63.748283333841975 0 9.2184799438542768 0 1 0 I I #
face $-1 $461 $462 $43 $-1 $463 reversed single #
loop $-1 $-1 $464 $182 #
plane-surface $-1 0 0 9.2184799438542768 0 0 1 1 0 0 forward_v I I I I #
coedge $-1 $465 $466 $467 $468 reversed $183 $-1 #
coedge $-1 $188 $185 $469 $470 reversed $117 $-1 #
coedge $-1 $185 $188 $471 $472 reversed $117 $-1 #
coedge $-1 $466 $465 $185 $306 reversed $183 $-1 #
edge $-1 $473 -9.2184799438542768 $474 9.2184799438542768 $305 $475 forward 7 unknown #
coedge $-1 $187 $186 $476 $477 reversed $74 $-1 #
coedge $-1 $469 $478 $186 $309 forward $462 $-1 #
edge $-1 $479 -20.912299836018359 $313 -11.279746490541608 $308 $480 forward 7 unknown #
coedge $-1 $481 $471 $187 $311 forward $300 $-1 #
edge $-1 $312 11.279746490541608 $482 20.912299836018359 $310 $483 forward 7 unknown #
vertex $-1 $311 $484 #
vertex $-1 $309 $485 #
straight-curve $-1 -59.759194798449293 -27.375769653821592 0 0 0 -1 I I #
face $-1 $-1 $327 $44 $-1 $486 forward single #
loop $-1 $-1 $487 $190 #
plane-surface $-1 63.748283333841975 0 0 -1 0 0 0 0 1 forward_v I I I I #
coedge $-1 $488 $489 $490 $491 reversed $191 $-1 #
coedge $-1 $492 $193 $195 $325 forward $121 $-1 #
coedge $-1 $193 $492 $488 $493 forward $121 $-1 #
coedge $-1 $490 $196 $193 $322 forward $327 $-1 #
edge $-1 $329 3.9047134009257665 $494 10.845352778305919 $321 $495 forward 7 unknown #
coedge $-1 $496 $497 $194 $324 forward $316 $-1 #
edge $-1 $498 -89.431878146462154 $328 -80.313032040631612 $323 $499 forward 7 unknown #
edge $-1 $329 112.68510556943639 $498 127.49656666768394 $195 $500 forward 7 unknown #
coedge $-1 $196 $490 $496 $501 forward $327 $-1 #
loop $-1 $-1 $490 $315 #
vertex $-1 $324 $502 #
vertex $-1 $197 $503 #
straight-curve $-1 20.887171919392284 -11.27974649054161 9.2184799438542768 -1 0 0 I I #
coedge $-1 $331 $331 $-1 $504 reversed $200 $-1 #
edge $-1 $505 0 $505 6.2831853071796004 $201 $506 forward 7 unknown #
vertex $-1 $204 $507 #
ellipse-curve $-1 57.912488067490536 -14.750066179231684 4.6590568909390147 0.61566148304635926 0 0.78801074757464917 0.78801074757464917 0 -0.61566148304635926 1 I I #
face $-1 $-1 $347 $46 $-1 $508 forward single #
loop $-1 $-1 $509 $205 #
plane-surface $-1 63.748283333841975 0 0 -1 0 0 0 0 1 forward_v I I I I #
coedge $-1 $510 $511 $512 $513 reversed $206 $-1 #
coedge $-1 $514 $208 $210 $345 forward $130 $-1 #
coedge $-1 $208 $514 $510 $515 forward $130 $-1 #
coedge $-1 $512 $211 $208 $342 forward $347 $-1 #
edge $-1 $349 -2.6174008830642546 $516 4.3232384943159001 $341 $517 forward 7 unknown #
coedge $-1 $518 $519 $209 $344 forward $336 $-1 #
edge $-1 $520 -89.431878146462154 $348 -80.313032040631612 $343 $521 forward 7 unknown #
edge $-1 $349 112.68510556943639 $520 127.49656666768394 $210 $522 forward 7 unknown #
coedge $-1 $211 $512 $518 $523 forward $347 $-1 #
loop $-1 $-1 $512 $335 #
vertex $-1 $344 $524 #
vertex $-1 $212 $525 #
straight-curve $-1 20.887171919392284 1.7644820774384318 9.2184799438542768 -1 0 0 I I #
coedge $-1 $351 $351 $-1 $526 reversed $215 $-1 #
edge $-1 $527 0 $527 6.2831853071796004 $216 $528 forward 7 unknown #
vertex $-1 $219 $529 #
ellipse-curve $-1 57.912488067490536 -1.7058376112516385 4.6590568909390147 0.61566148304635926 0 0.78801074757464917 0.78801074757464917 0 -0.61566148304635926 1 I I #
face $-1 $-1 $367 $48 $-1 $530 forward single #
loop $-1 $-1 $531 $220 #
plane-surface $-1 63.748283333841975 0 0 -1 0 0 0 0 1 forward_v I I I I #
coedge $-1 $532 $533 $534 $535 reversed $221 $-1 #
coedge $-1 $536 $223 $225 $365 forward $139 $-1 #
coedge $-1 $223 $536 $532 $537 forward $139 $-1 #
coedge $-1 $534 $226 $223 $362 forward $367 $-1 #
edge $-1 $369 -9.1395151670542756 $538 -2.1988757896741209 $361 $539 forward 7 unknown #
coedge $-1 $540 $541 $224 $364 forward $356 $-1 #
edge $-1 $542 -89.431878146462154 $368 -80.313032040631612 $363 $543 forward 7 unknown #
edge $-1 $369 112.68510556943639 $542 127.49656666768394 $225 $544 forward 7 unknown #
coedge $-1 $226 $534 $540 $545 forward $367 $-1 #
loop $-1 $-1 $534 $355 #
vertex $-1 $364 $546 #
vertex $-1 $227 $547 #
straight-curve $-1 20.887171919392284 14.808710645418474 9.2184799438542768 -1 0 0 I I #
coedge $-1 $371 $371 $-1 $548 reversed $230 $-1 #
edge $-1 $549 0 $549 6.2831853071796004 $231 $550 forward 7 unknown #
vertex $-1 $234 $551 #
ellipse-curve $-1 57.912488067490536 11.338390956728404 4.6590568909390147 0.61566148304635926 0 0.78801074757464917 0.78801074757464917 0 -0.61566148304635926 1 I I #
face $-1 $-1 $387 $50 $-1 $552 forward single #
loop $-1 $-1 $553 $235 #
plane-surface $-1 63.748283333841975 0 0 -1 0 0 0 0 1 forward_v I I I I #
coedge $-1 $554 $555 $556 $557 reversed $236 $-1 #
coedge $-1 $558 $238 $240 $385 forward $148 $-1 #
coedge $-1 $238 $558 $554 $559 forward $148 $-1 #
coedge $-1 $556 $241 $238 $382 forward $387 $-1 #
edge $-1 $389 -15.661629451044295 $560 -8.7209900736641437 $381 $561 forward 7 unknown #
coedge $-1 $562 $563 $239 $384 forward $376 $-1 #
edge $-1 $564 -89.431878146462154 $388 -80.313032040631612 $383 $565 forward 7 unknown #
edge $-1 $389 112.68510556943639 $564 127.49656666768394 $240 $566 forward 7 unknown #
coedge $-1 $241 $556 $562 $567 forward $387 $-1 #
loop $-1 $-1 $556 $375 #
vertex $-1 $384 $568 #
vertex $-1 $242 $569 #
straight-curve $-1 20.887171919392284 27.852939213398514 9.2184799438542768 -1 0 0 I I #
coedge $-1 $391 $391 $-1 $570 reversed $245 $-1 #
edge $-1 $571 0 $571 6.2831853071796004 $246 $572 forward 7 unknown #
vertex $-1 $249 $573 #
ellipse-curve $-1 57.912488067490536 24.382619524708446 4.6590568909390147 0.61566148304635926 0 0.78801074757464917 0.78801074757464917 0 -0.61566148304635926 1 I I #
face $-1 $-1 $407 $52 $-1 $574 forward single #
loop $-1 $-1 $575 $250 #
plane-surface $-1 -63.748283333841975 0 0 1 0 0 0 0 -1 forward_v I I I I #
coedge $-1 $576 $577 $578 $579 reversed $251 $-1 #
coedge $-1 $580 $253 $255 $405 forward $157 $-1 #
coedge $-1 $253 $580 $576 $581 forward $157 $-1 #
coedge $-1 $578 $256 $253 $402 forward $407 $-1 #
edge $-1 $409 -14.25061234886708 $582 0.14183684272629904 $401 $583 forward 7 unknown #
coedge $-1 $584 $585 $254 $404 forward $396 $-1 #
edge $-1 $586 -51.661706850418305 $408 -44.819256720006095 $403 $587 forward 7 unknown #
edge $-1 $409 -12.236296274530641 $586 -8.6223131303995443e-015 $255 $588 forward 7 unknown #
coedge $-1 $256 $578 $584 $589 forward $407 $-1 #
loop $-1 $-1 $578 $395 #
vertex $-1 $404 $590 #
vertex $-1 $257 $591 #
straight-curve $-1 -67.521729778948242 -21.30500010193747 9.2184799438542768 1 0 0 I I #
coedge $-1 $411 $411 $-1 $592 reversed $260 $-1 #
edge $-1 $593 0 $593 6.2831853071796004 $261 $594 forward 7 unknown #
vertex $-1 $264 $595 #
ellipse-curve $-1 -58.676108683583109 -14.10877550614078 5.7972548786481743 -0.55919291073839883 0 0.82903756765294845 2.4871127029588456 0 1.6775787322151965 1 I I #
face $-1 $-1 $596 $54 $-1 $597 reversed single #
loop $-1 $-1 $271 $265 #
plane-surface $-1 0 0 9.2184799438542768 0 0 1 1 0 0 forward_v I I I I #
coedge $-1 $598 $599 $600 $601 reversed $266 $-1 #
coedge $-1 $602 $268 $270 $425 forward $166 $-1 #
coedge $-1 $268 $602 $598 $603 forward $166 $-1 #
coedge $-1 $600 $271 $268 $422 forward $416 $-1 #
edge $-1 $428 1.8454108144129044 $604 16.237860006006283 $421 $605 forward 7 unknown #
coedge $-1 $606 $607 $269 $424 forward $596 $-1 #
edge $-1 $608 -51.661706850418305 $427 -44.819256720006095 $423 $609 forward 7 unknown #
edge $-1 $428 -12.236296274530641 $608 -8.6223131303995443e-015 $270 $610 forward 7 unknown #
coedge $-1 $271 $600 $606 $611 forward $416 $-1 #
vertex $-1 $424 $612 #
vertex $-1 $272 $613 #
straight-curve $-1 -67.521729778948242 10.887046224622498 9.2184799438542768 1 0 0 I I #
coedge $-1 $430 $430 $-1 $614 reversed $275 $-1 #
edge $-1 $615 0 $615 6.2831853071796004 $276 $616 forward 7 unknown #
vertex $-1 $279 $617 #
ellipse-curve $-1 -58.676108683583109 18.083270820419187 5.7972548786481743 -0.55919291073839883 0 0.82903756765294845 2.4871127029588456 0 1.6775787322151965 1 I I #
face $-1 $-1 $295 $42 $-1 $618 reversed single #
loop $-1 $-1 $450 $280 #
plane-surface $-1 0 37.008322999298343 0 0 -1 0 0 0 -1 forward_v I I I I #
coedge $-1 $619 $448 $451 $620 forward $281 $-1 #
coedge $-1 $454 $283 $284 $442 reversed $175 $-1 #
coedge $-1 $448 $619 $283 $440 reversed $281 $-1 #
edge $-1 $455 -9.2184799438542768 $621 9.2184799438542768 $439 $622 forward 7 unknown #
coedge $-1 $285 $284 $619 $623 forward $113 $-1 #
edge $-1 $446 -63.748283333841975 $621 63.748283333841975 $438 $624 forward 7 unknown #
coedge $-1 $451 $450 $285 $444 reversed $435 $-1 #
edge $-1 $625 -63.748283333841975 $445 63.748283333841975 $443 $626 forward 7 unknown #
vertex $-1 $287 $627 #
vertex $-1 $457 $628 #
straight-curve $-1 63.748283333841975 0 -9.2184799438542768 0 -1 0 I I #
coedge $-1 $437 $439 $288 $449 reversed $281 $-1 #
edge $-1 $452 -37.008322999298343 $455 37.008322999298343 $448 $629 forward 7 unknown #
coedge $-1 $443 $289 $294 $458 forward $435 $-1 #
coedge $-1 $289 $443 $437 $620 reversed $435 $-1 #
vertex $-1 $290 $630 #
straight-curve $-1 0 37.008322999298343 9.2184799438542768 -1 0 0 I I #
coedge $-1 $291 $438 $293 $457 reversed $175 $-1 #
vertex $-1 $449 $631 #
straight-curve $-1 0 -37.008322999298343 9.2184799438542768 1 0 0 I I #
edge $-1 $296 -9.2184799438542768 $446 9.2184799438542768 $293 $632 forward 7 unknown #
edge $-1 $297 -9.2184799438542768 $445 9.2184799438542768 $294 $633 forward 7 unknown #
point $-1 63.748283333841975 -37.008322999298343 9.2184799438542768 #
point $-1 63.748283333841975 37.008322999298343 9.2184799438542768 #
face $-1 $-1 $634 $43 $-1 $635 reversed single #
loop $-1 $-1 $636 $299 #
plane-surface $-1 0 0 -9.2184799438542768 0 0 1 1 0 0 forward_v I I I I #
coedge $-1 $471 $481 $466 $637 forward $300 $-1 #
coedge $-1 $305 $302 $636 $638 reversed $183 $-1 #
coedge $-1 $302 $305 $464 $637 reversed $183 $-1 #
coedge $-1 $639 $640 $302 $468 forward $634 $-1 #
edge $-1 $641 -9.2184799438542768 $642 9.2184799438542768 $467 $643 forward 7 unknown #
coedge $-1 $636 $308 $303 $470 forward $462 $-1 #
edge $-1 $313 -30.633981170868314 $474 -27.616446084293646 $469 $644 forward 7 unknown #
coedge $-1 $310 $464 $304 $472 forward $300 $-1 #
edge $-1 $473 27.616446084293646 $312 30.633981170868314 $471 $645 forward 7 unknown #
vertex $-1 $472 $646 #
vertex $-1 $470 $647 #
straight-curve $-1 -56.741659711874625 -27.375769653821592 0 0 0 -1 I I #
coedge $-1 $640 $639 $307 $477 forward $634 $-1 #
edge $-1 $482 -9.2184799438542768 $479 9.2184799438542768 $476 $648 forward 7 unknown #
coedge $-1 $308 $636 $640 $649 forward $462 $-1 #
vertex $-1 $309 $650 #
straight-curve $-1 -59.759194798449293 -16.096023163279984 -9.2184799438542768 0 1 0 I I #
coedge $-1 $464 $310 $639 $651 forward $300 $-1 #
vertex $-1 $651 $652 #
straight-curve $-1 -59.759194798449293 -16.096023163279984 9.2184799438542768 0 -1 0 I I #
point $-1 -59.759194798449293 -27.375769653821592 9.2184799438542768 #
point $-1 -59.759194798449293 -27.375769653821592 -9.2184799438542768 #
plane-surface $-1 0 0 9.2184799438542768 0 0 1 1 0 0 forward_v I I I I #
coedge $-1 $497 $496 $489 $653 forward $316 $-1 #
coedge $-1 $489 $318 $320 $493 reversed $191 $-1 #
coedge $-1 $318 $488 $487 $653 reversed $191 $-1 #
coedge $-1 $326 $321 $318 $491 forward $327 $-1 #
edge $-1 $494 31.189520881746798 $654 42.861111414449695 $490 $655 forward 7 unknown #
coedge $-1 $320 $319 $497 $656 reversed $121 $-1 #
edge $-1 $657 -127.49656666768394 $494 -112.68510556943639 $488 $658 forward 7 unknown #
vertex $-1 $322 $659 #
straight-curve $-1 52.076692801139103 -7.3750330896158438 9.2184799438542768 0 -1 0 I I #
coedge $-1 $487 $323 $326 $501 reversed $316 $-1 #
coedge $-1 $323 $487 $492 $656 forward $316 $-1 #
vertex $-1 $324 $660 #
straight-curve $-1 63.748283333841975 -11.27974649054161 89.531511984485888 0 0 1 I I #
straight-curve $-1 -36.720381479160743 -11.27974649054161 78.594359155969045 0.78801074757464917 0 -0.61566148304635926 I I #
edge $-1 $654 -18.220385867921763 $328 -11.27974649054161 $496 $661 forward 7 unknown #
point $-1 63.748283333841975 -11.27974649054161 9.2184799438542768 #
point $-1 52.076692801139082 -11.27974649054161 9.2184799438542768 #
edge $-1 $662 1 $662 0 $331 $-1 forward 7 unknown #
vertex $-1 $332 $663 #
ellipse-curve $-1 56.156968815027049 -14.750066179231684 2.412094758972616 0.61566148304635926 0 0.78801074757464917 0.78801074757464917 0 -0.61566148304635926 1 I I #
point $-1 58.700498815065174 -14.750066179231684 4.0433954078926311 #
plane-surface $-1 0 0 9.2184799438542768 0 0 1 1 0 0 forward_v I I I I #
coedge $-1 $519 $518 $511 $664 forward $336 $-1 #
coedge $-1 $511 $338 $340 $515 reversed $206 $-1 #
coedge $-1 $338 $510 $509 $664 reversed $206 $-1 #
coedge $-1 $346 $341 $338 $513 forward $347 $-1 #
edge $-1 $516 31.189520881746798 $665 42.861111414449695 $512 $666 forward 7 unknown #
coedge $-1 $340 $339 $519 $667 reversed $130 $-1 #
edge $-1 $668 -127.49656666768394 $516 -112.68510556943639 $510 $669 forward 7 unknown #
vertex $-1 $342 $670 #
straight-curve $-1 52.076692801139103 -0.85291880562582278 9.2184799438542768 0 -1 0 I I #
coedge $-1 $509 $343 $346 $523 reversed $336 $-1 #
coedge $-1 $343 $509 $514 $667 forward $336 $-1 #
vertex $-1 $344 $671 #
straight-curve $-1 63.748283333841975 1.7644820774384318 89.531511984485888 0 0 1 I I #
straight-curve $-1 -36.720381479160743 1.7644820774384318 78.594359155969045 0.78801074757464917 0 -0.61566148304635926 I I #
edge $-1 $665 -5.1761572999417229 $348 1.7644820774384318 $518 $672 forward 7 unknown #
point $-1 63.748283333841975 1.7644820774384318 9.2184799438542768 #
point $-1 52.076692801139082 1.7644820774384318 9.2184799438542768 #
edge $-1 $673 1 $673 0 $351 $-1 forward 7 unknown #
vertex $-1 $352 $674 #
ellipse-curve $-1 56.156968815027049 -1.7058376112516385 2.412094758972616 0.61566148304635926 0 0.78801074757464917 0.78801074757464917 0 -0.61566148304635926 1 I I #
point $-1 58.700498815065174 -1.7058376112516385 4.0433954078926311 #
plane-surface $-1 0 0 9.2184799438542768 0 0 1 1 0 0 forward_v I I I I #
coedge $-1 $541 $540 $533 $675 forward $356 $-1 #
coedge $-1 $533 $358 $360 $537 reversed $221 $-1 #
coedge $-1 $358 $532 $531 $675 reversed $221 $-1 #
coedge $-1 $366 $361 $358 $535 forward $367 $-1 #
edge $-1 $538 31.189520881746798 $676 42.861111414449695 $534 $677 forward 7 unknown #
coedge $-1 $360 $359 $541 $678 reversed $139 $-1 #
edge $-1 $679 -127.49656666768394 $538 -112.68510556943639 $532 $680 forward 7 unknown #
vertex $-1 $362 $681 #
straight-curve $-1 52.076692801139103 5.6691954783641982 9.2184799438542768 0 -1 0 I I #
coedge $-1 $531 $363 $366 $545 reversed $356 $-1 #
coedge $-1 $363 $531 $536 $678 forward $356 $-1 #
vertex $-1 $364 $682 #
straight-curve $-1 63.748283333841975 14.808710645418474 89.531511984485888 0 0 1 I I #
straight-curve $-1 -36.720381479160743 14.808710645418474 78.594359155969045 0.78801074757464917 0 -0.61566148304635926 I I #
edge $-1 $676 7.8680712680383191 $368 14.808710645418474 $540 $683 forward 7 unknown #
point $-1 63.748283333841975 14.808710645418474 9.2184799438542768 #
point $-1 52.076692801139082 14.808710645418474 9.2184799438542768 #
edge $-1 $684 1 $684 0 $371 $-1 forward 7 unknown #
vertex $-1 $372 $685 #
ellipse-curve $-1 56.156968815027049 11.338390956728404 2.412094758972616 0.61566148304635926 0 0.78801074757464917 0.78801074757464917 0 -0.61566148304635926 1 I I #
point $-1 58.700498815065174 11.338390956728404 4.0433954078926311 #
plane-surface $-1 0 0 9.2184799438542768 0 0 1 1 0 0 forward_v I I I I #
coedge $-1 $563 $562 $555 $686 forward $376 $-1 #
coedge $-1 $555 $378 $380 $559 reversed $236 $-1 #
coedge $-1 $378 $554 $553 $686 reversed $236 $-1 #
coedge $-1 $386 $381 $378 $557 forward $387 $-1 #
edge $-1 $560 31.189520881746798 $687 42.861111414449695 $556 $688 forward 7 unknown #
coedge $-1 $380 $379 $563 $689 reversed $148 $-1 #
edge $-1 $690 -127.49656666768394 $560 -112.68510556943639 $554 $691 forward 7 unknown #
vertex $-1 $382 $692 #
straight-curve $-1 52.076692801139103 12.191309762354219 9.2184799438542768 0 -1 0 I I #
coedge $-1 $553 $383 $386 $567 reversed $376 $-1 #
coedge $-1 $383 $553 $558 $689 forward $376 $-1 #
vertex $-1 $384 $693 #
straight-curve $-1 63.748283333841975 27.852939213398514 89.531511984485888 0 0 1 I I #
straight-curve $-1 -36.720381479160743 27.852939213398514 78.594359155969045 0.78801074757464917 0 -0.61566148304635926 I I #
edge $-1 $687 20.912299836018363 $388 27.852939213398514 $562 $694 forward 7 unknown #
point $-1 63.748283333841975 27.852939213398514 9.2184799438542768 #
point $-1 52.076692801139082 27.852939213398514 9.2184799438542768 #
edge $-1 $695 1 $695 0 $391 $-1 forward 7 unknown #
vertex $-1 $392 $696 #
ellipse-curve $-1 56.156968815027049 24.382619524708446 2.412094758972616 0.61566148304635926 0 0.78801074757464917 0.78801074757464917 0 -0.61566148304635926 1 I I #
point $-1 58.700498815065174 24.382619524708446 4.0433954078926311 #
plane-surface $-1 0 0 9.2184799438542768 0 0 1 1 0 0 forward_v I I I I #
coedge $-1 $585 $584 $577 $697 forward $396 $-1 #
coedge $-1 $577 $398 $400 $581 reversed $251 $-1 #
coedge $-1 $398 $576 $575 $697 reversed $251 $-1 #
coedge $-1 $406 $401 $398 $579 forward $407 $-1 #
edge $-1 $582 -13.917795745623977 $698 -3.7734464451062664 $578 $699 forward 7 unknown #
coedge $-1 $400 $399 $585 $700 reversed $157 $-1 #
edge $-1 $701 8.6223131303995443e-015 $582 12.236296274530641 $576 $702 forward 7 unknown #
vertex $-1 $402 $703 #
straight-curve $-1 -53.603934033324258 -7.0543877530703902 9.2184799438542768 0 1 0 I I #
coedge $-1 $575 $403 $406 $589 reversed $396 $-1 #
coedge $-1 $403 $575 $580 $700 forward $396 $-1 #
vertex $-1 $404 $704 #
straight-curve $-1 -63.748283333841975 -21.30500010193747 54.037736663860372 0 0 1 I I #
straight-curve $-1 -63.748283333841982 -21.30500010193747 2.3760298134420594 -0.82903756765294845 0 -0.55919291073839883 I I #
edge $-1 $698 6.9125509103440912 $408 21.30500010193747 $584 $705 forward 7 unknown #
point $-1 -63.748283333841975 -21.30500010193747 9.2184799438542768 #
point $-1 -53.603934033324265 -21.30500010193747 9.2184799438542768 #
edge $-1 $706 1 $706 0 $411 $-1 forward 7 unknown #
vertex $-1 $412 $707 #
ellipse-curve $-1 -54.251851237887486 -14.10877550614078 -0.76197640095911323 -0.55919291073839883 0 0.82903756765294845 2.4871127029588456 0 1.6775787322151965 1 I I #
point $-1 -56.188995980624263 -14.10877550614078 7.4748336108633575 #
loop $-1 $-1 $423 $415 #
plane-surface $-1 -63.748283333841975 0 0 1 0 0 0 0 -1 forward_v I I I I #
coedge $-1 $599 $418 $420 $603 reversed $266 $-1 #
coedge $-1 $418 $598 $708 $709 reversed $266 $-1 #
coedge $-1 $426 $421 $418 $601 forward $416 $-1 #
edge $-1 $604 -13.917795745623977 $710 -3.7734464451062664 $600 $711 forward 7 unknown #
coedge $-1 $420 $419 $607 $712 reversed $166 $-1 #
edge $-1 $713 8.6223131303995443e-015 $604 12.236296274530641 $598 $714 forward 7 unknown #
vertex $-1 $422 $715 #
straight-curve $-1 -53.603934033324258 9.0416354102095937 9.2184799438542768 0 1 0 I I #
coedge $-1 $708 $423 $426 $611 reversed $596 $-1 #
coedge $-1 $423 $708 $602 $712 forward $596 $-1 #
vertex $-1 $424 $716 #
straight-curve $-1 -63.748283333841975 10.887046224622498 54.037736663860372 0 0 1 I I #
straight-curve $-1 -63.748283333841982 10.887046224622498 2.3760298134420594 -0.82903756765294845 0 -0.55919291073839883 I I #
edge $-1 $710 -25.279495416215877 $427 -10.887046224622498 $606 $717 forward 7 unknown #
point $-1 -63.748283333841975 10.887046224622498 9.2184799438542768 #
point $-1 -53.603934033324265 10.887046224622498 9.2184799438542768 #
edge $-1 $718 1 $718 0 $430 $-1 forward 7 unknown #
vertex $-1 $431 $719 #
ellipse-curve $-1 -54.251851237887486 18.083270820419187 -0.76197640095911323 -0.55919291073839883 0 0.82903756765294845 2.4871127029588456 0 1.6775787322151965 1 I I #
point $-1 -56.188995980624263 18.083270820419187 7.4748336108633575 #
plane-surface $-1 63.748283333841975 0 0 -1 0 0 0 0 1 forward_v I I I I #
coedge $-1 $439 $437 $441 $623 reversed $281 $-1 #
edge $-1 $452 -9.2184799438542768 $625 9.2184799438542768 $451 $720 forward 7 unknown #
vertex $-1 $623 $721 #
straight-curve $-1 -63.748283333841975 -37.008322999298343 0 0 0 -1 I I #
edge $-1 $621 -37.008322999298343 $625 37.008322999298343 $619 $722 forward 7 unknown #
straight-curve $-1 0 -37.008322999298343 -9.2184799438542768 -1 0 0 I I #
vertex $-1 $444 $723 #
straight-curve $-1 0 37.008322999298343 -9.2184799438542768 1 0 0 I I #
point $-1 63.748283333841975 37.008322999298343 -9.2184799438542768 #
point $-1 63.748283333841975 -37.008322999298343 -9.2184799438542768 #
straight-curve $-1 -63.748283333841975 0 9.2184799438542768 0 -1 0 I I #
point $-1 -63.748283333841975 37.008322999298343 9.2184799438542768 #
point $-1 -63.748283333841975 -37.008322999298343 9.2184799438542768 #
straight-curve $-1 63.748283333841975 -37.008322999298343 0 0 0 -1 I I #
straight-curve $-1 63.748283333841975 37.008322999298343 0 0 0 -1 I I #
loop $-1 $-1 $467 $461 #
plane-surface $-1 0 -37.008322999298343 0 0 1 0 0 0 1 forward_v I I I I #
coedge $-1 $478 $469 $465 $638 forward $462 $-1 #
edge $-1 $642 -20.912299836018359 $473 -11.279746490541608 $464 $724 forward 7 unknown #
edge $-1 $474 11.279746490541608 $641 20.912299836018359 $636 $725 forward 7 unknown #
coedge $-1 $476 $467 $481 $651 reversed $634 $-1 #
coedge $-1 $467 $476 $478 $649 reversed $634 $-1 #
vertex $-1 $649 $726 #
vertex $-1 $468 $727 #
straight-curve $-1 -56.741659711874625 -37.008322999298343 0 0 0 1 I I #
straight-curve $-1 -29.12521362758098 -27.375769653821592 -9.2184799438542768 1 0 0 I I #
straight-curve $-1 -29.12521362758098 -27.375769653821592 9.2184799438542768 -1 0 0 I I #
point $-1 -56.741659711874625 -27.375769653821592 9.2184799438542768 #
point $-1 -56.741659711874625 -27.375769653821592 -9.2184799438542768 #
straight-curve $-1 -59.759194798449293 -37.008322999298343 0 0 0 -1 I I #
edge $-1 $641 56.741659711874625 $479 59.759194798449293 $640 $728 forward 7 unknown #
point $-1 -59.759194798449293 -37.008322999298343 -9.2184799438542768 #
edge $-1 $482 -59.759194798449293 $642 -56.741659711874625 $639 $729 forward 7 unknown #
point $-1 -59.759194798449293 -37.008322999298343 9.2184799438542768 #
edge $-1 $654 80.313032040631612 $657 89.431878146462154 $487 $730 forward 7 unknown #
vertex $-1 $501 $731 #
straight-curve $-1 20.887171919392284 -18.220385867921763 9.2184799438542768 1 0 0 I I #
edge $-1 $657 -10.845352778305919 $498 -3.9047134009257665 $497 $732 forward 7 unknown #
vertex $-1 $656 $733 #
straight-curve $-1 -36.720381479160743 -18.220385867921763 78.594359155969045 -0.78801074757464917 0 0.61566148304635926 I I #
point $-1 52.076692801139082 -18.220385867921763 9.2184799438542768 #
point $-1 63.748283333841975 -11.27974649054161 0.099633838023734711 #
straight-curve $-1 63.748283333841975 0 9.2184799438542768 0 1 0 I I #
vertex $-1 $504 $734 #
point $-1 56.944979562601702 -14.750066179231684 1.7964332759262569 #
edge $-1 $665 80.313032040631612 $668 89.431878146462154 $509 $735 forward 7 unknown #
vertex $-1 $523 $736 #
straight-curve $-1 20.887171919392284 -5.1761572999417229 9.2184799438542768 1 0 0 I I #
edge $-1 $668 -4.3232384943159001 $520 2.6174008830642546 $519 $737 forward 7 unknown #
vertex $-1 $667 $738 #
straight-curve $-1 -36.720381479160743 -5.1761572999417229 78.594359155969045 -0.78801074757464917 0 0.61566148304635926 I I #
point $-1 52.076692801139082 -5.1761572999417229 9.2184799438542768 #
point $-1 63.748283333841975 1.7644820774384318 0.099633838023734711 #
straight-curve $-1 63.748283333841975 0 9.2184799438542768 0 1 0 I I #
vertex $-1 $526 $739 #
point $-1 56.944979562601702 -1.7058376112516385 1.7964332759262569 #
edge $-1 $676 80.313032040631612 $679 89.431878146462154 $531 $740 forward 7 unknown #
vertex $-1 $545 $741 #
straight-curve $-1 20.887171919392284 7.8680712680383191 9.2184799438542768 1 0 0 I I #
edge $-1 $679 2.1988757896741209 $542 9.1395151670542756 $541 $742 forward 7 unknown #
vertex $-1 $678 $743 #
straight-curve $-1 -36.720381479160743 7.8680712680383191 78.594359155969045 -0.78801074757464917 0 0.61566148304635926 I I #
point $-1 52.076692801139082 7.8680712680383191 9.2184799438542768 #
point $-1 63.748283333841975 14.808710645418474 0.099633838023734711 #
straight-curve $-1 63.748283333841975 0 9.2184799438542768 0 1 0 I I #
vertex $-1 $548 $744 #
point $-1 56.944979562601702 11.338390956728404 1.7964332759262569 #
edge $-1 $687 80.313032040631612 $690 89.431878146462154 $553 $745 forward 7 unknown #
vertex $-1 $567 $746 #
straight-curve $-1 20.887171919392284 20.912299836018363 9.2184799438542768 1 0 0 I I #
edge $-1 $690 8.7209900736641437 $564 15.661629451044295 $563 $747 forward 7 unknown #
vertex $-1 $689 $748 #
straight-curve $-1 -36.720381479160743 20.912299836018363 78.594359155969045 -0.78801074757464917 0 0.61566148304635926 I I #
point $-1 52.076692801139082 20.912299836018363 9.2184799438542768 #
point $-1 63.748283333841975 27.852939213398514 0.099633838023734711 #
straight-curve $-1 63.748283333841975 0 9.2184799438542768 0 1 0 I I #
vertex $-1 $570 $749 #
point $-1 56.944979562601702 24.382619524708446 1.7964332759262569 #
edge $-1 $698 44.819256720006095 $701 51.661706850418305 $575 $750 forward 7 unknown #
vertex $-1 $589 $751 #
straight-curve $-1 -67.521729778948242 -6.9125509103440912 9.2184799438542768 -1 0 0 I I #
edge $-1 $701 -0.14183684272629904 $586 14.25061234886708 $585 $752 forward 7 unknown #
vertex $-1 $700 $753 #
straight-curve $-1 -63.748283333841982 -6.9125509103440912 2.3760298134420594 0.82903756765294845 0 0.55919291073839883 I I #
point $-1 -53.603934033324265 -6.9125509103440912 9.2184799438542768 #
point $-1 -63.748283333841975 -21.30500010193747 2.3760298134420643 #
straight-curve $-1 -63.748283333841975 0 9.2184799438542768 0 -1 0 I I #
vertex $-1 $592 $754 #
point $-1 -51.76473853492864 -14.10877550614078 0.91560233125608326 #
coedge $-1 $607 $606 $599 $709 forward $596 $-1 #
edge $-1 $710 44.819256720006095 $713 51.661706850418305 $708 $755 forward 7 unknown #
vertex $-1 $611 $756 #
straight-curve $-1 -67.521729778948242 25.279495416215877 9.2184799438542768 -1 0 0 I I #
edge $-1 $713 -16.237860006006283 $608 -1.8454108144129044 $607 $757 forward 7 unknown #
vertex $-1 $712 $758 #
straight-curve $-1 -63.748283333841982 25.279495416215877 2.3760298134420594 0.82903756765294845 0 0.55919291073839883 I I #
point $-1 -53.603934033324265 25.279495416215877 9.2184799438542768 #
point $-1 -63.748283333841975 10.887046224622498 2.3760298134420643 #
straight-curve $-1 -63.748283333841975 0 9.2184799438542768 0 -1 0 I I #
vertex $-1 $614 $759 #
point $-1 -51.76473853492864 18.083270820419187 0.91560233125608326 #
straight-curve $-1 -63.748283333841975 37.008322999298343 0 0 0 -1 I I #
point $-1 -63.748283333841975 -37.008322999298343 -9.2184799438542768 #
straight-curve $-1 -63.748283333841975 0 -9.2184799438542768 0 1 0 I I #
point $-1 -63.748283333841975 37.008322999298343 -9.2184799438542768 #
straight-curve $-1 -56.741659711874625 -16.096023163279984 9.2184799438542768 0 1 0 I I #
straight-curve $-1 -56.741659711874625 -16.096023163279984 -9.2184799438542768 0 -1 0 I I #
point $-1 -56.741659711874625 -37.008322999298343 -9.2184799438542768 #
point $-1 -56.741659711874625 -37.008322999298343 9.2184799438542768 #
straight-curve $-1 0 -37.008322999298343 -9.2184799438542768 -1 0 0 I I #
straight-curve $-1 0 -37.008322999298343 9.2184799438542768 1 0 0 I I #
straight-curve $-1 63.748283333841975 -18.220385867921763 89.531511984485888 0 0 -1 I I #
point $-1 63.748283333841975 -18.220385867921763 9.2184799438542768 #
straight-curve $-1 63.748283333841968 -7.3750330896158438 0.099633838023741816 0 1 0 I I #
point $-1 63.748283333841975 -18.220385867921763 0.099633838023734711 #
point $-1 55.541307331980697 -14.750066179231684 1.6240840113979669 #
straight-curve $-1 63.748283333841975 -5.1761572999417229 89.531511984485888 0 0 -1 I I #
point $-1 63.748283333841975 -5.1761572999417229 9.2184799438542768 #
straight-curve $-1 63.748283333841968 -0.85291880562582278 0.099633838023741816 0 1 0 I I #
point $-1 63.748283333841975 -5.1761572999417229 0.099633838023734711 #
point $-1 55.541307331980697 -1.7058376112516385 1.6240840113979669 #
straight-curve $-1 63.748283333841975 7.8680712680383191 89.531511984485888 0 0 -1 I I #
point $-1 63.748283333841975 7.8680712680383191 9.2184799438542768 #
straight-curve $-1 63.748283333841968 5.6691954783641982 0.099633838023741816 0 1 0 I I #
point $-1 63.748283333841975 7.8680712680383191 0.099633838023734711 #
point $-1 55.541307331980697 11.338390956728404 1.6240840113979669 #
straight-curve $-1 63.748283333841975 20.912299836018363 89.531511984485888 0 0 -1 I I #
point $-1 63.748283333841975 20.912299836018363 9.2184799438542768 #
straight-curve $-1 63.748283333841968 12.191309762354219 0.099633838023741816 0 1 0 I I #
point $-1 63.748283333841975 20.912299836018363 0.099633838023734711 #
point $-1 55.541307331980697 24.382619524708446 1.6240840113979669 #
straight-curve $-1 -63.748283333841975 -6.9125509103440912 54.037736663860372 0 0 -1 I I #
point $-1 -63.748283333841975 -6.9125509103440912 9.2184799438542768 #
straight-curve $-1 -63.748283333841975 -7.0543877530703902 2.3760298134420679 0 -1 0 I I #
point $-1 -63.748283333841975 -6.9125509103440912 2.3760298134420643 #
point $-1 -52.57427250567229 -14.10877550614078 -3.2490891039179588 #
straight-curve $-1 -63.748283333841975 25.279495416215877 54.037736663860372 0 0 -1 I I #
point $-1 -63.748283333841975 25.279495416215877 9.2184799438542768 #
straight-curve $-1 -63.748283333841975 9.0416354102095937 2.3760298134420679 0 -1 0 I I #
point $-1 -63.748283333841975 25.279495416215877 2.3760298134420643 #
point $-1 -52.57427250567229 18.083270820419187 -3.2490891039179588 #
End-of-ACIS-data 