500 0 8 0           
7 Unknown 11 ACIS 5.0 NT 24 Fri Mar 26 02:58:40 1999 
-1 9.9999999999999995e-007 1e-010 
body $-1 $8 $-1 $9 #
body $-1 $10 $-1 $11 #
body $-1 $12 $-1 $13 #
body $-1 $14 $-1 $15 #
body $-1 $16 $-1 $17 #
body $-1 $18 $-1 $19 #
body $-1 $20 $-1 $21 #
body $-1 $22 $-1 $23 #
lump $-1 $-1 $24 $0 #
transform $-1 1 0 0 0 1 0 0 0 1 64.058351390118105 43.87313809814421 16.113774683972782 1 rotate no_reflect no_shear #
lump $-1 $-1 $25 $1 #
transform $-1 1 0 0 0 1 0 0 0 1 64.058351390118105 43.87313809814421 16.113774683972782 1 rotate no_reflect no_shear #
lump $-1 $-1 $26 $2 #
transform $-1 1 0 0 0 1 0 0 0 1 64.058351390118105 43.87313809814421 16.113774683972782 1 rotate no_reflect no_shear #
lump $-1 $-1 $27 $3 #
transform $-1 1 0 0 0 1 0 0 0 1 64.058351390118105 43.87313809814421 16.113774683972782 1 rotate no_reflect no_shear #
lump $-1 $-1 $28 $4 #
transform $-1 1 0 0 0 1 0 0 0 1 64.058351390118105 43.87313809814421 16.113774683972782 1 rotate no_reflect no_shear #
lump $-1 $-1 $29 $5 #
transform $-1 1 0 0 0 1 0 0 0 1 64.058351390118105 43.87313809814421 16.113774683972782 1 rotate no_reflect no_shear #
lump $-1 $-1 $30 $6 #
transform $-1 1 0 0 0 1 0 0 0 1 64.058351390118105 43.87313809814421 16.113774683972782 1 rotate no_reflect no_shear #
lump $-1 $-1 $31 $7 #
transform $-1 1 0 0 0 1 0 0 0 1 64.058351390118105 43.87313809814421 16.113774683972782 1 rotate no_reflect no_shear #
shell $-1 $-1 $-1 $32 $-1 $8 #
shell $-1 $-1 $-1 $33 $-1 $10 #
shell $-1 $-1 $-1 $34 $-1 $12 #
shell $-1 $-1 $-1 $35 $-1 $14 #
shell $-1 $-1 $-1 $36 $-1 $16 #
shell $-1 $-1 $-1 $37 $-1 $18 #
shell $-1 $-1 $-1 $38 $-1 $20 #
shell $-1 $-1 $-1 $39 $-1 $22 #
face $-1 $40 $41 $24 $-1 $42 forward single #
face $-1 $43 $44 $25 $-1 $45 reversed single #
face $-1 $46 $47 $26 $-1 $48 forward single #
face $-1 $49 $50 $27 $-1 $51 forward single #
face $-1 $52 $53 $28 $-1 $54 reversed single #
face $-1 $55 $56 $29 $-1 $57 forward single #
face $-1 $58 $59 $30 $-1 $60 forward single #
face $-1 $61 $62 $31 $-1 $63 forward single #
face $-1 $64 $65 $24 $-1 $66 reversed single #
loop $-1 $-1 $67 $32 #
plane-surface $-1 0 0 16.113774683972782 0 0 1 1 0 0 forward_v I I I I #
face $-1 $68 $69 $25 $-1 $70 reversed single #
loop $-1 $-1 $71 $33 #
plane-surface $-1 -37.237399027631881 85.614009126769901 160.21944022400049 -1 0 0 0 0.7660444514056185 0.64278759981090561 forward_v I I I I #
face $-1 $72 $73 $26 $-1 $74 forward single #
loop $-1 $75 $76 $34 #
cone-surface $-1 -56.395222143693466 41.193784466497227 13.057141791741635 0 -0.7660444514056185 -0.64278759981090561 1 0 0 1 I I 0 1 1 forward I I I I #
face $-1 $77 $78 $27 $-1 $79 forward single #
loop $-1 $80 $81 $35 #
cone-surface $-1 -44.900528274056512 41.193784466497227 13.057141791741635 0 -0.7660444514056185 -0.64278759981090561 1 0 0 1 I I 0 1 1 forward I I I I #
face $-1 $82 $83 $28 $-1 $84 reversed single #
loop $-1 $-1 $85 $36 #
plane-surface $-1 38.501608255543488 -140.56404213484711 88.117880815730615 -1 0 0 0 -0.75470958851134928 0.65605901945558964 forward_v I I I I #
face $-1 $86 $87 $29 $-1 $88 forward single #
loop $-1 $89 $90 $37 #
cone-surface $-1 20.171539833961717 -35.666770698963717 7.5081792105332479 0 0.75470958851134928 -0.65605901945558964 2 0 0 1 I I 0 1 2 forward I I I I #
face $-1 $91 $92 $30 $-1 $93 forward single #
loop $-1 $94 $95 $38 #
cone-surface $-1 27.045315492054883 -35.666770698963717 7.5081792105332479 0 0.75470958851134928 -0.65605901945558964 2 0 0 1 I I 0 1 2 forward I I I I #
face $-1 $96 $97 $31 $-1 $98 forward single #
loop $-1 $99 $100 $39 #
cone-surface $-1 33.919091150148049 -35.666770698963717 7.5081792105332479 0 0.75470958851134928 -0.65605901945558964 2 0 0 1 I I 0 1 2 forward I I I I #
face $-1 $101 $102 $24 $-1 $103 reversed single #
loop $-1 $-1 $104 $40 #
plane-surface $-1 0 0 -16.113774683972782 0 0 1 1 0 0 forward_v I I I I #
coedge $-1 $105 $106 $107 $108 forward $41 $-1 #
face $-1 $109 $110 $25 $-1 $111 reversed single #
loop $-1 $-1 $112 $43 #
plane-surface $-1 -50.647875208874993 -12.529080170412826 77.867612348205284 0 0.7660444514056185 0.64278759981090561 1 0 0 forward_v I I I I #
coedge $-1 $113 $114 $115 $116 reversed $44 $-1 #
face $-1 $-1 $117 $26 $-1 $118 forward single #
loop $-1 $119 $120 $46 #
cone-surface $-1 -56.395222143693466 40.423707217830113 12.41097027332459 0 -0.7660444514056185 -0.64278759981090561 0.5 0 0 1 I I -0.70710678118654746 0.70710678118654746 0.5 forward I I I I #
loop $-1 $-1 $121 $34 #
coedge $-1 $76 $76 $122 $123 reversed $47 $-1 #
face $-1 $-1 $124 $27 $-1 $125 forward single #
loop $-1 $126 $127 $49 #
cone-surface $-1 -44.900528274056512 40.423707217830113 12.41097027332459 0 -0.7660444514056185 -0.64278759981090561 0.5 0 0 1 I I -0.70710678118654746 0.70710678118654746 0.5 forward I I I I #
loop $-1 $-1 $128 $35 #
coedge $-1 $81 $81 $129 $130 reversed $50 $-1 #
face $-1 $131 $132 $28 $-1 $133 reversed single #
loop $-1 $-1 $134 $52 #
plane-surface $-1 27.045315492054883 -43.87313809814421 4.0657624138456328 0 -0.75470958851134928 0.65605901945558964 1 0 0 forward_v I I I I #
coedge $-1 $135 $136 $137 $138 reversed $53 $-1 #
face $-1 $-1 $139 $29 $-1 $140 forward single #
loop $-1 $141 $142 $55 #
cone-surface $-1 20.171539833961717 -31.942282219388908 4.2705308527017074 0 0.75470958851134928 -0.65605901945558964 1 0 0 1 I I -0.70710678118654746 0.70710678118654746 1 forward I I I I #
loop $-1 $-1 $143 $37 #
coedge $-1 $90 $90 $144 $145 reversed $56 $-1 #
face $-1 $-1 $146 $30 $-1 $147 forward single #
loop $-1 $148 $149 $58 #
cone-surface $-1 27.045315492054883 -31.942282219388908 4.2705308527017074 0 0.75470958851134928 -0.65605901945558964 1 0 0 1 I I -0.70710678118654746 0.70710678118654746 1 forward I I I I #
loop $-1 $-1 $150 $38 #
coedge $-1 $95 $95 $151 $152 reversed $59 $-1 #
face $-1 $-1 $153 $31 $-1 $154 forward single #
loop $-1 $155 $156 $61 #
cone-surface $-1 33.919091150148049 -31.942282219388908 4.2705308527017074 0 0.75470958851134928 -0.65605901945558964 1 0 0 1 I I -0.70710678118654746 0.70710678118654746 1 forward I I I I #
loop $-1 $-1 $157 $39 #
coedge $-1 $100 $100 $158 $159 reversed $62 $-1 #
face $-1 $160 $161 $24 $-1 $162 reversed single #
loop $-1 $-1 $163 $64 #
plane-surface $-1 0 -43.87313809814421 0 0 1 0 0 0 1 forward_v I I I I #
coedge $-1 $164 $165 $166 $167 forward $65 $-1 #
coedge $-1 $168 $67 $169 $170 forward $41 $-1 #
coedge $-1 $67 $168 $171 $172 forward $41 $-1 #
coedge $-1 $173 $174 $67 $108 reversed $175 $-1 #
edge $-1 $176 -43.87313809814421 $177 43.87313809814421 $107 $178 forward 7 unknown #
face $-1 $179 $180 $25 $-1 $181 forward single #
loop $-1 $-1 $115 $68 #
plane-surface $-1 0 43.87313809814421 0 0 -1 0 0 0 -1 forward_v I I I I #
coedge $-1 $182 $183 $184 $185 reversed $69 $-1 #
coedge $-1 $114 $71 $186 $187 reversed $44 $-1 #
coedge $-1 $71 $113 $182 $188 reversed $44 $-1 #
coedge $-1 $184 $189 $71 $116 forward $110 $-1 #
edge $-1 $190 63.995945428027468 $191 69.459655775466601 $115 $192 forward 7 unknown #
loop $-1 $-1 $122 $72 #
plane-surface $-1 -50.647875208874993 -12.529080170412826 77.867612348205284 0 0.7660444514056185 0.64278759981090561 1 0 0 forward_v I I I I #
loop $-1 $-1 $193 $46 #
coedge $-1 $120 $120 $121 $194 reversed $73 $-1 #
coedge $-1 $121 $121 $120 $194 forward $75 $-1 #
coedge $-1 $122 $122 $76 $123 forward $117 $-1 #
edge $-1 $195 9.4158785079447446e-017 $195 6.2831853071796004 $122 $196 forward 7 unknown #
loop $-1 $-1 $129 $77 #
plane-surface $-1 -50.647875208874993 -12.529080170412826 77.867612348205284 0 0.7660444514056185 0.64278759981090561 1 0 0 forward_v I I I I #
loop $-1 $-1 $197 $49 #
coedge $-1 $127 $127 $128 $198 reversed $78 $-1 #
coedge $-1 $128 $128 $127 $198 forward $80 $-1 #
coedge $-1 $129 $129 $81 $130 forward $124 $-1 #
edge $-1 $199 9.4158785079447446e-017 $199 6.2831853071796004 $129 $200 forward 7 unknown #
face $-1 $201 $202 $28 $-1 $203 reversed single #
loop $-1 $-1 $204 $82 #
plane-surface $-1 15.589022728566277 -140.56404213484711 88.117880815730615 1 0 0 0 0.75470958851134928 -0.65605901945558964 forward_v I I I I #
coedge $-1 $205 $206 $207 $208 reversed $83 $-1 #
coedge $-1 $136 $85 $209 $210 reversed $53 $-1 #
coedge $-1 $85 $135 $205 $211 reversed $53 $-1 #
coedge $-1 $207 $212 $85 $138 forward $213 $-1 #
edge $-1 $214 26.408882969279347 $215 36.882059985513408 $137 $216 forward 7 unknown #
loop $-1 $-1 $144 $86 #
plane-surface $-1 27.045315492054883 -43.87313809814421 4.0657624138456328 0 -0.75470958851134928 0.65605901945558964 1 0 0 forward_v I I I I #
loop $-1 $-1 $217 $55 #
coedge $-1 $142 $142 $143 $218 reversed $87 $-1 #
coedge $-1 $143 $143 $142 $218 forward $89 $-1 #
coedge $-1 $144 $144 $90 $145 forward $139 $-1 #
edge $-1 $219 3.198395435506915e-016 $219 6.2831853071796004 $144 $220 forward 7 unknown #
loop $-1 $-1 $151 $91 #
plane-surface $-1 27.045315492054883 -43.87313809814421 4.0657624138456328 0 -0.75470958851134928 0.65605901945558964 1 0 0 forward_v I I I I #
loop $-1 $-1 $221 $58 #
coedge $-1 $149 $149 $150 $222 reversed $92 $-1 #
coedge $-1 $150 $150 $149 $222 forward $94 $-1 #
coedge $-1 $151 $151 $95 $152 forward $146 $-1 #
edge $-1 $223 3.198395435506915e-016 $223 6.2831853071796004 $151 $224 forward 7 unknown #
loop $-1 $-1 $158 $96 #
plane-surface $-1 27.045315492054883 -43.87313809814421 4.0657624138456328 0 -0.75470958851134928 0.65605901945558964 1 0 0 forward_v I I I I #
loop $-1 $-1 $225 $61 #
coedge $-1 $156 $156 $157 $226 reversed $97 $-1 #
coedge $-1 $157 $157 $156 $226 forward $99 $-1 #
coedge $-1 $158 $158 $100 $159 forward $153 $-1 #
edge $-1 $227 3.198395435506915e-016 $227 6.2831853071796004 $158 $228 forward 7 unknown #
face $-1 $229 $230 $24 $-1 $231 reversed single #
loop $-1 $-1 $232 $101 #
plane-surface $-1 -64.058351390118105 0 0 1 0 0 0 0 -1 forward_v I I I I #
coedge $-1 $233 $171 $234 $235 forward $102 $-1 #
coedge $-1 $236 $104 $233 $237 forward $65 $-1 #
coedge $-1 $104 $236 $238 $239 forward $65 $-1 #
coedge $-1 $174 $173 $104 $167 reversed $175 $-1 #
edge $-1 $240 -43.87313809814421 $241 43.87313809814421 $166 $242 forward 7 unknown #
coedge $-1 $106 $105 $243 $244 forward $41 $-1 #
coedge $-1 $245 $246 $105 $170 reversed $230 $-1 #
edge $-1 $177 -64.058351390118105 $247 64.058351390118105 $169 $248 forward 7 unknown #
coedge $-1 $163 $249 $106 $172 reversed $102 $-1 #
edge $-1 $250 -64.058351390118105 $176 64.058351390118105 $171 $251 forward 7 unknown #
coedge $-1 $166 $107 $249 $252 forward $175 $-1 #
coedge $-1 $107 $166 $245 $253 reversed $175 $-1 #
loop $-1 $-1 $173 $229 #
vertex $-1 $108 $254 #
vertex $-1 $108 $255 #
straight-curve $-1 64.058351390118105 0 16.113774683972782 0 1 0 I I #
face $-1 $-1 $256 $25 $-1 $257 reversed single #
loop $-1 $-1 $186 $109 #
plane-surface $-1 0 0 16.113774683972782 0 0 1 1 0 0 forward_v I I I I #
coedge $-1 $258 $112 $114 $188 forward $69 $-1 #
coedge $-1 $112 $258 $259 $260 reversed $69 $-1 #
coedge $-1 $261 $115 $112 $185 forward $110 $-1 #
edge $-1 $191 11.913461423194384 $262 38.734413785680609 $184 $263 forward 7 unknown #
coedge $-1 $264 $265 $113 $187 forward $180 $-1 #
edge $-1 $266 -3.5184636826061535 $190 1.0661335347592598 $186 $267 forward 7 unknown #
edge $-1 $191 -87.746276196288434 $266 -80.613908959095156 $114 $268 forward 7 unknown #
coedge $-1 $115 $261 $264 $269 reversed $110 $-1 #
vertex $-1 $269 $270 #
vertex $-1 $116 $271 #
straight-curve $-1 -37.237399027631881 43.87313809814421 80.109720112000247 0 0 -1 I I #
coedge $-1 $193 $193 $-1 $272 reversed $119 $-1 #
edge $-1 $273 0 $273 6.2831853071796004 $120 $274 forward 7 unknown #
vertex $-1 $123 $275 #
ellipse-curve $-1 -56.395222143693466 41.580839489461511 13.38191951025321 0 0.7660444514056185 0.64278759981090561 1 0 0 1 I I #
coedge $-1 $197 $197 $-1 $276 reversed $126 $-1 #
edge $-1 $277 0 $277 6.2831853071796004 $127 $278 forward 7 unknown #
vertex $-1 $130 $279 #
ellipse-curve $-1 -44.900528274056512 41.580839489461511 13.38191951025321 0 0.7660444514056185 0.64278759981090561 1 0 0 1 I I #
face $-1 $-1 $213 $28 $-1 $280 forward single #
loop $-1 $-1 $281 $131 #
plane-surface $-1 0 -43.87313809814421 0 0 1 0 0 0 1 forward_v I I I I #
coedge $-1 $282 $283 $284 $285 reversed $132 $-1 #
coedge $-1 $286 $134 $136 $211 forward $83 $-1 #
coedge $-1 $134 $286 $282 $287 forward $83 $-1 #
coedge $-1 $284 $137 $134 $208 forward $213 $-1 #
edge $-1 $215 -24.978950509516046 $288 -2.0663649825388362 $207 $289 forward 7 unknown #
coedge $-1 $290 $291 $135 $210 forward $202 $-1 #
edge $-1 $292 -39.993177994019675 $214 -27.945165723892526 $209 $293 forward 7 unknown #
edge $-1 $215 -15.963772626622688 $292 0 $136 $294 forward 7 unknown #
coedge $-1 $137 $284 $290 $295 forward $213 $-1 #
loop $-1 $-1 $284 $201 #
vertex $-1 $210 $296 #
vertex $-1 $138 $297 #
straight-curve $-1 38.501608255543488 -70.282021067423557 16.113774683972785 0 1 0 I I #
coedge $-1 $217 $217 $-1 $298 reversed $141 $-1 #
edge $-1 $299 0 $299 6.2831853071796004 $142 $300 forward 7 unknown #
vertex $-1 $145 $301 #
ellipse-curve $-1 20.171539833961717 -38.63654959002718 10.089768548909205 0 -0.75470958851134928 0.65605901945558964 2 0 0 1 I I #
coedge $-1 $221 $221 $-1 $302 reversed $148 $-1 #
edge $-1 $303 0 $303 6.2831853071796004 $149 $304 forward 7 unknown #
vertex $-1 $152 $305 #
ellipse-curve $-1 27.045315492054883 -38.63654959002718 10.089768548909205 0 -0.75470958851134928 0.65605901945558964 2 0 0 1 I I #
coedge $-1 $225 $225 $-1 $306 reversed $155 $-1 #
edge $-1 $307 0 $307 6.2831853071796004 $156 $308 forward 7 unknown #
vertex $-1 $159 $309 #
ellipse-curve $-1 33.919091150148049 -38.63654959002718 10.089768548909205 0 -0.75470958851134928 0.65605901945558964 2 0 0 1 I I #
face $-1 $-1 $175 $24 $-1 $310 reversed single #
loop $-1 $-1 $245 $160 #
plane-surface $-1 0 43.87313809814421 0 0 -1 0 0 0 -1 forward_v I I I I #
coedge $-1 $311 $243 $246 $312 forward $161 $-1 #
coedge $-1 $249 $163 $164 $237 reversed $102 $-1 #
coedge $-1 $243 $311 $163 $235 reversed $161 $-1 #
edge $-1 $250 -16.113774683972782 $313 16.113774683972782 $234 $314 forward 7 unknown #
coedge $-1 $165 $164 $311 $315 forward $65 $-1 #
edge $-1 $241 -64.058351390118105 $313 64.058351390118105 $233 $316 forward 7 unknown #
coedge $-1 $246 $245 $165 $239 reversed $230 $-1 #
edge $-1 $317 -64.058351390118105 $240 64.058351390118105 $238 $318 forward 7 unknown #
vertex $-1 $167 $319 #
vertex $-1 $252 $320 #
straight-curve $-1 64.058351390118105 0 -16.113774683972782 0 -1 0 I I #
coedge $-1 $232 $234 $168 $244 reversed $161 $-1 #
edge $-1 $247 -43.87313809814421 $250 43.87313809814421 $243 $321 forward 7 unknown #
coedge $-1 $238 $169 $174 $253 forward $230 $-1 #
coedge $-1 $169 $238 $232 $312 reversed $230 $-1 #
vertex $-1 $170 $322 #
straight-curve $-1 0 43.87313809814421 16.113774683972782 -1 0 0 I I #
coedge $-1 $171 $233 $173 $252 reversed $102 $-1 #
vertex $-1 $244 $323 #
straight-curve $-1 0 -43.87313809814421 16.113774683972782 1 0 0 I I #
edge $-1 $176 -16.113774683972782 $241 16.113774683972782 $173 $324 forward 7 unknown #
edge $-1 $177 -16.113774683972782 $240 16.113774683972782 $174 $325 forward 7 unknown #
point $-1 64.058351390118105 -43.87313809814421 16.113774683972782 #
point $-1 64.058351390118105 43.87313809814421 16.113774683972782 #
loop $-1 $-1 $259 $179 #
plane-surface $-1 -64.058351390118105 0 0 1 0 0 0 0 -1 forward_v I I I I #
coedge $-1 $183 $182 $265 $326 reversed $69 $-1 #
coedge $-1 $327 $328 $183 $260 forward $256 $-1 #
edge $-1 $262 -53.894481319226244 $329 -46.762114082032966 $259 $330 forward 7 unknown #
coedge $-1 $189 $184 $328 $331 reversed $110 $-1 #
vertex $-1 $185 $332 #
straight-curve $-1 -25.323937604437496 43.87313809814421 10.650064336533642 -1 0 0 I I #
coedge $-1 $333 $186 $189 $269 forward $180 $-1 #
coedge $-1 $186 $333 $258 $326 forward $180 $-1 #
vertex $-1 $187 $334 #
straight-curve $-1 -37.237399027631881 42.80700456338495 16.113774683972778 0 1 0 I I #
straight-curve $-1 -37.237399027631881 -12.529080170412826 77.867612348205284 0 -0.64278759981090561 0.7660444514056185 I I #
edge $-1 $190 37.237399027631881 $335 64.058351390118105 $189 $336 forward 7 unknown #
point $-1 -37.237399027631881 43.87313809814421 16.113774683972782 #
point $-1 -37.237399027631881 43.87313809814421 10.650064336533646 #
edge $-1 $337 1 $337 0 $193 $-1 forward 7 unknown #
vertex $-1 $194 $338 #
ellipse-curve $-1 -56.395222143693466 40.806729443532923 12.732364073230043 0 0.7660444514056185 0.64278759981090561 1 0 0 1 I I #
point $-1 -55.395222143693466 41.580839489461532 13.381919510253228 #
edge $-1 $339 1 $339 0 $197 $-1 forward 7 unknown #
vertex $-1 $198 $340 #
ellipse-curve $-1 -44.900528274056512 40.806729443532923 12.732364073230043 0 0.7660444514056185 0.64278759981090561 1 0 0 1 I I #
point $-1 -43.900528274056512 41.580839489461532 13.381919510253228 #
plane-surface $-1 0 0 16.113774683972782 0 0 1 1 0 0 forward_v I I I I #
coedge $-1 $291 $290 $283 $341 forward $202 $-1 #
coedge $-1 $283 $204 $206 $287 reversed $132 $-1 #
coedge $-1 $204 $282 $281 $341 reversed $132 $-1 #
coedge $-1 $212 $207 $204 $285 forward $213 $-1 #
edge $-1 $288 -36.882059985513408 $342 -26.408882969279347 $284 $343 forward 7 unknown #
coedge $-1 $206 $205 $291 $344 reversed $83 $-1 #
edge $-1 $345 0 $288 15.963772626622688 $282 $346 forward 7 unknown #
vertex $-1 $208 $347 #
straight-curve $-1 13.522657746027441 -33.399961081910142 16.113774683972782 -1 0 0 I I #
coedge $-1 $281 $209 $212 $295 reversed $202 $-1 #
coedge $-1 $209 $281 $286 $344 forward $202 $-1 #
vertex $-1 $210 $348 #
straight-curve $-1 38.501608255543488 -43.87313809814421 44.058940407865308 0 0 1 I I #
straight-curve $-1 38.501608255543488 -43.87313809814421 4.0657624138456328 0 -0.65605901945558964 -0.75470958851134928 I I #
edge $-1 $342 15.589022728566277 $214 38.501608255543488 $290 $349 forward 7 unknown #
point $-1 38.501608255543488 -43.87313809814421 16.113774683972782 #
point $-1 38.501608255543488 -33.399961081910149 16.113774683972782 #
edge $-1 $350 1 $350 0 $217 $-1 forward 7 unknown #
vertex $-1 $218 $351 #
ellipse-curve $-1 20.171539833961717 -32.696991807900254 4.9265898721572974 0 -0.75470958851134928 0.65605901945558964 2 0 0 1 I I #
point $-1 22.171539833961717 -38.636549590027172 10.0897685489092 #
edge $-1 $352 1 $352 0 $221 $-1 forward 7 unknown #
vertex $-1 $222 $353 #
ellipse-curve $-1 27.045315492054883 -32.696991807900254 4.9265898721572974 0 -0.75470958851134928 0.65605901945558964 2 0 0 1 I I #
point $-1 29.045315492054883 -38.636549590027172 10.0897685489092 #
edge $-1 $354 1 $354 0 $225 $-1 forward 7 unknown #
vertex $-1 $226 $355 #
ellipse-curve $-1 33.919091150148049 -32.696991807900254 4.9265898721572974 0 -0.75470958851134928 0.65605901945558964 2 0 0 1 I I #
point $-1 35.919091150148049 -38.636549590027172 10.0897685489092 #
plane-surface $-1 64.058351390118105 0 0 -1 0 0 0 0 1 forward_v I I I I #
coedge $-1 $234 $232 $236 $315 reversed $161 $-1 #
edge $-1 $247 -16.113774683972782 $317 16.113774683972782 $246 $356 forward 7 unknown #
vertex $-1 $315 $357 #
straight-curve $-1 -64.058351390118105 -43.87313809814421 0 0 0 -1 I I #
edge $-1 $313 -43.87313809814421 $317 43.87313809814421 $311 $358 forward 7 unknown #
straight-curve $-1 0 -43.87313809814421 -16.113774683972782 -1 0 0 I I #
vertex $-1 $239 $359 #
straight-curve $-1 0 43.87313809814421 -16.113774683972782 1 0 0 I I #
point $-1 64.058351390118105 43.87313809814421 -16.113774683972782 #
point $-1 64.058351390118105 -43.87313809814421 -16.113774683972782 #
straight-curve $-1 -64.058351390118105 0 16.113774683972782 0 -1 0 I I #
point $-1 -64.058351390118105 43.87313809814421 16.113774683972782 #
point $-1 -64.058351390118105 -43.87313809814421 16.113774683972782 #
straight-curve $-1 64.058351390118105 -43.87313809814421 0 0 0 -1 I I #
straight-curve $-1 64.058351390118105 43.87313809814421 0 0 0 -1 I I #
edge $-1 $329 -38.734413785680609 $266 -11.913461423194384 $265 $360 forward 7 unknown #
coedge $-1 $328 $259 $333 $361 reversed $256 $-1 #
coedge $-1 $259 $327 $261 $331 forward $256 $-1 #
vertex $-1 $260 $362 #
straight-curve $-1 -64.058351390118105 9.2304338079050829 51.93563271251066 0 -0.64278759981090572 0.76604445140561861 I I #
edge $-1 $335 -16.113774683972782 $262 -10.650064336533644 $261 $363 forward 7 unknown #
point $-1 -64.058351390118105 43.87313809814421 10.650064336533644 #
coedge $-1 $265 $264 $327 $361 forward $180 $-1 #
point $-1 -37.237399027631881 39.288540880778797 16.113774683972771 #
vertex $-1 $269 $364 #
straight-curve $-1 0 43.87313809814421 16.113774683972782 -1 0 0 I I #
vertex $-1 $272 $365 #
point $-1 -55.395222143693466 40.806729443532923 12.732364073230043 #
vertex $-1 $276 $366 #
point $-1 -43.900528274056512 40.806729443532923 12.732364073230043 #
edge $-1 $342 27.945165723892526 $345 39.993177994019675 $281 $367 forward 7 unknown #
vertex $-1 $295 $368 #
straight-curve $-1 15.589022728566277 -70.282021067423557 16.113774683972785 0 -1 0 I I #
edge $-1 $345 2.0663649825388362 $292 24.978950509516046 $291 $369 forward 7 unknown #
vertex $-1 $344 $370 #
straight-curve $-1 15.589022728566277 -43.87313809814421 4.0657624138456328 0 0.65605901945558964 0.75470958851134928 I I #
point $-1 15.589022728566277 -33.399961081910149 16.113774683972782 #
point $-1 38.501608255543488 -43.87313809814421 4.0657624138456328 #
straight-curve $-1 0 -43.87313809814421 16.113774683972782 1 0 0 I I #
vertex $-1 $298 $371 #
point $-1 22.171539833961717 -32.696991807900254 4.9265898721572974 #
vertex $-1 $302 $372 #
point $-1 29.045315492054883 -32.696991807900254 4.9265898721572974 #
vertex $-1 $306 $373 #
point $-1 35.919091150148049 -32.696991807900254 4.9265898721572974 #
straight-curve $-1 -64.058351390118105 43.87313809814421 0 0 0 -1 I I #
point $-1 -64.058351390118105 -43.87313809814421 -16.113774683972782 #
straight-curve $-1 -64.058351390118105 0 -16.113774683972782 0 1 0 I I #
point $-1 -64.058351390118105 43.87313809814421 -16.113774683972782 #
straight-curve $-1 -25.323937604437496 39.28854088077879 16.113774683972785 1 0 0 I I #
edge $-1 $335 -43.87313809814421 $329 -39.288540880778797 $327 $374 forward 7 unknown #
point $-1 -64.058351390118105 39.288540880778797 16.113774683972771 #
straight-curve $-1 -64.058351390118105 43.87313809814421 0 0 0 -1 I I #
point $-1 -64.058351390118105 43.87313809814421 16.113774683972782 #
point $-1 -56.395222143693466 40.040684992127304 12.089576473419138 #
point $-1 -44.900528274056512 40.040684992127304 12.089576473419138 #
straight-curve $-1 15.589022728566277 -43.87313809814421 44.058940407865308 0 0 -1 I I #
point $-1 15.589022728566277 -43.87313809814421 16.113774683972782 #
straight-curve $-1 13.522657746027441 -43.87313809814421 4.0657624138456363 1 0 0 I I #
point $-1 15.589022728566277 -43.87313809814421 4.0657624138456328 #
point $-1 20.171539833961717 -31.187572630877558 3.6144718332461179 #
point $-1 27.045315492054883 -31.187572630877558 3.6144718332461179 #
point $-1 33.919091150148049 -31.187572630877558 3.6144718332461179 #
straight-curve $-1 -64.058351390118105 0 16.113774683972782 0 -1 0 I I #
End-of-ACIS-data 