500 0 6 0           
7 Unknown 11 ACIS 5.0 NT 24 Thu Mar 25 16:54:27 1999 
-1 9.9999999999999995e-007 1e-010 
body $-1 $6 $-1 $7 #
body $-1 $8 $-1 $9 #
body $-1 $10 $-1 $11 #
body $-1 $12 $-1 $13 #
body $-1 $14 $-1 $15 #
body $-1 $16 $-1 $17 #
lump $-1 $-1 $18 $0 #
transform $-1 1 0 0 0 1 0 0 0 1 48.005615405743583 25.10453269402506 6.3186163528599959 1 rotate no_reflect no_shear #
lump $-1 $-1 $19 $1 #
transform $-1 1 0 0 0 1 0 0 0 1 48.005615405743583 25.10453269402506 6.3186163528599959 1 rotate no_reflect no_shear #
lump $-1 $-1 $20 $2 #
transform $-1 1 0 0 0 1 0 0 0 1 48.005615405743583 25.10453269402506 6.3186163528599959 1 rotate no_reflect no_shear #
lump $-1 $-1 $21 $3 #
transform $-1 1 0 0 0 1 0 0 0 1 48.005615405743583 25.10453269402506 6.3186163528599959 1 rotate no_reflect no_shear #
lump $-1 $-1 $22 $4 #
transform $-1 1 0 0 0 1 0 0 0 1 48.005615405743583 25.10453269402506 6.3186163528599959 1 rotate no_reflect no_shear #
lump $-1 $-1 $23 $5 #
transform $-1 1 0 0 0 1 0 0 0 1 48.005615405743583 25.10453269402506 6.3186163528599959 1 rotate no_reflect no_shear #
shell $-1 $-1 $-1 $24 $-1 $6 #
shell $-1 $-1 $-1 $25 $-1 $8 #
shell $-1 $-1 $-1 $26 $-1 $10 #
shell $-1 $-1 $-1 $27 $-1 $12 #
shell $-1 $-1 $-1 $28 $-1 $14 #
shell $-1 $-1 $-1 $29 $-1 $16 #
face $-1 $30 $31 $18 $-1 $32 forward single #
face $-1 $33 $34 $19 $-1 $35 forward single #
face $-1 $36 $37 $20 $-1 $38 reversed single #
face $-1 $39 $40 $21 $-1 $41 forward single #
face $-1 $42 $43 $22 $-1 $44 reversed single #
face $-1 $45 $46 $23 $-1 $47 forward single #
face $-1 $48 $49 $18 $-1 $50 reversed single #
loop $-1 $-1 $51 $24 #
plane-surface $-1 0 0 6.3186163528599959 0 0 1 1 0 0 forward_v I I I I #
face $-1 $52 $53 $19 $-1 $54 forward single #
loop $-1 $-1 $55 $25 #
plane-surface $-1 0 -25.10453269402506 0 0 1 0 0 0 1 forward_v I I I I #
face $-1 $56 $57 $20 $-1 $58 reversed single #
loop $-1 $-1 $59 $26 #
plane-surface $-1 83.148166960317127 9.5985600525964063 131.62168981115224 0 -1 0 -0.86602541151947299 0 -0.49999998660252726 forward_v I I I I #
face $-1 $60 $61 $21 $-1 $62 forward single #
loop $-1 $63 $64 $27 #
cone-surface $-1 44.822651240552176 3.5969984899302254 2.5306956861938414 -0.86602541151947299 0 -0.49999998660252726 0.74999997990379086 0 -1.2990381172792094 1 I I 0 1 1.5 forward I I I I #
face $-1 $65 $66 $22 $-1 $67 reversed single #
loop $-1 $-1 $68 $28 #
plane-surface $-1 -131.15378107975286 -2.4045630727359484 48.473524137142974 0 1 0 -0.86602541151947299 0 0.49999998660252726 forward_v I I I I #
face $-1 $69 $70 $23 $-1 $71 forward single #
loop $-1 $72 $73 $29 #
cone-surface $-1 -44.822651240552176 3.5969984899302254 2.5306956861938539 0.86602541151947299 0 -0.49999998660252726 0.74999997990379086 0 1.2990381172792094 1 I I 0 1 1.5 forward I I I I #
face $-1 $74 $75 $18 $-1 $76 reversed single #
loop $-1 $-1 $77 $30 #
plane-surface $-1 0 0 -6.3186163528599959 0 0 1 1 0 0 forward_v I I I I #
coedge $-1 $78 $79 $80 $81 forward $31 $-1 #
face $-1 $82 $83 $19 $-1 $84 reversed single #
loop $-1 $-1 $85 $33 #
plane-surface $-1 0 0 6.3186163528599959 0 0 1 1 0 0 forward_v I I I I #
coedge $-1 $86 $87 $88 $89 forward $34 $-1 #
face $-1 $90 $91 $20 $-1 $92 reversed single #
loop $-1 $-1 $93 $36 #
plane-surface $-1 1.2863078495684022e-006 3.596998489930229 83.616075691716503 0.86602541151947299 0 0.49999998660252726 0.49999998660252726 0 -0.86602541151947299 forward_v I I I I #
coedge $-1 $94 $95 $96 $97 reversed $37 $-1 #
face $-1 $-1 $98 $21 $-1 $99 forward single #
loop $-1 $100 $101 $39 #
cone-surface $-1 42.679121395155562 3.5969984899302254 1.2931281971521802 -0.86602541151947299 0 -0.49999998660252726 0.37499998995189543 0 -0.64951905863960469 1 I I -0.70710678118654757 0.70710678118654757 0.75 forward I I I I #
loop $-1 $-1 $102 $27 #
coedge $-1 $64 $64 $103 $104 reversed $40 $-1 #
face $-1 $105 $106 $22 $-1 $107 reversed single #
loop $-1 $-1 $108 $42 #
plane-surface $-1 -48.005615405743583 3.596998489930229 0.46791001770723994 -0.86602541151947299 0 0.49999998660252726 0.49999998660252726 0 0.86602541151947299 forward_v I I I I #
coedge $-1 $109 $110 $111 $112 reversed $43 $-1 #
face $-1 $-1 $113 $23 $-1 $114 forward single #
loop $-1 $115 $116 $45 #
cone-surface $-1 -42.679121395155562 3.5969984899302254 1.2931281971521926 0.86602541151947299 0 -0.49999998660252726 0.37499998995189543 0 0.64951905863960469 1 I I -0.70710678118654757 0.70710678118654757 0.75 forward I I I I #
loop $-1 $-1 $117 $29 #
coedge $-1 $73 $73 $118 $119 reversed $46 $-1 #
face $-1 $120 $121 $18 $-1 $122 reversed single #
loop $-1 $-1 $123 $48 #
plane-surface $-1 0 -25.10453269402506 0 0 1 0 0 0 1 forward_v I I I I #
coedge $-1 $124 $125 $126 $127 forward $49 $-1 #
coedge $-1 $128 $51 $129 $130 forward $31 $-1 #
coedge $-1 $51 $128 $131 $132 forward $31 $-1 #
coedge $-1 $133 $134 $51 $81 reversed $135 $-1 #
edge $-1 $136 -25.10453269402506 $137 25.10453269402506 $80 $138 forward 7 unknown #
face $-1 $139 $140 $19 $-1 $141 reversed single #
loop $-1 $-1 $142 $52 #
plane-surface $-1 -48.005615405743583 0 0 1 0 0 0 0 -1 forward_v I I I I #
coedge $-1 $143 $144 $87 $145 forward $53 $-1 #
coedge $-1 $146 $55 $147 $148 reversed $34 $-1 #
coedge $-1 $55 $146 $85 $145 reversed $34 $-1 #
coedge $-1 $149 $150 $55 $89 reversed $151 $-1 #
edge $-1 $152 -6.3186163528599959 $153 6.3186163528599959 $88 $154 forward 7 unknown #
face $-1 $155 $156 $20 $-1 $157 forward single #
loop $-1 $-1 $158 $56 #
plane-surface $-1 83.148166960317127 -2.4045630727359484 131.62168981115224 0 1 0 0.86602541151947299 0 0.49999998660252726 forward_v I I I I #
coedge $-1 $159 $160 $161 $162 reversed $57 $-1 #
coedge $-1 $95 $59 $163 $164 reversed $37 $-1 #
coedge $-1 $59 $94 $159 $165 reversed $37 $-1 #
coedge $-1 $161 $166 $59 $97 forward $156 $-1 #
edge $-1 $167 -6.4315319255850198 $168 -3.0536251687162306 $96 $169 forward 7 unknown #
loop $-1 $-1 $103 $60 #
plane-surface $-1 1.2863078495684022e-006 3.596998489930229 83.616075691716503 0.86602541151947299 0 0.49999998660252726 0.49999998660252726 0 -0.86602541151947299 forward_v I I I I #
loop $-1 $-1 $170 $39 #
coedge $-1 $101 $101 $102 $171 reversed $61 $-1 #
coedge $-1 $102 $102 $101 $171 forward $63 $-1 #
coedge $-1 $103 $103 $64 $104 forward $98 $-1 #
edge $-1 $172 0 $172 6.2831853071796004 $103 $173 forward 7 unknown #
face $-1 $174 $175 $22 $-1 $176 reversed single #
loop $-1 $-1 $177 $65 #
plane-surface $-1 -131.15378107975286 9.5985600525964063 48.473524137142974 0 -1 0 0.86602541151947299 0 -0.49999998660252726 forward_v I I I I #
coedge $-1 $178 $179 $180 $181 reversed $66 $-1 #
coedge $-1 $110 $68 $182 $183 reversed $43 $-1 #
coedge $-1 $68 $109 $178 $184 reversed $43 $-1 #
coedge $-1 $180 $185 $68 $112 forward $186 $-1 #
edge $-1 $187 17.571275134132847 $188 20.949181891001636 $111 $189 forward 7 unknown #
loop $-1 $-1 $118 $69 #
plane-surface $-1 -48.005615405743583 3.596998489930229 0.46791001770723994 -0.86602541151947299 0 0.49999998660252726 0.49999998660252726 0 0.86602541151947299 forward_v I I I I #
loop $-1 $-1 $190 $45 #
coedge $-1 $116 $116 $117 $191 reversed $70 $-1 #
coedge $-1 $117 $117 $116 $191 forward $72 $-1 #
coedge $-1 $118 $118 $73 $119 forward $113 $-1 #
edge $-1 $192 0 $192 6.2831853071796004 $118 $193 forward 7 unknown #
face $-1 $194 $195 $18 $-1 $196 reversed single #
loop $-1 $-1 $197 $74 #
plane-surface $-1 -48.005615405743583 0 0 1 0 0 0 0 -1 forward_v I I I I #
coedge $-1 $198 $131 $199 $200 forward $75 $-1 #
coedge $-1 $201 $77 $198 $202 forward $49 $-1 #
coedge $-1 $77 $201 $203 $204 forward $49 $-1 #
coedge $-1 $134 $133 $77 $127 reversed $135 $-1 #
edge $-1 $205 -25.10453269402506 $206 25.10453269402506 $126 $207 forward 7 unknown #
coedge $-1 $79 $78 $208 $209 forward $31 $-1 #
coedge $-1 $210 $211 $78 $130 reversed $195 $-1 #
edge $-1 $137 -48.005615405743583 $212 48.005615405743583 $129 $213 forward 7 unknown #
coedge $-1 $123 $214 $79 $132 reversed $75 $-1 #
edge $-1 $215 -48.005615405743583 $136 48.005615405743583 $131 $216 forward 7 unknown #
coedge $-1 $126 $80 $214 $217 forward $135 $-1 #
coedge $-1 $80 $126 $210 $218 reversed $135 $-1 #
loop $-1 $-1 $133 $194 #
vertex $-1 $81 $219 #
vertex $-1 $81 $220 #
straight-curve $-1 48.005615405743583 0 6.3186163528599959 0 1 0 I I #
face $-1 $221 $151 $19 $-1 $222 reversed single #
loop $-1 $-1 $223 $82 #
plane-surface $-1 -46.505615405743583 -29.860138526204935 0 0 1 0 0 0 1 forward_v I I I I #
coedge $-1 $224 $225 $146 $226 forward $83 $-1 #
coedge $-1 $227 $85 $225 $228 forward $53 $-1 #
coedge $-1 $85 $227 $149 $229 forward $53 $-1 #
edge $-1 $152 45.005615405743583 $230 48.005615405743583 $85 $231 forward 7 unknown #
coedge $-1 $87 $86 $142 $226 reversed $34 $-1 #
coedge $-1 $232 $233 $86 $148 forward $234 $-1 #
edge $-1 $235 -48.005615405743583 $153 -45.005615405743583 $147 $236 forward 7 unknown #
coedge $-1 $237 $88 $144 $229 reversed $151 $-1 #
coedge $-1 $88 $237 $232 $238 reversed $151 $-1 #
loop $-1 $-1 $237 $139 #
vertex $-1 $145 $239 #
vertex $-1 $238 $240 #
straight-curve $-1 -45.005615405743583 -25.10453269402506 0 0 0 -1 I I #
face $-1 $-1 $241 $20 $-1 $242 reversed single #
loop $-1 $-1 $96 $90 #
plane-surface $-1 0 0 6.3186163528599959 0 0 1 1 0 0 forward_v I I I I #
coedge $-1 $243 $244 $245 $246 reversed $91 $-1 #
coedge $-1 $247 $93 $95 $165 forward $57 $-1 #
coedge $-1 $93 $247 $243 $248 forward $57 $-1 #
coedge $-1 $245 $96 $93 $162 forward $156 $-1 #
edge $-1 $168 -7.8000608076312918 $249 4.2030623177010629 $161 $250 forward 7 unknown #
coedge $-1 $251 $252 $94 $164 forward $241 $-1 #
edge $-1 $253 -65.342934887868893 $167 -59.492228552716121 $163 $254 forward 7 unknown #
edge $-1 $168 89.255417116727926 $253 96.011230811487152 $95 $255 forward 7 unknown #
coedge $-1 $96 $245 $251 $256 forward $156 $-1 #
vertex $-1 $164 $257 #
vertex $-1 $97 $258 #
straight-curve $-1 41.574083480158563 9.5985600525964063 6.3186163528599977 -1 0 0 I I #
coedge $-1 $170 $170 $-1 $259 reversed $100 $-1 #
edge $-1 $260 0 $260 6.2831853071796004 $101 $261 forward 7 unknown #
vertex $-1 $104 $262 #
ellipse-curve $-1 46.316662027309185 3.5969984899302254 3.3932631852836077 0.86602541151947299 0 0.49999998660252726 0.74999997990379086 0 -1.2990381172792094 1 I I #
face $-1 $-1 $186 $22 $-1 $263 forward single #
loop $-1 $-1 $264 $105 #
plane-surface $-1 -48.005615405743583 0 0 1 0 0 0 0 -1 forward_v I I I I #
coedge $-1 $265 $266 $267 $268 reversed $106 $-1 #
coedge $-1 $269 $108 $110 $184 forward $66 $-1 #
coedge $-1 $108 $269 $265 $270 forward $66 $-1 #
coedge $-1 $267 $111 $108 $181 forward $186 $-1 #
edge $-1 $188 -4.2030623177010629 $271 7.8000608076312918 $180 $272 forward 7 unknown #
coedge $-1 $273 $274 $109 $183 forward $175 $-1 #
edge $-1 $275 -23.768852050864247 $187 -17.918145715711489 $182 $276 forward 7 unknown #
edge $-1 $188 -6.755813694759234 $275 0 $110 $277 forward 7 unknown #
coedge $-1 $111 $267 $273 $278 forward $186 $-1 #
loop $-1 $-1 $267 $174 #
vertex $-1 $183 $279 #
vertex $-1 $112 $280 #
straight-curve $-1 -65.57689053987643 -2.4045630727359484 6.3186163528599941 1 0 0 I I #
coedge $-1 $190 $190 $-1 $281 reversed $115 $-1 #
edge $-1 $282 0 $282 6.2831853071796004 $116 $283 forward 7 unknown #
vertex $-1 $119 $284 #
ellipse-curve $-1 -46.316662027309192 3.5969984899302254 3.3932631852836201 -0.86602541151947299 0 0.49999998660252726 0.74999997990379086 0 1.2990381172792094 1 I I #
face $-1 $-1 $135 $18 $-1 $285 reversed single #
loop $-1 $-1 $210 $120 #
plane-surface $-1 0 25.10453269402506 0 0 -1 0 0 0 -1 forward_v I I I I #
coedge $-1 $286 $208 $211 $287 forward $121 $-1 #
coedge $-1 $214 $123 $124 $202 reversed $75 $-1 #
coedge $-1 $208 $286 $123 $200 reversed $121 $-1 #
edge $-1 $215 -6.3186163528599959 $288 6.3186163528599959 $199 $289 forward 7 unknown #
coedge $-1 $125 $124 $286 $290 forward $49 $-1 #
edge $-1 $206 -48.005615405743583 $288 48.005615405743583 $198 $291 forward 7 unknown #
coedge $-1 $211 $210 $125 $204 reversed $195 $-1 #
edge $-1 $292 -48.005615405743583 $205 48.005615405743583 $203 $293 forward 7 unknown #
vertex $-1 $127 $294 #
vertex $-1 $217 $295 #
straight-curve $-1 48.005615405743583 0 -6.3186163528599959 0 -1 0 I I #
coedge $-1 $197 $199 $128 $209 reversed $121 $-1 #
edge $-1 $212 -25.10453269402506 $215 25.10453269402506 $208 $296 forward 7 unknown #
coedge $-1 $203 $129 $134 $218 forward $195 $-1 #
coedge $-1 $129 $203 $197 $287 reversed $195 $-1 #
vertex $-1 $130 $297 #
straight-curve $-1 0 25.10453269402506 6.3186163528599959 -1 0 0 I I #
coedge $-1 $131 $198 $133 $217 reversed $75 $-1 #
vertex $-1 $209 $298 #
straight-curve $-1 0 -25.10453269402506 6.3186163528599959 1 0 0 I I #
edge $-1 $136 -6.3186163528599959 $206 6.3186163528599959 $133 $299 forward 7 unknown #
edge $-1 $137 -6.3186163528599959 $205 6.3186163528599959 $134 $300 forward 7 unknown #
point $-1 48.005615405743583 -25.10453269402506 6.3186163528599959 #
point $-1 48.005615405743583 25.10453269402506 6.3186163528599959 #
face $-1 $-1 $234 $19 $-1 $301 reversed single #
plane-surface $-1 -45.005615405743583 -27.482335610114998 0 -1 0 0 0 0 1 forward_v I I I I #
coedge $-1 $302 $303 $304 $305 forward $140 $-1 #
coedge $-1 $304 $142 $233 $306 reversed $83 $-1 #
coedge $-1 $142 $304 $143 $228 reversed $83 $-1 #
edge $-1 $230 -6.3186163528599959 $235 6.3186163528599959 $142 $307 forward 7 unknown #
coedge $-1 $144 $143 $303 $308 forward $53 $-1 #
edge $-1 $230 25.10453269402506 $309 29.860138526204935 $225 $310 forward 7 unknown #
edge $-1 $311 -2.3778029160899372 $152 2.3778029160899372 $149 $312 forward 7 unknown #
vertex $-1 $228 $313 #
straight-curve $-1 0 -25.10453269402506 6.3186163528599959 -1 0 0 I I #
coedge $-1 $314 $147 $150 $238 forward $234 $-1 #
coedge $-1 $147 $314 $224 $306 forward $234 $-1 #
loop $-1 $-1 $147 $221 #
vertex $-1 $226 $315 #
straight-curve $-1 0 -25.10453269402506 -6.3186163528599959 1 0 0 I I #
coedge $-1 $150 $149 $316 $317 forward $151 $-1 #
edge $-1 $153 -2.3778029160899372 $318 2.3778029160899372 $150 $319 forward 7 unknown #
point $-1 -45.005615405743583 -25.10453269402506 6.3186163528599959 #
point $-1 -45.005615405743583 -25.10453269402506 -6.3186163528599959 #
loop $-1 $-1 $163 $155 #
plane-surface $-1 48.005615405743583 0 0 -1 0 0 0 0 1 forward_v I I I I #
coedge $-1 $244 $158 $160 $248 reversed $91 $-1 #
coedge $-1 $158 $243 $320 $321 reversed $91 $-1 #
coedge $-1 $166 $161 $158 $246 forward $156 $-1 #
edge $-1 $249 3.0536251687162306 $322 6.4315319255850198 $245 $323 forward 7 unknown #
coedge $-1 $160 $159 $252 $324 reversed $57 $-1 #
edge $-1 $325 -96.011230811487152 $249 -89.255417116727926 $243 $326 forward 7 unknown #
vertex $-1 $162 $327 #
straight-curve $-1 44.627708648874787 1.7984992449651145 6.3186163528599977 0 -1 0 I I #
coedge $-1 $320 $163 $166 $256 reversed $241 $-1 #
coedge $-1 $163 $320 $247 $324 forward $241 $-1 #
vertex $-1 $164 $328 #
straight-curve $-1 48.005615405743583 9.5985600525964063 65.810844905576118 0 0 1 I I #
straight-curve $-1 1.2863078495684022e-006 9.5985600525964063 83.616075691716503 0.49999998660252726 0 -0.86602541151947299 I I #
edge $-1 $322 -2.4045630727359484 $167 9.5985600525964063 $251 $329 forward 7 unknown #
point $-1 48.005615405743583 9.5985600525964063 6.3186163528599959 #
point $-1 44.627708648874794 9.5985600525964063 6.3186163528599906 #
edge $-1 $330 1 $330 0 $170 $-1 forward 7 unknown #
vertex $-1 $171 $331 #
ellipse-curve $-1 43.328640453795167 3.5969984899302254 1.6681281871040756 0.86602541151947299 0 0.49999998660252726 0.74999997990379086 0 -1.2990381172792094 1 I I #
point $-1 47.066662007212983 3.5969984899302254 2.0942250680043979 #
plane-surface $-1 0 0 6.3186163528599959 0 0 1 1 0 0 forward_v I I I I #
coedge $-1 $274 $273 $266 $332 forward $175 $-1 #
coedge $-1 $266 $177 $179 $270 reversed $106 $-1 #
coedge $-1 $177 $265 $264 $332 reversed $106 $-1 #
coedge $-1 $185 $180 $177 $268 forward $186 $-1 #
edge $-1 $271 -20.949181891001636 $333 -17.571275134132847 $267 $334 forward 7 unknown #
coedge $-1 $179 $178 $274 $335 reversed $66 $-1 #
edge $-1 $336 0 $271 6.755813694759234 $265 $337 forward 7 unknown #
vertex $-1 $181 $338 #
straight-curve $-1 -44.627708648874794 1.7984992449651145 6.3186163528599959 0 1 0 I I #
coedge $-1 $264 $182 $185 $278 reversed $175 $-1 #
coedge $-1 $182 $264 $269 $335 forward $175 $-1 #
vertex $-1 $183 $339 #
straight-curve $-1 -48.005615405743583 -2.4045630727359484 24.236762068571487 0 0 1 I I #
straight-curve $-1 -48.005615405743583 -2.4045630727359484 0.46791001770723994 -0.49999998660252726 0 -0.86602541151947299 I I #
edge $-1 $333 -9.5985600525964063 $187 2.4045630727359484 $273 $340 forward 7 unknown #
point $-1 -48.005615405743583 -2.4045630727359484 6.3186163528599959 #
point $-1 -44.627708648874794 -2.4045630727359484 6.3186163528599959 #
edge $-1 $341 1 $341 0 $190 $-1 forward 7 unknown #
vertex $-1 $191 $342 #
ellipse-curve $-1 -43.328640453795167 3.5969984899302254 1.6681281871040881 -0.86602541151947299 0 0.49999998660252726 0.74999997990379086 0 1.2990381172792094 1 I I #
point $-1 -45.566662047405401 3.5969984899302254 4.6923013025628286 #
plane-surface $-1 48.005615405743583 0 0 -1 0 0 0 0 1 forward_v I I I I #
coedge $-1 $199 $197 $201 $290 reversed $121 $-1 #
edge $-1 $212 -6.3186163528599959 $292 6.3186163528599959 $211 $343 forward 7 unknown #
vertex $-1 $290 $344 #
straight-curve $-1 -48.005615405743583 -25.10453269402506 0 0 0 -1 I I #
edge $-1 $288 -25.10453269402506 $292 25.10453269402506 $286 $345 forward 7 unknown #
straight-curve $-1 0 -25.10453269402506 -6.3186163528599959 -1 0 0 I I #
vertex $-1 $204 $346 #
straight-curve $-1 0 25.10453269402506 -6.3186163528599959 1 0 0 I I #
point $-1 48.005615405743583 25.10453269402506 -6.3186163528599959 #
point $-1 48.005615405743583 -25.10453269402506 -6.3186163528599959 #
straight-curve $-1 -48.005615405743583 0 6.3186163528599959 0 -1 0 I I #
point $-1 -48.005615405743583 25.10453269402506 6.3186163528599959 #
point $-1 -48.005615405743583 -25.10453269402506 6.3186163528599959 #
straight-curve $-1 48.005615405743583 -25.10453269402506 0 0 0 -1 I I #
straight-curve $-1 48.005615405743583 25.10453269402506 0 0 0 -1 I I #
plane-surface $-1 0 0 -6.3186163528599959 0 0 1 1 0 0 forward_v I I I I #
coedge $-1 $316 $223 $314 $347 reversed $140 $-1 #
coedge $-1 $223 $316 $227 $308 reversed $140 $-1 #
coedge $-1 $225 $224 $223 $305 reversed $83 $-1 #
edge $-1 $309 -6.3186163528599959 $348 6.3186163528599959 $304 $349 forward 7 unknown #
edge $-1 $348 -29.860138526204935 $235 -25.10453269402506 $224 $350 forward 7 unknown #
straight-curve $-1 -48.005615405743583 -25.10453269402506 0 0 0 -1 I I #
edge $-1 $309 -1.5 $311 1.5 $303 $351 forward 7 unknown #
vertex $-1 $228 $352 #
straight-curve $-1 -48.005615405743583 0 6.3186163528599959 0 -1 0 I I #
vertex $-1 $229 $353 #
straight-curve $-1 -45.005615405743583 -27.482335610114998 6.3186163528599959 0 1 0 I I #
point $-1 -48.005615405743583 -25.10453269402506 6.3186163528599959 #
coedge $-1 $233 $232 $302 $347 forward $234 $-1 #
point $-1 -48.005615405743583 -25.10453269402506 -6.3186163528599959 #
coedge $-1 $303 $302 $237 $317 reversed $140 $-1 #
edge $-1 $311 -6.3186163528599959 $318 6.3186163528599959 $237 $354 forward 7 unknown #
vertex $-1 $317 $355 #
straight-curve $-1 -45.005615405743583 -27.482335610114998 -6.3186163528599959 0 -1 0 I I #
coedge $-1 $252 $251 $244 $321 forward $241 $-1 #
edge $-1 $322 59.492228552716121 $325 65.342934887868893 $320 $356 forward 7 unknown #
vertex $-1 $256 $357 #
straight-curve $-1 41.574083480158563 -2.4045630727359484 6.3186163528599977 1 0 0 I I #
edge $-1 $325 -4.2030623177010629 $253 7.8000608076312918 $252 $358 forward 7 unknown #
vertex $-1 $324 $359 #
straight-curve $-1 1.2863078495684022e-006 -2.4045630727359484 83.616075691716503 -0.49999998660252726 0 0.86602541151947299 I I #
point $-1 44.627708648874794 -2.4045630727359484 6.3186163528599906 #
point $-1 48.005615405743583 9.5985600525964063 0.46791001770722573 #
straight-curve $-1 48.005615405743583 0 6.3186163528599959 0 1 0 I I #
vertex $-1 $259 $360 #
point $-1 44.078640433698958 3.5969984899302254 0.36909006982486625 #
edge $-1 $333 17.918145715711489 $336 23.768852050864247 $264 $361 forward 7 unknown #
vertex $-1 $278 $362 #
straight-curve $-1 -65.57689053987643 9.5985600525964063 6.3186163528599941 -1 0 0 I I #
edge $-1 $336 -7.8000608076312918 $275 4.2030623177010629 $274 $363 forward 7 unknown #
vertex $-1 $335 $364 #
straight-curve $-1 -48.005615405743583 9.5985600525964063 0.46791001770723994 0.49999998660252726 0 0.86602541151947299 I I #
point $-1 -44.627708648874794 9.5985600525964063 6.3186163528599959 #
point $-1 -48.005615405743583 -2.4045630727359484 0.46791001770723994 #
straight-curve $-1 -48.005615405743583 0 6.3186163528599959 0 -1 0 I I #
vertex $-1 $281 $365 #
point $-1 -42.578640473891376 3.5969984899302254 2.9671663043832974 #
straight-curve $-1 -48.005615405743583 25.10453269402506 0 0 0 -1 I I #
point $-1 -48.005615405743583 -25.10453269402506 -6.3186163528599959 #
straight-curve $-1 -48.005615405743583 0 -6.3186163528599959 0 1 0 I I #
point $-1 -48.005615405743583 25.10453269402506 -6.3186163528599959 #
edge $-1 $318 -1.5 $348 1.5 $302 $366 forward 7 unknown #
vertex $-1 $306 $367 #
straight-curve $-1 -48.005615405743583 -29.860138526204935 0 0 0 -1 I I #
straight-curve $-1 -48.005615405743583 0 -6.3186163528599959 0 1 0 I I #
straight-curve $-1 -46.505615405743583 -29.860138526204935 6.3186163528599959 1 0 0 I I #
point $-1 -48.005615405743583 -29.860138526204935 6.3186163528599959 #
point $-1 -45.005615405743583 -29.860138526204935 6.3186163528599959 #
straight-curve $-1 -45.005615405743583 -29.860138526204935 0 0 0 -1 I I #
point $-1 -45.005615405743583 -29.860138526204935 -6.3186163528599959 #
straight-curve $-1 48.005615405743583 -2.4045630727359484 65.810844905576118 0 0 -1 I I #
point $-1 48.005615405743583 -2.4045630727359484 6.3186163528599959 #
straight-curve $-1 48.005615405743583 1.7984992449651145 0.46791001770722573 0 1 0 I I #
point $-1 48.005615405743583 -2.4045630727359484 0.46791001770722573 #
point $-1 42.029602336515957 3.5969984899302254 0.91812820720028476 #
straight-curve $-1 -48.005615405743583 9.5985600525964063 24.236762068571487 0 0 -1 I I #
point $-1 -48.005615405743583 9.5985600525964063 6.3186163528599959 #
straight-curve $-1 -48.005615405743583 1.7984992449651145 0.46791001770724072 0 -1 0 I I #
point $-1 -48.005615405743583 9.5985600525964063 0.46791001770723994 #
point $-1 -42.029602336515957 3.5969984899302254 0.9181282072002972 #
straight-curve $-1 -46.505615405743583 -29.860138526204935 -6.3186163528599959 -1 0 0 I I #
point $-1 -48.005615405743583 -29.860138526204935 -6.3186163528599959 #
End-of-ACIS-data 