500 0 8 0           
7 Unknown 11 ACIS 5.0 NT 24 Fri Mar 26 19:19:05 1999 
-1 9.9999999999999995e-007 1e-010 
body $-1 $8 $-1 $9 #
body $-1 $10 $-1 $11 #
body $-1 $12 $-1 $13 #
body $-1 $14 $-1 $15 #
body $-1 $16 $-1 $17 #
body $-1 $18 $-1 $19 #
body $-1 $20 $-1 $21 #
body $-1 $22 $-1 $23 #
lump $-1 $-1 $24 $0 #
transform $-1 1 0 0 0 1 0 0 0 1 50.693685720389418 25.505884301036286 9.4883259586621236 1 rotate no_reflect no_shear #
lump $-1 $-1 $25 $1 #
transform $-1 1 0 0 0 1 0 0 0 1 50.693685720389418 25.505884301036286 9.4883259586621236 1 rotate no_reflect no_shear #
lump $-1 $-1 $26 $2 #
transform $-1 1 0 0 0 1 0 0 0 1 50.693685720389418 25.505884301036286 9.4883259586621236 1 rotate no_reflect no_shear #
lump $-1 $-1 $27 $3 #
transform $-1 1 0 0 0 1 0 0 0 1 50.693685720389418 25.505884301036286 9.4883259586621236 1 rotate no_reflect no_shear #
lump $-1 $-1 $28 $4 #
transform $-1 1 0 0 0 1 0 0 0 1 50.693685720389418 25.505884301036286 9.4883259586621236 1 rotate no_reflect no_shear #
lump $-1 $-1 $29 $5 #
transform $-1 1 0 0 0 1 0 0 0 1 50.693685720389418 25.505884301036286 9.4883259586621236 1 rotate no_reflect no_shear #
lump $-1 $-1 $30 $6 #
transform $-1 1 0 0 0 1 0 0 0 1 50.693685720389418 25.505884301036286 9.4883259586621236 1 rotate no_reflect no_shear #
lump $-1 $-1 $31 $7 #
transform $-1 1 0 0 0 1 0 0 0 1 50.693685720389418 25.505884301036286 9.4883259586621236 1 rotate no_reflect no_shear #
shell $-1 $-1 $-1 $32 $-1 $8 #
shell $-1 $-1 $-1 $33 $-1 $10 #
shell $-1 $-1 $-1 $34 $-1 $12 #
shell $-1 $-1 $-1 $35 $-1 $14 #
shell $-1 $-1 $-1 $36 $-1 $16 #
shell $-1 $-1 $-1 $37 $-1 $18 #
shell $-1 $-1 $-1 $38 $-1 $20 #
shell $-1 $-1 $-1 $39 $-1 $22 #
face $-1 $40 $41 $24 $-1 $42 forward single #
face $-1 $43 $44 $25 $-1 $45 forward single #
face $-1 $46 $47 $26 $-1 $48 reversed single #
face $-1 $49 $50 $27 $-1 $51 forward single #
face $-1 $52 $53 $28 $-1 $54 forward single #
face $-1 $55 $56 $29 $-1 $57 reversed single #
face $-1 $58 $59 $30 $-1 $60 forward single #
face $-1 $61 $62 $31 $-1 $63 forward single #
face $-1 $64 $65 $24 $-1 $66 reversed single #
loop $-1 $-1 $67 $32 #
plane-surface $-1 0 0 9.4883259586621236 0 0 1 1 0 0 forward_v I I I I #
face $-1 $68 $69 $25 $-1 $70 reversed single #
loop $-1 $-1 $71 $33 #
plane-surface $-1 0 -20.436056909662334 -2.4709183221470101 0 0 1 1 0 0 forward_v I I I I #
face $-1 $72 $73 $26 $-1 $74 reversed single #
loop $-1 $-1 $75 $34 #
plane-surface $-1 55.697695803875384 -15.366229518288382 144.02295992442521 0 1 0 0.73135370988377701 0 0.68199835119979291 forward_v I I I I #
face $-1 $76 $77 $27 $-1 $78 forward single #
loop $-1 $79 $80 $35 #
cone-surface $-1 45.34396803055521 -12.836292582572856 3.9283206903862111 -0.73135370988377701 0 -0.68199835119979291 0.68199835119979291 0 -0.73135370988377701 1 I I 0 1 1 forward I I I I #
face $-1 $81 $82 $28 $-1 $83 forward single #
loop $-1 $84 $85 $36 #
cone-surface $-1 45.34396803055521 -9.0413871789995675 3.9283206903862111 -0.73135370988377701 0 -0.68199835119979291 0.68199835119979291 0 -0.73135370988377701 1 I I 0 1 1 forward I I I I #
face $-1 $86 $87 $29 $-1 $88 reversed single #
loop $-1 $-1 $89 $37 #
plane-surface $-1 -124.84371595896752 -15.366229518288382 69.872929685847112 0 1 0 -0.73135370988377701 0 0.68199835119979291 forward_v I I I I #
face $-1 $90 $91 $30 $-1 $92 forward single #
loop $-1 $93 $94 $38 #
cone-surface $-1 -45.343968030555217 -12.836292582572856 3.9283206903862111 0.73135370988377701 0 -0.68199835119979291 0.68199835119979291 0 0.73135370988377701 1 I I 0 1 1 forward I I I I #
face $-1 $95 $96 $31 $-1 $97 forward single #
loop $-1 $98 $99 $39 #
cone-surface $-1 -45.343968030555217 -9.0413871789995675 3.9283206903862111 0.73135370988377701 0 -0.68199835119979291 0.68199835119979291 0 0.73135370988377701 1 I I 0 1 1 forward I I I I #
face $-1 $100 $101 $24 $-1 $102 reversed single #
loop $-1 $-1 $103 $40 #
plane-surface $-1 0 0 -9.4883259586621236 0 0 1 1 0 0 forward_v I I I I #
coedge $-1 $104 $105 $106 $107 forward $41 $-1 #
face $-1 $108 $109 $25 $-1 $110 reversed single #
loop $-1 $-1 $111 $43 #
plane-surface $-1 0 -20.436056909662334 -7.4066315691759073 0 0 1 1 0 0 forward_v I I I I #
coedge $-1 $112 $113 $114 $115 reversed $44 $-1 #
face $-1 $116 $117 $26 $-1 $118 reversed single #
loop $-1 $-1 $119 $46 #
plane-surface $-1 -18.452334434702713 -10.938839880786212 74.876939769333077 0.73135370988377701 0 0.68199835119979291 0.68199835119979291 0 -0.73135370988377701 forward_v I I I I #
coedge $-1 $120 $121 $122 $123 reversed $47 $-1 #
face $-1 $-1 $124 $27 $-1 $125 forward single #
loop $-1 $126 $127 $49 #
cone-surface $-1 43.713649884008511 -12.836292582572856 2.4080244604639702 -0.73135370988377701 0 -0.68199835119979291 0.34099917559989645 0 -0.36567685494188851 1 I I -0.70710678118654746 0.70710678118654746 0.5 forward I I I I #
loop $-1 $-1 $128 $35 #
coedge $-1 $80 $80 $129 $130 reversed $50 $-1 #
face $-1 $-1 $131 $28 $-1 $132 forward single #
loop $-1 $133 $134 $52 #
cone-surface $-1 43.713649884008511 -9.0413871789995675 2.4080244604639702 -0.73135370988377701 0 -0.68199835119979291 0.34099917559989645 0 -0.36567685494188851 1 I I -0.70710678118654746 0.70710678118654746 0.5 forward I I I I #
loop $-1 $-1 $135 $36 #
coedge $-1 $85 $85 $136 $137 reversed $53 $-1 #
face $-1 $138 $139 $29 $-1 $140 reversed single #
loop $-1 $-1 $141 $55 #
plane-surface $-1 -50.693685720389425 -10.938839880786212 0.72690953075498044 -0.73135370988377701 0 0.68199835119979291 0.68199835119979291 0 0.73135370988377701 forward_v I I I I #
coedge $-1 $142 $143 $144 $145 reversed $56 $-1 #
face $-1 $-1 $146 $30 $-1 $147 forward single #
loop $-1 $148 $149 $58 #
cone-surface $-1 -43.713649884008518 -12.836292582572856 2.4080244604639702 0.73135370988377701 0 -0.68199835119979291 0.34099917559989645 0 0.36567685494188851 1 I I -0.70710678118654746 0.70710678118654746 0.5 forward I I I I #
loop $-1 $-1 $150 $38 #
coedge $-1 $94 $94 $151 $152 reversed $59 $-1 #
face $-1 $-1 $153 $31 $-1 $154 forward single #
loop $-1 $155 $156 $61 #
cone-surface $-1 -43.713649884008518 -9.0413871789995675 2.4080244604639702 0.73135370988377701 0 -0.68199835119979291 0.34099917559989645 0 0.36567685494188851 1 I I -0.70710678118654746 0.70710678118654746 0.5 forward I I I I #
loop $-1 $-1 $157 $39 #
coedge $-1 $99 $99 $158 $159 reversed $62 $-1 #
face $-1 $160 $161 $24 $-1 $162 reversed single #
loop $-1 $-1 $163 $64 #
plane-surface $-1 0 -25.505884301036286 0 0 1 0 0 0 1 forward_v I I I I #
coedge $-1 $164 $165 $166 $167 forward $65 $-1 #
coedge $-1 $168 $67 $169 $170 forward $41 $-1 #
coedge $-1 $67 $168 $171 $172 forward $41 $-1 #
coedge $-1 $173 $174 $67 $107 reversed $175 $-1 #
edge $-1 $176 -25.505884301036286 $177 25.505884301036286 $106 $178 forward 7 unknown #
face $-1 $179 $180 $25 $-1 $181 reversed single #
loop $-1 $-1 $182 $68 #
plane-surface $-1 0 -15.366229518288382 -4.9387749456614589 0 -1 0 0 0 -1 forward_v I I I I #
coedge $-1 $183 $184 $185 $186 reversed $69 $-1 #
coedge $-1 $187 $71 $188 $189 forward $44 $-1 #
coedge $-1 $71 $187 $190 $191 reversed $44 $-1 #
coedge $-1 $192 $193 $71 $115 forward $194 $-1 #
edge $-1 $195 5.1482010634572148 $196 15.287855846205119 $114 $197 forward 7 unknown #
face $-1 $198 $199 $26 $-1 $200 forward single #
loop $-1 $-1 $201 $72 #
plane-surface $-1 55.697695803875384 -6.5114502432840409 144.02295992442521 0 -1 0 -0.73135370988377701 0 -0.68199835119979291 forward_v I I I I #
coedge $-1 $202 $203 $204 $205 reversed $73 $-1 #
coedge $-1 $121 $75 $206 $207 reversed $47 $-1 #
coedge $-1 $75 $120 $202 $208 reversed $47 $-1 #
coedge $-1 $204 $209 $75 $123 forward $210 $-1 #
edge $-1 $211 62.523154003550481 $212 71.284570431457624 $122 $213 forward 7 unknown #
loop $-1 $-1 $129 $76 #
plane-surface $-1 -18.452334434702713 -10.938839880786212 74.876939769333077 0.73135370988377701 0 0.68199835119979291 0.68199835119979291 0 -0.73135370988377701 forward_v I I I I #
loop $-1 $-1 $214 $49 #
coedge $-1 $127 $127 $128 $215 reversed $77 $-1 #
coedge $-1 $128 $128 $127 $215 forward $79 $-1 #
coedge $-1 $129 $129 $80 $130 forward $124 $-1 #
edge $-1 $216 0 $216 6.2831853071796004 $129 $217 forward 7 unknown #
loop $-1 $-1 $136 $81 #
plane-surface $-1 -18.452334434702713 -10.938839880786212 74.876939769333077 0.73135370988377701 0 0.68199835119979291 0.68199835119979291 0 -0.73135370988377701 forward_v I I I I #
loop $-1 $-1 $218 $52 #
coedge $-1 $134 $134 $135 $219 reversed $82 $-1 #
coedge $-1 $135 $135 $134 $219 forward $84 $-1 #
coedge $-1 $136 $136 $85 $137 forward $131 $-1 #
edge $-1 $220 0 $220 6.2831853071796004 $136 $221 forward 7 unknown #
face $-1 $222 $223 $29 $-1 $224 reversed single #
loop $-1 $-1 $225 $86 #
plane-surface $-1 -124.84371595896752 -6.5114502432840409 69.872929685847112 0 -1 0 0.73135370988377701 0 -0.68199835119979291 forward_v I I I I #
coedge $-1 $226 $227 $228 $229 reversed $87 $-1 #
coedge $-1 $143 $89 $230 $231 reversed $56 $-1 #
coedge $-1 $89 $142 $226 $232 reversed $56 $-1 #
coedge $-1 $228 $233 $89 $145 forward $234 $-1 #
edge $-1 $235 11.728172259094343 $236 19.89832505555313 $144 $237 forward 7 unknown #
loop $-1 $-1 $151 $90 #
plane-surface $-1 -50.693685720389425 -10.938839880786212 0.72690953075498044 -0.73135370988377701 0 0.68199835119979291 0.68199835119979291 0 0.73135370988377701 forward_v I I I I #
loop $-1 $-1 $238 $58 #
coedge $-1 $149 $149 $150 $239 reversed $91 $-1 #
coedge $-1 $150 $150 $149 $239 forward $93 $-1 #
coedge $-1 $151 $151 $94 $152 forward $146 $-1 #
edge $-1 $240 0 $240 6.2831853071796004 $151 $241 forward 7 unknown #
loop $-1 $-1 $158 $95 #
plane-surface $-1 -50.693685720389425 -10.938839880786212 0.72690953075498044 -0.73135370988377701 0 0.68199835119979291 0.68199835119979291 0 0.73135370988377701 forward_v I I I I #
loop $-1 $-1 $242 $61 #
coedge $-1 $156 $156 $157 $243 reversed $96 $-1 #
coedge $-1 $157 $157 $156 $243 forward $98 $-1 #
coedge $-1 $158 $158 $99 $159 forward $153 $-1 #
edge $-1 $244 0 $244 6.2831853071796004 $158 $245 forward 7 unknown #
face $-1 $246 $247 $24 $-1 $248 reversed single #
loop $-1 $-1 $249 $100 #
plane-surface $-1 -50.693685720389418 0 0 1 0 0 0 0 -1 forward_v I I I I #
coedge $-1 $250 $171 $251 $252 forward $101 $-1 #
coedge $-1 $253 $103 $250 $254 forward $65 $-1 #
coedge $-1 $103 $253 $255 $256 forward $65 $-1 #
coedge $-1 $174 $173 $103 $167 reversed $175 $-1 #
edge $-1 $257 -25.505884301036286 $258 25.505884301036286 $166 $259 forward 7 unknown #
coedge $-1 $105 $104 $260 $261 forward $41 $-1 #
coedge $-1 $262 $263 $104 $170 reversed $247 $-1 #
edge $-1 $177 -50.693685720389418 $264 50.693685720389418 $169 $265 forward 7 unknown #
coedge $-1 $163 $266 $105 $172 reversed $101 $-1 #
edge $-1 $267 -50.693685720389418 $176 50.693685720389418 $171 $268 forward 7 unknown #
coedge $-1 $166 $106 $266 $269 forward $175 $-1 #
coedge $-1 $106 $166 $262 $270 reversed $175 $-1 #
loop $-1 $-1 $173 $246 #
vertex $-1 $107 $271 #
vertex $-1 $107 $272 #
straight-curve $-1 50.693685720389418 0 9.4883259586621236 0 1 0 I I #
face $-1 $273 $274 $25 $-1 $275 reversed single #
loop $-1 $-1 $276 $108 #
plane-surface $-1 -50.693685720389418 0 0 1 0 0 0 0 -1 forward_v I I I I #
coedge $-1 $277 $188 $193 $278 reversed $109 $-1 #
coedge $-1 $279 $111 $280 $281 reversed $69 $-1 #
coedge $-1 $111 $279 $277 $282 forward $69 $-1 #
coedge $-1 $193 $192 $111 $186 forward $194 $-1 #
edge $-1 $283 -15.287855846205119 $284 -5.1482010634572148 $185 $285 forward 7 unknown #
coedge $-1 $113 $112 $276 $286 reversed $44 $-1 #
coedge $-1 $182 $287 $112 $189 reversed $109 $-1 #
edge $-1 $195 -50.693685720389418 $288 50.693685720389418 $188 $289 forward 7 unknown #
coedge $-1 $290 $291 $113 $191 forward $274 $-1 #
edge $-1 $196 -50.693685720389418 $292 50.693685720389418 $190 $293 forward 7 unknown #
coedge $-1 $185 $114 $291 $294 forward $194 $-1 #
coedge $-1 $114 $185 $182 $278 forward $194 $-1 #
loop $-1 $-1 $114 $273 #
vertex $-1 $115 $295 #
vertex $-1 $294 $296 #
straight-curve $-1 50.693685720389418 -10.218028454831167 -2.4709183221470101 0 -1 0 I I #
face $-1 $-1 $210 $26 $-1 $297 reversed single #
loop $-1 $-1 $298 $116 #
plane-surface $-1 0 0 9.4883259586621236 0 0 1 1 0 0 forward_v I I I I #
coedge $-1 $299 $300 $301 $302 reversed $117 $-1 #
coedge $-1 $303 $119 $121 $208 forward $73 $-1 #
coedge $-1 $119 $303 $299 $304 forward $73 $-1 #
coedge $-1 $301 $122 $119 $205 forward $210 $-1 #
edge $-1 $212 -9.8968095778952758 $305 -1.042030302890935 $204 $306 forward 7 unknown #
coedge $-1 $307 $308 $120 $207 forward $199 $-1 #
edge $-1 $309 14.674685021992946 $211 22.844837818451726 $206 $310 forward 7 unknown #
edge $-1 $212 -101.38737144077882 $309 -89.407646296156997 $121 $311 forward 7 unknown #
coedge $-1 $122 $301 $307 $312 reversed $210 $-1 #
loop $-1 $-1 $301 $198 #
vertex $-1 $312 $313 #
vertex $-1 $123 $314 #
straight-curve $-1 50.693685720389418 -15.366229518288382 72.011479962212604 0 0 -1 I I #
coedge $-1 $214 $214 $-1 $315 reversed $126 $-1 #
edge $-1 $316 0 $316 6.2831853071796004 $127 $317 forward 7 unknown #
vertex $-1 $130 $318 #
ellipse-curve $-1 46.608609322160014 -12.836292582572856 5.1076177447085511 0.73135370988377701 0 0.68199835119979291 0.68199835119979291 0 -0.73135370988377701 1 I I #
coedge $-1 $218 $218 $-1 $319 reversed $133 $-1 #
edge $-1 $320 0 $320 6.2831853071796004 $134 $321 forward 7 unknown #
vertex $-1 $137 $322 #
ellipse-curve $-1 46.608609322160014 -9.0413871789995675 5.1076177447085511 0.73135370988377701 0 0.68199835119979291 0.68199835119979291 0 -0.73135370988377701 1 I I #
face $-1 $-1 $234 $29 $-1 $323 forward single #
loop $-1 $-1 $324 $138 #
plane-surface $-1 -50.693685720389418 0 0 1 0 0 0 0 -1 forward_v I I I I #
coedge $-1 $325 $326 $327 $328 reversed $139 $-1 #
coedge $-1 $329 $141 $143 $232 forward $87 $-1 #
coedge $-1 $141 $329 $325 $330 forward $87 $-1 #
coedge $-1 $327 $144 $141 $229 forward $234 $-1 #
edge $-1 $236 -9.8968095778952758 $331 -1.042030302890935 $228 $332 forward 7 unknown #
coedge $-1 $333 $334 $142 $231 forward $223 $-1 #
edge $-1 $335 -34.209555312168568 $235 -25.448138884261432 $230 $336 forward 7 unknown #
edge $-1 $236 -11.979725144621833 $335 -1.0448453264673958e-014 $143 $337 forward 7 unknown #
coedge $-1 $144 $327 $333 $338 forward $234 $-1 #
loop $-1 $-1 $327 $222 #
vertex $-1 $231 $339 #
vertex $-1 $145 $340 #
straight-curve $-1 -62.421857979483761 -15.366229518288382 9.4883259586621236 1 0 0 I I #
coedge $-1 $238 $238 $-1 $341 reversed $148 $-1 #
edge $-1 $342 0 $342 6.2831853071796004 $149 $343 forward 7 unknown #
vertex $-1 $152 $344 #
ellipse-curve $-1 -46.608609322160028 -12.836292582572856 5.1076177447085556 -0.73135370988377701 0 0.68199835119979291 0.68199835119979291 0 0.73135370988377701 1 I I #
coedge $-1 $242 $242 $-1 $345 reversed $155 $-1 #
edge $-1 $346 0 $346 6.2831853071796004 $156 $347 forward 7 unknown #
vertex $-1 $159 $348 #
ellipse-curve $-1 -46.608609322160028 -9.0413871789995675 5.1076177447085556 -0.73135370988377701 0 0.68199835119979291 0.68199835119979291 0 0.73135370988377701 1 I I #
face $-1 $-1 $175 $24 $-1 $349 reversed single #
loop $-1 $-1 $262 $160 #
plane-surface $-1 0 25.505884301036286 0 0 -1 0 0 0 -1 forward_v I I I I #
coedge $-1 $350 $260 $263 $351 forward $161 $-1 #
coedge $-1 $266 $163 $164 $254 reversed $101 $-1 #
coedge $-1 $260 $350 $163 $252 reversed $161 $-1 #
edge $-1 $267 -9.4883259586621236 $352 9.4883259586621236 $251 $353 forward 7 unknown #
coedge $-1 $165 $164 $350 $354 forward $65 $-1 #
edge $-1 $258 -50.693685720389418 $352 50.693685720389418 $250 $355 forward 7 unknown #
coedge $-1 $263 $262 $165 $256 reversed $247 $-1 #
edge $-1 $356 -50.693685720389418 $257 50.693685720389418 $255 $357 forward 7 unknown #
vertex $-1 $167 $358 #
vertex $-1 $269 $359 #
straight-curve $-1 50.693685720389418 0 -9.4883259586621236 0 -1 0 I I #
coedge $-1 $249 $251 $168 $261 reversed $161 $-1 #
edge $-1 $264 -25.505884301036286 $267 25.505884301036286 $260 $360 forward 7 unknown #
coedge $-1 $255 $169 $174 $270 forward $247 $-1 #
coedge $-1 $169 $255 $249 $351 reversed $247 $-1 #
vertex $-1 $170 $361 #
straight-curve $-1 0 25.505884301036286 9.4883259586621236 -1 0 0 I I #
coedge $-1 $171 $250 $173 $269 reversed $101 $-1 #
vertex $-1 $261 $362 #
straight-curve $-1 0 -25.505884301036286 9.4883259586621236 1 0 0 I I #
edge $-1 $176 -9.4883259586621236 $258 9.4883259586621236 $173 $363 forward 7 unknown #
edge $-1 $177 -9.4883259586621236 $257 9.4883259586621236 $174 $364 forward 7 unknown #
point $-1 50.693685720389418 -25.505884301036286 9.4883259586621236 #
point $-1 50.693685720389418 25.505884301036286 9.4883259586621236 #
face $-1 $-1 $194 $25 $-1 $365 reversed single #
loop $-1 $-1 $190 $179 #
plane-surface $-1 0 -25.505884301036286 0 0 1 0 0 0 1 forward_v I I I I #
coedge $-1 $366 $367 $187 $286 forward $180 $-1 #
coedge $-1 $287 $182 $184 $282 reversed $109 $-1 #
edge $-1 $284 -4.9372440963451778 $195 -0.0015308493162806691 $193 $368 forward 7 unknown #
coedge $-1 $184 $183 $369 $370 reversed $69 $-1 #
coedge $-1 $291 $290 $183 $281 forward $274 $-1 #
edge $-1 $371 -50.693685720389418 $283 50.693685720389418 $280 $372 forward 7 unknown #
edge $-1 $373 -50.693685720389418 $284 50.693685720389418 $277 $374 forward 7 unknown #
vertex $-1 $281 $375 #
vertex $-1 $186 $376 #
straight-curve $-1 50.693685720389418 -10.218028454831167 -7.4066315691759073 0 1 0 I I #
edge $-1 $292 -15.287855846205119 $288 -5.1482010634572148 $276 $377 forward 7 unknown #
coedge $-1 $188 $277 $366 $378 reversed $109 $-1 #
vertex $-1 $286 $379 #
straight-curve $-1 0 -15.366229518288382 -2.4709183221470101 -1 0 0 I I #
coedge $-1 $280 $190 $367 $380 forward $274 $-1 #
coedge $-1 $190 $280 $192 $294 reversed $274 $-1 #
vertex $-1 $380 $381 #
straight-curve $-1 0 -25.505884301036286 -2.4709183221470101 -1 0 0 I I #
edge $-1 $196 2.4709183221470101 $283 7.4066315691759073 $192 $382 forward 7 unknown #
point $-1 50.693685720389418 -15.366229518288382 -2.4709183221470101 #
point $-1 50.693685720389418 -25.505884301036286 -2.4709183221470101 #
plane-surface $-1 50.693685720389418 0 0 -1 0 0 0 0 1 forward_v I I I I #
coedge $-1 $308 $307 $300 $383 forward $199 $-1 #
coedge $-1 $300 $201 $203 $304 reversed $117 $-1 #
coedge $-1 $201 $299 $298 $383 reversed $117 $-1 #
coedge $-1 $209 $204 $201 $302 forward $210 $-1 #
edge $-1 $305 -71.284570431457624 $384 -62.523154003550481 $301 $385 forward 7 unknown #
coedge $-1 $203 $202 $308 $386 reversed $73 $-1 #
edge $-1 $387 89.407646296156997 $305 101.38737144077882 $299 $388 forward 7 unknown #
vertex $-1 $205 $389 #
straight-curve $-1 50.693685720389418 -5.4694199403931059 0.72690953075498044 0 1 0 I I #
coedge $-1 $298 $206 $209 $312 forward $199 $-1 #
coedge $-1 $206 $298 $303 $386 forward $199 $-1 #
vertex $-1 $207 $390 #
straight-curve $-1 27.848847901937692 -15.366229518288382 9.4883259586621307 1 0 0 I I #
straight-curve $-1 -18.452334434702713 -15.366229518288382 74.876939769333077 -0.68199835119979291 0 0.73135370988377701 I I #
edge $-1 $211 -15.366229518288382 $384 -6.5114502432840409 $209 $391 forward 7 unknown #
point $-1 50.693685720389418 -15.366229518288382 9.4883259586621236 #
point $-1 50.693685720389418 -15.366229518288382 0.72690953075498044 #
edge $-1 $392 1 $392 0 $214 $-1 forward 7 unknown #
vertex $-1 $215 $393 #
ellipse-curve $-1 44.0793267389504 -12.836292582572856 2.7490236360638667 0.73135370988377701 0 0.68199835119979291 0.68199835119979291 0 -0.73135370988377701 1 I I #
point $-1 47.290607673359816 -12.836292582572856 4.3762640348247785 #
edge $-1 $394 1 $394 0 $218 $-1 forward 7 unknown #
vertex $-1 $219 $395 #
ellipse-curve $-1 44.0793267389504 -9.0413871789995675 2.7490236360638667 0.73135370988377701 0 0.68199835119979291 0.68199835119979291 0 -0.73135370988377701 1 I I #
point $-1 47.290607673359816 -9.0413871789995675 4.3762640348247785 #
plane-surface $-1 0 0 9.4883259586621236 0 0 1 1 0 0 forward_v I I I I #
coedge $-1 $334 $333 $326 $396 forward $223 $-1 #
coedge $-1 $326 $225 $227 $330 reversed $139 $-1 #
coedge $-1 $225 $325 $324 $396 reversed $139 $-1 #
coedge $-1 $233 $228 $225 $328 forward $234 $-1 #
edge $-1 $331 -19.89832505555313 $397 -11.728172259094343 $327 $398 forward 7 unknown #
coedge $-1 $227 $226 $334 $399 reversed $87 $-1 #
edge $-1 $400 1.0448453264673958e-014 $331 11.979725144621833 $325 $401 forward 7 unknown #
vertex $-1 $229 $402 #
straight-curve $-1 -42.523532923930631 -5.4694199403931059 9.4883259586621236 0 1 0 I I #
coedge $-1 $324 $230 $233 $338 reversed $223 $-1 #
coedge $-1 $230 $324 $329 $399 forward $223 $-1 #
vertex $-1 $231 $403 #
straight-curve $-1 -50.693685720389418 -15.366229518288382 34.936464842923556 0 0 1 I I #
straight-curve $-1 -50.693685720389425 -15.366229518288382 0.72690953075498044 -0.68199835119979291 0 -0.73135370988377701 I I #
edge $-1 $397 6.5114502432840409 $235 15.366229518288382 $333 $404 forward 7 unknown #
point $-1 -50.693685720389418 -15.366229518288382 9.4883259586621236 #
point $-1 -42.523532923930631 -15.366229518288382 9.4883259586621236 #
edge $-1 $405 1 $405 0 $238 $-1 forward 7 unknown #
vertex $-1 $239 $406 #
ellipse-curve $-1 -44.079326738950407 -12.836292582572856 2.7490236360638667 -0.73135370988377701 0 0.68199835119979291 0.68199835119979291 0 0.73135370988377701 1 I I #
point $-1 -45.926610970960233 -12.836292582572856 5.8389714545923326 #
edge $-1 $407 1 $407 0 $242 $-1 forward 7 unknown #
vertex $-1 $243 $408 #
ellipse-curve $-1 -44.079326738950407 -9.0413871789995675 2.7490236360638667 -0.73135370988377701 0 0.68199835119979291 0.68199835119979291 0 0.73135370988377701 1 I I #
point $-1 -45.926610970960233 -9.0413871789995675 5.8389714545923326 #
plane-surface $-1 50.693685720389418 0 0 -1 0 0 0 0 1 forward_v I I I I #
coedge $-1 $251 $249 $253 $354 reversed $161 $-1 #
edge $-1 $264 -9.4883259586621236 $356 9.4883259586621236 $263 $409 forward 7 unknown #
vertex $-1 $354 $410 #
straight-curve $-1 -50.693685720389418 -25.505884301036286 0 0 0 -1 I I #
edge $-1 $352 -25.505884301036286 $356 25.505884301036286 $350 $411 forward 7 unknown #
straight-curve $-1 0 -25.505884301036286 -9.4883259586621236 -1 0 0 I I #
vertex $-1 $256 $412 #
straight-curve $-1 0 25.505884301036286 -9.4883259586621236 1 0 0 I I #
point $-1 50.693685720389418 25.505884301036286 -9.4883259586621236 #
point $-1 50.693685720389418 -25.505884301036286 -9.4883259586621236 #
straight-curve $-1 -50.693685720389418 0 9.4883259586621236 0 -1 0 I I #
point $-1 -50.693685720389418 25.505884301036286 9.4883259586621236 #
point $-1 -50.693685720389418 -25.505884301036286 9.4883259586621236 #
straight-curve $-1 50.693685720389418 -25.505884301036286 0 0 0 -1 I I #
straight-curve $-1 50.693685720389418 25.505884301036286 0 0 0 -1 I I #
plane-surface $-1 50.693685720389418 0 0 -1 0 0 0 0 1 forward_v I I I I #
coedge $-1 $369 $276 $287 $378 forward $180 $-1 #
coedge $-1 $276 $369 $290 $380 reversed $180 $-1 #
straight-curve $-1 50.693685720389418 -15.366229518288382 -2.4693874728307295 0 0 1 I I #
coedge $-1 $367 $366 $279 $370 forward $180 $-1 #
edge $-1 $373 5.1482010634572148 $371 15.287855846205119 $369 $413 forward 7 unknown #
vertex $-1 $281 $414 #
straight-curve $-1 0 -25.505884301036286 -7.4066315691759073 1 0 0 I I #
vertex $-1 $370 $415 #
straight-curve $-1 0 -15.366229518288382 -7.4066315691759073 1 0 0 I I #
point $-1 50.693685720389418 -25.505884301036286 -7.4066315691759073 #
point $-1 50.693685720389418 -15.366229518288382 -7.4066315691759073 #
straight-curve $-1 -50.693685720389418 -10.218028454831167 -2.4709183221470101 0 1 0 I I #
edge $-1 $288 0.0015308493162806691 $373 4.9372440963451778 $366 $416 forward 7 unknown #
point $-1 -50.693685720389418 -15.366229518288382 -2.4709183221470101 #
edge $-1 $292 2.4709183221470101 $371 7.4066315691759073 $367 $417 forward 7 unknown #
point $-1 -50.693685720389418 -25.505884301036286 -2.4709183221470101 #
straight-curve $-1 50.693685720389418 -25.505884301036286 0 0 0 -1 I I #
edge $-1 $384 -22.844837818451726 $387 -14.674685021992946 $298 $418 forward 7 unknown #
vertex $-1 $383 $419 #
straight-curve $-1 50.693685720389418 -6.5114502432840409 72.011479962212604 0 0 1 I I #
edge $-1 $387 1.042030302890935 $309 9.8968095778952758 $308 $420 forward 7 unknown #
vertex $-1 $386 $421 #
straight-curve $-1 -18.452334434702713 -6.5114502432840409 74.876939769333077 0.68199835119979291 0 -0.73135370988377701 I I #
point $-1 50.693685720389418 -6.5114502432840409 0.72690953075498044 #
point $-1 42.523532923930638 -15.366229518288382 9.4883259586621165 #
straight-curve $-1 50.693685720389418 0 9.4883259586621236 0 1 0 I I #
vertex $-1 $315 $422 #
point $-1 44.761325090150194 -12.836292582572856 2.0176699261800897 #
vertex $-1 $319 $423 #
point $-1 44.761325090150194 -9.0413871789995675 2.0176699261800897 #
edge $-1 $397 25.448138884261432 $400 34.209555312168568 $324 $424 forward 7 unknown #
vertex $-1 $338 $425 #
straight-curve $-1 -62.421857979483761 -6.5114502432840409 9.4883259586621236 -1 0 0 I I #
edge $-1 $400 1.042030302890935 $335 9.8968095778952758 $334 $426 forward 7 unknown #
vertex $-1 $399 $427 #
straight-curve $-1 -50.693685720389425 -6.5114502432840409 0.72690953075498044 0.68199835119979291 0 0.73135370988377701 I I #
point $-1 -42.523532923930631 -6.5114502432840409 9.4883259586621236 #
point $-1 -50.693685720389418 -15.366229518288382 0.7269095307549881 #
straight-curve $-1 -50.693685720389418 0 9.4883259586621236 0 -1 0 I I #
vertex $-1 $341 $428 #
point $-1 -43.397328387750612 -12.836292582572856 3.4803773459476437 #
vertex $-1 $345 $429 #
point $-1 -43.397328387750612 -9.0413871789995675 3.4803773459476437 #
straight-curve $-1 -50.693685720389418 25.505884301036286 0 0 0 -1 I I #
point $-1 -50.693685720389418 -25.505884301036286 -9.4883259586621236 #
straight-curve $-1 -50.693685720389418 0 -9.4883259586621236 0 1 0 I I #
point $-1 -50.693685720389418 25.505884301036286 -9.4883259586621236 #
straight-curve $-1 -50.693685720389418 -10.218028454831167 -7.4066315691759073 0 -1 0 I I #
point $-1 -50.693685720389418 -25.505884301036286 -7.4066315691759073 #
point $-1 -50.693685720389418 -15.366229518288382 -7.4066315691759073 #
straight-curve $-1 -50.693685720389418 -15.366229518288382 -2.4693874728307295 0 0 -1 I I #
straight-curve $-1 -50.693685720389418 -25.505884301036286 0 0 0 -1 I I #
straight-curve $-1 27.848847901937692 -6.5114502432840409 9.4883259586621307 -1 0 0 I I #
point $-1 50.693685720389418 -6.5114502432840409 9.4883259586621236 #
straight-curve $-1 42.523532923930631 -5.4694199403931059 9.4883259586621165 0 -1 0 I I #
point $-1 42.523532923930638 -6.5114502432840409 9.4883259586621165 #
point $-1 43.347973029066623 -12.836292582572856 2.0670252848640738 #
point $-1 43.347973029066623 -9.0413871789995675 2.0670252848640738 #
straight-curve $-1 -50.693685720389418 -6.5114502432840409 34.936464842923556 0 0 -1 I I #
point $-1 -50.693685720389418 -6.5114502432840409 9.4883259586621236 #
straight-curve $-1 -50.693685720389418 -5.4694199403931059 0.72690953075498888 0 -1 0 I I #
point $-1 -50.693685720389418 -6.5114502432840409 0.7269095307549881 #
point $-1 -43.34797302906663 -12.836292582572856 2.0670252848640738 #
point $-1 -43.34797302906663 -9.0413871789995675 2.0670252848640738 #
End-of-ACIS-data 