500 0 5 0           
7 Unknown 11 ACIS 5.0 NT 24 Fri Mar 26 15:25:20 1999 
-1 9.9999999999999995e-007 1e-010 
body $-1 $5 $-1 $6 #
body $-1 $7 $-1 $8 #
body $-1 $9 $-1 $10 #
body $-1 $11 $-1 $12 #
body $-1 $13 $-1 $14 #
lump $-1 $-1 $15 $0 #
transform $-1 1 0 0 0 1 0 0 0 1 43.192236091189308 17.967348041156193 4 1 rotate no_reflect no_shear #
lump $-1 $-1 $16 $1 #
transform $-1 1 0 0 0 1 0 0 0 1 43.192236091189308 17.967348041156193 4 1 rotate no_reflect no_shear #
lump $-1 $-1 $17 $2 #
transform $-1 1 0 0 0 1 0 0 0 1 43.192236091189308 17.967348041156193 4 1 rotate no_reflect no_shear #
lump $-1 $-1 $18 $3 #
transform $-1 1 0 0 0 1 0 0 0 1 43.192236091189308 17.967348041156193 4 1 rotate no_reflect no_shear #
lump $-1 $-1 $19 $4 #
transform $-1 1 0 0 0 1 0 0 0 1 43.192236091189308 17.967348041156193 4 1 rotate no_reflect no_shear #
shell $-1 $-1 $-1 $20 $-1 $5 #
shell $-1 $-1 $-1 $21 $-1 $7 #
shell $-1 $-1 $-1 $22 $-1 $9 #
shell $-1 $-1 $-1 $23 $-1 $11 #
shell $-1 $-1 $-1 $24 $-1 $13 #
face $-1 $25 $26 $15 $-1 $27 forward single #
face $-1 $28 $29 $16 $-1 $30 forward single #
face $-1 $31 $32 $17 $-1 $33 forward single #
face $-1 $34 $35 $18 $-1 $36 reversed single #
face $-1 $37 $38 $19 $-1 $39 forward single #
face $-1 $40 $41 $15 $-1 $42 reversed single #
loop $-1 $-1 $43 $20 #
plane-surface $-1 0 0 4 0 0 1 1 0 0 forward_v I I I I #
face $-1 $44 $45 $16 $-1 $46 reversed single #
loop $-1 $-1 $47 $21 #
plane-surface $-1 -41.095673085726496 0 -1 0 0 1 1 0 0 forward_v I I I I #
face $-1 $48 $49 $17 $-1 $50 reversed single #
loop $-1 $-1 $51 $22 #
plane-surface $-1 41.095673085726496 0 -1 0 0 1 1 0 0 forward_v I I I I #
face $-1 $52 $53 $18 $-1 $54 reversed single #
loop $-1 $-1 $55 $23 #
plane-surface $-1 -5.2280062504744453 70.84402532455357 77.906451884671895 -1 0 0 0 0.83867057594974714 0.54463902268945019 forward_v I I I I #
face $-1 $56 $57 $19 $-1 $58 forward single #
loop $-1 $59 $60 $24 #
cone-surface $-1 -13.833947143975909 16.483219783744119 2.0880430485478549 0 -0.83867057594974714 -0.54463902268945019 0.5 0 0 1 I I 0 1 0.5 forward I I I I #
face $-1 $61 $62 $15 $-1 $63 reversed single #
loop $-1 $-1 $64 $25 #
plane-surface $-1 0 0 -4 0 0 1 1 0 0 forward_v I I I I #
coedge $-1 $65 $66 $67 $68 forward $26 $-1 #
face $-1 $69 $70 $16 $-1 $71 reversed single #
loop $-1 $-1 $72 $28 #
plane-surface $-1 -38.999110080263684 0 -2.5 -1 0 0 0 0 1 forward_v I I I I #
coedge $-1 $73 $74 $75 $76 forward $29 $-1 #
face $-1 $77 $78 $17 $-1 $79 reversed single #
loop $-1 $-1 $80 $31 #
plane-surface $-1 38.999110080263684 0 -2.5 1 0 0 0 0 -1 forward_v I I I I #
coedge $-1 $81 $82 $83 $84 reversed $32 $-1 #
face $-1 $85 $86 $18 $-1 $87 reversed single #
loop $-1 $-1 $88 $34 #
plane-surface $-1 -13.833947143975912 -1.6040897137568209 30.858097379717208 0 0.83867057594974714 0.54463902268945019 1 0 0 forward_v I I I I #
coedge $-1 $89 $90 $91 $92 reversed $35 $-1 #
face $-1 $-1 $93 $19 $-1 $94 forward single #
loop $-1 $95 $96 $37 #
cone-surface $-1 -13.833947143975909 15.854216851781807 1.6795637815307671 0 -0.83867057594974714 -0.54463902268945019 0.25 0 0 1 I I -0.70710678118654746 0.70710678118654746 0.25 forward I I I I #
loop $-1 $-1 $97 $24 #
coedge $-1 $60 $60 $98 $99 reversed $38 $-1 #
face $-1 $100 $101 $15 $-1 $102 reversed single #
loop $-1 $-1 $103 $40 #
plane-surface $-1 0 -17.967348041156193 0 0 1 0 0 0 1 forward_v I I I I #
coedge $-1 $104 $105 $106 $107 forward $41 $-1 #
coedge $-1 $108 $43 $109 $110 forward $26 $-1 #
coedge $-1 $43 $108 $111 $112 forward $26 $-1 #
coedge $-1 $113 $114 $43 $68 reversed $115 $-1 #
edge $-1 $116 -17.967348041156193 $117 17.967348041156193 $67 $118 forward 7 unknown #
face $-1 $119 $120 $16 $-1 $121 reversed single #
loop $-1 $-1 $122 $44 #
plane-surface $-1 0 0 -4 0 0 1 1 0 0 forward_v I I I I #
coedge $-1 $123 $75 $124 $125 reversed $45 $-1 #
coedge $-1 $126 $47 $127 $128 reversed $29 $-1 #
coedge $-1 $47 $126 $129 $130 reversed $29 $-1 #
coedge $-1 $72 $131 $47 $76 reversed $45 $-1 #
edge $-1 $132 -17.967348041156193 $133 17.967348041156193 $75 $134 forward 7 unknown #
face $-1 $135 $136 $17 $-1 $137 reversed single #
loop $-1 $-1 $138 $48 #
plane-surface $-1 0 -17.967348041156193 0 0 1 0 0 0 1 forward_v I I I I #
coedge $-1 $139 $140 $141 $142 reversed $49 $-1 #
coedge $-1 $143 $51 $144 $145 reversed $32 $-1 #
coedge $-1 $51 $143 $138 $146 reversed $32 $-1 #
coedge $-1 $147 $148 $51 $84 forward $149 $-1 #
edge $-1 $150 -17.967348041156193 $151 17.967348041156193 $83 $152 forward 7 unknown #
face $-1 $153 $154 $18 $-1 $155 reversed single #
loop $-1 $-1 $156 $52 #
plane-surface $-1 -22.439888037477381 70.84402532455357 77.906451884671895 1 0 0 0 -0.83867057594974714 -0.54463902268945019 forward_v I I I I #
coedge $-1 $157 $158 $159 $160 reversed $53 $-1 #
coedge $-1 $90 $55 $161 $162 reversed $35 $-1 #
coedge $-1 $55 $89 $157 $163 reversed $35 $-1 #
coedge $-1 $159 $164 $55 $92 forward $154 $-1 #
edge $-1 $165 34.953225942335948 $166 38.232500822550762 $91 $167 forward 7 unknown #
loop $-1 $-1 $98 $56 #
plane-surface $-1 -13.833947143975912 -1.6040897137568209 30.858097379717208 0 0.83867057594974714 0.54463902268945019 1 0 0 forward_v I I I I #
loop $-1 $-1 $168 $37 #
coedge $-1 $96 $96 $97 $169 reversed $57 $-1 #
coedge $-1 $97 $97 $96 $169 forward $59 $-1 #
coedge $-1 $98 $98 $60 $99 forward $93 $-1 #
edge $-1 $170 -2.0715681250100444e-015 $170 6.2831853071795987 $98 $171 forward 7 unknown #
face $-1 $172 $173 $15 $-1 $174 reversed single #
loop $-1 $-1 $175 $61 #
plane-surface $-1 -43.192236091189308 0 0 1 0 0 0 0 -1 forward_v I I I I #
coedge $-1 $176 $111 $177 $178 forward $62 $-1 #
coedge $-1 $179 $64 $176 $180 forward $41 $-1 #
coedge $-1 $64 $179 $181 $182 forward $41 $-1 #
coedge $-1 $114 $113 $64 $107 reversed $115 $-1 #
edge $-1 $183 -17.967348041156193 $184 17.967348041156193 $106 $185 forward 7 unknown #
coedge $-1 $66 $65 $186 $187 forward $26 $-1 #
coedge $-1 $188 $189 $65 $110 reversed $173 $-1 #
edge $-1 $117 -43.192236091189308 $190 43.192236091189308 $109 $191 forward 7 unknown #
coedge $-1 $103 $192 $66 $112 reversed $62 $-1 #
edge $-1 $193 -43.192236091189308 $116 43.192236091189308 $111 $194 forward 7 unknown #
coedge $-1 $106 $67 $192 $195 forward $115 $-1 #
coedge $-1 $67 $106 $188 $196 reversed $115 $-1 #
loop $-1 $-1 $113 $172 #
vertex $-1 $68 $197 #
vertex $-1 $68 $198 #
straight-curve $-1 43.192236091189308 0 4 0 1 0 I I #
face $-1 $199 $200 $16 $-1 $201 reversed single #
loop $-1 $-1 $124 $69 #
plane-surface $-1 0 -17.967348041156193 0 0 1 0 0 0 1 forward_v I I I I #
coedge $-1 $202 $203 $123 $204 forward $70 $-1 #
coedge $-1 $131 $72 $122 $204 reversed $45 $-1 #
coedge $-1 $129 $205 $72 $125 forward $120 $-1 #
edge $-1 $206 -2.75 $132 0.25 $124 $207 forward 7 unknown #
coedge $-1 $74 $73 $208 $209 reversed $29 $-1 #
coedge $-1 $210 $211 $73 $128 forward $212 $-1 #
edge $-1 $213 -22.64439954832606 $133 -18.451273537400436 $127 $214 forward 7 unknown #
coedge $-1 $215 $124 $74 $130 forward $120 $-1 #
edge $-1 $132 18.451273537400436 $216 22.64439954832606 $129 $217 forward 7 unknown #
coedge $-1 $75 $123 $210 $218 reversed $45 $-1 #
vertex $-1 $130 $219 #
vertex $-1 $128 $220 #
straight-curve $-1 -38.999110080263684 0 -1 0 1 0 I I #
face $-1 $221 $222 $17 $-1 $223 reversed single #
loop $-1 $-1 $224 $77 #
plane-surface $-1 0 0 -4 0 0 1 1 0 0 forward_v I I I I #
coedge $-1 $225 $226 $82 $146 forward $78 $-1 #
coedge $-1 $227 $80 $224 $228 reversed $49 $-1 #
coedge $-1 $80 $227 $143 $229 reversed $49 $-1 #
coedge $-1 $144 $230 $80 $142 forward $222 $-1 #
edge $-1 $231 -2.75 $232 0.25 $141 $233 forward 7 unknown #
coedge $-1 $82 $81 $140 $229 forward $32 $-1 #
coedge $-1 $234 $141 $81 $145 forward $222 $-1 #
edge $-1 $232 18.451273537400436 $150 22.64439954832606 $144 $235 forward 7 unknown #
edge $-1 $151 -22.64439954832606 $236 -18.451273537400436 $138 $237 forward 7 unknown #
coedge $-1 $238 $83 $226 $239 forward $149 $-1 #
coedge $-1 $83 $238 $234 $240 reversed $149 $-1 #
loop $-1 $-1 $83 $221 #
vertex $-1 $240 $241 #
vertex $-1 $239 $242 #
straight-curve $-1 43.192236091189308 0 -1 0 -1 0 I I #
face $-1 $-1 $243 $18 $-1 $244 forward single #
loop $-1 $-1 $91 $85 #
plane-surface $-1 0 17.967348041156193 0 0 -1 0 0 0 -1 forward_v I I I I #
coedge $-1 $245 $246 $247 $248 reversed $86 $-1 #
coedge $-1 $249 $88 $90 $163 forward $53 $-1 #
coedge $-1 $88 $249 $245 $250 forward $53 $-1 #
coedge $-1 $247 $91 $88 $160 forward $154 $-1 #
edge $-1 $166 -1.6889673215135108 $251 15.522914465489425 $159 $252 forward 7 unknown #
coedge $-1 $253 $254 $89 $162 forward $243 $-1 #
edge $-1 $255 -19.584250559994974 $165 -17.454664621120592 $161 $256 forward 7 unknown #
edge $-1 $166 -35.93469608231235 $255 -32.024609125343318 $90 $257 forward 7 unknown #
coedge $-1 $91 $247 $253 $258 reversed $154 $-1 #
vertex $-1 $258 $259 #
vertex $-1 $92 $260 #
straight-curve $-1 -5.2280062504744453 17.967348041156193 38.953225942335948 0 0 -1 I I #
coedge $-1 $168 $168 $-1 $261 reversed $95 $-1 #
edge $-1 $262 0 $262 6.2831853071796004 $96 $263 forward 7 unknown #
vertex $-1 $99 $264 #
ellipse-curve $-1 -13.833947143975909 16.902555071719004 2.3603625598925877 0 0.83867057594974714 0.54463902268945019 0.5 0 0 1 I I #
face $-1 $-1 $115 $15 $-1 $265 reversed single #
loop $-1 $-1 $188 $100 #
plane-surface $-1 0 17.967348041156193 0 0 -1 0 0 0 -1 forward_v I I I I #
coedge $-1 $266 $186 $189 $267 forward $101 $-1 #
coedge $-1 $192 $103 $104 $180 reversed $62 $-1 #
coedge $-1 $186 $266 $103 $178 reversed $101 $-1 #
edge $-1 $193 -4 $268 4 $177 $269 forward 7 unknown #
coedge $-1 $105 $104 $266 $270 forward $41 $-1 #
edge $-1 $184 -43.192236091189308 $268 43.192236091189308 $176 $271 forward 7 unknown #
coedge $-1 $189 $188 $105 $182 reversed $173 $-1 #
edge $-1 $272 -43.192236091189308 $183 43.192236091189308 $181 $273 forward 7 unknown #
vertex $-1 $107 $274 #
vertex $-1 $195 $275 #
straight-curve $-1 43.192236091189308 0 -4 0 -1 0 I I #
coedge $-1 $175 $177 $108 $187 reversed $101 $-1 #
edge $-1 $190 -17.967348041156193 $193 17.967348041156193 $186 $276 forward 7 unknown #
coedge $-1 $181 $109 $114 $196 forward $173 $-1 #
coedge $-1 $109 $181 $175 $267 reversed $173 $-1 #
vertex $-1 $110 $277 #
straight-curve $-1 0 17.967348041156193 4 -1 0 0 I I #
coedge $-1 $111 $176 $113 $195 reversed $62 $-1 #
vertex $-1 $187 $278 #
straight-curve $-1 0 -17.967348041156193 4 1 0 0 I I #
edge $-1 $116 -4 $184 4 $113 $279 forward 7 unknown #
edge $-1 $117 -4 $183 4 $114 $280 forward 7 unknown #
point $-1 43.192236091189308 -17.967348041156193 4 #
point $-1 43.192236091189308 17.967348041156193 4 #
face $-1 $-1 $212 $16 $-1 $281 reversed single #
loop $-1 $-1 $208 $119 #
plane-surface $-1 -43.192236091189308 0 0 1 0 0 0 0 -1 forward_v I I I I #
coedge $-1 $282 $122 $205 $283 forward $70 $-1 #
coedge $-1 $122 $282 $284 $285 forward $70 $-1 #
edge $-1 $286 -17.967348041156193 $206 17.967348041156193 $122 $287 forward 7 unknown #
coedge $-1 $124 $215 $202 $283 reversed $120 $-1 #
vertex $-1 $283 $288 #
straight-curve $-1 -38.999110080263684 -17.967348041156193 -1.25 0 0 1 I I #
coedge $-1 $289 $290 $126 $209 forward $200 $-1 #
edge $-1 $216 -17.967348041156193 $213 17.967348041156193 $208 $291 forward 7 unknown #
coedge $-1 $284 $127 $131 $218 forward $212 $-1 #
coedge $-1 $127 $284 $289 $292 reversed $212 $-1 #
loop $-1 $-1 $210 $199 #
vertex $-1 $292 $293 #
straight-curve $-1 -20.547836542863248 17.967348041156193 -1 1 0 0 I I #
coedge $-1 $205 $129 $290 $294 forward $120 $-1 #
vertex $-1 $294 $295 #
straight-curve $-1 -20.547836542863248 -17.967348041156193 -1 -1 0 0 I I #
edge $-1 $133 -0.25 $286 2.75 $210 $296 forward 7 unknown #
point $-1 -38.999110080263684 -17.967348041156193 -1 #
point $-1 -38.999110080263684 17.967348041156193 -1 #
face $-1 $-1 $149 $17 $-1 $297 reversed single #
loop $-1 $-1 $144 $135 #
plane-surface $-1 0 17.967348041156193 0 0 -1 0 0 0 -1 forward_v I I I I #
coedge $-1 $298 $299 $139 $228 forward $136 $-1 #
coedge $-1 $300 $138 $227 $301 forward $78 $-1 #
coedge $-1 $138 $300 $147 $239 reversed $78 $-1 #
coedge $-1 $140 $139 $225 $301 reversed $49 $-1 #
edge $-1 $302 -17.967348041156193 $231 17.967348041156193 $224 $303 forward 7 unknown #
edge $-1 $232 -17.967348041156193 $236 17.967348041156193 $140 $304 forward 7 unknown #
coedge $-1 $141 $234 $298 $305 reversed $222 $-1 #
vertex $-1 $305 $306 #
vertex $-1 $145 $307 #
straight-curve $-1 38.999110080263684 17.967348041156193 -1.25 0 0 1 I I #
coedge $-1 $230 $144 $148 $240 forward $222 $-1 #
straight-curve $-1 20.547836542863248 17.967348041156193 -1 1 0 0 I I #
vertex $-1 $146 $308 #
straight-curve $-1 20.547836542863248 -17.967348041156193 -1 -1 0 0 I I #
coedge $-1 $148 $147 $309 $310 reversed $149 $-1 #
edge $-1 $151 1 $311 4 $147 $312 forward 7 unknown #
edge $-1 $150 1 $313 4 $148 $314 forward 7 unknown #
point $-1 43.192236091189308 17.967348041156193 -1 #
point $-1 43.192236091189308 -17.967348041156193 -1 #
loop $-1 $-1 $161 $153 #
plane-surface $-1 0 0 4 0 0 1 1 0 0 forward_v I I I I #
coedge $-1 $246 $156 $158 $250 reversed $86 $-1 #
coedge $-1 $156 $245 $315 $316 reversed $86 $-1 #
coedge $-1 $164 $159 $156 $248 forward $154 $-1 #
edge $-1 $251 -38.232500822550762 $317 -34.953225942335948 $247 $318 forward 7 unknown #
coedge $-1 $158 $157 $254 $319 reversed $53 $-1 #
edge $-1 $320 32.024609125343318 $251 35.93469608231235 $245 $321 forward 7 unknown #
vertex $-1 $160 $322 #
straight-curve $-1 -6.9169735719879561 17.967348041156193 0.72072511978518961 -1 0 0 I I #
coedge $-1 $315 $161 $164 $258 forward $243 $-1 #
coedge $-1 $161 $315 $249 $319 forward $243 $-1 #
vertex $-1 $162 $323 #
straight-curve $-1 -5.2280062504744453 35.422012662276785 4 0 1 0 I I #
straight-curve $-1 -5.2280062504744453 -1.6040897137568209 30.858097379717208 0 -0.54463902268945019 0.83867057594974714 I I #
edge $-1 $165 5.2280062504744453 $317 22.439888037477381 $164 $324 forward 7 unknown #
point $-1 -5.2280062504744453 17.967348041156193 4 #
point $-1 -5.2280062504744453 17.967348041156193 0.72072511978518605 #
edge $-1 $325 1 $325 0 $168 $-1 forward 7 unknown #
vertex $-1 $169 $326 #
ellipse-curve $-1 -13.833947143975909 16.063884495769244 1.8157235372031297 0 0.83867057594974714 0.54463902268945019 0.5 0 0 1 I I #
point $-1 -13.333947143975909 16.902555071718989 2.3603625598925797 #
plane-surface $-1 43.192236091189308 0 0 -1 0 0 0 0 1 forward_v I I I I #
coedge $-1 $177 $175 $179 $270 reversed $101 $-1 #
edge $-1 $190 -4 $272 4 $189 $327 forward 7 unknown #
vertex $-1 $270 $328 #
straight-curve $-1 -43.192236091189308 -17.967348041156193 0 0 0 -1 I I #
edge $-1 $268 -17.967348041156193 $272 17.967348041156193 $266 $329 forward 7 unknown #
straight-curve $-1 0 -17.967348041156193 -4 -1 0 0 I I #
vertex $-1 $182 $330 #
straight-curve $-1 0 17.967348041156193 -4 1 0 0 I I #
point $-1 43.192236091189308 17.967348041156193 -4 #
point $-1 43.192236091189308 -17.967348041156193 -4 #
straight-curve $-1 -43.192236091189308 0 4 0 -1 0 I I #
point $-1 -43.192236091189308 17.967348041156193 4 #
point $-1 -43.192236091189308 -17.967348041156193 4 #
straight-curve $-1 43.192236091189308 -17.967348041156193 0 0 0 -1 I I #
straight-curve $-1 43.192236091189308 17.967348041156193 0 0 0 -1 I I #
plane-surface $-1 0 17.967348041156193 0 0 -1 0 0 0 -1 forward_v I I I I #
coedge $-1 $203 $202 $331 $332 forward $70 $-1 #
edge $-1 $206 38.999110080263684 $333 43.192236091189308 $205 $334 forward 7 unknown #
coedge $-1 $211 $210 $203 $285 reversed $212 $-1 #
edge $-1 $335 -43.192236091189308 $286 -38.999110080263684 $284 $336 forward 7 unknown #
vertex $-1 $218 $337 #
straight-curve $-1 -38.999110080263684 0 -4 0 -1 0 I I #
point $-1 -38.999110080263684 -17.967348041156193 -4 #
coedge $-1 $331 $208 $211 $292 forward $200 $-1 #
coedge $-1 $208 $331 $215 $294 reversed $200 $-1 #
straight-curve $-1 -43.192236091189308 0 -1 0 1 0 I I #
edge $-1 $213 1 $335 4 $211 $338 forward 7 unknown #
point $-1 -43.192236091189308 17.967348041156193 -1 #
edge $-1 $216 1 $333 4 $290 $339 forward 7 unknown #
point $-1 -43.192236091189308 -17.967348041156193 -1 #
straight-curve $-1 -38.999110080263684 17.967348041156193 -1.25 0 0 -1 I I #
plane-surface $-1 43.192236091189308 0 0 -1 0 0 0 0 1 forward_v I I I I #
coedge $-1 $309 $224 $230 $305 forward $136 $-1 #
coedge $-1 $224 $309 $300 $340 forward $136 $-1 #
coedge $-1 $226 $225 $299 $340 reversed $78 $-1 #
edge $-1 $236 -0.25 $302 2.75 $225 $341 forward 7 unknown #
vertex $-1 $228 $342 #
straight-curve $-1 38.999110080263684 0 -4 0 1 0 I I #
straight-curve $-1 38.999110080263684 0 -1 0 -1 0 I I #
edge $-1 $231 38.999110080263684 $313 43.192236091189308 $230 $343 forward 7 unknown #
point $-1 38.999110080263684 17.967348041156193 -4 #
point $-1 38.999110080263684 17.967348041156193 -1 #
point $-1 38.999110080263684 -17.967348041156193 -1 #
coedge $-1 $299 $298 $238 $310 forward $136 $-1 #
edge $-1 $313 -17.967348041156193 $311 17.967348041156193 $238 $344 forward 7 unknown #
vertex $-1 $239 $345 #
straight-curve $-1 43.192236091189308 -17.967348041156193 0 0 0 -1 I I #
vertex $-1 $310 $346 #
straight-curve $-1 43.192236091189308 17.967348041156193 0 0 0 -1 I I #
coedge $-1 $254 $253 $246 $316 forward $243 $-1 #
edge $-1 $317 17.454664621120592 $320 19.584250559994974 $315 $347 forward 7 unknown #
vertex $-1 $316 $348 #
straight-curve $-1 -22.439888037477381 17.967348041156193 38.953225942335948 0 0 1 I I #
edge $-1 $320 -15.522914465489425 $255 1.6889673215135108 $254 $349 forward 7 unknown #
vertex $-1 $319 $350 #
straight-curve $-1 -22.439888037477381 -1.6040897137568209 30.858097379717208 0 0.54463902268945019 -0.83867057594974714 I I #
point $-1 -22.439888037477381 17.967348041156193 0.72072511978518605 #
point $-1 -5.2280062504744453 15.837762102281811 4 #
straight-curve $-1 0 17.967348041156193 4 -1 0 0 I I #
vertex $-1 $261 $351 #
point $-1 -13.333947143975909 16.063884495769244 1.8157235372031297 #
straight-curve $-1 -43.192236091189308 17.967348041156193 0 0 0 -1 I I #
point $-1 -43.192236091189308 -17.967348041156193 -4 #
straight-curve $-1 -43.192236091189308 0 -4 0 1 0 I I #
point $-1 -43.192236091189308 17.967348041156193 -4 #
coedge $-1 $290 $289 $282 $332 reversed $200 $-1 #
edge $-1 $333 -17.967348041156193 $335 17.967348041156193 $331 $352 forward 7 unknown #
vertex $-1 $332 $353 #
straight-curve $-1 0 -17.967348041156193 -4 -1 0 0 I I #
vertex $-1 $285 $354 #
straight-curve $-1 0 17.967348041156193 -4 1 0 0 I I #
point $-1 -38.999110080263684 17.967348041156193 -4 #
straight-curve $-1 -43.192236091189308 17.967348041156193 0 0 0 -1 I I #
straight-curve $-1 -43.192236091189308 -17.967348041156193 0 0 0 -1 I I #
edge $-1 $311 -43.192236091189308 $302 -38.999110080263684 $300 $355 forward 7 unknown #
straight-curve $-1 38.999110080263684 -17.967348041156193 -1.25 0 0 -1 I I #
point $-1 38.999110080263684 -17.967348041156193 -4 #
straight-curve $-1 0 17.967348041156193 -4 1 0 0 I I #
straight-curve $-1 43.192236091189308 0 -4 0 -1 0 I I #
point $-1 43.192236091189308 -17.967348041156193 -4 #
point $-1 43.192236091189308 17.967348041156193 -4 #
straight-curve $-1 -22.439888037477381 35.422012662276785 4 0 -1 0 I I #
point $-1 -22.439888037477381 17.967348041156193 4 #
straight-curve $-1 -6.9169735719879561 15.837762102281813 4 1 0 0 I I #
point $-1 -22.439888037477381 15.837762102281811 4 #
point $-1 -13.833947143975909 15.64454920779437 1.5434040258584045 #
straight-curve $-1 -43.192236091189308 0 -4 0 1 0 I I #
point $-1 -43.192236091189308 -17.967348041156193 -4 #
point $-1 -43.192236091189308 17.967348041156193 -4 #
straight-curve $-1 0 -17.967348041156193 -4 -1 0 0 I I #
End-of-ACIS-data 