500 0 6 0           
7 Unknown 11 ACIS 5.0 NT 24 Thu Mar 25 17:09:46 1999 
-1 9.9999999999999995e-007 1e-010 
body $-1 $6 $-1 $7 #
body $-1 $8 $-1 $9 #
body $-1 $10 $-1 $11 #
body $-1 $12 $-1 $13 #
body $-1 $14 $-1 $15 #
body $-1 $16 $-1 $17 #
lump $-1 $-1 $18 $0 #
transform $-1 1 0 0 0 1 0 0 0 1 54.966277047029024 34.617498589465448 11.010471161520735 1 rotate no_reflect no_shear #
lump $-1 $-1 $19 $1 #
transform $-1 1 0 0 0 1 0 0 0 1 54.966277047029024 34.617498589465448 11.010471161520735 1 rotate no_reflect no_shear #
lump $-1 $-1 $20 $2 #
transform $-1 1 0 0 0 1 0 0 0 1 54.966277047029024 34.617498589465448 11.010471161520735 1 rotate no_reflect no_shear #
lump $-1 $-1 $21 $3 #
transform $-1 1 0 0 0 1 0 0 0 1 54.966277047029024 34.617498589465448 11.010471161520735 1 rotate no_reflect no_shear #
lump $-1 $-1 $22 $4 #
transform $-1 1 0 0 0 1 0 0 0 1 54.966277047029024 34.617498589465448 11.010471161520735 1 rotate no_reflect no_shear #
lump $-1 $-1 $23 $5 #
transform $-1 1 0 0 0 1 0 0 0 1 54.966277047029024 34.617498589465448 11.010471161520735 1 rotate no_reflect no_shear #
shell $-1 $-1 $-1 $24 $-1 $6 #
shell $-1 $-1 $-1 $25 $-1 $8 #
shell $-1 $-1 $-1 $26 $-1 $10 #
shell $-1 $-1 $-1 $27 $-1 $12 #
shell $-1 $-1 $-1 $28 $-1 $14 #
shell $-1 $-1 $-1 $29 $-1 $16 #
face $-1 $30 $31 $18 $-1 $32 forward single #
face $-1 $33 $34 $19 $-1 $35 forward single #
face $-1 $36 $37 $20 $-1 $38 forward single #
face $-1 $39 $40 $21 $-1 $41 reversed single #
face $-1 $42 $43 $22 $-1 $44 forward single #
face $-1 $45 $46 $23 $-1 $47 forward single #
face $-1 $48 $49 $18 $-1 $50 reversed single #
loop $-1 $-1 $51 $24 #
plane-surface $-1 0 0 11.010471161520735 0 0 1 1 0 0 forward_v I I I I #
face $-1 $52 $53 $19 $-1 $54 reversed single #
loop $-1 $-1 $55 $25 #
plane-surface $-1 -48.419470450937197 0 -4.972470847138398 0 0 1 1 0 0 forward_v I I I I #
face $-1 $56 $57 $20 $-1 $58 reversed single #
loop $-1 $-1 $59 $26 #
plane-surface $-1 48.419470450937197 0 -4.972470847138398 0 0 1 1 0 0 forward_v I I I I #
face $-1 $60 $61 $21 $-1 $62 reversed single #
loop $-1 $-1 $63 $27 #
plane-surface $-1 24.101029703738021 -125.75571726797853 65.283286496431373 1 0 0 0 0.82903758062907751 -0.55919289150049634 forward_v I I I I #
face $-1 $64 $65 $22 $-1 $66 forward single #
loop $-1 $67 $68 $28 #
cone-surface $-1 29.178639461197264 -30.401559074939989 6.2044589547462925 0 0.82903758062907751 -0.55919289150049634 1.5 0 0 1 I I 0 1 1.5 forward I I I I #
face $-1 $69 $70 $23 $-1 $71 forward single #
loop $-1 $72 $73 $29 #
cone-surface $-1 36.795054097386128 -30.401559074939989 6.2044589547462925 0 0.82903758062907751 -0.55919289150049634 1.5 0 0 1 I I 0 1 1.5 forward I I I I #
face $-1 $74 $75 $18 $-1 $76 reversed single #
loop $-1 $-1 $77 $30 #
plane-surface $-1 0 0 -11.010471161520735 0 0 1 1 0 0 forward_v I I I I #
coedge $-1 $78 $79 $80 $81 forward $31 $-1 #
face $-1 $82 $83 $19 $-1 $84 reversed single #
loop $-1 $-1 $85 $33 #
plane-surface $-1 -41.872663854845371 0 -7.9914710043295667 -1 0 0 0 0 1 forward_v I I I I #
coedge $-1 $86 $87 $88 $89 forward $34 $-1 #
face $-1 $90 $91 $20 $-1 $92 reversed single #
loop $-1 $-1 $93 $36 #
plane-surface $-1 41.872663854845371 0 -7.9914710043295667 1 0 0 0 0 -1 forward_v I I I I #
coedge $-1 $94 $95 $96 $97 reversed $37 $-1 #
face $-1 $98 $99 $21 $-1 $100 reversed single #
loop $-1 $-1 $101 $39 #
plane-surface $-1 32.986846779291696 -34.617498589465455 3.8097837025403294 0 -0.82903758062907751 0.55919289150049634 1 0 0 forward_v I I I I #
coedge $-1 $102 $103 $104 $105 reversed $40 $-1 #
face $-1 $-1 $106 $22 $-1 $107 forward single #
loop $-1 $108 $109 $42 #
cone-surface $-1 29.178639461197264 -27.992303808408778 4.5793958088366757 0 0.82903758062907751 -0.55919289150049634 0.75 0 0 1 I I -0.70710678118654757 0.70710678118654757 0.75 forward I I I I #
loop $-1 $-1 $110 $28 #
coedge $-1 $68 $68 $111 $112 reversed $43 $-1 #
face $-1 $-1 $113 $23 $-1 $114 forward single #
loop $-1 $115 $116 $45 #
cone-surface $-1 36.795054097386128 -27.992303808408778 4.5793958088366757 0 0.82903758062907751 -0.55919289150049634 0.75 0 0 1 I I -0.70710678118654757 0.70710678118654757 0.75 forward I I I I #
loop $-1 $-1 $117 $29 #
coedge $-1 $73 $73 $118 $119 reversed $46 $-1 #
face $-1 $120 $121 $18 $-1 $122 reversed single #
loop $-1 $-1 $123 $48 #
plane-surface $-1 0 -34.617498589465448 0 0 1 0 0 0 1 forward_v I I I I #
coedge $-1 $124 $125 $126 $127 forward $49 $-1 #
coedge $-1 $128 $51 $129 $130 forward $31 $-1 #
coedge $-1 $51 $128 $131 $132 forward $31 $-1 #
coedge $-1 $133 $134 $51 $81 reversed $135 $-1 #
edge $-1 $136 -34.617498589465448 $137 34.617498589465448 $80 $138 forward 7 unknown #
face $-1 $139 $140 $19 $-1 $141 reversed single #
loop $-1 $-1 $142 $52 #
plane-surface $-1 0 0 -11.010471161520735 0 0 1 1 0 0 forward_v I I I I #
coedge $-1 $143 $88 $144 $145 reversed $53 $-1 #
coedge $-1 $146 $55 $147 $148 reversed $34 $-1 #
coedge $-1 $55 $146 $149 $150 reversed $34 $-1 #
coedge $-1 $85 $151 $55 $89 reversed $53 $-1 #
edge $-1 $152 -34.617498589465448 $153 34.617498589465448 $88 $154 forward 7 unknown #
face $-1 $155 $156 $20 $-1 $157 reversed single #
loop $-1 $-1 $158 $56 #
plane-surface $-1 0 -34.617498589465448 0 0 1 0 0 0 1 forward_v I I I I #
coedge $-1 $159 $160 $161 $162 reversed $57 $-1 #
coedge $-1 $163 $59 $164 $165 reversed $37 $-1 #
coedge $-1 $59 $163 $158 $166 reversed $37 $-1 #
coedge $-1 $167 $168 $59 $97 forward $169 $-1 #
edge $-1 $170 -34.617498589465448 $171 34.617498589465448 $96 $172 forward 7 unknown #
face $-1 $173 $174 $21 $-1 $175 forward single #
loop $-1 $-1 $176 $60 #
plane-surface $-1 41.872663854845371 -125.75571726797853 65.283286496431373 -1 0 0 0 -0.82903758062907751 0.55919289150049634 forward_v I I I I #
coedge $-1 $177 $178 $179 $180 reversed $61 $-1 #
coedge $-1 $103 $63 $181 $182 reversed $40 $-1 #
coedge $-1 $63 $102 $177 $183 reversed $40 $-1 #
coedge $-1 $179 $184 $63 $105 forward $185 $-1 #
edge $-1 $186 21.631172086694953 $187 28.831859545675346 $104 $188 forward 7 unknown #
loop $-1 $-1 $111 $64 #
plane-surface $-1 32.986846779291696 -34.617498589465455 3.8097837025403294 0 -0.82903758062907751 0.55919289150049634 1 0 0 forward_v I I I I #
loop $-1 $-1 $189 $42 #
coedge $-1 $109 $109 $110 $190 reversed $65 $-1 #
coedge $-1 $110 $110 $109 $190 forward $67 $-1 #
coedge $-1 $111 $111 $68 $112 forward $106 $-1 #
edge $-1 $191 0 $191 6.2831853071796004 $111 $192 forward 7 unknown #
loop $-1 $-1 $118 $69 #
plane-surface $-1 32.986846779291696 -34.617498589465455 3.8097837025403294 0 -0.82903758062907751 0.55919289150049634 1 0 0 forward_v I I I I #
loop $-1 $-1 $193 $45 #
coedge $-1 $116 $116 $117 $194 reversed $70 $-1 #
coedge $-1 $117 $117 $116 $194 forward $72 $-1 #
coedge $-1 $118 $118 $73 $119 forward $113 $-1 #
edge $-1 $195 0 $195 6.2831853071796004 $118 $196 forward 7 unknown #
face $-1 $197 $198 $18 $-1 $199 reversed single #
loop $-1 $-1 $200 $74 #
plane-surface $-1 -54.966277047029024 0 0 1 0 0 0 0 -1 forward_v I I I I #
coedge $-1 $201 $131 $202 $203 forward $75 $-1 #
coedge $-1 $204 $77 $201 $205 forward $49 $-1 #
coedge $-1 $77 $204 $206 $207 forward $49 $-1 #
coedge $-1 $134 $133 $77 $127 reversed $135 $-1 #
edge $-1 $208 -34.617498589465448 $209 34.617498589465448 $126 $210 forward 7 unknown #
coedge $-1 $79 $78 $211 $212 forward $31 $-1 #
coedge $-1 $213 $214 $78 $130 reversed $198 $-1 #
edge $-1 $137 -54.966277047029024 $215 54.966277047029024 $129 $216 forward 7 unknown #
coedge $-1 $123 $217 $79 $132 reversed $75 $-1 #
edge $-1 $218 -54.966277047029024 $136 54.966277047029024 $131 $219 forward 7 unknown #
coedge $-1 $126 $80 $217 $220 forward $135 $-1 #
coedge $-1 $80 $126 $213 $221 reversed $135 $-1 #
loop $-1 $-1 $133 $197 #
vertex $-1 $81 $222 #
vertex $-1 $81 $223 #
straight-curve $-1 54.966277047029024 0 11.010471161520735 0 1 0 I I #
face $-1 $224 $225 $19 $-1 $226 reversed single #
loop $-1 $-1 $144 $82 #
plane-surface $-1 0 -34.617498589465448 0 0 1 0 0 0 1 forward_v I I I I #
coedge $-1 $227 $228 $143 $229 forward $83 $-1 #
coedge $-1 $151 $85 $142 $229 reversed $53 $-1 #
coedge $-1 $149 $230 $85 $145 forward $140 $-1 #
edge $-1 $231 -7.014735659355952 $152 -0.97673534497361469 $144 $232 forward 7 unknown #
coedge $-1 $87 $86 $233 $234 reversed $34 $-1 #
coedge $-1 $235 $236 $86 $148 forward $237 $-1 #
edge $-1 $238 -30.756541821560425 $153 -17.662928629376772 $147 $239 forward 7 unknown #
coedge $-1 $240 $144 $87 $150 forward $140 $-1 #
edge $-1 $152 17.662928629376772 $241 30.756541821560425 $149 $242 forward 7 unknown #
coedge $-1 $88 $143 $235 $243 reversed $53 $-1 #
vertex $-1 $150 $244 #
vertex $-1 $148 $245 #
straight-curve $-1 -41.872663854845371 0 -4.972470847138398 0 1 0 I I #
face $-1 $246 $247 $20 $-1 $248 reversed single #
loop $-1 $-1 $249 $90 #
plane-surface $-1 0 0 -11.010471161520735 0 0 1 1 0 0 forward_v I I I I #
coedge $-1 $250 $251 $95 $166 forward $91 $-1 #
coedge $-1 $252 $93 $249 $253 reversed $57 $-1 #
coedge $-1 $93 $252 $163 $254 reversed $57 $-1 #
coedge $-1 $164 $255 $93 $162 forward $247 $-1 #
edge $-1 $256 -7.014735659355952 $257 -0.97673534497361469 $161 $258 forward 7 unknown #
coedge $-1 $95 $94 $160 $254 forward $37 $-1 #
coedge $-1 $259 $161 $94 $165 forward $247 $-1 #
edge $-1 $257 17.662928629376772 $170 30.756541821560425 $164 $260 forward 7 unknown #
edge $-1 $171 -30.756541821560425 $261 -17.662928629376772 $158 $262 forward 7 unknown #
coedge $-1 $263 $96 $251 $264 forward $169 $-1 #
coedge $-1 $96 $263 $259 $265 reversed $169 $-1 #
loop $-1 $-1 $96 $246 #
vertex $-1 $265 $266 #
vertex $-1 $264 $267 #
straight-curve $-1 54.966277047029024 0 -4.972470847138398 0 -1 0 I I #
face $-1 $-1 $185 $21 $-1 $268 reversed single #
loop $-1 $-1 $269 $98 #
plane-surface $-1 0 0 11.010471161520735 0 0 1 1 0 0 forward_v I I I I #
coedge $-1 $270 $271 $272 $273 reversed $99 $-1 #
coedge $-1 $274 $101 $103 $183 forward $61 $-1 #
coedge $-1 $101 $274 $270 $275 forward $61 $-1 #
coedge $-1 $272 $104 $101 $180 forward $185 $-1 #
edge $-1 $187 7.6076063140921732 $276 25.379240465199523 $179 $277 forward 7 unknown #
coedge $-1 $278 $279 $102 $182 forward $174 $-1 #
edge $-1 $280 -33.117284911455933 $186 -28.260360044523814 $181 $281 forward 7 unknown #
edge $-1 $187 1.2809303928265426e-014 $280 8.6855983699996937 $103 $282 forward 7 unknown #
coedge $-1 $104 $272 $278 $283 reversed $185 $-1 #
loop $-1 $-1 $272 $173 #
vertex $-1 $283 $284 #
vertex $-1 $105 $285 #
straight-curve $-1 24.101029703738021 -34.617498589465448 32.641643248215686 0 0 -1 I I #
coedge $-1 $189 $189 $-1 $286 reversed $108 $-1 #
edge $-1 $287 0 $287 6.2831853071796004 $109 $288 forward 7 unknown #
vertex $-1 $112 $289 #
ellipse-curve $-1 29.178639461197264 -32.189036155999389 7.4101274320305359 0 -0.82903758062907751 0.55919289150049634 1.5 0 0 1 I I #
coedge $-1 $193 $193 $-1 $290 reversed $115 $-1 #
edge $-1 $291 0 $291 6.2831853071796004 $116 $292 forward 7 unknown #
vertex $-1 $119 $293 #
ellipse-curve $-1 36.795054097386128 -32.189036155999389 7.4101274320305359 0 -0.82903758062907751 0.55919289150049634 1.5 0 0 1 I I #
face $-1 $-1 $135 $18 $-1 $294 reversed single #
loop $-1 $-1 $213 $120 #
plane-surface $-1 0 34.617498589465448 0 0 -1 0 0 0 -1 forward_v I I I I #
coedge $-1 $295 $211 $214 $296 forward $121 $-1 #
coedge $-1 $217 $123 $124 $205 reversed $75 $-1 #
coedge $-1 $211 $295 $123 $203 reversed $121 $-1 #
edge $-1 $218 -11.010471161520735 $297 11.010471161520735 $202 $298 forward 7 unknown #
coedge $-1 $125 $124 $295 $299 forward $49 $-1 #
edge $-1 $209 -54.966277047029024 $297 54.966277047029024 $201 $300 forward 7 unknown #
coedge $-1 $214 $213 $125 $207 reversed $198 $-1 #
edge $-1 $301 -54.966277047029024 $208 54.966277047029024 $206 $302 forward 7 unknown #
vertex $-1 $127 $303 #
vertex $-1 $220 $304 #
straight-curve $-1 54.966277047029024 0 -11.010471161520735 0 -1 0 I I #
coedge $-1 $200 $202 $128 $212 reversed $121 $-1 #
edge $-1 $215 -34.617498589465448 $218 34.617498589465448 $211 $305 forward 7 unknown #
coedge $-1 $206 $129 $134 $221 forward $198 $-1 #
coedge $-1 $129 $206 $200 $296 reversed $198 $-1 #
vertex $-1 $130 $306 #
straight-curve $-1 0 34.617498589465448 11.010471161520735 -1 0 0 I I #
coedge $-1 $131 $201 $133 $220 reversed $75 $-1 #
vertex $-1 $212 $307 #
straight-curve $-1 0 -34.617498589465448 11.010471161520735 1 0 0 I I #
edge $-1 $136 -11.010471161520735 $209 11.010471161520735 $133 $308 forward 7 unknown #
edge $-1 $137 -11.010471161520735 $208 11.010471161520735 $134 $309 forward 7 unknown #
point $-1 54.966277047029024 -34.617498589465448 11.010471161520735 #
point $-1 54.966277047029024 34.617498589465448 11.010471161520735 #
face $-1 $-1 $237 $19 $-1 $310 reversed single #
loop $-1 $-1 $233 $139 #
plane-surface $-1 -54.966277047029024 0 0 1 0 0 0 0 -1 forward_v I I I I #
coedge $-1 $311 $142 $230 $312 forward $83 $-1 #
coedge $-1 $142 $311 $313 $314 forward $83 $-1 #
edge $-1 $315 -34.617498589465448 $231 34.617498589465448 $142 $316 forward 7 unknown #
coedge $-1 $144 $240 $227 $312 reversed $140 $-1 #
vertex $-1 $312 $317 #
straight-curve $-1 -41.872663854845371 -34.617498589465448 -3.9957355021647833 0 0 1 I I #
coedge $-1 $318 $319 $146 $234 forward $225 $-1 #
edge $-1 $241 -34.617498589465448 $238 34.617498589465448 $233 $320 forward 7 unknown #
coedge $-1 $313 $147 $151 $243 forward $237 $-1 #
coedge $-1 $147 $313 $318 $321 reversed $237 $-1 #
loop $-1 $-1 $235 $224 #
vertex $-1 $321 $322 #
straight-curve $-1 -24.209735225468599 34.617498589465448 -4.972470847138398 1 0 0 I I #
coedge $-1 $230 $149 $319 $323 forward $140 $-1 #
vertex $-1 $323 $324 #
straight-curve $-1 -24.209735225468599 -34.617498589465448 -4.972470847138398 -1 0 0 I I #
edge $-1 $153 0.97673534497361469 $315 7.014735659355952 $235 $325 forward 7 unknown #
point $-1 -41.872663854845371 -34.617498589465448 -4.972470847138398 #
point $-1 -41.872663854845371 34.617498589465448 -4.972470847138398 #
face $-1 $-1 $169 $20 $-1 $326 reversed single #
loop $-1 $-1 $164 $155 #
plane-surface $-1 0 34.617498589465448 0 0 -1 0 0 0 -1 forward_v I I I I #
coedge $-1 $327 $328 $159 $253 forward $156 $-1 #
coedge $-1 $329 $158 $252 $330 forward $91 $-1 #
coedge $-1 $158 $329 $167 $264 reversed $91 $-1 #
coedge $-1 $160 $159 $250 $330 reversed $57 $-1 #
edge $-1 $331 -34.617498589465448 $256 34.617498589465448 $249 $332 forward 7 unknown #
edge $-1 $257 -34.617498589465448 $261 34.617498589465448 $160 $333 forward 7 unknown #
coedge $-1 $161 $259 $327 $334 reversed $247 $-1 #
vertex $-1 $334 $335 #
vertex $-1 $165 $336 #
straight-curve $-1 41.872663854845371 34.617498589465448 -3.9957355021647833 0 0 1 I I #
coedge $-1 $255 $164 $168 $265 forward $247 $-1 #
straight-curve $-1 24.209735225468599 34.617498589465448 -4.972470847138398 1 0 0 I I #
vertex $-1 $166 $337 #
straight-curve $-1 24.209735225468599 -34.617498589465448 -4.972470847138398 -1 0 0 I I #
coedge $-1 $168 $167 $338 $339 reversed $169 $-1 #
edge $-1 $171 4.972470847138398 $340 11.010471161520735 $167 $341 forward 7 unknown #
edge $-1 $170 4.972470847138398 $342 11.010471161520735 $168 $343 forward 7 unknown #
point $-1 54.966277047029024 34.617498589465448 -4.972470847138398 #
point $-1 54.966277047029024 -34.617498589465448 -4.972470847138398 #
plane-surface $-1 0 -34.617498589465448 0 0 1 0 0 0 1 forward_v I I I I #
coedge $-1 $279 $278 $271 $344 forward $174 $-1 #
coedge $-1 $271 $176 $178 $275 reversed $99 $-1 #
coedge $-1 $176 $270 $269 $344 reversed $99 $-1 #
coedge $-1 $184 $179 $176 $273 forward $185 $-1 #
edge $-1 $276 -28.831859545675346 $345 -21.631172086694953 $272 $346 forward 7 unknown #
coedge $-1 $178 $177 $279 $347 reversed $61 $-1 #
edge $-1 $348 -8.6855983699996937 $276 -1.2809303928265426e-014 $270 $349 forward 7 unknown #
vertex $-1 $180 $350 #
straight-curve $-1 16.493423389645848 -34.617498589465448 3.8097837025403427 1 0 0 I I #
coedge $-1 $269 $181 $184 $283 forward $174 $-1 #
coedge $-1 $181 $269 $274 $347 forward $174 $-1 #
vertex $-1 $182 $351 #
straight-curve $-1 24.101029703738021 -62.877858633989263 11.010471161520734 0 -1 0 I I #
straight-curve $-1 24.101029703738021 -34.617498589465455 3.8097837025403294 0 0.55919289150049634 0.82903758062907751 I I #
edge $-1 $186 24.101029703738021 $345 41.872663854845371 $184 $352 forward 7 unknown #
point $-1 24.101029703738021 -34.617498589465448 11.010471161520735 #
point $-1 24.101029703738021 -34.617498589465448 3.80978370254034 #
edge $-1 $353 1 $353 0 $189 $-1 forward 7 unknown #
vertex $-1 $190 $354 #
ellipse-curve $-1 29.178639461197264 -28.614081993880585 4.9987904774620482 0 -0.82903758062907751 0.55919289150049634 1.5 0 0 1 I I #
point $-1 30.678639461197264 -32.189036155999389 7.4101274320305359 #
edge $-1 $355 1 $355 0 $193 $-1 forward 7 unknown #
vertex $-1 $194 $356 #
ellipse-curve $-1 36.795054097386128 -28.614081993880585 4.9987904774620482 0 -0.82903758062907751 0.55919289150049634 1.5 0 0 1 I I #
point $-1 38.295054097386128 -32.189036155999389 7.4101274320305359 #
plane-surface $-1 54.966277047029024 0 0 -1 0 0 0 0 1 forward_v I I I I #
coedge $-1 $202 $200 $204 $299 reversed $121 $-1 #
edge $-1 $215 -11.010471161520735 $301 11.010471161520735 $214 $357 forward 7 unknown #
vertex $-1 $299 $358 #
straight-curve $-1 -54.966277047029024 -34.617498589465448 0 0 0 -1 I I #
edge $-1 $297 -34.617498589465448 $301 34.617498589465448 $295 $359 forward 7 unknown #
straight-curve $-1 0 -34.617498589465448 -11.010471161520735 -1 0 0 I I #
vertex $-1 $207 $360 #
straight-curve $-1 0 34.617498589465448 -11.010471161520735 1 0 0 I I #
point $-1 54.966277047029024 34.617498589465448 -11.010471161520735 #
point $-1 54.966277047029024 -34.617498589465448 -11.010471161520735 #
straight-curve $-1 -54.966277047029024 0 11.010471161520735 0 -1 0 I I #
point $-1 -54.966277047029024 34.617498589465448 11.010471161520735 #
point $-1 -54.966277047029024 -34.617498589465448 11.010471161520735 #
straight-curve $-1 54.966277047029024 -34.617498589465448 0 0 0 -1 I I #
straight-curve $-1 54.966277047029024 34.617498589465448 0 0 0 -1 I I #
plane-surface $-1 0 34.617498589465448 0 0 -1 0 0 0 -1 forward_v I I I I #
coedge $-1 $228 $227 $361 $362 forward $83 $-1 #
edge $-1 $231 41.872663854845371 $363 54.966277047029024 $230 $364 forward 7 unknown #
coedge $-1 $236 $235 $228 $314 reversed $237 $-1 #
edge $-1 $365 -54.966277047029024 $315 -41.872663854845371 $313 $366 forward 7 unknown #
vertex $-1 $243 $367 #
straight-curve $-1 -41.872663854845371 0 -11.010471161520735 0 -1 0 I I #
point $-1 -41.872663854845371 -34.617498589465448 -11.010471161520735 #
coedge $-1 $361 $233 $236 $321 forward $225 $-1 #
coedge $-1 $233 $361 $240 $323 reversed $225 $-1 #
straight-curve $-1 -54.966277047029024 0 -4.972470847138398 0 1 0 I I #
edge $-1 $238 4.972470847138398 $365 11.010471161520735 $236 $368 forward 7 unknown #
point $-1 -54.966277047029024 34.617498589465448 -4.972470847138398 #
edge $-1 $241 4.972470847138398 $363 11.010471161520735 $319 $369 forward 7 unknown #
point $-1 -54.966277047029024 -34.617498589465448 -4.972470847138398 #
straight-curve $-1 -41.872663854845371 34.617498589465448 -3.9957355021647833 0 0 -1 I I #
plane-surface $-1 54.966277047029024 0 0 -1 0 0 0 0 1 forward_v I I I I #
coedge $-1 $338 $249 $255 $334 forward $156 $-1 #
coedge $-1 $249 $338 $329 $370 forward $156 $-1 #
coedge $-1 $251 $250 $328 $370 reversed $91 $-1 #
edge $-1 $261 0.97673534497361469 $331 7.014735659355952 $250 $371 forward 7 unknown #
vertex $-1 $253 $372 #
straight-curve $-1 41.872663854845371 0 -11.010471161520735 0 1 0 I I #
straight-curve $-1 41.872663854845371 0 -4.972470847138398 0 -1 0 I I #
edge $-1 $256 41.872663854845371 $342 54.966277047029024 $255 $373 forward 7 unknown #
point $-1 41.872663854845371 34.617498589465448 -11.010471161520735 #
point $-1 41.872663854845371 34.617498589465448 -4.972470847138398 #
point $-1 41.872663854845371 -34.617498589465448 -4.972470847138398 #
coedge $-1 $328 $327 $263 $339 forward $156 $-1 #
edge $-1 $342 -34.617498589465448 $340 34.617498589465448 $263 $374 forward 7 unknown #
vertex $-1 $264 $375 #
straight-curve $-1 54.966277047029024 -34.617498589465448 0 0 0 -1 I I #
vertex $-1 $339 $376 #
straight-curve $-1 54.966277047029024 34.617498589465448 0 0 0 -1 I I #
edge $-1 $345 28.260360044523814 $348 33.117284911455933 $269 $377 forward 7 unknown #
vertex $-1 $344 $378 #
straight-curve $-1 41.872663854845371 -34.617498589465448 32.641643248215686 0 0 1 I I #
edge $-1 $348 -25.379240465199523 $280 -7.6076063140921732 $279 $379 forward 7 unknown #
vertex $-1 $347 $380 #
straight-curve $-1 41.872663854845371 -34.617498589465455 3.8097837025403294 0 -0.55919289150049634 -0.82903758062907751 I I #
point $-1 41.872663854845371 -34.617498589465448 3.80978370254034 #
point $-1 24.101029703738021 -29.76057372253333 11.010471161520734 #
straight-curve $-1 0 -34.617498589465448 11.010471161520735 1 0 0 I I #
vertex $-1 $286 $381 #
point $-1 30.678639461197264 -28.614081993880585 4.9987904774620482 #
vertex $-1 $290 $382 #
point $-1 38.295054097386128 -28.614081993880585 4.9987904774620482 #
straight-curve $-1 -54.966277047029024 34.617498589465448 0 0 0 -1 I I #
point $-1 -54.966277047029024 -34.617498589465448 -11.010471161520735 #
straight-curve $-1 -54.966277047029024 0 -11.010471161520735 0 1 0 I I #
point $-1 -54.966277047029024 34.617498589465448 -11.010471161520735 #
coedge $-1 $319 $318 $311 $362 reversed $225 $-1 #
edge $-1 $363 -34.617498589465448 $365 34.617498589465448 $361 $383 forward 7 unknown #
vertex $-1 $362 $384 #
straight-curve $-1 0 -34.617498589465448 -11.010471161520735 -1 0 0 I I #
vertex $-1 $314 $385 #
straight-curve $-1 0 34.617498589465448 -11.010471161520735 1 0 0 I I #
point $-1 -41.872663854845371 34.617498589465448 -11.010471161520735 #
straight-curve $-1 -54.966277047029024 34.617498589465448 0 0 0 -1 I I #
straight-curve $-1 -54.966277047029024 -34.617498589465448 0 0 0 -1 I I #
edge $-1 $340 -54.966277047029024 $331 -41.872663854845371 $329 $386 forward 7 unknown #
straight-curve $-1 41.872663854845371 -34.617498589465448 -3.9957355021647833 0 0 -1 I I #
point $-1 41.872663854845371 -34.617498589465448 -11.010471161520735 #
straight-curve $-1 0 34.617498589465448 -11.010471161520735 1 0 0 I I #
straight-curve $-1 54.966277047029024 0 -11.010471161520735 0 -1 0 I I #
point $-1 54.966277047029024 -34.617498589465448 -11.010471161520735 #
point $-1 54.966277047029024 34.617498589465448 -11.010471161520735 #
straight-curve $-1 41.872663854845371 -62.877858633989263 11.010471161520734 0 1 0 I I #
point $-1 41.872663854845371 -34.617498589465448 11.010471161520735 #
straight-curve $-1 16.493423389645848 -29.760573722533326 11.010471161520735 -1 0 0 I I #
point $-1 41.872663854845371 -29.76057372253333 11.010471161520734 #
point $-1 29.178639461197264 -27.37052562293697 4.1600011402113033 #
point $-1 36.795054097386128 -27.37052562293697 4.1600011402113033 #
straight-curve $-1 -54.966277047029024 0 -11.010471161520735 0 1 0 I I #
point $-1 -54.966277047029024 -34.617498589465448 -11.010471161520735 #
point $-1 -54.966277047029024 34.617498589465448 -11.010471161520735 #
straight-curve $-1 0 -34.617498589465448 -11.010471161520735 -1 0 0 I I #
End-of-ACIS-data 