500 0 8 0           
7 Unknown 11 ACIS 5.0 NT 24 Thu Mar 25 23:11:10 1999 
-1 9.9999999999999995e-007 1e-010 
body $-1 $8 $-1 $9 #
body $-1 $10 $-1 $11 #
body $-1 $12 $-1 $13 #
body $-1 $14 $-1 $15 #
body $-1 $16 $-1 $17 #
body $-1 $18 $-1 $19 #
body $-1 $20 $-1 $21 #
body $-1 $22 $-1 $23 #
lump $-1 $-1 $24 $0 #
transform $-1 1 0 0 0 1 0 0 0 1 70.739463484603419 36.356548013513972 13.017545953518782 1 rotate no_reflect no_shear #
lump $-1 $-1 $25 $1 #
transform $-1 1 0 0 0 1 0 0 0 1 70.739463484603419 36.356548013513972 13.017545953518782 1 rotate no_reflect no_shear #
lump $-1 $-1 $26 $2 #
transform $-1 1 0 0 0 1 0 0 0 1 70.739463484603419 36.356548013513972 13.017545953518782 1 rotate no_reflect no_shear #
lump $-1 $-1 $27 $3 #
transform $-1 1 0 0 0 1 0 0 0 1 70.739463484603419 36.356548013513972 13.017545953518782 1 rotate no_reflect no_shear #
lump $-1 $-1 $28 $4 #
transform $-1 1 0 0 0 1 0 0 0 1 70.739463484603419 36.356548013513972 13.017545953518782 1 rotate no_reflect no_shear #
lump $-1 $-1 $29 $5 #
transform $-1 1 0 0 0 1 0 0 0 1 70.739463484603419 36.356548013513972 13.017545953518782 1 rotate no_reflect no_shear #
lump $-1 $-1 $30 $6 #
transform $-1 1 0 0 0 1 0 0 0 1 70.739463484603419 36.356548013513972 13.017545953518782 1 rotate no_reflect no_shear #
lump $-1 $-1 $31 $7 #
transform $-1 1 0 0 0 1 0 0 0 1 70.739463484603419 36.356548013513972 13.017545953518782 1 rotate no_reflect no_shear #
shell $-1 $-1 $-1 $32 $-1 $8 #
shell $-1 $-1 $-1 $33 $-1 $10 #
shell $-1 $-1 $-1 $34 $-1 $12 #
shell $-1 $-1 $-1 $35 $-1 $14 #
shell $-1 $-1 $-1 $36 $-1 $16 #
shell $-1 $-1 $-1 $37 $-1 $18 #
shell $-1 $-1 $-1 $38 $-1 $20 #
shell $-1 $-1 $-1 $39 $-1 $22 #
face $-1 $40 $41 $24 $-1 $42 forward single #
face $-1 $43 $44 $25 $-1 $45 forward single #
face $-1 $46 $47 $26 $-1 $48 forward single #
face $-1 $49 $50 $27 $-1 $51 reversed single #
face $-1 $52 $53 $28 $-1 $54 forward single #
face $-1 $55 $56 $29 $-1 $57 forward single #
face $-1 $58 $59 $30 $-1 $60 reversed single #
face $-1 $61 $62 $31 $-1 $63 forward single #
face $-1 $64 $65 $24 $-1 $66 reversed single #
loop $-1 $-1 $67 $32 #
plane-surface $-1 0 0 13.017545953518782 0 0 1 1 0 0 forward_v I I I I #
face $-1 $68 $69 $25 $-1 $70 forward single #
loop $-1 $-1 $71 $33 #
plane-surface $-1 0 -36.356548013513972 0 0 1 0 0 0 1 forward_v I I I I #
face $-1 $72 $73 $26 $-1 $74 forward single #
loop $-1 $-1 $75 $34 #
plane-surface $-1 0 36.356548013513972 0 0 -1 0 0 0 -1 forward_v I I I I #
face $-1 $76 $77 $27 $-1 $78 reversed single #
loop $-1 $-1 $79 $35 #
plane-surface $-1 105.48323977970304 -9.7329563187153543 200.750121035257 0 -1 0 -0.81915205242281985 0 -0.57357642473473569 forward_v I I I I #
face $-1 $80 $81 $28 $-1 $82 forward single #
loop $-1 $83 $84 $36 #
cone-surface $-1 66.598567881649359 -16.592753385316787 7.7455775578225738 -0.81915205242281985 0 -0.57357642473473569 0.57357642473473569 0 -0.81915205242281985 1 I I 0 1 1 forward I I I I #
face $-1 $85 $86 $29 $-1 $87 forward single #
loop $-1 $88 $89 $37 #
cone-surface $-1 66.598567881649359 -12.476875145355926 7.7455775578225738 -0.81915205242281985 0 -0.57357642473473569 0.57357642473473569 0 -0.81915205242281985 1 I I 0 1 1 forward I I I I #
face $-1 $90 $91 $30 $-1 $92 reversed single #
loop $-1 $-1 $93 $38 #
plane-surface $-1 -192.01057452950008 -7.2790832818653648 77.055404165945063 0 1 0 -0.85716730853699208 0 0.51503806187062418 forward_v I I I I #
face $-1 $94 $95 $31 $-1 $96 forward single #
loop $-1 $97 $98 $39 #
cone-surface $-1 -67.330321368049965 -4.2648746723021915 8.1483533532560521 0.85716730853699208 0 -0.51503806187062418 0.77255709280593621 0 1.2857509628054882 1 I I 0 1 1.5 forward I I I I #
face $-1 $99 $100 $24 $-1 $101 reversed single #
loop $-1 $-1 $102 $40 #
plane-surface $-1 0 0 -13.017545953518782 0 0 1 1 0 0 forward_v I I I I #
coedge $-1 $103 $104 $105 $106 forward $41 $-1 #
face $-1 $107 $108 $25 $-1 $109 reversed single #
loop $-1 $-1 $110 $43 #
plane-surface $-1 0 0 13.017545953518782 0 0 1 1 0 0 forward_v I I I I #
coedge $-1 $111 $112 $113 $114 forward $44 $-1 #
face $-1 $115 $116 $26 $-1 $117 reversed single #
loop $-1 $-1 $118 $46 #
plane-surface $-1 0 0 13.017545953518782 0 0 1 1 0 0 forward_v I I I I #
coedge $-1 $119 $120 $121 $122 forward $47 $-1 #
face $-1 $123 $124 $27 $-1 $125 reversed single #
loop $-1 $-1 $126 $49 #
plane-surface $-1 -10.409513621700981 -14.534814265336358 119.60114392895257 0.81915205242281985 0 0.57357642473473569 0.57357642473473569 0 -0.81915205242281985 forward_v I I I I #
coedge $-1 $127 $128 $129 $130 reversed $50 $-1 #
face $-1 $-1 $131 $28 $-1 $132 forward single #
loop $-1 $133 $134 $52 #
cone-surface $-1 65.307266555930738 -16.592753385316787 6.8413986627441208 -0.81915205242281985 0 -0.57357642473473569 0.28678821236736785 0 -0.40957602621140993 1 I I -0.70710678118654746 0.70710678118654746 0.5 forward I I I I #
loop $-1 $-1 $135 $36 #
coedge $-1 $84 $84 $136 $137 reversed $53 $-1 #
face $-1 $-1 $138 $29 $-1 $139 forward single #
loop $-1 $140 $141 $55 #
cone-surface $-1 65.307266555930738 -12.476875145355926 6.8413986627441208 -0.81915205242281985 0 -0.57357642473473569 0.28678821236736785 0 -0.40957602621140993 1 I I -0.70710678118654746 0.70710678118654746 0.5 forward I I I I #
loop $-1 $-1 $142 $37 #
coedge $-1 $89 $89 $143 $144 reversed $56 $-1 #
face $-1 $145 $146 $30 $-1 $147 reversed single #
loop $-1 $-1 $148 $58 #
plane-surface $-1 -70.739463484603391 -4.2648746723021844 4.1883718241891899 -0.85716730853699208 0 0.51503806187062418 0.51503806187062418 0 0.85716730853699208 forward_v I I I I #
coedge $-1 $149 $150 $151 $152 reversed $59 $-1 #
face $-1 $-1 $153 $31 $-1 $154 forward single #
loop $-1 $155 $156 $61 #
cone-surface $-1 -65.930855195118127 -4.2648746723021915 7.3074692712551457 0.85716730853699208 0 -0.51503806187062418 0.3862785464029681 0 0.64287548140274409 1 I I -0.70710678118654757 0.70710678118654757 0.75 forward I I I I #
loop $-1 $-1 $157 $39 #
coedge $-1 $98 $98 $158 $159 reversed $62 $-1 #
face $-1 $160 $161 $24 $-1 $162 reversed single #
loop $-1 $-1 $163 $64 #
plane-surface $-1 0 -36.356548013513972 0 0 1 0 0 0 1 forward_v I I I I #
coedge $-1 $164 $165 $166 $167 forward $65 $-1 #
coedge $-1 $168 $67 $169 $170 forward $41 $-1 #
coedge $-1 $67 $168 $171 $172 forward $41 $-1 #
coedge $-1 $173 $174 $67 $106 reversed $175 $-1 #
edge $-1 $176 -36.356548013513972 $177 36.356548013513972 $105 $178 forward 7 unknown #
face $-1 $179 $180 $25 $-1 $181 reversed single #
loop $-1 $-1 $182 $68 #
plane-surface $-1 -70.739463484603419 0 0 1 0 0 0 0 -1 forward_v I I I I #
coedge $-1 $183 $184 $112 $185 forward $69 $-1 #
coedge $-1 $186 $71 $187 $188 reversed $44 $-1 #
coedge $-1 $71 $186 $110 $185 reversed $44 $-1 #
coedge $-1 $189 $190 $71 $114 reversed $191 $-1 #
edge $-1 $192 -13.017545953518782 $193 13.017545953518782 $113 $194 forward 7 unknown #
face $-1 $195 $196 $26 $-1 $197 reversed single #
loop $-1 $-1 $198 $72 #
plane-surface $-1 -67.641703098466067 50.197679103460281 0 0 -1 0 0 0 -1 forward_v I I I I #
coedge $-1 $199 $200 $119 $201 forward $73 $-1 #
coedge $-1 $202 $75 $118 $201 reversed $47 $-1 #
coedge $-1 $75 $202 $203 $204 reversed $47 $-1 #
coedge $-1 $205 $206 $75 $122 reversed $196 $-1 #
edge $-1 $207 -13.017545953518782 $208 13.017545953518782 $121 $209 forward 7 unknown #
face $-1 $210 $211 $27 $-1 $212 forward single #
loop $-1 $-1 $213 $76 #
plane-surface $-1 105.48323977970304 -19.336672211957364 200.750121035257 0 1 0 0.81915205242281985 0 0.57357642473473569 forward_v I I I I #
coedge $-1 $214 $215 $216 $217 reversed $77 $-1 #
coedge $-1 $128 $79 $218 $219 reversed $50 $-1 #
coedge $-1 $79 $127 $214 $220 reversed $50 $-1 #
coedge $-1 $216 $221 $79 $130 forward $211 $-1 #
edge $-1 $222 -17.997843594751899 $223 -11.479502987858254 $129 $224 forward 7 unknown #
loop $-1 $-1 $136 $80 #
plane-surface $-1 -10.409513621700981 -14.534814265336358 119.60114392895257 0.81915205242281985 0 0.57357642473473569 0.57357642473473569 0 -0.81915205242281985 forward_v I I I I #
loop $-1 $-1 $225 $52 #
coedge $-1 $134 $134 $135 $226 reversed $81 $-1 #
coedge $-1 $135 $135 $134 $226 forward $83 $-1 #
coedge $-1 $136 $136 $84 $137 forward $131 $-1 #
edge $-1 $227 0 $227 6.2831853071796004 $136 $228 forward 7 unknown #
loop $-1 $-1 $143 $85 #
plane-surface $-1 -10.409513621700981 -14.534814265336358 119.60114392895257 0.81915205242281985 0 0.57357642473473569 0.57357642473473569 0 -0.81915205242281985 forward_v I I I I #
loop $-1 $-1 $229 $55 #
coedge $-1 $141 $141 $142 $230 reversed $86 $-1 #
coedge $-1 $142 $142 $141 $230 forward $88 $-1 #
coedge $-1 $143 $143 $89 $144 forward $138 $-1 #
edge $-1 $231 0 $231 6.2831853071796004 $143 $232 forward 7 unknown #
face $-1 $233 $234 $30 $-1 $235 reversed single #
loop $-1 $-1 $236 $90 #
plane-surface $-1 -192.01057452950008 -1.250666062739004 77.055404165945063 0 -1 0 0.85716730853699208 0 -0.51503806187062418 forward_v I I I I #
coedge $-1 $237 $238 $239 $240 reversed $91 $-1 #
coedge $-1 $150 $93 $241 $242 reversed $59 $-1 #
coedge $-1 $93 $149 $237 $243 reversed $59 $-1 #
coedge $-1 $239 $244 $93 $152 forward $245 $-1 #
edge $-1 $246 25.265823780146619 $247 30.570926630195345 $151 $248 forward 7 unknown #
loop $-1 $-1 $158 $94 #
plane-surface $-1 -70.739463484603391 -4.2648746723021844 4.1883718241891899 -0.85716730853699208 0 0.51503806187062418 0.51503806187062418 0 0.85716730853699208 forward_v I I I I #
loop $-1 $-1 $249 $61 #
coedge $-1 $156 $156 $157 $250 reversed $95 $-1 #
coedge $-1 $157 $157 $156 $250 forward $97 $-1 #
coedge $-1 $158 $158 $98 $159 forward $153 $-1 #
edge $-1 $251 0 $251 6.2831853071796004 $158 $252 forward 7 unknown #
face $-1 $253 $254 $24 $-1 $255 reversed single #
loop $-1 $-1 $256 $99 #
plane-surface $-1 -70.739463484603419 0 0 1 0 0 0 0 -1 forward_v I I I I #
coedge $-1 $257 $171 $258 $259 forward $100 $-1 #
coedge $-1 $260 $102 $257 $261 forward $65 $-1 #
coedge $-1 $102 $260 $262 $263 forward $65 $-1 #
coedge $-1 $174 $173 $102 $167 reversed $175 $-1 #
edge $-1 $264 -36.356548013513972 $265 36.356548013513972 $166 $266 forward 7 unknown #
coedge $-1 $104 $103 $267 $268 forward $41 $-1 #
coedge $-1 $269 $270 $103 $170 reversed $254 $-1 #
edge $-1 $177 -70.739463484603419 $271 70.739463484603419 $169 $272 forward 7 unknown #
coedge $-1 $163 $273 $104 $172 reversed $100 $-1 #
edge $-1 $274 -70.739463484603419 $176 70.739463484603419 $171 $275 forward 7 unknown #
coedge $-1 $166 $105 $273 $276 forward $175 $-1 #
coedge $-1 $105 $166 $269 $277 reversed $175 $-1 #
loop $-1 $-1 $173 $253 #
vertex $-1 $106 $278 #
vertex $-1 $106 $279 #
straight-curve $-1 70.739463484603419 0 13.017545953518782 0 1 0 I I #
face $-1 $280 $191 $25 $-1 $281 reversed single #
loop $-1 $-1 $282 $107 #
plane-surface $-1 -67.641703098466067 -50.197679103460274 0 0 1 0 0 0 1 forward_v I I I I #
coedge $-1 $283 $284 $186 $285 forward $108 $-1 #
coedge $-1 $286 $110 $284 $287 forward $69 $-1 #
coedge $-1 $110 $286 $189 $288 forward $69 $-1 #
edge $-1 $192 64.543942712328715 $289 70.739463484603419 $110 $290 forward 7 unknown #
coedge $-1 $112 $111 $182 $285 reversed $44 $-1 #
coedge $-1 $291 $292 $111 $188 forward $293 $-1 #
edge $-1 $294 -70.739463484603419 $193 -64.543942712328715 $187 $295 forward 7 unknown #
coedge $-1 $296 $113 $184 $288 reversed $191 $-1 #
coedge $-1 $113 $296 $291 $297 reversed $191 $-1 #
loop $-1 $-1 $296 $179 #
vertex $-1 $185 $298 #
vertex $-1 $297 $299 #
straight-curve $-1 -64.543942712328715 -36.356548013513972 0 0 0 -1 I I #
face $-1 $300 $301 $26 $-1 $302 reversed single #
loop $-1 $-1 $121 $115 #
plane-surface $-1 -64.543942712328715 43.27711355848713 0 -1 0 0 0 0 1 forward_v I I I I #
coedge $-1 $303 $304 $305 $306 forward $116 $-1 #
coedge $-1 $307 $118 $206 $308 forward $73 $-1 #
coedge $-1 $118 $307 $309 $310 forward $73 $-1 #
edge $-1 $311 -70.739463484603419 $208 -64.543942712328715 $118 $312 forward 7 unknown #
coedge $-1 $120 $119 $313 $314 reversed $47 $-1 #
coedge $-1 $315 $316 $120 $204 forward $301 $-1 #
edge $-1 $207 64.543942712328715 $317 70.739463484603419 $203 $318 forward 7 unknown #
coedge $-1 $305 $121 $316 $319 reversed $196 $-1 #
coedge $-1 $121 $305 $199 $308 reversed $196 $-1 #
vertex $-1 $204 $320 #
vertex $-1 $308 $321 #
straight-curve $-1 -64.543942712328715 36.356548013513972 0 0 0 1 I I #
face $-1 $-1 $322 $27 $-1 $323 reversed single #
loop $-1 $-1 $129 $123 #
plane-surface $-1 0 0 13.017545953518782 0 0 1 1 0 0 forward_v I I I I #
coedge $-1 $324 $325 $326 $327 reversed $124 $-1 #
coedge $-1 $328 $126 $128 $220 forward $77 $-1 #
coedge $-1 $126 $328 $324 $329 forward $77 $-1 #
coedge $-1 $326 $129 $126 $217 forward $211 $-1 #
edge $-1 $223 2.4655491860471752 $330 12.069265079289185 $216 $331 forward 7 unknown #
coedge $-1 $332 $333 $127 $219 forward $322 $-1 #
edge $-1 $334 -96.66666999007991 $222 -87.357514564109721 $218 $335 forward 7 unknown #
edge $-1 $223 130.11454669519497 $334 141.47892696920681 $128 $336 forward 7 unknown #
coedge $-1 $129 $326 $332 $337 forward $211 $-1 #
vertex $-1 $130 $338 #
vertex $-1 $130 $339 #
straight-curve $-1 52.74161988985152 -9.7329563187153543 13.017545953518777 -1 0 0 I I #
coedge $-1 $225 $225 $-1 $340 reversed $133 $-1 #
edge $-1 $341 0 $341 6.2831853071796004 $134 $342 forward 7 unknown #
vertex $-1 $137 $343 #
ellipse-curve $-1 67.480293181156597 -16.592753385316787 8.3629682405336787 0.81915205242281985 0 0.57357642473473569 0.57357642473473569 0 -0.81915205242281985 1 I I #
coedge $-1 $229 $229 $-1 $344 reversed $140 $-1 #
edge $-1 $345 0 $345 6.2831853071796004 $141 $346 forward 7 unknown #
vertex $-1 $144 $347 #
ellipse-curve $-1 67.480293181156597 -12.476875145355926 8.3629682405336787 0.81915205242281985 0 0.57357642473473569 0.57357642473473569 0 -0.81915205242281985 1 I I #
face $-1 $-1 $245 $30 $-1 $348 forward single #
loop $-1 $-1 $349 $145 #
plane-surface $-1 -70.739463484603419 0 0 1 0 0 0 0 -1 forward_v I I I I #
coedge $-1 $350 $351 $352 $353 reversed $146 $-1 #
coedge $-1 $354 $148 $150 $243 forward $91 $-1 #
coedge $-1 $148 $354 $350 $355 forward $91 $-1 #
coedge $-1 $352 $151 $148 $240 forward $245 $-1 #
edge $-1 $247 -5.1466459457142726 $356 0.88177127341208816 $239 $357 forward 7 unknown #
coedge $-1 $358 $359 $149 $242 forward $234 $-1 #
edge $-1 $360 -34.339330258783392 $246 -25.510156129453748 $241 $361 forward 7 unknown #
edge $-1 $247 -10.300409314955296 $360 5.4988089932380084e-014 $150 $362 forward 7 unknown #
coedge $-1 $151 $352 $358 $363 forward $245 $-1 #
loop $-1 $-1 $352 $233 #
vertex $-1 $242 $364 #
vertex $-1 $152 $365 #
straight-curve $-1 -96.005287264750038 -7.2790832818653648 13.017545953518784 1 0 0 I I #
coedge $-1 $249 $249 $-1 $366 reversed $155 $-1 #
edge $-1 $367 0 $367 6.2831853071796004 $156 $368 forward 7 unknown #
vertex $-1 $159 $369 #
ellipse-curve $-1 -68.086912059579049 -4.2648746723021915 8.6029588888539799 -0.85716730853699208 0 0.51503806187062418 0.77255709280593621 0 1.2857509628054882 1 I I #
face $-1 $-1 $175 $24 $-1 $370 reversed single #
loop $-1 $-1 $269 $160 #
plane-surface $-1 0 36.356548013513972 0 0 -1 0 0 0 -1 forward_v I I I I #
coedge $-1 $371 $267 $270 $372 forward $161 $-1 #
coedge $-1 $273 $163 $164 $261 reversed $100 $-1 #
coedge $-1 $267 $371 $163 $259 reversed $161 $-1 #
edge $-1 $274 -13.017545953518782 $373 13.017545953518782 $258 $374 forward 7 unknown #
coedge $-1 $165 $164 $371 $375 forward $65 $-1 #
edge $-1 $265 -70.739463484603419 $373 70.739463484603419 $257 $376 forward 7 unknown #
coedge $-1 $270 $269 $165 $263 reversed $254 $-1 #
edge $-1 $377 -70.739463484603419 $264 70.739463484603419 $262 $378 forward 7 unknown #
vertex $-1 $167 $379 #
vertex $-1 $276 $380 #
straight-curve $-1 70.739463484603419 0 -13.017545953518782 0 -1 0 I I #
coedge $-1 $256 $258 $168 $268 reversed $161 $-1 #
edge $-1 $271 -36.356548013513972 $274 36.356548013513972 $267 $381 forward 7 unknown #
coedge $-1 $262 $169 $174 $277 forward $254 $-1 #
coedge $-1 $169 $262 $256 $372 reversed $254 $-1 #
vertex $-1 $170 $382 #
straight-curve $-1 0 36.356548013513972 13.017545953518782 -1 0 0 I I #
coedge $-1 $171 $257 $173 $276 reversed $100 $-1 #
vertex $-1 $268 $383 #
straight-curve $-1 0 -36.356548013513972 13.017545953518782 1 0 0 I I #
edge $-1 $176 -13.017545953518782 $265 13.017545953518782 $173 $384 forward 7 unknown #
edge $-1 $177 -13.017545953518782 $264 13.017545953518782 $174 $385 forward 7 unknown #
point $-1 70.739463484603419 -36.356548013513972 13.017545953518782 #
point $-1 70.739463484603419 36.356548013513972 13.017545953518782 #
face $-1 $-1 $293 $25 $-1 $386 reversed single #
plane-surface $-1 -64.543942712328715 -43.277113558487123 0 -1 0 0 0 0 1 forward_v I I I I #
coedge $-1 $387 $388 $389 $390 forward $180 $-1 #
coedge $-1 $389 $182 $292 $391 reversed $108 $-1 #
coedge $-1 $182 $389 $183 $287 reversed $108 $-1 #
edge $-1 $289 -13.017545953518782 $294 13.017545953518782 $182 $392 forward 7 unknown #
coedge $-1 $184 $183 $388 $393 forward $69 $-1 #
edge $-1 $289 36.356548013513972 $394 50.197679103460274 $284 $395 forward 7 unknown #
edge $-1 $396 -6.9205655449731509 $192 6.9205655449731509 $189 $397 forward 7 unknown #
vertex $-1 $287 $398 #
straight-curve $-1 0 -36.356548013513972 13.017545953518782 -1 0 0 I I #
coedge $-1 $399 $187 $190 $297 forward $293 $-1 #
coedge $-1 $187 $399 $283 $391 forward $293 $-1 #
loop $-1 $-1 $187 $280 #
vertex $-1 $285 $400 #
straight-curve $-1 0 -36.356548013513972 -13.017545953518782 1 0 0 I I #
coedge $-1 $190 $189 $401 $402 forward $191 $-1 #
edge $-1 $193 -6.9205655449731509 $403 6.9205655449731509 $190 $404 forward 7 unknown #
point $-1 -64.543942712328715 -36.356548013513972 13.017545953518782 #
point $-1 -64.543942712328715 -36.356548013513972 -13.017545953518782 #
face $-1 $-1 $405 $26 $-1 $406 reversed single #
loop $-1 $-1 $203 $195 #
plane-surface $-1 0 0 -13.017545953518782 0 0 1 1 0 0 forward_v I I I I #
coedge $-1 $407 $198 $408 $409 reversed $116 $-1 #
coedge $-1 $198 $407 $307 $410 reversed $116 $-1 #
coedge $-1 $206 $205 $198 $306 reversed $196 $-1 #
edge $-1 $411 -13.017545953518782 $412 13.017545953518782 $305 $413 forward 7 unknown #
coedge $-1 $200 $199 $304 $410 forward $73 $-1 #
edge $-1 $208 -6.9205655449731509 $411 6.9205655449731509 $206 $414 forward 7 unknown #
coedge $-1 $415 $313 $200 $310 reversed $405 $-1 #
edge $-1 $416 -50.197679103460281 $311 -36.356548013513972 $309 $417 forward 7 unknown #
vertex $-1 $314 $418 #
straight-curve $-1 0 36.356548013513972 13.017545953518782 1 0 0 I I #
coedge $-1 $309 $419 $202 $314 forward $405 $-1 #
edge $-1 $317 -13.017545953518782 $311 13.017545953518782 $313 $420 forward 7 unknown #
coedge $-1 $408 $203 $419 $421 forward $301 $-1 #
coedge $-1 $203 $408 $205 $319 forward $301 $-1 #
vertex $-1 $421 $422 #
straight-curve $-1 0 36.356548013513972 -13.017545953518782 -1 0 0 I I #
edge $-1 $412 -6.9205655449731509 $207 6.9205655449731509 $205 $423 forward 7 unknown #
point $-1 -64.543942712328715 36.356548013513979 -13.017545953518782 #
point $-1 -64.543942712328715 36.356548013513979 13.017545953518782 #
loop $-1 $-1 $218 $210 #
plane-surface $-1 70.739463484603419 0 0 -1 0 0 0 0 1 forward_v I I I I #
coedge $-1 $325 $213 $215 $329 reversed $124 $-1 #
coedge $-1 $213 $324 $424 $425 reversed $124 $-1 #
coedge $-1 $221 $216 $213 $327 forward $211 $-1 #
edge $-1 $330 11.479502987858254 $426 17.997843594751899 $326 $427 forward 7 unknown #
coedge $-1 $215 $214 $333 $428 reversed $77 $-1 #
edge $-1 $429 -141.47892696920681 $330 -130.11454669519497 $324 $430 forward 7 unknown #
vertex $-1 $217 $431 #
straight-curve $-1 64.221122877709774 -7.2674071326681791 13.017545953518791 0 -1 0 I I #
coedge $-1 $424 $218 $221 $337 reversed $322 $-1 #
coedge $-1 $218 $424 $328 $428 forward $322 $-1 #
vertex $-1 $219 $432 #
straight-curve $-1 70.739463484603419 -9.7329563187153543 100.3750605176285 0 0 1 I I #
straight-curve $-1 -10.409513621700981 -9.7329563187153543 119.60114392895257 0.57357642473473569 0 -0.81915205242281985 I I #
edge $-1 $426 -19.336672211957364 $222 -9.7329563187153543 $332 $433 forward 7 unknown #
point $-1 70.739463484603419 -9.7329563187153543 13.017545953518782 #
point $-1 64.221122877709774 -9.7329563187153543 13.017545953518777 #
edge $-1 $434 1 $434 0 $225 $-1 forward 7 unknown #
vertex $-1 $226 $435 #
ellipse-curve $-1 65.716842582142149 -16.592753385316787 7.1281868751114885 0.81915205242281985 0 0.57357642473473569 0.57357642473473569 0 -0.81915205242281985 1 I I #
point $-1 68.053869605891308 -16.592753385316787 7.5438161881108385 #
edge $-1 $436 1 $436 0 $229 $-1 forward 7 unknown #
vertex $-1 $230 $437 #
ellipse-curve $-1 65.716842582142149 -12.476875145355926 7.1281868751114885 0.81915205242281985 0 0.57357642473473569 0.57357642473473569 0 -0.81915205242281985 1 I I #
point $-1 68.053869605891308 -12.476875145355926 7.5438161881108385 #
plane-surface $-1 0 0 13.017545953518782 0 0 1 1 0 0 forward_v I I I I #
coedge $-1 $359 $358 $351 $438 forward $234 $-1 #
coedge $-1 $351 $236 $238 $355 reversed $146 $-1 #
coedge $-1 $236 $350 $349 $438 reversed $146 $-1 #
coedge $-1 $244 $239 $236 $353 forward $245 $-1 #
edge $-1 $356 -30.570926630195345 $439 -25.265823780146619 $352 $440 forward 7 unknown #
coedge $-1 $238 $237 $359 $441 reversed $91 $-1 #
edge $-1 $442 -5.4988089932380084e-014 $356 10.300409314955296 $350 $443 forward 7 unknown #
vertex $-1 $240 $444 #
straight-curve $-1 -65.434360634554693 -2.1324373361510922 13.017545953518781 0 1 0 I I #
coedge $-1 $349 $241 $244 $363 reversed $234 $-1 #
coedge $-1 $241 $349 $354 $441 forward $234 $-1 #
vertex $-1 $242 $445 #
straight-curve $-1 -70.739463484603419 -7.2790832818653648 38.527702082972532 0 0 1 I I #
straight-curve $-1 -70.739463484603391 -7.2790832818653648 4.1883718241891899 -0.51503806187062418 0 -0.85716730853699208 I I #
edge $-1 $439 1.250666062739004 $246 7.2790832818653648 $358 $446 forward 7 unknown #
point $-1 -70.739463484603419 -7.2790832818653648 13.017545953518782 #
point $-1 -65.434360634554693 -7.2790832818653648 13.017545953518782 #
edge $-1 $447 1 $447 0 $249 $-1 forward 7 unknown #
vertex $-1 $250 $448 #
ellipse-curve $-1 -66.573730676520867 -4.2648746723021915 7.6937478176581138 -0.85716730853699208 0 0.51503806187062418 0.77255709280593621 0 1.2857509628054882 1 I I #
point $-1 -67.314354966773138 -4.2648746723021915 9.8887098516594794 #
plane-surface $-1 70.739463484603419 0 0 -1 0 0 0 0 1 forward_v I I I I #
coedge $-1 $258 $256 $260 $375 reversed $161 $-1 #
edge $-1 $271 -13.017545953518782 $377 13.017545953518782 $270 $449 forward 7 unknown #
vertex $-1 $375 $450 #
straight-curve $-1 -70.739463484603419 -36.356548013513972 0 0 0 -1 I I #
edge $-1 $373 -36.356548013513972 $377 36.356548013513972 $371 $451 forward 7 unknown #
straight-curve $-1 0 -36.356548013513972 -13.017545953518782 -1 0 0 I I #
vertex $-1 $263 $452 #
straight-curve $-1 0 36.356548013513972 -13.017545953518782 1 0 0 I I #
point $-1 70.739463484603419 36.356548013513972 -13.017545953518782 #
point $-1 70.739463484603419 -36.356548013513972 -13.017545953518782 #
straight-curve $-1 -70.739463484603419 0 13.017545953518782 0 -1 0 I I #
point $-1 -70.739463484603419 36.356548013513972 13.017545953518782 #
point $-1 -70.739463484603419 -36.356548013513972 13.017545953518782 #
straight-curve $-1 70.739463484603419 -36.356548013513972 0 0 0 -1 I I #
straight-curve $-1 70.739463484603419 36.356548013513972 0 0 0 -1 I I #
plane-surface $-1 0 0 -13.017545953518782 0 0 1 1 0 0 forward_v I I I I #
coedge $-1 $401 $282 $399 $453 reversed $180 $-1 #
coedge $-1 $282 $401 $286 $393 reversed $180 $-1 #
coedge $-1 $284 $283 $282 $390 reversed $108 $-1 #
edge $-1 $394 -13.017545953518782 $454 13.017545953518782 $389 $455 forward 7 unknown #
edge $-1 $454 -50.197679103460274 $294 -36.356548013513972 $283 $456 forward 7 unknown #
straight-curve $-1 -70.739463484603419 -36.356548013513972 0 0 0 -1 I I #
edge $-1 $394 -3.0977603861373524 $396 3.0977603861373524 $388 $457 forward 7 unknown #
vertex $-1 $287 $458 #
straight-curve $-1 -70.739463484603419 0 13.017545953518782 0 -1 0 I I #
vertex $-1 $288 $459 #
straight-curve $-1 -64.543942712328715 -43.277113558487123 13.017545953518782 0 1 0 I I #
point $-1 -70.739463484603419 -36.356548013513972 13.017545953518782 #
coedge $-1 $292 $291 $387 $453 forward $293 $-1 #
point $-1 -70.739463484603419 -36.356548013513972 -13.017545953518782 #
coedge $-1 $388 $387 $296 $402 reversed $180 $-1 #
edge $-1 $396 -13.017545953518782 $403 13.017545953518782 $296 $460 forward 7 unknown #
vertex $-1 $402 $461 #
straight-curve $-1 -64.543942712328715 -43.277113558487123 -13.017545953518782 0 -1 0 I I #
loop $-1 $-1 $313 $300 #
plane-surface $-1 -70.739463484603419 0 0 1 0 0 0 0 -1 forward_v I I I I #
coedge $-1 $304 $303 $415 $462 reversed $116 $-1 #
coedge $-1 $316 $315 $303 $409 forward $301 $-1 #
edge $-1 $463 -3.0977603861373524 $412 3.0977603861373524 $303 $464 forward 7 unknown #
edge $-1 $411 -3.0977603861373524 $416 3.0977603861373524 $304 $465 forward 7 unknown #
vertex $-1 $308 $466 #
vertex $-1 $319 $467 #
straight-curve $-1 -64.543942712328715 50.197679103460281 0 0 0 -1 I I #
straight-curve $-1 -64.543942712328715 43.27711355848713 13.017545953518782 0 1 0 I I #
coedge $-1 $419 $309 $407 $462 forward $405 $-1 #
vertex $-1 $410 $468 #
straight-curve $-1 -70.739463484603419 0 13.017545953518782 0 -1 0 I I #
point $-1 -70.739463484603419 36.356548013513972 13.017545953518782 #
coedge $-1 $313 $415 $315 $421 reversed $405 $-1 #
straight-curve $-1 -70.739463484603419 36.356548013513972 0 0 0 1 I I #
edge $-1 $317 -6.920565544973158 $463 6.9205655449731509 $419 $469 forward 7 unknown #
point $-1 -70.739463484603419 36.356548013513972 -13.017545953518782 #
straight-curve $-1 -64.543942712328715 43.27711355848713 -13.017545953518782 0 -1 0 I I #
coedge $-1 $333 $332 $325 $425 forward $322 $-1 #
edge $-1 $426 87.357514564109721 $429 96.66666999007991 $424 $470 forward 7 unknown #
vertex $-1 $337 $471 #
straight-curve $-1 52.74161988985152 -19.336672211957364 13.017545953518777 1 0 0 I I #
edge $-1 $429 -12.069265079289185 $334 -2.4655491860471752 $333 $472 forward 7 unknown #
vertex $-1 $428 $473 #
straight-curve $-1 -10.409513621700981 -19.336672211957364 119.60114392895257 -0.57357642473473569 0 0.81915205242281985 I I #
point $-1 64.221122877709774 -19.336672211957364 13.017545953518777 #
point $-1 70.739463484603419 -9.7329563187153543 3.7083905275485876 #
straight-curve $-1 70.739463484603419 0 13.017545953518782 0 1 0 I I #
vertex $-1 $340 $474 #
point $-1 66.290419006876888 -16.592753385316787 6.3090348226886688 #
vertex $-1 $344 $475 #
point $-1 66.290419006876888 -12.476875145355926 6.3090348226886688 #
edge $-1 $439 25.510156129453748 $442 34.339330258783392 $349 $476 forward 7 unknown #
vertex $-1 $363 $477 #
straight-curve $-1 -96.005287264750038 -1.250666062739004 13.017545953518784 -1 0 0 I I #
edge $-1 $442 -0.88177127341208816 $360 5.1466459457142726 $359 $478 forward 7 unknown #
vertex $-1 $441 $479 #
straight-curve $-1 -70.739463484603391 -1.250666062739004 4.1883718241891899 0.51503806187062418 0 0.85716730853699208 I I #
point $-1 -65.434360634554693 -1.250666062739004 13.017545953518782 #
point $-1 -70.739463484603419 -7.2790832818653648 4.1883718241891428 #
straight-curve $-1 -70.739463484603419 0 13.017545953518782 0 -1 0 I I #
vertex $-1 $366 $480 #
point $-1 -65.801173583714942 -4.2648746723021915 8.9794987804636026 #
straight-curve $-1 -70.739463484603419 36.356548013513972 0 0 0 -1 I I #
point $-1 -70.739463484603419 -36.356548013513972 -13.017545953518782 #
straight-curve $-1 -70.739463484603419 0 -13.017545953518782 0 1 0 I I #
point $-1 -70.739463484603419 36.356548013513972 -13.017545953518782 #
edge $-1 $403 -3.0977603861373524 $454 3.0977603861373524 $387 $481 forward 7 unknown #
vertex $-1 $391 $482 #
straight-curve $-1 -70.739463484603419 -50.197679103460274 0 0 0 -1 I I #
straight-curve $-1 -70.739463484603419 0 -13.017545953518782 0 1 0 I I #
straight-curve $-1 -67.641703098466067 -50.197679103460274 13.017545953518782 1 0 0 I I #
point $-1 -70.739463484603419 -50.197679103460274 13.017545953518782 #
point $-1 -64.543942712328715 -50.197679103460274 13.017545953518782 #
straight-curve $-1 -64.543942712328715 -50.197679103460274 0 0 0 -1 I I #
point $-1 -64.543942712328715 -50.197679103460274 -13.017545953518782 #
edge $-1 $416 -13.017545953518782 $463 13.017545953518782 $407 $483 forward 7 unknown #
vertex $-1 $409 $484 #
straight-curve $-1 -67.641703098466067 50.197679103460281 -13.017545953518782 1 0 0 I I #
straight-curve $-1 -67.641703098466067 50.197679103460281 13.017545953518782 -1 0 0 I I #
point $-1 -64.543942712328715 50.197679103460281 13.017545953518782 #
point $-1 -64.543942712328715 50.197679103460281 -13.017545953518782 #
point $-1 -70.739463484603419 50.197679103460281 13.017545953518782 #
straight-curve $-1 -70.739463484603419 43.27711355848713 -13.017545953518782 0 1 0 I I #
straight-curve $-1 70.739463484603419 -19.336672211957364 100.3750605176285 0 0 -1 I I #
point $-1 70.739463484603419 -19.336672211957364 13.017545953518782 #
straight-curve $-1 70.739463484603419 -7.2674071326681791 3.7083905275485805 0 1 0 I I #
point $-1 70.739463484603419 -19.336672211957364 3.7083905275485876 #
point $-1 64.897690529719327 -16.592753385316787 6.5546104503767531 #
point $-1 64.897690529719327 -12.476875145355926 6.5546104503767531 #
straight-curve $-1 -70.739463484603419 -1.250666062739004 38.527702082972532 0 0 -1 I I #
point $-1 -70.739463484603419 -1.250666062739004 13.017545953518782 #
straight-curve $-1 -70.739463484603419 -2.1324373361510922 4.1883718241891321 0 -1 0 I I #
point $-1 -70.739463484603419 -1.250666062739004 4.1883718241891428 #
point $-1 -65.287979713715387 -4.2648746723021915 6.9211907248521776 #
straight-curve $-1 -67.641703098466067 -50.197679103460274 -13.017545953518782 -1 0 0 I I #
point $-1 -70.739463484603419 -50.197679103460274 -13.017545953518782 #
straight-curve $-1 -70.739463484603419 50.197679103460281 0 0 0 -1 I I #
point $-1 -70.739463484603419 50.197679103460281 -13.017545953518782 #
End-of-ACIS-data 