500 0 11 0           
7 Unknown 11 ACIS 5.0 NT 24 Fri Mar 26 03:13:24 1999 
-1 9.9999999999999995e-007 1e-010 
body $-1 $11 $-1 $12 #
body $-1 $13 $-1 $14 #
body $-1 $15 $-1 $16 #
body $-1 $17 $-1 $18 #
body $-1 $19 $-1 $20 #
body $-1 $21 $-1 $22 #
body $-1 $23 $-1 $24 #
body $-1 $25 $-1 $26 #
body $-1 $27 $-1 $28 #
body $-1 $29 $-1 $30 #
body $-1 $31 $-1 $32 #
lump $-1 $-1 $33 $0 #
transform $-1 1 0 0 0 1 0 0 0 1 67.714468825342564 36.058517782914357 9.4275741400258593 1 rotate no_reflect no_shear #
lump $-1 $-1 $34 $1 #
transform $-1 1 0 0 0 1 0 0 0 1 67.714468825342564 36.058517782914357 9.4275741400258593 1 rotate no_reflect no_shear #
lump $-1 $-1 $35 $2 #
transform $-1 1 0 0 0 1 0 0 0 1 67.714468825342564 36.058517782914357 9.4275741400258593 1 rotate no_reflect no_shear #
lump $-1 $-1 $36 $3 #
transform $-1 1 0 0 0 1 0 0 0 1 67.714468825342564 36.058517782914357 9.4275741400258593 1 rotate no_reflect no_shear #
lump $-1 $-1 $37 $4 #
transform $-1 1 0 0 0 1 0 0 0 1 67.714468825342564 36.058517782914357 9.4275741400258593 1 rotate no_reflect no_shear #
lump $-1 $-1 $38 $5 #
transform $-1 1 0 0 0 1 0 0 0 1 67.714468825342564 36.058517782914357 9.4275741400258593 1 rotate no_reflect no_shear #
lump $-1 $-1 $39 $6 #
transform $-1 1 0 0 0 1 0 0 0 1 67.714468825342564 36.058517782914357 9.4275741400258593 1 rotate no_reflect no_shear #
lump $-1 $-1 $40 $7 #
transform $-1 1 0 0 0 1 0 0 0 1 67.714468825342564 36.058517782914357 9.4275741400258593 1 rotate no_reflect no_shear #
lump $-1 $-1 $41 $8 #
transform $-1 1 0 0 0 1 0 0 0 1 67.714468825342564 36.058517782914357 9.4275741400258593 1 rotate no_reflect no_shear #
lump $-1 $-1 $42 $9 #
transform $-1 1 0 0 0 1 0 0 0 1 67.714468825342564 36.058517782914357 9.4275741400258593 1 rotate no_reflect no_shear #
lump $-1 $-1 $43 $10 #
transform $-1 1 0 0 0 1 0 0 0 1 67.714468825342564 36.058517782914357 9.4275741400258593 1 rotate no_reflect no_shear #
shell $-1 $-1 $-1 $44 $-1 $11 #
shell $-1 $-1 $-1 $45 $-1 $13 #
shell $-1 $-1 $-1 $46 $-1 $15 #
shell $-1 $-1 $-1 $47 $-1 $17 #
shell $-1 $-1 $-1 $48 $-1 $19 #
shell $-1 $-1 $-1 $49 $-1 $21 #
shell $-1 $-1 $-1 $50 $-1 $23 #
shell $-1 $-1 $-1 $51 $-1 $25 #
shell $-1 $-1 $-1 $52 $-1 $27 #
shell $-1 $-1 $-1 $53 $-1 $29 #
shell $-1 $-1 $-1 $54 $-1 $31 #
face $-1 $55 $56 $33 $-1 $57 forward single #
face $-1 $58 $59 $34 $-1 $60 forward single #
face $-1 $61 $62 $35 $-1 $63 reversed single #
face $-1 $64 $65 $36 $-1 $66 forward single #
face $-1 $67 $68 $37 $-1 $69 forward single #
face $-1 $70 $71 $38 $-1 $72 reversed single #
face $-1 $73 $74 $39 $-1 $75 forward single #
face $-1 $76 $77 $40 $-1 $78 forward single #
face $-1 $79 $80 $41 $-1 $81 reversed single #
face $-1 $82 $83 $42 $-1 $84 forward single #
face $-1 $85 $86 $43 $-1 $87 forward single #
face $-1 $88 $89 $33 $-1 $90 reversed single #
loop $-1 $-1 $91 $44 #
plane-surface $-1 0 0 9.4275741400258593 0 0 1 1 0 0 forward_v I I I I #
face $-1 $92 $93 $34 $-1 $94 reversed single #
loop $-1 $-1 $95 $45 #
plane-surface $-1 -67.714468825342564 0 0 1 0 0 0 0 -1 forward_v I I I I #
face $-1 $96 $97 $35 $-1 $98 reversed single #
loop $-1 $-1 $99 $46 #
plane-surface $-1 -43.897430880998243 -121.28671084303406 105.35476213299319 -1 0 0 0 -0.62932039886446345 0.77714595512881146 forward_v I I I I #
face $-1 $100 $101 $36 $-1 $102 forward single #
loop $-1 $103 $104 $47 #
cone-surface $-1 -53.256085096427192 -29.875139418279097 4.2383289987081882 0 0.62932039886446345 -0.77714595512881146 1 0 0 1 I I 0 1 1 forward I I I I #
face $-1 $105 $106 $37 $-1 $107 forward single #
loop $-1 $108 $109 $48 #
cone-surface $-1 -47.640892567169828 -29.875139418279097 4.2383289987081882 0 0.62932039886446345 -0.77714595512881146 1 0 0 1 I I 0 1 1 forward I I I I #
face $-1 $110 $111 $38 $-1 $112 reversed single #
loop $-1 $-1 $113 $49 #
plane-surface $-1 19.567819355193741 -121.28671084303406 105.35476213299319 -1 0 0 0 -0.62932039886446345 0.77714595512881146 forward_v I I I I #
face $-1 $114 $115 $39 $-1 $116 forward single #
loop $-1 $117 $118 $50 #
cone-surface $-1 10.209165139764806 -29.875139418279097 4.2383289987081882 0 0.62932039886446345 -0.77714595512881146 1 0 0 1 I I 0 1 1 forward I I I I #
face $-1 $119 $120 $40 $-1 $121 forward single #
loop $-1 $122 $123 $51 #
cone-surface $-1 15.824357669022163 -29.875139418279097 4.2383289987081882 0 0.62932039886446345 -0.77714595512881146 1 0 0 1 I I 0 1 1 forward I I I I #
face $-1 $124 $125 $41 $-1 $126 reversed single #
loop $-1 $-1 $127 $52 #
plane-surface $-1 -59.216031647041433 83.381242075206558 149.46574302817339 1 0 0 0 -0.71933980857756763 -0.69465836192734942 forward_v I I I I #
face $-1 $128 $129 $42 $-1 $130 forward single #
loop $-1 $131 $132 $53 #
cone-surface $-1 -52.335291630851231 31.985886537688007 5.2951995580596014 0 -0.71933980857756763 -0.69465836192734942 2 0 0 1 I I 0 1 2 forward I I I I #
face $-1 $133 $134 $43 $-1 $135 forward single #
loop $-1 $136 $137 $54 #
cone-surface $-1 -42.014181606565948 31.985886537688007 5.2951995580596014 0 -0.71933980857756763 -0.69465836192734942 2 0 0 1 I I 0 1 2 forward I I I I #
face $-1 $138 $139 $33 $-1 $140 reversed single #
loop $-1 $-1 $141 $55 #
plane-surface $-1 0 0 -9.4275741400258593 0 0 1 1 0 0 forward_v I I I I #
coedge $-1 $142 $143 $144 $145 forward $56 $-1 #
face $-1 $146 $147 $34 $-1 $148 forward single #
loop $-1 $-1 $149 $58 #
plane-surface $-1 0 36.058517782914357 0 0 -1 0 0 0 -1 forward_v I I I I #
coedge $-1 $150 $151 $152 $153 forward $59 $-1 #
face $-1 $154 $155 $35 $-1 $156 reversed single #
loop $-1 $-1 $157 $61 #
plane-surface $-1 -50.448488831798507 -36.058517782914336 0.10671103037124396 0 -0.62932039886446345 0.77714595512881146 1 0 0 forward_v I I I I #
coedge $-1 $158 $159 $160 $161 reversed $62 $-1 #
face $-1 $-1 $162 $36 $-1 $163 forward single #
loop $-1 $164 $165 $64 #
cone-surface $-1 -53.256085096427192 -29.132254411165921 3.3209424346534249 0 0.62932039886446345 -0.77714595512881146 0.5 0 0 1 I I -0.70710678118654746 0.70710678118654746 0.5 forward I I I I #
loop $-1 $-1 $166 $47 #
coedge $-1 $104 $104 $167 $168 reversed $65 $-1 #
face $-1 $-1 $169 $37 $-1 $170 forward single #
loop $-1 $171 $172 $67 #
cone-surface $-1 -47.640892567169828 -29.132254411165921 3.3209424346534249 0 0.62932039886446345 -0.77714595512881146 0.5 0 0 1 I I -0.70710678118654746 0.70710678118654746 0.5 forward I I I I #
loop $-1 $-1 $173 $48 #
coedge $-1 $109 $109 $174 $175 reversed $68 $-1 #
face $-1 $176 $177 $38 $-1 $178 reversed single #
loop $-1 $-1 $179 $70 #
plane-surface $-1 13.016761404393478 -36.058517782914336 0.10671103037124396 0 -0.62932039886446345 0.77714595512881146 1 0 0 forward_v I I I I #
coedge $-1 $180 $181 $182 $183 reversed $71 $-1 #
face $-1 $-1 $184 $39 $-1 $185 forward single #
loop $-1 $186 $187 $73 #
cone-surface $-1 10.209165139764806 -29.132254411165921 3.3209424346534249 0 0.62932039886446345 -0.77714595512881146 0.5 0 0 1 I I -0.70710678118654746 0.70710678118654746 0.5 forward I I I I #
loop $-1 $-1 $188 $50 #
coedge $-1 $118 $118 $189 $190 reversed $74 $-1 #
face $-1 $-1 $191 $40 $-1 $192 forward single #
loop $-1 $193 $194 $76 #
cone-surface $-1 15.824357669022163 -29.132254411165921 3.3209424346534249 0 0.62932039886446345 -0.77714595512881146 0.5 0 0 1 I I -0.70710678118654746 0.70710678118654746 0.5 forward I I I I #
loop $-1 $-1 $195 $51 #
coedge $-1 $123 $123 $196 $197 reversed $77 $-1 #
face $-1 $198 $199 $41 $-1 $200 reversed single #
loop $-1 $-1 $201 $79 #
plane-surface $-1 -47.174736618708593 -14.038184010300625 55.388899042187319 0 0.71933980857756763 0.69465836192734942 1 0 0 forward_v I I I I #
coedge $-1 $202 $203 $204 $205 reversed $80 $-1 #
face $-1 $-1 $206 $42 $-1 $207 forward single #
loop $-1 $208 $209 $82 #
cone-surface $-1 -52.335291630851231 30.050099140588706 3.4258314426376888 0 -0.71933980857756763 -0.69465836192734942 1 0 0 1 I I -0.70710678118654746 0.70710678118654746 1 forward I I I I #
loop $-1 $-1 $210 $53 #
coedge $-1 $132 $132 $211 $212 reversed $83 $-1 #
face $-1 $-1 $213 $43 $-1 $214 forward single #
loop $-1 $215 $216 $85 #
cone-surface $-1 -42.014181606565948 30.050099140588706 3.4258314426376888 0 -0.71933980857756763 -0.69465836192734942 1 0 0 1 I I -0.70710678118654746 0.70710678118654746 1 forward I I I I #
loop $-1 $-1 $217 $54 #
coedge $-1 $137 $137 $218 $219 reversed $86 $-1 #
face $-1 $220 $221 $33 $-1 $222 reversed single #
loop $-1 $-1 $223 $88 #
plane-surface $-1 0 -36.058517782914357 0 0 1 0 0 0 1 forward_v I I I I #
coedge $-1 $224 $225 $226 $227 forward $89 $-1 #
coedge $-1 $228 $91 $229 $230 forward $56 $-1 #
coedge $-1 $91 $228 $231 $232 forward $56 $-1 #
coedge $-1 $233 $234 $91 $145 reversed $235 $-1 #
edge $-1 $236 -36.058517782914357 $237 36.058517782914357 $144 $238 forward 7 unknown #
face $-1 $239 $240 $34 $-1 $241 reversed single #
loop $-1 $-1 $152 $92 #
plane-surface $-1 -71.963687414493137 0 -3.9140818079443278 0 0 1 1 0 0 forward_v I I I I #
coedge $-1 $242 $243 $151 $244 forward $93 $-1 #
coedge $-1 $245 $95 $246 $247 reversed $59 $-1 #
coedge $-1 $95 $245 $149 $244 reversed $59 $-1 #
coedge $-1 $248 $249 $95 $153 reversed $147 $-1 #
edge $-1 $250 -36.058517782914357 $251 36.058517782914357 $152 $252 forward 7 unknown #
face $-1 $253 $254 $35 $-1 $255 reversed single #
loop $-1 $-1 $256 $96 #
plane-surface $-1 -56.99954678259877 -121.28671084303406 105.35476213299319 1 0 0 0 0.62932039886446345 -0.77714595512881146 forward_v I I I I #
coedge $-1 $257 $258 $259 $260 reversed $97 $-1 #
coedge $-1 $159 $99 $261 $262 reversed $62 $-1 #
coedge $-1 $99 $158 $257 $263 reversed $62 $-1 #
coedge $-1 $259 $264 $99 $161 forward $265 $-1 #
edge $-1 $266 24.584837638602671 $267 36.095144752511302 $160 $268 forward 7 unknown #
loop $-1 $-1 $167 $100 #
plane-surface $-1 -50.448488831798507 -36.058517782914336 0.10671103037124396 0 -0.62932039886446345 0.77714595512881146 1 0 0 forward_v I I I I #
loop $-1 $-1 $269 $64 #
coedge $-1 $165 $165 $166 $270 reversed $101 $-1 #
coedge $-1 $166 $166 $165 $270 forward $103 $-1 #
coedge $-1 $167 $167 $104 $168 forward $162 $-1 #
edge $-1 $271 -1.6430794705136253e-015 $271 6.2831853071795987 $167 $272 forward 7 unknown #
loop $-1 $-1 $174 $105 #
plane-surface $-1 -50.448488831798507 -36.058517782914336 0.10671103037124396 0 -0.62932039886446345 0.77714595512881146 1 0 0 forward_v I I I I #
loop $-1 $-1 $273 $67 #
coedge $-1 $172 $172 $173 $274 reversed $106 $-1 #
coedge $-1 $173 $173 $172 $274 forward $108 $-1 #
coedge $-1 $174 $174 $109 $175 forward $169 $-1 #
edge $-1 $275 -1.6430794705136253e-015 $275 6.2831853071795987 $174 $276 forward 7 unknown #
face $-1 $277 $278 $38 $-1 $279 reversed single #
loop $-1 $-1 $280 $110 #
plane-surface $-1 6.4657034535932159 -121.28671084303406 105.35476213299319 1 0 0 0 0.62932039886446345 -0.77714595512881146 forward_v I I I I #
coedge $-1 $281 $282 $283 $284 reversed $111 $-1 #
coedge $-1 $181 $113 $285 $286 reversed $71 $-1 #
coedge $-1 $113 $180 $281 $287 reversed $71 $-1 #
coedge $-1 $283 $288 $113 $183 forward $289 $-1 #
edge $-1 $290 24.584837638602671 $291 36.095144752511302 $182 $292 forward 7 unknown #
loop $-1 $-1 $189 $114 #
plane-surface $-1 13.016761404393478 -36.058517782914336 0.10671103037124396 0 -0.62932039886446345 0.77714595512881146 1 0 0 forward_v I I I I #
loop $-1 $-1 $293 $73 #
coedge $-1 $187 $187 $188 $294 reversed $115 $-1 #
coedge $-1 $188 $188 $187 $294 forward $117 $-1 #
coedge $-1 $189 $189 $118 $190 forward $184 $-1 #
edge $-1 $295 -1.6430794705136253e-015 $295 6.2831853071795987 $189 $296 forward 7 unknown #
loop $-1 $-1 $196 $119 #
plane-surface $-1 13.016761404393478 -36.058517782914336 0.10671103037124396 0 -0.62932039886446345 0.77714595512881146 1 0 0 forward_v I I I I #
loop $-1 $-1 $297 $76 #
coedge $-1 $194 $194 $195 $298 reversed $120 $-1 #
coedge $-1 $195 $195 $194 $298 forward $122 $-1 #
coedge $-1 $196 $196 $123 $197 forward $191 $-1 #
edge $-1 $299 -1.6430794705136253e-015 $299 6.2831853071795987 $196 $300 forward 7 unknown #
face $-1 $301 $302 $41 $-1 $303 forward single #
loop $-1 $-1 $304 $124 #
plane-surface $-1 -35.133441590375753 83.381242075206558 149.46574302817339 -1 0 0 0 0.71933980857756763 0.69465836192734942 forward_v I I I I #
coedge $-1 $305 $306 $307 $308 reversed $125 $-1 #
coedge $-1 $203 $127 $309 $310 reversed $80 $-1 #
coedge $-1 $127 $202 $305 $311 reversed $80 $-1 #
coedge $-1 $307 $312 $127 $205 forward $302 $-1 #
edge $-1 $313 5.6321032546889214 $314 11.344470568098195 $204 $315 forward 7 unknown #
loop $-1 $-1 $211 $128 #
plane-surface $-1 -47.174736618708593 -14.038184010300625 55.388899042187319 0 0.71933980857756763 0.69465836192734942 1 0 0 forward_v I I I I #
loop $-1 $-1 $316 $82 #
coedge $-1 $209 $209 $210 $317 reversed $129 $-1 #
coedge $-1 $210 $210 $209 $317 forward $131 $-1 #
coedge $-1 $211 $211 $132 $212 forward $206 $-1 #
edge $-1 $318 -2.6432944907660735e-015 $318 6.2831853071795978 $211 $319 forward 7 unknown #
loop $-1 $-1 $218 $133 #
plane-surface $-1 -47.174736618708593 -14.038184010300625 55.388899042187319 0 0.71933980857756763 0.69465836192734942 1 0 0 forward_v I I I I #
loop $-1 $-1 $320 $85 #
coedge $-1 $216 $216 $217 $321 reversed $134 $-1 #
coedge $-1 $217 $217 $216 $321 forward $136 $-1 #
coedge $-1 $218 $218 $137 $219 forward $213 $-1 #
edge $-1 $322 -2.6432944907660735e-015 $322 6.2831853071795978 $218 $323 forward 7 unknown #
face $-1 $324 $325 $33 $-1 $326 reversed single #
loop $-1 $-1 $327 $138 #
plane-surface $-1 -67.714468825342564 0 0 1 0 0 0 0 -1 forward_v I I I I #
coedge $-1 $328 $231 $329 $330 forward $139 $-1 #
coedge $-1 $331 $141 $328 $332 forward $89 $-1 #
coedge $-1 $141 $331 $333 $334 forward $89 $-1 #
coedge $-1 $234 $233 $141 $227 reversed $235 $-1 #
edge $-1 $335 -36.058517782914357 $336 36.058517782914357 $226 $337 forward 7 unknown #
coedge $-1 $143 $142 $338 $339 forward $56 $-1 #
coedge $-1 $340 $341 $142 $230 reversed $325 $-1 #
edge $-1 $237 -67.714468825342564 $342 67.714468825342564 $229 $343 forward 7 unknown #
coedge $-1 $223 $344 $143 $232 reversed $139 $-1 #
edge $-1 $345 -67.714468825342564 $236 67.714468825342564 $231 $346 forward 7 unknown #
coedge $-1 $226 $144 $344 $347 forward $235 $-1 #
coedge $-1 $144 $226 $340 $348 reversed $235 $-1 #
loop $-1 $-1 $233 $324 #
vertex $-1 $145 $349 #
vertex $-1 $145 $350 #
straight-curve $-1 67.714468825342564 0 9.4275741400258593 0 1 0 I I #
face $-1 $351 $352 $34 $-1 $353 reversed single #
loop $-1 $-1 $354 $146 #
plane-surface $-1 -76.21290600364371 0 -6.6708279739850935 1 0 0 0 0 -1 forward_v I I I I #
coedge $-1 $355 $149 $356 $357 reversed $93 $-1 #
coedge $-1 $149 $355 $248 $358 reversed $93 $-1 #
edge $-1 $250 3.9140818079443278 $359 9.4275741400258593 $149 $360 forward 7 unknown #
coedge $-1 $151 $150 $361 $362 reversed $59 $-1 #
coedge $-1 $363 $364 $150 $247 forward $365 $-1 #
edge $-1 $366 -9.4275741400258593 $251 -3.9140818079443278 $246 $367 forward 7 unknown #
coedge $-1 $368 $152 $243 $358 forward $147 $-1 #
coedge $-1 $152 $368 $363 $369 forward $147 $-1 #
vertex $-1 $244 $370 #
vertex $-1 $369 $371 #
straight-curve $-1 -67.714468825342564 0 -3.9140818079443278 0 -1 0 I I #
face $-1 $-1 $265 $35 $-1 $372 forward single #
loop $-1 $-1 $373 $154 #
plane-surface $-1 0 -36.058517782914357 0 0 1 0 0 0 1 forward_v I I I I #
coedge $-1 $374 $375 $376 $377 reversed $155 $-1 #
coedge $-1 $378 $157 $159 $263 forward $97 $-1 #
coedge $-1 $157 $378 $374 $379 forward $97 $-1 #
coedge $-1 $376 $160 $157 $260 forward $265 $-1 #
edge $-1 $267 18.67318646509899 $380 31.775302366699517 $259 $381 forward 7 unknown #
coedge $-1 $382 $383 $158 $262 forward $254 $-1 #
edge $-1 $384 -52.570670036125364 $266 -43.249806926470733 $261 $385 forward 7 unknown #
edge $-1 $267 -14.810997905793368 $384 2.743042963972496e-014 $159 $386 forward 7 unknown #
coedge $-1 $160 $376 $382 $387 forward $265 $-1 #
loop $-1 $-1 $376 $253 #
vertex $-1 $262 $388 #
vertex $-1 $161 $389 #
straight-curve $-1 -43.897430880998243 -60.643355421517029 9.427574140025861 0 1 0 I I #
coedge $-1 $269 $269 $-1 $390 reversed $164 $-1 #
edge $-1 $391 0 $391 6.2831853071796004 $165 $392 forward 7 unknown #
vertex $-1 $168 $393 #
ellipse-curve $-1 -53.256085096427192 -30.303364225960038 4.7671425851985436 0 -0.62932039886446345 0.77714595512881146 1 0 0 1 I I #
coedge $-1 $273 $273 $-1 $394 reversed $171 $-1 #
edge $-1 $395 0 $395 6.2831853071796004 $172 $396 forward 7 unknown #
vertex $-1 $175 $397 #
ellipse-curve $-1 -47.640892567169828 -30.303364225960038 4.7671425851985436 0 -0.62932039886446345 0.77714595512881146 1 0 0 1 I I #
face $-1 $-1 $289 $38 $-1 $398 forward single #
loop $-1 $-1 $399 $176 #
plane-surface $-1 0 -36.058517782914357 0 0 1 0 0 0 1 forward_v I I I I #
coedge $-1 $400 $401 $402 $403 reversed $177 $-1 #
coedge $-1 $404 $179 $181 $287 forward $111 $-1 #
coedge $-1 $179 $404 $400 $405 forward $111 $-1 #
coedge $-1 $402 $182 $179 $284 forward $289 $-1 #
edge $-1 $291 -13.059438652997002 $406 0.042677248603522955 $283 $407 forward 7 unknown #
coedge $-1 $408 $409 $180 $286 forward $278 $-1 #
edge $-1 $410 -52.570670036125364 $290 -43.249806926470733 $285 $411 forward 7 unknown #
edge $-1 $291 -14.810997905793368 $410 2.743042963972496e-014 $181 $412 forward 7 unknown #
coedge $-1 $182 $402 $408 $413 forward $289 $-1 #
loop $-1 $-1 $402 $277 #
vertex $-1 $286 $414 #
vertex $-1 $183 $415 #
straight-curve $-1 19.567819355193741 -60.643355421517029 9.427574140025861 0 1 0 I I #
coedge $-1 $293 $293 $-1 $416 reversed $186 $-1 #
edge $-1 $417 0 $417 6.2831853071796004 $187 $418 forward 7 unknown #
vertex $-1 $190 $419 #
ellipse-curve $-1 10.209165139764806 -30.303364225960038 4.7671425851985436 0 -0.62932039886446345 0.77714595512881146 1 0 0 1 I I #
coedge $-1 $297 $297 $-1 $420 reversed $193 $-1 #
edge $-1 $421 0 $421 6.2831853071796004 $194 $422 forward 7 unknown #
vertex $-1 $197 $423 #
ellipse-curve $-1 15.824357669022163 -30.303364225960038 4.7671425851985436 0 -0.62932039886446345 0.77714595512881146 1 0 0 1 I I #
face $-1 $-1 $424 $41 $-1 $425 reversed single #
loop $-1 $-1 $204 $198 #
plane-surface $-1 0 0 9.4275741400258593 0 0 1 1 0 0 forward_v I I I I #
coedge $-1 $426 $427 $428 $429 reversed $199 $-1 #
coedge $-1 $430 $201 $203 $311 forward $125 $-1 #
coedge $-1 $201 $430 $426 $431 forward $125 $-1 #
coedge $-1 $428 $204 $201 $308 forward $302 $-1 #
edge $-1 $314 -35.628663337687136 $432 -11.546073281021457 $307 $433 forward 7 unknown #
coedge $-1 $434 $435 $202 $310 forward $424 $-1 #
edge $-1 $436 -71.220627031004256 $313 -65.305297374060842 $309 $437 forward 7 unknown #
edge $-1 $314 63.893759742069626 $436 72.117035565828729 $203 $438 forward 7 unknown #
coedge $-1 $204 $428 $434 $439 forward $302 $-1 #
vertex $-1 $310 $440 #
vertex $-1 $205 $441 #
straight-curve $-1 -59.216031647041433 41.690621037603279 9.4275741400258539 0 -1 0 I I #
coedge $-1 $316 $316 $-1 $442 reversed $208 $-1 #
edge $-1 $443 0 $443 6.2831853071796004 $209 $444 forward 7 unknown #
vertex $-1 $212 $445 #
ellipse-curve $-1 -52.335291630851231 33.202334126209728 6.4699093115541508 0 0.71933980857756763 0.69465836192734942 2 0 0 1 I I #
coedge $-1 $320 $320 $-1 $446 reversed $215 $-1 #
edge $-1 $447 0 $447 6.2831853071796004 $216 $448 forward 7 unknown #
vertex $-1 $219 $449 #
ellipse-curve $-1 -42.014181606565948 33.202334126209728 6.4699093115541508 0 0.71933980857756763 0.69465836192734942 2 0 0 1 I I #
face $-1 $-1 $235 $33 $-1 $450 reversed single #
loop $-1 $-1 $340 $220 #
plane-surface $-1 0 36.058517782914357 0 0 -1 0 0 0 -1 forward_v I I I I #
coedge $-1 $451 $338 $341 $452 forward $221 $-1 #
coedge $-1 $344 $223 $224 $332 reversed $139 $-1 #
coedge $-1 $338 $451 $223 $330 reversed $221 $-1 #
edge $-1 $345 -9.4275741400258593 $453 9.4275741400258593 $329 $454 forward 7 unknown #
coedge $-1 $225 $224 $451 $455 forward $89 $-1 #
edge $-1 $336 -67.714468825342564 $453 67.714468825342564 $328 $456 forward 7 unknown #
coedge $-1 $341 $340 $225 $334 reversed $325 $-1 #
edge $-1 $457 -67.714468825342564 $335 67.714468825342564 $333 $458 forward 7 unknown #
vertex $-1 $227 $459 #
vertex $-1 $347 $460 #
straight-curve $-1 67.714468825342564 0 -9.4275741400258593 0 -1 0 I I #
coedge $-1 $327 $329 $228 $339 reversed $221 $-1 #
edge $-1 $342 -36.058517782914357 $345 36.058517782914357 $338 $461 forward 7 unknown #
coedge $-1 $333 $229 $234 $348 forward $325 $-1 #
coedge $-1 $229 $333 $327 $452 reversed $325 $-1 #
vertex $-1 $230 $462 #
straight-curve $-1 0 36.058517782914357 9.4275741400258593 -1 0 0 I I #
coedge $-1 $231 $328 $233 $347 reversed $139 $-1 #
vertex $-1 $339 $463 #
straight-curve $-1 0 -36.058517782914357 9.4275741400258593 1 0 0 I I #
edge $-1 $236 -9.4275741400258593 $336 9.4275741400258593 $233 $464 forward 7 unknown #
edge $-1 $237 -9.4275741400258593 $335 9.4275741400258593 $234 $465 forward 7 unknown #
point $-1 67.714468825342564 -36.058517782914357 9.4275741400258593 #
point $-1 67.714468825342564 36.058517782914357 9.4275741400258593 #
face $-1 $-1 $365 $34 $-1 $466 reversed single #
loop $-1 $-1 $361 $239 #
plane-surface $-1 0 0 -9.4275741400258593 0 0 1 1 0 0 forward_v I I I I #
coedge $-1 $467 $468 $355 $469 forward $240 $-1 #
coedge $-1 $243 $242 $354 $469 reversed $93 $-1 #
coedge $-1 $361 $470 $242 $357 forward $352 $-1 #
edge $-1 $471 -76.21290600364371 $359 -67.714468825342564 $242 $472 forward 7 unknown #
edge $-1 $250 -4.2492185891505727 $473 4.2492185891505727 $243 $474 forward 7 unknown #
vertex $-1 $244 $475 #
straight-curve $-1 -67.714468825342564 36.058517782914357 0 0 0 -1 I I #
coedge $-1 $476 $356 $245 $362 forward $352 $-1 #
edge $-1 $359 -36.058517782914357 $366 36.058517782914357 $361 $477 forward 7 unknown #
coedge $-1 $478 $246 $249 $369 reversed $365 $-1 #
coedge $-1 $246 $478 $476 $479 reversed $365 $-1 #
loop $-1 $-1 $246 $351 #
vertex $-1 $479 $480 #
straight-curve $-1 -67.714468825342564 -36.058517782914357 0 0 0 1 I I #
coedge $-1 $249 $248 $468 $481 forward $147 $-1 #
edge $-1 $482 -4.2492185891505727 $251 4.2492185891505727 $363 $483 forward 7 unknown #
point $-1 -67.714468825342564 36.058517782914357 -3.9140818079443278 #
point $-1 -67.714468825342564 -36.058517782914357 -3.9140818079443278 #
plane-surface $-1 0 0 9.4275741400258593 0 0 1 1 0 0 forward_v I I I I #
coedge $-1 $383 $382 $375 $484 forward $254 $-1 #
coedge $-1 $375 $256 $258 $379 reversed $155 $-1 #
coedge $-1 $256 $374 $373 $484 reversed $155 $-1 #
coedge $-1 $264 $259 $256 $377 forward $265 $-1 #
edge $-1 $380 -36.095144752511302 $485 -24.584837638602671 $376 $486 forward 7 unknown #
coedge $-1 $258 $257 $383 $487 reversed $97 $-1 #
edge $-1 $488 -2.743042963972496e-014 $380 14.810997905793368 $374 $489 forward 7 unknown #
vertex $-1 $260 $490 #
straight-curve $-1 -25.224244415899253 -24.548210669005719 9.4275741400258593 -1 0 0 I I #
coedge $-1 $373 $261 $264 $387 reversed $254 $-1 #
coedge $-1 $261 $373 $378 $487 forward $254 $-1 #
vertex $-1 $262 $491 #
straight-curve $-1 -43.897430880998243 -36.058517782914357 52.677381066496594 0 0 1 I I #
straight-curve $-1 -43.897430880998243 -36.058517782914336 0.10671103037124396 0 -0.77714595512881146 -0.62932039886446345 I I #
edge $-1 $485 -56.99954678259877 $266 -43.897430880998243 $382 $492 forward 7 unknown #
point $-1 -43.897430880998243 -36.058517782914357 9.4275741400258593 #
point $-1 -43.897430880998243 -24.548210669005723 9.4275741400258593 #
edge $-1 $493 1 $493 0 $269 $-1 forward 7 unknown #
vertex $-1 $270 $494 #
ellipse-curve $-1 -53.256085096427192 -29.446914610598153 3.7095154122178307 0 -0.62932039886446345 0.77714595512881146 1 0 0 1 I I #
point $-1 -52.256085096427192 -30.303364225960042 4.7671425851985454 #
edge $-1 $495 1 $495 0 $273 $-1 forward 7 unknown #
vertex $-1 $274 $496 #
ellipse-curve $-1 -47.640892567169828 -29.446914610598153 3.7095154122178307 0 -0.62932039886446345 0.77714595512881146 1 0 0 1 I I #
point $-1 -46.640892567169828 -30.303364225960042 4.7671425851985454 #
plane-surface $-1 0 0 9.4275741400258593 0 0 1 1 0 0 forward_v I I I I #
coedge $-1 $409 $408 $401 $497 forward $278 $-1 #
coedge $-1 $401 $280 $282 $405 reversed $177 $-1 #
coedge $-1 $280 $400 $399 $497 reversed $177 $-1 #
coedge $-1 $288 $283 $280 $403 forward $289 $-1 #
edge $-1 $406 -36.095144752511302 $498 -24.584837638602671 $402 $499 forward 7 unknown #
coedge $-1 $282 $281 $409 $500 reversed $111 $-1 #
edge $-1 $501 -2.743042963972496e-014 $406 14.810997905793368 $400 $502 forward 7 unknown #
vertex $-1 $284 $503 #
straight-curve $-1 6.5083807021967388 -24.548210669005719 9.4275741400258593 -1 0 0 I I #
coedge $-1 $399 $285 $288 $413 reversed $278 $-1 #
coedge $-1 $285 $399 $404 $500 forward $278 $-1 #
vertex $-1 $286 $504 #
straight-curve $-1 19.567819355193741 -36.058517782914357 52.677381066496594 0 0 1 I I #
straight-curve $-1 19.567819355193741 -36.058517782914336 0.10671103037124396 0 -0.77714595512881146 -0.62932039886446345 I I #
edge $-1 $498 6.4657034535932159 $290 19.567819355193741 $408 $505 forward 7 unknown #
point $-1 19.567819355193741 -36.058517782914357 9.4275741400258593 #
point $-1 19.567819355193741 -24.548210669005723 9.4275741400258593 #
edge $-1 $506 1 $506 0 $293 $-1 forward 7 unknown #
vertex $-1 $294 $507 #
ellipse-curve $-1 10.209165139764806 -29.446914610598153 3.7095154122178307 0 -0.62932039886446345 0.77714595512881146 1 0 0 1 I I #
point $-1 11.209165139764806 -30.303364225960042 4.7671425851985454 #
edge $-1 $508 1 $508 0 $297 $-1 forward 7 unknown #
vertex $-1 $298 $509 #
ellipse-curve $-1 15.824357669022163 -29.446914610598153 3.7095154122178307 0 -0.62932039886446345 0.77714595512881146 1 0 0 1 I I #
point $-1 16.824357669022163 -30.303364225960042 4.7671425851985454 #
loop $-1 $-1 $309 $301 #
plane-surface $-1 0 36.058517782914357 0 0 -1 0 0 0 -1 forward_v I I I I #
coedge $-1 $427 $304 $306 $431 reversed $199 $-1 #
coedge $-1 $304 $426 $510 $511 reversed $199 $-1 #
coedge $-1 $312 $307 $304 $429 forward $302 $-1 #
edge $-1 $432 -11.344470568098195 $512 -5.6321032546889214 $428 $513 forward 7 unknown #
coedge $-1 $306 $305 $435 $514 reversed $125 $-1 #
edge $-1 $515 -72.117035565828729 $432 -63.893759742069626 $426 $516 forward 7 unknown #
vertex $-1 $308 $517 #
straight-curve $-1 -23.587368309354297 30.346150469505076 9.4275741400258681 1 0 0 I I #
coedge $-1 $510 $309 $312 $439 reversed $424 $-1 #
coedge $-1 $309 $510 $430 $514 forward $424 $-1 #
vertex $-1 $310 $518 #
straight-curve $-1 -59.216031647041433 36.058517782914357 74.732871514086696 0 0 1 I I #
straight-curve $-1 -59.216031647041433 -14.038184010300625 55.388899042187319 0 0.69465836192734942 -0.71933980857756763 I I #
edge $-1 $512 35.133441590375753 $313 59.216031647041433 $434 $519 forward 7 unknown #
point $-1 -59.216031647041433 36.058517782914357 9.4275741400258593 #
point $-1 -59.216031647041433 30.346150469505083 9.427574140025861 #
edge $-1 $520 1 $520 0 $316 $-1 forward 7 unknown #
vertex $-1 $317 $521 #
ellipse-curve $-1 -52.335291630851231 30.769438949166275 4.1204898045650378 0 0.71933980857756763 0.69465836192734942 2 0 0 1 I I #
point $-1 -50.335291630851231 33.202334126209735 6.469909311554165 #
edge $-1 $522 1 $522 0 $320 $-1 forward 7 unknown #
vertex $-1 $321 $523 #
ellipse-curve $-1 -42.014181606565948 30.769438949166275 4.1204898045650378 0 0.71933980857756763 0.69465836192734942 2 0 0 1 I I #
point $-1 -40.014181606565948 33.202334126209735 6.469909311554165 #
plane-surface $-1 67.714468825342564 0 0 -1 0 0 0 0 1 forward_v I I I I #
coedge $-1 $329 $327 $331 $455 reversed $221 $-1 #
edge $-1 $342 -9.4275741400258593 $457 9.4275741400258593 $341 $524 forward 7 unknown #
vertex $-1 $455 $525 #
straight-curve $-1 -67.714468825342564 -36.058517782914357 0 0 0 -1 I I #
edge $-1 $453 -36.058517782914357 $457 36.058517782914357 $451 $526 forward 7 unknown #
straight-curve $-1 0 -36.058517782914357 -9.4275741400258593 -1 0 0 I I #
vertex $-1 $334 $527 #
straight-curve $-1 0 36.058517782914357 -9.4275741400258593 1 0 0 I I #
point $-1 67.714468825342564 36.058517782914357 -9.4275741400258593 #
point $-1 67.714468825342564 -36.058517782914357 -9.4275741400258593 #
straight-curve $-1 -67.714468825342564 0 9.4275741400258593 0 -1 0 I I #
point $-1 -67.714468825342564 36.058517782914357 9.4275741400258593 #
point $-1 -67.714468825342564 -36.058517782914357 9.4275741400258593 #
straight-curve $-1 67.714468825342564 -36.058517782914357 0 0 0 -1 I I #
straight-curve $-1 67.714468825342564 36.058517782914357 0 0 0 -1 I I #
plane-surface $-1 0 -36.058517782914357 0 0 1 0 0 0 1 forward_v I I I I #
coedge $-1 $528 $354 $470 $529 reversed $240 $-1 #
coedge $-1 $354 $528 $368 $481 reversed $240 $-1 #
edge $-1 $473 -2.7567461660407657 $471 2.7567461660407657 $355 $530 forward 7 unknown #
coedge $-1 $356 $476 $467 $529 forward $352 $-1 #
vertex $-1 $357 $531 #
straight-curve $-1 0 36.058517782914357 -9.4275741400258593 1 0 0 I I #
vertex $-1 $358 $532 #
straight-curve $-1 -71.963687414493137 36.058517782914357 -3.9140818079443278 -1 0 0 I I #
point $-1 -67.714468825342564 36.058517782914357 -9.4275741400258593 #
coedge $-1 $470 $361 $364 $479 forward $352 $-1 #
straight-curve $-1 -67.714468825342564 0 -9.4275741400258593 0 -1 0 I I #
coedge $-1 $364 $363 $528 $533 forward $365 $-1 #
edge $-1 $366 -4.2492185891505727 $534 4.2492185891505727 $364 $535 forward 7 unknown #
point $-1 -67.714468825342564 -36.058517782914357 -9.4275741400258593 #
edge $-1 $473 -36.058517782914357 $482 36.058517782914357 $468 $536 forward 7 unknown #
vertex $-1 $481 $537 #
straight-curve $-1 -71.963687414493137 -36.058517782914357 -3.9140818079443278 1 0 0 I I #
edge $-1 $485 43.249806926470733 $488 52.570670036125364 $373 $538 forward 7 unknown #
vertex $-1 $387 $539 #
straight-curve $-1 -56.99954678259877 -60.643355421517029 9.427574140025861 0 -1 0 I I #
edge $-1 $488 -31.775302366699517 $384 -18.67318646509899 $383 $540 forward 7 unknown #
vertex $-1 $487 $541 #
straight-curve $-1 -56.99954678259877 -36.058517782914336 0.10671103037124396 0 0.77714595512881146 0.62932039886446345 I I #
point $-1 -56.99954678259877 -24.548210669005723 9.4275741400258593 #
point $-1 -43.897430880998243 -36.058517782914357 0.1067110303712267 #
straight-curve $-1 0 -36.058517782914357 9.4275741400258593 1 0 0 I I #
vertex $-1 $390 $542 #
point $-1 -52.256085096427192 -29.446914610598153 3.7095154122178307 #
vertex $-1 $394 $543 #
point $-1 -46.640892567169828 -29.446914610598153 3.7095154122178307 #
edge $-1 $498 43.249806926470733 $501 52.570670036125364 $399 $544 forward 7 unknown #
vertex $-1 $413 $545 #
straight-curve $-1 6.4657034535932159 -60.643355421517029 9.427574140025861 0 -1 0 I I #
edge $-1 $501 -0.042677248603522955 $410 13.059438652997002 $409 $546 forward 7 unknown #
vertex $-1 $500 $547 #
straight-curve $-1 6.4657034535932159 -36.058517782914336 0.10671103037124396 0 0.77714595512881146 0.62932039886446345 I I #
point $-1 6.4657034535932159 -24.548210669005723 9.4275741400258593 #
point $-1 19.567819355193741 -36.058517782914357 0.1067110303712267 #
straight-curve $-1 0 -36.058517782914357 9.4275741400258593 1 0 0 I I #
vertex $-1 $416 $548 #
point $-1 11.209165139764806 -29.446914610598153 3.7095154122178307 #
vertex $-1 $420 $549 #
point $-1 16.824357669022163 -29.446914610598153 3.7095154122178307 #
coedge $-1 $435 $434 $427 $511 forward $424 $-1 #
edge $-1 $512 65.305297374060842 $515 71.220627031004256 $510 $550 forward 7 unknown #
vertex $-1 $439 $551 #
straight-curve $-1 -35.133441590375753 41.690621037603279 9.4275741400258539 0 1 0 I I #
edge $-1 $515 11.546073281021457 $436 35.628663337687136 $435 $552 forward 7 unknown #
vertex $-1 $514 $553 #
straight-curve $-1 -35.133441590375753 -14.038184010300625 55.388899042187319 0 -0.69465836192734942 0.71933980857756763 I I #
point $-1 -35.133441590375753 30.346150469505083 9.427574140025861 #
point $-1 -59.216031647041433 36.058517782914357 3.5122444830824406 #
straight-curve $-1 0 36.058517782914357 9.4275741400258593 -1 0 0 I I #
vertex $-1 $442 $554 #
point $-1 -50.335291630851231 30.769438949166275 4.1204898045650378 #
vertex $-1 $446 $555 #
point $-1 -40.014181606565948 30.769438949166275 4.1204898045650378 #
straight-curve $-1 -67.714468825342564 36.058517782914357 0 0 0 -1 I I #
point $-1 -67.714468825342564 -36.058517782914357 -9.4275741400258593 #
straight-curve $-1 -67.714468825342564 0 -9.4275741400258593 0 1 0 I I #
point $-1 -67.714468825342564 36.058517782914357 -9.4275741400258593 #
coedge $-1 $468 $467 $478 $533 reversed $240 $-1 #
edge $-1 $534 -36.058517782914357 $471 36.058517782914357 $467 $556 forward 7 unknown #
straight-curve $-1 -76.21290600364371 36.058517782914357 -6.6708279739850935 0 0 -1 I I #
point $-1 -76.21290600364371 36.058517782914357 -9.4275741400258593 #
point $-1 -76.21290600364371 36.058517782914357 -3.9140818079443278 #
edge $-1 $482 -2.7567461660407657 $534 2.7567461660407657 $528 $557 forward 7 unknown #
vertex $-1 $529 $558 #
straight-curve $-1 -71.963687414493137 -36.058517782914357 -9.4275741400258593 -1 0 0 I I #
straight-curve $-1 -76.21290600364371 0 -3.9140818079443278 0 -1 0 I I #
point $-1 -76.21290600364371 -36.058517782914357 -3.9140818079443278 #
straight-curve $-1 -56.99954678259877 -36.058517782914357 52.677381066496594 0 0 -1 I I #
point $-1 -56.99954678259877 -36.058517782914357 9.4275741400258593 #
straight-curve $-1 -25.224244415899253 -36.058517782914357 0.10671103037122952 1 0 0 I I #
point $-1 -56.99954678259877 -36.058517782914357 0.1067110303712267 #
point $-1 -53.256085096427192 -28.817594211733688 2.9323694570890191 #
point $-1 -47.640892567169828 -28.817594211733688 2.9323694570890191 #
straight-curve $-1 6.4657034535932159 -36.058517782914357 52.677381066496594 0 0 -1 I I #
point $-1 6.4657034535932159 -36.058517782914357 9.4275741400258593 #
straight-curve $-1 6.5083807021967388 -36.058517782914357 0.10671103037122952 1 0 0 I I #
point $-1 6.4657034535932159 -36.058517782914357 0.1067110303712267 #
point $-1 10.209165139764806 -28.817594211733688 2.9323694570890191 #
point $-1 15.824357669022163 -28.817594211733688 2.9323694570890191 #
straight-curve $-1 -35.133441590375753 36.058517782914357 74.732871514086696 0 0 -1 I I #
point $-1 -35.133441590375753 36.058517782914357 9.4275741400258593 #
straight-curve $-1 -23.587368309354297 36.058517782914357 3.5122444830824513 -1 0 0 I I #
point $-1 -35.133441590375753 36.058517782914357 3.5122444830824406 #
point $-1 -52.335291630851231 29.330759332011137 2.7311730807103394 #
point $-1 -42.014181606565948 29.330759332011137 2.7311730807103394 #
straight-curve $-1 -76.21290600364371 0 -9.4275741400258593 0 1 0 I I #
straight-curve $-1 -76.21290600364371 -36.058517782914357 -6.6708279739850935 0 0 -1 I I #
point $-1 -76.21290600364371 -36.058517782914357 -9.4275741400258593 #
End-of-ACIS-data 