500 0 9 0           
7 Unknown 11 ACIS 5.0 NT 24 Fri Mar 26 00:51:38 1999 
-1 9.9999999999999995e-007 1e-010 
body $-1 $9 $-1 $10 #
body $-1 $11 $-1 $12 #
body $-1 $13 $-1 $14 #
body $-1 $15 $-1 $16 #
body $-1 $17 $-1 $18 #
body $-1 $19 $-1 $20 #
body $-1 $21 $-1 $22 #
body $-1 $23 $-1 $24 #
body $-1 $25 $-1 $26 #
lump $-1 $-1 $27 $0 #
transform $-1 1 0 0 0 1 0 0 0 1 41.51615955076754 19.78412818241905 5.8600072046408913 1 rotate no_reflect no_shear #
lump $-1 $-1 $28 $1 #
transform $-1 1 0 0 0 1 0 0 0 1 41.51615955076754 19.78412818241905 5.8600072046408913 1 rotate no_reflect no_shear #
lump $-1 $-1 $29 $2 #
transform $-1 1 0 0 0 1 0 0 0 1 41.51615955076754 19.78412818241905 5.8600072046408913 1 rotate no_reflect no_shear #
lump $-1 $-1 $30 $3 #
transform $-1 1 0 0 0 1 0 0 0 1 41.51615955076754 19.78412818241905 5.8600072046408913 1 rotate no_reflect no_shear #
lump $-1 $-1 $31 $4 #
transform $-1 1 0 0 0 1 0 0 0 1 41.51615955076754 19.78412818241905 5.8600072046408913 1 rotate no_reflect no_shear #
lump $-1 $-1 $32 $5 #
transform $-1 1 0 0 0 1 0 0 0 1 41.51615955076754 19.78412818241905 5.8600072046408913 1 rotate no_reflect no_shear #
lump $-1 $-1 $33 $6 #
transform $-1 1 0 0 0 1 0 0 0 1 41.51615955076754 19.78412818241905 5.8600072046408913 1 rotate no_reflect no_shear #
lump $-1 $-1 $34 $7 #
transform $-1 1 0 0 0 1 0 0 0 1 41.51615955076754 19.78412818241905 5.8600072046408913 1 rotate no_reflect no_shear #
lump $-1 $-1 $35 $8 #
transform $-1 1 0 0 0 1 0 0 0 1 41.51615955076754 19.78412818241905 5.8600072046408913 1 rotate no_reflect no_shear #
shell $-1 $-1 $-1 $36 $-1 $9 #
shell $-1 $-1 $-1 $37 $-1 $11 #
shell $-1 $-1 $-1 $38 $-1 $13 #
shell $-1 $-1 $-1 $39 $-1 $15 #
shell $-1 $-1 $-1 $40 $-1 $17 #
shell $-1 $-1 $-1 $41 $-1 $19 #
shell $-1 $-1 $-1 $42 $-1 $21 #
shell $-1 $-1 $-1 $43 $-1 $23 #
shell $-1 $-1 $-1 $44 $-1 $25 #
face $-1 $45 $46 $27 $-1 $47 forward single #
face $-1 $48 $49 $28 $-1 $50 reversed single #
face $-1 $51 $52 $29 $-1 $53 reversed single #
face $-1 $54 $55 $30 $-1 $56 forward single #
face $-1 $57 $58 $31 $-1 $59 forward single #
face $-1 $60 $61 $32 $-1 $62 reversed single #
face $-1 $63 $64 $33 $-1 $65 forward single #
face $-1 $66 $67 $34 $-1 $68 forward single #
face $-1 $69 $70 $35 $-1 $71 forward single #
face $-1 $72 $73 $27 $-1 $74 reversed single #
loop $-1 $-1 $75 $36 #
plane-surface $-1 0 0 5.8600072046408913 0 0 1 1 0 0 forward_v I I I I #
face $-1 $76 $77 $28 $-1 $78 reversed single #
loop $-1 $-1 $79 $37 #
plane-surface $-1 -39.533727357900922 0 2.8600072046408913 0 0 1 1 0 0 forward_v I I I I #
face $-1 $80 $81 $29 $-1 $82 reversed single #
loop $-1 $-1 $83 $38 #
plane-surface $-1 -27.075285726394277 -8.1948538882581587 28.905580714392272 0 0.70710678939079041 0.70710677298230451 1 0 0 forward_v I I I I #
face $-1 $84 $85 $30 $-1 $86 forward single #
loop $-1 $87 $88 $39 #
cone-surface $-1 -31.565004057240003 15.285443825741936 1.3613228378759406 0 -0.70710678939079041 -0.70710677298230451 1.5 0 0 1 I I 0 1 1.5 forward I I I I #
face $-1 $89 $90 $31 $-1 $91 forward single #
loop $-1 $92 $93 $40 #
cone-surface $-1 -22.585567395548548 15.285443825741936 1.3613228378759406 0 -0.70710678939079041 -0.70710677298230451 1.5 0 0 1 I I 0 1 1.5 forward I I I I #
face $-1 $94 $95 $32 $-1 $96 reversed single #
loop $-1 $-1 $97 $41 #
plane-surface $-1 -26.305894023274263 -89.420891065746659 47.534073690143764 -1 0 0 0 -0.83867057594974714 0.54463902268945019 forward_v I I I I #
face $-1 $98 $99 $33 $-1 $100 forward single #
loop $-1 $101 $102 $42 #
cone-surface $-1 -35.302214936682297 -18.032419832356435 3.6964177545690218 0 0.83867057594974714 -0.54463902268945019 1 0 0 1 I I 0 1 1 forward I I I I #
face $-1 $103 $104 $34 $-1 $105 forward single #
loop $-1 $106 $107 $43 #
cone-surface $-1 -31.928594594154287 -18.032419832356435 3.6964177545690218 0 0.83867057594974714 -0.54463902268945019 1 0 0 1 I I 0 1 1 forward I I I I #
face $-1 $108 $109 $35 $-1 $110 forward single #
loop $-1 $111 $112 $44 #
cone-surface $-1 -28.554974251626273 -18.032419832356435 3.6964177545690218 0 0.83867057594974714 -0.54463902268945019 1 0 0 1 I I 0 1 1 forward I I I I #
face $-1 $113 $114 $27 $-1 $115 reversed single #
loop $-1 $-1 $116 $45 #
plane-surface $-1 0 0 -5.8600072046408913 0 0 1 1 0 0 forward_v I I I I #
coedge $-1 $117 $118 $119 $120 forward $46 $-1 #
face $-1 $121 $122 $28 $-1 $123 reversed single #
loop $-1 $-1 $124 $48 #
plane-surface $-1 -37.551295165034304 0 4.3600072046408913 -1 0 0 0 0 1 forward_v I I I I #
coedge $-1 $125 $126 $124 $127 forward $49 $-1 #
face $-1 $128 $129 $29 $-1 $130 forward single #
loop $-1 $-1 $131 $51 #
plane-surface $-1 -16.599276287754243 50.51786268729991 87.618295927515703 -1 0 0 0 0.70710678939079041 0.70710677298230451 forward_v I I I I #
coedge $-1 $132 $133 $134 $135 reversed $52 $-1 #
face $-1 $-1 $136 $30 $-1 $137 forward single #
loop $-1 $138 $139 $54 #
cone-surface $-1 -31.565004057240003 12.723133924872091 -1.2009870035352401 0 -0.70710678939079041 -0.70710677298230451 0.75 0 0 1 I I -0.70710678118654757 0.70710678118654757 0.75 forward I I I I #
loop $-1 $-1 $140 $39 #
coedge $-1 $88 $88 $141 $142 reversed $55 $-1 #
face $-1 $-1 $143 $31 $-1 $144 forward single #
loop $-1 $145 $146 $57 #
cone-surface $-1 -22.585567395548548 12.723133924872091 -1.2009870035352401 0 -0.70710678939079041 -0.70710677298230451 0.75 0 0 1 I I -0.70710678118654757 0.70710678118654757 0.75 forward I I I I #
loop $-1 $-1 $147 $40 #
coedge $-1 $93 $93 $148 $149 reversed $58 $-1 #
face $-1 $150 $151 $32 $-1 $152 forward single #
loop $-1 $-1 $153 $60 #
plane-surface $-1 -31.928594594154283 -19.784128182419039 2.3114325630451305 0 -0.83867057594974714 0.54463902268945019 1 0 0 forward_v I I I I #
coedge $-1 $154 $155 $156 $157 reversed $61 $-1 #
face $-1 $-1 $158 $33 $-1 $159 forward single #
loop $-1 $160 $161 $63 #
cone-surface $-1 -35.302214936682297 -17.013611815886215 3.0347961139503026 0 0.83867057594974714 -0.54463902268945019 0.5 0 0 1 I I -0.70710678118654746 0.70710678118654746 0.5 forward I I I I #
loop $-1 $-1 $162 $42 #
coedge $-1 $102 $102 $163 $164 reversed $64 $-1 #
face $-1 $-1 $165 $34 $-1 $166 forward single #
loop $-1 $167 $168 $66 #
cone-surface $-1 -31.928594594154287 -17.013611815886215 3.0347961139503026 0 0.83867057594974714 -0.54463902268945019 0.5 0 0 1 I I -0.70710678118654746 0.70710678118654746 0.5 forward I I I I #
loop $-1 $-1 $169 $43 #
coedge $-1 $107 $107 $170 $171 reversed $67 $-1 #
face $-1 $-1 $172 $35 $-1 $173 forward single #
loop $-1 $174 $175 $69 #
cone-surface $-1 -28.554974251626273 -17.013611815886215 3.0347961139503026 0 0.83867057594974714 -0.54463902268945019 0.5 0 0 1 I I -0.70710678118654746 0.70710678118654746 0.5 forward I I I I #
loop $-1 $-1 $176 $44 #
coedge $-1 $112 $112 $177 $178 reversed $70 $-1 #
face $-1 $179 $180 $27 $-1 $181 reversed single #
loop $-1 $-1 $182 $72 #
plane-surface $-1 0 -19.78412818241905 0 0 1 0 0 0 1 forward_v I I I I #
coedge $-1 $183 $184 $185 $186 forward $73 $-1 #
coedge $-1 $187 $75 $188 $189 forward $46 $-1 #
coedge $-1 $75 $187 $190 $191 forward $46 $-1 #
coedge $-1 $192 $193 $75 $120 reversed $194 $-1 #
edge $-1 $195 -19.78412818241905 $196 19.78412818241905 $119 $197 forward 7 unknown #
face $-1 $198 $199 $28 $-1 $200 reversed single #
loop $-1 $-1 $201 $76 #
plane-surface $-1 0 19.78412818241905 0 0 -1 0 0 0 -1 forward_v I I I I #
coedge $-1 $202 $203 $79 $127 reversed $77 $-1 #
coedge $-1 $204 $79 $205 $206 reversed $49 $-1 #
coedge $-1 $79 $204 $207 $208 reversed $49 $-1 #
edge $-1 $209 -19.78412818241905 $210 19.78412818241905 $124 $211 forward 7 unknown #
face $-1 $212 $213 $29 $-1 $214 reversed single #
loop $-1 $-1 $134 $80 #
plane-surface $-1 0 0 5.8600072046408913 0 0 1 1 0 0 forward_v I I I I #
coedge $-1 $215 $216 $217 $218 reversed $81 $-1 #
coedge $-1 $219 $83 $220 $221 reversed $52 $-1 #
coedge $-1 $83 $219 $215 $222 forward $52 $-1 #
coedge $-1 $217 $223 $83 $135 forward $129 $-1 #
edge $-1 $224 -24.013652301837165 $225 -3.0616334245571046 $134 $226 forward 7 unknown #
loop $-1 $-1 $141 $84 #
plane-surface $-1 -27.075285726394277 -8.1948538882581587 28.905580714392272 0 0.70710678939079041 0.70710677298230451 1 0 0 forward_v I I I I #
loop $-1 $-1 $227 $54 #
coedge $-1 $139 $139 $140 $228 reversed $85 $-1 #
coedge $-1 $140 $140 $139 $228 forward $87 $-1 #
coedge $-1 $141 $141 $88 $142 forward $136 $-1 #
edge $-1 $229 1.0467282402076995e-015 $229 6.2831853071796013 $141 $230 forward 7 unknown #
loop $-1 $-1 $148 $89 #
plane-surface $-1 -27.075285726394277 -8.1948538882581587 28.905580714392272 0 0.70710678939079041 0.70710677298230451 1 0 0 forward_v I I I I #
loop $-1 $-1 $231 $57 #
coedge $-1 $146 $146 $147 $232 reversed $90 $-1 #
coedge $-1 $147 $147 $146 $232 forward $92 $-1 #
coedge $-1 $148 $148 $93 $149 forward $143 $-1 #
edge $-1 $233 1.0467282402076995e-015 $233 6.2831853071796013 $148 $234 forward 7 unknown #
face $-1 $235 $236 $32 $-1 $237 forward single #
loop $-1 $-1 $238 $94 #
plane-surface $-1 -37.551295165034304 0 4.3600072046408913 -1 0 0 0 0 1 forward_v I I I I #
coedge $-1 $239 $240 $241 $242 reversed $95 $-1 #
coedge $-1 $155 $97 $243 $244 reversed $61 $-1 #
coedge $-1 $97 $154 $239 $245 reversed $61 $-1 #
coedge $-1 $241 $246 $97 $157 forward $236 $-1 #
edge $-1 $247 24.92631735045428 $248 27.230788593588837 $156 $249 forward 7 unknown #
loop $-1 $-1 $163 $98 #
plane-surface $-1 -31.928594594154283 -19.784128182419039 2.3114325630451305 0 -0.83867057594974714 0.54463902268945019 1 0 0 forward_v I I I I #
loop $-1 $-1 $250 $63 #
coedge $-1 $161 $161 $162 $251 reversed $99 $-1 #
coedge $-1 $162 $162 $161 $251 forward $101 $-1 #
coedge $-1 $163 $163 $102 $164 forward $158 $-1 #
edge $-1 $252 -2.9089495570898117e-016 $252 6.2831853071796004 $163 $253 forward 7 unknown #
loop $-1 $-1 $170 $103 #
plane-surface $-1 -31.928594594154283 -19.784128182419039 2.3114325630451305 0 -0.83867057594974714 0.54463902268945019 1 0 0 forward_v I I I I #
loop $-1 $-1 $254 $66 #
coedge $-1 $168 $168 $169 $255 reversed $104 $-1 #
coedge $-1 $169 $169 $168 $255 forward $106 $-1 #
coedge $-1 $170 $170 $107 $171 forward $165 $-1 #
edge $-1 $256 -2.9089495570898117e-016 $256 6.2831853071796004 $170 $257 forward 7 unknown #
loop $-1 $-1 $177 $108 #
plane-surface $-1 -31.928594594154283 -19.784128182419039 2.3114325630451305 0 -0.83867057594974714 0.54463902268945019 1 0 0 forward_v I I I I #
loop $-1 $-1 $258 $69 #
coedge $-1 $175 $175 $176 $259 reversed $109 $-1 #
coedge $-1 $176 $176 $175 $259 forward $111 $-1 #
coedge $-1 $177 $177 $112 $178 forward $172 $-1 #
edge $-1 $260 -2.9089495570898117e-016 $260 6.2831853071796004 $177 $261 forward 7 unknown #
face $-1 $262 $263 $27 $-1 $264 reversed single #
loop $-1 $-1 $265 $113 #
plane-surface $-1 -41.51615955076754 0 0 1 0 0 0 0 -1 forward_v I I I I #
coedge $-1 $266 $190 $267 $268 forward $114 $-1 #
coedge $-1 $269 $116 $266 $270 forward $73 $-1 #
coedge $-1 $116 $269 $271 $272 forward $73 $-1 #
coedge $-1 $193 $192 $116 $186 reversed $194 $-1 #
edge $-1 $273 -19.78412818241905 $274 19.78412818241905 $185 $275 forward 7 unknown #
coedge $-1 $118 $117 $276 $277 forward $46 $-1 #
coedge $-1 $278 $279 $117 $189 reversed $263 $-1 #
edge $-1 $196 -41.51615955076754 $280 41.51615955076754 $188 $281 forward 7 unknown #
coedge $-1 $182 $282 $118 $191 reversed $114 $-1 #
edge $-1 $283 -41.51615955076754 $195 41.51615955076754 $190 $284 forward 7 unknown #
coedge $-1 $185 $119 $282 $285 forward $194 $-1 #
coedge $-1 $119 $185 $278 $286 reversed $194 $-1 #
loop $-1 $-1 $192 $262 #
vertex $-1 $120 $287 #
vertex $-1 $120 $288 #
straight-curve $-1 41.51615955076754 0 5.8600072046408913 0 1 0 I I #
face $-1 $289 $290 $28 $-1 $291 forward single #
loop $-1 $-1 $292 $121 #
plane-surface $-1 -41.51615955076754 0 0 1 0 0 0 0 -1 forward_v I I I I #
coedge $-1 $207 $293 $202 $294 forward $122 $-1 #
coedge $-1 $295 $124 $201 $294 reversed $77 $-1 #
coedge $-1 $124 $295 $296 $297 reversed $77 $-1 #
coedge $-1 $126 $125 $292 $298 reversed $49 $-1 #
coedge $-1 $296 $299 $125 $206 forward $300 $-1 #
edge $-1 $301 -21.749295871817079 $210 -17.784431486083843 $205 $302 forward 7 unknown #
coedge $-1 $303 $201 $126 $208 forward $122 $-1 #
edge $-1 $209 17.784431486083843 $304 21.749295871817079 $207 $305 forward 7 unknown #
vertex $-1 $208 $306 #
vertex $-1 $206 $307 #
straight-curve $-1 -37.551295165034304 0 2.8600072046408913 0 -1 0 I I #
face $-1 $-1 $308 $29 $-1 $309 forward single #
loop $-1 $-1 $310 $128 #
plane-surface $-1 0 19.78412818241905 0 0 -1 0 0 0 -1 forward_v I I I I #
coedge $-1 $216 $131 $133 $222 reversed $81 $-1 #
coedge $-1 $131 $215 $310 $311 reversed $81 $-1 #
coedge $-1 $312 $134 $131 $218 forward $129 $-1 #
edge $-1 $225 -10.408212256931641 $313 -5.4748031612309056 $217 $314 forward 7 unknown #
coedge $-1 $133 $132 $315 $316 reversed $52 $-1 #
coedge $-1 $317 $318 $132 $221 forward $308 $-1 #
edge $-1 $319 -27.99276718172629 $224 -21.015873048901746 $220 $320 forward 7 unknown #
edge $-1 $321 -39.568256364838128 $225 -32.59136223201358 $215 $322 forward 7 unknown #
coedge $-1 $134 $312 $317 $323 forward $129 $-1 #
vertex $-1 $221 $324 #
vertex $-1 $135 $325 #
straight-curve $-1 -13.537642863197139 14.850719086718318 5.8600072046408904 1 0 0 I I #
coedge $-1 $227 $227 $-1 $326 reversed $138 $-1 #
edge $-1 $327 0 $327 6.2831853071796004 $139 $328 forward 7 unknown #
vertex $-1 $142 $329 #
ellipse-curve $-1 -31.565004057240003 17.317423634568684 3.3933025995503878 0 0.70710678939079041 0.70710677298230451 1.5 0 0 1 I I #
coedge $-1 $231 $231 $-1 $330 reversed $145 $-1 #
edge $-1 $331 0 $331 6.2831853071796004 $146 $332 forward 7 unknown #
vertex $-1 $149 $333 #
ellipse-curve $-1 -22.585567395548548 17.317423634568684 3.3933025995503878 0 0.70710678939079041 0.70710677298230451 1.5 0 0 1 I I #
face $-1 $-1 $334 $32 $-1 $335 reversed single #
loop $-1 $-1 $241 $150 #
plane-surface $-1 0 0 5.8600072046408913 0 0 1 1 0 0 forward_v I I I I #
coedge $-1 $336 $337 $240 $338 reversed $151 $-1 #
coedge $-1 $339 $153 $155 $245 forward $95 $-1 #
coedge $-1 $153 $339 $238 $338 forward $95 $-1 #
coedge $-1 $340 $156 $153 $242 forward $236 $-1 #
edge $-1 $248 10.341596726197121 $341 21.586997867957162 $241 $342 forward 7 unknown #
coedge $-1 $343 $344 $154 $244 forward $334 $-1 #
edge $-1 $345 -21.455604282026769 $247 -17.907029640430991 $243 $346 forward 7 unknown #
edge $-1 $248 -4.2311901041445257 $345 1.9585287993478785e-014 $155 $347 forward 7 unknown #
coedge $-1 $156 $340 $343 $348 forward $236 $-1 #
vertex $-1 $244 $349 #
vertex $-1 $157 $350 #
straight-curve $-1 -26.305894023274263 -44.710445532873329 5.8600072046408904 0 1 0 I I #
coedge $-1 $250 $250 $-1 $351 reversed $160 $-1 #
edge $-1 $352 0 $352 6.2831853071796004 $161 $353 forward 7 unknown #
vertex $-1 $164 $354 #
ellipse-curve $-1 -35.302214936682297 -18.631892560851767 4.0857198838430069 0 -0.83867057594974714 0.54463902268945019 1 0 0 1 I I #
coedge $-1 $254 $254 $-1 $355 reversed $167 $-1 #
edge $-1 $356 0 $356 6.2831853071796004 $168 $357 forward 7 unknown #
vertex $-1 $171 $358 #
ellipse-curve $-1 -31.928594594154287 -18.631892560851767 4.0857198838430069 0 -0.83867057594974714 0.54463902268945019 1 0 0 1 I I #
coedge $-1 $258 $258 $-1 $359 reversed $174 $-1 #
edge $-1 $360 0 $360 6.2831853071796004 $175 $361 forward 7 unknown #
vertex $-1 $178 $362 #
ellipse-curve $-1 -28.554974251626273 -18.631892560851767 4.0857198838430069 0 -0.83867057594974714 0.54463902268945019 1 0 0 1 I I #
face $-1 $-1 $194 $27 $-1 $363 reversed single #
loop $-1 $-1 $278 $179 #
plane-surface $-1 0 19.78412818241905 0 0 -1 0 0 0 -1 forward_v I I I I #
coedge $-1 $364 $276 $279 $365 forward $180 $-1 #
coedge $-1 $282 $182 $183 $270 reversed $114 $-1 #
coedge $-1 $276 $364 $182 $268 reversed $180 $-1 #
edge $-1 $283 -5.8600072046408913 $366 5.8600072046408913 $267 $367 forward 7 unknown #
coedge $-1 $184 $183 $364 $368 forward $73 $-1 #
edge $-1 $274 -41.51615955076754 $366 41.51615955076754 $266 $369 forward 7 unknown #
coedge $-1 $279 $278 $184 $272 reversed $263 $-1 #
edge $-1 $370 -41.51615955076754 $273 41.51615955076754 $271 $371 forward 7 unknown #
vertex $-1 $186 $372 #
vertex $-1 $285 $373 #
straight-curve $-1 41.51615955076754 0 -5.8600072046408913 0 -1 0 I I #
coedge $-1 $265 $267 $187 $277 reversed $180 $-1 #
edge $-1 $280 -19.78412818241905 $283 19.78412818241905 $276 $374 forward 7 unknown #
coedge $-1 $271 $188 $193 $286 forward $263 $-1 #
coedge $-1 $188 $271 $265 $365 reversed $263 $-1 #
vertex $-1 $189 $375 #
straight-curve $-1 0 19.78412818241905 5.8600072046408913 -1 0 0 I I #
coedge $-1 $190 $266 $192 $285 reversed $114 $-1 #
vertex $-1 $277 $376 #
straight-curve $-1 0 -19.78412818241905 5.8600072046408913 1 0 0 I I #
edge $-1 $195 -5.8600072046408913 $274 5.8600072046408913 $192 $377 forward 7 unknown #
edge $-1 $196 -5.8600072046408913 $273 5.8600072046408913 $193 $378 forward 7 unknown #
point $-1 41.51615955076754 -19.78412818241905 5.8600072046408913 #
point $-1 41.51615955076754 19.78412818241905 5.8600072046408913 #
face $-1 $-1 $300 $28 $-1 $379 reversed single #
loop $-1 $-1 $380 $198 #
plane-surface $-1 0 0 5.8600072046408913 0 0 1 1 0 0 forward_v I I I I #
coedge $-1 $381 $382 $204 $298 forward $199 $-1 #
coedge $-1 $201 $303 $383 $384 reversed $122 $-1 #
edge $-1 $385 -3.6800036023204457 $209 -0.68000360232044565 $201 $386 forward 7 unknown #
coedge $-1 $203 $202 $380 $387 reversed $77 $-1 #
coedge $-1 $388 $205 $203 $297 forward $300 $-1 #
edge $-1 $210 0.68000360232044565 $389 3.6800036023204457 $296 $390 forward 7 unknown #
edge $-1 $304 -19.78412818241905 $301 19.78412818241905 $292 $391 forward 7 unknown #
coedge $-1 $205 $388 $381 $392 forward $300 $-1 #
loop $-1 $-1 $296 $289 #
vertex $-1 $298 $393 #
straight-curve $-1 -19.766863678950461 -19.78412818241905 2.8600072046408913 1 0 0 I I #
coedge $-1 $293 $207 $382 $394 reversed $122 $-1 #
vertex $-1 $298 $395 #
straight-curve $-1 -19.766863678950461 19.78412818241905 2.8600072046408913 -1 0 0 I I #
point $-1 -37.551295165034304 19.78412818241905 2.8600072046408913 #
point $-1 -37.551295165034304 -19.78412818241905 2.8600072046408913 #
loop $-1 $-1 $220 $212 #
plane-surface $-1 -37.551295165034304 0 4.3600072046408913 -1 0 0 0 0 1 forward_v I I I I #
coedge $-1 $315 $396 $216 $311 forward $213 $-1 #
edge $-1 $313 37.949140759116958 $321 42.882549969297969 $310 $397 forward 7 unknown #
coedge $-1 $223 $217 $396 $398 forward $129 $-1 #
vertex $-1 $398 $399 #
straight-curve $-1 -16.599276287754243 25.258931343649955 5.860007204640894 0 1 0 I I #
coedge $-1 $400 $310 $219 $316 forward $213 $-1 #
edge $-1 $321 3.0616334245571046 $319 24.013652301837173 $315 $401 forward 7 unknown #
coedge $-1 $318 $220 $223 $323 reversed $308 $-1 #
coedge $-1 $220 $317 $400 $402 reversed $308 $-1 #
vertex $-1 $402 $403 #
straight-curve $-1 -37.551295165034304 -0.0097470862963833227 20.720473722494248 0 -0.70710677298230462 0.70710678939079052 I I #
vertex $-1 $316 $404 #
straight-curve $-1 -16.599276287754243 -8.1948538882581587 28.905580714392272 0 -0.70710677298230451 0.70710678939079041 I I #
edge $-1 $405 -19.78412818241905 $224 -14.850719086718312 $223 $406 forward 7 unknown #
point $-1 -37.551295165034304 14.850719086718312 5.8600072046408913 #
point $-1 -16.599276287754243 14.850719086718314 5.8600072046408904 #
edge $-1 $407 1 $407 0 $227 $-1 forward 7 unknown #
vertex $-1 $228 $408 #
ellipse-curve $-1 -31.565004057240003 13.253464016915183 -0.67065692379851172 0 0.70710678939079041 0.70710677298230451 1.5 0 0 1 I I #
point $-1 -30.065004057240003 17.317423634568691 3.3933025995503927 #
edge $-1 $409 1 $409 0 $231 $-1 forward 7 unknown #
vertex $-1 $232 $410 #
ellipse-curve $-1 -22.585567395548548 13.253464016915183 -0.67065692379851172 0 0.70710678939079041 0.70710677298230451 1.5 0 0 1 I I #
point $-1 -21.085567395548548 17.317423634568691 3.3933025995503927 #
loop $-1 $-1 $243 $235 #
plane-surface $-1 0 -19.78412818241905 0 0 1 0 0 0 1 forward_v I I I I #
coedge $-1 $337 $238 $411 $412 reversed $151 $-1 #
coedge $-1 $238 $336 $340 $413 reversed $151 $-1 #
edge $-1 $414 -1.9585287993478785e-014 $341 4.2311901041445275 $238 $415 forward 7 unknown #
coedge $-1 $240 $239 $344 $416 reversed $95 $-1 #
coedge $-1 $246 $241 $337 $413 forward $236 $-1 #
vertex $-1 $413 $417 #
straight-curve $-1 -15.964297297077142 -17.479656939284489 5.8600072046408913 -1 0 0 I I #
coedge $-1 $411 $243 $246 $348 reversed $334 $-1 #
coedge $-1 $243 $411 $339 $416 forward $334 $-1 #
vertex $-1 $244 $418 #
straight-curve $-1 -26.305894023274263 -19.784128182419053 23.767036845071882 0 0 1 I I #
straight-curve $-1 -26.305894023274263 -19.784128182419039 2.3114325630451305 0 -0.54463902268945019 -0.83867057594974714 I I #
edge $-1 $419 -37.551295165034304 $247 -26.305894023274263 $343 $420 forward 7 unknown #
point $-1 -26.305894023274263 -19.78412818241905 5.8600072046408913 #
point $-1 -26.305894023274263 -17.479656939284492 5.8600072046408913 #
edge $-1 $421 1 $421 0 $250 $-1 forward 7 unknown #
vertex $-1 $251 $422 #
ellipse-curve $-1 -35.302214936682297 -17.432947103861089 3.3071156252950278 0 -0.83867057594974714 0.54463902268945019 1 0 0 1 I I #
point $-1 -34.302214936682297 -18.631892560851782 4.0857198838430158 #
edge $-1 $423 1 $423 0 $254 $-1 forward 7 unknown #
vertex $-1 $255 $424 #
ellipse-curve $-1 -31.928594594154287 -17.432947103861089 3.3071156252950278 0 -0.83867057594974714 0.54463902268945019 1 0 0 1 I I #
point $-1 -30.928594594154287 -18.631892560851782 4.0857198838430158 #
edge $-1 $425 1 $425 0 $258 $-1 forward 7 unknown #
vertex $-1 $259 $426 #
ellipse-curve $-1 -28.554974251626273 -17.432947103861089 3.3071156252950278 0 -0.83867057594974714 0.54463902268945019 1 0 0 1 I I #
point $-1 -27.554974251626273 -18.631892560851782 4.0857198838430158 #
plane-surface $-1 41.51615955076754 0 0 -1 0 0 0 0 1 forward_v I I I I #
coedge $-1 $267 $265 $269 $368 reversed $180 $-1 #
edge $-1 $280 -5.8600072046408913 $370 5.8600072046408913 $279 $427 forward 7 unknown #
vertex $-1 $368 $428 #
straight-curve $-1 -41.51615955076754 -19.78412818241905 0 0 0 -1 I I #
edge $-1 $366 -19.78412818241905 $370 19.78412818241905 $364 $429 forward 7 unknown #
straight-curve $-1 0 -19.78412818241905 -5.8600072046408913 -1 0 0 I I #
vertex $-1 $272 $430 #
straight-curve $-1 0 19.78412818241905 -5.8600072046408913 1 0 0 I I #
point $-1 41.51615955076754 19.78412818241905 -5.8600072046408913 #
point $-1 41.51615955076754 -19.78412818241905 -5.8600072046408913 #
straight-curve $-1 -41.51615955076754 0 5.8600072046408913 0 -1 0 I I #
point $-1 -41.51615955076754 19.78412818241905 5.8600072046408913 #
point $-1 -41.51615955076754 -19.78412818241905 5.8600072046408913 #
straight-curve $-1 41.51615955076754 -19.78412818241905 0 0 0 -1 I I #
straight-curve $-1 41.51615955076754 19.78412818241905 0 0 0 -1 I I #
plane-surface $-1 0 -19.78412818241905 0 0 1 0 0 0 1 forward_v I I I I #
coedge $-1 $383 $431 $295 $387 forward $290 $-1 #
coedge $-1 $432 $292 $299 $392 reversed $199 $-1 #
coedge $-1 $292 $432 $303 $394 forward $199 $-1 #
coedge $-1 $433 $380 $293 $384 forward $290 $-1 #
edge $-1 $385 37.551295165034304 $434 41.51615955076754 $293 $435 forward 7 unknown #
vertex $-1 $384 $436 #
straight-curve $-1 -37.551295165034304 19.78412818241905 2.1800036023204457 0 0 -1 I I #
edge $-1 $389 -19.78412818241905 $385 19.78412818241905 $380 $437 forward 7 unknown #
coedge $-1 $299 $296 $431 $438 reversed $300 $-1 #
vertex $-1 $297 $439 #
straight-curve $-1 -37.551295165034304 -19.78412818241905 2.1800036023204457 0 0 1 I I #
straight-curve $-1 -41.51615955076754 0 2.8600072046408913 0 -1 0 I I #
edge $-1 $440 -5.8600072046408913 $301 -2.8600072046408913 $381 $441 forward 7 unknown #
point $-1 -41.51615955076754 -19.78412818241905 2.8600072046408913 #
edge $-1 $434 -5.8600072046408913 $304 -2.8600072046408913 $303 $442 forward 7 unknown #
point $-1 -41.51615955076754 19.78412818241905 2.8600072046408913 #
coedge $-1 $310 $400 $312 $398 reversed $213 $-1 #
straight-curve $-1 -16.599276287754243 19.78412818241905 43.809147963757852 0 0 -1 I I #
edge $-1 $313 16.599276287754243 $405 37.551295165034304 $396 $443 forward 7 unknown #
point $-1 -16.599276287754243 19.78412818241905 5.8600072046408913 #
coedge $-1 $396 $315 $318 $402 forward $213 $-1 #
straight-curve $-1 -13.537642863197139 19.78412818241905 0.92659799445988789 -1 0 0 I I #
edge $-1 $319 -42.882549969297969 $405 -37.949140759116958 $400 $444 forward 7 unknown #
point $-1 -37.551295165034311 19.78412818241905 0.92659799445988611 #
point $-1 -16.599276287754243 19.78412818241905 0.92659799445988611 #
vertex $-1 $323 $445 #
straight-curve $-1 -37.551295165034304 0 5.8600072046408913 0 -1 0 I I #
vertex $-1 $326 $446 #
point $-1 -30.065004057240003 13.253464016915183 -0.67065692379851172 #
vertex $-1 $330 $447 #
point $-1 -21.085567395548548 13.253464016915183 -0.67065692379851172 #
coedge $-1 $344 $343 $336 $412 forward $334 $-1 #
edge $-1 $419 17.907029640430991 $414 21.455604282026769 $411 $448 forward 7 unknown #
edge $-1 $341 17.479656939284489 $419 19.78412818241905 $340 $449 forward 7 unknown #
vertex $-1 $412 $450 #
straight-curve $-1 -37.551295165034304 -19.784128182419039 2.3114325630451305 0 0.54463902268945019 0.83867057594974714 I I #
edge $-1 $414 -21.586997867957162 $345 -10.341596726197121 $344 $451 forward 7 unknown #
point $-1 -37.551295165034304 -17.479656939284489 5.8600072046408913 #
point $-1 -26.305894023274263 -19.78412818241905 2.311432563045114 #
vertex $-1 $348 $452 #
straight-curve $-1 0 -19.78412818241905 5.8600072046408913 1 0 0 I I #
vertex $-1 $351 $453 #
point $-1 -34.302214936682297 -17.432947103861089 3.3071156252950278 #
vertex $-1 $355 $454 #
point $-1 -30.928594594154287 -17.432947103861089 3.3071156252950278 #
vertex $-1 $359 $455 #
point $-1 -27.554974251626273 -17.432947103861089 3.3071156252950278 #
straight-curve $-1 -41.51615955076754 19.78412818241905 0 0 0 -1 I I #
point $-1 -41.51615955076754 -19.78412818241905 -5.8600072046408913 #
straight-curve $-1 -41.51615955076754 0 -5.8600072046408913 0 1 0 I I #
point $-1 -41.51615955076754 19.78412818241905 -5.8600072046408913 #
coedge $-1 $380 $433 $388 $438 forward $290 $-1 #
coedge $-1 $382 $381 $433 $456 reversed $199 $-1 #
coedge $-1 $431 $383 $432 $456 forward $290 $-1 #
vertex $-1 $384 $457 #
straight-curve $-1 0 19.78412818241905 5.8600072046408913 -1 0 0 I I #
point $-1 -37.551295165034304 19.78412818241905 5.8600072046408913 #
straight-curve $-1 -37.551295165034304 0 5.8600072046408913 0 1 0 I I #
edge $-1 $440 -41.51615955076754 $389 -37.551295165034304 $388 $458 forward 7 unknown #
point $-1 -37.551295165034304 -19.78412818241905 5.8600072046408913 #
vertex $-1 $456 $459 #
straight-curve $-1 -41.51615955076754 -19.78412818241905 0 0 0 -1 I I #
straight-curve $-1 -41.51615955076754 19.78412818241905 0 0 0 -1 I I #
straight-curve $-1 0 19.78412818241905 5.8600072046408913 -1 0 0 I I #
straight-curve $-1 -37.551295165034311 19.78412818241905 43.809147963757852 0 0 1 I I #
point $-1 -37.551295165034304 19.78412818241905 5.8600072046408913 #
point $-1 -31.565004057240003 12.192803832828998 -1.7313170832719686 #
point $-1 -22.585567395548548 12.192803832828998 -1.7313170832719686 #
straight-curve $-1 -37.551295165034304 -19.784128182419053 23.767036845071882 0 0 -1 I I #
straight-curve $-1 -37.551295165034304 0 5.8600072046408913 0 -1 0 I I #
point $-1 -37.551295165034304 -19.78412818241905 2.311432563045114 #
straight-curve $-1 -15.964297297077142 -19.78412818241905 2.3114325630451162 1 0 0 I I #
point $-1 -37.551295165034304 -19.78412818241905 5.8600072046408913 #
point $-1 -35.302214936682297 -16.59427652791134 2.7624766026055774 #
point $-1 -31.928594594154287 -16.59427652791134 2.7624766026055774 #
point $-1 -28.554974251626273 -16.59427652791134 2.7624766026055774 #
edge $-1 $434 -19.78412818241905 $440 19.78412818241905 $432 $460 forward 7 unknown #
point $-1 -41.51615955076754 19.78412818241905 5.8600072046408913 #
straight-curve $-1 0 -19.78412818241905 5.8600072046408913 1 0 0 I I #
point $-1 -41.51615955076754 -19.78412818241905 5.8600072046408913 #
straight-curve $-1 -41.51615955076754 0 5.8600072046408913 0 -1 0 I I #
End-of-ACIS-data 