500 0 5 0           
7 Unknown 11 ACIS 5.0 NT 24 Thu Mar 25 16:48:05 1999 
-1 9.9999999999999995e-007 1e-010 
body $-1 $5 $-1 $6 #
body $-1 $7 $-1 $8 #
body $-1 $9 $-1 $10 #
body $-1 $11 $-1 $12 #
body $-1 $13 $-1 $14 #
lump $-1 $-1 $15 $0 #
transform $-1 1 0 0 0 1 0 0 0 1 65.61845759453108 42.501904251328767 16.43120738805986 1 rotate no_reflect no_shear #
lump $-1 $-1 $16 $1 #
transform $-1 1 0 0 0 1 0 0 0 1 65.61845759453108 42.501904251328767 16.43120738805986 1 rotate no_reflect no_shear #
lump $-1 $-1 $17 $2 #
transform $-1 1 0 0 0 1 0 0 0 1 65.61845759453108 42.501904251328767 16.43120738805986 1 rotate no_reflect no_shear #
lump $-1 $-1 $18 $3 #
transform $-1 1 0 0 0 1 0 0 0 1 65.61845759453108 42.501904251328767 16.43120738805986 1 rotate no_reflect no_shear #
lump $-1 $-1 $19 $4 #
transform $-1 1 0 0 0 1 0 0 0 1 65.61845759453108 42.501904251328767 16.43120738805986 1 rotate no_reflect no_shear #
shell $-1 $-1 $-1 $20 $-1 $5 #
shell $-1 $-1 $-1 $21 $-1 $7 #
shell $-1 $-1 $-1 $22 $-1 $9 #
shell $-1 $-1 $-1 $23 $-1 $11 #
shell $-1 $-1 $-1 $24 $-1 $13 #
face $-1 $25 $26 $15 $-1 $27 forward single #
face $-1 $28 $29 $16 $-1 $30 reversed single #
face $-1 $31 $32 $17 $-1 $33 reversed single #
face $-1 $34 $35 $18 $-1 $36 reversed single #
face $-1 $37 $38 $19 $-1 $39 forward single #
face $-1 $40 $41 $15 $-1 $42 reversed single #
loop $-1 $-1 $43 $20 #
plane-surface $-1 0 0 16.43120738805986 0 0 1 1 0 0 forward_v I I I I #
face $-1 $44 $45 $16 $-1 $46 reversed single #
loop $-1 $-1 $47 $21 #
plane-surface $-1 -57.511900513209284 0 10.793739212821158 0 0 1 1 0 0 forward_v I I I I #
face $-1 $48 $49 $17 $-1 $50 reversed single #
loop $-1 $-1 $51 $22 #
plane-surface $-1 57.511900513209284 0 10.793739212821158 0 0 1 1 0 0 forward_v I I I I #
face $-1 $52 $53 $18 $-1 $54 reversed single #
loop $-1 $-1 $55 $23 #
plane-surface $-1 -21.674236121996113 93.584436520800921 150.45274843718528 1 0 0 0 -0.78801076186113728 -0.61566146476048833 forward_v I I I I #
face $-1 $56 $57 $19 $-1 $58 forward single #
loop $-1 $59 $60 $24 #
cone-surface $-1 -8.9713619534939895 33.874569083919468 7.010418275603838 0 -0.78801076186113728 -0.61566146476048833 4 0 0 1 I I 0 1 4 forward I I I I #
face $-1 $61 $62 $15 $-1 $63 reversed single #
loop $-1 $-1 $64 $25 #
plane-surface $-1 0 0 -16.43120738805986 0 0 1 1 0 0 forward_v I I I I #
coedge $-1 $65 $66 $67 $68 forward $26 $-1 #
face $-1 $69 $70 $16 $-1 $71 reversed single #
loop $-1 $-1 $72 $28 #
plane-surface $-1 -49.405343431887488 0 13.612473300440509 -1 0 0 0 0 1 forward_v I I I I #
coedge $-1 $73 $74 $75 $76 forward $29 $-1 #
face $-1 $77 $78 $17 $-1 $79 forward single #
loop $-1 $-1 $80 $31 #
plane-surface $-1 49.405343431887488 0 13.612473300440509 1 0 0 0 0 -1 forward_v I I I I #
coedge $-1 $81 $82 $83 $84 reversed $32 $-1 #
face $-1 $85 $86 $18 $-1 $87 reversed single #
loop $-1 $-1 $88 $34 #
plane-surface $-1 -8.9713619534939966 -9.8316650016374041 69.655237001239286 0 0.78801076186113728 0.61566146476048833 1 0 0 forward_v I I I I #
coedge $-1 $89 $90 $91 $92 reversed $35 $-1 #
face $-1 $-1 $93 $19 $-1 $94 forward single #
loop $-1 $95 $96 $37 #
cone-surface $-1 -8.9713619534939895 29.046412933088163 3.2382493766758103 0 -0.78801076186113728 -0.61566146476048833 2 0 0 1 I I -0.70710678118654746 0.70710678118654746 2 forward I I I I #
loop $-1 $-1 $97 $24 #
coedge $-1 $60 $60 $98 $99 reversed $38 $-1 #
face $-1 $100 $101 $15 $-1 $102 reversed single #
loop $-1 $-1 $103 $40 #
plane-surface $-1 0 -42.501904251328767 0 0 1 0 0 0 1 forward_v I I I I #
coedge $-1 $104 $105 $106 $107 forward $41 $-1 #
coedge $-1 $108 $43 $109 $110 forward $26 $-1 #
coedge $-1 $43 $108 $111 $112 forward $26 $-1 #
coedge $-1 $113 $114 $43 $68 reversed $115 $-1 #
edge $-1 $116 -42.501904251328767 $117 42.501904251328767 $67 $118 forward 7 unknown #
face $-1 $119 $120 $16 $-1 $121 reversed single #
loop $-1 $-1 $122 $44 #
plane-surface $-1 0 42.501904251328767 0 0 -1 0 0 0 -1 forward_v I I I I #
coedge $-1 $75 $123 $124 $125 reversed $45 $-1 #
coedge $-1 $126 $47 $127 $128 reversed $29 $-1 #
coedge $-1 $47 $126 $129 $130 reversed $29 $-1 #
coedge $-1 $131 $72 $47 $76 reversed $45 $-1 #
edge $-1 $132 -42.501904251328767 $133 42.501904251328767 $75 $134 forward 7 unknown #
face $-1 $135 $136 $17 $-1 $137 reversed single #
loop $-1 $-1 $138 $48 #
plane-surface $-1 0 0 16.43120738805986 0 0 1 1 0 0 forward_v I I I I #
coedge $-1 $139 $140 $141 $142 reversed $49 $-1 #
coedge $-1 $143 $51 $144 $145 reversed $32 $-1 #
coedge $-1 $51 $143 $146 $147 reversed $32 $-1 #
coedge $-1 $148 $149 $51 $84 forward $150 $-1 #
edge $-1 $151 -42.501904251328767 $152 42.501904251328767 $83 $153 forward 7 unknown #
face $-1 $154 $155 $18 $-1 $156 reversed single #
loop $-1 $-1 $157 $52 #
plane-surface $-1 3.7315122150081201 93.584436520800921 150.45274843718528 -1 0 0 0 0.78801076186113728 0.61566146476048833 forward_v I I I I #
coedge $-1 $158 $159 $160 $161 reversed $53 $-1 #
coedge $-1 $90 $55 $162 $163 reversed $35 $-1 #
coedge $-1 $55 $89 $158 $164 reversed $35 $-1 #
coedge $-1 $160 $165 $55 $92 forward $166 $-1 #
edge $-1 $167 4.2903140090716931 $168 15.040715089672211 $91 $169 forward 7 unknown #
loop $-1 $-1 $98 $56 #
plane-surface $-1 -8.9713619534939966 -9.8316650016374041 69.655237001239286 0 0.78801076186113728 0.61566146476048833 1 0 0 forward_v I I I I #
loop $-1 $-1 $170 $37 #
coedge $-1 $96 $96 $97 $171 reversed $57 $-1 #
coedge $-1 $97 $97 $96 $171 forward $59 $-1 #
coedge $-1 $98 $98 $60 $99 forward $93 $-1 #
edge $-1 $172 3.0615385267056351e-016 $172 6.2831853071796004 $98 $173 forward 7 unknown #
face $-1 $174 $175 $15 $-1 $176 reversed single #
loop $-1 $-1 $177 $61 #
plane-surface $-1 -65.61845759453108 0 0 1 0 0 0 0 -1 forward_v I I I I #
coedge $-1 $178 $111 $179 $180 forward $62 $-1 #
coedge $-1 $181 $64 $178 $182 forward $41 $-1 #
coedge $-1 $64 $181 $183 $184 forward $41 $-1 #
coedge $-1 $114 $113 $64 $107 reversed $115 $-1 #
edge $-1 $185 -42.501904251328767 $186 42.501904251328767 $106 $187 forward 7 unknown #
coedge $-1 $66 $65 $188 $189 forward $26 $-1 #
coedge $-1 $190 $191 $65 $110 reversed $175 $-1 #
edge $-1 $117 -65.61845759453108 $192 65.61845759453108 $109 $193 forward 7 unknown #
coedge $-1 $103 $194 $66 $112 reversed $62 $-1 #
edge $-1 $195 -65.61845759453108 $116 65.61845759453108 $111 $196 forward 7 unknown #
coedge $-1 $106 $67 $194 $197 forward $115 $-1 #
coedge $-1 $67 $106 $190 $198 reversed $115 $-1 #
loop $-1 $-1 $113 $174 #
vertex $-1 $68 $199 #
vertex $-1 $68 $200 #
straight-curve $-1 65.61845759453108 0 16.43120738805986 0 1 0 I I #
face $-1 $201 $202 $16 $-1 $203 forward single #
loop $-1 $-1 $204 $69 #
plane-surface $-1 -65.61845759453108 0 0 1 0 0 0 0 -1 forward_v I I I I #
coedge $-1 $129 $205 $131 $206 forward $70 $-1 #
coedge $-1 $72 $131 $207 $208 reversed $45 $-1 #
coedge $-1 $209 $127 $72 $125 forward $210 $-1 #
edge $-1 $133 3.9875025626009037 $211 9.6249707378396057 $124 $212 forward 7 unknown #
coedge $-1 $74 $73 $204 $213 reversed $29 $-1 #
coedge $-1 $124 $214 $73 $128 forward $210 $-1 #
edge $-1 $215 -36.862507337926438 $133 -20.649393175282846 $127 $216 forward 7 unknown #
coedge $-1 $217 $122 $74 $130 forward $70 $-1 #
edge $-1 $132 20.649393175282846 $218 36.862507337926438 $129 $219 forward 7 unknown #
coedge $-1 $123 $75 $122 $206 reversed $45 $-1 #
vertex $-1 $130 $220 #
vertex $-1 $128 $221 #
straight-curve $-1 -49.405343431887488 0 10.793739212821158 0 -1 0 I I #
face $-1 $222 $223 $17 $-1 $224 reversed single #
loop $-1 $-1 $225 $77 #
plane-surface $-1 0 -42.501904251328767 0 0 1 0 0 0 1 forward_v I I I I #
coedge $-1 $226 $227 $140 $228 forward $78 $-1 #
coedge $-1 $229 $80 $143 $230 reversed $49 $-1 #
coedge $-1 $80 $229 $138 $228 reversed $49 $-1 #
coedge $-1 $231 $146 $80 $142 forward $223 $-1 #
edge $-1 $232 3.9875025626009037 $233 9.6249707378396057 $141 $234 forward 7 unknown #
coedge $-1 $82 $81 $139 $230 forward $32 $-1 #
coedge $-1 $235 $225 $81 $145 forward $136 $-1 #
edge $-1 $236 20.649393175282846 $151 36.862507337926438 $144 $237 forward 7 unknown #
coedge $-1 $141 $238 $82 $147 forward $223 $-1 #
edge $-1 $152 -36.862507337926438 $232 -20.649393175282846 $146 $239 forward 7 unknown #
coedge $-1 $240 $83 $238 $241 reversed $150 $-1 #
coedge $-1 $83 $240 $235 $242 forward $150 $-1 #
loop $-1 $-1 $83 $222 #
vertex $-1 $145 $243 #
vertex $-1 $84 $244 #
straight-curve $-1 65.61845759453108 0 10.793739212821158 0 1 0 I I #
face $-1 $-1 $166 $18 $-1 $245 forward single #
loop $-1 $-1 $246 $85 #
plane-surface $-1 0 42.501904251328767 0 0 -1 0 0 0 -1 forward_v I I I I #
coedge $-1 $247 $248 $249 $250 reversed $86 $-1 #
coedge $-1 $251 $88 $90 $164 forward $53 $-1 #
coedge $-1 $88 $251 $247 $252 forward $53 $-1 #
coedge $-1 $249 $91 $88 $161 forward $166 $-1 #
edge $-1 $168 -17.188555145249115 $253 8.2171931917551184 $160 $254 forward 7 unknown #
coedge $-1 $255 $256 $89 $163 forward $155 $-1 #
edge $-1 $257 -72.555053116630717 $167 -58.795166830532779 $162 $258 forward 7 unknown #
edge $-1 $168 67.542262351181606 $257 85.003808502657506 $90 $259 forward 7 unknown #
coedge $-1 $91 $249 $255 $260 forward $166 $-1 #
loop $-1 $-1 $249 $154 #
vertex $-1 $163 $261 #
vertex $-1 $92 $262 #
straight-curve $-1 -21.674236121996113 46.79221826040046 16.43120738805986 0 -1 0 I I #
coedge $-1 $170 $170 $-1 $263 reversed $95 $-1 #
edge $-1 $264 0 $264 6.2831853071796004 $96 $265 forward 7 unknown #
vertex $-1 $99 $266 #
ellipse-curve $-1 -8.9713619534939895 37.126703711028505 9.5512642450108949 0 0.78801076186113728 0.61566146476048833 4 0 0 1 I I #
face $-1 $-1 $115 $15 $-1 $267 reversed single #
loop $-1 $-1 $190 $100 #
plane-surface $-1 0 42.501904251328767 0 0 -1 0 0 0 -1 forward_v I I I I #
coedge $-1 $268 $188 $191 $269 forward $101 $-1 #
coedge $-1 $194 $103 $104 $182 reversed $62 $-1 #
coedge $-1 $188 $268 $103 $180 reversed $101 $-1 #
edge $-1 $195 -16.43120738805986 $270 16.43120738805986 $179 $271 forward 7 unknown #
coedge $-1 $105 $104 $268 $272 forward $41 $-1 #
edge $-1 $186 -65.61845759453108 $270 65.61845759453108 $178 $273 forward 7 unknown #
coedge $-1 $191 $190 $105 $184 reversed $175 $-1 #
edge $-1 $274 -65.61845759453108 $185 65.61845759453108 $183 $275 forward 7 unknown #
vertex $-1 $107 $276 #
vertex $-1 $197 $277 #
straight-curve $-1 65.61845759453108 0 -16.43120738805986 0 -1 0 I I #
coedge $-1 $177 $179 $108 $189 reversed $101 $-1 #
edge $-1 $192 -42.501904251328767 $195 42.501904251328767 $188 $278 forward 7 unknown #
coedge $-1 $183 $109 $114 $198 forward $175 $-1 #
coedge $-1 $109 $183 $177 $269 reversed $175 $-1 #
vertex $-1 $110 $279 #
straight-curve $-1 0 42.501904251328767 16.43120738805986 -1 0 0 I I #
coedge $-1 $111 $178 $113 $197 reversed $62 $-1 #
vertex $-1 $189 $280 #
straight-curve $-1 0 -42.501904251328767 16.43120738805986 1 0 0 I I #
edge $-1 $116 -16.43120738805986 $186 16.43120738805986 $113 $281 forward 7 unknown #
edge $-1 $117 -16.43120738805986 $185 16.43120738805986 $114 $282 forward 7 unknown #
point $-1 65.61845759453108 -42.501904251328767 16.43120738805986 #
point $-1 65.61845759453108 42.501904251328767 16.43120738805986 #
face $-1 $-1 $210 $16 $-1 $283 reversed single #
loop $-1 $-1 $207 $119 #
plane-surface $-1 0 0 16.43120738805986 0 0 1 1 0 0 forward_v I I I I #
coedge $-1 $284 $285 $126 $213 forward $120 $-1 #
coedge $-1 $122 $217 $286 $287 reversed $70 $-1 #
edge $-1 $288 -9.6249707378396057 $132 -3.9875025626009037 $122 $289 forward 7 unknown #
coedge $-1 $286 $290 $123 $208 forward $202 $-1 #
edge $-1 $211 -42.501904251328767 $288 42.501904251328767 $207 $291 forward 7 unknown #
coedge $-1 $214 $124 $290 $292 reversed $210 $-1 #
loop $-1 $-1 $124 $201 #
vertex $-1 $125 $293 #
straight-curve $-1 -49.405343431887488 -42.501904251328767 6.8062366502202547 0 0 1 I I #
edge $-1 $218 -42.501904251328767 $215 42.501904251328767 $204 $294 forward 7 unknown #
coedge $-1 $127 $209 $284 $295 forward $210 $-1 #
vertex $-1 $213 $296 #
straight-curve $-1 -28.755950256604642 -42.501904251328767 10.793739212821158 1 0 0 I I #
coedge $-1 $205 $129 $285 $297 reversed $70 $-1 #
vertex $-1 $213 $298 #
straight-curve $-1 -28.755950256604642 42.501904251328767 10.793739212821158 -1 0 0 I I #
point $-1 -49.405343431887488 42.501904251328767 10.793739212821158 #
point $-1 -49.405343431887488 -42.501904251328767 10.793739212821158 #
face $-1 $-1 $150 $17 $-1 $299 reversed single #
loop $-1 $-1 $141 $135 #
plane-surface $-1 0 42.501904251328767 0 0 -1 0 0 0 -1 forward_v I I I I #
coedge $-1 $144 $300 $229 $301 forward $136 $-1 #
coedge $-1 $302 $138 $300 $303 forward $78 $-1 #
coedge $-1 $138 $302 $231 $304 forward $78 $-1 #
edge $-1 $233 -42.501904251328767 $305 42.501904251328767 $138 $306 forward 7 unknown #
coedge $-1 $140 $139 $225 $301 reversed $49 $-1 #
edge $-1 $236 -42.501904251328767 $232 42.501904251328767 $139 $307 forward 7 unknown #
coedge $-1 $238 $141 $227 $304 reversed $223 $-1 #
vertex $-1 $147 $308 #
vertex $-1 $142 $309 #
straight-curve $-1 49.405343431887488 42.501904251328767 6.8062366502202547 0 0 1 I I #
coedge $-1 $300 $144 $149 $242 reversed $136 $-1 #
vertex $-1 $145 $310 #
straight-curve $-1 28.755950256604642 -42.501904251328767 10.793739212821158 1 0 0 I I #
coedge $-1 $146 $231 $148 $241 forward $223 $-1 #
straight-curve $-1 28.755950256604642 42.501904251328767 10.793739212821158 -1 0 0 I I #
coedge $-1 $149 $148 $302 $311 reversed $150 $-1 #
edge $-1 $312 -16.43120738805986 $152 -10.793739212821158 $148 $313 forward 7 unknown #
edge $-1 $314 -16.43120738805986 $151 -10.793739212821158 $149 $315 forward 7 unknown #
point $-1 65.61845759453108 -42.501904251328767 10.793739212821158 #
point $-1 65.61845759453108 42.501904251328767 10.793739212821158 #
plane-surface $-1 0 0 16.43120738805986 0 0 1 1 0 0 forward_v I I I I #
coedge $-1 $256 $255 $248 $316 forward $155 $-1 #
coedge $-1 $248 $157 $159 $252 reversed $86 $-1 #
coedge $-1 $157 $247 $246 $316 reversed $86 $-1 #
coedge $-1 $165 $160 $157 $250 forward $166 $-1 #
edge $-1 $253 -15.040715089672211 $317 -4.2903140090716931 $249 $318 forward 7 unknown #
coedge $-1 $159 $158 $256 $319 reversed $53 $-1 #
edge $-1 $320 -85.003808502657506 $253 -67.542262351181606 $247 $321 forward 7 unknown #
vertex $-1 $161 $322 #
straight-curve $-1 -4.4856809767469983 31.751503170728249 16.43120738805986 1 0 0 I I #
coedge $-1 $246 $162 $165 $260 reversed $155 $-1 #
coedge $-1 $162 $246 $251 $319 forward $155 $-1 #
vertex $-1 $163 $323 #
straight-curve $-1 -21.674236121996113 42.501904251328767 75.226374218592639 0 0 1 I I #
straight-curve $-1 -21.674236121996113 -9.8316650016374041 69.655237001239286 0 0.61566146476048833 -0.78801076186113728 I I #
edge $-1 $317 -3.7315122150081201 $167 21.674236121996113 $255 $324 forward 7 unknown #
point $-1 -21.674236121996113 42.501904251328767 16.43120738805986 #
point $-1 -21.674236121996113 31.751503170728249 16.43120738805986 #
edge $-1 $325 1 $325 0 $170 $-1 forward 7 unknown #
vertex $-1 $171 $326 #
ellipse-curve $-1 -8.9713619534939895 30.622434456810439 4.4695723061967865 0 0.78801076186113728 0.61566146476048833 4 0 0 1 I I #
point $-1 -4.9713619534939895 37.126703711028497 9.5512642450108878 #
plane-surface $-1 65.61845759453108 0 0 -1 0 0 0 0 1 forward_v I I I I #
coedge $-1 $179 $177 $181 $272 reversed $101 $-1 #
edge $-1 $192 -16.43120738805986 $274 16.43120738805986 $191 $327 forward 7 unknown #
vertex $-1 $272 $328 #
straight-curve $-1 -65.61845759453108 -42.501904251328767 0 0 0 -1 I I #
edge $-1 $270 -42.501904251328767 $274 42.501904251328767 $268 $329 forward 7 unknown #
straight-curve $-1 0 -42.501904251328767 -16.43120738805986 -1 0 0 I I #
vertex $-1 $184 $330 #
straight-curve $-1 0 42.501904251328767 -16.43120738805986 1 0 0 I I #
point $-1 65.61845759453108 42.501904251328767 -16.43120738805986 #
point $-1 65.61845759453108 -42.501904251328767 -16.43120738805986 #
straight-curve $-1 -65.61845759453108 0 16.43120738805986 0 -1 0 I I #
point $-1 -65.61845759453108 42.501904251328767 16.43120738805986 #
point $-1 -65.61845759453108 -42.501904251328767 16.43120738805986 #
straight-curve $-1 65.61845759453108 -42.501904251328767 0 0 0 -1 I I #
straight-curve $-1 65.61845759453108 42.501904251328767 0 0 0 -1 I I #
plane-surface $-1 0 -42.501904251328767 0 0 1 0 0 0 1 forward_v I I I I #
coedge $-1 $331 $204 $214 $295 reversed $120 $-1 #
coedge $-1 $204 $331 $217 $297 forward $120 $-1 #
coedge $-1 $332 $207 $205 $287 forward $202 $-1 #
edge $-1 $288 49.405343431887488 $333 65.61845759453108 $205 $334 forward 7 unknown #
vertex $-1 $287 $335 #
straight-curve $-1 -49.405343431887488 42.501904251328767 6.8062366502202547 0 0 -1 I I #
coedge $-1 $207 $332 $209 $292 forward $202 $-1 #
straight-curve $-1 -49.405343431887488 0 16.43120738805986 0 1 0 I I #
edge $-1 $336 -65.61845759453108 $211 -49.405343431887488 $209 $337 forward 7 unknown #
point $-1 -49.405343431887488 -42.501904251328767 16.43120738805986 #
straight-curve $-1 -65.61845759453108 0 10.793739212821158 0 -1 0 I I #
edge $-1 $336 -16.43120738805986 $215 -10.793739212821158 $284 $338 forward 7 unknown #
point $-1 -65.61845759453108 -42.501904251328767 10.793739212821158 #
edge $-1 $333 -16.43120738805986 $218 -10.793739212821158 $217 $339 forward 7 unknown #
point $-1 -65.61845759453108 42.501904251328767 10.793739212821158 #
plane-surface $-1 65.61845759453108 0 0 -1 0 0 0 0 1 forward_v I I I I #
coedge $-1 $225 $235 $226 $303 reversed $136 $-1 #
edge $-1 $305 -9.6249707378396057 $236 -3.9875025626009037 $225 $340 forward 7 unknown #
coedge $-1 $227 $226 $240 $311 forward $78 $-1 #
edge $-1 $305 49.405343431887488 $314 65.61845759453108 $300 $341 forward 7 unknown #
edge $-1 $312 -65.61845759453108 $233 -49.405343431887488 $231 $342 forward 7 unknown #
vertex $-1 $303 $343 #
straight-curve $-1 49.405343431887488 0 16.43120738805986 0 -1 0 I I #
straight-curve $-1 49.405343431887488 0 10.793739212821158 0 1 0 I I #
point $-1 49.405343431887488 42.501904251328767 10.793739212821158 #
point $-1 49.405343431887488 42.501904251328767 16.43120738805986 #
point $-1 49.405343431887488 -42.501904251328767 10.793739212821158 #
edge $-1 $314 -42.501904251328767 $312 42.501904251328767 $240 $344 forward 7 unknown #
vertex $-1 $311 $345 #
straight-curve $-1 65.61845759453108 42.501904251328767 0 0 0 -1 I I #
vertex $-1 $311 $346 #
straight-curve $-1 65.61845759453108 -42.501904251328767 0 0 0 -1 I I #
edge $-1 $317 58.795166830532779 $320 72.555053116630717 $246 $347 forward 7 unknown #
vertex $-1 $260 $348 #
straight-curve $-1 3.7315122150081201 46.79221826040046 16.43120738805986 0 1 0 I I #
edge $-1 $320 -8.2171931917551184 $257 17.188555145249115 $256 $349 forward 7 unknown #
vertex $-1 $319 $350 #
straight-curve $-1 3.7315122150081201 -9.8316650016374041 69.655237001239286 0 -0.61566146476048833 0.78801076186113728 I I #
point $-1 3.7315122150081201 31.751503170728249 16.43120738805986 #
point $-1 -21.674236121996113 42.501904251328767 2.6713211019619223 #
straight-curve $-1 0 42.501904251328767 16.43120738805986 -1 0 0 I I #
vertex $-1 $263 $351 #
point $-1 -4.9713619534939895 30.622434456810439 4.4695723061967865 #
straight-curve $-1 -65.61845759453108 42.501904251328767 0 0 0 -1 I I #
point $-1 -65.61845759453108 -42.501904251328767 -16.43120738805986 #
straight-curve $-1 -65.61845759453108 0 -16.43120738805986 0 1 0 I I #
point $-1 -65.61845759453108 42.501904251328767 -16.43120738805986 #
coedge $-1 $285 $284 $332 $352 reversed $120 $-1 #
coedge $-1 $290 $286 $331 $352 forward $202 $-1 #
vertex $-1 $287 $353 #
straight-curve $-1 0 42.501904251328767 16.43120738805986 -1 0 0 I I #
point $-1 -49.405343431887488 42.501904251328767 16.43120738805986 #
vertex $-1 $352 $354 #
straight-curve $-1 0 -42.501904251328767 16.43120738805986 1 0 0 I I #
straight-curve $-1 -65.61845759453108 -42.501904251328767 0 0 0 -1 I I #
straight-curve $-1 -65.61845759453108 42.501904251328767 0 0 0 -1 I I #
straight-curve $-1 49.405343431887488 -42.501904251328767 6.8062366502202547 0 0 -1 I I #
straight-curve $-1 0 -42.501904251328767 16.43120738805986 1 0 0 I I #
straight-curve $-1 0 42.501904251328767 16.43120738805986 -1 0 0 I I #
point $-1 49.405343431887488 -42.501904251328767 16.43120738805986 #
straight-curve $-1 65.61845759453108 0 16.43120738805986 0 1 0 I I #
point $-1 65.61845759453108 42.501904251328767 16.43120738805986 #
point $-1 65.61845759453108 -42.501904251328767 16.43120738805986 #
straight-curve $-1 3.7315122150081201 42.501904251328767 75.226374218592639 0 0 -1 I I #
point $-1 3.7315122150081201 42.501904251328767 16.43120738805986 #
straight-curve $-1 -4.4856809767469983 42.501904251328767 2.6713211019619294 -1 0 0 I I #
point $-1 3.7315122150081201 42.501904251328767 2.6713211019619223 #
point $-1 -8.9713619534939895 27.470391409365888 2.0069264471548336 #
edge $-1 $333 -42.501904251328767 $336 42.501904251328767 $331 $355 forward 7 unknown #
point $-1 -65.61845759453108 42.501904251328767 16.43120738805986 #
point $-1 -65.61845759453108 -42.501904251328767 16.43120738805986 #
straight-curve $-1 -65.61845759453108 0 16.43120738805986 0 -1 0 I I #
End-of-ACIS-data 