500 0 5 0           
7 Unknown 11 ACIS 5.0 NT 24 Fri Mar 26 15:37:21 1999 
-1 9.9999999999999995e-007 1e-010 
body $-1 $5 $-1 $6 #
body $-1 $7 $-1 $8 #
body $-1 $9 $-1 $10 #
body $-1 $11 $-1 $12 #
body $-1 $13 $-1 $14 #
lump $-1 $-1 $15 $0 #
transform $-1 1 0 0 0 1 0 0 0 1 55.182348094119078 28.270533134591737 6.2706453084570688 1 rotate no_reflect no_shear #
lump $-1 $-1 $16 $1 #
transform $-1 1 0 0 0 1 0 0 0 1 55.182348094119078 28.270533134591737 6.2706453084570688 1 rotate no_reflect no_shear #
lump $-1 $-1 $17 $2 #
transform $-1 1 0 0 0 1 0 0 0 1 55.182348094119078 28.270533134591737 6.2706453084570688 1 rotate no_reflect no_shear #
lump $-1 $-1 $18 $3 #
transform $-1 1 0 0 0 1 0 0 0 1 55.182348094119078 28.270533134591737 6.2706453084570688 1 rotate no_reflect no_shear #
lump $-1 $-1 $19 $4 #
transform $-1 1 0 0 0 1 0 0 0 1 55.182348094119078 28.270533134591737 6.2706453084570688 1 rotate no_reflect no_shear #
shell $-1 $-1 $-1 $20 $-1 $5 #
shell $-1 $-1 $-1 $21 $-1 $7 #
shell $-1 $-1 $-1 $22 $-1 $9 #
shell $-1 $-1 $-1 $23 $-1 $11 #
shell $-1 $-1 $-1 $24 $-1 $13 #
face $-1 $25 $26 $15 $-1 $27 forward single #
face $-1 $28 $29 $16 $-1 $30 forward single #
face $-1 $31 $32 $17 $-1 $33 forward single #
face $-1 $34 $35 $18 $-1 $36 reversed single #
face $-1 $37 $38 $19 $-1 $39 reversed single #
face $-1 $40 $41 $15 $-1 $42 reversed single #
loop $-1 $-1 $43 $20 #
plane-surface $-1 0 0 6.2706453084570688 0 0 1 1 0 0 forward_v I I I I #
face $-1 $44 $45 $16 $-1 $46 forward single #
loop $-1 $-1 $47 $21 #
plane-surface $-1 -48.689852430525129 -25.303004352443502 0 1 0 0 0 0 -1 forward_v I I I I #
face $-1 $48 $49 $17 $-1 $50 forward single #
loop $-1 $-1 $51 $22 #
plane-surface $-1 -41.435178457219337 55.898624014446007 121.48435509096879 -1 0 0 0 0.64278761758704617 0.76604443648966558 forward_v I I I I #
face $-1 $52 $53 $18 $-1 $54 reversed single #
loop $-1 $55 $56 $23 #
cone-surface $-1 -51.254585340719153 24.542590504115033 3.0202753484654661 0 -0.64278761758704617 -0.76604443648966558 1 0 0 1 I I 0 1 1 forward I I I I #
face $-1 $57 $58 $19 $-1 $59 reversed single #
loop $-1 $60 $61 $24 #
cone-surface $-1 -45.362941210619255 24.542590504115033 3.0202753484654661 0 -0.64278761758704617 -0.76604443648966558 1 0 0 1 I I 0 1 1 forward I I I I #
face $-1 $62 $63 $15 $-1 $64 reversed single #
loop $-1 $-1 $65 $25 #
plane-surface $-1 0 0 -6.2706453084570688 0 0 1 1 0 0 forward_v I I I I #
coedge $-1 $66 $67 $68 $69 forward $26 $-1 #
face $-1 $70 $71 $16 $-1 $72 forward single #
loop $-1 $-1 $73 $28 #
plane-surface $-1 -47.181678700509586 -22.335475570295266 0 0 -1 0 0 0 -1 forward_v I I I I #
coedge $-1 $74 $75 $76 $77 reversed $29 $-1 #
face $-1 $78 $79 $17 $-1 $80 reversed single #
loop $-1 $-1 $81 $31 #
plane-surface $-1 -48.308763275669207 -15.042436114109755 36.940093591096755 0 0.64278761758704617 0.76604443648966558 1 0 0 forward_v I I I I #
coedge $-1 $82 $83 $84 $85 reversed $32 $-1 #
face $-1 $86 $87 $18 $-1 $88 forward single #
loop $-1 $89 $90 $34 #
cone-surface $-1 -51.254585340719153 23.874526485110067 2.2241076704090732 0 -0.64278761758704617 -0.76604443648966558 0.5 0 0 1 I I -0.70710678118654746 0.70710678118654746 0.5 forward I I I I #
loop $-1 $-1 $91 $23 #
coedge $-1 $56 $56 $92 $93 reversed $35 $-1 #
face $-1 $94 $95 $19 $-1 $96 reversed single #
loop $-1 $97 $98 $37 #
cone-surface $-1 -45.362941210619255 23.874526485110067 2.2241076704090732 0 -0.64278761758704617 -0.76604443648966558 0.5 0 0 1 I I -0.70710678118654746 0.70710678118654746 0.5 forward I I I I #
loop $-1 $-1 $99 $24 #
coedge $-1 $61 $61 $100 $101 reversed $38 $-1 #
face $-1 $102 $103 $15 $-1 $104 reversed single #
loop $-1 $-1 $105 $40 #
plane-surface $-1 0 -28.270533134591737 0 0 1 0 0 0 1 forward_v I I I I #
coedge $-1 $106 $107 $108 $109 forward $41 $-1 #
coedge $-1 $110 $43 $111 $112 forward $26 $-1 #
coedge $-1 $43 $110 $113 $114 forward $26 $-1 #
coedge $-1 $115 $116 $43 $69 reversed $117 $-1 #
edge $-1 $118 -28.270533134591737 $119 28.270533134591737 $68 $120 forward 7 unknown #
face $-1 $121 $122 $16 $-1 $123 forward single #
loop $-1 $-1 $124 $44 #
plane-surface $-1 -45.673504970494044 -25.303004352443502 0 -1 0 0 0 0 1 forward_v I I I I #
coedge $-1 $125 $126 $127 $128 reversed $45 $-1 #
coedge $-1 $129 $47 $130 $131 reversed $29 $-1 #
coedge $-1 $47 $129 $132 $133 reversed $29 $-1 #
coedge $-1 $126 $125 $47 $77 forward $45 $-1 #
edge $-1 $134 -6.2706453084570688 $135 6.2706453084570688 $76 $136 forward 7 unknown #
face $-1 $137 $138 $17 $-1 $139 forward single #
loop $-1 $-1 $140 $48 #
plane-surface $-1 0 28.270533134591737 0 0 -1 0 0 0 -1 forward_v I I I I #
coedge $-1 $141 $142 $140 $143 reversed $49 $-1 #
coedge $-1 $83 $51 $142 $144 forward $32 $-1 #
coedge $-1 $51 $82 $145 $146 reversed $32 $-1 #
coedge $-1 $147 $140 $51 $85 forward $79 $-1 #
edge $-1 $148 -60.145981237387382 $149 -54.471532237027326 $84 $150 forward 7 unknown #
face $-1 $151 $152 $18 $-1 $153 forward single #
loop $-1 $-1 $154 $52 #
plane-surface $-1 -41.435178457219337 55.898624014446007 121.48435509096879 -1 0 0 0 0.64278761758704617 0.76604443648966558 forward_v I I I I #
loop $-1 $-1 $155 $34 #
coedge $-1 $90 $90 $91 $156 forward $53 $-1 #
coedge $-1 $91 $91 $90 $156 reversed $55 $-1 #
coedge $-1 $92 $92 $56 $93 forward $152 $-1 #
edge $-1 $157 8.9521961049618153e-016 $157 6.2831853071796013 $92 $158 forward 7 unknown #
face $-1 $159 $160 $19 $-1 $161 reversed single #
loop $-1 $162 $163 $57 #
cone-surface $-1 -51.254585340719153 24.542590504115033 3.0202753484654661 0 -0.64278761758704617 -0.76604443648966558 1 0 0 1 I I 0 1 1 forward I I I I #
loop $-1 $-1 $164 $37 #
coedge $-1 $98 $98 $99 $165 forward $58 $-1 #
coedge $-1 $99 $99 $98 $165 reversed $60 $-1 #
coedge $-1 $100 $100 $61 $101 forward $166 $-1 #
edge $-1 $167 8.9521961049618153e-016 $167 6.2831853071796013 $100 $168 forward 7 unknown #
face $-1 $169 $170 $15 $-1 $171 reversed single #
loop $-1 $-1 $172 $62 #
plane-surface $-1 -55.182348094119078 0 0 1 0 0 0 0 -1 forward_v I I I I #
coedge $-1 $173 $113 $174 $175 forward $63 $-1 #
coedge $-1 $176 $65 $173 $177 forward $41 $-1 #
coedge $-1 $65 $176 $178 $179 forward $41 $-1 #
coedge $-1 $116 $115 $65 $109 reversed $117 $-1 #
edge $-1 $180 -28.270533134591737 $181 28.270533134591737 $108 $182 forward 7 unknown #
coedge $-1 $67 $66 $183 $184 forward $26 $-1 #
coedge $-1 $185 $186 $66 $112 reversed $170 $-1 #
edge $-1 $119 -55.182348094119078 $187 55.182348094119078 $111 $188 forward 7 unknown #
coedge $-1 $105 $189 $67 $114 reversed $63 $-1 #
edge $-1 $190 -55.182348094119078 $118 55.182348094119078 $113 $191 forward 7 unknown #
coedge $-1 $108 $68 $189 $192 forward $117 $-1 #
coedge $-1 $68 $108 $185 $193 reversed $117 $-1 #
loop $-1 $-1 $115 $169 #
vertex $-1 $69 $194 #
vertex $-1 $69 $195 #
straight-curve $-1 55.182348094119078 0 6.2706453084570688 0 1 0 I I #
face $-1 $196 $197 $16 $-1 $198 reversed single #
loop $-1 $-1 $130 $70 #
plane-surface $-1 0 0 6.2706453084570688 0 0 1 1 0 0 forward_v I I I I #
coedge $-1 $199 $200 $201 $202 reversed $71 $-1 #
coedge $-1 $76 $73 $203 $204 reversed $45 $-1 #
coedge $-1 $73 $76 $205 $206 reversed $45 $-1 #
coedge $-1 $200 $199 $73 $128 forward $71 $-1 #
edge $-1 $207 -6.2706453084570688 $208 6.2706453084570688 $127 $209 forward 7 unknown #
coedge $-1 $75 $74 $210 $211 reversed $29 $-1 #
coedge $-1 $203 $212 $74 $131 forward $122 $-1 #
edge $-1 $213 -15.619030958369986 $134 -9.6839733940735151 $130 $214 forward 7 unknown #
coedge $-1 $215 $205 $75 $133 forward $216 $-1 #
edge $-1 $135 9.6839733940735151 $217 15.619030958369986 $132 $218 forward 7 unknown #
vertex $-1 $131 $219 #
vertex $-1 $133 $220 #
straight-curve $-1 -48.689852430525129 -22.335475570295266 0 0 0 -1 I I #
face $-1 $221 $222 $17 $-1 $223 forward single #
loop $-1 $-1 $145 $78 #
plane-surface $-1 0 0 6.2706453084570688 0 0 1 1 0 0 forward_v I I I I #
coedge $-1 $84 $224 $81 $143 forward $79 $-1 #
coedge $-1 $225 $81 $226 $227 reversed $49 $-1 #
coedge $-1 $81 $225 $82 $144 reversed $49 $-1 #
edge $-1 $228 -31.027966456284474 $148 -17.280796819384733 $140 $229 forward 7 unknown #
edge $-1 $148 -56.541066269183474 $230 -47.713190863522563 $82 $231 forward 7 unknown #
coedge $-1 $232 $233 $83 $146 forward $138 $-1 #
edge $-1 $149 -0.32122112736873376 $230 6.4413237131617542 $145 $234 forward 7 unknown #
coedge $-1 $235 $84 $233 $236 reversed $79 $-1 #
vertex $-1 $143 $237 #
vertex $-1 $146 $238 #
straight-curve $-1 -41.435178457219337 28.270533134591737 60.742177545484395 0 0 1 I I #
face $-1 $239 $240 $18 $-1 $241 reversed single #
loop $-1 $242 $92 $86 #
plane-surface $-1 -48.308763275669207 -15.042436114109755 36.940093591096755 0 0.64278761758704617 0.76604443648966558 1 0 0 forward_v I I I I #
coedge $-1 $243 $244 $245 $246 reversed $87 $-1 #
coedge $-1 $155 $155 $-1 $247 forward $89 $-1 #
edge $-1 $248 0 $248 6.2831853071796004 $90 $249 forward 7 unknown #
vertex $-1 $93 $250 #
ellipse-curve $-1 -51.254585340719153 24.889260714326486 3.4334208082770412 0 -0.64278761758704617 -0.76604443648966558 1 0 0 1 I I #
face $-1 $251 $252 $19 $-1 $253 forward single #
loop $-1 $254 $255 $94 #
cone-surface $-1 -51.254585340719153 23.874526485110067 2.2241076704090732 0 -0.64278761758704617 -0.76604443648966558 0.5 0 0 1 I I -0.70710678118654746 0.70710678118654746 0.5 forward I I I I #
loop $-1 $-1 $256 $57 #
coedge $-1 $163 $163 $257 $258 reversed $95 $-1 #
coedge $-1 $164 $164 $-1 $259 forward $97 $-1 #
edge $-1 $260 0 $260 6.2831853071796004 $98 $261 forward 7 unknown #
loop $-1 $262 $100 $251 #
vertex $-1 $101 $263 #
ellipse-curve $-1 -45.362941210619255 24.889260714326486 3.4334208082770412 0 -0.64278761758704617 -0.76604443648966558 1 0 0 1 I I #
face $-1 $-1 $117 $15 $-1 $264 reversed single #
loop $-1 $-1 $185 $102 #
plane-surface $-1 0 28.270533134591737 0 0 -1 0 0 0 -1 forward_v I I I I #
coedge $-1 $265 $183 $186 $266 forward $103 $-1 #
coedge $-1 $189 $105 $106 $177 reversed $63 $-1 #
coedge $-1 $183 $265 $105 $175 reversed $103 $-1 #
edge $-1 $190 -6.2706453084570688 $267 6.2706453084570688 $174 $268 forward 7 unknown #
coedge $-1 $107 $106 $265 $269 forward $41 $-1 #
edge $-1 $181 -55.182348094119078 $267 55.182348094119078 $173 $270 forward 7 unknown #
coedge $-1 $186 $185 $107 $179 reversed $170 $-1 #
edge $-1 $271 -55.182348094119078 $180 55.182348094119078 $178 $272 forward 7 unknown #
vertex $-1 $109 $273 #
vertex $-1 $192 $274 #
straight-curve $-1 55.182348094119078 0 -6.2706453084570688 0 -1 0 I I #
coedge $-1 $172 $174 $110 $184 reversed $103 $-1 #
edge $-1 $187 -28.270533134591737 $190 28.270533134591737 $183 $275 forward 7 unknown #
coedge $-1 $178 $111 $116 $193 forward $170 $-1 #
coedge $-1 $111 $178 $172 $266 reversed $170 $-1 #
vertex $-1 $112 $276 #
straight-curve $-1 0 28.270533134591737 6.2706453084570688 -1 0 0 I I #
coedge $-1 $113 $173 $115 $192 reversed $63 $-1 #
vertex $-1 $184 $277 #
straight-curve $-1 0 -28.270533134591737 6.2706453084570688 1 0 0 I I #
edge $-1 $118 -6.2706453084570688 $181 6.2706453084570688 $115 $278 forward 7 unknown #
edge $-1 $119 -6.2706453084570688 $180 6.2706453084570688 $116 $279 forward 7 unknown #
point $-1 55.182348094119078 -28.270533134591737 6.2706453084570688 #
point $-1 55.182348094119078 28.270533134591737 6.2706453084570688 #
face $-1 $280 $216 $16 $-1 $281 reversed single #
loop $-1 $-1 $201 $121 #
plane-surface $-1 0 -28.270533134591737 0 0 1 0 0 0 1 forward_v I I I I #
coedge $-1 $127 $124 $282 $283 reversed $71 $-1 #
coedge $-1 $124 $127 $284 $285 reversed $71 $-1 #
coedge $-1 $286 $287 $124 $202 forward $197 $-1 #
edge $-1 $288 -6.2706453084570688 $289 6.2706453084570688 $201 $290 forward 7 unknown #
coedge $-1 $282 $130 $125 $204 forward $122 $-1 #
edge $-1 $134 -25.099013080270336 $207 -22.082665620239251 $203 $291 forward 7 unknown #
coedge $-1 $132 $284 $126 $206 forward $216 $-1 #
edge $-1 $208 22.082665620239251 $135 25.099013080270336 $205 $292 forward 7 unknown #
vertex $-1 $204 $293 #
vertex $-1 $206 $294 #
straight-curve $-1 -45.673504970494044 -22.335475570295266 0 0 0 -1 I I #
coedge $-1 $295 $296 $129 $211 forward $297 $-1 #
edge $-1 $217 -6.2706453084570688 $213 6.2706453084570688 $210 $298 forward 7 unknown #
coedge $-1 $130 $299 $295 $300 forward $122 $-1 #
vertex $-1 $211 $301 #
straight-curve $-1 -48.689852430525129 -12.651502176221751 6.2706453084570688 0 1 0 I I #
coedge $-1 $302 $132 $296 $303 forward $216 $-1 #
loop $-1 $-1 $132 $196 #
vertex $-1 $303 $304 #
straight-curve $-1 -48.689852430525129 -12.651502176221751 -6.2706453084570688 0 -1 0 I I #
point $-1 -48.689852430525129 -22.335475570295266 6.2706453084570688 #
point $-1 -48.689852430525129 -22.335475570295266 -6.2706453084570688 #
face $-1 $305 $306 $17 $-1 $307 forward single #
loop $-1 $-1 $308 $137 #
plane-surface $-1 -48.689852430525129 -25.303004352443502 0 1 0 0 0 0 -1 forward_v I I I I #
coedge $-1 $140 $309 $310 $311 reversed $79 $-1 #
coedge $-1 $142 $141 $232 $312 reversed $49 $-1 #
coedge $-1 $310 $313 $141 $227 forward $314 $-1 #
edge $-1 $315 30.079286238858266 $228 38.907161644519178 $226 $316 forward 7 unknown #
vertex $-1 $311 $317 #
straight-curve $-1 -24.154381637834604 28.270533134591734 0.59619630809702073 1 0 0 I I #
vertex $-1 $312 $318 #
straight-curve $-1 -41.435178457219337 -15.042436114109755 36.940093591096755 0 -0.76604443648966558 0.64278761758704617 I I #
coedge $-1 $319 $145 $225 $312 forward $138 $-1 #
coedge $-1 $145 $320 $147 $236 forward $138 $-1 #
straight-curve $-1 -41.435178457219337 27.949312007223003 6.2706453084570697 0 -1 0 I I #
coedge $-1 $309 $147 $321 $322 forward $79 $-1 #
edge $-1 $323 -55.182348094119078 $149 41.435178457219337 $147 $324 forward 7 unknown #
point $-1 -41.435178457219337 28.270533134591737 0.59619630809701363 #
point $-1 -41.435178457219337 28.270533134591737 6.2706453084570688 #
face $-1 $325 $326 $18 $-1 $327 forward single #
loop $-1 $-1 $328 $151 #
plane-surface $-1 0 28.270533134591737 0 0 -1 0 0 0 -1 forward_v I I I I #
loop $-1 $-1 $329 $86 #
coedge $-1 $244 $154 $330 $331 forward $87 $-1 #
coedge $-1 $154 $243 $332 $333 reversed $87 $-1 #
coedge $-1 $334 $328 $154 $246 forward $240 $-1 #
edge $-1 $335 -60.145981237387382 $336 -54.471532237027326 $245 $337 forward 7 unknown #
edge $-1 $338 1 $338 0 $155 $-1 forward 7 unknown #
vertex $-1 $156 $339 #
ellipse-curve $-1 -51.254585340719153 24.19592029390359 2.607129888653906 0 0.64278761758704617 0.76604443648966558 1 0 0 1 I I #
point $-1 -50.254585340719153 24.889260714326472 3.4334208082770257 #
face $-1 $340 $166 $19 $-1 $341 forward single #
loop $-1 $-1 $342 $159 #
plane-surface $-1 -41.435178457219337 55.898624014446007 121.48435509096879 -1 0 0 0 0.64278761758704617 0.76604443648966558 forward_v I I I I #
loop $-1 $-1 $343 $94 #
coedge $-1 $255 $255 $256 $344 forward $160 $-1 #
coedge $-1 $256 $256 $255 $344 reversed $162 $-1 #
coedge $-1 $257 $257 $163 $258 forward $262 $-1 #
edge $-1 $345 8.9521961049618153e-016 $345 6.2831853071796013 $257 $346 forward 7 unknown #
edge $-1 $347 1 $347 0 $164 $-1 forward 7 unknown #
vertex $-1 $165 $348 #
ellipse-curve $-1 -45.362941210619255 24.19592029390359 2.607129888653906 0 0.64278761758704617 0.76604443648966558 1 0 0 1 I I #
loop $-1 $349 $257 $251 #
point $-1 -44.362941210619255 24.889260714326472 3.4334208082770257 #
plane-surface $-1 55.182348094119078 0 0 -1 0 0 0 0 1 forward_v I I I I #
coedge $-1 $174 $172 $176 $269 reversed $103 $-1 #
edge $-1 $187 -6.2706453084570688 $271 6.2706453084570688 $186 $350 forward 7 unknown #
vertex $-1 $269 $351 #
straight-curve $-1 -55.182348094119078 -28.270533134591737 0 0 0 -1 I I #
edge $-1 $267 -28.270533134591737 $271 28.270533134591737 $265 $352 forward 7 unknown #
straight-curve $-1 0 -28.270533134591737 -6.2706453084570688 -1 0 0 I I #
vertex $-1 $179 $353 #
straight-curve $-1 0 28.270533134591737 -6.2706453084570688 1 0 0 I I #
point $-1 55.182348094119078 28.270533134591737 -6.2706453084570688 #
point $-1 55.182348094119078 -28.270533134591737 -6.2706453084570688 #
straight-curve $-1 -55.182348094119078 0 6.2706453084570688 0 -1 0 I I #
point $-1 -55.182348094119078 28.270533134591737 6.2706453084570688 #
point $-1 -55.182348094119078 -28.270533134591737 6.2706453084570688 #
straight-curve $-1 55.182348094119078 -28.270533134591737 0 0 0 -1 I I #
straight-curve $-1 55.182348094119078 28.270533134591737 0 0 0 -1 I I #
face $-1 $354 $297 $16 $-1 $198 reversed single #
plane-surface $-1 0 0 -6.2706453084570688 0 0 1 1 0 0 forward_v I I I I #
coedge $-1 $355 $203 $199 $283 forward $122 $-1 #
edge $-1 $207 9.6839733940735151 $288 15.619030958369986 $282 $356 forward 7 unknown #
coedge $-1 $205 $357 $200 $285 forward $216 $-1 #
edge $-1 $289 -15.619030958369986 $208 -9.6839733940735151 $284 $358 forward 7 unknown #
coedge $-1 $359 $201 $357 $360 reversed $197 $-1 #
coedge $-1 $201 $359 $355 $361 reversed $197 $-1 #
vertex $-1 $361 $362 #
vertex $-1 $202 $363 #
straight-curve $-1 -45.673504970494044 -28.270533134591737 0 0 0 -1 I I #
straight-curve $-1 -23.590839350254793 -22.335475570295266 6.2706453084570688 1 0 0 I I #
straight-curve $-1 -23.590839350254793 -22.335475570295266 -6.2706453084570688 -1 0 0 I I #
point $-1 -45.673504970494044 -22.335475570295266 6.2706453084570688 #
point $-1 -45.673504970494044 -22.335475570295266 -6.2706453084570688 #
coedge $-1 $364 $210 $212 $300 reversed $297 $-1 #
coedge $-1 $210 $364 $215 $303 reversed $297 $-1 #
loop $-1 $-1 $210 $280 #
straight-curve $-1 -48.689852430525129 -28.270533134591737 0 0 0 1 I I #
coedge $-1 $212 $365 $366 $367 forward $122 $-1 #
edge $-1 $368 -55.182348094119078 $213 -48.689852430525129 $295 $369 forward 7 unknown #
point $-1 -48.689852430525129 -28.270533134591737 6.2706453084570688 #
coedge $-1 $370 $215 $371 $372 forward $216 $-1 #
edge $-1 $217 48.689852430525129 $373 55.182348094119078 $296 $374 forward 7 unknown #
point $-1 -48.689852430525129 -28.270533134591737 -6.2706453084570688 #
face $-1 $375 $376 $17 $-1 $377 forward single #
loop $-1 $-1 $378 $221 #
plane-surface $-1 -47.181678700509586 -22.335475570295266 0 0 -1 0 0 0 -1 forward_v I I I I #
coedge $-1 $379 $380 $381 $382 reversed $222 $-1 #
coedge $-1 $224 $235 $383 $384 reversed $79 $-1 #
coedge $-1 $385 $226 $224 $311 forward $314 $-1 #
edge $-1 $228 -0.59619630809701329 $386 6.2706453084570688 $224 $387 forward 7 unknown #
edge $-1 $230 17.280796819384733 $315 31.027966456284474 $232 $388 forward 7 unknown #
coedge $-1 $226 $389 $319 $390 reversed $314 $-1 #
loop $-1 $-1 $226 $391 #
vertex $-1 $390 $392 #
straight-curve $-1 -55.182348094119078 -1.5340815827962828 25.605238048651596 0 0.76604443648966558 -0.64278761758704617 I I #
point $-1 -55.182348094119078 28.270533134591737 0.59619630809701329 #
point $-1 -41.435178457219337 21.507988294061249 6.2706453084570697 #
coedge $-1 $393 $232 $313 $390 forward $138 $-1 #
coedge $-1 $233 $394 $395 $396 forward $138 $-1 #
coedge $-1 $395 $397 $235 $322 reversed $398 $-1 #
edge $-1 $323 -6.2706453084570688 $399 6.2706453084570688 $321 $400 forward 7 unknown #
vertex $-1 $396 $401 #
straight-curve $-1 0 28.270533134591737 6.2706453084570688 -1 0 0 I I #
face $-1 $402 $403 $18 $-1 $404 forward single #
loop $-1 $-1 $332 $239 #
plane-surface $-1 0 0 6.2706453084570688 0 0 1 1 0 0 forward_v I I I I #
coedge $-1 $245 $405 $329 $406 forward $240 $-1 #
coedge $-1 $407 $330 $328 $406 reversed $242 $-1 #
coedge $-1 $329 $408 $243 $331 reversed $242 $-1 #
edge $-1 $335 -56.541066269183474 $409 -47.713190863522563 $243 $410 forward 7 unknown #
coedge $-1 $411 $412 $244 $333 forward $326 $-1 #
edge $-1 $336 -0.32122112736873376 $409 6.4413237131617542 $332 $413 forward 7 unknown #
coedge $-1 $414 $245 $412 $415 reversed $240 $-1 #
vertex $-1 $406 $416 #
vertex $-1 $333 $417 #
straight-curve $-1 -41.435178457219337 28.270533134591737 60.742177545484395 0 0 1 I I #
vertex $-1 $247 $418 #
point $-1 -50.254585340719153 24.19592029390359 2.607129888653906 #
face $-1 $419 $420 $19 $-1 $421 reversed single #
plane-surface $-1 -48.308763275669207 -15.042436114109755 36.940093591096755 0 0.64278761758704617 0.76604443648966558 1 0 0 forward_v I I I I #
coedge $-1 $422 $423 $424 $425 reversed $252 $-1 #
coedge $-1 $343 $343 $-1 $426 forward $254 $-1 #
edge $-1 $427 0 $427 6.2831853071796004 $255 $428 forward 7 unknown #
vertex $-1 $258 $429 #
ellipse-curve $-1 -51.254585340719153 24.889260714326486 3.4334208082770412 0 -0.64278761758704617 -0.76604443648966558 1 0 0 1 I I #
vertex $-1 $259 $430 #
point $-1 -44.362941210619255 24.19592029390359 2.607129888653906 #
loop $-1 $-1 $431 $251 #
straight-curve $-1 -55.182348094119078 28.270533134591737 0 0 0 -1 I I #
point $-1 -55.182348094119078 -28.270533134591737 -6.2706453084570688 #
straight-curve $-1 -55.182348094119078 0 -6.2706453084570688 0 1 0 I I #
point $-1 -55.182348094119078 28.270533134591737 -6.2706453084570688 #
face $-1 $432 $433 $16 $-1 $434 reversed single #
coedge $-1 $435 $282 $287 $361 forward $122 $-1 #
straight-curve $-1 -45.673504970494044 -12.651502176221751 6.2706453084570688 0 -1 0 I I #
coedge $-1 $284 $436 $286 $360 forward $216 $-1 #
straight-curve $-1 -45.673504970494044 -12.651502176221751 -6.2706453084570688 0 1 0 I I #
coedge $-1 $287 $286 $437 $438 reversed $197 $-1 #
edge $-1 $439 -55.182348094119078 $289 45.673504970494044 $286 $374 forward 7 unknown #
edge $-1 $288 -45.673504970494044 $440 55.182348094119078 $287 $369 forward 7 unknown #
point $-1 -45.673504970494044 -28.270533134591737 6.2706453084570688 #
point $-1 -45.673504970494044 -28.270533134591737 -6.2706453084570688 #
coedge $-1 $296 $295 $441 $442 forward $297 $-1 #
coedge $-1 $299 $435 $443 $444 forward $122 $-1 #
coedge $-1 $445 $441 $299 $367 reversed $433 $-1 #
edge $-1 $446 -28.270533134591737 $368 28.270533134591737 $366 $447 forward 7 unknown #
vertex $-1 $367 $448 #
straight-curve $-1 0 -28.270533134591737 6.2706453084570688 1 0 0 I I #
coedge $-1 $436 $302 $449 $450 forward $216 $-1 #
coedge $-1 $441 $445 $302 $372 reversed $433 $-1 #
edge $-1 $373 -28.270533134591737 $451 28.270533134591737 $371 $452 forward 7 unknown #
vertex $-1 $372 $453 #
straight-curve $-1 0 -28.270533134591737 -6.2706453084570688 -1 0 0 I I #
face $-1 $454 $455 $17 $-1 $456 reversed single #
loop $-1 $-1 $457 $305 #
plane-surface $-1 -45.673504970494044 -25.303004352443502 0 -1 0 0 0 0 1 forward_v I I I I #
coedge $-1 $458 $459 $460 $461 reversed $306 $-1 #
coedge $-1 $462 $308 $463 $464 reversed $222 $-1 #
coedge $-1 $308 $462 $465 $466 reversed $222 $-1 #
coedge $-1 $459 $458 $308 $382 forward $306 $-1 #
edge $-1 $467 -6.2706453084570688 $468 6.2706453084570688 $381 $469 forward 7 unknown #
coedge $-1 $470 $471 $309 $384 forward $472 $-1 #
edge $-1 $386 -55.182348094119078 $399 55.182348094119078 $309 $473 forward 7 unknown #
coedge $-1 $389 $310 $471 $474 reversed $314 $-1 #
vertex $-1 $384 $475 #
straight-curve $-1 -55.182348094119078 28.270533134591737 0 0 0 -1 I I #
straight-curve $-1 -24.154381637834604 21.507988294061242 6.2706453084570732 -1 0 0 I I #
coedge $-1 $313 $385 $476 $477 reversed $314 $-1 #
edge $-1 $315 -21.507988294061249 $478 28.270533134591737 $313 $479 forward 7 unknown #
face $-1 $480 $314 $17 $-1 $481 reversed single #
point $-1 -55.182348094119078 21.507988294061249 6.2706453084570697 #
coedge $-1 $463 $319 $482 $483 forward $138 $-1 #
coedge $-1 $320 $484 $485 $486 forward $138 $-1 #
coedge $-1 $487 $321 $320 $396 reversed $398 $-1 #
edge $-1 $488 -28.270533134591737 $323 28.270533134591737 $395 $489 forward 7 unknown #
coedge $-1 $321 $487 $470 $490 reversed $398 $-1 #
loop $-1 $-1 $487 $480 #
vertex $-1 $490 $491 #
straight-curve $-1 55.182348094119078 28.270533134591737 0 0 0 -1 I I #
point $-1 55.182348094119078 28.270533134591737 6.2706453084570688 #
face $-1 $492 $493 $18 $-1 $494 forward single #
loop $-1 $-1 $495 $325 #
plane-surface $-1 -48.689852430525129 -25.303004352443502 0 1 0 0 0 0 -1 forward_v I I I I #
coedge $-1 $328 $496 $497 $498 reversed $240 $-1 #
edge $-1 $499 -31.027966456284474 $335 -17.280796819384733 $328 $500 forward 7 unknown #
coedge $-1 $408 $329 $501 $502 reversed $242 $-1 #
coedge $-1 $330 $407 $411 $503 reversed $242 $-1 #
vertex $-1 $503 $504 #
straight-curve $-1 -41.435178457219337 -15.042436114109755 36.940093591096755 0 -0.76604443648966558 0.64278761758704617 I I #
coedge $-1 $505 $332 $408 $503 forward $326 $-1 #
coedge $-1 $332 $506 $334 $415 forward $326 $-1 #
straight-curve $-1 -41.435178457219337 27.949312007223003 6.2706453084570697 0 -1 0 I I #
coedge $-1 $496 $334 $507 $508 forward $240 $-1 #
edge $-1 $509 -55.182348094119078 $336 41.435178457219337 $334 $510 forward 7 unknown #
point $-1 -41.435178457219337 28.270533134591737 0.59619630809701363 #
point $-1 -41.435178457219337 28.270533134591737 6.2706453084570688 #
point $-1 -51.254585340719153 23.553132676316544 1.8410854521642404 #
face $-1 $511 $512 $19 $-1 $513 forward single #
loop $-1 $-1 $514 $340 #
plane-surface $-1 0 28.270533134591737 0 0 -1 0 0 0 -1 forward_v I I I I #
coedge $-1 $423 $342 $515 $516 forward $252 $-1 #
coedge $-1 $342 $422 $517 $518 reversed $252 $-1 #
coedge $-1 $519 $514 $342 $425 forward $420 $-1 #
edge $-1 $520 -60.145981237387382 $521 -54.471532237027326 $424 $522 forward 7 unknown #
edge $-1 $523 1 $523 0 $343 $-1 forward 7 unknown #
vertex $-1 $344 $524 #
ellipse-curve $-1 -51.254585340719153 24.19592029390359 2.607129888653906 0 0.64278761758704617 0.76604443648966558 1 0 0 1 I I #
point $-1 -50.254585340719153 24.889260714326472 3.4334208082770257 #
point $-1 -45.362941210619255 23.553132676316544 1.8410854521642404 #
coedge $-1 $525 $515 $514 $526 reversed $349 $-1 #
face $-1 $527 $528 $16 $-1 $529 reversed single #
loop $-1 $-1 $445 $354 #
plane-surface $-1 -55.182348094119078 0 0 1 0 0 0 0 -1 forward_v I I I I #
coedge $-1 $365 $355 $530 $531 forward $122 $-1 #
coedge $-1 $357 $370 $532 $533 forward $216 $-1 #
coedge $-1 $532 $530 $359 $438 forward $534 $-1 #
edge $-1 $440 -6.2706453084570688 $439 6.2706453084570688 $437 $535 forward 7 unknown #
vertex $-1 $438 $536 #
vertex $-1 $531 $537 #
coedge $-1 $366 $371 $364 $442 reversed $433 $-1 #
edge $-1 $368 -6.2706453084570688 $373 6.2706453084570688 $441 $538 forward 7 unknown #
coedge $-1 $539 $540 $365 $444 reversed $528 $-1 #
edge $-1 $541 -55.182348094119078 $446 55.182348094119078 $443 $542 forward 7 unknown #
coedge $-1 $371 $366 $540 $543 forward $433 $-1 #
vertex $-1 $444 $544 #
straight-curve $-1 -55.182348094119078 0 6.2706453084570688 0 -1 0 I I #
point $-1 -55.182348094119078 -28.270533134591737 6.2706453084570688 #
coedge $-1 $540 $539 $370 $450 reversed $528 $-1 #
edge $-1 $451 -55.182348094119078 $545 55.182348094119078 $449 $546 forward 7 unknown #
vertex $-1 $450 $547 #
straight-curve $-1 -55.182348094119078 0 -6.2706453084570688 0 1 0 I I #
point $-1 -55.182348094119078 -28.270533134591737 -6.2706453084570688 #
face $-1 $548 $472 $17 $-1 $549 reversed single #
loop $-1 $-1 $550 $375 #
plane-surface $-1 0 -28.270533134591737 0 0 1 0 0 0 1 forward_v I I I I #
coedge $-1 $551 $552 $550 $553 reversed $376 $-1 #
coedge $-1 $381 $378 $554 $555 reversed $306 $-1 #
coedge $-1 $378 $381 $556 $557 reversed $306 $-1 #
coedge $-1 $552 $551 $378 $461 forward $376 $-1 #
edge $-1 $558 -6.2706453084570688 $559 6.2706453084570688 $460 $560 forward 7 unknown #
coedge $-1 $380 $379 $561 $562 reversed $222 $-1 #
coedge $-1 $554 $393 $379 $464 forward $138 $-1 #
edge $-1 $563 -15.619030958369986 $467 -9.6839733940735151 $463 $564 forward 7 unknown #
coedge $-1 $565 $556 $380 $466 forward $472 $-1 #
edge $-1 $468 9.6839733940735151 $566 15.619030958369986 $465 $567 forward 7 unknown #
vertex $-1 $464 $568 #
vertex $-1 $466 $569 #
straight-curve $-1 -48.689852430525129 -22.335475570295266 0 0 0 -1 I I #
coedge $-1 $570 $383 $397 $490 forward $472 $-1 #
coedge $-1 $383 $565 $385 $474 forward $472 $-1 #
loop $-1 $-1 $465 $454 #
straight-curve $-1 0 28.270533134591737 -6.2706453084570688 1 0 0 I I #
edge $-1 $571 -28.270533134591737 $386 28.270533134591737 $385 $572 forward 7 unknown #
point $-1 -55.182348094119078 28.270533134591737 -6.2706453084570688 #
coedge $-1 $573 $482 $389 $477 forward $574 $-1 #
edge $-1 $478 -6.2706453084570688 $571 6.2706453084570688 $389 $575 forward 7 unknown #
vertex $-1 $390 $576 #
straight-curve $-1 -55.182348094119078 0 6.2706453084570688 0 -1 0 I I #
face $-1 $-1 $398 $17 $-1 $577 reversed single #
plane-surface $-1 -55.182348094119078 0 0 1 0 0 0 0 -1 forward_v I I I I #
coedge $-1 $476 $561 $393 $483 reversed $574 $-1 #
edge $-1 $478 -55.182348094119078 $563 -48.689852430525129 $482 $578 forward 7 unknown #
coedge $-1 $394 $554 $551 $579 forward $138 $-1 #
coedge $-1 $550 $580 $394 $486 reversed $455 $-1 #
edge $-1 $581 -45.673504970494044 $488 55.182348094119078 $485 $578 forward 7 unknown #
coedge $-1 $397 $395 $580 $582 forward $398 $-1 #
vertex $-1 $396 $583 #
straight-curve $-1 55.182348094119078 0 6.2706453084570688 0 1 0 I I #
edge $-1 $399 -28.270533134591737 $584 28.270533134591737 $397 $585 forward 7 unknown #
point $-1 55.182348094119078 28.270533134591737 -6.2706453084570688 #
face $-1 $586 $587 $18 $-1 $588 forward single #
loop $-1 $-1 $589 $402 #
plane-surface $-1 -47.181678700509586 -22.335475570295266 0 0 -1 0 0 0 -1 forward_v I I I I #
coedge $-1 $590 $591 $592 $593 reversed $403 $-1 #
coedge $-1 $405 $414 $594 $595 reversed $240 $-1 #
coedge $-1 $596 $501 $405 $498 forward $597 $-1 #
edge $-1 $499 -0.59619630809701329 $598 6.2706453084570688 $405 $599 forward 7 unknown #
vertex $-1 $498 $600 #
straight-curve $-1 -24.154381637834604 28.270533134591734 0.59619630809702073 1 0 0 I I #
coedge $-1 $497 $601 $407 $502 forward $597 $-1 #
edge $-1 $602 30.079286238858266 $499 38.907161644519178 $501 $603 forward 7 unknown #
edge $-1 $409 17.280796819384733 $602 31.027966456284474 $411 $604 forward 7 unknown #
point $-1 -41.435178457219337 21.507988294061249 6.2706453084570697 #
coedge $-1 $605 $411 $601 $606 forward $326 $-1 #
coedge $-1 $412 $607 $608 $609 forward $326 $-1 #
coedge $-1 $608 $610 $414 $508 reversed $611 $-1 #
edge $-1 $509 -6.2706453084570688 $612 6.2706453084570688 $507 $613 forward 7 unknown #
vertex $-1 $609 $614 #
straight-curve $-1 0 28.270533134591737 6.2706453084570688 -1 0 0 I I #
face $-1 $615 $616 $19 $-1 $617 forward single #
loop $-1 $-1 $517 $419 #
plane-surface $-1 0 0 6.2706453084570688 0 0 1 1 0 0 forward_v I I I I #
coedge $-1 $424 $618 $431 $526 forward $420 $-1 #
coedge $-1 $431 $619 $422 $516 reversed $349 $-1 #
edge $-1 $520 -56.541066269183474 $620 -47.713190863522563 $422 $621 forward 7 unknown #
coedge $-1 $622 $623 $423 $518 forward $512 $-1 #
edge $-1 $521 -0.32122112736873376 $620 6.4413237131617542 $517 $624 forward 7 unknown #
coedge $-1 $625 $424 $623 $626 reversed $420 $-1 #
vertex $-1 $526 $627 #
vertex $-1 $518 $628 #
straight-curve $-1 -41.435178457219337 28.270533134591737 60.742177545484395 0 0 1 I I #
vertex $-1 $426 $629 #
point $-1 -50.254585340719153 24.19592029390359 2.607129888653906 #
coedge $-1 $619 $431 $630 $631 reversed $349 $-1 #
edge $-1 $632 -31.027966456284474 $520 -17.280796819384733 $514 $633 forward 7 unknown #
face $-1 $-1 $534 $16 $-1 $634 reversed single #
loop $-1 $-1 $539 $432 #
plane-surface $-1 0 28.270533134591737 0 0 -1 0 0 0 -1 forward_v I I I I #
coedge $-1 $437 $635 $435 $531 reversed $534 $-1 #
edge $-1 $440 -28.270533134591737 $541 28.270533134591737 $530 $636 forward 7 unknown #
coedge $-1 $635 $437 $436 $533 reversed $534 $-1 #
edge $-1 $545 -28.270533134591737 $439 28.270533134591737 $532 $637 forward 7 unknown #
loop $-1 $-1 $437 $527 #
straight-curve $-1 55.182348094119078 -28.270533134591737 0 0 0 -1 I I #
point $-1 55.182348094119078 -28.270533134591737 -6.2706453084570688 #
point $-1 55.182348094119078 -28.270533134591737 6.2706453084570688 #
straight-curve $-1 -55.182348094119078 -28.270533134591737 0 0 0 -1 I I #
coedge $-1 $449 $443 $635 $638 forward $528 $-1 #
coedge $-1 $443 $449 $445 $543 reversed $528 $-1 #
vertex $-1 $531 $639 #
straight-curve $-1 0 28.270533134591737 6.2706453084570688 -1 0 0 I I #
edge $-1 $446 -6.2706453084570688 $451 6.2706453084570688 $540 $640 forward 7 unknown #
point $-1 -55.182348094119078 28.270533134591737 6.2706453084570688 #
vertex $-1 $533 $641 #
straight-curve $-1 0 28.270533134591737 -6.2706453084570688 1 0 0 I I #
point $-1 -55.182348094119078 28.270533134591737 -6.2706453084570688 #
face $-1 $391 $574 $17 $-1 $456 reversed single #
plane-surface $-1 0 0 -6.2706453084570688 0 0 1 1 0 0 forward_v I I I I #
coedge $-1 $642 $485 $457 $553 forward $455 $-1 #
coedge $-1 $460 $457 $484 $579 reversed $376 $-1 #
coedge $-1 $457 $460 $643 $644 reversed $376 $-1 #
edge $-1 $581 -6.2706453084570688 $645 6.2706453084570688 $550 $646 forward 7 unknown #
coedge $-1 $484 $463 $458 $555 forward $138 $-1 #
edge $-1 $467 -25.099013080270336 $558 -22.082665620239251 $554 $647 forward 7 unknown #
coedge $-1 $465 $643 $459 $557 forward $472 $-1 #
edge $-1 $559 22.082665620239251 $468 25.099013080270336 $556 $648 forward 7 unknown #
vertex $-1 $555 $649 #
vertex $-1 $557 $650 #
straight-curve $-1 -45.673504970494044 -22.335475570295266 0 0 0 -1 I I #
coedge $-1 $482 $573 $462 $562 forward $574 $-1 #
edge $-1 $566 -6.2706453084570688 $563 6.2706453084570688 $561 $651 forward 7 unknown #
vertex $-1 $562 $652 #
straight-curve $-1 -48.689852430525129 -12.651502176221751 6.2706453084570688 0 1 0 I I #
coedge $-1 $471 $465 $573 $653 forward $472 $-1 #
vertex $-1 $653 $654 #
straight-curve $-1 -48.689852430525129 -12.651502176221751 -6.2706453084570688 0 -1 0 I I #
point $-1 -48.689852430525129 -22.335475570295266 6.2706453084570688 #
point $-1 -48.689852430525129 -22.335475570295266 -6.2706453084570688 #
coedge $-1 $643 $470 $642 $655 forward $472 $-1 #
vertex $-1 $474 $656 #
straight-curve $-1 -55.182348094119078 0 -6.2706453084570688 0 1 0 I I #
coedge $-1 $561 $476 $565 $653 reversed $574 $-1 #
loop $-1 $-1 $561 $548 #
straight-curve $-1 -55.182348094119078 -28.270533134591737 0 0 0 -1 I I #
point $-1 -55.182348094119078 -28.270533134591737 6.2706453084570688 #
plane-surface $-1 55.182348094119078 0 0 -1 0 0 0 0 1 forward_v I I I I #
straight-curve $-1 0 -28.270533134591737 6.2706453084570688 1 0 0 I I #
edge $-1 $558 9.6839733940735151 $581 15.619030958369986 $484 $657 forward 7 unknown #
coedge $-1 $485 $642 $487 $582 reversed $455 $-1 #
vertex $-1 $486 $658 #
edge $-1 $488 -6.2706453084570688 $584 6.2706453084570688 $487 $659 forward 7 unknown #
point $-1 55.182348094119078 -28.270533134591737 6.2706453084570688 #
vertex $-1 $582 $660 #
straight-curve $-1 55.182348094119078 0 -6.2706453084570688 0 -1 0 I I #
face $-1 $661 $662 $18 $-1 $663 reversed single #
loop $-1 $-1 $664 $492 #
plane-surface $-1 -45.673504970494044 -25.303004352443502 0 -1 0 0 0 0 1 forward_v I I I I #
coedge $-1 $665 $666 $667 $668 reversed $493 $-1 #
coedge $-1 $669 $495 $670 $671 reversed $403 $-1 #
coedge $-1 $495 $669 $672 $673 reversed $403 $-1 #
coedge $-1 $666 $665 $495 $593 forward $493 $-1 #
edge $-1 $674 -6.2706453084570688 $675 6.2706453084570688 $592 $676 forward 7 unknown #
coedge $-1 $677 $678 $496 $595 forward $679 $-1 #
edge $-1 $598 -55.182348094119078 $612 55.182348094119078 $496 $680 forward 7 unknown #
coedge $-1 $681 $497 $678 $682 reversed $597 $-1 #
loop $-1 $-1 $501 $683 #
vertex $-1 $595 $684 #
straight-curve $-1 -55.182348094119078 28.270533134591737 0 0 0 -1 I I #
point $-1 -55.182348094119078 28.270533134591737 0.59619630809701329 #
coedge $-1 $501 $681 $505 $606 reversed $597 $-1 #
vertex $-1 $606 $685 #
straight-curve $-1 -55.182348094119078 -1.5340815827962828 25.605238048651596 0 0.76604443648966558 -0.64278761758704617 I I #
straight-curve $-1 -24.154381637834604 21.507988294061242 6.2706453084570732 -1 0 0 I I #
coedge $-1 $670 $505 $686 $687 forward $326 $-1 #
edge $-1 $602 -21.507988294061249 $688 28.270533134591737 $601 $689 forward 7 unknown #
coedge $-1 $506 $690 $691 $692 forward $326 $-1 #
coedge $-1 $693 $507 $506 $609 reversed $611 $-1 #
edge $-1 $694 -28.270533134591737 $509 28.270533134591737 $608 $695 forward 7 unknown #
coedge $-1 $507 $693 $677 $696 reversed $611 $-1 #
loop $-1 $-1 $693 $697 #
vertex $-1 $696 $698 #
straight-curve $-1 55.182348094119078 28.270533134591737 0 0 0 -1 I I #
point $-1 55.182348094119078 28.270533134591737 6.2706453084570688 #
face $-1 $699 $700 $19 $-1 $701 forward single #
loop $-1 $-1 $702 $511 #
plane-surface $-1 -48.689852430525129 -25.303004352443502 0 1 0 0 0 0 -1 forward_v I I I I #
coedge $-1 $514 $703 $704 $705 reversed $420 $-1 #
coedge $-1 $515 $525 $622 $706 reversed $349 $-1 #
vertex $-1 $706 $707 #
straight-curve $-1 -41.435178457219337 -15.042436114109755 36.940093591096755 0 -0.76604443648966558 0.64278761758704617 I I #
coedge $-1 $708 $517 $619 $706 forward $512 $-1 #
coedge $-1 $517 $709 $519 $626 forward $512 $-1 #
straight-curve $-1 -41.435178457219337 27.949312007223003 6.2706453084570697 0 -1 0 I I #
coedge $-1 $703 $519 $710 $711 forward $420 $-1 #
edge $-1 $712 -55.182348094119078 $521 41.435178457219337 $519 $713 forward 7 unknown #
point $-1 -41.435178457219337 28.270533134591737 0.59619630809701363 #
point $-1 -41.435178457219337 28.270533134591737 6.2706453084570688 #
point $-1 -51.254585340719153 23.553132676316544 1.8410854521642404 #
coedge $-1 $704 $714 $525 $631 forward $715 $-1 #
edge $-1 $716 30.079286238858266 $632 38.907161644519178 $630 $717 forward 7 unknown #
vertex $-1 $705 $718 #
straight-curve $-1 -24.154381637834604 28.270533134591734 0.59619630809702073 1 0 0 I I #
plane-surface $-1 55.182348094119078 0 0 -1 0 0 0 0 1 forward_v I I I I #
coedge $-1 $530 $532 $539 $638 reversed $534 $-1 #
straight-curve $-1 55.182348094119078 0 6.2706453084570688 0 1 0 I I #
straight-curve $-1 55.182348094119078 0 -6.2706453084570688 0 -1 0 I I #
edge $-1 $541 -6.2706453084570688 $545 6.2706453084570688 $635 $719 forward 7 unknown #
point $-1 55.182348094119078 28.270533134591737 6.2706453084570688 #
straight-curve $-1 -55.182348094119078 28.270533134591737 0 0 0 -1 I I #
point $-1 55.182348094119078 28.270533134591737 -6.2706453084570688 #
coedge $-1 $580 $550 $570 $655 reversed $455 $-1 #
coedge $-1 $556 $570 $552 $644 forward $472 $-1 #
edge $-1 $645 -15.619030958369986 $559 -9.6839733940735151 $643 $720 forward 7 unknown #
vertex $-1 $553 $721 #
straight-curve $-1 -45.673504970494044 -28.270533134591737 0 0 0 -1 I I #
straight-curve $-1 -23.590839350254793 -22.335475570295266 6.2706453084570688 1 0 0 I I #
straight-curve $-1 -23.590839350254793 -22.335475570295266 -6.2706453084570688 -1 0 0 I I #
point $-1 -45.673504970494044 -22.335475570295266 6.2706453084570688 #
point $-1 -45.673504970494044 -22.335475570295266 -6.2706453084570688 #
straight-curve $-1 -48.689852430525129 -28.270533134591737 0 0 0 1 I I #
point $-1 -48.689852430525129 -28.270533134591737 6.2706453084570688 #
edge $-1 $566 48.689852430525129 $571 55.182348094119078 $573 $722 forward 7 unknown #
point $-1 -48.689852430525129 -28.270533134591737 -6.2706453084570688 #
edge $-1 $584 -55.182348094119078 $645 45.673504970494044 $642 $722 forward 7 unknown #
point $-1 -55.182348094119078 -28.270533134591737 -6.2706453084570688 #
straight-curve $-1 -45.673504970494044 -12.651502176221751 6.2706453084570688 0 -1 0 I I #
point $-1 -45.673504970494044 -28.270533134591737 6.2706453084570688 #
straight-curve $-1 55.182348094119078 -28.270533134591737 0 0 0 -1 I I #
point $-1 55.182348094119078 -28.270533134591737 -6.2706453084570688 #
face $-1 $723 $679 $18 $-1 $724 reversed single #
loop $-1 $-1 $725 $586 #
plane-surface $-1 0 -28.270533134591737 0 0 1 0 0 0 1 forward_v I I I I #
coedge $-1 $726 $727 $725 $728 reversed $587 $-1 #
coedge $-1 $592 $589 $729 $730 reversed $493 $-1 #
coedge $-1 $589 $592 $731 $732 reversed $493 $-1 #
coedge $-1 $727 $726 $589 $668 forward $587 $-1 #
edge $-1 $733 -6.2706453084570688 $734 6.2706453084570688 $667 $735 forward 7 unknown #
coedge $-1 $591 $590 $736 $737 reversed $403 $-1 #
coedge $-1 $729 $605 $590 $671 forward $326 $-1 #
edge $-1 $738 -15.619030958369986 $674 -9.6839733940735151 $670 $739 forward 7 unknown #
coedge $-1 $740 $731 $591 $673 forward $679 $-1 #
edge $-1 $675 9.6839733940735151 $741 15.619030958369986 $672 $742 forward 7 unknown #
vertex $-1 $671 $743 #
vertex $-1 $673 $744 #
straight-curve $-1 -48.689852430525129 -22.335475570295266 0 0 0 -1 I I #
coedge $-1 $745 $594 $610 $696 forward $679 $-1 #
coedge $-1 $594 $740 $596 $682 forward $679 $-1 #
loop $-1 $-1 $672 $661 #
straight-curve $-1 0 28.270533134591737 -6.2706453084570688 1 0 0 I I #
coedge $-1 $601 $596 $746 $747 reversed $597 $-1 #
edge $-1 $748 -28.270533134591737 $598 28.270533134591737 $596 $749 forward 7 unknown #
face $-1 $697 $597 $18 $-1 $750 reversed single #
point $-1 -55.182348094119078 28.270533134591737 -6.2706453084570688 #
point $-1 -55.182348094119078 21.507988294061249 6.2706453084570697 #
coedge $-1 $746 $736 $605 $687 reversed $751 $-1 #
edge $-1 $688 -55.182348094119078 $738 -48.689852430525129 $686 $752 forward 7 unknown #
vertex $-1 $606 $753 #
straight-curve $-1 -55.182348094119078 0 6.2706453084570688 0 -1 0 I I #
coedge $-1 $607 $729 $726 $754 forward $326 $-1 #
coedge $-1 $725 $755 $607 $692 reversed $662 $-1 #
edge $-1 $756 -45.673504970494044 $694 55.182348094119078 $691 $752 forward 7 unknown #
coedge $-1 $610 $608 $755 $757 forward $611 $-1 #
vertex $-1 $609 $758 #
straight-curve $-1 55.182348094119078 0 6.2706453084570688 0 1 0 I I #
edge $-1 $612 -28.270533134591737 $759 28.270533134591737 $610 $760 forward 7 unknown #
face $-1 $-1 $611 $18 $-1 $761 reversed single #
point $-1 55.182348094119078 28.270533134591737 -6.2706453084570688 #
face $-1 $762 $763 $19 $-1 $764 forward single #
loop $-1 $-1 $765 $615 #
plane-surface $-1 -47.181678700509586 -22.335475570295266 0 0 -1 0 0 0 -1 forward_v I I I I #
coedge $-1 $766 $767 $768 $769 reversed $616 $-1 #
coedge $-1 $618 $625 $770 $771 reversed $420 $-1 #
coedge $-1 $772 $630 $618 $705 forward $715 $-1 #
edge $-1 $632 -0.59619630809701329 $773 6.2706453084570688 $618 $774 forward 7 unknown #
edge $-1 $620 17.280796819384733 $716 31.027966456284474 $622 $775 forward 7 unknown #
point $-1 -41.435178457219337 21.507988294061249 6.2706453084570697 #
coedge $-1 $776 $622 $714 $777 forward $512 $-1 #
coedge $-1 $623 $778 $779 $780 forward $512 $-1 #
coedge $-1 $779 $781 $625 $711 reversed $782 $-1 #
edge $-1 $712 -6.2706453084570688 $783 6.2706453084570688 $710 $784 forward 7 unknown #
vertex $-1 $780 $785 #
straight-curve $-1 0 28.270533134591737 6.2706453084570688 -1 0 0 I I #
coedge $-1 $630 $786 $708 $777 reversed $715 $-1 #
loop $-1 $-1 $630 $787 #
vertex $-1 $777 $788 #
straight-curve $-1 -55.182348094119078 -1.5340815827962828 25.605238048651596 0 0.76604443648966558 -0.64278761758704617 I I #
point $-1 -55.182348094119078 28.270533134591737 0.59619630809701329 #
straight-curve $-1 55.182348094119078 28.270533134591737 0 0 0 -1 I I #
straight-curve $-1 -45.673504970494044 -12.651502176221751 -6.2706453084570688 0 1 0 I I #
point $-1 -45.673504970494044 -28.270533134591737 -6.2706453084570688 #
straight-curve $-1 0 -28.270533134591737 -6.2706453084570688 -1 0 0 I I #
face $-1 $683 $751 $18 $-1 $663 reversed single #
plane-surface $-1 0 0 -6.2706453084570688 0 0 1 1 0 0 forward_v I I I I #
coedge $-1 $789 $691 $664 $728 forward $662 $-1 #
coedge $-1 $667 $664 $690 $754 reversed $587 $-1 #
coedge $-1 $664 $667 $790 $791 reversed $587 $-1 #
edge $-1 $756 -6.2706453084570688 $792 6.2706453084570688 $725 $793 forward 7 unknown #
coedge $-1 $690 $670 $665 $730 forward $326 $-1 #
edge $-1 $674 -25.099013080270336 $733 -22.082665620239251 $729 $794 forward 7 unknown #
coedge $-1 $672 $790 $666 $732 forward $679 $-1 #
edge $-1 $734 22.082665620239251 $675 25.099013080270336 $731 $795 forward 7 unknown #
vertex $-1 $730 $796 #
vertex $-1 $732 $797 #
straight-curve $-1 -45.673504970494044 -22.335475570295266 0 0 0 -1 I I #
coedge $-1 $686 $798 $669 $737 forward $751 $-1 #
edge $-1 $741 -6.2706453084570688 $738 6.2706453084570688 $736 $799 forward 7 unknown #
vertex $-1 $737 $800 #
straight-curve $-1 -48.689852430525129 -12.651502176221751 6.2706453084570688 0 1 0 I I #
coedge $-1 $678 $672 $798 $801 forward $679 $-1 #
vertex $-1 $801 $802 #
straight-curve $-1 -48.689852430525129 -12.651502176221751 -6.2706453084570688 0 -1 0 I I #
point $-1 -48.689852430525129 -22.335475570295266 6.2706453084570688 #
point $-1 -48.689852430525129 -22.335475570295266 -6.2706453084570688 #
coedge $-1 $790 $677 $789 $803 forward $679 $-1 #
coedge $-1 $798 $686 $681 $747 forward $751 $-1 #
edge $-1 $688 -6.2706453084570688 $748 6.2706453084570688 $681 $804 forward 7 unknown #
vertex $-1 $682 $805 #
straight-curve $-1 -55.182348094119078 0 -6.2706453084570688 0 1 0 I I #
plane-surface $-1 -55.182348094119078 0 0 1 0 0 0 0 -1 forward_v I I I I #
loop $-1 $-1 $736 $723 #
straight-curve $-1 0 -28.270533134591737 6.2706453084570688 1 0 0 I I #
point $-1 -55.182348094119078 -28.270533134591737 6.2706453084570688 #
edge $-1 $733 9.6839733940735151 $756 15.619030958369986 $690 $806 forward 7 unknown #
coedge $-1 $691 $789 $693 $757 reversed $662 $-1 #
vertex $-1 $692 $807 #
edge $-1 $694 -6.2706453084570688 $759 6.2706453084570688 $693 $808 forward 7 unknown #
point $-1 55.182348094119078 -28.270533134591737 6.2706453084570688 #
vertex $-1 $757 $809 #
straight-curve $-1 55.182348094119078 0 -6.2706453084570688 0 -1 0 I I #
plane-surface $-1 55.182348094119078 0 0 -1 0 0 0 0 1 forward_v I I I I #
face $-1 $810 $811 $19 $-1 $812 reversed single #
loop $-1 $-1 $813 $699 #
plane-surface $-1 -45.673504970494044 -25.303004352443502 0 -1 0 0 0 0 1 forward_v I I I I #
coedge $-1 $814 $815 $816 $817 reversed $700 $-1 #
coedge $-1 $818 $702 $819 $820 reversed $616 $-1 #
coedge $-1 $702 $818 $821 $822 reversed $616 $-1 #
coedge $-1 $815 $814 $702 $769 forward $700 $-1 #
edge $-1 $823 -6.2706453084570688 $824 6.2706453084570688 $768 $825 forward 7 unknown #
coedge $-1 $826 $827 $703 $771 forward $828 $-1 #
edge $-1 $773 -55.182348094119078 $783 55.182348094119078 $703 $829 forward 7 unknown #
coedge $-1 $786 $704 $827 $830 reversed $715 $-1 #
vertex $-1 $771 $831 #
straight-curve $-1 -55.182348094119078 28.270533134591737 0 0 0 -1 I I #
straight-curve $-1 -24.154381637834604 21.507988294061242 6.2706453084570732 -1 0 0 I I #
coedge $-1 $819 $708 $832 $833 forward $512 $-1 #
edge $-1 $716 -21.507988294061249 $834 28.270533134591737 $714 $835 forward 7 unknown #
coedge $-1 $709 $836 $837 $838 forward $512 $-1 #
coedge $-1 $839 $710 $709 $780 reversed $782 $-1 #
edge $-1 $840 -28.270533134591737 $712 28.270533134591737 $779 $841 forward 7 unknown #
coedge $-1 $710 $839 $826 $842 reversed $782 $-1 #
loop $-1 $-1 $839 $843 #
vertex $-1 $842 $844 #
straight-curve $-1 55.182348094119078 28.270533134591737 0 0 0 -1 I I #
point $-1 55.182348094119078 28.270533134591737 6.2706453084570688 #
coedge $-1 $714 $772 $845 $846 reversed $715 $-1 #
face $-1 $843 $715 $19 $-1 $847 reversed single #
point $-1 -55.182348094119078 21.507988294061249 6.2706453084570697 #
coedge $-1 $755 $725 $745 $803 reversed $662 $-1 #
coedge $-1 $731 $745 $727 $791 forward $679 $-1 #
edge $-1 $792 -15.619030958369986 $734 -9.6839733940735151 $790 $848 forward 7 unknown #
vertex $-1 $728 $849 #
straight-curve $-1 -45.673504970494044 -28.270533134591737 0 0 0 -1 I I #
straight-curve $-1 -23.590839350254793 -22.335475570295266 6.2706453084570688 1 0 0 I I #
straight-curve $-1 -23.590839350254793 -22.335475570295266 -6.2706453084570688 -1 0 0 I I #
point $-1 -45.673504970494044 -22.335475570295266 6.2706453084570688 #
point $-1 -45.673504970494044 -22.335475570295266 -6.2706453084570688 #
coedge $-1 $736 $746 $740 $801 reversed $751 $-1 #
straight-curve $-1 -48.689852430525129 -28.270533134591737 0 0 0 1 I I #
point $-1 -48.689852430525129 -28.270533134591737 6.2706453084570688 #
edge $-1 $741 48.689852430525129 $748 55.182348094119078 $798 $850 forward 7 unknown #
point $-1 -48.689852430525129 -28.270533134591737 -6.2706453084570688 #
edge $-1 $759 -55.182348094119078 $792 45.673504970494044 $789 $850 forward 7 unknown #
straight-curve $-1 -55.182348094119078 -28.270533134591737 0 0 0 -1 I I #
point $-1 -55.182348094119078 -28.270533134591737 -6.2706453084570688 #
straight-curve $-1 -45.673504970494044 -12.651502176221751 6.2706453084570688 0 -1 0 I I #
point $-1 -45.673504970494044 -28.270533134591737 6.2706453084570688 #
straight-curve $-1 55.182348094119078 -28.270533134591737 0 0 0 -1 I I #
point $-1 55.182348094119078 -28.270533134591737 -6.2706453084570688 #
face $-1 $851 $828 $19 $-1 $852 reversed single #
loop $-1 $-1 $853 $762 #
plane-surface $-1 0 -28.270533134591737 0 0 1 0 0 0 1 forward_v I I I I #
coedge $-1 $854 $855 $853 $856 reversed $763 $-1 #
coedge $-1 $768 $765 $857 $858 reversed $700 $-1 #
coedge $-1 $765 $768 $859 $860 reversed $700 $-1 #
coedge $-1 $855 $854 $765 $817 forward $763 $-1 #
edge $-1 $861 -6.2706453084570688 $862 6.2706453084570688 $816 $863 forward 7 unknown #
coedge $-1 $767 $766 $864 $865 reversed $616 $-1 #
coedge $-1 $857 $776 $766 $820 forward $512 $-1 #
edge $-1 $866 -15.619030958369986 $823 -9.6839733940735151 $819 $867 forward 7 unknown #
coedge $-1 $868 $859 $767 $822 forward $828 $-1 #
edge $-1 $824 9.6839733940735151 $869 15.619030958369986 $821 $870 forward 7 unknown #
vertex $-1 $820 $871 #
vertex $-1 $822 $872 #
straight-curve $-1 -48.689852430525129 -22.335475570295266 0 0 0 -1 I I #
coedge $-1 $873 $770 $781 $842 forward $828 $-1 #
coedge $-1 $770 $868 $772 $830 forward $828 $-1 #
loop $-1 $-1 $821 $810 #
straight-curve $-1 0 28.270533134591737 -6.2706453084570688 1 0 0 I I #
edge $-1 $874 -28.270533134591737 $773 28.270533134591737 $772 $875 forward 7 unknown #
point $-1 -55.182348094119078 28.270533134591737 -6.2706453084570688 #
coedge $-1 $845 $864 $776 $833 reversed $876 $-1 #
edge $-1 $834 -55.182348094119078 $866 -48.689852430525129 $832 $877 forward 7 unknown #
vertex $-1 $777 $878 #
straight-curve $-1 -55.182348094119078 0 6.2706453084570688 0 -1 0 I I #
coedge $-1 $778 $857 $854 $879 forward $512 $-1 #
coedge $-1 $853 $880 $778 $838 reversed $811 $-1 #
edge $-1 $881 -45.673504970494044 $840 55.182348094119078 $837 $877 forward 7 unknown #
coedge $-1 $781 $779 $880 $882 forward $782 $-1 #
vertex $-1 $780 $883 #
straight-curve $-1 55.182348094119078 0 6.2706453084570688 0 1 0 I I #
edge $-1 $783 -28.270533134591737 $884 28.270533134591737 $781 $885 forward 7 unknown #
face $-1 $-1 $782 $19 $-1 $886 reversed single #
point $-1 55.182348094119078 28.270533134591737 -6.2706453084570688 #
coedge $-1 $887 $832 $786 $846 forward $876 $-1 #
edge $-1 $834 -6.2706453084570688 $874 6.2706453084570688 $786 $888 forward 7 unknown #
plane-surface $-1 -55.182348094119078 0 0 1 0 0 0 0 -1 forward_v I I I I #
straight-curve $-1 -45.673504970494044 -12.651502176221751 -6.2706453084570688 0 1 0 I I #
point $-1 -45.673504970494044 -28.270533134591737 -6.2706453084570688 #
straight-curve $-1 0 -28.270533134591737 -6.2706453084570688 -1 0 0 I I #
face $-1 $787 $876 $19 $-1 $812 reversed single #
plane-surface $-1 0 0 -6.2706453084570688 0 0 1 1 0 0 forward_v I I I I #
coedge $-1 $889 $837 $813 $856 forward $811 $-1 #
coedge $-1 $816 $813 $836 $879 reversed $763 $-1 #
coedge $-1 $813 $816 $890 $891 reversed $763 $-1 #
edge $-1 $881 -6.2706453084570688 $892 6.2706453084570688 $853 $893 forward 7 unknown #
coedge $-1 $836 $819 $814 $858 forward $512 $-1 #
edge $-1 $823 -25.099013080270336 $861 -22.082665620239251 $857 $894 forward 7 unknown #
coedge $-1 $821 $890 $815 $860 forward $828 $-1 #
edge $-1 $862 22.082665620239251 $824 25.099013080270336 $859 $895 forward 7 unknown #
vertex $-1 $858 $896 #
vertex $-1 $860 $897 #
straight-curve $-1 -45.673504970494044 -22.335475570295266 0 0 0 -1 I I #
coedge $-1 $832 $887 $818 $865 forward $876 $-1 #
edge $-1 $869 -6.2706453084570688 $866 6.2706453084570688 $864 $898 forward 7 unknown #
vertex $-1 $865 $899 #
straight-curve $-1 -48.689852430525129 -12.651502176221751 6.2706453084570688 0 1 0 I I #
coedge $-1 $827 $821 $887 $900 forward $828 $-1 #
vertex $-1 $900 $901 #
straight-curve $-1 -48.689852430525129 -12.651502176221751 -6.2706453084570688 0 -1 0 I I #
point $-1 -48.689852430525129 -22.335475570295266 6.2706453084570688 #
point $-1 -48.689852430525129 -22.335475570295266 -6.2706453084570688 #
coedge $-1 $890 $826 $889 $902 forward $828 $-1 #
vertex $-1 $830 $903 #
straight-curve $-1 -55.182348094119078 0 -6.2706453084570688 0 1 0 I I #
loop $-1 $-1 $864 $851 #
straight-curve $-1 0 -28.270533134591737 6.2706453084570688 1 0 0 I I #
point $-1 -55.182348094119078 -28.270533134591737 6.2706453084570688 #
edge $-1 $861 9.6839733940735151 $881 15.619030958369986 $836 $904 forward 7 unknown #
coedge $-1 $837 $889 $839 $882 reversed $811 $-1 #
vertex $-1 $838 $905 #
edge $-1 $840 -6.2706453084570688 $884 6.2706453084570688 $839 $906 forward 7 unknown #
point $-1 55.182348094119078 -28.270533134591737 6.2706453084570688 #
vertex $-1 $882 $907 #
straight-curve $-1 55.182348094119078 0 -6.2706453084570688 0 -1 0 I I #
plane-surface $-1 55.182348094119078 0 0 -1 0 0 0 0 1 forward_v I I I I #
coedge $-1 $864 $845 $868 $900 reversed $876 $-1 #
straight-curve $-1 -55.182348094119078 -28.270533134591737 0 0 0 -1 I I #
coedge $-1 $880 $853 $873 $902 reversed $811 $-1 #
coedge $-1 $859 $873 $855 $891 forward $828 $-1 #
edge $-1 $892 -15.619030958369986 $862 -9.6839733940735151 $890 $908 forward 7 unknown #
vertex $-1 $856 $909 #
straight-curve $-1 -45.673504970494044 -28.270533134591737 0 0 0 -1 I I #
straight-curve $-1 -23.590839350254793 -22.335475570295266 6.2706453084570688 1 0 0 I I #
straight-curve $-1 -23.590839350254793 -22.335475570295266 -6.2706453084570688 -1 0 0 I I #
point $-1 -45.673504970494044 -22.335475570295266 6.2706453084570688 #
point $-1 -45.673504970494044 -22.335475570295266 -6.2706453084570688 #
straight-curve $-1 -48.689852430525129 -28.270533134591737 0 0 0 1 I I #
point $-1 -48.689852430525129 -28.270533134591737 6.2706453084570688 #
edge $-1 $869 48.689852430525129 $874 55.182348094119078 $887 $910 forward 7 unknown #
point $-1 -48.689852430525129 -28.270533134591737 -6.2706453084570688 #
edge $-1 $884 -55.182348094119078 $892 45.673504970494044 $889 $910 forward 7 unknown #
point $-1 -55.182348094119078 -28.270533134591737 -6.2706453084570688 #
straight-curve $-1 -45.673504970494044 -12.651502176221751 6.2706453084570688 0 -1 0 I I #
point $-1 -45.673504970494044 -28.270533134591737 6.2706453084570688 #
straight-curve $-1 55.182348094119078 -28.270533134591737 0 0 0 -1 I I #
point $-1 55.182348094119078 -28.270533134591737 -6.2706453084570688 #
straight-curve $-1 -45.673504970494044 -12.651502176221751 -6.2706453084570688 0 1 0 I I #
point $-1 -45.673504970494044 -28.270533134591737 -6.2706453084570688 #
straight-curve $-1 0 -28.270533134591737 -6.2706453084570688 -1 0 0 I I #
End-of-ACIS-data 