500 0 5 0           
7 Unknown 11 ACIS 5.0 NT 24 Fri Mar 26 02:23:39 1999 
-1 9.9999999999999995e-007 1e-010 
body $-1 $5 $-1 $6 #
body $-1 $7 $-1 $8 #
body $-1 $9 $-1 $10 #
body $-1 $11 $-1 $12 #
body $-1 $13 $-1 $14 #
lump $-1 $-1 $15 $0 #
transform $-1 1 0 0 0 1 0 0 0 1 41.323282570879236 28.725400588593974 10.475868768992592 1 rotate no_reflect no_shear #
lump $-1 $-1 $16 $1 #
transform $-1 1 0 0 0 1 0 0 0 1 41.323282570879236 28.725400588593974 10.475868768992592 1 rotate no_reflect no_shear #
lump $-1 $-1 $17 $2 #
transform $-1 1 0 0 0 1 0 0 0 1 41.323282570879236 28.725400588593974 10.475868768992592 1 rotate no_reflect no_shear #
lump $-1 $-1 $18 $3 #
transform $-1 1 0 0 0 1 0 0 0 1 41.323282570879236 28.725400588593974 10.475868768992592 1 rotate no_reflect no_shear #
lump $-1 $-1 $19 $4 #
transform $-1 1 0 0 0 1 0 0 0 1 41.323282570879236 28.725400588593974 10.475868768992592 1 rotate no_reflect no_shear #
shell $-1 $-1 $-1 $20 $-1 $5 #
shell $-1 $-1 $-1 $21 $-1 $7 #
shell $-1 $-1 $-1 $22 $-1 $9 #
shell $-1 $-1 $-1 $23 $-1 $11 #
shell $-1 $-1 $-1 $24 $-1 $13 #
face $-1 $25 $26 $15 $-1 $27 forward single #
face $-1 $28 $29 $16 $-1 $30 reversed single #
face $-1 $31 $32 $17 $-1 $33 reversed single #
face $-1 $34 $35 $18 $-1 $36 forward single #
face $-1 $37 $38 $19 $-1 $39 forward single #
face $-1 $40 $41 $15 $-1 $42 reversed single #
loop $-1 $-1 $43 $20 #
plane-surface $-1 0 0 10.475868768992592 0 0 1 1 0 0 forward_v I I I I #
face $-1 $44 $45 $16 $-1 $46 reversed single #
loop $-1 $-1 $47 $21 #
plane-surface $-1 -39.823282570879236 -19.7791167211446 0 0 -1 0 0 0 -1 forward_v I I I I #
face $-1 $48 $49 $17 $-1 $50 reversed single #
loop $-1 $-1 $51 $22 #
plane-surface $-1 26.082587058043906 68.369377905043663 97.863799794168173 1 0 0 0 -0.84804810408105047 -0.52991925155115449 forward_v I I I I #
face $-1 $52 $53 $18 $-1 $54 forward single #
loop $-1 $55 $56 $23 #
cone-surface $-1 30.43707149028257 26.236728223974115 7.3575767712630036 0 -0.84804810408105047 -0.52991925155115449 1 0 0 1 I I 0 1 1 forward I I I I #
face $-1 $57 $58 $19 $-1 $59 forward single #
loop $-1 $60 $61 $24 #
cone-surface $-1 36.968798138640572 26.236728223974115 7.3575767712630036 0 -0.84804810408105047 -0.52991925155115449 1 0 0 1 I I 0 1 1 forward I I I I #
face $-1 $62 $63 $15 $-1 $64 reversed single #
loop $-1 $-1 $65 $25 #
plane-surface $-1 0 0 -10.475868768992592 0 0 1 1 0 0 forward_v I I I I #
coedge $-1 $66 $67 $68 $69 forward $26 $-1 #
face $-1 $70 $71 $16 $-1 $72 forward single #
loop $-1 $-1 $73 $28 #
plane-surface $-1 -38.323282570879236 -24.252258654869287 0 -1 0 0 0 0 1 forward_v I I I I #
coedge $-1 $74 $75 $76 $77 forward $29 $-1 #
face $-1 $78 $79 $17 $-1 $80 forward single #
loop $-1 $-1 $81 $31 #
plane-surface $-1 33.702934814461578 -1.7188849722356423 54.067793850973786 0 0.84804810408105047 0.52991925155115449 1 0 0 forward_v I I I I #
coedge $-1 $82 $83 $84 $85 reversed $32 $-1 #
face $-1 $-1 $86 $18 $-1 $87 forward single #
loop $-1 $88 $89 $34 #
cone-surface $-1 30.43707149028257 24.926546053714556 6.5388841148930563 0 -0.84804810408105047 -0.52991925155115449 0.5 0 0 1 I I -0.70710678118654746 0.70710678118654746 0.5 forward I I I I #
loop $-1 $-1 $90 $23 #
coedge $-1 $56 $56 $91 $92 reversed $35 $-1 #
face $-1 $-1 $93 $19 $-1 $94 forward single #
loop $-1 $95 $96 $37 #
cone-surface $-1 36.968798138640572 24.926546053714556 6.5388841148930563 0 -0.84804810408105047 -0.52991925155115449 0.5 0 0 1 I I -0.70710678118654746 0.70710678118654746 0.5 forward I I I I #
loop $-1 $-1 $97 $24 #
coedge $-1 $61 $61 $98 $99 reversed $38 $-1 #
face $-1 $100 $101 $15 $-1 $102 reversed single #
loop $-1 $-1 $103 $40 #
plane-surface $-1 0 -28.725400588593974 0 0 1 0 0 0 1 forward_v I I I I #
coedge $-1 $104 $105 $106 $107 forward $41 $-1 #
coedge $-1 $108 $43 $109 $110 forward $26 $-1 #
coedge $-1 $43 $108 $111 $112 forward $26 $-1 #
coedge $-1 $113 $114 $43 $69 reversed $115 $-1 #
edge $-1 $116 -28.725400588593974 $117 28.725400588593974 $68 $118 forward 7 unknown #
face $-1 $119 $120 $16 $-1 $121 reversed single #
loop $-1 $-1 $122 $44 #
plane-surface $-1 0 0 10.475868768992592 0 0 1 1 0 0 forward_v I I I I #
coedge $-1 $123 $124 $125 $126 reversed $45 $-1 #
coedge $-1 $127 $47 $128 $129 reversed $29 $-1 #
coedge $-1 $47 $127 $130 $131 reversed $29 $-1 #
coedge $-1 $124 $123 $47 $77 reversed $45 $-1 #
edge $-1 $132 -10.475868768992592 $133 10.475868768992592 $76 $134 forward 7 unknown #
face $-1 $135 $136 $17 $-1 $137 reversed single #
loop $-1 $-1 $84 $48 #
plane-surface $-1 0 0 10.475868768992592 0 0 1 1 0 0 forward_v I I I I #
coedge $-1 $138 $139 $140 $141 reversed $49 $-1 #
coedge $-1 $83 $51 $142 $143 reversed $32 $-1 #
coedge $-1 $51 $82 $138 $144 reversed $32 $-1 #
coedge $-1 $140 $145 $51 $85 forward $79 $-1 #
edge $-1 $146 5.4592883639278575 $147 8.6643168567295028 $84 $148 forward 7 unknown #
loop $-1 $-1 $91 $52 #
plane-surface $-1 33.702934814461578 -1.7188849722356423 54.067793850973786 0 0.84804810408105047 0.52991925155115449 1 0 0 forward_v I I I I #
loop $-1 $-1 $149 $34 #
coedge $-1 $89 $89 $90 $150 reversed $53 $-1 #
coedge $-1 $90 $90 $89 $150 forward $55 $-1 #
coedge $-1 $91 $91 $56 $92 forward $86 $-1 #
edge $-1 $151 1.1302207260040686e-015 $151 6.2831853071796013 $91 $152 forward 7 unknown #
loop $-1 $-1 $98 $57 #
plane-surface $-1 33.702934814461578 -1.7188849722356423 54.067793850973786 0 0.84804810408105047 0.52991925155115449 1 0 0 forward_v I I I I #
loop $-1 $-1 $153 $37 #
coedge $-1 $96 $96 $97 $154 reversed $58 $-1 #
coedge $-1 $97 $97 $96 $154 forward $60 $-1 #
coedge $-1 $98 $98 $61 $99 forward $93 $-1 #
edge $-1 $155 1.1302207260040686e-015 $155 6.2831853071796013 $98 $156 forward 7 unknown #
face $-1 $157 $158 $15 $-1 $159 reversed single #
loop $-1 $-1 $160 $62 #
plane-surface $-1 -41.323282570879236 0 0 1 0 0 0 0 -1 forward_v I I I I #
coedge $-1 $161 $111 $162 $163 forward $63 $-1 #
coedge $-1 $164 $65 $161 $165 forward $41 $-1 #
coedge $-1 $65 $164 $166 $167 forward $41 $-1 #
coedge $-1 $114 $113 $65 $107 reversed $115 $-1 #
edge $-1 $168 -28.725400588593974 $169 28.725400588593974 $106 $170 forward 7 unknown #
coedge $-1 $67 $66 $171 $172 forward $26 $-1 #
coedge $-1 $173 $174 $66 $110 reversed $158 $-1 #
edge $-1 $117 -41.323282570879236 $175 41.323282570879236 $109 $176 forward 7 unknown #
coedge $-1 $103 $177 $67 $112 reversed $63 $-1 #
edge $-1 $178 -41.323282570879236 $116 41.323282570879236 $111 $179 forward 7 unknown #
coedge $-1 $106 $68 $177 $180 forward $115 $-1 #
coedge $-1 $68 $106 $173 $181 reversed $115 $-1 #
loop $-1 $-1 $113 $157 #
vertex $-1 $69 $182 #
vertex $-1 $69 $183 #
straight-curve $-1 41.323282570879236 0 10.475868768992592 0 1 0 I I #
face $-1 $184 $185 $16 $-1 $186 reversed single #
loop $-1 $-1 $187 $70 #
plane-surface $-1 -41.323282570879236 0 0 1 0 0 0 0 -1 forward_v I I I I #
coedge $-1 $130 $188 $124 $189 forward $71 $-1 #
coedge $-1 $76 $73 $190 $191 reversed $45 $-1 #
coedge $-1 $73 $76 $122 $189 reversed $45 $-1 #
coedge $-1 $192 $193 $73 $126 forward $194 $-1 #
edge $-1 $195 -10.475868768992592 $196 10.475868768992592 $125 $197 forward 7 unknown #
coedge $-1 $75 $74 $187 $198 reversed $29 $-1 #
coedge $-1 $190 $199 $74 $129 forward $185 $-1 #
edge $-1 $200 -21.411641285439618 $133 -18.411641285439618 $128 $201 forward 7 unknown #
coedge $-1 $202 $122 $75 $131 forward $71 $-1 #
edge $-1 $132 18.411641285439618 $203 21.411641285439618 $130 $204 forward 7 unknown #
vertex $-1 $131 $205 #
vertex $-1 $129 $206 #
straight-curve $-1 -38.323282570879236 -19.7791167211446 0 0 0 -1 I I #
face $-1 $-1 $207 $17 $-1 $208 reversed single #
loop $-1 $-1 $209 $78 #
plane-surface $-1 41.323282570879236 0 0 -1 0 0 0 0 1 forward_v I I I I #
coedge $-1 $210 $81 $83 $144 forward $49 $-1 #
coedge $-1 $81 $210 $209 $211 reversed $49 $-1 #
coedge $-1 $212 $84 $81 $141 forward $79 $-1 #
edge $-1 $147 9.2311196508131168 $213 24.471815163648461 $140 $214 forward 7 unknown #
coedge $-1 $215 $216 $82 $143 forward $207 $-1 #
edge $-1 $217 -43.585149062361914 $146 -38.456031128091496 $142 $218 forward 7 unknown #
edge $-1 $147 51.402656137316214 $217 57.450801177187941 $83 $219 forward 7 unknown #
coedge $-1 $84 $212 $215 $220 forward $79 $-1 #
vertex $-1 $143 $221 #
vertex $-1 $85 $222 #
straight-curve $-1 26.082587058043906 34.184688952521832 10.475868768992591 0 -1 0 I I #
coedge $-1 $149 $149 $-1 $223 reversed $88 $-1 #
edge $-1 $224 0 $224 6.2831853071796004 $89 $225 forward 7 unknown #
vertex $-1 $92 $226 #
ellipse-curve $-1 30.43707149028257 27.122886342193155 7.911309801857378 0 0.84804810408105047 0.52991925155115449 1 0 0 1 I I #
coedge $-1 $153 $153 $-1 $227 reversed $95 $-1 #
edge $-1 $228 0 $228 6.2831853071796004 $96 $229 forward 7 unknown #
vertex $-1 $99 $230 #
ellipse-curve $-1 36.968798138640572 27.122886342193155 7.911309801857378 0 0.84804810408105047 0.52991925155115449 1 0 0 1 I I #
face $-1 $-1 $115 $15 $-1 $231 reversed single #
loop $-1 $-1 $173 $100 #
plane-surface $-1 0 28.725400588593974 0 0 -1 0 0 0 -1 forward_v I I I I #
coedge $-1 $232 $171 $174 $233 forward $101 $-1 #
coedge $-1 $177 $103 $104 $165 reversed $63 $-1 #
coedge $-1 $171 $232 $103 $163 reversed $101 $-1 #
edge $-1 $178 -10.475868768992592 $234 10.475868768992592 $162 $235 forward 7 unknown #
coedge $-1 $105 $104 $232 $236 forward $41 $-1 #
edge $-1 $169 -41.323282570879236 $234 41.323282570879236 $161 $237 forward 7 unknown #
coedge $-1 $174 $173 $105 $167 reversed $158 $-1 #
edge $-1 $238 -41.323282570879236 $168 41.323282570879236 $166 $239 forward 7 unknown #
vertex $-1 $107 $240 #
vertex $-1 $180 $241 #
straight-curve $-1 41.323282570879236 0 -10.475868768992592 0 -1 0 I I #
coedge $-1 $160 $162 $108 $172 reversed $101 $-1 #
edge $-1 $175 -28.725400588593974 $178 28.725400588593974 $171 $242 forward 7 unknown #
coedge $-1 $166 $109 $114 $181 forward $158 $-1 #
coedge $-1 $109 $166 $160 $233 reversed $158 $-1 #
vertex $-1 $110 $243 #
straight-curve $-1 0 28.725400588593974 10.475868768992592 -1 0 0 I I #
coedge $-1 $111 $161 $113 $180 reversed $63 $-1 #
vertex $-1 $172 $244 #
straight-curve $-1 0 -28.725400588593974 10.475868768992592 1 0 0 I I #
edge $-1 $116 -10.475868768992592 $169 10.475868768992592 $113 $245 forward 7 unknown #
edge $-1 $117 -10.475868768992592 $168 10.475868768992592 $114 $246 forward 7 unknown #
point $-1 41.323282570879236 -28.725400588593974 10.475868768992592 #
point $-1 41.323282570879236 28.725400588593974 10.475868768992592 #
face $-1 $-1 $194 $16 $-1 $247 reversed single #
loop $-1 $-1 $190 $119 #
plane-surface $-1 0 0 -10.475868768992592 0 0 1 1 0 0 forward_v I I I I #
coedge $-1 $248 $249 $127 $198 forward $120 $-1 #
coedge $-1 $122 $202 $192 $250 forward $71 $-1 #
edge $-1 $196 -16.59927126115933 $132 -7.6529873937099566 $122 $251 forward 7 unknown #
coedge $-1 $252 $128 $123 $191 forward $185 $-1 #
edge $-1 $133 7.6529873937099566 $195 16.59927126115933 $190 $253 forward 7 unknown #
coedge $-1 $254 $125 $188 $250 reversed $194 $-1 #
coedge $-1 $125 $254 $252 $255 reversed $194 $-1 #
loop $-1 $-1 $125 $184 #
vertex $-1 $255 $256 #
vertex $-1 $126 $257 #
straight-curve $-1 -38.323282570879236 -28.725400588593974 0 0 0 1 I I #
edge $-1 $203 -10.475868768992592 $200 10.475868768992592 $187 $258 forward 7 unknown #
coedge $-1 $128 $252 $248 $259 forward $185 $-1 #
vertex $-1 $129 $260 #
straight-curve $-1 -19.911641285439618 -19.7791167211446 -10.475868768992592 1 0 0 I I #
coedge $-1 $188 $130 $249 $261 forward $71 $-1 #
vertex $-1 $261 $262 #
straight-curve $-1 -19.911641285439618 -19.7791167211446 10.475868768992592 -1 0 0 I I #
point $-1 -38.323282570879236 -19.7791167211446 10.475868768992592 #
point $-1 -38.323282570879236 -19.7791167211446 -10.475868768992592 #
loop $-1 $-1 $142 $135 #
plane-surface $-1 0 28.725400588593974 0 0 -1 0 0 0 -1 forward_v I I I I #
coedge $-1 $263 $264 $139 $211 forward $136 $-1 #
coedge $-1 $139 $138 $216 $265 reversed $49 $-1 #
edge $-1 $213 28.021175984739699 $266 34.069321024611412 $209 $267 forward 7 unknown #
coedge $-1 $145 $140 $264 $268 forward $79 $-1 #
vertex $-1 $268 $269 #
straight-curve $-1 16.851467407230789 25.520372095792332 10.475868768992591 1 0 0 I I #
coedge $-1 $270 $142 $145 $220 reversed $207 $-1 #
coedge $-1 $142 $270 $210 $265 forward $207 $-1 #
vertex $-1 $143 $271 #
straight-curve $-1 26.082587058043906 28.725400588593974 48.931899897084087 0 0 1 I I #
straight-curve $-1 26.082587058043906 -1.7188849722356423 54.067793850973786 0 0.52991925155115449 -0.84804810408105047 I I #
edge $-1 $272 -41.323282570879236 $146 -26.082587058043906 $215 $273 forward 7 unknown #
point $-1 26.082587058043906 28.725400588593974 10.475868768992592 #
point $-1 26.082587058043906 25.520372095792329 10.475868768992591 #
edge $-1 $274 1 $274 0 $149 $-1 forward 7 unknown #
vertex $-1 $150 $275 #
ellipse-curve $-1 30.43707149028257 25.350570105755082 6.8038437406686336 0 0.84804810408105047 0.52991925155115449 1 0 0 1 I I #
point $-1 31.43707149028257 27.122886342193151 7.9113098018573744 #
edge $-1 $276 1 $276 0 $153 $-1 forward 7 unknown #
vertex $-1 $154 $277 #
ellipse-curve $-1 36.968798138640572 25.350570105755082 6.8038437406686336 0 0.84804810408105047 0.52991925155115449 1 0 0 1 I I #
point $-1 37.968798138640572 27.122886342193151 7.9113098018573744 #
plane-surface $-1 41.323282570879236 0 0 -1 0 0 0 0 1 forward_v I I I I #
coedge $-1 $162 $160 $164 $236 reversed $101 $-1 #
edge $-1 $175 -10.475868768992592 $238 10.475868768992592 $174 $278 forward 7 unknown #
vertex $-1 $236 $279 #
straight-curve $-1 -41.323282570879236 -28.725400588593974 0 0 0 -1 I I #
edge $-1 $234 -28.725400588593974 $238 28.725400588593974 $232 $280 forward 7 unknown #
straight-curve $-1 0 -28.725400588593974 -10.475868768992592 -1 0 0 I I #
vertex $-1 $167 $281 #
straight-curve $-1 0 28.725400588593974 -10.475868768992592 1 0 0 I I #
point $-1 41.323282570879236 28.725400588593974 -10.475868768992592 #
point $-1 41.323282570879236 -28.725400588593974 -10.475868768992592 #
straight-curve $-1 -41.323282570879236 0 10.475868768992592 0 -1 0 I I #
point $-1 -41.323282570879236 28.725400588593974 10.475868768992592 #
point $-1 -41.323282570879236 -28.725400588593974 10.475868768992592 #
straight-curve $-1 41.323282570879236 -28.725400588593974 0 0 0 -1 I I #
straight-curve $-1 41.323282570879236 28.725400588593974 0 0 0 -1 I I #
plane-surface $-1 0 -28.725400588593974 0 0 1 0 0 0 1 forward_v I I I I #
coedge $-1 $282 $187 $199 $259 reversed $120 $-1 #
coedge $-1 $187 $282 $202 $261 reversed $120 $-1 #
edge $-1 $283 -41.323282570879236 $196 -38.323282570879236 $192 $284 forward 7 unknown #
straight-curve $-1 -38.323282570879236 -12.126129327434644 10.475868768992592 0 1 0 I I #
coedge $-1 $199 $190 $193 $255 forward $185 $-1 #
straight-curve $-1 -38.323282570879236 -12.126129327434644 -10.475868768992592 0 -1 0 I I #
coedge $-1 $193 $192 $282 $285 forward $194 $-1 #
edge $-1 $195 38.323282570879236 $286 41.323282570879236 $193 $287 forward 7 unknown #
point $-1 -38.323282570879236 -28.725400588593974 -10.475868768992592 #
point $-1 -38.323282570879236 -28.725400588593974 10.475868768992592 #
straight-curve $-1 -41.323282570879236 -19.7791167211446 0 0 0 -1 I I #
edge $-1 $286 -28.725400588593974 $200 -19.7791167211446 $248 $288 forward 7 unknown #
point $-1 -41.323282570879236 -19.7791167211446 -10.475868768992592 #
edge $-1 $203 19.7791167211446 $283 28.725400588593974 $249 $289 forward 7 unknown #
point $-1 -41.323282570879236 -19.7791167211446 10.475868768992592 #
coedge $-1 $264 $209 $270 $290 reversed $136 $-1 #
coedge $-1 $209 $263 $212 $268 reversed $136 $-1 #
edge $-1 $266 -24.471815163648461 $217 -9.2311196508131168 $216 $291 forward 7 unknown #
vertex $-1 $211 $292 #
straight-curve $-1 41.323282570879236 10.671411490375881 34.239173936972556 0 0.52991925155115449 -0.84804810408105047 I I #
edge $-1 $213 25.520372095792329 $272 28.725400588593974 $264 $293 forward 7 unknown #
point $-1 41.32328257087925 25.520372095792329 10.475868768992591 #
coedge $-1 $216 $215 $263 $290 forward $207 $-1 #
point $-1 26.082587058043906 28.725400588593974 5.3467508347221724 #
vertex $-1 $268 $294 #
straight-curve $-1 0 28.725400588593974 10.475868768992592 -1 0 0 I I #
vertex $-1 $223 $295 #
point $-1 31.43707149028257 25.350570105755082 6.8038437406686336 #
vertex $-1 $227 $296 #
point $-1 37.968798138640572 25.350570105755082 6.8038437406686336 #
straight-curve $-1 -41.323282570879236 28.725400588593974 0 0 0 -1 I I #
point $-1 -41.323282570879236 -28.725400588593974 -10.475868768992592 #
straight-curve $-1 -41.323282570879236 0 -10.475868768992592 0 1 0 I I #
point $-1 -41.323282570879236 28.725400588593974 -10.475868768992592 #
coedge $-1 $249 $248 $254 $285 reversed $120 $-1 #
vertex $-1 $261 $297 #
straight-curve $-1 0 -28.725400588593974 10.475868768992592 1 0 0 I I #
edge $-1 $283 -10.475868768992592 $286 10.475868768992592 $282 $298 forward 7 unknown #
vertex $-1 $259 $299 #
straight-curve $-1 0 -28.725400588593974 -10.475868768992592 -1 0 0 I I #
straight-curve $-1 -41.323282570879236 0 -10.475868768992592 0 1 0 I I #
straight-curve $-1 -41.323282570879236 0 10.475868768992592 0 -1 0 I I #
edge $-1 $272 -10.475868768992592 $266 -5.3467508347221724 $263 $300 forward 7 unknown #
straight-curve $-1 16.851467407230789 28.72540058859397 5.3467508347221759 -1 0 0 I I #
point $-1 41.32328257087925 28.725400588593974 5.3467508347221724 #
straight-curve $-1 41.323282570879236 0 10.475868768992592 0 1 0 I I #
point $-1 41.323282570879236 28.725400588593974 10.475868768992592 #
point $-1 30.43707149028257 24.502522001674031 6.273924489117479 #
point $-1 36.968798138640572 24.502522001674031 6.273924489117479 #
point $-1 -41.323282570879236 -28.725400588593974 10.475868768992592 #
straight-curve $-1 -41.323282570879236 -28.725400588593974 0 0 0 -1 I I #
point $-1 -41.323282570879236 -28.725400588593974 -10.475868768992592 #
straight-curve $-1 41.323282570879236 28.725400588593974 0 0 0 -1 I I #
End-of-ACIS-data 