500 0 11 0           
7 Unknown 11 ACIS 5.0 NT 24 Fri Mar 26 17:04:33 1999 
-1 9.9999999999999995e-007 1e-010 
body $-1 $11 $-1 $12 #
body $-1 $13 $-1 $14 #
body $-1 $15 $-1 $16 #
body $-1 $17 $-1 $18 #
body $-1 $19 $-1 $20 #
body $-1 $21 $-1 $22 #
body $-1 $23 $-1 $24 #
body $-1 $25 $-1 $26 #
body $-1 $27 $-1 $28 #
body $-1 $29 $-1 $30 #
body $-1 $31 $-1 $32 #
lump $-1 $-1 $33 $0 #
transform $-1 1 0 0 0 1 0 0 0 1 63.954588457899717 43.075416895976545 19.917204086659183 1 rotate no_reflect no_shear #
lump $-1 $-1 $34 $1 #
transform $-1 1 0 0 0 1 0 0 0 1 63.954588457899717 43.075416895976545 19.917204086659183 1 rotate no_reflect no_shear #
lump $-1 $-1 $35 $2 #
transform $-1 1 0 0 0 1 0 0 0 1 63.954588457899717 43.075416895976545 19.917204086659183 1 rotate no_reflect no_shear #
lump $-1 $-1 $36 $3 #
transform $-1 1 0 0 0 1 0 0 0 1 63.954588457899717 43.075416895976545 19.917204086659183 1 rotate no_reflect no_shear #
lump $-1 $-1 $37 $4 #
transform $-1 1 0 0 0 1 0 0 0 1 63.954588457899717 43.075416895976545 19.917204086659183 1 rotate no_reflect no_shear #
lump $-1 $-1 $38 $5 #
transform $-1 1 0 0 0 1 0 0 0 1 63.954588457899717 43.075416895976545 19.917204086659183 1 rotate no_reflect no_shear #
lump $-1 $-1 $39 $6 #
transform $-1 1 0 0 0 1 0 0 0 1 63.954588457899717 43.075416895976545 19.917204086659183 1 rotate no_reflect no_shear #
lump $-1 $-1 $40 $7 #
transform $-1 1 0 0 0 1 0 0 0 1 63.954588457899717 43.075416895976545 19.917204086659183 1 rotate no_reflect no_shear #
lump $-1 $-1 $41 $8 #
transform $-1 1 0 0 0 1 0 0 0 1 63.954588457899717 43.075416895976545 19.917204086659183 1 rotate no_reflect no_shear #
lump $-1 $-1 $42 $9 #
transform $-1 1 0 0 0 1 0 0 0 1 63.954588457899717 43.075416895976545 19.917204086659183 1 rotate no_reflect no_shear #
lump $-1 $-1 $43 $10 #
transform $-1 1 0 0 0 1 0 0 0 1 63.954588457899717 43.075416895976545 19.917204086659183 1 rotate no_reflect no_shear #
shell $-1 $-1 $-1 $44 $-1 $11 #
shell $-1 $-1 $-1 $45 $-1 $13 #
shell $-1 $-1 $-1 $46 $-1 $15 #
shell $-1 $-1 $-1 $47 $-1 $17 #
shell $-1 $-1 $-1 $48 $-1 $19 #
shell $-1 $-1 $-1 $49 $-1 $21 #
shell $-1 $-1 $-1 $50 $-1 $23 #
shell $-1 $-1 $-1 $51 $-1 $25 #
shell $-1 $-1 $-1 $52 $-1 $27 #
shell $-1 $-1 $-1 $53 $-1 $29 #
shell $-1 $-1 $-1 $54 $-1 $31 #
face $-1 $55 $56 $33 $-1 $57 forward single #
face $-1 $58 $59 $34 $-1 $60 forward single #
face $-1 $61 $62 $35 $-1 $63 forward single #
face $-1 $64 $65 $36 $-1 $66 reversed single #
face $-1 $67 $68 $37 $-1 $69 forward single #
face $-1 $70 $71 $38 $-1 $72 forward single #
face $-1 $73 $74 $39 $-1 $75 forward single #
face $-1 $76 $77 $40 $-1 $78 reversed single #
face $-1 $79 $80 $41 $-1 $81 forward single #
face $-1 $82 $83 $42 $-1 $84 reversed single #
face $-1 $85 $86 $43 $-1 $87 forward single #
face $-1 $88 $89 $33 $-1 $90 reversed single #
loop $-1 $-1 $91 $44 #
plane-surface $-1 0 0 19.917204086659183 0 0 1 1 0 0 forward_v I I I I #
face $-1 $92 $93 $34 $-1 $94 reversed single #
loop $-1 $-1 $95 $45 #
plane-surface $-1 -63.954588457899717 0 0 1 0 0 0 0 -1 forward_v I I I I #
face $-1 $96 $97 $35 $-1 $98 reversed single #
loop $-1 $-1 $99 $46 #
plane-surface $-1 63.954588457899717 0 0 -1 0 0 0 0 1 forward_v I I I I #
face $-1 $100 $101 $36 $-1 $102 reversed single #
loop $-1 $-1 $103 $47 #
plane-surface $-1 -44.37476176179382 80.484302050082363 151.97818708350474 1 0 0 0 -0.74314483375859142 -0.66913059716165679 forward_v I I I I #
face $-1 $104 $105 $37 $-1 $106 forward single #
loop $-1 $107 $108 $48 #
cone-surface $-1 -41.488418268701793 34.803020690125578 10.807884792196193 0 -0.74314483375859142 -0.66913059716165679 0.5 0 0 1 I I 0 1 0.5 forward I I I I #
face $-1 $109 $110 $38 $-1 $111 forward single #
loop $-1 $112 $113 $49 #
cone-surface $-1 -37.158903029063751 34.803020690125578 10.807884792196193 0 -0.74314483375859142 -0.66913059716165679 0.5 0 0 1 I I 0 1 0.5 forward I I I I #
face $-1 $114 $115 $39 $-1 $116 forward single #
loop $-1 $117 $118 $50 #
cone-surface $-1 -32.829387789425709 34.803020690125578 10.807884792196193 0 -0.74314483375859142 -0.66913059716165679 0.5 0 0 1 I I 0 1 0.5 forward I I I I #
face $-1 $119 $120 $40 $-1 $121 reversed single #
loop $-1 $-1 $122 $51 #
plane-surface $-1 -6.7475188347137554 -145.22822869377273 87.976143008275159 -1 0 0 0 -0.79863551827123203 0.60181501223851219 forward_v I I I I #
face $-1 $123 $124 $41 $-1 $125 forward single #
loop $-1 $126 $127 $52 #
cone-surface $-1 -11.893133165904032 -37.064434485652725 13.460462588370234 0 0.79863551827123203 -0.60181501223851219 2.5 0 0 1 I I 0 1 2.5 forward I I I I #
face $-1 $128 $129 $42 $-1 $130 reversed single #
loop $-1 $-1 $131 $53 #
plane-surface $-1 17.038747497094338 -145.22822869377273 87.976143008275159 -1 0 0 0 -0.79863551827123203 0.60181501223851219 forward_v I I I I #
face $-1 $132 $133 $43 $-1 $134 forward single #
loop $-1 $135 $136 $54 #
cone-surface $-1 11.893133165904061 -37.064434485652725 13.460462588370234 0 0.79863551827123203 -0.60181501223851219 2.5 0 0 1 I I 0 1 2.5 forward I I I I #
face $-1 $137 $138 $33 $-1 $139 reversed single #
loop $-1 $-1 $140 $55 #
plane-surface $-1 0 0 -19.917204086659183 0 0 1 1 0 0 forward_v I I I I #
coedge $-1 $141 $142 $143 $144 forward $56 $-1 #
face $-1 $145 $146 $34 $-1 $147 reversed single #
loop $-1 $-1 $148 $58 #
plane-surface $-1 0 0 -19.917204086659183 0 0 1 1 0 0 forward_v I I I I #
coedge $-1 $149 $150 $151 $152 forward $59 $-1 #
face $-1 $153 $154 $35 $-1 $155 reversed single #
loop $-1 $-1 $156 $61 #
plane-surface $-1 0 0 -19.917204086659183 0 0 1 1 0 0 forward_v I I I I #
coedge $-1 $157 $158 $159 $160 forward $62 $-1 #
face $-1 $161 $162 $36 $-1 $163 reversed single #
loop $-1 $-1 $164 $64 #
plane-surface $-1 -37.158903029063751 -14.570741965207674 66.390243151379849 0 0.74314483375859142 0.66913059716165679 1 0 0 forward_v I I I I #
coedge $-1 $165 $166 $167 $168 reversed $65 $-1 #
face $-1 $-1 $169 $37 $-1 $170 forward single #
loop $-1 $171 $172 $67 #
cone-surface $-1 -41.488418268701793 34.245662064806638 10.30603684432495 0 -0.74314483375859142 -0.66913059716165679 0.25 0 0 1 I I -0.70710678118654746 0.70710678118654746 0.25 forward I I I I #
loop $-1 $-1 $173 $48 #
coedge $-1 $108 $108 $174 $175 reversed $68 $-1 #
face $-1 $-1 $176 $38 $-1 $177 forward single #
loop $-1 $178 $179 $70 #
cone-surface $-1 -37.158903029063751 34.245662064806638 10.30603684432495 0 -0.74314483375859142 -0.66913059716165679 0.25 0 0 1 I I -0.70710678118654746 0.70710678118654746 0.25 forward I I I I #
loop $-1 $-1 $180 $49 #
coedge $-1 $113 $113 $181 $182 reversed $71 $-1 #
face $-1 $-1 $183 $39 $-1 $184 forward single #
loop $-1 $185 $186 $73 #
cone-surface $-1 -32.829387789425709 34.245662064806638 10.30603684432495 0 -0.74314483375859142 -0.66913059716165679 0.25 0 0 1 I I -0.70710678118654746 0.70710678118654746 0.25 forward I I I I #
loop $-1 $-1 $187 $50 #
coedge $-1 $118 $118 $188 $189 reversed $74 $-1 #
face $-1 $190 $191 $40 $-1 $192 reversed single #
loop $-1 $-1 $193 $76 #
plane-surface $-1 -11.893133165904032 -43.075416895976559 10.998480137275308 0 -0.79863551827123203 0.60181501223851219 1 0 0 forward_v I I I I #
coedge $-1 $194 $195 $196 $197 reversed $77 $-1 #
face $-1 $-1 $198 $41 $-1 $199 forward single #
loop $-1 $200 $201 $79 #
cone-surface $-1 -11.893133165904032 -33.415527858851789 10.710814299475075 0 0.79863551827123203 -0.60181501223851219 1.25 0 0 1 I I -0.70710678118654746 0.70710678118654746 1.25 forward I I I I #
loop $-1 $-1 $202 $52 #
coedge $-1 $127 $127 $203 $204 reversed $80 $-1 #
face $-1 $205 $206 $42 $-1 $207 reversed single #
loop $-1 $-1 $208 $82 #
plane-surface $-1 11.893133165904061 -43.075416895976559 10.998480137275308 0 -0.79863551827123203 0.60181501223851219 1 0 0 forward_v I I I I #
coedge $-1 $209 $210 $211 $212 reversed $83 $-1 #
face $-1 $-1 $213 $43 $-1 $214 forward single #
loop $-1 $215 $216 $85 #
cone-surface $-1 11.893133165904061 -33.415527858851789 10.710814299475075 0 0.79863551827123203 -0.60181501223851219 1.25 0 0 1 I I -0.70710678118654746 0.70710678118654746 1.25 forward I I I I #
loop $-1 $-1 $217 $54 #
coedge $-1 $136 $136 $218 $219 reversed $86 $-1 #
face $-1 $220 $221 $33 $-1 $222 reversed single #
loop $-1 $-1 $223 $88 #
plane-surface $-1 0 -43.075416895976545 0 0 1 0 0 0 1 forward_v I I I I #
coedge $-1 $224 $225 $226 $227 forward $89 $-1 #
coedge $-1 $228 $91 $229 $230 forward $56 $-1 #
coedge $-1 $91 $228 $231 $232 forward $56 $-1 #
coedge $-1 $233 $234 $91 $144 reversed $235 $-1 #
edge $-1 $236 -43.075416895976545 $237 43.075416895976545 $143 $238 forward 7 unknown #
face $-1 $239 $240 $34 $-1 $241 reversed single #
loop $-1 $-1 $242 $92 #
plane-surface $-1 -73.744501805952666 -10.315211567024676 0 0 1 0 0 0 1 forward_v I I I I #
coedge $-1 $243 $244 $150 $245 forward $93 $-1 #
coedge $-1 $246 $95 $247 $248 reversed $59 $-1 #
coedge $-1 $95 $246 $148 $245 reversed $59 $-1 #
coedge $-1 $249 $250 $95 $152 reversed $251 $-1 #
edge $-1 $252 -19.917204086659183 $253 19.917204086659183 $151 $254 forward 7 unknown #
face $-1 $255 $256 $35 $-1 $257 reversed single #
loop $-1 $-1 $159 $96 #
plane-surface $-1 73.744501805952666 -10.315211567024676 0 0 1 0 0 0 1 forward_v I I I I #
coedge $-1 $258 $259 $158 $260 forward $97 $-1 #
coedge $-1 $261 $99 $262 $263 reversed $62 $-1 #
coedge $-1 $99 $261 $156 $260 reversed $62 $-1 #
coedge $-1 $264 $265 $99 $160 reversed $154 $-1 #
edge $-1 $266 -19.917204086659183 $267 19.917204086659183 $159 $268 forward 7 unknown #
face $-1 $269 $270 $36 $-1 $271 reversed single #
loop $-1 $-1 $272 $100 #
plane-surface $-1 -29.943044296333685 80.484302050082363 151.97818708350474 -1 0 0 0 0.74314483375859142 0.66913059716165679 forward_v I I I I #
coedge $-1 $273 $274 $275 $276 reversed $101 $-1 #
coedge $-1 $166 $103 $277 $278 reversed $65 $-1 #
coedge $-1 $103 $165 $273 $279 reversed $65 $-1 #
coedge $-1 $275 $280 $103 $168 forward $281 $-1 #
edge $-1 $282 -2.8332658709353638 $283 12.968381707007978 $167 $284 forward 7 unknown #
loop $-1 $-1 $174 $104 #
plane-surface $-1 -37.158903029063751 -14.570741965207674 66.390243151379849 0 0.74314483375859142 0.66913059716165679 1 0 0 forward_v I I I I #
loop $-1 $-1 $285 $67 #
coedge $-1 $172 $172 $173 $286 reversed $105 $-1 #
coedge $-1 $173 $173 $172 $286 forward $107 $-1 #
coedge $-1 $174 $174 $108 $175 forward $169 $-1 #
edge $-1 $287 3.1767505061768946e-015 $287 6.283185307179604 $174 $288 forward 7 unknown #
loop $-1 $-1 $181 $109 #
plane-surface $-1 -37.158903029063751 -14.570741965207674 66.390243151379849 0 0.74314483375859142 0.66913059716165679 1 0 0 forward_v I I I I #
loop $-1 $-1 $289 $70 #
coedge $-1 $179 $179 $180 $290 reversed $110 $-1 #
coedge $-1 $180 $180 $179 $290 forward $112 $-1 #
coedge $-1 $181 $181 $113 $182 forward $176 $-1 #
edge $-1 $291 3.1767505061768946e-015 $291 6.283185307179604 $181 $292 forward 7 unknown #
loop $-1 $-1 $188 $114 #
plane-surface $-1 -37.158903029063751 -14.570741965207674 66.390243151379849 0 0.74314483375859142 0.66913059716165679 1 0 0 forward_v I I I I #
loop $-1 $-1 $293 $73 #
coedge $-1 $186 $186 $187 $294 reversed $115 $-1 #
coedge $-1 $187 $187 $186 $294 forward $117 $-1 #
coedge $-1 $188 $188 $118 $189 forward $183 $-1 #
edge $-1 $295 3.1767505061768946e-015 $295 6.283185307179604 $188 $296 forward 7 unknown #
face $-1 $297 $298 $40 $-1 $299 forward single #
loop $-1 $-1 $300 $119 #
plane-surface $-1 -17.03874749709431 -145.22822869377273 87.976143008275159 1 0 0 0 0.79863551827123203 -0.60181501223851219 forward_v I I I I #
coedge $-1 $301 $302 $303 $304 reversed $120 $-1 #
coedge $-1 $195 $122 $305 $306 reversed $77 $-1 #
coedge $-1 $122 $194 $301 $307 reversed $77 $-1 #
coedge $-1 $303 $308 $122 $197 forward $298 $-1 #
edge $-1 $309 29.538697450909822 $310 36.259437813633681 $196 $311 forward 7 unknown #
loop $-1 $-1 $203 $123 #
plane-surface $-1 -11.893133165904032 -43.075416895976559 10.998480137275308 0 -0.79863551827123203 0.60181501223851219 1 0 0 forward_v I I I I #
loop $-1 $-1 $312 $79 #
coedge $-1 $201 $201 $202 $313 reversed $124 $-1 #
coedge $-1 $202 $202 $201 $313 forward $126 $-1 #
coedge $-1 $203 $203 $127 $204 forward $198 $-1 #
edge $-1 $314 0 $314 6.2831853071796004 $203 $315 forward 7 unknown #
face $-1 $316 $317 $42 $-1 $318 reversed single #
loop $-1 $-1 $319 $128 #
plane-surface $-1 6.7475188347137838 -145.22822869377273 87.976143008275159 1 0 0 0 0.79863551827123203 -0.60181501223851219 forward_v I I I I #
coedge $-1 $320 $321 $322 $323 reversed $129 $-1 #
coedge $-1 $210 $131 $324 $325 reversed $83 $-1 #
coedge $-1 $131 $209 $320 $326 reversed $83 $-1 #
coedge $-1 $322 $327 $131 $212 forward $328 $-1 #
edge $-1 $329 29.538697450909822 $330 36.259437813633681 $211 $331 forward 7 unknown #
loop $-1 $-1 $218 $132 #
plane-surface $-1 11.893133165904061 -43.075416895976559 10.998480137275308 0 -0.79863551827123203 0.60181501223851219 1 0 0 forward_v I I I I #
loop $-1 $-1 $332 $85 #
coedge $-1 $216 $216 $217 $333 reversed $133 $-1 #
coedge $-1 $217 $217 $216 $333 forward $135 $-1 #
coedge $-1 $218 $218 $136 $219 forward $213 $-1 #
edge $-1 $334 0 $334 6.2831853071796004 $218 $335 forward 7 unknown #
face $-1 $336 $337 $33 $-1 $338 reversed single #
loop $-1 $-1 $339 $137 #
plane-surface $-1 -63.954588457899717 0 0 1 0 0 0 0 -1 forward_v I I I I #
coedge $-1 $340 $231 $341 $342 forward $138 $-1 #
coedge $-1 $343 $140 $340 $344 forward $89 $-1 #
coedge $-1 $140 $343 $345 $346 forward $89 $-1 #
coedge $-1 $234 $233 $140 $227 reversed $235 $-1 #
edge $-1 $347 -43.075416895976545 $348 43.075416895976545 $226 $349 forward 7 unknown #
coedge $-1 $142 $141 $350 $351 forward $56 $-1 #
coedge $-1 $352 $353 $141 $230 reversed $337 $-1 #
edge $-1 $237 -63.954588457899717 $354 63.954588457899717 $229 $355 forward 7 unknown #
coedge $-1 $223 $356 $142 $232 reversed $138 $-1 #
edge $-1 $357 -63.954588457899717 $236 63.954588457899717 $231 $358 forward 7 unknown #
coedge $-1 $226 $143 $356 $359 forward $235 $-1 #
coedge $-1 $143 $226 $352 $360 reversed $235 $-1 #
loop $-1 $-1 $233 $336 #
vertex $-1 $144 $361 #
vertex $-1 $144 $362 #
straight-curve $-1 63.954588457899717 0 19.917204086659183 0 1 0 I I #
face $-1 $363 $251 $34 $-1 $364 reversed single #
loop $-1 $-1 $365 $145 #
plane-surface $-1 -83.534415154005615 -6.7781101448414276 0 1 0 0 0 0 -1 forward_v I I I I #
coedge $-1 $366 $367 $368 $369 forward $146 $-1 #
coedge $-1 $370 $148 $366 $371 forward $93 $-1 #
coedge $-1 $148 $370 $249 $372 forward $93 $-1 #
edge $-1 $252 3.2410087226581794 $373 10.315211567024676 $148 $374 forward 7 unknown #
coedge $-1 $150 $149 $375 $376 forward $59 $-1 #
coedge $-1 $377 $378 $149 $248 forward $379 $-1 #
edge $-1 $380 -10.315211567024676 $253 -3.2410087226581794 $247 $381 forward 7 unknown #
coedge $-1 $382 $151 $244 $372 reversed $251 $-1 #
coedge $-1 $151 $382 $377 $383 reversed $251 $-1 #
loop $-1 $-1 $151 $239 #
vertex $-1 $245 $384 #
vertex $-1 $383 $385 #
straight-curve $-1 -63.954588457899717 -3.2410087226581794 0 0 0 1 I I #
face $-1 $386 $387 $35 $-1 $388 reversed single #
loop $-1 $-1 $389 $153 #
plane-surface $-1 73.744501805952666 -3.2410087226581794 0 0 -1 0 0 0 -1 forward_v I I I I #
coedge $-1 $390 $156 $391 $392 forward $97 $-1 #
coedge $-1 $156 $390 $264 $393 forward $97 $-1 #
edge $-1 $266 -10.315211567024676 $394 -3.2410087226581794 $156 $395 forward 7 unknown #
coedge $-1 $158 $157 $396 $397 forward $62 $-1 #
coedge $-1 $398 $399 $157 $263 forward $400 $-1 #
edge $-1 $401 3.2410087226581794 $267 10.315211567024676 $262 $402 forward 7 unknown #
coedge $-1 $403 $159 $259 $393 reversed $154 $-1 #
coedge $-1 $159 $403 $398 $404 reversed $154 $-1 #
vertex $-1 $260 $405 #
vertex $-1 $404 $406 #
straight-curve $-1 63.954588457899717 -10.315211567024676 0 0 0 1 I I #
face $-1 $-1 $281 $36 $-1 $407 forward single #
loop $-1 $-1 $408 $161 #
plane-surface $-1 0 43.075416895976545 0 0 -1 0 0 0 -1 forward_v I I I I #
coedge $-1 $409 $410 $411 $412 reversed $162 $-1 #
coedge $-1 $413 $164 $166 $279 forward $101 $-1 #
coedge $-1 $164 $413 $409 $414 forward $101 $-1 #
coedge $-1 $411 $167 $164 $276 forward $281 $-1 #
edge $-1 $283 -25.795310247261945 $415 -11.36359278180181 $275 $416 forward 7 unknown #
coedge $-1 $417 $418 $165 $278 forward $270 $-1 #
edge $-1 $419 -73.621397446857543 $282 -56.071889455093185 $277 $420 forward 7 unknown #
edge $-1 $283 62.535641712901018 $419 86.15083379195309 $166 $421 forward 7 unknown #
coedge $-1 $167 $411 $417 $422 forward $281 $-1 #
loop $-1 $-1 $411 $269 #
vertex $-1 $278 $423 #
vertex $-1 $168 $424 #
straight-curve $-1 -44.37476176179382 40.242151025041181 19.917204086659183 0 -1 0 I I #
coedge $-1 $285 $285 $-1 $425 reversed $171 $-1 #
edge $-1 $426 0 $426 6.2831853071796004 $172 $427 forward 7 unknown #
vertex $-1 $175 $428 #
ellipse-curve $-1 -41.488418268701793 35.17459310700486 11.142450090777011 0 0.74314483375859142 0.66913059716165679 0.5 0 0 1 I I #
coedge $-1 $289 $289 $-1 $429 reversed $178 $-1 #
edge $-1 $430 0 $430 6.2831853071796004 $179 $431 forward 7 unknown #
vertex $-1 $182 $432 #
ellipse-curve $-1 -37.158903029063751 35.17459310700486 11.142450090777011 0 0.74314483375859142 0.66913059716165679 0.5 0 0 1 I I #
coedge $-1 $293 $293 $-1 $433 reversed $185 $-1 #
edge $-1 $434 0 $434 6.2831853071796004 $186 $435 forward 7 unknown #
vertex $-1 $189 $436 #
ellipse-curve $-1 -32.829387789425709 35.17459310700486 11.142450090777011 0 0.74314483375859142 0.66913059716165679 0.5 0 0 1 I I #
face $-1 $-1 $437 $40 $-1 $438 reversed single #
loop $-1 $-1 $196 $190 #
plane-surface $-1 0 0 19.917204086659183 0 0 1 1 0 0 forward_v I I I I #
coedge $-1 $439 $440 $441 $442 reversed $191 $-1 #
coedge $-1 $443 $193 $195 $307 forward $120 $-1 #
coedge $-1 $193 $443 $439 $444 forward $120 $-1 #
coedge $-1 $441 $196 $193 $304 forward $298 $-1 #
edge $-1 $310 0.80095225176173912 $445 11.092180914142293 $303 $446 forward 7 unknown #
coedge $-1 $447 $448 $194 $306 forward $437 $-1 #
edge $-1 $449 -32.98959136686225 $309 -24.070867417478397 $305 $450 forward 7 unknown #
edge $-1 $310 -11.167452167278771 $449 -2.4157584020108747e-014 $195 $451 forward 7 unknown #
coedge $-1 $196 $441 $447 $452 forward $298 $-1 #
vertex $-1 $197 $453 #
vertex $-1 $197 $454 #
straight-curve $-1 -6.7475188347137554 -72.614114346886367 19.917204086659183 0 1 0 I I #
coedge $-1 $312 $312 $-1 $455 reversed $200 $-1 #
edge $-1 $456 0 $456 6.2831853071796004 $201 $457 forward 7 unknown #
vertex $-1 $204 $458 #
ellipse-curve $-1 -11.893133165904032 -39.715046714614616 15.457842111967253 0 -0.79863551827123203 0.60181501223851219 2.5 0 0 1 I I #
face $-1 $-1 $328 $42 $-1 $459 forward single #
loop $-1 $-1 $460 $205 #
plane-surface $-1 0 -43.075416895976545 0 0 1 0 0 0 1 forward_v I I I I #
coedge $-1 $461 $462 $463 $464 reversed $206 $-1 #
coedge $-1 $465 $208 $210 $326 forward $129 $-1 #
coedge $-1 $208 $465 $461 $466 forward $129 $-1 #
coedge $-1 $463 $211 $208 $323 forward $328 $-1 #
edge $-1 $330 -11.092180914142308 $467 -0.80095225176175333 $322 $468 forward 7 unknown #
coedge $-1 $469 $470 $209 $325 forward $317 $-1 #
edge $-1 $471 -32.98959136686225 $329 -24.070867417478397 $324 $472 forward 7 unknown #
edge $-1 $330 -11.167452167278771 $471 -2.4157584020108747e-014 $210 $473 forward 7 unknown #
coedge $-1 $211 $463 $469 $474 forward $328 $-1 #
loop $-1 $-1 $463 $316 #
vertex $-1 $325 $475 #
vertex $-1 $212 $476 #
straight-curve $-1 17.038747497094338 -72.614114346886367 19.917204086659183 0 1 0 I I #
coedge $-1 $332 $332 $-1 $477 reversed $215 $-1 #
edge $-1 $478 0 $478 6.2831853071796004 $216 $479 forward 7 unknown #
vertex $-1 $219 $480 #
ellipse-curve $-1 11.893133165904061 -39.715046714614616 15.457842111967253 0 -0.79863551827123203 0.60181501223851219 2.5 0 0 1 I I #
face $-1 $-1 $235 $33 $-1 $481 reversed single #
loop $-1 $-1 $352 $220 #
plane-surface $-1 0 43.075416895976545 0 0 -1 0 0 0 -1 forward_v I I I I #
coedge $-1 $482 $350 $353 $483 forward $221 $-1 #
coedge $-1 $356 $223 $224 $344 reversed $138 $-1 #
coedge $-1 $350 $482 $223 $342 reversed $221 $-1 #
edge $-1 $357 -19.917204086659183 $484 19.917204086659183 $341 $485 forward 7 unknown #
coedge $-1 $225 $224 $482 $486 forward $89 $-1 #
edge $-1 $348 -63.954588457899717 $484 63.954588457899717 $340 $487 forward 7 unknown #
coedge $-1 $353 $352 $225 $346 reversed $337 $-1 #
edge $-1 $488 -63.954588457899717 $347 63.954588457899717 $345 $489 forward 7 unknown #
vertex $-1 $227 $490 #
vertex $-1 $359 $491 #
straight-curve $-1 63.954588457899717 0 -19.917204086659183 0 -1 0 I I #
coedge $-1 $339 $341 $228 $351 reversed $221 $-1 #
edge $-1 $354 -43.075416895976545 $357 43.075416895976545 $350 $492 forward 7 unknown #
coedge $-1 $345 $229 $234 $360 forward $337 $-1 #
coedge $-1 $229 $345 $339 $483 reversed $337 $-1 #
vertex $-1 $230 $493 #
straight-curve $-1 0 43.075416895976545 19.917204086659183 -1 0 0 I I #
coedge $-1 $231 $340 $233 $359 reversed $138 $-1 #
vertex $-1 $351 $494 #
straight-curve $-1 0 -43.075416895976545 19.917204086659183 1 0 0 I I #
edge $-1 $236 -19.917204086659183 $348 19.917204086659183 $233 $495 forward 7 unknown #
edge $-1 $237 -19.917204086659183 $347 19.917204086659183 $234 $496 forward 7 unknown #
point $-1 63.954588457899717 -43.075416895976545 19.917204086659183 #
point $-1 63.954588457899717 43.075416895976545 19.917204086659183 #
face $-1 $-1 $379 $34 $-1 $497 forward single #
plane-surface $-1 -73.744501805952666 -3.2410087226581794 0 0 -1 0 0 0 -1 forward_v I I I I #
coedge $-1 $498 $499 $382 $500 forward $240 $-1 #
coedge $-1 $375 $242 $243 $371 reversed $146 $-1 #
coedge $-1 $242 $375 $378 $501 reversed $146 $-1 #
coedge $-1 $499 $498 $242 $369 reversed $240 $-1 #
edge $-1 $502 -19.917204086659183 $503 19.917204086659183 $368 $504 forward 7 unknown #
coedge $-1 $244 $243 $498 $505 forward $93 $-1 #
edge $-1 $373 -9.7899133480529485 $503 9.7899133480529485 $366 $506 forward 7 unknown #
edge $-1 $507 -9.7899133480529485 $252 9.7899133480529485 $249 $508 forward 7 unknown #
vertex $-1 $371 $509 #
straight-curve $-1 -63.954588457899717 0 -19.917204086659183 0 -1 0 I I #
coedge $-1 $367 $366 $246 $376 reversed $146 $-1 #
edge $-1 $380 -19.917204086659183 $373 19.917204086659183 $375 $510 forward 7 unknown #
coedge $-1 $511 $247 $250 $383 forward $379 $-1 #
coedge $-1 $247 $511 $367 $501 forward $379 $-1 #
loop $-1 $-1 $247 $363 #
vertex $-1 $248 $512 #
straight-curve $-1 -63.954588457899717 0 19.917204086659183 0 1 0 I I #
coedge $-1 $250 $249 $365 $500 reversed $251 $-1 #
edge $-1 $253 -9.7899133480529485 $513 9.7899133480529485 $250 $514 forward 7 unknown #
point $-1 -63.954588457899717 -3.2410087226581794 -19.917204086659183 #
point $-1 -63.954588457899717 -3.2410087226581794 19.917204086659183 #
face $-1 $-1 $400 $35 $-1 $515 forward single #
loop $-1 $-1 $516 $255 #
plane-surface $-1 83.534415154005615 -6.7781101448414276 0 -1 0 0 0 0 1 forward_v I I I I #
coedge $-1 $391 $517 $518 $519 forward $256 $-1 #
coedge $-1 $259 $258 $520 $521 forward $97 $-1 #
coedge $-1 $396 $389 $258 $392 reversed $256 $-1 #
edge $-1 $394 -9.7899133480529485 $522 9.7899133480529485 $391 $523 forward 7 unknown #
edge $-1 $524 -9.7899133480529485 $266 9.7899133480529485 $264 $525 forward 7 unknown #
vertex $-1 $392 $526 #
straight-curve $-1 63.954588457899717 0 -19.917204086659183 0 1 0 I I #
coedge $-1 $517 $391 $261 $397 reversed $256 $-1 #
edge $-1 $401 -19.917204086659183 $394 19.917204086659183 $396 $527 forward 7 unknown #
coedge $-1 $528 $262 $265 $404 forward $400 $-1 #
coedge $-1 $262 $528 $517 $529 forward $400 $-1 #
loop $-1 $-1 $262 $386 #
vertex $-1 $263 $530 #
straight-curve $-1 63.954588457899717 0 19.917204086659183 0 -1 0 I I #
coedge $-1 $265 $264 $516 $531 reversed $154 $-1 #
edge $-1 $267 -9.7899133480529485 $532 9.7899133480529485 $265 $533 forward 7 unknown #
point $-1 63.954588457899717 -10.315211567024676 -19.917204086659183 #
point $-1 63.954588457899717 -10.315211567024676 19.917204086659183 #
plane-surface $-1 0 0 19.917204086659183 0 0 1 1 0 0 forward_v I I I I #
coedge $-1 $418 $417 $410 $534 forward $270 $-1 #
coedge $-1 $410 $272 $274 $414 reversed $162 $-1 #
coedge $-1 $272 $409 $408 $534 reversed $162 $-1 #
coedge $-1 $280 $275 $272 $412 forward $281 $-1 #
edge $-1 $415 -12.968381707007978 $535 2.8332658709353638 $411 $536 forward 7 unknown #
coedge $-1 $274 $273 $418 $537 reversed $101 $-1 #
edge $-1 $538 -86.15083379195309 $415 -62.535641712901018 $409 $539 forward 7 unknown #
vertex $-1 $276 $540 #
straight-curve $-1 -18.579451514531875 27.273769318033203 19.917204086659179 1 0 0 I I #
coedge $-1 $408 $277 $280 $422 reversed $270 $-1 #
coedge $-1 $277 $408 $413 $537 forward $270 $-1 #
vertex $-1 $278 $541 #
straight-curve $-1 -44.37476176179382 43.075416895976545 75.989093541752368 0 0 1 I I #
straight-curve $-1 -44.37476176179382 -14.570741965207674 66.390243151379849 0 0.66913059716165679 -0.74314483375859142 I I #
edge $-1 $535 29.943044296333685 $282 44.37476176179382 $417 $542 forward 7 unknown #
point $-1 -44.37476176179382 43.075416895976545 19.917204086659183 #
point $-1 -44.37476176179382 27.273769318033203 19.917204086659183 #
edge $-1 $543 1 $543 0 $285 $-1 forward 7 unknown #
vertex $-1 $286 $544 #
ellipse-curve $-1 -41.488418268701793 34.431448273246282 10.473319493615364 0 0.74314483375859142 0.66913059716165679 0.5 0 0 1 I I #
point $-1 -40.988418268701793 35.174593107004874 11.142450090777022 #
edge $-1 $545 1 $545 0 $289 $-1 forward 7 unknown #
vertex $-1 $290 $546 #
ellipse-curve $-1 -37.158903029063751 34.431448273246282 10.473319493615364 0 0.74314483375859142 0.66913059716165679 0.5 0 0 1 I I #
point $-1 -36.658903029063751 35.174593107004874 11.142450090777022 #
edge $-1 $547 1 $547 0 $293 $-1 forward 7 unknown #
vertex $-1 $294 $548 #
ellipse-curve $-1 -32.829387789425709 34.431448273246282 10.473319493615364 0 0.74314483375859142 0.66913059716165679 0.5 0 0 1 I I #
point $-1 -32.329387789425709 35.174593107004874 11.142450090777022 #
loop $-1 $-1 $305 $297 #
plane-surface $-1 0 -43.075416895976545 0 0 1 0 0 0 1 forward_v I I I I #
coedge $-1 $440 $300 $302 $444 reversed $191 $-1 #
coedge $-1 $300 $439 $549 $550 reversed $191 $-1 #
coedge $-1 $308 $303 $300 $442 forward $298 $-1 #
edge $-1 $445 -36.259437813633681 $551 -29.538697450909822 $441 $552 forward 7 unknown #
coedge $-1 $302 $301 $448 $553 reversed $120 $-1 #
edge $-1 $554 2.4157584020108747e-014 $445 11.167452167278771 $439 $555 forward 7 unknown #
vertex $-1 $304 $556 #
straight-curve $-1 -5.9465665829520162 -36.354676533252686 19.917204086659183 -1 0 0 I I #
coedge $-1 $549 $305 $308 $452 reversed $437 $-1 #
coedge $-1 $305 $549 $443 $553 forward $437 $-1 #
vertex $-1 $306 $557 #
straight-curve $-1 -6.7475188347137554 -43.075416895976545 43.988071504137579 0 0 1 I I #
straight-curve $-1 -6.7475188347137554 -43.075416895976559 10.998480137275308 0 -0.60181501223851219 -0.79863551827123203 I I #
edge $-1 $551 -17.03874749709431 $309 -6.7475188347137554 $447 $558 forward 7 unknown #
point $-1 -6.7475188347137554 -43.075416895976545 19.917204086659183 #
point $-1 -6.7475188347137554 -36.354676533252686 19.917204086659183 #
edge $-1 $559 1 $559 0 $312 $-1 forward 7 unknown #
vertex $-1 $313 $560 #
ellipse-curve $-1 -11.893133165904032 -34.413822256690828 11.463083064773215 0 -0.79863551827123203 0.60181501223851219 2.5 0 0 1 I I #
point $-1 -9.3931331659040325 -39.715046714614616 15.457842111967253 #
plane-surface $-1 0 0 19.917204086659183 0 0 1 1 0 0 forward_v I I I I #
coedge $-1 $470 $469 $462 $561 forward $317 $-1 #
coedge $-1 $462 $319 $321 $466 reversed $206 $-1 #
coedge $-1 $319 $461 $460 $561 reversed $206 $-1 #
coedge $-1 $327 $322 $319 $464 forward $328 $-1 #
edge $-1 $467 -36.259437813633681 $562 -29.538697450909822 $463 $563 forward 7 unknown #
coedge $-1 $321 $320 $470 $564 reversed $129 $-1 #
edge $-1 $565 2.4157584020108747e-014 $467 11.167452167278771 $461 $566 forward 7 unknown #
vertex $-1 $323 $567 #
straight-curve $-1 5.9465665829520304 -36.354676533252686 19.917204086659183 -1 0 0 I I #
coedge $-1 $460 $324 $327 $474 reversed $317 $-1 #
coedge $-1 $324 $460 $465 $564 forward $317 $-1 #
vertex $-1 $325 $568 #
straight-curve $-1 17.038747497094338 -43.075416895976545 43.988071504137579 0 0 1 I I #
straight-curve $-1 17.038747497094338 -43.075416895976559 10.998480137275308 0 -0.60181501223851219 -0.79863551827123203 I I #
edge $-1 $562 6.7475188347137838 $329 17.038747497094338 $469 $569 forward 7 unknown #
point $-1 17.038747497094338 -43.075416895976545 19.917204086659183 #
point $-1 17.038747497094338 -36.354676533252686 19.917204086659183 #
edge $-1 $570 1 $570 0 $332 $-1 forward 7 unknown #
vertex $-1 $333 $571 #
ellipse-curve $-1 11.893133165904061 -34.413822256690828 11.463083064773215 0 -0.79863551827123203 0.60181501223851219 2.5 0 0 1 I I #
point $-1 14.393133165904061 -39.715046714614616 15.457842111967253 #
plane-surface $-1 63.954588457899717 0 0 -1 0 0 0 0 1 forward_v I I I I #
coedge $-1 $341 $339 $343 $486 reversed $221 $-1 #
edge $-1 $354 -19.917204086659183 $488 19.917204086659183 $353 $572 forward 7 unknown #
vertex $-1 $486 $573 #
straight-curve $-1 -63.954588457899717 -43.075416895976545 0 0 0 -1 I I #
edge $-1 $484 -43.075416895976545 $488 43.075416895976545 $482 $574 forward 7 unknown #
straight-curve $-1 0 -43.075416895976545 -19.917204086659183 -1 0 0 I I #
vertex $-1 $346 $575 #
straight-curve $-1 0 43.075416895976545 -19.917204086659183 1 0 0 I I #
point $-1 63.954588457899717 43.075416895976545 -19.917204086659183 #
point $-1 63.954588457899717 -43.075416895976545 -19.917204086659183 #
straight-curve $-1 -63.954588457899717 0 19.917204086659183 0 -1 0 I I #
point $-1 -63.954588457899717 43.075416895976545 19.917204086659183 #
point $-1 -63.954588457899717 -43.075416895976545 19.917204086659183 #
straight-curve $-1 63.954588457899717 -43.075416895976545 0 0 0 -1 I I #
straight-curve $-1 63.954588457899717 43.075416895976545 0 0 0 -1 I I #
plane-surface $-1 0 0 19.917204086659183 0 0 1 1 0 0 forward_v I I I I #
coedge $-1 $368 $365 $370 $505 reversed $240 $-1 #
coedge $-1 $365 $368 $511 $576 reversed $240 $-1 #
edge $-1 $513 -19.917204086659183 $507 19.917204086659183 $382 $577 forward 7 unknown #
edge $-1 $502 -9.7899133480529485 $380 9.7899133480529485 $367 $578 forward 7 unknown #
vertex $-1 $576 $579 #
vertex $-1 $505 $580 #
straight-curve $-1 -83.534415154005615 -10.315211567024676 0 0 0 -1 I I #
edge $-1 $503 -3.5371014221832482 $507 3.5371014221832482 $498 $581 forward 7 unknown #
straight-curve $-1 -73.744501805952666 -10.315211567024676 -19.917204086659183 -1 0 0 I I #
vertex $-1 $372 $582 #
straight-curve $-1 -73.744501805952666 -3.2410087226581794 -19.917204086659183 1 0 0 I I #
point $-1 -63.954588457899717 -10.315211567024676 -19.917204086659183 #
straight-curve $-1 -63.954588457899717 -10.315211567024676 0 0 0 -1 I I #
coedge $-1 $378 $377 $499 $576 forward $379 $-1 #
point $-1 -63.954588457899717 -10.315211567024676 19.917204086659183 #
vertex $-1 $383 $583 #
straight-curve $-1 -73.744501805952666 -3.2410087226581794 19.917204086659183 -1 0 0 I I #
plane-surface $-1 0 0 19.917204086659183 0 0 1 1 0 0 forward_v I I I I #
coedge $-1 $520 $584 $403 $531 forward $387 $-1 #
coedge $-1 $389 $396 $399 $529 reversed $256 $-1 #
coedge $-1 $584 $520 $389 $519 reversed $387 $-1 #
edge $-1 $585 -19.917204086659183 $522 19.917204086659183 $518 $586 forward 7 unknown #
coedge $-1 $518 $516 $390 $521 reversed $387 $-1 #
edge $-1 $522 -3.5371014221832482 $524 3.5371014221832482 $520 $587 forward 7 unknown #
vertex $-1 $521 $588 #
straight-curve $-1 73.744501805952666 -3.2410087226581794 -19.917204086659183 1 0 0 I I #
vertex $-1 $531 $589 #
straight-curve $-1 73.744501805952666 -10.315211567024676 -19.917204086659183 -1 0 0 I I #
point $-1 63.954588457899717 -3.2410087226581794 -19.917204086659183 #
straight-curve $-1 63.954588457899717 -3.2410087226581794 0 0 0 -1 I I #
coedge $-1 $399 $398 $584 $590 forward $400 $-1 #
edge $-1 $585 -9.7899133480529485 $401 9.7899133480529485 $517 $591 forward 7 unknown #
point $-1 63.954588457899717 -3.2410087226581794 19.917204086659183 #
edge $-1 $532 -19.917204086659183 $524 19.917204086659183 $516 $592 forward 7 unknown #
vertex $-1 $590 $593 #
straight-curve $-1 73.744501805952666 -10.315211567024676 19.917204086659183 1 0 0 I I #
edge $-1 $535 56.071889455093185 $538 73.621397446857543 $408 $594 forward 7 unknown #
vertex $-1 $422 $595 #
straight-curve $-1 -29.943044296333685 40.242151025041181 19.917204086659183 0 1 0 I I #
edge $-1 $538 11.36359278180181 $419 25.795310247261945 $418 $596 forward 7 unknown #
vertex $-1 $537 $597 #
straight-curve $-1 -29.943044296333685 -14.570741965207674 66.390243151379849 0 -0.66913059716165679 0.74314483375859142 I I #
point $-1 -29.943044296333685 27.273769318033203 19.917204086659183 #
point $-1 -44.37476176179382 43.075416895976545 2.3676960948948249 #
straight-curve $-1 0 43.075416895976545 19.917204086659183 -1 0 0 I I #
vertex $-1 $425 $598 #
point $-1 -40.988418268701793 34.431448273246282 10.473319493615364 #
vertex $-1 $429 $599 #
point $-1 -36.658903029063751 34.431448273246282 10.473319493615364 #
vertex $-1 $433 $600 #
point $-1 -32.329387789425709 34.431448273246282 10.473319493615364 #
coedge $-1 $448 $447 $440 $550 forward $437 $-1 #
edge $-1 $551 24.070867417478397 $554 32.98959136686225 $549 $601 forward 7 unknown #
vertex $-1 $452 $602 #
straight-curve $-1 -17.03874749709431 -72.614114346886367 19.917204086659183 0 -1 0 I I #
edge $-1 $554 -11.092180914142293 $449 -0.80095225176173912 $448 $603 forward 7 unknown #
vertex $-1 $553 $604 #
straight-curve $-1 -17.03874749709431 -43.075416895976559 10.998480137275308 0 0.60181501223851219 0.79863551827123203 I I #
point $-1 -17.03874749709431 -36.354676533252686 19.917204086659183 #
point $-1 -6.7475188347137554 -43.075416895976545 10.998480137275328 #
straight-curve $-1 0 -43.075416895976545 19.917204086659183 1 0 0 I I #
vertex $-1 $455 $605 #
point $-1 -9.3931331659040325 -34.413822256690828 11.463083064773215 #
edge $-1 $562 24.070867417478397 $565 32.98959136686225 $460 $606 forward 7 unknown #
vertex $-1 $474 $607 #
straight-curve $-1 6.7475188347137838 -72.614114346886367 19.917204086659183 0 -1 0 I I #
edge $-1 $565 0.80095225176175333 $471 11.092180914142308 $470 $608 forward 7 unknown #
vertex $-1 $564 $609 #
straight-curve $-1 6.7475188347137838 -43.075416895976559 10.998480137275308 0 0.60181501223851219 0.79863551827123203 I I #
point $-1 6.7475188347137838 -36.354676533252686 19.917204086659183 #
point $-1 17.038747497094338 -43.075416895976545 10.998480137275328 #
straight-curve $-1 0 -43.075416895976545 19.917204086659183 1 0 0 I I #
vertex $-1 $477 $610 #
point $-1 14.393133165904061 -34.413822256690828 11.463083064773215 #
straight-curve $-1 -63.954588457899717 43.075416895976545 0 0 0 -1 I I #
point $-1 -63.954588457899717 -43.075416895976545 -19.917204086659183 #
straight-curve $-1 -63.954588457899717 0 -19.917204086659183 0 1 0 I I #
point $-1 -63.954588457899717 43.075416895976545 -19.917204086659183 #
edge $-1 $513 -3.5371014221832482 $502 3.5371014221832482 $499 $611 forward 7 unknown #
straight-curve $-1 -83.534415154005615 -3.2410087226581794 0 0 0 -1 I I #
straight-curve $-1 -73.744501805952666 -10.315211567024676 19.917204086659183 1 0 0 I I #
point $-1 -83.534415154005615 -10.315211567024676 19.917204086659183 #
point $-1 -83.534415154005615 -10.315211567024676 -19.917204086659183 #
straight-curve $-1 -83.534415154005615 -6.7781101448414276 -19.917204086659183 0 1 0 I I #
point $-1 -83.534415154005615 -3.2410087226581794 -19.917204086659183 #
point $-1 -83.534415154005615 -3.2410087226581794 19.917204086659183 #
coedge $-1 $516 $518 $528 $590 reversed $387 $-1 #
vertex $-1 $590 $612 #
straight-curve $-1 83.534415154005615 -3.2410087226581794 0 0 0 -1 I I #
straight-curve $-1 83.534415154005615 -6.7781101448414276 -19.917204086659183 0 -1 0 I I #
point $-1 83.534415154005615 -3.2410087226581794 -19.917204086659183 #
point $-1 83.534415154005615 -10.315211567024676 -19.917204086659183 #
edge $-1 $532 -3.5371014221832482 $585 3.5371014221832482 $584 $613 forward 7 unknown #
straight-curve $-1 73.744501805952666 -3.2410087226581794 19.917204086659183 -1 0 0 I I #
straight-curve $-1 83.534415154005615 -10.315211567024676 0 0 0 -1 I I #
point $-1 83.534415154005615 -10.315211567024676 19.917204086659183 #
straight-curve $-1 -29.943044296333685 43.075416895976545 75.989093541752368 0 0 -1 I I #
point $-1 -29.943044296333685 43.075416895976545 19.917204086659183 #
straight-curve $-1 -18.579451514531875 43.075416895976545 2.3676960948948214 -1 0 0 I I #
point $-1 -29.943044296333685 43.075416895976545 2.3676960948948249 #
point $-1 -41.488418268701793 34.059875856366993 10.138754195034537 #
point $-1 -37.158903029063751 34.059875856366993 10.138754195034537 #
point $-1 -32.829387789425709 34.059875856366993 10.138754195034537 #
straight-curve $-1 -17.03874749709431 -43.075416895976545 43.988071504137579 0 0 -1 I I #
point $-1 -17.03874749709431 -43.075416895976545 19.917204086659183 #
straight-curve $-1 -5.9465665829520162 -43.075416895976545 10.998480137275324 1 0 0 I I #
point $-1 -17.03874749709431 -43.075416895976545 10.998480137275328 #
point $-1 -11.893133165904032 -32.417233461012749 9.9585455341769347 #
straight-curve $-1 6.7475188347137838 -43.075416895976545 43.988071504137579 0 0 -1 I I #
point $-1 6.7475188347137838 -43.075416895976545 19.917204086659183 #
straight-curve $-1 5.9465665829520304 -43.075416895976545 10.998480137275324 1 0 0 I I #
point $-1 6.7475188347137838 -43.075416895976545 10.998480137275328 #
point $-1 11.893133165904061 -32.417233461012749 9.9585455341769347 #
straight-curve $-1 -83.534415154005615 -6.7781101448414276 19.917204086659183 0 -1 0 I I #
point $-1 83.534415154005615 -3.2410087226581794 19.917204086659183 #
straight-curve $-1 83.534415154005615 -6.7781101448414276 19.917204086659183 0 1 0 I I #
End-of-ACIS-data 