500 0 10 0           
7 Unknown 11 ACIS 5.0 NT 24 Fri Mar 26 14:27:37 1999 
-1 9.9999999999999995e-007 1e-010 
body $-1 $10 $-1 $11 #
body $-1 $12 $-1 $13 #
body $-1 $14 $-1 $15 #
body $-1 $16 $-1 $17 #
body $-1 $18 $-1 $19 #
body $-1 $20 $-1 $21 #
body $-1 $22 $-1 $23 #
body $-1 $24 $-1 $25 #
body $-1 $26 $-1 $27 #
body $-1 $28 $-1 $29 #
lump $-1 $-1 $30 $0 #
transform $-1 1 0 0 0 1 0 0 0 1 58.420972319711908 24.698091407698023 11.103550960903968 1 rotate no_reflect no_shear #
lump $-1 $-1 $31 $1 #
transform $-1 1 0 0 0 1 0 0 0 1 58.420972319711908 24.698091407698023 11.103550960903968 1 rotate no_reflect no_shear #
lump $-1 $-1 $32 $2 #
transform $-1 1 0 0 0 1 0 0 0 1 58.420972319711908 24.698091407698023 11.103550960903968 1 rotate no_reflect no_shear #
lump $-1 $-1 $33 $3 #
transform $-1 1 0 0 0 1 0 0 0 1 58.420972319711908 24.698091407698023 11.103550960903968 1 rotate no_reflect no_shear #
lump $-1 $-1 $34 $4 #
transform $-1 1 0 0 0 1 0 0 0 1 58.420972319711908 24.698091407698023 11.103550960903968 1 rotate no_reflect no_shear #
lump $-1 $-1 $35 $5 #
transform $-1 1 0 0 0 1 0 0 0 1 58.420972319711908 24.698091407698023 11.103550960903968 1 rotate no_reflect no_shear #
lump $-1 $-1 $36 $6 #
transform $-1 1 0 0 0 1 0 0 0 1 58.420972319711908 24.698091407698023 11.103550960903968 1 rotate no_reflect no_shear #
lump $-1 $-1 $37 $7 #
transform $-1 1 0 0 0 1 0 0 0 1 58.420972319711908 24.698091407698023 11.103550960903968 1 rotate no_reflect no_shear #
lump $-1 $-1 $38 $8 #
transform $-1 1 0 0 0 1 0 0 0 1 58.420972319711908 24.698091407698023 11.103550960903968 1 rotate no_reflect no_shear #
lump $-1 $-1 $39 $9 #
transform $-1 1 0 0 0 1 0 0 0 1 58.420972319711908 24.698091407698023 11.103550960903968 1 rotate no_reflect no_shear #
shell $-1 $-1 $-1 $40 $-1 $10 #
shell $-1 $-1 $-1 $41 $-1 $12 #
shell $-1 $-1 $-1 $42 $-1 $14 #
shell $-1 $-1 $-1 $43 $-1 $16 #
shell $-1 $-1 $-1 $44 $-1 $18 #
shell $-1 $-1 $-1 $45 $-1 $20 #
shell $-1 $-1 $-1 $46 $-1 $22 #
shell $-1 $-1 $-1 $47 $-1 $24 #
shell $-1 $-1 $-1 $48 $-1 $26 #
shell $-1 $-1 $-1 $49 $-1 $28 #
face $-1 $50 $51 $30 $-1 $52 forward single #
face $-1 $53 $54 $31 $-1 $55 forward single #
face $-1 $56 $57 $32 $-1 $58 reversed single #
face $-1 $59 $60 $33 $-1 $61 forward single #
face $-1 $62 $63 $34 $-1 $64 forward single #
face $-1 $65 $66 $35 $-1 $67 forward single #
face $-1 $68 $69 $36 $-1 $70 reversed single #
face $-1 $71 $72 $37 $-1 $73 forward single #
face $-1 $74 $75 $38 $-1 $76 forward single #
face $-1 $77 $78 $39 $-1 $79 forward single #
face $-1 $80 $81 $30 $-1 $82 reversed single #
loop $-1 $-1 $83 $40 #
plane-surface $-1 0 0 11.103550960903968 0 0 1 1 0 0 forward_v I I I I #
face $-1 $84 $85 $31 $-1 $86 reversed single #
loop $-1 $-1 $87 $41 #
plane-surface $-1 0 -24.698091407698023 0 0 1 0 0 0 1 forward_v I I I I #
face $-1 $88 $89 $32 $-1 $90 reversed single #
loop $-1 $-1 $91 $42 #
plane-surface $-1 -52.308355762737932 66.172096313045472 121.05225749468003 1 0 0 0 -0.66913061440640931 -0.74314481823134659 forward_v I I I I #
face $-1 $92 $93 $33 $-1 $94 forward single #
loop $-1 $95 $96 $43 #
cone-surface $-1 -49.252108247524347 18.005303528222335 4.8300858563261793 0 -0.66913061440640931 -0.74314481823134659 1 0 0 1 I I 0 1 1 forward I I I I #
face $-1 $97 $98 $34 $-1 $99 forward single #
loop $-1 $100 $101 $44 #
cone-surface $-1 -44.667736974703956 18.005303528222335 4.8300858563261793 0 -0.66913061440640931 -0.74314481823134659 1 0 0 1 I I 0 1 1 forward I I I I #
face $-1 $102 $103 $35 $-1 $104 forward single #
loop $-1 $105 $106 $45 #
cone-surface $-1 -40.083365701883572 18.005303528222335 4.8300858563261793 0 -0.66913061440640931 -0.74314481823134659 1 0 0 1 I I 0 1 1 forward I I I I #
face $-1 $107 $108 $36 $-1 $109 reversed single #
loop $-1 $-1 $110 $46 #
plane-surface $-1 37.027118186669995 66.172096313045472 121.05225749468003 1 0 0 0 -0.66913061440640931 -0.74314481823134659 forward_v I I I I #
face $-1 $111 $112 $37 $-1 $113 forward single #
loop $-1 $114 $115 $47 #
cone-surface $-1 40.083365701883579 18.005303528222335 4.8300858563261793 0 -0.66913061440640931 -0.74314481823134659 1 0 0 1 I I 0 1 1 forward I I I I #
face $-1 $116 $117 $38 $-1 $118 forward single #
loop $-1 $119 $120 $48 #
cone-surface $-1 44.667736974703971 18.005303528222335 4.8300858563261793 0 -0.66913061440640931 -0.74314481823134659 1 0 0 1 I I 0 1 1 forward I I I I #
face $-1 $121 $122 $39 $-1 $123 forward single #
loop $-1 $124 $125 $49 #
cone-surface $-1 49.252108247524362 18.005303528222335 4.8300858563261793 0 -0.66913061440640931 -0.74314481823134659 1 0 0 1 I I 0 1 1 forward I I I I #
face $-1 $126 $127 $30 $-1 $128 reversed single #
loop $-1 $-1 $129 $50 #
plane-surface $-1 0 0 -11.103550960903968 0 0 1 1 0 0 forward_v I I I I #
coedge $-1 $130 $131 $132 $133 forward $51 $-1 #
face $-1 $134 $135 $31 $-1 $136 reversed single #
loop $-1 $-1 $137 $53 #
plane-surface $-1 0 0 -11.103550960903968 0 0 1 1 0 0 forward_v I I I I #
coedge $-1 $138 $139 $140 $141 forward $54 $-1 #
face $-1 $142 $143 $32 $-1 $144 reversed single #
loop $-1 $-1 $145 $56 #
plane-surface $-1 -44.667736974703956 -12.010425891971849 34.221771783818369 0 0.66913061440640931 0.74314481823134659 1 0 0 forward_v I I I I #
coedge $-1 $146 $147 $148 $149 reversed $57 $-1 #
face $-1 $-1 $150 $33 $-1 $151 forward single #
loop $-1 $152 $153 $59 #
cone-surface $-1 -49.252108247524347 16.494516587693077 3.1521870094741455 0 -0.66913061440640931 -0.74314481823134659 0.5 0 0 1 I I -0.70710678118654746 0.70710678118654746 0.5 forward I I I I #
loop $-1 $-1 $154 $43 #
coedge $-1 $96 $96 $155 $156 reversed $60 $-1 #
face $-1 $-1 $157 $34 $-1 $158 forward single #
loop $-1 $159 $160 $62 #
cone-surface $-1 -44.667736974703956 16.494516587693077 3.1521870094741455 0 -0.66913061440640931 -0.74314481823134659 0.5 0 0 1 I I -0.70710678118654746 0.70710678118654746 0.5 forward I I I I #
loop $-1 $-1 $161 $44 #
coedge $-1 $101 $101 $162 $163 reversed $63 $-1 #
face $-1 $-1 $164 $35 $-1 $165 forward single #
loop $-1 $166 $167 $65 #
cone-surface $-1 -40.083365701883572 16.494516587693077 3.1521870094741455 0 -0.66913061440640931 -0.74314481823134659 0.5 0 0 1 I I -0.70710678118654746 0.70710678118654746 0.5 forward I I I I #
loop $-1 $-1 $168 $45 #
coedge $-1 $106 $106 $169 $170 reversed $66 $-1 #
face $-1 $171 $172 $36 $-1 $173 reversed single #
loop $-1 $-1 $174 $68 #
plane-surface $-1 44.667736974703971 -12.010425891971849 34.221771783818369 0 0.66913061440640931 0.74314481823134659 1 0 0 forward_v I I I I #
coedge $-1 $175 $176 $177 $178 reversed $69 $-1 #
face $-1 $-1 $179 $37 $-1 $180 forward single #
loop $-1 $181 $182 $71 #
cone-surface $-1 40.083365701883579 16.494516587693077 3.1521870094741455 0 -0.66913061440640931 -0.74314481823134659 0.5 0 0 1 I I -0.70710678118654746 0.70710678118654746 0.5 forward I I I I #
loop $-1 $-1 $183 $47 #
coedge $-1 $115 $115 $184 $185 reversed $72 $-1 #
face $-1 $-1 $186 $38 $-1 $187 forward single #
loop $-1 $188 $189 $74 #
cone-surface $-1 44.667736974703971 16.494516587693077 3.1521870094741455 0 -0.66913061440640931 -0.74314481823134659 0.5 0 0 1 I I -0.70710678118654746 0.70710678118654746 0.5 forward I I I I #
loop $-1 $-1 $190 $48 #
coedge $-1 $120 $120 $191 $192 reversed $75 $-1 #
face $-1 $-1 $193 $39 $-1 $194 forward single #
loop $-1 $195 $196 $77 #
cone-surface $-1 49.252108247524362 16.494516587693077 3.1521870094741455 0 -0.66913061440640931 -0.74314481823134659 0.5 0 0 1 I I -0.70710678118654746 0.70710678118654746 0.5 forward I I I I #
loop $-1 $-1 $197 $49 #
coedge $-1 $125 $125 $198 $199 reversed $78 $-1 #
face $-1 $200 $201 $30 $-1 $202 reversed single #
loop $-1 $-1 $203 $80 #
plane-surface $-1 0 -24.698091407698023 0 0 1 0 0 0 1 forward_v I I I I #
coedge $-1 $204 $205 $206 $207 forward $81 $-1 #
coedge $-1 $208 $83 $209 $210 forward $51 $-1 #
coedge $-1 $83 $208 $211 $212 forward $51 $-1 #
coedge $-1 $213 $214 $83 $133 reversed $215 $-1 #
edge $-1 $216 -24.698091407698023 $217 24.698091407698023 $132 $218 forward 7 unknown #
face $-1 $219 $220 $31 $-1 $221 reversed single #
loop $-1 $-1 $222 $84 #
plane-surface $-1 -38.921629566069974 -38.902110823812627 0 0 1 0 0 0 1 forward_v I I I I #
coedge $-1 $223 $224 $139 $225 forward $85 $-1 #
coedge $-1 $226 $87 $227 $228 reversed $54 $-1 #
coedge $-1 $87 $226 $137 $225 reversed $54 $-1 #
coedge $-1 $229 $230 $87 $141 reversed $220 $-1 #
edge $-1 $231 -11.103550960903968 $232 11.103550960903968 $140 $233 forward 7 unknown #
face $-1 $234 $235 $32 $-1 $236 forward single #
loop $-1 $-1 $237 $88 #
plane-surface $-1 -37.027118186669981 66.172096313045472 121.05225749468003 -1 0 0 0 0.66913061440640931 0.74314481823134659 forward_v I I I I #
coedge $-1 $238 $239 $240 $241 reversed $89 $-1 #
coedge $-1 $147 $91 $242 $243 reversed $57 $-1 #
coedge $-1 $91 $146 $238 $244 reversed $57 $-1 #
coedge $-1 $240 $245 $91 $149 forward $235 $-1 #
edge $-1 $246 8.3879567488247133 $247 19.421089241124015 $148 $248 forward 7 unknown #
loop $-1 $-1 $155 $92 #
plane-surface $-1 -44.667736974703956 -12.010425891971849 34.221771783818369 0 0.66913061440640931 0.74314481823134659 1 0 0 forward_v I I I I #
loop $-1 $-1 $249 $59 #
coedge $-1 $153 $153 $154 $250 reversed $93 $-1 #
coedge $-1 $154 $154 $153 $250 forward $95 $-1 #
coedge $-1 $155 $155 $96 $156 forward $150 $-1 #
edge $-1 $251 -9.9406829196622665e-016 $251 6.2831853071795996 $155 $252 forward 7 unknown #
loop $-1 $-1 $162 $97 #
plane-surface $-1 -44.667736974703956 -12.010425891971849 34.221771783818369 0 0.66913061440640931 0.74314481823134659 1 0 0 forward_v I I I I #
loop $-1 $-1 $253 $62 #
coedge $-1 $160 $160 $161 $254 reversed $98 $-1 #
coedge $-1 $161 $161 $160 $254 forward $100 $-1 #
coedge $-1 $162 $162 $101 $163 forward $157 $-1 #
edge $-1 $255 -9.9406829196622665e-016 $255 6.2831853071795996 $162 $256 forward 7 unknown #
loop $-1 $-1 $169 $102 #
plane-surface $-1 -44.667736974703956 -12.010425891971849 34.221771783818369 0 0.66913061440640931 0.74314481823134659 1 0 0 forward_v I I I I #
loop $-1 $-1 $257 $65 #
coedge $-1 $167 $167 $168 $258 reversed $103 $-1 #
coedge $-1 $168 $168 $167 $258 forward $105 $-1 #
coedge $-1 $169 $169 $106 $170 forward $164 $-1 #
edge $-1 $259 -9.9406829196622665e-016 $259 6.2831853071795996 $169 $260 forward 7 unknown #
face $-1 $261 $262 $36 $-1 $263 forward single #
loop $-1 $-1 $264 $107 #
plane-surface $-1 52.308355762737946 66.172096313045472 121.05225749468003 -1 0 0 0 0.66913061440640931 0.74314481823134659 forward_v I I I I #
coedge $-1 $265 $266 $267 $268 reversed $108 $-1 #
coedge $-1 $176 $110 $269 $270 reversed $69 $-1 #
coedge $-1 $110 $175 $265 $271 reversed $69 $-1 #
coedge $-1 $267 $272 $110 $178 forward $262 $-1 #
edge $-1 $273 8.3879567488247133 $274 19.421089241124015 $177 $275 forward 7 unknown #
loop $-1 $-1 $184 $111 #
plane-surface $-1 44.667736974703971 -12.010425891971849 34.221771783818369 0 0.66913061440640931 0.74314481823134659 1 0 0 forward_v I I I I #
loop $-1 $-1 $276 $71 #
coedge $-1 $182 $182 $183 $277 reversed $112 $-1 #
coedge $-1 $183 $183 $182 $277 forward $114 $-1 #
coedge $-1 $184 $184 $115 $185 forward $179 $-1 #
edge $-1 $278 -9.9406829196622665e-016 $278 6.2831853071795996 $184 $279 forward 7 unknown #
loop $-1 $-1 $191 $116 #
plane-surface $-1 44.667736974703971 -12.010425891971849 34.221771783818369 0 0.66913061440640931 0.74314481823134659 1 0 0 forward_v I I I I #
loop $-1 $-1 $280 $74 #
coedge $-1 $189 $189 $190 $281 reversed $117 $-1 #
coedge $-1 $190 $190 $189 $281 forward $119 $-1 #
coedge $-1 $191 $191 $120 $192 forward $186 $-1 #
edge $-1 $282 -9.9406829196622665e-016 $282 6.2831853071795996 $191 $283 forward 7 unknown #
loop $-1 $-1 $198 $121 #
plane-surface $-1 44.667736974703971 -12.010425891971849 34.221771783818369 0 0.66913061440640931 0.74314481823134659 1 0 0 forward_v I I I I #
loop $-1 $-1 $284 $77 #
coedge $-1 $196 $196 $197 $285 reversed $122 $-1 #
coedge $-1 $197 $197 $196 $285 forward $124 $-1 #
coedge $-1 $198 $198 $125 $199 forward $193 $-1 #
edge $-1 $286 -9.9406829196622665e-016 $286 6.2831853071795996 $198 $287 forward 7 unknown #
face $-1 $288 $289 $30 $-1 $290 reversed single #
loop $-1 $-1 $291 $126 #
plane-surface $-1 -58.420972319711908 0 0 1 0 0 0 0 -1 forward_v I I I I #
coedge $-1 $292 $211 $293 $294 forward $127 $-1 #
coedge $-1 $295 $129 $292 $296 forward $81 $-1 #
coedge $-1 $129 $295 $297 $298 forward $81 $-1 #
coedge $-1 $214 $213 $129 $207 reversed $215 $-1 #
edge $-1 $299 -24.698091407698023 $300 24.698091407698023 $206 $301 forward 7 unknown #
coedge $-1 $131 $130 $302 $303 forward $51 $-1 #
coedge $-1 $304 $305 $130 $210 reversed $289 $-1 #
edge $-1 $217 -58.420972319711908 $306 58.420972319711908 $209 $307 forward 7 unknown #
coedge $-1 $203 $308 $131 $212 reversed $127 $-1 #
edge $-1 $309 -58.420972319711908 $216 58.420972319711908 $211 $310 forward 7 unknown #
coedge $-1 $206 $132 $308 $311 forward $215 $-1 #
coedge $-1 $132 $206 $304 $312 reversed $215 $-1 #
loop $-1 $-1 $213 $288 #
vertex $-1 $133 $313 #
vertex $-1 $133 $314 #
straight-curve $-1 58.420972319711908 0 11.103550960903968 0 1 0 I I #
face $-1 $315 $316 $31 $-1 $317 reversed single #
loop $-1 $-1 $140 $134 #
plane-surface $-1 -41.629388734235974 -31.800101115755325 0 1 0 0 0 0 -1 forward_v I I I I #
coedge $-1 $318 $319 $320 $321 forward $135 $-1 #
coedge $-1 $322 $137 $323 $324 forward $85 $-1 #
coedge $-1 $137 $322 $229 $325 forward $85 $-1 #
edge $-1 $231 -41.629388734235974 $326 -36.213870397903975 $137 $327 forward 7 unknown #
coedge $-1 $139 $138 $328 $329 forward $54 $-1 #
coedge $-1 $330 $331 $138 $228 forward $332 $-1 #
edge $-1 $333 36.213870397903975 $232 41.629388734235974 $227 $334 forward 7 unknown #
coedge $-1 $320 $140 $224 $325 reversed $220 $-1 #
coedge $-1 $140 $320 $330 $335 reversed $220 $-1 #
vertex $-1 $225 $336 #
vertex $-1 $335 $337 #
straight-curve $-1 -41.629388734235974 -24.698091407698023 0 0 0 1 I I #
face $-1 $-1 $338 $32 $-1 $339 reversed single #
loop $-1 $-1 $148 $142 #
plane-surface $-1 0 0 11.103550960903968 0 0 1 1 0 0 forward_v I I I I #
coedge $-1 $340 $341 $342 $343 reversed $143 $-1 #
coedge $-1 $344 $145 $147 $244 forward $89 $-1 #
coedge $-1 $145 $344 $340 $345 forward $89 $-1 #
coedge $-1 $342 $148 $145 $241 forward $235 $-1 #
edge $-1 $247 -29.974487275385954 $346 -14.693249699318002 $240 $347 forward 7 unknown #
coedge $-1 $348 $349 $146 $243 forward $338 $-1 #
edge $-1 $350 -59.356855120118929 $246 -49.422577786436051 $242 $351 forward 7 unknown #
edge $-1 $247 34.549638478913039 $350 49.39618281539606 $147 $352 forward 7 unknown #
coedge $-1 $148 $342 $348 $353 forward $235 $-1 #
vertex $-1 $243 $354 #
vertex $-1 $149 $355 #
straight-curve $-1 -52.308355762737932 33.086048156522736 11.103550960903966 0 -1 0 I I #
coedge $-1 $249 $249 $-1 $356 reversed $152 $-1 #
edge $-1 $357 0 $357 6.2831853071796004 $153 $358 forward 7 unknown #
vertex $-1 $156 $359 #
ellipse-curve $-1 -49.252108247524347 19.181525161548375 6.1364122940625263 0 0.66913061440640931 0.74314481823134659 1 0 0 1 I I #
coedge $-1 $253 $253 $-1 $360 reversed $159 $-1 #
edge $-1 $361 0 $361 6.2831853071796004 $160 $362 forward 7 unknown #
vertex $-1 $163 $363 #
ellipse-curve $-1 -44.667736974703956 19.181525161548375 6.1364122940625263 0 0.66913061440640931 0.74314481823134659 1 0 0 1 I I #
coedge $-1 $257 $257 $-1 $364 reversed $166 $-1 #
edge $-1 $365 0 $365 6.2831853071796004 $167 $366 forward 7 unknown #
vertex $-1 $170 $367 #
ellipse-curve $-1 -40.083365701883572 19.181525161548375 6.1364122940625263 0 0.66913061440640931 0.74314481823134659 1 0 0 1 I I #
face $-1 $-1 $368 $36 $-1 $369 reversed single #
loop $-1 $-1 $177 $171 #
plane-surface $-1 0 0 11.103550960903968 0 0 1 1 0 0 forward_v I I I I #
coedge $-1 $370 $371 $372 $373 reversed $172 $-1 #
coedge $-1 $374 $174 $176 $271 forward $108 $-1 #
coedge $-1 $174 $374 $370 $375 forward $108 $-1 #
coedge $-1 $372 $177 $174 $268 forward $262 $-1 #
edge $-1 $274 14.69324969931801 $376 29.974487275385961 $267 $377 forward 7 unknown #
coedge $-1 $378 $379 $175 $270 forward $368 $-1 #
edge $-1 $380 -59.356855120118929 $273 -49.422577786436051 $269 $381 forward 7 unknown #
edge $-1 $274 34.549638478913039 $380 49.39618281539606 $176 $382 forward 7 unknown #
coedge $-1 $177 $372 $378 $383 forward $262 $-1 #
vertex $-1 $178 $384 #
vertex $-1 $178 $385 #
straight-curve $-1 37.027118186669995 33.086048156522736 11.103550960903966 0 -1 0 I I #
coedge $-1 $276 $276 $-1 $386 reversed $181 $-1 #
edge $-1 $387 0 $387 6.2831853071796004 $182 $388 forward 7 unknown #
vertex $-1 $185 $389 #
ellipse-curve $-1 40.083365701883579 19.181525161548375 6.1364122940625263 0 0.66913061440640931 0.74314481823134659 1 0 0 1 I I #
coedge $-1 $280 $280 $-1 $390 reversed $188 $-1 #
edge $-1 $391 0 $391 6.2831853071796004 $189 $392 forward 7 unknown #
vertex $-1 $192 $393 #
ellipse-curve $-1 44.667736974703971 19.181525161548375 6.1364122940625263 0 0.66913061440640931 0.74314481823134659 1 0 0 1 I I #
coedge $-1 $284 $284 $-1 $394 reversed $195 $-1 #
edge $-1 $395 0 $395 6.2831853071796004 $196 $396 forward 7 unknown #
vertex $-1 $199 $397 #
ellipse-curve $-1 49.252108247524362 19.181525161548375 6.1364122940625263 0 0.66913061440640931 0.74314481823134659 1 0 0 1 I I #
face $-1 $-1 $215 $30 $-1 $398 reversed single #
loop $-1 $-1 $304 $200 #
plane-surface $-1 0 24.698091407698023 0 0 -1 0 0 0 -1 forward_v I I I I #
coedge $-1 $399 $302 $305 $400 forward $201 $-1 #
coedge $-1 $308 $203 $204 $296 reversed $127 $-1 #
coedge $-1 $302 $399 $203 $294 reversed $201 $-1 #
edge $-1 $309 -11.103550960903968 $401 11.103550960903968 $293 $402 forward 7 unknown #
coedge $-1 $205 $204 $399 $403 forward $81 $-1 #
edge $-1 $300 -58.420972319711908 $401 58.420972319711908 $292 $404 forward 7 unknown #
coedge $-1 $305 $304 $205 $298 reversed $289 $-1 #
edge $-1 $405 -58.420972319711908 $299 58.420972319711908 $297 $406 forward 7 unknown #
vertex $-1 $207 $407 #
vertex $-1 $311 $408 #
straight-curve $-1 58.420972319711908 0 -11.103550960903968 0 -1 0 I I #
coedge $-1 $291 $293 $208 $303 reversed $201 $-1 #
edge $-1 $306 -24.698091407698023 $309 24.698091407698023 $302 $409 forward 7 unknown #
coedge $-1 $297 $209 $214 $312 forward $289 $-1 #
coedge $-1 $209 $297 $291 $400 reversed $289 $-1 #
vertex $-1 $210 $410 #
straight-curve $-1 0 24.698091407698023 11.103550960903968 -1 0 0 I I #
coedge $-1 $211 $292 $213 $311 reversed $127 $-1 #
vertex $-1 $303 $411 #
straight-curve $-1 0 -24.698091407698023 11.103550960903968 1 0 0 I I #
edge $-1 $216 -11.103550960903968 $300 11.103550960903968 $213 $412 forward 7 unknown #
edge $-1 $217 -11.103550960903968 $299 11.103550960903968 $214 $413 forward 7 unknown #
point $-1 58.420972319711908 -24.698091407698023 11.103550960903968 #
point $-1 58.420972319711908 24.698091407698023 11.103550960903968 #
face $-1 $-1 $332 $31 $-1 $414 forward single #
loop $-1 $-1 $415 $219 #
plane-surface $-1 -36.213870397903975 -31.800101115755325 0 -1 0 0 0 0 1 forward_v I I I I #
coedge $-1 $416 $222 $322 $417 reversed $135 $-1 #
coedge $-1 $222 $416 $418 $419 reversed $135 $-1 #
coedge $-1 $230 $229 $222 $321 reversed $220 $-1 #
edge $-1 $420 -11.103550960903968 $421 11.103550960903968 $320 $422 forward 7 unknown #
coedge $-1 $224 $223 $318 $417 forward $85 $-1 #
coedge $-1 $328 $415 $223 $324 reversed $316 $-1 #
edge $-1 $326 -7.1020097080573024 $423 7.1020097080573024 $323 $424 forward 7 unknown #
edge $-1 $421 -7.1020097080573024 $231 7.1020097080573024 $229 $425 forward 7 unknown #
vertex $-1 $324 $426 #
straight-curve $-1 0 -24.698091407698023 -11.103550960903968 1 0 0 I I #
coedge $-1 $427 $323 $226 $329 reversed $316 $-1 #
edge $-1 $333 -11.103550960903968 $326 11.103550960903968 $328 $428 forward 7 unknown #
coedge $-1 $418 $227 $230 $335 forward $332 $-1 #
coedge $-1 $227 $418 $427 $429 forward $332 $-1 #
loop $-1 $-1 $227 $315 #
vertex $-1 $228 $430 #
straight-curve $-1 0 -24.698091407698023 11.103550960903968 -1 0 0 I I #
edge $-1 $232 -7.1020097080573024 $420 7.1020097080573024 $230 $431 forward 7 unknown #
point $-1 -41.629388734235974 -24.698091407698023 -11.103550960903968 #
point $-1 -41.629388734235974 -24.698091407698023 11.103550960903968 #
loop $-1 $-1 $242 $234 #
plane-surface $-1 0 24.698091407698023 0 0 -1 0 0 0 -1 forward_v I I I I #
coedge $-1 $341 $237 $239 $345 reversed $143 $-1 #
coedge $-1 $237 $340 $432 $433 reversed $143 $-1 #
coedge $-1 $245 $240 $237 $343 forward $235 $-1 #
edge $-1 $346 -19.421089241124015 $434 -8.3879567488247133 $342 $435 forward 7 unknown #
coedge $-1 $239 $238 $349 $436 reversed $89 $-1 #
edge $-1 $437 -49.39618281539606 $346 -34.549638478913039 $340 $438 forward 7 unknown #
vertex $-1 $241 $439 #
straight-curve $-1 -22.333868487351978 13.664958915398721 11.103550960903965 1 0 0 I I #
coedge $-1 $432 $242 $245 $353 reversed $338 $-1 #
coedge $-1 $242 $432 $344 $436 forward $338 $-1 #
vertex $-1 $243 $440 #
straight-curve $-1 -52.308355762737932 24.698091407698023 60.526128747340017 0 0 1 I I #
straight-curve $-1 -52.308355762737932 -12.010425891971849 34.221771783818369 0 0.74314481823134659 -0.66913061440640931 I I #
edge $-1 $434 37.027118186669981 $246 52.308355762737932 $348 $441 forward 7 unknown #
point $-1 -52.308355762737932 24.698091407698023 11.103550960903968 #
point $-1 -52.308355762737932 13.664958915398721 11.103550960903966 #
edge $-1 $442 1 $442 0 $249 $-1 forward 7 unknown #
vertex $-1 $250 $443 #
ellipse-curve $-1 -49.252108247524347 16.829081894896284 3.5237594185898189 0 0.66913061440640931 0.74314481823134659 1 0 0 1 I I #
point $-1 -48.252108247524347 19.181525161548386 6.1364122940625396 #
edge $-1 $444 1 $444 0 $253 $-1 forward 7 unknown #
vertex $-1 $254 $445 #
ellipse-curve $-1 -44.667736974703956 16.829081894896284 3.5237594185898189 0 0.66913061440640931 0.74314481823134659 1 0 0 1 I I #
point $-1 -43.667736974703956 19.181525161548386 6.1364122940625396 #
edge $-1 $446 1 $446 0 $257 $-1 forward 7 unknown #
vertex $-1 $258 $447 #
ellipse-curve $-1 -40.083365701883572 16.829081894896284 3.5237594185898189 0 0.66913061440640931 0.74314481823134659 1 0 0 1 I I #
point $-1 -39.083365701883572 19.181525161548386 6.1364122940625396 #
loop $-1 $-1 $269 $261 #
plane-surface $-1 0 24.698091407698023 0 0 -1 0 0 0 -1 forward_v I I I I #
coedge $-1 $371 $264 $266 $375 reversed $172 $-1 #
coedge $-1 $264 $370 $448 $449 reversed $172 $-1 #
coedge $-1 $272 $267 $264 $373 forward $262 $-1 #
edge $-1 $376 -19.421089241124015 $450 -8.3879567488247133 $372 $451 forward 7 unknown #
coedge $-1 $266 $265 $379 $452 reversed $108 $-1 #
edge $-1 $453 -49.39618281539606 $376 -34.549638478913039 $370 $454 forward 7 unknown #
vertex $-1 $268 $455 #
straight-curve $-1 22.333868487351985 13.664958915398721 11.103550960903965 1 0 0 I I #
coedge $-1 $448 $269 $272 $383 reversed $368 $-1 #
coedge $-1 $269 $448 $374 $452 forward $368 $-1 #
vertex $-1 $270 $456 #
straight-curve $-1 37.027118186669995 24.698091407698023 60.526128747340017 0 0 1 I I #
straight-curve $-1 37.027118186669995 -12.010425891971849 34.221771783818369 0 0.74314481823134659 -0.66913061440640931 I I #
edge $-1 $450 -52.308355762737946 $273 -37.027118186669995 $378 $457 forward 7 unknown #
point $-1 37.027118186669995 24.698091407698023 11.103550960903968 #
point $-1 37.027118186669995 13.664958915398721 11.103550960903966 #
edge $-1 $458 1 $458 0 $276 $-1 forward 7 unknown #
vertex $-1 $277 $459 #
ellipse-curve $-1 40.083365701883579 16.829081894896284 3.5237594185898189 0 0.66913061440640931 0.74314481823134659 1 0 0 1 I I #
point $-1 41.083365701883579 19.181525161548386 6.1364122940625396 #
edge $-1 $460 1 $460 0 $280 $-1 forward 7 unknown #
vertex $-1 $281 $461 #
ellipse-curve $-1 44.667736974703971 16.829081894896284 3.5237594185898189 0 0.66913061440640931 0.74314481823134659 1 0 0 1 I I #
point $-1 45.667736974703971 19.181525161548386 6.1364122940625396 #
edge $-1 $462 1 $462 0 $284 $-1 forward 7 unknown #
vertex $-1 $285 $463 #
ellipse-curve $-1 49.252108247524362 16.829081894896284 3.5237594185898189 0 0.66913061440640931 0.74314481823134659 1 0 0 1 I I #
point $-1 50.252108247524362 19.181525161548386 6.1364122940625396 #
plane-surface $-1 58.420972319711908 0 0 -1 0 0 0 0 1 forward_v I I I I #
coedge $-1 $293 $291 $295 $403 reversed $201 $-1 #
edge $-1 $306 -11.103550960903968 $405 11.103550960903968 $305 $464 forward 7 unknown #
vertex $-1 $403 $465 #
straight-curve $-1 -58.420972319711908 -24.698091407698023 0 0 0 -1 I I #
edge $-1 $401 -24.698091407698023 $405 24.698091407698023 $399 $466 forward 7 unknown #
straight-curve $-1 0 -24.698091407698023 -11.103550960903968 -1 0 0 I I #
vertex $-1 $298 $467 #
straight-curve $-1 0 24.698091407698023 -11.103550960903968 1 0 0 I I #
point $-1 58.420972319711908 24.698091407698023 -11.103550960903968 #
point $-1 58.420972319711908 -24.698091407698023 -11.103550960903968 #
straight-curve $-1 -58.420972319711908 0 11.103550960903968 0 -1 0 I I #
point $-1 -58.420972319711908 24.698091407698023 11.103550960903968 #
point $-1 -58.420972319711908 -24.698091407698023 11.103550960903968 #
straight-curve $-1 58.420972319711908 -24.698091407698023 0 0 0 -1 I I #
straight-curve $-1 58.420972319711908 24.698091407698023 0 0 0 -1 I I #
plane-surface $-1 0 0 11.103550960903968 0 0 1 1 0 0 forward_v I I I I #
coedge $-1 $323 $427 $416 $468 forward $316 $-1 #
coedge $-1 $319 $318 $415 $468 reversed $135 $-1 #
edge $-1 $423 -2.7077591681659996 $421 2.7077591681659996 $318 $469 forward 7 unknown #
coedge $-1 $331 $330 $319 $419 forward $332 $-1 #
edge $-1 $420 -2.7077591681659996 $470 2.7077591681659996 $319 $471 forward 7 unknown #
vertex $-1 $335 $472 #
vertex $-1 $325 $473 #
straight-curve $-1 -41.629388734235974 -38.902110823812627 0 0 0 -1 I I #
vertex $-1 $468 $474 #
straight-curve $-1 -36.213870397903975 -31.800101115755325 -11.103550960903968 0 -1 0 I I #
straight-curve $-1 -41.629388734235974 -31.800101115755325 -11.103550960903968 0 1 0 I I #
point $-1 -36.213870397903975 -24.698091407698023 -11.103550960903968 #
coedge $-1 $415 $328 $331 $429 reversed $316 $-1 #
straight-curve $-1 -36.213870397903975 -24.698091407698023 0 0 0 -1 I I #
edge $-1 $470 -7.1020097080573024 $333 7.1020097080573024 $427 $475 forward 7 unknown #
point $-1 -36.213870397903975 -24.698091407698023 11.103550960903968 #
straight-curve $-1 -41.629388734235974 -31.800101115755325 11.103550960903968 0 -1 0 I I #
coedge $-1 $349 $348 $341 $433 forward $338 $-1 #
edge $-1 $434 49.422577786436051 $437 59.356855120118929 $432 $476 forward 7 unknown #
vertex $-1 $353 $477 #
straight-curve $-1 -37.027118186669981 33.086048156522736 11.103550960903966 0 1 0 I I #
edge $-1 $437 14.693249699318002 $350 29.974487275385954 $349 $478 forward 7 unknown #
vertex $-1 $436 $479 #
straight-curve $-1 -37.027118186669981 -12.010425891971849 34.221771783818369 0 -0.74314481823134659 0.66913061440640931 I I #
point $-1 -37.027118186669981 13.664958915398721 11.103550960903966 #
point $-1 -52.308355762737932 24.698091407698023 1.169273627221088 #
straight-curve $-1 0 24.698091407698023 11.103550960903968 -1 0 0 I I #
vertex $-1 $356 $480 #
point $-1 -48.252108247524347 16.829081894896284 3.5237594185898189 #
vertex $-1 $360 $481 #
point $-1 -43.667736974703956 16.829081894896284 3.5237594185898189 #
vertex $-1 $364 $482 #
point $-1 -39.083365701883572 16.829081894896284 3.5237594185898189 #
coedge $-1 $379 $378 $371 $449 forward $368 $-1 #
edge $-1 $450 49.422577786436051 $453 59.356855120118929 $448 $483 forward 7 unknown #
vertex $-1 $383 $484 #
straight-curve $-1 52.308355762737946 33.086048156522736 11.103550960903966 0 1 0 I I #
edge $-1 $453 -29.974487275385961 $380 -14.69324969931801 $379 $485 forward 7 unknown #
vertex $-1 $452 $486 #
straight-curve $-1 52.308355762737946 -12.010425891971849 34.221771783818369 0 -0.74314481823134659 0.66913061440640931 I I #
point $-1 52.308355762737946 13.664958915398721 11.103550960903966 #
point $-1 37.027118186669995 24.698091407698023 1.169273627221088 #
straight-curve $-1 0 24.698091407698023 11.103550960903968 -1 0 0 I I #
vertex $-1 $386 $487 #
point $-1 41.083365701883579 16.829081894896284 3.5237594185898189 #
vertex $-1 $390 $488 #
point $-1 45.667736974703971 16.829081894896284 3.5237594185898189 #
vertex $-1 $394 $489 #
point $-1 50.252108247524362 16.829081894896284 3.5237594185898189 #
straight-curve $-1 -58.420972319711908 24.698091407698023 0 0 0 -1 I I #
point $-1 -58.420972319711908 -24.698091407698023 -11.103550960903968 #
straight-curve $-1 -58.420972319711908 0 -11.103550960903968 0 1 0 I I #
point $-1 -58.420972319711908 24.698091407698023 -11.103550960903968 #
edge $-1 $470 -11.103550960903968 $423 11.103550960903968 $415 $490 forward 7 unknown #
straight-curve $-1 -38.921629566069974 -38.902110823812627 -11.103550960903968 -1 0 0 I I #
vertex $-1 $429 $491 #
straight-curve $-1 -38.921629566069974 -38.902110823812627 11.103550960903968 1 0 0 I I #
point $-1 -41.629388734235974 -38.902110823812627 11.103550960903968 #
point $-1 -41.629388734235974 -38.902110823812627 -11.103550960903968 #
point $-1 -36.213870397903975 -38.902110823812627 -11.103550960903968 #
straight-curve $-1 -36.213870397903975 -31.800101115755325 11.103550960903968 0 1 0 I I #
straight-curve $-1 -37.027118186669981 24.698091407698023 60.526128747340017 0 0 -1 I I #
point $-1 -37.027118186669981 24.698091407698023 11.103550960903968 #
straight-curve $-1 -22.333868487351978 24.698091407698023 1.1692736272210844 -1 0 0 I I #
point $-1 -37.027118186669981 24.698091407698023 1.169273627221088 #
point $-1 -49.252108247524347 16.159951280489871 2.7806146003584722 #
point $-1 -44.667736974703956 16.159951280489871 2.7806146003584722 #
point $-1 -40.083365701883572 16.159951280489871 2.7806146003584722 #
straight-curve $-1 52.308355762737946 24.698091407698023 60.526128747340017 0 0 -1 I I #
point $-1 52.308355762737946 24.698091407698023 11.103550960903968 #
straight-curve $-1 22.333868487351985 24.698091407698023 1.1692736272210844 -1 0 0 I I #
point $-1 52.308355762737946 24.698091407698023 1.169273627221088 #
point $-1 40.083365701883579 16.159951280489871 2.7806146003584722 #
point $-1 44.667736974703971 16.159951280489871 2.7806146003584722 #
point $-1 49.252108247524362 16.159951280489871 2.7806146003584722 #
straight-curve $-1 -36.213870397903975 -38.902110823812627 0 0 0 -1 I I #
point $-1 -36.213870397903975 -38.902110823812627 11.103550960903968 #
End-of-ACIS-data 