500 0 8 0           
7 Unknown 11 ACIS 5.0 NT 24 Thu Mar 25 15:46:36 1999 
-1 9.9999999999999995e-007 1e-010 
body $-1 $8 $-1 $9 #
body $-1 $10 $-1 $11 #
body $-1 $12 $-1 $13 #
body $-1 $14 $-1 $15 #
body $-1 $16 $-1 $17 #
body $-1 $18 $-1 $19 #
body $-1 $20 $-1 $21 #
body $-1 $22 $-1 $23 #
lump $-1 $-1 $24 $0 #
transform $-1 1 0 0 0 1 0 0 0 1 50.853602710043646 31.471903681017213 9.0259733162020073 1 rotate no_reflect no_shear #
lump $-1 $-1 $25 $1 #
transform $-1 1 0 0 0 1 0 0 0 1 50.853602710043646 31.471903681017213 9.0259733162020073 1 rotate no_reflect no_shear #
lump $-1 $-1 $26 $2 #
transform $-1 1 0 0 0 1 0 0 0 1 50.853602710043646 31.471903681017213 9.0259733162020073 1 rotate no_reflect no_shear #
lump $-1 $-1 $27 $3 #
transform $-1 1 0 0 0 1 0 0 0 1 50.853602710043646 31.471903681017213 9.0259733162020073 1 rotate no_reflect no_shear #
lump $-1 $-1 $28 $4 #
transform $-1 1 0 0 0 1 0 0 0 1 50.853602710043646 31.471903681017213 9.0259733162020073 1 rotate no_reflect no_shear #
lump $-1 $-1 $29 $5 #
transform $-1 1 0 0 0 1 0 0 0 1 50.853602710043646 31.471903681017213 9.0259733162020073 1 rotate no_reflect no_shear #
lump $-1 $-1 $30 $6 #
transform $-1 1 0 0 0 1 0 0 0 1 50.853602710043646 31.471903681017213 9.0259733162020073 1 rotate no_reflect no_shear #
lump $-1 $-1 $31 $7 #
transform $-1 1 0 0 0 1 0 0 0 1 50.853602710043646 31.471903681017213 9.0259733162020073 1 rotate no_reflect no_shear #
shell $-1 $-1 $-1 $32 $-1 $8 #
shell $-1 $-1 $-1 $33 $-1 $10 #
shell $-1 $-1 $-1 $34 $-1 $12 #
shell $-1 $-1 $-1 $35 $-1 $14 #
shell $-1 $-1 $-1 $36 $-1 $16 #
shell $-1 $-1 $-1 $37 $-1 $18 #
shell $-1 $-1 $-1 $38 $-1 $20 #
shell $-1 $-1 $-1 $39 $-1 $22 #
face $-1 $40 $41 $24 $-1 $42 reversed single #
face $-1 $43 $44 $25 $-1 $45 forward single #
face $-1 $46 $47 $26 $-1 $48 forward single #
face $-1 $49 $50 $27 $-1 $51 reversed single #
face $-1 $52 $53 $28 $-1 $54 forward single #
face $-1 $55 $56 $29 $-1 $57 forward single #
face $-1 $58 $59 $30 $-1 $60 reversed single #
face $-1 $61 $62 $31 $-1 $63 forward single #
face $-1 $64 $65 $24 $-1 $66 forward single #
loop $-1 $-1 $67 $32 #
plane-surface $-1 0 -31.471903681017213 0 0 1 0 0 0 1 forward_v I I I I #
face $-1 $68 $69 $25 $-1 $70 reversed single #
loop $-1 $-1 $71 $33 #
plane-surface $-1 0 -31.471903681017213 0 0 1 0 0 0 1 forward_v I I I I #
face $-1 $72 $73 $26 $-1 $74 reversed single #
loop $-1 $-1 $75 $34 #
plane-surface $-1 0 31.471903681017213 0 0 -1 0 0 0 -1 forward_v I I I I #
face $-1 $76 $77 $27 $-1 $78 reversed single #
loop $-1 $-1 $79 $35 #
plane-surface $-1 75.830413521482484 22.73680982593288 145.45328252042549 0 -1 0 -0.81915205242281985 0 -0.57357642473473569 forward_v I I I I #
face $-1 $80 $81 $28 $-1 $82 forward single #
loop $-1 $83 $84 $36 #
cone-surface $-1 47.068260080413921 14.804476123174776 5.0442877089919493 -0.81915205242281985 0 -0.57357642473473569 0.86036463710210354 0 -1.2287280786342298 1 I I 0 1 1.5 forward I I I I #
face $-1 $85 $86 $29 $-1 $87 forward single #
loop $-1 $88 $89 $37 #
cone-surface $-1 47.068260080413921 19.563876344829641 5.0442877089919493 -0.81915205242281985 0 -0.57357642473473569 0.86036463710210354 0 -1.2287280786342298 1 I I 0 1 1.5 forward I I I I #
face $-1 $90 $91 $30 $-1 $92 reversed single #
loop $-1 $-1 $93 $38 #
plane-surface $-1 -124.01564438788859 5.1768640400519352 76.080966445951034 0 1 0 -0.71933980857756763 0 0.69465836192734942 forward_v I I I I #
face $-1 $94 $95 $31 $-1 $96 forward single #
loop $-1 $97 $98 $39 #
cone-surface $-1 -48.548676655008229 9.7708901064261759 6.6788397344018362 0.71933980857756763 0 -0.69465836192734942 0.69465836192734942 0 0.71933980857756763 1 I I 0 1 1 forward I I I I #
face $-1 $99 $100 $24 $-1 $101 reversed single #
loop $-1 $-1 $102 $40 #
plane-surface $-1 0 0 9.0259733162020073 0 0 1 1 0 0 forward_v I I I I #
coedge $-1 $103 $104 $105 $106 reversed $41 $-1 #
face $-1 $107 $108 $25 $-1 $109 reversed single #
loop $-1 $-1 $110 $43 #
plane-surface $-1 0 0 -9.0259733162020073 0 0 1 1 0 0 forward_v I I I I #
coedge $-1 $111 $112 $113 $114 forward $44 $-1 #
face $-1 $115 $116 $26 $-1 $117 forward single #
loop $-1 $-1 $118 $46 #
plane-surface $-1 50.853602710043646 0 0 -1 0 0 0 0 1 forward_v I I I I #
coedge $-1 $119 $120 $121 $122 forward $47 $-1 #
face $-1 $123 $124 $27 $-1 $125 reversed single #
loop $-1 $-1 $126 $49 #
plane-surface $-1 -7.4832525445713713 17.184176234002205 87.116427265810486 0.81915205242281985 0 0.57357642473473569 0.57357642473473569 0 -0.81915205242281985 forward_v I I I I #
coedge $-1 $127 $128 $129 $130 reversed $50 $-1 #
face $-1 $-1 $131 $28 $-1 $132 forward single #
loop $-1 $133 $134 $52 #
cone-surface $-1 44.497219605075969 14.804476123174776 3.2440258414535261 -0.81915205242281985 0 -0.57357642473473569 0.43018231855105177 0 -0.61436403931711492 1 I I -0.70710678118654724 0.70710678118654768 0.75 forward I I I I #
loop $-1 $-1 $135 $36 #
coedge $-1 $84 $84 $136 $137 reversed $53 $-1 #
face $-1 $-1 $138 $29 $-1 $139 forward single #
loop $-1 $140 $141 $55 #
cone-surface $-1 44.497219605075969 19.563876344829641 3.2440258414535261 -0.81915205242281985 0 -0.57357642473473569 0.43018231855105177 0 -0.61436403931711492 1 I I -0.70710678118654724 0.70710678118654768 0.75 forward I I I I #
loop $-1 $-1 $142 $37 #
coedge $-1 $89 $89 $143 $144 reversed $56 $-1 #
face $-1 $145 $146 $30 $-1 $147 reversed single #
loop $-1 $-1 $148 $58 #
plane-surface $-1 -50.853602710043646 9.7708901064261759 5.4292057326247658 -0.71933980857756763 0 0.69465836192734942 0.69465836192734942 0 0.71933980857756763 forward_v I I I I #
coedge $-1 $149 $150 $151 $152 reversed $59 $-1 #
face $-1 $-1 $153 $31 $-1 $154 forward single #
loop $-1 $155 $156 $61 #
cone-surface $-1 -47.620759694988799 9.7708901064261759 5.7827607634266105 0.71933980857756763 0 -0.69465836192734942 0.34732918096367471 0 0.35966990428878381 1 I I -0.70710678118654746 0.70710678118654746 0.5 forward I I I I #
loop $-1 $-1 $157 $39 #
coedge $-1 $98 $98 $158 $159 reversed $62 $-1 #
face $-1 $160 $161 $24 $-1 $162 reversed single #
loop $-1 $-1 $163 $64 #
plane-surface $-1 0 0 -9.0259733162020073 0 0 1 1 0 0 forward_v I I I I #
coedge $-1 $164 $165 $166 $167 forward $65 $-1 #
coedge $-1 $168 $67 $169 $170 reversed $41 $-1 #
coedge $-1 $67 $168 $171 $172 forward $41 $-1 #
coedge $-1 $173 $163 $67 $106 forward $100 $-1 #
edge $-1 $174 -50.853602710043646 $175 50.853602710043646 $67 $176 forward 7 unknown #
face $-1 $177 $178 $25 $-1 $179 reversed single #
loop $-1 $-1 $180 $68 #
plane-surface $-1 -47.416469040533229 -40.742589487671431 0 0 1 0 0 0 1 forward_v I I I I #
coedge $-1 $181 $182 $112 $183 forward $69 $-1 #
coedge $-1 $184 $71 $185 $186 reversed $44 $-1 #
coedge $-1 $71 $184 $110 $183 reversed $44 $-1 #
coedge $-1 $187 $188 $71 $114 reversed $178 $-1 #
edge $-1 $189 -9.0259733162020073 $190 9.0259733162020073 $113 $191 forward 7 unknown #
face $-1 $192 $193 $26 $-1 $194 reversed single #
loop $-1 $-1 $195 $72 #
plane-surface $-1 0 35.839450608559375 -3.0828347293978293 0 0 1 1 0 0 forward_v I I I I #
coedge $-1 $196 $197 $120 $198 forward $73 $-1 #
coedge $-1 $199 $75 $200 $201 reversed $47 $-1 #
coedge $-1 $75 $199 $118 $198 reversed $47 $-1 #
coedge $-1 $195 $202 $75 $122 reversed $116 $-1 #
edge $-1 $203 -50.853602710043646 $204 50.853602710043646 $121 $205 forward 7 unknown #
face $-1 $206 $207 $27 $-1 $208 forward single #
loop $-1 $-1 $209 $76 #
plane-surface $-1 75.830413521482484 11.63154264207153 145.45328252042549 0 1 0 0.81915205242281985 0 0.57357642473473569 forward_v I I I I #
coedge $-1 $210 $211 $212 $213 reversed $77 $-1 #
coedge $-1 $128 $79 $214 $215 reversed $50 $-1 #
coedge $-1 $79 $127 $210 $216 reversed $50 $-1 #
coedge $-1 $212 $217 $79 $130 forward $207 $-1 #
edge $-1 $218 -12.938395949302404 $219 -9.2810635620846114 $129 $220 forward 7 unknown #
loop $-1 $-1 $136 $80 #
plane-surface $-1 -7.4832525445713713 17.184176234002205 87.116427265810486 0.81915205242281985 0 0.57357642473473569 0.57357642473473569 0 -0.81915205242281985 forward_v I I I I #
loop $-1 $-1 $221 $52 #
coedge $-1 $134 $134 $135 $222 reversed $81 $-1 #
coedge $-1 $135 $135 $134 $222 forward $83 $-1 #
coedge $-1 $136 $136 $84 $137 forward $131 $-1 #
edge $-1 $223 0 $223 6.2831853071796004 $136 $224 forward 7 unknown #
loop $-1 $-1 $143 $85 #
plane-surface $-1 -7.4832525445713713 17.184176234002205 87.116427265810486 0.81915205242281985 0 0.57357642473473569 0.57357642473473569 0 -0.81915205242281985 forward_v I I I I #
loop $-1 $-1 $225 $55 #
coedge $-1 $141 $141 $142 $226 reversed $86 $-1 #
coedge $-1 $142 $142 $141 $226 forward $88 $-1 #
coedge $-1 $143 $143 $89 $144 forward $138 $-1 #
edge $-1 $227 0 $227 6.2831853071796004 $143 $228 forward 7 unknown #
face $-1 $229 $230 $30 $-1 $231 reversed single #
loop $-1 $-1 $232 $90 #
plane-surface $-1 -124.01564438788859 14.364916172800417 76.080966445951034 0 -1 0 0.71933980857756763 0 -0.69465836192734942 forward_v I I I I #
coedge $-1 $233 $234 $235 $236 reversed $91 $-1 #
coedge $-1 $150 $93 $237 $238 reversed $59 $-1 #
coedge $-1 $93 $149 $233 $239 reversed $59 $-1 #
coedge $-1 $235 $240 $93 $152 forward $241 $-1 #
edge $-1 $242 11.154219483900647 $243 14.627577482510198 $151 $244 forward 7 unknown #
loop $-1 $-1 $158 $94 #
plane-surface $-1 -50.853602710043646 9.7708901064261759 5.4292057326247658 -0.71933980857756763 0 0.69465836192734942 0.69465836192734942 0 0.71933980857756763 forward_v I I I I #
loop $-1 $-1 $245 $61 #
coedge $-1 $156 $156 $157 $246 reversed $95 $-1 #
coedge $-1 $157 $157 $156 $246 forward $97 $-1 #
coedge $-1 $158 $158 $98 $159 forward $153 $-1 #
edge $-1 $247 0 $247 6.2831853071796004 $158 $248 forward 7 unknown #
face $-1 $249 $250 $24 $-1 $251 reversed single #
loop $-1 $-1 $252 $99 #
plane-surface $-1 -50.853602710043646 0 0 1 0 0 0 0 -1 forward_v I I I I #
coedge $-1 $105 $253 $254 $255 forward $100 $-1 #
coedge $-1 $256 $102 $257 $258 forward $65 $-1 #
coedge $-1 $102 $256 $168 $259 forward $65 $-1 #
coedge $-1 $169 $260 $102 $167 reversed $261 $-1 #
edge $-1 $262 -31.471903681017213 $263 31.471903681017213 $166 $264 forward 7 unknown #
coedge $-1 $104 $103 $165 $259 reversed $41 $-1 #
coedge $-1 $254 $166 $103 $170 forward $261 $-1 #
edge $-1 $262 -9.0259733162020073 $174 9.0259733162020073 $169 $265 forward 7 unknown #
coedge $-1 $266 $267 $104 $172 reversed $161 $-1 #
edge $-1 $268 -9.0259733162020073 $175 9.0259733162020073 $171 $269 forward 7 unknown #
coedge $-1 $253 $105 $267 $270 forward $100 $-1 #
vertex $-1 $170 $271 #
vertex $-1 $270 $272 #
straight-curve $-1 0 -31.471903681017213 -9.0259733162020073 -1 0 0 I I #
face $-1 $273 $274 $25 $-1 $275 reversed single #
loop $-1 $-1 $113 $107 #
plane-surface $-1 -48.916469040533229 -36.107246584344324 0 1 0 0 0 0 -1 forward_v I I I I #
coedge $-1 $276 $277 $278 $279 forward $108 $-1 #
coedge $-1 $280 $110 $281 $282 forward $69 $-1 #
coedge $-1 $110 $280 $187 $283 forward $69 $-1 #
edge $-1 $189 -48.916469040533229 $284 -45.916469040533229 $110 $285 forward 7 unknown #
coedge $-1 $112 $111 $286 $287 forward $44 $-1 #
coedge $-1 $288 $289 $111 $186 forward $290 $-1 #
edge $-1 $291 45.916469040533229 $190 48.916469040533229 $185 $292 forward 7 unknown #
coedge $-1 $278 $113 $182 $283 reversed $178 $-1 #
coedge $-1 $113 $278 $288 $293 reversed $178 $-1 #
vertex $-1 $183 $294 #
vertex $-1 $293 $295 #
straight-curve $-1 -48.916469040533229 -31.471903681017213 0 0 0 1 I I #
face $-1 $296 $297 $26 $-1 $298 reversed single #
loop $-1 $-1 $299 $115 #
plane-surface $-1 0 35.839450608559375 -6.0828347293978293 0 0 1 1 0 0 forward_v I I I I #
coedge $-1 $300 $121 $197 $301 forward $116 $-1 #
coedge $-1 $302 $118 $299 $303 reversed $73 $-1 #
coedge $-1 $118 $302 $195 $301 reversed $73 $-1 #
edge $-1 $203 3.0828347293978293 $304 6.0828347293978293 $118 $305 forward 7 unknown #
coedge $-1 $120 $119 $306 $307 forward $47 $-1 #
coedge $-1 $308 $309 $119 $201 forward $310 $-1 #
edge $-1 $311 -6.0828347293978293 $204 -3.0828347293978293 $200 $312 forward 7 unknown #
coedge $-1 $121 $300 $308 $313 forward $116 $-1 #
vertex $-1 $198 $314 #
vertex $-1 $313 $315 #
straight-curve $-1 0 31.471903681017213 -3.0828347293978293 -1 0 0 I I #
face $-1 $-1 $316 $27 $-1 $317 reversed single #
loop $-1 $-1 $129 $123 #
plane-surface $-1 0 0 9.0259733162020073 0 0 1 1 0 0 forward_v I I I I #
coedge $-1 $318 $319 $320 $321 reversed $124 $-1 #
coedge $-1 $322 $126 $128 $216 forward $77 $-1 #
coedge $-1 $126 $322 $318 $323 forward $77 $-1 #
coedge $-1 $320 $129 $126 $213 forward $207 $-1 #
edge $-1 $219 -14.144721708931778 $324 -3.0394545250704272 $212 $325 forward 7 unknown #
coedge $-1 $326 $327 $127 $215 forward $316 $-1 #
edge $-1 $328 -68.923880060456128 $218 -63.700667944010739 $214 $329 forward 7 unknown #
edge $-1 $219 95.330840859934398 $328 101.70720542008732 $128 $330 forward 7 unknown #
coedge $-1 $129 $320 $326 $331 forward $207 $-1 #
vertex $-1 $215 $332 #
vertex $-1 $130 $333 #
straight-curve $-1 37.915206760741242 22.73680982593288 9.0259733162020126 -1 0 0 I I #
coedge $-1 $221 $221 $-1 $334 reversed $133 $-1 #
edge $-1 $335 0 $335 6.2831853071796004 $134 $336 forward 7 unknown #
vertex $-1 $137 $337 #
ellipse-curve $-1 49.024936516434749 14.804476123174776 6.4143672579793147 0.81915205242281985 0 0.57357642473473569 0.86036463710210354 0 -1.2287280786342298 1 I I #
coedge $-1 $225 $225 $-1 $338 reversed $140 $-1 #
edge $-1 $339 0 $339 6.2831853071796004 $141 $340 forward 7 unknown #
vertex $-1 $144 $341 #
ellipse-curve $-1 49.024936516434749 19.563876344829641 6.4143672579793147 0.81915205242281985 0 0.57357642473473569 0.86036463710210354 0 -1.2287280786342298 1 I I #
face $-1 $-1 $241 $30 $-1 $342 forward single #
loop $-1 $-1 $343 $145 #
plane-surface $-1 -50.853602710043646 0 0 1 0 0 0 0 -1 forward_v I I I I #
coedge $-1 $344 $345 $346 $347 reversed $146 $-1 #
coedge $-1 $348 $148 $150 $239 forward $91 $-1 #
coedge $-1 $148 $348 $344 $349 forward $91 $-1 #
coedge $-1 $346 $151 $148 $236 forward $241 $-1 #
edge $-1 $243 0.29141898683884726 $350 9.4794711195873287 $235 $351 forward 7 unknown #
coedge $-1 $352 $353 $149 $238 forward $230 $-1 #
edge $-1 $354 -32.611277490350751 $242 -29.014509906773512 $237 $355 forward 7 unknown #
edge $-1 $243 -5.00009528276982 $354 0 $150 $356 forward 7 unknown #
coedge $-1 $151 $346 $352 $357 forward $241 $-1 #
loop $-1 $-1 $346 $229 #
vertex $-1 $238 $358 #
vertex $-1 $152 $359 #
straight-curve $-1 -62.007822193944293 5.1768640400519352 9.0259733162020055 1 0 0 I I #
coedge $-1 $245 $245 $-1 $360 reversed $155 $-1 #
edge $-1 $361 0 $361 6.2831853071796004 $156 $362 forward 7 unknown #
vertex $-1 $159 $363 #
ellipse-curve $-1 -49.116923710738874 9.7708901064261759 7.2275895244133848 -0.71933980857756763 0 0.69465836192734942 0.69465836192734942 0 0.71933980857756763 1 I I #
face $-1 $-1 $261 $24 $-1 $364 reversed single #
loop $-1 $-1 $365 $160 #
plane-surface $-1 0 31.471903681017213 0 0 -1 0 0 0 -1 forward_v I I I I #
coedge $-1 $267 $266 $365 $366 forward $161 $-1 #
coedge $-1 $163 $173 $367 $368 forward $100 $-1 #
coedge $-1 $260 $169 $163 $255 reversed $261 $-1 #
edge $-1 $369 -31.471903681017213 $174 31.471903681017213 $254 $370 forward 7 unknown #
coedge $-1 $165 $164 $266 $371 forward $65 $-1 #
coedge $-1 $372 $365 $164 $258 reversed $250 $-1 #
edge $-1 $263 -50.853602710043646 $373 50.853602710043646 $257 $374 forward 7 unknown #
edge $-1 $268 -50.853602710043646 $262 50.853602710043646 $168 $375 forward 7 unknown #
coedge $-1 $166 $254 $372 $376 reversed $261 $-1 #
loop $-1 $-1 $169 $249 #
vertex $-1 $167 $377 #
vertex $-1 $167 $378 #
straight-curve $-1 50.853602710043646 0 9.0259733162020073 0 1 0 I I #
straight-curve $-1 50.853602710043646 -31.471903681017213 0 0 0 -1 I I #
coedge $-1 $252 $171 $256 $371 reversed $161 $-1 #
coedge $-1 $171 $252 $173 $270 reversed $161 $-1 #
vertex $-1 $371 $379 #
straight-curve $-1 -50.853602710043646 -31.471903681017213 0 0 0 -1 I I #
edge $-1 $175 -31.471903681017213 $380 31.471903681017213 $267 $381 forward 7 unknown #
point $-1 50.853602710043646 -31.471903681017213 -9.0259733162020073 #
point $-1 -50.853602710043646 -31.471903681017213 -9.0259733162020073 #
face $-1 $-1 $290 $25 $-1 $382 forward single #
loop $-1 $-1 $383 $177 #
plane-surface $-1 -45.916469040533229 -36.107246584344324 0 -1 0 0 0 0 1 forward_v I I I I #
coedge $-1 $384 $180 $280 $385 reversed $108 $-1 #
coedge $-1 $180 $384 $386 $387 reversed $108 $-1 #
coedge $-1 $188 $187 $180 $279 reversed $178 $-1 #
edge $-1 $388 -9.0259733162020073 $389 9.0259733162020073 $278 $390 forward 7 unknown #
coedge $-1 $182 $181 $276 $385 forward $69 $-1 #
coedge $-1 $286 $383 $181 $282 reversed $274 $-1 #
edge $-1 $284 -4.635342903327107 $391 4.635342903327107 $281 $392 forward 7 unknown #
edge $-1 $389 -4.635342903327107 $189 4.635342903327107 $187 $393 forward 7 unknown #
vertex $-1 $282 $394 #
straight-curve $-1 0 -31.471903681017213 -9.0259733162020073 1 0 0 I I #
coedge $-1 $395 $281 $184 $287 reversed $274 $-1 #
edge $-1 $291 -9.0259733162020073 $284 9.0259733162020073 $286 $396 forward 7 unknown #
coedge $-1 $386 $185 $188 $293 forward $290 $-1 #
coedge $-1 $185 $386 $395 $397 forward $290 $-1 #
loop $-1 $-1 $185 $273 #
vertex $-1 $186 $398 #
straight-curve $-1 0 -31.471903681017213 9.0259733162020073 -1 0 0 I I #
edge $-1 $190 -4.635342903327107 $388 4.635342903327107 $188 $399 forward 7 unknown #
point $-1 -48.916469040533229 -31.471903681017217 -9.0259733162020073 #
point $-1 -48.916469040533229 -31.471903681017217 9.0259733162020073 #
face $-1 $-1 $310 $26 $-1 $400 reversed single #
loop $-1 $-1 $401 $192 #
plane-surface $-1 0 40.206997536101539 -4.5828347293978293 0 -1 0 0 0 -1 forward_v I I I I #
coedge $-1 $306 $402 $196 $303 forward $193 $-1 #
coedge $-1 $202 $195 $403 $404 forward $116 $-1 #
edge $-1 $203 -4.3675469275421612 $405 4.3675469275421648 $197 $406 forward 7 unknown #
coedge $-1 $197 $196 $401 $407 reversed $73 $-1 #
edge $-1 $408 -4.3675469275421648 $304 4.3675469275421612 $196 $409 forward 7 unknown #
vertex $-1 $198 $410 #
straight-curve $-1 50.853602710043646 31.471903681017213 0 0 0 -1 I I #
coedge $-1 $411 $299 $199 $307 reversed $193 $-1 #
edge $-1 $311 -50.853602710043646 $304 50.853602710043646 $306 $412 forward 7 unknown #
coedge $-1 $413 $200 $202 $313 reversed $310 $-1 #
coedge $-1 $200 $413 $411 $414 reversed $310 $-1 #
loop $-1 $-1 $200 $296 #
vertex $-1 $201 $415 #
straight-curve $-1 -50.853602710043646 31.471903681017213 0 0 0 1 I I #
edge $-1 $416 -4.3675469275421648 $204 4.3675469275421612 $308 $417 forward 7 unknown #
point $-1 50.853602710043646 31.471903681017213 -3.0828347293978293 #
point $-1 -50.853602710043646 31.471903681017213 -3.0828347293978293 #
loop $-1 $-1 $214 $206 #
plane-surface $-1 50.853602710043646 0 0 -1 0 0 0 0 1 forward_v I I I I #
coedge $-1 $319 $209 $211 $323 reversed $124 $-1 #
coedge $-1 $209 $318 $418 $419 reversed $124 $-1 #
coedge $-1 $217 $212 $209 $321 forward $207 $-1 #
edge $-1 $324 9.2810635620846114 $420 12.938395949302404 $320 $421 forward 7 unknown #
coedge $-1 $211 $210 $327 $422 reversed $77 $-1 #
edge $-1 $423 -101.70720542008732 $324 -95.330840859934398 $318 $424 forward 7 unknown #
vertex $-1 $213 $425 #
straight-curve $-1 47.196270322825868 8.5920881170011025 9.0259733162019984 0 -1 0 I I #
coedge $-1 $418 $214 $217 $331 reversed $316 $-1 #
coedge $-1 $214 $418 $322 $422 forward $316 $-1 #
vertex $-1 $215 $426 #
straight-curve $-1 50.853602710043646 22.73680982593288 72.726641260212745 0 0 1 I I #
straight-curve $-1 -7.4832525445713713 22.73680982593288 87.116427265810486 0.57357642473473569 0 -0.81915205242281985 I I #
edge $-1 $420 11.63154264207153 $218 22.73680982593288 $326 $427 forward 7 unknown #
point $-1 50.853602710043646 22.73680982593288 9.0259733162020073 #
point $-1 47.196270322825853 22.73680982593288 9.0259733162020126 #
edge $-1 $428 1 $428 0 $221 $-1 forward 7 unknown #
vertex $-1 $222 $429 #
ellipse-curve $-1 45.111583644393086 14.804476123174776 3.6742081600045782 0.81915205242281985 0 0.57357642473473569 0.86036463710210354 0 -1.2287280786342298 1 I I #
point $-1 49.885301153536865 14.804476123174776 5.1856391793450909 #
edge $-1 $430 1 $430 0 $225 $-1 forward 7 unknown #
vertex $-1 $226 $431 #
ellipse-curve $-1 45.111583644393086 19.563876344829641 3.6742081600045782 0.81915205242281985 0 0.57357642473473569 0.86036463710210354 0 -1.2287280786342298 1 I I #
point $-1 49.885301153536865 19.563876344829641 5.1856391793450909 #
plane-surface $-1 0 0 9.0259733162020073 0 0 1 1 0 0 forward_v I I I I #
coedge $-1 $353 $352 $345 $432 forward $230 $-1 #
coedge $-1 $345 $232 $234 $349 reversed $146 $-1 #
coedge $-1 $232 $344 $343 $432 reversed $146 $-1 #
coedge $-1 $240 $235 $232 $347 forward $241 $-1 #
edge $-1 $350 -14.627577482510198 $433 -11.154219483900647 $346 $434 forward 7 unknown #
coedge $-1 $234 $233 $353 $435 reversed $91 $-1 #
edge $-1 $436 0 $350 5.00009528276982 $344 $437 forward 7 unknown #
vertex $-1 $236 $438 #
straight-curve $-1 -47.380244711434088 4.885445053213088 9.025973316202009 0 1 0 I I #
coedge $-1 $343 $237 $240 $357 reversed $230 $-1 #
coedge $-1 $237 $343 $348 $435 forward $230 $-1 #
vertex $-1 $238 $439 #
straight-curve $-1 -50.853602710043646 5.1768640400519352 38.040483222975517 0 0 1 I I #
straight-curve $-1 -50.853602710043646 5.1768640400519352 5.4292057326247658 -0.69465836192734942 0 -0.71933980857756763 I I #
edge $-1 $433 -14.364916172800417 $242 -5.1768640400519352 $352 $440 forward 7 unknown #
point $-1 -50.853602710043646 5.1768640400519352 9.0259733162020073 #
point $-1 -47.380244711434095 5.1768640400519352 9.0259733162020073 #
edge $-1 $441 1 $441 0 $245 $-1 forward 7 unknown #
vertex $-1 $246 $442 #
ellipse-curve $-1 -47.980429599277585 9.7708901064261759 6.130089944390285 -0.71933980857756763 0 0.69465836192734942 0.69465836192734942 0 0.71933980857756763 1 I I #
point $-1 -48.422265348811521 9.7708901064261759 7.9469293329909547 #
plane-surface $-1 50.853602710043646 0 0 -1 0 0 0 0 1 forward_v I I I I #
coedge $-1 $257 $367 $252 $366 reversed $250 $-1 #
edge $-1 $373 -9.0259733162020073 $380 9.0259733162020073 $365 $443 forward 7 unknown #
coedge $-1 $365 $372 $253 $368 reversed $250 $-1 #
edge $-1 $380 -50.853602710043646 $369 50.853602710043646 $367 $444 forward 7 unknown #
vertex $-1 $255 $445 #
straight-curve $-1 50.853602710043646 0 -9.0259733162020073 0 -1 0 I I #
edge $-1 $373 -31.471903681017213 $268 31.471903681017213 $266 $446 forward 7 unknown #
coedge $-1 $367 $257 $260 $376 forward $250 $-1 #
vertex $-1 $258 $447 #
straight-curve $-1 0 31.471903681017213 9.0259733162020073 -1 0 0 I I #
straight-curve $-1 0 -31.471903681017213 9.0259733162020073 1 0 0 I I #
edge $-1 $263 -9.0259733162020073 $369 9.0259733162020073 $260 $448 forward 7 unknown #
point $-1 50.853602710043646 -31.471903681017213 9.0259733162020073 #
point $-1 50.853602710043646 31.471903681017213 9.0259733162020073 #
point $-1 -50.853602710043646 -31.471903681017213 9.0259733162020073 #
vertex $-1 $368 $449 #
straight-curve $-1 -50.853602710043646 0 -9.0259733162020073 0 1 0 I I #
plane-surface $-1 0 0 9.0259733162020073 0 0 1 1 0 0 forward_v I I I I #
coedge $-1 $281 $395 $384 $450 forward $274 $-1 #
coedge $-1 $277 $276 $383 $450 reversed $108 $-1 #
edge $-1 $391 -1.5 $389 1.5 $276 $451 forward 7 unknown #
coedge $-1 $289 $288 $277 $387 forward $290 $-1 #
edge $-1 $388 -1.5 $452 1.5 $277 $453 forward 7 unknown #
vertex $-1 $293 $454 #
vertex $-1 $283 $455 #
straight-curve $-1 -48.916469040533229 -40.742589487671431 0 0 0 -1 I I #
vertex $-1 $450 $456 #
straight-curve $-1 -45.916469040533229 -36.107246584344324 -9.0259733162020073 0 -1 0 I I #
straight-curve $-1 -48.916469040533229 -36.107246584344324 -9.0259733162020073 0 1 0 I I #
point $-1 -45.916469040533229 -31.471903681017217 -9.0259733162020073 #
coedge $-1 $383 $286 $289 $397 reversed $274 $-1 #
straight-curve $-1 -45.916469040533229 -31.471903681017213 0 0 0 -1 I I #
edge $-1 $452 -4.635342903327107 $291 4.635342903327107 $395 $457 forward 7 unknown #
point $-1 -45.916469040533229 -31.471903681017217 9.0259733162020073 #
straight-curve $-1 -48.916469040533229 -36.107246584344324 9.0259733162020073 0 -1 0 I I #
plane-surface $-1 -50.853602710043646 0 0 1 0 0 0 0 -1 forward_v I I I I #
coedge $-1 $458 $403 $302 $407 forward $297 $-1 #
coedge $-1 $299 $411 $458 $459 forward $193 $-1 #
coedge $-1 $401 $460 $300 $404 reversed $297 $-1 #
edge $-1 $405 -50.853602710043646 $416 50.853602710043646 $403 $461 forward 7 unknown #
vertex $-1 $301 $462 #
straight-curve $-1 50.853602710043646 35.839450608559375 -3.0828347293978293 0 1 0 I I #
edge $-1 $405 -1.5 $408 1.5 $302 $463 forward 7 unknown #
vertex $-1 $303 $464 #
straight-curve $-1 50.853602710043646 35.839450608559375 -6.0828347293978293 0 -1 0 I I #
point $-1 50.853602710043646 31.471903681017213 -6.0828347293978293 #
coedge $-1 $402 $306 $309 $414 forward $193 $-1 #
straight-curve $-1 0 31.471903681017213 -6.0828347293978293 1 0 0 I I #
coedge $-1 $309 $308 $460 $465 forward $310 $-1 #
edge $-1 $311 -4.3675469275421612 $466 4.3675469275421648 $309 $467 forward 7 unknown #
point $-1 -50.853602710043646 31.471903681017213 -6.0828347293978293 #
vertex $-1 $404 $468 #
straight-curve $-1 -50.853602710043646 35.839450608559375 -3.0828347293978293 0 -1 0 I I #
coedge $-1 $327 $326 $319 $419 forward $316 $-1 #
edge $-1 $420 63.700667944010739 $423 68.923880060456128 $418 $469 forward 7 unknown #
vertex $-1 $331 $470 #
straight-curve $-1 37.915206760741242 11.63154264207153 9.0259733162020126 1 0 0 I I #
edge $-1 $423 3.0394545250704272 $328 14.144721708931778 $327 $471 forward 7 unknown #
vertex $-1 $422 $472 #
straight-curve $-1 -7.4832525445713713 11.63154264207153 87.116427265810486 -0.57357642473473569 0 0.81915205242281985 I I #
point $-1 47.196270322825853 11.63154264207153 9.0259733162020126 #
point $-1 50.853602710043646 22.73680982593288 3.8027611997566169 #
straight-curve $-1 50.853602710043646 0 9.0259733162020073 0 1 0 I I #
vertex $-1 $334 $473 #
point $-1 45.971948281495187 14.804476123174776 2.4454800813703486 #
vertex $-1 $338 $474 #
point $-1 45.971948281495187 19.563876344829641 2.4454800813703486 #
edge $-1 $433 29.014509906773512 $436 32.611277490350751 $343 $475 forward 7 unknown #
vertex $-1 $357 $476 #
straight-curve $-1 -62.007822193944293 14.364916172800417 9.0259733162020055 -1 0 0 I I #
edge $-1 $436 -9.4794711195873287 $354 -0.29141898683884726 $353 $477 forward 7 unknown #
vertex $-1 $435 $478 #
straight-curve $-1 -50.853602710043646 14.364916172800417 5.4292057326247658 0.69465836192734942 0 0.71933980857756763 I I #
point $-1 -47.380244711434095 14.364916172800417 9.0259733162020073 #
point $-1 -50.853602710043646 5.1768640400519352 5.4292057326247658 #
straight-curve $-1 -50.853602710043646 0 9.0259733162020073 0 -1 0 I I #
vertex $-1 $360 $479 #
point $-1 -47.285771237350232 9.7708901064261759 6.8494297529678523 #
straight-curve $-1 -50.853602710043646 31.471903681017213 0 0 0 -1 I I #
straight-curve $-1 0 31.471903681017213 -9.0259733162020073 1 0 0 I I #
point $-1 50.853602710043646 31.471903681017213 -9.0259733162020073 #
straight-curve $-1 -50.853602710043646 0 9.0259733162020073 0 -1 0 I I #
point $-1 -50.853602710043646 31.471903681017213 9.0259733162020073 #
straight-curve $-1 50.853602710043646 31.471903681017213 0 0 0 -1 I I #
point $-1 -50.853602710043646 31.471903681017213 -9.0259733162020073 #
edge $-1 $452 -9.0259733162020073 $391 9.0259733162020073 $383 $480 forward 7 unknown #
straight-curve $-1 -47.416469040533229 -40.742589487671431 -9.0259733162020073 -1 0 0 I I #
vertex $-1 $397 $481 #
straight-curve $-1 -47.416469040533229 -40.742589487671431 9.0259733162020073 1 0 0 I I #
point $-1 -48.916469040533229 -40.742589487671431 9.0259733162020073 #
point $-1 -48.916469040533229 -40.742589487671431 -9.0259733162020073 #
point $-1 -45.916469040533229 -40.742589487671431 -9.0259733162020073 #
straight-curve $-1 -45.916469040533229 -36.107246584344324 9.0259733162020073 0 1 0 I I #
coedge $-1 $460 $401 $402 $459 reversed $297 $-1 #
edge $-1 $466 -50.853602710043646 $408 50.853602710043646 $458 $482 forward 7 unknown #
coedge $-1 $403 $458 $413 $465 reversed $297 $-1 #
straight-curve $-1 0 40.206997536101539 -3.0828347293978293 -1 0 0 I I #
point $-1 50.853602710043646 40.206997536101539 -3.0828347293978293 #
straight-curve $-1 50.853602710043646 40.206997536101539 -4.5828347293978293 0 0 -1 I I #
point $-1 50.853602710043646 40.206997536101539 -6.0828347293978293 #
edge $-1 $416 -1.5 $466 1.5 $460 $483 forward 7 unknown #
vertex $-1 $459 $484 #
straight-curve $-1 -50.853602710043646 35.839450608559375 -6.0828347293978293 0 1 0 I I #
point $-1 -50.853602710043646 40.206997536101539 -3.0828347293978293 #
straight-curve $-1 50.853602710043646 11.63154264207153 72.726641260212745 0 0 -1 I I #
point $-1 50.853602710043646 11.63154264207153 9.0259733162020073 #
straight-curve $-1 50.853602710043653 8.5920881170011025 3.8027611997566027 0 1 0 I I #
point $-1 50.853602710043646 11.63154264207153 3.8027611997566169 #
point $-1 43.882855565758852 14.804476123174776 2.8138435229024741 #
point $-1 43.882855565758852 19.563876344829641 2.8138435229024741 #
straight-curve $-1 -50.853602710043646 14.364916172800417 38.040483222975517 0 0 -1 I I #
point $-1 -50.853602710043646 14.364916172800417 9.0259733162020073 #
straight-curve $-1 -50.853602710043646 4.885445053213088 5.4292057326247622 0 -1 0 I I #
point $-1 -50.853602710043646 14.364916172800417 5.4292057326247658 #
point $-1 -47.261089790700012 9.7708901064261759 5.435431582462936 #
straight-curve $-1 -45.916469040533229 -40.742589487671431 0 0 0 -1 I I #
point $-1 -45.916469040533229 -40.742589487671431 9.0259733162020073 #
straight-curve $-1 0 40.206997536101539 -6.0828347293978293 1 0 0 I I #
straight-curve $-1 -50.853602710043646 40.206997536101539 -4.5828347293978293 0 0 -1 I I #
point $-1 -50.853602710043646 40.206997536101539 -6.0828347293978293 #
End-of-ACIS-data 