500 0 5 0           
7 Unknown 11 ACIS 5.0 NT 24 Fri Mar 26 19:31:16 1999 
-1 9.9999999999999995e-007 1e-010 
body $-1 $5 $-1 $6 #
body $-1 $7 $-1 $8 #
body $-1 $9 $-1 $10 #
body $-1 $11 $-1 $12 #
body $-1 $13 $-1 $14 #
lump $-1 $-1 $15 $0 #
transform $-1 1 0 0 0 1 0 0 0 1 49.166539506210519 34.322947109433649 10.227331116439629 1 rotate no_reflect no_shear #
lump $-1 $-1 $16 $1 #
transform $-1 1 0 0 0 1 0 0 0 1 49.166539506210519 34.322947109433649 10.227331116439629 1 rotate no_reflect no_shear #
lump $-1 $-1 $17 $2 #
transform $-1 1 0 0 0 1 0 0 0 1 49.166539506210519 34.322947109433649 10.227331116439629 1 rotate no_reflect no_shear #
lump $-1 $-1 $18 $3 #
transform $-1 1 0 0 0 1 0 0 0 1 49.166539506210519 34.322947109433649 10.227331116439629 1 rotate no_reflect no_shear #
lump $-1 $-1 $19 $4 #
transform $-1 1 0 0 0 1 0 0 0 1 49.166539506210519 34.322947109433649 10.227331116439629 1 rotate no_reflect no_shear #
shell $-1 $-1 $-1 $20 $-1 $5 #
shell $-1 $-1 $-1 $21 $-1 $7 #
shell $-1 $-1 $-1 $22 $-1 $9 #
shell $-1 $-1 $-1 $23 $-1 $11 #
shell $-1 $-1 $-1 $24 $-1 $13 #
face $-1 $25 $26 $15 $-1 $27 forward single #
face $-1 $28 $29 $16 $-1 $30 reversed single #
face $-1 $31 $32 $17 $-1 $33 reversed single #
face $-1 $34 $35 $18 $-1 $36 forward single #
face $-1 $37 $38 $19 $-1 $39 forward single #
face $-1 $40 $41 $15 $-1 $42 reversed single #
loop $-1 $-1 $43 $20 #
plane-surface $-1 0 0 10.227331116439629 0 0 1 1 0 0 forward_v I I I I #
face $-1 $44 $45 $16 $-1 $46 reversed single #
loop $-1 $-1 $47 $21 #
plane-surface $-1 -37.047835755546643 -27.928672498275201 0 1 0 0 0 0 -1 forward_v I I I I #
face $-1 $48 $49 $17 $-1 $50 reversed single #
loop $-1 $-1 $51 $22 #
plane-surface $-1 29.812576330819404 2.9900105369578398 143.80202226336138 0 -1 0 -0.6018150307709319 0 -0.79863550430605224 forward_v I I I I #
face $-1 $52 $53 $18 $-1 $54 forward single #
loop $-1 $55 $56 $23 #
cone-surface $-1 45.108993773357589 -8.5594389436594973 6.4166035122347918 -0.6018150307709319 0 -0.79863550430605224 1.1979532564590785 0 -0.90272254615639791 1 I I 0 1 1.5 forward I I I I #
face $-1 $57 $58 $19 $-1 $59 forward single #
loop $-1 $60 $61 $24 #
cone-surface $-1 45.108993773357589 -1.6297692552890979 6.4166035122347918 -0.6018150307709319 0 -0.79863550430605224 1.1979532564590785 0 -0.90272254615639791 1 I I 0 1 1.5 forward I I I I #
face $-1 $62 $63 $15 $-1 $64 reversed single #
loop $-1 $-1 $65 $25 #
plane-surface $-1 0 0 -10.227331116439629 0 0 1 1 0 0 forward_v I I I I #
coedge $-1 $66 $67 $68 $69 forward $26 $-1 #
face $-1 $70 $71 $16 $-1 $72 reversed single #
loop $-1 $-1 $73 $28 #
plane-surface $-1 -35.547835755546643 -21.534397887116754 0 0 -1 0 0 0 -1 forward_v I I I I #
coedge $-1 $74 $75 $76 $77 forward $29 $-1 #
face $-1 $78 $79 $17 $-1 $80 reversed single #
loop $-1 $-1 $81 $31 #
plane-surface $-1 -29.36574864084124 -5.0946040994742958 65.269734116309621 0.6018150307709319 0 0.79863550430605224 0.79863550430605224 0 -0.6018150307709319 forward_v I I I I #
coedge $-1 $82 $83 $84 $85 reversed $32 $-1 #
face $-1 $-1 $86 $18 $-1 $87 forward single #
loop $-1 $88 $89 $34 #
cone-surface $-1 43.344363630601684 -8.5594389436594973 4.0748602656957402 -0.6018150307709319 0 -0.79863550430605224 0.59897662822953923 0 -0.45136127307819895 1 I I -0.70710678118654757 0.70710678118654757 0.75 forward I I I I #
loop $-1 $-1 $90 $23 #
coedge $-1 $56 $56 $91 $92 reversed $35 $-1 #
face $-1 $-1 $93 $19 $-1 $94 forward single #
loop $-1 $95 $96 $37 #
cone-surface $-1 43.344363630601684 -1.6297692552890979 4.0748602656957402 -0.6018150307709319 0 -0.79863550430605224 0.59897662822953923 0 -0.45136127307819895 1 I I -0.70710678118654757 0.70710678118654757 0.75 forward I I I I #
loop $-1 $-1 $97 $24 #
coedge $-1 $61 $61 $98 $99 reversed $38 $-1 #
face $-1 $100 $101 $15 $-1 $102 reversed single #
loop $-1 $-1 $103 $40 #
plane-surface $-1 0 -34.322947109433649 0 0 1 0 0 0 1 forward_v I I I I #
coedge $-1 $104 $105 $106 $107 forward $41 $-1 #
coedge $-1 $108 $43 $109 $110 forward $26 $-1 #
coedge $-1 $43 $108 $111 $112 forward $26 $-1 #
coedge $-1 $113 $114 $43 $69 reversed $115 $-1 #
edge $-1 $116 -34.322947109433649 $117 34.322947109433649 $68 $118 forward 7 unknown #
face $-1 $119 $120 $16 $-1 $121 forward single #
loop $-1 $-1 $122 $44 #
plane-surface $-1 -34.047835755546643 -27.928672498275201 0 -1 0 0 0 0 1 forward_v I I I I #
coedge $-1 $123 $124 $125 $126 forward $45 $-1 #
coedge $-1 $127 $47 $128 $129 reversed $29 $-1 #
coedge $-1 $47 $127 $130 $131 reversed $29 $-1 #
coedge $-1 $124 $123 $47 $77 reversed $45 $-1 #
edge $-1 $132 -10.227331116439629 $133 10.227331116439629 $76 $134 forward 7 unknown #
face $-1 $135 $136 $17 $-1 $137 reversed single #
loop $-1 $-1 $138 $48 #
plane-surface $-1 29.812576330819404 -13.179218735906431 143.80202226336138 0 1 0 0.6018150307709319 0 0.79863550430605224 forward_v I I I I #
coedge $-1 $139 $140 $141 $142 reversed $49 $-1 #
coedge $-1 $83 $51 $143 $144 reversed $32 $-1 #
coedge $-1 $51 $82 $139 $145 reversed $32 $-1 #
coedge $-1 $141 $146 $51 $85 forward $147 $-1 #
edge $-1 $148 -34.260251340800821 $149 -28.771697614450357 $84 $150 forward 7 unknown #
loop $-1 $-1 $91 $52 #
plane-surface $-1 -29.36574864084124 -5.0946040994742958 65.269734116309621 0.6018150307709319 0 0.79863550430605224 0.79863550430605224 0 -0.6018150307709319 forward_v I I I I #
loop $-1 $-1 $151 $34 #
coedge $-1 $89 $89 $90 $152 reversed $53 $-1 #
coedge $-1 $90 $90 $89 $152 forward $55 $-1 #
coedge $-1 $91 $91 $56 $92 forward $86 $-1 #
edge $-1 $153 0 $153 6.2831853071796004 $91 $154 forward 7 unknown #
loop $-1 $-1 $98 $57 #
plane-surface $-1 -29.36574864084124 -5.0946040994742958 65.269734116309621 0.6018150307709319 0 0.79863550430605224 0.79863550430605224 0 -0.6018150307709319 forward_v I I I I #
loop $-1 $-1 $155 $37 #
coedge $-1 $96 $96 $97 $156 reversed $58 $-1 #
coedge $-1 $97 $97 $96 $156 forward $60 $-1 #
coedge $-1 $98 $98 $61 $99 forward $93 $-1 #
edge $-1 $157 0 $157 6.2831853071796004 $98 $158 forward 7 unknown #
face $-1 $159 $160 $15 $-1 $161 reversed single #
loop $-1 $-1 $162 $62 #
plane-surface $-1 -49.166539506210519 0 0 1 0 0 0 0 -1 forward_v I I I I #
coedge $-1 $163 $111 $164 $165 forward $63 $-1 #
coedge $-1 $166 $65 $163 $167 forward $41 $-1 #
coedge $-1 $65 $166 $168 $169 forward $41 $-1 #
coedge $-1 $114 $113 $65 $107 reversed $115 $-1 #
edge $-1 $170 -34.322947109433649 $171 34.322947109433649 $106 $172 forward 7 unknown #
coedge $-1 $67 $66 $173 $174 forward $26 $-1 #
coedge $-1 $175 $176 $66 $110 reversed $160 $-1 #
edge $-1 $117 -49.166539506210519 $177 49.166539506210519 $109 $178 forward 7 unknown #
coedge $-1 $103 $179 $67 $112 reversed $63 $-1 #
edge $-1 $180 -49.166539506210519 $116 49.166539506210519 $111 $181 forward 7 unknown #
coedge $-1 $106 $68 $179 $182 forward $115 $-1 #
coedge $-1 $68 $106 $175 $183 reversed $115 $-1 #
loop $-1 $-1 $113 $159 #
vertex $-1 $69 $184 #
vertex $-1 $69 $185 #
straight-curve $-1 49.166539506210519 0 10.227331116439629 0 1 0 I I #
face $-1 $186 $187 $16 $-1 $188 reversed single #
loop $-1 $-1 $189 $70 #
plane-surface $-1 0 0 10.227331116439629 0 0 1 1 0 0 forward_v I I I I #
coedge $-1 $190 $191 $192 $193 reversed $71 $-1 #
coedge $-1 $76 $73 $194 $195 reversed $45 $-1 #
coedge $-1 $73 $76 $196 $197 reversed $45 $-1 #
coedge $-1 $191 $190 $73 $126 reversed $71 $-1 #
edge $-1 $198 -10.227331116439629 $199 10.227331116439629 $125 $200 forward 7 unknown #
coedge $-1 $75 $74 $201 $202 reversed $29 $-1 #
coedge $-1 $194 $203 $74 $129 forward $187 $-1 #
edge $-1 $204 -20.358610860296046 $133 -7.570061637979153 $128 $205 forward 7 unknown #
coedge $-1 $206 $196 $75 $131 forward $120 $-1 #
edge $-1 $132 7.570061637979153 $207 20.358610860296046 $130 $208 forward 7 unknown #
vertex $-1 $131 $209 #
vertex $-1 $129 $210 #
straight-curve $-1 -37.047835755546643 -21.534397887116754 0 0 0 -1 I I #
face $-1 $-1 $147 $17 $-1 $211 forward single #
loop $-1 $-1 $212 $78 #
plane-surface $-1 49.166539506210519 0 0 -1 0 0 0 0 1 forward_v I I I I #
coedge $-1 $213 $214 $215 $216 reversed $79 $-1 #
coedge $-1 $217 $81 $83 $145 forward $49 $-1 #
coedge $-1 $81 $217 $213 $218 forward $49 $-1 #
coedge $-1 $215 $84 $81 $142 forward $147 $-1 #
edge $-1 $149 -5.5373125866949877 $219 10.631916686169284 $141 $220 forward 7 unknown #
coedge $-1 $221 $222 $82 $144 forward $136 $-1 #
edge $-1 $223 -65.809601987031712 $148 -61.673680015241061 $143 $224 forward 7 unknown #
edge $-1 $149 91.460665130546914 $223 98.333079012421052 $83 $225 forward 7 unknown #
coedge $-1 $84 $215 $221 $226 forward $147 $-1 #
loop $-1 $-1 $215 $135 #
vertex $-1 $144 $227 #
vertex $-1 $85 $228 #
straight-curve $-1 14.906288165409702 2.9900105369578398 10.227331116439629 -1 0 0 I I #
coedge $-1 $151 $151 $-1 $229 reversed $88 $-1 #
edge $-1 $230 0 $230 6.2831853071796004 $89 $231 forward 7 unknown #
vertex $-1 $92 $232 #
ellipse-curve $-1 46.422262643035296 -8.5594389436594973 8.1593701305443069 0.6018150307709319 0 0.79863550430605224 1.1979532564590785 0 -0.90272254615639791 1 I I #
coedge $-1 $155 $155 $-1 $233 reversed $95 $-1 #
edge $-1 $234 0 $234 6.2831853071796004 $96 $235 forward 7 unknown #
vertex $-1 $99 $236 #
ellipse-curve $-1 46.422262643035296 -1.6297692552890979 8.1593701305443069 0.6018150307709319 0 0.79863550430605224 1.1979532564590785 0 -0.90272254615639791 1 I I #
face $-1 $-1 $115 $15 $-1 $237 reversed single #
loop $-1 $-1 $175 $100 #
plane-surface $-1 0 34.322947109433649 0 0 -1 0 0 0 -1 forward_v I I I I #
coedge $-1 $238 $173 $176 $239 forward $101 $-1 #
coedge $-1 $179 $103 $104 $167 reversed $63 $-1 #
coedge $-1 $173 $238 $103 $165 reversed $101 $-1 #
edge $-1 $180 -10.227331116439629 $240 10.227331116439629 $164 $241 forward 7 unknown #
coedge $-1 $105 $104 $238 $242 forward $41 $-1 #
edge $-1 $171 -49.166539506210519 $240 49.166539506210519 $163 $243 forward 7 unknown #
coedge $-1 $176 $175 $105 $169 reversed $160 $-1 #
edge $-1 $244 -49.166539506210519 $170 49.166539506210519 $168 $245 forward 7 unknown #
vertex $-1 $107 $246 #
vertex $-1 $182 $247 #
straight-curve $-1 49.166539506210519 0 -10.227331116439629 0 -1 0 I I #
coedge $-1 $162 $164 $108 $174 reversed $101 $-1 #
edge $-1 $177 -34.322947109433649 $180 34.322947109433649 $173 $248 forward 7 unknown #
coedge $-1 $168 $109 $114 $183 forward $160 $-1 #
coedge $-1 $109 $168 $162 $239 reversed $160 $-1 #
vertex $-1 $110 $249 #
straight-curve $-1 0 34.322947109433649 10.227331116439629 -1 0 0 I I #
coedge $-1 $111 $163 $113 $182 reversed $63 $-1 #
vertex $-1 $174 $250 #
straight-curve $-1 0 -34.322947109433649 10.227331116439629 1 0 0 I I #
edge $-1 $116 -10.227331116439629 $171 10.227331116439629 $113 $251 forward 7 unknown #
edge $-1 $117 -10.227331116439629 $170 10.227331116439629 $114 $252 forward 7 unknown #
point $-1 49.166539506210519 -34.322947109433649 10.227331116439629 #
point $-1 49.166539506210519 34.322947109433649 10.227331116439629 #
face $-1 $-1 $253 $16 $-1 $254 reversed single #
loop $-1 $-1 $255 $119 #
plane-surface $-1 0 0 -10.227331116439629 0 0 1 1 0 0 forward_v I I I I #
coedge $-1 $196 $206 $191 $256 forward $120 $-1 #
coedge $-1 $125 $122 $255 $257 reversed $71 $-1 #
coedge $-1 $122 $125 $189 $256 reversed $71 $-1 #
coedge $-1 $258 $259 $122 $193 forward $253 $-1 #
edge $-1 $260 -10.227331116439629 $261 10.227331116439629 $192 $262 forward 7 unknown #
coedge $-1 $255 $128 $123 $195 forward $187 $-1 #
edge $-1 $133 -19.273917877773322 $199 -16.273917877773322 $194 $263 forward 7 unknown #
coedge $-1 $130 $189 $124 $197 forward $120 $-1 #
edge $-1 $198 16.273917877773322 $132 19.273917877773322 $196 $264 forward 7 unknown #
vertex $-1 $197 $265 #
vertex $-1 $195 $266 #
straight-curve $-1 -34.047835755546643 -21.534397887116754 0 0 0 -1 I I #
coedge $-1 $259 $258 $127 $202 forward $253 $-1 #
edge $-1 $207 -10.227331116439629 $204 10.227331116439629 $201 $267 forward 7 unknown #
coedge $-1 $128 $255 $259 $268 forward $187 $-1 #
vertex $-1 $129 $269 #
straight-curve $-1 -37.047835755546643 -13.964336249137601 -10.227331116439629 0 1 0 I I #
coedge $-1 $189 $130 $258 $270 forward $120 $-1 #
vertex $-1 $270 $271 #
straight-curve $-1 -37.047835755546643 -13.964336249137601 10.227331116439629 0 -1 0 I I #
point $-1 -37.047835755546643 -21.534397887116754 10.227331116439629 #
point $-1 -37.047835755546643 -21.534397887116754 -10.227331116439629 #
plane-surface $-1 0 0 10.227331116439629 0 0 1 1 0 0 forward_v I I I I #
coedge $-1 $222 $221 $214 $272 forward $136 $-1 #
coedge $-1 $214 $138 $140 $218 reversed $79 $-1 #
coedge $-1 $138 $213 $212 $272 reversed $79 $-1 #
coedge $-1 $146 $141 $138 $216 forward $147 $-1 #
edge $-1 $219 28.771697614450357 $273 34.260251340800821 $215 $274 forward 7 unknown #
coedge $-1 $140 $139 $222 $275 reversed $49 $-1 #
edge $-1 $276 -98.333079012421052 $219 -91.460665130546914 $213 $277 forward 7 unknown #
vertex $-1 $142 $278 #
straight-curve $-1 43.677985779860059 -2.5473020497371479 10.227331116439629 0 -1 0 I I #
coedge $-1 $212 $143 $146 $226 reversed $136 $-1 #
coedge $-1 $143 $212 $217 $275 forward $136 $-1 #
vertex $-1 $144 $279 #
straight-curve $-1 49.166539506210519 2.9900105369578398 71.90101113168069 0 0 1 I I #
straight-curve $-1 -29.36574864084124 2.9900105369578398 65.269734116309621 0.79863550430605224 0 -0.6018150307709319 I I #
edge $-1 $273 -13.179218735906431 $148 2.9900105369578398 $221 $280 forward 7 unknown #
point $-1 49.166539506210519 2.9900105369578398 10.227331116439629 #
point $-1 43.677985779860059 2.9900105369578398 10.227331116439629 #
edge $-1 $281 1 $281 0 $151 $-1 forward 7 unknown #
vertex $-1 $152 $282 #
ellipse-curve $-1 43.795724903679883 -8.5594389436594973 4.6738368939252792 0.6018150307709319 0 0.79863550430605224 1.1979532564590785 0 -0.90272254615639791 1 I I #
point $-1 47.620215899494369 -8.5594389436594973 7.256647584387907 #
edge $-1 $283 1 $283 0 $155 $-1 forward 7 unknown #
vertex $-1 $156 $284 #
ellipse-curve $-1 43.795724903679883 -1.6297692552890979 4.6738368939252792 0.6018150307709319 0 0.79863550430605224 1.1979532564590785 0 -0.90272254615639791 1 I I #
point $-1 47.620215899494369 -1.6297692552890979 7.256647584387907 #
plane-surface $-1 49.166539506210519 0 0 -1 0 0 0 0 1 forward_v I I I I #
coedge $-1 $164 $162 $166 $242 reversed $101 $-1 #
edge $-1 $177 -10.227331116439629 $244 10.227331116439629 $176 $285 forward 7 unknown #
vertex $-1 $242 $286 #
straight-curve $-1 -49.166539506210519 -34.322947109433649 0 0 0 -1 I I #
edge $-1 $240 -34.322947109433649 $244 34.322947109433649 $238 $287 forward 7 unknown #
straight-curve $-1 0 -34.322947109433649 -10.227331116439629 -1 0 0 I I #
vertex $-1 $169 $288 #
straight-curve $-1 0 34.322947109433649 -10.227331116439629 1 0 0 I I #
point $-1 49.166539506210519 34.322947109433649 -10.227331116439629 #
point $-1 49.166539506210519 -34.322947109433649 -10.227331116439629 #
straight-curve $-1 -49.166539506210519 0 10.227331116439629 0 -1 0 I I #
point $-1 -49.166539506210519 34.322947109433649 10.227331116439629 #
point $-1 -49.166539506210519 -34.322947109433649 10.227331116439629 #
straight-curve $-1 49.166539506210519 -34.322947109433649 0 0 0 -1 I I #
straight-curve $-1 49.166539506210519 34.322947109433649 0 0 0 -1 I I #
loop $-1 $-1 $192 $186 #
plane-surface $-1 0 -34.322947109433649 0 0 1 0 0 0 1 forward_v I I I I #
coedge $-1 $203 $194 $190 $257 forward $187 $-1 #
edge $-1 $261 -20.358610860296046 $198 -7.570061637979153 $189 $289 forward 7 unknown #
edge $-1 $199 7.570061637979153 $260 20.358610860296046 $255 $290 forward 7 unknown #
coedge $-1 $201 $192 $206 $270 reversed $253 $-1 #
coedge $-1 $192 $201 $203 $268 reversed $253 $-1 #
vertex $-1 $268 $291 #
vertex $-1 $193 $292 #
straight-curve $-1 -34.047835755546643 -34.322947109433649 0 0 0 1 I I #
straight-curve $-1 -17.773917877773322 -21.534397887116754 -10.227331116439629 1 0 0 I I #
straight-curve $-1 -17.773917877773322 -21.534397887116754 10.227331116439629 -1 0 0 I I #
point $-1 -34.047835755546643 -21.534397887116754 10.227331116439629 #
point $-1 -34.047835755546643 -21.534397887116754 -10.227331116439629 #
straight-curve $-1 -37.047835755546643 -34.322947109433649 0 0 0 -1 I I #
edge $-1 $260 34.047835755546643 $204 37.047835755546643 $259 $293 forward 7 unknown #
point $-1 -37.047835755546643 -34.322947109433649 -10.227331116439629 #
edge $-1 $207 -37.047835755546643 $261 -34.047835755546643 $258 $294 forward 7 unknown #
point $-1 -37.047835755546643 -34.322947109433649 10.227331116439629 #
edge $-1 $273 61.673680015241061 $276 65.809601987031712 $212 $295 forward 7 unknown #
vertex $-1 $226 $296 #
straight-curve $-1 14.906288165409702 -13.179218735906431 10.227331116439629 1 0 0 I I #
edge $-1 $276 -10.631916686169284 $223 5.5373125866949877 $222 $297 forward 7 unknown #
vertex $-1 $275 $298 #
straight-curve $-1 -29.36574864084124 -13.179218735906431 65.269734116309621 -0.79863550430605224 0 0.6018150307709319 I I #
point $-1 43.677985779860059 -13.179218735906431 10.227331116439629 #
point $-1 49.166539506210519 2.9900105369578398 6.0914091446489778 #
straight-curve $-1 49.166539506210519 0 10.227331116439629 0 1 0 I I #
vertex $-1 $229 $299 #
point $-1 44.993678160138963 -8.5594389436594973 3.7711143477688815 #
vertex $-1 $233 $300 #
point $-1 44.993678160138963 -1.6297692552890979 3.7711143477688815 #
straight-curve $-1 -49.166539506210519 34.322947109433649 0 0 0 -1 I I #
point $-1 -49.166539506210519 -34.322947109433649 -10.227331116439629 #
straight-curve $-1 -49.166539506210519 0 -10.227331116439629 0 1 0 I I #
point $-1 -49.166539506210519 34.322947109433649 -10.227331116439629 #
straight-curve $-1 -34.047835755546643 -13.964336249137601 10.227331116439629 0 1 0 I I #
straight-curve $-1 -34.047835755546643 -13.964336249137601 -10.227331116439629 0 -1 0 I I #
point $-1 -34.047835755546643 -34.322947109433649 -10.227331116439629 #
point $-1 -34.047835755546643 -34.322947109433649 10.227331116439629 #
straight-curve $-1 0 -34.322947109433649 -10.227331116439629 -1 0 0 I I #
straight-curve $-1 0 -34.322947109433649 10.227331116439629 1 0 0 I I #
straight-curve $-1 49.166539506210519 -13.179218735906431 71.90101113168069 0 0 -1 I I #
point $-1 49.166539506210519 -13.179218735906431 10.227331116439629 #
straight-curve $-1 49.166539506210519 -2.5473020497371479 6.0914091446489742 0 1 0 I I #
point $-1 49.166539506210519 -13.179218735906431 6.0914091446489778 #
point $-1 42.893002357523486 -8.5594389436594973 3.4758836374662012 #
point $-1 42.893002357523486 -1.6297692552890979 3.4758836374662012 #
End-of-ACIS-data 