500 0 5 0           
7 Unknown 11 ACIS 5.0 NT 24 Thu Mar 25 21:08:55 1999 
-1 9.9999999999999995e-007 1e-010 
body $-1 $5 $-1 $6 #
body $-1 $7 $-1 $8 #
body $-1 $9 $-1 $10 #
body $-1 $11 $-1 $12 #
body $-1 $13 $-1 $14 #
lump $-1 $-1 $15 $0 #
transform $-1 1 0 0 0 1 0 0 0 1 75.587023529770804 30.931694686982137 8.9874381422269618 1 rotate no_reflect no_shear #
lump $-1 $-1 $16 $1 #
transform $-1 1 0 0 0 1 0 0 0 1 75.587023529770804 30.931694686982137 8.9874381422269618 1 rotate no_reflect no_shear #
lump $-1 $-1 $17 $2 #
transform $-1 1 0 0 0 1 0 0 0 1 75.587023529770804 30.931694686982137 8.9874381422269618 1 rotate no_reflect no_shear #
lump $-1 $-1 $18 $3 #
transform $-1 1 0 0 0 1 0 0 0 1 75.587023529770804 30.931694686982137 8.9874381422269618 1 rotate no_reflect no_shear #
lump $-1 $-1 $19 $4 #
transform $-1 1 0 0 0 1 0 0 0 1 75.587023529770804 30.931694686982137 8.9874381422269618 1 rotate no_reflect no_shear #
shell $-1 $-1 $-1 $20 $-1 $5 #
shell $-1 $-1 $-1 $21 $-1 $7 #
shell $-1 $-1 $-1 $22 $-1 $9 #
shell $-1 $-1 $-1 $23 $-1 $11 #
shell $-1 $-1 $-1 $24 $-1 $13 #
face $-1 $25 $26 $15 $-1 $27 forward single #
face $-1 $28 $29 $16 $-1 $30 reversed single #
face $-1 $31 $32 $17 $-1 $33 reversed single #
face $-1 $34 $35 $18 $-1 $36 forward single #
face $-1 $37 $38 $19 $-1 $39 forward single #
face $-1 $40 $41 $15 $-1 $42 reversed single #
loop $-1 $-1 $43 $20 #
plane-surface $-1 0 0 8.9874381422269618 0 0 1 1 0 0 forward_v I I I I #
face $-1 $44 $45 $16 $-1 $46 reversed single #
loop $-1 $-1 $47 $21 #
plane-surface $-1 -73.193984754189046 -22.981535325769951 0 0 -1 0 0 0 -1 forward_v I I I I #
face $-1 $48 $49 $17 $-1 $50 reversed single #
loop $-1 $-1 $51 $22 #
plane-surface $-1 -160.12247893309956 21.383986021626395 126.60422079881694 0 1 0 -0.55919291073839883 0 0.82903756765294845 forward_v I I I I #
face $-1 $52 $53 $18 $-1 $54 forward single #
loop $-1 $55 $56 $23 #
cone-surface $-1 -69.112432389095758 24.111902783156605 4.0080086438872389 0.55919291073839883 0 -0.82903756765294845 0.82903756765294845 0 0.55919291073839883 1 I I 0 1 1 forward I I I I #
face $-1 $57 $58 $19 $-1 $59 forward single #
loop $-1 $60 $61 $24 #
cone-surface $-1 -69.112432389095758 28.20377792545192 4.0080086438872389 0.55919291073839883 0 -0.82903756765294845 0.82903756765294845 0 0.55919291073839883 1 I I 0 1 1 forward I I I I #
face $-1 $62 $63 $15 $-1 $64 reversed single #
loop $-1 $-1 $65 $25 #
plane-surface $-1 0 0 -8.9874381422269618 0 0 1 1 0 0 forward_v I I I I #
coedge $-1 $66 $67 $68 $69 forward $26 $-1 #
face $-1 $70 $71 $16 $-1 $72 forward single #
loop $-1 $-1 $73 $28 #
plane-surface $-1 -70.800945978607288 -26.956615006376044 0 -1 0 0 0 0 1 forward_v I I I I #
coedge $-1 $74 $75 $76 $77 forward $29 $-1 #
face $-1 $78 $79 $17 $-1 $80 reversed single #
loop $-1 $-1 $81 $31 #
plane-surface $-1 -75.587023529770804 26.157840354304266 1.2752565323222029 -0.55919291073839883 0 0.82903756765294845 0.82903756765294845 0 0.55919291073839883 forward_v I I I I #
coedge $-1 $82 $83 $84 $85 reversed $32 $-1 #
face $-1 $-1 $86 $18 $-1 $87 forward single #
loop $-1 $88 $89 $34 #
cone-surface $-1 -68.07513440341026 24.111902783156605 2.4701511666734159 0.55919291073839883 0 -0.82903756765294845 0.41451878382647422 0 0.27959645536919941 1 I I -0.70710678118654746 0.70710678118654746 0.5 forward I I I I #
loop $-1 $-1 $90 $23 #
coedge $-1 $56 $56 $91 $92 reversed $35 $-1 #
face $-1 $-1 $93 $19 $-1 $94 forward single #
loop $-1 $95 $96 $37 #
cone-surface $-1 -68.07513440341026 28.20377792545192 2.4701511666734159 0.55919291073839883 0 -0.82903756765294845 0.41451878382647422 0 0.27959645536919941 1 I I -0.70710678118654746 0.70710678118654746 0.5 forward I I I I #
loop $-1 $-1 $97 $24 #
coedge $-1 $61 $61 $98 $99 reversed $38 $-1 #
face $-1 $100 $101 $15 $-1 $102 reversed single #
loop $-1 $-1 $103 $40 #
plane-surface $-1 0 -30.931694686982137 0 0 1 0 0 0 1 forward_v I I I I #
coedge $-1 $104 $105 $106 $107 forward $41 $-1 #
coedge $-1 $108 $43 $109 $110 forward $26 $-1 #
coedge $-1 $43 $108 $111 $112 forward $26 $-1 #
coedge $-1 $113 $114 $43 $69 reversed $115 $-1 #
edge $-1 $116 -30.931694686982137 $117 30.931694686982137 $68 $118 forward 7 unknown #
face $-1 $119 $120 $16 $-1 $121 reversed single #
loop $-1 $-1 $122 $44 #
plane-surface $-1 0 0 8.9874381422269618 0 0 1 1 0 0 forward_v I I I I #
coedge $-1 $123 $124 $125 $126 reversed $45 $-1 #
coedge $-1 $127 $47 $128 $129 reversed $29 $-1 #
coedge $-1 $47 $127 $130 $131 reversed $29 $-1 #
coedge $-1 $124 $123 $47 $77 reversed $45 $-1 #
edge $-1 $132 -8.9874381422269618 $133 8.9874381422269618 $76 $134 forward 7 unknown #
face $-1 $135 $136 $17 $-1 $137 reversed single #
loop $-1 $-1 $138 $48 #
plane-surface $-1 0 30.931694686982137 0 0 -1 0 0 0 -1 forward_v I I I I #
coedge $-1 $139 $140 $141 $142 reversed $49 $-1 #
coedge $-1 $83 $51 $143 $144 reversed $32 $-1 #
coedge $-1 $51 $82 $139 $145 reversed $32 $-1 #
coedge $-1 $141 $146 $51 $85 forward $147 $-1 #
edge $-1 $148 4.4742159367789753 $149 15.907995157496472 $84 $150 forward 7 unknown #
loop $-1 $-1 $91 $52 #
plane-surface $-1 -75.587023529770804 26.157840354304266 1.2752565323222029 -0.55919291073839883 0 0.82903756765294845 0.82903756765294845 0 0.55919291073839883 forward_v I I I I #
loop $-1 $-1 $151 $34 #
coedge $-1 $89 $89 $90 $152 reversed $53 $-1 #
coedge $-1 $90 $90 $89 $152 forward $55 $-1 #
coedge $-1 $91 $91 $56 $92 forward $86 $-1 #
edge $-1 $153 0 $153 6.2831853071796004 $91 $154 forward 7 unknown #
loop $-1 $-1 $98 $57 #
plane-surface $-1 -75.587023529770804 26.157840354304266 1.2752565323222029 -0.55919291073839883 0 0.82903756765294845 0.82903756765294845 0 0.55919291073839883 forward_v I I I I #
loop $-1 $-1 $155 $37 #
coedge $-1 $96 $96 $97 $156 reversed $58 $-1 #
coedge $-1 $97 $97 $96 $156 forward $60 $-1 #
coedge $-1 $98 $98 $61 $99 forward $93 $-1 #
edge $-1 $157 0 $157 6.2831853071796004 $98 $158 forward 7 unknown #
face $-1 $159 $160 $15 $-1 $161 reversed single #
loop $-1 $-1 $162 $62 #
plane-surface $-1 -75.587023529770804 0 0 1 0 0 0 0 -1 forward_v I I I I #
coedge $-1 $163 $111 $164 $165 forward $63 $-1 #
coedge $-1 $166 $65 $163 $167 forward $41 $-1 #
coedge $-1 $65 $166 $168 $169 forward $41 $-1 #
coedge $-1 $114 $113 $65 $107 reversed $115 $-1 #
edge $-1 $170 -30.931694686982137 $171 30.931694686982137 $106 $172 forward 7 unknown #
coedge $-1 $67 $66 $173 $174 forward $26 $-1 #
coedge $-1 $175 $176 $66 $110 reversed $160 $-1 #
edge $-1 $117 -75.587023529770804 $177 75.587023529770804 $109 $178 forward 7 unknown #
coedge $-1 $103 $179 $67 $112 reversed $63 $-1 #
edge $-1 $180 -75.587023529770804 $116 75.587023529770804 $111 $181 forward 7 unknown #
coedge $-1 $106 $68 $179 $182 forward $115 $-1 #
coedge $-1 $68 $106 $175 $183 reversed $115 $-1 #
loop $-1 $-1 $113 $159 #
vertex $-1 $69 $184 #
vertex $-1 $69 $185 #
straight-curve $-1 75.587023529770804 0 8.9874381422269618 0 1 0 I I #
face $-1 $186 $187 $16 $-1 $188 reversed single #
loop $-1 $-1 $189 $70 #
plane-surface $-1 -75.587023529770804 0 0 1 0 0 0 0 -1 forward_v I I I I #
coedge $-1 $130 $190 $124 $191 forward $71 $-1 #
coedge $-1 $76 $73 $192 $193 reversed $45 $-1 #
coedge $-1 $73 $76 $122 $191 reversed $45 $-1 #
coedge $-1 $194 $195 $73 $126 forward $196 $-1 #
edge $-1 $197 -8.9874381422269618 $198 8.9874381422269618 $125 $199 forward 7 unknown #
coedge $-1 $75 $74 $189 $200 reversed $29 $-1 #
coedge $-1 $192 $201 $74 $129 forward $187 $-1 #
edge $-1 $202 -38.990031152676281 $133 -34.203953601512765 $128 $203 forward 7 unknown #
coedge $-1 $204 $122 $75 $131 forward $71 $-1 #
edge $-1 $132 34.203953601512765 $205 38.990031152676281 $130 $206 forward 7 unknown #
vertex $-1 $131 $207 #
vertex $-1 $129 $208 #
straight-curve $-1 -70.800945978607288 -22.981535325769951 0 0 0 -1 I I #
face $-1 $-1 $147 $17 $-1 $209 forward single #
loop $-1 $-1 $210 $78 #
plane-surface $-1 -75.587023529770804 0 0 1 0 0 0 0 -1 forward_v I I I I #
coedge $-1 $211 $212 $140 $213 forward $79 $-1 #
coedge $-1 $214 $81 $83 $145 forward $49 $-1 #
coedge $-1 $81 $214 $138 $213 reversed $49 $-1 #
coedge $-1 $215 $84 $81 $142 forward $147 $-1 #
edge $-1 $149 8.305065844474262 $216 17.852774509830006 $141 $217 forward 7 unknown #
coedge $-1 $218 $210 $82 $144 forward $136 $-1 #
edge $-1 $219 -62.026853867086267 $148 -54.314672257181506 $143 $220 forward 7 unknown #
edge $-1 $149 -13.791629796810252 $219 0 $83 $221 forward 7 unknown #
coedge $-1 $84 $215 $218 $222 forward $147 $-1 #
loop $-1 $-1 $141 $135 #
vertex $-1 $144 $223 #
vertex $-1 $85 $224 #
straight-curve $-1 -80.061239466549779 21.383986021626395 8.9874381422269636 1 0 0 I I #
coedge $-1 $151 $151 $-1 $225 reversed $88 $-1 #
edge $-1 $226 0 $226 6.2831853071796004 $89 $227 forward 7 unknown #
vertex $-1 $92 $228 #
ellipse-curve $-1 -69.870133919412055 24.111902783156605 5.1313473372745815 -0.55919291073839883 0 0.82903756765294845 0.82903756765294845 0 0.55919291073839883 1 I I #
coedge $-1 $155 $155 $-1 $229 reversed $95 $-1 #
edge $-1 $230 0 $230 6.2831853071796004 $96 $231 forward 7 unknown #
vertex $-1 $99 $232 #
ellipse-curve $-1 -69.870133919412055 28.20377792545192 5.1313473372745815 -0.55919291073839883 0 0.82903756765294845 0.82903756765294845 0 0.55919291073839883 1 I I #
face $-1 $-1 $115 $15 $-1 $233 reversed single #
loop $-1 $-1 $175 $100 #
plane-surface $-1 0 30.931694686982137 0 0 -1 0 0 0 -1 forward_v I I I I #
coedge $-1 $234 $173 $176 $235 forward $101 $-1 #
coedge $-1 $179 $103 $104 $167 reversed $63 $-1 #
coedge $-1 $173 $234 $103 $165 reversed $101 $-1 #
edge $-1 $180 -8.9874381422269618 $236 8.9874381422269618 $164 $237 forward 7 unknown #
coedge $-1 $105 $104 $234 $238 forward $41 $-1 #
edge $-1 $171 -75.587023529770804 $236 75.587023529770804 $163 $239 forward 7 unknown #
coedge $-1 $176 $175 $105 $169 reversed $160 $-1 #
edge $-1 $240 -75.587023529770804 $170 75.587023529770804 $168 $241 forward 7 unknown #
vertex $-1 $107 $242 #
vertex $-1 $182 $243 #
straight-curve $-1 75.587023529770804 0 -8.9874381422269618 0 -1 0 I I #
coedge $-1 $162 $164 $108 $174 reversed $101 $-1 #
edge $-1 $177 -30.931694686982137 $180 30.931694686982137 $173 $244 forward 7 unknown #
coedge $-1 $168 $109 $114 $183 forward $160 $-1 #
coedge $-1 $109 $168 $162 $235 reversed $160 $-1 #
vertex $-1 $110 $245 #
straight-curve $-1 0 30.931694686982137 8.9874381422269618 -1 0 0 I I #
coedge $-1 $111 $163 $113 $182 reversed $63 $-1 #
vertex $-1 $174 $246 #
straight-curve $-1 0 -30.931694686982137 8.9874381422269618 1 0 0 I I #
edge $-1 $116 -8.9874381422269618 $171 8.9874381422269618 $113 $247 forward 7 unknown #
edge $-1 $117 -8.9874381422269618 $170 8.9874381422269618 $114 $248 forward 7 unknown #
point $-1 75.587023529770804 -30.931694686982137 8.9874381422269618 #
point $-1 75.587023529770804 30.931694686982137 8.9874381422269618 #
face $-1 $-1 $196 $16 $-1 $249 reversed single #
loop $-1 $-1 $192 $119 #
plane-surface $-1 0 0 -8.9874381422269618 0 0 1 1 0 0 forward_v I I I I #
coedge $-1 $250 $251 $127 $200 forward $120 $-1 #
coedge $-1 $122 $204 $194 $252 forward $71 $-1 #
edge $-1 $198 -17.453387183794113 $132 -9.5032278225819287 $122 $253 forward 7 unknown #
coedge $-1 $254 $128 $123 $193 forward $187 $-1 #
edge $-1 $133 9.5032278225819287 $197 17.453387183794113 $192 $255 forward 7 unknown #
coedge $-1 $256 $125 $190 $252 reversed $196 $-1 #
coedge $-1 $125 $256 $254 $257 reversed $196 $-1 #
loop $-1 $-1 $125 $186 #
vertex $-1 $257 $258 #
vertex $-1 $126 $259 #
straight-curve $-1 -70.800945978607288 -30.931694686982137 0 0 0 1 I I #
edge $-1 $205 -8.9874381422269618 $202 8.9874381422269618 $189 $260 forward 7 unknown #
coedge $-1 $128 $254 $250 $261 forward $187 $-1 #
vertex $-1 $129 $262 #
straight-curve $-1 -36.596992377094523 -22.981535325769951 -8.9874381422269618 1 0 0 I I #
coedge $-1 $190 $130 $251 $263 forward $71 $-1 #
vertex $-1 $263 $264 #
straight-curve $-1 -36.596992377094523 -22.981535325769951 8.9874381422269618 -1 0 0 I I #
point $-1 -70.800945978607288 -22.981535325769951 8.9874381422269618 #
point $-1 -70.800945978607288 -22.981535325769951 -8.9874381422269618 #
plane-surface $-1 0 0 8.9874381422269618 0 0 1 1 0 0 forward_v I I I I #
coedge $-1 $143 $265 $214 $266 forward $136 $-1 #
coedge $-1 $212 $138 $265 $267 reversed $79 $-1 #
coedge $-1 $138 $211 $215 $268 reversed $79 $-1 #
edge $-1 $216 17.184054063689729 $269 30.975683860499977 $138 $270 forward 7 unknown #
coedge $-1 $140 $139 $210 $266 reversed $49 $-1 #
coedge $-1 $146 $141 $212 $268 forward $147 $-1 #
vertex $-1 $268 $271 #
straight-curve $-1 -64.153244309053292 13.078920177152133 8.9874381422269618 0 1 0 I I #
coedge $-1 $265 $143 $146 $222 reversed $136 $-1 #
vertex $-1 $144 $272 #
straight-curve $-1 -75.587023529770804 21.383986021626395 63.30211039940847 0 0 1 I I #
straight-curve $-1 -75.587023529770804 21.383986021626395 1.2752565323222029 -0.82903756765294845 0 -0.55919291073839883 I I #
edge $-1 $273 -30.931694686982137 $148 -21.383986021626395 $218 $274 forward 7 unknown #
point $-1 -75.587023529770804 21.383986021626395 8.9874381422269618 #
point $-1 -64.153244309053306 21.383986021626395 8.9874381422269618 #
edge $-1 $275 1 $275 0 $151 $-1 forward 7 unknown #
vertex $-1 $152 $276 #
ellipse-curve $-1 -68.354730858779462 24.111902783156605 2.8846699504998901 -0.55919291073839883 0 0.82903756765294845 0.82903756765294845 0 0.55919291073839883 1 I I #
point $-1 -69.041096351759109 24.111902783156605 5.6905402480129865 #
edge $-1 $277 1 $277 0 $155 $-1 forward 7 unknown #
vertex $-1 $156 $278 #
ellipse-curve $-1 -68.354730858779462 28.20377792545192 2.8846699504998901 -0.55919291073839883 0 0.82903756765294845 0.82903756765294845 0 0.55919291073839883 1 I I #
point $-1 -69.041096351759109 28.20377792545192 5.6905402480129865 #
plane-surface $-1 75.587023529770804 0 0 -1 0 0 0 0 1 forward_v I I I I #
coedge $-1 $164 $162 $166 $238 reversed $101 $-1 #
edge $-1 $177 -8.9874381422269618 $240 8.9874381422269618 $176 $279 forward 7 unknown #
vertex $-1 $238 $280 #
straight-curve $-1 -75.587023529770804 -30.931694686982137 0 0 0 -1 I I #
edge $-1 $236 -30.931694686982137 $240 30.931694686982137 $234 $281 forward 7 unknown #
straight-curve $-1 0 -30.931694686982137 -8.9874381422269618 -1 0 0 I I #
vertex $-1 $169 $282 #
straight-curve $-1 0 30.931694686982137 -8.9874381422269618 1 0 0 I I #
point $-1 75.587023529770804 30.931694686982137 -8.9874381422269618 #
point $-1 75.587023529770804 -30.931694686982137 -8.9874381422269618 #
straight-curve $-1 -75.587023529770804 0 8.9874381422269618 0 -1 0 I I #
point $-1 -75.587023529770804 30.931694686982137 8.9874381422269618 #
point $-1 -75.587023529770804 -30.931694686982137 8.9874381422269618 #
straight-curve $-1 75.587023529770804 -30.931694686982137 0 0 0 -1 I I #
straight-curve $-1 75.587023529770804 30.931694686982137 0 0 0 -1 I I #
plane-surface $-1 0 -30.931694686982137 0 0 1 0 0 0 1 forward_v I I I I #
coedge $-1 $283 $189 $201 $261 reversed $120 $-1 #
coedge $-1 $189 $283 $204 $263 reversed $120 $-1 #
edge $-1 $284 -75.587023529770804 $198 -70.800945978607288 $194 $285 forward 7 unknown #
straight-curve $-1 -70.800945978607288 -13.478307503188022 8.9874381422269618 0 1 0 I I #
coedge $-1 $201 $192 $195 $257 forward $187 $-1 #
straight-curve $-1 -70.800945978607288 -13.478307503188022 -8.9874381422269618 0 -1 0 I I #
coedge $-1 $195 $194 $283 $286 forward $196 $-1 #
edge $-1 $197 70.800945978607288 $287 75.587023529770804 $195 $288 forward 7 unknown #
point $-1 -70.800945978607288 -30.931694686982137 -8.9874381422269618 #
point $-1 -70.800945978607288 -30.931694686982137 8.9874381422269618 #
straight-curve $-1 -75.587023529770804 -22.981535325769951 0 0 0 -1 I I #
edge $-1 $287 -30.931694686982137 $202 -22.981535325769951 $250 $289 forward 7 unknown #
point $-1 -75.587023529770804 -22.981535325769951 -8.9874381422269618 #
edge $-1 $205 22.981535325769951 $284 30.931694686982137 $251 $290 forward 7 unknown #
point $-1 -75.587023529770804 -22.981535325769951 8.9874381422269618 #
coedge $-1 $210 $218 $211 $267 forward $136 $-1 #
edge $-1 $269 -17.852774509830006 $219 -8.305065844474262 $210 $291 forward 7 unknown #
edge $-1 $273 -8.9874381422269618 $269 -1.2752565323222029 $211 $292 forward 7 unknown #
edge $-1 $216 64.153244309053306 $273 75.587023529770804 $212 $293 forward 7 unknown #
vertex $-1 $266 $294 #
straight-curve $-1 -49.907017925675206 30.931694686982137 18.596639352387626 -0.82903756765294845 0 -0.55919291073839883 I I #
point $-1 -64.153244309053306 30.931694686982137 8.9874381422269618 #
point $-1 -75.587023529770804 21.383986021626395 1.2752565323222029 #
vertex $-1 $268 $295 #
straight-curve $-1 -75.587023529770804 0 8.9874381422269618 0 -1 0 I I #
vertex $-1 $225 $296 #
point $-1 -67.525693291126515 24.111902783156605 3.4438628612382889 #
vertex $-1 $229 $297 #
point $-1 -67.525693291126515 28.20377792545192 3.4438628612382889 #
straight-curve $-1 -75.587023529770804 30.931694686982137 0 0 0 -1 I I #
point $-1 -75.587023529770804 -30.931694686982137 -8.9874381422269618 #
straight-curve $-1 -75.587023529770804 0 -8.9874381422269618 0 1 0 I I #
point $-1 -75.587023529770804 30.931694686982137 -8.9874381422269618 #
coedge $-1 $251 $250 $256 $286 reversed $120 $-1 #
vertex $-1 $263 $298 #
straight-curve $-1 0 -30.931694686982137 8.9874381422269618 1 0 0 I I #
edge $-1 $284 -8.9874381422269618 $287 8.9874381422269618 $283 $299 forward 7 unknown #
vertex $-1 $261 $300 #
straight-curve $-1 0 -30.931694686982137 -8.9874381422269618 -1 0 0 I I #
straight-curve $-1 -75.587023529770804 0 -8.9874381422269618 0 1 0 I I #
straight-curve $-1 -75.587023529770804 0 8.9874381422269618 0 -1 0 I I #
straight-curve $-1 -75.587023529770804 13.078920177152133 1.2752565323221983 0 -1 0 I I #
straight-curve $-1 -75.587023529770804 30.931694686982137 0 0 0 -1 I I #
straight-curve $-1 0 30.931694686982137 8.9874381422269618 -1 0 0 I I #
point $-1 -75.587023529770804 30.931694686982137 1.2752565323222029 #
point $-1 -75.587023529770804 30.931694686982137 8.9874381422269618 #
point $-1 -67.795537948041058 24.111902783156605 2.0556323828469418 #
point $-1 -67.795537948041058 28.20377792545192 2.0556323828469418 #
point $-1 -75.587023529770804 -30.931694686982137 8.9874381422269618 #
straight-curve $-1 -75.587023529770804 -30.931694686982137 0 0 0 -1 I I #
point $-1 -75.587023529770804 -30.931694686982137 -8.9874381422269618 #
End-of-ACIS-data 