500 0 10 0           
7 Unknown 11 ACIS 5.0 NT 24 Fri Mar 26 17:27:05 1999 
-1 9.9999999999999995e-007 1e-010 
body $-1 $10 $-1 $11 #
body $-1 $12 $-1 $13 #
body $-1 $14 $-1 $15 #
body $-1 $16 $-1 $17 #
body $-1 $18 $-1 $19 #
body $-1 $20 $-1 $21 #
body $-1 $22 $-1 $23 #
body $-1 $24 $-1 $25 #
body $-1 $26 $-1 $27 #
body $-1 $28 $-1 $29 #
lump $-1 $-1 $30 $0 #
transform $-1 1 0 0 0 1 0 0 0 1 65.656300546281315 29.120243410721347 7.4562469013321966 1 rotate no_reflect no_shear #
lump $-1 $-1 $31 $1 #
transform $-1 1 0 0 0 1 0 0 0 1 65.656300546281315 29.120243410721347 7.4562469013321966 1 rotate no_reflect no_shear #
lump $-1 $-1 $32 $2 #
transform $-1 1 0 0 0 1 0 0 0 1 65.656300546281315 29.120243410721347 7.4562469013321966 1 rotate no_reflect no_shear #
lump $-1 $-1 $33 $3 #
transform $-1 1 0 0 0 1 0 0 0 1 65.656300546281315 29.120243410721347 7.4562469013321966 1 rotate no_reflect no_shear #
lump $-1 $-1 $34 $4 #
transform $-1 1 0 0 0 1 0 0 0 1 65.656300546281315 29.120243410721347 7.4562469013321966 1 rotate no_reflect no_shear #
lump $-1 $-1 $35 $5 #
transform $-1 1 0 0 0 1 0 0 0 1 65.656300546281315 29.120243410721347 7.4562469013321966 1 rotate no_reflect no_shear #
lump $-1 $-1 $36 $6 #
transform $-1 1 0 0 0 1 0 0 0 1 65.656300546281315 29.120243410721347 7.4562469013321966 1 rotate no_reflect no_shear #
lump $-1 $-1 $37 $7 #
transform $-1 1 0 0 0 1 0 0 0 1 65.656300546281315 29.120243410721347 7.4562469013321966 1 rotate no_reflect no_shear #
lump $-1 $-1 $38 $8 #
transform $-1 1 0 0 0 1 0 0 0 1 65.656300546281315 29.120243410721347 7.4562469013321966 1 rotate no_reflect no_shear #
lump $-1 $-1 $39 $9 #
transform $-1 1 0 0 0 1 0 0 0 1 65.656300546281315 29.120243410721347 7.4562469013321966 1 rotate no_reflect no_shear #
shell $-1 $-1 $-1 $40 $-1 $10 #
shell $-1 $-1 $-1 $41 $-1 $12 #
shell $-1 $-1 $-1 $42 $-1 $14 #
shell $-1 $-1 $-1 $43 $-1 $16 #
shell $-1 $-1 $-1 $44 $-1 $18 #
shell $-1 $-1 $-1 $45 $-1 $20 #
shell $-1 $-1 $-1 $46 $-1 $22 #
shell $-1 $-1 $-1 $47 $-1 $24 #
shell $-1 $-1 $-1 $48 $-1 $26 #
shell $-1 $-1 $-1 $49 $-1 $28 #
face $-1 $50 $51 $30 $-1 $52 forward single #
face $-1 $53 $54 $31 $-1 $55 forward single #
face $-1 $56 $57 $32 $-1 $58 forward single #
face $-1 $59 $60 $33 $-1 $61 reversed single #
face $-1 $62 $63 $34 $-1 $64 forward single #
face $-1 $65 $66 $35 $-1 $67 reversed single #
face $-1 $68 $69 $36 $-1 $70 forward single #
face $-1 $71 $72 $37 $-1 $73 reversed single #
face $-1 $74 $75 $38 $-1 $76 forward single #
face $-1 $77 $78 $39 $-1 $79 forward single #
face $-1 $80 $81 $30 $-1 $82 reversed single #
loop $-1 $-1 $83 $40 #
plane-surface $-1 0 0 7.4562469013321966 0 0 1 1 0 0 forward_v I I I I #
face $-1 $84 $85 $31 $-1 $86 reversed single #
loop $-1 $-1 $87 $41 #
plane-surface $-1 0 -26.114283880037789 -4.4562469013321966 0 0 1 1 0 0 forward_v I I I I #
face $-1 $88 $89 $32 $-1 $90 reversed single #
loop $-1 $-1 $91 $42 #
plane-surface $-1 0 24.249132173239925 -1.9215654598765803 0 0 1 1 0 0 forward_v I I I I #
face $-1 $92 $93 $33 $-1 $94 reversed single #
loop $-1 $-1 $95 $43 #
plane-surface $-1 39.811292218114772 -16.613824345008354 187.91241580071645 0 -1 0 -0.6018150307709319 0 -0.79863550430605224 forward_v I I I I #
face $-1 $96 $97 $34 $-1 $98 forward single #
loop $-1 $99 $100 $44 #
cone-surface $-1 62.488731569225187 -19.86107434718129 4.5619844310782423 -0.6018150307709319 0 -0.79863550430605224 0.79863550430605224 0 -0.6018150307709319 1 I I 0 1 1 forward I I I I #
face $-1 $101 $102 $35 $-1 $103 reversed single #
loop $-1 $-1 $104 $45 #
plane-surface $-1 39.811292218114772 19.378020935758514 187.91241580071645 0 -1 0 -0.6018150307709319 0 -0.79863550430605224 forward_v I I I I #
face $-1 $105 $106 $36 $-1 $107 forward single #
loop $-1 $108 $109 $46 #
cone-surface $-1 62.488731569225187 16.130770933585577 4.5619844310782423 -0.6018150307709319 0 -0.79863550430605224 0.79863550430605224 0 -0.6018150307709319 1 I I 0 1 1 forward I I I I #
face $-1 $110 $111 $37 $-1 $112 reversed single #
loop $-1 $-1 $113 $47 #
plane-surface $-1 -156.87369911357683 13.01423994770229 97.049277368143052 0 1 0 -0.69465837861970381 0 0.71933979245794832 forward_v I I I I #
face $-1 $114 $115 $38 $-1 $116 forward single #
loop $-1 $117 $118 $48 #
cone-surface $-1 -62.747050079734102 14.832463087146923 4.6195681864684683 0.69465837861970381 0 -0.71933979245794832 0.35966989622897416 0 0.3473291893098519 1 I I 0 1 0.5 forward I I I I #
face $-1 $119 $120 $39 $-1 $121 forward single #
loop $-1 $122 $123 $49 #
cone-surface $-1 -62.747050079734102 17.559797796313877 4.6195681864684683 0.69465837861970381 0 -0.71933979245794832 0.35966989622897416 0 0.3473291893098519 1 I I 0 1 0.5 forward I I I I #
face $-1 $124 $125 $30 $-1 $126 reversed single #
loop $-1 $-1 $127 $50 #
plane-surface $-1 0 0 -7.4562469013321966 0 0 1 1 0 0 forward_v I I I I #
coedge $-1 $128 $129 $130 $131 forward $51 $-1 #
face $-1 $132 $133 $31 $-1 $134 reversed single #
loop $-1 $-1 $135 $53 #
plane-surface $-1 0 -23.108324349354231 -5.9562469013321966 0 -1 0 0 0 -1 forward_v I I I I #
coedge $-1 $136 $137 $138 $139 reversed $54 $-1 #
face $-1 $140 $141 $32 $-1 $142 reversed single #
loop $-1 $-1 $143 $56 #
plane-surface $-1 0 24.249132173239925 -4.9215654598765806 0 0 1 1 0 0 forward_v I I I I #
coedge $-1 $144 $145 $146 $147 reversed $57 $-1 #
face $-1 $148 $149 $33 $-1 $150 reversed single #
loop $-1 $-1 $151 $59 #
plane-surface $-1 -39.214604849016908 -19.86107434718129 83.041510405418222 0.6018150307709319 0 0.79863550430605224 0.79863550430605224 0 -0.6018150307709319 forward_v I I I I #
coedge $-1 $152 $153 $154 $155 reversed $60 $-1 #
face $-1 $-1 $156 $34 $-1 $157 forward single #
loop $-1 $158 $159 $62 #
cone-surface $-1 61.303192507936913 -19.86107434718129 2.9887209901940786 -0.6018150307709319 0 -0.79863550430605224 0.39931775215302612 0 -0.30090751538546595 1 I I -0.70710678118654746 0.70710678118654746 0.5 forward I I I I #
loop $-1 $-1 $160 $44 #
coedge $-1 $100 $100 $161 $162 reversed $63 $-1 #
face $-1 $163 $164 $35 $-1 $165 reversed single #
loop $-1 $-1 $166 $65 #
plane-surface $-1 -39.214604849016908 16.130770933585577 83.041510405418222 0.6018150307709319 0 0.79863550430605224 0.79863550430605224 0 -0.6018150307709319 forward_v I I I I #
coedge $-1 $167 $168 $169 $170 reversed $66 $-1 #
face $-1 $-1 $171 $36 $-1 $172 forward single #
loop $-1 $173 $174 $68 #
cone-surface $-1 61.303192507936913 16.130770933585577 2.9887209901940786 -0.6018150307709319 0 -0.79863550430605224 0.39931775215302612 0 -0.30090751538546595 1 I I -0.70710678118654746 0.70710678118654746 0.5 forward I I I I #
loop $-1 $-1 $175 $46 #
coedge $-1 $109 $109 $176 $177 reversed $69 $-1 #
face $-1 $178 $179 $37 $-1 $180 reversed single #
loop $-1 $-1 $181 $71 #
plane-surface $-1 -65.656300546281329 16.1961304417304 2.5908981511056908 -0.69465837861970381 0 0.71933979245794832 0.71933979245794832 0 0.69465837861970381 forward_v I I I I #
coedge $-1 $182 $183 $184 $185 reversed $72 $-1 #
face $-1 $-1 $186 $38 $-1 $187 forward single #
loop $-1 $188 $189 $74 #
cone-surface $-1 -62.183243020351298 14.832463087146923 4.0357288986035122 0.69465837861970381 0 -0.71933979245794832 0.17983494811448708 0 0.17366459465492595 1 I I -0.70710678118654746 0.70710678118654746 0.25 forward I I I I #
loop $-1 $-1 $190 $48 #
coedge $-1 $118 $118 $191 $192 reversed $75 $-1 #
face $-1 $-1 $193 $39 $-1 $194 forward single #
loop $-1 $195 $196 $77 #
cone-surface $-1 -62.183243020351298 17.559797796313877 4.0357288986035122 0.69465837861970381 0 -0.71933979245794832 0.17983494811448708 0 0.17366459465492595 1 I I -0.70710678118654746 0.70710678118654746 0.25 forward I I I I #
loop $-1 $-1 $197 $49 #
coedge $-1 $123 $123 $198 $199 reversed $78 $-1 #
face $-1 $200 $201 $30 $-1 $202 reversed single #
loop $-1 $-1 $203 $80 #
plane-surface $-1 0 -29.120243410721347 0 0 1 0 0 0 1 forward_v I I I I #
coedge $-1 $204 $205 $206 $207 forward $81 $-1 #
coedge $-1 $208 $83 $209 $210 forward $51 $-1 #
coedge $-1 $83 $208 $211 $212 forward $51 $-1 #
coedge $-1 $213 $214 $83 $131 reversed $215 $-1 #
edge $-1 $216 -29.120243410721347 $217 29.120243410721347 $130 $218 forward 7 unknown #
face $-1 $219 $220 $31 $-1 $221 reversed single #
loop $-1 $-1 $222 $84 #
plane-surface $-1 0 0 -7.4562469013321966 0 0 1 1 0 0 forward_v I I I I #
coedge $-1 $223 $224 $225 $226 reversed $85 $-1 #
coedge $-1 $227 $87 $224 $228 forward $54 $-1 #
coedge $-1 $87 $227 $229 $230 reversed $54 $-1 #
coedge $-1 $231 $225 $87 $139 forward $220 $-1 #
edge $-1 $232 10.051182409335336 $233 16.063101470702453 $138 $234 forward 7 unknown #
face $-1 $235 $236 $32 $-1 $237 reversed single #
loop $-1 $-1 $238 $88 #
plane-surface $-1 0 19.378020935758506 -3.4215654598765806 0 1 0 0 0 1 forward_v I I I I #
coedge $-1 $239 $240 $241 $242 reversed $89 $-1 #
coedge $-1 $243 $91 $244 $245 reversed $57 $-1 #
coedge $-1 $91 $243 $246 $247 forward $57 $-1 #
coedge $-1 $248 $249 $91 $147 forward $236 $-1 #
edge $-1 $250 -16.995677324101379 $251 -7.253454849138544 $146 $252 forward 7 unknown #
face $-1 $253 $254 $33 $-1 $255 forward single #
loop $-1 $-1 $256 $92 #
plane-surface $-1 39.811292218114772 -23.108324349354227 187.91241580071645 0 1 0 0.6018150307709319 0 0.79863550430605224 forward_v I I I I #
coedge $-1 $257 $258 $259 $260 reversed $93 $-1 #
coedge $-1 $153 $95 $261 $262 reversed $60 $-1 #
coedge $-1 $95 $152 $257 $263 reversed $60 $-1 #
coedge $-1 $259 $264 $95 $155 forward $254 $-1 #
edge $-1 $265 -45.750654437223929 $266 -41.184779574917286 $154 $267 forward 7 unknown #
loop $-1 $-1 $161 $96 #
plane-surface $-1 -39.214604849016908 -19.86107434718129 83.041510405418222 0.6018150307709319 0 0.79863550430605224 0.79863550430605224 0 -0.6018150307709319 forward_v I I I I #
loop $-1 $-1 $268 $62 #
coedge $-1 $159 $159 $160 $269 reversed $97 $-1 #
coedge $-1 $160 $160 $159 $269 forward $99 $-1 #
coedge $-1 $161 $161 $100 $162 forward $156 $-1 #
edge $-1 $270 0 $270 6.2831853071796004 $161 $271 forward 7 unknown #
face $-1 $272 $273 $35 $-1 $274 reversed single #
loop $-1 $-1 $275 $101 #
plane-surface $-1 39.811292218114772 12.88352093141264 187.91241580071645 0 1 0 0.6018150307709319 0 0.79863550430605224 forward_v I I I I #
coedge $-1 $276 $277 $278 $279 reversed $102 $-1 #
coedge $-1 $168 $104 $280 $281 reversed $66 $-1 #
coedge $-1 $104 $167 $276 $282 reversed $66 $-1 #
coedge $-1 $278 $283 $104 $170 forward $284 $-1 #
edge $-1 $285 -45.750654437223929 $286 -41.184779574917286 $169 $287 forward 7 unknown #
loop $-1 $-1 $176 $105 #
plane-surface $-1 -39.214604849016908 16.130770933585577 83.041510405418222 0.6018150307709319 0 0.79863550430605224 0.79863550430605224 0 -0.6018150307709319 forward_v I I I I #
loop $-1 $-1 $288 $68 #
coedge $-1 $174 $174 $175 $289 reversed $106 $-1 #
coedge $-1 $175 $175 $174 $289 forward $108 $-1 #
coedge $-1 $176 $176 $109 $177 forward $171 $-1 #
edge $-1 $290 0 $290 6.2831853071796004 $176 $291 forward 7 unknown #
face $-1 $292 $293 $37 $-1 $294 reversed single #
loop $-1 $-1 $295 $110 #
plane-surface $-1 -156.87369911357683 19.37802093575851 97.049277368143052 0 -1 0 0.69465837861970381 0 -0.71933979245794832 forward_v I I I I #
coedge $-1 $296 $297 $298 $299 reversed $111 $-1 #
coedge $-1 $183 $113 $300 $301 reversed $72 $-1 #
coedge $-1 $113 $182 $296 $302 reversed $72 $-1 #
coedge $-1 $298 $303 $113 $185 forward $304 $-1 #
edge $-1 $305 12.780549010507102 $306 17.818765014145747 $184 $307 forward 7 unknown #
loop $-1 $-1 $191 $114 #
plane-surface $-1 -65.656300546281329 16.1961304417304 2.5908981511056908 -0.69465837861970381 0 0.71933979245794832 0.71933979245794832 0 0.69465837861970381 forward_v I I I I #
loop $-1 $-1 $308 $74 #
coedge $-1 $189 $189 $190 $309 reversed $115 $-1 #
coedge $-1 $190 $190 $189 $309 forward $117 $-1 #
coedge $-1 $191 $191 $118 $192 forward $186 $-1 #
edge $-1 $310 0 $310 6.2831853071796004 $191 $311 forward 7 unknown #
loop $-1 $-1 $198 $119 #
plane-surface $-1 -65.656300546281329 16.1961304417304 2.5908981511056908 -0.69465837861970381 0 0.71933979245794832 0.71933979245794832 0 0.69465837861970381 forward_v I I I I #
loop $-1 $-1 $312 $77 #
coedge $-1 $196 $196 $197 $313 reversed $120 $-1 #
coedge $-1 $197 $197 $196 $313 forward $122 $-1 #
coedge $-1 $198 $198 $123 $199 forward $193 $-1 #
edge $-1 $314 0 $314 6.2831853071796004 $198 $315 forward 7 unknown #
face $-1 $316 $317 $30 $-1 $318 reversed single #
loop $-1 $-1 $319 $124 #
plane-surface $-1 -65.656300546281315 0 0 1 0 0 0 0 -1 forward_v I I I I #
coedge $-1 $320 $211 $321 $322 forward $125 $-1 #
coedge $-1 $323 $127 $320 $324 forward $81 $-1 #
coedge $-1 $127 $323 $325 $326 forward $81 $-1 #
coedge $-1 $214 $213 $127 $207 reversed $215 $-1 #
edge $-1 $327 -29.120243410721347 $328 29.120243410721347 $206 $329 forward 7 unknown #
coedge $-1 $129 $128 $330 $331 forward $51 $-1 #
coedge $-1 $332 $333 $128 $210 reversed $317 $-1 #
edge $-1 $217 -65.656300546281315 $334 65.656300546281315 $209 $335 forward 7 unknown #
coedge $-1 $203 $336 $129 $212 reversed $125 $-1 #
edge $-1 $337 -65.656300546281315 $216 65.656300546281315 $211 $338 forward 7 unknown #
coedge $-1 $206 $130 $336 $339 forward $215 $-1 #
coedge $-1 $130 $206 $332 $340 reversed $215 $-1 #
loop $-1 $-1 $213 $316 #
vertex $-1 $131 $341 #
vertex $-1 $131 $342 #
straight-curve $-1 65.656300546281315 0 7.4562469013321966 0 1 0 I I #
face $-1 $343 $344 $31 $-1 $345 reversed single #
loop $-1 $-1 $225 $132 #
plane-surface $-1 65.656300546281315 0 0 -1 0 0 0 0 1 forward_v I I I I #
coedge $-1 $346 $347 $223 $348 forward $133 $-1 #
coedge $-1 $349 $135 $222 $348 reversed $85 $-1 #
coedge $-1 $135 $349 $136 $228 reversed $85 $-1 #
coedge $-1 $138 $350 $135 $226 forward $220 $-1 #
edge $-1 $351 -4.4781234506660983 $232 -1.4781234506660983 $225 $352 forward 7 unknown #
coedge $-1 $137 $136 $353 $354 reversed $54 $-1 #
edge $-1 $232 -65.656300546281315 $355 65.656300546281315 $224 $356 forward 7 unknown #
coedge $-1 $357 $358 $137 $230 forward $344 $-1 #
edge $-1 $233 -65.656300546281315 $359 65.656300546281315 $229 $360 forward 7 unknown #
coedge $-1 $350 $138 $358 $361 forward $220 $-1 #
vertex $-1 $139 $362 #
vertex $-1 $361 $363 #
straight-curve $-1 65.656300546281315 -13.057141940018894 -4.4562469013321966 0 -1 0 I I #
face $-1 $364 $365 $32 $-1 $366 reversed single #
loop $-1 $-1 $146 $140 #
plane-surface $-1 65.656300546281315 0 0 -1 0 0 0 0 1 forward_v I I I I #
coedge $-1 $367 $246 $368 $369 reversed $141 $-1 #
coedge $-1 $370 $143 $367 $371 forward $89 $-1 #
coedge $-1 $143 $370 $372 $373 reversed $89 $-1 #
coedge $-1 $249 $248 $143 $242 forward $236 $-1 #
edge $-1 $374 7.253454849138544 $375 16.995677324101379 $241 $376 forward 7 unknown #
coedge $-1 $145 $144 $377 $378 reversed $57 $-1 #
coedge $-1 $379 $380 $144 $245 forward $381 $-1 #
edge $-1 $382 -65.656300546281315 $250 65.656300546281315 $244 $383 forward 7 unknown #
coedge $-1 $238 $384 $145 $247 reversed $141 $-1 #
edge $-1 $385 -65.656300546281315 $251 65.656300546281315 $246 $386 forward 7 unknown #
coedge $-1 $241 $146 $384 $387 forward $236 $-1 #
coedge $-1 $146 $241 $379 $388 reversed $236 $-1 #
vertex $-1 $388 $389 #
vertex $-1 $147 $390 #
straight-curve $-1 65.656300546281315 12.124566086619962 -1.9215654598765803 0 -1 0 I I #
face $-1 $-1 $391 $33 $-1 $392 reversed single #
loop $-1 $-1 $154 $148 #
plane-surface $-1 0 0 7.4562469013321966 0 0 1 1 0 0 forward_v I I I I #
coedge $-1 $393 $394 $395 $396 reversed $149 $-1 #
coedge $-1 $397 $151 $153 $263 forward $93 $-1 #
coedge $-1 $151 $397 $393 $398 forward $93 $-1 #
coedge $-1 $395 $154 $151 $260 forward $254 $-1 #
edge $-1 $266 6.6832871714177084 $399 13.177787175763582 $259 $400 forward 7 unknown #
coedge $-1 $401 $402 $152 $262 forward $391 $-1 #
edge $-1 $403 -89.940594562071681 $265 -86.49996099902603 $261 $404 forward 7 unknown #
edge $-1 $266 125.59550632569022 $403 131.31260109256263 $153 $405 forward 7 unknown #
coedge $-1 $154 $395 $401 $406 forward $254 $-1 #
vertex $-1 $262 $407 #
vertex $-1 $155 $408 #
straight-curve $-1 19.905646109057386 -16.613824345008354 7.456246901332193 -1 0 0 I I #
coedge $-1 $268 $268 $-1 $409 reversed $158 $-1 #
edge $-1 $410 0 $410 6.2831853071796004 $159 $411 forward 7 unknown #
vertex $-1 $162 $412 #
ellipse-curve $-1 63.373363115127987 -19.86107434718129 5.7359301198093684 0.6018150307709319 0 0.79863550430605224 0.79863550430605224 0 -0.6018150307709319 1 I I #
face $-1 $-1 $284 $35 $-1 $413 forward single #
loop $-1 $-1 $414 $163 #
plane-surface $-1 65.656300546281315 0 0 -1 0 0 0 0 1 forward_v I I I I #
coedge $-1 $415 $416 $417 $418 reversed $164 $-1 #
coedge $-1 $419 $166 $168 $282 forward $102 $-1 #
coedge $-1 $166 $419 $415 $420 forward $102 $-1 #
coedge $-1 $417 $169 $166 $279 forward $284 $-1 #
edge $-1 $286 -11.312635468965725 $421 -4.8181354646198518 $278 $422 forward 7 unknown #
coedge $-1 $423 $424 $167 $281 forward $273 $-1 #
edge $-1 $425 -89.940594562071681 $285 -86.49996099902603 $280 $426 forward 7 unknown #
edge $-1 $286 125.59550632569022 $425 131.31260109256263 $168 $427 forward 7 unknown #
coedge $-1 $169 $417 $423 $428 forward $284 $-1 #
loop $-1 $-1 $417 $272 #
vertex $-1 $281 $429 #
vertex $-1 $170 $430 #
straight-curve $-1 19.905646109057386 19.378020935758514 7.456246901332193 -1 0 0 I I #
coedge $-1 $288 $288 $-1 $431 reversed $173 $-1 #
edge $-1 $432 0 $432 6.2831853071796004 $174 $433 forward 7 unknown #
vertex $-1 $177 $434 #
ellipse-curve $-1 63.373363115127987 16.130770933585577 5.7359301198093684 0.6018150307709319 0 0.79863550430605224 0.79863550430605224 0 -0.6018150307709319 1 I I #
face $-1 $-1 $304 $37 $-1 $435 forward single #
loop $-1 $-1 $436 $178 #
plane-surface $-1 -65.656300546281315 0 0 1 0 0 0 0 -1 forward_v I I I I #
coedge $-1 $437 $438 $439 $440 reversed $179 $-1 #
coedge $-1 $441 $181 $183 $302 forward $111 $-1 #
coedge $-1 $181 $441 $437 $442 forward $111 $-1 #
coedge $-1 $439 $184 $181 $299 forward $304 $-1 #
edge $-1 $306 4.9161747268370899 $443 11.27995571489331 $298 $444 forward 7 unknown #
coedge $-1 $445 $446 $182 $301 forward $293 $-1 #
edge $-1 $447 -45.933740532965821 $305 -41.068391782739326 $300 $448 forward 7 unknown #
edge $-1 $306 -7.0039445286674944 $447 -1.9785632286268914e-014 $183 $449 forward 7 unknown #
coedge $-1 $184 $439 $445 $450 forward $304 $-1 #
loop $-1 $-1 $439 $292 #
vertex $-1 $301 $451 #
vertex $-1 $185 $452 #
straight-curve $-1 -78.436849556788417 13.01423994770229 7.456246901332193 1 0 0 I I #
coedge $-1 $308 $308 $-1 $453 reversed $188 $-1 #
edge $-1 $454 0 $454 6.2831853071796004 $189 $455 forward 7 unknown #
vertex $-1 $192 $456 #
ellipse-curve $-1 -63.137192544461996 14.832463087146923 5.0235725262189508 -0.69465837861970381 0 0.71933979245794832 0.35966989622897416 0 0.3473291893098519 1 I I #
coedge $-1 $312 $312 $-1 $457 reversed $195 $-1 #
edge $-1 $458 0 $458 6.2831853071796004 $196 $459 forward 7 unknown #
vertex $-1 $199 $460 #
ellipse-curve $-1 -63.137192544461996 17.559797796313877 5.0235725262189508 -0.69465837861970381 0 0.71933979245794832 0.35966989622897416 0 0.3473291893098519 1 I I #
face $-1 $-1 $215 $30 $-1 $461 reversed single #
loop $-1 $-1 $332 $200 #
plane-surface $-1 0 29.120243410721347 0 0 -1 0 0 0 -1 forward_v I I I I #
coedge $-1 $462 $330 $333 $463 forward $201 $-1 #
coedge $-1 $336 $203 $204 $324 reversed $125 $-1 #
coedge $-1 $330 $462 $203 $322 reversed $201 $-1 #
edge $-1 $337 -7.4562469013321966 $464 7.4562469013321966 $321 $465 forward 7 unknown #
coedge $-1 $205 $204 $462 $466 forward $81 $-1 #
edge $-1 $328 -65.656300546281315 $464 65.656300546281315 $320 $467 forward 7 unknown #
coedge $-1 $333 $332 $205 $326 reversed $317 $-1 #
edge $-1 $468 -65.656300546281315 $327 65.656300546281315 $325 $469 forward 7 unknown #
vertex $-1 $207 $470 #
vertex $-1 $339 $471 #
straight-curve $-1 65.656300546281315 0 -7.4562469013321966 0 -1 0 I I #
coedge $-1 $319 $321 $208 $331 reversed $201 $-1 #
edge $-1 $334 -29.120243410721347 $337 29.120243410721347 $330 $472 forward 7 unknown #
coedge $-1 $325 $209 $214 $340 forward $317 $-1 #
coedge $-1 $209 $325 $319 $463 reversed $317 $-1 #
vertex $-1 $210 $473 #
straight-curve $-1 0 29.120243410721347 7.4562469013321966 -1 0 0 I I #
coedge $-1 $211 $320 $213 $339 reversed $125 $-1 #
vertex $-1 $331 $474 #
straight-curve $-1 0 -29.120243410721347 7.4562469013321966 1 0 0 I I #
edge $-1 $216 -7.4562469013321966 $328 7.4562469013321966 $213 $475 forward 7 unknown #
edge $-1 $217 -7.4562469013321966 $327 7.4562469013321966 $214 $476 forward 7 unknown #
point $-1 65.656300546281315 -29.120243410721347 7.4562469013321966 #
point $-1 65.656300546281315 29.120243410721347 7.4562469013321966 #
face $-1 $-1 $477 $31 $-1 $478 reversed single #
loop $-1 $-1 $229 $219 #
plane-surface $-1 0 -29.120243410721347 0 0 1 0 0 0 1 forward_v I I I I #
coedge $-1 $479 $222 $350 $480 forward $133 $-1 #
coedge $-1 $222 $479 $481 $482 forward $133 $-1 #
edge $-1 $483 -65.656300546281315 $351 65.656300546281315 $222 $484 forward 7 unknown #
coedge $-1 $224 $223 $485 $486 reversed $85 $-1 #
coedge $-1 $225 $231 $346 $480 reversed $220 $-1 #
vertex $-1 $480 $487 #
straight-curve $-1 65.656300546281315 -23.108324349354231 -2.9781234506660983 0 0 1 I I #
coedge $-1 $485 $488 $227 $354 forward $477 $-1 #
edge $-1 $359 -16.063101470702453 $355 -10.051182409335336 $353 $489 forward 7 unknown #
vertex $-1 $354 $490 #
straight-curve $-1 0 -23.108324349354231 -4.4562469013321966 -1 0 0 I I #
coedge $-1 $491 $229 $488 $492 forward $344 $-1 #
coedge $-1 $229 $491 $231 $361 reversed $344 $-1 #
vertex $-1 $492 $493 #
straight-curve $-1 0 -29.120243410721347 -4.4562469013321966 -1 0 0 I I #
edge $-1 $233 4.4562469013321966 $494 7.4562469013321966 $231 $495 forward 7 unknown #
point $-1 65.656300546281315 -23.108324349354231 -4.4562469013321966 #
point $-1 65.656300546281315 -29.120243410721347 -4.4562469013321966 #
face $-1 $-1 $381 $32 $-1 $496 reversed single #
loop $-1 $-1 $377 $235 #
plane-surface $-1 -65.656300546281315 0 0 1 0 0 0 0 -1 forward_v I I I I #
coedge $-1 $384 $238 $239 $371 reversed $141 $-1 #
coedge $-1 $377 $497 $238 $369 forward $365 $-1 #
edge $-1 $498 -3.2107827299382903 $385 -0.21078272993829006 $368 $499 forward 7 unknown #
coedge $-1 $240 $239 $497 $500 reversed $89 $-1 #
edge $-1 $374 -65.656300546281315 $498 65.656300546281315 $367 $501 forward 7 unknown #
coedge $-1 $380 $379 $240 $373 forward $381 $-1 #
edge $-1 $375 -65.656300546281315 $502 65.656300546281315 $372 $503 forward 7 unknown #
vertex $-1 $242 $504 #
vertex $-1 $373 $505 #
straight-curve $-1 65.656300546281315 12.124566086619962 -4.9215654598765806 0 1 0 I I #
coedge $-1 $506 $368 $243 $378 forward $365 $-1 #
edge $-1 $385 7.253454849138544 $382 16.995677324101379 $377 $507 forward 7 unknown #
coedge $-1 $372 $244 $249 $388 forward $381 $-1 #
coedge $-1 $244 $372 $506 $508 reversed $381 $-1 #
loop $-1 $-1 $244 $364 #
vertex $-1 $508 $509 #
straight-curve $-1 0 29.120243410721347 -1.9215654598765803 1 0 0 I I #
coedge $-1 $246 $367 $248 $387 reversed $141 $-1 #
vertex $-1 $378 $510 #
straight-curve $-1 0 19.378020935758506 -1.9215654598765803 1 0 0 I I #
edge $-1 $251 0.21078272993829006 $374 3.2107827299382903 $248 $511 forward 7 unknown #
edge $-1 $250 1.9215654598765803 $375 4.9215654598765806 $249 $512 forward 7 unknown #
point $-1 65.656300546281315 29.120243410721343 -1.9215654598765803 #
point $-1 65.656300546281315 19.378020935758506 -1.9215654598765803 #
loop $-1 $-1 $261 $253 #
plane-surface $-1 65.656300546281315 0 0 -1 0 0 0 0 1 forward_v I I I I #
coedge $-1 $394 $256 $258 $398 reversed $149 $-1 #
coedge $-1 $256 $393 $513 $514 reversed $149 $-1 #
coedge $-1 $264 $259 $256 $396 forward $254 $-1 #
edge $-1 $399 41.184779574917286 $515 45.750654437223929 $395 $516 forward 7 unknown #
coedge $-1 $258 $257 $402 $517 reversed $93 $-1 #
edge $-1 $518 -131.31260109256263 $399 -125.59550632569022 $393 $519 forward 7 unknown #
vertex $-1 $260 $520 #
straight-curve $-1 61.090425683974658 -9.9305371735906451 7.456246901332193 0 -1 0 I I #
coedge $-1 $513 $261 $264 $406 reversed $391 $-1 #
coedge $-1 $261 $513 $397 $517 forward $391 $-1 #
vertex $-1 $262 $521 #
straight-curve $-1 65.656300546281315 -16.613824345008354 93.956207900358223 0 0 1 I I #
straight-curve $-1 -39.214604849016908 -16.613824345008354 83.041510405418222 0.79863550430605224 0 -0.6018150307709319 I I #
edge $-1 $515 -23.108324349354227 $265 -16.613824345008354 $401 $522 forward 7 unknown #
point $-1 65.656300546281315 -16.613824345008354 7.4562469013321966 #
point $-1 61.090425683974672 -16.613824345008354 7.456246901332193 #
edge $-1 $523 1 $523 0 $268 $-1 forward 7 unknown #
vertex $-1 $269 $524 #
ellipse-curve $-1 61.604100023322381 -19.86107434718129 3.3880387423471046 0.6018150307709319 0 0.79863550430605224 0.79863550430605224 0 -0.6018150307709319 1 I I #
point $-1 64.171998619434049 -19.86107434718129 5.1341150890384473 #
plane-surface $-1 0 0 7.4562469013321966 0 0 1 1 0 0 forward_v I I I I #
coedge $-1 $424 $423 $416 $525 forward $273 $-1 #
coedge $-1 $416 $275 $277 $420 reversed $164 $-1 #
coedge $-1 $275 $415 $414 $525 reversed $164 $-1 #
coedge $-1 $283 $278 $275 $418 forward $284 $-1 #
edge $-1 $421 41.184779574917286 $526 45.750654437223929 $417 $527 forward 7 unknown #
coedge $-1 $277 $276 $424 $528 reversed $102 $-1 #
edge $-1 $529 -131.31260109256263 $421 -125.59550632569022 $415 $530 forward 7 unknown #
vertex $-1 $279 $531 #
straight-curve $-1 61.090425683974658 8.0653854667927884 7.456246901332193 0 -1 0 I I #
coedge $-1 $414 $280 $283 $428 reversed $273 $-1 #
coedge $-1 $280 $414 $419 $528 forward $273 $-1 #
vertex $-1 $281 $532 #
straight-curve $-1 65.656300546281315 19.378020935758514 93.956207900358223 0 0 1 I I #
straight-curve $-1 -39.214604849016908 19.378020935758514 83.041510405418222 0.79863550430605224 0 -0.6018150307709319 I I #
edge $-1 $526 12.88352093141264 $285 19.378020935758514 $423 $533 forward 7 unknown #
point $-1 65.656300546281315 19.378020935758514 7.4562469013321966 #
point $-1 61.090425683974672 19.378020935758514 7.456246901332193 #
edge $-1 $534 1 $534 0 $288 $-1 forward 7 unknown #
vertex $-1 $289 $535 #
ellipse-curve $-1 61.604100023322381 16.130770933585577 3.3880387423471046 0.6018150307709319 0 0.79863550430605224 0.79863550430605224 0 -0.6018150307709319 1 I I #
point $-1 64.171998619434049 16.130770933585577 5.1341150890384473 #
plane-surface $-1 0 0 7.4562469013321966 0 0 1 1 0 0 forward_v I I I I #
coedge $-1 $446 $445 $438 $536 forward $293 $-1 #
coedge $-1 $438 $295 $297 $442 reversed $179 $-1 #
coedge $-1 $295 $437 $436 $536 reversed $179 $-1 #
coedge $-1 $303 $298 $295 $440 forward $304 $-1 #
edge $-1 $443 -17.818765014145747 $537 -12.780549010507102 $439 $538 forward 7 unknown #
coedge $-1 $297 $296 $446 $539 reversed $111 $-1 #
edge $-1 $540 1.9785632286268914e-014 $443 7.0039445286674944 $437 $541 forward 7 unknown #
vertex $-1 $299 $542 #
straight-curve $-1 -60.61808454264267 8.0980652208652 7.4562469013321966 0 1 0 I I #
coedge $-1 $436 $300 $303 $450 reversed $293 $-1 #
coedge $-1 $300 $436 $441 $539 forward $293 $-1 #
vertex $-1 $301 $543 #
straight-curve $-1 -65.656300546281315 13.01423994770229 48.524638684071526 0 0 1 I I #
straight-curve $-1 -65.656300546281329 13.01423994770229 2.5908981511056908 -0.71933979245794832 0 -0.69465837861970381 I I #
edge $-1 $537 -19.37802093575851 $305 -13.01423994770229 $445 $544 forward 7 unknown #
point $-1 -65.656300546281315 13.01423994770229 7.4562469013321966 #
point $-1 -60.61808454264267 13.01423994770229 7.4562469013321966 #
edge $-1 $545 1 $545 0 $308 $-1 forward 7 unknown #
vertex $-1 $309 $546 #
ellipse-curve $-1 -62.356907615006222 14.832463087146923 4.2155638467179992 -0.69465837861970381 0 0.71933979245794832 0.35966989622897416 0 0.3473291893098519 1 I I #
point $-1 -62.77752264823301 14.832463087146923 5.3709017155287899 #
edge $-1 $547 1 $547 0 $312 $-1 forward 7 unknown #
vertex $-1 $313 $548 #
ellipse-curve $-1 -62.356907615006222 17.559797796313877 4.2155638467179992 -0.69465837861970381 0 0.71933979245794832 0.35966989622897416 0 0.3473291893098519 1 I I #
point $-1 -62.77752264823301 17.559797796313877 5.3709017155287899 #
plane-surface $-1 65.656300546281315 0 0 -1 0 0 0 0 1 forward_v I I I I #
coedge $-1 $321 $319 $323 $466 reversed $201 $-1 #
edge $-1 $334 -7.4562469013321966 $468 7.4562469013321966 $333 $549 forward 7 unknown #
vertex $-1 $466 $550 #
straight-curve $-1 -65.656300546281315 -29.120243410721347 0 0 0 -1 I I #
edge $-1 $464 -29.120243410721347 $468 29.120243410721347 $462 $551 forward 7 unknown #
straight-curve $-1 0 -29.120243410721347 -7.4562469013321966 -1 0 0 I I #
vertex $-1 $326 $552 #
straight-curve $-1 0 29.120243410721347 -7.4562469013321966 1 0 0 I I #
point $-1 65.656300546281315 29.120243410721347 -7.4562469013321966 #
point $-1 65.656300546281315 -29.120243410721347 -7.4562469013321966 #
straight-curve $-1 -65.656300546281315 0 7.4562469013321966 0 -1 0 I I #
point $-1 -65.656300546281315 29.120243410721347 7.4562469013321966 #
point $-1 -65.656300546281315 -29.120243410721347 7.4562469013321966 #
straight-curve $-1 65.656300546281315 -29.120243410721347 0 0 0 -1 I I #
straight-curve $-1 65.656300546281315 29.120243410721347 0 0 0 -1 I I #
loop $-1 $-1 $485 $343 #
plane-surface $-1 -65.656300546281315 0 0 1 0 0 0 0 -1 forward_v I I I I #
coedge $-1 $347 $346 $491 $553 forward $133 $-1 #
edge $-1 $351 23.108324349354231 $494 29.120243410721347 $350 $554 forward 7 unknown #
coedge $-1 $488 $485 $347 $482 reversed $477 $-1 #
edge $-1 $555 -29.120243410721347 $483 -23.108324349354231 $481 $556 forward 7 unknown #
vertex $-1 $486 $557 #
straight-curve $-1 0 -23.108324349354231 -7.4562469013321966 1 0 0 I I #
coedge $-1 $481 $353 $349 $486 forward $477 $-1 #
edge $-1 $355 1.4781234506660983 $483 4.4781234506660983 $485 $558 forward 7 unknown #
point $-1 65.656300546281315 -23.108324349354231 -7.4562469013321966 #
coedge $-1 $353 $481 $357 $492 reversed $477 $-1 #
straight-curve $-1 -65.656300546281315 -13.057141940018894 -4.4562469013321966 0 1 0 I I #
point $-1 -65.656300546281315 -23.108324349354231 -4.4562469013321966 #
coedge $-1 $358 $357 $479 $553 reversed $344 $-1 #
edge $-1 $359 4.4562469013321966 $555 7.4562469013321966 $488 $559 forward 7 unknown #
point $-1 -65.656300546281315 -29.120243410721347 -4.4562469013321966 #
vertex $-1 $361 $560 #
straight-curve $-1 65.656300546281315 -29.120243410721347 0 0 0 -1 I I #
plane-surface $-1 0 29.120243410721347 0 0 -1 0 0 0 -1 forward_v I I I I #
coedge $-1 $368 $506 $370 $500 forward $365 $-1 #
vertex $-1 $500 $561 #
straight-curve $-1 -65.656300546281315 19.378020935758506 -1.7107827299382903 0 0 1 I I #
edge $-1 $502 -16.995677324101379 $498 -7.253454849138544 $497 $562 forward 7 unknown #
straight-curve $-1 0 19.378020935758506 -4.9215654598765806 -1 0 0 I I #
vertex $-1 $373 $563 #
straight-curve $-1 0 29.120243410721347 -4.9215654598765806 -1 0 0 I I #
point $-1 65.656300546281315 19.378020935758506 -4.9215654598765806 #
point $-1 65.656300546281315 29.120243410721343 -4.9215654598765806 #
coedge $-1 $497 $377 $380 $508 forward $365 $-1 #
straight-curve $-1 -65.656300546281315 12.124566086619962 -1.9215654598765803 0 1 0 I I #
edge $-1 $382 1.9215654598765803 $502 4.9215654598765806 $380 $564 forward 7 unknown #
point $-1 -65.656300546281315 29.120243410721343 -1.9215654598765803 #
point $-1 -65.656300546281315 19.378020935758506 -1.9215654598765803 #
straight-curve $-1 65.656300546281315 19.378020935758506 -1.7107827299382903 0 0 -1 I I #
straight-curve $-1 65.656300546281315 29.120243410721347 0 0 0 -1 I I #
coedge $-1 $402 $401 $394 $514 forward $391 $-1 #
edge $-1 $515 86.49996099902603 $518 89.940594562071681 $513 $565 forward 7 unknown #
vertex $-1 $406 $566 #
straight-curve $-1 19.905646109057386 -23.108324349354227 7.456246901332193 1 0 0 I I #
edge $-1 $518 -13.177787175763582 $403 -6.6832871714177084 $402 $567 forward 7 unknown #
vertex $-1 $517 $568 #
straight-curve $-1 -39.214604849016908 -23.108324349354227 83.041510405418222 -0.79863550430605224 0 0.6018150307709319 I I #
point $-1 61.090425683974672 -23.108324349354227 7.456246901332193 #
point $-1 65.656300546281315 -16.613824345008354 4.015613338286542 #
straight-curve $-1 65.656300546281315 0 7.4562469013321966 0 1 0 I I #
vertex $-1 $409 $569 #
point $-1 62.40273552762843 -19.86107434718129 2.7862237115761728 #
edge $-1 $526 86.49996099902603 $529 89.940594562071681 $414 $570 forward 7 unknown #
vertex $-1 $428 $571 #
straight-curve $-1 19.905646109057386 12.88352093141264 7.456246901332193 1 0 0 I I #
edge $-1 $529 4.8181354646198518 $425 11.312635468965725 $424 $572 forward 7 unknown #
vertex $-1 $528 $573 #
straight-curve $-1 -39.214604849016908 12.88352093141264 83.041510405418222 -0.79863550430605224 0 0.6018150307709319 I I #
point $-1 61.090425683974672 12.88352093141264 7.456246901332193 #
point $-1 65.656300546281315 19.378020935758514 4.015613338286542 #
straight-curve $-1 65.656300546281315 0 7.4562469013321966 0 1 0 I I #
vertex $-1 $431 $574 #
point $-1 62.40273552762843 16.130770933585577 2.7862237115761728 #
edge $-1 $537 41.068391782739326 $540 45.933740532965821 $436 $575 forward 7 unknown #
vertex $-1 $450 $576 #
straight-curve $-1 -78.436849556788417 19.37802093575851 7.456246901332193 -1 0 0 I I #
edge $-1 $540 -11.27995571489331 $447 -4.9161747268370899 $446 $577 forward 7 unknown #
vertex $-1 $539 $578 #
straight-curve $-1 -65.656300546281329 19.37802093575851 2.5908981511056908 0.71933979245794832 0 0.69465837861970381 I I #
point $-1 -60.61808454264267 19.37802093575851 7.4562469013321966 #
point $-1 -65.656300546281315 13.01423994770229 2.5908981511057045 #
straight-curve $-1 -65.656300546281315 0 7.4562469013321966 0 -1 0 I I #
vertex $-1 $453 $579 #
point $-1 -61.997237718777249 14.832463087146923 4.5628930360278517 #
vertex $-1 $457 $580 #
point $-1 -61.997237718777249 17.559797796313877 4.5628930360278517 #
straight-curve $-1 -65.656300546281315 29.120243410721347 0 0 0 -1 I I #
point $-1 -65.656300546281315 -29.120243410721347 -7.4562469013321966 #
straight-curve $-1 -65.656300546281315 0 -7.4562469013321966 0 1 0 I I #
point $-1 -65.656300546281315 29.120243410721347 -7.4562469013321966 #
edge $-1 $494 -65.656300546281315 $555 65.656300546281315 $491 $581 forward 7 unknown #
straight-curve $-1 65.656300546281315 0 -7.4562469013321966 0 -1 0 I I #
vertex $-1 $482 $582 #
straight-curve $-1 -65.656300546281315 0 -7.4562469013321966 0 1 0 I I #
point $-1 -65.656300546281315 -23.108324349354231 -7.4562469013321966 #
straight-curve $-1 -65.656300546281315 -23.108324349354231 -2.9781234506660983 0 0 -1 I I #
straight-curve $-1 -65.656300546281315 -29.120243410721347 0 0 0 -1 I I #
point $-1 65.656300546281315 -29.120243410721347 -7.4562469013321966 #
point $-1 -65.656300546281315 19.378020935758506 -4.9215654598765806 #
straight-curve $-1 -65.656300546281315 12.124566086619962 -4.9215654598765806 0 -1 0 I I #
point $-1 -65.656300546281315 29.120243410721343 -4.9215654598765806 #
straight-curve $-1 -65.656300546281315 29.120243410721347 0 0 0 -1 I I #
straight-curve $-1 65.656300546281315 -23.108324349354227 93.956207900358223 0 0 -1 I I #
point $-1 65.656300546281315 -23.108324349354227 7.4562469013321966 #
straight-curve $-1 65.656300546281315 -9.9305371735906451 4.0156133382865349 0 1 0 I I #
point $-1 65.656300546281315 -23.108324349354227 4.015613338286542 #
point $-1 61.002284992551445 -19.86107434718129 2.5894032380410525 #
straight-curve $-1 65.656300546281315 12.88352093141264 93.956207900358223 0 0 -1 I I #
point $-1 65.656300546281315 12.88352093141264 7.4562469013321966 #
straight-curve $-1 65.656300546281315 8.0653854667927884 4.0156133382865349 0 1 0 I I #
point $-1 65.656300546281315 12.88352093141264 4.015613338286542 #
point $-1 61.002284992551445 16.130770933585577 2.5894032380410525 #
straight-curve $-1 -65.656300546281315 19.37802093575851 48.524638684071526 0 0 -1 I I #
point $-1 -65.656300546281315 19.37802093575851 7.4562469013321966 #
straight-curve $-1 -65.656300546281315 8.0980652208652 2.5908981511057148 0 -1 0 I I #
point $-1 -65.656300546281315 19.37802093575851 2.5908981511057045 #
point $-1 -62.009578425696375 14.832463087146923 3.8558939504890253 #
point $-1 -62.009578425696375 17.559797796313877 3.8558939504890253 #
straight-curve $-1 0 -29.120243410721347 -7.4562469013321966 -1 0 0 I I #
point $-1 -65.656300546281315 -29.120243410721347 -7.4562469013321966 #
End-of-ACIS-data 