500 0 9 0           
7 Unknown 11 ACIS 5.0 NT 24 Thu Mar 25 19:25:12 1999 
-1 9.9999999999999995e-007 1e-010 
body $-1 $9 $-1 $10 #
body $-1 $11 $-1 $12 #
body $-1 $13 $-1 $14 #
body $-1 $15 $-1 $16 #
body $-1 $17 $-1 $18 #
body $-1 $19 $-1 $20 #
body $-1 $21 $-1 $22 #
body $-1 $23 $-1 $24 #
body $-1 $25 $-1 $26 #
lump $-1 $-1 $27 $0 #
transform $-1 1 0 0 0 1 0 0 0 1 47.887203588976718 28.784641922925061 12.952869249224454 1 rotate no_reflect no_shear #
lump $-1 $-1 $28 $1 #
transform $-1 1 0 0 0 1 0 0 0 1 47.887203588976718 28.784641922925061 12.952869249224454 1 rotate no_reflect no_shear #
lump $-1 $-1 $29 $2 #
transform $-1 1 0 0 0 1 0 0 0 1 47.887203588976718 28.784641922925061 12.952869249224454 1 rotate no_reflect no_shear #
lump $-1 $-1 $30 $3 #
transform $-1 1 0 0 0 1 0 0 0 1 47.887203588976718 28.784641922925061 12.952869249224454 1 rotate no_reflect no_shear #
lump $-1 $-1 $31 $4 #
transform $-1 1 0 0 0 1 0 0 0 1 47.887203588976718 28.784641922925061 12.952869249224454 1 rotate no_reflect no_shear #
lump $-1 $-1 $32 $5 #
transform $-1 1 0 0 0 1 0 0 0 1 47.887203588976718 28.784641922925061 12.952869249224454 1 rotate no_reflect no_shear #
lump $-1 $-1 $33 $6 #
transform $-1 1 0 0 0 1 0 0 0 1 47.887203588976718 28.784641922925061 12.952869249224454 1 rotate no_reflect no_shear #
lump $-1 $-1 $34 $7 #
transform $-1 1 0 0 0 1 0 0 0 1 47.887203588976718 28.784641922925061 12.952869249224454 1 rotate no_reflect no_shear #
lump $-1 $-1 $35 $8 #
transform $-1 1 0 0 0 1 0 0 0 1 47.887203588976718 28.784641922925061 12.952869249224454 1 rotate no_reflect no_shear #
shell $-1 $-1 $-1 $36 $-1 $9 #
shell $-1 $-1 $-1 $37 $-1 $11 #
shell $-1 $-1 $-1 $38 $-1 $13 #
shell $-1 $-1 $-1 $39 $-1 $15 #
shell $-1 $-1 $-1 $40 $-1 $17 #
shell $-1 $-1 $-1 $41 $-1 $19 #
shell $-1 $-1 $-1 $42 $-1 $21 #
shell $-1 $-1 $-1 $43 $-1 $23 #
shell $-1 $-1 $-1 $44 $-1 $25 #
face $-1 $45 $46 $27 $-1 $47 forward single #
face $-1 $48 $49 $28 $-1 $50 forward single #
face $-1 $51 $52 $29 $-1 $53 reversed single #
face $-1 $54 $55 $30 $-1 $56 forward single #
face $-1 $57 $58 $31 $-1 $59 forward single #
face $-1 $60 $61 $32 $-1 $62 reversed single #
face $-1 $63 $64 $33 $-1 $65 forward single #
face $-1 $66 $67 $34 $-1 $68 forward single #
face $-1 $69 $70 $35 $-1 $71 forward single #
face $-1 $72 $73 $27 $-1 $74 reversed single #
loop $-1 $-1 $75 $36 #
plane-surface $-1 0 0 12.952869249224454 0 0 1 1 0 0 forward_v I I I I #
face $-1 $76 $77 $28 $-1 $78 reversed single #
loop $-1 $-1 $79 $37 #
plane-surface $-1 -39.373139966874795 0 -9.9528692492244542 0 0 1 1 0 0 forward_v I I I I #
face $-1 $80 $81 $29 $-1 $82 reversed single #
loop $-1 $-1 $83 $38 #
plane-surface $-1 -0.78629279346901981 -86.423119725792859 77.163159726758749 1 0 0 0 0.6018150307709319 -0.79863550430605224 forward_v I I I I #
face $-1 $84 $85 $30 $-1 $86 forward single #
loop $-1 $87 $88 $39 #
cone-surface $-1 2.4281843983908118 -19.882124758549601 5.8111130283958845 0 0.6018150307709319 -0.79863550430605224 1 0 0 1 I I 0 1 1 forward I I I I #
face $-1 $89 $90 $31 $-1 $91 forward single #
loop $-1 $92 $93 $40 #
cone-surface $-1 7.2499001861805539 -19.882124758549601 5.8111130283958845 0 0.6018150307709319 -0.79863550430605224 1 0 0 1 I I 0 1 1 forward I I I I #
face $-1 $94 $95 $32 $-1 $96 reversed single #
loop $-1 $-1 $97 $41 #
plane-surface $-1 -30.859076344772866 34.613912395923677 116.52910515539116 1 0 0 0 -0.55919291073839883 -0.82903756765294845 forward_v I I I I #
face $-1 $98 $99 $33 $-1 $100 forward single #
loop $-1 $101 $102 $42 #
cone-surface $-1 -26.147084674308598 21.3113644520474 6.6752195926551128 0 -0.55919291073839883 -0.82903756765294845 1.5 0 0 1 I I 0 1 1.5 forward I I I I #
face $-1 $103 $104 $34 $-1 $105 forward single #
loop $-1 $106 $107 $43 #
cone-surface $-1 -19.079097168612186 21.3113644520474 6.6752195926551128 0 -0.55919291073839883 -0.82903756765294845 1.5 0 0 1 I I 0 1 1.5 forward I I I I #
face $-1 $108 $109 $35 $-1 $110 forward single #
loop $-1 $111 $112 $44 #
cone-surface $-1 -12.011109662915779 21.3113644520474 6.6752195926551128 0 -0.55919291073839883 -0.82903756765294845 1.5 0 0 1 I I 0 1 1.5 forward I I I I #
face $-1 $113 $114 $27 $-1 $115 reversed single #
loop $-1 $-1 $116 $45 #
plane-surface $-1 0 0 -12.952869249224454 0 0 1 1 0 0 forward_v I I I I #
coedge $-1 $117 $118 $119 $120 forward $46 $-1 #
face $-1 $121 $122 $28 $-1 $123 reversed single #
loop $-1 $-1 $124 $48 #
plane-surface $-1 -30.859076344772873 0 -11.452869249224454 -1 0 0 0 0 1 forward_v I I I I #
coedge $-1 $125 $126 $127 $128 forward $49 $-1 #
face $-1 $129 $130 $29 $-1 $131 reversed single #
loop $-1 $-1 $132 $51 #
plane-surface $-1 4.8390422922856828 -28.784641922925047 0.67431775058071253 0 -0.6018150307709319 0.79863550430605224 1 0 0 forward_v I I I I #
coedge $-1 $133 $134 $135 $136 reversed $52 $-1 #
face $-1 $-1 $137 $30 $-1 $138 forward single #
loop $-1 $139 $140 $54 #
cone-surface $-1 2.4281843983908118 -18.825794008717168 4.409314804736157 0 0.6018150307709319 -0.79863550430605224 0.5 0 0 1 I I -0.70710678118654746 0.70710678118654746 0.5 forward I I I I #
loop $-1 $-1 $141 $39 #
coedge $-1 $88 $88 $142 $143 reversed $55 $-1 #
face $-1 $-1 $144 $31 $-1 $145 forward single #
loop $-1 $146 $147 $57 #
cone-surface $-1 7.2499001861805539 -18.825794008717168 4.409314804736157 0 0.6018150307709319 -0.79863550430605224 0.5 0 0 1 I I -0.70710678118654746 0.70710678118654746 0.5 forward I I I I #
loop $-1 $-1 $148 $40 #
coedge $-1 $93 $93 $149 $150 reversed $58 $-1 #
face $-1 $151 $152 $32 $-1 $153 reversed single #
loop $-1 $-1 $154 $60 #
plane-surface $-1 -19.079097168612186 -18.942457128160704 37.128523585177561 0 0.55919291073839883 0.82903756765294845 1 0 0 forward_v I I I I #
coedge $-1 $155 $156 $157 $158 reversed $61 $-1 #
face $-1 $-1 $159 $33 $-1 $160 forward single #
loop $-1 $161 $162 $63 #
cone-surface $-1 -26.147084674308598 19.36130140916805 3.7841322938125206 0 -0.55919291073839883 -0.82903756765294845 0.75 0 0 1 I I -0.70710678118654757 0.70710678118654757 0.75 forward I I I I #
loop $-1 $-1 $163 $42 #
coedge $-1 $102 $102 $164 $165 reversed $64 $-1 #
face $-1 $-1 $166 $34 $-1 $167 forward single #
loop $-1 $168 $169 $66 #
cone-surface $-1 -19.079097168612186 19.36130140916805 3.7841322938125206 0 -0.55919291073839883 -0.82903756765294845 0.75 0 0 1 I I -0.70710678118654757 0.70710678118654757 0.75 forward I I I I #
loop $-1 $-1 $170 $43 #
coedge $-1 $107 $107 $171 $172 reversed $67 $-1 #
face $-1 $-1 $173 $35 $-1 $174 forward single #
loop $-1 $175 $176 $69 #
cone-surface $-1 -12.011109662915779 19.36130140916805 3.7841322938125206 0 -0.55919291073839883 -0.82903756765294845 0.75 0 0 1 I I -0.70710678118654757 0.70710678118654757 0.75 forward I I I I #
loop $-1 $-1 $177 $44 #
coedge $-1 $112 $112 $178 $179 reversed $70 $-1 #
face $-1 $180 $181 $27 $-1 $182 reversed single #
loop $-1 $-1 $183 $72 #
plane-surface $-1 0 -28.784641922925061 0 0 1 0 0 0 1 forward_v I I I I #
coedge $-1 $184 $185 $186 $187 forward $73 $-1 #
coedge $-1 $188 $75 $189 $190 forward $46 $-1 #
coedge $-1 $75 $188 $191 $192 forward $46 $-1 #
coedge $-1 $193 $194 $75 $120 reversed $195 $-1 #
edge $-1 $196 -28.784641922925061 $197 28.784641922925061 $119 $198 forward 7 unknown #
face $-1 $199 $200 $28 $-1 $201 reversed single #
loop $-1 $-1 $202 $76 #
plane-surface $-1 0 0 -12.952869249224454 0 0 1 1 0 0 forward_v I I I I #
coedge $-1 $203 $127 $204 $205 reversed $77 $-1 #
coedge $-1 $206 $79 $207 $208 reversed $49 $-1 #
coedge $-1 $79 $206 $209 $210 reversed $49 $-1 #
coedge $-1 $124 $211 $79 $128 reversed $77 $-1 #
edge $-1 $212 -28.784641922925061 $213 28.784641922925061 $127 $214 forward 7 unknown #
face $-1 $215 $216 $29 $-1 $217 forward single #
loop $-1 $-1 $218 $80 #
plane-surface $-1 10.464377378040385 -86.423119725792859 77.163159726758749 -1 0 0 0 -0.6018150307709319 0.79863550430605224 forward_v I I I I #
coedge $-1 $219 $220 $221 $222 reversed $81 $-1 #
coedge $-1 $134 $83 $223 $224 reversed $52 $-1 #
coedge $-1 $83 $133 $219 $225 reversed $52 $-1 #
coedge $-1 $221 $226 $83 $136 forward $227 $-1 #
edge $-1 $228 25.628710614154919 $229 37.907262112798676 $135 $230 forward 7 unknown #
loop $-1 $-1 $142 $84 #
plane-surface $-1 4.8390422922856828 -28.784641922925047 0.67431775058071253 0 -0.6018150307709319 0.79863550430605224 1 0 0 forward_v I I I I #
loop $-1 $-1 $231 $54 #
coedge $-1 $140 $140 $141 $232 reversed $85 $-1 #
coedge $-1 $141 $141 $140 $232 forward $87 $-1 #
coedge $-1 $142 $142 $88 $143 forward $137 $-1 #
edge $-1 $233 2.0506379175329768e-016 $233 6.2831853071796004 $142 $234 forward 7 unknown #
loop $-1 $-1 $149 $89 #
plane-surface $-1 4.8390422922856828 -28.784641922925047 0.67431775058071253 0 -0.6018150307709319 0.79863550430605224 1 0 0 forward_v I I I I #
loop $-1 $-1 $235 $57 #
coedge $-1 $147 $147 $148 $236 reversed $90 $-1 #
coedge $-1 $148 $148 $147 $236 forward $92 $-1 #
coedge $-1 $149 $149 $93 $150 forward $144 $-1 #
edge $-1 $237 2.0506379175329768e-016 $237 6.2831853071796004 $149 $238 forward 7 unknown #
face $-1 $239 $240 $32 $-1 $241 reversed single #
loop $-1 $-1 $242 $94 #
plane-surface $-1 -7.2991179924515048 34.613912395923677 116.52910515539116 -1 0 0 0 0.55919291073839883 0.82903756765294845 forward_v I I I I #
coedge $-1 $243 $244 $245 $246 reversed $95 $-1 #
coedge $-1 $156 $97 $247 $248 reversed $61 $-1 #
coedge $-1 $97 $155 $243 $249 reversed $61 $-1 #
coedge $-1 $245 $250 $97 $158 forward $251 $-1 #
edge $-1 $252 -11.477685724963223 $253 0.40753249714096995 $157 $254 forward 7 unknown #
loop $-1 $-1 $164 $98 #
plane-surface $-1 -19.079097168612186 -18.942457128160704 37.128523585177561 0 0.55919291073839883 0.82903756765294845 1 0 0 forward_v I I I I #
loop $-1 $-1 $255 $63 #
coedge $-1 $162 $162 $163 $256 reversed $99 $-1 #
coedge $-1 $163 $163 $162 $256 forward $101 $-1 #
coedge $-1 $164 $164 $102 $165 forward $159 $-1 #
edge $-1 $257 7.0841123137317913e-016 $257 6.2831853071796013 $164 $258 forward 7 unknown #
loop $-1 $-1 $171 $103 #
plane-surface $-1 -19.079097168612186 -18.942457128160704 37.128523585177561 0 0.55919291073839883 0.82903756765294845 1 0 0 forward_v I I I I #
loop $-1 $-1 $259 $66 #
coedge $-1 $169 $169 $170 $260 reversed $104 $-1 #
coedge $-1 $170 $170 $169 $260 forward $106 $-1 #
coedge $-1 $171 $171 $107 $172 forward $166 $-1 #
edge $-1 $261 7.0841123137317913e-016 $261 6.2831853071796013 $171 $262 forward 7 unknown #
loop $-1 $-1 $178 $108 #
plane-surface $-1 -19.079097168612186 -18.942457128160704 37.128523585177561 0 0.55919291073839883 0.82903756765294845 1 0 0 forward_v I I I I #
loop $-1 $-1 $263 $69 #
coedge $-1 $176 $176 $177 $264 reversed $109 $-1 #
coedge $-1 $177 $177 $176 $264 forward $111 $-1 #
coedge $-1 $178 $178 $112 $179 forward $173 $-1 #
edge $-1 $265 7.0841123137317913e-016 $265 6.2831853071796013 $178 $266 forward 7 unknown #
face $-1 $267 $268 $27 $-1 $269 reversed single #
loop $-1 $-1 $270 $113 #
plane-surface $-1 -47.887203588976718 0 0 1 0 0 0 0 -1 forward_v I I I I #
coedge $-1 $271 $191 $272 $273 forward $114 $-1 #
coedge $-1 $274 $116 $271 $275 forward $73 $-1 #
coedge $-1 $116 $274 $276 $277 forward $73 $-1 #
coedge $-1 $194 $193 $116 $187 reversed $195 $-1 #
edge $-1 $278 -28.784641922925061 $279 28.784641922925061 $186 $280 forward 7 unknown #
coedge $-1 $118 $117 $281 $282 forward $46 $-1 #
coedge $-1 $283 $284 $117 $190 reversed $268 $-1 #
edge $-1 $197 -47.887203588976718 $285 47.887203588976718 $189 $286 forward 7 unknown #
coedge $-1 $183 $287 $118 $192 reversed $114 $-1 #
edge $-1 $288 -47.887203588976718 $196 47.887203588976718 $191 $289 forward 7 unknown #
coedge $-1 $186 $119 $287 $290 forward $195 $-1 #
coedge $-1 $119 $186 $283 $291 reversed $195 $-1 #
loop $-1 $-1 $193 $267 #
vertex $-1 $120 $292 #
vertex $-1 $120 $293 #
straight-curve $-1 47.887203588976718 0 12.952869249224454 0 1 0 I I #
face $-1 $294 $295 $28 $-1 $296 reversed single #
loop $-1 $-1 $204 $121 #
plane-surface $-1 0 -28.784641922925061 0 0 1 0 0 0 1 forward_v I I I I #
coedge $-1 $297 $298 $203 $299 forward $122 $-1 #
coedge $-1 $211 $124 $202 $299 reversed $77 $-1 #
coedge $-1 $209 $300 $124 $205 forward $200 $-1 #
edge $-1 $301 -7.2264346246122271 $212 -4.2264346246122271 $204 $302 forward 7 unknown #
coedge $-1 $126 $125 $303 $304 reversed $49 $-1 #
coedge $-1 $305 $306 $125 $208 forward $307 $-1 #
edge $-1 $308 -28.20063360553932 $213 -11.172506361335476 $207 $309 forward 7 unknown #
coedge $-1 $310 $204 $126 $210 forward $200 $-1 #
edge $-1 $212 11.172506361335476 $311 28.20063360553932 $209 $312 forward 7 unknown #
coedge $-1 $127 $203 $305 $313 reversed $77 $-1 #
vertex $-1 $210 $314 #
vertex $-1 $208 $315 #
straight-curve $-1 -30.859076344772873 0 -9.9528692492244542 0 1 0 I I #
face $-1 $-1 $227 $29 $-1 $316 reversed single #
loop $-1 $-1 $317 $129 #
plane-surface $-1 0 0 12.952869249224454 0 0 1 1 0 0 forward_v I I I I #
coedge $-1 $318 $319 $320 $321 reversed $130 $-1 #
coedge $-1 $322 $132 $134 $225 forward $81 $-1 #
coedge $-1 $132 $322 $318 $323 forward $81 $-1 #
coedge $-1 $320 $135 $132 $222 forward $227 $-1 #
edge $-1 $229 -3.2058139396118612 $324 8.0448562318975441 $221 $325 forward 7 unknown #
coedge $-1 $326 $327 $133 $224 forward $216 $-1 #
edge $-1 $328 -30.721105799828372 $228 -14.426917939971368 $223 $329 forward 7 unknown #
edge $-1 $229 -1.7763522597878294e-014 $328 20.402533786693198 $134 $330 forward 7 unknown #
coedge $-1 $135 $320 $326 $331 reversed $227 $-1 #
loop $-1 $-1 $320 $215 #
vertex $-1 $331 $332 #
vertex $-1 $136 $333 #
straight-curve $-1 -0.78629279346901981 -28.784641922925061 38.581579863379375 0 0 -1 I I #
coedge $-1 $231 $231 $-1 $334 reversed $139 $-1 #
edge $-1 $335 0 $335 6.2831853071796004 $140 $336 forward 7 unknown #
vertex $-1 $143 $337 #
ellipse-curve $-1 2.4281843983908118 -20.637547992996563 6.8135934999025762 0 -0.6018150307709319 0.79863550430605224 1 0 0 1 I I #
coedge $-1 $235 $235 $-1 $338 reversed $146 $-1 #
edge $-1 $339 0 $339 6.2831853071796004 $147 $340 forward 7 unknown #
vertex $-1 $150 $341 #
ellipse-curve $-1 7.2499001861805539 -20.637547992996563 6.8135934999025762 0 -0.6018150307709319 0.79863550430605224 1 0 0 1 I I #
face $-1 $-1 $251 $32 $-1 $342 forward single #
loop $-1 $-1 $343 $151 #
plane-surface $-1 0 28.784641922925061 0 0 -1 0 0 0 -1 forward_v I I I I #
coedge $-1 $344 $345 $346 $347 reversed $152 $-1 #
coedge $-1 $348 $154 $156 $249 forward $95 $-1 #
coedge $-1 $154 $348 $344 $349 forward $95 $-1 #
coedge $-1 $346 $157 $154 $246 forward $251 $-1 #
edge $-1 $253 -21.319527760466773 $350 2.2404305918545884 $245 $351 forward 7 unknown #
coedge $-1 $352 $353 $155 $248 forward $240 $-1 #
edge $-1 $354 -53.328364395404037 $252 -45.311683328471126 $247 $355 forward 7 unknown #
edge $-1 $253 43.233120219692736 $354 57.569283845850123 $156 $356 forward 7 unknown #
coedge $-1 $157 $346 $352 $357 forward $251 $-1 #
loop $-1 $-1 $346 $239 #
vertex $-1 $248 $358 #
vertex $-1 $158 $359 #
straight-curve $-1 -30.859076344772866 17.306956197961838 12.952869249224456 0 -1 0 I I #
coedge $-1 $255 $255 $-1 $360 reversed $161 $-1 #
edge $-1 $361 0 $361 6.2831853071796004 $162 $362 forward 7 unknown #
vertex $-1 $165 $363 #
ellipse-curve $-1 -26.147084674308598 22.842032811872958 8.9445287157580058 0 0.55919291073839883 0.82903756765294845 1.5 0 0 1 I I #
coedge $-1 $259 $259 $-1 $364 reversed $168 $-1 #
edge $-1 $365 0 $365 6.2831853071796004 $169 $366 forward 7 unknown #
vertex $-1 $172 $367 #
ellipse-curve $-1 -19.079097168612186 22.842032811872958 8.9445287157580058 0 0.55919291073839883 0.82903756765294845 1.5 0 0 1 I I #
coedge $-1 $263 $263 $-1 $368 reversed $175 $-1 #
edge $-1 $369 0 $369 6.2831853071796004 $176 $370 forward 7 unknown #
vertex $-1 $179 $371 #
ellipse-curve $-1 -12.011109662915779 22.842032811872958 8.9445287157580058 0 0.55919291073839883 0.82903756765294845 1.5 0 0 1 I I #
face $-1 $-1 $195 $27 $-1 $372 reversed single #
loop $-1 $-1 $283 $180 #
plane-surface $-1 0 28.784641922925061 0 0 -1 0 0 0 -1 forward_v I I I I #
coedge $-1 $373 $281 $284 $374 forward $181 $-1 #
coedge $-1 $287 $183 $184 $275 reversed $114 $-1 #
coedge $-1 $281 $373 $183 $273 reversed $181 $-1 #
edge $-1 $288 -12.952869249224454 $375 12.952869249224454 $272 $376 forward 7 unknown #
coedge $-1 $185 $184 $373 $377 forward $73 $-1 #
edge $-1 $279 -47.887203588976718 $375 47.887203588976718 $271 $378 forward 7 unknown #
coedge $-1 $284 $283 $185 $277 reversed $268 $-1 #
edge $-1 $379 -47.887203588976718 $278 47.887203588976718 $276 $380 forward 7 unknown #
vertex $-1 $187 $381 #
vertex $-1 $290 $382 #
straight-curve $-1 47.887203588976718 0 -12.952869249224454 0 -1 0 I I #
coedge $-1 $270 $272 $188 $282 reversed $181 $-1 #
edge $-1 $285 -28.784641922925061 $288 28.784641922925061 $281 $383 forward 7 unknown #
coedge $-1 $276 $189 $194 $291 forward $268 $-1 #
coedge $-1 $189 $276 $270 $374 reversed $268 $-1 #
vertex $-1 $190 $384 #
straight-curve $-1 0 28.784641922925061 12.952869249224454 -1 0 0 I I #
coedge $-1 $191 $271 $193 $290 reversed $114 $-1 #
vertex $-1 $282 $385 #
straight-curve $-1 0 -28.784641922925061 12.952869249224454 1 0 0 I I #
edge $-1 $196 -12.952869249224454 $279 12.952869249224454 $193 $386 forward 7 unknown #
edge $-1 $197 -12.952869249224454 $278 12.952869249224454 $194 $387 forward 7 unknown #
point $-1 47.887203588976718 -28.784641922925061 12.952869249224454 #
point $-1 47.887203588976718 28.784641922925061 12.952869249224454 #
face $-1 $-1 $307 $28 $-1 $388 reversed single #
loop $-1 $-1 $303 $199 #
plane-surface $-1 -47.887203588976718 0 0 1 0 0 0 0 -1 forward_v I I I I #
coedge $-1 $389 $202 $300 $390 forward $122 $-1 #
coedge $-1 $202 $389 $391 $392 forward $122 $-1 #
edge $-1 $393 -28.784641922925061 $301 28.784641922925061 $202 $394 forward 7 unknown #
coedge $-1 $204 $310 $297 $390 reversed $200 $-1 #
vertex $-1 $390 $395 #
straight-curve $-1 -30.859076344772873 -28.784641922925061 -5.7264346246122271 0 0 1 I I #
coedge $-1 $396 $397 $206 $304 forward $295 $-1 #
edge $-1 $311 -28.784641922925061 $308 28.784641922925061 $303 $398 forward 7 unknown #
coedge $-1 $391 $207 $211 $313 forward $307 $-1 #
coedge $-1 $207 $391 $396 $399 reversed $307 $-1 #
loop $-1 $-1 $305 $294 #
vertex $-1 $399 $400 #
straight-curve $-1 -19.686569983437398 28.784641922925061 -9.9528692492244542 1 0 0 I I #
coedge $-1 $300 $209 $397 $401 forward $200 $-1 #
vertex $-1 $401 $402 #
straight-curve $-1 -19.686569983437398 -28.784641922925061 -9.9528692492244542 -1 0 0 I I #
edge $-1 $213 4.2264346246122271 $393 7.2264346246122271 $305 $403 forward 7 unknown #
point $-1 -30.859076344772873 -28.784641922925061 -9.9528692492244542 #
point $-1 -30.859076344772873 28.784641922925061 -9.9528692492244542 #
plane-surface $-1 0 -28.784641922925061 0 0 1 0 0 0 1 forward_v I I I I #
coedge $-1 $327 $326 $319 $404 forward $216 $-1 #
coedge $-1 $319 $218 $220 $323 reversed $130 $-1 #
coedge $-1 $218 $318 $317 $404 reversed $130 $-1 #
coedge $-1 $226 $221 $218 $321 forward $227 $-1 #
edge $-1 $324 -37.907262112798676 $405 -25.628710614154919 $320 $406 forward 7 unknown #
coedge $-1 $220 $219 $327 $407 reversed $81 $-1 #
edge $-1 $408 -20.402533786693198 $324 1.7763522597878294e-014 $318 $409 forward 7 unknown #
vertex $-1 $222 $410 #
straight-curve $-1 2.4195211461428414 -28.784641922925061 0.67431775058070065 1 0 0 I I #
coedge $-1 $317 $223 $226 $331 forward $216 $-1 #
coedge $-1 $223 $317 $322 $407 forward $216 $-1 #
vertex $-1 $224 $411 #
straight-curve $-1 -0.78629279346901981 -43.211559862896429 12.952869249224456 0 -1 0 I I #
straight-curve $-1 -0.78629279346901981 -28.784641922925047 0.67431775058071253 0 0.79863550430605224 0.6018150307709319 I I #
edge $-1 $228 -0.78629279346901981 $405 10.464377378040385 $226 $412 forward 7 unknown #
point $-1 -0.78629279346901981 -28.784641922925061 12.952869249224454 #
point $-1 -0.78629279346901981 -28.784641922925061 0.67431775058070187 #
edge $-1 $413 1 $413 0 $231 $-1 forward 7 unknown #
vertex $-1 $232 $414 #
ellipse-curve $-1 2.4281843983908118 -19.126701524102632 4.808632556889183 0 -0.6018150307709319 0.79863550430605224 1 0 0 1 I I #
point $-1 3.4281843983908118 -20.63754799299657 6.813593499902586 #
edge $-1 $415 1 $415 0 $235 $-1 forward 7 unknown #
vertex $-1 $236 $416 #
ellipse-curve $-1 7.2499001861805539 -19.126701524102632 4.808632556889183 0 -0.6018150307709319 0.79863550430605224 1 0 0 1 I I #
point $-1 8.2499001861805539 -20.63754799299657 6.813593499902586 #
plane-surface $-1 0 0 12.952869249224454 0 0 1 1 0 0 forward_v I I I I #
coedge $-1 $353 $352 $345 $417 forward $240 $-1 #
coedge $-1 $345 $242 $244 $349 reversed $152 $-1 #
coedge $-1 $242 $344 $343 $417 reversed $152 $-1 #
coedge $-1 $250 $245 $242 $347 forward $251 $-1 #
edge $-1 $350 -0.40753249714096995 $418 11.477685724963223 $346 $419 forward 7 unknown #
coedge $-1 $244 $243 $353 $420 reversed $95 $-1 #
edge $-1 $421 -57.569283845850123 $350 -43.233120219692736 $344 $422 forward 7 unknown #
vertex $-1 $246 $423 #
straight-curve $-1 -9.5395485843060932 16.899423700820869 12.952869249224452 1 0 0 I I #
coedge $-1 $343 $247 $250 $357 reversed $240 $-1 #
coedge $-1 $247 $343 $348 $420 forward $240 $-1 #
vertex $-1 $248 $424 #
straight-curve $-1 -30.859076344772866 28.784641922925061 58.264552577695582 0 0 1 I I #
straight-curve $-1 -30.859076344772866 -18.942457128160704 37.128523585177561 0 0.82903756765294845 -0.55919291073839883 I I #
edge $-1 $418 7.2991179924515048 $252 30.859076344772866 $352 $425 forward 7 unknown #
point $-1 -30.859076344772866 28.784641922925061 12.952869249224454 #
point $-1 -30.859076344772866 16.899423700820869 12.952869249224456 #
edge $-1 $426 1 $426 0 $255 $-1 forward 7 unknown #
vertex $-1 $256 $427 #
ellipse-curve $-1 -26.147084674308598 19.780696092221849 4.4059104695522322 0 0.55919291073839883 0.82903756765294845 1.5 0 0 1 I I #
point $-1 -24.647084674308598 22.842032811872951 8.9445287157579934 #
edge $-1 $428 1 $428 0 $259 $-1 forward 7 unknown #
vertex $-1 $260 $429 #
ellipse-curve $-1 -19.079097168612186 19.780696092221849 4.4059104695522322 0 0.55919291073839883 0.82903756765294845 1.5 0 0 1 I I #
point $-1 -17.579097168612186 22.842032811872951 8.9445287157579934 #
edge $-1 $430 1 $430 0 $263 $-1 forward 7 unknown #
vertex $-1 $264 $431 #
ellipse-curve $-1 -12.011109662915779 19.780696092221849 4.4059104695522322 0 0.55919291073839883 0.82903756765294845 1.5 0 0 1 I I #
point $-1 -10.511109662915779 22.842032811872951 8.9445287157579934 #
plane-surface $-1 47.887203588976718 0 0 -1 0 0 0 0 1 forward_v I I I I #
coedge $-1 $272 $270 $274 $377 reversed $181 $-1 #
edge $-1 $285 -12.952869249224454 $379 12.952869249224454 $284 $432 forward 7 unknown #
vertex $-1 $377 $433 #
straight-curve $-1 -47.887203588976718 -28.784641922925061 0 0 0 -1 I I #
edge $-1 $375 -28.784641922925061 $379 28.784641922925061 $373 $434 forward 7 unknown #
straight-curve $-1 0 -28.784641922925061 -12.952869249224454 -1 0 0 I I #
vertex $-1 $277 $435 #
straight-curve $-1 0 28.784641922925061 -12.952869249224454 1 0 0 I I #
point $-1 47.887203588976718 28.784641922925061 -12.952869249224454 #
point $-1 47.887203588976718 -28.784641922925061 -12.952869249224454 #
straight-curve $-1 -47.887203588976718 0 12.952869249224454 0 -1 0 I I #
point $-1 -47.887203588976718 28.784641922925061 12.952869249224454 #
point $-1 -47.887203588976718 -28.784641922925061 12.952869249224454 #
straight-curve $-1 47.887203588976718 -28.784641922925061 0 0 0 -1 I I #
straight-curve $-1 47.887203588976718 28.784641922925061 0 0 0 -1 I I #
plane-surface $-1 0 28.784641922925061 0 0 -1 0 0 0 -1 forward_v I I I I #
coedge $-1 $298 $297 $436 $437 forward $122 $-1 #
edge $-1 $301 30.859076344772873 $438 47.887203588976718 $300 $439 forward 7 unknown #
coedge $-1 $306 $305 $298 $392 reversed $307 $-1 #
edge $-1 $440 -47.887203588976718 $393 -30.859076344772873 $391 $441 forward 7 unknown #
vertex $-1 $313 $442 #
straight-curve $-1 -30.859076344772873 0 -12.952869249224454 0 -1 0 I I #
point $-1 -30.859076344772873 -28.784641922925061 -12.952869249224454 #
coedge $-1 $436 $303 $306 $399 forward $295 $-1 #
coedge $-1 $303 $436 $310 $401 reversed $295 $-1 #
straight-curve $-1 -47.887203588976718 0 -9.9528692492244542 0 1 0 I I #
edge $-1 $308 9.9528692492244542 $440 12.952869249224454 $306 $443 forward 7 unknown #
point $-1 -47.887203588976718 28.784641922925061 -9.9528692492244542 #
edge $-1 $311 9.9528692492244542 $438 12.952869249224454 $397 $444 forward 7 unknown #
point $-1 -47.887203588976718 -28.784641922925061 -9.9528692492244542 #
straight-curve $-1 -30.859076344772873 28.784641922925061 -5.7264346246122271 0 0 -1 I I #
edge $-1 $405 14.426917939971368 $408 30.721105799828372 $317 $445 forward 7 unknown #
vertex $-1 $321 $446 #
straight-curve $-1 10.464377378040385 -28.784641922925061 38.581579863379375 0 0 1 I I #
edge $-1 $408 -8.0448562318975441 $328 3.2058139396118612 $327 $447 forward 7 unknown #
vertex $-1 $407 $448 #
straight-curve $-1 10.464377378040385 -28.784641922925047 0.67431775058071253 0 -0.79863550430605224 -0.6018150307709319 I I #
point $-1 10.464377378040385 -28.784641922925061 0.67431775058070187 #
point $-1 -0.78629279346901981 -12.490454063068057 12.952869249224454 #
straight-curve $-1 0 -28.784641922925061 12.952869249224454 1 0 0 I I #
vertex $-1 $334 $449 #
point $-1 3.4281843983908118 -19.126701524102632 4.808632556889183 #
vertex $-1 $338 $450 #
point $-1 8.2499001861805539 -19.126701524102632 4.808632556889183 #
edge $-1 $418 45.311683328471126 $421 53.328364395404037 $343 $451 forward 7 unknown #
vertex $-1 $357 $452 #
straight-curve $-1 -7.2991179924515048 17.306956197961838 12.952869249224456 0 1 0 I I #
edge $-1 $421 -2.2404305918545884 $354 21.319527760466773 $353 $453 forward 7 unknown #
vertex $-1 $420 $454 #
straight-curve $-1 -7.2991179924515048 -18.942457128160704 37.128523585177561 0 -0.82903756765294845 0.55919291073839883 I I #
point $-1 -7.2991179924515048 16.899423700820869 12.952869249224456 #
point $-1 -30.859076344772866 28.784641922925061 4.936188182291545 #
straight-curve $-1 0 28.784641922925061 12.952869249224454 -1 0 0 I I #
vertex $-1 $360 $455 #
point $-1 -24.647084674308598 19.780696092221849 4.4059104695522322 #
vertex $-1 $364 $456 #
point $-1 -17.579097168612186 19.780696092221849 4.4059104695522322 #
vertex $-1 $368 $457 #
point $-1 -10.511109662915779 19.780696092221849 4.4059104695522322 #
straight-curve $-1 -47.887203588976718 28.784641922925061 0 0 0 -1 I I #
point $-1 -47.887203588976718 -28.784641922925061 -12.952869249224454 #
straight-curve $-1 -47.887203588976718 0 -12.952869249224454 0 1 0 I I #
point $-1 -47.887203588976718 28.784641922925061 -12.952869249224454 #
coedge $-1 $397 $396 $389 $437 reversed $295 $-1 #
edge $-1 $438 -28.784641922925061 $440 28.784641922925061 $436 $458 forward 7 unknown #
vertex $-1 $437 $459 #
straight-curve $-1 0 -28.784641922925061 -12.952869249224454 -1 0 0 I I #
vertex $-1 $392 $460 #
straight-curve $-1 0 28.784641922925061 -12.952869249224454 1 0 0 I I #
point $-1 -30.859076344772873 28.784641922925061 -12.952869249224454 #
straight-curve $-1 -47.887203588976718 28.784641922925061 0 0 0 -1 I I #
straight-curve $-1 -47.887203588976718 -28.784641922925061 0 0 0 -1 I I #
straight-curve $-1 10.464377378040385 -43.211559862896429 12.952869249224456 0 1 0 I I #
point $-1 10.464377378040385 -28.784641922925061 12.952869249224454 #
straight-curve $-1 2.4195211461428414 -12.490454063068057 12.952869249224454 -1 0 0 I I #
point $-1 10.464377378040385 -12.490454063068057 12.952869249224454 #
point $-1 2.4281843983908118 -18.524886493331703 4.009997052583131 #
point $-1 7.2499001861805539 -18.524886493331703 4.009997052583131 #
straight-curve $-1 -7.2991179924515048 28.784641922925061 58.264552577695582 0 0 -1 I I #
point $-1 -7.2991179924515048 28.784641922925061 12.952869249224454 #
straight-curve $-1 -9.5395485843060932 28.784641922925061 4.9361881822915468 -1 0 0 I I #
point $-1 -7.2991179924515048 28.784641922925061 4.936188182291545 #
point $-1 -26.147084674308598 18.941906726114251 3.162354118072809 #
point $-1 -19.079097168612186 18.941906726114251 3.162354118072809 #
point $-1 -12.011109662915779 18.941906726114251 3.162354118072809 #
straight-curve $-1 -47.887203588976718 0 -12.952869249224454 0 1 0 I I #
point $-1 -47.887203588976718 -28.784641922925061 -12.952869249224454 #
point $-1 -47.887203588976718 28.784641922925061 -12.952869249224454 #
End-of-ACIS-data 