500 0 5 0           
7 Unknown 11 ACIS 5.0 NT 24 Fri Mar 26 14:38:22 1999 
-1 9.9999999999999995e-007 1e-010 
body $-1 $5 $-1 $6 #
body $-1 $7 $-1 $8 #
body $-1 $9 $-1 $10 #
body $-1 $11 $-1 $12 #
body $-1 $13 $-1 $14 #
lump $-1 $-1 $15 $0 #
transform $-1 1 0 0 0 1 0 0 0 1 61.454512161626027 26.708059341338405 5.84044704746929 1 rotate no_reflect no_shear #
lump $-1 $-1 $16 $1 #
transform $-1 1 0 0 0 1 0 0 0 1 61.454512161626027 26.708059341338405 5.84044704746929 1 rotate no_reflect no_shear #
lump $-1 $-1 $17 $2 #
transform $-1 1 0 0 0 1 0 0 0 1 61.454512161626027 26.708059341338405 5.84044704746929 1 rotate no_reflect no_shear #
lump $-1 $-1 $18 $3 #
transform $-1 1 0 0 0 1 0 0 0 1 61.454512161626027 26.708059341338405 5.84044704746929 1 rotate no_reflect no_shear #
lump $-1 $-1 $19 $4 #
transform $-1 1 0 0 0 1 0 0 0 1 61.454512161626027 26.708059341338405 5.84044704746929 1 rotate no_reflect no_shear #
shell $-1 $-1 $-1 $20 $-1 $5 #
shell $-1 $-1 $-1 $21 $-1 $7 #
shell $-1 $-1 $-1 $22 $-1 $9 #
shell $-1 $-1 $-1 $23 $-1 $11 #
shell $-1 $-1 $-1 $24 $-1 $13 #
face $-1 $25 $26 $15 $-1 $27 forward single #
face $-1 $28 $29 $16 $-1 $30 reversed single #
face $-1 $31 $32 $17 $-1 $33 reversed single #
face $-1 $34 $35 $18 $-1 $36 forward single #
face $-1 $37 $38 $19 $-1 $39 forward single #
face $-1 $40 $41 $15 $-1 $42 reversed single #
loop $-1 $-1 $43 $20 #
plane-surface $-1 0 0 5.84044704746929 0 0 1 1 0 0 forward_v I I I I #
face $-1 $44 $45 $16 $-1 $46 reversed single #
loop $-1 $-1 $47 $21 #
plane-surface $-1 -58.153487640374834 0 2.84044704746929 0 0 1 1 0 0 forward_v I I I I #
face $-1 $48 $49 $17 $-1 $50 reversed single #
loop $-1 $-1 $51 $22 #
plane-surface $-1 -47.394753520636769 -15.384416274333937 34.771498544757037 0 0.61566148304635926 0.78801074757464917 1 0 0 forward_v I I I I #
face $-1 $52 $53 $18 $-1 $54 forward single #
loop $-1 $55 $56 $23 #
cone-surface $-1 -50.59091477713114 22.857758383748219 2.1744893905523615 0 -0.61566148304635926 -0.78801074757464917 1.5 0 0 1 I I 0 1 1.5 forward I I I I #
face $-1 $57 $58 $19 $-1 $59 forward single #
loop $-1 $60 $61 $24 #
cone-surface $-1 -44.198592264142398 22.857758383748219 2.1744893905523615 0 -0.61566148304635926 -0.78801074757464917 1.5 0 0 1 I I 0 1 1.5 forward I I I I #
face $-1 $62 $63 $15 $-1 $64 reversed single #
loop $-1 $-1 $65 $25 #
plane-surface $-1 0 0 -5.84044704746929 0 0 1 1 0 0 forward_v I I I I #
coedge $-1 $66 $67 $68 $69 forward $26 $-1 #
face $-1 $70 $71 $16 $-1 $72 reversed single #
loop $-1 $-1 $73 $28 #
plane-surface $-1 -54.852463119123641 0 4.34044704746929 -1 0 0 0 0 1 forward_v I I I I #
coedge $-1 $74 $75 $76 $77 forward $29 $-1 #
face $-1 $78 $79 $17 $-1 $80 forward single #
loop $-1 $-1 $81 $31 #
plane-surface $-1 -39.937043922149904 60.285935920300467 131.62513068539363 -1 0 0 0 0.61566148304635926 0.78801074757464917 forward_v I I I I #
coedge $-1 $82 $83 $84 $85 reversed $32 $-1 #
face $-1 $-1 $86 $18 $-1 $87 forward single #
loop $-1 $88 $89 $34 #
cone-surface $-1 -50.59091477713114 21.076920858375878 -0.10487865231085536 0 -0.61566148304635926 -0.78801074757464917 0.75 0 0 1 I I -0.70710678118654757 0.70710678118654757 0.75 forward I I I I #
loop $-1 $-1 $90 $23 #
coedge $-1 $56 $56 $91 $92 reversed $35 $-1 #
face $-1 $-1 $93 $19 $-1 $94 forward single #
loop $-1 $95 $96 $37 #
cone-surface $-1 -44.198592264142398 21.076920858375878 -0.10487865231085536 0 -0.61566148304635926 -0.78801074757464917 0.75 0 0 1 I I -0.70710678118654757 0.70710678118654757 0.75 forward I I I I #
loop $-1 $-1 $97 $24 #
coedge $-1 $61 $61 $98 $99 reversed $38 $-1 #
face $-1 $100 $101 $15 $-1 $102 reversed single #
loop $-1 $-1 $103 $40 #
plane-surface $-1 0 -26.708059341338405 0 0 1 0 0 0 1 forward_v I I I I #
coedge $-1 $104 $105 $106 $107 forward $41 $-1 #
coedge $-1 $108 $43 $109 $110 forward $26 $-1 #
coedge $-1 $43 $108 $111 $112 forward $26 $-1 #
coedge $-1 $113 $114 $43 $69 reversed $115 $-1 #
edge $-1 $116 -26.708059341338405 $117 26.708059341338405 $68 $118 forward 7 unknown #
face $-1 $119 $120 $16 $-1 $121 reversed single #
loop $-1 $-1 $122 $44 #
plane-surface $-1 0 26.708059341338405 0 0 -1 0 0 0 -1 forward_v I I I I #
coedge $-1 $123 $124 $125 $126 reversed $45 $-1 #
coedge $-1 $127 $47 $128 $129 reversed $29 $-1 #
coedge $-1 $47 $127 $130 $131 reversed $29 $-1 #
coedge $-1 $124 $123 $47 $77 reversed $45 $-1 #
edge $-1 $132 -26.708059341338405 $133 26.708059341338405 $76 $134 forward 7 unknown #
face $-1 $135 $136 $17 $-1 $137 reversed single #
loop $-1 $-1 $84 $48 #
plane-surface $-1 0 0 5.84044704746929 0 0 1 1 0 0 forward_v I I I I #
coedge $-1 $138 $139 $140 $141 reversed $49 $-1 #
coedge $-1 $142 $51 $143 $144 reversed $32 $-1 #
coedge $-1 $51 $142 $138 $145 forward $32 $-1 #
coedge $-1 $140 $146 $51 $85 forward $79 $-1 #
edge $-1 $147 -31.155086358805256 $148 -16.23966716183152 $84 $149 forward 7 unknown #
loop $-1 $-1 $91 $52 #
plane-surface $-1 -47.394753520636769 -15.384416274333937 34.771498544757037 0 0.61566148304635926 0.78801074757464917 1 0 0 forward_v I I I I #
loop $-1 $-1 $150 $34 #
coedge $-1 $89 $89 $90 $151 reversed $53 $-1 #
coedge $-1 $90 $90 $89 $151 forward $55 $-1 #
coedge $-1 $91 $91 $56 $92 forward $86 $-1 #
edge $-1 $152 -7.7274988846880817e-016 $152 6.2831853071795996 $91 $153 forward 7 unknown #
loop $-1 $-1 $98 $57 #
plane-surface $-1 -47.394753520636769 -15.384416274333937 34.771498544757037 0 0.61566148304635926 0.78801074757464917 1 0 0 forward_v I I I I #
loop $-1 $-1 $154 $37 #
coedge $-1 $96 $96 $97 $155 reversed $58 $-1 #
coedge $-1 $97 $97 $96 $155 forward $60 $-1 #
coedge $-1 $98 $98 $61 $99 forward $93 $-1 #
edge $-1 $156 -7.7274988846880817e-016 $156 6.2831853071795996 $98 $157 forward 7 unknown #
face $-1 $158 $159 $15 $-1 $160 reversed single #
loop $-1 $-1 $161 $62 #
plane-surface $-1 -61.454512161626027 0 0 1 0 0 0 0 -1 forward_v I I I I #
coedge $-1 $162 $111 $163 $164 forward $63 $-1 #
coedge $-1 $165 $65 $162 $166 forward $41 $-1 #
coedge $-1 $65 $165 $167 $168 forward $41 $-1 #
coedge $-1 $114 $113 $65 $107 reversed $115 $-1 #
edge $-1 $169 -26.708059341338405 $170 26.708059341338405 $106 $171 forward 7 unknown #
coedge $-1 $67 $66 $172 $173 forward $26 $-1 #
coedge $-1 $174 $175 $66 $110 reversed $159 $-1 #
edge $-1 $117 -61.454512161626027 $176 61.454512161626027 $109 $177 forward 7 unknown #
coedge $-1 $103 $178 $67 $112 reversed $63 $-1 #
edge $-1 $179 -61.454512161626027 $116 61.454512161626027 $111 $180 forward 7 unknown #
coedge $-1 $106 $68 $178 $181 forward $115 $-1 #
coedge $-1 $68 $106 $174 $182 reversed $115 $-1 #
loop $-1 $-1 $113 $158 #
vertex $-1 $69 $183 #
vertex $-1 $69 $184 #
straight-curve $-1 61.454512161626027 0 5.84044704746929 0 1 0 I I #
face $-1 $185 $186 $16 $-1 $187 forward single #
loop $-1 $-1 $188 $70 #
plane-surface $-1 -61.454512161626027 0 0 1 0 0 0 0 -1 forward_v I I I I #
coedge $-1 $130 $189 $124 $190 forward $71 $-1 #
coedge $-1 $76 $73 $191 $192 reversed $45 $-1 #
coedge $-1 $73 $76 $122 $190 reversed $45 $-1 #
coedge $-1 $193 $194 $73 $126 forward $186 $-1 #
edge $-1 $195 -26.708059341338405 $196 26.708059341338405 $125 $197 forward 7 unknown #
coedge $-1 $75 $74 $188 $198 reversed $29 $-1 #
coedge $-1 $191 $199 $74 $129 forward $200 $-1 #
edge $-1 $201 -32.37776834143861 $133 -25.775719298936224 $128 $202 forward 7 unknown #
coedge $-1 $203 $122 $75 $131 forward $71 $-1 #
edge $-1 $132 25.775719298936224 $204 32.37776834143861 $130 $205 forward 7 unknown #
vertex $-1 $131 $206 #
vertex $-1 $129 $207 #
straight-curve $-1 -54.852463119123641 0 2.84044704746929 0 -1 0 I I #
face $-1 $-1 $208 $17 $-1 $209 forward single #
loop $-1 $-1 $210 $78 #
plane-surface $-1 0 26.708059341338405 0 0 -1 0 0 0 -1 forward_v I I I I #
coedge $-1 $139 $81 $83 $145 reversed $49 $-1 #
coedge $-1 $81 $138 $210 $211 reversed $49 $-1 #
coedge $-1 $212 $84 $81 $141 forward $79 $-1 #
edge $-1 $148 -8.4973277078170533 $213 -3.4349086188118285 $140 $214 forward 7 unknown #
coedge $-1 $83 $82 $215 $216 reversed $32 $-1 #
coedge $-1 $217 $218 $82 $144 forward $208 $-1 #
edge $-1 $219 -37.986962850267915 $147 -31.562660764812339 $143 $220 forward 7 unknown #
edge $-1 $221 -53.41611868267681 $148 -46.991816597221238 $138 $222 forward 7 unknown #
coedge $-1 $84 $212 $217 $223 forward $79 $-1 #
vertex $-1 $144 $224 #
vertex $-1 $85 $225 #
straight-curve $-1 -23.697376760318384 21.645640252333177 5.84044704746929 1 0 0 I I #
coedge $-1 $150 $150 $-1 $226 reversed $88 $-1 #
edge $-1 $227 0 $227 6.2831853071796004 $89 $228 forward 7 unknown #
vertex $-1 $92 $229 #
ellipse-curve $-1 -50.59091477713114 24.176849796835793 3.8628493727345941 0 0.61566148304635926 0.78801074757464917 1.5 0 0 1 I I #
coedge $-1 $154 $154 $-1 $230 reversed $95 $-1 #
edge $-1 $231 0 $231 6.2831853071796004 $96 $232 forward 7 unknown #
vertex $-1 $99 $233 #
ellipse-curve $-1 -44.198592264142398 24.176849796835793 3.8628493727345941 0 0.61566148304635926 0.78801074757464917 1.5 0 0 1 I I #
face $-1 $-1 $115 $15 $-1 $234 reversed single #
loop $-1 $-1 $174 $100 #
plane-surface $-1 0 26.708059341338405 0 0 -1 0 0 0 -1 forward_v I I I I #
coedge $-1 $235 $172 $175 $236 forward $101 $-1 #
coedge $-1 $178 $103 $104 $166 reversed $63 $-1 #
coedge $-1 $172 $235 $103 $164 reversed $101 $-1 #
edge $-1 $179 -5.84044704746929 $237 5.84044704746929 $163 $238 forward 7 unknown #
coedge $-1 $105 $104 $235 $239 forward $41 $-1 #
edge $-1 $170 -61.454512161626027 $237 61.454512161626027 $162 $240 forward 7 unknown #
coedge $-1 $175 $174 $105 $168 reversed $159 $-1 #
edge $-1 $241 -61.454512161626027 $169 61.454512161626027 $167 $242 forward 7 unknown #
vertex $-1 $107 $243 #
vertex $-1 $181 $244 #
straight-curve $-1 61.454512161626027 0 -5.84044704746929 0 -1 0 I I #
coedge $-1 $161 $163 $108 $173 reversed $101 $-1 #
edge $-1 $176 -26.708059341338405 $179 26.708059341338405 $172 $245 forward 7 unknown #
coedge $-1 $167 $109 $114 $182 forward $159 $-1 #
coedge $-1 $109 $167 $161 $236 reversed $159 $-1 #
vertex $-1 $110 $246 #
straight-curve $-1 0 26.708059341338405 5.84044704746929 -1 0 0 I I #
coedge $-1 $111 $162 $113 $181 reversed $63 $-1 #
vertex $-1 $173 $247 #
straight-curve $-1 0 -26.708059341338405 5.84044704746929 1 0 0 I I #
edge $-1 $116 -5.84044704746929 $170 5.84044704746929 $113 $248 forward 7 unknown #
edge $-1 $117 -5.84044704746929 $169 5.84044704746929 $114 $249 forward 7 unknown #
point $-1 61.454512161626027 -26.708059341338405 5.84044704746929 #
point $-1 61.454512161626027 26.708059341338405 5.84044704746929 #
face $-1 $-1 $200 $16 $-1 $250 reversed single #
loop $-1 $-1 $125 $119 #
plane-surface $-1 0 0 5.84044704746929 0 0 1 1 0 0 forward_v I I I I #
coedge $-1 $251 $252 $127 $198 forward $120 $-1 #
coedge $-1 $122 $203 $193 $253 reversed $71 $-1 #
edge $-1 $196 -3.670223523734645 $132 -0.670223523734645 $122 $254 forward 7 unknown #
coedge $-1 $255 $128 $123 $192 forward $200 $-1 #
edge $-1 $133 0.670223523734645 $195 3.670223523734645 $191 $256 forward 7 unknown #
coedge $-1 $257 $125 $189 $253 forward $186 $-1 #
coedge $-1 $125 $257 $255 $258 forward $186 $-1 #
vertex $-1 $192 $259 #
vertex $-1 $253 $260 #
straight-curve $-1 -54.852463119123641 0 5.84044704746929 0 1 0 I I #
edge $-1 $204 -26.708059341338405 $201 26.708059341338405 $188 $261 forward 7 unknown #
coedge $-1 $128 $255 $251 $262 forward $200 $-1 #
loop $-1 $-1 $191 $185 #
vertex $-1 $198 $263 #
straight-curve $-1 -29.076743820187417 -26.708059341338405 2.84044704746929 1 0 0 I I #
coedge $-1 $189 $130 $252 $264 reversed $71 $-1 #
vertex $-1 $198 $265 #
straight-curve $-1 -29.076743820187417 26.708059341338405 2.84044704746929 -1 0 0 I I #
point $-1 -54.852463119123641 26.708059341338405 2.84044704746929 #
point $-1 -54.852463119123641 -26.708059341338405 2.84044704746929 #
loop $-1 $-1 $143 $135 #
plane-surface $-1 -54.852463119123641 0 4.34044704746929 -1 0 0 0 0 1 forward_v I I I I #
coedge $-1 $215 $266 $139 $211 forward $136 $-1 #
edge $-1 $213 59.972118295227524 $221 63.927313644696923 $210 $267 forward 7 unknown #
coedge $-1 $146 $140 $266 $268 forward $79 $-1 #
vertex $-1 $268 $269 #
straight-curve $-1 -39.937043922149904 30.142967960150234 5.84044704746929 0 1 0 I I #
coedge $-1 $270 $210 $142 $216 forward $136 $-1 #
edge $-1 $221 16.23966716183152 $219 31.155086358805249 $215 $271 forward 7 unknown #
coedge $-1 $218 $143 $146 $223 reversed $208 $-1 #
coedge $-1 $143 $217 $270 $272 reversed $208 $-1 #
vertex $-1 $272 $273 #
straight-curve $-1 -54.852463119123641 -3.2260756523916436 25.272361582822793 0 -0.78801074757464917 0.61566148304635926 I I #
vertex $-1 $216 $274 #
straight-curve $-1 -39.937043922149904 -15.384416274333937 34.771498544757037 0 -0.78801074757464917 0.61566148304635926 I I #
edge $-1 $275 -26.708059341338405 $147 -21.645640252333177 $146 $276 forward 7 unknown #
point $-1 -54.852463119123641 21.645640252333177 5.84044704746929 #
point $-1 -39.937043922149904 21.64564025233318 5.84044704746929 #
edge $-1 $277 1 $277 0 $150 $-1 forward 7 unknown #
vertex $-1 $151 $278 #
ellipse-curve $-1 -50.59091477713114 21.538666970660646 0.48612940837013152 0 0.61566148304635926 0.78801074757464917 1.5 0 0 1 I I #
point $-1 -49.09091477713114 24.176849796835789 3.8628493727345914 #
edge $-1 $279 1 $279 0 $154 $-1 forward 7 unknown #
vertex $-1 $155 $280 #
ellipse-curve $-1 -44.198592264142398 21.538666970660646 0.48612940837013152 0 0.61566148304635926 0.78801074757464917 1.5 0 0 1 I I #
point $-1 -42.698592264142398 24.176849796835789 3.8628493727345914 #
plane-surface $-1 61.454512161626027 0 0 -1 0 0 0 0 1 forward_v I I I I #
coedge $-1 $163 $161 $165 $239 reversed $101 $-1 #
edge $-1 $176 -5.84044704746929 $241 5.84044704746929 $175 $281 forward 7 unknown #
vertex $-1 $239 $282 #
straight-curve $-1 -61.454512161626027 -26.708059341338405 0 0 0 -1 I I #
edge $-1 $237 -26.708059341338405 $241 26.708059341338405 $235 $283 forward 7 unknown #
straight-curve $-1 0 -26.708059341338405 -5.84044704746929 -1 0 0 I I #
vertex $-1 $168 $284 #
straight-curve $-1 0 26.708059341338405 -5.84044704746929 1 0 0 I I #
point $-1 61.454512161626027 26.708059341338405 -5.84044704746929 #
point $-1 61.454512161626027 -26.708059341338405 -5.84044704746929 #
straight-curve $-1 -61.454512161626027 0 5.84044704746929 0 -1 0 I I #
point $-1 -61.454512161626027 26.708059341338405 5.84044704746929 #
point $-1 -61.454512161626027 -26.708059341338405 5.84044704746929 #
straight-curve $-1 61.454512161626027 -26.708059341338405 0 0 0 -1 I I #
straight-curve $-1 61.454512161626027 26.708059341338405 0 0 0 -1 I I #
plane-surface $-1 0 -26.708059341338405 0 0 1 0 0 0 1 forward_v I I I I #
coedge $-1 $285 $188 $199 $262 reversed $120 $-1 #
coedge $-1 $188 $285 $203 $264 forward $120 $-1 #
edge $-1 $196 54.852463119123641 $286 61.454512161626027 $189 $287 forward 7 unknown #
straight-curve $-1 -54.852463119123641 26.708059341338405 2.170223523734645 0 0 -1 I I #
coedge $-1 $199 $191 $194 $258 reversed $200 $-1 #
straight-curve $-1 -54.852463119123641 -26.708059341338405 2.170223523734645 0 0 1 I I #
coedge $-1 $194 $193 $285 $288 forward $186 $-1 #
edge $-1 $289 -61.454512161626027 $195 -54.852463119123641 $255 $290 forward 7 unknown #
point $-1 -54.852463119123641 -26.708059341338405 5.84044704746929 #
point $-1 -54.852463119123641 26.708059341338405 5.84044704746929 #
straight-curve $-1 -61.454512161626027 0 2.84044704746929 0 -1 0 I I #
edge $-1 $289 -5.84044704746929 $201 -2.84044704746929 $251 $291 forward 7 unknown #
point $-1 -61.454512161626027 -26.708059341338405 2.84044704746929 #
edge $-1 $286 -5.84044704746929 $204 -2.84044704746929 $203 $292 forward 7 unknown #
point $-1 -61.454512161626027 26.708059341338405 2.84044704746929 #
coedge $-1 $210 $270 $212 $268 reversed $136 $-1 #
straight-curve $-1 -39.937043922149904 26.708059341338405 65.812565342696814 0 0 -1 I I #
edge $-1 $213 39.937043922149904 $275 54.852463119123641 $266 $293 forward 7 unknown #
point $-1 -39.937043922149904 26.708059341338405 5.84044704746929 #
coedge $-1 $266 $215 $218 $272 forward $136 $-1 #
straight-curve $-1 -23.697376760318384 26.708059341338409 1.8852516979998839 -1 0 0 I I #
edge $-1 $219 -63.927313644696923 $275 -59.972118295227524 $270 $294 forward 7 unknown #
point $-1 -54.852463119123634 26.708059341338405 1.885251697999891 #
point $-1 -39.937043922149904 26.708059341338405 1.885251697999891 #
vertex $-1 $223 $295 #
straight-curve $-1 -54.852463119123641 0 5.84044704746929 0 -1 0 I I #
vertex $-1 $226 $296 #
point $-1 -49.09091477713114 21.538666970660646 0.48612940837013152 #
vertex $-1 $230 $297 #
point $-1 -42.698592264142398 21.538666970660646 0.48612940837013152 #
straight-curve $-1 -61.454512161626027 26.708059341338405 0 0 0 -1 I I #
point $-1 -61.454512161626027 -26.708059341338405 -5.84044704746929 #
straight-curve $-1 -61.454512161626027 0 -5.84044704746929 0 1 0 I I #
point $-1 -61.454512161626027 26.708059341338405 -5.84044704746929 #
coedge $-1 $252 $251 $257 $288 reversed $120 $-1 #
vertex $-1 $253 $298 #
straight-curve $-1 0 26.708059341338405 5.84044704746929 -1 0 0 I I #
edge $-1 $286 -26.708059341338405 $289 26.708059341338405 $285 $299 forward 7 unknown #
vertex $-1 $288 $300 #
straight-curve $-1 0 -26.708059341338405 5.84044704746929 1 0 0 I I #
straight-curve $-1 -61.454512161626027 -26.708059341338405 0 0 0 -1 I I #
straight-curve $-1 -61.454512161626027 26.708059341338405 0 0 0 -1 I I #
straight-curve $-1 0 26.708059341338405 5.84044704746929 -1 0 0 I I #
straight-curve $-1 -54.852463119123634 26.708059341338405 65.812565342696814 0 0 1 I I #
point $-1 -54.852463119123641 26.708059341338405 5.84044704746929 #
point $-1 -50.59091477713114 20.61517474609111 -0.69588671299184224 #
point $-1 -44.198592264142398 20.61517474609111 -0.69588671299184224 #
point $-1 -61.454512161626027 26.708059341338405 5.84044704746929 #
straight-curve $-1 -61.454512161626027 0 5.84044704746929 0 -1 0 I I #
point $-1 -61.454512161626027 -26.708059341338405 5.84044704746929 #
End-of-ACIS-data 