500 0 13 0           
7 Unknown 11 ACIS 5.0 NT 24 Fri Mar 26 14:27:07 1999 
-1 9.9999999999999995e-007 1e-010 
body $-1 $13 $-1 $14 #
body $-1 $15 $-1 $16 #
body $-1 $17 $-1 $18 #
body $-1 $19 $-1 $20 #
body $-1 $21 $-1 $22 #
body $-1 $23 $-1 $24 #
body $-1 $25 $-1 $26 #
body $-1 $27 $-1 $28 #
body $-1 $29 $-1 $30 #
body $-1 $31 $-1 $32 #
body $-1 $33 $-1 $34 #
body $-1 $35 $-1 $36 #
body $-1 $37 $-1 $38 #
lump $-1 $-1 $39 $0 #
transform $-1 1 0 0 0 1 0 0 0 1 52.33069856868191 22.776877860250487 8.1121469772849277 1 rotate no_reflect no_shear #
lump $-1 $-1 $40 $1 #
transform $-1 1 0 0 0 1 0 0 0 1 52.33069856868191 22.776877860250487 8.1121469772849277 1 rotate no_reflect no_shear #
lump $-1 $-1 $41 $2 #
transform $-1 1 0 0 0 1 0 0 0 1 52.33069856868191 22.776877860250487 8.1121469772849277 1 rotate no_reflect no_shear #
lump $-1 $-1 $42 $3 #
transform $-1 1 0 0 0 1 0 0 0 1 52.33069856868191 22.776877860250487 8.1121469772849277 1 rotate no_reflect no_shear #
lump $-1 $-1 $43 $4 #
transform $-1 1 0 0 0 1 0 0 0 1 52.33069856868191 22.776877860250487 8.1121469772849277 1 rotate no_reflect no_shear #
lump $-1 $-1 $44 $5 #
transform $-1 1 0 0 0 1 0 0 0 1 52.33069856868191 22.776877860250487 8.1121469772849277 1 rotate no_reflect no_shear #
lump $-1 $-1 $45 $6 #
transform $-1 1 0 0 0 1 0 0 0 1 52.33069856868191 22.776877860250487 8.1121469772849277 1 rotate no_reflect no_shear #
lump $-1 $-1 $46 $7 #
transform $-1 1 0 0 0 1 0 0 0 1 52.33069856868191 22.776877860250487 8.1121469772849277 1 rotate no_reflect no_shear #
lump $-1 $-1 $47 $8 #
transform $-1 1 0 0 0 1 0 0 0 1 52.33069856868191 22.776877860250487 8.1121469772849277 1 rotate no_reflect no_shear #
lump $-1 $-1 $48 $9 #
transform $-1 1 0 0 0 1 0 0 0 1 52.33069856868191 22.776877860250487 8.1121469772849277 1 rotate no_reflect no_shear #
lump $-1 $-1 $49 $10 #
transform $-1 1 0 0 0 1 0 0 0 1 52.33069856868191 22.776877860250487 8.1121469772849277 1 rotate no_reflect no_shear #
lump $-1 $-1 $50 $11 #
transform $-1 1 0 0 0 1 0 0 0 1 52.33069856868191 22.776877860250487 8.1121469772849277 1 rotate no_reflect no_shear #
lump $-1 $-1 $51 $12 #
transform $-1 1 0 0 0 1 0 0 0 1 52.33069856868191 22.776877860250487 8.1121469772849277 1 rotate no_reflect no_shear #
shell $-1 $-1 $-1 $52 $-1 $13 #
shell $-1 $-1 $-1 $53 $-1 $15 #
shell $-1 $-1 $-1 $54 $-1 $17 #
shell $-1 $-1 $-1 $55 $-1 $19 #
shell $-1 $-1 $-1 $56 $-1 $21 #
shell $-1 $-1 $-1 $57 $-1 $23 #
shell $-1 $-1 $-1 $58 $-1 $25 #
shell $-1 $-1 $-1 $59 $-1 $27 #
shell $-1 $-1 $-1 $60 $-1 $29 #
shell $-1 $-1 $-1 $61 $-1 $31 #
shell $-1 $-1 $-1 $62 $-1 $33 #
shell $-1 $-1 $-1 $63 $-1 $35 #
shell $-1 $-1 $-1 $64 $-1 $37 #
face $-1 $65 $66 $39 $-1 $67 forward single #
face $-1 $68 $69 $40 $-1 $70 reversed single #
face $-1 $71 $72 $41 $-1 $73 reversed single #
face $-1 $74 $75 $42 $-1 $76 forward single #
face $-1 $77 $78 $43 $-1 $79 reversed single #
face $-1 $80 $81 $44 $-1 $82 forward single #
face $-1 $83 $84 $45 $-1 $85 forward single #
face $-1 $86 $87 $46 $-1 $88 reversed single #
face $-1 $89 $90 $47 $-1 $91 forward single #
face $-1 $92 $93 $48 $-1 $94 forward single #
face $-1 $95 $96 $49 $-1 $97 reversed single #
face $-1 $98 $99 $50 $-1 $100 forward single #
face $-1 $101 $102 $51 $-1 $103 forward single #
face $-1 $104 $105 $39 $-1 $106 reversed single #
loop $-1 $-1 $107 $52 #
plane-surface $-1 0 0 8.1121469772849277 0 0 1 1 0 0 forward_v I I I I #
face $-1 $108 $109 $40 $-1 $110 reversed single #
loop $-1 $-1 $111 $53 #
plane-surface $-1 0 -17.942788895952162 4.7839559108329421 0 0 1 1 0 0 forward_v I I I I #
face $-1 $112 $113 $41 $-1 $114 reversed single #
loop $-1 $-1 $115 $54 #
plane-surface $-1 54.913893258465066 -4.3834218470134658 149.73028047606297 0 -1 0 -0.71933980857756763 0 -0.69465836192734942 forward_v I I I I #
face $-1 $116 $117 $42 $-1 $118 forward single #
loop $-1 $119 $120 $55 #
cone-surface $-1 48.671051108775309 -8.7460608893336502 4.3631560397778433 -0.71933980857756763 0 -0.69465836192734942 0.34732918096367471 0 -0.35966990428878381 1 I I 0 1 0.5 forward I I I I #
face $-1 $121 $122 $43 $-1 $123 reversed single #
loop $-1 $-1 $124 $56 #
plane-surface $-1 -135.91700771447171 -8.0831948358792509 66.504628608510515 0 1 0 -0.79863551827123203 0 0.60181501223851219 forward_v I I I I #
face $-1 $125 $126 $44 $-1 $127 forward single #
loop $-1 $128 $129 $57 #
cone-surface $-1 -49.929664967747527 -6.1013793592525296 5.3101065614514695 0.79863551827123203 0 -0.60181501223851219 0.3009075061192561 0 0.39931775913561601 1 I I 0 1 0.5 forward I I I I #
face $-1 $130 $131 $45 $-1 $132 forward single #
loop $-1 $133 $134 $58 #
cone-surface $-1 -49.929664967747527 -3.1286561443124477 5.3101065614514695 0.79863551827123203 0 -0.60181501223851219 0.3009075061192561 0 0.39931775913561601 1 I I 0 1 0.5 forward I I I I #
face $-1 $135 $136 $46 $-1 $137 reversed single #
loop $-1 $-1 $138 $59 #
plane-surface $-1 -135.91700771447171 3.8786644280888574 66.504628608510515 0 1 0 -0.79863551827123203 0 0.60181501223851219 forward_v I I I I #
face $-1 $139 $140 $47 $-1 $141 forward single #
loop $-1 $142 $143 $60 #
cone-surface $-1 -49.929664967747527 5.8604799047155787 5.3101065614514695 0.79863551827123203 0 -0.60181501223851219 0.3009075061192561 0 0.39931775913561601 1 I I 0 1 0.5 forward I I I I #
face $-1 $144 $145 $48 $-1 $146 forward single #
loop $-1 $147 $148 $61 #
cone-surface $-1 -49.929664967747527 8.8332031196556606 5.3101065614514695 0.79863551827123203 0 -0.60181501223851219 0.3009075061192561 0 0.39931775913561601 1 I I 0 1 0.5 forward I I I I #
face $-1 $149 $150 $49 $-1 $151 reversed single #
loop $-1 $-1 $152 $62 #
plane-surface $-1 -135.91700771447171 15.840523692056966 66.504628608510515 0 1 0 -0.79863551827123203 0 0.60181501223851219 forward_v I I I I #
face $-1 $153 $154 $50 $-1 $155 forward single #
loop $-1 $156 $157 $63 #
cone-surface $-1 -49.929664967747527 17.822339168683691 5.3101065614514695 0.79863551827123203 0 -0.60181501223851219 0.3009075061192561 0 0.39931775913561601 1 I I 0 1 0.5 forward I I I I #
face $-1 $158 $159 $51 $-1 $160 forward single #
loop $-1 $161 $162 $64 #
cone-surface $-1 -49.929664967747527 20.795062383623765 5.3101065614514695 0.79863551827123203 0 -0.60181501223851219 0.3009075061192561 0 0.39931775913561601 1 I I 0 1 0.5 forward I I I I #
face $-1 $163 $164 $39 $-1 $165 reversed single #
loop $-1 $-1 $166 $65 #
plane-surface $-1 0 0 -8.1121469772849277 0 0 1 1 0 0 forward_v I I I I #
coedge $-1 $167 $168 $169 $170 forward $66 $-1 #
face $-1 $171 $172 $40 $-1 $173 reversed single #
loop $-1 $-1 $174 $68 #
plane-surface $-1 0 -13.108699931653836 6.4480514440589349 0 -1 0 0 0 -1 forward_v I I I I #
coedge $-1 $175 $176 $177 $178 reversed $69 $-1 #
face $-1 $179 $180 $41 $-1 $181 forward single #
loop $-1 $-1 $182 $71 #
plane-surface $-1 -20.373216123787003 -8.7460608893336502 77.026365783594045 0.71933980857756763 0 0.69465836192734942 0.69465836192734942 0 -0.71933980857756763 forward_v I I I I #
coedge $-1 $183 $184 $185 $186 reversed $72 $-1 #
face $-1 $-1 $187 $42 $-1 $188 forward single #
loop $-1 $189 $190 $74 #
cone-surface $-1 47.908683069819247 -8.7460608893336502 3.6269457997604153 -0.71933980857756763 0 -0.69465836192734942 0.17366459048183736 0 -0.17983495214439191 1 I I -0.70710678118654746 0.70710678118654746 0.25 forward I I I I #
loop $-1 $-1 $191 $55 #
coedge $-1 $120 $120 $192 $193 reversed $75 $-1 #
face $-1 $194 $195 $43 $-1 $196 reversed single #
loop $-1 $-1 $197 $77 #
plane-surface $-1 -52.33069856868191 -4.6150177517824886 3.5178286093881255 -0.79863551827123203 0 0.60181501223851219 0.60181501223851219 0 0.79863551827123203 forward_v I I I I #
coedge $-1 $198 $199 $200 $201 reversed $78 $-1 #
face $-1 $-1 $202 $44 $-1 $203 forward single #
loop $-1 $204 $205 $80 #
cone-surface $-1 -49.060006044823979 -6.1013793592525296 4.6547715765067892 0.79863551827123203 0 -0.60181501223851219 0.15045375305962805 0 0.19965887956780801 1 I I -0.70710678118654746 0.70710678118654746 0.25 forward I I I I #
loop $-1 $-1 $206 $57 #
coedge $-1 $129 $129 $207 $208 reversed $81 $-1 #
face $-1 $-1 $209 $45 $-1 $210 forward single #
loop $-1 $211 $212 $83 #
cone-surface $-1 -49.060006044823979 -3.1286561443124477 4.6547715765067892 0.79863551827123203 0 -0.60181501223851219 0.15045375305962805 0 0.19965887956780801 1 I I -0.70710678118654746 0.70710678118654746 0.25 forward I I I I #
loop $-1 $-1 $213 $58 #
coedge $-1 $134 $134 $214 $215 reversed $84 $-1 #
face $-1 $216 $217 $46 $-1 $218 reversed single #
loop $-1 $-1 $219 $86 #
plane-surface $-1 -52.33069856868191 7.3468415121856196 3.5178286093881255 -0.79863551827123203 0 0.60181501223851219 0.60181501223851219 0 0.79863551827123203 forward_v I I I I #
coedge $-1 $220 $221 $222 $223 reversed $87 $-1 #
face $-1 $-1 $224 $47 $-1 $225 forward single #
loop $-1 $226 $227 $89 #
cone-surface $-1 -49.060006044823979 5.8604799047155787 4.6547715765067892 0.79863551827123203 0 -0.60181501223851219 0.15045375305962805 0 0.19965887956780801 1 I I -0.70710678118654746 0.70710678118654746 0.25 forward I I I I #
loop $-1 $-1 $228 $60 #
coedge $-1 $143 $143 $229 $230 reversed $90 $-1 #
face $-1 $-1 $231 $48 $-1 $232 forward single #
loop $-1 $233 $234 $92 #
cone-surface $-1 -49.060006044823979 8.8332031196556606 4.6547715765067892 0.79863551827123203 0 -0.60181501223851219 0.15045375305962805 0 0.19965887956780801 1 I I -0.70710678118654746 0.70710678118654746 0.25 forward I I I I #
loop $-1 $-1 $235 $61 #
coedge $-1 $148 $148 $236 $237 reversed $93 $-1 #
face $-1 $238 $239 $49 $-1 $240 forward single #
loop $-1 $-1 $241 $95 #
plane-surface $-1 -52.33069856868191 19.308700776153728 3.5178286093881255 -0.79863551827123203 0 0.60181501223851219 0.60181501223851219 0 0.79863551827123203 forward_v I I I I #
coedge $-1 $242 $243 $244 $245 reversed $96 $-1 #
face $-1 $-1 $246 $50 $-1 $247 forward single #
loop $-1 $248 $249 $98 #
cone-surface $-1 -49.060006044823979 17.822339168683691 4.6547715765067892 0.79863551827123203 0 -0.60181501223851219 0.15045375305962805 0 0.19965887956780801 1 I I -0.70710678118654746 0.70710678118654746 0.25 forward I I I I #
loop $-1 $-1 $250 $63 #
coedge $-1 $157 $157 $251 $252 reversed $99 $-1 #
face $-1 $-1 $253 $51 $-1 $254 forward single #
loop $-1 $255 $256 $101 #
cone-surface $-1 -49.060006044823979 20.795062383623765 4.6547715765067892 0.79863551827123203 0 -0.60181501223851219 0.15045375305962805 0 0.19965887956780801 1 I I -0.70710678118654746 0.70710678118654746 0.25 forward I I I I #
loop $-1 $-1 $257 $64 #
coedge $-1 $162 $162 $258 $259 reversed $102 $-1 #
face $-1 $260 $261 $39 $-1 $262 reversed single #
loop $-1 $-1 $263 $104 #
plane-surface $-1 0 -22.776877860250487 0 0 1 0 0 0 1 forward_v I I I I #
coedge $-1 $264 $265 $266 $267 forward $105 $-1 #
coedge $-1 $268 $107 $269 $270 forward $66 $-1 #
coedge $-1 $107 $268 $271 $272 forward $66 $-1 #
coedge $-1 $273 $274 $107 $170 reversed $275 $-1 #
edge $-1 $276 -22.776877860250487 $277 22.776877860250487 $169 $278 forward 7 unknown #
face $-1 $279 $280 $40 $-1 $281 reversed single #
loop $-1 $-1 $282 $108 #
plane-surface $-1 -52.33069856868191 0 0 1 0 0 0 0 -1 forward_v I I I I #
coedge $-1 $283 $284 $176 $285 reversed $109 $-1 #
coedge $-1 $286 $111 $287 $288 reversed $69 $-1 #
coedge $-1 $111 $286 $174 $285 forward $69 $-1 #
coedge $-1 $289 $290 $111 $178 forward $291 $-1 #
edge $-1 $292 -13.805483412274405 $293 -4.1373054836777552 $177 $294 forward 7 unknown #
face $-1 $295 $296 $41 $-1 $297 forward single #
loop $-1 $-1 $298 $112 #
plane-surface $-1 0 -13.108699931653836 6.4480514440589349 0 -1 0 0 0 -1 forward_v I I I I #
coedge $-1 $299 $300 $301 $302 reversed $113 $-1 #
coedge $-1 $184 $115 $303 $304 reversed $72 $-1 #
coedge $-1 $115 $183 $299 $305 reversed $72 $-1 #
coedge $-1 $301 $306 $115 $186 forward $296 $-1 #
edge $-1 $307 -24.873751939449377 $308 -18.719523193259533 $185 $309 forward 7 unknown #
loop $-1 $-1 $192 $116 #
plane-surface $-1 -20.373216123787003 -8.7460608893336502 77.026365783594045 0.71933980857756763 0 0.69465836192734942 0.69465836192734942 0 -0.71933980857756763 forward_v I I I I #
loop $-1 $-1 $310 $74 #
coedge $-1 $190 $190 $191 $311 reversed $117 $-1 #
coedge $-1 $191 $191 $190 $311 forward $119 $-1 #
coedge $-1 $192 $192 $120 $193 forward $187 $-1 #
edge $-1 $312 0 $312 6.2831853071796004 $192 $313 forward 7 unknown #
face $-1 $314 $315 $43 $-1 $316 forward single #
loop $-1 $-1 $317 $121 #
plane-surface $-1 -135.91700771447171 -1.1468406676857263 66.504628608510515 0 -1 0 0.79863551827123203 0 -0.60181501223851219 forward_v I I I I #
coedge $-1 $318 $319 $320 $321 reversed $122 $-1 #
coedge $-1 $199 $124 $322 $323 reversed $78 $-1 #
coedge $-1 $124 $198 $318 $324 reversed $78 $-1 #
coedge $-1 $320 $325 $124 $201 forward $315 $-1 #
edge $-1 $326 15.627805288553944 $327 19.08987240371124 $200 $328 forward 7 unknown #
loop $-1 $-1 $207 $125 #
plane-surface $-1 -52.33069856868191 -4.6150177517824886 3.5178286093881255 -0.79863551827123203 0 0.60181501223851219 0.60181501223851219 0 0.79863551827123203 forward_v I I I I #
loop $-1 $-1 $329 $80 #
coedge $-1 $205 $205 $206 $330 reversed $126 $-1 #
coedge $-1 $206 $206 $205 $330 forward $128 $-1 #
coedge $-1 $207 $207 $129 $208 forward $202 $-1 #
edge $-1 $331 0 $331 6.2831853071796004 $207 $332 forward 7 unknown #
loop $-1 $-1 $214 $130 #
plane-surface $-1 -52.33069856868191 -4.6150177517824886 3.5178286093881255 -0.79863551827123203 0 0.60181501223851219 0.60181501223851219 0 0.79863551827123203 forward_v I I I I #
loop $-1 $-1 $333 $83 #
coedge $-1 $212 $212 $213 $334 reversed $131 $-1 #
coedge $-1 $213 $213 $212 $334 forward $133 $-1 #
coedge $-1 $214 $214 $134 $215 forward $209 $-1 #
edge $-1 $335 0 $335 6.2831853071796004 $214 $336 forward 7 unknown #
face $-1 $337 $338 $46 $-1 $339 forward single #
loop $-1 $-1 $340 $135 #
plane-surface $-1 -135.91700771447171 10.815018596282382 66.504628608510515 0 -1 0 0.79863551827123203 0 -0.60181501223851219 forward_v I I I I #
coedge $-1 $341 $342 $343 $344 reversed $136 $-1 #
coedge $-1 $221 $138 $345 $346 reversed $87 $-1 #
coedge $-1 $138 $220 $341 $347 reversed $87 $-1 #
coedge $-1 $343 $348 $138 $223 forward $338 $-1 #
edge $-1 $349 15.627805288553944 $350 19.08987240371124 $222 $351 forward 7 unknown #
loop $-1 $-1 $229 $139 #
plane-surface $-1 -52.33069856868191 7.3468415121856196 3.5178286093881255 -0.79863551827123203 0 0.60181501223851219 0.60181501223851219 0 0.79863551827123203 forward_v I I I I #
loop $-1 $-1 $352 $89 #
coedge $-1 $227 $227 $228 $353 reversed $140 $-1 #
coedge $-1 $228 $228 $227 $353 forward $142 $-1 #
coedge $-1 $229 $229 $143 $230 forward $224 $-1 #
edge $-1 $354 0 $354 6.2831853071796004 $229 $355 forward 7 unknown #
loop $-1 $-1 $236 $144 #
plane-surface $-1 -52.33069856868191 7.3468415121856196 3.5178286093881255 -0.79863551827123203 0 0.60181501223851219 0.60181501223851219 0 0.79863551827123203 forward_v I I I I #
loop $-1 $-1 $356 $92 #
coedge $-1 $234 $234 $235 $357 reversed $145 $-1 #
coedge $-1 $235 $235 $234 $357 forward $147 $-1 #
coedge $-1 $236 $236 $148 $237 forward $231 $-1 #
edge $-1 $358 0 $358 6.2831853071796004 $236 $359 forward 7 unknown #
face $-1 $360 $361 $49 $-1 $362 reversed single #
loop $-1 $-1 $244 $149 #
plane-surface $-1 0 0 8.1121469772849277 0 0 1 1 0 0 forward_v I I I I #
coedge $-1 $363 $364 $365 $366 reversed $150 $-1 #
coedge $-1 $243 $152 $367 $368 reversed $96 $-1 #
coedge $-1 $152 $242 $363 $369 reversed $96 $-1 #
coedge $-1 $365 $370 $152 $245 forward $239 $-1 #
edge $-1 $371 15.627805288553944 $372 19.08987240371124 $244 $373 forward 7 unknown #
loop $-1 $-1 $251 $153 #
plane-surface $-1 -52.33069856868191 19.308700776153728 3.5178286093881255 -0.79863551827123203 0 0.60181501223851219 0.60181501223851219 0 0.79863551827123203 forward_v I I I I #
loop $-1 $-1 $374 $98 #
coedge $-1 $249 $249 $250 $375 reversed $154 $-1 #
coedge $-1 $250 $250 $249 $375 forward $156 $-1 #
coedge $-1 $251 $251 $157 $252 forward $246 $-1 #
edge $-1 $376 0 $376 6.2831853071796004 $251 $377 forward 7 unknown #
loop $-1 $-1 $258 $158 #
plane-surface $-1 -52.33069856868191 19.308700776153728 3.5178286093881255 -0.79863551827123203 0 0.60181501223851219 0.60181501223851219 0 0.79863551827123203 forward_v I I I I #
loop $-1 $-1 $378 $101 #
coedge $-1 $256 $256 $257 $379 reversed $159 $-1 #
coedge $-1 $257 $257 $256 $379 forward $161 $-1 #
coedge $-1 $258 $258 $162 $259 forward $253 $-1 #
edge $-1 $380 0 $380 6.2831853071796004 $258 $381 forward 7 unknown #
face $-1 $382 $383 $39 $-1 $384 reversed single #
loop $-1 $-1 $385 $163 #
plane-surface $-1 -52.33069856868191 0 0 1 0 0 0 0 -1 forward_v I I I I #
coedge $-1 $386 $271 $387 $388 forward $164 $-1 #
coedge $-1 $389 $166 $386 $390 forward $105 $-1 #
coedge $-1 $166 $389 $391 $392 forward $105 $-1 #
coedge $-1 $274 $273 $166 $267 reversed $275 $-1 #
edge $-1 $393 -22.776877860250487 $394 22.776877860250487 $266 $395 forward 7 unknown #
coedge $-1 $168 $167 $396 $397 forward $66 $-1 #
coedge $-1 $398 $399 $167 $270 reversed $383 $-1 #
edge $-1 $277 -52.33069856868191 $400 52.33069856868191 $269 $401 forward 7 unknown #
coedge $-1 $263 $402 $168 $272 reversed $164 $-1 #
edge $-1 $403 -52.33069856868191 $276 52.33069856868191 $271 $404 forward 7 unknown #
coedge $-1 $266 $169 $402 $405 forward $275 $-1 #
coedge $-1 $169 $266 $398 $406 reversed $275 $-1 #
loop $-1 $-1 $273 $382 #
vertex $-1 $170 $407 #
vertex $-1 $170 $408 #
straight-curve $-1 52.33069856868191 0 8.1121469772849277 0 1 0 I I #
face $-1 $409 $410 $40 $-1 $411 forward single #
loop $-1 $-1 $287 $171 #
plane-surface $-1 0 -22.776877860250487 0 0 1 0 0 0 1 forward_v I I I I #
coedge $-1 $412 $413 $283 $414 forward $172 $-1 #
coedge $-1 $415 $174 $282 $414 reversed $109 $-1 #
coedge $-1 $174 $415 $289 $416 reversed $109 $-1 #
edge $-1 $417 -52.33069856868191 $293 52.33069856868191 $174 $418 forward 7 unknown #
coedge $-1 $176 $175 $412 $419 reversed $69 $-1 #
coedge $-1 $420 $421 $175 $288 forward $280 $-1 #
edge $-1 $422 -52.33069856868191 $292 52.33069856868191 $287 $423 forward 7 unknown #
coedge $-1 $424 $177 $284 $416 forward $291 $-1 #
coedge $-1 $177 $424 $420 $425 forward $291 $-1 #
loop $-1 $-1 $289 $409 #
vertex $-1 $288 $426 #
vertex $-1 $178 $427 #
straight-curve $-1 52.33069856868191 -8.9713944479760812 4.7839559108329421 0 1 0 I I #
face $-1 $-1 $428 $41 $-1 $429 reversed single #
loop $-1 $-1 $301 $179 #
plane-surface $-1 0 0 8.1121469772849277 0 0 1 1 0 0 forward_v I I I I #
coedge $-1 $430 $431 $300 $432 reversed $180 $-1 #
coedge $-1 $433 $182 $184 $305 forward $113 $-1 #
coedge $-1 $182 $433 $298 $432 forward $113 $-1 #
coedge $-1 $434 $185 $182 $302 forward $296 $-1 #
edge $-1 $308 0.01039140234664071 $435 8.7356694869870104 $301 $436 forward 7 unknown #
coedge $-1 $437 $438 $183 $304 forward $428 $-1 #
edge $-1 $439 -73.125883836689496 $307 -66.752993260746564 $303 $440 forward 7 unknown #
edge $-1 $308 95.802036790624783 $439 104.66139713736379 $184 $441 forward 7 unknown #
coedge $-1 $185 $434 $437 $442 forward $296 $-1 #
vertex $-1 $304 $443 #
vertex $-1 $186 $444 #
straight-curve $-1 27.456946629232533 -4.3834218470134658 8.1121469772849224 -1 0 0 I I #
coedge $-1 $310 $310 $-1 $445 reversed $189 $-1 #
edge $-1 $446 0 $446 6.2831853071796004 $190 $447 forward 7 unknown #
vertex $-1 $193 $448 #
ellipse-curve $-1 49.253584195586996 -8.7460608893336502 4.9257016893134526 0.71933980857756763 0 0.69465836192734942 0.34732918096367471 0 -0.35966990428878381 1 I I #
face $-1 $-1 $449 $43 $-1 $450 reversed single #
loop $-1 $-1 $200 $194 #
plane-surface $-1 0 0 8.1121469772849277 0 0 1 1 0 0 forward_v I I I I #
coedge $-1 $451 $452 $453 $454 reversed $195 $-1 #
coedge $-1 $455 $197 $199 $324 forward $122 $-1 #
coedge $-1 $197 $455 $451 $456 forward $122 $-1 #
coedge $-1 $453 $200 $197 $321 forward $315 $-1 #
edge $-1 $327 -5.7756859599880066 $457 1.160668208205518 $320 $458 forward 7 unknown #
coedge $-1 $459 $460 $198 $323 forward $449 $-1 #
edge $-1 $461 -29.734485694867132 $326 -25.140167326970328 $322 $462 forward 7 unknown #
edge $-1 $327 -5.7527097941272425 $461 0 $199 $463 forward 7 unknown #
coedge $-1 $200 $453 $459 $464 forward $315 $-1 #
vertex $-1 $323 $465 #
vertex $-1 $201 $466 #
straight-curve $-1 -67.958503857235854 -8.0831948358792509 8.1121469772849295 1 0 0 I I #
coedge $-1 $329 $329 $-1 $467 reversed $204 $-1 #
edge $-1 $468 0 $468 6.2831853071796004 $205 $469 forward 7 unknown #
vertex $-1 $208 $470 #
ellipse-curve $-1 -50.599665011103262 -6.1013793592525296 5.8149877933365222 -0.79863551827123203 0 0.60181501223851219 0.3009075061192561 0 0.39931775913561601 1 I I #
coedge $-1 $333 $333 $-1 $471 reversed $211 $-1 #
edge $-1 $472 0 $472 6.2831853071796004 $212 $473 forward 7 unknown #
vertex $-1 $215 $474 #
ellipse-curve $-1 -50.599665011103262 -3.1286561443124477 5.8149877933365222 -0.79863551827123203 0 0.60181501223851219 0.3009075061192561 0 0.39931775913561601 1 I I #
face $-1 $-1 $475 $46 $-1 $476 reversed single #
loop $-1 $-1 $222 $216 #
plane-surface $-1 0 0 8.1121469772849277 0 0 1 1 0 0 forward_v I I I I #
coedge $-1 $477 $478 $479 $480 reversed $217 $-1 #
coedge $-1 $481 $219 $221 $347 forward $136 $-1 #
coedge $-1 $219 $481 $477 $482 forward $136 $-1 #
coedge $-1 $479 $222 $219 $344 forward $338 $-1 #
edge $-1 $350 0.20524367199604754 $483 7.1415978401895721 $343 $484 forward 7 unknown #
coedge $-1 $485 $486 $220 $346 forward $475 $-1 #
edge $-1 $487 -29.734485694867132 $349 -25.140167326970328 $345 $488 forward 7 unknown #
edge $-1 $350 -5.7527097941272425 $487 0 $221 $489 forward 7 unknown #
coedge $-1 $222 $479 $485 $490 forward $338 $-1 #
vertex $-1 $223 $491 #
vertex $-1 $223 $492 #
straight-curve $-1 -67.958503857235854 3.8786644280888574 8.1121469772849295 1 0 0 I I #
coedge $-1 $352 $352 $-1 $493 reversed $226 $-1 #
edge $-1 $494 0 $494 6.2831853071796004 $227 $495 forward 7 unknown #
vertex $-1 $230 $496 #
ellipse-curve $-1 -50.599665011103262 5.8604799047155787 5.8149877933365222 -0.79863551827123203 0 0.60181501223851219 0.3009075061192561 0 0.39931775913561601 1 I I #
coedge $-1 $356 $356 $-1 $497 reversed $233 $-1 #
edge $-1 $498 0 $498 6.2831853071796004 $234 $499 forward 7 unknown #
vertex $-1 $237 $500 #
ellipse-curve $-1 -50.599665011103262 8.8332031196556606 5.8149877933365222 -0.79863551827123203 0 0.60181501223851219 0.3009075061192561 0 0.39931775913561601 1 I I #
face $-1 $-1 $501 $49 $-1 $502 reversed single #
loop $-1 $-1 $503 $238 #
plane-surface $-1 0 22.776877860250487 0 0 -1 0 0 0 -1 forward_v I I I I #
coedge $-1 $504 $241 $243 $369 forward $150 $-1 #
coedge $-1 $241 $504 $503 $505 reversed $150 $-1 #
coedge $-1 $506 $244 $241 $366 forward $239 $-1 #
edge $-1 $372 6.1861733039801017 $507 13.122527472173626 $365 $508 forward 7 unknown #
coedge $-1 $509 $510 $242 $368 forward $501 $-1 #
edge $-1 $511 -29.734485694867132 $371 -25.140167326970328 $367 $512 forward 7 unknown #
edge $-1 $372 -5.7527097941272425 $511 0 $243 $513 forward 7 unknown #
coedge $-1 $244 $506 $509 $514 forward $239 $-1 #
vertex $-1 $368 $515 #
vertex $-1 $245 $516 #
straight-curve $-1 -67.958503857235854 15.840523692056966 8.1121469772849295 1 0 0 I I #
coedge $-1 $374 $374 $-1 $517 reversed $248 $-1 #
edge $-1 $518 0 $518 6.2831853071796004 $249 $519 forward 7 unknown #
vertex $-1 $252 $520 #
ellipse-curve $-1 -50.599665011103262 17.822339168683691 5.8149877933365222 -0.79863551827123203 0 0.60181501223851219 0.3009075061192561 0 0.39931775913561601 1 I I #
coedge $-1 $378 $378 $-1 $521 reversed $255 $-1 #
edge $-1 $522 0 $522 6.2831853071796004 $256 $523 forward 7 unknown #
vertex $-1 $259 $524 #
ellipse-curve $-1 -50.599665011103262 20.795062383623765 5.8149877933365222 -0.79863551827123203 0 0.60181501223851219 0.3009075061192561 0 0.39931775913561601 1 I I #
face $-1 $-1 $275 $39 $-1 $525 reversed single #
loop $-1 $-1 $398 $260 #
plane-surface $-1 0 22.776877860250487 0 0 -1 0 0 0 -1 forward_v I I I I #
coedge $-1 $526 $396 $399 $527 forward $261 $-1 #
coedge $-1 $402 $263 $264 $390 reversed $164 $-1 #
coedge $-1 $396 $526 $263 $388 reversed $261 $-1 #
edge $-1 $403 -8.1121469772849277 $528 8.1121469772849277 $387 $529 forward 7 unknown #
coedge $-1 $265 $264 $526 $530 forward $105 $-1 #
edge $-1 $394 -52.33069856868191 $528 52.33069856868191 $386 $531 forward 7 unknown #
coedge $-1 $399 $398 $265 $392 reversed $383 $-1 #
edge $-1 $532 -52.33069856868191 $393 52.33069856868191 $391 $533 forward 7 unknown #
vertex $-1 $267 $534 #
vertex $-1 $405 $535 #
straight-curve $-1 52.33069856868191 0 -8.1121469772849277 0 -1 0 I I #
coedge $-1 $385 $387 $268 $397 reversed $261 $-1 #
edge $-1 $400 -22.776877860250487 $403 22.776877860250487 $396 $536 forward 7 unknown #
coedge $-1 $391 $269 $274 $406 forward $383 $-1 #
coedge $-1 $269 $391 $385 $527 reversed $383 $-1 #
vertex $-1 $270 $537 #
straight-curve $-1 0 22.776877860250487 8.1121469772849277 -1 0 0 I I #
coedge $-1 $271 $386 $273 $405 reversed $164 $-1 #
vertex $-1 $397 $538 #
straight-curve $-1 0 -22.776877860250487 8.1121469772849277 1 0 0 I I #
edge $-1 $276 -8.1121469772849277 $394 8.1121469772849277 $273 $539 forward 7 unknown #
edge $-1 $277 -8.1121469772849277 $393 8.1121469772849277 $274 $540 forward 7 unknown #
point $-1 52.33069856868191 -22.776877860250487 8.1121469772849277 #
point $-1 52.33069856868191 22.776877860250487 8.1121469772849277 #
face $-1 $-1 $291 $40 $-1 $541 reversed single #
loop $-1 $-1 $542 $279 #
plane-surface $-1 0 0 8.1121469772849277 0 0 1 1 0 0 forward_v I I I I #
coedge $-1 $543 $282 $286 $419 forward $172 $-1 #
coedge $-1 $282 $543 $544 $545 reversed $172 $-1 #
edge $-1 $546 -4.8881212552554603 $417 -1.5599301888034747 $282 $547 forward 7 unknown #
coedge $-1 $284 $283 $542 $548 reversed $109 $-1 #
edge $-1 $293 1.5599301888034747 $549 4.8881212552554603 $289 $550 forward 7 unknown #
vertex $-1 $419 $551 #
straight-curve $-1 0 -13.108699931653836 4.7839559108329421 1 0 0 I I #
edge $-1 $417 4.1373054836777552 $422 13.805483412274405 $412 $552 forward 7 unknown #
coedge $-1 $553 $287 $290 $425 reversed $280 $-1 #
coedge $-1 $287 $553 $543 $554 forward $280 $-1 #
vertex $-1 $288 $555 #
straight-curve $-1 0 -22.776877860250487 4.7839559108329421 1 0 0 I I #
coedge $-1 $290 $289 $556 $557 reversed $291 $-1 #
edge $-1 $558 -8.1121469772849277 $292 -4.7839559108329421 $290 $559 forward 7 unknown #
point $-1 52.33069856868191 -22.776877860250487 4.7839559108329421 #
point $-1 52.33069856868191 -13.108699931653836 4.7839559108329421 #
loop $-1 $-1 $303 $295 #
plane-surface $-1 52.33069856868191 0 0 -1 0 0 0 0 1 forward_v I I I I #
coedge $-1 $431 $298 $560 $561 reversed $180 $-1 #
coedge $-1 $298 $430 $434 $562 reversed $180 $-1 #
edge $-1 $563 -104.66139713736379 $435 -95.802036790624783 $298 $564 forward 7 unknown #
coedge $-1 $300 $299 $438 $565 reversed $113 $-1 #
coedge $-1 $306 $301 $431 $562 forward $296 $-1 #
vertex $-1 $562 $566 #
straight-curve $-1 46.176469822492052 -4.3730304446668251 8.1121469772849295 0 -1 0 I I #
coedge $-1 $560 $303 $306 $442 reversed $428 $-1 #
coedge $-1 $303 $560 $433 $565 forward $428 $-1 #
vertex $-1 $304 $567 #
straight-curve $-1 52.33069856868191 -4.3834218470134658 74.865140238031486 0 0 1 I I #
straight-curve $-1 -20.373216123787003 -4.3834218470134658 77.026365783594045 0.69465836192734942 0 -0.71933980857756763 I I #
edge $-1 $568 -13.108699931653836 $307 -4.3834218470134658 $437 $569 forward 7 unknown #
point $-1 52.33069856868191 -4.3834218470134658 8.1121469772849277 #
point $-1 46.176469822492066 -4.3834218470134658 8.1121469772849224 #
edge $-1 $570 1 $570 0 $310 $-1 forward 7 unknown #
vertex $-1 $311 $571 #
ellipse-curve $-1 48.088518021963637 -8.7460608893336502 3.8006103902422526 0.71933980857756763 0 0.69465836192734942 0.34732918096367471 0 -0.35966990428878381 1 I I #
point $-1 49.60091337655065 -8.7460608893336502 4.5660317850246503 #
loop $-1 $-1 $322 $314 #
plane-surface $-1 -52.33069856868191 0 0 1 0 0 0 0 -1 forward_v I I I I #
coedge $-1 $452 $317 $319 $456 reversed $195 $-1 #
coedge $-1 $317 $451 $572 $573 reversed $195 $-1 #
coedge $-1 $325 $320 $317 $454 forward $315 $-1 #
edge $-1 $457 -19.08987240371124 $574 -15.627805288553944 $453 $575 forward 7 unknown #
coedge $-1 $319 $318 $460 $576 reversed $122 $-1 #
edge $-1 $577 0 $457 5.7527097941272425 $451 $578 forward 7 unknown #
vertex $-1 $321 $579 #
straight-curve $-1 -48.868631453524614 -2.3075088758912443 8.1121469772849295 0 1 0 I I #
coedge $-1 $572 $322 $325 $464 reversed $449 $-1 #
coedge $-1 $322 $572 $455 $576 forward $449 $-1 #
vertex $-1 $323 $580 #
straight-curve $-1 -52.33069856868191 -8.0831948358792509 33.252314304255258 0 0 1 I I #
straight-curve $-1 -52.33069856868191 -8.0831948358792509 3.5178286093881255 -0.60181501223851219 0 -0.79863551827123203 I I #
edge $-1 $574 1.1468406676857263 $326 8.0831948358792509 $459 $581 forward 7 unknown #
point $-1 -52.33069856868191 -8.0831948358792509 8.1121469772849277 #
point $-1 -48.868631453524614 -8.0831948358792509 8.1121469772849277 #
edge $-1 $582 1 $582 0 $329 $-1 forward 7 unknown #
vertex $-1 $330 $583 #
ellipse-curve $-1 -49.259664924391785 -6.1013793592525296 4.8052253295664169 -0.79863551827123203 0 0.60181501223851219 0.3009075061192561 0 0.39931775913561601 1 I I #
point $-1 -50.298757504984003 -6.1013793592525296 6.2143055524721387 #
edge $-1 $584 1 $584 0 $333 $-1 forward 7 unknown #
vertex $-1 $334 $585 #
ellipse-curve $-1 -49.259664924391785 -3.1286561443124477 4.8052253295664169 -0.79863551827123203 0 0.60181501223851219 0.3009075061192561 0 0.39931775913561601 1 I I #
point $-1 -50.298757504984003 -3.1286561443124477 6.2143055524721387 #
loop $-1 $-1 $345 $337 #
plane-surface $-1 -52.33069856868191 0 0 1 0 0 0 0 -1 forward_v I I I I #
coedge $-1 $478 $340 $342 $482 reversed $217 $-1 #
coedge $-1 $340 $477 $586 $587 reversed $217 $-1 #
coedge $-1 $348 $343 $340 $480 forward $338 $-1 #
edge $-1 $483 -19.08987240371124 $588 -15.627805288553944 $479 $589 forward 7 unknown #
coedge $-1 $342 $341 $486 $590 reversed $136 $-1 #
edge $-1 $591 0 $483 5.7527097941272425 $477 $592 forward 7 unknown #
vertex $-1 $344 $593 #
straight-curve $-1 -48.868631453524614 3.6734207560928098 8.1121469772849295 0 1 0 I I #
coedge $-1 $586 $345 $348 $490 reversed $475 $-1 #
coedge $-1 $345 $586 $481 $590 forward $475 $-1 #
vertex $-1 $346 $594 #
straight-curve $-1 -52.33069856868191 3.8786644280888574 33.252314304255258 0 0 1 I I #
straight-curve $-1 -52.33069856868191 3.8786644280888574 3.5178286093881255 -0.60181501223851219 0 -0.79863551827123203 I I #
edge $-1 $588 -10.815018596282382 $349 -3.8786644280888574 $485 $595 forward 7 unknown #
point $-1 -52.33069856868191 3.8786644280888574 8.1121469772849277 #
point $-1 -48.868631453524614 3.8786644280888574 8.1121469772849277 #
edge $-1 $596 1 $596 0 $352 $-1 forward 7 unknown #
vertex $-1 $353 $597 #
ellipse-curve $-1 -49.259664924391785 5.8604799047155787 4.8052253295664169 -0.79863551827123203 0 0.60181501223851219 0.3009075061192561 0 0.39931775913561601 1 I I #
point $-1 -50.298757504984003 5.8604799047155787 6.2143055524721387 #
edge $-1 $598 1 $598 0 $356 $-1 forward 7 unknown #
vertex $-1 $357 $599 #
ellipse-curve $-1 -49.259664924391785 8.8332031196556606 4.8052253295664169 -0.79863551827123203 0 0.60181501223851219 0.3009075061192561 0 0.39931775913561601 1 I I #
point $-1 -50.298757504984003 8.8332031196556606 6.2143055524721387 #
loop $-1 $-1 $367 $360 #
plane-surface $-1 -52.33069856868191 0 0 1 0 0 0 0 -1 forward_v I I I I #
coedge $-1 $600 $601 $364 $505 forward $361 $-1 #
coedge $-1 $364 $363 $510 $602 reversed $150 $-1 #
edge $-1 $507 8.58925876832933 $603 14.341968562456573 $503 $604 forward 7 unknown #
coedge $-1 $370 $365 $601 $605 forward $239 $-1 #
vertex $-1 $605 $606 #
straight-curve $-1 -48.868631453524614 9.654350388076864 8.1121469772849295 0 1 0 I I #
coedge $-1 $607 $367 $370 $514 reversed $501 $-1 #
coedge $-1 $367 $607 $504 $602 forward $501 $-1 #
vertex $-1 $368 $608 #
straight-curve $-1 -52.33069856868191 15.840523692056966 33.252314304255258 0 0 1 I I #
straight-curve $-1 -52.33069856868191 15.840523692056966 3.5178286093881255 -0.60181501223851219 0 -0.79863551827123203 I I #
edge $-1 $609 -22.776877860250487 $371 -15.840523692056966 $509 $610 forward 7 unknown #
point $-1 -52.33069856868191 15.840523692056966 8.1121469772849277 #
point $-1 -48.868631453524614 15.840523692056966 8.1121469772849277 #
edge $-1 $611 1 $611 0 $374 $-1 forward 7 unknown #
vertex $-1 $375 $612 #
ellipse-curve $-1 -49.259664924391785 17.822339168683691 4.8052253295664169 -0.79863551827123203 0 0.60181501223851219 0.3009075061192561 0 0.39931775913561601 1 I I #
point $-1 -50.298757504984003 17.822339168683691 6.2143055524721387 #
edge $-1 $613 1 $613 0 $378 $-1 forward 7 unknown #
vertex $-1 $379 $614 #
ellipse-curve $-1 -49.259664924391785 20.795062383623765 4.8052253295664169 -0.79863551827123203 0 0.60181501223851219 0.3009075061192561 0 0.39931775913561601 1 I I #
point $-1 -50.298757504984003 20.795062383623765 6.2143055524721387 #
plane-surface $-1 52.33069856868191 0 0 -1 0 0 0 0 1 forward_v I I I I #
coedge $-1 $387 $385 $389 $530 reversed $261 $-1 #
edge $-1 $400 -8.1121469772849277 $532 8.1121469772849277 $399 $615 forward 7 unknown #
vertex $-1 $530 $616 #
straight-curve $-1 -52.33069856868191 -22.776877860250487 0 0 0 -1 I I #
edge $-1 $528 -22.776877860250487 $532 22.776877860250487 $526 $617 forward 7 unknown #
straight-curve $-1 0 -22.776877860250487 -8.1121469772849277 -1 0 0 I I #
vertex $-1 $392 $618 #
straight-curve $-1 0 22.776877860250487 -8.1121469772849277 1 0 0 I I #
point $-1 52.33069856868191 22.776877860250487 -8.1121469772849277 #
point $-1 52.33069856868191 -22.776877860250487 -8.1121469772849277 #
straight-curve $-1 -52.33069856868191 0 8.1121469772849277 0 -1 0 I I #
point $-1 -52.33069856868191 22.776877860250487 8.1121469772849277 #
point $-1 -52.33069856868191 -22.776877860250487 8.1121469772849277 #
straight-curve $-1 52.33069856868191 -22.776877860250487 0 0 0 -1 I I #
straight-curve $-1 52.33069856868191 22.776877860250487 0 0 0 -1 I I #
plane-surface $-1 52.33069856868191 0 0 -1 0 0 0 0 1 forward_v I I I I #
coedge $-1 $544 $556 $415 $548 forward $410 $-1 #
coedge $-1 $413 $412 $421 $554 reversed $172 $-1 #
coedge $-1 $619 $542 $413 $545 forward $410 $-1 #
edge $-1 $546 13.108699931653836 $620 22.776877860250487 $413 $621 forward 7 unknown #
vertex $-1 $545 $622 #
straight-curve $-1 -52.33069856868191 -13.108699931653836 3.2240257220294675 0 0 -1 I I #
edge $-1 $549 -52.33069856868191 $546 52.33069856868191 $542 $623 forward 7 unknown #
vertex $-1 $416 $624 #
straight-curve $-1 52.33069856868191 -13.108699931653836 3.2240257220294675 0 0 1 I I #
point $-1 -52.33069856868191 -13.108699931653836 4.7839559108329421 #
straight-curve $-1 -52.33069856868191 -8.9713944479760812 4.7839559108329421 0 -1 0 I I #
coedge $-1 $421 $420 $619 $625 reversed $280 $-1 #
edge $-1 $620 -8.1121469772849277 $422 -4.7839559108329421 $543 $626 forward 7 unknown #
point $-1 -52.33069856868191 -22.776877860250487 4.7839559108329421 #
coedge $-1 $542 $619 $424 $557 forward $410 $-1 #
edge $-1 $558 -22.776877860250487 $549 -13.108699931653836 $424 $627 forward 7 unknown #
vertex $-1 $557 $628 #
straight-curve $-1 52.33069856868191 -22.776877860250487 0 0 0 -1 I I #
coedge $-1 $438 $437 $430 $561 forward $428 $-1 #
edge $-1 $568 66.752993260746564 $563 73.125883836689496 $560 $629 forward 7 unknown #
edge $-1 $435 46.176469822492066 $568 52.33069856868191 $434 $630 forward 7 unknown #
vertex $-1 $561 $631 #
straight-curve $-1 -20.373216123787003 -13.108699931653835 77.026365783594045 -0.69465836192734942 0 0.71933980857756763 I I #
edge $-1 $563 -8.7356694869870104 $439 -0.01039140234664071 $438 $632 forward 7 unknown #
point $-1 46.176469822492066 -13.108699931653836 8.1121469772849277 #
point $-1 52.33069856868191 -4.3834218470134658 1.73925640134199 #
vertex $-1 $442 $633 #
straight-curve $-1 52.33069856868191 0 8.1121469772849277 0 1 0 I I #
vertex $-1 $445 $634 #
point $-1 48.435847202927313 -8.7460608893336502 3.4409404859534689 #
coedge $-1 $460 $459 $452 $573 forward $449 $-1 #
edge $-1 $574 25.140167326970328 $577 29.734485694867132 $572 $635 forward 7 unknown #
vertex $-1 $464 $636 #
straight-curve $-1 -67.958503857235854 -1.1468406676857263 8.1121469772849295 -1 0 0 I I #
edge $-1 $577 -1.160668208205518 $461 5.7756859599880066 $460 $637 forward 7 unknown #
vertex $-1 $576 $638 #
straight-curve $-1 -52.33069856868191 -1.1468406676857263 3.5178286093881255 0.60181501223851219 0 0.79863551827123203 I I #
point $-1 -48.868631453524614 -1.1468406676857263 8.1121469772849277 #
point $-1 -52.33069856868191 -8.0831948358792509 3.5178286093881255 #
straight-curve $-1 -52.33069856868191 0 8.1121469772849277 0 -1 0 I I #
vertex $-1 $467 $639 #
point $-1 -48.958757418272533 -6.1013793592525296 5.2045430887020334 #
vertex $-1 $471 $640 #
point $-1 -48.958757418272533 -3.1286561443124477 5.2045430887020334 #
coedge $-1 $486 $485 $478 $587 forward $475 $-1 #
edge $-1 $588 25.140167326970328 $591 29.734485694867132 $586 $641 forward 7 unknown #
vertex $-1 $490 $642 #
straight-curve $-1 -67.958503857235854 10.815018596282382 8.1121469772849295 -1 0 0 I I #
edge $-1 $591 -7.1415978401895721 $487 -0.20524367199604754 $486 $643 forward 7 unknown #
vertex $-1 $590 $644 #
straight-curve $-1 -52.33069856868191 10.815018596282382 3.5178286093881255 0.60181501223851219 0 0.79863551827123203 I I #
point $-1 -48.868631453524614 10.815018596282382 8.1121469772849277 #
point $-1 -52.33069856868191 3.8786644280888574 3.5178286093881255 #
straight-curve $-1 -52.33069856868191 0 8.1121469772849277 0 -1 0 I I #
vertex $-1 $493 $645 #
point $-1 -48.958757418272533 5.8604799047155787 5.2045430887020334 #
vertex $-1 $497 $646 #
point $-1 -48.958757418272533 8.8332031196556606 5.2045430887020334 #
coedge $-1 $601 $503 $607 $647 reversed $361 $-1 #
coedge $-1 $503 $600 $506 $605 reversed $361 $-1 #
edge $-1 $603 -13.122527472173626 $511 -6.1861733039801017 $510 $648 forward 7 unknown #
vertex $-1 $505 $649 #
straight-curve $-1 -43.69948658274275 22.776877860250487 14.971834105295347 -0.60181501223851219 0 -0.79863551827123203 I I #
edge $-1 $507 48.868631453524614 $609 52.33069856868191 $601 $650 forward 7 unknown #
point $-1 -48.868631453524614 22.77687786025049 8.1121469772849277 #
coedge $-1 $510 $509 $600 $647 forward $501 $-1 #
point $-1 -52.33069856868191 15.840523692056966 3.5178286093881255 #
vertex $-1 $605 $651 #
straight-curve $-1 -52.33069856868191 0 8.1121469772849277 0 -1 0 I I #
vertex $-1 $517 $652 #
point $-1 -48.958757418272533 17.822339168683691 5.2045430887020334 #
vertex $-1 $521 $653 #
point $-1 -48.958757418272533 20.795062383623765 5.2045430887020334 #
straight-curve $-1 -52.33069856868191 22.776877860250487 0 0 0 -1 I I #
point $-1 -52.33069856868191 -22.776877860250487 -8.1121469772849277 #
straight-curve $-1 -52.33069856868191 0 -8.1121469772849277 0 1 0 I I #
point $-1 -52.33069856868191 22.776877860250487 -8.1121469772849277 #
coedge $-1 $556 $544 $553 $625 forward $410 $-1 #
vertex $-1 $545 $654 #
straight-curve $-1 -52.33069856868191 0 8.1121469772849277 0 -1 0 I I #
point $-1 -52.33069856868191 -13.108699931653836 8.1121469772849277 #
straight-curve $-1 0 -13.108699931653836 8.1121469772849277 -1 0 0 I I #
point $-1 52.33069856868191 -13.108699931653836 8.1121469772849277 #
edge $-1 $620 -52.33069856868191 $558 52.33069856868191 $553 $655 forward 7 unknown #
straight-curve $-1 -52.33069856868191 -22.776877860250487 0 0 0 -1 I I #
straight-curve $-1 52.33069856868191 0 8.1121469772849277 0 1 0 I I #
point $-1 52.33069856868191 -22.776877860250487 8.1121469772849277 #
straight-curve $-1 52.33069856868191 -13.108699931653835 74.865140238031486 0 0 -1 I I #
straight-curve $-1 0 -13.108699931653836 8.1121469772849277 1 0 0 I I #
point $-1 52.33069856868191 -13.108699931653835 1.73925640134199 #
straight-curve $-1 52.330698568681903 -4.3730304446668251 1.7392564013419971 0 1 0 I I #
point $-1 52.33069856868191 -13.108699931653836 8.1121469772849277 #
point $-1 47.728848117674858 -8.7460608893336502 3.4532812092785781 #
straight-curve $-1 -52.33069856868191 -1.1468406676857263 33.252314304255258 0 0 -1 I I #
point $-1 -52.33069856868191 -1.1468406676857263 8.1121469772849277 #
straight-curve $-1 -52.33069856868191 -2.3075088758912443 3.517828609388121 0 -1 0 I I #
point $-1 -52.33069856868191 -1.1468406676857263 3.5178286093881255 #
point $-1 -48.860347165256172 -6.1013793592525296 4.5043178234471615 #
point $-1 -48.860347165256172 -3.1286561443124477 4.5043178234471615 #
straight-curve $-1 -52.33069856868191 10.815018596282382 33.252314304255258 0 0 -1 I I #
point $-1 -52.33069856868191 10.815018596282382 8.1121469772849277 #
straight-curve $-1 -52.33069856868191 3.6734207560928098 3.517828609388121 0 -1 0 I I #
point $-1 -52.33069856868191 10.815018596282382 3.5178286093881255 #
point $-1 -48.860347165256172 5.8604799047155787 4.5043178234471615 #
point $-1 -48.860347165256172 8.8332031196556606 4.5043178234471615 #
edge $-1 $609 -8.1121469772849277 $603 -3.5178286093881255 $600 $656 forward 7 unknown #
straight-curve $-1 -52.33069856868191 9.654350388076864 3.517828609388121 0 -1 0 I I #
point $-1 -52.33069856868191 22.77687786025049 3.5178286093881255 #
straight-curve $-1 0 22.776877860250487 8.1121469772849277 -1 0 0 I I #
point $-1 -52.33069856868191 22.776877860250487 8.1121469772849277 #
point $-1 -48.860347165256172 17.822339168683691 4.5043178234471615 #
point $-1 -48.860347165256172 20.795062383623765 4.5043178234471615 #
point $-1 -52.33069856868191 -22.776877860250487 8.1121469772849277 #
straight-curve $-1 0 -22.776877860250487 8.1121469772849277 1 0 0 I I #
straight-curve $-1 -52.33069856868191 22.776877860250487 0 0 0 -1 I I #
End-of-ACIS-data 