500 0 5 0           
7 Unknown 11 ACIS 5.0 NT 24 Fri Mar 26 03:08:18 1999 
-1 9.9999999999999995e-007 1e-010 
body $-1 $5 $-1 $6 #
body $-1 $7 $-1 $8 #
body $-1 $9 $-1 $10 #
body $-1 $11 $-1 $12 #
body $-1 $13 $-1 $14 #
lump $-1 $-1 $15 $0 #
transform $-1 1 0 0 0 1 0 0 0 1 48.827173680837426 32.496810926593909 14.947323086069911 1 rotate no_reflect no_shear #
lump $-1 $-1 $16 $1 #
transform $-1 1 0 0 0 1 0 0 0 1 48.827173680837426 32.496810926593909 14.947323086069911 1 rotate no_reflect no_shear #
lump $-1 $-1 $17 $2 #
transform $-1 1 0 0 0 1 0 0 0 1 48.827173680837426 32.496810926593909 14.947323086069911 1 rotate no_reflect no_shear #
lump $-1 $-1 $18 $3 #
transform $-1 1 0 0 0 1 0 0 0 1 48.827173680837426 32.496810926593909 14.947323086069911 1 rotate no_reflect no_shear #
lump $-1 $-1 $19 $4 #
transform $-1 1 0 0 0 1 0 0 0 1 48.827173680837426 32.496810926593909 14.947323086069911 1 rotate no_reflect no_shear #
shell $-1 $-1 $-1 $20 $-1 $5 #
shell $-1 $-1 $-1 $21 $-1 $7 #
shell $-1 $-1 $-1 $22 $-1 $9 #
shell $-1 $-1 $-1 $23 $-1 $11 #
shell $-1 $-1 $-1 $24 $-1 $13 #
face $-1 $25 $26 $15 $-1 $27 forward single #
face $-1 $28 $29 $16 $-1 $30 forward single #
face $-1 $31 $32 $17 $-1 $33 reversed single #
face $-1 $34 $35 $18 $-1 $36 forward single #
face $-1 $37 $38 $19 $-1 $39 forward single #
face $-1 $40 $41 $15 $-1 $42 reversed single #
loop $-1 $-1 $43 $20 #
plane-surface $-1 0 0 14.947323086069911 0 0 1 1 0 0 forward_v I I I I #
face $-1 $44 $45 $16 $-1 $46 reversed single #
loop $-1 $-1 $47 $21 #
plane-surface $-1 -48.827173680837426 0 0 1 0 0 0 0 -1 forward_v I I I I #
face $-1 $48 $49 $17 $-1 $50 reversed single #
loop $-1 $-1 $51 $22 #
plane-surface $-1 -19.009235292508002 -23.211908629286715 72.10291192083578 0.71933980857756763 0 0.69465836192734942 0.69465836192734942 0 -0.71933980857756763 forward_v I I I I #
face $-1 $52 $53 $18 $-1 $54 forward single #
loop $-1 $55 $56 $23 #
cone-surface $-1 40.477804981852181 -27.191152470989799 6.4429664815221033 -0.71933980857756763 0 -0.69465836192734942 1.7366459048183736 0 -1.7983495214439191 1 I I 0 1 2.5 forward I I I I #
face $-1 $57 $58 $19 $-1 $59 forward single #
loop $-1 $60 $61 $24 #
cone-surface $-1 40.477804981852181 -19.23266478758363 6.4429664815221033 -0.71933980857756763 0 -0.69465836192734942 1.7366459048183736 0 -1.7983495214439191 1 I I 0 1 2.5 forward I I I I #
face $-1 $62 $63 $15 $-1 $64 reversed single #
loop $-1 $-1 $65 $25 #
plane-surface $-1 0 0 -14.947323086069911 0 0 1 1 0 0 forward_v I I I I #
coedge $-1 $66 $67 $68 $69 forward $26 $-1 #
face $-1 $70 $71 $16 $-1 $72 forward single #
loop $-1 $-1 $73 $28 #
plane-surface $-1 0 32.496810926593909 0 0 -1 0 0 0 -1 forward_v I I I I #
coedge $-1 $74 $75 $76 $77 forward $29 $-1 #
face $-1 $78 $79 $17 $-1 $80 forward single #
loop $-1 $-1 $81 $31 #
plane-surface $-1 51.23742424540648 -13.92700633197952 139.93932089418121 0 -1 0 -0.71933980857756763 0 -0.69465836192734942 forward_v I I I I #
coedge $-1 $82 $83 $84 $85 reversed $32 $-1 #
face $-1 $-1 $86 $18 $-1 $87 forward single #
loop $-1 $88 $89 $34 #
cone-surface $-1 37.550211386233961 -27.191152470989799 3.6158222761394292 -0.71933980857756763 0 -0.69465836192734942 0.86832295240918678 0 -0.89917476072195957 1 I I -0.70710678118654746 0.70710678118654746 1.25 forward I I I I #
loop $-1 $-1 $90 $23 #
coedge $-1 $56 $56 $91 $92 reversed $35 $-1 #
face $-1 $-1 $93 $19 $-1 $94 forward single #
loop $-1 $95 $96 $37 #
cone-surface $-1 37.550211386233961 -19.23266478758363 3.6158222761394292 -0.71933980857756763 0 -0.69465836192734942 0.86832295240918678 0 -0.89917476072195957 1 I I -0.70710678118654746 0.70710678118654746 1.25 forward I I I I #
loop $-1 $-1 $97 $24 #
coedge $-1 $61 $61 $98 $99 reversed $38 $-1 #
face $-1 $100 $101 $15 $-1 $102 reversed single #
loop $-1 $-1 $103 $40 #
plane-surface $-1 0 -32.496810926593909 0 0 1 0 0 0 1 forward_v I I I I #
coedge $-1 $104 $105 $106 $107 forward $41 $-1 #
coedge $-1 $108 $43 $109 $110 forward $26 $-1 #
coedge $-1 $43 $108 $111 $112 forward $26 $-1 #
coedge $-1 $113 $114 $43 $69 reversed $115 $-1 #
edge $-1 $116 -32.496810926593909 $117 32.496810926593909 $68 $118 forward 7 unknown #
face $-1 $119 $120 $16 $-1 $121 reversed single #
loop $-1 $-1 $76 $44 #
plane-surface $-1 -56.748534167820914 0 -11.160473271723138 0 0 1 1 0 0 forward_v I I I I #
coedge $-1 $122 $123 $75 $124 forward $45 $-1 #
coedge $-1 $125 $47 $126 $127 reversed $29 $-1 #
coedge $-1 $47 $125 $73 $124 reversed $29 $-1 #
coedge $-1 $128 $129 $47 $77 reversed $71 $-1 #
edge $-1 $130 -32.496810926593909 $131 32.496810926593909 $76 $132 forward 7 unknown #
face $-1 $133 $134 $17 $-1 $135 reversed single #
loop $-1 $-1 $136 $48 #
plane-surface $-1 0 0 14.947323086069911 0 0 1 1 0 0 forward_v I I I I #
coedge $-1 $137 $138 $139 $140 reversed $49 $-1 #
coedge $-1 $141 $51 $142 $143 reversed $32 $-1 #
coedge $-1 $51 $141 $137 $144 forward $32 $-1 #
coedge $-1 $139 $145 $51 $85 forward $146 $-1 #
edge $-1 $147 -20.890856611950554 $148 -2.3210520173361626 $84 $149 forward 7 unknown #
loop $-1 $-1 $91 $52 #
plane-surface $-1 -19.009235292508002 -23.211908629286715 72.10291192083578 0.71933980857756763 0 0.69465836192734942 0.69465836192734942 0 -0.71933980857756763 forward_v I I I I #
loop $-1 $-1 $150 $34 #
coedge $-1 $89 $89 $90 $151 reversed $53 $-1 #
coedge $-1 $90 $90 $89 $151 forward $55 $-1 #
coedge $-1 $91 $91 $56 $92 forward $86 $-1 #
edge $-1 $152 0 $152 6.2831853071796004 $91 $153 forward 7 unknown #
loop $-1 $-1 $98 $57 #
plane-surface $-1 -19.009235292508002 -23.211908629286715 72.10291192083578 0.71933980857756763 0 0.69465836192734942 0.69465836192734942 0 -0.71933980857756763 forward_v I I I I #
loop $-1 $-1 $154 $37 #
coedge $-1 $96 $96 $97 $155 reversed $58 $-1 #
coedge $-1 $97 $97 $96 $155 forward $60 $-1 #
coedge $-1 $98 $98 $61 $99 forward $93 $-1 #
edge $-1 $156 0 $156 6.2831853071796004 $98 $157 forward 7 unknown #
face $-1 $158 $159 $15 $-1 $160 reversed single #
loop $-1 $-1 $161 $62 #
plane-surface $-1 -48.827173680837426 0 0 1 0 0 0 0 -1 forward_v I I I I #
coedge $-1 $162 $111 $161 $163 forward $63 $-1 #
coedge $-1 $164 $65 $162 $165 forward $41 $-1 #
coedge $-1 $65 $164 $166 $167 forward $41 $-1 #
coedge $-1 $114 $113 $65 $107 reversed $115 $-1 #
edge $-1 $168 -32.496810926593909 $169 32.496810926593909 $106 $170 forward 7 unknown #
coedge $-1 $67 $66 $171 $172 forward $26 $-1 #
coedge $-1 $173 $174 $66 $110 reversed $159 $-1 #
edge $-1 $117 -48.827173680837426 $175 48.827173680837426 $109 $176 forward 7 unknown #
coedge $-1 $103 $177 $67 $112 reversed $63 $-1 #
edge $-1 $178 -48.827173680837426 $116 48.827173680837426 $111 $179 forward 7 unknown #
coedge $-1 $106 $68 $177 $180 forward $115 $-1 #
coedge $-1 $68 $106 $173 $181 reversed $115 $-1 #
loop $-1 $-1 $113 $158 #
vertex $-1 $69 $182 #
vertex $-1 $69 $183 #
straight-curve $-1 48.827173680837426 0 14.947323086069911 0 1 0 I I #
face $-1 $184 $185 $16 $-1 $186 reversed single #
loop $-1 $-1 $187 $70 #
plane-surface $-1 -64.669894654804409 0 -13.053898178896524 1 0 0 0 0 -1 forward_v I I I I #
coedge $-1 $188 $73 $189 $190 reversed $45 $-1 #
coedge $-1 $73 $188 $128 $191 reversed $45 $-1 #
edge $-1 $130 11.160473271723138 $192 14.947323086069911 $73 $193 forward 7 unknown #
coedge $-1 $75 $74 $194 $195 reversed $29 $-1 #
coedge $-1 $196 $197 $74 $127 forward $198 $-1 #
edge $-1 $199 -14.947323086069911 $131 -11.160473271723138 $126 $200 forward 7 unknown #
coedge $-1 $201 $76 $123 $191 forward $71 $-1 #
coedge $-1 $76 $201 $196 $202 forward $71 $-1 #
vertex $-1 $124 $203 #
vertex $-1 $202 $204 #
straight-curve $-1 -48.827173680837426 0 -11.160473271723138 0 -1 0 I I #
face $-1 $-1 $146 $17 $-1 $205 reversed single #
loop $-1 $-1 $142 $78 #
plane-surface $-1 0 -32.496810926593909 0 0 1 0 0 0 1 forward_v I I I I #
coedge $-1 $206 $207 $138 $208 forward $79 $-1 #
coedge $-1 $138 $81 $83 $144 reversed $49 $-1 #
coedge $-1 $81 $137 $136 $208 reversed $49 $-1 #
coedge $-1 $209 $84 $81 $140 forward $146 $-1 #
edge $-1 $148 -68.113408064169306 $210 -55.022337361020689 $139 $211 forward 7 unknown #
coedge $-1 $83 $82 $206 $212 reversed $32 $-1 #
coedge $-1 $213 $214 $82 $143 forward $134 $-1 #
edge $-1 $215 46.919908156768422 $147 65.118637807272648 $142 $216 forward 7 unknown #
edge $-1 $217 79.455617711170618 $148 97.654347361674851 $137 $218 forward 7 unknown #
coedge $-1 $84 $209 $213 $219 forward $146 $-1 #
loop $-1 $-1 $139 $133 #
vertex $-1 $143 $220 #
vertex $-1 $85 $221 #
straight-curve $-1 48.827173680837426 -11.605954314643357 1.8562523829212907 0 1 0 I I #
coedge $-1 $150 $150 $-1 $222 reversed $88 $-1 #
edge $-1 $223 0 $223 6.2831853071796004 $89 $224 forward 7 unknown #
vertex $-1 $92 $225 #
ellipse-curve $-1 42.506223816748459 -27.191152470989799 8.4017877344956045 0.71933980857756763 0 0.69465836192734942 1.7366459048183736 0 -1.7983495214439191 1 I I #
coedge $-1 $154 $154 $-1 $226 reversed $95 $-1 #
edge $-1 $227 0 $227 6.2831853071796004 $96 $228 forward 7 unknown #
vertex $-1 $99 $229 #
ellipse-curve $-1 42.506223816748459 -19.23266478758363 8.4017877344956045 0.71933980857756763 0 0.69465836192734942 1.7366459048183736 0 -1.7983495214439191 1 I I #
face $-1 $-1 $115 $15 $-1 $230 reversed single #
loop $-1 $-1 $173 $100 #
plane-surface $-1 0 32.496810926593909 0 0 -1 0 0 0 -1 forward_v I I I I #
coedge $-1 $171 $231 $103 $163 reversed $101 $-1 #
coedge $-1 $177 $103 $104 $165 reversed $63 $-1 #
edge $-1 $178 -14.947323086069911 $232 14.947323086069911 $161 $233 forward 7 unknown #
coedge $-1 $105 $104 $231 $234 forward $41 $-1 #
edge $-1 $169 -48.827173680837426 $232 48.827173680837426 $162 $235 forward 7 unknown #
coedge $-1 $174 $173 $105 $167 reversed $159 $-1 #
edge $-1 $236 -48.827173680837426 $168 48.827173680837426 $166 $237 forward 7 unknown #
vertex $-1 $107 $238 #
vertex $-1 $180 $239 #
straight-curve $-1 48.827173680837426 0 -14.947323086069911 0 -1 0 I I #
coedge $-1 $240 $161 $108 $172 reversed $101 $-1 #
edge $-1 $175 -32.496810926593909 $178 32.496810926593909 $171 $241 forward 7 unknown #
coedge $-1 $166 $109 $114 $181 forward $159 $-1 #
coedge $-1 $109 $166 $240 $242 reversed $159 $-1 #
vertex $-1 $110 $243 #
straight-curve $-1 0 32.496810926593909 14.947323086069911 -1 0 0 I I #
coedge $-1 $111 $162 $113 $180 reversed $63 $-1 #
vertex $-1 $172 $244 #
straight-curve $-1 0 -32.496810926593909 14.947323086069911 1 0 0 I I #
edge $-1 $116 -14.947323086069911 $169 14.947323086069911 $113 $245 forward 7 unknown #
edge $-1 $117 -14.947323086069911 $168 14.947323086069911 $114 $246 forward 7 unknown #
point $-1 48.827173680837426 -32.496810926593909 14.947323086069911 #
point $-1 48.827173680837426 32.496810926593909 14.947323086069911 #
face $-1 $-1 $198 $16 $-1 $247 reversed single #
loop $-1 $-1 $194 $119 #
plane-surface $-1 0 0 -14.947323086069911 0 0 1 1 0 0 forward_v I I I I #
coedge $-1 $248 $249 $188 $250 forward $120 $-1 #
coedge $-1 $123 $122 $187 $250 reversed $45 $-1 #
coedge $-1 $194 $251 $122 $190 forward $185 $-1 #
edge $-1 $252 -64.669894654804409 $192 -48.827173680837426 $122 $253 forward 7 unknown #
edge $-1 $130 -7.9213604869834882 $254 7.9213604869834953 $123 $255 forward 7 unknown #
vertex $-1 $124 $256 #
straight-curve $-1 -48.827173680837426 32.496810926593909 0 0 0 -1 I I #
coedge $-1 $257 $189 $125 $195 forward $185 $-1 #
edge $-1 $192 -32.496810926593909 $199 32.496810926593909 $194 $258 forward 7 unknown #
coedge $-1 $259 $126 $129 $202 reversed $198 $-1 #
coedge $-1 $126 $259 $257 $260 reversed $198 $-1 #
loop $-1 $-1 $126 $184 #
vertex $-1 $260 $261 #
straight-curve $-1 -48.827173680837426 -32.496810926593909 0 0 0 1 I I #
coedge $-1 $129 $128 $249 $262 forward $71 $-1 #
edge $-1 $263 -7.9213604869834953 $131 7.9213604869834882 $196 $264 forward 7 unknown #
point $-1 -48.827173680837426 32.496810926593909 -11.160473271723138 #
point $-1 -48.827173680837426 -32.496810926593909 -11.160473271723138 #
plane-surface $-1 48.827173680837426 0 0 -1 0 0 0 0 1 forward_v I I I I #
coedge $-1 $265 $136 $141 $212 forward $79 $-1 #
coedge $-1 $136 $265 $209 $266 forward $79 $-1 #
edge $-1 $210 -23.208461558134186 $217 -10.566561829956232 $136 $267 forward 7 unknown #
coedge $-1 $145 $139 $207 $266 reversed $146 $-1 #
vertex $-1 $208 $268 #
straight-curve $-1 48.827173680837426 -13.92700633197952 69.969660447090604 0 0 1 I I #
edge $-1 $217 2.3210520173361626 $215 20.890856611950554 $206 $269 forward 7 unknown #
coedge $-1 $214 $142 $145 $219 reversed $134 $-1 #
coedge $-1 $142 $213 $265 $270 reversed $134 $-1 #
vertex $-1 $270 $271 #
straight-curve $-1 3.5919674106970412 -32.496810926593909 48.698680838036765 0.69465836192734942 0 -0.71933980857756763 I I #
vertex $-1 $212 $272 #
straight-curve $-1 -19.009235292508002 -13.92700633197952 72.10291192083578 0.69465836192734942 0 -0.71933980857756763 I I #
edge $-1 $273 -14.947323086069911 $147 -1.8562523829212996 $145 $274 forward 7 unknown #
point $-1 48.827173680837426 -32.496810926593909 1.8562523829212996 #
point $-1 48.827173680837426 -13.92700633197952 1.8562523829212978 #
edge $-1 $275 1 $275 0 $150 $-1 forward 7 unknown #
vertex $-1 $151 $276 #
ellipse-curve $-1 38.449386146955923 -27.191152470989799 4.4841452285486163 0.71933980857756763 0 0.69465836192734942 1.7366459048183736 0 -1.7983495214439191 1 I I #
point $-1 44.242869721566819 -27.191152470989799 6.603438213051672 #
edge $-1 $277 1 $277 0 $154 $-1 forward 7 unknown #
vertex $-1 $155 $278 #
ellipse-curve $-1 38.449386146955923 -19.23266478758363 4.4841452285486163 0.71933980857756763 0 0.69465836192734942 1.7366459048183736 0 -1.7983495214439191 1 I I #
point $-1 44.242869721566819 -19.23266478758363 6.603438213051672 #
plane-surface $-1 48.827173680837426 0 0 -1 0 0 0 0 1 forward_v I I I I #
coedge $-1 $161 $240 $164 $234 reversed $101 $-1 #
vertex $-1 $234 $279 #
straight-curve $-1 -48.827173680837426 -32.496810926593909 0 0 0 -1 I I #
edge $-1 $232 -32.496810926593909 $236 32.496810926593909 $231 $280 forward 7 unknown #
straight-curve $-1 0 -32.496810926593909 -14.947323086069911 -1 0 0 I I #
vertex $-1 $167 $281 #
straight-curve $-1 0 32.496810926593909 -14.947323086069911 1 0 0 I I #
point $-1 48.827173680837426 32.496810926593909 -14.947323086069911 #
point $-1 48.827173680837426 -32.496810926593909 -14.947323086069911 #
coedge $-1 $231 $171 $174 $242 forward $101 $-1 #
straight-curve $-1 -48.827173680837426 0 14.947323086069911 0 -1 0 I I #
edge $-1 $175 -14.947323086069911 $236 14.947323086069911 $174 $282 forward 7 unknown #
point $-1 -48.827173680837426 32.496810926593909 14.947323086069911 #
point $-1 -48.827173680837426 -32.496810926593909 14.947323086069911 #
straight-curve $-1 48.827173680837426 -32.496810926593909 0 0 0 -1 I I #
straight-curve $-1 48.827173680837426 32.496810926593909 0 0 0 -1 I I #
plane-surface $-1 0 -32.496810926593909 0 0 1 0 0 0 1 forward_v I I I I #
coedge $-1 $283 $187 $251 $284 reversed $120 $-1 #
coedge $-1 $187 $283 $201 $262 reversed $120 $-1 #
edge $-1 $254 -1.8934249071733866 $252 1.8934249071733866 $188 $285 forward 7 unknown #
coedge $-1 $189 $257 $248 $284 forward $185 $-1 #
vertex $-1 $190 $286 #
straight-curve $-1 0 32.496810926593909 -14.947323086069911 1 0 0 I I #
vertex $-1 $191 $287 #
straight-curve $-1 -56.748534167820914 32.496810926593909 -11.160473271723138 -1 0 0 I I #
point $-1 -48.827173680837426 32.496810926593909 -14.947323086069911 #
coedge $-1 $251 $194 $197 $260 forward $185 $-1 #
straight-curve $-1 -48.827173680837426 0 -14.947323086069911 0 -1 0 I I #
coedge $-1 $197 $196 $283 $288 forward $198 $-1 #
edge $-1 $199 -7.9213604869834882 $289 7.9213604869834953 $197 $290 forward 7 unknown #
point $-1 -48.827173680837426 -32.496810926593909 -14.947323086069911 #
edge $-1 $254 -32.496810926593909 $263 32.496810926593909 $249 $291 forward 7 unknown #
vertex $-1 $262 $292 #
straight-curve $-1 -56.748534167820914 -32.496810926593909 -11.160473271723138 1 0 0 I I #
coedge $-1 $207 $206 $214 $270 forward $79 $-1 #
edge $-1 $273 -32.496810926593909 $210 -13.92700633197952 $209 $293 forward 7 unknown #
straight-curve $-1 25.61871212270324 -13.92700633197952 14.947323086069915 -1 0 0 I I #
point $-1 48.827173680837426 -13.92700633197952 14.947323086069911 #
straight-curve $-1 36.185273952659479 -11.605954314643357 14.947323086069908 0 -1 0 I I #
edge $-1 $215 36.185273952659472 $273 48.827173680837426 $214 $294 forward 7 unknown #
point $-1 36.185273952659472 -32.496810926593909 14.947323086069915 #
point $-1 36.185273952659472 -13.92700633197952 14.947323086069915 #
vertex $-1 $266 $295 #
straight-curve $-1 48.827173680837426 -32.496810926593909 0 0 0 -1 I I #
vertex $-1 $222 $296 #
point $-1 40.186032051774291 -27.191152470989799 2.6857957071046967 #
vertex $-1 $226 $297 #
point $-1 40.186032051774291 -19.23266478758363 2.6857957071046967 #
point $-1 -48.827173680837426 -32.496810926593909 -14.947323086069911 #
straight-curve $-1 -48.827173680837426 0 -14.947323086069911 0 1 0 I I #
point $-1 -48.827173680837426 32.496810926593909 -14.947323086069911 #
straight-curve $-1 -48.827173680837426 32.496810926593909 0 0 0 -1 I I #
coedge $-1 $249 $248 $259 $288 reversed $120 $-1 #
edge $-1 $289 -32.496810926593909 $252 32.496810926593909 $248 $298 forward 7 unknown #
straight-curve $-1 -64.669894654804409 32.496810926593909 -13.053898178896524 0 0 -1 I I #
point $-1 -64.669894654804409 32.496810926593909 -14.947323086069911 #
point $-1 -64.669894654804409 32.496810926593909 -11.160473271723138 #
edge $-1 $263 -1.8934249071733866 $289 1.8934249071733866 $283 $299 forward 7 unknown #
vertex $-1 $284 $300 #
straight-curve $-1 -56.748534167820914 -32.496810926593909 -14.947323086069911 -1 0 0 I I #
straight-curve $-1 -64.669894654804409 0 -11.160473271723138 0 -1 0 I I #
point $-1 -64.669894654804409 -32.496810926593909 -11.160473271723138 #
straight-curve $-1 48.827173680837426 0 14.947323086069911 0 1 0 I I #
straight-curve $-1 0 -32.496810926593909 14.947323086069911 1 0 0 I I #
point $-1 48.827173680837426 -32.496810926593909 14.947323086069911 #
point $-1 36.651036625511999 -27.191152470989799 2.7474993237302425 #
point $-1 36.651036625511999 -19.23266478758363 2.7474993237302425 #
straight-curve $-1 -64.669894654804409 0 -14.947323086069911 0 1 0 I I #
straight-curve $-1 -64.669894654804409 -32.496810926593909 -13.053898178896524 0 0 -1 I I #
point $-1 -64.669894654804409 -32.496810926593909 -14.947323086069911 #
End-of-ACIS-data 