500 0 10 0           
7 Unknown 11 ACIS 5.0 NT 24 Thu Mar 25 17:44:45 1999 
-1 9.9999999999999995e-007 1e-010 
body $-1 $10 $-1 $11 #
body $-1 $12 $-1 $13 #
body $-1 $14 $-1 $15 #
body $-1 $16 $-1 $17 #
body $-1 $18 $-1 $19 #
body $-1 $20 $-1 $21 #
body $-1 $22 $-1 $23 #
body $-1 $24 $-1 $25 #
body $-1 $26 $-1 $27 #
body $-1 $28 $-1 $29 #
lump $-1 $-1 $30 $0 #
transform $-1 1 0 0 0 1 0 0 0 1 59.793084505752738 30.601460876631126 9.8003683673598232 1 rotate no_reflect no_shear #
lump $-1 $-1 $31 $1 #
transform $-1 1 0 0 0 1 0 0 0 1 59.793084505752738 30.601460876631126 9.8003683673598232 1 rotate no_reflect no_shear #
lump $-1 $-1 $32 $2 #
transform $-1 1 0 0 0 1 0 0 0 1 59.793084505752738 30.601460876631126 9.8003683673598232 1 rotate no_reflect no_shear #
lump $-1 $-1 $33 $3 #
transform $-1 1 0 0 0 1 0 0 0 1 59.793084505752738 30.601460876631126 9.8003683673598232 1 rotate no_reflect no_shear #
lump $-1 $-1 $34 $4 #
transform $-1 1 0 0 0 1 0 0 0 1 59.793084505752738 30.601460876631126 9.8003683673598232 1 rotate no_reflect no_shear #
lump $-1 $-1 $35 $5 #
transform $-1 1 0 0 0 1 0 0 0 1 59.793084505752738 30.601460876631126 9.8003683673598232 1 rotate no_reflect no_shear #
lump $-1 $-1 $36 $6 #
transform $-1 1 0 0 0 1 0 0 0 1 59.793084505752738 30.601460876631126 9.8003683673598232 1 rotate no_reflect no_shear #
lump $-1 $-1 $37 $7 #
transform $-1 1 0 0 0 1 0 0 0 1 59.793084505752738 30.601460876631126 9.8003683673598232 1 rotate no_reflect no_shear #
lump $-1 $-1 $38 $8 #
transform $-1 1 0 0 0 1 0 0 0 1 59.793084505752738 30.601460876631126 9.8003683673598232 1 rotate no_reflect no_shear #
lump $-1 $-1 $39 $9 #
transform $-1 1 0 0 0 1 0 0 0 1 59.793084505752738 30.601460876631126 9.8003683673598232 1 rotate no_reflect no_shear #
shell $-1 $-1 $-1 $40 $-1 $10 #
shell $-1 $-1 $-1 $41 $-1 $12 #
shell $-1 $-1 $-1 $42 $-1 $14 #
shell $-1 $-1 $-1 $43 $-1 $16 #
shell $-1 $-1 $-1 $44 $-1 $18 #
shell $-1 $-1 $-1 $45 $-1 $20 #
shell $-1 $-1 $-1 $46 $-1 $22 #
shell $-1 $-1 $-1 $47 $-1 $24 #
shell $-1 $-1 $-1 $48 $-1 $26 #
shell $-1 $-1 $-1 $49 $-1 $28 #
face $-1 $50 $51 $30 $-1 $52 forward single #
face $-1 $53 $54 $31 $-1 $55 reversed single #
face $-1 $56 $57 $32 $-1 $58 reversed single #
face $-1 $59 $60 $33 $-1 $61 reversed single #
face $-1 $62 $63 $34 $-1 $64 forward single #
face $-1 $65 $66 $35 $-1 $67 forward single #
face $-1 $68 $69 $36 $-1 $70 forward single #
face $-1 $71 $72 $37 $-1 $73 reversed single #
face $-1 $74 $75 $38 $-1 $76 forward single #
face $-1 $77 $78 $39 $-1 $79 forward single #
face $-1 $80 $81 $30 $-1 $82 reversed single #
loop $-1 $-1 $83 $40 #
plane-surface $-1 0 0 9.8003683673598232 0 0 1 1 0 0 forward_v I I I I #
face $-1 $84 $85 $31 $-1 $86 reversed single #
loop $-1 $-1 $87 $41 #
plane-surface $-1 -57.694859944226224 -20.430367188328205 0 0 -1 0 0 0 -1 forward_v I I I I #
face $-1 $88 $89 $32 $-1 $90 reversed single #
loop $-1 $-1 $91 $42 #
plane-surface $-1 -57.694859944226224 20.430367188328205 0 0 1 0 0 0 1 forward_v I I I I #
face $-1 $92 $93 $33 $-1 $94 reversed single #
loop $-1 $-1 $95 $43 #
plane-surface $-1 -59.793084505752745 -17.275568532250929 6.585152387961287 -0.61566148304635926 0 0.78801074757464917 0.78801074757464917 0 0.61566148304635926 forward_v I I I I #
face $-1 $96 $97 $34 $-1 $98 forward single #
loop $-1 $99 $100 $44 #
cone-surface $-1 -57.427609411521999 -19.168447725897295 7.7987550038732234 0.61566148304635926 0 -0.78801074757464917 0.19700268689366229 0 0.15391537076158981 1 I I 0 1 0.25 forward I I I I #
face $-1 $101 $102 $35 $-1 $103 forward single #
loop $-1 $104 $105 $45 #
cone-surface $-1 -57.427609411521999 -17.275568532250933 7.7987550038732234 0.61566148304635926 0 -0.78801074757464917 0.19700268689366229 0 0.15391537076158981 1 I I 0 1 0.25 forward I I I I #
face $-1 $106 $107 $36 $-1 $108 forward single #
loop $-1 $109 $110 $46 #
cone-surface $-1 -57.427609411521999 -15.382689338604569 7.7987550038732234 0.61566148304635926 0 -0.78801074757464917 0.19700268689366229 0 0.15391537076158981 1 I I 0 1 0.25 forward I I I I #
face $-1 $111 $112 $37 $-1 $113 reversed single #
loop $-1 $-1 $114 $47 #
plane-surface $-1 77.47098036435824 20.430367188328201 174.02156465680227 0 -1 0 -0.77714596973225614 0 -0.62932038083071107 forward_v I I I I #
face $-1 $115 $116 $38 $-1 $117 forward single #
loop $-1 $118 $119 $48 #
cone-surface $-1 57.451758858689381 15.80359655274771 7.2205950464720647 -0.77714596973225614 0 -0.62932038083071107 0.31466019041535553 0 -0.38857298486612807 1 I I 0 1 0.5 forward I I I I #
face $-1 $120 $121 $39 $-1 $122 forward single #
loop $-1 $123 $124 $49 #
cone-surface $-1 57.451758858689381 18.579658934096006 7.2205950464720647 -0.77714596973225614 0 -0.62932038083071107 0.31466019041535553 0 -0.38857298486612807 1 I I 0 1 0.5 forward I I I I #
face $-1 $125 $126 $30 $-1 $127 reversed single #
loop $-1 $-1 $128 $50 #
plane-surface $-1 0 0 -9.8003683673598232 0 0 1 1 0 0 forward_v I I I I #
coedge $-1 $129 $130 $131 $132 forward $51 $-1 #
face $-1 $133 $134 $31 $-1 $135 forward single #
loop $-1 $-1 $136 $53 #
plane-surface $-1 -55.596635382699709 -25.515914032479664 0 -1 0 0 0 0 1 forward_v I I I I #
coedge $-1 $137 $138 $139 $140 reversed $54 $-1 #
face $-1 $141 $142 $32 $-1 $143 reversed single #
loop $-1 $-1 $144 $56 #
plane-surface $-1 -55.596635382699709 25.515914032479667 0 -1 0 0 0 0 1 forward_v I I I I #
coedge $-1 $145 $146 $147 $148 reversed $57 $-1 #
face $-1 $149 $150 $33 $-1 $151 forward single #
loop $-1 $-1 $152 $59 #
plane-surface $-1 -133.41768267120878 -14.120769876173656 100.82033883030606 0 -1 0 0.61566148304635926 0 -0.78801074757464917 forward_v I I I I #
coedge $-1 $153 $154 $155 $156 reversed $60 $-1 #
face $-1 $-1 $157 $34 $-1 $158 forward single #
loop $-1 $159 $160 $62 #
cone-surface $-1 -57.042820984618025 -19.168447725897295 7.3062482866390681 0.61566148304635926 0 -0.78801074757464917 0.098501343446831147 0 0.076957685380794907 1 I I -0.70710678118654746 0.70710678118654746 0.125 forward I I I I #
loop $-1 $-1 $161 $44 #
coedge $-1 $100 $100 $162 $163 reversed $63 $-1 #
face $-1 $-1 $164 $35 $-1 $165 forward single #
loop $-1 $166 $167 $65 #
cone-surface $-1 -57.042820984618025 -17.275568532250933 7.3062482866390681 0.61566148304635926 0 -0.78801074757464917 0.098501343446831147 0 0.076957685380794907 1 I I -0.70710678118654746 0.70710678118654746 0.125 forward I I I I #
loop $-1 $-1 $168 $45 #
coedge $-1 $105 $105 $169 $170 reversed $66 $-1 #
face $-1 $-1 $171 $36 $-1 $172 forward single #
loop $-1 $173 $174 $68 #
cone-surface $-1 -57.042820984618025 -15.382689338604569 7.3062482866390681 0.61566148304635926 0 -0.78801074757464917 0.098501343446831147 0 0.076957685380794907 1 I I -0.70710678118654746 0.70710678118654746 0.125 forward I I I I #
loop $-1 $-1 $175 $46 #
coedge $-1 $110 $110 $176 $177 reversed $69 $-1 #
face $-1 $178 $179 $37 $-1 $180 reversed single #
loop $-1 $-1 $181 $71 #
plane-surface $-1 -15.464928918653655 17.191627743421858 98.763551232395869 0.77714596973225614 0 0.62932038083071107 0.62932038083071107 0 -0.77714596973225614 forward_v I I I I #
coedge $-1 $182 $183 $184 $185 reversed $72 $-1 #
face $-1 $-1 $186 $38 $-1 $187 forward single #
loop $-1 $188 $189 $74 #
cone-surface $-1 56.52467188670952 15.80359655274771 6.4698548393645581 -0.77714596973225614 0 -0.62932038083071107 0.15733009520767777 0 -0.19428649243306403 1 I I -0.70710678118654746 0.70710678118654746 0.25 forward I I I I #
loop $-1 $-1 $190 $48 #
coedge $-1 $119 $119 $191 $192 reversed $75 $-1 #
face $-1 $-1 $193 $39 $-1 $194 forward single #
loop $-1 $195 $196 $77 #
cone-surface $-1 56.52467188670952 18.579658934096006 6.4698548393645581 -0.77714596973225614 0 -0.62932038083071107 0.15733009520767777 0 -0.19428649243306403 1 I I -0.70710678118654746 0.70710678118654746 0.25 forward I I I I #
loop $-1 $-1 $197 $49 #
coedge $-1 $124 $124 $198 $199 reversed $78 $-1 #
face $-1 $200 $201 $30 $-1 $202 reversed single #
loop $-1 $-1 $203 $80 #
plane-surface $-1 0 -30.601460876631126 0 0 1 0 0 0 1 forward_v I I I I #
coedge $-1 $204 $205 $206 $207 forward $81 $-1 #
coedge $-1 $208 $83 $209 $210 forward $51 $-1 #
coedge $-1 $83 $208 $211 $212 forward $51 $-1 #
coedge $-1 $213 $214 $83 $132 reversed $215 $-1 #
edge $-1 $216 -30.601460876631126 $217 30.601460876631126 $131 $218 forward 7 unknown #
face $-1 $219 $220 $31 $-1 $221 reversed single #
loop $-1 $-1 $222 $84 #
plane-surface $-1 0 0 9.8003683673598232 0 0 1 1 0 0 forward_v I I I I #
coedge $-1 $223 $224 $225 $226 reversed $85 $-1 #
coedge $-1 $227 $87 $228 $229 forward $54 $-1 #
coedge $-1 $87 $227 $230 $231 reversed $54 $-1 #
coedge $-1 $232 $222 $87 $140 forward $134 $-1 #
edge $-1 $233 26.749205410586598 $234 30.945654533639626 $139 $235 forward 7 unknown #
face $-1 $236 $237 $32 $-1 $238 reversed single #
loop $-1 $-1 $239 $88 #
plane-surface $-1 0 0 -9.8003683673598232 0 0 1 1 0 0 forward_v I I I I #
coedge $-1 $240 $241 $242 $243 forward $89 $-1 #
coedge $-1 $242 $91 $244 $245 reversed $57 $-1 #
coedge $-1 $91 $242 $246 $247 reversed $57 $-1 #
coedge $-1 $248 $249 $91 $148 forward $237 $-1 #
edge $-1 $250 -9.8003683673598232 $251 9.8003683673598232 $147 $252 forward 7 unknown #
face $-1 $253 $254 $33 $-1 $255 reversed single #
loop $-1 $-1 $155 $92 #
plane-surface $-1 0 0 9.8003683673598232 0 0 1 1 0 0 forward_v I I I I #
coedge $-1 $256 $257 $258 $259 reversed $93 $-1 #
coedge $-1 $260 $95 $261 $262 reversed $60 $-1 #
coedge $-1 $95 $260 $256 $263 forward $60 $-1 #
coedge $-1 $258 $264 $95 $156 forward $150 $-1 #
edge $-1 $265 -11.79258292220274 $266 -5.4829856100481908 $155 $267 forward 7 unknown #
loop $-1 $-1 $162 $96 #
plane-surface $-1 -59.793084505752745 -17.275568532250929 6.585152387961287 -0.61566148304635926 0 0.78801074757464917 0.78801074757464917 0 0.61566148304635926 forward_v I I I I #
loop $-1 $-1 $268 $62 #
coedge $-1 $160 $160 $161 $269 reversed $97 $-1 #
coedge $-1 $161 $161 $160 $269 forward $99 $-1 #
coedge $-1 $162 $162 $100 $163 forward $157 $-1 #
edge $-1 $270 0 $270 6.2831853071796004 $162 $271 forward 7 unknown #
loop $-1 $-1 $169 $101 #
plane-surface $-1 -59.793084505752745 -17.275568532250929 6.585152387961287 -0.61566148304635926 0 0.78801074757464917 0.78801074757464917 0 0.61566148304635926 forward_v I I I I #
loop $-1 $-1 $272 $65 #
coedge $-1 $167 $167 $168 $273 reversed $102 $-1 #
coedge $-1 $168 $168 $167 $273 forward $104 $-1 #
coedge $-1 $169 $169 $105 $170 forward $164 $-1 #
edge $-1 $274 0 $274 6.2831853071796004 $169 $275 forward 7 unknown #
loop $-1 $-1 $176 $106 #
plane-surface $-1 -59.793084505752745 -17.275568532250929 6.585152387961287 -0.61566148304635926 0 0.78801074757464917 0.78801074757464917 0 0.61566148304635926 forward_v I I I I #
loop $-1 $-1 $276 $68 #
coedge $-1 $174 $174 $175 $277 reversed $107 $-1 #
coedge $-1 $175 $175 $174 $277 forward $109 $-1 #
coedge $-1 $176 $176 $110 $177 forward $171 $-1 #
edge $-1 $278 0 $278 6.2831853071796004 $176 $279 forward 7 unknown #
face $-1 $280 $281 $37 $-1 $282 reversed single #
loop $-1 $-1 $283 $111 #
plane-surface $-1 77.47098036435824 13.952888298515514 174.02156465680227 0 1 0 0.77714596973225614 0 0.62932038083071107 forward_v I I I I #
coedge $-1 $284 $285 $286 $287 reversed $112 $-1 #
coedge $-1 $183 $114 $288 $289 reversed $72 $-1 #
coedge $-1 $114 $182 $284 $290 reversed $72 $-1 #
coedge $-1 $286 $291 $114 $185 forward $292 $-1 #
edge $-1 $293 -21.057594323573618 $294 -17.840543988540503 $184 $295 forward 7 unknown #
loop $-1 $-1 $191 $115 #
plane-surface $-1 -15.464928918653655 17.191627743421858 98.763551232395869 0.77714596973225614 0 0.62932038083071107 0.62932038083071107 0 -0.77714596973225614 forward_v I I I I #
loop $-1 $-1 $296 $74 #
coedge $-1 $189 $189 $190 $297 reversed $116 $-1 #
coedge $-1 $190 $190 $189 $297 forward $118 $-1 #
coedge $-1 $191 $191 $119 $192 forward $186 $-1 #
edge $-1 $298 0 $298 6.2831853071796004 $191 $299 forward 7 unknown #
loop $-1 $-1 $198 $120 #
plane-surface $-1 -15.464928918653655 17.191627743421858 98.763551232395869 0.77714596973225614 0 0.62932038083071107 0.62932038083071107 0 -0.77714596973225614 forward_v I I I I #
loop $-1 $-1 $300 $77 #
coedge $-1 $196 $196 $197 $301 reversed $121 $-1 #
coedge $-1 $197 $197 $196 $301 forward $123 $-1 #
coedge $-1 $198 $198 $124 $199 forward $193 $-1 #
edge $-1 $302 0 $302 6.2831853071796004 $198 $303 forward 7 unknown #
face $-1 $304 $305 $30 $-1 $306 reversed single #
loop $-1 $-1 $307 $125 #
plane-surface $-1 -59.793084505752738 0 0 1 0 0 0 0 -1 forward_v I I I I #
coedge $-1 $308 $211 $309 $310 forward $126 $-1 #
coedge $-1 $311 $128 $308 $312 forward $81 $-1 #
coedge $-1 $128 $311 $313 $314 forward $81 $-1 #
coedge $-1 $214 $213 $128 $207 reversed $215 $-1 #
edge $-1 $315 -30.601460876631126 $316 30.601460876631126 $206 $317 forward 7 unknown #
coedge $-1 $130 $129 $318 $319 forward $51 $-1 #
coedge $-1 $320 $321 $129 $210 reversed $305 $-1 #
edge $-1 $217 -59.793084505752738 $322 59.793084505752738 $209 $323 forward 7 unknown #
coedge $-1 $203 $324 $130 $212 reversed $126 $-1 #
edge $-1 $325 -59.793084505752738 $216 59.793084505752738 $211 $326 forward 7 unknown #
coedge $-1 $206 $131 $324 $327 forward $215 $-1 #
coedge $-1 $131 $206 $320 $328 reversed $215 $-1 #
loop $-1 $-1 $213 $304 #
vertex $-1 $132 $329 #
vertex $-1 $132 $330 #
straight-curve $-1 59.793084505752738 0 9.8003683673598232 0 1 0 I I #
face $-1 $331 $332 $31 $-1 $333 reversed single #
loop $-1 $-1 $230 $133 #
plane-surface $-1 -59.793084505752738 0 0 1 0 0 0 0 -1 forward_v I I I I #
coedge $-1 $139 $334 $224 $335 forward $134 $-1 #
coedge $-1 $228 $136 $336 $337 reversed $85 $-1 #
coedge $-1 $136 $228 $222 $335 reversed $85 $-1 #
coedge $-1 $338 $339 $136 $226 forward $340 $-1 #
edge $-1 $341 -9.8003683673598232 $342 9.8003683673598232 $225 $343 forward 7 unknown #
coedge $-1 $138 $137 $344 $345 reversed $54 $-1 #
coedge $-1 $224 $223 $137 $229 reversed $85 $-1 #
edge $-1 $233 -9.8003683673598232 $346 9.8003683673598232 $228 $347 forward 7 unknown #
coedge $-1 $348 $349 $138 $231 forward $220 $-1 #
edge $-1 $234 -9.8003683673598232 $350 9.8003683673598232 $230 $351 forward 7 unknown #
coedge $-1 $334 $139 $349 $352 forward $134 $-1 #
vertex $-1 $140 $353 #
vertex $-1 $352 $354 #
straight-curve $-1 -28.847429972113112 -20.430367188328205 9.8003683673598232 -1 0 0 I I #
face $-1 $355 $356 $32 $-1 $357 forward single #
loop $-1 $-1 $147 $141 #
plane-surface $-1 -59.793084505752738 0 0 1 0 0 0 0 -1 forward_v I I I I #
coedge $-1 $244 $358 $240 $359 forward $142 $-1 #
coedge $-1 $360 $144 $239 $359 reversed $89 $-1 #
coedge $-1 $144 $360 $361 $362 reversed $89 $-1 #
coedge $-1 $146 $145 $144 $243 reversed $57 $-1 #
edge $-1 $363 -9.8003683673598232 $364 9.8003683673598232 $144 $365 forward 7 unknown #
coedge $-1 $366 $239 $145 $245 forward $142 $-1 #
edge $-1 $364 26.749205410586598 $250 30.945654533639626 $244 $367 forward 7 unknown #
coedge $-1 $361 $368 $146 $247 forward $356 $-1 #
edge $-1 $251 -30.945654533639626 $363 -26.749205410586598 $246 $369 forward 7 unknown #
coedge $-1 $370 $147 $368 $371 reversed $237 $-1 #
coedge $-1 $147 $370 $366 $372 reversed $237 $-1 #
vertex $-1 $372 $373 #
vertex $-1 $148 $374 #
straight-curve $-1 -59.793084505752738 20.430367188328205 0 0 0 1 I I #
face $-1 $-1 $375 $33 $-1 $376 forward single #
loop $-1 $-1 $377 $149 #
plane-surface $-1 -59.793084505752738 0 0 1 0 0 0 0 -1 forward_v I I I I #
coedge $-1 $257 $152 $154 $263 reversed $93 $-1 #
coedge $-1 $152 $256 $378 $379 reversed $93 $-1 #
coedge $-1 $380 $155 $152 $259 forward $150 $-1 #
edge $-1 $266 -11.031045535266756 $381 -6.9157568298516523 $258 $382 forward 7 unknown #
coedge $-1 $154 $153 $377 $383 reversed $60 $-1 #
coedge $-1 $384 $385 $153 $262 forward $375 $-1 #
edge $-1 $386 1.2004005899752646 $265 6.422776957405782 $261 $387 forward 7 unknown #
edge $-1 $388 8.8800565823946346e-015 $266 5.2223763674305266 $256 $389 forward 7 unknown #
coedge $-1 $155 $380 $384 $390 forward $150 $-1 #
vertex $-1 $156 $391 #
vertex $-1 $156 $392 #
straight-curve $-1 -55.677795800337634 -8.6377842661254647 9.8003683673598214 0 1 0 I I #
coedge $-1 $268 $268 $-1 $393 reversed $159 $-1 #
edge $-1 $394 0 $394 6.2831853071796004 $160 $395 forward 7 unknown #
vertex $-1 $163 $396 #
ellipse-curve $-1 -57.73544015304519 -19.168447725897295 8.1927603776605586 -0.61566148304635926 0 0.78801074757464917 0.19700268689366229 0 0.15391537076158981 1 I I #
coedge $-1 $272 $272 $-1 $397 reversed $166 $-1 #
edge $-1 $398 0 $398 6.2831853071796004 $167 $399 forward 7 unknown #
vertex $-1 $170 $400 #
ellipse-curve $-1 -57.73544015304519 -17.275568532250933 8.1927603776605586 -0.61566148304635926 0 0.78801074757464917 0.19700268689366229 0 0.15391537076158981 1 I I #
coedge $-1 $276 $276 $-1 $401 reversed $173 $-1 #
edge $-1 $402 0 $402 6.2831853071796004 $174 $403 forward 7 unknown #
vertex $-1 $177 $404 #
ellipse-curve $-1 -57.73544015304519 -15.382689338604569 8.1927603776605586 -0.61566148304635926 0 0.78801074757464917 0.19700268689366229 0 0.15391537076158981 1 I I #
face $-1 $-1 $292 $37 $-1 $405 forward single #
loop $-1 $-1 $406 $178 #
plane-surface $-1 59.793084505752738 0 0 -1 0 0 0 0 1 forward_v I I I I #
coedge $-1 $407 $408 $409 $410 reversed $179 $-1 #
coedge $-1 $411 $181 $183 $290 forward $112 $-1 #
coedge $-1 $181 $411 $407 $412 forward $112 $-1 #
coedge $-1 $409 $184 $181 $287 forward $292 $-1 #
edge $-1 $294 -11.834553316617273 $413 -5.3570744268045853 $286 $414 forward 7 unknown #
coedge $-1 $415 $416 $182 $289 forward $281 $-1 #
edge $-1 $417 -81.183140379017146 $293 -77.210413961041311 $288 $418 forward 7 unknown #
edge $-1 $294 114.47422534493207 $417 119.58616901150546 $183 $419 forward 7 unknown #
coedge $-1 $184 $409 $415 $420 forward $292 $-1 #
loop $-1 $-1 $409 $280 #
vertex $-1 $289 $421 #
vertex $-1 $185 $422 #
straight-curve $-1 38.73549018217912 20.430367188328201 9.8003683673598232 -1 0 0 I I #
coedge $-1 $296 $296 $-1 $423 reversed $188 $-1 #
edge $-1 $424 0 $424 6.2831853071796004 $189 $425 forward 7 unknown #
vertex $-1 $192 $426 #
ellipse-curve $-1 58.184559338236184 15.80359655274771 7.8140051583718941 0.77714596973225614 0 0.62932038083071107 0.31466019041535553 0 -0.38857298486612807 1 I I #
coedge $-1 $300 $300 $-1 $427 reversed $195 $-1 #
edge $-1 $428 0 $428 6.2831853071796004 $196 $429 forward 7 unknown #
vertex $-1 $199 $430 #
ellipse-curve $-1 58.184559338236184 18.579658934096006 7.8140051583718941 0.77714596973225614 0 0.62932038083071107 0.31466019041535553 0 -0.38857298486612807 1 I I #
face $-1 $-1 $215 $30 $-1 $431 reversed single #
loop $-1 $-1 $320 $200 #
plane-surface $-1 0 30.601460876631126 0 0 -1 0 0 0 -1 forward_v I I I I #
coedge $-1 $432 $318 $321 $433 forward $201 $-1 #
coedge $-1 $324 $203 $204 $312 reversed $126 $-1 #
coedge $-1 $318 $432 $203 $310 reversed $201 $-1 #
edge $-1 $325 -9.8003683673598232 $434 9.8003683673598232 $309 $435 forward 7 unknown #
coedge $-1 $205 $204 $432 $436 forward $81 $-1 #
edge $-1 $316 -59.793084505752738 $434 59.793084505752738 $308 $437 forward 7 unknown #
coedge $-1 $321 $320 $205 $314 reversed $305 $-1 #
edge $-1 $438 -59.793084505752738 $315 59.793084505752738 $313 $439 forward 7 unknown #
vertex $-1 $207 $440 #
vertex $-1 $327 $441 #
straight-curve $-1 59.793084505752738 0 -9.8003683673598232 0 -1 0 I I #
coedge $-1 $307 $309 $208 $319 reversed $201 $-1 #
edge $-1 $322 -30.601460876631126 $325 30.601460876631126 $318 $442 forward 7 unknown #
coedge $-1 $313 $209 $214 $328 forward $305 $-1 #
coedge $-1 $209 $313 $307 $433 reversed $305 $-1 #
vertex $-1 $210 $443 #
straight-curve $-1 0 30.601460876631126 9.8003683673598232 -1 0 0 I I #
coedge $-1 $211 $308 $213 $327 reversed $126 $-1 #
vertex $-1 $319 $444 #
straight-curve $-1 0 -30.601460876631126 9.8003683673598232 1 0 0 I I #
edge $-1 $216 -9.8003683673598232 $316 9.8003683673598232 $213 $445 forward 7 unknown #
edge $-1 $217 -9.8003683673598232 $315 9.8003683673598232 $214 $446 forward 7 unknown #
point $-1 59.793084505752738 -30.601460876631126 9.8003683673598232 #
point $-1 59.793084505752738 30.601460876631126 9.8003683673598232 #
face $-1 $-1 $340 $31 $-1 $447 reversed single #
loop $-1 $-1 $336 $219 #
plane-surface $-1 0 0 -9.8003683673598232 0 0 1 1 0 0 forward_v I I I I #
coedge $-1 $222 $232 $338 $448 forward $134 $-1 #
edge $-1 $342 -17.843503860391291 $233 -7.6724101720883731 $222 $449 forward 7 unknown #
coedge $-1 $450 $344 $223 $337 forward $332 $-1 #
edge $-1 $346 7.6724101720883731 $341 17.843503860391291 $336 $451 forward 7 unknown #
coedge $-1 $452 $225 $334 $448 reversed $340 $-1 #
coedge $-1 $225 $452 $450 $453 reversed $340 $-1 #
loop $-1 $-1 $225 $331 #
vertex $-1 $453 $454 #
vertex $-1 $226 $455 #
straight-curve $-1 -55.596635382699709 -30.601460876631126 0 0 0 1 I I #
coedge $-1 $336 $456 $227 $345 forward $332 $-1 #
edge $-1 $350 -30.945654533639626 $346 -26.749205410586598 $344 $457 forward 7 unknown #
vertex $-1 $345 $458 #
straight-curve $-1 -55.596635382699709 -20.430367188328205 0 0 0 -1 I I #
coedge $-1 $459 $230 $456 $460 reversed $220 $-1 #
coedge $-1 $230 $459 $232 $352 reversed $220 $-1 #
vertex $-1 $345 $461 #
straight-curve $-1 -59.793084505752738 -20.430367188328205 0 0 0 -1 I I #
edge $-1 $234 20.430367188328205 $462 30.601460876631126 $349 $463 forward 7 unknown #
point $-1 -55.596635382699709 -20.430367188328205 9.8003683673598232 #
point $-1 -59.793084505752738 -20.430367188328205 9.8003683673598232 #
face $-1 $-1 $464 $32 $-1 $465 reversed single #
loop $-1 $-1 $361 $236 #
plane-surface $-1 0 0 9.8003683673598232 0 0 1 1 0 0 forward_v I I I I #
coedge $-1 $239 $366 $466 $467 forward $142 $-1 #
edge $-1 $468 -17.843503860391294 $364 -7.6724101720883713 $239 $469 forward 7 unknown #
coedge $-1 $241 $240 $470 $471 reversed $89 $-1 #
coedge $-1 $472 $246 $241 $362 forward $356 $-1 #
edge $-1 $363 7.6724101720883713 $473 17.843503860391294 $361 $474 forward 7 unknown #
vertex $-1 $247 $475 #
vertex $-1 $245 $476 #
straight-curve $-1 -55.596635382699709 20.430367188328205 0 0 0 -1 I I #
coedge $-1 $358 $244 $249 $372 forward $142 $-1 #
straight-curve $-1 -28.847429972113112 20.430367188328205 -9.8003683673598232 -1 0 0 I I #
coedge $-1 $246 $472 $248 $371 forward $356 $-1 #
straight-curve $-1 -28.847429972113112 20.430367188328205 9.8003683673598232 1 0 0 I I #
coedge $-1 $249 $248 $477 $478 forward $237 $-1 #
edge $-1 $479 -30.601460876631126 $251 -20.430367188328205 $248 $480 forward 7 unknown #
edge $-1 $250 20.430367188328205 $481 30.601460876631126 $249 $482 forward 7 unknown #
point $-1 -59.793084505752738 20.430367188328205 -9.8003683673598232 #
point $-1 -59.793084505752738 20.430367188328205 9.8003683673598232 #
loop $-1 $-1 $261 $253 #
plane-surface $-1 -57.694859944226224 -20.430367188328205 0 0 -1 0 0 0 -1 forward_v I I I I #
coedge $-1 $483 $378 $260 $383 forward $254 $-1 #
coedge $-1 $377 $484 $257 $379 forward $254 $-1 #
edge $-1 $381 40.609801047793205 $388 43.825017027191734 $378 $485 forward 7 unknown #
coedge $-1 $264 $258 $484 $486 forward $150 $-1 #
vertex $-1 $486 $487 #
straight-curve $-1 -66.70884133560439 -14.120769876173656 9.8003683673598232 -1 0 0 I I #
edge $-1 $388 5.4829856100481908 $386 11.79258292220274 $377 $488 forward 7 unknown #
coedge $-1 $385 $261 $264 $390 reversed $375 $-1 #
coedge $-1 $261 $384 $483 $489 reversed $375 $-1 #
vertex $-1 $489 $490 #
straight-curve $-1 -60.739013072048195 -20.430367188328205 5.8461119804873949 0.78801074757464917 0 0.61566148304635926 I I #
vertex $-1 $383 $491 #
straight-curve $-1 -59.793084505752745 -14.120769876173656 6.585152387961287 0.78801074757464917 0 0.61566148304635926 I I #
edge $-1 $492 -30.945654533639626 $265 -26.830365828224522 $264 $493 forward 7 unknown #
point $-1 -55.677795800337634 -20.430367188328205 9.8003683673598232 #
point $-1 -55.677795800337634 -14.120769876173656 9.8003683673598232 #
edge $-1 $494 1 $494 0 $268 $-1 forward 7 unknown #
vertex $-1 $269 $495 #
ellipse-curve $-1 -57.119778669998823 -19.168447725897295 7.4047496300858988 -0.61566148304635926 0 0.78801074757464917 0.19700268689366229 0 0.15391537076158981 1 I I #
point $-1 -57.538437466151514 -19.168447725897295 8.3466757484221379 #
edge $-1 $496 1 $496 0 $272 $-1 forward 7 unknown #
vertex $-1 $273 $497 #
ellipse-curve $-1 -57.119778669998823 -17.275568532250933 7.4047496300858988 -0.61566148304635926 0 0.78801074757464917 0.19700268689366229 0 0.15391537076158981 1 I I #
point $-1 -57.538437466151514 -17.275568532250933 8.3466757484221379 #
edge $-1 $498 1 $498 0 $276 $-1 forward 7 unknown #
vertex $-1 $277 $499 #
ellipse-curve $-1 -57.119778669998823 -15.382689338604569 7.4047496300858988 -0.61566148304635926 0 0.78801074757464917 0.19700268689366229 0 0.15391537076158981 1 I I #
point $-1 -57.538437466151514 -15.382689338604569 8.3466757484221379 #
plane-surface $-1 0 0 9.8003683673598232 0 0 1 1 0 0 forward_v I I I I #
coedge $-1 $416 $415 $408 $500 forward $281 $-1 #
coedge $-1 $408 $283 $285 $412 reversed $179 $-1 #
coedge $-1 $283 $407 $406 $500 reversed $179 $-1 #
coedge $-1 $291 $286 $283 $410 forward $292 $-1 #
edge $-1 $413 17.840543988540503 $501 21.057594323573618 $409 $502 forward 7 unknown #
coedge $-1 $285 $284 $416 $503 reversed $112 $-1 #
edge $-1 $504 -119.58616901150546 $413 -114.47422534493207 $407 $505 forward 7 unknown #
vertex $-1 $287 $506 #
straight-curve $-1 56.576034170719623 8.5958138717109289 9.8003683673598303 0 -1 0 I I #
coedge $-1 $406 $288 $291 $420 reversed $281 $-1 #
coedge $-1 $288 $406 $411 $503 forward $281 $-1 #
vertex $-1 $289 $507 #
straight-curve $-1 59.793084505752738 20.430367188328201 87.010782328401135 0 0 1 I I #
straight-curve $-1 -15.464928918653655 20.430367188328201 98.763551232395869 0.62932038083071107 0 -0.77714596973225614 I I #
edge $-1 $501 13.952888298515514 $293 20.430367188328201 $415 $508 forward 7 unknown #
point $-1 59.793084505752738 20.430367188328201 9.8003683673598232 #
point $-1 56.576034170719623 20.430367188328201 9.8003683673598232 #
edge $-1 $509 1 $509 0 $296 $-1 forward 7 unknown #
vertex $-1 $297 $510 #
ellipse-curve $-1 56.718958379142585 15.80359655274771 6.6271849345722362 0.77714596973225614 0 0.62932038083071107 0.31466019041535553 0 -0.38857298486612807 1 I I #
point $-1 58.499219528651537 15.80359655274771 7.4254321735057651 #
edge $-1 $511 1 $511 0 $300 $-1 forward 7 unknown #
vertex $-1 $301 $512 #
ellipse-curve $-1 56.718958379142585 18.579658934096006 6.6271849345722362 0.77714596973225614 0 0.62932038083071107 0.31466019041535553 0 -0.38857298486612807 1 I I #
point $-1 58.499219528651537 18.579658934096006 7.4254321735057651 #
plane-surface $-1 59.793084505752738 0 0 -1 0 0 0 0 1 forward_v I I I I #
coedge $-1 $309 $307 $311 $436 reversed $201 $-1 #
edge $-1 $322 -9.8003683673598232 $438 9.8003683673598232 $321 $513 forward 7 unknown #
vertex $-1 $436 $514 #
straight-curve $-1 -59.793084505752738 -30.601460876631126 0 0 0 -1 I I #
edge $-1 $434 -30.601460876631126 $438 30.601460876631126 $432 $515 forward 7 unknown #
straight-curve $-1 0 -30.601460876631126 -9.8003683673598232 -1 0 0 I I #
vertex $-1 $314 $516 #
straight-curve $-1 0 30.601460876631126 -9.8003683673598232 1 0 0 I I #
point $-1 59.793084505752738 30.601460876631126 -9.8003683673598232 #
point $-1 59.793084505752738 -30.601460876631126 -9.8003683673598232 #
straight-curve $-1 -59.793084505752738 0 9.8003683673598232 0 -1 0 I I #
point $-1 -59.793084505752738 30.601460876631126 9.8003683673598232 #
point $-1 -59.793084505752738 -30.601460876631126 9.8003683673598232 #
straight-curve $-1 59.793084505752738 -30.601460876631126 0 0 0 -1 I I #
straight-curve $-1 59.793084505752738 30.601460876631126 0 0 0 -1 I I #
plane-surface $-1 0 -30.601460876631126 0 0 1 0 0 0 1 forward_v I I I I #
edge $-1 $462 -59.793084505752738 $342 -55.596635382699709 $338 $517 forward 7 unknown #
straight-curve $-1 -55.596635382699709 -12.757957016239832 9.8003683673598232 0 1 0 I I #
coedge $-1 $456 $336 $339 $453 forward $332 $-1 #
straight-curve $-1 -55.596635382699709 -12.757957016239832 -9.8003683673598232 0 -1 0 I I #
coedge $-1 $339 $338 $459 $518 forward $340 $-1 #
edge $-1 $341 55.596635382699709 $519 59.793084505752738 $339 $520 forward 7 unknown #
point $-1 -55.596635382699709 -30.601460876631123 -9.8003683673598232 #
point $-1 -55.596635382699709 -30.601460876631123 9.8003683673598232 #
coedge $-1 $344 $450 $348 $460 forward $332 $-1 #
straight-curve $-1 -28.847429972113112 -20.430367188328205 -9.8003683673598232 1 0 0 I I #
point $-1 -55.596635382699709 -20.430367188328205 -9.8003683673598232 #
coedge $-1 $349 $348 $452 $518 reversed $220 $-1 #
edge $-1 $519 -30.601460876631126 $350 -20.430367188328205 $348 $521 forward 7 unknown #
point $-1 -59.793084505752738 -20.430367188328205 -9.8003683673598232 #
vertex $-1 $352 $522 #
straight-curve $-1 -59.793084505752738 0 9.8003683673598232 0 -1 0 I I #
loop $-1 $-1 $470 $355 #
plane-surface $-1 0 30.601460876631126 0 0 -1 0 0 0 -1 forward_v I I I I #
coedge $-1 $477 $470 $358 $467 reversed $464 $-1 #
edge $-1 $481 -59.793084505752738 $468 -55.596635382699709 $466 $523 forward 7 unknown #
vertex $-1 $359 $524 #
straight-curve $-1 -55.596635382699709 12.757957016239834 -9.8003683673598232 0 -1 0 I I #
coedge $-1 $466 $525 $360 $471 forward $464 $-1 #
edge $-1 $473 -9.8003683673598232 $468 9.8003683673598232 $470 $526 forward 7 unknown #
coedge $-1 $368 $361 $525 $527 forward $356 $-1 #
vertex $-1 $527 $528 #
straight-curve $-1 -55.596635382699709 12.757957016239834 9.8003683673598232 0 1 0 I I #
point $-1 -55.596635382699709 20.430367188328205 9.8003683673598232 #
point $-1 -55.596635382699709 20.430367188328205 -9.8003683673598232 #
coedge $-1 $525 $466 $370 $478 reversed $464 $-1 #
edge $-1 $479 -9.8003683673598232 $481 9.8003683673598232 $477 $529 forward 7 unknown #
vertex $-1 $527 $530 #
straight-curve $-1 -59.793084505752738 0 9.8003683673598232 0 -1 0 I I #
vertex $-1 $467 $531 #
straight-curve $-1 -59.793084505752738 0 -9.8003683673598232 0 1 0 I I #
coedge $-1 $484 $377 $385 $489 forward $254 $-1 #
coedge $-1 $378 $483 $380 $486 reversed $254 $-1 #
straight-curve $-1 -59.793084505752738 -14.120769876173656 50.410169415153028 0 0 -1 I I #
edge $-1 $381 14.120769876173656 $492 20.430367188328205 $484 $532 forward 7 unknown #
point $-1 -59.793084505752738 -14.120769876173656 9.8003683673598232 #
straight-curve $-1 -59.793084505752738 -8.6377842661254647 6.585152387961295 0 -1 0 I I #
edge $-1 $386 6.5851523879612923 $492 9.8003683673598232 $483 $533 forward 7 unknown #
point $-1 -59.793084505752738 -20.430367188328205 6.5851523879612923 #
point $-1 -59.793084505752738 -14.120769876173656 6.5851523879612923 #
vertex $-1 $489 $534 #
straight-curve $-1 -28.847429972113112 -20.430367188328205 9.8003683673598232 1 0 0 I I #
vertex $-1 $393 $535 #
point $-1 -56.922775983105154 -19.168447725897295 7.5586650008474887 #
vertex $-1 $397 $536 #
point $-1 -56.922775983105154 -17.275568532250933 7.5586650008474887 #
vertex $-1 $401 $537 #
point $-1 -56.922775983105154 -15.382689338604569 7.5586650008474887 #
edge $-1 $501 77.210413961041311 $504 81.183140379017146 $406 $538 forward 7 unknown #
vertex $-1 $420 $539 #
straight-curve $-1 38.73549018217912 13.952888298515514 9.8003683673598232 1 0 0 I I #
edge $-1 $504 5.3570744268045853 $417 11.834553316617273 $416 $540 forward 7 unknown #
vertex $-1 $503 $541 #
straight-curve $-1 -15.464928918653655 13.952888298515514 98.763551232395869 -0.62932038083071107 0 0.77714596973225614 I I #
point $-1 56.576034170719623 13.952888298515514 9.8003683673598232 #
point $-1 59.793084505752731 20.430367188328201 5.8276419493839882 #
straight-curve $-1 59.793084505752738 0 9.8003683673598232 0 1 0 I I #
vertex $-1 $423 $542 #
point $-1 57.033618569557937 15.80359655274771 6.2386119497061081 #
vertex $-1 $427 $543 #
point $-1 57.033618569557937 18.579658934096006 6.2386119497061081 #
straight-curve $-1 -59.793084505752738 30.601460876631126 0 0 0 -1 I I #
point $-1 -59.793084505752738 -30.601460876631126 -9.8003683673598232 #
straight-curve $-1 -59.793084505752738 0 -9.8003683673598232 0 1 0 I I #
point $-1 -59.793084505752738 30.601460876631126 -9.8003683673598232 #
straight-curve $-1 0 -30.601460876631126 9.8003683673598232 1 0 0 I I #
edge $-1 $462 -9.8003683673598232 $519 9.8003683673598232 $459 $544 forward 7 unknown #
vertex $-1 $460 $545 #
straight-curve $-1 0 -30.601460876631126 -9.8003683673598232 -1 0 0 I I #
straight-curve $-1 -59.793084505752738 0 -9.8003683673598232 0 1 0 I I #
point $-1 -59.793084505752738 -30.601460876631126 9.8003683673598232 #
straight-curve $-1 0 30.601460876631126 -9.8003683673598232 1 0 0 I I #
point $-1 -55.596635382699709 30.60146087663113 -9.8003683673598232 #
coedge $-1 $470 $477 $472 $527 reversed $464 $-1 #
straight-curve $-1 -55.596635382699709 30.601460876631126 0 0 0 -1 I I #
edge $-1 $473 55.596635382699709 $479 59.793084505752738 $525 $546 forward 7 unknown #
point $-1 -55.596635382699709 30.60146087663113 9.8003683673598232 #
straight-curve $-1 -59.793084505752738 30.601460876631126 0 0 0 -1 I I #
point $-1 -59.793084505752738 30.601460876631126 9.8003683673598232 #
point $-1 -59.793084505752738 30.601460876631126 -9.8003683673598232 #
straight-curve $-1 -59.793084505752738 0 9.8003683673598232 0 -1 0 I I #
straight-curve $-1 -59.793084505752738 -20.430367188328205 0 0 0 1 I I #
point $-1 -59.793084505752738 -20.430367188328205 9.8003683673598232 #
point $-1 -56.965863299237228 -19.168447725897295 7.2077469431922374 #
point $-1 -56.965863299237228 -17.275568532250933 7.2077469431922374 #
point $-1 -56.965863299237228 -15.382689338604569 7.2077469431922374 #
straight-curve $-1 59.793084505752738 13.952888298515514 87.010782328401135 0 0 -1 I I #
point $-1 59.793084505752738 13.952888298515514 9.8003683673598232 #
straight-curve $-1 59.793084505752738 8.5958138717109289 5.8276419493839953 0 1 0 I I #
point $-1 59.793084505752731 13.952888298515514 5.8276419493839882 #
point $-1 56.330385394276455 15.80359655274771 6.3125247441568799 #
point $-1 56.330385394276455 18.579658934096006 6.3125247441568799 #
straight-curve $-1 -59.793084505752738 -30.601460876631126 0 0 0 -1 I I #
point $-1 -59.793084505752738 -30.601460876631126 -9.8003683673598232 #
straight-curve $-1 0 30.601460876631126 9.8003683673598232 -1 0 0 I I #
End-of-ACIS-data 