500 0 6 0           
7 Unknown 11 ACIS 5.0 NT 24 Thu Mar 25 16:56:57 1999 
-1 9.9999999999999995e-007 1e-010 
body $-1 $6 $-1 $7 #
body $-1 $8 $-1 $9 #
body $-1 $10 $-1 $11 #
body $-1 $12 $-1 $13 #
body $-1 $14 $-1 $15 #
body $-1 $16 $-1 $17 #
lump $-1 $-1 $18 $0 #
transform $-1 1 0 0 0 1 0 0 0 1 70.519730216376232 46.674045264307779 9.7040193111247035 1 rotate no_reflect no_shear #
lump $-1 $-1 $19 $1 #
transform $-1 1 0 0 0 1 0 0 0 1 70.519730216376232 46.674045264307779 9.7040193111247035 1 rotate no_reflect no_shear #
lump $-1 $-1 $20 $2 #
transform $-1 1 0 0 0 1 0 0 0 1 70.519730216376232 46.674045264307779 9.7040193111247035 1 rotate no_reflect no_shear #
lump $-1 $-1 $21 $3 #
transform $-1 1 0 0 0 1 0 0 0 1 70.519730216376232 46.674045264307779 9.7040193111247035 1 rotate no_reflect no_shear #
lump $-1 $-1 $22 $4 #
transform $-1 1 0 0 0 1 0 0 0 1 70.519730216376232 46.674045264307779 9.7040193111247035 1 rotate no_reflect no_shear #
lump $-1 $-1 $23 $5 #
transform $-1 1 0 0 0 1 0 0 0 1 70.519730216376232 46.674045264307779 9.7040193111247035 1 rotate no_reflect no_shear #
shell $-1 $-1 $-1 $24 $-1 $6 #
shell $-1 $-1 $-1 $25 $-1 $8 #
shell $-1 $-1 $-1 $26 $-1 $10 #
shell $-1 $-1 $-1 $27 $-1 $12 #
shell $-1 $-1 $-1 $28 $-1 $14 #
shell $-1 $-1 $-1 $29 $-1 $16 #
face $-1 $30 $31 $18 $-1 $32 reversed single #
face $-1 $33 $34 $19 $-1 $35 forward single #
face $-1 $36 $37 $20 $-1 $38 forward single #
face $-1 $39 $40 $21 $-1 $41 reversed single #
face $-1 $42 $43 $22 $-1 $44 forward single #
face $-1 $45 $46 $23 $-1 $47 forward single #
face $-1 $48 $49 $18 $-1 $50 forward single #
loop $-1 $-1 $51 $24 #
plane-surface $-1 0 -46.674045264307779 0 0 1 0 0 0 1 forward_v I I I I #
face $-1 $52 $53 $19 $-1 $54 reversed single #
loop $-1 $-1 $55 $25 #
plane-surface $-1 0 -46.674045264307779 0 0 1 0 0 0 1 forward_v I I I I #
face $-1 $56 $57 $20 $-1 $58 reversed single #
loop $-1 $-1 $59 $26 #
plane-surface $-1 0 43.153704730539431 -3.1031340993996297 0 0 1 1 0 0 forward_v I I I I #
face $-1 $60 $61 $21 $-1 $62 reversed single #
loop $-1 $-1 $63 $27 #
plane-surface $-1 42.760276826864043 1.7160816918148178 202.02196068801027 0 -1 0 -0.6018150307709319 0 -0.79863550430605224 forward_v I I I I #
face $-1 $64 $65 $22 $-1 $66 forward single #
loop $-1 $67 $68 $28 #
cone-surface $-1 66.282104811728487 -5.3019284452132354 6.0595471797932365 -0.6018150307709319 0 -0.79863550430605224 0.79863550430605224 0 -0.6018150307709319 1 I I 0 1 1 forward I I I I #
face $-1 $69 $70 $23 $-1 $71 forward single #
loop $-1 $72 $73 $29 #
cone-surface $-1 66.282104811728487 -1.0911223629964013 6.0595471797932365 -0.6018150307709319 0 -0.79863550430605224 0.79863550430605224 0 -0.6018150307709319 1 I I 0 1 1 forward I I I I #
face $-1 $74 $75 $18 $-1 $76 reversed single #
loop $-1 $-1 $77 $30 #
plane-surface $-1 0 0 9.7040193111247035 0 0 1 1 0 0 forward_v I I I I #
coedge $-1 $78 $79 $80 $81 reversed $31 $-1 #
face $-1 $82 $83 $19 $-1 $84 reversed single #
loop $-1 $-1 $85 $33 #
plane-surface $-1 0 0 -9.7040193111247035 0 0 1 1 0 0 forward_v I I I I #
coedge $-1 $86 $87 $88 $89 forward $34 $-1 #
face $-1 $90 $91 $20 $-1 $92 reversed single #
loop $-1 $-1 $93 $36 #
plane-surface $-1 0 43.153704730539431 -6.1031340993996297 0 0 1 1 0 0 forward_v I I I I #
coedge $-1 $94 $95 $96 $97 reversed $37 $-1 #
face $-1 $98 $99 $21 $-1 $100 reversed single #
loop $-1 $-1 $101 $39 #
plane-surface $-1 -42.119390393388514 -3.1965254041048183 89.382840078245508 0.6018150307709319 0 0.79863550430605224 0.79863550430605224 0 -0.6018150307709319 forward_v I I I I #
coedge $-1 $102 $103 $104 $105 reversed $40 $-1 #
face $-1 $-1 $106 $22 $-1 $107 forward single #
loop $-1 $108 $109 $42 #
cone-surface $-1 65.194450000035644 -5.3019284452132354 4.6161805228746218 -0.6018150307709319 0 -0.79863550430605224 0.39931775215302612 0 -0.30090751538546595 1 I I -0.70710678118654746 0.70710678118654746 0.5 forward I I I I #
loop $-1 $-1 $110 $28 #
coedge $-1 $68 $68 $111 $112 reversed $43 $-1 #
face $-1 $-1 $113 $23 $-1 $114 forward single #
loop $-1 $115 $116 $45 #
cone-surface $-1 65.194450000035644 -1.0911223629964013 4.6161805228746218 -0.6018150307709319 0 -0.79863550430605224 0.39931775215302612 0 -0.30090751538546595 1 I I -0.70710678118654746 0.70710678118654746 0.5 forward I I I I #
loop $-1 $-1 $117 $29 #
coedge $-1 $73 $73 $118 $119 reversed $46 $-1 #
face $-1 $120 $121 $18 $-1 $122 reversed single #
loop $-1 $-1 $123 $48 #
plane-surface $-1 0 0 -9.7040193111247035 0 0 1 1 0 0 forward_v I I I I #
coedge $-1 $124 $125 $126 $127 forward $49 $-1 #
coedge $-1 $128 $51 $129 $130 reversed $31 $-1 #
coedge $-1 $51 $128 $131 $132 forward $31 $-1 #
coedge $-1 $133 $123 $51 $81 forward $75 $-1 #
edge $-1 $134 -70.519730216376232 $135 70.519730216376232 $51 $136 forward 7 unknown #
face $-1 $137 $138 $19 $-1 $139 reversed single #
loop $-1 $-1 $140 $52 #
plane-surface $-1 -60.244106056248029 -55.834299511277806 0 0 1 0 0 0 1 forward_v I I I I #
coedge $-1 $141 $142 $87 $143 forward $53 $-1 #
coedge $-1 $144 $55 $145 $146 reversed $34 $-1 #
coedge $-1 $55 $144 $85 $143 reversed $34 $-1 #
coedge $-1 $147 $148 $55 $89 reversed $138 $-1 #
edge $-1 $149 -9.7040193111247035 $150 9.7040193111247035 $88 $151 forward 7 unknown #
face $-1 $152 $153 $20 $-1 $154 reversed single #
loop $-1 $-1 $155 $56 #
plane-surface $-1 0 39.633364196771076 -4.6031340993996297 0 1 0 0 0 1 forward_v I I I I #
coedge $-1 $156 $157 $158 $159 reversed $57 $-1 #
coedge $-1 $160 $59 $161 $162 reversed $37 $-1 #
coedge $-1 $59 $160 $163 $164 forward $37 $-1 #
coedge $-1 $165 $166 $59 $97 forward $167 $-1 #
edge $-1 $168 -25.09719289903807 $169 -18.056511831501361 $96 $170 forward 7 unknown #
face $-1 $171 $172 $21 $-1 $173 forward single #
loop $-1 $-1 $174 $60 #
plane-surface $-1 42.760276826864043 -8.1091325000244545 202.02196068801027 0 1 0 0.6018150307709319 0 0.79863550430605224 forward_v I I I I #
coedge $-1 $175 $176 $177 $178 reversed $61 $-1 #
coedge $-1 $103 $63 $179 $180 reversed $40 $-1 #
coedge $-1 $63 $102 $175 $181 reversed $40 $-1 #
coedge $-1 $177 $182 $63 $105 forward $172 $-1 #
edge $-1 $183 -49.13959180294421 $184 -42.237835586263444 $104 $185 forward 7 unknown #
loop $-1 $-1 $111 $64 #
plane-surface $-1 -42.119390393388514 -3.1965254041048183 89.382840078245508 0.6018150307709319 0 0.79863550430605224 0.79863550430605224 0 -0.6018150307709319 forward_v I I I I #
loop $-1 $-1 $186 $42 #
coedge $-1 $109 $109 $110 $187 reversed $65 $-1 #
coedge $-1 $110 $110 $109 $187 forward $67 $-1 #
coedge $-1 $111 $111 $68 $112 forward $106 $-1 #
edge $-1 $188 0 $188 6.2831853071796004 $111 $189 forward 7 unknown #
loop $-1 $-1 $118 $69 #
plane-surface $-1 -42.119390393388514 -3.1965254041048183 89.382840078245508 0.6018150307709319 0 0.79863550430605224 0.79863550430605224 0 -0.6018150307709319 forward_v I I I I #
loop $-1 $-1 $190 $45 #
coedge $-1 $116 $116 $117 $191 reversed $70 $-1 #
coedge $-1 $117 $117 $116 $191 forward $72 $-1 #
coedge $-1 $118 $118 $73 $119 forward $113 $-1 #
edge $-1 $192 0 $192 6.2831853071796004 $118 $193 forward 7 unknown #
face $-1 $194 $195 $18 $-1 $196 reversed single #
loop $-1 $-1 $197 $74 #
plane-surface $-1 -70.519730216376232 0 0 1 0 0 0 0 -1 forward_v I I I I #
coedge $-1 $80 $198 $199 $200 forward $75 $-1 #
coedge $-1 $201 $77 $202 $203 forward $49 $-1 #
coedge $-1 $77 $201 $128 $204 forward $49 $-1 #
coedge $-1 $129 $205 $77 $127 reversed $206 $-1 #
edge $-1 $207 -46.674045264307779 $208 46.674045264307779 $126 $209 forward 7 unknown #
coedge $-1 $79 $78 $125 $204 reversed $31 $-1 #
coedge $-1 $199 $126 $78 $130 forward $206 $-1 #
edge $-1 $207 -9.7040193111247035 $134 9.7040193111247035 $129 $210 forward 7 unknown #
coedge $-1 $211 $212 $79 $132 reversed $121 $-1 #
edge $-1 $213 -9.7040193111247035 $135 9.7040193111247035 $131 $214 forward 7 unknown #
coedge $-1 $198 $80 $212 $215 forward $75 $-1 #
vertex $-1 $130 $216 #
vertex $-1 $215 $217 #
straight-curve $-1 0 -46.674045264307779 -9.7040193111247035 -1 0 0 I I #
face $-1 $218 $219 $19 $-1 $220 reversed single #
loop $-1 $-1 $88 $82 #
plane-surface $-1 -61.744106056248029 -51.254172387792792 0 1 0 0 0 0 -1 forward_v I I I I #
coedge $-1 $221 $222 $223 $224 forward $83 $-1 #
coedge $-1 $225 $85 $226 $227 forward $53 $-1 #
coedge $-1 $85 $225 $147 $228 forward $53 $-1 #
edge $-1 $149 -61.744106056248029 $229 -58.744106056248029 $85 $230 forward 7 unknown #
coedge $-1 $87 $86 $231 $232 forward $34 $-1 #
coedge $-1 $233 $234 $86 $146 forward $235 $-1 #
edge $-1 $236 58.744106056248029 $150 61.744106056248029 $145 $237 forward 7 unknown #
coedge $-1 $223 $88 $142 $228 reversed $138 $-1 #
coedge $-1 $88 $223 $233 $238 reversed $138 $-1 #
vertex $-1 $143 $239 #
vertex $-1 $238 $240 #
straight-curve $-1 -61.744106056248029 -46.674045264307779 0 0 0 1 I I #
face $-1 $241 $167 $20 $-1 $242 reversed single #
loop $-1 $-1 $161 $90 #
plane-surface $-1 0 46.674045264307779 0 0 -1 0 0 0 -1 forward_v I I I I #
coedge $-1 $243 $163 $244 $245 reversed $91 $-1 #
coedge $-1 $246 $93 $243 $247 forward $57 $-1 #
coedge $-1 $93 $246 $248 $249 reversed $57 $-1 #
coedge $-1 $166 $165 $93 $159 forward $167 $-1 #
edge $-1 $250 18.056511831501361 $251 25.09719289903807 $158 $252 forward 7 unknown #
coedge $-1 $95 $94 $253 $254 reversed $37 $-1 #
coedge $-1 $255 $256 $94 $162 forward $153 $-1 #
edge $-1 $257 -70.519730216376232 $168 70.519730216376232 $161 $258 forward 7 unknown #
coedge $-1 $155 $259 $95 $164 reversed $91 $-1 #
edge $-1 $260 -70.519730216376232 $169 70.519730216376232 $163 $261 forward 7 unknown #
coedge $-1 $158 $96 $259 $262 forward $167 $-1 #
coedge $-1 $96 $158 $255 $263 reversed $167 $-1 #
loop $-1 $-1 $96 $152 #
vertex $-1 $263 $264 #
vertex $-1 $97 $265 #
straight-curve $-1 70.519730216376232 21.576852365269716 -3.1031340993996297 0 -1 0 I I #
face $-1 $-1 $266 $21 $-1 $267 reversed single #
loop $-1 $-1 $104 $98 #
plane-surface $-1 0 0 9.7040193111247035 0 0 1 1 0 0 forward_v I I I I #
coedge $-1 $268 $269 $270 $271 reversed $99 $-1 #
coedge $-1 $272 $101 $103 $181 forward $61 $-1 #
coedge $-1 $101 $272 $268 $273 forward $61 $-1 #
coedge $-1 $270 $104 $101 $178 forward $172 $-1 #
edge $-1 $184 -3.314344393867227 $274 6.5108697979720453 $177 $275 forward 7 unknown #
coedge $-1 $276 $277 $102 $180 forward $266 $-1 #
edge $-1 $278 -96.507807486012169 $183 -91.306961032880423 $179 $279 forward 7 unknown #
edge $-1 $184 132.39752530781979 $278 141.03946043275243 $103 $280 forward 7 unknown #
coedge $-1 $104 $270 $276 $281 forward $172 $-1 #
vertex $-1 $180 $282 #
vertex $-1 $105 $283 #
straight-curve $-1 21.380138413432022 1.7160816918148178 9.7040193111246964 -1 0 0 I I #
coedge $-1 $186 $186 $-1 $284 reversed $108 $-1 #
edge $-1 $285 0 $285 6.2831853071796004 $109 $286 forward 7 unknown #
vertex $-1 $112 $287 #
ellipse-curve $-1 67.068852108035856 -5.3019284452132354 7.1035960845588182 0.6018150307709319 0 0.79863550430605224 0.79863550430605224 0 -0.6018150307709319 1 I I #
coedge $-1 $190 $190 $-1 $288 reversed $115 $-1 #
edge $-1 $289 0 $289 6.2831853071796004 $116 $290 forward 7 unknown #
vertex $-1 $119 $291 #
ellipse-curve $-1 67.068852108035856 -1.0911223629964013 7.1035960845588182 0.6018150307709319 0 0.79863550430605224 0.79863550430605224 0 -0.6018150307709319 1 I I #
face $-1 $-1 $206 $18 $-1 $292 reversed single #
loop $-1 $-1 $293 $120 #
plane-surface $-1 0 46.674045264307779 0 0 -1 0 0 0 -1 forward_v I I I I #
coedge $-1 $212 $211 $294 $295 forward $121 $-1 #
coedge $-1 $123 $133 $296 $297 forward $75 $-1 #
coedge $-1 $205 $129 $123 $200 reversed $206 $-1 #
edge $-1 $298 -46.674045264307779 $134 46.674045264307779 $199 $299 forward 7 unknown #
coedge $-1 $125 $124 $211 $300 forward $49 $-1 #
coedge $-1 $293 $294 $124 $203 reversed $195 $-1 #
edge $-1 $208 -70.519730216376232 $301 70.519730216376232 $202 $302 forward 7 unknown #
edge $-1 $213 -70.519730216376232 $207 70.519730216376232 $128 $303 forward 7 unknown #
coedge $-1 $126 $199 $293 $304 reversed $206 $-1 #
loop $-1 $-1 $129 $194 #
vertex $-1 $127 $305 #
vertex $-1 $127 $306 #
straight-curve $-1 70.519730216376232 0 9.7040193111247035 0 1 0 I I #
straight-curve $-1 70.519730216376232 -46.674045264307779 0 0 0 -1 I I #
coedge $-1 $197 $131 $201 $300 reversed $121 $-1 #
coedge $-1 $131 $197 $133 $215 reversed $121 $-1 #
vertex $-1 $300 $307 #
straight-curve $-1 -70.519730216376232 -46.674045264307779 0 0 0 -1 I I #
edge $-1 $135 -46.674045264307779 $308 46.674045264307779 $212 $309 forward 7 unknown #
point $-1 70.519730216376232 -46.674045264307779 -9.7040193111247035 #
point $-1 -70.519730216376232 -46.674045264307779 -9.7040193111247035 #
face $-1 $-1 $235 $19 $-1 $310 forward single #
loop $-1 $-1 $311 $137 #
plane-surface $-1 -58.744106056248029 -51.254172387792792 0 -1 0 0 0 0 1 forward_v I I I I #
coedge $-1 $312 $140 $225 $313 reversed $83 $-1 #
coedge $-1 $140 $312 $314 $315 reversed $83 $-1 #
coedge $-1 $148 $147 $140 $224 reversed $138 $-1 #
edge $-1 $316 -9.7040193111247035 $317 9.7040193111247035 $223 $318 forward 7 unknown #
coedge $-1 $142 $141 $221 $313 forward $53 $-1 #
coedge $-1 $231 $311 $141 $227 reversed $219 $-1 #
edge $-1 $229 -4.5801271234850134 $319 4.5801271234850134 $226 $320 forward 7 unknown #
edge $-1 $317 -4.5801271234850134 $149 4.5801271234850134 $147 $321 forward 7 unknown #
vertex $-1 $227 $322 #
straight-curve $-1 0 -46.674045264307779 -9.7040193111247035 1 0 0 I I #
coedge $-1 $323 $226 $144 $232 reversed $219 $-1 #
edge $-1 $236 -9.7040193111247035 $229 9.7040193111247035 $231 $324 forward 7 unknown #
coedge $-1 $314 $145 $148 $238 forward $235 $-1 #
coedge $-1 $145 $314 $323 $325 forward $235 $-1 #
loop $-1 $-1 $145 $218 #
vertex $-1 $146 $326 #
straight-curve $-1 0 -46.674045264307779 9.7040193111247035 -1 0 0 I I #
edge $-1 $150 -4.5801271234850134 $316 4.5801271234850134 $148 $327 forward 7 unknown #
point $-1 -61.744106056248029 -46.674045264307779 -9.7040193111247035 #
point $-1 -61.744106056248029 -46.674045264307779 9.7040193111247035 #
face $-1 $-1 $328 $20 $-1 $329 reversed single #
plane-surface $-1 70.519730216376232 0 0 -1 0 0 0 0 1 forward_v I I I I #
coedge $-1 $259 $155 $156 $247 reversed $91 $-1 #
coedge $-1 $253 $330 $155 $245 forward $328 $-1 #
edge $-1 $331 -3.8015670496998148 $260 -0.80156704969981485 $244 $332 forward 7 unknown #
coedge $-1 $157 $156 $330 $333 reversed $57 $-1 #
edge $-1 $250 -70.519730216376232 $331 70.519730216376232 $243 $334 forward 7 unknown #
coedge $-1 $256 $255 $157 $249 forward $153 $-1 #
edge $-1 $251 -70.519730216376232 $335 70.519730216376232 $248 $336 forward 7 unknown #
vertex $-1 $159 $337 #
vertex $-1 $159 $338 #
straight-curve $-1 70.519730216376232 21.576852365269716 -6.1031340993996297 0 1 0 I I #
coedge $-1 $339 $244 $160 $254 forward $328 $-1 #
edge $-1 $260 18.056511831501361 $257 25.09719289903807 $253 $340 forward 7 unknown #
coedge $-1 $248 $161 $166 $263 forward $153 $-1 #
coedge $-1 $161 $248 $339 $341 reversed $153 $-1 #
vertex $-1 $341 $342 #
straight-curve $-1 0 46.674045264307779 -3.1031340993996297 1 0 0 I I #
coedge $-1 $163 $243 $165 $262 reversed $91 $-1 #
vertex $-1 $254 $343 #
straight-curve $-1 0 39.633364196771076 -3.1031340993996297 1 0 0 I I #
edge $-1 $169 0.80156704969981485 $250 3.8015670496998148 $165 $344 forward 7 unknown #
edge $-1 $168 3.1031340993996297 $251 6.1031340993996297 $166 $345 forward 7 unknown #
point $-1 70.519730216376232 46.674045264307786 -3.1031340993996297 #
point $-1 70.519730216376232 39.633364196771076 -3.1031340993996297 #
loop $-1 $-1 $179 $171 #
plane-surface $-1 70.519730216376232 0 0 -1 0 0 0 0 1 forward_v I I I I #
coedge $-1 $269 $174 $176 $273 reversed $99 $-1 #
coedge $-1 $174 $268 $346 $347 reversed $99 $-1 #
coedge $-1 $182 $177 $174 $271 forward $172 $-1 #
edge $-1 $274 42.237835586263444 $348 49.13959180294421 $270 $349 forward 7 unknown #
coedge $-1 $176 $175 $277 $350 reversed $61 $-1 #
edge $-1 $351 -141.03946043275243 $274 -132.39752530781979 $268 $352 forward 7 unknown #
vertex $-1 $178 $353 #
straight-curve $-1 63.617973999695451 -1.5982627020524092 9.7040193111247035 0 -1 0 I I #
coedge $-1 $346 $179 $182 $281 reversed $266 $-1 #
coedge $-1 $179 $346 $272 $350 forward $266 $-1 #
vertex $-1 $180 $354 #
straight-curve $-1 70.519730216376232 1.7160816918148178 101.01098034400513 0 0 1 I I #
straight-curve $-1 -42.119390393388514 1.7160816918148178 89.382840078245508 0.79863550430605224 0 -0.6018150307709319 I I #
edge $-1 $348 -8.1091325000244545 $183 1.7160816918148178 $276 $355 forward 7 unknown #
point $-1 70.519730216376232 1.7160816918148178 9.7040193111247035 #
point $-1 63.617973999695465 1.7160816918148178 9.7040193111247106 #
edge $-1 $356 1 $356 0 $186 $-1 forward 7 unknown #
vertex $-1 $187 $357 #
ellipse-curve $-1 65.495357515421105 -5.3019284452132354 5.0154982750276478 0.6018150307709319 0 0.79863550430605224 0.79863550430605224 0 -0.6018150307709319 1 I I #
point $-1 67.867487612341904 -5.3019284452132354 6.5017810537878944 #
edge $-1 $358 1 $358 0 $190 $-1 forward 7 unknown #
vertex $-1 $191 $359 #
ellipse-curve $-1 65.495357515421105 -1.0911223629964013 5.0154982750276478 0.6018150307709319 0 0.79863550430605224 0.79863550430605224 0 -0.6018150307709319 1 I I #
point $-1 67.867487612341904 -1.0911223629964013 6.5017810537878944 #
plane-surface $-1 70.519730216376232 0 0 -1 0 0 0 0 1 forward_v I I I I #
coedge $-1 $296 $202 $205 $304 forward $195 $-1 #
coedge $-1 $202 $296 $197 $295 reversed $195 $-1 #
edge $-1 $301 -9.7040193111247035 $308 9.7040193111247035 $294 $360 forward 7 unknown #
coedge $-1 $294 $293 $198 $297 reversed $195 $-1 #
edge $-1 $308 -70.519730216376232 $298 70.519730216376232 $296 $361 forward 7 unknown #
vertex $-1 $200 $362 #
straight-curve $-1 70.519730216376232 0 -9.7040193111247035 0 -1 0 I I #
edge $-1 $301 -46.674045264307779 $213 46.674045264307779 $211 $363 forward 7 unknown #
vertex $-1 $203 $364 #
straight-curve $-1 0 46.674045264307779 9.7040193111247035 -1 0 0 I I #
straight-curve $-1 0 -46.674045264307779 9.7040193111247035 1 0 0 I I #
edge $-1 $208 -9.7040193111247035 $298 9.7040193111247035 $205 $365 forward 7 unknown #
point $-1 70.519730216376232 -46.674045264307779 9.7040193111247035 #
point $-1 70.519730216376232 46.674045264307779 9.7040193111247035 #
point $-1 -70.519730216376232 -46.674045264307779 9.7040193111247035 #
vertex $-1 $297 $366 #
straight-curve $-1 -70.519730216376232 0 -9.7040193111247035 0 1 0 I I #
plane-surface $-1 0 0 9.7040193111247035 0 0 1 1 0 0 forward_v I I I I #
coedge $-1 $226 $323 $312 $367 forward $219 $-1 #
coedge $-1 $222 $221 $311 $367 reversed $83 $-1 #
edge $-1 $319 -1.5 $317 1.5 $221 $368 forward 7 unknown #
coedge $-1 $234 $233 $222 $315 forward $235 $-1 #
edge $-1 $316 -1.5 $369 1.5 $222 $370 forward 7 unknown #
vertex $-1 $238 $371 #
vertex $-1 $228 $372 #
straight-curve $-1 -61.744106056248029 -55.834299511277806 0 0 0 -1 I I #
vertex $-1 $367 $373 #
straight-curve $-1 -58.744106056248029 -51.254172387792792 -9.7040193111247035 0 -1 0 I I #
straight-curve $-1 -61.744106056248029 -51.254172387792792 -9.7040193111247035 0 1 0 I I #
point $-1 -58.744106056248029 -46.674045264307779 -9.7040193111247035 #
coedge $-1 $311 $231 $234 $325 reversed $219 $-1 #
straight-curve $-1 -58.744106056248029 -46.674045264307779 0 0 0 -1 I I #
edge $-1 $369 -4.5801271234850134 $236 4.5801271234850134 $323 $374 forward 7 unknown #
point $-1 -58.744106056248029 -46.674045264307779 9.7040193111247035 #
straight-curve $-1 -61.744106056248029 -51.254172387792792 9.7040193111247035 0 -1 0 I I #
loop $-1 $-1 $253 $241 #
plane-surface $-1 -70.519730216376232 0 0 1 0 0 0 0 -1 forward_v I I I I #
coedge $-1 $244 $339 $246 $333 forward $328 $-1 #
vertex $-1 $333 $375 #
straight-curve $-1 -70.519730216376232 39.633364196771076 -2.3015670496998148 0 0 1 I I #
edge $-1 $335 -25.09719289903807 $331 -18.056511831501361 $330 $376 forward 7 unknown #
straight-curve $-1 0 39.633364196771076 -6.1031340993996297 -1 0 0 I I #
vertex $-1 $249 $377 #
straight-curve $-1 0 46.674045264307779 -6.1031340993996297 -1 0 0 I I #
point $-1 70.519730216376232 39.633364196771076 -6.1031340993996297 #
point $-1 70.519730216376232 46.674045264307786 -6.1031340993996297 #
coedge $-1 $330 $253 $256 $341 forward $328 $-1 #
straight-curve $-1 -70.519730216376232 21.576852365269716 -3.1031340993996297 0 1 0 I I #
edge $-1 $257 3.1031340993996297 $335 6.1031340993996297 $256 $378 forward 7 unknown #
point $-1 -70.519730216376232 46.674045264307786 -3.1031340993996297 #
point $-1 -70.519730216376232 39.633364196771076 -3.1031340993996297 #
straight-curve $-1 70.519730216376232 39.633364196771076 -2.3015670496998148 0 0 -1 I I #
straight-curve $-1 70.519730216376232 46.674045264307779 0 0 0 -1 I I #
coedge $-1 $277 $276 $269 $347 forward $266 $-1 #
edge $-1 $348 91.306961032880423 $351 96.507807486012169 $346 $379 forward 7 unknown #
vertex $-1 $281 $380 #
straight-curve $-1 21.380138413432022 -8.1091325000244545 9.7040193111246964 1 0 0 I I #
edge $-1 $351 -6.5108697979720453 $278 3.314344393867227 $277 $381 forward 7 unknown #
vertex $-1 $350 $382 #
straight-curve $-1 -42.119390393388514 -8.1091325000244545 89.382840078245508 -0.79863550430605224 0 0.6018150307709319 I I #
point $-1 63.617973999695465 -8.1091325000244545 9.7040193111247106 #
point $-1 70.519730216376232 1.7160816918148178 4.5031728579929649 #
straight-curve $-1 70.519730216376232 0 9.7040193111247035 0 1 0 I I #
vertex $-1 $284 $383 #
point $-1 66.293993019727168 -5.3019284452132354 4.413683244256716 #
vertex $-1 $288 $384 #
point $-1 66.293993019727168 -1.0911223629964013 4.413683244256716 #
straight-curve $-1 -70.519730216376232 46.674045264307779 0 0 0 -1 I I #
straight-curve $-1 0 46.674045264307779 -9.7040193111247035 1 0 0 I I #
point $-1 70.519730216376232 46.674045264307779 -9.7040193111247035 #
straight-curve $-1 -70.519730216376232 0 9.7040193111247035 0 -1 0 I I #
point $-1 -70.519730216376232 46.674045264307779 9.7040193111247035 #
straight-curve $-1 70.519730216376232 46.674045264307779 0 0 0 -1 I I #
point $-1 -70.519730216376232 46.674045264307779 -9.7040193111247035 #
edge $-1 $369 -9.7040193111247035 $319 9.7040193111247035 $311 $385 forward 7 unknown #
straight-curve $-1 -60.244106056248029 -55.834299511277806 -9.7040193111247035 -1 0 0 I I #
vertex $-1 $325 $386 #
straight-curve $-1 -60.244106056248029 -55.834299511277806 9.7040193111247035 1 0 0 I I #
point $-1 -61.744106056248029 -55.834299511277806 9.7040193111247035 #
point $-1 -61.744106056248029 -55.834299511277806 -9.7040193111247035 #
point $-1 -58.744106056248029 -55.834299511277806 -9.7040193111247035 #
straight-curve $-1 -58.744106056248029 -51.254172387792792 9.7040193111247035 0 1 0 I I #
point $-1 -70.519730216376232 39.633364196771076 -6.1031340993996297 #
straight-curve $-1 -70.519730216376232 21.576852365269716 -6.1031340993996297 0 -1 0 I I #
point $-1 -70.519730216376232 46.674045264307786 -6.1031340993996297 #
straight-curve $-1 -70.519730216376232 46.674045264307779 0 0 0 -1 I I #
straight-curve $-1 70.519730216376232 -8.1091325000244545 101.01098034400513 0 0 -1 I I #
point $-1 70.519730216376232 -8.1091325000244545 9.7040193111247035 #
straight-curve $-1 70.519730216376232 -1.5982627020524092 4.503172857992972 0 1 0 I I #
point $-1 70.519730216376232 -8.1091325000244545 4.5031728579929649 #
point $-1 64.893542484650183 -5.3019284452132354 4.2168627707215958 #
point $-1 64.893542484650183 -1.0911223629964013 4.2168627707215958 #
straight-curve $-1 -58.744106056248029 -55.834299511277806 0 0 0 -1 I I #
point $-1 -58.744106056248029 -55.834299511277806 9.7040193111247035 #
End-of-ACIS-data 