500 0 10 0           
7 Unknown 11 ACIS 5.0 NT 24 Fri Mar 26 17:13:00 1999 
-1 9.9999999999999995e-007 1e-010 
body $-1 $10 $-1 $11 #
body $-1 $12 $-1 $13 #
body $-1 $14 $-1 $15 #
body $-1 $16 $-1 $17 #
body $-1 $18 $-1 $19 #
body $-1 $20 $-1 $21 #
body $-1 $22 $-1 $23 #
body $-1 $24 $-1 $25 #
body $-1 $26 $-1 $27 #
body $-1 $28 $-1 $29 #
lump $-1 $-1 $30 $0 #
transform $-1 1 0 0 0 1 0 0 0 1 45.802179021576585 27.65212031240079 12.993635720757659 1 rotate no_reflect no_shear #
lump $-1 $-1 $31 $1 #
transform $-1 1 0 0 0 1 0 0 0 1 45.802179021576585 27.65212031240079 12.993635720757659 1 rotate no_reflect no_shear #
lump $-1 $-1 $32 $2 #
transform $-1 1 0 0 0 1 0 0 0 1 45.802179021576585 27.65212031240079 12.993635720757659 1 rotate no_reflect no_shear #
lump $-1 $-1 $33 $3 #
transform $-1 1 0 0 0 1 0 0 0 1 45.802179021576585 27.65212031240079 12.993635720757659 1 rotate no_reflect no_shear #
lump $-1 $-1 $34 $4 #
transform $-1 1 0 0 0 1 0 0 0 1 45.802179021576585 27.65212031240079 12.993635720757659 1 rotate no_reflect no_shear #
lump $-1 $-1 $35 $5 #
transform $-1 1 0 0 0 1 0 0 0 1 45.802179021576585 27.65212031240079 12.993635720757659 1 rotate no_reflect no_shear #
lump $-1 $-1 $36 $6 #
transform $-1 1 0 0 0 1 0 0 0 1 45.802179021576585 27.65212031240079 12.993635720757659 1 rotate no_reflect no_shear #
lump $-1 $-1 $37 $7 #
transform $-1 1 0 0 0 1 0 0 0 1 45.802179021576585 27.65212031240079 12.993635720757659 1 rotate no_reflect no_shear #
lump $-1 $-1 $38 $8 #
transform $-1 1 0 0 0 1 0 0 0 1 45.802179021576585 27.65212031240079 12.993635720757659 1 rotate no_reflect no_shear #
lump $-1 $-1 $39 $9 #
transform $-1 1 0 0 0 1 0 0 0 1 45.802179021576585 27.65212031240079 12.993635720757659 1 rotate no_reflect no_shear #
shell $-1 $-1 $-1 $40 $-1 $10 #
shell $-1 $-1 $-1 $41 $-1 $12 #
shell $-1 $-1 $-1 $42 $-1 $14 #
shell $-1 $-1 $-1 $43 $-1 $16 #
shell $-1 $-1 $-1 $44 $-1 $18 #
shell $-1 $-1 $-1 $45 $-1 $20 #
shell $-1 $-1 $-1 $46 $-1 $22 #
shell $-1 $-1 $-1 $47 $-1 $24 #
shell $-1 $-1 $-1 $48 $-1 $26 #
shell $-1 $-1 $-1 $49 $-1 $28 #
face $-1 $50 $51 $30 $-1 $52 forward single #
face $-1 $53 $54 $31 $-1 $55 forward single #
face $-1 $56 $57 $32 $-1 $58 reversed single #
face $-1 $59 $60 $33 $-1 $61 forward single #
face $-1 $62 $63 $34 $-1 $64 reversed single #
face $-1 $65 $66 $35 $-1 $67 forward single #
face $-1 $68 $69 $36 $-1 $70 reversed single #
face $-1 $71 $72 $37 $-1 $73 forward single #
face $-1 $74 $75 $38 $-1 $76 reversed single #
face $-1 $77 $78 $39 $-1 $79 forward single #
face $-1 $80 $81 $30 $-1 $82 reversed single #
loop $-1 $-1 $83 $40 #
plane-surface $-1 0 0 12.993635720757659 0 0 1 1 0 0 forward_v I I I I #
face $-1 $84 $85 $31 $-1 $86 reversed single #
loop $-1 $-1 $87 $41 #
plane-surface $-1 -38.087178567080102 0 12.310766106238383 0 0 1 1 0 0 forward_v I I I I #
face $-1 $88 $89 $32 $-1 $90 reversed single #
loop $-1 $-1 $91 $42 #
plane-surface $-1 -24.871000270140055 -14.086519530528655 39.4639015815996 0 0.6560590369687036 0.75470957328743171 1 0 0 forward_v I I I I #
face $-1 $92 $93 $33 $-1 $94 forward single #
loop $-1 $95 $96 $43 #
cone-surface $-1 -24.871000270140055 20.313306393433294 6.1377325739826532 0 -0.6560590369687036 -0.75470957328743171 1.5 0 0 1 I I 0 1 1.5 forward I I I I #
face $-1 $97 $98 $34 $-1 $99 reversed single #
loop $-1 $-1 $100 $44 #
plane-surface $-1 2.3541780553945335 46.011347389398729 108.59858755161684 -1 0 0 0 0.6560590369687036 0.75470957328743171 forward_v I I I I #
face $-1 $101 $102 $35 $-1 $103 forward single #
loop $-1 $104 $105 $45 #
cone-surface $-1 -3.1469997870490332 20.313306393433294 6.1377325739826532 0 -0.6560590369687036 -0.75470957328743171 1.5 0 0 1 I I 0 1 1.5 forward I I I I #
face $-1 $106 $107 $36 $-1 $108 reversed single #
loop $-1 $-1 $109 $46 #
plane-surface $-1 24.078178538485552 46.011347389398729 108.59858755161684 -1 0 0 0 0.6560590369687036 0.75470957328743171 forward_v I I I I #
face $-1 $110 $111 $37 $-1 $112 forward single #
loop $-1 $113 $114 $47 #
cone-surface $-1 18.577000696041985 20.313306393433294 6.1377325739826532 0 -0.6560590369687036 -0.75470957328743171 1.5 0 0 1 I I 0 1 1.5 forward I I I I #
face $-1 $115 $116 $38 $-1 $117 reversed single #
loop $-1 $-1 $118 $48 #
plane-surface $-1 40.301001179133003 -14.086519530528655 39.4639015815996 0 0.6560590369687036 0.75470957328743171 1 0 0 forward_v I I I I #
face $-1 $119 $120 $39 $-1 $121 forward single #
loop $-1 $122 $123 $49 #
cone-surface $-1 40.301001179133003 20.313306393433294 6.1377325739826532 0 -0.6560590369687036 -0.75470957328743171 1.5 0 0 1 I I 0 1 1.5 forward I I I I #
face $-1 $124 $125 $30 $-1 $126 reversed single #
loop $-1 $-1 $127 $50 #
plane-surface $-1 0 0 -12.993635720757659 0 0 1 1 0 0 forward_v I I I I #
coedge $-1 $128 $129 $130 $131 forward $51 $-1 #
face $-1 $132 $133 $31 $-1 $134 reversed single #
loop $-1 $-1 $135 $53 #
plane-surface $-1 -38.087178567080102 0 7.8178161430641993 0 0 1 1 0 0 forward_v I I I I #
coedge $-1 $136 $137 $138 $139 forward $54 $-1 #
face $-1 $140 $141 $32 $-1 $142 forward single #
loop $-1 $-1 $143 $56 #
plane-surface $-1 -19.369822427696487 46.011347389398729 108.59858755161684 -1 0 0 0 0.6560590369687036 0.75470957328743171 forward_v I I I I #
coedge $-1 $144 $145 $146 $147 reversed $57 $-1 #
face $-1 $-1 $148 $33 $-1 $149 forward single #
loop $-1 $150 $151 $59 #
cone-surface $-1 -24.871000270140055 18.126489654740134 3.6220877391174966 0 -0.6560590369687036 -0.75470957328743171 0.75 0 0 1 I I -0.70710678118654757 0.70710678118654757 0.75 forward I I I I #
loop $-1 $-1 $152 $43 #
coedge $-1 $96 $96 $153 $154 reversed $60 $-1 #
face $-1 $155 $156 $34 $-1 $157 reversed single #
loop $-1 $-1 $158 $62 #
plane-surface $-1 -3.1469997870490332 -14.086519530528655 39.4639015815996 0 0.6560590369687036 0.75470957328743171 1 0 0 forward_v I I I I #
coedge $-1 $159 $160 $161 $162 reversed $63 $-1 #
face $-1 $-1 $163 $35 $-1 $164 forward single #
loop $-1 $165 $166 $65 #
cone-surface $-1 -3.1469997870490332 18.126489654740134 3.6220877391174966 0 -0.6560590369687036 -0.75470957328743171 0.75 0 0 1 I I -0.70710678118654757 0.70710678118654757 0.75 forward I I I I #
loop $-1 $-1 $167 $45 #
coedge $-1 $105 $105 $168 $169 reversed $66 $-1 #
face $-1 $170 $171 $36 $-1 $172 reversed single #
loop $-1 $-1 $173 $68 #
plane-surface $-1 18.577000696041985 -14.086519530528655 39.4639015815996 0 0.6560590369687036 0.75470957328743171 1 0 0 forward_v I I I I #
coedge $-1 $174 $175 $176 $177 reversed $69 $-1 #
face $-1 $-1 $178 $37 $-1 $179 forward single #
loop $-1 $180 $181 $71 #
cone-surface $-1 18.577000696041985 18.126489654740134 3.6220877391174966 0 -0.6560590369687036 -0.75470957328743171 0.75 0 0 1 I I -0.70710678118654757 0.70710678118654757 0.75 forward I I I I #
loop $-1 $-1 $182 $47 #
coedge $-1 $114 $114 $183 $184 reversed $72 $-1 #
face $-1 $185 $186 $38 $-1 $187 forward single #
loop $-1 $-1 $188 $74 #
plane-surface $-1 34.799823336689435 46.011347389398729 108.59858755161684 1 0 0 0 -0.6560590369687036 -0.75470957328743171 forward_v I I I I #
coedge $-1 $189 $190 $191 $192 reversed $75 $-1 #
face $-1 $-1 $193 $39 $-1 $194 forward single #
loop $-1 $195 $196 $77 #
cone-surface $-1 40.301001179133003 18.126489654740134 3.6220877391174966 0 -0.6560590369687036 -0.75470957328743171 0.75 0 0 1 I I -0.70710678118654757 0.70710678118654757 0.75 forward I I I I #
loop $-1 $-1 $197 $49 #
coedge $-1 $123 $123 $198 $199 reversed $78 $-1 #
face $-1 $200 $201 $30 $-1 $202 reversed single #
loop $-1 $-1 $203 $80 #
plane-surface $-1 0 -27.65212031240079 0 0 1 0 0 0 1 forward_v I I I I #
coedge $-1 $204 $205 $206 $207 forward $81 $-1 #
coedge $-1 $208 $83 $209 $210 forward $51 $-1 #
coedge $-1 $83 $208 $211 $212 forward $51 $-1 #
coedge $-1 $213 $214 $83 $131 reversed $215 $-1 #
edge $-1 $216 -27.65212031240079 $217 27.65212031240079 $130 $218 forward 7 unknown #
face $-1 $219 $220 $31 $-1 $221 reversed single #
loop $-1 $-1 $138 $84 #
plane-surface $-1 -30.372178112583619 0 10.064291124651291 -1 0 0 0 0 1 forward_v I I I I #
coedge $-1 $222 $223 $224 $225 forward $85 $-1 #
coedge $-1 $226 $87 $227 $228 reversed $54 $-1 #
coedge $-1 $87 $226 $229 $230 reversed $54 $-1 #
coedge $-1 $231 $232 $87 $139 reversed $133 $-1 #
edge $-1 $233 -27.65212031240079 $234 27.65212031240079 $138 $235 forward 7 unknown #
face $-1 $236 $237 $32 $-1 $238 forward single #
loop $-1 $-1 $239 $88 #
plane-surface $-1 -30.372178112583619 0 10.064291124651291 -1 0 0 0 0 1 forward_v I I I I #
coedge $-1 $240 $241 $242 $243 reversed $89 $-1 #
coedge $-1 $244 $91 $239 $245 forward $57 $-1 #
coedge $-1 $91 $244 $240 $246 forward $57 $-1 #
coedge $-1 $242 $247 $91 $147 forward $237 $-1 #
edge $-1 $248 -17.936677977513597 $249 -6.9343222926264598 $146 $250 forward 7 unknown #
loop $-1 $-1 $153 $92 #
plane-surface $-1 -24.871000270140055 -14.086519530528655 39.4639015815996 0 0.6560590369687036 0.75470957328743171 1 0 0 forward_v I I I I #
loop $-1 $-1 $251 $59 #
coedge $-1 $151 $151 $152 $252 reversed $93 $-1 #
coedge $-1 $152 $152 $151 $252 forward $95 $-1 #
coedge $-1 $153 $153 $96 $154 forward $148 $-1 #
edge $-1 $253 -2.3365140653370061e-016 $253 6.2831853071796004 $153 $254 forward 7 unknown #
face $-1 $255 $256 $34 $-1 $257 reversed single #
loop $-1 $-1 $258 $97 #
plane-surface $-1 -8.6481776294926007 46.011347389398729 108.59858755161684 1 0 0 0 -0.6560590369687036 -0.75470957328743171 forward_v I I I I #
coedge $-1 $259 $260 $261 $262 reversed $98 $-1 #
coedge $-1 $160 $100 $263 $264 reversed $63 $-1 #
coedge $-1 $100 $159 $259 $265 reversed $63 $-1 #
coedge $-1 $261 $266 $100 $162 forward $256 $-1 #
edge $-1 $267 41.305658055050763 $268 51.118239038801597 $161 $269 forward 7 unknown #
loop $-1 $-1 $168 $101 #
plane-surface $-1 -3.1469997870490332 -14.086519530528655 39.4639015815996 0 0.6560590369687036 0.75470957328743171 1 0 0 forward_v I I I I #
loop $-1 $-1 $270 $65 #
coedge $-1 $166 $166 $167 $271 reversed $102 $-1 #
coedge $-1 $167 $167 $166 $271 forward $104 $-1 #
coedge $-1 $168 $168 $105 $169 forward $163 $-1 #
edge $-1 $272 -2.3365140653370061e-016 $272 6.2831853071796004 $168 $273 forward 7 unknown #
face $-1 $274 $275 $36 $-1 $276 forward single #
loop $-1 $-1 $277 $106 #
plane-surface $-1 13.075822853598417 46.011347389398729 108.59858755161684 1 0 0 0 -0.6560590369687036 -0.75470957328743171 forward_v I I I I #
coedge $-1 $278 $279 $280 $281 reversed $107 $-1 #
coedge $-1 $175 $109 $282 $283 reversed $69 $-1 #
coedge $-1 $109 $174 $278 $284 reversed $69 $-1 #
coedge $-1 $280 $285 $109 $177 forward $286 $-1 #
edge $-1 $287 41.305658055050763 $288 51.118239038801597 $176 $289 forward 7 unknown #
loop $-1 $-1 $183 $110 #
plane-surface $-1 18.577000696041985 -14.086519530528655 39.4639015815996 0 0.6560590369687036 0.75470957328743171 1 0 0 forward_v I I I I #
loop $-1 $-1 $290 $71 #
coedge $-1 $181 $181 $182 $291 reversed $111 $-1 #
coedge $-1 $182 $182 $181 $291 forward $113 $-1 #
coedge $-1 $183 $183 $114 $184 forward $178 $-1 #
edge $-1 $292 -2.3365140653370061e-016 $292 6.2831853071796004 $183 $293 forward 7 unknown #
face $-1 $294 $295 $38 $-1 $296 reversed single #
loop $-1 $-1 $297 $115 #
plane-surface $-1 0 0 12.993635720757659 0 0 1 1 0 0 forward_v I I I I #
coedge $-1 $298 $299 $300 $301 reversed $116 $-1 #
coedge $-1 $302 $118 $303 $304 reversed $75 $-1 #
coedge $-1 $118 $302 $298 $305 forward $75 $-1 #
coedge $-1 $300 $306 $118 $192 forward $295 $-1 #
edge $-1 $307 -25.651678432010069 $308 -14.649322747122934 $191 $309 forward 7 unknown #
loop $-1 $-1 $198 $119 #
plane-surface $-1 40.301001179133003 -14.086519530528655 39.4639015815996 0 0.6560590369687036 0.75470957328743171 1 0 0 forward_v I I I I #
loop $-1 $-1 $310 $77 #
coedge $-1 $196 $196 $197 $311 reversed $120 $-1 #
coedge $-1 $197 $197 $196 $311 forward $122 $-1 #
coedge $-1 $198 $198 $123 $199 forward $193 $-1 #
edge $-1 $312 -2.3365140653370061e-016 $312 6.2831853071796004 $198 $313 forward 7 unknown #
face $-1 $314 $315 $30 $-1 $316 reversed single #
loop $-1 $-1 $317 $124 #
plane-surface $-1 -45.802179021576585 0 0 1 0 0 0 0 -1 forward_v I I I I #
coedge $-1 $318 $211 $319 $320 forward $125 $-1 #
coedge $-1 $321 $127 $318 $322 forward $81 $-1 #
coedge $-1 $127 $321 $323 $324 forward $81 $-1 #
coedge $-1 $214 $213 $127 $207 reversed $215 $-1 #
edge $-1 $325 -27.65212031240079 $326 27.65212031240079 $206 $327 forward 7 unknown #
coedge $-1 $129 $128 $328 $329 forward $51 $-1 #
coedge $-1 $330 $331 $128 $210 reversed $315 $-1 #
edge $-1 $217 -45.802179021576585 $332 45.802179021576585 $209 $333 forward 7 unknown #
coedge $-1 $203 $334 $129 $212 reversed $125 $-1 #
edge $-1 $335 -45.802179021576585 $216 45.802179021576585 $211 $336 forward 7 unknown #
coedge $-1 $206 $130 $334 $337 forward $215 $-1 #
coedge $-1 $130 $206 $330 $338 reversed $215 $-1 #
loop $-1 $-1 $213 $314 #
vertex $-1 $131 $339 #
vertex $-1 $131 $340 #
straight-curve $-1 45.802179021576585 0 12.993635720757659 0 1 0 I I #
face $-1 $341 $342 $31 $-1 $343 reversed single #
loop $-1 $-1 $344 $132 #
plane-surface $-1 0 -27.65212031240079 0 0 1 0 0 0 1 forward_v I I I I #
coedge $-1 $345 $135 $344 $346 reversed $85 $-1 #
coedge $-1 $135 $345 $347 $348 reversed $85 $-1 #
coedge $-1 $232 $231 $135 $225 reversed $133 $-1 #
edge $-1 $349 -27.65212031240079 $350 27.65212031240079 $224 $351 forward 7 unknown #
coedge $-1 $137 $136 $352 $353 reversed $54 $-1 #
coedge $-1 $354 $355 $136 $228 forward $356 $-1 #
edge $-1 $357 -26.758589738036534 $234 -11.328588829043568 $227 $358 forward 7 unknown #
coedge $-1 $359 $360 $137 $230 forward $220 $-1 #
edge $-1 $233 11.328588829043568 $361 26.758589738036534 $229 $362 forward 7 unknown #
coedge $-1 $224 $138 $360 $363 reversed $133 $-1 #
coedge $-1 $138 $224 $354 $364 reversed $133 $-1 #
vertex $-1 $230 $365 #
vertex $-1 $228 $366 #
straight-curve $-1 -30.372178112583619 0 12.310766106238383 0 1 0 I I #
face $-1 $-1 $367 $32 $-1 $368 reversed single #
loop $-1 $-1 $242 $140 #
plane-surface $-1 0 0 12.993635720757659 0 0 1 1 0 0 forward_v I I I I #
coedge $-1 $369 $370 $144 $245 reversed $141 $-1 #
coedge $-1 $241 $143 $145 $246 reversed $89 $-1 #
coedge $-1 $143 $240 $371 $372 reversed $89 $-1 #
coedge $-1 $373 $146 $143 $243 forward $237 $-1 #
edge $-1 $249 -6.6416362983002912 $374 4.6464466177014252 $242 $375 forward 7 unknown #
coedge $-1 $145 $144 $376 $377 reversed $57 $-1 #
edge $-1 $248 40.347383953655793 $378 55.304240624801579 $239 $379 forward 7 unknown #
edge $-1 $380 -55.304240624801579 $249 -40.347383953655793 $240 $381 forward 7 unknown #
coedge $-1 $146 $373 $369 $382 forward $237 $-1 #
vertex $-1 $382 $383 #
vertex $-1 $147 $384 #
straight-curve $-1 -12.435500135070027 16.36403739639907 12.993635720757663 1 0 0 I I #
coedge $-1 $251 $251 $-1 $385 reversed $150 $-1 #
edge $-1 $386 0 $386 6.2831853071796004 $151 $387 forward 7 unknown #
vertex $-1 $154 $388 #
ellipse-curve $-1 -24.871000270140055 22.00807885439993 8.0873452288822385 0 0.6560590369687036 0.75470957328743171 1.5 0 0 1 I I #
face $-1 $-1 $389 $34 $-1 $390 forward single #
loop $-1 $-1 $161 $155 #
plane-surface $-1 0 27.65212031240079 0 0 -1 0 0 0 -1 forward_v I I I I #
coedge $-1 $391 $392 $393 $394 reversed $156 $-1 #
coedge $-1 $395 $158 $160 $265 forward $98 $-1 #
coedge $-1 $158 $395 $391 $396 forward $98 $-1 #
coedge $-1 $393 $161 $158 $262 forward $256 $-1 #
edge $-1 $268 -3.9276779489190501 $397 7.0746777359680841 $261 $398 forward 7 unknown #
coedge $-1 $399 $400 $159 $264 forward $389 $-1 #
edge $-1 $401 -6.6416362983002912 $267 4.6464466177014252 $263 $402 forward 7 unknown #
edge $-1 $268 -55.304240624801579 $401 -40.347383953655793 $160 $403 forward 7 unknown #
coedge $-1 $161 $393 $399 $404 reversed $256 $-1 #
vertex $-1 $404 $405 #
vertex $-1 $162 $406 #
straight-curve $-1 2.3541780553945335 27.65212031240079 54.299293775808422 0 0 -1 I I #
coedge $-1 $270 $270 $-1 $407 reversed $165 $-1 #
edge $-1 $408 0 $408 6.2831853071796004 $166 $409 forward 7 unknown #
vertex $-1 $169 $410 #
ellipse-curve $-1 -3.1469997870490332 22.00807885439993 8.0873452288822385 0 0.6560590369687036 0.75470957328743171 1.5 0 0 1 I I #
face $-1 $-1 $286 $36 $-1 $411 reversed single #
loop $-1 $-1 $412 $170 #
plane-surface $-1 0 0 12.993635720757659 0 0 1 1 0 0 forward_v I I I I #
coedge $-1 $413 $414 $415 $416 reversed $171 $-1 #
coedge $-1 $417 $173 $175 $284 forward $107 $-1 #
coedge $-1 $173 $417 $413 $418 forward $107 $-1 #
coedge $-1 $415 $176 $173 $281 forward $286 $-1 #
edge $-1 $288 -14.78967819046456 $419 -3.7873225055774249 $280 $420 forward 7 unknown #
coedge $-1 $421 $422 $174 $283 forward $275 $-1 #
edge $-1 $423 -6.6416362983002912 $287 4.6464466177014252 $282 $424 forward 7 unknown #
edge $-1 $288 -55.304240624801579 $423 -40.347383953655793 $175 $425 forward 7 unknown #
coedge $-1 $176 $415 $421 $426 reversed $286 $-1 #
loop $-1 $-1 $415 $274 #
vertex $-1 $426 $427 #
vertex $-1 $177 $428 #
straight-curve $-1 24.078178538485552 27.65212031240079 54.299293775808422 0 0 -1 I I #
coedge $-1 $290 $290 $-1 $429 reversed $180 $-1 #
edge $-1 $430 0 $430 6.2831853071796004 $181 $431 forward 7 unknown #
vertex $-1 $184 $432 #
ellipse-curve $-1 18.577000696041985 22.00807885439993 8.0873452288822385 0 0.6560590369687036 0.75470957328743171 1.5 0 0 1 I I #
face $-1 $-1 $433 $38 $-1 $434 reversed single #
loop $-1 $-1 $300 $185 #
plane-surface $-1 0 27.65212031240079 0 0 -1 0 0 0 -1 forward_v I I I I #
coedge $-1 $435 $436 $299 $437 forward $186 $-1 #
coedge $-1 $299 $188 $190 $305 reversed $116 $-1 #
coedge $-1 $188 $298 $297 $437 reversed $116 $-1 #
coedge $-1 $438 $191 $188 $301 forward $295 $-1 #
edge $-1 $308 -51.118239038801597 $439 -41.305658055050763 $300 $440 forward 7 unknown #
coedge $-1 $190 $189 $435 $441 reversed $75 $-1 #
coedge $-1 $442 $443 $189 $304 forward $433 $-1 #
edge $-1 $444 22.086443748334645 $307 37.043300419480438 $303 $445 forward 7 unknown #
edge $-1 $446 40.347383953655793 $308 55.304240624801579 $298 $447 forward 7 unknown #
coedge $-1 $191 $438 $442 $448 forward $295 $-1 #
vertex $-1 $304 $449 #
vertex $-1 $192 $450 #
straight-curve $-1 20.150500589566501 27.65212031240079 3.181054737006825 -1 0 0 I I #
coedge $-1 $310 $310 $-1 $451 reversed $195 $-1 #
edge $-1 $452 0 $452 6.2831853071796004 $196 $453 forward 7 unknown #
vertex $-1 $199 $454 #
ellipse-curve $-1 40.301001179133003 22.00807885439993 8.0873452288822385 0 0.6560590369687036 0.75470957328743171 1.5 0 0 1 I I #
face $-1 $-1 $215 $30 $-1 $455 reversed single #
loop $-1 $-1 $330 $200 #
plane-surface $-1 0 27.65212031240079 0 0 -1 0 0 0 -1 forward_v I I I I #
coedge $-1 $456 $328 $331 $457 forward $201 $-1 #
coedge $-1 $334 $203 $204 $322 reversed $125 $-1 #
coedge $-1 $328 $456 $203 $320 reversed $201 $-1 #
edge $-1 $335 -12.993635720757659 $458 12.993635720757659 $319 $459 forward 7 unknown #
coedge $-1 $205 $204 $456 $460 forward $81 $-1 #
edge $-1 $326 -45.802179021576585 $458 45.802179021576585 $318 $461 forward 7 unknown #
coedge $-1 $331 $330 $205 $324 reversed $315 $-1 #
edge $-1 $462 -45.802179021576585 $325 45.802179021576585 $323 $463 forward 7 unknown #
vertex $-1 $207 $464 #
vertex $-1 $337 $465 #
straight-curve $-1 45.802179021576585 0 -12.993635720757659 0 -1 0 I I #
coedge $-1 $317 $319 $208 $329 reversed $201 $-1 #
edge $-1 $332 -27.65212031240079 $335 27.65212031240079 $328 $466 forward 7 unknown #
coedge $-1 $323 $209 $214 $338 forward $315 $-1 #
coedge $-1 $209 $323 $317 $457 reversed $315 $-1 #
vertex $-1 $210 $467 #
straight-curve $-1 0 27.65212031240079 12.993635720757659 -1 0 0 I I #
coedge $-1 $211 $318 $213 $337 reversed $125 $-1 #
vertex $-1 $329 $468 #
straight-curve $-1 0 -27.65212031240079 12.993635720757659 1 0 0 I I #
edge $-1 $216 -12.993635720757659 $326 12.993635720757659 $213 $469 forward 7 unknown #
edge $-1 $217 -12.993635720757659 $325 12.993635720757659 $214 $470 forward 7 unknown #
point $-1 45.802179021576585 -27.65212031240079 12.993635720757659 #
point $-1 45.802179021576585 27.65212031240079 12.993635720757659 #
face $-1 $-1 $356 $31 $-1 $471 reversed single #
loop $-1 $-1 $472 $219 #
plane-surface $-1 -45.802179021576585 0 0 1 0 0 0 0 -1 forward_v I I I I #
coedge $-1 $360 $359 $222 $346 forward $220 $-1 #
coedge $-1 $223 $222 $472 $473 reversed $85 $-1 #
edge $-1 $474 -26.758589738036534 $350 -11.328588829043568 $344 $475 forward 7 unknown #
coedge $-1 $355 $354 $223 $348 forward $356 $-1 #
edge $-1 $349 11.328588829043568 $476 26.758589738036534 $347 $477 forward 7 unknown #
vertex $-1 $348 $478 #
vertex $-1 $346 $479 #
straight-curve $-1 -30.372178112583619 0 7.8178161430641993 0 -1 0 I I #
coedge $-1 $480 $481 $226 $353 forward $342 $-1 #
edge $-1 $361 -27.65212031240079 $357 27.65212031240079 $352 $482 forward 7 unknown #
coedge $-1 $347 $227 $232 $364 forward $356 $-1 #
coedge $-1 $227 $347 $480 $483 reversed $356 $-1 #
loop $-1 $-1 $347 $341 #
vertex $-1 $483 $484 #
straight-curve $-1 -19.043589283540051 27.65212031240079 12.310766106238383 1 0 0 I I #
coedge $-1 $344 $229 $481 $485 forward $220 $-1 #
coedge $-1 $229 $344 $231 $363 forward $220 $-1 #
vertex $-1 $485 $486 #
straight-curve $-1 -19.043589283540051 -27.65212031240079 12.310766106238383 -1 0 0 I I #
edge $-1 $350 2.7856705807385538 $233 7.2786205439127372 $360 $487 forward 7 unknown #
edge $-1 $234 -7.2786205439127372 $349 -2.7856705807385538 $354 $488 forward 7 unknown #
point $-1 -30.372178112583619 -27.65212031240079 12.310766106238383 #
point $-1 -30.372178112583619 27.65212031240079 12.310766106238383 #
loop $-1 $-1 $489 $236 #
plane-surface $-1 0 27.65212031240079 0 0 -1 0 0 0 -1 forward_v I I I I #
coedge $-1 $370 $239 $247 $382 reversed $141 $-1 #
coedge $-1 $239 $369 $489 $490 reversed $141 $-1 #
coedge $-1 $376 $491 $241 $372 forward $367 $-1 #
edge $-1 $374 41.305658055050763 $380 51.118239038801597 $371 $492 forward 7 unknown #
coedge $-1 $247 $242 $491 $493 forward $237 $-1 #
vertex $-1 $493 $494 #
straight-curve $-1 -19.369822427696487 23.005673694699365 12.993635720757659 0 1 0 I I #
coedge $-1 $489 $371 $244 $377 forward $367 $-1 #
edge $-1 $380 6.9343222926264598 $378 17.936677977513597 $376 $495 forward 7 unknown #
vertex $-1 $490 $496 #
straight-curve $-1 -30.372178112583622 -14.086519530528655 39.4639015815996 0 0.75470957328743171 -0.6560590369687036 I I #
vertex $-1 $377 $497 #
straight-curve $-1 -19.369822427696487 -14.086519530528655 39.4639015815996 0 -0.75470957328743171 0.6560590369687036 I I #
edge $-1 $498 -4.6464466177014252 $248 6.6416362983002912 $247 $499 forward 7 unknown #
point $-1 -30.372178112583622 16.364037396399073 12.993635720757659 #
point $-1 -19.369822427696487 16.364037396399073 12.993635720757659 #
edge $-1 $500 1 $500 0 $251 $-1 forward 7 unknown #
vertex $-1 $252 $501 #
ellipse-curve $-1 -24.871000270140055 18.618533932466661 4.1881199190830705 0 0.6560590369687036 0.75470957328743171 1.5 0 0 1 I I #
point $-1 -23.371000270140055 22.008078854399926 8.0873452288822349 #
loop $-1 $-1 $263 $255 #
plane-surface $-1 0 0 12.993635720757659 0 0 1 1 0 0 forward_v I I I I #
coedge $-1 $392 $258 $260 $396 reversed $156 $-1 #
coedge $-1 $258 $391 $502 $503 reversed $156 $-1 #
coedge $-1 $266 $261 $258 $394 forward $256 $-1 #
edge $-1 $397 -51.118239038801597 $504 -41.305658055050763 $393 $505 forward 7 unknown #
coedge $-1 $260 $259 $400 $506 reversed $98 $-1 #
edge $-1 $507 40.347383953655793 $397 55.304240624801579 $391 $508 forward 7 unknown #
vertex $-1 $262 $509 #
straight-curve $-1 -1.5734998935245166 27.65212031240079 3.181054737006825 -1 0 0 I I #
coedge $-1 $502 $263 $266 $404 forward $389 $-1 #
coedge $-1 $263 $502 $395 $506 forward $389 $-1 #
vertex $-1 $264 $510 #
straight-curve $-1 2.3541780553945335 23.005673694699365 12.993635720757659 0 1 0 I I #
straight-curve $-1 2.3541780553945335 -14.086519530528655 39.4639015815996 0 -0.75470957328743171 0.6560590369687036 I I #
edge $-1 $267 -2.3541780553945335 $504 8.6481776294926007 $266 $511 forward 7 unknown #
point $-1 2.3541780553945335 27.65212031240079 12.993635720757659 #
point $-1 2.3541780553945335 27.65212031240079 3.181054737006825 #
edge $-1 $512 1 $512 0 $270 $-1 forward 7 unknown #
vertex $-1 $271 $513 #
ellipse-curve $-1 -3.1469997870490332 18.618533932466661 4.1881199190830705 0 0.6560590369687036 0.75470957328743171 1.5 0 0 1 I I #
point $-1 -1.6469997870490332 22.008078854399926 8.0873452288822349 #
plane-surface $-1 0 27.65212031240079 0 0 -1 0 0 0 -1 forward_v I I I I #
coedge $-1 $422 $421 $414 $514 forward $275 $-1 #
coedge $-1 $414 $277 $279 $418 reversed $171 $-1 #
coedge $-1 $277 $413 $412 $514 reversed $171 $-1 #
coedge $-1 $285 $280 $277 $416 forward $286 $-1 #
edge $-1 $419 -51.118239038801597 $515 -41.305658055050763 $415 $516 forward 7 unknown #
coedge $-1 $279 $278 $422 $517 reversed $107 $-1 #
edge $-1 $518 40.347383953655793 $419 55.304240624801579 $413 $519 forward 7 unknown #
vertex $-1 $281 $520 #
straight-curve $-1 9.2885003480209924 27.65212031240079 3.181054737006825 -1 0 0 I I #
coedge $-1 $412 $282 $285 $426 forward $275 $-1 #
coedge $-1 $282 $412 $417 $517 forward $275 $-1 #
vertex $-1 $283 $521 #
straight-curve $-1 24.078178538485552 23.005673694699365 12.993635720757659 0 1 0 I I #
straight-curve $-1 24.078178538485552 -14.086519530528655 39.4639015815996 0 -0.75470957328743171 0.6560590369687036 I I #
edge $-1 $287 -24.078178538485552 $515 -13.075822853598417 $285 $522 forward 7 unknown #
point $-1 24.078178538485552 27.65212031240079 12.993635720757659 #
point $-1 24.078178538485552 27.65212031240079 3.181054737006825 #
edge $-1 $523 1 $523 0 $290 $-1 forward 7 unknown #
vertex $-1 $291 $524 #
ellipse-curve $-1 18.577000696041985 18.618533932466661 4.1881199190830705 0 0.6560590369687036 0.75470957328743171 1.5 0 0 1 I I #
point $-1 20.077000696041985 22.008078854399926 8.0873452288822349 #
loop $-1 $-1 $303 $294 #
plane-surface $-1 45.802179021576585 0 0 -1 0 0 0 0 1 forward_v I I I I #
coedge $-1 $525 $297 $302 $441 forward $186 $-1 #
coedge $-1 $297 $525 $438 $526 forward $186 $-1 #
edge $-1 $439 -4.6464466177014252 $446 6.6416362983002912 $297 $527 forward 7 unknown #
coedge $-1 $306 $300 $436 $526 reversed $295 $-1 #
vertex $-1 $437 $528 #
straight-curve $-1 34.799823336689435 27.65212031240079 54.299293775808422 0 0 1 I I #
edge $-1 $446 14.649322747122934 $444 25.651678432010069 $435 $529 forward 7 unknown #
coedge $-1 $443 $303 $306 $448 reversed $433 $-1 #
coedge $-1 $303 $442 $525 $530 reversed $433 $-1 #
vertex $-1 $530 $531 #
straight-curve $-1 45.802179021576585 -0.30481314034342954 27.483646736353531 0 0.75470957328743171 -0.6560590369687036 I I #
vertex $-1 $441 $532 #
straight-curve $-1 34.799823336689435 -14.086519530528655 39.4639015815996 0 0.75470957328743171 -0.6560590369687036 I I #
edge $-1 $533 -12.993635720757659 $307 -3.181054737006825 $442 $534 forward 7 unknown #
point $-1 45.802179021576571 27.65212031240079 3.181054737006825 #
point $-1 34.799823336689435 27.65212031240079 3.181054737006825 #
edge $-1 $535 1 $535 0 $310 $-1 forward 7 unknown #
vertex $-1 $311 $536 #
ellipse-curve $-1 40.301001179133003 18.618533932466661 4.1881199190830705 0 0.6560590369687036 0.75470957328743171 1.5 0 0 1 I I #
point $-1 41.801001179133003 22.008078854399926 8.0873452288822349 #
plane-surface $-1 45.802179021576585 0 0 -1 0 0 0 0 1 forward_v I I I I #
coedge $-1 $319 $317 $321 $460 reversed $201 $-1 #
edge $-1 $332 -12.993635720757659 $462 12.993635720757659 $331 $537 forward 7 unknown #
vertex $-1 $460 $538 #
straight-curve $-1 -45.802179021576585 -27.65212031240079 0 0 0 -1 I I #
edge $-1 $458 -27.65212031240079 $462 27.65212031240079 $456 $539 forward 7 unknown #
straight-curve $-1 0 -27.65212031240079 -12.993635720757659 -1 0 0 I I #
vertex $-1 $324 $540 #
straight-curve $-1 0 27.65212031240079 -12.993635720757659 1 0 0 I I #
point $-1 45.802179021576585 27.65212031240079 -12.993635720757659 #
point $-1 45.802179021576585 -27.65212031240079 -12.993635720757659 #
straight-curve $-1 -45.802179021576585 0 12.993635720757659 0 -1 0 I I #
point $-1 -45.802179021576585 27.65212031240079 12.993635720757659 #
point $-1 -45.802179021576585 -27.65212031240079 12.993635720757659 #
straight-curve $-1 45.802179021576585 -27.65212031240079 0 0 0 -1 I I #
straight-curve $-1 45.802179021576585 27.65212031240079 0 0 0 -1 I I #
plane-surface $-1 0 27.65212031240079 0 0 -1 0 0 0 -1 forward_v I I I I #
coedge $-1 $481 $480 $345 $473 forward $342 $-1 #
edge $-1 $476 -27.65212031240079 $474 27.65212031240079 $472 $541 forward 7 unknown #
vertex $-1 $346 $542 #
straight-curve $-1 -19.043589283540051 -27.65212031240079 7.8178161430641993 1 0 0 I I #
vertex $-1 $348 $543 #
straight-curve $-1 -19.043589283540051 27.65212031240079 7.8178161430641993 -1 0 0 I I #
point $-1 -30.372178112583619 27.65212031240079 7.8178161430641993 #
point $-1 -30.372178112583619 -27.65212031240079 7.8178161430641993 #
coedge $-1 $472 $352 $355 $483 forward $342 $-1 #
coedge $-1 $352 $472 $359 $485 reversed $342 $-1 #
straight-curve $-1 -45.802179021576585 0 12.310766106238383 0 1 0 I I #
edge $-1 $357 -12.310766106238383 $476 -7.8178161430641993 $355 $544 forward 7 unknown #
point $-1 -45.802179021576585 27.65212031240079 12.310766106238383 #
edge $-1 $361 -12.310766106238383 $474 -7.8178161430641993 $481 $545 forward 7 unknown #
point $-1 -45.802179021576585 -27.65212031240079 12.310766106238383 #
straight-curve $-1 -30.372178112583619 -27.65212031240079 5.0321455623256455 0 0 1 I I #
straight-curve $-1 -30.372178112583619 27.65212031240079 5.0321455623256455 0 0 -1 I I #
coedge $-1 $491 $376 $370 $490 forward $367 $-1 #
edge $-1 $378 -51.118239038801597 $498 -41.305658055050763 $489 $546 forward 7 unknown #
coedge $-1 $371 $489 $373 $493 reversed $367 $-1 #
straight-curve $-1 -19.369822427696487 27.65212031240079 54.299293775808422 0 0 -1 I I #
edge $-1 $374 19.369822427696487 $498 30.372178112583622 $491 $547 forward 7 unknown #
point $-1 -19.369822427696487 27.65212031240079 12.993635720757659 #
straight-curve $-1 -12.435500135070027 27.65212031240079 3.181054737006825 -1 0 0 I I #
point $-1 -30.372178112583622 27.65212031240079 3.181054737006825 #
point $-1 -19.369822427696487 27.65212031240079 3.181054737006825 #
vertex $-1 $382 $548 #
straight-curve $-1 -30.372178112583622 23.005673694699365 12.993635720757659 0 -1 0 I I #
vertex $-1 $385 $549 #
point $-1 -23.371000270140055 18.618533932466661 4.1881199190830705 #
coedge $-1 $400 $399 $392 $503 forward $389 $-1 #
edge $-1 $504 -4.6464466177014252 $507 6.6416362983002912 $502 $550 forward 7 unknown #
vertex $-1 $503 $551 #
straight-curve $-1 -8.6481776294926007 27.65212031240079 54.299293775808422 0 0 1 I I #
edge $-1 $507 -7.0746777359680841 $401 3.9276779489190501 $400 $552 forward 7 unknown #
vertex $-1 $506 $553 #
straight-curve $-1 -8.6481776294926007 -14.086519530528655 39.4639015815996 0 0.75470957328743171 -0.6560590369687036 I I #
point $-1 -8.6481776294926007 27.65212031240079 3.181054737006825 #
point $-1 2.3541780553945335 16.364037396399073 12.993635720757659 #
straight-curve $-1 0 27.65212031240079 12.993635720757659 -1 0 0 I I #
vertex $-1 $407 $554 #
point $-1 -1.6469997870490332 18.618533932466661 4.1881199190830705 #
edge $-1 $515 -4.6464466177014252 $518 6.6416362983002912 $412 $555 forward 7 unknown #
vertex $-1 $416 $556 #
straight-curve $-1 13.075822853598417 27.65212031240079 54.299293775808422 0 0 1 I I #
edge $-1 $518 3.7873225055774249 $423 14.78967819046456 $422 $557 forward 7 unknown #
vertex $-1 $517 $558 #
straight-curve $-1 13.075822853598417 -14.086519530528655 39.4639015815996 0 0.75470957328743171 -0.6560590369687036 I I #
point $-1 13.075822853598417 27.65212031240079 3.181054737006825 #
point $-1 24.078178538485552 16.364037396399073 12.993635720757659 #
straight-curve $-1 0 27.65212031240079 12.993635720757659 -1 0 0 I I #
vertex $-1 $429 $559 #
point $-1 20.077000696041985 18.618533932466661 4.1881199190830705 #
coedge $-1 $436 $435 $443 $530 forward $186 $-1 #
edge $-1 $533 -45.802179021576585 $439 -34.799823336689435 $438 $560 forward 7 unknown #
straight-curve $-1 34.799823336689435 23.005673694699365 12.993635720757659 0 -1 0 I I #
point $-1 34.799823336689435 27.65212031240079 12.993635720757659 #
straight-curve $-1 20.150500589566501 16.36403739639907 12.993635720757663 1 0 0 I I #
edge $-1 $444 16.364037396399073 $533 27.65212031240079 $443 $561 forward 7 unknown #
point $-1 45.802179021576571 16.364037396399073 12.993635720757659 #
point $-1 34.799823336689435 16.364037396399073 12.993635720757659 #
vertex $-1 $530 $562 #
straight-curve $-1 45.802179021576585 27.65212031240079 0 0 0 -1 I I #
vertex $-1 $451 $563 #
point $-1 41.801001179133003 18.618533932466661 4.1881199190830705 #
straight-curve $-1 -45.802179021576585 27.65212031240079 0 0 0 -1 I I #
point $-1 -45.802179021576585 -27.65212031240079 -12.993635720757659 #
straight-curve $-1 -45.802179021576585 0 -12.993635720757659 0 1 0 I I #
point $-1 -45.802179021576585 27.65212031240079 -12.993635720757659 #
straight-curve $-1 -45.802179021576585 0 7.8178161430641993 0 -1 0 I I #
point $-1 -45.802179021576585 -27.65212031240079 7.8178161430641993 #
point $-1 -45.802179021576585 27.65212031240079 7.8178161430641993 #
straight-curve $-1 -45.802179021576585 27.65212031240079 0 0 0 -1 I I #
straight-curve $-1 -45.802179021576585 -27.65212031240079 0 0 0 -1 I I #
straight-curve $-1 -30.372178112583622 27.65212031240079 54.299293775808422 0 0 1 I I #
straight-curve $-1 0 27.65212031240079 12.993635720757659 -1 0 0 I I #
point $-1 -30.372178112583622 27.65212031240079 12.993635720757659 #
point $-1 -24.871000270140055 17.634445377013606 3.0560555591519227 #
straight-curve $-1 -8.6481776294926007 23.005673694699365 12.993635720757659 0 -1 0 I I #
point $-1 -8.6481776294926007 27.65212031240079 12.993635720757659 #
straight-curve $-1 -1.5734998935245166 16.36403739639907 12.993635720757663 1 0 0 I I #
point $-1 -8.6481776294926007 16.364037396399073 12.993635720757659 #
point $-1 -3.1469997870490332 17.634445377013606 3.0560555591519227 #
straight-curve $-1 13.075822853598417 23.005673694699365 12.993635720757659 0 -1 0 I I #
point $-1 13.075822853598417 27.65212031240079 12.993635720757659 #
straight-curve $-1 9.2885003480209924 16.36403739639907 12.993635720757663 1 0 0 I I #
point $-1 13.075822853598417 16.364037396399073 12.993635720757659 #
point $-1 18.577000696041985 17.634445377013606 3.0560555591519227 #
straight-curve $-1 0 27.65212031240079 12.993635720757659 -1 0 0 I I #
straight-curve $-1 45.802179021576585 0 12.993635720757659 0 1 0 I I #
point $-1 45.802179021576585 27.65212031240079 12.993635720757659 #
point $-1 40.301001179133003 17.634445377013606 3.0560555591519227 #
End-of-ACIS-data 