500 0 9 0           
7 Unknown 11 ACIS 5.0 NT 24 Fri Mar 26 00:51:38 1999 
-1 9.9999999999999995e-007 1e-010 
body $-1 $9 $-1 $10 #
body $-1 $11 $-1 $12 #
body $-1 $13 $-1 $14 #
body $-1 $15 $-1 $16 #
body $-1 $17 $-1 $18 #
body $-1 $19 $-1 $20 #
body $-1 $21 $-1 $22 #
body $-1 $23 $-1 $24 #
body $-1 $25 $-1 $26 #
lump $-1 $-1 $27 $0 #
transform $-1 1 0 0 0 1 0 0 0 1 41.51615955076754 19.78412818241905 5.8600072046408913 1 rotate no_reflect no_shear #
lump $-1 $-1 $28 $1 #
transform $-1 1 0 0 0 1 0 0 0 1 41.51615955076754 19.78412818241905 5.8600072046408913 1 rotate no_reflect no_shear #
lump $-1 $-1 $29 $2 #
transform $-1 1 0 0 0 1 0 0 0 1 41.51615955076754 19.78412818241905 5.8600072046408913 1 rotate no_reflect no_shear #
lump $-1 $-1 $30 $3 #
transform $-1 1 0 0 0 1 0 0 0 1 41.51615955076754 19.78412818241905 5.8600072046408913 1 rotate no_reflect no_shear #
lump $-1 $-1 $31 $4 #
transform $-1 1 0 0 0 1 0 0 0 1 41.51615955076754 19.78412818241905 5.8600072046408913 1 rotate no_reflect no_shear #
lump $-1 $-1 $32 $5 #
transform $-1 1 0 0 0 1 0 0 0 1 41.51615955076754 19.78412818241905 5.8600072046408913 1 rotate no_reflect no_shear #
lump $-1 $-1 $33 $6 #
transform $-1 1 0 0 0 1 0 0 0 1 41.51615955076754 19.78412818241905 5.8600072046408913 1 rotate no_reflect no_shear #
lump $-1 $-1 $34 $7 #
transform $-1 1 0 0 0 1 0 0 0 1 41.51615955076754 19.78412818241905 5.8600072046408913 1 rotate no_reflect no_shear #
lump $-1 $-1 $35 $8 #
transform $-1 1 0 0 0 1 0 0 0 1 41.51615955076754 19.78412818241905 5.8600072046408913 1 rotate no_reflect no_shear #
shell $-1 $-1 $-1 $36 $-1 $9 #
shell $-1 $-1 $-1 $37 $-1 $11 #
shell $-1 $-1 $-1 $38 $-1 $13 #
shell $-1 $-1 $-1 $39 $-1 $15 #
shell $-1 $-1 $-1 $40 $-1 $17 #
shell $-1 $-1 $-1 $41 $-1 $19 #
shell $-1 $-1 $-1 $42 $-1 $21 #
shell $-1 $-1 $-1 $43 $-1 $23 #
shell $-1 $-1 $-1 $44 $-1 $25 #
face $-1 $45 $46 $27 $-1 $47 forward single #
face $-1 $48 $49 $28 $-1 $50 reversed single #
face $-1 $51 $52 $29 $-1 $53 reversed single #
face $-1 $54 $55 $30 $-1 $56 forward single #
face $-1 $57 $58 $31 $-1 $59 forward single #
face $-1 $60 $61 $32 $-1 $62 reversed single #
face $-1 $63 $64 $33 $-1 $65 forward single #
face $-1 $66 $67 $34 $-1 $68 forward single #
face $-1 $69 $70 $35 $-1 $71 forward single #
face $-1 $72 $73 $27 $-1 $74 reversed single #
loop $-1 $-1 $75 $36 #
plane-surface $-1 0 0 5.8600072046408913 0 0 1 1 0 0 forward_v I I I I #
face $-1 $76 $77 $28 $-1 $78 reversed single #
loop $-1 $-1 $79 $37 #
plane-surface $-1 -39.533727357900922 0 2.8600072046408913 0 0 1 1 0 0 forward_v I I I I #
face $-1 $80 $81 $29 $-1 $82 reversed single #
loop $-1 $-1 $83 $38 #
plane-surface $-1 -27.075285726394277 -8.1948538882581587 28.905580714392272 0 0.70710678939079041 0.70710677298230451 1 0 0 forward_v I I I I #
face $-1 $84 $85 $30 $-1 $86 forward single #
loop $-1 $87 $88 $39 #
cone-surface $-1 -31.565004057240003 15.285443825741936 1.3613228378759406 0 -0.70710678939079041 -0.70710677298230451 1.5 0 0 1 I I 0 1 1.5 forward I I I I #
face $-1 $89 $90 $31 $-1 $91 forward single #
loop $-1 $92 $93 $40 #
cone-surface $-1 -22.585567395548548 15.285443825741936 1.3613228378759406 0 -0.70710678939079041 -0.70710677298230451 1.5 0 0 1 I I 0 1 1.5 forward I I I I #
face $-1 $94 $95 $32 $-1 $96 reversed single #
loop $-1 $-1 $97 $41 #
plane-surface $-1 -26.305894023274263 -89.420891065746659 47.534073690143764 -1 0 0 0 -0.83867057594974714 0.54463902268945019 forward_v I I I I #
face $-1 $98 $99 $33 $-1 $100 forward single #
loop $-1 $101 $102 $42 #
cone-surface $-1 -35.302214936682297 -18.032419832356435 3.6964177545690218 0 0.83867057594974714 -0.54463902268945019 1 0 0 1 I I 0 1 1 forward I I I I #
face $-1 $103 $104 $34 $-1 $105 forward single #
loop $-1 $106 $107 $43 #
cone-surface $-1 -31.928594594154287 -18.032419832356435 3.6964177545690218 0 0.83867057594974714 -0.54463902268945019 1 0 0 1 I I 0 1 1 forward I I I I #
face $-1 $108 $109 $35 $-1 $110 forward single #
loop $-1 $111 $112 $44 #
cone-surface $-1 -28.554974251626273 -18.032419832356435 3.6964177545690218 0 0.83867057594974714 -0.54463902268945019 1 0 0 1 I I 0 1 1 forward I I I I #
face $-1 $113 $114 $27 $-1 $115 reversed single #
loop $-1 $-1 $116 $45 #
plane-surface $-1 0 0 -5.8600072046408913 0 0 1 1 0 0 forward_v I I I I #
coedge $-1 $117 $118 $119 $120 forward $46 $-1 #
face $-1 $121 $122 $28 $-1 $123 reversed single #
loop $-1 $-1 $124 $48 #
plane-surface $-1 -37.551295165034304 0 4.3600072046408913 -1 0 0 0 0 1 forward_v I I I I #
coedge $-1 $125 $126 $127 $128 forward $49 $-1 #
face $-1 $129 $130 $29 $-1 $131 forward single #
loop $-1 $-1 $132 $51 #
plane-surface $-1 -16.599276287754243 50.51786268729991 87.618295927515703 -1 0 0 0 0.70710678939079041 0.70710677298230451 forward_v I I I I #
coedge $-1 $133 $134 $135 $136 reversed $52 $-1 #
face $-1 $-1 $137 $30 $-1 $138 forward single #
loop $-1 $139 $140 $54 #
cone-surface $-1 -31.565004057240003 12.723133924872091 -1.2009870035352401 0 -0.70710678939079041 -0.70710677298230451 0.75 0 0 1 I I -0.70710678118654757 0.70710678118654757 0.75 forward I I I I #
loop $-1 $-1 $141 $39 #
coedge $-1 $88 $88 $142 $143 reversed $55 $-1 #
face $-1 $-1 $144 $31 $-1 $145 forward single #
loop $-1 $146 $147 $57 #
cone-surface $-1 -22.585567395548548 12.723133924872091 -1.2009870035352401 0 -0.70710678939079041 -0.70710677298230451 0.75 0 0 1 I I -0.70710678118654757 0.70710678118654757 0.75 forward I I I I #
loop $-1 $-1 $148 $40 #
coedge $-1 $93 $93 $149 $150 reversed $58 $-1 #
face $-1 $151 $152 $32 $-1 $153 forward single #
loop $-1 $-1 $154 $60 #
plane-surface $-1 -31.928594594154283 -19.784128182419039 2.3114325630451305 0 -0.83867057594974714 0.54463902268945019 1 0 0 forward_v I I I I #
coedge $-1 $155 $156 $157 $158 reversed $61 $-1 #
face $-1 $-1 $159 $33 $-1 $160 forward single #
loop $-1 $161 $162 $63 #
cone-surface $-1 -35.302214936682297 -17.013611815886215 3.0347961139503026 0 0.83867057594974714 -0.54463902268945019 0.5 0 0 1 I I -0.70710678118654746 0.70710678118654746 0.5 forward I I I I #
loop $-1 $-1 $163 $42 #
coedge $-1 $102 $102 $164 $165 reversed $64 $-1 #
face $-1 $-1 $166 $34 $-1 $167 forward single #
loop $-1 $168 $169 $66 #
cone-surface $-1 -31.928594594154287 -17.013611815886215 3.0347961139503026 0 0.83867057594974714 -0.54463902268945019 0.5 0 0 1 I I -0.70710678118654746 0.70710678118654746 0.5 forward I I I I #
loop $-1 $-1 $170 $43 #
coedge $-1 $107 $107 $171 $172 reversed $67 $-1 #
face $-1 $-1 $173 $35 $-1 $174 forward single #
loop $-1 $175 $176 $69 #
cone-surface $-1 -28.554974251626273 -17.013611815886215 3.0347961139503026 0 0.83867057594974714 -0.54463902268945019 0.5 0 0 1 I I -0.70710678118654746 0.70710678118654746 0.5 forward I I I I #
loop $-1 $-1 $177 $44 #
coedge $-1 $112 $112 $178 $179 reversed $70 $-1 #
face $-1 $180 $181 $27 $-1 $182 reversed single #
loop $-1 $-1 $183 $72 #
plane-surface $-1 0 -19.78412818241905 0 0 1 0 0 0 1 forward_v I I I I #
coedge $-1 $184 $185 $186 $187 forward $73 $-1 #
coedge $-1 $188 $75 $189 $190 forward $46 $-1 #
coedge $-1 $75 $188 $191 $192 forward $46 $-1 #
coedge $-1 $193 $194 $75 $120 reversed $195 $-1 #
edge $-1 $196 -19.78412818241905 $197 19.78412818241905 $119 $198 forward 7 unknown #
face $-1 $199 $200 $28 $-1 $201 reversed single #
loop $-1 $-1 $202 $76 #
plane-surface $-1 0 19.78412818241905 0 0 -1 0 0 0 -1 forward_v I I I I #
coedge $-1 $127 $203 $204 $205 reversed $77 $-1 #
coedge $-1 $206 $79 $207 $208 reversed $49 $-1 #
coedge $-1 $79 $206 $209 $210 reversed $49 $-1 #
coedge $-1 $211 $124 $79 $128 reversed $77 $-1 #
edge $-1 $212 -19.78412818241905 $213 19.78412818241905 $127 $214 forward 7 unknown #
face $-1 $215 $216 $29 $-1 $217 reversed single #
loop $-1 $-1 $135 $80 #
plane-surface $-1 0 0 5.8600072046408913 0 0 1 1 0 0 forward_v I I I I #
coedge $-1 $218 $219 $220 $221 reversed $81 $-1 #
coedge $-1 $222 $83 $223 $224 reversed $52 $-1 #
coedge $-1 $83 $222 $218 $225 forward $52 $-1 #
coedge $-1 $220 $226 $83 $136 forward $130 $-1 #
edge $-1 $227 -24.013652301837165 $228 -3.0616334245571046 $135 $229 forward 7 unknown #
loop $-1 $-1 $142 $84 #
plane-surface $-1 -27.075285726394277 -8.1948538882581587 28.905580714392272 0 0.70710678939079041 0.70710677298230451 1 0 0 forward_v I I I I #
loop $-1 $-1 $230 $54 #
coedge $-1 $140 $140 $141 $231 reversed $85 $-1 #
coedge $-1 $141 $141 $140 $231 forward $87 $-1 #
coedge $-1 $142 $142 $88 $143 forward $137 $-1 #
edge $-1 $232 1.0467282402076995e-015 $232 6.2831853071796013 $142 $233 forward 7 unknown #
loop $-1 $-1 $149 $89 #
plane-surface $-1 -27.075285726394277 -8.1948538882581587 28.905580714392272 0 0.70710678939079041 0.70710677298230451 1 0 0 forward_v I I I I #
loop $-1 $-1 $234 $57 #
coedge $-1 $147 $147 $148 $235 reversed $90 $-1 #
coedge $-1 $148 $148 $147 $235 forward $92 $-1 #
coedge $-1 $149 $149 $93 $150 forward $144 $-1 #
edge $-1 $236 1.0467282402076995e-015 $236 6.2831853071796013 $149 $237 forward 7 unknown #
face $-1 $238 $239 $32 $-1 $240 forward single #
loop $-1 $-1 $241 $94 #
plane-surface $-1 -37.551295165034304 0 4.3600072046408913 -1 0 0 0 0 1 forward_v I I I I #
coedge $-1 $242 $243 $244 $245 reversed $95 $-1 #
coedge $-1 $156 $97 $246 $247 reversed $61 $-1 #
coedge $-1 $97 $155 $242 $248 reversed $61 $-1 #
coedge $-1 $244 $249 $97 $158 forward $239 $-1 #
edge $-1 $250 24.92631735045428 $251 27.230788593588837 $157 $252 forward 7 unknown #
loop $-1 $-1 $164 $98 #
plane-surface $-1 -31.928594594154283 -19.784128182419039 2.3114325630451305 0 -0.83867057594974714 0.54463902268945019 1 0 0 forward_v I I I I #
loop $-1 $-1 $253 $63 #
coedge $-1 $162 $162 $163 $254 reversed $99 $-1 #
coedge $-1 $163 $163 $162 $254 forward $101 $-1 #
coedge $-1 $164 $164 $102 $165 forward $159 $-1 #
edge $-1 $255 -2.9089495570898117e-016 $255 6.2831853071796004 $164 $256 forward 7 unknown #
loop $-1 $-1 $171 $103 #
plane-surface $-1 -31.928594594154283 -19.784128182419039 2.3114325630451305 0 -0.83867057594974714 0.54463902268945019 1 0 0 forward_v I I I I #
loop $-1 $-1 $257 $66 #
coedge $-1 $169 $169 $170 $258 reversed $104 $-1 #
coedge $-1 $170 $170 $169 $258 forward $106 $-1 #
coedge $-1 $171 $171 $107 $172 forward $166 $-1 #
edge $-1 $259 -2.9089495570898117e-016 $259 6.2831853071796004 $171 $260 forward 7 unknown #
loop $-1 $-1 $178 $108 #
plane-surface $-1 -31.928594594154283 -19.784128182419039 2.3114325630451305 0 -0.83867057594974714 0.54463902268945019 1 0 0 forward_v I I I I #
loop $-1 $-1 $261 $69 #
coedge $-1 $176 $176 $177 $262 reversed $109 $-1 #
coedge $-1 $177 $177 $176 $262 forward $111 $-1 #
coedge $-1 $178 $178 $112 $179 forward $173 $-1 #
edge $-1 $263 -2.9089495570898117e-016 $263 6.2831853071796004 $178 $264 forward 7 unknown #
face $-1 $265 $266 $27 $-1 $267 reversed single #
loop $-1 $-1 $268 $113 #
plane-surface $-1 -41.51615955076754 0 0 1 0 0 0 0 -1 forward_v I I I I #
coedge $-1 $269 $191 $270 $271 forward $114 $-1 #
coedge $-1 $272 $116 $269 $273 forward $73 $-1 #
coedge $-1 $116 $272 $274 $275 forward $73 $-1 #
coedge $-1 $194 $193 $116 $187 reversed $195 $-1 #
edge $-1 $276 -19.78412818241905 $277 19.78412818241905 $186 $278 forward 7 unknown #
coedge $-1 $118 $117 $279 $280 forward $46 $-1 #
coedge $-1 $281 $282 $117 $190 reversed $266 $-1 #
edge $-1 $197 -41.51615955076754 $283 41.51615955076754 $189 $284 forward 7 unknown #
coedge $-1 $183 $285 $118 $192 reversed $114 $-1 #
edge $-1 $286 -41.51615955076754 $196 41.51615955076754 $191 $287 forward 7 unknown #
coedge $-1 $186 $119 $285 $288 forward $195 $-1 #
coedge $-1 $119 $186 $281 $289 reversed $195 $-1 #
loop $-1 $-1 $193 $265 #
vertex $-1 $120 $290 #
vertex $-1 $120 $291 #
straight-curve $-1 41.51615955076754 0 5.8600072046408913 0 1 0 I I #
face $-1 $292 $293 $28 $-1 $294 forward single #
loop $-1 $-1 $295 $121 #
plane-surface $-1 -41.51615955076754 0 0 1 0 0 0 0 -1 forward_v I I I I #
coedge $-1 $209 $296 $211 $297 forward $122 $-1 #
coedge $-1 $124 $211 $298 $299 reversed $77 $-1 #
coedge $-1 $300 $207 $124 $205 forward $301 $-1 #
edge $-1 $213 0.68000360232044565 $302 3.6800036023204457 $204 $303 forward 7 unknown #
coedge $-1 $126 $125 $295 $304 reversed $49 $-1 #
coedge $-1 $204 $305 $125 $208 forward $301 $-1 #
edge $-1 $306 -21.749295871817079 $213 -17.784431486083843 $207 $307 forward 7 unknown #
coedge $-1 $308 $202 $126 $210 forward $122 $-1 #
edge $-1 $212 17.784431486083843 $309 21.749295871817079 $209 $310 forward 7 unknown #
coedge $-1 $203 $127 $202 $297 reversed $77 $-1 #
vertex $-1 $210 $311 #
vertex $-1 $208 $312 #
straight-curve $-1 -37.551295165034304 0 2.8600072046408913 0 -1 0 I I #
face $-1 $-1 $313 $29 $-1 $314 forward single #
loop $-1 $-1 $315 $129 #
plane-surface $-1 0 19.78412818241905 0 0 -1 0 0 0 -1 forward_v I I I I #
coedge $-1 $219 $132 $134 $225 reversed $81 $-1 #
coedge $-1 $132 $218 $315 $316 reversed $81 $-1 #
coedge $-1 $317 $135 $132 $221 forward $130 $-1 #
edge $-1 $228 -10.408212256931641 $318 -5.4748031612309056 $220 $319 forward 7 unknown #
coedge $-1 $134 $133 $320 $321 reversed $52 $-1 #
coedge $-1 $322 $323 $133 $224 forward $313 $-1 #
edge $-1 $324 -27.99276718172629 $227 -21.015873048901746 $223 $325 forward 7 unknown #
edge $-1 $326 -39.568256364838128 $228 -32.59136223201358 $218 $327 forward 7 unknown #
coedge $-1 $135 $317 $322 $328 forward $130 $-1 #
vertex $-1 $224 $329 #
vertex $-1 $136 $330 #
straight-curve $-1 -13.537642863197139 14.850719086718318 5.8600072046408904 1 0 0 I I #
coedge $-1 $230 $230 $-1 $331 reversed $139 $-1 #
edge $-1 $332 0 $332 6.2831853071796004 $140 $333 forward 7 unknown #
vertex $-1 $143 $334 #
ellipse-curve $-1 -31.565004057240003 17.317423634568684 3.3933025995503878 0 0.70710678939079041 0.70710677298230451 1.5 0 0 1 I I #
coedge $-1 $234 $234 $-1 $335 reversed $146 $-1 #
edge $-1 $336 0 $336 6.2831853071796004 $147 $337 forward 7 unknown #
vertex $-1 $150 $338 #
ellipse-curve $-1 -22.585567395548548 17.317423634568684 3.3933025995503878 0 0.70710678939079041 0.70710677298230451 1.5 0 0 1 I I #
face $-1 $-1 $339 $32 $-1 $340 reversed single #
loop $-1 $-1 $244 $151 #
plane-surface $-1 0 0 5.8600072046408913 0 0 1 1 0 0 forward_v I I I I #
coedge $-1 $341 $342 $243 $343 reversed $152 $-1 #
coedge $-1 $344 $154 $156 $248 forward $95 $-1 #
coedge $-1 $154 $344 $241 $343 forward $95 $-1 #
coedge $-1 $345 $157 $154 $245 forward $239 $-1 #
edge $-1 $251 10.341596726197121 $346 21.586997867957162 $244 $347 forward 7 unknown #
coedge $-1 $348 $349 $155 $247 forward $339 $-1 #
edge $-1 $350 -21.455604282026769 $250 -17.907029640430991 $246 $351 forward 7 unknown #
edge $-1 $251 -4.2311901041445257 $350 1.9585287993478785e-014 $156 $352 forward 7 unknown #
coedge $-1 $157 $345 $348 $353 forward $239 $-1 #
vertex $-1 $247 $354 #
vertex $-1 $158 $355 #
straight-curve $-1 -26.305894023274263 -44.710445532873329 5.8600072046408904 0 1 0 I I #
coedge $-1 $253 $253 $-1 $356 reversed $161 $-1 #
edge $-1 $357 0 $357 6.2831853071796004 $162 $358 forward 7 unknown #
vertex $-1 $165 $359 #
ellipse-curve $-1 -35.302214936682297 -18.631892560851767 4.0857198838430069 0 -0.83867057594974714 0.54463902268945019 1 0 0 1 I I #
coedge $-1 $257 $257 $-1 $360 reversed $168 $-1 #
edge $-1 $361 0 $361 6.2831853071796004 $169 $362 forward 7 unknown #
vertex $-1 $172 $363 #
ellipse-curve $-1 -31.928594594154287 -18.631892560851767 4.0857198838430069 0 -0.83867057594974714 0.54463902268945019 1 0 0 1 I I #
coedge $-1 $261 $261 $-1 $364 reversed $175 $-1 #
edge $-1 $365 0 $365 6.2831853071796004 $176 $366 forward 7 unknown #
vertex $-1 $179 $367 #
ellipse-curve $-1 -28.554974251626273 -18.631892560851767 4.0857198838430069 0 -0.83867057594974714 0.54463902268945019 1 0 0 1 I I #
face $-1 $-1 $195 $27 $-1 $368 reversed single #
loop $-1 $-1 $281 $180 #
plane-surface $-1 0 19.78412818241905 0 0 -1 0 0 0 -1 forward_v I I I I #
coedge $-1 $369 $279 $282 $370 forward $181 $-1 #
coedge $-1 $285 $183 $184 $273 reversed $114 $-1 #
coedge $-1 $279 $369 $183 $271 reversed $181 $-1 #
edge $-1 $286 -5.8600072046408913 $371 5.8600072046408913 $270 $372 forward 7 unknown #
coedge $-1 $185 $184 $369 $373 forward $73 $-1 #
edge $-1 $277 -41.51615955076754 $371 41.51615955076754 $269 $374 forward 7 unknown #
coedge $-1 $282 $281 $185 $275 reversed $266 $-1 #
edge $-1 $375 -41.51615955076754 $276 41.51615955076754 $274 $376 forward 7 unknown #
vertex $-1 $187 $377 #
vertex $-1 $288 $378 #
straight-curve $-1 41.51615955076754 0 -5.8600072046408913 0 -1 0 I I #
coedge $-1 $268 $270 $188 $280 reversed $181 $-1 #
edge $-1 $283 -19.78412818241905 $286 19.78412818241905 $279 $379 forward 7 unknown #
coedge $-1 $274 $189 $194 $289 forward $266 $-1 #
coedge $-1 $189 $274 $268 $370 reversed $266 $-1 #
vertex $-1 $190 $380 #
straight-curve $-1 0 19.78412818241905 5.8600072046408913 -1 0 0 I I #
coedge $-1 $191 $269 $193 $288 reversed $114 $-1 #
vertex $-1 $280 $381 #
straight-curve $-1 0 -19.78412818241905 5.8600072046408913 1 0 0 I I #
edge $-1 $196 -5.8600072046408913 $277 5.8600072046408913 $193 $382 forward 7 unknown #
edge $-1 $197 -5.8600072046408913 $276 5.8600072046408913 $194 $383 forward 7 unknown #
point $-1 41.51615955076754 -19.78412818241905 5.8600072046408913 #
point $-1 41.51615955076754 19.78412818241905 5.8600072046408913 #
face $-1 $-1 $301 $28 $-1 $384 reversed single #
loop $-1 $-1 $298 $199 #
plane-surface $-1 0 0 5.8600072046408913 0 0 1 1 0 0 forward_v I I I I #
coedge $-1 $385 $386 $206 $304 forward $200 $-1 #
coedge $-1 $202 $308 $387 $388 reversed $122 $-1 #
edge $-1 $389 -3.6800036023204457 $212 -0.68000360232044565 $202 $390 forward 7 unknown #
coedge $-1 $387 $391 $203 $299 forward $293 $-1 #
edge $-1 $302 -19.78412818241905 $389 19.78412818241905 $298 $392 forward 7 unknown #
coedge $-1 $305 $204 $391 $393 reversed $301 $-1 #
loop $-1 $-1 $204 $292 #
vertex $-1 $205 $394 #
straight-curve $-1 -37.551295165034304 -19.78412818241905 2.1800036023204457 0 0 1 I I #
edge $-1 $309 -19.78412818241905 $306 19.78412818241905 $295 $395 forward 7 unknown #
coedge $-1 $207 $300 $385 $396 forward $301 $-1 #
vertex $-1 $304 $397 #
straight-curve $-1 -19.766863678950461 -19.78412818241905 2.8600072046408913 1 0 0 I I #
coedge $-1 $296 $209 $386 $398 reversed $122 $-1 #
vertex $-1 $304 $399 #
straight-curve $-1 -19.766863678950461 19.78412818241905 2.8600072046408913 -1 0 0 I I #
point $-1 -37.551295165034304 19.78412818241905 2.8600072046408913 #
point $-1 -37.551295165034304 -19.78412818241905 2.8600072046408913 #
loop $-1 $-1 $223 $215 #
plane-surface $-1 -37.551295165034304 0 4.3600072046408913 -1 0 0 0 0 1 forward_v I I I I #
coedge $-1 $320 $400 $219 $316 forward $216 $-1 #
edge $-1 $318 37.949140759116958 $326 42.882549969297969 $315 $401 forward 7 unknown #
coedge $-1 $226 $220 $400 $402 forward $130 $-1 #
vertex $-1 $402 $403 #
straight-curve $-1 -16.599276287754243 25.258931343649955 5.860007204640894 0 1 0 I I #
coedge $-1 $404 $315 $222 $321 forward $216 $-1 #
edge $-1 $326 3.0616334245571046 $324 24.013652301837173 $320 $405 forward 7 unknown #
coedge $-1 $323 $223 $226 $328 reversed $313 $-1 #
coedge $-1 $223 $322 $404 $406 reversed $313 $-1 #
vertex $-1 $406 $407 #
straight-curve $-1 -37.551295165034304 -0.0097470862963833227 20.720473722494248 0 -0.70710677298230462 0.70710678939079052 I I #
vertex $-1 $321 $408 #
straight-curve $-1 -16.599276287754243 -8.1948538882581587 28.905580714392272 0 -0.70710677298230451 0.70710678939079041 I I #
edge $-1 $409 -19.78412818241905 $227 -14.850719086718312 $226 $410 forward 7 unknown #
point $-1 -37.551295165034304 14.850719086718312 5.8600072046408913 #
point $-1 -16.599276287754243 14.850719086718314 5.8600072046408904 #
edge $-1 $411 1 $411 0 $230 $-1 forward 7 unknown #
vertex $-1 $231 $412 #
ellipse-curve $-1 -31.565004057240003 13.253464016915183 -0.67065692379851172 0 0.70710678939079041 0.70710677298230451 1.5 0 0 1 I I #
point $-1 -30.065004057240003 17.317423634568691 3.3933025995503927 #
edge $-1 $413 1 $413 0 $234 $-1 forward 7 unknown #
vertex $-1 $235 $414 #
ellipse-curve $-1 -22.585567395548548 13.253464016915183 -0.67065692379851172 0 0.70710678939079041 0.70710677298230451 1.5 0 0 1 I I #
point $-1 -21.085567395548548 17.317423634568691 3.3933025995503927 #
loop $-1 $-1 $246 $238 #
plane-surface $-1 0 -19.78412818241905 0 0 1 0 0 0 1 forward_v I I I I #
coedge $-1 $342 $241 $415 $416 reversed $152 $-1 #
coedge $-1 $241 $341 $345 $417 reversed $152 $-1 #
edge $-1 $418 -1.9585287993478785e-014 $346 4.2311901041445275 $241 $419 forward 7 unknown #
coedge $-1 $243 $242 $349 $420 reversed $95 $-1 #
coedge $-1 $249 $244 $342 $417 forward $239 $-1 #
vertex $-1 $417 $421 #
straight-curve $-1 -15.964297297077142 -17.479656939284489 5.8600072046408913 -1 0 0 I I #
coedge $-1 $415 $246 $249 $353 reversed $339 $-1 #
coedge $-1 $246 $415 $344 $420 forward $339 $-1 #
vertex $-1 $247 $422 #
straight-curve $-1 -26.305894023274263 -19.784128182419053 23.767036845071882 0 0 1 I I #
straight-curve $-1 -26.305894023274263 -19.784128182419039 2.3114325630451305 0 -0.54463902268945019 -0.83867057594974714 I I #
edge $-1 $423 -37.551295165034304 $250 -26.305894023274263 $348 $424 forward 7 unknown #
point $-1 -26.305894023274263 -19.78412818241905 5.8600072046408913 #
point $-1 -26.305894023274263 -17.479656939284492 5.8600072046408913 #
edge $-1 $425 1 $425 0 $253 $-1 forward 7 unknown #
vertex $-1 $254 $426 #
ellipse-curve $-1 -35.302214936682297 -17.432947103861089 3.3071156252950278 0 -0.83867057594974714 0.54463902268945019 1 0 0 1 I I #
point $-1 -34.302214936682297 -18.631892560851782 4.0857198838430158 #
edge $-1 $427 1 $427 0 $257 $-1 forward 7 unknown #
vertex $-1 $258 $428 #
ellipse-curve $-1 -31.928594594154287 -17.432947103861089 3.3071156252950278 0 -0.83867057594974714 0.54463902268945019 1 0 0 1 I I #
point $-1 -30.928594594154287 -18.631892560851782 4.0857198838430158 #
edge $-1 $429 1 $429 0 $261 $-1 forward 7 unknown #
vertex $-1 $262 $430 #
ellipse-curve $-1 -28.554974251626273 -17.432947103861089 3.3071156252950278 0 -0.83867057594974714 0.54463902268945019 1 0 0 1 I I #
point $-1 -27.554974251626273 -18.631892560851782 4.0857198838430158 #
plane-surface $-1 41.51615955076754 0 0 -1 0 0 0 0 1 forward_v I I I I #
coedge $-1 $270 $268 $272 $373 reversed $181 $-1 #
edge $-1 $283 -5.8600072046408913 $375 5.8600072046408913 $282 $431 forward 7 unknown #
vertex $-1 $373 $432 #
straight-curve $-1 -41.51615955076754 -19.78412818241905 0 0 0 -1 I I #
edge $-1 $371 -19.78412818241905 $375 19.78412818241905 $369 $433 forward 7 unknown #
straight-curve $-1 0 -19.78412818241905 -5.8600072046408913 -1 0 0 I I #
vertex $-1 $275 $434 #
straight-curve $-1 0 19.78412818241905 -5.8600072046408913 1 0 0 I I #
point $-1 41.51615955076754 19.78412818241905 -5.8600072046408913 #
point $-1 41.51615955076754 -19.78412818241905 -5.8600072046408913 #
straight-curve $-1 -41.51615955076754 0 5.8600072046408913 0 -1 0 I I #
point $-1 -41.51615955076754 19.78412818241905 5.8600072046408913 #
point $-1 -41.51615955076754 -19.78412818241905 5.8600072046408913 #
straight-curve $-1 41.51615955076754 -19.78412818241905 0 0 0 -1 I I #
straight-curve $-1 41.51615955076754 19.78412818241905 0 0 0 -1 I I #
plane-surface $-1 0 -19.78412818241905 0 0 1 0 0 0 1 forward_v I I I I #
coedge $-1 $435 $295 $305 $396 reversed $200 $-1 #
coedge $-1 $295 $435 $308 $398 forward $200 $-1 #
coedge $-1 $436 $298 $296 $388 forward $293 $-1 #
edge $-1 $389 37.551295165034304 $437 41.51615955076754 $296 $438 forward 7 unknown #
vertex $-1 $388 $439 #
straight-curve $-1 -37.551295165034304 19.78412818241905 2.1800036023204457 0 0 -1 I I #
coedge $-1 $298 $436 $300 $393 forward $293 $-1 #
straight-curve $-1 -37.551295165034304 0 5.8600072046408913 0 1 0 I I #
edge $-1 $440 -41.51615955076754 $302 -37.551295165034304 $300 $441 forward 7 unknown #
point $-1 -37.551295165034304 -19.78412818241905 5.8600072046408913 #
straight-curve $-1 -41.51615955076754 0 2.8600072046408913 0 -1 0 I I #
edge $-1 $440 -5.8600072046408913 $306 -2.8600072046408913 $385 $442 forward 7 unknown #
point $-1 -41.51615955076754 -19.78412818241905 2.8600072046408913 #
edge $-1 $437 -5.8600072046408913 $309 -2.8600072046408913 $308 $443 forward 7 unknown #
point $-1 -41.51615955076754 19.78412818241905 2.8600072046408913 #
coedge $-1 $315 $404 $317 $402 reversed $216 $-1 #
straight-curve $-1 -16.599276287754243 19.78412818241905 43.809147963757852 0 0 -1 I I #
edge $-1 $318 16.599276287754243 $409 37.551295165034304 $400 $444 forward 7 unknown #
point $-1 -16.599276287754243 19.78412818241905 5.8600072046408913 #
coedge $-1 $400 $320 $323 $406 forward $216 $-1 #
straight-curve $-1 -13.537642863197139 19.78412818241905 0.92659799445988789 -1 0 0 I I #
edge $-1 $324 -42.882549969297969 $409 -37.949140759116958 $404 $445 forward 7 unknown #
point $-1 -37.551295165034311 19.78412818241905 0.92659799445988611 #
point $-1 -16.599276287754243 19.78412818241905 0.92659799445988611 #
vertex $-1 $328 $446 #
straight-curve $-1 -37.551295165034304 0 5.8600072046408913 0 -1 0 I I #
vertex $-1 $331 $447 #
point $-1 -30.065004057240003 13.253464016915183 -0.67065692379851172 #
vertex $-1 $335 $448 #
point $-1 -21.085567395548548 13.253464016915183 -0.67065692379851172 #
coedge $-1 $349 $348 $341 $416 forward $339 $-1 #
edge $-1 $423 17.907029640430991 $418 21.455604282026769 $415 $449 forward 7 unknown #
edge $-1 $346 17.479656939284489 $423 19.78412818241905 $345 $450 forward 7 unknown #
vertex $-1 $416 $451 #
straight-curve $-1 -37.551295165034304 -19.784128182419039 2.3114325630451305 0 0.54463902268945019 0.83867057594974714 I I #
edge $-1 $418 -21.586997867957162 $350 -10.341596726197121 $349 $452 forward 7 unknown #
point $-1 -37.551295165034304 -17.479656939284489 5.8600072046408913 #
point $-1 -26.305894023274263 -19.78412818241905 2.311432563045114 #
vertex $-1 $353 $453 #
straight-curve $-1 0 -19.78412818241905 5.8600072046408913 1 0 0 I I #
vertex $-1 $356 $454 #
point $-1 -34.302214936682297 -17.432947103861089 3.3071156252950278 #
vertex $-1 $360 $455 #
point $-1 -30.928594594154287 -17.432947103861089 3.3071156252950278 #
vertex $-1 $364 $456 #
point $-1 -27.554974251626273 -17.432947103861089 3.3071156252950278 #
straight-curve $-1 -41.51615955076754 19.78412818241905 0 0 0 -1 I I #
point $-1 -41.51615955076754 -19.78412818241905 -5.8600072046408913 #
straight-curve $-1 -41.51615955076754 0 -5.8600072046408913 0 1 0 I I #
point $-1 -41.51615955076754 19.78412818241905 -5.8600072046408913 #
coedge $-1 $386 $385 $436 $457 reversed $200 $-1 #
coedge $-1 $391 $387 $435 $457 forward $293 $-1 #
vertex $-1 $388 $458 #
straight-curve $-1 0 19.78412818241905 5.8600072046408913 -1 0 0 I I #
point $-1 -37.551295165034304 19.78412818241905 5.8600072046408913 #
vertex $-1 $457 $459 #
straight-curve $-1 0 -19.78412818241905 5.8600072046408913 1 0 0 I I #
straight-curve $-1 -41.51615955076754 -19.78412818241905 0 0 0 -1 I I #
straight-curve $-1 -41.51615955076754 19.78412818241905 0 0 0 -1 I I #
straight-curve $-1 0 19.78412818241905 5.8600072046408913 -1 0 0 I I #
straight-curve $-1 -37.551295165034311 19.78412818241905 43.809147963757852 0 0 1 I I #
point $-1 -37.551295165034304 19.78412818241905 5.8600072046408913 #
point $-1 -31.565004057240003 12.192803832828998 -1.7313170832719686 #
point $-1 -22.585567395548548 12.192803832828998 -1.7313170832719686 #
straight-curve $-1 -37.551295165034304 -19.784128182419053 23.767036845071882 0 0 -1 I I #
straight-curve $-1 -37.551295165034304 0 5.8600072046408913 0 -1 0 I I #
point $-1 -37.551295165034304 -19.78412818241905 2.311432563045114 #
straight-curve $-1 -15.964297297077142 -19.78412818241905 2.3114325630451162 1 0 0 I I #
point $-1 -37.551295165034304 -19.78412818241905 5.8600072046408913 #
point $-1 -35.302214936682297 -16.59427652791134 2.7624766026055774 #
point $-1 -31.928594594154287 -16.59427652791134 2.7624766026055774 #
point $-1 -28.554974251626273 -16.59427652791134 2.7624766026055774 #
edge $-1 $437 -19.78412818241905 $440 19.78412818241905 $435 $460 forward 7 unknown #
point $-1 -41.51615955076754 19.78412818241905 5.8600072046408913 #
point $-1 -41.51615955076754 -19.78412818241905 5.8600072046408913 #
straight-curve $-1 -41.51615955076754 0 5.8600072046408913 0 -1 0 I I #
End-of-ACIS-data 