500 0 7 0           
7 Unknown 11 ACIS 5.0 NT 24 Fri Mar 26 18:47:55 1999 
-1 9.9999999999999995e-007 1e-010 
body $-1 $7 $-1 $8 #
body $-1 $9 $-1 $10 #
body $-1 $11 $-1 $12 #
body $-1 $13 $-1 $14 #
body $-1 $15 $-1 $16 #
body $-1 $17 $-1 $18 #
body $-1 $19 $-1 $20 #
lump $-1 $-1 $21 $0 #
transform $-1 1 0 0 0 1 0 0 0 1 58.230536820581683 31.682124923967653 6.9899467669557591 1 rotate no_reflect no_shear #
lump $-1 $-1 $22 $1 #
transform $-1 1 0 0 0 1 0 0 0 1 58.230536820581683 31.682124923967653 6.9899467669557591 1 rotate no_reflect no_shear #
lump $-1 $-1 $23 $2 #
transform $-1 1 0 0 0 1 0 0 0 1 58.230536820581683 31.682124923967653 6.9899467669557591 1 rotate no_reflect no_shear #
lump $-1 $-1 $24 $3 #
transform $-1 1 0 0 0 1 0 0 0 1 58.230536820581683 31.682124923967653 6.9899467669557591 1 rotate no_reflect no_shear #
lump $-1 $-1 $25 $4 #
transform $-1 1 0 0 0 1 0 0 0 1 58.230536820581683 31.682124923967653 6.9899467669557591 1 rotate no_reflect no_shear #
lump $-1 $-1 $26 $5 #
transform $-1 1 0 0 0 1 0 0 0 1 58.230536820581683 31.682124923967653 6.9899467669557591 1 rotate no_reflect no_shear #
lump $-1 $-1 $27 $6 #
transform $-1 1 0 0 0 1 0 0 0 1 58.230536820581683 31.682124923967653 6.9899467669557591 1 rotate no_reflect no_shear #
shell $-1 $-1 $-1 $28 $-1 $7 #
shell $-1 $-1 $-1 $29 $-1 $9 #
shell $-1 $-1 $-1 $30 $-1 $11 #
shell $-1 $-1 $-1 $31 $-1 $13 #
shell $-1 $-1 $-1 $32 $-1 $15 #
shell $-1 $-1 $-1 $33 $-1 $17 #
shell $-1 $-1 $-1 $34 $-1 $19 #
face $-1 $35 $36 $21 $-1 $37 forward single #
face $-1 $38 $39 $22 $-1 $40 reversed single #
face $-1 $41 $42 $23 $-1 $43 forward single #
face $-1 $44 $45 $24 $-1 $46 forward single #
face $-1 $47 $48 $25 $-1 $49 reversed single #
face $-1 $50 $51 $26 $-1 $52 forward single #
face $-1 $53 $54 $27 $-1 $55 forward single #
face $-1 $56 $57 $21 $-1 $58 reversed single #
loop $-1 $-1 $59 $28 #
plane-surface $-1 0 0 6.9899467669557591 0 0 1 1 0 0 forward_v I I I I #
face $-1 $60 $61 $22 $-1 $62 reversed single #
loop $-1 $-1 $63 $29 #
plane-surface $-1 -129.93113413567158 15.343403546051146 94.723241177451087 0 1 0 -0.61566148304635926 0 0.78801074757464917 forward_v I I I I #
face $-1 $64 $65 $23 $-1 $66 forward single #
loop $-1 $67 $68 $30 #
cone-surface $-1 -54.423744723844564 20.011609654027293 3.4065124978924004 0.61566148304635926 0 -0.78801074757464917 0.78801074757464917 0 0.61566148304635926 1 I I 0 1 1 forward I I I I #
face $-1 $69 $70 $24 $-1 $71 forward single #
loop $-1 $72 $73 $31 #
cone-surface $-1 -54.423744723844564 27.013918815991513 3.4065124978924004 0.61566148304635926 0 -0.78801074757464917 0.78801074757464917 0 0.61566148304635926 1 I I 0 1 1 forward I I I I #
face $-1 $74 $75 $25 $-1 $76 reversed single #
loop $-1 $-1 $77 $32 #
plane-surface $-1 75.446463615692892 15.932395461442788 165.25662201739115 0 -1 0 -0.77714596973225614 0 -0.62932038083071107 forward_v I I I I #
face $-1 $78 $79 $26 $-1 $80 forward single #
loop $-1 $81 $82 $33 #
cone-surface $-1 54.346762913128984 4.9594231500802515 2.8927498380440122 -0.77714596973225614 0 -0.62932038083071107 0.9439805712460666 0 -1.1657189545983841 1 I I 0 1 1.5 forward I I I I #
face $-1 $83 $84 $27 $-1 $85 forward single #
loop $-1 $86 $87 $34 #
cone-surface $-1 54.346762913128984 11.543206536897774 2.8927498380440122 -0.77714596973225614 0 -0.62932038083071107 0.9439805712460666 0 -1.1657189545983841 1 I I 0 1 1.5 forward I I I I #
face $-1 $88 $89 $21 $-1 $90 reversed single #
loop $-1 $-1 $91 $35 #
plane-surface $-1 0 0 -6.9899467669557591 0 0 1 1 0 0 forward_v I I I I #
coedge $-1 $92 $93 $94 $95 forward $36 $-1 #
face $-1 $96 $97 $22 $-1 $98 forward single #
loop $-1 $-1 $99 $38 #
plane-surface $-1 -58.23053682058169 23.512764235009403 2.9506634741316731 -0.61566148304635926 0 0.78801074757464917 0.78801074757464917 0 0.61566148304635926 forward_v I I I I #
coedge $-1 $100 $101 $102 $103 reversed $39 $-1 #
face $-1 $-1 $104 $23 $-1 $105 forward single #
loop $-1 $106 $107 $41 #
cone-surface $-1 -52.894145258732678 20.011609654027293 1.4487145014537699 0.61566148304635926 0 -0.78801074757464917 0.39400537378732459 0 0.30783074152317963 1 I I -0.70710678118654746 0.70710678118654746 0.5 forward I I I I #
loop $-1 $-1 $108 $30 #
coedge $-1 $68 $68 $109 $110 reversed $42 $-1 #
face $-1 $-1 $111 $24 $-1 $112 forward single #
loop $-1 $113 $114 $44 #
cone-surface $-1 -52.894145258732678 27.013918815991513 1.4487145014537699 0.61566148304635926 0 -0.78801074757464917 0.39400537378732459 0 0.30783074152317963 1 I I -0.70710678118654746 0.70710678118654746 0.5 forward I I I I #
loop $-1 $-1 $115 $31 #
coedge $-1 $73 $73 $116 $117 reversed $45 $-1 #
face $-1 $118 $119 $25 $-1 $120 reversed single #
loop $-1 $-1 $121 $47 #
plane-surface $-1 -15.060790395228707 8.2513148434890091 91.96529480158074 0.77714596973225614 0 0.62932038083071107 0.62932038083071107 0 -0.77714596973225614 forward_v I I I I #
coedge $-1 $122 $123 $124 $125 reversed $48 $-1 #
face $-1 $-1 $126 $26 $-1 $127 forward single #
loop $-1 $128 $129 $50 #
cone-surface $-1 52.119954034526224 4.9594231500802515 1.0895156116575553 -0.77714596973225614 0 -0.62932038083071107 0.4719902856230333 0 -0.58285947729919207 1 I I -0.70710678118654757 0.70710678118654757 0.75 forward I I I I #
loop $-1 $-1 $130 $33 #
coedge $-1 $82 $82 $131 $132 reversed $51 $-1 #
face $-1 $-1 $133 $27 $-1 $134 forward single #
loop $-1 $135 $136 $53 #
cone-surface $-1 52.119954034526224 11.543206536897774 1.0895156116575553 -0.77714596973225614 0 -0.62932038083071107 0.4719902856230333 0 -0.58285947729919207 1 I I -0.70710678118654757 0.70710678118654757 0.75 forward I I I I #
loop $-1 $-1 $137 $34 #
coedge $-1 $87 $87 $138 $139 reversed $54 $-1 #
face $-1 $140 $141 $21 $-1 $142 reversed single #
loop $-1 $-1 $143 $56 #
plane-surface $-1 0 -31.682124923967653 0 0 1 0 0 0 1 forward_v I I I I #
coedge $-1 $144 $145 $146 $147 forward $57 $-1 #
coedge $-1 $148 $59 $149 $150 forward $36 $-1 #
coedge $-1 $59 $148 $151 $152 forward $36 $-1 #
coedge $-1 $153 $154 $59 $95 reversed $155 $-1 #
edge $-1 $156 -31.682124923967653 $157 31.682124923967653 $94 $158 forward 7 unknown #
face $-1 $159 $160 $22 $-1 $161 reversed single #
loop $-1 $-1 $102 $60 #
plane-surface $-1 0 0 6.9899467669557591 0 0 1 1 0 0 forward_v I I I I #
coedge $-1 $162 $163 $164 $165 reversed $61 $-1 #
coedge $-1 $101 $63 $166 $167 reversed $39 $-1 #
coedge $-1 $63 $100 $162 $168 reversed $39 $-1 #
coedge $-1 $164 $169 $63 $103 forward $97 $-1 #
edge $-1 $170 6.7350302472541088 $171 11.905076993550914 $102 $172 forward 7 unknown #
loop $-1 $-1 $109 $64 #
plane-surface $-1 -58.23053682058169 23.512764235009403 2.9506634741316731 -0.61566148304635926 0 0.78801074757464917 0.78801074757464917 0 0.61566148304635926 forward_v I I I I #
loop $-1 $-1 $173 $41 #
coedge $-1 $107 $107 $108 $174 reversed $65 $-1 #
coedge $-1 $108 $108 $107 $174 forward $67 $-1 #
coedge $-1 $109 $109 $68 $110 forward $104 $-1 #
edge $-1 $175 0 $175 6.2831853071796004 $109 $176 forward 7 unknown #
loop $-1 $-1 $116 $69 #
plane-surface $-1 -58.23053682058169 23.512764235009403 2.9506634741316731 -0.61566148304635926 0 0.78801074757464917 0.78801074757464917 0 0.61566148304635926 forward_v I I I I #
loop $-1 $-1 $177 $44 #
coedge $-1 $114 $114 $115 $178 reversed $70 $-1 #
coedge $-1 $115 $115 $114 $178 forward $72 $-1 #
coedge $-1 $116 $116 $73 $117 forward $111 $-1 #
edge $-1 $179 0 $179 6.2831853071796004 $116 $180 forward 7 unknown #
face $-1 $181 $182 $25 $-1 $183 forward single #
loop $-1 $-1 $184 $74 #
plane-surface $-1 75.446463615692892 0.57023422553523062 165.25662201739115 0 1 0 0.77714596973225614 0 0.62932038083071107 forward_v I I I I #
coedge $-1 $185 $186 $187 $188 reversed $75 $-1 #
coedge $-1 $123 $77 $189 $190 reversed $48 $-1 #
coedge $-1 $77 $122 $185 $191 reversed $48 $-1 #
coedge $-1 $187 $192 $77 $125 forward $182 $-1 #
edge $-1 $193 -20.507305012735237 $194 -16.027656000437005 $124 $195 forward 7 unknown #
loop $-1 $-1 $131 $78 #
plane-surface $-1 -15.060790395228707 8.2513148434890091 91.96529480158074 0.77714596973225614 0 0.62932038083071107 0.62932038083071107 0 -0.77714596973225614 forward_v I I I I #
loop $-1 $-1 $196 $50 #
coedge $-1 $129 $129 $130 $197 reversed $79 $-1 #
coedge $-1 $130 $130 $129 $197 forward $81 $-1 #
coedge $-1 $131 $131 $82 $132 forward $126 $-1 #
edge $-1 $198 0 $198 6.2831853071796004 $131 $199 forward 7 unknown #
loop $-1 $-1 $138 $83 #
plane-surface $-1 -15.060790395228707 8.2513148434890091 91.96529480158074 0.77714596973225614 0 0.62932038083071107 0.62932038083071107 0 -0.77714596973225614 forward_v I I I I #
loop $-1 $-1 $200 $53 #
coedge $-1 $136 $136 $137 $201 reversed $84 $-1 #
coedge $-1 $137 $137 $136 $201 forward $86 $-1 #
coedge $-1 $138 $138 $87 $139 forward $133 $-1 #
edge $-1 $202 0 $202 6.2831853071796004 $138 $203 forward 7 unknown #
face $-1 $204 $205 $21 $-1 $206 reversed single #
loop $-1 $-1 $207 $88 #
plane-surface $-1 -58.230536820581683 0 0 1 0 0 0 0 -1 forward_v I I I I #
coedge $-1 $208 $151 $209 $210 forward $89 $-1 #
coedge $-1 $211 $91 $208 $212 forward $57 $-1 #
coedge $-1 $91 $211 $213 $214 forward $57 $-1 #
coedge $-1 $154 $153 $91 $147 reversed $155 $-1 #
edge $-1 $215 -31.682124923967653 $216 31.682124923967653 $146 $217 forward 7 unknown #
coedge $-1 $93 $92 $218 $219 forward $36 $-1 #
coedge $-1 $220 $221 $92 $150 reversed $205 $-1 #
edge $-1 $157 -58.230536820581683 $222 58.230536820581683 $149 $223 forward 7 unknown #
coedge $-1 $143 $224 $93 $152 reversed $89 $-1 #
edge $-1 $225 -58.230536820581683 $156 58.230536820581683 $151 $226 forward 7 unknown #
coedge $-1 $146 $94 $224 $227 forward $155 $-1 #
coedge $-1 $94 $146 $220 $228 reversed $155 $-1 #
loop $-1 $-1 $153 $204 #
vertex $-1 $95 $229 #
vertex $-1 $95 $230 #
straight-curve $-1 58.230536820581683 0 6.9899467669557591 0 1 0 I I #
face $-1 $-1 $231 $22 $-1 $232 reversed single #
loop $-1 $-1 $233 $96 #
plane-surface $-1 0 31.682124923967653 0 0 -1 0 0 0 -1 forward_v I I I I #
coedge $-1 $234 $99 $101 $168 forward $61 $-1 #
coedge $-1 $99 $234 $233 $235 reversed $61 $-1 #
coedge $-1 $236 $102 $99 $165 forward $97 $-1 #
edge $-1 $171 3.5870214285464446 $237 19.925742806462956 $164 $238 forward 7 unknown #
coedge $-1 $239 $240 $100 $167 forward $231 $-1 #
edge $-1 $241 -44.410957114593863 $170 -40.371673821769782 $166 $242 forward 7 unknown #
edge $-1 $171 -6.560883544049692 $241 -9.1534652039358102e-015 $101 $243 forward 7 unknown #
coedge $-1 $102 $236 $239 $244 forward $97 $-1 #
vertex $-1 $167 $245 #
vertex $-1 $103 $246 #
straight-curve $-1 -64.965567067835792 15.343403546051146 6.9899467669557609 1 0 0 I I #
coedge $-1 $173 $173 $-1 $247 reversed $106 $-1 #
edge $-1 $248 0 $248 6.2831853071796004 $107 $249 forward 7 unknown #
vertex $-1 $110 $250 #
ellipse-curve $-1 -55.645513447433281 20.011609654027293 4.9703051205437214 -0.61566148304635926 0 0.78801074757464917 0.78801074757464917 0 0.61566148304635926 1 I I #
coedge $-1 $177 $177 $-1 $251 reversed $113 $-1 #
edge $-1 $252 0 $252 6.2831853071796004 $114 $253 forward 7 unknown #
vertex $-1 $117 $254 #
ellipse-curve $-1 -55.645513447433281 27.013918815991513 4.9703051205437214 -0.61566148304635926 0 0.78801074757464917 0.78801074757464917 0 0.61566148304635926 1 I I #
face $-1 $-1 $255 $25 $-1 $256 reversed single #
loop $-1 $-1 $124 $118 #
plane-surface $-1 0 0 6.9899467669557591 0 0 1 1 0 0 forward_v I I I I #
coedge $-1 $257 $258 $259 $260 reversed $119 $-1 #
coedge $-1 $261 $121 $123 $191 forward $75 $-1 #
coedge $-1 $121 $261 $257 $262 forward $75 $-1 #
coedge $-1 $259 $124 $121 $188 forward $182 $-1 #
edge $-1 $194 -11.806738039698283 $263 3.5554231962092739 $187 $264 forward 7 unknown #
coedge $-1 $265 $266 $122 $190 forward $255 $-1 #
edge $-1 $267 -81.170270218036393 $193 -75.638364241739822 $189 $268 forward 7 unknown #
edge $-1 $194 109.34284078433922 $267 116.46107364116331 $123 $269 forward 7 unknown #
coedge $-1 $124 $259 $265 $270 forward $182 $-1 #
vertex $-1 $190 $271 #
vertex $-1 $125 $272 #
straight-curve $-1 37.723231807846446 15.932395461442788 6.9899467669557538 -1 0 0 I I #
coedge $-1 $196 $196 $-1 $273 reversed $128 $-1 #
edge $-1 $274 0 $274 6.2831853071796004 $129 $275 forward 7 unknown #
vertex $-1 $132 $276 #
ellipse-curve $-1 55.990712314432571 4.9594231500802515 4.2239937788074524 0.77714596973225614 0 0.62932038083071107 0.9439805712460666 0 -1.1657189545983841 1 I I #
coedge $-1 $200 $200 $-1 $277 reversed $135 $-1 #
edge $-1 $278 0 $278 6.2831853071796004 $136 $279 forward 7 unknown #
vertex $-1 $139 $280 #
ellipse-curve $-1 55.990712314432571 11.543206536897774 4.2239937788074524 0.77714596973225614 0 0.62932038083071107 0.9439805712460666 0 -1.1657189545983841 1 I I #
face $-1 $-1 $155 $21 $-1 $281 reversed single #
loop $-1 $-1 $220 $140 #
plane-surface $-1 0 31.682124923967653 0 0 -1 0 0 0 -1 forward_v I I I I #
coedge $-1 $282 $218 $221 $283 forward $141 $-1 #
coedge $-1 $224 $143 $144 $212 reversed $89 $-1 #
coedge $-1 $218 $282 $143 $210 reversed $141 $-1 #
edge $-1 $225 -6.9899467669557591 $284 6.9899467669557591 $209 $285 forward 7 unknown #
coedge $-1 $145 $144 $282 $286 forward $57 $-1 #
edge $-1 $216 -58.230536820581683 $284 58.230536820581683 $208 $287 forward 7 unknown #
coedge $-1 $221 $220 $145 $214 reversed $205 $-1 #
edge $-1 $288 -58.230536820581683 $215 58.230536820581683 $213 $289 forward 7 unknown #
vertex $-1 $147 $290 #
vertex $-1 $227 $291 #
straight-curve $-1 58.230536820581683 0 -6.9899467669557591 0 -1 0 I I #
coedge $-1 $207 $209 $148 $219 reversed $141 $-1 #
edge $-1 $222 -31.682124923967653 $225 31.682124923967653 $218 $292 forward 7 unknown #
coedge $-1 $213 $149 $154 $228 forward $205 $-1 #
coedge $-1 $149 $213 $207 $283 reversed $205 $-1 #
vertex $-1 $150 $293 #
straight-curve $-1 0 31.682124923967653 6.9899467669557591 -1 0 0 I I #
coedge $-1 $151 $208 $153 $227 reversed $89 $-1 #
vertex $-1 $219 $294 #
straight-curve $-1 0 -31.682124923967653 6.9899467669557591 1 0 0 I I #
edge $-1 $156 -6.9899467669557591 $216 6.9899467669557591 $153 $295 forward 7 unknown #
edge $-1 $157 -6.9899467669557591 $215 6.9899467669557591 $154 $296 forward 7 unknown #
point $-1 58.230536820581683 -31.682124923967653 6.9899467669557591 #
point $-1 58.230536820581683 31.682124923967653 6.9899467669557591 #
loop $-1 $-1 $166 $159 #
plane-surface $-1 -58.230536820581683 0 0 1 0 0 0 0 -1 forward_v I I I I #
coedge $-1 $297 $298 $163 $235 forward $160 $-1 #
coedge $-1 $163 $162 $240 $299 reversed $61 $-1 #
edge $-1 $237 15.473955956552853 $300 22.034839500602537 $233 $301 forward 7 unknown #
coedge $-1 $169 $164 $298 $302 forward $97 $-1 #
vertex $-1 $302 $303 #
straight-curve $-1 -53.060490074284886 11.756382117504701 6.9899467669557591 0 1 0 I I #
coedge $-1 $304 $166 $169 $244 reversed $231 $-1 #
coedge $-1 $166 $304 $234 $299 forward $231 $-1 #
vertex $-1 $167 $305 #
straight-curve $-1 -58.230536820581683 15.343403546051146 47.361620588725543 0 0 1 I I #
straight-curve $-1 -58.23053682058169 15.343403546051146 2.9506634741316731 -0.78801074757464917 0 -0.61566148304635926 I I #
edge $-1 $306 -31.682124923967653 $170 -15.343403546051146 $239 $307 forward 7 unknown #
point $-1 -58.230536820581683 15.343403546051146 6.9899467669557591 #
point $-1 -53.060490074284878 15.343403546051146 6.9899467669557591 #
edge $-1 $308 1 $308 0 $173 $-1 forward 7 unknown #
vertex $-1 $174 $309 #
ellipse-curve $-1 -53.201976000255854 20.011609654027293 1.8427198752410945 -0.61566148304635926 0 0.78801074757464917 0.78801074757464917 0 0.61566148304635926 1 I I #
point $-1 -54.857502699858614 20.011609654027293 5.5859666035900659 #
edge $-1 $310 1 $310 0 $177 $-1 forward 7 unknown #
vertex $-1 $178 $311 #
ellipse-curve $-1 -53.201976000255854 27.013918815991513 1.8427198752410945 -0.61566148304635926 0 0.78801074757464917 0.78801074757464917 0 0.61566148304635926 1 I I #
point $-1 -54.857502699858614 27.013918815991513 5.5859666035900659 #
loop $-1 $-1 $189 $181 #
plane-surface $-1 58.230536820581683 0 0 -1 0 0 0 0 1 forward_v I I I I #
coedge $-1 $258 $184 $186 $262 reversed $119 $-1 #
coedge $-1 $184 $257 $312 $313 reversed $119 $-1 #
coedge $-1 $192 $187 $184 $260 forward $182 $-1 #
edge $-1 $263 16.027656000437005 $314 20.507305012735237 $259 $315 forward 7 unknown #
coedge $-1 $186 $185 $266 $316 reversed $75 $-1 #
edge $-1 $317 -116.46107364116331 $263 -109.34284078433922 $257 $318 forward 7 unknown #
vertex $-1 $188 $319 #
straight-curve $-1 53.750887808283451 4.1256574217445046 6.9899467669557609 0 -1 0 I I #
coedge $-1 $312 $189 $192 $270 reversed $255 $-1 #
coedge $-1 $189 $312 $261 $316 forward $255 $-1 #
vertex $-1 $190 $320 #
straight-curve $-1 58.230536820581683 15.932395461442788 82.628311008695576 0 0 1 I I #
straight-curve $-1 -15.060790395228707 15.932395461442788 91.96529480158074 0.62932038083071107 0 -0.77714596973225614 I I #
edge $-1 $314 0.57023422553523062 $193 15.932395461442788 $265 $321 forward 7 unknown #
point $-1 58.230536820581683 15.932395461442788 6.9899467669557591 #
point $-1 53.750887808283451 15.932395461442788 6.9899467669557538 #
edge $-1 $322 1 $322 0 $196 $-1 forward 7 unknown #
vertex $-1 $197 $323 #
ellipse-curve $-1 52.702813511825418 4.9594231500802515 1.5615058972805886 0.77714596973225614 0 0.62932038083071107 0.9439805712460666 0 -1.1657189545983841 1 I I #
point $-1 56.934692885678615 4.9594231500802515 3.0582748242090521 #
edge $-1 $324 1 $324 0 $200 $-1 forward 7 unknown #
vertex $-1 $201 $325 #
ellipse-curve $-1 52.702813511825418 11.543206536897774 1.5615058972805886 0.77714596973225614 0 0.62932038083071107 0.9439805712460666 0 -1.1657189545983841 1 I I #
point $-1 56.934692885678615 11.543206536897774 3.0582748242090521 #
plane-surface $-1 58.230536820581683 0 0 -1 0 0 0 0 1 forward_v I I I I #
coedge $-1 $209 $207 $211 $286 reversed $141 $-1 #
edge $-1 $222 -6.9899467669557591 $288 6.9899467669557591 $221 $326 forward 7 unknown #
vertex $-1 $286 $327 #
straight-curve $-1 -58.230536820581683 -31.682124923967653 0 0 0 -1 I I #
edge $-1 $284 -31.682124923967653 $288 31.682124923967653 $282 $328 forward 7 unknown #
straight-curve $-1 0 -31.682124923967653 -6.9899467669557591 -1 0 0 I I #
vertex $-1 $214 $329 #
straight-curve $-1 0 31.682124923967653 -6.9899467669557591 1 0 0 I I #
point $-1 58.230536820581683 31.682124923967653 -6.9899467669557591 #
point $-1 58.230536820581683 -31.682124923967653 -6.9899467669557591 #
straight-curve $-1 -58.230536820581683 0 6.9899467669557591 0 -1 0 I I #
point $-1 -58.230536820581683 31.682124923967653 6.9899467669557591 #
point $-1 -58.230536820581683 -31.682124923967653 6.9899467669557591 #
straight-curve $-1 58.230536820581683 -31.682124923967653 0 0 0 -1 I I #
straight-curve $-1 58.230536820581683 31.682124923967653 0 0 0 -1 I I #
coedge $-1 $298 $233 $304 $330 reversed $160 $-1 #
coedge $-1 $233 $297 $236 $302 reversed $160 $-1 #
edge $-1 $300 -19.925742806462956 $241 -3.5870214285464446 $240 $331 forward 7 unknown #
vertex $-1 $235 $332 #
straight-curve $-1 -40.866846473024466 31.682124923967653 16.516665439761134 -0.78801074757464917 0 -0.61566148304635926 I I #
edge $-1 $237 53.060490074284878 $306 58.230536820581683 $298 $333 forward 7 unknown #
point $-1 -53.060490074284878 31.68212492396766 6.9899467669557591 #
coedge $-1 $240 $239 $297 $330 forward $231 $-1 #
point $-1 -58.230536820581683 15.343403546051146 2.9506634741316788 #
vertex $-1 $302 $334 #
straight-curve $-1 -58.230536820581683 0 6.9899467669557591 0 -1 0 I I #
vertex $-1 $247 $335 #
point $-1 -52.413965252681209 20.011609654027293 2.4583813582874536 #
vertex $-1 $251 $336 #
point $-1 -52.413965252681209 27.013918815991513 2.4583813582874536 #
coedge $-1 $266 $265 $258 $313 forward $255 $-1 #
edge $-1 $314 75.638364241739822 $317 81.170270218036393 $312 $337 forward 7 unknown #
vertex $-1 $270 $338 #
straight-curve $-1 37.723231807846446 0.57023422553523062 6.9899467669557538 1 0 0 I I #
edge $-1 $317 -3.5554231962092739 $267 11.806738039698283 $266 $339 forward 7 unknown #
vertex $-1 $316 $340 #
straight-curve $-1 -15.060790395228707 0.57023422553523062 91.96529480158074 -0.62932038083071107 0 0.77714596973225614 I I #
point $-1 53.750887808283451 0.57023422553523062 6.9899467669557538 #
point $-1 58.230536820581676 15.932395461442788 1.458040790659183 #
straight-curve $-1 58.230536820581683 0 6.9899467669557591 0 1 0 I I #
vertex $-1 $273 $341 #
point $-1 53.646794083071484 4.9594231500802515 0.39578694268220449 #
vertex $-1 $277 $342 #
point $-1 53.646794083071484 11.543206536897774 0.39578694268220449 #
straight-curve $-1 -58.230536820581683 31.682124923967653 0 0 0 -1 I I #
point $-1 -58.230536820581683 -31.682124923967653 -6.9899467669557591 #
straight-curve $-1 -58.230536820581683 0 -6.9899467669557591 0 1 0 I I #
point $-1 -58.230536820581683 31.682124923967653 -6.9899467669557591 #
edge $-1 $306 -6.9899467669557591 $300 -2.9506634741316788 $297 $343 forward 7 unknown #
straight-curve $-1 -58.230536820581683 11.756382117504701 2.950663474131682 0 -1 0 I I #
point $-1 -58.230536820581683 31.68212492396766 2.9506634741316788 #
straight-curve $-1 0 31.682124923967653 6.9899467669557591 -1 0 0 I I #
point $-1 -58.230536820581683 31.682124923967653 6.9899467669557591 #
point $-1 -52.586314517209502 20.011609654027293 1.0547091276664453 #
point $-1 -52.586314517209502 27.013918815991513 1.0547091276664453 #
straight-curve $-1 58.230536820581683 0.57023422553523062 82.628311008695576 0 0 -1 I I #
point $-1 58.230536820581683 0.57023422553523062 6.9899467669557591 #
straight-curve $-1 58.230536820581683 4.1256574217445046 1.4580407906591759 0 1 0 I I #
point $-1 58.230536820581676 0.57023422553523062 1.458040790659183 #
point $-1 51.537094557227029 4.9594231500802515 0.61752532603452193 #
point $-1 51.537094557227029 11.543206536897774 0.61752532603452193 #
straight-curve $-1 -58.230536820581683 31.682124923967653 0 0 0 -1 I I #
End-of-ACIS-data 