500 0 5 0           
7 Unknown 11 ACIS 5.0 NT 24 Thu Mar 25 23:47:28 1999 
-1 9.9999999999999995e-007 1e-010 
body $-1 $5 $-1 $6 #
body $-1 $7 $-1 $8 #
body $-1 $9 $-1 $10 #
body $-1 $11 $-1 $12 #
body $-1 $13 $-1 $14 #
lump $-1 $-1 $15 $0 #
transform $-1 1 0 0 0 1 0 0 0 1 42.628254036072882 18.238549291461538 4 1 rotate no_reflect no_shear #
lump $-1 $-1 $16 $1 #
transform $-1 1 0 0 0 1 0 0 0 1 42.628254036072882 18.238549291461538 4 1 rotate no_reflect no_shear #
lump $-1 $-1 $17 $2 #
transform $-1 1 0 0 0 1 0 0 0 1 42.628254036072882 18.238549291461538 4 1 rotate no_reflect no_shear #
lump $-1 $-1 $18 $3 #
transform $-1 1 0 0 0 1 0 0 0 1 42.628254036072882 18.238549291461538 4 1 rotate no_reflect no_shear #
lump $-1 $-1 $19 $4 #
transform $-1 1 0 0 0 1 0 0 0 1 42.628254036072882 18.238549291461538 4 1 rotate no_reflect no_shear #
shell $-1 $-1 $-1 $20 $-1 $5 #
shell $-1 $-1 $-1 $21 $-1 $7 #
shell $-1 $-1 $-1 $22 $-1 $9 #
shell $-1 $-1 $-1 $23 $-1 $11 #
shell $-1 $-1 $-1 $24 $-1 $13 #
face $-1 $25 $26 $15 $-1 $27 reversed single #
face $-1 $28 $29 $16 $-1 $30 reversed single #
face $-1 $31 $32 $17 $-1 $33 forward single #
face $-1 $34 $35 $18 $-1 $36 reversed single #
face $-1 $37 $38 $19 $-1 $39 forward single #
face $-1 $40 $41 $15 $-1 $42 forward single #
loop $-1 $-1 $43 $20 #
plane-surface $-1 0 18.238549291461538 0 0 -1 0 0 0 -1 forward_v I I I I #
face $-1 $44 $45 $16 $-1 $46 reversed single #
loop $-1 $-1 $47 $21 #
plane-surface $-1 -37.628254036072882 -16.738549291461538 0 1 0 0 0 0 -1 forward_v I I I I #
face $-1 $48 $49 $17 $-1 $50 reversed single #
loop $-1 $-1 $51 $22 #
plane-surface $-1 0 18.238549291461538 0 0 -1 0 0 0 -1 forward_v I I I I #
face $-1 $52 $53 $18 $-1 $54 reversed single #
loop $-1 $-1 $55 $23 #
plane-surface $-1 48.93844939595315 -8.9464127097331563 121.24236713213922 0 -1 0 -0.74314483375859142 0 -0.66913059716165679 forward_v I I I I #
face $-1 $56 $57 $19 $-1 $58 forward single #
loop $-1 $59 $60 $24 #
cone-surface $-1 40.832555552163448 -12.092481000597347 2.0837824293161393 -0.74314483375859142 0 -0.66913059716165679 0.3345652985808284 0 -0.37157241687929571 1 I I 0 1 0.5 forward I I I I #
face $-1 $61 $62 $15 $-1 $63 reversed single #
loop $-1 $-1 $64 $25 #
plane-surface $-1 0 0 4 0 0 1 1 0 0 forward_v I I I I #
coedge $-1 $65 $66 $67 $68 reversed $26 $-1 #
face $-1 $69 $70 $16 $-1 $71 reversed single #
loop $-1 $-1 $72 $28 #
plane-surface $-1 -36.128254036072882 -15.238549291461538 0 0 -1 0 0 0 -1 forward_v I I I I #
coedge $-1 $73 $74 $75 $76 forward $29 $-1 #
face $-1 $77 $78 $17 $-1 $79 reversed single #
loop $-1 $-1 $80 $31 #
plane-surface $-1 0 0 -4 0 0 1 1 0 0 forward_v I I I I #
coedge $-1 $81 $82 $83 $84 forward $32 $-1 #
face $-1 $85 $86 $18 $-1 $87 reversed single #
loop $-1 $-1 $88 $34 #
plane-surface $-1 -14.419484122159623 -12.092481000597347 64.194628973906717 0.74314483375859142 0 0.66913059716165679 0.66913059716165679 0 -0.74314483375859142 forward_v I I I I #
coedge $-1 $89 $90 $91 $92 reversed $35 $-1 #
face $-1 $-1 $93 $19 $-1 $94 forward single #
loop $-1 $95 $96 $37 #
cone-surface $-1 40.275196926844508 -12.092481000597347 1.5819344814448968 -0.74314483375859142 0 -0.66913059716165679 0.1672826492904142 0 -0.18578620843964785 1 I I -0.70710678118654746 0.70710678118654746 0.25 forward I I I I #
loop $-1 $-1 $97 $24 #
coedge $-1 $60 $60 $98 $99 reversed $38 $-1 #
face $-1 $100 $101 $15 $-1 $102 reversed single #
loop $-1 $-1 $103 $40 #
plane-surface $-1 0 0 -4 0 0 1 1 0 0 forward_v I I I I #
coedge $-1 $104 $105 $106 $107 forward $41 $-1 #
coedge $-1 $108 $43 $109 $110 reversed $26 $-1 #
coedge $-1 $43 $108 $111 $112 forward $26 $-1 #
coedge $-1 $103 $113 $43 $68 forward $62 $-1 #
edge $-1 $114 -42.628254036072882 $115 42.628254036072882 $43 $116 forward 7 unknown #
face $-1 $117 $118 $16 $-1 $119 forward single #
loop $-1 $-1 $120 $44 #
plane-surface $-1 -34.628254036072882 -16.738549291461538 0 -1 0 0 0 0 1 forward_v I I I I #
coedge $-1 $121 $122 $123 $124 forward $45 $-1 #
coedge $-1 $125 $47 $126 $127 reversed $29 $-1 #
coedge $-1 $47 $125 $128 $129 reversed $29 $-1 #
coedge $-1 $122 $121 $47 $76 reversed $45 $-1 #
edge $-1 $130 -4 $131 4 $75 $132 forward 7 unknown #
face $-1 $133 $134 $17 $-1 $135 reversed single #
loop $-1 $-1 $136 $48 #
plane-surface $-1 -37.628254036072882 20.193270810062572 0 1 0 0 0 0 -1 forward_v I I I I #
coedge $-1 $137 $138 $82 $139 forward $49 $-1 #
coedge $-1 $140 $51 $141 $142 reversed $32 $-1 #
coedge $-1 $51 $140 $80 $139 reversed $32 $-1 #
coedge $-1 $143 $144 $51 $84 reversed $145 $-1 #
edge $-1 $146 -4 $147 4 $83 $148 forward 7 unknown #
face $-1 $149 $150 $18 $-1 $151 forward single #
loop $-1 $-1 $152 $52 #
plane-surface $-1 48.93844939595315 -15.238549291461538 121.24236713213922 0 1 0 0.74314483375859142 0 0.66913059716165679 forward_v I I I I #
coedge $-1 $153 $154 $155 $156 reversed $53 $-1 #
coedge $-1 $90 $55 $157 $158 reversed $35 $-1 #
coedge $-1 $55 $89 $153 $159 reversed $35 $-1 #
coedge $-1 $155 $160 $55 $92 forward $150 $-1 #
edge $-1 $161 -18.159029338096307 $162 -15.310777204036025 $91 $163 forward 7 unknown #
loop $-1 $-1 $98 $56 #
plane-surface $-1 -14.419484122159623 -12.092481000597347 64.194628973906717 0.74314483375859142 0 0.66913059716165679 0.66913059716165679 0 -0.74314483375859142 forward_v I I I I #
loop $-1 $-1 $164 $37 #
coedge $-1 $96 $96 $97 $165 reversed $57 $-1 #
coedge $-1 $97 $97 $96 $165 forward $59 $-1 #
coedge $-1 $98 $98 $60 $99 forward $93 $-1 #
edge $-1 $166 0 $166 6.2831853071796004 $98 $167 forward 7 unknown #
face $-1 $168 $169 $15 $-1 $170 reversed single #
loop $-1 $-1 $171 $61 #
plane-surface $-1 0 -18.238549291461538 0 0 1 0 0 0 1 forward_v I I I I #
coedge $-1 $172 $67 $173 $174 forward $62 $-1 #
coedge $-1 $175 $64 $108 $176 forward $41 $-1 #
coedge $-1 $64 $175 $177 $178 forward $41 $-1 #
coedge $-1 $179 $111 $64 $107 reversed $180 $-1 #
edge $-1 $181 -18.238549291461538 $182 18.238549291461538 $106 $183 forward 7 unknown #
coedge $-1 $66 $65 $104 $176 reversed $26 $-1 #
coedge $-1 $184 $185 $65 $110 forward $169 $-1 #
edge $-1 $186 -4 $114 4 $65 $187 forward 7 unknown #
coedge $-1 $106 $173 $66 $112 reversed $180 $-1 #
edge $-1 $182 -4 $115 4 $111 $188 forward 7 unknown #
coedge $-1 $67 $172 $184 $189 forward $62 $-1 #
vertex $-1 $68 $190 #
vertex $-1 $174 $191 #
straight-curve $-1 0 18.238549291461538 -4 1 0 0 I I #
face $-1 $192 $193 $16 $-1 $194 reversed single #
loop $-1 $-1 $195 $69 #
plane-surface $-1 0 0 4 0 0 1 1 0 0 forward_v I I I I #
coedge $-1 $196 $197 $198 $199 reversed $70 $-1 #
coedge $-1 $75 $72 $200 $201 reversed $45 $-1 #
coedge $-1 $72 $75 $202 $203 reversed $45 $-1 #
coedge $-1 $197 $196 $72 $124 reversed $70 $-1 #
edge $-1 $204 -4 $205 4 $123 $206 forward 7 unknown #
coedge $-1 $74 $73 $207 $208 reversed $29 $-1 #
coedge $-1 $200 $209 $73 $127 forward $193 $-1 #
edge $-1 $210 -9.8692746457307692 $131 -6.8692746457307692 $126 $211 forward 7 unknown #
coedge $-1 $212 $202 $74 $129 forward $118 $-1 #
edge $-1 $130 6.8692746457307692 $213 9.8692746457307692 $128 $214 forward 7 unknown #
vertex $-1 $129 $215 #
vertex $-1 $127 $216 #
straight-curve $-1 -37.628254036072882 -15.238549291461538 0 0 0 -1 I I #
face $-1 $217 $145 $17 $-1 $218 reversed single #
loop $-1 $-1 $219 $77 #
plane-surface $-1 -36.128254036072882 22.147992328663605 0 0 -1 0 0 0 -1 forward_v I I I I #
coedge $-1 $220 $221 $222 $223 forward $78 $-1 #
coedge $-1 $224 $80 $220 $225 forward $49 $-1 #
coedge $-1 $80 $224 $143 $226 forward $49 $-1 #
edge $-1 $146 34.628254036072882 $227 37.628254036072882 $80 $228 forward 7 unknown #
coedge $-1 $82 $81 $229 $230 forward $32 $-1 #
coedge $-1 $231 $232 $81 $142 forward $233 $-1 #
edge $-1 $234 -37.628254036072882 $147 -34.628254036072882 $141 $235 forward 7 unknown #
coedge $-1 $236 $83 $138 $226 reversed $145 $-1 #
coedge $-1 $83 $236 $231 $237 reversed $145 $-1 #
loop $-1 $-1 $83 $133 #
vertex $-1 $139 $238 #
vertex $-1 $237 $239 #
straight-curve $-1 -34.628254036072882 18.238549291461538 0 0 0 1 I I #
face $-1 $-1 $240 $18 $-1 $241 reversed single #
loop $-1 $-1 $91 $85 #
plane-surface $-1 0 0 4 0 0 1 1 0 0 forward_v I I I I #
coedge $-1 $242 $243 $244 $245 reversed $86 $-1 #
coedge $-1 $246 $88 $90 $159 forward $53 $-1 #
coedge $-1 $88 $246 $242 $247 forward $53 $-1 #
coedge $-1 $244 $91 $88 $156 forward $150 $-1 #
edge $-1 $162 2.9001722094344826 $248 9.1923087911628656 $155 $249 forward 7 unknown #
coedge $-1 $250 $251 $89 $158 forward $240 $-1 #
edge $-1 $252 -59.784488110275667 $161 -56.621183566069611 $157 $253 forward 7 unknown #
edge $-1 $162 80.999861991183224 $252 85.256508072145749 $90 $254 forward 7 unknown #
coedge $-1 $91 $244 $250 $255 forward $150 $-1 #
vertex $-1 $92 $256 #
vertex $-1 $92 $257 #
straight-curve $-1 24.469224697976575 -8.9464127097331563 4 -1 0 0 I I #
coedge $-1 $164 $164 $-1 $258 reversed $95 $-1 #
edge $-1 $259 0 $259 6.2831853071796004 $96 $260 forward 7 unknown #
vertex $-1 $99 $261 #
ellipse-curve $-1 41.204127969042752 -12.092481000597347 2.4183477278969727 0.74314483375859142 0 0.66913059716165679 0.3345652985808284 0 -0.37157241687929571 1 I I #
face $-1 $-1 $180 $15 $-1 $262 reversed single #
loop $-1 $-1 $109 $100 #
plane-surface $-1 -42.628254036072882 0 0 1 0 0 0 0 -1 forward_v I I I I #
coedge $-1 $263 $177 $264 $265 forward $101 $-1 #
coedge $-1 $113 $103 $263 $266 forward $62 $-1 #
coedge $-1 $111 $179 $103 $174 reversed $180 $-1 #
edge $-1 $115 -18.238549291461538 $267 18.238549291461538 $173 $268 forward 7 unknown #
coedge $-1 $105 $104 $185 $269 forward $41 $-1 #
edge $-1 $182 -42.628254036072882 $186 42.628254036072882 $108 $270 forward 7 unknown #
coedge $-1 $171 $271 $105 $178 reversed $101 $-1 #
edge $-1 $272 -42.628254036072882 $181 42.628254036072882 $177 $273 forward 7 unknown #
coedge $-1 $173 $106 $271 $274 forward $180 $-1 #
loop $-1 $-1 $179 $168 #
vertex $-1 $107 $275 #
vertex $-1 $107 $276 #
straight-curve $-1 42.628254036072882 0 4 0 1 0 I I #
coedge $-1 $264 $109 $113 $189 reversed $169 $-1 #
coedge $-1 $109 $264 $175 $269 reversed $169 $-1 #
vertex $-1 $176 $277 #
straight-curve $-1 -42.628254036072882 18.238549291461538 0 0 0 -1 I I #
straight-curve $-1 42.628254036072882 18.238549291461538 0 0 0 -1 I I #
edge $-1 $278 -18.238549291461538 $114 18.238549291461538 $184 $279 forward 7 unknown #
point $-1 -42.628254036072882 18.238549291461538 -4 #
point $-1 42.628254036072882 18.238549291461538 -4 #
face $-1 $-1 $280 $16 $-1 $281 reversed single #
loop $-1 $-1 $282 $117 #
plane-surface $-1 0 0 -4 0 0 1 1 0 0 forward_v I I I I #
coedge $-1 $202 $212 $197 $283 forward $118 $-1 #
coedge $-1 $123 $120 $282 $284 reversed $70 $-1 #
coedge $-1 $120 $123 $195 $283 reversed $70 $-1 #
coedge $-1 $285 $286 $120 $199 forward $280 $-1 #
edge $-1 $287 -4 $288 4 $198 $289 forward 7 unknown #
coedge $-1 $282 $126 $121 $201 forward $193 $-1 #
edge $-1 $131 -19.564127018036441 $205 -16.564127018036441 $200 $290 forward 7 unknown #
coedge $-1 $128 $195 $122 $203 forward $118 $-1 #
edge $-1 $204 16.564127018036441 $130 19.564127018036441 $202 $291 forward 7 unknown #
vertex $-1 $203 $292 #
vertex $-1 $201 $293 #
straight-curve $-1 -34.628254036072882 -15.238549291461538 0 0 0 -1 I I #
coedge $-1 $286 $285 $125 $208 forward $280 $-1 #
edge $-1 $213 -4 $210 4 $207 $294 forward 7 unknown #
coedge $-1 $126 $282 $286 $295 forward $193 $-1 #
vertex $-1 $127 $296 #
straight-curve $-1 -37.628254036072882 -8.3692746457307692 -4 0 1 0 I I #
coedge $-1 $195 $128 $285 $297 forward $118 $-1 #
vertex $-1 $297 $298 #
straight-curve $-1 -37.628254036072882 -8.3692746457307692 4 0 -1 0 I I #
point $-1 -37.628254036072882 -15.238549291461538 4 #
point $-1 -37.628254036072882 -15.238549291461538 -4 #
face $-1 $-1 $233 $17 $-1 $299 forward single #
plane-surface $-1 -34.628254036072882 20.193270810062572 0 -1 0 0 0 0 1 forward_v I I I I #
coedge $-1 $300 $301 $236 $302 forward $134 $-1 #
coedge $-1 $229 $136 $137 $225 reversed $78 $-1 #
coedge $-1 $136 $229 $232 $303 reversed $78 $-1 #
coedge $-1 $301 $300 $136 $223 reversed $134 $-1 #
edge $-1 $304 -4 $305 4 $222 $306 forward 7 unknown #
coedge $-1 $138 $137 $300 $307 forward $49 $-1 #
edge $-1 $227 -1.9547215186010334 $305 1.9547215186010334 $220 $308 forward 7 unknown #
edge $-1 $309 -1.9547215186010334 $146 1.9547215186010334 $143 $310 forward 7 unknown #
vertex $-1 $225 $311 #
straight-curve $-1 0 18.238549291461538 -4 -1 0 0 I I #
coedge $-1 $221 $220 $140 $230 reversed $78 $-1 #
edge $-1 $234 -4 $227 4 $229 $312 forward 7 unknown #
coedge $-1 $313 $141 $144 $237 forward $233 $-1 #
coedge $-1 $141 $313 $221 $303 forward $233 $-1 #
loop $-1 $-1 $141 $217 #
vertex $-1 $142 $314 #
straight-curve $-1 0 18.238549291461538 4 1 0 0 I I #
coedge $-1 $144 $143 $219 $302 reversed $145 $-1 #
edge $-1 $147 -1.9547215186010334 $315 1.9547215186010334 $144 $316 forward 7 unknown #
point $-1 -34.628254036072882 18.238549291461538 -4 #
point $-1 -34.628254036072882 18.238549291461538 4 #
loop $-1 $-1 $157 $149 #
plane-surface $-1 42.628254036072882 0 0 -1 0 0 0 0 1 forward_v I I I I #
coedge $-1 $243 $152 $154 $247 reversed $86 $-1 #
coedge $-1 $152 $242 $317 $318 reversed $86 $-1 #
coedge $-1 $160 $155 $152 $245 forward $150 $-1 #
edge $-1 $248 15.310777204036025 $319 18.159029338096307 $244 $320 forward 7 unknown #
coedge $-1 $154 $153 $251 $321 reversed $53 $-1 #
edge $-1 $322 -85.256508072145749 $248 -80.999861991183224 $242 $323 forward 7 unknown #
vertex $-1 $156 $324 #
straight-curve $-1 39.780001902012607 -6.0462405002986737 4 0 -1 0 I I #
coedge $-1 $317 $157 $160 $255 reversed $240 $-1 #
coedge $-1 $157 $317 $246 $321 forward $240 $-1 #
vertex $-1 $158 $325 #
straight-curve $-1 42.628254036072882 -8.9464127097331563 60.621183566069611 0 0 1 I I #
straight-curve $-1 -14.419484122159623 -8.9464127097331563 64.194628973906717 0.66913059716165679 0 -0.74314483375859142 I I #
edge $-1 $319 -15.238549291461538 $161 -8.9464127097331563 $250 $326 forward 7 unknown #
point $-1 42.628254036072882 -8.9464127097331563 4 #
point $-1 39.7800019020126 -8.9464127097331563 4 #
edge $-1 $327 1 $327 0 $164 $-1 forward 7 unknown #
vertex $-1 $165 $328 #
ellipse-curve $-1 40.460983135284152 -12.092481000597347 1.749217130735311 0.74314483375859142 0 0.66913059716165679 0.3345652985808284 0 -0.37157241687929571 1 I I #
point $-1 41.538693267623579 -12.092481000597347 2.0467753110176723 #
plane-surface $-1 42.628254036072882 0 0 -1 0 0 0 0 1 forward_v I I I I #
coedge $-1 $271 $171 $172 $266 reversed $101 $-1 #
coedge $-1 $185 $184 $171 $265 reversed $169 $-1 #
edge $-1 $272 -4 $278 4 $264 $329 forward 7 unknown #
edge $-1 $267 -42.628254036072882 $278 42.628254036072882 $263 $330 forward 7 unknown #
vertex $-1 $274 $331 #
straight-curve $-1 42.628254036072882 0 -4 0 -1 0 I I #
edge $-1 $186 -18.238549291461538 $272 18.238549291461538 $185 $332 forward 7 unknown #
straight-curve $-1 0 18.238549291461538 4 -1 0 0 I I #
coedge $-1 $177 $263 $179 $274 reversed $101 $-1 #
vertex $-1 $269 $333 #
straight-curve $-1 0 -18.238549291461538 4 1 0 0 I I #
edge $-1 $181 -4 $267 4 $179 $334 forward 7 unknown #
point $-1 42.628254036072882 -18.238549291461538 4 #
point $-1 42.628254036072882 18.238549291461538 4 #
point $-1 -42.628254036072882 18.238549291461538 4 #
vertex $-1 $189 $335 #
straight-curve $-1 -42.628254036072882 0 -4 0 1 0 I I #
loop $-1 $-1 $198 $192 #
plane-surface $-1 0 -18.238549291461538 0 0 1 0 0 0 1 forward_v I I I I #
coedge $-1 $209 $200 $196 $284 forward $193 $-1 #
edge $-1 $288 -9.8692746457307692 $204 -6.8692746457307692 $195 $336 forward 7 unknown #
edge $-1 $205 6.8692746457307692 $287 9.8692746457307692 $282 $337 forward 7 unknown #
coedge $-1 $207 $198 $212 $297 reversed $280 $-1 #
coedge $-1 $198 $207 $209 $295 reversed $280 $-1 #
vertex $-1 $295 $338 #
vertex $-1 $199 $339 #
straight-curve $-1 -34.628254036072882 -18.238549291461538 0 0 0 1 I I #
straight-curve $-1 -18.064127018036441 -15.238549291461538 -4 1 0 0 I I #
straight-curve $-1 -18.064127018036441 -15.238549291461538 4 -1 0 0 I I #
point $-1 -34.628254036072882 -15.238549291461538 4 #
point $-1 -34.628254036072882 -15.238549291461538 -4 #
straight-curve $-1 -37.628254036072882 -18.238549291461538 0 0 0 -1 I I #
edge $-1 $287 34.628254036072882 $210 37.628254036072882 $286 $340 forward 7 unknown #
point $-1 -37.628254036072882 -18.238549291461538 -4 #
edge $-1 $213 -37.628254036072882 $288 -34.628254036072882 $285 $341 forward 7 unknown #
point $-1 -37.628254036072882 -18.238549291461538 4 #
plane-surface $-1 0 0 4 0 0 1 1 0 0 forward_v I I I I #
coedge $-1 $222 $219 $224 $307 reversed $134 $-1 #
coedge $-1 $219 $222 $313 $342 reversed $134 $-1 #
edge $-1 $315 -4 $309 4 $236 $343 forward 7 unknown #
edge $-1 $304 -1.9547215186010334 $234 1.9547215186010334 $221 $344 forward 7 unknown #
vertex $-1 $342 $345 #
vertex $-1 $307 $346 #
straight-curve $-1 -37.628254036072882 22.147992328663605 0 0 0 -1 I I #
edge $-1 $305 -1.5 $309 1.5 $300 $347 forward 7 unknown #
straight-curve $-1 -37.628254036072882 20.193270810062572 -4 0 1 0 I I #
vertex $-1 $226 $348 #
straight-curve $-1 -34.628254036072882 20.193270810062572 -4 0 -1 0 I I #
point $-1 -37.628254036072882 18.238549291461538 -4 #
straight-curve $-1 -37.628254036072882 18.238549291461538 0 0 0 -1 I I #
coedge $-1 $232 $231 $301 $342 forward $233 $-1 #
point $-1 -37.628254036072882 18.238549291461538 4 #
vertex $-1 $237 $349 #
straight-curve $-1 -34.628254036072882 20.193270810062572 4 0 1 0 I I #
coedge $-1 $251 $250 $243 $318 forward $240 $-1 #
edge $-1 $319 56.621183566069611 $322 59.784488110275667 $317 $350 forward 7 unknown #
vertex $-1 $255 $351 #
straight-curve $-1 24.469224697976575 -15.238549291461538 4 1 0 0 I I #
edge $-1 $322 -9.1923087911628656 $252 -2.9001722094344826 $251 $352 forward 7 unknown #
vertex $-1 $321 $353 #
straight-curve $-1 -14.419484122159623 -15.238549291461538 64.194628973906717 -0.66913059716165679 0 0.74314483375859142 I I #
point $-1 39.7800019020126 -15.238549291461538 4 #
point $-1 42.628254036072882 -8.9464127097331563 0.83669545579394367 #
straight-curve $-1 42.628254036072882 0 4 0 1 0 I I #
vertex $-1 $258 $354 #
point $-1 40.795548433864987 -12.092481000597347 1.3776447138560153 #
straight-curve $-1 -42.628254036072882 -18.238549291461538 0 0 0 -1 I I #
straight-curve $-1 0 -18.238549291461538 -4 -1 0 0 I I #
point $-1 42.628254036072882 -18.238549291461538 -4 #
straight-curve $-1 -42.628254036072882 0 4 0 -1 0 I I #
point $-1 -42.628254036072882 -18.238549291461538 4 #
straight-curve $-1 42.628254036072882 -18.238549291461538 0 0 0 -1 I I #
point $-1 -42.628254036072882 -18.238549291461538 -4 #
straight-curve $-1 -34.628254036072882 -8.3692746457307692 4 0 1 0 I I #
straight-curve $-1 -34.628254036072882 -8.3692746457307692 -4 0 -1 0 I I #
point $-1 -34.628254036072882 -18.238549291461538 -4 #
point $-1 -34.628254036072882 -18.238549291461538 4 #
straight-curve $-1 0 -18.238549291461538 -4 -1 0 0 I I #
straight-curve $-1 0 -18.238549291461538 4 1 0 0 I I #
edge $-1 $315 -1.5 $304 1.5 $301 $355 forward 7 unknown #
straight-curve $-1 -34.628254036072882 22.147992328663605 0 0 0 -1 I I #
straight-curve $-1 -37.628254036072882 20.193270810062572 4 0 -1 0 I I #
point $-1 -37.628254036072882 22.147992328663605 4 #
point $-1 -37.628254036072882 22.147992328663605 -4 #
straight-curve $-1 -36.128254036072882 22.147992328663605 -4 1 0 0 I I #
point $-1 -34.628254036072882 22.147992328663605 -4 #
point $-1 -34.628254036072882 22.147992328663605 4 #
straight-curve $-1 42.628254036072882 -15.238549291461538 60.621183566069611 0 0 -1 I I #
point $-1 42.628254036072882 -15.238549291461538 4 #
straight-curve $-1 42.628254036072882 -6.0462405002986737 0.83669545579395077 0 1 0 I I #
point $-1 42.628254036072882 -15.238549291461538 0.83669545579394367 #
point $-1 40.089410718404864 -12.092481000597347 1.4146518321544825 #
straight-curve $-1 -36.128254036072882 22.147992328663605 4 -1 0 0 I I #
End-of-ACIS-data 