500 0 8 0           
7 Unknown 11 ACIS 5.0 NT 24 Thu Mar 25 18:37:34 1999 
-1 9.9999999999999995e-007 1e-010 
body $-1 $8 $-1 $9 #
body $-1 $10 $-1 $11 #
body $-1 $12 $-1 $13 #
body $-1 $14 $-1 $15 #
body $-1 $16 $-1 $17 #
body $-1 $18 $-1 $19 #
body $-1 $20 $-1 $21 #
body $-1 $22 $-1 $23 #
lump $-1 $-1 $24 $0 #
transform $-1 1 0 0 0 1 0 0 0 1 63.303933835871455 36.271625922065972 8.8938376558988939 1 rotate no_reflect no_shear #
lump $-1 $-1 $25 $1 #
transform $-1 1 0 0 0 1 0 0 0 1 63.303933835871455 36.271625922065972 8.8938376558988939 1 rotate no_reflect no_shear #
lump $-1 $-1 $26 $2 #
transform $-1 1 0 0 0 1 0 0 0 1 63.303933835871455 36.271625922065972 8.8938376558988939 1 rotate no_reflect no_shear #
lump $-1 $-1 $27 $3 #
transform $-1 1 0 0 0 1 0 0 0 1 63.303933835871455 36.271625922065972 8.8938376558988939 1 rotate no_reflect no_shear #
lump $-1 $-1 $28 $4 #
transform $-1 1 0 0 0 1 0 0 0 1 63.303933835871455 36.271625922065972 8.8938376558988939 1 rotate no_reflect no_shear #
lump $-1 $-1 $29 $5 #
transform $-1 1 0 0 0 1 0 0 0 1 63.303933835871455 36.271625922065972 8.8938376558988939 1 rotate no_reflect no_shear #
lump $-1 $-1 $30 $6 #
transform $-1 1 0 0 0 1 0 0 0 1 63.303933835871455 36.271625922065972 8.8938376558988939 1 rotate no_reflect no_shear #
lump $-1 $-1 $31 $7 #
transform $-1 1 0 0 0 1 0 0 0 1 63.303933835871455 36.271625922065972 8.8938376558988939 1 rotate no_reflect no_shear #
shell $-1 $-1 $-1 $32 $-1 $8 #
shell $-1 $-1 $-1 $33 $-1 $10 #
shell $-1 $-1 $-1 $34 $-1 $12 #
shell $-1 $-1 $-1 $35 $-1 $14 #
shell $-1 $-1 $-1 $36 $-1 $16 #
shell $-1 $-1 $-1 $37 $-1 $18 #
shell $-1 $-1 $-1 $38 $-1 $20 #
shell $-1 $-1 $-1 $39 $-1 $22 #
face $-1 $40 $41 $24 $-1 $42 forward single #
face $-1 $43 $44 $25 $-1 $45 forward single #
face $-1 $46 $47 $26 $-1 $48 reversed single #
face $-1 $49 $50 $27 $-1 $51 forward single #
face $-1 $52 $53 $28 $-1 $54 forward single #
face $-1 $55 $56 $29 $-1 $57 reversed single #
face $-1 $58 $59 $30 $-1 $60 forward single #
face $-1 $61 $62 $31 $-1 $63 forward single #
face $-1 $64 $65 $24 $-1 $66 reversed single #
loop $-1 $-1 $67 $32 #
plane-surface $-1 0 0 8.8938376558988939 0 0 1 1 0 0 forward_v I I I I #
face $-1 $68 $69 $25 $-1 $70 reversed single #
loop $-1 $-1 $71 $33 #
plane-surface $-1 0 -31.34182819329099 -3.7233247728167744 0 0 1 1 0 0 forward_v I I I I #
face $-1 $72 $73 $26 $-1 $74 reversed single #
loop $-1 $-1 $75 $34 #
plane-surface $-1 35.294256350997721 -7.1459868652126524 181.61309923124549 0 1 0 0.5877852598018023 0 0.80901698891910034 forward_v I I I I #
face $-1 $76 $77 $27 $-1 $78 forward single #
loop $-1 $79 $80 $35 #
cone-surface $-1 59.856693958167611 -3.3533590619711191 5.994721472770923 -0.5877852598018023 0 -0.80901698891910034 0.80901698891910034 0 -0.5877852598018023 1 I I 0 1 1 forward I I I I #
face $-1 $81 $82 $28 $-1 $83 forward single #
loop $-1 $84 $85 $36 #
cone-surface $-1 59.856693958167611 2.3355826428911826 5.994721472770923 -0.5877852598018023 0 -0.80901698891910034 0.80901698891910034 0 -0.5877852598018023 1 I I 0 1 1 forward I I I I #
face $-1 $86 $87 $29 $-1 $88 reversed single #
loop $-1 $-1 $89 $37 #
plane-surface $-1 -137.72217222825907 -7.1459868652126524 107.19486083885786 0 1 0 -0.5877852598018023 0 0.80901698891910034 forward_v I I I I #
face $-1 $90 $91 $30 $-1 $92 forward single #
loop $-1 $93 $94 $38 #
cone-surface $-1 -59.856693958167611 -3.3533590619711191 5.9947214727709426 0.5877852598018023 0 -0.80901698891910034 0.80901698891910034 0 0.5877852598018023 1 I I 0 1 1 forward I I I I #
face $-1 $95 $96 $31 $-1 $97 forward single #
loop $-1 $98 $99 $39 #
cone-surface $-1 -59.856693958167611 2.3355826428911826 5.9947214727709426 0.5877852598018023 0 -0.80901698891910034 0.80901698891910034 0 0.5877852598018023 1 I I 0 1 1 forward I I I I #
face $-1 $100 $101 $24 $-1 $102 reversed single #
loop $-1 $-1 $103 $40 #
plane-surface $-1 0 0 -8.8938376558988939 0 0 1 1 0 0 forward_v I I I I #
coedge $-1 $104 $105 $106 $107 forward $41 $-1 #
face $-1 $108 $109 $25 $-1 $110 reversed single #
loop $-1 $-1 $111 $43 #
plane-surface $-1 0 -31.34182819329099 -7.438341588402217 0 0 1 1 0 0 forward_v I I I I #
coedge $-1 $112 $113 $114 $115 reversed $44 $-1 #
face $-1 $116 $117 $26 $-1 $118 reversed single #
loop $-1 $-1 $119 $46 #
plane-surface $-1 -39.123982041389901 -0.50888820953996827 79.185183353984115 0.5877852598018023 0 0.80901698891910034 0.80901698891910034 0 -0.5877852598018023 forward_v I I I I #
coedge $-1 $120 $121 $122 $123 reversed $47 $-1 #
face $-1 $-1 $124 $27 $-1 $125 forward single #
loop $-1 $126 $127 $49 #
cone-surface $-1 58.955651641207119 -3.3533590619711191 4.7545431423346169 -0.5877852598018023 0 -0.80901698891910034 0.40450849445955017 0 -0.29389262990090115 1 I I -0.70710678118654746 0.70710678118654746 0.5 forward I I I I #
loop $-1 $-1 $128 $35 #
coedge $-1 $80 $80 $129 $130 reversed $50 $-1 #
face $-1 $-1 $131 $28 $-1 $132 forward single #
loop $-1 $133 $134 $52 #
cone-surface $-1 58.955651641207119 2.3355826428911826 4.7545431423346169 -0.5877852598018023 0 -0.80901698891910034 0.40450849445955017 0 -0.29389262990090115 1 I I -0.70710678118654746 0.70710678118654746 0.5 forward I I I I #
loop $-1 $-1 $135 $36 #
coedge $-1 $85 $85 $136 $137 reversed $53 $-1 #
face $-1 $138 $139 $29 $-1 $140 reversed single #
loop $-1 $-1 $141 $55 #
plane-surface $-1 -63.303933835871447 -0.50888820953996827 4.7669449615964936 -0.5877852598018023 0 0.80901698891910034 0.80901698891910034 0 0.5877852598018023 forward_v I I I I #
coedge $-1 $142 $143 $144 $145 reversed $56 $-1 #
face $-1 $-1 $146 $30 $-1 $147 forward single #
loop $-1 $148 $149 $58 #
cone-surface $-1 -58.955651641207119 -3.3533590619711191 4.7545431423346365 0.5877852598018023 0 -0.80901698891910034 0.40450849445955017 0 0.29389262990090115 1 I I -0.70710678118654746 0.70710678118654746 0.5 forward I I I I #
loop $-1 $-1 $150 $38 #
coedge $-1 $94 $94 $151 $152 reversed $59 $-1 #
face $-1 $-1 $153 $31 $-1 $154 forward single #
loop $-1 $155 $156 $61 #
cone-surface $-1 -58.955651641207119 2.3355826428911826 4.7545431423346365 0.5877852598018023 0 -0.80901698891910034 0.40450849445955017 0 0.29389262990090115 1 I I -0.70710678118654746 0.70710678118654746 0.5 forward I I I I #
loop $-1 $-1 $157 $39 #
coedge $-1 $99 $99 $158 $159 reversed $62 $-1 #
face $-1 $160 $161 $24 $-1 $162 reversed single #
loop $-1 $-1 $163 $64 #
plane-surface $-1 0 -36.271625922065972 0 0 1 0 0 0 1 forward_v I I I I #
coedge $-1 $164 $165 $166 $167 forward $65 $-1 #
coedge $-1 $168 $67 $169 $170 forward $41 $-1 #
coedge $-1 $67 $168 $171 $172 forward $41 $-1 #
coedge $-1 $173 $174 $67 $107 reversed $175 $-1 #
edge $-1 $176 -36.271625922065972 $177 36.271625922065972 $106 $178 forward 7 unknown #
face $-1 $179 $180 $25 $-1 $181 reversed single #
loop $-1 $-1 $182 $68 #
plane-surface $-1 0 -26.412030464516008 -5.5808331806094955 0 -1 0 0 0 -1 forward_v I I I I #
coedge $-1 $183 $184 $185 $186 reversed $69 $-1 #
coedge $-1 $187 $71 $188 $189 forward $44 $-1 #
coedge $-1 $71 $187 $190 $191 reversed $44 $-1 #
coedge $-1 $192 $193 $71 $115 forward $194 $-1 #
edge $-1 $195 10.741116367870513 $196 20.600711825420476 $114 $197 forward 7 unknown #
face $-1 $198 $199 $26 $-1 $200 forward single #
loop $-1 $-1 $201 $72 #
plane-surface $-1 35.294256350997721 6.1282104461327158 181.61309923124549 0 -1 0 -0.5877852598018023 0 -0.80901698891910034 forward_v I I I I #
coedge $-1 $202 $203 $204 $205 reversed $73 $-1 #
coedge $-1 $121 $75 $206 $207 reversed $47 $-1 #
coedge $-1 $75 $120 $202 $208 reversed $47 $-1 #
coedge $-1 $204 $209 $75 $123 forward $210 $-1 #
edge $-1 $211 81.91271195972385 $212 86.039604654026235 $122 $213 forward 7 unknown #
loop $-1 $-1 $129 $76 #
plane-surface $-1 -39.123982041389901 -0.50888820953996827 79.185183353984115 0.5877852598018023 0 0.80901698891910034 0.80901698891910034 0 -0.5877852598018023 forward_v I I I I #
loop $-1 $-1 $214 $49 #
coedge $-1 $127 $127 $128 $215 reversed $77 $-1 #
coedge $-1 $128 $128 $127 $215 forward $79 $-1 #
coedge $-1 $129 $129 $80 $130 forward $124 $-1 #
edge $-1 $216 0 $216 6.2831853071796004 $129 $217 forward 7 unknown #
loop $-1 $-1 $136 $81 #
plane-surface $-1 -39.123982041389901 -0.50888820953996827 79.185183353984115 0.5877852598018023 0 0.80901698891910034 0.80901698891910034 0 -0.5877852598018023 forward_v I I I I #
loop $-1 $-1 $218 $52 #
coedge $-1 $134 $134 $135 $219 reversed $82 $-1 #
coedge $-1 $135 $135 $134 $219 forward $84 $-1 #
coedge $-1 $136 $136 $85 $137 forward $131 $-1 #
edge $-1 $220 0 $220 6.2831853071796004 $136 $221 forward 7 unknown #
face $-1 $222 $223 $29 $-1 $224 reversed single #
loop $-1 $-1 $225 $86 #
plane-surface $-1 -137.72217222825907 6.1282104461327158 107.19486083885786 0 -1 0 0.5877852598018023 0 -0.80901698891910034 forward_v I I I I #
coedge $-1 $226 $227 $228 $229 reversed $87 $-1 #
coedge $-1 $143 $89 $230 $231 reversed $56 $-1 #
coedge $-1 $89 $142 $226 $232 reversed $56 $-1 #
coedge $-1 $228 $233 $89 $145 forward $234 $-1 #
edge $-1 $235 5.55715227825808 $236 11.237332659546588 $144 $237 forward 7 unknown #
loop $-1 $-1 $151 $90 #
plane-surface $-1 -63.303933835871447 -0.50888820953996827 4.7669449615964936 -0.5877852598018023 0 0.80901698891910034 0.80901698891910034 0 0.5877852598018023 forward_v I I I I #
loop $-1 $-1 $238 $58 #
coedge $-1 $149 $149 $150 $239 reversed $91 $-1 #
coedge $-1 $150 $150 $149 $239 forward $93 $-1 #
coedge $-1 $151 $151 $94 $152 forward $146 $-1 #
edge $-1 $240 0 $240 6.2831853071796004 $151 $241 forward 7 unknown #
loop $-1 $-1 $158 $95 #
plane-surface $-1 -63.303933835871447 -0.50888820953996827 4.7669449615964936 -0.5877852598018023 0 0.80901698891910034 0.80901698891910034 0 0.5877852598018023 forward_v I I I I #
loop $-1 $-1 $242 $61 #
coedge $-1 $156 $156 $157 $243 reversed $96 $-1 #
coedge $-1 $157 $157 $156 $243 forward $98 $-1 #
coedge $-1 $158 $158 $99 $159 forward $153 $-1 #
edge $-1 $244 0 $244 6.2831853071796004 $158 $245 forward 7 unknown #
face $-1 $246 $247 $24 $-1 $248 reversed single #
loop $-1 $-1 $249 $100 #
plane-surface $-1 -63.303933835871455 0 0 1 0 0 0 0 -1 forward_v I I I I #
coedge $-1 $250 $171 $251 $252 forward $101 $-1 #
coedge $-1 $253 $103 $250 $254 forward $65 $-1 #
coedge $-1 $103 $253 $255 $256 forward $65 $-1 #
coedge $-1 $174 $173 $103 $167 reversed $175 $-1 #
edge $-1 $257 -36.271625922065972 $258 36.271625922065972 $166 $259 forward 7 unknown #
coedge $-1 $105 $104 $260 $261 forward $41 $-1 #
coedge $-1 $262 $263 $104 $170 reversed $247 $-1 #
edge $-1 $177 -63.303933835871455 $264 63.303933835871455 $169 $265 forward 7 unknown #
coedge $-1 $163 $266 $105 $172 reversed $101 $-1 #
edge $-1 $267 -63.303933835871455 $176 63.303933835871455 $171 $268 forward 7 unknown #
coedge $-1 $166 $106 $266 $269 forward $175 $-1 #
coedge $-1 $106 $166 $262 $270 reversed $175 $-1 #
loop $-1 $-1 $173 $246 #
vertex $-1 $107 $271 #
vertex $-1 $107 $272 #
straight-curve $-1 63.303933835871455 0 8.8938376558988939 0 1 0 I I #
face $-1 $273 $274 $25 $-1 $275 reversed single #
loop $-1 $-1 $276 $108 #
plane-surface $-1 -63.303933835871455 0 0 1 0 0 0 0 -1 forward_v I I I I #
coedge $-1 $277 $188 $193 $278 reversed $109 $-1 #
coedge $-1 $279 $111 $280 $281 reversed $69 $-1 #
coedge $-1 $111 $279 $277 $282 forward $69 $-1 #
coedge $-1 $193 $192 $111 $186 forward $194 $-1 #
edge $-1 $283 -20.600711825420476 $284 -10.741116367870513 $185 $285 forward 7 unknown #
coedge $-1 $113 $112 $276 $286 reversed $44 $-1 #
coedge $-1 $182 $287 $112 $189 reversed $109 $-1 #
edge $-1 $195 -63.303933835871455 $288 63.303933835871455 $188 $289 forward 7 unknown #
coedge $-1 $290 $291 $113 $191 forward $274 $-1 #
edge $-1 $196 -63.303933835871455 $292 63.303933835871455 $190 $293 forward 7 unknown #
coedge $-1 $185 $114 $291 $294 forward $194 $-1 #
coedge $-1 $114 $185 $182 $278 forward $194 $-1 #
loop $-1 $-1 $114 $273 #
vertex $-1 $115 $295 #
vertex $-1 $294 $296 #
straight-curve $-1 63.303933835871455 -15.670914096645495 -3.7233247728167744 0 -1 0 I I #
face $-1 $-1 $210 $26 $-1 $297 reversed single #
loop $-1 $-1 $298 $116 #
plane-surface $-1 0 0 8.8938376558988939 0 0 1 1 0 0 forward_v I I I I #
coedge $-1 $299 $300 $301 $302 reversed $117 $-1 #
coedge $-1 $303 $119 $121 $208 forward $73 $-1 #
coedge $-1 $119 $303 $299 $304 forward $73 $-1 #
coedge $-1 $301 $122 $119 $205 forward $210 $-1 #
edge $-1 $212 -6.8915427604426682 $305 6.3826545509027 $204 $306 forward 7 unknown #
coedge $-1 $307 $308 $120 $207 forward $199 $-1 #
edge $-1 $309 39.976625279084118 $211 45.656805660372598 $206 $310 forward 7 unknown #
edge $-1 $212 -126.60786767174289 $309 -119.58677854866086 $121 $311 forward 7 unknown #
coedge $-1 $122 $301 $307 $312 reversed $210 $-1 #
loop $-1 $-1 $301 $198 #
vertex $-1 $312 $313 #
vertex $-1 $123 $314 #
straight-curve $-1 63.303933835871455 -7.1459868652126524 90.806549615622743 0 0 -1 I I #
coedge $-1 $214 $214 $-1 $315 reversed $126 $-1 #
edge $-1 $316 0 $316 6.2831853071796004 $127 $317 forward 7 unknown #
vertex $-1 $130 $318 #
ellipse-curve $-1 60.463843645227215 -3.3533590619711191 6.8303913087476946 0.5877852598018023 0 0.80901698891910034 0.80901698891910034 0 -0.5877852598018023 1 I I #
coedge $-1 $218 $218 $-1 $319 reversed $133 $-1 #
edge $-1 $320 0 $320 6.2831853071796004 $134 $321 forward 7 unknown #
vertex $-1 $137 $322 #
ellipse-curve $-1 60.463843645227215 2.3355826428911826 6.8303913087476946 0.5877852598018023 0 0.80901698891910034 0.80901698891910034 0 -0.5877852598018023 1 I I #
face $-1 $-1 $234 $29 $-1 $323 forward single #
loop $-1 $-1 $324 $138 #
plane-surface $-1 -63.303933835871455 0 0 1 0 0 0 0 -1 forward_v I I I I #
coedge $-1 $325 $326 $327 $328 reversed $139 $-1 #
coedge $-1 $329 $141 $143 $232 forward $87 $-1 #
coedge $-1 $141 $329 $325 $330 forward $87 $-1 #
coedge $-1 $327 $144 $141 $229 forward $234 $-1 #
edge $-1 $236 -6.8915427604426682 $331 6.3826545509027 $228 $332 forward 7 unknown #
coedge $-1 $333 $334 $142 $231 forward $223 $-1 #
edge $-1 $335 -48.830485457832445 $235 -44.70359276353004 $230 $336 forward 7 unknown #
edge $-1 $236 -7.0210891230820671 $335 8.8807605448725156e-015 $143 $337 forward 7 unknown #
coedge $-1 $144 $327 $333 $338 forward $234 $-1 #
loop $-1 $-1 $327 $222 #
vertex $-1 $231 $339 #
vertex $-1 $145 $340 #
straight-curve $-1 -68.861086114129535 -7.1459868652126524 8.8938376558988921 1 0 0 I I #
coedge $-1 $238 $238 $-1 $341 reversed $148 $-1 #
edge $-1 $342 0 $342 6.2831853071796004 $149 $343 forward 7 unknown #
vertex $-1 $152 $344 #
ellipse-curve $-1 -60.4638436452272 -3.3533590619711191 6.830391308747692 -0.5877852598018023 0 0.80901698891910034 0.80901698891910034 0 0.5877852598018023 1 I I #
coedge $-1 $242 $242 $-1 $345 reversed $155 $-1 #
edge $-1 $346 0 $346 6.2831853071796004 $156 $347 forward 7 unknown #
vertex $-1 $159 $348 #
ellipse-curve $-1 -60.4638436452272 2.3355826428911826 6.830391308747692 -0.5877852598018023 0 0.80901698891910034 0.80901698891910034 0 0.5877852598018023 1 I I #
face $-1 $-1 $175 $24 $-1 $349 reversed single #
loop $-1 $-1 $262 $160 #
plane-surface $-1 0 36.271625922065972 0 0 -1 0 0 0 -1 forward_v I I I I #
coedge $-1 $350 $260 $263 $351 forward $161 $-1 #
coedge $-1 $266 $163 $164 $254 reversed $101 $-1 #
coedge $-1 $260 $350 $163 $252 reversed $161 $-1 #
edge $-1 $267 -8.8938376558988939 $352 8.8938376558988939 $251 $353 forward 7 unknown #
coedge $-1 $165 $164 $350 $354 forward $65 $-1 #
edge $-1 $258 -63.303933835871455 $352 63.303933835871455 $250 $355 forward 7 unknown #
coedge $-1 $263 $262 $165 $256 reversed $247 $-1 #
edge $-1 $356 -63.303933835871455 $257 63.303933835871455 $255 $357 forward 7 unknown #
vertex $-1 $167 $358 #
vertex $-1 $269 $359 #
straight-curve $-1 63.303933835871455 0 -8.8938376558988939 0 -1 0 I I #
coedge $-1 $249 $251 $168 $261 reversed $161 $-1 #
edge $-1 $264 -36.271625922065972 $267 36.271625922065972 $260 $360 forward 7 unknown #
coedge $-1 $255 $169 $174 $270 forward $247 $-1 #
coedge $-1 $169 $255 $249 $351 reversed $247 $-1 #
vertex $-1 $170 $361 #
straight-curve $-1 0 36.271625922065972 8.8938376558988939 -1 0 0 I I #
coedge $-1 $171 $250 $173 $269 reversed $101 $-1 #
vertex $-1 $261 $362 #
straight-curve $-1 0 -36.271625922065972 8.8938376558988939 1 0 0 I I #
edge $-1 $176 -8.8938376558988939 $258 8.8938376558988939 $173 $363 forward 7 unknown #
edge $-1 $177 -8.8938376558988939 $257 8.8938376558988939 $174 $364 forward 7 unknown #
point $-1 63.303933835871455 -36.271625922065972 8.8938376558988939 #
point $-1 63.303933835871455 36.271625922065972 8.8938376558988939 #
face $-1 $-1 $194 $25 $-1 $365 reversed single #
loop $-1 $-1 $190 $179 #
plane-surface $-1 0 -36.271625922065972 0 0 1 0 0 0 1 forward_v I I I I #
coedge $-1 $366 $367 $187 $286 forward $180 $-1 #
coedge $-1 $287 $182 $184 $282 reversed $109 $-1 #
edge $-1 $284 -4.6479249980974693 $195 -0.93290818251202667 $193 $368 forward 7 unknown #
coedge $-1 $184 $183 $369 $370 reversed $69 $-1 #
coedge $-1 $291 $290 $183 $281 forward $274 $-1 #
edge $-1 $371 -63.303933835871455 $283 63.303933835871455 $280 $372 forward 7 unknown #
edge $-1 $373 -63.303933835871455 $284 63.303933835871455 $277 $374 forward 7 unknown #
vertex $-1 $281 $375 #
vertex $-1 $186 $376 #
straight-curve $-1 63.303933835871455 -15.670914096645495 -7.438341588402217 0 1 0 I I #
edge $-1 $292 -20.600711825420476 $288 -10.741116367870513 $276 $377 forward 7 unknown #
coedge $-1 $188 $277 $366 $378 reversed $109 $-1 #
vertex $-1 $286 $379 #
straight-curve $-1 0 -26.412030464516008 -3.7233247728167744 -1 0 0 I I #
coedge $-1 $280 $190 $367 $380 forward $274 $-1 #
coedge $-1 $190 $280 $192 $294 reversed $274 $-1 #
vertex $-1 $380 $381 #
straight-curve $-1 0 -36.271625922065972 -3.7233247728167744 -1 0 0 I I #
edge $-1 $196 3.7233247728167744 $283 7.438341588402217 $192 $382 forward 7 unknown #
point $-1 63.303933835871455 -26.412030464516008 -3.7233247728167744 #
point $-1 63.303933835871455 -36.271625922065972 -3.7233247728167744 #
plane-surface $-1 63.303933835871455 0 0 -1 0 0 0 0 1 forward_v I I I I #
coedge $-1 $308 $307 $300 $383 forward $199 $-1 #
coedge $-1 $300 $201 $203 $304 reversed $117 $-1 #
coedge $-1 $201 $299 $298 $383 reversed $117 $-1 #
coedge $-1 $209 $204 $201 $302 forward $210 $-1 #
edge $-1 $305 -86.039604654026235 $384 -81.91271195972385 $301 $385 forward 7 unknown #
coedge $-1 $203 $202 $308 $386 reversed $73 $-1 #
edge $-1 $387 119.58677854866086 $305 126.60786767174289 $299 $388 forward 7 unknown #
vertex $-1 $205 $389 #
straight-curve $-1 63.303933835871462 -0.25444410476998414 4.7669449615965007 0 1 0 I I #
coedge $-1 $298 $206 $209 $312 forward $199 $-1 #
coedge $-1 $206 $298 $303 $386 forward $199 $-1 #
vertex $-1 $207 $390 #
straight-curve $-1 17.64712817549886 -7.1459868652126524 8.8938376558988921 1 0 0 I I #
straight-curve $-1 -39.123982041389901 -7.1459868652126524 79.185183353984115 -0.80901698891910034 0 0.5877852598018023 I I #
edge $-1 $211 -7.1459868652126524 $384 6.1282104461327158 $209 $391 forward 7 unknown #
point $-1 63.303933835871455 -7.1459868652126524 8.8938376558988939 #
point $-1 63.303933835871455 -7.1459868652126524 4.7669449615965078 #
edge $-1 $392 1 $392 0 $214 $-1 forward 7 unknown #
vertex $-1 $215 $393 #
ellipse-curve $-1 59.249544271108022 -3.3533590619711191 5.1590516367941675 0.5877852598018023 0 0.80901698891910034 0.80901698891910034 0 -0.5877852598018023 1 I I #
point $-1 61.272860634146305 -3.3533590619711191 6.2426060489458752 #
edge $-1 $394 1 $394 0 $218 $-1 forward 7 unknown #
vertex $-1 $219 $395 #
ellipse-curve $-1 59.249544271108022 2.3355826428911826 5.1590516367941675 0.5877852598018023 0 0.80901698891910034 0.80901698891910034 0 -0.5877852598018023 1 I I #
point $-1 61.272860634146305 2.3355826428911826 6.2426060489458752 #
plane-surface $-1 0 0 8.8938376558988939 0 0 1 1 0 0 forward_v I I I I #
coedge $-1 $334 $333 $326 $396 forward $223 $-1 #
coedge $-1 $326 $225 $227 $330 reversed $139 $-1 #
coedge $-1 $225 $325 $324 $396 reversed $139 $-1 #
coedge $-1 $233 $228 $225 $328 forward $234 $-1 #
edge $-1 $331 -11.237332659546588 $397 -5.55715227825808 $327 $398 forward 7 unknown #
coedge $-1 $227 $226 $334 $399 reversed $87 $-1 #
edge $-1 $400 -8.8807605448725156e-015 $331 7.0210891230820671 $325 $401 forward 7 unknown #
vertex $-1 $229 $402 #
straight-curve $-1 -57.623753454582953 -0.25444410476998414 8.8938376558988921 0 1 0 I I #
coedge $-1 $324 $230 $233 $338 reversed $223 $-1 #
coedge $-1 $230 $324 $329 $399 forward $223 $-1 #
vertex $-1 $231 $403 #
straight-curve $-1 -63.303933835871455 -7.1459868652126524 53.597430419428932 0 0 1 I I #
straight-curve $-1 -63.303933835871447 -7.1459868652126524 4.7669449615964936 -0.80901698891910034 0 -0.5877852598018023 I I #
edge $-1 $397 -6.1282104461327158 $235 7.1459868652126524 $333 $404 forward 7 unknown #
point $-1 -63.303933835871455 -7.1459868652126524 8.8938376558988939 #
point $-1 -57.623753454582946 -7.1459868652126524 8.8938376558988939 #
edge $-1 $405 1 $405 0 $238 $-1 forward 7 unknown #
vertex $-1 $239 $406 #
ellipse-curve $-1 -59.249544271108022 -3.3533590619711191 5.159051636794187 -0.5877852598018023 0 0.80901698891910034 0.80901698891910034 0 0.5877852598018023 1 I I #
point $-1 -59.65482665630811 -3.3533590619711191 7.4181765685494998 #
edge $-1 $407 1 $407 0 $242 $-1 forward 7 unknown #
vertex $-1 $243 $408 #
ellipse-curve $-1 -59.249544271108022 2.3355826428911826 5.159051636794187 -0.5877852598018023 0 0.80901698891910034 0.80901698891910034 0 0.5877852598018023 1 I I #
point $-1 -59.65482665630811 2.3355826428911826 7.4181765685494998 #
plane-surface $-1 63.303933835871455 0 0 -1 0 0 0 0 1 forward_v I I I I #
coedge $-1 $251 $249 $253 $354 reversed $161 $-1 #
edge $-1 $264 -8.8938376558988939 $356 8.8938376558988939 $263 $409 forward 7 unknown #
vertex $-1 $354 $410 #
straight-curve $-1 -63.303933835871455 -36.271625922065972 0 0 0 -1 I I #
edge $-1 $352 -36.271625922065972 $356 36.271625922065972 $350 $411 forward 7 unknown #
straight-curve $-1 0 -36.271625922065972 -8.8938376558988939 -1 0 0 I I #
vertex $-1 $256 $412 #
straight-curve $-1 0 36.271625922065972 -8.8938376558988939 1 0 0 I I #
point $-1 63.303933835871455 36.271625922065972 -8.8938376558988939 #
point $-1 63.303933835871455 -36.271625922065972 -8.8938376558988939 #
straight-curve $-1 -63.303933835871455 0 8.8938376558988939 0 -1 0 I I #
point $-1 -63.303933835871455 36.271625922065972 8.8938376558988939 #
point $-1 -63.303933835871455 -36.271625922065972 8.8938376558988939 #
straight-curve $-1 63.303933835871455 -36.271625922065972 0 0 0 -1 I I #
straight-curve $-1 63.303933835871455 36.271625922065972 0 0 0 -1 I I #
plane-surface $-1 63.303933835871455 0 0 -1 0 0 0 0 1 forward_v I I I I #
coedge $-1 $369 $276 $287 $378 forward $180 $-1 #
coedge $-1 $276 $369 $290 $380 reversed $180 $-1 #
straight-curve $-1 63.303933835871455 -26.412030464516008 -2.7904165903047478 0 0 1 I I #
coedge $-1 $367 $366 $279 $370 forward $180 $-1 #
edge $-1 $373 10.741116367870513 $371 20.600711825420476 $369 $413 forward 7 unknown #
vertex $-1 $281 $414 #
straight-curve $-1 0 -36.271625922065972 -7.438341588402217 1 0 0 I I #
vertex $-1 $370 $415 #
straight-curve $-1 0 -26.412030464516008 -7.438341588402217 1 0 0 I I #
point $-1 63.303933835871455 -36.271625922065972 -7.438341588402217 #
point $-1 63.303933835871455 -26.412030464516008 -7.438341588402217 #
straight-curve $-1 -63.303933835871455 -15.670914096645495 -3.7233247728167744 0 1 0 I I #
edge $-1 $288 0.93290818251202667 $373 4.6479249980974693 $366 $416 forward 7 unknown #
point $-1 -63.303933835871455 -26.412030464516008 -3.7233247728167744 #
edge $-1 $292 3.7233247728167744 $371 7.438341588402217 $367 $417 forward 7 unknown #
point $-1 -63.303933835871455 -36.271625922065972 -3.7233247728167744 #
straight-curve $-1 63.303933835871455 -36.271625922065972 0 0 0 -1 I I #
edge $-1 $384 -45.656805660372598 $387 -39.976625279084118 $298 $418 forward 7 unknown #
vertex $-1 $383 $419 #
straight-curve $-1 63.303933835871455 6.1282104461327158 90.806549615622743 0 0 1 I I #
edge $-1 $387 -6.3826545509027 $309 6.8915427604426682 $308 $420 forward 7 unknown #
vertex $-1 $386 $421 #
straight-curve $-1 -39.123982041389901 6.1282104461327158 79.185183353984115 0.80901698891910034 0 -0.5877852598018023 I I #
point $-1 63.303933835871455 6.1282104461327158 4.7669449615965078 #
point $-1 57.623753454582975 -7.1459868652126524 8.8938376558988921 #
straight-curve $-1 63.303933835871455 0 8.8938376558988939 0 1 0 I I #
vertex $-1 $315 $422 #
point $-1 60.058561260027119 -3.3533590619711191 4.5712663769923649 #
vertex $-1 $319 $423 #
point $-1 60.058561260027119 2.3355826428911826 4.5712663769923649 #
edge $-1 $397 44.70359276353004 $400 48.830485457832445 $324 $424 forward 7 unknown #
vertex $-1 $338 $425 #
straight-curve $-1 -68.861086114129535 6.1282104461327158 8.8938376558988921 -1 0 0 I I #
edge $-1 $400 -6.3826545509027 $335 6.8915427604426682 $334 $426 forward 7 unknown #
vertex $-1 $399 $427 #
straight-curve $-1 -63.303933835871447 6.1282104461327158 4.7669449615964936 0.80901698891910034 0 0.5877852598018023 I I #
point $-1 -57.623753454582946 6.1282104461327158 8.8938376558988939 #
point $-1 -63.303933835871455 -7.1459868652126524 4.7669449615964883 #
straight-curve $-1 -63.303933835871455 0 8.8938376558988939 0 -1 0 I I #
vertex $-1 $341 $428 #
point $-1 -58.440527282188917 -3.3533590619711191 5.7468368965959886 #
vertex $-1 $345 $429 #
point $-1 -58.440527282188917 2.3355826428911826 5.7468368965959886 #
straight-curve $-1 -63.303933835871455 36.271625922065972 0 0 0 -1 I I #
point $-1 -63.303933835871455 -36.271625922065972 -8.8938376558988939 #
straight-curve $-1 -63.303933835871455 0 -8.8938376558988939 0 1 0 I I #
point $-1 -63.303933835871455 36.271625922065972 -8.8938376558988939 #
straight-curve $-1 -63.303933835871455 -15.670914096645495 -7.438341588402217 0 -1 0 I I #
point $-1 -63.303933835871455 -36.271625922065972 -7.438341588402217 #
point $-1 -63.303933835871455 -26.412030464516008 -7.438341588402217 #
straight-curve $-1 -63.303933835871455 -26.412030464516008 -2.7904165903047478 0 0 -1 I I #
straight-curve $-1 -63.303933835871455 -36.271625922065972 0 0 0 -1 I I #
straight-curve $-1 17.64712817549886 6.1282104461327158 8.8938376558988921 -1 0 0 I I #
point $-1 63.303933835871455 6.1282104461327158 8.8938376558988939 #
straight-curve $-1 57.623753454582975 -0.25444410476998414 8.8938376558988921 0 -1 0 I I #
point $-1 57.623753454582975 6.1282104461327158 8.8938376558988921 #
point $-1 58.661759011306216 -3.3533590619711191 4.3500346478750664 #
point $-1 58.661759011306216 2.3355826428911826 4.3500346478750664 #
straight-curve $-1 -63.303933835871455 6.1282104461327158 53.597430419428932 0 0 -1 I I #
point $-1 -63.303933835871455 6.1282104461327158 8.8938376558988939 #
straight-curve $-1 -63.303933835871455 -0.25444410476998414 4.7669449615964821 0 -1 0 I I #
point $-1 -63.303933835871455 6.1282104461327158 4.7669449615964883 #
point $-1 -58.661759011306216 -3.3533590619711191 4.350034647875086 #
point $-1 -58.661759011306216 2.3355826428911826 4.350034647875086 #
End-of-ACIS-data 