500 0 11 0           
7 Unknown 11 ACIS 5.0 NT 24 Fri Mar 26 15:37:29 1999 
-1 9.9999999999999995e-007 1e-010 
body $-1 $11 $-1 $12 #
body $-1 $13 $-1 $14 #
body $-1 $15 $-1 $16 #
body $-1 $17 $-1 $18 #
body $-1 $19 $-1 $20 #
body $-1 $21 $-1 $22 #
body $-1 $23 $-1 $24 #
body $-1 $25 $-1 $26 #
body $-1 $27 $-1 $28 #
body $-1 $29 $-1 $30 #
body $-1 $31 $-1 $32 #
lump $-1 $-1 $33 $0 #
transform $-1 1 0 0 0 1 0 0 0 1 75.654164250617995 51.203418090943792 22.263415577419185 1 rotate no_reflect no_shear #
lump $-1 $-1 $34 $1 #
transform $-1 1 0 0 0 1 0 0 0 1 75.654164250617995 51.203418090943792 22.263415577419185 1 rotate no_reflect no_shear #
lump $-1 $-1 $35 $2 #
transform $-1 1 0 0 0 1 0 0 0 1 75.654164250617995 51.203418090943792 22.263415577419185 1 rotate no_reflect no_shear #
lump $-1 $-1 $36 $3 #
transform $-1 1 0 0 0 1 0 0 0 1 75.654164250617995 51.203418090943792 22.263415577419185 1 rotate no_reflect no_shear #
lump $-1 $-1 $37 $4 #
transform $-1 1 0 0 0 1 0 0 0 1 75.654164250617995 51.203418090943792 22.263415577419185 1 rotate no_reflect no_shear #
lump $-1 $-1 $38 $5 #
transform $-1 1 0 0 0 1 0 0 0 1 75.654164250617995 51.203418090943792 22.263415577419185 1 rotate no_reflect no_shear #
lump $-1 $-1 $39 $6 #
transform $-1 1 0 0 0 1 0 0 0 1 75.654164250617995 51.203418090943792 22.263415577419185 1 rotate no_reflect no_shear #
lump $-1 $-1 $40 $7 #
transform $-1 1 0 0 0 1 0 0 0 1 75.654164250617995 51.203418090943792 22.263415577419185 1 rotate no_reflect no_shear #
lump $-1 $-1 $41 $8 #
transform $-1 1 0 0 0 1 0 0 0 1 75.654164250617995 51.203418090943792 22.263415577419185 1 rotate no_reflect no_shear #
lump $-1 $-1 $42 $9 #
transform $-1 1 0 0 0 1 0 0 0 1 75.654164250617995 51.203418090943792 22.263415577419185 1 rotate no_reflect no_shear #
lump $-1 $-1 $43 $10 #
transform $-1 1 0 0 0 1 0 0 0 1 75.654164250617995 51.203418090943792 22.263415577419185 1 rotate no_reflect no_shear #
shell $-1 $-1 $-1 $44 $-1 $11 #
shell $-1 $-1 $-1 $45 $-1 $13 #
shell $-1 $-1 $-1 $46 $-1 $15 #
shell $-1 $-1 $-1 $47 $-1 $17 #
shell $-1 $-1 $-1 $48 $-1 $19 #
shell $-1 $-1 $-1 $49 $-1 $21 #
shell $-1 $-1 $-1 $50 $-1 $23 #
shell $-1 $-1 $-1 $51 $-1 $25 #
shell $-1 $-1 $-1 $52 $-1 $27 #
shell $-1 $-1 $-1 $53 $-1 $29 #
shell $-1 $-1 $-1 $54 $-1 $31 #
face $-1 $55 $56 $33 $-1 $57 forward single #
face $-1 $58 $59 $34 $-1 $60 forward single #
face $-1 $61 $62 $35 $-1 $63 forward single #
face $-1 $64 $65 $36 $-1 $66 reversed single #
face $-1 $67 $68 $37 $-1 $69 forward single #
face $-1 $70 $71 $38 $-1 $72 forward single #
face $-1 $73 $74 $39 $-1 $75 forward single #
face $-1 $76 $77 $40 $-1 $78 reversed single #
face $-1 $79 $80 $41 $-1 $81 forward single #
face $-1 $82 $83 $42 $-1 $84 forward single #
face $-1 $85 $86 $43 $-1 $87 forward single #
face $-1 $88 $89 $33 $-1 $90 reversed single #
loop $-1 $-1 $91 $44 #
plane-surface $-1 0 0 22.263415577419185 0 0 1 1 0 0 forward_v I I I I #
face $-1 $92 $93 $34 $-1 $94 reversed single #
loop $-1 $-1 $95 $45 #
plane-surface $-1 0 -40.262736618027262 10.298158545621181 0 0 1 1 0 0 forward_v I I I I #
face $-1 $96 $97 $35 $-1 $98 reversed single #
loop $-1 $-1 $99 $46 #
plane-surface $-1 0 40.262736618027269 10.298158545621181 0 0 1 1 0 0 forward_v I I I I #
face $-1 $100 $101 $36 $-1 $102 reversed single #
loop $-1 $-1 $103 $47 #
plane-surface $-1 -186.31407163631019 6.9559491587176545 113.68411643393284 0 -1 0 0.73135370988377701 0 -0.68199835119979291 forward_v I I I I #
face $-1 $104 $105 $37 $-1 $106 forward single #
loop $-1 $107 $108 $48 #
cone-surface $-1 -69.642549896263375 -0.087477836688428567 15.889911791227487 0.73135370988377701 0 -0.68199835119979291 0.34099917559989645 0 0.36567685494188851 1 I I 0 1 0.5 forward I I I I #
face $-1 $109 $110 $38 $-1 $111 forward single #
loop $-1 $112 $113 $49 #
cone-surface $-1 -69.642549896263375 2.5538072865888495 15.889911791227487 0.73135370988377701 0 -0.68199835119979291 0.34099917559989645 0 0.36567685494188851 1 I I 0 1 0.5 forward I I I I #
face $-1 $114 $115 $39 $-1 $116 forward single #
loop $-1 $117 $118 $50 #
cone-surface $-1 -69.642549896263375 5.1950924098661275 15.889911791227487 0.73135370988377701 0 -0.68199835119979291 0.34099917559989645 0 0.36567685494188851 1 I I 0 1 0.5 forward I I I I #
face $-1 $119 $120 $40 $-1 $121 reversed single #
loop $-1 $-1 $122 $51 #
plane-surface $-1 42.179961106441411 -10.972607432692431 222.56241708222254 0 1 0 0.5877852598018023 0 0.80901698891910034 forward_v I I I I #
face $-1 $123 $124 $41 $-1 $125 forward single #
loop $-1 $126 $127 $52 #
cone-surface $-1 67.756579232199357 -9.109995447296825 16.334501084997555 -0.5877852598018023 0 -0.80901698891910034 0.20225424722977509 0 -0.14694631495045057 1 I I 0 1 0.25 forward I I I I #
face $-1 $128 $129 $42 $-1 $130 forward single #
loop $-1 $131 $132 $53 #
cone-surface $-1 67.756579232199357 -6.3160774692034067 16.334501084997555 -0.5877852598018023 0 -0.80901698891910034 0.20225424722977509 0 -0.14694631495045057 1 I I 0 1 0.25 forward I I I I #
face $-1 $133 $134 $43 $-1 $135 forward single #
loop $-1 $136 $137 $54 #
cone-surface $-1 67.756579232199357 -3.5221594911099885 16.334501084997555 -0.5877852598018023 0 -0.80901698891910034 0.20225424722977509 0 -0.14694631495045057 1 I I 0 1 0.25 forward I I I I #
face $-1 $138 $139 $33 $-1 $140 reversed single #
loop $-1 $-1 $141 $55 #
plane-surface $-1 0 0 -22.263415577419185 0 0 1 1 0 0 forward_v I I I I #
coedge $-1 $142 $143 $144 $145 forward $56 $-1 #
face $-1 $146 $147 $34 $-1 $148 reversed single #
loop $-1 $-1 $149 $58 #
plane-surface $-1 0 -40.262736618027262 3.8840499688838328 0 0 1 1 0 0 forward_v I I I I #
coedge $-1 $150 $151 $152 $153 reversed $59 $-1 #
face $-1 $154 $155 $35 $-1 $156 reversed single #
loop $-1 $-1 $157 $61 #
plane-surface $-1 0 40.262736618027269 3.8840499688838328 0 0 1 1 0 0 forward_v I I I I #
coedge $-1 $158 $159 $160 $161 reversed $62 $-1 #
face $-1 $162 $163 $36 $-1 $164 reversed single #
loop $-1 $-1 $165 $64 #
plane-surface $-1 -75.654164250618038 2.5538072865888566 10.492085873293291 -0.73135370988377701 0 0.68199835119979291 0.68199835119979291 0 0.73135370988377701 forward_v I I I I #
coedge $-1 $166 $167 $168 $169 reversed $65 $-1 #
face $-1 $-1 $170 $37 $-1 $171 forward single #
loop $-1 $172 $173 $67 #
cone-surface $-1 -68.936568247590898 -0.087477836688428567 15.231573269298803 0.73135370988377701 0 -0.68199835119979291 0.17049958779994823 0 0.18283842747094425 1 I I -0.70710678118654746 0.70710678118654746 0.25 forward I I I I #
loop $-1 $-1 $174 $48 #
coedge $-1 $108 $108 $175 $176 reversed $68 $-1 #
face $-1 $-1 $177 $38 $-1 $178 forward single #
loop $-1 $179 $180 $70 #
cone-surface $-1 -68.936568247590898 2.5538072865888495 15.231573269298803 0.73135370988377701 0 -0.68199835119979291 0.17049958779994823 0 0.18283842747094425 1 I I -0.70710678118654746 0.70710678118654746 0.25 forward I I I I #
loop $-1 $-1 $181 $49 #
coedge $-1 $113 $113 $182 $183 reversed $71 $-1 #
face $-1 $-1 $184 $39 $-1 $185 forward single #
loop $-1 $186 $187 $73 #
cone-surface $-1 -68.936568247590898 5.1950924098661275 15.231573269298803 0.73135370988377701 0 -0.68199835119979291 0.17049958779994823 0 0.18283842747094425 1 I I -0.70710678118654746 0.70710678118654746 0.25 forward I I I I #
loop $-1 $-1 $188 $50 #
coedge $-1 $118 $118 $189 $190 reversed $74 $-1 #
face $-1 $191 $192 $40 $-1 $193 reversed single #
loop $-1 $-1 $194 $76 #
plane-surface $-1 -46.756844071834053 -6.3160774692033996 100.15140875977048 0.5877852598018023 0 0.80901698891910034 0.80901698891910034 0 -0.5877852598018023 forward_v I I I I #
coedge $-1 $195 $196 $197 $198 reversed $77 $-1 #
face $-1 $-1 $199 $41 $-1 $200 forward single #
loop $-1 $201 $202 $79 #
cone-surface $-1 67.389213444823227 -9.109995447296825 15.828865466923116 -0.5877852598018023 0 -0.80901698891910034 0.10112712361488754 0 -0.073473157475225287 1 I I -0.70710678118654746 0.70710678118654746 0.125 forward I I I I #
loop $-1 $-1 $203 $52 #
coedge $-1 $127 $127 $204 $205 reversed $80 $-1 #
face $-1 $-1 $206 $42 $-1 $207 forward single #
loop $-1 $208 $209 $82 #
cone-surface $-1 67.389213444823227 -6.3160774692034067 15.828865466923116 -0.5877852598018023 0 -0.80901698891910034 0.10112712361488754 0 -0.073473157475225287 1 I I -0.70710678118654746 0.70710678118654746 0.125 forward I I I I #
loop $-1 $-1 $210 $53 #
coedge $-1 $132 $132 $211 $212 reversed $83 $-1 #
face $-1 $-1 $213 $43 $-1 $214 forward single #
loop $-1 $215 $216 $85 #
cone-surface $-1 67.389213444823227 -3.5221594911099885 15.828865466923116 -0.5877852598018023 0 -0.80901698891910034 0.10112712361488754 0 -0.073473157475225287 1 I I -0.70710678118654746 0.70710678118654746 0.125 forward I I I I #
loop $-1 $-1 $217 $54 #
coedge $-1 $137 $137 $218 $219 reversed $86 $-1 #
face $-1 $220 $221 $33 $-1 $222 reversed single #
loop $-1 $-1 $223 $88 #
plane-surface $-1 0 -51.203418090943792 0 0 1 0 0 0 1 forward_v I I I I #
coedge $-1 $224 $225 $226 $227 forward $89 $-1 #
coedge $-1 $228 $91 $229 $230 forward $56 $-1 #
coedge $-1 $91 $228 $231 $232 forward $56 $-1 #
coedge $-1 $233 $234 $91 $145 reversed $235 $-1 #
edge $-1 $236 -51.203418090943792 $237 51.203418090943792 $144 $238 forward 7 unknown #
face $-1 $239 $240 $34 $-1 $241 reversed single #
loop $-1 $-1 $242 $92 #
plane-surface $-1 0 -29.322055145110735 7.0911042572525069 0 -1 0 0 0 -1 forward_v I I I I #
coedge $-1 $243 $244 $245 $246 reversed $93 $-1 #
coedge $-1 $247 $95 $248 $249 forward $59 $-1 #
coedge $-1 $95 $247 $250 $251 reversed $59 $-1 #
coedge $-1 $252 $253 $95 $153 forward $254 $-1 #
edge $-1 $255 9.1906868360971039 $256 31.072049781930154 $152 $257 forward 7 unknown #
face $-1 $258 $259 $35 $-1 $260 reversed single #
loop $-1 $-1 $261 $96 #
plane-surface $-1 0 29.322055145110738 7.0911042572525069 0 1 0 0 0 1 forward_v I I I I #
coedge $-1 $262 $263 $264 $265 reversed $97 $-1 #
coedge $-1 $266 $99 $267 $268 reversed $62 $-1 #
coedge $-1 $99 $266 $269 $270 forward $62 $-1 #
coedge $-1 $271 $272 $99 $161 forward $259 $-1 #
edge $-1 $273 -31.072049781930165 $274 -9.1906868360971039 $160 $275 forward 7 unknown #
face $-1 $276 $277 $36 $-1 $278 reversed single #
loop $-1 $-1 $279 $100 #
plane-surface $-1 -186.31407163631019 -1.8483345855399413 113.68411643393284 0 1 0 -0.73135370988377701 0 0.68199835119979291 forward_v I I I I #
coedge $-1 $280 $281 $282 $283 reversed $101 $-1 #
coedge $-1 $167 $103 $284 $285 reversed $65 $-1 #
coedge $-1 $103 $166 $280 $286 reversed $65 $-1 #
coedge $-1 $282 $287 $103 $169 forward $277 $-1 #
edge $-1 $288 34.57864263954724 $289 46.349972343673087 $168 $290 forward 7 unknown #
loop $-1 $-1 $175 $104 #
plane-surface $-1 -75.654164250618038 2.5538072865888566 10.492085873293291 -0.73135370988377701 0 0.68199835119979291 0.68199835119979291 0 0.73135370988377701 forward_v I I I I #
loop $-1 $-1 $291 $67 #
coedge $-1 $173 $173 $174 $292 reversed $105 $-1 #
coedge $-1 $174 $174 $173 $292 forward $107 $-1 #
coedge $-1 $175 $175 $108 $176 forward $170 $-1 #
edge $-1 $293 0 $293 6.2831853071796004 $175 $294 forward 7 unknown #
loop $-1 $-1 $182 $109 #
plane-surface $-1 -75.654164250618038 2.5538072865888566 10.492085873293291 -0.73135370988377701 0 0.68199835119979291 0.68199835119979291 0 0.73135370988377701 forward_v I I I I #
loop $-1 $-1 $295 $70 #
coedge $-1 $180 $180 $181 $296 reversed $110 $-1 #
coedge $-1 $181 $181 $180 $296 forward $112 $-1 #
coedge $-1 $182 $182 $113 $183 forward $177 $-1 #
edge $-1 $297 0 $297 6.2831853071796004 $182 $298 forward 7 unknown #
loop $-1 $-1 $189 $114 #
plane-surface $-1 -75.654164250618038 2.5538072865888566 10.492085873293291 -0.73135370988377701 0 0.68199835119979291 0.68199835119979291 0 0.73135370988377701 forward_v I I I I #
loop $-1 $-1 $299 $73 #
coedge $-1 $187 $187 $188 $300 reversed $115 $-1 #
coedge $-1 $188 $188 $187 $300 forward $117 $-1 #
coedge $-1 $189 $189 $118 $190 forward $184 $-1 #
edge $-1 $301 0 $301 6.2831853071796004 $189 $302 forward 7 unknown #
face $-1 $303 $304 $40 $-1 $305 forward single #
loop $-1 $-1 $306 $119 #
plane-surface $-1 42.179961106441411 -1.659547505714368 222.56241708222254 0 -1 0 -0.5877852598018023 0 -0.80901698891910034 forward_v I I I I #
coedge $-1 $307 $308 $309 $310 reversed $120 $-1 #
coedge $-1 $196 $122 $311 $312 reversed $77 $-1 #
coedge $-1 $122 $195 $307 $313 reversed $77 $-1 #
coedge $-1 $309 $314 $122 $198 forward $315 $-1 #
edge $-1 $316 89.017792963692088 $317 100.06660495961626 $197 $318 forward 7 unknown #
loop $-1 $-1 $204 $123 #
plane-surface $-1 -46.756844071834053 -6.3160774692033996 100.15140875977048 0.5877852598018023 0 0.80901698891910034 0.80901698891910034 0 -0.5877852598018023 forward_v I I I I #
loop $-1 $-1 $319 $79 #
coedge $-1 $202 $202 $203 $320 reversed $124 $-1 #
coedge $-1 $203 $203 $202 $320 forward $126 $-1 #
coedge $-1 $204 $204 $127 $205 forward $199 $-1 #
edge $-1 $321 0 $321 6.2831853071796004 $204 $322 forward 7 unknown #
loop $-1 $-1 $211 $128 #
plane-surface $-1 -46.756844071834053 -6.3160774692033996 100.15140875977048 0.5877852598018023 0 0.80901698891910034 0.80901698891910034 0 -0.5877852598018023 forward_v I I I I #
loop $-1 $-1 $323 $82 #
coedge $-1 $209 $209 $210 $324 reversed $129 $-1 #
coedge $-1 $210 $210 $209 $324 forward $131 $-1 #
coedge $-1 $211 $211 $132 $212 forward $206 $-1 #
edge $-1 $325 0 $325 6.2831853071796004 $211 $326 forward 7 unknown #
loop $-1 $-1 $218 $133 #
plane-surface $-1 -46.756844071834053 -6.3160774692033996 100.15140875977048 0.5877852598018023 0 0.80901698891910034 0.80901698891910034 0 -0.5877852598018023 forward_v I I I I #
loop $-1 $-1 $327 $85 #
coedge $-1 $216 $216 $217 $328 reversed $134 $-1 #
coedge $-1 $217 $217 $216 $328 forward $136 $-1 #
coedge $-1 $218 $218 $137 $219 forward $213 $-1 #
edge $-1 $329 0 $329 6.2831853071796004 $218 $330 forward 7 unknown #
face $-1 $331 $332 $33 $-1 $333 reversed single #
loop $-1 $-1 $334 $138 #
plane-surface $-1 -75.654164250617995 0 0 1 0 0 0 0 -1 forward_v I I I I #
coedge $-1 $335 $231 $336 $337 forward $139 $-1 #
coedge $-1 $338 $141 $335 $339 forward $89 $-1 #
coedge $-1 $141 $338 $340 $341 forward $89 $-1 #
coedge $-1 $234 $233 $141 $227 reversed $235 $-1 #
edge $-1 $342 -51.203418090943792 $343 51.203418090943792 $226 $344 forward 7 unknown #
coedge $-1 $143 $142 $345 $346 forward $56 $-1 #
coedge $-1 $347 $348 $142 $230 reversed $332 $-1 #
edge $-1 $237 -75.654164250617995 $349 75.654164250617995 $229 $350 forward 7 unknown #
coedge $-1 $223 $351 $143 $232 reversed $139 $-1 #
edge $-1 $352 -75.654164250617995 $236 75.654164250617995 $231 $353 forward 7 unknown #
coedge $-1 $226 $144 $351 $354 forward $235 $-1 #
coedge $-1 $144 $226 $347 $355 reversed $235 $-1 #
loop $-1 $-1 $233 $331 #
vertex $-1 $145 $356 #
vertex $-1 $145 $357 #
straight-curve $-1 75.654164250617995 0 22.263415577419185 0 1 0 I I #
face $-1 $358 $359 $34 $-1 $360 reversed single #
loop $-1 $-1 $361 $146 #
plane-surface $-1 -75.654164250617995 0 0 1 0 0 0 0 -1 forward_v I I I I #
coedge $-1 $362 $248 $253 $363 reversed $147 $-1 #
coedge $-1 $364 $149 $365 $366 reversed $93 $-1 #
coedge $-1 $149 $364 $362 $367 forward $93 $-1 #
coedge $-1 $253 $252 $149 $246 forward $254 $-1 #
edge $-1 $368 -31.072049781930154 $369 -9.1906868360971039 $245 $370 forward 7 unknown #
coedge $-1 $151 $150 $361 $371 reversed $59 $-1 #
coedge $-1 $242 $372 $150 $249 reversed $147 $-1 #
edge $-1 $255 -75.654164250617995 $373 75.654164250617995 $248 $374 forward 7 unknown #
coedge $-1 $375 $376 $151 $251 forward $359 $-1 #
edge $-1 $256 -75.654164250617995 $377 75.654164250617995 $250 $378 forward 7 unknown #
coedge $-1 $245 $152 $376 $379 forward $254 $-1 #
coedge $-1 $152 $245 $242 $363 forward $254 $-1 #
loop $-1 $-1 $152 $358 #
vertex $-1 $153 $380 #
vertex $-1 $379 $381 #
straight-curve $-1 75.654164250617995 -20.131368309013631 10.298158545621181 0 -1 0 I I #
face $-1 $382 $383 $35 $-1 $384 reversed single #
loop $-1 $-1 $160 $154 #
plane-surface $-1 75.654164250617995 0 0 -1 0 0 0 0 1 forward_v I I I I #
coedge $-1 $385 $269 $386 $387 reversed $155 $-1 #
coedge $-1 $388 $157 $385 $389 forward $97 $-1 #
coedge $-1 $157 $388 $390 $391 reversed $97 $-1 #
coedge $-1 $272 $271 $157 $265 forward $259 $-1 #
edge $-1 $392 9.1906868360971039 $393 31.072049781930165 $264 $394 forward 7 unknown #
coedge $-1 $159 $158 $395 $396 reversed $62 $-1 #
coedge $-1 $397 $398 $158 $268 forward $399 $-1 #
edge $-1 $400 -75.654164250617995 $273 75.654164250617995 $267 $401 forward 7 unknown #
coedge $-1 $261 $402 $159 $270 reversed $155 $-1 #
edge $-1 $403 -75.654164250617995 $274 75.654164250617995 $269 $404 forward 7 unknown #
coedge $-1 $264 $160 $402 $405 forward $259 $-1 #
coedge $-1 $160 $264 $397 $406 reversed $259 $-1 #
vertex $-1 $406 $407 #
vertex $-1 $161 $408 #
straight-curve $-1 75.654164250617995 20.131368309013634 10.298158545621181 0 -1 0 I I #
face $-1 $-1 $409 $36 $-1 $410 forward single #
loop $-1 $-1 $168 $162 #
plane-surface $-1 -75.654164250617995 0 0 1 0 0 0 0 -1 forward_v I I I I #
coedge $-1 $411 $412 $413 $414 reversed $163 $-1 #
coedge $-1 $415 $165 $167 $286 forward $101 $-1 #
coedge $-1 $165 $415 $411 $416 forward $101 $-1 #
coedge $-1 $413 $168 $165 $283 forward $277 $-1 #
edge $-1 $289 -5.6790455154232262 $417 3.1252382288343696 $282 $418 forward 7 unknown #
coedge $-1 $419 $420 $166 $285 forward $409 $-1 #
edge $-1 $421 -28.479813833843167 $288 -17.502871567537099 $284 $422 forward 7 unknown #
edge $-1 $289 6.2853112733615348e-014 $421 16.095262176213662 $167 $423 forward 7 unknown #
coedge $-1 $168 $413 $419 $424 reversed $277 $-1 #
vertex $-1 $424 $425 #
vertex $-1 $169 $426 #
straight-curve $-1 -75.654164250617995 6.9559491587176545 56.842058216966421 0 0 -1 I I #
coedge $-1 $291 $291 $-1 $427 reversed $172 $-1 #
edge $-1 $428 0 $428 6.2831853071796004 $173 $429 forward 7 unknown #
vertex $-1 $176 $430 #
ellipse-curve $-1 -70.165693117464954 -0.087477836688428567 16.377750725356265 -0.73135370988377701 0 0.68199835119979291 0.34099917559989645 0 0.36567685494188851 1 I I #
coedge $-1 $295 $295 $-1 $431 reversed $179 $-1 #
edge $-1 $432 0 $432 6.2831853071796004 $180 $433 forward 7 unknown #
vertex $-1 $183 $434 #
ellipse-curve $-1 -70.165693117464954 2.5538072865888495 16.377750725356265 -0.73135370988377701 0 0.68199835119979291 0.34099917559989645 0 0.36567685494188851 1 I I #
coedge $-1 $299 $299 $-1 $435 reversed $186 $-1 #
edge $-1 $436 0 $436 6.2831853071796004 $187 $437 forward 7 unknown #
vertex $-1 $190 $438 #
ellipse-curve $-1 -70.165693117464954 5.1950924098661275 16.377750725356265 -0.73135370988377701 0 0.68199835119979291 0.34099917559989645 0 0.36567685494188851 1 I I #
face $-1 $-1 $315 $40 $-1 $439 reversed single #
loop $-1 $-1 $440 $191 #
plane-surface $-1 0 0 22.263415577419185 0 0 1 1 0 0 forward_v I I I I #
coedge $-1 $441 $442 $443 $444 reversed $192 $-1 #
coedge $-1 $445 $194 $196 $313 forward $120 $-1 #
coedge $-1 $194 $445 $441 $446 forward $120 $-1 #
coedge $-1 $443 $197 $194 $310 forward $315 $-1 #
edge $-1 $317 -7.8145686980907314 $447 1.4984912288873318 $309 $448 forward 7 unknown #
coedge $-1 $449 $450 $195 $312 forward $304 $-1 #
edge $-1 $451 39.356798920361776 $316 54.56418369739729 $311 $452 forward 7 unknown #
edge $-1 $317 -151.30832850123602 $451 -132.51096703005902 $196 $453 forward 7 unknown #
coedge $-1 $197 $443 $449 $454 reversed $315 $-1 #
loop $-1 $-1 $443 $303 #
vertex $-1 $454 $455 #
vertex $-1 $198 $456 #
straight-curve $-1 75.654164250617995 -10.972607432692431 111.28120854111127 0 0 -1 I I #
coedge $-1 $319 $319 $-1 $457 reversed $201 $-1 #
edge $-1 $458 0 $458 6.2831853071796004 $202 $459 forward 7 unknown #
vertex $-1 $205 $460 #
ellipse-curve $-1 68.050471862100252 -9.109995447296825 16.739009579457093 0.5877852598018023 0 0.80901698891910034 0.20225424722977509 0 -0.14694631495045057 1 I I #
coedge $-1 $323 $323 $-1 $461 reversed $208 $-1 #
edge $-1 $462 0 $462 6.2831853071796004 $209 $463 forward 7 unknown #
vertex $-1 $212 $464 #
ellipse-curve $-1 68.050471862100252 -6.3160774692034067 16.739009579457093 0.5877852598018023 0 0.80901698891910034 0.20225424722977509 0 -0.14694631495045057 1 I I #
coedge $-1 $327 $327 $-1 $465 reversed $215 $-1 #
edge $-1 $466 0 $466 6.2831853071796004 $216 $467 forward 7 unknown #
vertex $-1 $219 $468 #
ellipse-curve $-1 68.050471862100252 -3.5221594911099885 16.739009579457093 0.5877852598018023 0 0.80901698891910034 0.20225424722977509 0 -0.14694631495045057 1 I I #
face $-1 $-1 $235 $33 $-1 $469 reversed single #
loop $-1 $-1 $347 $220 #
plane-surface $-1 0 51.203418090943792 0 0 -1 0 0 0 -1 forward_v I I I I #
coedge $-1 $470 $345 $348 $471 forward $221 $-1 #
coedge $-1 $351 $223 $224 $339 reversed $139 $-1 #
coedge $-1 $345 $470 $223 $337 reversed $221 $-1 #
edge $-1 $352 -22.263415577419185 $472 22.263415577419185 $336 $473 forward 7 unknown #
coedge $-1 $225 $224 $470 $474 forward $89 $-1 #
edge $-1 $343 -75.654164250617995 $472 75.654164250617995 $335 $475 forward 7 unknown #
coedge $-1 $348 $347 $225 $341 reversed $332 $-1 #
edge $-1 $476 -75.654164250617995 $342 75.654164250617995 $340 $477 forward 7 unknown #
vertex $-1 $227 $478 #
vertex $-1 $354 $479 #
straight-curve $-1 75.654164250617995 0 -22.263415577419185 0 -1 0 I I #
coedge $-1 $334 $336 $228 $346 reversed $221 $-1 #
edge $-1 $349 -51.203418090943792 $352 51.203418090943792 $345 $480 forward 7 unknown #
coedge $-1 $340 $229 $234 $355 forward $332 $-1 #
coedge $-1 $229 $340 $334 $471 reversed $332 $-1 #
vertex $-1 $230 $481 #
straight-curve $-1 0 51.203418090943792 22.263415577419185 -1 0 0 I I #
coedge $-1 $231 $335 $233 $354 reversed $139 $-1 #
vertex $-1 $346 $482 #
straight-curve $-1 0 -51.203418090943792 22.263415577419185 1 0 0 I I #
edge $-1 $236 -22.263415577419185 $343 22.263415577419185 $233 $483 forward 7 unknown #
edge $-1 $237 -22.263415577419185 $342 22.263415577419185 $234 $484 forward 7 unknown #
point $-1 75.654164250617995 -51.203418090943792 22.263415577419185 #
point $-1 75.654164250617995 51.203418090943792 22.263415577419185 #
face $-1 $-1 $254 $34 $-1 $485 reversed single #
loop $-1 $-1 $250 $239 #
plane-surface $-1 0 -51.203418090943792 0 0 1 0 0 0 1 forward_v I I I I #
coedge $-1 $486 $487 $247 $371 forward $240 $-1 #
coedge $-1 $372 $242 $244 $367 reversed $147 $-1 #
edge $-1 $369 0.33849784025757934 $255 6.7526064169949276 $253 $488 forward 7 unknown #
coedge $-1 $244 $243 $489 $490 reversed $93 $-1 #
coedge $-1 $376 $375 $243 $366 forward $359 $-1 #
edge $-1 $491 -75.654164250617995 $368 75.654164250617995 $365 $492 forward 7 unknown #
edge $-1 $493 -75.654164250617995 $369 75.654164250617995 $362 $494 forward 7 unknown #
vertex $-1 $366 $495 #
vertex $-1 $246 $496 #
straight-curve $-1 75.654164250617995 -20.131368309013631 3.8840499688838328 0 1 0 I I #
edge $-1 $377 -31.072049781930154 $373 -9.1906868360971039 $361 $497 forward 7 unknown #
coedge $-1 $248 $362 $486 $498 reversed $147 $-1 #
vertex $-1 $371 $499 #
straight-curve $-1 0 -29.322055145110735 10.298158545621181 -1 0 0 I I #
coedge $-1 $365 $250 $487 $500 forward $359 $-1 #
coedge $-1 $250 $365 $252 $379 reversed $359 $-1 #
vertex $-1 $500 $501 #
straight-curve $-1 0 -51.203418090943792 10.298158545621181 -1 0 0 I I #
edge $-1 $256 -10.298158545621181 $368 -3.8840499688838328 $252 $502 forward 7 unknown #
point $-1 75.654164250617995 -29.322055145110735 10.298158545621181 #
point $-1 75.654164250617995 -51.203418090943785 10.298158545621181 #
face $-1 $-1 $399 $35 $-1 $503 reversed single #
loop $-1 $-1 $395 $258 #
plane-surface $-1 -75.654164250617995 0 0 1 0 0 0 0 -1 forward_v I I I I #
coedge $-1 $402 $261 $262 $389 reversed $155 $-1 #
coedge $-1 $395 $504 $261 $387 forward $383 $-1 #
edge $-1 $505 0.33849784025757934 $403 6.7526064169949276 $386 $506 forward 7 unknown #
coedge $-1 $263 $262 $504 $507 reversed $97 $-1 #
edge $-1 $392 -75.654164250617995 $505 75.654164250617995 $385 $508 forward 7 unknown #
coedge $-1 $398 $397 $263 $391 forward $399 $-1 #
edge $-1 $393 -75.654164250617995 $509 75.654164250617995 $390 $510 forward 7 unknown #
vertex $-1 $265 $511 #
vertex $-1 $391 $512 #
straight-curve $-1 75.654164250617995 20.131368309013634 3.8840499688838328 0 1 0 I I #
coedge $-1 $513 $386 $266 $396 forward $383 $-1 #
edge $-1 $403 9.1906868360971039 $400 31.072049781930165 $395 $514 forward 7 unknown #
coedge $-1 $390 $267 $272 $406 forward $399 $-1 #
coedge $-1 $267 $390 $513 $515 reversed $399 $-1 #
loop $-1 $-1 $267 $382 #
vertex $-1 $515 $516 #
straight-curve $-1 0 51.203418090943792 10.298158545621181 1 0 0 I I #
coedge $-1 $269 $385 $271 $405 reversed $155 $-1 #
vertex $-1 $396 $517 #
straight-curve $-1 0 29.322055145110738 10.298158545621181 1 0 0 I I #
edge $-1 $274 -6.7526064169949276 $392 -0.33849784025757934 $271 $518 forward 7 unknown #
edge $-1 $273 -10.298158545621181 $393 -3.8840499688838328 $272 $519 forward 7 unknown #
point $-1 75.654164250617995 51.203418090943799 10.298158545621181 #
point $-1 75.654164250617995 29.322055145110738 10.298158545621181 #
loop $-1 $-1 $284 $276 #
plane-surface $-1 0 0 22.263415577419185 0 0 1 1 0 0 forward_v I I I I #
coedge $-1 $412 $279 $281 $416 reversed $163 $-1 #
coedge $-1 $279 $411 $520 $521 reversed $163 $-1 #
coedge $-1 $287 $282 $279 $414 forward $277 $-1 #
edge $-1 $417 -46.349972343673087 $522 -34.57864263954724 $413 $523 forward 7 unknown #
coedge $-1 $281 $280 $420 $524 reversed $101 $-1 #
edge $-1 $525 -16.095262176213662 $417 -6.2853112733615348e-014 $411 $526 forward 7 unknown #
vertex $-1 $283 $527 #
straight-curve $-1 -75.654164250617995 1.2769036432944283 10.492085873293334 0 -1 0 I I #
coedge $-1 $520 $284 $287 $424 forward $409 $-1 #
coedge $-1 $284 $520 $415 $524 forward $409 $-1 #
vertex $-1 $285 $528 #
straight-curve $-1 -93.157035818155094 6.9559491587176545 22.263415577419181 -1 0 0 I I #
straight-curve $-1 -75.654164250618038 6.9559491587176545 10.492085873293291 0.68199835119979291 0 0.73135370988377701 I I #
edge $-1 $288 -6.9559491587176545 $522 1.8483345855399413 $287 $529 forward 7 unknown #
point $-1 -75.654164250617995 6.9559491587176545 22.263415577419185 #
point $-1 -75.654164250617995 6.9559491587176545 10.492085873293338 #
edge $-1 $530 1 $530 0 $291 $-1 forward 7 unknown #
vertex $-1 $292 $531 #
ellipse-curve $-1 -69.119406675061839 -0.087477836688428567 15.402072857098752 -0.73135370988377701 0 0.68199835119979291 0.34099917559989645 0 0.36567685494188851 1 I I #
point $-1 -69.824693941865021 -0.087477836688428567 16.743427580298114 #
edge $-1 $532 1 $532 0 $295 $-1 forward 7 unknown #
vertex $-1 $296 $533 #
ellipse-curve $-1 -69.119406675061839 2.5538072865888495 15.402072857098752 -0.73135370988377701 0 0.68199835119979291 0.34099917559989645 0 0.36567685494188851 1 I I #
point $-1 -69.824693941865021 2.5538072865888495 16.743427580298114 #
edge $-1 $534 1 $534 0 $299 $-1 forward 7 unknown #
vertex $-1 $300 $535 #
ellipse-curve $-1 -69.119406675061839 5.1950924098661275 15.402072857098752 -0.73135370988377701 0 0.68199835119979291 0.34099917559989645 0 0.36567685494188851 1 I I #
point $-1 -69.824693941865021 5.1950924098661275 16.743427580298114 #
plane-surface $-1 75.654164250617995 0 0 -1 0 0 0 0 1 forward_v I I I I #
coedge $-1 $450 $449 $442 $536 forward $304 $-1 #
coedge $-1 $442 $306 $308 $446 reversed $192 $-1 #
coedge $-1 $306 $441 $440 $536 reversed $192 $-1 #
coedge $-1 $314 $309 $306 $444 forward $315 $-1 #
edge $-1 $447 -100.06660495961626 $537 -89.017792963692088 $443 $538 forward 7 unknown #
coedge $-1 $308 $307 $450 $539 reversed $120 $-1 #
edge $-1 $540 132.51096703005902 $447 151.30832850123602 $441 $541 forward 7 unknown #
vertex $-1 $310 $542 #
straight-curve $-1 75.654164250617995 -3.1580387346016998 11.21460358149502 0 1 0 I I #
coedge $-1 $440 $311 $314 $454 forward $304 $-1 #
coedge $-1 $311 $440 $445 $539 forward $304 $-1 #
vertex $-1 $312 $543 #
straight-curve $-1 21.089980553220705 -10.972607432692431 22.263415577419181 1 0 0 I I #
straight-curve $-1 -46.756844071834053 -10.972607432692431 100.15140875977048 -0.80901698891910034 0 0.5877852598018023 I I #
edge $-1 $316 -10.972607432692431 $537 -1.659547505714368 $314 $544 forward 7 unknown #
point $-1 75.654164250617995 -10.972607432692431 22.263415577419185 #
point $-1 75.65416425061801 -10.972607432692431 11.214603581495012 #
edge $-1 $545 1 $545 0 $319 $-1 forward 7 unknown #
vertex $-1 $320 $546 #
ellipse-curve $-1 67.462686602298447 -9.109995447296825 15.929992590538003 0.5877852598018023 0 0.80901698891910034 0.20225424722977509 0 -0.14694631495045057 1 I I #
point $-1 68.252726109330027 -9.109995447296825 16.592063264506653 #
edge $-1 $547 1 $547 0 $323 $-1 forward 7 unknown #
vertex $-1 $324 $548 #
ellipse-curve $-1 67.462686602298447 -6.3160774692034067 15.929992590538003 0.5877852598018023 0 0.80901698891910034 0.20225424722977509 0 -0.14694631495045057 1 I I #
point $-1 68.252726109330027 -6.3160774692034067 16.592063264506653 #
edge $-1 $549 1 $549 0 $327 $-1 forward 7 unknown #
vertex $-1 $328 $550 #
ellipse-curve $-1 67.462686602298447 -3.5221594911099885 15.929992590538003 0.5877852598018023 0 0.80901698891910034 0.20225424722977509 0 -0.14694631495045057 1 I I #
point $-1 68.252726109330027 -3.5221594911099885 16.592063264506653 #
plane-surface $-1 75.654164250617995 0 0 -1 0 0 0 0 1 forward_v I I I I #
coedge $-1 $336 $334 $338 $474 reversed $221 $-1 #
edge $-1 $349 -22.263415577419185 $476 22.263415577419185 $348 $551 forward 7 unknown #
vertex $-1 $474 $552 #
straight-curve $-1 -75.654164250617995 -51.203418090943792 0 0 0 -1 I I #
edge $-1 $472 -51.203418090943792 $476 51.203418090943792 $470 $553 forward 7 unknown #
straight-curve $-1 0 -51.203418090943792 -22.263415577419185 -1 0 0 I I #
vertex $-1 $341 $554 #
straight-curve $-1 0 51.203418090943792 -22.263415577419185 1 0 0 I I #
point $-1 75.654164250617995 51.203418090943792 -22.263415577419185 #
point $-1 75.654164250617995 -51.203418090943792 -22.263415577419185 #
straight-curve $-1 -75.654164250617995 0 22.263415577419185 0 -1 0 I I #
point $-1 -75.654164250617995 51.203418090943792 22.263415577419185 #
point $-1 -75.654164250617995 -51.203418090943792 22.263415577419185 #
straight-curve $-1 75.654164250617995 -51.203418090943792 0 0 0 -1 I I #
straight-curve $-1 75.654164250617995 51.203418090943792 0 0 0 -1 I I #
plane-surface $-1 75.654164250617995 0 0 -1 0 0 0 0 1 forward_v I I I I #
coedge $-1 $489 $361 $372 $498 forward $240 $-1 #
coedge $-1 $361 $489 $375 $500 reversed $240 $-1 #
straight-curve $-1 75.654164250617995 -29.322055145110735 3.5455521286262535 0 0 1 I I #
coedge $-1 $487 $486 $364 $490 forward $240 $-1 #
edge $-1 $493 9.1906868360971039 $491 31.072049781930154 $489 $555 forward 7 unknown #
vertex $-1 $366 $556 #
straight-curve $-1 0 -51.203418090943792 3.8840499688838328 1 0 0 I I #
vertex $-1 $490 $557 #
straight-curve $-1 0 -29.322055145110735 3.8840499688838328 1 0 0 I I #
point $-1 75.654164250617995 -51.203418090943785 3.8840499688838328 #
point $-1 75.654164250617995 -29.322055145110735 3.8840499688838328 #
straight-curve $-1 -75.654164250617995 -20.131368309013631 10.298158545621181 0 1 0 I I #
edge $-1 $373 -6.7526064169949276 $493 -0.33849784025757934 $486 $558 forward 7 unknown #
point $-1 -75.654164250617995 -29.322055145110735 10.298158545621181 #
edge $-1 $377 -10.298158545621181 $491 -3.8840499688838328 $487 $559 forward 7 unknown #
point $-1 -75.654164250617995 -51.203418090943785 10.298158545621181 #
straight-curve $-1 75.654164250617995 -51.203418090943792 0 0 0 -1 I I #
plane-surface $-1 0 51.203418090943792 0 0 -1 0 0 0 -1 forward_v I I I I #
coedge $-1 $386 $513 $388 $507 forward $383 $-1 #
vertex $-1 $507 $560 #
straight-curve $-1 -75.654164250617995 29.322055145110738 3.5455521286262535 0 0 1 I I #
edge $-1 $509 -31.072049781930165 $505 -9.1906868360971039 $504 $561 forward 7 unknown #
straight-curve $-1 0 29.322055145110738 3.8840499688838328 -1 0 0 I I #
vertex $-1 $391 $562 #
straight-curve $-1 0 51.203418090943792 3.8840499688838328 -1 0 0 I I #
point $-1 75.654164250617995 29.322055145110738 3.8840499688838328 #
point $-1 75.654164250617995 51.203418090943799 3.8840499688838328 #
coedge $-1 $504 $395 $398 $515 forward $383 $-1 #
straight-curve $-1 -75.654164250617995 20.131368309013634 10.298158545621181 0 1 0 I I #
edge $-1 $400 -10.298158545621181 $509 -3.8840499688838328 $398 $563 forward 7 unknown #
point $-1 -75.654164250617995 51.203418090943799 10.298158545621181 #
point $-1 -75.654164250617995 29.322055145110738 10.298158545621181 #
straight-curve $-1 75.654164250617995 29.322055145110738 3.5455521286262535 0 0 -1 I I #
straight-curve $-1 75.654164250617995 51.203418090943792 0 0 0 -1 I I #
coedge $-1 $420 $419 $412 $521 forward $409 $-1 #
edge $-1 $522 17.502871567537099 $525 28.479813833843167 $520 $564 forward 7 unknown #
vertex $-1 $521 $565 #
straight-curve $-1 -75.654164250617995 -1.8483345855399413 56.842058216966421 0 0 1 I I #
edge $-1 $525 -3.1252382288343696 $421 5.6790455154232262 $420 $566 forward 7 unknown #
vertex $-1 $524 $567 #
straight-curve $-1 -75.654164250618038 -1.8483345855399413 10.492085873293291 -0.68199835119979291 0 -0.73135370988377701 I I #
point $-1 -75.654164250617995 -1.8483345855399413 10.492085873293338 #
point $-1 -64.677221984311927 6.9559491587176545 22.263415577419185 #
straight-curve $-1 -75.654164250617995 0 22.263415577419185 0 -1 0 I I #
vertex $-1 $427 $568 #
point $-1 -68.778407499461949 -0.087477836688428567 15.76774971204064 #
vertex $-1 $431 $569 #
point $-1 -68.778407499461949 2.5538072865888495 15.76774971204064 #
vertex $-1 $435 $570 #
point $-1 -68.778407499461949 5.1950924098661275 15.76774971204064 #
edge $-1 $537 -54.56418369739729 $540 -39.356798920361776 $440 $571 forward 7 unknown #
vertex $-1 $444 $572 #
straight-curve $-1 75.654164250617995 -1.659547505714368 111.28120854111127 0 0 1 I I #
edge $-1 $540 -1.4984912288873318 $451 7.8145686980907314 $450 $573 forward 7 unknown #
vertex $-1 $539 $574 #
straight-curve $-1 -46.756844071834053 -1.659547505714368 100.15140875977048 0.80901698891910034 0 -0.5877852598018023 I I #
point $-1 75.65416425061801 -1.659547505714368 11.214603581495012 #
point $-1 60.446779473582481 -10.972607432692431 22.263415577419181 #
straight-curve $-1 75.654164250617995 0 22.263415577419185 0 1 0 I I #
vertex $-1 $457 $575 #
point $-1 67.664940849528222 -9.109995447296825 15.783046275587553 #
vertex $-1 $461 $576 #
point $-1 67.664940849528222 -6.3160774692034067 15.783046275587553 #
vertex $-1 $465 $577 #
point $-1 67.664940849528222 -3.5221594911099885 15.783046275587553 #
straight-curve $-1 -75.654164250617995 51.203418090943792 0 0 0 -1 I I #
point $-1 -75.654164250617995 -51.203418090943792 -22.263415577419185 #
straight-curve $-1 -75.654164250617995 0 -22.263415577419185 0 1 0 I I #
point $-1 -75.654164250617995 51.203418090943792 -22.263415577419185 #
straight-curve $-1 -75.654164250617995 -20.131368309013631 3.8840499688838328 0 -1 0 I I #
point $-1 -75.654164250617995 -51.203418090943785 3.8840499688838328 #
point $-1 -75.654164250617995 -29.322055145110735 3.8840499688838328 #
straight-curve $-1 -75.654164250617995 -29.322055145110735 3.5455521286262535 0 0 -1 I I #
straight-curve $-1 -75.654164250617995 -51.203418090943792 0 0 0 -1 I I #
point $-1 -75.654164250617995 29.322055145110738 3.8840499688838328 #
straight-curve $-1 -75.654164250617995 20.131368309013634 3.8840499688838328 0 -1 0 I I #
point $-1 -75.654164250617995 51.203418090943799 3.8840499688838328 #
straight-curve $-1 -75.654164250617995 51.203418090943792 0 0 0 -1 I I #
straight-curve $-1 -93.157035818155094 -1.8483345855399413 22.263415577419181 1 0 0 I I #
point $-1 -75.654164250617995 -1.8483345855399413 22.263415577419185 #
straight-curve $-1 -64.677221984311927 1.2769036432944283 22.263415577419185 0 1 0 I I #
point $-1 -64.677221984311927 -1.8483345855399413 22.263415577419185 #
point $-1 -68.753729820119958 -0.087477836688428567 15.061073681498854 #
point $-1 -68.753729820119958 2.5538072865888495 15.061073681498854 #
point $-1 -68.753729820119958 5.1950924098661275 15.061073681498854 #
straight-curve $-1 21.089980553220705 -1.659547505714368 22.263415577419181 -1 0 0 I I #
point $-1 75.654164250617995 -1.659547505714368 22.263415577419185 #
straight-curve $-1 60.446779473582467 -3.1580387346016998 22.263415577419181 0 -1 0 I I #
point $-1 60.446779473582481 -1.659547505714368 22.263415577419181 #
point $-1 67.315740287348007 -9.109995447296825 15.727738343308229 #
point $-1 67.315740287348007 -6.3160774692034067 15.727738343308229 #
point $-1 67.315740287348007 -3.5221594911099885 15.727738343308229 #
End-of-ACIS-data 