500 0 13 0           
7 Unknown 11 ACIS 5.0 NT 24 Thu Mar 25 20:03:51 1999 
-1 9.9999999999999995e-007 1e-010 
body $-1 $13 $-1 $14 #
body $-1 $15 $-1 $16 #
body $-1 $17 $-1 $18 #
body $-1 $19 $-1 $20 #
body $-1 $21 $-1 $22 #
body $-1 $23 $-1 $24 #
body $-1 $25 $-1 $26 #
body $-1 $27 $-1 $28 #
body $-1 $29 $-1 $30 #
body $-1 $31 $-1 $32 #
body $-1 $33 $-1 $34 #
body $-1 $35 $-1 $36 #
body $-1 $37 $-1 $38 #
lump $-1 $-1 $39 $0 #
transform $-1 1 0 0 0 1 0 0 0 1 64.83474227118748 36.393685661433096 13.463342371355129 1 rotate no_reflect no_shear #
lump $-1 $-1 $40 $1 #
transform $-1 1 0 0 0 1 0 0 0 1 64.83474227118748 36.393685661433096 13.463342371355129 1 rotate no_reflect no_shear #
lump $-1 $-1 $41 $2 #
transform $-1 1 0 0 0 1 0 0 0 1 64.83474227118748 36.393685661433096 13.463342371355129 1 rotate no_reflect no_shear #
lump $-1 $-1 $42 $3 #
transform $-1 1 0 0 0 1 0 0 0 1 64.83474227118748 36.393685661433096 13.463342371355129 1 rotate no_reflect no_shear #
lump $-1 $-1 $43 $4 #
transform $-1 1 0 0 0 1 0 0 0 1 64.83474227118748 36.393685661433096 13.463342371355129 1 rotate no_reflect no_shear #
lump $-1 $-1 $44 $5 #
transform $-1 1 0 0 0 1 0 0 0 1 64.83474227118748 36.393685661433096 13.463342371355129 1 rotate no_reflect no_shear #
lump $-1 $-1 $45 $6 #
transform $-1 1 0 0 0 1 0 0 0 1 64.83474227118748 36.393685661433096 13.463342371355129 1 rotate no_reflect no_shear #
lump $-1 $-1 $46 $7 #
transform $-1 1 0 0 0 1 0 0 0 1 64.83474227118748 36.393685661433096 13.463342371355129 1 rotate no_reflect no_shear #
lump $-1 $-1 $47 $8 #
transform $-1 1 0 0 0 1 0 0 0 1 64.83474227118748 36.393685661433096 13.463342371355129 1 rotate no_reflect no_shear #
lump $-1 $-1 $48 $9 #
transform $-1 1 0 0 0 1 0 0 0 1 64.83474227118748 36.393685661433096 13.463342371355129 1 rotate no_reflect no_shear #
lump $-1 $-1 $49 $10 #
transform $-1 1 0 0 0 1 0 0 0 1 64.83474227118748 36.393685661433096 13.463342371355129 1 rotate no_reflect no_shear #
lump $-1 $-1 $50 $11 #
transform $-1 1 0 0 0 1 0 0 0 1 64.83474227118748 36.393685661433096 13.463342371355129 1 rotate no_reflect no_shear #
lump $-1 $-1 $51 $12 #
transform $-1 1 0 0 0 1 0 0 0 1 64.83474227118748 36.393685661433096 13.463342371355129 1 rotate no_reflect no_shear #
shell $-1 $-1 $-1 $52 $-1 $13 #
shell $-1 $-1 $-1 $53 $-1 $15 #
shell $-1 $-1 $-1 $54 $-1 $17 #
shell $-1 $-1 $-1 $55 $-1 $19 #
shell $-1 $-1 $-1 $56 $-1 $21 #
shell $-1 $-1 $-1 $57 $-1 $23 #
shell $-1 $-1 $-1 $58 $-1 $25 #
shell $-1 $-1 $-1 $59 $-1 $27 #
shell $-1 $-1 $-1 $60 $-1 $29 #
shell $-1 $-1 $-1 $61 $-1 $31 #
shell $-1 $-1 $-1 $62 $-1 $33 #
shell $-1 $-1 $-1 $63 $-1 $35 #
shell $-1 $-1 $-1 $64 $-1 $37 #
face $-1 $65 $66 $39 $-1 $67 forward single #
face $-1 $68 $69 $40 $-1 $70 reversed single #
face $-1 $71 $72 $41 $-1 $73 forward single #
face $-1 $74 $75 $42 $-1 $76 forward single #
face $-1 $77 $78 $43 $-1 $79 reversed single #
face $-1 $80 $81 $44 $-1 $82 forward single #
face $-1 $83 $84 $45 $-1 $85 forward single #
face $-1 $86 $87 $46 $-1 $88 reversed single #
face $-1 $89 $90 $47 $-1 $91 forward single #
face $-1 $92 $93 $48 $-1 $94 forward single #
face $-1 $95 $96 $49 $-1 $97 reversed single #
face $-1 $98 $99 $50 $-1 $100 forward single #
face $-1 $101 $102 $51 $-1 $103 forward single #
face $-1 $104 $105 $39 $-1 $106 reversed single #
loop $-1 $-1 $107 $52 #
plane-surface $-1 0 0 13.463342371355129 0 0 1 1 0 0 forward_v I I I I #
face $-1 $108 $109 $40 $-1 $110 reversed single #
loop $-1 $-1 $111 $53 #
plane-surface $-1 106.08634659679629 -18.196842830716548 188.79623282512048 0 -1 0 -0.84804810408105047 0 -0.52991925155115449 forward_v I I I I #
face $-1 $112 $113 $41 $-1 $114 forward single #
loop $-1 $115 $116 $54 #
cone-surface $-1 63.364866212848902 -24.224429504370576 11.524669611938471 -0.84804810408105047 0 -0.52991925155115449 0.26495962577557725 0 -0.42402405204052523 1 I I 0 1 0.5 forward I I I I #
face $-1 $117 $118 $42 $-1 $119 forward single #
loop $-1 $120 $121 $55 #
cone-surface $-1 63.364866212848902 -20.607877500178162 11.524669611938471 -0.84804810408105047 0 -0.52991925155115449 0.26495962577557725 0 -0.42402405204052523 1 I I 0 1 0.5 forward I I I I #
face $-1 $122 $123 $43 $-1 $124 reversed single #
loop $-1 $-1 $125 $56 #
plane-surface $-1 106.08634659679629 0 188.79623282512048 0 -1 0 -0.84804810408105047 0 -0.52991925155115449 forward_v I I I I #
face $-1 $126 $127 $44 $-1 $128 forward single #
loop $-1 $129 $130 $57 #
cone-surface $-1 63.364866212848902 -6.027586673654028 11.524669611938471 -0.84804810408105047 0 -0.52991925155115449 0.26495962577557725 0 -0.42402405204052523 1 I I 0 1 0.5 forward I I I I #
face $-1 $131 $132 $45 $-1 $133 forward single #
loop $-1 $134 $135 $58 #
cone-surface $-1 63.364866212848902 -2.411034669461614 11.524669611938471 -0.84804810408105047 0 -0.52991925155115449 0.26495962577557725 0 -0.42402405204052523 1 I I 0 1 0.5 forward I I I I #
face $-1 $136 $137 $46 $-1 $138 reversed single #
loop $-1 $-1 $139 $59 #
plane-surface $-1 106.08634659679629 18.196842830716548 188.79623282512048 0 -1 0 -0.84804810408105047 0 -0.52991925155115449 forward_v I I I I #
face $-1 $140 $141 $47 $-1 $142 forward single #
loop $-1 $143 $144 $60 #
cone-surface $-1 63.364866212848902 12.16925615706252 11.524669611938471 -0.84804810408105047 0 -0.52991925155115449 0.26495962577557725 0 -0.42402405204052523 1 I I 0 1 0.5 forward I I I I #
face $-1 $145 $146 $48 $-1 $147 forward single #
loop $-1 $148 $149 $61 #
cone-surface $-1 63.364866212848902 15.785808161254934 11.524669611938471 -0.84804810408105047 0 -0.52991925155115449 0.26495962577557725 0 -0.42402405204052523 1 I I 0 1 0.5 forward I I I I #
face $-1 $150 $151 $49 $-1 $152 reversed single #
loop $-1 $-1 $153 $62 #
plane-surface $-1 106.08634659679629 27.955064318317454 188.79623282512048 0 1 0 0.84804810408105047 0 0.52991925155115449 forward_v I I I I #
face $-1 $154 $155 $50 $-1 $156 forward single #
loop $-1 $157 $158 $63 #
cone-surface $-1 63.364866212848902 30.366098987779068 11.524669611938471 -0.84804810408105047 0 -0.52991925155115449 0.26495962577557725 0 -0.42402405204052523 1 I I 0 1 0.5 forward I I I I #
face $-1 $159 $160 $51 $-1 $161 forward single #
loop $-1 $162 $163 $64 #
cone-surface $-1 63.364866212848902 33.982650991971482 11.524669611938471 -0.84804810408105047 0 -0.52991925155115449 0.26495962577557725 0 -0.42402405204052523 1 I I 0 1 0.5 forward I I I I #
face $-1 $164 $165 $39 $-1 $166 reversed single #
loop $-1 $-1 $167 $65 #
plane-surface $-1 0 0 -13.463342371355129 0 0 1 1 0 0 forward_v I I I I #
coedge $-1 $168 $169 $170 $171 forward $66 $-1 #
face $-1 $172 $173 $40 $-1 $174 reversed single #
loop $-1 $-1 $175 $68 #
plane-surface $-1 -3.8796139265318743 -22.416153502274369 120.08187662740114 0.84804810408105047 0 0.52991925155115449 0.52991925155115449 0 -0.84804810408105047 forward_v I I I I #
coedge $-1 $176 $177 $178 $179 reversed $69 $-1 #
face $-1 $-1 $180 $41 $-1 $181 forward single #
loop $-1 $182 $183 $71 #
cone-surface $-1 62.728830134788112 -24.224429504370576 11.127230173275105 -0.84804810408105047 0 -0.52991925155115449 0.13247981288778862 0 -0.21201202602026262 1 I I -0.70710678118654746 0.70710678118654746 0.25 forward I I I I #
loop $-1 $-1 $184 $54 #
coedge $-1 $116 $116 $185 $186 reversed $72 $-1 #
face $-1 $-1 $187 $42 $-1 $188 forward single #
loop $-1 $189 $190 $74 #
cone-surface $-1 62.728830134788112 -20.607877500178162 11.127230173275105 -0.84804810408105047 0 -0.52991925155115449 0.13247981288778862 0 -0.21201202602026262 1 I I -0.70710678118654746 0.70710678118654746 0.25 forward I I I I #
loop $-1 $-1 $191 $55 #
coedge $-1 $121 $121 $192 $193 reversed $75 $-1 #
face $-1 $194 $195 $43 $-1 $196 reversed single #
loop $-1 $-1 $197 $77 #
plane-surface $-1 -3.8796139265318743 -4.219310671557821 120.08187662740114 0.84804810408105047 0 0.52991925155115449 0.52991925155115449 0 -0.84804810408105047 forward_v I I I I #
coedge $-1 $198 $199 $200 $201 reversed $78 $-1 #
face $-1 $-1 $202 $44 $-1 $203 forward single #
loop $-1 $204 $205 $80 #
cone-surface $-1 62.728830134788112 -6.027586673654028 11.127230173275105 -0.84804810408105047 0 -0.52991925155115449 0.13247981288778862 0 -0.21201202602026262 1 I I -0.70710678118654746 0.70710678118654746 0.25 forward I I I I #
loop $-1 $-1 $206 $57 #
coedge $-1 $130 $130 $207 $208 reversed $81 $-1 #
face $-1 $-1 $209 $45 $-1 $210 forward single #
loop $-1 $211 $212 $83 #
cone-surface $-1 62.728830134788112 -2.411034669461614 11.127230173275105 -0.84804810408105047 0 -0.52991925155115449 0.13247981288778862 0 -0.21201202602026262 1 I I -0.70710678118654746 0.70710678118654746 0.25 forward I I I I #
loop $-1 $-1 $213 $58 #
coedge $-1 $135 $135 $214 $215 reversed $84 $-1 #
face $-1 $216 $217 $46 $-1 $218 reversed single #
loop $-1 $-1 $219 $86 #
plane-surface $-1 -3.8796139265318743 13.977532159158727 120.08187662740114 0.84804810408105047 0 0.52991925155115449 0.52991925155115449 0 -0.84804810408105047 forward_v I I I I #
coedge $-1 $220 $221 $222 $223 reversed $87 $-1 #
face $-1 $-1 $224 $47 $-1 $225 forward single #
loop $-1 $226 $227 $89 #
cone-surface $-1 62.728830134788112 12.16925615706252 11.127230173275105 -0.84804810408105047 0 -0.52991925155115449 0.13247981288778862 0 -0.21201202602026262 1 I I -0.70710678118654746 0.70710678118654746 0.25 forward I I I I #
loop $-1 $-1 $228 $60 #
coedge $-1 $144 $144 $229 $230 reversed $90 $-1 #
face $-1 $-1 $231 $48 $-1 $232 forward single #
loop $-1 $233 $234 $92 #
cone-surface $-1 62.728830134788112 15.785808161254934 11.127230173275105 -0.84804810408105047 0 -0.52991925155115449 0.13247981288778862 0 -0.21201202602026262 1 I I -0.70710678118654746 0.70710678118654746 0.25 forward I I I I #
loop $-1 $-1 $235 $61 #
coedge $-1 $149 $149 $236 $237 reversed $93 $-1 #
face $-1 $238 $239 $49 $-1 $240 reversed single #
loop $-1 $-1 $241 $95 #
plane-surface $-1 -3.8796139265318743 32.174374989875275 120.08187662740114 0.84804810408105047 0 0.52991925155115449 0.52991925155115449 0 -0.84804810408105047 forward_v I I I I #
coedge $-1 $242 $243 $244 $245 reversed $96 $-1 #
face $-1 $-1 $246 $50 $-1 $247 forward single #
loop $-1 $248 $249 $98 #
cone-surface $-1 62.728830134788112 30.366098987779068 11.127230173275105 -0.84804810408105047 0 -0.52991925155115449 0.13247981288778862 0 -0.21201202602026262 1 I I -0.70710678118654746 0.70710678118654746 0.25 forward I I I I #
loop $-1 $-1 $250 $63 #
coedge $-1 $158 $158 $251 $252 reversed $99 $-1 #
face $-1 $-1 $253 $51 $-1 $254 forward single #
loop $-1 $255 $256 $101 #
cone-surface $-1 62.728830134788112 33.982650991971482 11.127230173275105 -0.84804810408105047 0 -0.52991925155115449 0.13247981288778862 0 -0.21201202602026262 1 I I -0.70710678118654746 0.70710678118654746 0.25 forward I I I I #
loop $-1 $-1 $257 $64 #
coedge $-1 $163 $163 $258 $259 reversed $102 $-1 #
face $-1 $260 $261 $39 $-1 $262 reversed single #
loop $-1 $-1 $263 $104 #
plane-surface $-1 0 -36.393685661433096 0 0 1 0 0 0 1 forward_v I I I I #
coedge $-1 $264 $265 $266 $267 forward $105 $-1 #
coedge $-1 $268 $107 $269 $270 forward $66 $-1 #
coedge $-1 $107 $268 $271 $272 forward $66 $-1 #
coedge $-1 $273 $274 $107 $171 reversed $275 $-1 #
edge $-1 $276 -36.393685661433096 $277 36.393685661433096 $170 $278 forward 7 unknown #
face $-1 $279 $280 $40 $-1 $281 forward single #
loop $-1 $-1 $282 $108 #
plane-surface $-1 106.08634659679629 -26.63546417383219 188.79623282512048 0 1 0 0.84804810408105047 0 0.52991925155115449 forward_v I I I I #
coedge $-1 $283 $284 $285 $286 reversed $109 $-1 #
coedge $-1 $177 $111 $287 $288 reversed $69 $-1 #
coedge $-1 $111 $176 $283 $289 reversed $69 $-1 #
coedge $-1 $285 $290 $111 $179 forward $280 $-1 #
edge $-1 $291 -11.791568972789335 $292 -9.6998649601932385 $178 $293 forward 7 unknown #
loop $-1 $-1 $185 $112 #
plane-surface $-1 -3.8796139265318743 -22.416153502274369 120.08187662740114 0.84804810408105047 0 0.52991925155115449 0.52991925155115449 0 -0.84804810408105047 forward_v I I I I #
loop $-1 $-1 $294 $71 #
coedge $-1 $183 $183 $184 $295 reversed $113 $-1 #
coedge $-1 $184 $184 $183 $295 forward $115 $-1 #
coedge $-1 $185 $185 $116 $186 forward $180 $-1 #
edge $-1 $296 0 $296 6.2831853071796004 $185 $297 forward 7 unknown #
loop $-1 $-1 $192 $117 #
plane-surface $-1 -3.8796139265318743 -22.416153502274369 120.08187662740114 0.84804810408105047 0 0.52991925155115449 0.52991925155115449 0 -0.84804810408105047 forward_v I I I I #
loop $-1 $-1 $298 $74 #
coedge $-1 $190 $190 $191 $299 reversed $118 $-1 #
coedge $-1 $191 $191 $190 $299 forward $120 $-1 #
coedge $-1 $192 $192 $121 $193 forward $187 $-1 #
edge $-1 $300 0 $300 6.2831853071796004 $192 $301 forward 7 unknown #
face $-1 $302 $303 $43 $-1 $304 reversed single #
loop $-1 $-1 $305 $122 #
plane-surface $-1 106.08634659679629 -8.438621343115642 188.79623282512048 0 1 0 0.84804810408105047 0 0.52991925155115449 forward_v I I I I #
coedge $-1 $306 $307 $308 $309 reversed $123 $-1 #
coedge $-1 $199 $125 $310 $311 reversed $78 $-1 #
coedge $-1 $125 $198 $306 $312 reversed $78 $-1 #
coedge $-1 $308 $313 $125 $201 forward $314 $-1 #
edge $-1 $315 -11.791568972789335 $316 -9.6998649601932385 $200 $317 forward 7 unknown #
loop $-1 $-1 $207 $126 #
plane-surface $-1 -3.8796139265318743 -4.219310671557821 120.08187662740114 0.84804810408105047 0 0.52991925155115449 0.52991925155115449 0 -0.84804810408105047 forward_v I I I I #
loop $-1 $-1 $318 $80 #
coedge $-1 $205 $205 $206 $319 reversed $127 $-1 #
coedge $-1 $206 $206 $205 $319 forward $129 $-1 #
coedge $-1 $207 $207 $130 $208 forward $202 $-1 #
edge $-1 $320 0 $320 6.2831853071796004 $207 $321 forward 7 unknown #
loop $-1 $-1 $214 $131 #
plane-surface $-1 -3.8796139265318743 -4.219310671557821 120.08187662740114 0.84804810408105047 0 0.52991925155115449 0.52991925155115449 0 -0.84804810408105047 forward_v I I I I #
loop $-1 $-1 $322 $83 #
coedge $-1 $212 $212 $213 $323 reversed $132 $-1 #
coedge $-1 $213 $213 $212 $323 forward $134 $-1 #
coedge $-1 $214 $214 $135 $215 forward $209 $-1 #
edge $-1 $324 0 $324 6.2831853071796004 $214 $325 forward 7 unknown #
face $-1 $326 $327 $46 $-1 $328 reversed single #
loop $-1 $-1 $329 $136 #
plane-surface $-1 106.08634659679629 9.7582214876009061 188.79623282512048 0 1 0 0.84804810408105047 0 0.52991925155115449 forward_v I I I I #
coedge $-1 $330 $331 $332 $333 reversed $137 $-1 #
coedge $-1 $221 $139 $334 $335 reversed $87 $-1 #
coedge $-1 $139 $220 $330 $336 reversed $87 $-1 #
coedge $-1 $332 $337 $139 $223 forward $338 $-1 #
edge $-1 $339 -11.791568972789335 $340 -9.6998649601932385 $222 $341 forward 7 unknown #
loop $-1 $-1 $229 $140 #
plane-surface $-1 -3.8796139265318743 13.977532159158727 120.08187662740114 0.84804810408105047 0 0.52991925155115449 0.52991925155115449 0 -0.84804810408105047 forward_v I I I I #
loop $-1 $-1 $342 $89 #
coedge $-1 $227 $227 $228 $343 reversed $141 $-1 #
coedge $-1 $228 $228 $227 $343 forward $143 $-1 #
coedge $-1 $229 $229 $144 $230 forward $224 $-1 #
edge $-1 $344 0 $344 6.2831853071796004 $229 $345 forward 7 unknown #
loop $-1 $-1 $236 $145 #
plane-surface $-1 -3.8796139265318743 13.977532159158727 120.08187662740114 0.84804810408105047 0 0.52991925155115449 0.52991925155115449 0 -0.84804810408105047 forward_v I I I I #
loop $-1 $-1 $346 $92 #
coedge $-1 $234 $234 $235 $347 reversed $146 $-1 #
coedge $-1 $235 $235 $234 $347 forward $148 $-1 #
coedge $-1 $236 $236 $149 $237 forward $231 $-1 #
edge $-1 $348 0 $348 6.2831853071796004 $236 $349 forward 7 unknown #
face $-1 $350 $351 $49 $-1 $352 forward single #
loop $-1 $-1 $244 $150 #
plane-surface $-1 64.83474227118748 0 0 -1 0 0 0 0 1 forward_v I I I I #
coedge $-1 $353 $354 $355 $356 reversed $151 $-1 #
coedge $-1 $243 $153 $357 $358 reversed $96 $-1 #
coedge $-1 $153 $242 $353 $359 reversed $96 $-1 #
coedge $-1 $355 $360 $153 $245 forward $239 $-1 #
edge $-1 $361 80.934774041205117 $362 84.28220030848729 $244 $363 forward 7 unknown #
loop $-1 $-1 $251 $154 #
plane-surface $-1 -3.8796139265318743 32.174374989875275 120.08187662740114 0.84804810408105047 0 0.52991925155115449 0.52991925155115449 0 -0.84804810408105047 forward_v I I I I #
loop $-1 $-1 $364 $98 #
coedge $-1 $249 $249 $250 $365 reversed $155 $-1 #
coedge $-1 $250 $250 $249 $365 forward $157 $-1 #
coedge $-1 $251 $251 $158 $252 forward $246 $-1 #
edge $-1 $366 0 $366 6.2831853071796004 $251 $367 forward 7 unknown #
loop $-1 $-1 $258 $159 #
plane-surface $-1 -3.8796139265318743 32.174374989875275 120.08187662740114 0.84804810408105047 0 0.52991925155115449 0.52991925155115449 0 -0.84804810408105047 forward_v I I I I #
loop $-1 $-1 $368 $101 #
coedge $-1 $256 $256 $257 $369 reversed $160 $-1 #
coedge $-1 $257 $257 $256 $369 forward $162 $-1 #
coedge $-1 $258 $258 $163 $259 forward $253 $-1 #
edge $-1 $370 0 $370 6.2831853071796004 $258 $371 forward 7 unknown #
face $-1 $372 $373 $39 $-1 $374 reversed single #
loop $-1 $-1 $375 $164 #
plane-surface $-1 -64.83474227118748 0 0 1 0 0 0 0 -1 forward_v I I I I #
coedge $-1 $376 $271 $377 $378 forward $165 $-1 #
coedge $-1 $379 $167 $376 $380 forward $105 $-1 #
coedge $-1 $167 $379 $381 $382 forward $105 $-1 #
coedge $-1 $274 $273 $167 $267 reversed $275 $-1 #
edge $-1 $383 -36.393685661433096 $384 36.393685661433096 $266 $385 forward 7 unknown #
coedge $-1 $169 $168 $386 $387 forward $66 $-1 #
coedge $-1 $388 $389 $168 $270 reversed $373 $-1 #
edge $-1 $277 -64.83474227118748 $390 64.83474227118748 $269 $391 forward 7 unknown #
coedge $-1 $263 $392 $169 $272 reversed $165 $-1 #
edge $-1 $393 -64.83474227118748 $276 64.83474227118748 $271 $394 forward 7 unknown #
coedge $-1 $266 $170 $392 $395 forward $275 $-1 #
coedge $-1 $170 $266 $388 $396 reversed $275 $-1 #
loop $-1 $-1 $273 $372 #
vertex $-1 $171 $397 #
vertex $-1 $171 $398 #
straight-curve $-1 64.83474227118748 0 13.463342371355129 0 1 0 I I #
face $-1 $-1 $399 $40 $-1 $400 reversed single #
loop $-1 $-1 $178 $172 #
plane-surface $-1 0 0 13.463342371355129 0 0 1 1 0 0 forward_v I I I I #
coedge $-1 $401 $402 $403 $404 reversed $173 $-1 #
coedge $-1 $405 $175 $177 $289 forward $109 $-1 #
coedge $-1 $175 $405 $401 $406 forward $109 $-1 #
coedge $-1 $403 $178 $175 $286 forward $280 $-1 #
edge $-1 $292 6.9887660795793636 $407 15.427387422695006 $285 $408 forward 7 unknown #
coedge $-1 $409 $410 $176 $288 forward $399 $-1 #
edge $-1 $411 -84.28220030848729 $291 -80.934774041205117 $287 $412 forward 7 unknown #
edge $-1 $292 125.72227181803376 $411 129.66948454237499 $177 $413 forward 7 unknown #
coedge $-1 $178 $403 $409 $414 forward $280 $-1 #
vertex $-1 $288 $415 #
vertex $-1 $179 $416 #
straight-curve $-1 53.043173298398145 -18.196842830716548 13.463342371355125 -1 0 0 I I #
coedge $-1 $294 $294 $-1 $417 reversed $182 $-1 #
edge $-1 $418 0 $418 6.2831853071796004 $183 $419 forward 7 unknown #
vertex $-1 $186 $420 #
ellipse-curve $-1 63.788890264889417 -24.224429504370576 11.78962923771404 0.84804810408105047 0 0.52991925155115449 0.26495962577557725 0 -0.42402405204052523 1 I I #
coedge $-1 $298 $298 $-1 $421 reversed $189 $-1 #
edge $-1 $422 0 $422 6.2831853071796004 $190 $423 forward 7 unknown #
vertex $-1 $193 $424 #
ellipse-curve $-1 63.788890264889417 -20.607877500178162 11.78962923771404 0.84804810408105047 0 0.52991925155115449 0.26495962577557725 0 -0.42402405204052523 1 I I #
face $-1 $-1 $314 $43 $-1 $425 forward single #
loop $-1 $-1 $426 $194 #
plane-surface $-1 64.83474227118748 0 0 -1 0 0 0 0 1 forward_v I I I I #
coedge $-1 $427 $428 $429 $430 reversed $195 $-1 #
coedge $-1 $431 $197 $199 $312 forward $123 $-1 #
coedge $-1 $197 $431 $427 $432 forward $123 $-1 #
coedge $-1 $429 $200 $197 $309 forward $314 $-1 #
edge $-1 $316 -2.1096553357789105 $433 6.3289660073367315 $308 $434 forward 7 unknown #
coedge $-1 $435 $436 $198 $311 forward $303 $-1 #
edge $-1 $437 -84.28220030848729 $315 -80.934774041205117 $310 $438 forward 7 unknown #
edge $-1 $316 125.72227181803376 $437 129.66948454237499 $199 $439 forward 7 unknown #
coedge $-1 $200 $429 $435 $440 forward $314 $-1 #
loop $-1 $-1 $429 $302 #
vertex $-1 $311 $441 #
vertex $-1 $201 $442 #
straight-curve $-1 53.043173298398145 0 13.463342371355125 -1 0 0 I I #
coedge $-1 $318 $318 $-1 $443 reversed $204 $-1 #
edge $-1 $444 0 $444 6.2831853071796004 $205 $445 forward 7 unknown #
vertex $-1 $208 $446 #
ellipse-curve $-1 63.788890264889417 -6.027586673654028 11.78962923771404 0.84804810408105047 0 0.52991925155115449 0.26495962577557725 0 -0.42402405204052523 1 I I #
coedge $-1 $322 $322 $-1 $447 reversed $211 $-1 #
edge $-1 $448 0 $448 6.2831853071796004 $212 $449 forward 7 unknown #
vertex $-1 $215 $450 #
ellipse-curve $-1 63.788890264889417 -2.411034669461614 11.78962923771404 0.84804810408105047 0 0.52991925155115449 0.26495962577557725 0 -0.42402405204052523 1 I I #
face $-1 $-1 $338 $46 $-1 $451 forward single #
loop $-1 $-1 $452 $216 #
plane-surface $-1 64.83474227118748 0 0 -1 0 0 0 0 1 forward_v I I I I #
coedge $-1 $453 $454 $455 $456 reversed $217 $-1 #
coedge $-1 $457 $219 $221 $336 forward $137 $-1 #
coedge $-1 $219 $457 $453 $458 forward $137 $-1 #
coedge $-1 $455 $222 $219 $333 forward $338 $-1 #
edge $-1 $340 -11.208076751137185 $459 -2.7694554080215426 $332 $460 forward 7 unknown #
coedge $-1 $461 $462 $220 $335 forward $327 $-1 #
edge $-1 $463 -84.28220030848729 $339 -80.934774041205117 $334 $464 forward 7 unknown #
edge $-1 $340 125.72227181803376 $463 129.66948454237499 $221 $465 forward 7 unknown #
coedge $-1 $222 $455 $461 $466 forward $338 $-1 #
loop $-1 $-1 $455 $326 #
vertex $-1 $335 $467 #
vertex $-1 $223 $468 #
straight-curve $-1 53.043173298398145 18.196842830716548 13.463342371355125 -1 0 0 I I #
coedge $-1 $342 $342 $-1 $469 reversed $226 $-1 #
edge $-1 $470 0 $470 6.2831853071796004 $227 $471 forward 7 unknown #
vertex $-1 $230 $472 #
ellipse-curve $-1 63.788890264889417 12.16925615706252 11.78962923771404 0.84804810408105047 0 0.52991925155115449 0.26495962577557725 0 -0.42402405204052523 1 I I #
coedge $-1 $346 $346 $-1 $473 reversed $233 $-1 #
edge $-1 $474 0 $474 6.2831853071796004 $234 $475 forward 7 unknown #
vertex $-1 $237 $476 #
ellipse-curve $-1 63.788890264889417 15.785808161254934 11.78962923771404 0.84804810408105047 0 0.52991925155115449 0.26495962577557725 0 -0.42402405204052523 1 I I #
face $-1 $-1 $477 $49 $-1 $478 reversed single #
loop $-1 $-1 $357 $238 #
plane-surface $-1 0 0 13.463342371355129 0 0 1 1 0 0 forward_v I I I I #
coedge $-1 $479 $241 $243 $359 forward $151 $-1 #
coedge $-1 $241 $479 $480 $481 reversed $151 $-1 #
coedge $-1 $482 $244 $241 $356 forward $239 $-1 #
edge $-1 $362 11.867876823379817 $483 20.306498166495459 $355 $484 forward 7 unknown #
coedge $-1 $485 $486 $242 $358 forward $351 $-1 #
edge $-1 $487 9.6998649601932385 $361 11.791568972789335 $357 $488 forward 7 unknown #
edge $-1 $362 -129.66948454237499 $487 -125.72227181803376 $243 $489 forward 7 unknown #
coedge $-1 $244 $482 $485 $490 reversed $239 $-1 #
vertex $-1 $490 $491 #
vertex $-1 $245 $492 #
straight-curve $-1 64.83474227118748 27.955064318317454 94.398116412560242 0 0 -1 I I #
coedge $-1 $364 $364 $-1 $493 reversed $248 $-1 #
edge $-1 $494 0 $494 6.2831853071796004 $249 $495 forward 7 unknown #
vertex $-1 $252 $496 #
ellipse-curve $-1 63.788890264889417 30.366098987779068 11.78962923771404 0.84804810408105047 0 0.52991925155115449 0.26495962577557725 0 -0.42402405204052523 1 I I #
coedge $-1 $368 $368 $-1 $497 reversed $255 $-1 #
edge $-1 $498 0 $498 6.2831853071796004 $256 $499 forward 7 unknown #
vertex $-1 $259 $500 #
ellipse-curve $-1 63.788890264889417 33.982650991971482 11.78962923771404 0.84804810408105047 0 0.52991925155115449 0.26495962577557725 0 -0.42402405204052523 1 I I #
face $-1 $-1 $275 $39 $-1 $501 reversed single #
loop $-1 $-1 $388 $260 #
plane-surface $-1 0 36.393685661433096 0 0 -1 0 0 0 -1 forward_v I I I I #
coedge $-1 $502 $386 $389 $503 forward $261 $-1 #
coedge $-1 $392 $263 $264 $380 reversed $165 $-1 #
coedge $-1 $386 $502 $263 $378 reversed $261 $-1 #
edge $-1 $393 -13.463342371355129 $504 13.463342371355129 $377 $505 forward 7 unknown #
coedge $-1 $265 $264 $502 $506 forward $105 $-1 #
edge $-1 $384 -64.83474227118748 $504 64.83474227118748 $376 $507 forward 7 unknown #
coedge $-1 $389 $388 $265 $382 reversed $373 $-1 #
edge $-1 $508 -64.83474227118748 $383 64.83474227118748 $381 $509 forward 7 unknown #
vertex $-1 $267 $510 #
vertex $-1 $395 $511 #
straight-curve $-1 64.83474227118748 0 -13.463342371355129 0 -1 0 I I #
coedge $-1 $375 $377 $268 $387 reversed $261 $-1 #
edge $-1 $390 -36.393685661433096 $393 36.393685661433096 $386 $512 forward 7 unknown #
coedge $-1 $381 $269 $274 $396 forward $373 $-1 #
coedge $-1 $269 $381 $375 $503 reversed $373 $-1 #
vertex $-1 $270 $513 #
straight-curve $-1 0 36.393685661433096 13.463342371355129 -1 0 0 I I #
coedge $-1 $271 $376 $273 $395 reversed $165 $-1 #
vertex $-1 $387 $514 #
straight-curve $-1 0 -36.393685661433096 13.463342371355129 1 0 0 I I #
edge $-1 $276 -13.463342371355129 $384 13.463342371355129 $273 $515 forward 7 unknown #
edge $-1 $277 -13.463342371355129 $383 13.463342371355129 $274 $516 forward 7 unknown #
point $-1 64.83474227118748 -36.393685661433096 13.463342371355129 #
point $-1 64.83474227118748 36.393685661433096 13.463342371355129 #
loop $-1 $-1 $287 $279 #
plane-surface $-1 64.83474227118748 0 0 -1 0 0 0 0 1 forward_v I I I I #
coedge $-1 $402 $282 $284 $406 reversed $173 $-1 #
coedge $-1 $282 $401 $517 $518 reversed $173 $-1 #
coedge $-1 $290 $285 $282 $404 forward $280 $-1 #
edge $-1 $407 9.6998649601932385 $519 11.791568972789335 $403 $520 forward 7 unknown #
coedge $-1 $284 $283 $410 $521 reversed $109 $-1 #
edge $-1 $522 -129.66948454237499 $407 -125.72227181803376 $401 $523 forward 7 unknown #
vertex $-1 $286 $524 #
straight-curve $-1 62.743038258591376 -11.208076751137185 13.463342371355125 0 -1 0 I I #
coedge $-1 $517 $287 $290 $414 reversed $399 $-1 #
coedge $-1 $287 $517 $405 $521 forward $399 $-1 #
vertex $-1 $288 $525 #
straight-curve $-1 64.83474227118748 -18.196842830716548 94.398116412560242 0 0 1 I I #
straight-curve $-1 -3.8796139265318743 -18.196842830716548 120.08187662740114 0.52991925155115449 0 -0.84804810408105047 I I #
edge $-1 $519 -26.63546417383219 $291 -18.196842830716548 $409 $526 forward 7 unknown #
point $-1 64.83474227118748 -18.196842830716548 13.463342371355129 #
point $-1 62.743038258591383 -18.196842830716548 13.463342371355125 #
edge $-1 $527 1 $527 0 $294 $-1 forward 7 unknown #
vertex $-1 $295 $528 #
ellipse-curve $-1 62.940842160808373 -24.224429504370576 11.259709986162894 0.84804810408105047 0 0.52991925155115449 0.26495962577557725 0 -0.42402405204052523 1 I I #
point $-1 64.053849890665006 -24.224429504370576 11.365605185673523 #
edge $-1 $529 1 $529 0 $298 $-1 forward 7 unknown #
vertex $-1 $299 $530 #
ellipse-curve $-1 62.940842160808373 -20.607877500178162 11.259709986162894 0.84804810408105047 0 0.52991925155115449 0.26495962577557725 0 -0.42402405204052523 1 I I #
point $-1 64.053849890665006 -20.607877500178162 11.365605185673523 #
plane-surface $-1 0 0 13.463342371355129 0 0 1 1 0 0 forward_v I I I I #
coedge $-1 $436 $435 $428 $531 forward $303 $-1 #
coedge $-1 $428 $305 $307 $432 reversed $195 $-1 #
coedge $-1 $305 $427 $426 $531 reversed $195 $-1 #
coedge $-1 $313 $308 $305 $430 forward $314 $-1 #
edge $-1 $433 9.6998649601932385 $532 11.791568972789335 $429 $533 forward 7 unknown #
coedge $-1 $307 $306 $436 $534 reversed $123 $-1 #
edge $-1 $535 -129.66948454237499 $433 -125.72227181803376 $427 $536 forward 7 unknown #
vertex $-1 $309 $537 #
straight-curve $-1 62.743038258591376 -2.1096553357789105 13.463342371355125 0 -1 0 I I #
coedge $-1 $426 $310 $313 $440 reversed $303 $-1 #
coedge $-1 $310 $426 $431 $534 forward $303 $-1 #
vertex $-1 $311 $538 #
straight-curve $-1 64.83474227118748 0 94.398116412560242 0 0 1 I I #
straight-curve $-1 -3.8796139265318743 0 120.08187662740114 0.52991925155115449 0 -0.84804810408105047 I I #
edge $-1 $532 -8.438621343115642 $315 0 $435 $539 forward 7 unknown #
point $-1 64.83474227118748 0 13.463342371355129 #
point $-1 62.743038258591383 0 13.463342371355125 #
edge $-1 $540 1 $540 0 $318 $-1 forward 7 unknown #
vertex $-1 $319 $541 #
ellipse-curve $-1 62.940842160808373 -6.027586673654028 11.259709986162894 0.84804810408105047 0 0.52991925155115449 0.26495962577557725 0 -0.42402405204052523 1 I I #
point $-1 64.053849890665006 -6.027586673654028 11.365605185673523 #
edge $-1 $542 1 $542 0 $322 $-1 forward 7 unknown #
vertex $-1 $323 $543 #
ellipse-curve $-1 62.940842160808373 -2.411034669461614 11.259709986162894 0.84804810408105047 0 0.52991925155115449 0.26495962577557725 0 -0.42402405204052523 1 I I #
point $-1 64.053849890665006 -2.411034669461614 11.365605185673523 #
plane-surface $-1 0 0 13.463342371355129 0 0 1 1 0 0 forward_v I I I I #
coedge $-1 $462 $461 $454 $544 forward $327 $-1 #
coedge $-1 $454 $329 $331 $458 reversed $217 $-1 #
coedge $-1 $329 $453 $452 $544 reversed $217 $-1 #
coedge $-1 $337 $332 $329 $456 forward $338 $-1 #
edge $-1 $459 9.6998649601932385 $545 11.791568972789335 $455 $546 forward 7 unknown #
coedge $-1 $331 $330 $462 $547 reversed $137 $-1 #
edge $-1 $548 -129.66948454237499 $459 -125.72227181803376 $453 $549 forward 7 unknown #
vertex $-1 $333 $550 #
straight-curve $-1 62.743038258591376 6.9887660795793636 13.463342371355125 0 -1 0 I I #
coedge $-1 $452 $334 $337 $466 reversed $327 $-1 #
coedge $-1 $334 $452 $457 $547 forward $327 $-1 #
vertex $-1 $335 $551 #
straight-curve $-1 64.83474227118748 18.196842830716548 94.398116412560242 0 0 1 I I #
straight-curve $-1 -3.8796139265318743 18.196842830716548 120.08187662740114 0.52991925155115449 0 -0.84804810408105047 I I #
edge $-1 $545 9.7582214876009061 $339 18.196842830716548 $461 $552 forward 7 unknown #
point $-1 64.83474227118748 18.196842830716548 13.463342371355129 #
point $-1 62.743038258591383 18.196842830716548 13.463342371355125 #
edge $-1 $553 1 $553 0 $342 $-1 forward 7 unknown #
vertex $-1 $343 $554 #
ellipse-curve $-1 62.940842160808373 12.16925615706252 11.259709986162894 0.84804810408105047 0 0.52991925155115449 0.26495962577557725 0 -0.42402405204052523 1 I I #
point $-1 64.053849890665006 12.16925615706252 11.365605185673523 #
edge $-1 $555 1 $555 0 $346 $-1 forward 7 unknown #
vertex $-1 $347 $556 #
ellipse-curve $-1 62.940842160808373 15.785808161254934 11.259709986162894 0.84804810408105047 0 0.52991925155115449 0.26495962577557725 0 -0.42402405204052523 1 I I #
point $-1 64.053849890665006 15.785808161254934 11.365605185673523 #
loop $-1 $-1 $480 $350 #
plane-surface $-1 0 36.393685661433096 0 0 -1 0 0 0 -1 forward_v I I I I #
coedge $-1 $354 $353 $486 $557 reversed $151 $-1 #
coedge $-1 $558 $559 $354 $481 forward $477 $-1 #
edge $-1 $483 -77.723939584066315 $560 -73.776726859725088 $480 $561 forward 7 unknown #
coedge $-1 $360 $355 $559 $562 reversed $239 $-1 #
vertex $-1 $356 $563 #
straight-curve $-1 64.83474227118748 16.087187494937638 10.115916104072959 0 1 0 I I #
coedge $-1 $564 $357 $360 $490 forward $351 $-1 #
coedge $-1 $357 $564 $479 $557 forward $351 $-1 #
vertex $-1 $358 $565 #
straight-curve $-1 53.043173298398145 27.955064318317454 13.463342371355125 1 0 0 I I #
straight-curve $-1 -3.8796139265318743 27.955064318317454 120.08187662740114 -0.52991925155115449 0 0.84804810408105047 I I #
edge $-1 $361 27.955064318317454 $566 36.393685661433096 $360 $567 forward 7 unknown #
point $-1 64.83474227118748 27.955064318317454 13.463342371355129 #
point $-1 64.83474227118748 27.955064318317454 10.115916104072951 #
edge $-1 $568 1 $568 0 $364 $-1 forward 7 unknown #
vertex $-1 $365 $569 #
ellipse-curve $-1 62.940842160808373 30.366098987779068 11.259709986162894 0.84804810408105047 0 0.52991925155115449 0.26495962577557725 0 -0.42402405204052523 1 I I #
point $-1 64.053849890665006 30.366098987779068 11.365605185673523 #
edge $-1 $570 1 $570 0 $368 $-1 forward 7 unknown #
vertex $-1 $369 $571 #
ellipse-curve $-1 62.940842160808373 33.982650991971482 11.259709986162894 0.84804810408105047 0 0.52991925155115449 0.26495962577557725 0 -0.42402405204052523 1 I I #
point $-1 64.053849890665006 33.982650991971482 11.365605185673523 #
plane-surface $-1 64.83474227118748 0 0 -1 0 0 0 0 1 forward_v I I I I #
coedge $-1 $377 $375 $379 $506 reversed $261 $-1 #
edge $-1 $390 -13.463342371355129 $508 13.463342371355129 $389 $572 forward 7 unknown #
vertex $-1 $506 $573 #
straight-curve $-1 -64.83474227118748 -36.393685661433096 0 0 0 -1 I I #
edge $-1 $504 -36.393685661433096 $508 36.393685661433096 $502 $574 forward 7 unknown #
straight-curve $-1 0 -36.393685661433096 -13.463342371355129 -1 0 0 I I #
vertex $-1 $382 $575 #
straight-curve $-1 0 36.393685661433096 -13.463342371355129 1 0 0 I I #
point $-1 64.83474227118748 36.393685661433096 -13.463342371355129 #
point $-1 64.83474227118748 -36.393685661433096 -13.463342371355129 #
straight-curve $-1 -64.83474227118748 0 13.463342371355129 0 -1 0 I I #
point $-1 -64.83474227118748 36.393685661433096 13.463342371355129 #
point $-1 -64.83474227118748 -36.393685661433096 13.463342371355129 #
straight-curve $-1 64.83474227118748 -36.393685661433096 0 0 0 -1 I I #
straight-curve $-1 64.83474227118748 36.393685661433096 0 0 0 -1 I I #
coedge $-1 $410 $409 $402 $518 forward $399 $-1 #
edge $-1 $519 80.934774041205117 $522 84.28220030848729 $517 $576 forward 7 unknown #
vertex $-1 $414 $577 #
straight-curve $-1 53.043173298398145 -26.63546417383219 13.463342371355125 1 0 0 I I #
edge $-1 $522 -15.427387422695006 $411 -6.9887660795793636 $410 $578 forward 7 unknown #
vertex $-1 $521 $579 #
straight-curve $-1 -3.8796139265318743 -26.63546417383219 120.08187662740114 -0.52991925155115449 0 0.84804810408105047 I I #
point $-1 62.743038258591383 -26.63546417383219 13.463342371355125 #
point $-1 64.83474227118748 -18.196842830716548 10.115916104072951 #
straight-curve $-1 64.83474227118748 0 13.463342371355129 0 1 0 I I #
vertex $-1 $417 $580 #
point $-1 63.205801786583955 -24.224429504370576 10.835685934122369 #
vertex $-1 $421 $581 #
point $-1 63.205801786583955 -20.607877500178162 10.835685934122369 #
edge $-1 $532 80.934774041205117 $535 84.28220030848729 $426 $582 forward 7 unknown #
vertex $-1 $440 $583 #
straight-curve $-1 53.043173298398145 -8.438621343115642 13.463342371355125 1 0 0 I I #
edge $-1 $535 -6.3289660073367315 $437 2.1096553357789105 $436 $584 forward 7 unknown #
vertex $-1 $534 $585 #
straight-curve $-1 -3.8796139265318743 -8.438621343115642 120.08187662740114 -0.52991925155115449 0 0.84804810408105047 I I #
point $-1 62.743038258591383 -8.438621343115642 13.463342371355125 #
point $-1 64.83474227118748 0 10.115916104072951 #
straight-curve $-1 64.83474227118748 0 13.463342371355129 0 1 0 I I #
vertex $-1 $443 $586 #
point $-1 63.205801786583955 -6.027586673654028 10.835685934122369 #
vertex $-1 $447 $587 #
point $-1 63.205801786583955 -2.411034669461614 10.835685934122369 #
edge $-1 $545 80.934774041205117 $548 84.28220030848729 $452 $588 forward 7 unknown #
vertex $-1 $466 $589 #
straight-curve $-1 53.043173298398145 9.7582214876009061 13.463342371355125 1 0 0 I I #
edge $-1 $548 2.7694554080215426 $463 11.208076751137185 $462 $590 forward 7 unknown #
vertex $-1 $547 $591 #
straight-curve $-1 -3.8796139265318743 9.7582214876009061 120.08187662740114 -0.52991925155115449 0 0.84804810408105047 I I #
point $-1 62.743038258591383 9.7582214876009061 13.463342371355125 #
point $-1 64.83474227118748 18.196842830716548 10.115916104072951 #
straight-curve $-1 64.83474227118748 0 13.463342371355129 0 1 0 I I #
vertex $-1 $469 $592 #
point $-1 63.205801786583955 12.16925615706252 10.835685934122369 #
vertex $-1 $473 $593 #
point $-1 63.205801786583955 15.785808161254934 10.835685934122369 #
edge $-1 $560 -20.306498166495459 $487 -11.867876823379817 $486 $594 forward 7 unknown #
coedge $-1 $559 $480 $564 $595 reversed $477 $-1 #
coedge $-1 $480 $558 $482 $562 forward $477 $-1 #
vertex $-1 $481 $596 #
straight-curve $-1 23.647330379191907 36.393685661433096 76.029555710050502 -0.52991925155115449 0 0.84804810408105047 I I #
edge $-1 $566 -13.463342371355129 $483 -10.115916104072957 $482 $597 forward 7 unknown #
point $-1 64.83474227118748 36.393685661433096 10.115916104072957 #
coedge $-1 $486 $485 $558 $595 forward $351 $-1 #
point $-1 62.743038258591383 27.955064318317454 13.463342371355125 #
vertex $-1 $490 $598 #
straight-curve $-1 64.83474227118748 0 13.463342371355129 0 1 0 I I #
vertex $-1 $493 $599 #
point $-1 63.205801786583955 30.366098987779068 10.835685934122369 #
vertex $-1 $497 $600 #
point $-1 63.205801786583955 33.982650991971482 10.835685934122369 #
straight-curve $-1 -64.83474227118748 36.393685661433096 0 0 0 -1 I I #
point $-1 -64.83474227118748 -36.393685661433096 -13.463342371355129 #
straight-curve $-1 -64.83474227118748 0 -13.463342371355129 0 1 0 I I #
point $-1 -64.83474227118748 36.393685661433096 -13.463342371355129 #
straight-curve $-1 64.83474227118748 -26.63546417383219 94.398116412560242 0 0 -1 I I #
point $-1 64.83474227118748 -26.63546417383219 13.463342371355129 #
straight-curve $-1 64.83474227118748 -11.208076751137185 10.115916104072959 0 1 0 I I #
point $-1 64.83474227118748 -26.63546417383219 10.115916104072951 #
point $-1 62.516818108767851 -24.224429504370576 10.994750360387316 #
point $-1 62.516818108767851 -20.607877500178162 10.994750360387316 #
straight-curve $-1 64.83474227118748 -8.438621343115642 94.398116412560242 0 0 -1 I I #
point $-1 64.83474227118748 -8.438621343115642 13.463342371355129 #
straight-curve $-1 64.83474227118748 -2.1096553357789105 10.115916104072959 0 1 0 I I #
point $-1 64.83474227118748 -8.438621343115642 10.115916104072951 #
point $-1 62.516818108767851 -6.027586673654028 10.994750360387316 #
point $-1 62.516818108767851 -2.411034669461614 10.994750360387316 #
straight-curve $-1 64.83474227118748 9.7582214876009061 94.398116412560242 0 0 -1 I I #
point $-1 64.83474227118748 9.7582214876009061 13.463342371355129 #
straight-curve $-1 64.83474227118748 6.9887660795793636 10.115916104072959 0 1 0 I I #
point $-1 64.83474227118748 9.7582214876009061 10.115916104072951 #
point $-1 62.516818108767851 12.16925615706252 10.994750360387316 #
point $-1 62.516818108767851 15.785808161254934 10.994750360387316 #
straight-curve $-1 62.743038258591376 16.087187494937638 13.463342371355125 0 -1 0 I I #
edge $-1 $566 -64.83474227118748 $560 -62.743038258591383 $558 $601 forward 7 unknown #
point $-1 62.743038258591383 36.393685661433096 13.463342371355125 #
straight-curve $-1 64.83474227118748 36.393685661433096 0 0 0 -1 I I #
point $-1 64.83474227118748 36.393685661433096 13.463342371355129 #
point $-1 62.516818108767851 30.366098987779068 10.994750360387316 #
point $-1 62.516818108767851 33.982650991971482 10.994750360387316 #
straight-curve $-1 0 36.393685661433096 13.463342371355129 -1 0 0 I I #
End-of-ACIS-data 