500 0 7 0           
7 Unknown 11 ACIS 5.0 NT 24 Fri Mar 26 17:13:03 1999 
-1 9.9999999999999995e-007 1e-010 
body $-1 $7 $-1 $8 #
body $-1 $9 $-1 $10 #
body $-1 $11 $-1 $12 #
body $-1 $13 $-1 $14 #
body $-1 $15 $-1 $16 #
body $-1 $17 $-1 $18 #
body $-1 $19 $-1 $20 #
lump $-1 $-1 $21 $0 #
transform $-1 1 0 0 0 1 0 0 0 1 68.84853663747063 46.241792797940796 22.328772667854206 1 rotate no_reflect no_shear #
lump $-1 $-1 $22 $1 #
transform $-1 1 0 0 0 1 0 0 0 1 68.84853663747063 46.241792797940796 22.328772667854206 1 rotate no_reflect no_shear #
lump $-1 $-1 $23 $2 #
transform $-1 1 0 0 0 1 0 0 0 1 68.84853663747063 46.241792797940796 22.328772667854206 1 rotate no_reflect no_shear #
lump $-1 $-1 $24 $3 #
transform $-1 1 0 0 0 1 0 0 0 1 68.84853663747063 46.241792797940796 22.328772667854206 1 rotate no_reflect no_shear #
lump $-1 $-1 $25 $4 #
transform $-1 1 0 0 0 1 0 0 0 1 68.84853663747063 46.241792797940796 22.328772667854206 1 rotate no_reflect no_shear #
lump $-1 $-1 $26 $5 #
transform $-1 1 0 0 0 1 0 0 0 1 68.84853663747063 46.241792797940796 22.328772667854206 1 rotate no_reflect no_shear #
lump $-1 $-1 $27 $6 #
transform $-1 1 0 0 0 1 0 0 0 1 68.84853663747063 46.241792797940796 22.328772667854206 1 rotate no_reflect no_shear #
shell $-1 $-1 $-1 $28 $-1 $7 #
shell $-1 $-1 $-1 $29 $-1 $9 #
shell $-1 $-1 $-1 $30 $-1 $11 #
shell $-1 $-1 $-1 $31 $-1 $13 #
shell $-1 $-1 $-1 $32 $-1 $15 #
shell $-1 $-1 $-1 $33 $-1 $17 #
shell $-1 $-1 $-1 $34 $-1 $19 #
face $-1 $35 $36 $21 $-1 $37 forward single #
face $-1 $38 $39 $22 $-1 $40 forward single #
face $-1 $41 $42 $23 $-1 $43 forward single #
face $-1 $44 $45 $24 $-1 $46 reversed single #
face $-1 $47 $48 $25 $-1 $49 forward single #
face $-1 $50 $51 $26 $-1 $52 reversed single #
face $-1 $53 $54 $27 $-1 $55 forward single #
face $-1 $56 $57 $21 $-1 $58 reversed single #
loop $-1 $-1 $59 $28 #
plane-surface $-1 0 0 22.328772667854206 0 0 1 1 0 0 forward_v I I I I #
face $-1 $60 $61 $22 $-1 $62 reversed single #
loop $-1 $-1 $63 $29 #
plane-surface $-1 -68.84853663747063 0 0 1 0 0 0 0 -1 forward_v I I I I #
face $-1 $64 $65 $23 $-1 $66 reversed single #
loop $-1 $-1 $67 $30 #
plane-surface $-1 68.84853663747063 0 0 -1 0 0 0 0 1 forward_v I I I I #
face $-1 $68 $69 $24 $-1 $70 reversed single #
loop $-1 $-1 $71 $31 #
plane-surface $-1 -2.1327035030097932 -163.01553472626421 78.27434857039195 -1 0 0 0 -0.84804810408105047 0.52991925155115449 forward_v I I I I #
face $-1 $72 $73 $25 $-1 $74 forward single #
loop $-1 $75 $76 $32 #
cone-surface $-1 -8.6302575751046362 -38.017331324932897 12.001548466263268 0 0.84804810408105047 -0.52991925155115449 3 0 0 1 I I 0 1 3 forward I I I I #
face $-1 $77 $78 $26 $-1 $79 reversed single #
loop $-1 $-1 $80 $33 #
plane-surface $-1 -15.127811647199479 114.00670226652747 156.70487799359688 1 0 0 0 -0.84804810408105047 -0.52991925155115449 forward_v I I I I #
face $-1 $81 $82 $27 $-1 $83 forward single #
loop $-1 $84 $85 $34 #
cone-surface $-1 -8.6302575751046362 38.01733132493289 12.001548466263264 0 -0.84804810408105047 -0.52991925155115449 3 0 0 1 I I 0 1 3 forward I I I I #
face $-1 $86 $87 $21 $-1 $88 reversed single #
loop $-1 $-1 $89 $35 #
plane-surface $-1 0 0 -22.328772667854206 0 0 1 1 0 0 forward_v I I I I #
coedge $-1 $90 $91 $92 $93 forward $36 $-1 #
face $-1 $94 $95 $22 $-1 $96 forward single #
loop $-1 $-1 $97 $38 #
plane-surface $-1 0 46.241792797940796 0 0 -1 0 0 0 -1 forward_v I I I I #
coedge $-1 $98 $99 $100 $101 forward $39 $-1 #
face $-1 $102 $103 $23 $-1 $104 forward single #
loop $-1 $-1 $105 $41 #
plane-surface $-1 0 46.241792797940796 0 0 -1 0 0 0 -1 forward_v I I I I #
coedge $-1 $106 $107 $108 $109 forward $42 $-1 #
face $-1 $110 $111 $24 $-1 $112 reversed single #
loop $-1 $-1 $113 $44 #
plane-surface $-1 -8.6302575751046362 -46.241792797940789 5.3060185597505978 0 -0.84804810408105047 0.52991925155115449 1 0 0 forward_v I I I I #
coedge $-1 $114 $115 $116 $117 reversed $45 $-1 #
face $-1 $-1 $118 $25 $-1 $119 forward single #
loop $-1 $120 $121 $47 #
cone-surface $-1 -8.6302575751046362 -33.839296182443192 9.3908224413973898 0 0.84804810408105047 -0.52991925155115449 1.5 0 0 1 I I -0.70710678118654757 0.70710678118654757 1.5 forward I I I I #
loop $-1 $-1 $122 $32 #
coedge $-1 $76 $76 $123 $124 reversed $48 $-1 #
face $-1 $125 $126 $26 $-1 $127 reversed single #
loop $-1 $-1 $128 $50 #
plane-surface $-1 -8.6302575751046362 -2.7670396617959483 83.736547982955528 0 0.84804810408105047 0.52991925155115449 1 0 0 forward_v I I I I #
coedge $-1 $129 $130 $131 $132 reversed $51 $-1 #
face $-1 $-1 $133 $27 $-1 $134 forward single #
loop $-1 $135 $136 $53 #
cone-surface $-1 -8.6302575751046362 33.839296182443185 9.3908224413973862 0 -0.84804810408105047 -0.52991925155115449 1.5 0 0 1 I I -0.70710678118654757 0.70710678118654757 1.5 forward I I I I #
loop $-1 $-1 $137 $34 #
coedge $-1 $85 $85 $138 $139 reversed $54 $-1 #
face $-1 $140 $141 $21 $-1 $142 reversed single #
loop $-1 $-1 $143 $56 #
plane-surface $-1 0 -46.241792797940796 0 0 1 0 0 0 1 forward_v I I I I #
coedge $-1 $144 $145 $146 $147 forward $57 $-1 #
coedge $-1 $148 $59 $149 $150 forward $36 $-1 #
coedge $-1 $59 $148 $151 $152 forward $36 $-1 #
coedge $-1 $153 $154 $59 $93 reversed $155 $-1 #
edge $-1 $156 -46.241792797940796 $157 46.241792797940796 $92 $158 forward 7 unknown #
face $-1 $159 $160 $22 $-1 $161 reversed single #
loop $-1 $-1 $100 $60 #
plane-surface $-1 -78.367515870234953 0 -11.893323622137917 0 0 1 1 0 0 forward_v I I I I #
coedge $-1 $162 $163 $99 $164 forward $61 $-1 #
coedge $-1 $165 $63 $166 $167 reversed $39 $-1 #
coedge $-1 $63 $165 $97 $164 reversed $39 $-1 #
coedge $-1 $168 $169 $63 $101 reversed $95 $-1 #
edge $-1 $170 -46.241792797940796 $171 46.241792797940796 $100 $172 forward 7 unknown #
face $-1 $173 $174 $23 $-1 $175 reversed single #
loop $-1 $-1 $176 $64 #
plane-surface $-1 78.367515870234939 0 -11.893323622137917 0 0 1 1 0 0 forward_v I I I I #
coedge $-1 $177 $178 $106 $179 forward $65 $-1 #
coedge $-1 $180 $67 $105 $179 reversed $42 $-1 #
coedge $-1 $67 $180 $181 $182 reversed $42 $-1 #
coedge $-1 $183 $184 $67 $109 reversed $103 $-1 #
edge $-1 $185 -46.241792797940796 $186 46.241792797940796 $108 $187 forward 7 unknown #
face $-1 $188 $189 $24 $-1 $190 forward single #
loop $-1 $-1 $191 $68 #
plane-surface $-1 -15.127811647199479 -163.01553472626421 78.27434857039195 1 0 0 0 0.84804810408105047 -0.52991925155115449 forward_v I I I I #
coedge $-1 $192 $193 $194 $195 reversed $69 $-1 #
coedge $-1 $115 $71 $196 $197 reversed $45 $-1 #
coedge $-1 $71 $114 $192 $198 reversed $45 $-1 #
coedge $-1 $194 $199 $71 $117 forward $189 $-1 #
edge $-1 $200 35.265974565191307 $201 45.902971538470879 $116 $202 forward 7 unknown #
loop $-1 $-1 $123 $72 #
plane-surface $-1 -8.6302575751046362 -46.241792797940789 5.3060185597505978 0 -0.84804810408105047 0.52991925155115449 1 0 0 forward_v I I I I #
loop $-1 $-1 $203 $47 #
coedge $-1 $121 $121 $122 $204 reversed $73 $-1 #
coedge $-1 $122 $122 $121 $204 forward $75 $-1 #
coedge $-1 $123 $123 $76 $124 forward $118 $-1 #
edge $-1 $205 1.0048156180638285e-015 $205 6.2831853071796013 $123 $206 forward 7 unknown #
face $-1 $207 $208 $26 $-1 $209 reversed single #
loop $-1 $-1 $210 $77 #
plane-surface $-1 -2.1327035030097932 114.00670226652747 156.70487799359688 -1 0 0 0 0.84804810408105047 0.52991925155115449 forward_v I I I I #
coedge $-1 $211 $212 $213 $214 reversed $78 $-1 #
coedge $-1 $130 $80 $215 $216 reversed $51 $-1 #
coedge $-1 $80 $129 $211 $217 reversed $51 $-1 #
coedge $-1 $213 $218 $80 $132 forward $219 $-1 #
edge $-1 $220 10.761558335322938 $221 21.398555308602546 $131 $222 forward 7 unknown #
loop $-1 $-1 $138 $81 #
plane-surface $-1 -8.6302575751046362 -2.7670396617959483 83.736547982955528 0 0.84804810408105047 0.52991925155115449 1 0 0 forward_v I I I I #
loop $-1 $-1 $223 $53 #
coedge $-1 $136 $136 $137 $224 reversed $82 $-1 #
coedge $-1 $137 $137 $136 $224 forward $84 $-1 #
coedge $-1 $138 $138 $85 $139 forward $133 $-1 #
edge $-1 $225 -5.0319518630286734e-016 $225 6.2831853071795996 $138 $226 forward 7 unknown #
face $-1 $227 $228 $21 $-1 $229 reversed single #
loop $-1 $-1 $230 $86 #
plane-surface $-1 -68.84853663747063 0 0 1 0 0 0 0 -1 forward_v I I I I #
coedge $-1 $231 $151 $232 $233 forward $87 $-1 #
coedge $-1 $234 $89 $231 $235 forward $57 $-1 #
coedge $-1 $89 $234 $236 $237 forward $57 $-1 #
coedge $-1 $154 $153 $89 $147 reversed $155 $-1 #
edge $-1 $238 -46.241792797940796 $239 46.241792797940796 $146 $240 forward 7 unknown #
coedge $-1 $91 $90 $241 $242 forward $36 $-1 #
coedge $-1 $243 $244 $90 $150 reversed $228 $-1 #
edge $-1 $157 -68.84853663747063 $245 68.84853663747063 $149 $246 forward 7 unknown #
coedge $-1 $143 $247 $91 $152 reversed $87 $-1 #
edge $-1 $248 -68.84853663747063 $156 68.84853663747063 $151 $249 forward 7 unknown #
coedge $-1 $146 $92 $247 $250 forward $155 $-1 #
coedge $-1 $92 $146 $243 $251 reversed $155 $-1 #
loop $-1 $-1 $153 $227 #
vertex $-1 $93 $252 #
vertex $-1 $93 $253 #
straight-curve $-1 68.84853663747063 0 22.328772667854206 0 1 0 I I #
face $-1 $254 $255 $22 $-1 $256 reversed single #
loop $-1 $-1 $257 $94 #
plane-surface $-1 -87.886495102999277 0 -17.111048144996062 1 0 0 0 0 -1 forward_v I I I I #
coedge $-1 $258 $97 $259 $260 reversed $61 $-1 #
coedge $-1 $97 $258 $168 $261 reversed $61 $-1 #
edge $-1 $170 11.893323622137917 $262 22.328772667854206 $97 $263 forward 7 unknown #
coedge $-1 $99 $98 $264 $265 reversed $39 $-1 #
coedge $-1 $266 $267 $98 $167 forward $268 $-1 #
edge $-1 $269 -22.328772667854206 $171 -11.893323622137917 $166 $270 forward 7 unknown #
coedge $-1 $271 $100 $163 $261 forward $95 $-1 #
coedge $-1 $100 $271 $266 $272 forward $95 $-1 #
vertex $-1 $164 $273 #
vertex $-1 $272 $274 #
straight-curve $-1 -68.84853663747063 0 -11.893323622137917 0 -1 0 I I #
face $-1 $275 $276 $23 $-1 $277 reversed single #
loop $-1 $-1 $278 $102 #
plane-surface $-1 87.886495102999262 0 -17.111048144996062 -1 0 0 0 0 1 forward_v I I I I #
coedge $-1 $184 $183 $279 $280 forward $103 $-1 #
coedge $-1 $281 $105 $184 $282 reversed $65 $-1 #
coedge $-1 $105 $281 $283 $284 reversed $65 $-1 #
edge $-1 $285 -22.328772667854206 $186 -11.893323622137917 $105 $286 forward 7 unknown #
coedge $-1 $107 $106 $287 $288 reversed $42 $-1 #
coedge $-1 $289 $290 $107 $182 forward $291 $-1 #
edge $-1 $185 11.893323622137917 $292 22.328772667854206 $181 $293 forward 7 unknown #
coedge $-1 $176 $108 $290 $294 forward $103 $-1 #
coedge $-1 $108 $176 $177 $282 forward $103 $-1 #
vertex $-1 $182 $295 #
vertex $-1 $282 $296 #
straight-curve $-1 68.84853663747063 0 -11.893323622137917 0 1 0 I I #
face $-1 $-1 $297 $24 $-1 $298 reversed single #
loop $-1 $-1 $116 $110 #
plane-surface $-1 0 0 22.328772667854206 0 0 1 1 0 0 forward_v I I I I #
coedge $-1 $299 $300 $301 $302 reversed $111 $-1 #
coedge $-1 $303 $113 $115 $198 forward $69 $-1 #
coedge $-1 $113 $303 $299 $304 forward $69 $-1 #
coedge $-1 $301 $116 $113 $195 forward $189 $-1 #
edge $-1 $201 -2.1824252845425249 $305 10.812682859647161 $194 $306 forward 7 unknown #
coedge $-1 $307 $308 $114 $197 forward $297 $-1 #
edge $-1 $309 -33.831155725445392 $200 -16.808401617341769 $196 $310 forward 7 unknown #
edge $-1 $201 -20.072863822447381 $309 1.3557137071152151e-014 $115 $311 forward 7 unknown #
coedge $-1 $116 $301 $307 $312 forward $189 $-1 #
vertex $-1 $197 $313 #
vertex $-1 $117 $314 #
straight-curve $-1 -2.1327035030097932 -81.507767363132103 22.328772667854206 0 1 0 I I #
coedge $-1 $203 $203 $-1 $315 reversed $120 $-1 #
edge $-1 $316 0 $316 6.2831853071796004 $121 $317 forward 7 unknown #
vertex $-1 $124 $318 #
ellipse-curve $-1 -8.6302575751046362 -40.923294311301007 13.817395613802402 0 -0.84804810408105047 0.52991925155115449 3 0 0 1 I I #
face $-1 $-1 $219 $26 $-1 $319 forward single #
loop $-1 $-1 $320 $125 #
plane-surface $-1 0 46.241792797940796 0 0 -1 0 0 0 -1 forward_v I I I I #
coedge $-1 $321 $322 $323 $324 reversed $126 $-1 #
coedge $-1 $325 $128 $130 $217 forward $78 $-1 #
coedge $-1 $128 $325 $321 $326 forward $78 $-1 #
coedge $-1 $323 $131 $128 $214 forward $219 $-1 #
edge $-1 $221 -10.812682859647161 $327 2.1824252845425249 $213 $328 forward 7 unknown #
coedge $-1 $329 $330 $129 $216 forward $208 $-1 #
edge $-1 $331 -73.0464204370479 $220 -56.02366632894423 $215 $332 forward 7 unknown #
edge $-1 $221 72.410721773434204 $331 92.483585595881664 $130 $333 forward 7 unknown #
coedge $-1 $131 $323 $329 $334 forward $219 $-1 #
loop $-1 $-1 $323 $207 #
vertex $-1 $216 $335 #
vertex $-1 $132 $336 #
straight-curve $-1 -15.127811647199479 57.003351133263735 22.32877266785421 0 -1 0 I I #
coedge $-1 $223 $223 $-1 $337 reversed $135 $-1 #
edge $-1 $338 0 $338 6.2831853071796004 $136 $339 forward 7 unknown #
vertex $-1 $139 $340 #
ellipse-curve $-1 -8.6302575751046362 40.923294311300992 13.817395613802391 0 0.84804810408105047 0.52991925155115449 3 0 0 1 I I #
face $-1 $-1 $155 $21 $-1 $341 reversed single #
loop $-1 $-1 $243 $140 #
plane-surface $-1 0 46.241792797940796 0 0 -1 0 0 0 -1 forward_v I I I I #
coedge $-1 $342 $241 $244 $343 forward $141 $-1 #
coedge $-1 $247 $143 $144 $235 reversed $87 $-1 #
coedge $-1 $241 $342 $143 $233 reversed $141 $-1 #
edge $-1 $248 -22.328772667854206 $344 22.328772667854206 $232 $345 forward 7 unknown #
coedge $-1 $145 $144 $342 $346 forward $57 $-1 #
edge $-1 $239 -68.84853663747063 $344 68.84853663747063 $231 $347 forward 7 unknown #
coedge $-1 $244 $243 $145 $237 reversed $228 $-1 #
edge $-1 $348 -68.84853663747063 $238 68.84853663747063 $236 $349 forward 7 unknown #
vertex $-1 $147 $350 #
vertex $-1 $250 $351 #
straight-curve $-1 68.84853663747063 0 -22.328772667854206 0 -1 0 I I #
coedge $-1 $230 $232 $148 $242 reversed $141 $-1 #
edge $-1 $245 -46.241792797940796 $248 46.241792797940796 $241 $352 forward 7 unknown #
coedge $-1 $236 $149 $154 $251 forward $228 $-1 #
coedge $-1 $149 $236 $230 $343 reversed $228 $-1 #
vertex $-1 $150 $353 #
straight-curve $-1 0 46.241792797940796 22.328772667854206 -1 0 0 I I #
coedge $-1 $151 $231 $153 $250 reversed $87 $-1 #
vertex $-1 $242 $354 #
straight-curve $-1 0 -46.241792797940796 22.328772667854206 1 0 0 I I #
edge $-1 $156 -22.328772667854206 $239 22.328772667854206 $153 $355 forward 7 unknown #
edge $-1 $157 -22.328772667854206 $238 22.328772667854206 $154 $356 forward 7 unknown #
point $-1 68.84853663747063 -46.241792797940796 22.328772667854206 #
point $-1 68.84853663747063 46.241792797940796 22.328772667854206 #
face $-1 $-1 $268 $22 $-1 $357 reversed single #
loop $-1 $-1 $264 $159 #
plane-surface $-1 0 0 -22.328772667854206 0 0 1 1 0 0 forward_v I I I I #
coedge $-1 $358 $359 $258 $360 forward $160 $-1 #
coedge $-1 $163 $162 $257 $360 reversed $61 $-1 #
coedge $-1 $264 $361 $162 $260 forward $255 $-1 #
edge $-1 $362 -87.886495102999277 $262 -68.84853663747063 $162 $363 forward 7 unknown #
edge $-1 $170 -9.5189792327643232 $364 9.5189792327643232 $163 $365 forward 7 unknown #
vertex $-1 $164 $366 #
straight-curve $-1 -68.84853663747063 46.241792797940796 0 0 0 -1 I I #
coedge $-1 $367 $259 $165 $265 forward $255 $-1 #
edge $-1 $262 -46.241792797940796 $269 46.241792797940796 $264 $368 forward 7 unknown #
coedge $-1 $369 $166 $169 $272 reversed $268 $-1 #
coedge $-1 $166 $369 $367 $370 reversed $268 $-1 #
loop $-1 $-1 $166 $254 #
vertex $-1 $370 $371 #
straight-curve $-1 -68.84853663747063 -46.241792797940796 0 0 0 1 I I #
coedge $-1 $169 $168 $359 $372 forward $95 $-1 #
edge $-1 $373 -9.5189792327643232 $171 9.5189792327643232 $266 $374 forward 7 unknown #
point $-1 -68.84853663747063 46.241792797940796 -11.893323622137917 #
point $-1 -68.84853663747063 -46.241792797940796 -11.893323622137917 #
face $-1 $-1 $291 $23 $-1 $375 reversed single #
loop $-1 $-1 $287 $173 #
plane-surface $-1 0 0 -22.328772667854206 0 0 1 1 0 0 forward_v I I I I #
coedge $-1 $376 $279 $377 $378 forward $174 $-1 #
coedge $-1 $278 $379 $176 $280 reversed $174 $-1 #
edge $-1 $380 -46.241792797940796 $381 46.241792797940796 $279 $382 forward 7 unknown #
coedge $-1 $178 $177 $379 $383 forward $65 $-1 #
edge $-1 $381 -9.5189792327643232 $186 9.5189792327643232 $177 $384 forward 7 unknown #
coedge $-1 $385 $287 $178 $284 forward $276 $-1 #
edge $-1 $285 -9.518979232764309 $386 9.5189792327643232 $178 $387 forward 7 unknown #
vertex $-1 $284 $388 #
straight-curve $-1 68.84853663747063 46.241792797940796 0 0 0 1 I I #
coedge $-1 $283 $389 $180 $288 forward $276 $-1 #
edge $-1 $292 -46.241792797940796 $285 46.241792797940796 $287 $390 forward 7 unknown #
coedge $-1 $377 $181 $389 $391 reversed $291 $-1 #
coedge $-1 $181 $377 $183 $294 reversed $291 $-1 #
loop $-1 $-1 $181 $275 #
vertex $-1 $182 $392 #
straight-curve $-1 68.84853663747063 -46.241792797940796 0 0 0 -1 I I #
edge $-1 $185 -9.5189792327643232 $380 9.5189792327643232 $290 $393 forward 7 unknown #
point $-1 68.848536637470616 -46.241792797940796 -11.893323622137917 #
point $-1 68.848536637470616 46.241792797940796 -11.893323622137917 #
loop $-1 $-1 $196 $188 #
plane-surface $-1 0 -46.241792797940796 0 0 1 0 0 0 1 forward_v I I I I #
coedge $-1 $300 $191 $193 $304 reversed $111 $-1 #
coedge $-1 $191 $299 $394 $395 reversed $111 $-1 #
coedge $-1 $199 $194 $191 $302 forward $189 $-1 #
edge $-1 $305 -45.902971538470879 $396 -35.265974565191307 $301 $397 forward 7 unknown #
coedge $-1 $193 $192 $308 $398 reversed $69 $-1 #
edge $-1 $399 -1.3557137071152151e-014 $305 20.072863822447381 $299 $400 forward 7 unknown #
vertex $-1 $195 $401 #
straight-curve $-1 -4.3151287875523181 -35.604795824661224 22.328772667854206 -1 0 0 I I #
coedge $-1 $394 $196 $199 $312 reversed $297 $-1 #
coedge $-1 $196 $394 $303 $398 forward $297 $-1 #
vertex $-1 $197 $402 #
straight-curve $-1 -2.1327035030097932 -46.241792797940796 39.137174285195975 0 0 1 I I #
straight-curve $-1 -2.1327035030097932 -46.241792797940789 5.3060185597505978 0 -0.52991925155115449 -0.84804810408105047 I I #
edge $-1 $396 -15.127811647199479 $200 -2.1327035030097932 $307 $403 forward 7 unknown #
point $-1 -2.1327035030097932 -46.241792797940796 22.328772667854206 #
point $-1 -2.1327035030097932 -35.604795824661224 22.328772667854206 #
edge $-1 $404 1 $404 0 $203 $-1 forward 7 unknown #
vertex $-1 $204 $405 #
ellipse-curve $-1 -8.6302575751046362 -35.111368338564766 10.185701318724121 0 -0.84804810408105047 0.52991925155115449 3 0 0 1 I I #
point $-1 -5.6302575751046362 -40.923294311301021 13.817395613802415 #
plane-surface $-1 0 0 22.328772667854206 0 0 1 1 0 0 forward_v I I I I #
coedge $-1 $330 $329 $322 $406 forward $208 $-1 #
coedge $-1 $322 $210 $212 $326 reversed $126 $-1 #
coedge $-1 $210 $321 $320 $406 reversed $126 $-1 #
coedge $-1 $218 $213 $210 $324 forward $219 $-1 #
edge $-1 $327 -21.398555308602546 $407 -10.761558335322938 $323 $408 forward 7 unknown #
coedge $-1 $212 $211 $330 $409 reversed $78 $-1 #
edge $-1 $410 -92.483585595881664 $327 -72.410721773434204 $321 $411 forward 7 unknown #
vertex $-1 $214 $412 #
straight-curve $-1 -4.3151287875523181 35.604795824661196 22.328772667854203 1 0 0 I I #
coedge $-1 $320 $215 $218 $334 reversed $208 $-1 #
coedge $-1 $215 $320 $325 $409 forward $208 $-1 #
vertex $-1 $216 $413 #
straight-curve $-1 -15.127811647199479 46.241792797940796 78.35243899679844 0 0 1 I I #
straight-curve $-1 -15.127811647199479 -2.7670396617959483 83.736547982955528 0 0.52991925155115449 -0.84804810408105047 I I #
edge $-1 $407 2.1327035030097932 $220 15.127811647199479 $329 $414 forward 7 unknown #
point $-1 -15.127811647199479 46.241792797940796 22.328772667854206 #
point $-1 -15.127811647199479 35.604795824661188 22.32877266785421 #
edge $-1 $415 1 $415 0 $223 $-1 forward 7 unknown #
vertex $-1 $224 $416 #
ellipse-curve $-1 -8.6302575751046362 35.111368338564759 10.185701318724117 0 0.84804810408105047 0.52991925155115449 3 0 0 1 I I #
point $-1 -5.6302575751046362 40.923294311301021 13.817395613802411 #
plane-surface $-1 68.84853663747063 0 0 -1 0 0 0 0 1 forward_v I I I I #
coedge $-1 $232 $230 $234 $346 reversed $141 $-1 #
edge $-1 $245 -22.328772667854206 $348 22.328772667854206 $244 $417 forward 7 unknown #
vertex $-1 $346 $418 #
straight-curve $-1 -68.84853663747063 -46.241792797940796 0 0 0 -1 I I #
edge $-1 $344 -46.241792797940796 $348 46.241792797940796 $342 $419 forward 7 unknown #
straight-curve $-1 0 -46.241792797940796 -22.328772667854206 -1 0 0 I I #
vertex $-1 $237 $420 #
straight-curve $-1 0 46.241792797940796 -22.328772667854206 1 0 0 I I #
point $-1 68.84853663747063 46.241792797940796 -22.328772667854206 #
point $-1 68.84853663747063 -46.241792797940796 -22.328772667854206 #
straight-curve $-1 -68.84853663747063 0 22.328772667854206 0 -1 0 I I #
point $-1 -68.84853663747063 46.241792797940796 22.328772667854206 #
point $-1 -68.84853663747063 -46.241792797940796 22.328772667854206 #
straight-curve $-1 68.84853663747063 -46.241792797940796 0 0 0 -1 I I #
straight-curve $-1 68.84853663747063 46.241792797940796 0 0 0 -1 I I #
plane-surface $-1 0 -46.241792797940796 0 0 1 0 0 0 1 forward_v I I I I #
coedge $-1 $421 $257 $361 $422 reversed $160 $-1 #
coedge $-1 $257 $421 $271 $372 reversed $160 $-1 #
edge $-1 $364 -5.2177245228581448 $362 5.2177245228581448 $258 $423 forward 7 unknown #
coedge $-1 $259 $367 $358 $422 forward $255 $-1 #
vertex $-1 $260 $424 #
straight-curve $-1 0 46.241792797940796 -22.328772667854206 1 0 0 I I #
vertex $-1 $261 $425 #
straight-curve $-1 -78.367515870234953 46.241792797940796 -11.893323622137917 -1 0 0 I I #
point $-1 -68.84853663747063 46.241792797940796 -22.328772667854206 #
coedge $-1 $361 $264 $267 $370 forward $255 $-1 #
straight-curve $-1 -68.84853663747063 0 -22.328772667854206 0 -1 0 I I #
coedge $-1 $267 $266 $421 $426 forward $268 $-1 #
edge $-1 $269 -9.5189792327643232 $427 9.5189792327643232 $267 $428 forward 7 unknown #
point $-1 -68.84853663747063 -46.241792797940796 -22.328772667854206 #
edge $-1 $364 -46.241792797940796 $373 46.241792797940796 $359 $429 forward 7 unknown #
vertex $-1 $372 $430 #
straight-curve $-1 -78.367515870234953 -46.241792797940796 -11.893323622137917 1 0 0 I I #
plane-surface $-1 0 -46.241792797940796 0 0 1 0 0 0 1 forward_v I I I I #
coedge $-1 $379 $278 $385 $431 reversed $174 $-1 #
coedge $-1 $290 $289 $278 $378 reversed $291 $-1 #
edge $-1 $380 -5.2177245228581448 $432 5.2177245228581448 $278 $433 forward 7 unknown #
coedge $-1 $279 $376 $281 $383 reversed $174 $-1 #
vertex $-1 $280 $434 #
vertex $-1 $280 $435 #
straight-curve $-1 87.886495102999262 0 -11.893323622137917 0 1 0 I I #
edge $-1 $381 -5.2177245228581448 $386 5.2177245228581448 $379 $436 forward 7 unknown #
straight-curve $-1 78.367515870234939 46.241792797940796 -11.893323622137917 -1 0 0 I I #
coedge $-1 $389 $283 $376 $431 forward $276 $-1 #
vertex $-1 $431 $437 #
straight-curve $-1 78.367515870234939 46.241792797940796 -22.328772667854206 1 0 0 I I #
point $-1 68.84853663747063 46.241792797940796 -22.328772667854206 #
coedge $-1 $287 $385 $289 $391 forward $276 $-1 #
straight-curve $-1 68.84853663747063 0 -22.328772667854206 0 1 0 I I #
edge $-1 $432 -9.5189792327643232 $292 9.518979232764309 $289 $438 forward 7 unknown #
point $-1 68.84853663747063 -46.241792797940796 -22.328772667854206 #
straight-curve $-1 78.367515870234939 -46.241792797940796 -11.893323622137917 1 0 0 I I #
coedge $-1 $308 $307 $300 $395 forward $297 $-1 #
edge $-1 $396 16.808401617341769 $399 33.831155725445392 $394 $439 forward 7 unknown #
vertex $-1 $312 $440 #
straight-curve $-1 -15.127811647199479 -81.507767363132103 22.328772667854206 0 -1 0 I I #
edge $-1 $399 -10.812682859647161 $309 2.1824252845425249 $308 $441 forward 7 unknown #
vertex $-1 $398 $442 #
straight-curve $-1 -15.127811647199479 -46.241792797940789 5.3060185597505978 0 0.52991925155115449 0.84804810408105047 I I #
point $-1 -15.127811647199479 -35.604795824661224 22.328772667854206 #
point $-1 -2.1327035030097932 -46.241792797940796 5.3060185597505862 #
straight-curve $-1 0 -46.241792797940796 22.328772667854206 1 0 0 I I #
vertex $-1 $315 $443 #
point $-1 -5.6302575751046362 -35.111368338564766 10.185701318724121 #
edge $-1 $407 56.02366632894423 $410 73.0464204370479 $320 $444 forward 7 unknown #
vertex $-1 $334 $445 #
straight-curve $-1 -2.1327035030097932 57.003351133263735 22.32877266785421 0 1 0 I I #
edge $-1 $410 -2.1824252845425249 $331 10.812682859647161 $330 $446 forward 7 unknown #
vertex $-1 $409 $447 #
straight-curve $-1 -2.1327035030097932 -2.7670396617959483 83.736547982955528 0 -0.52991925155115449 0.84804810408105047 I I #
point $-1 -2.1327035030097932 35.604795824661188 22.32877266785421 #
point $-1 -15.127811647199479 46.241792797940796 5.3060185597505409 #
straight-curve $-1 0 46.241792797940796 22.328772667854206 -1 0 0 I I #
vertex $-1 $337 $448 #
point $-1 -5.6302575751046362 35.111368338564759 10.185701318724117 #
straight-curve $-1 -68.84853663747063 46.241792797940796 0 0 0 -1 I I #
point $-1 -68.84853663747063 -46.241792797940796 -22.328772667854206 #
straight-curve $-1 -68.84853663747063 0 -22.328772667854206 0 1 0 I I #
point $-1 -68.84853663747063 46.241792797940796 -22.328772667854206 #
coedge $-1 $359 $358 $369 $426 reversed $160 $-1 #
edge $-1 $427 -46.241792797940796 $362 46.241792797940796 $358 $449 forward 7 unknown #
straight-curve $-1 -87.886495102999277 46.241792797940796 -17.111048144996062 0 0 -1 I I #
point $-1 -87.886495102999277 46.241792797940796 -22.328772667854206 #
point $-1 -87.886495102999277 46.241792797940796 -11.893323622137917 #
edge $-1 $373 -5.2177245228581448 $427 5.2177245228581448 $421 $450 forward 7 unknown #
vertex $-1 $422 $451 #
straight-curve $-1 -78.367515870234953 -46.241792797940796 -22.328772667854206 -1 0 0 I I #
straight-curve $-1 -87.886495102999277 0 -11.893323622137917 0 -1 0 I I #
point $-1 -87.886495102999277 -46.241792797940796 -11.893323622137917 #
edge $-1 $386 -46.241792797940796 $432 46.241792797940796 $376 $452 forward 7 unknown #
vertex $-1 $378 $453 #
straight-curve $-1 87.886495102999262 -46.241792797940796 -17.111048144996062 0 0 -1 I I #
point $-1 87.886495102999262 -46.241792797940796 -11.893323622137917 #
point $-1 87.886495102999262 46.241792797940796 -11.893323622137917 #
straight-curve $-1 87.886495102999262 46.241792797940796 -17.111048144996062 0 0 -1 I I #
point $-1 87.886495102999262 46.241792797940796 -22.328772667854206 #
straight-curve $-1 78.367515870234939 -46.241792797940796 -22.328772667854206 -1 0 0 I I #
straight-curve $-1 -15.127811647199479 -46.241792797940796 39.137174285195975 0 0 -1 I I #
point $-1 -15.127811647199479 -46.241792797940796 22.328772667854206 #
straight-curve $-1 -4.3151287875523181 -46.241792797940796 5.3060185597505747 1 0 0 I I #
point $-1 -15.127811647199479 -46.241792797940796 5.3060185597505862 #
point $-1 -8.6302575751046362 -32.567224026321618 8.5959435640706587 #
straight-curve $-1 -2.1327035030097932 46.241792797940796 78.35243899679844 0 0 -1 I I #
point $-1 -2.1327035030097932 46.241792797940796 22.328772667854206 #
straight-curve $-1 -4.3151287875523181 46.241792797940796 5.3060185597505409 -1 0 0 I I #
point $-1 -2.1327035030097932 46.241792797940796 5.3060185597505409 #
point $-1 -8.6302575751046362 32.567224026321611 8.5959435640706552 #
straight-curve $-1 -87.886495102999277 0 -22.328772667854206 0 1 0 I I #
straight-curve $-1 -87.886495102999277 -46.241792797940796 -17.111048144996062 0 0 -1 I I #
point $-1 -87.886495102999277 -46.241792797940796 -22.328772667854206 #
straight-curve $-1 87.886495102999262 0 -22.328772667854206 0 -1 0 I I #
point $-1 87.886495102999262 -46.241792797940796 -22.328772667854206 #
End-of-ACIS-data 