500 0 8 0           
7 Unknown 11 ACIS 5.0 NT 24 Fri Mar 26 02:27:43 1999 
-1 9.9999999999999995e-007 1e-010 
body $-1 $8 $-1 $9 #
body $-1 $10 $-1 $11 #
body $-1 $12 $-1 $13 #
body $-1 $14 $-1 $15 #
body $-1 $16 $-1 $17 #
body $-1 $18 $-1 $19 #
body $-1 $20 $-1 $21 #
body $-1 $22 $-1 $23 #
lump $-1 $-1 $24 $0 #
transform $-1 1 0 0 0 1 0 0 0 1 75.595568712424082 46.518947991781531 22.118469982676409 1 rotate no_reflect no_shear #
lump $-1 $-1 $25 $1 #
transform $-1 1 0 0 0 1 0 0 0 1 75.595568712424082 46.518947991781531 22.118469982676409 1 rotate no_reflect no_shear #
lump $-1 $-1 $26 $2 #
transform $-1 1 0 0 0 1 0 0 0 1 75.595568712424082 46.518947991781531 22.118469982676409 1 rotate no_reflect no_shear #
lump $-1 $-1 $27 $3 #
transform $-1 1 0 0 0 1 0 0 0 1 75.595568712424082 46.518947991781531 22.118469982676409 1 rotate no_reflect no_shear #
lump $-1 $-1 $28 $4 #
transform $-1 1 0 0 0 1 0 0 0 1 75.595568712424082 46.518947991781531 22.118469982676409 1 rotate no_reflect no_shear #
lump $-1 $-1 $29 $5 #
transform $-1 1 0 0 0 1 0 0 0 1 75.595568712424082 46.518947991781531 22.118469982676409 1 rotate no_reflect no_shear #
lump $-1 $-1 $30 $6 #
transform $-1 1 0 0 0 1 0 0 0 1 75.595568712424082 46.518947991781531 22.118469982676409 1 rotate no_reflect no_shear #
lump $-1 $-1 $31 $7 #
transform $-1 1 0 0 0 1 0 0 0 1 75.595568712424082 46.518947991781531 22.118469982676409 1 rotate no_reflect no_shear #
shell $-1 $-1 $-1 $32 $-1 $8 #
shell $-1 $-1 $-1 $33 $-1 $10 #
shell $-1 $-1 $-1 $34 $-1 $12 #
shell $-1 $-1 $-1 $35 $-1 $14 #
shell $-1 $-1 $-1 $36 $-1 $16 #
shell $-1 $-1 $-1 $37 $-1 $18 #
shell $-1 $-1 $-1 $38 $-1 $20 #
shell $-1 $-1 $-1 $39 $-1 $22 #
face $-1 $40 $41 $24 $-1 $42 forward single #
face $-1 $43 $44 $25 $-1 $45 reversed single #
face $-1 $46 $47 $26 $-1 $48 reversed single #
face $-1 $49 $50 $27 $-1 $51 forward single #
face $-1 $52 $53 $28 $-1 $54 forward single #
face $-1 $55 $56 $29 $-1 $57 reversed single #
face $-1 $58 $59 $30 $-1 $60 forward single #
face $-1 $61 $62 $31 $-1 $63 forward single #
face $-1 $64 $65 $24 $-1 $66 reversed single #
loop $-1 $-1 $67 $32 #
plane-surface $-1 0 0 22.118469982676409 0 0 1 1 0 0 forward_v I I I I #
face $-1 $68 $69 $25 $-1 $70 reversed single #
loop $-1 $-1 $71 $33 #
plane-surface $-1 -65.687537745334538 -14.975810572411859 0 0 1 0 0 0 1 forward_v I I I I #
face $-1 $72 $73 $26 $-1 $74 reversed single #
loop $-1 $-1 $75 $34 #
plane-surface $-1 59.86740577750264 -46.518947991781545 8.2344726970889042 0 -0.80901700255871778 0.5877852410284794 1 0 0 forward_v I I I I #
face $-1 $76 $77 $27 $-1 $78 forward single #
loop $-1 $79 $80 $35 #
cone-surface $-1 53.126764519679156 -38.863459980381911 13.278865159207045 0 0.80901700255871778 -0.5877852410284794 2.5 0 0 1 I I 0 1 2.5 forward I I I I #
face $-1 $81 $82 $28 $-1 $83 forward single #
loop $-1 $84 $85 $36 #
cone-surface $-1 66.608047035326123 -38.863459980381911 13.278865159207045 0 0.80901700255871778 -0.5877852410284794 2.5 0 0 1 I I 0 1 2.5 forward I I I I #
face $-1 $86 $87 $29 $-1 $88 reversed single #
loop $-1 $-1 $89 $37 #
plane-surface $-1 59.86740577750264 -8.167354123699667 83.503712430080839 0 0.80901700255871778 0.5877852410284794 1 0 0 forward_v I I I I #
face $-1 $90 $91 $30 $-1 $92 forward single #
loop $-1 $93 $94 $38 #
cone-surface $-1 53.126764519679156 38.863459980381911 13.278865159207031 0 -0.80901700255871778 -0.5877852410284794 2.5 0 0 1 I I 0 1 2.5 forward I I I I #
face $-1 $95 $96 $31 $-1 $97 forward single #
loop $-1 $98 $99 $39 #
cone-surface $-1 66.608047035326123 38.863459980381911 13.278865159207031 0 -0.80901700255871778 -0.5877852410284794 2.5 0 0 1 I I 0 1 2.5 forward I I I I #
face $-1 $100 $101 $24 $-1 $102 reversed single #
loop $-1 $-1 $103 $40 #
plane-surface $-1 0 0 -22.118469982676409 0 0 1 1 0 0 forward_v I I I I #
coedge $-1 $104 $105 $106 $107 forward $41 $-1 #
face $-1 $108 $109 $25 $-1 $110 reversed single #
loop $-1 $-1 $111 $43 #
plane-surface $-1 -65.687537745334538 -2.2820080264287128 0 0 -1 0 0 0 -1 forward_v I I I I #
coedge $-1 $112 $113 $114 $115 reversed $44 $-1 #
face $-1 $116 $117 $26 $-1 $118 reversed single #
loop $-1 $-1 $119 $46 #
plane-surface $-1 44.13924284258119 -168.83514880467538 97.102391849723233 1 0 0 0 0.80901700255871778 -0.5877852410284794 forward_v I I I I #
coedge $-1 $120 $121 $122 $123 reversed $47 $-1 #
face $-1 $-1 $124 $27 $-1 $125 forward single #
loop $-1 $126 $127 $49 #
cone-surface $-1 53.126764519679156 -35.24035781145507 10.646527427245836 0 0.80901700255871778 -0.5877852410284794 1.25 0 0 1 I I -0.70710678118654746 0.70710678118654746 1.25 forward I I I I #
loop $-1 $-1 $128 $35 #
coedge $-1 $80 $80 $129 $130 reversed $50 $-1 #
face $-1 $-1 $131 $28 $-1 $132 forward single #
loop $-1 $133 $134 $52 #
cone-surface $-1 66.608047035326123 -35.24035781145507 10.646527427245836 0 0.80901700255871778 -0.5877852410284794 1.25 0 0 1 I I -0.70710678118654746 0.70710678118654746 1.25 forward I I I I #
loop $-1 $-1 $135 $36 #
coedge $-1 $85 $85 $136 $137 reversed $53 $-1 #
face $-1 $138 $139 $29 $-1 $140 reversed single #
loop $-1 $-1 $141 $55 #
plane-surface $-1 44.13924284258119 114.14884668919417 172.37163158271517 1 0 0 0 -0.80901700255871778 -0.5877852410284794 forward_v I I I I #
coedge $-1 $142 $143 $144 $145 reversed $56 $-1 #
face $-1 $-1 $146 $30 $-1 $147 forward single #
loop $-1 $148 $149 $58 #
cone-surface $-1 53.126764519679156 35.24035781145507 10.646527427245822 0 -0.80901700255871778 -0.5877852410284794 1.25 0 0 1 I I -0.70710678118654746 0.70710678118654746 1.25 forward I I I I #
loop $-1 $-1 $150 $38 #
coedge $-1 $94 $94 $151 $152 reversed $59 $-1 #
face $-1 $-1 $153 $31 $-1 $154 forward single #
loop $-1 $155 $156 $61 #
cone-surface $-1 66.608047035326123 35.24035781145507 10.646527427245822 0 -0.80901700255871778 -0.5877852410284794 1.25 0 0 1 I I -0.70710678118654746 0.70710678118654746 1.25 forward I I I I #
loop $-1 $-1 $157 $39 #
coedge $-1 $99 $99 $158 $159 reversed $62 $-1 #
face $-1 $160 $161 $24 $-1 $162 reversed single #
loop $-1 $-1 $163 $64 #
plane-surface $-1 0 -46.518947991781531 0 0 1 0 0 0 1 forward_v I I I I #
coedge $-1 $164 $165 $166 $167 forward $65 $-1 #
coedge $-1 $168 $67 $169 $170 forward $41 $-1 #
coedge $-1 $67 $168 $171 $172 forward $41 $-1 #
coedge $-1 $173 $174 $67 $107 reversed $175 $-1 #
edge $-1 $176 -46.518947991781531 $177 46.518947991781531 $106 $178 forward 7 unknown #
face $-1 $179 $180 $25 $-1 $181 reversed single #
loop $-1 $-1 $182 $68 #
plane-surface $-1 -55.779506778244993 -8.6289092994202861 0 -1 0 0 0 0 1 forward_v I I I I #
coedge $-1 $183 $184 $185 $186 forward $69 $-1 #
coedge $-1 $187 $71 $188 $189 reversed $44 $-1 #
coedge $-1 $71 $187 $190 $191 reversed $44 $-1 #
coedge $-1 $192 $193 $71 $115 forward $194 $-1 #
edge $-1 $195 -22.118469982676409 $196 22.118469982676409 $114 $197 forward 7 unknown #
face $-1 $198 $199 $26 $-1 $200 forward single #
loop $-1 $-1 $201 $72 #
plane-surface $-1 0 -46.518947991781531 0 0 1 0 0 0 1 forward_v I I I I #
coedge $-1 $202 $203 $204 $205 reversed $73 $-1 #
coedge $-1 $206 $75 $207 $208 reversed $47 $-1 #
coedge $-1 $75 $206 $202 $209 forward $47 $-1 #
coedge $-1 $204 $210 $75 $123 forward $199 $-1 #
edge $-1 $211 -45.661865823672777 $212 -14.20553995382987 $122 $213 forward 7 unknown #
loop $-1 $-1 $129 $76 #
plane-surface $-1 59.86740577750264 -46.518947991781545 8.2344726970889042 0 -0.80901700255871778 0.5877852410284794 1 0 0 forward_v I I I I #
loop $-1 $-1 $214 $49 #
coedge $-1 $127 $127 $128 $215 reversed $77 $-1 #
coedge $-1 $128 $128 $127 $215 forward $79 $-1 #
coedge $-1 $129 $129 $80 $130 forward $124 $-1 #
edge $-1 $216 -6.2877848429888667e-016 $216 6.2831853071795996 $129 $217 forward 7 unknown #
loop $-1 $-1 $136 $81 #
plane-surface $-1 59.86740577750264 -46.518947991781545 8.2344726970889042 0 -0.80901700255871778 0.5877852410284794 1 0 0 forward_v I I I I #
loop $-1 $-1 $218 $52 #
coedge $-1 $134 $134 $135 $219 reversed $82 $-1 #
coedge $-1 $135 $135 $134 $219 forward $84 $-1 #
coedge $-1 $136 $136 $85 $137 forward $131 $-1 #
edge $-1 $220 -6.2877848429888667e-016 $220 6.2831853071795996 $136 $221 forward 7 unknown #
face $-1 $222 $223 $29 $-1 $224 reversed single #
loop $-1 $-1 $225 $86 #
plane-surface $-1 75.595568712424082 0 0 -1 0 0 0 0 1 forward_v I I I I #
coedge $-1 $226 $227 $228 $229 reversed $87 $-1 #
coedge $-1 $230 $89 $225 $231 reversed $56 $-1 #
coedge $-1 $89 $230 $226 $232 forward $56 $-1 #
coedge $-1 $228 $233 $89 $145 forward $223 $-1 #
edge $-1 $234 -45.661865823672763 $235 -14.20553995382987 $144 $236 forward 7 unknown #
loop $-1 $-1 $151 $90 #
plane-surface $-1 59.86740577750264 -8.167354123699667 83.503712430080839 0 0.80901700255871778 0.5877852410284794 1 0 0 forward_v I I I I #
loop $-1 $-1 $237 $58 #
coedge $-1 $149 $149 $150 $238 reversed $91 $-1 #
coedge $-1 $150 $150 $149 $238 forward $93 $-1 #
coedge $-1 $151 $151 $94 $152 forward $146 $-1 #
edge $-1 $239 5.3937330024379316e-017 $239 6.2831853071796004 $151 $240 forward 7 unknown #
loop $-1 $-1 $158 $95 #
plane-surface $-1 59.86740577750264 -8.167354123699667 83.503712430080839 0 0.80901700255871778 0.5877852410284794 1 0 0 forward_v I I I I #
loop $-1 $-1 $241 $61 #
coedge $-1 $156 $156 $157 $242 reversed $96 $-1 #
coedge $-1 $157 $157 $156 $242 forward $98 $-1 #
coedge $-1 $158 $158 $99 $159 forward $153 $-1 #
edge $-1 $243 5.3937330024379316e-017 $243 6.2831853071796004 $158 $244 forward 7 unknown #
face $-1 $245 $246 $24 $-1 $247 reversed single #
loop $-1 $-1 $248 $100 #
plane-surface $-1 -75.595568712424082 0 0 1 0 0 0 0 -1 forward_v I I I I #
coedge $-1 $249 $171 $250 $251 forward $101 $-1 #
coedge $-1 $252 $103 $249 $253 forward $65 $-1 #
coedge $-1 $103 $252 $254 $255 forward $65 $-1 #
coedge $-1 $174 $173 $103 $167 reversed $175 $-1 #
edge $-1 $256 -46.518947991781531 $257 46.518947991781531 $166 $258 forward 7 unknown #
coedge $-1 $105 $104 $259 $260 forward $41 $-1 #
coedge $-1 $261 $262 $104 $170 reversed $246 $-1 #
edge $-1 $177 -75.595568712424082 $263 75.595568712424082 $169 $264 forward 7 unknown #
coedge $-1 $163 $265 $105 $172 reversed $101 $-1 #
edge $-1 $266 -75.595568712424082 $176 75.595568712424082 $171 $267 forward 7 unknown #
coedge $-1 $166 $106 $265 $268 forward $175 $-1 #
coedge $-1 $106 $166 $261 $269 reversed $175 $-1 #
loop $-1 $-1 $173 $245 #
vertex $-1 $107 $270 #
vertex $-1 $107 $271 #
straight-curve $-1 75.595568712424082 0 22.118469982676409 0 1 0 I I #
face $-1 $272 $273 $25 $-1 $274 forward single #
loop $-1 $-1 $275 $108 #
plane-surface $-1 0 0 -22.118469982676409 0 0 1 1 0 0 forward_v I I I I #
coedge $-1 $276 $277 $187 $278 forward $109 $-1 #
coedge $-1 $279 $111 $275 $280 reversed $69 $-1 #
coedge $-1 $111 $279 $281 $282 reversed $69 $-1 #
coedge $-1 $277 $276 $111 $186 reversed $109 $-1 #
edge $-1 $283 -22.118469982676409 $284 22.118469982676409 $185 $285 forward 7 unknown #
coedge $-1 $113 $112 $182 $278 reversed $44 $-1 #
coedge $-1 $286 $287 $112 $189 forward $180 $-1 #
edge $-1 $288 22.935737905577724 $195 42.751799839756814 $188 $289 forward 7 unknown #
coedge $-1 $290 $291 $113 $191 forward $273 $-1 #
edge $-1 $196 -42.751799839756814 $292 -22.935737905577724 $190 $293 forward 7 unknown #
coedge $-1 $294 $114 $291 $295 reversed $194 $-1 #
coedge $-1 $114 $294 $286 $296 reversed $194 $-1 #
loop $-1 $-1 $294 $272 #
vertex $-1 $296 $297 #
vertex $-1 $115 $298 #
straight-curve $-1 -75.595568712424082 -14.975810572411859 0 0 0 1 I I #
face $-1 $-1 $299 $26 $-1 $300 reversed single #
loop $-1 $-1 $204 $116 #
plane-surface $-1 0 0 22.118469982676409 0 0 1 1 0 0 forward_v I I I I #
coedge $-1 $301 $302 $203 $303 forward $117 $-1 #
coedge $-1 $203 $119 $121 $209 reversed $73 $-1 #
coedge $-1 $119 $202 $201 $303 reversed $73 $-1 #
coedge $-1 $304 $122 $119 $205 forward $199 $-1 #
edge $-1 $212 -47.985940601898498 $305 -37.898626410556162 $204 $306 forward 7 unknown #
coedge $-1 $121 $120 $301 $307 reversed $47 $-1 #
coedge $-1 $308 $309 $120 $208 forward $299 $-1 #
edge $-1 $310 -10.340661319345049 $211 6.8209029514624682 $207 $311 forward 7 unknown #
edge $-1 $312 2.4161062406544664e-014 $212 17.161564270807542 $202 $313 forward 7 unknown #
coedge $-1 $122 $304 $308 $314 forward $199 $-1 #
vertex $-1 $208 $315 #
vertex $-1 $123 $316 #
straight-curve $-1 29.93370288875132 -36.431633800439194 22.118469982676409 -1 0 0 I I #
coedge $-1 $214 $214 $-1 $317 reversed $126 $-1 #
edge $-1 $318 0 $318 6.2831853071796004 $127 $319 forward 7 unknown #
vertex $-1 $130 $320 #
ellipse-curve $-1 53.126764519679156 -41.475290896110366 15.176471339882662 0 -0.80901700255871778 0.5877852410284794 2.5 0 0 1 I I #
coedge $-1 $218 $218 $-1 $321 reversed $133 $-1 #
edge $-1 $322 0 $322 6.2831853071796004 $134 $323 forward 7 unknown #
vertex $-1 $137 $324 #
ellipse-curve $-1 66.608047035326123 -41.475290896110366 15.176471339882662 0 -0.80901700255871778 0.5877852410284794 2.5 0 0 1 I I #
face $-1 $-1 $325 $29 $-1 $326 forward single #
loop $-1 $-1 $144 $138 #
plane-surface $-1 0 46.518947991781531 0 0 -1 0 0 0 -1 forward_v I I I I #
coedge $-1 $327 $328 $142 $231 forward $139 $-1 #
coedge $-1 $227 $141 $143 $232 reversed $87 $-1 #
coedge $-1 $141 $226 $329 $330 reversed $87 $-1 #
coedge $-1 $331 $144 $141 $229 forward $223 $-1 #
edge $-1 $235 -77.951343094268694 $332 -64.067345808681182 $228 $333 forward 7 unknown #
coedge $-1 $143 $142 $334 $335 reversed $56 $-1 #
edge $-1 $336 39.698045040319037 $234 56.85960931112659 $225 $337 forward 7 unknown #
edge $-1 $338 75.876331712755487 $235 93.037895983563047 $226 $339 forward 7 unknown #
coedge $-1 $144 $331 $327 $340 forward $223 $-1 #
vertex $-1 $145 $341 #
vertex $-1 $145 $342 #
straight-curve $-1 29.93370288875132 46.518947991781531 8.2344726970888971 -1 0 0 I I #
coedge $-1 $237 $237 $-1 $343 reversed $148 $-1 #
edge $-1 $344 0 $344 6.2831853071796004 $149 $345 forward 7 unknown #
vertex $-1 $152 $346 #
ellipse-curve $-1 53.126764519679156 41.475290896110366 15.176471339882646 0 0.80901700255871778 0.5877852410284794 2.5 0 0 1 I I #
coedge $-1 $241 $241 $-1 $347 reversed $155 $-1 #
edge $-1 $348 0 $348 6.2831853071796004 $156 $349 forward 7 unknown #
vertex $-1 $159 $350 #
ellipse-curve $-1 66.608047035326123 41.475290896110366 15.176471339882646 0 0.80901700255871778 0.5877852410284794 2.5 0 0 1 I I #
face $-1 $-1 $175 $24 $-1 $351 reversed single #
loop $-1 $-1 $261 $160 #
plane-surface $-1 0 46.518947991781531 0 0 -1 0 0 0 -1 forward_v I I I I #
coedge $-1 $352 $259 $262 $353 forward $161 $-1 #
coedge $-1 $265 $163 $164 $253 reversed $101 $-1 #
coedge $-1 $259 $352 $163 $251 reversed $161 $-1 #
edge $-1 $266 -22.118469982676409 $354 22.118469982676409 $250 $355 forward 7 unknown #
coedge $-1 $165 $164 $352 $356 forward $65 $-1 #
edge $-1 $257 -75.595568712424082 $354 75.595568712424082 $249 $357 forward 7 unknown #
coedge $-1 $262 $261 $165 $255 reversed $246 $-1 #
edge $-1 $358 -75.595568712424082 $256 75.595568712424082 $254 $359 forward 7 unknown #
vertex $-1 $167 $360 #
vertex $-1 $268 $361 #
straight-curve $-1 75.595568712424082 0 -22.118469982676409 0 -1 0 I I #
coedge $-1 $248 $250 $168 $260 reversed $161 $-1 #
edge $-1 $263 -46.518947991781531 $266 46.518947991781531 $259 $362 forward 7 unknown #
coedge $-1 $254 $169 $174 $269 forward $246 $-1 #
coedge $-1 $169 $254 $248 $353 reversed $246 $-1 #
vertex $-1 $170 $363 #
straight-curve $-1 0 46.518947991781531 22.118469982676409 -1 0 0 I I #
coedge $-1 $171 $249 $173 $268 reversed $101 $-1 #
vertex $-1 $260 $364 #
straight-curve $-1 0 -46.518947991781531 22.118469982676409 1 0 0 I I #
edge $-1 $176 -22.118469982676409 $257 22.118469982676409 $173 $365 forward 7 unknown #
edge $-1 $177 -22.118469982676409 $256 22.118469982676409 $174 $366 forward 7 unknown #
point $-1 75.595568712424082 -46.518947991781531 22.118469982676409 #
point $-1 75.595568712424082 46.518947991781531 22.118469982676409 #
face $-1 $-1 $194 $25 $-1 $367 reversed single #
loop $-1 $-1 $281 $179 #
plane-surface $-1 0 0 22.118469982676409 0 0 1 1 0 0 forward_v I I I I #
coedge $-1 $287 $286 $183 $280 forward $180 $-1 #
coedge $-1 $185 $182 $287 $368 reversed $109 $-1 #
coedge $-1 $182 $185 $290 $369 reversed $109 $-1 #
edge $-1 $292 -22.118469982676409 $288 22.118469982676409 $182 $370 forward 7 unknown #
coedge $-1 $184 $183 $294 $371 reversed $69 $-1 #
edge $-1 $372 -42.751799839756814 $284 -22.935737905577724 $275 $373 forward 7 unknown #
coedge $-1 $291 $290 $184 $282 forward $273 $-1 #
edge $-1 $283 22.935737905577724 $374 42.751799839756814 $281 $375 forward 7 unknown #
vertex $-1 $282 $376 #
vertex $-1 $280 $377 #
straight-curve $-1 -55.779506778244993 -2.2820080264287128 0 0 0 -1 I I #
coedge $-1 $275 $188 $193 $296 forward $180 $-1 #
coedge $-1 $188 $275 $276 $368 forward $180 $-1 #
vertex $-1 $189 $378 #
straight-curve $-1 -32.843768872667269 -14.975810572411859 -22.118469982676409 -1 0 0 I I #
coedge $-1 $281 $190 $277 $369 forward $273 $-1 #
coedge $-1 $190 $281 $192 $295 forward $273 $-1 #
vertex $-1 $191 $379 #
straight-curve $-1 -32.843768872667269 -14.975810572411859 22.118469982676409 1 0 0 I I #
coedge $-1 $193 $192 $279 $371 forward $194 $-1 #
edge $-1 $374 2.2820080264287128 $196 14.975810572411859 $192 $380 forward 7 unknown #
edge $-1 $195 -14.975810572411859 $372 -2.2820080264287128 $193 $381 forward 7 unknown #
point $-1 -75.595568712424082 -14.975810572411859 -22.118469982676409 #
point $-1 -75.595568712424082 -14.975810572411859 22.118469982676409 #
loop $-1 $-1 $207 $198 #
plane-surface $-1 75.595568712424082 0 0 -1 0 0 0 0 1 forward_v I I I I #
coedge $-1 $382 $201 $206 $307 forward $117 $-1 #
coedge $-1 $201 $382 $304 $383 reversed $117 $-1 #
edge $-1 $305 26.432725942185208 $312 40.316723227772691 $201 $384 forward 7 unknown #
coedge $-1 $210 $204 $302 $383 forward $199 $-1 #
vertex $-1 $383 $385 #
straight-curve $-1 44.13924284258119 -84.417574402337692 22.118469982676409 0 -1 0 I I #
edge $-1 $312 14.20553995382987 $310 45.661865823672777 $301 $386 forward 7 unknown #
coedge $-1 $309 $207 $210 $314 reversed $299 $-1 #
coedge $-1 $207 $308 $382 $387 forward $299 $-1 #
vertex $-1 $307 $388 #
straight-curve $-1 75.595568712424082 -40.440859885796428 16.600243522140332 0 0.5877852410284794 0.80901700255871778 I I #
vertex $-1 $307 $389 #
straight-curve $-1 44.13924284258119 -46.518947991781545 8.2344726970889042 0 0.5877852410284794 0.80901700255871778 I I #
edge $-1 $390 -46.518947991781531 $211 -36.431633800439194 $308 $391 forward 7 unknown #
point $-1 75.595568712424097 -36.431633800439194 22.118469982676409 #
point $-1 44.13924284258119 -36.431633800439194 22.118469982676409 #
edge $-1 $392 1 $392 0 $214 $-1 forward 7 unknown #
vertex $-1 $215 $393 #
ellipse-curve $-1 53.126764519679156 -36.251629064653464 11.381258978531434 0 -0.80901700255871778 0.5877852410284794 2.5 0 0 1 I I #
point $-1 55.626764519679156 -41.475290896110359 15.176471339882655 #
edge $-1 $394 1 $394 0 $218 $-1 forward 7 unknown #
vertex $-1 $219 $395 #
ellipse-curve $-1 66.608047035326123 -36.251629064653464 11.381258978531434 0 -0.80901700255871778 0.5877852410284794 2.5 0 0 1 I I #
point $-1 69.108047035326123 -41.475290896110359 15.176471339882655 #
loop $-1 $-1 $334 $222 #
plane-surface $-1 0 0 22.118469982676409 0 0 1 1 0 0 forward_v I I I I #
coedge $-1 $328 $225 $233 $340 reversed $139 $-1 #
coedge $-1 $225 $327 $396 $397 reversed $139 $-1 #
coedge $-1 $334 $398 $227 $330 forward $325 $-1 #
edge $-1 $332 10.555475352815556 $338 20.642789544157914 $329 $399 forward 7 unknown #
coedge $-1 $233 $228 $398 $400 reversed $223 $-1 #
vertex $-1 $229 $401 #
straight-curve $-1 44.13924284258119 46.518947991781531 86.185815791357584 0 0 1 I I #
coedge $-1 $396 $329 $230 $335 forward $325 $-1 #
edge $-1 $338 14.20553995382987 $336 45.661865823672777 $334 $402 forward 7 unknown #
vertex $-1 $397 $403 #
straight-curve $-1 75.595568712424082 13.097708828055818 54.234863388636299 0 0.5877852410284794 -0.80901700255871778 I I #
vertex $-1 $335 $404 #
straight-curve $-1 44.13924284258119 -8.167354123699667 83.503712430080839 0 0.5877852410284794 -0.80901700255871778 I I #
edge $-1 $405 -22.118469982676409 $234 -8.2344726970889006 $327 $406 forward 7 unknown #
point $-1 75.595568712424082 46.518947991781531 8.2344726970889006 #
point $-1 44.13924284258119 46.518947991781531 8.23447269708889 #
edge $-1 $407 1 $407 0 $237 $-1 forward 7 unknown #
vertex $-1 $238 $408 #
ellipse-curve $-1 53.126764519679156 36.251629064653464 11.38125897853142 0 0.80901700255871778 0.5877852410284794 2.5 0 0 1 I I #
point $-1 55.626764519679156 41.475290896110359 15.176471339882641 #
edge $-1 $409 1 $409 0 $241 $-1 forward 7 unknown #
vertex $-1 $242 $410 #
ellipse-curve $-1 66.608047035326123 36.251629064653464 11.38125897853142 0 0.80901700255871778 0.5877852410284794 2.5 0 0 1 I I #
point $-1 69.108047035326123 41.475290896110359 15.176471339882641 #
plane-surface $-1 75.595568712424082 0 0 -1 0 0 0 0 1 forward_v I I I I #
coedge $-1 $250 $248 $252 $356 reversed $161 $-1 #
edge $-1 $263 -22.118469982676409 $358 22.118469982676409 $262 $411 forward 7 unknown #
vertex $-1 $356 $412 #
straight-curve $-1 -75.595568712424082 -46.518947991781531 0 0 0 -1 I I #
edge $-1 $354 -46.518947991781531 $358 46.518947991781531 $352 $413 forward 7 unknown #
straight-curve $-1 0 -46.518947991781531 -22.118469982676409 -1 0 0 I I #
vertex $-1 $255 $414 #
straight-curve $-1 0 46.518947991781531 -22.118469982676409 1 0 0 I I #
point $-1 75.595568712424082 46.518947991781531 -22.118469982676409 #
point $-1 75.595568712424082 -46.518947991781531 -22.118469982676409 #
straight-curve $-1 -75.595568712424082 0 22.118469982676409 0 -1 0 I I #
point $-1 -75.595568712424082 46.518947991781531 22.118469982676409 #
point $-1 -75.595568712424082 -46.518947991781531 22.118469982676409 #
straight-curve $-1 75.595568712424082 -46.518947991781531 0 0 0 -1 I I #
straight-curve $-1 75.595568712424082 46.518947991781531 0 0 0 -1 I I #
plane-surface $-1 -75.595568712424082 0 0 1 0 0 0 0 -1 forward_v I I I I #
edge $-1 $284 -2.0324466232814302 $288 10.661355922701716 $287 $415 forward 7 unknown #
edge $-1 $292 -10.661355922701716 $283 2.0324466232814302 $290 $416 forward 7 unknown #
straight-curve $-1 -55.779506778244993 -14.975810572411859 0 0 0 -1 I I #
edge $-1 $374 -22.118469982676409 $372 22.118469982676409 $294 $417 forward 7 unknown #
vertex $-1 $371 $418 #
straight-curve $-1 -32.843768872667269 -2.2820080264287128 -22.118469982676409 1 0 0 I I #
vertex $-1 $295 $419 #
straight-curve $-1 -32.843768872667269 -2.2820080264287128 22.118469982676409 -1 0 0 I I #
point $-1 -55.779506778244993 -2.2820080264287128 22.118469982676409 #
point $-1 -55.779506778244993 -2.2820080264287128 -22.118469982676409 #
point $-1 -55.779506778244993 -14.975810572411859 -22.118469982676409 #
point $-1 -55.779506778244993 -14.975810572411859 22.118469982676409 #
straight-curve $-1 -75.595568712424082 0 22.118469982676409 0 -1 0 I I #
straight-curve $-1 -75.595568712424082 0 -22.118469982676409 0 1 0 I I #
coedge $-1 $302 $301 $309 $387 reversed $117 $-1 #
edge $-1 $305 44.13924284258119 $390 75.595568712424082 $302 $420 forward 7 unknown #
straight-curve $-1 44.13924284258119 -46.518947991781531 48.551195924861617 0 0 -1 I I #
point $-1 44.13924284258119 -46.518947991781531 22.118469982676409 #
straight-curve $-1 29.93370288875132 -46.518947991781531 8.2344726970889273 1 0 0 I I #
edge $-1 $390 -22.118469982676409 $310 -8.2344726970889237 $309 $421 forward 7 unknown #
point $-1 75.595568712424097 -46.518947991781531 8.2344726970889237 #
point $-1 44.13924284258119 -46.518947991781531 8.2344726970889237 #
vertex $-1 $314 $422 #
straight-curve $-1 75.595568712424082 0 22.118469982676409 0 1 0 I I #
vertex $-1 $317 $423 #
point $-1 55.626764519679156 -36.251629064653464 11.381258978531434 #
vertex $-1 $321 $424 #
point $-1 69.108047035326123 -36.251629064653464 11.381258978531434 #
coedge $-1 $398 $334 $328 $397 forward $325 $-1 #
edge $-1 $336 36.431633800439172 $405 46.518947991781531 $328 $425 forward 7 unknown #
coedge $-1 $329 $396 $331 $400 forward $325 $-1 #
straight-curve $-1 44.13924284258119 57.074423344597086 22.118469982676402 0 -1 0 I I #
edge $-1 $405 -75.595568712424082 $332 -44.13924284258119 $331 $426 forward 7 unknown #
point $-1 44.13924284258119 46.518947991781531 22.118469982676409 #
straight-curve $-1 29.93370288875132 36.431633800439172 22.118469982676416 1 0 0 I I #
point $-1 75.595568712424097 36.431633800439172 22.118469982676416 #
point $-1 44.13924284258119 36.431633800439172 22.118469982676416 #
vertex $-1 $397 $427 #
straight-curve $-1 75.595568712424082 46.518947991781531 0 0 0 -1 I I #
vertex $-1 $343 $428 #
point $-1 55.626764519679156 36.251629064653464 11.38125897853142 #
vertex $-1 $347 $429 #
point $-1 69.108047035326123 36.251629064653464 11.38125897853142 #
straight-curve $-1 -75.595568712424082 46.518947991781531 0 0 0 -1 I I #
point $-1 -75.595568712424082 -46.518947991781531 -22.118469982676409 #
straight-curve $-1 -75.595568712424082 0 -22.118469982676409 0 1 0 I I #
point $-1 -75.595568712424082 46.518947991781531 -22.118469982676409 #
straight-curve $-1 -55.779506778244993 -4.314454649710143 -22.118469982676409 0 -1 0 I I #
straight-curve $-1 -55.779506778244993 -4.314454649710143 22.118469982676409 0 1 0 I I #
straight-curve $-1 -75.595568712424082 -2.2820080264287128 0 0 0 -1 I I #
point $-1 -75.595568712424082 -2.2820080264287128 -22.118469982676409 #
point $-1 -75.595568712424082 -2.2820080264287128 22.118469982676409 #
straight-curve $-1 0 -46.518947991781531 22.118469982676409 1 0 0 I I #
straight-curve $-1 75.595568712424082 -46.518947991781531 0 0 0 -1 I I #
point $-1 75.595568712424082 -46.518947991781531 22.118469982676409 #
point $-1 53.126764519679156 -34.229086558256675 9.9117958759602374 #
point $-1 66.608047035326123 -34.229086558256675 9.9117958759602374 #
straight-curve $-1 75.595568712424082 0 22.118469982676409 0 1 0 I I #
straight-curve $-1 0 46.518947991781531 22.118469982676409 -1 0 0 I I #
point $-1 75.595568712424082 46.518947991781531 22.118469982676409 #
point $-1 53.126764519679156 34.229086558256675 9.9117958759602232 #
point $-1 66.608047035326123 34.229086558256675 9.9117958759602232 #
End-of-ACIS-data 