500 0 15 0           
7 Unknown 11 ACIS 5.0 NT 24 Fri Mar 26 01:49:26 1999 
-1 9.9999999999999995e-007 1e-010 
body $-1 $15 $-1 $16 #
body $-1 $17 $-1 $18 #
body $-1 $19 $-1 $20 #
body $-1 $21 $-1 $22 #
body $-1 $23 $-1 $24 #
body $-1 $25 $-1 $26 #
body $-1 $27 $-1 $28 #
body $-1 $29 $-1 $30 #
body $-1 $31 $-1 $32 #
body $-1 $33 $-1 $34 #
body $-1 $35 $-1 $36 #
body $-1 $37 $-1 $38 #
body $-1 $39 $-1 $40 #
body $-1 $41 $-1 $42 #
body $-1 $43 $-1 $44 #
lump $-1 $-1 $45 $0 #
transform $-1 1 0 0 0 1 0 0 0 1 74.324777977843567 39.902472969671784 12.973083438841135 1 rotate no_reflect no_shear #
lump $-1 $-1 $46 $1 #
transform $-1 1 0 0 0 1 0 0 0 1 74.324777977843567 39.902472969671784 12.973083438841135 1 rotate no_reflect no_shear #
lump $-1 $-1 $47 $2 #
transform $-1 1 0 0 0 1 0 0 0 1 74.324777977843567 39.902472969671784 12.973083438841135 1 rotate no_reflect no_shear #
lump $-1 $-1 $48 $3 #
transform $-1 1 0 0 0 1 0 0 0 1 74.324777977843567 39.902472969671784 12.973083438841135 1 rotate no_reflect no_shear #
lump $-1 $-1 $49 $4 #
transform $-1 1 0 0 0 1 0 0 0 1 74.324777977843567 39.902472969671784 12.973083438841135 1 rotate no_reflect no_shear #
lump $-1 $-1 $50 $5 #
transform $-1 1 0 0 0 1 0 0 0 1 74.324777977843567 39.902472969671784 12.973083438841135 1 rotate no_reflect no_shear #
lump $-1 $-1 $51 $6 #
transform $-1 1 0 0 0 1 0 0 0 1 74.324777977843567 39.902472969671784 12.973083438841135 1 rotate no_reflect no_shear #
lump $-1 $-1 $52 $7 #
transform $-1 1 0 0 0 1 0 0 0 1 74.324777977843567 39.902472969671784 12.973083438841135 1 rotate no_reflect no_shear #
lump $-1 $-1 $53 $8 #
transform $-1 1 0 0 0 1 0 0 0 1 74.324777977843567 39.902472969671784 12.973083438841135 1 rotate no_reflect no_shear #
lump $-1 $-1 $54 $9 #
transform $-1 1 0 0 0 1 0 0 0 1 74.324777977843567 39.902472969671784 12.973083438841135 1 rotate no_reflect no_shear #
lump $-1 $-1 $55 $10 #
transform $-1 1 0 0 0 1 0 0 0 1 74.324777977843567 39.902472969671784 12.973083438841135 1 rotate no_reflect no_shear #
lump $-1 $-1 $56 $11 #
transform $-1 1 0 0 0 1 0 0 0 1 74.324777977843567 39.902472969671784 12.973083438841135 1 rotate no_reflect no_shear #
lump $-1 $-1 $57 $12 #
transform $-1 1 0 0 0 1 0 0 0 1 74.324777977843567 39.902472969671784 12.973083438841135 1 rotate no_reflect no_shear #
lump $-1 $-1 $58 $13 #
transform $-1 1 0 0 0 1 0 0 0 1 74.324777977843567 39.902472969671784 12.973083438841135 1 rotate no_reflect no_shear #
lump $-1 $-1 $59 $14 #
transform $-1 1 0 0 0 1 0 0 0 1 74.324777977843567 39.902472969671784 12.973083438841135 1 rotate no_reflect no_shear #
shell $-1 $-1 $-1 $60 $-1 $15 #
shell $-1 $-1 $-1 $61 $-1 $17 #
shell $-1 $-1 $-1 $62 $-1 $19 #
shell $-1 $-1 $-1 $63 $-1 $21 #
shell $-1 $-1 $-1 $64 $-1 $23 #
shell $-1 $-1 $-1 $65 $-1 $25 #
shell $-1 $-1 $-1 $66 $-1 $27 #
shell $-1 $-1 $-1 $67 $-1 $29 #
shell $-1 $-1 $-1 $68 $-1 $31 #
shell $-1 $-1 $-1 $69 $-1 $33 #
shell $-1 $-1 $-1 $70 $-1 $35 #
shell $-1 $-1 $-1 $71 $-1 $37 #
shell $-1 $-1 $-1 $72 $-1 $39 #
shell $-1 $-1 $-1 $73 $-1 $41 #
shell $-1 $-1 $-1 $74 $-1 $43 #
face $-1 $75 $76 $45 $-1 $77 forward single #
face $-1 $78 $79 $46 $-1 $80 forward single #
face $-1 $81 $82 $47 $-1 $83 forward single #
face $-1 $84 $85 $48 $-1 $86 reversed single #
face $-1 $87 $88 $49 $-1 $89 forward single #
face $-1 $90 $91 $50 $-1 $92 forward single #
face $-1 $93 $94 $51 $-1 $95 forward single #
face $-1 $96 $97 $52 $-1 $98 reversed single #
face $-1 $99 $100 $53 $-1 $101 forward single #
face $-1 $102 $103 $54 $-1 $104 forward single #
face $-1 $105 $106 $55 $-1 $107 forward single #
face $-1 $108 $109 $56 $-1 $110 reversed single #
face $-1 $111 $112 $57 $-1 $113 forward single #
face $-1 $114 $115 $58 $-1 $116 forward single #
face $-1 $117 $118 $59 $-1 $119 forward single #
face $-1 $120 $121 $45 $-1 $122 reversed single #
loop $-1 $-1 $123 $60 #
plane-surface $-1 0 0 12.973083438841135 0 0 1 1 0 0 forward_v I I I I #
face $-1 $124 $125 $46 $-1 $126 reversed single #
loop $-1 $-1 $127 $61 #
plane-surface $-1 -74.324777977843567 0 0 1 0 0 0 0 -1 forward_v I I I I #
face $-1 $128 $129 $47 $-1 $130 forward single #
loop $-1 $-1 $131 $62 #
plane-surface $-1 74.324777977843567 0 0 -1 0 0 0 0 1 forward_v I I I I #
face $-1 $132 $133 $48 $-1 $134 reversed single #
loop $-1 $-1 $135 $63 #
plane-surface $-1 43.388940364917786 -163.13854120076132 87.338298358050807 -1 0 0 0 -0.82903758062907751 0.55919289150049634 forward_v I I I I #
face $-1 $136 $137 $49 $-1 $138 forward single #
loop $-1 $139 $140 $64 #
cone-surface $-1 28.107263176104198 -35.930246473454552 7.9069076151669453 0 0.82903758062907751 -0.55919289150049634 1 0 0 1 I I 0 1 1 forward I I I I #
face $-1 $141 $142 $50 $-1 $143 forward single #
loop $-1 $144 $145 $65 #
cone-surface $-1 33.837892121909292 -35.930246473454552 7.9069076151669453 0 0.82903758062907751 -0.55919289150049634 1 0 0 1 I I 0 1 1 forward I I I I #
face $-1 $146 $147 $51 $-1 $148 forward single #
loop $-1 $149 $150 $66 #
cone-surface $-1 39.568521067714386 -35.930246473454552 7.9069076151669453 0 0.82903758062907751 -0.55919289150049634 1 0 0 1 I I 0 1 1 forward I I I I #
face $-1 $151 $152 $52 $-1 $153 reversed single #
loop $-1 $-1 $154 $67 #
plane-surface $-1 -38.125891173179028 107.90709289648473 156.94213492061053 1 0 0 0 -0.78801076186113728 -0.61566146476048833 forward_v I I I I #
face $-1 $155 $156 $53 $-1 $157 forward single #
loop $-1 $158 $159 $68 #
cone-surface $-1 -33.288969234680494 33.940548176433289 6.2822400685040005 0 -0.78801076186113728 -0.61566146476048833 1.5 0 0 1 I I 0 1 1.5 forward I I I I #
face $-1 $160 $161 $54 $-1 $162 forward single #
loop $-1 $163 $164 $69 #
cone-surface $-1 -26.033586326932692 33.940548176433289 6.2822400685040005 0 -0.78801076186113728 -0.61566146476048833 1.5 0 0 1 I I 0 1 1.5 forward I I I I #
face $-1 $165 $166 $55 $-1 $167 forward single #
loop $-1 $168 $169 $70 #
cone-surface $-1 -18.778203419184891 33.940548176433289 6.2822400685040005 0 -0.78801076186113728 -0.61566146476048833 1.5 0 0 1 I I 0 1 1.5 forward I I I I #
face $-1 $170 $171 $56 $-1 $172 reversed single #
loop $-1 $-1 $173 $71 #
plane-surface $-1 13.941281480686335 107.90709289648473 156.94213492061053 1 0 0 0 -0.78801076186113728 -0.61566146476048833 forward_v I I I I #
face $-1 $174 $175 $57 $-1 $176 forward single #
loop $-1 $177 $178 $72 #
cone-surface $-1 18.778203419184877 33.940548176433289 6.2822400685040005 0 -0.78801076186113728 -0.61566146476048833 1.5 0 0 1 I I 0 1 1.5 forward I I I I #
face $-1 $179 $180 $58 $-1 $181 forward single #
loop $-1 $182 $183 $73 #
cone-surface $-1 26.033586326932678 33.940548176433289 6.2822400685040005 0 -0.78801076186113728 -0.61566146476048833 1.5 0 0 1 I I 0 1 1.5 forward I I I I #
face $-1 $184 $185 $59 $-1 $186 forward single #
loop $-1 $187 $188 $74 #
cone-surface $-1 33.288969234680479 33.940548176433289 6.2822400685040005 0 -0.78801076186113728 -0.61566146476048833 1.5 0 0 1 I I 0 1 1.5 forward I I I I #
face $-1 $189 $190 $45 $-1 $191 reversed single #
loop $-1 $-1 $192 $75 #
plane-surface $-1 0 0 -12.973083438841135 0 0 1 1 0 0 forward_v I I I I #
coedge $-1 $193 $194 $195 $196 forward $76 $-1 #
face $-1 $197 $198 $46 $-1 $199 reversed single #
loop $-1 $-1 $200 $78 #
plane-surface $-1 0 39.902472969671784 0 0 -1 0 0 0 -1 forward_v I I I I #
coedge $-1 $201 $202 $203 $204 forward $79 $-1 #
face $-1 $205 $206 $47 $-1 $207 reversed single #
loop $-1 $-1 $208 $81 #
plane-surface $-1 0 0 12.973083438841135 0 0 1 1 0 0 forward_v I I I I #
coedge $-1 $209 $210 $211 $212 forward $82 $-1 #
face $-1 $213 $214 $48 $-1 $215 reversed single #
loop $-1 $-1 $216 $84 #
plane-surface $-1 33.837892121909292 -39.902472969671777 4.2145233429252897 0 -0.82903758062907751 0.55919289150049634 1 0 0 forward_v I I I I #
coedge $-1 $217 $218 $219 $220 reversed $85 $-1 #
face $-1 $-1 $221 $49 $-1 $222 forward single #
loop $-1 $223 $224 $87 #
cone-surface $-1 28.107263176104198 -34.497362784909463 6.9404153937004285 0 0.82903758062907751 -0.55919289150049634 0.5 0 0 1 I I -0.70710678118654746 0.70710678118654746 0.5 forward I I I I #
loop $-1 $-1 $225 $64 #
coedge $-1 $140 $140 $226 $227 reversed $88 $-1 #
face $-1 $-1 $228 $50 $-1 $229 forward single #
loop $-1 $230 $231 $90 #
cone-surface $-1 33.837892121909292 -34.497362784909463 6.9404153937004285 0 0.82903758062907751 -0.55919289150049634 0.5 0 0 1 I I -0.70710678118654746 0.70710678118654746 0.5 forward I I I I #
loop $-1 $-1 $232 $65 #
coedge $-1 $145 $145 $233 $234 reversed $91 $-1 #
face $-1 $-1 $235 $51 $-1 $236 forward single #
loop $-1 $237 $238 $93 #
cone-surface $-1 39.568521067714386 -34.497362784909463 6.9404153937004285 0 0.82903758062907751 -0.55919289150049634 0.5 0 0 1 I I -0.70710678118654746 0.70710678118654746 0.5 forward I I I I #
loop $-1 $-1 $239 $66 #
coedge $-1 $150 $150 $240 $241 reversed $94 $-1 #
face $-1 $242 $243 $52 $-1 $244 reversed single #
loop $-1 $-1 $245 $96 #
plane-surface $-1 -26.033586326932685 -9.2303569424760497 65.424331564936011 0 0.78801076186113728 0.61566146476048833 1 0 0 forward_v I I I I #
coedge $-1 $246 $247 $248 $249 reversed $97 $-1 #
face $-1 $-1 $250 $53 $-1 $251 forward single #
loop $-1 $252 $253 $99 #
cone-surface $-1 -33.288969234680494 31.464327707492167 4.3476046615235493 0 -0.78801076186113728 -0.61566146476048833 0.75 0 0 1 I I -0.70710678118654757 0.70710678118654757 0.75 forward I I I I #
loop $-1 $-1 $254 $68 #
coedge $-1 $159 $159 $255 $256 reversed $100 $-1 #
face $-1 $-1 $257 $54 $-1 $258 forward single #
loop $-1 $259 $260 $102 #
cone-surface $-1 -26.033586326932692 31.464327707492167 4.3476046615235493 0 -0.78801076186113728 -0.61566146476048833 0.75 0 0 1 I I -0.70710678118654757 0.70710678118654757 0.75 forward I I I I #
loop $-1 $-1 $261 $69 #
coedge $-1 $164 $164 $262 $263 reversed $103 $-1 #
face $-1 $-1 $264 $55 $-1 $265 forward single #
loop $-1 $266 $267 $105 #
cone-surface $-1 -18.778203419184891 31.464327707492167 4.3476046615235493 0 -0.78801076186113728 -0.61566146476048833 0.75 0 0 1 I I -0.70710678118654757 0.70710678118654757 0.75 forward I I I I #
loop $-1 $-1 $268 $70 #
coedge $-1 $169 $169 $269 $270 reversed $106 $-1 #
face $-1 $271 $272 $56 $-1 $273 reversed single #
loop $-1 $-1 $274 $108 #
plane-surface $-1 26.033586326932678 -9.2303569424760497 65.424331564936011 0 0.78801076186113728 0.61566146476048833 1 0 0 forward_v I I I I #
coedge $-1 $275 $276 $277 $278 reversed $109 $-1 #
face $-1 $-1 $279 $57 $-1 $280 forward single #
loop $-1 $281 $282 $111 #
cone-surface $-1 18.778203419184877 31.464327707492167 4.3476046615235493 0 -0.78801076186113728 -0.61566146476048833 0.75 0 0 1 I I -0.70710678118654757 0.70710678118654757 0.75 forward I I I I #
loop $-1 $-1 $283 $72 #
coedge $-1 $178 $178 $284 $285 reversed $112 $-1 #
face $-1 $-1 $286 $58 $-1 $287 forward single #
loop $-1 $288 $289 $114 #
cone-surface $-1 26.033586326932678 31.464327707492167 4.3476046615235493 0 -0.78801076186113728 -0.61566146476048833 0.75 0 0 1 I I -0.70710678118654757 0.70710678118654757 0.75 forward I I I I #
loop $-1 $-1 $290 $73 #
coedge $-1 $183 $183 $291 $292 reversed $115 $-1 #
face $-1 $-1 $293 $59 $-1 $294 forward single #
loop $-1 $295 $296 $117 #
cone-surface $-1 33.288969234680479 31.464327707492167 4.3476046615235493 0 -0.78801076186113728 -0.61566146476048833 0.75 0 0 1 I I -0.70710678118654757 0.70710678118654757 0.75 forward I I I I #
loop $-1 $-1 $297 $74 #
coedge $-1 $188 $188 $298 $299 reversed $118 $-1 #
face $-1 $300 $301 $45 $-1 $302 reversed single #
loop $-1 $-1 $303 $120 #
plane-surface $-1 0 -39.902472969671784 0 0 1 0 0 0 1 forward_v I I I I #
coedge $-1 $304 $305 $306 $307 forward $121 $-1 #
coedge $-1 $308 $123 $309 $310 forward $76 $-1 #
coedge $-1 $123 $308 $311 $312 forward $76 $-1 #
coedge $-1 $313 $314 $123 $196 reversed $315 $-1 #
edge $-1 $316 -39.902472969671784 $317 39.902472969671784 $195 $318 forward 7 unknown #
face $-1 $319 $320 $46 $-1 $321 reversed single #
loop $-1 $-1 $203 $124 #
plane-surface $-1 -80.101484136003435 0 7.1675622834987784 0 0 1 1 0 0 forward_v I I I I #
coedge $-1 $322 $323 $201 $324 forward $125 $-1 #
coedge $-1 $325 $127 $200 $324 reversed $79 $-1 #
coedge $-1 $127 $325 $326 $327 reversed $79 $-1 #
coedge $-1 $328 $329 $127 $204 reversed $198 $-1 #
edge $-1 $330 -39.902472969671784 $331 39.902472969671784 $203 $332 forward 7 unknown #
face $-1 $333 $334 $47 $-1 $335 reversed single #
loop $-1 $-1 $336 $128 #
plane-surface $-1 0 -39.902472969671784 0 0 1 0 0 0 1 forward_v I I I I #
coedge $-1 $337 $338 $339 $340 forward $129 $-1 #
coedge $-1 $339 $131 $336 $341 reversed $82 $-1 #
coedge $-1 $131 $339 $342 $343 reversed $82 $-1 #
coedge $-1 $344 $345 $131 $212 reversed $334 $-1 #
edge $-1 $346 -39.902472969671784 $347 39.902472969671784 $211 $348 forward 7 unknown #
face $-1 $349 $350 $48 $-1 $351 reversed single #
loop $-1 $-1 $352 $132 #
plane-surface $-1 24.286843878900797 -163.13854120076132 87.338298358050807 1 0 0 0 0.82903758062907751 -0.55919289150049634 forward_v I I I I #
coedge $-1 $353 $354 $355 $356 reversed $133 $-1 #
coedge $-1 $218 $135 $357 $358 reversed $85 $-1 #
coedge $-1 $135 $217 $353 $359 reversed $85 $-1 #
coedge $-1 $355 $360 $135 $220 forward $361 $-1 #
edge $-1 $362 41.666797630708878 $363 47.57452082668226 $219 $364 forward 7 unknown #
loop $-1 $-1 $226 $136 #
plane-surface $-1 33.837892121909292 -39.902472969671777 4.2145233429252897 0 -0.82903758062907751 0.55919289150049634 1 0 0 forward_v I I I I #
loop $-1 $-1 $365 $87 #
coedge $-1 $224 $224 $225 $366 reversed $137 $-1 #
coedge $-1 $225 $225 $224 $366 forward $139 $-1 #
coedge $-1 $226 $226 $140 $227 forward $221 $-1 #
edge $-1 $367 4.4179997294108949e-015 $367 6.2831853071796049 $226 $368 forward 7 unknown #
loop $-1 $-1 $233 $141 #
plane-surface $-1 33.837892121909292 -39.902472969671777 4.2145233429252897 0 -0.82903758062907751 0.55919289150049634 1 0 0 forward_v I I I I #
loop $-1 $-1 $369 $90 #
coedge $-1 $231 $231 $232 $370 reversed $142 $-1 #
coedge $-1 $232 $232 $231 $370 forward $144 $-1 #
coedge $-1 $233 $233 $145 $234 forward $228 $-1 #
edge $-1 $371 4.4179997294108949e-015 $371 6.2831853071796049 $233 $372 forward 7 unknown #
loop $-1 $-1 $240 $146 #
plane-surface $-1 33.837892121909292 -39.902472969671777 4.2145233429252897 0 -0.82903758062907751 0.55919289150049634 1 0 0 forward_v I I I I #
loop $-1 $-1 $373 $93 #
coedge $-1 $238 $238 $239 $374 reversed $147 $-1 #
coedge $-1 $239 $239 $238 $374 forward $149 $-1 #
coedge $-1 $240 $240 $150 $241 forward $235 $-1 #
edge $-1 $375 4.4179997294108949e-015 $375 6.2831853071796049 $240 $376 forward 7 unknown #
face $-1 $377 $378 $52 $-1 $379 reversed single #
loop $-1 $-1 $380 $151 #
plane-surface $-1 -13.941281480686342 107.90709289648473 156.94213492061053 -1 0 0 0 0.78801076186113728 0.61566146476048833 forward_v I I I I #
coedge $-1 $381 $382 $383 $384 reversed $152 $-1 #
coedge $-1 $247 $154 $385 $386 reversed $97 $-1 #
coedge $-1 $154 $246 $381 $387 reversed $97 $-1 #
coedge $-1 $383 $388 $154 $249 forward $389 $-1 #
edge $-1 $390 14.051073478570579 $391 22.204498269957 $248 $392 forward 7 unknown #
loop $-1 $-1 $255 $155 #
plane-surface $-1 -26.033586326932685 -9.2303569424760497 65.424331564936011 0 0.78801076186113728 0.61566146476048833 1 0 0 forward_v I I I I #
loop $-1 $-1 $393 $99 #
coedge $-1 $253 $253 $254 $394 reversed $156 $-1 #
coedge $-1 $254 $254 $253 $394 forward $158 $-1 #
coedge $-1 $255 $255 $159 $256 forward $250 $-1 #
edge $-1 $395 1.3997883063530332e-015 $395 6.2831853071796022 $255 $396 forward 7 unknown #
loop $-1 $-1 $262 $160 #
plane-surface $-1 -26.033586326932685 -9.2303569424760497 65.424331564936011 0 0.78801076186113728 0.61566146476048833 1 0 0 forward_v I I I I #
loop $-1 $-1 $397 $102 #
coedge $-1 $260 $260 $261 $398 reversed $161 $-1 #
coedge $-1 $261 $261 $260 $398 forward $163 $-1 #
coedge $-1 $262 $262 $164 $263 forward $257 $-1 #
edge $-1 $399 1.3997883063530332e-015 $399 6.2831853071796022 $262 $400 forward 7 unknown #
loop $-1 $-1 $269 $165 #
plane-surface $-1 -26.033586326932685 -9.2303569424760497 65.424331564936011 0 0.78801076186113728 0.61566146476048833 1 0 0 forward_v I I I I #
loop $-1 $-1 $401 $105 #
coedge $-1 $267 $267 $268 $402 reversed $166 $-1 #
coedge $-1 $268 $268 $267 $402 forward $168 $-1 #
coedge $-1 $269 $269 $169 $270 forward $264 $-1 #
edge $-1 $403 1.3997883063530332e-015 $403 6.2831853071796022 $269 $404 forward 7 unknown #
face $-1 $405 $406 $56 $-1 $407 forward single #
loop $-1 $-1 $408 $170 #
plane-surface $-1 38.125891173179021 107.90709289648473 156.94213492061053 -1 0 0 0 0.78801076186113728 0.61566146476048833 forward_v I I I I #
coedge $-1 $409 $410 $411 $412 reversed $171 $-1 #
coedge $-1 $276 $173 $413 $414 reversed $109 $-1 #
coedge $-1 $173 $275 $409 $415 reversed $109 $-1 #
coedge $-1 $411 $416 $173 $278 forward $406 $-1 #
edge $-1 $417 14.051073478570579 $418 22.204498269957 $277 $419 forward 7 unknown #
loop $-1 $-1 $284 $174 #
plane-surface $-1 26.033586326932678 -9.2303569424760497 65.424331564936011 0 0.78801076186113728 0.61566146476048833 1 0 0 forward_v I I I I #
loop $-1 $-1 $420 $111 #
coedge $-1 $282 $282 $283 $421 reversed $175 $-1 #
coedge $-1 $283 $283 $282 $421 forward $177 $-1 #
coedge $-1 $284 $284 $178 $285 forward $279 $-1 #
edge $-1 $422 1.3997883063530332e-015 $422 6.2831853071796022 $284 $423 forward 7 unknown #
loop $-1 $-1 $291 $179 #
plane-surface $-1 26.033586326932678 -9.2303569424760497 65.424331564936011 0 0.78801076186113728 0.61566146476048833 1 0 0 forward_v I I I I #
loop $-1 $-1 $424 $114 #
coedge $-1 $289 $289 $290 $425 reversed $180 $-1 #
coedge $-1 $290 $290 $289 $425 forward $182 $-1 #
coedge $-1 $291 $291 $183 $292 forward $286 $-1 #
edge $-1 $426 1.3997883063530332e-015 $426 6.2831853071796022 $291 $427 forward 7 unknown #
loop $-1 $-1 $298 $184 #
plane-surface $-1 26.033586326932678 -9.2303569424760497 65.424331564936011 0 0.78801076186113728 0.61566146476048833 1 0 0 forward_v I I I I #
loop $-1 $-1 $428 $117 #
coedge $-1 $296 $296 $297 $429 reversed $185 $-1 #
coedge $-1 $297 $297 $296 $429 forward $187 $-1 #
coedge $-1 $298 $298 $188 $299 forward $293 $-1 #
edge $-1 $430 1.3997883063530332e-015 $430 6.2831853071796022 $298 $431 forward 7 unknown #
face $-1 $432 $433 $45 $-1 $434 reversed single #
loop $-1 $-1 $435 $189 #
plane-surface $-1 -74.324777977843567 0 0 1 0 0 0 0 -1 forward_v I I I I #
coedge $-1 $436 $311 $437 $438 forward $190 $-1 #
coedge $-1 $439 $192 $436 $440 forward $121 $-1 #
coedge $-1 $192 $439 $441 $442 forward $121 $-1 #
coedge $-1 $314 $313 $192 $307 reversed $315 $-1 #
edge $-1 $443 -39.902472969671784 $444 39.902472969671784 $306 $445 forward 7 unknown #
coedge $-1 $194 $193 $446 $447 forward $76 $-1 #
coedge $-1 $448 $449 $193 $310 reversed $433 $-1 #
edge $-1 $317 -74.324777977843567 $450 74.324777977843567 $309 $451 forward 7 unknown #
coedge $-1 $303 $452 $194 $312 reversed $190 $-1 #
edge $-1 $453 -74.324777977843567 $316 74.324777977843567 $311 $454 forward 7 unknown #
coedge $-1 $306 $195 $452 $455 forward $315 $-1 #
coedge $-1 $195 $306 $448 $456 reversed $315 $-1 #
loop $-1 $-1 $313 $432 #
vertex $-1 $196 $457 #
vertex $-1 $196 $458 #
straight-curve $-1 74.324777977843567 0 12.973083438841135 0 1 0 I I #
face $-1 $459 $460 $46 $-1 $461 forward single #
loop $-1 $-1 $462 $197 #
plane-surface $-1 -85.878190294163304 0 10.070322861169958 1 0 0 0 0 -1 forward_v I I I I #
coedge $-1 $463 $200 $329 $464 reversed $125 $-1 #
coedge $-1 $200 $463 $465 $466 reversed $125 $-1 #
edge $-1 $467 -12.973083438841135 $331 -7.1675622834987784 $200 $468 forward 7 unknown #
coedge $-1 $202 $201 $469 $470 reversed $79 $-1 #
coedge $-1 $471 $472 $202 $327 forward $473 $-1 #
edge $-1 $330 7.1675622834987784 $474 12.973083438841135 $326 $475 forward 7 unknown #
coedge $-1 $476 $203 $472 $477 forward $198 $-1 #
coedge $-1 $203 $476 $322 $464 forward $198 $-1 #
vertex $-1 $327 $478 #
vertex $-1 $324 $479 #
straight-curve $-1 -74.324777977843567 0 7.1675622834987784 0 1 0 I I #
face $-1 $480 $481 $47 $-1 $482 reversed single #
loop $-1 $-1 $483 $205 #
plane-surface $-1 80.101484136003435 0 7.1675622834987784 0 0 1 1 0 0 forward_v I I I I #
coedge $-1 $484 $485 $209 $341 forward $206 $-1 #
coedge $-1 $486 $208 $485 $487 forward $129 $-1 #
coedge $-1 $208 $486 $488 $489 forward $129 $-1 #
coedge $-1 $210 $209 $208 $340 reversed $82 $-1 #
edge $-1 $490 -39.902472969671784 $491 39.902472969671784 $208 $492 forward 7 unknown #
edge $-1 $491 -12.973083438841135 $347 -7.1675622834987784 $336 $493 forward 7 unknown #
coedge $-1 $488 $494 $210 $343 forward $495 $-1 #
edge $-1 $346 7.1675622834987784 $490 12.973083438841135 $342 $496 forward 7 unknown #
coedge $-1 $483 $211 $494 $497 forward $334 $-1 #
coedge $-1 $211 $483 $484 $498 forward $334 $-1 #
vertex $-1 $343 $499 #
vertex $-1 $341 $500 #
straight-curve $-1 74.324777977843567 0 7.1675622834987784 0 -1 0 I I #
face $-1 $-1 $361 $48 $-1 $501 forward single #
loop $-1 $-1 $502 $213 #
plane-surface $-1 0 -39.902472969671784 0 0 1 0 0 0 1 forward_v I I I I #
coedge $-1 $503 $504 $505 $506 reversed $214 $-1 #
coedge $-1 $507 $216 $218 $359 forward $133 $-1 #
coedge $-1 $216 $507 $503 $508 forward $133 $-1 #
coedge $-1 $505 $219 $216 $356 forward $361 $-1 #
edge $-1 $363 -26.469994303963141 $509 -7.367897817946151 $355 $510 forward 7 unknown #
coedge $-1 $511 $512 $217 $358 forward $350 $-1 #
edge $-1 $513 -39.454625836100121 $362 -30.696065740184267 $357 $514 forward 7 unknown #
edge $-1 $363 -10.564732287853358 $513 1.2809303928265426e-014 $218 $515 forward 7 unknown #
coedge $-1 $219 $505 $511 $516 forward $361 $-1 #
loop $-1 $-1 $505 $349 #
vertex $-1 $358 $517 #
vertex $-1 $220 $518 #
straight-curve $-1 43.388940364917786 -81.569270600380662 12.973083438841137 0 1 0 I I #
coedge $-1 $365 $365 $-1 $519 reversed $223 $-1 #
edge $-1 $520 0 $520 6.2831853071796004 $224 $521 forward 7 unknown #
vertex $-1 $227 $522 #
ellipse-curve $-1 28.107263176104198 -36.948611371685097 8.5938033908832097 0 -0.82903758062907751 0.55919289150049634 1 0 0 1 I I #
coedge $-1 $369 $369 $-1 $523 reversed $230 $-1 #
edge $-1 $524 0 $524 6.2831853071796004 $231 $525 forward 7 unknown #
vertex $-1 $234 $526 #
ellipse-curve $-1 33.837892121909292 -36.948611371685097 8.5938033908832097 0 -0.82903758062907751 0.55919289150049634 1 0 0 1 I I #
coedge $-1 $373 $373 $-1 $527 reversed $237 $-1 #
edge $-1 $528 0 $528 6.2831853071796004 $238 $529 forward 7 unknown #
vertex $-1 $241 $530 #
ellipse-curve $-1 39.568521067714386 -36.948611371685097 8.5938033908832097 0 -0.82903758062907751 0.55919289150049634 1 0 0 1 I I #
face $-1 $-1 $389 $52 $-1 $531 forward single #
loop $-1 $-1 $532 $242 #
plane-surface $-1 0 39.902472969671784 0 0 -1 0 0 0 -1 forward_v I I I I #
coedge $-1 $533 $534 $535 $536 reversed $243 $-1 #
coedge $-1 $537 $245 $247 $387 forward $152 $-1 #
coedge $-1 $245 $537 $533 $538 forward $152 $-1 #
coedge $-1 $535 $248 $245 $384 forward $389 $-1 #
edge $-1 $391 -25.109098009712685 $539 -0.9244883172199998 $383 $540 forward 7 unknown #
coedge $-1 $541 $542 $246 $386 forward $378 $-1 #
edge $-1 $543 -75.933892145318239 $390 -65.497984021464134 $385 $544 forward 7 unknown #
edge $-1 $391 66.561588578073 $543 79.804945939343554 $247 $545 forward 7 unknown #
coedge $-1 $248 $535 $541 $546 forward $389 $-1 #
loop $-1 $-1 $535 $377 #
vertex $-1 $386 $547 #
vertex $-1 $249 $548 #
straight-curve $-1 -38.125891173179028 53.953546448242363 12.97308343884113 0 -1 0 I I #
coedge $-1 $393 $393 $-1 $549 reversed $252 $-1 #
edge $-1 $550 0 $550 6.2831853071796004 $253 $551 forward 7 unknown #
vertex $-1 $256 $552 #
ellipse-curve $-1 -33.288969234680494 35.825760573978563 7.7551293769140877 0 0.78801076186113728 0.61566146476048833 1.5 0 0 1 I I #
coedge $-1 $397 $397 $-1 $553 reversed $259 $-1 #
edge $-1 $554 0 $554 6.2831853071796004 $260 $555 forward 7 unknown #
vertex $-1 $263 $556 #
ellipse-curve $-1 -26.033586326932692 35.825760573978563 7.7551293769140877 0 0.78801076186113728 0.61566146476048833 1.5 0 0 1 I I #
coedge $-1 $401 $401 $-1 $557 reversed $266 $-1 #
edge $-1 $558 0 $558 6.2831853071796004 $267 $559 forward 7 unknown #
vertex $-1 $270 $560 #
ellipse-curve $-1 -18.778203419184891 35.825760573978563 7.7551293769140877 0 0.78801076186113728 0.61566146476048833 1.5 0 0 1 I I #
face $-1 $-1 $561 $56 $-1 $562 reversed single #
loop $-1 $-1 $277 $271 #
plane-surface $-1 0 0 12.973083438841135 0 0 1 1 0 0 forward_v I I I I #
coedge $-1 $563 $564 $565 $566 reversed $272 $-1 #
coedge $-1 $567 $274 $276 $415 forward $171 $-1 #
coedge $-1 $274 $567 $563 $568 forward $171 $-1 #
coedge $-1 $565 $277 $274 $412 forward $406 $-1 #
edge $-1 $418 0.92448831721999625 $569 25.109098009712682 $411 $570 forward 7 unknown #
coedge $-1 $571 $572 $275 $414 forward $561 $-1 #
edge $-1 $573 -75.933892145318239 $417 -65.497984021464134 $413 $574 forward 7 unknown #
edge $-1 $418 66.561588578073 $573 79.804945939343554 $276 $575 forward 7 unknown #
coedge $-1 $277 $565 $571 $576 forward $406 $-1 #
vertex $-1 $278 $577 #
vertex $-1 $278 $578 #
straight-curve $-1 13.941281480686335 53.953546448242363 12.97308343884113 0 -1 0 I I #
coedge $-1 $420 $420 $-1 $579 reversed $281 $-1 #
edge $-1 $580 0 $580 6.2831853071796004 $282 $581 forward 7 unknown #
vertex $-1 $285 $582 #
ellipse-curve $-1 18.778203419184877 35.825760573978563 7.7551293769140877 0 0.78801076186113728 0.61566146476048833 1.5 0 0 1 I I #
coedge $-1 $424 $424 $-1 $583 reversed $288 $-1 #
edge $-1 $584 0 $584 6.2831853071796004 $289 $585 forward 7 unknown #
vertex $-1 $292 $586 #
ellipse-curve $-1 26.033586326932678 35.825760573978563 7.7551293769140877 0 0.78801076186113728 0.61566146476048833 1.5 0 0 1 I I #
coedge $-1 $428 $428 $-1 $587 reversed $295 $-1 #
edge $-1 $588 0 $588 6.2831853071796004 $296 $589 forward 7 unknown #
vertex $-1 $299 $590 #
ellipse-curve $-1 33.288969234680479 35.825760573978563 7.7551293769140877 0 0.78801076186113728 0.61566146476048833 1.5 0 0 1 I I #
face $-1 $-1 $315 $45 $-1 $591 reversed single #
loop $-1 $-1 $448 $300 #
plane-surface $-1 0 39.902472969671784 0 0 -1 0 0 0 -1 forward_v I I I I #
coedge $-1 $592 $446 $449 $593 forward $301 $-1 #
coedge $-1 $452 $303 $304 $440 reversed $190 $-1 #
coedge $-1 $446 $592 $303 $438 reversed $301 $-1 #
edge $-1 $453 -12.973083438841135 $594 12.973083438841135 $437 $595 forward 7 unknown #
coedge $-1 $305 $304 $592 $596 forward $121 $-1 #
edge $-1 $444 -74.324777977843567 $594 74.324777977843567 $436 $597 forward 7 unknown #
coedge $-1 $449 $448 $305 $442 reversed $433 $-1 #
edge $-1 $598 -74.324777977843567 $443 74.324777977843567 $441 $599 forward 7 unknown #
vertex $-1 $307 $600 #
vertex $-1 $455 $601 #
straight-curve $-1 74.324777977843567 0 -12.973083438841135 0 -1 0 I I #
coedge $-1 $435 $437 $308 $447 reversed $301 $-1 #
edge $-1 $450 -39.902472969671784 $453 39.902472969671784 $446 $602 forward 7 unknown #
coedge $-1 $441 $309 $314 $456 forward $433 $-1 #
coedge $-1 $309 $441 $435 $593 reversed $433 $-1 #
vertex $-1 $310 $603 #
straight-curve $-1 0 39.902472969671784 12.973083438841135 -1 0 0 I I #
coedge $-1 $311 $436 $313 $455 reversed $190 $-1 #
vertex $-1 $447 $604 #
straight-curve $-1 0 -39.902472969671784 12.973083438841135 1 0 0 I I #
edge $-1 $316 -12.973083438841135 $444 12.973083438841135 $313 $605 forward 7 unknown #
edge $-1 $317 -12.973083438841135 $443 12.973083438841135 $314 $606 forward 7 unknown #
point $-1 74.324777977843567 -39.902472969671784 12.973083438841135 #
point $-1 74.324777977843567 39.902472969671784 12.973083438841135 #
face $-1 $-1 $473 $46 $-1 $607 reversed single #
loop $-1 $-1 $469 $319 #
plane-surface $-1 0 0 12.973083438841135 0 0 1 1 0 0 forward_v I I I I #
coedge $-1 $608 $609 $463 $610 forward $320 $-1 #
coedge $-1 $323 $322 $462 $610 reversed $125 $-1 #
edge $-1 $611 -5.7767061581598682 $331 5.7767061581598682 $322 $612 forward 7 unknown #
coedge $-1 $613 $469 $323 $466 forward $460 $-1 #
edge $-1 $467 74.324777977843567 $614 85.878190294163304 $323 $615 forward 7 unknown #
vertex $-1 $466 $616 #
straight-curve $-1 -74.324777977843567 39.902472969671784 0 0 0 -1 I I #
coedge $-1 $465 $617 $325 $470 forward $460 $-1 #
edge $-1 $474 -39.902472969671784 $467 39.902472969671784 $469 $618 forward 7 unknown #
coedge $-1 $619 $326 $617 $620 reversed $473 $-1 #
coedge $-1 $326 $619 $328 $477 reversed $473 $-1 #
loop $-1 $-1 $326 $459 #
vertex $-1 $327 $621 #
straight-curve $-1 -74.324777977843567 -39.902472969671784 0 0 0 1 I I #
coedge $-1 $329 $328 $608 $622 forward $198 $-1 #
edge $-1 $330 -5.7767061581598682 $623 5.7767061581598682 $472 $624 forward 7 unknown #
point $-1 -74.324777977843567 -39.902472969671784 7.1675622834987784 #
point $-1 -74.324777977843567 39.902472969671784 7.1675622834987784 #
face $-1 $-1 $495 $47 $-1 $625 reversed single #
loop $-1 $-1 $626 $333 #
plane-surface $-1 85.878190294163304 0 10.070322861169958 -1 0 0 0 0 1 forward_v I I I I #
coedge $-1 $345 $344 $627 $628 forward $334 $-1 #
coedge $-1 $629 $336 $345 $498 reversed $206 $-1 #
coedge $-1 $336 $629 $337 $487 reversed $206 $-1 #
coedge $-1 $338 $337 $630 $631 forward $129 $-1 #
edge $-1 $491 -5.7767061581598682 $632 5.7767061581598682 $485 $633 forward 7 unknown #
coedge $-1 $634 $342 $338 $489 reversed $495 $-1 #
edge $-1 $635 -85.878190294163304 $490 -74.324777977843567 $488 $636 forward 7 unknown #
vertex $-1 $343 $637 #
vertex $-1 $487 $638 #
straight-curve $-1 74.324777977843567 0 12.973083438841135 0 -1 0 I I #
straight-curve $-1 74.324777977843567 -39.902472969671784 0 0 0 -1 I I #
coedge $-1 $342 $634 $344 $497 reversed $495 $-1 #
loop $-1 $-1 $342 $480 #
straight-curve $-1 74.324777977843567 39.902472969671784 0 0 0 1 I I #
edge $-1 $346 -5.7767061581598682 $639 5.7767061581598682 $494 $640 forward 7 unknown #
edge $-1 $641 -5.7767061581598682 $347 5.7767061581598682 $484 $642 forward 7 unknown #
point $-1 74.324777977843567 39.902472969671784 7.1675622834987784 #
point $-1 74.324777977843567 -39.902472969671784 7.1675622834987784 #
plane-surface $-1 0 0 12.973083438841135 0 0 1 1 0 0 forward_v I I I I #
coedge $-1 $512 $511 $504 $643 forward $350 $-1 #
coedge $-1 $504 $352 $354 $508 reversed $214 $-1 #
coedge $-1 $352 $503 $502 $643 reversed $214 $-1 #
coedge $-1 $360 $355 $352 $506 forward $361 $-1 #
edge $-1 $509 -47.57452082668226 $644 -41.666797630708878 $505 $645 forward 7 unknown #
coedge $-1 $354 $353 $512 $646 reversed $133 $-1 #
edge $-1 $647 -1.2809303928265426e-014 $509 10.564732287853358 $503 $648 forward 7 unknown #
vertex $-1 $356 $649 #
straight-curve $-1 16.918946060954646 -33.994749773698402 12.973083438841135 -1 0 0 I I #
coedge $-1 $502 $357 $360 $516 reversed $350 $-1 #
coedge $-1 $357 $502 $507 $646 forward $350 $-1 #
vertex $-1 $358 $650 #
straight-curve $-1 43.388940364917786 -39.902472969671784 43.669149179025403 0 0 1 I I #
straight-curve $-1 43.388940364917786 -39.902472969671777 4.2145233429252897 0 -0.55919289150049634 -0.82903758062907751 I I #
edge $-1 $644 -55.814640257102639 $362 -36.712543771085649 $511 $651 forward 7 unknown #
point $-1 43.388940364917786 -39.902472969671784 12.973083438841137 #
point $-1 43.388940364917786 -33.994749773698402 12.973083438841135 #
edge $-1 $652 1 $652 0 $365 $-1 forward 7 unknown #
vertex $-1 $366 $653 #
ellipse-curve $-1 28.107263176104198 -34.911881575224001 7.2200118394506765 0 -0.82903758062907751 0.55919289150049634 1 0 0 1 I I #
point $-1 29.107263176104198 -36.948611371685097 8.593803390883215 #
edge $-1 $654 1 $654 0 $369 $-1 forward 7 unknown #
vertex $-1 $370 $655 #
ellipse-curve $-1 33.837892121909292 -34.911881575224001 7.2200118394506765 0 -0.82903758062907751 0.55919289150049634 1 0 0 1 I I #
point $-1 34.837892121909292 -36.948611371685097 8.593803390883215 #
edge $-1 $656 1 $656 0 $373 $-1 forward 7 unknown #
vertex $-1 $374 $657 #
ellipse-curve $-1 39.568521067714386 -34.911881575224001 7.2200118394506765 0 -0.82903758062907751 0.55919289150049634 1 0 0 1 I I #
point $-1 40.568521067714386 -36.948611371685097 8.593803390883215 #
plane-surface $-1 0 0 12.973083438841135 0 0 1 1 0 0 forward_v I I I I #
coedge $-1 $542 $541 $534 $658 forward $378 $-1 #
coedge $-1 $534 $380 $382 $538 reversed $243 $-1 #
coedge $-1 $380 $533 $532 $658 reversed $243 $-1 #
coedge $-1 $388 $383 $380 $536 forward $389 $-1 #
edge $-1 $539 -22.204498269957 $659 -14.051073478570579 $535 $660 forward 7 unknown #
coedge $-1 $382 $381 $542 $661 reversed $152 $-1 #
edge $-1 $662 -79.804945939343554 $539 -66.561588578073 $533 $663 forward 7 unknown #
vertex $-1 $384 $664 #
straight-curve $-1 -13.016793163466343 31.749048178285356 12.973083438841137 1 0 0 I I #
coedge $-1 $532 $385 $388 $546 reversed $378 $-1 #
coedge $-1 $385 $532 $537 $661 forward $378 $-1 #
vertex $-1 $386 $665 #
straight-curve $-1 -38.125891173179028 39.902472969671784 78.471067460305264 0 0 1 I I #
straight-curve $-1 -38.125891173179028 -9.2303569424760497 65.424331564936011 0 0.61566146476048833 -0.78801076186113728 I I #
edge $-1 $659 13.941281480686342 $390 38.125891173179028 $541 $666 forward 7 unknown #
point $-1 -38.125891173179028 39.902472969671784 12.973083438841135 #
point $-1 -38.125891173179028 31.749048178285364 12.973083438841137 #
edge $-1 $667 1 $667 0 $393 $-1 forward 7 unknown #
vertex $-1 $394 $668 #
ellipse-curve $-1 -33.288969234680494 32.055335778888022 4.8093507600939152 0 0.78801076186113728 0.61566146476048833 1.5 0 0 1 I I #
point $-1 -31.788969234680494 35.825760573978563 7.755129376914085 #
edge $-1 $669 1 $669 0 $397 $-1 forward 7 unknown #
vertex $-1 $398 $670 #
ellipse-curve $-1 -26.033586326932692 32.055335778888022 4.8093507600939152 0 0.78801076186113728 0.61566146476048833 1.5 0 0 1 I I #
point $-1 -24.533586326932692 35.825760573978563 7.755129376914085 #
edge $-1 $671 1 $671 0 $401 $-1 forward 7 unknown #
vertex $-1 $402 $672 #
ellipse-curve $-1 -18.778203419184891 32.055335778888022 4.8093507600939152 0 0.78801076186113728 0.61566146476048833 1.5 0 0 1 I I #
point $-1 -17.278203419184891 35.825760573978563 7.755129376914085 #
loop $-1 $-1 $413 $405 #
plane-surface $-1 0 39.902472969671784 0 0 -1 0 0 0 -1 forward_v I I I I #
coedge $-1 $564 $408 $410 $568 reversed $272 $-1 #
coedge $-1 $408 $563 $673 $674 reversed $272 $-1 #
coedge $-1 $416 $411 $408 $566 forward $406 $-1 #
edge $-1 $569 -22.204498269957 $675 -14.051073478570579 $565 $676 forward 7 unknown #
coedge $-1 $410 $409 $572 $677 reversed $171 $-1 #
edge $-1 $678 -79.804945939343554 $569 -66.561588578073 $563 $679 forward 7 unknown #
vertex $-1 $412 $680 #
straight-curve $-1 13.016793163466339 31.749048178285356 12.973083438841137 1 0 0 I I #
coedge $-1 $673 $413 $416 $576 reversed $561 $-1 #
coedge $-1 $413 $673 $567 $677 forward $561 $-1 #
vertex $-1 $414 $681 #
straight-curve $-1 13.941281480686335 39.902472969671784 78.471067460305264 0 0 1 I I #
straight-curve $-1 13.941281480686335 -9.2303569424760497 65.424331564936011 0 0.61566146476048833 -0.78801076186113728 I I #
edge $-1 $675 -38.125891173179021 $417 -13.941281480686335 $571 $682 forward 7 unknown #
point $-1 13.941281480686335 39.902472969671784 12.973083438841135 #
point $-1 13.941281480686335 31.749048178285364 12.973083438841137 #
edge $-1 $683 1 $683 0 $420 $-1 forward 7 unknown #
vertex $-1 $421 $684 #
ellipse-curve $-1 18.778203419184877 32.055335778888022 4.8093507600939152 0 0.78801076186113728 0.61566146476048833 1.5 0 0 1 I I #
point $-1 20.278203419184877 35.825760573978563 7.755129376914085 #
edge $-1 $685 1 $685 0 $424 $-1 forward 7 unknown #
vertex $-1 $425 $686 #
ellipse-curve $-1 26.033586326932678 32.055335778888022 4.8093507600939152 0 0.78801076186113728 0.61566146476048833 1.5 0 0 1 I I #
point $-1 27.533586326932678 35.825760573978563 7.755129376914085 #
edge $-1 $687 1 $687 0 $428 $-1 forward 7 unknown #
vertex $-1 $429 $688 #
ellipse-curve $-1 33.288969234680479 32.055335778888022 4.8093507600939152 0 0.78801076186113728 0.61566146476048833 1.5 0 0 1 I I #
point $-1 34.788969234680479 35.825760573978563 7.755129376914085 #
plane-surface $-1 74.324777977843567 0 0 -1 0 0 0 0 1 forward_v I I I I #
coedge $-1 $437 $435 $439 $596 reversed $301 $-1 #
edge $-1 $450 -12.973083438841135 $598 12.973083438841135 $449 $689 forward 7 unknown #
vertex $-1 $596 $690 #
straight-curve $-1 -74.324777977843567 -39.902472969671784 0 0 0 -1 I I #
edge $-1 $594 -39.902472969671784 $598 39.902472969671784 $592 $691 forward 7 unknown #
straight-curve $-1 0 -39.902472969671784 -12.973083438841135 -1 0 0 I I #
vertex $-1 $442 $692 #
straight-curve $-1 0 39.902472969671784 -12.973083438841135 1 0 0 I I #
point $-1 74.324777977843567 39.902472969671784 -12.973083438841135 #
point $-1 74.324777977843567 -39.902472969671784 -12.973083438841135 #
straight-curve $-1 -74.324777977843567 0 12.973083438841135 0 -1 0 I I #
point $-1 -74.324777977843567 39.902472969671784 12.973083438841135 #
point $-1 -74.324777977843567 -39.902472969671784 12.973083438841135 #
straight-curve $-1 74.324777977843567 -39.902472969671784 0 0 0 -1 I I #
straight-curve $-1 74.324777977843567 39.902472969671784 0 0 0 -1 I I #
plane-surface $-1 0 -39.902472969671784 0 0 1 0 0 0 1 forward_v I I I I #
coedge $-1 $693 $462 $476 $622 reversed $320 $-1 #
coedge $-1 $462 $693 $613 $694 reversed $320 $-1 #
edge $-1 $614 -2.9027605776711791 $611 2.9027605776711791 $463 $695 forward 7 unknown #
vertex $-1 $464 $696 #
straight-curve $-1 -80.101484136003435 39.902472969671784 7.1675622834987784 1 0 0 I I #
coedge $-1 $617 $465 $609 $694 forward $460 $-1 #
vertex $-1 $466 $697 #
straight-curve $-1 0 39.902472969671784 12.973083438841135 -1 0 0 I I #
point $-1 -74.324777977843567 39.902472969671784 12.973083438841135 #
coedge $-1 $469 $613 $471 $620 forward $460 $-1 #
straight-curve $-1 -74.324777977843567 0 12.973083438841135 0 1 0 I I #
coedge $-1 $472 $471 $693 $698 forward $473 $-1 #
edge $-1 $699 -85.878190294163304 $474 -74.324777977843567 $471 $700 forward 7 unknown #
point $-1 -74.324777977843567 -39.902472969671784 12.973083438841135 #
edge $-1 $623 -39.902472969671784 $611 39.902472969671784 $608 $701 forward 7 unknown #
vertex $-1 $622 $702 #
straight-curve $-1 -80.101484136003435 -39.902472969671784 7.1675622834987784 -1 0 0 I I #
plane-surface $-1 0 39.902472969671784 0 0 -1 0 0 0 -1 forward_v I I I I #
coedge $-1 $627 $630 $629 $703 forward $481 $-1 #
coedge $-1 $704 $626 $483 $628 reversed $481 $-1 #
edge $-1 $639 -39.902472969671784 $641 39.902472969671784 $627 $705 forward 7 unknown #
coedge $-1 $485 $484 $626 $703 reversed $206 $-1 #
coedge $-1 $626 $704 $486 $631 reversed $481 $-1 #
edge $-1 $632 -39.902472969671784 $635 39.902472969671784 $630 $706 forward 7 unknown #
vertex $-1 $631 $707 #
straight-curve $-1 80.101484136003435 -39.902472969671784 12.973083438841137 1 0 0 I I #
coedge $-1 $494 $488 $704 $708 forward $495 $-1 #
vertex $-1 $631 $709 #
straight-curve $-1 0 39.902472969671784 12.973083438841135 -1 0 0 I I #
point $-1 74.324777977843567 39.902472969671784 12.973083438841135 #
point $-1 74.324777977843567 -39.902472969671784 12.973083438841135 #
vertex $-1 $628 $710 #
straight-curve $-1 80.101484136003435 39.902472969671784 7.1675622834987784 1 0 0 I I #
vertex $-1 $703 $711 #
straight-curve $-1 80.101484136003435 -39.902472969671784 7.1675622834987784 -1 0 0 I I #
edge $-1 $644 30.696065740184267 $647 39.454625836100121 $502 $712 forward 7 unknown #
vertex $-1 $516 $713 #
straight-curve $-1 24.286843878900797 -81.569270600380662 12.973083438841137 0 -1 0 I I #
edge $-1 $647 7.367897817946151 $513 26.469994303963141 $512 $714 forward 7 unknown #
vertex $-1 $646 $715 #
straight-curve $-1 24.286843878900797 -39.902472969671777 4.2145233429252897 0 0.55919289150049634 0.82903758062907751 I I #
point $-1 24.286843878900797 -33.994749773698402 12.973083438841135 #
point $-1 43.388940364917786 -39.902472969671784 4.2145233429252791 #
straight-curve $-1 80.101484136003435 -39.902472969671784 12.973083438841137 1 0 0 I I #
vertex $-1 $519 $716 #
point $-1 29.107263176104198 -34.911881575224001 7.2200118394506765 #
vertex $-1 $523 $717 #
point $-1 34.837892121909292 -34.911881575224001 7.2200118394506765 #
vertex $-1 $527 $718 #
point $-1 40.568521067714386 -34.911881575224001 7.2200118394506765 #
edge $-1 $659 65.497984021464134 $662 75.933892145318239 $532 $719 forward 7 unknown #
vertex $-1 $546 $720 #
straight-curve $-1 -13.941281480686342 53.953546448242363 12.97308343884113 0 1 0 I I #
edge $-1 $662 0.9244883172199998 $543 25.109098009712685 $542 $721 forward 7 unknown #
vertex $-1 $661 $722 #
straight-curve $-1 -13.941281480686342 -9.2303569424760497 65.424331564936011 0 -0.61566146476048833 0.78801076186113728 I I #
point $-1 -13.941281480686342 31.749048178285364 12.973083438841137 #
point $-1 -38.125891173179028 39.902472969671791 2.5371753149870244 #
straight-curve $-1 0 39.902472969671784 12.973083438841135 -1 0 0 I I #
vertex $-1 $549 $723 #
point $-1 -31.788969234680494 32.055335778888022 4.8093507600939152 #
vertex $-1 $553 $724 #
point $-1 -24.533586326932692 32.055335778888022 4.8093507600939152 #
vertex $-1 $557 $725 #
point $-1 -17.278203419184891 32.055335778888022 4.8093507600939152 #
coedge $-1 $572 $571 $564 $674 forward $561 $-1 #
edge $-1 $675 65.497984021464134 $678 75.933892145318239 $673 $726 forward 7 unknown #
vertex $-1 $576 $727 #
straight-curve $-1 38.125891173179021 53.953546448242363 12.97308343884113 0 1 0 I I #
edge $-1 $678 -25.109098009712682 $573 -0.92448831721999625 $572 $728 forward 7 unknown #
vertex $-1 $677 $729 #
straight-curve $-1 38.125891173179021 -9.2303569424760497 65.424331564936011 0 -0.61566146476048833 0.78801076186113728 I I #
point $-1 38.125891173179021 31.749048178285364 12.973083438841137 #
point $-1 13.941281480686335 39.902472969671791 2.5371753149870244 #
straight-curve $-1 0 39.902472969671784 12.973083438841135 -1 0 0 I I #
vertex $-1 $579 $730 #
point $-1 20.278203419184877 32.055335778888022 4.8093507600939152 #
vertex $-1 $583 $731 #
point $-1 27.533586326932678 32.055335778888022 4.8093507600939152 #
vertex $-1 $587 $732 #
point $-1 34.788969234680479 32.055335778888022 4.8093507600939152 #
straight-curve $-1 -74.324777977843567 39.902472969671784 0 0 0 -1 I I #
point $-1 -74.324777977843567 -39.902472969671784 -12.973083438841135 #
straight-curve $-1 -74.324777977843567 0 -12.973083438841135 0 1 0 I I #
point $-1 -74.324777977843567 39.902472969671784 -12.973083438841135 #
coedge $-1 $609 $608 $619 $698 reversed $320 $-1 #
edge $-1 $614 -39.902472969671784 $699 39.902472969671784 $609 $733 forward 7 unknown #
straight-curve $-1 -85.878190294163304 39.902472969671784 10.070322861169958 0 0 -1 I I #
point $-1 -85.878190294163304 39.902472969671784 7.1675622834987784 #
point $-1 -85.878190294163304 39.902472969671784 12.973083438841137 #
edge $-1 $699 -2.9027605776711791 $623 2.9027605776711791 $693 $734 forward 7 unknown #
vertex $-1 $694 $735 #
straight-curve $-1 0 -39.902472969671784 12.973083438841135 1 0 0 I I #
straight-curve $-1 -85.878190294163304 0 7.1675622834987784 0 1 0 I I #
point $-1 -85.878190294163304 -39.902472969671784 7.1675622834987784 #
edge $-1 $632 -2.9027605776711791 $641 2.9027605776711791 $626 $736 forward 7 unknown #
coedge $-1 $630 $627 $634 $708 reversed $481 $-1 #
straight-curve $-1 85.878190294163304 0 7.1675622834987784 0 -1 0 I I #
straight-curve $-1 85.878190294163304 0 12.973083438841137 0 1 0 I I #
point $-1 85.878190294163304 -39.902472969671784 12.973083438841137 #
edge $-1 $635 -2.9027605776711791 $639 2.9027605776711791 $704 $737 forward 7 unknown #
point $-1 85.878190294163304 39.902472969671784 12.973083438841137 #
point $-1 85.878190294163304 39.902472969671784 7.1675622834987784 #
point $-1 85.878190294163304 -39.902472969671784 7.1675622834987784 #
straight-curve $-1 24.286843878900797 -39.902472969671784 43.669149179025403 0 0 -1 I I #
point $-1 24.286843878900797 -39.902472969671784 12.973083438841137 #
straight-curve $-1 16.918946060954646 -39.902472969671784 4.2145233429252791 1 0 0 I I #
point $-1 24.286843878900797 -39.902472969671784 4.2145233429252791 #
point $-1 28.107263176104198 -34.082843994594924 6.6608189479501805 #
point $-1 33.837892121909292 -34.082843994594924 6.6608189479501805 #
point $-1 39.568521067714386 -34.082843994594924 6.6608189479501805 #
straight-curve $-1 -13.941281480686342 39.902472969671784 78.471067460305264 0 0 -1 I I #
point $-1 -13.941281480686342 39.902472969671784 12.973083438841135 #
straight-curve $-1 -13.016793163466343 39.902472969671791 2.5371753149870244 -1 0 0 I I #
point $-1 -13.941281480686342 39.902472969671791 2.5371753149870244 #
point $-1 -33.288969234680494 30.873319636096316 3.885858562953183 #
point $-1 -26.033586326932692 30.873319636096316 3.885858562953183 #
point $-1 -18.778203419184891 30.873319636096316 3.885858562953183 #
straight-curve $-1 38.125891173179021 39.902472969671784 78.471067460305264 0 0 -1 I I #
point $-1 38.125891173179021 39.902472969671784 12.973083438841135 #
straight-curve $-1 13.016793163466339 39.902472969671791 2.5371753149870244 -1 0 0 I I #
point $-1 38.125891173179021 39.902472969671791 2.5371753149870244 #
point $-1 18.778203419184877 30.873319636096316 3.885858562953183 #
point $-1 26.033586326932678 30.873319636096316 3.885858562953183 #
point $-1 33.288969234680479 30.873319636096316 3.885858562953183 #
straight-curve $-1 -85.878190294163304 0 12.973083438841137 0 -1 0 I I #
straight-curve $-1 -85.878190294163304 -39.902472969671784 10.070322861169958 0 0 -1 I I #
point $-1 -85.878190294163304 -39.902472969671784 12.973083438841137 #
straight-curve $-1 85.878190294163304 -39.902472969671784 10.070322861169958 0 0 -1 I I #
straight-curve $-1 85.878190294163304 39.902472969671784 10.070322861169958 0 0 -1 I I #
End-of-ACIS-data 