500 0 10 0           
7 Unknown 11 ACIS 5.0 NT 24 Fri Mar 26 20:00:04 1999 
-1 9.9999999999999995e-007 1e-010 
body $-1 $10 $-1 $11 #
body $-1 $12 $-1 $13 #
body $-1 $14 $-1 $15 #
body $-1 $16 $-1 $17 #
body $-1 $18 $-1 $19 #
body $-1 $20 $-1 $21 #
body $-1 $22 $-1 $23 #
body $-1 $24 $-1 $25 #
body $-1 $26 $-1 $27 #
body $-1 $28 $-1 $29 #
lump $-1 $-1 $30 $0 #
transform $-1 1 0 0 0 1 0 0 0 1 71.275368511001915 28.900381515270659 10.044088706862109 1 rotate no_reflect no_shear #
lump $-1 $-1 $31 $1 #
transform $-1 1 0 0 0 1 0 0 0 1 71.275368511001915 28.900381515270659 10.044088706862109 1 rotate no_reflect no_shear #
lump $-1 $-1 $32 $2 #
transform $-1 1 0 0 0 1 0 0 0 1 71.275368511001915 28.900381515270659 10.044088706862109 1 rotate no_reflect no_shear #
lump $-1 $-1 $33 $3 #
transform $-1 1 0 0 0 1 0 0 0 1 71.275368511001915 28.900381515270659 10.044088706862109 1 rotate no_reflect no_shear #
lump $-1 $-1 $34 $4 #
transform $-1 1 0 0 0 1 0 0 0 1 71.275368511001915 28.900381515270659 10.044088706862109 1 rotate no_reflect no_shear #
lump $-1 $-1 $35 $5 #
transform $-1 1 0 0 0 1 0 0 0 1 71.275368511001915 28.900381515270659 10.044088706862109 1 rotate no_reflect no_shear #
lump $-1 $-1 $36 $6 #
transform $-1 1 0 0 0 1 0 0 0 1 71.275368511001915 28.900381515270659 10.044088706862109 1 rotate no_reflect no_shear #
lump $-1 $-1 $37 $7 #
transform $-1 1 0 0 0 1 0 0 0 1 71.275368511001915 28.900381515270659 10.044088706862109 1 rotate no_reflect no_shear #
lump $-1 $-1 $38 $8 #
transform $-1 1 0 0 0 1 0 0 0 1 71.275368511001915 28.900381515270659 10.044088706862109 1 rotate no_reflect no_shear #
lump $-1 $-1 $39 $9 #
transform $-1 1 0 0 0 1 0 0 0 1 71.275368511001915 28.900381515270659 10.044088706862109 1 rotate no_reflect no_shear #
shell $-1 $-1 $-1 $40 $-1 $10 #
shell $-1 $-1 $-1 $41 $-1 $12 #
shell $-1 $-1 $-1 $42 $-1 $14 #
shell $-1 $-1 $-1 $43 $-1 $16 #
shell $-1 $-1 $-1 $44 $-1 $18 #
shell $-1 $-1 $-1 $45 $-1 $20 #
shell $-1 $-1 $-1 $46 $-1 $22 #
shell $-1 $-1 $-1 $47 $-1 $24 #
shell $-1 $-1 $-1 $48 $-1 $26 #
shell $-1 $-1 $-1 $49 $-1 $28 #
face $-1 $50 $51 $30 $-1 $52 forward single #
face $-1 $53 $54 $31 $-1 $55 reversed single #
face $-1 $56 $57 $32 $-1 $58 reversed single #
face $-1 $59 $60 $33 $-1 $61 forward single #
face $-1 $62 $63 $34 $-1 $64 forward single #
face $-1 $65 $66 $35 $-1 $67 reversed single #
face $-1 $68 $69 $36 $-1 $70 forward single #
face $-1 $71 $72 $37 $-1 $73 forward single #
face $-1 $74 $75 $38 $-1 $76 reversed single #
face $-1 $77 $78 $39 $-1 $79 forward single #
face $-1 $80 $81 $30 $-1 $82 reversed single #
loop $-1 $-1 $83 $40 #
plane-surface $-1 0 0 10.044088706862109 0 0 1 1 0 0 forward_v I I I I #
face $-1 $84 $85 $31 $-1 $86 reversed single #
loop $-1 $-1 $87 $41 #
plane-surface $-1 0 -23.011333705251054 5.9232750186443868 0 0 1 1 0 0 forward_v I I I I #
face $-1 $88 $89 $32 $-1 $90 reversed single #
loop $-1 $-1 $91 $42 #
plane-surface $-1 -159.03836667532033 -6.5949601570442091 115.55441936657489 0 1 0 -0.61566148304635926 0 0.78801074757464917 forward_v I I I I #
face $-1 $92 $93 $33 $-1 $94 forward single #
loop $-1 $95 $96 $43 #
cone-surface $-1 -66.578139709746026 -3.9363753701624233 6.2087216541368644 0.61566148304635926 0 -0.78801074757464917 0.78801074757464917 0 0.61566148304635926 1 I I 0 1 1 forward I I I I #
face $-1 $97 $98 $34 $-1 $99 forward single #
loop $-1 $100 $101 $44 #
cone-surface $-1 -66.578139709746026 0.051501810160253569 6.2087216541368644 0.61566148304635926 0 -0.78801074757464917 0.78801074757464917 0 0.61566148304635926 1 I I 0 1 1 forward I I I I #
face $-1 $102 $103 $35 $-1 $104 reversed single #
loop $-1 $-1 $105 $45 #
plane-surface $-1 -159.03836667532033 9.0680090229971739 115.55441936657489 0 1 0 -0.61566148304635926 0 0.78801074757464917 forward_v I I I I #
face $-1 $106 $107 $36 $-1 $108 forward single #
loop $-1 $109 $110 $46 #
cone-surface $-1 -66.578139709746026 11.726593809878956 6.2087216541368644 0.61566148304635926 0 -0.78801074757464917 0.78801074757464917 0 0.61566148304635926 1 I I 0 1 1 forward I I I I #
face $-1 $111 $112 $37 $-1 $113 forward single #
loop $-1 $114 $115 $47 #
cone-surface $-1 -66.578139709746026 15.71447099020164 6.2087216541368644 0.61566148304635926 0 -0.78801074757464917 0.78801074757464917 0 0.61566148304635926 1 I I 0 1 1 forward I I I I #
face $-1 $116 $117 $38 $-1 $118 reversed single #
loop $-1 $-1 $119 $48 #
plane-surface $-1 32.808813786383112 -3.8279655231503975 201.88042080730671 0 -1 0 -0.55919291073839883 0 -0.82903756765294845 forward_v I I I I #
face $-1 $120 $121 $39 $-1 $122 forward single #
loop $-1 $123 $124 $49 #
cone-surface $-1 65.227657240330146 -10.475125709190923 4.7060591572162611 -0.55919291073839883 0 -0.82903756765294845 1.2435563514794228 0 -0.83878936610759824 1 I I 0 1 1.5 forward I I I I #
face $-1 $125 $126 $30 $-1 $127 reversed single #
loop $-1 $-1 $128 $50 #
plane-surface $-1 0 0 -10.044088706862109 0 0 1 1 0 0 forward_v I I I I #
coedge $-1 $129 $130 $131 $132 forward $51 $-1 #
face $-1 $133 $134 $31 $-1 $135 reversed single #
loop $-1 $-1 $136 $53 #
plane-surface $-1 0 -17.12228589523145 7.9836818627532473 0 -1 0 0 0 -1 forward_v I I I I #
coedge $-1 $137 $138 $139 $140 reversed $54 $-1 #
face $-1 $141 $142 $32 $-1 $143 reversed single #
loop $-1 $-1 $144 $56 #
plane-surface $-1 -71.275368511001901 -1.9424367800010849 3.2229065185484274 -0.61566148304635926 0 0.78801074757464917 0.78801074757464917 0 0.61566148304635926 forward_v I I I I #
coedge $-1 $145 $146 $147 $148 reversed $57 $-1 #
face $-1 $-1 $149 $33 $-1 $150 forward single #
loop $-1 $151 $152 $59 #
cone-surface $-1 -65.93843761060549 -3.9363753701624233 5.3899403217811326 0.61566148304635926 0 -0.78801074757464917 0.39400537378732459 0 0.30783074152317963 1 I I -0.70710678118654746 0.70710678118654746 0.5 forward I I I I #
loop $-1 $-1 $153 $43 #
coedge $-1 $96 $96 $154 $155 reversed $60 $-1 #
face $-1 $-1 $156 $34 $-1 $157 forward single #
loop $-1 $158 $159 $62 #
cone-surface $-1 -65.93843761060549 0.051501810160253569 5.3899403217811326 0.61566148304635926 0 -0.78801074757464917 0.39400537378732459 0 0.30783074152317963 1 I I -0.70710678118654746 0.70710678118654746 0.5 forward I I I I #
loop $-1 $-1 $160 $44 #
coedge $-1 $101 $101 $161 $162 reversed $63 $-1 #
face $-1 $163 $164 $35 $-1 $165 reversed single #
loop $-1 $-1 $166 $65 #
plane-surface $-1 -71.275368511001901 13.720532400040298 3.2229065185484274 -0.61566148304635926 0 0.78801074757464917 0.78801074757464917 0 0.61566148304635926 forward_v I I I I #
coedge $-1 $167 $168 $169 $170 reversed $66 $-1 #
face $-1 $-1 $171 $36 $-1 $172 forward single #
loop $-1 $173 $174 $68 #
cone-surface $-1 -65.93843761060549 11.726593809878956 5.3899403217811326 0.61566148304635926 0 -0.78801074757464917 0.39400537378732459 0 0.30783074152317963 1 I I -0.70710678118654746 0.70710678118654746 0.5 forward I I I I #
loop $-1 $-1 $175 $46 #
coedge $-1 $110 $110 $176 $177 reversed $69 $-1 #
face $-1 $-1 $178 $37 $-1 $179 forward single #
loop $-1 $180 $181 $71 #
cone-surface $-1 -65.93843761060549 15.71447099020164 5.3899403217811326 0.61566148304635926 0 -0.78801074757464917 0.39400537378732459 0 0.30783074152317963 1 I I -0.70710678118654746 0.70710678118654746 0.5 forward I I I I #
loop $-1 $-1 $182 $47 #
coedge $-1 $115 $115 $183 $184 reversed $72 $-1 #
face $-1 $185 $186 $38 $-1 $187 forward single #
loop $-1 $-1 $188 $74 #
plane-surface $-1 -46.904547776855239 -10.475125709190923 83.700504519449538 0.55919291073839883 0 0.82903756765294845 0.82903756765294845 0 -0.55919291073839883 forward_v I I I I #
coedge $-1 $189 $190 $191 $192 reversed $75 $-1 #
face $-1 $-1 $193 $39 $-1 $194 forward single #
loop $-1 $195 $196 $77 #
cone-surface $-1 63.250446880859187 -10.475125709190923 1.7747243071561662 -0.55919291073839883 0 -0.82903756765294845 0.62177817573971139 0 -0.41939468305379912 1 I I -0.70710678118654757 0.70710678118654757 0.75 forward I I I I #
loop $-1 $-1 $197 $49 #
coedge $-1 $124 $124 $198 $199 reversed $78 $-1 #
face $-1 $200 $201 $30 $-1 $202 reversed single #
loop $-1 $-1 $203 $80 #
plane-surface $-1 0 -28.900381515270659 0 0 1 0 0 0 1 forward_v I I I I #
coedge $-1 $204 $205 $206 $207 forward $81 $-1 #
coedge $-1 $208 $83 $209 $210 forward $51 $-1 #
coedge $-1 $83 $208 $211 $212 forward $51 $-1 #
coedge $-1 $213 $214 $83 $132 reversed $215 $-1 #
edge $-1 $216 -28.900381515270659 $217 28.900381515270659 $131 $218 forward 7 unknown #
face $-1 $219 $220 $31 $-1 $221 reversed single #
loop $-1 $-1 $222 $84 #
plane-surface $-1 -71.275368511001915 0 0 1 0 0 0 0 -1 forward_v I I I I #
coedge $-1 $223 $224 $138 $225 reversed $85 $-1 #
coedge $-1 $226 $87 $227 $228 reversed $54 $-1 #
coedge $-1 $87 $226 $136 $225 forward $54 $-1 #
coedge $-1 $229 $230 $87 $140 forward $231 $-1 #
edge $-1 $232 -17.394714662645132 $233 -5.6166190426059224 $139 $234 forward 7 unknown #
face $-1 $235 $236 $32 $-1 $237 forward single #
loop $-1 $-1 $238 $88 #
plane-surface $-1 -159.03836667532033 2.7100865970420394 115.55441936657489 0 -1 0 0.61566148304635926 0 -0.78801074757464917 forward_v I I I I #
coedge $-1 $239 $240 $241 $242 reversed $89 $-1 #
coedge $-1 $146 $91 $243 $244 reversed $57 $-1 #
coedge $-1 $91 $145 $239 $245 reversed $57 $-1 #
coedge $-1 $241 $246 $91 $148 forward $236 $-1 #
edge $-1 $247 8.2438148266582516 $248 16.974529713935368 $147 $249 forward 7 unknown #
loop $-1 $-1 $154 $92 #
plane-surface $-1 -71.275368511001901 -1.9424367800010849 3.2229065185484274 -0.61566148304635926 0 0.78801074757464917 0.78801074757464917 0 0.61566148304635926 forward_v I I I I #
loop $-1 $-1 $250 $59 #
coedge $-1 $152 $152 $153 $251 reversed $93 $-1 #
coedge $-1 $153 $153 $152 $251 forward $95 $-1 #
coedge $-1 $154 $154 $96 $155 forward $149 $-1 #
edge $-1 $252 0 $252 6.2831853071796004 $154 $253 forward 7 unknown #
loop $-1 $-1 $161 $97 #
plane-surface $-1 -71.275368511001901 -1.9424367800010849 3.2229065185484274 -0.61566148304635926 0 0.78801074757464917 0.78801074757464917 0 0.61566148304635926 forward_v I I I I #
loop $-1 $-1 $254 $62 #
coedge $-1 $159 $159 $160 $255 reversed $98 $-1 #
coedge $-1 $160 $160 $159 $255 forward $100 $-1 #
coedge $-1 $161 $161 $101 $162 forward $156 $-1 #
edge $-1 $256 0 $256 6.2831853071796004 $161 $257 forward 7 unknown #
face $-1 $258 $259 $35 $-1 $260 forward single #
loop $-1 $-1 $261 $102 #
plane-surface $-1 -159.03836667532033 18.373055777083422 115.55441936657489 0 -1 0 0.61566148304635926 0 -0.78801074757464917 forward_v I I I I #
coedge $-1 $262 $263 $264 $265 reversed $103 $-1 #
coedge $-1 $168 $105 $266 $267 reversed $66 $-1 #
coedge $-1 $105 $167 $262 $268 reversed $66 $-1 #
coedge $-1 $264 $269 $105 $170 forward $259 $-1 #
edge $-1 $270 8.2438148266582516 $271 16.974529713935368 $169 $272 forward 7 unknown #
loop $-1 $-1 $176 $106 #
plane-surface $-1 -71.275368511001901 13.720532400040298 3.2229065185484274 -0.61566148304635926 0 0.78801074757464917 0.78801074757464917 0 0.61566148304635926 forward_v I I I I #
loop $-1 $-1 $273 $68 #
coedge $-1 $174 $174 $175 $274 reversed $107 $-1 #
coedge $-1 $175 $175 $174 $274 forward $109 $-1 #
coedge $-1 $176 $176 $110 $177 forward $171 $-1 #
edge $-1 $275 0 $275 6.2831853071796004 $176 $276 forward 7 unknown #
loop $-1 $-1 $183 $111 #
plane-surface $-1 -71.275368511001901 13.720532400040298 3.2229065185484274 -0.61566148304635926 0 0.78801074757464917 0.78801074757464917 0 0.61566148304635926 forward_v I I I I #
loop $-1 $-1 $277 $71 #
coedge $-1 $181 $181 $182 $278 reversed $112 $-1 #
coedge $-1 $182 $182 $181 $278 forward $114 $-1 #
coedge $-1 $183 $183 $115 $184 forward $178 $-1 #
edge $-1 $279 0 $279 6.2831853071796004 $183 $280 forward 7 unknown #
face $-1 $281 $282 $38 $-1 $283 forward single #
loop $-1 $-1 $284 $116 #
plane-surface $-1 0 -17.12228589523145 7.9836818627532473 0 -1 0 0 0 -1 forward_v I I I I #
coedge $-1 $285 $286 $287 $288 reversed $117 $-1 #
coedge $-1 $190 $119 $289 $290 reversed $75 $-1 #
coedge $-1 $119 $189 $285 $291 reversed $75 $-1 #
coedge $-1 $287 $292 $119 $192 forward $282 $-1 #
edge $-1 $293 -54.870961617810359 $294 -45.89117042930112 $191 $295 forward 7 unknown #
loop $-1 $-1 $198 $120 #
plane-surface $-1 -46.904547776855239 -10.475125709190923 83.700504519449538 0.55919291073839883 0 0.82903756765294845 0.82903756765294845 0 -0.55919291073839883 forward_v I I I I #
loop $-1 $-1 $296 $77 #
coedge $-1 $196 $196 $197 $297 reversed $121 $-1 #
coedge $-1 $197 $197 $196 $297 forward $123 $-1 #
coedge $-1 $198 $198 $124 $199 forward $193 $-1 #
edge $-1 $298 0 $298 6.2831853071796004 $198 $299 forward 7 unknown #
face $-1 $300 $301 $30 $-1 $302 reversed single #
loop $-1 $-1 $303 $125 #
plane-surface $-1 -71.275368511001915 0 0 1 0 0 0 0 -1 forward_v I I I I #
coedge $-1 $304 $211 $305 $306 forward $126 $-1 #
coedge $-1 $307 $128 $304 $308 forward $81 $-1 #
coedge $-1 $128 $307 $309 $310 forward $81 $-1 #
coedge $-1 $214 $213 $128 $207 reversed $215 $-1 #
edge $-1 $311 -28.900381515270659 $312 28.900381515270659 $206 $313 forward 7 unknown #
coedge $-1 $130 $129 $314 $315 forward $51 $-1 #
coedge $-1 $316 $317 $129 $210 reversed $301 $-1 #
edge $-1 $217 -71.275368511001915 $318 71.275368511001915 $209 $319 forward 7 unknown #
coedge $-1 $203 $320 $130 $212 reversed $126 $-1 #
edge $-1 $321 -71.275368511001915 $216 71.275368511001915 $211 $322 forward 7 unknown #
coedge $-1 $206 $131 $320 $323 forward $215 $-1 #
coedge $-1 $131 $206 $316 $324 reversed $215 $-1 #
loop $-1 $-1 $213 $300 #
vertex $-1 $132 $325 #
vertex $-1 $132 $326 #
straight-curve $-1 71.275368511001915 0 10.044088706862109 0 1 0 I I #
face $-1 $327 $328 $31 $-1 $329 forward single #
loop $-1 $-1 $227 $133 #
plane-surface $-1 0 -28.900381515270659 0 0 1 0 0 0 1 forward_v I I I I #
coedge $-1 $330 $331 $223 $332 forward $134 $-1 #
coedge $-1 $333 $136 $222 $332 reversed $85 $-1 #
coedge $-1 $136 $333 $229 $334 reversed $85 $-1 #
edge $-1 $335 -71.275368511001915 $233 71.275368511001915 $136 $336 forward 7 unknown #
coedge $-1 $138 $137 $330 $337 reversed $54 $-1 #
coedge $-1 $338 $339 $137 $228 forward $220 $-1 #
edge $-1 $340 -71.275368511001915 $232 71.275368511001915 $227 $341 forward 7 unknown #
coedge $-1 $342 $139 $224 $334 forward $231 $-1 #
coedge $-1 $139 $342 $338 $343 forward $231 $-1 #
loop $-1 $-1 $229 $327 #
vertex $-1 $228 $344 #
vertex $-1 $140 $345 #
straight-curve $-1 71.275368511001915 -11.505666852625527 5.9232750186443868 0 1 0 I I #
face $-1 $-1 $346 $32 $-1 $347 reversed single #
loop $-1 $-1 $147 $141 #
plane-surface $-1 0 0 10.044088706862109 0 0 1 1 0 0 forward_v I I I I #
coedge $-1 $348 $349 $350 $351 reversed $142 $-1 #
coedge $-1 $352 $144 $146 $245 forward $89 $-1 #
coedge $-1 $144 $352 $348 $353 forward $89 $-1 #
coedge $-1 $350 $147 $144 $242 forward $236 $-1 #
edge $-1 $248 -5.6237417670436667 $354 3.6813049870425818 $241 $355 forward 7 unknown #
coedge $-1 $356 $357 $145 $244 forward $346 $-1 #
edge $-1 $358 -54.554303164739032 $247 -47.73312097642534 $243 $359 forward 7 unknown #
edge $-1 $248 -11.07943630737096 $358 1.8033521786330445e-014 $146 $360 forward 7 unknown #
coedge $-1 $147 $350 $356 $361 forward $236 $-1 #
vertex $-1 $244 $362 #
vertex $-1 $148 $363 #
straight-curve $-1 -79.519183337660166 -6.5949601570442091 10.044088706862105 1 0 0 I I #
coedge $-1 $250 $250 $-1 $364 reversed $151 $-1 #
edge $-1 $365 0 $365 6.2831853071796004 $152 $366 forward 7 unknown #
vertex $-1 $155 $367 #
ellipse-curve $-1 -66.910011067363371 -3.9363753701624233 6.6334976127052556 -0.61566148304635926 0 0.78801074757464917 0.78801074757464917 0 0.61566148304635926 1 I I #
coedge $-1 $254 $254 $-1 $368 reversed $158 $-1 #
edge $-1 $369 0 $369 6.2831853071796004 $159 $370 forward 7 unknown #
vertex $-1 $162 $371 #
ellipse-curve $-1 -66.910011067363371 0.051501810160253569 6.6334976127052556 -0.61566148304635926 0 0.78801074757464917 0.78801074757464917 0 0.61566148304635926 1 I I #
face $-1 $-1 $372 $35 $-1 $373 reversed single #
loop $-1 $-1 $169 $163 #
plane-surface $-1 0 0 10.044088706862109 0 0 1 1 0 0 forward_v I I I I #
coedge $-1 $374 $375 $376 $377 reversed $164 $-1 #
coedge $-1 $378 $166 $168 $268 forward $103 $-1 #
coedge $-1 $166 $378 $374 $379 forward $103 $-1 #
coedge $-1 $376 $169 $166 $265 forward $259 $-1 #
edge $-1 $271 2.2077428229770248 $380 11.512789577063273 $264 $381 forward 7 unknown #
coedge $-1 $382 $383 $167 $267 forward $372 $-1 #
edge $-1 $384 -54.554303164739032 $270 -47.73312097642534 $266 $385 forward 7 unknown #
edge $-1 $271 -11.07943630737096 $384 1.8033521786330445e-014 $168 $386 forward 7 unknown #
coedge $-1 $169 $376 $382 $387 forward $259 $-1 #
vertex $-1 $170 $388 #
vertex $-1 $170 $389 #
straight-curve $-1 -79.519183337660166 9.0680090229971739 10.044088706862105 1 0 0 I I #
coedge $-1 $273 $273 $-1 $390 reversed $173 $-1 #
edge $-1 $391 0 $391 6.2831853071796004 $174 $392 forward 7 unknown #
vertex $-1 $177 $393 #
ellipse-curve $-1 -66.910011067363371 11.726593809878956 6.6334976127052556 -0.61566148304635926 0 0.78801074757464917 0.78801074757464917 0 0.61566148304635926 1 I I #
coedge $-1 $277 $277 $-1 $394 reversed $180 $-1 #
edge $-1 $395 0 $395 6.2831853071796004 $181 $396 forward 7 unknown #
vertex $-1 $184 $397 #
ellipse-curve $-1 -66.910011067363371 15.71447099020164 6.6334976127052556 -0.61566148304635926 0 0.78801074757464917 0.78801074757464917 0 0.61566148304635926 1 I I #
face $-1 $-1 $398 $38 $-1 $399 reversed single #
loop $-1 $-1 $287 $185 #
plane-surface $-1 0 0 10.044088706862109 0 0 1 1 0 0 forward_v I I I I #
coedge $-1 $400 $401 $286 $402 reversed $186 $-1 #
coedge $-1 $403 $188 $190 $291 forward $117 $-1 #
coedge $-1 $188 $403 $284 $402 forward $117 $-1 #
coedge $-1 $404 $191 $188 $288 forward $282 $-1 #
edge $-1 $294 -1.4095973314450641 $405 11.884723040635988 $287 $406 forward 7 unknown #
coedge $-1 $407 $408 $189 $290 forward $398 $-1 #
edge $-1 $409 -96.953067447442166 $293 -90.896121696791241 $289 $410 forward 7 unknown #
edge $-1 $294 131.71915165255967 $409 142.55073702200383 $190 $411 forward 7 unknown #
coedge $-1 $191 $404 $407 $412 forward $282 $-1 #
vertex $-1 $290 $413 #
vertex $-1 $192 $414 #
straight-curve $-1 16.404406893191556 -3.8279655231503975 10.044088706862112 -1 0 0 I I #
coedge $-1 $296 $296 $-1 $415 reversed $195 $-1 #
edge $-1 $416 0 $416 6.2831853071796004 $196 $417 forward 7 unknown #
vertex $-1 $199 $418 #
ellipse-curve $-1 66.78547291674731 -10.475125709190923 7.0156158315366497 0.55919291073839883 0 0.82903756765294845 1.2435563514794228 0 -0.83878936610759824 1 I I #
face $-1 $-1 $215 $30 $-1 $419 reversed single #
loop $-1 $-1 $316 $200 #
plane-surface $-1 0 28.900381515270659 0 0 -1 0 0 0 -1 forward_v I I I I #
coedge $-1 $420 $314 $317 $421 forward $201 $-1 #
coedge $-1 $320 $203 $204 $308 reversed $126 $-1 #
coedge $-1 $314 $420 $203 $306 reversed $201 $-1 #
edge $-1 $321 -10.044088706862109 $422 10.044088706862109 $305 $423 forward 7 unknown #
coedge $-1 $205 $204 $420 $424 forward $81 $-1 #
edge $-1 $312 -71.275368511001915 $422 71.275368511001915 $304 $425 forward 7 unknown #
coedge $-1 $317 $316 $205 $310 reversed $301 $-1 #
edge $-1 $426 -71.275368511001915 $311 71.275368511001915 $309 $427 forward 7 unknown #
vertex $-1 $207 $428 #
vertex $-1 $323 $429 #
straight-curve $-1 71.275368511001915 0 -10.044088706862109 0 -1 0 I I #
coedge $-1 $303 $305 $208 $315 reversed $201 $-1 #
edge $-1 $318 -28.900381515270659 $321 28.900381515270659 $314 $430 forward 7 unknown #
coedge $-1 $309 $209 $214 $324 forward $301 $-1 #
coedge $-1 $209 $309 $303 $421 reversed $301 $-1 #
vertex $-1 $210 $431 #
straight-curve $-1 0 28.900381515270659 10.044088706862109 -1 0 0 I I #
coedge $-1 $211 $304 $213 $323 reversed $126 $-1 #
vertex $-1 $315 $432 #
straight-curve $-1 0 -28.900381515270659 10.044088706862109 1 0 0 I I #
edge $-1 $216 -10.044088706862109 $312 10.044088706862109 $213 $433 forward 7 unknown #
edge $-1 $217 -10.044088706862109 $311 10.044088706862109 $214 $434 forward 7 unknown #
point $-1 71.275368511001915 -28.900381515270659 10.044088706862109 #
point $-1 71.275368511001915 28.900381515270659 10.044088706862109 #
face $-1 $-1 $231 $31 $-1 $435 reversed single #
loop $-1 $-1 $436 $219 #
plane-surface $-1 0 0 10.044088706862109 0 0 1 1 0 0 forward_v I I I I #
coedge $-1 $437 $222 $226 $337 forward $134 $-1 #
coedge $-1 $222 $437 $438 $439 reversed $134 $-1 #
edge $-1 $440 -6.0522477754854851 $335 -1.9314340872677631 $222 $441 forward 7 unknown #
coedge $-1 $224 $223 $436 $442 reversed $85 $-1 #
edge $-1 $233 1.9314340872677631 $443 6.0522477754854851 $229 $444 forward 7 unknown #
vertex $-1 $337 $445 #
straight-curve $-1 0 -17.12228589523145 5.9232750186443868 1 0 0 I I #
edge $-1 $335 5.6166190426059224 $340 17.394714662645132 $330 $446 forward 7 unknown #
coedge $-1 $447 $227 $230 $343 reversed $220 $-1 #
coedge $-1 $227 $447 $437 $448 forward $220 $-1 #
vertex $-1 $228 $449 #
straight-curve $-1 0 -28.900381515270659 5.9232750186443868 1 0 0 I I #
coedge $-1 $230 $229 $450 $451 reversed $231 $-1 #
edge $-1 $452 -10.044088706862109 $232 -5.9232750186443868 $230 $453 forward 7 unknown #
point $-1 71.275368511001915 -28.900381515270659 5.9232750186443868 #
point $-1 71.275368511001915 -17.12228589523145 5.9232750186443868 #
loop $-1 $-1 $243 $235 #
plane-surface $-1 -71.275368511001915 0 0 1 0 0 0 0 -1 forward_v I I I I #
coedge $-1 $349 $238 $240 $353 reversed $142 $-1 #
coedge $-1 $238 $348 $454 $455 reversed $142 $-1 #
coedge $-1 $246 $241 $238 $351 forward $236 $-1 #
edge $-1 $354 -16.974529713935368 $456 -8.2438148266582516 $350 $457 forward 7 unknown #
coedge $-1 $240 $239 $357 $458 reversed $89 $-1 #
edge $-1 $459 -1.8033521786330445e-014 $354 11.07943630737096 $348 $460 forward 7 unknown #
vertex $-1 $242 $461 #
straight-curve $-1 -62.544653623724805 -0.97121839000054244 10.044088706862109 0 1 0 I I #
coedge $-1 $454 $243 $246 $361 reversed $346 $-1 #
coedge $-1 $243 $454 $352 $458 forward $346 $-1 #
vertex $-1 $244 $462 #
straight-curve $-1 -71.275368511001915 -6.5949601570442091 57.777209683287445 0 0 1 I I #
straight-curve $-1 -71.275368511001901 -6.5949601570442091 3.2229065185484274 -0.78801074757464917 0 -0.61566148304635926 I I #
edge $-1 $456 -2.7100865970420394 $247 6.5949601570442091 $356 $463 forward 7 unknown #
point $-1 -71.275368511001915 -6.5949601570442091 10.044088706862109 #
point $-1 -62.544653623724798 -6.5949601570442091 10.044088706862109 #
edge $-1 $464 1 $464 0 $250 $-1 forward 7 unknown #
vertex $-1 $251 $465 #
ellipse-curve $-1 -66.246268352128666 -3.9363753701624233 5.7839456955684572 -0.61566148304635926 0 0.78801074757464917 0.78801074757464917 0 0.61566148304635926 1 I I #
point $-1 -66.122000319788725 -3.9363753701624233 7.2491590957516312 #
edge $-1 $466 1 $466 0 $254 $-1 forward 7 unknown #
vertex $-1 $255 $467 #
ellipse-curve $-1 -66.246268352128666 0.051501810160253569 5.7839456955684572 -0.61566148304635926 0 0.78801074757464917 0.78801074757464917 0 0.61566148304635926 1 I I #
point $-1 -66.122000319788725 0.051501810160253569 7.2491590957516312 #
loop $-1 $-1 $266 $258 #
plane-surface $-1 -71.275368511001915 0 0 1 0 0 0 0 -1 forward_v I I I I #
coedge $-1 $375 $261 $263 $379 reversed $164 $-1 #
coedge $-1 $261 $374 $468 $469 reversed $164 $-1 #
coedge $-1 $269 $264 $261 $377 forward $259 $-1 #
edge $-1 $380 -16.974529713935368 $470 -8.2438148266582516 $376 $471 forward 7 unknown #
coedge $-1 $263 $262 $383 $472 reversed $103 $-1 #
edge $-1 $473 -1.8033521786330445e-014 $380 11.07943630737096 $374 $474 forward 7 unknown #
vertex $-1 $265 $475 #
straight-curve $-1 -62.544653623724805 6.8602662000201491 10.044088706862109 0 1 0 I I #
coedge $-1 $468 $266 $269 $387 reversed $372 $-1 #
coedge $-1 $266 $468 $378 $472 forward $372 $-1 #
vertex $-1 $267 $476 #
straight-curve $-1 -71.275368511001915 9.0680090229971739 57.777209683287445 0 0 1 I I #
straight-curve $-1 -71.275368511001901 9.0680090229971739 3.2229065185484274 -0.78801074757464917 0 -0.61566148304635926 I I #
edge $-1 $470 -18.373055777083422 $270 -9.0680090229971739 $382 $477 forward 7 unknown #
point $-1 -71.275368511001915 9.0680090229971739 10.044088706862109 #
point $-1 -62.544653623724798 9.0680090229971739 10.044088706862109 #
edge $-1 $478 1 $478 0 $273 $-1 forward 7 unknown #
vertex $-1 $274 $479 #
ellipse-curve $-1 -66.246268352128666 11.726593809878956 5.7839456955684572 -0.61566148304635926 0 0.78801074757464917 0.78801074757464917 0 0.61566148304635926 1 I I #
point $-1 -66.122000319788725 11.726593809878956 7.2491590957516312 #
edge $-1 $480 1 $480 0 $277 $-1 forward 7 unknown #
vertex $-1 $278 $481 #
ellipse-curve $-1 -66.246268352128666 15.71447099020164 5.7839456955684572 -0.61566148304635926 0 0.78801074757464917 0.78801074757464917 0 0.61566148304635926 1 I I #
point $-1 -66.122000319788725 15.71447099020164 7.2491590957516312 #
loop $-1 $-1 $289 $281 #
plane-surface $-1 71.275368511001915 0 0 -1 0 0 0 0 1 forward_v I I I I #
coedge $-1 $401 $284 $482 $483 reversed $186 $-1 #
coedge $-1 $284 $400 $404 $484 reversed $186 $-1 #
edge $-1 $485 -142.55073702200383 $405 -131.71915165255967 $284 $486 forward 7 unknown #
coedge $-1 $286 $285 $408 $487 reversed $117 $-1 #
coedge $-1 $292 $287 $401 $484 forward $282 $-1 #
vertex $-1 $484 $488 #
straight-curve $-1 62.295577322492697 -5.2375628545954616 10.044088706862105 0 -1 0 I I #
coedge $-1 $482 $289 $292 $412 reversed $398 $-1 #
coedge $-1 $289 $482 $403 $487 forward $398 $-1 #
vertex $-1 $290 $489 #
straight-curve $-1 71.275368511001915 -3.8279655231503975 100.94021040365335 0 0 1 I I #
straight-curve $-1 -46.904547776855239 -3.8279655231503975 83.700504519449538 0.82903756765294845 0 -0.55919291073839883 I I #
edge $-1 $490 -17.12228589523145 $293 -3.8279655231503975 $407 $491 forward 7 unknown #
point $-1 71.275368511001915 -3.8279655231503975 10.044088706862109 #
point $-1 62.295577322492676 -3.8279655231503975 10.044088706862112 #
edge $-1 $492 1 $492 0 $296 $-1 forward 7 unknown #
vertex $-1 $297 $493 #
ellipse-curve $-1 63.669841563912989 -10.475125709190923 2.3965024828958779 0.55919291073839883 0 0.82903756765294845 1.2435563514794228 0 -0.83878936610759824 1 I I #
point $-1 68.029029268226722 -10.475125709190923 6.1768264654290466 #
plane-surface $-1 71.275368511001915 0 0 -1 0 0 0 0 1 forward_v I I I I #
coedge $-1 $305 $303 $307 $424 reversed $201 $-1 #
edge $-1 $318 -10.044088706862109 $426 10.044088706862109 $317 $494 forward 7 unknown #
vertex $-1 $424 $495 #
straight-curve $-1 -71.275368511001915 -28.900381515270659 0 0 0 -1 I I #
edge $-1 $422 -28.900381515270659 $426 28.900381515270659 $420 $496 forward 7 unknown #
straight-curve $-1 0 -28.900381515270659 -10.044088706862109 -1 0 0 I I #
vertex $-1 $310 $497 #
straight-curve $-1 0 28.900381515270659 -10.044088706862109 1 0 0 I I #
point $-1 71.275368511001915 28.900381515270659 -10.044088706862109 #
point $-1 71.275368511001915 -28.900381515270659 -10.044088706862109 #
straight-curve $-1 -71.275368511001915 0 10.044088706862109 0 -1 0 I I #
point $-1 -71.275368511001915 28.900381515270659 10.044088706862109 #
point $-1 -71.275368511001915 -28.900381515270659 10.044088706862109 #
straight-curve $-1 71.275368511001915 -28.900381515270659 0 0 0 -1 I I #
straight-curve $-1 71.275368511001915 28.900381515270659 0 0 0 -1 I I #
plane-surface $-1 71.275368511001915 0 0 -1 0 0 0 0 1 forward_v I I I I #
coedge $-1 $438 $450 $333 $442 forward $328 $-1 #
coedge $-1 $331 $330 $339 $448 reversed $134 $-1 #
coedge $-1 $498 $436 $331 $439 forward $328 $-1 #
edge $-1 $440 17.12228589523145 $499 28.900381515270659 $331 $500 forward 7 unknown #
vertex $-1 $439 $501 #
straight-curve $-1 -71.275368511001915 -17.12228589523145 3.9918409313766237 0 0 -1 I I #
edge $-1 $443 -71.275368511001915 $440 71.275368511001915 $436 $502 forward 7 unknown #
vertex $-1 $334 $503 #
straight-curve $-1 71.275368511001915 -17.12228589523145 3.9918409313766237 0 0 1 I I #
point $-1 -71.275368511001915 -17.12228589523145 5.9232750186443868 #
straight-curve $-1 -71.275368511001915 -11.505666852625527 5.9232750186443868 0 -1 0 I I #
coedge $-1 $339 $338 $498 $504 reversed $220 $-1 #
edge $-1 $499 -10.044088706862109 $340 -5.9232750186443868 $437 $505 forward 7 unknown #
point $-1 -71.275368511001915 -28.900381515270659 5.9232750186443868 #
coedge $-1 $436 $498 $342 $451 forward $328 $-1 #
edge $-1 $452 -28.900381515270659 $443 -17.12228589523145 $342 $506 forward 7 unknown #
vertex $-1 $451 $507 #
straight-curve $-1 71.275368511001915 -28.900381515270659 0 0 0 -1 I I #
coedge $-1 $357 $356 $349 $455 forward $346 $-1 #
edge $-1 $456 47.73312097642534 $459 54.554303164739032 $454 $508 forward 7 unknown #
vertex $-1 $361 $509 #
straight-curve $-1 -79.519183337660166 2.7100865970420394 10.044088706862105 -1 0 0 I I #
edge $-1 $459 -3.6813049870425818 $358 5.6237417670436667 $357 $510 forward 7 unknown #
vertex $-1 $458 $511 #
straight-curve $-1 -71.275368511001901 2.7100865970420394 3.2229065185484274 0.78801074757464917 0 0.61566148304635926 I I #
point $-1 -62.544653623724798 2.7100865970420394 10.044088706862109 #
point $-1 -71.275368511001915 -6.5949601570442091 3.2229065185484163 #
straight-curve $-1 -71.275368511001915 0 10.044088706862109 0 -1 0 I I #
vertex $-1 $364 $512 #
point $-1 -65.458257604554021 -3.9363753701624233 6.3996071786148168 #
vertex $-1 $368 $513 #
point $-1 -65.458257604554021 0.051501810160253569 6.3996071786148168 #
coedge $-1 $383 $382 $375 $469 forward $372 $-1 #
edge $-1 $470 47.73312097642534 $473 54.554303164739032 $468 $514 forward 7 unknown #
vertex $-1 $387 $515 #
straight-curve $-1 -79.519183337660166 18.373055777083422 10.044088706862105 -1 0 0 I I #
edge $-1 $473 -11.512789577063273 $384 -2.2077428229770248 $383 $516 forward 7 unknown #
vertex $-1 $472 $517 #
straight-curve $-1 -71.275368511001901 18.373055777083422 3.2229065185484274 0.78801074757464917 0 0.61566148304635926 I I #
point $-1 -62.544653623724798 18.373055777083422 10.044088706862109 #
point $-1 -71.275368511001915 9.0680090229971739 3.2229065185484163 #
straight-curve $-1 -71.275368511001915 0 10.044088706862109 0 -1 0 I I #
vertex $-1 $390 $518 #
point $-1 -65.458257604554021 11.726593809878956 6.3996071786148168 #
vertex $-1 $394 $519 #
point $-1 -65.458257604554021 15.71447099020164 6.3996071786148168 #
coedge $-1 $408 $407 $400 $483 forward $398 $-1 #
edge $-1 $490 90.896121696791241 $485 96.953067447442166 $482 $520 forward 7 unknown #
edge $-1 $405 62.295577322492676 $490 71.275368511001915 $404 $521 forward 7 unknown #
vertex $-1 $483 $522 #
straight-curve $-1 -46.904547776855239 -17.12228589523145 83.700504519449538 -0.82903756765294845 0 0.55919291073839883 I I #
edge $-1 $485 -11.884723040635988 $409 1.4095973314450641 $408 $523 forward 7 unknown #
point $-1 62.295577322492676 -17.12228589523145 10.044088706862112 #
point $-1 71.275368511001929 -3.8279655231503975 3.9871429562111871 #
vertex $-1 $412 $524 #
straight-curve $-1 71.275368511001915 0 10.044088706862109 0 1 0 I I #
vertex $-1 $415 $525 #
point $-1 64.913397915392409 -10.475125709190923 1.5577131167882794 #
straight-curve $-1 -71.275368511001915 28.900381515270659 0 0 0 -1 I I #
point $-1 -71.275368511001915 -28.900381515270659 -10.044088706862109 #
straight-curve $-1 -71.275368511001915 0 -10.044088706862109 0 1 0 I I #
point $-1 -71.275368511001915 28.900381515270659 -10.044088706862109 #
coedge $-1 $450 $438 $447 $504 forward $328 $-1 #
vertex $-1 $439 $526 #
straight-curve $-1 -71.275368511001915 0 10.044088706862109 0 -1 0 I I #
point $-1 -71.275368511001915 -17.12228589523145 10.044088706862109 #
straight-curve $-1 0 -17.12228589523145 10.044088706862109 -1 0 0 I I #
point $-1 71.275368511001915 -17.12228589523145 10.044088706862109 #
edge $-1 $499 -71.275368511001915 $452 71.275368511001915 $447 $527 forward 7 unknown #
straight-curve $-1 -71.275368511001915 -28.900381515270659 0 0 0 -1 I I #
straight-curve $-1 71.275368511001915 0 10.044088706862109 0 1 0 I I #
point $-1 71.275368511001915 -28.900381515270659 10.044088706862109 #
straight-curve $-1 -71.275368511001915 2.7100865970420394 57.777209683287445 0 0 -1 I I #
point $-1 -71.275368511001915 2.7100865970420394 10.044088706862109 #
straight-curve $-1 -71.275368511001915 -0.97121839000054244 3.2229065185484269 0 -1 0 I I #
point $-1 -71.275368511001915 2.7100865970420394 3.2229065185484163 #
point $-1 -65.630606869082314 -3.9363753701624233 4.995934947993808 #
point $-1 -65.630606869082314 0.051501810160253569 4.995934947993808 #
straight-curve $-1 -71.275368511001915 18.373055777083422 57.777209683287445 0 0 -1 I I #
point $-1 -71.275368511001915 18.373055777083422 10.044088706862109 #
straight-curve $-1 -71.275368511001915 6.8602662000201491 3.2229065185484269 0 -1 0 I I #
point $-1 -71.275368511001915 18.373055777083422 3.2229065185484163 #
point $-1 -65.630606869082314 11.726593809878956 4.995934947993808 #
point $-1 -65.630606869082314 15.71447099020164 4.995934947993808 #
straight-curve $-1 71.275368511001915 -17.12228589523145 100.94021040365335 0 0 -1 I I #
straight-curve $-1 0 -17.12228589523145 10.044088706862109 1 0 0 I I #
point $-1 71.275368511001929 -17.12228589523145 3.9871429562111871 #
straight-curve $-1 71.275368511001915 -5.2375628545954616 3.9871429562111871 0 1 0 I I #
point $-1 71.275368511001915 -17.12228589523145 10.044088706862109 #
point $-1 62.831052197805384 -10.475125709190923 1.1529461314164549 #
point $-1 -71.275368511001915 -28.900381515270659 10.044088706862109 #
straight-curve $-1 0 -28.900381515270659 10.044088706862109 1 0 0 I I #
End-of-ACIS-data 