500 0 9 0           
7 Unknown 11 ACIS 5.0 NT 24 Fri Mar 26 02:36:04 1999 
-1 9.9999999999999995e-007 1e-010 
body $-1 $9 $-1 $10 #
body $-1 $11 $-1 $12 #
body $-1 $13 $-1 $14 #
body $-1 $15 $-1 $16 #
body $-1 $17 $-1 $18 #
body $-1 $19 $-1 $20 #
body $-1 $21 $-1 $22 #
body $-1 $23 $-1 $24 #
body $-1 $25 $-1 $26 #
lump $-1 $-1 $27 $0 #
transform $-1 1 0 0 0 1 0 0 0 1 47.400128177739802 28.265763864698702 9.4858133415257058 1 rotate no_reflect no_shear #
lump $-1 $-1 $28 $1 #
transform $-1 1 0 0 0 1 0 0 0 1 47.400128177739802 28.265763864698702 9.4858133415257058 1 rotate no_reflect no_shear #
lump $-1 $-1 $29 $2 #
transform $-1 1 0 0 0 1 0 0 0 1 47.400128177739802 28.265763864698702 9.4858133415257058 1 rotate no_reflect no_shear #
lump $-1 $-1 $30 $3 #
transform $-1 1 0 0 0 1 0 0 0 1 47.400128177739802 28.265763864698702 9.4858133415257058 1 rotate no_reflect no_shear #
lump $-1 $-1 $31 $4 #
transform $-1 1 0 0 0 1 0 0 0 1 47.400128177739802 28.265763864698702 9.4858133415257058 1 rotate no_reflect no_shear #
lump $-1 $-1 $32 $5 #
transform $-1 1 0 0 0 1 0 0 0 1 47.400128177739802 28.265763864698702 9.4858133415257058 1 rotate no_reflect no_shear #
lump $-1 $-1 $33 $6 #
transform $-1 1 0 0 0 1 0 0 0 1 47.400128177739802 28.265763864698702 9.4858133415257058 1 rotate no_reflect no_shear #
lump $-1 $-1 $34 $7 #
transform $-1 1 0 0 0 1 0 0 0 1 47.400128177739802 28.265763864698702 9.4858133415257058 1 rotate no_reflect no_shear #
lump $-1 $-1 $35 $8 #
transform $-1 1 0 0 0 1 0 0 0 1 47.400128177739802 28.265763864698702 9.4858133415257058 1 rotate no_reflect no_shear #
shell $-1 $-1 $-1 $36 $-1 $9 #
shell $-1 $-1 $-1 $37 $-1 $11 #
shell $-1 $-1 $-1 $38 $-1 $13 #
shell $-1 $-1 $-1 $39 $-1 $15 #
shell $-1 $-1 $-1 $40 $-1 $17 #
shell $-1 $-1 $-1 $41 $-1 $19 #
shell $-1 $-1 $-1 $42 $-1 $21 #
shell $-1 $-1 $-1 $43 $-1 $23 #
shell $-1 $-1 $-1 $44 $-1 $25 #
face $-1 $45 $46 $27 $-1 $47 forward single #
face $-1 $48 $49 $28 $-1 $50 forward single #
face $-1 $51 $52 $29 $-1 $53 forward single #
face $-1 $54 $55 $30 $-1 $56 reversed single #
face $-1 $57 $58 $31 $-1 $59 forward single #
face $-1 $60 $61 $32 $-1 $62 forward single #
face $-1 $63 $64 $33 $-1 $65 reversed single #
face $-1 $66 $67 $34 $-1 $68 forward single #
face $-1 $69 $70 $35 $-1 $71 forward single #
face $-1 $72 $73 $27 $-1 $74 reversed single #
loop $-1 $-1 $75 $36 #
plane-surface $-1 0 0 9.4858133415257058 0 0 1 1 0 0 forward_v I I I I #
face $-1 $76 $77 $28 $-1 $78 reversed single #
loop $-1 $-1 $79 $37 #
plane-surface $-1 -41.414434344316255 0 -3.872141023923803 0 0 1 1 0 0 forward_v I I I I #
face $-1 $80 $81 $29 $-1 $82 reversed single #
loop $-1 $-1 $83 $38 #
plane-surface $-1 41.414434344316263 0 -3.872141023923803 0 0 1 1 0 0 forward_v I I I I #
face $-1 $84 $85 $30 $-1 $86 reversed single #
loop $-1 $-1 $87 $39 #
plane-surface $-1 35.428740510892709 40.169897903005022 114.12697881899683 -1 0 0 0 0.6018150307709319 0.79863550430605224 forward_v I I I I #
face $-1 $88 $89 $31 $-1 $90 forward single #
loop $-1 $91 $92 $40 #
cone-surface $-1 25.010757866166614 23.100462788874701 4.5685540453248201 0 -0.6018150307709319 -0.79863550430605224 2 0 0 1 I I 0 1 2 forward I I I I #
face $-1 $93 $94 $32 $-1 $95 forward single #
loop $-1 $96 $97 $41 #
cone-surface $-1 31.261547453002265 23.100462788874701 4.5685540453248201 0 -0.6018150307709319 -0.79863550430605224 2 0 0 1 I I 0 1 2 forward I I I I #
face $-1 $98 $99 $33 $-1 $100 reversed single #
loop $-1 $-1 $101 $42 #
plane-surface $-1 -35.428740510892702 -96.459362124553735 71.475805510468433 1 0 0 0 0.71933980857756763 -0.69465836192734942 forward_v I I I I #
face $-1 $102 $103 $34 $-1 $104 forward single #
loop $-1 $105 $106 $43 #
cone-surface $-1 -30.414108427070417 -25.706276309441865 6.8838475968238155 0 0.71933980857756763 -0.69465836192734942 1 0 0 1 I I 0 1 1 forward I I I I #
face $-1 $107 $108 $35 $-1 $109 forward single #
loop $-1 $110 $111 $44 #
cone-surface $-1 -22.892160301336986 -25.706276309441865 6.8838475968238155 0 0.71933980857756763 -0.69465836192734942 1 0 0 1 I I 0 1 1 forward I I I I #
face $-1 $112 $113 $27 $-1 $114 reversed single #
loop $-1 $-1 $115 $45 #
plane-surface $-1 0 0 -9.4858133415257058 0 0 1 1 0 0 forward_v I I I I #
coedge $-1 $116 $117 $118 $119 forward $46 $-1 #
face $-1 $120 $121 $28 $-1 $122 reversed single #
loop $-1 $-1 $123 $48 #
plane-surface $-1 -35.428740510892709 0 -6.6789771827247542 -1 0 0 0 0 1 forward_v I I I I #
coedge $-1 $124 $125 $126 $127 forward $49 $-1 #
face $-1 $128 $129 $29 $-1 $130 reversed single #
loop $-1 $-1 $131 $51 #
plane-surface $-1 35.428740510892716 0 -6.6789771827247542 1 0 0 0 0 -1 forward_v I I I I #
coedge $-1 $132 $133 $134 $135 reversed $52 $-1 #
face $-1 $136 $137 $30 $-1 $138 reversed single #
loop $-1 $-1 $139 $54 #
plane-surface $-1 28.13615265958444 -16.882321292660166 38.416128276195352 0 0.6018150307709319 0.79863550430605224 1 0 0 forward_v I I I I #
coedge $-1 $140 $141 $142 $143 reversed $55 $-1 #
face $-1 $-1 $144 $31 $-1 $145 forward single #
loop $-1 $146 $147 $57 #
cone-surface $-1 25.010757866166614 20.711477331021758 1.3982633274806133 0 -0.6018150307709319 -0.79863550430605224 1 0 0 1 I I -0.70710678118654746 0.70710678118654746 1 forward I I I I #
loop $-1 $-1 $148 $40 #
coedge $-1 $92 $92 $149 $150 reversed $58 $-1 #
face $-1 $-1 $151 $32 $-1 $152 forward single #
loop $-1 $153 $154 $60 #
cone-surface $-1 31.261547453002265 20.711477331021758 1.3982633274806133 0 -0.6018150307709319 -0.79863550430605224 1 0 0 1 I I -0.70710678118654746 0.70710678118654746 1 forward I I I I #
loop $-1 $-1 $155 $41 #
coedge $-1 $97 $97 $156 $157 reversed $61 $-1 #
face $-1 $158 $159 $33 $-1 $160 reversed single #
loop $-1 $-1 $161 $63 #
plane-surface $-1 -26.653134364203702 -28.265763864698698 5.6220147202781732 0 -0.71933980857756763 0.69465836192734942 1 0 0 forward_v I I I I #
coedge $-1 $162 $163 $164 $165 reversed $64 $-1 #
face $-1 $-1 $166 $34 $-1 $167 forward single #
loop $-1 $168 $169 $66 #
cone-surface $-1 -30.414108427070417 -24.652732283942374 5.8664519817820207 0 0.71933980857756763 -0.69465836192734942 0.5 0 0 1 I I -0.70710678118654746 0.70710678118654746 0.5 forward I I I I #
loop $-1 $-1 $170 $43 #
coedge $-1 $106 $106 $171 $172 reversed $67 $-1 #
face $-1 $-1 $173 $35 $-1 $174 forward single #
loop $-1 $175 $176 $69 #
cone-surface $-1 -22.892160301336986 -24.652732283942374 5.8664519817820207 0 0.71933980857756763 -0.69465836192734942 0.5 0 0 1 I I -0.70710678118654746 0.70710678118654746 0.5 forward I I I I #
loop $-1 $-1 $177 $44 #
coedge $-1 $111 $111 $178 $179 reversed $70 $-1 #
face $-1 $180 $181 $27 $-1 $182 reversed single #
loop $-1 $-1 $183 $72 #
plane-surface $-1 0 -28.265763864698702 0 0 1 0 0 0 1 forward_v I I I I #
coedge $-1 $184 $185 $186 $187 forward $73 $-1 #
coedge $-1 $188 $75 $189 $190 forward $46 $-1 #
coedge $-1 $75 $188 $191 $192 forward $46 $-1 #
coedge $-1 $193 $194 $75 $119 reversed $195 $-1 #
edge $-1 $196 -28.265763864698702 $197 28.265763864698702 $118 $198 forward 7 unknown #
face $-1 $199 $200 $28 $-1 $201 reversed single #
loop $-1 $-1 $202 $76 #
plane-surface $-1 0 0 -9.4858133415257058 0 0 1 1 0 0 forward_v I I I I #
coedge $-1 $203 $126 $204 $205 reversed $77 $-1 #
coedge $-1 $206 $79 $207 $208 reversed $49 $-1 #
coedge $-1 $79 $206 $209 $210 reversed $49 $-1 #
coedge $-1 $123 $211 $79 $127 reversed $77 $-1 #
edge $-1 $212 -28.265763864698702 $213 28.265763864698702 $126 $214 forward 7 unknown #
face $-1 $215 $216 $29 $-1 $217 reversed single #
loop $-1 $-1 $218 $80 #
plane-surface $-1 0 -28.265763864698702 0 0 1 0 0 0 1 forward_v I I I I #
coedge $-1 $219 $220 $221 $222 reversed $81 $-1 #
coedge $-1 $223 $83 $224 $225 reversed $52 $-1 #
coedge $-1 $83 $223 $218 $226 reversed $52 $-1 #
coedge $-1 $227 $228 $83 $135 forward $229 $-1 #
edge $-1 $230 -28.265763864698702 $231 28.265763864698702 $134 $232 forward 7 unknown #
face $-1 $233 $234 $30 $-1 $235 reversed single #
loop $-1 $-1 $236 $84 #
plane-surface $-1 20.84356480827617 40.169897903005022 114.12697881899683 1 0 0 0 -0.6018150307709319 -0.79863550430605224 forward_v I I I I #
coedge $-1 $237 $238 $239 $240 reversed $85 $-1 #
coedge $-1 $141 $87 $241 $242 reversed $55 $-1 #
coedge $-1 $87 $140 $237 $243 reversed $55 $-1 #
coedge $-1 $239 $244 $87 $143 forward $234 $-1 #
edge $-1 $245 47.57767606797271 $246 52.668884233298151 $142 $247 forward 7 unknown #
loop $-1 $-1 $149 $88 #
plane-surface $-1 28.13615265958444 -16.882321292660166 38.416128276195352 0 0.6018150307709319 0.79863550430605224 1 0 0 forward_v I I I I #
loop $-1 $-1 $248 $57 #
coedge $-1 $147 $147 $148 $249 reversed $89 $-1 #
coedge $-1 $148 $148 $147 $249 forward $91 $-1 #
coedge $-1 $149 $149 $92 $150 forward $144 $-1 #
edge $-1 $250 1.1715701418404661e-015 $250 6.2831853071796013 $149 $251 forward 7 unknown #
loop $-1 $-1 $156 $93 #
plane-surface $-1 28.13615265958444 -16.882321292660166 38.416128276195352 0 0.6018150307709319 0.79863550430605224 1 0 0 forward_v I I I I #
loop $-1 $-1 $252 $60 #
coedge $-1 $154 $154 $155 $253 reversed $94 $-1 #
coedge $-1 $155 $155 $154 $253 forward $96 $-1 #
coedge $-1 $156 $156 $97 $157 forward $151 $-1 #
edge $-1 $254 1.1715701418404661e-015 $254 6.2831853071796013 $156 $255 forward 7 unknown #
face $-1 $256 $257 $33 $-1 $258 forward single #
loop $-1 $-1 $259 $98 #
plane-surface $-1 -17.877528217514701 -96.459362124553735 71.475805510468433 -1 0 0 0 -0.71933980857756763 0.69465836192734942 forward_v I I I I #
coedge $-1 $260 $261 $262 $263 reversed $99 $-1 #
coedge $-1 $163 $101 $264 $265 reversed $64 $-1 #
coedge $-1 $101 $162 $260 $266 reversed $64 $-1 #
coedge $-1 $262 $267 $101 $165 forward $268 $-1 #
edge $-1 $269 26.252089413708511 $270 30.115888034956047 $164 $271 forward 7 unknown #
loop $-1 $-1 $171 $102 #
plane-surface $-1 -26.653134364203702 -28.265763864698698 5.6220147202781732 0 -0.71933980857756763 0.69465836192734942 1 0 0 forward_v I I I I #
loop $-1 $-1 $272 $66 #
coedge $-1 $169 $169 $170 $273 reversed $103 $-1 #
coedge $-1 $170 $170 $169 $273 forward $105 $-1 #
coedge $-1 $171 $171 $106 $172 forward $166 $-1 #
edge $-1 $274 5.5121598128299967e-016 $274 6.2831853071796013 $171 $275 forward 7 unknown #
loop $-1 $-1 $178 $107 #
plane-surface $-1 -26.653134364203702 -28.265763864698698 5.6220147202781732 0 -0.71933980857756763 0.69465836192734942 1 0 0 forward_v I I I I #
loop $-1 $-1 $276 $69 #
coedge $-1 $176 $176 $177 $277 reversed $108 $-1 #
coedge $-1 $177 $177 $176 $277 forward $110 $-1 #
coedge $-1 $178 $178 $111 $179 forward $173 $-1 #
edge $-1 $278 5.5121598128299967e-016 $278 6.2831853071796013 $178 $279 forward 7 unknown #
face $-1 $280 $281 $27 $-1 $282 reversed single #
loop $-1 $-1 $283 $112 #
plane-surface $-1 -47.400128177739802 0 0 1 0 0 0 0 -1 forward_v I I I I #
coedge $-1 $284 $191 $285 $286 forward $113 $-1 #
coedge $-1 $287 $115 $284 $288 forward $73 $-1 #
coedge $-1 $115 $287 $289 $290 forward $73 $-1 #
coedge $-1 $194 $193 $115 $187 reversed $195 $-1 #
edge $-1 $291 -28.265763864698702 $292 28.265763864698702 $186 $293 forward 7 unknown #
coedge $-1 $117 $116 $294 $295 forward $46 $-1 #
coedge $-1 $296 $297 $116 $190 reversed $281 $-1 #
edge $-1 $197 -47.400128177739802 $298 47.400128177739802 $189 $299 forward 7 unknown #
coedge $-1 $183 $300 $117 $192 reversed $113 $-1 #
edge $-1 $301 -47.400128177739802 $196 47.400128177739802 $191 $302 forward 7 unknown #
coedge $-1 $186 $118 $300 $303 forward $195 $-1 #
coedge $-1 $118 $186 $296 $304 reversed $195 $-1 #
loop $-1 $-1 $193 $280 #
vertex $-1 $119 $305 #
vertex $-1 $119 $306 #
straight-curve $-1 47.400128177739802 0 9.4858133415257058 0 1 0 I I #
face $-1 $307 $308 $28 $-1 $309 reversed single #
loop $-1 $-1 $204 $120 #
plane-surface $-1 0 -28.265763864698702 0 0 1 0 0 0 1 forward_v I I I I #
coedge $-1 $310 $311 $203 $312 forward $121 $-1 #
coedge $-1 $211 $123 $202 $312 reversed $77 $-1 #
coedge $-1 $209 $313 $123 $205 forward $200 $-1 #
edge $-1 $314 -6.1463247501633287 $212 -0.53265243256142591 $204 $315 forward 7 unknown #
coedge $-1 $125 $124 $316 $317 reversed $49 $-1 #
coedge $-1 $318 $319 $124 $208 forward $320 $-1 #
edge $-1 $321 -26.692911005581674 $213 -14.721523338734581 $207 $322 forward 7 unknown #
coedge $-1 $323 $204 $125 $210 forward $200 $-1 #
edge $-1 $212 14.721523338734581 $324 26.692911005581674 $209 $325 forward 7 unknown #
coedge $-1 $126 $203 $318 $326 reversed $77 $-1 #
vertex $-1 $210 $327 #
vertex $-1 $208 $328 #
straight-curve $-1 -35.428740510892709 0 -3.872141023923803 0 1 0 I I #
face $-1 $329 $330 $29 $-1 $331 reversed single #
loop $-1 $-1 $332 $128 #
plane-surface $-1 0 0 -9.4858133415257058 0 0 1 1 0 0 forward_v I I I I #
coedge $-1 $333 $334 $133 $226 forward $129 $-1 #
coedge $-1 $335 $131 $332 $336 reversed $81 $-1 #
coedge $-1 $131 $335 $223 $337 reversed $81 $-1 #
coedge $-1 $224 $338 $131 $222 forward $330 $-1 #
edge $-1 $339 -6.1463247501633287 $340 -0.53265243256142591 $221 $341 forward 7 unknown #
coedge $-1 $133 $132 $220 $337 forward $52 $-1 #
coedge $-1 $342 $221 $132 $225 forward $330 $-1 #
edge $-1 $340 14.721523338734585 $230 26.692911005581678 $224 $343 forward 7 unknown #
edge $-1 $231 -26.692911005581678 $344 -14.721523338734585 $218 $345 forward 7 unknown #
coedge $-1 $346 $134 $334 $347 forward $229 $-1 #
coedge $-1 $134 $346 $342 $348 reversed $229 $-1 #
loop $-1 $-1 $134 $329 #
vertex $-1 $348 $349 #
vertex $-1 $347 $350 #
straight-curve $-1 47.400128177739802 0 -3.872141023923803 0 -1 0 I I #
face $-1 $-1 $351 $30 $-1 $352 forward single #
loop $-1 $-1 $142 $136 #
plane-surface $-1 0 28.265763864698702 0 0 -1 0 0 0 -1 forward_v I I I I #
coedge $-1 $353 $354 $355 $356 reversed $137 $-1 #
coedge $-1 $357 $139 $141 $243 forward $85 $-1 #
coedge $-1 $139 $357 $353 $358 forward $85 $-1 #
coedge $-1 $355 $142 $139 $240 forward $234 $-1 #
edge $-1 $246 -21.360664181100489 $359 -6.7754884784839504 $239 $360 forward 7 unknown #
coedge $-1 $361 $362 $140 $242 forward $351 $-1 #
edge $-1 $363 1.4245536157122203 $245 8.1808149131961905 $241 $364 forward 7 unknown #
edge $-1 $246 -56.531527729397396 $363 -48.071771982181282 $141 $365 forward 7 unknown #
coedge $-1 $142 $355 $361 $366 reversed $234 $-1 #
vertex $-1 $366 $367 #
vertex $-1 $143 $368 #
straight-curve $-1 35.428740510892709 28.265763864698702 57.063489409498416 0 0 -1 I I #
coedge $-1 $248 $248 $-1 $369 reversed $146 $-1 #
edge $-1 $370 0 $370 6.2831853071796004 $147 $371 forward 7 unknown #
vertex $-1 $150 $372 #
ellipse-curve $-1 25.010757866166614 24.887633215956722 6.9402092588629873 0 0.6018150307709319 0.79863550430605224 2 0 0 1 I I #
coedge $-1 $252 $252 $-1 $373 reversed $153 $-1 #
edge $-1 $374 0 $374 6.2831853071796004 $154 $375 forward 7 unknown #
vertex $-1 $157 $376 #
ellipse-curve $-1 31.261547453002265 24.887633215956722 6.9402092588629873 0 0.6018150307709319 0.79863550430605224 2 0 0 1 I I #
face $-1 $-1 $268 $33 $-1 $377 reversed single #
loop $-1 $-1 $378 $158 #
plane-surface $-1 0 0 9.4858133415257058 0 0 1 1 0 0 forward_v I I I I #
coedge $-1 $379 $380 $381 $382 reversed $159 $-1 #
coedge $-1 $383 $161 $163 $266 forward $99 $-1 #
coedge $-1 $161 $383 $379 $384 forward $99 $-1 #
coedge $-1 $381 $164 $161 $263 forward $268 $-1 #
edge $-1 $270 -22.102173328790851 $385 -4.5509610354128505 $262 $386 forward 7 unknown #
coedge $-1 $387 $388 $162 $265 forward $257 $-1 #
edge $-1 $389 -23.695144065670426 $269 -19.963917197578166 $264 $390 forward 7 unknown #
edge $-1 $270 -5.0235306421517022e-015 $389 5.3713121047587506 $163 $391 forward 7 unknown #
coedge $-1 $164 $381 $387 $392 reversed $268 $-1 #
loop $-1 $-1 $381 $256 #
vertex $-1 $392 $393 #
vertex $-1 $165 $394 #
straight-curve $-1 -35.428740510892702 -28.265763864698698 35.737902755234217 0 0 -1 I I #
coedge $-1 $272 $272 $-1 $395 reversed $168 $-1 #
edge $-1 $396 0 $396 6.2831853071796004 $169 $397 forward 7 unknown #
vertex $-1 $172 $398 #
ellipse-curve $-1 -30.414108427070417 -26.400150430652573 7.5539140309019368 0 -0.71933980857756763 0.69465836192734942 1 0 0 1 I I #
coedge $-1 $276 $276 $-1 $399 reversed $175 $-1 #
edge $-1 $400 0 $400 6.2831853071796004 $176 $401 forward 7 unknown #
vertex $-1 $179 $402 #
ellipse-curve $-1 -22.892160301336986 -26.400150430652573 7.5539140309019368 0 -0.71933980857756763 0.69465836192734942 1 0 0 1 I I #
face $-1 $-1 $195 $27 $-1 $403 reversed single #
loop $-1 $-1 $296 $180 #
plane-surface $-1 0 28.265763864698702 0 0 -1 0 0 0 -1 forward_v I I I I #
coedge $-1 $404 $294 $297 $405 forward $181 $-1 #
coedge $-1 $300 $183 $184 $288 reversed $113 $-1 #
coedge $-1 $294 $404 $183 $286 reversed $181 $-1 #
edge $-1 $301 -9.4858133415257058 $406 9.4858133415257058 $285 $407 forward 7 unknown #
coedge $-1 $185 $184 $404 $408 forward $73 $-1 #
edge $-1 $292 -47.400128177739802 $406 47.400128177739802 $284 $409 forward 7 unknown #
coedge $-1 $297 $296 $185 $290 reversed $281 $-1 #
edge $-1 $410 -47.400128177739802 $291 47.400128177739802 $289 $411 forward 7 unknown #
vertex $-1 $187 $412 #
vertex $-1 $303 $413 #
straight-curve $-1 47.400128177739802 0 -9.4858133415257058 0 -1 0 I I #
coedge $-1 $283 $285 $188 $295 reversed $181 $-1 #
edge $-1 $298 -28.265763864698702 $301 28.265763864698702 $294 $414 forward 7 unknown #
coedge $-1 $289 $189 $194 $304 forward $281 $-1 #
coedge $-1 $189 $289 $283 $405 reversed $281 $-1 #
vertex $-1 $190 $415 #
straight-curve $-1 0 28.265763864698702 9.4858133415257058 -1 0 0 I I #
coedge $-1 $191 $284 $193 $303 reversed $113 $-1 #
vertex $-1 $295 $416 #
straight-curve $-1 0 -28.265763864698702 9.4858133415257058 1 0 0 I I #
edge $-1 $196 -9.4858133415257058 $292 9.4858133415257058 $193 $417 forward 7 unknown #
edge $-1 $197 -9.4858133415257058 $291 9.4858133415257058 $194 $418 forward 7 unknown #
point $-1 47.400128177739802 -28.265763864698702 9.4858133415257058 #
point $-1 47.400128177739802 28.265763864698702 9.4858133415257058 #
face $-1 $-1 $320 $28 $-1 $419 reversed single #
loop $-1 $-1 $316 $199 #
plane-surface $-1 -47.400128177739802 0 0 1 0 0 0 0 -1 forward_v I I I I #
coedge $-1 $420 $202 $313 $421 forward $121 $-1 #
coedge $-1 $202 $420 $422 $423 forward $121 $-1 #
edge $-1 $424 -28.265763864698702 $314 28.265763864698702 $202 $425 forward 7 unknown #
coedge $-1 $204 $323 $310 $421 reversed $200 $-1 #
vertex $-1 $421 $426 #
straight-curve $-1 -35.428740510892709 -28.265763864698702 -3.3394885913623771 0 0 1 I I #
coedge $-1 $427 $428 $206 $317 forward $308 $-1 #
edge $-1 $324 -28.265763864698702 $321 28.265763864698702 $316 $429 forward 7 unknown #
coedge $-1 $422 $207 $211 $326 forward $320 $-1 #
coedge $-1 $207 $422 $427 $430 reversed $320 $-1 #
loop $-1 $-1 $318 $307 #
vertex $-1 $430 $431 #
straight-curve $-1 -20.707217172158128 28.265763864698702 -3.872141023923803 1 0 0 I I #
coedge $-1 $313 $209 $428 $432 forward $200 $-1 #
vertex $-1 $432 $433 #
straight-curve $-1 -20.707217172158128 -28.265763864698702 -3.872141023923803 -1 0 0 I I #
edge $-1 $213 0.53265243256142591 $424 6.1463247501633287 $318 $434 forward 7 unknown #
point $-1 -35.428740510892709 -28.265763864698702 -3.872141023923803 #
point $-1 -35.428740510892709 28.265763864698702 -3.872141023923803 #
face $-1 $-1 $229 $29 $-1 $435 reversed single #
loop $-1 $-1 $224 $215 #
plane-surface $-1 0 28.265763864698702 0 0 -1 0 0 0 -1 forward_v I I I I #
coedge $-1 $436 $437 $219 $336 forward $216 $-1 #
coedge $-1 $438 $218 $335 $439 forward $129 $-1 #
coedge $-1 $218 $438 $227 $347 reversed $129 $-1 #
coedge $-1 $220 $219 $333 $439 reversed $81 $-1 #
edge $-1 $440 -28.265763864698702 $339 28.265763864698702 $332 $441 forward 7 unknown #
edge $-1 $340 -28.265763864698702 $344 28.265763864698702 $220 $442 forward 7 unknown #
coedge $-1 $221 $342 $436 $443 reversed $330 $-1 #
vertex $-1 $443 $444 #
vertex $-1 $225 $445 #
straight-curve $-1 35.428740510892716 28.265763864698702 -3.3394885913623771 0 0 1 I I #
coedge $-1 $338 $224 $228 $348 forward $330 $-1 #
straight-curve $-1 20.707217172158131 28.265763864698702 -3.872141023923803 1 0 0 I I #
vertex $-1 $226 $446 #
straight-curve $-1 20.707217172158131 -28.265763864698702 -3.872141023923803 -1 0 0 I I #
coedge $-1 $228 $227 $447 $448 reversed $229 $-1 #
edge $-1 $231 3.872141023923803 $449 9.4858133415257058 $227 $450 forward 7 unknown #
edge $-1 $230 3.872141023923803 $451 9.4858133415257058 $228 $452 forward 7 unknown #
point $-1 47.400128177739809 28.265763864698702 -3.872141023923803 #
point $-1 47.400128177739809 -28.265763864698702 -3.872141023923803 #
loop $-1 $-1 $241 $233 #
plane-surface $-1 0 0 9.4858133415257058 0 0 1 1 0 0 forward_v I I I I #
coedge $-1 $354 $236 $238 $358 reversed $137 $-1 #
coedge $-1 $236 $353 $453 $454 reversed $137 $-1 #
coedge $-1 $244 $239 $236 $356 forward $234 $-1 #
edge $-1 $359 -52.668884233298151 $455 -47.57767606797271 $355 $456 forward 7 unknown #
coedge $-1 $238 $237 $362 $457 reversed $85 $-1 #
edge $-1 $458 48.071771982181282 $359 56.531527729397396 $353 $459 forward 7 unknown #
vertex $-1 $240 $460 #
straight-curve $-1 14.06807632979222 28.265763864698702 4.3946051762002689 -1 0 0 I I #
coedge $-1 $453 $241 $244 $366 forward $351 $-1 #
coedge $-1 $241 $453 $357 $457 forward $351 $-1 #
vertex $-1 $242 $461 #
straight-curve $-1 35.428740510892709 20.084948951502511 9.4858133415257058 0 1 0 I I #
straight-curve $-1 35.428740510892709 -16.882321292660166 38.416128276195352 0 -0.79863550430605224 0.6018150307709319 I I #
edge $-1 $245 -35.428740510892709 $455 -20.84356480827617 $244 $462 forward 7 unknown #
point $-1 35.428740510892709 28.265763864698702 9.4858133415257058 #
point $-1 35.428740510892709 28.265763864698698 4.3946051762002654 #
edge $-1 $463 1 $463 0 $248 $-1 forward 7 unknown #
vertex $-1 $249 $464 #
ellipse-curve $-1 25.010757866166614 21.313292361792691 2.1968988317866653 0 0.6018150307709319 0.79863550430605224 2 0 0 1 I I #
point $-1 27.010757866166614 24.887633215956715 6.940209258862974 #
edge $-1 $465 1 $465 0 $252 $-1 forward 7 unknown #
vertex $-1 $253 $466 #
ellipse-curve $-1 31.261547453002265 21.313292361792691 2.1968988317866653 0 0.6018150307709319 0.79863550430605224 2 0 0 1 I I #
point $-1 33.261547453002265 24.887633215956715 6.940209258862974 #
plane-surface $-1 0 -28.265763864698702 0 0 1 0 0 0 1 forward_v I I I I #
coedge $-1 $388 $387 $380 $467 forward $257 $-1 #
coedge $-1 $380 $259 $261 $384 reversed $159 $-1 #
coedge $-1 $259 $379 $378 $467 reversed $159 $-1 #
coedge $-1 $267 $262 $259 $382 forward $268 $-1 #
edge $-1 $385 -30.115888034956047 $468 -26.252089413708511 $381 $469 forward 7 unknown #
coedge $-1 $261 $260 $388 $470 reversed $99 $-1 #
edge $-1 $471 -5.3713121047587506 $385 5.0235306421517022e-015 $379 $472 forward 7 unknown #
vertex $-1 $263 $473 #
straight-curve $-1 -13.326567182101851 -28.265763864698702 5.6220147202781696 1 0 0 I I #
coedge $-1 $378 $264 $267 $392 forward $257 $-1 #
coedge $-1 $264 $378 $383 $470 forward $257 $-1 #
vertex $-1 $265 $474 #
straight-curve $-1 -35.428740510892702 -48.229681062276867 9.4858133415257058 0 -1 0 I I #
straight-curve $-1 -35.428740510892702 -28.265763864698698 5.6220147202781732 0 0.69465836192734942 0.71933980857756763 I I #
edge $-1 $269 -35.428740510892702 $468 -17.877528217514701 $267 $475 forward 7 unknown #
point $-1 -35.428740510892702 -28.265763864698702 9.4858133415257058 #
point $-1 -35.428740510892702 -28.265763864698702 5.6220147202781696 #
edge $-1 $476 1 $476 0 $272 $-1 forward 7 unknown #
vertex $-1 $273 $477 #
ellipse-curve $-1 -30.414108427070417 -25.012402188231157 6.2137811627456951 0 -0.71933980857756763 0.69465836192734942 1 0 0 1 I I #
point $-1 -29.414108427070417 -26.40015043065257 7.5539140309019341 #
edge $-1 $478 1 $478 0 $276 $-1 forward 7 unknown #
vertex $-1 $277 $479 #
ellipse-curve $-1 -22.892160301336986 -25.012402188231157 6.2137811627456951 0 -0.71933980857756763 0.69465836192734942 1 0 0 1 I I #
point $-1 -21.892160301336986 -26.40015043065257 7.5539140309019341 #
plane-surface $-1 47.400128177739802 0 0 -1 0 0 0 0 1 forward_v I I I I #
coedge $-1 $285 $283 $287 $408 reversed $181 $-1 #
edge $-1 $298 -9.4858133415257058 $410 9.4858133415257058 $297 $480 forward 7 unknown #
vertex $-1 $408 $481 #
straight-curve $-1 -47.400128177739802 -28.265763864698702 0 0 0 -1 I I #
edge $-1 $406 -28.265763864698702 $410 28.265763864698702 $404 $482 forward 7 unknown #
straight-curve $-1 0 -28.265763864698702 -9.4858133415257058 -1 0 0 I I #
vertex $-1 $290 $483 #
straight-curve $-1 0 28.265763864698702 -9.4858133415257058 1 0 0 I I #
point $-1 47.400128177739802 28.265763864698702 -9.4858133415257058 #
point $-1 47.400128177739802 -28.265763864698702 -9.4858133415257058 #
straight-curve $-1 -47.400128177739802 0 9.4858133415257058 0 -1 0 I I #
point $-1 -47.400128177739802 28.265763864698702 9.4858133415257058 #
point $-1 -47.400128177739802 -28.265763864698702 9.4858133415257058 #
straight-curve $-1 47.400128177739802 -28.265763864698702 0 0 0 -1 I I #
straight-curve $-1 47.400128177739802 28.265763864698702 0 0 0 -1 I I #
plane-surface $-1 0 28.265763864698702 0 0 -1 0 0 0 -1 forward_v I I I I #
coedge $-1 $311 $310 $484 $485 forward $121 $-1 #
edge $-1 $314 35.428740510892709 $486 47.400128177739802 $313 $487 forward 7 unknown #
coedge $-1 $319 $318 $311 $423 reversed $320 $-1 #
edge $-1 $488 -47.400128177739802 $424 -35.428740510892709 $422 $489 forward 7 unknown #
vertex $-1 $326 $490 #
straight-curve $-1 -35.428740510892709 0 -9.4858133415257058 0 -1 0 I I #
point $-1 -35.428740510892709 -28.265763864698702 -9.4858133415257058 #
coedge $-1 $484 $316 $319 $430 forward $308 $-1 #
coedge $-1 $316 $484 $323 $432 reversed $308 $-1 #
straight-curve $-1 -47.400128177739802 0 -3.872141023923803 0 1 0 I I #
edge $-1 $321 3.872141023923803 $488 9.4858133415257058 $319 $491 forward 7 unknown #
point $-1 -47.400128177739802 28.265763864698702 -3.872141023923803 #
edge $-1 $324 3.872141023923803 $486 9.4858133415257058 $428 $492 forward 7 unknown #
point $-1 -47.400128177739802 -28.265763864698702 -3.872141023923803 #
straight-curve $-1 -35.428740510892709 28.265763864698702 -3.3394885913623771 0 0 -1 I I #
plane-surface $-1 47.400128177739802 0 0 -1 0 0 0 0 1 forward_v I I I I #
coedge $-1 $447 $332 $338 $443 forward $216 $-1 #
coedge $-1 $332 $447 $438 $493 forward $216 $-1 #
coedge $-1 $334 $333 $437 $493 reversed $129 $-1 #
edge $-1 $344 0.53265243256142591 $440 6.1463247501633287 $333 $494 forward 7 unknown #
vertex $-1 $336 $495 #
straight-curve $-1 35.428740510892716 0 -9.4858133415257058 0 1 0 I I #
straight-curve $-1 35.428740510892716 0 -3.872141023923803 0 -1 0 I I #
edge $-1 $339 35.428740510892716 $451 47.400128177739802 $338 $496 forward 7 unknown #
point $-1 35.428740510892716 28.265763864698702 -9.4858133415257058 #
point $-1 35.428740510892716 28.265763864698702 -3.872141023923803 #
point $-1 35.428740510892716 -28.265763864698702 -3.872141023923803 #
coedge $-1 $437 $436 $346 $448 forward $216 $-1 #
edge $-1 $451 -28.265763864698702 $449 28.265763864698702 $346 $497 forward 7 unknown #
vertex $-1 $347 $498 #
straight-curve $-1 47.400128177739802 -28.265763864698702 0 0 0 -1 I I #
vertex $-1 $448 $499 #
straight-curve $-1 47.400128177739802 28.265763864698702 0 0 0 -1 I I #
coedge $-1 $362 $361 $354 $454 forward $351 $-1 #
edge $-1 $455 -8.1808149131961905 $458 -1.4245536157122203 $453 $500 forward 7 unknown #
vertex $-1 $454 $501 #
straight-curve $-1 20.84356480827617 28.265763864698702 57.063489409498416 0 0 1 I I #
edge $-1 $458 6.7754884784839504 $363 21.360664181100489 $362 $502 forward 7 unknown #
vertex $-1 $457 $503 #
straight-curve $-1 20.84356480827617 -16.882321292660166 38.416128276195352 0 0.79863550430605224 -0.6018150307709319 I I #
point $-1 20.84356480827617 28.265763864698698 4.3946051762002654 #
point $-1 35.428740510892709 21.509502567214732 9.4858133415257058 #
straight-curve $-1 0 28.265763864698702 9.4858133415257058 -1 0 0 I I #
vertex $-1 $369 $504 #
point $-1 27.010757866166614 21.313292361792691 2.1968988317866653 #
vertex $-1 $373 $505 #
point $-1 33.261547453002265 21.313292361792691 2.1968988317866653 #
edge $-1 $468 19.963917197578166 $471 23.695144065670426 $378 $506 forward 7 unknown #
vertex $-1 $382 $507 #
straight-curve $-1 -17.877528217514701 -28.265763864698698 35.737902755234217 0 0 1 I I #
edge $-1 $471 4.5509610354128505 $389 22.102173328790851 $388 $508 forward 7 unknown #
vertex $-1 $470 $509 #
straight-curve $-1 -17.877528217514701 -28.265763864698698 5.6220147202781732 0 -0.69465836192734942 -0.71933980857756763 I I #
point $-1 -17.877528217514701 -28.265763864698702 5.6220147202781696 #
point $-1 -35.428740510892702 -24.534536996606441 9.4858133415257058 #
straight-curve $-1 0 -28.265763864698702 9.4858133415257058 1 0 0 I I #
vertex $-1 $395 $510 #
point $-1 -29.414108427070417 -25.012402188231157 6.2137811627456951 #
vertex $-1 $399 $511 #
point $-1 -21.892160301336986 -25.012402188231157 6.2137811627456951 #
straight-curve $-1 -47.400128177739802 28.265763864698702 0 0 0 -1 I I #
point $-1 -47.400128177739802 -28.265763864698702 -9.4858133415257058 #
straight-curve $-1 -47.400128177739802 0 -9.4858133415257058 0 1 0 I I #
point $-1 -47.400128177739802 28.265763864698702 -9.4858133415257058 #
coedge $-1 $428 $427 $420 $485 reversed $308 $-1 #
edge $-1 $486 -28.265763864698702 $488 28.265763864698702 $484 $512 forward 7 unknown #
vertex $-1 $485 $513 #
straight-curve $-1 0 -28.265763864698702 -9.4858133415257058 -1 0 0 I I #
vertex $-1 $423 $514 #
straight-curve $-1 0 28.265763864698702 -9.4858133415257058 1 0 0 I I #
point $-1 -35.428740510892709 28.265763864698702 -9.4858133415257058 #
straight-curve $-1 -47.400128177739802 28.265763864698702 0 0 0 -1 I I #
straight-curve $-1 -47.400128177739802 -28.265763864698702 0 0 0 -1 I I #
edge $-1 $449 -47.400128177739802 $440 -35.428740510892716 $438 $515 forward 7 unknown #
straight-curve $-1 35.428740510892716 -28.265763864698702 -3.3394885913623771 0 0 -1 I I #
point $-1 35.428740510892716 -28.265763864698702 -9.4858133415257058 #
straight-curve $-1 0 28.265763864698702 -9.4858133415257058 1 0 0 I I #
straight-curve $-1 47.400128177739802 0 -9.4858133415257058 0 -1 0 I I #
point $-1 47.400128177739802 -28.265763864698702 -9.4858133415257058 #
point $-1 47.400128177739802 28.265763864698702 -9.4858133415257058 #
straight-curve $-1 20.84356480827617 20.084948951502511 9.4858133415257058 0 -1 0 I I #
point $-1 20.84356480827617 28.265763864698702 9.4858133415257058 #
straight-curve $-1 14.06807632979222 21.509502567214732 9.4858133415257058 1 0 0 I I #
point $-1 20.84356480827617 21.509502567214732 9.4858133415257058 #
point $-1 25.010757866166614 20.109662300250825 0.59962782317456109 #
point $-1 31.261547453002265 20.109662300250825 0.59962782317456109 #
straight-curve $-1 -17.877528217514701 -48.229681062276867 9.4858133415257058 0 1 0 I I #
point $-1 -17.877528217514701 -28.265763864698702 9.4858133415257058 #
straight-curve $-1 -13.326567182101851 -24.534536996606441 9.4858133415257058 -1 0 0 I I #
point $-1 -17.877528217514701 -24.534536996606441 9.4858133415257058 #
point $-1 -30.414108427070417 -24.293062379653591 5.5191228008183462 #
point $-1 -22.892160301336986 -24.293062379653591 5.5191228008183462 #
straight-curve $-1 -47.400128177739802 0 -9.4858133415257058 0 1 0 I I #
point $-1 -47.400128177739802 -28.265763864698702 -9.4858133415257058 #
point $-1 -47.400128177739802 28.265763864698702 -9.4858133415257058 #
straight-curve $-1 0 -28.265763864698702 -9.4858133415257058 -1 0 0 I I #
End-of-ACIS-data 