500 0 8 0           
7 Unknown 11 ACIS 5.0 NT 24 Fri Mar 26 18:11:13 1999 
-1 9.9999999999999995e-007 1e-010 
body $-1 $8 $-1 $9 #
body $-1 $10 $-1 $11 #
body $-1 $12 $-1 $13 #
body $-1 $14 $-1 $15 #
body $-1 $16 $-1 $17 #
body $-1 $18 $-1 $19 #
body $-1 $20 $-1 $21 #
body $-1 $22 $-1 $23 #
lump $-1 $-1 $24 $0 #
transform $-1 1 0 0 0 1 0 0 0 1 49.891659291360213 33.113462897754275 10.069152550451493 1 rotate no_reflect no_shear #
lump $-1 $-1 $25 $1 #
transform $-1 1 0 0 0 1 0 0 0 1 49.891659291360213 33.113462897754275 10.069152550451493 1 rotate no_reflect no_shear #
lump $-1 $-1 $26 $2 #
transform $-1 1 0 0 0 1 0 0 0 1 49.891659291360213 33.113462897754275 10.069152550451493 1 rotate no_reflect no_shear #
lump $-1 $-1 $27 $3 #
transform $-1 1 0 0 0 1 0 0 0 1 49.891659291360213 33.113462897754275 10.069152550451493 1 rotate no_reflect no_shear #
lump $-1 $-1 $28 $4 #
transform $-1 1 0 0 0 1 0 0 0 1 49.891659291360213 33.113462897754275 10.069152550451493 1 rotate no_reflect no_shear #
lump $-1 $-1 $29 $5 #
transform $-1 1 0 0 0 1 0 0 0 1 49.891659291360213 33.113462897754275 10.069152550451493 1 rotate no_reflect no_shear #
lump $-1 $-1 $30 $6 #
transform $-1 1 0 0 0 1 0 0 0 1 49.891659291360213 33.113462897754275 10.069152550451493 1 rotate no_reflect no_shear #
lump $-1 $-1 $31 $7 #
transform $-1 1 0 0 0 1 0 0 0 1 49.891659291360213 33.113462897754275 10.069152550451493 1 rotate no_reflect no_shear #
shell $-1 $-1 $-1 $32 $-1 $8 #
shell $-1 $-1 $-1 $33 $-1 $10 #
shell $-1 $-1 $-1 $34 $-1 $12 #
shell $-1 $-1 $-1 $35 $-1 $14 #
shell $-1 $-1 $-1 $36 $-1 $16 #
shell $-1 $-1 $-1 $37 $-1 $18 #
shell $-1 $-1 $-1 $38 $-1 $20 #
shell $-1 $-1 $-1 $39 $-1 $22 #
face $-1 $40 $41 $24 $-1 $42 reversed single #
face $-1 $43 $44 $25 $-1 $45 forward single #
face $-1 $46 $47 $26 $-1 $48 reversed single #
face $-1 $49 $50 $27 $-1 $51 forward single #
face $-1 $52 $53 $28 $-1 $54 reversed single #
face $-1 $55 $56 $29 $-1 $57 forward single #
face $-1 $58 $59 $30 $-1 $60 reversed single #
face $-1 $61 $62 $31 $-1 $63 forward single #
face $-1 $64 $65 $24 $-1 $66 forward single #
loop $-1 $-1 $67 $32 #
plane-surface $-1 -49.891659291360213 0 0 1 0 0 0 0 -1 forward_v I I I I #
face $-1 $68 $69 $25 $-1 $70 reversed single #
loop $-1 $-1 $71 $33 #
plane-surface $-1 -49.891659291360213 0 0 1 0 0 0 0 -1 forward_v I I I I #
face $-1 $72 $73 $26 $-1 $74 reversed single #
loop $-1 $-1 $75 $34 #
plane-surface $-1 -39.952503065815812 82.639594090656047 115.64991523301714 1 0 0 0 -0.84804810408105047 -0.52991925155115449 forward_v I I I I #
face $-1 $76 $77 $27 $-1 $78 forward single #
loop $-1 $79 $80 $35 #
cone-surface $-1 -34.359219258362721 30.899116001798806 7.6309866932107795 0 -0.84804810408105047 -0.52991925155115449 1 0 0 1 I I 0 1 1 forward I I I I #
face $-1 $81 $82 $28 $-1 $83 reversed single #
loop $-1 $-1 $84 $36 #
plane-surface $-1 6.1863679817807284 82.639594090656047 115.64991523301714 1 0 0 0 -0.84804810408105047 -0.52991925155115449 forward_v I I I I #
face $-1 $85 $86 $29 $-1 $87 forward single #
loop $-1 $88 $89 $37 #
cone-surface $-1 11.779651789233817 30.899116001798806 7.6309866932107795 0 -0.84804810408105047 -0.52991925155115449 1 0 0 1 I I 0 1 1 forward I I I I #
face $-1 $90 $91 $30 $-1 $92 reversed single #
loop $-1 $-1 $93 $38 #
plane-surface $-1 -25.800758956021944 -112.80396524888866 63.924063557870568 -1 0 0 0 -0.79863551827123203 0.60181501223851219 forward_v I I I I #
face $-1 $94 $95 $31 $-1 $96 forward single #
loop $-1 $97 $98 $39 #
cone-surface $-1 -34.093420879927407 -29.403857324462571 5.9349033869512873 0 0.79863551827123203 -0.60181501223851219 1 0 0 1 I I 0 1 1 forward I I I I #
face $-1 $99 $100 $24 $-1 $101 reversed single #
loop $-1 $-1 $102 $40 #
plane-surface $-1 0 0 10.069152550451493 0 0 1 1 0 0 forward_v I I I I #
coedge $-1 $103 $104 $105 $106 reversed $41 $-1 #
face $-1 $107 $108 $25 $-1 $109 reversed single #
loop $-1 $-1 $110 $43 #
plane-surface $-1 0 0 -10.069152550451493 0 0 1 1 0 0 forward_v I I I I #
coedge $-1 $111 $112 $113 $114 forward $44 $-1 #
face $-1 $115 $116 $26 $-1 $117 reversed single #
loop $-1 $-1 $118 $46 #
plane-surface $-1 -34.359219258362721 -1.9814600523354642 62.772813732371525 0 0.84804810408105047 0.52991925155115449 1 0 0 forward_v I I I I #
coedge $-1 $119 $120 $121 $122 reversed $47 $-1 #
face $-1 $-1 $123 $27 $-1 $124 forward single #
loop $-1 $125 $126 $49 #
cone-surface $-1 -34.359219258362721 29.341755773797431 6.6578400492331991 0 -0.84804810408105047 -0.52991925155115449 0.5 0 0 1 I I -0.70710678118654746 0.70710678118654746 0.5 forward I I I I #
loop $-1 $-1 $127 $35 #
coedge $-1 $80 $80 $128 $129 reversed $50 $-1 #
face $-1 $130 $131 $28 $-1 $132 reversed single #
loop $-1 $-1 $133 $52 #
plane-surface $-1 11.779651789233817 -1.9814600523354642 62.772813732371525 0 0.84804810408105047 0.52991925155115449 1 0 0 forward_v I I I I #
coedge $-1 $134 $135 $136 $137 reversed $53 $-1 #
face $-1 $-1 $138 $29 $-1 $139 forward single #
loop $-1 $140 $141 $55 #
cone-surface $-1 11.779651789233817 29.341755773797431 6.6578400492331991 0 -0.84804810408105047 -0.52991925155115449 0.5 0 0 1 I I -0.70710678118654746 0.70710678118654746 0.5 forward I I I I #
loop $-1 $-1 $142 $37 #
coedge $-1 $89 $89 $143 $144 reversed $56 $-1 #
face $-1 $145 $146 $30 $-1 $147 reversed single #
loop $-1 $-1 $148 $58 #
plane-surface $-1 -34.093420879927407 -33.113462897754275 3.8729644638113143 0 -0.79863551827123203 0.60181501223851219 1 0 0 forward_v I I I I #
coedge $-1 $149 $150 $151 $152 reversed $59 $-1 #
face $-1 $-1 $153 $31 $-1 $154 forward single #
loop $-1 $155 $156 $61 #
cone-surface $-1 -34.093420879927407 -27.629515239601968 4.597840760651918 0 0.79863551827123203 -0.60181501223851219 0.5 0 0 1 I I -0.70710678118654746 0.70710678118654746 0.5 forward I I I I #
loop $-1 $-1 $157 $39 #
coedge $-1 $98 $98 $158 $159 reversed $62 $-1 #
face $-1 $160 $161 $24 $-1 $162 reversed single #
loop $-1 $-1 $163 $64 #
plane-surface $-1 0 0 -10.069152550451493 0 0 1 1 0 0 forward_v I I I I #
coedge $-1 $164 $165 $166 $167 forward $65 $-1 #
coedge $-1 $168 $67 $169 $170 reversed $41 $-1 #
coedge $-1 $67 $168 $171 $172 forward $41 $-1 #
coedge $-1 $173 $174 $67 $106 forward $100 $-1 #
edge $-1 $175 -33.113462897754275 $176 33.113462897754275 $67 $177 forward 7 unknown #
face $-1 $178 $179 $25 $-1 $180 reversed single #
loop $-1 $-1 $181 $68 #
plane-surface $-1 -53.644447535123888 -18.054076816699069 0 0 1 0 0 0 1 forward_v I I I I #
coedge $-1 $182 $183 $112 $184 forward $69 $-1 #
coedge $-1 $185 $71 $186 $187 reversed $44 $-1 #
coedge $-1 $71 $185 $110 $184 reversed $44 $-1 #
coedge $-1 $188 $189 $71 $114 reversed $190 $-1 #
edge $-1 $191 -10.069152550451493 $192 10.069152550451493 $113 $193 forward 7 unknown #
face $-1 $194 $195 $26 $-1 $196 forward single #
loop $-1 $-1 $197 $72 #
plane-surface $-1 -28.76593545090963 82.639594090656047 115.64991523301714 -1 0 0 0 0.84804810408105047 0.52991925155115449 forward_v I I I I #
coedge $-1 $198 $199 $200 $201 reversed $73 $-1 #
coedge $-1 $120 $75 $202 $203 reversed $47 $-1 #
coedge $-1 $75 $119 $198 $204 reversed $47 $-1 #
coedge $-1 $200 $205 $75 $122 forward $195 $-1 #
edge $-1 $206 8.2063341475737488 $207 10.368355587562981 $121 $208 forward 7 unknown #
loop $-1 $-1 $128 $76 #
plane-surface $-1 -34.359219258362721 -1.9814600523354642 62.772813732371525 0 0.84804810408105047 0.52991925155115449 1 0 0 forward_v I I I I #
loop $-1 $-1 $209 $49 #
coedge $-1 $126 $126 $127 $210 reversed $77 $-1 #
coedge $-1 $127 $127 $126 $210 forward $79 $-1 #
coedge $-1 $128 $128 $80 $129 forward $123 $-1 #
edge $-1 $211 1.5064360498247893e-015 $211 6.2831853071796022 $128 $212 forward 7 unknown #
face $-1 $213 $214 $28 $-1 $215 forward single #
loop $-1 $-1 $216 $81 #
plane-surface $-1 17.372935596686908 82.639594090656047 115.64991523301714 -1 0 0 0 0.84804810408105047 0.52991925155115449 forward_v I I I I #
coedge $-1 $217 $218 $219 $220 reversed $82 $-1 #
coedge $-1 $135 $84 $221 $222 reversed $53 $-1 #
coedge $-1 $84 $134 $217 $223 reversed $53 $-1 #
coedge $-1 $219 $224 $84 $137 forward $214 $-1 #
edge $-1 $225 8.2063341475737488 $226 10.368355587562981 $136 $227 forward 7 unknown #
loop $-1 $-1 $143 $85 #
plane-surface $-1 11.779651789233817 -1.9814600523354642 62.772813732371525 0 0.84804810408105047 0.52991925155115449 1 0 0 forward_v I I I I #
loop $-1 $-1 $228 $55 #
coedge $-1 $141 $141 $142 $229 reversed $86 $-1 #
coedge $-1 $142 $142 $141 $229 forward $88 $-1 #
coedge $-1 $143 $143 $89 $144 forward $138 $-1 #
edge $-1 $230 1.5064360498247893e-015 $230 6.2831853071796022 $143 $231 forward 7 unknown #
face $-1 $232 $233 $30 $-1 $234 forward single #
loop $-1 $-1 $235 $90 #
plane-surface $-1 -42.386082803832871 -112.80396524888866 63.924063557870568 1 0 0 0 0.79863551827123203 -0.60181501223851219 forward_v I I I I #
coedge $-1 $236 $237 $238 $239 reversed $91 $-1 #
coedge $-1 $150 $93 $240 $241 reversed $59 $-1 #
coedge $-1 $93 $149 $236 $242 reversed $59 $-1 #
coedge $-1 $238 $243 $93 $152 forward $233 $-1 #
edge $-1 $244 23.288519726690055 $245 27.957682221823482 $151 $246 forward 7 unknown #
loop $-1 $-1 $158 $94 #
plane-surface $-1 -34.093420879927407 -33.113462897754275 3.8729644638113143 0 -0.79863551827123203 0.60181501223851219 1 0 0 forward_v I I I I #
loop $-1 $-1 $247 $61 #
coedge $-1 $156 $156 $157 $248 reversed $95 $-1 #
coedge $-1 $157 $157 $156 $248 forward $97 $-1 #
coedge $-1 $158 $158 $98 $159 forward $153 $-1 #
edge $-1 $249 -1.4186616650690665e-015 $249 6.2831853071795987 $158 $250 forward 7 unknown #
face $-1 $251 $252 $24 $-1 $253 reversed single #
loop $-1 $-1 $169 $99 #
plane-surface $-1 0 -33.113462897754275 0 0 1 0 0 0 1 forward_v I I I I #
coedge $-1 $174 $173 $254 $255 forward $100 $-1 #
coedge $-1 $256 $102 $257 $258 forward $65 $-1 #
coedge $-1 $102 $256 $259 $260 forward $65 $-1 #
coedge $-1 $261 $262 $102 $167 reversed $263 $-1 #
edge $-1 $264 -33.113462897754275 $265 33.113462897754275 $166 $266 forward 7 unknown #
coedge $-1 $104 $103 $256 $267 reversed $41 $-1 #
coedge $-1 $268 $259 $103 $170 forward $161 $-1 #
edge $-1 $269 -10.069152550451493 $175 10.069152550451493 $103 $270 forward 7 unknown #
coedge $-1 $257 $271 $104 $172 reversed $252 $-1 #
edge $-1 $272 -10.069152550451493 $176 10.069152550451493 $171 $273 forward 7 unknown #
coedge $-1 $163 $105 $271 $274 forward $100 $-1 #
coedge $-1 $105 $163 $268 $275 forward $100 $-1 #
vertex $-1 $106 $276 #
vertex $-1 $274 $277 #
straight-curve $-1 -49.891659291360213 0 -10.069152550451493 0 1 0 I I #
face $-1 $278 $190 $25 $-1 $279 reversed single #
loop $-1 $-1 $280 $107 #
plane-surface $-1 -57.397235778887563 -15.514617306775179 0 1 0 0 0 0 -1 forward_v I I I I #
coedge $-1 $281 $282 $283 $284 forward $108 $-1 #
coedge $-1 $285 $110 $281 $286 forward $69 $-1 #
coedge $-1 $110 $285 $188 $287 forward $69 $-1 #
edge $-1 $191 12.975157796851288 $288 18.054076816699069 $110 $289 forward 7 unknown #
coedge $-1 $112 $111 $290 $291 forward $44 $-1 #
coedge $-1 $292 $293 $111 $187 forward $294 $-1 #
edge $-1 $295 -18.054076816699069 $192 -12.975157796851288 $186 $296 forward 7 unknown #
coedge $-1 $297 $113 $183 $287 reversed $190 $-1 #
coedge $-1 $113 $297 $292 $298 reversed $190 $-1 #
loop $-1 $-1 $113 $178 #
vertex $-1 $184 $299 #
vertex $-1 $298 $300 #
straight-curve $-1 -49.891659291360213 -12.975157796851288 0 0 0 1 I I #
face $-1 $-1 $301 $26 $-1 $302 reversed single #
loop $-1 $-1 $121 $115 #
plane-surface $-1 0 0 10.069152550451493 0 0 1 1 0 0 forward_v I I I I #
coedge $-1 $303 $304 $305 $306 reversed $116 $-1 #
coedge $-1 $307 $118 $120 $204 forward $73 $-1 #
coedge $-1 $118 $307 $303 $308 forward $73 $-1 #
coedge $-1 $305 $121 $118 $201 forward $195 $-1 #
edge $-1 $207 -22.772893436634451 $309 -11.58632582172827 $200 $310 forward 7 unknown #
coedge $-1 $311 $312 $119 $203 forward $301 $-1 #
edge $-1 $313 -51.215762744134487 $206 -47.755805066057079 $202 $314 forward 7 unknown #
edge $-1 $207 62.14701846309768 $313 66.226925795508549 $120 $315 forward 7 unknown #
coedge $-1 $121 $305 $311 $316 forward $195 $-1 #
vertex $-1 $203 $317 #
vertex $-1 $122 $318 #
straight-curve $-1 -39.952503065815812 41.319797045328023 10.069152550451491 0 -1 0 I I #
coedge $-1 $209 $209 $-1 $319 reversed $125 $-1 #
edge $-1 $320 0 $320 6.2831853071796004 $126 $321 forward 7 unknown #
vertex $-1 $129 $322 #
ellipse-curve $-1 -34.359219258362721 32.032452177759659 8.3391737114127853 0 0.84804810408105047 0.52991925155115449 1 0 0 1 I I #
face $-1 $-1 $323 $28 $-1 $324 reversed single #
loop $-1 $-1 $136 $130 #
plane-surface $-1 0 0 10.069152550451493 0 0 1 1 0 0 forward_v I I I I #
coedge $-1 $325 $326 $327 $328 reversed $131 $-1 #
coedge $-1 $329 $133 $135 $223 forward $82 $-1 #
coedge $-1 $133 $329 $325 $330 forward $82 $-1 #
coedge $-1 $327 $136 $133 $220 forward $214 $-1 #
edge $-1 $226 0.2965420871638198 $331 11.483109702069999 $219 $332 forward 7 unknown #
coedge $-1 $333 $334 $134 $222 forward $323 $-1 #
edge $-1 $335 -51.215762744134487 $225 -47.755805066057079 $221 $336 forward 7 unknown #
edge $-1 $226 62.14701846309768 $335 66.226925795508549 $135 $337 forward 7 unknown #
coedge $-1 $136 $327 $333 $338 forward $214 $-1 #
vertex $-1 $137 $339 #
vertex $-1 $137 $340 #
straight-curve $-1 6.1863679817807284 41.319797045328023 10.069152550451491 0 -1 0 I I #
coedge $-1 $228 $228 $-1 $341 reversed $140 $-1 #
edge $-1 $342 0 $342 6.2831853071796004 $141 $343 forward 7 unknown #
vertex $-1 $144 $344 #
ellipse-curve $-1 11.779651789233817 32.032452177759659 8.3391737114127853 0 0.84804810408105047 0.52991925155115449 1 0 0 1 I I #
face $-1 $-1 $345 $30 $-1 $346 reversed single #
loop $-1 $-1 $151 $145 #
plane-surface $-1 0 0 10.069152550451493 0 0 1 1 0 0 forward_v I I I I #
coedge $-1 $347 $348 $349 $350 reversed $146 $-1 #
coedge $-1 $351 $148 $150 $242 forward $91 $-1 #
coedge $-1 $148 $351 $347 $352 forward $91 $-1 #
coedge $-1 $349 $151 $148 $239 forward $233 $-1 #
edge $-1 $245 8.7540485160582406 $353 25.339372363869167 $238 $354 forward 7 unknown #
coedge $-1 $355 $356 $149 $241 forward $345 $-1 #
edge $-1 $357 -28.08906731512397 $244 -21.892879228483793 $240 $358 forward 7 unknown #
edge $-1 $245 -7.7584679680322388 $357 0 $150 $359 forward 7 unknown #
coedge $-1 $151 $349 $355 $360 forward $233 $-1 #
vertex $-1 $152 $361 #
vertex $-1 $152 $362 #
straight-curve $-1 -25.800758956021944 -56.401982624444329 10.069152550451491 0 1 0 I I #
coedge $-1 $247 $247 $-1 $363 reversed $155 $-1 #
edge $-1 $364 0 $364 6.2831853071796004 $156 $365 forward 7 unknown #
vertex $-1 $159 $366 #
ellipse-curve $-1 -34.093420879927407 -30.778881650187561 6.9710585071314028 0 -0.79863551827123203 0.60181501223851219 1 0 0 1 I I #
face $-1 $-1 $263 $24 $-1 $367 reversed single #
loop $-1 $-1 $368 $160 #
plane-surface $-1 0 33.113462897754275 0 0 -1 0 0 0 -1 forward_v I I I I #
coedge $-1 $262 $261 $163 $255 reversed $263 $-1 #
edge $-1 $369 -33.113462897754275 $370 33.113462897754275 $254 $371 forward 7 unknown #
coedge $-1 $165 $164 $168 $267 forward $65 $-1 #
coedge $-1 $368 $171 $164 $258 reversed $252 $-1 #
edge $-1 $265 -49.891659291360213 $272 49.891659291360213 $257 $372 forward 7 unknown #
coedge $-1 $169 $373 $165 $260 reversed $161 $-1 #
edge $-1 $269 -49.891659291360213 $264 49.891659291360213 $259 $374 forward 7 unknown #
coedge $-1 $254 $166 $373 $375 forward $263 $-1 #
coedge $-1 $166 $254 $368 $376 reversed $263 $-1 #
loop $-1 $-1 $261 $251 #
vertex $-1 $167 $377 #
vertex $-1 $167 $378 #
straight-curve $-1 49.891659291360213 0 10.069152550451493 0 1 0 I I #
edge $-1 $272 -33.113462897754275 $269 33.113462897754275 $168 $379 forward 7 unknown #
coedge $-1 $373 $169 $174 $275 reversed $161 $-1 #
vertex $-1 $267 $380 #
straight-curve $-1 -49.891659291360213 -33.113462897754275 0 0 0 -1 I I #
coedge $-1 $171 $368 $173 $274 reversed $252 $-1 #
vertex $-1 $258 $381 #
straight-curve $-1 -49.891659291360213 33.113462897754275 0 0 0 -1 I I #
edge $-1 $176 -49.891659291360213 $369 49.891659291360213 $271 $382 forward 7 unknown #
edge $-1 $370 -49.891659291360213 $175 49.891659291360213 $268 $383 forward 7 unknown #
point $-1 -49.891659291360213 -33.113462897754275 -10.069152550451493 #
point $-1 -49.891659291360213 33.113462897754275 -10.069152550451493 #
face $-1 $-1 $294 $25 $-1 $384 forward single #
plane-surface $-1 -53.644447535123888 -12.975157796851288 0 0 -1 0 0 0 -1 forward_v I I I I #
coedge $-1 $385 $386 $297 $387 forward $179 $-1 #
coedge $-1 $290 $181 $182 $286 reversed $108 $-1 #
coedge $-1 $181 $290 $293 $388 reversed $108 $-1 #
coedge $-1 $386 $385 $181 $284 reversed $179 $-1 #
edge $-1 $389 -10.069152550451493 $390 10.069152550451493 $283 $391 forward 7 unknown #
coedge $-1 $183 $182 $385 $392 forward $69 $-1 #
edge $-1 $288 -3.7527882437636748 $390 3.7527882437636748 $281 $393 forward 7 unknown #
edge $-1 $394 -3.7527882437636748 $191 3.7527882437636748 $188 $395 forward 7 unknown #
vertex $-1 $286 $396 #
straight-curve $-1 -49.891659291360213 0 -10.069152550451493 0 -1 0 I I #
coedge $-1 $282 $281 $185 $291 reversed $108 $-1 #
edge $-1 $295 -10.069152550451493 $288 10.069152550451493 $290 $397 forward 7 unknown #
coedge $-1 $398 $186 $189 $298 forward $294 $-1 #
coedge $-1 $186 $398 $282 $388 forward $294 $-1 #
loop $-1 $-1 $186 $278 #
vertex $-1 $187 $399 #
straight-curve $-1 -49.891659291360213 0 10.069152550451493 0 1 0 I I #
coedge $-1 $189 $188 $280 $387 reversed $190 $-1 #
edge $-1 $192 -3.7527882437636748 $400 3.7527882437636748 $189 $401 forward 7 unknown #
point $-1 -49.891659291360213 -12.975157796851288 -10.069152550451493 #
point $-1 -49.891659291360213 -12.975157796851288 10.069152550451493 #
loop $-1 $-1 $202 $194 #
plane-surface $-1 0 33.113462897754275 0 0 -1 0 0 0 -1 forward_v I I I I #
coedge $-1 $304 $197 $199 $308 reversed $116 $-1 #
coedge $-1 $197 $303 $402 $403 reversed $116 $-1 #
coedge $-1 $205 $200 $197 $306 forward $195 $-1 #
edge $-1 $309 -10.368355587562981 $404 -8.2063341475737488 $305 $405 forward 7 unknown #
coedge $-1 $199 $198 $312 $406 reversed $73 $-1 #
edge $-1 $407 -66.226925795508549 $309 -62.14701846309768 $303 $408 forward 7 unknown #
vertex $-1 $201 $409 #
straight-curve $-1 -17.17960962918136 30.951441457765043 10.069152550451491 1 0 0 I I #
coedge $-1 $402 $202 $205 $316 reversed $301 $-1 #
coedge $-1 $202 $402 $307 $406 forward $301 $-1 #
vertex $-1 $203 $410 #
straight-curve $-1 -39.952503065815812 33.113462897754275 57.82495761650857 0 0 1 I I #
straight-curve $-1 -39.952503065815812 -1.9814600523354642 62.772813732371525 0 0.52991925155115449 -0.84804810408105047 I I #
edge $-1 $404 28.76593545090963 $206 39.952503065815812 $311 $411 forward 7 unknown #
point $-1 -39.952503065815812 33.113462897754275 10.069152550451493 #
point $-1 -39.952503065815812 30.951441457765043 10.069152550451491 #
edge $-1 $412 1 $412 0 $209 $-1 forward 7 unknown #
vertex $-1 $210 $413 #
ellipse-curve $-1 -34.359219258362721 29.765779825837956 6.9227996750087764 0 0.84804810408105047 0.52991925155115449 1 0 0 1 I I #
point $-1 -33.359219258362721 32.032452177759659 8.3391737114127835 #
loop $-1 $-1 $221 $213 #
plane-surface $-1 0 33.113462897754275 0 0 -1 0 0 0 -1 forward_v I I I I #
coedge $-1 $326 $216 $218 $330 reversed $131 $-1 #
coedge $-1 $216 $325 $414 $415 reversed $131 $-1 #
coedge $-1 $224 $219 $216 $328 forward $214 $-1 #
edge $-1 $331 -10.368355587562981 $416 -8.2063341475737488 $327 $417 forward 7 unknown #
coedge $-1 $218 $217 $334 $418 reversed $82 $-1 #
edge $-1 $419 -66.226925795508549 $331 -62.14701846309768 $325 $420 forward 7 unknown #
vertex $-1 $220 $421 #
straight-curve $-1 5.8898258946169086 30.951441457765043 10.069152550451491 1 0 0 I I #
coedge $-1 $414 $221 $224 $338 reversed $323 $-1 #
coedge $-1 $221 $414 $329 $418 forward $323 $-1 #
vertex $-1 $222 $422 #
straight-curve $-1 6.1863679817807284 33.113462897754275 57.82495761650857 0 0 1 I I #
straight-curve $-1 6.1863679817807284 -1.9814600523354642 62.772813732371525 0 0.52991925155115449 -0.84804810408105047 I I #
edge $-1 $416 -17.372935596686908 $225 -6.1863679817807284 $333 $423 forward 7 unknown #
point $-1 6.1863679817807284 33.113462897754275 10.069152550451493 #
point $-1 6.1863679817807284 30.951441457765043 10.069152550451491 #
edge $-1 $424 1 $424 0 $228 $-1 forward 7 unknown #
vertex $-1 $229 $425 #
ellipse-curve $-1 11.779651789233817 29.765779825837956 6.9227996750087764 0 0.84804810408105047 0.52991925155115449 1 0 0 1 I I #
point $-1 12.779651789233817 32.032452177759659 8.3391737114127835 #
loop $-1 $-1 $240 $232 #
plane-surface $-1 0 -33.113462897754275 0 0 1 0 0 0 1 forward_v I I I I #
coedge $-1 $348 $235 $237 $352 reversed $146 $-1 #
coedge $-1 $235 $347 $426 $427 reversed $146 $-1 #
coedge $-1 $243 $238 $235 $350 forward $233 $-1 #
edge $-1 $353 -27.957682221823482 $428 -23.288519726690055 $349 $429 forward 7 unknown #
coedge $-1 $237 $236 $356 $430 reversed $91 $-1 #
edge $-1 $431 0 $353 7.7584679680322388 $347 $432 forward 7 unknown #
vertex $-1 $239 $433 #
straight-curve $-1 -17.046710439963704 -28.444300402620851 10.069152550451493 -1 0 0 I I #
coedge $-1 $426 $240 $243 $360 reversed $345 $-1 #
coedge $-1 $240 $426 $351 $430 forward $345 $-1 #
vertex $-1 $241 $434 #
straight-curve $-1 -25.800758956021944 -33.113462897754275 31.962031778935284 0 0 1 I I #
straight-curve $-1 -25.800758956021944 -33.113462897754275 3.8729644638113143 0 -0.60181501223851219 -0.79863551827123203 I I #
edge $-1 $428 -42.386082803832871 $244 -25.800758956021944 $355 $435 forward 7 unknown #
point $-1 -25.800758956021944 -33.113462897754275 10.069152550451493 #
point $-1 -25.800758956021944 -28.444300402620847 10.069152550451493 #
edge $-1 $436 1 $436 0 $247 $-1 forward 7 unknown #
vertex $-1 $248 $437 #
ellipse-curve $-1 -34.093420879927407 -28.028832998737585 4.8987482667711744 0 -0.79863551827123203 0.60181501223851219 1 0 0 1 I I #
point $-1 -33.093420879927407 -30.778881650187561 6.9710585071314011 #
plane-surface $-1 49.891659291360213 0 0 -1 0 0 0 0 1 forward_v I I I I #
coedge $-1 $271 $257 $262 $376 forward $252 $-1 #
vertex $-1 $255 $438 #
vertex $-1 $375 $439 #
straight-curve $-1 49.891659291360213 0 -10.069152550451493 0 -1 0 I I #
straight-curve $-1 0 33.113462897754275 10.069152550451493 -1 0 0 I I #
coedge $-1 $259 $268 $261 $375 reversed $161 $-1 #
straight-curve $-1 0 -33.113462897754275 10.069152550451493 1 0 0 I I #
edge $-1 $264 -10.069152550451493 $370 10.069152550451493 $261 $440 forward 7 unknown #
edge $-1 $265 -10.069152550451493 $369 10.069152550451493 $262 $441 forward 7 unknown #
point $-1 49.891659291360213 -33.113462897754275 10.069152550451493 #
point $-1 49.891659291360213 33.113462897754275 10.069152550451493 #
straight-curve $-1 -49.891659291360213 0 10.069152550451493 0 -1 0 I I #
point $-1 -49.891659291360213 -33.113462897754275 10.069152550451493 #
point $-1 -49.891659291360213 33.113462897754275 10.069152550451493 #
straight-curve $-1 0 33.113462897754275 -10.069152550451493 1 0 0 I I #
straight-curve $-1 0 -33.113462897754275 -10.069152550451493 -1 0 0 I I #
plane-surface $-1 0 0 10.069152550451493 0 0 1 1 0 0 forward_v I I I I #
coedge $-1 $283 $280 $285 $392 reversed $179 $-1 #
coedge $-1 $280 $283 $398 $442 reversed $179 $-1 #
edge $-1 $400 -10.069152550451493 $394 10.069152550451493 $297 $443 forward 7 unknown #
edge $-1 $389 -3.7527882437636748 $295 3.7527882437636748 $282 $444 forward 7 unknown #
vertex $-1 $442 $445 #
vertex $-1 $392 $446 #
straight-curve $-1 -57.397235778887563 -18.054076816699069 0 0 0 -1 I I #
edge $-1 $390 -2.5394595099238906 $394 2.5394595099238906 $385 $447 forward 7 unknown #
straight-curve $-1 -53.644447535123888 -18.054076816699069 -10.069152550451493 -1 0 0 I I #
vertex $-1 $287 $448 #
straight-curve $-1 -53.644447535123888 -12.975157796851288 -10.069152550451493 1 0 0 I I #
point $-1 -49.891659291360213 -18.054076816699069 -10.069152550451493 #
straight-curve $-1 -49.891659291360213 -18.054076816699069 0 0 0 -1 I I #
coedge $-1 $293 $292 $386 $442 forward $294 $-1 #
point $-1 -49.891659291360213 -18.054076816699069 10.069152550451493 #
vertex $-1 $298 $449 #
straight-curve $-1 -53.644447535123888 -12.975157796851288 10.069152550451493 -1 0 0 I I #
coedge $-1 $312 $311 $304 $403 forward $301 $-1 #
edge $-1 $404 47.755805066057079 $407 51.215762744134487 $402 $450 forward 7 unknown #
vertex $-1 $316 $451 #
straight-curve $-1 -28.76593545090963 41.319797045328023 10.069152550451491 0 1 0 I I #
edge $-1 $407 11.58632582172827 $313 22.772893436634451 $312 $452 forward 7 unknown #
vertex $-1 $406 $453 #
straight-curve $-1 -28.76593545090963 -1.9814600523354642 62.772813732371525 0 -0.52991925155115449 0.84804810408105047 I I #
point $-1 -28.76593545090963 30.951441457765043 10.069152550451491 #
point $-1 -39.952503065815812 33.113462897754275 6.6091948723740828 #
straight-curve $-1 0 33.113462897754275 10.069152550451493 -1 0 0 I I #
vertex $-1 $319 $454 #
point $-1 -33.359219258362721 29.765779825837956 6.9227996750087764 #
coedge $-1 $334 $333 $326 $415 forward $323 $-1 #
edge $-1 $416 47.755805066057079 $419 51.215762744134487 $414 $455 forward 7 unknown #
vertex $-1 $338 $456 #
straight-curve $-1 17.372935596686908 41.319797045328023 10.069152550451491 0 1 0 I I #
edge $-1 $419 -11.483109702069999 $335 -0.2965420871638198 $334 $457 forward 7 unknown #
vertex $-1 $418 $458 #
straight-curve $-1 17.372935596686908 -1.9814600523354642 62.772813732371525 0 -0.52991925155115449 0.84804810408105047 I I #
point $-1 17.372935596686908 30.951441457765043 10.069152550451491 #
point $-1 6.1863679817807284 33.113462897754275 6.6091948723740828 #
straight-curve $-1 0 33.113462897754275 10.069152550451493 -1 0 0 I I #
vertex $-1 $341 $459 #
point $-1 12.779651789233817 29.765779825837956 6.9227996750087764 #
coedge $-1 $356 $355 $348 $427 forward $345 $-1 #
edge $-1 $428 21.892879228483793 $431 28.08906731512397 $426 $460 forward 7 unknown #
vertex $-1 $360 $461 #
straight-curve $-1 -42.386082803832871 -56.401982624444329 10.069152550451491 0 -1 0 I I #
edge $-1 $431 -25.339372363869167 $357 -8.7540485160582406 $356 $462 forward 7 unknown #
vertex $-1 $430 $463 #
straight-curve $-1 -42.386082803832871 -33.113462897754275 3.8729644638113143 0 0.60181501223851219 0.79863551827123203 I I #
point $-1 -42.386082803832871 -28.444300402620847 10.069152550451493 #
point $-1 -25.800758956021944 -33.113462897754275 3.8729644638113143 #
straight-curve $-1 0 -33.113462897754275 10.069152550451493 1 0 0 I I #
vertex $-1 $363 $464 #
point $-1 -33.093420879927407 -28.028832998737585 4.8987482667711744 #
point $-1 49.891659291360213 33.113462897754275 -10.069152550451493 #
point $-1 49.891659291360213 -33.113462897754275 -10.069152550451493 #
straight-curve $-1 49.891659291360213 -33.113462897754275 0 0 0 -1 I I #
straight-curve $-1 49.891659291360213 33.113462897754275 0 0 0 -1 I I #
edge $-1 $400 -2.5394595099238906 $389 2.5394595099238906 $386 $465 forward 7 unknown #
straight-curve $-1 -57.397235778887563 -12.975157796851288 0 0 0 -1 I I #
straight-curve $-1 -53.644447535123888 -18.054076816699069 10.069152550451493 1 0 0 I I #
point $-1 -57.397235778887563 -18.054076816699069 10.069152550451493 #
point $-1 -57.397235778887563 -18.054076816699069 -10.069152550451493 #
straight-curve $-1 -57.397235778887563 -15.514617306775179 -10.069152550451493 0 1 0 I I #
point $-1 -57.397235778887563 -12.975157796851288 -10.069152550451493 #
point $-1 -57.397235778887563 -12.975157796851288 10.069152550451493 #
straight-curve $-1 -28.76593545090963 33.113462897754275 57.82495761650857 0 0 -1 I I #
point $-1 -28.76593545090963 33.113462897754275 10.069152550451493 #
straight-curve $-1 -17.17960962918136 33.113462897754275 6.6091948723740863 -1 0 0 I I #
point $-1 -28.76593545090963 33.113462897754275 6.6091948723740828 #
point $-1 -34.359219258362721 28.917731721756905 6.3928804234576218 #
straight-curve $-1 17.372935596686908 33.113462897754275 57.82495761650857 0 0 -1 I I #
point $-1 17.372935596686908 33.113462897754275 10.069152550451493 #
straight-curve $-1 5.8898258946169086 33.113462897754275 6.6091948723740863 -1 0 0 I I #
point $-1 17.372935596686908 33.113462897754275 6.6091948723740828 #
point $-1 11.779651789233817 28.917731721756905 6.3928804234576218 #
straight-curve $-1 -42.386082803832871 -33.113462897754275 31.962031778935284 0 0 -1 I I #
point $-1 -42.386082803832871 -33.113462897754275 10.069152550451493 #
straight-curve $-1 -17.046710439963704 -33.113462897754275 3.8729644638113152 1 0 0 I I #
point $-1 -42.386082803832871 -33.113462897754275 3.8729644638113143 #
point $-1 -34.093420879927407 -27.230197480466352 4.2969332545326617 #
straight-curve $-1 -57.397235778887563 -15.514617306775179 10.069152550451493 0 -1 0 I I #
End-of-ACIS-data 