500 0 9 0           
7 Unknown 11 ACIS 5.0 NT 24 Thu Mar 25 22:04:56 1999 
-1 9.9999999999999995e-007 1e-010 
body $-1 $9 $-1 $10 #
body $-1 $11 $-1 $12 #
body $-1 $13 $-1 $14 #
body $-1 $15 $-1 $16 #
body $-1 $17 $-1 $18 #
body $-1 $19 $-1 $20 #
body $-1 $21 $-1 $22 #
body $-1 $23 $-1 $24 #
body $-1 $25 $-1 $26 #
lump $-1 $-1 $27 $0 #
transform $-1 1 0 0 0 1 0 0 0 1 52.851954710531942 31.098246931668992 10.504425393365445 1 rotate no_reflect no_shear #
lump $-1 $-1 $28 $1 #
transform $-1 1 0 0 0 1 0 0 0 1 52.851954710531942 31.098246931668992 10.504425393365445 1 rotate no_reflect no_shear #
lump $-1 $-1 $29 $2 #
transform $-1 1 0 0 0 1 0 0 0 1 52.851954710531942 31.098246931668992 10.504425393365445 1 rotate no_reflect no_shear #
lump $-1 $-1 $30 $3 #
transform $-1 1 0 0 0 1 0 0 0 1 52.851954710531942 31.098246931668992 10.504425393365445 1 rotate no_reflect no_shear #
lump $-1 $-1 $31 $4 #
transform $-1 1 0 0 0 1 0 0 0 1 52.851954710531942 31.098246931668992 10.504425393365445 1 rotate no_reflect no_shear #
lump $-1 $-1 $32 $5 #
transform $-1 1 0 0 0 1 0 0 0 1 52.851954710531942 31.098246931668992 10.504425393365445 1 rotate no_reflect no_shear #
lump $-1 $-1 $33 $6 #
transform $-1 1 0 0 0 1 0 0 0 1 52.851954710531942 31.098246931668992 10.504425393365445 1 rotate no_reflect no_shear #
lump $-1 $-1 $34 $7 #
transform $-1 1 0 0 0 1 0 0 0 1 52.851954710531942 31.098246931668992 10.504425393365445 1 rotate no_reflect no_shear #
lump $-1 $-1 $35 $8 #
transform $-1 1 0 0 0 1 0 0 0 1 52.851954710531942 31.098246931668992 10.504425393365445 1 rotate no_reflect no_shear #
shell $-1 $-1 $-1 $36 $-1 $9 #
shell $-1 $-1 $-1 $37 $-1 $11 #
shell $-1 $-1 $-1 $38 $-1 $13 #
shell $-1 $-1 $-1 $39 $-1 $15 #
shell $-1 $-1 $-1 $40 $-1 $17 #
shell $-1 $-1 $-1 $41 $-1 $19 #
shell $-1 $-1 $-1 $42 $-1 $21 #
shell $-1 $-1 $-1 $43 $-1 $23 #
shell $-1 $-1 $-1 $44 $-1 $25 #
face $-1 $45 $46 $27 $-1 $47 forward single #
face $-1 $48 $49 $28 $-1 $50 reversed single #
face $-1 $51 $52 $29 $-1 $53 reversed single #
face $-1 $54 $55 $30 $-1 $56 reversed single #
face $-1 $57 $58 $31 $-1 $59 forward single #
face $-1 $60 $61 $32 $-1 $62 forward single #
face $-1 $63 $64 $33 $-1 $65 reversed single #
face $-1 $66 $67 $34 $-1 $68 forward single #
face $-1 $69 $70 $35 $-1 $71 forward single #
face $-1 $72 $73 $27 $-1 $74 reversed single #
loop $-1 $-1 $75 $36 #
plane-surface $-1 0 0 10.504425393365445 0 0 1 1 0 0 forward_v I I I I #
face $-1 $76 $77 $28 $-1 $78 reversed single #
loop $-1 $-1 $79 $37 #
plane-surface $-1 -48.935881713936318 0 6.5053255364338796 0 0 1 1 0 0 forward_v I I I I #
face $-1 $80 $81 $29 $-1 $82 reversed single #
loop $-1 $-1 $83 $38 #
plane-surface $-1 48.935881713936311 0 6.5053255364338796 0 0 1 1 0 0 forward_v I I I I #
face $-1 $84 $85 $30 $-1 $86 reversed single #
loop $-1 $-1 $87 $39 #
plane-surface $-1 19.332399197361902 32.226985172628986 123.72369620460782 1 0 0 0 -0.51503808176128008 -0.85716729658548041 forward_v I I I I #
face $-1 $88 $89 $31 $-1 $90 forward single #
loop $-1 $91 $92 $40 #
cone-surface $-1 26.671659060212988 22.696477027922466 4.8576135947031549 0 -0.51503808176128008 -0.85716729658548041 1.5 0 0 1 I I 0 1 1.5 forward I I I I #
face $-1 $93 $94 $32 $-1 $95 forward single #
loop $-1 $96 $97 $41 #
cone-surface $-1 37.680548854489615 22.696477027922466 4.8576135947031549 0 -0.51503808176128008 -0.85716729658548041 1.5 0 0 1 I I 0 1 1.5 forward I I I I #
face $-1 $98 $99 $33 $-1 $100 reversed single #
loop $-1 $-1 $101 $42 #
plane-surface $-1 32.176103957351302 -31.098246931668982 1.0841990359871971 0 -0.51503808176128008 0.85716729658548041 1 0 0 forward_v I I I I #
face $-1 $102 $103 $34 $-1 $104 forward single #
loop $-1 $105 $106 $43 #
cone-surface $-1 26.671659060212988 -22.696477027922466 4.8576135947031567 0 0.51503808176128008 -0.85716729658548041 1.5 0 0 1 I I 0 1 1.5 forward I I I I #
face $-1 $107 $108 $35 $-1 $109 forward single #
loop $-1 $110 $111 $44 #
cone-surface $-1 37.680548854489615 -22.696477027922466 4.8576135947031567 0 0.51503808176128008 -0.85716729658548041 1.5 0 0 1 I I 0 1 1.5 forward I I I I #
face $-1 $112 $113 $27 $-1 $114 reversed single #
loop $-1 $-1 $115 $45 #
plane-surface $-1 0 0 -10.504425393365445 0 0 1 1 0 0 forward_v I I I I #
coedge $-1 $116 $117 $118 $119 forward $46 $-1 #
face $-1 $120 $121 $28 $-1 $122 reversed single #
loop $-1 $-1 $123 $48 #
plane-surface $-1 -45.019808717340695 0 8.5048754648996621 -1 0 0 0 0 1 forward_v I I I I #
coedge $-1 $124 $125 $126 $127 forward $49 $-1 #
face $-1 $128 $129 $29 $-1 $130 forward single #
loop $-1 $-1 $131 $51 #
plane-surface $-1 45.019808717340688 0 8.5048754648996621 1 0 0 0 0 -1 forward_v I I I I #
coedge $-1 $132 $133 $134 $135 reversed $52 $-1 #
face $-1 $136 $137 $30 $-1 $138 forward single #
loop $-1 $-1 $139 $54 #
plane-surface $-1 32.176103957351302 -22.21455357026386 33.117761927638 0 0.51503808176128008 0.85716729658548041 1 0 0 forward_v I I I I #
coedge $-1 $140 $141 $142 $143 reversed $55 $-1 #
face $-1 $-1 $144 $31 $-1 $145 forward single #
loop $-1 $146 $147 $57 #
cone-surface $-1 26.671659060212988 21.74737314377224 3.2780395022908877 0 -0.51503808176128008 -0.85716729658548041 0.75 0 0 1 I I -0.70710678118654757 0.70710678118654757 0.75 forward I I I I #
loop $-1 $-1 $148 $40 #
coedge $-1 $92 $92 $149 $150 reversed $58 $-1 #
face $-1 $-1 $151 $32 $-1 $152 forward single #
loop $-1 $153 $154 $60 #
cone-surface $-1 37.680548854489615 21.74737314377224 3.2780395022908877 0 -0.51503808176128008 -0.85716729658548041 0.75 0 0 1 I I -0.70710678118654757 0.70710678118654757 0.75 forward I I I I #
loop $-1 $-1 $155 $41 #
coedge $-1 $97 $97 $156 $157 reversed $61 $-1 #
face $-1 $158 $159 $33 $-1 $160 forward single #
loop $-1 $-1 $161 $63 #
plane-surface $-1 19.332399197361902 -85.539785674561827 91.690133312957016 1 0 0 0 0.51503808176128008 -0.85716729658548041 forward_v I I I I #
coedge $-1 $162 $163 $164 $165 reversed $64 $-1 #
face $-1 $-1 $166 $34 $-1 $167 forward single #
loop $-1 $168 $169 $66 #
cone-surface $-1 26.671659060212988 -21.74737314377224 3.2780395022908895 0 0.51503808176128008 -0.85716729658548041 0.75 0 0 1 I I -0.70710678118654757 0.70710678118654757 0.75 forward I I I I #
loop $-1 $-1 $170 $43 #
coedge $-1 $106 $106 $171 $172 reversed $67 $-1 #
face $-1 $-1 $173 $35 $-1 $174 forward single #
loop $-1 $175 $176 $69 #
cone-surface $-1 37.680548854489615 -21.74737314377224 3.2780395022908895 0 0.51503808176128008 -0.85716729658548041 0.75 0 0 1 I I -0.70710678118654757 0.70710678118654757 0.75 forward I I I I #
loop $-1 $-1 $177 $44 #
coedge $-1 $111 $111 $178 $179 reversed $70 $-1 #
face $-1 $180 $181 $27 $-1 $182 reversed single #
loop $-1 $-1 $183 $72 #
plane-surface $-1 0 -31.098246931668992 0 0 1 0 0 0 1 forward_v I I I I #
coedge $-1 $184 $185 $186 $187 forward $73 $-1 #
coedge $-1 $188 $75 $189 $190 forward $46 $-1 #
coedge $-1 $75 $188 $191 $192 forward $46 $-1 #
coedge $-1 $193 $194 $75 $119 reversed $195 $-1 #
edge $-1 $196 -31.098246931668992 $197 31.098246931668992 $118 $198 forward 7 unknown #
face $-1 $199 $200 $28 $-1 $201 reversed single #
loop $-1 $-1 $202 $76 #
plane-surface $-1 0 31.098246931668992 0 0 -1 0 0 0 -1 forward_v I I I I #
coedge $-1 $126 $203 $204 $205 reversed $77 $-1 #
coedge $-1 $206 $79 $207 $208 reversed $49 $-1 #
coedge $-1 $79 $206 $209 $210 reversed $49 $-1 #
coedge $-1 $211 $123 $79 $127 reversed $77 $-1 #
edge $-1 $212 -31.098246931668992 $213 31.098246931668992 $126 $214 forward 7 unknown #
face $-1 $215 $216 $29 $-1 $217 reversed single #
loop $-1 $-1 $218 $80 #
plane-surface $-1 0 0 10.504425393365445 0 0 1 1 0 0 forward_v I I I I #
coedge $-1 $219 $220 $218 $221 reversed $81 $-1 #
coedge $-1 $222 $83 $223 $224 reversed $52 $-1 #
coedge $-1 $83 $222 $225 $226 reversed $52 $-1 #
coedge $-1 $227 $228 $83 $135 forward $229 $-1 #
edge $-1 $230 -31.098246931668992 $231 31.098246931668992 $134 $232 forward 7 unknown #
face $-1 $233 $234 $30 $-1 $235 forward single #
loop $-1 $-1 $142 $84 #
plane-surface $-1 0 0 10.504425393365445 0 0 1 1 0 0 forward_v I I I I #
coedge $-1 $236 $237 $238 $239 reversed $85 $-1 #
coedge $-1 $141 $87 $240 $241 reversed $55 $-1 #
coedge $-1 $87 $140 $236 $242 reversed $55 $-1 #
coedge $-1 $238 $243 $87 $143 forward $137 $-1 #
edge $-1 $244 -14.984754345354499 $245 0.69313481648003972 $142 $246 forward 7 unknown #
loop $-1 $-1 $149 $88 #
plane-surface $-1 32.176103957351302 -22.21455357026386 33.117761927638 0 0.51503808176128008 0.85716729658548041 1 0 0 forward_v I I I I #
loop $-1 $-1 $247 $57 #
coedge $-1 $147 $147 $148 $248 reversed $89 $-1 #
coedge $-1 $148 $148 $147 $248 forward $91 $-1 #
coedge $-1 $149 $149 $92 $150 forward $144 $-1 #
edge $-1 $249 1.3156857155348706e-015 $249 6.2831853071796013 $149 $250 forward 7 unknown #
loop $-1 $-1 $156 $93 #
plane-surface $-1 32.176103957351302 -22.21455357026386 33.117761927638 0 0.51503808176128008 0.85716729658548041 1 0 0 forward_v I I I I #
loop $-1 $-1 $251 $60 #
coedge $-1 $154 $154 $155 $252 reversed $94 $-1 #
coedge $-1 $155 $155 $154 $252 forward $96 $-1 #
coedge $-1 $156 $156 $97 $157 forward $151 $-1 #
edge $-1 $253 1.3156857155348706e-015 $253 6.2831853071796013 $156 $254 forward 7 unknown #
face $-1 $255 $256 $33 $-1 $257 reversed single #
loop $-1 $-1 $164 $98 #
plane-surface $-1 0 0 10.504425393365445 0 0 1 1 0 0 forward_v I I I I #
coedge $-1 $258 $259 $260 $261 reversed $99 $-1 #
coedge $-1 $262 $101 $263 $264 reversed $64 $-1 #
coedge $-1 $101 $262 $258 $265 forward $64 $-1 #
coedge $-1 $260 $266 $101 $165 forward $159 $-1 #
edge $-1 $267 -28.931756738665051 $268 -3.2443472186862508 $164 $269 forward 7 unknown #
loop $-1 $-1 $171 $102 #
plane-surface $-1 32.176103957351302 -31.098246931668982 1.0841990359871971 0 -0.51503808176128008 0.85716729658548041 1 0 0 forward_v I I I I #
loop $-1 $-1 $270 $66 #
coedge $-1 $169 $169 $170 $271 reversed $103 $-1 #
coedge $-1 $170 $170 $169 $271 forward $105 $-1 #
coedge $-1 $171 $171 $106 $172 forward $166 $-1 #
edge $-1 $272 -2.1347466445392157e-015 $272 6.2831853071795987 $171 $273 forward 7 unknown #
loop $-1 $-1 $178 $107 #
plane-surface $-1 32.176103957351302 -31.098246931668982 1.0841990359871971 0 -0.51503808176128008 0.85716729658548041 1 0 0 forward_v I I I I #
loop $-1 $-1 $274 $69 #
coedge $-1 $176 $176 $177 $275 reversed $108 $-1 #
coedge $-1 $177 $177 $176 $275 forward $110 $-1 #
coedge $-1 $178 $178 $111 $179 forward $173 $-1 #
edge $-1 $276 -2.1347466445392157e-015 $276 6.2831853071795987 $178 $277 forward 7 unknown #
face $-1 $278 $279 $27 $-1 $280 reversed single #
loop $-1 $-1 $281 $112 #
plane-surface $-1 -52.851954710531942 0 0 1 0 0 0 0 -1 forward_v I I I I #
coedge $-1 $282 $191 $283 $284 forward $113 $-1 #
coedge $-1 $285 $115 $282 $286 forward $73 $-1 #
coedge $-1 $115 $285 $287 $288 forward $73 $-1 #
coedge $-1 $194 $193 $115 $187 reversed $195 $-1 #
edge $-1 $289 -31.098246931668992 $290 31.098246931668992 $186 $291 forward 7 unknown #
coedge $-1 $117 $116 $292 $293 forward $46 $-1 #
coedge $-1 $294 $295 $116 $190 reversed $279 $-1 #
edge $-1 $197 -52.851954710531942 $296 52.851954710531942 $189 $297 forward 7 unknown #
coedge $-1 $183 $298 $117 $192 reversed $113 $-1 #
edge $-1 $299 -52.851954710531942 $196 52.851954710531942 $191 $300 forward 7 unknown #
coedge $-1 $186 $118 $298 $301 forward $195 $-1 #
coedge $-1 $118 $186 $294 $302 reversed $195 $-1 #
loop $-1 $-1 $193 $278 #
vertex $-1 $119 $303 #
vertex $-1 $119 $304 #
straight-curve $-1 52.851954710531942 0 10.504425393365445 0 1 0 I I #
face $-1 $305 $306 $28 $-1 $307 forward single #
loop $-1 $-1 $308 $120 #
plane-surface $-1 -52.851954710531942 0 0 1 0 0 0 0 -1 forward_v I I I I #
coedge $-1 $209 $309 $211 $310 forward $121 $-1 #
coedge $-1 $123 $211 $311 $312 reversed $77 $-1 #
coedge $-1 $313 $207 $123 $205 forward $314 $-1 #
edge $-1 $213 2.2528878039840485 $315 6.2519876609156135 $204 $316 forward 7 unknown #
coedge $-1 $125 $124 $308 $317 reversed $49 $-1 #
coedge $-1 $204 $318 $124 $208 forward $314 $-1 #
edge $-1 $319 -28.384013853563783 $213 -20.551867860372536 $207 $320 forward 7 unknown #
coedge $-1 $321 $202 $125 $210 forward $121 $-1 #
edge $-1 $212 20.551867860372536 $322 28.384013853563783 $209 $323 forward 7 unknown #
coedge $-1 $203 $126 $202 $310 reversed $77 $-1 #
vertex $-1 $210 $324 #
vertex $-1 $208 $325 #
straight-curve $-1 -45.019808717340695 0 6.5053255364338796 0 -1 0 I I #
face $-1 $326 $327 $29 $-1 $328 reversed single #
loop $-1 $-1 $329 $128 #
plane-surface $-1 0 -31.098246931668992 0 0 1 0 0 0 1 forward_v I I I I #
coedge $-1 $330 $331 $131 $221 forward $129 $-1 #
coedge $-1 $332 $131 $333 $334 reversed $81 $-1 #
coedge $-1 $131 $332 $329 $335 reversed $81 $-1 #
edge $-1 $336 -31.098246931668992 $337 31.098246931668992 $218 $338 forward 7 unknown #
coedge $-1 $133 $132 $332 $339 forward $52 $-1 #
coedge $-1 $340 $329 $132 $224 forward $216 $-1 #
edge $-1 $341 20.551867860372532 $230 28.384013853563779 $223 $342 forward 7 unknown #
coedge $-1 $333 $343 $133 $226 forward $327 $-1 #
edge $-1 $231 -28.384013853563779 $344 -20.551867860372532 $225 $345 forward 7 unknown #
coedge $-1 $346 $134 $343 $347 reversed $229 $-1 #
coedge $-1 $134 $346 $340 $348 forward $229 $-1 #
loop $-1 $-1 $134 $326 #
vertex $-1 $224 $349 #
vertex $-1 $135 $350 #
straight-curve $-1 52.851954710531942 0 6.5053255364338796 0 1 0 I I #
face $-1 $-1 $351 $30 $-1 $352 reversed single #
loop $-1 $-1 $353 $136 #
plane-surface $-1 45.019808717340688 0 8.5048754648996621 1 0 0 0 0 -1 forward_v I I I I #
coedge $-1 $354 $139 $141 $242 forward $85 $-1 #
coedge $-1 $139 $354 $353 $355 forward $85 $-1 #
coedge $-1 $356 $142 $139 $239 forward $137 $-1 #
edge $-1 $245 3.2443472186862508 $357 28.931756738665037 $238 $358 forward 7 unknown #
coedge $-1 $359 $360 $140 $241 forward $351 $-1 #
edge $-1 $361 -60.777649066316741 $244 -51.357422708938465 $240 $362 forward 7 unknown #
edge $-1 $245 43.906144681460319 $361 62.196493863337999 $141 $363 forward 7 unknown #
coedge $-1 $142 $356 $359 $364 forward $137 $-1 #
vertex $-1 $241 $365 #
vertex $-1 $143 $366 #
straight-curve $-1 19.332399197361902 16.113492586314493 10.504425393365445 0 -1 0 I I #
coedge $-1 $247 $247 $-1 $367 reversed $146 $-1 #
edge $-1 $368 0 $368 6.2831853071796004 $147 $369 forward 7 unknown #
vertex $-1 $150 $370 #
ellipse-curve $-1 26.671659060212988 23.259302350751728 5.794312214676304 0 0.51503808176128008 0.85716729658548041 1.5 0 0 1 I I #
coedge $-1 $251 $251 $-1 $371 reversed $153 $-1 #
edge $-1 $372 0 $372 6.2831853071796004 $154 $373 forward 7 unknown #
vertex $-1 $157 $374 #
ellipse-curve $-1 37.680548854489615 23.259302350751728 5.794312214676304 0 0.51503808176128008 0.85716729658548041 1.5 0 0 1 I I #
face $-1 $-1 $375 $33 $-1 $376 forward single #
loop $-1 $-1 $377 $158 #
plane-surface $-1 0 -31.098246931668992 0 0 1 0 0 0 1 forward_v I I I I #
coedge $-1 $259 $161 $163 $265 reversed $99 $-1 #
coedge $-1 $161 $258 $377 $378 reversed $99 $-1 #
coedge $-1 $379 $164 $161 $261 forward $159 $-1 #
edge $-1 $268 -27.349535067446425 $380 -11.671645905611921 $260 $381 forward 7 unknown #
coedge $-1 $163 $162 $382 $383 reversed $64 $-1 #
coedge $-1 $384 $385 $162 $264 forward $375 $-1 #
edge $-1 $386 -15.239165602142329 $267 3.0511835797353029 $263 $387 forward 7 unknown #
edge $-1 $388 -1.24522913329939e-014 $268 18.29034918187762 $258 $389 forward 7 unknown #
coedge $-1 $164 $379 $384 $390 forward $159 $-1 #
vertex $-1 $264 $391 #
vertex $-1 $165 $392 #
straight-curve $-1 16.088051978675651 -15.420357769834487 10.504425393365445 -1 0 0 I I #
coedge $-1 $270 $270 $-1 $393 reversed $168 $-1 #
edge $-1 $394 0 $394 6.2831853071796004 $169 $395 forward 7 unknown #
vertex $-1 $172 $396 #
ellipse-curve $-1 26.671659060212988 -23.259302350751735 5.79431221467632 0 -0.51503808176128008 0.85716729658548041 1.5 0 0 1 I I #
coedge $-1 $274 $274 $-1 $397 reversed $175 $-1 #
edge $-1 $398 0 $398 6.2831853071796004 $176 $399 forward 7 unknown #
vertex $-1 $179 $400 #
ellipse-curve $-1 37.680548854489615 -23.259302350751735 5.79431221467632 0 -0.51503808176128008 0.85716729658548041 1.5 0 0 1 I I #
face $-1 $-1 $195 $27 $-1 $401 reversed single #
loop $-1 $-1 $294 $180 #
plane-surface $-1 0 31.098246931668992 0 0 -1 0 0 0 -1 forward_v I I I I #
coedge $-1 $402 $292 $295 $403 forward $181 $-1 #
coedge $-1 $298 $183 $184 $286 reversed $113 $-1 #
coedge $-1 $292 $402 $183 $284 reversed $181 $-1 #
edge $-1 $299 -10.504425393365445 $404 10.504425393365445 $283 $405 forward 7 unknown #
coedge $-1 $185 $184 $402 $406 forward $73 $-1 #
edge $-1 $290 -52.851954710531942 $404 52.851954710531942 $282 $407 forward 7 unknown #
coedge $-1 $295 $294 $185 $288 reversed $279 $-1 #
edge $-1 $408 -52.851954710531942 $289 52.851954710531942 $287 $409 forward 7 unknown #
vertex $-1 $187 $410 #
vertex $-1 $301 $411 #
straight-curve $-1 52.851954710531942 0 -10.504425393365445 0 -1 0 I I #
coedge $-1 $281 $283 $188 $293 reversed $181 $-1 #
edge $-1 $296 -31.098246931668992 $299 31.098246931668992 $292 $412 forward 7 unknown #
coedge $-1 $287 $189 $194 $302 forward $279 $-1 #
coedge $-1 $189 $287 $281 $403 reversed $279 $-1 #
vertex $-1 $190 $413 #
straight-curve $-1 0 31.098246931668992 10.504425393365445 -1 0 0 I I #
coedge $-1 $191 $282 $193 $301 reversed $113 $-1 #
vertex $-1 $293 $414 #
straight-curve $-1 0 -31.098246931668992 10.504425393365445 1 0 0 I I #
edge $-1 $196 -10.504425393365445 $290 10.504425393365445 $193 $415 forward 7 unknown #
edge $-1 $197 -10.504425393365445 $289 10.504425393365445 $194 $416 forward 7 unknown #
point $-1 52.851954710531942 -31.098246931668992 10.504425393365445 #
point $-1 52.851954710531942 31.098246931668992 10.504425393365445 #
face $-1 $-1 $314 $28 $-1 $417 reversed single #
loop $-1 $-1 $311 $199 #
plane-surface $-1 0 0 10.504425393365445 0 0 1 1 0 0 forward_v I I I I #
coedge $-1 $418 $419 $206 $317 forward $200 $-1 #
coedge $-1 $202 $321 $420 $421 reversed $121 $-1 #
edge $-1 $422 -6.2519876609156135 $212 -2.2528878039840485 $202 $423 forward 7 unknown #
coedge $-1 $420 $424 $203 $312 forward $306 $-1 #
edge $-1 $315 -31.098246931668992 $422 31.098246931668992 $311 $425 forward 7 unknown #
coedge $-1 $318 $204 $424 $426 reversed $314 $-1 #
loop $-1 $-1 $204 $305 #
vertex $-1 $205 $427 #
straight-curve $-1 -45.019808717340695 -31.098246931668992 4.252437732449831 0 0 1 I I #
edge $-1 $322 -31.098246931668992 $319 31.098246931668992 $308 $428 forward 7 unknown #
coedge $-1 $207 $313 $418 $429 forward $314 $-1 #
vertex $-1 $317 $430 #
straight-curve $-1 -24.467940856968159 -31.098246931668992 6.5053255364338796 1 0 0 I I #
coedge $-1 $309 $209 $419 $431 reversed $121 $-1 #
vertex $-1 $317 $432 #
straight-curve $-1 -24.467940856968159 31.098246931668992 6.5053255364338796 -1 0 0 I I #
point $-1 -45.019808717340695 31.098246931668992 6.5053255364338796 #
point $-1 -45.019808717340695 -31.098246931668992 6.5053255364338796 #
face $-1 $-1 $229 $29 $-1 $433 reversed single #
loop $-1 $-1 $333 $215 #
plane-surface $-1 0 31.098246931668992 0 0 -1 0 0 0 -1 forward_v I I I I #
coedge $-1 $223 $434 $220 $335 forward $216 $-1 #
coedge $-1 $435 $218 $434 $436 forward $129 $-1 #
coedge $-1 $218 $435 $437 $438 forward $129 $-1 #
coedge $-1 $220 $219 $222 $339 reversed $81 $-1 #
coedge $-1 $437 $225 $219 $334 forward $327 $-1 #
edge $-1 $344 2.2528878039840485 $336 6.2519876609156135 $333 $439 forward 7 unknown #
edge $-1 $337 -6.2519876609156135 $341 -2.2528878039840485 $329 $440 forward 7 unknown #
vertex $-1 $334 $441 #
vertex $-1 $436 $442 #
straight-curve $-1 45.019808717340688 0 10.504425393365445 0 -1 0 I I #
edge $-1 $341 -31.098246931668992 $344 31.098246931668992 $332 $443 forward 7 unknown #
coedge $-1 $434 $223 $228 $348 reversed $216 $-1 #
vertex $-1 $224 $444 #
straight-curve $-1 24.467940856968156 -31.098246931668992 6.5053255364338796 1 0 0 I I #
coedge $-1 $225 $437 $227 $347 forward $327 $-1 #
vertex $-1 $226 $445 #
straight-curve $-1 24.467940856968156 31.098246931668992 6.5053255364338796 -1 0 0 I I #
coedge $-1 $228 $227 $435 $446 reversed $229 $-1 #
edge $-1 $447 -10.504425393365445 $231 -6.5053255364338796 $227 $448 forward 7 unknown #
edge $-1 $449 -10.504425393365445 $230 -6.5053255364338796 $228 $450 forward 7 unknown #
point $-1 52.851954710531935 -31.098246931668992 6.5053255364338796 #
point $-1 52.851954710531935 31.098246931668992 6.5053255364338796 #
loop $-1 $-1 $240 $233 #
plane-surface $-1 0 31.098246931668992 0 0 -1 0 0 0 -1 forward_v I I I I #
coedge $-1 $451 $452 $237 $355 reversed $234 $-1 #
coedge $-1 $237 $236 $360 $453 reversed $85 $-1 #
edge $-1 $454 -62.196493863337999 $357 -43.906144681460319 $353 $455 forward 7 unknown #
coedge $-1 $243 $238 $452 $456 forward $137 $-1 #
vertex $-1 $456 $457 #
straight-curve $-1 16.088051978675651 15.420357769834457 10.504425393365445 1 0 0 I I #
coedge $-1 $458 $240 $243 $364 reversed $351 $-1 #
coedge $-1 $240 $458 $354 $453 forward $351 $-1 #
vertex $-1 $241 $459 #
straight-curve $-1 19.332399197361902 31.098246931668992 61.86184810230391 0 0 1 I I #
straight-curve $-1 19.332399197361902 -22.21455357026386 33.117761927638 0 0.85716729658548041 -0.51503808176128008 I I #
edge $-1 $460 -45.019808717340688 $244 -19.332399197361902 $359 $461 forward 7 unknown #
point $-1 19.332399197361902 31.098246931668992 10.504425393365445 #
point $-1 19.332399197361902 15.420357769834453 10.504425393365445 #
edge $-1 $462 1 $462 0 $247 $-1 forward 7 unknown #
vertex $-1 $248 $463 #
ellipse-curve $-1 26.671659060212988 22.1336517050932 3.9209149747299978 0 0.51503808176128008 0.85716729658548041 1.5 0 0 1 I I #
point $-1 28.171659060212988 23.259302350751735 5.794312214676312 #
edge $-1 $464 1 $464 0 $251 $-1 forward 7 unknown #
vertex $-1 $252 $465 #
ellipse-curve $-1 37.680548854489615 22.1336517050932 3.9209149747299978 0 0.51503808176128008 0.85716729658548041 1.5 0 0 1 I I #
point $-1 39.180548854489615 23.259302350751735 5.794312214676312 #
loop $-1 $-1 $263 $255 #
plane-surface $-1 45.019808717340688 0 8.5048754648996621 1 0 0 0 0 -1 forward_v I I I I #
coedge $-1 $382 $466 $259 $378 forward $256 $-1 #
edge $-1 $380 35.340641263113064 $388 44.760867620491318 $377 $467 forward 7 unknown #
coedge $-1 $266 $260 $466 $468 forward $159 $-1 #
vertex $-1 $468 $469 #
straight-curve $-1 19.332399197361902 -42.769892837280914 10.504425393365445 0 -1 0 I I #
coedge $-1 $470 $377 $262 $383 forward $256 $-1 #
edge $-1 $388 3.2443472186862508 $386 28.931756738665051 $382 $471 forward 7 unknown #
coedge $-1 $385 $263 $266 $390 reversed $375 $-1 #
coedge $-1 $263 $384 $470 $472 reversed $375 $-1 #
vertex $-1 $472 $473 #
straight-curve $-1 45.019808717340688 -18.035732550262207 8.9329496553570582 0 0.85716729658548041 0.51503808176128008 I I #
vertex $-1 $383 $474 #
straight-curve $-1 19.332399197361902 -31.098246931668982 1.0841990359871971 0 0.85716729658548041 0.51503808176128008 I I #
edge $-1 $475 -31.098246931668992 $267 -15.420357769834489 $266 $476 forward 7 unknown #
point $-1 45.019808717340702 -15.420357769834489 10.504425393365445 #
point $-1 19.332399197361902 -15.420357769834489 10.504425393365445 #
edge $-1 $477 1 $477 0 $270 $-1 forward 7 unknown #
vertex $-1 $271 $478 #
ellipse-curve $-1 26.671659060212988 -22.1336517050932 3.9209149747299996 0 -0.51503808176128008 0.85716729658548041 1.5 0 0 1 I I #
point $-1 28.171659060212988 -23.259302350751735 5.7943122146763137 #
edge $-1 $479 1 $479 0 $274 $-1 forward 7 unknown #
vertex $-1 $275 $480 #
ellipse-curve $-1 37.680548854489615 -22.1336517050932 3.9209149747299996 0 -0.51503808176128008 0.85716729658548041 1.5 0 0 1 I I #
point $-1 39.180548854489615 -23.259302350751735 5.7943122146763137 #
plane-surface $-1 52.851954710531942 0 0 -1 0 0 0 0 1 forward_v I I I I #
coedge $-1 $283 $281 $285 $406 reversed $181 $-1 #
edge $-1 $296 -10.504425393365445 $408 10.504425393365445 $295 $481 forward 7 unknown #
vertex $-1 $406 $482 #
straight-curve $-1 -52.851954710531942 -31.098246931668992 0 0 0 -1 I I #
edge $-1 $404 -31.098246931668992 $408 31.098246931668992 $402 $483 forward 7 unknown #
straight-curve $-1 0 -31.098246931668992 -10.504425393365445 -1 0 0 I I #
vertex $-1 $288 $484 #
straight-curve $-1 0 31.098246931668992 -10.504425393365445 1 0 0 I I #
point $-1 52.851954710531942 31.098246931668992 -10.504425393365445 #
point $-1 52.851954710531942 -31.098246931668992 -10.504425393365445 #
straight-curve $-1 -52.851954710531942 0 10.504425393365445 0 -1 0 I I #
point $-1 -52.851954710531942 31.098246931668992 10.504425393365445 #
point $-1 -52.851954710531942 -31.098246931668992 10.504425393365445 #
straight-curve $-1 52.851954710531942 -31.098246931668992 0 0 0 -1 I I #
straight-curve $-1 52.851954710531942 31.098246931668992 0 0 0 -1 I I #
plane-surface $-1 0 -31.098246931668992 0 0 1 0 0 0 1 forward_v I I I I #
coedge $-1 $485 $308 $318 $429 reversed $200 $-1 #
coedge $-1 $308 $485 $321 $431 forward $200 $-1 #
coedge $-1 $486 $311 $309 $421 forward $306 $-1 #
edge $-1 $422 45.019808717340695 $487 52.851954710531942 $309 $488 forward 7 unknown #
vertex $-1 $421 $489 #
straight-curve $-1 -45.019808717340695 31.098246931668992 4.252437732449831 0 0 -1 I I #
coedge $-1 $311 $486 $313 $426 forward $306 $-1 #
straight-curve $-1 -45.019808717340695 0 10.504425393365445 0 1 0 I I #
edge $-1 $490 -52.851954710531942 $315 -45.019808717340695 $313 $491 forward 7 unknown #
point $-1 -45.019808717340695 -31.098246931668992 10.504425393365445 #
straight-curve $-1 -52.851954710531942 0 6.5053255364338796 0 -1 0 I I #
edge $-1 $490 -10.504425393365445 $319 -6.5053255364338796 $418 $492 forward 7 unknown #
point $-1 -52.851954710531942 -31.098246931668992 6.5053255364338796 #
edge $-1 $487 -10.504425393365445 $322 -6.5053255364338796 $321 $493 forward 7 unknown #
point $-1 -52.851954710531942 31.098246931668992 6.5053255364338796 #
plane-surface $-1 52.851954710531942 0 0 -1 0 0 0 0 1 forward_v I I I I #
coedge $-1 $329 $340 $330 $436 reversed $216 $-1 #
coedge $-1 $331 $330 $346 $446 forward $129 $-1 #
edge $-1 $337 45.019808717340688 $449 52.851954710531942 $434 $494 forward 7 unknown #
coedge $-1 $343 $333 $331 $438 reversed $327 $-1 #
edge $-1 $447 -52.851954710531942 $336 -45.019808717340688 $437 $495 forward 7 unknown #
straight-curve $-1 45.019808717340688 31.098246931668992 4.252437732449831 0 0 1 I I #
straight-curve $-1 45.019808717340688 -31.098246931668992 4.252437732449831 0 0 -1 I I #
point $-1 45.019808717340688 31.098246931668992 10.504425393365445 #
point $-1 45.019808717340688 -31.098246931668992 10.504425393365445 #
straight-curve $-1 45.019808717340688 0 6.5053255364338796 0 1 0 I I #
point $-1 45.019808717340688 -31.098246931668992 6.5053255364338796 #
point $-1 45.019808717340688 31.098246931668992 6.5053255364338796 #
edge $-1 $449 -31.098246931668992 $447 31.098246931668992 $346 $496 forward 7 unknown #
vertex $-1 $446 $497 #
straight-curve $-1 52.851954710531942 31.098246931668992 0 0 0 -1 I I #
vertex $-1 $446 $498 #
straight-curve $-1 52.851954710531942 -31.098246931668992 0 0 0 -1 I I #
coedge $-1 $452 $353 $458 $499 reversed $234 $-1 #
coedge $-1 $353 $451 $356 $456 reversed $234 $-1 #
edge $-1 $454 -28.931756738665051 $361 -3.2443472186862508 $360 $500 forward 7 unknown #
vertex $-1 $499 $501 #
straight-curve $-1 45.019808717340702 -22.21455357026386 33.117761927638 0 -0.85716729658548041 0.51503808176128008 I I #
edge $-1 $357 15.420357769834455 $460 31.098246931668992 $356 $502 forward 7 unknown #
point $-1 45.019808717340688 15.420357769834455 10.504425393365445 #
coedge $-1 $360 $359 $451 $499 forward $351 $-1 #
point $-1 19.332399197361902 31.098246931668996 1.0841990359871687 #
vertex $-1 $364 $503 #
straight-curve $-1 0 31.098246931668992 10.504425393365445 -1 0 0 I I #
vertex $-1 $367 $504 #
point $-1 28.171659060212988 22.1336517050932 3.9209149747299978 #
vertex $-1 $371 $505 #
point $-1 39.180548854489615 22.1336517050932 3.9209149747299978 #
coedge $-1 $377 $470 $379 $468 reversed $256 $-1 #
straight-curve $-1 19.332399197361902 -31.098246931668992 45.845066656478508 0 0 -1 I I #
edge $-1 $380 19.332399197361902 $475 45.019808717340688 $466 $506 forward 7 unknown #
point $-1 19.332399197361902 -31.098246931668992 10.504425393365445 #
coedge $-1 $466 $382 $385 $472 forward $256 $-1 #
straight-curve $-1 16.088051978675651 -31.098246931668992 1.0841990359871914 1 0 0 I I #
edge $-1 $386 -44.760867620491318 $475 -35.340641263113064 $470 $507 forward 7 unknown #
point $-1 45.019808717340702 -31.098246931668992 1.0841990359871907 #
point $-1 19.332399197361902 -31.098246931668992 1.0841990359871907 #
vertex $-1 $390 $508 #
straight-curve $-1 45.019808717340688 0 10.504425393365445 0 1 0 I I #
vertex $-1 $393 $509 #
point $-1 28.171659060212988 -22.1336517050932 3.9209149747299996 #
vertex $-1 $397 $510 #
point $-1 39.180548854489615 -22.1336517050932 3.9209149747299996 #
straight-curve $-1 -52.851954710531942 31.098246931668992 0 0 0 -1 I I #
point $-1 -52.851954710531942 -31.098246931668992 -10.504425393365445 #
straight-curve $-1 -52.851954710531942 0 -10.504425393365445 0 1 0 I I #
point $-1 -52.851954710531942 31.098246931668992 -10.504425393365445 #
coedge $-1 $419 $418 $486 $511 reversed $200 $-1 #
coedge $-1 $424 $420 $485 $511 forward $306 $-1 #
vertex $-1 $421 $512 #
straight-curve $-1 0 31.098246931668992 10.504425393365445 -1 0 0 I I #
point $-1 -45.019808717340695 31.098246931668992 10.504425393365445 #
vertex $-1 $511 $513 #
straight-curve $-1 0 -31.098246931668992 10.504425393365445 1 0 0 I I #
straight-curve $-1 -52.851954710531942 -31.098246931668992 0 0 0 -1 I I #
straight-curve $-1 -52.851954710531942 31.098246931668992 0 0 0 -1 I I #
straight-curve $-1 0 -31.098246931668992 10.504425393365445 1 0 0 I I #
straight-curve $-1 0 31.098246931668992 10.504425393365445 -1 0 0 I I #
straight-curve $-1 52.851954710531942 0 10.504425393365445 0 1 0 I I #
point $-1 52.851954710531942 31.098246931668992 10.504425393365445 #
point $-1 52.851954710531942 -31.098246931668992 10.504425393365445 #
edge $-1 $460 51.357422708938465 $454 60.777649066316741 $458 $514 forward 7 unknown #
straight-curve $-1 16.088051978675651 31.098246931668992 1.0841990359871723 -1 0 0 I I #
point $-1 45.019808717340702 31.098246931668996 1.0841990359871687 #
straight-curve $-1 45.019808717340688 0 10.504425393365445 0 1 0 I I #
point $-1 45.019808717340688 31.098246931668992 10.504425393365445 #
point $-1 26.671659060212988 21.36109458245128 2.6351640298517776 #
point $-1 37.680548854489615 21.36109458245128 2.6351640298517776 #
straight-curve $-1 0 -31.098246931668992 10.504425393365445 1 0 0 I I #
straight-curve $-1 45.019808717340702 -31.098246931668992 45.845066656478508 0 0 1 I I #
point $-1 45.019808717340688 -31.098246931668992 10.504425393365445 #
point $-1 26.671659060212988 -21.36109458245128 2.6351640298517793 #
point $-1 37.680548854489615 -21.36109458245128 2.6351640298517793 #
edge $-1 $487 -31.098246931668992 $490 31.098246931668992 $485 $515 forward 7 unknown #
point $-1 -52.851954710531942 31.098246931668992 10.504425393365445 #
point $-1 -52.851954710531942 -31.098246931668992 10.504425393365445 #
straight-curve $-1 45.019808717340702 31.098246931668992 61.86184810230391 0 0 -1 I I #
straight-curve $-1 -52.851954710531942 0 10.504425393365445 0 -1 0 I I #
End-of-ACIS-data 