500 0 9 0           
7 Unknown 11 ACIS 5.0 NT 24 Thu Mar 25 20:02:31 1999 
-1 9.9999999999999995e-007 1e-010 
body $-1 $9 $-1 $10 #
body $-1 $11 $-1 $12 #
body $-1 $13 $-1 $14 #
body $-1 $15 $-1 $16 #
body $-1 $17 $-1 $18 #
body $-1 $19 $-1 $20 #
body $-1 $21 $-1 $22 #
body $-1 $23 $-1 $24 #
body $-1 $25 $-1 $26 #
lump $-1 $-1 $27 $0 #
transform $-1 1 0 0 0 1 0 0 0 1 76.918851283303326 42.450088417664588 19.562382278376937 1 rotate no_reflect no_shear #
lump $-1 $-1 $28 $1 #
transform $-1 1 0 0 0 1 0 0 0 1 76.918851283303326 42.450088417664588 19.562382278376937 1 rotate no_reflect no_shear #
lump $-1 $-1 $29 $2 #
transform $-1 1 0 0 0 1 0 0 0 1 76.918851283303326 42.450088417664588 19.562382278376937 1 rotate no_reflect no_shear #
lump $-1 $-1 $30 $3 #
transform $-1 1 0 0 0 1 0 0 0 1 76.918851283303326 42.450088417664588 19.562382278376937 1 rotate no_reflect no_shear #
lump $-1 $-1 $31 $4 #
transform $-1 1 0 0 0 1 0 0 0 1 76.918851283303326 42.450088417664588 19.562382278376937 1 rotate no_reflect no_shear #
lump $-1 $-1 $32 $5 #
transform $-1 1 0 0 0 1 0 0 0 1 76.918851283303326 42.450088417664588 19.562382278376937 1 rotate no_reflect no_shear #
lump $-1 $-1 $33 $6 #
transform $-1 1 0 0 0 1 0 0 0 1 76.918851283303326 42.450088417664588 19.562382278376937 1 rotate no_reflect no_shear #
lump $-1 $-1 $34 $7 #
transform $-1 1 0 0 0 1 0 0 0 1 76.918851283303326 42.450088417664588 19.562382278376937 1 rotate no_reflect no_shear #
lump $-1 $-1 $35 $8 #
transform $-1 1 0 0 0 1 0 0 0 1 76.918851283303326 42.450088417664588 19.562382278376937 1 rotate no_reflect no_shear #
shell $-1 $-1 $-1 $36 $-1 $9 #
shell $-1 $-1 $-1 $37 $-1 $11 #
shell $-1 $-1 $-1 $38 $-1 $13 #
shell $-1 $-1 $-1 $39 $-1 $15 #
shell $-1 $-1 $-1 $40 $-1 $17 #
shell $-1 $-1 $-1 $41 $-1 $19 #
shell $-1 $-1 $-1 $42 $-1 $21 #
shell $-1 $-1 $-1 $43 $-1 $23 #
shell $-1 $-1 $-1 $44 $-1 $25 #
face $-1 $45 $46 $27 $-1 $47 forward single #
face $-1 $48 $49 $28 $-1 $50 forward single #
face $-1 $51 $52 $29 $-1 $53 reversed single #
face $-1 $54 $55 $30 $-1 $56 reversed single #
face $-1 $57 $58 $31 $-1 $59 forward single #
face $-1 $60 $61 $32 $-1 $62 forward single #
face $-1 $63 $64 $33 $-1 $65 reversed single #
face $-1 $66 $67 $34 $-1 $68 forward single #
face $-1 $69 $70 $35 $-1 $71 forward single #
face $-1 $72 $73 $27 $-1 $74 reversed single #
loop $-1 $-1 $75 $36 #
plane-surface $-1 0 0 19.562382278376937 0 0 1 1 0 0 forward_v I I I I #
face $-1 $76 $77 $28 $-1 $78 reversed single #
loop $-1 $-1 $79 $37 #
plane-surface $-1 -67.141200441576046 0 18.82322504636571 0 0 1 1 0 0 forward_v I I I I #
face $-1 $80 $81 $29 $-1 $82 reversed single #
loop $-1 $-1 $83 $38 #
plane-surface $-1 66.368114102884192 0 9.219579364864634 0 0 1 1 0 0 forward_v I I I I #
face $-1 $84 $85 $30 $-1 $86 reversed single #
loop $-1 $-1 $87 $39 #
plane-surface $-1 -49.339558333193345 -25.354207124891559 61.426294461009789 0 0.6018150307709319 0.79863550430605224 1 0 0 forward_v I I I I #
face $-1 $88 $89 $31 $-1 $90 forward single #
loop $-1 $91 $92 $40 #
cone-surface $-1 -52.77841173318852 35.915579520566332 14.403142748910902 0 -0.6018150307709319 -0.79863550430605224 1 0 0 1 I I 0 1 1 forward I I I I #
face $-1 $93 $94 $32 $-1 $95 forward single #
loop $-1 $96 $97 $41 #
cone-surface $-1 -45.900704933198163 35.915579520566332 14.403142748910902 0 -0.6018150307709319 -0.79863550430605224 1 0 0 1 I I 0 1 1 forward I I I I #
face $-1 $98 $99 $33 $-1 $100 reversed single #
loop $-1 $-1 $101 $42 #
plane-surface $-1 47.793385655809658 -25.354207124891559 61.426294461009789 0 0.6018150307709319 0.79863550430605224 1 0 0 forward_v I I I I #
face $-1 $102 $103 $34 $-1 $104 forward single #
loop $-1 $105 $106 $43 #
cone-surface $-1 44.354532255814476 35.915579520566332 14.403142748910902 0 -0.6018150307709319 -0.79863550430605224 1 0 0 1 I I 0 1 1 forward I I I I #
face $-1 $107 $108 $35 $-1 $109 forward single #
loop $-1 $110 $111 $44 #
cone-surface $-1 51.232239055804826 35.915579520566332 14.403142748910902 0 -0.6018150307709319 -0.79863550430605224 1 0 0 1 I I 0 1 1 forward I I I I #
face $-1 $112 $113 $27 $-1 $114 reversed single #
loop $-1 $-1 $115 $45 #
plane-surface $-1 0 0 -19.562382278376937 0 0 1 1 0 0 forward_v I I I I #
coedge $-1 $116 $117 $118 $119 forward $46 $-1 #
face $-1 $120 $121 $28 $-1 $122 reversed single #
loop $-1 $-1 $123 $48 #
plane-surface $-1 -67.141200441576046 0 11.524958546526033 0 0 1 1 0 0 forward_v I I I I #
coedge $-1 $124 $125 $126 $127 forward $49 $-1 #
face $-1 $128 $129 $29 $-1 $130 reversed single #
loop $-1 $-1 $131 $51 #
plane-surface $-1 55.817376922465058 0 14.390980821620786 1 0 0 0 0 -1 forward_v I I I I #
coedge $-1 $132 $133 $134 $135 reversed $52 $-1 #
face $-1 $136 $137 $30 $-1 $138 forward single #
loop $-1 $-1 $139 $54 #
plane-surface $-1 -41.315567066537923 67.227634578960291 184.28654563157616 -1 0 0 0 0.6018150307709319 0.79863550430605224 forward_v I I I I #
coedge $-1 $140 $141 $142 $143 reversed $55 $-1 #
face $-1 $-1 $144 $31 $-1 $145 forward single #
loop $-1 $146 $147 $57 #
cone-surface $-1 -52.77841173318852 35.204667493342285 13.45973064328102 0 -0.6018150307709319 -0.79863550430605224 0.5 0 0 1 I I -0.70710678118654746 0.70710678118654746 0.5 forward I I I I #
loop $-1 $-1 $148 $40 #
coedge $-1 $92 $92 $149 $150 reversed $58 $-1 #
face $-1 $-1 $151 $32 $-1 $152 forward single #
loop $-1 $153 $154 $60 #
cone-surface $-1 -45.900704933198163 35.204667493342285 13.45973064328102 0 -0.6018150307709319 -0.79863550430605224 0.5 0 0 1 I I -0.70710678118654746 0.70710678118654746 0.5 forward I I I I #
loop $-1 $-1 $155 $41 #
coedge $-1 $97 $97 $156 $157 reversed $61 $-1 #
face $-1 $158 $159 $33 $-1 $160 forward single #
loop $-1 $-1 $161 $63 #
plane-surface $-1 39.769394389154236 67.227634578960291 184.28654563157616 1 0 0 0 -0.6018150307709319 -0.79863550430605224 forward_v I I I I #
coedge $-1 $162 $163 $164 $165 reversed $64 $-1 #
face $-1 $-1 $166 $34 $-1 $167 forward single #
loop $-1 $168 $169 $66 #
cone-surface $-1 44.354532255814476 35.204667493342285 13.45973064328102 0 -0.6018150307709319 -0.79863550430605224 0.5 0 0 1 I I -0.70710678118654746 0.70710678118654746 0.5 forward I I I I #
loop $-1 $-1 $170 $43 #
coedge $-1 $106 $106 $171 $172 reversed $67 $-1 #
face $-1 $-1 $173 $35 $-1 $174 forward single #
loop $-1 $175 $176 $69 #
cone-surface $-1 51.232239055804826 35.204667493342285 13.45973064328102 0 -0.6018150307709319 -0.79863550430605224 0.5 0 0 1 I I -0.70710678118654746 0.70710678118654746 0.5 forward I I I I #
loop $-1 $-1 $177 $44 #
coedge $-1 $111 $111 $178 $179 reversed $70 $-1 #
face $-1 $180 $181 $27 $-1 $182 reversed single #
loop $-1 $-1 $183 $72 #
plane-surface $-1 0 -42.450088417664588 0 0 1 0 0 0 1 forward_v I I I I #
coedge $-1 $184 $185 $186 $187 forward $73 $-1 #
coedge $-1 $188 $75 $189 $190 forward $46 $-1 #
coedge $-1 $75 $188 $191 $192 forward $46 $-1 #
coedge $-1 $193 $194 $75 $119 reversed $195 $-1 #
edge $-1 $196 -42.450088417664588 $197 42.450088417664588 $118 $198 forward 7 unknown #
face $-1 $199 $200 $28 $-1 $201 reversed single #
loop $-1 $-1 $202 $76 #
plane-surface $-1 -57.363549599848767 0 15.174091796445872 -1 0 0 0 0 1 forward_v I I I I #
coedge $-1 $203 $204 $205 $206 forward $77 $-1 #
coedge $-1 $207 $79 $208 $209 reversed $49 $-1 #
coedge $-1 $79 $207 $210 $211 reversed $49 $-1 #
coedge $-1 $202 $212 $79 $127 reversed $121 $-1 #
edge $-1 $213 -42.450088417664588 $214 42.450088417664588 $126 $215 forward 7 unknown #
face $-1 $216 $217 $29 $-1 $218 reversed single #
loop $-1 $-1 $219 $80 #
plane-surface $-1 0 -42.450088417664588 0 0 1 0 0 0 1 forward_v I I I I #
coedge $-1 $220 $221 $222 $223 reversed $81 $-1 #
coedge $-1 $224 $83 $225 $226 reversed $52 $-1 #
coedge $-1 $83 $224 $227 $228 reversed $52 $-1 #
coedge $-1 $229 $230 $83 $135 forward $217 $-1 #
edge $-1 $231 -42.450088417664588 $232 42.450088417664588 $134 $233 forward 7 unknown #
face $-1 $234 $235 $30 $-1 $236 reversed single #
loop $-1 $-1 $237 $84 #
plane-surface $-1 -57.363549599848767 0 15.174091796445872 -1 0 0 0 0 1 forward_v I I I I #
coedge $-1 $238 $239 $240 $241 reversed $85 $-1 #
coedge $-1 $242 $87 $237 $243 forward $55 $-1 #
coedge $-1 $87 $242 $238 $244 forward $55 $-1 #
coedge $-1 $240 $245 $87 $143 forward $246 $-1 #
edge $-1 $247 -32.693770433252098 $248 -16.645787899941251 $142 $249 forward 7 unknown #
loop $-1 $-1 $149 $88 #
plane-surface $-1 -49.339558333193345 -25.354207124891559 61.426294461009789 0 0.6018150307709319 0.79863550430605224 1 0 0 forward_v I I I I #
loop $-1 $-1 $250 $57 #
coedge $-1 $147 $147 $148 $251 reversed $89 $-1 #
coedge $-1 $148 $148 $147 $251 forward $91 $-1 #
coedge $-1 $149 $149 $92 $150 forward $144 $-1 #
edge $-1 $252 3.5365700691200621e-015 $252 6.283185307179604 $149 $253 forward 7 unknown #
loop $-1 $-1 $156 $93 #
plane-surface $-1 -49.339558333193345 -25.354207124891559 61.426294461009789 0 0.6018150307709319 0.79863550430605224 1 0 0 forward_v I I I I #
loop $-1 $-1 $254 $60 #
coedge $-1 $154 $154 $155 $255 reversed $94 $-1 #
coedge $-1 $155 $155 $154 $255 forward $96 $-1 #
coedge $-1 $156 $156 $97 $157 forward $151 $-1 #
edge $-1 $256 3.5365700691200621e-015 $256 6.283185307179604 $156 $257 forward 7 unknown #
face $-1 $258 $259 $33 $-1 $260 reversed single #
loop $-1 $-1 $261 $98 #
plane-surface $-1 55.817376922465058 0 14.390980821620786 1 0 0 0 0 -1 forward_v I I I I #
coedge $-1 $262 $263 $264 $265 reversed $99 $-1 #
coedge $-1 $266 $101 $261 $267 reversed $64 $-1 #
coedge $-1 $101 $266 $262 $268 forward $64 $-1 #
coedge $-1 $264 $269 $101 $165 forward $259 $-1 #
edge $-1 $270 -31.920684094560229 $271 -15.872701561249407 $164 $272 forward 7 unknown #
loop $-1 $-1 $171 $102 #
plane-surface $-1 47.793385655809658 -25.354207124891559 61.426294461009789 0 0.6018150307709319 0.79863550430605224 1 0 0 forward_v I I I I #
loop $-1 $-1 $273 $66 #
coedge $-1 $169 $169 $170 $274 reversed $103 $-1 #
coedge $-1 $170 $170 $169 $274 forward $105 $-1 #
coedge $-1 $171 $171 $106 $172 forward $166 $-1 #
edge $-1 $275 3.5365700691200621e-015 $275 6.283185307179604 $171 $276 forward 7 unknown #
loop $-1 $-1 $178 $107 #
plane-surface $-1 47.793385655809658 -25.354207124891559 61.426294461009789 0 0.6018150307709319 0.79863550430605224 1 0 0 forward_v I I I I #
loop $-1 $-1 $277 $69 #
coedge $-1 $176 $176 $177 $278 reversed $108 $-1 #
coedge $-1 $177 $177 $176 $278 forward $110 $-1 #
coedge $-1 $178 $178 $111 $179 forward $173 $-1 #
edge $-1 $279 3.5365700691200621e-015 $279 6.283185307179604 $178 $280 forward 7 unknown #
face $-1 $281 $282 $27 $-1 $283 reversed single #
loop $-1 $-1 $284 $112 #
plane-surface $-1 -76.918851283303326 0 0 1 0 0 0 0 -1 forward_v I I I I #
coedge $-1 $285 $191 $286 $287 forward $113 $-1 #
coedge $-1 $288 $115 $285 $289 forward $73 $-1 #
coedge $-1 $115 $288 $290 $291 forward $73 $-1 #
coedge $-1 $194 $193 $115 $187 reversed $195 $-1 #
edge $-1 $292 -42.450088417664588 $293 42.450088417664588 $186 $294 forward 7 unknown #
coedge $-1 $117 $116 $295 $296 forward $46 $-1 #
coedge $-1 $297 $298 $116 $190 reversed $282 $-1 #
edge $-1 $197 -76.918851283303326 $299 76.918851283303326 $189 $300 forward 7 unknown #
coedge $-1 $183 $301 $117 $192 reversed $113 $-1 #
edge $-1 $302 -76.918851283303326 $196 76.918851283303326 $191 $303 forward 7 unknown #
coedge $-1 $186 $118 $301 $304 forward $195 $-1 #
coedge $-1 $118 $186 $297 $305 reversed $195 $-1 #
loop $-1 $-1 $193 $281 #
vertex $-1 $119 $306 #
vertex $-1 $119 $307 #
straight-curve $-1 76.918851283303326 0 19.562382278376937 0 1 0 I I #
face $-1 $308 $309 $28 $-1 $310 reversed single #
loop $-1 $-1 $311 $120 #
plane-surface $-1 0 -42.450088417664588 0 0 1 0 0 0 1 forward_v I I I I #
coedge $-1 $205 $126 $312 $313 reversed $121 $-1 #
coedge $-1 $314 $123 $311 $315 reversed $77 $-1 #
coedge $-1 $123 $314 $316 $317 reversed $77 $-1 #
coedge $-1 $212 $202 $123 $206 reversed $121 $-1 #
edge $-1 $318 -42.450088417664588 $319 42.450088417664588 $205 $320 forward 7 unknown #
coedge $-1 $125 $124 $321 $322 reversed $49 $-1 #
coedge $-1 $323 $324 $124 $209 forward $325 $-1 #
edge $-1 $326 -43.348251062515303 $214 -23.792949379060744 $208 $327 forward 7 unknown #
coedge $-1 $328 $312 $125 $211 forward $200 $-1 #
edge $-1 $213 23.792949379060744 $329 43.348251062515303 $210 $330 forward 7 unknown #
coedge $-1 $126 $205 $323 $331 reversed $121 $-1 #
vertex $-1 $211 $332 #
vertex $-1 $209 $333 #
straight-curve $-1 -57.363549599848767 0 18.82322504636571 0 1 0 I I #
face $-1 $334 $335 $29 $-1 $336 forward single #
loop $-1 $-1 $134 $128 #
plane-surface $-1 76.918851283303326 0 0 -1 0 0 0 0 1 forward_v I I I I #
coedge $-1 $225 $337 $338 $339 forward $129 $-1 #
coedge $-1 $338 $131 $224 $340 reversed $81 $-1 #
coedge $-1 $131 $338 $341 $342 reversed $81 $-1 #
coedge $-1 $343 $227 $131 $223 forward $344 $-1 #
edge $-1 $345 2.0240889540542408 $346 12.366891867566544 $222 $347 forward 7 unknown #
coedge $-1 $133 $132 $220 $340 forward $52 $-1 #
coedge $-1 $348 $219 $132 $226 forward $129 $-1 #
edge $-1 $349 22.633319871022962 $231 43.73479423186123 $225 $350 forward 7 unknown #
coedge $-1 $222 $351 $133 $228 forward $344 $-1 #
edge $-1 $232 -43.73479423186123 $345 -22.633319871022962 $227 $352 forward 7 unknown #
coedge $-1 $353 $134 $351 $354 reversed $217 $-1 #
coedge $-1 $134 $353 $348 $355 forward $217 $-1 #
vertex $-1 $135 $356 #
vertex $-1 $135 $357 #
straight-curve $-1 76.918851283303326 0 9.219579364864634 0 1 0 I I #
face $-1 $-1 $246 $30 $-1 $358 forward single #
loop $-1 $-1 $359 $136 #
plane-surface $-1 0 42.450088417664588 0 0 -1 0 0 0 -1 forward_v I I I I #
coedge $-1 $360 $361 $140 $243 reversed $137 $-1 #
coedge $-1 $239 $139 $141 $244 reversed $85 $-1 #
coedge $-1 $139 $238 $362 $363 reversed $85 $-1 #
coedge $-1 $364 $142 $139 $241 forward $246 $-1 #
edge $-1 $248 -3.4127376423349034 $365 8.8362711281844426 $240 $366 forward 7 unknown #
coedge $-1 $141 $140 $367 $368 reversed $55 $-1 #
edge $-1 $247 69.562756066435753 $369 84.900176835329205 $237 $370 forward 7 unknown #
edge $-1 $371 -84.900176835329205 $248 -69.562756066435753 $238 $372 forward 7 unknown #
coedge $-1 $142 $364 $360 $373 forward $246 $-1 #
loop $-1 $-1 $245 $234 #
vertex $-1 $143 $374 #
vertex $-1 $143 $375 #
straight-curve $-1 -24.669779166596673 30.201079647145242 19.562382278376937 1 0 0 I I #
coedge $-1 $250 $250 $-1 $376 reversed $146 $-1 #
edge $-1 $377 0 $377 6.2831853071796004 $147 $378 forward 7 unknown #
vertex $-1 $150 $379 #
ellipse-curve $-1 -52.77841173318852 36.325584032404912 14.947237102387755 0 0.6018150307709319 0.79863550430605224 1 0 0 1 I I #
coedge $-1 $254 $254 $-1 $380 reversed $153 $-1 #
edge $-1 $381 0 $381 6.2831853071796004 $154 $382 forward 7 unknown #
vertex $-1 $157 $383 #
ellipse-curve $-1 -45.900704933198163 36.325584032404912 14.947237102387755 0 0.6018150307709319 0.79863550430605224 1 0 0 1 I I #
face $-1 $-1 $384 $33 $-1 $385 forward single #
loop $-1 $-1 $164 $158 #
plane-surface $-1 0 42.450088417664588 0 0 -1 0 0 0 -1 forward_v I I I I #
coedge $-1 $386 $387 $162 $267 forward $159 $-1 #
coedge $-1 $263 $161 $163 $268 reversed $99 $-1 #
coedge $-1 $161 $262 $388 $389 reversed $99 $-1 #
coedge $-1 $390 $164 $161 $265 forward $259 $-1 #
edge $-1 $271 -81.81118088938949 $391 -72.580890537411136 $264 $392 forward 7 unknown #
coedge $-1 $163 $162 $393 $394 reversed $64 $-1 #
edge $-1 $395 45.285091707097138 $270 60.622512475990604 $261 $396 forward 7 unknown #
edge $-1 $397 69.562756066435753 $271 84.900176835329205 $262 $398 forward 7 unknown #
coedge $-1 $164 $390 $386 $399 forward $259 $-1 #
vertex $-1 $165 $400 #
vertex $-1 $165 $401 #
straight-curve $-1 23.896692827904829 42.450088417664588 10.33209192639859 -1 0 0 I I #
coedge $-1 $273 $273 $-1 $402 reversed $168 $-1 #
edge $-1 $403 0 $403 6.2831853071796004 $169 $404 forward 7 unknown #
vertex $-1 $172 $405 #
ellipse-curve $-1 44.354532255814476 36.325584032404912 14.947237102387755 0 0.6018150307709319 0.79863550430605224 1 0 0 1 I I #
coedge $-1 $277 $277 $-1 $406 reversed $175 $-1 #
edge $-1 $407 0 $407 6.2831853071796004 $176 $408 forward 7 unknown #
vertex $-1 $179 $409 #
ellipse-curve $-1 51.232239055804826 36.325584032404912 14.947237102387755 0 0.6018150307709319 0.79863550430605224 1 0 0 1 I I #
face $-1 $-1 $195 $27 $-1 $410 reversed single #
loop $-1 $-1 $297 $180 #
plane-surface $-1 0 42.450088417664588 0 0 -1 0 0 0 -1 forward_v I I I I #
coedge $-1 $411 $295 $298 $412 forward $181 $-1 #
coedge $-1 $301 $183 $184 $289 reversed $113 $-1 #
coedge $-1 $295 $411 $183 $287 reversed $181 $-1 #
edge $-1 $302 -19.562382278376937 $413 19.562382278376937 $286 $414 forward 7 unknown #
coedge $-1 $185 $184 $411 $415 forward $73 $-1 #
edge $-1 $293 -76.918851283303326 $413 76.918851283303326 $285 $416 forward 7 unknown #
coedge $-1 $298 $297 $185 $291 reversed $282 $-1 #
edge $-1 $417 -76.918851283303326 $292 76.918851283303326 $290 $418 forward 7 unknown #
vertex $-1 $187 $419 #
vertex $-1 $304 $420 #
straight-curve $-1 76.918851283303326 0 -19.562382278376937 0 -1 0 I I #
coedge $-1 $284 $286 $188 $296 reversed $181 $-1 #
edge $-1 $299 -42.450088417664588 $302 42.450088417664588 $295 $421 forward 7 unknown #
coedge $-1 $290 $189 $194 $305 forward $282 $-1 #
coedge $-1 $189 $290 $284 $412 reversed $282 $-1 #
vertex $-1 $190 $422 #
straight-curve $-1 0 42.450088417664588 19.562382278376937 -1 0 0 I I #
coedge $-1 $191 $285 $193 $304 reversed $113 $-1 #
vertex $-1 $296 $423 #
straight-curve $-1 0 -42.450088417664588 19.562382278376937 1 0 0 I I #
edge $-1 $196 -19.562382278376937 $293 19.562382278376937 $193 $424 forward 7 unknown #
edge $-1 $197 -19.562382278376937 $292 19.562382278376937 $194 $425 forward 7 unknown #
point $-1 76.918851283303326 -42.450088417664588 19.562382278376937 #
point $-1 76.918851283303326 42.450088417664588 19.562382278376937 #
face $-1 $-1 $325 $28 $-1 $426 reversed single #
loop $-1 $-1 $427 $199 #
plane-surface $-1 -76.918851283303326 0 0 1 0 0 0 0 -1 forward_v I I I I #
coedge $-1 $312 $328 $203 $315 forward $200 $-1 #
coedge $-1 $210 $311 $202 $313 forward $200 $-1 #
edge $-1 $319 3.9379126483030973 $213 11.236179148142774 $312 $428 forward 7 unknown #
coedge $-1 $204 $203 $427 $429 reversed $77 $-1 #
edge $-1 $430 -43.348251062515303 $319 -23.792949379060744 $311 $431 forward 7 unknown #
coedge $-1 $324 $323 $204 $317 forward $325 $-1 #
edge $-1 $318 23.792949379060744 $432 43.348251062515303 $316 $433 forward 7 unknown #
vertex $-1 $317 $434 #
vertex $-1 $315 $435 #
straight-curve $-1 -57.363549599848767 0 11.524958546526033 0 -1 0 I I #
coedge $-1 $436 $437 $207 $322 forward $309 $-1 #
edge $-1 $329 -42.450088417664588 $326 42.450088417664588 $321 $438 forward 7 unknown #
coedge $-1 $316 $208 $212 $331 forward $325 $-1 #
coedge $-1 $208 $316 $436 $439 reversed $325 $-1 #
loop $-1 $-1 $316 $308 #
vertex $-1 $439 $440 #
straight-curve $-1 -33.570600220788023 42.450088417664588 18.82322504636571 1 0 0 I I #
coedge $-1 $311 $210 $437 $441 forward $200 $-1 #
vertex $-1 $441 $442 #
straight-curve $-1 -33.570600220788023 -42.450088417664588 18.82322504636571 -1 0 0 I I #
edge $-1 $214 -11.236179148142774 $318 -3.9379126483030973 $323 $443 forward 7 unknown #
point $-1 -57.363549599848767 -42.450088417664588 18.82322504636571 #
point $-1 -57.363549599848767 42.450088417664588 18.82322504636571 #
face $-1 $-1 $344 $29 $-1 $444 reversed single #
loop $-1 $-1 $341 $216 #
plane-surface $-1 0 0 19.562382278376937 0 0 1 1 0 0 forward_v I I I I #
coedge $-1 $219 $348 $445 $446 reversed $129 $-1 #
coedge $-1 $221 $220 $219 $339 reversed $81 $-1 #
edge $-1 $447 -12.366891867566544 $349 -2.0240889540542408 $219 $448 forward 7 unknown #
edge $-1 $349 -42.450088417664588 $345 42.450088417664588 $220 $449 forward 7 unknown #
coedge $-1 $445 $450 $221 $342 forward $335 $-1 #
edge $-1 $346 -42.450088417664588 $447 42.450088417664588 $341 $451 forward 7 unknown #
coedge $-1 $351 $222 $450 $452 reversed $344 $-1 #
loop $-1 $-1 $222 $334 #
vertex $-1 $228 $453 #
vertex $-1 $223 $454 #
straight-curve $-1 55.817376922465058 42.450088417664588 7.1954904108103932 0 0 1 I I #
coedge $-1 $337 $225 $230 $355 reversed $129 $-1 #
vertex $-1 $226 $455 #
straight-curve $-1 33.184057051442096 -42.450088417664588 9.219579364864634 1 0 0 I I #
coedge $-1 $227 $343 $229 $354 forward $344 $-1 #
straight-curve $-1 33.184057051442096 42.450088417664588 9.219579364864634 -1 0 0 I I #
coedge $-1 $230 $229 $456 $457 reversed $217 $-1 #
edge $-1 $458 -19.562382278376937 $232 -9.219579364864634 $229 $459 forward 7 unknown #
edge $-1 $460 -19.562382278376937 $231 -9.219579364864634 $230 $461 forward 7 unknown #
point $-1 76.918851283303326 -42.450088417664588 9.219579364864634 #
point $-1 76.918851283303326 42.450088417664588 9.219579364864634 #
plane-surface $-1 0 0 19.562382278376937 0 0 1 1 0 0 forward_v I I I I #
coedge $-1 $462 $367 $361 $463 forward $235 $-1 #
coedge $-1 $361 $237 $245 $373 reversed $137 $-1 #
coedge $-1 $237 $360 $359 $463 reversed $137 $-1 #
coedge $-1 $367 $462 $239 $363 forward $235 $-1 #
edge $-1 $365 72.580890537411136 $371 81.81118088938949 $362 $464 forward 7 unknown #
coedge $-1 $245 $240 $462 $465 forward $246 $-1 #
vertex $-1 $465 $466 #
straight-curve $-1 -41.315567066537923 33.613817289480146 19.56238227837693 0 1 0 I I #
coedge $-1 $359 $362 $242 $368 forward $235 $-1 #
edge $-1 $371 16.645787899941251 $369 32.693770433252098 $367 $467 forward 7 unknown #
vertex $-1 $368 $468 #
straight-curve $-1 -57.363549599848767 -25.354207124891559 61.426294461009789 0 0.79863550430605224 -0.6018150307709319 I I #
vertex $-1 $368 $469 #
straight-curve $-1 -41.315567066537923 -25.354207124891559 61.426294461009789 0 -0.79863550430605224 0.6018150307709319 I I #
edge $-1 $470 -8.8362711281844426 $247 3.4127376423349034 $245 $471 forward 7 unknown #
point $-1 -57.363549599848767 30.201079647145242 19.562382278376937 #
point $-1 -41.315567066537923 30.201079647145242 19.562382278376937 #
edge $-1 $472 1 $472 0 $250 $-1 forward 7 unknown #
vertex $-1 $251 $473 #
ellipse-curve $-1 -52.77841173318852 35.505575008727753 13.859048395434046 0 0.6018150307709319 0.79863550430605224 1 0 0 1 I I #
point $-1 -51.77841173318852 36.325584032404919 14.947237102387758 #
edge $-1 $474 1 $474 0 $254 $-1 forward 7 unknown #
vertex $-1 $255 $475 #
ellipse-curve $-1 -45.900704933198163 35.505575008727753 13.859048395434046 0 0.6018150307709319 0.79863550430605224 1 0 0 1 I I #
point $-1 -44.900704933198163 36.325584032404919 14.947237102387758 #
loop $-1 $-1 $393 $258 #
plane-surface $-1 0 0 19.562382278376937 0 0 1 1 0 0 forward_v I I I I #
coedge $-1 $387 $261 $269 $399 reversed $159 $-1 #
coedge $-1 $261 $386 $476 $477 reversed $159 $-1 #
coedge $-1 $393 $478 $263 $389 forward $384 $-1 #
edge $-1 $391 -8.8362711281844426 $397 3.4127376423349034 $388 $479 forward 7 unknown #
coedge $-1 $269 $264 $478 $480 reversed $259 $-1 #
vertex $-1 $265 $481 #
straight-curve $-1 39.769394389154236 42.450088417664588 92.14327281578808 0 0 1 I I #
coedge $-1 $476 $388 $266 $394 forward $384 $-1 #
edge $-1 $397 15.872701561249407 $395 31.920684094560251 $393 $482 forward 7 unknown #
vertex $-1 $477 $483 #
straight-curve $-1 55.817376922465058 -5.9652024058981077 46.815631137548074 0 0.79863550430605224 -0.6018150307709319 I I #
vertex $-1 $394 $484 #
straight-curve $-1 39.769394389154236 -25.354207124891559 61.426294461009789 0 0.79863550430605224 -0.6018150307709319 I I #
edge $-1 $485 -12.366891867566544 $270 -3.1366015155882003 $269 $486 forward 7 unknown #
point $-1 55.817376922465058 42.450088417664588 10.332091926398594 #
point $-1 39.769394389154236 42.450088417664588 10.33209192639859 #
edge $-1 $487 1 $487 0 $273 $-1 forward 7 unknown #
vertex $-1 $274 $488 #
ellipse-curve $-1 44.354532255814476 35.505575008727753 13.859048395434046 0 0.6018150307709319 0.79863550430605224 1 0 0 1 I I #
point $-1 45.354532255814476 36.325584032404919 14.947237102387758 #
edge $-1 $489 1 $489 0 $277 $-1 forward 7 unknown #
vertex $-1 $278 $490 #
ellipse-curve $-1 51.232239055804826 35.505575008727753 13.859048395434046 0 0.6018150307709319 0.79863550430605224 1 0 0 1 I I #
point $-1 52.232239055804826 36.325584032404919 14.947237102387758 #
plane-surface $-1 76.918851283303326 0 0 -1 0 0 0 0 1 forward_v I I I I #
coedge $-1 $286 $284 $288 $415 reversed $181 $-1 #
edge $-1 $299 -19.562382278376937 $417 19.562382278376937 $298 $491 forward 7 unknown #
vertex $-1 $415 $492 #
straight-curve $-1 -76.918851283303326 -42.450088417664588 0 0 0 -1 I I #
edge $-1 $413 -42.450088417664588 $417 42.450088417664588 $411 $493 forward 7 unknown #
straight-curve $-1 0 -42.450088417664588 -19.562382278376937 -1 0 0 I I #
vertex $-1 $291 $494 #
straight-curve $-1 0 42.450088417664588 -19.562382278376937 1 0 0 I I #
point $-1 76.918851283303326 42.450088417664588 -19.562382278376937 #
point $-1 76.918851283303326 -42.450088417664588 -19.562382278376937 #
straight-curve $-1 -76.918851283303326 0 19.562382278376937 0 -1 0 I I #
point $-1 -76.918851283303326 42.450088417664588 19.562382278376937 #
point $-1 -76.918851283303326 -42.450088417664588 19.562382278376937 #
straight-curve $-1 76.918851283303326 -42.450088417664588 0 0 0 -1 I I #
straight-curve $-1 76.918851283303326 42.450088417664588 0 0 0 -1 I I #
plane-surface $-1 0 42.450088417664588 0 0 -1 0 0 0 -1 forward_v I I I I #
coedge $-1 $437 $436 $314 $429 forward $309 $-1 #
straight-curve $-1 -57.363549599848767 -42.450088417664588 7.5870458982229358 0 0 1 I I #
edge $-1 $432 -42.450088417664588 $430 42.450088417664588 $427 $495 forward 7 unknown #
vertex $-1 $315 $496 #
straight-curve $-1 -33.570600220788023 -42.450088417664588 11.524958546526033 1 0 0 I I #
vertex $-1 $317 $497 #
straight-curve $-1 -33.570600220788023 42.450088417664588 11.524958546526033 -1 0 0 I I #
point $-1 -57.363549599848767 42.450088417664588 11.524958546526033 #
point $-1 -57.363549599848767 -42.450088417664588 11.524958546526033 #
coedge $-1 $427 $321 $324 $439 forward $309 $-1 #
coedge $-1 $321 $427 $328 $441 reversed $309 $-1 #
straight-curve $-1 -76.918851283303326 0 18.82322504636571 0 1 0 I I #
edge $-1 $326 -18.82322504636571 $432 -11.524958546526033 $324 $498 forward 7 unknown #
point $-1 -76.918851283303326 42.450088417664588 18.82322504636571 #
edge $-1 $329 -18.82322504636571 $430 -11.524958546526033 $437 $499 forward 7 unknown #
point $-1 -76.918851283303326 -42.450088417664588 18.82322504636571 #
straight-curve $-1 -57.363549599848767 42.450088417664588 7.5870458982229358 0 0 -1 I I #
plane-surface $-1 0 42.450088417664588 0 0 -1 0 0 0 -1 forward_v I I I I #
coedge $-1 $456 $341 $337 $446 forward $335 $-1 #
edge $-1 $447 55.817376922465058 $460 76.918851283303326 $337 $500 forward 7 unknown #
vertex $-1 $446 $501 #
straight-curve $-1 55.817376922465058 -42.450088417664588 7.1954904108103932 0 0 -1 I I #
straight-curve $-1 55.817376922465058 0 9.219579364864634 0 1 0 I I #
coedge $-1 $341 $456 $343 $452 forward $335 $-1 #
straight-curve $-1 55.817376922465058 0 19.562382278376937 0 -1 0 I I #
edge $-1 $458 -76.918851283303326 $346 -55.817376922465058 $343 $502 forward 7 unknown #
point $-1 55.817376922465058 42.450088417664588 9.219579364864634 #
point $-1 55.817376922465058 42.450088417664588 19.562382278376937 #
point $-1 55.817376922465058 -42.450088417664588 9.219579364864634 #
coedge $-1 $450 $445 $353 $457 forward $335 $-1 #
edge $-1 $460 -42.450088417664588 $458 42.450088417664588 $353 $503 forward 7 unknown #
vertex $-1 $457 $504 #
straight-curve $-1 76.918851283303326 42.450088417664588 0 0 0 -1 I I #
vertex $-1 $457 $505 #
straight-curve $-1 76.918851283303326 -42.450088417664588 0 0 0 -1 I I #
coedge $-1 $362 $359 $364 $465 reversed $235 $-1 #
edge $-1 $369 -81.81118088938949 $470 -72.580890537411136 $359 $506 forward 7 unknown #
straight-curve $-1 -41.315567066537923 42.450088417664588 92.14327281578808 0 0 -1 I I #
edge $-1 $365 41.315567066537923 $470 57.363549599848767 $462 $507 forward 7 unknown #
point $-1 -41.315567066537923 42.450088417664588 19.562382278376937 #
straight-curve $-1 -24.669779166596673 42.450088417664588 10.33209192639859 -1 0 0 I I #
point $-1 -57.363549599848767 42.450088417664588 10.33209192639859 #
point $-1 -41.315567066537923 42.450088417664588 10.33209192639859 #
vertex $-1 $373 $508 #
straight-curve $-1 -57.363549599848767 33.613817289480146 19.56238227837693 0 -1 0 I I #
vertex $-1 $376 $509 #
point $-1 -51.77841173318852 35.505575008727753 13.859048395434046 #
vertex $-1 $380 $510 #
point $-1 -44.900704933198163 35.505575008727753 13.859048395434046 #
coedge $-1 $478 $393 $387 $477 forward $384 $-1 #
edge $-1 $395 30.201079647145242 $485 42.450088417664588 $476 $511 forward 7 unknown #
coedge $-1 $388 $476 $390 $480 forward $384 $-1 #
straight-curve $-1 39.769394389154236 33.613817289480146 19.56238227837693 0 -1 0 I I #
edge $-1 $485 -55.817376922465058 $391 -39.769394389154236 $390 $512 forward 7 unknown #
point $-1 39.769394389154236 42.450088417664588 19.562382278376937 #
straight-curve $-1 23.896692827904829 30.201079647145242 19.562382278376937 1 0 0 I I #
point $-1 55.81737692246508 30.201079647145242 19.562382278376937 #
point $-1 39.769394389154236 30.201079647145242 19.562382278376937 #
vertex $-1 $480 $513 #
straight-curve $-1 55.817376922465058 42.450088417664588 7.1954904108103932 0 0 -1 I I #
vertex $-1 $402 $514 #
point $-1 45.354532255814476 35.505575008727753 13.859048395434046 #
vertex $-1 $406 $515 #
point $-1 52.232239055804826 35.505575008727753 13.859048395434046 #
straight-curve $-1 -76.918851283303326 42.450088417664588 0 0 0 -1 I I #
point $-1 -76.918851283303326 -42.450088417664588 -19.562382278376937 #
straight-curve $-1 -76.918851283303326 0 -19.562382278376937 0 1 0 I I #
point $-1 -76.918851283303326 42.450088417664588 -19.562382278376937 #
straight-curve $-1 -76.918851283303326 0 11.524958546526033 0 -1 0 I I #
point $-1 -76.918851283303326 -42.450088417664588 11.524958546526033 #
point $-1 -76.918851283303326 42.450088417664588 11.524958546526033 #
straight-curve $-1 -76.918851283303326 42.450088417664588 0 0 0 -1 I I #
straight-curve $-1 -76.918851283303326 -42.450088417664588 0 0 0 -1 I I #
straight-curve $-1 0 -42.450088417664588 19.562382278376937 1 0 0 I I #
point $-1 55.817376922465058 -42.450088417664588 19.562382278376937 #
straight-curve $-1 0 42.450088417664588 19.562382278376937 -1 0 0 I I #
straight-curve $-1 76.918851283303326 0 19.562382278376937 0 1 0 I I #
point $-1 76.918851283303326 42.450088417664588 19.562382278376937 #
point $-1 76.918851283303326 -42.450088417664588 19.562382278376937 #
straight-curve $-1 -57.363549599848767 42.450088417664588 92.14327281578808 0 0 1 I I #
straight-curve $-1 0 42.450088417664588 19.562382278376937 -1 0 0 I I #
point $-1 -57.363549599848767 42.450088417664588 19.562382278376937 #
point $-1 -52.77841173318852 34.903759977956817 13.060412891127994 #
point $-1 -45.900704933198163 34.903759977956817 13.060412891127994 #
straight-curve $-1 55.817376922465058 0 19.562382278376937 0 1 0 I I #
straight-curve $-1 0 42.450088417664588 19.562382278376937 -1 0 0 I I #
point $-1 55.817376922465058 42.450088417664588 19.562382278376937 #
point $-1 44.354532255814476 34.903759977956817 13.060412891127994 #
point $-1 51.232239055804826 34.903759977956817 13.060412891127994 #
End-of-ACIS-data 