500 0 12 0           
7 Unknown 11 ACIS 5.0 NT 24 Thu Mar 25 18:21:18 1999 
-1 9.9999999999999995e-007 1e-010 
body $-1 $12 $-1 $13 #
body $-1 $14 $-1 $15 #
body $-1 $16 $-1 $17 #
body $-1 $18 $-1 $19 #
body $-1 $20 $-1 $21 #
body $-1 $22 $-1 $23 #
body $-1 $24 $-1 $25 #
body $-1 $26 $-1 $27 #
body $-1 $28 $-1 $29 #
body $-1 $30 $-1 $31 #
body $-1 $32 $-1 $33 #
body $-1 $34 $-1 $35 #
lump $-1 $-1 $36 $0 #
transform $-1 1 0 0 0 1 0 0 0 1 66.582842493972592 29.074595942762784 8.9094244331701677 1 rotate no_reflect no_shear #
lump $-1 $-1 $37 $1 #
transform $-1 1 0 0 0 1 0 0 0 1 66.582842493972592 29.074595942762784 8.9094244331701677 1 rotate no_reflect no_shear #
lump $-1 $-1 $38 $2 #
transform $-1 1 0 0 0 1 0 0 0 1 66.582842493972592 29.074595942762784 8.9094244331701677 1 rotate no_reflect no_shear #
lump $-1 $-1 $39 $3 #
transform $-1 1 0 0 0 1 0 0 0 1 66.582842493972592 29.074595942762784 8.9094244331701677 1 rotate no_reflect no_shear #
lump $-1 $-1 $40 $4 #
transform $-1 1 0 0 0 1 0 0 0 1 66.582842493972592 29.074595942762784 8.9094244331701677 1 rotate no_reflect no_shear #
lump $-1 $-1 $41 $5 #
transform $-1 1 0 0 0 1 0 0 0 1 66.582842493972592 29.074595942762784 8.9094244331701677 1 rotate no_reflect no_shear #
lump $-1 $-1 $42 $6 #
transform $-1 1 0 0 0 1 0 0 0 1 66.582842493972592 29.074595942762784 8.9094244331701677 1 rotate no_reflect no_shear #
lump $-1 $-1 $43 $7 #
transform $-1 1 0 0 0 1 0 0 0 1 66.582842493972592 29.074595942762784 8.9094244331701677 1 rotate no_reflect no_shear #
lump $-1 $-1 $44 $8 #
transform $-1 1 0 0 0 1 0 0 0 1 66.582842493972592 29.074595942762784 8.9094244331701677 1 rotate no_reflect no_shear #
lump $-1 $-1 $45 $9 #
transform $-1 1 0 0 0 1 0 0 0 1 66.582842493972592 29.074595942762784 8.9094244331701677 1 rotate no_reflect no_shear #
lump $-1 $-1 $46 $10 #
transform $-1 1 0 0 0 1 0 0 0 1 66.582842493972592 29.074595942762784 8.9094244331701677 1 rotate no_reflect no_shear #
lump $-1 $-1 $47 $11 #
transform $-1 1 0 0 0 1 0 0 0 1 66.582842493972592 29.074595942762784 8.9094244331701677 1 rotate no_reflect no_shear #
shell $-1 $-1 $-1 $48 $-1 $12 #
shell $-1 $-1 $-1 $49 $-1 $14 #
shell $-1 $-1 $-1 $50 $-1 $16 #
shell $-1 $-1 $-1 $51 $-1 $18 #
shell $-1 $-1 $-1 $52 $-1 $20 #
shell $-1 $-1 $-1 $53 $-1 $22 #
shell $-1 $-1 $-1 $54 $-1 $24 #
shell $-1 $-1 $-1 $55 $-1 $26 #
shell $-1 $-1 $-1 $56 $-1 $28 #
shell $-1 $-1 $-1 $57 $-1 $30 #
shell $-1 $-1 $-1 $58 $-1 $32 #
shell $-1 $-1 $-1 $59 $-1 $34 #
face $-1 $60 $61 $36 $-1 $62 forward single #
face $-1 $63 $64 $37 $-1 $65 forward single #
face $-1 $66 $67 $38 $-1 $68 forward single #
face $-1 $69 $70 $39 $-1 $71 reversed single #
face $-1 $72 $73 $40 $-1 $74 forward single #
face $-1 $75 $76 $41 $-1 $77 forward single #
face $-1 $78 $79 $42 $-1 $80 reversed single #
face $-1 $81 $82 $43 $-1 $83 forward single #
face $-1 $84 $85 $44 $-1 $86 forward single #
face $-1 $87 $88 $45 $-1 $89 reversed single #
face $-1 $90 $91 $46 $-1 $92 forward single #
face $-1 $93 $94 $47 $-1 $95 forward single #
face $-1 $96 $97 $36 $-1 $98 reversed single #
loop $-1 $-1 $99 $48 #
plane-surface $-1 0 0 8.9094244331701677 0 0 1 1 0 0 forward_v I I I I #
face $-1 $100 $101 $37 $-1 $102 forward single #
loop $-1 $-1 $103 $49 #
plane-surface $-1 0 -29.074595942762784 0 0 1 0 0 0 1 forward_v I I I I #
face $-1 $104 $105 $38 $-1 $106 forward single #
loop $-1 $-1 $107 $50 #
plane-surface $-1 0 29.074595942762784 0 0 -1 0 0 0 -1 forward_v I I I I #
face $-1 $108 $109 $39 $-1 $110 reversed single #
loop $-1 $-1 $111 $51 #
plane-surface $-1 -148.56782560453522 -9.2330720178176264 106.08443956381586 0 1 0 -0.61566148304635926 0 0.78801074757464917 forward_v I I I I #
face $-1 $112 $113 $40 $-1 $114 forward single #
loop $-1 $115 $116 $52 #
cone-surface $-1 -61.111633152317815 -6.7208725542480998 4.3833193782362816 0.61566148304635926 0 -0.78801074757464917 0.78801074757464917 0 0.61566148304635926 1 I I 0 1 1 forward I I I I #
face $-1 $117 $118 $41 $-1 $119 forward single #
loop $-1 $120 $121 $53 #
cone-surface $-1 -61.111633152317815 -2.9525733588938117 4.3833193782362816 0.61566148304635926 0 -0.78801074757464917 0.78801074757464917 0 0.61566148304635926 1 I I 0 1 1 forward I I I I #
face $-1 $122 $123 $42 $-1 $124 reversed single #
loop $-1 $-1 $125 $54 #
plane-surface $-1 96.043321559236503 -6.3197624110291493 189.45093227503594 0 -1 0 -0.80901700255871778 0 -0.5877852410284794 forward_v I I I I #
face $-1 $126 $127 $43 $-1 $128 forward single #
loop $-1 $129 $130 $55 #
cone-surface $-1 64.135926299620294 -10.720442953589341 5.8416139984398772 -0.80901700255871778 0 -0.5877852410284794 0.2938926205142397 0 -0.40450850127935889 1 I I 0 1 0.5 forward I I I I #
face $-1 $131 $132 $44 $-1 $133 forward single #
loop $-1 $134 $135 $56 #
cone-surface $-1 64.135926299620294 -8.0800346280532267 5.8416139984398772 -0.80901700255871778 0 -0.5877852410284794 0.2938926205142397 0 -0.40450850127935889 1 I I 0 1 0.5 forward I I I I #
face $-1 $136 $137 $45 $-1 $138 reversed single #
loop $-1 $-1 $139 $57 #
plane-surface $-1 96.043321559236503 12.480715170613419 189.45093227503594 0 -1 0 -0.80901700255871778 0 -0.5877852410284794 forward_v I I I I #
face $-1 $140 $141 $46 $-1 $142 forward single #
loop $-1 $143 $144 $58 #
cone-surface $-1 64.135926299620294 8.0800346280532267 5.8416139984398772 -0.80901700255871778 0 -0.5877852410284794 0.2938926205142397 0 -0.40450850127935889 1 I I 0 1 0.5 forward I I I I #
face $-1 $145 $146 $47 $-1 $147 forward single #
loop $-1 $148 $149 $59 #
cone-surface $-1 64.135926299620294 10.720442953589341 5.8416139984398772 -0.80901700255871778 0 -0.5877852410284794 0.2938926205142397 0 -0.40450850127935889 1 I I 0 1 0.5 forward I I I I #
face $-1 $150 $151 $36 $-1 $152 reversed single #
loop $-1 $-1 $153 $60 #
plane-surface $-1 0 0 -8.9094244331701677 0 0 1 1 0 0 forward_v I I I I #
coedge $-1 $154 $155 $156 $157 forward $61 $-1 #
face $-1 $158 $159 $37 $-1 $160 reversed single #
loop $-1 $-1 $161 $63 #
plane-surface $-1 0 0 8.9094244331701677 0 0 1 1 0 0 forward_v I I I I #
coedge $-1 $162 $163 $164 $165 forward $64 $-1 #
face $-1 $166 $167 $38 $-1 $168 reversed single #
loop $-1 $-1 $169 $66 #
plane-surface $-1 0 0 8.9094244331701677 0 0 1 1 0 0 forward_v I I I I #
coedge $-1 $170 $171 $172 $173 forward $67 $-1 #
face $-1 $174 $175 $39 $-1 $176 reversed single #
loop $-1 $-1 $177 $69 #
plane-surface $-1 -66.582842493972578 -4.8367229565709557 1.1484485851749469 -0.61566148304635926 0 0.78801074757464917 0.78801074757464917 0 0.61566148304635926 forward_v I I I I #
coedge $-1 $178 $179 $180 $181 reversed $70 $-1 #
face $-1 $-1 $182 $40 $-1 $183 forward single #
loop $-1 $184 $185 $72 #
cone-surface $-1 -60.299391015980873 -6.7208725542480998 3.3436968735126786 0.61566148304635926 0 -0.78801074757464917 0.39400537378732459 0 0.30783074152317963 1 I I -0.70710678118654746 0.70710678118654746 0.5 forward I I I I #
loop $-1 $-1 $186 $52 #
coedge $-1 $116 $116 $187 $188 reversed $73 $-1 #
face $-1 $-1 $189 $41 $-1 $190 forward single #
loop $-1 $191 $192 $75 #
cone-surface $-1 -60.299391015980873 -2.9525733588938117 3.3436968735126786 0.61566148304635926 0 -0.78801074757464917 0.39400537378732459 0 0.30783074152317963 1 I I -0.70710678118654746 0.70710678118654746 0.5 forward I I I I #
loop $-1 $-1 $193 $53 #
coedge $-1 $121 $121 $194 $195 reversed $76 $-1 #
face $-1 $196 $197 $42 $-1 $198 reversed single #
loop $-1 $-1 $199 $78 #
plane-surface $-1 -11.689981753389347 -9.4002387908212839 111.17810802767401 0.80901700255871778 0 0.5877852410284794 0.5877852410284794 0 -0.80901700255871778 forward_v I I I I #
coedge $-1 $200 $201 $202 $203 reversed $79 $-1 #
face $-1 $-1 $204 $43 $-1 $205 forward single #
loop $-1 $206 $207 $81 #
cone-surface $-1 63.471895108801291 -10.720442953589341 5.3591671125134663 -0.80901700255871778 0 -0.5877852410284794 0.14694631025711985 0 -0.20225425063967944 1 I I -0.70710678118654746 0.70710678118654746 0.25 forward I I I I #
loop $-1 $-1 $208 $55 #
coedge $-1 $130 $130 $209 $210 reversed $82 $-1 #
face $-1 $-1 $211 $44 $-1 $212 forward single #
loop $-1 $213 $214 $84 #
cone-surface $-1 63.471895108801291 -8.0800346280532267 5.3591671125134663 -0.80901700255871778 0 -0.5877852410284794 0.14694631025711985 0 -0.20225425063967944 1 I I -0.70710678118654746 0.70710678118654746 0.25 forward I I I I #
loop $-1 $-1 $215 $56 #
coedge $-1 $135 $135 $216 $217 reversed $85 $-1 #
face $-1 $218 $219 $45 $-1 $220 reversed single #
loop $-1 $-1 $221 $87 #
plane-surface $-1 -11.689981753389347 9.4002387908212839 111.17810802767401 0.80901700255871778 0 0.5877852410284794 0.5877852410284794 0 -0.80901700255871778 forward_v I I I I #
coedge $-1 $222 $223 $224 $225 reversed $88 $-1 #
face $-1 $-1 $226 $46 $-1 $227 forward single #
loop $-1 $228 $229 $90 #
cone-surface $-1 63.471895108801291 8.0800346280532267 5.3591671125134663 -0.80901700255871778 0 -0.5877852410284794 0.14694631025711985 0 -0.20225425063967944 1 I I -0.70710678118654746 0.70710678118654746 0.25 forward I I I I #
loop $-1 $-1 $230 $58 #
coedge $-1 $144 $144 $231 $232 reversed $91 $-1 #
face $-1 $-1 $233 $47 $-1 $234 forward single #
loop $-1 $235 $236 $93 #
cone-surface $-1 63.471895108801291 10.720442953589341 5.3591671125134663 -0.80901700255871778 0 -0.5877852410284794 0.14694631025711985 0 -0.20225425063967944 1 I I -0.70710678118654746 0.70710678118654746 0.25 forward I I I I #
loop $-1 $-1 $237 $59 #
coedge $-1 $149 $149 $238 $239 reversed $94 $-1 #
face $-1 $240 $241 $36 $-1 $242 reversed single #
loop $-1 $-1 $243 $96 #
plane-surface $-1 0 -29.074595942762784 0 0 1 0 0 0 1 forward_v I I I I #
coedge $-1 $244 $245 $246 $247 forward $97 $-1 #
coedge $-1 $248 $99 $249 $250 forward $61 $-1 #
coedge $-1 $99 $248 $251 $252 forward $61 $-1 #
coedge $-1 $253 $254 $99 $157 reversed $255 $-1 #
edge $-1 $256 -29.074595942762784 $257 29.074595942762784 $156 $258 forward 7 unknown #
face $-1 $259 $260 $37 $-1 $261 reversed single #
loop $-1 $-1 $262 $100 #
plane-surface $-1 -66.582842493972592 0 0 1 0 0 0 0 -1 forward_v I I I I #
coedge $-1 $263 $264 $163 $265 forward $101 $-1 #
coedge $-1 $266 $103 $267 $268 reversed $64 $-1 #
coedge $-1 $103 $266 $161 $265 reversed $64 $-1 #
coedge $-1 $269 $270 $103 $165 reversed $271 $-1 #
edge $-1 $272 -8.9094244331701677 $273 8.9094244331701677 $164 $274 forward 7 unknown #
face $-1 $275 $276 $38 $-1 $277 reversed single #
loop $-1 $-1 $278 $104 #
plane-surface $-1 -65.082842493972592 37.837231171108243 0 0 -1 0 0 0 -1 forward_v I I I I #
coedge $-1 $279 $280 $170 $281 forward $105 $-1 #
coedge $-1 $282 $107 $169 $281 reversed $67 $-1 #
coedge $-1 $107 $282 $283 $284 reversed $67 $-1 #
coedge $-1 $285 $286 $107 $173 reversed $276 $-1 #
edge $-1 $287 -8.9094244331701677 $288 8.9094244331701677 $172 $289 forward 7 unknown #
face $-1 $290 $291 $39 $-1 $292 reversed single #
loop $-1 $-1 $293 $108 #
plane-surface $-1 -148.56782560453522 -0.44037389532428506 106.08443956381586 0 -1 0 0.61566148304635926 0 -0.78801074757464917 forward_v I I I I #
coedge $-1 $294 $295 $296 $297 reversed $109 $-1 #
coedge $-1 $179 $111 $298 $299 reversed $70 $-1 #
coedge $-1 $111 $178 $294 $300 reversed $70 $-1 #
coedge $-1 $296 $301 $111 $181 forward $302 $-1 #
edge $-1 $303 7.7010703082950158 $304 17.634666201977069 $180 $305 forward 7 unknown #
loop $-1 $-1 $187 $112 #
plane-surface $-1 -66.582842493972578 -4.8367229565709557 1.1484485851749469 -0.61566148304635926 0 0.78801074757464917 0.78801074757464917 0 0.61566148304635926 forward_v I I I I #
loop $-1 $-1 $306 $72 #
coedge $-1 $185 $185 $186 $307 reversed $113 $-1 #
coedge $-1 $186 $186 $185 $307 forward $115 $-1 #
coedge $-1 $187 $187 $116 $188 forward $182 $-1 #
edge $-1 $308 0 $308 6.2831853071796004 $187 $309 forward 7 unknown #
loop $-1 $-1 $194 $117 #
plane-surface $-1 -66.582842493972578 -4.8367229565709557 1.1484485851749469 -0.61566148304635926 0 0.78801074757464917 0.78801074757464917 0 0.61566148304635926 forward_v I I I I #
loop $-1 $-1 $310 $75 #
coedge $-1 $192 $192 $193 $311 reversed $118 $-1 #
coedge $-1 $193 $193 $192 $311 forward $120 $-1 #
coedge $-1 $194 $194 $121 $195 forward $189 $-1 #
edge $-1 $312 0 $312 6.2831853071796004 $194 $313 forward 7 unknown #
face $-1 $314 $315 $42 $-1 $316 forward single #
loop $-1 $-1 $317 $122 #
plane-surface $-1 96.043321559236503 -12.480715170613419 189.45093227503594 0 1 0 0.80901700255871778 0 0.5877852410284794 forward_v I I I I #
coedge $-1 $318 $319 $320 $321 reversed $123 $-1 #
coedge $-1 $201 $125 $322 $323 reversed $79 $-1 #
coedge $-1 $125 $200 $318 $324 reversed $79 $-1 #
coedge $-1 $320 $325 $125 $203 forward $315 $-1 #
edge $-1 $326 -18.56118171435434 $327 -14.590903206008385 $202 $328 forward 7 unknown #
loop $-1 $-1 $209 $126 #
plane-surface $-1 -11.689981753389347 -9.4002387908212839 111.17810802767401 0.80901700255871778 0 0.5877852410284794 0.5877852410284794 0 -0.80901700255871778 forward_v I I I I #
loop $-1 $-1 $329 $81 #
coedge $-1 $207 $207 $208 $330 reversed $127 $-1 #
coedge $-1 $208 $208 $207 $330 forward $129 $-1 #
coedge $-1 $209 $209 $130 $210 forward $204 $-1 #
edge $-1 $331 0 $331 6.2831853071796004 $209 $332 forward 7 unknown #
loop $-1 $-1 $216 $131 #
plane-surface $-1 -11.689981753389347 -9.4002387908212839 111.17810802767401 0.80901700255871778 0 0.5877852410284794 0.5877852410284794 0 -0.80901700255871778 forward_v I I I I #
loop $-1 $-1 $333 $84 #
coedge $-1 $214 $214 $215 $334 reversed $132 $-1 #
coedge $-1 $215 $215 $214 $334 forward $134 $-1 #
coedge $-1 $216 $216 $135 $217 forward $211 $-1 #
edge $-1 $335 0 $335 6.2831853071796004 $216 $336 forward 7 unknown #
face $-1 $337 $338 $45 $-1 $339 reversed single #
loop $-1 $-1 $340 $136 #
plane-surface $-1 96.043321559236503 6.3197624110291493 189.45093227503594 0 1 0 0.80901700255871778 0 0.5877852410284794 forward_v I I I I #
coedge $-1 $341 $342 $343 $344 reversed $137 $-1 #
coedge $-1 $223 $139 $345 $346 reversed $88 $-1 #
coedge $-1 $139 $222 $341 $347 reversed $88 $-1 #
coedge $-1 $343 $348 $139 $225 forward $349 $-1 #
edge $-1 $350 -18.56118171435434 $351 -14.590903206008385 $224 $352 forward 7 unknown #
loop $-1 $-1 $231 $140 #
plane-surface $-1 -11.689981753389347 9.4002387908212839 111.17810802767401 0.80901700255871778 0 0.5877852410284794 0.5877852410284794 0 -0.80901700255871778 forward_v I I I I #
loop $-1 $-1 $353 $90 #
coedge $-1 $229 $229 $230 $354 reversed $141 $-1 #
coedge $-1 $230 $230 $229 $354 forward $143 $-1 #
coedge $-1 $231 $231 $144 $232 forward $226 $-1 #
edge $-1 $355 0 $355 6.2831853071796004 $231 $356 forward 7 unknown #
loop $-1 $-1 $238 $145 #
plane-surface $-1 -11.689981753389347 9.4002387908212839 111.17810802767401 0.80901700255871778 0 0.5877852410284794 0.5877852410284794 0 -0.80901700255871778 forward_v I I I I #
loop $-1 $-1 $357 $93 #
coedge $-1 $236 $236 $237 $358 reversed $146 $-1 #
coedge $-1 $237 $237 $236 $358 forward $148 $-1 #
coedge $-1 $238 $238 $149 $239 forward $233 $-1 #
edge $-1 $359 0 $359 6.2831853071796004 $238 $360 forward 7 unknown #
face $-1 $361 $362 $36 $-1 $363 reversed single #
loop $-1 $-1 $364 $150 #
plane-surface $-1 -66.582842493972592 0 0 1 0 0 0 0 -1 forward_v I I I I #
coedge $-1 $365 $251 $366 $367 forward $151 $-1 #
coedge $-1 $368 $153 $365 $369 forward $97 $-1 #
coedge $-1 $153 $368 $370 $371 forward $97 $-1 #
coedge $-1 $254 $253 $153 $247 reversed $255 $-1 #
edge $-1 $372 -29.074595942762784 $373 29.074595942762784 $246 $374 forward 7 unknown #
coedge $-1 $155 $154 $375 $376 forward $61 $-1 #
coedge $-1 $377 $378 $154 $250 reversed $362 $-1 #
edge $-1 $257 -66.582842493972592 $379 66.582842493972592 $249 $380 forward 7 unknown #
coedge $-1 $243 $381 $155 $252 reversed $151 $-1 #
edge $-1 $382 -66.582842493972592 $256 66.582842493972592 $251 $383 forward 7 unknown #
coedge $-1 $246 $156 $381 $384 forward $255 $-1 #
coedge $-1 $156 $246 $377 $385 reversed $255 $-1 #
loop $-1 $-1 $253 $361 #
vertex $-1 $157 $386 #
vertex $-1 $157 $387 #
straight-curve $-1 66.582842493972592 0 8.9094244331701677 0 1 0 I I #
face $-1 $388 $271 $37 $-1 $389 reversed single #
loop $-1 $-1 $390 $158 #
plane-surface $-1 -65.082842493972592 -37.837231171108243 0 0 1 0 0 0 1 forward_v I I I I #
coedge $-1 $391 $392 $266 $393 forward $159 $-1 #
coedge $-1 $394 $161 $392 $395 forward $101 $-1 #
coedge $-1 $161 $394 $269 $396 forward $101 $-1 #
edge $-1 $272 63.582842493972592 $397 66.582842493972592 $161 $398 forward 7 unknown #
coedge $-1 $163 $162 $262 $393 reversed $64 $-1 #
coedge $-1 $399 $400 $162 $268 forward $401 $-1 #
edge $-1 $402 -66.582842493972592 $273 -63.582842493972592 $267 $403 forward 7 unknown #
coedge $-1 $404 $164 $264 $396 reversed $271 $-1 #
coedge $-1 $164 $404 $399 $405 reversed $271 $-1 #
loop $-1 $-1 $404 $259 #
vertex $-1 $265 $406 #
vertex $-1 $405 $407 #
straight-curve $-1 -63.582842493972592 -29.074595942762784 0 0 0 -1 I I #
face $-1 $408 $409 $38 $-1 $410 reversed single #
loop $-1 $-1 $172 $166 #
plane-surface $-1 -63.582842493972592 33.455913556935513 0 -1 0 0 0 0 1 forward_v I I I I #
coedge $-1 $411 $412 $413 $414 forward $167 $-1 #
coedge $-1 $415 $169 $286 $416 forward $105 $-1 #
coedge $-1 $169 $415 $417 $418 forward $105 $-1 #
edge $-1 $419 -66.582842493972592 $288 -63.582842493972592 $169 $420 forward 7 unknown #
coedge $-1 $171 $170 $421 $422 reversed $67 $-1 #
coedge $-1 $423 $424 $171 $284 forward $409 $-1 #
edge $-1 $287 63.582842493972592 $425 66.582842493972592 $283 $426 forward 7 unknown #
coedge $-1 $413 $172 $424 $427 reversed $276 $-1 #
coedge $-1 $172 $413 $279 $416 reversed $276 $-1 #
vertex $-1 $284 $428 #
vertex $-1 $416 $429 #
straight-curve $-1 -63.582842493972592 29.074595942762784 0 0 0 1 I I #
face $-1 $-1 $302 $39 $-1 $430 forward single #
loop $-1 $-1 $431 $174 #
plane-surface $-1 -66.582842493972592 0 0 1 0 0 0 0 -1 forward_v I I I I #
coedge $-1 $432 $433 $434 $435 reversed $175 $-1 #
coedge $-1 $436 $177 $179 $300 forward $109 $-1 #
coedge $-1 $177 $436 $432 $437 forward $109 $-1 #
coedge $-1 $434 $180 $177 $297 forward $302 $-1 #
edge $-1 $304 -6.8147105395321486 $438 1.9779875829611928 $296 $439 forward 7 unknown #
coedge $-1 $440 $441 $178 $299 forward $291 $-1 #
edge $-1 $442 -51.893771196732999 $303 -44.132795348737766 $298 $443 forward 7 unknown #
edge $-1 $304 -12.605914226748563 $442 1.8033521786330445e-014 $179 $444 forward 7 unknown #
coedge $-1 $180 $434 $440 $445 forward $302 $-1 #
loop $-1 $-1 $434 $290 #
vertex $-1 $299 $446 #
vertex $-1 $181 $447 #
straight-curve $-1 -74.283912802267608 -9.2330720178176264 8.909424433170166 1 0 0 I I #
coedge $-1 $306 $306 $-1 $448 reversed $184 $-1 #
edge $-1 $449 0 $449 6.2831853071796004 $185 $450 forward 7 unknown #
vertex $-1 $188 $451 #
ellipse-curve $-1 -61.616044547131565 -6.7208725542480998 5.0289365091725484 -0.61566148304635926 0 0.78801074757464917 0.78801074757464917 0 0.61566148304635926 1 I I #
coedge $-1 $310 $310 $-1 $452 reversed $191 $-1 #
edge $-1 $453 0 $453 6.2831853071796004 $192 $454 forward 7 unknown #
vertex $-1 $195 $455 #
ellipse-curve $-1 -61.616044547131565 -2.9525733588938117 5.0289365091725484 -0.61566148304635926 0 0.78801074757464917 0.78801074757464917 0 0.61566148304635926 1 I I #
face $-1 $-1 $456 $42 $-1 $457 reversed single #
loop $-1 $-1 $202 $196 #
plane-surface $-1 0 0 8.9094244331701677 0 0 1 1 0 0 forward_v I I I I #
coedge $-1 $458 $459 $460 $461 reversed $197 $-1 #
coedge $-1 $462 $199 $201 $324 forward $123 $-1 #
coedge $-1 $199 $462 $458 $463 forward $123 $-1 #
coedge $-1 $460 $202 $199 $321 forward $315 $-1 #
edge $-1 $327 1.6196430156185073 $464 7.7805957752027766 $320 $465 forward 7 unknown #
coedge $-1 $466 $467 $200 $323 forward $456 $-1 #
edge $-1 $468 -91.280661422469834 $326 -85.816041704347796 $322 $469 forward 7 unknown #
edge $-1 $327 126.41104361348854 $468 133.16568498794521 $201 $470 forward 7 unknown #
coedge $-1 $202 $460 $466 $471 forward $315 $-1 #
vertex $-1 $203 $472 #
vertex $-1 $203 $473 #
straight-curve $-1 48.021660779618252 -6.3197624110291493 8.9094244331701731 -1 0 0 I I #
coedge $-1 $329 $329 $-1 $474 reversed $206 $-1 #
edge $-1 $475 0 $475 6.2831853071796004 $207 $476 forward 7 unknown #
vertex $-1 $210 $477 #
ellipse-curve $-1 64.5977032397996 -10.720442953589341 6.1771145741091624 0.80901700255871778 0 0.5877852410284794 0.2938926205142397 0 -0.40450850127935889 1 I I #
coedge $-1 $333 $333 $-1 $478 reversed $213 $-1 #
edge $-1 $479 0 $479 6.2831853071796004 $214 $480 forward 7 unknown #
vertex $-1 $217 $481 #
ellipse-curve $-1 64.5977032397996 -8.0800346280532267 6.1771145741091624 0.80901700255871778 0 0.5877852410284794 0.2938926205142397 0 -0.40450850127935889 1 I I #
face $-1 $-1 $349 $45 $-1 $482 forward single #
loop $-1 $-1 $483 $218 #
plane-surface $-1 66.582842493972592 0 0 -1 0 0 0 0 1 forward_v I I I I #
coedge $-1 $484 $485 $486 $487 reversed $219 $-1 #
coedge $-1 $488 $221 $223 $347 forward $137 $-1 #
coedge $-1 $221 $488 $484 $489 forward $137 $-1 #
coedge $-1 $486 $224 $221 $344 forward $349 $-1 #
edge $-1 $351 -7.7805957752027766 $490 -1.6196430156185073 $343 $491 forward 7 unknown #
coedge $-1 $492 $493 $222 $346 forward $338 $-1 #
edge $-1 $494 -91.280661422469834 $350 -85.816041704347796 $345 $495 forward 7 unknown #
edge $-1 $351 126.41104361348854 $494 133.16568498794521 $223 $496 forward 7 unknown #
coedge $-1 $224 $486 $492 $497 forward $349 $-1 #
loop $-1 $-1 $486 $337 #
vertex $-1 $346 $498 #
vertex $-1 $225 $499 #
straight-curve $-1 48.021660779618252 12.480715170613419 8.9094244331701731 -1 0 0 I I #
coedge $-1 $353 $353 $-1 $500 reversed $228 $-1 #
edge $-1 $501 0 $501 6.2831853071796004 $229 $502 forward 7 unknown #
vertex $-1 $232 $503 #
ellipse-curve $-1 64.5977032397996 8.0800346280532267 6.1771145741091624 0.80901700255871778 0 0.5877852410284794 0.2938926205142397 0 -0.40450850127935889 1 I I #
coedge $-1 $357 $357 $-1 $504 reversed $235 $-1 #
edge $-1 $505 0 $505 6.2831853071796004 $236 $506 forward 7 unknown #
vertex $-1 $239 $507 #
ellipse-curve $-1 64.5977032397996 10.720442953589341 6.1771145741091624 0.80901700255871778 0 0.5877852410284794 0.2938926205142397 0 -0.40450850127935889 1 I I #
face $-1 $-1 $255 $36 $-1 $508 reversed single #
loop $-1 $-1 $377 $240 #
plane-surface $-1 0 29.074595942762784 0 0 -1 0 0 0 -1 forward_v I I I I #
coedge $-1 $509 $375 $378 $510 forward $241 $-1 #
coedge $-1 $381 $243 $244 $369 reversed $151 $-1 #
coedge $-1 $375 $509 $243 $367 reversed $241 $-1 #
edge $-1 $382 -8.9094244331701677 $511 8.9094244331701677 $366 $512 forward 7 unknown #
coedge $-1 $245 $244 $509 $513 forward $97 $-1 #
edge $-1 $373 -66.582842493972592 $511 66.582842493972592 $365 $514 forward 7 unknown #
coedge $-1 $378 $377 $245 $371 reversed $362 $-1 #
edge $-1 $515 -66.582842493972592 $372 66.582842493972592 $370 $516 forward 7 unknown #
vertex $-1 $247 $517 #
vertex $-1 $384 $518 #
straight-curve $-1 66.582842493972592 0 -8.9094244331701677 0 -1 0 I I #
coedge $-1 $364 $366 $248 $376 reversed $241 $-1 #
edge $-1 $379 -29.074595942762784 $382 29.074595942762784 $375 $519 forward 7 unknown #
coedge $-1 $370 $249 $254 $385 forward $362 $-1 #
coedge $-1 $249 $370 $364 $510 reversed $362 $-1 #
vertex $-1 $250 $520 #
straight-curve $-1 0 29.074595942762784 8.9094244331701677 -1 0 0 I I #
coedge $-1 $251 $365 $253 $384 reversed $151 $-1 #
vertex $-1 $376 $521 #
straight-curve $-1 0 -29.074595942762784 8.9094244331701677 1 0 0 I I #
edge $-1 $256 -8.9094244331701677 $373 8.9094244331701677 $253 $522 forward 7 unknown #
edge $-1 $257 -8.9094244331701677 $372 8.9094244331701677 $254 $523 forward 7 unknown #
point $-1 66.582842493972592 -29.074595942762784 8.9094244331701677 #
point $-1 66.582842493972592 29.074595942762784 8.9094244331701677 #
face $-1 $-1 $401 $37 $-1 $524 reversed single #
plane-surface $-1 -63.582842493972592 -33.455913556935513 0 -1 0 0 0 0 1 forward_v I I I I #
coedge $-1 $525 $526 $527 $528 forward $260 $-1 #
coedge $-1 $527 $262 $400 $529 reversed $159 $-1 #
coedge $-1 $262 $527 $263 $395 reversed $159 $-1 #
edge $-1 $397 -8.9094244331701677 $402 8.9094244331701677 $262 $530 forward 7 unknown #
coedge $-1 $264 $263 $526 $531 forward $101 $-1 #
edge $-1 $397 29.074595942762784 $532 37.837231171108243 $392 $533 forward 7 unknown #
edge $-1 $534 -4.3813176141727297 $272 4.3813176141727297 $269 $535 forward 7 unknown #
vertex $-1 $395 $536 #
straight-curve $-1 0 -29.074595942762784 8.9094244331701677 -1 0 0 I I #
coedge $-1 $537 $267 $270 $405 forward $401 $-1 #
coedge $-1 $267 $537 $391 $529 forward $401 $-1 #
loop $-1 $-1 $267 $388 #
vertex $-1 $393 $538 #
straight-curve $-1 0 -29.074595942762784 -8.9094244331701677 1 0 0 I I #
coedge $-1 $270 $269 $539 $540 forward $271 $-1 #
edge $-1 $273 -4.3813176141727297 $541 4.3813176141727297 $270 $542 forward 7 unknown #
point $-1 -63.582842493972592 -29.074595942762784 8.9094244331701677 #
point $-1 -63.582842493972592 -29.074595942762784 -8.9094244331701677 #
face $-1 $-1 $543 $38 $-1 $544 reversed single #
loop $-1 $-1 $283 $275 #
plane-surface $-1 0 0 -8.9094244331701677 0 0 1 1 0 0 forward_v I I I I #
coedge $-1 $545 $278 $546 $547 reversed $167 $-1 #
coedge $-1 $278 $545 $415 $548 reversed $167 $-1 #
coedge $-1 $286 $285 $278 $414 reversed $276 $-1 #
edge $-1 $549 -8.9094244331701677 $550 8.9094244331701677 $413 $551 forward 7 unknown #
coedge $-1 $280 $279 $412 $548 forward $105 $-1 #
edge $-1 $288 -4.3813176141727297 $549 4.3813176141727297 $286 $552 forward 7 unknown #
coedge $-1 $553 $421 $280 $418 reversed $543 $-1 #
edge $-1 $554 -37.837231171108243 $419 -29.074595942762784 $417 $555 forward 7 unknown #
vertex $-1 $422 $556 #
straight-curve $-1 0 29.074595942762784 8.9094244331701677 1 0 0 I I #
coedge $-1 $417 $557 $282 $422 forward $543 $-1 #
edge $-1 $425 -8.9094244331701677 $419 8.9094244331701677 $421 $558 forward 7 unknown #
coedge $-1 $546 $283 $557 $559 forward $409 $-1 #
coedge $-1 $283 $546 $285 $427 forward $409 $-1 #
vertex $-1 $559 $560 #
straight-curve $-1 0 29.074595942762784 -8.9094244331701677 -1 0 0 I I #
edge $-1 $550 -4.3813176141727297 $287 4.3813176141727297 $285 $561 forward 7 unknown #
point $-1 -63.582842493972592 29.074595942762784 -8.9094244331701677 #
point $-1 -63.582842493972592 29.074595942762784 8.9094244331701677 #
plane-surface $-1 0 0 8.9094244331701677 0 0 1 1 0 0 forward_v I I I I #
coedge $-1 $441 $440 $433 $562 forward $291 $-1 #
coedge $-1 $433 $293 $295 $437 reversed $175 $-1 #
coedge $-1 $293 $432 $431 $562 reversed $175 $-1 #
coedge $-1 $301 $296 $293 $435 forward $302 $-1 #
edge $-1 $438 -17.634666201977069 $563 -7.7010703082950158 $434 $564 forward 7 unknown #
coedge $-1 $295 $294 $441 $565 reversed $109 $-1 #
edge $-1 $566 -1.8033521786330445e-014 $438 12.605914226748563 $432 $567 forward 7 unknown #
vertex $-1 $297 $568 #
straight-curve $-1 -56.649246600290532 -2.4183614782854779 8.9094244331701677 0 1 0 I I #
coedge $-1 $431 $298 $301 $445 reversed $291 $-1 #
coedge $-1 $298 $431 $436 $565 forward $291 $-1 #
vertex $-1 $299 $569 #
straight-curve $-1 -66.582842493972592 -9.2330720178176264 53.042219781907932 0 0 1 I I #
straight-curve $-1 -66.582842493972578 -9.2330720178176264 1.1484485851749469 -0.78801074757464917 0 -0.61566148304635926 I I #
edge $-1 $563 0.44037389532428506 $303 9.2330720178176264 $440 $570 forward 7 unknown #
point $-1 -66.582842493972592 -9.2330720178176264 8.9094244331701677 #
point $-1 -56.649246600290539 -9.2330720178176264 8.9094244331701677 #
edge $-1 $571 1 $571 0 $306 $-1 forward 7 unknown #
vertex $-1 $307 $572 #
ellipse-curve $-1 -60.60722175750405 -6.7208725542480998 3.7377022473000032 -0.61566148304635926 0 0.78801074757464917 0.78801074757464917 0 0.61566148304635926 1 I I #
point $-1 -60.828033799556927 -6.7208725542480998 5.6445979922189187 #
edge $-1 $573 1 $573 0 $310 $-1 forward 7 unknown #
vertex $-1 $311 $574 #
ellipse-curve $-1 -60.60722175750405 -2.9525733588938117 3.7377022473000032 -0.61566148304635926 0 0.78801074757464917 0.78801074757464917 0 0.61566148304635926 1 I I #
point $-1 -60.828033799556927 -2.9525733588938117 5.6445979922189187 #
loop $-1 $-1 $322 $314 #
plane-surface $-1 66.582842493972592 0 0 -1 0 0 0 0 1 forward_v I I I I #
coedge $-1 $459 $317 $319 $463 reversed $197 $-1 #
coedge $-1 $317 $458 $575 $576 reversed $197 $-1 #
coedge $-1 $325 $320 $317 $461 forward $315 $-1 #
edge $-1 $464 14.590903206008385 $577 18.56118171435434 $460 $578 forward 7 unknown #
coedge $-1 $319 $318 $467 $579 reversed $123 $-1 #
edge $-1 $580 -133.16568498794521 $464 -126.41104361348854 $458 $581 forward 7 unknown #
vertex $-1 $321 $582 #
straight-curve $-1 62.612563985626629 -4.7001193954106419 8.9094244331701873 0 -1 0 I I #
coedge $-1 $575 $322 $325 $471 reversed $456 $-1 #
coedge $-1 $322 $575 $462 $579 forward $456 $-1 #
vertex $-1 $323 $583 #
straight-curve $-1 66.582842493972592 -6.3197624110291493 94.725466137517969 0 0 1 I I #
straight-curve $-1 -11.689981753389347 -6.3197624110291493 111.17810802767401 0.5877852410284794 0 -0.80901700255871778 I I #
edge $-1 $577 -12.480715170613419 $326 -6.3197624110291493 $466 $584 forward 7 unknown #
point $-1 66.582842493972592 -6.3197624110291493 8.9094244331701677 #
point $-1 62.612563985626636 -6.3197624110291493 8.9094244331701731 #
edge $-1 $585 1 $585 0 $329 $-1 forward 7 unknown #
vertex $-1 $330 $586 #
ellipse-curve $-1 63.674149359440968 -10.720442953589341 5.5061134227705866 0.80901700255871778 0 0.5877852410284794 0.2938926205142397 0 -0.40450850127935889 1 I I #
point $-1 64.891595860313842 -10.720442953589341 5.7726060728298085 #
edge $-1 $587 1 $587 0 $333 $-1 forward 7 unknown #
vertex $-1 $334 $588 #
ellipse-curve $-1 63.674149359440968 -8.0800346280532267 5.5061134227705866 0.80901700255871778 0 0.5877852410284794 0.2938926205142397 0 -0.40450850127935889 1 I I #
point $-1 64.891595860313842 -8.0800346280532267 5.7726060728298085 #
plane-surface $-1 0 0 8.9094244331701677 0 0 1 1 0 0 forward_v I I I I #
coedge $-1 $493 $492 $485 $589 forward $338 $-1 #
coedge $-1 $485 $340 $342 $489 reversed $219 $-1 #
coedge $-1 $340 $484 $483 $589 reversed $219 $-1 #
coedge $-1 $348 $343 $340 $487 forward $349 $-1 #
edge $-1 $490 14.590903206008385 $590 18.56118171435434 $486 $591 forward 7 unknown #
coedge $-1 $342 $341 $493 $592 reversed $137 $-1 #
edge $-1 $593 -133.16568498794521 $490 -126.41104361348854 $484 $594 forward 7 unknown #
vertex $-1 $344 $595 #
straight-curve $-1 62.612563985626629 4.7001193954106419 8.9094244331701873 0 -1 0 I I #
coedge $-1 $483 $345 $348 $497 reversed $338 $-1 #
coedge $-1 $345 $483 $488 $592 forward $338 $-1 #
vertex $-1 $346 $596 #
straight-curve $-1 66.582842493972592 12.480715170613419 94.725466137517969 0 0 1 I I #
straight-curve $-1 -11.689981753389347 12.480715170613419 111.17810802767401 0.5877852410284794 0 -0.80901700255871778 I I #
edge $-1 $590 6.3197624110291493 $350 12.480715170613419 $492 $597 forward 7 unknown #
point $-1 66.582842493972592 12.480715170613419 8.9094244331701677 #
point $-1 62.612563985626636 12.480715170613419 8.9094244331701731 #
edge $-1 $598 1 $598 0 $353 $-1 forward 7 unknown #
vertex $-1 $354 $599 #
ellipse-curve $-1 63.674149359440968 8.0800346280532267 5.5061134227705866 0.80901700255871778 0 0.5877852410284794 0.2938926205142397 0 -0.40450850127935889 1 I I #
point $-1 64.891595860313842 8.0800346280532267 5.7726060728298085 #
edge $-1 $600 1 $600 0 $357 $-1 forward 7 unknown #
vertex $-1 $358 $601 #
ellipse-curve $-1 63.674149359440968 10.720442953589341 5.5061134227705866 0.80901700255871778 0 0.5877852410284794 0.2938926205142397 0 -0.40450850127935889 1 I I #
point $-1 64.891595860313842 10.720442953589341 5.7726060728298085 #
plane-surface $-1 66.582842493972592 0 0 -1 0 0 0 0 1 forward_v I I I I #
coedge $-1 $366 $364 $368 $513 reversed $241 $-1 #
edge $-1 $379 -8.9094244331701677 $515 8.9094244331701677 $378 $602 forward 7 unknown #
vertex $-1 $513 $603 #
straight-curve $-1 -66.582842493972592 -29.074595942762784 0 0 0 -1 I I #
edge $-1 $511 -29.074595942762784 $515 29.074595942762784 $509 $604 forward 7 unknown #
straight-curve $-1 0 -29.074595942762784 -8.9094244331701677 -1 0 0 I I #
vertex $-1 $371 $605 #
straight-curve $-1 0 29.074595942762784 -8.9094244331701677 1 0 0 I I #
point $-1 66.582842493972592 29.074595942762784 -8.9094244331701677 #
point $-1 66.582842493972592 -29.074595942762784 -8.9094244331701677 #
straight-curve $-1 -66.582842493972592 0 8.9094244331701677 0 -1 0 I I #
point $-1 -66.582842493972592 29.074595942762784 8.9094244331701677 #
point $-1 -66.582842493972592 -29.074595942762784 8.9094244331701677 #
straight-curve $-1 66.582842493972592 -29.074595942762784 0 0 0 -1 I I #
straight-curve $-1 66.582842493972592 29.074595942762784 0 0 0 -1 I I #
plane-surface $-1 0 0 -8.9094244331701677 0 0 1 1 0 0 forward_v I I I I #
coedge $-1 $539 $390 $537 $606 reversed $260 $-1 #
coedge $-1 $390 $539 $394 $531 reversed $260 $-1 #
coedge $-1 $392 $391 $390 $528 reversed $159 $-1 #
edge $-1 $532 -8.9094244331701677 $607 8.9094244331701677 $527 $608 forward 7 unknown #
edge $-1 $607 -37.837231171108243 $402 -29.074595942762784 $391 $609 forward 7 unknown #
straight-curve $-1 -66.582842493972592 -29.074595942762784 0 0 0 -1 I I #
edge $-1 $532 -1.5 $534 1.5 $526 $610 forward 7 unknown #
vertex $-1 $395 $611 #
straight-curve $-1 -66.582842493972592 0 8.9094244331701677 0 -1 0 I I #
vertex $-1 $396 $612 #
straight-curve $-1 -63.582842493972592 -33.455913556935513 8.9094244331701677 0 1 0 I I #
point $-1 -66.582842493972592 -29.074595942762784 8.9094244331701677 #
coedge $-1 $400 $399 $525 $606 forward $401 $-1 #
point $-1 -66.582842493972592 -29.074595942762784 -8.9094244331701677 #
coedge $-1 $526 $525 $404 $540 reversed $260 $-1 #
edge $-1 $534 -8.9094244331701677 $541 8.9094244331701677 $404 $613 forward 7 unknown #
vertex $-1 $540 $614 #
straight-curve $-1 -63.582842493972592 -33.455913556935513 -8.9094244331701677 0 -1 0 I I #
loop $-1 $-1 $421 $408 #
plane-surface $-1 -66.582842493972592 0 0 1 0 0 0 0 -1 forward_v I I I I #
coedge $-1 $412 $411 $553 $615 reversed $167 $-1 #
coedge $-1 $424 $423 $411 $547 forward $409 $-1 #
edge $-1 $616 -1.5 $550 1.5 $411 $617 forward 7 unknown #
edge $-1 $549 -1.5 $554 1.5 $412 $618 forward 7 unknown #
vertex $-1 $416 $619 #
vertex $-1 $427 $620 #
straight-curve $-1 -63.582842493972592 37.837231171108243 0 0 0 -1 I I #
straight-curve $-1 -63.582842493972592 33.455913556935513 8.9094244331701677 0 1 0 I I #
coedge $-1 $557 $417 $545 $615 forward $543 $-1 #
vertex $-1 $548 $621 #
straight-curve $-1 -66.582842493972592 0 8.9094244331701677 0 -1 0 I I #
point $-1 -66.582842493972592 29.074595942762784 8.9094244331701677 #
coedge $-1 $421 $553 $423 $559 reversed $543 $-1 #
straight-curve $-1 -66.582842493972592 29.074595942762784 0 0 0 1 I I #
edge $-1 $425 -4.3813176141727297 $616 4.3813176141727297 $557 $622 forward 7 unknown #
point $-1 -66.582842493972592 29.074595942762784 -8.9094244331701677 #
straight-curve $-1 -63.582842493972592 33.455913556935513 -8.9094244331701677 0 -1 0 I I #
edge $-1 $563 44.132795348737766 $566 51.893771196732999 $431 $623 forward 7 unknown #
vertex $-1 $445 $624 #
straight-curve $-1 -74.283912802267608 -0.44037389532428506 8.909424433170166 -1 0 0 I I #
edge $-1 $566 -1.9779875829611928 $442 6.8147105395321486 $441 $625 forward 7 unknown #
vertex $-1 $565 $626 #
straight-curve $-1 -66.582842493972578 -0.44037389532428506 1.1484485851749469 0.78801074757464917 0 0.61566148304635926 I I #
point $-1 -56.649246600290539 -0.44037389532428506 8.9094244331701677 #
point $-1 -66.582842493972592 -9.2330720178176264 1.1484485851749358 #
straight-curve $-1 -66.582842493972592 0 8.9094244331701677 0 -1 0 I I #
vertex $-1 $448 $627 #
point $-1 -59.819211009929404 -6.7208725542480998 4.3533637303463628 #
vertex $-1 $452 $628 #
point $-1 -59.819211009929404 -2.9525733588938117 4.3533637303463628 #
coedge $-1 $467 $466 $459 $576 forward $456 $-1 #
edge $-1 $577 85.816041704347796 $580 91.280661422469834 $575 $629 forward 7 unknown #
vertex $-1 $471 $630 #
straight-curve $-1 48.021660779618252 -12.480715170613419 8.9094244331701731 1 0 0 I I #
edge $-1 $580 -7.7805957752027766 $468 -1.6196430156185073 $467 $631 forward 7 unknown #
vertex $-1 $579 $632 #
straight-curve $-1 -11.689981753389347 -12.480715170613419 111.17810802767401 -0.5877852410284794 0 0.80901700255871778 I I #
point $-1 62.612563985626636 -12.480715170613419 8.9094244331701731 #
point $-1 66.582842493972592 -6.3197624110291493 3.4448047150481358 #
straight-curve $-1 66.582842493972592 0 8.9094244331701677 0 1 0 I I #
vertex $-1 $474 $633 #
point $-1 63.96804197995521 -10.720442953589341 5.1016049214912274 #
vertex $-1 $478 $634 #
point $-1 63.96804197995521 -8.0800346280532267 5.1016049214912274 #
edge $-1 $590 85.816041704347796 $593 91.280661422469834 $483 $635 forward 7 unknown #
vertex $-1 $497 $636 #
straight-curve $-1 48.021660779618252 6.3197624110291493 8.9094244331701731 1 0 0 I I #
edge $-1 $593 1.6196430156185073 $494 7.7805957752027766 $493 $637 forward 7 unknown #
vertex $-1 $592 $638 #
straight-curve $-1 -11.689981753389347 6.3197624110291493 111.17810802767401 -0.5877852410284794 0 0.80901700255871778 I I #
point $-1 62.612563985626636 6.3197624110291493 8.9094244331701731 #
point $-1 66.582842493972592 12.480715170613419 3.4448047150481358 #
straight-curve $-1 66.582842493972592 0 8.9094244331701677 0 1 0 I I #
vertex $-1 $500 $639 #
point $-1 63.96804197995521 8.0800346280532267 5.1016049214912274 #
vertex $-1 $504 $640 #
point $-1 63.96804197995521 10.720442953589341 5.1016049214912274 #
straight-curve $-1 -66.582842493972592 29.074595942762784 0 0 0 -1 I I #
point $-1 -66.582842493972592 -29.074595942762784 -8.9094244331701677 #
straight-curve $-1 -66.582842493972592 0 -8.9094244331701677 0 1 0 I I #
point $-1 -66.582842493972592 29.074595942762784 -8.9094244331701677 #
edge $-1 $541 -1.5 $607 1.5 $525 $641 forward 7 unknown #
vertex $-1 $529 $642 #
straight-curve $-1 -66.582842493972592 -37.837231171108243 0 0 0 -1 I I #
straight-curve $-1 -66.582842493972592 0 -8.9094244331701677 0 1 0 I I #
straight-curve $-1 -65.082842493972592 -37.837231171108243 8.9094244331701677 1 0 0 I I #
point $-1 -66.582842493972592 -37.837231171108243 8.9094244331701677 #
point $-1 -63.582842493972592 -37.837231171108243 8.9094244331701677 #
straight-curve $-1 -63.582842493972592 -37.837231171108243 0 0 0 -1 I I #
point $-1 -63.582842493972592 -37.837231171108243 -8.9094244331701677 #
edge $-1 $554 -8.9094244331701677 $616 8.9094244331701677 $545 $643 forward 7 unknown #
vertex $-1 $547 $644 #
straight-curve $-1 -65.082842493972592 37.837231171108243 -8.9094244331701677 1 0 0 I I #
straight-curve $-1 -65.082842493972592 37.837231171108243 8.9094244331701677 -1 0 0 I I #
point $-1 -63.582842493972592 37.837231171108243 8.9094244331701677 #
point $-1 -63.582842493972592 37.837231171108243 -8.9094244331701677 #
point $-1 -66.582842493972592 37.837231171108243 8.9094244331701677 #
straight-curve $-1 -66.582842493972592 33.455913556935513 -8.9094244331701677 0 1 0 I I #
straight-curve $-1 -66.582842493972592 -0.44037389532428506 53.042219781907932 0 0 -1 I I #
point $-1 -66.582842493972592 -0.44037389532428506 8.9094244331701677 #
straight-curve $-1 -66.582842493972592 -2.4183614782854779 1.1484485851749282 0 -1 0 I I #
point $-1 -66.582842493972592 -0.44037389532428506 1.1484485851749358 #
point $-1 -59.991560274457697 -6.7208725542480998 2.949691499725354 #
point $-1 -59.991560274457697 -2.9525733588938117 2.949691499725354 #
straight-curve $-1 66.582842493972592 -12.480715170613419 94.725466137517969 0 0 -1 I I #
point $-1 66.582842493972592 -12.480715170613419 8.9094244331701677 #
straight-curve $-1 66.582842493972592 -4.7001193954106419 3.4448047150481358 0 1 0 I I #
point $-1 66.582842493972592 -12.480715170613419 3.4448047150481358 #
point $-1 63.269640858161615 -10.720442953589341 5.2122208022563461 #
point $-1 63.269640858161615 -8.0800346280532267 5.2122208022563461 #
straight-curve $-1 66.582842493972592 6.3197624110291493 94.725466137517969 0 0 -1 I I #
point $-1 66.582842493972592 6.3197624110291493 8.9094244331701677 #
straight-curve $-1 66.582842493972592 4.7001193954106419 3.4448047150481358 0 1 0 I I #
point $-1 66.582842493972592 6.3197624110291493 3.4448047150481358 #
point $-1 63.269640858161615 8.0800346280532267 5.2122208022563461 #
point $-1 63.269640858161615 10.720442953589341 5.2122208022563461 #
straight-curve $-1 -65.082842493972592 -37.837231171108243 -8.9094244331701677 -1 0 0 I I #
point $-1 -66.582842493972592 -37.837231171108243 -8.9094244331701677 #
straight-curve $-1 -66.582842493972592 37.837231171108243 0 0 0 -1 I I #
point $-1 -66.582842493972592 37.837231171108243 -8.9094244331701677 #
End-of-ACIS-data 