500 0 8 0           
7 Unknown 11 ACIS 5.0 NT 24 Fri Mar 26 02:20:13 1999 
-1 9.9999999999999995e-007 1e-010 
body $-1 $8 $-1 $9 #
body $-1 $10 $-1 $11 #
body $-1 $12 $-1 $13 #
body $-1 $14 $-1 $15 #
body $-1 $16 $-1 $17 #
body $-1 $18 $-1 $19 #
body $-1 $20 $-1 $21 #
body $-1 $22 $-1 $23 #
lump $-1 $-1 $24 $0 #
transform $-1 1 0 0 0 1 0 0 0 1 72.861110263374741 36.668481667475852 15.732409116556575 1 rotate no_reflect no_shear #
lump $-1 $-1 $25 $1 #
transform $-1 1 0 0 0 1 0 0 0 1 72.861110263374741 36.668481667475852 15.732409116556575 1 rotate no_reflect no_shear #
lump $-1 $-1 $26 $2 #
transform $-1 1 0 0 0 1 0 0 0 1 72.861110263374741 36.668481667475852 15.732409116556575 1 rotate no_reflect no_shear #
lump $-1 $-1 $27 $3 #
transform $-1 1 0 0 0 1 0 0 0 1 72.861110263374741 36.668481667475852 15.732409116556575 1 rotate no_reflect no_shear #
lump $-1 $-1 $28 $4 #
transform $-1 1 0 0 0 1 0 0 0 1 72.861110263374741 36.668481667475852 15.732409116556575 1 rotate no_reflect no_shear #
lump $-1 $-1 $29 $5 #
transform $-1 1 0 0 0 1 0 0 0 1 72.861110263374741 36.668481667475852 15.732409116556575 1 rotate no_reflect no_shear #
lump $-1 $-1 $30 $6 #
transform $-1 1 0 0 0 1 0 0 0 1 72.861110263374741 36.668481667475852 15.732409116556575 1 rotate no_reflect no_shear #
lump $-1 $-1 $31 $7 #
transform $-1 1 0 0 0 1 0 0 0 1 72.861110263374741 36.668481667475852 15.732409116556575 1 rotate no_reflect no_shear #
shell $-1 $-1 $-1 $32 $-1 $8 #
shell $-1 $-1 $-1 $33 $-1 $10 #
shell $-1 $-1 $-1 $34 $-1 $12 #
shell $-1 $-1 $-1 $35 $-1 $14 #
shell $-1 $-1 $-1 $36 $-1 $16 #
shell $-1 $-1 $-1 $37 $-1 $18 #
shell $-1 $-1 $-1 $38 $-1 $20 #
shell $-1 $-1 $-1 $39 $-1 $22 #
face $-1 $40 $41 $24 $-1 $42 forward single #
face $-1 $43 $44 $25 $-1 $45 reversed single #
face $-1 $46 $47 $26 $-1 $48 forward single #
face $-1 $49 $50 $27 $-1 $51 forward single #
face $-1 $52 $53 $28 $-1 $54 forward single #
face $-1 $55 $56 $29 $-1 $57 reversed single #
face $-1 $58 $59 $30 $-1 $60 forward single #
face $-1 $61 $62 $31 $-1 $63 forward single #
face $-1 $64 $65 $24 $-1 $66 reversed single #
loop $-1 $-1 $67 $32 #
plane-surface $-1 0 0 15.732409116556575 0 0 1 1 0 0 forward_v I I I I #
face $-1 $68 $69 $25 $-1 $70 reversed single #
loop $-1 $-1 $71 $33 #
plane-surface $-1 -58.508624109363197 98.533062502800107 151.12767634447761 1 0 0 0 -0.75470958851134928 -0.65605901945558964 forward_v I I I I #
face $-1 $72 $73 $26 $-1 $74 forward single #
loop $-1 $75 $76 $34 #
cone-surface $-1 -51.907608089347505 28.524659699763614 6.7527070096542356 0 -0.75470958851134928 -0.65605901945558964 2.5 0 0 1 I I 0 1 2.5 forward I I I I #
face $-1 $77 $78 $27 $-1 $79 forward single #
loop $-1 $80 $81 $35 #
cone-surface $-1 -42.006084059323967 28.524659699763614 6.7527070096542356 0 -0.75470958851134928 -0.65605901945558964 2.5 0 0 1 I I 0 1 2.5 forward I I I I #
face $-1 $82 $83 $28 $-1 $84 forward single #
loop $-1 $85 $86 $36 #
cone-surface $-1 -32.104560029300423 28.524659699763614 6.7527070096542356 0 -0.75470958851134928 -0.65605901945558964 2.5 0 0 1 I I 0 1 2.5 forward I I I I #
face $-1 $87 $88 $29 $-1 $89 reversed single #
loop $-1 $-1 $90 $37 #
plane-surface $-1 -32.732465209539527 -134.175680621206 113.25674782984413 -1 0 0 0 -0.66913061440640931 0.74314481823134659 forward_v I I I I #
face $-1 $91 $92 $30 $-1 $93 forward single #
loop $-1 $94 $95 $38 #
cone-surface $-1 -61.395783105136104 -25.642616872325505 4.7439388573636458 0 0.66913061440640931 -0.74314481823134659 4 0 0 1 I I 0 1 4 forward I I I I #
face $-1 $96 $97 $31 $-1 $98 forward single #
loop $-1 $99 $100 $39 #
cone-surface $-1 -44.197792367778156 -25.642616872325505 4.7439388573636458 0 0.66913061440640931 -0.74314481823134659 4 0 0 1 I I 0 1 4 forward I I I I #
face $-1 $101 $102 $24 $-1 $103 reversed single #
loop $-1 $-1 $104 $40 #
plane-surface $-1 0 0 -15.732409116556575 0 0 1 1 0 0 forward_v I I I I #
coedge $-1 $105 $106 $107 $108 forward $41 $-1 #
face $-1 $109 $110 $25 $-1 $111 reversed single #
loop $-1 $-1 $112 $43 #
plane-surface $-1 -42.00608405932396 -11.444894587903093 55.525299232807143 0 0.75470958851134928 0.65605901945558964 1 0 0 forward_v I I I I #
coedge $-1 $113 $114 $115 $116 reversed $44 $-1 #
face $-1 $-1 $117 $26 $-1 $118 forward single #
loop $-1 $119 $120 $46 #
cone-surface $-1 -51.907608089347505 26.19842349670337 4.7305407809037874 0 -0.75470958851134928 -0.65605901945558964 1.25 0 0 1 I I -0.70710678118654746 0.70710678118654746 1.25 forward I I I I #
loop $-1 $-1 $121 $34 #
coedge $-1 $76 $76 $122 $123 reversed $47 $-1 #
face $-1 $-1 $124 $27 $-1 $125 forward single #
loop $-1 $126 $127 $49 #
cone-surface $-1 -42.006084059323967 26.19842349670337 4.7305407809037874 0 -0.75470958851134928 -0.65605901945558964 1.25 0 0 1 I I -0.70710678118654746 0.70710678118654746 1.25 forward I I I I #
loop $-1 $-1 $128 $35 #
coedge $-1 $81 $81 $129 $130 reversed $50 $-1 #
face $-1 $-1 $131 $28 $-1 $132 forward single #
loop $-1 $133 $134 $52 #
cone-surface $-1 -32.104560029300423 26.19842349670337 4.7305407809037874 0 -0.75470958851134928 -0.65605901945558964 1.25 0 0 1 I I -0.70710678118654746 0.70710678118654746 1.25 forward I I I I #
loop $-1 $-1 $135 $36 #
coedge $-1 $86 $86 $136 $137 reversed $53 $-1 #
face $-1 $138 $139 $29 $-1 $140 forward single #
loop $-1 $-1 $141 $55 #
plane-surface $-1 -52.796787736457134 -36.668481667475845 4.9640347442246764 0 -0.66913061440640931 0.74314481823134659 1 0 0 forward_v I I I I #
coedge $-1 $142 $143 $144 $145 reversed $56 $-1 #
face $-1 $-1 $146 $30 $-1 $147 forward single #
loop $-1 $148 $149 $58 #
cone-surface $-1 -61.395783105136104 -19.258236389277933 -2.346633852126029 0 0.66913061440640931 -0.74314481823134659 2 0 0 1 I I -0.70710678118654768 0.70710678118654735 2 forward I I I I #
loop $-1 $-1 $150 $38 #
coedge $-1 $95 $95 $151 $152 reversed $59 $-1 #
face $-1 $-1 $153 $31 $-1 $154 forward single #
loop $-1 $155 $156 $61 #
cone-surface $-1 -44.197792367778156 -19.258236389277933 -2.346633852126029 0 0.66913061440640931 -0.74314481823134659 2 0 0 1 I I -0.70710678118654768 0.70710678118654735 2 forward I I I I #
loop $-1 $-1 $157 $39 #
coedge $-1 $100 $100 $158 $159 reversed $62 $-1 #
face $-1 $160 $161 $24 $-1 $162 reversed single #
loop $-1 $-1 $163 $64 #
plane-surface $-1 0 -36.668481667475852 0 0 1 0 0 0 1 forward_v I I I I #
coedge $-1 $164 $165 $166 $167 forward $65 $-1 #
coedge $-1 $168 $67 $169 $170 forward $41 $-1 #
coedge $-1 $67 $168 $171 $172 forward $41 $-1 #
coedge $-1 $173 $174 $67 $108 reversed $175 $-1 #
edge $-1 $176 -36.668481667475852 $177 36.668481667475852 $107 $178 forward 7 unknown #
face $-1 $179 $180 $25 $-1 $181 reversed single #
loop $-1 $-1 $182 $68 #
plane-surface $-1 -25.503544009284724 98.533062502800107 151.12767634447761 -1 0 0 0 0.75470958851134928 0.65605901945558964 forward_v I I I I #
coedge $-1 $183 $184 $185 $186 reversed $69 $-1 #
coedge $-1 $114 $71 $187 $188 reversed $44 $-1 #
coedge $-1 $71 $113 $183 $189 reversed $44 $-1 #
coedge $-1 $185 $190 $71 $116 forward $191 $-1 #
edge $-1 $192 12.598049583924201 $193 26.119995084506549 $115 $194 forward 7 unknown #
loop $-1 $-1 $122 $72 #
plane-surface $-1 -42.00608405932396 -11.444894587903093 55.525299232807143 0 0.75470958851134928 0.65605901945558964 1 0 0 forward_v I I I I #
loop $-1 $-1 $195 $46 #
coedge $-1 $120 $120 $121 $196 reversed $73 $-1 #
coedge $-1 $121 $121 $120 $196 forward $75 $-1 #
coedge $-1 $122 $122 $76 $123 forward $117 $-1 #
edge $-1 $197 -1.2793581742027661e-016 $197 6.2831853071796004 $122 $198 forward 7 unknown #
loop $-1 $-1 $129 $77 #
plane-surface $-1 -42.00608405932396 -11.444894587903093 55.525299232807143 0 0.75470958851134928 0.65605901945558964 1 0 0 forward_v I I I I #
loop $-1 $-1 $199 $49 #
coedge $-1 $127 $127 $128 $200 reversed $78 $-1 #
coedge $-1 $128 $128 $127 $200 forward $80 $-1 #
coedge $-1 $129 $129 $81 $130 forward $124 $-1 #
edge $-1 $201 -1.2793581742027661e-016 $201 6.2831853071796004 $129 $202 forward 7 unknown #
loop $-1 $-1 $136 $82 #
plane-surface $-1 -42.00608405932396 -11.444894587903093 55.525299232807143 0 0.75470958851134928 0.65605901945558964 1 0 0 forward_v I I I I #
loop $-1 $-1 $203 $52 #
coedge $-1 $134 $134 $135 $204 reversed $83 $-1 #
coedge $-1 $135 $135 $134 $204 forward $85 $-1 #
coedge $-1 $136 $136 $86 $137 forward $131 $-1 #
edge $-1 $205 -1.2793581742027661e-016 $205 6.2831853071796004 $136 $206 forward 7 unknown #
face $-1 $207 $208 $29 $-1 $209 reversed single #
loop $-1 $-1 $144 $87 #
plane-surface $-1 0 0 15.732409116556575 0 0 1 1 0 0 forward_v I I I I #
coedge $-1 $210 $211 $212 $213 reversed $88 $-1 #
coedge $-1 $143 $90 $214 $215 reversed $56 $-1 #
coedge $-1 $90 $142 $210 $216 reversed $56 $-1 #
coedge $-1 $212 $217 $90 $145 forward $139 $-1 #
edge $-1 $218 30.419358643127147 $219 42.37884972495835 $144 $220 forward 7 unknown #
loop $-1 $-1 $151 $91 #
plane-surface $-1 -52.796787736457134 -36.668481667475845 4.9640347442246764 0 -0.66913061440640931 0.74314481823134659 1 0 0 forward_v I I I I #
loop $-1 $-1 $221 $58 #
coedge $-1 $149 $149 $150 $222 reversed $92 $-1 #
coedge $-1 $150 $150 $149 $222 forward $94 $-1 #
coedge $-1 $151 $151 $95 $152 forward $146 $-1 #
edge $-1 $223 -4.2862932301542071e-016 $223 6.2831853071796004 $151 $224 forward 7 unknown #
loop $-1 $-1 $158 $96 #
plane-surface $-1 -52.796787736457134 -36.668481667475845 4.9640347442246764 0 -0.66913061440640931 0.74314481823134659 1 0 0 forward_v I I I I #
loop $-1 $-1 $225 $61 #
coedge $-1 $156 $156 $157 $226 reversed $97 $-1 #
coedge $-1 $157 $157 $156 $226 forward $99 $-1 #
coedge $-1 $158 $158 $100 $159 forward $153 $-1 #
edge $-1 $227 -4.2862932301542071e-016 $227 6.2831853071796004 $158 $228 forward 7 unknown #
face $-1 $229 $230 $24 $-1 $231 reversed single #
loop $-1 $-1 $232 $101 #
plane-surface $-1 -72.861110263374741 0 0 1 0 0 0 0 -1 forward_v I I I I #
coedge $-1 $233 $171 $234 $235 forward $102 $-1 #
coedge $-1 $236 $104 $233 $237 forward $65 $-1 #
coedge $-1 $104 $236 $238 $239 forward $65 $-1 #
coedge $-1 $174 $173 $104 $167 reversed $175 $-1 #
edge $-1 $240 -36.668481667475852 $241 36.668481667475852 $166 $242 forward 7 unknown #
coedge $-1 $106 $105 $243 $244 forward $41 $-1 #
coedge $-1 $245 $246 $105 $170 reversed $230 $-1 #
edge $-1 $177 -72.861110263374741 $247 72.861110263374741 $169 $248 forward 7 unknown #
coedge $-1 $163 $249 $106 $172 reversed $102 $-1 #
edge $-1 $250 -72.861110263374741 $176 72.861110263374741 $171 $251 forward 7 unknown #
coedge $-1 $166 $107 $249 $252 forward $175 $-1 #
coedge $-1 $107 $166 $245 $253 reversed $175 $-1 #
loop $-1 $-1 $173 $229 #
vertex $-1 $108 $254 #
vertex $-1 $108 $255 #
straight-curve $-1 72.861110263374741 0 15.732409116556575 0 1 0 I I #
face $-1 $-1 $191 $25 $-1 $256 forward single #
loop $-1 $-1 $257 $109 #
plane-surface $-1 0 36.668481667475852 0 0 -1 0 0 0 -1 forward_v I I I I #
coedge $-1 $258 $259 $260 $261 reversed $110 $-1 #
coedge $-1 $262 $112 $114 $189 forward $69 $-1 #
coedge $-1 $112 $262 $258 $263 forward $69 $-1 #
coedge $-1 $260 $115 $112 $186 forward $191 $-1 #
edge $-1 $193 -37.505582079701213 $264 -4.5005019796227437 $185 $265 forward 7 unknown #
coedge $-1 $266 $267 $113 $188 forward $180 $-1 #
edge $-1 $268 -75.386648360624974 $192 -59.831429055682229 $187 $269 forward 7 unknown #
edge $-1 $193 52.726095867870605 $268 73.336963334951719 $114 $270 forward 7 unknown #
coedge $-1 $115 $260 $266 $271 forward $191 $-1 #
loop $-1 $-1 $260 $179 #
vertex $-1 $188 $272 #
vertex $-1 $116 $273 #
straight-curve $-1 -58.508624109363197 49.266531251400053 15.732409116556582 0 -1 0 I I #
coedge $-1 $195 $195 $-1 $274 reversed $119 $-1 #
edge $-1 $275 0 $275 6.2831853071796004 $120 $276 forward 7 unknown #
vertex $-1 $123 $277 #
ellipse-curve $-1 -51.907608089347505 29.907508917184675 7.9547994640851991 0 0.75470958851134928 0.65605901945558964 2.5 0 0 1 I I #
coedge $-1 $199 $199 $-1 $278 reversed $126 $-1 #
edge $-1 $279 0 $279 6.2831853071796004 $127 $280 forward 7 unknown #
vertex $-1 $130 $281 #
ellipse-curve $-1 -42.006084059323967 29.907508917184675 7.9547994640851991 0 0.75470958851134928 0.65605901945558964 2.5 0 0 1 I I #
coedge $-1 $203 $203 $-1 $282 reversed $133 $-1 #
edge $-1 $283 0 $283 6.2831853071796004 $134 $284 forward 7 unknown #
vertex $-1 $137 $285 #
ellipse-curve $-1 -32.104560029300423 29.907508917184675 7.9547994640851991 0 0.75470958851134928 0.65605901945558964 2.5 0 0 1 I I #
face $-1 $-1 $286 $29 $-1 $287 reversed single #
loop $-1 $-1 $288 $138 #
plane-surface $-1 -72.861110263374741 0 0 1 0 0 0 0 -1 forward_v I I I I #
coedge $-1 $289 $141 $143 $216 forward $88 $-1 #
coedge $-1 $141 $289 $288 $290 reversed $88 $-1 #
coedge $-1 $291 $144 $141 $213 forward $139 $-1 #
edge $-1 $219 6.3340713413109597 $292 46.462716395146174 $212 $293 forward 7 unknown #
coedge $-1 $294 $295 $142 $215 forward $286 $-1 #
edge $-1 $296 -51.664339170697396 $218 -40.89596479836549 $214 $297 forward 7 unknown #
edge $-1 $219 -16.09308278606353 $296 9.4405131238556439e-015 $143 $298 forward 7 unknown #
coedge $-1 $144 $291 $294 $299 forward $139 $-1 #
vertex $-1 $215 $300 #
vertex $-1 $145 $301 #
straight-curve $-1 -32.732465209539527 -67.087840310602999 15.732409116556575 0 1 0 I I #
coedge $-1 $221 $221 $-1 $302 reversed $148 $-1 #
edge $-1 $303 0 $303 6.2831853071796004 $149 $304 forward 7 unknown #
vertex $-1 $152 $305 #
ellipse-curve $-1 -61.395783105136104 -30.688736126560251 10.348221930390622 0 -0.66913061440640931 0.74314481823134659 4 0 0 1 I I #
coedge $-1 $225 $225 $-1 $306 reversed $155 $-1 #
edge $-1 $307 0 $307 6.2831853071796004 $156 $308 forward 7 unknown #
vertex $-1 $159 $309 #
ellipse-curve $-1 -44.197792367778156 -30.688736126560251 10.348221930390622 0 -0.66913061440640931 0.74314481823134659 4 0 0 1 I I #
face $-1 $-1 $175 $24 $-1 $310 reversed single #
loop $-1 $-1 $245 $160 #
plane-surface $-1 0 36.668481667475852 0 0 -1 0 0 0 -1 forward_v I I I I #
coedge $-1 $311 $243 $246 $312 forward $161 $-1 #
coedge $-1 $249 $163 $164 $237 reversed $102 $-1 #
coedge $-1 $243 $311 $163 $235 reversed $161 $-1 #
edge $-1 $250 -15.732409116556575 $313 15.732409116556575 $234 $314 forward 7 unknown #
coedge $-1 $165 $164 $311 $315 forward $65 $-1 #
edge $-1 $241 -72.861110263374741 $313 72.861110263374741 $233 $316 forward 7 unknown #
coedge $-1 $246 $245 $165 $239 reversed $230 $-1 #
edge $-1 $317 -72.861110263374741 $240 72.861110263374741 $238 $318 forward 7 unknown #
vertex $-1 $167 $319 #
vertex $-1 $252 $320 #
straight-curve $-1 72.861110263374741 0 -15.732409116556575 0 -1 0 I I #
coedge $-1 $232 $234 $168 $244 reversed $161 $-1 #
edge $-1 $247 -36.668481667475852 $250 36.668481667475852 $243 $321 forward 7 unknown #
coedge $-1 $238 $169 $174 $253 forward $230 $-1 #
coedge $-1 $169 $238 $232 $312 reversed $230 $-1 #
vertex $-1 $170 $322 #
straight-curve $-1 0 36.668481667475852 15.732409116556575 -1 0 0 I I #
coedge $-1 $171 $233 $173 $252 reversed $102 $-1 #
vertex $-1 $244 $323 #
straight-curve $-1 0 -36.668481667475852 15.732409116556575 1 0 0 I I #
edge $-1 $176 -15.732409116556575 $241 15.732409116556575 $173 $324 forward 7 unknown #
edge $-1 $177 -15.732409116556575 $240 15.732409116556575 $174 $325 forward 7 unknown #
point $-1 72.861110263374741 -36.668481667475852 15.732409116556575 #
point $-1 72.861110263374741 36.668481667475852 15.732409116556575 #
plane-surface $-1 0 0 15.732409116556575 0 0 1 1 0 0 forward_v I I I I #
coedge $-1 $267 $266 $259 $326 forward $180 $-1 #
coedge $-1 $259 $182 $184 $263 reversed $110 $-1 #
coedge $-1 $182 $258 $257 $326 reversed $110 $-1 #
coedge $-1 $190 $185 $182 $261 forward $191 $-1 #
edge $-1 $264 -26.119995084506549 $327 -12.598049583924201 $260 $328 forward 7 unknown #
coedge $-1 $184 $183 $267 $329 reversed $69 $-1 #
edge $-1 $330 -73.336963334951719 $264 -52.726095867870605 $258 $331 forward 7 unknown #
vertex $-1 $186 $332 #
straight-curve $-1 -21.00304202966198 23.146536166893508 15.732409116556575 1 0 0 I I #
coedge $-1 $257 $187 $190 $271 reversed $180 $-1 #
coedge $-1 $187 $257 $262 $329 forward $180 $-1 #
vertex $-1 $188 $333 #
straight-curve $-1 -58.508624109363197 36.668481667475852 75.563838172238803 0 0 1 I I #
straight-curve $-1 -58.508624109363197 -11.444894587903093 55.525299232807143 0 0.65605901945558964 -0.75470958851134928 I I #
edge $-1 $327 25.503544009284724 $192 58.508624109363197 $266 $334 forward 7 unknown #
point $-1 -58.508624109363197 36.668481667475852 15.732409116556575 #
point $-1 -58.508624109363197 23.146536166893505 15.732409116556575 #
edge $-1 $335 1 $335 0 $195 $-1 forward 7 unknown #
vertex $-1 $196 $336 #
ellipse-curve $-1 -51.907608089347505 27.141810482342557 5.5506145552232748 0 0.75470958851134928 0.65605901945558964 2.5 0 0 1 I I #
point $-1 -49.407608089347505 29.907508917184671 7.9547994640851964 #
edge $-1 $337 1 $337 0 $199 $-1 forward 7 unknown #
vertex $-1 $200 $338 #
ellipse-curve $-1 -42.006084059323967 27.141810482342557 5.5506145552232748 0 0.75470958851134928 0.65605901945558964 2.5 0 0 1 I I #
point $-1 -39.506084059323967 29.907508917184671 7.9547994640851964 #
edge $-1 $339 1 $339 0 $203 $-1 forward 7 unknown #
vertex $-1 $204 $340 #
ellipse-curve $-1 -32.104560029300423 27.141810482342557 5.5506145552232748 0 0.75470958851134928 0.65605901945558964 2.5 0 0 1 I I #
point $-1 -29.604560029300423 29.907508917184671 7.9547994640851964 #
loop $-1 $-1 $214 $207 #
plane-surface $-1 0 -36.668481667475852 0 0 1 0 0 0 1 forward_v I I I I #
coedge $-1 $341 $342 $211 $290 forward $208 $-1 #
coedge $-1 $211 $210 $295 $343 reversed $88 $-1 #
edge $-1 $292 -4.1288805234345389 $344 11.964202262628998 $288 $345 forward 7 unknown #
coedge $-1 $217 $212 $342 $346 forward $139 $-1 #
vertex $-1 $346 $347 #
straight-curve $-1 -26.398393868228567 -24.708990585644649 15.732409116556575 -1 0 0 I I #
coedge $-1 $348 $214 $217 $299 reversed $286 $-1 #
coedge $-1 $214 $348 $289 $343 forward $286 $-1 #
vertex $-1 $215 $349 #
straight-curve $-1 -32.732465209539527 -36.668481667475852 56.628373914922065 0 0 1 I I #
straight-curve $-1 -32.732465209539527 -36.668481667475845 4.9640347442246764 0 -0.74314481823134659 -0.66913061440640931 I I #
edge $-1 $350 -72.861110263374741 $218 -32.732465209539527 $294 $351 forward 7 unknown #
point $-1 -32.732465209539527 -36.668481667475852 15.732409116556575 #
point $-1 -32.732465209539527 -24.708990585644649 15.732409116556575 #
edge $-1 $352 1 $352 0 $221 $-1 forward 7 unknown #
vertex $-1 $222 $353 #
ellipse-curve $-1 -61.395783105136104 -20.596497618090751 -0.86034421566333652 0 -0.66913061440640931 0.74314481823134659 4 0 0 1 I I #
point $-1 -57.395783105136104 -30.688736126560258 10.348221930390627 #
edge $-1 $354 1 $354 0 $225 $-1 forward 7 unknown #
vertex $-1 $226 $355 #
ellipse-curve $-1 -44.197792367778156 -20.596497618090751 -0.86034421566333652 0 -0.66913061440640931 0.74314481823134659 4 0 0 1 I I #
point $-1 -40.197792367778156 -30.688736126560258 10.348221930390627 #
plane-surface $-1 72.861110263374741 0 0 -1 0 0 0 0 1 forward_v I I I I #
coedge $-1 $234 $232 $236 $315 reversed $161 $-1 #
edge $-1 $247 -15.732409116556575 $317 15.732409116556575 $246 $356 forward 7 unknown #
vertex $-1 $315 $357 #
straight-curve $-1 -72.861110263374741 -36.668481667475852 0 0 0 -1 I I #
edge $-1 $313 -36.668481667475852 $317 36.668481667475852 $311 $358 forward 7 unknown #
straight-curve $-1 0 -36.668481667475852 -15.732409116556575 -1 0 0 I I #
vertex $-1 $239 $359 #
straight-curve $-1 0 36.668481667475852 -15.732409116556575 1 0 0 I I #
point $-1 72.861110263374741 36.668481667475852 -15.732409116556575 #
point $-1 72.861110263374741 -36.668481667475852 -15.732409116556575 #
straight-curve $-1 -72.861110263374741 0 15.732409116556575 0 -1 0 I I #
point $-1 -72.861110263374741 36.668481667475852 15.732409116556575 #
point $-1 -72.861110263374741 -36.668481667475852 15.732409116556575 #
straight-curve $-1 72.861110263374741 -36.668481667475852 0 0 0 -1 I I #
straight-curve $-1 72.861110263374741 36.668481667475852 0 0 0 -1 I I #
edge $-1 $327 59.831429055682229 $330 75.386648360624974 $257 $360 forward 7 unknown #
vertex $-1 $271 $361 #
straight-curve $-1 -25.503544009284724 49.266531251400053 15.732409116556582 0 1 0 I I #
edge $-1 $330 4.5005019796227437 $268 37.505582079701213 $267 $362 forward 7 unknown #
vertex $-1 $329 $363 #
straight-curve $-1 -25.503544009284724 -11.444894587903093 55.525299232807143 0 -0.65605901945558964 0.75470958851134928 I I #
point $-1 -25.503544009284724 23.146536166893505 15.732409116556575 #
point $-1 -58.508624109363197 36.668481667475852 0.17718981161383596 #
straight-curve $-1 0 36.668481667475852 15.732409116556575 -1 0 0 I I #
vertex $-1 $274 $364 #
point $-1 -49.407608089347505 27.141810482342557 5.5506145552232748 #
vertex $-1 $278 $365 #
point $-1 -39.506084059323967 27.141810482342557 5.5506145552232748 #
vertex $-1 $282 $366 #
point $-1 -29.604560029300423 27.141810482342557 5.5506145552232748 #
coedge $-1 $342 $288 $348 $367 reversed $208 $-1 #
coedge $-1 $288 $341 $291 $346 reversed $208 $-1 #
edge $-1 $344 -46.462716395146174 $296 -6.3340713413109597 $295 $368 forward 7 unknown #
vertex $-1 $290 $369 #
straight-curve $-1 -72.861110263374741 -27.777346751731358 12.969648755100165 0 -0.74314481823134659 -0.66913061440640931 I I #
edge $-1 $292 24.708990585644649 $350 36.668481667475852 $342 $370 forward 7 unknown #
point $-1 -72.861110263374741 -24.708990585644649 15.732409116556575 #
coedge $-1 $295 $294 $341 $367 forward $286 $-1 #
point $-1 -32.732465209539527 -36.668481667475852 4.9640347442246702 #
vertex $-1 $346 $371 #
straight-curve $-1 0 -36.668481667475852 15.732409116556575 1 0 0 I I #
vertex $-1 $302 $372 #
point $-1 -57.395783105136104 -20.596497618090751 -0.86034421566333652 #
vertex $-1 $306 $373 #
point $-1 -40.197792367778156 -20.596497618090751 -0.86034421566333652 #
straight-curve $-1 -72.861110263374741 36.668481667475852 0 0 0 -1 I I #
point $-1 -72.861110263374741 -36.668481667475852 -15.732409116556575 #
straight-curve $-1 -72.861110263374741 0 -15.732409116556575 0 1 0 I I #
point $-1 -72.861110263374741 36.668481667475852 -15.732409116556575 #
straight-curve $-1 -25.503544009284724 36.668481667475852 75.563838172238803 0 0 -1 I I #
point $-1 -25.503544009284724 36.668481667475852 15.732409116556575 #
straight-curve $-1 -21.00304202966198 36.668481667475859 0.1771898116138324 -1 0 0 I I #
point $-1 -25.503544009284724 36.668481667475852 0.17718981161383596 #
point $-1 -51.907608089347505 25.255036511064183 3.9104670065843004 #
point $-1 -42.006084059323967 25.255036511064183 3.9104670065843004 #
point $-1 -32.104560029300423 25.255036511064183 3.9104670065843004 #
edge $-1 $350 -15.732409116556575 $344 -4.9640347442246702 $341 $374 forward 7 unknown #
straight-curve $-1 -26.398393868228567 -36.668481667475852 4.9640347442246666 1 0 0 I I #
point $-1 -72.861110263374741 -36.668481667475852 4.9640347442246702 #
straight-curve $-1 -72.861110263374741 0 15.732409116556575 0 -1 0 I I #
point $-1 -72.861110263374741 -36.668481667475852 15.732409116556575 #
point $-1 -61.395783105136104 -17.919975160465114 -3.8329234885887216 #
point $-1 -44.197792367778156 -17.919975160465114 -3.8329234885887216 #
straight-curve $-1 -72.861110263374741 -36.668481667475852 0 0 0 -1 I I #
End-of-ACIS-data 