500 0 8 0           
7 Unknown 11 ACIS 5.0 NT 24 Fri Mar 26 02:25:43 1999 
-1 9.9999999999999995e-007 1e-010 
body $-1 $8 $-1 $9 #
body $-1 $10 $-1 $11 #
body $-1 $12 $-1 $13 #
body $-1 $14 $-1 $15 #
body $-1 $16 $-1 $17 #
body $-1 $18 $-1 $19 #
body $-1 $20 $-1 $21 #
body $-1 $22 $-1 $23 #
lump $-1 $-1 $24 $0 #
transform $-1 1 0 0 0 1 0 0 0 1 50.036927396465956 31.036577375697263 11.879373835651187 1 rotate no_reflect no_shear #
lump $-1 $-1 $25 $1 #
transform $-1 1 0 0 0 1 0 0 0 1 50.036927396465956 31.036577375697263 11.879373835651187 1 rotate no_reflect no_shear #
lump $-1 $-1 $26 $2 #
transform $-1 1 0 0 0 1 0 0 0 1 50.036927396465956 31.036577375697263 11.879373835651187 1 rotate no_reflect no_shear #
lump $-1 $-1 $27 $3 #
transform $-1 1 0 0 0 1 0 0 0 1 50.036927396465956 31.036577375697263 11.879373835651187 1 rotate no_reflect no_shear #
lump $-1 $-1 $28 $4 #
transform $-1 1 0 0 0 1 0 0 0 1 50.036927396465956 31.036577375697263 11.879373835651187 1 rotate no_reflect no_shear #
lump $-1 $-1 $29 $5 #
transform $-1 1 0 0 0 1 0 0 0 1 50.036927396465956 31.036577375697263 11.879373835651187 1 rotate no_reflect no_shear #
lump $-1 $-1 $30 $6 #
transform $-1 1 0 0 0 1 0 0 0 1 50.036927396465956 31.036577375697263 11.879373835651187 1 rotate no_reflect no_shear #
lump $-1 $-1 $31 $7 #
transform $-1 1 0 0 0 1 0 0 0 1 50.036927396465956 31.036577375697263 11.879373835651187 1 rotate no_reflect no_shear #
shell $-1 $-1 $-1 $32 $-1 $8 #
shell $-1 $-1 $-1 $33 $-1 $10 #
shell $-1 $-1 $-1 $34 $-1 $12 #
shell $-1 $-1 $-1 $35 $-1 $14 #
shell $-1 $-1 $-1 $36 $-1 $16 #
shell $-1 $-1 $-1 $37 $-1 $18 #
shell $-1 $-1 $-1 $38 $-1 $20 #
shell $-1 $-1 $-1 $39 $-1 $22 #
face $-1 $40 $41 $24 $-1 $42 forward single #
face $-1 $43 $44 $25 $-1 $45 reversed single #
face $-1 $46 $47 $26 $-1 $48 reversed single #
face $-1 $49 $50 $27 $-1 $51 forward single #
face $-1 $52 $53 $28 $-1 $54 reversed single #
face $-1 $55 $56 $29 $-1 $57 forward single #
face $-1 $58 $59 $30 $-1 $60 forward single #
face $-1 $61 $62 $31 $-1 $63 forward single #
face $-1 $64 $65 $24 $-1 $66 reversed single #
loop $-1 $-1 $67 $32 #
plane-surface $-1 0 0 11.879373835651187 0 0 1 1 0 0 forward_v I I I I #
face $-1 $68 $69 $25 $-1 $70 reversed single #
loop $-1 $-1 $71 $33 #
plane-surface $-1 -29.74704244479851 -26.449638881375964 0 1 0 0 0 0 -1 forward_v I I I I #
face $-1 $72 $73 $26 $-1 $74 reversed single #
loop $-1 $-1 $75 $34 #
plane-surface $-1 -105.99751754693742 -17.59445584971543 91.149281820931833 0 1 0 -0.55919291073839883 0 0.82903756765294845 forward_v I I I I #
face $-1 $76 $77 $27 $-1 $78 forward single #
loop $-1 $79 $80 $35 #
cone-surface $-1 -45.76809203827672 -12.693362143246038 7.7638923771019943 0.55919291073839883 0 -0.82903756765294845 1.2435563514794228 0 0.83878936610759824 1 I I 0 1 1.5 forward I I I I #
face $-1 $81 $82 $28 $-1 $83 reversed single #
loop $-1 $-1 $84 $36 #
plane-surface $-1 30.340343907636225 0.76523920188097883 140.15769699063242 0 -1 0 -0.6018150307709319 0 -0.79863550430605224 forward_v I I I I #
face $-1 $85 $86 $29 $-1 $87 forward single #
loop $-1 $88 $89 $37 #
cone-surface $-1 41.011535737747231 -10.141393669461479 4.4191550409679934 -0.6018150307709319 0 -0.79863550430605224 0.79863550430605224 0 -0.6018150307709319 1 I I 0 1 1 forward I I I I #
face $-1 $90 $91 $30 $-1 $92 forward single #
loop $-1 $93 $94 $38 #
cone-surface $-1 41.011535737747231 -6.0514063427080558 4.4191550409679934 -0.6018150307709319 0 -0.79863550430605224 0.79863550430605224 0 -0.6018150307709319 1 I I 0 1 1 forward I I I I #
face $-1 $95 $96 $31 $-1 $97 forward single #
loop $-1 $98 $99 $39 #
cone-surface $-1 41.011535737747231 -1.9614190159546325 4.4191550409679934 -0.6018150307709319 0 -0.79863550430605224 0.79863550430605224 0 -0.6018150307709319 1 I I 0 1 1 forward I I I I #
face $-1 $100 $101 $24 $-1 $102 reversed single #
loop $-1 $-1 $103 $40 #
plane-surface $-1 0 0 -11.879373835651187 0 0 1 1 0 0 forward_v I I I I #
coedge $-1 $104 $105 $106 $107 forward $41 $-1 #
face $-1 $108 $109 $25 $-1 $110 reversed single #
loop $-1 $-1 $111 $43 #
plane-surface $-1 -28.012611084981046 -21.862700387054666 0 0 -1 0 0 0 -1 forward_v I I I I #
coedge $-1 $112 $113 $114 $115 forward $44 $-1 #
face $-1 $116 $117 $26 $-1 $118 reversed single #
loop $-1 $-1 $119 $46 #
plane-surface $-1 -50.036927396465956 -12.693362143246038 8.1842966577452074 -0.55919291073839883 0 0.82903756765294845 0.82903756765294845 0 0.55919291073839883 forward_v I I I I #
coedge $-1 $120 $121 $122 $123 reversed $47 $-1 #
face $-1 $-1 $124 $27 $-1 $125 forward single #
loop $-1 $126 $127 $49 #
cone-surface $-1 -43.818950545041211 -12.693362143246038 4.8741713317660782 0.55919291073839883 0 -0.82903756765294845 0.62177817573971139 0 0.41939468305379912 1 I I -0.70710678118654757 0.70710678118654757 0.75 forward I I I I #
loop $-1 $-1 $128 $35 #
coedge $-1 $80 $80 $129 $130 reversed $50 $-1 #
face $-1 $131 $132 $28 $-1 $133 reversed single #
loop $-1 $-1 $134 $52 #
plane-surface $-1 -29.885606093937866 -6.0514063427080558 60.235163500228595 0.6018150307709319 0 0.79863550430605224 0.79863550430605224 0 -0.6018150307709319 forward_v I I I I #
coedge $-1 $135 $136 $137 $138 reversed $53 $-1 #
face $-1 $-1 $139 $29 $-1 $140 forward single #
loop $-1 $141 $142 $55 #
cone-surface $-1 39.561353810820407 -10.141393669461479 2.494698662630114 -0.6018150307709319 0 -0.79863550430605224 0.39931775215302612 0 -0.30090751538546595 1 I I -0.70710678118654746 0.70710678118654746 0.5 forward I I I I #
loop $-1 $-1 $143 $37 #
coedge $-1 $89 $89 $144 $145 reversed $56 $-1 #
face $-1 $-1 $146 $30 $-1 $147 forward single #
loop $-1 $148 $149 $58 #
cone-surface $-1 39.561353810820407 -6.0514063427080558 2.494698662630114 -0.6018150307709319 0 -0.79863550430605224 0.39931775215302612 0 -0.30090751538546595 1 I I -0.70710678118654746 0.70710678118654746 0.5 forward I I I I #
loop $-1 $-1 $150 $38 #
coedge $-1 $94 $94 $151 $152 reversed $59 $-1 #
face $-1 $-1 $153 $31 $-1 $154 forward single #
loop $-1 $155 $156 $61 #
cone-surface $-1 39.561353810820407 -1.9614190159546325 2.494698662630114 -0.6018150307709319 0 -0.79863550430605224 0.39931775215302612 0 -0.30090751538546595 1 I I -0.70710678118654746 0.70710678118654746 0.5 forward I I I I #
loop $-1 $-1 $157 $39 #
coedge $-1 $99 $99 $158 $159 reversed $62 $-1 #
face $-1 $160 $161 $24 $-1 $162 reversed single #
loop $-1 $-1 $163 $64 #
plane-surface $-1 0 -31.036577375697263 0 0 1 0 0 0 1 forward_v I I I I #
coedge $-1 $164 $165 $166 $167 forward $65 $-1 #
coedge $-1 $168 $67 $169 $170 forward $41 $-1 #
coedge $-1 $67 $168 $171 $172 forward $41 $-1 #
coedge $-1 $173 $174 $67 $107 reversed $175 $-1 #
edge $-1 $176 -31.036577375697263 $177 31.036577375697263 $106 $178 forward 7 unknown #
face $-1 $179 $180 $25 $-1 $181 forward single #
loop $-1 $-1 $182 $68 #
plane-surface $-1 -26.278179725163582 -26.449638881375964 0 -1 0 0 0 0 1 forward_v I I I I #
coedge $-1 $183 $184 $185 $186 forward $69 $-1 #
coedge $-1 $187 $71 $188 $189 reversed $44 $-1 #
coedge $-1 $71 $187 $190 $191 reversed $44 $-1 #
coedge $-1 $184 $183 $71 $115 reversed $69 $-1 #
edge $-1 $192 -11.879373835651187 $193 11.879373835651187 $114 $194 forward 7 unknown #
face $-1 $195 $196 $26 $-1 $197 reversed single #
loop $-1 $-1 $198 $72 #
plane-surface $-1 -105.99751754693742 -7.792268436776645 91.149281820931833 0 -1 0 0.55919291073839883 0 -0.82903756765294845 forward_v I I I I #
coedge $-1 $199 $200 $201 $202 reversed $73 $-1 #
coedge $-1 $121 $75 $203 $204 reversed $47 $-1 #
coedge $-1 $75 $120 $199 $205 reversed $47 $-1 #
coedge $-1 $201 $206 $75 $123 forward $207 $-1 #
edge $-1 $208 2.9618313770027527 $209 8.4400084730178193 $122 $210 forward 7 unknown #
loop $-1 $-1 $129 $76 #
plane-surface $-1 -50.036927396465956 -12.693362143246038 8.1842966577452074 -0.55919291073839883 0 0.82903756765294845 0.82903756765294845 0 0.55919291073839883 forward_v I I I I #
loop $-1 $-1 $211 $49 #
coedge $-1 $127 $127 $128 $212 reversed $77 $-1 #
coedge $-1 $128 $128 $127 $212 forward $79 $-1 #
coedge $-1 $129 $129 $80 $130 forward $124 $-1 #
edge $-1 $213 0 $213 6.2831853071796004 $129 $214 forward 7 unknown #
face $-1 $215 $216 $28 $-1 $217 forward single #
loop $-1 $-1 $218 $81 #
plane-surface $-1 30.340343907636225 -12.86805188729709 140.15769699063242 0 1 0 0.6018150307709319 0 0.79863550430605224 forward_v I I I I #
coedge $-1 $219 $220 $221 $222 reversed $82 $-1 #
coedge $-1 $136 $84 $223 $224 reversed $53 $-1 #
coedge $-1 $84 $135 $219 $225 reversed $53 $-1 #
coedge $-1 $221 $226 $84 $138 forward $216 $-1 #
edge $-1 $227 -34.866755442647843 $228 -19.114520948293077 $137 $229 forward 7 unknown #
loop $-1 $-1 $144 $85 #
plane-surface $-1 -29.885606093937866 -6.0514063427080558 60.235163500228595 0.6018150307709319 0 0.79863550430605224 0.79863550430605224 0 -0.6018150307709319 forward_v I I I I #
loop $-1 $-1 $230 $55 #
coedge $-1 $142 $142 $143 $231 reversed $86 $-1 #
coedge $-1 $143 $143 $142 $231 forward $88 $-1 #
coedge $-1 $144 $144 $89 $145 forward $139 $-1 #
edge $-1 $232 0 $232 6.2831853071796004 $144 $233 forward 7 unknown #
loop $-1 $-1 $151 $90 #
plane-surface $-1 -29.885606093937866 -6.0514063427080558 60.235163500228595 0.6018150307709319 0 0.79863550430605224 0.79863550430605224 0 -0.6018150307709319 forward_v I I I I #
loop $-1 $-1 $234 $58 #
coedge $-1 $149 $149 $150 $235 reversed $91 $-1 #
coedge $-1 $150 $150 $149 $235 forward $93 $-1 #
coedge $-1 $151 $151 $94 $152 forward $146 $-1 #
edge $-1 $236 0 $236 6.2831853071796004 $151 $237 forward 7 unknown #
loop $-1 $-1 $158 $95 #
plane-surface $-1 -29.885606093937866 -6.0514063427080558 60.235163500228595 0.6018150307709319 0 0.79863550430605224 0.79863550430605224 0 -0.6018150307709319 forward_v I I I I #
loop $-1 $-1 $238 $61 #
coedge $-1 $156 $156 $157 $239 reversed $96 $-1 #
coedge $-1 $157 $157 $156 $239 forward $98 $-1 #
coedge $-1 $158 $158 $99 $159 forward $153 $-1 #
edge $-1 $240 0 $240 6.2831853071796004 $158 $241 forward 7 unknown #
face $-1 $242 $243 $24 $-1 $244 reversed single #
loop $-1 $-1 $245 $100 #
plane-surface $-1 -50.036927396465956 0 0 1 0 0 0 0 -1 forward_v I I I I #
coedge $-1 $246 $171 $247 $248 forward $101 $-1 #
coedge $-1 $249 $103 $246 $250 forward $65 $-1 #
coedge $-1 $103 $249 $251 $252 forward $65 $-1 #
coedge $-1 $174 $173 $103 $167 reversed $175 $-1 #
edge $-1 $253 -31.036577375697263 $254 31.036577375697263 $166 $255 forward 7 unknown #
coedge $-1 $105 $104 $256 $257 forward $41 $-1 #
coedge $-1 $258 $259 $104 $170 reversed $243 $-1 #
edge $-1 $177 -50.036927396465956 $260 50.036927396465956 $169 $261 forward 7 unknown #
coedge $-1 $163 $262 $105 $172 reversed $101 $-1 #
edge $-1 $263 -50.036927396465956 $176 50.036927396465956 $171 $264 forward 7 unknown #
coedge $-1 $166 $106 $262 $265 forward $175 $-1 #
coedge $-1 $106 $166 $258 $266 reversed $175 $-1 #
loop $-1 $-1 $173 $242 #
vertex $-1 $107 $267 #
vertex $-1 $107 $268 #
straight-curve $-1 50.036927396465956 0 11.879373835651187 0 1 0 I I #
face $-1 $269 $270 $25 $-1 $271 reversed single #
loop $-1 $-1 $272 $108 #
plane-surface $-1 0 0 11.879373835651187 0 0 1 1 0 0 forward_v I I I I #
coedge $-1 $273 $274 $275 $276 reversed $109 $-1 #
coedge $-1 $114 $111 $277 $278 reversed $69 $-1 #
coedge $-1 $111 $114 $279 $280 reversed $69 $-1 #
coedge $-1 $274 $273 $111 $186 reversed $109 $-1 #
edge $-1 $281 -11.879373835651187 $282 11.879373835651187 $185 $283 forward 7 unknown #
coedge $-1 $113 $112 $284 $285 reversed $44 $-1 #
coedge $-1 $277 $286 $112 $189 forward $270 $-1 #
edge $-1 $287 -17.811757935009283 $193 -8.6378809463666837 $188 $288 forward 7 unknown #
coedge $-1 $289 $279 $113 $191 forward $180 $-1 #
edge $-1 $192 8.6378809463666837 $290 17.811757935009283 $190 $291 forward 7 unknown #
vertex $-1 $191 $292 #
vertex $-1 $189 $293 #
straight-curve $-1 -29.74704244479851 -21.862700387054666 0 0 0 -1 I I #
face $-1 $-1 $207 $26 $-1 $294 forward single #
loop $-1 $-1 $295 $116 #
plane-surface $-1 -50.036927396465956 0 0 1 0 0 0 0 -1 forward_v I I I I #
coedge $-1 $296 $297 $298 $299 reversed $117 $-1 #
coedge $-1 $300 $119 $121 $205 forward $73 $-1 #
coedge $-1 $119 $300 $296 $301 forward $73 $-1 #
coedge $-1 $298 $122 $119 $202 forward $207 $-1 #
edge $-1 $209 -11.247774778092412 $302 -1.4455873651536262 $201 $303 forward 7 unknown #
coedge $-1 $304 $305 $120 $204 forward $196 $-1 #
edge $-1 $306 -37.390344252720709 $208 -33.69526707481473 $203 $307 forward 7 unknown #
edge $-1 $209 -6.6078755773686968 $306 0 $121 $308 forward 7 unknown #
coedge $-1 $122 $298 $304 $309 forward $207 $-1 #
loop $-1 $-1 $298 $195 #
vertex $-1 $204 $310 #
vertex $-1 $123 $311 #
straight-curve $-1 -52.998758773468708 -17.59445584971543 11.879373835651187 1 0 0 I I #
coedge $-1 $211 $211 $-1 $312 reversed $126 $-1 #
edge $-1 $313 0 $313 6.2831853071796004 $127 $314 forward 7 unknown #
vertex $-1 $130 $315 #
ellipse-curve $-1 -47.297838848458426 -12.693362143246038 10.031835246698195 -0.55919291073839883 0 0.82903756765294845 1.2435563514794228 0 0.83878936610759824 1 I I #
face $-1 $-1 $316 $28 $-1 $317 reversed single #
loop $-1 $-1 $137 $131 #
plane-surface $-1 0 0 11.879373835651187 0 0 1 1 0 0 forward_v I I I I #
coedge $-1 $318 $319 $320 $321 reversed $132 $-1 #
coedge $-1 $322 $134 $136 $225 forward $82 $-1 #
coedge $-1 $134 $322 $318 $323 forward $82 $-1 #
coedge $-1 $320 $137 $134 $222 forward $216 $-1 #
edge $-1 $228 -3.7909423732350067 $324 9.8423487159430625 $221 $325 forward 7 unknown #
coedge $-1 $326 $327 $135 $224 forward $316 $-1 #
edge $-1 $328 -70.069634996661705 $227 -58.199474659665022 $223 $329 forward 7 unknown #
edge $-1 $228 80.349920145120151 $328 100.07385479293191 $136 $330 forward 7 unknown #
coedge $-1 $137 $320 $326 $331 forward $216 $-1 #
vertex $-1 $224 $332 #
vertex $-1 $138 $333 #
straight-curve $-1 15.170171953818112 0.76523920188097883 11.87937383565118 -1 0 0 I I #
coedge $-1 $230 $230 $-1 $334 reversed $141 $-1 #
edge $-1 $335 0 $335 6.2831853071796004 $142 $336 forward 7 unknown #
vertex $-1 $145 $337 #
ellipse-curve $-1 42.160810149288579 -10.141393669461479 5.944293667152837 0.6018150307709319 0 0.79863550430605224 0.79863550430605224 0 -0.6018150307709319 1 I I #
coedge $-1 $234 $234 $-1 $338 reversed $148 $-1 #
edge $-1 $339 0 $339 6.2831853071796004 $149 $340 forward 7 unknown #
vertex $-1 $152 $341 #
ellipse-curve $-1 42.160810149288579 -6.0514063427080558 5.944293667152837 0.6018150307709319 0 0.79863550430605224 0.79863550430605224 0 -0.6018150307709319 1 I I #
coedge $-1 $238 $238 $-1 $342 reversed $155 $-1 #
edge $-1 $343 0 $343 6.2831853071796004 $156 $344 forward 7 unknown #
vertex $-1 $159 $345 #
ellipse-curve $-1 42.160810149288579 -1.9614190159546325 5.944293667152837 0.6018150307709319 0 0.79863550430605224 0.79863550430605224 0 -0.6018150307709319 1 I I #
face $-1 $-1 $175 $24 $-1 $346 reversed single #
loop $-1 $-1 $258 $160 #
plane-surface $-1 0 31.036577375697263 0 0 -1 0 0 0 -1 forward_v I I I I #
coedge $-1 $347 $256 $259 $348 forward $161 $-1 #
coedge $-1 $262 $163 $164 $250 reversed $101 $-1 #
coedge $-1 $256 $347 $163 $248 reversed $161 $-1 #
edge $-1 $263 -11.879373835651187 $349 11.879373835651187 $247 $350 forward 7 unknown #
coedge $-1 $165 $164 $347 $351 forward $65 $-1 #
edge $-1 $254 -50.036927396465956 $349 50.036927396465956 $246 $352 forward 7 unknown #
coedge $-1 $259 $258 $165 $252 reversed $243 $-1 #
edge $-1 $353 -50.036927396465956 $253 50.036927396465956 $251 $354 forward 7 unknown #
vertex $-1 $167 $355 #
vertex $-1 $265 $356 #
straight-curve $-1 50.036927396465956 0 -11.879373835651187 0 -1 0 I I #
coedge $-1 $245 $247 $168 $257 reversed $161 $-1 #
edge $-1 $260 -31.036577375697263 $263 31.036577375697263 $256 $357 forward 7 unknown #
coedge $-1 $251 $169 $174 $266 forward $243 $-1 #
coedge $-1 $169 $251 $245 $348 reversed $243 $-1 #
vertex $-1 $170 $358 #
straight-curve $-1 0 31.036577375697263 11.879373835651187 -1 0 0 I I #
coedge $-1 $171 $246 $173 $265 reversed $101 $-1 #
vertex $-1 $257 $359 #
straight-curve $-1 0 -31.036577375697263 11.879373835651187 1 0 0 I I #
edge $-1 $176 -11.879373835651187 $254 11.879373835651187 $173 $360 forward 7 unknown #
edge $-1 $177 -11.879373835651187 $253 11.879373835651187 $174 $361 forward 7 unknown #
point $-1 50.036927396465956 -31.036577375697263 11.879373835651187 #
point $-1 50.036927396465956 31.036577375697263 11.879373835651187 #
face $-1 $-1 $362 $25 $-1 $363 reversed single #
loop $-1 $-1 $364 $179 #
plane-surface $-1 0 0 -11.879373835651187 0 0 1 1 0 0 forward_v I I I I #
coedge $-1 $279 $289 $274 $365 forward $180 $-1 #
coedge $-1 $185 $182 $364 $366 reversed $109 $-1 #
coedge $-1 $182 $185 $272 $365 reversed $109 $-1 #
coedge $-1 $367 $368 $182 $276 forward $362 $-1 #
edge $-1 $369 -11.879373835651187 $370 11.879373835651187 $275 $371 forward 7 unknown #
coedge $-1 $364 $188 $183 $278 forward $270 $-1 #
edge $-1 $193 -15.740736902307987 $282 -12.271874182673059 $277 $372 forward 7 unknown #
coedge $-1 $190 $272 $184 $280 forward $180 $-1 #
edge $-1 $281 12.271874182673059 $192 15.740736902307987 $279 $373 forward 7 unknown #
vertex $-1 $280 $374 #
vertex $-1 $278 $375 #
straight-curve $-1 -26.278179725163582 -21.862700387054666 0 0 0 -1 I I #
coedge $-1 $368 $367 $187 $285 forward $362 $-1 #
edge $-1 $290 -11.879373835651187 $287 11.879373835651187 $284 $376 forward 7 unknown #
coedge $-1 $188 $364 $368 $377 forward $270 $-1 #
vertex $-1 $189 $378 #
straight-curve $-1 -29.74704244479851 -13.224819440687982 -11.879373835651187 0 1 0 I I #
coedge $-1 $272 $190 $367 $379 forward $180 $-1 #
vertex $-1 $379 $380 #
straight-curve $-1 -29.74704244479851 -13.224819440687982 11.879373835651187 0 -1 0 I I #
point $-1 -29.74704244479851 -21.862700387054666 11.879373835651187 #
point $-1 -29.74704244479851 -21.862700387054666 -11.879373835651187 #
plane-surface $-1 0 0 11.879373835651187 0 0 1 1 0 0 forward_v I I I I #
coedge $-1 $305 $304 $297 $381 forward $196 $-1 #
coedge $-1 $297 $198 $200 $301 reversed $117 $-1 #
coedge $-1 $198 $296 $295 $381 reversed $117 $-1 #
coedge $-1 $206 $201 $198 $299 forward $207 $-1 #
edge $-1 $302 -8.4400084730178193 $382 -2.9618313770027527 $298 $383 forward 7 unknown #
coedge $-1 $200 $199 $305 $384 reversed $73 $-1 #
edge $-1 $385 0 $302 6.6078755773686968 $296 $386 forward 7 unknown #
vertex $-1 $202 $387 #
straight-curve $-1 -44.558750300450889 -6.3466810716230189 11.879373835651187 0 1 0 I I #
coedge $-1 $295 $203 $206 $309 reversed $196 $-1 #
coedge $-1 $203 $295 $300 $384 forward $196 $-1 #
vertex $-1 $204 $388 #
straight-curve $-1 -50.036927396465956 -17.59445584971543 45.574640910465916 0 0 1 I I #
straight-curve $-1 -50.036927396465956 -17.59445584971543 8.1842966577452074 -0.82903756765294845 0 -0.55919291073839883 I I #
edge $-1 $382 7.792268436776645 $208 17.59445584971543 $304 $389 forward 7 unknown #
point $-1 -50.036927396465956 -17.59445584971543 11.879373835651187 #
point $-1 -44.558750300450889 -17.59445584971543 11.879373835651187 #
edge $-1 $390 1 $390 0 $211 $-1 forward 7 unknown #
vertex $-1 $212 $391 #
ellipse-curve $-1 -44.238345228095014 -12.693362143246038 5.4959495075057898 -0.55919291073839883 0 0.82903756765294845 1.2435563514794228 0 0.83878936610759824 1 I I #
point $-1 -46.054282496978999 -12.693362143246038 10.870624612805797 #
loop $-1 $-1 $223 $215 #
plane-surface $-1 50.036927396465956 0 0 -1 0 0 0 0 1 forward_v I I I I #
coedge $-1 $319 $218 $220 $323 reversed $132 $-1 #
coedge $-1 $218 $318 $392 $393 reversed $132 $-1 #
coedge $-1 $226 $221 $218 $321 forward $216 $-1 #
edge $-1 $324 19.114520948293077 $394 34.866755442647843 $320 $395 forward 7 unknown #
coedge $-1 $220 $219 $327 $396 reversed $82 $-1 #
edge $-1 $397 -100.07385479293191 $324 -80.349920145120151 $318 $398 forward 7 unknown #
vertex $-1 $222 $399 #
straight-curve $-1 34.284692902111203 -3.0257031713540279 11.879373835651187 0 -1 0 I I #
coedge $-1 $392 $223 $226 $331 reversed $316 $-1 #
coedge $-1 $223 $392 $322 $396 forward $316 $-1 #
vertex $-1 $224 $400 #
straight-curve $-1 50.036927396465956 0.76523920188097883 70.078848495316208 0 0 1 I I #
straight-curve $-1 -29.885606093937866 0.76523920188097883 60.235163500228595 0.79863550430605224 0 -0.6018150307709319 I I #
edge $-1 $394 -12.86805188729709 $227 0.76523920188097883 $326 $401 forward 7 unknown #
point $-1 50.036927396465956 0.76523920188097883 11.879373835651187 #
point $-1 34.284692902111189 0.76523920188097883 11.879373835651187 #
edge $-1 $402 1 $402 0 $230 $-1 forward 7 unknown #
vertex $-1 $231 $403 #
ellipse-curve $-1 39.862261326205875 -10.141393669461479 2.89401641478314 0.6018150307709319 0 0.79863550430605224 0.79863550430605224 0 -0.6018150307709319 1 I I #
point $-1 42.959445653594642 -10.141393669461479 5.3424786363819141 #
edge $-1 $404 1 $404 0 $234 $-1 forward 7 unknown #
vertex $-1 $235 $405 #
ellipse-curve $-1 39.862261326205875 -6.0514063427080558 2.89401641478314 0.6018150307709319 0 0.79863550430605224 0.79863550430605224 0 -0.6018150307709319 1 I I #
point $-1 42.959445653594642 -6.0514063427080558 5.3424786363819141 #
edge $-1 $406 1 $406 0 $238 $-1 forward 7 unknown #
vertex $-1 $239 $407 #
ellipse-curve $-1 39.862261326205875 -1.9614190159546325 2.89401641478314 0.6018150307709319 0 0.79863550430605224 0.79863550430605224 0 -0.6018150307709319 1 I I #
point $-1 42.959445653594642 -1.9614190159546325 5.3424786363819141 #
plane-surface $-1 50.036927396465956 0 0 -1 0 0 0 0 1 forward_v I I I I #
coedge $-1 $247 $245 $249 $351 reversed $161 $-1 #
edge $-1 $260 -11.879373835651187 $353 11.879373835651187 $259 $408 forward 7 unknown #
vertex $-1 $351 $409 #
straight-curve $-1 -50.036927396465956 -31.036577375697263 0 0 0 -1 I I #
edge $-1 $349 -31.036577375697263 $353 31.036577375697263 $347 $410 forward 7 unknown #
straight-curve $-1 0 -31.036577375697263 -11.879373835651187 -1 0 0 I I #
vertex $-1 $252 $411 #
straight-curve $-1 0 31.036577375697263 -11.879373835651187 1 0 0 I I #
point $-1 50.036927396465956 31.036577375697263 -11.879373835651187 #
point $-1 50.036927396465956 -31.036577375697263 -11.879373835651187 #
straight-curve $-1 -50.036927396465956 0 11.879373835651187 0 -1 0 I I #
point $-1 -50.036927396465956 31.036577375697263 11.879373835651187 #
point $-1 -50.036927396465956 -31.036577375697263 11.879373835651187 #
straight-curve $-1 50.036927396465956 -31.036577375697263 0 0 0 -1 I I #
straight-curve $-1 50.036927396465956 31.036577375697263 0 0 0 -1 I I #
loop $-1 $-1 $275 $269 #
plane-surface $-1 0 -31.036577375697263 0 0 1 0 0 0 1 forward_v I I I I #
coedge $-1 $286 $277 $273 $366 forward $270 $-1 #
edge $-1 $370 -17.811757935009283 $281 -8.6378809463666837 $272 $412 forward 7 unknown #
edge $-1 $282 8.6378809463666837 $369 17.811757935009283 $364 $413 forward 7 unknown #
coedge $-1 $284 $275 $289 $379 reversed $362 $-1 #
coedge $-1 $275 $284 $286 $377 reversed $362 $-1 #
vertex $-1 $377 $414 #
vertex $-1 $276 $415 #
straight-curve $-1 -26.278179725163582 -31.036577375697263 0 0 0 1 I I #
straight-curve $-1 -14.006305542490523 -21.862700387054666 -11.879373835651187 1 0 0 I I #
straight-curve $-1 -14.006305542490523 -21.862700387054666 11.879373835651187 -1 0 0 I I #
point $-1 -26.278179725163582 -21.862700387054666 11.879373835651187 #
point $-1 -26.278179725163582 -21.862700387054666 -11.879373835651187 #
straight-curve $-1 -29.74704244479851 -31.036577375697263 0 0 0 -1 I I #
edge $-1 $369 26.278179725163582 $287 29.74704244479851 $368 $416 forward 7 unknown #
point $-1 -29.74704244479851 -31.036577375697263 -11.879373835651187 #
edge $-1 $290 -29.74704244479851 $370 -26.278179725163582 $367 $417 forward 7 unknown #
point $-1 -29.74704244479851 -31.036577375697263 11.879373835651187 #
edge $-1 $382 33.69526707481473 $385 37.390344252720709 $295 $418 forward 7 unknown #
vertex $-1 $309 $419 #
straight-curve $-1 -52.998758773468708 -7.792268436776645 11.879373835651187 -1 0 0 I I #
edge $-1 $385 1.4455873651536262 $306 11.247774778092412 $305 $420 forward 7 unknown #
vertex $-1 $384 $421 #
straight-curve $-1 -50.036927396465956 -7.792268436776645 8.1842966577452074 0.82903756765294845 0 0.55919291073839883 I I #
point $-1 -44.558750300450889 -7.792268436776645 11.879373835651187 #
point $-1 -50.036927396465956 -17.59445584971543 8.1842966577452074 #
straight-curve $-1 -50.036927396465956 0 11.879373835651187 0 -1 0 I I #
vertex $-1 $312 $422 #
point $-1 -42.994788876615587 -12.693362143246038 6.3347388736133876 #
coedge $-1 $327 $326 $319 $393 forward $316 $-1 #
edge $-1 $394 58.199474659665022 $397 70.069634996661705 $392 $423 forward 7 unknown #
vertex $-1 $331 $424 #
straight-curve $-1 15.170171953818112 -12.86805188729709 11.87937383565118 1 0 0 I I #
edge $-1 $397 -9.8423487159430625 $328 3.7909423732350067 $327 $425 forward 7 unknown #
vertex $-1 $396 $426 #
straight-curve $-1 -29.885606093937866 -12.86805188729709 60.235163500228595 -0.79863550430605224 0 0.6018150307709319 I I #
point $-1 34.284692902111189 -12.86805188729709 11.879373835651187 #
point $-1 50.036927396465956 0.76523920188097883 0.0092134986545033826 #
straight-curve $-1 50.036927396465956 0 11.879373835651187 0 1 0 I I #
vertex $-1 $334 $427 #
point $-1 40.660896830511923 -10.141393669461479 2.2922013840122082 #
vertex $-1 $338 $428 #
point $-1 40.660896830511923 -6.0514063427080558 2.2922013840122082 #
vertex $-1 $342 $429 #
point $-1 40.660896830511923 -1.9614190159546325 2.2922013840122082 #
straight-curve $-1 -50.036927396465956 31.036577375697263 0 0 0 -1 I I #
point $-1 -50.036927396465956 -31.036577375697263 -11.879373835651187 #
straight-curve $-1 -50.036927396465956 0 -11.879373835651187 0 1 0 I I #
point $-1 -50.036927396465956 31.036577375697263 -11.879373835651187 #
straight-curve $-1 -26.278179725163582 -13.224819440687982 11.879373835651187 0 1 0 I I #
straight-curve $-1 -26.278179725163582 -13.224819440687982 -11.879373835651187 0 -1 0 I I #
point $-1 -26.278179725163582 -31.036577375697263 -11.879373835651187 #
point $-1 -26.278179725163582 -31.036577375697263 11.879373835651187 #
straight-curve $-1 0 -31.036577375697263 -11.879373835651187 -1 0 0 I I #
straight-curve $-1 0 -31.036577375697263 11.879373835651187 1 0 0 I I #
straight-curve $-1 -50.036927396465956 -7.792268436776645 45.574640910465916 0 0 -1 I I #
point $-1 -50.036927396465956 -7.792268436776645 11.879373835651187 #
straight-curve $-1 -50.036927396465956 -6.3466810716230189 8.1842966577452074 0 -1 0 I I #
point $-1 -50.036927396465956 -7.792268436776645 8.1842966577452074 #
point $-1 -43.399555861987409 -12.693362143246038 4.2523931560263666 #
straight-curve $-1 50.036927396465956 -12.86805188729709 70.078848495316208 0 0 -1 I I #
point $-1 50.036927396465956 -12.86805188729709 11.879373835651187 #
straight-curve $-1 50.036927396465948 -3.0257031713540279 0.009213498654510488 0 1 0 I I #
point $-1 50.036927396465956 -12.86805188729709 0.0092134986545033826 #
point $-1 39.260446295434939 -10.141393669461479 2.095380910477088 #
point $-1 39.260446295434939 -6.0514063427080558 2.095380910477088 #
point $-1 39.260446295434939 -1.9614190159546325 2.095380910477088 #
End-of-ACIS-data 