500 0 15 0           
7 Unknown 11 ACIS 5.0 NT 24 Thu Mar 25 15:47:12 1999 
-1 9.9999999999999995e-007 1e-010 
body $-1 $15 $-1 $16 #
body $-1 $17 $-1 $18 #
body $-1 $19 $-1 $20 #
body $-1 $21 $-1 $22 #
body $-1 $23 $-1 $24 #
body $-1 $25 $-1 $26 #
body $-1 $27 $-1 $28 #
body $-1 $29 $-1 $30 #
body $-1 $31 $-1 $32 #
body $-1 $33 $-1 $34 #
body $-1 $35 $-1 $36 #
body $-1 $37 $-1 $38 #
body $-1 $39 $-1 $40 #
body $-1 $41 $-1 $42 #
body $-1 $43 $-1 $44 #
lump $-1 $-1 $45 $0 #
transform $-1 1 0 0 0 1 0 0 0 1 44.360484633930476 20.741136046453196 7.6970142551244107 1 rotate no_reflect no_shear #
lump $-1 $-1 $46 $1 #
transform $-1 1 0 0 0 1 0 0 0 1 44.360484633930476 20.741136046453196 7.6970142551244107 1 rotate no_reflect no_shear #
lump $-1 $-1 $47 $2 #
transform $-1 1 0 0 0 1 0 0 0 1 44.360484633930476 20.741136046453196 7.6970142551244107 1 rotate no_reflect no_shear #
lump $-1 $-1 $48 $3 #
transform $-1 1 0 0 0 1 0 0 0 1 44.360484633930476 20.741136046453196 7.6970142551244107 1 rotate no_reflect no_shear #
lump $-1 $-1 $49 $4 #
transform $-1 1 0 0 0 1 0 0 0 1 44.360484633930476 20.741136046453196 7.6970142551244107 1 rotate no_reflect no_shear #
lump $-1 $-1 $50 $5 #
transform $-1 1 0 0 0 1 0 0 0 1 44.360484633930476 20.741136046453196 7.6970142551244107 1 rotate no_reflect no_shear #
lump $-1 $-1 $51 $6 #
transform $-1 1 0 0 0 1 0 0 0 1 44.360484633930476 20.741136046453196 7.6970142551244107 1 rotate no_reflect no_shear #
lump $-1 $-1 $52 $7 #
transform $-1 1 0 0 0 1 0 0 0 1 44.360484633930476 20.741136046453196 7.6970142551244107 1 rotate no_reflect no_shear #
lump $-1 $-1 $53 $8 #
transform $-1 1 0 0 0 1 0 0 0 1 44.360484633930476 20.741136046453196 7.6970142551244107 1 rotate no_reflect no_shear #
lump $-1 $-1 $54 $9 #
transform $-1 1 0 0 0 1 0 0 0 1 44.360484633930476 20.741136046453196 7.6970142551244107 1 rotate no_reflect no_shear #
lump $-1 $-1 $55 $10 #
transform $-1 1 0 0 0 1 0 0 0 1 44.360484633930476 20.741136046453196 7.6970142551244107 1 rotate no_reflect no_shear #
lump $-1 $-1 $56 $11 #
transform $-1 1 0 0 0 1 0 0 0 1 44.360484633930476 20.741136046453196 7.6970142551244107 1 rotate no_reflect no_shear #
lump $-1 $-1 $57 $12 #
transform $-1 1 0 0 0 1 0 0 0 1 44.360484633930476 20.741136046453196 7.6970142551244107 1 rotate no_reflect no_shear #
lump $-1 $-1 $58 $13 #
transform $-1 1 0 0 0 1 0 0 0 1 44.360484633930476 20.741136046453196 7.6970142551244107 1 rotate no_reflect no_shear #
lump $-1 $-1 $59 $14 #
transform $-1 1 0 0 0 1 0 0 0 1 44.360484633930476 20.741136046453196 7.6970142551244107 1 rotate no_reflect no_shear #
shell $-1 $-1 $-1 $60 $-1 $15 #
shell $-1 $-1 $-1 $61 $-1 $17 #
shell $-1 $-1 $-1 $62 $-1 $19 #
shell $-1 $-1 $-1 $63 $-1 $21 #
shell $-1 $-1 $-1 $64 $-1 $23 #
shell $-1 $-1 $-1 $65 $-1 $25 #
shell $-1 $-1 $-1 $66 $-1 $27 #
shell $-1 $-1 $-1 $67 $-1 $29 #
shell $-1 $-1 $-1 $68 $-1 $31 #
shell $-1 $-1 $-1 $69 $-1 $33 #
shell $-1 $-1 $-1 $70 $-1 $35 #
shell $-1 $-1 $-1 $71 $-1 $37 #
shell $-1 $-1 $-1 $72 $-1 $39 #
shell $-1 $-1 $-1 $73 $-1 $41 #
shell $-1 $-1 $-1 $74 $-1 $43 #
face $-1 $75 $76 $45 $-1 $77 forward single #
face $-1 $78 $79 $46 $-1 $80 forward single #
face $-1 $81 $82 $47 $-1 $83 forward single #
face $-1 $84 $85 $48 $-1 $86 reversed single #
face $-1 $87 $88 $49 $-1 $89 forward single #
face $-1 $90 $91 $50 $-1 $92 forward single #
face $-1 $93 $94 $51 $-1 $95 reversed single #
face $-1 $96 $97 $52 $-1 $98 forward single #
face $-1 $99 $100 $53 $-1 $101 forward single #
face $-1 $102 $103 $54 $-1 $104 reversed single #
face $-1 $105 $106 $55 $-1 $107 forward single #
face $-1 $108 $109 $56 $-1 $110 forward single #
face $-1 $111 $112 $57 $-1 $113 reversed single #
face $-1 $114 $115 $58 $-1 $116 forward single #
face $-1 $117 $118 $59 $-1 $119 forward single #
face $-1 $120 $121 $45 $-1 $122 reversed single #
loop $-1 $-1 $123 $60 #
plane-surface $-1 0 0 7.6970142551244107 0 0 1 1 0 0 forward_v I I I I #
face $-1 $124 $125 $46 $-1 $126 reversed single #
loop $-1 $-1 $127 $61 #
plane-surface $-1 0 -17.224711380593678 -2.6832257548477694 0 0 1 1 0 0 forward_v I I I I #
face $-1 $128 $129 $47 $-1 $130 reversed single #
loop $-1 $-1 $131 $62 #
plane-surface $-1 0 17.224711380593678 -2.6832257548477694 0 0 1 1 0 0 forward_v I I I I #
face $-1 $132 $133 $48 $-1 $134 reversed single #
loop $-1 $-1 $135 $63 #
plane-surface $-1 66.148192350980651 -12.008757445675331 125.21384473898264 0 1 0 0.81915205242281985 0 0.57357642473473569 forward_v I I I I #
face $-1 $136 $137 $49 $-1 $138 forward single #
loop $-1 $139 $140 $64 #
cone-surface $-1 41.769446461438598 -10.313198661552821 4.341544001788602 -0.81915205242281985 0 -0.57357642473473569 0.28678821236736785 0 -0.40957602621140993 1 I I 0 1 0.5 forward I I I I #
face $-1 $141 $142 $50 $-1 $143 forward single #
loop $-1 $144 $145 $65 #
cone-surface $-1 41.769446461438598 -7.7698604853690565 4.341544001788602 -0.81915205242281985 0 -0.57357642473473569 0.28678821236736785 0 -0.40957602621140993 1 I I 0 1 0.5 forward I I I I #
face $-1 $146 $147 $51 $-1 $148 reversed single #
loop $-1 $-1 $149 $66 #
plane-surface $-1 66.148192350980651 -2.8698996358525566 125.21384473898264 0 1 0 0.81915205242281985 0 0.57357642473473569 forward_v I I I I #
face $-1 $150 $151 $52 $-1 $152 forward single #
loop $-1 $153 $154 $67 #
cone-surface $-1 41.769446461438598 -1.1743408517300473 4.341544001788602 -0.81915205242281985 0 -0.57357642473473569 0.28678821236736785 0 -0.40957602621140993 1 I I 0 1 0.5 forward I I I I #
face $-1 $155 $156 $53 $-1 $157 forward single #
loop $-1 $158 $159 $68 #
cone-surface $-1 41.769446461438598 1.3689973244537157 4.341544001788602 -0.81915205242281985 0 -0.57357642473473569 0.28678821236736785 0 -0.40957602621140993 1 I I 0 1 0.5 forward I I I I #
face $-1 $160 $161 $54 $-1 $162 reversed single #
loop $-1 $-1 $163 $69 #
plane-surface $-1 66.148192350980651 6.2689581739702174 125.21384473898264 0 1 0 0.81915205242281985 0 0.57357642473473569 forward_v I I I I #
face $-1 $164 $165 $55 $-1 $166 forward single #
loop $-1 $167 $168 $70 #
cone-surface $-1 41.769446461438598 7.9645169580927266 4.341544001788602 -0.81915205242281985 0 -0.57357642473473569 0.28678821236736785 0 -0.40957602621140993 1 I I 0 1 0.5 forward I I I I #
face $-1 $169 $170 $56 $-1 $171 forward single #
loop $-1 $172 $173 $71 #
cone-surface $-1 41.769446461438598 10.507855134276486 4.341544001788602 -0.81915205242281985 0 -0.57357642473473569 0.28678821236736785 0 -0.40957602621140993 1 I I 0 1 0.5 forward I I I I #
face $-1 $174 $175 $57 $-1 $176 reversed single #
loop $-1 $-1 $177 $72 #
plane-surface $-1 -101.38922509963237 3.2309783045463387 70.904658822083306 0 -1 0 0.64278761758704617 0 -0.76604443648966558 forward_v I I I I #
face $-1 $178 $179 $58 $-1 $180 forward single #
loop $-1 $181 $182 $73 #
cone-surface $-1 -40.900895952312474 -1.1492179188356637 4.5735725241539296 0.64278761758704617 0 -0.76604443648966558 0.38302221824483279 0 0.32139380879352308 1 I I 0 1 0.5 forward I I I I #
face $-1 $183 $184 $59 $-1 $185 forward single #
loop $-1 $186 $187 $74 #
cone-surface $-1 -40.900895952312474 1.478899815193536 4.5735725241539296 0.64278761758704617 0 -0.76604443648966558 0.38302221824483279 0 0.32139380879352308 1 I I 0 1 0.5 forward I I I I #
face $-1 $188 $189 $45 $-1 $190 reversed single #
loop $-1 $-1 $191 $75 #
plane-surface $-1 0 0 -7.6970142551244107 0 0 1 1 0 0 forward_v I I I I #
coedge $-1 $192 $193 $194 $195 forward $76 $-1 #
face $-1 $196 $197 $46 $-1 $198 reversed single #
loop $-1 $-1 $199 $78 #
plane-surface $-1 0 -17.224711380593678 -5.6832257548477694 0 0 1 1 0 0 forward_v I I I I #
coedge $-1 $200 $201 $202 $203 reversed $79 $-1 #
face $-1 $204 $205 $47 $-1 $206 reversed single #
loop $-1 $-1 $207 $81 #
plane-surface $-1 0 17.224711380593678 -5.6832257548477694 0 0 1 1 0 0 forward_v I I I I #
coedge $-1 $208 $209 $210 $211 reversed $82 $-1 #
face $-1 $212 $213 $48 $-1 $214 reversed single #
loop $-1 $-1 $215 $84 #
plane-surface $-1 -6.5277717177295784 -9.041529573460938 74.325588387322597 0.81915205242281985 0 0.57357642473473569 0.57357642473473569 0 -0.81915205242281985 forward_v I I I I #
coedge $-1 $216 $217 $218 $219 reversed $85 $-1 #
face $-1 $-1 $220 $49 $-1 $221 forward single #
loop $-1 $222 $223 $87 #
cone-surface $-1 41.090834221958922 -10.313198661552821 3.866374610525118 -0.81915205242281985 0 -0.57357642473473569 0.14339410618368392 0 -0.20478801310570496 1 I I -0.70710678118654691 0.70710678118654813 0.25 forward I I I I #
loop $-1 $-1 $224 $64 #
coedge $-1 $140 $140 $225 $226 reversed $88 $-1 #
face $-1 $-1 $227 $50 $-1 $228 forward single #
loop $-1 $229 $230 $90 #
cone-surface $-1 41.090834221958922 -7.7698604853690565 3.866374610525118 -0.81915205242281985 0 -0.57357642473473569 0.14339410618368392 0 -0.20478801310570496 1 I I -0.70710678118654691 0.70710678118654813 0.25 forward I I I I #
loop $-1 $-1 $231 $65 #
coedge $-1 $145 $145 $232 $233 reversed $91 $-1 #
face $-1 $234 $235 $51 $-1 $236 reversed single #
loop $-1 $-1 $237 $93 #
plane-surface $-1 -6.5277717177295784 0.097328236361835962 74.325588387322597 0.81915205242281985 0 0.57357642473473569 0.57357642473473569 0 -0.81915205242281985 forward_v I I I I #
coedge $-1 $238 $239 $240 $241 reversed $94 $-1 #
face $-1 $-1 $242 $52 $-1 $243 forward single #
loop $-1 $244 $245 $96 #
cone-surface $-1 41.090834221958922 -1.1743408517300473 3.866374610525118 -0.81915205242281985 0 -0.57357642473473569 0.14339410618368392 0 -0.20478801310570496 1 I I -0.70710678118654691 0.70710678118654813 0.25 forward I I I I #
loop $-1 $-1 $246 $67 #
coedge $-1 $154 $154 $247 $248 reversed $97 $-1 #
face $-1 $-1 $249 $53 $-1 $250 forward single #
loop $-1 $251 $252 $99 #
cone-surface $-1 41.090834221958922 1.3689973244537157 3.866374610525118 -0.81915205242281985 0 -0.57357642473473569 0.14339410618368392 0 -0.20478801310570496 1 I I -0.70710678118654691 0.70710678118654813 0.25 forward I I I I #
loop $-1 $-1 $253 $68 #
coedge $-1 $159 $159 $254 $255 reversed $100 $-1 #
face $-1 $256 $257 $54 $-1 $258 reversed single #
loop $-1 $-1 $259 $102 #
plane-surface $-1 -6.5277717177295784 9.2361860461846099 74.325588387322597 0.81915205242281985 0 0.57357642473473569 0.57357642473473569 0 -0.81915205242281985 forward_v I I I I #
coedge $-1 $260 $261 $262 $263 reversed $103 $-1 #
face $-1 $-1 $264 $55 $-1 $265 forward single #
loop $-1 $266 $267 $105 #
cone-surface $-1 41.090834221958922 7.9645169580927266 3.866374610525118 -0.81915205242281985 0 -0.57357642473473569 0.14339410618368392 0 -0.20478801310570496 1 I I -0.70710678118654691 0.70710678118654813 0.25 forward I I I I #
loop $-1 $-1 $268 $70 #
coedge $-1 $168 $168 $269 $270 reversed $106 $-1 #
face $-1 $-1 $271 $56 $-1 $272 forward single #
loop $-1 $273 $274 $108 #
cone-surface $-1 41.090834221958922 10.507855134276486 3.866374610525118 -0.81915205242281985 0 -0.57357642473473569 0.14339410618368392 0 -0.20478801310570496 1 I I -0.70710678118654691 0.70710678118654813 0.25 forward I I I I #
loop $-1 $-1 $275 $71 #
coedge $-1 $173 $173 $276 $277 reversed $109 $-1 #
face $-1 $278 $279 $57 $-1 $280 reversed single #
loop $-1 $-1 $281 $111 #
plane-surface $-1 -44.36048463393049 0.16484094817893791 2.9404539144678239 -0.64278761758704617 0 0.76604443648966558 0.76604443648966558 0 0.64278761758704617 forward_v I I I I #
coedge $-1 $282 $283 $284 $285 reversed $112 $-1 #
face $-1 $-1 $286 $58 $-1 $287 forward single #
loop $-1 $288 $289 $114 #
cone-surface $-1 -40.114934244117222 -1.1492179188356637 3.6368998543893278 0.64278761758704617 0 -0.76604443648966558 0.1915111091224164 0 0.16069690439676154 1 I I -0.70710678118654746 0.70710678118654746 0.25 forward I I I I #
loop $-1 $-1 $290 $73 #
coedge $-1 $182 $182 $291 $292 reversed $115 $-1 #
face $-1 $-1 $293 $59 $-1 $294 forward single #
loop $-1 $295 $296 $117 #
cone-surface $-1 -40.114934244117222 1.478899815193536 3.6368998543893278 0.64278761758704617 0 -0.76604443648966558 0.1915111091224164 0 0.16069690439676154 1 I I -0.70710678118654746 0.70710678118654746 0.25 forward I I I I #
loop $-1 $-1 $297 $74 #
coedge $-1 $187 $187 $298 $299 reversed $118 $-1 #
face $-1 $300 $301 $45 $-1 $302 reversed single #
loop $-1 $-1 $303 $120 #
plane-surface $-1 0 -20.741136046453196 0 0 1 0 0 0 1 forward_v I I I I #
coedge $-1 $304 $305 $306 $307 forward $121 $-1 #
coedge $-1 $308 $123 $309 $310 forward $76 $-1 #
coedge $-1 $123 $308 $311 $312 forward $76 $-1 #
coedge $-1 $313 $314 $123 $195 reversed $315 $-1 #
edge $-1 $316 -20.741136046453196 $317 20.741136046453196 $194 $318 forward 7 unknown #
face $-1 $319 $320 $46 $-1 $321 reversed single #
loop $-1 $-1 $322 $124 #
plane-surface $-1 0 -13.708286714734159 -4.1832257548477694 0 -1 0 0 0 -1 forward_v I I I I #
coedge $-1 $323 $324 $325 $326 reversed $125 $-1 #
coedge $-1 $327 $127 $328 $329 forward $79 $-1 #
coedge $-1 $127 $327 $330 $331 reversed $79 $-1 #
coedge $-1 $332 $333 $127 $203 forward $334 $-1 #
edge $-1 $335 5.0959310244373199 $336 12.128780356156357 $202 $337 forward 7 unknown #
face $-1 $338 $339 $47 $-1 $340 reversed single #
loop $-1 $-1 $341 $128 #
plane-surface $-1 0 13.708286714734161 -4.1832257548477694 0 1 0 0 0 1 forward_v I I I I #
coedge $-1 $342 $343 $344 $345 reversed $129 $-1 #
coedge $-1 $346 $131 $347 $348 reversed $82 $-1 #
coedge $-1 $131 $346 $349 $350 forward $82 $-1 #
coedge $-1 $351 $352 $131 $211 forward $339 $-1 #
edge $-1 $353 -12.128780356156357 $354 -5.0959310244373217 $210 $355 forward 7 unknown #
face $-1 $356 $357 $48 $-1 $358 forward single #
loop $-1 $-1 $359 $132 #
plane-surface $-1 66.148192350980651 -6.0743017012465454 125.21384473898264 0 -1 0 -0.81915205242281985 0 -0.57357642473473569 forward_v I I I I #
coedge $-1 $360 $361 $362 $363 reversed $133 $-1 #
coedge $-1 $217 $135 $364 $365 reversed $85 $-1 #
coedge $-1 $135 $216 $360 $366 reversed $85 $-1 #
coedge $-1 $362 $367 $135 $219 forward $368 $-1 #
edge $-1 $369 54.909908114366914 $370 60.957298050878954 $218 $371 forward 7 unknown #
loop $-1 $-1 $225 $136 #
plane-surface $-1 -6.5277717177295784 -9.041529573460938 74.325588387322597 0.81915205242281985 0 0.57357642473473569 0.57357642473473569 0 -0.81915205242281985 forward_v I I I I #
loop $-1 $-1 $372 $87 #
coedge $-1 $223 $223 $224 $373 reversed $137 $-1 #
coedge $-1 $224 $224 $223 $373 forward $139 $-1 #
coedge $-1 $225 $225 $140 $226 forward $220 $-1 #
edge $-1 $374 0 $374 6.2831853071796004 $225 $375 forward 7 unknown #
loop $-1 $-1 $232 $141 #
plane-surface $-1 -6.5277717177295784 -9.041529573460938 74.325588387322597 0.81915205242281985 0 0.57357642473473569 0.57357642473473569 0 -0.81915205242281985 forward_v I I I I #
loop $-1 $-1 $376 $90 #
coedge $-1 $230 $230 $231 $377 reversed $142 $-1 #
coedge $-1 $231 $231 $230 $377 forward $144 $-1 #
coedge $-1 $232 $232 $145 $233 forward $227 $-1 #
edge $-1 $378 0 $378 6.2831853071796004 $232 $379 forward 7 unknown #
face $-1 $380 $381 $51 $-1 $382 reversed single #
loop $-1 $-1 $383 $146 #
plane-surface $-1 66.148192350980651 3.0645561085762285 125.21384473898264 0 -1 0 -0.81915205242281985 0 -0.57357642473473569 forward_v I I I I #
coedge $-1 $384 $385 $386 $387 reversed $147 $-1 #
coedge $-1 $239 $149 $388 $389 reversed $94 $-1 #
coedge $-1 $149 $238 $384 $390 reversed $94 $-1 #
coedge $-1 $386 $391 $149 $241 forward $381 $-1 #
edge $-1 $392 54.909908114366914 $393 60.957298050878954 $240 $394 forward 7 unknown #
loop $-1 $-1 $247 $150 #
plane-surface $-1 -6.5277717177295784 0.097328236361835962 74.325588387322597 0.81915205242281985 0 0.57357642473473569 0.57357642473473569 0 -0.81915205242281985 forward_v I I I I #
loop $-1 $-1 $395 $96 #
coedge $-1 $245 $245 $246 $396 reversed $151 $-1 #
coedge $-1 $246 $246 $245 $396 forward $153 $-1 #
coedge $-1 $247 $247 $154 $248 forward $242 $-1 #
edge $-1 $397 0 $397 6.2831853071796004 $247 $398 forward 7 unknown #
loop $-1 $-1 $254 $155 #
plane-surface $-1 -6.5277717177295784 0.097328236361835962 74.325588387322597 0.81915205242281985 0 0.57357642473473569 0.57357642473473569 0 -0.81915205242281985 forward_v I I I I #
loop $-1 $-1 $399 $99 #
coedge $-1 $252 $252 $253 $400 reversed $156 $-1 #
coedge $-1 $253 $253 $252 $400 forward $158 $-1 #
coedge $-1 $254 $254 $159 $255 forward $249 $-1 #
edge $-1 $401 0 $401 6.2831853071796004 $254 $402 forward 7 unknown #
face $-1 $403 $404 $54 $-1 $405 reversed single #
loop $-1 $-1 $406 $160 #
plane-surface $-1 66.148192350980651 12.203413918399002 125.21384473898264 0 -1 0 -0.81915205242281985 0 -0.57357642473473569 forward_v I I I I #
coedge $-1 $407 $408 $409 $410 reversed $161 $-1 #
coedge $-1 $261 $163 $411 $412 reversed $103 $-1 #
coedge $-1 $163 $260 $407 $413 reversed $103 $-1 #
coedge $-1 $409 $414 $163 $263 forward $404 $-1 #
edge $-1 $415 54.909908114366914 $416 60.957298050878954 $262 $417 forward 7 unknown #
loop $-1 $-1 $269 $164 #
plane-surface $-1 -6.5277717177295784 9.2361860461846099 74.325588387322597 0.81915205242281985 0 0.57357642473473569 0.57357642473473569 0 -0.81915205242281985 forward_v I I I I #
loop $-1 $-1 $418 $105 #
coedge $-1 $267 $267 $268 $419 reversed $165 $-1 #
coedge $-1 $268 $268 $267 $419 forward $167 $-1 #
coedge $-1 $269 $269 $168 $270 forward $264 $-1 #
edge $-1 $420 0 $420 6.2831853071796004 $269 $421 forward 7 unknown #
loop $-1 $-1 $276 $169 #
plane-surface $-1 -6.5277717177295784 9.2361860461846099 74.325588387322597 0.81915205242281985 0 0.57357642473473569 0.57357642473473569 0 -0.81915205242281985 forward_v I I I I #
loop $-1 $-1 $422 $108 #
coedge $-1 $274 $274 $275 $423 reversed $170 $-1 #
coedge $-1 $275 $275 $274 $423 forward $172 $-1 #
coedge $-1 $276 $276 $173 $277 forward $271 $-1 #
edge $-1 $424 0 $424 6.2831853071796004 $276 $425 forward 7 unknown #
face $-1 $426 $427 $57 $-1 $428 reversed single #
loop $-1 $-1 $429 $174 #
plane-surface $-1 -101.38922509963237 -2.9012964081884629 70.904658822083306 0 1 0 -0.64278761758704617 0 0.76604443648966558 forward_v I I I I #
coedge $-1 $430 $431 $432 $433 reversed $175 $-1 #
coedge $-1 $283 $177 $434 $435 reversed $112 $-1 #
coedge $-1 $177 $282 $430 $436 reversed $112 $-1 #
coedge $-1 $432 $437 $177 $285 forward $427 $-1 #
edge $-1 $438 27.755315155917241 $439 32.511875496573815 $284 $440 forward 7 unknown #
loop $-1 $-1 $291 $178 #
plane-surface $-1 -44.36048463393049 0.16484094817893791 2.9404539144678239 -0.64278761758704617 0 0.76604443648966558 0.76604443648966558 0 0.64278761758704617 forward_v I I I I #
loop $-1 $-1 $441 $114 #
coedge $-1 $289 $289 $290 $442 reversed $179 $-1 #
coedge $-1 $290 $290 $289 $442 forward $181 $-1 #
coedge $-1 $291 $291 $182 $292 forward $286 $-1 #
edge $-1 $443 0 $443 6.2831853071796004 $291 $444 forward 7 unknown #
loop $-1 $-1 $298 $183 #
plane-surface $-1 -44.36048463393049 0.16484094817893791 2.9404539144678239 -0.64278761758704617 0 0.76604443648966558 0.76604443648966558 0 0.64278761758704617 forward_v I I I I #
loop $-1 $-1 $445 $117 #
coedge $-1 $296 $296 $297 $446 reversed $184 $-1 #
coedge $-1 $297 $297 $296 $446 forward $186 $-1 #
coedge $-1 $298 $298 $187 $299 forward $293 $-1 #
edge $-1 $447 0 $447 6.2831853071796004 $298 $448 forward 7 unknown #
face $-1 $449 $450 $45 $-1 $451 reversed single #
loop $-1 $-1 $452 $188 #
plane-surface $-1 -44.360484633930476 0 0 1 0 0 0 0 -1 forward_v I I I I #
coedge $-1 $453 $311 $454 $455 forward $189 $-1 #
coedge $-1 $456 $191 $453 $457 forward $121 $-1 #
coedge $-1 $191 $456 $458 $459 forward $121 $-1 #
coedge $-1 $314 $313 $191 $307 reversed $315 $-1 #
edge $-1 $460 -20.741136046453196 $461 20.741136046453196 $306 $462 forward 7 unknown #
coedge $-1 $193 $192 $463 $464 forward $76 $-1 #
coedge $-1 $465 $466 $192 $310 reversed $450 $-1 #
edge $-1 $317 -44.360484633930476 $467 44.360484633930476 $309 $468 forward 7 unknown #
coedge $-1 $303 $469 $193 $312 reversed $189 $-1 #
edge $-1 $470 -44.360484633930476 $316 44.360484633930476 $311 $471 forward 7 unknown #
coedge $-1 $306 $194 $469 $472 forward $315 $-1 #
coedge $-1 $194 $306 $465 $473 reversed $315 $-1 #
loop $-1 $-1 $313 $449 #
vertex $-1 $195 $474 #
vertex $-1 $195 $475 #
straight-curve $-1 44.360484633930476 0 7.6970142551244107 0 1 0 I I #
face $-1 $476 $477 $46 $-1 $478 reversed single #
loop $-1 $-1 $479 $196 #
plane-surface $-1 -44.360484633930476 0 0 1 0 0 0 0 -1 forward_v I I I I #
coedge $-1 $480 $328 $333 $481 reversed $197 $-1 #
coedge $-1 $482 $199 $483 $484 reversed $125 $-1 #
coedge $-1 $199 $482 $480 $485 forward $125 $-1 #
coedge $-1 $333 $332 $199 $326 forward $334 $-1 #
edge $-1 $486 -12.128780356156357 $487 -5.0959310244373199 $325 $488 forward 7 unknown #
coedge $-1 $201 $200 $479 $489 reversed $79 $-1 #
coedge $-1 $322 $490 $200 $329 reversed $197 $-1 #
edge $-1 $335 -44.360484633930476 $491 44.360484633930476 $328 $492 forward 7 unknown #
coedge $-1 $493 $494 $201 $331 forward $477 $-1 #
edge $-1 $336 -44.360484633930476 $495 44.360484633930476 $330 $496 forward 7 unknown #
coedge $-1 $325 $202 $494 $497 forward $334 $-1 #
coedge $-1 $202 $325 $322 $481 forward $334 $-1 #
loop $-1 $-1 $202 $476 #
vertex $-1 $203 $498 #
vertex $-1 $497 $499 #
straight-curve $-1 44.360484633930476 -8.6123556902968392 -2.6832257548477694 0 -1 0 I I #
face $-1 $500 $501 $47 $-1 $502 reversed single #
loop $-1 $-1 $210 $204 #
plane-surface $-1 44.360484633930476 0 0 -1 0 0 0 0 1 forward_v I I I I #
coedge $-1 $503 $349 $504 $505 reversed $205 $-1 #
coedge $-1 $506 $207 $503 $507 forward $129 $-1 #
coedge $-1 $207 $506 $508 $509 reversed $129 $-1 #
coedge $-1 $352 $351 $207 $345 forward $339 $-1 #
edge $-1 $510 5.0959310244373217 $511 12.128780356156357 $344 $512 forward 7 unknown #
coedge $-1 $209 $208 $513 $514 reversed $82 $-1 #
coedge $-1 $515 $516 $208 $348 forward $517 $-1 #
edge $-1 $518 -44.360484633930476 $353 44.360484633930476 $347 $519 forward 7 unknown #
coedge $-1 $341 $520 $209 $350 reversed $205 $-1 #
edge $-1 $521 -44.360484633930476 $354 44.360484633930476 $349 $522 forward 7 unknown #
coedge $-1 $344 $210 $520 $523 forward $339 $-1 #
coedge $-1 $210 $344 $515 $524 reversed $339 $-1 #
vertex $-1 $524 $525 #
vertex $-1 $211 $526 #
straight-curve $-1 44.360484633930476 8.6123556902968392 -2.6832257548477694 0 -1 0 I I #
face $-1 $-1 $368 $48 $-1 $527 reversed single #
loop $-1 $-1 $528 $212 #
plane-surface $-1 0 0 7.6970142551244107 0 0 1 1 0 0 forward_v I I I I #
coedge $-1 $529 $530 $531 $532 reversed $213 $-1 #
coedge $-1 $533 $215 $217 $366 forward $133 $-1 #
coedge $-1 $215 $533 $529 $534 forward $133 $-1 #
coedge $-1 $531 $218 $215 $363 forward $368 $-1 #
edge $-1 $370 -7.4879926589448615 $535 -1.5535369145160765 $362 $536 forward 7 unknown #
coedge $-1 $537 $538 $216 $365 forward $357 $-1 #
edge $-1 $539 7.0519605662043361 $369 11.28638845844015 $364 $540 forward 7 unknown #
edge $-1 $370 -88.720969267860966 $539 -81.338469378340363 $217 $541 forward 7 unknown #
coedge $-1 $218 $531 $537 $542 reversed $368 $-1 #
loop $-1 $-1 $531 $356 #
vertex $-1 $542 $543 #
vertex $-1 $219 $544 #
straight-curve $-1 44.360484633930476 -12.008757445675331 62.606922369491322 0 0 -1 I I #
coedge $-1 $372 $372 $-1 $545 reversed $222 $-1 #
edge $-1 $546 0 $546 6.2831853071796004 $223 $547 forward 7 unknown #
vertex $-1 $226 $548 #
ellipse-curve $-1 42.243270687812561 -10.313198661552821 4.6733192868683968 0.81915205242281985 0 0.57357642473473569 0.28678821236736785 0 -0.40957602621140993 1 I I #
coedge $-1 $376 $376 $-1 $549 reversed $229 $-1 #
edge $-1 $550 0 $550 6.2831853071796004 $230 $551 forward 7 unknown #
vertex $-1 $233 $552 #
ellipse-curve $-1 42.243270687812561 -7.7698604853690565 4.6733192868683968 0.81915205242281985 0 0.57357642473473569 0.28678821236736785 0 -0.40957602621140993 1 I I #
face $-1 $-1 $553 $51 $-1 $554 forward single #
loop $-1 $-1 $240 $234 #
plane-surface $-1 44.360484633930476 0 0 -1 0 0 0 0 1 forward_v I I I I #
coedge $-1 $555 $556 $557 $558 reversed $235 $-1 #
coedge $-1 $559 $237 $239 $390 forward $147 $-1 #
coedge $-1 $237 $559 $555 $560 forward $147 $-1 #
coedge $-1 $557 $240 $237 $387 forward $381 $-1 #
edge $-1 $393 -2.9185637540334746 $561 3.0158919903953105 $386 $562 forward 7 unknown #
coedge $-1 $563 $564 $238 $389 forward $553 $-1 #
edge $-1 $565 7.0519605662043361 $392 11.28638845844015 $388 $566 forward 7 unknown #
edge $-1 $393 -88.720969267860966 $565 -81.338469378340363 $239 $567 forward 7 unknown #
coedge $-1 $240 $557 $563 $568 reversed $381 $-1 #
vertex $-1 $568 $569 #
vertex $-1 $241 $570 #
straight-curve $-1 44.360484633930476 -2.8698996358525566 62.606922369491322 0 0 -1 I I #
coedge $-1 $395 $395 $-1 $571 reversed $244 $-1 #
edge $-1 $572 0 $572 6.2831853071796004 $245 $573 forward 7 unknown #
vertex $-1 $248 $574 #
ellipse-curve $-1 42.243270687812561 -1.1743408517300473 4.6733192868683968 0.81915205242281985 0 0.57357642473473569 0.28678821236736785 0 -0.40957602621140993 1 I I #
coedge $-1 $399 $399 $-1 $575 reversed $251 $-1 #
edge $-1 $576 0 $576 6.2831853071796004 $252 $577 forward 7 unknown #
vertex $-1 $255 $578 #
ellipse-curve $-1 42.243270687812561 1.3689973244537157 4.6733192868683968 0.81915205242281985 0 0.57357642473473569 0.28678821236736785 0 -0.40957602621140993 1 I I #
face $-1 $-1 $579 $54 $-1 $580 forward single #
loop $-1 $-1 $262 $256 #
plane-surface $-1 44.360484633930476 0 0 -1 0 0 0 0 1 forward_v I I I I #
coedge $-1 $581 $582 $583 $584 reversed $257 $-1 #
coedge $-1 $585 $259 $261 $413 forward $161 $-1 #
coedge $-1 $259 $585 $581 $586 forward $161 $-1 #
coedge $-1 $583 $262 $259 $410 forward $404 $-1 #
edge $-1 $416 1.6508651508779124 $587 7.5853208953066975 $409 $588 forward 7 unknown #
coedge $-1 $589 $590 $260 $412 forward $579 $-1 #
edge $-1 $591 7.0519605662043361 $415 11.28638845844015 $411 $592 forward 7 unknown #
edge $-1 $416 -88.720969267860966 $591 -81.338469378340363 $261 $593 forward 7 unknown #
coedge $-1 $262 $583 $589 $594 reversed $404 $-1 #
vertex $-1 $594 $595 #
vertex $-1 $263 $596 #
straight-curve $-1 44.360484633930476 6.2689581739702174 62.606922369491322 0 0 -1 I I #
coedge $-1 $418 $418 $-1 $597 reversed $266 $-1 #
edge $-1 $598 0 $598 6.2831853071796004 $267 $599 forward 7 unknown #
vertex $-1 $270 $600 #
ellipse-curve $-1 42.243270687812561 7.9645169580927266 4.6733192868683968 0.81915205242281985 0 0.57357642473473569 0.28678821236736785 0 -0.40957602621140993 1 I I #
coedge $-1 $422 $422 $-1 $601 reversed $273 $-1 #
edge $-1 $602 0 $602 6.2831853071796004 $274 $603 forward 7 unknown #
vertex $-1 $277 $604 #
ellipse-curve $-1 42.243270687812561 10.507855134276486 4.6733192868683968 0.81915205242281985 0 0.57357642473473569 0.28678821236736785 0 -0.40957602621140993 1 I I #
face $-1 $-1 $605 $57 $-1 $606 forward single #
loop $-1 $-1 $284 $278 #
plane-surface $-1 -44.360484633930476 0 0 1 0 0 0 0 -1 forward_v I I I I #
coedge $-1 $607 $608 $609 $610 reversed $279 $-1 #
coedge $-1 $611 $281 $283 $436 forward $175 $-1 #
coedge $-1 $281 $611 $607 $612 forward $175 $-1 #
coedge $-1 $609 $284 $281 $433 forward $427 $-1 #
edge $-1 $439 -3.1485578304568698 $613 2.9837168822779319 $432 $614 forward 7 unknown #
coedge $-1 $615 $616 $282 $435 forward $605 $-1 #
edge $-1 $617 -12.002775671524724 $438 -6.3341279158857091 $434 $618 forward 7 unknown #
edge $-1 $439 1.8593432412625586e-014 $617 7.3998941649065841 $283 $619 forward 7 unknown #
coedge $-1 $284 $609 $615 $620 reversed $427 $-1 #
vertex $-1 $620 $621 #
vertex $-1 $285 $622 #
straight-curve $-1 -44.360484633930476 3.2309783045463387 35.452329411041653 0 0 -1 I I #
coedge $-1 $441 $441 $-1 $623 reversed $288 $-1 #
edge $-1 $624 0 $624 6.2831853071796004 $289 $625 forward 7 unknown #
vertex $-1 $292 $626 #
ellipse-curve $-1 -41.526160756110968 -1.1492179188356637 5.3187340847961222 -0.64278761758704617 0 0.76604443648966558 0.38302221824483279 0 0.32139380879352308 1 I I #
coedge $-1 $445 $445 $-1 $627 reversed $295 $-1 #
edge $-1 $628 0 $628 6.2831853071796004 $296 $629 forward 7 unknown #
vertex $-1 $299 $630 #
ellipse-curve $-1 -41.526160756110968 1.478899815193536 5.3187340847961222 -0.64278761758704617 0 0.76604443648966558 0.38302221824483279 0 0.32139380879352308 1 I I #
face $-1 $-1 $315 $45 $-1 $631 reversed single #
loop $-1 $-1 $465 $300 #
plane-surface $-1 0 20.741136046453196 0 0 -1 0 0 0 -1 forward_v I I I I #
coedge $-1 $632 $463 $466 $633 forward $301 $-1 #
coedge $-1 $469 $303 $304 $457 reversed $189 $-1 #
coedge $-1 $463 $632 $303 $455 reversed $301 $-1 #
edge $-1 $470 -7.6970142551244107 $634 7.6970142551244107 $454 $635 forward 7 unknown #
coedge $-1 $305 $304 $632 $636 forward $121 $-1 #
edge $-1 $461 -44.360484633930476 $634 44.360484633930476 $453 $637 forward 7 unknown #
coedge $-1 $466 $465 $305 $459 reversed $450 $-1 #
edge $-1 $638 -44.360484633930476 $460 44.360484633930476 $458 $639 forward 7 unknown #
vertex $-1 $307 $640 #
vertex $-1 $472 $641 #
straight-curve $-1 44.360484633930476 0 -7.6970142551244107 0 -1 0 I I #
coedge $-1 $452 $454 $308 $464 reversed $301 $-1 #
edge $-1 $467 -20.741136046453196 $470 20.741136046453196 $463 $642 forward 7 unknown #
coedge $-1 $458 $309 $314 $473 forward $450 $-1 #
coedge $-1 $309 $458 $452 $633 reversed $450 $-1 #
vertex $-1 $310 $643 #
straight-curve $-1 0 20.741136046453196 7.6970142551244107 -1 0 0 I I #
coedge $-1 $311 $453 $313 $472 reversed $189 $-1 #
vertex $-1 $464 $644 #
straight-curve $-1 0 -20.741136046453196 7.6970142551244107 1 0 0 I I #
edge $-1 $316 -7.6970142551244107 $461 7.6970142551244107 $313 $645 forward 7 unknown #
edge $-1 $317 -7.6970142551244107 $460 7.6970142551244107 $314 $646 forward 7 unknown #
point $-1 44.360484633930476 -20.741136046453196 7.6970142551244107 #
point $-1 44.360484633930476 20.741136046453196 7.6970142551244107 #
face $-1 $-1 $334 $46 $-1 $647 reversed single #
loop $-1 $-1 $330 $319 #
plane-surface $-1 0 -20.741136046453196 0 0 1 0 0 0 1 forward_v I I I I #
coedge $-1 $648 $649 $327 $489 forward $320 $-1 #
coedge $-1 $490 $322 $324 $485 reversed $197 $-1 #
edge $-1 $487 -3.5916128774238847 $335 -0.59161287742388469 $333 $650 forward 7 unknown #
coedge $-1 $324 $323 $651 $652 reversed $125 $-1 #
coedge $-1 $494 $493 $323 $484 forward $477 $-1 #
edge $-1 $653 -44.360484633930476 $486 44.360484633930476 $483 $654 forward 7 unknown #
edge $-1 $655 -44.360484633930476 $487 44.360484633930476 $480 $656 forward 7 unknown #
vertex $-1 $484 $657 #
vertex $-1 $326 $658 #
straight-curve $-1 44.360484633930476 -8.6123556902968392 -5.6832257548477694 0 1 0 I I #
edge $-1 $495 -12.128780356156357 $491 -5.0959310244373199 $479 $659 forward 7 unknown #
coedge $-1 $328 $480 $648 $660 reversed $197 $-1 #
vertex $-1 $489 $661 #
straight-curve $-1 0 -13.708286714734159 -2.6832257548477694 -1 0 0 I I #
coedge $-1 $483 $330 $649 $662 forward $477 $-1 #
coedge $-1 $330 $483 $332 $497 reversed $477 $-1 #
vertex $-1 $662 $663 #
straight-curve $-1 0 -20.741136046453196 -2.6832257548477694 -1 0 0 I I #
edge $-1 $336 2.6832257548477694 $486 5.6832257548477694 $332 $664 forward 7 unknown #
point $-1 44.360484633930476 -13.708286714734159 -2.6832257548477694 #
point $-1 44.360484633930476 -20.741136046453196 -2.6832257548477694 #
face $-1 $-1 $517 $47 $-1 $665 reversed single #
loop $-1 $-1 $513 $338 #
plane-surface $-1 -44.360484633930476 0 0 1 0 0 0 0 -1 forward_v I I I I #
coedge $-1 $520 $341 $342 $507 reversed $205 $-1 #
coedge $-1 $513 $666 $341 $505 forward $501 $-1 #
edge $-1 $667 -3.5916128774238847 $521 -0.59161287742388469 $504 $668 forward 7 unknown #
coedge $-1 $343 $342 $666 $669 reversed $129 $-1 #
edge $-1 $510 -44.360484633930476 $667 44.360484633930476 $503 $670 forward 7 unknown #
coedge $-1 $516 $515 $343 $509 forward $517 $-1 #
edge $-1 $511 -44.360484633930476 $671 44.360484633930476 $508 $672 forward 7 unknown #
vertex $-1 $345 $673 #
vertex $-1 $509 $674 #
straight-curve $-1 44.360484633930476 8.6123556902968392 -5.6832257548477694 0 1 0 I I #
coedge $-1 $675 $504 $346 $514 forward $501 $-1 #
edge $-1 $521 5.0959310244373217 $518 12.128780356156357 $513 $676 forward 7 unknown #
coedge $-1 $508 $347 $352 $524 forward $517 $-1 #
coedge $-1 $347 $508 $675 $677 reversed $517 $-1 #
loop $-1 $-1 $347 $500 #
vertex $-1 $677 $678 #
straight-curve $-1 0 20.741136046453196 -2.6832257548477694 1 0 0 I I #
coedge $-1 $349 $503 $351 $523 reversed $205 $-1 #
vertex $-1 $514 $679 #
straight-curve $-1 0 13.708286714734161 -2.6832257548477694 1 0 0 I I #
edge $-1 $354 0.59161287742388469 $510 3.5916128774238847 $351 $680 forward 7 unknown #
edge $-1 $353 2.6832257548477694 $511 5.6832257548477694 $352 $681 forward 7 unknown #
point $-1 44.360484633930476 20.741136046453196 -2.6832257548477694 #
point $-1 44.360484633930476 13.708286714734161 -2.6832257548477694 #
plane-surface $-1 44.360484633930476 0 0 -1 0 0 0 0 1 forward_v I I I I #
coedge $-1 $538 $537 $530 $682 forward $357 $-1 #
coedge $-1 $530 $359 $361 $534 reversed $213 $-1 #
coedge $-1 $359 $529 $528 $682 reversed $213 $-1 #
coedge $-1 $367 $362 $359 $532 forward $368 $-1 #
edge $-1 $535 -60.957298050878954 $683 -54.909908114366914 $531 $684 forward 7 unknown #
coedge $-1 $361 $360 $538 $685 reversed $133 $-1 #
edge $-1 $686 81.338469378340363 $535 88.720969267860966 $529 $687 forward 7 unknown #
vertex $-1 $363 $688 #
straight-curve $-1 44.360484633930483 -4.520764786730469 1.6496243186123607 0 1 0 I I #
coedge $-1 $528 $364 $367 $542 forward $357 $-1 #
coedge $-1 $364 $528 $533 $685 forward $357 $-1 #
vertex $-1 $365 $689 #
straight-curve $-1 33.074096175490325 -12.008757445675331 7.6970142551244081 1 0 0 I I #
straight-curve $-1 -6.5277717177295784 -12.008757445675331 74.325588387322597 -0.57357642473473569 0 0.81915205242281985 I I #
edge $-1 $369 -12.008757445675331 $683 -6.0743017012465454 $367 $690 forward 7 unknown #
point $-1 44.360484633930476 -12.008757445675331 7.6970142551244107 #
point $-1 44.360484633930476 -12.008757445675331 1.6496243186123678 #
edge $-1 $691 1 $691 0 $372 $-1 forward 7 unknown #
vertex $-1 $373 $692 #
ellipse-curve $-1 41.295622235064627 -10.313198661552821 4.0097687167088019 0.81915205242281985 0 0.57357642473473569 0.28678821236736785 0 -0.40957602621140993 1 I I #
point $-1 42.530058900179938 -10.313198661552821 4.2637432606569918 #
edge $-1 $693 1 $693 0 $376 $-1 forward 7 unknown #
vertex $-1 $377 $694 #
ellipse-curve $-1 41.295622235064627 -7.7698604853690565 4.0097687167088019 0.81915205242281985 0 0.57357642473473569 0.28678821236736785 0 -0.40957602621140993 1 I I #
point $-1 42.530058900179938 -7.7698604853690565 4.2637432606569918 #
loop $-1 $-1 $388 $380 #
plane-surface $-1 0 0 7.6970142551244107 0 0 1 1 0 0 forward_v I I I I #
coedge $-1 $556 $383 $385 $560 reversed $235 $-1 #
coedge $-1 $383 $555 $695 $696 reversed $235 $-1 #
coedge $-1 $391 $386 $383 $558 forward $381 $-1 #
edge $-1 $561 -60.957298050878954 $697 -54.909908114366914 $557 $698 forward 7 unknown #
coedge $-1 $385 $384 $564 $699 reversed $147 $-1 #
edge $-1 $700 81.338469378340363 $561 88.720969267860966 $555 $701 forward 7 unknown #
vertex $-1 $387 $702 #
straight-curve $-1 44.360484633930483 0.048664118180917981 1.6496243186123607 0 1 0 I I #
coedge $-1 $695 $388 $391 $568 forward $553 $-1 #
coedge $-1 $388 $695 $559 $699 forward $553 $-1 #
vertex $-1 $389 $703 #
straight-curve $-1 33.074096175490325 -2.8698996358525566 7.6970142551244081 1 0 0 I I #
straight-curve $-1 -6.5277717177295784 -2.8698996358525566 74.325588387322597 -0.57357642473473569 0 0.81915205242281985 I I #
edge $-1 $392 -2.8698996358525566 $697 3.0645561085762285 $391 $704 forward 7 unknown #
point $-1 44.360484633930476 -2.8698996358525566 7.6970142551244107 #
point $-1 44.360484633930476 -2.8698996358525566 1.6496243186123678 #
edge $-1 $705 1 $705 0 $395 $-1 forward 7 unknown #
vertex $-1 $396 $706 #
ellipse-curve $-1 41.295622235064627 -1.1743408517300473 4.0097687167088019 0.81915205242281985 0 0.57357642473473569 0.28678821236736785 0 -0.40957602621140993 1 I I #
point $-1 42.530058900179938 -1.1743408517300473 4.2637432606569918 #
edge $-1 $707 1 $707 0 $399 $-1 forward 7 unknown #
vertex $-1 $400 $708 #
ellipse-curve $-1 41.295622235064627 1.3689973244537157 4.0097687167088019 0.81915205242281985 0 0.57357642473473569 0.28678821236736785 0 -0.40957602621140993 1 I I #
point $-1 42.530058900179938 1.3689973244537157 4.2637432606569918 #
loop $-1 $-1 $411 $403 #
plane-surface $-1 0 0 7.6970142551244107 0 0 1 1 0 0 forward_v I I I I #
coedge $-1 $582 $406 $408 $586 reversed $257 $-1 #
coedge $-1 $406 $581 $709 $710 reversed $257 $-1 #
coedge $-1 $414 $409 $406 $584 forward $404 $-1 #
edge $-1 $587 -60.957298050878954 $711 -54.909908114366914 $583 $712 forward 7 unknown #
coedge $-1 $408 $407 $590 $713 reversed $161 $-1 #
edge $-1 $714 81.338469378340363 $587 88.720969267860966 $581 $715 forward 7 unknown #
vertex $-1 $410 $716 #
straight-curve $-1 44.360484633930483 4.618093023092305 1.6496243186123607 0 1 0 I I #
coedge $-1 $709 $411 $414 $594 forward $579 $-1 #
coedge $-1 $411 $709 $585 $713 forward $579 $-1 #
vertex $-1 $412 $717 #
straight-curve $-1 33.074096175490325 6.2689581739702174 7.6970142551244081 1 0 0 I I #
straight-curve $-1 -6.5277717177295784 6.2689581739702174 74.325588387322597 -0.57357642473473569 0 0.81915205242281985 I I #
edge $-1 $415 6.2689581739702174 $711 12.203413918399002 $414 $718 forward 7 unknown #
point $-1 44.360484633930476 6.2689581739702174 7.6970142551244107 #
point $-1 44.360484633930476 6.2689581739702174 1.6496243186123678 #
edge $-1 $719 1 $719 0 $418 $-1 forward 7 unknown #
vertex $-1 $419 $720 #
ellipse-curve $-1 41.295622235064627 7.9645169580927266 4.0097687167088019 0.81915205242281985 0 0.57357642473473569 0.28678821236736785 0 -0.40957602621140993 1 I I #
point $-1 42.530058900179938 7.9645169580927266 4.2637432606569918 #
edge $-1 $721 1 $721 0 $422 $-1 forward 7 unknown #
vertex $-1 $423 $722 #
ellipse-curve $-1 41.295622235064627 10.507855134276486 4.0097687167088019 0.81915205242281985 0 0.57357642473473569 0.28678821236736785 0 -0.40957602621140993 1 I I #
point $-1 42.530058900179938 10.507855134276486 4.2637432606569918 #
loop $-1 $-1 $434 $426 #
plane-surface $-1 0 0 7.6970142551244107 0 0 1 1 0 0 forward_v I I I I #
coedge $-1 $608 $429 $431 $612 reversed $279 $-1 #
coedge $-1 $429 $607 $723 $724 reversed $279 $-1 #
coedge $-1 $437 $432 $429 $610 forward $427 $-1 #
edge $-1 $613 -32.511875496573815 $725 -27.755315155917241 $609 $726 forward 7 unknown #
coedge $-1 $431 $430 $616 $727 reversed $175 $-1 #
edge $-1 $728 -7.3998941649065841 $613 -1.8593432412625586e-014 $607 $729 forward 7 unknown #
vertex $-1 $433 $730 #
straight-curve $-1 -44.360484633930476 0.082420474089468954 2.9404539144678363 0 -1 0 I I #
coedge $-1 $723 $434 $437 $620 forward $605 $-1 #
coedge $-1 $434 $723 $611 $727 forward $605 $-1 #
vertex $-1 $435 $731 #
straight-curve $-1 -50.694612549816185 3.2309783045463387 7.6970142551244116 -1 0 0 I I #
straight-curve $-1 -44.36048463393049 3.2309783045463387 2.9404539144678239 0.76604443648966558 0 0.64278761758704617 I I #
edge $-1 $438 -3.2309783045463387 $725 2.9012964081884629 $437 $732 forward 7 unknown #
point $-1 -44.360484633930476 3.2309783045463387 7.6970142551244107 #
point $-1 -44.360484633930476 3.2309783045463387 2.9404539144678359 #
edge $-1 $733 1 $733 0 $441 $-1 forward 7 unknown #
vertex $-1 $442 $734 #
ellipse-curve $-1 -40.27563114851398 -1.1492179188356637 3.828410963511744 -0.64278761758704617 0 0.76604443648966558 0.38302221824483279 0 0.32139380879352308 1 I I #
point $-1 -41.143138537866129 -1.1492179188356637 5.6401278935896375 #
edge $-1 $735 1 $735 0 $445 $-1 forward 7 unknown #
vertex $-1 $446 $736 #
ellipse-curve $-1 -40.27563114851398 1.478899815193536 3.828410963511744 -0.64278761758704617 0 0.76604443648966558 0.38302221824483279 0 0.32139380879352308 1 I I #
point $-1 -41.143138537866129 1.478899815193536 5.6401278935896375 #
plane-surface $-1 44.360484633930476 0 0 -1 0 0 0 0 1 forward_v I I I I #
coedge $-1 $454 $452 $456 $636 reversed $301 $-1 #
edge $-1 $467 -7.6970142551244107 $638 7.6970142551244107 $466 $737 forward 7 unknown #
vertex $-1 $636 $738 #
straight-curve $-1 -44.360484633930476 -20.741136046453196 0 0 0 -1 I I #
edge $-1 $634 -20.741136046453196 $638 20.741136046453196 $632 $739 forward 7 unknown #
straight-curve $-1 0 -20.741136046453196 -7.6970142551244107 -1 0 0 I I #
vertex $-1 $459 $740 #
straight-curve $-1 0 20.741136046453196 -7.6970142551244107 1 0 0 I I #
point $-1 44.360484633930476 20.741136046453196 -7.6970142551244107 #
point $-1 44.360484633930476 -20.741136046453196 -7.6970142551244107 #
straight-curve $-1 -44.360484633930476 0 7.6970142551244107 0 -1 0 I I #
point $-1 -44.360484633930476 20.741136046453196 7.6970142551244107 #
point $-1 -44.360484633930476 -20.741136046453196 7.6970142551244107 #
straight-curve $-1 44.360484633930476 -20.741136046453196 0 0 0 -1 I I #
straight-curve $-1 44.360484633930476 20.741136046453196 0 0 0 -1 I I #
plane-surface $-1 44.360484633930476 0 0 -1 0 0 0 0 1 forward_v I I I I #
coedge $-1 $651 $479 $490 $660 forward $320 $-1 #
coedge $-1 $479 $651 $493 $662 reversed $320 $-1 #
straight-curve $-1 44.360484633930476 -13.708286714734159 -2.0916128774238847 0 0 1 I I #
coedge $-1 $649 $648 $482 $652 forward $320 $-1 #
edge $-1 $655 5.0959310244373199 $653 12.128780356156357 $651 $741 forward 7 unknown #
vertex $-1 $484 $742 #
straight-curve $-1 0 -20.741136046453196 -5.6832257548477694 1 0 0 I I #
vertex $-1 $652 $743 #
straight-curve $-1 0 -13.708286714734159 -5.6832257548477694 1 0 0 I I #
point $-1 44.360484633930476 -20.741136046453196 -5.6832257548477694 #
point $-1 44.360484633930476 -13.708286714734159 -5.6832257548477694 #
straight-curve $-1 -44.360484633930476 -8.6123556902968392 -2.6832257548477694 0 1 0 I I #
edge $-1 $491 0.59161287742388469 $655 3.5916128774238847 $648 $744 forward 7 unknown #
point $-1 -44.360484633930476 -13.708286714734159 -2.6832257548477694 #
edge $-1 $495 2.6832257548477694 $653 5.6832257548477694 $649 $745 forward 7 unknown #
point $-1 -44.360484633930476 -20.741136046453196 -2.6832257548477694 #
straight-curve $-1 44.360484633930476 -20.741136046453196 0 0 0 -1 I I #
plane-surface $-1 0 20.741136046453196 0 0 -1 0 0 0 -1 forward_v I I I I #
coedge $-1 $504 $675 $506 $669 forward $501 $-1 #
vertex $-1 $669 $746 #
straight-curve $-1 -44.360484633930476 13.708286714734161 -2.0916128774238847 0 0 1 I I #
edge $-1 $671 -12.128780356156357 $667 -5.0959310244373217 $666 $747 forward 7 unknown #
straight-curve $-1 0 13.708286714734161 -5.6832257548477694 -1 0 0 I I #
vertex $-1 $509 $748 #
straight-curve $-1 0 20.741136046453196 -5.6832257548477694 -1 0 0 I I #
point $-1 44.360484633930476 13.708286714734161 -5.6832257548477694 #
point $-1 44.360484633930476 20.741136046453196 -5.6832257548477694 #
coedge $-1 $666 $513 $516 $677 forward $501 $-1 #
straight-curve $-1 -44.360484633930476 8.6123556902968392 -2.6832257548477694 0 1 0 I I #
edge $-1 $518 2.6832257548477694 $671 5.6832257548477694 $516 $749 forward 7 unknown #
point $-1 -44.360484633930476 20.741136046453196 -2.6832257548477694 #
point $-1 -44.360484633930476 13.708286714734161 -2.6832257548477694 #
straight-curve $-1 44.360484633930476 13.708286714734161 -2.0916128774238847 0 0 -1 I I #
straight-curve $-1 44.360484633930476 20.741136046453196 0 0 0 -1 I I #
edge $-1 $683 -11.28638845844015 $686 -7.0519605662043361 $528 $750 forward 7 unknown #
vertex $-1 $682 $751 #
straight-curve $-1 44.360484633930476 -6.0743017012465454 62.606922369491322 0 0 1 I I #
edge $-1 $686 1.5535369145160765 $539 7.4879926589448615 $538 $752 forward 7 unknown #
vertex $-1 $685 $753 #
straight-curve $-1 -6.5277717177295784 -6.0743017012465454 74.325588387322597 0.57357642473473569 0 -0.81915205242281985 I I #
point $-1 44.360484633930476 -6.0743017012465454 1.6496243186123678 #
point $-1 40.126056741694661 -12.008757445675331 7.6970142551244152 #
straight-curve $-1 44.360484633930476 0 7.6970142551244107 0 1 0 I I #
vertex $-1 $545 $754 #
point $-1 41.582410447431997 -10.313198661552821 3.6001926904973924 #
vertex $-1 $549 $755 #
point $-1 41.582410447431997 -7.7698604853690565 3.6001926904973924 #
coedge $-1 $564 $563 $556 $696 forward $553 $-1 #
edge $-1 $697 -11.28638845844015 $700 -7.0519605662043361 $695 $756 forward 7 unknown #
vertex $-1 $696 $757 #
straight-curve $-1 44.360484633930476 3.0645561085762285 62.606922369491322 0 0 1 I I #
edge $-1 $700 -3.0158919903953105 $565 2.9185637540334746 $564 $758 forward 7 unknown #
vertex $-1 $699 $759 #
straight-curve $-1 -6.5277717177295784 3.0645561085762285 74.325588387322597 0.57357642473473569 0 -0.81915205242281985 I I #
point $-1 44.360484633930476 3.0645561085762285 1.6496243186123678 #
point $-1 40.126056741694661 -2.8698996358525566 7.6970142551244152 #
straight-curve $-1 44.360484633930476 0 7.6970142551244107 0 1 0 I I #
vertex $-1 $571 $760 #
point $-1 41.582410447431997 -1.1743408517300473 3.6001926904973924 #
vertex $-1 $575 $761 #
point $-1 41.582410447431997 1.3689973244537157 3.6001926904973924 #
coedge $-1 $590 $589 $582 $710 forward $579 $-1 #
edge $-1 $711 -11.28638845844015 $714 -7.0519605662043361 $709 $762 forward 7 unknown #
vertex $-1 $710 $763 #
straight-curve $-1 44.360484633930476 12.203413918399002 62.606922369491322 0 0 1 I I #
edge $-1 $714 -7.5853208953066975 $591 -1.6508651508779124 $590 $764 forward 7 unknown #
vertex $-1 $713 $765 #
straight-curve $-1 -6.5277717177295784 12.203413918399002 74.325588387322597 0.57357642473473569 0 -0.81915205242281985 I I #
point $-1 44.360484633930476 12.203413918399002 1.6496243186123678 #
point $-1 40.126056741694661 6.2689581739702174 7.6970142551244152 #
straight-curve $-1 44.360484633930476 0 7.6970142551244107 0 1 0 I I #
vertex $-1 $597 $766 #
point $-1 41.582410447431997 7.9645169580927266 3.6001926904973924 #
vertex $-1 $601 $767 #
point $-1 41.582410447431997 10.507855134276486 3.6001926904973924 #
coedge $-1 $616 $615 $608 $724 forward $605 $-1 #
edge $-1 $725 6.3341279158857091 $728 12.002775671524724 $723 $768 forward 7 unknown #
vertex $-1 $724 $769 #
straight-curve $-1 -44.360484633930476 -2.9012964081884629 35.452329411041653 0 0 1 I I #
edge $-1 $728 -2.9837168822779319 $617 3.1485578304568698 $616 $770 forward 7 unknown #
vertex $-1 $727 $771 #
straight-curve $-1 -44.36048463393049 -2.9012964081884629 2.9404539144678239 -0.76604443648966558 0 -0.64278761758704617 I I #
point $-1 -44.360484633930476 -2.9012964081884629 2.9404539144678359 #
point $-1 -38.691836878291461 3.2309783045463387 7.6970142551244107 #
straight-curve $-1 -44.360484633930476 0 7.6970142551244107 0 -1 0 I I #
vertex $-1 $623 $772 #
point $-1 -39.892608930269148 -1.1492179188356637 4.1498047723052673 #
vertex $-1 $627 $773 #
point $-1 -39.892608930269148 1.478899815193536 4.1498047723052673 #
straight-curve $-1 -44.360484633930476 20.741136046453196 0 0 0 -1 I I #
point $-1 -44.360484633930476 -20.741136046453196 -7.6970142551244107 #
straight-curve $-1 -44.360484633930476 0 -7.6970142551244107 0 1 0 I I #
point $-1 -44.360484633930476 20.741136046453196 -7.6970142551244107 #
straight-curve $-1 -44.360484633930476 -8.6123556902968392 -5.6832257548477694 0 -1 0 I I #
point $-1 -44.360484633930476 -20.741136046453196 -5.6832257548477694 #
point $-1 -44.360484633930476 -13.708286714734159 -5.6832257548477694 #
straight-curve $-1 -44.360484633930476 -13.708286714734159 -2.0916128774238847 0 0 -1 I I #
straight-curve $-1 -44.360484633930476 -20.741136046453196 0 0 0 -1 I I #
point $-1 -44.360484633930476 13.708286714734161 -5.6832257548477694 #
straight-curve $-1 -44.360484633930476 8.6123556902968392 -5.6832257548477694 0 -1 0 I I #
point $-1 -44.360484633930476 20.741136046453196 -5.6832257548477694 #
straight-curve $-1 -44.360484633930476 20.741136046453196 0 0 0 -1 I I #
straight-curve $-1 33.074096175490325 -6.0743017012465454 7.6970142551244081 -1 0 0 I I #
point $-1 44.360484633930476 -6.0743017012465454 7.6970142551244107 #
straight-curve $-1 40.126056741694669 -4.520764786730469 7.697014255124401 0 -1 0 I I #
point $-1 40.126056741694661 -6.0743017012465454 7.6970142551244152 #
point $-1 40.886046208853216 -10.313198661552821 3.7229805043414337 #
point $-1 40.886046208853216 -7.7698604853690565 3.7229805043414337 #
straight-curve $-1 33.074096175490325 3.0645561085762285 7.6970142551244081 -1 0 0 I I #
point $-1 44.360484633930476 3.0645561085762285 7.6970142551244107 #
straight-curve $-1 40.126056741694669 0.048664118180917981 7.697014255124401 0 -1 0 I I #
point $-1 40.126056741694661 3.0645561085762285 7.6970142551244152 #
point $-1 40.886046208853216 -1.1743408517300473 3.7229805043414337 #
point $-1 40.886046208853216 1.3689973244537157 3.7229805043414337 #
straight-curve $-1 33.074096175490325 12.203413918399002 7.6970142551244081 -1 0 0 I I #
point $-1 44.360484633930476 12.203413918399002 7.6970142551244107 #
straight-curve $-1 40.126056741694669 4.618093023092305 7.697014255124401 0 -1 0 I I #
point $-1 40.126056741694661 12.203413918399002 7.6970142551244152 #
point $-1 40.886046208853216 7.9645169580927266 3.7229805043414337 #
point $-1 40.886046208853216 10.507855134276486 3.7229805043414337 #
straight-curve $-1 -50.694612549816185 -2.9012964081884629 7.6970142551244116 1 0 0 I I #
point $-1 -44.360484633930476 -2.9012964081884629 7.6970142551244107 #
straight-curve $-1 -38.691836878291461 0.082420474089468954 7.6970142551244116 0 1 0 I I #
point $-1 -38.691836878291461 -2.9012964081884629 7.6970142551244107 #
point $-1 -39.954237339720464 -1.1492179188356637 3.4453887452669116 #
point $-1 -39.954237339720464 1.478899815193536 3.4453887452669116 #
End-of-ACIS-data 