500 0 12 0           
7 Unknown 11 ACIS 5.0 NT 24 Thu Mar 25 23:42:03 1999 
-1 9.9999999999999995e-007 1e-010 
body $-1 $12 $-1 $13 #
body $-1 $14 $-1 $15 #
body $-1 $16 $-1 $17 #
body $-1 $18 $-1 $19 #
body $-1 $20 $-1 $21 #
body $-1 $22 $-1 $23 #
body $-1 $24 $-1 $25 #
body $-1 $26 $-1 $27 #
body $-1 $28 $-1 $29 #
body $-1 $30 $-1 $31 #
body $-1 $32 $-1 $33 #
body $-1 $34 $-1 $35 #
lump $-1 $-1 $36 $0 #
transform $-1 1 0 0 0 1 0 0 0 1 42.336497085482343 29.318092064152861 13.248212951026709 1 rotate no_reflect no_shear #
lump $-1 $-1 $37 $1 #
transform $-1 1 0 0 0 1 0 0 0 1 42.336497085482343 29.318092064152861 13.248212951026709 1 rotate no_reflect no_shear #
lump $-1 $-1 $38 $2 #
transform $-1 1 0 0 0 1 0 0 0 1 42.336497085482343 29.318092064152861 13.248212951026709 1 rotate no_reflect no_shear #
lump $-1 $-1 $39 $3 #
transform $-1 1 0 0 0 1 0 0 0 1 42.336497085482343 29.318092064152861 13.248212951026709 1 rotate no_reflect no_shear #
lump $-1 $-1 $40 $4 #
transform $-1 1 0 0 0 1 0 0 0 1 42.336497085482343 29.318092064152861 13.248212951026709 1 rotate no_reflect no_shear #
lump $-1 $-1 $41 $5 #
transform $-1 1 0 0 0 1 0 0 0 1 42.336497085482343 29.318092064152861 13.248212951026709 1 rotate no_reflect no_shear #
lump $-1 $-1 $42 $6 #
transform $-1 1 0 0 0 1 0 0 0 1 42.336497085482343 29.318092064152861 13.248212951026709 1 rotate no_reflect no_shear #
lump $-1 $-1 $43 $7 #
transform $-1 1 0 0 0 1 0 0 0 1 42.336497085482343 29.318092064152861 13.248212951026709 1 rotate no_reflect no_shear #
lump $-1 $-1 $44 $8 #
transform $-1 1 0 0 0 1 0 0 0 1 42.336497085482343 29.318092064152861 13.248212951026709 1 rotate no_reflect no_shear #
lump $-1 $-1 $45 $9 #
transform $-1 1 0 0 0 1 0 0 0 1 42.336497085482343 29.318092064152861 13.248212951026709 1 rotate no_reflect no_shear #
lump $-1 $-1 $46 $10 #
transform $-1 1 0 0 0 1 0 0 0 1 42.336497085482343 29.318092064152861 13.248212951026709 1 rotate no_reflect no_shear #
lump $-1 $-1 $47 $11 #
transform $-1 1 0 0 0 1 0 0 0 1 42.336497085482343 29.318092064152861 13.248212951026709 1 rotate no_reflect no_shear #
shell $-1 $-1 $-1 $48 $-1 $12 #
shell $-1 $-1 $-1 $49 $-1 $14 #
shell $-1 $-1 $-1 $50 $-1 $16 #
shell $-1 $-1 $-1 $51 $-1 $18 #
shell $-1 $-1 $-1 $52 $-1 $20 #
shell $-1 $-1 $-1 $53 $-1 $22 #
shell $-1 $-1 $-1 $54 $-1 $24 #
shell $-1 $-1 $-1 $55 $-1 $26 #
shell $-1 $-1 $-1 $56 $-1 $28 #
shell $-1 $-1 $-1 $57 $-1 $30 #
shell $-1 $-1 $-1 $58 $-1 $32 #
shell $-1 $-1 $-1 $59 $-1 $34 #
face $-1 $60 $61 $36 $-1 $62 forward single #
face $-1 $63 $64 $37 $-1 $65 forward single #
face $-1 $66 $67 $38 $-1 $68 reversed single #
face $-1 $69 $70 $39 $-1 $71 forward single #
face $-1 $72 $73 $40 $-1 $74 forward single #
face $-1 $75 $76 $41 $-1 $77 forward single #
face $-1 $78 $79 $42 $-1 $80 reversed single #
face $-1 $81 $82 $43 $-1 $83 forward single #
face $-1 $84 $85 $44 $-1 $86 forward single #
face $-1 $87 $88 $45 $-1 $89 reversed single #
face $-1 $90 $91 $46 $-1 $92 forward single #
face $-1 $93 $94 $47 $-1 $95 forward single #
face $-1 $96 $97 $36 $-1 $98 reversed single #
loop $-1 $-1 $99 $48 #
plane-surface $-1 0 0 13.248212951026709 0 0 1 1 0 0 forward_v I I I I #
face $-1 $100 $101 $37 $-1 $102 reversed single #
loop $-1 $-1 $103 $49 #
plane-surface $-1 0 -21.54186370696808 -6.1614480057156973 0 0 1 1 0 0 forward_v I I I I #
face $-1 $104 $105 $38 $-1 $106 reversed single #
loop $-1 $-1 $107 $50 #
plane-surface $-1 17.439967808183269 15.410243375625704 126.97934815684781 0 -1 0 -0.54463904215088732 0 -0.83867056331134215 forward_v I I I I #
face $-1 $108 $109 $39 $-1 $110 forward single #
loop $-1 $111 $112 $51 #
cone-surface $-1 39.286756528727111 10.464838506756525 10.881550157268276 -0.54463904215088732 0 -0.83867056331134215 0.41933528165567108 0 -0.27231952107544366 1 I I 0 1 0.5 forward I I I I #
face $-1 $113 $114 $40 $-1 $115 forward single #
loop $-1 $116 $117 $52 #
cone-surface $-1 39.286756528727111 12.319365332582468 10.881550157268276 -0.54463904215088732 0 -0.83867056331134215 0.41933528165567108 0 -0.27231952107544366 1 I I 0 1 0.5 forward I I I I #
face $-1 $118 $119 $41 $-1 $120 forward single #
loop $-1 $121 $122 $53 #
cone-surface $-1 39.286756528727111 14.17389215840841 10.881550157268276 -0.54463904215088732 0 -0.83867056331134215 0.41933528165567108 0 -0.27231952107544366 1 I I 0 1 0.5 forward I I I I #
face $-1 $123 $124 $42 $-1 $125 reversed single #
loop $-1 $-1 $126 $54 #
plane-surface $-1 -98.993789698730239 -11.310183825247341 63.946084383602731 0 1 0 -0.66913061440640931 0 0.74314481823134659 forward_v I I I I #
face $-1 $127 $128 $43 $-1 $129 forward single #
loop $-1 $130 $131 $55 #
cone-surface $-1 -34.919104123028866 -9.2862656341623904 6.4375549573777846 0.66913061440640931 0 -0.74314481823134659 0.74314481823134659 0 0.66913061440640931 1 I I 0 1 1 forward I I I I #
face $-1 $132 $133 $44 $-1 $134 forward single #
loop $-1 $135 $136 $56 #
cone-surface $-1 -34.919104123028866 -6.2503883475349689 6.4375549573777846 0.66913061440640931 0 -0.74314481823134659 0.74314481823134659 0 0.66913061440640931 1 I I 0 1 1 forward I I I I #
face $-1 $137 $138 $45 $-1 $139 reversed single #
loop $-1 $-1 $140 $57 #
plane-surface $-1 -98.993789698730239 19.778926870819589 63.946084383602731 0 1 0 -0.66913061440640931 0 0.74314481823134659 forward_v I I I I #
face $-1 $141 $142 $46 $-1 $143 forward single #
loop $-1 $144 $145 $58 #
cone-surface $-1 -34.919104123028866 21.802845061904545 6.4375549573777846 0.66913061440640931 0 -0.74314481823134659 0.74314481823134659 0 0.66913061440640931 1 I I 0 1 1 forward I I I I #
face $-1 $146 $147 $47 $-1 $148 forward single #
loop $-1 $149 $150 $59 #
cone-surface $-1 -34.919104123028866 24.838722348531963 6.4375549573777846 0.66913061440640931 0 -0.74314481823134659 0.74314481823134659 0 0.66913061440640931 1 I I 0 1 1 forward I I I I #
face $-1 $151 $152 $36 $-1 $153 reversed single #
loop $-1 $-1 $154 $60 #
plane-surface $-1 0 0 -13.248212951026709 0 0 1 1 0 0 forward_v I I I I #
coedge $-1 $155 $156 $157 $158 forward $61 $-1 #
face $-1 $159 $160 $37 $-1 $161 reversed single #
loop $-1 $-1 $162 $63 #
plane-surface $-1 0 -13.765635349783299 -9.7048304783712034 0 -1 0 0 0 -1 forward_v I I I I #
coedge $-1 $163 $164 $165 $166 reversed $64 $-1 #
face $-1 $167 $168 $38 $-1 $169 reversed single #
loop $-1 $-1 $170 $66 #
plane-surface $-1 -28.676250633138601 12.319365332582468 55.966600438226862 0.54463904215088732 0 0.83867056331134215 0.83867056331134215 0 -0.54463904215088732 forward_v I I I I #
coedge $-1 $171 $172 $173 $174 reversed $67 $-1 #
face $-1 $-1 $175 $39 $-1 $176 forward single #
loop $-1 $177 $178 $69 #
cone-surface $-1 38.716956582311077 10.464838506756525 10.004135199742858 -0.54463904215088732 0 -0.83867056331134215 0.20966764082783554 0 -0.13615976053772183 1 I I -0.70710678118654746 0.70710678118654746 0.25 forward I I I I #
loop $-1 $-1 $179 $51 #
coedge $-1 $112 $112 $180 $181 reversed $70 $-1 #
face $-1 $-1 $182 $40 $-1 $183 forward single #
loop $-1 $184 $185 $72 #
cone-surface $-1 38.716956582311077 12.319365332582468 10.004135199742858 -0.54463904215088732 0 -0.83867056331134215 0.20966764082783554 0 -0.13615976053772183 1 I I -0.70710678118654746 0.70710678118654746 0.25 forward I I I I #
loop $-1 $-1 $186 $52 #
coedge $-1 $117 $117 $187 $188 reversed $73 $-1 #
face $-1 $-1 $189 $41 $-1 $190 forward single #
loop $-1 $191 $192 $75 #
cone-surface $-1 38.716956582311077 14.17389215840841 10.004135199742858 -0.54463904215088732 0 -0.83867056331134215 0.20966764082783554 0 -0.13615976053772183 1 I I -0.70710678118654746 0.70710678118654746 0.25 forward I I I I #
loop $-1 $-1 $193 $53 #
coedge $-1 $122 $122 $194 $195 reversed $76 $-1 #
face $-1 $196 $197 $42 $-1 $198 reversed single #
loop $-1 $-1 $199 $78 #
plane-surface $-1 -42.336497085482328 -7.7683269908486814 1.0217875213173073 -0.66913061440640931 0 0.74314481823134659 0.74314481823134659 0 0.66913061440640931 forward_v I I I I #
coedge $-1 $200 $201 $202 $203 reversed $79 $-1 #
face $-1 $-1 $204 $43 $-1 $205 forward single #
loop $-1 $206 $207 $81 #
cone-surface $-1 -33.956556252447079 -9.2862656341623904 5.3685372694678861 0.66913061440640931 0 -0.74314481823134659 0.3715724091156733 0 0.33456530720320465 1 I I -0.70710678118654746 0.70710678118654746 0.5 forward I I I I #
loop $-1 $-1 $208 $55 #
coedge $-1 $131 $131 $209 $210 reversed $82 $-1 #
face $-1 $-1 $211 $44 $-1 $212 forward single #
loop $-1 $213 $214 $84 #
cone-surface $-1 -33.956556252447079 -6.2503883475349689 5.3685372694678861 0.66913061440640931 0 -0.74314481823134659 0.3715724091156733 0 0.33456530720320465 1 I I -0.70710678118654746 0.70710678118654746 0.5 forward I I I I #
loop $-1 $-1 $215 $56 #
coedge $-1 $136 $136 $216 $217 reversed $85 $-1 #
face $-1 $218 $219 $45 $-1 $220 reversed single #
loop $-1 $-1 $221 $87 #
plane-surface $-1 -42.336497085482328 23.320783705218251 1.0217875213173073 -0.66913061440640931 0 0.74314481823134659 0.74314481823134659 0 0.66913061440640931 forward_v I I I I #
coedge $-1 $222 $223 $224 $225 reversed $88 $-1 #
face $-1 $-1 $226 $46 $-1 $227 forward single #
loop $-1 $228 $229 $90 #
cone-surface $-1 -33.956556252447079 21.802845061904545 5.3685372694678861 0.66913061440640931 0 -0.74314481823134659 0.3715724091156733 0 0.33456530720320465 1 I I -0.70710678118654746 0.70710678118654746 0.5 forward I I I I #
loop $-1 $-1 $230 $58 #
coedge $-1 $145 $145 $231 $232 reversed $91 $-1 #
face $-1 $-1 $233 $47 $-1 $234 forward single #
loop $-1 $235 $236 $93 #
cone-surface $-1 -33.956556252447079 24.838722348531963 5.3685372694678861 0.66913061440640931 0 -0.74314481823134659 0.3715724091156733 0 0.33456530720320465 1 I I -0.70710678118654746 0.70710678118654746 0.5 forward I I I I #
loop $-1 $-1 $237 $59 #
coedge $-1 $150 $150 $238 $239 reversed $94 $-1 #
face $-1 $240 $241 $36 $-1 $242 reversed single #
loop $-1 $-1 $243 $96 #
plane-surface $-1 0 -29.318092064152861 0 0 1 0 0 0 1 forward_v I I I I #
coedge $-1 $244 $245 $246 $247 forward $97 $-1 #
coedge $-1 $248 $99 $249 $250 forward $61 $-1 #
coedge $-1 $99 $248 $251 $252 forward $61 $-1 #
coedge $-1 $253 $254 $99 $158 reversed $255 $-1 #
edge $-1 $256 -29.318092064152861 $257 29.318092064152861 $157 $258 forward 7 unknown #
face $-1 $259 $260 $37 $-1 $261 reversed single #
loop $-1 $-1 $262 $100 #
plane-surface $-1 0 0 -13.248212951026709 0 0 1 1 0 0 forward_v I I I I #
coedge $-1 $263 $264 $265 $266 reversed $101 $-1 #
coedge $-1 $267 $103 $264 $268 forward $64 $-1 #
coedge $-1 $103 $267 $269 $270 reversed $64 $-1 #
coedge $-1 $271 $265 $103 $166 forward $260 $-1 #
edge $-1 $272 2.9947034962992589 $273 18.547160210668821 $165 $274 forward 7 unknown #
face $-1 $275 $276 $38 $-1 $277 reversed single #
loop $-1 $-1 $278 $104 #
plane-surface $-1 17.439967808183269 9.2284872895392311 126.97934815684781 0 1 0 0.54463904215088732 0 0.83867056331134215 forward_v I I I I #
coedge $-1 $279 $280 $281 $282 reversed $105 $-1 #
coedge $-1 $172 $107 $283 $284 reversed $67 $-1 #
coedge $-1 $107 $171 $279 $285 reversed $67 $-1 #
coedge $-1 $281 $286 $107 $174 forward $287 $-1 #
edge $-1 $288 -33.616513181390708 $289 -28.384312439636865 $173 $290 forward 7 unknown #
loop $-1 $-1 $180 $108 #
plane-surface $-1 -28.676250633138601 12.319365332582468 55.966600438226862 0.54463904215088732 0 0.83867056331134215 0.83867056331134215 0 -0.54463904215088732 forward_v I I I I #
loop $-1 $-1 $291 $69 #
coedge $-1 $178 $178 $179 $292 reversed $109 $-1 #
coedge $-1 $179 $179 $178 $292 forward $111 $-1 #
coedge $-1 $180 $180 $112 $181 forward $175 $-1 #
edge $-1 $293 0 $293 6.2831853071796004 $180 $294 forward 7 unknown #
loop $-1 $-1 $187 $113 #
plane-surface $-1 -28.676250633138601 12.319365332582468 55.966600438226862 0.54463904215088732 0 0.83867056331134215 0.83867056331134215 0 -0.54463904215088732 forward_v I I I I #
loop $-1 $-1 $295 $72 #
coedge $-1 $185 $185 $186 $296 reversed $114 $-1 #
coedge $-1 $186 $186 $185 $296 forward $116 $-1 #
coedge $-1 $187 $187 $117 $188 forward $182 $-1 #
edge $-1 $297 0 $297 6.2831853071796004 $187 $298 forward 7 unknown #
loop $-1 $-1 $194 $118 #
plane-surface $-1 -28.676250633138601 12.319365332582468 55.966600438226862 0.54463904215088732 0 0.83867056331134215 0.83867056331134215 0 -0.54463904215088732 forward_v I I I I #
loop $-1 $-1 $299 $75 #
coedge $-1 $192 $192 $193 $300 reversed $119 $-1 #
coedge $-1 $193 $193 $192 $300 forward $121 $-1 #
coedge $-1 $194 $194 $122 $195 forward $189 $-1 #
edge $-1 $301 0 $301 6.2831853071796004 $194 $302 forward 7 unknown #
face $-1 $303 $304 $42 $-1 $305 forward single #
loop $-1 $-1 $306 $123 #
plane-surface $-1 -98.993789698730239 -4.2264701564500218 63.946084383602731 0 -1 0 0.66913061440640931 0 -0.74314481823134659 forward_v I I I I #
coedge $-1 $307 $308 $309 $310 reversed $124 $-1 #
coedge $-1 $201 $126 $311 $312 reversed $79 $-1 #
coedge $-1 $126 $200 $307 $313 reversed $79 $-1 #
coedge $-1 $309 $314 $126 $203 forward $304 $-1 #
edge $-1 $315 7.1603977638827772 $316 20.739218562032594 $202 $317 forward 7 unknown #
loop $-1 $-1 $209 $127 #
plane-surface $-1 -42.336497085482328 -7.7683269908486814 1.0217875213173073 -0.66913061440640931 0 0.74314481823134659 0.74314481823134659 0 0.66913061440640931 forward_v I I I I #
loop $-1 $-1 $318 $81 #
coedge $-1 $207 $207 $208 $319 reversed $128 $-1 #
coedge $-1 $208 $208 $207 $319 forward $130 $-1 #
coedge $-1 $209 $209 $131 $210 forward $204 $-1 #
edge $-1 $320 0 $320 6.2831853071796004 $209 $321 forward 7 unknown #
loop $-1 $-1 $216 $132 #
plane-surface $-1 -42.336497085482328 -7.7683269908486814 1.0217875213173073 -0.66913061440640931 0 0.74314481823134659 0.74314481823134659 0 0.66913061440640931 forward_v I I I I #
loop $-1 $-1 $322 $84 #
coedge $-1 $214 $214 $215 $323 reversed $133 $-1 #
coedge $-1 $215 $215 $214 $323 forward $135 $-1 #
coedge $-1 $216 $216 $136 $217 forward $211 $-1 #
edge $-1 $324 0 $324 6.2831853071796004 $216 $325 forward 7 unknown #
face $-1 $326 $327 $45 $-1 $328 forward single #
loop $-1 $-1 $329 $137 #
plane-surface $-1 -98.993789698730239 26.862640539616912 63.946084383602731 0 -1 0 0.66913061440640931 0 -0.74314481823134659 forward_v I I I I #
coedge $-1 $330 $331 $332 $333 reversed $138 $-1 #
coedge $-1 $223 $140 $334 $335 reversed $88 $-1 #
coedge $-1 $140 $222 $330 $336 reversed $88 $-1 #
coedge $-1 $332 $337 $140 $225 forward $327 $-1 #
edge $-1 $338 7.1603977638827772 $339 20.739218562032594 $224 $340 forward 7 unknown #
loop $-1 $-1 $231 $141 #
plane-surface $-1 -42.336497085482328 23.320783705218251 1.0217875213173073 -0.66913061440640931 0 0.74314481823134659 0.74314481823134659 0 0.66913061440640931 forward_v I I I I #
loop $-1 $-1 $341 $90 #
coedge $-1 $229 $229 $230 $342 reversed $142 $-1 #
coedge $-1 $230 $230 $229 $342 forward $144 $-1 #
coedge $-1 $231 $231 $145 $232 forward $226 $-1 #
edge $-1 $343 0 $343 6.2831853071796004 $231 $344 forward 7 unknown #
loop $-1 $-1 $238 $146 #
plane-surface $-1 -42.336497085482328 23.320783705218251 1.0217875213173073 -0.66913061440640931 0 0.74314481823134659 0.74314481823134659 0 0.66913061440640931 forward_v I I I I #
loop $-1 $-1 $345 $93 #
coedge $-1 $236 $236 $237 $346 reversed $147 $-1 #
coedge $-1 $237 $237 $236 $346 forward $149 $-1 #
coedge $-1 $238 $238 $150 $239 forward $233 $-1 #
edge $-1 $347 0 $347 6.2831853071796004 $238 $348 forward 7 unknown #
face $-1 $349 $350 $36 $-1 $351 reversed single #
loop $-1 $-1 $352 $151 #
plane-surface $-1 -42.336497085482343 0 0 1 0 0 0 0 -1 forward_v I I I I #
coedge $-1 $353 $251 $354 $355 forward $152 $-1 #
coedge $-1 $356 $154 $353 $357 forward $97 $-1 #
coedge $-1 $154 $356 $358 $359 forward $97 $-1 #
coedge $-1 $254 $253 $154 $247 reversed $255 $-1 #
edge $-1 $360 -29.318092064152861 $361 29.318092064152861 $246 $362 forward 7 unknown #
coedge $-1 $156 $155 $363 $364 forward $61 $-1 #
coedge $-1 $365 $366 $155 $250 reversed $350 $-1 #
edge $-1 $257 -42.336497085482343 $367 42.336497085482343 $249 $368 forward 7 unknown #
coedge $-1 $243 $369 $156 $252 reversed $152 $-1 #
edge $-1 $370 -42.336497085482343 $256 42.336497085482343 $251 $371 forward 7 unknown #
coedge $-1 $246 $157 $369 $372 forward $255 $-1 #
coedge $-1 $157 $246 $365 $373 reversed $255 $-1 #
loop $-1 $-1 $253 $349 #
vertex $-1 $158 $374 #
vertex $-1 $158 $375 #
straight-curve $-1 42.336497085482343 0 13.248212951026709 0 1 0 I I #
face $-1 $376 $377 $37 $-1 $378 reversed single #
loop $-1 $-1 $265 $159 #
plane-surface $-1 42.336497085482343 0 0 -1 0 0 0 0 1 forward_v I I I I #
coedge $-1 $379 $380 $263 $381 forward $160 $-1 #
coedge $-1 $382 $162 $262 $381 reversed $101 $-1 #
coedge $-1 $162 $382 $163 $268 reversed $101 $-1 #
coedge $-1 $165 $383 $162 $266 forward $260 $-1 #
edge $-1 $384 -8.3957977118411069 $272 -1.3090327665300956 $265 $385 forward 7 unknown #
coedge $-1 $164 $163 $386 $387 reversed $64 $-1 #
edge $-1 $272 -42.336497085482343 $388 42.336497085482343 $264 $389 forward 7 unknown #
coedge $-1 $390 $391 $164 $270 forward $377 $-1 #
edge $-1 $273 -42.336497085482343 $392 42.336497085482343 $269 $393 forward 7 unknown #
coedge $-1 $383 $165 $391 $394 forward $260 $-1 #
vertex $-1 $166 $395 #
vertex $-1 $394 $396 #
straight-curve $-1 42.336497085482343 -10.77093185348404 -6.1614480057156973 0 -1 0 I I #
face $-1 $-1 $287 $38 $-1 $397 forward single #
loop $-1 $-1 $398 $167 #
plane-surface $-1 42.336497085482343 0 0 -1 0 0 0 0 1 forward_v I I I I #
coedge $-1 $399 $400 $401 $402 reversed $168 $-1 #
coedge $-1 $403 $170 $172 $285 forward $105 $-1 #
coedge $-1 $170 $403 $399 $404 forward $105 $-1 #
coedge $-1 $401 $173 $170 $282 forward $287 $-1 #
edge $-1 $289 -9.2505607093344704 $405 -3.0688046232479973 $281 $406 forward 7 unknown #
coedge $-1 $407 $408 $171 $284 forward $276 $-1 #
edge $-1 $409 -53.63929208151891 $288 -50.241461127397194 $283 $410 forward 7 unknown #
edge $-1 $289 78.434310031276482 $409 84.672994170964685 $172 $411 forward 7 unknown #
coedge $-1 $173 $401 $407 $412 forward $287 $-1 #
loop $-1 $-1 $401 $275 #
vertex $-1 $284 $413 #
vertex $-1 $174 $414 #
straight-curve $-1 8.7199839040916345 15.410243375625704 13.248212951026709 -1 0 0 I I #
coedge $-1 $291 $291 $-1 $415 reversed $177 $-1 #
edge $-1 $416 0 $416 6.2831853071796004 $178 $417 forward 7 unknown #
vertex $-1 $181 $418 #
ellipse-curve $-1 39.720396714605414 10.464838506756525 11.549297473965854 0.54463904215088732 0 0.83867056331134215 0.41933528165567108 0 -0.27231952107544366 1 I I #
coedge $-1 $295 $295 $-1 $419 reversed $184 $-1 #
edge $-1 $420 0 $420 6.2831853071796004 $185 $421 forward 7 unknown #
vertex $-1 $188 $422 #
ellipse-curve $-1 39.720396714605414 12.319365332582468 11.549297473965854 0.54463904215088732 0 0.83867056331134215 0.41933528165567108 0 -0.27231952107544366 1 I I #
coedge $-1 $299 $299 $-1 $423 reversed $191 $-1 #
edge $-1 $424 0 $424 6.2831853071796004 $192 $425 forward 7 unknown #
vertex $-1 $195 $426 #
ellipse-curve $-1 39.720396714605414 14.17389215840841 11.549297473965854 0.54463904215088732 0 0.83867056331134215 0.41933528165567108 0 -0.27231952107544366 1 I I #
face $-1 $-1 $427 $42 $-1 $428 reversed single #
loop $-1 $-1 $202 $196 #
plane-surface $-1 0 0 13.248212951026709 0 0 1 1 0 0 forward_v I I I I #
coedge $-1 $429 $430 $431 $432 reversed $197 $-1 #
coedge $-1 $433 $199 $201 $313 forward $124 $-1 #
coedge $-1 $199 $433 $429 $434 forward $124 $-1 #
coedge $-1 $431 $202 $199 $310 forward $304 $-1 #
edge $-1 $316 -7.4260203298230003 $435 -0.34230666102568108 $309 $436 forward 7 unknown #
coedge $-1 $437 $438 $200 $312 forward $427 $-1 #
edge $-1 $439 -30.951254670484072 $315 -18.724829240774657 $311 $440 forward 7 unknown #
edge $-1 $316 -18.272105873612659 $439 1.9178179933549516e-014 $201 $441 forward 7 unknown #
coedge $-1 $202 $431 $437 $442 forward $304 $-1 #
vertex $-1 $312 $443 #
vertex $-1 $203 $444 #
straight-curve $-1 -49.49689484936512 -11.310183825247341 13.248212951026709 1 0 0 I I #
coedge $-1 $318 $318 $-1 $445 reversed $206 $-1 #
edge $-1 $446 0 $446 6.2831853071796004 $207 $447 forward 7 unknown #
vertex $-1 $210 $448 #
ellipse-curve $-1 -35.54708668640744 -9.2862656341623904 7.135000236172 -0.66913061440640931 0 0.74314481823134659 0.74314481823134659 0 0.66913061440640931 1 I I #
coedge $-1 $322 $322 $-1 $449 reversed $213 $-1 #
edge $-1 $450 0 $450 6.2831853071796004 $214 $451 forward 7 unknown #
vertex $-1 $217 $452 #
ellipse-curve $-1 -35.54708668640744 -6.2503883475349689 7.135000236172 -0.66913061440640931 0 0.74314481823134659 0.74314481823134659 0 0.66913061440640931 1 I I #
face $-1 $-1 $453 $45 $-1 $454 reversed single #
loop $-1 $-1 $224 $218 #
plane-surface $-1 0 0 13.248212951026709 0 0 1 1 0 0 forward_v I I I I #
coedge $-1 $455 $456 $457 $458 reversed $219 $-1 #
coedge $-1 $459 $221 $223 $336 forward $138 $-1 #
coedge $-1 $221 $459 $455 $460 forward $138 $-1 #
coedge $-1 $457 $224 $221 $333 forward $327 $-1 #
edge $-1 $339 8.1185350182104639 $461 15.202248687007787 $332 $462 forward 7 unknown #
coedge $-1 $463 $464 $222 $335 forward $453 $-1 #
edge $-1 $465 -30.951254670484072 $338 -18.724829240774657 $334 $466 forward 7 unknown #
edge $-1 $339 -18.272105873612659 $465 1.9178179933549516e-014 $223 $467 forward 7 unknown #
coedge $-1 $224 $457 $463 $468 forward $327 $-1 #
vertex $-1 $225 $469 #
vertex $-1 $225 $470 #
straight-curve $-1 -49.49689484936512 19.778926870819589 13.248212951026709 1 0 0 I I #
coedge $-1 $341 $341 $-1 $471 reversed $228 $-1 #
edge $-1 $472 0 $472 6.2831853071796004 $229 $473 forward 7 unknown #
vertex $-1 $232 $474 #
ellipse-curve $-1 -35.54708668640744 21.802845061904545 7.135000236172 -0.66913061440640931 0 0.74314481823134659 0.74314481823134659 0 0.66913061440640931 1 I I #
coedge $-1 $345 $345 $-1 $475 reversed $235 $-1 #
edge $-1 $476 0 $476 6.2831853071796004 $236 $477 forward 7 unknown #
vertex $-1 $239 $478 #
ellipse-curve $-1 -35.54708668640744 24.838722348531963 7.135000236172 -0.66913061440640931 0 0.74314481823134659 0.74314481823134659 0 0.66913061440640931 1 I I #
face $-1 $-1 $255 $36 $-1 $479 reversed single #
loop $-1 $-1 $365 $240 #
plane-surface $-1 0 29.318092064152861 0 0 -1 0 0 0 -1 forward_v I I I I #
coedge $-1 $480 $363 $366 $481 forward $241 $-1 #
coedge $-1 $369 $243 $244 $357 reversed $152 $-1 #
coedge $-1 $363 $480 $243 $355 reversed $241 $-1 #
edge $-1 $370 -13.248212951026709 $482 13.248212951026709 $354 $483 forward 7 unknown #
coedge $-1 $245 $244 $480 $484 forward $97 $-1 #
edge $-1 $361 -42.336497085482343 $482 42.336497085482343 $353 $485 forward 7 unknown #
coedge $-1 $366 $365 $245 $359 reversed $350 $-1 #
edge $-1 $486 -42.336497085482343 $360 42.336497085482343 $358 $487 forward 7 unknown #
vertex $-1 $247 $488 #
vertex $-1 $372 $489 #
straight-curve $-1 42.336497085482343 0 -13.248212951026709 0 -1 0 I I #
coedge $-1 $352 $354 $248 $364 reversed $241 $-1 #
edge $-1 $367 -29.318092064152861 $370 29.318092064152861 $363 $490 forward 7 unknown #
coedge $-1 $358 $249 $254 $373 forward $350 $-1 #
coedge $-1 $249 $358 $352 $481 reversed $350 $-1 #
vertex $-1 $250 $491 #
straight-curve $-1 0 29.318092064152861 13.248212951026709 -1 0 0 I I #
coedge $-1 $251 $353 $253 $372 reversed $152 $-1 #
vertex $-1 $364 $492 #
straight-curve $-1 0 -29.318092064152861 13.248212951026709 1 0 0 I I #
edge $-1 $256 -13.248212951026709 $361 13.248212951026709 $253 $493 forward 7 unknown #
edge $-1 $257 -13.248212951026709 $360 13.248212951026709 $254 $494 forward 7 unknown #
point $-1 42.336497085482343 -29.318092064152861 13.248212951026709 #
point $-1 42.336497085482343 29.318092064152861 13.248212951026709 #
face $-1 $-1 $495 $37 $-1 $496 reversed single #
loop $-1 $-1 $269 $259 #
plane-surface $-1 0 -29.318092064152861 0 0 1 0 0 0 1 forward_v I I I I #
coedge $-1 $497 $262 $383 $498 forward $160 $-1 #
coedge $-1 $262 $497 $499 $500 forward $160 $-1 #
edge $-1 $501 -42.336497085482343 $384 42.336497085482343 $262 $502 forward 7 unknown #
coedge $-1 $264 $263 $503 $504 reversed $101 $-1 #
coedge $-1 $265 $271 $379 $498 reversed $260 $-1 #
vertex $-1 $498 $505 #
straight-curve $-1 42.336497085482343 -13.765635349783299 -4.8524152391856017 0 0 1 I I #
coedge $-1 $503 $506 $267 $387 forward $495 $-1 #
edge $-1 $392 -18.547160210668821 $388 -2.9947034962992589 $386 $507 forward 7 unknown #
vertex $-1 $387 $508 #
straight-curve $-1 0 -13.765635349783299 -6.1614480057156973 -1 0 0 I I #
coedge $-1 $509 $269 $506 $510 forward $377 $-1 #
coedge $-1 $269 $509 $271 $394 reversed $377 $-1 #
vertex $-1 $510 $511 #
straight-curve $-1 0 -29.318092064152861 -6.1614480057156973 -1 0 0 I I #
edge $-1 $273 6.1614480057156973 $512 13.248212951026709 $271 $513 forward 7 unknown #
point $-1 42.336497085482343 -13.765635349783299 -6.1614480057156973 #
point $-1 42.336497085482343 -29.318092064152861 -6.1614480057156973 #
plane-surface $-1 0 0 13.248212951026709 0 0 1 1 0 0 forward_v I I I I #
coedge $-1 $408 $407 $400 $514 forward $276 $-1 #
coedge $-1 $400 $278 $280 $404 reversed $168 $-1 #
coedge $-1 $278 $399 $398 $514 reversed $168 $-1 #
coedge $-1 $286 $281 $278 $402 forward $287 $-1 #
edge $-1 $405 28.384312439636865 $515 33.616513181390708 $401 $516 forward 7 unknown #
coedge $-1 $280 $279 $408 $517 reversed $105 $-1 #
edge $-1 $518 -84.672994170964685 $405 -78.434310031276482 $399 $519 forward 7 unknown #
vertex $-1 $282 $520 #
straight-curve $-1 37.104296343728507 6.1596826662912338 13.248212951026709 0 -1 0 I I #
coedge $-1 $398 $283 $286 $412 reversed $276 $-1 #
coedge $-1 $283 $398 $403 $517 forward $276 $-1 #
vertex $-1 $284 $521 #
straight-curve $-1 42.336497085482343 15.410243375625704 63.489674078423903 0 0 1 I I #
straight-curve $-1 -28.676250633138601 15.410243375625704 55.966600438226862 0.83867056331134215 0 -0.54463904215088732 I I #
edge $-1 $515 9.2284872895392311 $288 15.410243375625704 $407 $522 forward 7 unknown #
point $-1 42.336497085482343 15.410243375625704 13.248212951026709 #
point $-1 37.1042963437285 15.410243375625704 13.248212951026709 #
edge $-1 $523 1 $523 0 $291 $-1 forward 7 unknown #
vertex $-1 $292 $524 #
ellipse-curve $-1 38.8531163428488 10.464838506756525 10.213802840570693 0.54463904215088732 0 0.83867056331134215 0.41933528165567108 0 -0.27231952107544366 1 I I #
point $-1 40.139731996261084 10.464838506756525 11.276977952890412 #
edge $-1 $525 1 $525 0 $295 $-1 forward 7 unknown #
vertex $-1 $296 $526 #
ellipse-curve $-1 38.8531163428488 12.319365332582468 10.213802840570693 0.54463904215088732 0 0.83867056331134215 0.41933528165567108 0 -0.27231952107544366 1 I I #
point $-1 40.139731996261084 12.319365332582468 11.276977952890412 #
edge $-1 $527 1 $527 0 $299 $-1 forward 7 unknown #
vertex $-1 $300 $528 #
ellipse-curve $-1 38.8531163428488 14.17389215840841 10.213802840570693 0.54463904215088732 0 0.83867056331134215 0.41933528165567108 0 -0.27231952107544366 1 I I #
point $-1 40.139731996261084 14.17389215840841 11.276977952890412 #
loop $-1 $-1 $311 $303 #
plane-surface $-1 -42.336497085482343 0 0 1 0 0 0 0 -1 forward_v I I I I #
coedge $-1 $430 $306 $308 $434 reversed $197 $-1 #
coedge $-1 $306 $429 $529 $530 reversed $197 $-1 #
coedge $-1 $314 $309 $306 $432 forward $304 $-1 #
edge $-1 $435 -20.739218562032594 $531 -7.1603977638827772 $431 $532 forward 7 unknown #
coedge $-1 $308 $307 $438 $533 reversed $124 $-1 #
edge $-1 $534 -1.9178179933549516e-014 $435 18.272105873612659 $429 $535 forward 7 unknown #
vertex $-1 $310 $536 #
straight-curve $-1 -28.757676287332526 -3.8841634954243407 13.248212951026709 0 1 0 I I #
coedge $-1 $529 $311 $314 $442 reversed $427 $-1 #
coedge $-1 $311 $529 $433 $533 forward $427 $-1 #
vertex $-1 $312 $537 #
straight-curve $-1 -42.336497085482343 -11.310183825247341 31.973042191801365 0 0 1 I I #
straight-curve $-1 -42.336497085482328 -11.310183825247341 1.0217875213173073 -0.74314481823134659 0 -0.66913061440640931 I I #
edge $-1 $531 4.2264701564500218 $315 11.310183825247341 $437 $538 forward 7 unknown #
point $-1 -42.336497085482343 -11.310183825247341 13.248212951026709 #
point $-1 -28.757676287332526 -11.310183825247341 13.248212951026709 #
edge $-1 $539 1 $539 0 $318 $-1 forward 7 unknown #
vertex $-1 $319 $540 #
ellipse-curve $-1 -34.291121559650286 -9.2862656341623904 5.7401096785835595 -0.66913061440640931 0 0.74314481823134659 0.74314481823134659 0 0.66913061440640931 1 I I #
point $-1 -34.803941868176096 -9.2862656341623904 7.804130850578419 #
edge $-1 $541 1 $541 0 $322 $-1 forward 7 unknown #
vertex $-1 $323 $542 #
ellipse-curve $-1 -34.291121559650286 -6.2503883475349689 5.7401096785835595 -0.66913061440640931 0 0.74314481823134659 0.74314481823134659 0 0.66913061440640931 1 I I #
point $-1 -34.803941868176096 -6.2503883475349689 7.804130850578419 #
loop $-1 $-1 $334 $326 #
plane-surface $-1 -42.336497085482343 0 0 1 0 0 0 0 -1 forward_v I I I I #
coedge $-1 $456 $329 $331 $460 reversed $219 $-1 #
coedge $-1 $329 $455 $543 $544 reversed $219 $-1 #
coedge $-1 $337 $332 $329 $458 forward $327 $-1 #
edge $-1 $461 -20.739218562032594 $545 -7.1603977638827772 $457 $546 forward 7 unknown #
coedge $-1 $331 $330 $464 $547 reversed $138 $-1 #
edge $-1 $548 -1.9178179933549516e-014 $461 18.272105873612659 $455 $549 forward 7 unknown #
vertex $-1 $333 $550 #
straight-curve $-1 -28.757676287332526 11.660391852609125 13.248212951026709 0 1 0 I I #
coedge $-1 $543 $334 $337 $468 reversed $453 $-1 #
coedge $-1 $334 $543 $459 $547 forward $453 $-1 #
vertex $-1 $335 $551 #
straight-curve $-1 -42.336497085482343 19.778926870819589 31.973042191801365 0 0 1 I I #
straight-curve $-1 -42.336497085482328 19.778926870819589 1.0217875213173073 -0.74314481823134659 0 -0.66913061440640931 I I #
edge $-1 $545 -26.862640539616912 $338 -19.778926870819589 $463 $552 forward 7 unknown #
point $-1 -42.336497085482343 19.778926870819589 13.248212951026709 #
point $-1 -28.757676287332526 19.778926870819589 13.248212951026709 #
edge $-1 $553 1 $553 0 $341 $-1 forward 7 unknown #
vertex $-1 $342 $554 #
ellipse-curve $-1 -34.291121559650286 21.802845061904545 5.7401096785835595 -0.66913061440640931 0 0.74314481823134659 0.74314481823134659 0 0.66913061440640931 1 I I #
point $-1 -34.803941868176096 21.802845061904545 7.804130850578419 #
edge $-1 $555 1 $555 0 $345 $-1 forward 7 unknown #
vertex $-1 $346 $556 #
ellipse-curve $-1 -34.291121559650286 24.838722348531963 5.7401096785835595 -0.66913061440640931 0 0.74314481823134659 0.74314481823134659 0 0.66913061440640931 1 I I #
point $-1 -34.803941868176096 24.838722348531963 7.804130850578419 #
plane-surface $-1 42.336497085482343 0 0 -1 0 0 0 0 1 forward_v I I I I #
coedge $-1 $354 $352 $356 $484 reversed $241 $-1 #
edge $-1 $367 -13.248212951026709 $486 13.248212951026709 $366 $557 forward 7 unknown #
vertex $-1 $484 $558 #
straight-curve $-1 -42.336497085482343 -29.318092064152861 0 0 0 -1 I I #
edge $-1 $482 -29.318092064152861 $486 29.318092064152861 $480 $559 forward 7 unknown #
straight-curve $-1 0 -29.318092064152861 -13.248212951026709 -1 0 0 I I #
vertex $-1 $359 $560 #
straight-curve $-1 0 29.318092064152861 -13.248212951026709 1 0 0 I I #
point $-1 42.336497085482343 29.318092064152861 -13.248212951026709 #
point $-1 42.336497085482343 -29.318092064152861 -13.248212951026709 #
straight-curve $-1 -42.336497085482343 0 13.248212951026709 0 -1 0 I I #
point $-1 -42.336497085482343 29.318092064152861 13.248212951026709 #
point $-1 -42.336497085482343 -29.318092064152861 13.248212951026709 #
straight-curve $-1 42.336497085482343 -29.318092064152861 0 0 0 -1 I I #
straight-curve $-1 42.336497085482343 29.318092064152861 0 0 0 -1 I I #
loop $-1 $-1 $503 $376 #
plane-surface $-1 -42.336497085482343 0 0 1 0 0 0 0 -1 forward_v I I I I #
coedge $-1 $380 $379 $509 $561 forward $160 $-1 #
edge $-1 $384 13.765635349783299 $512 29.318092064152861 $383 $562 forward 7 unknown #
coedge $-1 $506 $503 $380 $500 reversed $495 $-1 #
edge $-1 $563 -29.318092064152861 $501 -13.765635349783299 $499 $564 forward 7 unknown #
vertex $-1 $504 $565 #
straight-curve $-1 0 -13.765635349783299 -13.248212951026709 1 0 0 I I #
coedge $-1 $499 $386 $382 $504 forward $495 $-1 #
edge $-1 $388 1.3090327665300956 $501 8.3957977118411069 $503 $566 forward 7 unknown #
point $-1 42.336497085482343 -13.765635349783299 -13.248212951026709 #
coedge $-1 $386 $499 $390 $510 reversed $495 $-1 #
straight-curve $-1 -42.336497085482343 -10.77093185348404 -6.1614480057156973 0 1 0 I I #
point $-1 -42.336497085482343 -13.765635349783299 -6.1614480057156973 #
coedge $-1 $391 $390 $497 $561 reversed $377 $-1 #
edge $-1 $392 6.1614480057156973 $563 13.248212951026709 $506 $567 forward 7 unknown #
point $-1 -42.336497085482343 -29.318092064152861 -6.1614480057156973 #
vertex $-1 $394 $568 #
straight-curve $-1 42.336497085482343 -29.318092064152861 0 0 0 -1 I I #
edge $-1 $515 50.241461127397194 $518 53.63929208151891 $398 $569 forward 7 unknown #
vertex $-1 $412 $570 #
straight-curve $-1 8.7199839040916345 9.2284872895392311 13.248212951026709 1 0 0 I I #
edge $-1 $518 3.0688046232479973 $409 9.2505607093344704 $408 $571 forward 7 unknown #
vertex $-1 $517 $572 #
straight-curve $-1 -28.676250633138601 9.2284872895392311 55.966600438226862 -0.83867056331134215 0 0.54463904215088732 I I #
point $-1 37.1042963437285 9.2284872895392311 13.248212951026709 #
point $-1 42.336497085482343 15.410243375625704 9.8503819969049928 #
straight-curve $-1 42.336497085482343 0 13.248212951026709 0 1 0 I I #
vertex $-1 $415 $573 #
point $-1 39.27245162450447 10.464838506756525 9.9414833194952497 #
vertex $-1 $419 $574 #
point $-1 39.27245162450447 12.319365332582468 9.9414833194952497 #
vertex $-1 $423 $575 #
point $-1 39.27245162450447 14.17389215840841 9.9414833194952497 #
coedge $-1 $438 $437 $430 $530 forward $427 $-1 #
edge $-1 $531 18.724829240774657 $534 30.951254670484072 $529 $576 forward 7 unknown #
vertex $-1 $442 $577 #
straight-curve $-1 -49.49689484936512 -4.2264701564500218 13.248212951026709 -1 0 0 I I #
edge $-1 $534 0.34230666102568108 $439 7.4260203298230003 $438 $578 forward 7 unknown #
vertex $-1 $533 $579 #
straight-curve $-1 -42.336497085482328 -4.2264701564500218 1.0217875213173073 0.74314481823134659 0 0.66913061440640931 I I #
point $-1 -28.757676287332526 -4.2264701564500218 13.248212951026709 #
point $-1 -42.336497085482343 -11.310183825247341 1.0217875213172944 #
straight-curve $-1 -42.336497085482343 0 13.248212951026709 0 -1 0 I I #
vertex $-1 $445 $580 #
point $-1 -33.547976741418935 -9.2862656341623904 6.4092402929899688 #
vertex $-1 $449 $581 #
point $-1 -33.547976741418935 -6.2503883475349689 6.4092402929899688 #
coedge $-1 $464 $463 $456 $544 forward $453 $-1 #
edge $-1 $545 18.724829240774657 $548 30.951254670484072 $543 $582 forward 7 unknown #
vertex $-1 $468 $583 #
straight-curve $-1 -49.49689484936512 26.862640539616912 13.248212951026709 -1 0 0 I I #
edge $-1 $548 -15.202248687007787 $465 -8.1185350182104639 $464 $584 forward 7 unknown #
vertex $-1 $547 $585 #
straight-curve $-1 -42.336497085482328 26.862640539616912 1.0217875213173073 0.74314481823134659 0 0.66913061440640931 I I #
point $-1 -28.757676287332526 26.862640539616912 13.248212951026709 #
point $-1 -42.336497085482343 19.778926870819589 1.0217875213172944 #
straight-curve $-1 -42.336497085482343 0 13.248212951026709 0 -1 0 I I #
vertex $-1 $471 $586 #
point $-1 -33.547976741418935 21.802845061904545 6.4092402929899688 #
vertex $-1 $475 $587 #
point $-1 -33.547976741418935 24.838722348531963 6.4092402929899688 #
straight-curve $-1 -42.336497085482343 29.318092064152861 0 0 0 -1 I I #
point $-1 -42.336497085482343 -29.318092064152861 -13.248212951026709 #
straight-curve $-1 -42.336497085482343 0 -13.248212951026709 0 1 0 I I #
point $-1 -42.336497085482343 29.318092064152861 -13.248212951026709 #
edge $-1 $512 -42.336497085482343 $563 42.336497085482343 $509 $588 forward 7 unknown #
straight-curve $-1 42.336497085482343 0 -13.248212951026709 0 -1 0 I I #
vertex $-1 $500 $589 #
straight-curve $-1 -42.336497085482343 0 -13.248212951026709 0 1 0 I I #
point $-1 -42.336497085482343 -13.765635349783299 -13.248212951026709 #
straight-curve $-1 -42.336497085482343 -13.765635349783299 -4.8524152391856017 0 0 -1 I I #
straight-curve $-1 -42.336497085482343 -29.318092064152861 0 0 0 -1 I I #
point $-1 42.336497085482343 -29.318092064152861 -13.248212951026709 #
straight-curve $-1 42.336497085482343 9.2284872895392311 63.489674078423903 0 0 -1 I I #
point $-1 42.336497085482343 9.2284872895392311 13.248212951026709 #
straight-curve $-1 42.336497085482343 6.1596826662912338 9.8503819969049893 0 1 0 I I #
point $-1 42.336497085482343 9.2284872895392311 9.8503819969049928 #
point $-1 38.580796821773355 10.464838506756525 9.7944675589150236 #
point $-1 38.580796821773355 12.319365332582468 9.7944675589150236 #
point $-1 38.580796821773355 14.17389215840841 9.7944675589150236 #
straight-curve $-1 -42.336497085482343 -4.2264701564500218 31.973042191801365 0 0 -1 I I #
point $-1 -42.336497085482343 -4.2264701564500218 13.248212951026709 #
straight-curve $-1 -42.336497085482343 -3.8841634954243407 1.0217875213172964 0 -1 0 I I #
point $-1 -42.336497085482343 -4.2264701564500218 1.0217875213172944 #
point $-1 -33.621990945243873 -9.2862656341623904 4.9969648603522128 #
point $-1 -33.621990945243873 -6.2503883475349689 4.9969648603522128 #
straight-curve $-1 -42.336497085482343 26.862640539616912 31.973042191801365 0 0 -1 I I #
point $-1 -42.336497085482343 26.862640539616912 13.248212951026709 #
straight-curve $-1 -42.336497085482343 11.660391852609125 1.0217875213172964 0 -1 0 I I #
point $-1 -42.336497085482343 26.862640539616912 1.0217875213172944 #
point $-1 -33.621990945243873 21.802845061904545 4.9969648603522128 #
point $-1 -33.621990945243873 24.838722348531963 4.9969648603522128 #
straight-curve $-1 0 -29.318092064152861 -13.248212951026709 -1 0 0 I I #
point $-1 -42.336497085482343 -29.318092064152861 -13.248212951026709 #
End-of-ACIS-data 