500 0 2 0           
7 Unknown 11 ACIS 5.0 NT 24 Fri Mar 26 01:47:07 1999 
-1 9.9999999999999995e-007 1e-010 
body $-1 $2 $-1 $3 #
body $-1 $4 $-1 $5 #
lump $-1 $-1 $6 $0 #
transform $-1 1 0 0 0 1 0 0 0 1 76.43055513168737 50.257282751635771 13.625311176615387 1 rotate no_reflect no_shear #
lump $-1 $-1 $7 $1 #
transform $-1 1 0 0 0 1 0 0 0 1 76.43055513168737 50.257282751635771 13.625311176615387 1 rotate no_reflect no_shear #
shell $-1 $-1 $-1 $8 $-1 $2 #
shell $-1 $-1 $-1 $9 $-1 $4 #
face $-1 $10 $11 $6 $-1 $12 forward single #
face $-1 $13 $14 $7 $-1 $15 reversed single #
face $-1 $16 $17 $6 $-1 $18 reversed single #
loop $-1 $-1 $19 $8 #
plane-surface $-1 0 0 13.625311176615387 0 0 1 1 0 0 forward_v I I I I #
face $-1 $20 $21 $7 $-1 $22 reversed single #
loop $-1 $-1 $23 $9 #
plane-surface $-1 -71.645350171031609 0 9.6015468365282111 0 0 1 1 0 0 forward_v I I I I #
face $-1 $24 $25 $6 $-1 $26 reversed single #
loop $-1 $-1 $27 $10 #
plane-surface $-1 0 0 -13.625311176615387 0 0 1 1 0 0 forward_v I I I I #
coedge $-1 $28 $29 $30 $31 forward $11 $-1 #
face $-1 $32 $33 $7 $-1 $34 reversed single #
loop $-1 $-1 $35 $13 #
plane-surface $-1 -66.860145210375848 0 11.613429006571799 -1 0 0 0 0 1 forward_v I I I I #
coedge $-1 $36 $37 $38 $39 forward $14 $-1 #
face $-1 $40 $41 $6 $-1 $42 reversed single #
loop $-1 $-1 $43 $16 #
plane-surface $-1 0 -50.257282751635771 0 0 1 0 0 0 1 forward_v I I I I #
coedge $-1 $44 $45 $46 $47 forward $17 $-1 #
coedge $-1 $48 $19 $49 $50 forward $11 $-1 #
coedge $-1 $19 $48 $51 $52 forward $11 $-1 #
coedge $-1 $53 $54 $19 $31 reversed $55 $-1 #
edge $-1 $56 -50.257282751635771 $57 50.257282751635771 $30 $58 forward 7 unknown #
face $-1 $59 $60 $7 $-1 $61 reversed single #
loop $-1 $-1 $62 $20 #
plane-surface $-1 0 50.257282751635771 0 0 -1 0 0 0 -1 forward_v I I I I #
coedge $-1 $38 $63 $64 $65 reversed $21 $-1 #
coedge $-1 $66 $23 $67 $68 reversed $14 $-1 #
coedge $-1 $23 $66 $69 $70 reversed $14 $-1 #
coedge $-1 $71 $35 $23 $39 reversed $21 $-1 #
edge $-1 $72 -50.257282751635771 $73 50.257282751635771 $38 $74 forward 7 unknown #
face $-1 $75 $76 $6 $-1 $77 reversed single #
loop $-1 $-1 $78 $24 #
plane-surface $-1 -76.43055513168737 0 0 1 0 0 0 0 -1 forward_v I I I I #
coedge $-1 $79 $51 $80 $81 forward $25 $-1 #
coedge $-1 $82 $27 $79 $83 forward $17 $-1 #
coedge $-1 $27 $82 $84 $85 forward $17 $-1 #
coedge $-1 $54 $53 $27 $47 reversed $55 $-1 #
edge $-1 $86 -50.257282751635771 $87 50.257282751635771 $46 $88 forward 7 unknown #
coedge $-1 $29 $28 $89 $90 forward $11 $-1 #
coedge $-1 $91 $92 $28 $50 reversed $76 $-1 #
edge $-1 $57 -76.43055513168737 $93 76.43055513168737 $49 $94 forward 7 unknown #
coedge $-1 $43 $95 $29 $52 reversed $25 $-1 #
edge $-1 $96 -76.43055513168737 $56 76.43055513168737 $51 $97 forward 7 unknown #
coedge $-1 $46 $30 $95 $98 forward $55 $-1 #
coedge $-1 $30 $46 $91 $99 reversed $55 $-1 #
loop $-1 $-1 $53 $75 #
vertex $-1 $31 $100 #
vertex $-1 $31 $101 #
straight-curve $-1 76.43055513168737 0 13.625311176615387 0 1 0 I I #
face $-1 $102 $103 $7 $-1 $104 forward single #
loop $-1 $-1 $105 $32 #
plane-surface $-1 -76.43055513168737 0 0 1 0 0 0 0 -1 forward_v I I I I #
coedge $-1 $69 $106 $71 $107 forward $33 $-1 #
coedge $-1 $35 $71 $108 $109 reversed $21 $-1 #
coedge $-1 $110 $67 $35 $65 forward $111 $-1 #
edge $-1 $73 3.7948323332423115 $112 7.8185966733294876 $64 $113 forward 7 unknown #
coedge $-1 $37 $36 $105 $114 reversed $14 $-1 #
coedge $-1 $64 $115 $36 $68 forward $111 $-1 #
edge $-1 $116 -40.607880046171566 $73 -31.037470124860043 $67 $117 forward 7 unknown #
coedge $-1 $118 $62 $37 $70 forward $33 $-1 #
edge $-1 $72 31.037470124860043 $119 40.607880046171566 $69 $120 forward 7 unknown #
coedge $-1 $63 $38 $62 $107 reversed $21 $-1 #
vertex $-1 $70 $121 #
vertex $-1 $68 $122 #
straight-curve $-1 -66.860145210375848 0 9.6015468365282111 0 -1 0 I I #
face $-1 $-1 $55 $6 $-1 $123 reversed single #
loop $-1 $-1 $91 $40 #
plane-surface $-1 0 50.257282751635771 0 0 -1 0 0 0 -1 forward_v I I I I #
coedge $-1 $124 $89 $92 $125 forward $41 $-1 #
coedge $-1 $95 $43 $44 $83 reversed $25 $-1 #
coedge $-1 $89 $124 $43 $81 reversed $41 $-1 #
edge $-1 $96 -13.625311176615387 $126 13.625311176615387 $80 $127 forward 7 unknown #
coedge $-1 $45 $44 $124 $128 forward $17 $-1 #
edge $-1 $87 -76.43055513168737 $126 76.43055513168737 $79 $129 forward 7 unknown #
coedge $-1 $92 $91 $45 $85 reversed $76 $-1 #
edge $-1 $130 -76.43055513168737 $86 76.43055513168737 $84 $131 forward 7 unknown #
vertex $-1 $47 $132 #
vertex $-1 $98 $133 #
straight-curve $-1 76.43055513168737 0 -13.625311176615387 0 -1 0 I I #
coedge $-1 $78 $80 $48 $90 reversed $41 $-1 #
edge $-1 $93 -50.257282751635771 $96 50.257282751635771 $89 $134 forward 7 unknown #
coedge $-1 $84 $49 $54 $99 forward $76 $-1 #
coedge $-1 $49 $84 $78 $125 reversed $76 $-1 #
vertex $-1 $50 $135 #
straight-curve $-1 0 50.257282751635771 13.625311176615387 -1 0 0 I I #
coedge $-1 $51 $79 $53 $98 reversed $25 $-1 #
vertex $-1 $90 $136 #
straight-curve $-1 0 -50.257282751635771 13.625311176615387 1 0 0 I I #
edge $-1 $56 -13.625311176615387 $87 13.625311176615387 $53 $137 forward 7 unknown #
edge $-1 $57 -13.625311176615387 $86 13.625311176615387 $54 $138 forward 7 unknown #
point $-1 76.43055513168737 -50.257282751635771 13.625311176615387 #
point $-1 76.43055513168737 50.257282751635771 13.625311176615387 #
face $-1 $-1 $111 $7 $-1 $139 reversed single #
loop $-1 $-1 $108 $59 #
plane-surface $-1 0 0 13.625311176615387 0 0 1 1 0 0 forward_v I I I I #
coedge $-1 $140 $141 $66 $114 forward $60 $-1 #
coedge $-1 $62 $118 $142 $143 reversed $33 $-1 #
edge $-1 $144 -7.8185966733294876 $72 -3.7948323332423115 $62 $145 forward 7 unknown #
coedge $-1 $142 $146 $63 $109 forward $103 $-1 #
edge $-1 $112 -50.257282751635771 $144 50.257282751635771 $108 $147 forward 7 unknown #
coedge $-1 $115 $64 $146 $148 reversed $111 $-1 #
loop $-1 $-1 $64 $102 #
vertex $-1 $65 $149 #
straight-curve $-1 -66.860145210375848 -50.257282751635771 5.8067145032858996 0 0 1 I I #
edge $-1 $119 -50.257282751635771 $116 50.257282751635771 $105 $150 forward 7 unknown #
coedge $-1 $67 $110 $140 $151 forward $111 $-1 #
vertex $-1 $114 $152 #
straight-curve $-1 -35.822675085515804 -50.257282751635771 9.6015468365282111 1 0 0 I I #
coedge $-1 $106 $69 $141 $153 reversed $33 $-1 #
vertex $-1 $114 $154 #
straight-curve $-1 -35.822675085515804 50.257282751635771 9.6015468365282111 -1 0 0 I I #
point $-1 -66.860145210375848 50.257282751635771 9.6015468365282111 #
point $-1 -66.860145210375848 -50.257282751635771 9.6015468365282111 #
plane-surface $-1 76.43055513168737 0 0 -1 0 0 0 0 1 forward_v I I I I #
coedge $-1 $80 $78 $82 $128 reversed $41 $-1 #
edge $-1 $93 -13.625311176615387 $130 13.625311176615387 $92 $155 forward 7 unknown #
vertex $-1 $128 $156 #
straight-curve $-1 -76.43055513168737 -50.257282751635771 0 0 0 -1 I I #
edge $-1 $126 -50.257282751635771 $130 50.257282751635771 $124 $157 forward 7 unknown #
straight-curve $-1 0 -50.257282751635771 -13.625311176615387 -1 0 0 I I #
vertex $-1 $85 $158 #
straight-curve $-1 0 50.257282751635771 -13.625311176615387 1 0 0 I I #
point $-1 76.43055513168737 50.257282751635771 -13.625311176615387 #
point $-1 76.43055513168737 -50.257282751635771 -13.625311176615387 #
straight-curve $-1 -76.43055513168737 0 13.625311176615387 0 -1 0 I I #
point $-1 -76.43055513168737 50.257282751635771 13.625311176615387 #
point $-1 -76.43055513168737 -50.257282751635771 13.625311176615387 #
straight-curve $-1 76.43055513168737 -50.257282751635771 0 0 0 -1 I I #
straight-curve $-1 76.43055513168737 50.257282751635771 0 0 0 -1 I I #
plane-surface $-1 0 -50.257282751635771 0 0 1 0 0 0 1 forward_v I I I I #
coedge $-1 $159 $105 $115 $151 reversed $60 $-1 #
coedge $-1 $105 $159 $118 $153 forward $60 $-1 #
coedge $-1 $160 $108 $106 $143 forward $103 $-1 #
edge $-1 $144 66.860145210375848 $161 76.43055513168737 $106 $162 forward 7 unknown #
vertex $-1 $143 $163 #
straight-curve $-1 -66.860145210375848 50.257282751635771 5.8067145032858996 0 0 -1 I I #
coedge $-1 $108 $160 $110 $148 forward $103 $-1 #
straight-curve $-1 -66.860145210375848 0 13.625311176615387 0 1 0 I I #
edge $-1 $164 -76.43055513168737 $112 -66.860145210375848 $110 $165 forward 7 unknown #
point $-1 -66.860145210375848 -50.257282751635771 13.625311176615387 #
straight-curve $-1 -76.43055513168737 0 9.6015468365282111 0 -1 0 I I #
edge $-1 $164 -13.625311176615387 $116 -9.6015468365282111 $140 $166 forward 7 unknown #
point $-1 -76.43055513168737 -50.257282751635771 9.6015468365282111 #
edge $-1 $161 -13.625311176615387 $119 -9.6015468365282111 $118 $167 forward 7 unknown #
point $-1 -76.43055513168737 50.257282751635771 9.6015468365282111 #
straight-curve $-1 -76.43055513168737 50.257282751635771 0 0 0 -1 I I #
point $-1 -76.43055513168737 -50.257282751635771 -13.625311176615387 #
straight-curve $-1 -76.43055513168737 0 -13.625311176615387 0 1 0 I I #
point $-1 -76.43055513168737 50.257282751635771 -13.625311176615387 #
coedge $-1 $141 $140 $160 $168 reversed $60 $-1 #
coedge $-1 $146 $142 $159 $168 forward $103 $-1 #
vertex $-1 $143 $169 #
straight-curve $-1 0 50.257282751635771 13.625311176615387 -1 0 0 I I #
point $-1 -66.860145210375848 50.257282751635771 13.625311176615387 #
vertex $-1 $168 $170 #
straight-curve $-1 0 -50.257282751635771 13.625311176615387 1 0 0 I I #
straight-curve $-1 -76.43055513168737 -50.257282751635771 0 0 0 -1 I I #
straight-curve $-1 -76.43055513168737 50.257282751635771 0 0 0 -1 I I #
edge $-1 $161 -50.257282751635771 $164 50.257282751635771 $159 $171 forward 7 unknown #
point $-1 -76.43055513168737 50.257282751635771 13.625311176615387 #
point $-1 -76.43055513168737 -50.257282751635771 13.625311176615387 #
straight-curve $-1 -76.43055513168737 0 13.625311176615387 0 -1 0 I I #
End-of-ACIS-data 