500 0 10 0           
7 Unknown 11 ACIS 5.0 NT 24 Fri Mar 26 17:40:16 1999 
-1 9.9999999999999995e-007 1e-010 
body $-1 $10 $-1 $11 #
body $-1 $12 $-1 $13 #
body $-1 $14 $-1 $15 #
body $-1 $16 $-1 $17 #
body $-1 $18 $-1 $19 #
body $-1 $20 $-1 $21 #
body $-1 $22 $-1 $23 #
body $-1 $24 $-1 $25 #
body $-1 $26 $-1 $27 #
body $-1 $28 $-1 $29 #
lump $-1 $-1 $30 $0 #
transform $-1 1 0 0 0 1 0 0 0 1 60.422986541337323 33.398880954518312 10.506678212563839 1 rotate no_reflect no_shear #
lump $-1 $-1 $31 $1 #
transform $-1 1 0 0 0 1 0 0 0 1 60.422986541337323 33.398880954518312 10.506678212563839 1 rotate no_reflect no_shear #
lump $-1 $-1 $32 $2 #
transform $-1 1 0 0 0 1 0 0 0 1 60.422986541337323 33.398880954518312 10.506678212563839 1 rotate no_reflect no_shear #
lump $-1 $-1 $33 $3 #
transform $-1 1 0 0 0 1 0 0 0 1 60.422986541337323 33.398880954518312 10.506678212563839 1 rotate no_reflect no_shear #
lump $-1 $-1 $34 $4 #
transform $-1 1 0 0 0 1 0 0 0 1 60.422986541337323 33.398880954518312 10.506678212563839 1 rotate no_reflect no_shear #
lump $-1 $-1 $35 $5 #
transform $-1 1 0 0 0 1 0 0 0 1 60.422986541337323 33.398880954518312 10.506678212563839 1 rotate no_reflect no_shear #
lump $-1 $-1 $36 $6 #
transform $-1 1 0 0 0 1 0 0 0 1 60.422986541337323 33.398880954518312 10.506678212563839 1 rotate no_reflect no_shear #
lump $-1 $-1 $37 $7 #
transform $-1 1 0 0 0 1 0 0 0 1 60.422986541337323 33.398880954518312 10.506678212563839 1 rotate no_reflect no_shear #
lump $-1 $-1 $38 $8 #
transform $-1 1 0 0 0 1 0 0 0 1 60.422986541337323 33.398880954518312 10.506678212563839 1 rotate no_reflect no_shear #
lump $-1 $-1 $39 $9 #
transform $-1 1 0 0 0 1 0 0 0 1 60.422986541337323 33.398880954518312 10.506678212563839 1 rotate no_reflect no_shear #
shell $-1 $-1 $-1 $40 $-1 $10 #
shell $-1 $-1 $-1 $41 $-1 $12 #
shell $-1 $-1 $-1 $42 $-1 $14 #
shell $-1 $-1 $-1 $43 $-1 $16 #
shell $-1 $-1 $-1 $44 $-1 $18 #
shell $-1 $-1 $-1 $45 $-1 $20 #
shell $-1 $-1 $-1 $46 $-1 $22 #
shell $-1 $-1 $-1 $47 $-1 $24 #
shell $-1 $-1 $-1 $48 $-1 $26 #
shell $-1 $-1 $-1 $49 $-1 $28 #
face $-1 $50 $51 $30 $-1 $52 forward single #
face $-1 $53 $54 $31 $-1 $55 forward single #
face $-1 $56 $57 $32 $-1 $58 forward single #
face $-1 $59 $60 $33 $-1 $61 reversed single #
face $-1 $62 $63 $34 $-1 $64 forward single #
face $-1 $65 $66 $35 $-1 $67 reversed single #
face $-1 $68 $69 $36 $-1 $70 forward single #
face $-1 $71 $72 $37 $-1 $73 reversed single #
face $-1 $74 $75 $38 $-1 $76 forward single #
face $-1 $77 $78 $39 $-1 $79 forward single #
face $-1 $80 $81 $30 $-1 $82 reversed single #
loop $-1 $-1 $83 $40 #
plane-surface $-1 0 0 10.506678212563839 0 0 1 1 0 0 forward_v I I I I #
face $-1 $84 $85 $31 $-1 $86 reversed single #
loop $-1 $-1 $87 $41 #
plane-surface $-1 -60.422986541337323 0 0 1 0 0 0 0 -1 forward_v I I I I #
face $-1 $88 $89 $32 $-1 $90 reversed single #
loop $-1 $-1 $91 $42 #
plane-surface $-1 60.422986541337323 0 0 -1 0 0 0 0 1 forward_v I I I I #
face $-1 $92 $93 $33 $-1 $94 reversed single #
loop $-1 $-1 $95 $43 #
plane-surface $-1 -28.116631875903128 64.620210539716993 134.9492167964998 1 0 0 0 -0.66913061440640931 -0.74314481823134659 forward_v I I I I #
face $-1 $96 $97 $34 $-1 $98 forward single #
loop $-1 $99 $100 $44 #
cone-surface $-1 -22.194539565640916 25.766889102808367 3.2047909400092296 0 -0.66913061440640931 -0.74314481823134659 2 0 0 1 I I 0 1 2 forward I I I I #
face $-1 $101 $102 $35 $-1 $103 reversed single #
loop $-1 $-1 $104 $45 #
plane-surface $-1 19.781375857506415 64.620210539716993 134.9492167964998 1 0 0 0 -0.66913061440640931 -0.74314481823134659 forward_v I I I I #
face $-1 $105 $106 $36 $-1 $107 forward single #
loop $-1 $108 $109 $46 #
cone-surface $-1 25.703468167768634 25.766889102808367 3.2047909400092296 0 -0.66913061440640931 -0.74314481823134659 2 0 0 1 I I 0 1 2 forward I I I I #
face $-1 $110 $111 $37 $-1 $112 reversed single #
loop $-1 $-1 $113 $47 #
plane-surface $-1 22.015030055990337 -117.34554867884947 91.253440591004008 -1 0 0 0 -0.69465837861970381 0.71933979245794832 forward_v I I I I #
face $-1 $114 $115 $38 $-1 $116 forward single #
loop $-1 $117 $118 $48 #
cone-surface $-1 12.01669238931386 -29.411379050030348 6.6010696086054814 0 0.69465837861970381 -0.71933979245794832 1 0 0 1 I I 0 1 1 forward I I I I #
face $-1 $119 $120 $39 $-1 $121 forward single #
loop $-1 $122 $123 $49 #
cone-surface $-1 18.015694989319741 -29.411379050030348 6.6010696086054814 0 0.69465837861970381 -0.71933979245794832 1 0 0 1 I I 0 1 1 forward I I I I #
face $-1 $124 $125 $30 $-1 $126 reversed single #
loop $-1 $-1 $127 $50 #
plane-surface $-1 0 0 -10.506678212563839 0 0 1 1 0 0 forward_v I I I I #
coedge $-1 $128 $129 $130 $131 forward $51 $-1 #
face $-1 $132 $133 $31 $-1 $134 reversed single #
loop $-1 $-1 $135 $53 #
plane-surface $-1 0 0 -10.506678212563839 0 0 1 1 0 0 forward_v I I I I #
coedge $-1 $136 $137 $138 $139 forward $54 $-1 #
face $-1 $140 $141 $32 $-1 $142 reversed single #
loop $-1 $-1 $143 $56 #
plane-surface $-1 0 0 -10.506678212563839 0 0 1 1 0 0 forward_v I I I I #
coedge $-1 $144 $145 $146 $147 forward $57 $-1 #
face $-1 $148 $149 $33 $-1 $150 reversed single #
loop $-1 $-1 $151 $59 #
plane-surface $-1 -22.194539565640909 -16.241529677633494 45.143158095985342 0 0.66913061440640931 0.74314481823134659 1 0 0 forward_v I I I I #
coedge $-1 $152 $153 $154 $155 reversed $60 $-1 #
face $-1 $-1 $156 $34 $-1 $157 forward single #
loop $-1 $158 $159 $62 #
cone-surface $-1 -22.194539565640916 23.052118357552395 0.18973264109588861 0 -0.66913061440640931 -0.74314481823134659 1 0 0 1 I I -0.70710678118654746 0.70710678118654746 1 forward I I I I #
loop $-1 $-1 $160 $44 #
coedge $-1 $100 $100 $161 $162 reversed $63 $-1 #
face $-1 $163 $164 $35 $-1 $165 reversed single #
loop $-1 $-1 $166 $65 #
plane-surface $-1 25.703468167768634 -16.241529677633494 45.143158095985342 0 0.66913061440640931 0.74314481823134659 1 0 0 forward_v I I I I #
coedge $-1 $167 $168 $169 $170 reversed $66 $-1 #
face $-1 $-1 $171 $36 $-1 $172 forward single #
loop $-1 $173 $174 $68 #
cone-surface $-1 25.703468167768634 23.052118357552395 0.18973264109588861 0 -0.66913061440640931 -0.74314481823134659 1 0 0 1 I I -0.70710678118654746 0.70710678118654746 1 forward I I I I #
loop $-1 $-1 $175 $46 #
coedge $-1 $109 $109 $176 $177 reversed $69 $-1 #
face $-1 $178 $179 $37 $-1 $180 reversed single #
loop $-1 $-1 $181 $71 #
plane-surface $-1 15.016193689316808 -33.398880954518333 4.3241233943340234 0 -0.69465837861970381 0.71933979245794832 1 0 0 forward_v I I I I #
coedge $-1 $182 $183 $184 $185 reversed $72 $-1 #
face $-1 $-1 $186 $38 $-1 $187 forward single #
loop $-1 $188 $189 $74 #
cone-surface $-1 12.01669238931386 -28.277659349031318 5.4270685175330637 0 0.69465837861970381 -0.71933979245794832 0.5 0 0 1 I I -0.70710678118654746 0.70710678118654746 0.5 forward I I I I #
loop $-1 $-1 $190 $48 #
coedge $-1 $118 $118 $191 $192 reversed $75 $-1 #
face $-1 $-1 $193 $39 $-1 $194 forward single #
loop $-1 $195 $196 $77 #
cone-surface $-1 18.015694989319741 -28.277659349031318 5.4270685175330637 0 0.69465837861970381 -0.71933979245794832 0.5 0 0 1 I I -0.70710678118654746 0.70710678118654746 0.5 forward I I I I #
loop $-1 $-1 $197 $49 #
coedge $-1 $123 $123 $198 $199 reversed $78 $-1 #
face $-1 $200 $201 $30 $-1 $202 reversed single #
loop $-1 $-1 $203 $80 #
plane-surface $-1 0 -33.398880954518312 0 0 1 0 0 0 1 forward_v I I I I #
coedge $-1 $204 $205 $206 $207 forward $81 $-1 #
coedge $-1 $208 $83 $209 $210 forward $51 $-1 #
coedge $-1 $83 $208 $211 $212 forward $51 $-1 #
coedge $-1 $213 $214 $83 $131 reversed $215 $-1 #
edge $-1 $216 -33.398880954518312 $217 33.398880954518312 $130 $218 forward 7 unknown #
face $-1 $219 $220 $31 $-1 $221 reversed single #
loop $-1 $-1 $222 $84 #
plane-surface $-1 -66.685475945301221 -31.428060226832446 0 0 1 0 0 0 1 forward_v I I I I #
coedge $-1 $223 $224 $137 $225 forward $85 $-1 #
coedge $-1 $226 $87 $227 $228 reversed $54 $-1 #
coedge $-1 $87 $226 $135 $225 reversed $54 $-1 #
coedge $-1 $229 $230 $87 $139 reversed $231 $-1 #
edge $-1 $232 -10.506678212563839 $233 10.506678212563839 $138 $234 forward 7 unknown #
face $-1 $235 $236 $32 $-1 $237 reversed single #
loop $-1 $-1 $146 $88 #
plane-surface $-1 66.685475945301221 -31.428060226832446 0 0 1 0 0 0 1 forward_v I I I I #
coedge $-1 $238 $239 $145 $240 forward $89 $-1 #
coedge $-1 $241 $91 $242 $243 reversed $57 $-1 #
coedge $-1 $91 $241 $143 $240 reversed $57 $-1 #
coedge $-1 $244 $245 $91 $147 reversed $141 $-1 #
edge $-1 $246 -10.506678212563839 $247 10.506678212563839 $146 $248 forward 7 unknown #
face $-1 $249 $250 $33 $-1 $251 reversed single #
loop $-1 $-1 $252 $92 #
plane-surface $-1 -16.27244725537869 64.620210539716993 134.9492167964998 -1 0 0 0 0.66913061440640931 0.74314481823134659 forward_v I I I I #
coedge $-1 $253 $254 $255 $256 reversed $93 $-1 #
coedge $-1 $153 $95 $257 $258 reversed $60 $-1 #
coedge $-1 $95 $152 $253 $259 reversed $60 $-1 #
coedge $-1 $255 $260 $95 $155 forward $261 $-1 #
edge $-1 $262 -1.0887756846598151 $263 10.083927757060962 $154 $264 forward 7 unknown #
loop $-1 $-1 $161 $96 #
plane-surface $-1 -22.194539565640909 -16.241529677633494 45.143158095985342 0 0.66913061440640931 0.74314481823134659 1 0 0 forward_v I I I I #
loop $-1 $-1 $265 $62 #
coedge $-1 $159 $159 $160 $266 reversed $97 $-1 #
coedge $-1 $160 $160 $159 $266 forward $99 $-1 #
coedge $-1 $161 $161 $100 $162 forward $156 $-1 #
edge $-1 $267 1.1544123318690708e-015 $267 6.2831853071796013 $161 $268 forward 7 unknown #
face $-1 $269 $270 $35 $-1 $271 forward single #
loop $-1 $-1 $272 $101 #
plane-surface $-1 31.625560478030852 64.620210539716993 134.9492167964998 -1 0 0 0 0.66913061440640931 0.74314481823134659 forward_v I I I I #
coedge $-1 $273 $274 $275 $276 reversed $102 $-1 #
coedge $-1 $168 $104 $277 $278 reversed $66 $-1 #
coedge $-1 $104 $167 $273 $279 reversed $66 $-1 #
coedge $-1 $275 $280 $104 $170 forward $270 $-1 #
edge $-1 $281 -1.0887756846598151 $282 10.083927757060962 $169 $283 forward 7 unknown #
loop $-1 $-1 $176 $105 #
plane-surface $-1 25.703468167768634 -16.241529677633494 45.143158095985342 0 0.66913061440640931 0.74314481823134659 1 0 0 forward_v I I I I #
loop $-1 $-1 $284 $68 #
coedge $-1 $174 $174 $175 $285 reversed $106 $-1 #
coedge $-1 $175 $175 $174 $285 forward $108 $-1 #
coedge $-1 $176 $176 $109 $177 forward $171 $-1 #
edge $-1 $286 1.1544123318690708e-015 $286 6.2831853071796013 $176 $287 forward 7 unknown #
face $-1 $288 $289 $37 $-1 $290 forward single #
loop $-1 $-1 $291 $110 #
plane-surface $-1 8.0173573226432779 -117.34554867884947 91.253440591004008 1 0 0 0 0.69465837861970381 -0.71933979245794832 forward_v I I I I #
coedge $-1 $292 $293 $294 $295 reversed $111 $-1 #
coedge $-1 $183 $113 $296 $297 reversed $72 $-1 #
coedge $-1 $113 $182 $292 $298 reversed $72 $-1 #
coedge $-1 $294 $299 $113 $185 forward $289 $-1 #
edge $-1 $300 25.273893384906422 $301 31.67611617050396 $184 $302 forward 7 unknown #
loop $-1 $-1 $191 $114 #
plane-surface $-1 15.016193689316808 -33.398880954518333 4.3241233943340234 0 -0.69465837861970381 0.71933979245794832 1 0 0 forward_v I I I I #
loop $-1 $-1 $303 $74 #
coedge $-1 $189 $189 $190 $304 reversed $115 $-1 #
coedge $-1 $190 $190 $189 $304 forward $117 $-1 #
coedge $-1 $191 $191 $118 $192 forward $186 $-1 #
edge $-1 $305 1.6723911446841345e-015 $305 6.2831853071796022 $191 $306 forward 7 unknown #
loop $-1 $-1 $198 $119 #
plane-surface $-1 15.016193689316808 -33.398880954518333 4.3241233943340234 0 -0.69465837861970381 0.71933979245794832 1 0 0 forward_v I I I I #
loop $-1 $-1 $307 $77 #
coedge $-1 $196 $196 $197 $308 reversed $120 $-1 #
coedge $-1 $197 $197 $196 $308 forward $122 $-1 #
coedge $-1 $198 $198 $123 $199 forward $193 $-1 #
edge $-1 $309 1.6723911446841345e-015 $309 6.2831853071796022 $198 $310 forward 7 unknown #
face $-1 $311 $312 $30 $-1 $313 reversed single #
loop $-1 $-1 $314 $124 #
plane-surface $-1 -60.422986541337323 0 0 1 0 0 0 0 -1 forward_v I I I I #
coedge $-1 $315 $211 $316 $317 forward $125 $-1 #
coedge $-1 $318 $127 $315 $319 forward $81 $-1 #
coedge $-1 $127 $318 $320 $321 forward $81 $-1 #
coedge $-1 $214 $213 $127 $207 reversed $215 $-1 #
edge $-1 $322 -33.398880954518312 $323 33.398880954518312 $206 $324 forward 7 unknown #
coedge $-1 $129 $128 $325 $326 forward $51 $-1 #
coedge $-1 $327 $328 $128 $210 reversed $312 $-1 #
edge $-1 $217 -60.422986541337323 $329 60.422986541337323 $209 $330 forward 7 unknown #
coedge $-1 $203 $331 $129 $212 reversed $125 $-1 #
edge $-1 $332 -60.422986541337323 $216 60.422986541337323 $211 $333 forward 7 unknown #
coedge $-1 $206 $130 $331 $334 forward $215 $-1 #
coedge $-1 $130 $206 $327 $335 reversed $215 $-1 #
loop $-1 $-1 $213 $311 #
vertex $-1 $131 $336 #
vertex $-1 $131 $337 #
straight-curve $-1 60.422986541337323 0 10.506678212563839 0 1 0 I I #
face $-1 $338 $231 $31 $-1 $339 reversed single #
loop $-1 $-1 $340 $132 #
plane-surface $-1 -72.947965349265118 -29.928060226832446 0 1 0 0 0 0 -1 forward_v I I I I #
coedge $-1 $341 $342 $343 $344 forward $133 $-1 #
coedge $-1 $345 $135 $341 $346 forward $85 $-1 #
coedge $-1 $135 $345 $229 $347 forward $85 $-1 #
edge $-1 $232 28.428060226832446 $348 31.428060226832446 $135 $349 forward 7 unknown #
coedge $-1 $137 $136 $350 $351 forward $54 $-1 #
coedge $-1 $352 $353 $136 $228 forward $354 $-1 #
edge $-1 $355 -31.428060226832446 $233 -28.428060226832446 $227 $356 forward 7 unknown #
coedge $-1 $357 $138 $224 $347 reversed $231 $-1 #
coedge $-1 $138 $357 $352 $358 reversed $231 $-1 #
loop $-1 $-1 $138 $219 #
vertex $-1 $225 $359 #
vertex $-1 $358 $360 #
straight-curve $-1 -60.422986541337323 -28.428060226832446 0 0 0 1 I I #
face $-1 $361 $362 $32 $-1 $363 reversed single #
loop $-1 $-1 $364 $140 #
plane-surface $-1 66.685475945301221 -28.428060226832446 0 0 -1 0 0 0 -1 forward_v I I I I #
coedge $-1 $365 $143 $366 $367 forward $89 $-1 #
coedge $-1 $143 $365 $244 $368 forward $89 $-1 #
edge $-1 $246 -31.428060226832446 $369 -28.428060226832446 $143 $370 forward 7 unknown #
coedge $-1 $145 $144 $371 $372 forward $57 $-1 #
coedge $-1 $373 $374 $144 $243 forward $375 $-1 #
edge $-1 $376 28.428060226832446 $247 31.428060226832446 $242 $377 forward 7 unknown #
coedge $-1 $378 $146 $239 $368 reversed $141 $-1 #
coedge $-1 $146 $378 $373 $379 reversed $141 $-1 #
vertex $-1 $240 $380 #
vertex $-1 $379 $381 #
straight-curve $-1 60.422986541337323 -31.428060226832446 0 0 0 1 I I #
face $-1 $-1 $261 $33 $-1 $382 forward single #
loop $-1 $-1 $383 $148 #
plane-surface $-1 0 33.398880954518312 0 0 -1 0 0 0 -1 forward_v I I I I #
coedge $-1 $384 $385 $386 $387 reversed $149 $-1 #
coedge $-1 $388 $151 $153 $259 forward $93 $-1 #
coedge $-1 $151 $388 $384 $389 forward $93 $-1 #
coedge $-1 $386 $154 $151 $256 forward $261 $-1 #
edge $-1 $263 -17.019362093082673 $390 -5.1751774725582358 $255 $391 forward 7 unknown #
coedge $-1 $392 $393 $152 $258 forward $250 $-1 #
edge $-1 $394 -67.027877769431299 $262 -56.967930185686058 $257 $395 forward 7 unknown #
edge $-1 $263 51.763406333078592 $394 66.797761909036652 $153 $396 forward 7 unknown #
coedge $-1 $154 $386 $392 $397 forward $261 $-1 #
loop $-1 $-1 $386 $249 #
vertex $-1 $258 $398 #
vertex $-1 $155 $399 #
straight-curve $-1 -28.116631875903128 32.310105269858497 10.506678212563841 0 -1 0 I I #
coedge $-1 $265 $265 $-1 $400 reversed $158 $-1 #
edge $-1 $401 0 $401 6.2831853071796004 $159 $402 forward 7 unknown #
vertex $-1 $162 $403 #
ellipse-curve $-1 -22.194539565640916 27.812529233657926 5.4767044206912203 0 0.66913061440640931 0.74314481823134659 2 0 0 1 I I #
face $-1 $-1 $404 $35 $-1 $405 reversed single #
loop $-1 $-1 $169 $163 #
plane-surface $-1 0 0 10.506678212563839 0 0 1 1 0 0 forward_v I I I I #
coedge $-1 $406 $407 $408 $409 reversed $164 $-1 #
coedge $-1 $410 $166 $168 $279 forward $102 $-1 #
coedge $-1 $166 $410 $406 $411 forward $102 $-1 #
coedge $-1 $408 $169 $166 $276 forward $270 $-1 #
edge $-1 $282 6.9296417736220981 $412 18.773826394146536 $275 $413 forward 7 unknown #
coedge $-1 $414 $415 $167 $278 forward $404 $-1 #
edge $-1 $416 -67.027877769431299 $281 -56.967930185686058 $277 $417 forward 7 unknown #
edge $-1 $282 51.763406333078592 $416 66.797761909036652 $168 $418 forward 7 unknown #
coedge $-1 $169 $408 $414 $419 forward $270 $-1 #
vertex $-1 $278 $420 #
vertex $-1 $170 $421 #
straight-curve $-1 19.781375857506415 32.310105269858497 10.506678212563841 0 -1 0 I I #
coedge $-1 $284 $284 $-1 $422 reversed $173 $-1 #
edge $-1 $423 0 $423 6.2831853071796004 $174 $424 forward 7 unknown #
vertex $-1 $177 $425 #
ellipse-curve $-1 25.703468167768634 27.812529233657926 5.4767044206912203 0 0.66913061440640931 0.74314481823134659 2 0 0 1 I I #
face $-1 $-1 $426 $37 $-1 $427 reversed single #
loop $-1 $-1 $184 $178 #
plane-surface $-1 0 0 10.506678212563839 0 0 1 1 0 0 forward_v I I I I #
coedge $-1 $428 $429 $430 $431 reversed $179 $-1 #
coedge $-1 $432 $181 $183 $298 forward $111 $-1 #
coedge $-1 $181 $432 $428 $433 forward $111 $-1 #
coedge $-1 $430 $184 $181 $295 forward $289 $-1 #
edge $-1 $301 -14.506933211331933 $434 -0.50926047798487417 $294 $435 forward 7 unknown #
coedge $-1 $436 $437 $182 $297 forward $426 $-1 #
edge $-1 $438 -41.302596901167959 $300 -35.120042082938163 $296 $439 forward 7 unknown #
edge $-1 $301 -8.9001371156202591 $438 -2.9524203284164893e-014 $183 $440 forward 7 unknown #
coedge $-1 $184 $430 $436 $441 forward $289 $-1 #
vertex $-1 $185 $442 #
vertex $-1 $185 $443 #
straight-curve $-1 22.015030055990337 -58.672774339424734 10.506678212563841 0 1 0 I I #
coedge $-1 $303 $303 $-1 $444 reversed $188 $-1 #
edge $-1 $445 0 $445 6.2831853071796004 $189 $446 forward 7 unknown #
vertex $-1 $192 $447 #
ellipse-curve $-1 12.01669238931386 -30.197769561719543 7.415400803448942 0 -0.69465837861970381 0.71933979245794832 1 0 0 1 I I #
coedge $-1 $307 $307 $-1 $448 reversed $195 $-1 #
edge $-1 $449 0 $449 6.2831853071796004 $196 $450 forward 7 unknown #
vertex $-1 $199 $451 #
ellipse-curve $-1 18.015694989319741 -30.197769561719543 7.415400803448942 0 -0.69465837861970381 0.71933979245794832 1 0 0 1 I I #
face $-1 $-1 $215 $30 $-1 $452 reversed single #
loop $-1 $-1 $327 $200 #
plane-surface $-1 0 33.398880954518312 0 0 -1 0 0 0 -1 forward_v I I I I #
coedge $-1 $453 $325 $328 $454 forward $201 $-1 #
coedge $-1 $331 $203 $204 $319 reversed $125 $-1 #
coedge $-1 $325 $453 $203 $317 reversed $201 $-1 #
edge $-1 $332 -10.506678212563839 $455 10.506678212563839 $316 $456 forward 7 unknown #
coedge $-1 $205 $204 $453 $457 forward $81 $-1 #
edge $-1 $323 -60.422986541337323 $455 60.422986541337323 $315 $458 forward 7 unknown #
coedge $-1 $328 $327 $205 $321 reversed $312 $-1 #
edge $-1 $459 -60.422986541337323 $322 60.422986541337323 $320 $460 forward 7 unknown #
vertex $-1 $207 $461 #
vertex $-1 $334 $462 #
straight-curve $-1 60.422986541337323 0 -10.506678212563839 0 -1 0 I I #
coedge $-1 $314 $316 $208 $326 reversed $201 $-1 #
edge $-1 $329 -33.398880954518312 $332 33.398880954518312 $325 $463 forward 7 unknown #
coedge $-1 $320 $209 $214 $335 forward $312 $-1 #
coedge $-1 $209 $320 $314 $454 reversed $312 $-1 #
vertex $-1 $210 $464 #
straight-curve $-1 0 33.398880954518312 10.506678212563839 -1 0 0 I I #
coedge $-1 $211 $315 $213 $334 reversed $125 $-1 #
vertex $-1 $326 $465 #
straight-curve $-1 0 -33.398880954518312 10.506678212563839 1 0 0 I I #
edge $-1 $216 -10.506678212563839 $323 10.506678212563839 $213 $466 forward 7 unknown #
edge $-1 $217 -10.506678212563839 $322 10.506678212563839 $214 $467 forward 7 unknown #
point $-1 60.422986541337323 -33.398880954518312 10.506678212563839 #
point $-1 60.422986541337323 33.398880954518312 10.506678212563839 #
face $-1 $-1 $354 $31 $-1 $468 forward single #
plane-surface $-1 -66.685475945301221 -28.428060226832446 0 0 -1 0 0 0 -1 forward_v I I I I #
coedge $-1 $469 $470 $357 $471 forward $220 $-1 #
coedge $-1 $350 $222 $223 $346 reversed $133 $-1 #
coedge $-1 $222 $350 $353 $472 reversed $133 $-1 #
coedge $-1 $470 $469 $222 $344 reversed $220 $-1 #
edge $-1 $473 -10.506678212563839 $474 10.506678212563839 $343 $475 forward 7 unknown #
coedge $-1 $224 $223 $469 $476 forward $85 $-1 #
edge $-1 $348 -6.2624894039638903 $474 6.2624894039638974 $341 $477 forward 7 unknown #
edge $-1 $478 -6.2624894039638974 $232 6.2624894039638903 $229 $479 forward 7 unknown #
vertex $-1 $346 $480 #
straight-curve $-1 -60.422986541337323 0 -10.506678212563839 0 -1 0 I I #
coedge $-1 $342 $341 $226 $351 reversed $133 $-1 #
edge $-1 $355 -10.506678212563839 $348 10.506678212563839 $350 $481 forward 7 unknown #
coedge $-1 $482 $227 $230 $358 forward $354 $-1 #
coedge $-1 $227 $482 $342 $472 forward $354 $-1 #
loop $-1 $-1 $227 $338 #
vertex $-1 $228 $483 #
straight-curve $-1 -60.422986541337323 0 10.506678212563839 0 1 0 I I #
coedge $-1 $230 $229 $340 $471 reversed $231 $-1 #
edge $-1 $233 -6.2624894039638903 $484 6.2624894039638974 $230 $485 forward 7 unknown #
point $-1 -60.42298654133733 -28.428060226832446 -10.506678212563839 #
point $-1 -60.42298654133733 -28.428060226832446 10.506678212563839 #
face $-1 $-1 $375 $32 $-1 $486 forward single #
loop $-1 $-1 $487 $235 #
plane-surface $-1 72.947965349265118 -29.928060226832446 0 -1 0 0 0 0 1 forward_v I I I I #
coedge $-1 $366 $488 $489 $490 forward $236 $-1 #
coedge $-1 $239 $238 $491 $492 forward $89 $-1 #
coedge $-1 $371 $364 $238 $367 reversed $236 $-1 #
edge $-1 $369 -6.2624894039638974 $493 6.2624894039638974 $366 $494 forward 7 unknown #
edge $-1 $495 -6.2624894039638974 $246 6.2624894039638974 $244 $496 forward 7 unknown #
vertex $-1 $367 $497 #
straight-curve $-1 60.422986541337323 0 -10.506678212563839 0 1 0 I I #
coedge $-1 $488 $366 $241 $372 reversed $236 $-1 #
edge $-1 $376 -10.506678212563839 $369 10.506678212563839 $371 $498 forward 7 unknown #
coedge $-1 $499 $242 $245 $379 forward $375 $-1 #
coedge $-1 $242 $499 $488 $500 forward $375 $-1 #
loop $-1 $-1 $242 $361 #
vertex $-1 $243 $501 #
straight-curve $-1 60.422986541337323 0 10.506678212563839 0 -1 0 I I #
coedge $-1 $245 $244 $487 $502 reversed $141 $-1 #
edge $-1 $247 -6.2624894039638974 $503 6.2624894039638974 $245 $504 forward 7 unknown #
point $-1 60.422986541337323 -31.428060226832446 -10.506678212563839 #
point $-1 60.422986541337323 -31.428060226832446 10.506678212563839 #
plane-surface $-1 0 0 10.506678212563839 0 0 1 1 0 0 forward_v I I I I #
coedge $-1 $393 $392 $385 $505 forward $250 $-1 #
coedge $-1 $385 $252 $254 $389 reversed $149 $-1 #
coedge $-1 $252 $384 $383 $505 reversed $149 $-1 #
coedge $-1 $260 $255 $252 $387 forward $261 $-1 #
edge $-1 $390 -10.083927757060962 $506 1.0887756846598151 $386 $507 forward 7 unknown #
coedge $-1 $254 $253 $393 $508 reversed $93 $-1 #
edge $-1 $509 -66.797761909036652 $390 -51.763406333078592 $384 $510 forward 7 unknown #
vertex $-1 $256 $511 #
straight-curve $-1 -11.097269782820455 22.226177512797534 10.506678212563838 1 0 0 I I #
coedge $-1 $383 $257 $260 $397 reversed $250 $-1 #
coedge $-1 $257 $383 $388 $508 forward $250 $-1 #
vertex $-1 $258 $512 #
straight-curve $-1 -28.116631875903128 33.398880954518312 67.474608398249899 0 0 1 I I #
straight-curve $-1 -28.116631875903128 -16.241529677633494 45.143158095985342 0 0.74314481823134659 -0.66913061440640931 I I #
edge $-1 $506 16.27244725537869 $262 28.116631875903128 $392 $513 forward 7 unknown #
point $-1 -28.116631875903128 33.398880954518312 10.506678212563839 #
point $-1 -28.116631875903128 22.226177512797534 10.506678212563841 #
edge $-1 $514 1 $514 0 $265 $-1 forward 7 unknown #
vertex $-1 $266 $515 #
ellipse-curve $-1 -22.194539565640916 23.721248971958804 0.9328774593272352 0 0.66913061440640931 0.74314481823134659 2 0 0 1 I I #
point $-1 -20.194539565640916 27.812529233657934 5.4767044206912248 #
loop $-1 $-1 $277 $269 #
plane-surface $-1 0 33.398880954518312 0 0 -1 0 0 0 -1 forward_v I I I I #
coedge $-1 $407 $272 $274 $411 reversed $164 $-1 #
coedge $-1 $272 $406 $516 $517 reversed $164 $-1 #
coedge $-1 $280 $275 $272 $409 forward $270 $-1 #
edge $-1 $412 -10.083927757060962 $518 1.0887756846598151 $408 $519 forward 7 unknown #
coedge $-1 $274 $273 $415 $520 reversed $102 $-1 #
edge $-1 $521 -66.797761909036652 $412 -51.763406333078592 $406 $522 forward 7 unknown #
vertex $-1 $276 $523 #
straight-curve $-1 12.851734083884317 22.226177512797534 10.506678212563838 1 0 0 I I #
coedge $-1 $516 $277 $280 $419 reversed $404 $-1 #
coedge $-1 $277 $516 $410 $520 forward $404 $-1 #
vertex $-1 $278 $524 #
straight-curve $-1 19.781375857506415 33.398880954518312 67.474608398249899 0 0 1 I I #
straight-curve $-1 19.781375857506415 -16.241529677633494 45.143158095985342 0 0.74314481823134659 -0.66913061440640931 I I #
edge $-1 $518 -31.625560478030852 $281 -19.781375857506415 $414 $525 forward 7 unknown #
point $-1 19.781375857506415 33.398880954518312 10.506678212563839 #
point $-1 19.781375857506415 22.226177512797534 10.506678212563841 #
edge $-1 $526 1 $526 0 $284 $-1 forward 7 unknown #
vertex $-1 $285 $527 #
ellipse-curve $-1 25.703468167768634 23.721248971958804 0.9328774593272352 0 0.66913061440640931 0.74314481823134659 2 0 0 1 I I #
point $-1 27.703468167768634 27.812529233657934 5.4767044206912248 #
loop $-1 $-1 $296 $288 #
plane-surface $-1 0 -33.398880954518312 0 0 1 0 0 0 1 forward_v I I I I #
coedge $-1 $429 $291 $293 $433 reversed $179 $-1 #
coedge $-1 $291 $428 $528 $529 reversed $179 $-1 #
coedge $-1 $299 $294 $291 $431 forward $289 $-1 #
edge $-1 $434 -31.67611617050396 $530 -25.273893384906422 $430 $531 forward 7 unknown #
coedge $-1 $293 $292 $437 $532 reversed $111 $-1 #
edge $-1 $533 2.9524203284164893e-014 $434 8.9001371156202591 $428 $534 forward 7 unknown #
vertex $-1 $295 $535 #
straight-curve $-1 7.5080968446584038 -26.996658168920774 10.506678212563839 -1 0 0 I I #
coedge $-1 $528 $296 $299 $441 reversed $426 $-1 #
coedge $-1 $296 $528 $432 $532 forward $426 $-1 #
vertex $-1 $297 $536 #
straight-curve $-1 22.015030055990337 -33.398880954518312 45.626720295502004 0 0 1 I I #
straight-curve $-1 22.015030055990337 -33.398880954518333 4.3241233943340234 0 -0.71933979245794832 -0.69465837861970381 I I #
edge $-1 $530 8.0173573226432779 $300 22.015030055990337 $436 $537 forward 7 unknown #
point $-1 22.015030055990337 -33.398880954518312 10.506678212563839 #
point $-1 22.015030055990337 -26.996658168920774 10.506678212563841 #
edge $-1 $538 1 $538 0 $303 $-1 forward 7 unknown #
vertex $-1 $304 $539 #
ellipse-curve $-1 12.01669238931386 -28.624988538341171 5.7867384137620377 0 -0.69465837861970381 0.71933979245794832 1 0 0 1 I I #
point $-1 13.01669238931386 -30.197769561719525 7.415400803448926 #
edge $-1 $540 1 $540 0 $307 $-1 forward 7 unknown #
vertex $-1 $308 $541 #
ellipse-curve $-1 18.015694989319741 -28.624988538341171 5.7867384137620377 0 -0.69465837861970381 0.71933979245794832 1 0 0 1 I I #
point $-1 19.015694989319741 -30.197769561719525 7.415400803448926 #
plane-surface $-1 60.422986541337323 0 0 -1 0 0 0 0 1 forward_v I I I I #
coedge $-1 $316 $314 $318 $457 reversed $201 $-1 #
edge $-1 $329 -10.506678212563839 $459 10.506678212563839 $328 $542 forward 7 unknown #
vertex $-1 $457 $543 #
straight-curve $-1 -60.422986541337323 -33.398880954518312 0 0 0 -1 I I #
edge $-1 $455 -33.398880954518312 $459 33.398880954518312 $453 $544 forward 7 unknown #
straight-curve $-1 0 -33.398880954518312 -10.506678212563839 -1 0 0 I I #
vertex $-1 $321 $545 #
straight-curve $-1 0 33.398880954518312 -10.506678212563839 1 0 0 I I #
point $-1 60.422986541337323 33.398880954518312 -10.506678212563839 #
point $-1 60.422986541337323 -33.398880954518312 -10.506678212563839 #
straight-curve $-1 -60.422986541337323 0 10.506678212563839 0 -1 0 I I #
point $-1 -60.422986541337323 33.398880954518312 10.506678212563839 #
point $-1 -60.422986541337323 -33.398880954518312 10.506678212563839 #
straight-curve $-1 60.422986541337323 -33.398880954518312 0 0 0 -1 I I #
straight-curve $-1 60.422986541337323 33.398880954518312 0 0 0 -1 I I #
plane-surface $-1 0 0 10.506678212563839 0 0 1 1 0 0 forward_v I I I I #
coedge $-1 $343 $340 $345 $476 reversed $220 $-1 #
coedge $-1 $340 $343 $482 $546 reversed $220 $-1 #
edge $-1 $484 -10.506678212563839 $478 10.506678212563839 $357 $547 forward 7 unknown #
edge $-1 $473 -6.2624894039638974 $355 6.2624894039638903 $342 $548 forward 7 unknown #
vertex $-1 $546 $549 #
vertex $-1 $476 $550 #
straight-curve $-1 -72.947965349265118 -31.428060226832446 0 0 0 -1 I I #
edge $-1 $474 -1.5 $478 1.5 $469 $551 forward 7 unknown #
straight-curve $-1 -66.685475945301221 -31.428060226832446 -10.506678212563839 -1 0 0 I I #
vertex $-1 $347 $552 #
straight-curve $-1 -66.685475945301221 -28.428060226832446 -10.506678212563839 1 0 0 I I #
point $-1 -60.42298654133733 -31.428060226832446 -10.506678212563839 #
straight-curve $-1 -60.422986541337323 -31.428060226832446 0 0 0 -1 I I #
coedge $-1 $353 $352 $470 $546 forward $354 $-1 #
point $-1 -60.42298654133733 -31.428060226832446 10.506678212563839 #
vertex $-1 $358 $553 #
straight-curve $-1 -66.685475945301221 -28.428060226832446 10.506678212563839 -1 0 0 I I #
plane-surface $-1 0 0 10.506678212563839 0 0 1 1 0 0 forward_v I I I I #
coedge $-1 $491 $554 $378 $502 forward $362 $-1 #
coedge $-1 $364 $371 $374 $500 reversed $236 $-1 #
coedge $-1 $554 $491 $364 $490 reversed $362 $-1 #
edge $-1 $555 -10.506678212563839 $493 10.506678212563839 $489 $556 forward 7 unknown #
coedge $-1 $489 $487 $365 $492 reversed $362 $-1 #
edge $-1 $493 -1.5 $495 1.5 $491 $557 forward 7 unknown #
vertex $-1 $492 $558 #
straight-curve $-1 66.685475945301221 -28.428060226832446 -10.506678212563839 1 0 0 I I #
vertex $-1 $502 $559 #
straight-curve $-1 66.685475945301221 -31.428060226832446 -10.506678212563839 -1 0 0 I I #
point $-1 60.422986541337323 -28.428060226832446 -10.506678212563839 #
straight-curve $-1 60.422986541337323 -28.428060226832446 0 0 0 -1 I I #
coedge $-1 $374 $373 $554 $560 forward $375 $-1 #
edge $-1 $555 -6.2624894039638974 $376 6.2624894039638974 $488 $561 forward 7 unknown #
point $-1 60.422986541337323 -28.428060226832446 10.506678212563839 #
edge $-1 $503 -10.506678212563839 $495 10.506678212563839 $487 $562 forward 7 unknown #
vertex $-1 $560 $563 #
straight-curve $-1 66.685475945301221 -31.428060226832446 10.506678212563839 1 0 0 I I #
edge $-1 $506 56.967930185686058 $509 67.027877769431299 $383 $564 forward 7 unknown #
vertex $-1 $397 $565 #
straight-curve $-1 -16.27244725537869 32.310105269858497 10.506678212563841 0 1 0 I I #
edge $-1 $509 5.1751774725582358 $394 17.019362093082673 $393 $566 forward 7 unknown #
vertex $-1 $508 $567 #
straight-curve $-1 -16.27244725537869 -16.241529677633494 45.143158095985342 0 -0.74314481823134659 0.66913061440640931 I I #
point $-1 -16.27244725537869 22.226177512797534 10.506678212563841 #
point $-1 -28.116631875903128 33.398880954518319 0.44673062881859948 #
straight-curve $-1 0 33.398880954518312 10.506678212563839 -1 0 0 I I #
vertex $-1 $400 $568 #
point $-1 -20.194539565640916 23.721248971958804 0.9328774593272352 #
coedge $-1 $415 $414 $407 $517 forward $404 $-1 #
edge $-1 $518 56.967930185686058 $521 67.027877769431299 $516 $569 forward 7 unknown #
vertex $-1 $419 $570 #
straight-curve $-1 31.625560478030852 32.310105269858497 10.506678212563841 0 1 0 I I #
edge $-1 $521 -18.773826394146536 $416 -6.9296417736220981 $415 $571 forward 7 unknown #
vertex $-1 $520 $572 #
straight-curve $-1 31.625560478030852 -16.241529677633494 45.143158095985342 0 -0.74314481823134659 0.66913061440640931 I I #
point $-1 31.625560478030852 22.226177512797534 10.506678212563841 #
point $-1 19.781375857506415 33.398880954518319 0.44673062881859948 #
straight-curve $-1 0 33.398880954518312 10.506678212563839 -1 0 0 I I #
vertex $-1 $422 $573 #
point $-1 27.703468167768634 23.721248971958804 0.9328774593272352 #
coedge $-1 $437 $436 $429 $529 forward $426 $-1 #
edge $-1 $530 35.120042082938163 $533 41.302596901167959 $528 $574 forward 7 unknown #
vertex $-1 $441 $575 #
straight-curve $-1 8.0173573226432779 -58.672774339424734 10.506678212563841 0 -1 0 I I #
edge $-1 $533 0.50926047798487417 $438 14.506933211331933 $437 $576 forward 7 unknown #
vertex $-1 $532 $577 #
straight-curve $-1 8.0173573226432779 -33.398880954518333 4.3241233943340234 0 0.71933979245794832 0.69465837861970381 I I #
point $-1 8.0173573226432779 -26.996658168920774 10.506678212563841 #
point $-1 22.015030055990337 -33.398880954518312 4.3241233943340438 #
straight-curve $-1 0 -33.398880954518312 10.506678212563839 1 0 0 I I #
vertex $-1 $444 $578 #
point $-1 13.01669238931386 -28.624988538341171 5.7867384137620377 #
vertex $-1 $448 $579 #
point $-1 19.015694989319741 -28.624988538341171 5.7867384137620377 #
straight-curve $-1 -60.422986541337323 33.398880954518312 0 0 0 -1 I I #
point $-1 -60.422986541337323 -33.398880954518312 -10.506678212563839 #
straight-curve $-1 -60.422986541337323 0 -10.506678212563839 0 1 0 I I #
point $-1 -60.422986541337323 33.398880954518312 -10.506678212563839 #
edge $-1 $484 -1.5 $473 1.5 $470 $580 forward 7 unknown #
straight-curve $-1 -72.947965349265118 -28.428060226832446 0 0 0 -1 I I #
straight-curve $-1 -66.685475945301221 -31.428060226832446 10.506678212563839 1 0 0 I I #
point $-1 -72.947965349265118 -31.428060226832446 10.506678212563839 #
point $-1 -72.947965349265118 -31.428060226832446 -10.506678212563839 #
straight-curve $-1 -72.947965349265118 -29.928060226832446 -10.506678212563839 0 1 0 I I #
point $-1 -72.947965349265118 -28.428060226832446 -10.506678212563839 #
point $-1 -72.947965349265118 -28.428060226832446 10.506678212563839 #
coedge $-1 $487 $489 $499 $560 reversed $362 $-1 #
vertex $-1 $560 $581 #
straight-curve $-1 72.947965349265118 -28.428060226832446 0 0 0 -1 I I #
straight-curve $-1 72.947965349265118 -29.928060226832446 -10.506678212563839 0 -1 0 I I #
point $-1 72.947965349265118 -28.428060226832446 -10.506678212563839 #
point $-1 72.947965349265118 -31.428060226832446 -10.506678212563839 #
edge $-1 $503 -1.5 $555 1.5 $554 $582 forward 7 unknown #
straight-curve $-1 66.685475945301221 -28.428060226832446 10.506678212563839 -1 0 0 I I #
straight-curve $-1 72.947965349265118 -31.428060226832446 0 0 0 -1 I I #
point $-1 72.947965349265118 -31.428060226832446 10.506678212563839 #
straight-curve $-1 -16.27244725537869 33.398880954518312 67.474608398249899 0 0 -1 I I #
point $-1 -16.27244725537869 33.398880954518312 10.506678212563839 #
straight-curve $-1 -11.097269782820455 33.398880954518312 0.44673062881860659 -1 0 0 I I #
point $-1 -16.27244725537869 33.398880954518319 0.44673062881859948 #
point $-1 -22.194539565640916 22.382987743145986 -0.55341217713545798 #
straight-curve $-1 31.625560478030852 33.398880954518312 67.474608398249899 0 0 -1 I I #
point $-1 31.625560478030852 33.398880954518312 10.506678212563839 #
straight-curve $-1 12.851734083884317 33.398880954518312 0.44673062881860659 -1 0 0 I I #
point $-1 31.625560478030852 33.398880954518319 0.44673062881859948 #
point $-1 25.703468167768634 22.382987743145986 -0.55341217713545798 #
straight-curve $-1 8.0173573226432779 -33.398880954518312 45.626720295502004 0 0 -1 I I #
point $-1 8.0173573226432779 -33.398880954518312 10.506678212563839 #
straight-curve $-1 7.5080968446584038 -33.398880954518312 4.3241233943340402 1 0 0 I I #
point $-1 8.0173573226432779 -33.398880954518312 4.3241233943340438 #
point $-1 12.01669238931386 -27.930330159721464 5.0673986213040898 #
point $-1 18.015694989319741 -27.930330159721464 5.0673986213040898 #
straight-curve $-1 -72.947965349265118 -29.928060226832446 10.506678212563839 0 -1 0 I I #
point $-1 72.947965349265118 -28.428060226832446 10.506678212563839 #
straight-curve $-1 72.947965349265118 -29.928060226832446 10.506678212563839 0 1 0 I I #
End-of-ACIS-data 