500 0 11 0           
7 Unknown 11 ACIS 5.0 NT 24 Fri Mar 26 16:33:14 1999 
-1 9.9999999999999995e-007 1e-010 
body $-1 $11 $-1 $12 #
body $-1 $13 $-1 $14 #
body $-1 $15 $-1 $16 #
body $-1 $17 $-1 $18 #
body $-1 $19 $-1 $20 #
body $-1 $21 $-1 $22 #
body $-1 $23 $-1 $24 #
body $-1 $25 $-1 $26 #
body $-1 $27 $-1 $28 #
body $-1 $29 $-1 $30 #
body $-1 $31 $-1 $32 #
lump $-1 $-1 $33 $0 #
transform $-1 1 0 0 0 1 0 0 0 1 63.40403454695273 36.158895009369068 15.309513047364144 1 rotate no_reflect no_shear #
lump $-1 $-1 $34 $1 #
transform $-1 1 0 0 0 1 0 0 0 1 63.40403454695273 36.158895009369068 15.309513047364144 1 rotate no_reflect no_shear #
lump $-1 $-1 $35 $2 #
transform $-1 1 0 0 0 1 0 0 0 1 63.40403454695273 36.158895009369068 15.309513047364144 1 rotate no_reflect no_shear #
lump $-1 $-1 $36 $3 #
transform $-1 1 0 0 0 1 0 0 0 1 63.40403454695273 36.158895009369068 15.309513047364144 1 rotate no_reflect no_shear #
lump $-1 $-1 $37 $4 #
transform $-1 1 0 0 0 1 0 0 0 1 63.40403454695273 36.158895009369068 15.309513047364144 1 rotate no_reflect no_shear #
lump $-1 $-1 $38 $5 #
transform $-1 1 0 0 0 1 0 0 0 1 63.40403454695273 36.158895009369068 15.309513047364144 1 rotate no_reflect no_shear #
lump $-1 $-1 $39 $6 #
transform $-1 1 0 0 0 1 0 0 0 1 63.40403454695273 36.158895009369068 15.309513047364144 1 rotate no_reflect no_shear #
lump $-1 $-1 $40 $7 #
transform $-1 1 0 0 0 1 0 0 0 1 63.40403454695273 36.158895009369068 15.309513047364144 1 rotate no_reflect no_shear #
lump $-1 $-1 $41 $8 #
transform $-1 1 0 0 0 1 0 0 0 1 63.40403454695273 36.158895009369068 15.309513047364144 1 rotate no_reflect no_shear #
lump $-1 $-1 $42 $9 #
transform $-1 1 0 0 0 1 0 0 0 1 63.40403454695273 36.158895009369068 15.309513047364144 1 rotate no_reflect no_shear #
lump $-1 $-1 $43 $10 #
transform $-1 1 0 0 0 1 0 0 0 1 63.40403454695273 36.158895009369068 15.309513047364144 1 rotate no_reflect no_shear #
shell $-1 $-1 $-1 $44 $-1 $11 #
shell $-1 $-1 $-1 $45 $-1 $13 #
shell $-1 $-1 $-1 $46 $-1 $15 #
shell $-1 $-1 $-1 $47 $-1 $17 #
shell $-1 $-1 $-1 $48 $-1 $19 #
shell $-1 $-1 $-1 $49 $-1 $21 #
shell $-1 $-1 $-1 $50 $-1 $23 #
shell $-1 $-1 $-1 $51 $-1 $25 #
shell $-1 $-1 $-1 $52 $-1 $27 #
shell $-1 $-1 $-1 $53 $-1 $29 #
shell $-1 $-1 $-1 $54 $-1 $31 #
face $-1 $55 $56 $33 $-1 $57 forward single #
face $-1 $58 $59 $34 $-1 $60 reversed single #
face $-1 $61 $62 $35 $-1 $63 forward single #
face $-1 $64 $65 $36 $-1 $66 forward single #
face $-1 $67 $68 $37 $-1 $69 reversed single #
face $-1 $70 $71 $38 $-1 $72 forward single #
face $-1 $73 $74 $39 $-1 $75 forward single #
face $-1 $76 $77 $40 $-1 $78 reversed single #
face $-1 $79 $80 $41 $-1 $81 forward single #
face $-1 $82 $83 $42 $-1 $84 forward single #
face $-1 $85 $86 $43 $-1 $87 forward single #
face $-1 $88 $89 $33 $-1 $90 reversed single #
loop $-1 $-1 $91 $44 #
plane-surface $-1 0 0 15.309513047364144 0 0 1 1 0 0 forward_v I I I I #
face $-1 $92 $93 $34 $-1 $94 reversed single #
loop $-1 $-1 $95 $45 #
plane-surface $-1 -47.113104426580108 -145.97790523040831 71.180735921060148 -1 0 0 0 -0.86602541151947299 0.49999998660252726 forward_v I I I I #
face $-1 $96 $97 $35 $-1 $98 forward single #
loop $-1 $99 $100 $46 #
cone-surface $-1 -58.749483083989126 -32.739159548786972 10.824191181354253 0 0.86602541151947299 -0.49999998660252726 1.5 0 0 1 I I 0 1 1.5 forward I I I I #
face $-1 $101 $102 $36 $-1 $103 forward single #
loop $-1 $104 $105 $47 #
cone-surface $-1 -51.767655889543718 -32.739159548786972 10.824191181354253 0 0.86602541151947299 -0.49999998660252726 1.5 0 0 1 I I 0 1 1.5 forward I I I I #
face $-1 $106 $107 $37 $-1 $108 reversed single #
loop $-1 $-1 $109 $48 #
plane-surface $-1 55.258569486766419 -36.158895009369076 7.7767030730150637 0 -0.86602541151947299 0.49999998660252726 1 0 0 forward_v I I I I #
face $-1 $110 $111 $38 $-1 $112 forward single #
loop $-1 $113 $114 $49 #
cone-surface $-1 51.767655889543718 -32.739159548786972 10.824191181354253 0 0.86602541151947299 -0.49999998660252726 1.5 0 0 1 I I 0 1 1.5 forward I I I I #
face $-1 $115 $116 $39 $-1 $117 forward single #
loop $-1 $118 $119 $50 #
cone-surface $-1 58.749483083989119 -32.739159548786972 10.824191181354253 0 0.86602541151947299 -0.49999998660252726 1.5 0 0 1 I I 0 1 1.5 forward I I I I #
face $-1 $120 $121 $40 $-1 $122 reversed single #
loop $-1 $-1 $123 $51 #
plane-surface $-1 37.860163331774757 105.37564842607117 136.63579535830047 1 0 0 0 -0.84804810408105047 -0.52991925155115449 forward_v I I I I #
face $-1 $124 $125 $41 $-1 $126 forward single #
loop $-1 $127 $128 $52 #
cone-surface $-1 41.842928193596165 32.575536006001755 10.875824682797939 0 -0.84804810408105047 -0.52991925155115449 1.5 0 0 1 I I 0 1 1.5 forward I I I I #
face $-1 $129 $130 $42 $-1 $131 forward single #
loop $-1 $132 $133 $53 #
cone-surface $-1 47.817075486328264 32.575536006001755 10.875824682797939 0 -0.84804810408105047 -0.52991925155115449 1.5 0 0 1 I I 0 1 1.5 forward I I I I #
face $-1 $134 $135 $43 $-1 $136 forward single #
loop $-1 $137 $138 $54 #
cone-surface $-1 53.791222779060362 32.575536006001755 10.875824682797939 0 -0.84804810408105047 -0.52991925155115449 1.5 0 0 1 I I 0 1 1.5 forward I I I I #
face $-1 $139 $140 $33 $-1 $141 reversed single #
loop $-1 $-1 $142 $55 #
plane-surface $-1 0 0 -15.309513047364144 0 0 1 1 0 0 forward_v I I I I #
coedge $-1 $143 $144 $145 $146 forward $56 $-1 #
face $-1 $147 $148 $34 $-1 $149 forward single #
loop $-1 $-1 $150 $58 #
plane-surface $-1 -55.258569486766419 -36.158895009369076 7.7767030730150637 0 -0.86602541151947299 0.49999998660252726 1 0 0 forward_v I I I I #
coedge $-1 $151 $152 $153 $154 reversed $59 $-1 #
face $-1 $-1 $155 $35 $-1 $156 forward single #
loop $-1 $157 $158 $61 #
cone-surface $-1 -58.749483083989126 -30.844439885098915 9.7302743125669995 0 0.86602541151947299 -0.49999998660252726 0.75 0 0 1 I I -0.70710678118654757 0.70710678118654757 0.75 forward I I I I #
loop $-1 $-1 $159 $46 #
coedge $-1 $100 $100 $160 $161 reversed $62 $-1 #
face $-1 $-1 $162 $36 $-1 $163 forward single #
loop $-1 $164 $165 $64 #
cone-surface $-1 -51.767655889543718 -30.844439885098915 9.7302743125669995 0 0.86602541151947299 -0.49999998660252726 0.75 0 0 1 I I -0.70710678118654757 0.70710678118654757 0.75 forward I I I I #
loop $-1 $-1 $166 $47 #
coedge $-1 $105 $105 $167 $168 reversed $65 $-1 #
face $-1 $169 $170 $37 $-1 $171 reversed single #
loop $-1 $-1 $172 $67 #
plane-surface $-1 47.113104426580108 -145.97790523040831 71.180735921060148 1 0 0 0 0.86602541151947299 -0.49999998660252726 forward_v I I I I #
coedge $-1 $173 $174 $175 $176 reversed $68 $-1 #
face $-1 $-1 $177 $38 $-1 $178 forward single #
loop $-1 $179 $180 $70 #
cone-surface $-1 51.767655889543718 -30.844439885098915 9.7302743125669995 0 0.86602541151947299 -0.49999998660252726 0.75 0 0 1 I I -0.70710678118654757 0.70710678118654757 0.75 forward I I I I #
loop $-1 $-1 $181 $49 #
coedge $-1 $114 $114 $182 $183 reversed $71 $-1 #
face $-1 $-1 $184 $39 $-1 $185 forward single #
loop $-1 $186 $187 $73 #
cone-surface $-1 58.749483083989119 -30.844439885098915 9.7302743125669995 0 0.86602541151947299 -0.49999998660252726 0.75 0 0 1 I I -0.70710678118654757 0.70710678118654757 0.75 forward I I I I #
loop $-1 $-1 $188 $50 #
coedge $-1 $119 $119 $189 $190 reversed $74 $-1 #
face $-1 $191 $192 $40 $-1 $193 reversed single #
loop $-1 $-1 $194 $76 #
plane-surface $-1 47.817075486328264 -2.1636941511942069 69.437758293411008 0 0.84804810408105047 0.52991925155115449 1 0 0 forward_v I I I I #
coedge $-1 $195 $196 $197 $198 reversed $77 $-1 #
face $-1 $-1 $199 $41 $-1 $200 forward single #
loop $-1 $201 $202 $79 #
cone-surface $-1 41.842928193596165 30.605895304170453 9.6450566149061441 0 -0.84804810408105047 -0.52991925155115449 0.75 0 0 1 I I -0.70710678118654757 0.70710678118654757 0.75 forward I I I I #
loop $-1 $-1 $203 $52 #
coedge $-1 $128 $128 $204 $205 reversed $80 $-1 #
face $-1 $-1 $206 $42 $-1 $207 forward single #
loop $-1 $208 $209 $82 #
cone-surface $-1 47.817075486328264 30.605895304170453 9.6450566149061441 0 -0.84804810408105047 -0.52991925155115449 0.75 0 0 1 I I -0.70710678118654757 0.70710678118654757 0.75 forward I I I I #
loop $-1 $-1 $210 $53 #
coedge $-1 $133 $133 $211 $212 reversed $83 $-1 #
face $-1 $-1 $213 $43 $-1 $214 forward single #
loop $-1 $215 $216 $85 #
cone-surface $-1 53.791222779060362 30.605895304170453 9.6450566149061441 0 -0.84804810408105047 -0.52991925155115449 0.75 0 0 1 I I -0.70710678118654757 0.70710678118654757 0.75 forward I I I I #
loop $-1 $-1 $217 $54 #
coedge $-1 $138 $138 $218 $219 reversed $86 $-1 #
face $-1 $220 $221 $33 $-1 $222 reversed single #
loop $-1 $-1 $223 $88 #
plane-surface $-1 0 -36.158895009369068 0 0 1 0 0 0 1 forward_v I I I I #
coedge $-1 $224 $225 $226 $227 forward $89 $-1 #
coedge $-1 $228 $91 $229 $230 forward $56 $-1 #
coedge $-1 $91 $228 $231 $232 forward $56 $-1 #
coedge $-1 $233 $234 $91 $146 reversed $235 $-1 #
edge $-1 $236 -36.158895009369068 $237 36.158895009369068 $145 $238 forward 7 unknown #
face $-1 $239 $240 $34 $-1 $241 reversed single #
loop $-1 $-1 $153 $92 #
plane-surface $-1 0 0 15.309513047364144 0 0 1 1 0 0 forward_v I I I I #
coedge $-1 $242 $243 $244 $245 reversed $93 $-1 #
coedge $-1 $152 $95 $246 $247 reversed $59 $-1 #
coedge $-1 $95 $151 $242 $248 reversed $59 $-1 #
coedge $-1 $244 $249 $95 $154 forward $148 $-1 #
edge $-1 $250 36.830057605835087 $251 41.179127316902367 $153 $252 forward 7 unknown #
loop $-1 $-1 $160 $96 #
plane-surface $-1 -55.258569486766419 -36.158895009369076 7.7767030730150637 0 -0.86602541151947299 0.49999998660252726 1 0 0 forward_v I I I I #
loop $-1 $-1 $253 $61 #
coedge $-1 $158 $158 $159 $254 reversed $97 $-1 #
coedge $-1 $159 $159 $158 $254 forward $99 $-1 #
coedge $-1 $160 $160 $100 $161 forward $155 $-1 #
edge $-1 $255 0 $255 6.2831853071796004 $160 $256 forward 7 unknown #
loop $-1 $-1 $167 $101 #
plane-surface $-1 -55.258569486766419 -36.158895009369076 7.7767030730150637 0 -0.86602541151947299 0.49999998660252726 1 0 0 forward_v I I I I #
loop $-1 $-1 $257 $64 #
coedge $-1 $165 $165 $166 $258 reversed $102 $-1 #
coedge $-1 $166 $166 $165 $258 forward $104 $-1 #
coedge $-1 $167 $167 $105 $168 forward $162 $-1 #
edge $-1 $259 0 $259 6.2831853071796004 $167 $260 forward 7 unknown #
face $-1 $261 $262 $37 $-1 $263 forward single #
loop $-1 $-1 $264 $106 #
plane-surface $-1 63.40403454695273 0 0 -1 0 0 0 0 1 forward_v I I I I #
coedge $-1 $265 $266 $267 $268 reversed $107 $-1 #
coedge $-1 $269 $109 $264 $270 reversed $68 $-1 #
coedge $-1 $109 $269 $265 $271 forward $68 $-1 #
coedge $-1 $267 $272 $109 $176 forward $262 $-1 #
edge $-1 $273 -35.77474980356952 $274 -19.483819683196899 $175 $275 forward 7 unknown #
loop $-1 $-1 $182 $110 #
plane-surface $-1 55.258569486766419 -36.158895009369076 7.7767030730150637 0 -0.86602541151947299 0.49999998660252726 1 0 0 forward_v I I I I #
loop $-1 $-1 $276 $70 #
coedge $-1 $180 $180 $181 $277 reversed $111 $-1 #
coedge $-1 $181 $181 $180 $277 forward $113 $-1 #
coedge $-1 $182 $182 $114 $183 forward $177 $-1 #
edge $-1 $278 0 $278 6.2831853071796004 $182 $279 forward 7 unknown #
loop $-1 $-1 $189 $115 #
plane-surface $-1 55.258569486766419 -36.158895009369076 7.7767030730150637 0 -0.86602541151947299 0.49999998660252726 1 0 0 forward_v I I I I #
loop $-1 $-1 $280 $73 #
coedge $-1 $187 $187 $188 $281 reversed $116 $-1 #
coedge $-1 $188 $188 $187 $281 forward $118 $-1 #
coedge $-1 $189 $189 $119 $190 forward $184 $-1 #
edge $-1 $282 0 $282 6.2831853071796004 $189 $283 forward 7 unknown #
face $-1 $284 $285 $40 $-1 $286 reversed single #
loop $-1 $-1 $287 $120 #
plane-surface $-1 57.773987640881771 105.37564842607117 136.63579535830047 -1 0 0 0 0.84804810408105047 0.52991925155115449 forward_v I I I I #
coedge $-1 $288 $289 $290 $291 reversed $121 $-1 #
coedge $-1 $196 $123 $292 $293 reversed $77 $-1 #
coedge $-1 $123 $195 $288 $294 reversed $77 $-1 #
coedge $-1 $290 $295 $123 $198 forward $296 $-1 #
edge $-1 $297 16.528929203666515 $298 21.02843796286011 $197 $299 forward 7 unknown #
loop $-1 $-1 $204 $124 #
plane-surface $-1 47.817075486328264 -2.1636941511942069 69.437758293411008 0 0.84804810408105047 0.52991925155115449 1 0 0 forward_v I I I I #
loop $-1 $-1 $300 $79 #
coedge $-1 $202 $202 $203 $301 reversed $125 $-1 #
coedge $-1 $203 $203 $202 $301 forward $127 $-1 #
coedge $-1 $204 $204 $128 $205 forward $199 $-1 #
edge $-1 $302 -5.0162043176096096e-016 $302 6.2831853071795996 $204 $303 forward 7 unknown #
loop $-1 $-1 $211 $129 #
plane-surface $-1 47.817075486328264 -2.1636941511942069 69.437758293411008 0 0.84804810408105047 0.52991925155115449 1 0 0 forward_v I I I I #
loop $-1 $-1 $304 $82 #
coedge $-1 $209 $209 $210 $305 reversed $130 $-1 #
coedge $-1 $210 $210 $209 $305 forward $132 $-1 #
coedge $-1 $211 $211 $133 $212 forward $206 $-1 #
edge $-1 $306 -5.0162043176096096e-016 $306 6.2831853071795996 $211 $307 forward 7 unknown #
loop $-1 $-1 $218 $134 #
plane-surface $-1 47.817075486328264 -2.1636941511942069 69.437758293411008 0 0.84804810408105047 0.52991925155115449 1 0 0 forward_v I I I I #
loop $-1 $-1 $308 $85 #
coedge $-1 $216 $216 $217 $309 reversed $135 $-1 #
coedge $-1 $217 $217 $216 $309 forward $137 $-1 #
coedge $-1 $218 $218 $138 $219 forward $213 $-1 #
edge $-1 $310 -5.0162043176096096e-016 $310 6.2831853071795996 $218 $311 forward 7 unknown #
face $-1 $312 $313 $33 $-1 $314 reversed single #
loop $-1 $-1 $315 $139 #
plane-surface $-1 -63.40403454695273 0 0 1 0 0 0 0 -1 forward_v I I I I #
coedge $-1 $316 $231 $317 $318 forward $140 $-1 #
coedge $-1 $319 $142 $316 $320 forward $89 $-1 #
coedge $-1 $142 $319 $321 $322 forward $89 $-1 #
coedge $-1 $234 $233 $142 $227 reversed $235 $-1 #
edge $-1 $323 -36.158895009369068 $324 36.158895009369068 $226 $325 forward 7 unknown #
coedge $-1 $144 $143 $326 $327 forward $56 $-1 #
coedge $-1 $328 $329 $143 $230 reversed $313 $-1 #
edge $-1 $237 -63.40403454695273 $330 63.40403454695273 $229 $331 forward 7 unknown #
coedge $-1 $223 $332 $144 $232 reversed $140 $-1 #
edge $-1 $333 -63.40403454695273 $236 63.40403454695273 $231 $334 forward 7 unknown #
coedge $-1 $226 $145 $332 $335 forward $235 $-1 #
coedge $-1 $145 $226 $328 $336 reversed $235 $-1 #
loop $-1 $-1 $233 $312 #
vertex $-1 $146 $337 #
vertex $-1 $146 $338 #
straight-curve $-1 63.40403454695273 0 15.309513047364144 0 1 0 I I #
face $-1 $-1 $339 $34 $-1 $340 reversed single #
loop $-1 $-1 $341 $147 #
plane-surface $-1 -63.40403454695273 0 0 1 0 0 0 0 -1 forward_v I I I I #
coedge $-1 $342 $150 $152 $248 forward $93 $-1 #
coedge $-1 $150 $342 $341 $343 reversed $93 $-1 #
coedge $-1 $344 $153 $150 $245 forward $148 $-1 #
edge $-1 $251 19.483819683196899 $345 35.77474980356952 $244 $346 forward 7 unknown #
coedge $-1 $347 $348 $151 $247 forward $339 $-1 #
edge $-1 $349 -27.813664887514996 $250 -20.280854913165932 $246 $350 forward 7 unknown #
edge $-1 $251 -8.6981396552007517 $349 -1.4321304723534956e-014 $152 $351 forward 7 unknown #
coedge $-1 $153 $344 $347 $352 forward $148 $-1 #
vertex $-1 $247 $353 #
vertex $-1 $154 $354 #
straight-curve $-1 -47.113104426580108 -72.988952615204155 15.309513047364142 0 1 0 I I #
coedge $-1 $253 $253 $-1 $355 reversed $157 $-1 #
edge $-1 $356 0 $356 6.2831853071796004 $158 $357 forward 7 unknown #
vertex $-1 $161 $358 #
ellipse-curve $-1 -58.749483083989126 -33.984360153835425 11.543108060189612 0 -0.86602541151947299 0.49999998660252726 1.5 0 0 1 I I #
coedge $-1 $257 $257 $-1 $359 reversed $164 $-1 #
edge $-1 $360 0 $360 6.2831853071796004 $165 $361 forward 7 unknown #
vertex $-1 $168 $362 #
ellipse-curve $-1 -51.767655889543718 -33.984360153835425 11.543108060189612 0 -0.86602541151947299 0.49999998660252726 1.5 0 0 1 I I #
face $-1 $-1 $363 $37 $-1 $364 reversed single #
loop $-1 $-1 $175 $169 #
plane-surface $-1 0 0 15.309513047364144 0 0 1 1 0 0 forward_v I I I I #
coedge $-1 $365 $366 $173 $270 forward $170 $-1 #
coedge $-1 $266 $172 $174 $271 reversed $107 $-1 #
coedge $-1 $172 $265 $367 $368 reversed $107 $-1 #
coedge $-1 $369 $175 $172 $268 forward $262 $-1 #
edge $-1 $274 -41.179127316902367 $370 -36.830057605835087 $267 $371 forward 7 unknown #
coedge $-1 $174 $173 $372 $373 reversed $68 $-1 #
edge $-1 $374 -5.6723122705870388 $273 3.0258273846136987 $264 $375 forward 7 unknown #
edge $-1 $376 1.4321304723534956e-014 $274 8.6981396552007517 $265 $377 forward 7 unknown #
coedge $-1 $175 $369 $365 $378 forward $262 $-1 #
vertex $-1 $176 $379 #
vertex $-1 $176 $380 #
straight-curve $-1 27.629284743383209 -31.809825298301789 15.309513047364144 -1 0 0 I I #
coedge $-1 $276 $276 $-1 $381 reversed $179 $-1 #
edge $-1 $382 0 $382 6.2831853071796004 $180 $383 forward 7 unknown #
vertex $-1 $183 $384 #
ellipse-curve $-1 51.767655889543718 -33.984360153835425 11.543108060189612 0 -0.86602541151947299 0.49999998660252726 1.5 0 0 1 I I #
coedge $-1 $280 $280 $-1 $385 reversed $186 $-1 #
edge $-1 $386 0 $386 6.2831853071796004 $187 $387 forward 7 unknown #
vertex $-1 $190 $388 #
ellipse-curve $-1 58.749483083989119 -33.984360153835425 11.543108060189612 0 -0.86602541151947299 0.49999998660252726 1.5 0 0 1 I I #
face $-1 $-1 $296 $40 $-1 $389 forward single #
loop $-1 $-1 $390 $191 #
plane-surface $-1 0 36.158895009369068 0 0 -1 0 0 0 -1 forward_v I I I I #
coedge $-1 $391 $392 $393 $394 reversed $192 $-1 #
coedge $-1 $395 $194 $196 $294 forward $121 $-1 #
coedge $-1 $194 $395 $391 $396 forward $121 $-1 #
coedge $-1 $393 $197 $194 $291 forward $296 $-1 #
edge $-1 $298 13.951625588610625 $397 33.865449897717639 $290 $398 forward 7 unknown #
coedge $-1 $399 $400 $195 $293 forward $285 $-1 #
edge $-1 $401 -60.20910410246163 $297 -53.008384631786093 $292 $402 forward 7 unknown #
edge $-1 $298 63.826857209592518 $401 72.317790018738151 $196 $403 forward 7 unknown #
coedge $-1 $197 $393 $399 $404 forward $296 $-1 #
loop $-1 $-1 $393 $284 #
vertex $-1 $293 $405 #
vertex $-1 $198 $406 #
straight-curve $-1 37.860163331774757 52.687824213035583 15.309513047364142 0 -1 0 I I #
coedge $-1 $300 $300 $-1 $407 reversed $201 $-1 #
edge $-1 $408 0 $408 6.2831853071796004 $202 $409 forward 7 unknown #
vertex $-1 $205 $410 #
ellipse-curve $-1 41.842928193596165 33.909140629772274 11.70915331202637 0 0.84804810408105047 0.52991925155115449 1.5 0 0 1 I I #
coedge $-1 $304 $304 $-1 $411 reversed $208 $-1 #
edge $-1 $412 0 $412 6.2831853071796004 $209 $413 forward 7 unknown #
vertex $-1 $212 $414 #
ellipse-curve $-1 47.817075486328264 33.909140629772274 11.70915331202637 0 0.84804810408105047 0.52991925155115449 1.5 0 0 1 I I #
coedge $-1 $308 $308 $-1 $415 reversed $215 $-1 #
edge $-1 $416 0 $416 6.2831853071796004 $216 $417 forward 7 unknown #
vertex $-1 $219 $418 #
ellipse-curve $-1 53.791222779060362 33.909140629772274 11.70915331202637 0 0.84804810408105047 0.52991925155115449 1.5 0 0 1 I I #
face $-1 $-1 $235 $33 $-1 $419 reversed single #
loop $-1 $-1 $328 $220 #
plane-surface $-1 0 36.158895009369068 0 0 -1 0 0 0 -1 forward_v I I I I #
coedge $-1 $420 $326 $329 $421 forward $221 $-1 #
coedge $-1 $332 $223 $224 $320 reversed $140 $-1 #
coedge $-1 $326 $420 $223 $318 reversed $221 $-1 #
edge $-1 $333 -15.309513047364144 $422 15.309513047364144 $317 $423 forward 7 unknown #
coedge $-1 $225 $224 $420 $424 forward $89 $-1 #
edge $-1 $324 -63.40403454695273 $422 63.40403454695273 $316 $425 forward 7 unknown #
coedge $-1 $329 $328 $225 $322 reversed $313 $-1 #
edge $-1 $426 -63.40403454695273 $323 63.40403454695273 $321 $427 forward 7 unknown #
vertex $-1 $227 $428 #
vertex $-1 $335 $429 #
straight-curve $-1 63.40403454695273 0 -15.309513047364144 0 -1 0 I I #
coedge $-1 $315 $317 $228 $327 reversed $221 $-1 #
edge $-1 $330 -36.158895009369068 $333 36.158895009369068 $326 $430 forward 7 unknown #
coedge $-1 $321 $229 $234 $336 forward $313 $-1 #
coedge $-1 $229 $321 $315 $421 reversed $313 $-1 #
vertex $-1 $230 $431 #
straight-curve $-1 0 36.158895009369068 15.309513047364144 -1 0 0 I I #
coedge $-1 $231 $316 $233 $335 reversed $140 $-1 #
vertex $-1 $327 $432 #
straight-curve $-1 0 -36.158895009369068 15.309513047364144 1 0 0 I I #
edge $-1 $236 -15.309513047364144 $324 15.309513047364144 $233 $433 forward 7 unknown #
edge $-1 $237 -15.309513047364144 $323 15.309513047364144 $234 $434 forward 7 unknown #
point $-1 63.40403454695273 -36.158895009369068 15.309513047364144 #
point $-1 63.40403454695273 36.158895009369068 15.309513047364144 #
loop $-1 $-1 $246 $239 #
plane-surface $-1 0 -36.158895009369068 0 0 1 0 0 0 1 forward_v I I I I #
coedge $-1 $435 $436 $243 $343 forward $240 $-1 #
coedge $-1 $243 $242 $348 $437 reversed $93 $-1 #
edge $-1 $345 -3.0258273846136987 $438 5.6723122705870388 $341 $439 forward 7 unknown #
coedge $-1 $249 $244 $436 $440 forward $148 $-1 #
vertex $-1 $440 $441 #
straight-curve $-1 -27.629284743383209 -31.809825298301789 15.309513047364144 -1 0 0 I I #
coedge $-1 $442 $246 $249 $352 reversed $339 $-1 #
coedge $-1 $246 $442 $342 $437 forward $339 $-1 #
vertex $-1 $247 $443 #
straight-curve $-1 -47.113104426580108 -36.158895009369068 35.590367960530074 0 0 1 I I #
straight-curve $-1 -47.113104426580108 -36.158895009369076 7.7767030730150637 0 -0.49999998660252726 -0.86602541151947299 I I #
edge $-1 $444 -63.40403454695273 $250 -47.113104426580108 $347 $445 forward 7 unknown #
point $-1 -47.113104426580108 -36.158895009369068 15.309513047364144 #
point $-1 -47.113104426580108 -31.809825298301789 15.309513047364142 #
edge $-1 $446 1 $446 0 $253 $-1 forward 7 unknown #
vertex $-1 $254 $447 #
ellipse-curve $-1 -58.749483083989126 -31.493958943738519 10.105274302518895 0 -0.86602541151947299 0.49999998660252726 1.5 0 0 1 I I #
point $-1 -57.249483083989126 -33.984360153835425 11.543108060189612 #
edge $-1 $448 1 $448 0 $257 $-1 forward 7 unknown #
vertex $-1 $258 $449 #
ellipse-curve $-1 -51.767655889543718 -31.493958943738519 10.105274302518895 0 -0.86602541151947299 0.49999998660252726 1.5 0 0 1 I I #
point $-1 -50.267655889543718 -33.984360153835425 11.543108060189612 #
loop $-1 $-1 $372 $261 #
plane-surface $-1 0 -36.158895009369068 0 0 1 0 0 0 1 forward_v I I I I #
coedge $-1 $366 $264 $272 $378 reversed $170 $-1 #
coedge $-1 $264 $365 $450 $451 forward $170 $-1 #
coedge $-1 $372 $452 $266 $368 forward $363 $-1 #
edge $-1 $370 20.280854913165932 $376 27.813664887514996 $367 $453 forward 7 unknown #
coedge $-1 $272 $267 $452 $454 forward $262 $-1 #
vertex $-1 $454 $455 #
straight-curve $-1 47.113104426580108 -72.988952615204155 15.309513047364142 0 -1 0 I I #
coedge $-1 $450 $367 $269 $373 forward $363 $-1 #
edge $-1 $376 19.483819683196899 $374 35.77474980356952 $372 $456 forward 7 unknown #
vertex $-1 $373 $457 #
straight-curve $-1 63.40403454695273 -33.322738950070196 12.689069641417172 0 0.49999998660252726 0.86602541151947299 I I #
vertex $-1 $373 $458 #
straight-curve $-1 47.113104426580108 -36.158895009369076 7.7767030730150637 0 0.49999998660252726 0.86602541151947299 I I #
edge $-1 $459 -36.158895009369068 $273 -31.809825298301789 $365 $460 forward 7 unknown #
point $-1 63.40403454695273 -31.809825298301789 15.309513047364142 #
point $-1 47.113104426580108 -31.809825298301789 15.309513047364142 #
edge $-1 $461 1 $461 0 $276 $-1 forward 7 unknown #
vertex $-1 $277 $462 #
ellipse-curve $-1 51.767655889543718 -31.493958943738519 10.105274302518895 0 -0.86602541151947299 0.49999998660252726 1.5 0 0 1 I I #
point $-1 53.267655889543718 -33.984360153835425 11.543108060189612 #
edge $-1 $463 1 $463 0 $280 $-1 forward 7 unknown #
vertex $-1 $281 $464 #
ellipse-curve $-1 58.749483083989119 -31.493958943738519 10.105274302518895 0 -0.86602541151947299 0.49999998660252726 1.5 0 0 1 I I #
point $-1 60.249483083989119 -33.984360153835425 11.543108060189612 #
plane-surface $-1 0 0 15.309513047364144 0 0 1 1 0 0 forward_v I I I I #
coedge $-1 $400 $399 $392 $465 forward $285 $-1 #
coedge $-1 $392 $287 $289 $396 reversed $192 $-1 #
coedge $-1 $287 $391 $390 $465 reversed $192 $-1 #
coedge $-1 $295 $290 $287 $394 forward $296 $-1 #
edge $-1 $397 -21.02843796286011 $466 -16.528929203666515 $393 $467 forward 7 unknown #
coedge $-1 $289 $288 $400 $468 reversed $121 $-1 #
edge $-1 $469 -72.317790018738151 $397 -63.826857209592518 $391 $470 forward 7 unknown #
vertex $-1 $291 $471 #
straight-curve $-1 23.908537743164132 31.659386250175473 15.309513047364149 1 0 0 I I #
coedge $-1 $390 $292 $295 $404 reversed $285 $-1 #
coedge $-1 $292 $390 $395 $468 forward $285 $-1 #
vertex $-1 $293 $472 #
straight-curve $-1 37.860163331774757 36.158895009369068 68.317897679150235 0 0 1 I I #
straight-curve $-1 37.860163331774757 -2.1636941511942069 69.437758293411008 0 0.52991925155115449 -0.84804810408105047 I I #
edge $-1 $466 -57.773987640881771 $297 -37.860163331774757 $399 $473 forward 7 unknown #
point $-1 37.860163331774757 36.158895009369068 15.309513047364144 #
point $-1 37.860163331774757 31.659386250175473 15.309513047364142 #
edge $-1 $474 1 $474 0 $300 $-1 forward 7 unknown #
vertex $-1 $301 $475 #
ellipse-curve $-1 41.842928193596165 31.24193138223124 10.04249605356951 0 0.84804810408105047 0.52991925155115449 1.5 0 0 1 I I #
point $-1 43.342928193596165 33.909140629772267 11.709153312026366 #
edge $-1 $476 1 $476 0 $304 $-1 forward 7 unknown #
vertex $-1 $305 $477 #
ellipse-curve $-1 47.817075486328264 31.24193138223124 10.04249605356951 0 0.84804810408105047 0.52991925155115449 1.5 0 0 1 I I #
point $-1 49.317075486328264 33.909140629772267 11.709153312026366 #
edge $-1 $478 1 $478 0 $308 $-1 forward 7 unknown #
vertex $-1 $309 $479 #
ellipse-curve $-1 53.791222779060362 31.24193138223124 10.04249605356951 0 0.84804810408105047 0.52991925155115449 1.5 0 0 1 I I #
point $-1 55.291222779060362 33.909140629772267 11.709153312026366 #
plane-surface $-1 63.40403454695273 0 0 -1 0 0 0 0 1 forward_v I I I I #
coedge $-1 $317 $315 $319 $424 reversed $221 $-1 #
edge $-1 $330 -15.309513047364144 $426 15.309513047364144 $329 $480 forward 7 unknown #
vertex $-1 $424 $481 #
straight-curve $-1 -63.40403454695273 -36.158895009369068 0 0 0 -1 I I #
edge $-1 $422 -36.158895009369068 $426 36.158895009369068 $420 $482 forward 7 unknown #
straight-curve $-1 0 -36.158895009369068 -15.309513047364144 -1 0 0 I I #
vertex $-1 $322 $483 #
straight-curve $-1 0 36.158895009369068 -15.309513047364144 1 0 0 I I #
point $-1 63.40403454695273 36.158895009369068 -15.309513047364144 #
point $-1 63.40403454695273 -36.158895009369068 -15.309513047364144 #
straight-curve $-1 -63.40403454695273 0 15.309513047364144 0 -1 0 I I #
point $-1 -63.40403454695273 36.158895009369068 15.309513047364144 #
point $-1 -63.40403454695273 -36.158895009369068 15.309513047364144 #
straight-curve $-1 63.40403454695273 -36.158895009369068 0 0 0 -1 I I #
straight-curve $-1 63.40403454695273 36.158895009369068 0 0 0 -1 I I #
coedge $-1 $436 $341 $442 $484 reversed $240 $-1 #
coedge $-1 $341 $435 $344 $440 reversed $240 $-1 #
edge $-1 $438 -35.77474980356952 $349 -19.483819683196899 $348 $485 forward 7 unknown #
vertex $-1 $343 $486 #
straight-curve $-1 -63.40403454695273 -33.322738950070196 12.689069641417172 0 -0.49999998660252726 -0.86602541151947299 I I #
edge $-1 $345 31.809825298301789 $444 36.158895009369068 $436 $487 forward 7 unknown #
point $-1 -63.40403454695273 -31.809825298301789 15.309513047364142 #
coedge $-1 $348 $347 $435 $484 forward $339 $-1 #
point $-1 -47.113104426580108 -36.158895009369068 7.7767030730150761 #
vertex $-1 $440 $488 #
straight-curve $-1 0 -36.158895009369068 15.309513047364144 1 0 0 I I #
vertex $-1 $355 $489 #
point $-1 -57.249483083989126 -31.493958943738519 10.105274302518895 #
vertex $-1 $359 $490 #
point $-1 -50.267655889543718 -31.493958943738519 10.105274302518895 #
coedge $-1 $452 $372 $366 $451 reversed $363 $-1 #
edge $-1 $459 -15.309513047364144 $374 -7.7767030730150761 $366 $491 forward 7 unknown #
coedge $-1 $367 $450 $369 $454 reversed $363 $-1 #
straight-curve $-1 47.113104426580108 -36.158895009369068 35.590367960530074 0 0 -1 I I #
edge $-1 $370 47.113104426580108 $459 63.40403454695273 $452 $492 forward 7 unknown #
point $-1 47.113104426580108 -36.158895009369068 15.309513047364144 #
straight-curve $-1 27.629284743383209 -36.158895009369068 7.7767030730150859 1 0 0 I I #
point $-1 63.40403454695273 -36.158895009369068 7.7767030730150761 #
point $-1 47.113104426580108 -36.158895009369068 7.7767030730150761 #
vertex $-1 $378 $493 #
straight-curve $-1 63.40403454695273 0 15.309513047364144 0 1 0 I I #
vertex $-1 $381 $494 #
point $-1 53.267655889543718 -31.493958943738519 10.105274302518895 #
vertex $-1 $385 $495 #
point $-1 60.249483083989119 -31.493958943738519 10.105274302518895 #
edge $-1 $466 53.008384631786093 $469 60.20910410246163 $390 $496 forward 7 unknown #
vertex $-1 $404 $497 #
straight-curve $-1 57.773987640881771 52.687824213035583 15.309513047364142 0 1 0 I I #
edge $-1 $469 -33.865449897717639 $401 -13.951625588610625 $400 $498 forward 7 unknown #
vertex $-1 $468 $499 #
straight-curve $-1 57.773987640881771 -2.1636941511942069 69.437758293411008 0 -0.52991925155115449 0.84804810408105047 I I #
point $-1 57.773987640881771 31.659386250175473 15.309513047364142 #
point $-1 37.860163331774757 36.158895009369061 8.1087935766886048 #
straight-curve $-1 0 36.158895009369068 15.309513047364144 -1 0 0 I I #
vertex $-1 $407 $500 #
point $-1 43.342928193596165 31.24193138223124 10.04249605356951 #
vertex $-1 $411 $501 #
point $-1 49.317075486328264 31.24193138223124 10.04249605356951 #
vertex $-1 $415 $502 #
point $-1 55.291222779060362 31.24193138223124 10.04249605356951 #
straight-curve $-1 -63.40403454695273 36.158895009369068 0 0 0 -1 I I #
point $-1 -63.40403454695273 -36.158895009369068 -15.309513047364144 #
straight-curve $-1 -63.40403454695273 0 -15.309513047364144 0 1 0 I I #
point $-1 -63.40403454695273 36.158895009369068 -15.309513047364144 #
edge $-1 $444 -15.309513047364144 $438 -7.7767030730150761 $435 $503 forward 7 unknown #
straight-curve $-1 -27.629284743383209 -36.158895009369068 7.7767030730150859 1 0 0 I I #
point $-1 -63.40403454695273 -36.158895009369068 7.7767030730150761 #
straight-curve $-1 -63.40403454695273 0 15.309513047364144 0 -1 0 I I #
point $-1 -63.40403454695273 -36.158895009369068 15.309513047364144 #
point $-1 -58.749483083989126 -30.19492082645931 9.3552743226151041 #
point $-1 -51.767655889543718 -30.19492082645931 9.3552743226151041 #
straight-curve $-1 63.40403454695273 -36.158895009369068 0 0 0 -1 I I #
straight-curve $-1 0 -36.158895009369068 15.309513047364144 1 0 0 I I #
point $-1 63.40403454695273 -36.158895009369068 15.309513047364144 #
point $-1 51.767655889543718 -30.19492082645931 9.3552743226151041 #
point $-1 58.749483083989119 -30.19492082645931 9.3552743226151041 #
straight-curve $-1 57.773987640881771 36.158895009369068 68.317897679150235 0 0 -1 I I #
point $-1 57.773987640881771 36.158895009369068 15.309513047364144 #
straight-curve $-1 23.908537743164132 36.158895009369068 8.1087935766885941 -1 0 0 I I #
point $-1 57.773987640881771 36.158895009369061 8.1087935766886048 #
point $-1 41.842928193596165 29.969859226109666 9.2476171762427786 #
point $-1 47.817075486328264 29.969859226109666 9.2476171762427786 #
point $-1 53.791222779060362 29.969859226109666 9.2476171762427786 #
straight-curve $-1 -63.40403454695273 -36.158895009369068 0 0 0 -1 I I #
End-of-ACIS-data 