500 0 9 0           
7 Unknown 11 ACIS 5.0 NT 24 Thu Mar 25 21:10:10 1999 
-1 9.9999999999999995e-007 1e-010 
body $-1 $9 $-1 $10 #
body $-1 $11 $-1 $12 #
body $-1 $13 $-1 $14 #
body $-1 $15 $-1 $16 #
body $-1 $17 $-1 $18 #
body $-1 $19 $-1 $20 #
body $-1 $21 $-1 $22 #
body $-1 $23 $-1 $24 #
body $-1 $25 $-1 $26 #
lump $-1 $-1 $27 $0 #
transform $-1 1 0 0 0 1 0 0 0 1 73.268837549974052 48.735057871805147 17.244449643942698 1 rotate no_reflect no_shear #
lump $-1 $-1 $28 $1 #
transform $-1 1 0 0 0 1 0 0 0 1 73.268837549974052 48.735057871805147 17.244449643942698 1 rotate no_reflect no_shear #
lump $-1 $-1 $29 $2 #
transform $-1 1 0 0 0 1 0 0 0 1 73.268837549974052 48.735057871805147 17.244449643942698 1 rotate no_reflect no_shear #
lump $-1 $-1 $30 $3 #
transform $-1 1 0 0 0 1 0 0 0 1 73.268837549974052 48.735057871805147 17.244449643942698 1 rotate no_reflect no_shear #
lump $-1 $-1 $31 $4 #
transform $-1 1 0 0 0 1 0 0 0 1 73.268837549974052 48.735057871805147 17.244449643942698 1 rotate no_reflect no_shear #
lump $-1 $-1 $32 $5 #
transform $-1 1 0 0 0 1 0 0 0 1 73.268837549974052 48.735057871805147 17.244449643942698 1 rotate no_reflect no_shear #
lump $-1 $-1 $33 $6 #
transform $-1 1 0 0 0 1 0 0 0 1 73.268837549974052 48.735057871805147 17.244449643942698 1 rotate no_reflect no_shear #
lump $-1 $-1 $34 $7 #
transform $-1 1 0 0 0 1 0 0 0 1 73.268837549974052 48.735057871805147 17.244449643942698 1 rotate no_reflect no_shear #
lump $-1 $-1 $35 $8 #
transform $-1 1 0 0 0 1 0 0 0 1 73.268837549974052 48.735057871805147 17.244449643942698 1 rotate no_reflect no_shear #
shell $-1 $-1 $-1 $36 $-1 $9 #
shell $-1 $-1 $-1 $37 $-1 $11 #
shell $-1 $-1 $-1 $38 $-1 $13 #
shell $-1 $-1 $-1 $39 $-1 $15 #
shell $-1 $-1 $-1 $40 $-1 $17 #
shell $-1 $-1 $-1 $41 $-1 $19 #
shell $-1 $-1 $-1 $42 $-1 $21 #
shell $-1 $-1 $-1 $43 $-1 $23 #
shell $-1 $-1 $-1 $44 $-1 $25 #
face $-1 $45 $46 $27 $-1 $47 forward single #
face $-1 $48 $49 $28 $-1 $50 reversed single #
face $-1 $51 $52 $29 $-1 $53 reversed single #
face $-1 $54 $55 $30 $-1 $56 reversed single #
face $-1 $57 $58 $31 $-1 $59 forward single #
face $-1 $60 $61 $32 $-1 $62 forward single #
face $-1 $63 $64 $33 $-1 $65 reversed single #
face $-1 $66 $67 $34 $-1 $68 forward single #
face $-1 $69 $70 $35 $-1 $71 forward single #
face $-1 $72 $73 $27 $-1 $74 reversed single #
loop $-1 $-1 $75 $36 #
plane-surface $-1 0 0 17.244449643942698 0 0 1 1 0 0 forward_v I I I I #
face $-1 $76 $77 $28 $-1 $78 reversed single #
loop $-1 $-1 $79 $37 #
plane-surface $-1 -66.309851921542432 0 8.0734779838800073 0 0 1 1 0 0 forward_v I I I I #
face $-1 $80 $81 $29 $-1 $82 reversed single #
loop $-1 $-1 $83 $38 #
plane-surface $-1 66.309851921542446 0 8.0734779838800073 0 0 1 1 0 0 forward_v I I I I #
face $-1 $84 $85 $30 $-1 $86 reversed single #
loop $-1 $-1 $87 $39 #
plane-surface $-1 -24.456299435670484 71.31079441637317 183.36433975340751 1 0 0 0 -0.6560590369687036 -0.75470957328743171 forward_v I I I I #
face $-1 $88 $89 $31 $-1 $90 forward single #
loop $-1 $91 $92 $40 #
cone-surface $-1 -17.958493655438275 42.368175029741458 11.281424379731673 0 -0.6560590369687036 -0.75470957328743171 1.5 0 0 1 I I 0 1 1.5 forward I I I I #
face $-1 $93 $94 $32 $-1 $95 forward single #
loop $-1 $96 $97 $41 #
cone-surface $-1 -8.2117849850899631 42.368175029741458 11.281424379731673 0 -0.6560590369687036 -0.75470957328743171 1.5 0 0 1 I I 0 1 1.5 forward I I I I #
face $-1 $98 $99 $33 $-1 $100 reversed single #
loop $-1 $-1 $101 $42 #
plane-surface $-1 -42.024151858671644 -48.735057871805125 9.6659852239468194 0 -0.77714596973225614 0.62932038083071107 1 0 0 forward_v I I I I #
face $-1 $102 $103 $34 $-1 $104 forward single #
loop $-1 $105 $106 $43 #
cone-surface $-1 -49.449886616288431 -42.632723944072929 10.998434558640257 0 0.77714596973225614 -0.62932038083071107 2 0 0 1 I I 0 1 2 forward I I I I #
face $-1 $107 $108 $35 $-1 $109 forward single #
loop $-1 $110 $111 $44 #
cone-surface $-1 -34.598417101054842 -42.632723944072929 10.998434558640257 0 0.77714596973225614 -0.62932038083071107 2 0 0 1 I I 0 1 2 forward I I I I #
face $-1 $112 $113 $27 $-1 $114 reversed single #
loop $-1 $-1 $115 $45 #
plane-surface $-1 0 0 -17.244449643942698 0 0 1 1 0 0 forward_v I I I I #
coedge $-1 $116 $117 $118 $119 forward $46 $-1 #
face $-1 $120 $121 $28 $-1 $122 reversed single #
loop $-1 $-1 $123 $48 #
plane-surface $-1 -59.350866293110819 0 12.658963813911353 -1 0 0 0 0 1 forward_v I I I I #
coedge $-1 $124 $125 $126 $127 forward $49 $-1 #
face $-1 $128 $129 $29 $-1 $130 forward single #
loop $-1 $-1 $131 $51 #
plane-surface $-1 59.350866293110826 0 12.658963813911353 1 0 0 0 0 -1 forward_v I I I I #
coedge $-1 $132 $133 $134 $135 reversed $52 $-1 #
face $-1 $136 $137 $30 $-1 $138 reversed single #
loop $-1 $-1 $139 $54 #
plane-surface $-1 -13.085139320264119 -24.826571589331564 72.770953508193372 0 0.6560590369687036 0.75470957328743171 1 0 0 forward_v I I I I #
coedge $-1 $140 $141 $142 $143 reversed $55 $-1 #
face $-1 $-1 $144 $31 $-1 $145 forward single #
loop $-1 $146 $147 $57 #
cone-surface $-1 -17.958493655438275 40.35209541796717 8.9621901374202615 0 -0.6560590369687036 -0.75470957328743171 0.75 0 0 1 I I -0.70710678118654757 0.70710678118654757 0.75 forward I I I I #
loop $-1 $-1 $148 $40 #
coedge $-1 $92 $92 $149 $150 reversed $58 $-1 #
face $-1 $-1 $151 $32 $-1 $152 forward single #
loop $-1 $153 $154 $60 #
cone-surface $-1 -8.2117849850899631 40.35209541796717 8.9621901374202615 0 -0.6560590369687036 -0.75470957328743171 0.75 0 0 1 I I -0.70710678118654757 0.70710678118654757 0.75 forward I I I I #
loop $-1 $-1 $155 $41 #
coedge $-1 $97 $97 $156 $157 reversed $61 $-1 #
face $-1 $158 $159 $33 $-1 $160 forward single #
loop $-1 $-1 $161 $63 #
plane-surface $-1 -24.697437424232458 -162.61622148966458 101.88513072389317 -1 0 0 0 -0.77714596973225614 0.62932038083071107 forward_v I I I I #
coedge $-1 $162 $163 $164 $165 reversed $64 $-1 #
face $-1 $-1 $166 $34 $-1 $167 forward single #
loop $-1 $168 $169 $66 #
cone-surface $-1 -49.449886616288431 -38.821703705832391 7.9123313025050344 0 0.77714596973225614 -0.62932038083071107 1 0 0 1 I I -0.70710678118654746 0.70710678118654746 1 forward I I I I #
loop $-1 $-1 $170 $43 #
coedge $-1 $106 $106 $171 $172 reversed $67 $-1 #
face $-1 $-1 $173 $35 $-1 $174 forward single #
loop $-1 $175 $176 $69 #
cone-surface $-1 -34.598417101054842 -38.821703705832391 7.9123313025050344 0 0.77714596973225614 -0.62932038083071107 1 0 0 1 I I -0.70710678118654746 0.70710678118654746 1 forward I I I I #
loop $-1 $-1 $177 $44 #
coedge $-1 $111 $111 $178 $179 reversed $70 $-1 #
face $-1 $180 $181 $27 $-1 $182 reversed single #
loop $-1 $-1 $183 $72 #
plane-surface $-1 0 -48.735057871805147 0 0 1 0 0 0 1 forward_v I I I I #
coedge $-1 $184 $185 $186 $187 forward $73 $-1 #
coedge $-1 $188 $75 $189 $190 forward $46 $-1 #
coedge $-1 $75 $188 $191 $192 forward $46 $-1 #
coedge $-1 $193 $194 $75 $119 reversed $195 $-1 #
edge $-1 $196 -48.735057871805147 $197 48.735057871805147 $118 $198 forward 7 unknown #
face $-1 $199 $200 $28 $-1 $201 reversed single #
loop $-1 $-1 $202 $76 #
plane-surface $-1 0 48.735057871805147 0 0 -1 0 0 0 -1 forward_v I I I I #
coedge $-1 $126 $203 $204 $205 reversed $77 $-1 #
coedge $-1 $206 $79 $207 $208 reversed $49 $-1 #
coedge $-1 $79 $206 $209 $210 reversed $49 $-1 #
coedge $-1 $211 $123 $79 $127 reversed $77 $-1 #
edge $-1 $212 -48.735057871805147 $213 48.735057871805147 $126 $214 forward 7 unknown #
face $-1 $215 $216 $29 $-1 $217 reversed single #
loop $-1 $-1 $218 $80 #
plane-surface $-1 0 0 17.244449643942698 0 0 1 1 0 0 forward_v I I I I #
coedge $-1 $219 $220 $221 $222 reversed $81 $-1 #
coedge $-1 $223 $83 $224 $225 reversed $52 $-1 #
coedge $-1 $83 $223 $226 $227 reversed $52 $-1 #
coedge $-1 $228 $229 $83 $135 forward $230 $-1 #
edge $-1 $231 -48.735057871805147 $232 48.735057871805147 $134 $233 forward 7 unknown #
face $-1 $234 $235 $30 $-1 $236 reversed single #
loop $-1 $-1 $237 $84 #
plane-surface $-1 -1.713979204857754 71.31079441637317 183.36433975340751 -1 0 0 0 0.6560590369687036 0.75470957328743171 forward_v I I I I #
coedge $-1 $238 $239 $240 $241 reversed $85 $-1 #
coedge $-1 $141 $87 $242 $243 reversed $55 $-1 #
coedge $-1 $87 $140 $238 $244 reversed $55 $-1 #
coedge $-1 $240 $245 $87 $143 forward $246 $-1 #
edge $-1 $247 -13.079660663618562 $248 -3.3939656475867395 $142 $249 forward 7 unknown #
loop $-1 $-1 $149 $88 #
plane-surface $-1 -13.085139320264119 -24.826571589331564 72.770953508193372 0 0.6560590369687036 0.75470957328743171 1 0 0 forward_v I I I I #
loop $-1 $-1 $250 $57 #
coedge $-1 $147 $147 $148 $251 reversed $89 $-1 #
coedge $-1 $148 $148 $147 $251 forward $91 $-1 #
coedge $-1 $149 $149 $92 $150 forward $144 $-1 #
edge $-1 $252 3.884649857898995e-015 $252 6.283185307179604 $149 $253 forward 7 unknown #
loop $-1 $-1 $156 $93 #
plane-surface $-1 -13.085139320264119 -24.826571589331564 72.770953508193372 0 0.6560590369687036 0.75470957328743171 1 0 0 forward_v I I I I #
loop $-1 $-1 $254 $60 #
coedge $-1 $154 $154 $155 $255 reversed $94 $-1 #
coedge $-1 $155 $155 $154 $255 forward $96 $-1 #
coedge $-1 $156 $156 $97 $157 forward $151 $-1 #
edge $-1 $256 3.884649857898995e-015 $256 6.283185307179604 $156 $257 forward 7 unknown #
face $-1 $258 $259 $33 $-1 $260 forward single #
loop $-1 $-1 $261 $98 #
plane-surface $-1 0 0 17.244449643942698 0 0 1 1 0 0 forward_v I I I I #
coedge $-1 $262 $263 $264 $265 reversed $99 $-1 #
coedge $-1 $266 $101 $267 $268 reversed $64 $-1 #
coedge $-1 $101 $266 $262 $269 forward $64 $-1 #
coedge $-1 $264 $270 $101 $165 forward $271 $-1 #
edge $-1 $272 -38.338790363774997 $273 -3.685361494896636 $164 $274 forward 7 unknown #
loop $-1 $-1 $171 $102 #
plane-surface $-1 -42.024151858671644 -48.735057871805125 9.6659852239468194 0 -0.77714596973225614 0.62932038083071107 1 0 0 forward_v I I I I #
loop $-1 $-1 $275 $66 #
coedge $-1 $169 $169 $170 $276 reversed $103 $-1 #
coedge $-1 $170 $170 $169 $276 forward $105 $-1 #
coedge $-1 $171 $171 $106 $172 forward $166 $-1 #
edge $-1 $277 1.9505741675554339e-016 $277 6.2831853071796004 $171 $278 forward 7 unknown #
loop $-1 $-1 $178 $107 #
plane-surface $-1 -42.024151858671644 -48.735057871805125 9.6659852239468194 0 -0.77714596973225614 0.62932038083071107 1 0 0 forward_v I I I I #
loop $-1 $-1 $279 $69 #
coedge $-1 $176 $176 $177 $280 reversed $108 $-1 #
coedge $-1 $177 $177 $176 $280 forward $110 $-1 #
coedge $-1 $178 $178 $111 $179 forward $173 $-1 #
edge $-1 $281 1.9505741675554339e-016 $281 6.2831853071796004 $178 $282 forward 7 unknown #
face $-1 $283 $284 $27 $-1 $285 reversed single #
loop $-1 $-1 $286 $112 #
plane-surface $-1 -73.268837549974052 0 0 1 0 0 0 0 -1 forward_v I I I I #
coedge $-1 $287 $191 $288 $289 forward $113 $-1 #
coedge $-1 $290 $115 $287 $291 forward $73 $-1 #
coedge $-1 $115 $290 $292 $293 forward $73 $-1 #
coedge $-1 $194 $193 $115 $187 reversed $195 $-1 #
edge $-1 $294 -48.735057871805147 $295 48.735057871805147 $186 $296 forward 7 unknown #
coedge $-1 $117 $116 $297 $298 forward $46 $-1 #
coedge $-1 $299 $300 $116 $190 reversed $284 $-1 #
edge $-1 $197 -73.268837549974052 $301 73.268837549974052 $189 $302 forward 7 unknown #
coedge $-1 $183 $303 $117 $192 reversed $113 $-1 #
edge $-1 $304 -73.268837549974052 $196 73.268837549974052 $191 $305 forward 7 unknown #
coedge $-1 $186 $118 $303 $306 forward $195 $-1 #
coedge $-1 $118 $186 $299 $307 reversed $195 $-1 #
loop $-1 $-1 $193 $283 #
vertex $-1 $119 $308 #
vertex $-1 $119 $309 #
straight-curve $-1 73.268837549974052 0 17.244449643942698 0 1 0 I I #
face $-1 $310 $311 $28 $-1 $312 forward single #
loop $-1 $-1 $313 $120 #
plane-surface $-1 -73.268837549974052 0 0 1 0 0 0 0 -1 forward_v I I I I #
coedge $-1 $209 $314 $211 $315 forward $121 $-1 #
coedge $-1 $123 $211 $316 $317 reversed $77 $-1 #
coedge $-1 $318 $207 $123 $205 forward $319 $-1 #
edge $-1 $213 1.743996076924331 $320 10.914967736987021 $204 $321 forward 7 unknown #
coedge $-1 $125 $124 $313 $322 reversed $49 $-1 #
coedge $-1 $204 $323 $124 $208 forward $319 $-1 #
edge $-1 $324 -40.113911589202836 $213 -26.195940332339603 $207 $325 forward 7 unknown #
coedge $-1 $326 $202 $125 $210 forward $121 $-1 #
edge $-1 $212 26.195940332339603 $327 40.113911589202836 $209 $328 forward 7 unknown #
coedge $-1 $203 $126 $202 $315 reversed $77 $-1 #
vertex $-1 $210 $329 #
vertex $-1 $208 $330 #
straight-curve $-1 -59.350866293110819 0 8.0734779838800073 0 -1 0 I I #
face $-1 $331 $332 $29 $-1 $333 reversed single #
loop $-1 $-1 $334 $128 #
plane-surface $-1 0 -48.735057871805147 0 0 1 0 0 0 1 forward_v I I I I #
coedge $-1 $335 $336 $220 $337 forward $129 $-1 #
coedge $-1 $338 $131 $223 $339 reversed $81 $-1 #
coedge $-1 $131 $338 $218 $337 reversed $81 $-1 #
coedge $-1 $340 $226 $131 $222 forward $332 $-1 #
edge $-1 $341 1.743996076924331 $342 10.914967736987021 $221 $343 forward 7 unknown #
coedge $-1 $133 $132 $219 $339 forward $52 $-1 #
coedge $-1 $344 $334 $132 $225 forward $216 $-1 #
edge $-1 $345 26.195940332339603 $231 40.113911589202843 $224 $346 forward 7 unknown #
coedge $-1 $221 $347 $133 $227 forward $332 $-1 #
edge $-1 $232 -40.113911589202843 $341 -26.195940332339603 $226 $348 forward 7 unknown #
coedge $-1 $349 $134 $347 $350 reversed $230 $-1 #
coedge $-1 $134 $349 $344 $351 forward $230 $-1 #
loop $-1 $-1 $134 $331 #
vertex $-1 $225 $352 #
vertex $-1 $135 $353 #
straight-curve $-1 73.268837549974052 0 8.0734779838800073 0 1 0 I I #
face $-1 $-1 $246 $30 $-1 $354 forward single #
loop $-1 $-1 $355 $136 #
plane-surface $-1 0 48.735057871805147 0 0 -1 0 0 0 -1 forward_v I I I I #
coedge $-1 $356 $357 $358 $359 reversed $137 $-1 #
coedge $-1 $360 $139 $141 $244 forward $85 $-1 #
coedge $-1 $139 $360 $356 $361 forward $85 $-1 #
coedge $-1 $358 $142 $139 $241 forward $246 $-1 #
edge $-1 $248 -17.913729775538425 $362 4.8285904552743055 $240 $363 forward 7 unknown #
coedge $-1 $364 $365 $140 $243 forward $235 $-1 #
edge $-1 $366 -82.857366636491435 $247 -74.437720232761052 $242 $367 forward 7 unknown #
edge $-1 $248 84.636443879820376 $366 97.470115743610307 $141 $368 forward 7 unknown #
coedge $-1 $142 $358 $364 $369 forward $246 $-1 #
loop $-1 $-1 $358 $234 #
vertex $-1 $243 $370 #
vertex $-1 $143 $371 #
straight-curve $-1 -24.456299435670484 35.655397208186585 17.244449643942701 0 -1 0 I I #
coedge $-1 $250 $250 $-1 $372 reversed $146 $-1 #
edge $-1 $373 0 $373 6.2831853071796004 $147 $374 forward 7 unknown #
vertex $-1 $150 $375 #
ellipse-curve $-1 -17.958493655438275 43.892210363789225 13.034626442077519 0 0.6560590369687036 0.75470957328743171 1.5 0 0 1 I I #
coedge $-1 $254 $254 $-1 $376 reversed $153 $-1 #
edge $-1 $377 0 $377 6.2831853071796004 $154 $378 forward 7 unknown #
vertex $-1 $157 $379 #
ellipse-curve $-1 -8.2117849850899631 43.892210363789225 13.034626442077519 0 0.6560590369687036 0.75470957328743171 1.5 0 0 1 I I #
face $-1 $-1 $271 $33 $-1 $380 reversed single #
loop $-1 $-1 $267 $158 #
plane-surface $-1 -59.350866293110819 0 12.658963813911353 -1 0 0 0 0 1 forward_v I I I I #
coedge $-1 $381 $382 $263 $383 forward $159 $-1 #
coedge $-1 $263 $161 $163 $269 reversed $99 $-1 #
coedge $-1 $161 $262 $261 $383 reversed $99 $-1 #
coedge $-1 $384 $164 $161 $265 forward $271 $-1 #
edge $-1 $273 -41.276580137999794 $385 -33.698115718003891 $264 $386 forward 7 unknown #
coedge $-1 $163 $162 $381 $387 reversed $64 $-1 #
coedge $-1 $388 $389 $162 $268 forward $259 $-1 #
edge $-1 $390 6.7463117308164389 $272 16.497973214188544 $267 $391 forward 7 unknown #
edge $-1 $392 -9.7516614833720681 $273 3.4122099130144743e-014 $262 $393 forward 7 unknown #
coedge $-1 $164 $384 $388 $394 forward $271 $-1 #
loop $-1 $-1 $264 $258 #
vertex $-1 $268 $395 #
vertex $-1 $165 $396 #
straight-curve $-1 -21.012075929335822 -48.735057871805147 9.6659852239467945 1 0 0 I I #
coedge $-1 $275 $275 $-1 $397 reversed $168 $-1 #
edge $-1 $398 0 $398 6.2831853071796004 $169 $399 forward 7 unknown #
vertex $-1 $172 $400 #
ellipse-curve $-1 -49.449886616288431 -45.666598212581185 13.455217433944751 0 -0.77714596973225614 0.62932038083071107 2 0 0 1 I I #
coedge $-1 $279 $279 $-1 $401 reversed $175 $-1 #
edge $-1 $402 0 $402 6.2831853071796004 $176 $403 forward 7 unknown #
vertex $-1 $179 $404 #
ellipse-curve $-1 -34.598417101054842 -45.666598212581185 13.455217433944751 0 -0.77714596973225614 0.62932038083071107 2 0 0 1 I I #
face $-1 $-1 $195 $27 $-1 $405 reversed single #
loop $-1 $-1 $299 $180 #
plane-surface $-1 0 48.735057871805147 0 0 -1 0 0 0 -1 forward_v I I I I #
coedge $-1 $406 $297 $300 $407 forward $181 $-1 #
coedge $-1 $303 $183 $184 $291 reversed $113 $-1 #
coedge $-1 $297 $406 $183 $289 reversed $181 $-1 #
edge $-1 $304 -17.244449643942698 $408 17.244449643942698 $288 $409 forward 7 unknown #
coedge $-1 $185 $184 $406 $410 forward $73 $-1 #
edge $-1 $295 -73.268837549974052 $408 73.268837549974052 $287 $411 forward 7 unknown #
coedge $-1 $300 $299 $185 $293 reversed $284 $-1 #
edge $-1 $412 -73.268837549974052 $294 73.268837549974052 $292 $413 forward 7 unknown #
vertex $-1 $187 $414 #
vertex $-1 $306 $415 #
straight-curve $-1 73.268837549974052 0 -17.244449643942698 0 -1 0 I I #
coedge $-1 $286 $288 $188 $298 reversed $181 $-1 #
edge $-1 $301 -48.735057871805147 $304 48.735057871805147 $297 $416 forward 7 unknown #
coedge $-1 $292 $189 $194 $307 forward $284 $-1 #
coedge $-1 $189 $292 $286 $407 reversed $284 $-1 #
vertex $-1 $190 $417 #
straight-curve $-1 0 48.735057871805147 17.244449643942698 -1 0 0 I I #
coedge $-1 $191 $287 $193 $306 reversed $113 $-1 #
vertex $-1 $298 $418 #
straight-curve $-1 0 -48.735057871805147 17.244449643942698 1 0 0 I I #
edge $-1 $196 -17.244449643942698 $295 17.244449643942698 $193 $419 forward 7 unknown #
edge $-1 $197 -17.244449643942698 $294 17.244449643942698 $194 $420 forward 7 unknown #
point $-1 73.268837549974052 -48.735057871805147 17.244449643942698 #
point $-1 73.268837549974052 48.735057871805147 17.244449643942698 #
face $-1 $-1 $319 $28 $-1 $421 reversed single #
loop $-1 $-1 $316 $199 #
plane-surface $-1 0 0 17.244449643942698 0 0 1 1 0 0 forward_v I I I I #
coedge $-1 $422 $423 $206 $322 forward $200 $-1 #
coedge $-1 $202 $326 $424 $425 reversed $121 $-1 #
edge $-1 $426 -10.914967736987021 $212 -1.743996076924331 $202 $427 forward 7 unknown #
coedge $-1 $424 $428 $203 $317 forward $311 $-1 #
edge $-1 $320 -48.735057871805147 $426 48.735057871805147 $316 $429 forward 7 unknown #
coedge $-1 $323 $204 $428 $430 reversed $319 $-1 #
loop $-1 $-1 $204 $310 #
vertex $-1 $205 $431 #
straight-curve $-1 -59.350866293110819 -48.735057871805147 6.3294819069556763 0 0 1 I I #
edge $-1 $327 -48.735057871805147 $324 48.735057871805147 $313 $432 forward 7 unknown #
coedge $-1 $207 $318 $422 $433 forward $319 $-1 #
vertex $-1 $322 $434 #
straight-curve $-1 -33.154925960771216 -48.735057871805147 8.0734779838800073 1 0 0 I I #
coedge $-1 $314 $209 $423 $435 reversed $121 $-1 #
vertex $-1 $322 $436 #
straight-curve $-1 -33.154925960771216 48.735057871805147 8.0734779838800073 -1 0 0 I I #
point $-1 -59.350866293110819 48.735057871805147 8.0734779838800073 #
point $-1 -59.350866293110819 -48.735057871805147 8.0734779838800073 #
face $-1 $-1 $230 $29 $-1 $437 reversed single #
loop $-1 $-1 $221 $215 #
plane-surface $-1 0 48.735057871805147 0 0 -1 0 0 0 -1 forward_v I I I I #
coedge $-1 $224 $438 $338 $439 forward $216 $-1 #
coedge $-1 $440 $218 $438 $441 forward $129 $-1 #
coedge $-1 $218 $440 $340 $442 forward $129 $-1 #
edge $-1 $342 -48.735057871805147 $443 48.735057871805147 $218 $444 forward 7 unknown #
coedge $-1 $220 $219 $334 $439 reversed $81 $-1 #
edge $-1 $345 -48.735057871805147 $341 48.735057871805147 $219 $445 forward 7 unknown #
coedge $-1 $347 $221 $336 $442 reversed $332 $-1 #
vertex $-1 $227 $446 #
vertex $-1 $222 $447 #
straight-curve $-1 59.350866293110826 48.735057871805147 6.3294819069556763 0 0 1 I I #
coedge $-1 $438 $224 $229 $351 reversed $216 $-1 #
vertex $-1 $225 $448 #
straight-curve $-1 33.154925960771223 -48.735057871805147 8.0734779838800073 1 0 0 I I #
coedge $-1 $226 $340 $228 $350 forward $332 $-1 #
straight-curve $-1 33.154925960771223 48.735057871805147 8.0734779838800073 -1 0 0 I I #
coedge $-1 $229 $228 $440 $449 reversed $230 $-1 #
edge $-1 $450 -17.244449643942698 $232 -8.0734779838800073 $228 $451 forward 7 unknown #
edge $-1 $452 -17.244449643942698 $231 -8.0734779838800073 $229 $453 forward 7 unknown #
point $-1 73.268837549974066 -48.735057871805147 8.0734779838800073 #
point $-1 73.268837549974066 48.735057871805147 8.0734779838800073 #
plane-surface $-1 0 0 17.244449643942698 0 0 1 1 0 0 forward_v I I I I #
coedge $-1 $365 $364 $357 $454 forward $235 $-1 #
coedge $-1 $357 $237 $239 $361 reversed $137 $-1 #
coedge $-1 $237 $356 $355 $454 reversed $137 $-1 #
coedge $-1 $245 $240 $237 $359 forward $246 $-1 #
edge $-1 $362 3.3939656475867395 $455 13.079660663618562 $358 $456 forward 7 unknown #
coedge $-1 $239 $238 $365 $457 reversed $85 $-1 #
edge $-1 $458 -97.470115743610307 $362 -84.636443879820376 $356 $459 forward 7 unknown #
vertex $-1 $241 $460 #
straight-curve $-1 -6.5425696601320595 39.049362855773317 17.244449643942701 1 0 0 I I #
coedge $-1 $355 $242 $245 $369 reversed $235 $-1 #
coedge $-1 $242 $355 $360 $457 forward $235 $-1 #
vertex $-1 $243 $461 #
straight-curve $-1 -24.456299435670484 48.735057871805147 91.682169876703753 0 0 1 I I #
straight-curve $-1 -24.456299435670484 -24.826571589331564 72.770953508193372 0 0.75470957328743171 -0.6560590369687036 I I #
edge $-1 $455 1.713979204857754 $247 24.456299435670484 $364 $462 forward 7 unknown #
point $-1 -24.456299435670484 48.735057871805147 17.244449643942698 #
point $-1 -24.456299435670484 39.049362855773325 17.244449643942694 #
edge $-1 $463 1 $463 0 $250 $-1 forward 7 unknown #
vertex $-1 $251 $464 #
ellipse-curve $-1 -17.958493655438275 40.844139695693698 9.5282223173858345 0 0.6560590369687036 0.75470957328743171 1.5 0 0 1 I I #
point $-1 -16.458493655438275 43.892210363789225 13.03462644207751 #
edge $-1 $465 1 $465 0 $254 $-1 forward 7 unknown #
vertex $-1 $255 $466 #
ellipse-curve $-1 -8.2117849850899631 40.844139695693698 9.5282223173858345 0 0.6560590369687036 0.75470957328743171 1.5 0 0 1 I I #
point $-1 -6.7117849850899631 43.892210363789225 13.03462644207751 #
plane-surface $-1 0 -48.735057871805147 0 0 1 0 0 0 1 forward_v I I I I #
coedge $-1 $467 $261 $266 $387 forward $159 $-1 #
coedge $-1 $261 $467 $384 $468 forward $159 $-1 #
edge $-1 $385 32.573052873027144 $392 38.709972191475053 $261 $469 forward 7 unknown #
coedge $-1 $270 $264 $382 $468 reversed $271 $-1 #
vertex $-1 $265 $470 #
straight-curve $-1 -24.697437424232458 -48.735057871805147 50.942565361946585 0 0 1 I I #
edge $-1 $392 3.685361494896636 $390 38.338790363775004 $381 $471 forward 7 unknown #
coedge $-1 $389 $267 $270 $394 reversed $259 $-1 #
coedge $-1 $267 $388 $467 $472 reversed $259 $-1 #
vertex $-1 $472 $473 #
straight-curve $-1 -59.350866293110819 -38.352547085717141 22.487318616104133 0 -0.62932038083071107 -0.77714596973225614 I I #
vertex $-1 $387 $474 #
straight-curve $-1 -24.697437424232458 -48.735057871805125 9.6659852239468194 0 -0.62932038083071107 -0.77714596973225614 I I #
edge $-1 $475 -10.914967736987021 $272 -3.3365033169911165 $270 $476 forward 7 unknown #
point $-1 -59.350866293110819 -48.735057871805147 9.6659852239467927 #
point $-1 -24.697437424232458 -48.735057871805147 9.6659852239467927 #
edge $-1 $477 1 $477 0 $275 $-1 forward 7 unknown #
vertex $-1 $276 $478 #
ellipse-curve $-1 -49.449886616288431 -39.598849675564644 8.5416516833357452 0 -0.77714596973225614 0.62932038083071107 2 0 0 1 I I #
point $-1 -47.449886616288431 -45.666598212581206 13.455217433944769 #
edge $-1 $479 1 $479 0 $279 $-1 forward 7 unknown #
vertex $-1 $280 $480 #
ellipse-curve $-1 -34.598417101054842 -39.598849675564644 8.5416516833357452 0 -0.77714596973225614 0.62932038083071107 2 0 0 1 I I #
point $-1 -32.598417101054842 -45.666598212581206 13.455217433944769 #
plane-surface $-1 73.268837549974052 0 0 -1 0 0 0 0 1 forward_v I I I I #
coedge $-1 $288 $286 $290 $410 reversed $181 $-1 #
edge $-1 $301 -17.244449643942698 $412 17.244449643942698 $300 $481 forward 7 unknown #
vertex $-1 $410 $482 #
straight-curve $-1 -73.268837549974052 -48.735057871805147 0 0 0 -1 I I #
edge $-1 $408 -48.735057871805147 $412 48.735057871805147 $406 $483 forward 7 unknown #
straight-curve $-1 0 -48.735057871805147 -17.244449643942698 -1 0 0 I I #
vertex $-1 $293 $484 #
straight-curve $-1 0 48.735057871805147 -17.244449643942698 1 0 0 I I #
point $-1 73.268837549974052 48.735057871805147 -17.244449643942698 #
point $-1 73.268837549974052 -48.735057871805147 -17.244449643942698 #
straight-curve $-1 -73.268837549974052 0 17.244449643942698 0 -1 0 I I #
point $-1 -73.268837549974052 48.735057871805147 17.244449643942698 #
point $-1 -73.268837549974052 -48.735057871805147 17.244449643942698 #
straight-curve $-1 73.268837549974052 -48.735057871805147 0 0 0 -1 I I #
straight-curve $-1 73.268837549974052 48.735057871805147 0 0 0 -1 I I #
plane-surface $-1 0 -48.735057871805147 0 0 1 0 0 0 1 forward_v I I I I #
coedge $-1 $485 $313 $323 $433 reversed $200 $-1 #
coedge $-1 $313 $485 $326 $435 forward $200 $-1 #
coedge $-1 $486 $316 $314 $425 forward $311 $-1 #
edge $-1 $426 59.350866293110819 $487 73.268837549974052 $314 $488 forward 7 unknown #
vertex $-1 $425 $489 #
straight-curve $-1 -59.350866293110819 48.735057871805147 6.3294819069556763 0 0 -1 I I #
coedge $-1 $316 $486 $318 $430 forward $311 $-1 #
straight-curve $-1 -59.350866293110819 0 17.244449643942698 0 1 0 I I #
edge $-1 $490 -73.268837549974052 $320 -59.350866293110819 $318 $491 forward 7 unknown #
point $-1 -59.350866293110819 -48.735057871805147 17.244449643942698 #
straight-curve $-1 -73.268837549974052 0 8.0734779838800073 0 -1 0 I I #
edge $-1 $490 -17.244449643942698 $324 -8.0734779838800073 $422 $492 forward 7 unknown #
point $-1 -73.268837549974052 -48.735057871805147 8.0734779838800073 #
edge $-1 $487 -17.244449643942698 $327 -8.0734779838800073 $326 $493 forward 7 unknown #
point $-1 -73.268837549974052 48.735057871805147 8.0734779838800073 #
plane-surface $-1 73.268837549974052 0 0 -1 0 0 0 0 1 forward_v I I I I #
coedge $-1 $334 $344 $335 $441 reversed $216 $-1 #
edge $-1 $443 -10.914967736987021 $345 -1.743996076924331 $334 $494 forward 7 unknown #
coedge $-1 $336 $335 $349 $449 forward $129 $-1 #
edge $-1 $443 59.350866293110826 $452 73.268837549974052 $438 $495 forward 7 unknown #
edge $-1 $450 -73.268837549974052 $342 -59.350866293110826 $340 $496 forward 7 unknown #
vertex $-1 $441 $497 #
straight-curve $-1 59.350866293110826 0 17.244449643942698 0 -1 0 I I #
straight-curve $-1 59.350866293110826 0 8.0734779838800073 0 1 0 I I #
point $-1 59.350866293110826 48.735057871805147 8.0734779838800073 #
point $-1 59.350866293110826 48.735057871805147 17.244449643942698 #
point $-1 59.350866293110826 -48.735057871805147 8.0734779838800073 #
edge $-1 $452 -48.735057871805147 $450 48.735057871805147 $349 $498 forward 7 unknown #
vertex $-1 $449 $499 #
straight-curve $-1 73.268837549974052 48.735057871805147 0 0 0 -1 I I #
vertex $-1 $449 $500 #
straight-curve $-1 73.268837549974052 -48.735057871805147 0 0 0 -1 I I #
edge $-1 $455 74.437720232761052 $458 82.857366636491435 $355 $501 forward 7 unknown #
vertex $-1 $369 $502 #
straight-curve $-1 -1.713979204857754 35.655397208186585 17.244449643942701 0 1 0 I I #
edge $-1 $458 -4.8285904552743055 $366 17.913729775538425 $365 $503 forward 7 unknown #
vertex $-1 $457 $504 #
straight-curve $-1 -1.713979204857754 -24.826571589331564 72.770953508193372 0 -0.75470957328743171 0.6560590369687036 I I #
point $-1 -1.713979204857754 39.049362855773325 17.244449643942694 #
point $-1 -24.456299435670484 48.735057871805139 8.8248032402123258 #
straight-curve $-1 0 48.735057871805147 17.244449643942698 -1 0 0 I I #
vertex $-1 $372 $505 #
point $-1 -16.458493655438275 40.844139695693698 9.5282223173858345 #
vertex $-1 $376 $506 #
point $-1 -6.7117849850899631 40.844139695693698 9.5282223173858345 #
coedge $-1 $382 $381 $389 $472 forward $159 $-1 #
edge $-1 $475 -59.350866293110819 $385 -24.697437424232458 $384 $507 forward 7 unknown #
straight-curve $-1 -24.697437424232458 -81.308110744832291 17.244449643942701 0 1 0 I I #
point $-1 -24.697437424232458 -48.735057871805147 17.244449643942698 #
straight-curve $-1 -21.012075929335822 -42.598138553357231 17.244449643942698 -1 0 0 I I #
edge $-1 $390 42.598138553357238 $475 48.735057871805147 $467 $508 forward 7 unknown #
point $-1 -59.350866293110826 -42.598138553357238 17.244449643942698 #
point $-1 -24.697437424232458 -42.598138553357238 17.244449643942698 #
vertex $-1 $468 $509 #
straight-curve $-1 -59.350866293110819 -48.735057871805147 6.3294819069556763 0 0 -1 I I #
vertex $-1 $397 $510 #
point $-1 -47.449886616288431 -39.598849675564644 8.5416516833357452 #
vertex $-1 $401 $511 #
point $-1 -32.598417101054842 -39.598849675564644 8.5416516833357452 #
straight-curve $-1 -73.268837549974052 48.735057871805147 0 0 0 -1 I I #
point $-1 -73.268837549974052 -48.735057871805147 -17.244449643942698 #
straight-curve $-1 -73.268837549974052 0 -17.244449643942698 0 1 0 I I #
point $-1 -73.268837549974052 48.735057871805147 -17.244449643942698 #
coedge $-1 $423 $422 $486 $512 reversed $200 $-1 #
coedge $-1 $428 $424 $485 $512 forward $311 $-1 #
vertex $-1 $425 $513 #
straight-curve $-1 0 48.735057871805147 17.244449643942698 -1 0 0 I I #
point $-1 -59.350866293110819 48.735057871805147 17.244449643942698 #
vertex $-1 $512 $514 #
straight-curve $-1 0 -48.735057871805147 17.244449643942698 1 0 0 I I #
straight-curve $-1 -73.268837549974052 -48.735057871805147 0 0 0 -1 I I #
straight-curve $-1 -73.268837549974052 48.735057871805147 0 0 0 -1 I I #
straight-curve $-1 59.350866293110826 -48.735057871805147 6.3294819069556763 0 0 -1 I I #
straight-curve $-1 0 -48.735057871805147 17.244449643942698 1 0 0 I I #
straight-curve $-1 0 48.735057871805147 17.244449643942698 -1 0 0 I I #
point $-1 59.350866293110826 -48.735057871805147 17.244449643942698 #
straight-curve $-1 73.268837549974052 0 17.244449643942698 0 1 0 I I #
point $-1 73.268837549974052 48.735057871805147 17.244449643942698 #
point $-1 73.268837549974052 -48.735057871805147 17.244449643942698 #
straight-curve $-1 -1.713979204857754 48.735057871805147 91.682169876703753 0 0 -1 I I #
point $-1 -1.713979204857754 48.735057871805147 17.244449643942698 #
straight-curve $-1 -6.5425696601320595 48.735057871805154 8.8248032402123187 -1 0 0 I I #
point $-1 -1.713979204857754 48.735057871805139 8.8248032402123258 #
point $-1 -17.958493655438275 39.860051140240643 8.3961579574546885 #
point $-1 -8.2117849850899631 39.860051140240643 8.3961579574546885 #
straight-curve $-1 0 -48.735057871805147 17.244449643942698 1 0 0 I I #
straight-curve $-1 -59.350866293110819 0 17.244449643942698 0 -1 0 I I #
point $-1 -59.350866293110819 -48.735057871805147 17.244449643942698 #
point $-1 -49.449886616288431 -38.044557736100138 7.2830109216743235 #
point $-1 -34.598417101054842 -38.044557736100138 7.2830109216743235 #
edge $-1 $487 -48.735057871805147 $490 48.735057871805147 $485 $515 forward 7 unknown #
point $-1 -73.268837549974052 48.735057871805147 17.244449643942698 #
point $-1 -73.268837549974052 -48.735057871805147 17.244449643942698 #
straight-curve $-1 -73.268837549974052 0 17.244449643942698 0 -1 0 I I #
End-of-ACIS-data 