500 0 13 0           
7 Unknown 11 ACIS 5.0 NT 24 Thu Mar 25 19:07:50 1999 
-1 9.9999999999999995e-007 1e-010 
body $-1 $13 $-1 $14 #
body $-1 $15 $-1 $16 #
body $-1 $17 $-1 $18 #
body $-1 $19 $-1 $20 #
body $-1 $21 $-1 $22 #
body $-1 $23 $-1 $24 #
body $-1 $25 $-1 $26 #
body $-1 $27 $-1 $28 #
body $-1 $29 $-1 $30 #
body $-1 $31 $-1 $32 #
body $-1 $33 $-1 $34 #
body $-1 $35 $-1 $36 #
body $-1 $37 $-1 $38 #
lump $-1 $-1 $39 $0 #
transform $-1 1 0 0 0 1 0 0 0 1 42.860194708090454 24.005345357868844 11.181786132302383 1 rotate no_reflect no_shear #
lump $-1 $-1 $40 $1 #
transform $-1 1 0 0 0 1 0 0 0 1 42.860194708090454 24.005345357868844 11.181786132302383 1 rotate no_reflect no_shear #
lump $-1 $-1 $41 $2 #
transform $-1 1 0 0 0 1 0 0 0 1 42.860194708090454 24.005345357868844 11.181786132302383 1 rotate no_reflect no_shear #
lump $-1 $-1 $42 $3 #
transform $-1 1 0 0 0 1 0 0 0 1 42.860194708090454 24.005345357868844 11.181786132302383 1 rotate no_reflect no_shear #
lump $-1 $-1 $43 $4 #
transform $-1 1 0 0 0 1 0 0 0 1 42.860194708090454 24.005345357868844 11.181786132302383 1 rotate no_reflect no_shear #
lump $-1 $-1 $44 $5 #
transform $-1 1 0 0 0 1 0 0 0 1 42.860194708090454 24.005345357868844 11.181786132302383 1 rotate no_reflect no_shear #
lump $-1 $-1 $45 $6 #
transform $-1 1 0 0 0 1 0 0 0 1 42.860194708090454 24.005345357868844 11.181786132302383 1 rotate no_reflect no_shear #
lump $-1 $-1 $46 $7 #
transform $-1 1 0 0 0 1 0 0 0 1 42.860194708090454 24.005345357868844 11.181786132302383 1 rotate no_reflect no_shear #
lump $-1 $-1 $47 $8 #
transform $-1 1 0 0 0 1 0 0 0 1 42.860194708090454 24.005345357868844 11.181786132302383 1 rotate no_reflect no_shear #
lump $-1 $-1 $48 $9 #
transform $-1 1 0 0 0 1 0 0 0 1 42.860194708090454 24.005345357868844 11.181786132302383 1 rotate no_reflect no_shear #
lump $-1 $-1 $49 $10 #
transform $-1 1 0 0 0 1 0 0 0 1 42.860194708090454 24.005345357868844 11.181786132302383 1 rotate no_reflect no_shear #
lump $-1 $-1 $50 $11 #
transform $-1 1 0 0 0 1 0 0 0 1 42.860194708090454 24.005345357868844 11.181786132302383 1 rotate no_reflect no_shear #
lump $-1 $-1 $51 $12 #
transform $-1 1 0 0 0 1 0 0 0 1 42.860194708090454 24.005345357868844 11.181786132302383 1 rotate no_reflect no_shear #
shell $-1 $-1 $-1 $52 $-1 $13 #
shell $-1 $-1 $-1 $53 $-1 $15 #
shell $-1 $-1 $-1 $54 $-1 $17 #
shell $-1 $-1 $-1 $55 $-1 $19 #
shell $-1 $-1 $-1 $56 $-1 $21 #
shell $-1 $-1 $-1 $57 $-1 $23 #
shell $-1 $-1 $-1 $58 $-1 $25 #
shell $-1 $-1 $-1 $59 $-1 $27 #
shell $-1 $-1 $-1 $60 $-1 $29 #
shell $-1 $-1 $-1 $61 $-1 $31 #
shell $-1 $-1 $-1 $62 $-1 $33 #
shell $-1 $-1 $-1 $63 $-1 $35 #
shell $-1 $-1 $-1 $64 $-1 $37 #
face $-1 $65 $66 $39 $-1 $67 forward single #
face $-1 $68 $69 $40 $-1 $70 reversed single #
face $-1 $71 $72 $41 $-1 $73 forward single #
face $-1 $74 $75 $42 $-1 $76 forward single #
face $-1 $77 $78 $43 $-1 $79 forward single #
face $-1 $80 $81 $44 $-1 $82 reversed single #
face $-1 $83 $84 $45 $-1 $85 forward single #
face $-1 $86 $87 $46 $-1 $88 forward single #
face $-1 $89 $90 $47 $-1 $91 forward single #
face $-1 $92 $93 $48 $-1 $94 reversed single #
face $-1 $95 $96 $49 $-1 $97 forward single #
face $-1 $98 $99 $50 $-1 $100 forward single #
face $-1 $101 $102 $51 $-1 $103 forward single #
face $-1 $104 $105 $39 $-1 $106 reversed single #
loop $-1 $-1 $107 $52 #
plane-surface $-1 0 0 11.181786132302383 0 0 1 1 0 0 forward_v I I I I #
face $-1 $108 $109 $40 $-1 $110 reversed single #
loop $-1 $-1 $111 $53 #
plane-surface $-1 28.543463639621685 -73.172541475487861 76.927111394061129 -1 0 0 0 -0.57357644374324357 0.81915203911291934 forward_v I I I I #
face $-1 $112 $113 $41 $-1 $114 forward single #
loop $-1 $115 $116 $54 #
cone-surface $-1 17.05896675137943 -20.438879457931666 8.4132727877558473 0 0.57357644374324357 -0.81915203911291934 1 0 0 1 I I 0 1 1 forward I I I I #
face $-1 $117 $118 $42 $-1 $119 forward single #
loop $-1 $120 $121 $55 #
cone-surface $-1 21.365653084470274 -20.438879457931666 8.4132727877558473 0 0.57357644374324357 -0.81915203911291934 1 0 0 1 I I 0 1 1 forward I I I I #
face $-1 $122 $123 $43 $-1 $124 forward single #
loop $-1 $125 $126 $56 #
cone-surface $-1 25.672339417561126 -20.438879457931666 8.4132727877558473 0 0.57357644374324357 -0.81915203911291934 1 0 0 1 I I 0 1 1 forward I I I I #
face $-1 $127 $128 $44 $-1 $129 reversed single #
loop $-1 $-1 $130 $57 #
plane-surface $-1 -22.343624988071245 72.75472774517597 91.689929037878088 -1 0 0 0 0.85716730853699208 0.51503806187062418 forward_v I I I I #
face $-1 $131 $132 $45 $-1 $133 forward single #
loop $-1 $134 $135 $58 #
cone-surface $-1 -38.75688076408661 21.393998535086396 8.0810273244802353 0 -0.85716730853699208 -0.51503806187062418 1 0 0 1 I I 0 1 1 forward I I I I #
face $-1 $136 $137 $46 $-1 $138 forward single #
loop $-1 $139 $140 $59 #
cone-surface $-1 -32.601909848080851 21.393998535086396 8.0810273244802353 0 -0.85716730853699208 -0.51503806187062418 1 0 0 1 I I 0 1 1 forward I I I I #
face $-1 $141 $142 $47 $-1 $143 forward single #
loop $-1 $144 $145 $60 #
cone-surface $-1 -26.446938932075085 21.393998535086396 8.0810273244802353 0 -0.85716730853699208 -0.51503806187062418 1 0 0 1 I I 0 1 1 forward I I I I #
face $-1 $146 $147 $48 $-1 $148 reversed single #
loop $-1 $-1 $149 $61 #
plane-surface $-1 20.516569720019223 72.75472774517597 91.689929037878088 -1 0 0 0 0.85716730853699208 0.51503806187062418 forward_v I I I I #
face $-1 $150 $151 $49 $-1 $152 forward single #
loop $-1 $153 $154 $62 #
cone-surface $-1 4.1033139440038511 21.393998535086396 8.0810273244802353 0 -0.85716730853699208 -0.51503806187062418 1 0 0 1 I I 0 1 1 forward I I I I #
face $-1 $155 $156 $50 $-1 $157 forward single #
loop $-1 $158 $159 $63 #
cone-surface $-1 10.258284860009617 21.393998535086396 8.0810273244802353 0 -0.85716730853699208 -0.51503806187062418 1 0 0 1 I I 0 1 1 forward I I I I #
face $-1 $160 $161 $51 $-1 $162 forward single #
loop $-1 $163 $164 $64 #
cone-surface $-1 16.413255776015376 21.393998535086396 8.0810273244802353 0 -0.85716730853699208 -0.51503806187062418 1 0 0 1 I I 0 1 1 forward I I I I #
face $-1 $165 $166 $39 $-1 $167 reversed single #
loop $-1 $-1 $168 $65 #
plane-surface $-1 0 0 -11.181786132302383 0 0 1 1 0 0 forward_v I I I I #
coedge $-1 $169 $170 $171 $172 forward $66 $-1 #
face $-1 $173 $174 $40 $-1 $175 reversed single #
loop $-1 $-1 $176 $68 #
plane-surface $-1 21.365653084470274 -24.00534535786884 6.7090796102430232 0 -0.57357644374324357 0.81915203911291934 1 0 0 forward_v I I I I #
coedge $-1 $177 $178 $179 $180 reversed $69 $-1 #
face $-1 $-1 $181 $41 $-1 $182 forward single #
loop $-1 $183 $184 $71 #
cone-surface $-1 17.05896675137943 -19.779468726890379 7.4715366846825351 0 0.57357644374324357 -0.81915203911291934 0.5 0 0 1 I I -0.70710678118654691 0.70710678118654813 0.5 forward I I I I #
loop $-1 $-1 $185 $54 #
coedge $-1 $116 $116 $186 $187 reversed $72 $-1 #
face $-1 $-1 $188 $42 $-1 $189 forward single #
loop $-1 $190 $191 $74 #
cone-surface $-1 21.365653084470274 -19.779468726890379 7.4715366846825351 0 0.57357644374324357 -0.81915203911291934 0.5 0 0 1 I I -0.70710678118654691 0.70710678118654813 0.5 forward I I I I #
loop $-1 $-1 $192 $55 #
coedge $-1 $121 $121 $193 $194 reversed $75 $-1 #
face $-1 $-1 $195 $43 $-1 $196 forward single #
loop $-1 $197 $198 $77 #
cone-surface $-1 25.672339417561126 -19.779468726890379 7.4715366846825351 0 0.57357644374324357 -0.81915203911291934 0.5 0 0 1 I I -0.70710678118654691 0.70710678118654813 0.5 forward I I I I #
loop $-1 $-1 $199 $56 #
coedge $-1 $126 $126 $200 $201 reversed $78 $-1 #
face $-1 $202 $203 $44 $-1 $204 reversed single #
loop $-1 $-1 $205 $80 #
plane-surface $-1 -32.601909848080851 -0.7219877374346737 47.54066581017311 0 0.85716730853699208 0.51503806187062418 1 0 0 forward_v I I I I #
coedge $-1 $206 $207 $208 $209 reversed $81 $-1 #
face $-1 $-1 $210 $45 $-1 $211 forward single #
loop $-1 $212 $213 $83 #
cone-surface $-1 -38.75688076408661 19.794425506883893 7.1199069176928251 0 -0.85716730853699208 -0.51503806187062418 0.5 0 0 1 I I -0.70710678118654746 0.70710678118654746 0.5 forward I I I I #
loop $-1 $-1 $214 $58 #
coedge $-1 $135 $135 $215 $216 reversed $84 $-1 #
face $-1 $-1 $217 $46 $-1 $218 forward single #
loop $-1 $219 $220 $86 #
cone-surface $-1 -32.601909848080851 19.794425506883893 7.1199069176928251 0 -0.85716730853699208 -0.51503806187062418 0.5 0 0 1 I I -0.70710678118654746 0.70710678118654746 0.5 forward I I I I #
loop $-1 $-1 $221 $59 #
coedge $-1 $140 $140 $222 $223 reversed $87 $-1 #
face $-1 $-1 $224 $47 $-1 $225 forward single #
loop $-1 $226 $227 $89 #
cone-surface $-1 -26.446938932075085 19.794425506883893 7.1199069176928251 0 -0.85716730853699208 -0.51503806187062418 0.5 0 0 1 I I -0.70710678118654746 0.70710678118654746 0.5 forward I I I I #
loop $-1 $-1 $228 $60 #
coedge $-1 $145 $145 $229 $230 reversed $90 $-1 #
face $-1 $231 $232 $48 $-1 $233 reversed single #
loop $-1 $-1 $234 $92 #
plane-surface $-1 10.258284860009617 -0.7219877374346737 47.54066581017311 0 0.85716730853699208 0.51503806187062418 1 0 0 forward_v I I I I #
coedge $-1 $235 $236 $237 $238 reversed $93 $-1 #
face $-1 $-1 $239 $49 $-1 $240 forward single #
loop $-1 $241 $242 $95 #
cone-surface $-1 4.1033139440038511 19.794425506883893 7.1199069176928251 0 -0.85716730853699208 -0.51503806187062418 0.5 0 0 1 I I -0.70710678118654746 0.70710678118654746 0.5 forward I I I I #
loop $-1 $-1 $243 $62 #
coedge $-1 $154 $154 $244 $245 reversed $96 $-1 #
face $-1 $-1 $246 $50 $-1 $247 forward single #
loop $-1 $248 $249 $98 #
cone-surface $-1 10.258284860009617 19.794425506883893 7.1199069176928251 0 -0.85716730853699208 -0.51503806187062418 0.5 0 0 1 I I -0.70710678118654746 0.70710678118654746 0.5 forward I I I I #
loop $-1 $-1 $250 $63 #
coedge $-1 $159 $159 $251 $252 reversed $99 $-1 #
face $-1 $-1 $253 $51 $-1 $254 forward single #
loop $-1 $255 $256 $101 #
cone-surface $-1 16.413255776015376 19.794425506883893 7.1199069176928251 0 -0.85716730853699208 -0.51503806187062418 0.5 0 0 1 I I -0.70710678118654746 0.70710678118654746 0.5 forward I I I I #
loop $-1 $-1 $257 $64 #
coedge $-1 $164 $164 $258 $259 reversed $102 $-1 #
face $-1 $260 $261 $39 $-1 $262 reversed single #
loop $-1 $-1 $263 $104 #
plane-surface $-1 0 -24.005345357868844 0 0 1 0 0 0 1 forward_v I I I I #
coedge $-1 $264 $265 $266 $267 forward $105 $-1 #
coedge $-1 $268 $107 $269 $270 forward $66 $-1 #
coedge $-1 $107 $268 $271 $272 forward $66 $-1 #
coedge $-1 $273 $274 $107 $172 reversed $275 $-1 #
edge $-1 $276 -24.005345357868844 $277 24.005345357868844 $171 $278 forward 7 unknown #
face $-1 $279 $280 $40 $-1 $281 reversed single #
loop $-1 $-1 $282 $108 #
plane-surface $-1 14.187842529318864 -73.172541475487861 76.927111394061129 1 0 0 0 0.57357644374324357 -0.81915203911291934 forward_v I I I I #
coedge $-1 $283 $284 $285 $286 reversed $109 $-1 #
coedge $-1 $178 $111 $287 $288 reversed $69 $-1 #
coedge $-1 $111 $177 $283 $289 reversed $69 $-1 #
coedge $-1 $285 $290 $111 $180 forward $291 $-1 #
edge $-1 $292 12.580925379875087 $293 18.968612161410103 $179 $294 forward 7 unknown #
loop $-1 $-1 $186 $112 #
plane-surface $-1 21.365653084470274 -24.00534535786884 6.7090796102430232 0 -0.57357644374324357 0.81915203911291934 1 0 0 forward_v I I I I #
loop $-1 $-1 $295 $71 #
coedge $-1 $184 $184 $185 $296 reversed $113 $-1 #
coedge $-1 $185 $185 $184 $296 forward $115 $-1 #
coedge $-1 $186 $186 $116 $187 forward $181 $-1 #
edge $-1 $297 -1.4641666191275965e-016 $297 6.2831853071796004 $186 $298 forward 7 unknown #
loop $-1 $-1 $193 $117 #
plane-surface $-1 21.365653084470274 -24.00534535786884 6.7090796102430232 0 -0.57357644374324357 0.81915203911291934 1 0 0 forward_v I I I I #
loop $-1 $-1 $299 $74 #
coedge $-1 $191 $191 $192 $300 reversed $118 $-1 #
coedge $-1 $192 $192 $191 $300 forward $120 $-1 #
coedge $-1 $193 $193 $121 $194 forward $188 $-1 #
edge $-1 $301 -1.4641666191275965e-016 $301 6.2831853071796004 $193 $302 forward 7 unknown #
loop $-1 $-1 $200 $122 #
plane-surface $-1 21.365653084470274 -24.00534535786884 6.7090796102430232 0 -0.57357644374324357 0.81915203911291934 1 0 0 forward_v I I I I #
loop $-1 $-1 $303 $77 #
coedge $-1 $198 $198 $199 $304 reversed $123 $-1 #
coedge $-1 $199 $199 $198 $304 forward $125 $-1 #
coedge $-1 $200 $200 $126 $201 forward $195 $-1 #
edge $-1 $305 -1.4641666191275965e-016 $305 6.2831853071796004 $200 $306 forward 7 unknown #
face $-1 $307 $308 $44 $-1 $309 forward single #
loop $-1 $-1 $208 $127 #
plane-surface $-1 0 24.005345357868844 0 0 -1 0 0 0 -1 forward_v I I I I #
coedge $-1 $310 $311 $312 $313 reversed $128 $-1 #
coedge $-1 $207 $130 $314 $315 reversed $81 $-1 #
coedge $-1 $130 $206 $310 $316 reversed $81 $-1 #
coedge $-1 $312 $317 $130 $209 forward $203 $-1 #
edge $-1 $318 34.663178386636659 $319 39.457493250576775 $208 $320 forward 7 unknown #
loop $-1 $-1 $215 $131 #
plane-surface $-1 -32.601909848080851 -0.7219877374346737 47.54066581017311 0 0.85716730853699208 0.51503806187062418 1 0 0 forward_v I I I I #
loop $-1 $-1 $321 $83 #
coedge $-1 $213 $213 $214 $322 reversed $132 $-1 #
coedge $-1 $214 $214 $213 $322 forward $134 $-1 #
coedge $-1 $215 $215 $135 $216 forward $210 $-1 #
edge $-1 $323 1.2154872545493161e-015 $323 6.2831853071796013 $215 $324 forward 7 unknown #
loop $-1 $-1 $222 $136 #
plane-surface $-1 -32.601909848080851 -0.7219877374346737 47.54066581017311 0 0.85716730853699208 0.51503806187062418 1 0 0 forward_v I I I I #
loop $-1 $-1 $325 $86 #
coedge $-1 $220 $220 $221 $326 reversed $137 $-1 #
coedge $-1 $221 $221 $220 $326 forward $139 $-1 #
coedge $-1 $222 $222 $140 $223 forward $217 $-1 #
edge $-1 $327 1.2154872545493161e-015 $327 6.2831853071796013 $222 $328 forward 7 unknown #
loop $-1 $-1 $229 $141 #
plane-surface $-1 -32.601909848080851 -0.7219877374346737 47.54066581017311 0 0.85716730853699208 0.51503806187062418 1 0 0 forward_v I I I I #
loop $-1 $-1 $329 $89 #
coedge $-1 $227 $227 $228 $330 reversed $142 $-1 #
coedge $-1 $228 $228 $227 $330 forward $144 $-1 #
coedge $-1 $229 $229 $145 $230 forward $224 $-1 #
edge $-1 $331 1.2154872545493161e-015 $331 6.2831853071796013 $229 $332 forward 7 unknown #
face $-1 $333 $334 $48 $-1 $335 forward single #
loop $-1 $-1 $336 $146 #
plane-surface $-1 1.0658141036401503e-014 72.75472774517597 91.689929037878088 1 0 0 0 -0.85716730853699208 -0.51503806187062418 forward_v I I I I #
coedge $-1 $337 $338 $339 $340 reversed $147 $-1 #
coedge $-1 $236 $149 $341 $342 reversed $93 $-1 #
coedge $-1 $149 $235 $337 $343 reversed $93 $-1 #
coedge $-1 $339 $344 $149 $238 forward $345 $-1 #
edge $-1 $346 34.663178386636659 $347 39.457493250576775 $237 $348 forward 7 unknown #
loop $-1 $-1 $244 $150 #
plane-surface $-1 10.258284860009617 -0.7219877374346737 47.54066581017311 0 0.85716730853699208 0.51503806187062418 1 0 0 forward_v I I I I #
loop $-1 $-1 $349 $95 #
coedge $-1 $242 $242 $243 $350 reversed $151 $-1 #
coedge $-1 $243 $243 $242 $350 forward $153 $-1 #
coedge $-1 $244 $244 $154 $245 forward $239 $-1 #
edge $-1 $351 1.2154872545493161e-015 $351 6.2831853071796013 $244 $352 forward 7 unknown #
loop $-1 $-1 $251 $155 #
plane-surface $-1 10.258284860009617 -0.7219877374346737 47.54066581017311 0 0.85716730853699208 0.51503806187062418 1 0 0 forward_v I I I I #
loop $-1 $-1 $353 $98 #
coedge $-1 $249 $249 $250 $354 reversed $156 $-1 #
coedge $-1 $250 $250 $249 $354 forward $158 $-1 #
coedge $-1 $251 $251 $159 $252 forward $246 $-1 #
edge $-1 $355 1.2154872545493161e-015 $355 6.2831853071796013 $251 $356 forward 7 unknown #
loop $-1 $-1 $258 $160 #
plane-surface $-1 10.258284860009617 -0.7219877374346737 47.54066581017311 0 0.85716730853699208 0.51503806187062418 1 0 0 forward_v I I I I #
loop $-1 $-1 $357 $101 #
coedge $-1 $256 $256 $257 $358 reversed $161 $-1 #
coedge $-1 $257 $257 $256 $358 forward $163 $-1 #
coedge $-1 $258 $258 $164 $259 forward $253 $-1 #
edge $-1 $359 1.2154872545493161e-015 $359 6.2831853071796013 $258 $360 forward 7 unknown #
face $-1 $361 $362 $39 $-1 $363 reversed single #
loop $-1 $-1 $364 $165 #
plane-surface $-1 -42.860194708090454 0 0 1 0 0 0 0 -1 forward_v I I I I #
coedge $-1 $365 $271 $366 $367 forward $166 $-1 #
coedge $-1 $368 $168 $365 $369 forward $105 $-1 #
coedge $-1 $168 $368 $370 $371 forward $105 $-1 #
coedge $-1 $274 $273 $168 $267 reversed $275 $-1 #
edge $-1 $372 -24.005345357868844 $373 24.005345357868844 $266 $374 forward 7 unknown #
coedge $-1 $170 $169 $375 $376 forward $66 $-1 #
coedge $-1 $377 $378 $169 $270 reversed $362 $-1 #
edge $-1 $277 -42.860194708090454 $379 42.860194708090454 $269 $380 forward 7 unknown #
coedge $-1 $263 $381 $170 $272 reversed $166 $-1 #
edge $-1 $382 -42.860194708090454 $276 42.860194708090454 $271 $383 forward 7 unknown #
coedge $-1 $266 $171 $381 $384 forward $275 $-1 #
coedge $-1 $171 $266 $377 $385 reversed $275 $-1 #
loop $-1 $-1 $273 $361 #
vertex $-1 $172 $386 #
vertex $-1 $172 $387 #
straight-curve $-1 42.860194708090454 0 11.181786132302383 0 1 0 I I #
face $-1 $-1 $291 $40 $-1 $388 forward single #
loop $-1 $-1 $389 $173 #
plane-surface $-1 0 -24.005345357868844 0 0 1 0 0 0 1 forward_v I I I I #
coedge $-1 $390 $391 $392 $393 reversed $174 $-1 #
coedge $-1 $394 $176 $178 $289 forward $109 $-1 #
coedge $-1 $176 $394 $390 $395 forward $109 $-1 #
coedge $-1 $392 $179 $176 $286 forward $291 $-1 #
edge $-1 $293 -17.860637097386547 $396 -3.505015987083727 $285 $397 forward 7 unknown #
coedge $-1 $398 $399 $177 $288 forward $280 $-1 #
edge $-1 $400 -31.754476086787545 $292 -27.281769564728179 $287 $401 forward 7 unknown #
edge $-1 $293 -7.7979257531390651 $400 4.4385273125170671e-015 $178 $402 forward 7 unknown #
coedge $-1 $179 $392 $398 $403 forward $291 $-1 #
loop $-1 $-1 $392 $279 #
vertex $-1 $288 $404 #
vertex $-1 $180 $405 #
straight-curve $-1 28.543463639621685 -36.586270737743931 11.181786132302385 0 1 0 I I #
coedge $-1 $295 $295 $-1 $406 reversed $183 $-1 #
edge $-1 $407 0 $407 6.2831853071796004 $184 $408 forward 7 unknown #
vertex $-1 $187 $409 #
ellipse-curve $-1 17.05896675137943 -20.811501967101332 8.945432871272704 0 -0.57357644374324357 0.81915203911291934 1 0 0 1 I I #
coedge $-1 $299 $299 $-1 $410 reversed $190 $-1 #
edge $-1 $411 0 $411 6.2831853071796004 $191 $412 forward 7 unknown #
vertex $-1 $194 $413 #
ellipse-curve $-1 21.365653084470274 -20.811501967101332 8.945432871272704 0 -0.57357644374324357 0.81915203911291934 1 0 0 1 I I #
coedge $-1 $303 $303 $-1 $414 reversed $197 $-1 #
edge $-1 $415 0 $415 6.2831853071796004 $198 $416 forward 7 unknown #
vertex $-1 $201 $417 #
ellipse-curve $-1 25.672339417561126 -20.811501967101332 8.945432871272704 0 -0.57357644374324357 0.81915203911291934 1 0 0 1 I I #
face $-1 $-1 $418 $44 $-1 $419 reversed single #
loop $-1 $-1 $314 $202 #
plane-surface $-1 0 0 11.181786132302383 0 0 1 1 0 0 forward_v I I I I #
coedge $-1 $420 $205 $207 $316 forward $128 $-1 #
coedge $-1 $205 $420 $421 $422 reversed $128 $-1 #
coedge $-1 $423 $208 $205 $313 forward $203 $-1 #
edge $-1 $319 6.0426700640308191 $424 26.559239784050028 $312 $425 forward 7 unknown #
coedge $-1 $426 $427 $206 $315 forward $308 $-1 #
edge $-1 $428 -15.25273341241601 $318 -12.372018514719141 $314 $429 forward 7 unknown #
edge $-1 $319 -48.010690715737709 $428 -42.417482929823635 $207 $430 forward 7 unknown #
coedge $-1 $208 $423 $426 $431 reversed $203 $-1 #
vertex $-1 $431 $432 #
vertex $-1 $209 $433 #
straight-curve $-1 -22.343624988071245 24.005345357868844 45.844964518939044 0 0 -1 I I #
coedge $-1 $321 $321 $-1 $434 reversed $212 $-1 #
edge $-1 $435 0 $435 6.2831853071796004 $213 $436 forward 7 unknown #
vertex $-1 $216 $437 #
ellipse-curve $-1 -38.75688076408661 22.56498790902041 8.7846287003323358 0 0.85716730853699208 0.51503806187062418 1 0 0 1 I I #
coedge $-1 $325 $325 $-1 $438 reversed $219 $-1 #
edge $-1 $439 0 $439 6.2831853071796004 $220 $440 forward 7 unknown #
vertex $-1 $223 $441 #
ellipse-curve $-1 -32.601909848080851 22.56498790902041 8.7846287003323358 0 0.85716730853699208 0.51503806187062418 1 0 0 1 I I #
coedge $-1 $329 $329 $-1 $442 reversed $226 $-1 #
edge $-1 $443 0 $443 6.2831853071796004 $227 $444 forward 7 unknown #
vertex $-1 $230 $445 #
ellipse-curve $-1 -26.446938932075085 22.56498790902041 8.7846287003323358 0 0.85716730853699208 0.51503806187062418 1 0 0 1 I I #
face $-1 $-1 $345 $48 $-1 $446 reversed single #
loop $-1 $-1 $447 $231 #
plane-surface $-1 0 0 11.181786132302383 0 0 1 1 0 0 forward_v I I I I #
coedge $-1 $448 $449 $450 $451 reversed $232 $-1 #
coedge $-1 $452 $234 $236 $343 forward $147 $-1 #
coedge $-1 $234 $452 $448 $453 forward $147 $-1 #
coedge $-1 $450 $237 $234 $340 forward $345 $-1 #
edge $-1 $347 -15.387427290014415 $454 5.1291424300047979 $339 $455 forward 7 unknown #
coedge $-1 $456 $457 $235 $342 forward $334 $-1 #
edge $-1 $458 -15.25273341241601 $346 -12.372018514719141 $341 $459 forward 7 unknown #
edge $-1 $347 -48.010690715737709 $458 -42.417482929823635 $236 $460 forward 7 unknown #
coedge $-1 $237 $450 $456 $461 reversed $345 $-1 #
loop $-1 $-1 $450 $333 #
vertex $-1 $461 $462 #
vertex $-1 $238 $463 #
straight-curve $-1 20.516569720019223 24.005345357868844 45.844964518939044 0 0 -1 I I #
coedge $-1 $349 $349 $-1 $464 reversed $241 $-1 #
edge $-1 $465 0 $465 6.2831853071796004 $242 $466 forward 7 unknown #
vertex $-1 $245 $467 #
ellipse-curve $-1 4.1033139440038511 22.56498790902041 8.7846287003323358 0 0.85716730853699208 0.51503806187062418 1 0 0 1 I I #
coedge $-1 $353 $353 $-1 $468 reversed $248 $-1 #
edge $-1 $469 0 $469 6.2831853071796004 $249 $470 forward 7 unknown #
vertex $-1 $252 $471 #
ellipse-curve $-1 10.258284860009617 22.56498790902041 8.7846287003323358 0 0.85716730853699208 0.51503806187062418 1 0 0 1 I I #
coedge $-1 $357 $357 $-1 $472 reversed $255 $-1 #
edge $-1 $473 0 $473 6.2831853071796004 $256 $474 forward 7 unknown #
vertex $-1 $259 $475 #
ellipse-curve $-1 16.413255776015376 22.56498790902041 8.7846287003323358 0 0.85716730853699208 0.51503806187062418 1 0 0 1 I I #
face $-1 $-1 $275 $39 $-1 $476 reversed single #
loop $-1 $-1 $377 $260 #
plane-surface $-1 0 24.005345357868844 0 0 -1 0 0 0 -1 forward_v I I I I #
coedge $-1 $477 $375 $378 $478 forward $261 $-1 #
coedge $-1 $381 $263 $264 $369 reversed $166 $-1 #
coedge $-1 $375 $477 $263 $367 reversed $261 $-1 #
edge $-1 $382 -11.181786132302383 $479 11.181786132302383 $366 $480 forward 7 unknown #
coedge $-1 $265 $264 $477 $481 forward $105 $-1 #
edge $-1 $373 -42.860194708090454 $479 42.860194708090454 $365 $482 forward 7 unknown #
coedge $-1 $378 $377 $265 $371 reversed $362 $-1 #
edge $-1 $483 -42.860194708090454 $372 42.860194708090454 $370 $484 forward 7 unknown #
vertex $-1 $267 $485 #
vertex $-1 $384 $486 #
straight-curve $-1 42.860194708090454 0 -11.181786132302383 0 -1 0 I I #
coedge $-1 $364 $366 $268 $376 reversed $261 $-1 #
edge $-1 $379 -24.005345357868844 $382 24.005345357868844 $375 $487 forward 7 unknown #
coedge $-1 $370 $269 $274 $385 forward $362 $-1 #
coedge $-1 $269 $370 $364 $478 reversed $362 $-1 #
vertex $-1 $270 $488 #
straight-curve $-1 0 24.005345357868844 11.181786132302383 -1 0 0 I I #
coedge $-1 $271 $365 $273 $384 reversed $166 $-1 #
vertex $-1 $376 $489 #
straight-curve $-1 0 -24.005345357868844 11.181786132302383 1 0 0 I I #
edge $-1 $276 -11.181786132302383 $373 11.181786132302383 $273 $490 forward 7 unknown #
edge $-1 $277 -11.181786132302383 $372 11.181786132302383 $274 $491 forward 7 unknown #
point $-1 42.860194708090454 -24.005345357868844 11.181786132302383 #
point $-1 42.860194708090454 24.005345357868844 11.181786132302383 #
plane-surface $-1 0 0 11.181786132302383 0 0 1 1 0 0 forward_v I I I I #
coedge $-1 $399 $398 $391 $492 forward $280 $-1 #
coedge $-1 $391 $282 $284 $395 reversed $174 $-1 #
coedge $-1 $282 $390 $389 $492 reversed $174 $-1 #
coedge $-1 $290 $285 $282 $393 forward $291 $-1 #
edge $-1 $396 -18.968612161410103 $493 -12.580925379875087 $392 $494 forward 7 unknown #
coedge $-1 $284 $283 $399 $495 reversed $109 $-1 #
edge $-1 $496 -4.4385273125170671e-015 $396 7.7979257531390651 $390 $497 forward 7 unknown #
vertex $-1 $286 $498 #
straight-curve $-1 10.682826542235137 -17.617658576333827 11.181786132302383 -1 0 0 I I #
coedge $-1 $389 $287 $290 $403 reversed $280 $-1 #
coedge $-1 $287 $389 $394 $495 forward $280 $-1 #
vertex $-1 $288 $499 #
straight-curve $-1 28.543463639621685 -24.005345357868844 38.463555697030564 0 0 1 I I #
straight-curve $-1 28.543463639621685 -24.00534535786884 6.7090796102430232 0 -0.81915203911291934 -0.57357644374324357 I I #
edge $-1 $493 14.187842529318864 $292 28.543463639621685 $398 $500 forward 7 unknown #
point $-1 28.543463639621685 -24.005345357868844 11.181786132302383 #
point $-1 28.543463639621685 -17.617658576333827 11.181786132302383 #
edge $-1 $501 1 $501 0 $295 $-1 forward 7 unknown #
vertex $-1 $296 $502 #
ellipse-curve $-1 17.05896675137943 -20.066256948762 7.8811127042389959 0 -0.57357644374324357 0.81915203911291934 1 0 0 1 I I #
point $-1 18.05896675137943 -20.811501967101329 8.9454328712726987 #
edge $-1 $503 1 $503 0 $299 $-1 forward 7 unknown #
vertex $-1 $300 $504 #
ellipse-curve $-1 21.365653084470274 -20.066256948762 7.8811127042389959 0 -0.57357644374324357 0.81915203911291934 1 0 0 1 I I #
point $-1 22.365653084470274 -20.811501967101329 8.9454328712726987 #
edge $-1 $505 1 $505 0 $303 $-1 forward 7 unknown #
vertex $-1 $304 $506 #
ellipse-curve $-1 25.672339417561126 -20.066256948762 7.8811127042389959 0 -0.57357644374324357 0.81915203911291934 1 0 0 1 I I #
point $-1 26.672339417561126 -20.811501967101329 8.9454328712726987 #
loop $-1 $-1 $421 $307 #
plane-surface $-1 -42.860194708090454 0 0 1 0 0 0 0 -1 forward_v I I I I #
coedge $-1 $311 $310 $427 $507 reversed $128 $-1 #
coedge $-1 $508 $509 $311 $422 forward $418 $-1 #
edge $-1 $424 -27.449612853965004 $510 -21.856405068050925 $421 $511 forward 7 unknown #
coedge $-1 $317 $312 $509 $512 reversed $203 $-1 #
vertex $-1 $313 $513 #
straight-curve $-1 -16.300954924040425 24.005345357868844 6.3874712683622654 -1 0 0 I I #
coedge $-1 $514 $314 $317 $431 forward $308 $-1 #
coedge $-1 $314 $514 $420 $507 forward $308 $-1 #
vertex $-1 $315 $515 #
straight-curve $-1 -22.343624988071245 36.377363872587985 11.181786132302385 0 1 0 I I #
straight-curve $-1 -22.343624988071245 -0.7219877374346737 47.54066581017311 0 -0.51503806187062418 0.85716730853699208 I I #
edge $-1 $318 22.343624988071245 $516 42.860194708090454 $317 $517 forward 7 unknown #
point $-1 -22.343624988071245 24.005345357868844 11.181786132302383 #
point $-1 -22.343624988071245 24.005345357868844 6.387471268362269 #
edge $-1 $518 1 $518 0 $321 $-1 forward 7 unknown #
vertex $-1 $322 $519 #
ellipse-curve $-1 -38.75688076408661 20.22300916115239 7.3774259486281375 0 0.85716730853699208 0.51503806187062418 1 0 0 1 I I #
point $-1 -37.75688076408661 22.564987909020406 8.7846287003323322 #
edge $-1 $520 1 $520 0 $325 $-1 forward 7 unknown #
vertex $-1 $326 $521 #
ellipse-curve $-1 -32.601909848080851 20.22300916115239 7.3774259486281375 0 0.85716730853699208 0.51503806187062418 1 0 0 1 I I #
point $-1 -31.601909848080851 22.564987909020406 8.7846287003323322 #
edge $-1 $522 1 $522 0 $329 $-1 forward 7 unknown #
vertex $-1 $330 $523 #
ellipse-curve $-1 -26.446938932075085 20.22300916115239 7.3774259486281375 0 0.85716730853699208 0.51503806187062418 1 0 0 1 I I #
point $-1 -25.446938932075085 22.564987909020406 8.7846287003323322 #
plane-surface $-1 0 24.005345357868844 0 0 -1 0 0 0 -1 forward_v I I I I #
coedge $-1 $457 $456 $449 $524 forward $334 $-1 #
coedge $-1 $449 $336 $338 $453 reversed $232 $-1 #
coedge $-1 $336 $448 $447 $524 reversed $232 $-1 #
coedge $-1 $344 $339 $336 $451 forward $345 $-1 #
edge $-1 $454 -39.457493250576775 $525 -34.663178386636659 $450 $526 forward 7 unknown #
coedge $-1 $338 $337 $457 $527 reversed $147 $-1 #
edge $-1 $528 42.417482929823635 $454 48.010690715737709 $448 $529 forward 7 unknown #
vertex $-1 $340 $530 #
straight-curve $-1 5.1291424300048085 24.005345357868844 6.3874712683622654 -1 0 0 I I #
coedge $-1 $447 $341 $344 $461 forward $334 $-1 #
coedge $-1 $341 $447 $452 $527 forward $334 $-1 #
vertex $-1 $342 $531 #
straight-curve $-1 20.516569720019223 36.377363872587985 11.181786132302385 0 1 0 I I #
straight-curve $-1 20.516569720019223 -0.7219877374346737 47.54066581017311 0 -0.51503806187062418 0.85716730853699208 I I #
edge $-1 $346 -20.516569720019223 $525 -1.0658141036401503e-014 $344 $532 forward 7 unknown #
point $-1 20.516569720019223 24.005345357868844 11.181786132302383 #
point $-1 20.516569720019223 24.005345357868844 6.387471268362269 #
edge $-1 $533 1 $533 0 $349 $-1 forward 7 unknown #
vertex $-1 $350 $534 #
ellipse-curve $-1 4.1033139440038511 20.22300916115239 7.3774259486281375 0 0.85716730853699208 0.51503806187062418 1 0 0 1 I I #
point $-1 5.1033139440038511 22.564987909020406 8.7846287003323322 #
edge $-1 $535 1 $535 0 $353 $-1 forward 7 unknown #
vertex $-1 $354 $536 #
ellipse-curve $-1 10.258284860009617 20.22300916115239 7.3774259486281375 0 0.85716730853699208 0.51503806187062418 1 0 0 1 I I #
point $-1 11.258284860009617 22.564987909020406 8.7846287003323322 #
edge $-1 $537 1 $537 0 $357 $-1 forward 7 unknown #
vertex $-1 $358 $538 #
ellipse-curve $-1 16.413255776015376 20.22300916115239 7.3774259486281375 0 0.85716730853699208 0.51503806187062418 1 0 0 1 I I #
point $-1 17.413255776015376 22.564987909020406 8.7846287003323322 #
plane-surface $-1 42.860194708090454 0 0 -1 0 0 0 0 1 forward_v I I I I #
coedge $-1 $366 $364 $368 $481 reversed $261 $-1 #
edge $-1 $379 -11.181786132302383 $483 11.181786132302383 $378 $539 forward 7 unknown #
vertex $-1 $481 $540 #
straight-curve $-1 -42.860194708090454 -24.005345357868844 0 0 0 -1 I I #
edge $-1 $479 -24.005345357868844 $483 24.005345357868844 $477 $541 forward 7 unknown #
straight-curve $-1 0 -24.005345357868844 -11.181786132302383 -1 0 0 I I #
vertex $-1 $371 $542 #
straight-curve $-1 0 24.005345357868844 -11.181786132302383 1 0 0 I I #
point $-1 42.860194708090454 24.005345357868844 -11.181786132302383 #
point $-1 42.860194708090454 -24.005345357868844 -11.181786132302383 #
straight-curve $-1 -42.860194708090454 0 11.181786132302383 0 -1 0 I I #
point $-1 -42.860194708090454 24.005345357868844 11.181786132302383 #
point $-1 -42.860194708090454 -24.005345357868844 11.181786132302383 #
straight-curve $-1 42.860194708090454 -24.005345357868844 0 0 0 -1 I I #
straight-curve $-1 42.860194708090454 24.005345357868844 0 0 0 -1 I I #
edge $-1 $493 27.281769564728179 $496 31.754476086787545 $389 $543 forward 7 unknown #
vertex $-1 $403 $544 #
straight-curve $-1 14.187842529318864 -36.586270737743931 11.181786132302385 0 -1 0 I I #
edge $-1 $496 3.505015987083727 $400 17.860637097386547 $399 $545 forward 7 unknown #
vertex $-1 $495 $546 #
straight-curve $-1 14.187842529318864 -24.00534535786884 6.7090796102430232 0 0.81915203911291934 0.57357644374324357 I I #
point $-1 14.187842529318864 -17.617658576333827 11.181786132302383 #
point $-1 28.543463639621685 -24.005345357868844 6.7090796102430206 #
straight-curve $-1 0 -24.005345357868844 11.181786132302383 1 0 0 I I #
vertex $-1 $406 $547 #
point $-1 18.05896675137943 -20.066256948762 7.8811127042389959 #
vertex $-1 $410 $548 #
point $-1 22.365653084470274 -20.066256948762 7.8811127042389959 #
vertex $-1 $414 $549 #
point $-1 26.672339417561126 -20.066256948762 7.8811127042389959 #
edge $-1 $510 -26.559239784050035 $428 -6.0426700640308191 $427 $550 forward 7 unknown #
coedge $-1 $509 $421 $514 $551 reversed $418 $-1 #
coedge $-1 $421 $508 $423 $512 forward $418 $-1 #
vertex $-1 $422 $552 #
straight-curve $-1 -42.860194708090454 9.8677499544637328 29.916382038777869 0 -0.51503806187062429 0.85716730853699219 I I #
edge $-1 $516 -11.181786132302383 $424 -6.3874712683622645 $423 $553 forward 7 unknown #
point $-1 -42.860194708090454 24.005345357868844 6.3874712683622645 #
coedge $-1 $427 $426 $508 $551 forward $308 $-1 #
point $-1 -22.343624988071245 21.124630460171975 11.181786132302385 #
vertex $-1 $431 $554 #
straight-curve $-1 0 24.005345357868844 11.181786132302383 -1 0 0 I I #
vertex $-1 $434 $555 #
point $-1 -37.75688076408661 20.22300916115239 7.3774259486281375 #
vertex $-1 $438 $556 #
point $-1 -31.601909848080851 20.22300916115239 7.3774259486281375 #
vertex $-1 $442 $557 #
point $-1 -25.446938932075085 20.22300916115239 7.3774259486281375 #
edge $-1 $525 12.372018514719141 $528 15.25273341241601 $447 $558 forward 7 unknown #
vertex $-1 $524 $559 #
straight-curve $-1 1.0658141036401503e-014 24.005345357868844 45.844964518939044 0 0 1 I I #
edge $-1 $528 -5.1291424300047979 $458 15.387427290014415 $457 $560 forward 7 unknown #
vertex $-1 $527 $561 #
straight-curve $-1 1.0658141036401503e-014 -0.7219877374346737 47.54066581017311 0 0.51503806187062418 -0.85716730853699208 I I #
point $-1 1.0658141036401503e-014 24.005345357868844 6.387471268362269 #
point $-1 20.516569720019223 21.124630460171975 11.181786132302385 #
straight-curve $-1 0 24.005345357868844 11.181786132302383 -1 0 0 I I #
vertex $-1 $464 $562 #
point $-1 5.1033139440038511 20.22300916115239 7.3774259486281375 #
vertex $-1 $468 $563 #
point $-1 11.258284860009617 20.22300916115239 7.3774259486281375 #
vertex $-1 $472 $564 #
point $-1 17.413255776015376 20.22300916115239 7.3774259486281375 #
straight-curve $-1 -42.860194708090454 24.005345357868844 0 0 0 -1 I I #
point $-1 -42.860194708090454 -24.005345357868844 -11.181786132302383 #
straight-curve $-1 -42.860194708090454 0 -11.181786132302383 0 1 0 I I #
point $-1 -42.860194708090454 24.005345357868844 -11.181786132302383 #
straight-curve $-1 14.187842529318864 -24.005345357868844 38.463555697030564 0 0 -1 I I #
point $-1 14.187842529318864 -24.005345357868844 11.181786132302383 #
straight-curve $-1 10.682826542235137 -24.005345357868844 6.7090796102430206 1 0 0 I I #
point $-1 14.187842529318864 -24.005345357868844 6.7090796102430206 #
point $-1 17.05896675137943 -19.492680505018757 7.0619606651260742 #
point $-1 21.365653084470274 -19.492680505018757 7.0619606651260742 #
point $-1 25.672339417561126 -19.492680505018757 7.0619606651260742 #
straight-curve $-1 -16.300954924040425 21.124630460171971 11.181786132302388 1 0 0 I I #
edge $-1 $516 -24.005345357868844 $510 -21.124630460171975 $508 $565 forward 7 unknown #
point $-1 -42.860194708090461 21.124630460171975 11.181786132302385 #
straight-curve $-1 -42.860194708090454 24.005345357868844 0 0 0 -1 I I #
point $-1 -42.860194708090454 24.005345357868844 11.181786132302383 #
point $-1 -38.75688076408661 19.365841852615397 6.8623878867575128 #
point $-1 -32.601909848080851 19.365841852615397 6.8623878867575128 #
point $-1 -26.446938932075085 19.365841852615397 6.8623878867575128 #
straight-curve $-1 1.0658141036401503e-014 36.377363872587985 11.181786132302385 0 -1 0 I I #
point $-1 1.0658141036401503e-014 24.005345357868844 11.181786132302383 #
straight-curve $-1 5.1291424300048085 21.124630460171971 11.181786132302388 1 0 0 I I #
point $-1 1.0658141036401503e-014 21.124630460171975 11.181786132302385 #
point $-1 4.1033139440038511 19.365841852615397 6.8623878867575128 #
point $-1 10.258284860009617 19.365841852615397 6.8623878867575128 #
point $-1 16.413255776015376 19.365841852615397 6.8623878867575128 #
straight-curve $-1 -42.860194708090454 0 11.181786132302383 0 -1 0 I I #
End-of-ACIS-data 