500 0 8 0           
7 Unknown 11 ACIS 5.0 NT 24 Fri Mar 26 16:51:13 1999 
-1 9.9999999999999995e-007 1e-010 
body $-1 $8 $-1 $9 #
body $-1 $10 $-1 $11 #
body $-1 $12 $-1 $13 #
body $-1 $14 $-1 $15 #
body $-1 $16 $-1 $17 #
body $-1 $18 $-1 $19 #
body $-1 $20 $-1 $21 #
body $-1 $22 $-1 $23 #
lump $-1 $-1 $24 $0 #
transform $-1 1 0 0 0 1 0 0 0 1 43.552354503006072 28.094970345386848 7.1289047346319281 1 rotate no_reflect no_shear #
lump $-1 $-1 $25 $1 #
transform $-1 1 0 0 0 1 0 0 0 1 43.552354503006072 28.094970345386848 7.1289047346319281 1 rotate no_reflect no_shear #
lump $-1 $-1 $26 $2 #
transform $-1 1 0 0 0 1 0 0 0 1 43.552354503006072 28.094970345386848 7.1289047346319281 1 rotate no_reflect no_shear #
lump $-1 $-1 $27 $3 #
transform $-1 1 0 0 0 1 0 0 0 1 43.552354503006072 28.094970345386848 7.1289047346319281 1 rotate no_reflect no_shear #
lump $-1 $-1 $28 $4 #
transform $-1 1 0 0 0 1 0 0 0 1 43.552354503006072 28.094970345386848 7.1289047346319281 1 rotate no_reflect no_shear #
lump $-1 $-1 $29 $5 #
transform $-1 1 0 0 0 1 0 0 0 1 43.552354503006072 28.094970345386848 7.1289047346319281 1 rotate no_reflect no_shear #
lump $-1 $-1 $30 $6 #
transform $-1 1 0 0 0 1 0 0 0 1 43.552354503006072 28.094970345386848 7.1289047346319281 1 rotate no_reflect no_shear #
lump $-1 $-1 $31 $7 #
transform $-1 1 0 0 0 1 0 0 0 1 43.552354503006072 28.094970345386848 7.1289047346319281 1 rotate no_reflect no_shear #
shell $-1 $-1 $-1 $32 $-1 $8 #
shell $-1 $-1 $-1 $33 $-1 $10 #
shell $-1 $-1 $-1 $34 $-1 $12 #
shell $-1 $-1 $-1 $35 $-1 $14 #
shell $-1 $-1 $-1 $36 $-1 $16 #
shell $-1 $-1 $-1 $37 $-1 $18 #
shell $-1 $-1 $-1 $38 $-1 $20 #
shell $-1 $-1 $-1 $39 $-1 $22 #
face $-1 $40 $41 $24 $-1 $42 forward single #
face $-1 $43 $44 $25 $-1 $45 reversed single #
face $-1 $46 $47 $26 $-1 $48 reversed single #
face $-1 $49 $50 $27 $-1 $51 forward single #
face $-1 $52 $53 $28 $-1 $54 forward single #
face $-1 $55 $56 $29 $-1 $57 reversed single #
face $-1 $58 $59 $30 $-1 $60 forward single #
face $-1 $61 $62 $31 $-1 $63 forward single #
face $-1 $64 $65 $24 $-1 $66 reversed single #
loop $-1 $-1 $67 $32 #
plane-surface $-1 0 0 7.1289047346319281 0 0 1 1 0 0 forward_v I I I I #
face $-1 $68 $69 $25 $-1 $70 reversed single #
loop $-1 $-1 $71 $33 #
plane-surface $-1 -39.66833609575918 -25.903670904029234 0 0 1 0 0 0 1 forward_v I I I I #
face $-1 $72 $73 $26 $-1 $74 reversed single #
loop $-1 $-1 $75 $34 #
plane-surface $-1 -32.625021199995146 32.028075075864109 103.93820706992716 1 0 0 0 -0.57357644374324357 -0.81915203911291934 forward_v I I I I #
face $-1 $76 $77 $27 $-1 $78 forward single #
loop $-1 $79 $80 $35 #
cone-surface $-1 -28.662286398738878 22.774601699913244 3.0506996288153303 0 -0.57357644374324357 -0.81915203911291934 1 0 0 1 I I 0 1 1 forward I I I I #
face $-1 $81 $82 $28 $-1 $83 forward single #
loop $-1 $84 $85 $36 #
cone-surface $-1 -22.718184196854473 22.774601699913244 3.0506996288153303 0 -0.57357644374324357 -0.81915203911291934 1 0 0 1 I I 0 1 1 forward I I I I #
face $-1 $86 $87 $29 $-1 $88 reversed single #
loop $-1 $-1 $89 $37 #
plane-surface $-1 29.938858339653891 -94.821049370743452 59.660188390351664 -1 0 0 0 -0.7660444514056185 0.64278759981090561 forward_v I I I I #
face $-1 $90 $91 $30 $-1 $92 forward single #
loop $-1 $93 $94 $38 #
cone-surface $-1 13.852678667270752 -26.260917004936225 5.078239345485386 0 0.7660444514056185 -0.64278759981090561 0.25 0 0 1 I I 0 1 0.25 forward I I I I #
face $-1 $95 $96 $31 $-1 $97 forward single #
loop $-1 $98 $99 $39 #
cone-surface $-1 23.504386470700638 -26.260917004936225 5.078239345485386 0 0.7660444514056185 -0.64278759981090561 0.25 0 0 1 I I 0 1 0.25 forward I I I I #
face $-1 $100 $101 $24 $-1 $102 reversed single #
loop $-1 $-1 $103 $40 #
plane-surface $-1 0 0 -7.1289047346319281 0 0 1 1 0 0 forward_v I I I I #
coedge $-1 $104 $105 $106 $107 forward $41 $-1 #
face $-1 $108 $109 $25 $-1 $110 reversed single #
loop $-1 $-1 $111 $43 #
plane-surface $-1 -39.66833609575918 -22.903670904029234 0 0 -1 0 0 0 -1 forward_v I I I I #
coedge $-1 $112 $113 $114 $115 reversed $44 $-1 #
face $-1 $116 $117 $26 $-1 $118 reversed single #
loop $-1 $-1 $119 $46 #
plane-surface $-1 -25.690235297796676 -17.933134149094414 32.586207071314846 0 0.57357644374324357 0.81915203911291934 1 0 0 forward_v I I I I #
coedge $-1 $120 $121 $122 $123 reversed $47 $-1 #
face $-1 $-1 $124 $27 $-1 $125 forward single #
loop $-1 $126 $127 $49 #
cone-surface $-1 -28.662286398738878 22.003099634373534 1.9488805128796995 0 -0.57357644374324357 -0.81915203911291934 0.5 0 0 1 I I -0.70710678118654746 0.70710678118654746 0.5 forward I I I I #
loop $-1 $-1 $128 $35 #
coedge $-1 $80 $80 $129 $130 reversed $50 $-1 #
face $-1 $-1 $131 $28 $-1 $132 forward single #
loop $-1 $133 $134 $52 #
cone-surface $-1 -22.718184196854473 22.003099634373534 1.9488805128796995 0 -0.57357644374324357 -0.81915203911291934 0.5 0 0 1 I I -0.70710678118654746 0.70710678118654746 0.5 forward I I I I #
loop $-1 $-1 $135 $36 #
coedge $-1 $85 $85 $136 $137 reversed $53 $-1 #
face $-1 $138 $139 $29 $-1 $140 reversed single #
loop $-1 $-1 $141 $55 #
plane-surface $-1 18.678532568985695 -28.094970345386841 3.6703615561497429 0 -0.7660444514056185 0.64278759981090561 1 0 0 forward_v I I I I #
coedge $-1 $142 $143 $144 $145 reversed $56 $-1 #
face $-1 $-1 $146 $30 $-1 $147 forward single #
loop $-1 $148 $149 $58 #
cone-surface $-1 13.852678667270752 -25.782139222807714 4.6764970956035699 0 0.7660444514056185 -0.64278759981090561 0.125 0 0 1 I I -0.70710678118654746 0.70710678118654746 0.125 forward I I I I #
loop $-1 $-1 $150 $38 #
coedge $-1 $94 $94 $151 $152 reversed $59 $-1 #
face $-1 $-1 $153 $31 $-1 $154 forward single #
loop $-1 $155 $156 $61 #
cone-surface $-1 23.504386470700638 -25.782139222807714 4.6764970956035699 0 0.7660444514056185 -0.64278759981090561 0.125 0 0 1 I I -0.70710678118654746 0.70710678118654746 0.125 forward I I I I #
loop $-1 $-1 $157 $39 #
coedge $-1 $99 $99 $158 $159 reversed $62 $-1 #
face $-1 $160 $161 $24 $-1 $162 reversed single #
loop $-1 $-1 $163 $64 #
plane-surface $-1 0 -28.094970345386848 0 0 1 0 0 0 1 forward_v I I I I #
coedge $-1 $164 $165 $166 $167 forward $65 $-1 #
coedge $-1 $168 $67 $169 $170 forward $41 $-1 #
coedge $-1 $67 $168 $171 $172 forward $41 $-1 #
coedge $-1 $173 $174 $67 $107 reversed $175 $-1 #
edge $-1 $176 -28.094970345386848 $177 28.094970345386848 $106 $178 forward 7 unknown #
face $-1 $179 $180 $25 $-1 $181 reversed single #
loop $-1 $-1 $182 $68 #
plane-surface $-1 -35.784317688512289 -24.403670904029234 0 -1 0 0 0 0 1 forward_v I I I I #
coedge $-1 $183 $184 $185 $186 forward $69 $-1 #
coedge $-1 $187 $71 $188 $189 reversed $44 $-1 #
coedge $-1 $71 $187 $190 $191 reversed $44 $-1 #
coedge $-1 $192 $193 $71 $115 forward $194 $-1 #
edge $-1 $195 -7.1289047346319281 $196 7.1289047346319281 $114 $197 forward 7 unknown #
face $-1 $198 $199 $26 $-1 $200 reversed single #
loop $-1 $-1 $201 $72 #
plane-surface $-1 -18.755449395598205 32.028075075864109 103.93820706992716 -1 0 0 0 0.57357644374324357 0.81915203911291934 forward_v I I I I #
coedge $-1 $202 $203 $204 $205 reversed $73 $-1 #
coedge $-1 $121 $75 $206 $207 reversed $47 $-1 #
coedge $-1 $75 $120 $202 $208 reversed $47 $-1 #
coedge $-1 $204 $209 $75 $123 forward $210 $-1 #
edge $-1 $211 -12.080932807454793 $212 -2.4096232038438004 $122 $213 forward 7 unknown #
loop $-1 $-1 $129 $76 #
plane-surface $-1 -25.690235297796676 -17.933134149094414 32.586207071314846 0 0.57357644374324357 0.81915203911291934 1 0 0 forward_v I I I I #
loop $-1 $-1 $214 $49 #
coedge $-1 $127 $127 $128 $215 reversed $77 $-1 #
coedge $-1 $128 $128 $127 $215 forward $79 $-1 #
coedge $-1 $129 $129 $80 $130 forward $124 $-1 #
edge $-1 $216 -7.0188233642812721e-017 $216 6.2831853071796004 $129 $217 forward 7 unknown #
loop $-1 $-1 $136 $81 #
plane-surface $-1 -25.690235297796676 -17.933134149094414 32.586207071314846 0 0.57357644374324357 0.81915203911291934 1 0 0 forward_v I I I I #
loop $-1 $-1 $218 $52 #
coedge $-1 $134 $134 $135 $219 reversed $82 $-1 #
coedge $-1 $135 $135 $134 $219 forward $84 $-1 #
coedge $-1 $136 $136 $85 $137 forward $131 $-1 #
edge $-1 $220 -7.0188233642812721e-017 $220 6.2831853071796004 $136 $221 forward 7 unknown #
face $-1 $222 $223 $29 $-1 $224 forward single #
loop $-1 $-1 $225 $86 #
plane-surface $-1 7.4182067983174989 -94.821049370743452 59.660188390351664 1 0 0 0 0.7660444514056185 -0.64278759981090561 forward_v I I I I #
coedge $-1 $226 $227 $228 $229 reversed $87 $-1 #
coedge $-1 $143 $89 $230 $231 reversed $56 $-1 #
coedge $-1 $89 $142 $226 $232 reversed $56 $-1 #
coedge $-1 $228 $233 $89 $145 forward $223 $-1 #
edge $-1 $234 19.315554339984878 $235 22.217616569480512 $144 $236 forward 7 unknown #
loop $-1 $-1 $151 $90 #
plane-surface $-1 18.678532568985695 -28.094970345386841 3.6703615561497429 0 -0.7660444514056185 0.64278759981090561 1 0 0 forward_v I I I I #
loop $-1 $-1 $237 $58 #
coedge $-1 $149 $149 $150 $238 reversed $91 $-1 #
coedge $-1 $150 $150 $149 $238 forward $93 $-1 #
coedge $-1 $151 $151 $94 $152 forward $146 $-1 #
edge $-1 $239 -4.6614393819025412e-015 $239 6.283185307179596 $151 $240 forward 7 unknown #
loop $-1 $-1 $158 $95 #
plane-surface $-1 18.678532568985695 -28.094970345386841 3.6703615561497429 0 -0.7660444514056185 0.64278759981090561 1 0 0 forward_v I I I I #
loop $-1 $-1 $241 $61 #
coedge $-1 $156 $156 $157 $242 reversed $96 $-1 #
coedge $-1 $157 $157 $156 $242 forward $98 $-1 #
coedge $-1 $158 $158 $99 $159 forward $153 $-1 #
edge $-1 $243 -4.6614393819025412e-015 $243 6.283185307179596 $158 $244 forward 7 unknown #
face $-1 $245 $246 $24 $-1 $247 reversed single #
loop $-1 $-1 $248 $100 #
plane-surface $-1 -43.552354503006072 0 0 1 0 0 0 0 -1 forward_v I I I I #
coedge $-1 $249 $171 $250 $251 forward $101 $-1 #
coedge $-1 $252 $103 $249 $253 forward $65 $-1 #
coedge $-1 $103 $252 $254 $255 forward $65 $-1 #
coedge $-1 $174 $173 $103 $167 reversed $175 $-1 #
edge $-1 $256 -28.094970345386848 $257 28.094970345386848 $166 $258 forward 7 unknown #
coedge $-1 $105 $104 $259 $260 forward $41 $-1 #
coedge $-1 $261 $262 $104 $170 reversed $246 $-1 #
edge $-1 $177 -43.552354503006072 $263 43.552354503006072 $169 $264 forward 7 unknown #
coedge $-1 $163 $265 $105 $172 reversed $101 $-1 #
edge $-1 $266 -43.552354503006072 $176 43.552354503006072 $171 $267 forward 7 unknown #
coedge $-1 $166 $106 $265 $268 forward $175 $-1 #
coedge $-1 $106 $166 $261 $269 reversed $175 $-1 #
loop $-1 $-1 $173 $245 #
vertex $-1 $107 $270 #
vertex $-1 $107 $271 #
straight-curve $-1 43.552354503006072 0 7.1289047346319281 0 1 0 I I #
face $-1 $272 $273 $25 $-1 $274 forward single #
loop $-1 $-1 $275 $108 #
plane-surface $-1 0 0 -7.1289047346319281 0 0 1 1 0 0 forward_v I I I I #
coedge $-1 $276 $277 $187 $278 forward $109 $-1 #
coedge $-1 $279 $111 $275 $280 reversed $69 $-1 #
coedge $-1 $111 $279 $281 $282 reversed $69 $-1 #
coedge $-1 $277 $276 $111 $186 reversed $109 $-1 #
edge $-1 $283 -7.1289047346319281 $284 7.1289047346319281 $185 $285 forward 7 unknown #
coedge $-1 $113 $112 $182 $278 reversed $44 $-1 #
coedge $-1 $286 $287 $112 $189 forward $180 $-1 #
edge $-1 $288 15.950149640632699 $195 23.718186455126482 $188 $289 forward 7 unknown #
coedge $-1 $290 $291 $113 $191 forward $273 $-1 #
edge $-1 $196 -23.718186455126482 $292 -15.950149640632699 $190 $293 forward 7 unknown #
coedge $-1 $294 $114 $291 $295 reversed $194 $-1 #
coedge $-1 $114 $294 $286 $296 reversed $194 $-1 #
loop $-1 $-1 $294 $272 #
vertex $-1 $296 $297 #
vertex $-1 $115 $298 #
straight-curve $-1 -43.552354503006072 -25.903670904029234 0 0 0 1 I I #
face $-1 $-1 $210 $26 $-1 $299 forward single #
loop $-1 $-1 $300 $116 #
plane-surface $-1 0 28.094970345386848 0 0 -1 0 0 0 -1 forward_v I I I I #
coedge $-1 $301 $302 $303 $304 reversed $117 $-1 #
coedge $-1 $305 $119 $121 $208 forward $73 $-1 #
coedge $-1 $119 $305 $301 $306 forward $73 $-1 #
coedge $-1 $303 $122 $119 $205 forward $210 $-1 #
edge $-1 $212 -19.779903551096808 $307 -5.9103317466998675 $204 $308 forward 7 unknown #
coedge $-1 $309 $310 $120 $207 forward $199 $-1 #
edge $-1 $311 -51.612122819206476 $211 -44.840198800331649 $206 $312 forward 7 unknown #
edge $-1 $212 44.383451612037703 $311 56.189940690773682 $121 $313 forward 7 unknown #
coedge $-1 $122 $303 $309 $314 forward $210 $-1 #
loop $-1 $-1 $303 $198 #
vertex $-1 $207 $315 #
vertex $-1 $123 $316 #
straight-curve $-1 -32.625021199995146 16.014037537932055 7.1289047346319308 0 -1 0 I I #
coedge $-1 $214 $214 $-1 $317 reversed $126 $-1 #
edge $-1 $318 0 $318 6.2831853071796004 $127 $319 forward 7 unknown #
vertex $-1 $130 $320 #
ellipse-curve $-1 -28.662286398738878 23.259315543581344 3.7429427251945162 0 0.57357644374324357 0.81915203911291934 1 0 0 1 I I #
coedge $-1 $218 $218 $-1 $321 reversed $133 $-1 #
edge $-1 $322 0 $322 6.2831853071796004 $134 $323 forward 7 unknown #
vertex $-1 $137 $324 #
ellipse-curve $-1 -22.718184196854473 23.259315543581344 3.7429427251945162 0 0.57357644374324357 0.81915203911291934 1 0 0 1 I I #
face $-1 $-1 $325 $29 $-1 $326 reversed single #
loop $-1 $-1 $144 $138 #
plane-surface $-1 0 0 7.1289047346319281 0 0 1 1 0 0 forward_v I I I I #
coedge $-1 $327 $328 $329 $330 reversed $139 $-1 #
coedge $-1 $331 $141 $143 $232 forward $87 $-1 #
coedge $-1 $141 $331 $327 $332 forward $87 $-1 #
coedge $-1 $329 $144 $141 $229 forward $223 $-1 #
edge $-1 $235 -20.599592055161043 $333 1.9210594861753485 $228 $334 forward 7 unknown #
coedge $-1 $335 $336 $142 $231 forward $325 $-1 #
edge $-1 $337 -26.159732639026096 $234 -22.701189460543905 $230 $338 forward 7 unknown #
edge $-1 $235 -4.5148074268224105 $337 1.1030930024383267e-014 $143 $339 forward 7 unknown #
coedge $-1 $144 $329 $335 $340 forward $223 $-1 #
vertex $-1 $231 $341 #
vertex $-1 $145 $342 #
straight-curve $-1 29.938858339653891 -47.410524685371726 7.1289047346319272 0 1 0 I I #
coedge $-1 $237 $237 $-1 $343 reversed $148 $-1 #
edge $-1 $344 0 $344 6.2831853071796004 $149 $345 forward 7 unknown #
vertex $-1 $152 $346 #
ellipse-curve $-1 13.852678667270752 -26.643939230639027 5.3996331453908342 0 -0.7660444514056185 0.64278759981090561 0.25 0 0 1 I I #
coedge $-1 $241 $241 $-1 $347 reversed $155 $-1 #
edge $-1 $348 0 $348 6.2831853071796004 $156 $349 forward 7 unknown #
vertex $-1 $159 $350 #
ellipse-curve $-1 23.504386470700638 -26.643939230639027 5.3996331453908342 0 -0.7660444514056185 0.64278759981090561 0.25 0 0 1 I I #
face $-1 $-1 $175 $24 $-1 $351 reversed single #
loop $-1 $-1 $261 $160 #
plane-surface $-1 0 28.094970345386848 0 0 -1 0 0 0 -1 forward_v I I I I #
coedge $-1 $352 $259 $262 $353 forward $161 $-1 #
coedge $-1 $265 $163 $164 $253 reversed $101 $-1 #
coedge $-1 $259 $352 $163 $251 reversed $161 $-1 #
edge $-1 $266 -7.1289047346319281 $354 7.1289047346319281 $250 $355 forward 7 unknown #
coedge $-1 $165 $164 $352 $356 forward $65 $-1 #
edge $-1 $257 -43.552354503006072 $354 43.552354503006072 $249 $357 forward 7 unknown #
coedge $-1 $262 $261 $165 $255 reversed $246 $-1 #
edge $-1 $358 -43.552354503006072 $256 43.552354503006072 $254 $359 forward 7 unknown #
vertex $-1 $167 $360 #
vertex $-1 $268 $361 #
straight-curve $-1 43.552354503006072 0 -7.1289047346319281 0 -1 0 I I #
coedge $-1 $248 $250 $168 $260 reversed $161 $-1 #
edge $-1 $263 -28.094970345386848 $266 28.094970345386848 $259 $362 forward 7 unknown #
coedge $-1 $254 $169 $174 $269 forward $246 $-1 #
coedge $-1 $169 $254 $248 $353 reversed $246 $-1 #
vertex $-1 $170 $363 #
straight-curve $-1 0 28.094970345386848 7.1289047346319281 -1 0 0 I I #
coedge $-1 $171 $249 $173 $268 reversed $101 $-1 #
vertex $-1 $260 $364 #
straight-curve $-1 0 -28.094970345386848 7.1289047346319281 1 0 0 I I #
edge $-1 $176 -7.1289047346319281 $257 7.1289047346319281 $173 $365 forward 7 unknown #
edge $-1 $177 -7.1289047346319281 $256 7.1289047346319281 $174 $366 forward 7 unknown #
point $-1 43.552354503006072 -28.094970345386848 7.1289047346319281 #
point $-1 43.552354503006072 28.094970345386848 7.1289047346319281 #
face $-1 $-1 $194 $25 $-1 $367 reversed single #
loop $-1 $-1 $281 $179 #
plane-surface $-1 0 0 7.1289047346319281 0 0 1 1 0 0 forward_v I I I I #
coedge $-1 $287 $286 $183 $280 forward $180 $-1 #
coedge $-1 $185 $182 $287 $368 reversed $109 $-1 #
coedge $-1 $182 $185 $290 $369 reversed $109 $-1 #
edge $-1 $292 -7.1289047346319281 $288 7.1289047346319281 $182 $370 forward 7 unknown #
coedge $-1 $184 $183 $294 $371 reversed $69 $-1 #
edge $-1 $372 -23.718186455126482 $284 -15.950149640632699 $275 $373 forward 7 unknown #
coedge $-1 $291 $290 $184 $282 forward $273 $-1 #
edge $-1 $283 15.950149640632699 $374 23.718186455126482 $281 $375 forward 7 unknown #
vertex $-1 $282 $376 #
vertex $-1 $280 $377 #
straight-curve $-1 -35.784317688512289 -22.903670904029234 0 0 0 -1 I I #
coedge $-1 $275 $188 $193 $296 forward $180 $-1 #
coedge $-1 $188 $275 $276 $368 forward $180 $-1 #
vertex $-1 $189 $378 #
straight-curve $-1 -19.83416804787959 -25.903670904029234 -7.1289047346319281 -1 0 0 I I #
coedge $-1 $281 $190 $277 $369 forward $273 $-1 #
coedge $-1 $190 $281 $192 $295 forward $273 $-1 #
vertex $-1 $191 $379 #
straight-curve $-1 -19.83416804787959 -25.903670904029234 7.1289047346319281 1 0 0 I I #
coedge $-1 $193 $192 $279 $371 forward $194 $-1 #
edge $-1 $374 22.903670904029234 $196 25.903670904029234 $192 $380 forward 7 unknown #
edge $-1 $195 -25.903670904029234 $372 -22.903670904029234 $193 $381 forward 7 unknown #
point $-1 -43.552354503006072 -25.903670904029234 -7.1289047346319281 #
point $-1 -43.552354503006072 -25.903670904029234 7.1289047346319281 #
plane-surface $-1 0 0 7.1289047346319281 0 0 1 1 0 0 forward_v I I I I #
coedge $-1 $310 $309 $302 $382 forward $199 $-1 #
coedge $-1 $302 $201 $203 $306 reversed $117 $-1 #
coedge $-1 $201 $301 $300 $382 reversed $117 $-1 #
coedge $-1 $209 $204 $201 $304 forward $210 $-1 #
edge $-1 $307 2.4096232038438004 $383 12.080932807454793 $303 $384 forward 7 unknown #
coedge $-1 $203 $202 $310 $385 reversed $73 $-1 #
edge $-1 $386 -56.189940690773682 $307 -44.383451612037703 $301 $387 forward 7 unknown #
vertex $-1 $205 $388 #
straight-curve $-1 -12.845117648898338 18.423660741775855 7.1289047346319308 1 0 0 I I #
coedge $-1 $300 $206 $209 $314 reversed $199 $-1 #
coedge $-1 $206 $300 $305 $385 forward $199 $-1 #
vertex $-1 $207 $389 #
straight-curve $-1 -32.625021199995146 28.094970345386848 51.96910353496358 0 0 1 I I #
straight-curve $-1 -32.625021199995146 -17.933134149094414 32.586207071314846 0 0.81915203911291934 -0.57357644374324357 I I #
edge $-1 $383 18.755449395598205 $211 32.625021199995146 $309 $390 forward 7 unknown #
point $-1 -32.625021199995146 28.094970345386848 7.1289047346319281 #
point $-1 -32.625021199995146 18.423660741775855 7.1289047346319272 #
edge $-1 $391 1 $391 0 $214 $-1 forward 7 unknown #
vertex $-1 $215 $392 #
ellipse-curve $-1 -28.662286398738878 22.289887856245155 2.358456532436159 0 0.57357644374324357 0.81915203911291934 1 0 0 1 I I #
point $-1 -27.662286398738878 23.259315543581334 3.7429427251945011 #
edge $-1 $393 1 $393 0 $218 $-1 forward 7 unknown #
vertex $-1 $219 $394 #
ellipse-curve $-1 -22.718184196854473 22.289887856245155 2.358456532436159 0 0.57357644374324357 0.81915203911291934 1 0 0 1 I I #
point $-1 -21.718184196854473 23.259315543581334 3.7429427251945011 #
loop $-1 $-1 $230 $222 #
plane-surface $-1 0 -28.094970345386848 0 0 1 0 0 0 1 forward_v I I I I #
coedge $-1 $328 $225 $227 $332 reversed $139 $-1 #
coedge $-1 $225 $327 $395 $396 reversed $139 $-1 #
coedge $-1 $233 $228 $225 $330 forward $223 $-1 #
edge $-1 $333 -22.217616569480512 $397 -19.315554339984878 $329 $398 forward 7 unknown #
coedge $-1 $227 $226 $336 $399 reversed $87 $-1 #
edge $-1 $400 -1.1030930024383267e-014 $333 4.5148074268224105 $327 $401 forward 7 unknown #
vertex $-1 $229 $402 #
straight-curve $-1 9.3392662844928473 -25.19290811589121 7.1289047346319272 -1 0 0 I I #
coedge $-1 $395 $230 $233 $340 reversed $325 $-1 #
coedge $-1 $230 $395 $331 $399 forward $325 $-1 #
vertex $-1 $231 $403 #
straight-curve $-1 29.938858339653891 -28.094970345386848 29.830094195175832 0 0 1 I I #
straight-curve $-1 29.938858339653891 -28.094970345386841 3.6703615561497429 0 -0.64278759981090561 -0.7660444514056185 I I #
edge $-1 $397 7.4182067983174989 $234 29.938858339653891 $335 $404 forward 7 unknown #
point $-1 29.938858339653891 -28.094970345386848 7.1289047346319281 #
point $-1 29.938858339653891 -25.192908115891214 7.1289047346319281 #
edge $-1 $405 1 $405 0 $237 $-1 forward 7 unknown #
vertex $-1 $238 $406 #
ellipse-curve $-1 13.852678667270752 -25.877894779233415 4.7568455455799334 0 -0.7660444514056185 0.64278759981090561 0.25 0 0 1 I I #
point $-1 14.102678667270752 -26.643939230639035 5.3996331453908386 #
edge $-1 $407 1 $407 0 $241 $-1 forward 7 unknown #
vertex $-1 $242 $408 #
ellipse-curve $-1 23.504386470700638 -25.877894779233415 4.7568455455799334 0 -0.7660444514056185 0.64278759981090561 0.25 0 0 1 I I #
point $-1 23.754386470700638 -26.643939230639035 5.3996331453908386 #
plane-surface $-1 43.552354503006072 0 0 -1 0 0 0 0 1 forward_v I I I I #
coedge $-1 $250 $248 $252 $356 reversed $161 $-1 #
edge $-1 $263 -7.1289047346319281 $358 7.1289047346319281 $262 $409 forward 7 unknown #
vertex $-1 $356 $410 #
straight-curve $-1 -43.552354503006072 -28.094970345386848 0 0 0 -1 I I #
edge $-1 $354 -28.094970345386848 $358 28.094970345386848 $352 $411 forward 7 unknown #
straight-curve $-1 0 -28.094970345386848 -7.1289047346319281 -1 0 0 I I #
vertex $-1 $255 $412 #
straight-curve $-1 0 28.094970345386848 -7.1289047346319281 1 0 0 I I #
point $-1 43.552354503006072 28.094970345386848 -7.1289047346319281 #
point $-1 43.552354503006072 -28.094970345386848 -7.1289047346319281 #
straight-curve $-1 -43.552354503006072 0 7.1289047346319281 0 -1 0 I I #
point $-1 -43.552354503006072 28.094970345386848 7.1289047346319281 #
point $-1 -43.552354503006072 -28.094970345386848 7.1289047346319281 #
straight-curve $-1 43.552354503006072 -28.094970345386848 0 0 0 -1 I I #
straight-curve $-1 43.552354503006072 28.094970345386848 0 0 0 -1 I I #
plane-surface $-1 -43.552354503006072 0 0 1 0 0 0 0 -1 forward_v I I I I #
edge $-1 $284 10.701835452014617 $288 13.701835452014617 $287 $413 forward 7 unknown #
edge $-1 $292 -13.701835452014617 $283 -10.701835452014617 $290 $414 forward 7 unknown #
straight-curve $-1 -35.784317688512289 -25.903670904029234 0 0 0 -1 I I #
edge $-1 $374 -7.1289047346319281 $372 7.1289047346319281 $294 $415 forward 7 unknown #
vertex $-1 $371 $416 #
straight-curve $-1 -19.83416804787959 -22.903670904029234 -7.1289047346319281 1 0 0 I I #
vertex $-1 $295 $417 #
straight-curve $-1 -19.83416804787959 -22.903670904029234 7.1289047346319281 -1 0 0 I I #
point $-1 -35.784317688512289 -22.903670904029234 7.1289047346319281 #
point $-1 -35.784317688512289 -22.903670904029234 -7.1289047346319281 #
point $-1 -35.784317688512289 -25.903670904029234 -7.1289047346319281 #
point $-1 -35.784317688512289 -25.903670904029234 7.1289047346319281 #
straight-curve $-1 -43.552354503006072 0 7.1289047346319281 0 -1 0 I I #
straight-curve $-1 -43.552354503006072 0 -7.1289047346319281 0 1 0 I I #
edge $-1 $383 44.840198800331649 $386 51.612122819206476 $300 $418 forward 7 unknown #
vertex $-1 $314 $419 #
straight-curve $-1 -18.755449395598205 16.014037537932055 7.1289047346319308 0 1 0 I I #
edge $-1 $386 5.9103317466998675 $311 19.779903551096808 $310 $420 forward 7 unknown #
vertex $-1 $385 $421 #
straight-curve $-1 -18.755449395598205 -17.933134149094414 32.586207071314846 0 -0.81915203911291934 0.57357644374324357 I I #
point $-1 -18.755449395598205 18.423660741775855 7.1289047346319272 #
point $-1 -32.625021199995146 28.094970345386848 0.35698071575710344 #
straight-curve $-1 0 28.094970345386848 7.1289047346319281 -1 0 0 I I #
vertex $-1 $317 $422 #
point $-1 -27.662286398738878 22.289887856245155 2.358456532436159 #
vertex $-1 $321 $423 #
point $-1 -21.718184196854473 22.289887856245155 2.358456532436159 #
coedge $-1 $336 $335 $328 $396 forward $325 $-1 #
edge $-1 $397 22.701189460543905 $400 26.159732639026096 $395 $424 forward 7 unknown #
vertex $-1 $340 $425 #
straight-curve $-1 7.4182067983174989 -47.410524685371726 7.1289047346319272 0 -1 0 I I #
edge $-1 $400 -1.9210594861753485 $337 20.599592055161043 $336 $426 forward 7 unknown #
vertex $-1 $399 $427 #
straight-curve $-1 7.4182067983174989 -28.094970345386841 3.6703615561497429 0 0.64278759981090561 0.7660444514056185 I I #
point $-1 7.4182067983174989 -25.192908115891214 7.1289047346319281 #
point $-1 29.938858339653891 -28.094970345386848 3.6703615561497345 #
straight-curve $-1 0 -28.094970345386848 7.1289047346319281 1 0 0 I I #
vertex $-1 $343 $428 #
point $-1 14.102678667270752 -25.877894779233415 4.7568455455799334 #
vertex $-1 $347 $429 #
point $-1 23.754386470700638 -25.877894779233415 4.7568455455799334 #
straight-curve $-1 -43.552354503006072 28.094970345386848 0 0 0 -1 I I #
point $-1 -43.552354503006072 -28.094970345386848 -7.1289047346319281 #
straight-curve $-1 -43.552354503006072 0 -7.1289047346319281 0 1 0 I I #
point $-1 -43.552354503006072 28.094970345386848 -7.1289047346319281 #
straight-curve $-1 -35.784317688512289 -12.201835452014617 -7.1289047346319281 0 -1 0 I I #
straight-curve $-1 -35.784317688512289 -12.201835452014617 7.1289047346319281 0 1 0 I I #
straight-curve $-1 -43.552354503006072 -22.903670904029234 0 0 0 -1 I I #
point $-1 -43.552354503006072 -22.903670904029234 -7.1289047346319281 #
point $-1 -43.552354503006072 -22.903670904029234 7.1289047346319281 #
straight-curve $-1 -18.755449395598205 28.094970345386848 51.96910353496358 0 0 -1 I I #
point $-1 -18.755449395598205 28.094970345386848 7.1289047346319281 #
straight-curve $-1 -12.845117648898338 28.094970345386852 0.35698071575709633 -1 0 0 I I #
point $-1 -18.755449395598205 28.094970345386848 0.35698071575710344 #
point $-1 -28.662286398738878 21.716311412501913 1.5393044933232398 #
point $-1 -22.718184196854473 21.716311412501913 1.5393044933232398 #
straight-curve $-1 7.4182067983174989 -28.094970345386848 29.830094195175832 0 0 -1 I I #
point $-1 7.4182067983174989 -28.094970345386848 7.1289047346319281 #
straight-curve $-1 9.3392662844928473 -28.094970345386848 3.6703615561497354 1 0 0 I I #
point $-1 7.4182067983174989 -28.094970345386848 3.6703615561497345 #
point $-1 13.852678667270752 -25.686383666382014 4.5961486456272063 #
point $-1 23.504386470700638 -25.686383666382014 4.5961486456272063 #
End-of-ACIS-data 