500 0 9 0           
7 Unknown 11 ACIS 5.0 NT 24 Thu Mar 25 23:54:53 1999 
-1 9.9999999999999995e-007 1e-010 
body $-1 $9 $-1 $10 #
body $-1 $11 $-1 $12 #
body $-1 $13 $-1 $14 #
body $-1 $15 $-1 $16 #
body $-1 $17 $-1 $18 #
body $-1 $19 $-1 $20 #
body $-1 $21 $-1 $22 #
body $-1 $23 $-1 $24 #
body $-1 $25 $-1 $26 #
lump $-1 $-1 $27 $0 #
transform $-1 1 0 0 0 1 0 0 0 1 45.569017609179966 27.389528733459809 5.6880478873698328 1 rotate no_reflect no_shear #
lump $-1 $-1 $28 $1 #
transform $-1 1 0 0 0 1 0 0 0 1 45.569017609179966 27.389528733459809 5.6880478873698328 1 rotate no_reflect no_shear #
lump $-1 $-1 $29 $2 #
transform $-1 1 0 0 0 1 0 0 0 1 45.569017609179966 27.389528733459809 5.6880478873698328 1 rotate no_reflect no_shear #
lump $-1 $-1 $30 $3 #
transform $-1 1 0 0 0 1 0 0 0 1 45.569017609179966 27.389528733459809 5.6880478873698328 1 rotate no_reflect no_shear #
lump $-1 $-1 $31 $4 #
transform $-1 1 0 0 0 1 0 0 0 1 45.569017609179966 27.389528733459809 5.6880478873698328 1 rotate no_reflect no_shear #
lump $-1 $-1 $32 $5 #
transform $-1 1 0 0 0 1 0 0 0 1 45.569017609179966 27.389528733459809 5.6880478873698328 1 rotate no_reflect no_shear #
lump $-1 $-1 $33 $6 #
transform $-1 1 0 0 0 1 0 0 0 1 45.569017609179966 27.389528733459809 5.6880478873698328 1 rotate no_reflect no_shear #
lump $-1 $-1 $34 $7 #
transform $-1 1 0 0 0 1 0 0 0 1 45.569017609179966 27.389528733459809 5.6880478873698328 1 rotate no_reflect no_shear #
lump $-1 $-1 $35 $8 #
transform $-1 1 0 0 0 1 0 0 0 1 45.569017609179966 27.389528733459809 5.6880478873698328 1 rotate no_reflect no_shear #
shell $-1 $-1 $-1 $36 $-1 $9 #
shell $-1 $-1 $-1 $37 $-1 $11 #
shell $-1 $-1 $-1 $38 $-1 $13 #
shell $-1 $-1 $-1 $39 $-1 $15 #
shell $-1 $-1 $-1 $40 $-1 $17 #
shell $-1 $-1 $-1 $41 $-1 $19 #
shell $-1 $-1 $-1 $42 $-1 $21 #
shell $-1 $-1 $-1 $43 $-1 $23 #
shell $-1 $-1 $-1 $44 $-1 $25 #
face $-1 $45 $46 $27 $-1 $47 reversed single #
face $-1 $48 $49 $28 $-1 $50 forward single #
face $-1 $51 $52 $29 $-1 $53 reversed single #
face $-1 $54 $55 $30 $-1 $56 forward single #
face $-1 $57 $58 $31 $-1 $59 forward single #
face $-1 $60 $61 $32 $-1 $62 forward single #
face $-1 $63 $64 $33 $-1 $65 reversed single #
face $-1 $66 $67 $34 $-1 $68 forward single #
face $-1 $69 $70 $35 $-1 $71 forward single #
face $-1 $72 $73 $27 $-1 $74 forward single #
loop $-1 $-1 $75 $36 #
plane-surface $-1 0 -27.389528733459809 0 0 1 0 0 0 1 forward_v I I I I #
face $-1 $76 $77 $28 $-1 $78 reversed single #
loop $-1 $-1 $79 $37 #
plane-surface $-1 0 -27.389528733459809 0 0 1 0 0 0 1 forward_v I I I I #
face $-1 $80 $81 $29 $-1 $82 reversed single #
loop $-1 $-1 $83 $38 #
plane-surface $-1 -96.532760801913355 -10.08000567586919 77.132587446331755 0 1 0 -0.55919291073839883 0 0.82903756765294845 forward_v I I I I #
face $-1 $84 $85 $30 $-1 $86 forward single #
loop $-1 $87 $88 $39 #
cone-surface $-1 -42.207716889313566 -7.842049745444946 3.1679648540649774 0.55919291073839883 0 -0.82903756765294845 0.41451878382647422 0 0.27959645536919941 1 I I 0 1 0.5 forward I I I I #
face $-1 $89 $90 $31 $-1 $91 forward single #
loop $-1 $92 $93 $40 #
cone-surface $-1 -42.207716889313566 -4.4851158498085759 3.1679648540649774 0.55919291073839883 0 -0.82903756765294845 0.41451878382647422 0 0.27959645536919941 1 I I 0 1 0.5 forward I I I I #
face $-1 $94 $95 $32 $-1 $96 forward single #
loop $-1 $97 $98 $41 #
cone-surface $-1 -42.207716889313566 -1.1281819541722093 3.1679648540649774 0.55919291073839883 0 -0.82903756765294845 0.41451878382647422 0 0.27959645536919941 1 I I 0 1 0.5 forward I I I I #
face $-1 $99 $100 $33 $-1 $101 reversed single #
loop $-1 $-1 $102 $42 #
plane-surface $-1 18.771562478350504 16.68490948748876 126.42109734479314 0 1 0 0.54463904215088732 0 0.83867056331134215 forward_v I I I I #
face $-1 $103 $104 $34 $-1 $105 forward single #
loop $-1 $106 $107 $43 #
cone-surface $-1 40.256217979884518 19.743372129194771 1.1674778164873838 -0.54463904215088732 0 -0.83867056331134215 1.2580058449670133 0 -0.81695856322633098 1 I I 0 1 1.5 forward I I I I #
face $-1 $108 $109 $35 $-1 $110 forward single #
loop $-1 $111 $112 $44 #
cone-surface $-1 40.256217979884518 24.331066091753794 1.1674778164873838 -0.54463904215088732 0 -0.83867056331134215 1.2580058449670133 0 -0.81695856322633098 1 I I 0 1 1.5 forward I I I I #
face $-1 $113 $114 $27 $-1 $115 reversed single #
loop $-1 $-1 $116 $45 #
plane-surface $-1 0 0 5.6880478873698328 0 0 1 1 0 0 forward_v I I I I #
coedge $-1 $117 $118 $119 $120 reversed $46 $-1 #
face $-1 $121 $122 $28 $-1 $123 reversed single #
loop $-1 $-1 $124 $48 #
plane-surface $-1 0 0 -5.6880478873698328 0 0 1 1 0 0 forward_v I I I I #
coedge $-1 $125 $126 $127 $128 forward $49 $-1 #
face $-1 $129 $130 $29 $-1 $131 reversed single #
loop $-1 $-1 $132 $51 #
plane-surface $-1 -45.569017609179959 -4.4851158498085759 1.5757324082338897 -0.55919291073839883 0 0.82903756765294845 0.82903756765294845 0 0.55919291073839883 forward_v I I I I #
coedge $-1 $133 $134 $135 $136 reversed $52 $-1 #
face $-1 $-1 $137 $30 $-1 $138 forward single #
loop $-1 $139 $140 $54 #
cone-surface $-1 -41.754997093907569 -7.842049745444946 2.4967801684148592 0.55919291073839883 0 -0.82903756765294845 0.20725939191323711 0 0.13979822768459971 1 I I -0.70710678118654746 0.70710678118654746 0.25 forward I I I I #
loop $-1 $-1 $141 $39 #
coedge $-1 $88 $88 $142 $143 reversed $55 $-1 #
face $-1 $-1 $144 $31 $-1 $145 forward single #
loop $-1 $146 $147 $57 #
cone-surface $-1 -41.754997093907569 -4.4851158498085759 2.4967801684148592 0.55919291073839883 0 -0.82903756765294845 0.20725939191323711 0 0.13979822768459971 1 I I -0.70710678118654746 0.70710678118654746 0.25 forward I I I I #
loop $-1 $-1 $148 $40 #
coedge $-1 $93 $93 $149 $150 reversed $58 $-1 #
face $-1 $-1 $151 $32 $-1 $152 forward single #
loop $-1 $153 $154 $60 #
cone-surface $-1 -41.754997093907569 -1.1281819541722093 2.4967801684148592 0.55919291073839883 0 -0.82903756765294845 0.20725939191323711 0 0.13979822768459971 1 I I -0.70710678118654746 0.70710678118654746 0.25 forward I I I I #
loop $-1 $-1 $155 $41 #
coedge $-1 $98 $98 $156 $157 reversed $61 $-1 #
face $-1 $158 $159 $33 $-1 $160 reversed single #
loop $-1 $-1 $161 $63 #
plane-surface $-1 -30.865769726490882 22.037219110474286 49.986310009122278 0.54463904215088732 0 0.83867056331134215 0.83867056331134215 0 -0.54463904215088732 forward_v I I I I #
coedge $-1 $162 $163 $164 $165 reversed $64 $-1 #
face $-1 $-1 $166 $34 $-1 $167 forward single #
loop $-1 $168 $169 $66 #
cone-surface $-1 38.645662472553013 19.743372129194771 -1.3125601353340874 -0.54463904215088732 0 -0.83867056331134215 0.62900292248350664 0 -0.40847928161316549 1 I I -0.70710678118654757 0.70710678118654757 0.75 forward I I I I #
loop $-1 $-1 $170 $43 #
coedge $-1 $107 $107 $171 $172 reversed $67 $-1 #
face $-1 $-1 $173 $35 $-1 $174 forward single #
loop $-1 $175 $176 $69 #
cone-surface $-1 38.645662472553013 24.331066091753794 -1.3125601353340874 -0.54463904215088732 0 -0.83867056331134215 0.62900292248350664 0 -0.40847928161316549 1 I I -0.70710678118654757 0.70710678118654757 0.75 forward I I I I #
loop $-1 $-1 $177 $44 #
coedge $-1 $112 $112 $178 $179 reversed $70 $-1 #
face $-1 $180 $181 $27 $-1 $182 reversed single #
loop $-1 $-1 $183 $72 #
plane-surface $-1 0 0 -5.6880478873698328 0 0 1 1 0 0 forward_v I I I I #
coedge $-1 $184 $185 $186 $187 forward $73 $-1 #
coedge $-1 $188 $75 $189 $190 reversed $46 $-1 #
coedge $-1 $75 $188 $191 $192 forward $46 $-1 #
coedge $-1 $193 $183 $75 $120 forward $114 $-1 #
edge $-1 $194 -45.569017609179966 $195 45.569017609179966 $75 $196 forward 7 unknown #
face $-1 $197 $198 $28 $-1 $199 reversed single #
loop $-1 $-1 $200 $76 #
plane-surface $-1 -35.692921834440298 -31.991572099538946 0 0 1 0 0 0 1 forward_v I I I I #
coedge $-1 $201 $202 $126 $203 forward $77 $-1 #
coedge $-1 $204 $79 $205 $206 reversed $49 $-1 #
coedge $-1 $79 $204 $124 $203 reversed $49 $-1 #
coedge $-1 $207 $208 $79 $128 reversed $198 $-1 #
edge $-1 $209 -5.6880478873698328 $210 5.6880478873698328 $127 $211 forward 7 unknown #
face $-1 $212 $213 $29 $-1 $214 reversed single #
loop $-1 $-1 $215 $80 #
plane-surface $-1 -96.532760801913355 1.109773976252038 77.132587446331755 0 -1 0 0.55919291073839883 0 -0.82903756765294845 forward_v I I I I #
coedge $-1 $216 $217 $218 $219 reversed $81 $-1 #
coedge $-1 $134 $83 $220 $221 reversed $52 $-1 #
coedge $-1 $83 $133 $216 $222 reversed $52 $-1 #
coedge $-1 $218 $223 $83 $136 forward $224 $-1 #
edge $-1 $225 2.6973627917767118 $226 8.7941210960667178 $135 $227 forward 7 unknown #
loop $-1 $-1 $142 $84 #
plane-surface $-1 -45.569017609179959 -4.4851158498085759 1.5757324082338897 -0.55919291073839883 0 0.82903756765294845 0.82903756765294845 0 0.55919291073839883 forward_v I I I I #
loop $-1 $-1 $228 $54 #
coedge $-1 $140 $140 $141 $229 reversed $85 $-1 #
coedge $-1 $141 $141 $140 $229 forward $87 $-1 #
coedge $-1 $142 $142 $88 $143 forward $137 $-1 #
edge $-1 $230 0 $230 6.2831853071796004 $142 $231 forward 7 unknown #
loop $-1 $-1 $149 $89 #
plane-surface $-1 -45.569017609179959 -4.4851158498085759 1.5757324082338897 -0.55919291073839883 0 0.82903756765294845 0.82903756765294845 0 0.55919291073839883 forward_v I I I I #
loop $-1 $-1 $232 $57 #
coedge $-1 $147 $147 $148 $233 reversed $90 $-1 #
coedge $-1 $148 $148 $147 $233 forward $92 $-1 #
coedge $-1 $149 $149 $93 $150 forward $144 $-1 #
edge $-1 $234 0 $234 6.2831853071796004 $149 $235 forward 7 unknown #
loop $-1 $-1 $156 $94 #
plane-surface $-1 -45.569017609179959 -4.4851158498085759 1.5757324082338897 -0.55919291073839883 0 0.82903756765294845 0.82903756765294845 0 0.55919291073839883 forward_v I I I I #
loop $-1 $-1 $236 $60 #
coedge $-1 $154 $154 $155 $237 reversed $95 $-1 #
coedge $-1 $155 $155 $154 $237 forward $97 $-1 #
coedge $-1 $156 $156 $98 $157 forward $151 $-1 #
edge $-1 $238 0 $238 6.2831853071796004 $156 $239 forward 7 unknown #
face $-1 $240 $241 $33 $-1 $242 forward single #
loop $-1 $-1 $243 $99 #
plane-surface $-1 0 27.389528733459809 0 0 -1 0 0 0 -1 forward_v I I I I #
coedge $-1 $244 $245 $246 $247 reversed $100 $-1 #
coedge $-1 $163 $102 $248 $249 reversed $64 $-1 #
coedge $-1 $102 $162 $244 $250 reversed $64 $-1 #
coedge $-1 $246 $251 $102 $165 forward $252 $-1 #
edge $-1 $253 57.522500785026736 $254 62.86157086811567 $164 $255 forward 7 unknown #
loop $-1 $-1 $171 $103 #
plane-surface $-1 -30.865769726490882 22.037219110474286 49.986310009122278 0.54463904215088732 0 0.83867056331134215 0.83867056331134215 0 -0.54463904215088732 forward_v I I I I #
loop $-1 $-1 $256 $66 #
coedge $-1 $169 $169 $170 $257 reversed $104 $-1 #
coedge $-1 $170 $170 $169 $257 forward $106 $-1 #
coedge $-1 $171 $171 $107 $172 forward $166 $-1 #
edge $-1 $258 0 $258 6.2831853071796004 $171 $259 forward 7 unknown #
loop $-1 $-1 $178 $108 #
plane-surface $-1 -30.865769726490882 22.037219110474286 49.986310009122278 0.54463904215088732 0 0.83867056331134215 0.83867056331134215 0 -0.54463904215088732 forward_v I I I I #
loop $-1 $-1 $260 $69 #
coedge $-1 $176 $176 $177 $261 reversed $109 $-1 #
coedge $-1 $177 $177 $176 $261 forward $111 $-1 #
coedge $-1 $178 $178 $112 $179 forward $173 $-1 #
edge $-1 $262 0 $262 6.2831853071796004 $178 $263 forward 7 unknown #
face $-1 $264 $265 $27 $-1 $266 reversed single #
loop $-1 $-1 $267 $113 #
plane-surface $-1 -45.569017609179966 0 0 1 0 0 0 0 -1 forward_v I I I I #
coedge $-1 $119 $268 $269 $270 forward $114 $-1 #
coedge $-1 $271 $116 $272 $273 forward $73 $-1 #
coedge $-1 $116 $271 $188 $274 forward $73 $-1 #
coedge $-1 $189 $275 $116 $187 reversed $276 $-1 #
edge $-1 $277 -27.389528733459809 $278 27.389528733459809 $186 $279 forward 7 unknown #
coedge $-1 $118 $117 $185 $274 reversed $46 $-1 #
coedge $-1 $269 $186 $117 $190 forward $276 $-1 #
edge $-1 $277 -5.6880478873698328 $194 5.6880478873698328 $189 $280 forward 7 unknown #
coedge $-1 $281 $282 $118 $192 reversed $181 $-1 #
edge $-1 $283 -5.6880478873698328 $195 5.6880478873698328 $191 $284 forward 7 unknown #
coedge $-1 $268 $119 $282 $285 forward $114 $-1 #
vertex $-1 $190 $286 #
vertex $-1 $285 $287 #
straight-curve $-1 0 -27.389528733459809 -5.6880478873698328 -1 0 0 I I #
face $-1 $288 $289 $28 $-1 $290 reversed single #
loop $-1 $-1 $127 $121 #
plane-surface $-1 -37.192921834440298 -29.690550416499377 0 1 0 0 0 0 -1 forward_v I I I I #
coedge $-1 $291 $292 $293 $294 forward $122 $-1 #
coedge $-1 $295 $124 $296 $297 forward $77 $-1 #
coedge $-1 $124 $295 $207 $298 forward $77 $-1 #
edge $-1 $209 -37.192921834440298 $299 -34.192921834440298 $124 $300 forward 7 unknown #
coedge $-1 $126 $125 $301 $302 forward $49 $-1 #
coedge $-1 $303 $304 $125 $206 forward $305 $-1 #
edge $-1 $306 34.192921834440298 $210 37.192921834440298 $205 $307 forward 7 unknown #
coedge $-1 $293 $127 $202 $298 reversed $198 $-1 #
coedge $-1 $127 $293 $303 $308 reversed $198 $-1 #
vertex $-1 $203 $309 #
vertex $-1 $308 $310 #
straight-curve $-1 -37.192921834440298 -27.389528733459809 0 0 0 1 I I #
face $-1 $-1 $224 $29 $-1 $311 forward single #
loop $-1 $-1 $312 $129 #
plane-surface $-1 -45.569017609179966 0 0 1 0 0 0 0 -1 forward_v I I I I #
coedge $-1 $313 $314 $315 $316 reversed $130 $-1 #
coedge $-1 $317 $132 $134 $222 forward $81 $-1 #
coedge $-1 $132 $317 $313 $318 forward $81 $-1 #
coedge $-1 $315 $135 $132 $219 forward $224 $-1 #
edge $-1 $226 -7.8374477509649019 $319 3.352331901156326 $218 $320 forward 7 unknown #
coedge $-1 $321 $322 $133 $221 forward $213 $-1 #
edge $-1 $323 -36.990561314931995 $225 -32.878245835796044 $220 $324 forward 7 unknown #
edge $-1 $226 -7.3540193378090963 $323 8.6223131303995443e-015 $134 $325 forward 7 unknown #
coedge $-1 $135 $315 $321 $326 forward $224 $-1 #
loop $-1 $-1 $315 $212 #
vertex $-1 $221 $327 #
vertex $-1 $136 $328 #
straight-curve $-1 -48.266380400956677 -10.08000567586919 5.6880478873698337 1 0 0 I I #
coedge $-1 $228 $228 $-1 $329 reversed $139 $-1 #
edge $-1 $330 0 $330 6.2831853071796004 $140 $331 forward 7 unknown #
vertex $-1 $143 $332 #
ellipse-curve $-1 -42.520638457034963 -7.842049745444946 3.6318901478018581 -0.55919291073839883 0 0.82903756765294845 0.41451878382647422 0 0.27959645536919941 1 I I #
coedge $-1 $232 $232 $-1 $333 reversed $146 $-1 #
edge $-1 $334 0 $334 6.2831853071796004 $147 $335 forward 7 unknown #
vertex $-1 $150 $336 #
ellipse-curve $-1 -42.520638457034963 -4.4851158498085759 3.6318901478018581 -0.55919291073839883 0 0.82903756765294845 0.41451878382647422 0 0.27959645536919941 1 I I #
coedge $-1 $236 $236 $-1 $337 reversed $153 $-1 #
edge $-1 $338 0 $338 6.2831853071796004 $154 $339 forward 7 unknown #
vertex $-1 $157 $340 #
ellipse-curve $-1 -42.520638457034963 -1.1281819541722093 3.6318901478018581 -0.55919291073839883 0 0.82903756765294845 0.41451878382647422 0 0.27959645536919941 1 I I #
face $-1 $-1 $252 $33 $-1 $341 reversed single #
loop $-1 $-1 $342 $158 #
plane-surface $-1 0 0 5.6880478873698328 0 0 1 1 0 0 forward_v I I I I #
coedge $-1 $343 $344 $245 $345 forward $159 $-1 #
coedge $-1 $346 $161 $163 $250 forward $100 $-1 #
coedge $-1 $161 $346 $243 $345 reversed $100 $-1 #
coedge $-1 $347 $164 $161 $247 forward $252 $-1 #
edge $-1 $254 5.6662999322516168 $348 16.370919178222664 $246 $349 forward 7 unknown #
coedge $-1 $350 $342 $162 $249 forward $241 $-1 #
edge $-1 $351 27.961789562850534 $253 36.183236370004714 $248 $352 forward 7 unknown #
edge $-1 $254 -91.138035218359917 $351 -81.335083777339662 $163 $353 forward 7 unknown #
coedge $-1 $164 $347 $350 $354 reversed $252 $-1 #
loop $-1 $-1 $246 $240 #
vertex $-1 $354 $355 #
vertex $-1 $165 $356 #
straight-curve $-1 45.569017609179966 16.68490948748876 63.21054867239657 0 0 -1 I I #
coedge $-1 $256 $256 $-1 $357 reversed $168 $-1 #
edge $-1 $358 0 $358 6.2831853071796004 $169 $359 forward 7 unknown #
vertex $-1 $172 $360 #
ellipse-curve $-1 41.458294205602868 19.743372129194771 3.0185128458253736 0.54463904215088732 0 0.83867056331134215 1.2580058449670133 0 -0.81695856322633098 1 I I #
coedge $-1 $260 $260 $-1 $361 reversed $175 $-1 #
edge $-1 $362 0 $362 6.2831853071796004 $176 $363 forward 7 unknown #
vertex $-1 $179 $364 #
ellipse-curve $-1 41.458294205602868 24.331066091753794 3.0185128458253736 0.54463904215088732 0 0.83867056331134215 1.2580058449670133 0 -0.81695856322633098 1 I I #
face $-1 $-1 $276 $27 $-1 $365 reversed single #
loop $-1 $-1 $366 $180 #
plane-surface $-1 0 27.389528733459809 0 0 -1 0 0 0 -1 forward_v I I I I #
coedge $-1 $282 $281 $367 $368 forward $181 $-1 #
coedge $-1 $183 $193 $369 $370 forward $114 $-1 #
coedge $-1 $275 $189 $183 $270 reversed $276 $-1 #
edge $-1 $371 -27.389528733459809 $194 27.389528733459809 $269 $372 forward 7 unknown #
coedge $-1 $185 $184 $281 $373 forward $73 $-1 #
coedge $-1 $366 $367 $184 $273 reversed $265 $-1 #
edge $-1 $278 -45.569017609179966 $374 45.569017609179966 $272 $375 forward 7 unknown #
edge $-1 $283 -45.569017609179966 $277 45.569017609179966 $188 $376 forward 7 unknown #
coedge $-1 $186 $269 $366 $377 reversed $276 $-1 #
loop $-1 $-1 $189 $264 #
vertex $-1 $187 $378 #
vertex $-1 $187 $379 #
straight-curve $-1 45.569017609179966 0 5.6880478873698328 0 1 0 I I #
straight-curve $-1 45.569017609179966 -27.389528733459809 0 0 0 -1 I I #
coedge $-1 $267 $191 $271 $373 reversed $181 $-1 #
coedge $-1 $191 $267 $193 $285 reversed $181 $-1 #
vertex $-1 $373 $380 #
straight-curve $-1 -45.569017609179966 -27.389528733459809 0 0 0 -1 I I #
edge $-1 $195 -27.389528733459809 $381 27.389528733459809 $282 $382 forward 7 unknown #
point $-1 45.569017609179966 -27.389528733459809 -5.6880478873698328 #
point $-1 -45.569017609179966 -27.389528733459809 -5.6880478873698328 #
face $-1 $-1 $305 $28 $-1 $383 forward single #
loop $-1 $-1 $384 $197 #
plane-surface $-1 -34.192921834440298 -29.690550416499377 0 -1 0 0 0 0 1 forward_v I I I I #
coedge $-1 $385 $200 $295 $386 reversed $122 $-1 #
coedge $-1 $200 $385 $387 $388 reversed $122 $-1 #
coedge $-1 $208 $207 $200 $294 reversed $198 $-1 #
edge $-1 $389 -5.6880478873698328 $390 5.6880478873698328 $293 $391 forward 7 unknown #
coedge $-1 $202 $201 $291 $386 forward $77 $-1 #
coedge $-1 $301 $384 $201 $297 reversed $289 $-1 #
edge $-1 $299 -2.3010216830395684 $392 2.3010216830395684 $296 $393 forward 7 unknown #
edge $-1 $390 -2.3010216830395684 $209 2.3010216830395684 $207 $394 forward 7 unknown #
vertex $-1 $297 $395 #
straight-curve $-1 0 -27.389528733459809 -5.6880478873698328 1 0 0 I I #
coedge $-1 $396 $296 $204 $302 reversed $289 $-1 #
edge $-1 $306 -5.6880478873698328 $299 5.6880478873698328 $301 $397 forward 7 unknown #
coedge $-1 $387 $205 $208 $308 forward $305 $-1 #
coedge $-1 $205 $387 $396 $398 forward $305 $-1 #
loop $-1 $-1 $205 $288 #
vertex $-1 $206 $399 #
straight-curve $-1 0 -27.389528733459809 5.6880478873698328 -1 0 0 I I #
edge $-1 $210 -2.3010216830395684 $389 2.3010216830395684 $208 $400 forward 7 unknown #
point $-1 -37.192921834440298 -27.389528733459809 -5.6880478873698328 #
point $-1 -37.192921834440298 -27.389528733459809 5.6880478873698328 #
plane-surface $-1 0 0 5.6880478873698328 0 0 1 1 0 0 forward_v I I I I #
coedge $-1 $322 $321 $314 $401 forward $213 $-1 #
coedge $-1 $314 $215 $217 $318 reversed $130 $-1 #
coedge $-1 $215 $313 $312 $401 reversed $130 $-1 #
coedge $-1 $223 $218 $215 $316 forward $224 $-1 #
edge $-1 $319 -8.7941210960667178 $402 -2.6973627917767118 $315 $403 forward 7 unknown #
coedge $-1 $217 $216 $322 $404 reversed $81 $-1 #
edge $-1 $405 -8.6223131303995443e-015 $319 7.3540193378090963 $313 $406 forward 7 unknown #
vertex $-1 $219 $407 #
straight-curve $-1 -39.47225930488996 -2.242557924904288 5.6880478873698328 0 1 0 I I #
coedge $-1 $312 $220 $223 $326 reversed $213 $-1 #
coedge $-1 $220 $312 $317 $404 forward $213 $-1 #
vertex $-1 $221 $408 #
straight-curve $-1 -45.569017609179966 -10.08000567586919 38.566293723165877 0 0 1 I I #
straight-curve $-1 -45.569017609179959 -10.08000567586919 1.5757324082338897 -0.82903756765294845 0 -0.55919291073839883 I I #
edge $-1 $402 -1.109773976252038 $225 10.08000567586919 $321 $409 forward 7 unknown #
point $-1 -45.569017609179966 -10.08000567586919 5.6880478873698328 #
point $-1 -39.47225930488996 -10.08000567586919 5.6880478873698328 #
edge $-1 $410 1 $410 0 $228 $-1 forward 7 unknown #
vertex $-1 $229 $411 #
ellipse-curve $-1 -41.89479532159217 -7.842049745444946 2.7040395603280962 -0.55919291073839883 0 0.82903756765294845 0.41451878382647422 0 0.27959645536919941 1 I I #
point $-1 -42.106119673208482 -7.842049745444946 3.9114866031710576 #
edge $-1 $412 1 $412 0 $232 $-1 forward 7 unknown #
vertex $-1 $233 $413 #
ellipse-curve $-1 -41.89479532159217 -4.4851158498085759 2.7040395603280962 -0.55919291073839883 0 0.82903756765294845 0.41451878382647422 0 0.27959645536919941 1 I I #
point $-1 -42.106119673208482 -4.4851158498085759 3.9114866031710576 #
edge $-1 $414 1 $414 0 $236 $-1 forward 7 unknown #
vertex $-1 $237 $415 #
ellipse-curve $-1 -41.89479532159217 -1.1281819541722093 2.7040395603280962 -0.55919291073839883 0 0.82903756765294845 0.41451878382647422 0 0.27959645536919941 1 I I #
point $-1 -42.106119673208482 -1.1281819541722093 3.9114866031710576 #
plane-surface $-1 45.569017609179966 0 0 -1 0 0 0 0 1 forward_v I I I I #
coedge $-1 $248 $416 $346 $417 forward $241 $-1 #
coedge $-1 $344 $243 $416 $418 reversed $159 $-1 #
coedge $-1 $243 $343 $347 $419 forward $159 $-1 #
edge $-1 $348 -64.582680974569925 $420 -54.779729533549684 $243 $421 forward 7 unknown #
coedge $-1 $245 $244 $342 $417 reversed $100 $-1 #
coedge $-1 $251 $246 $344 $419 reversed $252 $-1 #
vertex $-1 $247 $422 #
straight-curve $-1 45.569017609179966 11.018609555237143 0.34897780428090641 0 1 0 I I #
coedge $-1 $416 $248 $251 $354 forward $241 $-1 #
vertex $-1 $249 $423 #
straight-curve $-1 9.3857812391752518 16.68490948748876 5.6880478873698337 1 0 0 I I #
straight-curve $-1 -30.865769726490882 16.68490948748876 49.986310009122278 -0.83867056331134215 0 0.54463904215088732 I I #
edge $-1 $253 16.68490948748876 $424 27.389528733459809 $251 $425 forward 7 unknown #
point $-1 45.569017609179966 16.68490948748876 5.6880478873698328 #
point $-1 45.569017609179966 16.68490948748876 0.34897780428089931 #
edge $-1 $426 1 $426 0 $256 $-1 forward 7 unknown #
vertex $-1 $257 $427 #
ellipse-curve $-1 39.054141754166181 19.743372129194771 -0.6835572128505808 0.54463904215088732 0 0.83867056331134215 1.2580058449670133 0 -0.81695856322633098 1 I I #
point $-1 42.716300050569863 19.743372129194771 2.2015542825990178 #
edge $-1 $428 1 $428 0 $260 $-1 forward 7 unknown #
vertex $-1 $261 $429 #
ellipse-curve $-1 39.054141754166181 24.331066091753794 -0.6835572128505808 0.54463904215088732 0 0.83867056331134215 1.2580058449670133 0 -0.81695856322633098 1 I I #
point $-1 42.716300050569863 24.331066091753794 2.2015542825990178 #
plane-surface $-1 45.569017609179966 0 0 -1 0 0 0 0 1 forward_v I I I I #
coedge $-1 $369 $272 $275 $377 forward $265 $-1 #
coedge $-1 $272 $369 $267 $368 reversed $265 $-1 #
edge $-1 $374 -5.6880478873698328 $381 5.6880478873698328 $367 $430 forward 7 unknown #
coedge $-1 $367 $366 $268 $370 reversed $265 $-1 #
edge $-1 $381 -45.569017609179966 $371 45.569017609179966 $369 $431 forward 7 unknown #
vertex $-1 $270 $432 #
straight-curve $-1 45.569017609179966 0 -5.6880478873698328 0 -1 0 I I #
edge $-1 $374 -27.389528733459809 $283 27.389528733459809 $281 $433 forward 7 unknown #
vertex $-1 $273 $434 #
straight-curve $-1 0 27.389528733459809 5.6880478873698328 -1 0 0 I I #
straight-curve $-1 0 -27.389528733459809 5.6880478873698328 1 0 0 I I #
edge $-1 $278 -5.6880478873698328 $371 5.6880478873698328 $275 $435 forward 7 unknown #
point $-1 45.569017609179966 -27.389528733459809 5.6880478873698328 #
point $-1 45.569017609179966 27.389528733459809 5.6880478873698328 #
point $-1 -45.569017609179966 -27.389528733459809 5.6880478873698328 #
vertex $-1 $370 $436 #
straight-curve $-1 -45.569017609179966 0 -5.6880478873698328 0 1 0 I I #
plane-surface $-1 0 0 5.6880478873698328 0 0 1 1 0 0 forward_v I I I I #
coedge $-1 $296 $396 $385 $437 forward $289 $-1 #
coedge $-1 $292 $291 $384 $437 reversed $122 $-1 #
edge $-1 $392 -1.5 $390 1.5 $291 $438 forward 7 unknown #
coedge $-1 $304 $303 $292 $388 forward $305 $-1 #
edge $-1 $389 -1.5 $439 1.5 $292 $440 forward 7 unknown #
vertex $-1 $308 $441 #
vertex $-1 $298 $442 #
straight-curve $-1 -37.192921834440298 -31.991572099538946 0 0 0 -1 I I #
vertex $-1 $437 $443 #
straight-curve $-1 -34.192921834440298 -29.690550416499377 -5.6880478873698328 0 -1 0 I I #
straight-curve $-1 -37.192921834440298 -29.690550416499377 -5.6880478873698328 0 1 0 I I #
point $-1 -34.192921834440298 -27.389528733459809 -5.6880478873698328 #
coedge $-1 $384 $301 $304 $398 reversed $289 $-1 #
straight-curve $-1 -34.192921834440298 -27.389528733459809 0 0 0 -1 I I #
edge $-1 $439 -2.3010216830395684 $306 2.3010216830395684 $396 $444 forward 7 unknown #
point $-1 -34.192921834440298 -27.389528733459809 5.6880478873698328 #
straight-curve $-1 -37.192921834440298 -29.690550416499377 5.6880478873698328 0 -1 0 I I #
edge $-1 $402 32.878245835796044 $405 36.990561314931995 $312 $445 forward 7 unknown #
vertex $-1 $326 $446 #
straight-curve $-1 -48.266380400956677 1.109773976252038 5.6880478873698337 -1 0 0 I I #
edge $-1 $405 -3.352331901156326 $323 7.8374477509649019 $322 $447 forward 7 unknown #
vertex $-1 $404 $448 #
straight-curve $-1 -45.569017609179959 1.109773976252038 1.5757324082338897 0.82903756765294845 0 0.55919291073839883 I I #
point $-1 -39.47225930488996 1.109773976252038 5.6880478873698328 #
point $-1 -45.569017609179966 -10.08000567586919 1.5757324082338848 #
straight-curve $-1 -45.569017609179966 0 5.6880478873698328 0 -1 0 I I #
vertex $-1 $329 $449 #
point $-1 -41.480276537765697 -7.842049745444946 2.9836360156972956 #
vertex $-1 $333 $450 #
point $-1 -41.480276537765697 -4.4851158498085759 2.9836360156972956 #
vertex $-1 $337 $451 #
point $-1 -41.480276537765697 -1.1281819541722093 2.9836360156972956 #
coedge $-1 $342 $350 $343 $418 forward $241 $-1 #
edge $-1 $420 -16.370919178222671 $351 -5.6662999322516168 $342 $452 forward 7 unknown #
edge $-1 $424 -45.569017609179966 $420 -37.347570802025785 $343 $453 forward 7 unknown #
edge $-1 $424 -5.6880478873698328 $348 -0.34897780428090558 $347 $454 forward 7 unknown #
vertex $-1 $417 $455 #
straight-curve $-1 -8.5945758239193033 27.389528733459809 35.523227309807005 -0.83867056331134215 0 0.54463904215088732 I I #
point $-1 45.569017609179966 27.389528733459809 0.34897780428090558 #
point $-1 37.347570802025785 16.68490948748876 5.6880478873698266 #
vertex $-1 $354 $456 #
straight-curve $-1 45.569017609179966 0 5.6880478873698328 0 1 0 I I #
vertex $-1 $357 $457 #
point $-1 40.312147599133191 19.743372129194771 -1.5005157760769117 #
vertex $-1 $361 $458 #
point $-1 40.312147599133191 24.331066091753794 -1.5005157760769117 #
straight-curve $-1 -45.569017609179966 27.389528733459809 0 0 0 -1 I I #
straight-curve $-1 0 27.389528733459809 -5.6880478873698328 1 0 0 I I #
point $-1 45.569017609179966 27.389528733459809 -5.6880478873698328 #
straight-curve $-1 -45.569017609179966 0 5.6880478873698328 0 -1 0 I I #
point $-1 -45.569017609179966 27.389528733459809 5.6880478873698328 #
straight-curve $-1 45.569017609179966 27.389528733459809 0 0 0 -1 I I #
point $-1 -45.569017609179966 27.389528733459809 -5.6880478873698328 #
edge $-1 $439 -5.6880478873698328 $392 5.6880478873698328 $384 $459 forward 7 unknown #
straight-curve $-1 -35.692921834440298 -31.991572099538946 -5.6880478873698328 -1 0 0 I I #
vertex $-1 $398 $460 #
straight-curve $-1 -35.692921834440298 -31.991572099538946 5.6880478873698328 1 0 0 I I #
point $-1 -37.192921834440298 -31.991572099538946 5.6880478873698328 #
point $-1 -37.192921834440298 -31.991572099538946 -5.6880478873698328 #
point $-1 -34.192921834440298 -31.991572099538946 -5.6880478873698328 #
straight-curve $-1 -34.192921834440298 -29.690550416499377 5.6880478873698328 0 1 0 I I #
straight-curve $-1 -45.569017609179966 1.109773976252038 38.566293723165877 0 0 -1 I I #
point $-1 -45.569017609179966 1.109773976252038 5.6880478873698328 #
straight-curve $-1 -45.569017609179966 -2.242557924904288 1.5757324082338855 0 -1 0 I I #
point $-1 -45.569017609179966 1.109773976252038 1.5757324082338848 #
point $-1 -41.615198866222968 -7.842049745444946 2.2895207765016221 #
point $-1 -41.615198866222968 -4.4851158498085759 2.2895207765016221 #
point $-1 -41.615198866222968 -1.1281819541722093 2.2895207765016221 #
straight-curve $-1 37.347570802025771 11.018609555237143 5.6880478873698301 0 -1 0 I I #
straight-curve $-1 0 27.389528733459809 5.6880478873698328 -1 0 0 I I #
straight-curve $-1 45.569017609179966 27.389528733459809 0 0 0 -1 I I #
point $-1 37.347570802025785 27.389528733459812 5.6880478873698266 #
point $-1 45.569017609179966 27.389528733459809 5.6880478873698328 #
point $-1 38.237183190939845 19.743372129194771 -1.9415630578175942 #
point $-1 38.237183190939845 24.331066091753794 -1.9415630578175942 #
straight-curve $-1 -34.192921834440298 -31.991572099538946 0 0 0 -1 I I #
point $-1 -34.192921834440298 -31.991572099538946 5.6880478873698328 #
End-of-ACIS-data 