500 0 6 0           
7 Unknown 11 ACIS 5.0 NT 24 Thu Mar 25 16:10:33 1999 
-1 9.9999999999999995e-007 1e-010 
body $-1 $6 $-1 $7 #
body $-1 $8 $-1 $9 #
body $-1 $10 $-1 $11 #
body $-1 $12 $-1 $13 #
body $-1 $14 $-1 $15 #
body $-1 $16 $-1 $17 #
lump $-1 $-1 $18 $0 #
transform $-1 1 0 0 0 1 0 0 0 1 74.858241523483997 43.30592793038759 10.995717007820023 1 rotate no_reflect no_shear #
lump $-1 $-1 $19 $1 #
transform $-1 1 0 0 0 1 0 0 0 1 74.858241523483997 43.30592793038759 10.995717007820023 1 rotate no_reflect no_shear #
lump $-1 $-1 $20 $2 #
transform $-1 1 0 0 0 1 0 0 0 1 74.858241523483997 43.30592793038759 10.995717007820023 1 rotate no_reflect no_shear #
lump $-1 $-1 $21 $3 #
transform $-1 1 0 0 0 1 0 0 0 1 74.858241523483997 43.30592793038759 10.995717007820023 1 rotate no_reflect no_shear #
lump $-1 $-1 $22 $4 #
transform $-1 1 0 0 0 1 0 0 0 1 74.858241523483997 43.30592793038759 10.995717007820023 1 rotate no_reflect no_shear #
lump $-1 $-1 $23 $5 #
transform $-1 1 0 0 0 1 0 0 0 1 74.858241523483997 43.30592793038759 10.995717007820023 1 rotate no_reflect no_shear #
shell $-1 $-1 $-1 $24 $-1 $6 #
shell $-1 $-1 $-1 $25 $-1 $8 #
shell $-1 $-1 $-1 $26 $-1 $10 #
shell $-1 $-1 $-1 $27 $-1 $12 #
shell $-1 $-1 $-1 $28 $-1 $14 #
shell $-1 $-1 $-1 $29 $-1 $16 #
face $-1 $30 $31 $18 $-1 $32 forward single #
face $-1 $33 $34 $19 $-1 $35 forward single #
face $-1 $36 $37 $20 $-1 $38 forward single #
face $-1 $39 $40 $21 $-1 $41 reversed single #
face $-1 $42 $43 $22 $-1 $44 forward single #
face $-1 $45 $46 $23 $-1 $47 forward single #
face $-1 $48 $49 $18 $-1 $50 reversed single #
loop $-1 $-1 $51 $24 #
plane-surface $-1 0 0 10.995717007820023 0 0 1 1 0 0 forward_v I I I I #
face $-1 $52 $53 $19 $-1 $54 forward single #
loop $-1 $-1 $55 $25 #
plane-surface $-1 0 -43.30592793038759 0 0 1 0 0 0 1 forward_v I I I I #
face $-1 $56 $57 $20 $-1 $58 reversed single #
loop $-1 $-1 $59 $26 #
plane-surface $-1 0 43.30592793038759 0 0 -1 0 0 0 -1 forward_v I I I I #
face $-1 $60 $61 $21 $-1 $62 reversed single #
loop $-1 $-1 $63 $27 #
plane-surface $-1 89.627857773094405 -21.827903537581783 213.01933475932202 0 -1 0 -0.75470958851134928 0 -0.65605901945558964 forward_v I I I I #
face $-1 $64 $65 $22 $-1 $66 forward single #
loop $-1 $67 $68 $28 #
cone-surface $-1 70.421550405693807 -28.865976995852762 6.0160079957281312 -0.75470958851134928 0 -0.65605901945558964 0.65605901945558964 0 -0.75470958851134928 1 I I 0 1 1 forward I I I I #
face $-1 $69 $70 $23 $-1 $71 forward single #
loop $-1 $72 $73 $29 #
cone-surface $-1 70.421550405693807 -24.643132920890174 6.0160079957281312 -0.75470958851134928 0 -0.65605901945558964 0.65605901945558964 0 -0.75470958851134928 1 I I 0 1 1 forward I I I I #
face $-1 $74 $75 $18 $-1 $76 reversed single #
loop $-1 $-1 $77 $30 #
plane-surface $-1 0 0 -10.995717007820023 0 0 1 1 0 0 forward_v I I I I #
coedge $-1 $78 $79 $80 $81 forward $31 $-1 #
face $-1 $82 $83 $19 $-1 $84 reversed single #
loop $-1 $-1 $85 $33 #
plane-surface $-1 0 0 10.995717007820023 0 0 1 1 0 0 forward_v I I I I #
coedge $-1 $86 $87 $88 $89 forward $34 $-1 #
face $-1 $90 $91 $20 $-1 $92 reversed single #
loop $-1 $-1 $93 $36 #
plane-surface $-1 74.858241523483997 0 0 -1 0 0 0 0 1 forward_v I I I I #
coedge $-1 $94 $95 $96 $97 forward $37 $-1 #
face $-1 $98 $99 $21 $-1 $100 reversed single #
loop $-1 $-1 $101 $39 #
plane-surface $-1 -23.364607540649217 -26.754554958371468 114.79648569518879 0.75470958851134928 0 0.65605901945558964 0.65605901945558964 0 -0.75470958851134928 forward_v I I I I #
coedge $-1 $102 $103 $104 $105 reversed $40 $-1 #
face $-1 $-1 $106 $22 $-1 $107 forward single #
loop $-1 $108 $109 $42 #
cone-surface $-1 69.602614379377229 -28.865976995852762 5.3041177870958727 -0.75470958851134928 0 -0.65605901945558964 0.32802950972779482 0 -0.37735479425567464 1 I I -0.70710678118654746 0.70710678118654746 0.5 forward I I I I #
loop $-1 $-1 $110 $28 #
coedge $-1 $68 $68 $111 $112 reversed $43 $-1 #
face $-1 $-1 $113 $23 $-1 $114 forward single #
loop $-1 $115 $116 $45 #
cone-surface $-1 69.602614379377229 -24.643132920890174 5.3041177870958727 -0.75470958851134928 0 -0.65605901945558964 0.32802950972779482 0 -0.37735479425567464 1 I I -0.70710678118654746 0.70710678118654746 0.5 forward I I I I #
loop $-1 $-1 $117 $29 #
coedge $-1 $73 $73 $118 $119 reversed $46 $-1 #
face $-1 $120 $121 $18 $-1 $122 reversed single #
loop $-1 $-1 $123 $48 #
plane-surface $-1 0 -43.30592793038759 0 0 1 0 0 0 1 forward_v I I I I #
coedge $-1 $124 $125 $126 $127 forward $49 $-1 #
coedge $-1 $128 $51 $129 $130 forward $31 $-1 #
coedge $-1 $51 $128 $131 $132 forward $31 $-1 #
coedge $-1 $133 $134 $51 $81 reversed $135 $-1 #
edge $-1 $136 -43.30592793038759 $137 43.30592793038759 $80 $138 forward 7 unknown #
face $-1 $139 $140 $19 $-1 $141 reversed single #
loop $-1 $-1 $142 $52 #
plane-surface $-1 -74.858241523483997 0 0 1 0 0 0 0 -1 forward_v I I I I #
coedge $-1 $143 $144 $145 $146 forward $53 $-1 #
coedge $-1 $145 $55 $142 $147 reversed $34 $-1 #
coedge $-1 $55 $145 $148 $149 reversed $34 $-1 #
coedge $-1 $150 $151 $55 $89 reversed $140 $-1 #
edge $-1 $152 -74.858241523483997 $153 74.858241523483997 $88 $154 forward 7 unknown #
face $-1 $155 $156 $20 $-1 $157 reversed single #
loop $-1 $-1 $158 $56 #
plane-surface $-1 0 49.118288706000804 5.4961470821521505 0 0 1 1 0 0 forward_v I I I I #
coedge $-1 $159 $160 $94 $161 forward $57 $-1 #
coedge $-1 $162 $59 $93 $161 reversed $37 $-1 #
coedge $-1 $59 $162 $163 $164 reversed $37 $-1 #
coedge $-1 $165 $158 $59 $97 reversed $91 $-1 #
edge $-1 $166 -74.858241523483997 $167 74.858241523483997 $96 $168 forward 7 unknown #
face $-1 $169 $170 $21 $-1 $171 forward single #
loop $-1 $-1 $172 $60 #
plane-surface $-1 89.627857773094405 -31.681206379161154 213.01933475932202 0 1 0 0.75470958851134928 0 0.65605901945558964 forward_v I I I I #
coedge $-1 $173 $174 $175 $176 reversed $61 $-1 #
coedge $-1 $103 $63 $177 $178 reversed $40 $-1 #
coedge $-1 $63 $102 $173 $179 reversed $40 $-1 #
coedge $-1 $175 $180 $63 $105 forward $170 $-1 #
edge $-1 $181 -30.044312636936795 $182 -22.054092865478253 $104 $183 forward 7 unknown #
loop $-1 $-1 $111 $64 #
plane-surface $-1 -23.364607540649217 -26.754554958371468 114.79648569518879 0.75470958851134928 0 0.65605901945558964 0.65605901945558964 0 -0.75470958851134928 forward_v I I I I #
loop $-1 $-1 $184 $42 #
coedge $-1 $109 $109 $110 $185 reversed $65 $-1 #
coedge $-1 $110 $110 $109 $185 forward $67 $-1 #
coedge $-1 $111 $111 $68 $112 forward $106 $-1 #
edge $-1 $186 0 $186 6.2831853071796004 $111 $187 forward 7 unknown #
loop $-1 $-1 $118 $69 #
plane-surface $-1 -23.364607540649217 -26.754554958371468 114.79648569518879 0.75470958851134928 0 0.65605901945558964 0.65605901945558964 0 -0.75470958851134928 forward_v I I I I #
loop $-1 $-1 $188 $45 #
coedge $-1 $116 $116 $117 $189 reversed $70 $-1 #
coedge $-1 $117 $117 $116 $189 forward $72 $-1 #
coedge $-1 $118 $118 $73 $119 forward $113 $-1 #
edge $-1 $190 0 $190 6.2831853071796004 $118 $191 forward 7 unknown #
face $-1 $192 $193 $18 $-1 $194 reversed single #
loop $-1 $-1 $195 $74 #
plane-surface $-1 -74.858241523483997 0 0 1 0 0 0 0 -1 forward_v I I I I #
coedge $-1 $196 $131 $197 $198 forward $75 $-1 #
coedge $-1 $199 $77 $196 $200 forward $49 $-1 #
coedge $-1 $77 $199 $201 $202 forward $49 $-1 #
coedge $-1 $134 $133 $77 $127 reversed $135 $-1 #
edge $-1 $203 -43.30592793038759 $204 43.30592793038759 $126 $205 forward 7 unknown #
coedge $-1 $79 $78 $206 $207 forward $31 $-1 #
coedge $-1 $208 $209 $78 $130 reversed $193 $-1 #
edge $-1 $137 -74.858241523483997 $210 74.858241523483997 $129 $211 forward 7 unknown #
coedge $-1 $123 $212 $79 $132 reversed $75 $-1 #
edge $-1 $213 -74.858241523483997 $136 74.858241523483997 $131 $214 forward 7 unknown #
coedge $-1 $126 $80 $212 $215 forward $135 $-1 #
coedge $-1 $80 $126 $208 $216 reversed $135 $-1 #
loop $-1 $-1 $133 $192 #
vertex $-1 $81 $217 #
vertex $-1 $81 $218 #
straight-curve $-1 74.858241523483997 0 10.995717007820023 0 1 0 I I #
face $-1 $219 $220 $19 $-1 $221 reversed single #
loop $-1 $-1 $150 $82 #
plane-surface $-1 0 -49.118288706000811 5.4961470821521505 0 0 1 1 0 0 forward_v I I I I #
coedge $-1 $222 $223 $86 $147 forward $83 $-1 #
coedge $-1 $224 $85 $223 $225 forward $53 $-1 #
coedge $-1 $85 $224 $226 $227 forward $53 $-1 #
coedge $-1 $87 $86 $85 $146 reversed $34 $-1 #
edge $-1 $228 -74.858241523483997 $229 74.858241523483997 $85 $230 forward 7 unknown #
edge $-1 $229 -10.995717007820023 $153 -5.4961470821521505 $142 $231 forward 7 unknown #
coedge $-1 $226 $232 $87 $149 forward $233 $-1 #
edge $-1 $152 5.4961470821521505 $228 10.995717007820023 $148 $234 forward 7 unknown #
coedge $-1 $235 $88 $232 $236 forward $140 $-1 #
coedge $-1 $88 $235 $222 $237 forward $140 $-1 #
vertex $-1 $149 $238 #
vertex $-1 $147 $239 #
straight-curve $-1 0 -43.30592793038759 5.4961470821521505 -1 0 0 I I #
face $-1 $240 $241 $20 $-1 $242 forward single #
loop $-1 $-1 $243 $90 #
plane-surface $-1 0 54.930649481614026 8.2459320449860876 0 -1 0 0 0 -1 forward_v I I I I #
coedge $-1 $96 $244 $159 $245 forward $91 $-1 #
coedge $-1 $246 $93 $158 $245 reversed $57 $-1 #
coedge $-1 $93 $246 $247 $248 reversed $57 $-1 #
edge $-1 $249 -10.995717007820023 $167 -5.4961470821521505 $93 $250 forward 7 unknown #
coedge $-1 $95 $94 $251 $252 reversed $37 $-1 #
coedge $-1 $253 $254 $95 $164 forward $255 $-1 #
edge $-1 $166 5.4961470821521505 $256 10.995717007820023 $163 $257 forward 7 unknown #
coedge $-1 $244 $96 $254 $258 forward $91 $-1 #
vertex $-1 $164 $259 #
vertex $-1 $161 $260 #
straight-curve $-1 0 43.30592793038759 5.4961470821521505 1 0 0 I I #
face $-1 $-1 $261 $21 $-1 $262 reversed single #
loop $-1 $-1 $104 $98 #
plane-surface $-1 0 0 10.995717007820023 0 0 1 1 0 0 forward_v I I I I #
coedge $-1 $263 $264 $265 $266 reversed $99 $-1 #
coedge $-1 $267 $101 $103 $179 forward $61 $-1 #
coedge $-1 $101 $267 $263 $268 forward $61 $-1 #
coedge $-1 $265 $104 $101 $176 forward $170 $-1 #
edge $-1 $182 8.4506260583960486 $269 18.303928899975418 $175 $270 forward 7 unknown #
coedge $-1 $271 $272 $102 $178 forward $261 $-1 #
edge $-1 $273 -104.70564699821581 $181 -95.513950371840991 $177 $274 forward 7 unknown #
edge $-1 $182 137.53736571985775 $273 149.71648304696799 $103 $275 forward 7 unknown #
coedge $-1 $104 $265 $271 $276 forward $170 $-1 #
vertex $-1 $178 $277 #
vertex $-1 $105 $278 #
straight-curve $-1 44.813928886547203 -21.827903537581783 10.995717007820019 -1 0 0 I I #
coedge $-1 $184 $184 $-1 $279 reversed $108 $-1 #
edge $-1 $280 0 $280 6.2831853071796004 $109 $281 forward 7 unknown #
vertex $-1 $112 $282 #
ellipse-curve $-1 70.863131637754734 -28.865976995852762 6.3998686946326124 0.75470958851134928 0 0.65605901945558964 0.65605901945558964 0 -0.75470958851134928 1 I I #
coedge $-1 $188 $188 $-1 $283 reversed $115 $-1 #
edge $-1 $284 0 $284 6.2831853071796004 $116 $285 forward 7 unknown #
vertex $-1 $119 $286 #
ellipse-curve $-1 70.863131637754734 -24.643132920890174 6.3998686946326124 0.75470958851134928 0 0.65605901945558964 0.65605901945558964 0 -0.75470958851134928 1 I I #
face $-1 $-1 $135 $18 $-1 $287 reversed single #
loop $-1 $-1 $208 $120 #
plane-surface $-1 0 43.30592793038759 0 0 -1 0 0 0 -1 forward_v I I I I #
coedge $-1 $288 $206 $209 $289 forward $121 $-1 #
coedge $-1 $212 $123 $124 $200 reversed $75 $-1 #
coedge $-1 $206 $288 $123 $198 reversed $121 $-1 #
edge $-1 $213 -10.995717007820023 $290 10.995717007820023 $197 $291 forward 7 unknown #
coedge $-1 $125 $124 $288 $292 forward $49 $-1 #
edge $-1 $204 -74.858241523483997 $290 74.858241523483997 $196 $293 forward 7 unknown #
coedge $-1 $209 $208 $125 $202 reversed $193 $-1 #
edge $-1 $294 -74.858241523483997 $203 74.858241523483997 $201 $295 forward 7 unknown #
vertex $-1 $127 $296 #
vertex $-1 $215 $297 #
straight-curve $-1 74.858241523483997 0 -10.995717007820023 0 -1 0 I I #
coedge $-1 $195 $197 $128 $207 reversed $121 $-1 #
edge $-1 $210 -43.30592793038759 $213 43.30592793038759 $206 $298 forward 7 unknown #
coedge $-1 $201 $129 $134 $216 forward $193 $-1 #
coedge $-1 $129 $201 $195 $289 reversed $193 $-1 #
vertex $-1 $130 $299 #
straight-curve $-1 0 43.30592793038759 10.995717007820023 -1 0 0 I I #
coedge $-1 $131 $196 $133 $215 reversed $75 $-1 #
vertex $-1 $207 $300 #
straight-curve $-1 0 -43.30592793038759 10.995717007820023 1 0 0 I I #
edge $-1 $136 -10.995717007820023 $204 10.995717007820023 $133 $301 forward 7 unknown #
edge $-1 $137 -10.995717007820023 $203 10.995717007820023 $134 $302 forward 7 unknown #
point $-1 74.858241523483997 -43.30592793038759 10.995717007820023 #
point $-1 74.858241523483997 43.30592793038759 10.995717007820023 #
face $-1 $-1 $233 $19 $-1 $303 reversed single #
loop $-1 $-1 $304 $139 #
plane-surface $-1 0 -54.930649481614033 8.2459320449860876 0 1 0 0 0 1 forward_v I I I I #
coedge $-1 $305 $142 $151 $237 reversed $83 $-1 #
coedge $-1 $142 $305 $143 $225 reversed $83 $-1 #
coedge $-1 $144 $143 $306 $307 forward $53 $-1 #
edge $-1 $229 43.30592793038759 $308 54.930649481614033 $223 $309 forward 7 unknown #
coedge $-1 $310 $148 $144 $227 reversed $233 $-1 #
edge $-1 $311 -54.930649481614033 $228 -43.30592793038759 $226 $312 forward 7 unknown #
vertex $-1 $149 $313 #
vertex $-1 $225 $314 #
straight-curve $-1 0 -43.30592793038759 10.995717007820023 -1 0 0 I I #
straight-curve $-1 -74.858241523483997 -43.30592793038759 0 0 0 -1 I I #
coedge $-1 $148 $310 $150 $236 reversed $233 $-1 #
loop $-1 $-1 $148 $219 #
straight-curve $-1 74.858241523483997 -43.30592793038759 0 0 0 1 I I #
coedge $-1 $151 $150 $315 $316 forward $140 $-1 #
edge $-1 $152 -5.8123607756132216 $317 5.8123607756132216 $232 $318 forward 7 unknown #
edge $-1 $319 -5.8123607756132216 $153 5.8123607756132216 $222 $320 forward 7 unknown #
point $-1 74.858241523483997 -43.30592793038759 5.4961470821521505 #
point $-1 -74.858241523483997 -43.30592793038759 5.4961470821521505 #
face $-1 $-1 $255 $20 $-1 $321 reversed single #
loop $-1 $-1 $251 $155 #
plane-surface $-1 0 0 10.995717007820023 0 0 1 1 0 0 forward_v I I I I #
coedge $-1 $322 $323 $246 $324 forward $156 $-1 #
coedge $-1 $158 $165 $322 $325 forward $91 $-1 #
edge $-1 $326 -5.8123607756132216 $167 5.8123607756132216 $159 $327 forward 7 unknown #
coedge $-1 $160 $159 $243 $324 reversed $57 $-1 #
coedge $-1 $328 $251 $160 $248 forward $241 $-1 #
edge $-1 $249 43.30592793038759 $329 54.930649481614026 $160 $330 forward 7 unknown #
vertex $-1 $248 $331 #
straight-curve $-1 74.858241523483997 43.30592793038759 0 0 0 -1 I I #
coedge $-1 $247 $332 $162 $252 forward $241 $-1 #
edge $-1 $256 -74.858241523483997 $249 74.858241523483997 $251 $333 forward 7 unknown #
coedge $-1 $334 $163 $332 $335 reversed $255 $-1 #
coedge $-1 $163 $334 $165 $258 reversed $255 $-1 #
loop $-1 $-1 $163 $240 #
vertex $-1 $164 $336 #
straight-curve $-1 -74.858241523483997 43.30592793038759 0 0 0 1 I I #
edge $-1 $166 -5.8123607756132216 $337 5.8123607756132216 $254 $338 forward 7 unknown #
point $-1 -74.858241523483997 43.305927930387583 5.4961470821521505 #
point $-1 74.858241523483997 43.305927930387583 5.4961470821521505 #
loop $-1 $-1 $177 $169 #
plane-surface $-1 74.858241523483997 0 0 -1 0 0 0 0 1 forward_v I I I I #
coedge $-1 $264 $172 $174 $268 reversed $99 $-1 #
coedge $-1 $172 $263 $339 $340 reversed $99 $-1 #
coedge $-1 $180 $175 $172 $266 forward $170 $-1 #
edge $-1 $269 22.054092865478253 $341 30.044312636936795 $265 $342 forward 7 unknown #
coedge $-1 $174 $173 $272 $343 reversed $61 $-1 #
edge $-1 $344 -149.71648304696799 $269 -137.53736571985775 $263 $345 forward 7 unknown #
vertex $-1 $176 $346 #
straight-curve $-1 66.86802175202547 -13.377277479185734 10.995717007820019 0 -1 0 I I #
coedge $-1 $339 $177 $180 $276 reversed $261 $-1 #
coedge $-1 $177 $339 $267 $343 forward $261 $-1 #
vertex $-1 $178 $347 #
straight-curve $-1 74.858241523483997 -21.827903537581783 106.50966737966101 0 0 1 I I #
straight-curve $-1 -23.364607540649217 -21.827903537581783 114.79648569518879 0.65605901945558964 0 -0.75470958851134928 I I #
edge $-1 $341 -31.681206379161154 $181 -21.827903537581783 $271 $348 forward 7 unknown #
point $-1 74.858241523483997 -21.827903537581783 10.995717007820023 #
point $-1 66.868021752025456 -21.827903537581783 10.995717007820019 #
edge $-1 $349 1 $349 0 $184 $-1 forward 7 unknown #
vertex $-1 $185 $350 #
ellipse-curve $-1 69.979969173632909 -28.865976995852762 5.6321472968236677 0.75470958851134928 0 0.65605901945558964 0.65605901945558964 0 -0.75470958851134928 1 I I #
point $-1 71.519190657210302 -28.865976995852762 5.6451591061212456 #
edge $-1 $351 1 $351 0 $188 $-1 forward 7 unknown #
vertex $-1 $189 $352 #
ellipse-curve $-1 69.979969173632909 -24.643132920890174 5.6321472968236677 0.75470958851134928 0 0.65605901945558964 0.65605901945558964 0 -0.75470958851134928 1 I I #
point $-1 71.519190657210302 -24.643132920890174 5.6451591061212456 #
plane-surface $-1 74.858241523483997 0 0 -1 0 0 0 0 1 forward_v I I I I #
coedge $-1 $197 $195 $199 $292 reversed $121 $-1 #
edge $-1 $210 -10.995717007820023 $294 10.995717007820023 $209 $353 forward 7 unknown #
vertex $-1 $292 $354 #
straight-curve $-1 -74.858241523483997 -43.30592793038759 0 0 0 -1 I I #
edge $-1 $290 -43.30592793038759 $294 43.30592793038759 $288 $355 forward 7 unknown #
straight-curve $-1 0 -43.30592793038759 -10.995717007820023 -1 0 0 I I #
vertex $-1 $202 $356 #
straight-curve $-1 0 43.30592793038759 -10.995717007820023 1 0 0 I I #
point $-1 74.858241523483997 43.30592793038759 -10.995717007820023 #
point $-1 74.858241523483997 -43.30592793038759 -10.995717007820023 #
straight-curve $-1 -74.858241523483997 0 10.995717007820023 0 -1 0 I I #
point $-1 -74.858241523483997 43.30592793038759 10.995717007820023 #
point $-1 -74.858241523483997 -43.30592793038759 10.995717007820023 #
straight-curve $-1 74.858241523483997 -43.30592793038759 0 0 0 -1 I I #
straight-curve $-1 74.858241523483997 43.30592793038759 0 0 0 -1 I I #
plane-surface $-1 74.858241523483997 0 0 -1 0 0 0 0 1 forward_v I I I I #
coedge $-1 $315 $306 $305 $357 forward $220 $-1 #
coedge $-1 $223 $222 $304 $357 reversed $83 $-1 #
coedge $-1 $304 $358 $224 $307 reversed $220 $-1 #
edge $-1 $308 -74.858241523483997 $311 74.858241523483997 $306 $359 forward 7 unknown #
vertex $-1 $225 $360 #
straight-curve $-1 -74.858241523483997 0 10.995717007820023 0 -1 0 I I #
coedge $-1 $232 $226 $358 $361 forward $233 $-1 #
vertex $-1 $227 $362 #
straight-curve $-1 74.858241523483997 0 10.995717007820023 0 1 0 I I #
point $-1 74.858241523483997 -43.30592793038759 10.995717007820023 #
point $-1 -74.858241523483997 -43.30592793038759 10.995717007820023 #
coedge $-1 $358 $304 $235 $316 reversed $220 $-1 #
edge $-1 $317 -74.858241523483997 $319 74.858241523483997 $315 $363 forward 7 unknown #
vertex $-1 $361 $364 #
straight-curve $-1 74.858241523483997 -49.118288706000811 5.4961470821521505 0 -1 0 I I #
vertex $-1 $237 $365 #
straight-curve $-1 -74.858241523483997 -49.118288706000811 5.4961470821521505 0 1 0 I I #
plane-surface $-1 -74.858241523483997 0 0 1 0 0 0 0 -1 forward_v I I I I #
coedge $-1 $366 $243 $244 $325 reversed $156 $-1 #
coedge $-1 $243 $366 $328 $367 reversed $156 $-1 #
edge $-1 $329 -2.749784962833937 $326 2.749784962833937 $246 $368 forward 7 unknown #
edge $-1 $337 -74.858241523483997 $326 74.858241523483997 $322 $369 forward 7 unknown #
vertex $-1 $245 $370 #
straight-curve $-1 74.858241523483997 49.118288706000804 5.4961470821521505 0 -1 0 I I #
coedge $-1 $332 $247 $323 $367 forward $241 $-1 #
vertex $-1 $248 $371 #
straight-curve $-1 74.858241523483997 0 10.995717007820023 0 1 0 I I #
point $-1 74.858241523483997 43.30592793038759 10.995717007820023 #
coedge $-1 $251 $328 $253 $335 forward $241 $-1 #
straight-curve $-1 0 43.30592793038759 10.995717007820023 1 0 0 I I #
coedge $-1 $254 $253 $366 $372 forward $255 $-1 #
edge $-1 $373 -54.930649481614026 $256 -43.30592793038759 $253 $374 forward 7 unknown #
point $-1 -74.858241523483997 43.30592793038759 10.995717007820023 #
vertex $-1 $325 $375 #
straight-curve $-1 -74.858241523483997 49.118288706000804 5.4961470821521505 0 1 0 I I #
coedge $-1 $272 $271 $264 $340 forward $261 $-1 #
edge $-1 $341 95.513950371840991 $344 104.70564699821581 $339 $376 forward 7 unknown #
vertex $-1 $276 $377 #
straight-curve $-1 44.813928886547203 -31.681206379161154 10.995717007820019 1 0 0 I I #
edge $-1 $344 -18.303928899975418 $273 -8.4506260583960486 $272 $378 forward 7 unknown #
vertex $-1 $343 $379 #
straight-curve $-1 -23.364607540649217 -31.681206379161154 114.79648569518879 -0.65605901945558964 0 0.75470958851134928 I I #
point $-1 66.868021752025456 -31.681206379161154 10.995717007820019 #
point $-1 74.858241523483997 -21.827903537581783 1.8040203814451985 #
straight-curve $-1 74.858241523483997 0 10.995717007820023 0 1 0 I I #
vertex $-1 $279 $380 #
point $-1 70.636028193088492 -28.865976995852762 4.8774377083123186 #
vertex $-1 $283 $381 #
point $-1 70.636028193088492 -24.643132920890174 4.8774377083123186 #
straight-curve $-1 -74.858241523483997 43.30592793038759 0 0 0 -1 I I #
point $-1 -74.858241523483997 -43.30592793038759 -10.995717007820023 #
straight-curve $-1 -74.858241523483997 0 -10.995717007820023 0 1 0 I I #
point $-1 -74.858241523483997 43.30592793038759 -10.995717007820023 #
edge $-1 $308 -2.749784962833937 $319 2.749784962833937 $305 $382 forward 7 unknown #
coedge $-1 $306 $315 $310 $361 reversed $220 $-1 #
straight-curve $-1 0 -54.930649481614033 10.995717007820025 1 0 0 I I #
point $-1 -74.858241523483997 -54.930649481614033 10.995717007820025 #
edge $-1 $311 -2.749784962833937 $317 2.749784962833937 $310 $383 forward 7 unknown #
point $-1 74.858241523483997 -54.930649481614033 10.995717007820025 #
straight-curve $-1 0 -54.930649481614033 5.4961470821521505 -1 0 0 I I #
point $-1 74.858241523483997 -54.930649481614033 5.4961470821521505 #
point $-1 -74.858241523483997 -54.930649481614033 5.4961470821521505 #
coedge $-1 $323 $322 $334 $372 reversed $156 $-1 #
edge $-1 $329 -74.858241523483997 $373 74.858241523483997 $323 $384 forward 7 unknown #
straight-curve $-1 74.858241523483997 54.930649481614026 8.2459320449860876 0 0 -1 I I #
straight-curve $-1 0 54.930649481614026 5.4961470821521505 1 0 0 I I #
point $-1 74.858241523483997 54.930649481614026 5.4961470821521505 #
point $-1 74.858241523483997 54.930649481614026 10.995717007820025 #
edge $-1 $373 -2.749784962833937 $337 2.749784962833937 $366 $385 forward 7 unknown #
vertex $-1 $367 $386 #
straight-curve $-1 -74.858241523483997 0 10.995717007820023 0 -1 0 I I #
point $-1 -74.858241523483997 54.930649481614026 5.4961470821521505 #
straight-curve $-1 74.858241523483997 -31.681206379161154 106.50966737966101 0 0 -1 I I #
point $-1 74.858241523483997 -31.681206379161154 10.995717007820023 #
straight-curve $-1 74.858241523483997 -13.377277479185734 1.8040203814451985 0 1 0 I I #
point $-1 74.858241523483997 -31.681206379161154 1.8040203814451985 #
point $-1 69.225259585121549 -28.865976995852762 4.9760882773680777 #
point $-1 69.225259585121549 -24.643132920890174 4.9760882773680777 #
straight-curve $-1 -74.858241523483997 -54.930649481614033 8.2459320449860876 0 0 -1 I I #
straight-curve $-1 74.858241523483997 -54.930649481614033 8.2459320449860876 0 0 -1 I I #
straight-curve $-1 0 54.930649481614026 10.995717007820025 -1 0 0 I I #
straight-curve $-1 -74.858241523483997 54.930649481614026 8.2459320449860876 0 0 -1 I I #
point $-1 -74.858241523483997 54.930649481614026 10.995717007820025 #
End-of-ACIS-data 