600 0 7 0           
107 GICL ACIS Healer - Source: /gicl/data5/repository/Drexel/CICIRELLO-THESISDATA/Part10004.smdg.feat.sat - 6 0 18 ACIS 6.0.3 Solaris 24 Fri Apr 12 10:16:38 2002 
1 9.999999999999999547e-07 1.000000000000000036e-10 
body $-1 $7 $-1 $-1 #
body $-1 $8 $-1 $-1 #
body $-1 $9 $-1 $-1 #
body $-1 $10 $-1 $-1 #
body $-1 $11 $-1 $-1 #
body $-1 $12 $-1 $-1 #
body $-1 $13 $-1 $-1 #
lump $-1 $-1 $14 $0 #
lump $-1 $-1 $15 $1 #
lump $-1 $-1 $16 $2 #
lump $-1 $-1 $17 $3 #
lump $-1 $-1 $18 $4 #
lump $-1 $-1 $19 $5 #
lump $-1 $-1 $20 $6 #
shell $-1 $-1 $-1 $21 $-1 $7 #
shell $-1 $-1 $-1 $22 $-1 $8 #
shell $-1 $-1 $-1 $23 $-1 $9 #
shell $-1 $-1 $-1 $24 $-1 $10 #
shell $-1 $-1 $-1 $25 $-1 $11 #
shell $-1 $-1 $-1 $26 $-1 $12 #
shell $-1 $-1 $-1 $27 $-1 $13 #
face $-1 $28 $29 $14 $-1 $30 forward single #
face $-1 $31 $32 $15 $-1 $33 forward single #
face $-1 $34 $35 $16 $-1 $36 forward single #
face $-1 $37 $38 $17 $-1 $39 forward single #
face $-1 $40 $41 $18 $-1 $42 forward single #
face $-1 $43 $44 $19 $-1 $45 forward single #
face $-1 $46 $47 $20 $-1 $48 forward single #
face $-1 $49 $50 $14 $-1 $51 reversed single #
loop $-1 $-1 $52 $21 #
plane-surface $-1 76.69789727469711238 53.25105023344704591 46.43032640063423599 0 0 1 1 0 0 forward_v I I I I #
face $-1 $53 $54 $15 $-1 $55 reversed single #
loop $-1 $-1 $56 $22 #
plane-surface $-1 3.408343321261194436 9.727349633266211271 46.43032640063423599 0 0 1 1 0 0 forward_v I I I I #
face $-1 $57 $58 $16 $-1 $59 reversed single #
loop $-1 $-1 $60 $23 #
plane-surface $-1 3.408343321261194436 96.774750833627877 46.43032640063423599 0 0 1 1 0 0 forward_v I I I I #
face $-1 $61 $62 $17 $-1 $63 reversed single #
loop $-1 $-1 $64 $24 #
plane-surface $-1 300.7109888473405022 78.29265384350054546 352.2221165937936007 0.7880107618611372766 0 0.6156614647604883306 0.6156614647604883306 0 -0.7880107618611372766 forward_v I I I I #
face $-1 $65 $66 $18 $-1 $67 forward single #
loop $-1 $68 $69 $25 #
cone-surface $-1 151.2691876098789123 73.03980542938387543 43.99637273935896076 -0.7880107618611372766 0 -0.6156614647604883306 0.6156614647604883306 0 -0.7880107618611372766 1 I I 0 1 1 forward I I I I #
face $-1 $70 $71 $19 $-1 $72 forward single #
loop $-1 $73 $74 $26 #
cone-surface $-1 151.2691876098789123 78.29265384350054546 43.99637273935896076 -0.7880107618611372766 0 -0.6156614647604883306 0.6156614647604883306 0 -0.7880107618611372766 1 I I 0 1 1 forward I I I I #
face $-1 $75 $76 $20 $-1 $77 forward single #
loop $-1 $78 $79 $27 #
cone-surface $-1 151.2691876098789123 83.54550225761721549 43.99637273935896076 -0.7880107618611372766 0 -0.6156614647604883306 0.6156614647604883306 0 -0.7880107618611372766 1 I I 0 1 1 forward I I I I #
face $-1 $80 $81 $14 $-1 $82 reversed single #
loop $-1 $-1 $83 $28 #
plane-surface $-1 76.69789727469711238 53.25105023344704591 0 0 0 1 1 0 0 forward_v I I I I #
coedge $-1 $84 $85 $86 $87 forward $29 $-1 #
face $-1 $88 $89 $15 $-1 $90 reversed single #
loop $-1 $-1 $91 $31 #
plane-surface $-1 3.408343321261194436 9.727349633266211271 0 0 0 1 1 0 0 forward_v I I I I #
coedge $-1 $92 $93 $94 $95 forward $32 $-1 #
face $-1 $96 $97 $16 $-1 $98 reversed single #
loop $-1 $-1 $99 $34 #
plane-surface $-1 3.408343321261194436 96.774750833627877 0 0 0 1 1 0 0 forward_v I I I I #
coedge $-1 $100 $101 $102 $103 forward $35 $-1 #
face $-1 $104 $105 $17 $-1 $106 reversed single #
loop $-1 $-1 $107 $37 #
plane-surface $-1 58.95591498901524119 78.29265384350054546 163.3423574730356336 0.7880107618611372766 0 0.6156614647604883306 0.6156614647604883306 0 -0.7880107618611372766 forward_v I I I I #
coedge $-1 $108 $109 $110 $111 forward $38 $-1 #
face $-1 $-1 $112 $18 $-1 $113 forward single #
loop $-1 $-1 $114 $40 #
plane-surface $-1 151.8466982283466677 73.03980542938387543 44.44757347225359467 0.7880107618611372766 0 0.6156614647604883306 -0.6156614647604883306 0 0.7880107618611372766 forward_v I I I I #
loop $-1 $-1 $115 $25 #
coedge $-1 $69 $69 $114 $116 reversed $41 $-1 #
face $-1 $-1 $117 $19 $-1 $118 forward single #
loop $-1 $-1 $119 $43 #
plane-surface $-1 151.8466982283466677 78.29265384350054546 44.44757347225359467 0.7880107618611372766 0 0.6156614647604883306 -0.6156614647604883306 0 0.7880107618611372766 forward_v I I I I #
loop $-1 $-1 $120 $26 #
coedge $-1 $74 $74 $119 $121 reversed $44 $-1 #
face $-1 $-1 $122 $20 $-1 $123 forward single #
loop $-1 $-1 $124 $46 #
plane-surface $-1 151.8466982283466677 83.54550225761721549 44.44757347225359467 0.7880107618611372766 0 0.6156614647604883306 -0.6156614647604883306 0 0.7880107618611372766 forward_v I I I I #
loop $-1 $-1 $125 $27 #
coedge $-1 $79 $79 $124 $126 reversed $47 $-1 #
face $-1 $127 $128 $14 $-1 $129 reversed single #
loop $-1 $-1 $130 $49 #
plane-surface $-1 76.69789727469711238 0 23.215163200317118 0 1 0 0 0 1 forward_v I I I I #
coedge $-1 $131 $132 $133 $134 forward $50 $-1 #
coedge $-1 $135 $52 $136 $137 forward $29 $-1 #
coedge $-1 $52 $135 $138 $139 forward $29 $-1 #
coedge $-1 $140 $141 $52 $87 reversed $142 $-1 #
edge $-1 $143 -53.25105023344704591 $144 53.25105023344704591 $86 $145 forward 7 unknown #
face $-1 $146 $147 $15 $-1 $148 reversed single #
loop $-1 $-1 $149 $53 #
plane-surface $-1 3.408343321261194436 0 23.215163200317118 0 1 0 0 0 1 forward_v I I I I #
coedge $-1 $150 $151 $152 $153 forward $54 $-1 #
coedge $-1 $154 $56 $155 $156 forward $32 $-1 #
coedge $-1 $56 $154 $157 $158 forward $32 $-1 #
coedge $-1 $159 $160 $56 $95 reversed $161 $-1 #
edge $-1 $162 -9.727349633266211271 $163 9.727349633266211271 $94 $164 forward 7 unknown #
face $-1 $165 $166 $16 $-1 $167 reversed single #
loop $-1 $-1 $168 $57 #
plane-surface $-1 3.408343321261194436 87.04740120036166218 23.215163200317118 0 1 0 0 0 1 forward_v I I I I #
coedge $-1 $169 $170 $171 $172 forward $58 $-1 #
coedge $-1 $173 $60 $174 $175 forward $35 $-1 #
coedge $-1 $60 $173 $176 $177 forward $35 $-1 #
coedge $-1 $178 $179 $60 $103 reversed $180 $-1 #
edge $-1 $181 -9.727349633266214823 $182 9.727349633266214823 $102 $183 forward 7 unknown #
face $-1 $184 $185 $17 $-1 $186 reversed single #
loop $-1 $-1 $187 $61 #
plane-surface $-1 179.8334519181778717 69.53790648663942875 257.7822370334146171 0 1 0 0.7880107618611372766 0 0.6156614647604883306 forward_v I I I I #
coedge $-1 $188 $189 $190 $191 forward $62 $-1 #
coedge $-1 $192 $64 $193 $194 forward $38 $-1 #
coedge $-1 $64 $192 $195 $196 forward $38 $-1 #
coedge $-1 $197 $198 $64 $111 reversed $199 $-1 #
edge $-1 $200 -8.754747356861116714 $201 8.754747356861116714 $110 $202 forward 7 unknown #
loop $-1 $203 $204 $65 #
cone-surface $-1 150.2976716104805632 73.03980542938387543 43.23734127408408767 -0.7880107618611372766 0 -0.6156614647604883306 0.3078307323802441653 0 -0.3940053809305686383 1 I I -0.7071067811865474617 0.7071067811865474617 0.5 forward I I I I #
coedge $-1 $114 $114 $69 $116 forward $66 $-1 #
coedge $-1 $115 $115 $204 $205 forward $68 $-1 #
edge $-1 $206 0 $206 6.283185307179586232 $114 $207 forward 7 unknown #
loop $-1 $208 $209 $70 #
cone-surface $-1 150.2976716104805632 78.29265384350054546 43.23734127408408767 -0.7880107618611372766 0 -0.6156614647604883306 0.3078307323802441653 0 -0.3940053809305686383 1 I I -0.7071067811865474617 0.7071067811865474617 0.5 forward I I I I #
coedge $-1 $119 $119 $74 $121 forward $71 $-1 #
coedge $-1 $120 $120 $209 $210 forward $73 $-1 #
edge $-1 $211 0 $211 6.283185307179586232 $119 $212 forward 7 unknown #
loop $-1 $213 $214 $75 #
cone-surface $-1 150.2976716104805632 83.54550225761721549 43.23734127408408767 -0.7880107618611372766 0 -0.6156614647604883306 0.3078307323802441653 0 -0.3940053809305686383 1 I I -0.7071067811865474617 0.7071067811865474617 0.5 forward I I I I #
coedge $-1 $124 $124 $79 $126 forward $76 $-1 #
coedge $-1 $125 $125 $214 $215 forward $78 $-1 #
edge $-1 $216 0 $216 6.283185307179586232 $124 $217 forward 7 unknown #
face $-1 $218 $219 $14 $-1 $220 reversed single #
loop $-1 $-1 $221 $80 #
plane-surface $-1 0 53.25105023344704591 23.215163200317118 1 0 0 0 0 -1 forward_v I I I I #
coedge $-1 $222 $138 $223 $224 forward $81 $-1 #
coedge $-1 $225 $83 $222 $226 forward $50 $-1 #
coedge $-1 $83 $225 $227 $228 forward $50 $-1 #
coedge $-1 $141 $140 $83 $134 reversed $142 $-1 #
edge $-1 $229 -53.25105023344704591 $230 53.25105023344704591 $133 $231 forward 7 unknown #
coedge $-1 $85 $84 $232 $233 forward $29 $-1 #
coedge $-1 $234 $235 $84 $137 reversed $219 $-1 #
edge $-1 $144 -76.69789727469711238 $236 76.69789727469711238 $136 $237 forward 7 unknown #
coedge $-1 $130 $238 $85 $139 reversed $81 $-1 #
edge $-1 $239 -76.69789727469711238 $143 76.69789727469711238 $138 $240 forward 7 unknown #
coedge $-1 $133 $86 $238 $241 forward $142 $-1 #
coedge $-1 $86 $133 $234 $242 reversed $142 $-1 #
loop $-1 $-1 $140 $218 #
vertex $-1 $87 $243 #
vertex $-1 $87 $244 #
straight-curve $-1 153.3957945493942248 53.25105023344704591 46.43032640063423599 0 1 0 I I #
face $-1 $245 $246 $15 $-1 $247 reversed single #
loop $-1 $-1 $248 $88 #
plane-surface $-1 0 9.727349633266211271 23.215163200317118 1 0 0 0 0 -1 forward_v I I I I #
coedge $-1 $249 $157 $250 $251 forward $89 $-1 #
coedge $-1 $252 $91 $249 $253 forward $54 $-1 #
coedge $-1 $91 $252 $254 $255 forward $54 $-1 #
coedge $-1 $160 $159 $91 $153 reversed $161 $-1 #
edge $-1 $256 -9.727349633266211271 $257 9.727349633266211271 $152 $258 forward 7 unknown #
coedge $-1 $93 $92 $259 $260 forward $32 $-1 #
coedge $-1 $261 $262 $92 $156 reversed $246 $-1 #
edge $-1 $163 -3.408343321261194436 $263 3.408343321261194436 $155 $264 forward 7 unknown #
coedge $-1 $149 $265 $93 $158 reversed $89 $-1 #
edge $-1 $266 -3.408343321261194436 $162 3.408343321261194436 $157 $267 forward 7 unknown #
coedge $-1 $152 $94 $265 $268 forward $161 $-1 #
coedge $-1 $94 $152 $261 $269 reversed $161 $-1 #
loop $-1 $-1 $159 $245 #
vertex $-1 $95 $270 #
vertex $-1 $95 $271 #
straight-curve $-1 6.816686642522388873 9.727349633266211271 46.43032640063423599 0 1 0 I I #
face $-1 $272 $273 $16 $-1 $274 reversed single #
loop $-1 $-1 $275 $96 #
plane-surface $-1 0 96.774750833627877 23.215163200317118 1 0 0 0 0 -1 forward_v I I I I #
coedge $-1 $276 $176 $277 $278 forward $97 $-1 #
coedge $-1 $279 $99 $276 $280 forward $58 $-1 #
coedge $-1 $99 $279 $281 $282 forward $58 $-1 #
coedge $-1 $179 $178 $99 $172 reversed $180 $-1 #
edge $-1 $283 -9.727349633266214823 $284 9.727349633266214823 $171 $285 forward 7 unknown #
coedge $-1 $101 $100 $286 $287 forward $35 $-1 #
coedge $-1 $288 $289 $100 $175 reversed $273 $-1 #
edge $-1 $182 -3.408343321261194436 $290 3.408343321261194436 $174 $291 forward 7 unknown #
coedge $-1 $168 $292 $101 $177 reversed $97 $-1 #
edge $-1 $293 -3.408343321261194436 $181 3.408343321261194436 $176 $294 forward 7 unknown #
coedge $-1 $171 $102 $292 $295 forward $180 $-1 #
coedge $-1 $102 $171 $288 $296 reversed $180 $-1 #
loop $-1 $-1 $178 $272 #
vertex $-1 $103 $297 #
vertex $-1 $103 $298 #
straight-curve $-1 6.816686642522388873 96.774750833627877 46.43032640063423599 0 1 0 I I #
face $-1 $299 $300 $17 $-1 $301 reversed single #
loop $-1 $-1 $302 $104 #
plane-surface $-1 -9.046307202580095463 78.29265384350054546 499.5373108917398781 0.6156614647604883306 0 -0.7880107618611372766 -0.7880107618611372766 0 -0.6156614647604883306 forward_v I I I I #
coedge $-1 $303 $195 $304 $305 forward $105 $-1 #
coedge $-1 $306 $107 $303 $307 forward $62 $-1 #
coedge $-1 $107 $306 $308 $309 forward $62 $-1 #
coedge $-1 $198 $197 $107 $191 reversed $199 $-1 #
edge $-1 $310 -8.754747356861116714 $311 8.754747356861116714 $190 $312 forward 7 unknown #
coedge $-1 $109 $108 $313 $314 forward $38 $-1 #
coedge $-1 $315 $316 $108 $194 reversed $300 $-1 #
edge $-1 $201 -306.7915890987884495 $317 306.7915890987884495 $193 $318 forward 7 unknown #
coedge $-1 $187 $319 $109 $196 reversed $105 $-1 #
edge $-1 $320 -306.7915890987884495 $200 306.7915890987884495 $195 $321 forward 7 unknown #
coedge $-1 $190 $110 $319 $322 forward $199 $-1 #
coedge $-1 $110 $190 $315 $323 reversed $199 $-1 #
loop $-1 $-1 $197 $299 #
vertex $-1 $111 $324 #
vertex $-1 $111 $325 #
straight-curve $-1 489.5907479680984125 78.29265384350054546 110.4670427354683397 0 1 0 I I #
loop $-1 $-1 $326 $65 #
coedge $-1 $204 $204 $115 $205 reversed $112 $-1 #
edge $-1 $327 0 $327 6.283185307179586232 $204 $328 forward 7 unknown #
vertex $-1 $116 $329 #
ellipse-curve $-1 151.8466982283466677 73.03980542938387543 44.44757347225359467 0.7880107618611372766 0 0.6156614647604883306 0.6156614647604883306 0 -0.7880107618611372766 1 I I #
loop $-1 $-1 $330 $70 #
coedge $-1 $209 $209 $120 $210 reversed $117 $-1 #
edge $-1 $331 0 $331 6.283185307179586232 $209 $332 forward 7 unknown #
vertex $-1 $121 $333 #
ellipse-curve $-1 151.8466982283466677 78.29265384350054546 44.44757347225359467 0.7880107618611372766 0 0.6156614647604883306 0.6156614647604883306 0 -0.7880107618611372766 1 I I #
loop $-1 $-1 $334 $75 #
coedge $-1 $214 $214 $125 $215 reversed $122 $-1 #
edge $-1 $335 0 $335 6.283185307179586232 $214 $336 forward 7 unknown #
vertex $-1 $126 $337 #
ellipse-curve $-1 151.8466982283466677 83.54550225761721549 44.44757347225359467 0.7880107618611372766 0 0.6156614647604883306 0.6156614647604883306 0 -0.7880107618611372766 1 I I #
face $-1 $-1 $142 $14 $-1 $338 reversed single #
loop $-1 $-1 $234 $127 #
plane-surface $-1 76.69789727469711238 106.5021004668940918 23.215163200317118 0 -1 0 0 0 -1 forward_v I I I I #
coedge $-1 $339 $232 $235 $340 forward $128 $-1 #
coedge $-1 $238 $130 $131 $226 reversed $81 $-1 #
coedge $-1 $232 $339 $130 $224 reversed $128 $-1 #
edge $-1 $239 -23.215163200317118 $341 23.215163200317118 $223 $342 forward 7 unknown #
coedge $-1 $132 $131 $339 $343 forward $50 $-1 #
edge $-1 $230 -76.69789727469711238 $341 76.69789727469711238 $222 $344 forward 7 unknown #
coedge $-1 $235 $234 $132 $228 reversed $219 $-1 #
edge $-1 $345 -76.69789727469711238 $229 76.69789727469711238 $227 $346 forward 7 unknown #
vertex $-1 $134 $347 #
vertex $-1 $241 $348 #
straight-curve $-1 153.3957945493942248 53.25105023344704591 0 0 -1 0 I I #
coedge $-1 $221 $223 $135 $233 reversed $128 $-1 #
edge $-1 $236 -53.25105023344704591 $239 53.25105023344704591 $232 $349 forward 7 unknown #
coedge $-1 $227 $136 $141 $242 forward $219 $-1 #
coedge $-1 $136 $227 $221 $340 reversed $219 $-1 #
vertex $-1 $137 $350 #
straight-curve $-1 76.69789727469711238 106.5021004668940918 46.43032640063423599 -1 0 0 I I #
coedge $-1 $138 $222 $140 $241 reversed $81 $-1 #
vertex $-1 $233 $351 #
straight-curve $-1 76.69789727469711238 0 46.43032640063423599 1 0 0 I I #
edge $-1 $143 -23.215163200317118 $230 23.215163200317118 $140 $352 forward 7 unknown #
edge $-1 $144 -23.215163200317118 $229 23.215163200317118 $141 $353 forward 7 unknown #
point $-1 153.3957945493942248 0 46.43032640063423599 #
point $-1 153.3957945493942248 106.5021004668940918 46.43032640063423599 #
face $-1 $-1 $161 $15 $-1 $354 reversed single #
loop $-1 $-1 $261 $146 #
plane-surface $-1 3.408343321261194436 19.45469926653242254 23.215163200317118 0 -1 0 0 0 -1 forward_v I I I I #
coedge $-1 $355 $259 $262 $356 forward $147 $-1 #
coedge $-1 $265 $149 $150 $253 reversed $89 $-1 #
coedge $-1 $259 $355 $149 $251 reversed $147 $-1 #
edge $-1 $266 -23.215163200317118 $357 23.215163200317118 $250 $358 forward 7 unknown #
coedge $-1 $151 $150 $355 $359 forward $54 $-1 #
edge $-1 $257 -3.408343321261194436 $357 3.408343321261194436 $249 $360 forward 7 unknown #
coedge $-1 $262 $261 $151 $255 reversed $246 $-1 #
edge $-1 $361 -3.408343321261194436 $256 3.408343321261194436 $254 $362 forward 7 unknown #
vertex $-1 $153 $363 #
vertex $-1 $268 $364 #
straight-curve $-1 6.816686642522388873 9.727349633266211271 0 0 -1 0 I I #
coedge $-1 $248 $250 $154 $260 reversed $147 $-1 #
edge $-1 $263 -9.727349633266211271 $266 9.727349633266211271 $259 $365 forward 7 unknown #
coedge $-1 $254 $155 $160 $269 forward $246 $-1 #
coedge $-1 $155 $254 $248 $356 reversed $246 $-1 #
vertex $-1 $156 $366 #
straight-curve $-1 3.408343321261194436 19.45469926653242254 46.43032640063423599 -1 0 0 I I #
coedge $-1 $157 $249 $159 $268 reversed $89 $-1 #
vertex $-1 $260 $367 #
straight-curve $-1 3.408343321261194436 0 46.43032640063423599 1 0 0 I I #
edge $-1 $162 -23.215163200317118 $257 23.215163200317118 $159 $368 forward 7 unknown #
edge $-1 $163 -23.215163200317118 $256 23.215163200317118 $160 $369 forward 7 unknown #
point $-1 6.816686642522388873 0 46.43032640063423599 #
point $-1 6.816686642522388873 19.45469926653242254 46.43032640063423599 #
face $-1 $-1 $180 $16 $-1 $370 reversed single #
loop $-1 $-1 $288 $165 #
plane-surface $-1 3.408343321261194436 106.5021004668940918 23.215163200317118 0 -1 0 0 0 -1 forward_v I I I I #
coedge $-1 $371 $286 $289 $372 forward $166 $-1 #
coedge $-1 $292 $168 $169 $280 reversed $97 $-1 #
coedge $-1 $286 $371 $168 $278 reversed $166 $-1 #
edge $-1 $293 -23.215163200317118 $373 23.215163200317118 $277 $374 forward 7 unknown #
coedge $-1 $170 $169 $371 $375 forward $58 $-1 #
edge $-1 $284 -3.408343321261194436 $373 3.408343321261194436 $276 $376 forward 7 unknown #
coedge $-1 $289 $288 $170 $282 reversed $273 $-1 #
edge $-1 $377 -3.408343321261194436 $283 3.408343321261194436 $281 $378 forward 7 unknown #
vertex $-1 $172 $379 #
vertex $-1 $295 $380 #
straight-curve $-1 6.816686642522388873 96.774750833627877 0 0 -1 0 I I #
coedge $-1 $275 $277 $173 $287 reversed $166 $-1 #
edge $-1 $290 -9.727349633266214823 $293 9.727349633266214823 $286 $381 forward 7 unknown #
coedge $-1 $281 $174 $179 $296 forward $273 $-1 #
coedge $-1 $174 $281 $275 $372 reversed $273 $-1 #
vertex $-1 $175 $382 #
straight-curve $-1 3.408343321261194436 106.5021004668940918 46.43032640063423599 -1 0 0 I I #
coedge $-1 $176 $276 $178 $295 reversed $97 $-1 #
vertex $-1 $287 $383 #
straight-curve $-1 3.408343321261194436 87.04740120036166218 46.43032640063423599 1 0 0 I I #
edge $-1 $181 -23.215163200317118 $284 23.215163200317118 $178 $384 forward 7 unknown #
edge $-1 $182 -23.215163200317118 $283 23.215163200317118 $179 $385 forward 7 unknown #
point $-1 6.816686642522388873 87.04740120036166218 46.43032640063423599 #
point $-1 6.816686642522388873 106.5021004668940918 46.43032640063423599 #
face $-1 $-1 $199 $17 $-1 $386 reversed single #
loop $-1 $-1 $315 $184 #
plane-surface $-1 179.8334519181778717 87.04740120036166218 257.7822370334146171 0 -1 0 -0.7880107618611372766 0 -0.6156614647604883306 forward_v I I I I #
coedge $-1 $387 $313 $316 $388 forward $185 $-1 #
coedge $-1 $319 $187 $188 $307 reversed $105 $-1 #
coedge $-1 $313 $387 $187 $305 reversed $185 $-1 #
edge $-1 $320 -153.3957945493942248 $389 153.3957945493941963 $304 $390 forward 7 unknown #
coedge $-1 $189 $188 $387 $391 forward $62 $-1 #
edge $-1 $311 -306.7915890987884495 $389 306.7915890987884495 $303 $392 forward 7 unknown #
coedge $-1 $316 $315 $189 $309 reversed $300 $-1 #
edge $-1 $393 -306.7915890987884495 $310 306.7915890987884495 $308 $394 forward 7 unknown #
vertex $-1 $191 $395 #
vertex $-1 $322 $396 #
straight-curve $-1 247.8356741097732083 78.29265384350054546 -78.4127163852896274 0 -1 0 I I #
coedge $-1 $302 $304 $192 $314 reversed $185 $-1 #
edge $-1 $317 -8.754747356861116714 $320 8.754747356861116714 $313 $397 forward 7 unknown #
coedge $-1 $308 $193 $198 $323 forward $300 $-1 #
coedge $-1 $193 $308 $302 $388 reversed $300 $-1 #
vertex $-1 $194 $398 #
straight-curve $-1 300.7109888473405022 87.04740120036166218 352.2221165937936007 -0.6156614647604883306 0 0.7880107618611372766 I I #
coedge $-1 $195 $303 $197 $322 reversed $105 $-1 #
vertex $-1 $314 $399 #
straight-curve $-1 300.7109888473405022 69.53790648663942875 352.2221165937936007 0.6156614647604883306 0 -0.7880107618611372766 I I #
edge $-1 $200 -153.3957945493941963 $311 153.3957945493941963 $197 $400 forward 7 unknown #
edge $-1 $201 -153.3957945493941963 $310 153.3957945493941963 $198 $401 forward 7 unknown #
point $-1 489.5907479680984125 69.53790648663942875 110.4670427354683397 #
point $-1 489.5907479680984125 87.04740120036166218 110.4670427354683397 #
coedge $-1 $326 $326 $-1 $402 reversed $203 $-1 #
vertex $-1 $205 $403 #
ellipse-curve $-1 150.6916769914111285 73.03980542938387543 43.54517200646433395 0.7880107618611372766 0 0.6156614647604883306 0.6156614647604883306 0 -0.7880107618611372766 1 I I #
point $-1 152.4623596931071461 73.03980542938387543 43.65956271039245706 #
coedge $-1 $330 $330 $-1 $404 reversed $208 $-1 #
vertex $-1 $210 $405 #
ellipse-curve $-1 150.6916769914111285 78.29265384350054546 43.54517200646433395 0.7880107618611372766 0 0.6156614647604883306 0.6156614647604883306 0 -0.7880107618611372766 1 I I #
point $-1 152.4623596931071461 78.29265384350054546 43.65956271039245706 #
coedge $-1 $334 $334 $-1 $406 reversed $213 $-1 #
vertex $-1 $215 $407 #
ellipse-curve $-1 150.6916769914111285 83.54550225761721549 43.54517200646433395 0.7880107618611372766 0 0.6156614647604883306 0.6156614647604883306 0 -0.7880107618611372766 1 I I #
point $-1 152.4623596931071461 83.54550225761721549 43.65956271039245706 #
plane-surface $-1 153.3957945493942248 53.25105023344704591 23.215163200317118 -1 0 0 0 0 1 forward_v I I I I #
coedge $-1 $223 $221 $225 $343 reversed $128 $-1 #
edge $-1 $236 -23.215163200317118 $345 23.215163200317118 $235 $408 forward 7 unknown #
vertex $-1 $343 $409 #
straight-curve $-1 0 0 23.215163200317118 0 0 -1 I I #
edge $-1 $341 -53.25105023344704591 $345 53.25105023344704591 $339 $410 forward 7 unknown #
straight-curve $-1 76.69789727469711238 0 0 -1 0 0 I I #
vertex $-1 $228 $411 #
straight-curve $-1 76.69789727469711238 106.5021004668940918 0 1 0 0 I I #
point $-1 153.3957945493942248 106.5021004668940918 0 #
point $-1 153.3957945493942248 0 0 #
straight-curve $-1 0 53.25105023344704591 46.43032640063423599 0 -1 0 I I #
point $-1 0 106.5021004668940918 46.43032640063423599 #
point $-1 0 0 46.43032640063423599 #
straight-curve $-1 153.3957945493942248 0 23.215163200317118 0 0 -1 I I #
straight-curve $-1 153.3957945493942248 106.5021004668940918 23.215163200317118 0 0 -1 I I #
plane-surface $-1 6.816686642522388873 9.727349633266211271 23.215163200317118 -1 0 0 0 0 1 forward_v I I I I #
coedge $-1 $250 $248 $252 $359 reversed $147 $-1 #
edge $-1 $263 -23.215163200317118 $361 23.215163200317118 $262 $412 forward 7 unknown #
vertex $-1 $359 $413 #
straight-curve $-1 0 0 23.215163200317118 0 0 -1 I I #
edge $-1 $357 -9.727349633266211271 $361 9.727349633266211271 $355 $414 forward 7 unknown #
straight-curve $-1 3.408343321261194436 0 0 -1 0 0 I I #
vertex $-1 $255 $415 #
straight-curve $-1 3.408343321261194436 19.45469926653242254 0 1 0 0 I I #
point $-1 6.816686642522388873 19.45469926653242254 0 #
point $-1 6.816686642522388873 0 0 #
straight-curve $-1 0 9.727349633266211271 46.43032640063423599 0 -1 0 I I #
point $-1 0 19.45469926653242254 46.43032640063423599 #
point $-1 0 0 46.43032640063423599 #
straight-curve $-1 6.816686642522388873 0 23.215163200317118 0 0 -1 I I #
straight-curve $-1 6.816686642522388873 19.45469926653242254 23.215163200317118 0 0 -1 I I #
plane-surface $-1 6.816686642522388873 96.774750833627877 23.215163200317118 -1 0 0 0 0 1 forward_v I I I I #
coedge $-1 $277 $275 $279 $375 reversed $166 $-1 #
edge $-1 $290 -23.215163200317118 $377 23.215163200317118 $289 $416 forward 7 unknown #
vertex $-1 $375 $417 #
straight-curve $-1 0 87.04740120036166218 23.215163200317118 0 0 -1 I I #
edge $-1 $373 -9.727349633266214823 $377 9.727349633266214823 $371 $418 forward 7 unknown #
straight-curve $-1 3.408343321261194436 87.04740120036166218 0 -1 0 0 I I #
vertex $-1 $282 $419 #
straight-curve $-1 3.408343321261194436 106.5021004668940918 0 1 0 0 I I #
point $-1 6.816686642522388873 106.5021004668940918 0 #
point $-1 6.816686642522388873 87.04740120036166218 0 #
straight-curve $-1 0 96.774750833627877 46.43032640063423599 0 -1 0 I I #
point $-1 0 106.5021004668940918 46.43032640063423599 #
point $-1 0 87.04740120036166218 46.43032640063423599 #
straight-curve $-1 6.816686642522388873 87.04740120036166218 23.215163200317118 0 0 -1 I I #
straight-curve $-1 6.816686642522388873 106.5021004668940918 23.215163200317118 0 0 -1 I I #
plane-surface $-1 368.7132110389358104 78.29265384350054546 16.02716317508935617 -0.6156614647604883306 0 0.7880107618611372766 0.7880107618611372766 0 0.6156614647604883306 forward_v I I I I #
coedge $-1 $304 $302 $306 $391 reversed $185 $-1 #
edge $-1 $317 -153.3957945493942248 $393 153.3957945493941963 $316 $420 forward 7 unknown #
vertex $-1 $391 $421 #
straight-curve $-1 -9.046307202580095463 69.53790648663942875 499.5373108917398781 -0.7880107618611372766 0 -0.6156614647604883306 I I #
edge $-1 $389 -8.754747356861116714 $393 8.754747356861116714 $387 $422 forward 7 unknown #
straight-curve $-1 58.95591498901524119 69.53790648663942875 163.3423574730356336 -0.6156614647604883306 0 0.7880107618611372766 I I #
vertex $-1 $309 $423 #
straight-curve $-1 58.95591498901524119 87.04740120036166218 163.3423574730356336 0.6156614647604883306 0 -0.7880107618611372766 I I #
point $-1 247.8356741097732083 87.04740120036166218 -78.4127163852896274 #
point $-1 247.8356741097732083 69.53790648663942875 -78.4127163852896274 #
straight-curve $-1 111.831229726582535 78.29265384350054546 593.9771904521188617 0 -1 0 I I #
point $-1 111.831229726582535 87.04740120036166218 593.9771904521188617 #
point $-1 111.831229726582535 69.53790648663942875 593.9771904521188617 #
straight-curve $-1 368.7132110389358104 69.53790648663942875 16.02716317508935617 -0.7880107618611372766 0 -0.6156614647604883306 I I #
straight-curve $-1 368.7132110389358104 87.04740120036166218 16.02716317508935617 -0.7880107618611372766 0 -0.6156614647604883306 I I #
edge $-1 $424 1 $424 0 $326 $-1 forward 7 unknown #
point $-1 151.3073384561716068 73.03980542938387543 42.75716124460319634 #
edge $-1 $425 1 $425 0 $330 $-1 forward 7 unknown #
point $-1 151.3073384561716068 78.29265384350054546 42.75716124460319634 #
edge $-1 $426 1 $426 0 $334 $-1 forward 7 unknown #
point $-1 151.3073384561716068 83.54550225761721549 42.75716124460319634 #
straight-curve $-1 0 106.5021004668940918 23.215163200317118 0 0 -1 I I #
point $-1 0 0 0 #
straight-curve $-1 0 53.25105023344704591 0 0 1 0 I I #
point $-1 0 106.5021004668940918 0 #
straight-curve $-1 0 19.45469926653242254 23.215163200317118 0 0 -1 I I #
point $-1 0 0 0 #
straight-curve $-1 0 9.727349633266211271 0 0 1 0 I I #
point $-1 0 19.45469926653242254 0 #
straight-curve $-1 0 106.5021004668940918 23.215163200317118 0 0 -1 I I #
point $-1 0 87.04740120036166218 0 #
straight-curve $-1 0 96.774750833627877 0 0 1 0 I I #
point $-1 0 106.5021004668940918 0 #
straight-curve $-1 -9.046307202580095463 87.04740120036166218 499.5373108917398781 -0.7880107618611372766 0 -0.6156614647604883306 I I #
point $-1 -129.9238441317426975 69.53790648663942875 405.0974313313608945 #
straight-curve $-1 -129.9238441317426975 78.29265384350054546 405.0974313313608945 0 1 0 I I #
point $-1 -129.9238441317426975 87.04740120036166218 405.0974313313608945 #
vertex $-1 $402 $427 #
vertex $-1 $404 $428 #
vertex $-1 $406 $429 #
point $-1 149.903666229549998 73.03980542938387543 42.9295105417038414 #
point $-1 149.903666229549998 78.29265384350054546 42.9295105417038414 #
point $-1 149.903666229549998 83.54550225761721549 42.9295105417038414 #
End-of-ACIS-data 