500 0 12 0           
7 Unknown 11 ACIS 5.0 NT 24 Thu Mar 25 23:56:31 1999 
-1 9.9999999999999995e-007 1e-010 
body $-1 $12 $-1 $13 #
body $-1 $14 $-1 $15 #
body $-1 $16 $-1 $17 #
body $-1 $18 $-1 $19 #
body $-1 $20 $-1 $21 #
body $-1 $22 $-1 $23 #
body $-1 $24 $-1 $25 #
body $-1 $26 $-1 $27 #
body $-1 $28 $-1 $29 #
body $-1 $30 $-1 $31 #
body $-1 $32 $-1 $33 #
body $-1 $34 $-1 $35 #
lump $-1 $-1 $36 $0 #
transform $-1 1 0 0 0 1 0 0 0 1 46.183050019837033 26.28037814477619 11.0122219318589 1 rotate no_reflect no_shear #
lump $-1 $-1 $37 $1 #
transform $-1 1 0 0 0 1 0 0 0 1 46.183050019837033 26.28037814477619 11.0122219318589 1 rotate no_reflect no_shear #
lump $-1 $-1 $38 $2 #
transform $-1 1 0 0 0 1 0 0 0 1 46.183050019837033 26.28037814477619 11.0122219318589 1 rotate no_reflect no_shear #
lump $-1 $-1 $39 $3 #
transform $-1 1 0 0 0 1 0 0 0 1 46.183050019837033 26.28037814477619 11.0122219318589 1 rotate no_reflect no_shear #
lump $-1 $-1 $40 $4 #
transform $-1 1 0 0 0 1 0 0 0 1 46.183050019837033 26.28037814477619 11.0122219318589 1 rotate no_reflect no_shear #
lump $-1 $-1 $41 $5 #
transform $-1 1 0 0 0 1 0 0 0 1 46.183050019837033 26.28037814477619 11.0122219318589 1 rotate no_reflect no_shear #
lump $-1 $-1 $42 $6 #
transform $-1 1 0 0 0 1 0 0 0 1 46.183050019837033 26.28037814477619 11.0122219318589 1 rotate no_reflect no_shear #
lump $-1 $-1 $43 $7 #
transform $-1 1 0 0 0 1 0 0 0 1 46.183050019837033 26.28037814477619 11.0122219318589 1 rotate no_reflect no_shear #
lump $-1 $-1 $44 $8 #
transform $-1 1 0 0 0 1 0 0 0 1 46.183050019837033 26.28037814477619 11.0122219318589 1 rotate no_reflect no_shear #
lump $-1 $-1 $45 $9 #
transform $-1 1 0 0 0 1 0 0 0 1 46.183050019837033 26.28037814477619 11.0122219318589 1 rotate no_reflect no_shear #
lump $-1 $-1 $46 $10 #
transform $-1 1 0 0 0 1 0 0 0 1 46.183050019837033 26.28037814477619 11.0122219318589 1 rotate no_reflect no_shear #
lump $-1 $-1 $47 $11 #
transform $-1 1 0 0 0 1 0 0 0 1 46.183050019837033 26.28037814477619 11.0122219318589 1 rotate no_reflect no_shear #
shell $-1 $-1 $-1 $48 $-1 $12 #
shell $-1 $-1 $-1 $49 $-1 $14 #
shell $-1 $-1 $-1 $50 $-1 $16 #
shell $-1 $-1 $-1 $51 $-1 $18 #
shell $-1 $-1 $-1 $52 $-1 $20 #
shell $-1 $-1 $-1 $53 $-1 $22 #
shell $-1 $-1 $-1 $54 $-1 $24 #
shell $-1 $-1 $-1 $55 $-1 $26 #
shell $-1 $-1 $-1 $56 $-1 $28 #
shell $-1 $-1 $-1 $57 $-1 $30 #
shell $-1 $-1 $-1 $58 $-1 $32 #
shell $-1 $-1 $-1 $59 $-1 $34 #
face $-1 $60 $61 $36 $-1 $62 reversed single #
face $-1 $63 $64 $37 $-1 $65 forward single #
face $-1 $66 $67 $38 $-1 $68 forward single #
face $-1 $69 $70 $39 $-1 $71 reversed single #
face $-1 $72 $73 $40 $-1 $74 forward single #
face $-1 $75 $76 $41 $-1 $77 forward single #
face $-1 $78 $79 $42 $-1 $80 reversed single #
face $-1 $81 $82 $43 $-1 $83 forward single #
face $-1 $84 $85 $44 $-1 $86 forward single #
face $-1 $87 $88 $45 $-1 $89 reversed single #
face $-1 $90 $91 $46 $-1 $92 forward single #
face $-1 $93 $94 $47 $-1 $95 forward single #
face $-1 $96 $97 $36 $-1 $98 forward single #
loop $-1 $-1 $99 $48 #
plane-surface $-1 46.183050019837033 0 0 -1 0 0 0 0 1 forward_v I I I I #
face $-1 $100 $101 $37 $-1 $102 reversed single #
loop $-1 $-1 $103 $49 #
plane-surface $-1 -46.183050019837033 0 0 1 0 0 0 0 -1 forward_v I I I I #
face $-1 $104 $105 $38 $-1 $106 reversed single #
loop $-1 $-1 $107 $50 #
plane-surface $-1 46.183050019837033 0 0 -1 0 0 0 0 1 forward_v I I I I #
face $-1 $108 $109 $39 $-1 $110 reversed single #
loop $-1 $-1 $111 $51 #
plane-surface $-1 -5.0108751741602298 -107.06559021537915 49.751575027867929 -1 0 0 0 -0.87461971476443456 0.48480960649040278 forward_v I I I I #
face $-1 $112 $113 $40 $-1 $114 forward single #
loop $-1 $115 $116 $52 #
cone-surface $-1 -9.9730409757812311 -24.168883312087985 7.7495073699744355 0 0.87461971476443456 -0.48480960649040278 0.5 0 0 1 I I 0 1 0.5 forward I I I I #
face $-1 $117 $118 $41 $-1 $119 forward single #
loop $-1 $120 $121 $53 #
cone-surface $-1 -6.9957414948086338 -24.168883312087985 7.7495073699744355 0 0.87461971476443456 -0.48480960649040278 0.5 0 0 1 I I 0 1 0.5 forward I I I I #
face $-1 $122 $123 $42 $-1 $124 reversed single #
loop $-1 $-1 $125 $54 #
plane-surface $-1 11.957907296429635 -107.06559021537915 49.751575027867929 -1 0 0 0 -0.87461971476443456 0.48480960649040278 forward_v I I I I #
face $-1 $126 $127 $43 $-1 $128 forward single #
loop $-1 $129 $130 $55 #
cone-surface $-1 6.9957414948086338 -24.168883312087985 7.7495073699744355 0 0.87461971476443456 -0.48480960649040278 0.5 0 0 1 I I 0 1 0.5 forward I I I I #
face $-1 $131 $132 $44 $-1 $133 forward single #
loop $-1 $134 $135 $56 #
cone-surface $-1 9.9730409757812311 -24.168883312087985 7.7495073699744355 0 0.87461971476443456 -0.48480960649040278 0.5 0 0 1 I I 0 1 0.5 forward I I I I #
face $-1 $136 $137 $45 $-1 $138 reversed single #
loop $-1 $-1 $139 $57 #
plane-surface $-1 18.661579466134853 78.382789466016888 94.763022352621931 1 0 0 0 -0.85716730853699208 -0.51503806187062418 forward_v I I I I #
face $-1 $140 $141 $46 $-1 $142 forward single #
loop $-1 $143 $144 $58 #
cone-surface $-1 22.852117587728678 22.114314111237004 5.6737059861414796 0 -0.85716730853699208 -0.51503806187062418 1.5 0 0 1 I I 0 1 1.5 forward I I I I #
face $-1 $145 $146 $47 $-1 $147 forward single #
loop $-1 $148 $149 $59 #
cone-surface $-1 29.137924770119405 22.114314111237004 5.6737059861414796 0 -0.85716730853699208 -0.51503806187062418 1.5 0 0 1 I I 0 1 1.5 forward I I I I #
face $-1 $150 $151 $36 $-1 $152 reversed single #
loop $-1 $-1 $153 $60 #
plane-surface $-1 0 0 11.0122219318589 0 0 1 1 0 0 forward_v I I I I #
coedge $-1 $154 $155 $156 $157 reversed $61 $-1 #
face $-1 $158 $159 $37 $-1 $160 forward single #
loop $-1 $-1 $161 $63 #
plane-surface $-1 0 26.28037814477619 0 0 -1 0 0 0 -1 forward_v I I I I #
coedge $-1 $162 $163 $164 $165 forward $64 $-1 #
face $-1 $166 $167 $38 $-1 $168 forward single #
loop $-1 $-1 $169 $66 #
plane-surface $-1 0 -26.28037814477619 0 0 1 0 0 0 1 forward_v I I I I #
coedge $-1 $170 $171 $172 $173 forward $67 $-1 #
face $-1 $174 $175 $39 $-1 $176 reversed single #
loop $-1 $-1 $177 $69 #
plane-surface $-1 -8.4843912352949289 -26.280378144776179 4.9716024145803672 0 -0.87461971476443456 0.48480960649040278 1 0 0 forward_v I I I I #
coedge $-1 $178 $179 $180 $181 reversed $70 $-1 #
face $-1 $-1 $182 $40 $-1 $183 forward single #
loop $-1 $184 $185 $72 #
cone-surface $-1 -9.9730409757812311 -23.512918526014658 7.3859001651066336 0 0.87461971476443456 -0.48480960649040278 0.25 0 0 1 I I -0.70710678118654746 0.70710678118654746 0.25 forward I I I I #
loop $-1 $-1 $186 $52 #
coedge $-1 $116 $116 $187 $188 reversed $73 $-1 #
face $-1 $-1 $189 $41 $-1 $190 forward single #
loop $-1 $191 $192 $75 #
cone-surface $-1 -6.9957414948086338 -23.512918526014658 7.3859001651066336 0 0.87461971476443456 -0.48480960649040278 0.25 0 0 1 I I -0.70710678118654746 0.70710678118654746 0.25 forward I I I I #
loop $-1 $-1 $193 $53 #
coedge $-1 $121 $121 $194 $195 reversed $76 $-1 #
face $-1 $196 $197 $42 $-1 $198 reversed single #
loop $-1 $-1 $199 $78 #
plane-surface $-1 8.484391235294936 -26.280378144776179 4.9716024145803672 0 -0.87461971476443456 0.48480960649040278 1 0 0 forward_v I I I I #
coedge $-1 $200 $201 $202 $203 reversed $79 $-1 #
face $-1 $-1 $204 $43 $-1 $205 forward single #
loop $-1 $206 $207 $81 #
cone-surface $-1 6.9957414948086338 -23.512918526014658 7.3859001651066336 0 0.87461971476443456 -0.48480960649040278 0.25 0 0 1 I I -0.70710678118654746 0.70710678118654746 0.25 forward I I I I #
loop $-1 $-1 $208 $55 #
coedge $-1 $130 $130 $209 $210 reversed $82 $-1 #
face $-1 $-1 $211 $44 $-1 $212 forward single #
loop $-1 $213 $214 $84 #
cone-surface $-1 9.9730409757812311 -23.512918526014658 7.3859001651066336 0 0.87461971476443456 -0.48480960649040278 0.25 0 0 1 I I -0.70710678118654746 0.70710678118654746 0.25 forward I I I I #
loop $-1 $-1 $215 $56 #
coedge $-1 $135 $135 $216 $217 reversed $85 $-1 #
face $-1 $218 $219 $45 $-1 $220 reversed single #
loop $-1 $-1 $221 $87 #
plane-surface $-1 25.995021178924041 -0.79041190504908343 47.190965205640019 0 0.85716730853699208 0.51503806187062418 1 0 0 forward_v I I I I #
coedge $-1 $222 $223 $224 $225 reversed $88 $-1 #
face $-1 $-1 $226 $46 $-1 $227 forward single #
loop $-1 $228 $229 $90 #
cone-surface $-1 22.852117587728678 19.97157895617492 4.3862208588227212 0 -0.85716730853699208 -0.51503806187062418 0.75 0 0 1 I I -0.70710678118654757 0.70710678118654757 0.75 forward I I I I #
loop $-1 $-1 $230 $58 #
coedge $-1 $144 $144 $231 $232 reversed $91 $-1 #
face $-1 $-1 $233 $47 $-1 $234 forward single #
loop $-1 $235 $236 $93 #
cone-surface $-1 29.137924770119405 19.97157895617492 4.3862208588227212 0 -0.85716730853699208 -0.51503806187062418 0.75 0 0 1 I I -0.70710678118654757 0.70710678118654757 0.75 forward I I I I #
loop $-1 $-1 $237 $59 #
coedge $-1 $149 $149 $238 $239 reversed $94 $-1 #
face $-1 $240 $241 $36 $-1 $242 reversed single #
loop $-1 $-1 $243 $96 #
plane-surface $-1 0 0 -11.0122219318589 0 0 1 1 0 0 forward_v I I I I #
coedge $-1 $244 $245 $154 $246 forward $97 $-1 #
coedge $-1 $247 $99 $153 $246 reversed $61 $-1 #
coedge $-1 $99 $247 $243 $248 reversed $61 $-1 #
coedge $-1 $249 $250 $99 $157 forward $251 $-1 #
edge $-1 $252 -11.0122219318589 $253 11.0122219318589 $99 $254 forward 7 unknown #
face $-1 $255 $256 $37 $-1 $257 reversed single #
loop $-1 $-1 $164 $100 #
plane-surface $-1 -52.610343583898931 0 3.3069652615869933 0 0 1 1 0 0 forward_v I I I I #
coedge $-1 $258 $259 $163 $260 forward $101 $-1 #
coedge $-1 $261 $103 $262 $263 reversed $64 $-1 #
coedge $-1 $103 $261 $161 $260 reversed $64 $-1 #
coedge $-1 $264 $265 $103 $165 reversed $159 $-1 #
edge $-1 $266 -26.28037814477619 $267 26.28037814477619 $164 $268 forward 7 unknown #
face $-1 $269 $270 $38 $-1 $271 reversed single #
loop $-1 $-1 $272 $104 #
plane-surface $-1 52.610343583898931 0 3.3069652615869933 0 0 1 1 0 0 forward_v I I I I #
coedge $-1 $273 $274 $171 $275 forward $105 $-1 #
coedge $-1 $276 $107 $277 $278 reversed $67 $-1 #
coedge $-1 $107 $276 $169 $275 reversed $67 $-1 #
coedge $-1 $279 $280 $107 $173 reversed $167 $-1 #
edge $-1 $281 -26.28037814477619 $282 26.28037814477619 $172 $283 forward 7 unknown #
face $-1 $284 $285 $39 $-1 $286 forward single #
loop $-1 $-1 $287 $108 #
plane-surface $-1 -11.957907296429628 -107.06559021537915 49.751575027867929 1 0 0 0 0.87461971476443456 -0.48480960649040278 forward_v I I I I #
coedge $-1 $288 $289 $290 $291 reversed $109 $-1 #
coedge $-1 $179 $111 $292 $293 reversed $70 $-1 #
coedge $-1 $111 $178 $288 $294 reversed $70 $-1 #
coedge $-1 $290 $295 $111 $181 forward $285 $-1 #
edge $-1 $296 27.252416962913383 $297 30.600786913525372 $180 $298 forward 7 unknown #
loop $-1 $-1 $187 $112 #
plane-surface $-1 -8.4843912352949289 -26.280378144776179 4.9716024145803672 0 -0.87461971476443456 0.48480960649040278 1 0 0 forward_v I I I I #
loop $-1 $-1 $299 $72 #
coedge $-1 $185 $185 $186 $300 reversed $113 $-1 #
coedge $-1 $186 $186 $185 $300 forward $115 $-1 #
coedge $-1 $187 $187 $116 $188 forward $182 $-1 #
edge $-1 $301 5.4111866181864343e-016 $301 6.2831853071796013 $187 $302 forward 7 unknown #
loop $-1 $-1 $194 $117 #
plane-surface $-1 -8.4843912352949289 -26.280378144776179 4.9716024145803672 0 -0.87461971476443456 0.48480960649040278 1 0 0 forward_v I I I I #
loop $-1 $-1 $303 $75 #
coedge $-1 $192 $192 $193 $304 reversed $118 $-1 #
coedge $-1 $193 $193 $192 $304 forward $120 $-1 #
coedge $-1 $194 $194 $121 $195 forward $189 $-1 #
edge $-1 $305 5.4111866181864343e-016 $305 6.2831853071796013 $194 $306 forward 7 unknown #
face $-1 $307 $308 $42 $-1 $309 reversed single #
loop $-1 $-1 $310 $122 #
plane-surface $-1 5.0108751741602369 -107.06559021537915 49.751575027867929 1 0 0 0 0.87461971476443456 -0.48480960649040278 forward_v I I I I #
coedge $-1 $311 $312 $313 $314 reversed $123 $-1 #
coedge $-1 $201 $125 $315 $316 reversed $79 $-1 #
coedge $-1 $125 $200 $311 $317 reversed $79 $-1 #
coedge $-1 $313 $318 $125 $203 forward $319 $-1 #
edge $-1 $320 27.252416962913383 $321 30.600786913525372 $202 $322 forward 7 unknown #
loop $-1 $-1 $209 $126 #
plane-surface $-1 8.484391235294936 -26.280378144776179 4.9716024145803672 0 -0.87461971476443456 0.48480960649040278 1 0 0 forward_v I I I I #
loop $-1 $-1 $323 $81 #
coedge $-1 $207 $207 $208 $324 reversed $127 $-1 #
coedge $-1 $208 $208 $207 $324 forward $129 $-1 #
coedge $-1 $209 $209 $130 $210 forward $204 $-1 #
edge $-1 $325 5.4111866181864343e-016 $325 6.2831853071796013 $209 $326 forward 7 unknown #
loop $-1 $-1 $216 $131 #
plane-surface $-1 8.484391235294936 -26.280378144776179 4.9716024145803672 0 -0.87461971476443456 0.48480960649040278 1 0 0 forward_v I I I I #
loop $-1 $-1 $327 $84 #
coedge $-1 $214 $214 $215 $328 reversed $132 $-1 #
coedge $-1 $215 $215 $214 $328 forward $134 $-1 #
coedge $-1 $216 $216 $135 $217 forward $211 $-1 #
edge $-1 $329 5.4111866181864343e-016 $329 6.2831853071796013 $216 $330 forward 7 unknown #
face $-1 $331 $332 $45 $-1 $333 reversed single #
loop $-1 $-1 $334 $136 #
plane-surface $-1 33.32846289171323 78.382789466016888 94.763022352621931 -1 0 0 0 0.85716730853699208 0.51503806187062418 forward_v I I I I #
coedge $-1 $335 $336 $337 $338 reversed $137 $-1 #
coedge $-1 $223 $139 $339 $340 reversed $88 $-1 #
coedge $-1 $139 $222 $335 $341 reversed $88 $-1 #
coedge $-1 $337 $342 $139 $225 forward $343 $-1 #
edge $-1 $344 12.911016588232254 $345 18.243425307991945 $224 $346 forward 7 unknown #
loop $-1 $-1 $231 $140 #
plane-surface $-1 25.995021178924041 -0.79041190504908343 47.190965205640019 0 0.85716730853699208 0.51503806187062418 1 0 0 forward_v I I I I #
loop $-1 $-1 $347 $90 #
coedge $-1 $229 $229 $230 $348 reversed $141 $-1 #
coedge $-1 $230 $230 $229 $348 forward $143 $-1 #
coedge $-1 $231 $231 $144 $232 forward $226 $-1 #
edge $-1 $349 2.047651709871164e-016 $349 6.2831853071796004 $231 $350 forward 7 unknown #
loop $-1 $-1 $238 $145 #
plane-surface $-1 25.995021178924041 -0.79041190504908343 47.190965205640019 0 0.85716730853699208 0.51503806187062418 1 0 0 forward_v I I I I #
loop $-1 $-1 $351 $93 #
coedge $-1 $236 $236 $237 $352 reversed $146 $-1 #
coedge $-1 $237 $237 $236 $352 forward $148 $-1 #
coedge $-1 $238 $238 $149 $239 forward $233 $-1 #
edge $-1 $353 2.047651709871164e-016 $353 6.2831853071796004 $238 $354 forward 7 unknown #
face $-1 $355 $356 $36 $-1 $357 reversed single #
loop $-1 $-1 $358 $150 #
plane-surface $-1 0 -26.28037814477619 0 0 1 0 0 0 1 forward_v I I I I #
coedge $-1 $359 $360 $155 $248 forward $151 $-1 #
coedge $-1 $361 $153 $250 $362 forward $97 $-1 #
coedge $-1 $153 $361 $363 $364 forward $97 $-1 #
edge $-1 $365 -26.28037814477619 $252 26.28037814477619 $154 $366 forward 7 unknown #
coedge $-1 $155 $154 $367 $368 forward $61 $-1 #
edge $-1 $253 -26.28037814477619 $369 26.28037814477619 $155 $370 forward 7 unknown #
coedge $-1 $371 $156 $360 $372 reversed $251 $-1 #
coedge $-1 $156 $371 $244 $362 reversed $251 $-1 #
loop $-1 $-1 $156 $355 #
vertex $-1 $246 $373 #
vertex $-1 $248 $374 #
straight-curve $-1 46.183050019837033 26.28037814477619 0 0 0 -1 I I #
face $-1 $375 $376 $37 $-1 $377 reversed single #
loop $-1 $-1 $378 $158 #
plane-surface $-1 -52.610343583898931 0 -3.0540909655032542 0 0 1 1 0 0 forward_v I I I I #
coedge $-1 $379 $161 $380 $381 reversed $101 $-1 #
coedge $-1 $161 $379 $264 $382 reversed $101 $-1 #
edge $-1 $266 -3.3069652615869933 $383 3.0540909655032542 $161 $384 forward 7 unknown #
coedge $-1 $163 $162 $378 $385 forward $64 $-1 #
coedge $-1 $386 $387 $162 $263 forward $388 $-1 #
edge $-1 $389 -3.0540909655032542 $267 3.3069652615869933 $262 $390 forward 7 unknown #
coedge $-1 $391 $164 $259 $382 forward $159 $-1 #
coedge $-1 $164 $391 $386 $392 forward $159 $-1 #
vertex $-1 $260 $393 #
vertex $-1 $392 $394 #
straight-curve $-1 -46.183050019837033 0 3.3069652615869933 0 -1 0 I I #
face $-1 $395 $396 $38 $-1 $397 reversed single #
loop $-1 $-1 $398 $166 #
plane-surface $-1 52.610343583898931 0 -3.0540909655032542 0 0 1 1 0 0 forward_v I I I I #
coedge $-1 $280 $279 $399 $400 forward $167 $-1 #
coedge $-1 $401 $169 $402 $403 reversed $105 $-1 #
coedge $-1 $169 $401 $279 $404 reversed $105 $-1 #
edge $-1 $281 -3.3069652615869933 $405 3.0540909655032542 $169 $406 forward 7 unknown #
coedge $-1 $171 $170 $407 $408 forward $67 $-1 #
coedge $-1 $409 $410 $170 $278 forward $411 $-1 #
edge $-1 $412 -3.0540909655032542 $282 3.3069652615869933 $277 $413 forward 7 unknown #
coedge $-1 $272 $172 $274 $404 forward $167 $-1 #
coedge $-1 $172 $272 $409 $414 forward $167 $-1 #
vertex $-1 $275 $415 #
vertex $-1 $414 $416 #
straight-curve $-1 46.183050019837033 0 3.3069652615869933 0 1 0 I I #
face $-1 $-1 $417 $39 $-1 $418 reversed single #
loop $-1 $-1 $180 $174 #
plane-surface $-1 0 0 11.0122219318589 0 0 1 1 0 0 forward_v I I I I #
coedge $-1 $419 $420 $421 $422 reversed $175 $-1 #
coedge $-1 $423 $177 $179 $294 forward $109 $-1 #
coedge $-1 $177 $423 $419 $424 forward $109 $-1 #
coedge $-1 $421 $180 $177 $291 forward $285 $-1 #
edge $-1 $297 0.76867955651276532 $425 7.7157116787821636 $290 $426 forward 7 unknown #
coedge $-1 $427 $428 $178 $293 forward $417 $-1 #
edge $-1 $429 -19.904185099353619 $296 -13.863565582075065 $292 $430 forward 7 unknown #
edge $-1 $297 -6.9065668373431093 $429 2.2257172995934122e-014 $179 $431 forward 7 unknown #
coedge $-1 $180 $421 $427 $432 forward $285 $-1 #
vertex $-1 $293 $433 #
vertex $-1 $181 $434 #
straight-curve $-1 -5.0108751741602298 -53.532795107689573 11.0122219318589 0 1 0 I I #
coedge $-1 $299 $299 $-1 $435 reversed $184 $-1 #
edge $-1 $436 0 $436 6.2831853071796004 $185 $437 forward 7 unknown #
vertex $-1 $188 $438 #
ellipse-curve $-1 -9.9730409757812311 -24.606193169470192 7.9919121732196308 0 -0.87461971476443456 0.48480960649040278 0.5 0 0 1 I I #
coedge $-1 $303 $303 $-1 $439 reversed $191 $-1 #
edge $-1 $440 0 $440 6.2831853071796004 $192 $441 forward 7 unknown #
vertex $-1 $195 $442 #
ellipse-curve $-1 -6.9957414948086338 -24.606193169470192 7.9919121732196308 0 -0.87461971476443456 0.48480960649040278 0.5 0 0 1 I I #
face $-1 $-1 $319 $42 $-1 $443 forward single #
loop $-1 $-1 $444 $196 #
plane-surface $-1 0 -26.28037814477619 0 0 1 0 0 0 1 forward_v I I I I #
coedge $-1 $445 $446 $447 $448 reversed $197 $-1 #
coedge $-1 $449 $199 $201 $317 forward $123 $-1 #
coedge $-1 $199 $449 $445 $450 forward $123 $-1 #
coedge $-1 $447 $202 $199 $314 forward $319 $-1 #
edge $-1 $321 -7.7157116787821671 $451 -0.76867955651276887 $313 $452 forward 7 unknown #
coedge $-1 $453 $454 $200 $316 forward $308 $-1 #
edge $-1 $455 -19.904185099353619 $320 -13.863565582075065 $315 $456 forward 7 unknown #
edge $-1 $321 -6.9065668373431093 $455 2.2257172995934122e-014 $201 $457 forward 7 unknown #
coedge $-1 $202 $447 $453 $458 forward $319 $-1 #
loop $-1 $-1 $447 $307 #
vertex $-1 $316 $459 #
vertex $-1 $203 $460 #
straight-curve $-1 11.957907296429635 -53.532795107689573 11.0122219318589 0 1 0 I I #
coedge $-1 $323 $323 $-1 $461 reversed $206 $-1 #
edge $-1 $462 0 $462 6.2831853071796004 $207 $463 forward 7 unknown #
vertex $-1 $210 $464 #
ellipse-curve $-1 6.9957414948086338 -24.606193169470192 7.9919121732196308 0 -0.87461971476443456 0.48480960649040278 0.5 0 0 1 I I #
coedge $-1 $327 $327 $-1 $465 reversed $213 $-1 #
edge $-1 $466 0 $466 6.2831853071796004 $214 $467 forward 7 unknown #
vertex $-1 $217 $468 #
ellipse-curve $-1 9.9730409757812311 -24.606193169470192 7.9919121732196308 0 -0.87461971476443456 0.48480960649040278 0.5 0 0 1 I I #
face $-1 $-1 $343 $45 $-1 $469 forward single #
loop $-1 $-1 $470 $218 #
plane-surface $-1 0 26.28037814477619 0 0 -1 0 0 0 -1 forward_v I I I I #
coedge $-1 $471 $472 $473 $474 reversed $219 $-1 #
coedge $-1 $475 $221 $223 $341 forward $137 $-1 #
coedge $-1 $221 $475 $471 $476 forward $137 $-1 #
coedge $-1 $473 $224 $221 $338 forward $343 $-1 #
edge $-1 $345 5.6640688766728324 $477 20.330952302251209 $337 $478 forward 7 unknown #
coedge $-1 $479 $480 $222 $340 forward $332 $-1 #
edge $-1 $481 -45.243907974055325 $344 -36.369289244452062 $339 $482 forward 7 unknown #
edge $-1 $345 42.207329786679324 $481 52.560756289552373 $223 $483 forward 7 unknown #
coedge $-1 $224 $473 $479 $484 forward $343 $-1 #
loop $-1 $-1 $473 $331 #
vertex $-1 $340 $485 #
vertex $-1 $225 $486 #
straight-curve $-1 18.661579466134853 39.191394733008444 11.012221931858903 0 -1 0 I I #
coedge $-1 $347 $347 $-1 $487 reversed $228 $-1 #
edge $-1 $488 0 $488 6.2831853071796004 $229 $489 forward 7 unknown #
vertex $-1 $232 $490 #
ellipse-curve $-1 22.852117587728678 23.614173784896341 6.5749125670572681 0 0.85716730853699208 0.51503806187062418 1.5 0 0 1 I I #
coedge $-1 $351 $351 $-1 $491 reversed $235 $-1 #
edge $-1 $492 0 $492 6.2831853071796004 $236 $493 forward 7 unknown #
vertex $-1 $239 $494 #
ellipse-curve $-1 29.137924770119405 23.614173784896341 6.5749125670572681 0 0.85716730853699208 0.51503806187062418 1.5 0 0 1 I I #
face $-1 $-1 $251 $36 $-1 $495 reversed single #
loop $-1 $-1 $496 $240 #
plane-surface $-1 -46.183050019837033 0 0 1 0 0 0 0 -1 forward_v I I I I #
coedge $-1 $497 $363 $496 $498 forward $241 $-1 #
coedge $-1 $499 $243 $497 $500 forward $151 $-1 #
coedge $-1 $243 $499 $249 $372 forward $151 $-1 #
coedge $-1 $245 $244 $501 $502 forward $97 $-1 #
edge $-1 $252 -46.183050019837033 $503 46.183050019837033 $250 $504 forward 7 unknown #
coedge $-1 $358 $367 $245 $364 reversed $241 $-1 #
edge $-1 $505 -46.183050019837033 $365 46.183050019837033 $363 $506 forward 7 unknown #
vertex $-1 $246 $507 #
straight-curve $-1 46.183050019837033 0 11.0122219318589 0 1 0 I I #
coedge $-1 $363 $497 $247 $368 reversed $241 $-1 #
edge $-1 $365 -11.0122219318589 $369 11.0122219318589 $247 $508 forward 7 unknown #
vertex $-1 $368 $509 #
straight-curve $-1 46.183050019837033 0 -11.0122219318589 0 -1 0 I I #
coedge $-1 $250 $249 $510 $511 reversed $251 $-1 #
edge $-1 $512 -46.183050019837033 $253 46.183050019837033 $249 $513 forward 7 unknown #
point $-1 46.183050019837033 26.28037814477619 11.0122219318589 #
point $-1 46.183050019837033 26.28037814477619 -11.0122219318589 #
face $-1 $-1 $388 $37 $-1 $514 reversed single #
loop $-1 $-1 $515 $255 #
plane-surface $-1 -59.03763714796083 0 0.12643714804186956 1 0 0 0 0 -1 forward_v I I I I #
coedge $-1 $516 $380 $261 $385 reversed $256 $-1 #
coedge $-1 $259 $258 $515 $517 reversed $101 $-1 #
coedge $-1 $378 $518 $258 $381 forward $256 $-1 #
edge $-1 $519 -6.4272935640618982 $383 6.4272935640618982 $258 $520 forward 7 unknown #
edge $-1 $266 -6.4272935640618982 $521 6.4272935640618982 $259 $522 forward 7 unknown #
vertex $-1 $260 $523 #
straight-curve $-1 -46.183050019837033 26.28037814477619 0 0 0 -1 I I #
edge $-1 $389 -26.28037814477619 $383 26.28037814477619 $378 $524 forward 7 unknown #
coedge $-1 $525 $262 $265 $392 reversed $388 $-1 #
coedge $-1 $262 $525 $516 $526 reversed $388 $-1 #
loop $-1 $-1 $262 $375 #
vertex $-1 $263 $527 #
straight-curve $-1 -46.183050019837033 -26.28037814477619 0 0 0 1 I I #
coedge $-1 $265 $264 $528 $529 forward $159 $-1 #
edge $-1 $530 -6.4272935640618982 $267 6.4272935640618982 $386 $531 forward 7 unknown #
point $-1 -46.183050019837033 26.28037814477619 3.3069652615869933 #
point $-1 -46.183050019837033 -26.28037814477619 3.3069652615869933 #
face $-1 $-1 $411 $38 $-1 $532 reversed single #
loop $-1 $-1 $533 $269 #
plane-surface $-1 59.03763714796083 0 0.12643714804186956 -1 0 0 0 0 1 forward_v I I I I #
coedge $-1 $402 $534 $535 $536 forward $270 $-1 #
coedge $-1 $533 $537 $272 $400 reversed $396 $-1 #
edge $-1 $538 -26.28037814477619 $539 26.28037814477619 $399 $540 forward 7 unknown #
coedge $-1 $274 $273 $533 $541 reversed $105 $-1 #
coedge $-1 $407 $398 $273 $403 forward $270 $-1 #
edge $-1 $542 -6.4272935640618982 $405 6.4272935640618982 $273 $543 forward 7 unknown #
edge $-1 $281 -6.4272935640618982 $538 6.4272935640618982 $274 $544 forward 7 unknown #
vertex $-1 $275 $545 #
straight-curve $-1 46.183050019837033 -26.28037814477619 0 0 0 -1 I I #
coedge $-1 $534 $402 $276 $408 reversed $270 $-1 #
edge $-1 $412 -26.28037814477619 $405 26.28037814477619 $407 $546 forward 7 unknown #
coedge $-1 $547 $277 $280 $414 reversed $411 $-1 #
coedge $-1 $277 $547 $534 $548 reversed $411 $-1 #
loop $-1 $-1 $277 $395 #
vertex $-1 $278 $549 #
straight-curve $-1 46.183050019837033 26.28037814477619 0 0 0 1 I I #
edge $-1 $539 -6.4272935640618982 $282 6.4272935640618982 $409 $550 forward 7 unknown #
point $-1 46.183050019837033 -26.28037814477619 3.3069652615869933 #
point $-1 46.183050019837033 26.28037814477619 3.3069652615869933 #
loop $-1 $-1 $292 $284 #
plane-surface $-1 0 -26.28037814477619 0 0 1 0 0 0 1 forward_v I I I I #
coedge $-1 $420 $287 $289 $424 reversed $175 $-1 #
coedge $-1 $287 $419 $551 $552 reversed $175 $-1 #
coedge $-1 $295 $290 $287 $422 forward $285 $-1 #
edge $-1 $425 -30.600786913525372 $553 -27.252416962913383 $421 $554 forward 7 unknown #
coedge $-1 $289 $288 $428 $555 reversed $109 $-1 #
edge $-1 $556 -2.2257172995934122e-014 $425 6.9065668373431093 $419 $557 forward 7 unknown #
vertex $-1 $291 $558 #
straight-curve $-1 -4.2421956176474644 -22.932008194164204 11.0122219318589 -1 0 0 I I #
coedge $-1 $551 $292 $295 $432 reversed $417 $-1 #
coedge $-1 $292 $551 $423 $555 forward $417 $-1 #
vertex $-1 $293 $559 #
straight-curve $-1 -5.0108751741602298 -26.280378144776193 24.875787513933965 0 0 1 I I #
straight-curve $-1 -5.0108751741602298 -26.280378144776179 4.9716024145803672 0 -0.48480960649040278 -0.87461971476443456 I I #
edge $-1 $553 -11.957907296429628 $296 -5.0108751741602298 $427 $560 forward 7 unknown #
point $-1 -5.0108751741602298 -26.28037814477619 11.0122219318589 #
point $-1 -5.0108751741602298 -22.932008194164201 11.0122219318589 #
edge $-1 $561 1 $561 0 $299 $-1 forward 7 unknown #
vertex $-1 $300 $562 #
ellipse-curve $-1 -9.9730409757812311 -23.731573454705767 7.5071025667292339 0 -0.87461971476443456 0.48480960649040278 0.5 0 0 1 I I #
point $-1 -9.4730409757812311 -24.606193169470203 7.991912173219637 #
edge $-1 $563 1 $563 0 $303 $-1 forward 7 unknown #
vertex $-1 $304 $564 #
ellipse-curve $-1 -6.9957414948086338 -23.731573454705767 7.5071025667292339 0 -0.87461971476443456 0.48480960649040278 0.5 0 0 1 I I #
point $-1 -6.4957414948086338 -24.606193169470203 7.991912173219637 #
plane-surface $-1 0 0 11.0122219318589 0 0 1 1 0 0 forward_v I I I I #
coedge $-1 $454 $453 $446 $565 forward $308 $-1 #
coedge $-1 $446 $310 $312 $450 reversed $197 $-1 #
coedge $-1 $310 $445 $444 $565 reversed $197 $-1 #
coedge $-1 $318 $313 $310 $448 forward $319 $-1 #
edge $-1 $451 -30.600786913525372 $566 -27.252416962913383 $447 $567 forward 7 unknown #
coedge $-1 $312 $311 $454 $568 reversed $123 $-1 #
edge $-1 $569 -2.2257172995934122e-014 $451 6.9065668373431093 $445 $570 forward 7 unknown #
vertex $-1 $314 $571 #
straight-curve $-1 4.242195617647468 -22.932008194164204 11.0122219318589 -1 0 0 I I #
coedge $-1 $444 $315 $318 $458 reversed $308 $-1 #
coedge $-1 $315 $444 $449 $568 forward $308 $-1 #
vertex $-1 $316 $572 #
straight-curve $-1 11.957907296429635 -26.280378144776193 24.875787513933965 0 0 1 I I #
straight-curve $-1 11.957907296429635 -26.280378144776179 4.9716024145803672 0 -0.48480960649040278 -0.87461971476443456 I I #
edge $-1 $566 5.0108751741602369 $320 11.957907296429635 $453 $573 forward 7 unknown #
point $-1 11.957907296429635 -26.28037814477619 11.0122219318589 #
point $-1 11.957907296429635 -22.932008194164201 11.0122219318589 #
edge $-1 $574 1 $574 0 $323 $-1 forward 7 unknown #
vertex $-1 $324 $575 #
ellipse-curve $-1 6.9957414948086338 -23.731573454705767 7.5071025667292339 0 -0.87461971476443456 0.48480960649040278 0.5 0 0 1 I I #
point $-1 7.4957414948086338 -24.606193169470203 7.991912173219637 #
edge $-1 $576 1 $576 0 $327 $-1 forward 7 unknown #
vertex $-1 $328 $577 #
ellipse-curve $-1 9.9730409757812311 -23.731573454705767 7.5071025667292339 0 -0.87461971476443456 0.48480960649040278 0.5 0 0 1 I I #
point $-1 10.473040975781231 -24.606193169470203 7.991912173219637 #
plane-surface $-1 0 0 11.0122219318589 0 0 1 1 0 0 forward_v I I I I #
coedge $-1 $480 $479 $472 $578 forward $332 $-1 #
coedge $-1 $472 $334 $336 $476 reversed $219 $-1 #
coedge $-1 $334 $471 $470 $578 reversed $219 $-1 #
coedge $-1 $342 $337 $334 $474 forward $343 $-1 #
edge $-1 $477 -18.243425307991945 $579 -12.911016588232254 $473 $580 forward 7 unknown #
coedge $-1 $336 $335 $480 $581 reversed $137 $-1 #
edge $-1 $582 -52.560756289552373 $477 -42.207329786679324 $471 $583 forward 7 unknown #
vertex $-1 $338 $584 #
straight-curve $-1 12.997510589462021 20.947969425016495 11.0122219318589 1 0 0 I I #
coedge $-1 $470 $339 $342 $484 reversed $332 $-1 #
coedge $-1 $339 $470 $475 $581 forward $332 $-1 #
vertex $-1 $340 $585 #
straight-curve $-1 18.661579466134853 26.28037814477619 47.381511176310966 0 0 1 I I #
straight-curve $-1 18.661579466134853 -0.79041190504908343 47.190965205640019 0 0.51503806187062418 -0.85716730853699208 I I #
edge $-1 $579 -33.32846289171323 $344 -18.661579466134853 $479 $586 forward 7 unknown #
point $-1 18.661579466134853 26.28037814477619 11.0122219318589 #
point $-1 18.661579466134853 20.947969425016499 11.012221931858896 #
edge $-1 $587 1 $587 0 $347 $-1 forward 7 unknown #
vertex $-1 $348 $588 #
ellipse-curve $-1 22.852117587728678 20.614454437577663 4.7724994052256893 0 0.85716730853699208 0.51503806187062418 1.5 0 0 1 I I #
point $-1 24.352117587728678 23.614173784896344 6.5749125670572699 #
edge $-1 $589 1 $589 0 $351 $-1 forward 7 unknown #
vertex $-1 $352 $590 #
ellipse-curve $-1 29.137924770119405 20.614454437577663 4.7724994052256893 0 0.85716730853699208 0.51503806187062418 1.5 0 0 1 I I #
point $-1 30.637924770119405 23.614173784896344 6.5749125670572699 #
plane-surface $-1 0 26.28037814477619 0 0 -1 0 0 0 -1 forward_v I I I I #
coedge $-1 $501 $591 $358 $498 reversed $356 $-1 #
coedge $-1 $367 $358 $359 $500 reversed $241 $-1 #
edge $-1 $505 -11.0122219318589 $592 11.0122219318589 $496 $593 forward 7 unknown #
coedge $-1 $360 $359 $591 $594 forward $151 $-1 #
edge $-1 $369 -46.183050019837033 $592 46.183050019837033 $497 $595 forward 7 unknown #
coedge $-1 $510 $496 $361 $502 reversed $356 $-1 #
edge $-1 $503 -26.28037814477619 $505 26.28037814477619 $501 $596 forward 7 unknown #
vertex $-1 $362 $597 #
straight-curve $-1 0 26.28037814477619 11.0122219318589 -1 0 0 I I #
vertex $-1 $502 $598 #
straight-curve $-1 0 -26.28037814477619 11.0122219318589 1 0 0 I I #
point $-1 46.183050019837033 -26.28037814477619 11.0122219318589 #
straight-curve $-1 46.183050019837033 -26.28037814477619 0 0 0 -1 I I #
point $-1 46.183050019837033 -26.28037814477619 -11.0122219318589 #
coedge $-1 $591 $501 $371 $511 forward $356 $-1 #
edge $-1 $503 -11.0122219318589 $512 11.0122219318589 $371 $599 forward 7 unknown #
vertex $-1 $372 $600 #
straight-curve $-1 0 26.28037814477619 -11.0122219318589 1 0 0 I I #
plane-surface $-1 0 -26.28037814477619 0 0 1 0 0 0 1 forward_v I I I I #
coedge $-1 $601 $528 $379 $517 forward $376 $-1 #
coedge $-1 $518 $378 $387 $526 forward $256 $-1 #
edge $-1 $521 -3.1805281135451238 $519 3.1805281135451238 $379 $602 forward 7 unknown #
coedge $-1 $380 $516 $601 $603 forward $256 $-1 #
vertex $-1 $381 $604 #
straight-curve $-1 -52.610343583898931 26.28037814477619 -3.0540909655032542 1 0 0 I I #
vertex $-1 $382 $605 #
straight-curve $-1 -52.610343583898931 26.28037814477619 3.3069652615869933 -1 0 0 I I #
point $-1 -46.183050019837033 26.28037814477619 -3.0540909655032542 #
straight-curve $-1 -46.183050019837033 0 -3.0540909655032542 0 1 0 I I #
coedge $-1 $387 $386 $606 $607 forward $388 $-1 #
edge $-1 $389 -6.4272935640618982 $608 6.4272935640618982 $387 $609 forward 7 unknown #
point $-1 -46.183050019837033 -26.28037814477619 -3.0540909655032542 #
coedge $-1 $515 $606 $391 $529 reversed $376 $-1 #
edge $-1 $521 -26.28037814477619 $530 26.28037814477619 $528 $610 forward 7 unknown #
vertex $-1 $529 $611 #
straight-curve $-1 -52.610343583898931 -26.28037814477619 3.3069652615869933 1 0 0 I I #
plane-surface $-1 0 26.28037814477619 0 0 -1 0 0 0 -1 forward_v I I I I #
coedge $-1 $535 $399 $401 $541 forward $396 $-1 #
coedge $-1 $398 $407 $410 $548 forward $270 $-1 #
coedge $-1 $537 $533 $398 $536 reversed $396 $-1 #
edge $-1 $612 -26.28037814477619 $542 26.28037814477619 $535 $613 forward 7 unknown #
coedge $-1 $399 $535 $547 $614 reversed $396 $-1 #
vertex $-1 $400 $615 #
vertex $-1 $400 $616 #
straight-curve $-1 59.03763714796083 0 3.3069652615869933 0 1 0 I I #
edge $-1 $538 -3.1805281135451238 $542 3.1805281135451238 $533 $617 forward 7 unknown #
vertex $-1 $541 $618 #
straight-curve $-1 52.610343583898931 -26.28037814477619 -3.0540909655032542 -1 0 0 I I #
straight-curve $-1 52.610343583898931 -26.28037814477619 3.3069652615869933 1 0 0 I I #
point $-1 46.183050019837033 -26.28037814477619 -3.0540909655032542 #
straight-curve $-1 46.183050019837033 0 -3.0540909655032542 0 -1 0 I I #
coedge $-1 $410 $409 $537 $614 forward $411 $-1 #
edge $-1 $412 -6.4272935640618982 $612 6.4272935640618982 $410 $619 forward 7 unknown #
point $-1 46.183050019837033 26.28037814477619 -3.0540909655032542 #
straight-curve $-1 52.610343583898931 26.28037814477619 3.3069652615869933 -1 0 0 I I #
coedge $-1 $428 $427 $420 $552 forward $417 $-1 #
edge $-1 $553 13.863565582075065 $556 19.904185099353619 $551 $620 forward 7 unknown #
vertex $-1 $432 $621 #
straight-curve $-1 -11.957907296429628 -53.532795107689573 11.0122219318589 0 -1 0 I I #
edge $-1 $556 -7.7157116787821636 $429 -0.76867955651276532 $428 $622 forward 7 unknown #
vertex $-1 $555 $623 #
straight-curve $-1 -11.957907296429628 -26.280378144776179 4.9716024145803672 0 0.48480960649040278 0.87461971476443456 I I #
point $-1 -11.957907296429628 -22.932008194164201 11.0122219318589 #
point $-1 -5.0108751741602298 -26.28037814477619 4.9716024145803477 #
straight-curve $-1 0 -26.28037814477619 11.0122219318589 1 0 0 I I #
vertex $-1 $435 $624 #
point $-1 -9.4730409757812311 -23.731573454705767 7.5071025667292339 #
vertex $-1 $439 $625 #
point $-1 -6.4957414948086338 -23.731573454705767 7.5071025667292339 #
edge $-1 $566 13.863565582075065 $569 19.904185099353619 $444 $626 forward 7 unknown #
vertex $-1 $458 $627 #
straight-curve $-1 5.0108751741602369 -53.532795107689573 11.0122219318589 0 -1 0 I I #
edge $-1 $569 0.76867955651276887 $455 7.7157116787821671 $454 $628 forward 7 unknown #
vertex $-1 $568 $629 #
straight-curve $-1 5.0108751741602369 -26.280378144776179 4.9716024145803672 0 0.48480960649040278 0.87461971476443456 I I #
point $-1 5.0108751741602369 -22.932008194164201 11.0122219318589 #
point $-1 11.957907296429635 -26.28037814477619 4.9716024145803477 #
straight-curve $-1 0 -26.28037814477619 11.0122219318589 1 0 0 I I #
vertex $-1 $461 $630 #
point $-1 7.4957414948086338 -23.731573454705767 7.5071025667292339 #
vertex $-1 $465 $631 #
point $-1 10.473040975781231 -23.731573454705767 7.5071025667292339 #
edge $-1 $579 36.369289244452062 $582 45.243907974055325 $470 $632 forward 7 unknown #
vertex $-1 $484 $633 #
straight-curve $-1 33.32846289171323 39.191394733008444 11.012221931858903 0 1 0 I I #
edge $-1 $582 -20.330952302251209 $481 -5.6640688766728324 $480 $634 forward 7 unknown #
vertex $-1 $581 $635 #
straight-curve $-1 33.32846289171323 -0.79041190504908343 47.190965205640019 0 -0.51503806187062418 0.85716730853699208 I I #
point $-1 33.32846289171323 20.947969425016499 11.012221931858896 #
point $-1 18.661579466134853 26.28037814477619 2.1376032022556402 #
straight-curve $-1 0 26.28037814477619 11.0122219318589 -1 0 0 I I #
vertex $-1 $487 $636 #
point $-1 24.352117587728678 20.614454437577663 4.7724994052256893 #
vertex $-1 $491 $637 #
point $-1 30.637924770119405 20.614454437577663 4.7724994052256893 #
coedge $-1 $496 $510 $499 $594 reversed $356 $-1 #
vertex $-1 $594 $638 #
straight-curve $-1 -46.183050019837033 -26.28037814477619 0 0 0 -1 I I #
edge $-1 $592 -26.28037814477619 $512 26.28037814477619 $591 $639 forward 7 unknown #
straight-curve $-1 0 -26.28037814477619 -11.0122219318589 -1 0 0 I I #
straight-curve $-1 -46.183050019837033 0 11.0122219318589 0 -1 0 I I #
point $-1 -46.183050019837033 26.28037814477619 11.0122219318589 #
point $-1 -46.183050019837033 -26.28037814477619 11.0122219318589 #
straight-curve $-1 -46.183050019837033 26.28037814477619 0 0 0 -1 I I #
point $-1 -46.183050019837033 26.28037814477619 -11.0122219318589 #
coedge $-1 $606 $515 $518 $603 reversed $376 $-1 #
straight-curve $-1 -59.03763714796083 26.28037814477619 0.12643714804186956 0 0 -1 I I #
edge $-1 $608 -26.28037814477619 $519 26.28037814477619 $601 $640 forward 7 unknown #
point $-1 -59.03763714796083 26.28037814477619 -3.0540909655032542 #
point $-1 -59.03763714796083 26.28037814477619 3.3069652615869933 #
coedge $-1 $528 $601 $525 $607 reversed $376 $-1 #
edge $-1 $530 -3.1805281135451238 $608 3.1805281135451238 $606 $641 forward 7 unknown #
vertex $-1 $603 $642 #
straight-curve $-1 -52.610343583898931 -26.28037814477619 -3.0540909655032542 -1 0 0 I I #
straight-curve $-1 -59.03763714796083 0 3.3069652615869933 0 -1 0 I I #
point $-1 -59.03763714796083 -26.28037814477619 3.3069652615869933 #
vertex $-1 $536 $643 #
straight-curve $-1 59.03763714796083 0 -3.0540909655032542 0 -1 0 I I #
edge $-1 $539 -3.1805281135451238 $612 3.1805281135451238 $537 $644 forward 7 unknown #
point $-1 59.03763714796083 -26.28037814477619 3.3069652615869933 #
point $-1 59.03763714796083 26.28037814477619 3.3069652615869933 #
straight-curve $-1 59.03763714796083 -26.28037814477619 0.12643714804186956 0 0 -1 I I #
point $-1 59.03763714796083 -26.28037814477619 -3.0540909655032542 #
straight-curve $-1 52.610343583898931 26.28037814477619 -3.0540909655032542 1 0 0 I I #
straight-curve $-1 -11.957907296429628 -26.280378144776193 24.875787513933965 0 0 -1 I I #
point $-1 -11.957907296429628 -26.28037814477619 11.0122219318589 #
straight-curve $-1 -4.2421956176474644 -26.28037814477619 4.9716024145803486 1 0 0 I I #
point $-1 -11.957907296429628 -26.28037814477619 4.9716024145803477 #
point $-1 -9.9730409757812311 -23.29426359732355 7.2646977634840333 #
point $-1 -6.9957414948086338 -23.29426359732355 7.2646977634840333 #
straight-curve $-1 5.0108751741602369 -26.280378144776193 24.875787513933965 0 0 -1 I I #
point $-1 5.0108751741602369 -26.28037814477619 11.0122219318589 #
straight-curve $-1 4.242195617647468 -26.28037814477619 4.9716024145803486 1 0 0 I I #
point $-1 5.0108751741602369 -26.28037814477619 4.9716024145803477 #
point $-1 6.9957414948086338 -23.29426359732355 7.2646977634840333 #
point $-1 9.9730409757812311 -23.29426359732355 7.2646977634840333 #
straight-curve $-1 33.32846289171323 26.28037814477619 47.381511176310966 0 0 -1 I I #
point $-1 33.32846289171323 26.28037814477619 11.0122219318589 #
straight-curve $-1 12.997510589462021 26.280378144776186 2.1376032022556366 -1 0 0 I I #
point $-1 33.32846289171323 26.28037814477619 2.1376032022556402 #
point $-1 22.852117587728678 19.328703474772176 3.9999423124197531 #
point $-1 29.137924770119405 19.328703474772176 3.9999423124197531 #
point $-1 -46.183050019837033 -26.28037814477619 -11.0122219318589 #
straight-curve $-1 -46.183050019837033 0 -11.0122219318589 0 1 0 I I #
straight-curve $-1 -59.03763714796083 0 -3.0540909655032542 0 1 0 I I #
straight-curve $-1 -59.03763714796083 -26.28037814477619 0.12643714804186956 0 0 -1 I I #
point $-1 -59.03763714796083 -26.28037814477619 -3.0540909655032542 #
point $-1 59.03763714796083 26.28037814477619 -3.0540909655032542 #
straight-curve $-1 59.03763714796083 26.28037814477619 0.12643714804186956 0 0 -1 I I #
End-of-ACIS-data 