500 0 14 0           
7 Unknown 11 ACIS 5.0 NT 24 Thu Mar 25 21:35:45 1999 
-1 9.9999999999999995e-007 1e-010 
body $-1 $14 $-1 $15 #
body $-1 $16 $-1 $17 #
body $-1 $18 $-1 $19 #
body $-1 $20 $-1 $21 #
body $-1 $22 $-1 $23 #
body $-1 $24 $-1 $25 #
body $-1 $26 $-1 $27 #
body $-1 $28 $-1 $29 #
body $-1 $30 $-1 $31 #
body $-1 $32 $-1 $33 #
body $-1 $34 $-1 $35 #
body $-1 $36 $-1 $37 #
body $-1 $38 $-1 $39 #
body $-1 $40 $-1 $41 #
lump $-1 $-1 $42 $0 #
transform $-1 1 0 0 0 1 0 0 0 1 42.078920865504926 22.284478706598318 4.5640097705652227 1 rotate no_reflect no_shear #
lump $-1 $-1 $43 $1 #
transform $-1 1 0 0 0 1 0 0 0 1 42.078920865504926 22.284478706598318 4.5640097705652227 1 rotate no_reflect no_shear #
lump $-1 $-1 $44 $2 #
transform $-1 1 0 0 0 1 0 0 0 1 42.078920865504926 22.284478706598318 4.5640097705652227 1 rotate no_reflect no_shear #
lump $-1 $-1 $45 $3 #
transform $-1 1 0 0 0 1 0 0 0 1 42.078920865504926 22.284478706598318 4.5640097705652227 1 rotate no_reflect no_shear #
lump $-1 $-1 $46 $4 #
transform $-1 1 0 0 0 1 0 0 0 1 42.078920865504926 22.284478706598318 4.5640097705652227 1 rotate no_reflect no_shear #
lump $-1 $-1 $47 $5 #
transform $-1 1 0 0 0 1 0 0 0 1 42.078920865504926 22.284478706598318 4.5640097705652227 1 rotate no_reflect no_shear #
lump $-1 $-1 $48 $6 #
transform $-1 1 0 0 0 1 0 0 0 1 42.078920865504926 22.284478706598318 4.5640097705652227 1 rotate no_reflect no_shear #
lump $-1 $-1 $49 $7 #
transform $-1 1 0 0 0 1 0 0 0 1 42.078920865504926 22.284478706598318 4.5640097705652227 1 rotate no_reflect no_shear #
lump $-1 $-1 $50 $8 #
transform $-1 1 0 0 0 1 0 0 0 1 42.078920865504926 22.284478706598318 4.5640097705652227 1 rotate no_reflect no_shear #
lump $-1 $-1 $51 $9 #
transform $-1 1 0 0 0 1 0 0 0 1 42.078920865504926 22.284478706598318 4.5640097705652227 1 rotate no_reflect no_shear #
lump $-1 $-1 $52 $10 #
transform $-1 1 0 0 0 1 0 0 0 1 42.078920865504926 22.284478706598318 4.5640097705652227 1 rotate no_reflect no_shear #
lump $-1 $-1 $53 $11 #
transform $-1 1 0 0 0 1 0 0 0 1 42.078920865504926 22.284478706598318 4.5640097705652227 1 rotate no_reflect no_shear #
lump $-1 $-1 $54 $12 #
transform $-1 1 0 0 0 1 0 0 0 1 42.078920865504926 22.284478706598318 4.5640097705652227 1 rotate no_reflect no_shear #
lump $-1 $-1 $55 $13 #
transform $-1 1 0 0 0 1 0 0 0 1 42.078920865504926 22.284478706598318 4.5640097705652227 1 rotate no_reflect no_shear #
shell $-1 $-1 $-1 $56 $-1 $14 #
shell $-1 $-1 $-1 $57 $-1 $16 #
shell $-1 $-1 $-1 $58 $-1 $18 #
shell $-1 $-1 $-1 $59 $-1 $20 #
shell $-1 $-1 $-1 $60 $-1 $22 #
shell $-1 $-1 $-1 $61 $-1 $24 #
shell $-1 $-1 $-1 $62 $-1 $26 #
shell $-1 $-1 $-1 $63 $-1 $28 #
shell $-1 $-1 $-1 $64 $-1 $30 #
shell $-1 $-1 $-1 $65 $-1 $32 #
shell $-1 $-1 $-1 $66 $-1 $34 #
shell $-1 $-1 $-1 $67 $-1 $36 #
shell $-1 $-1 $-1 $68 $-1 $38 #
shell $-1 $-1 $-1 $69 $-1 $40 #
face $-1 $70 $71 $42 $-1 $72 forward single #
face $-1 $73 $74 $43 $-1 $75 reversed single #
face $-1 $76 $77 $44 $-1 $78 reversed single #
face $-1 $79 $80 $45 $-1 $81 forward single #
face $-1 $82 $83 $46 $-1 $84 forward single #
face $-1 $85 $86 $47 $-1 $87 reversed single #
face $-1 $88 $89 $48 $-1 $90 forward single #
face $-1 $91 $92 $49 $-1 $93 forward single #
face $-1 $94 $95 $50 $-1 $96 reversed single #
face $-1 $97 $98 $51 $-1 $99 forward single #
face $-1 $100 $101 $52 $-1 $102 forward single #
face $-1 $103 $104 $53 $-1 $105 reversed single #
face $-1 $106 $107 $54 $-1 $108 forward single #
face $-1 $109 $110 $55 $-1 $111 forward single #
face $-1 $112 $113 $42 $-1 $114 reversed single #
loop $-1 $-1 $115 $56 #
plane-surface $-1 0 0 4.5640097705652227 0 0 1 1 0 0 forward_v I I I I #
face $-1 $116 $117 $43 $-1 $118 reversed single #
loop $-1 $-1 $119 $57 #
plane-surface $-1 -39.310654704248776 -17.470260773074347 0 0 1 0 0 0 1 forward_v I I I I #
face $-1 $120 $121 $44 $-1 $122 reversed single #
loop $-1 $-1 $123 $58 #
plane-surface $-1 -36.542388542992633 65.658844240813863 85.111773198233323 1 0 0 0 -0.81915205242281985 -0.57357642473473569 forward_v I I I I #
face $-1 $124 $125 $45 $-1 $126 forward single #
loop $-1 $127 $128 $59 #
cone-surface $-1 -32.14914621980671 20.028493579466161 1.9058212689167706 0 -0.81915205242281985 -0.57357642473473569 1 0 0 1 I I 0 1 1 forward I I I I #
face $-1 $129 $130 $46 $-1 $131 forward single #
loop $-1 $132 $133 $60 #
cone-surface $-1 -25.559282735027832 20.028493579466161 1.9058212689167706 0 -0.81915205242281985 -0.57357642473473569 1 0 0 1 I I 0 1 1 forward I I I I #
face $-1 $134 $135 $47 $-1 $136 reversed single #
loop $-1 $-1 $137 $61 #
plane-surface $-1 2.7682661612561432 65.658844240813863 85.111773198233323 1 0 0 0 -0.81915205242281985 -0.57357642473473569 forward_v I I I I #
face $-1 $138 $139 $48 $-1 $140 forward single #
loop $-1 $141 $142 $62 #
cone-surface $-1 7.1615084844420664 20.028493579466161 1.9058212689167706 0 -0.81915205242281985 -0.57357642473473569 1 0 0 1 I I 0 1 1 forward I I I I #
face $-1 $143 $144 $49 $-1 $145 forward single #
loop $-1 $146 $147 $63 #
cone-surface $-1 13.751371969220941 20.028493579466161 1.9058212689167706 0 -0.81915205242281985 -0.57357642473473569 1 0 0 1 I I 0 1 1 forward I I I I #
face $-1 $148 $149 $50 $-1 $150 reversed single #
loop $-1 $-1 $151 $64 #
plane-surface $-1 -21.166040411841912 -91.222547488029889 48.60302025886805 -1 0 0 0 -0.81915205242281985 0.57357642473473569 forward_v I I I I #
face $-1 $152 $153 $51 $-1 $154 forward single #
loop $-1 $155 $156 $65 #
cone-surface $-1 -32.14914621980671 -20.028493579466161 1.9058212689167653 0 0.81915205242281985 -0.57357642473473569 1 0 0 1 I I 0 1 1 forward I I I I #
face $-1 $157 $158 $52 $-1 $159 forward single #
loop $-1 $160 $161 $66 #
cone-surface $-1 -25.559282735027832 -20.028493579466161 1.9058212689167653 0 0.81915205242281985 -0.57357642473473569 1 0 0 1 I I 0 1 1 forward I I I I #
face $-1 $162 $163 $53 $-1 $164 reversed single #
loop $-1 $-1 $165 $67 #
plane-surface $-1 18.144614292406864 -91.222547488029889 48.60302025886805 -1 0 0 0 -0.81915205242281985 0.57357642473473569 forward_v I I I I #
face $-1 $166 $167 $54 $-1 $168 forward single #
loop $-1 $169 $170 $68 #
cone-surface $-1 7.1615084844420664 -20.028493579466161 1.9058212689167653 0 0.81915205242281985 -0.57357642473473569 1 0 0 1 I I 0 1 1 forward I I I I #
face $-1 $171 $172 $55 $-1 $173 forward single #
loop $-1 $174 $175 $69 #
cone-surface $-1 13.751371969220941 -20.028493579466161 1.9058212689167653 0 0.81915205242281985 -0.57357642473473569 1 0 0 1 I I 0 1 1 forward I I I I #
face $-1 $176 $177 $42 $-1 $178 reversed single #
loop $-1 $-1 $179 $70 #
plane-surface $-1 0 0 -4.5640097705652227 0 0 1 1 0 0 forward_v I I I I #
coedge $-1 $180 $181 $182 $183 forward $71 $-1 #
face $-1 $184 $185 $43 $-1 $186 reversed single #
loop $-1 $-1 $187 $73 #
plane-surface $-1 -39.310654704248776 -14.470260773074347 0 0 -1 0 0 0 -1 forward_v I I I I #
coedge $-1 $188 $189 $190 $191 reversed $74 $-1 #
face $-1 $192 $193 $44 $-1 $194 reversed single #
loop $-1 $-1 $195 $76 #
plane-surface $-1 -28.854214477417273 -3.2792245406176903 36.84081922476895 0 0.81915205242281985 0.57357642473473569 1 0 0 forward_v I I I I #
coedge $-1 $196 $197 $198 $199 reversed $77 $-1 #
face $-1 $-1 $200 $45 $-1 $201 forward single #
loop $-1 $202 $203 $79 #
cone-surface $-1 -32.14914621980671 18.844551746198167 1.0768162974817184 0 -0.81915205242281985 -0.57357642473473569 0.5 0 0 1 I I -0.70710678118654746 0.70710678118654746 0.5 forward I I I I #
loop $-1 $-1 $204 $59 #
coedge $-1 $128 $128 $205 $206 reversed $80 $-1 #
face $-1 $-1 $207 $46 $-1 $208 forward single #
loop $-1 $209 $210 $82 #
cone-surface $-1 -25.559282735027832 18.844551746198167 1.0768162974817184 0 -0.81915205242281985 -0.57357642473473569 0.5 0 0 1 I I -0.70710678118654746 0.70710678118654746 0.5 forward I I I I #
loop $-1 $-1 $211 $60 #
coedge $-1 $133 $133 $212 $213 reversed $83 $-1 #
face $-1 $214 $215 $47 $-1 $216 reversed single #
loop $-1 $-1 $217 $85 #
plane-surface $-1 10.456440226831504 -3.2792245406176903 36.84081922476895 0 0.81915205242281985 0.57357642473473569 1 0 0 forward_v I I I I #
coedge $-1 $218 $219 $220 $221 reversed $86 $-1 #
face $-1 $-1 $222 $48 $-1 $223 forward single #
loop $-1 $224 $225 $88 #
cone-surface $-1 7.1615084844420664 18.844551746198167 1.0768162974817184 0 -0.81915205242281985 -0.57357642473473569 0.5 0 0 1 I I -0.70710678118654746 0.70710678118654746 0.5 forward I I I I #
loop $-1 $-1 $226 $62 #
coedge $-1 $142 $142 $227 $228 reversed $89 $-1 #
face $-1 $-1 $229 $49 $-1 $230 forward single #
loop $-1 $231 $232 $91 #
cone-surface $-1 13.751371969220941 18.844551746198167 1.0768162974817184 0 -0.81915205242281985 -0.57357642473473569 0.5 0 0 1 I I -0.70710678118654746 0.70710678118654746 0.5 forward I I I I #
loop $-1 $-1 $233 $63 #
coedge $-1 $147 $147 $234 $235 reversed $92 $-1 #
face $-1 $236 $237 $50 $-1 $238 reversed single #
loop $-1 $-1 $239 $94 #
plane-surface $-1 -28.854214477417273 -22.284478706598335 0.33206628540367689 0 -0.81915205242281985 0.57357642473473569 1 0 0 forward_v I I I I #
coedge $-1 $240 $241 $242 $243 reversed $95 $-1 #
face $-1 $-1 $244 $51 $-1 $245 forward single #
loop $-1 $246 $247 $97 #
cone-surface $-1 -32.14914621980671 -18.844551746198167 1.076816297481713 0 0.81915205242281985 -0.57357642473473569 0.5 0 0 1 I I -0.70710678118654746 0.70710678118654746 0.5 forward I I I I #
loop $-1 $-1 $248 $65 #
coedge $-1 $156 $156 $249 $250 reversed $98 $-1 #
face $-1 $-1 $251 $52 $-1 $252 forward single #
loop $-1 $253 $254 $100 #
cone-surface $-1 -25.559282735027832 -18.844551746198167 1.076816297481713 0 0.81915205242281985 -0.57357642473473569 0.5 0 0 1 I I -0.70710678118654746 0.70710678118654746 0.5 forward I I I I #
loop $-1 $-1 $255 $66 #
coedge $-1 $161 $161 $256 $257 reversed $101 $-1 #
face $-1 $258 $259 $53 $-1 $260 reversed single #
loop $-1 $-1 $261 $103 #
plane-surface $-1 10.456440226831504 -22.284478706598335 0.33206628540367689 0 -0.81915205242281985 0.57357642473473569 1 0 0 forward_v I I I I #
coedge $-1 $262 $263 $264 $265 reversed $104 $-1 #
face $-1 $-1 $266 $54 $-1 $267 forward single #
loop $-1 $268 $269 $106 #
cone-surface $-1 7.1615084844420664 -18.844551746198167 1.076816297481713 0 0.81915205242281985 -0.57357642473473569 0.5 0 0 1 I I -0.70710678118654746 0.70710678118654746 0.5 forward I I I I #
loop $-1 $-1 $270 $68 #
coedge $-1 $170 $170 $271 $272 reversed $107 $-1 #
face $-1 $-1 $273 $55 $-1 $274 forward single #
loop $-1 $275 $276 $109 #
cone-surface $-1 13.751371969220941 -18.844551746198167 1.076816297481713 0 0.81915205242281985 -0.57357642473473569 0.5 0 0 1 I I -0.70710678118654746 0.70710678118654746 0.5 forward I I I I #
loop $-1 $-1 $277 $69 #
coedge $-1 $175 $175 $278 $279 reversed $110 $-1 #
face $-1 $280 $281 $42 $-1 $282 reversed single #
loop $-1 $-1 $283 $112 #
plane-surface $-1 0 -22.284478706598318 0 0 1 0 0 0 1 forward_v I I I I #
coedge $-1 $284 $285 $286 $287 forward $113 $-1 #
coedge $-1 $288 $115 $289 $290 forward $71 $-1 #
coedge $-1 $115 $288 $291 $292 forward $71 $-1 #
coedge $-1 $293 $294 $115 $183 reversed $295 $-1 #
edge $-1 $296 -22.284478706598318 $297 22.284478706598318 $182 $298 forward 7 unknown #
face $-1 $299 $300 $43 $-1 $301 reversed single #
loop $-1 $-1 $302 $116 #
plane-surface $-1 -36.542388542992626 -15.970260773074347 0 -1 0 0 0 0 1 forward_v I I I I #
coedge $-1 $303 $304 $305 $306 forward $117 $-1 #
coedge $-1 $307 $119 $308 $309 reversed $74 $-1 #
coedge $-1 $119 $307 $310 $311 reversed $74 $-1 #
coedge $-1 $312 $313 $119 $191 forward $314 $-1 #
edge $-1 $315 -4.5640097705652227 $316 4.5640097705652227 $190 $317 forward 7 unknown #
face $-1 $318 $319 $44 $-1 $320 reversed single #
loop $-1 $-1 $321 $120 #
plane-surface $-1 -21.166040411841912 65.658844240813863 85.111773198233323 -1 0 0 0 0.81915205242281985 0.57357642473473569 forward_v I I I I #
coedge $-1 $322 $323 $324 $325 reversed $121 $-1 #
coedge $-1 $197 $123 $326 $327 reversed $77 $-1 #
coedge $-1 $123 $196 $322 $328 reversed $77 $-1 #
coedge $-1 $324 $329 $123 $199 forward $330 $-1 #
edge $-1 $331 10.544943413808614 $332 13.50818205395975 $198 $333 forward 7 unknown #
loop $-1 $-1 $205 $124 #
plane-surface $-1 -28.854214477417273 -3.2792245406176903 36.84081922476895 0 0.81915205242281985 0.57357642473473569 1 0 0 forward_v I I I I #
loop $-1 $-1 $334 $79 #
coedge $-1 $203 $203 $204 $335 reversed $125 $-1 #
coedge $-1 $204 $204 $203 $335 forward $127 $-1 #
coedge $-1 $205 $205 $128 $206 forward $200 $-1 #
edge $-1 $336 5.0868330395996885e-016 $336 6.2831853071796013 $205 $337 forward 7 unknown #
loop $-1 $-1 $212 $129 #
plane-surface $-1 -28.854214477417273 -3.2792245406176903 36.84081922476895 0 0.81915205242281985 0.57357642473473569 1 0 0 forward_v I I I I #
loop $-1 $-1 $338 $82 #
coedge $-1 $210 $210 $211 $339 reversed $130 $-1 #
coedge $-1 $211 $211 $210 $339 forward $132 $-1 #
coedge $-1 $212 $212 $133 $213 forward $207 $-1 #
edge $-1 $340 5.0868330395996885e-016 $340 6.2831853071796013 $212 $341 forward 7 unknown #
face $-1 $342 $343 $47 $-1 $344 forward single #
loop $-1 $-1 $345 $134 #
plane-surface $-1 18.144614292406864 65.658844240813863 85.111773198233323 -1 0 0 0 0.81915205242281985 0.57357642473473569 forward_v I I I I #
coedge $-1 $346 $347 $348 $349 reversed $135 $-1 #
coedge $-1 $219 $137 $350 $351 reversed $86 $-1 #
coedge $-1 $137 $218 $346 $352 reversed $86 $-1 #
coedge $-1 $348 $353 $137 $221 forward $343 $-1 #
edge $-1 $354 10.544943413808614 $355 13.50818205395975 $220 $356 forward 7 unknown #
loop $-1 $-1 $227 $138 #
plane-surface $-1 10.456440226831504 -3.2792245406176903 36.84081922476895 0 0.81915205242281985 0.57357642473473569 1 0 0 forward_v I I I I #
loop $-1 $-1 $357 $88 #
coedge $-1 $225 $225 $226 $358 reversed $139 $-1 #
coedge $-1 $226 $226 $225 $358 forward $141 $-1 #
coedge $-1 $227 $227 $142 $228 forward $222 $-1 #
edge $-1 $359 5.0868330395996885e-016 $359 6.2831853071796013 $227 $360 forward 7 unknown #
loop $-1 $-1 $234 $143 #
plane-surface $-1 10.456440226831504 -3.2792245406176903 36.84081922476895 0 0.81915205242281985 0.57357642473473569 1 0 0 forward_v I I I I #
loop $-1 $-1 $361 $91 #
coedge $-1 $232 $232 $233 $362 reversed $144 $-1 #
coedge $-1 $233 $233 $232 $362 forward $146 $-1 #
coedge $-1 $234 $234 $147 $235 forward $229 $-1 #
edge $-1 $363 5.0868330395996885e-016 $363 6.2831853071796013 $234 $364 forward 7 unknown #
face $-1 $365 $366 $50 $-1 $367 forward single #
loop $-1 $-1 $368 $148 #
plane-surface $-1 -36.542388542992633 -91.222547488029889 48.60302025886805 1 0 0 0 0.81915205242281985 -0.57357642473473569 forward_v I I I I #
coedge $-1 $369 $370 $371 $372 reversed $149 $-1 #
coedge $-1 $241 $151 $373 $374 reversed $95 $-1 #
coedge $-1 $151 $240 $369 $375 reversed $95 $-1 #
coedge $-1 $371 $376 $151 $243 forward $366 $-1 #
edge $-1 $377 23.326795037416627 $378 26.290033677567756 $242 $379 forward 7 unknown #
loop $-1 $-1 $249 $152 #
plane-surface $-1 -28.854214477417273 -22.284478706598335 0.33206628540367689 0 -0.81915205242281985 0.57357642473473569 1 0 0 forward_v I I I I #
loop $-1 $-1 $380 $97 #
coedge $-1 $247 $247 $248 $381 reversed $153 $-1 #
coedge $-1 $248 $248 $247 $381 forward $155 $-1 #
coedge $-1 $249 $249 $156 $250 forward $244 $-1 #
edge $-1 $382 8.754794858201828e-016 $382 6.2831853071796013 $249 $383 forward 7 unknown #
loop $-1 $-1 $256 $157 #
plane-surface $-1 -28.854214477417273 -22.284478706598335 0.33206628540367689 0 -0.81915205242281985 0.57357642473473569 1 0 0 forward_v I I I I #
loop $-1 $-1 $384 $100 #
coedge $-1 $254 $254 $255 $385 reversed $158 $-1 #
coedge $-1 $255 $255 $254 $385 forward $160 $-1 #
coedge $-1 $256 $256 $161 $257 forward $251 $-1 #
edge $-1 $386 8.754794858201828e-016 $386 6.2831853071796013 $256 $387 forward 7 unknown #
face $-1 $388 $389 $53 $-1 $390 reversed single #
loop $-1 $-1 $391 $162 #
plane-surface $-1 2.7682661612561432 -91.222547488029889 48.60302025886805 1 0 0 0 0.81915205242281985 -0.57357642473473569 forward_v I I I I #
coedge $-1 $392 $393 $394 $395 reversed $163 $-1 #
coedge $-1 $263 $165 $396 $397 reversed $104 $-1 #
coedge $-1 $165 $262 $392 $398 reversed $104 $-1 #
coedge $-1 $394 $399 $165 $265 forward $400 $-1 #
edge $-1 $401 23.326795037416627 $402 26.290033677567756 $264 $403 forward 7 unknown #
loop $-1 $-1 $271 $166 #
plane-surface $-1 10.456440226831504 -22.284478706598335 0.33206628540367689 0 -0.81915205242281985 0.57357642473473569 1 0 0 forward_v I I I I #
loop $-1 $-1 $404 $106 #
coedge $-1 $269 $269 $270 $405 reversed $167 $-1 #
coedge $-1 $270 $270 $269 $405 forward $169 $-1 #
coedge $-1 $271 $271 $170 $272 forward $266 $-1 #
edge $-1 $406 8.754794858201828e-016 $406 6.2831853071796013 $271 $407 forward 7 unknown #
loop $-1 $-1 $278 $171 #
plane-surface $-1 10.456440226831504 -22.284478706598335 0.33206628540367689 0 -0.81915205242281985 0.57357642473473569 1 0 0 forward_v I I I I #
loop $-1 $-1 $408 $109 #
coedge $-1 $276 $276 $277 $409 reversed $172 $-1 #
coedge $-1 $277 $277 $276 $409 forward $174 $-1 #
coedge $-1 $278 $278 $175 $279 forward $273 $-1 #
edge $-1 $410 8.754794858201828e-016 $410 6.2831853071796013 $278 $411 forward 7 unknown #
face $-1 $412 $413 $42 $-1 $414 reversed single #
loop $-1 $-1 $415 $176 #
plane-surface $-1 -42.078920865504926 0 0 1 0 0 0 0 -1 forward_v I I I I #
coedge $-1 $416 $291 $417 $418 forward $177 $-1 #
coedge $-1 $419 $179 $416 $420 forward $113 $-1 #
coedge $-1 $179 $419 $421 $422 forward $113 $-1 #
coedge $-1 $294 $293 $179 $287 reversed $295 $-1 #
edge $-1 $423 -22.284478706598318 $424 22.284478706598318 $286 $425 forward 7 unknown #
coedge $-1 $181 $180 $426 $427 forward $71 $-1 #
coedge $-1 $428 $429 $180 $290 reversed $413 $-1 #
edge $-1 $297 -42.078920865504926 $430 42.078920865504926 $289 $431 forward 7 unknown #
coedge $-1 $283 $432 $181 $292 reversed $177 $-1 #
edge $-1 $433 -42.078920865504926 $296 42.078920865504926 $291 $434 forward 7 unknown #
coedge $-1 $286 $182 $432 $435 forward $295 $-1 #
coedge $-1 $182 $286 $428 $436 reversed $295 $-1 #
loop $-1 $-1 $293 $412 #
vertex $-1 $183 $437 #
vertex $-1 $183 $438 #
straight-curve $-1 42.078920865504926 0 4.5640097705652227 0 1 0 I I #
face $-1 $439 $440 $43 $-1 $441 forward single #
loop $-1 $-1 $442 $184 #
plane-surface $-1 0 0 -4.5640097705652227 0 0 1 1 0 0 forward_v I I I I #
coedge $-1 $443 $444 $307 $445 forward $185 $-1 #
coedge $-1 $446 $187 $442 $447 reversed $117 $-1 #
coedge $-1 $187 $446 $448 $449 reversed $117 $-1 #
coedge $-1 $444 $443 $187 $306 reversed $185 $-1 #
edge $-1 $450 -4.5640097705652227 $451 4.5640097705652227 $305 $452 forward 7 unknown #
coedge $-1 $189 $188 $302 $445 reversed $74 $-1 #
coedge $-1 $453 $454 $188 $309 forward $300 $-1 #
edge $-1 $455 16.887061190868238 $315 22.423593513380538 $308 $456 forward 7 unknown #
coedge $-1 $457 $458 $189 $311 forward $440 $-1 #
edge $-1 $316 -22.423593513380538 $459 -16.887061190868238 $310 $460 forward 7 unknown #
coedge $-1 $461 $190 $458 $462 reversed $314 $-1 #
coedge $-1 $190 $461 $453 $463 reversed $314 $-1 #
loop $-1 $-1 $461 $439 #
vertex $-1 $463 $464 #
vertex $-1 $191 $465 #
straight-curve $-1 -42.078920865504926 -17.470260773074347 0 0 0 1 I I #
face $-1 $-1 $330 $44 $-1 $466 forward single #
loop $-1 $-1 $467 $192 #
plane-surface $-1 0 22.284478706598318 0 0 -1 0 0 0 -1 forward_v I I I I #
coedge $-1 $468 $469 $470 $471 reversed $193 $-1 #
coedge $-1 $472 $195 $197 $328 forward $121 $-1 #
coedge $-1 $195 $472 $468 $473 forward $121 $-1 #
coedge $-1 $470 $198 $195 $325 forward $330 $-1 #
edge $-1 $332 -22.115281304283997 $474 -6.738933173133276 $324 $475 forward 7 unknown #
coedge $-1 $476 $477 $196 $327 forward $319 $-1 #
edge $-1 $478 -42.22382031371297 $331 -37.99187682855144 $326 $479 forward 7 unknown #
edge $-1 $332 39.402708396735463 $478 44.568957413196621 $197 $480 forward 7 unknown #
coedge $-1 $198 $470 $476 $481 forward $330 $-1 #
loop $-1 $-1 $470 $318 #
vertex $-1 $327 $482 #
vertex $-1 $199 $483 #
straight-curve $-1 -36.542388542992633 32.829422120406932 4.5640097705652209 0 -1 0 I I #
coedge $-1 $334 $334 $-1 $484 reversed $202 $-1 #
edge $-1 $485 0 $485 6.2831853071796004 $203 $486 forward 7 unknown #
vertex $-1 $206 $487 #
ellipse-curve $-1 -32.14914621980671 20.802859386522748 2.4480380279844578 0 0.81915205242281985 0.57357642473473569 1 0 0 1 I I #
coedge $-1 $338 $338 $-1 $488 reversed $209 $-1 #
edge $-1 $489 0 $489 6.2831853071796004 $210 $490 forward 7 unknown #
vertex $-1 $213 $491 #
ellipse-curve $-1 -25.559282735027832 20.802859386522748 2.4480380279844578 0 0.81915205242281985 0.57357642473473569 1 0 0 1 I I #
face $-1 $-1 $492 $47 $-1 $493 reversed single #
loop $-1 $-1 $220 $214 #
plane-surface $-1 0 0 4.5640097705652227 0 0 1 1 0 0 forward_v I I I I #
coedge $-1 $494 $495 $496 $497 reversed $215 $-1 #
coedge $-1 $498 $217 $219 $352 forward $135 $-1 #
coedge $-1 $217 $498 $494 $499 forward $135 $-1 #
coedge $-1 $496 $220 $217 $349 forward $343 $-1 #
edge $-1 $355 -2.4599539521596085 $500 12.916394178991112 $348 $501 forward 7 unknown #
coedge $-1 $502 $503 $218 $351 forward $492 $-1 #
edge $-1 $504 -42.22382031371297 $354 -37.99187682855144 $350 $505 forward 7 unknown #
edge $-1 $355 39.402708396735463 $504 44.568957413196621 $219 $506 forward 7 unknown #
coedge $-1 $220 $496 $502 $507 forward $343 $-1 #
vertex $-1 $351 $508 #
vertex $-1 $221 $509 #
straight-curve $-1 2.7682661612561432 32.829422120406932 4.5640097705652209 0 -1 0 I I #
coedge $-1 $357 $357 $-1 $510 reversed $224 $-1 #
edge $-1 $511 0 $511 6.2831853071796004 $225 $512 forward 7 unknown #
vertex $-1 $228 $513 #
ellipse-curve $-1 7.1615084844420664 20.802859386522748 2.4480380279844578 0 0.81915205242281985 0.57357642473473569 1 0 0 1 I I #
coedge $-1 $361 $361 $-1 $514 reversed $231 $-1 #
edge $-1 $515 0 $515 6.2831853071796004 $232 $516 forward 7 unknown #
vertex $-1 $235 $517 #
ellipse-curve $-1 13.751371969220941 20.802859386522748 2.4480380279844578 0 0.81915205242281985 0.57357642473473569 1 0 0 1 I I #
face $-1 $-1 $518 $50 $-1 $519 reversed single #
loop $-1 $-1 $242 $236 #
plane-surface $-1 0 0 4.5640097705652227 0 0 1 1 0 0 forward_v I I I I #
coedge $-1 $520 $521 $522 $523 reversed $237 $-1 #
coedge $-1 $524 $239 $241 $375 forward $149 $-1 #
coedge $-1 $239 $524 $520 $525 forward $149 $-1 #
coedge $-1 $522 $242 $239 $372 forward $366 $-1 #
edge $-1 $378 6.738933173133276 $526 22.115281304283997 $371 $527 forward 7 unknown #
coedge $-1 $528 $529 $240 $374 forward $518 $-1 #
edge $-1 $530 -23.969443844030323 $377 -19.7375003588688 $373 $531 forward 7 unknown #
edge $-1 $378 -5.1662490164611761 $530 -3.0969501622754252e-014 $241 $532 forward 7 unknown #
coedge $-1 $242 $522 $528 $533 forward $366 $-1 #
vertex $-1 $374 $534 #
vertex $-1 $243 $535 #
straight-curve $-1 -21.166040411841912 -45.611273744014944 4.5640097705652245 0 1 0 I I #
coedge $-1 $380 $380 $-1 $536 reversed $246 $-1 #
edge $-1 $537 0 $537 6.2831853071796004 $247 $538 forward 7 unknown #
vertex $-1 $250 $539 #
ellipse-curve $-1 -32.14914621980671 -20.802859386522758 2.4480380279844582 0 -0.81915205242281985 0.57357642473473569 1 0 0 1 I I #
coedge $-1 $384 $384 $-1 $540 reversed $253 $-1 #
edge $-1 $541 0 $541 6.2831853071796004 $254 $542 forward 7 unknown #
vertex $-1 $257 $543 #
ellipse-curve $-1 -25.559282735027832 -20.802859386522758 2.4480380279844582 0 -0.81915205242281985 0.57357642473473569 1 0 0 1 I I #
face $-1 $-1 $400 $53 $-1 $544 forward single #
loop $-1 $-1 $545 $258 #
plane-surface $-1 0 -22.284478706598318 0 0 1 0 0 0 1 forward_v I I I I #
coedge $-1 $546 $547 $548 $549 reversed $259 $-1 #
coedge $-1 $550 $261 $263 $398 forward $163 $-1 #
coedge $-1 $261 $550 $546 $551 forward $163 $-1 #
coedge $-1 $548 $264 $261 $395 forward $400 $-1 #
edge $-1 $402 -12.916394178991112 $552 2.4599539521596085 $394 $553 forward 7 unknown #
coedge $-1 $554 $555 $262 $397 forward $389 $-1 #
edge $-1 $556 -23.969443844030323 $401 -19.7375003588688 $396 $557 forward 7 unknown #
edge $-1 $402 -5.1662490164611761 $556 -3.0969501622754252e-014 $263 $558 forward 7 unknown #
coedge $-1 $264 $548 $554 $559 forward $400 $-1 #
loop $-1 $-1 $548 $388 #
vertex $-1 $397 $560 #
vertex $-1 $265 $561 #
straight-curve $-1 18.144614292406864 -45.611273744014944 4.5640097705652245 0 1 0 I I #
coedge $-1 $404 $404 $-1 $562 reversed $268 $-1 #
edge $-1 $563 0 $563 6.2831853071796004 $269 $564 forward 7 unknown #
vertex $-1 $272 $565 #
ellipse-curve $-1 7.1615084844420664 -20.802859386522758 2.4480380279844582 0 -0.81915205242281985 0.57357642473473569 1 0 0 1 I I #
coedge $-1 $408 $408 $-1 $566 reversed $275 $-1 #
edge $-1 $567 0 $567 6.2831853071796004 $276 $568 forward 7 unknown #
vertex $-1 $279 $569 #
ellipse-curve $-1 13.751371969220941 -20.802859386522758 2.4480380279844582 0 -0.81915205242281985 0.57357642473473569 1 0 0 1 I I #
face $-1 $-1 $295 $42 $-1 $570 reversed single #
loop $-1 $-1 $428 $280 #
plane-surface $-1 0 22.284478706598318 0 0 -1 0 0 0 -1 forward_v I I I I #
coedge $-1 $571 $426 $429 $572 forward $281 $-1 #
coedge $-1 $432 $283 $284 $420 reversed $177 $-1 #
coedge $-1 $426 $571 $283 $418 reversed $281 $-1 #
edge $-1 $433 -4.5640097705652227 $573 4.5640097705652227 $417 $574 forward 7 unknown #
coedge $-1 $285 $284 $571 $575 forward $113 $-1 #
edge $-1 $424 -42.078920865504926 $573 42.078920865504926 $416 $576 forward 7 unknown #
coedge $-1 $429 $428 $285 $422 reversed $413 $-1 #
edge $-1 $577 -42.078920865504926 $423 42.078920865504926 $421 $578 forward 7 unknown #
vertex $-1 $287 $579 #
vertex $-1 $435 $580 #
straight-curve $-1 42.078920865504926 0 -4.5640097705652227 0 -1 0 I I #
coedge $-1 $415 $417 $288 $427 reversed $281 $-1 #
edge $-1 $430 -22.284478706598318 $433 22.284478706598318 $426 $581 forward 7 unknown #
coedge $-1 $421 $289 $294 $436 forward $413 $-1 #
coedge $-1 $289 $421 $415 $572 reversed $413 $-1 #
vertex $-1 $290 $582 #
straight-curve $-1 0 22.284478706598318 4.5640097705652227 -1 0 0 I I #
coedge $-1 $291 $416 $293 $435 reversed $177 $-1 #
vertex $-1 $427 $583 #
straight-curve $-1 0 -22.284478706598318 4.5640097705652227 1 0 0 I I #
edge $-1 $296 -4.5640097705652227 $424 4.5640097705652227 $293 $584 forward 7 unknown #
edge $-1 $297 -4.5640097705652227 $423 4.5640097705652227 $294 $585 forward 7 unknown #
point $-1 42.078920865504926 -22.284478706598318 4.5640097705652227 #
point $-1 42.078920865504926 22.284478706598318 4.5640097705652227 #
face $-1 $-1 $314 $43 $-1 $586 reversed single #
loop $-1 $-1 $448 $299 #
plane-surface $-1 0 0 4.5640097705652227 0 0 1 1 0 0 forward_v I I I I #
coedge $-1 $454 $453 $303 $447 forward $300 $-1 #
coedge $-1 $305 $302 $454 $587 reversed $185 $-1 #
coedge $-1 $302 $305 $457 $588 reversed $185 $-1 #
edge $-1 $459 -4.5640097705652227 $455 4.5640097705652227 $302 $589 forward 7 unknown #
coedge $-1 $304 $303 $461 $590 reversed $117 $-1 #
edge $-1 $591 -22.423593513380538 $451 -16.887061190868238 $442 $592 forward 7 unknown #
coedge $-1 $458 $457 $304 $449 forward $440 $-1 #
edge $-1 $450 16.887061190868238 $593 22.423593513380538 $448 $594 forward 7 unknown #
vertex $-1 $449 $595 #
vertex $-1 $447 $596 #
straight-curve $-1 -36.542388542992626 -14.470260773074347 0 0 0 -1 I I #
coedge $-1 $442 $308 $313 $463 forward $300 $-1 #
coedge $-1 $308 $442 $443 $587 forward $300 $-1 #
vertex $-1 $309 $597 #
straight-curve $-1 -19.655327352124388 -17.470260773074347 -4.5640097705652227 -1 0 0 I I #
coedge $-1 $448 $310 $444 $588 forward $440 $-1 #
coedge $-1 $310 $448 $312 $462 forward $440 $-1 #
vertex $-1 $311 $598 #
straight-curve $-1 -19.655327352124388 -17.470260773074347 4.5640097705652227 1 0 0 I I #
coedge $-1 $313 $312 $446 $590 forward $314 $-1 #
edge $-1 $593 14.470260773074347 $316 17.470260773074347 $312 $599 forward 7 unknown #
edge $-1 $315 -17.470260773074347 $591 -14.470260773074347 $313 $600 forward 7 unknown #
point $-1 -42.078920865504926 -17.470260773074347 -4.5640097705652227 #
point $-1 -42.078920865504926 -17.470260773074347 4.5640097705652227 #
plane-surface $-1 0 0 4.5640097705652227 0 0 1 1 0 0 forward_v I I I I #
coedge $-1 $477 $476 $469 $601 forward $319 $-1 #
coedge $-1 $469 $321 $323 $473 reversed $193 $-1 #
coedge $-1 $321 $468 $467 $601 reversed $193 $-1 #
coedge $-1 $329 $324 $321 $471 forward $330 $-1 #
edge $-1 $474 -13.50818205395975 $602 -10.544943413808614 $470 $603 forward 7 unknown #
coedge $-1 $323 $322 $477 $604 reversed $121 $-1 #
edge $-1 $605 -44.568957413196621 $474 -39.402708396735463 $468 $606 forward 7 unknown #
vertex $-1 $325 $607 #
straight-curve $-1 -14.427107238708636 19.321240066447182 4.5640097705652209 1 0 0 I I #
coedge $-1 $467 $326 $329 $481 reversed $319 $-1 #
coedge $-1 $326 $467 $472 $604 forward $319 $-1 #
vertex $-1 $327 $608 #
straight-curve $-1 -36.542388542992633 22.284478706598318 42.555886599116661 0 0 1 I I #
straight-curve $-1 -36.542388542992633 -3.2792245406176903 36.84081922476895 0 0.57357642473473569 -0.81915205242281985 I I #
edge $-1 $602 21.166040411841912 $331 36.542388542992633 $476 $609 forward 7 unknown #
point $-1 -36.542388542992633 22.284478706598318 4.5640097705652227 #
point $-1 -36.542388542992633 19.321240066447182 4.5640097705652209 #
edge $-1 $610 1 $610 0 $334 $-1 forward 7 unknown #
vertex $-1 $335 $611 #
ellipse-curve $-1 -32.14914621980671 19.254127772409579 1.3636045098490861 0 0.81915205242281985 0.57357642473473569 1 0 0 1 I I #
point $-1 -31.14914621980671 20.802859386522744 2.4480380279844547 #
edge $-1 $612 1 $612 0 $338 $-1 forward 7 unknown #
vertex $-1 $339 $613 #
ellipse-curve $-1 -25.559282735027832 19.254127772409579 1.3636045098490861 0 0.81915205242281985 0.57357642473473569 1 0 0 1 I I #
point $-1 -24.559282735027832 20.802859386522744 2.4480380279844547 #
loop $-1 $-1 $350 $342 #
plane-surface $-1 0 22.284478706598318 0 0 -1 0 0 0 -1 forward_v I I I I #
coedge $-1 $495 $345 $347 $499 reversed $215 $-1 #
coedge $-1 $345 $494 $614 $615 reversed $215 $-1 #
coedge $-1 $353 $348 $345 $497 forward $343 $-1 #
edge $-1 $500 -13.50818205395975 $616 -10.544943413808614 $496 $617 forward 7 unknown #
coedge $-1 $347 $346 $503 $618 reversed $135 $-1 #
edge $-1 $619 -44.568957413196621 $500 -39.402708396735463 $494 $620 forward 7 unknown #
vertex $-1 $349 $621 #
straight-curve $-1 5.2282201134157518 19.321240066447182 4.5640097705652209 1 0 0 I I #
coedge $-1 $614 $350 $353 $507 reversed $492 $-1 #
coedge $-1 $350 $614 $498 $618 forward $492 $-1 #
vertex $-1 $351 $622 #
straight-curve $-1 2.7682661612561432 22.284478706598318 42.555886599116661 0 0 1 I I #
straight-curve $-1 2.7682661612561432 -3.2792245406176903 36.84081922476895 0 0.57357642473473569 -0.81915205242281985 I I #
edge $-1 $616 -18.144614292406864 $354 -2.7682661612561432 $502 $623 forward 7 unknown #
point $-1 2.7682661612561432 22.284478706598318 4.5640097705652227 #
point $-1 2.7682661612561432 19.321240066447182 4.5640097705652209 #
edge $-1 $624 1 $624 0 $357 $-1 forward 7 unknown #
vertex $-1 $358 $625 #
ellipse-curve $-1 7.1615084844420664 19.254127772409579 1.3636045098490861 0 0.81915205242281985 0.57357642473473569 1 0 0 1 I I #
point $-1 8.1615084844420664 20.802859386522744 2.4480380279844547 #
edge $-1 $626 1 $626 0 $361 $-1 forward 7 unknown #
vertex $-1 $362 $627 #
ellipse-curve $-1 13.751371969220941 19.254127772409579 1.3636045098490861 0 0.81915205242281985 0.57357642473473569 1 0 0 1 I I #
point $-1 14.751371969220941 20.802859386522744 2.4480380279844547 #
loop $-1 $-1 $373 $365 #
plane-surface $-1 0 -22.284478706598318 0 0 1 0 0 0 1 forward_v I I I I #
coedge $-1 $521 $368 $370 $525 reversed $237 $-1 #
coedge $-1 $368 $520 $628 $629 reversed $237 $-1 #
coedge $-1 $376 $371 $368 $523 forward $366 $-1 #
edge $-1 $526 -26.290033677567756 $630 -23.326795037416627 $522 $631 forward 7 unknown #
coedge $-1 $370 $369 $529 $632 reversed $149 $-1 #
edge $-1 $633 3.0969501622754252e-014 $526 5.1662490164611761 $520 $634 forward 7 unknown #
vertex $-1 $372 $635 #
straight-curve $-1 -14.427107238708636 -19.321240066447192 4.5640097705652227 -1 0 0 I I #
coedge $-1 $628 $373 $376 $533 reversed $518 $-1 #
coedge $-1 $373 $628 $524 $632 forward $518 $-1 #
vertex $-1 $374 $636 #
straight-curve $-1 -21.166040411841912 -22.284478706598314 24.301510129434025 0 0 1 I I #
straight-curve $-1 -21.166040411841912 -22.284478706598335 0.33206628540367689 0 -0.57357642473473569 -0.81915205242281985 I I #
edge $-1 $630 -36.542388542992633 $377 -21.166040411841912 $528 $637 forward 7 unknown #
point $-1 -21.166040411841912 -22.284478706598318 4.5640097705652227 #
point $-1 -21.166040411841912 -19.321240066447189 4.5640097705652227 #
edge $-1 $638 1 $638 0 $380 $-1 forward 7 unknown #
vertex $-1 $381 $639 #
ellipse-curve $-1 -32.14914621980671 -19.254127772409579 1.3636045098490808 0 -0.81915205242281985 0.57357642473473569 1 0 0 1 I I #
point $-1 -31.14914621980671 -20.802859386522744 2.4480380279844494 #
edge $-1 $640 1 $640 0 $384 $-1 forward 7 unknown #
vertex $-1 $385 $641 #
ellipse-curve $-1 -25.559282735027832 -19.254127772409579 1.3636045098490808 0 -0.81915205242281985 0.57357642473473569 1 0 0 1 I I #
point $-1 -24.559282735027832 -20.802859386522744 2.4480380279844494 #
plane-surface $-1 0 0 4.5640097705652227 0 0 1 1 0 0 forward_v I I I I #
coedge $-1 $555 $554 $547 $642 forward $389 $-1 #
coedge $-1 $547 $391 $393 $551 reversed $259 $-1 #
coedge $-1 $391 $546 $545 $642 reversed $259 $-1 #
coedge $-1 $399 $394 $391 $549 forward $400 $-1 #
edge $-1 $552 -26.290033677567756 $643 -23.326795037416627 $548 $644 forward 7 unknown #
coedge $-1 $393 $392 $555 $645 reversed $163 $-1 #
edge $-1 $646 3.0969501622754252e-014 $552 5.1662490164611761 $546 $647 forward 7 unknown #
vertex $-1 $395 $648 #
straight-curve $-1 5.2282201134157518 -19.321240066447192 4.5640097705652227 -1 0 0 I I #
coedge $-1 $545 $396 $399 $559 reversed $389 $-1 #
coedge $-1 $396 $545 $550 $645 forward $389 $-1 #
vertex $-1 $397 $649 #
straight-curve $-1 18.144614292406864 -22.284478706598314 24.301510129434025 0 0 1 I I #
straight-curve $-1 18.144614292406864 -22.284478706598335 0.33206628540367689 0 -0.57357642473473569 -0.81915205242281985 I I #
edge $-1 $643 2.7682661612561432 $401 18.144614292406864 $554 $650 forward 7 unknown #
point $-1 18.144614292406864 -22.284478706598318 4.5640097705652227 #
point $-1 18.144614292406864 -19.321240066447189 4.5640097705652227 #
edge $-1 $651 1 $651 0 $404 $-1 forward 7 unknown #
vertex $-1 $405 $652 #
ellipse-curve $-1 7.1615084844420664 -19.254127772409579 1.3636045098490808 0 -0.81915205242281985 0.57357642473473569 1 0 0 1 I I #
point $-1 8.1615084844420664 -20.802859386522744 2.4480380279844494 #
edge $-1 $653 1 $653 0 $408 $-1 forward 7 unknown #
vertex $-1 $409 $654 #
ellipse-curve $-1 13.751371969220941 -19.254127772409579 1.3636045098490808 0 -0.81915205242281985 0.57357642473473569 1 0 0 1 I I #
point $-1 14.751371969220941 -20.802859386522744 2.4480380279844494 #
plane-surface $-1 42.078920865504926 0 0 -1 0 0 0 0 1 forward_v I I I I #
coedge $-1 $417 $415 $419 $575 reversed $281 $-1 #
edge $-1 $430 -4.5640097705652227 $577 4.5640097705652227 $429 $655 forward 7 unknown #
vertex $-1 $575 $656 #
straight-curve $-1 -42.078920865504926 -22.284478706598318 0 0 0 -1 I I #
edge $-1 $573 -22.284478706598318 $577 22.284478706598318 $571 $657 forward 7 unknown #
straight-curve $-1 0 -22.284478706598318 -4.5640097705652227 -1 0 0 I I #
vertex $-1 $422 $658 #
straight-curve $-1 0 22.284478706598318 -4.5640097705652227 1 0 0 I I #
point $-1 42.078920865504926 22.284478706598318 -4.5640097705652227 #
point $-1 42.078920865504926 -22.284478706598318 -4.5640097705652227 #
straight-curve $-1 -42.078920865504926 0 4.5640097705652227 0 -1 0 I I #
point $-1 -42.078920865504926 22.284478706598318 4.5640097705652227 #
point $-1 -42.078920865504926 -22.284478706598318 4.5640097705652227 #
straight-curve $-1 42.078920865504926 -22.284478706598318 0 0 0 -1 I I #
straight-curve $-1 42.078920865504926 22.284478706598318 0 0 0 -1 I I #
plane-surface $-1 -42.078920865504926 0 0 1 0 0 0 0 -1 forward_v I I I I #
edge $-1 $451 6.4851303865371737 $455 9.4851303865371737 $454 $659 forward 7 unknown #
edge $-1 $459 -9.4851303865371737 $450 -6.4851303865371737 $457 $660 forward 7 unknown #
straight-curve $-1 -36.542388542992626 -17.470260773074347 0 0 0 -1 I I #
edge $-1 $593 -4.5640097705652227 $591 4.5640097705652227 $461 $661 forward 7 unknown #
vertex $-1 $590 $662 #
straight-curve $-1 -19.655327352124388 -14.470260773074347 -4.5640097705652227 1 0 0 I I #
vertex $-1 $462 $663 #
straight-curve $-1 -19.655327352124388 -14.470260773074347 4.5640097705652227 -1 0 0 I I #
point $-1 -36.542388542992626 -14.470260773074347 4.5640097705652227 #
point $-1 -36.542388542992626 -14.470260773074347 -4.5640097705652227 #
point $-1 -36.542388542992626 -17.470260773074347 -4.5640097705652227 #
point $-1 -36.542388542992626 -17.470260773074347 4.5640097705652227 #
straight-curve $-1 -42.078920865504926 0 4.5640097705652227 0 -1 0 I I #
straight-curve $-1 -42.078920865504926 0 -4.5640097705652227 0 1 0 I I #
edge $-1 $602 37.99187682855144 $605 42.22382031371297 $467 $664 forward 7 unknown #
vertex $-1 $481 $665 #
straight-curve $-1 -21.166040411841912 32.829422120406932 4.5640097705652209 0 1 0 I I #
edge $-1 $605 6.738933173133276 $478 22.115281304283997 $477 $666 forward 7 unknown #
vertex $-1 $604 $667 #
straight-curve $-1 -21.166040411841912 -3.2792245406176903 36.84081922476895 0 -0.57357642473473569 0.81915205242281985 I I #
point $-1 -21.166040411841912 19.321240066447182 4.5640097705652209 #
point $-1 -36.542388542992633 22.284478706598318 0.3320662854036911 #
straight-curve $-1 0 22.284478706598318 4.5640097705652227 -1 0 0 I I #
vertex $-1 $484 $668 #
point $-1 -31.14914621980671 19.254127772409579 1.3636045098490861 #
vertex $-1 $488 $669 #
point $-1 -24.559282735027832 19.254127772409579 1.3636045098490861 #
coedge $-1 $503 $502 $495 $615 forward $492 $-1 #
edge $-1 $616 37.99187682855144 $619 42.22382031371297 $614 $670 forward 7 unknown #
vertex $-1 $507 $671 #
straight-curve $-1 18.144614292406864 32.829422120406932 4.5640097705652209 0 1 0 I I #
edge $-1 $619 -12.916394178991112 $504 2.4599539521596085 $503 $672 forward 7 unknown #
vertex $-1 $618 $673 #
straight-curve $-1 18.144614292406864 -3.2792245406176903 36.84081922476895 0 -0.57357642473473569 0.81915205242281985 I I #
point $-1 18.144614292406864 19.321240066447182 4.5640097705652209 #
point $-1 2.7682661612561432 22.284478706598318 0.3320662854036911 #
straight-curve $-1 0 22.284478706598318 4.5640097705652227 -1 0 0 I I #
vertex $-1 $510 $674 #
point $-1 8.1615084844420664 19.254127772409579 1.3636045098490861 #
vertex $-1 $514 $675 #
point $-1 14.751371969220941 19.254127772409579 1.3636045098490861 #
coedge $-1 $529 $528 $521 $629 forward $518 $-1 #
edge $-1 $630 19.7375003588688 $633 23.969443844030323 $628 $676 forward 7 unknown #
vertex $-1 $533 $677 #
straight-curve $-1 -36.542388542992633 -45.611273744014944 4.5640097705652245 0 -1 0 I I #
edge $-1 $633 -22.115281304283997 $530 -6.738933173133276 $529 $678 forward 7 unknown #
vertex $-1 $632 $679 #
straight-curve $-1 -36.542388542992633 -22.284478706598335 0.33206628540367689 0 0.57357642473473569 0.81915205242281985 I I #
point $-1 -36.542388542992633 -19.321240066447189 4.5640097705652227 #
point $-1 -21.166040411841912 -22.284478706598318 0.33206628540370225 #
straight-curve $-1 0 -22.284478706598318 4.5640097705652227 1 0 0 I I #
vertex $-1 $536 $680 #
point $-1 -31.14914621980671 -19.254127772409579 1.3636045098490808 #
vertex $-1 $540 $681 #
point $-1 -24.559282735027832 -19.254127772409579 1.3636045098490808 #
edge $-1 $643 19.7375003588688 $646 23.969443844030323 $545 $682 forward 7 unknown #
vertex $-1 $559 $683 #
straight-curve $-1 2.7682661612561432 -45.611273744014944 4.5640097705652245 0 -1 0 I I #
edge $-1 $646 -2.4599539521596085 $556 12.916394178991112 $555 $684 forward 7 unknown #
vertex $-1 $645 $685 #
straight-curve $-1 2.7682661612561432 -22.284478706598335 0.33206628540367689 0 0.57357642473473569 0.81915205242281985 I I #
point $-1 2.7682661612561432 -19.321240066447189 4.5640097705652227 #
point $-1 18.144614292406864 -22.284478706598318 0.33206628540370225 #
straight-curve $-1 0 -22.284478706598318 4.5640097705652227 1 0 0 I I #
vertex $-1 $562 $686 #
point $-1 8.1615084844420664 -19.254127772409579 1.3636045098490808 #
vertex $-1 $566 $687 #
point $-1 14.751371969220941 -19.254127772409579 1.3636045098490808 #
straight-curve $-1 -42.078920865504926 22.284478706598318 0 0 0 -1 I I #
point $-1 -42.078920865504926 -22.284478706598318 -4.5640097705652227 #
straight-curve $-1 -42.078920865504926 0 -4.5640097705652227 0 1 0 I I #
point $-1 -42.078920865504926 22.284478706598318 -4.5640097705652227 #
straight-curve $-1 -36.542388542992626 -7.9851303865371737 -4.5640097705652227 0 -1 0 I I #
straight-curve $-1 -36.542388542992626 -7.9851303865371737 4.5640097705652227 0 1 0 I I #
straight-curve $-1 -42.078920865504926 -14.470260773074347 0 0 0 -1 I I #
point $-1 -42.078920865504926 -14.470260773074347 -4.5640097705652227 #
point $-1 -42.078920865504926 -14.470260773074347 4.5640097705652227 #
straight-curve $-1 -21.166040411841912 22.284478706598318 42.555886599116661 0 0 -1 I I #
point $-1 -21.166040411841912 22.284478706598318 4.5640097705652227 #
straight-curve $-1 -14.427107238708636 22.284478706598321 0.33206628540368754 -1 0 0 I I #
point $-1 -21.166040411841912 22.284478706598318 0.3320662854036911 #
point $-1 -32.14914621980671 18.434975719986756 0.79002808511435052 #
point $-1 -25.559282735027832 18.434975719986756 0.79002808511435052 #
straight-curve $-1 18.144614292406864 22.284478706598318 42.555886599116661 0 0 -1 I I #
point $-1 18.144614292406864 22.284478706598318 4.5640097705652227 #
straight-curve $-1 5.2282201134157518 22.284478706598321 0.33206628540368754 -1 0 0 I I #
point $-1 18.144614292406864 22.284478706598318 0.3320662854036911 #
point $-1 7.1615084844420664 18.434975719986756 0.79002808511435052 #
point $-1 13.751371969220941 18.434975719986756 0.79002808511435052 #
straight-curve $-1 -36.542388542992633 -22.284478706598314 24.301510129434025 0 0 -1 I I #
point $-1 -36.542388542992633 -22.284478706598318 4.5640097705652227 #
straight-curve $-1 -14.427107238708636 -22.284478706598318 0.33206628540370559 1 0 0 I I #
point $-1 -36.542388542992633 -22.284478706598318 0.33206628540370225 #
point $-1 -32.14914621980671 -18.434975719986756 0.79002808511434519 #
point $-1 -25.559282735027832 -18.434975719986756 0.79002808511434519 #
straight-curve $-1 2.7682661612561432 -22.284478706598314 24.301510129434025 0 0 -1 I I #
point $-1 2.7682661612561432 -22.284478706598318 4.5640097705652227 #
straight-curve $-1 5.2282201134157518 -22.284478706598318 0.33206628540370559 1 0 0 I I #
point $-1 2.7682661612561432 -22.284478706598318 0.33206628540370225 #
point $-1 7.1615084844420664 -18.434975719986756 0.79002808511434519 #
point $-1 13.751371969220941 -18.434975719986756 0.79002808511434519 #
End-of-ACIS-data 