500 0 5 0           
7 Unknown 11 ACIS 5.0 NT 24 Fri Mar 26 20:24:33 1999 
-1 9.9999999999999995e-007 1e-010 
body $-1 $5 $-1 $6 #
body $-1 $7 $-1 $8 #
body $-1 $9 $-1 $10 #
body $-1 $11 $-1 $12 #
body $-1 $13 $-1 $14 #
lump $-1 $-1 $15 $0 #
transform $-1 1 0 0 0 1 0 0 0 1 62.475051118503373 32.833197127630712 7.2529230863041896 1 rotate no_reflect no_shear #
lump $-1 $-1 $16 $1 #
transform $-1 1 0 0 0 1 0 0 0 1 62.475051118503373 32.833197127630712 7.2529230863041896 1 rotate no_reflect no_shear #
lump $-1 $-1 $17 $2 #
transform $-1 1 0 0 0 1 0 0 0 1 62.475051118503373 32.833197127630712 7.2529230863041896 1 rotate no_reflect no_shear #
lump $-1 $-1 $18 $3 #
transform $-1 1 0 0 0 1 0 0 0 1 62.475051118503373 32.833197127630712 7.2529230863041896 1 rotate no_reflect no_shear #
lump $-1 $-1 $19 $4 #
transform $-1 1 0 0 0 1 0 0 0 1 62.475051118503373 32.833197127630712 7.2529230863041896 1 rotate no_reflect no_shear #
shell $-1 $-1 $-1 $20 $-1 $5 #
shell $-1 $-1 $-1 $21 $-1 $7 #
shell $-1 $-1 $-1 $22 $-1 $9 #
shell $-1 $-1 $-1 $23 $-1 $11 #
shell $-1 $-1 $-1 $24 $-1 $13 #
face $-1 $25 $26 $15 $-1 $27 forward single #
face $-1 $28 $29 $16 $-1 $30 forward single #
face $-1 $31 $32 $17 $-1 $33 reversed single #
face $-1 $34 $35 $18 $-1 $36 forward single #
face $-1 $37 $38 $19 $-1 $39 forward single #
face $-1 $40 $41 $15 $-1 $42 reversed single #
loop $-1 $-1 $43 $20 #
plane-surface $-1 0 0 7.2529230863041896 0 0 1 1 0 0 forward_v I I I I #
face $-1 $44 $45 $16 $-1 $46 reversed single #
loop $-1 $-1 $47 $21 #
plane-surface $-1 -59.877571891440709 0 -2.9048696579719109 0 0 1 1 0 0 forward_v I I I I #
face $-1 $48 $49 $17 $-1 $50 reversed single #
loop $-1 $-1 $51 $22 #
plane-surface $-1 33.789143988359008 -121.18626275449155 88.623941303634339 1 0 0 0 0.70710678939079041 -0.70710677298230451 forward_v I I I I #
face $-1 $52 $53 $18 $-1 $54 forward single #
loop $-1 $55 $56 $23 #
cone-surface $-1 40.144125084742882 -27.235760438931745 1.6554863654752392 0 0.70710678939079041 -0.70710677298230451 1.5 0 0 1 I I 0 1 1.5 forward I I I I #
face $-1 $57 $58 $19 $-1 $59 forward single #
loop $-1 $60 $61 $24 #
cone-surface $-1 49.676596729318717 -27.235760438931745 1.6554863654752392 0 0.70710678939079041 -0.70710677298230451 1.5 0 0 1 I I 0 1 1.5 forward I I I I #
face $-1 $62 $63 $15 $-1 $64 reversed single #
loop $-1 $-1 $65 $25 #
plane-surface $-1 0 0 -7.2529230863041896 0 0 1 1 0 0 forward_v I I I I #
coedge $-1 $66 $67 $68 $69 forward $26 $-1 #
face $-1 $70 $71 $16 $-1 $72 reversed single #
loop $-1 $-1 $73 $28 #
plane-surface $-1 -59.877571891440709 0 -6.7529230863041896 0 0 1 1 0 0 forward_v I I I I #
coedge $-1 $74 $75 $76 $77 forward $29 $-1 #
face $-1 $78 $79 $17 $-1 $80 reversed single #
loop $-1 $-1 $81 $31 #
plane-surface $-1 44.910360907030807 -32.833197127630697 0.27087772701548829 0 -0.70710678939079041 0.70710677298230451 1 0 0 forward_v I I I I #
coedge $-1 $82 $83 $84 $85 reversed $32 $-1 #
face $-1 $-1 $86 $18 $-1 $87 forward single #
loop $-1 $88 $89 $34 #
cone-surface $-1 40.144125084742882 -24.599016256824491 -0.98125775544609528 0 0.70710678939079041 -0.70710677298230451 0.75 0 0 1 I I -0.70710678118654757 0.70710678118654757 0.75 forward I I I I #
loop $-1 $-1 $90 $23 #
coedge $-1 $56 $56 $91 $92 reversed $35 $-1 #
face $-1 $-1 $93 $19 $-1 $94 forward single #
loop $-1 $95 $96 $37 #
cone-surface $-1 49.676596729318717 -24.599016256824491 -0.98125775544609528 0 0.70710678939079041 -0.70710677298230451 0.75 0 0 1 I I -0.70710678118654757 0.70710678118654757 0.75 forward I I I I #
loop $-1 $-1 $97 $24 #
coedge $-1 $61 $61 $98 $99 reversed $38 $-1 #
face $-1 $100 $101 $15 $-1 $102 reversed single #
loop $-1 $-1 $103 $40 #
plane-surface $-1 0 -32.833197127630712 0 0 1 0 0 0 1 forward_v I I I I #
coedge $-1 $104 $105 $106 $107 forward $41 $-1 #
coedge $-1 $108 $43 $109 $110 forward $26 $-1 #
coedge $-1 $43 $108 $111 $112 forward $26 $-1 #
coedge $-1 $113 $114 $43 $69 reversed $115 $-1 #
edge $-1 $116 -32.833197127630712 $117 32.833197127630712 $68 $118 forward 7 unknown #
face $-1 $119 $120 $16 $-1 $121 reversed single #
loop $-1 $-1 $122 $44 #
plane-surface $-1 -57.280092664378046 0 -4.8288963721380505 -1 0 0 0 0 1 forward_v I I I I #
coedge $-1 $123 $124 $125 $126 forward $45 $-1 #
coedge $-1 $127 $47 $128 $129 reversed $29 $-1 #
coedge $-1 $47 $127 $130 $131 reversed $29 $-1 #
coedge $-1 $122 $132 $47 $77 reversed $71 $-1 #
edge $-1 $133 -32.833197127630712 $134 32.833197127630712 $76 $135 forward 7 unknown #
face $-1 $136 $137 $17 $-1 $138 forward single #
loop $-1 $-1 $139 $48 #
plane-surface $-1 56.031577825702605 -121.18626275449155 88.623941303634339 -1 0 0 0 -0.70710678939079041 0.70710677298230451 forward_v I I I I #
coedge $-1 $140 $141 $142 $143 reversed $49 $-1 #
coedge $-1 $83 $51 $144 $145 reversed $32 $-1 #
coedge $-1 $51 $82 $140 $146 reversed $32 $-1 #
coedge $-1 $142 $147 $51 $85 forward $148 $-1 #
edge $-1 $149 37.059047565512984 $150 44.041092924801696 $84 $151 forward 7 unknown #
loop $-1 $-1 $91 $52 #
plane-surface $-1 44.910360907030807 -32.833197127630697 0.27087772701548829 0 -0.70710678939079041 0.70710677298230451 1 0 0 forward_v I I I I #
loop $-1 $-1 $152 $34 #
coedge $-1 $89 $89 $90 $153 reversed $53 $-1 #
coedge $-1 $90 $90 $89 $153 forward $55 $-1 #
coedge $-1 $91 $91 $56 $92 forward $86 $-1 #
edge $-1 $154 -6.2803683530793562e-016 $154 6.2831853071795996 $91 $155 forward 7 unknown #
loop $-1 $-1 $98 $57 #
plane-surface $-1 44.910360907030807 -32.833197127630697 0.27087772701548829 0 -0.70710678939079041 0.70710677298230451 1 0 0 forward_v I I I I #
loop $-1 $-1 $156 $37 #
coedge $-1 $96 $96 $97 $157 reversed $58 $-1 #
coedge $-1 $97 $97 $96 $157 forward $60 $-1 #
coedge $-1 $98 $98 $61 $99 forward $93 $-1 #
edge $-1 $158 -6.2803683530793562e-016 $158 6.2831853071795996 $98 $159 forward 7 unknown #
face $-1 $160 $161 $15 $-1 $162 reversed single #
loop $-1 $-1 $163 $62 #
plane-surface $-1 -62.475051118503373 0 0 1 0 0 0 0 -1 forward_v I I I I #
coedge $-1 $164 $111 $165 $166 forward $63 $-1 #
coedge $-1 $167 $65 $164 $168 forward $41 $-1 #
coedge $-1 $65 $167 $169 $170 forward $41 $-1 #
coedge $-1 $114 $113 $65 $107 reversed $115 $-1 #
edge $-1 $171 -32.833197127630712 $172 32.833197127630712 $106 $173 forward 7 unknown #
coedge $-1 $67 $66 $174 $175 forward $26 $-1 #
coedge $-1 $176 $177 $66 $110 reversed $161 $-1 #
edge $-1 $117 -62.475051118503373 $178 62.475051118503373 $109 $179 forward 7 unknown #
coedge $-1 $103 $180 $67 $112 reversed $63 $-1 #
edge $-1 $181 -62.475051118503373 $116 62.475051118503373 $111 $182 forward 7 unknown #
coedge $-1 $106 $68 $180 $183 forward $115 $-1 #
coedge $-1 $68 $106 $176 $184 reversed $115 $-1 #
loop $-1 $-1 $113 $160 #
vertex $-1 $69 $185 #
vertex $-1 $69 $186 #
straight-curve $-1 62.475051118503373 0 7.2529230863041896 0 1 0 I I #
face $-1 $187 $188 $16 $-1 $189 reversed single #
loop $-1 $-1 $190 $70 #
plane-surface $-1 0 -32.833197127630712 0 0 1 0 0 0 1 forward_v I I I I #
coedge $-1 $125 $76 $191 $192 reversed $71 $-1 #
coedge $-1 $193 $73 $190 $194 reversed $45 $-1 #
coedge $-1 $73 $193 $195 $196 reversed $45 $-1 #
coedge $-1 $132 $122 $73 $126 reversed $71 $-1 #
edge $-1 $197 -32.833197127630712 $198 32.833197127630712 $125 $199 forward 7 unknown #
coedge $-1 $75 $74 $200 $201 reversed $29 $-1 #
coedge $-1 $202 $203 $74 $129 forward $204 $-1 #
edge $-1 $205 -32.536265172783018 $134 -27.341306718657691 $128 $206 forward 7 unknown #
coedge $-1 $207 $191 $75 $131 forward $120 $-1 #
edge $-1 $133 27.341306718657691 $208 32.536265172783018 $130 $209 forward 7 unknown #
coedge $-1 $76 $125 $202 $210 reversed $71 $-1 #
vertex $-1 $131 $211 #
vertex $-1 $129 $212 #
straight-curve $-1 -57.280092664378046 0 -2.9048696579719109 0 1 0 I I #
face $-1 $-1 $148 $17 $-1 $213 reversed single #
loop $-1 $-1 $214 $78 #
plane-surface $-1 0 0 7.2529230863041896 0 0 1 1 0 0 forward_v I I I I #
coedge $-1 $215 $216 $217 $218 reversed $79 $-1 #
coedge $-1 $219 $81 $83 $146 forward $49 $-1 #
coedge $-1 $81 $219 $215 $220 forward $49 $-1 #
coedge $-1 $217 $84 $81 $143 forward $148 $-1 #
edge $-1 $150 11.333963534843605 $221 33.576397372187202 $142 $222 forward 7 unknown #
coedge $-1 $223 $224 $82 $145 forward $137 $-1 #
edge $-1 $225 -34.741979446884699 $149 -27.759934249615064 $144 $226 forward 7 unknown #
edge $-1 $150 -2.0097183471152325e-014 $225 9.8741031256454246 $83 $227 forward 7 unknown #
coedge $-1 $84 $217 $223 $228 reversed $148 $-1 #
loop $-1 $-1 $217 $136 #
vertex $-1 $228 $229 #
vertex $-1 $85 $230 #
straight-curve $-1 33.789143988359008 -32.833197127630712 44.31197065181717 0 0 -1 I I #
coedge $-1 $152 $152 $-1 $231 reversed $88 $-1 #
edge $-1 $232 0 $232 6.2831853071796004 $89 $233 forward 7 unknown #
vertex $-1 $92 $234 #
ellipse-curve $-1 40.144125084742882 -29.342174528995894 3.7619004066598323 0 -0.70710678939079041 0.70710677298230451 1.5 0 0 1 I I #
coedge $-1 $156 $156 $-1 $235 reversed $95 $-1 #
edge $-1 $236 0 $236 6.2831853071796004 $96 $237 forward 7 unknown #
vertex $-1 $99 $238 #
ellipse-curve $-1 49.676596729318717 -29.342174528995894 3.7619004066598323 0 -0.70710678939079041 0.70710677298230451 1.5 0 0 1 I I #
face $-1 $-1 $115 $15 $-1 $239 reversed single #
loop $-1 $-1 $176 $100 #
plane-surface $-1 0 32.833197127630712 0 0 -1 0 0 0 -1 forward_v I I I I #
coedge $-1 $240 $174 $177 $241 forward $101 $-1 #
coedge $-1 $180 $103 $104 $168 reversed $63 $-1 #
coedge $-1 $174 $240 $103 $166 reversed $101 $-1 #
edge $-1 $181 -7.2529230863041896 $242 7.2529230863041896 $165 $243 forward 7 unknown #
coedge $-1 $105 $104 $240 $244 forward $41 $-1 #
edge $-1 $172 -62.475051118503373 $242 62.475051118503373 $164 $245 forward 7 unknown #
coedge $-1 $177 $176 $105 $170 reversed $161 $-1 #
edge $-1 $246 -62.475051118503373 $171 62.475051118503373 $169 $247 forward 7 unknown #
vertex $-1 $107 $248 #
vertex $-1 $183 $249 #
straight-curve $-1 62.475051118503373 0 -7.2529230863041896 0 -1 0 I I #
coedge $-1 $163 $165 $108 $175 reversed $101 $-1 #
edge $-1 $178 -32.833197127630712 $181 32.833197127630712 $174 $250 forward 7 unknown #
coedge $-1 $169 $109 $114 $184 forward $161 $-1 #
coedge $-1 $109 $169 $163 $241 reversed $161 $-1 #
vertex $-1 $110 $251 #
straight-curve $-1 0 32.833197127630712 7.2529230863041896 -1 0 0 I I #
coedge $-1 $111 $164 $113 $183 reversed $63 $-1 #
vertex $-1 $175 $252 #
straight-curve $-1 0 -32.833197127630712 7.2529230863041896 1 0 0 I I #
edge $-1 $116 -7.2529230863041896 $172 7.2529230863041896 $113 $253 forward 7 unknown #
edge $-1 $117 -7.2529230863041896 $171 7.2529230863041896 $114 $254 forward 7 unknown #
point $-1 62.475051118503373 -32.833197127630712 7.2529230863041896 #
point $-1 62.475051118503373 32.833197127630712 7.2529230863041896 #
face $-1 $-1 $204 $16 $-1 $255 reversed single #
loop $-1 $-1 $256 $119 #
plane-surface $-1 -62.475051118503373 0 0 1 0 0 0 0 -1 forward_v I I I I #
coedge $-1 $191 $207 $123 $194 forward $120 $-1 #
coedge $-1 $130 $190 $122 $192 forward $120 $-1 #
edge $-1 $198 -4.3384749002351644 $133 -0.49042147190288565 $191 $257 forward 7 unknown #
coedge $-1 $124 $123 $256 $258 reversed $45 $-1 #
edge $-1 $259 -32.536265172783018 $198 -27.341306718657691 $190 $260 forward 7 unknown #
coedge $-1 $203 $202 $124 $196 forward $204 $-1 #
edge $-1 $197 27.341306718657691 $261 32.536265172783018 $195 $262 forward 7 unknown #
vertex $-1 $196 $263 #
vertex $-1 $194 $264 #
straight-curve $-1 -57.280092664378046 0 -6.7529230863041896 0 -1 0 I I #
coedge $-1 $265 $266 $127 $201 forward $188 $-1 #
edge $-1 $208 -32.833197127630712 $205 32.833197127630712 $200 $267 forward 7 unknown #
coedge $-1 $195 $128 $132 $210 forward $204 $-1 #
coedge $-1 $128 $195 $265 $268 reversed $204 $-1 #
loop $-1 $-1 $195 $187 #
vertex $-1 $268 $269 #
straight-curve $-1 -29.938785945720355 32.833197127630712 -2.9048696579719109 1 0 0 I I #
coedge $-1 $190 $130 $266 $270 forward $120 $-1 #
vertex $-1 $270 $271 #
straight-curve $-1 -29.938785945720355 -32.833197127630712 -2.9048696579719109 -1 0 0 I I #
edge $-1 $134 0.49042147190288565 $197 4.3384749002351644 $202 $272 forward 7 unknown #
point $-1 -57.280092664378046 -32.833197127630712 -2.9048696579719109 #
point $-1 -57.280092664378046 32.833197127630712 -2.9048696579719109 #
plane-surface $-1 0 -32.833197127630712 0 0 1 0 0 0 1 forward_v I I I I #
coedge $-1 $224 $223 $216 $273 forward $137 $-1 #
coedge $-1 $216 $139 $141 $220 reversed $79 $-1 #
coedge $-1 $139 $215 $214 $273 reversed $79 $-1 #
coedge $-1 $147 $142 $139 $218 forward $148 $-1 #
edge $-1 $221 -44.041092924801696 $274 -37.059047565512984 $217 $275 forward 7 unknown #
coedge $-1 $141 $140 $224 $276 reversed $49 $-1 #
edge $-1 $277 -9.8741031256454246 $221 2.0097183471152325e-014 $215 $278 forward 7 unknown #
vertex $-1 $143 $279 #
straight-curve $-1 22.455180453515403 -32.833197127630712 0.27087772701547053 1 0 0 I I #
coedge $-1 $214 $144 $147 $228 forward $137 $-1 #
coedge $-1 $144 $214 $219 $276 forward $137 $-1 #
vertex $-1 $145 $280 #
straight-curve $-1 33.789143988359008 -60.593131377245776 7.2529230863041931 0 -1 0 I I #
straight-curve $-1 33.789143988359008 -32.833197127630697 0.27087772701548829 0 0.70710677298230451 0.70710678939079041 I I #
edge $-1 $149 33.789143988359008 $274 56.031577825702605 $147 $281 forward 7 unknown #
point $-1 33.789143988359008 -32.833197127630712 7.2529230863041896 #
point $-1 33.789143988359008 -32.833197127630712 0.27087772701547408 #
edge $-1 $282 1 $282 0 $152 $-1 forward 7 unknown #
vertex $-1 $153 $283 #
ellipse-curve $-1 40.144125084742882 -25.129346348867585 -0.45092767570936687 0 -0.70710678939079041 0.70710677298230451 1.5 0 0 1 I I #
point $-1 41.644125084742882 -29.342174528995908 3.7619004066598452 #
edge $-1 $284 1 $284 0 $156 $-1 forward 7 unknown #
vertex $-1 $157 $285 #
ellipse-curve $-1 49.676596729318717 -25.129346348867585 -0.45092767570936687 0 -0.70710678939079041 0.70710677298230451 1.5 0 0 1 I I #
point $-1 51.176596729318717 -29.342174528995908 3.7619004066598452 #
plane-surface $-1 62.475051118503373 0 0 -1 0 0 0 0 1 forward_v I I I I #
coedge $-1 $165 $163 $167 $244 reversed $101 $-1 #
edge $-1 $178 -7.2529230863041896 $246 7.2529230863041896 $177 $286 forward 7 unknown #
vertex $-1 $244 $287 #
straight-curve $-1 -62.475051118503373 -32.833197127630712 0 0 0 -1 I I #
edge $-1 $242 -32.833197127630712 $246 32.833197127630712 $240 $288 forward 7 unknown #
straight-curve $-1 0 -32.833197127630712 -7.2529230863041896 -1 0 0 I I #
vertex $-1 $170 $289 #
straight-curve $-1 0 32.833197127630712 -7.2529230863041896 1 0 0 I I #
point $-1 62.475051118503373 32.833197127630712 -7.2529230863041896 #
point $-1 62.475051118503373 -32.833197127630712 -7.2529230863041896 #
straight-curve $-1 -62.475051118503373 0 7.2529230863041896 0 -1 0 I I #
point $-1 -62.475051118503373 32.833197127630712 7.2529230863041896 #
point $-1 -62.475051118503373 -32.833197127630712 7.2529230863041896 #
straight-curve $-1 62.475051118503373 -32.833197127630712 0 0 0 -1 I I #
straight-curve $-1 62.475051118503373 32.833197127630712 0 0 0 -1 I I #
plane-surface $-1 0 32.833197127630712 0 0 -1 0 0 0 -1 forward_v I I I I #
coedge $-1 $266 $265 $193 $258 forward $188 $-1 #
straight-curve $-1 -57.280092664378046 -32.833197127630712 -2.4144481860690252 0 0 1 I I #
edge $-1 $261 -32.833197127630712 $259 32.833197127630712 $256 $290 forward 7 unknown #
vertex $-1 $194 $291 #
straight-curve $-1 -29.938785945720355 -32.833197127630712 -6.7529230863041896 1 0 0 I I #
vertex $-1 $196 $292 #
straight-curve $-1 -29.938785945720355 32.833197127630712 -6.7529230863041896 -1 0 0 I I #
point $-1 -57.280092664378046 32.833197127630712 -6.7529230863041896 #
point $-1 -57.280092664378046 -32.833197127630712 -6.7529230863041896 #
coedge $-1 $256 $200 $203 $268 forward $188 $-1 #
coedge $-1 $200 $256 $207 $270 reversed $188 $-1 #
straight-curve $-1 -62.475051118503373 0 -2.9048696579719109 0 1 0 I I #
edge $-1 $205 2.9048696579719109 $261 6.7529230863041896 $203 $293 forward 7 unknown #
point $-1 -62.475051118503373 32.833197127630712 -2.9048696579719109 #
edge $-1 $208 2.9048696579719109 $259 6.7529230863041896 $266 $294 forward 7 unknown #
point $-1 -62.475051118503373 -32.833197127630712 -2.9048696579719109 #
straight-curve $-1 -57.280092664378046 32.833197127630712 -2.4144481860690252 0 0 -1 I I #
edge $-1 $274 27.759934249615064 $277 34.741979446884699 $214 $295 forward 7 unknown #
vertex $-1 $273 $296 #
straight-curve $-1 56.031577825702605 -32.833197127630712 44.31197065181717 0 0 1 I I #
edge $-1 $277 -33.576397372187202 $225 -11.333963534843605 $224 $297 forward 7 unknown #
vertex $-1 $276 $298 #
straight-curve $-1 56.031577825702605 -32.833197127630697 0.27087772701548829 0 -0.70710677298230451 -0.70710678939079041 I I #
point $-1 56.031577825702605 -32.833197127630712 0.27087772701547408 #
point $-1 33.789143988359008 -25.851151930361077 7.2529230863041905 #
straight-curve $-1 0 -32.833197127630712 7.2529230863041896 1 0 0 I I #
vertex $-1 $231 $299 #
point $-1 41.644125084742882 -25.129346348867585 -0.45092767570936687 #
vertex $-1 $235 $300 #
point $-1 51.176596729318717 -25.129346348867585 -0.45092767570936687 #
straight-curve $-1 -62.475051118503373 32.833197127630712 0 0 0 -1 I I #
point $-1 -62.475051118503373 -32.833197127630712 -7.2529230863041896 #
straight-curve $-1 -62.475051118503373 0 -7.2529230863041896 0 1 0 I I #
point $-1 -62.475051118503373 32.833197127630712 -7.2529230863041896 #
straight-curve $-1 -62.475051118503373 0 -6.7529230863041896 0 -1 0 I I #
point $-1 -62.475051118503373 -32.833197127630712 -6.7529230863041896 #
point $-1 -62.475051118503373 32.833197127630712 -6.7529230863041896 #
straight-curve $-1 -62.475051118503373 32.833197127630712 0 0 0 -1 I I #
straight-curve $-1 -62.475051118503373 -32.833197127630712 0 0 0 -1 I I #
straight-curve $-1 56.031577825702605 -60.593131377245776 7.2529230863041931 0 1 0 I I #
point $-1 56.031577825702605 -32.833197127630712 7.2529230863041896 #
straight-curve $-1 22.455180453515403 -25.851151930361077 7.2529230863041896 -1 0 0 I I #
point $-1 56.031577825702605 -25.851151930361077 7.2529230863041905 #
point $-1 40.144125084742882 -24.068686164781397 -1.5115878351828238 #
point $-1 49.676596729318717 -24.068686164781397 -1.5115878351828238 #
End-of-ACIS-data 