500 0 3 0           
7 Unknown 11 ACIS 5.0 NT 24 Fri Mar 26 15:50:23 1999 
-1 9.9999999999999995e-007 1e-010 
body $-1 $3 $-1 $4 #
body $-1 $5 $-1 $6 #
body $-1 $7 $-1 $8 #
lump $-1 $-1 $9 $0 #
transform $-1 1 0 0 0 1 0 0 0 1 52.49794000061037 25.827762430916458 10.004858722476257 1 rotate no_reflect no_shear #
lump $-1 $-1 $10 $1 #
transform $-1 1 0 0 0 1 0 0 0 1 52.49794000061037 25.827762430916458 10.004858722476257 1 rotate no_reflect no_shear #
lump $-1 $-1 $11 $2 #
transform $-1 1 0 0 0 1 0 0 0 1 52.49794000061037 25.827762430916458 10.004858722476257 1 rotate no_reflect no_shear #
shell $-1 $-1 $-1 $12 $-1 $3 #
shell $-1 $-1 $-1 $13 $-1 $5 #
shell $-1 $-1 $-1 $14 $-1 $7 #
face $-1 $15 $16 $9 $-1 $17 forward single #
face $-1 $18 $19 $10 $-1 $20 reversed single #
face $-1 $21 $22 $11 $-1 $23 forward single #
face $-1 $24 $25 $9 $-1 $26 reversed single #
loop $-1 $-1 $27 $12 #
plane-surface $-1 0 0 10.004858722476257 0 0 1 1 0 0 forward_v I I I I #
face $-1 $28 $29 $10 $-1 $30 reversed single #
loop $-1 $-1 $31 $13 #
plane-surface $-1 16.910922034956613 69.290616022263578 113.0830168757674 1 0 0 0 -0.74314483375859142 -0.66913059716165679 forward_v I I I I #
face $-1 $32 $33 $11 $-1 $34 forward single #
loop $-1 $35 $36 $14 #
cone-surface $-1 24.534795062481393 22.0313335094596 6.0598562262238707 0 -0.74314483375859142 -0.66913059716165679 1.5 0 0 1 I I 0 1 1.5 forward I I I I #
face $-1 $37 $38 $9 $-1 $39 reversed single #
loop $-1 $-1 $40 $15 #
plane-surface $-1 0 0 -10.004858722476257 0 0 1 1 0 0 forward_v I I I I #
coedge $-1 $41 $42 $43 $44 forward $16 $-1 #
face $-1 $45 $46 $10 $-1 $47 reversed single #
loop $-1 $-1 $48 $18 #
plane-surface $-1 24.534795062481393 -8.7365297665806168 42.827060991036902 0 0.74314483375859142 0.66913059716165679 1 0 0 forward_v I I I I #
coedge $-1 $49 $50 $51 $52 reversed $19 $-1 #
face $-1 $-1 $53 $11 $-1 $54 forward single #
loop $-1 $55 $56 $21 #
cone-surface $-1 24.534795062481393 20.1830705965127 4.3956728658997228 0 -0.74314483375859142 -0.66913059716165679 0.75 0 0 1 I I -0.70710678118654757 0.70710678118654757 0.75 forward I I I I #
loop $-1 $-1 $57 $14 #
coedge $-1 $36 $36 $58 $59 reversed $22 $-1 #
face $-1 $60 $61 $9 $-1 $62 reversed single #
loop $-1 $-1 $63 $24 #
plane-surface $-1 0 -25.827762430916458 0 0 1 0 0 0 1 forward_v I I I I #
coedge $-1 $64 $65 $66 $67 forward $25 $-1 #
coedge $-1 $68 $27 $69 $70 forward $16 $-1 #
coedge $-1 $27 $68 $71 $72 forward $16 $-1 #
coedge $-1 $73 $74 $27 $44 reversed $75 $-1 #
edge $-1 $76 -25.827762430916458 $77 25.827762430916458 $43 $78 forward 7 unknown #
face $-1 $79 $80 $10 $-1 $81 reversed single #
loop $-1 $-1 $82 $28 #
plane-surface $-1 32.158668090006174 69.290616022263578 113.0830168757674 -1 0 0 0 0.74314483375859142 0.66913059716165679 forward_v I I I I #
coedge $-1 $83 $84 $85 $86 reversed $29 $-1 #
coedge $-1 $50 $31 $87 $88 reversed $19 $-1 #
coedge $-1 $31 $49 $83 $89 reversed $19 $-1 #
coedge $-1 $85 $90 $31 $52 forward $91 $-1 #
edge $-1 $92 8.8175455802153309 $93 13.828594847873134 $51 $94 forward 7 unknown #
loop $-1 $-1 $58 $32 #
plane-surface $-1 24.534795062481393 -8.7365297665806168 42.827060991036902 0 0.74314483375859142 0.66913059716165679 1 0 0 forward_v I I I I #
loop $-1 $-1 $95 $21 #
coedge $-1 $56 $56 $57 $96 reversed $33 $-1 #
coedge $-1 $57 $57 $56 $96 forward $35 $-1 #
coedge $-1 $58 $58 $36 $59 forward $53 $-1 #
edge $-1 $97 -6.1533106322661642e-016 $97 6.2831853071795996 $58 $98 forward 7 unknown #
face $-1 $99 $100 $9 $-1 $101 reversed single #
loop $-1 $-1 $102 $37 #
plane-surface $-1 -52.49794000061037 0 0 1 0 0 0 0 -1 forward_v I I I I #
coedge $-1 $103 $71 $104 $105 forward $38 $-1 #
coedge $-1 $106 $40 $103 $107 forward $25 $-1 #
coedge $-1 $40 $106 $108 $109 forward $25 $-1 #
coedge $-1 $74 $73 $40 $67 reversed $75 $-1 #
edge $-1 $110 -25.827762430916458 $111 25.827762430916458 $66 $112 forward 7 unknown #
coedge $-1 $42 $41 $113 $114 forward $16 $-1 #
coedge $-1 $115 $116 $41 $70 reversed $100 $-1 #
edge $-1 $77 -52.49794000061037 $117 52.49794000061037 $69 $118 forward 7 unknown #
coedge $-1 $63 $119 $42 $72 reversed $38 $-1 #
edge $-1 $120 -52.49794000061037 $76 52.49794000061037 $71 $121 forward 7 unknown #
coedge $-1 $66 $43 $119 $122 forward $75 $-1 #
coedge $-1 $43 $66 $115 $123 reversed $75 $-1 #
loop $-1 $-1 $73 $99 #
vertex $-1 $44 $124 #
vertex $-1 $44 $125 #
straight-curve $-1 52.49794000061037 0 10.004858722476257 0 1 0 I I #
face $-1 $-1 $91 $10 $-1 $126 forward single #
loop $-1 $-1 $127 $45 #
plane-surface $-1 0 25.827762430916458 0 0 -1 0 0 0 -1 forward_v I I I I #
coedge $-1 $128 $129 $130 $131 reversed $46 $-1 #
coedge $-1 $132 $48 $50 $89 forward $29 $-1 #
coedge $-1 $48 $132 $128 $133 forward $29 $-1 #
coedge $-1 $130 $51 $48 $86 forward $91 $-1 #
edge $-1 $93 4.6435245037159163 $134 19.891270558765477 $85 $135 forward 7 unknown #
coedge $-1 $136 $137 $49 $88 forward $80 $-1 #
edge $-1 $138 -52.101983883006412 $92 -46.536649715407442 $87 $139 forward 7 unknown #
edge $-1 $93 44.166629138167224 $138 51.655524861832916 $50 $140 forward 7 unknown #
coedge $-1 $51 $130 $136 $141 forward $91 $-1 #
loop $-1 $-1 $130 $79 #
vertex $-1 $88 $142 #
vertex $-1 $52 $143 #
straight-curve $-1 16.910922034956613 34.645308011131789 10.004858722476257 0 -1 0 I I #
coedge $-1 $95 $95 $-1 $144 reversed $55 $-1 #
edge $-1 $145 0 $145 6.2831853071796004 $56 $146 forward 7 unknown #
vertex $-1 $59 $147 #
ellipse-curve $-1 24.534795062481393 23.322237797087553 7.2221916386767715 0 0.74314483375859142 0.66913059716165679 1.5 0 0 1 I I #
face $-1 $-1 $75 $9 $-1 $148 reversed single #
loop $-1 $-1 $115 $60 #
plane-surface $-1 0 25.827762430916458 0 0 -1 0 0 0 -1 forward_v I I I I #
coedge $-1 $149 $113 $116 $150 forward $61 $-1 #
coedge $-1 $119 $63 $64 $107 reversed $38 $-1 #
coedge $-1 $113 $149 $63 $105 reversed $61 $-1 #
edge $-1 $120 -10.004858722476257 $151 10.004858722476257 $104 $152 forward 7 unknown #
coedge $-1 $65 $64 $149 $153 forward $25 $-1 #
edge $-1 $111 -52.49794000061037 $151 52.49794000061037 $103 $154 forward 7 unknown #
coedge $-1 $116 $115 $65 $109 reversed $100 $-1 #
edge $-1 $155 -52.49794000061037 $110 52.49794000061037 $108 $156 forward 7 unknown #
vertex $-1 $67 $157 #
vertex $-1 $122 $158 #
straight-curve $-1 52.49794000061037 0 -10.004858722476257 0 -1 0 I I #
coedge $-1 $102 $104 $68 $114 reversed $61 $-1 #
edge $-1 $117 -25.827762430916458 $120 25.827762430916458 $113 $159 forward 7 unknown #
coedge $-1 $108 $69 $74 $123 forward $100 $-1 #
coedge $-1 $69 $108 $102 $150 reversed $100 $-1 #
vertex $-1 $70 $160 #
straight-curve $-1 0 25.827762430916458 10.004858722476257 -1 0 0 I I #
coedge $-1 $71 $103 $73 $122 reversed $38 $-1 #
vertex $-1 $114 $161 #
straight-curve $-1 0 -25.827762430916458 10.004858722476257 1 0 0 I I #
edge $-1 $76 -10.004858722476257 $111 10.004858722476257 $73 $162 forward 7 unknown #
edge $-1 $77 -10.004858722476257 $110 10.004858722476257 $74 $163 forward 7 unknown #
point $-1 52.49794000061037 -25.827762430916458 10.004858722476257 #
point $-1 52.49794000061037 25.827762430916458 10.004858722476257 #
plane-surface $-1 0 0 10.004858722476257 0 0 1 1 0 0 forward_v I I I I #
coedge $-1 $137 $136 $129 $164 forward $80 $-1 #
coedge $-1 $129 $82 $84 $133 reversed $46 $-1 #
coedge $-1 $82 $128 $127 $164 reversed $46 $-1 #
coedge $-1 $90 $85 $82 $131 forward $91 $-1 #
edge $-1 $134 -13.828594847873134 $165 -8.8175455802153309 $130 $166 forward 7 unknown #
coedge $-1 $84 $83 $137 $167 reversed $29 $-1 #
edge $-1 $168 -51.655524861832916 $134 -44.166629138167224 $128 $169 forward 7 unknown #
vertex $-1 $86 $170 #
straight-curve $-1 12.267397531240697 20.816713163258651 10.004858722476257 1 0 0 I I #
coedge $-1 $127 $87 $90 $141 reversed $80 $-1 #
coedge $-1 $87 $127 $132 $167 forward $80 $-1 #
vertex $-1 $88 $171 #
straight-curve $-1 16.910922034956613 25.827762430916458 56.541508437883699 0 0 1 I I #
straight-curve $-1 16.910922034956613 -8.7365297665806168 42.827060991036902 0 0.66913059716165679 -0.74314483375859142 I I #
edge $-1 $165 -32.158668090006174 $92 -16.910922034956613 $136 $172 forward 7 unknown #
point $-1 16.910922034956613 25.827762430916458 10.004858722476257 #
point $-1 16.910922034956613 20.816713163258655 10.004858722476257 #
edge $-1 $173 1 $173 0 $95 $-1 forward 7 unknown #
vertex $-1 $96 $174 #
ellipse-curve $-1 24.534795062481393 20.740429221831644 4.8975208137709654 0 0.74314483375859142 0.66913059716165679 1.5 0 0 1 I I #
point $-1 26.034795062481393 23.322237797087556 7.2221916386767759 #
plane-surface $-1 52.49794000061037 0 0 -1 0 0 0 0 1 forward_v I I I I #
coedge $-1 $104 $102 $106 $153 reversed $61 $-1 #
edge $-1 $117 -10.004858722476257 $155 10.004858722476257 $116 $175 forward 7 unknown #
vertex $-1 $153 $176 #
straight-curve $-1 -52.49794000061037 -25.827762430916458 0 0 0 -1 I I #
edge $-1 $151 -25.827762430916458 $155 25.827762430916458 $149 $177 forward 7 unknown #
straight-curve $-1 0 -25.827762430916458 -10.004858722476257 -1 0 0 I I #
vertex $-1 $109 $178 #
straight-curve $-1 0 25.827762430916458 -10.004858722476257 1 0 0 I I #
point $-1 52.49794000061037 25.827762430916458 -10.004858722476257 #
point $-1 52.49794000061037 -25.827762430916458 -10.004858722476257 #
straight-curve $-1 -52.49794000061037 0 10.004858722476257 0 -1 0 I I #
point $-1 -52.49794000061037 25.827762430916458 10.004858722476257 #
point $-1 -52.49794000061037 -25.827762430916458 10.004858722476257 #
straight-curve $-1 52.49794000061037 -25.827762430916458 0 0 0 -1 I I #
straight-curve $-1 52.49794000061037 25.827762430916458 0 0 0 -1 I I #
edge $-1 $165 46.536649715407442 $168 52.101983883006412 $127 $179 forward 7 unknown #
vertex $-1 $141 $180 #
straight-curve $-1 32.158668090006174 34.645308011131789 10.004858722476257 0 1 0 I I #
edge $-1 $168 -19.891270558765477 $138 -4.6435245037159163 $137 $181 forward 7 unknown #
vertex $-1 $167 $182 #
straight-curve $-1 32.158668090006174 -8.7365297665806168 42.827060991036902 0 -0.66913059716165679 0.74314483375859142 I I #
point $-1 32.158668090006174 20.816713163258655 10.004858722476257 #
point $-1 16.910922034956613 25.827762430916458 4.4395245548772877 #
straight-curve $-1 0 25.827762430916458 10.004858722476257 -1 0 0 I I #
vertex $-1 $144 $183 #
point $-1 26.034795062481393 20.740429221831644 4.8975208137709654 #
straight-curve $-1 -52.49794000061037 25.827762430916458 0 0 0 -1 I I #
point $-1 -52.49794000061037 -25.827762430916458 -10.004858722476257 #
straight-curve $-1 -52.49794000061037 0 -10.004858722476257 0 1 0 I I #
point $-1 -52.49794000061037 25.827762430916458 -10.004858722476257 #
straight-curve $-1 32.158668090006174 25.827762430916458 56.541508437883699 0 0 -1 I I #
point $-1 32.158668090006174 25.827762430916458 10.004858722476257 #
straight-curve $-1 12.267397531240697 25.827762430916462 4.4395245548772841 -1 0 0 I I #
point $-1 32.158668090006174 25.827762430916458 4.4395245548772877 #
point $-1 24.534795062481393 19.625711971193756 3.8938249180284803 #
End-of-ACIS-data 