500 0 3 0           
7 Unknown 11 ACIS 5.0 NT 24 Thu Mar 25 17:22:18 1999 
-1 9.9999999999999995e-007 1e-010 
body $-1 $3 $-1 $4 #
body $-1 $5 $-1 $6 #
body $-1 $7 $-1 $8 #
lump $-1 $-1 $9 $0 #
transform $-1 1 0 0 0 1 0 0 0 1 71.133762627033292 35.315925688659775 9.9159859344272157 1 rotate no_reflect no_shear #
lump $-1 $-1 $10 $1 #
transform $-1 1 0 0 0 1 0 0 0 1 71.133762627033292 35.315925688659775 9.9159859344272157 1 rotate no_reflect no_shear #
lump $-1 $-1 $11 $2 #
transform $-1 1 0 0 0 1 0 0 0 1 71.133762627033292 35.315925688659775 9.9159859344272157 1 rotate no_reflect no_shear #
shell $-1 $-1 $-1 $12 $-1 $3 #
shell $-1 $-1 $-1 $13 $-1 $5 #
shell $-1 $-1 $-1 $14 $-1 $7 #
face $-1 $15 $16 $9 $-1 $17 forward single #
face $-1 $18 $19 $10 $-1 $20 reversed single #
face $-1 $21 $22 $11 $-1 $23 reversed single #
face $-1 $24 $25 $9 $-1 $26 reversed single #
loop $-1 $-1 $27 $12 #
plane-surface $-1 0 0 9.9159859344272157 0 0 1 1 0 0 forward_v I I I I #
face $-1 $28 $29 $10 $-1 $30 reversed single #
loop $-1 $-1 $31 $13 #
plane-surface $-1 -69.633762627033292 -46.354200169398197 0 0 1 0 0 0 1 forward_v I I I I #
face $-1 $32 $33 $11 $-1 $34 reversed single #
loop $-1 $-1 $35 $14 #
plane-surface $-1 -69.633762627033292 46.354200169398204 0 0 -1 0 0 0 -1 forward_v I I I I #
face $-1 $36 $37 $9 $-1 $38 reversed single #
loop $-1 $-1 $39 $15 #
plane-surface $-1 0 0 -9.9159859344272157 0 0 1 1 0 0 forward_v I I I I #
coedge $-1 $40 $41 $42 $43 forward $16 $-1 #
face $-1 $44 $45 $10 $-1 $46 reversed single #
loop $-1 $-1 $47 $18 #
plane-surface $-1 -68.133762627033292 -40.835062929028986 0 -1 0 0 0 0 1 forward_v I I I I #
coedge $-1 $48 $49 $50 $51 forward $19 $-1 #
face $-1 $52 $53 $11 $-1 $54 reversed single #
loop $-1 $-1 $55 $21 #
plane-surface $-1 -68.133762627033292 40.835062929028993 0 -1 0 0 0 0 1 forward_v I I I I #
coedge $-1 $56 $57 $58 $59 forward $22 $-1 #
face $-1 $60 $61 $9 $-1 $62 reversed single #
loop $-1 $-1 $63 $24 #
plane-surface $-1 0 -35.315925688659775 0 0 1 0 0 0 1 forward_v I I I I #
coedge $-1 $64 $65 $66 $67 forward $25 $-1 #
coedge $-1 $68 $27 $69 $70 forward $16 $-1 #
coedge $-1 $27 $68 $71 $72 forward $16 $-1 #
coedge $-1 $73 $74 $27 $43 reversed $75 $-1 #
edge $-1 $76 -35.315925688659775 $77 35.315925688659775 $42 $78 forward 7 unknown #
face $-1 $79 $80 $10 $-1 $81 forward single #
loop $-1 $-1 $82 $28 #
plane-surface $-1 0 -35.315925688659775 0 0 1 0 0 0 1 forward_v I I I I #
coedge $-1 $83 $84 $85 $86 forward $29 $-1 #
coedge $-1 $85 $31 $87 $88 reversed $19 $-1 #
coedge $-1 $31 $85 $89 $90 reversed $19 $-1 #
coedge $-1 $91 $92 $31 $51 reversed $93 $-1 #
edge $-1 $94 -9.9159859344272157 $95 9.9159859344272157 $50 $96 forward 7 unknown #
face $-1 $97 $98 $11 $-1 $99 reversed single #
loop $-1 $-1 $100 $32 #
plane-surface $-1 -69.633762627033292 -46.354200169398197 0 0 1 0 0 0 1 forward_v I I I I #
coedge $-1 $101 $102 $103 $104 reversed $33 $-1 #
coedge $-1 $105 $35 $106 $107 reversed $22 $-1 #
coedge $-1 $35 $105 $108 $109 reversed $22 $-1 #
coedge $-1 $102 $101 $35 $59 reversed $33 $-1 #
edge $-1 $110 -9.9159859344272157 $111 9.9159859344272157 $58 $112 forward 7 unknown #
face $-1 $113 $114 $9 $-1 $115 reversed single #
loop $-1 $-1 $116 $36 #
plane-surface $-1 -71.133762627033292 0 0 1 0 0 0 0 -1 forward_v I I I I #
coedge $-1 $117 $71 $118 $119 forward $37 $-1 #
coedge $-1 $120 $39 $117 $121 forward $25 $-1 #
coedge $-1 $39 $120 $122 $123 forward $25 $-1 #
coedge $-1 $74 $73 $39 $67 reversed $75 $-1 #
edge $-1 $124 -35.315925688659775 $125 35.315925688659775 $66 $126 forward 7 unknown #
coedge $-1 $41 $40 $127 $128 forward $16 $-1 #
coedge $-1 $129 $130 $40 $70 reversed $114 $-1 #
edge $-1 $77 -71.133762627033292 $131 71.133762627033292 $69 $132 forward 7 unknown #
coedge $-1 $63 $133 $41 $72 reversed $37 $-1 #
edge $-1 $134 -71.133762627033292 $76 71.133762627033292 $71 $135 forward 7 unknown #
coedge $-1 $66 $42 $133 $136 forward $75 $-1 #
coedge $-1 $42 $66 $129 $137 reversed $75 $-1 #
loop $-1 $-1 $73 $113 #
vertex $-1 $43 $138 #
vertex $-1 $43 $139 #
straight-curve $-1 71.133762627033292 0 9.9159859344272157 0 1 0 I I #
face $-1 $140 $141 $10 $-1 $142 reversed single #
loop $-1 $-1 $143 $44 #
plane-surface $-1 0 0 9.9159859344272157 0 0 1 1 0 0 forward_v I I I I #
coedge $-1 $144 $145 $146 $147 forward $45 $-1 #
coedge $-1 $146 $47 $148 $149 reversed $29 $-1 #
coedge $-1 $47 $146 $150 $151 reversed $29 $-1 #
coedge $-1 $49 $48 $47 $86 reversed $19 $-1 #
edge $-1 $152 -9.9159859344272157 $153 9.9159859344272157 $47 $154 forward 7 unknown #
coedge $-1 $155 $148 $48 $88 forward $141 $-1 #
edge $-1 $153 -1.5 $95 1.5 $48 $156 forward 7 unknown #
coedge $-1 $150 $157 $49 $90 forward $80 $-1 #
edge $-1 $94 -1.5 $152 1.5 $49 $158 forward 7 unknown #
coedge $-1 $159 $50 $157 $160 reversed $93 $-1 #
coedge $-1 $50 $159 $155 $161 reversed $93 $-1 #
loop $-1 $-1 $159 $140 #
vertex $-1 $160 $162 #
vertex $-1 $161 $163 #
straight-curve $-1 -71.133762627033292 -46.354200169398197 0 0 0 -1 I I #
face $-1 $164 $165 $11 $-1 $166 reversed single #
loop $-1 $-1 $167 $52 #
plane-surface $-1 -68.133762627033292 -40.835062929028986 0 -1 0 0 0 0 1 forward_v I I I I #
coedge $-1 $168 $169 $170 $171 forward $53 $-1 #
coedge $-1 $58 $55 $172 $173 reversed $33 $-1 #
coedge $-1 $55 $58 $174 $175 reversed $33 $-1 #
coedge $-1 $176 $177 $55 $104 forward $178 $-1 #
edge $-1 $179 -9.9159859344272157 $180 9.9159859344272157 $103 $181 forward 7 unknown #
coedge $-1 $57 $56 $182 $183 reversed $22 $-1 #
coedge $-1 $172 $184 $56 $107 forward $185 $-1 #
edge $-1 $186 -1.5 $111 1.5 $56 $187 forward 7 unknown #
coedge $-1 $188 $174 $57 $109 forward $189 $-1 #
edge $-1 $110 -1.5 $190 1.5 $57 $191 forward 7 unknown #
vertex $-1 $175 $192 #
vertex $-1 $173 $193 #
straight-curve $-1 -68.133762627033292 46.354200169398204 0 0 0 -1 I I #
face $-1 $-1 $75 $9 $-1 $194 reversed single #
loop $-1 $-1 $129 $60 #
plane-surface $-1 0 35.315925688659775 0 0 -1 0 0 0 -1 forward_v I I I I #
coedge $-1 $195 $127 $130 $196 forward $61 $-1 #
coedge $-1 $133 $63 $64 $121 reversed $37 $-1 #
coedge $-1 $127 $195 $63 $119 reversed $61 $-1 #
edge $-1 $134 -9.9159859344272157 $197 9.9159859344272157 $118 $198 forward 7 unknown #
coedge $-1 $65 $64 $195 $199 forward $25 $-1 #
edge $-1 $125 -71.133762627033292 $197 71.133762627033292 $117 $200 forward 7 unknown #
coedge $-1 $130 $129 $65 $123 reversed $114 $-1 #
edge $-1 $201 -71.133762627033292 $124 71.133762627033292 $122 $202 forward 7 unknown #
vertex $-1 $67 $203 #
vertex $-1 $136 $204 #
straight-curve $-1 71.133762627033292 0 -9.9159859344272157 0 -1 0 I I #
coedge $-1 $116 $118 $68 $128 reversed $61 $-1 #
edge $-1 $131 -35.315925688659775 $134 35.315925688659775 $127 $205 forward 7 unknown #
coedge $-1 $122 $69 $74 $137 forward $114 $-1 #
coedge $-1 $69 $122 $116 $196 reversed $114 $-1 #
vertex $-1 $70 $206 #
straight-curve $-1 0 35.315925688659775 9.9159859344272157 -1 0 0 I I #
coedge $-1 $71 $117 $73 $136 reversed $37 $-1 #
vertex $-1 $128 $207 #
straight-curve $-1 0 -35.315925688659775 9.9159859344272157 1 0 0 I I #
edge $-1 $76 -9.9159859344272157 $125 9.9159859344272157 $73 $208 forward 7 unknown #
edge $-1 $77 -9.9159859344272157 $124 9.9159859344272157 $74 $209 forward 7 unknown #
point $-1 71.133762627033292 -35.315925688659775 9.9159859344272157 #
point $-1 71.133762627033292 35.315925688659775 9.9159859344272157 #
face $-1 $210 $93 $10 $-1 $211 reversed single #
loop $-1 $-1 $212 $79 #
plane-surface $-1 0 0 -9.9159859344272157 0 0 1 1 0 0 forward_v I I I I #
coedge $-1 $213 $214 $215 $216 forward $80 $-1 #
coedge $-1 $217 $82 $218 $219 reversed $45 $-1 #
coedge $-1 $82 $217 $214 $220 reversed $45 $-1 #
coedge $-1 $84 $83 $82 $147 reversed $29 $-1 #
edge $-1 $221 -9.9159859344272157 $222 9.9159859344272157 $82 $223 forward 7 unknown #
coedge $-1 $87 $218 $83 $149 forward $141 $-1 #
edge $-1 $222 -5.5191372403692114 $153 5.5191372403692114 $83 $224 forward 7 unknown #
coedge $-1 $214 $89 $84 $151 forward $80 $-1 #
edge $-1 $152 -5.5191372403692114 $221 5.5191372403692114 $84 $225 forward 7 unknown #
vertex $-1 $151 $226 #
vertex $-1 $86 $227 #
straight-curve $-1 -68.133762627033292 -46.354200169398197 0 0 0 -1 I I #
coedge $-1 $228 $87 $92 $161 forward $141 $-1 #
straight-curve $-1 -69.633762627033292 -46.354200169398197 -9.9159859344272157 -1 0 0 I I #
coedge $-1 $89 $213 $91 $160 forward $80 $-1 #
straight-curve $-1 -69.633762627033292 -46.354200169398197 9.9159859344272157 1 0 0 I I #
coedge $-1 $92 $91 $229 $230 forward $93 $-1 #
edge $-1 $231 -35.315925688659775 $94 46.354200169398197 $91 $232 forward 7 unknown #
edge $-1 $95 -46.354200169398197 $233 35.315925688659775 $92 $234 forward 7 unknown #
point $-1 -71.133762627033292 -46.354200169398197 9.9159859344272157 #
point $-1 -71.133762627033292 -46.354200169398197 -9.9159859344272157 #
face $-1 $235 $189 $11 $-1 $236 forward single #
loop $-1 $-1 $237 $97 #
plane-surface $-1 0 -35.315925688659775 0 0 1 0 0 0 1 forward_v I I I I #
coedge $-1 $238 $239 $240 $241 forward $98 $-1 #
coedge $-1 $240 $100 $242 $243 reversed $53 $-1 #
coedge $-1 $100 $240 $244 $245 reversed $53 $-1 #
coedge $-1 $246 $247 $100 $171 reversed $248 $-1 #
edge $-1 $249 -9.9159859344272157 $250 9.9159859344272157 $170 $251 forward 7 unknown #
coedge $-1 $252 $106 $101 $173 forward $185 $-1 #
edge $-1 $111 -5.5191372403692114 $179 5.5191372403692114 $101 $253 forward 7 unknown #
coedge $-1 $108 $254 $102 $175 forward $189 $-1 #
edge $-1 $180 -5.5191372403692114 $110 5.5191372403692114 $102 $255 forward 7 unknown #
coedge $-1 $256 $103 $254 $257 reversed $178 $-1 #
coedge $-1 $103 $256 $252 $258 reversed $178 $-1 #
loop $-1 $-1 $103 $259 #
vertex $-1 $258 $260 #
vertex $-1 $175 $261 #
straight-curve $-1 -68.133762627033292 35.315925688659775 0 0 0 1 I I #
coedge $-1 $247 $246 $105 $183 forward $248 $-1 #
edge $-1 $190 -9.9159859344272157 $186 9.9159859344272157 $105 $262 forward 7 unknown #
coedge $-1 $106 $242 $247 $263 forward $185 $-1 #
loop $-1 $-1 $264 $235 #
vertex $-1 $107 $265 #
straight-curve $-1 -69.633762627033292 46.354200169398204 -9.9159859344272157 1 0 0 I I #
coedge $-1 $244 $108 $246 $266 forward $189 $-1 #
loop $-1 $-1 $267 $164 #
vertex $-1 $109 $268 #
straight-curve $-1 -69.633762627033292 46.354200169398204 9.9159859344272157 -1 0 0 I I #
point $-1 -68.133762627033292 46.354200169398204 9.9159859344272157 #
point $-1 -68.133762627033292 46.354200169398204 -9.9159859344272157 #
plane-surface $-1 71.133762627033292 0 0 -1 0 0 0 0 1 forward_v I I I I #
coedge $-1 $118 $116 $120 $199 reversed $61 $-1 #
edge $-1 $131 -9.9159859344272157 $201 9.9159859344272157 $130 $269 forward 7 unknown #
vertex $-1 $199 $270 #
straight-curve $-1 -71.133762627033292 -35.315925688659775 0 0 0 -1 I I #
edge $-1 $197 -35.315925688659775 $201 35.315925688659775 $195 $271 forward 7 unknown #
straight-curve $-1 0 -35.315925688659775 -9.9159859344272157 -1 0 0 I I #
vertex $-1 $123 $272 #
straight-curve $-1 0 35.315925688659775 -9.9159859344272157 1 0 0 I I #
point $-1 71.133762627033292 35.315925688659775 -9.9159859344272157 #
point $-1 71.133762627033292 -35.315925688659775 -9.9159859344272157 #
straight-curve $-1 -71.133762627033292 0 9.9159859344272157 0 -1 0 I I #
point $-1 -71.133762627033292 35.315925688659775 9.9159859344272157 #
point $-1 -71.133762627033292 -35.315925688659775 9.9159859344272157 #
straight-curve $-1 71.133762627033292 -35.315925688659775 0 0 0 -1 I I #
straight-curve $-1 71.133762627033292 35.315925688659775 0 0 0 -1 I I #
face $-1 $273 $274 $10 $-1 $275 reversed single #
plane-surface $-1 -71.133762627033292 0 0 1 0 0 0 0 -1 forward_v I I I I #
coedge $-1 $218 $228 $276 $277 forward $141 $-1 #
coedge $-1 $157 $143 $278 $279 forward $80 $-1 #
coedge $-1 $143 $150 $145 $220 forward $80 $-1 #
coedge $-1 $280 $281 $143 $216 reversed $282 $-1 #
edge $-1 $283 -35.315925688659775 $284 35.315925688659775 $215 $285 forward 7 unknown #
coedge $-1 $145 $144 $280 $286 reversed $45 $-1 #
coedge $-1 $148 $212 $144 $219 forward $141 $-1 #
edge $-1 $287 -71.133762627033292 $222 68.133762627033292 $144 $288 forward 7 unknown #
edge $-1 $221 -68.133762627033292 $283 71.133762627033292 $145 $289 forward 7 unknown #
vertex $-1 $220 $290 #
vertex $-1 $149 $291 #
straight-curve $-1 -68.133762627033292 -35.315925688659775 0 0 0 -1 I I #
straight-curve $-1 -68.133762627033292 -40.835062929028986 -9.9159859344272157 0 -1 0 I I #
straight-curve $-1 -68.133762627033292 -40.835062929028986 9.9159859344272157 0 1 0 I I #
point $-1 -68.133762627033292 -46.354200169398197 9.9159859344272157 #
point $-1 -68.133762627033292 -46.354200169398197 -9.9159859344272157 #
coedge $-1 $212 $155 $292 $293 forward $141 $-1 #
coedge $-1 $278 $292 $159 $230 reversed $274 $-1 #
edge $-1 $231 -9.9159859344272157 $233 9.9159859344272157 $229 $294 forward 7 unknown #
vertex $-1 $279 $295 #
straight-curve $-1 -71.133762627033292 0 9.9159859344272157 0 -1 0 I I #
vertex $-1 $293 $296 #
straight-curve $-1 -71.133762627033292 0 -9.9159859344272157 0 1 0 I I #
face $-1 $297 $185 $11 $-1 $298 reversed single #
plane-surface $-1 0 0 9.9159859344272157 0 0 1 1 0 0 forward_v I I I I #
coedge $-1 $299 $300 $301 $302 forward $165 $-1 #
coedge $-1 $301 $167 $303 $304 reversed $98 $-1 #
coedge $-1 $167 $301 $305 $306 reversed $98 $-1 #
coedge $-1 $169 $168 $167 $241 reversed $53 $-1 #
edge $-1 $307 -9.9159859344272157 $308 9.9159859344272157 $167 $309 forward 7 unknown #
coedge $-1 $184 $303 $168 $243 forward $185 $-1 #
edge $-1 $308 -1.5 $250 1.5 $168 $310 forward 7 unknown #
coedge $-1 $305 $188 $169 $245 forward $189 $-1 #
edge $-1 $249 -1.5 $307 1.5 $169 $311 forward 7 unknown #
coedge $-1 $182 $170 $188 $266 reversed $248 $-1 #
coedge $-1 $170 $182 $184 $263 reversed $248 $-1 #
loop $-1 $-1 $247 $297 #
vertex $-1 $266 $312 #
vertex $-1 $263 $313 #
straight-curve $-1 -71.133762627033292 -46.354200169398197 0 0 0 -1 I I #
coedge $-1 $264 $172 $177 $258 forward $185 $-1 #
straight-curve $-1 -68.133762627033292 40.835062929028993 -9.9159859344272157 0 -1 0 I I #
coedge $-1 $174 $267 $176 $257 forward $189 $-1 #
straight-curve $-1 -68.133762627033292 40.835062929028993 9.9159859344272157 0 1 0 I I #
coedge $-1 $177 $176 $314 $315 forward $178 $-1 #
edge $-1 $316 -71.133762627033292 $180 68.133762627033292 $176 $317 forward 7 unknown #
edge $-1 $179 -68.133762627033292 $318 71.133762627033292 $177 $319 forward 7 unknown #
face $-1 $320 $178 $11 $-1 $321 reversed single #
point $-1 -68.133762627033292 35.315925688659782 -9.9159859344272157 #
point $-1 -68.133762627033292 35.315925688659782 9.9159859344272157 #
straight-curve $-1 -71.133762627033292 46.354200169398204 0 0 0 -1 I I #
edge $-1 $250 -87.18926309842719 $186 5.5191372403692114 $247 $322 forward 7 unknown #
coedge $-1 $323 $252 $324 $325 forward $185 $-1 #
point $-1 -71.133762627033292 46.354200169398204 -9.9159859344272157 #
edge $-1 $190 -46.354200169398204 $249 46.354200169398197 $246 $326 forward 7 unknown #
coedge $-1 $254 $327 $328 $329 forward $189 $-1 #
point $-1 -71.133762627033292 46.354200169398204 9.9159859344272157 #
straight-curve $-1 -71.133762627033292 35.315925688659775 0 0 0 -1 I I #
point $-1 -71.133762627033292 -35.315925688659775 -9.9159859344272157 #
straight-curve $-1 -71.133762627033292 0 -9.9159859344272157 0 1 0 I I #
point $-1 -71.133762627033292 35.315925688659775 -9.9159859344272157 #
face $-1 $-1 $282 $10 $-1 $330 reversed single #
loop $-1 $-1 $331 $210 #
plane-surface $-1 0 35.315925688659775 0 0 -1 0 0 0 -1 forward_v I I I I #
coedge $-1 $281 $280 $212 $277 reversed $282 $-1 #
edge $-1 $332 -35.315925688659775 $287 35.315925688659775 $276 $333 forward 7 unknown #
coedge $-1 $331 $229 $213 $279 reversed $274 $-1 #
edge $-1 $284 -71.133762627033292 $231 71.133762627033292 $278 $334 forward 7 unknown #
coedge $-1 $276 $215 $217 $286 forward $282 $-1 #
coedge $-1 $215 $276 $331 $335 reversed $282 $-1 #
loop $-1 $-1 $280 $273 #
vertex $-1 $216 $336 #
vertex $-1 $216 $337 #
straight-curve $-1 71.133762627033292 0 9.9159859344272157 0 1 0 I I #
edge $-1 $283 -9.9159859344272157 $287 9.9159859344272157 $280 $338 forward 7 unknown #
vertex $-1 $286 $339 #
straight-curve $-1 0 -35.315925688659775 -9.9159859344272157 -1 0 0 I I #
straight-curve $-1 0 -35.315925688659775 9.9159859344272157 1 0 0 I I #
point $-1 -68.133762627033292 -35.315925688659775 9.9159859344272157 #
point $-1 -68.133762627033292 -35.315925688659775 -9.9159859344272157 #
coedge $-1 $229 $331 $228 $293 reversed $274 $-1 #
edge $-1 $233 -71.133762627033292 $332 71.133762627033292 $292 $340 forward 7 unknown #
straight-curve $-1 -71.133762627033292 35.315925688659775 0 0 0 -1 I I #
point $-1 -71.133762627033292 35.315925688659775 9.9159859344272157 #
point $-1 -71.133762627033292 35.315925688659775 -9.9159859344272157 #
face $-1 $259 $248 $11 $-1 $341 reversed single #
plane-surface $-1 0 0 -9.9159859344272157 0 0 1 1 0 0 forward_v I I I I #
coedge $-1 $342 $237 $323 $343 reversed $165 $-1 #
coedge $-1 $237 $342 $327 $344 reversed $165 $-1 #
coedge $-1 $239 $238 $237 $302 reversed $98 $-1 #
edge $-1 $345 -9.9159859344272157 $346 9.9159859344272157 $237 $347 forward 7 unknown #
coedge $-1 $242 $323 $238 $304 forward $185 $-1 #
edge $-1 $346 -5.5191372403692114 $308 5.5191372403692114 $238 $348 forward 7 unknown #
coedge $-1 $327 $244 $239 $306 forward $189 $-1 #
edge $-1 $307 -5.5191372403692114 $345 5.5191372403692114 $239 $349 forward 7 unknown #
vertex $-1 $306 $350 #
vertex $-1 $241 $351 #
straight-curve $-1 -68.133762627033292 -46.354200169398197 0 0 0 -1 I I #
straight-curve $-1 -69.633762627033292 -46.354200169398197 -9.9159859344272157 -1 0 0 I I #
straight-curve $-1 -69.633762627033292 -46.354200169398197 9.9159859344272157 1 0 0 I I #
point $-1 -71.133762627033292 -46.354200169398197 9.9159859344272157 #
point $-1 -71.133762627033292 -46.354200169398197 -9.9159859344272157 #
coedge $-1 $328 $324 $256 $315 reversed $352 $-1 #
edge $-1 $316 -9.9159859344272157 $318 9.9159859344272157 $314 $353 forward 7 unknown #
vertex $-1 $329 $354 #
straight-curve $-1 0 35.315925688659775 9.9159859344272157 -1 0 0 I I #
vertex $-1 $325 $355 #
straight-curve $-1 0 35.315925688659775 -9.9159859344272157 1 0 0 I I #
face $-1 $-1 $352 $11 $-1 $356 reversed single #
plane-surface $-1 0 35.315925688659775 0 0 -1 0 0 0 -1 forward_v I I I I #
straight-curve $-1 -71.133762627033292 40.835062929028993 -9.9159859344272157 0 1 0 I I #
coedge $-1 $303 $264 $299 $343 forward $185 $-1 #
coedge $-1 $314 $357 $264 $325 reversed $352 $-1 #
edge $-1 $318 -35.315925688659775 $358 35.315925688659775 $324 $359 forward 7 unknown #
straight-curve $-1 -71.133762627033292 0 9.9159859344272157 0 -1 0 I I #
coedge $-1 $267 $305 $300 $344 forward $189 $-1 #
coedge $-1 $357 $314 $267 $329 reversed $352 $-1 #
edge $-1 $360 -35.315925688659775 $316 35.315925688659775 $328 $361 forward 7 unknown #
plane-surface $-1 71.133762627033292 0 0 -1 0 0 0 0 1 forward_v I I I I #
coedge $-1 $292 $278 $281 $335 forward $274 $-1 #
vertex $-1 $277 $362 #
straight-curve $-1 71.133762627033292 0 -9.9159859344272157 0 -1 0 I I #
straight-curve $-1 0 35.315925688659775 9.9159859344272157 -1 0 0 I I #
edge $-1 $284 -9.9159859344272157 $332 9.9159859344272157 $281 $363 forward 7 unknown #
point $-1 71.133762627033292 -35.315925688659775 9.9159859344272157 #
point $-1 71.133762627033292 35.315925688659775 9.9159859344272157 #
straight-curve $-1 71.133762627033292 -35.315925688659775 0 0 0 -1 I I #
point $-1 71.133762627033292 -35.315925688659775 -9.9159859344272157 #
straight-curve $-1 0 35.315925688659775 -9.9159859344272157 1 0 0 I I #
plane-surface $-1 -71.133762627033292 0 0 1 0 0 0 0 -1 forward_v I I I I #
coedge $-1 $300 $299 $357 $364 reversed $165 $-1 #
edge $-1 $358 -71.133762627033292 $346 68.133762627033292 $299 $365 forward 7 unknown #
edge $-1 $345 -68.133762627033292 $360 71.133762627033292 $300 $366 forward 7 unknown #
vertex $-1 $344 $367 #
vertex $-1 $304 $368 #
straight-curve $-1 -68.133762627033292 -35.315925688659775 0 0 0 -1 I I #
straight-curve $-1 -68.133762627033292 -40.835062929028986 -9.9159859344272157 0 -1 0 I I #
straight-curve $-1 -68.133762627033292 -40.835062929028986 9.9159859344272157 0 1 0 I I #
point $-1 -68.133762627033292 -46.354200169398197 9.9159859344272157 #
point $-1 -68.133762627033292 -46.354200169398197 -9.9159859344272157 #
loop $-1 $-1 $357 $320 #
straight-curve $-1 71.133762627033292 35.315925688659775 0 0 0 -1 I I #
point $-1 71.133762627033292 35.315925688659775 9.9159859344272157 #
point $-1 71.133762627033292 35.315925688659775 -9.9159859344272157 #
plane-surface $-1 71.133762627033292 0 0 -1 0 0 0 0 1 forward_v I I I I #
coedge $-1 $324 $328 $342 $364 forward $352 $-1 #
vertex $-1 $364 $369 #
straight-curve $-1 71.133762627033292 0 -9.9159859344272157 0 -1 0 I I #
vertex $-1 $329 $370 #
straight-curve $-1 71.133762627033292 0 9.9159859344272157 0 1 0 I I #
point $-1 71.133762627033292 35.315925688659775 -9.9159859344272157 #
straight-curve $-1 71.133762627033292 35.315925688659775 0 0 0 -1 I I #
edge $-1 $360 -9.9159859344272157 $358 9.9159859344272157 $357 $371 forward 7 unknown #
straight-curve $-1 0 -35.315925688659775 -9.9159859344272157 -1 0 0 I I #
straight-curve $-1 0 -35.315925688659775 9.9159859344272157 1 0 0 I I #
point $-1 -68.133762627033292 -35.315925688659775 9.9159859344272157 #
point $-1 -68.133762627033292 -35.315925688659775 -9.9159859344272157 #
point $-1 71.133762627033292 -35.315925688659775 -9.9159859344272157 #
point $-1 71.133762627033292 -35.315925688659775 9.9159859344272157 #
straight-curve $-1 71.133762627033292 -35.315925688659775 0 0 0 -1 I I #
End-of-ACIS-data 