500 0 14 0           
7 Unknown 11 ACIS 5.0 NT 24 Fri Mar 26 01:03:01 1999 
-1 9.9999999999999995e-007 1e-010 
body $-1 $14 $-1 $15 #
body $-1 $16 $-1 $17 #
body $-1 $18 $-1 $19 #
body $-1 $20 $-1 $21 #
body $-1 $22 $-1 $23 #
body $-1 $24 $-1 $25 #
body $-1 $26 $-1 $27 #
body $-1 $28 $-1 $29 #
body $-1 $30 $-1 $31 #
body $-1 $32 $-1 $33 #
body $-1 $34 $-1 $35 #
body $-1 $36 $-1 $37 #
body $-1 $38 $-1 $39 #
body $-1 $40 $-1 $41 #
lump $-1 $-1 $42 $0 #
transform $-1 1 0 0 0 1 0 0 0 1 42.319406720175785 20.313754344257479 10.028176485405272 1 rotate no_reflect no_shear #
lump $-1 $-1 $43 $1 #
transform $-1 1 0 0 0 1 0 0 0 1 42.319406720175785 20.313754344257479 10.028176485405272 1 rotate no_reflect no_shear #
lump $-1 $-1 $44 $2 #
transform $-1 1 0 0 0 1 0 0 0 1 42.319406720175785 20.313754344257479 10.028176485405272 1 rotate no_reflect no_shear #
lump $-1 $-1 $45 $3 #
transform $-1 1 0 0 0 1 0 0 0 1 42.319406720175785 20.313754344257479 10.028176485405272 1 rotate no_reflect no_shear #
lump $-1 $-1 $46 $4 #
transform $-1 1 0 0 0 1 0 0 0 1 42.319406720175785 20.313754344257479 10.028176485405272 1 rotate no_reflect no_shear #
lump $-1 $-1 $47 $5 #
transform $-1 1 0 0 0 1 0 0 0 1 42.319406720175785 20.313754344257479 10.028176485405272 1 rotate no_reflect no_shear #
lump $-1 $-1 $48 $6 #
transform $-1 1 0 0 0 1 0 0 0 1 42.319406720175785 20.313754344257479 10.028176485405272 1 rotate no_reflect no_shear #
lump $-1 $-1 $49 $7 #
transform $-1 1 0 0 0 1 0 0 0 1 42.319406720175785 20.313754344257479 10.028176485405272 1 rotate no_reflect no_shear #
lump $-1 $-1 $50 $8 #
transform $-1 1 0 0 0 1 0 0 0 1 42.319406720175785 20.313754344257479 10.028176485405272 1 rotate no_reflect no_shear #
lump $-1 $-1 $51 $9 #
transform $-1 1 0 0 0 1 0 0 0 1 42.319406720175785 20.313754344257479 10.028176485405272 1 rotate no_reflect no_shear #
lump $-1 $-1 $52 $10 #
transform $-1 1 0 0 0 1 0 0 0 1 42.319406720175785 20.313754344257479 10.028176485405272 1 rotate no_reflect no_shear #
lump $-1 $-1 $53 $11 #
transform $-1 1 0 0 0 1 0 0 0 1 42.319406720175785 20.313754344257479 10.028176485405272 1 rotate no_reflect no_shear #
lump $-1 $-1 $54 $12 #
transform $-1 1 0 0 0 1 0 0 0 1 42.319406720175785 20.313754344257479 10.028176485405272 1 rotate no_reflect no_shear #
lump $-1 $-1 $55 $13 #
transform $-1 1 0 0 0 1 0 0 0 1 42.319406720175785 20.313754344257479 10.028176485405272 1 rotate no_reflect no_shear #
shell $-1 $-1 $-1 $56 $-1 $14 #
shell $-1 $-1 $-1 $57 $-1 $16 #
shell $-1 $-1 $-1 $58 $-1 $18 #
shell $-1 $-1 $-1 $59 $-1 $20 #
shell $-1 $-1 $-1 $60 $-1 $22 #
shell $-1 $-1 $-1 $61 $-1 $24 #
shell $-1 $-1 $-1 $62 $-1 $26 #
shell $-1 $-1 $-1 $63 $-1 $28 #
shell $-1 $-1 $-1 $64 $-1 $30 #
shell $-1 $-1 $-1 $65 $-1 $32 #
shell $-1 $-1 $-1 $66 $-1 $34 #
shell $-1 $-1 $-1 $67 $-1 $36 #
shell $-1 $-1 $-1 $68 $-1 $38 #
shell $-1 $-1 $-1 $69 $-1 $40 #
face $-1 $70 $71 $42 $-1 $72 forward single #
face $-1 $73 $74 $43 $-1 $75 reversed single #
face $-1 $76 $77 $44 $-1 $78 forward single #
face $-1 $79 $80 $45 $-1 $81 reversed single #
face $-1 $82 $83 $46 $-1 $84 forward single #
face $-1 $85 $86 $47 $-1 $87 forward single #
face $-1 $88 $89 $48 $-1 $90 reversed single #
face $-1 $91 $92 $49 $-1 $93 forward single #
face $-1 $94 $95 $50 $-1 $96 reversed single #
face $-1 $97 $98 $51 $-1 $99 forward single #
face $-1 $100 $101 $52 $-1 $102 reversed single #
face $-1 $103 $104 $53 $-1 $105 forward single #
face $-1 $106 $107 $54 $-1 $108 reversed single #
face $-1 $109 $110 $55 $-1 $111 forward single #
face $-1 $112 $113 $42 $-1 $114 reversed single #
loop $-1 $-1 $115 $56 #
plane-surface $-1 0 0 10.028176485405272 0 0 1 1 0 0 forward_v I I I I #
face $-1 $116 $117 $43 $-1 $118 reversed single #
loop $-1 $-1 $119 $57 #
plane-surface $-1 -36.22052973637453 -16.646906792078926 0 0 -1 0 0 0 -1 forward_v I I I I #
face $-1 $120 $121 $44 $-1 $122 reversed single #
loop $-1 $-1 $123 $58 #
plane-surface $-1 37.735654471603162 0 2.3941273413406607 0 0 1 1 0 0 forward_v I I I I #
face $-1 $124 $125 $45 $-1 $126 reversed single #
loop $-1 $-1 $127 $59 #
plane-surface $-1 16.233987295015208 -65.165492680357289 75.74283658375451 -1 0 0 0 -0.52991927123019833 0.84804809178421925 forward_v I I I I #
face $-1 $128 $129 $46 $-1 $130 forward single #
loop $-1 $131 $132 $60 #
cone-surface $-1 8.6962718542586686 -14.975121826535297 6.2170608281091235 0 0.52991927123019833 -0.84804809178421925 1 0 0 1 I I 0 1 1 forward I I I I #
face $-1 $133 $134 $47 $-1 $135 forward single #
loop $-1 $136 $137 $61 #
cone-surface $-1 13.218901118712594 -14.975121826535297 6.2170608281091235 0 0.52991927123019833 -0.84804809178421925 1 0 0 1 I I 0 1 1 forward I I I I #
face $-1 $138 $139 $48 $-1 $140 reversed single #
loop $-1 $-1 $141 $62 #
plane-surface $-1 -27.484981982207394 33.961447810486504 95.314319223818728 1 0 0 0 -0.55919291073839883 -0.82903756765294845 forward_v I I I I #
face $-1 $142 $143 $49 $-1 $144 forward single #
loop $-1 $145 $146 $63 #
cone-surface $-1 -23.179060829791105 14.069439033180918 5.3236845243817248 0 -0.55919291073839883 -0.82903756765294845 2 0 0 1 I I 0 1 2 forward I I I I #
face $-1 $147 $148 $50 $-1 $149 reversed single #
loop $-1 $-1 $150 $64 #
plane-surface $-1 -11.66659323830644 33.961447810486504 95.314319223818728 1 0 0 0 -0.55919291073839883 -0.82903756765294845 forward_v I I I I #
face $-1 $151 $152 $51 $-1 $153 forward single #
loop $-1 $154 $155 $65 #
cone-surface $-1 -7.3606720858901511 14.069439033180918 5.3236845243817248 0 -0.55919291073839883 -0.82903756765294845 2 0 0 1 I I 0 1 2 forward I I I I #
face $-1 $156 $157 $52 $-1 $158 reversed single #
loop $-1 $-1 $159 $66 #
plane-surface $-1 4.1517955055945128 33.961447810486504 95.314319223818728 1 0 0 0 -0.55919291073839883 -0.82903756765294845 forward_v I I I I #
face $-1 $160 $161 $53 $-1 $162 forward single #
loop $-1 $163 $164 $67 #
cone-surface $-1 8.4577166580108027 14.069439033180918 5.3236845243817248 0 -0.55919291073839883 -0.82903756765294845 2 0 0 1 I I 0 1 2 forward I I I I #
face $-1 $165 $166 $54 $-1 $167 reversed single #
loop $-1 $-1 $168 $68 #
plane-surface $-1 19.970184249495468 33.961447810486504 95.314319223818728 1 0 0 0 -0.55919291073839883 -0.82903756765294845 forward_v I I I I #
face $-1 $169 $170 $55 $-1 $171 forward single #
loop $-1 $172 $173 $69 #
cone-surface $-1 24.276105401911757 14.069439033180918 5.3236845243817248 0 -0.55919291073839883 -0.82903756765294845 2 0 0 1 I I 0 1 2 forward I I I I #
face $-1 $174 $175 $42 $-1 $176 reversed single #
loop $-1 $-1 $177 $70 #
plane-surface $-1 0 0 -10.028176485405272 0 0 1 1 0 0 forward_v I I I I #
coedge $-1 $178 $179 $180 $181 forward $71 $-1 #
face $-1 $182 $183 $43 $-1 $184 forward single #
loop $-1 $-1 $185 $73 #
plane-surface $-1 -30.121652752573276 -18.480330568168203 0 -1 0 0 0 0 1 forward_v I I I I #
coedge $-1 $186 $187 $188 $189 forward $74 $-1 #
face $-1 $190 $191 $44 $-1 $192 reversed single #
loop $-1 $-1 $193 $76 #
plane-surface $-1 37.735654471603162 0 -0.93460169583573549 0 0 1 1 0 0 forward_v I I I I #
coedge $-1 $194 $195 $196 $197 reversed $77 $-1 #
face $-1 $198 $199 $45 $-1 $200 reversed single #
loop $-1 $-1 $201 $79 #
plane-surface $-1 10.957586486485631 -20.313754344257461 3.9650523547838219 0 -0.52991927123019833 0.84804809178421925 1 0 0 forward_v I I I I #
coedge $-1 $202 $203 $204 $205 reversed $80 $-1 #
face $-1 $-1 $206 $46 $-1 $207 forward single #
loop $-1 $208 $209 $82 #
cone-surface $-1 8.6962718542586686 -14.22304303417441 5.0134831902315824 0 0.52991927123019833 -0.84804809178421925 0.5 0 0 1 I I -0.70710678118654691 0.70710678118654813 0.5 forward I I I I #
loop $-1 $-1 $210 $60 #
coedge $-1 $132 $132 $211 $212 reversed $83 $-1 #
face $-1 $-1 $213 $47 $-1 $214 forward single #
loop $-1 $215 $216 $85 #
cone-surface $-1 13.218901118712594 -14.22304303417441 5.0134831902315824 0 0.52991927123019833 -0.84804809178421925 0.5 0 0 1 I I -0.70710678118654691 0.70710678118654813 0.5 forward I I I I #
loop $-1 $-1 $217 $61 #
coedge $-1 $137 $137 $218 $219 reversed $86 $-1 #
face $-1 $220 $221 $48 $-1 $222 reversed single #
loop $-1 $-1 $223 $88 #
plane-surface $-1 -23.179060829791105 -13.367976638668004 25.145563200197984 0 0.55919291073839883 0.82903756765294845 1 0 0 forward_v I I I I #
coedge $-1 $224 $225 $226 $227 reversed $89 $-1 #
face $-1 $-1 $228 $49 $-1 $229 forward single #
loop $-1 $230 $231 $91 #
cone-surface $-1 -23.179060829791105 12.900572770102382 3.5907690580990099 0 -0.55919291073839883 -0.82903756765294845 1 0 0 1 I I -0.70710678118654746 0.70710678118654746 1 forward I I I I #
loop $-1 $-1 $232 $63 #
coedge $-1 $146 $146 $233 $234 reversed $92 $-1 #
face $-1 $235 $236 $50 $-1 $237 reversed single #
loop $-1 $-1 $238 $94 #
plane-surface $-1 -7.3606720858901511 -13.367976638668004 25.145563200197984 0 0.55919291073839883 0.82903756765294845 1 0 0 forward_v I I I I #
coedge $-1 $239 $240 $241 $242 reversed $95 $-1 #
face $-1 $-1 $243 $51 $-1 $244 forward single #
loop $-1 $245 $246 $97 #
cone-surface $-1 -7.3606720858901511 12.900572770102382 3.5907690580990099 0 -0.55919291073839883 -0.82903756765294845 1 0 0 1 I I -0.70710678118654746 0.70710678118654746 1 forward I I I I #
loop $-1 $-1 $247 $65 #
coedge $-1 $155 $155 $248 $249 reversed $98 $-1 #
face $-1 $250 $251 $52 $-1 $252 reversed single #
loop $-1 $-1 $253 $100 #
plane-surface $-1 8.4577166580108027 -13.367976638668004 25.145563200197984 0 0.55919291073839883 0.82903756765294845 1 0 0 forward_v I I I I #
coedge $-1 $254 $255 $256 $257 reversed $101 $-1 #
face $-1 $-1 $258 $53 $-1 $259 forward single #
loop $-1 $260 $261 $103 #
cone-surface $-1 8.4577166580108027 12.900572770102382 3.5907690580990099 0 -0.55919291073839883 -0.82903756765294845 1 0 0 1 I I -0.70710678118654746 0.70710678118654746 1 forward I I I I #
loop $-1 $-1 $262 $67 #
coedge $-1 $164 $164 $263 $264 reversed $104 $-1 #
face $-1 $265 $266 $54 $-1 $267 reversed single #
loop $-1 $-1 $268 $106 #
plane-surface $-1 24.276105401911757 -13.367976638668004 25.145563200197984 0 0.55919291073839883 0.82903756765294845 1 0 0 forward_v I I I I #
coedge $-1 $269 $270 $271 $272 reversed $107 $-1 #
face $-1 $-1 $273 $55 $-1 $274 forward single #
loop $-1 $275 $276 $109 #
cone-surface $-1 24.276105401911757 12.900572770102382 3.5907690580990099 0 -0.55919291073839883 -0.82903756765294845 1 0 0 1 I I -0.70710678118654746 0.70710678118654746 1 forward I I I I #
loop $-1 $-1 $277 $69 #
coedge $-1 $173 $173 $278 $279 reversed $110 $-1 #
face $-1 $280 $281 $42 $-1 $282 reversed single #
loop $-1 $-1 $283 $112 #
plane-surface $-1 0 -20.313754344257479 0 0 1 0 0 0 1 forward_v I I I I #
coedge $-1 $284 $285 $286 $287 forward $113 $-1 #
coedge $-1 $288 $115 $289 $290 forward $71 $-1 #
coedge $-1 $115 $288 $291 $292 forward $71 $-1 #
coedge $-1 $293 $294 $115 $181 reversed $295 $-1 #
edge $-1 $296 -20.313754344257479 $297 20.313754344257479 $180 $298 forward 7 unknown #
face $-1 $299 $300 $43 $-1 $301 reversed single #
loop $-1 $-1 $302 $116 #
plane-surface $-1 0 0 10.028176485405272 0 0 1 1 0 0 forward_v I I I I #
coedge $-1 $303 $304 $305 $306 reversed $117 $-1 #
coedge $-1 $307 $119 $308 $309 reversed $74 $-1 #
coedge $-1 $119 $307 $310 $311 reversed $74 $-1 #
coedge $-1 $304 $303 $119 $189 reversed $117 $-1 #
edge $-1 $312 -10.028176485405272 $313 10.028176485405272 $188 $314 forward 7 unknown #
face $-1 $315 $316 $44 $-1 $317 reversed single #
loop $-1 $-1 $318 $120 #
plane-surface $-1 33.15190222303054 0 0.72976282275246263 1 0 0 0 0 -1 forward_v I I I I #
coedge $-1 $319 $320 $321 $322 reversed $121 $-1 #
coedge $-1 $323 $123 $324 $325 reversed $77 $-1 #
coedge $-1 $123 $323 $326 $327 reversed $77 $-1 #
coedge $-1 $328 $329 $123 $197 forward $330 $-1 #
edge $-1 $331 -20.313754344257479 $332 20.313754344257479 $196 $333 forward 7 unknown #
face $-1 $334 $335 $45 $-1 $336 forward single #
loop $-1 $-1 $337 $124 #
plane-surface $-1 5.681185677956055 -65.165492680357289 75.74283658375451 1 0 0 0 0.52991927123019833 -0.84804809178421925 forward_v I I I I #
coedge $-1 $338 $339 $340 $341 reversed $125 $-1 #
coedge $-1 $203 $127 $342 $343 reversed $80 $-1 #
coedge $-1 $127 $202 $338 $344 reversed $80 $-1 #
coedge $-1 $340 $345 $127 $205 forward $335 $-1 #
edge $-1 $346 12.268991995921166 $347 21.972018717873993 $204 $348 forward 7 unknown #
loop $-1 $-1 $211 $128 #
plane-surface $-1 10.957586486485631 -20.313754344257461 3.9650523547838219 0 -0.52991927123019833 0.84804809178421925 1 0 0 forward_v I I I I #
loop $-1 $-1 $349 $82 #
coedge $-1 $209 $209 $210 $350 reversed $129 $-1 #
coedge $-1 $210 $210 $209 $350 forward $131 $-1 #
coedge $-1 $211 $211 $132 $212 forward $206 $-1 #
edge $-1 $351 -9.6021810979663e-017 $351 6.2831853071796004 $211 $352 forward 7 unknown #
loop $-1 $-1 $218 $133 #
plane-surface $-1 10.957586486485631 -20.313754344257461 3.9650523547838219 0 -0.52991927123019833 0.84804809178421925 1 0 0 forward_v I I I I #
loop $-1 $-1 $353 $85 #
coedge $-1 $216 $216 $217 $354 reversed $134 $-1 #
coedge $-1 $217 $217 $216 $354 forward $136 $-1 #
coedge $-1 $218 $218 $137 $219 forward $213 $-1 #
edge $-1 $355 -9.6021810979663e-017 $355 6.2831853071796004 $218 $356 forward 7 unknown #
face $-1 $357 $358 $48 $-1 $359 reversed single #
loop $-1 $-1 $360 $138 #
plane-surface $-1 -18.873139677374816 33.961447810486504 95.314319223818728 -1 0 0 0 0.55919291073839883 0.82903756765294845 forward_v I I I I #
coedge $-1 $361 $362 $363 $364 reversed $139 $-1 #
coedge $-1 $225 $141 $365 $366 reversed $89 $-1 #
coedge $-1 $141 $224 $361 $367 reversed $89 $-1 #
coedge $-1 $363 $368 $141 $227 forward $369 $-1 #
edge $-1 $370 -3.3330304390142267 $371 7.9362534784586174 $226 $372 forward 7 unknown #
loop $-1 $-1 $233 $142 #
plane-surface $-1 -23.179060829791105 -13.367976638668004 25.145563200197984 0 0.55919291073839883 0.82903756765294845 1 0 0 forward_v I I I I #
loop $-1 $-1 $373 $91 #
coedge $-1 $231 $231 $232 $374 reversed $143 $-1 #
coedge $-1 $232 $232 $231 $374 forward $145 $-1 #
coedge $-1 $233 $233 $146 $234 forward $228 $-1 #
edge $-1 $375 4.793404018857743e-016 $375 6.2831853071796013 $233 $376 forward 7 unknown #
face $-1 $377 $378 $50 $-1 $379 forward single #
loop $-1 $-1 $380 $147 #
plane-surface $-1 -3.0547509334738612 33.961447810486504 95.314319223818728 -1 0 0 0 0.55919291073839883 0.82903756765294845 forward_v I I I I #
coedge $-1 $381 $382 $383 $384 reversed $148 $-1 #
coedge $-1 $240 $150 $385 $386 reversed $95 $-1 #
coedge $-1 $150 $239 $381 $387 reversed $95 $-1 #
coedge $-1 $383 $388 $150 $242 forward $378 $-1 #
edge $-1 $389 -3.3330304390142267 $390 7.9362534784586174 $241 $391 forward 7 unknown #
loop $-1 $-1 $248 $151 #
plane-surface $-1 -7.3606720858901511 -13.367976638668004 25.145563200197984 0 0.55919291073839883 0.82903756765294845 1 0 0 forward_v I I I I #
loop $-1 $-1 $392 $97 #
coedge $-1 $246 $246 $247 $393 reversed $152 $-1 #
coedge $-1 $247 $247 $246 $393 forward $154 $-1 #
coedge $-1 $248 $248 $155 $249 forward $243 $-1 #
edge $-1 $394 4.793404018857743e-016 $394 6.2831853071796013 $248 $395 forward 7 unknown #
face $-1 $396 $397 $52 $-1 $398 forward single #
loop $-1 $-1 $399 $156 #
plane-surface $-1 12.763637810427092 33.961447810486504 95.314319223818728 -1 0 0 0 0.55919291073839883 0.82903756765294845 forward_v I I I I #
coedge $-1 $400 $401 $402 $403 reversed $157 $-1 #
coedge $-1 $255 $159 $404 $405 reversed $101 $-1 #
coedge $-1 $159 $254 $400 $406 reversed $101 $-1 #
coedge $-1 $402 $407 $159 $257 forward $397 $-1 #
edge $-1 $408 -3.3330304390142267 $409 7.9362534784586174 $256 $410 forward 7 unknown #
loop $-1 $-1 $263 $160 #
plane-surface $-1 8.4577166580108027 -13.367976638668004 25.145563200197984 0 0.55919291073839883 0.82903756765294845 1 0 0 forward_v I I I I #
loop $-1 $-1 $411 $103 #
coedge $-1 $261 $261 $262 $412 reversed $161 $-1 #
coedge $-1 $262 $262 $261 $412 forward $163 $-1 #
coedge $-1 $263 $263 $164 $264 forward $258 $-1 #
edge $-1 $413 4.793404018857743e-016 $413 6.2831853071796013 $263 $414 forward 7 unknown #
face $-1 $415 $416 $54 $-1 $417 forward single #
loop $-1 $-1 $418 $165 #
plane-surface $-1 28.582026554328046 33.961447810486504 95.314319223818728 -1 0 0 0 0.55919291073839883 0.82903756765294845 forward_v I I I I #
coedge $-1 $419 $420 $421 $422 reversed $166 $-1 #
coedge $-1 $270 $168 $423 $424 reversed $107 $-1 #
coedge $-1 $168 $269 $419 $425 reversed $107 $-1 #
coedge $-1 $421 $426 $168 $272 forward $416 $-1 #
edge $-1 $427 -3.3330304390142267 $428 7.9362534784586174 $271 $429 forward 7 unknown #
loop $-1 $-1 $278 $169 #
plane-surface $-1 24.276105401911757 -13.367976638668004 25.145563200197984 0 0.55919291073839883 0.82903756765294845 1 0 0 forward_v I I I I #
loop $-1 $-1 $430 $109 #
coedge $-1 $276 $276 $277 $431 reversed $170 $-1 #
coedge $-1 $277 $277 $276 $431 forward $172 $-1 #
coedge $-1 $278 $278 $173 $279 forward $273 $-1 #
edge $-1 $432 4.793404018857743e-016 $432 6.2831853071796013 $278 $433 forward 7 unknown #
face $-1 $434 $435 $42 $-1 $436 reversed single #
loop $-1 $-1 $437 $174 #
plane-surface $-1 -42.319406720175785 0 0 1 0 0 0 0 -1 forward_v I I I I #
coedge $-1 $438 $291 $439 $440 forward $175 $-1 #
coedge $-1 $441 $177 $438 $442 forward $113 $-1 #
coedge $-1 $177 $441 $443 $444 forward $113 $-1 #
coedge $-1 $294 $293 $177 $287 reversed $295 $-1 #
edge $-1 $445 -20.313754344257479 $446 20.313754344257479 $286 $447 forward 7 unknown #
coedge $-1 $179 $178 $448 $449 forward $71 $-1 #
coedge $-1 $450 $451 $178 $290 reversed $435 $-1 #
edge $-1 $297 -42.319406720175785 $452 42.319406720175785 $289 $453 forward 7 unknown #
coedge $-1 $283 $454 $179 $292 reversed $175 $-1 #
edge $-1 $455 -42.319406720175785 $296 42.319406720175785 $291 $456 forward 7 unknown #
coedge $-1 $286 $180 $454 $457 forward $295 $-1 #
coedge $-1 $180 $286 $450 $458 reversed $295 $-1 #
loop $-1 $-1 $293 $434 #
vertex $-1 $181 $459 #
vertex $-1 $181 $460 #
straight-curve $-1 42.319406720175785 0 10.028176485405272 0 1 0 I I #
face $-1 $461 $462 $43 $-1 $463 reversed single #
loop $-1 $-1 $464 $182 #
plane-surface $-1 -42.319406720175785 0 0 1 0 0 0 0 -1 forward_v I I I I #
coedge $-1 $310 $465 $304 $466 forward $183 $-1 #
coedge $-1 $188 $185 $467 $468 reversed $117 $-1 #
coedge $-1 $185 $188 $302 $466 reversed $117 $-1 #
coedge $-1 $469 $470 $185 $306 forward $471 $-1 #
edge $-1 $472 -10.028176485405272 $473 10.028176485405272 $305 $474 forward 7 unknown #
coedge $-1 $187 $186 $464 $475 reversed $74 $-1 #
coedge $-1 $467 $476 $186 $309 forward $462 $-1 #
edge $-1 $477 -24.20914185198852 $313 -12.011387884386011 $308 $478 forward 7 unknown #
coedge $-1 $479 $302 $187 $311 forward $183 $-1 #
edge $-1 $312 12.011387884386011 $480 24.20914185198852 $310 $481 forward 7 unknown #
vertex $-1 $311 $482 #
vertex $-1 $309 $483 #
straight-curve $-1 -30.121652752573276 -16.646906792078926 0 0 0 -1 I I #
face $-1 $484 $485 $44 $-1 $486 reversed single #
loop $-1 $-1 $487 $190 #
plane-surface $-1 0 20.313754344257479 0 0 -1 0 0 0 -1 forward_v I I I I #
coedge $-1 $488 $489 $490 $491 reversed $191 $-1 #
coedge $-1 $492 $193 $493 $494 reversed $121 $-1 #
coedge $-1 $193 $492 $487 $495 reversed $121 $-1 #
coedge $-1 $329 $328 $193 $322 forward $330 $-1 #
edge $-1 $496 -20.313754344257479 $497 20.313754344257479 $321 $498 forward 7 unknown #
coedge $-1 $195 $194 $489 $499 forward $77 $-1 #
coedge $-1 $500 $490 $194 $325 forward $316 $-1 #
edge $-1 $501 14.284074987228959 $331 23.451579484374204 $324 $502 forward 7 unknown #
coedge $-1 $503 $504 $195 $327 forward $485 $-1 #
edge $-1 $332 -23.451579484374204 $505 -14.284074987228959 $326 $506 forward 7 unknown #
coedge $-1 $321 $196 $504 $507 forward $330 $-1 #
coedge $-1 $196 $321 $500 $508 reversed $330 $-1 #
loop $-1 $-1 $321 $484 #
vertex $-1 $508 $509 #
vertex $-1 $507 $510 #
straight-curve $-1 42.319406720175785 0 2.3941273413406607 0 -1 0 I I #
face $-1 $-1 $511 $45 $-1 $512 reversed single #
loop $-1 $-1 $204 $198 #
plane-surface $-1 0 0 10.028176485405272 0 0 1 1 0 0 forward_v I I I I #
coedge $-1 $513 $514 $515 $516 reversed $199 $-1 #
coedge $-1 $517 $201 $203 $344 forward $125 $-1 #
coedge $-1 $201 $517 $513 $518 forward $125 $-1 #
coedge $-1 $515 $204 $201 $341 forward $335 $-1 #
edge $-1 $347 -10.755194051772392 $519 -0.20239243471323931 $340 $520 forward 7 unknown #
coedge $-1 $521 $522 $202 $343 forward $511 $-1 #
edge $-1 $523 -33.906365937093447 $346 -27.843241806471983 $342 $524 forward 7 unknown #
edge $-1 $347 -11.441599616760517 $523 2.0947646040935787e-014 $203 $525 forward 7 unknown #
coedge $-1 $204 $515 $521 $526 forward $335 $-1 #
vertex $-1 $343 $527 #
vertex $-1 $205 $528 #
straight-curve $-1 16.233987295015208 -32.582746340178645 10.028176485405268 0 1 0 I I #
coedge $-1 $349 $349 $-1 $529 reversed $208 $-1 #
edge $-1 $530 0 $530 6.2831853071796004 $209 $531 forward 7 unknown #
vertex $-1 $212 $532 #
ellipse-curve $-1 8.6962718542586686 -15.462240983281072 6.9966144200945362 0 -0.52991927123019833 0.84804809178421925 1 0 0 1 I I #
coedge $-1 $353 $353 $-1 $533 reversed $215 $-1 #
edge $-1 $534 0 $534 6.2831853071796004 $216 $535 forward 7 unknown #
vertex $-1 $219 $536 #
ellipse-curve $-1 13.218901118712594 -15.462240983281072 6.9966144200945362 0 -0.52991927123019833 0.84804809178421925 1 0 0 1 I I #
face $-1 $-1 $369 $48 $-1 $537 forward single #
loop $-1 $-1 $538 $220 #
plane-surface $-1 0 20.313754344257479 0 0 -1 0 0 0 -1 forward_v I I I I #
coedge $-1 $539 $540 $541 $542 reversed $221 $-1 #
coedge $-1 $543 $223 $225 $367 forward $139 $-1 #
coedge $-1 $223 $543 $539 $544 forward $139 $-1 #
coedge $-1 $541 $226 $223 $364 forward $369 $-1 #
edge $-1 $371 -15.895451567311842 $545 -7.2836092624792634 $363 $546 forward 7 unknown #
coedge $-1 $547 $548 $224 $366 forward $358 $-1 #
edge $-1 $549 -45.230211251291664 $370 -37.628983126504096 $365 $550 forward 7 unknown #
edge $-1 $371 27.034296080096254 $549 40.627508688514979 $225 $551 forward 7 unknown #
coedge $-1 $226 $541 $547 $552 forward $369 $-1 #
loop $-1 $-1 $541 $357 #
vertex $-1 $366 $553 #
vertex $-1 $227 $554 #
straight-curve $-1 -27.484981982207394 16.980723905243252 10.028176485405275 0 -1 0 I I #
coedge $-1 $373 $373 $-1 $555 reversed $230 $-1 #
edge $-1 $556 0 $556 6.2831853071796004 $231 $557 forward 7 unknown #
vertex $-1 $234 $558 #
ellipse-curve $-1 -23.179060829791105 14.679112385521053 6.2275624230114888 0 0.55919291073839883 0.82903756765294845 2 0 0 1 I I #
face $-1 $-1 $559 $50 $-1 $560 reversed single #
loop $-1 $-1 $241 $235 #
plane-surface $-1 0 0 10.028176485405272 0 0 1 1 0 0 forward_v I I I I #
coedge $-1 $561 $562 $563 $564 reversed $236 $-1 #
coedge $-1 $565 $238 $240 $387 forward $148 $-1 #
coedge $-1 $238 $565 $561 $566 forward $148 $-1 #
coedge $-1 $563 $241 $238 $384 forward $378 $-1 #
edge $-1 $390 -7.9862571953613646 $567 0.62558510947121437 $383 $568 forward 7 unknown #
coedge $-1 $569 $570 $239 $386 forward $559 $-1 #
edge $-1 $571 -45.230211251291664 $389 -37.628983126504096 $385 $572 forward 7 unknown #
edge $-1 $390 27.034296080096254 $571 40.627508688514979 $240 $573 forward 7 unknown #
coedge $-1 $241 $563 $569 $574 forward $378 $-1 #
vertex $-1 $242 $575 #
vertex $-1 $242 $576 #
straight-curve $-1 -11.66659323830644 16.980723905243252 10.028176485405275 0 -1 0 I I #
coedge $-1 $392 $392 $-1 $577 reversed $245 $-1 #
edge $-1 $578 0 $578 6.2831853071796004 $246 $579 forward 7 unknown #
vertex $-1 $249 $580 #
ellipse-curve $-1 -7.3606720858901511 14.679112385521053 6.2275624230114888 0 0.55919291073839883 0.82903756765294845 2 0 0 1 I I #
face $-1 $-1 $581 $52 $-1 $582 reversed single #
loop $-1 $-1 $256 $250 #
plane-surface $-1 0 0 10.028176485405272 0 0 1 1 0 0 forward_v I I I I #
coedge $-1 $583 $584 $585 $586 reversed $251 $-1 #
coedge $-1 $587 $253 $255 $406 forward $157 $-1 #
coedge $-1 $253 $587 $583 $588 forward $157 $-1 #
coedge $-1 $585 $256 $253 $403 forward $397 $-1 #
edge $-1 $409 -0.077062823410888548 $589 8.5347794814216904 $402 $590 forward 7 unknown #
coedge $-1 $591 $592 $254 $405 forward $581 $-1 #
edge $-1 $593 -45.230211251291664 $408 -37.628983126504096 $404 $594 forward 7 unknown #
edge $-1 $409 27.034296080096254 $593 40.627508688514979 $255 $595 forward 7 unknown #
coedge $-1 $256 $585 $591 $596 forward $397 $-1 #
vertex $-1 $257 $597 #
vertex $-1 $257 $598 #
straight-curve $-1 4.1517955055945128 16.980723905243252 10.028176485405275 0 -1 0 I I #
coedge $-1 $411 $411 $-1 $599 reversed $260 $-1 #
edge $-1 $600 0 $600 6.2831853071796004 $261 $601 forward 7 unknown #
vertex $-1 $264 $602 #
ellipse-curve $-1 8.4577166580108027 14.679112385521053 6.2275624230114888 0 0.55919291073839883 0.82903756765294845 2 0 0 1 I I #
face $-1 $-1 $603 $54 $-1 $604 reversed single #
loop $-1 $-1 $271 $265 #
plane-surface $-1 0 0 10.028176485405272 0 0 1 1 0 0 forward_v I I I I #
coedge $-1 $605 $606 $607 $608 reversed $266 $-1 #
coedge $-1 $609 $268 $270 $425 forward $166 $-1 #
coedge $-1 $268 $609 $605 $610 forward $166 $-1 #
coedge $-1 $607 $271 $268 $422 forward $416 $-1 #
edge $-1 $428 7.8321315485395893 $611 16.443973853372167 $421 $612 forward 7 unknown #
coedge $-1 $613 $614 $269 $424 forward $603 $-1 #
edge $-1 $615 -45.230211251291664 $427 -37.628983126504096 $423 $616 forward 7 unknown #
edge $-1 $428 27.034296080096254 $615 40.627508688514979 $270 $617 forward 7 unknown #
coedge $-1 $271 $607 $613 $618 forward $416 $-1 #
vertex $-1 $272 $619 #
vertex $-1 $272 $620 #
straight-curve $-1 19.970184249495468 16.980723905243252 10.028176485405275 0 -1 0 I I #
coedge $-1 $430 $430 $-1 $621 reversed $275 $-1 #
edge $-1 $622 0 $622 6.2831853071796004 $276 $623 forward 7 unknown #
vertex $-1 $279 $624 #
ellipse-curve $-1 24.276105401911757 14.679112385521053 6.2275624230114888 0 0.55919291073839883 0.82903756765294845 2 0 0 1 I I #
face $-1 $-1 $295 $42 $-1 $625 reversed single #
loop $-1 $-1 $450 $280 #
plane-surface $-1 0 20.313754344257479 0 0 -1 0 0 0 -1 forward_v I I I I #
coedge $-1 $626 $448 $451 $627 forward $281 $-1 #
coedge $-1 $454 $283 $284 $442 reversed $175 $-1 #
coedge $-1 $448 $626 $283 $440 reversed $281 $-1 #
edge $-1 $455 -10.028176485405272 $628 10.028176485405272 $439 $629 forward 7 unknown #
coedge $-1 $285 $284 $626 $630 forward $113 $-1 #
edge $-1 $446 -42.319406720175785 $628 42.319406720175785 $438 $631 forward 7 unknown #
coedge $-1 $451 $450 $285 $444 reversed $435 $-1 #
edge $-1 $632 -42.319406720175785 $445 42.319406720175785 $443 $633 forward 7 unknown #
vertex $-1 $287 $634 #
vertex $-1 $457 $635 #
straight-curve $-1 42.319406720175785 0 -10.028176485405272 0 -1 0 I I #
coedge $-1 $437 $439 $288 $449 reversed $281 $-1 #
edge $-1 $452 -20.313754344257479 $455 20.313754344257479 $448 $636 forward 7 unknown #
coedge $-1 $443 $289 $294 $458 forward $435 $-1 #
coedge $-1 $289 $443 $437 $627 reversed $435 $-1 #
vertex $-1 $290 $637 #
straight-curve $-1 0 20.313754344257479 10.028176485405272 -1 0 0 I I #
coedge $-1 $291 $438 $293 $457 reversed $175 $-1 #
vertex $-1 $449 $638 #
straight-curve $-1 0 -20.313754344257479 10.028176485405272 1 0 0 I I #
edge $-1 $296 -10.028176485405272 $446 10.028176485405272 $293 $639 forward 7 unknown #
edge $-1 $297 -10.028176485405272 $445 10.028176485405272 $294 $640 forward 7 unknown #
point $-1 42.319406720175785 -20.313754344257479 10.028176485405272 #
point $-1 42.319406720175785 20.313754344257479 10.028176485405272 #
face $-1 $-1 $471 $43 $-1 $641 reversed single #
loop $-1 $-1 $467 $299 #
plane-surface $-1 0 0 -10.028176485405272 0 0 1 1 0 0 forward_v I I I I #
coedge $-1 $642 $643 $307 $475 forward $300 $-1 #
coedge $-1 $302 $479 $469 $644 forward $183 $-1 #
edge $-1 $473 -11.073589060173378 $312 -7.4067415079948251 $302 $645 forward 7 unknown #
coedge $-1 $646 $308 $303 $468 forward $462 $-1 #
edge $-1 $313 7.4067415079948251 $472 11.073589060173378 $467 $647 forward 7 unknown #
coedge $-1 $648 $305 $465 $644 reversed $471 $-1 #
coedge $-1 $305 $648 $646 $649 reversed $471 $-1 #
loop $-1 $-1 $305 $461 #
vertex $-1 $649 $650 #
vertex $-1 $306 $651 #
straight-curve $-1 -30.121652752573276 -20.313754344257479 0 0 0 1 I I #
edge $-1 $480 -10.028176485405272 $477 10.028176485405272 $464 $652 forward 7 unknown #
coedge $-1 $308 $646 $642 $653 forward $462 $-1 #
vertex $-1 $309 $654 #
straight-curve $-1 -18.110264868187265 -16.646906792078926 -10.028176485405272 1 0 0 I I #
coedge $-1 $465 $310 $643 $655 forward $183 $-1 #
vertex $-1 $655 $656 #
straight-curve $-1 -18.110264868187265 -16.646906792078926 10.028176485405272 -1 0 0 I I #
point $-1 -30.121652752573276 -16.646906792078926 10.028176485405272 #
point $-1 -30.121652752573276 -16.646906792078926 -10.028176485405272 #
face $-1 $-1 $330 $44 $-1 $657 reversed single #
loop $-1 $-1 $326 $315 #
plane-surface $-1 0 -20.313754344257479 0 0 1 0 0 0 1 forward_v I I I I #
coedge $-1 $490 $500 $320 $495 forward $316 $-1 #
coedge $-1 $658 $318 $492 $659 reversed $191 $-1 #
coedge $-1 $318 $658 $323 $499 reversed $191 $-1 #
coedge $-1 $324 $487 $318 $491 forward $316 $-1 #
edge $-1 $660 -1.2994831072119668 $501 2.0292459299644294 $490 $661 forward 7 unknown #
coedge $-1 $320 $319 $488 $659 forward $121 $-1 #
coedge $-1 $504 $503 $319 $494 forward $485 $-1 #
edge $-1 $662 14.284074987228959 $496 23.451579484374204 $493 $663 forward 7 unknown #
edge $-1 $497 -23.451579484374204 $660 -14.284074987228959 $487 $664 forward 7 unknown #
vertex $-1 $494 $665 #
vertex $-1 $322 $666 #
straight-curve $-1 42.319406720175785 0 -0.93460169583573549 0 1 0 I I #
edge $-1 $501 -20.313754344257479 $505 20.313754344257479 $489 $667 forward 7 unknown #
coedge $-1 $487 $324 $329 $508 forward $316 $-1 #
vertex $-1 $325 $668 #
straight-curve $-1 18.867827235801581 20.313754344257479 2.3941273413406607 1 0 0 I I #
coedge $-1 $493 $326 $658 $669 forward $485 $-1 #
coedge $-1 $326 $493 $328 $507 reversed $485 $-1 #
vertex $-1 $327 $670 #
straight-curve $-1 18.867827235801581 -20.313754344257479 2.3941273413406607 -1 0 0 I I #
edge $-1 $332 -2.3941273413406607 $496 0.93460169583573549 $328 $671 forward 7 unknown #
edge $-1 $331 -2.3941273413406607 $497 0.93460169583573549 $329 $672 forward 7 unknown #
point $-1 42.319406720175785 20.313754344257479 2.3941273413406607 #
point $-1 42.319406720175785 -20.313754344257479 2.3941273413406607 #
loop $-1 $-1 $342 $334 #
plane-surface $-1 0 -20.313754344257479 0 0 1 0 0 0 1 forward_v I I I I #
coedge $-1 $514 $337 $339 $518 reversed $199 $-1 #
coedge $-1 $337 $513 $673 $674 reversed $199 $-1 #
coedge $-1 $345 $340 $337 $516 forward $335 $-1 #
edge $-1 $519 -21.972018717873993 $675 -12.268991995921166 $515 $676 forward 7 unknown #
coedge $-1 $339 $338 $522 $677 reversed $125 $-1 #
edge $-1 $678 -2.0947646040935787e-014 $519 11.441599616760517 $513 $679 forward 7 unknown #
vertex $-1 $341 $680 #
straight-curve $-1 5.4787932432428157 -10.610727622304651 10.028176485405272 -1 0 0 I I #
coedge $-1 $673 $342 $345 $526 reversed $511 $-1 #
coedge $-1 $342 $673 $517 $677 forward $511 $-1 #
vertex $-1 $343 $681 #
straight-curve $-1 16.233987295015208 -20.313754344257479 37.871418291877255 0 0 1 I I #
straight-curve $-1 16.233987295015208 -20.313754344257461 3.9650523547838219 0 -0.84804809178421925 -0.52991927123019833 I I #
edge $-1 $675 5.681185677956055 $346 16.233987295015208 $521 $682 forward 7 unknown #
point $-1 16.233987295015208 -20.313754344257479 10.028176485405272 #
point $-1 16.233987295015208 -10.610727622304651 10.028176485405272 #
edge $-1 $683 1 $683 0 $349 $-1 forward 7 unknown #
vertex $-1 $350 $684 #
ellipse-curve $-1 8.6962718542586686 -14.488002669789509 5.4375072361236931 0 -0.52991927123019833 0.84804809178421925 1 0 0 1 I I #
point $-1 9.6962718542586686 -15.462240983281083 6.996614420094553 #
edge $-1 $685 1 $685 0 $353 $-1 forward 7 unknown #
vertex $-1 $354 $686 #
ellipse-curve $-1 13.218901118712594 -14.488002669789509 5.4375072361236931 0 -0.52991927123019833 0.84804809178421925 1 0 0 1 I I #
point $-1 14.218901118712594 -15.462240983281083 6.996614420094553 #
plane-surface $-1 0 0 10.028176485405272 0 0 1 1 0 0 forward_v I I I I #
coedge $-1 $548 $547 $540 $687 forward $358 $-1 #
coedge $-1 $540 $360 $362 $544 reversed $221 $-1 #
coedge $-1 $360 $539 $538 $687 reversed $221 $-1 #
coedge $-1 $368 $363 $360 $542 forward $369 $-1 #
edge $-1 $545 -7.9362534784586174 $688 3.3330304390142267 $541 $689 forward 7 unknown #
coedge $-1 $362 $361 $548 $690 reversed $139 $-1 #
edge $-1 $691 -40.627508688514979 $545 -27.034296080096254 $539 $692 forward 7 unknown #
vertex $-1 $364 $693 #
straight-curve $-1 -11.589530414895552 9.0444704267846312 10.028176485405272 1 0 0 I I #
coedge $-1 $538 $365 $368 $552 reversed $358 $-1 #
coedge $-1 $365 $538 $543 $690 forward $358 $-1 #
vertex $-1 $366 $694 #
straight-curve $-1 -27.484981982207394 20.313754344257479 47.657159611909364 0 0 1 I I #
straight-curve $-1 -27.484981982207394 -13.367976638668004 25.145563200197984 0 0.82903756765294845 -0.55919291073839883 I I #
edge $-1 $688 18.873139677374816 $370 27.484981982207394 $547 $695 forward 7 unknown #
point $-1 -27.484981982207394 20.313754344257479 10.028176485405272 #
point $-1 -27.484981982207394 9.0444704267846348 10.028176485405272 #
edge $-1 $696 1 $696 0 $373 $-1 forward 7 unknown #
vertex $-1 $374 $697 #
ellipse-curve $-1 -23.179060829791105 13.459765680840782 4.4198066257519582 0 0.55919291073839883 0.82903756765294845 2 0 0 1 I I #
point $-1 -21.179060829791105 14.679112385521057 6.2275624230114923 #
loop $-1 $-1 $385 $377 #
plane-surface $-1 0 20.313754344257479 0 0 -1 0 0 0 -1 forward_v I I I I #
coedge $-1 $562 $380 $382 $566 reversed $236 $-1 #
coedge $-1 $380 $561 $698 $699 reversed $236 $-1 #
coedge $-1 $388 $383 $380 $564 forward $378 $-1 #
edge $-1 $567 -7.9362534784586174 $700 3.3330304390142267 $563 $701 forward 7 unknown #
coedge $-1 $382 $381 $570 $702 reversed $148 $-1 #
edge $-1 $703 -40.627508688514979 $567 -27.034296080096254 $561 $704 forward 7 unknown #
vertex $-1 $384 $705 #
straight-curve $-1 -3.6803360429450755 9.0444704267846312 10.028176485405272 1 0 0 I I #
coedge $-1 $698 $385 $388 $574 reversed $559 $-1 #
coedge $-1 $385 $698 $565 $702 forward $559 $-1 #
vertex $-1 $386 $706 #
straight-curve $-1 -11.66659323830644 20.313754344257479 47.657159611909364 0 0 1 I I #
straight-curve $-1 -11.66659323830644 -13.367976638668004 25.145563200197984 0 0.82903756765294845 -0.55919291073839883 I I #
edge $-1 $700 3.0547509334738612 $389 11.66659323830644 $569 $707 forward 7 unknown #
point $-1 -11.66659323830644 20.313754344257479 10.028176485405272 #
point $-1 -11.66659323830644 9.0444704267846348 10.028176485405272 #
edge $-1 $708 1 $708 0 $392 $-1 forward 7 unknown #
vertex $-1 $393 $709 #
ellipse-curve $-1 -7.3606720858901511 13.459765680840782 4.4198066257519582 0 0.55919291073839883 0.82903756765294845 2 0 0 1 I I #
point $-1 -5.3606720858901511 14.679112385521057 6.2275624230114923 #
loop $-1 $-1 $404 $396 #
plane-surface $-1 0 20.313754344257479 0 0 -1 0 0 0 -1 forward_v I I I I #
coedge $-1 $584 $399 $401 $588 reversed $251 $-1 #
coedge $-1 $399 $583 $710 $711 reversed $251 $-1 #
coedge $-1 $407 $402 $399 $586 forward $397 $-1 #
edge $-1 $589 -7.9362534784586174 $712 3.3330304390142267 $585 $713 forward 7 unknown #
coedge $-1 $401 $400 $592 $714 reversed $157 $-1 #
edge $-1 $715 -40.627508688514979 $589 -27.034296080096254 $583 $716 forward 7 unknown #
vertex $-1 $403 $717 #
straight-curve $-1 4.2288583290054014 9.0444704267846312 10.028176485405272 1 0 0 I I #
coedge $-1 $710 $404 $407 $596 reversed $581 $-1 #
coedge $-1 $404 $710 $587 $714 forward $581 $-1 #
vertex $-1 $405 $718 #
straight-curve $-1 4.1517955055945128 20.313754344257479 47.657159611909364 0 0 1 I I #
straight-curve $-1 4.1517955055945128 -13.367976638668004 25.145563200197984 0 0.82903756765294845 -0.55919291073839883 I I #
edge $-1 $712 -12.763637810427092 $408 -4.1517955055945128 $591 $719 forward 7 unknown #
point $-1 4.1517955055945128 20.313754344257479 10.028176485405272 #
point $-1 4.1517955055945128 9.0444704267846348 10.028176485405272 #
edge $-1 $720 1 $720 0 $411 $-1 forward 7 unknown #
vertex $-1 $412 $721 #
ellipse-curve $-1 8.4577166580108027 13.459765680840782 4.4198066257519582 0 0.55919291073839883 0.82903756765294845 2 0 0 1 I I #
point $-1 10.457716658010803 14.679112385521057 6.2275624230114923 #
loop $-1 $-1 $423 $415 #
plane-surface $-1 0 20.313754344257479 0 0 -1 0 0 0 -1 forward_v I I I I #
coedge $-1 $606 $418 $420 $610 reversed $266 $-1 #
coedge $-1 $418 $605 $722 $723 reversed $266 $-1 #
coedge $-1 $426 $421 $418 $608 forward $416 $-1 #
edge $-1 $611 -7.9362534784586174 $724 3.3330304390142267 $607 $725 forward 7 unknown #
coedge $-1 $420 $419 $614 $726 reversed $166 $-1 #
edge $-1 $727 -40.627508688514979 $611 -27.034296080096254 $605 $728 forward 7 unknown #
vertex $-1 $422 $729 #
straight-curve $-1 12.138052700955878 9.0444704267846312 10.028176485405272 1 0 0 I I #
coedge $-1 $722 $423 $426 $618 reversed $603 $-1 #
coedge $-1 $423 $722 $609 $726 forward $603 $-1 #
vertex $-1 $424 $730 #
straight-curve $-1 19.970184249495468 20.313754344257479 47.657159611909364 0 0 1 I I #
straight-curve $-1 19.970184249495468 -13.367976638668004 25.145563200197984 0 0.82903756765294845 -0.55919291073839883 I I #
edge $-1 $724 -28.582026554328046 $427 -19.970184249495468 $613 $731 forward 7 unknown #
point $-1 19.970184249495468 20.313754344257479 10.028176485405272 #
point $-1 19.970184249495468 9.0444704267846348 10.028176485405272 #
edge $-1 $732 1 $732 0 $430 $-1 forward 7 unknown #
vertex $-1 $431 $733 #
ellipse-curve $-1 24.276105401911757 13.459765680840782 4.4198066257519582 0 0.55919291073839883 0.82903756765294845 2 0 0 1 I I #
point $-1 26.276105401911757 14.679112385521057 6.2275624230114923 #
plane-surface $-1 42.319406720175785 0 0 -1 0 0 0 0 1 forward_v I I I I #
coedge $-1 $439 $437 $441 $630 reversed $281 $-1 #
edge $-1 $452 -10.028176485405272 $632 10.028176485405272 $451 $734 forward 7 unknown #
vertex $-1 $630 $735 #
straight-curve $-1 -42.319406720175785 -20.313754344257479 0 0 0 -1 I I #
edge $-1 $628 -20.313754344257479 $632 20.313754344257479 $626 $736 forward 7 unknown #
straight-curve $-1 0 -20.313754344257479 -10.028176485405272 -1 0 0 I I #
vertex $-1 $444 $737 #
straight-curve $-1 0 20.313754344257479 -10.028176485405272 1 0 0 I I #
point $-1 42.319406720175785 20.313754344257479 -10.028176485405272 #
point $-1 42.319406720175785 -20.313754344257479 -10.028176485405272 #
straight-curve $-1 -42.319406720175785 0 10.028176485405272 0 -1 0 I I #
point $-1 -42.319406720175785 20.313754344257479 10.028176485405272 #
point $-1 -42.319406720175785 -20.313754344257479 10.028176485405272 #
straight-curve $-1 42.319406720175785 -20.313754344257479 0 0 0 -1 I I #
straight-curve $-1 42.319406720175785 20.313754344257479 0 0 0 -1 I I #
plane-surface $-1 0 -20.313754344257479 0 0 1 0 0 0 1 forward_v I I I I #
coedge $-1 $738 $464 $476 $653 reversed $300 $-1 #
coedge $-1 $464 $738 $479 $655 reversed $300 $-1 #
edge $-1 $739 -42.319406720175785 $473 -30.121652752573276 $469 $740 forward 7 unknown #
straight-curve $-1 -30.121652752573276 -9.2401652840841013 10.028176485405272 0 1 0 I I #
coedge $-1 $476 $467 $470 $649 forward $462 $-1 #
straight-curve $-1 -30.121652752573276 -9.2401652840841013 -10.028176485405272 0 -1 0 I I #
coedge $-1 $470 $469 $738 $741 forward $471 $-1 #
edge $-1 $472 30.121652752573276 $742 42.319406720175785 $470 $743 forward 7 unknown #
point $-1 -30.121652752573276 -20.313754344257479 -10.028176485405272 #
point $-1 -30.121652752573276 -20.313754344257479 10.028176485405272 #
straight-curve $-1 -42.319406720175785 -16.646906792078926 0 0 0 -1 I I #
edge $-1 $742 -20.313754344257479 $477 -16.646906792078926 $642 $744 forward 7 unknown #
point $-1 -42.319406720175785 -16.646906792078926 -10.028176485405272 #
edge $-1 $480 16.646906792078926 $739 20.313754344257479 $643 $745 forward 7 unknown #
point $-1 -42.319406720175785 -16.646906792078926 10.028176485405272 #
plane-surface $-1 42.319406720175785 0 0 -1 0 0 0 0 1 forward_v I I I I #
coedge $-1 $489 $488 $503 $669 reversed $191 $-1 #
edge $-1 $662 -20.313754344257479 $660 20.313754344257479 $488 $746 forward 7 unknown #
vertex $-1 $495 $747 #
straight-curve $-1 33.15190222303054 20.313754344257479 0.36488141137623131 0 0 1 I I #
vertex $-1 $494 $748 #
straight-curve $-1 18.867827235801581 -20.313754344257479 -0.93460169583573549 1 0 0 I I #
straight-curve $-1 18.867827235801581 20.313754344257479 -0.93460169583573549 -1 0 0 I I #
point $-1 42.319406720175785 -20.313754344257479 -0.93460169583573549 #
point $-1 42.319406720175785 20.313754344257479 -0.93460169583573549 #
straight-curve $-1 33.15190222303054 0 2.3941273413406607 0 -1 0 I I #
point $-1 33.15190222303054 20.313754344257479 2.3941273413406607 #
edge $-1 $505 -2.0292459299644294 $662 1.2994831072119668 $503 $749 forward 7 unknown #
point $-1 33.15190222303054 -20.313754344257479 2.3941273413406607 #
straight-curve $-1 42.319406720175785 -20.313754344257479 0 0 0 -1 I I #
straight-curve $-1 42.319406720175785 20.313754344257479 0 0 0 -1 I I #
coedge $-1 $522 $521 $514 $674 forward $511 $-1 #
edge $-1 $675 27.843241806471983 $678 33.906365937093447 $673 $750 forward 7 unknown #
vertex $-1 $526 $751 #
straight-curve $-1 5.681185677956055 -32.582746340178645 10.028176485405268 0 -1 0 I I #
edge $-1 $678 0.20239243471323931 $523 10.755194051772392 $522 $752 forward 7 unknown #
vertex $-1 $677 $753 #
straight-curve $-1 5.681185677956055 -20.313754344257461 3.9650523547838219 0 0.84804809178421925 0.52991927123019833 I I #
point $-1 5.681185677956055 -10.610727622304651 10.028176485405272 #
point $-1 16.233987295015208 -20.313754344257479 3.9650523547838108 #
straight-curve $-1 0 -20.313754344257479 10.028176485405272 1 0 0 I I #
vertex $-1 $529 $754 #
point $-1 9.6962718542586686 -14.488002669789509 5.4375072361236931 #
vertex $-1 $533 $755 #
point $-1 14.218901118712594 -14.488002669789509 5.4375072361236931 #
edge $-1 $688 37.628983126504096 $691 45.230211251291664 $538 $756 forward 7 unknown #
vertex $-1 $552 $757 #
straight-curve $-1 -18.873139677374816 16.980723905243252 10.028176485405275 0 1 0 I I #
edge $-1 $691 7.2836092624792634 $549 15.895451567311842 $548 $758 forward 7 unknown #
vertex $-1 $690 $759 #
straight-curve $-1 -18.873139677374816 -13.367976638668004 25.145563200197984 0 -0.82903756765294845 0.55919291073839883 I I #
point $-1 -18.873139677374816 9.0444704267846348 10.028176485405272 #
point $-1 -27.484981982207394 20.313754344257482 2.426948360617704 #
straight-curve $-1 0 20.313754344257479 10.028176485405272 -1 0 0 I I #
vertex $-1 $555 $760 #
point $-1 -21.179060829791105 13.459765680840782 4.4198066257519582 #
coedge $-1 $570 $569 $562 $699 forward $559 $-1 #
edge $-1 $700 37.628983126504096 $703 45.230211251291664 $698 $761 forward 7 unknown #
vertex $-1 $574 $762 #
straight-curve $-1 -3.0547509334738612 16.980723905243252 10.028176485405275 0 1 0 I I #
edge $-1 $703 -0.62558510947121437 $571 7.9862571953613646 $570 $763 forward 7 unknown #
vertex $-1 $702 $764 #
straight-curve $-1 -3.0547509334738612 -13.367976638668004 25.145563200197984 0 -0.82903756765294845 0.55919291073839883 I I #
point $-1 -3.0547509334738612 9.0444704267846348 10.028176485405272 #
point $-1 -11.66659323830644 20.313754344257482 2.426948360617704 #
straight-curve $-1 0 20.313754344257479 10.028176485405272 -1 0 0 I I #
vertex $-1 $577 $765 #
point $-1 -5.3606720858901511 13.459765680840782 4.4198066257519582 #
coedge $-1 $592 $591 $584 $711 forward $581 $-1 #
edge $-1 $712 37.628983126504096 $715 45.230211251291664 $710 $766 forward 7 unknown #
vertex $-1 $596 $767 #
straight-curve $-1 12.763637810427092 16.980723905243252 10.028176485405275 0 1 0 I I #
edge $-1 $715 -8.5347794814216904 $593 0.077062823410888548 $592 $768 forward 7 unknown #
vertex $-1 $714 $769 #
straight-curve $-1 12.763637810427092 -13.367976638668004 25.145563200197984 0 -0.82903756765294845 0.55919291073839883 I I #
point $-1 12.763637810427092 9.0444704267846348 10.028176485405272 #
point $-1 4.1517955055945128 20.313754344257482 2.426948360617704 #
straight-curve $-1 0 20.313754344257479 10.028176485405272 -1 0 0 I I #
vertex $-1 $599 $770 #
point $-1 10.457716658010803 13.459765680840782 4.4198066257519582 #
coedge $-1 $614 $613 $606 $723 forward $603 $-1 #
edge $-1 $724 37.628983126504096 $727 45.230211251291664 $722 $771 forward 7 unknown #
vertex $-1 $618 $772 #
straight-curve $-1 28.582026554328046 16.980723905243252 10.028176485405275 0 1 0 I I #
edge $-1 $727 -16.443973853372167 $615 -7.8321315485395893 $614 $773 forward 7 unknown #
vertex $-1 $726 $774 #
straight-curve $-1 28.582026554328046 -13.367976638668004 25.145563200197984 0 -0.82903756765294845 0.55919291073839883 I I #
point $-1 28.582026554328046 9.0444704267846348 10.028176485405272 #
point $-1 19.970184249495468 20.313754344257482 2.426948360617704 #
straight-curve $-1 0 20.313754344257479 10.028176485405272 -1 0 0 I I #
vertex $-1 $621 $775 #
point $-1 26.276105401911757 13.459765680840782 4.4198066257519582 #
straight-curve $-1 -42.319406720175785 20.313754344257479 0 0 0 -1 I I #
point $-1 -42.319406720175785 -20.313754344257479 -10.028176485405272 #
straight-curve $-1 -42.319406720175785 0 -10.028176485405272 0 1 0 I I #
point $-1 -42.319406720175785 20.313754344257479 -10.028176485405272 #
coedge $-1 $643 $642 $648 $741 reversed $300 $-1 #
vertex $-1 $655 $776 #
straight-curve $-1 0 -20.313754344257479 10.028176485405272 1 0 0 I I #
edge $-1 $739 -10.028176485405272 $742 10.028176485405272 $738 $777 forward 7 unknown #
vertex $-1 $653 $778 #
straight-curve $-1 0 -20.313754344257479 -10.028176485405272 -1 0 0 I I #
straight-curve $-1 -42.319406720175785 0 -10.028176485405272 0 1 0 I I #
straight-curve $-1 -42.319406720175785 0 10.028176485405272 0 -1 0 I I #
straight-curve $-1 33.15190222303054 0 -0.93460169583573549 0 1 0 I I #
point $-1 33.15190222303054 20.313754344257479 -0.93460169583573549 #
point $-1 33.15190222303054 -20.313754344257479 -0.93460169583573549 #
straight-curve $-1 33.15190222303054 -20.313754344257479 0.36488141137623131 0 0 -1 I I #
straight-curve $-1 5.681185677956055 -20.313754344257479 37.871418291877255 0 0 -1 I I #
point $-1 5.681185677956055 -20.313754344257479 10.028176485405272 #
straight-curve $-1 5.4787932432428157 -20.313754344257479 3.9650523547838104 1 0 0 I I #
point $-1 5.681185677956055 -20.313754344257479 3.9650523547838108 #
point $-1 8.6962718542586686 -13.95808339855931 4.5894591443394717 #
point $-1 13.218901118712594 -13.95808339855931 4.5894591443394717 #
straight-curve $-1 -18.873139677374816 20.313754344257479 47.657159611909364 0 0 -1 I I #
point $-1 -18.873139677374816 20.313754344257479 10.028176485405272 #
straight-curve $-1 -11.589530414895552 20.313754344257479 2.426948360617704 -1 0 0 I I #
point $-1 -18.873139677374816 20.313754344257482 2.426948360617704 #
point $-1 -23.179060829791105 12.341379859363983 2.7617314904460617 #
straight-curve $-1 -3.0547509334738612 20.313754344257479 47.657159611909364 0 0 -1 I I #
point $-1 -3.0547509334738612 20.313754344257479 10.028176485405272 #
straight-curve $-1 -3.6803360429450755 20.313754344257479 2.426948360617704 -1 0 0 I I #
point $-1 -3.0547509334738612 20.313754344257482 2.426948360617704 #
point $-1 -7.3606720858901511 12.341379859363983 2.7617314904460617 #
straight-curve $-1 12.763637810427092 20.313754344257479 47.657159611909364 0 0 -1 I I #
point $-1 12.763637810427092 20.313754344257479 10.028176485405272 #
straight-curve $-1 4.2288583290054014 20.313754344257479 2.426948360617704 -1 0 0 I I #
point $-1 12.763637810427092 20.313754344257482 2.426948360617704 #
point $-1 8.4577166580108027 12.341379859363983 2.7617314904460617 #
straight-curve $-1 28.582026554328046 20.313754344257479 47.657159611909364 0 0 -1 I I #
point $-1 28.582026554328046 20.313754344257479 10.028176485405272 #
straight-curve $-1 12.138052700955878 20.313754344257479 2.426948360617704 -1 0 0 I I #
point $-1 28.582026554328046 20.313754344257482 2.426948360617704 #
point $-1 24.276105401911757 12.341379859363983 2.7617314904460617 #
point $-1 -42.319406720175785 -20.313754344257479 10.028176485405272 #
straight-curve $-1 -42.319406720175785 -20.313754344257479 0 0 0 -1 I I #
point $-1 -42.319406720175785 -20.313754344257479 -10.028176485405272 #
End-of-ACIS-data 