500 0 8 0           
7 Unknown 11 ACIS 5.0 NT 24 Thu Mar 25 19:49:27 1999 
-1 9.9999999999999995e-007 1e-010 
body $-1 $8 $-1 $9 #
body $-1 $10 $-1 $11 #
body $-1 $12 $-1 $13 #
body $-1 $14 $-1 $15 #
body $-1 $16 $-1 $17 #
body $-1 $18 $-1 $19 #
body $-1 $20 $-1 $21 #
body $-1 $22 $-1 $23 #
lump $-1 $-1 $24 $0 #
transform $-1 1 0 0 0 1 0 0 0 1 40.462660603656118 23.86021365141649 11.744858302714977 1 rotate no_reflect no_shear #
lump $-1 $-1 $25 $1 #
transform $-1 1 0 0 0 1 0 0 0 1 40.462660603656118 23.86021365141649 11.744858302714977 1 rotate no_reflect no_shear #
lump $-1 $-1 $26 $2 #
transform $-1 1 0 0 0 1 0 0 0 1 40.462660603656118 23.86021365141649 11.744858302714977 1 rotate no_reflect no_shear #
lump $-1 $-1 $27 $3 #
transform $-1 1 0 0 0 1 0 0 0 1 40.462660603656118 23.86021365141649 11.744858302714977 1 rotate no_reflect no_shear #
lump $-1 $-1 $28 $4 #
transform $-1 1 0 0 0 1 0 0 0 1 40.462660603656118 23.86021365141649 11.744858302714977 1 rotate no_reflect no_shear #
lump $-1 $-1 $29 $5 #
transform $-1 1 0 0 0 1 0 0 0 1 40.462660603656118 23.86021365141649 11.744858302714977 1 rotate no_reflect no_shear #
lump $-1 $-1 $30 $6 #
transform $-1 1 0 0 0 1 0 0 0 1 40.462660603656118 23.86021365141649 11.744858302714977 1 rotate no_reflect no_shear #
lump $-1 $-1 $31 $7 #
transform $-1 1 0 0 0 1 0 0 0 1 40.462660603656118 23.86021365141649 11.744858302714977 1 rotate no_reflect no_shear #
shell $-1 $-1 $-1 $32 $-1 $8 #
shell $-1 $-1 $-1 $33 $-1 $10 #
shell $-1 $-1 $-1 $34 $-1 $12 #
shell $-1 $-1 $-1 $35 $-1 $14 #
shell $-1 $-1 $-1 $36 $-1 $16 #
shell $-1 $-1 $-1 $37 $-1 $18 #
shell $-1 $-1 $-1 $38 $-1 $20 #
shell $-1 $-1 $-1 $39 $-1 $22 #
face $-1 $40 $41 $24 $-1 $42 forward single #
face $-1 $43 $44 $25 $-1 $45 forward single #
face $-1 $46 $47 $26 $-1 $48 reversed single #
face $-1 $49 $50 $27 $-1 $51 forward single #
face $-1 $52 $53 $28 $-1 $54 forward single #
face $-1 $55 $56 $29 $-1 $57 reversed single #
face $-1 $58 $59 $30 $-1 $60 forward single #
face $-1 $61 $62 $31 $-1 $63 forward single #
face $-1 $64 $65 $24 $-1 $66 reversed single #
loop $-1 $-1 $67 $32 #
plane-surface $-1 0 0 11.744858302714977 0 0 1 1 0 0 forward_v I I I I #
face $-1 $68 $69 $25 $-1 $70 reversed single #
loop $-1 $-1 $71 $33 #
plane-surface $-1 0 -23.86021365141649 0 0 1 0 0 0 1 forward_v I I I I #
face $-1 $72 $73 $26 $-1 $74 reversed single #
loop $-1 $-1 $75 $34 #
plane-surface $-1 70.083385685102911 1.4645023241068262 114.85562302207671 0 -1 0 -0.86602541151947299 0 -0.49999998660252726 forward_v I I I I #
face $-1 $76 $77 $27 $-1 $78 forward single #
loop $-1 $79 $80 $35 #
cone-surface $-1 36.918474100955613 -4.8737301047357704 7.2201947888793718 -0.86602541151947299 0 -0.49999998660252726 0.49999998660252726 0 -0.86602541151947299 1 I I 0 1 1 forward I I I I #
face $-1 $81 $82 $28 $-1 $83 forward single #
loop $-1 $84 $85 $36 #
cone-surface $-1 36.918474100955613 -1.0707906474302149 7.2201947888793718 -0.86602541151947299 0 -0.49999998660252726 0.49999998660252726 0 -0.86602541151947299 1 I I 0 1 1 forward I I I I #
face $-1 $86 $87 $29 $-1 $88 reversed single #
loop $-1 $-1 $89 $37 #
plane-surface $-1 -88.029371554040438 8.2012790355363236 70.326108916080258 0 1 0 -0.5877852598018023 0 0.80901698891910034 forward_v I I I I #
face $-1 $90 $91 $30 $-1 $92 forward single #
loop $-1 $93 $94 $38 #
cone-surface $-1 -34.61234694735883 10.806236038500725 6.7733166142623746 0.5877852598018023 0 -0.80901698891910034 0.80901698891910034 0 0.5877852598018023 1 I I 0 1 1 forward I I I I #
face $-1 $95 $96 $31 $-1 $97 forward single #
loop $-1 $98 $99 $39 #
cone-surface $-1 -34.61234694735883 14.713671542947321 6.7733166142623746 0.5877852598018023 0 -0.80901698891910034 0.80901698891910034 0 0.5877852598018023 1 I I 0 1 1 forward I I I I #
face $-1 $100 $101 $24 $-1 $102 reversed single #
loop $-1 $-1 $103 $40 #
plane-surface $-1 0 0 -11.744858302714977 0 0 1 1 0 0 forward_v I I I I #
coedge $-1 $104 $105 $106 $107 forward $41 $-1 #
face $-1 $108 $109 $25 $-1 $110 reversed single #
loop $-1 $-1 $111 $43 #
plane-surface $-1 0 0 -11.744858302714977 0 0 1 1 0 0 forward_v I I I I #
coedge $-1 $112 $113 $114 $115 forward $44 $-1 #
face $-1 $116 $117 $26 $-1 $118 reversed single #
loop $-1 $-1 $119 $46 #
plane-surface $-1 1.0841947926110151e-006 -2.9722603760829891 74.392963502615373 0.86602541151947299 0 0.49999998660252726 0.49999998660252726 0 -0.86602541151947299 forward_v I I I I #
coedge $-1 $120 $121 $122 $123 reversed $47 $-1 #
face $-1 $-1 $124 $27 $-1 $125 forward single #
loop $-1 $126 $127 $49 #
cone-surface $-1 35.087655097648465 -4.8737301047357704 6.1631709822463669 -0.86602541151947299 0 -0.49999998660252726 0.24999999330126363 0 -0.43301270575973649 1 I I -0.70710678118654746 0.70710678118654746 0.5 forward I I I I #
loop $-1 $-1 $128 $35 #
coedge $-1 $80 $80 $129 $130 reversed $50 $-1 #
face $-1 $-1 $131 $28 $-1 $132 forward single #
loop $-1 $133 $134 $52 #
cone-surface $-1 35.087655097648465 -1.0707906474302149 6.1631709822463669 -0.86602541151947299 0 -0.49999998660252726 0.24999999330126363 0 -0.43301270575973649 1 I I -0.70710678118654746 0.70710678118654746 0.5 forward I I I I #
loop $-1 $-1 $135 $36 #
coedge $-1 $85 $85 $136 $137 reversed $53 $-1 #
face $-1 $138 $139 $29 $-1 $140 reversed single #
loop $-1 $-1 $141 $55 #
plane-surface $-1 -40.462660603656111 12.759953790724023 4.856149225629494 -0.5877852598018023 0 0.80901698891910034 0.80901698891910034 0 0.5877852598018023 forward_v I I I I #
coedge $-1 $142 $143 $144 $145 reversed $56 $-1 #
face $-1 $-1 $146 $30 $-1 $147 forward single #
loop $-1 $148 $149 $58 #
cone-surface $-1 -33.208887883167009 10.806236038500725 4.8416209698929613 0.5877852598018023 0 -0.80901698891910034 0.40450849445955017 0 0.29389262990090115 1 I I -0.70710678118654746 0.70710678118654746 0.5 forward I I I I #
loop $-1 $-1 $150 $38 #
coedge $-1 $94 $94 $151 $152 reversed $59 $-1 #
face $-1 $-1 $153 $31 $-1 $154 forward single #
loop $-1 $155 $156 $61 #
cone-surface $-1 -33.208887883167009 14.713671542947321 4.8416209698929613 0.5877852598018023 0 -0.80901698891910034 0.40450849445955017 0 0.29389262990090115 1 I I -0.70710678118654746 0.70710678118654746 0.5 forward I I I I #
loop $-1 $-1 $157 $39 #
coedge $-1 $99 $99 $158 $159 reversed $62 $-1 #
face $-1 $160 $161 $24 $-1 $162 reversed single #
loop $-1 $-1 $163 $64 #
plane-surface $-1 0 -23.86021365141649 0 0 1 0 0 0 1 forward_v I I I I #
coedge $-1 $164 $165 $166 $167 forward $65 $-1 #
coedge $-1 $168 $67 $169 $170 forward $41 $-1 #
coedge $-1 $67 $168 $171 $172 forward $41 $-1 #
coedge $-1 $173 $174 $67 $107 reversed $175 $-1 #
edge $-1 $176 -23.86021365141649 $177 23.86021365141649 $106 $178 forward 7 unknown #
face $-1 $179 $180 $25 $-1 $181 forward single #
loop $-1 $-1 $182 $68 #
plane-surface $-1 40.462660603656118 0 0 -1 0 0 0 0 1 forward_v I I I I #
coedge $-1 $183 $184 $185 $186 forward $69 $-1 #
coedge $-1 $185 $71 $182 $187 reversed $44 $-1 #
coedge $-1 $71 $185 $188 $189 reversed $44 $-1 #
coedge $-1 $190 $191 $71 $115 reversed $180 $-1 #
edge $-1 $192 -40.462660603656118 $193 40.462660603656118 $114 $194 forward 7 unknown #
face $-1 $195 $196 $26 $-1 $197 reversed single #
loop $-1 $-1 $198 $72 #
plane-surface $-1 70.083385685102911 -7.4090230762728044 114.85562302207671 0 1 0 0.86602541151947299 0 0.49999998660252726 forward_v I I I I #
coedge $-1 $199 $200 $201 $202 reversed $73 $-1 #
coedge $-1 $121 $75 $203 $204 reversed $47 $-1 #
coedge $-1 $75 $120 $199 $205 reversed $47 $-1 #
coedge $-1 $201 $206 $75 $123 forward $207 $-1 #
edge $-1 $208 -5.4209677611046629 $209 -1.1282073507984975 $122 $210 forward 7 unknown #
loop $-1 $-1 $129 $76 #
plane-surface $-1 1.0841947926110151e-006 -2.9722603760829891 74.392963502615373 0.86602541151947299 0 0.49999998660252726 0.49999998660252726 0 -0.86602541151947299 forward_v I I I I #
loop $-1 $-1 $211 $49 #
coedge $-1 $127 $127 $128 $212 reversed $77 $-1 #
coedge $-1 $128 $128 $127 $212 forward $79 $-1 #
coedge $-1 $129 $129 $80 $130 forward $124 $-1 #
edge $-1 $213 0 $213 6.2831853071796004 $129 $214 forward 7 unknown #
loop $-1 $-1 $136 $81 #
plane-surface $-1 1.0841947926110151e-006 -2.9722603760829891 74.392963502615373 0.86602541151947299 0 0.49999998660252726 0.49999998660252726 0 -0.86602541151947299 forward_v I I I I #
loop $-1 $-1 $215 $52 #
coedge $-1 $134 $134 $135 $216 reversed $82 $-1 #
coedge $-1 $135 $135 $134 $216 forward $84 $-1 #
coedge $-1 $136 $136 $85 $137 forward $131 $-1 #
edge $-1 $217 0 $217 6.2831853071796004 $136 $218 forward 7 unknown #
face $-1 $219 $220 $29 $-1 $221 forward single #
loop $-1 $-1 $222 $86 #
plane-surface $-1 -88.029371554040438 17.318628545911722 70.326108916080258 0 -1 0 0.5877852598018023 0 -0.80901698891910034 forward_v I I I I #
coedge $-1 $223 $224 $225 $226 reversed $87 $-1 #
coedge $-1 $143 $89 $227 $228 reversed $56 $-1 #
coedge $-1 $89 $142 $223 $229 reversed $56 $-1 #
coedge $-1 $225 $230 $89 $145 forward $220 $-1 #
edge $-1 $231 3.5520251733641004 $232 13.033519617376847 $144 $233 forward 7 unknown #
loop $-1 $-1 $151 $90 #
plane-surface $-1 -40.462660603656111 12.759953790724023 4.856149225629494 -0.5877852598018023 0 0.80901698891910034 0.80901698891910034 0 0.5877852598018023 forward_v I I I I #
loop $-1 $-1 $234 $58 #
coedge $-1 $149 $149 $150 $235 reversed $91 $-1 #
coedge $-1 $150 $150 $149 $235 forward $93 $-1 #
coedge $-1 $151 $151 $94 $152 forward $146 $-1 #
edge $-1 $236 0 $236 6.2831853071796004 $151 $237 forward 7 unknown #
loop $-1 $-1 $158 $95 #
plane-surface $-1 -40.462660603656111 12.759953790724023 4.856149225629494 -0.5877852598018023 0 0.80901698891910034 0.80901698891910034 0 0.5877852598018023 forward_v I I I I #
loop $-1 $-1 $238 $61 #
coedge $-1 $156 $156 $157 $239 reversed $96 $-1 #
coedge $-1 $157 $157 $156 $239 forward $98 $-1 #
coedge $-1 $158 $158 $99 $159 forward $153 $-1 #
edge $-1 $240 0 $240 6.2831853071796004 $158 $241 forward 7 unknown #
face $-1 $242 $243 $24 $-1 $244 reversed single #
loop $-1 $-1 $245 $100 #
plane-surface $-1 -40.462660603656118 0 0 1 0 0 0 0 -1 forward_v I I I I #
coedge $-1 $171 $246 $173 $247 reversed $101 $-1 #
coedge $-1 $248 $103 $246 $249 forward $65 $-1 #
coedge $-1 $103 $248 $250 $251 forward $65 $-1 #
coedge $-1 $174 $173 $103 $167 reversed $175 $-1 #
edge $-1 $252 -23.86021365141649 $253 23.86021365141649 $166 $254 forward 7 unknown #
coedge $-1 $105 $104 $255 $256 forward $41 $-1 #
coedge $-1 $257 $258 $104 $170 reversed $243 $-1 #
edge $-1 $177 -40.462660603656118 $259 40.462660603656118 $169 $260 forward 7 unknown #
coedge $-1 $261 $163 $105 $172 reversed $101 $-1 #
edge $-1 $262 -40.462660603656118 $176 40.462660603656118 $171 $263 forward 7 unknown #
coedge $-1 $166 $106 $163 $247 forward $175 $-1 #
coedge $-1 $106 $166 $257 $264 reversed $175 $-1 #
loop $-1 $-1 $173 $242 #
vertex $-1 $107 $265 #
vertex $-1 $107 $266 #
straight-curve $-1 40.462660603656118 0 11.744858302714977 0 1 0 I I #
face $-1 $267 $268 $25 $-1 $269 reversed single #
loop $-1 $-1 $191 $108 #
plane-surface $-1 0 -29.664988089048663 -7.8772668217141186 0 0 1 1 0 0 forward_v I I I I #
coedge $-1 $270 $271 $112 $187 forward $109 $-1 #
coedge $-1 $272 $111 $271 $273 forward $69 $-1 #
coedge $-1 $111 $272 $274 $275 forward $69 $-1 #
coedge $-1 $113 $112 $111 $186 reversed $44 $-1 #
edge $-1 $276 -40.462660603656118 $277 40.462660603656118 $111 $278 forward 7 unknown #
edge $-1 $277 -11.744858302714977 $193 -7.8772668217141186 $182 $279 forward 7 unknown #
coedge $-1 $274 $280 $113 $189 forward $281 $-1 #
edge $-1 $192 7.8772668217141186 $276 11.744858302714977 $188 $282 forward 7 unknown #
coedge $-1 $283 $114 $280 $284 forward $180 $-1 #
coedge $-1 $114 $283 $270 $285 forward $180 $-1 #
vertex $-1 $189 $286 #
vertex $-1 $285 $287 #
straight-curve $-1 0 -23.86021365141649 -7.8772668217141186 1 0 0 I I #
face $-1 $-1 $207 $26 $-1 $288 forward single #
loop $-1 $-1 $289 $116 #
plane-surface $-1 40.462660603656118 0 0 -1 0 0 0 0 1 forward_v I I I I #
coedge $-1 $290 $291 $292 $293 reversed $117 $-1 #
coedge $-1 $294 $119 $121 $205 forward $73 $-1 #
coedge $-1 $119 $294 $290 $295 forward $73 $-1 #
coedge $-1 $292 $122 $119 $202 forward $207 $-1 #
edge $-1 $209 -2.9506325121483208 $296 5.9228928882313099 $201 $297 forward 7 unknown #
coedge $-1 $298 $299 $120 $204 forward $196 $-1 #
edge $-1 $300 -53.118232609331088 $208 -45.682953208323383 $203 $301 forward 7 unknown #
edge $-1 $209 72.339800156651322 $300 80.925321207312223 $121 $302 forward 7 unknown #
coedge $-1 $122 $292 $298 $303 forward $207 $-1 #
loop $-1 $-1 $292 $195 #
vertex $-1 $204 $304 #
vertex $-1 $123 $305 #
straight-curve $-1 35.041692842551456 1.4645023241068262 11.744858302714981 -1 0 0 I I #
coedge $-1 $211 $211 $-1 $306 reversed $126 $-1 #
edge $-1 $307 0 $307 6.2831853071796004 $127 $308 forward 7 unknown #
vertex $-1 $130 $309 #
ellipse-curve $-1 38.316280398503039 -4.8737301047357704 8.0272186022111178 0.86602541151947299 0 0.49999998660252726 0.49999998660252726 0 -0.86602541151947299 1 I I #
coedge $-1 $215 $215 $-1 $310 reversed $133 $-1 #
edge $-1 $311 0 $311 6.2831853071796004 $134 $312 forward 7 unknown #
vertex $-1 $137 $313 #
ellipse-curve $-1 38.316280398503039 -1.0707906474302149 8.0272186022111178 0.86602541151947299 0 0.49999998660252726 0.49999998660252726 0 -0.86602541151947299 1 I I #
face $-1 $-1 $314 $29 $-1 $315 reversed single #
loop $-1 $-1 $144 $138 #
plane-surface $-1 0 0 11.744858302714977 0 0 1 1 0 0 forward_v I I I I #
coedge $-1 $316 $317 $318 $319 reversed $139 $-1 #
coedge $-1 $320 $141 $143 $229 forward $87 $-1 #
coedge $-1 $141 $320 $316 $321 forward $87 $-1 #
coedge $-1 $318 $144 $141 $226 forward $220 $-1 #
edge $-1 $232 1.8213021401743124 $322 10.93865165054971 $225 $323 forward 7 unknown #
coedge $-1 $324 $325 $142 $228 forward $314 $-1 #
edge $-1 $326 -30.306905232410642 $231 -23.418196155325152 $227 $327 forward 7 unknown #
edge $-1 $232 -11.71977174012209 $326 8.8807605448725156e-015 $143 $328 forward 7 unknown #
coedge $-1 $144 $318 $324 $329 forward $220 $-1 #
vertex $-1 $228 $330 #
vertex $-1 $145 $331 #
straight-curve $-1 -44.014685777020219 8.2012790355363236 11.744858302714977 1 0 0 I I #
coedge $-1 $234 $234 $-1 $332 reversed $148 $-1 #
edge $-1 $333 0 $333 6.2831853071796004 $149 $334 forward 7 unknown #
vertex $-1 $152 $335 #
ellipse-curve $-1 -35.721913381649749 10.806236038500725 8.3005037641722321 -0.5877852598018023 0 0.80901698891910034 0.80901698891910034 0 0.5877852598018023 1 I I #
coedge $-1 $238 $238 $-1 $336 reversed $155 $-1 #
edge $-1 $337 0 $337 6.2831853071796004 $156 $338 forward 7 unknown #
vertex $-1 $159 $339 #
ellipse-curve $-1 -35.721913381649749 14.713671542947321 8.3005037641722321 -0.5877852598018023 0 0.80901698891910034 0.80901698891910034 0 0.5877852598018023 1 I I #
face $-1 $-1 $175 $24 $-1 $340 reversed single #
loop $-1 $-1 $257 $160 #
plane-surface $-1 0 23.86021365141649 0 0 -1 0 0 0 -1 forward_v I I I I #
coedge $-1 $341 $255 $258 $342 forward $161 $-1 #
coedge $-1 $163 $261 $164 $249 reversed $101 $-1 #
edge $-1 $176 -11.744858302714977 $253 11.744858302714977 $173 $343 forward 7 unknown #
coedge $-1 $165 $164 $341 $344 forward $65 $-1 #
edge $-1 $253 -40.462660603656118 $345 40.462660603656118 $246 $346 forward 7 unknown #
coedge $-1 $258 $257 $165 $251 reversed $243 $-1 #
edge $-1 $347 -40.462660603656118 $252 40.462660603656118 $250 $348 forward 7 unknown #
vertex $-1 $167 $349 #
vertex $-1 $247 $350 #
straight-curve $-1 40.462660603656118 0 -11.744858302714977 0 -1 0 I I #
coedge $-1 $245 $351 $168 $256 reversed $161 $-1 #
edge $-1 $259 -23.86021365141649 $262 23.86021365141649 $255 $352 forward 7 unknown #
coedge $-1 $250 $169 $174 $264 forward $243 $-1 #
coedge $-1 $169 $250 $245 $342 reversed $243 $-1 #
vertex $-1 $170 $353 #
straight-curve $-1 0 23.86021365141649 11.744858302714977 -1 0 0 I I #
coedge $-1 $246 $171 $351 $354 forward $101 $-1 #
vertex $-1 $256 $355 #
straight-curve $-1 0 -23.86021365141649 11.744858302714977 1 0 0 I I #
edge $-1 $177 -11.744858302714977 $252 11.744858302714977 $174 $356 forward 7 unknown #
point $-1 40.462660603656118 -23.86021365141649 11.744858302714977 #
point $-1 40.462660603656118 23.86021365141649 11.744858302714977 #
face $-1 $-1 $281 $25 $-1 $357 reversed single #
loop $-1 $-1 $358 $179 #
plane-surface $-1 0 -35.469762526680839 -9.8110625622145484 0 1 0 0 0 1 forward_v I I I I #
coedge $-1 $359 $182 $191 $285 reversed $109 $-1 #
coedge $-1 $182 $359 $183 $273 reversed $109 $-1 #
coedge $-1 $184 $183 $360 $361 forward $69 $-1 #
edge $-1 $277 23.86021365141649 $362 35.469762526680839 $271 $363 forward 7 unknown #
coedge $-1 $364 $188 $184 $275 reversed $281 $-1 #
edge $-1 $365 -35.469762526680839 $276 -23.86021365141649 $274 $366 forward 7 unknown #
vertex $-1 $189 $367 #
vertex $-1 $273 $368 #
straight-curve $-1 0 -23.86021365141649 -11.744858302714977 1 0 0 I I #
straight-curve $-1 40.462660603656118 -23.86021365141649 0 0 0 1 I I #
coedge $-1 $188 $364 $190 $284 reversed $281 $-1 #
loop $-1 $-1 $188 $267 #
straight-curve $-1 -40.462660603656118 -23.86021365141649 0 0 0 -1 I I #
coedge $-1 $191 $190 $369 $370 forward $180 $-1 #
edge $-1 $192 -5.8047744376321724 $371 5.8047744376321759 $280 $372 forward 7 unknown #
edge $-1 $373 -5.8047744376321759 $193 5.8047744376321724 $270 $374 forward 7 unknown #
point $-1 -40.462660603656118 -23.86021365141649 -7.8772668217141186 #
point $-1 40.462660603656118 -23.86021365141649 -7.8772668217141186 #
plane-surface $-1 0 0 11.744858302714977 0 0 1 1 0 0 forward_v I I I I #
coedge $-1 $299 $298 $291 $375 forward $196 $-1 #
coedge $-1 $291 $198 $200 $295 reversed $117 $-1 #
coedge $-1 $198 $290 $289 $375 reversed $117 $-1 #
coedge $-1 $206 $201 $198 $293 forward $207 $-1 #
edge $-1 $296 1.1282073507984975 $376 5.4209677611046629 $292 $377 forward 7 unknown #
coedge $-1 $200 $199 $299 $378 reversed $73 $-1 #
edge $-1 $379 -80.925321207312223 $296 -72.339800156651322 $290 $380 forward 7 unknown #
vertex $-1 $202 $381 #
straight-curve $-1 36.169900193349946 -1.4861301880414945 11.744858302714981 0 -1 0 I I #
coedge $-1 $289 $203 $206 $303 reversed $196 $-1 #
coedge $-1 $203 $289 $294 $378 forward $196 $-1 #
vertex $-1 $204 $382 #
straight-curve $-1 40.462660603656118 1.4645023241068262 57.427811511038357 0 0 1 I I #
straight-curve $-1 1.0841947926110151e-006 1.4645023241068262 74.392963502615373 0.49999998660252726 0 -0.86602541151947299 I I #
edge $-1 $376 -7.4090230762728044 $208 1.4645023241068262 $298 $383 forward 7 unknown #
point $-1 40.462660603656118 1.4645023241068262 11.744858302714977 #
point $-1 36.169900193349953 1.4645023241068262 11.744858302714974 #
edge $-1 $384 1 $384 0 $211 $-1 forward 7 unknown #
vertex $-1 $212 $385 #
ellipse-curve $-1 35.520667803408202 -4.8737301047357704 6.4131709755476303 0.86602541151947299 0 0.49999998660252726 0.49999998660252726 0 -0.86602541151947299 1 I I #
point $-1 38.816280385105557 -4.8737301047357704 7.1611931906916402 #
edge $-1 $386 1 $386 0 $215 $-1 forward 7 unknown #
vertex $-1 $216 $387 #
ellipse-curve $-1 35.520667803408202 -1.0707906474302149 6.4131709755476303 0.86602541151947299 0 0.49999998660252726 0.49999998660252726 0 -0.86602541151947299 1 I I #
point $-1 38.816280385105557 -1.0707906474302149 7.1611931906916402 #
loop $-1 $-1 $227 $219 #
plane-surface $-1 -40.462660603656118 0 0 1 0 0 0 0 -1 forward_v I I I I #
coedge $-1 $317 $222 $224 $321 reversed $139 $-1 #
coedge $-1 $222 $316 $388 $389 reversed $139 $-1 #
coedge $-1 $230 $225 $222 $319 forward $220 $-1 #
edge $-1 $322 -13.033519617376847 $390 -3.5520251733641004 $318 $391 forward 7 unknown #
coedge $-1 $224 $223 $325 $392 reversed $87 $-1 #
edge $-1 $393 -8.8807605448725156e-015 $322 11.71977174012209 $316 $394 forward 7 unknown #
vertex $-1 $226 $395 #
straight-curve $-1 -30.981166159643372 6.3799768953620113 11.744858302714977 0 1 0 I I #
coedge $-1 $388 $227 $230 $329 reversed $314 $-1 #
coedge $-1 $227 $388 $320 $392 forward $314 $-1 #
vertex $-1 $228 $396 #
straight-curve $-1 -40.462660603656118 8.2012790355363236 35.163054458040129 0 0 1 I I #
straight-curve $-1 -40.462660603656111 8.2012790355363236 4.856149225629494 -0.80901698891910034 0 -0.5877852598018023 I I #
edge $-1 $390 -17.318628545911722 $231 -8.2012790355363236 $324 $397 forward 7 unknown #
point $-1 -40.462660603656118 8.2012790355363236 11.744858302714977 #
point $-1 -30.981166159643372 8.2012790355363236 11.744858302714977 #
edge $-1 $398 1 $398 0 $234 $-1 forward 7 unknown #
vertex $-1 $235 $399 #
ellipse-curve $-1 -33.502780513067911 10.806236038500725 5.2461294643525118 -0.5877852598018023 0 0.80901698891910034 0.80901698891910034 0 0.5877852598018023 1 I I #
point $-1 -34.912896392730651 10.806236038500725 8.8882890239740391 #
edge $-1 $400 1 $400 0 $238 $-1 forward 7 unknown #
vertex $-1 $239 $401 #
ellipse-curve $-1 -33.502780513067911 14.713671542947321 5.2461294643525118 -0.5877852598018023 0 0.80901698891910034 0.80901698891910034 0 0.5877852598018023 1 I I #
point $-1 -34.912896392730651 14.713671542947321 8.8882890239740391 #
plane-surface $-1 40.462660603656118 0 0 -1 0 0 0 0 1 forward_v I I I I #
coedge $-1 $351 $245 $248 $344 reversed $161 $-1 #
edge $-1 $259 -11.744858302714977 $347 11.744858302714977 $258 $402 forward 7 unknown #
straight-curve $-1 40.462660603656118 -23.86021365141649 0 0 0 -1 I I #
edge $-1 $345 -23.86021365141649 $347 23.86021365141649 $341 $403 forward 7 unknown #
vertex $-1 $344 $404 #
straight-curve $-1 0 -23.86021365141649 -11.744858302714977 -1 0 0 I I #
vertex $-1 $251 $405 #
straight-curve $-1 0 23.86021365141649 -11.744858302714977 1 0 0 I I #
point $-1 40.462660603656118 23.86021365141649 -11.744858302714977 #
point $-1 40.462660603656118 -23.86021365141649 -11.744858302714977 #
coedge $-1 $255 $341 $261 $354 reversed $161 $-1 #
straight-curve $-1 -40.462660603656118 0 11.744858302714977 0 -1 0 I I #
point $-1 -40.462660603656118 23.86021365141649 11.744858302714977 #
edge $-1 $262 -11.744858302714977 $345 11.744858302714977 $351 $406 forward 7 unknown #
point $-1 -40.462660603656118 -23.86021365141649 11.744858302714977 #
straight-curve $-1 40.462660603656118 23.86021365141649 0 0 0 -1 I I #
plane-surface $-1 -40.462660603656118 0 0 1 0 0 0 0 -1 forward_v I I I I #
coedge $-1 $360 $369 $364 $407 forward $268 $-1 #
coedge $-1 $271 $270 $408 $409 forward $109 $-1 #
coedge $-1 $408 $358 $272 $361 reversed $268 $-1 #
edge $-1 $362 -40.462660603656118 $365 40.462660603656118 $360 $410 forward 7 unknown #
vertex $-1 $409 $411 #
straight-curve $-1 40.462660603656118 0 -11.744858302714977 0 -1 0 I I #
coedge $-1 $280 $274 $358 $407 reversed $281 $-1 #
vertex $-1 $275 $412 #
straight-curve $-1 -40.462660603656118 0 -11.744858302714977 0 1 0 I I #
point $-1 -40.462660603656118 -23.86021365141649 -11.744858302714977 #
point $-1 40.462660603656118 -23.86021365141649 -11.744858302714977 #
coedge $-1 $358 $408 $283 $370 reversed $268 $-1 #
edge $-1 $371 -40.462660603656118 $373 40.462660603656118 $369 $413 forward 7 unknown #
vertex $-1 $284 $414 #
straight-curve $-1 -40.462660603656118 -29.664988089048663 -7.8772668217141186 0 -1 0 I I #
vertex $-1 $285 $415 #
straight-curve $-1 40.462660603656118 -29.664988089048663 -7.8772668217141186 0 1 0 I I #
edge $-1 $376 45.682953208323383 $379 53.118232609331088 $289 $416 forward 7 unknown #
vertex $-1 $303 $417 #
straight-curve $-1 35.041692842551456 -7.4090230762728044 11.744858302714981 1 0 0 I I #
edge $-1 $379 -5.9228928882313099 $300 2.9506325121483208 $299 $418 forward 7 unknown #
vertex $-1 $378 $419 #
straight-curve $-1 1.0841947926110151e-006 -7.4090230762728044 74.392963502615373 -0.49999998660252726 0 0.86602541151947299 I I #
point $-1 36.169900193349953 -7.4090230762728044 11.744858302714974 #
point $-1 40.462660603656118 1.4645023241068262 4.309578901707269 #
straight-curve $-1 40.462660603656118 0 11.744858302714977 0 1 0 I I #
vertex $-1 $306 $420 #
point $-1 36.020667790010727 -4.8737301047357704 5.5471455640281579 #
vertex $-1 $310 $421 #
point $-1 36.020667790010727 -1.0707906474302149 5.5471455640281579 #
coedge $-1 $325 $324 $317 $389 forward $314 $-1 #
edge $-1 $390 23.418196155325152 $393 30.306905232410642 $388 $422 forward 7 unknown #
vertex $-1 $329 $423 #
straight-curve $-1 -44.014685777020219 17.318628545911722 11.744858302714977 -1 0 0 I I #
edge $-1 $393 -10.93865165054971 $326 -1.8213021401743124 $325 $424 forward 7 unknown #
vertex $-1 $392 $425 #
straight-curve $-1 -40.462660603656111 17.318628545911722 4.856149225629494 0.80901698891910034 0 0.5877852598018023 I I #
point $-1 -30.981166159643372 17.318628545911722 11.744858302714977 #
point $-1 -40.462660603656118 8.2012790355363236 4.8561492256294887 #
straight-curve $-1 -40.462660603656118 0 11.744858302714977 0 -1 0 I I #
vertex $-1 $332 $426 #
point $-1 -32.693763524148807 10.806236038500725 5.8339147241543134 #
vertex $-1 $336 $427 #
point $-1 -32.693763524148807 14.713671542947321 5.8339147241543134 #
straight-curve $-1 -40.462660603656118 23.86021365141649 0 0 0 -1 I I #
straight-curve $-1 -40.462660603656118 0 -11.744858302714977 0 1 0 I I #
point $-1 -40.462660603656118 -23.86021365141649 -11.744858302714977 #
point $-1 -40.462660603656118 23.86021365141649 -11.744858302714977 #
straight-curve $-1 -40.462660603656118 -23.86021365141649 0 0 0 -1 I I #
edge $-1 $371 -1.9337957405004298 $365 1.9337957405004289 $364 $428 forward 7 unknown #
coedge $-1 $369 $360 $359 $409 reversed $268 $-1 #
edge $-1 $373 -1.9337957405004298 $362 1.9337957405004289 $359 $429 forward 7 unknown #
straight-curve $-1 0 -35.469762526680839 -11.744858302714977 -1 0 0 I I #
point $-1 40.462660603656118 -35.469762526680839 -11.744858302714977 #
point $-1 -40.462660603656118 -35.469762526680839 -11.744858302714977 #
straight-curve $-1 0 -35.469762526680839 -7.8772668217141186 1 0 0 I I #
point $-1 -40.462660603656118 -35.469762526680839 -7.8772668217141186 #
point $-1 40.462660603656118 -35.469762526680839 -7.8772668217141186 #
straight-curve $-1 40.462660603656118 -7.4090230762728044 57.427811511038357 0 0 -1 I I #
point $-1 40.462660603656118 -7.4090230762728044 11.744858302714977 #
straight-curve $-1 40.462660603656118 -1.4861301880414945 4.309578901707269 0 1 0 I I #
point $-1 40.462660603656118 -7.4090230762728044 4.309578901707269 #
point $-1 34.654642391888729 -4.8737301047357704 5.9131709889451036 #
point $-1 34.654642391888729 -1.0707906474302149 5.9131709889451036 #
straight-curve $-1 -40.462660603656118 17.318628545911722 35.163054458040129 0 0 -1 I I #
point $-1 -40.462660603656118 17.318628545911722 11.744858302714977 #
straight-curve $-1 -40.462660603656118 6.3799768953620113 4.8561492256294905 0 -1 0 I I #
point $-1 -40.462660603656118 17.318628545911722 4.8561492256294887 #
point $-1 -32.914995253266106 10.806236038500725 4.4371124754334108 #
point $-1 -32.914995253266106 14.713671542947321 4.4371124754334108 #
straight-curve $-1 -40.462660603656118 -35.469762526680839 -9.8110625622145484 0 0 -1 I I #
straight-curve $-1 40.462660603656118 -35.469762526680839 -9.8110625622145484 0 0 -1 I I #
End-of-ACIS-data 