500 0 15 0           
7 Unknown 11 ACIS 5.0 NT 24 Fri Mar 26 15:51:09 1999 
-1 9.9999999999999995e-007 1e-010 
body $-1 $15 $-1 $16 #
body $-1 $17 $-1 $18 #
body $-1 $19 $-1 $20 #
body $-1 $21 $-1 $22 #
body $-1 $23 $-1 $24 #
body $-1 $25 $-1 $26 #
body $-1 $27 $-1 $28 #
body $-1 $29 $-1 $30 #
body $-1 $31 $-1 $32 #
body $-1 $33 $-1 $34 #
body $-1 $35 $-1 $36 #
body $-1 $37 $-1 $38 #
body $-1 $39 $-1 $40 #
body $-1 $41 $-1 $42 #
body $-1 $43 $-1 $44 #
lump $-1 $-1 $45 $0 #
transform $-1 1 0 0 0 1 0 0 0 1 78.352000488296142 48.59320912878983 19.242566760784094 1 rotate no_reflect no_shear #
lump $-1 $-1 $46 $1 #
transform $-1 1 0 0 0 1 0 0 0 1 78.352000488296142 48.59320912878983 19.242566760784094 1 rotate no_reflect no_shear #
lump $-1 $-1 $47 $2 #
transform $-1 1 0 0 0 1 0 0 0 1 78.352000488296142 48.59320912878983 19.242566760784094 1 rotate no_reflect no_shear #
lump $-1 $-1 $48 $3 #
transform $-1 1 0 0 0 1 0 0 0 1 78.352000488296142 48.59320912878983 19.242566760784094 1 rotate no_reflect no_shear #
lump $-1 $-1 $49 $4 #
transform $-1 1 0 0 0 1 0 0 0 1 78.352000488296142 48.59320912878983 19.242566760784094 1 rotate no_reflect no_shear #
lump $-1 $-1 $50 $5 #
transform $-1 1 0 0 0 1 0 0 0 1 78.352000488296142 48.59320912878983 19.242566760784094 1 rotate no_reflect no_shear #
lump $-1 $-1 $51 $6 #
transform $-1 1 0 0 0 1 0 0 0 1 78.352000488296142 48.59320912878983 19.242566760784094 1 rotate no_reflect no_shear #
lump $-1 $-1 $52 $7 #
transform $-1 1 0 0 0 1 0 0 0 1 78.352000488296142 48.59320912878983 19.242566760784094 1 rotate no_reflect no_shear #
lump $-1 $-1 $53 $8 #
transform $-1 1 0 0 0 1 0 0 0 1 78.352000488296142 48.59320912878983 19.242566760784094 1 rotate no_reflect no_shear #
lump $-1 $-1 $54 $9 #
transform $-1 1 0 0 0 1 0 0 0 1 78.352000488296142 48.59320912878983 19.242566760784094 1 rotate no_reflect no_shear #
lump $-1 $-1 $55 $10 #
transform $-1 1 0 0 0 1 0 0 0 1 78.352000488296142 48.59320912878983 19.242566760784094 1 rotate no_reflect no_shear #
lump $-1 $-1 $56 $11 #
transform $-1 1 0 0 0 1 0 0 0 1 78.352000488296142 48.59320912878983 19.242566760784094 1 rotate no_reflect no_shear #
lump $-1 $-1 $57 $12 #
transform $-1 1 0 0 0 1 0 0 0 1 78.352000488296142 48.59320912878983 19.242566760784094 1 rotate no_reflect no_shear #
lump $-1 $-1 $58 $13 #
transform $-1 1 0 0 0 1 0 0 0 1 78.352000488296142 48.59320912878983 19.242566760784094 1 rotate no_reflect no_shear #
lump $-1 $-1 $59 $14 #
transform $-1 1 0 0 0 1 0 0 0 1 78.352000488296142 48.59320912878983 19.242566760784094 1 rotate no_reflect no_shear #
shell $-1 $-1 $-1 $60 $-1 $15 #
shell $-1 $-1 $-1 $61 $-1 $17 #
shell $-1 $-1 $-1 $62 $-1 $19 #
shell $-1 $-1 $-1 $63 $-1 $21 #
shell $-1 $-1 $-1 $64 $-1 $23 #
shell $-1 $-1 $-1 $65 $-1 $25 #
shell $-1 $-1 $-1 $66 $-1 $27 #
shell $-1 $-1 $-1 $67 $-1 $29 #
shell $-1 $-1 $-1 $68 $-1 $31 #
shell $-1 $-1 $-1 $69 $-1 $33 #
shell $-1 $-1 $-1 $70 $-1 $35 #
shell $-1 $-1 $-1 $71 $-1 $37 #
shell $-1 $-1 $-1 $72 $-1 $39 #
shell $-1 $-1 $-1 $73 $-1 $41 #
shell $-1 $-1 $-1 $74 $-1 $43 #
face $-1 $75 $76 $45 $-1 $77 forward single #
face $-1 $78 $79 $46 $-1 $80 forward single #
face $-1 $81 $82 $47 $-1 $83 forward single #
face $-1 $84 $85 $48 $-1 $86 reversed single #
face $-1 $87 $88 $49 $-1 $89 forward single #
face $-1 $90 $91 $50 $-1 $92 forward single #
face $-1 $93 $94 $51 $-1 $95 reversed single #
face $-1 $96 $97 $52 $-1 $98 forward single #
face $-1 $99 $100 $53 $-1 $101 forward single #
face $-1 $102 $103 $54 $-1 $104 reversed single #
face $-1 $105 $106 $55 $-1 $107 forward single #
face $-1 $108 $109 $56 $-1 $110 forward single #
face $-1 $111 $112 $57 $-1 $113 reversed single #
face $-1 $114 $115 $58 $-1 $116 forward single #
face $-1 $117 $118 $59 $-1 $119 forward single #
face $-1 $120 $121 $45 $-1 $122 reversed single #
loop $-1 $-1 $123 $60 #
plane-surface $-1 0 0 19.242566760784094 0 0 1 1 0 0 forward_v I I I I #
face $-1 $124 $125 $46 $-1 $126 forward single #
loop $-1 $-1 $127 $61 #
plane-surface $-1 -78.352000488296142 0 0 1 0 0 0 0 -1 forward_v I I I I #
face $-1 $128 $129 $47 $-1 $130 reversed single #
loop $-1 $-1 $131 $62 #
plane-surface $-1 78.352000488296142 0 0 -1 0 0 0 0 1 forward_v I I I I #
face $-1 $132 $133 $48 $-1 $134 reversed single #
loop $-1 $-1 $135 $63 #
plane-surface $-1 -48.923184317892535 84.387436075741419 180.93610284176867 1 0 0 0 -0.68199836817093118 -0.7313536940579346 forward_v I I I I #
face $-1 $136 $137 $49 $-1 $138 forward single #
loop $-1 $139 $140 $64 #
cone-surface $-1 -44.869880232305619 37.128510455628295 8.3874510837938345 0 -0.68199836817093118 -0.7313536940579346 1.5 0 0 1 I I 0 1 1.5 forward I I I I #
face $-1 $141 $142 $50 $-1 $143 forward single #
loop $-1 $144 $145 $65 #
cone-surface $-1 -38.789924103925237 37.128510455628295 8.3874510837938345 0 -0.68199836817093118 -0.7313536940579346 1.5 0 0 1 I I 0 1 1.5 forward I I I I #
face $-1 $146 $147 $51 $-1 $148 reversed single #
loop $-1 $-1 $149 $66 #
plane-surface $-1 -21.036582872482242 84.387436075741419 180.93610284176867 1 0 0 0 -0.68199836817093118 -0.7313536940579346 forward_v I I I I #
face $-1 $150 $151 $52 $-1 $152 forward single #
loop $-1 $153 $154 $67 #
cone-surface $-1 -16.983278786895326 37.128510455628295 8.3874510837938345 0 -0.68199836817093118 -0.7313536940579346 1.5 0 0 1 I I 0 1 1.5 forward I I I I #
face $-1 $155 $156 $53 $-1 $157 forward single #
loop $-1 $158 $159 $68 #
cone-surface $-1 -10.903322658514952 37.128510455628295 8.3874510837938345 0 -0.68199836817093118 -0.7313536940579346 1.5 0 0 1 I I 0 1 1.5 forward I I I I #
face $-1 $160 $161 $54 $-1 $162 reversed single #
loop $-1 $-1 $163 $69 #
plane-surface $-1 6.8500185729280485 84.387436075741419 180.93610284176867 1 0 0 0 -0.68199836817093118 -0.7313536940579346 forward_v I I I I #
face $-1 $164 $165 $55 $-1 $166 forward single #
loop $-1 $167 $168 $70 #
cone-surface $-1 10.903322658514966 37.128510455628295 8.3874510837938345 0 -0.68199836817093118 -0.7313536940579346 1.5 0 0 1 I I 0 1 1.5 forward I I I I #
face $-1 $169 $170 $56 $-1 $171 forward single #
loop $-1 $172 $173 $71 #
cone-surface $-1 16.98327878689534 37.128510455628295 8.3874510837938345 0 -0.68199836817093118 -0.7313536940579346 1.5 0 0 1 I I 0 1 1.5 forward I I I I #
face $-1 $174 $175 $57 $-1 $176 reversed single #
loop $-1 $-1 $177 $72 #
plane-surface $-1 34.736620018338343 84.387436075741419 180.93610284176867 1 0 0 0 -0.68199836817093118 -0.7313536940579346 forward_v I I I I #
face $-1 $178 $179 $58 $-1 $180 forward single #
loop $-1 $181 $182 $73 #
cone-surface $-1 38.789924103925259 37.128510455628295 8.3874510837938345 0 -0.68199836817093118 -0.7313536940579346 1.5 0 0 1 I I 0 1 1.5 forward I I I I #
face $-1 $183 $184 $59 $-1 $185 forward single #
loop $-1 $186 $187 $74 #
cone-surface $-1 44.869880232305633 37.128510455628295 8.3874510837938345 0 -0.68199836817093118 -0.7313536940579346 1.5 0 0 1 I I 0 1 1.5 forward I I I I #
face $-1 $188 $189 $45 $-1 $190 reversed single #
loop $-1 $-1 $191 $75 #
plane-surface $-1 0 0 -19.242566760784094 0 0 1 1 0 0 forward_v I I I I #
coedge $-1 $192 $193 $194 $195 forward $76 $-1 #
face $-1 $196 $197 $46 $-1 $198 reversed single #
loop $-1 $-1 $199 $78 #
plane-surface $-1 0 0 19.242566760784094 0 0 1 1 0 0 forward_v I I I I #
coedge $-1 $200 $201 $202 $203 forward $79 $-1 #
face $-1 $204 $205 $47 $-1 $206 reversed single #
loop $-1 $-1 $207 $81 #
plane-surface $-1 0 -48.59320912878983 0 0 1 0 0 0 1 forward_v I I I I #
coedge $-1 $208 $209 $210 $211 forward $82 $-1 #
face $-1 $212 $213 $48 $-1 $214 reversed single #
loop $-1 $-1 $215 $84 #
plane-surface $-1 -41.829902168115424 -22.484436876150525 66.330052853879721 0 0.68199836817093118 0.7313536940579346 1 0 0 forward_v I I I I #
coedge $-1 $216 $217 $218 $219 reversed $85 $-1 #
face $-1 $-1 $220 $49 $-1 $221 forward single #
loop $-1 $222 $223 $87 #
cone-surface $-1 -44.869880232305619 35.44356321003054 6.5805664197358027 0 -0.68199836817093118 -0.7313536940579346 0.75 0 0 1 I I -0.70710678118654757 0.70710678118654757 0.75 forward I I I I #
loop $-1 $-1 $224 $64 #
coedge $-1 $140 $140 $225 $226 reversed $88 $-1 #
face $-1 $-1 $227 $50 $-1 $228 forward single #
loop $-1 $229 $230 $90 #
cone-surface $-1 -38.789924103925237 35.44356321003054 6.5805664197358027 0 -0.68199836817093118 -0.7313536940579346 0.75 0 0 1 I I -0.70710678118654757 0.70710678118654757 0.75 forward I I I I #
loop $-1 $-1 $231 $65 #
coedge $-1 $145 $145 $232 $233 reversed $91 $-1 #
face $-1 $234 $235 $51 $-1 $236 reversed single #
loop $-1 $-1 $237 $93 #
plane-surface $-1 -13.943300722705132 -22.484436876150525 66.330052853879721 0 0.68199836817093118 0.7313536940579346 1 0 0 forward_v I I I I #
coedge $-1 $238 $239 $240 $241 reversed $94 $-1 #
face $-1 $-1 $242 $52 $-1 $243 forward single #
loop $-1 $244 $245 $96 #
cone-surface $-1 -16.983278786895326 35.44356321003054 6.5805664197358027 0 -0.68199836817093118 -0.7313536940579346 0.75 0 0 1 I I -0.70710678118654757 0.70710678118654757 0.75 forward I I I I #
loop $-1 $-1 $246 $67 #
coedge $-1 $154 $154 $247 $248 reversed $97 $-1 #
face $-1 $-1 $249 $53 $-1 $250 forward single #
loop $-1 $251 $252 $99 #
cone-surface $-1 -10.903322658514952 35.44356321003054 6.5805664197358027 0 -0.68199836817093118 -0.7313536940579346 0.75 0 0 1 I I -0.70710678118654757 0.70710678118654757 0.75 forward I I I I #
loop $-1 $-1 $253 $68 #
coedge $-1 $159 $159 $254 $255 reversed $100 $-1 #
face $-1 $256 $257 $54 $-1 $258 reversed single #
loop $-1 $-1 $259 $102 #
plane-surface $-1 13.94330072270516 -22.484436876150525 66.330052853879721 0 0.68199836817093118 0.7313536940579346 1 0 0 forward_v I I I I #
coedge $-1 $260 $261 $262 $263 reversed $103 $-1 #
face $-1 $-1 $264 $55 $-1 $265 forward single #
loop $-1 $266 $267 $105 #
cone-surface $-1 10.903322658514966 35.44356321003054 6.5805664197358027 0 -0.68199836817093118 -0.7313536940579346 0.75 0 0 1 I I -0.70710678118654757 0.70710678118654757 0.75 forward I I I I #
loop $-1 $-1 $268 $70 #
coedge $-1 $168 $168 $269 $270 reversed $106 $-1 #
face $-1 $-1 $271 $56 $-1 $272 forward single #
loop $-1 $273 $274 $108 #
cone-surface $-1 16.98327878689534 35.44356321003054 6.5805664197358027 0 -0.68199836817093118 -0.7313536940579346 0.75 0 0 1 I I -0.70710678118654757 0.70710678118654757 0.75 forward I I I I #
loop $-1 $-1 $275 $71 #
coedge $-1 $173 $173 $276 $277 reversed $109 $-1 #
face $-1 $278 $279 $57 $-1 $280 reversed single #
loop $-1 $-1 $281 $111 #
plane-surface $-1 41.829902168115453 -22.484436876150525 66.330052853879721 0 0.68199836817093118 0.7313536940579346 1 0 0 forward_v I I I I #
coedge $-1 $282 $283 $284 $285 reversed $112 $-1 #
face $-1 $-1 $286 $58 $-1 $287 forward single #
loop $-1 $288 $289 $114 #
cone-surface $-1 38.789924103925259 35.44356321003054 6.5805664197358027 0 -0.68199836817093118 -0.7313536940579346 0.75 0 0 1 I I -0.70710678118654757 0.70710678118654757 0.75 forward I I I I #
loop $-1 $-1 $290 $73 #
coedge $-1 $182 $182 $291 $292 reversed $115 $-1 #
face $-1 $-1 $293 $59 $-1 $294 forward single #
loop $-1 $295 $296 $117 #
cone-surface $-1 44.869880232305633 35.44356321003054 6.5805664197358027 0 -0.68199836817093118 -0.7313536940579346 0.75 0 0 1 I I -0.70710678118654757 0.70710678118654757 0.75 forward I I I I #
loop $-1 $-1 $297 $74 #
coedge $-1 $187 $187 $298 $299 reversed $118 $-1 #
face $-1 $300 $301 $45 $-1 $302 reversed single #
loop $-1 $-1 $303 $120 #
plane-surface $-1 0 -48.59320912878983 0 0 1 0 0 0 1 forward_v I I I I #
coedge $-1 $304 $305 $306 $307 forward $121 $-1 #
coedge $-1 $308 $123 $309 $310 forward $76 $-1 #
coedge $-1 $123 $308 $311 $312 forward $76 $-1 #
coedge $-1 $313 $314 $123 $195 reversed $315 $-1 #
edge $-1 $316 -48.59320912878983 $317 48.59320912878983 $194 $318 forward 7 unknown #
face $-1 $319 $320 $46 $-1 $321 reversed single #
loop $-1 $-1 $322 $124 #
plane-surface $-1 -93.788077825797018 -44.926451030774757 0 1 0 0 0 0 -1 forward_v I I I I #
coedge $-1 $323 $324 $200 $325 forward $125 $-1 #
coedge $-1 $326 $127 $199 $325 reversed $79 $-1 #
coedge $-1 $127 $326 $327 $328 reversed $79 $-1 #
coedge $-1 $329 $330 $127 $203 reversed $320 $-1 #
edge $-1 $331 -19.242566760784094 $332 19.242566760784094 $202 $333 forward 7 unknown #
face $-1 $334 $335 $47 $-1 $336 reversed single #
loop $-1 $-1 $337 $128 #
plane-surface $-1 0 0 -19.242566760784094 0 0 1 1 0 0 forward_v I I I I #
coedge $-1 $338 $339 $340 $341 forward $129 $-1 #
coedge $-1 $340 $131 $337 $342 reversed $82 $-1 #
coedge $-1 $131 $340 $343 $344 reversed $82 $-1 #
coedge $-1 $345 $346 $131 $211 reversed $335 $-1 #
edge $-1 $347 -19.242566760784094 $348 19.242566760784094 $210 $349 forward 7 unknown #
face $-1 $350 $351 $48 $-1 $352 reversed single #
loop $-1 $-1 $353 $132 #
plane-surface $-1 -34.736620018338314 84.387436075741419 180.93610284176867 -1 0 0 0 0.68199836817093118 0.7313536940579346 forward_v I I I I #
coedge $-1 $354 $355 $356 $357 reversed $133 $-1 #
coedge $-1 $217 $135 $358 $359 reversed $85 $-1 #
coedge $-1 $135 $216 $354 $360 reversed $85 $-1 #
coedge $-1 $356 $361 $135 $219 forward $362 $-1 #
edge $-1 $363 -6.3994910909191205 $364 14.183009316464741 $218 $365 forward 7 unknown #
loop $-1 $-1 $225 $136 #
plane-surface $-1 -41.829902168115424 -22.484436876150525 66.330052853879721 0 0.68199836817093118 0.7313536940579346 1 0 0 forward_v I I I I #
loop $-1 $-1 $366 $87 #
coedge $-1 $223 $223 $224 $367 reversed $137 $-1 #
coedge $-1 $224 $224 $223 $367 forward $139 $-1 #
coedge $-1 $225 $225 $140 $226 forward $220 $-1 #
edge $-1 $368 1.020182200317179e-015 $368 6.2831853071796013 $225 $369 forward 7 unknown #
loop $-1 $-1 $232 $141 #
plane-surface $-1 -41.829902168115424 -22.484436876150525 66.330052853879721 0 0.68199836817093118 0.7313536940579346 1 0 0 forward_v I I I I #
loop $-1 $-1 $370 $90 #
coedge $-1 $230 $230 $231 $371 reversed $142 $-1 #
coedge $-1 $231 $231 $230 $371 forward $144 $-1 #
coedge $-1 $232 $232 $145 $233 forward $227 $-1 #
edge $-1 $372 1.020182200317179e-015 $372 6.2831853071796013 $232 $373 forward 7 unknown #
face $-1 $374 $375 $51 $-1 $376 forward single #
loop $-1 $-1 $377 $146 #
plane-surface $-1 -6.8500185729280201 84.387436075741419 180.93610284176867 -1 0 0 0 0.68199836817093118 0.7313536940579346 forward_v I I I I #
coedge $-1 $378 $379 $380 $381 reversed $147 $-1 #
coedge $-1 $239 $149 $382 $383 reversed $94 $-1 #
coedge $-1 $149 $238 $378 $384 reversed $94 $-1 #
coedge $-1 $380 $385 $149 $241 forward $375 $-1 #
edge $-1 $386 -6.3994910909191205 $387 14.183009316464741 $240 $388 forward 7 unknown #
loop $-1 $-1 $247 $150 #
plane-surface $-1 -13.943300722705132 -22.484436876150525 66.330052853879721 0 0.68199836817093118 0.7313536940579346 1 0 0 forward_v I I I I #
loop $-1 $-1 $389 $96 #
coedge $-1 $245 $245 $246 $390 reversed $151 $-1 #
coedge $-1 $246 $246 $245 $390 forward $153 $-1 #
coedge $-1 $247 $247 $154 $248 forward $242 $-1 #
edge $-1 $391 1.020182200317179e-015 $391 6.2831853071796013 $247 $392 forward 7 unknown #
loop $-1 $-1 $254 $155 #
plane-surface $-1 -13.943300722705132 -22.484436876150525 66.330052853879721 0 0.68199836817093118 0.7313536940579346 1 0 0 forward_v I I I I #
loop $-1 $-1 $393 $99 #
coedge $-1 $252 $252 $253 $394 reversed $156 $-1 #
coedge $-1 $253 $253 $252 $394 forward $158 $-1 #
coedge $-1 $254 $254 $159 $255 forward $249 $-1 #
edge $-1 $395 1.020182200317179e-015 $395 6.2831853071796013 $254 $396 forward 7 unknown #
face $-1 $397 $398 $54 $-1 $399 forward single #
loop $-1 $-1 $400 $160 #
plane-surface $-1 21.036582872482271 84.387436075741419 180.93610284176867 -1 0 0 0 0.68199836817093118 0.7313536940579346 forward_v I I I I #
coedge $-1 $401 $402 $403 $404 reversed $161 $-1 #
coedge $-1 $261 $163 $405 $406 reversed $103 $-1 #
coedge $-1 $163 $260 $401 $407 reversed $103 $-1 #
coedge $-1 $403 $408 $163 $263 forward $398 $-1 #
edge $-1 $409 -6.3994910909191205 $410 14.183009316464741 $262 $411 forward 7 unknown #
loop $-1 $-1 $269 $164 #
plane-surface $-1 13.94330072270516 -22.484436876150525 66.330052853879721 0 0.68199836817093118 0.7313536940579346 1 0 0 forward_v I I I I #
loop $-1 $-1 $412 $105 #
coedge $-1 $267 $267 $268 $413 reversed $165 $-1 #
coedge $-1 $268 $268 $267 $413 forward $167 $-1 #
coedge $-1 $269 $269 $168 $270 forward $264 $-1 #
edge $-1 $414 1.020182200317179e-015 $414 6.2831853071796013 $269 $415 forward 7 unknown #
loop $-1 $-1 $276 $169 #
plane-surface $-1 13.94330072270516 -22.484436876150525 66.330052853879721 0 0.68199836817093118 0.7313536940579346 1 0 0 forward_v I I I I #
loop $-1 $-1 $416 $108 #
coedge $-1 $274 $274 $275 $417 reversed $170 $-1 #
coedge $-1 $275 $275 $274 $417 forward $172 $-1 #
coedge $-1 $276 $276 $173 $277 forward $271 $-1 #
edge $-1 $418 1.020182200317179e-015 $418 6.2831853071796013 $276 $419 forward 7 unknown #
face $-1 $420 $421 $57 $-1 $422 forward single #
loop $-1 $-1 $423 $174 #
plane-surface $-1 48.923184317892563 84.387436075741419 180.93610284176867 -1 0 0 0 0.68199836817093118 0.7313536940579346 forward_v I I I I #
coedge $-1 $424 $425 $426 $427 reversed $175 $-1 #
coedge $-1 $283 $177 $428 $429 reversed $112 $-1 #
coedge $-1 $177 $282 $424 $430 reversed $112 $-1 #
coedge $-1 $426 $431 $177 $285 forward $421 $-1 #
edge $-1 $432 -6.3994910909191205 $433 14.183009316464741 $284 $434 forward 7 unknown #
loop $-1 $-1 $291 $178 #
plane-surface $-1 41.829902168115453 -22.484436876150525 66.330052853879721 0 0.68199836817093118 0.7313536940579346 1 0 0 forward_v I I I I #
loop $-1 $-1 $435 $114 #
coedge $-1 $289 $289 $290 $436 reversed $179 $-1 #
coedge $-1 $290 $290 $289 $436 forward $181 $-1 #
coedge $-1 $291 $291 $182 $292 forward $286 $-1 #
edge $-1 $437 1.020182200317179e-015 $437 6.2831853071796013 $291 $438 forward 7 unknown #
loop $-1 $-1 $298 $183 #
plane-surface $-1 41.829902168115453 -22.484436876150525 66.330052853879721 0 0.68199836817093118 0.7313536940579346 1 0 0 forward_v I I I I #
loop $-1 $-1 $439 $117 #
coedge $-1 $296 $296 $297 $440 reversed $184 $-1 #
coedge $-1 $297 $297 $296 $440 forward $186 $-1 #
coedge $-1 $298 $298 $187 $299 forward $293 $-1 #
edge $-1 $441 1.020182200317179e-015 $441 6.2831853071796013 $298 $442 forward 7 unknown #
face $-1 $443 $444 $45 $-1 $445 reversed single #
loop $-1 $-1 $446 $188 #
plane-surface $-1 -78.352000488296142 0 0 1 0 0 0 0 -1 forward_v I I I I #
coedge $-1 $447 $311 $448 $449 forward $189 $-1 #
coedge $-1 $450 $191 $447 $451 forward $121 $-1 #
coedge $-1 $191 $450 $452 $453 forward $121 $-1 #
coedge $-1 $314 $313 $191 $307 reversed $315 $-1 #
edge $-1 $454 -48.59320912878983 $455 48.59320912878983 $306 $456 forward 7 unknown #
coedge $-1 $193 $192 $457 $458 forward $76 $-1 #
coedge $-1 $459 $460 $192 $310 reversed $444 $-1 #
edge $-1 $317 -78.352000488296142 $461 78.352000488296142 $309 $462 forward 7 unknown #
coedge $-1 $303 $463 $193 $312 reversed $189 $-1 #
edge $-1 $464 -78.352000488296142 $316 78.352000488296142 $311 $465 forward 7 unknown #
coedge $-1 $306 $194 $463 $466 forward $315 $-1 #
coedge $-1 $194 $306 $459 $467 reversed $315 $-1 #
loop $-1 $-1 $313 $443 #
vertex $-1 $195 $468 #
vertex $-1 $195 $469 #
straight-curve $-1 78.352000488296142 0 19.242566760784094 0 1 0 I I #
face $-1 $470 $471 $46 $-1 $472 reversed single #
loop $-1 $-1 $202 $196 #
plane-surface $-1 -86.07003915704658 -41.259692932759684 0 0 -1 0 0 0 -1 forward_v I I I I #
coedge $-1 $473 $474 $475 $476 forward $197 $-1 #
coedge $-1 $477 $199 $330 $478 forward $125 $-1 #
coedge $-1 $199 $477 $479 $480 forward $125 $-1 #
edge $-1 $481 -48.59320912878983 $332 -41.259692932759684 $199 $482 forward 7 unknown #
coedge $-1 $201 $200 $483 $484 reversed $79 $-1 #
coedge $-1 $485 $486 $201 $328 forward $471 $-1 #
edge $-1 $331 41.259692932759684 $487 48.59320912878983 $327 $488 forward 7 unknown #
coedge $-1 $475 $202 $486 $489 reversed $320 $-1 #
coedge $-1 $202 $475 $323 $478 reversed $320 $-1 #
vertex $-1 $328 $490 #
vertex $-1 $478 $491 #
straight-curve $-1 -78.352000488296142 -41.259692932759684 0 0 0 1 I I #
face $-1 $492 $493 $47 $-1 $494 reversed single #
loop $-1 $-1 $495 $204 #
plane-surface $-1 86.07003915704658 -41.259692932759684 0 0 -1 0 0 0 -1 forward_v I I I I #
coedge $-1 $496 $497 $208 $342 forward $205 $-1 #
coedge $-1 $498 $207 $497 $499 reversed $129 $-1 #
coedge $-1 $207 $498 $500 $501 reversed $129 $-1 #
coedge $-1 $209 $208 $207 $341 reversed $82 $-1 #
edge $-1 $502 -19.242566760784094 $503 19.242566760784094 $207 $504 forward 7 unknown #
edge $-1 $503 -48.59320912878983 $348 -41.259692932759684 $337 $505 forward 7 unknown #
coedge $-1 $500 $506 $209 $344 forward $507 $-1 #
edge $-1 $347 41.259692932759684 $502 48.59320912878983 $343 $508 forward 7 unknown #
coedge $-1 $495 $210 $506 $509 reversed $335 $-1 #
coedge $-1 $210 $495 $496 $510 reversed $335 $-1 #
vertex $-1 $344 $511 #
vertex $-1 $510 $512 #
straight-curve $-1 78.352000488296142 -41.259692932759684 0 0 0 -1 I I #
face $-1 $-1 $362 $48 $-1 $513 forward single #
loop $-1 $-1 $514 $212 #
plane-surface $-1 0 48.59320912878983 0 0 -1 0 0 0 -1 forward_v I I I I #
coedge $-1 $515 $516 $517 $518 reversed $213 $-1 #
coedge $-1 $519 $215 $217 $360 forward $133 $-1 #
coedge $-1 $215 $519 $515 $520 forward $133 $-1 #
coedge $-1 $517 $218 $215 $357 forward $362 $-1 #
edge $-1 $364 -28.008233233834822 $521 -13.821668934280602 $356 $522 forward 7 unknown #
coedge $-1 $523 $524 $216 $359 forward $351 $-1 #
edge $-1 $525 -90.418977227051514 $363 -71.22548466010025 $358 $526 forward 7 unknown #
edge $-1 $364 69.043399941528833 $525 97.186418257579632 $217 $527 forward 7 unknown #
coedge $-1 $218 $517 $523 $528 forward $362 $-1 #
loop $-1 $-1 $517 $350 #
vertex $-1 $359 $529 #
vertex $-1 $219 $530 #
straight-curve $-1 -48.923184317892535 42.19371803787071 19.242566760784086 0 -1 0 I I #
coedge $-1 $366 $366 $-1 $531 reversed $222 $-1 #
edge $-1 $532 0 $532 6.2831853071796004 $223 $533 forward 7 unknown #
vertex $-1 $226 $534 #
ellipse-curve $-1 -44.869880232305619 38.301958925097892 9.6458204773084635 0 0.68199836817093118 0.7313536940579346 1.5 0 0 1 I I #
coedge $-1 $370 $370 $-1 $535 reversed $229 $-1 #
edge $-1 $536 0 $536 6.2831853071796004 $230 $537 forward 7 unknown #
vertex $-1 $233 $538 #
ellipse-curve $-1 -38.789924103925237 38.301958925097892 9.6458204773084635 0 0.68199836817093118 0.7313536940579346 1.5 0 0 1 I I #
face $-1 $-1 $539 $51 $-1 $540 reversed single #
loop $-1 $-1 $240 $234 #
plane-surface $-1 0 0 19.242566760784094 0 0 1 1 0 0 forward_v I I I I #
coedge $-1 $541 $542 $543 $544 reversed $235 $-1 #
coedge $-1 $545 $237 $239 $384 forward $147 $-1 #
coedge $-1 $237 $545 $541 $546 forward $147 $-1 #
coedge $-1 $543 $240 $237 $381 forward $375 $-1 #
edge $-1 $387 -14.064932511129676 $547 0.12163178842454592 $380 $548 forward 7 unknown #
coedge $-1 $549 $550 $238 $383 forward $539 $-1 #
edge $-1 $551 -90.418977227051514 $386 -71.22548466010025 $382 $552 forward 7 unknown #
edge $-1 $387 69.043399941528833 $551 97.186418257579632 $239 $553 forward 7 unknown #
coedge $-1 $240 $543 $549 $554 forward $375 $-1 #
vertex $-1 $241 $555 #
vertex $-1 $241 $556 #
straight-curve $-1 -21.036582872482242 42.19371803787071 19.242566760784086 0 -1 0 I I #
coedge $-1 $389 $389 $-1 $557 reversed $244 $-1 #
edge $-1 $558 0 $558 6.2831853071796004 $245 $559 forward 7 unknown #
vertex $-1 $248 $560 #
ellipse-curve $-1 -16.983278786895326 38.301958925097892 9.6458204773084635 0 0.68199836817093118 0.7313536940579346 1.5 0 0 1 I I #
coedge $-1 $393 $393 $-1 $561 reversed $251 $-1 #
edge $-1 $562 0 $562 6.2831853071796004 $252 $563 forward 7 unknown #
vertex $-1 $255 $564 #
ellipse-curve $-1 -10.903322658514952 38.301958925097892 9.6458204773084635 0 0.68199836817093118 0.7313536940579346 1.5 0 0 1 I I #
face $-1 $-1 $565 $54 $-1 $566 reversed single #
loop $-1 $-1 $262 $256 #
plane-surface $-1 0 0 19.242566760784094 0 0 1 1 0 0 forward_v I I I I #
coedge $-1 $567 $568 $569 $570 reversed $257 $-1 #
coedge $-1 $571 $259 $261 $407 forward $161 $-1 #
coedge $-1 $259 $571 $567 $572 forward $161 $-1 #
coedge $-1 $569 $262 $259 $404 forward $398 $-1 #
edge $-1 $410 -0.12163178842453171 $573 14.06493251112969 $403 $574 forward 7 unknown #
coedge $-1 $575 $576 $260 $406 forward $565 $-1 #
edge $-1 $577 -90.418977227051514 $409 -71.22548466010025 $405 $578 forward 7 unknown #
edge $-1 $410 69.043399941528833 $577 97.186418257579632 $261 $579 forward 7 unknown #
coedge $-1 $262 $569 $575 $580 forward $398 $-1 #
vertex $-1 $263 $581 #
vertex $-1 $263 $582 #
straight-curve $-1 6.8500185729280485 42.19371803787071 19.242566760784086 0 -1 0 I I #
coedge $-1 $412 $412 $-1 $583 reversed $266 $-1 #
edge $-1 $584 0 $584 6.2831853071796004 $267 $585 forward 7 unknown #
vertex $-1 $270 $586 #
ellipse-curve $-1 10.903322658514966 38.301958925097892 9.6458204773084635 0 0.68199836817093118 0.7313536940579346 1.5 0 0 1 I I #
coedge $-1 $416 $416 $-1 $587 reversed $273 $-1 #
edge $-1 $588 0 $588 6.2831853071796004 $274 $589 forward 7 unknown #
vertex $-1 $277 $590 #
ellipse-curve $-1 16.98327878689534 38.301958925097892 9.6458204773084635 0 0.68199836817093118 0.7313536940579346 1.5 0 0 1 I I #
face $-1 $-1 $591 $57 $-1 $592 reversed single #
loop $-1 $-1 $284 $278 #
plane-surface $-1 0 0 19.242566760784094 0 0 1 1 0 0 forward_v I I I I #
coedge $-1 $593 $594 $595 $596 reversed $279 $-1 #
coedge $-1 $597 $281 $283 $430 forward $175 $-1 #
coedge $-1 $281 $597 $593 $598 forward $175 $-1 #
coedge $-1 $595 $284 $281 $427 forward $421 $-1 #
edge $-1 $433 13.821668934280616 $599 28.008233233834837 $426 $600 forward 7 unknown #
coedge $-1 $601 $602 $282 $429 forward $591 $-1 #
edge $-1 $603 -90.418977227051514 $432 -71.22548466010025 $428 $604 forward 7 unknown #
edge $-1 $433 69.043399941528833 $603 97.186418257579632 $283 $605 forward 7 unknown #
coedge $-1 $284 $595 $601 $606 forward $421 $-1 #
vertex $-1 $285 $607 #
vertex $-1 $285 $608 #
straight-curve $-1 34.736620018338343 42.19371803787071 19.242566760784086 0 -1 0 I I #
coedge $-1 $435 $435 $-1 $609 reversed $288 $-1 #
edge $-1 $610 0 $610 6.2831853071796004 $289 $611 forward 7 unknown #
vertex $-1 $292 $612 #
ellipse-curve $-1 38.789924103925259 38.301958925097892 9.6458204773084635 0 0.68199836817093118 0.7313536940579346 1.5 0 0 1 I I #
coedge $-1 $439 $439 $-1 $613 reversed $295 $-1 #
edge $-1 $614 0 $614 6.2831853071796004 $296 $615 forward 7 unknown #
vertex $-1 $299 $616 #
ellipse-curve $-1 44.869880232305633 38.301958925097892 9.6458204773084635 0 0.68199836817093118 0.7313536940579346 1.5 0 0 1 I I #
face $-1 $-1 $315 $45 $-1 $617 reversed single #
loop $-1 $-1 $459 $300 #
plane-surface $-1 0 48.59320912878983 0 0 -1 0 0 0 -1 forward_v I I I I #
coedge $-1 $618 $457 $460 $619 forward $301 $-1 #
coedge $-1 $463 $303 $304 $451 reversed $189 $-1 #
coedge $-1 $457 $618 $303 $449 reversed $301 $-1 #
edge $-1 $464 -19.242566760784094 $620 19.242566760784094 $448 $621 forward 7 unknown #
coedge $-1 $305 $304 $618 $622 forward $121 $-1 #
edge $-1 $455 -78.352000488296142 $620 78.352000488296142 $447 $623 forward 7 unknown #
coedge $-1 $460 $459 $305 $453 reversed $444 $-1 #
edge $-1 $624 -78.352000488296142 $454 78.352000488296142 $452 $625 forward 7 unknown #
vertex $-1 $307 $626 #
vertex $-1 $466 $627 #
straight-curve $-1 78.352000488296142 0 -19.242566760784094 0 -1 0 I I #
coedge $-1 $446 $448 $308 $458 reversed $301 $-1 #
edge $-1 $461 -48.59320912878983 $464 48.59320912878983 $457 $628 forward 7 unknown #
coedge $-1 $452 $309 $314 $467 forward $444 $-1 #
coedge $-1 $309 $452 $446 $619 reversed $444 $-1 #
vertex $-1 $310 $629 #
straight-curve $-1 0 48.59320912878983 19.242566760784094 -1 0 0 I I #
coedge $-1 $311 $447 $313 $466 reversed $189 $-1 #
vertex $-1 $458 $630 #
straight-curve $-1 0 -48.59320912878983 19.242566760784094 1 0 0 I I #
edge $-1 $316 -19.242566760784094 $455 19.242566760784094 $313 $631 forward 7 unknown #
edge $-1 $317 -19.242566760784094 $454 19.242566760784094 $314 $632 forward 7 unknown #
point $-1 78.352000488296142 -48.59320912878983 19.242566760784094 #
point $-1 78.352000488296142 48.59320912878983 19.242566760784094 #
face $-1 $-1 $633 $46 $-1 $634 reversed single #
loop $-1 $-1 $327 $319 #
plane-surface $-1 0 0 -19.242566760784094 0 0 1 1 0 0 forward_v I I I I #
coedge $-1 $635 $322 $636 $637 reversed $197 $-1 #
coedge $-1 $322 $635 $477 $638 reversed $197 $-1 #
coedge $-1 $330 $329 $322 $476 reversed $320 $-1 #
edge $-1 $639 -19.242566760784094 $640 19.242566760784094 $475 $641 forward 7 unknown #
coedge $-1 $324 $323 $474 $638 forward $125 $-1 #
edge $-1 $332 -7.7180386687504381 $639 7.7180386687504381 $330 $642 forward 7 unknown #
coedge $-1 $643 $483 $324 $480 reversed $633 $-1 #
edge $-1 $644 -93.788077825797018 $481 -78.352000488296142 $479 $645 forward 7 unknown #
vertex $-1 $484 $646 #
straight-curve $-1 -78.352000488296142 0 19.242566760784094 0 1 0 I I #
coedge $-1 $479 $647 $326 $484 forward $633 $-1 #
edge $-1 $487 -19.242566760784094 $481 19.242566760784094 $483 $648 forward 7 unknown #
coedge $-1 $636 $327 $647 $649 forward $471 $-1 #
coedge $-1 $327 $636 $329 $489 forward $471 $-1 #
vertex $-1 $649 $650 #
straight-curve $-1 -78.352000488296142 0 -19.242566760784094 0 -1 0 I I #
edge $-1 $640 -7.7180386687504381 $331 7.7180386687504381 $329 $651 forward 7 unknown #
point $-1 -78.352000488296142 -41.259692932759684 -19.242566760784094 #
point $-1 -78.352000488296142 -41.259692932759684 19.242566760784094 #
face $-1 $-1 $507 $47 $-1 $652 forward single #
loop $-1 $-1 $653 $334 #
plane-surface $-1 93.788077825797018 -44.926451030774757 0 -1 0 0 0 0 1 forward_v I I I I #
coedge $-1 $346 $345 $654 $655 forward $335 $-1 #
coedge $-1 $656 $337 $346 $510 forward $205 $-1 #
coedge $-1 $337 $656 $338 $499 forward $205 $-1 #
coedge $-1 $339 $338 $653 $657 reversed $129 $-1 #
edge $-1 $658 -7.7180386687504381 $503 7.7180386687504381 $338 $659 forward 7 unknown #
coedge $-1 $660 $343 $339 $501 forward $507 $-1 #
edge $-1 $502 -7.7180386687504381 $661 7.7180386687504381 $339 $662 forward 7 unknown #
vertex $-1 $501 $663 #
vertex $-1 $342 $664 #
straight-curve $-1 78.352000488296142 -48.59320912878983 0 0 0 -1 I I #
straight-curve $-1 78.352000488296142 0 -19.242566760784094 0 1 0 I I #
coedge $-1 $343 $660 $345 $509 forward $507 $-1 #
loop $-1 $-1 $343 $492 #
straight-curve $-1 78.352000488296142 0 19.242566760784094 0 -1 0 I I #
edge $-1 $665 -7.7180386687504381 $347 7.7180386687504381 $345 $666 forward 7 unknown #
edge $-1 $348 -7.7180386687504381 $667 7.7180386687504381 $346 $668 forward 7 unknown #
point $-1 78.352000488296142 -41.259692932759684 19.242566760784094 #
point $-1 78.352000488296142 -41.259692932759684 -19.242566760784094 #
plane-surface $-1 0 0 19.242566760784094 0 0 1 1 0 0 forward_v I I I I #
coedge $-1 $524 $523 $516 $669 forward $351 $-1 #
coedge $-1 $516 $353 $355 $520 reversed $213 $-1 #
coedge $-1 $353 $515 $514 $669 reversed $213 $-1 #
coedge $-1 $361 $356 $353 $518 forward $362 $-1 #
edge $-1 $521 -14.183009316464741 $670 6.3994910909191205 $517 $671 forward 7 unknown #
coedge $-1 $355 $354 $524 $672 reversed $133 $-1 #
edge $-1 $673 -97.186418257579632 $521 -69.043399941528833 $515 $674 forward 7 unknown #
vertex $-1 $357 $675 #
straight-curve $-1 -20.914951084057712 28.010708721405969 19.24256676078409 1 0 0 I I #
coedge $-1 $514 $358 $361 $528 reversed $351 $-1 #
coedge $-1 $358 $514 $519 $672 forward $351 $-1 #
vertex $-1 $359 $676 #
straight-curve $-1 -48.923184317892535 48.59320912878983 90.468051420884336 0 0 1 I I #
straight-curve $-1 -48.923184317892535 -22.484436876150525 66.330052853879721 0 0.7313536940579346 -0.68199836817093118 I I #
edge $-1 $670 34.736620018338314 $363 48.923184317892535 $523 $677 forward 7 unknown #
point $-1 -48.923184317892535 48.59320912878983 19.242566760784094 #
point $-1 -48.923184317892535 28.010708721405969 19.242566760784094 #
edge $-1 $678 1 $678 0 $366 $-1 forward 7 unknown #
vertex $-1 $367 $679 #
ellipse-curve $-1 -44.869880232305619 35.955061986158739 7.1290816902792535 0 0.68199836817093118 0.7313536940579346 1.5 0 0 1 I I #
point $-1 -43.369880232305619 38.30195892509785 9.6458204773084155 #
edge $-1 $680 1 $680 0 $370 $-1 forward 7 unknown #
vertex $-1 $371 $681 #
ellipse-curve $-1 -38.789924103925237 35.955061986158739 7.1290816902792535 0 0.68199836817093118 0.7313536940579346 1.5 0 0 1 I I #
point $-1 -37.289924103925237 38.30195892509785 9.6458204773084155 #
loop $-1 $-1 $382 $374 #
plane-surface $-1 0 48.59320912878983 0 0 -1 0 0 0 -1 forward_v I I I I #
coedge $-1 $542 $377 $379 $546 reversed $235 $-1 #
coedge $-1 $377 $541 $682 $683 reversed $235 $-1 #
coedge $-1 $385 $380 $377 $544 forward $375 $-1 #
edge $-1 $547 -14.183009316464741 $684 6.3994910909191205 $543 $685 forward 7 unknown #
coedge $-1 $379 $378 $550 $686 reversed $147 $-1 #
edge $-1 $687 -97.186418257579632 $547 -69.043399941528833 $541 $688 forward 7 unknown #
vertex $-1 $381 $689 #
straight-curve $-1 -6.971650361352566 28.010708721405969 19.24256676078409 1 0 0 I I #
coedge $-1 $682 $382 $385 $554 reversed $539 $-1 #
coedge $-1 $382 $682 $545 $686 forward $539 $-1 #
vertex $-1 $383 $690 #
straight-curve $-1 -21.036582872482242 48.59320912878983 90.468051420884336 0 0 1 I I #
straight-curve $-1 -21.036582872482242 -22.484436876150525 66.330052853879721 0 0.7313536940579346 -0.68199836817093118 I I #
edge $-1 $684 6.8500185729280201 $386 21.036582872482242 $549 $691 forward 7 unknown #
point $-1 -21.036582872482242 48.59320912878983 19.242566760784094 #
point $-1 -21.036582872482242 28.010708721405969 19.242566760784094 #
edge $-1 $692 1 $692 0 $389 $-1 forward 7 unknown #
vertex $-1 $390 $693 #
ellipse-curve $-1 -16.983278786895326 35.955061986158739 7.1290816902792535 0 0.68199836817093118 0.7313536940579346 1.5 0 0 1 I I #
point $-1 -15.483278786895326 38.30195892509785 9.6458204773084155 #
edge $-1 $694 1 $694 0 $393 $-1 forward 7 unknown #
vertex $-1 $394 $695 #
ellipse-curve $-1 -10.903322658514952 35.955061986158739 7.1290816902792535 0 0.68199836817093118 0.7313536940579346 1.5 0 0 1 I I #
point $-1 -9.4033226585149521 38.30195892509785 9.6458204773084155 #
loop $-1 $-1 $405 $397 #
plane-surface $-1 0 48.59320912878983 0 0 -1 0 0 0 -1 forward_v I I I I #
coedge $-1 $568 $400 $402 $572 reversed $257 $-1 #
coedge $-1 $400 $567 $696 $697 reversed $257 $-1 #
coedge $-1 $408 $403 $400 $570 forward $398 $-1 #
edge $-1 $573 -14.183009316464741 $698 6.3994910909191205 $569 $699 forward 7 unknown #
coedge $-1 $402 $401 $576 $700 reversed $161 $-1 #
edge $-1 $701 -97.186418257579632 $573 -69.043399941528833 $567 $702 forward 7 unknown #
vertex $-1 $404 $703 #
straight-curve $-1 6.9716503613525802 28.010708721405969 19.24256676078409 1 0 0 I I #
coedge $-1 $696 $405 $408 $580 reversed $565 $-1 #
coedge $-1 $405 $696 $571 $700 forward $565 $-1 #
vertex $-1 $406 $704 #
straight-curve $-1 6.8500185729280485 48.59320912878983 90.468051420884336 0 0 1 I I #
straight-curve $-1 6.8500185729280485 -22.484436876150525 66.330052853879721 0 0.7313536940579346 -0.68199836817093118 I I #
edge $-1 $698 -21.036582872482271 $409 -6.8500185729280485 $575 $705 forward 7 unknown #
point $-1 6.8500185729280485 48.59320912878983 19.242566760784094 #
point $-1 6.8500185729280485 28.010708721405969 19.242566760784094 #
edge $-1 $706 1 $706 0 $412 $-1 forward 7 unknown #
vertex $-1 $413 $707 #
ellipse-curve $-1 10.903322658514966 35.955061986158739 7.1290816902792535 0 0.68199836817093118 0.7313536940579346 1.5 0 0 1 I I #
point $-1 12.403322658514966 38.30195892509785 9.6458204773084155 #
edge $-1 $708 1 $708 0 $416 $-1 forward 7 unknown #
vertex $-1 $417 $709 #
ellipse-curve $-1 16.98327878689534 35.955061986158739 7.1290816902792535 0 0.68199836817093118 0.7313536940579346 1.5 0 0 1 I I #
point $-1 18.48327878689534 38.30195892509785 9.6458204773084155 #
loop $-1 $-1 $428 $420 #
plane-surface $-1 0 48.59320912878983 0 0 -1 0 0 0 -1 forward_v I I I I #
coedge $-1 $594 $423 $425 $598 reversed $279 $-1 #
coedge $-1 $423 $593 $710 $711 reversed $279 $-1 #
coedge $-1 $431 $426 $423 $596 forward $421 $-1 #
edge $-1 $599 -14.183009316464741 $712 6.3994910909191205 $595 $713 forward 7 unknown #
coedge $-1 $425 $424 $602 $714 reversed $175 $-1 #
edge $-1 $715 -97.186418257579632 $599 -69.043399941528833 $593 $716 forward 7 unknown #
vertex $-1 $427 $717 #
straight-curve $-1 20.914951084057726 28.010708721405969 19.24256676078409 1 0 0 I I #
coedge $-1 $710 $428 $431 $606 reversed $591 $-1 #
coedge $-1 $428 $710 $597 $714 forward $591 $-1 #
vertex $-1 $429 $718 #
straight-curve $-1 34.736620018338343 48.59320912878983 90.468051420884336 0 0 1 I I #
straight-curve $-1 34.736620018338343 -22.484436876150525 66.330052853879721 0 0.7313536940579346 -0.68199836817093118 I I #
edge $-1 $712 -48.923184317892563 $432 -34.736620018338343 $601 $719 forward 7 unknown #
point $-1 34.736620018338343 48.59320912878983 19.242566760784094 #
point $-1 34.736620018338343 28.010708721405969 19.242566760784094 #
edge $-1 $720 1 $720 0 $435 $-1 forward 7 unknown #
vertex $-1 $436 $721 #
ellipse-curve $-1 38.789924103925259 35.955061986158739 7.1290816902792535 0 0.68199836817093118 0.7313536940579346 1.5 0 0 1 I I #
point $-1 40.289924103925259 38.30195892509785 9.6458204773084155 #
edge $-1 $722 1 $722 0 $439 $-1 forward 7 unknown #
vertex $-1 $440 $723 #
ellipse-curve $-1 44.869880232305633 35.955061986158739 7.1290816902792535 0 0.68199836817093118 0.7313536940579346 1.5 0 0 1 I I #
point $-1 46.369880232305633 38.30195892509785 9.6458204773084155 #
plane-surface $-1 78.352000488296142 0 0 -1 0 0 0 0 1 forward_v I I I I #
coedge $-1 $448 $446 $450 $622 reversed $301 $-1 #
edge $-1 $461 -19.242566760784094 $624 19.242566760784094 $460 $724 forward 7 unknown #
vertex $-1 $622 $725 #
straight-curve $-1 -78.352000488296142 -48.59320912878983 0 0 0 -1 I I #
edge $-1 $620 -48.59320912878983 $624 48.59320912878983 $618 $726 forward 7 unknown #
straight-curve $-1 0 -48.59320912878983 -19.242566760784094 -1 0 0 I I #
vertex $-1 $453 $727 #
straight-curve $-1 0 48.59320912878983 -19.242566760784094 1 0 0 I I #
point $-1 78.352000488296142 48.59320912878983 -19.242566760784094 #
point $-1 78.352000488296142 -48.59320912878983 -19.242566760784094 #
straight-curve $-1 -78.352000488296142 0 19.242566760784094 0 -1 0 I I #
point $-1 -78.352000488296142 48.59320912878983 19.242566760784094 #
point $-1 -78.352000488296142 -48.59320912878983 19.242566760784094 #
straight-curve $-1 78.352000488296142 -48.59320912878983 0 0 0 -1 I I #
straight-curve $-1 78.352000488296142 48.59320912878983 0 0 0 -1 I I #
loop $-1 $-1 $483 $470 #
plane-surface $-1 0 -48.59320912878983 0 0 1 0 0 0 1 forward_v I I I I #
coedge $-1 $474 $473 $643 $728 reversed $197 $-1 #
coedge $-1 $486 $485 $473 $637 forward $471 $-1 #
edge $-1 $729 -3.6667580980150731 $640 3.6667580980150731 $473 $730 forward 7 unknown #
edge $-1 $639 -3.6667580980150731 $644 3.6667580980150731 $474 $731 forward 7 unknown #
vertex $-1 $478 $732 #
vertex $-1 $489 $733 #
straight-curve $-1 -93.788077825797018 -41.259692932759684 0 0 0 -1 I I #
straight-curve $-1 -86.07003915704658 -41.259692932759684 19.242566760784094 -1 0 0 I I #
coedge $-1 $647 $479 $635 $728 forward $633 $-1 #
vertex $-1 $638 $734 #
straight-curve $-1 0 -48.59320912878983 19.242566760784094 1 0 0 I I #
point $-1 -78.352000488296142 -48.59320912878983 19.242566760784094 #
coedge $-1 $483 $643 $485 $649 reversed $633 $-1 #
straight-curve $-1 -78.352000488296142 -48.59320912878983 0 0 0 1 I I #
edge $-1 $487 -7.7180386687504381 $729 7.7180386687504381 $647 $735 forward 7 unknown #
point $-1 -78.352000488296142 -48.59320912878983 -19.242566760784094 #
straight-curve $-1 -86.07003915704658 -41.259692932759684 -19.242566760784094 1 0 0 I I #
plane-surface $-1 0 0 19.242566760784094 0 0 1 1 0 0 forward_v I I I I #
coedge $-1 $736 $737 $498 $657 forward $493 $-1 #
coedge $-1 $737 $736 $495 $655 reversed $493 $-1 #
edge $-1 $665 -19.242566760784094 $667 19.242566760784094 $654 $738 forward 7 unknown #
coedge $-1 $497 $496 $736 $739 forward $205 $-1 #
edge $-1 $661 -19.242566760784094 $658 19.242566760784094 $653 $740 forward 7 unknown #
vertex $-1 $657 $741 #
straight-curve $-1 86.07003915704658 -48.59320912878983 -19.242566760784094 -1 0 0 I I #
coedge $-1 $506 $500 $737 $742 forward $507 $-1 #
vertex $-1 $742 $743 #
straight-curve $-1 86.07003915704658 -48.59320912878983 19.242566760784094 1 0 0 I I #
point $-1 78.352000488296142 -48.59320912878983 19.242566760784094 #
point $-1 78.352000488296142 -48.59320912878983 -19.242566760784094 #
vertex $-1 $742 $744 #
straight-curve $-1 86.07003915704658 -41.259692932759684 19.242566760784094 -1 0 0 I I #
vertex $-1 $739 $745 #
straight-curve $-1 86.07003915704658 -41.259692932759684 -19.242566760784094 1 0 0 I I #
edge $-1 $670 71.22548466010025 $673 90.418977227051514 $514 $746 forward 7 unknown #
vertex $-1 $528 $747 #
straight-curve $-1 -34.736620018338314 42.19371803787071 19.242566760784086 0 1 0 I I #
edge $-1 $673 13.821668934280602 $525 28.008233233834822 $524 $748 forward 7 unknown #
vertex $-1 $672 $749 #
straight-curve $-1 -34.736620018338314 -22.484436876150525 66.330052853879721 0 -0.7313536940579346 0.68199836817093118 I I #
point $-1 -34.736620018338314 28.010708721405969 19.242566760784094 #
point $-1 -48.923184317892535 48.593209128789837 0.049074193832822743 #
straight-curve $-1 0 48.59320912878983 19.242566760784094 -1 0 0 I I #
vertex $-1 $531 $750 #
point $-1 -43.369880232305619 35.955061986158739 7.1290816902792535 #
vertex $-1 $535 $751 #
point $-1 -37.289924103925237 35.955061986158739 7.1290816902792535 #
coedge $-1 $550 $549 $542 $683 forward $539 $-1 #
edge $-1 $684 71.22548466010025 $687 90.418977227051514 $682 $752 forward 7 unknown #
vertex $-1 $554 $753 #
straight-curve $-1 -6.8500185729280201 42.19371803787071 19.242566760784086 0 1 0 I I #
edge $-1 $687 -0.12163178842454592 $551 14.064932511129676 $550 $754 forward 7 unknown #
vertex $-1 $686 $755 #
straight-curve $-1 -6.8500185729280201 -22.484436876150525 66.330052853879721 0 -0.7313536940579346 0.68199836817093118 I I #
point $-1 -6.8500185729280201 28.010708721405969 19.242566760784094 #
point $-1 -21.036582872482242 48.593209128789837 0.049074193832822743 #
straight-curve $-1 0 48.59320912878983 19.242566760784094 -1 0 0 I I #
vertex $-1 $557 $756 #
point $-1 -15.483278786895326 35.955061986158739 7.1290816902792535 #
vertex $-1 $561 $757 #
point $-1 -9.4033226585149521 35.955061986158739 7.1290816902792535 #
coedge $-1 $576 $575 $568 $697 forward $565 $-1 #
edge $-1 $698 71.22548466010025 $701 90.418977227051514 $696 $758 forward 7 unknown #
vertex $-1 $580 $759 #
straight-curve $-1 21.036582872482271 42.19371803787071 19.242566760784086 0 1 0 I I #
edge $-1 $701 -14.06493251112969 $577 0.12163178842453171 $576 $760 forward 7 unknown #
vertex $-1 $700 $761 #
straight-curve $-1 21.036582872482271 -22.484436876150525 66.330052853879721 0 -0.7313536940579346 0.68199836817093118 I I #
point $-1 21.036582872482271 28.010708721405969 19.242566760784094 #
point $-1 6.8500185729280485 48.593209128789837 0.049074193832822743 #
straight-curve $-1 0 48.59320912878983 19.242566760784094 -1 0 0 I I #
vertex $-1 $583 $762 #
point $-1 12.403322658514966 35.955061986158739 7.1290816902792535 #
vertex $-1 $587 $763 #
point $-1 18.48327878689534 35.955061986158739 7.1290816902792535 #
coedge $-1 $602 $601 $594 $711 forward $591 $-1 #
edge $-1 $712 71.22548466010025 $715 90.418977227051514 $710 $764 forward 7 unknown #
vertex $-1 $606 $765 #
straight-curve $-1 48.923184317892563 42.19371803787071 19.242566760784086 0 1 0 I I #
edge $-1 $715 -28.008233233834837 $603 -13.821668934280616 $602 $766 forward 7 unknown #
vertex $-1 $714 $767 #
straight-curve $-1 48.923184317892563 -22.484436876150525 66.330052853879721 0 -0.7313536940579346 0.68199836817093118 I I #
point $-1 48.923184317892563 28.010708721405969 19.242566760784094 #
point $-1 34.736620018338343 48.593209128789837 0.049074193832822743 #
straight-curve $-1 0 48.59320912878983 19.242566760784094 -1 0 0 I I #
vertex $-1 $609 $768 #
point $-1 40.289924103925259 35.955061986158739 7.1290816902792535 #
vertex $-1 $613 $769 #
point $-1 46.369880232305633 35.955061986158739 7.1290816902792535 #
straight-curve $-1 -78.352000488296142 48.59320912878983 0 0 0 -1 I I #
point $-1 -78.352000488296142 -48.59320912878983 -19.242566760784094 #
straight-curve $-1 -78.352000488296142 0 -19.242566760784094 0 1 0 I I #
point $-1 -78.352000488296142 48.59320912878983 -19.242566760784094 #
edge $-1 $644 -19.242566760784094 $729 19.242566760784094 $635 $770 forward 7 unknown #
vertex $-1 $637 $771 #
straight-curve $-1 -93.788077825797018 -44.926451030774757 -19.242566760784094 0 1 0 I I #
straight-curve $-1 -93.788077825797018 -44.926451030774757 19.242566760784094 0 -1 0 I I #
point $-1 -93.788077825797018 -41.259692932759684 19.242566760784094 #
point $-1 -93.788077825797018 -41.259692932759684 -19.242566760784094 #
point $-1 -93.788077825797018 -48.59320912878983 19.242566760784094 #
straight-curve $-1 -86.07003915704658 -48.59320912878983 -19.242566760784094 -1 0 0 I I #
coedge $-1 $654 $653 $656 $739 reversed $493 $-1 #
coedge $-1 $653 $654 $660 $742 reversed $493 $-1 #
straight-curve $-1 93.788077825797018 -41.259692932759684 0 0 0 -1 I I #
edge $-1 $667 -3.6667580980150731 $658 3.6667580980150731 $736 $772 forward 7 unknown #
straight-curve $-1 93.788077825797018 -48.59320912878983 0 0 0 -1 I I #
point $-1 93.788077825797018 -48.59320912878983 -19.242566760784094 #
edge $-1 $661 -3.6667580980150731 $665 3.6667580980150731 $737 $773 forward 7 unknown #
point $-1 93.788077825797018 -48.59320912878983 19.242566760784094 #
point $-1 93.788077825797018 -41.259692932759684 19.242566760784094 #
point $-1 93.788077825797018 -41.259692932759684 -19.242566760784094 #
straight-curve $-1 -34.736620018338314 48.59320912878983 90.468051420884336 0 0 -1 I I #
point $-1 -34.736620018338314 48.59320912878983 19.242566760784094 #
straight-curve $-1 -20.914951084057712 48.59320912878983 0.049074193832829849 -1 0 0 I I #
point $-1 -34.736620018338314 48.593209128789837 0.049074193832822743 #
point $-1 -44.869880232305619 34.93206443390234 6.0320511491923519 #
point $-1 -38.789924103925237 34.93206443390234 6.0320511491923519 #
straight-curve $-1 -6.8500185729280201 48.59320912878983 90.468051420884336 0 0 -1 I I #
point $-1 -6.8500185729280201 48.59320912878983 19.242566760784094 #
straight-curve $-1 -6.971650361352566 48.59320912878983 0.049074193832829849 -1 0 0 I I #
point $-1 -6.8500185729280201 48.593209128789837 0.049074193832822743 #
point $-1 -16.983278786895326 34.93206443390234 6.0320511491923519 #
point $-1 -10.903322658514952 34.93206443390234 6.0320511491923519 #
straight-curve $-1 21.036582872482271 48.59320912878983 90.468051420884336 0 0 -1 I I #
point $-1 21.036582872482271 48.59320912878983 19.242566760784094 #
straight-curve $-1 6.9716503613525802 48.59320912878983 0.049074193832829849 -1 0 0 I I #
point $-1 21.036582872482271 48.593209128789837 0.049074193832822743 #
point $-1 10.903322658514966 34.93206443390234 6.0320511491923519 #
point $-1 16.98327878689534 34.93206443390234 6.0320511491923519 #
straight-curve $-1 48.923184317892563 48.59320912878983 90.468051420884336 0 0 -1 I I #
point $-1 48.923184317892563 48.59320912878983 19.242566760784094 #
straight-curve $-1 20.914951084057726 48.59320912878983 0.049074193832829849 -1 0 0 I I #
point $-1 48.923184317892563 48.593209128789837 0.049074193832822743 #
point $-1 38.789924103925259 34.93206443390234 6.0320511491923519 #
point $-1 44.869880232305633 34.93206443390234 6.0320511491923519 #
straight-curve $-1 -93.788077825797018 -48.59320912878983 0 0 0 -1 I I #
point $-1 -93.788077825797018 -48.59320912878983 -19.242566760784094 #
straight-curve $-1 93.788077825797018 -44.926451030774757 -19.242566760784094 0 -1 0 I I #
straight-curve $-1 93.788077825797018 -44.926451030774757 19.242566760784094 0 1 0 I I #
End-of-ACIS-data 