500 0 12 0           
7 Unknown 11 ACIS 5.0 NT 24 Fri Mar 26 18:43:20 1999 
-1 9.9999999999999995e-007 1e-010 
body $-1 $12 $-1 $13 #
body $-1 $14 $-1 $15 #
body $-1 $16 $-1 $17 #
body $-1 $18 $-1 $19 #
body $-1 $20 $-1 $21 #
body $-1 $22 $-1 $23 #
body $-1 $24 $-1 $25 #
body $-1 $26 $-1 $27 #
body $-1 $28 $-1 $29 #
body $-1 $30 $-1 $31 #
body $-1 $32 $-1 $33 #
body $-1 $34 $-1 $35 #
lump $-1 $-1 $36 $0 #
transform $-1 1 0 0 0 1 0 0 0 1 45.029450361644336 25.819340167993595 9.9694471187314004 1 rotate no_reflect no_shear #
lump $-1 $-1 $37 $1 #
transform $-1 1 0 0 0 1 0 0 0 1 -3.4077911171838928 25.819340167993595 4.1922764538891055 1 rotate no_reflect no_shear #
lump $-1 $-1 $38 $2 #
transform $-1 1 0 0 0 0.52991925155115449 0.84804810408105047 0 -0.84804810408105047 0.52991925155115449 21.548341877097197 -76.374280014008505 63.074417278165605 1 rotate no_reflect no_shear #
lump $-1 $-1 $39 $3 #
transform $-1 1 0 0 0 -0.52991925155115449 -0.84804810408105047 0 0.84804810408105047 -0.52991925155115449 21.548341877097197 4.4619501156320851 15.752348867884583 1 rotate no_reflect no_shear #
lump $-1 $-1 $40 $4 #
transform $-1 1 0 0 0 0.52991925155115449 0.84804810408105047 0 -0.84804810408105047 0.52991925155115449 63.170001121557647 -76.374280014008505 63.074417278165605 1 rotate no_reflect no_shear #
lump $-1 $-1 $41 $5 #
transform $-1 1 0 0 0 -0.52991925155115449 -0.84804810408105047 0 0.84804810408105047 -0.52991925155115449 63.170001121557647 4.4619501156320851 15.752348867884583 1 rotate no_reflect no_shear #
lump $-1 $-1 $42 $6 #
transform $-1 1 0 0 0 0.75470957328743171 -0.6560590369687036 0 0.6560590369687036 0.75470957328743171 24.936692959688699 71.750429613469066 112.7233632334729 1 rotate no_reflect no_shear #
lump $-1 $-1 $43 $7 #
transform $-1 1 0 0 0 -0.75470957328743171 0.6560590369687036 0 -0.6560590369687036 -0.75470957328743171 21.499828937418226 43.747801100918885 12.326542123928402 1 rotate no_reflect no_shear #
lump $-1 $-1 $44 $8 #
transform $-1 1 0 0 0 -0.75470957328743171 0.6560590369687036 0 -0.6560590369687036 -0.75470957328743171 28.373556981959172 43.747801100918885 12.326542123928402 1 rotate no_reflect no_shear #
lump $-1 $-1 $45 $9 #
transform $-1 1 0 0 0 0.75470957328743171 -0.6560590369687036 0 0.6560590369687036 0.75470957328743171 66.558352204149145 71.750429613469066 112.7233632334729 1 rotate no_reflect no_shear #
lump $-1 $-1 $46 $10 #
transform $-1 1 0 0 0 -0.75470957328743171 0.6560590369687036 0 -0.6560590369687036 -0.75470957328743171 63.121488181878675 43.747801100918885 12.326542123928402 1 rotate no_reflect no_shear #
lump $-1 $-1 $47 $11 #
transform $-1 1 0 0 0 -0.75470957328743171 0.6560590369687036 0 -0.6560590369687036 -0.75470957328743171 69.995216226419615 43.747801100918885 12.326542123928402 1 rotate no_reflect no_shear #
shell $-1 $-1 $-1 $48 $-1 $12 #
shell $-1 $-1 $-1 $49 $-1 $14 #
shell $-1 $-1 $-1 $50 $-1 $16 #
shell $-1 $-1 $-1 $51 $-1 $18 #
shell $-1 $-1 $-1 $52 $-1 $20 #
shell $-1 $-1 $-1 $53 $-1 $22 #
shell $-1 $-1 $-1 $54 $-1 $24 #
shell $-1 $-1 $-1 $55 $-1 $26 #
shell $-1 $-1 $-1 $56 $-1 $28 #
shell $-1 $-1 $-1 $57 $-1 $30 #
shell $-1 $-1 $-1 $58 $-1 $32 #
shell $-1 $-1 $-1 $59 $-1 $34 #
face $-1 $60 $61 $36 $-1 $62 forward single #
face $-1 $63 $64 $37 $-1 $65 forward single #
face $-1 $66 $67 $38 $-1 $68 forward single #
face $-1 $69 $70 $39 $-1 $71 forward single #
face $-1 $72 $73 $40 $-1 $74 forward single #
face $-1 $75 $76 $41 $-1 $77 forward single #
face $-1 $78 $79 $42 $-1 $80 forward single #
face $-1 $81 $82 $43 $-1 $83 forward single #
face $-1 $84 $85 $44 $-1 $86 forward single #
face $-1 $87 $88 $45 $-1 $89 forward single #
face $-1 $90 $91 $46 $-1 $92 forward single #
face $-1 $93 $94 $47 $-1 $95 forward single #
face $-1 $96 $97 $36 $-1 $98 reversed single #
loop $-1 $-1 $99 $48 #
plane-surface $-1 0 0 9.9694471187314004 0 0 1 1 0 0 forward_v I I I I #
face $-1 $100 $101 $37 $-1 $102 reversed single #
loop $-1 $-1 $103 $49 #
plane-surface $-1 0 0 2.3520252373227053 0 0 1 1 0 0 forward_v I I I I #
face $-1 $104 $105 $38 $-1 $106 reversed single #
loop $-1 $-1 $107 $50 #
plane-surface $-1 0 0 90.058900723288673 0 0 1 1 0 0 forward_v I I I I #
face $-1 $108 $109 $39 $-1 $110 forward single #
loop $-1 $111 $112 $51 #
cone-surface $-1 0 0 -2.0354930265205855 0 0 1 1 0 0 1 I I 0 1 1 forward I I I I #
face $-1 $113 $114 $40 $-1 $115 reversed single #
loop $-1 $-1 $116 $52 #
plane-surface $-1 0 0 90.058900723288673 0 0 1 1 0 0 forward_v I I I I #
face $-1 $117 $118 $41 $-1 $119 forward single #
loop $-1 $120 $121 $53 #
cone-surface $-1 0 0 -2.0354930265205855 0 0 1 1 0 0 1 I I 0 1 1 forward I I I I #
face $-1 $122 $123 $42 $-1 $124 reversed single #
loop $-1 $-1 $125 $54 #
plane-surface $-1 0 0 90.058900723288673 0 0 1 1 0 0 forward_v I I I I #
face $-1 $126 $127 $43 $-1 $128 forward single #
loop $-1 $129 $130 $55 #
cone-surface $-1 0 0 -2.5414593951231419 0 0 1 2 0 0 1 I I 0 1 2 forward I I I I #
face $-1 $131 $132 $44 $-1 $133 forward single #
loop $-1 $134 $135 $56 #
cone-surface $-1 0 0 -2.5414593951231419 0 0 1 2 0 0 1 I I 0 1 2 forward I I I I #
face $-1 $136 $137 $45 $-1 $138 reversed single #
loop $-1 $-1 $139 $57 #
plane-surface $-1 0 0 90.058900723288673 0 0 1 1 0 0 forward_v I I I I #
face $-1 $140 $141 $46 $-1 $142 forward single #
loop $-1 $143 $144 $58 #
cone-surface $-1 0 0 -2.5414593951231419 0 0 1 2 0 0 1 I I 0 1 2 forward I I I I #
face $-1 $145 $146 $47 $-1 $147 forward single #
loop $-1 $148 $149 $59 #
cone-surface $-1 0 0 -2.5414593951231419 0 0 1 2 0 0 1 I I 0 1 2 forward I I I I #
face $-1 $150 $151 $36 $-1 $152 reversed single #
loop $-1 $-1 $153 $60 #
plane-surface $-1 0 0 -9.9694471187314004 0 0 1 1 0 0 forward_v I I I I #
coedge $-1 $154 $155 $156 $157 forward $61 $-1 #
face $-1 $158 $159 $37 $-1 $160 reversed single #
loop $-1 $-1 $161 $63 #
plane-surface $-1 0 0 -2.3520252373227053 0 0 1 1 0 0 forward_v I I I I #
coedge $-1 $162 $163 $164 $165 forward $64 $-1 #
face $-1 $166 $167 $38 $-1 $168 reversed single #
loop $-1 $-1 $169 $66 #
plane-surface $-1 0 0 -90.058900723288673 0 0 1 1 0 0 forward_v I I I I #
coedge $-1 $170 $171 $172 $173 forward $67 $-1 #
face $-1 $-1 $174 $39 $-1 $175 forward single #
loop $-1 $-1 $176 $69 #
plane-surface $-1 0 0 -3.5709860530411701 0 0 -1 -1 0 0 forward_v I I I I #
loop $-1 $-1 $177 $51 #
coedge $-1 $112 $112 $176 $178 reversed $70 $-1 #
face $-1 $179 $180 $40 $-1 $181 reversed single #
loop $-1 $-1 $182 $72 #
plane-surface $-1 0 0 -90.058900723288673 0 0 1 1 0 0 forward_v I I I I #
coedge $-1 $183 $184 $185 $186 forward $73 $-1 #
face $-1 $-1 $187 $41 $-1 $188 forward single #
loop $-1 $-1 $189 $75 #
plane-surface $-1 0 0 -3.5709860530411701 0 0 -1 -1 0 0 forward_v I I I I #
loop $-1 $-1 $190 $53 #
coedge $-1 $121 $121 $189 $191 reversed $76 $-1 #
face $-1 $192 $193 $42 $-1 $194 reversed single #
loop $-1 $-1 $195 $78 #
plane-surface $-1 0 0 -90.058900723288673 0 0 1 1 0 0 forward_v I I I I #
coedge $-1 $196 $197 $198 $199 forward $79 $-1 #
face $-1 $-1 $200 $43 $-1 $201 forward single #
loop $-1 $-1 $202 $81 #
plane-surface $-1 0 0 -4.0829187902462838 0 0 -1 -1 0 0 forward_v I I I I #
loop $-1 $-1 $203 $55 #
coedge $-1 $130 $130 $202 $204 reversed $82 $-1 #
face $-1 $-1 $205 $44 $-1 $206 forward single #
loop $-1 $-1 $207 $84 #
plane-surface $-1 0 0 -4.0829187902462838 0 0 -1 -1 0 0 forward_v I I I I #
loop $-1 $-1 $208 $56 #
coedge $-1 $135 $135 $207 $209 reversed $85 $-1 #
face $-1 $210 $211 $45 $-1 $212 reversed single #
loop $-1 $-1 $213 $87 #
plane-surface $-1 0 0 -90.058900723288673 0 0 1 1 0 0 forward_v I I I I #
coedge $-1 $214 $215 $216 $217 forward $88 $-1 #
face $-1 $-1 $218 $46 $-1 $219 forward single #
loop $-1 $-1 $220 $90 #
plane-surface $-1 0 0 -4.0829187902462838 0 0 -1 -1 0 0 forward_v I I I I #
loop $-1 $-1 $221 $58 #
coedge $-1 $144 $144 $220 $222 reversed $91 $-1 #
face $-1 $-1 $223 $47 $-1 $224 forward single #
loop $-1 $-1 $225 $93 #
plane-surface $-1 0 0 -4.0829187902462838 0 0 -1 -1 0 0 forward_v I I I I #
loop $-1 $-1 $226 $59 #
coedge $-1 $149 $149 $225 $227 reversed $94 $-1 #
face $-1 $228 $229 $36 $-1 $230 reversed single #
loop $-1 $-1 $231 $96 #
plane-surface $-1 0 -25.819340167993595 0 0 1 0 0 0 1 forward_v I I I I #
coedge $-1 $232 $233 $234 $235 forward $97 $-1 #
coedge $-1 $236 $99 $237 $238 forward $61 $-1 #
coedge $-1 $99 $236 $239 $240 forward $61 $-1 #
coedge $-1 $241 $242 $99 $157 reversed $243 $-1 #
edge $-1 $244 -25.819340167993595 $245 25.819340167993595 $156 $246 forward 7 unknown #
face $-1 $247 $248 $37 $-1 $249 reversed single #
loop $-1 $-1 $250 $100 #
plane-surface $-1 0 -25.819340167993595 0 0 1 0 0 0 1 forward_v I I I I #
coedge $-1 $251 $252 $253 $254 forward $101 $-1 #
coedge $-1 $255 $103 $256 $257 forward $64 $-1 #
coedge $-1 $103 $255 $258 $259 forward $64 $-1 #
coedge $-1 $260 $261 $103 $165 reversed $262 $-1 #
edge $-1 $263 -25.819340167993595 $264 25.819340167993595 $164 $265 forward 7 unknown #
face $-1 $266 $267 $38 $-1 $268 reversed single #
loop $-1 $-1 $269 $104 #
plane-surface $-1 0 -180.11780144657735 0 0 1 0 0 0 1 forward_v I I I I #
coedge $-1 $270 $271 $272 $273 forward $105 $-1 #
coedge $-1 $274 $107 $275 $276 forward $67 $-1 #
coedge $-1 $107 $274 $277 $278 forward $67 $-1 #
coedge $-1 $279 $280 $107 $173 reversed $281 $-1 #
edge $-1 $282 -180.11780144657735 $283 180.11780144657735 $172 $284 forward 7 unknown #
loop $-1 $285 $286 $108 #
cone-surface $-1 0 0 0 0 0 1 0.5 0 0 1 I I -0.70710678118654746 0.70710678118654746 0.5 forward I I I I #
coedge $-1 $176 $176 $112 $178 forward $109 $-1 #
coedge $-1 $177 $177 $286 $287 forward $111 $-1 #
edge $-1 $288 0 $288 6.2831853071796004 $176 $289 forward 7 unknown #
face $-1 $290 $291 $40 $-1 $292 reversed single #
loop $-1 $-1 $293 $113 #
plane-surface $-1 0 -180.11780144657735 0 0 1 0 0 0 1 forward_v I I I I #
coedge $-1 $294 $295 $296 $297 forward $114 $-1 #
coedge $-1 $298 $116 $299 $300 forward $73 $-1 #
coedge $-1 $116 $298 $301 $302 forward $73 $-1 #
coedge $-1 $303 $304 $116 $186 reversed $305 $-1 #
edge $-1 $306 -180.11780144657735 $307 180.11780144657735 $185 $308 forward 7 unknown #
loop $-1 $309 $310 $117 #
cone-surface $-1 0 0 0 0 0 1 0.5 0 0 1 I I -0.70710678118654746 0.70710678118654746 0.5 forward I I I I #
coedge $-1 $189 $189 $121 $191 forward $118 $-1 #
coedge $-1 $190 $190 $310 $311 forward $120 $-1 #
edge $-1 $312 0 $312 6.2831853071796004 $189 $313 forward 7 unknown #
face $-1 $314 $315 $42 $-1 $316 reversed single #
loop $-1 $-1 $317 $122 #
plane-surface $-1 0 -180.11780144657735 0 0 1 0 0 0 1 forward_v I I I I #
coedge $-1 $318 $319 $320 $321 forward $123 $-1 #
coedge $-1 $322 $125 $323 $324 forward $79 $-1 #
coedge $-1 $125 $322 $325 $326 forward $79 $-1 #
coedge $-1 $327 $328 $125 $199 reversed $329 $-1 #
edge $-1 $330 -180.11780144657735 $331 180.11780144657735 $198 $332 forward 7 unknown #
loop $-1 $333 $334 $126 #
cone-surface $-1 0 0 0 0 0 1 1 0 0 1 I I -0.70710678118654746 0.70710678118654746 1 forward I I I I #
coedge $-1 $202 $202 $130 $204 forward $127 $-1 #
coedge $-1 $203 $203 $334 $335 forward $129 $-1 #
edge $-1 $336 0 $336 6.2831853071796004 $202 $337 forward 7 unknown #
loop $-1 $338 $339 $131 #
cone-surface $-1 0 0 0 0 0 1 1 0 0 1 I I -0.70710678118654746 0.70710678118654746 1 forward I I I I #
coedge $-1 $207 $207 $135 $209 forward $132 $-1 #
coedge $-1 $208 $208 $339 $340 forward $134 $-1 #
edge $-1 $341 0 $341 6.2831853071796004 $207 $342 forward 7 unknown #
face $-1 $343 $344 $45 $-1 $345 reversed single #
loop $-1 $-1 $346 $136 #
plane-surface $-1 0 -180.11780144657735 0 0 1 0 0 0 1 forward_v I I I I #
coedge $-1 $347 $348 $349 $350 forward $137 $-1 #
coedge $-1 $351 $139 $352 $353 forward $88 $-1 #
coedge $-1 $139 $351 $354 $355 forward $88 $-1 #
coedge $-1 $356 $357 $139 $217 reversed $358 $-1 #
edge $-1 $359 -180.11780144657735 $360 180.11780144657735 $216 $361 forward 7 unknown #
loop $-1 $362 $363 $140 #
cone-surface $-1 0 0 0 0 0 1 1 0 0 1 I I -0.70710678118654746 0.70710678118654746 1 forward I I I I #
coedge $-1 $220 $220 $144 $222 forward $141 $-1 #
coedge $-1 $221 $221 $363 $364 forward $143 $-1 #
edge $-1 $365 0 $365 6.2831853071796004 $220 $366 forward 7 unknown #
loop $-1 $367 $368 $145 #
cone-surface $-1 0 0 0 0 0 1 1 0 0 1 I I -0.70710678118654746 0.70710678118654746 1 forward I I I I #
coedge $-1 $225 $225 $149 $227 forward $146 $-1 #
coedge $-1 $226 $226 $368 $369 forward $148 $-1 #
edge $-1 $370 0 $370 6.2831853071796004 $225 $371 forward 7 unknown #
face $-1 $372 $373 $36 $-1 $374 reversed single #
loop $-1 $-1 $375 $150 #
plane-surface $-1 -45.029450361644336 0 0 1 0 0 0 0 -1 forward_v I I I I #
coedge $-1 $376 $239 $377 $378 forward $151 $-1 #
coedge $-1 $379 $153 $376 $380 forward $97 $-1 #
coedge $-1 $153 $379 $381 $382 forward $97 $-1 #
coedge $-1 $242 $241 $153 $235 reversed $243 $-1 #
edge $-1 $383 -25.819340167993595 $384 25.819340167993595 $234 $385 forward 7 unknown #
coedge $-1 $155 $154 $386 $387 forward $61 $-1 #
coedge $-1 $388 $389 $154 $238 reversed $373 $-1 #
edge $-1 $245 -45.029450361644336 $390 45.029450361644336 $237 $391 forward 7 unknown #
coedge $-1 $231 $392 $155 $240 reversed $151 $-1 #
edge $-1 $393 -45.029450361644336 $244 45.029450361644336 $239 $394 forward 7 unknown #
coedge $-1 $234 $156 $392 $395 forward $243 $-1 #
coedge $-1 $156 $234 $388 $396 reversed $243 $-1 #
loop $-1 $-1 $241 $372 #
vertex $-1 $157 $397 #
vertex $-1 $157 $398 #
straight-curve $-1 45.029450361644336 0 9.9694471187314004 0 1 0 I I #
face $-1 $399 $400 $37 $-1 $401 reversed single #
loop $-1 $-1 $402 $158 #
plane-surface $-1 -3.4077911171838928 0 0 1 0 0 0 0 -1 forward_v I I I I #
coedge $-1 $403 $258 $404 $405 forward $159 $-1 #
coedge $-1 $406 $161 $403 $407 forward $101 $-1 #
coedge $-1 $161 $406 $408 $409 forward $101 $-1 #
coedge $-1 $261 $260 $161 $254 reversed $262 $-1 #
edge $-1 $410 -25.819340167993595 $411 25.819340167993595 $253 $412 forward 7 unknown #
coedge $-1 $163 $162 $413 $414 forward $64 $-1 #
coedge $-1 $415 $416 $162 $257 reversed $400 $-1 #
edge $-1 $264 -3.4077911171838928 $417 3.4077911171838928 $256 $418 forward 7 unknown #
coedge $-1 $250 $419 $163 $259 reversed $159 $-1 #
edge $-1 $420 -3.4077911171838928 $263 3.4077911171838928 $258 $421 forward 7 unknown #
coedge $-1 $253 $164 $419 $422 forward $262 $-1 #
coedge $-1 $164 $253 $415 $423 reversed $262 $-1 #
loop $-1 $-1 $260 $399 #
vertex $-1 $165 $424 #
vertex $-1 $165 $425 #
straight-curve $-1 3.4077911171838928 0 2.3520252373227053 0 1 0 I I #
face $-1 $426 $427 $38 $-1 $428 reversed single #
loop $-1 $-1 $429 $166 #
plane-surface $-1 -8.73442592790677 0 0 1 0 0 0 0 -1 forward_v I I I I #
coedge $-1 $430 $277 $431 $432 forward $167 $-1 #
coedge $-1 $433 $169 $430 $434 forward $105 $-1 #
coedge $-1 $169 $433 $435 $436 forward $105 $-1 #
coedge $-1 $280 $279 $169 $273 reversed $281 $-1 #
edge $-1 $437 -180.11780144657735 $438 180.11780144657735 $272 $439 forward 7 unknown #
coedge $-1 $171 $170 $440 $441 forward $67 $-1 #
coedge $-1 $442 $443 $170 $276 reversed $427 $-1 #
edge $-1 $283 -8.73442592790677 $444 8.73442592790677 $275 $445 forward 7 unknown #
coedge $-1 $269 $446 $171 $278 reversed $167 $-1 #
edge $-1 $447 -8.73442592790677 $282 8.73442592790677 $277 $448 forward 7 unknown #
coedge $-1 $272 $172 $446 $449 forward $281 $-1 #
coedge $-1 $172 $272 $442 $450 reversed $281 $-1 #
loop $-1 $-1 $279 $426 #
vertex $-1 $173 $451 #
vertex $-1 $173 $452 #
straight-curve $-1 8.73442592790677 0 90.058900723288673 0 1 0 I I #
loop $-1 $-1 $453 $108 #
coedge $-1 $286 $286 $177 $287 reversed $174 $-1 #
edge $-1 $454 0 $454 6.2831853071796004 $286 $455 forward 7 unknown #
vertex $-1 $178 $456 #
ellipse-curve $-1 0 0 -3.5709860530411701 0 0 -1 1 0 0 1 I I #
face $-1 $457 $458 $40 $-1 $459 reversed single #
loop $-1 $-1 $460 $179 #
plane-surface $-1 -8.73442592790677 0 0 1 0 0 0 0 -1 forward_v I I I I #
coedge $-1 $461 $301 $462 $463 forward $180 $-1 #
coedge $-1 $464 $182 $461 $465 forward $114 $-1 #
coedge $-1 $182 $464 $466 $467 forward $114 $-1 #
coedge $-1 $304 $303 $182 $297 reversed $305 $-1 #
edge $-1 $468 -180.11780144657735 $469 180.11780144657735 $296 $470 forward 7 unknown #
coedge $-1 $184 $183 $471 $472 forward $73 $-1 #
coedge $-1 $473 $474 $183 $300 reversed $458 $-1 #
edge $-1 $307 -8.73442592790677 $475 8.73442592790677 $299 $476 forward 7 unknown #
coedge $-1 $293 $477 $184 $302 reversed $180 $-1 #
edge $-1 $478 -8.73442592790677 $306 8.73442592790677 $301 $479 forward 7 unknown #
coedge $-1 $296 $185 $477 $480 forward $305 $-1 #
coedge $-1 $185 $296 $473 $481 reversed $305 $-1 #
loop $-1 $-1 $303 $457 #
vertex $-1 $186 $482 #
vertex $-1 $186 $483 #
straight-curve $-1 8.73442592790677 0 90.058900723288673 0 1 0 I I #
loop $-1 $-1 $484 $117 #
coedge $-1 $310 $310 $190 $311 reversed $187 $-1 #
edge $-1 $485 0 $485 6.2831853071796004 $310 $486 forward 7 unknown #
vertex $-1 $191 $487 #
ellipse-curve $-1 0 0 -3.5709860530411701 0 0 -1 1 0 0 1 I I #
face $-1 $488 $489 $42 $-1 $490 reversed single #
loop $-1 $-1 $491 $192 #
plane-surface $-1 -8.0193493852977724 0 0 1 0 0 0 0 -1 forward_v I I I I #
coedge $-1 $492 $325 $493 $494 forward $193 $-1 #
coedge $-1 $495 $195 $492 $496 forward $123 $-1 #
coedge $-1 $195 $495 $497 $498 forward $123 $-1 #
coedge $-1 $328 $327 $195 $321 reversed $329 $-1 #
edge $-1 $499 -180.11780144657735 $500 180.11780144657735 $320 $501 forward 7 unknown #
coedge $-1 $197 $196 $502 $503 forward $79 $-1 #
coedge $-1 $504 $505 $196 $324 reversed $489 $-1 #
edge $-1 $331 -8.0193493852977724 $506 8.0193493852977724 $323 $507 forward 7 unknown #
coedge $-1 $317 $508 $197 $326 reversed $193 $-1 #
edge $-1 $509 -8.0193493852977724 $330 8.0193493852977724 $325 $510 forward 7 unknown #
coedge $-1 $320 $198 $508 $511 forward $329 $-1 #
coedge $-1 $198 $320 $504 $512 reversed $329 $-1 #
loop $-1 $-1 $327 $488 #
vertex $-1 $199 $513 #
vertex $-1 $199 $514 #
straight-curve $-1 8.0193493852977724 0 90.058900723288673 0 1 0 I I #
loop $-1 $-1 $515 $126 #
coedge $-1 $334 $334 $203 $335 reversed $200 $-1 #
edge $-1 $516 0 $516 6.2831853071796004 $334 $517 forward 7 unknown #
vertex $-1 $204 $518 #
ellipse-curve $-1 0 0 -4.0829187902462838 0 0 -1 2 0 0 1 I I #
loop $-1 $-1 $519 $131 #
coedge $-1 $339 $339 $208 $340 reversed $205 $-1 #
edge $-1 $520 0 $520 6.2831853071796004 $339 $521 forward 7 unknown #
vertex $-1 $209 $522 #
ellipse-curve $-1 0 0 -4.0829187902462838 0 0 -1 2 0 0 1 I I #
face $-1 $523 $524 $45 $-1 $525 reversed single #
loop $-1 $-1 $526 $210 #
plane-surface $-1 -8.0193493852977724 0 0 1 0 0 0 0 -1 forward_v I I I I #
coedge $-1 $527 $354 $528 $529 forward $211 $-1 #
coedge $-1 $530 $213 $527 $531 forward $137 $-1 #
coedge $-1 $213 $530 $532 $533 forward $137 $-1 #
coedge $-1 $357 $356 $213 $350 reversed $358 $-1 #
edge $-1 $534 -180.11780144657735 $535 180.11780144657735 $349 $536 forward 7 unknown #
coedge $-1 $215 $214 $537 $538 forward $88 $-1 #
coedge $-1 $539 $540 $214 $353 reversed $524 $-1 #
edge $-1 $360 -8.0193493852977724 $541 8.0193493852977724 $352 $542 forward 7 unknown #
coedge $-1 $346 $543 $215 $355 reversed $211 $-1 #
edge $-1 $544 -8.0193493852977724 $359 8.0193493852977724 $354 $545 forward 7 unknown #
coedge $-1 $349 $216 $543 $546 forward $358 $-1 #
coedge $-1 $216 $349 $539 $547 reversed $358 $-1 #
loop $-1 $-1 $356 $523 #
vertex $-1 $217 $548 #
vertex $-1 $217 $549 #
straight-curve $-1 8.0193493852977724 0 90.058900723288673 0 1 0 I I #
loop $-1 $-1 $550 $140 #
coedge $-1 $363 $363 $221 $364 reversed $218 $-1 #
edge $-1 $551 0 $551 6.2831853071796004 $363 $552 forward 7 unknown #
vertex $-1 $222 $553 #
ellipse-curve $-1 0 0 -4.0829187902462838 0 0 -1 2 0 0 1 I I #
loop $-1 $-1 $554 $145 #
coedge $-1 $368 $368 $226 $369 reversed $223 $-1 #
edge $-1 $555 0 $555 6.2831853071796004 $368 $556 forward 7 unknown #
vertex $-1 $227 $557 #
ellipse-curve $-1 0 0 -4.0829187902462838 0 0 -1 2 0 0 1 I I #
face $-1 $-1 $243 $36 $-1 $558 reversed single #
loop $-1 $-1 $388 $228 #
plane-surface $-1 0 25.819340167993595 0 0 -1 0 0 0 -1 forward_v I I I I #
coedge $-1 $559 $386 $389 $560 forward $229 $-1 #
coedge $-1 $392 $231 $232 $380 reversed $151 $-1 #
coedge $-1 $386 $559 $231 $378 reversed $229 $-1 #
edge $-1 $393 -9.9694471187314004 $561 9.9694471187314004 $377 $562 forward 7 unknown #
coedge $-1 $233 $232 $559 $563 forward $97 $-1 #
edge $-1 $384 -45.029450361644336 $561 45.029450361644336 $376 $564 forward 7 unknown #
coedge $-1 $389 $388 $233 $382 reversed $373 $-1 #
edge $-1 $565 -45.029450361644336 $383 45.029450361644336 $381 $566 forward 7 unknown #
vertex $-1 $235 $567 #
vertex $-1 $395 $568 #
straight-curve $-1 45.029450361644336 0 -9.9694471187314004 0 -1 0 I I #
coedge $-1 $375 $377 $236 $387 reversed $229 $-1 #
edge $-1 $390 -25.819340167993595 $393 25.819340167993595 $386 $569 forward 7 unknown #
coedge $-1 $381 $237 $242 $396 forward $373 $-1 #
coedge $-1 $237 $381 $375 $560 reversed $373 $-1 #
vertex $-1 $238 $570 #
straight-curve $-1 0 25.819340167993595 9.9694471187314004 -1 0 0 I I #
coedge $-1 $239 $376 $241 $395 reversed $151 $-1 #
vertex $-1 $387 $571 #
straight-curve $-1 0 -25.819340167993595 9.9694471187314004 1 0 0 I I #
edge $-1 $244 -9.9694471187314004 $384 9.9694471187314004 $241 $572 forward 7 unknown #
edge $-1 $245 -9.9694471187314004 $383 9.9694471187314004 $242 $573 forward 7 unknown #
point $-1 45.029450361644336 -25.819340167993595 9.9694471187314004 #
point $-1 45.029450361644336 25.819340167993595 9.9694471187314004 #
face $-1 $-1 $262 $37 $-1 $574 reversed single #
loop $-1 $-1 $415 $247 #
plane-surface $-1 0 25.819340167993595 0 0 -1 0 0 0 -1 forward_v I I I I #
coedge $-1 $575 $413 $416 $576 forward $248 $-1 #
coedge $-1 $419 $250 $251 $407 reversed $159 $-1 #
coedge $-1 $413 $575 $250 $405 reversed $248 $-1 #
edge $-1 $420 -2.3520252373227053 $577 2.3520252373227053 $404 $578 forward 7 unknown #
coedge $-1 $252 $251 $575 $579 forward $101 $-1 #
edge $-1 $411 -3.4077911171838928 $577 3.4077911171838928 $403 $580 forward 7 unknown #
coedge $-1 $416 $415 $252 $409 reversed $400 $-1 #
edge $-1 $581 -3.4077911171838928 $410 3.4077911171838928 $408 $582 forward 7 unknown #
vertex $-1 $254 $583 #
vertex $-1 $422 $584 #
straight-curve $-1 3.4077911171838928 0 -2.3520252373227053 0 -1 0 I I #
coedge $-1 $402 $404 $255 $414 reversed $248 $-1 #
edge $-1 $417 -25.819340167993595 $420 25.819340167993595 $413 $585 forward 7 unknown #
coedge $-1 $408 $256 $261 $423 forward $400 $-1 #
coedge $-1 $256 $408 $402 $576 reversed $400 $-1 #
vertex $-1 $257 $586 #
straight-curve $-1 0 25.819340167993595 2.3520252373227053 -1 0 0 I I #
coedge $-1 $258 $403 $260 $422 reversed $159 $-1 #
vertex $-1 $414 $587 #
straight-curve $-1 0 -25.819340167993595 2.3520252373227053 1 0 0 I I #
edge $-1 $263 -2.3520252373227053 $411 2.3520252373227053 $260 $588 forward 7 unknown #
edge $-1 $264 -2.3520252373227053 $410 2.3520252373227053 $261 $589 forward 7 unknown #
point $-1 3.4077911171838928 -25.819340167993595 2.3520252373227053 #
point $-1 3.4077911171838928 25.819340167993595 2.3520252373227053 #
face $-1 $-1 $281 $38 $-1 $590 reversed single #
loop $-1 $-1 $442 $266 #
plane-surface $-1 0 180.11780144657735 0 0 -1 0 0 0 -1 forward_v I I I I #
coedge $-1 $591 $440 $443 $592 forward $267 $-1 #
coedge $-1 $446 $269 $270 $434 reversed $167 $-1 #
coedge $-1 $440 $591 $269 $432 reversed $267 $-1 #
edge $-1 $447 -90.058900723288673 $593 90.058900723288673 $431 $594 forward 7 unknown #
coedge $-1 $271 $270 $591 $595 forward $105 $-1 #
edge $-1 $438 -8.73442592790677 $593 8.73442592790677 $430 $596 forward 7 unknown #
coedge $-1 $443 $442 $271 $436 reversed $427 $-1 #
edge $-1 $597 -8.73442592790677 $437 8.73442592790677 $435 $598 forward 7 unknown #
vertex $-1 $273 $599 #
vertex $-1 $449 $600 #
straight-curve $-1 8.73442592790677 0 -90.058900723288673 0 -1 0 I I #
coedge $-1 $429 $431 $274 $441 reversed $267 $-1 #
edge $-1 $444 -180.11780144657735 $447 180.11780144657735 $440 $601 forward 7 unknown #
coedge $-1 $435 $275 $280 $450 forward $427 $-1 #
coedge $-1 $275 $435 $429 $592 reversed $427 $-1 #
vertex $-1 $276 $602 #
straight-curve $-1 0 180.11780144657735 90.058900723288673 -1 0 0 I I #
coedge $-1 $277 $430 $279 $449 reversed $167 $-1 #
vertex $-1 $441 $603 #
straight-curve $-1 0 -180.11780144657735 90.058900723288673 1 0 0 I I #
edge $-1 $282 -90.058900723288673 $438 90.058900723288673 $279 $604 forward 7 unknown #
edge $-1 $283 -90.058900723288673 $437 90.058900723288673 $280 $605 forward 7 unknown #
point $-1 8.73442592790677 -180.11780144657735 90.058900723288673 #
point $-1 8.73442592790677 180.11780144657735 90.058900723288673 #
coedge $-1 $453 $453 $-1 $606 reversed $285 $-1 #
vertex $-1 $287 $607 #
ellipse-curve $-1 0 0 -0.5 0 0 -1 1 0 0 1 I I #
point $-1 1 0 -3.5709860530411701 #
face $-1 $-1 $305 $40 $-1 $608 reversed single #
loop $-1 $-1 $473 $290 #
plane-surface $-1 0 180.11780144657735 0 0 -1 0 0 0 -1 forward_v I I I I #
coedge $-1 $609 $471 $474 $610 forward $291 $-1 #
coedge $-1 $477 $293 $294 $465 reversed $180 $-1 #
coedge $-1 $471 $609 $293 $463 reversed $291 $-1 #
edge $-1 $478 -90.058900723288673 $611 90.058900723288673 $462 $612 forward 7 unknown #
coedge $-1 $295 $294 $609 $613 forward $114 $-1 #
edge $-1 $469 -8.73442592790677 $611 8.73442592790677 $461 $614 forward 7 unknown #
coedge $-1 $474 $473 $295 $467 reversed $458 $-1 #
edge $-1 $615 -8.73442592790677 $468 8.73442592790677 $466 $616 forward 7 unknown #
vertex $-1 $297 $617 #
vertex $-1 $480 $618 #
straight-curve $-1 8.73442592790677 0 -90.058900723288673 0 -1 0 I I #
coedge $-1 $460 $462 $298 $472 reversed $291 $-1 #
edge $-1 $475 -180.11780144657735 $478 180.11780144657735 $471 $619 forward 7 unknown #
coedge $-1 $466 $299 $304 $481 forward $458 $-1 #
coedge $-1 $299 $466 $460 $610 reversed $458 $-1 #
vertex $-1 $300 $620 #
straight-curve $-1 0 180.11780144657735 90.058900723288673 -1 0 0 I I #
coedge $-1 $301 $461 $303 $480 reversed $180 $-1 #
vertex $-1 $472 $621 #
straight-curve $-1 0 -180.11780144657735 90.058900723288673 1 0 0 I I #
edge $-1 $306 -90.058900723288673 $469 90.058900723288673 $303 $622 forward 7 unknown #
edge $-1 $307 -90.058900723288673 $468 90.058900723288673 $304 $623 forward 7 unknown #
point $-1 8.73442592790677 -180.11780144657735 90.058900723288673 #
point $-1 8.73442592790677 180.11780144657735 90.058900723288673 #
coedge $-1 $484 $484 $-1 $624 reversed $309 $-1 #
vertex $-1 $311 $625 #
ellipse-curve $-1 0 0 -0.5 0 0 -1 1 0 0 1 I I #
point $-1 1 0 -3.5709860530411701 #
face $-1 $-1 $329 $42 $-1 $626 reversed single #
loop $-1 $-1 $504 $314 #
plane-surface $-1 0 180.11780144657735 0 0 -1 0 0 0 -1 forward_v I I I I #
coedge $-1 $627 $502 $505 $628 forward $315 $-1 #
coedge $-1 $508 $317 $318 $496 reversed $193 $-1 #
coedge $-1 $502 $627 $317 $494 reversed $315 $-1 #
edge $-1 $509 -90.058900723288673 $629 90.058900723288673 $493 $630 forward 7 unknown #
coedge $-1 $319 $318 $627 $631 forward $123 $-1 #
edge $-1 $500 -8.0193493852977724 $629 8.0193493852977724 $492 $632 forward 7 unknown #
coedge $-1 $505 $504 $319 $498 reversed $489 $-1 #
edge $-1 $633 -8.0193493852977724 $499 8.0193493852977724 $497 $634 forward 7 unknown #
vertex $-1 $321 $635 #
vertex $-1 $511 $636 #
straight-curve $-1 8.0193493852977724 0 -90.058900723288673 0 -1 0 I I #
coedge $-1 $491 $493 $322 $503 reversed $315 $-1 #
edge $-1 $506 -180.11780144657735 $509 180.11780144657735 $502 $637 forward 7 unknown #
coedge $-1 $497 $323 $328 $512 forward $489 $-1 #
coedge $-1 $323 $497 $491 $628 reversed $489 $-1 #
vertex $-1 $324 $638 #
straight-curve $-1 0 180.11780144657735 90.058900723288673 -1 0 0 I I #
coedge $-1 $325 $492 $327 $511 reversed $193 $-1 #
vertex $-1 $503 $639 #
straight-curve $-1 0 -180.11780144657735 90.058900723288673 1 0 0 I I #
edge $-1 $330 -90.058900723288673 $500 90.058900723288673 $327 $640 forward 7 unknown #
edge $-1 $331 -90.058900723288673 $499 90.058900723288673 $328 $641 forward 7 unknown #
point $-1 8.0193493852977724 -180.11780144657735 90.058900723288673 #
point $-1 8.0193493852977724 180.11780144657735 90.058900723288673 #
coedge $-1 $515 $515 $-1 $642 reversed $333 $-1 #
vertex $-1 $335 $643 #
ellipse-curve $-1 0 0 -1 0 0 -1 2 0 0 1 I I #
point $-1 2 0 -4.0829187902462838 #
coedge $-1 $519 $519 $-1 $644 reversed $338 $-1 #
vertex $-1 $340 $645 #
ellipse-curve $-1 0 0 -1 0 0 -1 2 0 0 1 I I #
point $-1 2 0 -4.0829187902462838 #
face $-1 $-1 $358 $45 $-1 $646 reversed single #
loop $-1 $-1 $539 $343 #
plane-surface $-1 0 180.11780144657735 0 0 -1 0 0 0 -1 forward_v I I I I #
coedge $-1 $647 $537 $540 $648 forward $344 $-1 #
coedge $-1 $543 $346 $347 $531 reversed $211 $-1 #
coedge $-1 $537 $647 $346 $529 reversed $344 $-1 #
edge $-1 $544 -90.058900723288673 $649 90.058900723288673 $528 $650 forward 7 unknown #
coedge $-1 $348 $347 $647 $651 forward $137 $-1 #
edge $-1 $535 -8.0193493852977724 $649 8.0193493852977724 $527 $652 forward 7 unknown #
coedge $-1 $540 $539 $348 $533 reversed $524 $-1 #
edge $-1 $653 -8.0193493852977724 $534 8.0193493852977724 $532 $654 forward 7 unknown #
vertex $-1 $350 $655 #
vertex $-1 $546 $656 #
straight-curve $-1 8.0193493852977724 0 -90.058900723288673 0 -1 0 I I #
coedge $-1 $526 $528 $351 $538 reversed $344 $-1 #
edge $-1 $541 -180.11780144657735 $544 180.11780144657735 $537 $657 forward 7 unknown #
coedge $-1 $532 $352 $357 $547 forward $524 $-1 #
coedge $-1 $352 $532 $526 $648 reversed $524 $-1 #
vertex $-1 $353 $658 #
straight-curve $-1 0 180.11780144657735 90.058900723288673 -1 0 0 I I #
coedge $-1 $354 $527 $356 $546 reversed $211 $-1 #
vertex $-1 $538 $659 #
straight-curve $-1 0 -180.11780144657735 90.058900723288673 1 0 0 I I #
edge $-1 $359 -90.058900723288673 $535 90.058900723288673 $356 $660 forward 7 unknown #
edge $-1 $360 -90.058900723288673 $534 90.058900723288673 $357 $661 forward 7 unknown #
point $-1 8.0193493852977724 -180.11780144657735 90.058900723288673 #
point $-1 8.0193493852977724 180.11780144657735 90.058900723288673 #
coedge $-1 $550 $550 $-1 $662 reversed $362 $-1 #
vertex $-1 $364 $663 #
ellipse-curve $-1 0 0 -1 0 0 -1 2 0 0 1 I I #
point $-1 2 0 -4.0829187902462838 #
coedge $-1 $554 $554 $-1 $664 reversed $367 $-1 #
vertex $-1 $369 $665 #
ellipse-curve $-1 0 0 -1 0 0 -1 2 0 0 1 I I #
point $-1 2 0 -4.0829187902462838 #
plane-surface $-1 45.029450361644336 0 0 -1 0 0 0 0 1 forward_v I I I I #
coedge $-1 $377 $375 $379 $563 reversed $229 $-1 #
edge $-1 $390 -9.9694471187314004 $565 9.9694471187314004 $389 $666 forward 7 unknown #
vertex $-1 $563 $667 #
straight-curve $-1 -45.029450361644336 -25.819340167993595 0 0 0 -1 I I #
edge $-1 $561 -25.819340167993595 $565 25.819340167993595 $559 $668 forward 7 unknown #
straight-curve $-1 0 -25.819340167993595 -9.9694471187314004 -1 0 0 I I #
vertex $-1 $382 $669 #
straight-curve $-1 0 25.819340167993595 -9.9694471187314004 1 0 0 I I #
point $-1 45.029450361644336 25.819340167993595 -9.9694471187314004 #
point $-1 45.029450361644336 -25.819340167993595 -9.9694471187314004 #
straight-curve $-1 -45.029450361644336 0 9.9694471187314004 0 -1 0 I I #
point $-1 -45.029450361644336 25.819340167993595 9.9694471187314004 #
point $-1 -45.029450361644336 -25.819340167993595 9.9694471187314004 #
straight-curve $-1 45.029450361644336 -25.819340167993595 0 0 0 -1 I I #
straight-curve $-1 45.029450361644336 25.819340167993595 0 0 0 -1 I I #
plane-surface $-1 3.4077911171838928 0 0 -1 0 0 0 0 1 forward_v I I I I #
coedge $-1 $404 $402 $406 $579 reversed $248 $-1 #
edge $-1 $417 -2.3520252373227053 $581 2.3520252373227053 $416 $670 forward 7 unknown #
vertex $-1 $579 $671 #
straight-curve $-1 -3.4077911171838928 -25.819340167993595 0 0 0 -1 I I #
edge $-1 $577 -25.819340167993595 $581 25.819340167993595 $575 $672 forward 7 unknown #
straight-curve $-1 0 -25.819340167993595 -2.3520252373227053 -1 0 0 I I #
vertex $-1 $409 $673 #
straight-curve $-1 0 25.819340167993595 -2.3520252373227053 1 0 0 I I #
point $-1 3.4077911171838928 25.819340167993595 -2.3520252373227053 #
point $-1 3.4077911171838928 -25.819340167993595 -2.3520252373227053 #
straight-curve $-1 -3.4077911171838928 0 2.3520252373227053 0 -1 0 I I #
point $-1 -3.4077911171838928 25.819340167993595 2.3520252373227053 #
point $-1 -3.4077911171838928 -25.819340167993595 2.3520252373227053 #
straight-curve $-1 3.4077911171838928 -25.819340167993595 0 0 0 -1 I I #
straight-curve $-1 3.4077911171838928 25.819340167993595 0 0 0 -1 I I #
plane-surface $-1 8.73442592790677 0 0 -1 0 0 0 0 1 forward_v I I I I #
coedge $-1 $431 $429 $433 $595 reversed $267 $-1 #
edge $-1 $444 -90.058900723288673 $597 90.058900723288673 $443 $674 forward 7 unknown #
vertex $-1 $595 $675 #
straight-curve $-1 -8.73442592790677 -180.11780144657735 0 0 0 -1 I I #
edge $-1 $593 -180.11780144657735 $597 180.11780144657735 $591 $676 forward 7 unknown #
straight-curve $-1 0 -180.11780144657735 -90.058900723288673 -1 0 0 I I #
vertex $-1 $436 $677 #
straight-curve $-1 0 180.11780144657735 -90.058900723288673 1 0 0 I I #
point $-1 8.73442592790677 180.11780144657735 -90.058900723288673 #
point $-1 8.73442592790677 -180.11780144657735 -90.058900723288673 #
straight-curve $-1 -8.73442592790677 0 90.058900723288673 0 -1 0 I I #
point $-1 -8.73442592790677 180.11780144657735 90.058900723288673 #
point $-1 -8.73442592790677 -180.11780144657735 90.058900723288673 #
straight-curve $-1 8.73442592790677 -180.11780144657735 0 0 0 -1 I I #
straight-curve $-1 8.73442592790677 180.11780144657735 0 0 0 -1 I I #
edge $-1 $678 1 $678 0 $453 $-1 forward 7 unknown #
point $-1 1 0 -0.5 #
plane-surface $-1 8.73442592790677 0 0 -1 0 0 0 0 1 forward_v I I I I #
coedge $-1 $462 $460 $464 $613 reversed $291 $-1 #
edge $-1 $475 -90.058900723288673 $615 90.058900723288673 $474 $679 forward 7 unknown #
vertex $-1 $613 $680 #
straight-curve $-1 -8.73442592790677 -180.11780144657735 0 0 0 -1 I I #
edge $-1 $611 -180.11780144657735 $615 180.11780144657735 $609 $681 forward 7 unknown #
straight-curve $-1 0 -180.11780144657735 -90.058900723288673 -1 0 0 I I #
vertex $-1 $467 $682 #
straight-curve $-1 0 180.11780144657735 -90.058900723288673 1 0 0 I I #
point $-1 8.73442592790677 180.11780144657735 -90.058900723288673 #
point $-1 8.73442592790677 -180.11780144657735 -90.058900723288673 #
straight-curve $-1 -8.73442592790677 0 90.058900723288673 0 -1 0 I I #
point $-1 -8.73442592790677 180.11780144657735 90.058900723288673 #
point $-1 -8.73442592790677 -180.11780144657735 90.058900723288673 #
straight-curve $-1 8.73442592790677 -180.11780144657735 0 0 0 -1 I I #
straight-curve $-1 8.73442592790677 180.11780144657735 0 0 0 -1 I I #
edge $-1 $683 1 $683 0 $484 $-1 forward 7 unknown #
point $-1 1 0 -0.5 #
plane-surface $-1 8.0193493852977724 0 0 -1 0 0 0 0 1 forward_v I I I I #
coedge $-1 $493 $491 $495 $631 reversed $315 $-1 #
edge $-1 $506 -90.058900723288673 $633 90.058900723288673 $505 $684 forward 7 unknown #
vertex $-1 $631 $685 #
straight-curve $-1 -8.0193493852977724 -180.11780144657735 0 0 0 -1 I I #
edge $-1 $629 -180.11780144657735 $633 180.11780144657735 $627 $686 forward 7 unknown #
straight-curve $-1 0 -180.11780144657735 -90.058900723288673 -1 0 0 I I #
vertex $-1 $498 $687 #
straight-curve $-1 0 180.11780144657735 -90.058900723288673 1 0 0 I I #
point $-1 8.0193493852977724 180.11780144657735 -90.058900723288673 #
point $-1 8.0193493852977724 -180.11780144657735 -90.058900723288673 #
straight-curve $-1 -8.0193493852977724 0 90.058900723288673 0 -1 0 I I #
point $-1 -8.0193493852977724 180.11780144657735 90.058900723288673 #
point $-1 -8.0193493852977724 -180.11780144657735 90.058900723288673 #
straight-curve $-1 8.0193493852977724 -180.11780144657735 0 0 0 -1 I I #
straight-curve $-1 8.0193493852977724 180.11780144657735 0 0 0 -1 I I #
edge $-1 $688 1 $688 0 $515 $-1 forward 7 unknown #
point $-1 2 0 -1 #
edge $-1 $689 1 $689 0 $519 $-1 forward 7 unknown #
point $-1 2 0 -1 #
plane-surface $-1 8.0193493852977724 0 0 -1 0 0 0 0 1 forward_v I I I I #
coedge $-1 $528 $526 $530 $651 reversed $344 $-1 #
edge $-1 $541 -90.058900723288673 $653 90.058900723288673 $540 $690 forward 7 unknown #
vertex $-1 $651 $691 #
straight-curve $-1 -8.0193493852977724 -180.11780144657735 0 0 0 -1 I I #
edge $-1 $649 -180.11780144657735 $653 180.11780144657735 $647 $692 forward 7 unknown #
straight-curve $-1 0 -180.11780144657735 -90.058900723288673 -1 0 0 I I #
vertex $-1 $533 $693 #
straight-curve $-1 0 180.11780144657735 -90.058900723288673 1 0 0 I I #
point $-1 8.0193493852977724 180.11780144657735 -90.058900723288673 #
point $-1 8.0193493852977724 -180.11780144657735 -90.058900723288673 #
straight-curve $-1 -8.0193493852977724 0 90.058900723288673 0 -1 0 I I #
point $-1 -8.0193493852977724 180.11780144657735 90.058900723288673 #
point $-1 -8.0193493852977724 -180.11780144657735 90.058900723288673 #
straight-curve $-1 8.0193493852977724 -180.11780144657735 0 0 0 -1 I I #
straight-curve $-1 8.0193493852977724 180.11780144657735 0 0 0 -1 I I #
edge $-1 $694 1 $694 0 $550 $-1 forward 7 unknown #
point $-1 2 0 -1 #
edge $-1 $695 1 $695 0 $554 $-1 forward 7 unknown #
point $-1 2 0 -1 #
straight-curve $-1 -45.029450361644336 25.819340167993595 0 0 0 -1 I I #
point $-1 -45.029450361644336 -25.819340167993595 -9.9694471187314004 #
straight-curve $-1 -45.029450361644336 0 -9.9694471187314004 0 1 0 I I #
point $-1 -45.029450361644336 25.819340167993595 -9.9694471187314004 #
straight-curve $-1 -3.4077911171838928 25.819340167993595 0 0 0 -1 I I #
point $-1 -3.4077911171838928 -25.819340167993595 -2.3520252373227053 #
straight-curve $-1 -3.4077911171838928 0 -2.3520252373227053 0 1 0 I I #
point $-1 -3.4077911171838928 25.819340167993595 -2.3520252373227053 #
straight-curve $-1 -8.73442592790677 180.11780144657735 0 0 0 -1 I I #
point $-1 -8.73442592790677 -180.11780144657735 -90.058900723288673 #
straight-curve $-1 -8.73442592790677 0 -90.058900723288673 0 1 0 I I #
point $-1 -8.73442592790677 180.11780144657735 -90.058900723288673 #
vertex $-1 $606 $696 #
straight-curve $-1 -8.73442592790677 180.11780144657735 0 0 0 -1 I I #
point $-1 -8.73442592790677 -180.11780144657735 -90.058900723288673 #
straight-curve $-1 -8.73442592790677 0 -90.058900723288673 0 1 0 I I #
point $-1 -8.73442592790677 180.11780144657735 -90.058900723288673 #
vertex $-1 $624 $697 #
straight-curve $-1 -8.0193493852977724 180.11780144657735 0 0 0 -1 I I #
point $-1 -8.0193493852977724 -180.11780144657735 -90.058900723288673 #
straight-curve $-1 -8.0193493852977724 0 -90.058900723288673 0 1 0 I I #
point $-1 -8.0193493852977724 180.11780144657735 -90.058900723288673 #
vertex $-1 $642 $698 #
vertex $-1 $644 $699 #
straight-curve $-1 -8.0193493852977724 180.11780144657735 0 0 0 -1 I I #
point $-1 -8.0193493852977724 -180.11780144657735 -90.058900723288673 #
straight-curve $-1 -8.0193493852977724 0 -90.058900723288673 0 1 0 I I #
point $-1 -8.0193493852977724 180.11780144657735 -90.058900723288673 #
vertex $-1 $662 $700 #
vertex $-1 $664 $701 #
point $-1 0 0 0.5 #
point $-1 0 0 0.5 #
point $-1 0 0 1 #
point $-1 0 0 1 #
point $-1 0 0 1 #
point $-1 0 0 1 #
End-of-ACIS-data 