500 0 8 0           
7 Unknown 11 ACIS 5.0 NT 24 Fri Mar 26 03:13:32 1999 
-1 9.9999999999999995e-007 1e-010 
body $-1 $8 $-1 $9 #
body $-1 $10 $-1 $11 #
body $-1 $12 $-1 $13 #
body $-1 $14 $-1 $15 #
body $-1 $16 $-1 $17 #
body $-1 $18 $-1 $19 #
body $-1 $20 $-1 $21 #
body $-1 $22 $-1 $23 #
lump $-1 $-1 $24 $0 #
transform $-1 1 0 0 0 1 0 0 0 1 54.132511368144776 33.863919325129096 8.2482780396675874 1 rotate no_reflect no_shear #
lump $-1 $-1 $25 $1 #
transform $-1 1 0 0 0 1 0 0 0 1 54.132511368144776 33.863919325129096 8.2482780396675874 1 rotate no_reflect no_shear #
lump $-1 $-1 $26 $2 #
transform $-1 1 0 0 0 1 0 0 0 1 54.132511368144776 33.863919325129096 8.2482780396675874 1 rotate no_reflect no_shear #
lump $-1 $-1 $27 $3 #
transform $-1 1 0 0 0 1 0 0 0 1 54.132511368144776 33.863919325129096 8.2482780396675874 1 rotate no_reflect no_shear #
lump $-1 $-1 $28 $4 #
transform $-1 1 0 0 0 1 0 0 0 1 54.132511368144776 33.863919325129096 8.2482780396675874 1 rotate no_reflect no_shear #
lump $-1 $-1 $29 $5 #
transform $-1 1 0 0 0 1 0 0 0 1 54.132511368144776 33.863919325129096 8.2482780396675874 1 rotate no_reflect no_shear #
lump $-1 $-1 $30 $6 #
transform $-1 1 0 0 0 1 0 0 0 1 54.132511368144776 33.863919325129096 8.2482780396675874 1 rotate no_reflect no_shear #
lump $-1 $-1 $31 $7 #
transform $-1 1 0 0 0 1 0 0 0 1 54.132511368144776 33.863919325129096 8.2482780396675874 1 rotate no_reflect no_shear #
shell $-1 $-1 $-1 $32 $-1 $8 #
shell $-1 $-1 $-1 $33 $-1 $10 #
shell $-1 $-1 $-1 $34 $-1 $12 #
shell $-1 $-1 $-1 $35 $-1 $14 #
shell $-1 $-1 $-1 $36 $-1 $16 #
shell $-1 $-1 $-1 $37 $-1 $18 #
shell $-1 $-1 $-1 $38 $-1 $20 #
shell $-1 $-1 $-1 $39 $-1 $22 #
face $-1 $40 $41 $24 $-1 $42 forward single #
face $-1 $43 $44 $25 $-1 $45 reversed single #
face $-1 $46 $47 $26 $-1 $48 reversed single #
face $-1 $49 $50 $27 $-1 $51 forward single #
face $-1 $52 $53 $28 $-1 $54 forward single #
face $-1 $55 $56 $29 $-1 $57 reversed single #
face $-1 $58 $59 $30 $-1 $60 forward single #
face $-1 $61 $62 $31 $-1 $63 forward single #
face $-1 $64 $65 $24 $-1 $66 reversed single #
loop $-1 $-1 $67 $32 #
plane-surface $-1 0 0 8.2482780396675874 0 0 1 1 0 0 forward_v I I I I #
face $-1 $68 $69 $25 $-1 $70 reversed single #
loop $-1 $-1 $71 $33 #
plane-surface $-1 0 -30.161935970642283 4.2527453997424276 0 0 1 1 0 0 forward_v I I I I #
face $-1 $72 $73 $26 $-1 $74 reversed single #
loop $-1 $-1 $75 $34 #
plane-surface $-1 -135.84116212762174 23.491203126551877 76.100015772733769 0 1 0 -0.75470958851134928 0 0.65605901945558964 forward_v I I I I #
face $-1 $76 $77 $27 $-1 $78 forward single #
loop $-1 $79 $80 $35 #
cone-surface $-1 -51.380640225636533 26.454836326145369 5.4680381988482907 0.75470958851134928 0 -0.65605901945558964 0.65605901945558964 0 0.75470958851134928 1 I I 0 1 1 forward I I I I #
face $-1 $81 $82 $28 $-1 $83 forward single #
loop $-1 $84 $85 $36 #
cone-surface $-1 -51.380640225636533 30.900286125535608 5.4680381988482907 0.75470958851134928 0 -0.65605901945558964 0.65605901945558964 0 0.75470958851134928 1 I I 0 1 1 forward I I I I #
face $-1 $86 $87 $29 $-1 $88 reversed single #
loop $-1 $-1 $89 $37 #
plane-surface $-1 -16.895733289562472 28.677561225840485 86.780421874503489 0.75470958851134928 0 0.65605901945558964 0.65605901945558964 0 -0.75470958851134928 forward_v I I I I #
face $-1 $90 $91 $30 $-1 $92 forward single #
loop $-1 $93 $94 $38 #
cone-surface $-1 51.380640225636526 26.454836326145369 5.4680381988483084 -0.75470958851134928 0 -0.65605901945558964 0.65605901945558964 0 -0.75470958851134928 1 I I 0 1 1 forward I I I I #
face $-1 $95 $96 $31 $-1 $97 forward single #
loop $-1 $98 $99 $39 #
cone-surface $-1 51.380640225636526 30.900286125535608 5.4680381988483084 -0.75470958851134928 0 -0.65605901945558964 0.65605901945558964 0 -0.75470958851134928 1 I I 0 1 1 forward I I I I #
face $-1 $100 $101 $24 $-1 $102 reversed single #
loop $-1 $-1 $103 $40 #
plane-surface $-1 0 0 -8.2482780396675874 0 0 1 1 0 0 forward_v I I I I #
coedge $-1 $104 $105 $106 $107 forward $41 $-1 #
face $-1 $108 $109 $25 $-1 $110 reversed single #
loop $-1 $-1 $111 $43 #
plane-surface $-1 0 -26.459952616155469 6.250511719705008 0 -1 0 0 0 -1 forward_v I I I I #
coedge $-1 $112 $113 $114 $115 reversed $44 $-1 #
face $-1 $116 $117 $26 $-1 $118 forward single #
loop $-1 $-1 $119 $46 #
plane-surface $-1 -54.132511368144776 28.677561225840485 5.0717711150265217 -0.75470958851134928 0 0.65605901945558964 0.65605901945558964 0 0.75470958851134928 forward_v I I I I #
coedge $-1 $120 $121 $122 $123 reversed $47 $-1 #
face $-1 $-1 $124 $27 $-1 $125 forward single #
loop $-1 $126 $127 $49 #
cone-surface $-1 -49.632061924729818 26.454836326145369 3.9480223106217291 0.75470958851134928 0 -0.65605901945558964 0.32802950972779482 0 0.37735479425567464 1 I I -0.70710678118654746 0.70710678118654746 0.5 forward I I I I #
loop $-1 $-1 $128 $35 #
coedge $-1 $80 $80 $129 $130 reversed $50 $-1 #
face $-1 $-1 $131 $28 $-1 $132 forward single #
loop $-1 $133 $134 $52 #
cone-surface $-1 -49.632061924729818 30.900286125535608 3.9480223106217291 0.75470958851134928 0 -0.65605901945558964 0.32802950972779482 0 0.37735479425567464 1 I I -0.70710678118654746 0.70710678118654746 0.5 forward I I I I #
loop $-1 $-1 $135 $36 #
coedge $-1 $85 $85 $136 $137 reversed $53 $-1 #
face $-1 $138 $139 $29 $-1 $140 forward single #
loop $-1 $-1 $141 $55 #
plane-surface $-1 64.812917469914495 23.491203126551877 157.80866653221074 0 1 0 0.75470958851134928 0 0.65605901945558964 forward_v I I I I #
coedge $-1 $142 $143 $144 $145 reversed $56 $-1 #
face $-1 $-1 $146 $30 $-1 $147 forward single #
loop $-1 $148 $149 $58 #
cone-surface $-1 49.632061924729811 26.454836326145369 3.9480223106217469 -0.75470958851134928 0 -0.65605901945558964 0.32802950972779482 0 -0.37735479425567464 1 I I -0.70710678118654746 0.70710678118654746 0.5 forward I I I I #
loop $-1 $-1 $150 $38 #
coedge $-1 $94 $94 $151 $152 reversed $59 $-1 #
face $-1 $-1 $153 $31 $-1 $154 forward single #
loop $-1 $155 $156 $61 #
cone-surface $-1 49.632061924729811 30.900286125535608 3.9480223106217469 -0.75470958851134928 0 -0.65605901945558964 0.32802950972779482 0 -0.37735479425567464 1 I I -0.70710678118654746 0.70710678118654746 0.5 forward I I I I #
loop $-1 $-1 $157 $39 #
coedge $-1 $99 $99 $158 $159 reversed $62 $-1 #
face $-1 $160 $161 $24 $-1 $162 reversed single #
loop $-1 $-1 $163 $64 #
plane-surface $-1 0 -33.863919325129096 0 0 1 0 0 0 1 forward_v I I I I #
coedge $-1 $164 $165 $166 $167 forward $65 $-1 #
coedge $-1 $168 $67 $169 $170 forward $41 $-1 #
coedge $-1 $67 $168 $171 $172 forward $41 $-1 #
coedge $-1 $173 $174 $67 $107 reversed $175 $-1 #
edge $-1 $176 -33.863919325129096 $177 33.863919325129096 $106 $178 forward 7 unknown #
face $-1 $179 $180 $25 $-1 $181 reversed single #
loop $-1 $-1 $182 $68 #
plane-surface $-1 -54.132511368144776 0 0 1 0 0 0 0 -1 forward_v I I I I #
coedge $-1 $183 $184 $185 $186 reversed $69 $-1 #
coedge $-1 $187 $71 $188 $189 reversed $44 $-1 #
coedge $-1 $71 $187 $183 $190 forward $44 $-1 #
coedge $-1 $185 $191 $71 $115 forward $192 $-1 #
edge $-1 $193 -18.782951339807955 $194 -11.378984630834328 $114 $195 forward 7 unknown #
face $-1 $196 $197 $26 $-1 $198 reversed single #
loop $-1 $-1 $122 $72 #
plane-surface $-1 0 0 8.2482780396675874 0 0 1 1 0 0 forward_v I I I I #
coedge $-1 $199 $200 $201 $202 reversed $73 $-1 #
coedge $-1 $121 $75 $203 $204 reversed $47 $-1 #
coedge $-1 $75 $120 $199 $205 reversed $47 $-1 #
coedge $-1 $201 $206 $75 $123 forward $117 $-1 #
edge $-1 $207 13.788069695666096 $208 16.549364967380491 $122 $209 forward 7 unknown #
loop $-1 $-1 $129 $76 #
plane-surface $-1 -54.132511368144776 28.677561225840485 5.0717711150265217 -0.75470958851134928 0 0.65605901945558964 0.65605901945558964 0 0.75470958851134928 forward_v I I I I #
loop $-1 $-1 $210 $49 #
coedge $-1 $127 $127 $128 $211 reversed $77 $-1 #
coedge $-1 $128 $128 $127 $211 forward $79 $-1 #
coedge $-1 $129 $129 $80 $130 forward $124 $-1 #
edge $-1 $212 0 $212 6.2831853071796004 $129 $213 forward 7 unknown #
loop $-1 $-1 $136 $81 #
plane-surface $-1 -54.132511368144776 28.677561225840485 5.0717711150265217 -0.75470958851134928 0 0.65605901945558964 0.65605901945558964 0 0.75470958851134928 forward_v I I I I #
loop $-1 $-1 $214 $52 #
coedge $-1 $134 $134 $135 $215 reversed $82 $-1 #
coedge $-1 $135 $135 $134 $215 forward $84 $-1 #
coedge $-1 $136 $136 $85 $137 forward $131 $-1 #
edge $-1 $216 0 $216 6.2831853071796004 $136 $217 forward 7 unknown #
face $-1 $218 $219 $29 $-1 $220 reversed single #
loop $-1 $-1 $144 $86 #
plane-surface $-1 0 0 8.2482780396675874 0 0 1 1 0 0 forward_v I I I I #
coedge $-1 $221 $222 $223 $224 reversed $87 $-1 #
coedge $-1 $225 $89 $226 $227 reversed $56 $-1 #
coedge $-1 $89 $225 $221 $228 forward $56 $-1 #
coedge $-1 $223 $229 $89 $145 forward $139 $-1 #
edge $-1 $230 -19.525138712208847 $231 -9.1524225136316346 $144 $232 forward 7 unknown #
loop $-1 $-1 $151 $90 #
plane-surface $-1 -16.895733289562472 28.677561225840485 86.780421874503489 0.75470958851134928 0 0.65605901945558964 0.65605901945558964 0 -0.75470958851134928 forward_v I I I I #
loop $-1 $-1 $233 $58 #
coedge $-1 $149 $149 $150 $234 reversed $91 $-1 #
coedge $-1 $150 $150 $149 $234 forward $93 $-1 #
coedge $-1 $151 $151 $94 $152 forward $146 $-1 #
edge $-1 $235 0 $235 6.2831853071796004 $151 $236 forward 7 unknown #
loop $-1 $-1 $158 $95 #
plane-surface $-1 -16.895733289562472 28.677561225840485 86.780421874503489 0.75470958851134928 0 0.65605901945558964 0.65605901945558964 0 -0.75470958851134928 forward_v I I I I #
loop $-1 $-1 $237 $61 #
coedge $-1 $156 $156 $157 $238 reversed $96 $-1 #
coedge $-1 $157 $157 $156 $238 forward $98 $-1 #
coedge $-1 $158 $158 $99 $159 forward $153 $-1 #
edge $-1 $239 0 $239 6.2831853071796004 $158 $240 forward 7 unknown #
face $-1 $241 $242 $24 $-1 $243 reversed single #
loop $-1 $-1 $244 $100 #
plane-surface $-1 -54.132511368144776 0 0 1 0 0 0 0 -1 forward_v I I I I #
coedge $-1 $245 $171 $246 $247 forward $101 $-1 #
coedge $-1 $248 $103 $245 $249 forward $65 $-1 #
coedge $-1 $103 $248 $250 $251 forward $65 $-1 #
coedge $-1 $174 $173 $103 $167 reversed $175 $-1 #
edge $-1 $252 -33.863919325129096 $253 33.863919325129096 $166 $254 forward 7 unknown #
coedge $-1 $105 $104 $255 $256 forward $41 $-1 #
coedge $-1 $257 $258 $104 $170 reversed $242 $-1 #
edge $-1 $177 -54.132511368144776 $259 54.132511368144776 $169 $260 forward 7 unknown #
coedge $-1 $163 $261 $105 $172 reversed $101 $-1 #
edge $-1 $262 -54.132511368144776 $176 54.132511368144776 $171 $263 forward 7 unknown #
coedge $-1 $166 $106 $261 $264 forward $175 $-1 #
coedge $-1 $106 $166 $257 $265 reversed $175 $-1 #
loop $-1 $-1 $173 $241 #
vertex $-1 $107 $266 #
vertex $-1 $107 $267 #
straight-curve $-1 54.132511368144776 0 8.2482780396675874 0 1 0 I I #
face $-1 $268 $269 $25 $-1 $270 forward single #
loop $-1 $-1 $188 $108 #
plane-surface $-1 0 -33.863919325129096 0 0 1 0 0 0 1 forward_v I I I I #
coedge $-1 $271 $272 $273 $274 forward $109 $-1 #
coedge $-1 $273 $111 $113 $190 reversed $69 $-1 #
coedge $-1 $111 $273 $275 $276 reversed $69 $-1 #
coedge $-1 $277 $114 $111 $186 forward $192 $-1 #
edge $-1 $194 1.1274895398899236 $278 5.1230221798150852 $185 $279 forward 7 unknown #
coedge $-1 $113 $112 $271 $280 reversed $44 $-1 #
coedge $-1 $281 $282 $112 $189 forward $180 $-1 #
edge $-1 $283 -54.132511368144776 $193 54.132511368144776 $188 $284 forward 7 unknown #
edge $-1 $285 -54.132511368144776 $194 54.132511368144776 $183 $286 forward 7 unknown #
coedge $-1 $114 $277 $281 $287 forward $192 $-1 #
loop $-1 $-1 $185 $268 #
vertex $-1 $189 $288 #
vertex $-1 $115 $289 #
straight-curve $-1 54.132511368144776 -15.080967985321141 4.2527453997424276 0 1 0 I I #
face $-1 $-1 $290 $26 $-1 $291 reversed single #
loop $-1 $-1 $292 $116 #
plane-surface $-1 0 33.863919325129096 0 0 -1 0 0 0 -1 forward_v I I I I #
coedge $-1 $293 $119 $121 $205 forward $73 $-1 #
coedge $-1 $119 $293 $292 $294 reversed $73 $-1 #
coedge $-1 $295 $122 $119 $202 forward $117 $-1 #
edge $-1 $208 9.1524225136316346 $296 19.525138712208847 $201 $297 forward 7 unknown #
coedge $-1 $298 $299 $120 $204 forward $290 $-1 #
edge $-1 $300 -32.978236771340363 $207 -29.801729846699295 $203 $301 forward 7 unknown #
edge $-1 $208 -4.2089129023876142 $300 0 $121 $302 forward 7 unknown #
coedge $-1 $122 $295 $298 $303 forward $117 $-1 #
vertex $-1 $204 $304 #
vertex $-1 $123 $305 #
straight-curve $-1 -67.920581063810872 23.491203126551877 8.2482780396675892 1 0 0 I I #
coedge $-1 $210 $210 $-1 $306 reversed $126 $-1 #
edge $-1 $307 0 $307 6.2831853071796004 $127 $308 forward 7 unknown #
vertex $-1 $130 $309 #
ellipse-curve $-1 -52.751863732287575 26.454836326145369 6.6600245773470572 -0.75470958851134928 0 0.65605901945558964 0.65605901945558964 0 0.75470958851134928 1 I I #
coedge $-1 $214 $214 $-1 $310 reversed $133 $-1 #
edge $-1 $311 0 $311 6.2831853071796004 $134 $312 forward 7 unknown #
vertex $-1 $137 $313 #
ellipse-curve $-1 -52.751863732287575 30.900286125535608 6.6600245773470572 -0.75470958851134928 0 0.65605901945558964 0.65605901945558964 0 0.75470958851134928 1 I I #
face $-1 $-1 $314 $29 $-1 $315 reversed single #
loop $-1 $-1 $316 $138 #
plane-surface $-1 54.132511368144776 0 0 -1 0 0 0 0 1 forward_v I I I I #
coedge $-1 $222 $141 $143 $228 reversed $87 $-1 #
coedge $-1 $141 $221 $317 $318 reversed $87 $-1 #
coedge $-1 $319 $144 $141 $224 forward $139 $-1 #
edge $-1 $231 18.964757361473126 $320 21.726052633187528 $223 $321 forward 7 unknown #
coedge $-1 $143 $142 $316 $322 reversed $56 $-1 #
coedge $-1 $323 $324 $142 $227 forward $314 $-1 #
edge $-1 $325 -69.975715386948892 $230 -65.766802484561282 $226 $326 forward 7 unknown #
edge $-1 $327 -108.26502273628958 $231 -104.05610983390197 $221 $328 forward 7 unknown #
coedge $-1 $144 $319 $323 $329 forward $139 $-1 #
vertex $-1 $227 $330 #
vertex $-1 $145 $331 #
straight-curve $-1 51.371216096430373 14.338780612920242 8.248278039667575 0 -1 0 I I #
coedge $-1 $233 $233 $-1 $332 reversed $148 $-1 #
edge $-1 $333 0 $333 6.2831853071796004 $149 $334 forward 7 unknown #
vertex $-1 $152 $335 #
ellipse-curve $-1 52.751863732287561 26.454836326145369 6.6600245773470688 0.75470958851134928 0 0.65605901945558964 0.65605901945558964 0 -0.75470958851134928 1 I I #
coedge $-1 $237 $237 $-1 $336 reversed $155 $-1 #
edge $-1 $337 0 $337 6.2831853071796004 $156 $338 forward 7 unknown #
vertex $-1 $159 $339 #
ellipse-curve $-1 52.751863732287561 30.900286125535608 6.6600245773470688 0.75470958851134928 0 0.65605901945558964 0.65605901945558964 0 -0.75470958851134928 1 I I #
face $-1 $-1 $175 $24 $-1 $340 reversed single #
loop $-1 $-1 $257 $160 #
plane-surface $-1 0 33.863919325129096 0 0 -1 0 0 0 -1 forward_v I I I I #
coedge $-1 $341 $255 $258 $342 forward $161 $-1 #
coedge $-1 $261 $163 $164 $249 reversed $101 $-1 #
coedge $-1 $255 $341 $163 $247 reversed $161 $-1 #
edge $-1 $262 -8.2482780396675874 $343 8.2482780396675874 $246 $344 forward 7 unknown #
coedge $-1 $165 $164 $341 $345 forward $65 $-1 #
edge $-1 $253 -54.132511368144776 $343 54.132511368144776 $245 $346 forward 7 unknown #
coedge $-1 $258 $257 $165 $251 reversed $242 $-1 #
edge $-1 $347 -54.132511368144776 $252 54.132511368144776 $250 $348 forward 7 unknown #
vertex $-1 $167 $349 #
vertex $-1 $264 $350 #
straight-curve $-1 54.132511368144776 0 -8.2482780396675874 0 -1 0 I I #
coedge $-1 $244 $246 $168 $256 reversed $161 $-1 #
edge $-1 $259 -33.863919325129096 $262 33.863919325129096 $255 $351 forward 7 unknown #
coedge $-1 $250 $169 $174 $265 forward $242 $-1 #
coedge $-1 $169 $250 $244 $342 reversed $242 $-1 #
vertex $-1 $170 $352 #
straight-curve $-1 0 33.863919325129096 8.2482780396675874 -1 0 0 I I #
coedge $-1 $171 $245 $173 $264 reversed $101 $-1 #
vertex $-1 $256 $353 #
straight-curve $-1 0 -33.863919325129096 8.2482780396675874 1 0 0 I I #
edge $-1 $176 -8.2482780396675874 $253 8.2482780396675874 $173 $354 forward 7 unknown #
edge $-1 $177 -8.2482780396675874 $252 8.2482780396675874 $174 $355 forward 7 unknown #
point $-1 54.132511368144776 -33.863919325129096 8.2482780396675874 #
point $-1 54.132511368144776 33.863919325129096 8.2482780396675874 #
face $-1 $-1 $192 $25 $-1 $356 reversed single #
loop $-1 $-1 $275 $179 #
plane-surface $-1 0 0 8.2482780396675874 0 0 1 1 0 0 forward_v I I I I #
coedge $-1 $357 $182 $187 $280 forward $109 $-1 #
coedge $-1 $182 $357 $358 $359 reversed $109 $-1 #
coedge $-1 $184 $183 $182 $274 reversed $69 $-1 #
edge $-1 $360 -5.1230221798150852 $285 -1.1274895398899236 $182 $361 forward 7 unknown #
coedge $-1 $358 $362 $184 $276 forward $269 $-1 #
edge $-1 $278 -54.132511368144776 $360 54.132511368144776 $275 $363 forward 7 unknown #
coedge $-1 $191 $185 $362 $364 reversed $192 $-1 #
vertex $-1 $186 $365 #
straight-curve $-1 54.132511368144776 -26.459952616155469 3.125255859852504 0 0 1 I I #
edge $-1 $285 11.378984630834328 $283 18.782951339807955 $271 $366 forward 7 unknown #
coedge $-1 $367 $188 $191 $287 reversed $180 $-1 #
coedge $-1 $188 $367 $357 $368 forward $180 $-1 #
vertex $-1 $189 $369 #
straight-curve $-1 0 -33.863919325129096 4.2527453997424276 1 0 0 I I #
vertex $-1 $280 $370 #
straight-curve $-1 0 -26.459952616155469 4.2527453997424276 1 0 0 I I #
edge $-1 $371 -8.2482780396675874 $193 -4.2527453997424276 $191 $372 forward 7 unknown #
point $-1 54.132511368144776 -33.863919325129096 4.2527453997424276 #
point $-1 54.132511368144776 -26.459952616155469 4.2527453997424276 #
loop $-1 $-1 $203 $196 #
plane-surface $-1 -54.132511368144776 0 0 1 0 0 0 0 -1 forward_v I I I I #
coedge $-1 $373 $374 $200 $294 forward $197 $-1 #
coedge $-1 $200 $199 $299 $375 reversed $73 $-1 #
edge $-1 $296 11.634291116416497 $376 15.843204018804112 $292 $377 forward 7 unknown #
coedge $-1 $206 $201 $374 $378 forward $117 $-1 #
vertex $-1 $378 $379 #
straight-curve $-1 -51.371216096430381 14.338780612920242 8.2482780396675874 0 1 0 I I #
coedge $-1 $380 $203 $206 $303 reversed $290 $-1 #
coedge $-1 $203 $380 $293 $375 forward $290 $-1 #
vertex $-1 $204 $381 #
straight-curve $-1 -54.132511368144776 23.491203126551877 38.050007886366885 0 0 1 I I #
straight-curve $-1 -54.132511368144776 23.491203126551877 5.0717711150265217 -0.65605901945558964 0 -0.75470958851134928 I I #
edge $-1 $382 -33.863919325129096 $207 -23.491203126551877 $298 $383 forward 7 unknown #
point $-1 -54.132511368144776 23.491203126551877 8.2482780396675874 #
point $-1 -51.371216096430381 23.491203126551877 8.2482780396675874 #
edge $-1 $384 1 $384 0 $210 $-1 forward 7 unknown #
vertex $-1 $211 $385 #
ellipse-curve $-1 -50.009416718985491 26.454836326145369 4.2760518203495241 -0.75470958851134928 0 0.65605901945558964 0.65605901945558964 0 0.75470958851134928 1 I I #
point $-1 -52.095804712831985 26.454836326145369 7.4147341658584054 #
edge $-1 $386 1 $386 0 $214 $-1 forward 7 unknown #
vertex $-1 $215 $387 #
ellipse-curve $-1 -50.009416718985491 30.900286125535608 4.2760518203495241 -0.75470958851134928 0 0.65605901945558964 0.65605901945558964 0 0.75470958851134928 1 I I #
point $-1 -52.095804712831985 30.900286125535608 7.4147341658584054 #
loop $-1 $-1 $226 $218 #
plane-surface $-1 0 33.863919325129096 0 0 -1 0 0 0 -1 forward_v I I I I #
coedge $-1 $388 $317 $225 $322 forward $219 $-1 #
coedge $-1 $316 $389 $222 $318 forward $219 $-1 #
edge $-1 $320 70.656055226437786 $327 73.832562151078847 $317 $390 forward 7 unknown #
coedge $-1 $229 $223 $389 $391 forward $139 $-1 #
vertex $-1 $391 $392 #
straight-curve $-1 32.406458734957248 23.491203126551877 8.2482780396675821 1 0 0 I I #
edge $-1 $327 9.1524225136316346 $325 19.525138712208847 $316 $393 forward 7 unknown #
coedge $-1 $324 $226 $229 $329 reversed $314 $-1 #
coedge $-1 $226 $323 $388 $394 forward $314 $-1 #
vertex $-1 $227 $395 #
straight-curve $-1 8.2243121456796722 33.863919325129096 57.883114480498008 -0.65605901945558975 0 0.75470958851134939 I I #
vertex $-1 $322 $396 #
straight-curve $-1 -16.895733289562472 23.491203126551877 86.780421874503489 -0.65605901945558964 0 0.75470958851134928 I I #
edge $-1 $397 -54.132511368144776 $230 -51.371216096430373 $323 $398 forward 7 unknown #
point $-1 51.371216096430373 33.863919325129089 8.2482780396675821 #
point $-1 51.371216096430373 23.491203126551877 8.2482780396675821 #
edge $-1 $399 1 $399 0 $233 $-1 forward 7 unknown #
vertex $-1 $234 $400 #
ellipse-curve $-1 50.009416718985484 26.454836326145369 4.2760518203495419 0.75470958851134928 0 0.65605901945558964 0.65605901945558964 0 -0.75470958851134928 1 I I #
point $-1 53.407922751743158 26.454836326145369 5.905314988835725 #
edge $-1 $401 1 $401 0 $237 $-1 forward 7 unknown #
vertex $-1 $238 $402 #
ellipse-curve $-1 50.009416718985484 30.900286125535608 4.2760518203495419 0.75470958851134928 0 0.65605901945558964 0.65605901945558964 0 -0.75470958851134928 1 I I #
point $-1 53.407922751743158 30.900286125535608 5.905314988835725 #
plane-surface $-1 54.132511368144776 0 0 -1 0 0 0 0 1 forward_v I I I I #
coedge $-1 $246 $244 $248 $345 reversed $161 $-1 #
edge $-1 $259 -8.2482780396675874 $347 8.2482780396675874 $258 $403 forward 7 unknown #
vertex $-1 $345 $404 #
straight-curve $-1 -54.132511368144776 -33.863919325129096 0 0 0 -1 I I #
edge $-1 $343 -33.863919325129096 $347 33.863919325129096 $341 $405 forward 7 unknown #
straight-curve $-1 0 -33.863919325129096 -8.2482780396675874 -1 0 0 I I #
vertex $-1 $251 $406 #
straight-curve $-1 0 33.863919325129096 -8.2482780396675874 1 0 0 I I #
point $-1 54.132511368144776 33.863919325129096 -8.2482780396675874 #
point $-1 54.132511368144776 -33.863919325129096 -8.2482780396675874 #
straight-curve $-1 -54.132511368144776 0 8.2482780396675874 0 -1 0 I I #
point $-1 -54.132511368144776 33.863919325129096 8.2482780396675874 #
point $-1 -54.132511368144776 -33.863919325129096 8.2482780396675874 #
straight-curve $-1 54.132511368144776 -33.863919325129096 0 0 0 -1 I I #
straight-curve $-1 54.132511368144776 33.863919325129096 0 0 0 -1 I I #
plane-surface $-1 54.132511368144776 0 0 -1 0 0 0 0 1 forward_v I I I I #
coedge $-1 $272 $271 $282 $368 reversed $109 $-1 #
coedge $-1 $407 $275 $272 $359 forward $269 $-1 #
edge $-1 $360 26.459952616155469 $408 33.863919325129096 $272 $409 forward 7 unknown #
vertex $-1 $359 $410 #
straight-curve $-1 -54.132511368144776 -26.459952616155469 3.125255859852504 0 0 -1 I I #
coedge $-1 $275 $407 $277 $364 forward $269 $-1 #
straight-curve $-1 0 -26.459952616155469 8.2482780396675874 -1 0 0 I I #
edge $-1 $371 -33.863919325129096 $278 -26.459952616155469 $277 $411 forward 7 unknown #
point $-1 54.132511368144776 -26.459952616155469 8.2482780396675892 #
straight-curve $-1 -54.132511368144776 -15.080967985321141 4.2527453997424276 0 -1 0 I I #
coedge $-1 $282 $281 $407 $412 reversed $180 $-1 #
edge $-1 $408 -8.2482780396675874 $283 -4.2527453997424276 $357 $413 forward 7 unknown #
point $-1 -54.132511368144776 -33.863919325129096 4.2527453997424276 #
point $-1 -54.132511368144776 -26.459952616155469 4.2527453997424276 #
vertex $-1 $364 $414 #
straight-curve $-1 54.132511368144776 -33.863919325129096 0 0 0 -1 I I #
coedge $-1 $374 $292 $380 $415 reversed $197 $-1 #
coedge $-1 $292 $373 $295 $378 reversed $197 $-1 #
edge $-1 $376 -19.525138712208847 $300 -9.1524225136316346 $299 $416 forward 7 unknown #
vertex $-1 $294 $417 #
straight-curve $-1 -43.738434474533292 33.863919325129096 17.028789100759525 -0.65605901945558975 0 -0.75470958851134939 I I #
edge $-1 $296 51.371216096430381 $382 54.132511368144776 $374 $418 forward 7 unknown #
point $-1 -51.371216096430381 33.863919325129089 8.2482780396675874 #
coedge $-1 $299 $298 $373 $415 forward $290 $-1 #
point $-1 -54.132511368144776 23.491203126551877 5.0717711150265217 #
vertex $-1 $378 $419 #
straight-curve $-1 -54.132511368144776 0 8.2482780396675874 0 -1 0 I I #
vertex $-1 $306 $420 #
point $-1 -49.353357699529901 26.454836326145369 5.0307614088608732 #
vertex $-1 $310 $421 #
point $-1 -49.353357699529901 30.900286125535608 5.0307614088608732 #
coedge $-1 $389 $316 $324 $394 reversed $219 $-1 #
coedge $-1 $317 $388 $319 $391 reversed $219 $-1 #
straight-curve $-1 54.132511368144776 23.491203126551877 78.904333266105368 0 0 -1 I I #
edge $-1 $320 23.491203126551877 $397 33.863919325129096 $389 $422 forward 7 unknown #
point $-1 54.132511368144776 23.491203126551877 8.2482780396675874 #
straight-curve $-1 54.132511368144776 14.338780612920242 5.0717711150265146 0 1 0 I I #
edge $-1 $397 -8.2482780396675874 $325 -5.0717711150265217 $388 $423 forward 7 unknown #
point $-1 54.132511368144776 33.863919325129089 5.0717711150265217 #
point $-1 54.132511368144776 23.491203126551877 5.0717711150265217 #
vertex $-1 $391 $424 #
straight-curve $-1 0 33.863919325129096 8.2482780396675874 -1 0 0 I I #
vertex $-1 $332 $425 #
point $-1 50.665475738441074 26.454836326145369 3.5213422318381924 #
vertex $-1 $336 $426 #
point $-1 50.665475738441074 30.900286125535608 3.5213422318381924 #
straight-curve $-1 -54.132511368144776 33.863919325129096 0 0 0 -1 I I #
point $-1 -54.132511368144776 -33.863919325129096 -8.2482780396675874 #
straight-curve $-1 -54.132511368144776 0 -8.2482780396675874 0 1 0 I I #
point $-1 -54.132511368144776 33.863919325129096 -8.2482780396675874 #
coedge $-1 $362 $358 $367 $412 forward $269 $-1 #
vertex $-1 $359 $427 #
straight-curve $-1 -54.132511368144776 0 8.2482780396675874 0 -1 0 I I #
point $-1 -54.132511368144776 -26.459952616155469 8.2482780396675892 #
straight-curve $-1 54.132511368144776 0 8.2482780396675874 0 1 0 I I #
edge $-1 $408 -54.132511368144776 $371 54.132511368144776 $367 $428 forward 7 unknown #
straight-curve $-1 -54.132511368144776 -33.863919325129096 0 0 0 -1 I I #
point $-1 54.132511368144776 -33.863919325129096 8.2482780396675874 #
edge $-1 $382 -8.2482780396675874 $376 -5.0717711150265217 $373 $429 forward 7 unknown #
straight-curve $-1 -54.132511368144776 14.338780612920242 5.071771115026519 0 -1 0 I I #
point $-1 -54.132511368144776 33.863919325129089 5.0717711150265217 #
straight-curve $-1 0 33.863919325129096 8.2482780396675874 -1 0 0 I I #
point $-1 -54.132511368144776 33.863919325129096 8.2482780396675874 #
point $-1 -49.254707130474145 26.454836326145369 3.6199928008939342 #
point $-1 -49.254707130474145 30.900286125535608 3.6199928008939342 #
straight-curve $-1 54.132511368144776 0 8.2482780396675874 0 1 0 I I #
straight-curve $-1 54.132511368144776 33.863919325129096 0 0 0 -1 I I #
point $-1 54.132511368144776 33.863919325129096 8.2482780396675874 #
point $-1 49.254707130474138 26.454836326145369 3.6199928008939519 #
point $-1 49.254707130474138 30.900286125535608 3.6199928008939519 #
point $-1 -54.132511368144776 -33.863919325129096 8.2482780396675874 #
straight-curve $-1 0 -33.863919325129096 8.2482780396675874 1 0 0 I I #
straight-curve $-1 -54.132511368144776 33.863919325129096 0 0 0 -1 I I #
End-of-ACIS-data 