500 0 5 0           
7 Unknown 11 ACIS 5.0 NT 24 Fri Mar 26 17:04:25 1999 
-1 9.9999999999999995e-007 1e-010 
body $-1 $5 $-1 $6 #
body $-1 $7 $-1 $8 #
body $-1 $9 $-1 $10 #
body $-1 $11 $-1 $12 #
body $-1 $13 $-1 $14 #
lump $-1 $-1 $15 $0 #
transform $-1 1 0 0 0 1 0 0 0 1 75.623645741141999 38.973399484283476 10.543644430932929 1 rotate no_reflect no_shear #
lump $-1 $-1 $16 $1 #
transform $-1 1 0 0 0 1 0 0 0 1 75.623645741141999 38.973399484283476 10.543644430932929 1 rotate no_reflect no_shear #
lump $-1 $-1 $17 $2 #
transform $-1 1 0 0 0 1 0 0 0 1 75.623645741141999 38.973399484283476 10.543644430932929 1 rotate no_reflect no_shear #
lump $-1 $-1 $18 $3 #
transform $-1 1 0 0 0 1 0 0 0 1 75.623645741141999 38.973399484283476 10.543644430932929 1 rotate no_reflect no_shear #
lump $-1 $-1 $19 $4 #
transform $-1 1 0 0 0 1 0 0 0 1 75.623645741141999 38.973399484283476 10.543644430932929 1 rotate no_reflect no_shear #
shell $-1 $-1 $-1 $20 $-1 $5 #
shell $-1 $-1 $-1 $21 $-1 $7 #
shell $-1 $-1 $-1 $22 $-1 $9 #
shell $-1 $-1 $-1 $23 $-1 $11 #
shell $-1 $-1 $-1 $24 $-1 $13 #
face $-1 $25 $26 $15 $-1 $27 forward single #
face $-1 $28 $29 $16 $-1 $30 reversed single #
face $-1 $31 $32 $17 $-1 $33 forward single #
face $-1 $34 $35 $18 $-1 $36 reversed single #
face $-1 $37 $38 $19 $-1 $39 reversed single #
face $-1 $40 $41 $15 $-1 $42 reversed single #
loop $-1 $-1 $43 $20 #
plane-surface $-1 0 0 10.543644430932929 0 0 1 1 0 0 forward_v I I I I #
face $-1 $44 $45 $16 $-1 $46 reversed single #
loop $-1 $-1 $47 $21 #
plane-surface $-1 -73.536314979735138 -46.820133671926911 0 0 1 0 0 0 1 forward_v I I I I #
face $-1 $48 $49 $17 $-1 $50 forward single #
loop $-1 $-1 $51 $22 #
plane-surface $-1 -191.48579417127391 -18.628981995329092 99.770959977844498 0 1 0 -0.7660444514056185 0 0.64278759981090561 forward_v I I I I #
face $-1 $52 $53 $18 $-1 $54 reversed single #
loop $-1 $55 $56 $23 #
cone-surface $-1 -71.533813001115035 -15.440312140704936 5.9293196135725266 0.7660444514056185 0 -0.64278759981090561 0.3213937999054528 0 0.38302222570280925 1 I I 0 1 0.5 forward I I I I #
face $-1 $57 $58 $19 $-1 $59 reversed single #
loop $-1 $60 $61 $24 #
cone-surface $-1 -71.533813001115035 -10.657307358768705 5.9293196135725266 0.7660444514056185 0 -0.64278759981090561 0.3213937999054528 0 0.38302222570280925 1 I I 0 1 0.5 forward I I I I #
face $-1 $62 $63 $15 $-1 $64 reversed single #
loop $-1 $-1 $65 $25 #
plane-surface $-1 0 0 -10.543644430932929 0 0 1 1 0 0 forward_v I I I I #
coedge $-1 $66 $67 $68 $69 forward $26 $-1 #
face $-1 $70 $71 $16 $-1 $72 reversed single #
loop $-1 $-1 $73 $28 #
plane-surface $-1 -71.448984218328278 -42.896766578105193 0 -1 0 0 0 0 1 forward_v I I I I #
coedge $-1 $74 $75 $76 $77 forward $29 $-1 #
face $-1 $78 $79 $17 $-1 $80 forward single #
loop $-1 $-1 $81 $31 #
plane-surface $-1 -75.623645741141985 -13.048809749736822 2.5510765080467337 -0.7660444514056185 0 0.64278759981090561 0.64278759981090561 0 0.7660444514056185 forward_v I I I I #
coedge $-1 $82 $83 $84 $85 reversed $32 $-1 #
face $-1 $86 $87 $18 $-1 $88 forward single #
loop $-1 $89 $90 $34 #
cone-surface $-1 -70.605749458570358 -15.440312140704936 5.1505818577024911 0.7660444514056185 0 -0.64278759981090561 0.1606968999527264 0 0.19151111285140462 1 I I -0.70710678118654746 0.70710678118654746 0.25 forward I I I I #
loop $-1 $-1 $91 $23 #
coedge $-1 $56 $56 $92 $93 reversed $35 $-1 #
face $-1 $94 $95 $19 $-1 $96 reversed single #
loop $-1 $97 $98 $37 #
cone-surface $-1 -70.605749458570358 -10.657307358768705 5.1505818577024911 0.7660444514056185 0 -0.64278759981090561 0.1606968999527264 0 0.19151111285140462 1 I I -0.70710678118654746 0.70710678118654746 0.25 forward I I I I #
loop $-1 $-1 $99 $24 #
coedge $-1 $61 $61 $100 $101 reversed $38 $-1 #
face $-1 $102 $103 $15 $-1 $104 reversed single #
loop $-1 $-1 $105 $40 #
plane-surface $-1 0 -38.973399484283476 0 0 1 0 0 0 1 forward_v I I I I #
coedge $-1 $106 $107 $108 $109 forward $41 $-1 #
coedge $-1 $110 $43 $111 $112 forward $26 $-1 #
coedge $-1 $43 $110 $113 $114 forward $26 $-1 #
coedge $-1 $115 $116 $43 $69 reversed $117 $-1 #
edge $-1 $118 -38.973399484283476 $119 38.973399484283476 $68 $120 forward 7 unknown #
face $-1 $121 $122 $16 $-1 $123 forward single #
loop $-1 $-1 $124 $44 #
plane-surface $-1 0 -38.973399484283476 0 0 1 0 0 0 1 forward_v I I I I #
coedge $-1 $125 $126 $127 $128 forward $45 $-1 #
coedge $-1 $127 $47 $129 $130 reversed $29 $-1 #
coedge $-1 $47 $127 $131 $132 reversed $29 $-1 #
coedge $-1 $133 $134 $47 $77 reversed $135 $-1 #
edge $-1 $136 -10.543644430932929 $137 10.543644430932929 $76 $138 forward 7 unknown #
face $-1 $139 $140 $17 $-1 $141 forward single #
loop $-1 $-1 $142 $48 #
plane-surface $-1 -191.48579417127391 -7.468637504144553 99.770959977844498 0 -1 0 0.7660444514056185 0 -0.64278759981090561 forward_v I I I I #
coedge $-1 $143 $144 $145 $146 reversed $49 $-1 #
coedge $-1 $83 $51 $144 $147 forward $32 $-1 #
coedge $-1 $51 $82 $148 $149 reversed $32 $-1 #
coedge $-1 $150 $145 $51 $85 forward $140 $-1 #
edge $-1 $151 -26.82581196516233 $152 -20.119251344494955 $84 $153 forward 7 unknown #
face $-1 $154 $155 $18 $-1 $156 forward single #
loop $-1 $-1 $157 $52 #
plane-surface $-1 -191.48579417127391 -18.628981995329092 99.770959977844498 0 1 0 -0.7660444514056185 0 0.64278759981090561 forward_v I I I I #
loop $-1 $-1 $158 $34 #
coedge $-1 $90 $90 $91 $159 forward $53 $-1 #
coedge $-1 $91 $91 $90 $159 reversed $55 $-1 #
coedge $-1 $92 $92 $56 $93 forward $155 $-1 #
edge $-1 $160 0 $160 6.2831853071796004 $92 $161 forward 7 unknown #
face $-1 $162 $163 $19 $-1 $164 reversed single #
loop $-1 $165 $166 $57 #
cone-surface $-1 -71.533813001115035 -15.440312140704936 5.9293196135725266 0.7660444514056185 0 -0.64278759981090561 0.3213937999054528 0 0.38302222570280925 1 I I 0 1 0.5 forward I I I I #
loop $-1 $-1 $167 $37 #
coedge $-1 $98 $98 $99 $168 forward $58 $-1 #
coedge $-1 $99 $99 $98 $168 reversed $60 $-1 #
coedge $-1 $100 $100 $61 $101 forward $169 $-1 #
edge $-1 $170 0 $170 6.2831853071796004 $100 $171 forward 7 unknown #
face $-1 $172 $173 $15 $-1 $174 reversed single #
loop $-1 $-1 $175 $62 #
plane-surface $-1 -75.623645741141999 0 0 1 0 0 0 0 -1 forward_v I I I I #
coedge $-1 $176 $113 $177 $178 forward $63 $-1 #
coedge $-1 $179 $65 $176 $180 forward $41 $-1 #
coedge $-1 $65 $179 $181 $182 forward $41 $-1 #
coedge $-1 $116 $115 $65 $109 reversed $117 $-1 #
edge $-1 $183 -38.973399484283476 $184 38.973399484283476 $108 $185 forward 7 unknown #
coedge $-1 $67 $66 $186 $187 forward $26 $-1 #
coedge $-1 $188 $189 $66 $112 reversed $173 $-1 #
edge $-1 $119 -75.623645741141999 $190 75.623645741141999 $111 $191 forward 7 unknown #
coedge $-1 $105 $192 $67 $114 reversed $63 $-1 #
edge $-1 $193 -75.623645741141999 $118 75.623645741141999 $113 $194 forward 7 unknown #
coedge $-1 $108 $68 $192 $195 forward $117 $-1 #
coedge $-1 $68 $108 $188 $196 reversed $117 $-1 #
loop $-1 $-1 $115 $172 #
vertex $-1 $69 $197 #
vertex $-1 $69 $198 #
straight-curve $-1 75.623645741141999 0 10.543644430932929 0 1 0 I I #
face $-1 $199 $200 $16 $-1 $201 reversed single #
loop $-1 $-1 $202 $70 #
plane-surface $-1 0 0 10.543644430932929 0 0 1 1 0 0 forward_v I I I I #
coedge $-1 $203 $204 $205 $206 forward $71 $-1 #
coedge $-1 $205 $73 $207 $208 reversed $45 $-1 #
coedge $-1 $73 $205 $209 $210 reversed $45 $-1 #
coedge $-1 $75 $74 $73 $128 reversed $29 $-1 #
edge $-1 $211 -10.543644430932929 $212 10.543644430932929 $73 $213 forward 7 unknown #
coedge $-1 $214 $207 $74 $130 forward $200 $-1 #
edge $-1 $212 -2.0873307614068608 $137 2.0873307614068608 $74 $215 forward 7 unknown #
coedge $-1 $209 $216 $75 $132 forward $122 $-1 #
edge $-1 $136 -2.0873307614068608 $211 2.0873307614068608 $75 $217 forward 7 unknown #
coedge $-1 $218 $76 $216 $219 reversed $135 $-1 #
coedge $-1 $76 $218 $214 $220 reversed $135 $-1 #
loop $-1 $-1 $218 $199 #
vertex $-1 $219 $221 #
vertex $-1 $220 $222 #
straight-curve $-1 -75.623645741141999 -46.820133671926911 0 0 0 -1 I I #
face $-1 $223 $224 $17 $-1 $225 reversed single #
loop $-1 $-1 $226 $78 #
plane-surface $-1 0 0 10.543644430932929 0 0 1 1 0 0 forward_v I I I I #
coedge $-1 $227 $228 $226 $229 reversed $79 $-1 #
coedge $-1 $230 $81 $228 $231 reversed $49 $-1 #
coedge $-1 $81 $230 $82 $147 reversed $49 $-1 #
coedge $-1 $84 $226 $81 $146 forward $140 $-1 #
edge $-1 $232 0.94423262927614182 $151 12.10457712046068 $145 $233 forward 7 unknown #
edge $-1 $151 -10.433556314154613 $234 2.2061860048766535e-014 $82 $235 forward 7 unknown #
coedge $-1 $236 $237 $83 $149 forward $238 $-1 #
edge $-1 $152 39.34183555798932 $234 47.33440348087553 $148 $239 forward 7 unknown #
coedge $-1 $240 $84 $237 $241 forward $140 $-1 #
vertex $-1 $146 $242 #
vertex $-1 $241 $243 #
straight-curve $-1 -95.742897085636955 -18.628981995329092 10.543644430932929 -1 0 0 I I #
face $-1 $244 $245 $18 $-1 $246 forward single #
loop $-1 $247 $92 $86 #
plane-surface $-1 -75.623645741141985 -13.048809749736822 2.5510765080467337 -0.7660444514056185 0 0.64278759981090561 0.64278759981090561 0 0.7660444514056185 forward_v I I I I #
coedge $-1 $248 $249 $250 $251 reversed $87 $-1 #
coedge $-1 $158 $158 $-1 $252 forward $89 $-1 #
edge $-1 $253 0 $253 6.2831853071796004 $90 $254 forward 7 unknown #
vertex $-1 $93 $255 #
ellipse-curve $-1 -72.270365430808312 -15.440312140704936 6.5473604694898286 0.7660444514056185 0 -0.64278759981090561 0.3213937999054528 0 0.38302222570280925 1 I I #
face $-1 $256 $257 $19 $-1 $258 forward single #
loop $-1 $259 $260 $94 #
cone-surface $-1 -70.605749458570358 -15.440312140704936 5.1505818577024911 0.7660444514056185 0 -0.64278759981090561 0.1606968999527264 0 0.19151111285140462 1 I I -0.70710678118654746 0.70710678118654746 0.25 forward I I I I #
loop $-1 $-1 $261 $57 #
coedge $-1 $166 $166 $262 $263 reversed $95 $-1 #
coedge $-1 $167 $167 $-1 $264 forward $97 $-1 #
edge $-1 $265 0 $265 6.2831853071796004 $98 $266 forward 7 unknown #
loop $-1 $267 $100 $256 #
vertex $-1 $101 $268 #
ellipse-curve $-1 -72.270365430808312 -10.657307358768705 6.5473604694898286 0.7660444514056185 0 -0.64278759981090561 0.3213937999054528 0 0.38302222570280925 1 I I #
face $-1 $-1 $117 $15 $-1 $269 reversed single #
loop $-1 $-1 $188 $102 #
plane-surface $-1 0 38.973399484283476 0 0 -1 0 0 0 -1 forward_v I I I I #
coedge $-1 $270 $186 $189 $271 forward $103 $-1 #
coedge $-1 $192 $105 $106 $180 reversed $63 $-1 #
coedge $-1 $186 $270 $105 $178 reversed $103 $-1 #
edge $-1 $193 -10.543644430932929 $272 10.543644430932929 $177 $273 forward 7 unknown #
coedge $-1 $107 $106 $270 $274 forward $41 $-1 #
edge $-1 $184 -75.623645741141999 $272 75.623645741141999 $176 $275 forward 7 unknown #
coedge $-1 $189 $188 $107 $182 reversed $173 $-1 #
edge $-1 $276 -75.623645741141999 $183 75.623645741141999 $181 $277 forward 7 unknown #
vertex $-1 $109 $278 #
vertex $-1 $195 $279 #
straight-curve $-1 75.623645741141999 0 -10.543644430932929 0 -1 0 I I #
coedge $-1 $175 $177 $110 $187 reversed $103 $-1 #
edge $-1 $190 -38.973399484283476 $193 38.973399484283476 $186 $280 forward 7 unknown #
coedge $-1 $181 $111 $116 $196 forward $173 $-1 #
coedge $-1 $111 $181 $175 $271 reversed $173 $-1 #
vertex $-1 $112 $281 #
straight-curve $-1 0 38.973399484283476 10.543644430932929 -1 0 0 I I #
coedge $-1 $113 $176 $115 $195 reversed $63 $-1 #
vertex $-1 $187 $282 #
straight-curve $-1 0 -38.973399484283476 10.543644430932929 1 0 0 I I #
edge $-1 $118 -10.543644430932929 $184 10.543644430932929 $115 $283 forward 7 unknown #
edge $-1 $119 -10.543644430932929 $183 10.543644430932929 $116 $284 forward 7 unknown #
point $-1 75.623645741141999 -38.973399484283476 10.543644430932929 #
point $-1 75.623645741141999 38.973399484283476 10.543644430932929 #
face $-1 $285 $135 $16 $-1 $286 reversed single #
loop $-1 $-1 $287 $121 #
plane-surface $-1 0 0 -10.543644430932929 0 0 1 1 0 0 forward_v I I I I #
coedge $-1 $288 $289 $290 $291 forward $122 $-1 #
coedge $-1 $292 $124 $293 $294 reversed $71 $-1 #
coedge $-1 $124 $292 $289 $295 reversed $71 $-1 #
coedge $-1 $126 $125 $124 $206 reversed $45 $-1 #
edge $-1 $296 -10.543644430932929 $297 10.543644430932929 $124 $298 forward 7 unknown #
coedge $-1 $129 $293 $125 $208 forward $200 $-1 #
edge $-1 $297 -3.9233670938217173 $212 3.9233670938217173 $125 $299 forward 7 unknown #
coedge $-1 $289 $131 $126 $210 forward $122 $-1 #
edge $-1 $211 -3.9233670938217173 $296 3.9233670938217173 $126 $300 forward 7 unknown #
vertex $-1 $210 $301 #
vertex $-1 $128 $302 #
straight-curve $-1 -71.448984218328278 -46.820133671926911 0 0 0 -1 I I #
coedge $-1 $303 $129 $134 $220 forward $200 $-1 #
straight-curve $-1 -73.536314979735138 -46.820133671926911 -10.543644430932929 -1 0 0 I I #
coedge $-1 $131 $288 $133 $219 forward $122 $-1 #
straight-curve $-1 -73.536314979735138 -46.820133671926911 10.543644430932929 1 0 0 I I #
coedge $-1 $134 $133 $304 $305 forward $135 $-1 #
edge $-1 $306 -38.973399484283476 $136 46.820133671926911 $133 $307 forward 7 unknown #
edge $-1 $137 -46.820133671926911 $308 38.973399484283476 $134 $309 forward 7 unknown #
point $-1 -75.623645741141999 -46.820133671926911 10.543644430932929 #
point $-1 -75.623645741141999 -46.820133671926911 -10.543644430932929 #
face $-1 $310 $311 $17 $-1 $312 reversed single #
loop $-1 $-1 $313 $139 #
plane-surface $-1 -73.536314979735138 -46.820133671926911 0 0 1 0 0 0 1 forward_v I I I I #
coedge $-1 $145 $314 $142 $229 forward $140 $-1 #
coedge $-1 $228 $142 $315 $316 reversed $79 $-1 #
coedge $-1 $142 $227 $143 $231 forward $79 $-1 #
edge $-1 $317 20.119251344494955 $232 26.82581196516233 $226 $318 forward 7 unknown #
coedge $-1 $144 $143 $236 $319 reversed $49 $-1 #
edge $-1 $320 -2.2061860048766535e-014 $232 10.433556314154613 $228 $321 forward 7 unknown #
vertex $-1 $146 $322 #
straight-curve $-1 -68.917085120474624 -6.5244048748684111 10.543644430932929 0 -1 0 I I #
vertex $-1 $319 $323 #
straight-curve $-1 -75.623645741141985 -18.628981995329092 2.5510765080467337 -0.64278759981090561 0 -0.7660444514056185 I I #
coedge $-1 $315 $148 $230 $319 forward $238 $-1 #
coedge $-1 $148 $324 $150 $241 reversed $238 $-1 #
loop $-1 $-1 $315 $325 #
straight-curve $-1 -75.623645741141999 -18.628981995329092 49.885479988922249 0 0 -1 I I #
coedge $-1 $326 $150 $327 $328 forward $140 $-1 #
edge $-1 $152 18.628981995329092 $329 46.820133671926911 $237 $330 forward 7 unknown #
point $-1 -68.917085120474624 -18.628981995329092 10.543644430932929 #
point $-1 -75.623645741141999 -18.628981995329092 10.543644430932929 #
face $-1 $331 $332 $18 $-1 $333 forward single #
loop $-1 $-1 $334 $154 #
plane-surface $-1 -191.48579417127391 -7.468637504144553 99.770959977844498 0 -1 0 0.7660444514056185 0 -0.64278759981090561 forward_v I I I I #
loop $-1 $-1 $335 $86 #
coedge $-1 $249 $157 $336 $337 forward $87 $-1 #
coedge $-1 $157 $248 $338 $339 reversed $87 $-1 #
coedge $-1 $340 $341 $157 $251 forward $332 $-1 #
edge $-1 $342 -26.82581196516233 $343 -20.119251344494955 $250 $344 forward 7 unknown #
edge $-1 $345 1 $345 0 $158 $-1 forward 7 unknown #
vertex $-1 $159 $346 #
ellipse-curve $-1 -70.797260571421759 -15.440312140704936 5.3112787576552174 -0.7660444514056185 0 0.64278759981090561 0.3213937999054528 0 0.38302222570280925 1 I I #
point $-1 -71.948971630902875 -15.440312140704936 6.9303826951926464 #
face $-1 $347 $169 $19 $-1 $348 forward single #
loop $-1 $-1 $349 $162 #
plane-surface $-1 -191.48579417127391 -18.628981995329092 99.770959977844498 0 1 0 -0.7660444514056185 0 0.64278759981090561 forward_v I I I I #
loop $-1 $-1 $350 $94 #
coedge $-1 $260 $260 $261 $351 forward $163 $-1 #
coedge $-1 $261 $261 $260 $351 reversed $165 $-1 #
coedge $-1 $262 $262 $166 $263 forward $267 $-1 #
edge $-1 $352 0 $352 6.2831853071796004 $262 $353 forward 7 unknown #
edge $-1 $354 1 $354 0 $167 $-1 forward 7 unknown #
vertex $-1 $168 $355 #
ellipse-curve $-1 -70.797260571421759 -10.657307358768705 5.3112787576552174 -0.7660444514056185 0 0.64278759981090561 0.3213937999054528 0 0.38302222570280925 1 I I #
loop $-1 $356 $262 $256 #
point $-1 -71.948971630902875 -10.657307358768705 6.9303826951926464 #
plane-surface $-1 75.623645741141999 0 0 -1 0 0 0 0 1 forward_v I I I I #
coedge $-1 $177 $175 $179 $274 reversed $103 $-1 #
edge $-1 $190 -10.543644430932929 $276 10.543644430932929 $189 $357 forward 7 unknown #
vertex $-1 $274 $358 #
straight-curve $-1 -75.623645741141999 -38.973399484283476 0 0 0 -1 I I #
edge $-1 $272 -38.973399484283476 $276 38.973399484283476 $270 $359 forward 7 unknown #
straight-curve $-1 0 -38.973399484283476 -10.543644430932929 -1 0 0 I I #
vertex $-1 $182 $360 #
straight-curve $-1 0 38.973399484283476 -10.543644430932929 1 0 0 I I #
point $-1 75.623645741141999 38.973399484283476 -10.543644430932929 #
point $-1 75.623645741141999 -38.973399484283476 -10.543644430932929 #
straight-curve $-1 -75.623645741141999 0 10.543644430932929 0 -1 0 I I #
point $-1 -75.623645741141999 38.973399484283476 10.543644430932929 #
point $-1 -75.623645741141999 -38.973399484283476 10.543644430932929 #
straight-curve $-1 75.623645741141999 -38.973399484283476 0 0 0 -1 I I #
straight-curve $-1 75.623645741141999 38.973399484283476 0 0 0 -1 I I #
face $-1 $361 $362 $16 $-1 $363 reversed single #
plane-surface $-1 -75.623645741141999 0 0 1 0 0 0 0 -1 forward_v I I I I #
coedge $-1 $293 $303 $364 $365 forward $200 $-1 #
coedge $-1 $216 $202 $366 $367 forward $122 $-1 #
coedge $-1 $202 $209 $204 $295 forward $122 $-1 #
coedge $-1 $368 $369 $202 $291 reversed $370 $-1 #
edge $-1 $371 -38.973399484283476 $372 38.973399484283476 $290 $373 forward 7 unknown #
coedge $-1 $204 $203 $368 $374 reversed $71 $-1 #
coedge $-1 $207 $287 $203 $294 forward $200 $-1 #
edge $-1 $375 -75.623645741141999 $297 71.448984218328278 $203 $376 forward 7 unknown #
edge $-1 $296 -71.448984218328278 $371 75.623645741141999 $204 $377 forward 7 unknown #
vertex $-1 $295 $378 #
vertex $-1 $208 $379 #
straight-curve $-1 -71.448984218328278 -38.973399484283476 0 0 0 -1 I I #
straight-curve $-1 -71.448984218328278 -42.896766578105193 -10.543644430932929 0 -1 0 I I #
straight-curve $-1 -71.448984218328278 -42.896766578105193 10.543644430932929 0 1 0 I I #
point $-1 -71.448984218328278 -46.820133671926911 10.543644430932929 #
point $-1 -71.448984218328278 -46.820133671926911 -10.543644430932929 #
coedge $-1 $287 $214 $380 $381 forward $200 $-1 #
coedge $-1 $366 $380 $218 $305 reversed $362 $-1 #
edge $-1 $306 -10.543644430932929 $308 10.543644430932929 $304 $382 forward 7 unknown #
vertex $-1 $367 $383 #
straight-curve $-1 -75.623645741141999 0 10.543644430932929 0 -1 0 I I #
vertex $-1 $381 $384 #
straight-curve $-1 -75.623645741141999 0 -10.543644430932929 0 1 0 I I #
face $-1 $385 $386 $17 $-1 $387 reversed single #
loop $-1 $-1 $388 $223 #
plane-surface $-1 -71.448984218328278 -42.896766578105193 0 -1 0 0 0 0 1 forward_v I I I I #
coedge $-1 $389 $327 $324 $390 forward $224 $-1 #
coedge $-1 $226 $391 $392 $393 forward $140 $-1 #
coedge $-1 $392 $236 $227 $316 forward $238 $-1 #
edge $-1 $320 -47.33440348087553 $317 -39.34183555798932 $315 $394 forward 7 unknown #
vertex $-1 $316 $395 #
straight-curve $-1 -95.742897085636955 -7.468637504144553 10.543644430932929 1 0 0 I I #
edge $-1 $234 -12.10457712046068 $320 -0.94423262927614182 $236 $396 forward 7 unknown #
vertex $-1 $319 $397 #
straight-curve $-1 -75.623645741141985 -7.468637504144553 2.5510765080467337 0.64278759981090561 0 0.7660444514056185 I I #
point $-1 -68.917085120474624 -7.468637504144553 10.543644430932929 #
point $-1 -75.623645741141999 -18.628981995329092 2.5510765080467168 #
coedge $-1 $237 $398 $313 $390 reversed $238 $-1 #
face $-1 $399 $238 $17 $-1 $400 reversed single #
coedge $-1 $401 $240 $402 $403 forward $140 $-1 #
coedge $-1 $313 $404 $240 $328 reversed $224 $-1 #
edge $-1 $329 -2.0873307614068608 $405 2.0873307614068608 $327 $406 forward 7 unknown #
vertex $-1 $241 $407 #
straight-curve $-1 -75.623645741141999 0 10.543644430932929 0 -1 0 I I #
face $-1 $408 $409 $18 $-1 $410 reversed single #
loop $-1 $-1 $411 $244 #
plane-surface $-1 0 0 10.543644430932929 0 0 1 1 0 0 forward_v I I I I #
coedge $-1 $412 $413 $411 $414 reversed $245 $-1 #
coedge $-1 $415 $336 $341 $416 reversed $247 $-1 #
coedge $-1 $335 $417 $248 $337 reversed $247 $-1 #
edge $-1 $342 -10.433556314154613 $418 2.2061860048766535e-014 $248 $419 forward 7 unknown #
coedge $-1 $420 $421 $249 $339 forward $422 $-1 #
edge $-1 $343 39.34183555798932 $418 47.33440348087553 $338 $423 forward 7 unknown #
coedge $-1 $424 $250 $421 $425 forward $332 $-1 #
coedge $-1 $250 $411 $335 $416 forward $332 $-1 #
vertex $-1 $416 $426 #
vertex $-1 $425 $427 #
straight-curve $-1 -95.742897085636955 -18.628981995329092 10.543644430932929 -1 0 0 I I #
vertex $-1 $252 $428 #
point $-1 -70.475866771516309 -15.440312140704936 5.6943009833580263 #
face $-1 $429 $430 $19 $-1 $431 forward single #
plane-surface $-1 -75.623645741141985 -13.048809749736822 2.5510765080467337 -0.7660444514056185 0 0.64278759981090561 0.64278759981090561 0 0.7660444514056185 forward_v I I I I #
coedge $-1 $432 $433 $434 $435 reversed $257 $-1 #
coedge $-1 $350 $350 $-1 $436 forward $259 $-1 #
edge $-1 $437 0 $437 6.2831853071796004 $260 $438 forward 7 unknown #
vertex $-1 $263 $439 #
ellipse-curve $-1 -72.270365430808312 -15.440312140704936 6.5473604694898286 0.7660444514056185 0 -0.64278759981090561 0.3213937999054528 0 0.38302222570280925 1 I I #
vertex $-1 $264 $440 #
point $-1 -70.475866771516309 -10.657307358768705 5.6943009833580263 #
loop $-1 $-1 $441 $256 #
straight-curve $-1 -75.623645741141999 38.973399484283476 0 0 0 -1 I I #
point $-1 -75.623645741141999 -38.973399484283476 -10.543644430932929 #
straight-curve $-1 -75.623645741141999 0 -10.543644430932929 0 1 0 I I #
point $-1 -75.623645741141999 38.973399484283476 -10.543644430932929 #
face $-1 $-1 $370 $16 $-1 $442 reversed single #
loop $-1 $-1 $443 $285 #
plane-surface $-1 0 38.973399484283476 0 0 -1 0 0 0 -1 forward_v I I I I #
coedge $-1 $369 $368 $287 $365 reversed $370 $-1 #
edge $-1 $444 -38.973399484283476 $375 38.973399484283476 $364 $445 forward 7 unknown #
coedge $-1 $443 $304 $288 $367 reversed $362 $-1 #
edge $-1 $372 -75.623645741141999 $306 75.623645741141999 $366 $446 forward 7 unknown #
coedge $-1 $364 $290 $292 $374 forward $370 $-1 #
coedge $-1 $290 $364 $443 $447 reversed $370 $-1 #
loop $-1 $-1 $368 $361 #
vertex $-1 $291 $448 #
vertex $-1 $291 $449 #
straight-curve $-1 75.623645741141999 0 10.543644430932929 0 1 0 I I #
edge $-1 $371 -10.543644430932929 $375 10.543644430932929 $368 $450 forward 7 unknown #
vertex $-1 $374 $451 #
straight-curve $-1 0 -38.973399484283476 -10.543644430932929 -1 0 0 I I #
straight-curve $-1 0 -38.973399484283476 10.543644430932929 1 0 0 I I #
point $-1 -71.448984218328278 -38.973399484283476 10.543644430932929 #
point $-1 -71.448984218328278 -38.973399484283476 -10.543644430932929 #
coedge $-1 $304 $443 $303 $381 reversed $362 $-1 #
edge $-1 $308 -75.623645741141999 $444 75.623645741141999 $380 $452 forward 7 unknown #
straight-curve $-1 -75.623645741141999 38.973399484283476 0 0 0 -1 I I #
point $-1 -75.623645741141999 38.973399484283476 10.543644430932929 #
point $-1 -75.623645741141999 38.973399484283476 -10.543644430932929 #
face $-1 $325 $453 $17 $-1 $454 reversed single #
loop $-1 $-1 $455 $310 #
plane-surface $-1 0 -38.973399484283476 0 0 1 0 0 0 1 forward_v I I I I #
coedge $-1 $456 $402 $404 $457 forward $311 $-1 #
coedge $-1 $404 $313 $458 $459 reversed $224 $-1 #
edge $-1 $329 -10.543644430932929 $460 10.543644430932929 $324 $461 forward 7 unknown #
coedge $-1 $314 $462 $463 $464 forward $140 $-1 #
coedge $-1 $465 $315 $314 $393 reversed $238 $-1 #
edge $-1 $466 -38.973399484283476 $317 7.468637504144553 $392 $330 forward 7 unknown #
straight-curve $-1 -75.623645741141999 -7.468637504144553 49.885479988922249 0 0 1 I I #
point $-1 -75.623645741141999 -7.468637504144553 10.543644430932929 #
straight-curve $-1 -75.623645741141999 -6.5244048748684111 2.5510765080466999 0 1 0 I I #
point $-1 -75.623645741141999 -7.468637504144553 2.5510765080467168 #
coedge $-1 $324 $465 $467 $468 reversed $238 $-1 #
face $-1 $469 $470 $17 $-1 $471 reversed single #
plane-surface $-1 -75.623645741141999 0 0 1 0 0 0 0 -1 forward_v I I I I #
coedge $-1 $462 $326 $472 $473 forward $140 $-1 #
coedge $-1 $388 $474 $326 $403 reversed $311 $-1 #
edge $-1 $405 -3.9233670938217173 $475 3.9233670938217173 $402 $476 forward 7 unknown #
coedge $-1 $327 $389 $388 $457 reversed $224 $-1 #
vertex $-1 $403 $477 #
straight-curve $-1 -73.536314979735138 -46.820133671926911 10.543644430932929 1 0 0 I I #
point $-1 -75.623645741141999 -46.820133671926911 10.543644430932929 #
face $-1 $478 $479 $18 $-1 $480 reversed single #
loop $-1 $-1 $481 $331 #
plane-surface $-1 -73.536314979735138 -46.820133671926911 0 0 1 0 0 0 1 forward_v I I I I #
coedge $-1 $341 $482 $334 $414 forward $332 $-1 #
coedge $-1 $413 $334 $483 $484 reversed $245 $-1 #
coedge $-1 $334 $412 $415 $485 forward $245 $-1 #
edge $-1 $486 20.119251344494955 $487 26.82581196516233 $411 $488 forward 7 unknown #
coedge $-1 $417 $335 $413 $485 reversed $247 $-1 #
edge $-1 $487 0.94423262927614182 $342 12.10457712046068 $341 $489 forward 7 unknown #
coedge $-1 $336 $415 $420 $490 reversed $247 $-1 #
vertex $-1 $490 $491 #
straight-curve $-1 -75.623645741141985 -18.628981995329092 2.5510765080467337 -0.64278759981090561 0 -0.7660444514056185 I I #
coedge $-1 $483 $338 $417 $490 forward $422 $-1 #
coedge $-1 $338 $492 $340 $425 reversed $422 $-1 #
loop $-1 $-1 $483 $493 #
straight-curve $-1 -75.623645741141999 -18.628981995329092 49.885479988922249 0 0 -1 I I #
coedge $-1 $494 $340 $495 $496 forward $332 $-1 #
edge $-1 $343 18.628981995329092 $497 46.820133671926911 $421 $498 forward 7 unknown #
point $-1 -68.917085120474624 -18.628981995329092 10.543644430932929 #
point $-1 -75.623645741141999 -18.628981995329092 10.543644430932929 #
point $-1 -70.414238345718957 -15.440312140704936 4.9898849577497648 #
face $-1 $499 $500 $19 $-1 $501 forward single #
loop $-1 $-1 $502 $347 #
plane-surface $-1 -191.48579417127391 -7.468637504144553 99.770959977844498 0 -1 0 0.7660444514056185 0 -0.64278759981090561 forward_v I I I I #
coedge $-1 $433 $349 $503 $504 forward $257 $-1 #
coedge $-1 $349 $432 $505 $506 reversed $257 $-1 #
coedge $-1 $507 $508 $349 $435 forward $500 $-1 #
edge $-1 $509 -26.82581196516233 $510 -20.119251344494955 $434 $511 forward 7 unknown #
edge $-1 $512 1 $512 0 $350 $-1 forward 7 unknown #
vertex $-1 $351 $513 #
ellipse-curve $-1 -70.797260571421759 -15.440312140704936 5.3112787576552174 -0.7660444514056185 0 0.64278759981090561 0.3213937999054528 0 0.38302222570280925 1 I I #
point $-1 -71.948971630902875 -15.440312140704936 6.9303826951926464 #
point $-1 -70.414238345718957 -10.657307358768705 4.9898849577497648 #
coedge $-1 $514 $503 $508 $515 reversed $356 $-1 #
plane-surface $-1 75.623645741141999 0 0 -1 0 0 0 0 1 forward_v I I I I #
coedge $-1 $380 $366 $369 $447 forward $362 $-1 #
vertex $-1 $365 $516 #
straight-curve $-1 75.623645741141999 0 -10.543644430932929 0 -1 0 I I #
straight-curve $-1 0 38.973399484283476 10.543644430932929 -1 0 0 I I #
edge $-1 $372 -10.543644430932929 $444 10.543644430932929 $369 $517 forward 7 unknown #
point $-1 75.623645741141999 -38.973399484283476 10.543644430932929 #
point $-1 75.623645741141999 38.973399484283476 10.543644430932929 #
straight-curve $-1 75.623645741141999 -38.973399484283476 0 0 0 -1 I I #
point $-1 75.623645741141999 -38.973399484283476 -10.543644430932929 #
straight-curve $-1 0 38.973399484283476 -10.543644430932929 1 0 0 I I #
loop $-1 $-1 $518 $385 #
plane-surface $-1 0 0 -10.543644430932929 0 0 1 1 0 0 forward_v I I I I #
coedge $-1 $519 $472 $474 $520 forward $386 $-1 #
coedge $-1 $474 $388 $521 $522 reversed $311 $-1 #
edge $-1 $405 -10.543644430932929 $523 10.543644430932929 $388 $524 forward 7 unknown #
coedge $-1 $467 $521 $389 $459 forward $453 $-1 #
edge $-1 $523 -2.0873307614068608 $460 2.0873307614068608 $389 $525 forward 7 unknown #
vertex $-1 $468 $526 #
straight-curve $-1 -75.623645741141999 -46.820133671926911 0 0 0 -1 I I #
coedge $-1 $391 $401 $527 $528 forward $140 $-1 #
coedge $-1 $529 $530 $391 $464 reversed $470 $-1 #
edge $-1 $531 -75.623645741141999 $466 75.623645741141999 $463 $532 forward 7 unknown #
coedge $-1 $398 $392 $530 $533 forward $238 $-1 #
vertex $-1 $464 $534 #
coedge $-1 $535 $458 $398 $468 forward $453 $-1 #
edge $-1 $460 -46.820133671926911 $536 38.973399484283476 $398 $537 forward 7 unknown #
face $-1 $-1 $538 $17 $-1 $539 reversed single #
loop $-1 $-1 $529 $399 #
plane-surface $-1 0 38.973399484283476 0 0 -1 0 0 0 -1 forward_v I I I I #
coedge $-1 $455 $540 $401 $473 reversed $386 $-1 #
edge $-1 $475 -71.448984218328278 $541 75.623645741141999 $472 $542 forward 7 unknown #
coedge $-1 $402 $456 $455 $520 reversed $311 $-1 #
vertex $-1 $473 $543 #
straight-curve $-1 -71.448984218328278 -42.896766578105193 10.543644430932929 0 1 0 I I #
point $-1 -71.448984218328278 -46.820133671926911 10.543644430932929 #
face $-1 $544 $545 $18 $-1 $546 reversed single #
loop $-1 $-1 $547 $408 #
plane-surface $-1 -71.448984218328278 -42.896766578105193 0 -1 0 0 0 0 1 forward_v I I I I #
coedge $-1 $548 $495 $492 $549 forward $409 $-1 #
coedge $-1 $411 $550 $551 $552 forward $332 $-1 #
coedge $-1 $551 $420 $412 $484 forward $422 $-1 #
edge $-1 $553 -47.33440348087553 $486 -39.34183555798932 $483 $554 forward 7 unknown #
edge $-1 $553 -2.2061860048766535e-014 $487 10.433556314154613 $413 $555 forward 7 unknown #
vertex $-1 $484 $556 #
vertex $-1 $416 $557 #
straight-curve $-1 -95.742897085636955 -7.468637504144553 10.543644430932929 1 0 0 I I #
straight-curve $-1 -68.917085120474624 -6.5244048748684111 10.543644430932929 0 -1 0 I I #
edge $-1 $418 -12.10457712046068 $553 -0.94423262927614182 $420 $558 forward 7 unknown #
point $-1 -75.623645741141999 -18.628981995329092 2.5510765080467168 #
coedge $-1 $421 $559 $481 $549 reversed $422 $-1 #
face $-1 $560 $422 $18 $-1 $561 reversed single #
coedge $-1 $562 $424 $563 $564 forward $332 $-1 #
coedge $-1 $481 $565 $424 $496 reversed $409 $-1 #
edge $-1 $497 -2.0873307614068608 $566 2.0873307614068608 $495 $567 forward 7 unknown #
vertex $-1 $425 $568 #
straight-curve $-1 -75.623645741141999 0 10.543644430932929 0 -1 0 I I #
face $-1 $569 $570 $19 $-1 $571 reversed single #
loop $-1 $-1 $572 $429 #
plane-surface $-1 0 0 10.543644430932929 0 0 1 1 0 0 forward_v I I I I #
coedge $-1 $573 $574 $572 $575 reversed $430 $-1 #
coedge $-1 $441 $576 $432 $504 reversed $356 $-1 #
edge $-1 $509 -10.433556314154613 $577 2.2061860048766535e-014 $432 $578 forward 7 unknown #
coedge $-1 $579 $580 $433 $506 forward $581 $-1 #
edge $-1 $510 39.34183555798932 $577 47.33440348087553 $505 $582 forward 7 unknown #
coedge $-1 $583 $434 $580 $584 forward $500 $-1 #
coedge $-1 $434 $572 $441 $515 forward $500 $-1 #
vertex $-1 $515 $585 #
vertex $-1 $584 $586 #
straight-curve $-1 -95.742897085636955 -18.628981995329092 10.543644430932929 -1 0 0 I I #
vertex $-1 $436 $587 #
point $-1 -70.475866771516309 -15.440312140704936 5.6943009833580263 #
coedge $-1 $576 $441 $574 $588 reversed $356 $-1 #
edge $-1 $589 0.94423262927614182 $509 12.10457712046068 $508 $590 forward 7 unknown #
point $-1 75.623645741141999 38.973399484283476 -10.543644430932929 #
straight-curve $-1 75.623645741141999 38.973399484283476 0 0 0 -1 I I #
coedge $-1 $591 $535 $592 $593 forward $453 $-1 #
coedge $-1 $540 $455 $591 $594 reversed $386 $-1 #
edge $-1 $475 -10.543644430932929 $595 10.543644430932929 $455 $596 forward 7 unknown #
coedge $-1 $458 $591 $456 $522 forward $453 $-1 #
edge $-1 $595 -3.9233670938217173 $523 3.9233670938217173 $456 $597 forward 7 unknown #
vertex $-1 $457 $598 #
straight-curve $-1 -71.448984218328278 -46.820133671926911 0 0 0 -1 I I #
straight-curve $-1 -73.536314979735138 -46.820133671926911 -10.543644430932929 -1 0 0 I I #
point $-1 -75.623645741141999 -46.820133671926911 -10.543644430932929 #
coedge $-1 $599 $600 $462 $528 reversed $538 $-1 #
edge $-1 $541 -38.973399484283476 $531 38.973399484283476 $527 $601 forward 7 unknown #
coedge $-1 $602 $463 $600 $603 forward $470 $-1 #
coedge $-1 $463 $602 $465 $533 reversed $470 $-1 #
vertex $-1 $528 $604 #
straight-curve $-1 0 38.973399484283476 10.543644430932929 -1 0 0 I I #
edge $-1 $466 -10.543644430932929 $536 10.543644430932929 $530 $605 forward 7 unknown #
point $-1 -75.623645741141999 38.973399484283476 10.543644430932929 #
coedge $-1 $518 $467 $602 $606 forward $453 $-1 #
vertex $-1 $606 $607 #
straight-curve $-1 -75.623645741141999 0 -10.543644430932929 0 1 0 I I #
loop $-1 $-1 $599 $469 #
plane-surface $-1 75.623645741141999 0 0 -1 0 0 0 0 1 forward_v I I I I #
coedge $-1 $472 $519 $599 $608 reversed $386 $-1 #
vertex $-1 $528 $609 #
straight-curve $-1 0 -38.973399484283476 10.543644430932929 1 0 0 I I #
point $-1 -71.448984218328278 -38.973399484283476 10.543644430932929 #
face $-1 $493 $610 $18 $-1 $611 reversed single #
loop $-1 $-1 $612 $478 #
plane-surface $-1 0 -38.973399484283476 0 0 1 0 0 0 1 forward_v I I I I #
coedge $-1 $613 $563 $565 $614 forward $479 $-1 #
coedge $-1 $565 $481 $615 $616 reversed $409 $-1 #
edge $-1 $497 -10.543644430932929 $617 10.543644430932929 $492 $618 forward 7 unknown #
coedge $-1 $482 $619 $620 $621 forward $332 $-1 #
coedge $-1 $622 $483 $482 $552 reversed $422 $-1 #
edge $-1 $623 -38.973399484283476 $486 7.468637504144553 $551 $498 forward 7 unknown #
vertex $-1 $490 $624 #
straight-curve $-1 -75.623645741141999 -7.468637504144553 49.885479988922249 0 0 1 I I #
straight-curve $-1 -75.623645741141985 -7.468637504144553 2.5510765080467337 0.64278759981090561 0 0.7660444514056185 I I #
point $-1 -75.623645741141999 -7.468637504144553 10.543644430932929 #
point $-1 -68.917085120474624 -7.468637504144553 10.543644430932929 #
straight-curve $-1 -75.623645741141999 -6.5244048748684111 2.5510765080466999 0 1 0 I I #
coedge $-1 $492 $622 $625 $626 reversed $422 $-1 #
face $-1 $627 $628 $18 $-1 $629 reversed single #
plane-surface $-1 -75.623645741141999 0 0 1 0 0 0 0 -1 forward_v I I I I #
coedge $-1 $619 $494 $630 $631 forward $332 $-1 #
coedge $-1 $547 $632 $494 $564 reversed $479 $-1 #
edge $-1 $566 -3.9233670938217173 $633 3.9233670938217173 $563 $634 forward 7 unknown #
coedge $-1 $495 $548 $547 $614 reversed $409 $-1 #
vertex $-1 $564 $635 #
straight-curve $-1 -73.536314979735138 -46.820133671926911 10.543644430932929 1 0 0 I I #
point $-1 -75.623645741141999 -46.820133671926911 10.543644430932929 #
face $-1 $636 $637 $19 $-1 $638 reversed single #
loop $-1 $-1 $639 $499 #
plane-surface $-1 -73.536314979735138 -46.820133671926911 0 0 1 0 0 0 1 forward_v I I I I #
coedge $-1 $508 $640 $502 $575 forward $500 $-1 #
coedge $-1 $574 $502 $641 $642 reversed $430 $-1 #
coedge $-1 $502 $573 $514 $588 forward $430 $-1 #
edge $-1 $643 20.119251344494955 $589 26.82581196516233 $572 $644 forward 7 unknown #
coedge $-1 $503 $514 $579 $645 reversed $356 $-1 #
vertex $-1 $645 $646 #
straight-curve $-1 -75.623645741141985 -18.628981995329092 2.5510765080467337 -0.64278759981090561 0 -0.7660444514056185 I I #
coedge $-1 $641 $505 $576 $645 forward $581 $-1 #
coedge $-1 $505 $647 $507 $584 reversed $581 $-1 #
loop $-1 $-1 $641 $648 #
straight-curve $-1 -75.623645741141999 -18.628981995329092 49.885479988922249 0 0 -1 I I #
coedge $-1 $649 $507 $650 $651 forward $500 $-1 #
edge $-1 $510 18.628981995329092 $652 46.820133671926911 $580 $653 forward 7 unknown #
point $-1 -68.917085120474624 -18.628981995329092 10.543644430932929 #
point $-1 -75.623645741141999 -18.628981995329092 10.543644430932929 #
point $-1 -70.414238345718957 -15.440312140704936 4.9898849577497648 #
edge $-1 $654 -2.2061860048766535e-014 $589 10.433556314154613 $574 $655 forward 7 unknown #
vertex $-1 $515 $656 #
straight-curve $-1 -68.917085120474624 -6.5244048748684111 10.543644430932929 0 -1 0 I I #
coedge $-1 $521 $518 $519 $594 forward $453 $-1 #
coedge $-1 $600 $599 $518 $593 reversed $538 $-1 #
edge $-1 $657 -38.973399484283476 $658 38.973399484283476 $592 $659 forward 7 unknown #
edge $-1 $658 -75.623645741141999 $595 71.448984218328278 $519 $660 forward 7 unknown #
vertex $-1 $522 $661 #
straight-curve $-1 -71.448984218328278 -38.973399484283476 0 0 0 -1 I I #
straight-curve $-1 -71.448984218328278 -42.896766578105193 -10.543644430932929 0 -1 0 I I #
point $-1 -71.448984218328278 -46.820133671926911 -10.543644430932929 #
coedge $-1 $592 $527 $540 $608 forward $538 $-1 #
coedge $-1 $527 $592 $529 $603 reversed $538 $-1 #
straight-curve $-1 75.623645741141999 0 10.543644430932929 0 1 0 I I #
coedge $-1 $530 $529 $535 $606 reversed $470 $-1 #
edge $-1 $531 -10.543644430932929 $657 10.543644430932929 $600 $662 forward 7 unknown #
point $-1 75.623645741141999 38.973399484283476 10.543644430932929 #
straight-curve $-1 -75.623645741141999 38.973399484283476 0 0 0 -1 I I #
edge $-1 $536 -75.623645741141999 $657 75.623645741141999 $602 $663 forward 7 unknown #
point $-1 -75.623645741141999 38.973399484283476 -10.543644430932929 #
edge $-1 $541 -10.543644430932929 $658 10.543644430932929 $599 $664 forward 7 unknown #
point $-1 75.623645741141999 -38.973399484283476 10.543644430932929 #
loop $-1 $-1 $665 $544 #
plane-surface $-1 0 0 -10.543644430932929 0 0 1 1 0 0 forward_v I I I I #
coedge $-1 $666 $630 $632 $667 forward $545 $-1 #
coedge $-1 $632 $547 $668 $669 reversed $479 $-1 #
edge $-1 $566 -10.543644430932929 $670 10.543644430932929 $547 $671 forward 7 unknown #
coedge $-1 $625 $668 $548 $616 forward $610 $-1 #
edge $-1 $670 -2.0873307614068608 $617 2.0873307614068608 $548 $672 forward 7 unknown #
vertex $-1 $626 $673 #
straight-curve $-1 -75.623645741141999 -46.820133671926911 0 0 0 -1 I I #
coedge $-1 $550 $562 $674 $675 forward $332 $-1 #
coedge $-1 $676 $677 $550 $621 reversed $628 $-1 #
edge $-1 $678 -75.623645741141999 $623 75.623645741141999 $620 $679 forward 7 unknown #
coedge $-1 $559 $551 $677 $680 forward $422 $-1 #
vertex $-1 $621 $681 #
point $-1 -75.623645741141999 -7.468637504144553 2.5510765080467168 #
coedge $-1 $682 $615 $559 $626 forward $610 $-1 #
edge $-1 $617 -46.820133671926911 $683 38.973399484283476 $559 $684 forward 7 unknown #
face $-1 $-1 $685 $18 $-1 $686 reversed single #
loop $-1 $-1 $676 $560 #
plane-surface $-1 0 38.973399484283476 0 0 -1 0 0 0 -1 forward_v I I I I #
coedge $-1 $612 $687 $562 $631 reversed $545 $-1 #
edge $-1 $633 -71.448984218328278 $688 75.623645741141999 $630 $689 forward 7 unknown #
coedge $-1 $563 $613 $612 $667 reversed $479 $-1 #
vertex $-1 $631 $690 #
straight-curve $-1 -71.448984218328278 -42.896766578105193 10.543644430932929 0 1 0 I I #
point $-1 -71.448984218328278 -46.820133671926911 10.543644430932929 #
face $-1 $691 $692 $19 $-1 $693 reversed single #
loop $-1 $-1 $694 $569 #
plane-surface $-1 -71.448984218328278 -42.896766578105193 0 -1 0 0 0 0 1 forward_v I I I I #
coedge $-1 $695 $650 $647 $696 forward $570 $-1 #
coedge $-1 $572 $697 $698 $699 forward $500 $-1 #
coedge $-1 $698 $579 $573 $642 forward $581 $-1 #
edge $-1 $654 -47.33440348087553 $643 -39.34183555798932 $641 $700 forward 7 unknown #
vertex $-1 $642 $701 #
straight-curve $-1 -95.742897085636955 -7.468637504144553 10.543644430932929 1 0 0 I I #
edge $-1 $577 -12.10457712046068 $654 -0.94423262927614182 $579 $702 forward 7 unknown #
point $-1 -75.623645741141999 -18.628981995329092 2.5510765080467168 #
coedge $-1 $580 $703 $639 $696 reversed $581 $-1 #
face $-1 $704 $581 $19 $-1 $705 reversed single #
coedge $-1 $706 $583 $707 $708 forward $500 $-1 #
coedge $-1 $639 $709 $583 $651 reversed $570 $-1 #
edge $-1 $652 -2.0873307614068608 $710 2.0873307614068608 $650 $711 forward 7 unknown #
vertex $-1 $584 $712 #
straight-curve $-1 -75.623645741141999 0 10.543644430932929 0 -1 0 I I #
vertex $-1 $645 $713 #
straight-curve $-1 -75.623645741141985 -7.468637504144553 2.5510765080467337 0.64278759981090561 0 0.7660444514056185 I I #
point $-1 -68.917085120474624 -7.468637504144553 10.543644430932929 #
vertex $-1 $593 $714 #
vertex $-1 $608 $715 #
straight-curve $-1 75.623645741141999 0 -10.543644430932929 0 -1 0 I I #
straight-curve $-1 0 -38.973399484283476 -10.543644430932929 -1 0 0 I I #
point $-1 -71.448984218328278 -38.973399484283476 -10.543644430932929 #
straight-curve $-1 75.623645741141999 38.973399484283476 0 0 0 -1 I I #
straight-curve $-1 0 38.973399484283476 -10.543644430932929 1 0 0 I I #
straight-curve $-1 75.623645741141999 -38.973399484283476 0 0 0 -1 I I #
coedge $-1 $716 $682 $717 $718 forward $610 $-1 #
coedge $-1 $687 $612 $716 $719 reversed $545 $-1 #
edge $-1 $633 -10.543644430932929 $720 10.543644430932929 $612 $721 forward 7 unknown #
coedge $-1 $615 $716 $613 $669 forward $610 $-1 #
edge $-1 $720 -3.9233670938217173 $670 3.9233670938217173 $613 $722 forward 7 unknown #
vertex $-1 $614 $723 #
straight-curve $-1 -71.448984218328278 -46.820133671926911 0 0 0 -1 I I #
straight-curve $-1 -73.536314979735138 -46.820133671926911 -10.543644430932929 -1 0 0 I I #
point $-1 -75.623645741141999 -46.820133671926911 -10.543644430932929 #
coedge $-1 $724 $725 $619 $675 reversed $685 $-1 #
edge $-1 $688 -38.973399484283476 $678 38.973399484283476 $674 $726 forward 7 unknown #
coedge $-1 $727 $620 $725 $728 forward $628 $-1 #
coedge $-1 $620 $727 $622 $680 reversed $628 $-1 #
vertex $-1 $675 $729 #
straight-curve $-1 0 38.973399484283476 10.543644430932929 -1 0 0 I I #
edge $-1 $623 -10.543644430932929 $683 10.543644430932929 $677 $730 forward 7 unknown #
point $-1 -75.623645741141999 38.973399484283476 10.543644430932929 #
coedge $-1 $665 $625 $727 $731 forward $610 $-1 #
vertex $-1 $731 $732 #
straight-curve $-1 -75.623645741141999 0 -10.543644430932929 0 1 0 I I #
loop $-1 $-1 $724 $627 #
plane-surface $-1 75.623645741141999 0 0 -1 0 0 0 0 1 forward_v I I I I #
coedge $-1 $630 $666 $724 $733 reversed $545 $-1 #
vertex $-1 $675 $734 #
straight-curve $-1 0 -38.973399484283476 10.543644430932929 1 0 0 I I #
point $-1 -71.448984218328278 -38.973399484283476 10.543644430932929 #
face $-1 $648 $735 $19 $-1 $736 reversed single #
loop $-1 $-1 $737 $636 #
plane-surface $-1 0 -38.973399484283476 0 0 1 0 0 0 1 forward_v I I I I #
coedge $-1 $738 $707 $709 $739 forward $637 $-1 #
coedge $-1 $709 $639 $740 $741 reversed $570 $-1 #
edge $-1 $652 -10.543644430932929 $742 10.543644430932929 $647 $743 forward 7 unknown #
coedge $-1 $640 $744 $745 $746 forward $500 $-1 #
coedge $-1 $747 $641 $640 $699 reversed $581 $-1 #
edge $-1 $748 -38.973399484283476 $643 7.468637504144553 $698 $653 forward 7 unknown #
straight-curve $-1 -75.623645741141999 -7.468637504144553 49.885479988922249 0 0 1 I I #
point $-1 -75.623645741141999 -7.468637504144553 10.543644430932929 #
straight-curve $-1 -75.623645741141999 -6.5244048748684111 2.5510765080466999 0 1 0 I I #
coedge $-1 $647 $747 $749 $750 reversed $581 $-1 #
face $-1 $751 $752 $19 $-1 $753 reversed single #
plane-surface $-1 -75.623645741141999 0 0 1 0 0 0 0 -1 forward_v I I I I #
coedge $-1 $744 $649 $754 $755 forward $500 $-1 #
coedge $-1 $694 $756 $649 $708 reversed $637 $-1 #
edge $-1 $710 -3.9233670938217173 $757 3.9233670938217173 $707 $758 forward 7 unknown #
coedge $-1 $650 $695 $694 $739 reversed $570 $-1 #
vertex $-1 $708 $759 #
straight-curve $-1 -73.536314979735138 -46.820133671926911 10.543644430932929 1 0 0 I I #
point $-1 -75.623645741141999 -46.820133671926911 10.543644430932929 #
point $-1 -75.623645741141999 -7.468637504144553 2.5510765080467168 #
point $-1 75.623645741141999 38.973399484283476 -10.543644430932929 #
point $-1 75.623645741141999 -38.973399484283476 -10.543644430932929 #
coedge $-1 $668 $665 $666 $719 forward $610 $-1 #
coedge $-1 $725 $724 $665 $718 reversed $685 $-1 #
edge $-1 $760 -38.973399484283476 $761 38.973399484283476 $717 $762 forward 7 unknown #
edge $-1 $761 -75.623645741141999 $720 71.448984218328278 $666 $763 forward 7 unknown #
vertex $-1 $669 $764 #
straight-curve $-1 -71.448984218328278 -38.973399484283476 0 0 0 -1 I I #
straight-curve $-1 -71.448984218328278 -42.896766578105193 -10.543644430932929 0 -1 0 I I #
point $-1 -71.448984218328278 -46.820133671926911 -10.543644430932929 #
coedge $-1 $717 $674 $687 $733 forward $685 $-1 #
coedge $-1 $674 $717 $676 $728 reversed $685 $-1 #
straight-curve $-1 75.623645741141999 0 10.543644430932929 0 1 0 I I #
coedge $-1 $677 $676 $682 $731 reversed $628 $-1 #
edge $-1 $678 -10.543644430932929 $760 10.543644430932929 $725 $765 forward 7 unknown #
point $-1 75.623645741141999 38.973399484283476 10.543644430932929 #
straight-curve $-1 -75.623645741141999 38.973399484283476 0 0 0 -1 I I #
edge $-1 $683 -75.623645741141999 $760 75.623645741141999 $727 $766 forward 7 unknown #
point $-1 -75.623645741141999 38.973399484283476 -10.543644430932929 #
edge $-1 $688 -10.543644430932929 $761 10.543644430932929 $724 $767 forward 7 unknown #
point $-1 75.623645741141999 -38.973399484283476 10.543644430932929 #
loop $-1 $-1 $768 $691 #
plane-surface $-1 0 0 -10.543644430932929 0 0 1 1 0 0 forward_v I I I I #
coedge $-1 $769 $754 $756 $770 forward $692 $-1 #
coedge $-1 $756 $694 $771 $772 reversed $637 $-1 #
edge $-1 $710 -10.543644430932929 $773 10.543644430932929 $694 $774 forward 7 unknown #
coedge $-1 $749 $771 $695 $741 forward $735 $-1 #
edge $-1 $773 -2.0873307614068608 $742 2.0873307614068608 $695 $775 forward 7 unknown #
vertex $-1 $750 $776 #
straight-curve $-1 -75.623645741141999 -46.820133671926911 0 0 0 -1 I I #
coedge $-1 $697 $706 $777 $778 forward $500 $-1 #
coedge $-1 $779 $780 $697 $746 reversed $752 $-1 #
edge $-1 $781 -75.623645741141999 $748 75.623645741141999 $745 $782 forward 7 unknown #
coedge $-1 $703 $698 $780 $783 forward $581 $-1 #
vertex $-1 $746 $784 #
coedge $-1 $785 $740 $703 $750 forward $735 $-1 #
edge $-1 $742 -46.820133671926911 $786 38.973399484283476 $703 $787 forward 7 unknown #
face $-1 $-1 $788 $19 $-1 $789 reversed single #
loop $-1 $-1 $779 $704 #
plane-surface $-1 0 38.973399484283476 0 0 -1 0 0 0 -1 forward_v I I I I #
coedge $-1 $737 $790 $706 $755 reversed $692 $-1 #
edge $-1 $757 -71.448984218328278 $791 75.623645741141999 $754 $792 forward 7 unknown #
coedge $-1 $707 $738 $737 $770 reversed $637 $-1 #
vertex $-1 $755 $793 #
straight-curve $-1 -71.448984218328278 -42.896766578105193 10.543644430932929 0 1 0 I I #
point $-1 -71.448984218328278 -46.820133671926911 10.543644430932929 #
vertex $-1 $718 $794 #
vertex $-1 $733 $795 #
straight-curve $-1 75.623645741141999 0 -10.543644430932929 0 -1 0 I I #
straight-curve $-1 0 -38.973399484283476 -10.543644430932929 -1 0 0 I I #
point $-1 -71.448984218328278 -38.973399484283476 -10.543644430932929 #
straight-curve $-1 75.623645741141999 38.973399484283476 0 0 0 -1 I I #
straight-curve $-1 0 38.973399484283476 -10.543644430932929 1 0 0 I I #
straight-curve $-1 75.623645741141999 -38.973399484283476 0 0 0 -1 I I #
coedge $-1 $796 $785 $797 $798 forward $735 $-1 #
coedge $-1 $790 $737 $796 $799 reversed $692 $-1 #
edge $-1 $757 -10.543644430932929 $800 10.543644430932929 $737 $801 forward 7 unknown #
coedge $-1 $740 $796 $738 $772 forward $735 $-1 #
edge $-1 $800 -3.9233670938217173 $773 3.9233670938217173 $738 $802 forward 7 unknown #
vertex $-1 $739 $803 #
straight-curve $-1 -71.448984218328278 -46.820133671926911 0 0 0 -1 I I #
straight-curve $-1 -73.536314979735138 -46.820133671926911 -10.543644430932929 -1 0 0 I I #
point $-1 -75.623645741141999 -46.820133671926911 -10.543644430932929 #
coedge $-1 $804 $805 $744 $778 reversed $788 $-1 #
edge $-1 $791 -38.973399484283476 $781 38.973399484283476 $777 $806 forward 7 unknown #
coedge $-1 $807 $745 $805 $808 forward $752 $-1 #
coedge $-1 $745 $807 $747 $783 reversed $752 $-1 #
vertex $-1 $778 $809 #
straight-curve $-1 0 38.973399484283476 10.543644430932929 -1 0 0 I I #
edge $-1 $748 -10.543644430932929 $786 10.543644430932929 $780 $810 forward 7 unknown #
point $-1 -75.623645741141999 38.973399484283476 10.543644430932929 #
coedge $-1 $768 $749 $807 $811 forward $735 $-1 #
vertex $-1 $811 $812 #
straight-curve $-1 -75.623645741141999 0 -10.543644430932929 0 1 0 I I #
loop $-1 $-1 $804 $751 #
plane-surface $-1 75.623645741141999 0 0 -1 0 0 0 0 1 forward_v I I I I #
coedge $-1 $754 $769 $804 $813 reversed $692 $-1 #
vertex $-1 $778 $814 #
straight-curve $-1 0 -38.973399484283476 10.543644430932929 1 0 0 I I #
point $-1 -71.448984218328278 -38.973399484283476 10.543644430932929 #
point $-1 75.623645741141999 38.973399484283476 -10.543644430932929 #
point $-1 75.623645741141999 -38.973399484283476 -10.543644430932929 #
coedge $-1 $771 $768 $769 $799 forward $735 $-1 #
coedge $-1 $805 $804 $768 $798 reversed $788 $-1 #
edge $-1 $815 -38.973399484283476 $816 38.973399484283476 $797 $817 forward 7 unknown #
edge $-1 $816 -75.623645741141999 $800 71.448984218328278 $769 $818 forward 7 unknown #
vertex $-1 $772 $819 #
straight-curve $-1 -71.448984218328278 -38.973399484283476 0 0 0 -1 I I #
straight-curve $-1 -71.448984218328278 -42.896766578105193 -10.543644430932929 0 -1 0 I I #
point $-1 -71.448984218328278 -46.820133671926911 -10.543644430932929 #
coedge $-1 $797 $777 $790 $813 forward $788 $-1 #
coedge $-1 $777 $797 $779 $808 reversed $788 $-1 #
straight-curve $-1 75.623645741141999 0 10.543644430932929 0 1 0 I I #
coedge $-1 $780 $779 $785 $811 reversed $752 $-1 #
edge $-1 $781 -10.543644430932929 $815 10.543644430932929 $805 $820 forward 7 unknown #
point $-1 75.623645741141999 38.973399484283476 10.543644430932929 #
straight-curve $-1 -75.623645741141999 38.973399484283476 0 0 0 -1 I I #
edge $-1 $786 -75.623645741141999 $815 75.623645741141999 $807 $821 forward 7 unknown #
point $-1 -75.623645741141999 38.973399484283476 -10.543644430932929 #
edge $-1 $791 -10.543644430932929 $816 10.543644430932929 $804 $822 forward 7 unknown #
point $-1 75.623645741141999 -38.973399484283476 10.543644430932929 #
vertex $-1 $798 $823 #
vertex $-1 $813 $824 #
straight-curve $-1 75.623645741141999 0 -10.543644430932929 0 -1 0 I I #
straight-curve $-1 0 -38.973399484283476 -10.543644430932929 -1 0 0 I I #
point $-1 -71.448984218328278 -38.973399484283476 -10.543644430932929 #
straight-curve $-1 75.623645741141999 38.973399484283476 0 0 0 -1 I I #
straight-curve $-1 0 38.973399484283476 -10.543644430932929 1 0 0 I I #
straight-curve $-1 75.623645741141999 -38.973399484283476 0 0 0 -1 I I #
point $-1 75.623645741141999 38.973399484283476 -10.543644430932929 #
point $-1 75.623645741141999 -38.973399484283476 -10.543644430932929 #
End-of-ACIS-data 