500 0 14 0           
7 Unknown 11 ACIS 5.0 NT 24 Thu Mar 25 22:02:49 1999 
-1 9.9999999999999995e-007 1e-010 
body $-1 $14 $-1 $15 #
body $-1 $16 $-1 $17 #
body $-1 $18 $-1 $19 #
body $-1 $20 $-1 $21 #
body $-1 $22 $-1 $23 #
body $-1 $24 $-1 $25 #
body $-1 $26 $-1 $27 #
body $-1 $28 $-1 $29 #
body $-1 $30 $-1 $31 #
body $-1 $32 $-1 $33 #
body $-1 $34 $-1 $35 #
body $-1 $36 $-1 $37 #
body $-1 $38 $-1 $39 #
body $-1 $40 $-1 $41 #
lump $-1 $-1 $42 $0 #
transform $-1 1 0 0 0 1 0 0 0 1 61.106601153599655 36.473369712274604 13.564616168331577 1 rotate no_reflect no_shear #
lump $-1 $-1 $43 $1 #
transform $-1 1 0 0 0 1 0 0 0 1 61.106601153599655 36.473369712274604 13.564616168331577 1 rotate no_reflect no_shear #
lump $-1 $-1 $44 $2 #
transform $-1 1 0 0 0 1 0 0 0 1 61.106601153599655 36.473369712274604 13.564616168331577 1 rotate no_reflect no_shear #
lump $-1 $-1 $45 $3 #
transform $-1 1 0 0 0 1 0 0 0 1 61.106601153599655 36.473369712274604 13.564616168331577 1 rotate no_reflect no_shear #
lump $-1 $-1 $46 $4 #
transform $-1 1 0 0 0 1 0 0 0 1 61.106601153599655 36.473369712274604 13.564616168331577 1 rotate no_reflect no_shear #
lump $-1 $-1 $47 $5 #
transform $-1 1 0 0 0 1 0 0 0 1 61.106601153599655 36.473369712274604 13.564616168331577 1 rotate no_reflect no_shear #
lump $-1 $-1 $48 $6 #
transform $-1 1 0 0 0 1 0 0 0 1 61.106601153599655 36.473369712274604 13.564616168331577 1 rotate no_reflect no_shear #
lump $-1 $-1 $49 $7 #
transform $-1 1 0 0 0 1 0 0 0 1 61.106601153599655 36.473369712274604 13.564616168331577 1 rotate no_reflect no_shear #
lump $-1 $-1 $50 $8 #
transform $-1 1 0 0 0 1 0 0 0 1 61.106601153599655 36.473369712274604 13.564616168331577 1 rotate no_reflect no_shear #
lump $-1 $-1 $51 $9 #
transform $-1 1 0 0 0 1 0 0 0 1 61.106601153599655 36.473369712274604 13.564616168331577 1 rotate no_reflect no_shear #
lump $-1 $-1 $52 $10 #
transform $-1 1 0 0 0 1 0 0 0 1 61.106601153599655 36.473369712274604 13.564616168331577 1 rotate no_reflect no_shear #
lump $-1 $-1 $53 $11 #
transform $-1 1 0 0 0 1 0 0 0 1 61.106601153599655 36.473369712274604 13.564616168331577 1 rotate no_reflect no_shear #
lump $-1 $-1 $54 $12 #
transform $-1 1 0 0 0 1 0 0 0 1 61.106601153599655 36.473369712274604 13.564616168331577 1 rotate no_reflect no_shear #
lump $-1 $-1 $55 $13 #
transform $-1 1 0 0 0 1 0 0 0 1 61.106601153599655 36.473369712274604 13.564616168331577 1 rotate no_reflect no_shear #
shell $-1 $-1 $-1 $56 $-1 $14 #
shell $-1 $-1 $-1 $57 $-1 $16 #
shell $-1 $-1 $-1 $58 $-1 $18 #
shell $-1 $-1 $-1 $59 $-1 $20 #
shell $-1 $-1 $-1 $60 $-1 $22 #
shell $-1 $-1 $-1 $61 $-1 $24 #
shell $-1 $-1 $-1 $62 $-1 $26 #
shell $-1 $-1 $-1 $63 $-1 $28 #
shell $-1 $-1 $-1 $64 $-1 $30 #
shell $-1 $-1 $-1 $65 $-1 $32 #
shell $-1 $-1 $-1 $66 $-1 $34 #
shell $-1 $-1 $-1 $67 $-1 $36 #
shell $-1 $-1 $-1 $68 $-1 $38 #
shell $-1 $-1 $-1 $69 $-1 $40 #
face $-1 $70 $71 $42 $-1 $72 forward single #
face $-1 $73 $74 $43 $-1 $75 reversed single #
face $-1 $76 $77 $44 $-1 $78 reversed single #
face $-1 $79 $80 $45 $-1 $81 forward single #
face $-1 $82 $83 $46 $-1 $84 forward single #
face $-1 $85 $86 $47 $-1 $87 forward single #
face $-1 $88 $89 $48 $-1 $90 reversed single #
face $-1 $91 $92 $49 $-1 $93 forward single #
face $-1 $94 $95 $50 $-1 $96 forward single #
face $-1 $97 $98 $51 $-1 $99 forward single #
face $-1 $100 $101 $52 $-1 $102 reversed single #
face $-1 $103 $104 $53 $-1 $105 forward single #
face $-1 $106 $107 $54 $-1 $108 reversed single #
face $-1 $109 $110 $55 $-1 $111 forward single #
face $-1 $112 $113 $42 $-1 $114 reversed single #
loop $-1 $-1 $115 $56 #
plane-surface $-1 0 0 13.564616168331577 0 0 1 1 0 0 forward_v I I I I #
face $-1 $116 $117 $43 $-1 $118 reversed single #
loop $-1 $-1 $119 $57 #
plane-surface $-1 0 -29.060599033433615 6.9514155918644924 0 0 1 1 0 0 forward_v I I I I #
face $-1 $120 $121 $44 $-1 $122 reversed single #
loop $-1 $-1 $123 $58 #
plane-surface $-1 -142.88319630199072 -9.2501688000616795 100.12124005321024 0 -1 0 0.66913061440640931 0 -0.74314481823134659 forward_v I I I I #
face $-1 $124 $125 $45 $-1 $126 forward single #
loop $-1 $127 $128 $59 #
cone-surface $-1 -58.111101972199471 -19.168296443686437 10.735687546755322 0.66913061440640931 0 -0.74314481823134659 0.74314481823134659 0 0.66913061440640931 1 I I 0 1 1 forward I I I I #
face $-1 $129 $130 $46 $-1 $131 forward single #
loop $-1 $132 $133 $60 #
cone-surface $-1 -58.111101972199471 -15.448998577327153 10.735687546755322 0.66913061440640931 0 -0.74314481823134659 0.74314481823134659 0 0.66913061440640931 1 I I 0 1 1 forward I I I I #
face $-1 $134 $135 $47 $-1 $136 forward single #
loop $-1 $137 $138 $61 #
cone-surface $-1 -58.111101972199471 -11.729700710967869 10.735687546755322 0.66913061440640931 0 -0.74314481823134659 0.74314481823134659 0 0.66913061440640931 1 I I 0 1 1 forward I I I I #
face $-1 $139 $140 $48 $-1 $141 reversed single #
loop $-1 $-1 $142 $62 #
plane-surface $-1 -142.88319630199072 24.075710157743657 100.12124005321024 0 1 0 -0.66913061440640931 0 0.74314481823134659 forward_v I I I I #
face $-1 $143 $144 $49 $-1 $145 forward single #
loop $-1 $146 $147 $63 #
cone-surface $-1 -58.111101972199471 26.555242068649846 10.735687546755322 0.66913061440640931 0 -0.74314481823134659 0.74314481823134659 0 0.66913061440640931 1 I I 0 1 1 forward I I I I #
face $-1 $148 $149 $50 $-1 $150 forward single #
loop $-1 $151 $152 $64 #
cone-surface $-1 -58.111101972199471 30.27453993500913 10.735687546755322 0.66913061440640931 0 -0.74314481823134659 0.74314481823134659 0 0.66913061440640931 1 I I 0 1 1 forward I I I I #
face $-1 $153 $154 $51 $-1 $155 forward single #
loop $-1 $156 $157 $65 #
cone-surface $-1 -58.111101972199471 33.993837801368414 10.735687546755322 0.66913061440640931 0 -0.74314481823134659 0.74314481823134659 0 0.66913061440640931 1 I I 0 1 1 forward I I I I #
face $-1 $158 $159 $52 $-1 $160 reversed single #
loop $-1 $-1 $161 $66 #
plane-surface $-1 67.138477589389794 -0.028237246741911193 178.43092465605915 0 -1 0 -0.73135370988377701 0 -0.68199835119979291 forward_v I I I I #
face $-1 $162 $163 $53 $-1 $164 forward single #
loop $-1 $165 $166 $67 #
cone-surface $-1 56.643470447155167 -4.9982998582948284 8.8898869615239455 -0.73135370988377701 0 -0.68199835119979291 0.68199835119979291 0 -0.73135370988377701 1 I I 0 1 1 forward I I I I #
face $-1 $167 $168 $54 $-1 $169 reversed single #
loop $-1 $-1 $170 $68 #
plane-surface $-1 67.138477589389794 24.793903827529725 178.43092465605915 0 -1 0 -0.73135370988377701 0 -0.68199835119979291 forward_v I I I I #
face $-1 $171 $172 $55 $-1 $173 forward single #
loop $-1 $174 $175 $69 #
cone-surface $-1 56.643470447155167 19.823841215976806 8.8898869615239455 -0.73135370988377701 0 -0.68199835119979291 0.68199835119979291 0 -0.73135370988377701 1 I I 0 1 1 forward I I I I #
face $-1 $176 $177 $42 $-1 $178 reversed single #
loop $-1 $-1 $179 $70 #
plane-surface $-1 0 0 -13.564616168331577 0 0 1 1 0 0 forward_v I I I I #
coedge $-1 $180 $181 $182 $183 forward $71 $-1 #
face $-1 $184 $185 $43 $-1 $186 reversed single #
loop $-1 $-1 $187 $73 #
plane-surface $-1 0 -21.647828354592626 10.258015880098034 0 -1 0 0 0 -1 forward_v I I I I #
coedge $-1 $188 $189 $190 $191 reversed $74 $-1 #
face $-1 $192 $193 $44 $-1 $194 forward single #
loop $-1 $-1 $195 $76 #
plane-surface $-1 -61.106601153599655 -15.448998577327153 9.2991320391558361 -0.66913061440640931 0 0.74314481823134659 0.74314481823134659 0 0.66913061440640931 forward_v I I I I #
coedge $-1 $196 $197 $198 $199 reversed $77 $-1 #
face $-1 $-1 $200 $45 $-1 $201 forward single #
loop $-1 $202 $203 $79 #
cone-surface $-1 -57.149687459846987 -19.168296443686437 9.6679285806512585 0.66913061440640931 0 -0.74314481823134659 0.3715724091156733 0 0.33456530720320465 1 I I -0.70710678118654746 0.70710678118654746 0.5 forward I I I I #
loop $-1 $-1 $204 $59 #
coedge $-1 $128 $128 $205 $206 reversed $80 $-1 #
face $-1 $-1 $207 $46 $-1 $208 forward single #
loop $-1 $209 $210 $82 #
cone-surface $-1 -57.149687459846987 -15.448998577327153 9.6679285806512585 0.66913061440640931 0 -0.74314481823134659 0.3715724091156733 0 0.33456530720320465 1 I I -0.70710678118654746 0.70710678118654746 0.5 forward I I I I #
loop $-1 $-1 $211 $60 #
coedge $-1 $133 $133 $212 $213 reversed $83 $-1 #
face $-1 $-1 $214 $47 $-1 $215 forward single #
loop $-1 $216 $217 $85 #
cone-surface $-1 -57.149687459846987 -11.729700710967869 9.6679285806512585 0.66913061440640931 0 -0.74314481823134659 0.3715724091156733 0 0.33456530720320465 1 I I -0.70710678118654746 0.70710678118654746 0.5 forward I I I I #
loop $-1 $-1 $218 $61 #
coedge $-1 $138 $138 $219 $220 reversed $86 $-1 #
face $-1 $221 $222 $48 $-1 $223 forward single #
loop $-1 $-1 $224 $88 #
plane-surface $-1 -61.106601153599655 30.27453993500913 9.2991320391558361 -0.66913061440640931 0 0.74314481823134659 0.74314481823134659 0 0.66913061440640931 forward_v I I I I #
coedge $-1 $225 $226 $227 $228 reversed $89 $-1 #
face $-1 $-1 $229 $49 $-1 $230 forward single #
loop $-1 $231 $232 $91 #
cone-surface $-1 -57.149687459846987 26.555242068649846 9.6679285806512585 0.66913061440640931 0 -0.74314481823134659 0.3715724091156733 0 0.33456530720320465 1 I I -0.70710678118654746 0.70710678118654746 0.5 forward I I I I #
loop $-1 $-1 $233 $63 #
coedge $-1 $147 $147 $234 $235 reversed $92 $-1 #
face $-1 $-1 $236 $50 $-1 $237 forward single #
loop $-1 $238 $239 $94 #
cone-surface $-1 -57.149687459846987 30.27453993500913 9.6679285806512585 0.66913061440640931 0 -0.74314481823134659 0.3715724091156733 0 0.33456530720320465 1 I I -0.70710678118654746 0.70710678118654746 0.5 forward I I I I #
loop $-1 $-1 $240 $64 #
coedge $-1 $152 $152 $241 $242 reversed $95 $-1 #
face $-1 $-1 $243 $51 $-1 $244 forward single #
loop $-1 $245 $246 $97 #
cone-surface $-1 -57.149687459846987 33.993837801368414 9.6679285806512585 0.66913061440640931 0 -0.74314481823134659 0.3715724091156733 0 0.33456530720320465 1 I I -0.70710678118654746 0.70710678118654746 0.5 forward I I I I #
loop $-1 $-1 $247 $65 #
coedge $-1 $157 $157 $248 $249 reversed $98 $-1 #
face $-1 $250 $251 $52 $-1 $252 reversed single #
loop $-1 $-1 $253 $100 #
plane-surface $-1 -22.242601314756982 -4.9982998582948284 95.081722187702496 0.73135370988377701 0 0.68199835119979291 0.68199835119979291 0 -0.73135370988377701 forward_v I I I I #
coedge $-1 $254 $255 $256 $257 reversed $101 $-1 #
face $-1 $-1 $258 $53 $-1 $259 forward single #
loop $-1 $260 $261 $103 #
cone-surface $-1 55.481299472701039 -4.9982998582948284 7.8061450215043546 -0.73135370988377701 0 -0.68199835119979291 0.34099917559989645 0 -0.36567685494188851 1 I I -0.70710678118654746 0.70710678118654746 0.5 forward I I I I #
loop $-1 $-1 $262 $67 #
coedge $-1 $166 $166 $263 $264 reversed $104 $-1 #
face $-1 $265 $266 $54 $-1 $267 reversed single #
loop $-1 $-1 $268 $106 #
plane-surface $-1 -22.242601314756982 19.823841215976806 95.081722187702496 0.73135370988377701 0 0.68199835119979291 0.68199835119979291 0 -0.73135370988377701 forward_v I I I I #
coedge $-1 $269 $270 $271 $272 reversed $107 $-1 #
face $-1 $-1 $273 $55 $-1 $274 forward single #
loop $-1 $275 $276 $109 #
cone-surface $-1 55.481299472701039 19.823841215976806 7.8061450215043546 -0.73135370988377701 0 -0.68199835119979291 0.34099917559989645 0 -0.36567685494188851 1 I I -0.70710678118654746 0.70710678118654746 0.5 forward I I I I #
loop $-1 $-1 $277 $69 #
coedge $-1 $175 $175 $278 $279 reversed $110 $-1 #
face $-1 $280 $281 $42 $-1 $282 reversed single #
loop $-1 $-1 $283 $112 #
plane-surface $-1 0 -36.473369712274604 0 0 1 0 0 0 1 forward_v I I I I #
coedge $-1 $284 $285 $286 $287 forward $113 $-1 #
coedge $-1 $288 $115 $289 $290 forward $71 $-1 #
coedge $-1 $115 $288 $291 $292 forward $71 $-1 #
coedge $-1 $293 $294 $115 $183 reversed $295 $-1 #
edge $-1 $296 -36.473369712274604 $297 36.473369712274604 $182 $298 forward 7 unknown #
face $-1 $299 $300 $43 $-1 $301 reversed single #
loop $-1 $-1 $302 $116 #
plane-surface $-1 -61.106601153599655 0 0 1 0 0 0 0 -1 forward_v I I I I #
coedge $-1 $303 $304 $305 $306 reversed $117 $-1 #
coedge $-1 $307 $119 $308 $309 reversed $74 $-1 #
coedge $-1 $119 $307 $303 $310 forward $74 $-1 #
coedge $-1 $305 $311 $119 $191 forward $312 $-1 #
edge $-1 $313 -21.943070195557794 $314 -7.1175288378758186 $190 $315 forward 7 unknown #
face $-1 $316 $317 $44 $-1 $318 forward single #
loop $-1 $-1 $319 $120 #
plane-surface $-1 0 -21.647828354592626 10.258015880098034 0 -1 0 0 0 -1 forward_v I I I I #
coedge $-1 $320 $321 $322 $323 reversed $121 $-1 #
coedge $-1 $197 $123 $324 $325 reversed $77 $-1 #
coedge $-1 $123 $196 $320 $326 reversed $77 $-1 #
coedge $-1 $322 $327 $123 $199 forward $328 $-1 #
edge $-1 $329 36.496003858273546 $330 40.761487987449286 $198 $331 forward 7 unknown #
loop $-1 $-1 $205 $124 #
plane-surface $-1 -61.106601153599655 -15.448998577327153 9.2991320391558361 -0.66913061440640931 0 0.74314481823134659 0.74314481823134659 0 0.66913061440640931 forward_v I I I I #
loop $-1 $-1 $332 $79 #
coedge $-1 $203 $203 $204 $333 reversed $125 $-1 #
coedge $-1 $204 $204 $203 $333 forward $127 $-1 #
coedge $-1 $205 $205 $128 $206 forward $200 $-1 #
edge $-1 $334 0 $334 6.2831853071796004 $205 $335 forward 7 unknown #
loop $-1 $-1 $212 $129 #
plane-surface $-1 -61.106601153599655 -15.448998577327153 9.2991320391558361 -0.66913061440640931 0 0.74314481823134659 0.74314481823134659 0 0.66913061440640931 forward_v I I I I #
loop $-1 $-1 $336 $82 #
coedge $-1 $210 $210 $211 $337 reversed $130 $-1 #
coedge $-1 $211 $211 $210 $337 forward $132 $-1 #
coedge $-1 $212 $212 $133 $213 forward $207 $-1 #
edge $-1 $338 0 $338 6.2831853071796004 $212 $339 forward 7 unknown #
loop $-1 $-1 $219 $134 #
plane-surface $-1 -61.106601153599655 -15.448998577327153 9.2991320391558361 -0.66913061440640931 0 0.74314481823134659 0.74314481823134659 0 0.66913061440640931 forward_v I I I I #
loop $-1 $-1 $340 $85 #
coedge $-1 $217 $217 $218 $341 reversed $135 $-1 #
coedge $-1 $218 $218 $217 $341 forward $137 $-1 #
coedge $-1 $219 $219 $138 $220 forward $214 $-1 #
edge $-1 $342 0 $342 6.2831853071796004 $219 $343 forward 7 unknown #
face $-1 $344 $345 $48 $-1 $346 reversed single #
loop $-1 $-1 $227 $139 #
plane-surface $-1 0 0 13.564616168331577 0 0 1 1 0 0 forward_v I I I I #
coedge $-1 $347 $348 $349 $350 reversed $140 $-1 #
coedge $-1 $226 $142 $351 $352 reversed $89 $-1 #
coedge $-1 $142 $225 $347 $353 reversed $89 $-1 #
coedge $-1 $349 $354 $142 $228 forward $222 $-1 #
edge $-1 $355 10.334996997395706 $356 15.072296949897535 $227 $357 forward 7 unknown #
loop $-1 $-1 $234 $143 #
plane-surface $-1 -61.106601153599655 30.27453993500913 9.2991320391558361 -0.66913061440640931 0 0.74314481823134659 0.74314481823134659 0 0.66913061440640931 forward_v I I I I #
loop $-1 $-1 $358 $91 #
coedge $-1 $232 $232 $233 $359 reversed $144 $-1 #
coedge $-1 $233 $233 $232 $359 forward $146 $-1 #
coedge $-1 $234 $234 $147 $235 forward $229 $-1 #
edge $-1 $360 0 $360 6.2831853071796004 $234 $361 forward 7 unknown #
loop $-1 $-1 $241 $148 #
plane-surface $-1 -61.106601153599655 30.27453993500913 9.2991320391558361 -0.66913061440640931 0 0.74314481823134659 0.74314481823134659 0 0.66913061440640931 forward_v I I I I #
loop $-1 $-1 $362 $94 #
coedge $-1 $239 $239 $240 $363 reversed $149 $-1 #
coedge $-1 $240 $240 $239 $363 forward $151 $-1 #
coedge $-1 $241 $241 $152 $242 forward $236 $-1 #
edge $-1 $364 0 $364 6.2831853071796004 $241 $365 forward 7 unknown #
loop $-1 $-1 $248 $153 #
plane-surface $-1 -61.106601153599655 30.27453993500913 9.2991320391558361 -0.66913061440640931 0 0.74314481823134659 0.74314481823134659 0 0.66913061440640931 forward_v I I I I #
loop $-1 $-1 $366 $97 #
coedge $-1 $246 $246 $247 $367 reversed $154 $-1 #
coedge $-1 $247 $247 $246 $367 forward $156 $-1 #
coedge $-1 $248 $248 $157 $249 forward $243 $-1 #
edge $-1 $368 0 $368 6.2831853071796004 $248 $369 forward 7 unknown #
face $-1 $370 $371 $52 $-1 $372 reversed single #
loop $-1 $-1 $373 $158 #
plane-surface $-1 67.138477589389794 -9.9683624698477455 178.43092465605915 0 1 0 0.73135370988377701 0 0.68199835119979291 forward_v I I I I #
coedge $-1 $374 $375 $376 $377 reversed $159 $-1 #
coedge $-1 $255 $161 $378 $379 reversed $101 $-1 #
coedge $-1 $161 $254 $374 $380 reversed $101 $-1 #
coedge $-1 $376 $381 $161 $257 forward $382 $-1 #
edge $-1 $383 -27.537362358904758 $384 -20.204089185040218 $256 $385 forward 7 unknown #
loop $-1 $-1 $263 $162 #
plane-surface $-1 -22.242601314756982 -4.9982998582948284 95.081722187702496 0.73135370988377701 0 0.68199835119979291 0.68199835119979291 0 -0.73135370988377701 forward_v I I I I #
loop $-1 $-1 $386 $103 #
coedge $-1 $261 $261 $262 $387 reversed $163 $-1 #
coedge $-1 $262 $262 $261 $387 forward $165 $-1 #
coedge $-1 $263 $263 $166 $264 forward $258 $-1 #
edge $-1 $388 0 $388 6.2831853071796004 $263 $389 forward 7 unknown #
face $-1 $390 $391 $54 $-1 $392 reversed single #
loop $-1 $-1 $393 $167 #
plane-surface $-1 67.138477589389794 14.853778604423889 178.43092465605915 0 1 0 0.73135370988377701 0 0.68199835119979291 forward_v I I I I #
coedge $-1 $394 $395 $396 $397 reversed $168 $-1 #
coedge $-1 $270 $170 $398 $399 reversed $107 $-1 #
coedge $-1 $170 $269 $394 $400 reversed $107 $-1 #
coedge $-1 $396 $401 $170 $272 forward $402 $-1 #
edge $-1 $403 -27.537362358904758 $404 -20.204089185040218 $271 $405 forward 7 unknown #
loop $-1 $-1 $278 $171 #
plane-surface $-1 -22.242601314756982 19.823841215976806 95.081722187702496 0.73135370988377701 0 0.68199835119979291 0.68199835119979291 0 -0.73135370988377701 forward_v I I I I #
loop $-1 $-1 $406 $109 #
coedge $-1 $276 $276 $277 $407 reversed $172 $-1 #
coedge $-1 $277 $277 $276 $407 forward $174 $-1 #
coedge $-1 $278 $278 $175 $279 forward $273 $-1 #
edge $-1 $408 0 $408 6.2831853071796004 $278 $409 forward 7 unknown #
face $-1 $410 $411 $42 $-1 $412 reversed single #
loop $-1 $-1 $413 $176 #
plane-surface $-1 -61.106601153599655 0 0 1 0 0 0 0 -1 forward_v I I I I #
coedge $-1 $414 $291 $415 $416 forward $177 $-1 #
coedge $-1 $417 $179 $414 $418 forward $113 $-1 #
coedge $-1 $179 $417 $419 $420 forward $113 $-1 #
coedge $-1 $294 $293 $179 $287 reversed $295 $-1 #
edge $-1 $421 -36.473369712274604 $422 36.473369712274604 $286 $423 forward 7 unknown #
coedge $-1 $181 $180 $424 $425 forward $71 $-1 #
coedge $-1 $426 $427 $180 $290 reversed $411 $-1 #
edge $-1 $297 -61.106601153599655 $428 61.106601153599655 $289 $429 forward 7 unknown #
coedge $-1 $283 $430 $181 $292 reversed $177 $-1 #
edge $-1 $431 -61.106601153599655 $296 61.106601153599655 $291 $432 forward 7 unknown #
coedge $-1 $286 $182 $430 $433 forward $295 $-1 #
coedge $-1 $182 $286 $426 $434 reversed $295 $-1 #
loop $-1 $-1 $293 $410 #
vertex $-1 $183 $435 #
vertex $-1 $183 $436 #
straight-curve $-1 61.106601153599655 0 13.564616168331577 0 1 0 I I #
face $-1 $437 $438 $43 $-1 $439 forward single #
loop $-1 $-1 $308 $184 #
plane-surface $-1 0 -36.473369712274604 0 0 1 0 0 0 1 forward_v I I I I #
coedge $-1 $440 $441 $442 $443 forward $185 $-1 #
coedge $-1 $442 $187 $189 $310 reversed $117 $-1 #
coedge $-1 $187 $442 $444 $445 reversed $117 $-1 #
coedge $-1 $446 $190 $187 $306 forward $312 $-1 #
edge $-1 $314 1.8224076518154755 $447 8.4356082282825575 $305 $448 forward 7 unknown #
coedge $-1 $189 $188 $440 $449 reversed $74 $-1 #
coedge $-1 $450 $451 $188 $309 forward $300 $-1 #
edge $-1 $452 -61.106601153599655 $313 61.106601153599655 $308 $453 forward 7 unknown #
edge $-1 $454 -61.106601153599655 $314 61.106601153599655 $303 $455 forward 7 unknown #
coedge $-1 $190 $446 $450 $456 forward $312 $-1 #
loop $-1 $-1 $305 $437 #
vertex $-1 $309 $457 #
vertex $-1 $191 $458 #
straight-curve $-1 61.106601153599655 -14.530299516716807 6.9514155918644924 0 1 0 I I #
face $-1 $-1 $328 $44 $-1 $459 reversed single #
loop $-1 $-1 $460 $192 #
plane-surface $-1 0 0 13.564616168331577 0 0 1 1 0 0 forward_v I I I I #
coedge $-1 $461 $462 $321 $463 forward $193 $-1 #
coedge $-1 $464 $195 $197 $326 forward $121 $-1 #
coedge $-1 $195 $464 $319 $463 reversed $121 $-1 #
coedge $-1 $465 $198 $195 $323 forward $328 $-1 #
edge $-1 $330 1.5256695113981031 $466 13.92332906592905 $322 $467 forward 7 unknown #
coedge $-1 $468 $460 $196 $325 forward $317 $-1 #
edge $-1 $469 -15.072296949897535 $329 -10.334996997395706 $324 $470 forward 7 unknown #
edge $-1 $330 0 $469 6.3746659282054896 $197 $471 forward 7 unknown #
coedge $-1 $198 $465 $468 $472 reversed $328 $-1 #
loop $-1 $-1 $322 $316 #
vertex $-1 $472 $473 #
vertex $-1 $199 $474 #
straight-curve $-1 -61.106601153599655 -9.2501688000616795 50.060620026605122 0 0 -1 I I #
coedge $-1 $332 $332 $-1 $475 reversed $202 $-1 #
edge $-1 $476 0 $476 6.2831853071796004 $203 $477 forward 7 unknown #
vertex $-1 $206 $478 #
ellipse-curve $-1 -58.737951177348741 -19.168296443686437 11.431874103743706 -0.66913061440640931 0 0.74314481823134659 0.74314481823134659 0 0.66913061440640931 1 I I #
coedge $-1 $336 $336 $-1 $479 reversed $209 $-1 #
edge $-1 $480 0 $480 6.2831853071796004 $210 $481 forward 7 unknown #
vertex $-1 $213 $482 #
ellipse-curve $-1 -58.737951177348741 -15.448998577327153 11.431874103743706 -0.66913061440640931 0 0.74314481823134659 0.74314481823134659 0 0.66913061440640931 1 I I #
coedge $-1 $340 $340 $-1 $483 reversed $216 $-1 #
edge $-1 $484 0 $484 6.2831853071796004 $217 $485 forward 7 unknown #
vertex $-1 $220 $486 #
ellipse-curve $-1 -58.737951177348741 -11.729700710967869 11.431874103743706 -0.66913061440640931 0 0.74314481823134659 0.74314481823134659 0 0.66913061440640931 1 I I #
face $-1 $-1 $487 $48 $-1 $488 reversed single #
loop $-1 $-1 $489 $221 #
plane-surface $-1 0 36.473369712274604 0 0 -1 0 0 0 -1 forward_v I I I I #
coedge $-1 $490 $224 $226 $353 forward $140 $-1 #
coedge $-1 $224 $490 $489 $491 reversed $140 $-1 #
coedge $-1 $492 $227 $224 $350 forward $222 $-1 #
edge $-1 $356 8.938440190239092 $493 21.336099744770038 $349 $494 forward 7 unknown #
coedge $-1 $495 $496 $225 $352 forward $487 $-1 #
edge $-1 $497 -40.761487987449286 $355 -36.496003858273546 $351 $498 forward 7 unknown #
edge $-1 $356 -6.3746659282054896 $497 0 $226 $499 forward 7 unknown #
coedge $-1 $227 $492 $495 $500 forward $222 $-1 #
vertex $-1 $352 $501 #
vertex $-1 $228 $502 #
straight-curve $-1 -71.441598150995361 24.075710157743657 13.564616168331575 1 0 0 I I #
coedge $-1 $358 $358 $-1 $503 reversed $231 $-1 #
edge $-1 $504 0 $504 6.2831853071796004 $232 $505 forward 7 unknown #
vertex $-1 $235 $506 #
ellipse-curve $-1 -58.737951177348741 26.555242068649846 11.431874103743706 -0.66913061440640931 0 0.74314481823134659 0.74314481823134659 0 0.66913061440640931 1 I I #
coedge $-1 $362 $362 $-1 $507 reversed $238 $-1 #
edge $-1 $508 0 $508 6.2831853071796004 $239 $509 forward 7 unknown #
vertex $-1 $242 $510 #
ellipse-curve $-1 -58.737951177348741 30.27453993500913 11.431874103743706 -0.66913061440640931 0 0.74314481823134659 0.74314481823134659 0 0.66913061440640931 1 I I #
coedge $-1 $366 $366 $-1 $511 reversed $245 $-1 #
edge $-1 $512 0 $512 6.2831853071796004 $246 $513 forward 7 unknown #
vertex $-1 $249 $514 #
ellipse-curve $-1 -58.737951177348741 33.993837801368414 11.431874103743706 -0.66913061440640931 0 0.74314481823134659 0.74314481823134659 0 0.66913061440640931 1 I I #
face $-1 $-1 $382 $52 $-1 $515 forward single #
loop $-1 $-1 $516 $250 #
plane-surface $-1 61.106601153599655 0 0 -1 0 0 0 0 1 forward_v I I I I #
coedge $-1 $517 $518 $519 $520 reversed $251 $-1 #
coedge $-1 $521 $253 $255 $380 forward $159 $-1 #
coedge $-1 $253 $521 $517 $522 forward $159 $-1 #
coedge $-1 $519 $256 $253 $377 forward $382 $-1 #
edge $-1 $384 -2.470912682405503 $523 7.4692125407003314 $376 $524 forward 7 unknown #
coedge $-1 $525 $526 $254 $379 forward $371 $-1 #
edge $-1 $527 -83.514819044473853 $383 -75.650846159697991 $378 $528 forward 7 unknown #
edge $-1 $384 111.46057635001972 $527 122.21320230719928 $255 $529 forward 7 unknown #
coedge $-1 $256 $519 $525 $530 forward $382 $-1 #
loop $-1 $-1 $519 $370 #
vertex $-1 $379 $531 #
vertex $-1 $257 $532 #
straight-curve $-1 33.569238794694897 -0.028237246741911193 13.564616168331582 -1 0 0 I I #
coedge $-1 $386 $386 $-1 $533 reversed $260 $-1 #
edge $-1 $534 0 $534 6.2831853071796004 $261 $535 forward 7 unknown #
vertex $-1 $264 $536 #
ellipse-curve $-1 57.439964566667399 -4.9982998582948284 9.6326297259436355 0.73135370988377701 0 0.68199835119979291 0.68199835119979291 0 -0.73135370988377701 1 I I #
face $-1 $-1 $402 $54 $-1 $537 forward single #
loop $-1 $-1 $538 $265 #
plane-surface $-1 61.106601153599655 0 0 -1 0 0 0 0 1 forward_v I I I I #
coedge $-1 $539 $540 $541 $542 reversed $266 $-1 #
coedge $-1 $543 $268 $270 $400 forward $168 $-1 #
coedge $-1 $268 $543 $539 $544 forward $168 $-1 #
coedge $-1 $541 $271 $268 $397 forward $402 $-1 #
edge $-1 $404 -14.881983219541322 $545 -4.9418579964354858 $396 $546 forward 7 unknown #
coedge $-1 $547 $548 $269 $399 forward $391 $-1 #
edge $-1 $549 -83.514819044473853 $403 -75.650846159697991 $398 $550 forward 7 unknown #
edge $-1 $404 111.46057635001972 $549 122.21320230719928 $270 $551 forward 7 unknown #
coedge $-1 $271 $541 $547 $552 forward $402 $-1 #
loop $-1 $-1 $541 $390 #
vertex $-1 $399 $553 #
vertex $-1 $272 $554 #
straight-curve $-1 33.569238794694897 24.793903827529725 13.564616168331582 -1 0 0 I I #
coedge $-1 $406 $406 $-1 $555 reversed $275 $-1 #
edge $-1 $556 0 $556 6.2831853071796004 $276 $557 forward 7 unknown #
vertex $-1 $279 $558 #
ellipse-curve $-1 57.439964566667399 19.823841215976806 9.6326297259436355 0.73135370988377701 0 0.68199835119979291 0.68199835119979291 0 -0.73135370988377701 1 I I #
face $-1 $-1 $295 $42 $-1 $559 reversed single #
loop $-1 $-1 $426 $280 #
plane-surface $-1 0 36.473369712274604 0 0 -1 0 0 0 -1 forward_v I I I I #
coedge $-1 $560 $424 $427 $561 forward $281 $-1 #
coedge $-1 $430 $283 $284 $418 reversed $177 $-1 #
coedge $-1 $424 $560 $283 $416 reversed $281 $-1 #
edge $-1 $431 -13.564616168331577 $562 13.564616168331577 $415 $563 forward 7 unknown #
coedge $-1 $285 $284 $560 $564 forward $113 $-1 #
edge $-1 $422 -61.106601153599655 $562 61.106601153599655 $414 $565 forward 7 unknown #
coedge $-1 $427 $426 $285 $420 reversed $411 $-1 #
edge $-1 $566 -61.106601153599655 $421 61.106601153599655 $419 $567 forward 7 unknown #
vertex $-1 $287 $568 #
vertex $-1 $433 $569 #
straight-curve $-1 61.106601153599655 0 -13.564616168331577 0 -1 0 I I #
coedge $-1 $413 $415 $288 $425 reversed $281 $-1 #
edge $-1 $428 -36.473369712274604 $431 36.473369712274604 $424 $570 forward 7 unknown #
coedge $-1 $419 $289 $294 $434 forward $411 $-1 #
coedge $-1 $289 $419 $413 $561 reversed $411 $-1 #
vertex $-1 $290 $571 #
straight-curve $-1 0 36.473369712274604 13.564616168331577 -1 0 0 I I #
coedge $-1 $291 $414 $293 $433 reversed $177 $-1 #
vertex $-1 $425 $572 #
straight-curve $-1 0 -36.473369712274604 13.564616168331577 1 0 0 I I #
edge $-1 $296 -13.564616168331577 $422 13.564616168331577 $293 $573 forward 7 unknown #
edge $-1 $297 -13.564616168331577 $421 13.564616168331577 $294 $574 forward 7 unknown #
point $-1 61.106601153599655 -36.473369712274604 13.564616168331577 #
point $-1 61.106601153599655 36.473369712274604 13.564616168331577 #
face $-1 $-1 $312 $43 $-1 $575 reversed single #
loop $-1 $-1 $444 $299 #
plane-surface $-1 0 0 13.564616168331577 0 0 1 1 0 0 forward_v I I I I #
coedge $-1 $576 $302 $307 $449 forward $185 $-1 #
coedge $-1 $302 $576 $577 $578 reversed $185 $-1 #
coedge $-1 $304 $303 $302 $443 reversed $117 $-1 #
edge $-1 $579 -8.4356082282825575 $454 -1.8224076518154755 $302 $580 forward 7 unknown #
coedge $-1 $577 $581 $304 $445 forward $438 $-1 #
edge $-1 $447 -61.106601153599655 $579 61.106601153599655 $444 $582 forward 7 unknown #
coedge $-1 $311 $305 $581 $583 reversed $312 $-1 #
vertex $-1 $306 $584 #
straight-curve $-1 61.106601153599655 -21.647828354592626 5.1290079400490169 0 0 1 I I #
edge $-1 $454 7.1175288378758186 $452 21.943070195557794 $440 $585 forward 7 unknown #
coedge $-1 $586 $308 $311 $456 reversed $300 $-1 #
coedge $-1 $308 $586 $576 $587 forward $300 $-1 #
vertex $-1 $309 $588 #
straight-curve $-1 0 -36.473369712274604 6.9514155918644924 1 0 0 I I #
vertex $-1 $449 $589 #
straight-curve $-1 0 -21.647828354592626 6.9514155918644924 1 0 0 I I #
edge $-1 $590 -13.564616168331577 $313 -6.9514155918644924 $311 $591 forward 7 unknown #
point $-1 61.106601153599655 -36.473369712274604 6.9514155918644924 #
point $-1 61.106601153599655 -21.647828354592626 6.9514155918644924 #
plane-surface $-1 -61.106601153599655 0 0 1 0 0 0 0 -1 forward_v I I I I #
coedge $-1 $324 $592 $464 $593 forward $317 $-1 #
coedge $-1 $462 $319 $592 $594 reversed $193 $-1 #
coedge $-1 $319 $461 $465 $595 reversed $193 $-1 #
edge $-1 $466 -23.026336270330617 $596 -16.651670342125133 $319 $597 forward 7 unknown #
coedge $-1 $321 $320 $460 $593 reversed $121 $-1 #
coedge $-1 $327 $322 $462 $595 forward $328 $-1 #
vertex $-1 $595 $598 #
straight-curve $-1 -61.106601153599655 -7.7244992886635764 9.2991320391558379 0 -1 0 I I #
coedge $-1 $592 $324 $327 $472 forward $317 $-1 #
vertex $-1 $325 $599 #
straight-curve $-1 -71.441598150995361 -9.2501688000616795 13.564616168331575 -1 0 0 I I #
straight-curve $-1 -61.106601153599655 -9.2501688000616795 9.2991320391558361 0.74314481823134659 0 0.66913061440640931 I I #
edge $-1 $329 9.2501688000616795 $600 21.647828354592626 $327 $601 forward 7 unknown #
point $-1 -61.106601153599655 -9.2501688000616795 13.564616168331577 #
point $-1 -61.106601153599655 -9.2501688000616795 9.2991320391558361 #
edge $-1 $602 1 $602 0 $332 $-1 forward 7 unknown #
vertex $-1 $333 $603 #
ellipse-curve $-1 -57.484252767050194 -19.168296443686437 10.039500989766932 -0.66913061440640931 0 0.74314481823134659 0.74314481823134659 0 0.66913061440640931 1 I I #
point $-1 -57.994806359117398 -19.168296443686437 12.101004718150119 #
edge $-1 $604 1 $604 0 $336 $-1 forward 7 unknown #
vertex $-1 $337 $605 #
ellipse-curve $-1 -57.484252767050194 -15.448998577327153 10.039500989766932 -0.66913061440640931 0 0.74314481823134659 0.74314481823134659 0 0.66913061440640931 1 I I #
point $-1 -57.994806359117398 -15.448998577327153 12.101004718150119 #
edge $-1 $606 1 $606 0 $340 $-1 forward 7 unknown #
vertex $-1 $341 $607 #
ellipse-curve $-1 -57.484252767050194 -11.729700710967869 10.039500989766932 -0.66913061440640931 0 0.74314481823134659 0.74314481823134659 0 0.66913061440640931 1 I I #
point $-1 -57.994806359117398 -11.729700710967869 12.101004718150119 #
loop $-1 $-1 $351 $344 #
plane-surface $-1 -61.106601153599655 0 0 1 0 0 0 0 -1 forward_v I I I I #
coedge $-1 $608 $609 $348 $491 forward $345 $-1 #
coedge $-1 $348 $347 $496 $610 reversed $140 $-1 #
edge $-1 $493 13.219694107904781 $611 19.59436003611027 $489 $612 forward 7 unknown #
coedge $-1 $354 $349 $609 $613 forward $222 $-1 #
vertex $-1 $613 $614 #
straight-curve $-1 -56.369301201097841 15.137269967504565 13.564616168331575 0 1 0 I I #
coedge $-1 $615 $351 $354 $500 reversed $487 $-1 #
coedge $-1 $351 $615 $490 $610 forward $487 $-1 #
vertex $-1 $352 $616 #
straight-curve $-1 -61.106601153599655 24.075710157743657 50.060620026605122 0 0 1 I I #
straight-curve $-1 -61.106601153599655 24.075710157743657 9.2991320391558361 -0.74314481823134659 0 -0.66913061440640931 I I #
edge $-1 $617 -36.473369712274604 $355 -24.075710157743657 $495 $618 forward 7 unknown #
point $-1 -61.106601153599655 24.075710157743657 13.564616168331577 #
point $-1 -56.369301201097826 24.075710157743657 13.564616168331577 #
edge $-1 $619 1 $619 0 $358 $-1 forward 7 unknown #
vertex $-1 $359 $620 #
ellipse-curve $-1 -57.484252767050194 26.555242068649846 10.039500989766932 -0.66913061440640931 0 0.74314481823134659 0.74314481823134659 0 0.66913061440640931 1 I I #
point $-1 -57.994806359117398 26.555242068649846 12.101004718150119 #
edge $-1 $621 1 $621 0 $362 $-1 forward 7 unknown #
vertex $-1 $363 $622 #
ellipse-curve $-1 -57.484252767050194 30.27453993500913 10.039500989766932 -0.66913061440640931 0 0.74314481823134659 0.74314481823134659 0 0.66913061440640931 1 I I #
point $-1 -57.994806359117398 30.27453993500913 12.101004718150119 #
edge $-1 $623 1 $623 0 $366 $-1 forward 7 unknown #
vertex $-1 $367 $624 #
ellipse-curve $-1 -57.484252767050194 33.993837801368414 10.039500989766932 -0.66913061440640931 0 0.74314481823134659 0.74314481823134659 0 0.66913061440640931 1 I I #
point $-1 -57.994806359117398 33.993837801368414 12.101004718150119 #
plane-surface $-1 0 0 13.564616168331577 0 0 1 1 0 0 forward_v I I I I #
coedge $-1 $526 $525 $518 $625 forward $371 $-1 #
coedge $-1 $518 $373 $375 $522 reversed $251 $-1 #
coedge $-1 $373 $517 $516 $625 reversed $251 $-1 #
coedge $-1 $381 $376 $373 $520 forward $382 $-1 #
edge $-1 $523 20.204089185040218 $626 27.537362358904758 $519 $627 forward 7 unknown #
coedge $-1 $375 $374 $526 $628 reversed $159 $-1 #
edge $-1 $629 -122.21320230719928 $523 -111.46057635001972 $517 $630 forward 7 unknown #
vertex $-1 $377 $631 #
straight-curve $-1 53.773327979735114 -2.4991499291474142 13.564616168331575 0 -1 0 I I #
coedge $-1 $516 $378 $381 $530 reversed $371 $-1 #
coedge $-1 $378 $516 $521 $628 forward $371 $-1 #
vertex $-1 $379 $632 #
straight-curve $-1 61.106601153599655 -0.028237246741911193 89.215462328029574 0 0 1 I I #
straight-curve $-1 -22.242601314756982 -0.028237246741911193 95.081722187702496 0.68199835119979291 0 -0.73135370988377701 I I #
edge $-1 $626 -9.9683624698477455 $383 -0.028237246741911193 $525 $633 forward 7 unknown #
point $-1 61.106601153599655 -0.028237246741911193 13.564616168331577 #
point $-1 53.773327979735114 -0.028237246741911193 13.564616168331582 #
edge $-1 $634 1 $634 0 $386 $-1 forward 7 unknown #
vertex $-1 $387 $635 #
ellipse-curve $-1 55.846976327642928 -4.9982998582948284 8.1471441971042502 0.73135370988377701 0 0.68199835119979291 0.68199835119979291 0 -0.73135370988377701 1 I I #
point $-1 58.121962917867194 -4.9982998582948284 8.9012760160598656 #
plane-surface $-1 0 0 13.564616168331577 0 0 1 1 0 0 forward_v I I I I #
coedge $-1 $548 $547 $540 $636 forward $391 $-1 #
coedge $-1 $540 $393 $395 $544 reversed $266 $-1 #
coedge $-1 $393 $539 $538 $636 reversed $266 $-1 #
coedge $-1 $401 $396 $393 $542 forward $402 $-1 #
edge $-1 $545 20.204089185040218 $637 27.537362358904758 $541 $638 forward 7 unknown #
coedge $-1 $395 $394 $548 $639 reversed $168 $-1 #
edge $-1 $640 -122.21320230719928 $545 -111.46057635001972 $539 $641 forward 7 unknown #
vertex $-1 $397 $642 #
straight-curve $-1 53.773327979735114 9.911920607988403 13.564616168331575 0 -1 0 I I #
coedge $-1 $538 $398 $401 $552 reversed $391 $-1 #
coedge $-1 $398 $538 $543 $639 forward $391 $-1 #
vertex $-1 $399 $643 #
straight-curve $-1 61.106601153599655 24.793903827529725 89.215462328029574 0 0 1 I I #
straight-curve $-1 -22.242601314756982 24.793903827529725 95.081722187702496 0.68199835119979291 0 -0.73135370988377701 I I #
edge $-1 $637 14.853778604423889 $403 24.793903827529725 $547 $644 forward 7 unknown #
point $-1 61.106601153599655 24.793903827529725 13.564616168331577 #
point $-1 53.773327979735114 24.793903827529725 13.564616168331582 #
edge $-1 $645 1 $645 0 $406 $-1 forward 7 unknown #
vertex $-1 $407 $646 #
ellipse-curve $-1 55.846976327642928 19.823841215976806 8.1471441971042502 0.73135370988377701 0 0.68199835119979291 0.68199835119979291 0 -0.73135370988377701 1 I I #
point $-1 58.121962917867194 19.823841215976806 8.9012760160598656 #
plane-surface $-1 61.106601153599655 0 0 -1 0 0 0 0 1 forward_v I I I I #
coedge $-1 $415 $413 $417 $564 reversed $281 $-1 #
edge $-1 $428 -13.564616168331577 $566 13.564616168331577 $427 $647 forward 7 unknown #
vertex $-1 $564 $648 #
straight-curve $-1 -61.106601153599655 -36.473369712274604 0 0 0 -1 I I #
edge $-1 $562 -36.473369712274604 $566 36.473369712274604 $560 $649 forward 7 unknown #
straight-curve $-1 0 -36.473369712274604 -13.564616168331577 -1 0 0 I I #
vertex $-1 $420 $650 #
straight-curve $-1 0 36.473369712274604 -13.564616168331577 1 0 0 I I #
point $-1 61.106601153599655 36.473369712274604 -13.564616168331577 #
point $-1 61.106601153599655 -36.473369712274604 -13.564616168331577 #
straight-curve $-1 -61.106601153599655 0 13.564616168331577 0 -1 0 I I #
point $-1 -61.106601153599655 36.473369712274604 13.564616168331577 #
point $-1 -61.106601153599655 -36.473369712274604 13.564616168331577 #
straight-curve $-1 61.106601153599655 -36.473369712274604 0 0 0 -1 I I #
straight-curve $-1 61.106601153599655 36.473369712274604 0 0 0 -1 I I #
plane-surface $-1 61.106601153599655 0 0 -1 0 0 0 0 1 forward_v I I I I #
coedge $-1 $441 $440 $451 $587 reversed $185 $-1 #
coedge $-1 $651 $444 $441 $578 forward $438 $-1 #
edge $-1 $579 21.647828354592626 $652 36.473369712274604 $441 $653 forward 7 unknown #
vertex $-1 $578 $654 #
straight-curve $-1 -61.106601153599655 -21.647828354592626 5.1290079400490169 0 0 -1 I I #
coedge $-1 $444 $651 $446 $583 forward $438 $-1 #
straight-curve $-1 0 -21.647828354592626 13.564616168331577 -1 0 0 I I #
edge $-1 $590 -36.473369712274604 $447 -21.647828354592626 $446 $655 forward 7 unknown #
point $-1 61.106601153599655 -21.647828354592626 13.564616168331575 #
straight-curve $-1 -61.106601153599655 -14.530299516716807 6.9514155918644924 0 -1 0 I I #
coedge $-1 $451 $450 $651 $656 reversed $300 $-1 #
edge $-1 $652 -13.564616168331577 $452 -6.9514155918644924 $576 $657 forward 7 unknown #
point $-1 -61.106601153599655 -36.473369712274604 6.9514155918644924 #
point $-1 -61.106601153599655 -21.647828354592626 6.9514155918644924 #
vertex $-1 $583 $658 #
straight-curve $-1 61.106601153599655 -36.473369712274604 0 0 0 -1 I I #
coedge $-1 $460 $468 $461 $594 forward $317 $-1 #
edge $-1 $596 -13.92332906592905 $469 -1.5256695113981031 $460 $659 forward 7 unknown #
edge $-1 $600 -61.106601153599655 $596 -56.369301201097834 $592 $660 forward 7 unknown #
edge $-1 $466 4.1701240991068191 $600 8.4356082282825575 $465 $661 forward 7 unknown #
vertex $-1 $463 $662 #
straight-curve $-1 -43.994698671450948 -21.647828354592626 24.706758575250753 0.74314481823134659 0 0.66913061440640931 I I #
point $-1 -61.106601153599655 -21.647828354592626 9.2991320391558361 #
point $-1 -56.369301201097826 -9.2501688000616795 13.564616168331577 #
vertex $-1 $595 $663 #
straight-curve $-1 -61.106601153599655 0 13.564616168331577 0 -1 0 I I #
vertex $-1 $475 $664 #
point $-1 -56.741107948818843 -19.168296443686437 10.708631604173341 #
vertex $-1 $479 $665 #
point $-1 -56.741107948818843 -15.448998577327153 10.708631604173341 #
vertex $-1 $483 $666 #
point $-1 -56.741107948818843 -11.729700710967869 10.708631604173341 #
coedge $-1 $609 $489 $615 $667 reversed $345 $-1 #
coedge $-1 $489 $608 $492 $613 reversed $345 $-1 #
edge $-1 $611 -21.336099744770038 $497 -8.938440190239092 $496 $668 forward 7 unknown #
vertex $-1 $491 $669 #
straight-curve $-1 -46.545154026204926 36.473369712274604 22.410318209018694 -0.74314481823134659 0 -0.66913061440640931 I I #
edge $-1 $493 56.369301201097826 $617 61.106601153599655 $609 $670 forward 7 unknown #
point $-1 -56.369301201097826 36.473369712274604 13.564616168331577 #
coedge $-1 $496 $495 $608 $667 forward $487 $-1 #
point $-1 -61.106601153599655 24.075710157743657 9.2991320391558361 #
vertex $-1 $613 $671 #
straight-curve $-1 -61.106601153599655 0 13.564616168331577 0 -1 0 I I #
vertex $-1 $503 $672 #
point $-1 -56.741107948818843 26.555242068649846 10.708631604173341 #
vertex $-1 $507 $673 #
point $-1 -56.741107948818843 30.27453993500913 10.708631604173341 #
vertex $-1 $511 $674 #
point $-1 -56.741107948818843 33.993837801368414 10.708631604173341 #
edge $-1 $626 75.650846159697991 $629 83.514819044473853 $516 $675 forward 7 unknown #
vertex $-1 $530 $676 #
straight-curve $-1 33.569238794694897 -9.9683624698477455 13.564616168331582 1 0 0 I I #
edge $-1 $629 -7.4692125407003314 $527 2.470912682405503 $526 $677 forward 7 unknown #
vertex $-1 $628 $678 #
straight-curve $-1 -22.242601314756982 -9.9683624698477455 95.081722187702496 -0.68199835119979291 0 0.73135370988377701 I I #
point $-1 53.773327979735114 -9.9683624698477455 13.564616168331582 #
point $-1 61.106601153599655 -0.028237246741911193 5.7006432835557206 #
straight-curve $-1 61.106601153599655 0 13.564616168331577 0 1 0 I I #
vertex $-1 $533 $679 #
point $-1 56.528974678842722 -4.9982998582948284 7.4157904872204741 #
edge $-1 $637 75.650846159697991 $640 83.514819044473853 $538 $680 forward 7 unknown #
vertex $-1 $552 $681 #
straight-curve $-1 33.569238794694897 14.853778604423889 13.564616168331582 1 0 0 I I #
edge $-1 $640 4.9418579964354858 $549 14.881983219541322 $548 $682 forward 7 unknown #
vertex $-1 $639 $683 #
straight-curve $-1 -22.242601314756982 14.853778604423889 95.081722187702496 -0.68199835119979291 0 0.73135370988377701 I I #
point $-1 53.773327979735114 14.853778604423889 13.564616168331582 #
point $-1 61.106601153599655 24.793903827529725 5.7006432835557206 #
straight-curve $-1 61.106601153599655 0 13.564616168331577 0 1 0 I I #
vertex $-1 $555 $684 #
point $-1 56.528974678842722 19.823841215976806 7.4157904872204741 #
straight-curve $-1 -61.106601153599655 36.473369712274604 0 0 0 -1 I I #
point $-1 -61.106601153599655 -36.473369712274604 -13.564616168331577 #
straight-curve $-1 -61.106601153599655 0 -13.564616168331577 0 1 0 I I #
point $-1 -61.106601153599655 36.473369712274604 -13.564616168331577 #
coedge $-1 $581 $577 $586 $656 forward $438 $-1 #
vertex $-1 $578 $685 #
straight-curve $-1 -61.106601153599655 0 13.564616168331577 0 -1 0 I I #
point $-1 -61.106601153599655 -21.647828354592626 13.564616168331575 #
straight-curve $-1 61.106601153599655 0 13.564616168331577 0 1 0 I I #
edge $-1 $652 -61.106601153599655 $590 61.106601153599655 $586 $686 forward 7 unknown #
straight-curve $-1 -61.106601153599655 -36.473369712274604 0 0 0 -1 I I #
point $-1 61.106601153599655 -36.473369712274604 13.564616168331577 #
straight-curve $-1 -56.369301201097841 -7.7244992886635764 13.564616168331575 0 1 0 I I #
straight-curve $-1 0 -21.647828354592626 13.564616168331577 1 0 0 I I #
straight-curve $-1 -61.106601153599655 -21.647828354592626 5.1290079400490169 0 0 1 I I #
point $-1 -56.369301201097834 -21.647828354592626 13.564616168331577 #
point $-1 -61.106601153599655 -21.647828354592626 13.564616168331575 #
point $-1 -56.815122152643781 -19.168296443686437 9.2963561715355851 #
point $-1 -56.815122152643781 -15.448998577327153 9.2963561715355851 #
point $-1 -56.815122152643781 -11.729700710967869 9.2963561715355851 #
edge $-1 $617 -13.564616168331577 $611 -9.2991320391558361 $608 $687 forward 7 unknown #
straight-curve $-1 -61.106601153599655 15.137269967504565 9.2991320391558379 0 -1 0 I I #
point $-1 -61.106601153599655 36.473369712274604 9.2991320391558361 #
straight-curve $-1 0 36.473369712274604 13.564616168331577 -1 0 0 I I #
point $-1 -61.106601153599655 36.473369712274604 13.564616168331577 #
point $-1 -56.815122152643781 26.555242068649846 9.2963561715355851 #
point $-1 -56.815122152643781 30.27453993500913 9.2963561715355851 #
point $-1 -56.815122152643781 33.993837801368414 9.2963561715355851 #
straight-curve $-1 61.106601153599655 -9.9683624698477455 89.215462328029574 0 0 -1 I I #
point $-1 61.106601153599655 -9.9683624698477455 13.564616168331577 #
straight-curve $-1 61.106601153599648 -2.4991499291474142 5.7006432835557277 0 1 0 I I #
point $-1 61.106601153599655 -9.9683624698477455 5.7006432835557206 #
point $-1 55.115622617759151 -4.9982998582948284 7.4651458459044582 #
straight-curve $-1 61.106601153599655 14.853778604423889 89.215462328029574 0 0 -1 I I #
point $-1 61.106601153599655 14.853778604423889 13.564616168331577 #
straight-curve $-1 61.106601153599648 9.911920607988403 5.7006432835557277 0 1 0 I I #
point $-1 61.106601153599655 14.853778604423889 5.7006432835557206 #
point $-1 55.115622617759151 19.823841215976806 7.4651458459044582 #
point $-1 -61.106601153599655 -36.473369712274604 13.564616168331577 #
straight-curve $-1 0 -36.473369712274604 13.564616168331577 1 0 0 I I #
straight-curve $-1 -61.106601153599655 36.473369712274604 0 0 0 -1 I I #
End-of-ACIS-data 