500 0 6 0           
7 Unknown 11 ACIS 5.0 NT 24 Fri Mar 26 15:47:43 1999 
-1 9.9999999999999995e-007 1e-010 
body $-1 $6 $-1 $7 #
body $-1 $8 $-1 $9 #
body $-1 $10 $-1 $11 #
body $-1 $12 $-1 $13 #
body $-1 $14 $-1 $15 #
body $-1 $16 $-1 $17 #
lump $-1 $-1 $18 $0 #
transform $-1 1 0 0 0 1 0 0 0 1 53.884701071199686 32.96295904696094 11.471395446769769 1 rotate no_reflect no_shear #
lump $-1 $-1 $19 $1 #
transform $-1 1 0 0 0 0.84804809178421925 0.52991927123019833 0 -0.52991927123019833 0.84804809178421925 46.317220508630129 -57.109083044214451 104.60238220045703 1 rotate no_reflect no_shear #
lump $-1 $-1 $20 $2 #
transform $-1 1 0 0 0 -0.84804809178421925 -0.52991927123019833 0 0.52991927123019833 -0.84804809178421925 46.317220508630129 12.554571082140768 10.449042597747757 1 rotate no_reflect no_shear #
lump $-1 $-1 $21 $3 #
transform $-1 1 0 0 0 0.74314481823134659 -0.66913061440640931 0 0.66913061440640931 0.74314481823134659 97.43860955841599 89.045219945034745 138.43076286840929 1 rotate no_reflect no_shear #
lump $-1 $-1 $22 $4 #
transform $-1 1 0 0 0 -0.74314481823134659 0.66913061440640931 0 -0.66913061440640931 -0.74314481823134659 93.011127022423111 59.409862548849851 16.723088117304268 1 rotate no_reflect no_shear #
lump $-1 $-1 $23 $5 #
transform $-1 1 0 0 0 -0.74314481823134659 0.66913061440640931 0 -0.66913061440640931 -0.74314481823134659 101.86609209440887 59.409862548849851 16.723088117304268 1 rotate no_reflect no_shear #
shell $-1 $-1 $-1 $24 $-1 $6 #
shell $-1 $-1 $-1 $25 $-1 $8 #
shell $-1 $-1 $-1 $26 $-1 $10 #
shell $-1 $-1 $-1 $27 $-1 $12 #
shell $-1 $-1 $-1 $28 $-1 $14 #
shell $-1 $-1 $-1 $29 $-1 $16 #
face $-1 $30 $31 $18 $-1 $32 forward single #
face $-1 $33 $34 $19 $-1 $35 forward single #
face $-1 $36 $37 $20 $-1 $38 forward single #
face $-1 $39 $40 $21 $-1 $41 forward single #
face $-1 $42 $43 $22 $-1 $44 forward single #
face $-1 $45 $46 $23 $-1 $47 forward single #
face $-1 $48 $49 $18 $-1 $50 reversed single #
loop $-1 $-1 $51 $24 #
plane-surface $-1 0 0 11.471395446769769 0 0 1 1 0 0 forward_v I I I I #
face $-1 $52 $53 $19 $-1 $54 reversed single #
loop $-1 $-1 $55 $25 #
plane-surface $-1 0 0 107.76940214239937 0 0 1 1 0 0 forward_v I I I I #
face $-1 $56 $57 $20 $-1 $58 forward single #
loop $-1 $59 $60 $26 #
cone-surface $-1 0 0 -5.2466353343302714 0 0 1 3 0 0 1 I I 0 1 3 forward I I I I #
face $-1 $61 $62 $21 $-1 $63 reversed single #
loop $-1 $-1 $64 $27 #
plane-surface $-1 0 0 107.76940214239937 0 0 1 1 0 0 forward_v I I I I #
face $-1 $65 $66 $22 $-1 $67 forward single #
loop $-1 $68 $69 $28 #
cone-surface $-1 0 0 -1.6284752952665791 0 0 1 1.5 0 0 1 I I 0 1 1.5 forward I I I I #
face $-1 $70 $71 $23 $-1 $72 forward single #
loop $-1 $73 $74 $29 #
cone-surface $-1 0 0 -1.6284752952665791 0 0 1 1.5 0 0 1 I I 0 1 1.5 forward I I I I #
face $-1 $75 $76 $18 $-1 $77 reversed single #
loop $-1 $-1 $78 $30 #
plane-surface $-1 0 0 -11.471395446769769 0 0 1 1 0 0 forward_v I I I I #
coedge $-1 $79 $80 $81 $82 forward $31 $-1 #
face $-1 $83 $84 $19 $-1 $85 reversed single #
loop $-1 $-1 $86 $33 #
plane-surface $-1 0 0 -107.76940214239937 0 0 1 1 0 0 forward_v I I I I #
coedge $-1 $87 $88 $89 $90 forward $34 $-1 #
face $-1 $-1 $91 $20 $-1 $92 forward single #
loop $-1 $-1 $93 $36 #
plane-surface $-1 0 0 -8.9932706686605428 0 0 -1 -1 0 0 forward_v I I I I #
loop $-1 $-1 $94 $26 #
coedge $-1 $60 $60 $93 $95 reversed $37 $-1 #
face $-1 $96 $97 $21 $-1 $98 reversed single #
loop $-1 $-1 $99 $39 #
plane-surface $-1 0 0 -107.76940214239937 0 0 1 1 0 0 forward_v I I I I #
coedge $-1 $100 $101 $102 $103 forward $40 $-1 #
face $-1 $-1 $104 $22 $-1 $105 forward single #
loop $-1 $-1 $106 $42 #
plane-surface $-1 0 0 -2.5069505905331582 0 0 -1 -1 0 0 forward_v I I I I #
loop $-1 $-1 $107 $28 #
coedge $-1 $69 $69 $106 $108 reversed $43 $-1 #
face $-1 $-1 $109 $23 $-1 $110 forward single #
loop $-1 $-1 $111 $45 #
plane-surface $-1 0 0 -2.5069505905331582 0 0 -1 -1 0 0 forward_v I I I I #
loop $-1 $-1 $112 $29 #
coedge $-1 $74 $74 $111 $113 reversed $46 $-1 #
face $-1 $114 $115 $18 $-1 $116 reversed single #
loop $-1 $-1 $117 $48 #
plane-surface $-1 0 -32.96295904696094 0 0 1 0 0 0 1 forward_v I I I I #
coedge $-1 $118 $119 $120 $121 forward $49 $-1 #
coedge $-1 $122 $51 $123 $124 forward $31 $-1 #
coedge $-1 $51 $122 $125 $126 forward $31 $-1 #
coedge $-1 $127 $128 $51 $82 reversed $129 $-1 #
edge $-1 $130 -32.96295904696094 $131 32.96295904696094 $81 $132 forward 7 unknown #
face $-1 $133 $134 $19 $-1 $135 reversed single #
loop $-1 $-1 $136 $52 #
plane-surface $-1 0 -215.53880428479874 0 0 1 0 0 0 1 forward_v I I I I #
coedge $-1 $137 $138 $139 $140 forward $53 $-1 #
coedge $-1 $141 $55 $142 $143 forward $34 $-1 #
coedge $-1 $55 $141 $144 $145 forward $34 $-1 #
coedge $-1 $146 $147 $55 $90 reversed $148 $-1 #
edge $-1 $149 -215.53880428479874 $150 215.53880428479874 $89 $151 forward 7 unknown #
loop $-1 $152 $153 $56 #
cone-surface $-1 0 0 0 0 0 1 1.5 0 0 1 I I -0.70710678118654757 0.70710678118654757 1.5 forward I I I I #
coedge $-1 $93 $93 $60 $95 forward $57 $-1 #
coedge $-1 $94 $94 $153 $154 forward $59 $-1 #
edge $-1 $155 0 $155 6.2831853071796004 $93 $156 forward 7 unknown #
face $-1 $157 $158 $21 $-1 $159 reversed single #
loop $-1 $-1 $160 $61 #
plane-surface $-1 0 -215.53880428479874 0 0 1 0 0 0 1 forward_v I I I I #
coedge $-1 $161 $162 $163 $164 forward $62 $-1 #
coedge $-1 $165 $64 $166 $167 forward $40 $-1 #
coedge $-1 $64 $165 $168 $169 forward $40 $-1 #
coedge $-1 $170 $171 $64 $103 reversed $172 $-1 #
edge $-1 $173 -215.53880428479874 $174 215.53880428479874 $102 $175 forward 7 unknown #
loop $-1 $176 $177 $65 #
cone-surface $-1 0 0 0 0 0 1 0.75 0 0 1 I I -0.70710678118654757 0.70710678118654757 0.75 forward I I I I #
coedge $-1 $106 $106 $69 $108 forward $66 $-1 #
coedge $-1 $107 $107 $177 $178 forward $68 $-1 #
edge $-1 $179 0 $179 6.2831853071796004 $106 $180 forward 7 unknown #
loop $-1 $181 $182 $70 #
cone-surface $-1 0 0 0 0 0 1 0.75 0 0 1 I I -0.70710678118654757 0.70710678118654757 0.75 forward I I I I #
coedge $-1 $111 $111 $74 $113 forward $71 $-1 #
coedge $-1 $112 $112 $182 $183 forward $73 $-1 #
edge $-1 $184 0 $184 6.2831853071796004 $111 $185 forward 7 unknown #
face $-1 $186 $187 $18 $-1 $188 reversed single #
loop $-1 $-1 $189 $75 #
plane-surface $-1 -53.884701071199686 0 0 1 0 0 0 0 -1 forward_v I I I I #
coedge $-1 $190 $125 $191 $192 forward $76 $-1 #
coedge $-1 $193 $78 $190 $194 forward $49 $-1 #
coedge $-1 $78 $193 $195 $196 forward $49 $-1 #
coedge $-1 $128 $127 $78 $121 reversed $129 $-1 #
edge $-1 $197 -32.96295904696094 $198 32.96295904696094 $120 $199 forward 7 unknown #
coedge $-1 $80 $79 $200 $201 forward $31 $-1 #
coedge $-1 $202 $203 $79 $124 reversed $187 $-1 #
edge $-1 $131 -53.884701071199686 $204 53.884701071199686 $123 $205 forward 7 unknown #
coedge $-1 $117 $206 $80 $126 reversed $76 $-1 #
edge $-1 $207 -53.884701071199686 $130 53.884701071199686 $125 $208 forward 7 unknown #
coedge $-1 $120 $81 $206 $209 forward $129 $-1 #
coedge $-1 $81 $120 $202 $210 reversed $129 $-1 #
loop $-1 $-1 $127 $186 #
vertex $-1 $82 $211 #
vertex $-1 $82 $212 #
straight-curve $-1 53.884701071199686 0 11.471395446769769 0 1 0 I I #
face $-1 $213 $214 $19 $-1 $215 reversed single #
loop $-1 $-1 $216 $83 #
plane-surface $-1 -13.577326500874232 0 0 1 0 0 0 0 -1 forward_v I I I I #
coedge $-1 $217 $144 $218 $219 forward $84 $-1 #
coedge $-1 $220 $86 $217 $221 forward $53 $-1 #
coedge $-1 $86 $220 $222 $223 forward $53 $-1 #
coedge $-1 $147 $146 $86 $140 reversed $148 $-1 #
edge $-1 $224 -215.53880428479874 $225 215.53880428479874 $139 $226 forward 7 unknown #
coedge $-1 $88 $87 $227 $228 forward $34 $-1 #
coedge $-1 $229 $230 $87 $143 reversed $214 $-1 #
edge $-1 $150 -13.577326500874232 $231 13.577326500874232 $142 $232 forward 7 unknown #
coedge $-1 $136 $233 $88 $145 reversed $84 $-1 #
edge $-1 $234 -13.577326500874232 $149 13.577326500874232 $144 $235 forward 7 unknown #
coedge $-1 $139 $89 $233 $236 forward $148 $-1 #
coedge $-1 $89 $139 $229 $237 reversed $148 $-1 #
loop $-1 $-1 $146 $213 #
vertex $-1 $90 $238 #
vertex $-1 $90 $239 #
straight-curve $-1 13.577326500874232 0 107.76940214239937 0 1 0 I I #
loop $-1 $-1 $240 $56 #
coedge $-1 $153 $153 $94 $154 reversed $91 $-1 #
edge $-1 $241 0 $241 6.2831853071796004 $153 $242 forward 7 unknown #
vertex $-1 $95 $243 #
ellipse-curve $-1 0 0 -8.9932706686605428 0 0 -1 3 0 0 1 I I #
face $-1 $244 $245 $21 $-1 $246 reversed single #
loop $-1 $-1 $247 $96 #
plane-surface $-1 -10.330792583983381 0 0 1 0 0 0 0 -1 forward_v I I I I #
coedge $-1 $248 $168 $249 $250 forward $97 $-1 #
coedge $-1 $251 $99 $248 $252 forward $62 $-1 #
coedge $-1 $99 $251 $253 $254 forward $62 $-1 #
coedge $-1 $171 $170 $99 $164 reversed $172 $-1 #
edge $-1 $255 -215.53880428479874 $256 215.53880428479874 $163 $257 forward 7 unknown #
coedge $-1 $101 $100 $258 $259 forward $40 $-1 #
coedge $-1 $260 $261 $100 $167 reversed $245 $-1 #
edge $-1 $174 -10.330792583983381 $262 10.330792583983381 $166 $263 forward 7 unknown #
coedge $-1 $160 $264 $101 $169 reversed $97 $-1 #
edge $-1 $265 -10.330792583983381 $173 10.330792583983381 $168 $266 forward 7 unknown #
coedge $-1 $163 $102 $264 $267 forward $172 $-1 #
coedge $-1 $102 $163 $260 $268 reversed $172 $-1 #
loop $-1 $-1 $170 $244 #
vertex $-1 $103 $269 #
vertex $-1 $103 $270 #
straight-curve $-1 10.330792583983381 0 107.76940214239937 0 1 0 I I #
loop $-1 $-1 $271 $65 #
coedge $-1 $177 $177 $107 $178 reversed $104 $-1 #
edge $-1 $272 0 $272 6.2831853071796004 $177 $273 forward 7 unknown #
vertex $-1 $108 $274 #
ellipse-curve $-1 0 0 -2.5069505905331582 0 0 -1 1.5 0 0 1 I I #
loop $-1 $-1 $275 $70 #
coedge $-1 $182 $182 $112 $183 reversed $109 $-1 #
edge $-1 $276 0 $276 6.2831853071796004 $182 $277 forward 7 unknown #
vertex $-1 $113 $278 #
ellipse-curve $-1 0 0 -2.5069505905331582 0 0 -1 1.5 0 0 1 I I #
face $-1 $-1 $129 $18 $-1 $279 reversed single #
loop $-1 $-1 $202 $114 #
plane-surface $-1 0 32.96295904696094 0 0 -1 0 0 0 -1 forward_v I I I I #
coedge $-1 $280 $200 $203 $281 forward $115 $-1 #
coedge $-1 $206 $117 $118 $194 reversed $76 $-1 #
coedge $-1 $200 $280 $117 $192 reversed $115 $-1 #
edge $-1 $207 -11.471395446769769 $282 11.471395446769769 $191 $283 forward 7 unknown #
coedge $-1 $119 $118 $280 $284 forward $49 $-1 #
edge $-1 $198 -53.884701071199686 $282 53.884701071199686 $190 $285 forward 7 unknown #
coedge $-1 $203 $202 $119 $196 reversed $187 $-1 #
edge $-1 $286 -53.884701071199686 $197 53.884701071199686 $195 $287 forward 7 unknown #
vertex $-1 $121 $288 #
vertex $-1 $209 $289 #
straight-curve $-1 53.884701071199686 0 -11.471395446769769 0 -1 0 I I #
coedge $-1 $189 $191 $122 $201 reversed $115 $-1 #
edge $-1 $204 -32.96295904696094 $207 32.96295904696094 $200 $290 forward 7 unknown #
coedge $-1 $195 $123 $128 $210 forward $187 $-1 #
coedge $-1 $123 $195 $189 $281 reversed $187 $-1 #
vertex $-1 $124 $291 #
straight-curve $-1 0 32.96295904696094 11.471395446769769 -1 0 0 I I #
coedge $-1 $125 $190 $127 $209 reversed $76 $-1 #
vertex $-1 $201 $292 #
straight-curve $-1 0 -32.96295904696094 11.471395446769769 1 0 0 I I #
edge $-1 $130 -11.471395446769769 $198 11.471395446769769 $127 $293 forward 7 unknown #
edge $-1 $131 -11.471395446769769 $197 11.471395446769769 $128 $294 forward 7 unknown #
point $-1 53.884701071199686 -32.96295904696094 11.471395446769769 #
point $-1 53.884701071199686 32.96295904696094 11.471395446769769 #
face $-1 $-1 $148 $19 $-1 $295 reversed single #
loop $-1 $-1 $229 $133 #
plane-surface $-1 0 215.53880428479874 0 0 -1 0 0 0 -1 forward_v I I I I #
coedge $-1 $296 $227 $230 $297 forward $134 $-1 #
coedge $-1 $233 $136 $137 $221 reversed $84 $-1 #
coedge $-1 $227 $296 $136 $219 reversed $134 $-1 #
edge $-1 $234 -107.76940214239937 $298 107.76940214239937 $218 $299 forward 7 unknown #
coedge $-1 $138 $137 $296 $300 forward $53 $-1 #
edge $-1 $225 -13.577326500874232 $298 13.577326500874232 $217 $301 forward 7 unknown #
coedge $-1 $230 $229 $138 $223 reversed $214 $-1 #
edge $-1 $302 -13.577326500874232 $224 13.577326500874232 $222 $303 forward 7 unknown #
vertex $-1 $140 $304 #
vertex $-1 $236 $305 #
straight-curve $-1 13.577326500874232 0 -107.76940214239937 0 -1 0 I I #
coedge $-1 $216 $218 $141 $228 reversed $134 $-1 #
edge $-1 $231 -215.53880428479874 $234 215.53880428479874 $227 $306 forward 7 unknown #
coedge $-1 $222 $142 $147 $237 forward $214 $-1 #
coedge $-1 $142 $222 $216 $297 reversed $214 $-1 #
vertex $-1 $143 $307 #
straight-curve $-1 0 215.53880428479874 107.76940214239937 -1 0 0 I I #
coedge $-1 $144 $217 $146 $236 reversed $84 $-1 #
vertex $-1 $228 $308 #
straight-curve $-1 0 -215.53880428479874 107.76940214239937 1 0 0 I I #
edge $-1 $149 -107.76940214239937 $225 107.76940214239937 $146 $309 forward 7 unknown #
edge $-1 $150 -107.76940214239937 $224 107.76940214239937 $147 $310 forward 7 unknown #
point $-1 13.577326500874232 -215.53880428479874 107.76940214239937 #
point $-1 13.577326500874232 215.53880428479874 107.76940214239937 #
coedge $-1 $240 $240 $-1 $311 reversed $152 $-1 #
vertex $-1 $154 $312 #
ellipse-curve $-1 0 0 -1.5 0 0 -1 3 0 0 1 I I #
point $-1 3 0 -8.9932706686605428 #
face $-1 $-1 $172 $21 $-1 $313 reversed single #
loop $-1 $-1 $260 $157 #
plane-surface $-1 0 215.53880428479874 0 0 -1 0 0 0 -1 forward_v I I I I #
coedge $-1 $314 $258 $261 $315 forward $158 $-1 #
coedge $-1 $264 $160 $161 $252 reversed $97 $-1 #
coedge $-1 $258 $314 $160 $250 reversed $158 $-1 #
edge $-1 $265 -107.76940214239937 $316 107.76940214239937 $249 $317 forward 7 unknown #
coedge $-1 $162 $161 $314 $318 forward $62 $-1 #
edge $-1 $256 -10.330792583983381 $316 10.330792583983381 $248 $319 forward 7 unknown #
coedge $-1 $261 $260 $162 $254 reversed $245 $-1 #
edge $-1 $320 -10.330792583983381 $255 10.330792583983381 $253 $321 forward 7 unknown #
vertex $-1 $164 $322 #
vertex $-1 $267 $323 #
straight-curve $-1 10.330792583983381 0 -107.76940214239937 0 -1 0 I I #
coedge $-1 $247 $249 $165 $259 reversed $158 $-1 #
edge $-1 $262 -215.53880428479874 $265 215.53880428479874 $258 $324 forward 7 unknown #
coedge $-1 $253 $166 $171 $268 forward $245 $-1 #
coedge $-1 $166 $253 $247 $315 reversed $245 $-1 #
vertex $-1 $167 $325 #
straight-curve $-1 0 215.53880428479874 107.76940214239937 -1 0 0 I I #
coedge $-1 $168 $248 $170 $267 reversed $97 $-1 #
vertex $-1 $259 $326 #
straight-curve $-1 0 -215.53880428479874 107.76940214239937 1 0 0 I I #
edge $-1 $173 -107.76940214239937 $256 107.76940214239937 $170 $327 forward 7 unknown #
edge $-1 $174 -107.76940214239937 $255 107.76940214239937 $171 $328 forward 7 unknown #
point $-1 10.330792583983381 -215.53880428479874 107.76940214239937 #
point $-1 10.330792583983381 215.53880428479874 107.76940214239937 #
coedge $-1 $271 $271 $-1 $329 reversed $176 $-1 #
vertex $-1 $178 $330 #
ellipse-curve $-1 0 0 -0.75 0 0 -1 1.5 0 0 1 I I #
point $-1 1.5 0 -2.5069505905331582 #
coedge $-1 $275 $275 $-1 $331 reversed $181 $-1 #
vertex $-1 $183 $332 #
ellipse-curve $-1 0 0 -0.75 0 0 -1 1.5 0 0 1 I I #
point $-1 1.5 0 -2.5069505905331582 #
plane-surface $-1 53.884701071199686 0 0 -1 0 0 0 0 1 forward_v I I I I #
coedge $-1 $191 $189 $193 $284 reversed $115 $-1 #
edge $-1 $204 -11.471395446769769 $286 11.471395446769769 $203 $333 forward 7 unknown #
vertex $-1 $284 $334 #
straight-curve $-1 -53.884701071199686 -32.96295904696094 0 0 0 -1 I I #
edge $-1 $282 -32.96295904696094 $286 32.96295904696094 $280 $335 forward 7 unknown #
straight-curve $-1 0 -32.96295904696094 -11.471395446769769 -1 0 0 I I #
vertex $-1 $196 $336 #
straight-curve $-1 0 32.96295904696094 -11.471395446769769 1 0 0 I I #
point $-1 53.884701071199686 32.96295904696094 -11.471395446769769 #
point $-1 53.884701071199686 -32.96295904696094 -11.471395446769769 #
straight-curve $-1 -53.884701071199686 0 11.471395446769769 0 -1 0 I I #
point $-1 -53.884701071199686 32.96295904696094 11.471395446769769 #
point $-1 -53.884701071199686 -32.96295904696094 11.471395446769769 #
straight-curve $-1 53.884701071199686 -32.96295904696094 0 0 0 -1 I I #
straight-curve $-1 53.884701071199686 32.96295904696094 0 0 0 -1 I I #
plane-surface $-1 13.577326500874232 0 0 -1 0 0 0 0 1 forward_v I I I I #
coedge $-1 $218 $216 $220 $300 reversed $134 $-1 #
edge $-1 $231 -107.76940214239937 $302 107.76940214239937 $230 $337 forward 7 unknown #
vertex $-1 $300 $338 #
straight-curve $-1 -13.577326500874232 -215.53880428479874 0 0 0 -1 I I #
edge $-1 $298 -215.53880428479874 $302 215.53880428479874 $296 $339 forward 7 unknown #
straight-curve $-1 0 -215.53880428479874 -107.76940214239937 -1 0 0 I I #
vertex $-1 $223 $340 #
straight-curve $-1 0 215.53880428479874 -107.76940214239937 1 0 0 I I #
point $-1 13.577326500874232 215.53880428479874 -107.76940214239937 #
point $-1 13.577326500874232 -215.53880428479874 -107.76940214239937 #
straight-curve $-1 -13.577326500874232 0 107.76940214239937 0 -1 0 I I #
point $-1 -13.577326500874232 215.53880428479874 107.76940214239937 #
point $-1 -13.577326500874232 -215.53880428479874 107.76940214239937 #
straight-curve $-1 13.577326500874232 -215.53880428479874 0 0 0 -1 I I #
straight-curve $-1 13.577326500874232 215.53880428479874 0 0 0 -1 I I #
edge $-1 $341 1 $341 0 $240 $-1 forward 7 unknown #
point $-1 3 0 -1.5 #
plane-surface $-1 10.330792583983381 0 0 -1 0 0 0 0 1 forward_v I I I I #
coedge $-1 $249 $247 $251 $318 reversed $158 $-1 #
edge $-1 $262 -107.76940214239937 $320 107.76940214239937 $261 $342 forward 7 unknown #
vertex $-1 $318 $343 #
straight-curve $-1 -10.330792583983381 -215.53880428479874 0 0 0 -1 I I #
edge $-1 $316 -215.53880428479874 $320 215.53880428479874 $314 $344 forward 7 unknown #
straight-curve $-1 0 -215.53880428479874 -107.76940214239937 -1 0 0 I I #
vertex $-1 $254 $345 #
straight-curve $-1 0 215.53880428479874 -107.76940214239937 1 0 0 I I #
point $-1 10.330792583983381 215.53880428479874 -107.76940214239937 #
point $-1 10.330792583983381 -215.53880428479874 -107.76940214239937 #
straight-curve $-1 -10.330792583983381 0 107.76940214239937 0 -1 0 I I #
point $-1 -10.330792583983381 215.53880428479874 107.76940214239937 #
point $-1 -10.330792583983381 -215.53880428479874 107.76940214239937 #
straight-curve $-1 10.330792583983381 -215.53880428479874 0 0 0 -1 I I #
straight-curve $-1 10.330792583983381 215.53880428479874 0 0 0 -1 I I #
edge $-1 $346 1 $346 0 $271 $-1 forward 7 unknown #
point $-1 1.5 0 -0.75 #
edge $-1 $347 1 $347 0 $275 $-1 forward 7 unknown #
point $-1 1.5 0 -0.75 #
straight-curve $-1 -53.884701071199686 32.96295904696094 0 0 0 -1 I I #
point $-1 -53.884701071199686 -32.96295904696094 -11.471395446769769 #
straight-curve $-1 -53.884701071199686 0 -11.471395446769769 0 1 0 I I #
point $-1 -53.884701071199686 32.96295904696094 -11.471395446769769 #
straight-curve $-1 -13.577326500874232 215.53880428479874 0 0 0 -1 I I #
point $-1 -13.577326500874232 -215.53880428479874 -107.76940214239937 #
straight-curve $-1 -13.577326500874232 0 -107.76940214239937 0 1 0 I I #
point $-1 -13.577326500874232 215.53880428479874 -107.76940214239937 #
vertex $-1 $311 $348 #
straight-curve $-1 -10.330792583983381 215.53880428479874 0 0 0 -1 I I #
point $-1 -10.330792583983381 -215.53880428479874 -107.76940214239937 #
straight-curve $-1 -10.330792583983381 0 -107.76940214239937 0 1 0 I I #
point $-1 -10.330792583983381 215.53880428479874 -107.76940214239937 #
vertex $-1 $329 $349 #
vertex $-1 $331 $350 #
point $-1 0 0 1.5 #
point $-1 0 0 0.75 #
point $-1 0 0 0.75 #
End-of-ACIS-data 