500 0 6 0           
7 Unknown 11 ACIS 5.0 NT 24 Fri Mar 26 17:22:56 1999 
-1 9.9999999999999995e-007 1e-010 
body $-1 $6 $-1 $7 #
body $-1 $8 $-1 $9 #
body $-1 $10 $-1 $11 #
body $-1 $12 $-1 $13 #
body $-1 $14 $-1 $15 #
body $-1 $16 $-1 $17 #
lump $-1 $-1 $18 $0 #
transform $-1 1 0 0 0 1 0 0 0 1 51.808221686452832 21.986911550395615 8.0019018409002296 1 rotate no_reflect no_shear #
lump $-1 $-1 $19 $1 #
transform $-1 1 0 0 0 1 0 0 0 1 51.808221686452832 21.986911550395615 8.0019018409002296 1 rotate no_reflect no_shear #
lump $-1 $-1 $20 $2 #
transform $-1 1 0 0 0 1 0 0 0 1 51.808221686452832 21.986911550395615 8.0019018409002296 1 rotate no_reflect no_shear #
lump $-1 $-1 $21 $3 #
transform $-1 1 0 0 0 1 0 0 0 1 51.808221686452832 21.986911550395615 8.0019018409002296 1 rotate no_reflect no_shear #
lump $-1 $-1 $22 $4 #
transform $-1 1 0 0 0 1 0 0 0 1 51.808221686452832 21.986911550395615 8.0019018409002296 1 rotate no_reflect no_shear #
lump $-1 $-1 $23 $5 #
transform $-1 1 0 0 0 1 0 0 0 1 51.808221686452832 21.986911550395615 8.0019018409002296 1 rotate no_reflect no_shear #
shell $-1 $-1 $-1 $24 $-1 $6 #
shell $-1 $-1 $-1 $25 $-1 $8 #
shell $-1 $-1 $-1 $26 $-1 $10 #
shell $-1 $-1 $-1 $27 $-1 $12 #
shell $-1 $-1 $-1 $28 $-1 $14 #
shell $-1 $-1 $-1 $29 $-1 $16 #
face $-1 $30 $31 $18 $-1 $32 forward single #
face $-1 $33 $34 $19 $-1 $35 forward single #
face $-1 $36 $37 $20 $-1 $38 reversed single #
face $-1 $39 $40 $21 $-1 $41 forward single #
face $-1 $42 $43 $22 $-1 $44 reversed single #
face $-1 $45 $46 $23 $-1 $47 forward single #
face $-1 $48 $49 $18 $-1 $50 reversed single #
loop $-1 $-1 $51 $24 #
plane-surface $-1 0 0 8.0019018409002296 0 0 1 1 0 0 forward_v I I I I #
face $-1 $52 $53 $19 $-1 $54 reversed single #
loop $-1 $-1 $55 $25 #
plane-surface $-1 -47.170864740567893 0 -4.3805693295714683 0 0 1 1 0 0 forward_v I I I I #
face $-1 $56 $57 $20 $-1 $58 reversed single #
loop $-1 $-1 $59 $26 #
plane-surface $-1 24.962852274524415 41.540921029202721 114.47751041576842 1 0 0 0 -0.54463904215088732 -0.83867056331134215 forward_v I I I I #
face $-1 $60 $61 $21 $-1 $62 forward single #
loop $-1 $63 $64 $27 #
cone-surface $-1 29.874858487521998 17.086830046973063 3.4554323647611982 0 -0.54463904215088732 -0.83867056331134215 1.5 0 0 1 I I 0 1 1.5 forward I I I I #
face $-1 $65 $66 $22 $-1 $67 reversed single #
loop $-1 $-1 $68 $28 #
plane-surface $-1 34.78686470051958 -78.420472020096611 90.527649522440925 -1 0 0 0 -0.54463904215088732 0.83867056331134215 forward_v I I I I #
face $-1 $69 $70 $23 $-1 $71 forward single #
loop $-1 $72 $73 $29 #
cone-surface $-1 29.874858487521998 -17.086830046973066 3.4554323647611964 0 0.54463904215088732 -0.83867056331134215 1.5 0 0 1 I I 0 1 1.5 forward I I I I #
face $-1 $74 $75 $18 $-1 $76 reversed single #
loop $-1 $-1 $77 $30 #
plane-surface $-1 0 0 -8.0019018409002296 0 0 1 1 0 0 forward_v I I I I #
coedge $-1 $78 $79 $80 $81 forward $31 $-1 #
face $-1 $82 $83 $19 $-1 $84 reversed single #
loop $-1 $-1 $85 $33 #
plane-surface $-1 -42.533507794682954 0 -6.1912355852358489 -1 0 0 0 0 1 forward_v I I I I #
coedge $-1 $86 $87 $88 $89 forward $34 $-1 #
face $-1 $90 $91 $20 $-1 $92 reversed single #
loop $-1 $-1 $93 $36 #
plane-surface $-1 29.874858487521998 -14.892639440498279 27.577449483895847 0 0.54463904215088732 0.83867056331134215 1 0 0 forward_v I I I I #
coedge $-1 $94 $95 $96 $97 reversed $37 $-1 #
face $-1 $-1 $98 $21 $-1 $99 forward single #
loop $-1 $100 $101 $39 #
cone-surface $-1 29.874858487521998 15.14619505666926 0.46711659130459715 0 -0.54463904215088732 -0.83867056331134215 0.75 0 0 1 I I -0.70710678118654757 0.70710678118654757 0.75 forward I I I I #
loop $-1 $-1 $102 $27 #
coedge $-1 $64 $64 $103 $104 reversed $40 $-1 #
face $-1 $105 $106 $22 $-1 $107 reversed single #
loop $-1 $-1 $108 $42 #
plane-surface $-1 29.874858487521998 -21.986911550395611 3.6275885905683509 0 -0.54463904215088732 0.83867056331134215 1 0 0 forward_v I I I I #
coedge $-1 $109 $110 $111 $112 reversed $43 $-1 #
face $-1 $-1 $113 $23 $-1 $114 forward single #
loop $-1 $115 $116 $45 #
cone-surface $-1 29.874858487521998 -15.146195056669264 0.46711659130459537 0 0.54463904215088732 -0.83867056331134215 0.75 0 0 1 I I -0.70710678118654757 0.70710678118654757 0.75 forward I I I I #
loop $-1 $-1 $117 $29 #
coedge $-1 $73 $73 $118 $119 reversed $46 $-1 #
face $-1 $120 $121 $18 $-1 $122 reversed single #
loop $-1 $-1 $123 $48 #
plane-surface $-1 0 -21.986911550395615 0 0 1 0 0 0 1 forward_v I I I I #
coedge $-1 $124 $125 $126 $127 forward $49 $-1 #
coedge $-1 $128 $51 $129 $130 forward $31 $-1 #
coedge $-1 $51 $128 $131 $132 forward $31 $-1 #
coedge $-1 $133 $134 $51 $81 reversed $135 $-1 #
edge $-1 $136 -21.986911550395615 $137 21.986911550395615 $80 $138 forward 7 unknown #
face $-1 $139 $140 $19 $-1 $141 reversed single #
loop $-1 $-1 $142 $52 #
plane-surface $-1 0 0 -8.0019018409002296 0 0 1 1 0 0 forward_v I I I I #
coedge $-1 $143 $88 $144 $145 reversed $53 $-1 #
coedge $-1 $146 $55 $147 $148 reversed $34 $-1 #
coedge $-1 $55 $146 $149 $150 reversed $34 $-1 #
coedge $-1 $85 $151 $55 $89 reversed $53 $-1 #
edge $-1 $152 -21.986911550395615 $153 21.986911550395615 $88 $154 forward 7 unknown #
face $-1 $155 $156 $20 $-1 $157 reversed single #
loop $-1 $-1 $158 $56 #
plane-surface $-1 34.78686470051958 41.540921029202721 114.47751041576842 -1 0 0 0 0.54463904215088732 0.83867056331134215 forward_v I I I I #
coedge $-1 $159 $160 $161 $162 reversed $57 $-1 #
coedge $-1 $95 $59 $163 $164 reversed $37 $-1 #
coedge $-1 $59 $94 $159 $165 reversed $37 $-1 #
coedge $-1 $161 $166 $59 $97 forward $167 $-1 #
edge $-1 $168 -1.216451035794254 $169 5.5194005536695698 $96 $170 forward 7 unknown #
loop $-1 $-1 $103 $60 #
plane-surface $-1 29.874858487521998 -14.892639440498279 27.577449483895847 0 0.54463904215088732 0.83867056331134215 1 0 0 forward_v I I I I #
loop $-1 $-1 $171 $39 #
coedge $-1 $101 $101 $102 $172 reversed $61 $-1 #
coedge $-1 $102 $102 $101 $172 forward $63 $-1 #
coedge $-1 $103 $103 $64 $104 forward $98 $-1 #
edge $-1 $173 6.4498219168608663e-016 $173 6.2831853071796013 $103 $174 forward 7 unknown #
face $-1 $175 $176 $22 $-1 $177 forward single #
loop $-1 $-1 $178 $65 #
plane-surface $-1 24.962852274524415 -78.420472020096611 90.527649522440925 1 0 0 0 0.54463904215088732 -0.83867056331134215 forward_v I I I I #
coedge $-1 $179 $180 $181 $182 reversed $66 $-1 #
coedge $-1 $110 $68 $183 $184 reversed $43 $-1 #
coedge $-1 $68 $109 $179 $185 reversed $43 $-1 #
coedge $-1 $181 $186 $68 $112 forward $176 $-1 #
edge $-1 $187 17.223324459652691 $188 23.959176049116511 $111 $189 forward 7 unknown #
loop $-1 $-1 $118 $69 #
plane-surface $-1 29.874858487521998 -21.986911550395611 3.6275885905683509 0 -0.54463904215088732 0.83867056331134215 1 0 0 forward_v I I I I #
loop $-1 $-1 $190 $45 #
coedge $-1 $116 $116 $117 $191 reversed $70 $-1 #
coedge $-1 $117 $117 $116 $191 forward $72 $-1 #
coedge $-1 $118 $118 $73 $119 forward $113 $-1 #
edge $-1 $192 3.2249109584304331e-016 $192 6.2831853071796004 $118 $193 forward 7 unknown #
face $-1 $194 $195 $18 $-1 $196 reversed single #
loop $-1 $-1 $197 $74 #
plane-surface $-1 -51.808221686452832 0 0 1 0 0 0 0 -1 forward_v I I I I #
coedge $-1 $198 $131 $199 $200 forward $75 $-1 #
coedge $-1 $201 $77 $198 $202 forward $49 $-1 #
coedge $-1 $77 $201 $203 $204 forward $49 $-1 #
coedge $-1 $134 $133 $77 $127 reversed $135 $-1 #
edge $-1 $205 -21.986911550395615 $206 21.986911550395615 $126 $207 forward 7 unknown #
coedge $-1 $79 $78 $208 $209 forward $31 $-1 #
coedge $-1 $210 $211 $78 $130 reversed $195 $-1 #
edge $-1 $137 -51.808221686452832 $212 51.808221686452832 $129 $213 forward 7 unknown #
coedge $-1 $123 $214 $79 $132 reversed $75 $-1 #
edge $-1 $215 -51.808221686452832 $136 51.808221686452832 $131 $216 forward 7 unknown #
coedge $-1 $126 $80 $214 $217 forward $135 $-1 #
coedge $-1 $80 $126 $210 $218 reversed $135 $-1 #
loop $-1 $-1 $133 $194 #
vertex $-1 $81 $219 #
vertex $-1 $81 $220 #
straight-curve $-1 51.808221686452832 0 8.0019018409002296 0 1 0 I I #
face $-1 $221 $222 $19 $-1 $223 reversed single #
loop $-1 $-1 $144 $82 #
plane-surface $-1 0 -21.986911550395615 0 0 1 0 0 0 1 forward_v I I I I #
coedge $-1 $224 $225 $143 $226 forward $83 $-1 #
coedge $-1 $151 $85 $142 $226 reversed $53 $-1 #
coedge $-1 $149 $227 $85 $145 forward $140 $-1 #
edge $-1 $228 -4.9062840482823056 $152 -1.2849515369535438 $144 $229 forward 7 unknown #
coedge $-1 $87 $86 $230 $231 reversed $34 $-1 #
coedge $-1 $232 $233 $86 $148 forward $234 $-1 #
edge $-1 $235 -28.222789316168885 $153 -18.948075424399008 $147 $236 forward 7 unknown #
coedge $-1 $237 $144 $87 $150 forward $140 $-1 #
edge $-1 $152 18.948075424399008 $238 28.222789316168885 $149 $239 forward 7 unknown #
coedge $-1 $88 $143 $232 $240 reversed $53 $-1 #
vertex $-1 $150 $241 #
vertex $-1 $148 $242 #
straight-curve $-1 -42.533507794682954 0 -4.3805693295714683 0 1 0 I I #
face $-1 $-1 $167 $20 $-1 $243 forward single #
loop $-1 $-1 $244 $90 #
plane-surface $-1 0 21.986911550395615 0 0 -1 0 0 0 -1 forward_v I I I I #
coedge $-1 $245 $246 $247 $248 reversed $91 $-1 #
coedge $-1 $249 $93 $95 $165 forward $57 $-1 #
coedge $-1 $93 $249 $245 $250 forward $57 $-1 #
coedge $-1 $247 $96 $93 $162 forward $167 $-1 #
edge $-1 $169 10.025423030763417 $251 19.849435456758581 $161 $252 forward 7 unknown #
coedge $-1 $253 $254 $94 $164 forward $156 $-1 #
edge $-1 $255 -53.61116661731586 $168 -49.236853366983979 $163 $256 forward 7 unknown #
edge $-1 $169 35.942240875145316 $255 43.973823100791222 $95 $257 forward 7 unknown #
coedge $-1 $96 $247 $253 $258 forward $167 $-1 #
loop $-1 $-1 $247 $155 #
vertex $-1 $164 $259 #
vertex $-1 $97 $260 #
straight-curve $-1 24.962852274524415 20.770460514601361 8.0019018409002314 0 -1 0 I I #
coedge $-1 $171 $171 $-1 $261 reversed $100 $-1 #
edge $-1 $262 0 $262 6.2831853071796004 $101 $263 forward 7 unknown #
vertex $-1 $104 $264 #
ellipse-curve $-1 29.874858487521998 18.618985755663701 5.8147452157342938 0 0.54463904215088732 0.83867056331134215 1.5 0 0 1 I I #
face $-1 $-1 $265 $22 $-1 $266 reversed single #
loop $-1 $-1 $111 $105 #
plane-surface $-1 0 0 8.0019018409002296 0 0 1 1 0 0 forward_v I I I I #
coedge $-1 $267 $268 $269 $270 reversed $106 $-1 #
coedge $-1 $271 $108 $110 $185 forward $66 $-1 #
coedge $-1 $108 $271 $267 $272 forward $66 $-1 #
coedge $-1 $269 $111 $108 $182 forward $176 $-1 #
edge $-1 $188 -19.849435456758581 $273 -10.025423030763417 $181 $274 forward 7 unknown #
coedge $-1 $275 $276 $109 $184 forward $265 $-1 #
edge $-1 $277 -41.636236170652111 $187 -37.261922920320231 $183 $278 forward 7 unknown #
edge $-1 $188 -8.0315822256459075 $277 4.1888979916949389e-015 $110 $279 forward 7 unknown #
coedge $-1 $111 $269 $275 $280 forward $176 $-1 #
vertex $-1 $112 $281 #
vertex $-1 $112 $282 #
straight-curve $-1 34.78686470051958 -39.210236010048305 8.0019018409002314 0 1 0 I I #
coedge $-1 $190 $190 $-1 $283 reversed $115 $-1 #
edge $-1 $284 0 $284 6.2831853071796004 $116 $285 forward 7 unknown #
vertex $-1 $119 $286 #
ellipse-curve $-1 29.874858487521998 -18.618985755663704 5.8147452157342894 0 -0.54463904215088732 0.83867056331134215 1.5 0 0 1 I I #
face $-1 $-1 $135 $18 $-1 $287 reversed single #
loop $-1 $-1 $210 $120 #
plane-surface $-1 0 21.986911550395615 0 0 -1 0 0 0 -1 forward_v I I I I #
coedge $-1 $288 $208 $211 $289 forward $121 $-1 #
coedge $-1 $214 $123 $124 $202 reversed $75 $-1 #
coedge $-1 $208 $288 $123 $200 reversed $121 $-1 #
edge $-1 $215 -8.0019018409002296 $290 8.0019018409002296 $199 $291 forward 7 unknown #
coedge $-1 $125 $124 $288 $292 forward $49 $-1 #
edge $-1 $206 -51.808221686452832 $290 51.808221686452832 $198 $293 forward 7 unknown #
coedge $-1 $211 $210 $125 $204 reversed $195 $-1 #
edge $-1 $294 -51.808221686452832 $205 51.808221686452832 $203 $295 forward 7 unknown #
vertex $-1 $127 $296 #
vertex $-1 $217 $297 #
straight-curve $-1 51.808221686452832 0 -8.0019018409002296 0 -1 0 I I #
coedge $-1 $197 $199 $128 $209 reversed $121 $-1 #
edge $-1 $212 -21.986911550395615 $215 21.986911550395615 $208 $298 forward 7 unknown #
coedge $-1 $203 $129 $134 $218 forward $195 $-1 #
coedge $-1 $129 $203 $197 $289 reversed $195 $-1 #
vertex $-1 $130 $299 #
straight-curve $-1 0 21.986911550395615 8.0019018409002296 -1 0 0 I I #
coedge $-1 $131 $198 $133 $217 reversed $75 $-1 #
vertex $-1 $209 $300 #
straight-curve $-1 0 -21.986911550395615 8.0019018409002296 1 0 0 I I #
edge $-1 $136 -8.0019018409002296 $206 8.0019018409002296 $133 $301 forward 7 unknown #
edge $-1 $137 -8.0019018409002296 $205 8.0019018409002296 $134 $302 forward 7 unknown #
point $-1 51.808221686452832 -21.986911550395615 8.0019018409002296 #
point $-1 51.808221686452832 21.986911550395615 8.0019018409002296 #
face $-1 $-1 $234 $19 $-1 $303 reversed single #
loop $-1 $-1 $230 $139 #
plane-surface $-1 -51.808221686452832 0 0 1 0 0 0 0 -1 forward_v I I I I #
coedge $-1 $304 $142 $227 $305 forward $83 $-1 #
coedge $-1 $142 $304 $306 $307 forward $83 $-1 #
edge $-1 $308 -21.986911550395615 $228 21.986911550395615 $142 $309 forward 7 unknown #
coedge $-1 $144 $237 $224 $305 reversed $140 $-1 #
vertex $-1 $305 $310 #
straight-curve $-1 -42.533507794682954 -21.986911550395615 -3.0956177926179245 0 0 1 I I #
coedge $-1 $311 $312 $146 $231 forward $222 $-1 #
edge $-1 $238 -21.986911550395615 $235 21.986911550395615 $230 $313 forward 7 unknown #
coedge $-1 $306 $147 $151 $240 forward $234 $-1 #
coedge $-1 $147 $306 $311 $314 reversed $234 $-1 #
loop $-1 $-1 $232 $221 #
vertex $-1 $314 $315 #
straight-curve $-1 -23.585432370283947 21.986911550395615 -4.3805693295714683 1 0 0 I I #
coedge $-1 $227 $149 $312 $316 forward $140 $-1 #
vertex $-1 $316 $317 #
straight-curve $-1 -23.585432370283947 -21.986911550395615 -4.3805693295714683 -1 0 0 I I #
edge $-1 $153 1.2849515369535438 $308 4.9062840482823056 $232 $318 forward 7 unknown #
point $-1 -42.533507794682954 -21.986911550395615 -4.3805693295714683 #
point $-1 -42.533507794682954 21.986911550395615 -4.3805693295714683 #
plane-surface $-1 0 0 8.0019018409002296 0 0 1 1 0 0 forward_v I I I I #
coedge $-1 $254 $253 $246 $319 forward $156 $-1 #
coedge $-1 $246 $158 $160 $250 reversed $91 $-1 #
coedge $-1 $158 $245 $244 $319 reversed $91 $-1 #
coedge $-1 $166 $161 $158 $248 forward $167 $-1 #
edge $-1 $251 -5.5194005536695698 $320 1.216451035794254 $247 $321 forward 7 unknown #
coedge $-1 $160 $159 $254 $322 reversed $57 $-1 #
edge $-1 $323 -43.973823100791222 $251 -35.942240875145316 $245 $324 forward 7 unknown #
vertex $-1 $162 $325 #
straight-curve $-1 14.937429243760999 15.251059960931801 8.0019018409002278 1 0 0 I I #
coedge $-1 $244 $163 $166 $258 reversed $156 $-1 #
coedge $-1 $163 $244 $249 $322 forward $156 $-1 #
vertex $-1 $164 $326 #
straight-curve $-1 24.962852274524415 21.986911550395615 57.238755207884211 0 0 1 I I #
straight-curve $-1 24.962852274524415 -14.892639440498279 27.577449483895847 0 0.83867056331134215 -0.54463904215088732 I I #
edge $-1 $320 -34.78686470051958 $168 -24.962852274524415 $253 $327 forward 7 unknown #
point $-1 24.962852274524415 21.986911550395615 8.0019018409002296 #
point $-1 24.962852274524415 15.251059960931791 8.0019018409002314 #
edge $-1 $328 1 $328 0 $171 $-1 forward 7 unknown #
vertex $-1 $172 $329 #
ellipse-curve $-1 29.874858487521998 15.554674338282425 1.0961195137881039 0 0.54463904215088732 0.83867056331134215 1.5 0 0 1 I I #
point $-1 31.374858487521998 18.618985755663701 5.814745215734292 #
loop $-1 $-1 $183 $175 #
plane-surface $-1 0 -21.986911550395615 0 0 1 0 0 0 1 forward_v I I I I #
coedge $-1 $268 $178 $180 $272 reversed $106 $-1 #
coedge $-1 $178 $267 $330 $331 reversed $106 $-1 #
coedge $-1 $186 $181 $178 $270 forward $176 $-1 #
edge $-1 $273 -23.959176049116511 $332 -17.223324459652691 $269 $333 forward 7 unknown #
coedge $-1 $180 $179 $276 $334 reversed $66 $-1 #
edge $-1 $335 -4.1888979916949389e-015 $273 8.0315822256459075 $267 $336 forward 7 unknown #
vertex $-1 $182 $337 #
straight-curve $-1 14.937429243760999 -15.251059960931794 8.0019018409002296 -1 0 0 I I #
coedge $-1 $330 $183 $186 $280 reversed $265 $-1 #
coedge $-1 $183 $330 $271 $334 forward $265 $-1 #
vertex $-1 $184 $338 #
straight-curve $-1 34.78686470051958 -21.986911550395615 45.263824761220462 0 0 1 I I #
straight-curve $-1 34.78686470051958 -21.986911550395611 3.6275885905683509 0 -0.83867056331134215 -0.54463904215088732 I I #
edge $-1 $332 24.962852274524415 $187 34.78686470051958 $275 $339 forward 7 unknown #
point $-1 34.78686470051958 -21.986911550395615 8.0019018409002296 #
point $-1 34.78686470051958 -15.251059960931794 8.0019018409002296 #
edge $-1 $340 1 $340 0 $190 $-1 forward 7 unknown #
vertex $-1 $191 $341 #
ellipse-curve $-1 29.874858487521998 -15.554674338282428 1.0961195137881021 0 -0.54463904215088732 0.83867056331134215 1.5 0 0 1 I I #
point $-1 31.374858487521998 -18.618985755663704 5.8147452157342903 #
plane-surface $-1 51.808221686452832 0 0 -1 0 0 0 0 1 forward_v I I I I #
coedge $-1 $199 $197 $201 $292 reversed $121 $-1 #
edge $-1 $212 -8.0019018409002296 $294 8.0019018409002296 $211 $342 forward 7 unknown #
vertex $-1 $292 $343 #
straight-curve $-1 -51.808221686452832 -21.986911550395615 0 0 0 -1 I I #
edge $-1 $290 -21.986911550395615 $294 21.986911550395615 $288 $344 forward 7 unknown #
straight-curve $-1 0 -21.986911550395615 -8.0019018409002296 -1 0 0 I I #
vertex $-1 $204 $345 #
straight-curve $-1 0 21.986911550395615 -8.0019018409002296 1 0 0 I I #
point $-1 51.808221686452832 21.986911550395615 -8.0019018409002296 #
point $-1 51.808221686452832 -21.986911550395615 -8.0019018409002296 #
straight-curve $-1 -51.808221686452832 0 8.0019018409002296 0 -1 0 I I #
point $-1 -51.808221686452832 21.986911550395615 8.0019018409002296 #
point $-1 -51.808221686452832 -21.986911550395615 8.0019018409002296 #
straight-curve $-1 51.808221686452832 -21.986911550395615 0 0 0 -1 I I #
straight-curve $-1 51.808221686452832 21.986911550395615 0 0 0 -1 I I #
plane-surface $-1 0 21.986911550395615 0 0 -1 0 0 0 -1 forward_v I I I I #
coedge $-1 $225 $224 $346 $347 forward $83 $-1 #
edge $-1 $228 42.533507794682954 $348 51.808221686452832 $227 $349 forward 7 unknown #
coedge $-1 $233 $232 $225 $307 reversed $234 $-1 #
edge $-1 $350 -51.808221686452832 $308 -42.533507794682954 $306 $351 forward 7 unknown #
vertex $-1 $240 $352 #
straight-curve $-1 -42.533507794682954 0 -8.0019018409002296 0 -1 0 I I #
point $-1 -42.533507794682954 -21.986911550395615 -8.0019018409002296 #
coedge $-1 $346 $230 $233 $314 forward $222 $-1 #
coedge $-1 $230 $346 $237 $316 reversed $222 $-1 #
straight-curve $-1 -51.808221686452832 0 -4.3805693295714683 0 1 0 I I #
edge $-1 $235 4.3805693295714683 $350 8.0019018409002296 $233 $353 forward 7 unknown #
point $-1 -51.808221686452832 21.986911550395615 -4.3805693295714683 #
edge $-1 $238 4.3805693295714683 $348 8.0019018409002296 $312 $354 forward 7 unknown #
point $-1 -51.808221686452832 -21.986911550395615 -4.3805693295714683 #
straight-curve $-1 -42.533507794682954 21.986911550395615 -3.0956177926179245 0 0 -1 I I #
edge $-1 $320 49.236853366983979 $323 53.61116661731586 $244 $355 forward 7 unknown #
vertex $-1 $258 $356 #
straight-curve $-1 34.78686470051958 20.770460514601361 8.0019018409002314 0 1 0 I I #
edge $-1 $323 -19.849435456758581 $255 -10.025423030763417 $254 $357 forward 7 unknown #
vertex $-1 $322 $358 #
straight-curve $-1 34.78686470051958 -14.892639440498279 27.577449483895847 0 -0.83867056331134215 0.54463904215088732 I I #
point $-1 34.78686470051958 15.251059960931791 8.0019018409002314 #
point $-1 24.962852274524415 21.986911550395611 3.6275885905683509 #
straight-curve $-1 0 21.986911550395615 8.0019018409002296 -1 0 0 I I #
vertex $-1 $261 $359 #
point $-1 31.374858487521998 15.554674338282425 1.0961195137881039 #
coedge $-1 $276 $275 $268 $331 forward $265 $-1 #
edge $-1 $332 37.261922920320231 $335 41.636236170652111 $330 $360 forward 7 unknown #
vertex $-1 $280 $361 #
straight-curve $-1 24.962852274524415 -39.210236010048305 8.0019018409002314 0 -1 0 I I #
edge $-1 $335 10.025423030763417 $277 19.849435456758581 $276 $362 forward 7 unknown #
vertex $-1 $334 $363 #
straight-curve $-1 24.962852274524415 -21.986911550395611 3.6275885905683509 0 0.83867056331134215 0.54463904215088732 I I #
point $-1 24.962852274524415 -15.251059960931794 8.0019018409002296 #
point $-1 34.78686470051958 -21.986911550395615 3.6275885905683487 #
straight-curve $-1 0 -21.986911550395615 8.0019018409002296 1 0 0 I I #
vertex $-1 $283 $364 #
point $-1 31.374858487521998 -15.554674338282428 1.0961195137881021 #
straight-curve $-1 -51.808221686452832 21.986911550395615 0 0 0 -1 I I #
point $-1 -51.808221686452832 -21.986911550395615 -8.0019018409002296 #
straight-curve $-1 -51.808221686452832 0 -8.0019018409002296 0 1 0 I I #
point $-1 -51.808221686452832 21.986911550395615 -8.0019018409002296 #
coedge $-1 $312 $311 $304 $347 reversed $222 $-1 #
edge $-1 $348 -21.986911550395615 $350 21.986911550395615 $346 $365 forward 7 unknown #
vertex $-1 $347 $366 #
straight-curve $-1 0 -21.986911550395615 -8.0019018409002296 -1 0 0 I I #
vertex $-1 $307 $367 #
straight-curve $-1 0 21.986911550395615 -8.0019018409002296 1 0 0 I I #
point $-1 -42.533507794682954 21.986911550395615 -8.0019018409002296 #
straight-curve $-1 -51.808221686452832 21.986911550395615 0 0 0 -1 I I #
straight-curve $-1 -51.808221686452832 -21.986911550395615 0 0 0 -1 I I #
straight-curve $-1 34.78686470051958 21.986911550395615 57.238755207884211 0 0 -1 I I #
point $-1 34.78686470051958 21.986911550395615 8.0019018409002296 #
straight-curve $-1 14.937429243760999 21.986911550395611 3.6275885905683527 -1 0 0 I I #
point $-1 34.78686470051958 21.986911550395611 3.6275885905683509 #
point $-1 29.874858487521998 14.737715775056095 -0.16188633117890949 #
straight-curve $-1 24.962852274524415 -21.986911550395615 45.263824761220462 0 0 -1 I I #
point $-1 24.962852274524415 -21.986911550395615 8.0019018409002296 #
straight-curve $-1 14.937429243760999 -21.986911550395615 3.6275885905683478 1 0 0 I I #
point $-1 24.962852274524415 -21.986911550395615 3.6275885905683487 #
point $-1 29.874858487521998 -14.737715775056099 -0.16188633117891127 #
straight-curve $-1 -51.808221686452832 0 -8.0019018409002296 0 1 0 I I #
point $-1 -51.808221686452832 -21.986911550395615 -8.0019018409002296 #
point $-1 -51.808221686452832 21.986911550395615 -8.0019018409002296 #
End-of-ACIS-data 