500 0 8 0           
7 Unknown 11 ACIS 5.0 NT 24 Fri Mar 26 18:43:49 1999 
-1 9.9999999999999995e-007 1e-010 
body $-1 $8 $-1 $9 #
body $-1 $10 $-1 $11 #
body $-1 $12 $-1 $13 #
body $-1 $14 $-1 $15 #
body $-1 $16 $-1 $17 #
body $-1 $18 $-1 $19 #
body $-1 $20 $-1 $21 #
body $-1 $22 $-1 $23 #
lump $-1 $-1 $24 $0 #
transform $-1 1 0 0 0 1 0 0 0 1 68.229621265297396 36.016752710462427 9.7764154067405009 1 rotate no_reflect no_shear #
lump $-1 $-1 $25 $1 #
transform $-1 1 0 0 0 1 0 0 0 1 68.229621265297396 36.016752710462427 9.7764154067405009 1 rotate no_reflect no_shear #
lump $-1 $-1 $26 $2 #
transform $-1 1 0 0 0 1 0 0 0 1 68.229621265297396 36.016752710462427 9.7764154067405009 1 rotate no_reflect no_shear #
lump $-1 $-1 $27 $3 #
transform $-1 1 0 0 0 1 0 0 0 1 68.229621265297396 36.016752710462427 9.7764154067405009 1 rotate no_reflect no_shear #
lump $-1 $-1 $28 $4 #
transform $-1 1 0 0 0 1 0 0 0 1 68.229621265297396 36.016752710462427 9.7764154067405009 1 rotate no_reflect no_shear #
lump $-1 $-1 $29 $5 #
transform $-1 1 0 0 0 1 0 0 0 1 68.229621265297396 36.016752710462427 9.7764154067405009 1 rotate no_reflect no_shear #
lump $-1 $-1 $30 $6 #
transform $-1 1 0 0 0 1 0 0 0 1 68.229621265297396 36.016752710462427 9.7764154067405009 1 rotate no_reflect no_shear #
lump $-1 $-1 $31 $7 #
transform $-1 1 0 0 0 1 0 0 0 1 68.229621265297396 36.016752710462427 9.7764154067405009 1 rotate no_reflect no_shear #
shell $-1 $-1 $-1 $32 $-1 $8 #
shell $-1 $-1 $-1 $33 $-1 $10 #
shell $-1 $-1 $-1 $34 $-1 $12 #
shell $-1 $-1 $-1 $35 $-1 $14 #
shell $-1 $-1 $-1 $36 $-1 $16 #
shell $-1 $-1 $-1 $37 $-1 $18 #
shell $-1 $-1 $-1 $38 $-1 $20 #
shell $-1 $-1 $-1 $39 $-1 $22 #
face $-1 $40 $41 $24 $-1 $42 forward single #
face $-1 $43 $44 $25 $-1 $45 forward single #
face $-1 $46 $47 $26 $-1 $48 reversed single #
face $-1 $49 $50 $27 $-1 $51 forward single #
face $-1 $52 $53 $28 $-1 $54 forward single #
face $-1 $55 $56 $29 $-1 $57 reversed single #
face $-1 $58 $59 $30 $-1 $60 forward single #
face $-1 $61 $62 $31 $-1 $63 forward single #
face $-1 $64 $65 $24 $-1 $66 reversed single #
loop $-1 $-1 $67 $32 #
plane-surface $-1 0 0 9.7764154067405009 0 0 1 1 0 0 forward_v I I I I #
face $-1 $68 $69 $25 $-1 $70 reversed single #
loop $-1 $-1 $71 $33 #
plane-surface $-1 0 -36.016752710462427 0 0 1 0 0 0 1 forward_v I I I I #
face $-1 $72 $73 $26 $-1 $74 reversed single #
loop $-1 $-1 $75 $34 #
plane-surface $-1 -177.21081914661872 -25.517836724103816 85.420330330895638 0 1 0 -0.79863551827123203 0 0.60181501223851219 forward_v I I I I #
face $-1 $76 $77 $27 $-1 $78 forward single #
loop $-1 $79 $80 $35 #
cone-surface $-1 -64.424311373767935 -21.551967861117266 5.5088723155531616 0.79863551827123203 0 -0.60181501223851219 0.60181501223851219 0 0.79863551827123203 1 I I 0 1 1 forward I I I I #
face $-1 $81 $82 $28 $-1 $83 forward single #
loop $-1 $84 $85 $36 #
cone-surface $-1 -64.424311373767935 -15.603164566637439 5.5088723155531616 0.79863551827123203 0 -0.60181501223851219 0.60181501223851219 0 0.79863551827123203 1 I I 0 1 1 forward I I I I #
face $-1 $86 $87 $29 $-1 $88 reversed single #
loop $-1 $-1 $89 $37 #
plane-surface $-1 -177.21081914661872 22.136211690009493 85.420330330895638 0 1 0 -0.79863551827123203 0 0.60181501223851219 forward_v I I I I #
face $-1 $90 $91 $30 $-1 $92 forward single #
loop $-1 $93 $94 $38 #
cone-surface $-1 -64.424311373767935 26.102080552996043 5.5088723155531616 0.79863551827123203 0 -0.60181501223851219 0.60181501223851219 0 0.79863551827123203 1 I I 0 1 1 forward I I I I #
face $-1 $95 $96 $31 $-1 $97 forward single #
loop $-1 $98 $99 $39 #
cone-surface $-1 -64.424311373767935 32.050883847475873 5.5088723155531616 0.79863551827123203 0 -0.60181501223851219 0.60181501223851219 0 0.79863551827123203 1 I I 0 1 1 forward I I I I #
face $-1 $100 $101 $24 $-1 $102 reversed single #
loop $-1 $-1 $103 $40 #
plane-surface $-1 0 0 -9.7764154067405009 0 0 1 1 0 0 forward_v I I I I #
coedge $-1 $104 $105 $106 $107 forward $41 $-1 #
face $-1 $108 $109 $25 $-1 $110 forward single #
loop $-1 $-1 $111 $43 #
plane-surface $-1 -68.229621265297396 0 0 1 0 0 0 0 -1 forward_v I I I I #
coedge $-1 $112 $113 $114 $115 forward $44 $-1 #
face $-1 $116 $117 $26 $-1 $118 reversed single #
loop $-1 $-1 $119 $46 #
plane-surface $-1 -68.229621265297396 -18.577566213877351 3.2971096172876315 -0.79863551827123203 0 0.60181501223851219 0.60181501223851219 0 0.79863551827123203 forward_v I I I I #
coedge $-1 $120 $121 $122 $123 reversed $47 $-1 #
face $-1 $-1 $124 $27 $-1 $125 forward single #
loop $-1 $126 $127 $49 #
cone-surface $-1 -62.660937213441834 -21.551967861117266 4.1800746129730015 0.79863551827123203 0 -0.60181501223851219 0.3009075061192561 0 0.39931775913561601 1 I I -0.70710678118654746 0.70710678118654746 0.5 forward I I I I #
loop $-1 $-1 $128 $35 #
coedge $-1 $80 $80 $129 $130 reversed $50 $-1 #
face $-1 $-1 $131 $28 $-1 $132 forward single #
loop $-1 $133 $134 $52 #
cone-surface $-1 -62.660937213441834 -15.603164566637439 4.1800746129730015 0.79863551827123203 0 -0.60181501223851219 0.3009075061192561 0 0.39931775913561601 1 I I -0.70710678118654746 0.70710678118654746 0.5 forward I I I I #
loop $-1 $-1 $135 $36 #
coedge $-1 $85 $85 $136 $137 reversed $53 $-1 #
face $-1 $138 $139 $29 $-1 $140 forward single #
loop $-1 $-1 $141 $55 #
plane-surface $-1 -68.229621265297396 29.076482200235958 3.2971096172876315 -0.79863551827123203 0 0.60181501223851219 0.60181501223851219 0 0.79863551827123203 forward_v I I I I #
coedge $-1 $142 $143 $144 $145 reversed $56 $-1 #
face $-1 $-1 $146 $30 $-1 $147 forward single #
loop $-1 $148 $149 $58 #
cone-surface $-1 -62.660937213441834 26.102080552996043 4.1800746129730015 0.79863551827123203 0 -0.60181501223851219 0.3009075061192561 0 0.39931775913561601 1 I I -0.70710678118654746 0.70710678118654746 0.5 forward I I I I #
loop $-1 $-1 $150 $38 #
coedge $-1 $94 $94 $151 $152 reversed $59 $-1 #
face $-1 $-1 $153 $31 $-1 $154 forward single #
loop $-1 $155 $156 $61 #
cone-surface $-1 -62.660937213441834 32.050883847475873 4.1800746129730015 0.79863551827123203 0 -0.60181501223851219 0.3009075061192561 0 0.39931775913561601 1 I I -0.70710678118654746 0.70710678118654746 0.5 forward I I I I #
loop $-1 $-1 $157 $39 #
coedge $-1 $99 $99 $158 $159 reversed $62 $-1 #
face $-1 $160 $161 $24 $-1 $162 reversed single #
loop $-1 $-1 $163 $64 #
plane-surface $-1 0 -36.016752710462427 0 0 1 0 0 0 1 forward_v I I I I #
coedge $-1 $164 $165 $166 $167 forward $65 $-1 #
coedge $-1 $168 $67 $169 $170 forward $41 $-1 #
coedge $-1 $67 $168 $171 $172 forward $41 $-1 #
coedge $-1 $173 $174 $67 $107 reversed $175 $-1 #
edge $-1 $176 -36.016752710462427 $177 36.016752710462427 $106 $178 forward 7 unknown #
face $-1 $179 $180 $25 $-1 $181 reversed single #
loop $-1 $-1 $182 $68 #
plane-surface $-1 0 -41.266210703641732 -4.5053959556615997 0 0 1 1 0 0 forward_v I I I I #
coedge $-1 $183 $184 $113 $185 forward $69 $-1 #
coedge $-1 $186 $71 $187 $188 reversed $44 $-1 #
coedge $-1 $71 $186 $111 $185 reversed $44 $-1 #
coedge $-1 $189 $182 $71 $115 reversed $109 $-1 #
edge $-1 $190 -68.229621265297396 $191 68.229621265297396 $114 $192 forward 7 unknown #
face $-1 $193 $194 $26 $-1 $195 forward single #
loop $-1 $-1 $196 $72 #
plane-surface $-1 -177.21081914661872 -11.637295703650885 85.420330330895638 0 -1 0 0.79863551827123203 0 -0.60181501223851219 forward_v I I I I #
coedge $-1 $197 $198 $199 $200 reversed $73 $-1 #
coedge $-1 $121 $75 $201 $202 reversed $47 $-1 #
coedge $-1 $75 $120 $197 $203 reversed $47 $-1 #
coedge $-1 $199 $204 $75 $123 forward $194 $-1 #
edge $-1 $205 20.375788308011963 $206 25.258295288689908 $122 $207 forward 7 unknown #
loop $-1 $-1 $129 $76 #
plane-surface $-1 -68.229621265297396 -18.577566213877351 3.2971096172876315 -0.79863551827123203 0 0.60181501223851219 0.60181501223851219 0 0.79863551827123203 forward_v I I I I #
loop $-1 $-1 $208 $49 #
coedge $-1 $127 $127 $128 $209 reversed $77 $-1 #
coedge $-1 $128 $128 $127 $209 forward $79 $-1 #
coedge $-1 $129 $129 $80 $130 forward $124 $-1 #
edge $-1 $210 0 $210 6.2831853071796004 $129 $211 forward 7 unknown #
loop $-1 $-1 $136 $81 #
plane-surface $-1 -68.229621265297396 -18.577566213877351 3.2971096172876315 -0.79863551827123203 0 0.60181501223851219 0.60181501223851219 0 0.79863551827123203 forward_v I I I I #
loop $-1 $-1 $212 $52 #
coedge $-1 $134 $134 $135 $213 reversed $82 $-1 #
coedge $-1 $135 $135 $134 $213 forward $84 $-1 #
coedge $-1 $136 $136 $85 $137 forward $131 $-1 #
edge $-1 $214 0 $214 6.2831853071796004 $136 $215 forward 7 unknown #
face $-1 $216 $217 $29 $-1 $218 reversed single #
loop $-1 $-1 $144 $86 #
plane-surface $-1 0 0 9.7764154067405009 0 0 1 1 0 0 forward_v I I I I #
coedge $-1 $219 $220 $221 $222 reversed $87 $-1 #
coedge $-1 $143 $89 $223 $224 reversed $56 $-1 #
coedge $-1 $89 $142 $219 $225 reversed $56 $-1 #
coedge $-1 $221 $226 $89 $145 forward $139 $-1 #
edge $-1 $227 20.375788308011963 $228 25.258295288689908 $144 $229 forward 7 unknown #
loop $-1 $-1 $151 $90 #
plane-surface $-1 -68.229621265297396 29.076482200235958 3.2971096172876315 -0.79863551827123203 0 0.60181501223851219 0.60181501223851219 0 0.79863551827123203 forward_v I I I I #
loop $-1 $-1 $230 $58 #
coedge $-1 $149 $149 $150 $231 reversed $91 $-1 #
coedge $-1 $150 $150 $149 $231 forward $93 $-1 #
coedge $-1 $151 $151 $94 $152 forward $146 $-1 #
edge $-1 $232 0 $232 6.2831853071796004 $151 $233 forward 7 unknown #
loop $-1 $-1 $158 $95 #
plane-surface $-1 -68.229621265297396 29.076482200235958 3.2971096172876315 -0.79863551827123203 0 0.60181501223851219 0.60181501223851219 0 0.79863551827123203 forward_v I I I I #
loop $-1 $-1 $234 $61 #
coedge $-1 $156 $156 $157 $235 reversed $96 $-1 #
coedge $-1 $157 $157 $156 $235 forward $98 $-1 #
coedge $-1 $158 $158 $99 $159 forward $153 $-1 #
edge $-1 $236 0 $236 6.2831853071796004 $158 $237 forward 7 unknown #
face $-1 $238 $239 $24 $-1 $240 reversed single #
loop $-1 $-1 $241 $100 #
plane-surface $-1 -68.229621265297396 0 0 1 0 0 0 0 -1 forward_v I I I I #
coedge $-1 $242 $171 $243 $244 forward $101 $-1 #
coedge $-1 $245 $103 $242 $246 forward $65 $-1 #
coedge $-1 $103 $245 $247 $248 forward $65 $-1 #
coedge $-1 $174 $173 $103 $167 reversed $175 $-1 #
edge $-1 $249 -36.016752710462427 $250 36.016752710462427 $166 $251 forward 7 unknown #
coedge $-1 $105 $104 $252 $253 forward $41 $-1 #
coedge $-1 $254 $255 $104 $170 reversed $239 $-1 #
edge $-1 $177 -68.229621265297396 $256 68.229621265297396 $169 $257 forward 7 unknown #
coedge $-1 $163 $258 $105 $172 reversed $101 $-1 #
edge $-1 $259 -68.229621265297396 $176 68.229621265297396 $171 $260 forward 7 unknown #
coedge $-1 $166 $106 $258 $261 forward $175 $-1 #
coedge $-1 $106 $166 $254 $262 reversed $175 $-1 #
loop $-1 $-1 $173 $238 #
vertex $-1 $107 $263 #
vertex $-1 $107 $264 #
straight-curve $-1 68.229621265297396 0 9.7764154067405009 0 1 0 I I #
face $-1 $265 $266 $25 $-1 $267 reversed single #
loop $-1 $-1 $268 $108 #
plane-surface $-1 0 -41.266210703641732 -8.170529844619443 0 0 1 1 0 0 forward_v I I I I #
coedge $-1 $114 $269 $270 $271 forward $109 $-1 #
coedge $-1 $272 $111 $273 $274 reversed $69 $-1 #
coedge $-1 $111 $272 $189 $275 reversed $69 $-1 #
edge $-1 $190 4.5053959556615997 $276 8.170529844619443 $111 $277 forward 7 unknown #
coedge $-1 $113 $112 $278 $279 forward $44 $-1 #
coedge $-1 $270 $280 $112 $188 forward $281 $-1 #
edge $-1 $282 -8.170529844619443 $191 -4.5053959556615997 $187 $283 forward 7 unknown #
coedge $-1 $269 $114 $184 $275 forward $109 $-1 #
vertex $-1 $185 $284 #
vertex $-1 $271 $285 #
straight-curve $-1 0 -36.016752710462427 -4.5053959556615997 1 0 0 I I #
face $-1 $-1 $286 $26 $-1 $287 reversed single #
loop $-1 $-1 $122 $116 #
plane-surface $-1 0 0 9.7764154067405009 0 0 1 1 0 0 forward_v I I I I #
coedge $-1 $288 $289 $290 $291 reversed $117 $-1 #
coedge $-1 $292 $119 $121 $203 forward $73 $-1 #
coedge $-1 $119 $292 $288 $293 forward $73 $-1 #
coedge $-1 $290 $122 $119 $200 forward $194 $-1 #
edge $-1 $206 -16.229053617165142 $294 -2.3485125967122098 $199 $295 forward 7 unknown #
coedge $-1 $296 $297 $120 $202 forward $286 $-1 #
edge $-1 $298 -39.413055548160187 $205 -32.933749758707322 $201 $299 forward 7 unknown #
edge $-1 $206 -8.1129697355288055 $298 0 $121 $300 forward 7 unknown #
coedge $-1 $122 $290 $296 $301 forward $194 $-1 #
vertex $-1 $202 $302 #
vertex $-1 $123 $303 #
straight-curve $-1 -88.605409573309359 -25.517836724103816 9.7764154067405045 1 0 0 I I #
coedge $-1 $208 $208 $-1 $304 reversed $126 $-1 #
edge $-1 $305 0 $305 6.2831853071796004 $127 $306 forward 7 unknown #
vertex $-1 $130 $307 #
ellipse-curve $-1 -65.788367774958417 -21.551967861117266 6.5367625120140662 -0.79863551827123203 0 0.60181501223851219 0.60181501223851219 0 0.79863551827123203 1 I I #
coedge $-1 $212 $212 $-1 $308 reversed $133 $-1 #
edge $-1 $309 0 $309 6.2831853071796004 $134 $310 forward 7 unknown #
vertex $-1 $137 $311 #
ellipse-curve $-1 -65.788367774958417 -15.603164566637439 6.5367625120140662 -0.79863551827123203 0 0.60181501223851219 0.60181501223851219 0 0.79863551827123203 1 I I #
face $-1 $-1 $312 $29 $-1 $313 reversed single #
loop $-1 $-1 $314 $138 #
plane-surface $-1 0 36.016752710462427 0 0 -1 0 0 0 -1 forward_v I I I I #
coedge $-1 $315 $141 $143 $225 forward $87 $-1 #
coedge $-1 $141 $315 $314 $316 reversed $87 $-1 #
coedge $-1 $317 $144 $141 $222 forward $139 $-1 #
edge $-1 $228 7.5979705898915135 $318 21.478511610344448 $221 $319 forward 7 unknown #
coedge $-1 $320 $321 $142 $224 forward $312 $-1 #
edge $-1 $322 -39.413055548160187 $227 -32.933749758707322 $223 $323 forward 7 unknown #
edge $-1 $228 -8.1129697355288055 $322 0 $143 $324 forward 7 unknown #
coedge $-1 $144 $317 $320 $325 forward $139 $-1 #
vertex $-1 $224 $326 #
vertex $-1 $145 $327 #
straight-curve $-1 -88.605409573309359 22.136211690009493 9.7764154067405045 1 0 0 I I #
coedge $-1 $230 $230 $-1 $328 reversed $148 $-1 #
edge $-1 $329 0 $329 6.2831853071796004 $149 $330 forward 7 unknown #
vertex $-1 $152 $331 #
ellipse-curve $-1 -65.788367774958417 26.102080552996043 6.5367625120140662 -0.79863551827123203 0 0.60181501223851219 0.60181501223851219 0 0.79863551827123203 1 I I #
coedge $-1 $234 $234 $-1 $332 reversed $155 $-1 #
edge $-1 $333 0 $333 6.2831853071796004 $156 $334 forward 7 unknown #
vertex $-1 $159 $335 #
ellipse-curve $-1 -65.788367774958417 32.050883847475873 6.5367625120140662 -0.79863551827123203 0 0.60181501223851219 0.60181501223851219 0 0.79863551827123203 1 I I #
face $-1 $-1 $175 $24 $-1 $336 reversed single #
loop $-1 $-1 $254 $160 #
plane-surface $-1 0 36.016752710462427 0 0 -1 0 0 0 -1 forward_v I I I I #
coedge $-1 $337 $252 $255 $338 forward $161 $-1 #
coedge $-1 $258 $163 $164 $246 reversed $101 $-1 #
coedge $-1 $252 $337 $163 $244 reversed $161 $-1 #
edge $-1 $259 -9.7764154067405009 $339 9.7764154067405009 $243 $340 forward 7 unknown #
coedge $-1 $165 $164 $337 $341 forward $65 $-1 #
edge $-1 $250 -68.229621265297396 $339 68.229621265297396 $242 $342 forward 7 unknown #
coedge $-1 $255 $254 $165 $248 reversed $239 $-1 #
edge $-1 $343 -68.229621265297396 $249 68.229621265297396 $247 $344 forward 7 unknown #
vertex $-1 $167 $345 #
vertex $-1 $261 $346 #
straight-curve $-1 68.229621265297396 0 -9.7764154067405009 0 -1 0 I I #
coedge $-1 $241 $243 $168 $253 reversed $161 $-1 #
edge $-1 $256 -36.016752710462427 $259 36.016752710462427 $252 $347 forward 7 unknown #
coedge $-1 $247 $169 $174 $262 forward $239 $-1 #
coedge $-1 $169 $247 $241 $338 reversed $239 $-1 #
vertex $-1 $170 $348 #
straight-curve $-1 0 36.016752710462427 9.7764154067405009 -1 0 0 I I #
coedge $-1 $171 $242 $173 $261 reversed $101 $-1 #
vertex $-1 $253 $349 #
straight-curve $-1 0 -36.016752710462427 9.7764154067405009 1 0 0 I I #
edge $-1 $176 -9.7764154067405009 $250 9.7764154067405009 $173 $350 forward 7 unknown #
edge $-1 $177 -9.7764154067405009 $249 9.7764154067405009 $174 $351 forward 7 unknown #
point $-1 68.229621265297396 -36.016752710462427 9.7764154067405009 #
point $-1 68.229621265297396 36.016752710462427 9.7764154067405009 #
face $-1 $-1 $281 $25 $-1 $352 reversed single #
loop $-1 $-1 $353 $179 #
plane-surface $-1 0 -46.515668696821038 -6.3379629001405213 0 1 0 0 0 1 forward_v I I I I #
coedge $-1 $354 $278 $280 $355 forward $180 $-1 #
coedge $-1 $182 $189 $356 $357 forward $109 $-1 #
coedge $-1 $358 $187 $182 $271 reversed $281 $-1 #
edge $-1 $359 -5.2494579931793055 $191 5.2494579931793055 $270 $360 forward 7 unknown #
coedge $-1 $184 $183 $353 $361 reversed $69 $-1 #
coedge $-1 $278 $354 $183 $274 forward $180 $-1 #
edge $-1 $362 -5.2494579931793055 $276 5.2494579931793055 $183 $363 forward 7 unknown #
edge $-1 $190 -5.2494579931793055 $364 5.2494579931793055 $184 $365 forward 7 unknown #
vertex $-1 $185 $366 #
straight-curve $-1 -68.229621265297396 -36.016752710462427 0 0 0 -1 I I #
coedge $-1 $268 $273 $186 $279 reversed $180 $-1 #
edge $-1 $282 -68.229621265297396 $276 68.229621265297396 $278 $367 forward 7 unknown #
coedge $-1 $187 $358 $268 $355 reversed $281 $-1 #
loop $-1 $-1 $187 $265 #
vertex $-1 $188 $368 #
straight-curve $-1 68.229621265297396 -36.016752710462427 0 0 0 1 I I #
point $-1 -68.229621265297396 -36.016752710462427 -4.5053959556615997 #
point $-1 68.229621265297396 -36.016752710462427 -4.5053959556615997 #
loop $-1 $-1 $201 $193 #
plane-surface $-1 -68.229621265297396 0 0 1 0 0 0 0 -1 forward_v I I I I #
coedge $-1 $289 $196 $198 $293 reversed $117 $-1 #
coedge $-1 $196 $288 $369 $370 reversed $117 $-1 #
coedge $-1 $204 $199 $196 $291 forward $194 $-1 #
edge $-1 $294 -25.258295288689908 $371 -20.375788308011963 $290 $372 forward 7 unknown #
coedge $-1 $198 $197 $297 $373 reversed $73 $-1 #
edge $-1 $374 0 $294 8.1129697355288055 $288 $375 forward 7 unknown #
vertex $-1 $200 $376 #
straight-curve $-1 -63.347114284619444 -9.2887831069386753 9.7764154067405009 0 1 0 I I #
coedge $-1 $369 $201 $204 $301 reversed $286 $-1 #
coedge $-1 $201 $369 $292 $373 forward $286 $-1 #
vertex $-1 $202 $377 #
straight-curve $-1 -68.229621265297396 -25.517836724103816 42.710165165447819 0 0 1 I I #
straight-curve $-1 -68.229621265297396 -25.517836724103816 3.2971096172876315 -0.60181501223851219 0 -0.79863551827123203 I I #
edge $-1 $371 11.637295703650885 $205 25.517836724103816 $296 $378 forward 7 unknown #
point $-1 -68.229621265297396 -25.517836724103816 9.7764154067405009 #
point $-1 -63.347114284619451 -25.517836724103816 9.7764154067405009 #
edge $-1 $379 1 $379 0 $208 $-1 forward 7 unknown #
vertex $-1 $209 $380 #
ellipse-curve $-1 -63.060254972577447 -21.551967861117266 4.4809821190922579 -0.79863551827123203 0 0.60181501223851219 0.60181501223851219 0 0.79863551827123203 1 I I #
point $-1 -65.186552762719913 -21.551967861117266 7.3353980302852975 #
edge $-1 $381 1 $381 0 $212 $-1 forward 7 unknown #
vertex $-1 $213 $382 #
ellipse-curve $-1 -63.060254972577447 -15.603164566637439 4.4809821190922579 -0.79863551827123203 0 0.60181501223851219 0.60181501223851219 0 0.79863551827123203 1 I I #
point $-1 -65.186552762719913 -15.603164566637439 7.3353980302852975 #
loop $-1 $-1 $223 $216 #
plane-surface $-1 -68.229621265297396 0 0 1 0 0 0 0 -1 forward_v I I I I #
coedge $-1 $383 $384 $220 $316 forward $217 $-1 #
coedge $-1 $220 $219 $321 $385 reversed $87 $-1 #
edge $-1 $318 11.101241018873411 $386 19.214210754402217 $314 $387 forward 7 unknown #
coedge $-1 $226 $221 $384 $388 forward $139 $-1 #
vertex $-1 $388 $389 #
straight-curve $-1 -63.347114284619444 14.538241100117979 9.7764154067405009 0 1 0 I I #
coedge $-1 $390 $223 $226 $325 reversed $312 $-1 #
coedge $-1 $223 $390 $315 $385 forward $312 $-1 #
vertex $-1 $224 $391 #
straight-curve $-1 -68.229621265297396 22.136211690009493 42.710165165447819 0 0 1 I I #
straight-curve $-1 -68.229621265297396 22.136211690009493 3.2971096172876315 -0.60181501223851219 0 -0.79863551827123203 I I #
edge $-1 $392 -36.016752710462427 $227 -22.136211690009493 $320 $393 forward 7 unknown #
point $-1 -68.229621265297396 22.136211690009493 9.7764154067405009 #
point $-1 -63.347114284619451 22.136211690009493 9.7764154067405009 #
edge $-1 $394 1 $394 0 $230 $-1 forward 7 unknown #
vertex $-1 $231 $395 #
ellipse-curve $-1 -63.060254972577447 26.102080552996043 4.4809821190922579 -0.79863551827123203 0 0.60181501223851219 0.60181501223851219 0 0.79863551827123203 1 I I #
point $-1 -65.186552762719913 26.102080552996043 7.3353980302852975 #
edge $-1 $396 1 $396 0 $234 $-1 forward 7 unknown #
vertex $-1 $235 $397 #
ellipse-curve $-1 -63.060254972577447 32.050883847475873 4.4809821190922579 -0.79863551827123203 0 0.60181501223851219 0.60181501223851219 0 0.79863551827123203 1 I I #
point $-1 -65.186552762719913 32.050883847475873 7.3353980302852975 #
plane-surface $-1 68.229621265297396 0 0 -1 0 0 0 0 1 forward_v I I I I #
coedge $-1 $243 $241 $245 $341 reversed $161 $-1 #
edge $-1 $256 -9.7764154067405009 $343 9.7764154067405009 $255 $398 forward 7 unknown #
vertex $-1 $341 $399 #
straight-curve $-1 -68.229621265297396 -36.016752710462427 0 0 0 -1 I I #
edge $-1 $339 -36.016752710462427 $343 36.016752710462427 $337 $400 forward 7 unknown #
straight-curve $-1 0 -36.016752710462427 -9.7764154067405009 -1 0 0 I I #
vertex $-1 $248 $401 #
straight-curve $-1 0 36.016752710462427 -9.7764154067405009 1 0 0 I I #
point $-1 68.229621265297396 36.016752710462427 -9.7764154067405009 #
point $-1 68.229621265297396 -36.016752710462427 -9.7764154067405009 #
straight-curve $-1 -68.229621265297396 0 9.7764154067405009 0 -1 0 I I #
point $-1 -68.229621265297396 36.016752710462427 9.7764154067405009 #
point $-1 -68.229621265297396 -36.016752710462427 9.7764154067405009 #
straight-curve $-1 68.229621265297396 -36.016752710462427 0 0 0 -1 I I #
straight-curve $-1 68.229621265297396 36.016752710462427 0 0 0 -1 I I #
plane-surface $-1 68.229621265297396 0 0 -1 0 0 0 0 1 forward_v I I I I #
coedge $-1 $402 $356 $272 $361 forward $266 $-1 #
coedge $-1 $273 $268 $402 $403 forward $180 $-1 #
edge $-1 $282 -5.2494579931793055 $404 5.2494579931793055 $280 $405 forward 7 unknown #
coedge $-1 $353 $406 $269 $357 reversed $266 $-1 #
edge $-1 $364 -68.229621265297396 $359 68.229621265297396 $356 $407 forward 7 unknown #
coedge $-1 $280 $270 $406 $408 forward $281 $-1 #
vertex $-1 $271 $409 #
straight-curve $-1 68.229621265297396 -41.266210703641732 -4.5053959556615997 0 1 0 I I #
edge $-1 $364 -1.8325669444789217 $362 1.8325669444789217 $272 $410 forward 7 unknown #
vertex $-1 $274 $411 #
straight-curve $-1 -68.229621265297396 -41.266210703641732 -8.170529844619443 0 1 0 I I #
vertex $-1 $275 $412 #
straight-curve $-1 -68.229621265297396 -41.266210703641732 -4.5053959556615997 0 -1 0 I I #
point $-1 -68.229621265297396 -36.016752710462427 -8.170529844619443 #
straight-curve $-1 0 -36.016752710462427 -8.170529844619443 -1 0 0 I I #
point $-1 68.229621265297396 -36.016752710462427 -8.170529844619443 #
coedge $-1 $297 $296 $289 $370 forward $286 $-1 #
edge $-1 $371 32.933749758707322 $374 39.413055548160187 $369 $413 forward 7 unknown #
vertex $-1 $301 $414 #
straight-curve $-1 -88.605409573309359 -11.637295703650885 9.7764154067405045 -1 0 0 I I #
edge $-1 $374 2.3485125967122098 $298 16.229053617165142 $297 $415 forward 7 unknown #
vertex $-1 $373 $416 #
straight-curve $-1 -68.229621265297396 -11.637295703650885 3.2971096172876315 0.60181501223851219 0 0.79863551827123203 I I #
point $-1 -63.347114284619451 -11.637295703650885 9.7764154067405009 #
point $-1 -68.229621265297396 -25.517836724103816 3.2971096172876315 #
straight-curve $-1 -68.229621265297396 0 9.7764154067405009 0 -1 0 I I #
vertex $-1 $304 $417 #
point $-1 -62.458439960338936 -21.551967861117266 5.27961763736349 #
vertex $-1 $308 $418 #
point $-1 -62.458439960338936 -15.603164566637439 5.27961763736349 #
coedge $-1 $384 $314 $390 $419 reversed $217 $-1 #
coedge $-1 $314 $383 $317 $388 reversed $217 $-1 #
edge $-1 $386 -21.478511610344448 $322 -7.5979705898915135 $321 $420 forward 7 unknown #
vertex $-1 $316 $421 #
straight-curve $-1 -56.666220784983473 36.016752710462427 18.642260781302326 -0.60181501223851219 0 -0.79863551827123203 I I #
edge $-1 $318 63.347114284619451 $392 68.229621265297396 $384 $422 forward 7 unknown #
point $-1 -63.347114284619451 36.016752710462427 9.7764154067405009 #
coedge $-1 $321 $320 $383 $419 forward $312 $-1 #
point $-1 -68.229621265297396 22.136211690009493 3.2971096172876315 #
vertex $-1 $388 $423 #
straight-curve $-1 -68.229621265297396 0 9.7764154067405009 0 -1 0 I I #
vertex $-1 $328 $424 #
point $-1 -62.458439960338936 26.102080552996043 5.27961763736349 #
vertex $-1 $332 $425 #
point $-1 -62.458439960338936 32.050883847475873 5.27961763736349 #
straight-curve $-1 -68.229621265297396 36.016752710462427 0 0 0 -1 I I #
point $-1 -68.229621265297396 -36.016752710462427 -9.7764154067405009 #
straight-curve $-1 -68.229621265297396 0 -9.7764154067405009 0 1 0 I I #
point $-1 -68.229621265297396 36.016752710462427 -9.7764154067405009 #
coedge $-1 $406 $353 $354 $403 reversed $266 $-1 #
edge $-1 $404 -68.229621265297396 $362 68.229621265297396 $402 $426 forward 7 unknown #
vertex $-1 $408 $427 #
straight-curve $-1 68.229621265297396 -41.266210703641732 -8.170529844619443 0 -1 0 I I #
coedge $-1 $356 $402 $358 $408 reversed $266 $-1 #
straight-curve $-1 0 -46.515668696821038 -4.5053959556615997 1 0 0 I I #
edge $-1 $359 -1.8325669444789217 $404 1.8325669444789217 $358 $428 forward 7 unknown #
point $-1 68.229621265297396 -46.515668696821038 -4.5053959556615997 #
straight-curve $-1 -68.229621265297396 -46.515668696821038 -6.3379629001405213 0 0 -1 I I #
point $-1 -68.229621265297396 -46.515668696821038 -8.170529844619443 #
point $-1 -68.229621265297396 -46.515668696821038 -4.5053959556615997 #
straight-curve $-1 -68.229621265297396 -11.637295703650885 42.710165165447819 0 0 -1 I I #
point $-1 -68.229621265297396 -11.637295703650885 9.7764154067405009 #
straight-curve $-1 -68.229621265297396 -9.2887831069386753 3.2971096172876253 0 -1 0 I I #
point $-1 -68.229621265297396 -11.637295703650885 3.2971096172876315 #
point $-1 -62.261619454306221 -21.551967861117266 3.8791671068537452 #
point $-1 -62.261619454306221 -15.603164566637439 3.8791671068537452 #
edge $-1 $392 -9.7764154067405009 $386 -3.2971096172876315 $383 $429 forward 7 unknown #
straight-curve $-1 -68.229621265297396 14.538241100117979 3.2971096172876253 0 -1 0 I I #
point $-1 -68.229621265297396 36.016752710462427 3.2971096172876315 #
straight-curve $-1 0 36.016752710462427 9.7764154067405009 -1 0 0 I I #
point $-1 -68.229621265297396 36.016752710462427 9.7764154067405009 #
point $-1 -62.261619454306221 26.102080552996043 3.8791671068537452 #
point $-1 -62.261619454306221 32.050883847475873 3.8791671068537452 #
straight-curve $-1 0 -46.515668696821038 -8.170529844619443 -1 0 0 I I #
point $-1 68.229621265297396 -46.515668696821038 -8.170529844619443 #
straight-curve $-1 68.229621265297396 -46.515668696821038 -6.3379629001405213 0 0 -1 I I #
straight-curve $-1 -68.229621265297396 36.016752710462427 0 0 0 -1 I I #
End-of-ACIS-data 