500 0 6 0           
7 Unknown 11 ACIS 5.0 NT 24 Thu Mar 25 17:35:29 1999 
-1 9.9999999999999995e-007 1e-010 
body $-1 $6 $-1 $7 #
body $-1 $8 $-1 $9 #
body $-1 $10 $-1 $11 #
body $-1 $12 $-1 $13 #
body $-1 $14 $-1 $15 #
body $-1 $16 $-1 $17 #
lump $-1 $-1 $18 $0 #
transform $-1 1 0 0 0 1 0 0 0 1 63.216040528580585 38.210524475873939 8.151819554692123 1 rotate no_reflect no_shear #
lump $-1 $-1 $19 $1 #
transform $-1 1 0 0 0 1 0 0 0 1 63.216040528580585 38.210524475873939 8.151819554692123 1 rotate no_reflect no_shear #
lump $-1 $-1 $20 $2 #
transform $-1 1 0 0 0 1 0 0 0 1 63.216040528580585 38.210524475873939 8.151819554692123 1 rotate no_reflect no_shear #
lump $-1 $-1 $21 $3 #
transform $-1 1 0 0 0 1 0 0 0 1 63.216040528580585 38.210524475873939 8.151819554692123 1 rotate no_reflect no_shear #
lump $-1 $-1 $22 $4 #
transform $-1 1 0 0 0 1 0 0 0 1 63.216040528580585 38.210524475873939 8.151819554692123 1 rotate no_reflect no_shear #
lump $-1 $-1 $23 $5 #
transform $-1 1 0 0 0 1 0 0 0 1 63.216040528580585 38.210524475873939 8.151819554692123 1 rotate no_reflect no_shear #
shell $-1 $-1 $-1 $24 $-1 $6 #
shell $-1 $-1 $-1 $25 $-1 $8 #
shell $-1 $-1 $-1 $26 $-1 $10 #
shell $-1 $-1 $-1 $27 $-1 $12 #
shell $-1 $-1 $-1 $28 $-1 $14 #
shell $-1 $-1 $-1 $29 $-1 $16 #
face $-1 $30 $31 $18 $-1 $32 forward single #
face $-1 $33 $34 $19 $-1 $35 forward single #
face $-1 $36 $37 $20 $-1 $38 reversed single #
face $-1 $39 $40 $21 $-1 $41 forward single #
face $-1 $42 $43 $22 $-1 $44 reversed single #
face $-1 $45 $46 $23 $-1 $47 forward single #
face $-1 $48 $49 $18 $-1 $50 reversed single #
loop $-1 $-1 $51 $24 #
plane-surface $-1 0 0 8.151819554692123 0 0 1 1 0 0 forward_v I I I I #
face $-1 $52 $53 $19 $-1 $54 reversed single #
loop $-1 $-1 $55 $25 #
plane-surface $-1 -63.216040528580585 0 0 1 0 0 0 0 -1 forward_v I I I I #
face $-1 $56 $57 $20 $-1 $58 reversed single #
loop $-1 $-1 $59 $26 #
plane-surface $-1 -22.362304917821138 40.400595994123961 148.7801611944908 1 0 0 0 -0.52991927123019833 -0.84804809178421925 forward_v I I I I #
face $-1 $60 $61 $21 $-1 $62 forward single #
loop $-1 $63 $64 $27 #
cone-surface $-1 -5.6136264973289869 32.122672357322266 3.9425356820594075 0 -0.52991927123019833 -0.84804809178421925 1 0 0 1 I I 0 1 1 forward I I I I #
face $-1 $65 $66 $22 $-1 $67 reversed single #
loop $-1 $-1 $68 $28 #
plane-surface $-1 18.972063525123275 -114.29925122772235 105.08256095889466 -1 0 0 0 -0.6018150307709319 0.79863550430605224 forward_v I I I I #
face $-1 $69 $70 $23 $-1 $71 forward single #
loop $-1 $72 $73 $29 #
cone-surface $-1 8.8603054576926255 -35.19063774073657 5.6825273932883018 0 0.6018150307709319 -0.79863550430605224 1 0 0 1 I I 0 1 1 forward I I I I #
face $-1 $74 $75 $18 $-1 $76 reversed single #
loop $-1 $-1 $77 $30 #
plane-surface $-1 0 0 -8.151819554692123 0 0 1 1 0 0 forward_v I I I I #
coedge $-1 $78 $79 $80 $81 forward $31 $-1 #
face $-1 $82 $83 $19 $-1 $84 reversed single #
loop $-1 $-1 $85 $33 #
plane-surface $-1 0 0 -8.151819554692123 0 0 1 1 0 0 forward_v I I I I #
coedge $-1 $86 $87 $88 $89 forward $34 $-1 #
face $-1 $90 $91 $20 $-1 $92 reversed single #
loop $-1 $-1 $93 $36 #
plane-surface $-1 -5.6136264973289869 -26.598200259804244 41.559676113657531 0 0.52991927123019833 0.84804809178421925 1 0 0 forward_v I I I I #
coedge $-1 $94 $95 $96 $97 reversed $37 $-1 #
face $-1 $-1 $98 $21 $-1 $99 forward single #
loop $-1 $100 $101 $39 #
cone-surface $-1 -5.6136264973289869 31.442350265496927 2.8537927676306598 0 -0.52991927123019833 -0.84804809178421925 0.5 0 0 1 I I -0.70710678118654746 0.70710678118654746 0.5 forward I I I I #
loop $-1 $-1 $102 $27 #
coedge $-1 $64 $64 $103 $104 reversed $40 $-1 #
face $-1 $105 $106 $22 $-1 $107 reversed single #
loop $-1 $-1 $108 $42 #
plane-surface $-1 8.8603054576926397 -38.210524475873939 4.1094121433450681 0 -0.6018150307709319 0.79863550430605224 1 0 0 forward_v I I I I #
coedge $-1 $109 $110 $111 $112 reversed $43 $-1 #
face $-1 $-1 $113 $23 $-1 $114 forward single #
loop $-1 $115 $116 $45 #
cone-surface $-1 8.8603054576926255 -34.552071348029159 4.8351211854049794 0 0.6018150307709319 -0.79863550430605224 0.5 0 0 1 I I -0.70710678118654746 0.70710678118654746 0.5 forward I I I I #
loop $-1 $-1 $117 $29 #
coedge $-1 $73 $73 $118 $119 reversed $46 $-1 #
face $-1 $120 $121 $18 $-1 $122 reversed single #
loop $-1 $-1 $123 $48 #
plane-surface $-1 0 -38.210524475873939 0 0 1 0 0 0 1 forward_v I I I I #
coedge $-1 $124 $125 $126 $127 forward $49 $-1 #
coedge $-1 $128 $51 $129 $130 forward $31 $-1 #
coedge $-1 $51 $128 $131 $132 forward $31 $-1 #
coedge $-1 $133 $134 $51 $81 reversed $135 $-1 #
edge $-1 $136 -38.210524475873939 $137 38.210524475873939 $80 $138 forward 7 unknown #
face $-1 $139 $140 $19 $-1 $141 reversed single #
loop $-1 $-1 $142 $52 #
plane-surface $-1 -67.804818101220349 -36.913336922569002 0 0 1 0 0 0 1 forward_v I I I I #
coedge $-1 $143 $144 $87 $145 forward $53 $-1 #
coedge $-1 $146 $55 $147 $148 reversed $34 $-1 #
coedge $-1 $55 $146 $85 $145 reversed $34 $-1 #
coedge $-1 $149 $150 $55 $89 reversed $151 $-1 #
edge $-1 $152 -8.151819554692123 $153 8.151819554692123 $88 $154 forward 7 unknown #
face $-1 $155 $156 $20 $-1 $157 forward single #
loop $-1 $-1 $158 $56 #
plane-surface $-1 11.135051923163164 40.400595994123961 148.7801611944908 -1 0 0 0 0.52991927123019833 0.84804809178421925 forward_v I I I I #
coedge $-1 $159 $160 $161 $162 reversed $57 $-1 #
coedge $-1 $95 $59 $163 $164 reversed $37 $-1 #
coedge $-1 $59 $94 $159 $165 reversed $37 $-1 #
coedge $-1 $161 $166 $59 $97 forward $156 $-1 #
edge $-1 $167 -18.010226478811958 $168 -6.6652471541291476 $96 $169 forward 7 unknown #
loop $-1 $-1 $103 $60 #
plane-surface $-1 -5.6136264973289869 -26.598200259804244 41.559676113657531 0 0.52991927123019833 0.84804809178421925 1 0 0 forward_v I I I I #
loop $-1 $-1 $170 $39 #
coedge $-1 $101 $101 $102 $171 reversed $61 $-1 #
coedge $-1 $102 $102 $101 $171 forward $63 $-1 #
coedge $-1 $103 $103 $64 $104 forward $98 $-1 #
edge $-1 $172 -5.3693350917480021e-015 $172 6.2831853071795951 $103 $173 forward 7 unknown #
face $-1 $174 $175 $22 $-1 $176 forward single #
loop $-1 $-1 $177 $65 #
plane-surface $-1 -1.2514526097379957 -114.29925122772235 105.08256095889466 1 0 0 0 0.6018150307709319 -0.79863550430605224 forward_v I I I I #
coedge $-1 $178 $179 $180 $181 reversed $66 $-1 #
coedge $-1 $110 $68 $182 $183 reversed $43 $-1 #
coedge $-1 $68 $109 $178 $184 reversed $43 $-1 #
coedge $-1 $180 $185 $68 $112 forward $175 $-1 #
edge $-1 $186 18.939101137987237 $187 24.303556853618083 $111 $188 forward 7 unknown #
loop $-1 $-1 $118 $69 #
plane-surface $-1 8.8603054576926397 -38.210524475873939 4.1094121433450681 0 -0.6018150307709319 0.79863550430605224 1 0 0 forward_v I I I I #
loop $-1 $-1 $189 $45 #
coedge $-1 $116 $116 $117 $190 reversed $70 $-1 #
coedge $-1 $117 $117 $116 $190 forward $72 $-1 #
coedge $-1 $118 $118 $73 $119 forward $113 $-1 #
edge $-1 $191 -5.1401274380657878e-015 $191 6.2831853071795951 $118 $192 forward 7 unknown #
face $-1 $193 $194 $18 $-1 $195 reversed single #
loop $-1 $-1 $196 $74 #
plane-surface $-1 -63.216040528580585 0 0 1 0 0 0 0 -1 forward_v I I I I #
coedge $-1 $197 $131 $198 $199 forward $75 $-1 #
coedge $-1 $200 $77 $197 $201 forward $49 $-1 #
coedge $-1 $77 $200 $202 $203 forward $49 $-1 #
coedge $-1 $134 $133 $77 $127 reversed $135 $-1 #
edge $-1 $204 -38.210524475873939 $205 38.210524475873939 $126 $206 forward 7 unknown #
coedge $-1 $79 $78 $207 $208 forward $31 $-1 #
coedge $-1 $209 $210 $78 $130 reversed $194 $-1 #
edge $-1 $137 -63.216040528580585 $211 63.216040528580585 $129 $212 forward 7 unknown #
coedge $-1 $123 $213 $79 $132 reversed $75 $-1 #
edge $-1 $214 -63.216040528580585 $136 63.216040528580585 $131 $215 forward 7 unknown #
coedge $-1 $126 $80 $213 $216 forward $135 $-1 #
coedge $-1 $80 $126 $209 $217 reversed $135 $-1 #
loop $-1 $-1 $133 $193 #
vertex $-1 $81 $218 #
vertex $-1 $81 $219 #
straight-curve $-1 63.216040528580585 0 8.151819554692123 0 1 0 I I #
face $-1 $220 $151 $19 $-1 $221 reversed single #
loop $-1 $-1 $222 $82 #
plane-surface $-1 -72.393595673860119 -34.617806229704236 0 1 0 0 0 0 -1 forward_v I I I I #
coedge $-1 $223 $224 $225 $226 forward $83 $-1 #
coedge $-1 $227 $85 $223 $228 forward $53 $-1 #
coedge $-1 $85 $227 $149 $229 forward $53 $-1 #
edge $-1 $152 32.32227553683947 $230 36.913336922569002 $85 $231 forward 7 unknown #
coedge $-1 $87 $86 $232 $233 forward $34 $-1 #
coedge $-1 $234 $235 $86 $148 forward $236 $-1 #
edge $-1 $237 -36.913336922569002 $153 -32.32227553683947 $147 $238 forward 7 unknown #
coedge $-1 $239 $88 $144 $229 reversed $151 $-1 #
coedge $-1 $88 $239 $234 $240 reversed $151 $-1 #
loop $-1 $-1 $88 $139 #
vertex $-1 $145 $241 #
vertex $-1 $240 $242 #
straight-curve $-1 -63.216040528580585 -32.32227553683947 0 0 0 1 I I #
face $-1 $-1 $243 $20 $-1 $244 reversed single #
loop $-1 $-1 $96 $90 #
plane-surface $-1 0 0 8.151819554692123 0 0 1 1 0 0 forward_v I I I I #
coedge $-1 $245 $246 $247 $248 reversed $91 $-1 #
coedge $-1 $249 $93 $95 $165 forward $57 $-1 #
coedge $-1 $93 $249 $245 $250 forward $57 $-1 #
coedge $-1 $247 $96 $93 $162 forward $156 $-1 #
edge $-1 $168 -19.555491669156645 $251 13.941865171827658 $161 $252 forward 7 unknown #
coedge $-1 $253 $254 $94 $164 forward $243 $-1 #
edge $-1 $255 -73.327391050745405 $167 -66.238261042553276 $163 $256 forward 7 unknown #
edge $-1 $168 63.043294276521891 $255 76.421048951747863 $95 $257 forward 7 unknown #
coedge $-1 $96 $247 $253 $258 forward $156 $-1 #
vertex $-1 $164 $259 #
vertex $-1 $97 $260 #
straight-curve $-1 -22.362304917821138 20.20029799706198 8.1518195546921248 0 -1 0 I I #
coedge $-1 $170 $170 $-1 $261 reversed $100 $-1 #
edge $-1 $262 0 $262 6.2831853071796004 $101 $263 forward 7 unknown #
vertex $-1 $104 $264 #
ellipse-curve $-1 -5.6136264973289869 32.538034813532519 4.6072545505960685 0 0.52991927123019833 0.84804809178421925 1 0 0 1 I I #
face $-1 $-1 $265 $22 $-1 $266 reversed single #
loop $-1 $-1 $111 $105 #
plane-surface $-1 0 0 8.151819554692123 0 0 1 1 0 0 forward_v I I I I #
coedge $-1 $267 $268 $269 $270 reversed $106 $-1 #
coedge $-1 $271 $108 $110 $184 forward $66 $-1 #
coedge $-1 $108 $271 $267 $272 forward $66 $-1 #
coedge $-1 $269 $111 $108 $181 forward $175 $-1 #
edge $-1 $187 -14.541910796276955 $273 5.6816053385843155 $180 $274 forward 7 unknown #
coedge $-1 $275 $276 $109 $183 forward $265 $-1 #
edge $-1 $277 -48.431868336102262 $186 -44.389460924755205 $182 $278 forward 7 unknown #
edge $-1 $187 -6.7170263364287965 $277 0 $110 $279 forward 7 unknown #
coedge $-1 $111 $269 $275 $280 forward $175 $-1 #
vertex $-1 $112 $281 #
vertex $-1 $112 $282 #
straight-curve $-1 18.972063525123275 -57.149625613861176 8.1518195546921248 0 1 0 I I #
coedge $-1 $189 $189 $-1 $283 reversed $115 $-1 #
edge $-1 $284 0 $284 6.2831853071796004 $116 $285 forward 7 unknown #
vertex $-1 $119 $286 #
ellipse-curve $-1 8.8603054576926255 -35.528296618058512 6.1306158490185974 0 -0.6018150307709319 0.79863550430605224 1 0 0 1 I I #
face $-1 $-1 $135 $18 $-1 $287 reversed single #
loop $-1 $-1 $209 $120 #
plane-surface $-1 0 38.210524475873939 0 0 -1 0 0 0 -1 forward_v I I I I #
coedge $-1 $288 $207 $210 $289 forward $121 $-1 #
coedge $-1 $213 $123 $124 $201 reversed $75 $-1 #
coedge $-1 $207 $288 $123 $199 reversed $121 $-1 #
edge $-1 $214 -8.151819554692123 $290 8.151819554692123 $198 $291 forward 7 unknown #
coedge $-1 $125 $124 $288 $292 forward $49 $-1 #
edge $-1 $205 -63.216040528580585 $290 63.216040528580585 $197 $293 forward 7 unknown #
coedge $-1 $210 $209 $125 $203 reversed $194 $-1 #
edge $-1 $294 -63.216040528580585 $204 63.216040528580585 $202 $295 forward 7 unknown #
vertex $-1 $127 $296 #
vertex $-1 $216 $297 #
straight-curve $-1 63.216040528580585 0 -8.151819554692123 0 -1 0 I I #
coedge $-1 $196 $198 $128 $208 reversed $121 $-1 #
edge $-1 $211 -38.210524475873939 $214 38.210524475873939 $207 $298 forward 7 unknown #
coedge $-1 $202 $129 $134 $217 forward $194 $-1 #
coedge $-1 $129 $202 $196 $289 reversed $194 $-1 #
vertex $-1 $130 $299 #
straight-curve $-1 0 38.210524475873939 8.151819554692123 -1 0 0 I I #
coedge $-1 $131 $197 $133 $216 reversed $75 $-1 #
vertex $-1 $208 $300 #
straight-curve $-1 0 -38.210524475873939 8.151819554692123 1 0 0 I I #
edge $-1 $136 -8.151819554692123 $205 8.151819554692123 $133 $301 forward 7 unknown #
edge $-1 $137 -8.151819554692123 $204 8.151819554692123 $134 $302 forward 7 unknown #
point $-1 63.216040528580585 -38.210524475873939 8.151819554692123 #
point $-1 63.216040528580585 38.210524475873939 8.151819554692123 #
face $-1 $-1 $236 $19 $-1 $303 forward single #
plane-surface $-1 -67.804818101220349 -32.32227553683947 0 0 -1 0 0 0 -1 forward_v I I I I #
coedge $-1 $304 $305 $239 $306 forward $140 $-1 #
coedge $-1 $232 $142 $143 $228 reversed $83 $-1 #
coedge $-1 $142 $232 $235 $307 reversed $83 $-1 #
coedge $-1 $305 $304 $142 $226 reversed $140 $-1 #
edge $-1 $308 -8.151819554692123 $309 8.151819554692123 $225 $310 forward 7 unknown #
coedge $-1 $144 $143 $304 $311 forward $53 $-1 #
edge $-1 $230 -4.5887775726397706 $309 4.5887775726397706 $223 $312 forward 7 unknown #
edge $-1 $313 -4.5887775726397706 $152 4.5887775726397706 $149 $314 forward 7 unknown #
vertex $-1 $228 $315 #
straight-curve $-1 -63.216040528580585 0 -8.151819554692123 0 -1 0 I I #
coedge $-1 $224 $223 $146 $233 reversed $83 $-1 #
edge $-1 $237 -8.151819554692123 $230 8.151819554692123 $232 $316 forward 7 unknown #
coedge $-1 $317 $147 $150 $240 forward $236 $-1 #
coedge $-1 $147 $317 $224 $307 forward $236 $-1 #
loop $-1 $-1 $147 $220 #
vertex $-1 $148 $318 #
straight-curve $-1 -63.216040528580585 0 8.151819554692123 0 1 0 I I #
coedge $-1 $150 $149 $222 $306 reversed $151 $-1 #
edge $-1 $153 -4.5887775726397706 $319 4.5887775726397706 $150 $320 forward 7 unknown #
point $-1 -63.216040528580578 -32.32227553683947 -8.151819554692123 #
point $-1 -63.216040528580578 -32.32227553683947 8.151819554692123 #
loop $-1 $-1 $163 $155 #
plane-surface $-1 0 38.210524475873939 0 0 -1 0 0 0 -1 forward_v I I I I #
coedge $-1 $246 $158 $160 $250 reversed $91 $-1 #
coedge $-1 $158 $245 $321 $322 reversed $91 $-1 #
coedge $-1 $166 $161 $158 $248 forward $156 $-1 #
edge $-1 $251 6.6652471541291476 $323 18.010226478811958 $247 $324 forward 7 unknown #
coedge $-1 $160 $159 $254 $325 reversed $57 $-1 #
edge $-1 $326 -76.421048951747863 $251 -63.043294276521891 $245 $327 forward 7 unknown #
vertex $-1 $162 $328 #
straight-curve $-1 -2.8068132486644934 26.865545151191135 8.1518195546921177 1 0 0 I I #
coedge $-1 $321 $163 $166 $258 reversed $243 $-1 #
coedge $-1 $163 $321 $249 $325 forward $243 $-1 #
vertex $-1 $164 $329 #
straight-curve $-1 -22.362304917821138 38.210524475873939 74.390080597245401 0 0 1 I I #
straight-curve $-1 -22.362304917821138 -26.598200259804244 41.559676113657531 0 0.84804809178421925 -0.52991927123019833 I I #
edge $-1 $323 -11.135051923163164 $167 22.362304917821138 $253 $330 forward 7 unknown #
point $-1 -22.362304917821138 38.210524475873939 8.151819554692123 #
point $-1 -22.362304917821138 26.865545151191128 8.1518195546921248 #
edge $-1 $331 1 $331 0 $170 $-1 forward 7 unknown #
vertex $-1 $171 $332 #
ellipse-curve $-1 -5.6136264973289869 31.707309901112026 3.2778168135227697 0 0.52991927123019833 0.84804809178421925 1 0 0 1 I I #
point $-1 -4.6136264973289869 32.538034813532498 4.6072545505960445 #
loop $-1 $-1 $182 $174 #
plane-surface $-1 0 -38.210524475873939 0 0 1 0 0 0 1 forward_v I I I I #
coedge $-1 $268 $177 $179 $272 reversed $106 $-1 #
coedge $-1 $177 $267 $333 $334 reversed $106 $-1 #
coedge $-1 $185 $180 $177 $270 forward $175 $-1 #
edge $-1 $273 -24.303556853618083 $335 -18.939101137987237 $269 $336 forward 7 unknown #
coedge $-1 $179 $178 $276 $337 reversed $66 $-1 #
edge $-1 $338 0 $273 6.7170263364287965 $267 $339 forward 7 unknown #
vertex $-1 $181 $340 #
straight-curve $-1 4.4301527288463198 -32.846068760243099 8.151819554692123 -1 0 0 I I #
coedge $-1 $333 $182 $185 $280 reversed $265 $-1 #
coedge $-1 $182 $333 $271 $337 forward $265 $-1 #
vertex $-1 $183 $341 #
straight-curve $-1 18.972063525123275 -38.210524475873939 52.54128047944733 0 0 1 I I #
straight-curve $-1 18.972063525123275 -38.210524475873939 4.1094121433450681 0 -0.79863550430605224 -0.6018150307709319 I I #
edge $-1 $335 -1.2514526097379957 $186 18.972063525123275 $275 $342 forward 7 unknown #
point $-1 18.972063525123275 -38.210524475873939 8.151819554692123 #
point $-1 18.972063525123275 -32.846068760243092 8.151819554692123 #
edge $-1 $343 1 $343 0 $189 $-1 forward 7 unknown #
vertex $-1 $190 $344 #
ellipse-curve $-1 8.8603054576926255 -34.852978863414627 5.2344389375580054 0 -0.6018150307709319 0.79863550430605224 1 0 0 1 I I #
point $-1 9.8603054576926255 -35.528296618058519 6.1306158490185982 #
plane-surface $-1 63.216040528580585 0 0 -1 0 0 0 0 1 forward_v I I I I #
coedge $-1 $198 $196 $200 $292 reversed $121 $-1 #
edge $-1 $211 -8.151819554692123 $294 8.151819554692123 $210 $345 forward 7 unknown #
vertex $-1 $292 $346 #
straight-curve $-1 -63.216040528580585 -38.210524475873939 0 0 0 -1 I I #
edge $-1 $290 -38.210524475873939 $294 38.210524475873939 $288 $347 forward 7 unknown #
straight-curve $-1 0 -38.210524475873939 -8.151819554692123 -1 0 0 I I #
vertex $-1 $203 $348 #
straight-curve $-1 0 38.210524475873939 -8.151819554692123 1 0 0 I I #
point $-1 63.216040528580585 38.210524475873939 -8.151819554692123 #
point $-1 63.216040528580585 -38.210524475873939 -8.151819554692123 #
straight-curve $-1 -63.216040528580585 0 8.151819554692123 0 -1 0 I I #
point $-1 -63.216040528580585 38.210524475873939 8.151819554692123 #
point $-1 -63.216040528580585 -38.210524475873939 8.151819554692123 #
straight-curve $-1 63.216040528580585 -38.210524475873939 0 0 0 -1 I I #
straight-curve $-1 63.216040528580585 38.210524475873939 0 0 0 -1 I I #
plane-surface $-1 0 0 8.151819554692123 0 0 1 1 0 0 forward_v I I I I #
coedge $-1 $225 $222 $227 $311 reversed $140 $-1 #
coedge $-1 $222 $225 $317 $349 reversed $140 $-1 #
edge $-1 $319 -8.151819554692123 $313 8.151819554692123 $239 $350 forward 7 unknown #
edge $-1 $308 -4.5887775726397706 $237 4.5887775726397706 $224 $351 forward 7 unknown #
vertex $-1 $349 $352 #
vertex $-1 $311 $353 #
straight-curve $-1 -72.393595673860119 -36.913336922569002 0 0 0 -1 I I #
edge $-1 $309 -2.2955306928647659 $313 2.2955306928647659 $304 $354 forward 7 unknown #
straight-curve $-1 -67.804818101220349 -36.913336922569002 -8.151819554692123 -1 0 0 I I #
vertex $-1 $229 $355 #
straight-curve $-1 -67.804818101220349 -32.32227553683947 -8.151819554692123 1 0 0 I I #
point $-1 -63.216040528580578 -36.913336922569002 -8.151819554692123 #
straight-curve $-1 -63.216040528580585 -36.913336922569002 0 0 0 -1 I I #
coedge $-1 $235 $234 $305 $349 forward $236 $-1 #
point $-1 -63.216040528580578 -36.913336922569002 8.151819554692123 #
vertex $-1 $240 $356 #
straight-curve $-1 -67.804818101220349 -32.32227553683947 8.151819554692123 -1 0 0 I I #
coedge $-1 $254 $253 $246 $322 forward $243 $-1 #
edge $-1 $323 66.238261042553276 $326 73.327391050745405 $321 $357 forward 7 unknown #
vertex $-1 $258 $358 #
straight-curve $-1 11.135051923163164 20.20029799706198 8.1518195546921248 0 1 0 I I #
edge $-1 $326 -13.941865171827658 $255 19.555491669156645 $254 $359 forward 7 unknown #
vertex $-1 $325 $360 #
straight-curve $-1 11.135051923163164 -26.598200259804244 41.559676113657531 0 -0.84804809178421925 0.52991927123019833 I I #
point $-1 11.135051923163164 26.865545151191128 8.1518195546921248 #
point $-1 -22.362304917821138 38.210524475873939 1.062689546499989 #
straight-curve $-1 0 38.210524475873939 8.151819554692123 -1 0 0 I I #
vertex $-1 $261 $361 #
point $-1 -4.6136264973289869 31.707309901112026 3.2778168135227697 #
coedge $-1 $276 $275 $268 $334 forward $265 $-1 #
edge $-1 $335 44.389460924755205 $338 48.431868336102262 $333 $362 forward 7 unknown #
vertex $-1 $280 $363 #
straight-curve $-1 -1.2514526097379957 -57.149625613861176 8.1518195546921248 0 -1 0 I I #
edge $-1 $338 -5.6816053385843155 $277 14.541910796276955 $276 $364 forward 7 unknown #
vertex $-1 $337 $365 #
straight-curve $-1 -1.2514526097379957 -38.210524475873939 4.1094121433450681 0 0.79863550430605224 0.6018150307709319 I I #
point $-1 -1.2514526097379957 -32.846068760243092 8.151819554692123 #
point $-1 18.972063525123275 -38.210524475873939 4.1094121433450681 #
straight-curve $-1 0 -38.210524475873939 8.151819554692123 1 0 0 I I #
vertex $-1 $283 $366 #
point $-1 9.8603054576926255 -34.852978863414627 5.2344389375580054 #
straight-curve $-1 -63.216040528580585 38.210524475873939 0 0 0 -1 I I #
point $-1 -63.216040528580585 -38.210524475873939 -8.151819554692123 #
straight-curve $-1 -63.216040528580585 0 -8.151819554692123 0 1 0 I I #
point $-1 -63.216040528580585 38.210524475873939 -8.151819554692123 #
edge $-1 $319 -2.2955306928647659 $308 2.2955306928647659 $305 $367 forward 7 unknown #
straight-curve $-1 -72.393595673860119 -32.32227553683947 0 0 0 -1 I I #
straight-curve $-1 -67.804818101220349 -36.913336922569002 8.151819554692123 1 0 0 I I #
point $-1 -72.393595673860119 -36.913336922569002 8.151819554692123 #
point $-1 -72.393595673860119 -36.913336922569002 -8.151819554692123 #
straight-curve $-1 -72.393595673860119 -34.617806229704236 -8.151819554692123 0 1 0 I I #
point $-1 -72.393595673860119 -32.32227553683947 -8.151819554692123 #
point $-1 -72.393595673860119 -32.32227553683947 8.151819554692123 #
straight-curve $-1 11.135051923163164 38.210524475873939 74.390080597245401 0 0 -1 I I #
point $-1 11.135051923163164 38.210524475873939 8.151819554692123 #
straight-curve $-1 -2.8068132486644934 38.210524475873939 1.0626895464999926 -1 0 0 I I #
point $-1 11.135051923163164 38.210524475873939 1.062689546499989 #
point $-1 -5.6136264973289869 31.177390629881828 2.42976872173855 #
straight-curve $-1 -1.2514526097379957 -38.210524475873939 52.54128047944733 0 0 -1 I I #
point $-1 -1.2514526097379957 -38.210524475873939 8.151819554692123 #
straight-curve $-1 4.4301527288463198 -38.210524475873939 4.1094121433450708 1 0 0 I I #
point $-1 -1.2514526097379957 -38.210524475873939 4.1094121433450681 #
point $-1 8.8603054576926255 -34.251163832643691 4.4358034332519534 #
straight-curve $-1 -72.393595673860119 -34.617806229704236 8.151819554692123 0 -1 0 I I #
End-of-ACIS-data 