500 0 6 0           
7 Unknown 11 ACIS 5.0 NT 24 Fri Mar 26 20:12:16 1999 
-1 9.9999999999999995e-007 1e-010 
body $-1 $6 $-1 $7 #
body $-1 $8 $-1 $9 #
body $-1 $10 $-1 $11 #
body $-1 $12 $-1 $13 #
body $-1 $14 $-1 $15 #
body $-1 $16 $-1 $17 #
lump $-1 $-1 $18 $0 #
transform $-1 1 0 0 0 1 0 0 0 1 58.945890682699059 24.515784284028278 11.587667844347813 1 rotate no_reflect no_shear #
lump $-1 $-1 $19 $1 #
transform $-1 1 0 0 0 1 0 0 0 1 58.945890682699059 24.515784284028278 11.587667844347813 1 rotate no_reflect no_shear #
lump $-1 $-1 $20 $2 #
transform $-1 1 0 0 0 1 0 0 0 1 58.945890682699059 24.515784284028278 11.587667844347813 1 rotate no_reflect no_shear #
lump $-1 $-1 $21 $3 #
transform $-1 1 0 0 0 1 0 0 0 1 58.945890682699059 24.515784284028278 11.587667844347813 1 rotate no_reflect no_shear #
lump $-1 $-1 $22 $4 #
transform $-1 1 0 0 0 1 0 0 0 1 58.945890682699059 24.515784284028278 11.587667844347813 1 rotate no_reflect no_shear #
lump $-1 $-1 $23 $5 #
transform $-1 1 0 0 0 1 0 0 0 1 58.945890682699059 24.515784284028278 11.587667844347813 1 rotate no_reflect no_shear #
shell $-1 $-1 $-1 $24 $-1 $6 #
shell $-1 $-1 $-1 $25 $-1 $8 #
shell $-1 $-1 $-1 $26 $-1 $10 #
shell $-1 $-1 $-1 $27 $-1 $12 #
shell $-1 $-1 $-1 $28 $-1 $14 #
shell $-1 $-1 $-1 $29 $-1 $16 #
face $-1 $30 $31 $18 $-1 $32 forward single #
face $-1 $33 $34 $19 $-1 $35 reversed single #
face $-1 $36 $37 $20 $-1 $38 reversed single #
face $-1 $39 $40 $21 $-1 $41 forward single #
face $-1 $42 $43 $22 $-1 $44 reversed single #
face $-1 $45 $46 $23 $-1 $47 forward single #
face $-1 $48 $49 $18 $-1 $50 reversed single #
loop $-1 $-1 $51 $24 #
plane-surface $-1 0 0 11.587667844347813 0 0 1 1 0 0 forward_v I I I I #
face $-1 $52 $53 $19 $-1 $54 reversed single #
loop $-1 $-1 $55 $25 #
plane-surface $-1 -54.736614728609034 0 7.7773560686066716 0 0 1 1 0 0 forward_v I I I I #
face $-1 $56 $57 $20 $-1 $58 reversed single #
loop $-1 $-1 $59 $26 #
plane-surface $-1 -5.2625739032696828 -20.901396667802825 104.83003489817652 0.83867057594974714 0 0.54463902268945019 0.54463902268945019 0 -0.83867057594974714 forward_v I I I I #
face $-1 $60 $61 $21 $-1 $62 forward single #
loop $-1 $63 $64 $27 #
cone-surface $-1 55.463783872981899 -20.901396667802825 7.6985314884935798 -0.83867057594974714 0 -0.54463902268945019 0.81695853403417529 0 -1.2580058639246208 1 I I 0 1 1.5 forward I I I I #
face $-1 $65 $66 $22 $-1 $67 reversed single #
loop $-1 $-1 $68 $28 #
plane-surface $-1 93.609794274190421 17.287009051577375 169.03849948414529 0 1 0 0.83867057594974714 0 0.54463902268945019 forward_v I I I I #
face $-1 $69 $70 $23 $-1 $71 forward single #
loop $-1 $72 $73 $29 #
cone-surface $-1 55.463783872981899 20.901396667802828 7.6985314884935798 -0.83867057594974714 0 -0.54463902268945019 0.81695853403417529 0 -1.2580058639246208 1 I I 0 1 1.5 forward I I I I #
face $-1 $74 $75 $18 $-1 $76 reversed single #
loop $-1 $-1 $77 $30 #
plane-surface $-1 0 0 -11.587667844347813 0 0 1 1 0 0 forward_v I I I I #
coedge $-1 $78 $79 $80 $81 forward $31 $-1 #
face $-1 $82 $83 $19 $-1 $84 reversed single #
loop $-1 $-1 $85 $33 #
plane-surface $-1 -50.527338774519009 0 9.6825119564772422 -1 0 0 0 0 1 forward_v I I I I #
coedge $-1 $86 $87 $88 $89 forward $34 $-1 #
face $-1 $90 $91 $20 $-1 $92 forward single #
loop $-1 $-1 $93 $36 #
plane-surface $-1 93.609794274190421 -17.287009051577371 169.03849948414529 0 -1 0 -0.83867057594974714 0 -0.54463902268945019 forward_v I I I I #
coedge $-1 $94 $95 $96 $97 reversed $37 $-1 #
face $-1 $-1 $98 $21 $-1 $99 forward single #
loop $-1 $100 $101 $39 #
cone-surface $-1 53.180756812182636 -20.901396667802825 6.2159164274379677 -0.83867057594974714 0 -0.54463902268945019 0.40847926701708764 0 -0.62900293196231039 1 I I -0.70710678118654757 0.70710678118654757 0.75 forward I I I I #
loop $-1 $-1 $102 $27 #
coedge $-1 $64 $64 $103 $104 reversed $40 $-1 #
face $-1 $105 $106 $22 $-1 $107 reversed single #
loop $-1 $-1 $108 $42 #
plane-surface $-1 -5.2625739032696828 20.901396667802828 104.83003489817652 0.83867057594974714 0 0.54463902268945019 0.54463902268945019 0 -0.83867057594974714 forward_v I I I I #
coedge $-1 $109 $110 $111 $112 reversed $43 $-1 #
face $-1 $-1 $113 $23 $-1 $114 forward single #
loop $-1 $115 $116 $45 #
cone-surface $-1 53.180756812182636 20.901396667802828 6.2159164274379677 -0.83867057594974714 0 -0.54463902268945019 0.40847926701708764 0 -0.62900293196231039 1 I I -0.70710678118654757 0.70710678118654757 0.75 forward I I I I #
loop $-1 $-1 $117 $29 #
coedge $-1 $73 $73 $118 $119 reversed $46 $-1 #
face $-1 $120 $121 $18 $-1 $122 reversed single #
loop $-1 $-1 $123 $48 #
plane-surface $-1 0 -24.515784284028278 0 0 1 0 0 0 1 forward_v I I I I #
coedge $-1 $124 $125 $126 $127 forward $49 $-1 #
coedge $-1 $128 $51 $129 $130 forward $31 $-1 #
coedge $-1 $51 $128 $131 $132 forward $31 $-1 #
coedge $-1 $133 $134 $51 $81 reversed $135 $-1 #
edge $-1 $136 -24.515784284028278 $137 24.515784284028278 $80 $138 forward 7 unknown #
face $-1 $139 $140 $19 $-1 $141 reversed single #
loop $-1 $-1 $142 $52 #
plane-surface $-1 0 24.515784284028278 0 0 -1 0 0 0 -1 forward_v I I I I #
coedge $-1 $88 $143 $144 $145 reversed $53 $-1 #
coedge $-1 $146 $55 $147 $148 reversed $34 $-1 #
coedge $-1 $55 $146 $149 $150 reversed $34 $-1 #
coedge $-1 $151 $85 $55 $89 reversed $53 $-1 #
edge $-1 $152 -24.515784284028278 $153 24.515784284028278 $88 $154 forward 7 unknown #
face $-1 $155 $156 $20 $-1 $157 reversed single #
loop $-1 $-1 $158 $56 #
plane-surface $-1 0 0 11.587667844347813 0 0 1 1 0 0 forward_v I I I I #
coedge $-1 $159 $160 $161 $162 reversed $57 $-1 #
coedge $-1 $163 $59 $164 $165 reversed $37 $-1 #
coedge $-1 $59 $163 $159 $166 forward $37 $-1 #
coedge $-1 $161 $167 $59 $97 forward $168 $-1 #
edge $-1 $169 -14.065085950126866 $170 -6.8363107176759588 $96 $171 forward 7 unknown #
loop $-1 $-1 $103 $60 #
plane-surface $-1 -5.2625739032696828 -20.901396667802825 104.83003489817652 0.83867057594974714 0 0.54463902268945019 0.54463902268945019 0 -0.83867057594974714 forward_v I I I I #
loop $-1 $-1 $172 $39 #
coedge $-1 $101 $101 $102 $173 reversed $61 $-1 #
coedge $-1 $102 $102 $101 $173 forward $63 $-1 #
coedge $-1 $103 $103 $64 $104 forward $98 $-1 #
edge $-1 $174 0 $174 6.2831853071796004 $103 $175 forward 7 unknown #
face $-1 $176 $177 $22 $-1 $178 reversed single #
loop $-1 $-1 $111 $65 #
plane-surface $-1 58.945890682699059 0 0 -1 0 0 0 0 1 forward_v I I I I #
coedge $-1 $179 $180 $181 $182 reversed $66 $-1 #
coedge $-1 $110 $68 $183 $184 reversed $43 $-1 #
coedge $-1 $68 $109 $179 $185 reversed $43 $-1 #
coedge $-1 $181 $186 $68 $112 forward $106 $-1 #
edge $-1 $187 72.93158189772484 $188 78.561583021356199 $111 $189 forward 7 unknown #
loop $-1 $-1 $118 $69 #
plane-surface $-1 -5.2625739032696828 20.901396667802828 104.83003489817652 0.83867057594974714 0 0.54463902268945019 0.54463902268945019 0 -0.83867057594974714 forward_v I I I I #
loop $-1 $-1 $190 $45 #
coedge $-1 $116 $116 $117 $191 reversed $70 $-1 #
coedge $-1 $117 $117 $116 $191 forward $72 $-1 #
coedge $-1 $118 $118 $73 $119 forward $113 $-1 #
edge $-1 $192 0 $192 6.2831853071796004 $118 $193 forward 7 unknown #
face $-1 $194 $195 $18 $-1 $196 reversed single #
loop $-1 $-1 $197 $74 #
plane-surface $-1 -58.945890682699059 0 0 1 0 0 0 0 -1 forward_v I I I I #
coedge $-1 $198 $131 $199 $200 forward $75 $-1 #
coedge $-1 $201 $77 $198 $202 forward $49 $-1 #
coedge $-1 $77 $201 $203 $204 forward $49 $-1 #
coedge $-1 $134 $133 $77 $127 reversed $135 $-1 #
edge $-1 $205 -24.515784284028278 $206 24.515784284028278 $126 $207 forward 7 unknown #
coedge $-1 $79 $78 $208 $209 forward $31 $-1 #
coedge $-1 $210 $211 $78 $130 reversed $195 $-1 #
edge $-1 $137 -58.945890682699059 $212 58.945890682699059 $129 $213 forward 7 unknown #
coedge $-1 $123 $214 $79 $132 reversed $75 $-1 #
edge $-1 $215 -58.945890682699059 $136 58.945890682699059 $131 $216 forward 7 unknown #
coedge $-1 $126 $80 $214 $217 forward $135 $-1 #
coedge $-1 $80 $126 $210 $218 reversed $135 $-1 #
loop $-1 $-1 $133 $194 #
vertex $-1 $81 $219 #
vertex $-1 $81 $220 #
straight-curve $-1 58.945890682699059 0 11.587667844347813 0 1 0 I I #
face $-1 $221 $222 $19 $-1 $223 forward single #
loop $-1 $-1 $224 $82 #
plane-surface $-1 -58.945890682699059 0 0 1 0 0 0 0 -1 forward_v I I I I #
coedge $-1 $149 $225 $151 $226 forward $83 $-1 #
coedge $-1 $85 $151 $227 $228 reversed $53 $-1 #
coedge $-1 $229 $147 $85 $145 forward $230 $-1 #
edge $-1 $153 2.9361000903680505 $231 6.7464118661091916 $144 $232 forward 7 unknown #
coedge $-1 $87 $86 $224 $233 reversed $34 $-1 #
coedge $-1 $144 $234 $86 $148 forward $230 $-1 #
edge $-1 $235 -31.577583318394542 $153 -23.159031410214492 $147 $236 forward 7 unknown #
coedge $-1 $237 $142 $87 $150 forward $83 $-1 #
edge $-1 $152 23.159031410214492 $238 31.577583318394542 $149 $239 forward 7 unknown #
coedge $-1 $143 $88 $142 $226 reversed $53 $-1 #
vertex $-1 $150 $240 #
vertex $-1 $148 $241 #
straight-curve $-1 -50.527338774519009 0 7.7773560686066716 0 -1 0 I I #
face $-1 $-1 $168 $20 $-1 $242 reversed single #
loop $-1 $-1 $164 $90 #
plane-surface $-1 0 -24.515784284028278 0 0 1 0 0 0 1 forward_v I I I I #
coedge $-1 $243 $244 $160 $245 forward $91 $-1 #
coedge $-1 $160 $93 $95 $166 reversed $57 $-1 #
coedge $-1 $93 $159 $158 $245 reversed $57 $-1 #
coedge $-1 $246 $96 $93 $162 forward $168 $-1 #
edge $-1 $170 -78.561583021356199 $247 -72.93158189772484 $161 $248 forward 7 unknown #
coedge $-1 $95 $94 $243 $249 reversed $37 $-1 #
coedge $-1 $250 $251 $94 $165 forward $156 $-1 #
edge $-1 $252 65.786740324827448 $169 72.499746939201273 $164 $253 forward 7 unknown #
edge $-1 $254 111.17877475102424 $170 117.89178136539809 $159 $255 forward 7 unknown #
coedge $-1 $96 $246 $250 $256 forward $168 $-1 #
loop $-1 $-1 $161 $155 #
vertex $-1 $165 $257 #
vertex $-1 $97 $258 #
straight-curve $-1 58.945890682699059 -10.450698333901412 5.9576667207164604 0 1 0 I I #
coedge $-1 $172 $172 $-1 $259 reversed $100 $-1 #
edge $-1 $260 0 $260 6.2831853071796004 $101 $261 forward 7 unknown #
vertex $-1 $104 $262 #
ellipse-curve $-1 57.117808001818872 -20.901396667802825 8.772667282532117 0.83867057594974714 0 0.54463902268945019 0.81695853403417529 0 -1.2580058639246208 1 I I #
face $-1 $-1 $263 $22 $-1 $264 forward single #
loop $-1 $-1 $265 $105 #
plane-surface $-1 0 24.515784284028278 0 0 -1 0 0 0 -1 forward_v I I I I #
coedge $-1 $266 $108 $110 $185 forward $66 $-1 #
coedge $-1 $108 $266 $265 $267 reversed $66 $-1 #
coedge $-1 $268 $111 $108 $182 forward $106 $-1 #
edge $-1 $188 6.8363107176759605 $269 14.065085950126868 $181 $270 forward 7 unknown #
coedge $-1 $271 $272 $109 $184 forward $263 $-1 #
edge $-1 $273 8.4848281838434687 $187 12.140993545603848 $183 $274 forward 7 unknown #
edge $-1 $188 -117.89178136539809 $273 -111.17877475102424 $110 $275 forward 7 unknown #
coedge $-1 $111 $268 $271 $276 reversed $106 $-1 #
vertex $-1 $276 $277 #
vertex $-1 $112 $278 #
straight-curve $-1 58.945890682699059 17.287009051577375 84.519249742072645 0 0 -1 I I #
coedge $-1 $190 $190 $-1 $279 reversed $115 $-1 #
edge $-1 $280 0 $280 6.2831853071796004 $116 $281 forward 7 unknown #
vertex $-1 $119 $282 #
ellipse-curve $-1 57.117808001818872 20.901396667802828 8.772667282532117 0.83867057594974714 0 0.54463902268945019 0.81695853403417529 0 -1.2580058639246208 1 I I #
face $-1 $-1 $135 $18 $-1 $283 reversed single #
loop $-1 $-1 $210 $120 #
plane-surface $-1 0 24.515784284028278 0 0 -1 0 0 0 -1 forward_v I I I I #
coedge $-1 $284 $208 $211 $285 forward $121 $-1 #
coedge $-1 $214 $123 $124 $202 reversed $75 $-1 #
coedge $-1 $208 $284 $123 $200 reversed $121 $-1 #
edge $-1 $215 -11.587667844347813 $286 11.587667844347813 $199 $287 forward 7 unknown #
coedge $-1 $125 $124 $284 $288 forward $49 $-1 #
edge $-1 $206 -58.945890682699059 $286 58.945890682699059 $198 $289 forward 7 unknown #
coedge $-1 $211 $210 $125 $204 reversed $195 $-1 #
edge $-1 $290 -58.945890682699059 $205 58.945890682699059 $203 $291 forward 7 unknown #
vertex $-1 $127 $292 #
vertex $-1 $217 $293 #
straight-curve $-1 58.945890682699059 0 -11.587667844347813 0 -1 0 I I #
coedge $-1 $197 $199 $128 $209 reversed $121 $-1 #
edge $-1 $212 -24.515784284028278 $215 24.515784284028278 $208 $294 forward 7 unknown #
coedge $-1 $203 $129 $134 $218 forward $195 $-1 #
coedge $-1 $129 $203 $197 $285 reversed $195 $-1 #
vertex $-1 $130 $295 #
straight-curve $-1 0 24.515784284028278 11.587667844347813 -1 0 0 I I #
coedge $-1 $131 $198 $133 $217 reversed $75 $-1 #
vertex $-1 $209 $296 #
straight-curve $-1 0 -24.515784284028278 11.587667844347813 1 0 0 I I #
edge $-1 $136 -11.587667844347813 $206 11.587667844347813 $133 $297 forward 7 unknown #
edge $-1 $137 -11.587667844347813 $205 11.587667844347813 $134 $298 forward 7 unknown #
point $-1 58.945890682699059 -24.515784284028278 11.587667844347813 #
point $-1 58.945890682699059 24.515784284028278 11.587667844347813 #
face $-1 $-1 $230 $19 $-1 $299 reversed single #
loop $-1 $-1 $227 $139 #
plane-surface $-1 0 0 11.587667844347813 0 0 1 1 0 0 forward_v I I I I #
coedge $-1 $300 $301 $146 $233 forward $140 $-1 #
coedge $-1 $142 $237 $302 $303 reversed $83 $-1 #
edge $-1 $304 -6.7464118661091916 $152 -2.9361000903680505 $142 $305 forward 7 unknown #
coedge $-1 $302 $306 $143 $228 forward $222 $-1 #
edge $-1 $231 -24.515784284028278 $304 24.515784284028278 $227 $307 forward 7 unknown #
coedge $-1 $234 $144 $306 $308 reversed $230 $-1 #
loop $-1 $-1 $144 $221 #
vertex $-1 $145 $309 #
straight-curve $-1 -50.527338774519009 -24.515784284028278 4.8412559782386211 0 0 1 I I #
edge $-1 $238 -24.515784284028278 $235 24.515784284028278 $224 $310 forward 7 unknown #
coedge $-1 $147 $229 $300 $311 forward $230 $-1 #
vertex $-1 $233 $312 #
straight-curve $-1 -27.368307364304517 -24.515784284028278 7.7773560686066716 1 0 0 I I #
coedge $-1 $225 $149 $301 $313 reversed $83 $-1 #
vertex $-1 $233 $314 #
straight-curve $-1 -27.368307364304517 24.515784284028278 7.7773560686066716 -1 0 0 I I #
point $-1 -50.527338774519009 24.515784284028278 7.7773560686066716 #
point $-1 -50.527338774519009 -24.515784284028278 7.7773560686066716 #
plane-surface $-1 58.945890682699059 0 0 -1 0 0 0 0 1 forward_v I I I I #
coedge $-1 $315 $158 $163 $249 forward $91 $-1 #
coedge $-1 $158 $315 $246 $316 forward $91 $-1 #
edge $-1 $247 -12.140993545603848 $254 -8.4848281838434687 $158 $317 forward 7 unknown #
coedge $-1 $167 $161 $244 $316 reversed $168 $-1 #
vertex $-1 $245 $318 #
straight-curve $-1 58.945890682699059 -17.287009051577371 84.519249742072645 0 0 1 I I #
edge $-1 $254 6.8363107176759588 $252 14.065085950126866 $243 $319 forward 7 unknown #
coedge $-1 $251 $164 $167 $256 reversed $156 $-1 #
coedge $-1 $164 $250 $315 $320 reversed $156 $-1 #
vertex $-1 $320 $321 #
straight-curve $-1 19.459699364500022 -24.515784284028278 66.761071242427306 0.54463902268945019 0 -0.83867057594974714 I I #
vertex $-1 $249 $322 #
straight-curve $-1 -5.2625739032696828 -17.287009051577371 104.83003489817652 0.54463902268945019 0 -0.83867057594974714 I I #
edge $-1 $323 -11.587667844347813 $169 -5.957666720716456 $167 $324 forward 7 unknown #
point $-1 58.945890682699059 -24.515784284028278 5.957666720716456 #
point $-1 58.945890682699059 -17.287009051577371 5.9576667207164462 #
edge $-1 $325 1 $325 0 $172 $-1 forward 7 unknown #
vertex $-1 $173 $326 #
ellipse-curve $-1 53.809759744144948 -20.901396667802825 6.6243956944550551 0.83867057594974714 0 0.54463902268945019 0.81695853403417529 0 -1.2580058639246208 1 I I #
point $-1 57.934766535853029 -20.901396667802825 7.5146614186074832 #
loop $-1 $-1 $183 $176 #
plane-surface $-1 0 0 11.587667844347813 0 0 1 1 0 0 forward_v I I I I #
coedge $-1 $327 $328 $180 $267 forward $177 $-1 #
coedge $-1 $180 $179 $272 $329 reversed $66 $-1 #
edge $-1 $269 -72.499746939201287 $330 -65.786740324827448 $265 $331 forward 7 unknown #
coedge $-1 $186 $181 $328 $332 reversed $106 $-1 #
vertex $-1 $267 $333 #
straight-curve $-1 58.945890682699059 10.450698333901414 5.9576667207164604 0 1 0 I I #
coedge $-1 $334 $183 $186 $276 forward $263 $-1 #
coedge $-1 $183 $334 $266 $329 forward $263 $-1 #
vertex $-1 $184 $335 #
straight-curve $-1 46.80489713709521 17.287009051577375 11.58766784434782 1 0 0 I I #
straight-curve $-1 -5.2625739032696828 17.287009051577375 104.83003489817652 -0.54463902268945019 0 0.83867057594974714 I I #
edge $-1 $187 17.287009051577375 $336 24.515784284028278 $186 $337 forward 7 unknown #
point $-1 58.945890682699059 17.287009051577375 11.587667844347813 #
point $-1 58.945890682699059 17.287009051577375 5.9576667207164462 #
edge $-1 $338 1 $338 0 $190 $-1 forward 7 unknown #
vertex $-1 $191 $339 #
ellipse-curve $-1 53.809759744144948 20.901396667802828 6.6243956944550551 0.83867057594974714 0 0.54463902268945019 0.81695853403417529 0 -1.2580058639246208 1 I I #
point $-1 57.934766535853029 20.901396667802828 7.5146614186074832 #
plane-surface $-1 58.945890682699059 0 0 -1 0 0 0 0 1 forward_v I I I I #
coedge $-1 $199 $197 $201 $288 reversed $121 $-1 #
edge $-1 $212 -11.587667844347813 $290 11.587667844347813 $211 $340 forward 7 unknown #
vertex $-1 $288 $341 #
straight-curve $-1 -58.945890682699059 -24.515784284028278 0 0 0 -1 I I #
edge $-1 $286 -24.515784284028278 $290 24.515784284028278 $284 $342 forward 7 unknown #
straight-curve $-1 0 -24.515784284028278 -11.587667844347813 -1 0 0 I I #
vertex $-1 $204 $343 #
straight-curve $-1 0 24.515784284028278 -11.587667844347813 1 0 0 I I #
point $-1 58.945890682699059 24.515784284028278 -11.587667844347813 #
point $-1 58.945890682699059 -24.515784284028278 -11.587667844347813 #
straight-curve $-1 -58.945890682699059 0 11.587667844347813 0 -1 0 I I #
point $-1 -58.945890682699059 24.515784284028278 11.587667844347813 #
point $-1 -58.945890682699059 -24.515784284028278 11.587667844347813 #
straight-curve $-1 58.945890682699059 -24.515784284028278 0 0 0 -1 I I #
straight-curve $-1 58.945890682699059 24.515784284028278 0 0 0 -1 I I #
plane-surface $-1 0 -24.515784284028278 0 0 1 0 0 0 1 forward_v I I I I #
coedge $-1 $344 $224 $234 $311 reversed $140 $-1 #
coedge $-1 $224 $344 $237 $313 forward $140 $-1 #
coedge $-1 $345 $227 $225 $303 forward $222 $-1 #
edge $-1 $304 50.527338774519009 $346 58.945890682699059 $225 $347 forward 7 unknown #
vertex $-1 $303 $348 #
straight-curve $-1 -50.527338774519009 24.515784284028278 4.8412559782386211 0 0 -1 I I #
coedge $-1 $227 $345 $229 $308 forward $222 $-1 #
straight-curve $-1 -50.527338774519009 0 11.587667844347813 0 1 0 I I #
edge $-1 $349 -58.945890682699059 $231 -50.527338774519009 $229 $350 forward 7 unknown #
point $-1 -50.527338774519009 -24.515784284028278 11.587667844347813 #
straight-curve $-1 -58.945890682699059 0 7.7773560686066716 0 -1 0 I I #
edge $-1 $349 -11.587667844347813 $235 -7.7773560686066716 $300 $351 forward 7 unknown #
point $-1 -58.945890682699059 -24.515784284028278 7.7773560686066716 #
edge $-1 $346 -11.587667844347813 $238 -7.7773560686066716 $237 $352 forward 7 unknown #
point $-1 -58.945890682699059 24.515784284028278 7.7773560686066716 #
coedge $-1 $244 $243 $251 $320 forward $91 $-1 #
edge $-1 $323 -24.515784284028278 $247 -17.287009051577371 $246 $353 forward 7 unknown #
straight-curve $-1 46.80489713709521 -17.287009051577371 11.58766784434782 -1 0 0 I I #
point $-1 58.945890682699059 -17.287009051577371 11.587667844347813 #
straight-curve $-1 55.289725320938679 -10.450698333901412 11.58766784434782 0 -1 0 I I #
edge $-1 $252 55.289725320938679 $323 58.945890682699059 $251 $354 forward 7 unknown #
point $-1 55.289725320938679 -24.515784284028278 11.58766784434782 #
point $-1 55.289725320938679 -17.287009051577371 11.58766784434782 #
vertex $-1 $316 $355 #
straight-curve $-1 58.945890682699059 -24.515784284028278 0 0 0 -1 I I #
vertex $-1 $259 $356 #
point $-1 54.626718278179119 -20.901396667802825 5.3663898305304345 #
coedge $-1 $328 $265 $334 $357 reversed $177 $-1 #
coedge $-1 $265 $327 $268 $332 forward $177 $-1 #
edge $-1 $330 -14.065085950126868 $273 -6.8363107176759605 $272 $358 forward 7 unknown #
vertex $-1 $267 $359 #
straight-curve $-1 19.459699364500022 24.515784284028278 66.761071242427306 -0.54463902268945019 0 0.83867057594974714 I I #
edge $-1 $336 -11.587667844347813 $269 -5.9576667207164462 $268 $360 forward 7 unknown #
point $-1 58.945890682699059 24.515784284028282 5.9576667207164462 #
coedge $-1 $272 $271 $327 $357 forward $263 $-1 #
point $-1 55.289725320938679 17.287009051577375 11.58766784434782 #
vertex $-1 $276 $361 #
straight-curve $-1 58.945890682699059 0 11.587667844347813 0 1 0 I I #
vertex $-1 $279 $362 #
point $-1 54.626718278179119 20.901396667802828 5.3663898305304345 #
straight-curve $-1 -58.945890682699059 24.515784284028278 0 0 0 -1 I I #
point $-1 -58.945890682699059 -24.515784284028278 -11.587667844347813 #
straight-curve $-1 -58.945890682699059 0 -11.587667844347813 0 1 0 I I #
point $-1 -58.945890682699059 24.515784284028278 -11.587667844347813 #
coedge $-1 $301 $300 $345 $363 reversed $140 $-1 #
coedge $-1 $306 $302 $344 $363 forward $222 $-1 #
vertex $-1 $303 $364 #
straight-curve $-1 0 24.515784284028278 11.587667844347813 -1 0 0 I I #
point $-1 -50.527338774519009 24.515784284028278 11.587667844347813 #
vertex $-1 $363 $365 #
straight-curve $-1 0 -24.515784284028278 11.587667844347813 1 0 0 I I #
straight-curve $-1 -58.945890682699059 -24.515784284028278 0 0 0 -1 I I #
straight-curve $-1 -58.945890682699059 24.515784284028278 0 0 0 -1 I I #
straight-curve $-1 58.945890682699059 0 11.587667844347813 0 1 0 I I #
straight-curve $-1 0 -24.515784284028278 11.587667844347813 1 0 0 I I #
point $-1 58.945890682699059 -24.515784284028278 11.587667844347813 #
point $-1 52.551753880220325 -20.901396667802825 5.8074371604208803 #
edge $-1 $336 -58.945890682699059 $330 -55.289725320938679 $327 $366 forward 7 unknown #
straight-curve $-1 55.289725320938679 10.450698333901414 11.58766784434782 0 -1 0 I I #
point $-1 55.289725320938679 24.515784284028282 11.58766784434782 #
straight-curve $-1 58.945890682699059 24.515784284028278 0 0 0 -1 I I #
point $-1 58.945890682699059 24.515784284028278 11.587667844347813 #
point $-1 52.551753880220325 20.901396667802828 5.8074371604208803 #
edge $-1 $346 -24.515784284028278 $349 24.515784284028278 $344 $367 forward 7 unknown #
point $-1 -58.945890682699059 24.515784284028278 11.587667844347813 #
point $-1 -58.945890682699059 -24.515784284028278 11.587667844347813 #
straight-curve $-1 0 24.515784284028278 11.587667844347813 -1 0 0 I I #
straight-curve $-1 -58.945890682699059 0 11.587667844347813 0 -1 0 I I #
End-of-ACIS-data 