500 0 6 0           
7 Unknown 11 ACIS 5.0 NT 24 Fri Mar 26 20:42:55 1999 
-1 9.9999999999999995e-007 1e-010 
body $-1 $6 $-1 $7 #
body $-1 $8 $-1 $9 #
body $-1 $10 $-1 $11 #
body $-1 $12 $-1 $13 #
body $-1 $14 $-1 $15 #
body $-1 $16 $-1 $17 #
lump $-1 $-1 $18 $0 #
transform $-1 1 0 0 0 1 0 0 0 1 69.196447645496988 37.288621915352735 17.272915399029205 1 rotate no_reflect no_shear #
lump $-1 $-1 $19 $1 #
transform $-1 1 0 0 0 1 0 0 0 1 69.196447645496988 37.288621915352735 17.272915399029205 1 rotate no_reflect no_shear #
lump $-1 $-1 $20 $2 #
transform $-1 1 0 0 0 1 0 0 0 1 69.196447645496988 37.288621915352735 17.272915399029205 1 rotate no_reflect no_shear #
lump $-1 $-1 $21 $3 #
transform $-1 1 0 0 0 1 0 0 0 1 69.196447645496988 37.288621915352735 17.272915399029205 1 rotate no_reflect no_shear #
lump $-1 $-1 $22 $4 #
transform $-1 1 0 0 0 1 0 0 0 1 69.196447645496988 37.288621915352735 17.272915399029205 1 rotate no_reflect no_shear #
lump $-1 $-1 $23 $5 #
transform $-1 1 0 0 0 1 0 0 0 1 69.196447645496988 37.288621915352735 17.272915399029205 1 rotate no_reflect no_shear #
shell $-1 $-1 $-1 $24 $-1 $6 #
shell $-1 $-1 $-1 $25 $-1 $8 #
shell $-1 $-1 $-1 $26 $-1 $10 #
shell $-1 $-1 $-1 $27 $-1 $12 #
shell $-1 $-1 $-1 $28 $-1 $14 #
shell $-1 $-1 $-1 $29 $-1 $16 #
face $-1 $30 $31 $18 $-1 $32 forward single #
face $-1 $33 $34 $19 $-1 $35 reversed single #
face $-1 $36 $37 $20 $-1 $38 reversed single #
face $-1 $39 $40 $21 $-1 $41 forward single #
face $-1 $42 $43 $22 $-1 $44 forward single #
face $-1 $45 $46 $23 $-1 $47 forward single #
face $-1 $48 $49 $18 $-1 $50 reversed single #
loop $-1 $-1 $51 $24 #
plane-surface $-1 0 0 17.272915399029205 0 0 1 1 0 0 forward_v I I I I #
face $-1 $52 $53 $19 $-1 $54 reversed single #
loop $-1 $-1 $55 $25 #
plane-surface $-1 -63.359133176279727 0 12.020139960778328 0 0 1 1 0 0 forward_v I I I I #
face $-1 $56 $57 $20 $-1 $58 reversed single #
loop $-1 $-1 $59 $26 #
plane-surface $-1 1.0610514732405392 79.778027071415579 153.47374645427564 1 0 0 0 -0.69465837861970381 -0.71933979245794832 forward_v I I I I #
face $-1 $60 $61 $21 $-1 $62 forward single #
loop $-1 $63 $64 $27 #
cone-surface $-1 5.0952920535091977 27.370503121631728 7.5504807281180124 0 -0.69465837861970381 -0.71933979245794832 1.5 0 0 1 I I 0 1 1.5 forward I I I I #
face $-1 $65 $66 $22 $-1 $67 forward single #
loop $-1 $68 $69 $28 #
cone-surface $-1 11.146652923912171 27.370503121631728 7.5504807281180124 0 -0.69465837861970381 -0.71933979245794832 1.5 0 0 1 I I 0 1 1.5 forward I I I I #
face $-1 $70 $71 $23 $-1 $72 forward single #
loop $-1 $73 $74 $29 #
cone-surface $-1 17.198013794315145 27.370503121631728 7.5504807281180124 0 -0.69465837861970381 -0.71933979245794832 1.5 0 0 1 I I 0 1 1.5 forward I I I I #
face $-1 $75 $76 $18 $-1 $77 reversed single #
loop $-1 $-1 $78 $30 #
plane-surface $-1 0 0 -17.272915399029205 0 0 1 1 0 0 forward_v I I I I #
coedge $-1 $79 $80 $81 $82 forward $31 $-1 #
face $-1 $83 $84 $19 $-1 $85 reversed single #
loop $-1 $-1 $86 $33 #
plane-surface $-1 -57.521818707062465 0 14.646527679903766 -1 0 0 0 0 1 forward_v I I I I #
coedge $-1 $87 $88 $89 $90 forward $34 $-1 #
face $-1 $91 $92 $20 $-1 $93 reversed single #
loop $-1 $-1 $94 $36 #
plane-surface $-1 11.146652923912171 -16.357757183912739 53.922229877997466 0 0.69465837861970381 0.71933979245794832 1 0 0 forward_v I I I I #
coedge $-1 $95 $96 $97 $98 reversed $37 $-1 #
face $-1 $-1 $99 $21 $-1 $100 forward single #
loop $-1 $101 $102 $39 #
cone-surface $-1 5.0952920535091977 24.778842463082249 4.866737614061325 0 -0.69465837861970381 -0.71933979245794832 0.75 0 0 1 I I -0.70710678118654757 0.70710678118654757 0.75 forward I I I I #
loop $-1 $-1 $103 $27 #
coedge $-1 $64 $64 $104 $105 reversed $40 $-1 #
face $-1 $-1 $106 $22 $-1 $107 forward single #
loop $-1 $108 $109 $42 #
cone-surface $-1 11.146652923912171 24.778842463082249 4.866737614061325 0 -0.69465837861970381 -0.71933979245794832 0.75 0 0 1 I I -0.70710678118654757 0.70710678118654757 0.75 forward I I I I #
loop $-1 $-1 $110 $28 #
coedge $-1 $69 $69 $111 $112 reversed $43 $-1 #
face $-1 $-1 $113 $23 $-1 $114 forward single #
loop $-1 $115 $116 $45 #
cone-surface $-1 17.198013794315145 24.778842463082249 4.866737614061325 0 -0.69465837861970381 -0.71933979245794832 0.75 0 0 1 I I -0.70710678118654757 0.70710678118654757 0.75 forward I I I I #
loop $-1 $-1 $117 $29 #
coedge $-1 $74 $74 $118 $119 reversed $46 $-1 #
face $-1 $120 $121 $18 $-1 $122 reversed single #
loop $-1 $-1 $123 $48 #
plane-surface $-1 0 -37.288621915352735 0 0 1 0 0 0 1 forward_v I I I I #
coedge $-1 $124 $125 $126 $127 forward $49 $-1 #
coedge $-1 $128 $51 $129 $130 forward $31 $-1 #
coedge $-1 $51 $128 $131 $132 forward $31 $-1 #
coedge $-1 $133 $134 $51 $82 reversed $135 $-1 #
edge $-1 $136 -37.288621915352735 $137 37.288621915352735 $81 $138 forward 7 unknown #
face $-1 $139 $140 $19 $-1 $141 reversed single #
loop $-1 $-1 $142 $52 #
plane-surface $-1 0 37.288621915352735 0 0 -1 0 0 0 -1 forward_v I I I I #
coedge $-1 $89 $143 $144 $145 reversed $53 $-1 #
coedge $-1 $146 $55 $147 $148 reversed $34 $-1 #
coedge $-1 $55 $146 $149 $150 reversed $34 $-1 #
coedge $-1 $151 $86 $55 $90 reversed $53 $-1 #
edge $-1 $152 -37.288621915352735 $153 37.288621915352735 $89 $154 forward 7 unknown #
face $-1 $155 $156 $20 $-1 $157 forward single #
loop $-1 $-1 $158 $56 #
plane-surface $-1 21.232254374583803 79.778027071415579 153.47374645427564 -1 0 0 0 0.69465837861970381 0.71933979245794832 forward_v I I I I #
coedge $-1 $159 $160 $161 $162 reversed $57 $-1 #
coedge $-1 $96 $59 $163 $164 reversed $37 $-1 #
coedge $-1 $59 $95 $159 $165 reversed $37 $-1 #
coedge $-1 $161 $166 $59 $98 forward $156 $-1 #
edge $-1 $167 2.6003916203550546 $168 18.295295458627649 $97 $169 forward 7 unknown #
loop $-1 $-1 $104 $60 #
plane-surface $-1 11.146652923912171 -16.357757183912739 53.922229877997466 0 0.69465837861970381 0.71933979245794832 1 0 0 forward_v I I I I #
loop $-1 $-1 $170 $39 #
coedge $-1 $102 $102 $103 $171 reversed $61 $-1 #
coedge $-1 $103 $103 $102 $171 forward $63 $-1 #
coedge $-1 $104 $104 $64 $105 forward $99 $-1 #
edge $-1 $172 2.4094649927787541e-015 $172 6.2831853071796031 $104 $173 forward 7 unknown #
loop $-1 $-1 $111 $65 #
plane-surface $-1 11.146652923912171 -16.357757183912739 53.922229877997466 0 0.69465837861970381 0.71933979245794832 1 0 0 forward_v I I I I #
loop $-1 $-1 $174 $42 #
coedge $-1 $109 $109 $110 $175 reversed $66 $-1 #
coedge $-1 $110 $110 $109 $175 forward $68 $-1 #
coedge $-1 $111 $111 $69 $112 forward $106 $-1 #
edge $-1 $176 2.4094649927787541e-015 $176 6.2831853071796031 $111 $177 forward 7 unknown #
loop $-1 $-1 $118 $70 #
plane-surface $-1 11.146652923912171 -16.357757183912739 53.922229877997466 0 0.69465837861970381 0.71933979245794832 1 0 0 forward_v I I I I #
loop $-1 $-1 $178 $45 #
coedge $-1 $116 $116 $117 $179 reversed $71 $-1 #
coedge $-1 $117 $117 $116 $179 forward $73 $-1 #
coedge $-1 $118 $118 $74 $119 forward $113 $-1 #
edge $-1 $180 2.4094649927787541e-015 $180 6.2831853071796031 $118 $181 forward 7 unknown #
face $-1 $182 $183 $18 $-1 $184 reversed single #
loop $-1 $-1 $185 $75 #
plane-surface $-1 -69.196447645496988 0 0 1 0 0 0 0 -1 forward_v I I I I #
coedge $-1 $186 $131 $187 $188 forward $76 $-1 #
coedge $-1 $189 $78 $186 $190 forward $49 $-1 #
coedge $-1 $78 $189 $191 $192 forward $49 $-1 #
coedge $-1 $134 $133 $78 $127 reversed $135 $-1 #
edge $-1 $193 -37.288621915352735 $194 37.288621915352735 $126 $195 forward 7 unknown #
coedge $-1 $80 $79 $196 $197 forward $31 $-1 #
coedge $-1 $198 $199 $79 $130 reversed $183 $-1 #
edge $-1 $137 -69.196447645496988 $200 69.196447645496988 $129 $201 forward 7 unknown #
coedge $-1 $123 $202 $80 $132 reversed $76 $-1 #
edge $-1 $203 -69.196447645496988 $136 69.196447645496988 $131 $204 forward 7 unknown #
coedge $-1 $126 $81 $202 $205 forward $135 $-1 #
coedge $-1 $81 $126 $198 $206 reversed $135 $-1 #
loop $-1 $-1 $133 $182 #
vertex $-1 $82 $207 #
vertex $-1 $82 $208 #
straight-curve $-1 69.196447645496988 0 17.272915399029205 0 1 0 I I #
face $-1 $209 $210 $19 $-1 $211 forward single #
loop $-1 $-1 $212 $83 #
plane-surface $-1 -69.196447645496988 0 0 1 0 0 0 0 -1 forward_v I I I I #
coedge $-1 $149 $213 $151 $214 forward $84 $-1 #
coedge $-1 $86 $151 $215 $216 reversed $53 $-1 #
coedge $-1 $217 $147 $86 $145 forward $218 $-1 #
edge $-1 $153 4.6968761208264453 $219 9.9496515590773189 $144 $220 forward 7 unknown #
coedge $-1 $88 $87 $212 $221 reversed $34 $-1 #
coedge $-1 $144 $222 $87 $148 forward $218 $-1 #
edge $-1 $223 -37.516881057357125 $153 -25.842252118922602 $147 $224 forward 7 unknown #
coedge $-1 $225 $142 $88 $150 forward $84 $-1 #
edge $-1 $152 25.842252118922602 $226 37.516881057357125 $149 $227 forward 7 unknown #
coedge $-1 $143 $89 $142 $214 reversed $53 $-1 #
vertex $-1 $150 $228 #
vertex $-1 $148 $229 #
straight-curve $-1 -57.521818707062465 0 12.020139960778328 0 -1 0 I I #
face $-1 $-1 $230 $20 $-1 $231 reversed single #
loop $-1 $-1 $97 $91 #
plane-surface $-1 0 0 17.272915399029205 0 0 1 1 0 0 forward_v I I I I #
coedge $-1 $232 $233 $234 $235 reversed $92 $-1 #
coedge $-1 $236 $94 $96 $165 forward $57 $-1 #
coedge $-1 $94 $236 $232 $237 forward $57 $-1 #
coedge $-1 $234 $97 $94 $162 forward $156 $-1 #
edge $-1 $168 -4.5122749887155464 $238 15.658927912627718 $161 $239 forward 7 unknown #
coedge $-1 $240 $241 $95 $164 forward $230 $-1 #
edge $-1 $242 -74.620350630504518 $167 -59.463957828108619 $163 $243 forward 7 unknown #
edge $-1 $168 52.758759711199303 $242 74.577243830705456 $96 $244 forward 7 unknown #
coedge $-1 $97 $234 $240 $245 forward $156 $-1 #
vertex $-1 $164 $246 #
vertex $-1 $98 $247 #
straight-curve $-1 1.0610514732405392 39.88901353570779 17.272915399029202 0 -1 0 I I #
coedge $-1 $170 $170 $-1 $248 reversed $101 $-1 #
edge $-1 $249 0 $249 6.2831853071796004 $102 $250 forward 7 unknown #
vertex $-1 $105 $251 #
ellipse-curve $-1 5.0952920535091977 29.441169996216438 9.6947189978312469 0 0.69465837861970381 0.71933979245794832 1.5 0 0 1 I I #
coedge $-1 $174 $174 $-1 $252 reversed $108 $-1 #
edge $-1 $253 0 $253 6.2831853071796004 $109 $254 forward 7 unknown #
vertex $-1 $112 $255 #
ellipse-curve $-1 11.146652923912171 29.441169996216438 9.6947189978312469 0 0.69465837861970381 0.71933979245794832 1.5 0 0 1 I I #
coedge $-1 $178 $178 $-1 $256 reversed $115 $-1 #
edge $-1 $257 0 $257 6.2831853071796004 $116 $258 forward 7 unknown #
vertex $-1 $119 $259 #
ellipse-curve $-1 17.198013794315145 29.441169996216438 9.6947189978312469 0 0.69465837861970381 0.71933979245794832 1.5 0 0 1 I I #
face $-1 $-1 $135 $18 $-1 $260 reversed single #
loop $-1 $-1 $198 $120 #
plane-surface $-1 0 37.288621915352735 0 0 -1 0 0 0 -1 forward_v I I I I #
coedge $-1 $261 $196 $199 $262 forward $121 $-1 #
coedge $-1 $202 $123 $124 $190 reversed $76 $-1 #
coedge $-1 $196 $261 $123 $188 reversed $121 $-1 #
edge $-1 $203 -17.272915399029205 $263 17.272915399029205 $187 $264 forward 7 unknown #
coedge $-1 $125 $124 $261 $265 forward $49 $-1 #
edge $-1 $194 -69.196447645496988 $263 69.196447645496988 $186 $266 forward 7 unknown #
coedge $-1 $199 $198 $125 $192 reversed $183 $-1 #
edge $-1 $267 -69.196447645496988 $193 69.196447645496988 $191 $268 forward 7 unknown #
vertex $-1 $127 $269 #
vertex $-1 $205 $270 #
straight-curve $-1 69.196447645496988 0 -17.272915399029205 0 -1 0 I I #
coedge $-1 $185 $187 $128 $197 reversed $121 $-1 #
edge $-1 $200 -37.288621915352735 $203 37.288621915352735 $196 $271 forward 7 unknown #
coedge $-1 $191 $129 $134 $206 forward $183 $-1 #
coedge $-1 $129 $191 $185 $262 reversed $183 $-1 #
vertex $-1 $130 $272 #
straight-curve $-1 0 37.288621915352735 17.272915399029205 -1 0 0 I I #
coedge $-1 $131 $186 $133 $205 reversed $76 $-1 #
vertex $-1 $197 $273 #
straight-curve $-1 0 -37.288621915352735 17.272915399029205 1 0 0 I I #
edge $-1 $136 -17.272915399029205 $194 17.272915399029205 $133 $274 forward 7 unknown #
edge $-1 $137 -17.272915399029205 $193 17.272915399029205 $134 $275 forward 7 unknown #
point $-1 69.196447645496988 -37.288621915352735 17.272915399029205 #
point $-1 69.196447645496988 37.288621915352735 17.272915399029205 #
face $-1 $-1 $218 $19 $-1 $276 reversed single #
loop $-1 $-1 $215 $139 #
plane-surface $-1 0 0 17.272915399029205 0 0 1 1 0 0 forward_v I I I I #
coedge $-1 $277 $278 $146 $221 forward $140 $-1 #
coedge $-1 $142 $225 $279 $280 reversed $84 $-1 #
edge $-1 $281 -9.9496515590773189 $152 -4.6968761208264453 $142 $282 forward 7 unknown #
coedge $-1 $279 $283 $143 $216 forward $210 $-1 #
edge $-1 $219 -37.288621915352735 $281 37.288621915352735 $215 $284 forward 7 unknown #
coedge $-1 $222 $144 $283 $285 reversed $218 $-1 #
loop $-1 $-1 $144 $209 #
vertex $-1 $145 $286 #
straight-curve $-1 -57.521818707062465 -37.288621915352735 7.323263839951883 0 0 1 I I #
edge $-1 $226 -37.288621915352735 $223 37.288621915352735 $212 $287 forward 7 unknown #
coedge $-1 $147 $217 $277 $288 forward $218 $-1 #
vertex $-1 $221 $289 #
straight-curve $-1 -31.679566588139863 -37.288621915352735 12.020139960778328 1 0 0 I I #
coedge $-1 $213 $149 $278 $290 reversed $84 $-1 #
vertex $-1 $221 $291 #
straight-curve $-1 -31.679566588139863 37.288621915352735 12.020139960778328 -1 0 0 I I #
point $-1 -57.521818707062465 37.288621915352735 12.020139960778328 #
point $-1 -57.521818707062465 -37.288621915352735 12.020139960778328 #
loop $-1 $-1 $163 $155 #
plane-surface $-1 0 37.288621915352735 0 0 -1 0 0 0 -1 forward_v I I I I #
coedge $-1 $233 $158 $160 $237 reversed $92 $-1 #
coedge $-1 $158 $232 $292 $293 reversed $92 $-1 #
coedge $-1 $166 $161 $158 $235 forward $156 $-1 #
edge $-1 $238 -18.295295458627649 $294 -2.6003916203550546 $234 $295 forward 7 unknown #
coedge $-1 $160 $159 $241 $296 reversed $57 $-1 #
edge $-1 $297 -74.577243830705456 $238 -52.758759711199303 $232 $298 forward 7 unknown #
vertex $-1 $162 $299 #
straight-curve $-1 5.5733264619560856 21.593718077080126 17.272915399029209 1 0 0 I I #
coedge $-1 $292 $163 $166 $245 reversed $230 $-1 #
coedge $-1 $163 $292 $236 $296 forward $230 $-1 #
vertex $-1 $164 $300 #
straight-curve $-1 1.0610514732405392 37.288621915352735 76.736873227137821 0 0 1 I I #
straight-curve $-1 1.0610514732405392 -16.357757183912739 53.922229877997466 0 0.71933979245794832 -0.69465837861970381 I I #
edge $-1 $294 -21.232254374583803 $167 -1.0610514732405392 $240 $301 forward 7 unknown #
point $-1 1.0610514732405392 37.288621915352735 17.272915399029205 #
point $-1 1.0610514732405392 21.59371807708014 17.272915399029202 #
edge $-1 $302 1 $302 0 $170 $-1 forward 7 unknown #
vertex $-1 $171 $303 #
ellipse-curve $-1 5.0952920535091977 25.299836247047025 5.4062424584047859 0 0.69465837861970381 0.71933979245794832 1.5 0 0 1 I I #
point $-1 6.5952920535091977 29.441169996216434 9.694718997831238 #
edge $-1 $304 1 $304 0 $174 $-1 forward 7 unknown #
vertex $-1 $175 $305 #
ellipse-curve $-1 11.146652923912171 25.299836247047025 5.4062424584047859 0 0.69465837861970381 0.71933979245794832 1.5 0 0 1 I I #
point $-1 12.646652923912171 29.441169996216434 9.694718997831238 #
edge $-1 $306 1 $306 0 $178 $-1 forward 7 unknown #
vertex $-1 $179 $307 #
ellipse-curve $-1 17.198013794315145 25.299836247047025 5.4062424584047859 0 0.69465837861970381 0.71933979245794832 1.5 0 0 1 I I #
point $-1 18.698013794315145 29.441169996216434 9.694718997831238 #
plane-surface $-1 69.196447645496988 0 0 -1 0 0 0 0 1 forward_v I I I I #
coedge $-1 $187 $185 $189 $265 reversed $121 $-1 #
edge $-1 $200 -17.272915399029205 $267 17.272915399029205 $199 $308 forward 7 unknown #
vertex $-1 $265 $309 #
straight-curve $-1 -69.196447645496988 -37.288621915352735 0 0 0 -1 I I #
edge $-1 $263 -37.288621915352735 $267 37.288621915352735 $261 $310 forward 7 unknown #
straight-curve $-1 0 -37.288621915352735 -17.272915399029205 -1 0 0 I I #
vertex $-1 $192 $311 #
straight-curve $-1 0 37.288621915352735 -17.272915399029205 1 0 0 I I #
point $-1 69.196447645496988 37.288621915352735 -17.272915399029205 #
point $-1 69.196447645496988 -37.288621915352735 -17.272915399029205 #
straight-curve $-1 -69.196447645496988 0 17.272915399029205 0 -1 0 I I #
point $-1 -69.196447645496988 37.288621915352735 17.272915399029205 #
point $-1 -69.196447645496988 -37.288621915352735 17.272915399029205 #
straight-curve $-1 69.196447645496988 -37.288621915352735 0 0 0 -1 I I #
straight-curve $-1 69.196447645496988 37.288621915352735 0 0 0 -1 I I #
plane-surface $-1 0 -37.288621915352735 0 0 1 0 0 0 1 forward_v I I I I #
coedge $-1 $312 $212 $222 $288 reversed $140 $-1 #
coedge $-1 $212 $312 $225 $290 forward $140 $-1 #
coedge $-1 $313 $215 $213 $280 forward $210 $-1 #
edge $-1 $281 57.521818707062465 $314 69.196447645496988 $213 $315 forward 7 unknown #
vertex $-1 $280 $316 #
straight-curve $-1 -57.521818707062465 37.288621915352735 7.323263839951883 0 0 -1 I I #
coedge $-1 $215 $313 $217 $285 forward $210 $-1 #
straight-curve $-1 -57.521818707062465 0 17.272915399029205 0 1 0 I I #
edge $-1 $317 -69.196447645496988 $219 -57.521818707062465 $217 $318 forward 7 unknown #
point $-1 -57.521818707062465 -37.288621915352735 17.272915399029202 #
straight-curve $-1 -69.196447645496988 0 12.020139960778328 0 -1 0 I I #
edge $-1 $317 -17.272915399029205 $223 -12.020139960778328 $277 $319 forward 7 unknown #
point $-1 -69.196447645496988 -37.288621915352735 12.020139960778328 #
edge $-1 $314 -17.272915399029205 $226 -12.020139960778328 $225 $320 forward 7 unknown #
point $-1 -69.196447645496988 37.288621915352735 12.020139960778328 #
coedge $-1 $241 $240 $233 $293 forward $230 $-1 #
edge $-1 $294 59.463957828108619 $297 74.620350630504518 $292 $321 forward 7 unknown #
vertex $-1 $245 $322 #
straight-curve $-1 21.232254374583803 39.88901353570779 17.272915399029202 0 1 0 I I #
edge $-1 $297 -15.658927912627718 $242 4.5122749887155464 $241 $323 forward 7 unknown #
vertex $-1 $296 $324 #
straight-curve $-1 21.232254374583803 -16.357757183912739 53.922229877997466 0 -0.71933979245794832 0.69465837861970381 I I #
point $-1 21.232254374583803 21.59371807708014 17.272915399029202 #
point $-1 1.0610514732405392 37.288621915352728 2.1165225966333026 #
straight-curve $-1 0 37.288621915352735 17.272915399029205 -1 0 0 I I #
vertex $-1 $248 $325 #
point $-1 6.5952920535091977 25.299836247047025 5.4062424584047859 #
vertex $-1 $252 $326 #
point $-1 12.646652923912171 25.299836247047025 5.4062424584047859 #
vertex $-1 $256 $327 #
point $-1 18.698013794315145 25.299836247047025 5.4062424584047859 #
straight-curve $-1 -69.196447645496988 37.288621915352735 0 0 0 -1 I I #
point $-1 -69.196447645496988 -37.288621915352735 -17.272915399029205 #
straight-curve $-1 -69.196447645496988 0 -17.272915399029205 0 1 0 I I #
point $-1 -69.196447645496988 37.288621915352735 -17.272915399029205 #
coedge $-1 $278 $277 $313 $328 reversed $140 $-1 #
coedge $-1 $283 $279 $312 $328 forward $210 $-1 #
vertex $-1 $280 $329 #
straight-curve $-1 0 37.288621915352735 17.272915399029205 -1 0 0 I I #
point $-1 -57.521818707062465 37.288621915352735 17.272915399029202 #
vertex $-1 $328 $330 #
straight-curve $-1 0 -37.288621915352735 17.272915399029205 1 0 0 I I #
straight-curve $-1 -69.196447645496988 -37.288621915352735 0 0 0 -1 I I #
straight-curve $-1 -69.196447645496988 37.288621915352735 0 0 0 -1 I I #
straight-curve $-1 21.232254374583803 37.288621915352735 76.736873227137821 0 0 -1 I I #
point $-1 21.232254374583803 37.288621915352735 17.272915399029205 #
straight-curve $-1 5.5733264619560856 37.288621915352735 2.1165225966333026 -1 0 0 I I #
point $-1 21.232254374583803 37.288621915352728 2.1165225966333026 #
point $-1 5.0952920535091977 24.257848679117473 4.3272327697178641 #
point $-1 11.146652923912171 24.257848679117473 4.3272327697178641 #
point $-1 17.198013794315145 24.257848679117473 4.3272327697178641 #
edge $-1 $314 -37.288621915352735 $317 37.288621915352735 $312 $331 forward 7 unknown #
point $-1 -69.196447645496988 37.288621915352735 17.272915399029205 #
point $-1 -69.196447645496988 -37.288621915352735 17.272915399029205 #
straight-curve $-1 -69.196447645496988 0 17.272915399029205 0 -1 0 I I #
End-of-ACIS-data 