500 0 8 0           
7 Unknown 11 ACIS 5.0 NT 24 Fri Mar 26 03:12:32 1999 
-1 9.9999999999999995e-007 1e-010 
body $-1 $8 $-1 $9 #
body $-1 $10 $-1 $11 #
body $-1 $12 $-1 $13 #
body $-1 $14 $-1 $15 #
body $-1 $16 $-1 $17 #
body $-1 $18 $-1 $19 #
body $-1 $20 $-1 $21 #
body $-1 $22 $-1 $23 #
lump $-1 $-1 $24 $0 #
transform $-1 1 0 0 0 1 0 0 0 1 65.16800439466536 41.757283348184281 9.3557877041137392 1 rotate no_reflect no_shear #
lump $-1 $-1 $25 $1 #
transform $-1 1 0 0 0 1 0 0 0 1 65.16800439466536 41.757283348184281 9.3557877041137392 1 rotate no_reflect no_shear #
lump $-1 $-1 $26 $2 #
transform $-1 1 0 0 0 1 0 0 0 1 65.16800439466536 41.757283348184281 9.3557877041137392 1 rotate no_reflect no_shear #
lump $-1 $-1 $27 $3 #
transform $-1 1 0 0 0 1 0 0 0 1 65.16800439466536 41.757283348184281 9.3557877041137392 1 rotate no_reflect no_shear #
lump $-1 $-1 $28 $4 #
transform $-1 1 0 0 0 1 0 0 0 1 65.16800439466536 41.757283348184281 9.3557877041137392 1 rotate no_reflect no_shear #
lump $-1 $-1 $29 $5 #
transform $-1 1 0 0 0 1 0 0 0 1 65.16800439466536 41.757283348184281 9.3557877041137392 1 rotate no_reflect no_shear #
lump $-1 $-1 $30 $6 #
transform $-1 1 0 0 0 1 0 0 0 1 65.16800439466536 41.757283348184281 9.3557877041137392 1 rotate no_reflect no_shear #
lump $-1 $-1 $31 $7 #
transform $-1 1 0 0 0 1 0 0 0 1 65.16800439466536 41.757283348184281 9.3557877041137392 1 rotate no_reflect no_shear #
shell $-1 $-1 $-1 $32 $-1 $8 #
shell $-1 $-1 $-1 $33 $-1 $10 #
shell $-1 $-1 $-1 $34 $-1 $12 #
shell $-1 $-1 $-1 $35 $-1 $14 #
shell $-1 $-1 $-1 $36 $-1 $16 #
shell $-1 $-1 $-1 $37 $-1 $18 #
shell $-1 $-1 $-1 $38 $-1 $20 #
shell $-1 $-1 $-1 $39 $-1 $22 #
face $-1 $40 $41 $24 $-1 $42 reversed single #
face $-1 $43 $44 $25 $-1 $45 forward single #
face $-1 $46 $47 $26 $-1 $48 reversed single #
face $-1 $49 $50 $27 $-1 $51 forward single #
face $-1 $52 $53 $28 $-1 $54 forward single #
face $-1 $55 $56 $29 $-1 $57 reversed single #
face $-1 $58 $59 $30 $-1 $60 forward single #
face $-1 $61 $62 $31 $-1 $63 forward single #
face $-1 $64 $65 $24 $-1 $66 forward single #
loop $-1 $-1 $67 $32 #
plane-surface $-1 -65.16800439466536 0 0 1 0 0 0 0 -1 forward_v I I I I #
face $-1 $68 $69 $25 $-1 $70 reversed single #
loop $-1 $-1 $71 $33 #
plane-surface $-1 -65.16800439466536 0 0 1 0 0 0 0 -1 forward_v I I I I #
face $-1 $72 $73 $26 $-1 $74 reversed single #
loop $-1 $-1 $75 $34 #
plane-surface $-1 52.310287225955449 1.7763568394002505e-015 185.7052128943028 0 -1 0 -0.6560590369687036 0 -0.75470957328743171 forward_v I I I I #
face $-1 $76 $77 $27 $-1 $78 forward single #
loop $-1 $79 $80 $35 #
cone-surface $-1 59.532849036511742 -12.72431184552541 4.089800972740651 -0.6560590369687036 0 -0.75470957328743171 1.1320643599311475 0 -0.9840885554530554 1 I I 0 1 1.5 forward I I I I #
face $-1 $81 $82 $28 $-1 $83 forward single #
loop $-1 $84 $85 $36 #
cone-surface $-1 59.532849036511742 -5.0897247382101654 4.089800972740651 -0.6560590369687036 0 -0.75470957328743171 1.1320643599311475 0 -0.9840885554530554 1 I I 0 1 1.5 forward I I I I #
face $-1 $86 $87 $29 $-1 $88 reversed single #
loop $-1 $-1 $89 $37 #
plane-surface $-1 52.310287225955449 17.814036583735579 185.7052128943028 0 -1 0 -0.6560590369687036 0 -0.75470957328743171 forward_v I I I I #
face $-1 $90 $91 $30 $-1 $92 forward single #
loop $-1 $93 $94 $38 #
cone-surface $-1 59.532849036511742 5.0897247382101725 4.089800972740651 -0.6560590369687036 0 -0.75470957328743171 1.1320643599311475 0 -0.9840885554530554 1 I I 0 1 1.5 forward I I I I #
face $-1 $95 $96 $31 $-1 $97 forward single #
loop $-1 $98 $99 $39 #
cone-surface $-1 59.532849036511742 12.724311845525413 4.089800972740651 -0.6560590369687036 0 -0.75470957328743171 1.1320643599311475 0 -0.9840885554530554 1 I I 0 1 1.5 forward I I I I #
face $-1 $100 $101 $24 $-1 $102 reversed single #
loop $-1 $-1 $103 $40 #
plane-surface $-1 0 0 9.3557877041137392 0 0 1 1 0 0 forward_v I I I I #
coedge $-1 $104 $105 $106 $107 reversed $41 $-1 #
face $-1 $108 $109 $25 $-1 $110 reversed single #
loop $-1 $-1 $111 $43 #
plane-surface $-1 0 0 -9.3557877041137392 0 0 1 1 0 0 forward_v I I I I #
coedge $-1 $112 $113 $114 $115 forward $44 $-1 #
face $-1 $116 $117 $26 $-1 $118 reversed single #
loop $-1 $-1 $119 $46 #
plane-surface $-1 -33.197829182717356 -8.9070182918677858 87.339379316920073 0.6560590369687036 0 0.75470957328743171 0.75470957328743171 0 -0.6560590369687036 forward_v I I I I #
coedge $-1 $120 $121 $122 $123 reversed $47 $-1 #
face $-1 $-1 $124 $27 $-1 $125 forward single #
loop $-1 $126 $127 $49 #
cone-surface $-1 57.733637110486114 -12.72431184552541 2.0200444593352369 -0.6560590369687036 0 -0.75470957328743171 0.56603217996557376 0 -0.4920442777265277 1 I I -0.70710678118654757 0.70710678118654757 0.75 forward I I I I #
loop $-1 $-1 $128 $35 #
coedge $-1 $80 $80 $129 $130 reversed $50 $-1 #
face $-1 $-1 $131 $28 $-1 $132 forward single #
loop $-1 $133 $134 $52 #
cone-surface $-1 57.733637110486114 -5.0897247382101654 2.0200444593352369 -0.6560590369687036 0 -0.75470957328743171 0.56603217996557376 0 -0.4920442777265277 1 I I -0.70710678118654757 0.70710678118654757 0.75 forward I I I I #
loop $-1 $-1 $135 $36 #
coedge $-1 $85 $85 $136 $137 reversed $53 $-1 #
face $-1 $138 $139 $29 $-1 $140 forward single #
loop $-1 $-1 $141 $55 #
plane-surface $-1 -33.197829182717356 -8.9070182918677858 87.339379316920073 0.6560590369687036 0 0.75470957328743171 0.75470957328743171 0 -0.6560590369687036 forward_v I I I I #
coedge $-1 $142 $143 $144 $145 reversed $56 $-1 #
face $-1 $-1 $146 $30 $-1 $147 forward single #
loop $-1 $148 $149 $58 #
cone-surface $-1 57.733637110486114 5.0897247382101725 2.0200444593352369 -0.6560590369687036 0 -0.75470957328743171 0.56603217996557376 0 -0.4920442777265277 1 I I -0.70710678118654757 0.70710678118654757 0.75 forward I I I I #
loop $-1 $-1 $150 $38 #
coedge $-1 $94 $94 $151 $152 reversed $59 $-1 #
face $-1 $-1 $153 $31 $-1 $154 forward single #
loop $-1 $155 $156 $61 #
cone-surface $-1 57.733637110486114 12.724311845525413 2.0200444593352369 -0.6560590369687036 0 -0.75470957328743171 0.56603217996557376 0 -0.4920442777265277 1 I I -0.70710678118654757 0.70710678118654757 0.75 forward I I I I #
loop $-1 $-1 $157 $39 #
coedge $-1 $99 $99 $158 $159 reversed $62 $-1 #
face $-1 $160 $161 $24 $-1 $162 reversed single #
loop $-1 $-1 $163 $64 #
plane-surface $-1 0 0 -9.3557877041137392 0 0 1 1 0 0 forward_v I I I I #
coedge $-1 $164 $165 $166 $167 forward $65 $-1 #
coedge $-1 $168 $67 $169 $170 reversed $41 $-1 #
coedge $-1 $67 $168 $171 $172 forward $41 $-1 #
coedge $-1 $173 $174 $67 $107 forward $101 $-1 #
edge $-1 $175 -41.757283348184281 $176 41.757283348184281 $67 $177 forward 7 unknown #
face $-1 $178 $179 $25 $-1 $180 reversed single #
loop $-1 $-1 $181 $68 #
plane-surface $-1 -68.712490835645795 -33.918517676206292 0 0 1 0 0 0 1 forward_v I I I I #
coedge $-1 $182 $183 $113 $184 forward $69 $-1 #
coedge $-1 $185 $71 $186 $187 reversed $44 $-1 #
coedge $-1 $71 $185 $111 $184 reversed $44 $-1 #
coedge $-1 $188 $189 $71 $115 reversed $190 $-1 #
edge $-1 $191 -9.3557877041137392 $192 9.3557877041137392 $114 $193 forward 7 unknown #
face $-1 $194 $195 $26 $-1 $196 forward single #
loop $-1 $-1 $197 $72 #
plane-surface $-1 52.310287225955449 -17.814036583735572 185.7052128943028 0 1 0 0.6560590369687036 0 0.75470957328743171 forward_v I I I I #
coedge $-1 $198 $199 $200 $201 reversed $73 $-1 #
coedge $-1 $121 $75 $202 $203 reversed $47 $-1 #
coedge $-1 $75 $120 $198 $204 reversed $47 $-1 #
coedge $-1 $200 $205 $75 $123 forward $195 $-1 #
edge $-1 $206 -39.012860781687635 $207 -30.356885361978613 $122 $208 forward 7 unknown #
loop $-1 $-1 $129 $76 #
plane-surface $-1 -33.197829182717356 -8.9070182918677858 87.339379316920073 0.6560590369687036 0 0.75470957328743171 0.75470957328743171 0 -0.6560590369687036 forward_v I I I I #
loop $-1 $-1 $209 $49 #
coedge $-1 $127 $127 $128 $210 reversed $77 $-1 #
coedge $-1 $128 $128 $127 $210 forward $79 $-1 #
coedge $-1 $129 $129 $80 $130 forward $124 $-1 #
edge $-1 $211 0 $211 6.2831853071796004 $129 $212 forward 7 unknown #
loop $-1 $-1 $136 $81 #
plane-surface $-1 -33.197829182717356 -8.9070182918677858 87.339379316920073 0.6560590369687036 0 0.75470957328743171 0.75470957328743171 0 -0.6560590369687036 forward_v I I I I #
loop $-1 $-1 $213 $52 #
coedge $-1 $134 $134 $135 $214 reversed $82 $-1 #
coedge $-1 $135 $135 $134 $214 forward $84 $-1 #
coedge $-1 $136 $136 $85 $137 forward $131 $-1 #
edge $-1 $215 0 $215 6.2831853071796004 $136 $216 forward 7 unknown #
face $-1 $217 $218 $29 $-1 $219 forward single #
loop $-1 $-1 $220 $86 #
plane-surface $-1 0 0 9.3557877041137392 0 0 1 1 0 0 forward_v I I I I #
coedge $-1 $221 $222 $223 $224 reversed $87 $-1 #
coedge $-1 $143 $89 $225 $226 reversed $56 $-1 #
coedge $-1 $89 $142 $220 $227 reversed $56 $-1 #
coedge $-1 $228 $229 $89 $145 forward $230 $-1 #
edge $-1 $231 -91.021343538904105 $232 -83.496818743037664 $144 $233 forward 7 unknown #
loop $-1 $-1 $151 $90 #
plane-surface $-1 -33.197829182717356 -8.9070182918677858 87.339379316920073 0.6560590369687036 0 0.75470957328743171 0.75470957328743171 0 -0.6560590369687036 forward_v I I I I #
loop $-1 $-1 $234 $58 #
coedge $-1 $149 $149 $150 $235 reversed $91 $-1 #
coedge $-1 $150 $150 $149 $235 forward $93 $-1 #
coedge $-1 $151 $151 $94 $152 forward $146 $-1 #
edge $-1 $236 0 $236 6.2831853071796004 $151 $237 forward 7 unknown #
loop $-1 $-1 $158 $95 #
plane-surface $-1 -33.197829182717356 -8.9070182918677858 87.339379316920073 0.6560590369687036 0 0.75470957328743171 0.75470957328743171 0 -0.6560590369687036 forward_v I I I I #
loop $-1 $-1 $238 $61 #
coedge $-1 $156 $156 $157 $239 reversed $96 $-1 #
coedge $-1 $157 $157 $156 $239 forward $98 $-1 #
coedge $-1 $158 $158 $99 $159 forward $153 $-1 #
edge $-1 $240 0 $240 6.2831853071796004 $158 $241 forward 7 unknown #
face $-1 $242 $243 $24 $-1 $244 reversed single #
loop $-1 $-1 $169 $100 #
plane-surface $-1 0 -41.757283348184281 0 0 1 0 0 0 1 forward_v I I I I #
coedge $-1 $174 $173 $245 $246 forward $101 $-1 #
coedge $-1 $247 $103 $248 $249 forward $65 $-1 #
coedge $-1 $103 $247 $250 $251 forward $65 $-1 #
coedge $-1 $252 $253 $103 $167 reversed $254 $-1 #
edge $-1 $255 -41.757283348184281 $256 41.757283348184281 $166 $257 forward 7 unknown #
coedge $-1 $105 $104 $247 $258 reversed $41 $-1 #
coedge $-1 $259 $250 $104 $170 forward $161 $-1 #
edge $-1 $260 -9.3557877041137392 $175 9.3557877041137392 $104 $261 forward 7 unknown #
coedge $-1 $248 $262 $105 $172 reversed $243 $-1 #
edge $-1 $263 -9.3557877041137392 $176 9.3557877041137392 $171 $264 forward 7 unknown #
coedge $-1 $163 $106 $262 $265 forward $101 $-1 #
coedge $-1 $106 $163 $259 $266 forward $101 $-1 #
vertex $-1 $107 $267 #
vertex $-1 $265 $268 #
straight-curve $-1 -65.16800439466536 0 -9.3557877041137392 0 1 0 I I #
face $-1 $269 $190 $25 $-1 $270 reversed single #
loop $-1 $-1 $271 $108 #
plane-surface $-1 -72.25697727662623 -32.418517676206292 0 1 0 0 0 0 -1 forward_v I I I I #
coedge $-1 $272 $273 $274 $275 forward $109 $-1 #
coedge $-1 $276 $111 $272 $277 forward $69 $-1 #
coedge $-1 $111 $276 $188 $278 forward $69 $-1 #
edge $-1 $191 30.918517676206292 $279 33.918517676206292 $111 $280 forward 7 unknown #
coedge $-1 $113 $112 $281 $282 forward $44 $-1 #
coedge $-1 $283 $284 $112 $187 forward $285 $-1 #
edge $-1 $286 -33.918517676206292 $192 -30.918517676206292 $186 $287 forward 7 unknown #
coedge $-1 $288 $114 $183 $278 reversed $190 $-1 #
coedge $-1 $114 $288 $283 $289 reversed $190 $-1 #
loop $-1 $-1 $114 $178 #
vertex $-1 $184 $290 #
vertex $-1 $289 $291 #
straight-curve $-1 -65.16800439466536 -30.918517676206292 0 0 0 1 I I #
face $-1 $-1 $292 $26 $-1 $293 reversed single #
loop $-1 $-1 $122 $116 #
plane-surface $-1 0 0 9.3557877041137392 0 0 1 1 0 0 forward_v I I I I #
coedge $-1 $294 $295 $296 $297 reversed $117 $-1 #
coedge $-1 $298 $119 $121 $204 forward $73 $-1 #
coedge $-1 $119 $298 $294 $299 forward $73 $-1 #
coedge $-1 $296 $122 $119 $201 forward $195 $-1 #
edge $-1 $207 -4.4535091459338947 $300 13.360527437801679 $200 $301 forward 7 unknown #
coedge $-1 $302 $303 $120 $203 forward $292 $-1 #
edge $-1 $304 -91.021343538904105 $206 -83.496818743037664 $202 $305 forward 7 unknown #
edge $-1 $207 118.86672878271233 $304 130.33600878933072 $121 $306 forward 7 unknown #
coedge $-1 $122 $296 $302 $307 forward $195 $-1 #
vertex $-1 $123 $308 #
vertex $-1 $123 $309 #
straight-curve $-1 26.155143612977724 1.7763568394002505e-015 9.3557877041137374 -1 0 0 I I #
coedge $-1 $209 $209 $-1 $310 reversed $126 $-1 #
edge $-1 $311 0 $311 6.2831853071796004 $127 $312 forward 7 unknown #
vertex $-1 $130 $313 #
ellipse-curve $-1 60.840016684810855 -12.72431184552541 5.5935253061805073 0.6560590369687036 0 0.75470957328743171 1.1320643599311475 0 -0.9840885554530554 1 I I #
coedge $-1 $213 $213 $-1 $314 reversed $133 $-1 #
edge $-1 $315 0 $315 6.2831853071796004 $134 $316 forward 7 unknown #
vertex $-1 $137 $317 #
ellipse-curve $-1 60.840016684810855 -5.0897247382101654 5.5935253061805073 0.6560590369687036 0 0.75470957328743171 1.1320643599311475 0 -0.9840885554530554 1 I I #
face $-1 $-1 $230 $29 $-1 $318 reversed single #
loop $-1 $-1 $319 $138 #
plane-surface $-1 52.310287225955449 1.7763568394002505e-015 185.7052128943028 0 -1 0 -0.6560590369687036 0 -0.75470957328743171 forward_v I I I I #
coedge $-1 $320 $321 $143 $227 forward $139 $-1 #
coedge $-1 $225 $141 $320 $322 reversed $87 $-1 #
coedge $-1 $141 $225 $229 $323 reversed $87 $-1 #
coedge $-1 $324 $319 $141 $224 forward $218 $-1 #
edge $-1 $325 118.86672878271233 $326 130.33600878933072 $223 $327 forward 7 unknown #
coedge $-1 $222 $221 $142 $226 forward $87 $-1 #
edge $-1 $328 118.86672878271233 $231 130.33600878933072 $142 $329 forward 7 unknown #
edge $-1 $232 -39.012860781687635 $328 -30.356885361978613 $220 $330 forward 7 unknown #
coedge $-1 $331 $144 $321 $332 reversed $230 $-1 #
coedge $-1 $144 $331 $222 $323 forward $230 $-1 #
loop $-1 $-1 $144 $217 #
vertex $-1 $145 $333 #
vertex $-1 $145 $334 #
straight-curve $-1 65.16800439466536 17.814036583735579 92.852606447151402 0 0 1 I I #
coedge $-1 $234 $234 $-1 $335 reversed $148 $-1 #
edge $-1 $336 0 $336 6.2831853071796004 $149 $337 forward 7 unknown #
vertex $-1 $152 $338 #
ellipse-curve $-1 60.840016684810855 5.0897247382101725 5.5935253061805073 0.6560590369687036 0 0.75470957328743171 1.1320643599311475 0 -0.9840885554530554 1 I I #
coedge $-1 $238 $238 $-1 $339 reversed $155 $-1 #
edge $-1 $340 0 $340 6.2831853071796004 $156 $341 forward 7 unknown #
vertex $-1 $159 $342 #
ellipse-curve $-1 60.840016684810855 12.724311845525413 5.5935253061805073 0.6560590369687036 0 0.75470957328743171 1.1320643599311475 0 -0.9840885554530554 1 I I #
face $-1 $-1 $254 $24 $-1 $343 reversed single #
loop $-1 $-1 $344 $160 #
plane-surface $-1 0 41.757283348184281 0 0 -1 0 0 0 -1 forward_v I I I I #
coedge $-1 $253 $252 $163 $246 reversed $254 $-1 #
edge $-1 $345 -41.757283348184281 $346 41.757283348184281 $245 $347 forward 7 unknown #
coedge $-1 $165 $164 $168 $258 forward $65 $-1 #
coedge $-1 $344 $171 $164 $249 reversed $243 $-1 #
edge $-1 $256 -65.16800439466536 $263 65.16800439466536 $248 $348 forward 7 unknown #
coedge $-1 $169 $349 $165 $251 reversed $161 $-1 #
edge $-1 $260 -65.16800439466536 $255 65.16800439466536 $250 $350 forward 7 unknown #
coedge $-1 $245 $166 $349 $351 forward $254 $-1 #
coedge $-1 $166 $245 $344 $352 reversed $254 $-1 #
loop $-1 $-1 $252 $242 #
vertex $-1 $167 $353 #
vertex $-1 $167 $354 #
straight-curve $-1 65.16800439466536 0 9.3557877041137392 0 1 0 I I #
edge $-1 $263 -41.757283348184281 $260 41.757283348184281 $168 $355 forward 7 unknown #
coedge $-1 $349 $169 $174 $266 reversed $161 $-1 #
vertex $-1 $258 $356 #
straight-curve $-1 -65.16800439466536 -41.757283348184281 0 0 0 -1 I I #
coedge $-1 $171 $344 $173 $265 reversed $243 $-1 #
vertex $-1 $249 $357 #
straight-curve $-1 -65.16800439466536 41.757283348184281 0 0 0 -1 I I #
edge $-1 $176 -65.16800439466536 $345 65.16800439466536 $262 $358 forward 7 unknown #
edge $-1 $346 -65.16800439466536 $175 65.16800439466536 $259 $359 forward 7 unknown #
point $-1 -65.16800439466536 -41.757283348184281 -9.3557877041137392 #
point $-1 -65.16800439466536 41.757283348184281 -9.3557877041137392 #
face $-1 $-1 $285 $25 $-1 $360 forward single #
plane-surface $-1 -68.712490835645795 -30.918517676206292 0 0 -1 0 0 0 -1 forward_v I I I I #
coedge $-1 $361 $362 $288 $363 forward $179 $-1 #
coedge $-1 $281 $181 $182 $277 reversed $109 $-1 #
coedge $-1 $181 $281 $284 $364 reversed $109 $-1 #
coedge $-1 $362 $361 $181 $275 reversed $179 $-1 #
edge $-1 $365 -9.3557877041137392 $366 9.3557877041137392 $274 $367 forward 7 unknown #
coedge $-1 $183 $182 $361 $368 forward $69 $-1 #
edge $-1 $279 -3.5444864409804353 $366 3.5444864409804353 $272 $369 forward 7 unknown #
edge $-1 $370 -3.5444864409804353 $191 3.5444864409804353 $188 $371 forward 7 unknown #
vertex $-1 $277 $372 #
straight-curve $-1 -65.16800439466536 0 -9.3557877041137392 0 -1 0 I I #
coedge $-1 $273 $272 $185 $282 reversed $109 $-1 #
edge $-1 $286 -9.3557877041137392 $279 9.3557877041137392 $281 $373 forward 7 unknown #
coedge $-1 $374 $186 $189 $289 forward $285 $-1 #
coedge $-1 $186 $374 $273 $364 forward $285 $-1 #
loop $-1 $-1 $186 $269 #
vertex $-1 $187 $375 #
straight-curve $-1 -65.16800439466536 0 9.3557877041137392 0 1 0 I I #
coedge $-1 $189 $188 $271 $363 reversed $190 $-1 #
edge $-1 $192 -3.5444864409804353 $376 3.5444864409804353 $189 $377 forward 7 unknown #
point $-1 -65.16800439466536 -30.918517676206292 -9.3557877041137392 #
point $-1 -65.16800439466536 -30.918517676206292 9.3557877041137392 #
loop $-1 $-1 $202 $194 #
plane-surface $-1 65.16800439466536 0 0 -1 0 0 0 0 1 forward_v I I I I #
coedge $-1 $295 $197 $199 $299 reversed $117 $-1 #
coedge $-1 $197 $294 $378 $379 reversed $117 $-1 #
coedge $-1 $205 $200 $197 $297 forward $195 $-1 #
edge $-1 $300 30.356885361978613 $380 39.012860781687635 $296 $381 forward 7 unknown #
coedge $-1 $199 $198 $303 $382 reversed $73 $-1 #
edge $-1 $383 -130.33600878933072 $300 -118.86672878271233 $294 $384 forward 7 unknown #
vertex $-1 $201 $385 #
straight-curve $-1 56.512028974956344 -4.4535091459338929 9.3557877041137516 0 -1 0 I I #
coedge $-1 $378 $202 $205 $307 reversed $292 $-1 #
coedge $-1 $202 $378 $298 $382 forward $292 $-1 #
vertex $-1 $203 $386 #
straight-curve $-1 65.16800439466536 1.7763568394002505e-015 92.852606447151402 0 0 1 I I #
straight-curve $-1 -33.197829182717356 1.7763568394002505e-015 87.339379316920073 0.75470957328743171 0 -0.6560590369687036 I I #
edge $-1 $380 -17.814036583735572 $206 1.7763568394002505e-015 $302 $387 forward 7 unknown #
point $-1 65.16800439466536 1.7763568394002505e-015 9.3557877041137392 #
point $-1 56.512028974956337 1.7763568394002505e-015 9.3557877041137374 #
edge $-1 $388 1 $388 0 $209 $-1 forward 7 unknown #
vertex $-1 $210 $389 #
ellipse-curve $-1 58.225681388212642 -12.72431184552541 2.5860766393008108 0.6560590369687036 0 0.75470957328743171 1.1320643599311475 0 -0.9840885554530554 1 I I #
point $-1 61.972081044741984 -12.72431184552541 4.6094367507274354 #
edge $-1 $390 1 $390 0 $213 $-1 forward 7 unknown #
vertex $-1 $214 $391 #
ellipse-curve $-1 58.225681388212642 -5.0897247382101654 2.5860766393008108 0.6560590369687036 0 0.75470957328743171 1.1320643599311475 0 -0.9840885554530554 1 I I #
point $-1 61.972081044741984 -5.0897247382101654 4.6094367507274354 #
plane-surface $-1 65.16800439466536 0 0 -1 0 0 0 0 1 forward_v I I I I #
coedge $-1 $223 $324 $392 $393 reversed $218 $-1 #
coedge $-1 $392 $220 $221 $322 forward $139 $-1 #
coedge $-1 $220 $392 $228 $332 forward $139 $-1 #
edge $-1 $328 -22.267545729669472 $325 -4.4535091459338947 $320 $394 forward 7 unknown #
edge $-1 $326 4.4535091459338947 $231 22.267545729669472 $229 $395 forward 7 unknown #
coedge $-1 $319 $223 $331 $396 reversed $218 $-1 #
vertex $-1 $322 $397 #
vertex $-1 $323 $398 #
straight-curve $-1 -33.197829182717356 1.7763568394002505e-015 87.339379316920073 0.75470957328743171 0 -0.6560590369687036 I I #
vertex $-1 $227 $399 #
straight-curve $-1 -33.197829182717356 17.814036583735579 87.339379316920073 0.75470957328743171 0 -0.6560590369687036 I I #
straight-curve $-1 26.155143612977724 17.814036583735579 9.3557877041137374 -1 0 0 I I #
coedge $-1 $229 $228 $324 $396 forward $230 $-1 #
edge $-1 $400 1.7763568394002505e-015 $232 17.814036583735579 $228 $401 forward 7 unknown #
point $-1 65.16800439466536 17.814036583735579 1.8312629082472967 #
point $-1 65.16800439466536 17.814036583735579 9.3557877041137392 #
edge $-1 $402 1 $402 0 $234 $-1 forward 7 unknown #
vertex $-1 $235 $403 #
ellipse-curve $-1 58.225681388212642 5.0897247382101725 2.5860766393008108 0.6560590369687036 0 0.75470957328743171 1.1320643599311475 0 -0.9840885554530554 1 I I #
point $-1 61.972081044741984 5.0897247382101725 4.6094367507274354 #
edge $-1 $404 1 $404 0 $238 $-1 forward 7 unknown #
vertex $-1 $239 $405 #
ellipse-curve $-1 58.225681388212642 12.724311845525413 2.5860766393008108 0.6560590369687036 0 0.75470957328743171 1.1320643599311475 0 -0.9840885554530554 1 I I #
point $-1 61.972081044741984 12.724311845525413 4.6094367507274354 #
plane-surface $-1 65.16800439466536 0 0 -1 0 0 0 0 1 forward_v I I I I #
coedge $-1 $262 $248 $253 $352 forward $243 $-1 #
vertex $-1 $246 $406 #
vertex $-1 $351 $407 #
straight-curve $-1 65.16800439466536 0 -9.3557877041137392 0 -1 0 I I #
straight-curve $-1 0 41.757283348184281 9.3557877041137392 -1 0 0 I I #
coedge $-1 $250 $259 $252 $351 reversed $161 $-1 #
straight-curve $-1 0 -41.757283348184281 9.3557877041137392 1 0 0 I I #
edge $-1 $255 -9.3557877041137392 $346 9.3557877041137392 $252 $408 forward 7 unknown #
edge $-1 $256 -9.3557877041137392 $345 9.3557877041137392 $253 $409 forward 7 unknown #
point $-1 65.16800439466536 -41.757283348184281 9.3557877041137392 #
point $-1 65.16800439466536 41.757283348184281 9.3557877041137392 #
straight-curve $-1 -65.16800439466536 0 9.3557877041137392 0 -1 0 I I #
point $-1 -65.16800439466536 -41.757283348184281 9.3557877041137392 #
point $-1 -65.16800439466536 41.757283348184281 9.3557877041137392 #
straight-curve $-1 0 41.757283348184281 -9.3557877041137392 1 0 0 I I #
straight-curve $-1 0 -41.757283348184281 -9.3557877041137392 -1 0 0 I I #
plane-surface $-1 0 0 9.3557877041137392 0 0 1 1 0 0 forward_v I I I I #
coedge $-1 $274 $271 $276 $368 reversed $179 $-1 #
coedge $-1 $271 $274 $374 $410 reversed $179 $-1 #
edge $-1 $376 -9.3557877041137392 $370 9.3557877041137392 $288 $411 forward 7 unknown #
edge $-1 $365 -3.5444864409804353 $286 3.5444864409804353 $273 $412 forward 7 unknown #
vertex $-1 $410 $413 #
vertex $-1 $368 $414 #
straight-curve $-1 -72.25697727662623 -33.918517676206292 0 0 0 -1 I I #
edge $-1 $366 -1.5 $370 1.5 $361 $415 forward 7 unknown #
straight-curve $-1 -68.712490835645795 -33.918517676206292 -9.3557877041137392 -1 0 0 I I #
vertex $-1 $278 $416 #
straight-curve $-1 -68.712490835645795 -30.918517676206292 -9.3557877041137392 1 0 0 I I #
point $-1 -65.16800439466536 -33.918517676206292 -9.3557877041137392 #
straight-curve $-1 -65.16800439466536 -33.918517676206292 0 0 0 -1 I I #
coedge $-1 $284 $283 $362 $410 forward $285 $-1 #
point $-1 -65.16800439466536 -33.918517676206292 9.3557877041137392 #
vertex $-1 $289 $417 #
straight-curve $-1 -68.712490835645795 -30.918517676206292 9.3557877041137392 -1 0 0 I I #
coedge $-1 $303 $302 $295 $379 forward $292 $-1 #
edge $-1 $380 83.496818743037664 $383 91.021343538904105 $378 $418 forward 7 unknown #
vertex $-1 $307 $419 #
straight-curve $-1 26.155143612977724 -17.814036583735572 9.3557877041137374 1 0 0 I I #
edge $-1 $383 -13.360527437801679 $304 4.4535091459338947 $303 $420 forward 7 unknown #
vertex $-1 $382 $421 #
straight-curve $-1 -33.197829182717356 -17.814036583735572 87.339379316920073 -0.75470957328743171 0 0.6560590369687036 I I #
point $-1 56.512028974956337 -17.814036583735572 9.3557877041137374 #
point $-1 65.16800439466536 1.7763568394002505e-015 1.8312629082472967 #
straight-curve $-1 65.16800439466536 0 9.3557877041137392 0 1 0 I I #
vertex $-1 $310 $422 #
point $-1 59.357745748143792 -12.72431184552541 1.6019880838477554 #
vertex $-1 $314 $423 #
point $-1 59.357745748143792 -5.0897247382101654 1.6019880838477554 #
coedge $-1 $321 $320 $319 $393 forward $139 $-1 #
edge $-1 $325 30.356885361978613 $400 39.012860781687635 $392 $424 forward 7 unknown #
straight-curve $-1 56.512028974956344 -4.4535091459338929 9.3557877041137516 0 -1 0 I I #
straight-curve $-1 65.16800439466536 -4.4535091459338929 1.8312629082472967 0 1 0 I I #
edge $-1 $400 83.496818743037664 $326 91.021343538904105 $331 $425 forward 7 unknown #
point $-1 56.512028974956337 1.7763568394002505e-015 9.3557877041137374 #
point $-1 65.16800439466536 1.7763568394002505e-015 1.8312629082472967 #
point $-1 56.512028974956337 17.814036583735579 9.3557877041137374 #
vertex $-1 $332 $426 #
straight-curve $-1 65.16800439466536 0 9.3557877041137392 0 1 0 I I #
vertex $-1 $335 $427 #
point $-1 59.357745748143792 5.0897247382101725 1.6019880838477554 #
vertex $-1 $339 $428 #
point $-1 59.357745748143792 12.724311845525413 1.6019880838477554 #
point $-1 65.16800439466536 41.757283348184281 -9.3557877041137392 #
point $-1 65.16800439466536 -41.757283348184281 -9.3557877041137392 #
straight-curve $-1 65.16800439466536 -41.757283348184281 0 0 0 -1 I I #
straight-curve $-1 65.16800439466536 41.757283348184281 0 0 0 -1 I I #
edge $-1 $376 -1.5 $365 1.5 $362 $429 forward 7 unknown #
straight-curve $-1 -72.25697727662623 -30.918517676206292 0 0 0 -1 I I #
straight-curve $-1 -68.712490835645795 -33.918517676206292 9.3557877041137392 1 0 0 I I #
point $-1 -72.25697727662623 -33.918517676206292 9.3557877041137392 #
point $-1 -72.25697727662623 -33.918517676206292 -9.3557877041137392 #
straight-curve $-1 -72.25697727662623 -32.418517676206292 -9.3557877041137392 0 1 0 I I #
point $-1 -72.25697727662623 -30.918517676206292 -9.3557877041137392 #
point $-1 -72.25697727662623 -30.918517676206292 9.3557877041137392 #
straight-curve $-1 65.16800439466536 -17.814036583735572 92.852606447151402 0 0 -1 I I #
point $-1 65.16800439466536 -17.814036583735572 9.3557877041137392 #
straight-curve $-1 65.16800439466536 -4.4535091459338929 1.8312629082472967 0 1 0 I I #
point $-1 65.16800439466536 -17.814036583735572 1.8312629082472967 #
point $-1 57.241592832759586 -12.72431184552541 1.454012279369663 #
point $-1 57.241592832759586 -5.0897247382101654 1.454012279369663 #
straight-curve $-1 26.155143612977724 1.7763568394002505e-015 9.3557877041137374 1 0 0 I I #
straight-curve $-1 65.16800439466536 1.7763568394002505e-015 92.852606447151402 0 0 -1 I I #
point $-1 65.16800439466536 1.7763568394002505e-015 9.3557877041137392 #
point $-1 57.241592832759586 5.0897247382101725 1.454012279369663 #
point $-1 57.241592832759586 12.724311845525413 1.454012279369663 #
straight-curve $-1 -72.25697727662623 -32.418517676206292 9.3557877041137392 0 -1 0 I I #
End-of-ACIS-data 