500 0 7 0           
7 Unknown 11 ACIS 5.0 NT 24 Fri Mar 26 20:29:26 1999 
-1 9.9999999999999995e-007 1e-010 
body $-1 $7 $-1 $8 #
body $-1 $9 $-1 $10 #
body $-1 $11 $-1 $12 #
body $-1 $13 $-1 $14 #
body $-1 $15 $-1 $16 #
body $-1 $17 $-1 $18 #
body $-1 $19 $-1 $20 #
lump $-1 $-1 $21 $0 #
transform $-1 1 0 0 0 1 0 0 0 1 71.451155125583668 45.47256441834304 18.733719560916111 1 rotate no_reflect no_shear #
lump $-1 $-1 $22 $1 #
transform $-1 1 0 0 0 1 0 0 0 1 71.451155125583668 45.47256441834304 18.733719560916111 1 rotate no_reflect no_shear #
lump $-1 $-1 $23 $2 #
transform $-1 1 0 0 0 1 0 0 0 1 71.451155125583668 45.47256441834304 18.733719560916111 1 rotate no_reflect no_shear #
lump $-1 $-1 $24 $3 #
transform $-1 1 0 0 0 1 0 0 0 1 71.451155125583668 45.47256441834304 18.733719560916111 1 rotate no_reflect no_shear #
lump $-1 $-1 $25 $4 #
transform $-1 1 0 0 0 1 0 0 0 1 71.451155125583668 45.47256441834304 18.733719560916111 1 rotate no_reflect no_shear #
lump $-1 $-1 $26 $5 #
transform $-1 1 0 0 0 1 0 0 0 1 71.451155125583668 45.47256441834304 18.733719560916111 1 rotate no_reflect no_shear #
lump $-1 $-1 $27 $6 #
transform $-1 1 0 0 0 1 0 0 0 1 71.451155125583668 45.47256441834304 18.733719560916111 1 rotate no_reflect no_shear #
shell $-1 $-1 $-1 $28 $-1 $7 #
shell $-1 $-1 $-1 $29 $-1 $9 #
shell $-1 $-1 $-1 $30 $-1 $11 #
shell $-1 $-1 $-1 $31 $-1 $13 #
shell $-1 $-1 $-1 $32 $-1 $15 #
shell $-1 $-1 $-1 $33 $-1 $17 #
shell $-1 $-1 $-1 $34 $-1 $19 #
face $-1 $35 $36 $21 $-1 $37 forward single #
face $-1 $38 $39 $22 $-1 $40 reversed single #
face $-1 $41 $42 $23 $-1 $43 forward single #
face $-1 $44 $45 $24 $-1 $46 reversed single #
face $-1 $47 $48 $25 $-1 $49 forward single #
face $-1 $50 $51 $26 $-1 $52 forward single #
face $-1 $53 $54 $27 $-1 $55 forward single #
face $-1 $56 $57 $21 $-1 $58 reversed single #
loop $-1 $-1 $59 $28 #
plane-surface $-1 0 0 18.733719560916111 0 0 1 1 0 0 forward_v I I I I #
face $-1 $60 $61 $22 $-1 $62 reversed single #
loop $-1 $-1 $63 $29 #
plane-surface $-1 -177.64826872090606 -40.45691263232915 97.035848379866792 0 1 0 -0.74314483375859142 0 0.66913059716165679 forward_v I I I I #
face $-1 $64 $65 $23 $-1 $66 forward single #
loop $-1 $67 $68 $30 #
cone-surface $-1 -60.403469608645629 -28.077445153041179 7.1474106928989656 0.74314483375859142 0 -0.66913059716165679 2.0073917914849702 0 2.2294345012757741 1 I I 0 1 3 forward I I I I #
face $-1 $69 $70 $24 $-1 $71 reversed single #
loop $-1 $-1 $72 $31 #
plane-surface $-1 53.837470950189598 33.901809815581757 207.91040213115403 0 -1 0 -0.64278761758704617 0 -0.76604443648966558 forward_v I I I I #
face $-1 $73 $74 $25 $-1 $75 forward single #
loop $-1 $76 $77 $32 #
cone-surface $-1 63.462686566111699 14.866031525722001 11.766334879719958 -0.64278761758704617 0 -0.76604443648966558 0.76604443648966558 0 -0.64278761758704617 1 I I 0 1 1 forward I I I I #
face $-1 $78 $79 $26 $-1 $80 forward single #
loop $-1 $81 $82 $33 #
cone-surface $-1 63.462686566111699 22.004448384419405 11.766334879719958 -0.64278761758704617 0 -0.76604443648966558 0.76604443648966558 0 -0.64278761758704617 1 I I 0 1 1 forward I I I I #
face $-1 $83 $84 $27 $-1 $85 forward single #
loop $-1 $86 $87 $34 #
cone-surface $-1 63.462686566111699 29.142865243116816 11.766334879719958 -0.64278761758704617 0 -0.76604443648966558 0.76604443648966558 0 -0.64278761758704617 1 I I 0 1 1 forward I I I I #
face $-1 $88 $89 $21 $-1 $90 reversed single #
loop $-1 $-1 $91 $35 #
plane-surface $-1 0 0 -18.733719560916111 0 0 1 1 0 0 forward_v I I I I #
coedge $-1 $92 $93 $94 $95 forward $36 $-1 #
face $-1 $96 $97 $22 $-1 $98 reversed single #
loop $-1 $-1 $99 $38 #
plane-surface $-1 -71.451155125583654 -28.077445153041179 1.4155401857228469 -0.74314483375859142 0 0.66913059716165679 0.66913059716165679 0 0.74314483375859142 forward_v I I I I #
coedge $-1 $100 $101 $102 $103 reversed $39 $-1 #
face $-1 $-1 $104 $23 $-1 $105 forward single #
loop $-1 $106 $107 $41 #
cone-surface $-1 -56.037746021672149 -28.077445153041179 3.216495616735962 0.74314483375859142 0 -0.66913059716165679 1.0036958957424851 0 1.1147172506378871 1 I I -0.70710678118654757 0.70710678118654757 1.5 forward I I I I #
loop $-1 $-1 $108 $30 #
coedge $-1 $68 $68 $109 $110 reversed $42 $-1 #
face $-1 $111 $112 $24 $-1 $113 reversed single #
loop $-1 $-1 $114 $44 #
plane-surface $-1 -38.018364603843182 22.004448384419405 98.44088240172718 0.64278761758704617 0 0.76604443648966558 0.76604443648966558 0 -0.64278761758704617 forward_v I I I I #
coedge $-1 $115 $116 $117 $118 reversed $45 $-1 #
face $-1 $-1 $119 $25 $-1 $120 forward single #
loop $-1 $121 $122 $47 #
cone-surface $-1 62.391936221839913 14.866031525722001 10.490264336889812 -0.64278761758704617 0 -0.76604443648966558 0.38302221824483279 0 -0.32139380879352308 1 I I -0.70710678118654746 0.70710678118654746 0.5 forward I I I I #
loop $-1 $-1 $123 $32 #
coedge $-1 $77 $77 $124 $125 reversed $48 $-1 #
face $-1 $-1 $126 $26 $-1 $127 forward single #
loop $-1 $128 $129 $50 #
cone-surface $-1 62.391936221839913 22.004448384419405 10.490264336889812 -0.64278761758704617 0 -0.76604443648966558 0.38302221824483279 0 -0.32139380879352308 1 I I -0.70710678118654746 0.70710678118654746 0.5 forward I I I I #
loop $-1 $-1 $130 $33 #
coedge $-1 $82 $82 $131 $132 reversed $51 $-1 #
face $-1 $-1 $133 $27 $-1 $134 forward single #
loop $-1 $135 $136 $53 #
cone-surface $-1 62.391936221839913 29.142865243116816 10.490264336889812 -0.64278761758704617 0 -0.76604443648966558 0.38302221824483279 0 -0.32139380879352308 1 I I -0.70710678118654746 0.70710678118654746 0.5 forward I I I I #
loop $-1 $-1 $137 $34 #
coedge $-1 $87 $87 $138 $139 reversed $54 $-1 #
face $-1 $140 $141 $21 $-1 $142 reversed single #
loop $-1 $-1 $143 $56 #
plane-surface $-1 0 -45.47256441834304 0 0 1 0 0 0 1 forward_v I I I I #
coedge $-1 $144 $145 $146 $147 forward $57 $-1 #
coedge $-1 $148 $59 $149 $150 forward $36 $-1 #
coedge $-1 $59 $148 $151 $152 forward $36 $-1 #
coedge $-1 $153 $154 $59 $95 reversed $155 $-1 #
edge $-1 $156 -45.47256441834304 $157 45.47256441834304 $94 $158 forward 7 unknown #
face $-1 $159 $160 $22 $-1 $161 reversed single #
loop $-1 $-1 $162 $60 #
plane-surface $-1 -177.64826872090606 -15.697977673753204 97.035848379866792 0 -1 0 0.74314483375859142 0 -0.66913059716165679 forward_v I I I I #
coedge $-1 $163 $164 $165 $166 reversed $61 $-1 #
coedge $-1 $101 $63 $167 $168 reversed $39 $-1 #
coedge $-1 $63 $100 $163 $169 reversed $39 $-1 #
coedge $-1 $165 $170 $63 $103 forward $171 $-1 #
edge $-1 $172 17.372979234869362 $173 32.966337596074275 $102 $174 forward 7 unknown #
loop $-1 $-1 $109 $64 #
plane-surface $-1 -71.451155125583654 -28.077445153041179 1.4155401857228469 -0.74314483375859142 0 0.66913059716165679 0.66913059716165679 0 0.74314483375859142 forward_v I I I I #
loop $-1 $-1 $175 $41 #
coedge $-1 $107 $107 $108 $176 reversed $65 $-1 #
coedge $-1 $108 $108 $107 $176 forward $67 $-1 #
coedge $-1 $109 $109 $68 $110 forward $104 $-1 #
edge $-1 $177 0 $177 6.2831853071796004 $109 $178 forward 7 unknown #
face $-1 $179 $180 $24 $-1 $181 forward single #
loop $-1 $-1 $182 $69 #
plane-surface $-1 53.837470950189598 10.107086953257056 207.91040213115403 0 1 0 0.64278761758704617 0 0.76604443648966558 forward_v I I I I #
coedge $-1 $183 $184 $185 $186 reversed $70 $-1 #
coedge $-1 $116 $72 $187 $188 reversed $45 $-1 #
coedge $-1 $72 $115 $183 $189 reversed $45 $-1 #
coedge $-1 $185 $190 $72 $118 forward $180 $-1 #
edge $-1 $191 -44.532419650488869 $192 -30.054195602501458 $117 $193 forward 7 unknown #
loop $-1 $-1 $124 $73 #
plane-surface $-1 -38.018364603843182 22.004448384419405 98.44088240172718 0.64278761758704617 0 0.76604443648966558 0.76604443648966558 0 -0.64278761758704617 forward_v I I I I #
loop $-1 $-1 $194 $47 #
coedge $-1 $122 $122 $123 $195 reversed $74 $-1 #
coedge $-1 $123 $123 $122 $195 forward $76 $-1 #
coedge $-1 $124 $124 $77 $125 forward $119 $-1 #
edge $-1 $196 0 $196 6.2831853071796004 $124 $197 forward 7 unknown #
loop $-1 $-1 $131 $78 #
plane-surface $-1 -38.018364603843182 22.004448384419405 98.44088240172718 0.64278761758704617 0 0.76604443648966558 0.76604443648966558 0 -0.64278761758704617 forward_v I I I I #
loop $-1 $-1 $198 $50 #
coedge $-1 $129 $129 $130 $199 reversed $79 $-1 #
coedge $-1 $130 $130 $129 $199 forward $81 $-1 #
coedge $-1 $131 $131 $82 $132 forward $126 $-1 #
edge $-1 $200 0 $200 6.2831853071796004 $131 $201 forward 7 unknown #
loop $-1 $-1 $138 $83 #
plane-surface $-1 -38.018364603843182 22.004448384419405 98.44088240172718 0.64278761758704617 0 0.76604443648966558 0.76604443648966558 0 -0.64278761758704617 forward_v I I I I #
loop $-1 $-1 $202 $53 #
coedge $-1 $136 $136 $137 $203 reversed $84 $-1 #
coedge $-1 $137 $137 $136 $203 forward $86 $-1 #
coedge $-1 $138 $138 $87 $139 forward $133 $-1 #
edge $-1 $204 0 $204 6.2831853071796004 $138 $205 forward 7 unknown #
face $-1 $206 $207 $21 $-1 $208 reversed single #
loop $-1 $-1 $209 $88 #
plane-surface $-1 -71.451155125583668 0 0 1 0 0 0 0 -1 forward_v I I I I #
coedge $-1 $210 $151 $211 $212 forward $89 $-1 #
coedge $-1 $213 $91 $210 $214 forward $57 $-1 #
coedge $-1 $91 $213 $215 $216 forward $57 $-1 #
coedge $-1 $154 $153 $91 $147 reversed $155 $-1 #
edge $-1 $217 -45.47256441834304 $218 45.47256441834304 $146 $219 forward 7 unknown #
coedge $-1 $93 $92 $220 $221 forward $36 $-1 #
coedge $-1 $222 $223 $92 $150 reversed $207 $-1 #
edge $-1 $157 -71.451155125583668 $224 71.451155125583668 $149 $225 forward 7 unknown #
coedge $-1 $143 $226 $93 $152 reversed $89 $-1 #
edge $-1 $227 -71.451155125583668 $156 71.451155125583668 $151 $228 forward 7 unknown #
coedge $-1 $146 $94 $226 $229 forward $155 $-1 #
coedge $-1 $94 $146 $222 $230 reversed $155 $-1 #
loop $-1 $-1 $153 $206 #
vertex $-1 $95 $231 #
vertex $-1 $95 $232 #
straight-curve $-1 71.451155125583668 0 18.733719560916111 0 1 0 I I #
face $-1 $-1 $171 $22 $-1 $233 forward single #
loop $-1 $-1 $234 $96 #
plane-surface $-1 -71.451155125583668 0 0 1 0 0 0 0 -1 forward_v I I I I #
coedge $-1 $235 $236 $237 $238 reversed $97 $-1 #
coedge $-1 $239 $99 $101 $169 forward $61 $-1 #
coedge $-1 $99 $239 $235 $240 forward $61 $-1 #
coedge $-1 $237 $102 $99 $166 forward $171 $-1 #
edge $-1 $173 -26.418190055808559 $241 -1.6592550972326148 $165 $242 forward 7 unknown #
coedge $-1 $243 $244 $100 $168 forward $160 $-1 #
edge $-1 $245 -47.102384004210563 $172 -29.784204629017285 $167 $246 forward 7 unknown #
edge $-1 $173 -23.303908724768213 $245 2.1224720073754982e-014 $101 $247 forward 7 unknown #
coedge $-1 $102 $237 $243 $248 forward $171 $-1 #
loop $-1 $-1 $237 $159 #
vertex $-1 $168 $249 #
vertex $-1 $103 $250 #
straight-curve $-1 -88.82413436045303 -40.45691263232915 18.733719560916114 1 0 0 I I #
coedge $-1 $175 $175 $-1 $251 reversed $106 $-1 #
edge $-1 $252 0 $252 6.2831853071796004 $107 $253 forward 7 unknown #
vertex $-1 $110 $254 #
ellipse-curve $-1 -63.654475944981208 -28.077445153041179 10.07462987331947 -0.74314483375859142 0 0.66913059716165679 2.0073917914849702 0 2.2294345012757741 1 I I #
face $-1 $-1 $255 $24 $-1 $256 reversed single #
loop $-1 $-1 $117 $111 #
plane-surface $-1 0 0 18.733719560916111 0 0 1 1 0 0 forward_v I I I I #
coedge $-1 $257 $258 $259 $260 reversed $112 $-1 #
coedge $-1 $261 $114 $116 $189 forward $70 $-1 #
coedge $-1 $114 $261 $257 $262 forward $70 $-1 #
coedge $-1 $259 $117 $114 $186 forward $180 $-1 #
edge $-1 $192 -22.899585623372054 $263 0.89513723895264619 $185 $264 forward 7 unknown #
coedge $-1 $265 $266 $115 $188 forward $255 $-1 #
edge $-1 $267 -97.370154217882614 $191 -85.2214815046609 $187 $268 forward 7 unknown #
edge $-1 $192 124.00233087877916 $267 142.90231025116734 $116 $269 forward 7 unknown #
coedge $-1 $117 $259 $265 $270 forward $180 $-1 #
vertex $-1 $188 $271 #
vertex $-1 $118 $272 #
straight-curve $-1 26.918735475094799 33.901809815581757 18.733719560916114 -1 0 0 I I #
coedge $-1 $194 $194 $-1 $273 reversed $121 $-1 #
edge $-1 $274 0 $274 6.2831853071796004 $122 $275 forward 7 unknown #
vertex $-1 $125 $276 #
ellipse-curve $-1 64.212043101589956 14.866031525722001 12.659383204305257 0.64278761758704617 0 0.76604443648966558 0.76604443648966558 0 -0.64278761758704617 1 I I #
coedge $-1 $198 $198 $-1 $277 reversed $128 $-1 #
edge $-1 $278 0 $278 6.2831853071796004 $129 $279 forward 7 unknown #
vertex $-1 $132 $280 #
ellipse-curve $-1 64.212043101589956 22.004448384419405 12.659383204305257 0.64278761758704617 0 0.76604443648966558 0.76604443648966558 0 -0.64278761758704617 1 I I #
coedge $-1 $202 $202 $-1 $281 reversed $135 $-1 #
edge $-1 $282 0 $282 6.2831853071796004 $136 $283 forward 7 unknown #
vertex $-1 $139 $284 #
ellipse-curve $-1 64.212043101589956 29.142865243116816 12.659383204305257 0.64278761758704617 0 0.76604443648966558 0.76604443648966558 0 -0.64278761758704617 1 I I #
face $-1 $-1 $155 $21 $-1 $285 reversed single #
loop $-1 $-1 $222 $140 #
plane-surface $-1 0 45.47256441834304 0 0 -1 0 0 0 -1 forward_v I I I I #
coedge $-1 $286 $220 $223 $287 forward $141 $-1 #
coedge $-1 $226 $143 $144 $214 reversed $89 $-1 #
coedge $-1 $220 $286 $143 $212 reversed $141 $-1 #
edge $-1 $227 -18.733719560916111 $288 18.733719560916111 $211 $289 forward 7 unknown #
coedge $-1 $145 $144 $286 $290 forward $57 $-1 #
edge $-1 $218 -71.451155125583668 $288 71.451155125583668 $210 $291 forward 7 unknown #
coedge $-1 $223 $222 $145 $216 reversed $207 $-1 #
edge $-1 $292 -71.451155125583668 $217 71.451155125583668 $215 $293 forward 7 unknown #
vertex $-1 $147 $294 #
vertex $-1 $229 $295 #
straight-curve $-1 71.451155125583668 0 -18.733719560916111 0 -1 0 I I #
coedge $-1 $209 $211 $148 $221 reversed $141 $-1 #
edge $-1 $224 -45.47256441834304 $227 45.47256441834304 $220 $296 forward 7 unknown #
coedge $-1 $215 $149 $154 $230 forward $207 $-1 #
coedge $-1 $149 $215 $209 $287 reversed $207 $-1 #
vertex $-1 $150 $297 #
straight-curve $-1 0 45.47256441834304 18.733719560916111 -1 0 0 I I #
coedge $-1 $151 $210 $153 $229 reversed $89 $-1 #
vertex $-1 $221 $298 #
straight-curve $-1 0 -45.47256441834304 18.733719560916111 1 0 0 I I #
edge $-1 $156 -18.733719560916111 $218 18.733719560916111 $153 $299 forward 7 unknown #
edge $-1 $157 -18.733719560916111 $217 18.733719560916111 $154 $300 forward 7 unknown #
point $-1 71.451155125583668 -45.47256441834304 18.733719560916111 #
point $-1 71.451155125583668 45.47256441834304 18.733719560916111 #
plane-surface $-1 0 0 18.733719560916111 0 0 1 1 0 0 forward_v I I I I #
coedge $-1 $244 $243 $236 $301 forward $160 $-1 #
coedge $-1 $236 $162 $164 $240 reversed $97 $-1 #
coedge $-1 $162 $235 $234 $301 reversed $97 $-1 #
coedge $-1 $170 $165 $162 $238 forward $171 $-1 #
edge $-1 $241 -32.966337596074275 $302 -17.372979234869362 $237 $303 forward 7 unknown #
coedge $-1 $164 $163 $244 $304 reversed $61 $-1 #
edge $-1 $305 -2.1224720073754982e-014 $241 23.303908724768213 $235 $306 forward 7 unknown #
vertex $-1 $166 $307 #
straight-curve $-1 -55.857796764378747 -14.038722576520589 18.733719560916111 0 1 0 I I #
coedge $-1 $234 $167 $170 $248 reversed $160 $-1 #
coedge $-1 $167 $234 $239 $304 forward $160 $-1 #
vertex $-1 $168 $308 #
straight-curve $-1 -71.451155125583668 -40.45691263232915 48.517924189933396 0 0 1 I I #
straight-curve $-1 -71.451155125583654 -40.45691263232915 1.4155401857228469 -0.66913059716165679 0 -0.74314483375859142 I I #
edge $-1 $302 15.697977673753204 $172 40.45691263232915 $243 $309 forward 7 unknown #
point $-1 -71.451155125583668 -40.45691263232915 18.733719560916111 #
point $-1 -55.857796764378755 -40.45691263232915 18.733719560916111 #
edge $-1 $310 1 $310 0 $175 $-1 forward 7 unknown #
vertex $-1 $176 $311 #
ellipse-curve $-1 -57.152463272310037 -28.077445153041179 4.220191512478447 -0.74314483375859142 0 0.66913059716165679 2.0073917914849702 0 2.2294345012757741 1 I I #
point $-1 -61.647084153496252 -28.077445153041179 12.304064374595256 #
loop $-1 $-1 $187 $179 #
plane-surface $-1 71.451155125583668 0 0 -1 0 0 0 0 1 forward_v I I I I #
coedge $-1 $258 $182 $184 $262 reversed $112 $-1 #
coedge $-1 $182 $257 $312 $313 reversed $112 $-1 #
coedge $-1 $190 $185 $182 $260 forward $180 $-1 #
edge $-1 $263 30.054195602501458 $314 44.532419650488869 $259 $315 forward 7 unknown #
coedge $-1 $184 $183 $266 $316 reversed $70 $-1 #
edge $-1 $317 -142.90231025116734 $263 -124.00233087877916 $257 $318 forward 7 unknown #
vertex $-1 $186 $319 #
straight-curve $-1 56.972931077596243 11.002224192209702 18.733719560916114 0 -1 0 I I #
coedge $-1 $312 $187 $190 $270 reversed $255 $-1 #
coedge $-1 $187 $312 $261 $316 forward $255 $-1 #
vertex $-1 $188 $320 #
straight-curve $-1 71.451155125583668 33.901809815581757 103.95520106557701 0 0 1 I I #
straight-curve $-1 -38.018364603843182 33.901809815581757 98.44088240172718 0.76604443648966558 0 -0.64278761758704617 I I #
edge $-1 $314 10.107086953257056 $191 33.901809815581757 $265 $321 forward 7 unknown #
point $-1 71.451155125583668 33.901809815581757 18.733719560916111 #
point $-1 56.972931077596257 33.901809815581757 18.733719560916114 #
edge $-1 $322 1 $322 0 $194 $-1 forward 7 unknown #
vertex $-1 $195 $323 #
ellipse-curve $-1 62.713330030633436 14.866031525722001 10.873286555134644 0.64278761758704617 0 0.76604443648966558 0.76604443648966558 0 -0.64278761758704617 1 I I #
point $-1 64.978087538079635 14.866031525722001 12.016595586718225 #
edge $-1 $324 1 $324 0 $198 $-1 forward 7 unknown #
vertex $-1 $199 $325 #
ellipse-curve $-1 62.713330030633436 22.004448384419405 10.873286555134644 0.64278761758704617 0 0.76604443648966558 0.76604443648966558 0 -0.64278761758704617 1 I I #
point $-1 64.978087538079635 22.004448384419405 12.016595586718225 #
edge $-1 $326 1 $326 0 $202 $-1 forward 7 unknown #
vertex $-1 $203 $327 #
ellipse-curve $-1 62.713330030633436 29.142865243116816 10.873286555134644 0.64278761758704617 0 0.76604443648966558 0.76604443648966558 0 -0.64278761758704617 1 I I #
point $-1 64.978087538079635 29.142865243116816 12.016595586718225 #
plane-surface $-1 71.451155125583668 0 0 -1 0 0 0 0 1 forward_v I I I I #
coedge $-1 $211 $209 $213 $290 reversed $141 $-1 #
edge $-1 $224 -18.733719560916111 $292 18.733719560916111 $223 $328 forward 7 unknown #
vertex $-1 $290 $329 #
straight-curve $-1 -71.451155125583668 -45.47256441834304 0 0 0 -1 I I #
edge $-1 $288 -45.47256441834304 $292 45.47256441834304 $286 $330 forward 7 unknown #
straight-curve $-1 0 -45.47256441834304 -18.733719560916111 -1 0 0 I I #
vertex $-1 $216 $331 #
straight-curve $-1 0 45.47256441834304 -18.733719560916111 1 0 0 I I #
point $-1 71.451155125583668 45.47256441834304 -18.733719560916111 #
point $-1 71.451155125583668 -45.47256441834304 -18.733719560916111 #
straight-curve $-1 -71.451155125583668 0 18.733719560916111 0 -1 0 I I #
point $-1 -71.451155125583668 45.47256441834304 18.733719560916111 #
point $-1 -71.451155125583668 -45.47256441834304 18.733719560916111 #
straight-curve $-1 71.451155125583668 -45.47256441834304 0 0 0 -1 I I #
straight-curve $-1 71.451155125583668 45.47256441834304 0 0 0 -1 I I #
edge $-1 $302 29.784204629017285 $305 47.102384004210563 $234 $332 forward 7 unknown #
vertex $-1 $248 $333 #
straight-curve $-1 -88.82413436045303 -15.697977673753204 18.733719560916114 -1 0 0 I I #
edge $-1 $305 1.6592550972326148 $245 26.418190055808559 $244 $334 forward 7 unknown #
vertex $-1 $304 $335 #
straight-curve $-1 -71.451155125583654 -15.697977673753204 1.4155401857228469 0.66913059716165679 0 0.74314483375859142 I I #
point $-1 -55.857796764378755 -15.697977673753204 18.733719560916111 #
point $-1 -71.451155125583668 -40.45691263232915 1.4155401857228311 #
straight-curve $-1 -71.451155125583668 0 18.733719560916111 0 -1 0 I I #
vertex $-1 $251 $336 #
point $-1 -55.145071480825067 -28.077445153041179 6.4496260137542212 #
coedge $-1 $266 $265 $258 $313 forward $255 $-1 #
edge $-1 $314 85.2214815046609 $317 97.370154217882614 $312 $337 forward 7 unknown #
vertex $-1 $270 $338 #
straight-curve $-1 26.918735475094799 10.107086953257056 18.733719560916114 1 0 0 I I #
edge $-1 $317 -0.89513723895264619 $267 22.899585623372054 $266 $339 forward 7 unknown #
vertex $-1 $316 $340 #
straight-curve $-1 -38.018364603843182 10.107086953257056 98.44088240172718 -0.76604443648966558 0 0.64278761758704617 I I #
point $-1 56.972931077596257 10.107086953257056 18.733719560916114 #
point $-1 71.451155125583668 33.901809815581757 6.5850468476944002 #
straight-curve $-1 71.451155125583668 0 18.733719560916111 0 1 0 I I #
vertex $-1 $273 $341 #
point $-1 63.479374467123101 14.866031525722001 10.230498937547598 #
vertex $-1 $277 $342 #
point $-1 63.479374467123101 22.004448384419405 10.230498937547598 #
vertex $-1 $281 $343 #
point $-1 63.479374467123101 29.142865243116816 10.230498937547598 #
straight-curve $-1 -71.451155125583668 45.47256441834304 0 0 0 -1 I I #
point $-1 -71.451155125583668 -45.47256441834304 -18.733719560916111 #
straight-curve $-1 -71.451155125583668 0 -18.733719560916111 0 1 0 I I #
point $-1 -71.451155125583668 45.47256441834304 -18.733719560916111 #
straight-curve $-1 -71.451155125583668 -15.697977673753204 48.517924189933396 0 0 -1 I I #
point $-1 -71.451155125583668 -15.697977673753204 18.733719560916111 #
straight-curve $-1 -71.451155125583668 -14.038722576520589 1.41554018572283 0 -1 0 I I #
point $-1 -71.451155125583668 -15.697977673753204 1.4155401857228311 #
point $-1 -54.923028771034261 -28.077445153041179 2.2127997209934769 #
straight-curve $-1 71.451155125583668 10.107086953257056 103.95520106557701 0 0 -1 I I #
point $-1 71.451155125583668 10.107086953257056 18.733719560916111 #
straight-curve $-1 71.451155125583654 11.002224192209702 6.5850468476944144 0 1 0 I I #
point $-1 71.451155125583668 10.107086953257056 6.5850468476944002 #
point $-1 62.07054241304639 14.866031525722001 10.107242118644979 #
point $-1 62.07054241304639 22.004448384419405 10.107242118644979 #
point $-1 62.07054241304639 29.142865243116816 10.107242118644979 #
End-of-ACIS-data 