500 0 10 0           
7 Unknown 11 ACIS 5.0 NT 24 Thu Mar 25 19:59:42 1999 
-1 9.9999999999999995e-007 1e-010 
body $-1 $10 $-1 $11 #
body $-1 $12 $-1 $13 #
body $-1 $14 $-1 $15 #
body $-1 $16 $-1 $17 #
body $-1 $18 $-1 $19 #
body $-1 $20 $-1 $21 #
body $-1 $22 $-1 $23 #
body $-1 $24 $-1 $25 #
body $-1 $26 $-1 $27 #
body $-1 $28 $-1 $29 #
lump $-1 $-1 $30 $0 #
transform $-1 1 0 0 0 1 0 0 0 1 53.700369273964661 32.908704645893508 9.5483149757206576 1 rotate no_reflect no_shear #
lump $-1 $-1 $31 $1 #
transform $-1 1 0 0 0 1 0 0 0 1 53.700369273964661 32.908704645893508 9.5483149757206576 1 rotate no_reflect no_shear #
lump $-1 $-1 $32 $2 #
transform $-1 1 0 0 0 1 0 0 0 1 53.700369273964661 32.908704645893508 9.5483149757206576 1 rotate no_reflect no_shear #
lump $-1 $-1 $33 $3 #
transform $-1 1 0 0 0 1 0 0 0 1 53.700369273964661 32.908704645893508 9.5483149757206576 1 rotate no_reflect no_shear #
lump $-1 $-1 $34 $4 #
transform $-1 1 0 0 0 1 0 0 0 1 53.700369273964661 32.908704645893508 9.5483149757206576 1 rotate no_reflect no_shear #
lump $-1 $-1 $35 $5 #
transform $-1 1 0 0 0 1 0 0 0 1 53.700369273964661 32.908704645893508 9.5483149757206576 1 rotate no_reflect no_shear #
lump $-1 $-1 $36 $6 #
transform $-1 1 0 0 0 1 0 0 0 1 53.700369273964661 32.908704645893508 9.5483149757206576 1 rotate no_reflect no_shear #
lump $-1 $-1 $37 $7 #
transform $-1 1 0 0 0 1 0 0 0 1 53.700369273964661 32.908704645893508 9.5483149757206576 1 rotate no_reflect no_shear #
lump $-1 $-1 $38 $8 #
transform $-1 1 0 0 0 1 0 0 0 1 53.700369273964661 32.908704645893508 9.5483149757206576 1 rotate no_reflect no_shear #
lump $-1 $-1 $39 $9 #
transform $-1 1 0 0 0 1 0 0 0 1 53.700369273964661 32.908704645893508 9.5483149757206576 1 rotate no_reflect no_shear #
shell $-1 $-1 $-1 $40 $-1 $10 #
shell $-1 $-1 $-1 $41 $-1 $12 #
shell $-1 $-1 $-1 $42 $-1 $14 #
shell $-1 $-1 $-1 $43 $-1 $16 #
shell $-1 $-1 $-1 $44 $-1 $18 #
shell $-1 $-1 $-1 $45 $-1 $20 #
shell $-1 $-1 $-1 $46 $-1 $22 #
shell $-1 $-1 $-1 $47 $-1 $24 #
shell $-1 $-1 $-1 $48 $-1 $26 #
shell $-1 $-1 $-1 $49 $-1 $28 #
face $-1 $50 $51 $30 $-1 $52 forward single #
face $-1 $53 $54 $31 $-1 $55 forward single #
face $-1 $56 $57 $32 $-1 $58 reversed single #
face $-1 $59 $60 $33 $-1 $61 forward single #
face $-1 $62 $63 $34 $-1 $64 reversed single #
face $-1 $65 $66 $35 $-1 $67 forward single #
face $-1 $68 $69 $36 $-1 $70 reversed single #
face $-1 $71 $72 $37 $-1 $73 forward single #
face $-1 $74 $75 $38 $-1 $76 reversed single #
face $-1 $77 $78 $39 $-1 $79 forward single #
face $-1 $80 $81 $30 $-1 $82 reversed single #
loop $-1 $-1 $83 $40 #
plane-surface $-1 0 0 9.5483149757206576 0 0 1 1 0 0 forward_v I I I I #
face $-1 $84 $85 $31 $-1 $86 reversed single #
loop $-1 $-1 $87 $41 #
plane-surface $-1 -48.461361220025083 0 2.8050485056548484 0 0 1 1 0 0 forward_v I I I I #
face $-1 $88 $89 $32 $-1 $90 reversed single #
loop $-1 $-1 $91 $42 #
plane-surface $-1 -32.573238829410215 -112.72300863964438 73.819003053344019 1 0 0 0 0.74314483375859142 -0.66913059716165679 forward_v I I I I #
face $-1 $92 $93 $33 $-1 $94 forward single #
loop $-1 $95 $96 $43 #
cone-surface $-1 -27.384462677479753 -26.273103054983309 2.8548836575771799 0 0.74314483375859142 -0.66913059716165679 2.5 0 0 1 I I 0 1 2.5 forward I I I I #
face $-1 $97 $98 $34 $-1 $99 reversed single #
loop $-1 $-1 $100 $44 #
plane-surface $-1 -8.3425582193976755 -112.72300863964438 73.819003053344019 1 0 0 0 0.74314483375859142 -0.66913059716165679 forward_v I I I I #
face $-1 $101 $102 $35 $-1 $103 forward single #
loop $-1 $104 $105 $45 #
cone-surface $-1 -3.1537820674672119 -26.273103054983309 2.8548836575771799 0 0.74314483375859142 -0.66913059716165679 2.5 0 0 1 I I 0 1 2.5 forward I I I I #
face $-1 $106 $107 $36 $-1 $108 reversed single #
loop $-1 $-1 $109 $46 #
plane-surface $-1 15.888122390614866 -112.72300863964438 73.819003053344019 1 0 0 0 0.74314483375859142 -0.66913059716165679 forward_v I I I I #
face $-1 $110 $111 $37 $-1 $112 forward single #
loop $-1 $113 $114 $47 #
cone-surface $-1 21.076898542545329 -26.273103054983309 2.8548836575771799 0 0.74314483375859142 -0.66913059716165679 2.5 0 0 1 I I 0 1 2.5 forward I I I I #
face $-1 $115 $116 $38 $-1 $117 reversed single #
loop $-1 $-1 $118 $48 #
plane-surface $-1 40.118803000627409 -112.72300863964438 73.819003053344019 1 0 0 0 0.74314483375859142 -0.66913059716165679 forward_v I I I I #
face $-1 $119 $120 $39 $-1 $121 forward single #
loop $-1 $122 $123 $49 #
cone-surface $-1 45.307579152557871 -26.273103054983309 2.8548836575771799 0 0.74314483375859142 -0.66913059716165679 2.5 0 0 1 I I 0 1 2.5 forward I I I I #
face $-1 $124 $125 $30 $-1 $126 reversed single #
loop $-1 $-1 $127 $50 #
plane-surface $-1 0 0 -9.5483149757206576 0 0 1 1 0 0 forward_v I I I I #
coedge $-1 $128 $129 $130 $131 forward $51 $-1 #
face $-1 $132 $133 $31 $-1 $134 reversed single #
loop $-1 $-1 $135 $53 #
plane-surface $-1 -48.461361220025083 0 -2.2981291073034806 0 0 1 1 0 0 forward_v I I I I #
coedge $-1 $136 $137 $138 $139 forward $54 $-1 #
face $-1 $140 $141 $32 $-1 $142 reversed single #
loop $-1 $-1 $143 $56 #
plane-surface $-1 -27.384462677479753 -32.908704645893508 1.9538827331651163 0 -0.74314483375859142 0.66913059716165679 1 0 0 forward_v I I I I #
coedge $-1 $144 $145 $146 $147 reversed $57 $-1 #
face $-1 $-1 $148 $33 $-1 $149 forward single #
loop $-1 $150 $151 $59 #
cone-surface $-1 -27.384462677479753 -22.127599089452008 -0.87774478574059245 0 0.74314483375859142 -0.66913059716165679 1.25 0 0 1 I I -0.70710678118654746 0.70710678118654746 1.25 forward I I I I #
loop $-1 $-1 $152 $43 #
coedge $-1 $96 $96 $153 $154 reversed $60 $-1 #
face $-1 $155 $156 $34 $-1 $157 reversed single #
loop $-1 $-1 $158 $62 #
plane-surface $-1 -3.1537820674672119 -32.908704645893508 1.9538827331651163 0 -0.74314483375859142 0.66913059716165679 1 0 0 forward_v I I I I #
coedge $-1 $159 $160 $161 $162 reversed $63 $-1 #
face $-1 $-1 $163 $35 $-1 $164 forward single #
loop $-1 $165 $166 $65 #
cone-surface $-1 -3.1537820674672119 -22.127599089452008 -0.87774478574059245 0 0.74314483375859142 -0.66913059716165679 1.25 0 0 1 I I -0.70710678118654746 0.70710678118654746 1.25 forward I I I I #
loop $-1 $-1 $167 $45 #
coedge $-1 $105 $105 $168 $169 reversed $66 $-1 #
face $-1 $170 $171 $36 $-1 $172 reversed single #
loop $-1 $-1 $173 $68 #
plane-surface $-1 21.076898542545329 -32.908704645893508 1.9538827331651163 0 -0.74314483375859142 0.66913059716165679 1 0 0 forward_v I I I I #
coedge $-1 $174 $175 $176 $177 reversed $69 $-1 #
face $-1 $-1 $178 $37 $-1 $179 forward single #
loop $-1 $180 $181 $71 #
cone-surface $-1 21.076898542545329 -22.127599089452008 -0.87774478574059245 0 0.74314483375859142 -0.66913059716165679 1.25 0 0 1 I I -0.70710678118654746 0.70710678118654746 1.25 forward I I I I #
loop $-1 $-1 $182 $47 #
coedge $-1 $114 $114 $183 $184 reversed $72 $-1 #
face $-1 $185 $186 $38 $-1 $187 reversed single #
loop $-1 $-1 $188 $74 #
plane-surface $-1 45.307579152557871 -32.908704645893508 1.9538827331651163 0 -0.74314483375859142 0.66913059716165679 1 0 0 forward_v I I I I #
coedge $-1 $189 $190 $191 $192 reversed $75 $-1 #
face $-1 $-1 $193 $39 $-1 $194 forward single #
loop $-1 $195 $196 $77 #
cone-surface $-1 45.307579152557871 -22.127599089452008 -0.87774478574059245 0 0.74314483375859142 -0.66913059716165679 1.25 0 0 1 I I -0.70710678118654746 0.70710678118654746 1.25 forward I I I I #
loop $-1 $-1 $197 $49 #
coedge $-1 $123 $123 $198 $199 reversed $78 $-1 #
face $-1 $200 $201 $30 $-1 $202 reversed single #
loop $-1 $-1 $203 $80 #
plane-surface $-1 0 -32.908704645893508 0 0 1 0 0 0 1 forward_v I I I I #
coedge $-1 $204 $205 $206 $207 forward $81 $-1 #
coedge $-1 $208 $83 $209 $210 forward $51 $-1 #
coedge $-1 $83 $208 $211 $212 forward $51 $-1 #
coedge $-1 $213 $214 $83 $131 reversed $215 $-1 #
edge $-1 $216 -32.908704645893508 $217 32.908704645893508 $130 $218 forward 7 unknown #
face $-1 $219 $220 $31 $-1 $221 reversed single #
loop $-1 $-1 $222 $84 #
plane-surface $-1 -43.222353166085497 0 0.25345969917568389 -1 0 0 0 0 1 forward_v I I I I #
coedge $-1 $223 $224 $225 $226 forward $85 $-1 #
coedge $-1 $227 $87 $228 $229 reversed $54 $-1 #
coedge $-1 $87 $227 $230 $231 reversed $54 $-1 #
coedge $-1 $222 $232 $87 $139 reversed $133 $-1 #
edge $-1 $233 -32.908704645893508 $234 32.908704645893508 $138 $235 forward 7 unknown #
face $-1 $236 $237 $32 $-1 $238 forward single #
loop $-1 $-1 $239 $88 #
plane-surface $-1 -22.195686525549291 -112.72300863964438 73.819003053344019 -1 0 0 0 -0.74314483375859142 0.66913059716165679 forward_v I I I I #
coedge $-1 $240 $241 $242 $243 reversed $89 $-1 #
coedge $-1 $145 $91 $244 $245 reversed $57 $-1 #
coedge $-1 $91 $144 $240 $246 reversed $57 $-1 #
coedge $-1 $242 $247 $91 $147 forward $248 $-1 #
edge $-1 $249 27.361186550951352 $250 34.955618793506893 $146 $251 forward 7 unknown #
loop $-1 $-1 $153 $92 #
plane-surface $-1 -27.384462677479753 -32.908704645893508 1.9538827331651163 0 -0.74314483375859142 0.66913059716165679 1 0 0 forward_v I I I I #
loop $-1 $-1 $252 $59 #
coedge $-1 $151 $151 $152 $253 reversed $93 $-1 #
coedge $-1 $152 $152 $151 $253 forward $95 $-1 #
coedge $-1 $153 $153 $96 $154 forward $148 $-1 #
edge $-1 $254 3.1767505061768945e-016 $254 6.2831853071796004 $153 $255 forward 7 unknown #
face $-1 $256 $257 $34 $-1 $258 reversed single #
loop $-1 $-1 $259 $97 #
plane-surface $-1 2.0349940844632517 -112.72300863964438 73.819003053344019 -1 0 0 0 -0.74314483375859142 0.66913059716165679 forward_v I I I I #
coedge $-1 $260 $261 $262 $263 reversed $98 $-1 #
coedge $-1 $160 $100 $264 $265 reversed $63 $-1 #
coedge $-1 $100 $159 $260 $266 reversed $63 $-1 #
coedge $-1 $262 $267 $100 $162 forward $257 $-1 #
edge $-1 $268 27.361186550951352 $269 34.955618793506893 $161 $270 forward 7 unknown #
loop $-1 $-1 $168 $101 #
plane-surface $-1 -3.1537820674672119 -32.908704645893508 1.9538827331651163 0 -0.74314483375859142 0.66913059716165679 1 0 0 forward_v I I I I #
loop $-1 $-1 $271 $65 #
coedge $-1 $166 $166 $167 $272 reversed $102 $-1 #
coedge $-1 $167 $167 $166 $272 forward $104 $-1 #
coedge $-1 $168 $168 $105 $169 forward $163 $-1 #
edge $-1 $273 3.1767505061768945e-016 $273 6.2831853071796004 $168 $274 forward 7 unknown #
face $-1 $275 $276 $36 $-1 $277 reversed single #
loop $-1 $-1 $278 $106 #
plane-surface $-1 26.265674694475791 -112.72300863964438 73.819003053344019 -1 0 0 0 -0.74314483375859142 0.66913059716165679 forward_v I I I I #
coedge $-1 $279 $280 $281 $282 reversed $107 $-1 #
coedge $-1 $175 $109 $283 $284 reversed $69 $-1 #
coedge $-1 $109 $174 $279 $285 reversed $69 $-1 #
coedge $-1 $281 $286 $109 $177 forward $276 $-1 #
edge $-1 $287 27.361186550951352 $288 34.955618793506893 $176 $289 forward 7 unknown #
loop $-1 $-1 $183 $110 #
plane-surface $-1 21.076898542545329 -32.908704645893508 1.9538827331651163 0 -0.74314483375859142 0.66913059716165679 1 0 0 forward_v I I I I #
loop $-1 $-1 $290 $71 #
coedge $-1 $181 $181 $182 $291 reversed $111 $-1 #
coedge $-1 $182 $182 $181 $291 forward $113 $-1 #
coedge $-1 $183 $183 $114 $184 forward $178 $-1 #
edge $-1 $292 3.1767505061768945e-016 $292 6.2831853071796004 $183 $293 forward 7 unknown #
face $-1 $294 $295 $38 $-1 $296 reversed single #
loop $-1 $-1 $297 $115 #
plane-surface $-1 50.496355304488333 -112.72300863964438 73.819003053344019 -1 0 0 0 -0.74314483375859142 0.66913059716165679 forward_v I I I I #
coedge $-1 $298 $299 $300 $301 reversed $116 $-1 #
coedge $-1 $190 $118 $302 $303 reversed $75 $-1 #
coedge $-1 $118 $189 $298 $304 reversed $75 $-1 #
coedge $-1 $300 $305 $118 $192 forward $295 $-1 #
edge $-1 $306 27.361186550951352 $307 34.955618793506893 $191 $308 forward 7 unknown #
loop $-1 $-1 $198 $119 #
plane-surface $-1 45.307579152557871 -32.908704645893508 1.9538827331651163 0 -0.74314483375859142 0.66913059716165679 1 0 0 forward_v I I I I #
loop $-1 $-1 $309 $77 #
coedge $-1 $196 $196 $197 $310 reversed $120 $-1 #
coedge $-1 $197 $197 $196 $310 forward $122 $-1 #
coedge $-1 $198 $198 $123 $199 forward $193 $-1 #
edge $-1 $311 3.1767505061768945e-016 $311 6.2831853071796004 $198 $312 forward 7 unknown #
face $-1 $313 $314 $30 $-1 $315 reversed single #
loop $-1 $-1 $316 $124 #
plane-surface $-1 -53.700369273964661 0 0 1 0 0 0 0 -1 forward_v I I I I #
coedge $-1 $317 $211 $318 $319 forward $125 $-1 #
coedge $-1 $320 $127 $317 $321 forward $81 $-1 #
coedge $-1 $127 $320 $322 $323 forward $81 $-1 #
coedge $-1 $214 $213 $127 $207 reversed $215 $-1 #
edge $-1 $324 -32.908704645893508 $325 32.908704645893508 $206 $326 forward 7 unknown #
coedge $-1 $129 $128 $327 $328 forward $51 $-1 #
coedge $-1 $329 $330 $128 $210 reversed $314 $-1 #
edge $-1 $217 -53.700369273964661 $331 53.700369273964661 $209 $332 forward 7 unknown #
coedge $-1 $203 $333 $129 $212 reversed $125 $-1 #
edge $-1 $334 -53.700369273964661 $216 53.700369273964661 $211 $335 forward 7 unknown #
coedge $-1 $206 $130 $333 $336 forward $215 $-1 #
coedge $-1 $130 $206 $329 $337 reversed $215 $-1 #
loop $-1 $-1 $213 $313 #
vertex $-1 $131 $338 #
vertex $-1 $131 $339 #
straight-curve $-1 53.700369273964661 0 9.5483149757206576 0 1 0 I I #
face $-1 $340 $341 $31 $-1 $342 reversed single #
loop $-1 $-1 $343 $132 #
plane-surface $-1 0 -32.908704645893508 0 0 1 0 0 0 1 forward_v I I I I #
coedge $-1 $225 $138 $344 $345 reversed $133 $-1 #
coedge $-1 $346 $135 $343 $347 reversed $85 $-1 #
coedge $-1 $135 $346 $348 $349 reversed $85 $-1 #
coedge $-1 $232 $222 $135 $226 reversed $133 $-1 #
edge $-1 $350 -32.908704645893508 $351 32.908704645893508 $225 $352 forward 7 unknown #
coedge $-1 $137 $136 $353 $354 reversed $54 $-1 #
coedge $-1 $355 $356 $136 $229 forward $357 $-1 #
edge $-1 $358 -29.469688663952127 $234 -18.991672556072956 $228 $359 forward 7 unknown #
coedge $-1 $360 $344 $137 $231 forward $220 $-1 #
edge $-1 $233 18.991672556072956 $361 29.469688663952127 $230 $362 forward 7 unknown #
coedge $-1 $138 $225 $355 $363 reversed $133 $-1 #
vertex $-1 $231 $364 #
vertex $-1 $229 $365 #
straight-curve $-1 -43.222353166085497 0 2.8050485056548484 0 1 0 I I #
face $-1 $-1 $248 $32 $-1 $366 reversed single #
loop $-1 $-1 $367 $140 #
plane-surface $-1 0 0 9.5483149757206576 0 0 1 1 0 0 forward_v I I I I #
coedge $-1 $368 $369 $370 $371 reversed $141 $-1 #
coedge $-1 $372 $143 $145 $246 forward $89 $-1 #
coedge $-1 $143 $372 $368 $373 forward $89 $-1 #
coedge $-1 $370 $146 $143 $243 forward $248 $-1 #
edge $-1 $250 -18.881007490670338 $374 -8.5034551868094148 $242 $375 forward 7 unknown #
coedge $-1 $376 $377 $144 $245 forward $237 $-1 #
edge $-1 $378 -30.290857009082941 $249 -23.452799673928681 $244 $379 forward 7 unknown #
edge $-1 $250 0 $378 10.219316474482243 $145 $380 forward 7 unknown #
coedge $-1 $146 $370 $376 $381 reversed $248 $-1 #
loop $-1 $-1 $370 $236 #
vertex $-1 $381 $382 #
vertex $-1 $147 $383 #
straight-curve $-1 -32.573238829410215 -32.908704645893508 36.90950152667201 0 0 -1 I I #
coedge $-1 $252 $252 $-1 $384 reversed $150 $-1 #
edge $-1 $385 0 $385 6.2831853071796004 $151 $386 forward 7 unknown #
vertex $-1 $154 $387 #
ellipse-curve $-1 -27.384462677479753 -29.489675978316377 5.7510988544428869 0 -0.74314483375859142 0.66913059716165679 2.5 0 0 1 I I #
face $-1 $-1 $388 $34 $-1 $389 forward single #
loop $-1 $-1 $161 $155 #
plane-surface $-1 0 -32.908704645893508 0 0 1 0 0 0 1 forward_v I I I I #
coedge $-1 $390 $391 $392 $393 reversed $156 $-1 #
coedge $-1 $394 $158 $160 $266 forward $98 $-1 #
coedge $-1 $158 $394 $390 $395 forward $98 $-1 #
coedge $-1 $392 $161 $158 $263 forward $257 $-1 #
edge $-1 $269 -6.7656671856640695 $396 3.6118851181968576 $262 $397 forward 7 unknown #
coedge $-1 $398 $399 $159 $265 forward $388 $-1 #
edge $-1 $400 -30.290857009082941 $268 -23.452799673928681 $264 $401 forward 7 unknown #
edge $-1 $269 0 $400 10.219316474482243 $160 $402 forward 7 unknown #
coedge $-1 $161 $392 $398 $403 reversed $257 $-1 #
vertex $-1 $403 $404 #
vertex $-1 $162 $405 #
straight-curve $-1 -8.3425582193976755 -32.908704645893508 36.90950152667201 0 0 -1 I I #
coedge $-1 $271 $271 $-1 $406 reversed $165 $-1 #
edge $-1 $407 0 $407 6.2831853071796004 $166 $408 forward 7 unknown #
vertex $-1 $169 $409 #
ellipse-curve $-1 -3.1537820674672119 -29.489675978316377 5.7510988544428869 0 -0.74314483375859142 0.66913059716165679 2.5 0 0 1 I I #
face $-1 $-1 $410 $36 $-1 $411 forward single #
loop $-1 $-1 $176 $170 #
plane-surface $-1 0 -32.908704645893508 0 0 1 0 0 0 1 forward_v I I I I #
coedge $-1 $412 $413 $414 $415 reversed $171 $-1 #
coedge $-1 $416 $173 $175 $285 forward $107 $-1 #
coedge $-1 $173 $416 $412 $417 forward $107 $-1 #
coedge $-1 $414 $176 $173 $282 forward $276 $-1 #
edge $-1 $288 5.3496731193422011 $418 15.727225423203127 $281 $419 forward 7 unknown #
coedge $-1 $420 $421 $174 $284 forward $410 $-1 #
edge $-1 $422 -30.290857009082941 $287 -23.452799673928681 $283 $423 forward 7 unknown #
edge $-1 $288 0 $422 10.219316474482243 $175 $424 forward 7 unknown #
coedge $-1 $176 $414 $420 $425 reversed $276 $-1 #
vertex $-1 $425 $426 #
vertex $-1 $177 $427 #
straight-curve $-1 15.888122390614866 -32.908704645893508 36.90950152667201 0 0 -1 I I #
coedge $-1 $290 $290 $-1 $428 reversed $180 $-1 #
edge $-1 $429 0 $429 6.2831853071796004 $181 $430 forward 7 unknown #
vertex $-1 $184 $431 #
ellipse-curve $-1 21.076898542545329 -29.489675978316377 5.7510988544428869 0 -0.74314483375859142 0.66913059716165679 2.5 0 0 1 I I #
face $-1 $-1 $432 $38 $-1 $433 forward single #
loop $-1 $-1 $191 $185 #
plane-surface $-1 0 -32.908704645893508 0 0 1 0 0 0 1 forward_v I I I I #
coedge $-1 $434 $435 $436 $437 reversed $186 $-1 #
coedge $-1 $438 $188 $190 $304 forward $116 $-1 #
coedge $-1 $188 $438 $434 $439 forward $116 $-1 #
coedge $-1 $436 $191 $188 $301 forward $295 $-1 #
edge $-1 $307 17.465013424348474 $440 27.842565728209397 $300 $441 forward 7 unknown #
coedge $-1 $442 $443 $189 $303 forward $432 $-1 #
edge $-1 $444 -30.290857009082941 $306 -23.452799673928681 $302 $445 forward 7 unknown #
edge $-1 $307 0 $444 10.219316474482243 $190 $446 forward 7 unknown #
coedge $-1 $191 $436 $442 $447 reversed $295 $-1 #
vertex $-1 $447 $448 #
vertex $-1 $192 $449 #
straight-curve $-1 40.118803000627409 -32.908704645893508 36.90950152667201 0 0 -1 I I #
coedge $-1 $309 $309 $-1 $450 reversed $195 $-1 #
edge $-1 $451 0 $451 6.2831853071796004 $196 $452 forward 7 unknown #
vertex $-1 $199 $453 #
ellipse-curve $-1 45.307579152557871 -29.489675978316377 5.7510988544428869 0 -0.74314483375859142 0.66913059716165679 2.5 0 0 1 I I #
face $-1 $-1 $215 $30 $-1 $454 reversed single #
loop $-1 $-1 $329 $200 #
plane-surface $-1 0 32.908704645893508 0 0 -1 0 0 0 -1 forward_v I I I I #
coedge $-1 $455 $327 $330 $456 forward $201 $-1 #
coedge $-1 $333 $203 $204 $321 reversed $125 $-1 #
coedge $-1 $327 $455 $203 $319 reversed $201 $-1 #
edge $-1 $334 -9.5483149757206576 $457 9.5483149757206576 $318 $458 forward 7 unknown #
coedge $-1 $205 $204 $455 $459 forward $81 $-1 #
edge $-1 $325 -53.700369273964661 $457 53.700369273964661 $317 $460 forward 7 unknown #
coedge $-1 $330 $329 $205 $323 reversed $314 $-1 #
edge $-1 $461 -53.700369273964661 $324 53.700369273964661 $322 $462 forward 7 unknown #
vertex $-1 $207 $463 #
vertex $-1 $336 $464 #
straight-curve $-1 53.700369273964661 0 -9.5483149757206576 0 -1 0 I I #
coedge $-1 $316 $318 $208 $328 reversed $201 $-1 #
edge $-1 $331 -32.908704645893508 $334 32.908704645893508 $327 $465 forward 7 unknown #
coedge $-1 $322 $209 $214 $337 forward $314 $-1 #
coedge $-1 $209 $322 $316 $456 reversed $314 $-1 #
vertex $-1 $210 $466 #
straight-curve $-1 0 32.908704645893508 9.5483149757206576 -1 0 0 I I #
coedge $-1 $211 $317 $213 $336 reversed $125 $-1 #
vertex $-1 $328 $467 #
straight-curve $-1 0 -32.908704645893508 9.5483149757206576 1 0 0 I I #
edge $-1 $216 -9.5483149757206576 $325 9.5483149757206576 $213 $468 forward 7 unknown #
edge $-1 $217 -9.5483149757206576 $324 9.5483149757206576 $214 $469 forward 7 unknown #
point $-1 53.700369273964661 -32.908704645893508 9.5483149757206576 #
point $-1 53.700369273964661 32.908704645893508 9.5483149757206576 #
face $-1 $-1 $357 $31 $-1 $470 reversed single #
loop $-1 $-1 $471 $219 #
plane-surface $-1 -53.700369273964661 0 0 1 0 0 0 0 -1 forward_v I I I I #
coedge $-1 $344 $360 $223 $347 forward $220 $-1 #
coedge $-1 $230 $343 $222 $345 forward $220 $-1 #
edge $-1 $351 -2.4248589568913226 $233 2.6783186560670065 $344 $472 forward 7 unknown #
coedge $-1 $224 $223 $471 $473 reversed $85 $-1 #
edge $-1 $474 -29.469688663952127 $351 -18.991672556072956 $343 $475 forward 7 unknown #
coedge $-1 $356 $355 $224 $349 forward $357 $-1 #
edge $-1 $350 18.991672556072956 $476 29.469688663952127 $348 $477 forward 7 unknown #
vertex $-1 $349 $478 #
vertex $-1 $347 $479 #
straight-curve $-1 -43.222353166085497 0 -2.2981291073034806 0 -1 0 I I #
coedge $-1 $480 $481 $227 $354 forward $341 $-1 #
edge $-1 $361 -32.908704645893508 $358 32.908704645893508 $353 $482 forward 7 unknown #
coedge $-1 $348 $228 $232 $363 forward $357 $-1 #
coedge $-1 $228 $348 $480 $483 reversed $357 $-1 #
loop $-1 $-1 $348 $340 #
vertex $-1 $483 $484 #
straight-curve $-1 -24.230680610012541 32.908704645893508 2.8050485056548484 1 0 0 I I #
coedge $-1 $343 $230 $481 $485 forward $220 $-1 #
vertex $-1 $485 $486 #
straight-curve $-1 -24.230680610012541 -32.908704645893508 2.8050485056548484 -1 0 0 I I #
edge $-1 $234 -2.6783186560670065 $350 2.4248589568913226 $355 $487 forward 7 unknown #
point $-1 -43.222353166085497 -32.908704645893508 2.8050485056548484 #
point $-1 -43.222353166085497 32.908704645893508 2.8050485056548484 #
plane-surface $-1 0 -32.908704645893508 0 0 1 0 0 0 1 forward_v I I I I #
coedge $-1 $377 $376 $369 $488 forward $237 $-1 #
coedge $-1 $369 $239 $241 $373 reversed $141 $-1 #
coedge $-1 $239 $368 $367 $488 reversed $141 $-1 #
coedge $-1 $247 $242 $239 $371 forward $248 $-1 #
edge $-1 $374 -34.955618793506893 $489 -27.361186550951352 $370 $490 forward 7 unknown #
coedge $-1 $241 $240 $377 $491 reversed $89 $-1 #
edge $-1 $492 -10.219316474482243 $374 0 $368 $493 forward 7 unknown #
vertex $-1 $243 $494 #
straight-curve $-1 -13.692231338739877 -32.908704645893508 1.9538827331651174 1 0 0 I I #
coedge $-1 $367 $244 $247 $381 forward $237 $-1 #
coedge $-1 $244 $367 $372 $491 forward $237 $-1 #
vertex $-1 $245 $495 #
straight-curve $-1 -32.573238829410215 -56.361504319822188 9.5483149757206576 0 -1 0 I I #
straight-curve $-1 -32.573238829410215 -32.908704645893508 1.9538827331651163 0 0.66913059716165679 0.74314483375859142 I I #
edge $-1 $249 -32.573238829410215 $489 -22.195686525549291 $247 $496 forward 7 unknown #
point $-1 -32.573238829410215 -32.908704645893508 9.5483149757206576 #
point $-1 -32.573238829410215 -32.908704645893508 1.9538827331651163 #
edge $-1 $497 1 $497 0 $252 $-1 forward 7 unknown #
vertex $-1 $253 $498 #
ellipse-curve $-1 -27.384462677479753 -23.056530131650248 -0.041331539288521402 0 -0.74314483375859142 0.66913059716165679 2.5 0 0 1 I I #
point $-1 -24.884462677479753 -29.48967597831637 5.7510988544428816 #
loop $-1 $-1 $264 $256 #
plane-surface $-1 0 0 9.5483149757206576 0 0 1 1 0 0 forward_v I I I I #
coedge $-1 $391 $259 $261 $395 reversed $156 $-1 #
coedge $-1 $259 $390 $499 $500 reversed $156 $-1 #
coedge $-1 $267 $262 $259 $393 forward $257 $-1 #
edge $-1 $396 -34.955618793506893 $501 -27.361186550951352 $392 $502 forward 7 unknown #
coedge $-1 $261 $260 $399 $503 reversed $98 $-1 #
edge $-1 $504 -10.219316474482243 $396 0 $390 $505 forward 7 unknown #
vertex $-1 $263 $506 #
straight-curve $-1 -1.576891033733606 -32.908704645893508 1.9538827331651174 1 0 0 I I #
coedge $-1 $499 $264 $267 $403 forward $388 $-1 #
coedge $-1 $264 $499 $394 $503 forward $388 $-1 #
vertex $-1 $265 $507 #
straight-curve $-1 -8.3425582193976755 -56.361504319822188 9.5483149757206576 0 -1 0 I I #
straight-curve $-1 -8.3425582193976755 -32.908704645893508 1.9538827331651163 0 0.66913059716165679 0.74314483375859142 I I #
edge $-1 $268 -8.3425582193976755 $501 2.0349940844632517 $267 $508 forward 7 unknown #
point $-1 -8.3425582193976755 -32.908704645893508 9.5483149757206576 #
point $-1 -8.3425582193976755 -32.908704645893508 1.9538827331651163 #
edge $-1 $509 1 $509 0 $271 $-1 forward 7 unknown #
vertex $-1 $272 $510 #
ellipse-curve $-1 -3.1537820674672119 -23.056530131650248 -0.041331539288521402 0 -0.74314483375859142 0.66913059716165679 2.5 0 0 1 I I #
point $-1 -0.6537820674672119 -29.48967597831637 5.7510988544428816 #
loop $-1 $-1 $283 $275 #
plane-surface $-1 0 0 9.5483149757206576 0 0 1 1 0 0 forward_v I I I I #
coedge $-1 $413 $278 $280 $417 reversed $171 $-1 #
coedge $-1 $278 $412 $511 $512 reversed $171 $-1 #
coedge $-1 $286 $281 $278 $415 forward $276 $-1 #
edge $-1 $418 -34.955618793506893 $513 -27.361186550951352 $414 $514 forward 7 unknown #
coedge $-1 $280 $279 $421 $515 reversed $107 $-1 #
edge $-1 $516 -10.219316474482243 $418 0 $412 $517 forward 7 unknown #
vertex $-1 $282 $518 #
straight-curve $-1 10.538449271272665 -32.908704645893508 1.9538827331651174 1 0 0 I I #
coedge $-1 $511 $283 $286 $425 forward $410 $-1 #
coedge $-1 $283 $511 $416 $515 forward $410 $-1 #
vertex $-1 $284 $519 #
straight-curve $-1 15.888122390614866 -56.361504319822188 9.5483149757206576 0 -1 0 I I #
straight-curve $-1 15.888122390614866 -32.908704645893508 1.9538827331651163 0 0.66913059716165679 0.74314483375859142 I I #
edge $-1 $287 15.888122390614866 $513 26.265674694475791 $286 $520 forward 7 unknown #
point $-1 15.888122390614866 -32.908704645893508 9.5483149757206576 #
point $-1 15.888122390614866 -32.908704645893508 1.9538827331651163 #
edge $-1 $521 1 $521 0 $290 $-1 forward 7 unknown #
vertex $-1 $291 $522 #
ellipse-curve $-1 21.076898542545329 -23.056530131650248 -0.041331539288521402 0 -0.74314483375859142 0.66913059716165679 2.5 0 0 1 I I #
point $-1 23.576898542545329 -29.48967597831637 5.7510988544428816 #
loop $-1 $-1 $302 $294 #
plane-surface $-1 0 0 9.5483149757206576 0 0 1 1 0 0 forward_v I I I I #
coedge $-1 $435 $297 $299 $439 reversed $186 $-1 #
coedge $-1 $297 $434 $523 $524 reversed $186 $-1 #
coedge $-1 $305 $300 $297 $437 forward $295 $-1 #
edge $-1 $440 -34.955618793506893 $525 -27.361186550951352 $436 $526 forward 7 unknown #
coedge $-1 $299 $298 $443 $527 reversed $116 $-1 #
edge $-1 $528 -10.219316474482243 $440 0 $434 $529 forward 7 unknown #
vertex $-1 $301 $530 #
straight-curve $-1 22.653789576278935 -32.908704645893508 1.9538827331651174 1 0 0 I I #
coedge $-1 $523 $302 $305 $447 forward $432 $-1 #
coedge $-1 $302 $523 $438 $527 forward $432 $-1 #
vertex $-1 $303 $531 #
straight-curve $-1 40.118803000627409 -56.361504319822188 9.5483149757206576 0 -1 0 I I #
straight-curve $-1 40.118803000627409 -32.908704645893508 1.9538827331651163 0 0.66913059716165679 0.74314483375859142 I I #
edge $-1 $306 40.118803000627409 $525 50.496355304488333 $305 $532 forward 7 unknown #
point $-1 40.118803000627409 -32.908704645893508 9.5483149757206576 #
point $-1 40.118803000627409 -32.908704645893508 1.9538827331651163 #
edge $-1 $533 1 $533 0 $309 $-1 forward 7 unknown #
vertex $-1 $310 $534 #
ellipse-curve $-1 45.307579152557871 -23.056530131650248 -0.041331539288521402 0 -0.74314483375859142 0.66913059716165679 2.5 0 0 1 I I #
point $-1 47.807579152557871 -29.48967597831637 5.7510988544428816 #
plane-surface $-1 53.700369273964661 0 0 -1 0 0 0 0 1 forward_v I I I I #
coedge $-1 $318 $316 $320 $459 reversed $201 $-1 #
edge $-1 $331 -9.5483149757206576 $461 9.5483149757206576 $330 $535 forward 7 unknown #
vertex $-1 $459 $536 #
straight-curve $-1 -53.700369273964661 -32.908704645893508 0 0 0 -1 I I #
edge $-1 $457 -32.908704645893508 $461 32.908704645893508 $455 $537 forward 7 unknown #
straight-curve $-1 0 -32.908704645893508 -9.5483149757206576 -1 0 0 I I #
vertex $-1 $323 $538 #
straight-curve $-1 0 32.908704645893508 -9.5483149757206576 1 0 0 I I #
point $-1 53.700369273964661 32.908704645893508 -9.5483149757206576 #
point $-1 53.700369273964661 -32.908704645893508 -9.5483149757206576 #
straight-curve $-1 -53.700369273964661 0 9.5483149757206576 0 -1 0 I I #
point $-1 -53.700369273964661 32.908704645893508 9.5483149757206576 #
point $-1 -53.700369273964661 -32.908704645893508 9.5483149757206576 #
straight-curve $-1 53.700369273964661 -32.908704645893508 0 0 0 -1 I I #
straight-curve $-1 53.700369273964661 32.908704645893508 0 0 0 -1 I I #
plane-surface $-1 0 32.908704645893508 0 0 -1 0 0 0 -1 forward_v I I I I #
coedge $-1 $481 $480 $346 $473 forward $341 $-1 #
straight-curve $-1 -43.222353166085497 -32.908704645893508 0.12672984958784195 0 0 1 I I #
edge $-1 $476 -32.908704645893508 $474 32.908704645893508 $471 $539 forward 7 unknown #
vertex $-1 $347 $540 #
straight-curve $-1 -24.230680610012541 -32.908704645893508 -2.2981291073034806 1 0 0 I I #
vertex $-1 $349 $541 #
straight-curve $-1 -24.230680610012541 32.908704645893508 -2.2981291073034806 -1 0 0 I I #
point $-1 -43.222353166085497 32.908704645893508 -2.2981291073034806 #
point $-1 -43.222353166085497 -32.908704645893508 -2.2981291073034806 #
coedge $-1 $471 $353 $356 $483 forward $341 $-1 #
coedge $-1 $353 $471 $360 $485 reversed $341 $-1 #
straight-curve $-1 -53.700369273964661 0 2.8050485056548484 0 1 0 I I #
edge $-1 $358 -2.8050485056548484 $476 2.2981291073034806 $356 $542 forward 7 unknown #
point $-1 -53.700369273964668 32.908704645893508 2.8050485056548484 #
edge $-1 $361 -2.8050485056548484 $474 2.2981291073034806 $481 $543 forward 7 unknown #
point $-1 -53.700369273964668 -32.908704645893508 2.8050485056548484 #
straight-curve $-1 -43.222353166085497 32.908704645893508 0.12672984958784195 0 0 -1 I I #
edge $-1 $489 23.452799673928681 $492 30.290857009082941 $367 $544 forward 7 unknown #
vertex $-1 $488 $545 #
straight-curve $-1 -22.195686525549291 -32.908704645893508 36.90950152667201 0 0 1 I I #
edge $-1 $492 8.5034551868094148 $378 18.881007490670338 $377 $546 forward 7 unknown #
vertex $-1 $491 $547 #
straight-curve $-1 -22.195686525549291 -32.908704645893508 1.9538827331651163 0 -0.66913059716165679 -0.74314483375859142 I I #
point $-1 -22.195686525549291 -32.908704645893508 1.9538827331651163 #
point $-1 -32.573238829410215 -26.070647310739247 9.5483149757206576 #
straight-curve $-1 0 -32.908704645893508 9.5483149757206576 1 0 0 I I #
vertex $-1 $384 $548 #
point $-1 -24.884462677479753 -23.056530131650248 -0.041331539288521402 #
coedge $-1 $399 $398 $391 $500 forward $388 $-1 #
edge $-1 $501 23.452799673928681 $504 30.290857009082941 $499 $549 forward 7 unknown #
vertex $-1 $500 $550 #
straight-curve $-1 2.0349940844632517 -32.908704645893508 36.90950152667201 0 0 1 I I #
edge $-1 $504 -3.6118851181968576 $400 6.7656671856640695 $399 $551 forward 7 unknown #
vertex $-1 $503 $552 #
straight-curve $-1 2.0349940844632517 -32.908704645893508 1.9538827331651163 0 -0.66913059716165679 -0.74314483375859142 I I #
point $-1 2.0349940844632517 -32.908704645893508 1.9538827331651163 #
point $-1 -8.3425582193976755 -26.070647310739247 9.5483149757206576 #
straight-curve $-1 0 -32.908704645893508 9.5483149757206576 1 0 0 I I #
vertex $-1 $406 $553 #
point $-1 -0.6537820674672119 -23.056530131650248 -0.041331539288521402 #
coedge $-1 $421 $420 $413 $512 forward $410 $-1 #
edge $-1 $513 23.452799673928681 $516 30.290857009082941 $511 $554 forward 7 unknown #
vertex $-1 $512 $555 #
straight-curve $-1 26.265674694475791 -32.908704645893508 36.90950152667201 0 0 1 I I #
edge $-1 $516 -15.727225423203127 $422 -5.3496731193422011 $421 $556 forward 7 unknown #
vertex $-1 $515 $557 #
straight-curve $-1 26.265674694475791 -32.908704645893508 1.9538827331651163 0 -0.66913059716165679 -0.74314483375859142 I I #
point $-1 26.265674694475791 -32.908704645893508 1.9538827331651163 #
point $-1 15.888122390614866 -26.070647310739247 9.5483149757206576 #
straight-curve $-1 0 -32.908704645893508 9.5483149757206576 1 0 0 I I #
vertex $-1 $428 $558 #
point $-1 23.576898542545329 -23.056530131650248 -0.041331539288521402 #
coedge $-1 $443 $442 $435 $524 forward $432 $-1 #
edge $-1 $525 23.452799673928681 $528 30.290857009082941 $523 $559 forward 7 unknown #
vertex $-1 $524 $560 #
straight-curve $-1 50.496355304488333 -32.908704645893508 36.90950152667201 0 0 1 I I #
edge $-1 $528 -27.842565728209397 $444 -17.465013424348474 $443 $561 forward 7 unknown #
vertex $-1 $527 $562 #
straight-curve $-1 50.496355304488333 -32.908704645893508 1.9538827331651163 0 -0.66913059716165679 -0.74314483375859142 I I #
point $-1 50.496355304488333 -32.908704645893508 1.9538827331651163 #
point $-1 40.118803000627409 -26.070647310739247 9.5483149757206576 #
straight-curve $-1 0 -32.908704645893508 9.5483149757206576 1 0 0 I I #
vertex $-1 $450 $563 #
point $-1 47.807579152557871 -23.056530131650248 -0.041331539288521402 #
straight-curve $-1 -53.700369273964661 32.908704645893508 0 0 0 -1 I I #
point $-1 -53.700369273964661 -32.908704645893508 -9.5483149757206576 #
straight-curve $-1 -53.700369273964661 0 -9.5483149757206576 0 1 0 I I #
point $-1 -53.700369273964661 32.908704645893508 -9.5483149757206576 #
straight-curve $-1 -53.700369273964661 0 -2.2981291073034806 0 -1 0 I I #
point $-1 -53.700369273964668 -32.908704645893508 -2.2981291073034806 #
point $-1 -53.700369273964668 32.908704645893508 -2.2981291073034806 #
straight-curve $-1 -53.700369273964661 32.908704645893508 0 0 0 -1 I I #
straight-curve $-1 -53.700369273964661 -32.908704645893508 0 0 0 -1 I I #
straight-curve $-1 -22.195686525549291 -56.361504319822188 9.5483149757206576 0 1 0 I I #
point $-1 -22.195686525549291 -32.908704645893508 9.5483149757206576 #
straight-curve $-1 -13.692231338739877 -26.070647310739247 9.5483149757206576 -1 0 0 I I #
point $-1 -22.195686525549291 -26.070647310739247 9.5483149757206576 #
point $-1 -27.384462677479753 -21.198668047253769 -1.7141580321926635 #
straight-curve $-1 2.0349940844632517 -56.361504319822188 9.5483149757206576 0 1 0 I I #
point $-1 2.0349940844632517 -32.908704645893508 9.5483149757206576 #
straight-curve $-1 -1.576891033733606 -26.070647310739247 9.5483149757206576 -1 0 0 I I #
point $-1 2.0349940844632517 -26.070647310739247 9.5483149757206576 #
point $-1 -3.1537820674672119 -21.198668047253769 -1.7141580321926635 #
straight-curve $-1 26.265674694475791 -56.361504319822188 9.5483149757206576 0 1 0 I I #
point $-1 26.265674694475791 -32.908704645893508 9.5483149757206576 #
straight-curve $-1 10.538449271272665 -26.070647310739247 9.5483149757206576 -1 0 0 I I #
point $-1 26.265674694475791 -26.070647310739247 9.5483149757206576 #
point $-1 21.076898542545329 -21.198668047253769 -1.7141580321926635 #
straight-curve $-1 50.496355304488333 -56.361504319822188 9.5483149757206576 0 1 0 I I #
point $-1 50.496355304488333 -32.908704645893508 9.5483149757206576 #
straight-curve $-1 22.653789576278935 -26.070647310739247 9.5483149757206576 -1 0 0 I I #
point $-1 50.496355304488333 -26.070647310739247 9.5483149757206576 #
point $-1 45.307579152557871 -21.198668047253769 -1.7141580321926635 #
End-of-ACIS-data 