500 0 8 0           
7 Unknown 11 ACIS 5.0 NT 24 Fri Mar 26 19:20:41 1999 
-1 9.9999999999999995e-007 1e-010 
body $-1 $8 $-1 $9 #
body $-1 $10 $-1 $11 #
body $-1 $12 $-1 $13 #
body $-1 $14 $-1 $15 #
body $-1 $16 $-1 $17 #
body $-1 $18 $-1 $19 #
body $-1 $20 $-1 $21 #
body $-1 $22 $-1 $23 #
lump $-1 $-1 $24 $0 #
transform $-1 1 0 0 0 1 0 0 0 1 45.656910916470842 19.545232117908867 5.840246823525062 1 rotate no_reflect no_shear #
lump $-1 $-1 $25 $1 #
transform $-1 1 0 0 0 1 0 0 0 1 45.656910916470842 19.545232117908867 5.840246823525062 1 rotate no_reflect no_shear #
lump $-1 $-1 $26 $2 #
transform $-1 1 0 0 0 1 0 0 0 1 45.656910916470842 19.545232117908867 5.840246823525062 1 rotate no_reflect no_shear #
lump $-1 $-1 $27 $3 #
transform $-1 1 0 0 0 1 0 0 0 1 45.656910916470842 19.545232117908867 5.840246823525062 1 rotate no_reflect no_shear #
lump $-1 $-1 $28 $4 #
transform $-1 1 0 0 0 1 0 0 0 1 45.656910916470842 19.545232117908867 5.840246823525062 1 rotate no_reflect no_shear #
lump $-1 $-1 $29 $5 #
transform $-1 1 0 0 0 1 0 0 0 1 45.656910916470842 19.545232117908867 5.840246823525062 1 rotate no_reflect no_shear #
lump $-1 $-1 $30 $6 #
transform $-1 1 0 0 0 1 0 0 0 1 45.656910916470842 19.545232117908867 5.840246823525062 1 rotate no_reflect no_shear #
lump $-1 $-1 $31 $7 #
transform $-1 1 0 0 0 1 0 0 0 1 45.656910916470842 19.545232117908867 5.840246823525062 1 rotate no_reflect no_shear #
shell $-1 $-1 $-1 $32 $-1 $8 #
shell $-1 $-1 $-1 $33 $-1 $10 #
shell $-1 $-1 $-1 $34 $-1 $12 #
shell $-1 $-1 $-1 $35 $-1 $14 #
shell $-1 $-1 $-1 $36 $-1 $16 #
shell $-1 $-1 $-1 $37 $-1 $18 #
shell $-1 $-1 $-1 $38 $-1 $20 #
shell $-1 $-1 $-1 $39 $-1 $22 #
face $-1 $40 $41 $24 $-1 $42 forward single #
face $-1 $43 $44 $25 $-1 $45 reversed single #
face $-1 $46 $47 $26 $-1 $48 forward single #
face $-1 $49 $50 $27 $-1 $51 forward single #
face $-1 $52 $53 $28 $-1 $54 reversed single #
face $-1 $55 $56 $29 $-1 $57 forward single #
face $-1 $58 $59 $30 $-1 $60 forward single #
face $-1 $61 $62 $31 $-1 $63 forward single #
face $-1 $64 $65 $24 $-1 $66 reversed single #
loop $-1 $-1 $67 $32 #
plane-surface $-1 0 0 5.840246823525062 0 0 1 1 0 0 forward_v I I I I #
face $-1 $68 $69 $25 $-1 $70 reversed single #
loop $-1 $-1 $71 $33 #
plane-surface $-1 -18.322401067757959 59.668302322634844 92.933712588965449 -1 0 0 0 0.73135370988377701 0.68199835119979291 forward_v I I I I #
face $-1 $72 $73 $26 $-1 $74 forward single #
loop $-1 $75 $76 $34 #
cone-surface $-1 -37.847050959695736 16.346561703479662 2.6115158793336697 0 -0.73135370988377701 -0.68199835119979291 1 0 0 1 I I 0 1 1 forward I I I I #
face $-1 $77 $78 $27 $-1 $79 forward single #
loop $-1 $80 $81 $35 #
cone-surface $-1 -26.132261024533069 16.346561703479662 2.6115158793336697 0 -0.73135370988377701 -0.68199835119979291 1 0 0 1 I I 0 1 1 forward I I I I #
face $-1 $82 $83 $28 $-1 $84 reversed single #
loop $-1 $-1 $85 $36 #
plane-surface $-1 -21.015527610296338 -85.230899235703248 64.262651970343583 -1 0 0 0 -0.71933980857756763 0.69465836192734942 forward_v I I I I #
face $-1 $86 $87 $29 $-1 $88 forward single #
loop $-1 $89 $90 $37 #
cone-surface $-1 -40.728634255235939 -16.208207268598727 2.4487858505686093 0 0.71933980857756763 -0.69465836192734942 1.5 0 0 1 I I 0 1 1.5 forward I I I I #
face $-1 $91 $92 $30 $-1 $93 forward single #
loop $-1 $94 $95 $38 #
cone-surface $-1 -33.336219263383583 -16.208207268598727 2.4487858505686093 0 0.71933980857756763 -0.69465836192734942 1.5 0 0 1 I I 0 1 1.5 forward I I I I #
face $-1 $96 $97 $31 $-1 $98 forward single #
loop $-1 $99 $100 $39 #
cone-surface $-1 -25.943804271531235 -16.208207268598727 2.4487858505686093 0 0.71933980857756763 -0.69465836192734942 1.5 0 0 1 I I 0 1 1.5 forward I I I I #
face $-1 $101 $102 $24 $-1 $103 reversed single #
loop $-1 $-1 $104 $40 #
plane-surface $-1 0 0 -5.840246823525062 0 0 1 1 0 0 forward_v I I I I #
coedge $-1 $105 $106 $107 $108 forward $41 $-1 #
face $-1 $109 $110 $25 $-1 $111 reversed single #
loop $-1 $-1 $112 $43 #
plane-surface $-1 -31.9896559921144 -7.1144000385532991 30.65783665714757 0 0.73135370988377701 0.68199835119979291 1 0 0 forward_v I I I I #
coedge $-1 $113 $114 $115 $116 reversed $44 $-1 #
face $-1 $-1 $117 $26 $-1 $118 forward single #
loop $-1 $119 $120 $46 #
cone-surface $-1 -37.847050959695736 14.540642332758928 0.92746886270332674 0 -0.73135370988377701 -0.68199835119979291 0.5 0 0 1 I I -0.70710678118654746 0.70710678118654746 0.5 forward I I I I #
loop $-1 $-1 $121 $34 #
coedge $-1 $76 $76 $122 $123 reversed $47 $-1 #
face $-1 $-1 $124 $27 $-1 $125 forward single #
loop $-1 $126 $127 $49 #
cone-surface $-1 -26.132261024533069 14.540642332758928 0.92746886270332674 0 -0.73135370988377701 -0.68199835119979291 0.5 0 0 1 I I -0.70710678118654746 0.70710678118654746 0.5 forward I I I I #
loop $-1 $-1 $128 $35 #
coedge $-1 $81 $81 $129 $130 reversed $50 $-1 #
face $-1 $131 $132 $28 $-1 $133 reversed single #
loop $-1 $-1 $134 $52 #
plane-surface $-1 -33.33621926338359 -19.545232117908867 0.83074207454647819 0 -0.71933980857756763 0.69465836192734942 1 0 0 forward_v I I I I #
coedge $-1 $135 $136 $137 $138 reversed $53 $-1 #
face $-1 $-1 $139 $29 $-1 $140 forward single #
loop $-1 $141 $142 $55 #
cone-surface $-1 -40.728634255235939 -14.750488757160049 1.0410834806559404 0 0.71933980857756763 -0.69465836192734942 0.75 0 0 1 I I -0.70710678118654757 0.70710678118654757 0.75 forward I I I I #
loop $-1 $-1 $143 $37 #
coedge $-1 $90 $90 $144 $145 reversed $56 $-1 #
face $-1 $-1 $146 $30 $-1 $147 forward single #
loop $-1 $148 $149 $58 #
cone-surface $-1 -33.336219263383583 -14.750488757160049 1.0410834806559404 0 0.71933980857756763 -0.69465836192734942 0.75 0 0 1 I I -0.70710678118654757 0.70710678118654757 0.75 forward I I I I #
loop $-1 $-1 $150 $38 #
coedge $-1 $95 $95 $151 $152 reversed $59 $-1 #
face $-1 $-1 $153 $31 $-1 $154 forward single #
loop $-1 $155 $156 $61 #
cone-surface $-1 -25.943804271531235 -14.750488757160049 1.0410834806559404 0 0.71933980857756763 -0.69465836192734942 0.75 0 0 1 I I -0.70710678118654757 0.70710678118654757 0.75 forward I I I I #
loop $-1 $-1 $157 $39 #
coedge $-1 $100 $100 $158 $159 reversed $62 $-1 #
face $-1 $160 $161 $24 $-1 $162 reversed single #
loop $-1 $-1 $163 $64 #
plane-surface $-1 0 -19.545232117908867 0 0 1 0 0 0 1 forward_v I I I I #
coedge $-1 $164 $165 $166 $167 forward $65 $-1 #
coedge $-1 $168 $67 $169 $170 forward $41 $-1 #
coedge $-1 $67 $168 $171 $172 forward $41 $-1 #
coedge $-1 $173 $174 $67 $108 reversed $175 $-1 #
edge $-1 $176 -19.545232117908867 $177 19.545232117908867 $107 $178 forward 7 unknown #
face $-1 $179 $180 $25 $-1 $181 forward single #
loop $-1 $-1 $115 $68 #
plane-surface $-1 0 19.545232117908867 0 0 -1 0 0 0 -1 forward_v I I I I #
coedge $-1 $182 $183 $184 $185 reversed $69 $-1 #
coedge $-1 $114 $71 $186 $187 reversed $44 $-1 #
coedge $-1 $71 $113 $182 $188 reversed $44 $-1 #
coedge $-1 $184 $189 $71 $116 forward $110 $-1 #
edge $-1 $190 40.626609470957661 $191 44.397975677279561 $115 $192 forward 7 unknown #
loop $-1 $-1 $122 $72 #
plane-surface $-1 -31.9896559921144 -7.1144000385532991 30.65783665714757 0 0.73135370988377701 0.68199835119979291 1 0 0 forward_v I I I I #
loop $-1 $-1 $193 $46 #
coedge $-1 $120 $120 $121 $194 reversed $73 $-1 #
coedge $-1 $121 $121 $120 $194 forward $75 $-1 #
coedge $-1 $122 $122 $76 $123 forward $117 $-1 #
edge $-1 $195 -9.7435887342959539e-016 $195 6.2831853071795996 $122 $196 forward 7 unknown #
loop $-1 $-1 $129 $77 #
plane-surface $-1 -31.9896559921144 -7.1144000385532991 30.65783665714757 0 0.73135370988377701 0.68199835119979291 1 0 0 forward_v I I I I #
loop $-1 $-1 $197 $49 #
coedge $-1 $127 $127 $128 $198 reversed $78 $-1 #
coedge $-1 $128 $128 $127 $198 forward $80 $-1 #
coedge $-1 $129 $129 $81 $130 forward $124 $-1 #
edge $-1 $199 -9.7435887342959539e-016 $199 6.2831853071795996 $129 $200 forward 7 unknown #
face $-1 $201 $202 $28 $-1 $203 forward single #
loop $-1 $-1 $204 $82 #
plane-surface $-1 -45.656910916470842 0 0 1 0 0 0 0 -1 forward_v I I I I #
coedge $-1 $205 $206 $207 $208 reversed $83 $-1 #
coedge $-1 $136 $85 $209 $210 reversed $53 $-1 #
coedge $-1 $85 $135 $205 $211 reversed $53 $-1 #
coedge $-1 $207 $212 $85 $138 forward $202 $-1 #
edge $-1 $213 23.070217499942757 $214 27.907839888552019 $137 $215 forward 7 unknown #
loop $-1 $-1 $144 $86 #
plane-surface $-1 -33.33621926338359 -19.545232117908867 0.83074207454647819 0 -0.71933980857756763 0.69465836192734942 1 0 0 forward_v I I I I #
loop $-1 $-1 $216 $55 #
coedge $-1 $142 $142 $143 $217 reversed $87 $-1 #
coedge $-1 $143 $143 $142 $217 forward $89 $-1 #
coedge $-1 $144 $144 $90 $145 forward $139 $-1 #
edge $-1 $218 -9.1032686796429603e-016 $218 6.2831853071795996 $144 $219 forward 7 unknown #
loop $-1 $-1 $151 $91 #
plane-surface $-1 -33.33621926338359 -19.545232117908867 0.83074207454647819 0 -0.71933980857756763 0.69465836192734942 1 0 0 forward_v I I I I #
loop $-1 $-1 $220 $58 #
coedge $-1 $149 $149 $150 $221 reversed $92 $-1 #
coedge $-1 $150 $150 $149 $221 forward $94 $-1 #
coedge $-1 $151 $151 $95 $152 forward $146 $-1 #
edge $-1 $222 -9.1032686796429603e-016 $222 6.2831853071795996 $151 $223 forward 7 unknown #
loop $-1 $-1 $158 $96 #
plane-surface $-1 -33.33621926338359 -19.545232117908867 0.83074207454647819 0 -0.71933980857756763 0.69465836192734942 1 0 0 forward_v I I I I #
loop $-1 $-1 $224 $61 #
coedge $-1 $156 $156 $157 $225 reversed $97 $-1 #
coedge $-1 $157 $157 $156 $225 forward $99 $-1 #
coedge $-1 $158 $158 $100 $159 forward $153 $-1 #
edge $-1 $226 -9.1032686796429603e-016 $226 6.2831853071795996 $158 $227 forward 7 unknown #
face $-1 $228 $229 $24 $-1 $230 reversed single #
loop $-1 $-1 $231 $101 #
plane-surface $-1 -45.656910916470842 0 0 1 0 0 0 0 -1 forward_v I I I I #
coedge $-1 $232 $171 $233 $234 forward $102 $-1 #
coedge $-1 $235 $104 $232 $236 forward $65 $-1 #
coedge $-1 $104 $235 $237 $238 forward $65 $-1 #
coedge $-1 $174 $173 $104 $167 reversed $175 $-1 #
edge $-1 $239 -19.545232117908867 $240 19.545232117908867 $166 $241 forward 7 unknown #
coedge $-1 $106 $105 $242 $243 forward $41 $-1 #
coedge $-1 $244 $245 $105 $170 reversed $229 $-1 #
edge $-1 $177 -45.656910916470842 $246 45.656910916470842 $169 $247 forward 7 unknown #
coedge $-1 $163 $248 $106 $172 reversed $102 $-1 #
edge $-1 $249 -45.656910916470842 $176 45.656910916470842 $171 $250 forward 7 unknown #
coedge $-1 $166 $107 $248 $251 forward $175 $-1 #
coedge $-1 $107 $166 $244 $252 reversed $175 $-1 #
loop $-1 $-1 $173 $228 #
vertex $-1 $108 $253 #
vertex $-1 $108 $254 #
straight-curve $-1 45.656910916470842 0 5.840246823525062 0 1 0 I I #
face $-1 $-1 $255 $25 $-1 $256 reversed single #
loop $-1 $-1 $186 $109 #
plane-surface $-1 0 0 5.840246823525062 0 0 1 1 0 0 forward_v I I I I #
coedge $-1 $257 $112 $114 $188 forward $69 $-1 #
coedge $-1 $112 $257 $258 $259 reversed $69 $-1 #
coedge $-1 $260 $115 $112 $185 forward $110 $-1 #
edge $-1 $191 2.3275730717007583 $261 29.662082920413642 $184 $262 forward 7 unknown #
coedge $-1 $263 $264 $113 $187 forward $180 $-1 #
edge $-1 $265 -13.80577484070928 $190 -10.288919043408555 $186 $266 forward 7 unknown #
edge $-1 $191 -39.090464235817734 $265 -33.933771714327378 $114 $267 forward 7 unknown #
coedge $-1 $115 $260 $263 $268 reversed $110 $-1 #
vertex $-1 $268 $269 #
vertex $-1 $116 $270 #
straight-curve $-1 -18.322401067757959 19.545232117908867 46.466856294482724 0 0 -1 I I #
coedge $-1 $193 $193 $-1 $271 reversed $119 $-1 #
edge $-1 $272 0 $272 6.2831853071796004 $120 $273 forward 7 unknown #
vertex $-1 $123 $274 #
ellipse-curve $-1 -37.847050959695736 17.786804219258507 3.9545637203641144 0 0.73135370988377701 0.68199835119979291 1 0 0 1 I I #
coedge $-1 $197 $197 $-1 $275 reversed $126 $-1 #
edge $-1 $276 0 $276 6.2831853071796004 $127 $277 forward 7 unknown #
vertex $-1 $130 $278 #
ellipse-curve $-1 -26.132261024533069 17.786804219258507 3.9545637203641144 0 0.73135370988377701 0.68199835119979291 1 0 0 1 I I #
face $-1 $-1 $279 $28 $-1 $280 reversed single #
loop $-1 $-1 $207 $131 #
plane-surface $-1 0 0 5.840246823525062 0 0 1 1 0 0 forward_v I I I I #
coedge $-1 $281 $282 $206 $283 forward $132 $-1 #
coedge $-1 $284 $134 $136 $211 forward $83 $-1 #
coedge $-1 $134 $284 $204 $283 reversed $83 $-1 #
coedge $-1 $285 $137 $134 $208 forward $202 $-1 #
edge $-1 $214 4.3474179786045433 $286 28.988801284779047 $207 $287 forward 7 unknown #
coedge $-1 $288 $289 $135 $210 forward $279 $-1 #
edge $-1 $290 -31.300583910625313 $213 -26.291079161646728 $209 $291 forward 7 unknown #
edge $-1 $214 -6.9640310312930502 $290 0 $136 $292 forward 7 unknown #
coedge $-1 $137 $285 $288 $293 forward $202 $-1 #
vertex $-1 $210 $294 #
vertex $-1 $138 $295 #
straight-curve $-1 -21.015527610296338 -42.615449617851624 5.8402468235250637 0 1 0 I I #
coedge $-1 $216 $216 $-1 $296 reversed $141 $-1 #
edge $-1 $297 0 $297 6.2831853071796004 $142 $298 forward 7 unknown #
vertex $-1 $145 $299 #
ellipse-curve $-1 -40.728634255235939 -17.126420923604236 3.335494449035771 0 -0.71933980857756763 0.69465836192734942 1.5 0 0 1 I I #
coedge $-1 $220 $220 $-1 $300 reversed $148 $-1 #
edge $-1 $301 0 $301 6.2831853071796004 $149 $302 forward 7 unknown #
vertex $-1 $152 $303 #
ellipse-curve $-1 -33.336219263383583 -17.126420923604236 3.335494449035771 0 -0.71933980857756763 0.69465836192734942 1.5 0 0 1 I I #
coedge $-1 $224 $224 $-1 $304 reversed $155 $-1 #
edge $-1 $305 0 $305 6.2831853071796004 $156 $306 forward 7 unknown #
vertex $-1 $159 $307 #
ellipse-curve $-1 -25.943804271531235 -17.126420923604236 3.335494449035771 0 -0.71933980857756763 0.69465836192734942 1.5 0 0 1 I I #
face $-1 $-1 $175 $24 $-1 $308 reversed single #
loop $-1 $-1 $244 $160 #
plane-surface $-1 0 19.545232117908867 0 0 -1 0 0 0 -1 forward_v I I I I #
coedge $-1 $309 $242 $245 $310 forward $161 $-1 #
coedge $-1 $248 $163 $164 $236 reversed $102 $-1 #
coedge $-1 $242 $309 $163 $234 reversed $161 $-1 #
edge $-1 $249 -5.840246823525062 $311 5.840246823525062 $233 $312 forward 7 unknown #
coedge $-1 $165 $164 $309 $313 forward $65 $-1 #
edge $-1 $240 -45.656910916470842 $311 45.656910916470842 $232 $314 forward 7 unknown #
coedge $-1 $245 $244 $165 $238 reversed $229 $-1 #
edge $-1 $315 -45.656910916470842 $239 45.656910916470842 $237 $316 forward 7 unknown #
vertex $-1 $167 $317 #
vertex $-1 $251 $318 #
straight-curve $-1 45.656910916470842 0 -5.840246823525062 0 -1 0 I I #
coedge $-1 $231 $233 $168 $243 reversed $161 $-1 #
edge $-1 $246 -19.545232117908867 $249 19.545232117908867 $242 $319 forward 7 unknown #
coedge $-1 $237 $169 $174 $252 forward $229 $-1 #
coedge $-1 $169 $237 $231 $310 reversed $229 $-1 #
vertex $-1 $170 $320 #
straight-curve $-1 0 19.545232117908867 5.840246823525062 -1 0 0 I I #
coedge $-1 $171 $232 $173 $251 reversed $102 $-1 #
vertex $-1 $243 $321 #
straight-curve $-1 0 -19.545232117908867 5.840246823525062 1 0 0 I I #
edge $-1 $176 -5.840246823525062 $240 5.840246823525062 $173 $322 forward 7 unknown #
edge $-1 $177 -5.840246823525062 $239 5.840246823525062 $174 $323 forward 7 unknown #
point $-1 45.656910916470842 -19.545232117908867 5.840246823525062 #
point $-1 45.656910916470842 19.545232117908867 5.840246823525062 #
loop $-1 $-1 $258 $179 #
plane-surface $-1 -45.656910916470842 0 0 1 0 0 0 0 -1 forward_v I I I I #
coedge $-1 $183 $182 $264 $324 reversed $69 $-1 #
coedge $-1 $325 $326 $183 $259 forward $255 $-1 #
edge $-1 $261 -25.453598399675315 $327 -20.296905878184965 $258 $328 forward 7 unknown #
coedge $-1 $189 $184 $326 $329 reversed $110 $-1 #
vertex $-1 $185 $330 #
straight-curve $-1 -15.9948279960572 19.545232117908867 2.0688806172031668 -1 0 0 I I #
coedge $-1 $331 $186 $189 $268 forward $180 $-1 #
coedge $-1 $186 $331 $257 $324 forward $180 $-1 #
vertex $-1 $187 $332 #
straight-curve $-1 -18.322401067757959 29.834151161317422 5.8402468235250637 0 1 0 I I #
straight-curve $-1 -18.322401067757959 -7.1144000385532991 30.65783665714757 0 -0.68199835119979291 0.73135370988377701 I I #
edge $-1 $190 18.322401067757959 $333 45.656910916470842 $189 $334 forward 7 unknown #
point $-1 -18.322401067757959 19.545232117908867 5.840246823525062 #
point $-1 -18.322401067757959 19.545232117908867 2.0688806172031668 #
edge $-1 $335 1 $335 0 $193 $-1 forward 7 unknown #
vertex $-1 $194 $336 #
ellipse-curve $-1 -37.847050959695736 14.906319187700817 1.2684680383032232 0 0.73135370988377701 0.68199835119979291 1 0 0 1 I I #
point $-1 -36.847050959695736 17.786804219258507 3.9545637203641157 #
edge $-1 $337 1 $337 0 $197 $-1 forward 7 unknown #
vertex $-1 $198 $338 #
ellipse-curve $-1 -26.132261024533069 14.906319187700817 1.2684680383032232 0 0.73135370988377701 0.68199835119979291 1 0 0 1 I I #
point $-1 -25.132261024533069 17.786804219258507 3.9545637203641157 #
loop $-1 $-1 $209 $201 #
plane-surface $-1 0 -19.545232117908867 0 0 1 0 0 0 1 forward_v I I I I #
coedge $-1 $282 $204 $339 $340 reversed $132 $-1 #
coedge $-1 $204 $281 $285 $341 reversed $132 $-1 #
edge $-1 $286 -0.47419449047565276 $342 6.4898365408173975 $204 $343 forward 7 unknown #
coedge $-1 $206 $205 $289 $344 reversed $83 $-1 #
coedge $-1 $212 $207 $282 $341 forward $202 $-1 #
vertex $-1 $341 $345 #
straight-curve $-1 -16.668109631691795 -14.707609729299607 5.840246823525062 -1 0 0 I I #
coedge $-1 $339 $209 $212 $293 reversed $279 $-1 #
coedge $-1 $209 $339 $284 $344 forward $279 $-1 #
vertex $-1 $210 $346 #
straight-curve $-1 -21.015527610296338 -19.545232117908867 32.131325985171792 0 0 1 I I #
straight-curve $-1 -21.015527610296338 -19.545232117908867 0.83074207454647819 0 -0.69465836192734942 -0.71933980857756763 I I #
edge $-1 $347 -45.656910916470842 $213 -21.015527610296338 $288 $348 forward 7 unknown #
point $-1 -21.015527610296338 -19.545232117908867 5.840246823525062 #
point $-1 -21.015527610296338 -14.707609729299607 5.840246823525062 #
edge $-1 $349 1 $349 0 $216 $-1 forward 7 unknown #
vertex $-1 $217 $350 #
ellipse-curve $-1 -40.728634255235939 -15.289993613593225 1.5620772521014525 0 -0.71933980857756763 0.69465836192734942 1.5 0 0 1 I I #
point $-1 -39.228634255235939 -17.126420923604233 3.3354944490357656 #
edge $-1 $351 1 $351 0 $220 $-1 forward 7 unknown #
vertex $-1 $221 $352 #
ellipse-curve $-1 -33.336219263383583 -15.289993613593225 1.5620772521014525 0 -0.71933980857756763 0.69465836192734942 1.5 0 0 1 I I #
point $-1 -31.836219263383583 -17.126420923604233 3.3354944490357656 #
edge $-1 $353 1 $353 0 $224 $-1 forward 7 unknown #
vertex $-1 $225 $354 #
ellipse-curve $-1 -25.943804271531235 -15.289993613593225 1.5620772521014525 0 -0.71933980857756763 0.69465836192734942 1.5 0 0 1 I I #
point $-1 -24.443804271531235 -17.126420923604233 3.3354944490357656 #
plane-surface $-1 45.656910916470842 0 0 -1 0 0 0 0 1 forward_v I I I I #
coedge $-1 $233 $231 $235 $313 reversed $161 $-1 #
edge $-1 $246 -5.840246823525062 $315 5.840246823525062 $245 $355 forward 7 unknown #
vertex $-1 $313 $356 #
straight-curve $-1 -45.656910916470842 -19.545232117908867 0 0 0 -1 I I #
edge $-1 $311 -19.545232117908867 $315 19.545232117908867 $309 $357 forward 7 unknown #
straight-curve $-1 0 -19.545232117908867 -5.840246823525062 -1 0 0 I I #
vertex $-1 $238 $358 #
straight-curve $-1 0 19.545232117908867 -5.840246823525062 1 0 0 I I #
point $-1 45.656910916470842 19.545232117908867 -5.840246823525062 #
point $-1 45.656910916470842 -19.545232117908867 -5.840246823525062 #
straight-curve $-1 -45.656910916470842 0 5.840246823525062 0 -1 0 I I #
point $-1 -45.656910916470842 19.545232117908867 5.840246823525062 #
point $-1 -45.656910916470842 -19.545232117908867 5.840246823525062 #
straight-curve $-1 45.656910916470842 -19.545232117908867 0 0 0 -1 I I #
straight-curve $-1 45.656910916470842 19.545232117908867 0 0 0 -1 I I #
edge $-1 $327 -29.662082920413642 $265 -2.3275730717007583 $264 $359 forward 7 unknown #
coedge $-1 $326 $258 $331 $360 reversed $255 $-1 #
coedge $-1 $258 $325 $260 $329 forward $255 $-1 #
vertex $-1 $259 $361 #
straight-curve $-1 -45.656910916470842 2.1859199772286102 20.684464236697483 0 -0.68199835119979291 0.73135370988377701 I I #
edge $-1 $333 -5.840246823525062 $261 -2.0688806172031691 $260 $362 forward 7 unknown #
point $-1 -45.656910916470842 19.545232117908867 2.0688806172031691 #
coedge $-1 $264 $263 $325 $360 forward $180 $-1 #
point $-1 -18.322401067757959 16.028376320608142 5.8402468235250673 #
vertex $-1 $268 $363 #
straight-curve $-1 0 19.545232117908867 5.840246823525062 -1 0 0 I I #
vertex $-1 $271 $364 #
point $-1 -36.847050959695736 14.906319187700817 1.2684680383032232 #
vertex $-1 $275 $365 #
point $-1 -25.132261024533069 14.906319187700817 1.2684680383032232 #
coedge $-1 $289 $288 $281 $340 forward $279 $-1 #
edge $-1 $347 -5.840246823525062 $342 -0.83074207454647819 $281 $366 forward 7 unknown #
edge $-1 $286 14.707609729299607 $347 19.545232117908867 $282 $367 forward 7 unknown #
vertex $-1 $283 $368 #
straight-curve $-1 -45.656910916470842 -15.037012897288399 5.4991398495177695 0 -0.69465836192734942 -0.71933980857756763 I I #
edge $-1 $342 -28.988801284779047 $290 -4.3474179786045433 $289 $369 forward 7 unknown #
point $-1 -45.656910916470842 -14.707609729299607 5.840246823525062 #
point $-1 -21.015527610296338 -19.545232117908867 0.83074207454647819 #
vertex $-1 $341 $370 #
straight-curve $-1 0 -19.545232117908867 5.840246823525062 1 0 0 I I #
vertex $-1 $296 $371 #
point $-1 -39.228634255235939 -15.289993613593225 1.5620772521014525 #
vertex $-1 $300 $372 #
point $-1 -31.836219263383583 -15.289993613593225 1.5620772521014525 #
vertex $-1 $304 $373 #
point $-1 -24.443804271531235 -15.289993613593225 1.5620772521014525 #
straight-curve $-1 -45.656910916470842 19.545232117908867 0 0 0 -1 I I #
point $-1 -45.656910916470842 -19.545232117908867 -5.840246823525062 #
straight-curve $-1 -45.656910916470842 0 -5.840246823525062 0 1 0 I I #
point $-1 -45.656910916470842 19.545232117908867 -5.840246823525062 #
straight-curve $-1 -15.9948279960572 16.028376320608146 5.8402468235250602 1 0 0 I I #
edge $-1 $333 -19.545232117908867 $327 -16.028376320608142 $325 $374 forward 7 unknown #
point $-1 -45.656910916470842 16.028376320608142 5.8402468235250673 #
straight-curve $-1 -45.656910916470842 19.545232117908867 0 0 0 -1 I I #
point $-1 -45.656910916470842 19.545232117908867 5.840246823525062 #
point $-1 -37.847050959695736 14.17496547781704 0.58646968710343028 #
point $-1 -26.132261024533069 14.17496547781704 0.58646968710343028 #
straight-curve $-1 -45.656910916470842 -19.545232117908867 0 0 0 -1 I I #
straight-curve $-1 -45.656910916470842 0 5.840246823525062 0 -1 0 I I #
point $-1 -45.656910916470842 -19.545232117908867 0.83074207454647819 #
straight-curve $-1 -16.668109631691795 -19.545232117908867 0.83074207454647953 1 0 0 I I #
point $-1 -45.656910916470842 -19.545232117908867 5.840246823525062 #
point $-1 -40.728634255235939 -14.210983900726873 0.5200897092104283 #
point $-1 -33.336219263383583 -14.210983900726873 0.5200897092104283 #
point $-1 -25.943804271531235 -14.210983900726873 0.5200897092104283 #
straight-curve $-1 -45.656910916470842 0 5.840246823525062 0 -1 0 I I #
End-of-ACIS-data 