500 0 17 0           
7 Unknown 11 ACIS 5.0 NT 24 Fri Mar 26 00:51:28 1999 
-1 9.9999999999999995e-007 1e-010 
body $-1 $17 $-1 $18 #
body $-1 $19 $-1 $20 #
body $-1 $21 $-1 $22 #
body $-1 $23 $-1 $24 #
body $-1 $25 $-1 $26 #
body $-1 $27 $-1 $28 #
body $-1 $29 $-1 $30 #
body $-1 $31 $-1 $32 #
body $-1 $33 $-1 $34 #
body $-1 $35 $-1 $36 #
body $-1 $37 $-1 $38 #
body $-1 $39 $-1 $40 #
body $-1 $41 $-1 $42 #
body $-1 $43 $-1 $44 #
body $-1 $45 $-1 $46 #
body $-1 $47 $-1 $48 #
body $-1 $49 $-1 $50 #
lump $-1 $-1 $51 $0 #
transform $-1 1 0 0 0 1 0 0 0 1 68.750877407147442 32.911752309359237 6.6423141940679216 1 rotate no_reflect no_shear #
lump $-1 $-1 $52 $1 #
transform $-1 1 0 0 0 1 0 0 0 1 68.750877407147442 32.911752309359237 6.6423141940679216 1 rotate no_reflect no_shear #
lump $-1 $-1 $53 $2 #
transform $-1 1 0 0 0 1 0 0 0 1 68.750877407147442 32.911752309359237 6.6423141940679216 1 rotate no_reflect no_shear #
lump $-1 $-1 $54 $3 #
transform $-1 1 0 0 0 1 0 0 0 1 68.750877407147442 32.911752309359237 6.6423141940679216 1 rotate no_reflect no_shear #
lump $-1 $-1 $55 $4 #
transform $-1 1 0 0 0 1 0 0 0 1 68.750877407147442 32.911752309359237 6.6423141940679216 1 rotate no_reflect no_shear #
lump $-1 $-1 $56 $5 #
transform $-1 1 0 0 0 1 0 0 0 1 68.750877407147442 32.911752309359237 6.6423141940679216 1 rotate no_reflect no_shear #
lump $-1 $-1 $57 $6 #
transform $-1 1 0 0 0 1 0 0 0 1 68.750877407147442 32.911752309359237 6.6423141940679216 1 rotate no_reflect no_shear #
lump $-1 $-1 $58 $7 #
transform $-1 1 0 0 0 1 0 0 0 1 68.750877407147442 32.911752309359237 6.6423141940679216 1 rotate no_reflect no_shear #
lump $-1 $-1 $59 $8 #
transform $-1 1 0 0 0 1 0 0 0 1 68.750877407147442 32.911752309359237 6.6423141940679216 1 rotate no_reflect no_shear #
lump $-1 $-1 $60 $9 #
transform $-1 1 0 0 0 1 0 0 0 1 68.750877407147442 32.911752309359237 6.6423141940679216 1 rotate no_reflect no_shear #
lump $-1 $-1 $61 $10 #
transform $-1 1 0 0 0 1 0 0 0 1 68.750877407147442 32.911752309359237 6.6423141940679216 1 rotate no_reflect no_shear #
lump $-1 $-1 $62 $11 #
transform $-1 1 0 0 0 1 0 0 0 1 68.750877407147442 32.911752309359237 6.6423141940679216 1 rotate no_reflect no_shear #
lump $-1 $-1 $63 $12 #
transform $-1 1 0 0 0 1 0 0 0 1 68.750877407147442 32.911752309359237 6.6423141940679216 1 rotate no_reflect no_shear #
lump $-1 $-1 $64 $13 #
transform $-1 1 0 0 0 1 0 0 0 1 68.750877407147442 32.911752309359237 6.6423141940679216 1 rotate no_reflect no_shear #
lump $-1 $-1 $65 $14 #
transform $-1 1 0 0 0 1 0 0 0 1 68.750877407147442 32.911752309359237 6.6423141940679216 1 rotate no_reflect no_shear #
lump $-1 $-1 $66 $15 #
transform $-1 1 0 0 0 1 0 0 0 1 68.750877407147442 32.911752309359237 6.6423141940679216 1 rotate no_reflect no_shear #
lump $-1 $-1 $67 $16 #
transform $-1 1 0 0 0 1 0 0 0 1 68.750877407147442 32.911752309359237 6.6423141940679216 1 rotate no_reflect no_shear #
shell $-1 $-1 $-1 $68 $-1 $17 #
shell $-1 $-1 $-1 $69 $-1 $19 #
shell $-1 $-1 $-1 $70 $-1 $21 #
shell $-1 $-1 $-1 $71 $-1 $23 #
shell $-1 $-1 $-1 $72 $-1 $25 #
shell $-1 $-1 $-1 $73 $-1 $27 #
shell $-1 $-1 $-1 $74 $-1 $29 #
shell $-1 $-1 $-1 $75 $-1 $31 #
shell $-1 $-1 $-1 $76 $-1 $33 #
shell $-1 $-1 $-1 $77 $-1 $35 #
shell $-1 $-1 $-1 $78 $-1 $37 #
shell $-1 $-1 $-1 $79 $-1 $39 #
shell $-1 $-1 $-1 $80 $-1 $41 #
shell $-1 $-1 $-1 $81 $-1 $43 #
shell $-1 $-1 $-1 $82 $-1 $45 #
shell $-1 $-1 $-1 $83 $-1 $47 #
shell $-1 $-1 $-1 $84 $-1 $49 #
face $-1 $85 $86 $51 $-1 $87 forward single #
face $-1 $88 $89 $52 $-1 $90 forward single #
face $-1 $91 $92 $53 $-1 $93 reversed single #
face $-1 $94 $95 $54 $-1 $96 forward single #
face $-1 $97 $98 $55 $-1 $99 forward single #
face $-1 $100 $101 $56 $-1 $102 reversed single #
face $-1 $103 $104 $57 $-1 $105 forward single #
face $-1 $106 $107 $58 $-1 $108 forward single #
face $-1 $109 $110 $59 $-1 $111 reversed single #
face $-1 $112 $113 $60 $-1 $114 forward single #
face $-1 $115 $116 $61 $-1 $117 forward single #
face $-1 $118 $119 $62 $-1 $120 reversed single #
face $-1 $121 $122 $63 $-1 $123 forward single #
face $-1 $124 $125 $64 $-1 $126 forward single #
face $-1 $127 $128 $65 $-1 $129 reversed single #
face $-1 $130 $131 $66 $-1 $132 forward single #
face $-1 $133 $134 $67 $-1 $135 forward single #
face $-1 $136 $137 $51 $-1 $138 reversed single #
loop $-1 $-1 $139 $68 #
plane-surface $-1 0 0 6.6423141940679216 0 0 1 1 0 0 forward_v I I I I #
face $-1 $140 $141 $52 $-1 $142 reversed single #
loop $-1 $-1 $143 $69 #
plane-surface $-1 -65.339342510489374 0 0.43079663673254398 0 0 1 1 0 0 forward_v I I I I #
face $-1 $144 $145 $53 $-1 $146 reversed single #
loop $-1 $-1 $147 $70 #
plane-surface $-1 -61.927807613831298 44.657803726235691 153.1970511492915 1 0 0 0 -0.50000000669873634 -0.8660253999169214 forward_v I I I I #
face $-1 $148 $149 $54 $-1 $150 forward single #
loop $-1 $151 $152 $71 #
cone-surface $-1 -56.991371276033817 26.838627301546595 1.5603810137510301 0 -0.50000000669873634 -0.8660253999169214 1.5 0 0 1 I I 0 1 1.5 forward I I I I #
face $-1 $153 $154 $55 $-1 $155 forward single #
loop $-1 $156 $157 $72 #
cone-surface $-1 -49.586716769337599 26.838627301546595 1.5603810137510301 0 -0.50000000669873634 -0.8660253999169214 1.5 0 0 1 I I 0 1 1.5 forward I I I I #
face $-1 $158 $159 $56 $-1 $160 reversed single #
loop $-1 $-1 $161 $73 #
plane-surface $-1 -29.258136358586611 44.657803726235691 153.1970511492915 1 0 0 0 -0.50000000669873634 -0.8660253999169214 forward_v I I I I #
face $-1 $162 $163 $57 $-1 $164 forward single #
loop $-1 $165 $166 $74 #
cone-surface $-1 -24.32170002078913 26.838627301546595 1.5603810137510301 0 -0.50000000669873634 -0.8660253999169214 1.5 0 0 1 I I 0 1 1.5 forward I I I I #
face $-1 $167 $168 $58 $-1 $169 forward single #
loop $-1 $170 $171 $75 #
cone-surface $-1 -16.917045514092912 26.838627301546595 1.5603810137510301 0 -0.50000000669873634 -0.8660253999169214 1.5 0 0 1 I I 0 1 1.5 forward I I I I #
face $-1 $172 $173 $59 $-1 $174 reversed single #
loop $-1 $-1 $175 $76 #
plane-surface $-1 3.4115348966580825 44.657803726235691 153.1970511492915 1 0 0 0 -0.50000000669873634 -0.8660253999169214 forward_v I I I I #
face $-1 $176 $177 $60 $-1 $178 forward single #
loop $-1 $179 $180 $77 #
cone-surface $-1 8.3479712344555566 26.838627301546595 1.5603810137510301 0 -0.50000000669873634 -0.8660253999169214 1.5 0 0 1 I I 0 1 1.5 forward I I I I #
face $-1 $181 $182 $61 $-1 $183 forward single #
loop $-1 $184 $185 $78 #
cone-surface $-1 15.752625741151775 26.838627301546595 1.5603810137510301 0 -0.50000000669873634 -0.8660253999169214 1.5 0 0 1 I I 0 1 1.5 forward I I I I #
face $-1 $186 $187 $62 $-1 $188 reversed single #
loop $-1 $-1 $189 $79 #
plane-surface $-1 36.081206151902762 44.657803726235691 153.1970511492915 1 0 0 0 -0.50000000669873634 -0.8660253999169214 forward_v I I I I #
face $-1 $190 $191 $63 $-1 $192 forward single #
loop $-1 $193 $194 $80 #
cone-surface $-1 41.017642489700251 26.838627301546595 1.5603810137510301 0 -0.50000000669873634 -0.8660253999169214 1.5 0 0 1 I I 0 1 1.5 forward I I I I #
face $-1 $195 $196 $64 $-1 $197 forward single #
loop $-1 $198 $199 $81 #
cone-surface $-1 48.422296996396454 26.838627301546595 1.5603810137510301 0 -0.50000000669873634 -0.8660253999169214 1.5 0 0 1 I I 0 1 1.5 forward I I I I #
face $-1 $200 $201 $65 $-1 $202 reversed single #
loop $-1 $-1 $203 $82 #
plane-surface $-1 -46.146423157014532 -105.77658201342379 119.39227521941146 -1 0 0 0 -0.52991927123019833 0.84804809178421925 forward_v I I I I #
face $-1 $204 $205 $66 $-1 $206 forward single #
loop $-1 $207 $208 $83 #
cone-surface $-1 -57.41884062616937 -28.909385977125279 3.2486033767436959 0 0.52991927123019833 -0.84804809178421925 1 0 0 1 I I 0 1 1 forward I I I I #
face $-1 $209 $210 $67 $-1 $211 forward single #
loop $-1 $212 $213 $84 #
cone-surface $-1 -50.655390144676467 -28.909385977125279 3.2486033767436959 0 0.52991927123019833 -0.84804809178421925 1 0 0 1 I I 0 1 1 forward I I I I #
face $-1 $214 $215 $51 $-1 $216 reversed single #
loop $-1 $-1 $217 $85 #
plane-surface $-1 0 0 -6.6423141940679216 0 0 1 1 0 0 forward_v I I I I #
coedge $-1 $218 $219 $220 $221 forward $86 $-1 #
face $-1 $222 $223 $52 $-1 $224 reversed single #
loop $-1 $-1 $225 $88 #
plane-surface $-1 -65.339342510489374 0 -2.569203363267456 0 0 1 1 0 0 forward_v I I I I #
coedge $-1 $226 $227 $228 $229 forward $89 $-1 #
face $-1 $230 $231 $53 $-1 $232 reversed single #
loop $-1 $-1 $233 $91 #
plane-surface $-1 -53.289044022685708 -24.093074601999753 34.117038946963291 0 0.50000000669873634 0.8660253999169214 1 0 0 forward_v I I I I #
coedge $-1 $234 $235 $236 $237 reversed $92 $-1 #
face $-1 $-1 $238 $54 $-1 $239 forward single #
loop $-1 $240 $241 $94 #
cone-surface $-1 -56.991371276033817 25.099106571432735 -1.4525572178044754 0 -0.50000000669873634 -0.8660253999169214 0.75 0 0 1 I I -0.70710678118654757 0.70710678118654757 0.75 forward I I I I #
loop $-1 $-1 $242 $71 #
coedge $-1 $152 $152 $243 $244 reversed $95 $-1 #
face $-1 $-1 $245 $55 $-1 $246 forward single #
loop $-1 $247 $248 $97 #
cone-surface $-1 -49.586716769337599 25.099106571432735 -1.4525572178044754 0 -0.50000000669873634 -0.8660253999169214 0.75 0 0 1 I I -0.70710678118654757 0.70710678118654757 0.75 forward I I I I #
loop $-1 $-1 $249 $72 #
coedge $-1 $157 $157 $250 $251 reversed $98 $-1 #
face $-1 $252 $253 $56 $-1 $254 reversed single #
loop $-1 $-1 $255 $100 #
plane-surface $-1 -20.619372767441021 -24.093074601999753 34.117038946963291 0 0.50000000669873634 0.8660253999169214 1 0 0 forward_v I I I I #
coedge $-1 $256 $257 $258 $259 reversed $101 $-1 #
face $-1 $-1 $260 $57 $-1 $261 forward single #
loop $-1 $262 $263 $103 #
cone-surface $-1 -24.32170002078913 25.099106571432735 -1.4525572178044754 0 -0.50000000669873634 -0.8660253999169214 0.75 0 0 1 I I -0.70710678118654757 0.70710678118654757 0.75 forward I I I I #
loop $-1 $-1 $264 $74 #
coedge $-1 $166 $166 $265 $266 reversed $104 $-1 #
face $-1 $-1 $267 $58 $-1 $268 forward single #
loop $-1 $269 $270 $106 #
cone-surface $-1 -16.917045514092912 25.099106571432735 -1.4525572178044754 0 -0.50000000669873634 -0.8660253999169214 0.75 0 0 1 I I -0.70710678118654757 0.70710678118654757 0.75 forward I I I I #
loop $-1 $-1 $271 $75 #
coedge $-1 $171 $171 $272 $273 reversed $107 $-1 #
face $-1 $274 $275 $59 $-1 $276 reversed single #
loop $-1 $-1 $277 $109 #
plane-surface $-1 12.050298487803673 -24.093074601999753 34.117038946963291 0 0.50000000669873634 0.8660253999169214 1 0 0 forward_v I I I I #
coedge $-1 $278 $279 $280 $281 reversed $110 $-1 #
face $-1 $-1 $282 $60 $-1 $283 forward single #
loop $-1 $284 $285 $112 #
cone-surface $-1 8.3479712344555566 25.099106571432735 -1.4525572178044754 0 -0.50000000669873634 -0.8660253999169214 0.75 0 0 1 I I -0.70710678118654757 0.70710678118654757 0.75 forward I I I I #
loop $-1 $-1 $286 $77 #
coedge $-1 $180 $180 $287 $288 reversed $113 $-1 #
face $-1 $-1 $289 $61 $-1 $290 forward single #
loop $-1 $291 $292 $115 #
cone-surface $-1 15.752625741151775 25.099106571432735 -1.4525572178044754 0 -0.50000000669873634 -0.8660253999169214 0.75 0 0 1 I I -0.70710678118654757 0.70710678118654757 0.75 forward I I I I #
loop $-1 $-1 $293 $78 #
coedge $-1 $185 $185 $294 $295 reversed $116 $-1 #
face $-1 $296 $297 $62 $-1 $298 reversed single #
loop $-1 $-1 $299 $118 #
plane-surface $-1 44.719969743048352 -24.093074601999753 34.117038946963291 0 0.50000000669873634 0.8660253999169214 1 0 0 forward_v I I I I #
coedge $-1 $300 $301 $302 $303 reversed $119 $-1 #
face $-1 $-1 $304 $63 $-1 $305 forward single #
loop $-1 $306 $307 $121 #
cone-surface $-1 41.017642489700251 25.099106571432735 -1.4525572178044754 0 -0.50000000669873634 -0.8660253999169214 0.75 0 0 1 I I -0.70710678118654757 0.70710678118654757 0.75 forward I I I I #
loop $-1 $-1 $308 $80 #
coedge $-1 $194 $194 $309 $310 reversed $122 $-1 #
face $-1 $-1 $311 $64 $-1 $312 forward single #
loop $-1 $313 $314 $124 #
cone-surface $-1 48.422296996396454 25.099106571432735 -1.4525572178044754 0 -0.50000000669873634 -0.8660253999169214 0.75 0 0 1 I I -0.70710678118654757 0.70710678118654757 0.75 forward I I I I #
loop $-1 $-1 $315 $81 #
coedge $-1 $199 $199 $316 $317 reversed $125 $-1 #
face $-1 $318 $319 $65 $-1 $320 reversed single #
loop $-1 $-1 $321 $127 #
plane-surface $-1 -54.037115385422915 -32.91175230935923 2.7841744321671058 0 -0.52991927123019833 0.84804809178421925 1 0 0 forward_v I I I I #
coedge $-1 $322 $323 $324 $325 reversed $128 $-1 #
face $-1 $-1 $326 $66 $-1 $327 forward single #
loop $-1 $328 $329 $130 #
cone-surface $-1 -57.41884062616937 -27.729217092015624 1.3599383944777728 0 0.52991927123019833 -0.84804809178421925 0.5 0 0 1 I I -0.70710678118654746 0.70710678118654746 0.5 forward I I I I #
loop $-1 $-1 $330 $83 #
coedge $-1 $208 $208 $331 $332 reversed $131 $-1 #
face $-1 $-1 $333 $67 $-1 $334 forward single #
loop $-1 $335 $336 $133 #
cone-surface $-1 -50.655390144676467 -27.729217092015624 1.3599383944777728 0 0.52991927123019833 -0.84804809178421925 0.5 0 0 1 I I -0.70710678118654746 0.70710678118654746 0.5 forward I I I I #
loop $-1 $-1 $337 $84 #
coedge $-1 $213 $213 $338 $339 reversed $134 $-1 #
face $-1 $340 $341 $51 $-1 $342 reversed single #
loop $-1 $-1 $343 $136 #
plane-surface $-1 0 -32.911752309359237 0 0 1 0 0 0 1 forward_v I I I I #
coedge $-1 $344 $345 $346 $347 forward $137 $-1 #
coedge $-1 $348 $139 $349 $350 forward $86 $-1 #
coedge $-1 $139 $348 $351 $352 forward $86 $-1 #
coedge $-1 $353 $354 $139 $221 reversed $355 $-1 #
edge $-1 $356 -32.911752309359237 $357 32.911752309359237 $220 $358 forward 7 unknown #
face $-1 $359 $360 $52 $-1 $361 reversed single #
loop $-1 $-1 $362 $140 #
plane-surface $-1 -61.927807613831305 0 -1.069203363267456 -1 0 0 0 0 1 forward_v I I I I #
coedge $-1 $363 $364 $365 $366 forward $141 $-1 #
coedge $-1 $367 $143 $368 $369 reversed $89 $-1 #
coedge $-1 $143 $367 $370 $371 reversed $89 $-1 #
coedge $-1 $362 $372 $143 $229 reversed $223 $-1 #
edge $-1 $373 -32.911752309359237 $374 32.911752309359237 $228 $375 forward 7 unknown #
face $-1 $376 $377 $53 $-1 $378 forward single #
loop $-1 $-1 $379 $144 #
plane-surface $-1 -44.650280431540118 44.657803726235691 153.1970511492915 -1 0 0 0 0.50000000669873634 0.8660253999169214 forward_v I I I I #
coedge $-1 $380 $381 $382 $383 reversed $145 $-1 #
coedge $-1 $235 $147 $384 $385 reversed $92 $-1 #
coedge $-1 $147 $234 $380 $386 reversed $92 $-1 #
coedge $-1 $382 $387 $147 $237 forward $377 $-1 #
edge $-1 $388 -10.582850446241391 $389 -1.1656418807956932 $236 $390 forward 7 unknown #
loop $-1 $-1 $243 $148 #
plane-surface $-1 -53.289044022685708 -24.093074601999753 34.117038946963291 0 0.50000000669873634 0.8660253999169214 1 0 0 forward_v I I I I #
loop $-1 $-1 $391 $94 #
coedge $-1 $241 $241 $242 $392 reversed $149 $-1 #
coedge $-1 $242 $242 $241 $392 forward $151 $-1 #
coedge $-1 $243 $243 $152 $244 forward $238 $-1 #
edge $-1 $393 2.0086478881495082e-015 $393 6.2831853071796022 $243 $394 forward 7 unknown #
loop $-1 $-1 $250 $153 #
plane-surface $-1 -53.289044022685708 -24.093074601999753 34.117038946963291 0 0.50000000669873634 0.8660253999169214 1 0 0 forward_v I I I I #
loop $-1 $-1 $395 $97 #
coedge $-1 $248 $248 $249 $396 reversed $154 $-1 #
coedge $-1 $249 $249 $248 $396 forward $156 $-1 #
coedge $-1 $250 $250 $157 $251 forward $245 $-1 #
edge $-1 $397 2.0086478881495082e-015 $397 6.2831853071796022 $250 $398 forward 7 unknown #
face $-1 $399 $400 $56 $-1 $401 forward single #
loop $-1 $-1 $402 $158 #
plane-surface $-1 -11.980609176295431 44.657803726235691 153.1970511492915 -1 0 0 0 0.50000000669873634 0.8660253999169214 forward_v I I I I #
coedge $-1 $403 $404 $405 $406 reversed $159 $-1 #
coedge $-1 $257 $161 $407 $408 reversed $101 $-1 #
coedge $-1 $161 $256 $403 $409 reversed $101 $-1 #
coedge $-1 $405 $410 $161 $259 forward $400 $-1 #
edge $-1 $411 -10.582850446241391 $412 -1.1656418807956932 $258 $413 forward 7 unknown #
loop $-1 $-1 $265 $162 #
plane-surface $-1 -20.619372767441021 -24.093074601999753 34.117038946963291 0 0.50000000669873634 0.8660253999169214 1 0 0 forward_v I I I I #
loop $-1 $-1 $414 $103 #
coedge $-1 $263 $263 $264 $415 reversed $163 $-1 #
coedge $-1 $264 $264 $263 $415 forward $165 $-1 #
coedge $-1 $265 $265 $166 $266 forward $260 $-1 #
edge $-1 $416 2.0086478881495082e-015 $416 6.2831853071796022 $265 $417 forward 7 unknown #
loop $-1 $-1 $272 $167 #
plane-surface $-1 -20.619372767441021 -24.093074601999753 34.117038946963291 0 0.50000000669873634 0.8660253999169214 1 0 0 forward_v I I I I #
loop $-1 $-1 $418 $106 #
coedge $-1 $270 $270 $271 $419 reversed $168 $-1 #
coedge $-1 $271 $271 $270 $419 forward $170 $-1 #
coedge $-1 $272 $272 $171 $273 forward $267 $-1 #
edge $-1 $420 2.0086478881495082e-015 $420 6.2831853071796022 $272 $421 forward 7 unknown #
face $-1 $422 $423 $59 $-1 $424 forward single #
loop $-1 $-1 $425 $172 #
plane-surface $-1 20.689062078949263 44.657803726235691 153.1970511492915 -1 0 0 0 0.50000000669873634 0.8660253999169214 forward_v I I I I #
coedge $-1 $426 $427 $428 $429 reversed $173 $-1 #
coedge $-1 $279 $175 $430 $431 reversed $110 $-1 #
coedge $-1 $175 $278 $426 $432 reversed $110 $-1 #
coedge $-1 $428 $433 $175 $281 forward $423 $-1 #
edge $-1 $434 -10.582850446241391 $435 -1.1656418807956932 $280 $436 forward 7 unknown #
loop $-1 $-1 $287 $176 #
plane-surface $-1 12.050298487803673 -24.093074601999753 34.117038946963291 0 0.50000000669873634 0.8660253999169214 1 0 0 forward_v I I I I #
loop $-1 $-1 $437 $112 #
coedge $-1 $285 $285 $286 $438 reversed $177 $-1 #
coedge $-1 $286 $286 $285 $438 forward $179 $-1 #
coedge $-1 $287 $287 $180 $288 forward $282 $-1 #
edge $-1 $439 2.0086478881495082e-015 $439 6.2831853071796022 $287 $440 forward 7 unknown #
loop $-1 $-1 $294 $181 #
plane-surface $-1 12.050298487803673 -24.093074601999753 34.117038946963291 0 0.50000000669873634 0.8660253999169214 1 0 0 forward_v I I I I #
loop $-1 $-1 $441 $115 #
coedge $-1 $292 $292 $293 $442 reversed $182 $-1 #
coedge $-1 $293 $293 $292 $442 forward $184 $-1 #
coedge $-1 $294 $294 $185 $295 forward $289 $-1 #
edge $-1 $443 2.0086478881495082e-015 $443 6.2831853071796022 $294 $444 forward 7 unknown #
face $-1 $445 $446 $62 $-1 $447 forward single #
loop $-1 $-1 $448 $186 #
plane-surface $-1 53.358733334193943 44.657803726235691 153.1970511492915 -1 0 0 0 0.50000000669873634 0.8660253999169214 forward_v I I I I #
coedge $-1 $449 $450 $451 $452 reversed $187 $-1 #
coedge $-1 $301 $189 $453 $454 reversed $119 $-1 #
coedge $-1 $189 $300 $449 $455 reversed $119 $-1 #
coedge $-1 $451 $456 $189 $303 forward $446 $-1 #
edge $-1 $457 -10.582850446241391 $458 -1.1656418807956932 $302 $459 forward 7 unknown #
loop $-1 $-1 $309 $190 #
plane-surface $-1 44.719969743048352 -24.093074601999753 34.117038946963291 0 0.50000000669873634 0.8660253999169214 1 0 0 forward_v I I I I #
loop $-1 $-1 $460 $121 #
coedge $-1 $307 $307 $308 $461 reversed $191 $-1 #
coedge $-1 $308 $308 $307 $461 forward $193 $-1 #
coedge $-1 $309 $309 $194 $310 forward $304 $-1 #
edge $-1 $462 2.0086478881495082e-015 $462 6.2831853071796022 $309 $463 forward 7 unknown #
loop $-1 $-1 $316 $195 #
plane-surface $-1 44.719969743048352 -24.093074601999753 34.117038946963291 0 0.50000000669873634 0.8660253999169214 1 0 0 forward_v I I I I #
loop $-1 $-1 $464 $124 #
coedge $-1 $314 $314 $315 $465 reversed $196 $-1 #
coedge $-1 $315 $315 $314 $465 forward $198 $-1 #
coedge $-1 $316 $316 $199 $317 forward $311 $-1 #
edge $-1 $466 2.0086478881495082e-015 $466 6.2831853071796022 $316 $467 forward 7 unknown #
face $-1 $468 $469 $65 $-1 $470 reversed single #
loop $-1 $-1 $471 $200 #
plane-surface $-1 -61.927807613831298 -105.77658201342379 119.39227521941146 1 0 0 0 0.52991927123019833 -0.84804809178421925 forward_v I I I I #
coedge $-1 $472 $473 $474 $475 reversed $201 $-1 #
coedge $-1 $323 $203 $476 $477 reversed $128 $-1 #
coedge $-1 $203 $322 $472 $478 reversed $128 $-1 #
coedge $-1 $474 $479 $203 $325 forward $480 $-1 #
edge $-1 $481 19.976538697352659 $482 26.150852862831453 $324 $483 forward 7 unknown #
loop $-1 $-1 $331 $204 #
plane-surface $-1 -54.037115385422915 -32.91175230935923 2.7841744321671058 0 -0.52991927123019833 0.84804809178421925 1 0 0 forward_v I I I I #
loop $-1 $-1 $484 $130 #
coedge $-1 $329 $329 $330 $485 reversed $205 $-1 #
coedge $-1 $330 $330 $329 $485 forward $207 $-1 #
coedge $-1 $331 $331 $208 $332 forward $326 $-1 #
edge $-1 $486 -1.8826514435595184e-015 $486 6.2831853071795987 $331 $487 forward 7 unknown #
loop $-1 $-1 $338 $209 #
plane-surface $-1 -54.037115385422915 -32.91175230935923 2.7841744321671058 0 -0.52991927123019833 0.84804809178421925 1 0 0 forward_v I I I I #
loop $-1 $-1 $488 $133 #
coedge $-1 $336 $336 $337 $489 reversed $210 $-1 #
coedge $-1 $337 $337 $336 $489 forward $212 $-1 #
coedge $-1 $338 $338 $213 $339 forward $333 $-1 #
edge $-1 $490 -1.8826514435595184e-015 $490 6.2831853071795987 $338 $491 forward 7 unknown #
face $-1 $492 $493 $51 $-1 $494 reversed single #
loop $-1 $-1 $495 $214 #
plane-surface $-1 -68.750877407147442 0 0 1 0 0 0 0 -1 forward_v I I I I #
coedge $-1 $496 $351 $497 $498 forward $215 $-1 #
coedge $-1 $499 $217 $496 $500 forward $137 $-1 #
coedge $-1 $217 $499 $501 $502 forward $137 $-1 #
coedge $-1 $354 $353 $217 $347 reversed $355 $-1 #
edge $-1 $503 -32.911752309359237 $504 32.911752309359237 $346 $505 forward 7 unknown #
coedge $-1 $219 $218 $506 $507 forward $86 $-1 #
coedge $-1 $508 $509 $218 $350 reversed $493 $-1 #
edge $-1 $357 -68.750877407147442 $510 68.750877407147442 $349 $511 forward 7 unknown #
coedge $-1 $343 $512 $219 $352 reversed $215 $-1 #
edge $-1 $513 -68.750877407147442 $356 68.750877407147442 $351 $514 forward 7 unknown #
coedge $-1 $346 $220 $512 $515 forward $355 $-1 #
coedge $-1 $220 $346 $508 $516 reversed $355 $-1 #
loop $-1 $-1 $353 $492 #
vertex $-1 $221 $517 #
vertex $-1 $221 $518 #
straight-curve $-1 68.750877407147442 0 6.6423141940679216 0 1 0 I I #
face $-1 $519 $520 $52 $-1 $521 reversed single #
loop $-1 $-1 $522 $222 #
plane-surface $-1 0 -32.911752309359237 0 0 1 0 0 0 1 forward_v I I I I #
coedge $-1 $365 $228 $523 $524 reversed $223 $-1 #
coedge $-1 $525 $225 $522 $526 reversed $141 $-1 #
coedge $-1 $225 $525 $527 $528 reversed $141 $-1 #
coedge $-1 $372 $362 $225 $366 reversed $223 $-1 #
edge $-1 $529 -32.911752309359237 $530 32.911752309359237 $365 $531 forward 7 unknown #
coedge $-1 $227 $226 $532 $533 reversed $89 $-1 #
coedge $-1 $534 $535 $226 $369 forward $536 $-1 #
edge $-1 $537 -36.081206151902755 $374 -29.258136358586619 $368 $538 forward 7 unknown #
coedge $-1 $539 $523 $227 $371 forward $360 $-1 #
edge $-1 $373 29.258136358586619 $540 36.081206151902755 $370 $541 forward 7 unknown #
coedge $-1 $228 $365 $534 $542 reversed $223 $-1 #
vertex $-1 $371 $543 #
vertex $-1 $369 $544 #
straight-curve $-1 -61.927807613831305 0 0.43079663673254398 0 1 0 I I #
face $-1 $-1 $545 $53 $-1 $546 reversed single #
loop $-1 $-1 $236 $230 #
plane-surface $-1 0 0 6.6423141940679216 0 0 1 1 0 0 forward_v I I I I #
coedge $-1 $547 $548 $549 $550 reversed $231 $-1 #
coedge $-1 $551 $233 $235 $386 forward $145 $-1 #
coedge $-1 $233 $551 $547 $552 forward $145 $-1 #
coedge $-1 $549 $236 $233 $383 forward $377 $-1 #
edge $-1 $389 -35.283285602488448 $553 -18.005758420197264 $382 $554 forward 7 unknown #
coedge $-1 $555 $556 $234 $385 forward $545 $-1 #
edge $-1 $557 -75.393239377975988 $388 -69.956211380577827 $384 $558 forward 7 unknown #
edge $-1 $389 54.94944876960701 $557 65.823504618718474 $235 $559 forward 7 unknown #
coedge $-1 $236 $549 $555 $560 forward $377 $-1 #
vertex $-1 $385 $561 #
vertex $-1 $237 $562 #
straight-curve $-1 -61.927807613831298 22.328901863117846 6.6423141940679216 0 -1 0 I I #
coedge $-1 $391 $391 $-1 $563 reversed $240 $-1 #
edge $-1 $564 0 $564 6.2831853071796004 $241 $565 forward 7 unknown #
vertex $-1 $244 $566 #
ellipse-curve $-1 -56.991371276033817 28.203148026636395 3.9238001953688322 0 0.50000000669873634 0.8660253999169214 1.5 0 0 1 I I #
coedge $-1 $395 $395 $-1 $567 reversed $247 $-1 #
edge $-1 $568 0 $568 6.2831853071796004 $248 $569 forward 7 unknown #
vertex $-1 $251 $570 #
ellipse-curve $-1 -49.586716769337599 28.203148026636395 3.9238001953688322 0 0.50000000669873634 0.8660253999169214 1.5 0 0 1 I I #
face $-1 $-1 $571 $56 $-1 $572 reversed single #
loop $-1 $-1 $258 $252 #
plane-surface $-1 0 0 6.6423141940679216 0 0 1 1 0 0 forward_v I I I I #
coedge $-1 $573 $574 $575 $576 reversed $253 $-1 #
coedge $-1 $577 $255 $257 $409 forward $159 $-1 #
coedge $-1 $255 $577 $573 $578 forward $159 $-1 #
coedge $-1 $575 $258 $255 $406 forward $400 $-1 #
edge $-1 $412 -18.948449974866101 $579 -1.6709227925749204 $405 $580 forward 7 unknown #
coedge $-1 $581 $582 $256 $408 forward $571 $-1 #
edge $-1 $583 -75.393239377975988 $411 -69.956211380577827 $407 $584 forward 7 unknown #
edge $-1 $412 54.94944876960701 $583 65.823504618718474 $257 $585 forward 7 unknown #
coedge $-1 $258 $575 $581 $586 forward $400 $-1 #
vertex $-1 $259 $587 #
vertex $-1 $259 $588 #
straight-curve $-1 -29.258136358586611 22.328901863117846 6.6423141940679216 0 -1 0 I I #
coedge $-1 $414 $414 $-1 $589 reversed $262 $-1 #
edge $-1 $590 0 $590 6.2831853071796004 $263 $591 forward 7 unknown #
vertex $-1 $266 $592 #
ellipse-curve $-1 -24.32170002078913 28.203148026636395 3.9238001953688322 0 0.50000000669873634 0.8660253999169214 1.5 0 0 1 I I #
coedge $-1 $418 $418 $-1 $593 reversed $269 $-1 #
edge $-1 $594 0 $594 6.2831853071796004 $270 $595 forward 7 unknown #
vertex $-1 $273 $596 #
ellipse-curve $-1 -16.917045514092912 28.203148026636395 3.9238001953688322 0 0.50000000669873634 0.8660253999169214 1.5 0 0 1 I I #
face $-1 $-1 $597 $59 $-1 $598 reversed single #
loop $-1 $-1 $280 $274 #
plane-surface $-1 0 0 6.6423141940679216 0 0 1 1 0 0 forward_v I I I I #
coedge $-1 $599 $600 $601 $602 reversed $275 $-1 #
coedge $-1 $603 $277 $279 $432 forward $173 $-1 #
coedge $-1 $277 $603 $599 $604 forward $173 $-1 #
coedge $-1 $601 $280 $277 $429 forward $423 $-1 #
edge $-1 $435 -2.6136143472437539 $605 14.663912835047427 $428 $606 forward 7 unknown #
coedge $-1 $607 $608 $278 $431 forward $597 $-1 #
edge $-1 $609 -75.393239377975988 $434 -69.956211380577827 $430 $610 forward 7 unknown #
edge $-1 $435 54.94944876960701 $609 65.823504618718474 $279 $611 forward 7 unknown #
coedge $-1 $280 $601 $607 $612 forward $423 $-1 #
vertex $-1 $281 $613 #
vertex $-1 $281 $614 #
straight-curve $-1 3.4115348966580825 22.328901863117846 6.6423141940679216 0 -1 0 I I #
coedge $-1 $437 $437 $-1 $615 reversed $284 $-1 #
edge $-1 $616 0 $616 6.2831853071796004 $285 $617 forward 7 unknown #
vertex $-1 $288 $618 #
ellipse-curve $-1 8.3479712344555566 28.203148026636395 3.9238001953688322 0 0.50000000669873634 0.8660253999169214 1.5 0 0 1 I I #
coedge $-1 $441 $441 $-1 $619 reversed $291 $-1 #
edge $-1 $620 0 $620 6.2831853071796004 $292 $621 forward 7 unknown #
vertex $-1 $295 $622 #
ellipse-curve $-1 15.752625741151775 28.203148026636395 3.9238001953688322 0 0.50000000669873634 0.8660253999169214 1.5 0 0 1 I I #
face $-1 $-1 $623 $62 $-1 $624 reversed single #
loop $-1 $-1 $302 $296 #
plane-surface $-1 0 0 6.6423141940679216 0 0 1 1 0 0 forward_v I I I I #
coedge $-1 $625 $626 $627 $628 reversed $297 $-1 #
coedge $-1 $629 $299 $301 $455 forward $187 $-1 #
coedge $-1 $299 $629 $625 $630 forward $187 $-1 #
coedge $-1 $627 $302 $299 $452 forward $446 $-1 #
edge $-1 $458 13.721221280378586 $631 30.998748462669766 $451 $632 forward 7 unknown #
coedge $-1 $633 $634 $300 $454 forward $623 $-1 #
edge $-1 $635 -75.393239377975988 $457 -69.956211380577827 $453 $636 forward 7 unknown #
edge $-1 $458 54.94944876960701 $635 65.823504618718474 $301 $637 forward 7 unknown #
coedge $-1 $302 $627 $633 $638 forward $446 $-1 #
vertex $-1 $303 $639 #
vertex $-1 $303 $640 #
straight-curve $-1 36.081206151902762 22.328901863117846 6.6423141940679216 0 -1 0 I I #
coedge $-1 $460 $460 $-1 $641 reversed $306 $-1 #
edge $-1 $642 0 $642 6.2831853071796004 $307 $643 forward 7 unknown #
vertex $-1 $310 $644 #
ellipse-curve $-1 41.017642489700251 28.203148026636395 3.9238001953688322 0 0.50000000669873634 0.8660253999169214 1.5 0 0 1 I I #
coedge $-1 $464 $464 $-1 $645 reversed $313 $-1 #
edge $-1 $646 0 $646 6.2831853071796004 $314 $647 forward 7 unknown #
vertex $-1 $317 $648 #
ellipse-curve $-1 48.422296996396454 28.203148026636395 3.9238001953688322 0 0.50000000669873634 0.8660253999169214 1.5 0 0 1 I I #
face $-1 $-1 $480 $65 $-1 $649 forward single #
loop $-1 $-1 $650 $318 #
plane-surface $-1 0 -32.911752309359237 0 0 1 0 0 0 1 forward_v I I I I #
coedge $-1 $651 $652 $653 $654 reversed $319 $-1 #
coedge $-1 $655 $321 $323 $478 forward $201 $-1 #
coedge $-1 $321 $655 $651 $656 forward $201 $-1 #
coedge $-1 $653 $324 $321 $475 forward $480 $-1 #
edge $-1 $482 19.127865464303074 $657 34.909249921119837 $474 $658 forward 7 unknown #
coedge $-1 $659 $660 $322 $477 forward $469 $-1 #
edge $-1 $661 -56.911963177538631 $481 -53.053823415637808 $476 $662 forward 7 unknown #
edge $-1 $482 -7.280617957041291 $661 8.3790584163743152e-015 $323 $663 forward 7 unknown #
coedge $-1 $324 $653 $659 $664 forward $480 $-1 #
loop $-1 $-1 $653 $468 #
vertex $-1 $477 $665 #
vertex $-1 $325 $666 #
straight-curve $-1 -46.146423157014532 -52.888291006711896 6.6423141940679216 0 1 0 I I #
coedge $-1 $484 $484 $-1 $667 reversed $328 $-1 #
edge $-1 $668 0 $668 6.2831853071796004 $329 $669 forward 7 unknown #
vertex $-1 $332 $670 #
ellipse-curve $-1 -57.41884062616937 -29.824595226619838 4.7132443131175128 0 -0.52991927123019833 0.84804809178421925 1 0 0 1 I I #
coedge $-1 $488 $488 $-1 $671 reversed $335 $-1 #
edge $-1 $672 0 $672 6.2831853071796004 $336 $673 forward 7 unknown #
vertex $-1 $339 $674 #
ellipse-curve $-1 -50.655390144676467 -29.824595226619838 4.7132443131175128 0 -0.52991927123019833 0.84804809178421925 1 0 0 1 I I #
face $-1 $-1 $355 $51 $-1 $675 reversed single #
loop $-1 $-1 $508 $340 #
plane-surface $-1 0 32.911752309359237 0 0 -1 0 0 0 -1 forward_v I I I I #
coedge $-1 $676 $506 $509 $677 forward $341 $-1 #
coedge $-1 $512 $343 $344 $500 reversed $215 $-1 #
coedge $-1 $506 $676 $343 $498 reversed $341 $-1 #
edge $-1 $513 -6.6423141940679216 $678 6.6423141940679216 $497 $679 forward 7 unknown #
coedge $-1 $345 $344 $676 $680 forward $137 $-1 #
edge $-1 $504 -68.750877407147442 $678 68.750877407147442 $496 $681 forward 7 unknown #
coedge $-1 $509 $508 $345 $502 reversed $493 $-1 #
edge $-1 $682 -68.750877407147442 $503 68.750877407147442 $501 $683 forward 7 unknown #
vertex $-1 $347 $684 #
vertex $-1 $515 $685 #
straight-curve $-1 68.750877407147442 0 -6.6423141940679216 0 -1 0 I I #
coedge $-1 $495 $497 $348 $507 reversed $341 $-1 #
edge $-1 $510 -32.911752309359237 $513 32.911752309359237 $506 $686 forward 7 unknown #
coedge $-1 $501 $349 $354 $516 forward $493 $-1 #
coedge $-1 $349 $501 $495 $677 reversed $493 $-1 #
vertex $-1 $350 $687 #
straight-curve $-1 0 32.911752309359237 6.6423141940679216 -1 0 0 I I #
coedge $-1 $351 $496 $353 $515 reversed $215 $-1 #
vertex $-1 $507 $688 #
straight-curve $-1 0 -32.911752309359237 6.6423141940679216 1 0 0 I I #
edge $-1 $356 -6.6423141940679216 $504 6.6423141940679216 $353 $689 forward 7 unknown #
edge $-1 $357 -6.6423141940679216 $503 6.6423141940679216 $354 $690 forward 7 unknown #
point $-1 68.750877407147442 -32.911752309359237 6.6423141940679216 #
point $-1 68.750877407147442 32.911752309359237 6.6423141940679216 #
face $-1 $-1 $536 $52 $-1 $691 reversed single #
loop $-1 $-1 $692 $359 #
plane-surface $-1 -68.750877407147442 0 0 1 0 0 0 0 -1 forward_v I I I I #
coedge $-1 $523 $539 $363 $526 forward $360 $-1 #
coedge $-1 $370 $522 $362 $524 forward $360 $-1 #
edge $-1 $530 -2.034601681633728 $373 0.96539831836627199 $523 $693 forward 7 unknown #
coedge $-1 $364 $363 $692 $694 reversed $141 $-1 #
edge $-1 $695 -36.081206151902755 $530 -29.258136358586619 $522 $696 forward 7 unknown #
coedge $-1 $535 $534 $364 $528 forward $536 $-1 #
edge $-1 $529 29.258136358586619 $697 36.081206151902755 $527 $698 forward 7 unknown #
vertex $-1 $528 $699 #
vertex $-1 $526 $700 #
straight-curve $-1 -61.927807613831305 0 -2.569203363267456 0 -1 0 I I #
coedge $-1 $701 $702 $367 $533 forward $520 $-1 #
edge $-1 $540 -32.911752309359237 $537 32.911752309359237 $532 $703 forward 7 unknown #
coedge $-1 $527 $368 $372 $542 forward $536 $-1 #
coedge $-1 $368 $527 $701 $704 reversed $536 $-1 #
loop $-1 $-1 $527 $519 #
vertex $-1 $704 $705 #
straight-curve $-1 -32.669671255244687 32.911752309359237 0.43079663673254398 1 0 0 I I #
coedge $-1 $522 $370 $702 $706 forward $360 $-1 #
vertex $-1 $706 $707 #
straight-curve $-1 -32.669671255244687 -32.911752309359237 0.43079663673254398 -1 0 0 I I #
edge $-1 $374 -0.96539831836627199 $529 2.034601681633728 $534 $708 forward 7 unknown #
point $-1 -61.927807613831305 -32.911752309359237 0.43079663673254398 #
point $-1 -61.927807613831305 32.911752309359237 0.43079663673254398 #
loop $-1 $-1 $384 $376 #
plane-surface $-1 0 32.911752309359237 0 0 -1 0 0 0 -1 forward_v I I I I #
coedge $-1 $548 $379 $381 $552 reversed $231 $-1 #
coedge $-1 $379 $547 $709 $710 reversed $231 $-1 #
coedge $-1 $387 $382 $379 $550 forward $377 $-1 #
edge $-1 $553 1.1656418807956932 $711 10.582850446241391 $549 $712 forward 7 unknown #
coedge $-1 $381 $380 $556 $713 reversed $145 $-1 #
edge $-1 $714 -65.823504618718474 $553 -54.94944876960701 $547 $715 forward 7 unknown #
vertex $-1 $383 $716 #
straight-curve $-1 -26.644522011342854 23.494543743913535 6.6423141940679216 1 0 0 I I #
coedge $-1 $709 $384 $387 $560 reversed $545 $-1 #
coedge $-1 $384 $709 $551 $713 forward $545 $-1 #
vertex $-1 $385 $717 #
straight-curve $-1 -61.927807613831298 32.911752309359237 76.598525574645748 0 0 1 I I #
straight-curve $-1 -61.927807613831298 -24.093074601999753 34.117038946963291 0 0.8660253999169214 -0.50000000669873634 I I #
edge $-1 $711 44.650280431540118 $388 61.927807613831298 $555 $718 forward 7 unknown #
point $-1 -61.927807613831298 32.911752309359237 6.6423141940679216 #
point $-1 -61.927807613831298 23.494543743913539 6.6423141940679216 #
edge $-1 $719 1 $719 0 $391 $-1 forward 7 unknown #
vertex $-1 $392 $720 #
ellipse-curve $-1 -56.991371276033817 25.474106576456787 -0.80303816786678439 0 0.50000000669873634 0.8660253999169214 1.5 0 0 1 I I #
point $-1 -55.491371276033817 28.203148026636406 3.9238001953688446 #
edge $-1 $721 1 $721 0 $395 $-1 forward 7 unknown #
vertex $-1 $396 $722 #
ellipse-curve $-1 -49.586716769337599 25.474106576456787 -0.80303816786678439 0 0.50000000669873634 0.8660253999169214 1.5 0 0 1 I I #
point $-1 -48.086716769337599 28.203148026636406 3.9238001953688446 #
loop $-1 $-1 $407 $399 #
plane-surface $-1 0 32.911752309359237 0 0 -1 0 0 0 -1 forward_v I I I I #
coedge $-1 $574 $402 $404 $578 reversed $253 $-1 #
coedge $-1 $402 $573 $723 $724 reversed $253 $-1 #
coedge $-1 $410 $405 $402 $576 forward $400 $-1 #
edge $-1 $579 1.1656418807956932 $725 10.582850446241391 $575 $726 forward 7 unknown #
coedge $-1 $404 $403 $582 $727 reversed $159 $-1 #
edge $-1 $728 -65.823504618718474 $579 -54.94944876960701 $573 $729 forward 7 unknown #
vertex $-1 $406 $730 #
straight-curve $-1 -10.309686383720511 23.494543743913535 6.6423141940679216 1 0 0 I I #
coedge $-1 $723 $407 $410 $586 reversed $571 $-1 #
coedge $-1 $407 $723 $577 $727 forward $571 $-1 #
vertex $-1 $408 $731 #
straight-curve $-1 -29.258136358586611 32.911752309359237 76.598525574645748 0 0 1 I I #
straight-curve $-1 -29.258136358586611 -24.093074601999753 34.117038946963291 0 0.8660253999169214 -0.50000000669873634 I I #
edge $-1 $725 11.980609176295431 $411 29.258136358586611 $581 $732 forward 7 unknown #
point $-1 -29.258136358586611 32.911752309359237 6.6423141940679216 #
point $-1 -29.258136358586611 23.494543743913539 6.6423141940679216 #
edge $-1 $733 1 $733 0 $414 $-1 forward 7 unknown #
vertex $-1 $415 $734 #
ellipse-curve $-1 -24.32170002078913 25.474106576456787 -0.80303816786678439 0 0.50000000669873634 0.8660253999169214 1.5 0 0 1 I I #
point $-1 -22.82170002078913 28.203148026636406 3.9238001953688446 #
edge $-1 $735 1 $735 0 $418 $-1 forward 7 unknown #
vertex $-1 $419 $736 #
ellipse-curve $-1 -16.917045514092912 25.474106576456787 -0.80303816786678439 0 0.50000000669873634 0.8660253999169214 1.5 0 0 1 I I #
point $-1 -15.417045514092912 28.203148026636406 3.9238001953688446 #
loop $-1 $-1 $430 $422 #
plane-surface $-1 0 32.911752309359237 0 0 -1 0 0 0 -1 forward_v I I I I #
coedge $-1 $600 $425 $427 $604 reversed $275 $-1 #
coedge $-1 $425 $599 $737 $738 reversed $275 $-1 #
coedge $-1 $433 $428 $425 $602 forward $423 $-1 #
edge $-1 $605 1.1656418807956932 $739 10.582850446241391 $601 $740 forward 7 unknown #
coedge $-1 $427 $426 $608 $741 reversed $173 $-1 #
edge $-1 $742 -65.823504618718474 $605 -54.94944876960701 $599 $743 forward 7 unknown #
vertex $-1 $429 $744 #
straight-curve $-1 6.0251492439018364 23.494543743913535 6.6423141940679216 1 0 0 I I #
coedge $-1 $737 $430 $433 $612 reversed $597 $-1 #
coedge $-1 $430 $737 $603 $741 forward $597 $-1 #
vertex $-1 $431 $745 #
straight-curve $-1 3.4115348966580825 32.911752309359237 76.598525574645748 0 0 1 I I #
straight-curve $-1 3.4115348966580825 -24.093074601999753 34.117038946963291 0 0.8660253999169214 -0.50000000669873634 I I #
edge $-1 $739 -20.689062078949263 $434 -3.4115348966580825 $607 $746 forward 7 unknown #
point $-1 3.4115348966580825 32.911752309359237 6.6423141940679216 #
point $-1 3.4115348966580825 23.494543743913539 6.6423141940679216 #
edge $-1 $747 1 $747 0 $437 $-1 forward 7 unknown #
vertex $-1 $438 $748 #
ellipse-curve $-1 8.3479712344555566 25.474106576456787 -0.80303816786678439 0 0.50000000669873634 0.8660253999169214 1.5 0 0 1 I I #
point $-1 9.8479712344555566 28.203148026636406 3.9238001953688446 #
edge $-1 $749 1 $749 0 $441 $-1 forward 7 unknown #
vertex $-1 $442 $750 #
ellipse-curve $-1 15.752625741151775 25.474106576456787 -0.80303816786678439 0 0.50000000669873634 0.8660253999169214 1.5 0 0 1 I I #
point $-1 17.252625741151775 28.203148026636406 3.9238001953688446 #
loop $-1 $-1 $453 $445 #
plane-surface $-1 0 32.911752309359237 0 0 -1 0 0 0 -1 forward_v I I I I #
coedge $-1 $626 $448 $450 $630 reversed $297 $-1 #
coedge $-1 $448 $625 $751 $752 reversed $297 $-1 #
coedge $-1 $456 $451 $448 $628 forward $446 $-1 #
edge $-1 $631 1.1656418807956932 $753 10.582850446241391 $627 $754 forward 7 unknown #
coedge $-1 $450 $449 $634 $755 reversed $187 $-1 #
edge $-1 $756 -65.823504618718474 $631 -54.94944876960701 $625 $757 forward 7 unknown #
vertex $-1 $452 $758 #
straight-curve $-1 22.359984871524176 23.494543743913535 6.6423141940679216 1 0 0 I I #
coedge $-1 $751 $453 $456 $638 reversed $623 $-1 #
coedge $-1 $453 $751 $629 $755 forward $623 $-1 #
vertex $-1 $454 $759 #
straight-curve $-1 36.081206151902762 32.911752309359237 76.598525574645748 0 0 1 I I #
straight-curve $-1 36.081206151902762 -24.093074601999753 34.117038946963291 0 0.8660253999169214 -0.50000000669873634 I I #
edge $-1 $753 -53.358733334193943 $457 -36.081206151902762 $633 $760 forward 7 unknown #
point $-1 36.081206151902762 32.911752309359237 6.6423141940679216 #
point $-1 36.081206151902762 23.494543743913539 6.6423141940679216 #
edge $-1 $761 1 $761 0 $460 $-1 forward 7 unknown #
vertex $-1 $461 $762 #
ellipse-curve $-1 41.017642489700251 25.474106576456787 -0.80303816786678439 0 0.50000000669873634 0.8660253999169214 1.5 0 0 1 I I #
point $-1 42.517642489700251 28.203148026636406 3.9238001953688446 #
edge $-1 $763 1 $763 0 $464 $-1 forward 7 unknown #
vertex $-1 $465 $764 #
ellipse-curve $-1 48.422296996396454 25.474106576456787 -0.80303816786678439 0 0.50000000669873634 0.8660253999169214 1.5 0 0 1 I I #
point $-1 49.922296996396454 28.203148026636406 3.9238001953688446 #
plane-surface $-1 0 0 6.6423141940679216 0 0 1 1 0 0 forward_v I I I I #
coedge $-1 $660 $659 $652 $765 forward $469 $-1 #
coedge $-1 $652 $471 $473 $656 reversed $319 $-1 #
coedge $-1 $471 $651 $650 $765 reversed $319 $-1 #
coedge $-1 $479 $474 $471 $654 forward $480 $-1 #
edge $-1 $657 -26.150852862831453 $766 -19.976538697352659 $653 $767 forward 7 unknown #
coedge $-1 $473 $472 $660 $768 reversed $201 $-1 #
edge $-1 $769 -8.3790584163743152e-015 $657 7.280617957041291 $651 $770 forward 7 unknown #
vertex $-1 $475 $771 #
straight-curve $-1 -27.018557692711457 -26.737438143880446 6.6423141940679207 -1 0 0 I I #
coedge $-1 $650 $476 $479 $664 reversed $469 $-1 #
coedge $-1 $476 $650 $655 $768 forward $469 $-1 #
vertex $-1 $477 $772 #
straight-curve $-1 -46.146423157014532 -32.911752309359237 59.69613760970573 0 0 1 I I #
straight-curve $-1 -46.146423157014532 -32.91175230935923 2.7841744321671058 0 -0.84804809178421925 -0.52991927123019833 I I #
edge $-1 $766 -61.927807613831298 $481 -46.146423157014532 $659 $773 forward 7 unknown #
point $-1 -46.146423157014532 -32.911752309359237 6.6423141940679216 #
point $-1 -46.146423157014532 -26.737438143880443 6.6423141940679216 #
edge $-1 $774 1 $774 0 $484 $-1 forward 7 unknown #
vertex $-1 $485 $775 #
ellipse-curve $-1 -57.41884062616937 -27.994176727630723 1.7839624403698824 0 -0.52991927123019833 0.84804809178421925 1 0 0 1 I I #
point $-1 -56.41884062616937 -29.824595226619838 4.7132443131175092 #
edge $-1 $776 1 $776 0 $488 $-1 forward 7 unknown #
vertex $-1 $489 $777 #
ellipse-curve $-1 -50.655390144676467 -27.994176727630723 1.7839624403698824 0 -0.52991927123019833 0.84804809178421925 1 0 0 1 I I #
point $-1 -49.655390144676467 -29.824595226619838 4.7132443131175092 #
plane-surface $-1 68.750877407147442 0 0 -1 0 0 0 0 1 forward_v I I I I #
coedge $-1 $497 $495 $499 $680 reversed $341 $-1 #
edge $-1 $510 -6.6423141940679216 $682 6.6423141940679216 $509 $778 forward 7 unknown #
vertex $-1 $680 $779 #
straight-curve $-1 -68.750877407147442 -32.911752309359237 0 0 0 -1 I I #
edge $-1 $678 -32.911752309359237 $682 32.911752309359237 $676 $780 forward 7 unknown #
straight-curve $-1 0 -32.911752309359237 -6.6423141940679216 -1 0 0 I I #
vertex $-1 $502 $781 #
straight-curve $-1 0 32.911752309359237 -6.6423141940679216 1 0 0 I I #
point $-1 68.750877407147442 32.911752309359237 -6.6423141940679216 #
point $-1 68.750877407147442 -32.911752309359237 -6.6423141940679216 #
straight-curve $-1 -68.750877407147442 0 6.6423141940679216 0 -1 0 I I #
point $-1 -68.750877407147442 32.911752309359237 6.6423141940679216 #
point $-1 -68.750877407147442 -32.911752309359237 6.6423141940679216 #
straight-curve $-1 68.750877407147442 -32.911752309359237 0 0 0 -1 I I #
straight-curve $-1 68.750877407147442 32.911752309359237 0 0 0 -1 I I #
plane-surface $-1 0 32.911752309359237 0 0 -1 0 0 0 -1 forward_v I I I I #
coedge $-1 $702 $701 $525 $694 forward $520 $-1 #
straight-curve $-1 -61.927807613831305 -32.911752309359237 -0.53460168163372801 0 0 1 I I #
edge $-1 $697 -32.911752309359237 $695 32.911752309359237 $692 $782 forward 7 unknown #
vertex $-1 $526 $783 #
straight-curve $-1 -32.669671255244687 -32.911752309359237 -2.569203363267456 1 0 0 I I #
vertex $-1 $528 $784 #
straight-curve $-1 -32.669671255244687 32.911752309359237 -2.569203363267456 -1 0 0 I I #
point $-1 -61.927807613831305 32.911752309359237 -2.569203363267456 #
point $-1 -61.927807613831305 -32.911752309359237 -2.569203363267456 #
coedge $-1 $692 $532 $535 $704 forward $520 $-1 #
coedge $-1 $532 $692 $539 $706 reversed $520 $-1 #
straight-curve $-1 -68.750877407147442 0 0.43079663673254398 0 1 0 I I #
edge $-1 $537 -0.43079663673254398 $697 2.569203363267456 $535 $785 forward 7 unknown #
point $-1 -68.750877407147442 32.911752309359237 0.43079663673254398 #
edge $-1 $540 -0.43079663673254398 $695 2.569203363267456 $702 $786 forward 7 unknown #
point $-1 -68.750877407147442 -32.911752309359237 0.43079663673254398 #
straight-curve $-1 -61.927807613831305 32.911752309359237 -0.53460168163372801 0 0 -1 I I #
coedge $-1 $556 $555 $548 $710 forward $545 $-1 #
edge $-1 $711 69.956211380577827 $714 75.393239377975988 $709 $787 forward 7 unknown #
vertex $-1 $560 $788 #
straight-curve $-1 -44.650280431540118 22.328901863117846 6.6423141940679216 0 1 0 I I #
edge $-1 $714 18.005758420197264 $557 35.283285602488448 $556 $789 forward 7 unknown #
vertex $-1 $713 $790 #
straight-curve $-1 -44.650280431540118 -24.093074601999753 34.117038946963291 0 -0.8660253999169214 0.50000000669873634 I I #
point $-1 -44.650280431540118 23.494543743913539 6.6423141940679216 #
point $-1 -61.927807613831298 32.911752309359237 1.2052861966697535 #
straight-curve $-1 0 32.911752309359237 6.6423141940679216 -1 0 0 I I #
vertex $-1 $563 $791 #
point $-1 -55.491371276033817 25.474106576456787 -0.80303816786678439 #
vertex $-1 $567 $792 #
point $-1 -48.086716769337599 25.474106576456787 -0.80303816786678439 #
coedge $-1 $582 $581 $574 $724 forward $571 $-1 #
edge $-1 $725 69.956211380577827 $728 75.393239377975988 $723 $793 forward 7 unknown #
vertex $-1 $586 $794 #
straight-curve $-1 -11.980609176295431 22.328901863117846 6.6423141940679216 0 1 0 I I #
edge $-1 $728 1.6709227925749204 $583 18.948449974866101 $582 $795 forward 7 unknown #
vertex $-1 $727 $796 #
straight-curve $-1 -11.980609176295431 -24.093074601999753 34.117038946963291 0 -0.8660253999169214 0.50000000669873634 I I #
point $-1 -11.980609176295431 23.494543743913539 6.6423141940679216 #
point $-1 -29.258136358586611 32.911752309359237 1.2052861966697535 #
straight-curve $-1 0 32.911752309359237 6.6423141940679216 -1 0 0 I I #
vertex $-1 $589 $797 #
point $-1 -22.82170002078913 25.474106576456787 -0.80303816786678439 #
vertex $-1 $593 $798 #
point $-1 -15.417045514092912 25.474106576456787 -0.80303816786678439 #
coedge $-1 $608 $607 $600 $738 forward $597 $-1 #
edge $-1 $739 69.956211380577827 $742 75.393239377975988 $737 $799 forward 7 unknown #
vertex $-1 $612 $800 #
straight-curve $-1 20.689062078949263 22.328901863117846 6.6423141940679216 0 1 0 I I #
edge $-1 $742 -14.663912835047427 $609 2.6136143472437539 $608 $801 forward 7 unknown #
vertex $-1 $741 $802 #
straight-curve $-1 20.689062078949263 -24.093074601999753 34.117038946963291 0 -0.8660253999169214 0.50000000669873634 I I #
point $-1 20.689062078949263 23.494543743913539 6.6423141940679216 #
point $-1 3.4115348966580825 32.911752309359237 1.2052861966697535 #
straight-curve $-1 0 32.911752309359237 6.6423141940679216 -1 0 0 I I #
vertex $-1 $615 $803 #
point $-1 9.8479712344555566 25.474106576456787 -0.80303816786678439 #
vertex $-1 $619 $804 #
point $-1 17.252625741151775 25.474106576456787 -0.80303816786678439 #
coedge $-1 $634 $633 $626 $752 forward $623 $-1 #
edge $-1 $753 69.956211380577827 $756 75.393239377975988 $751 $805 forward 7 unknown #
vertex $-1 $638 $806 #
straight-curve $-1 53.358733334193943 22.328901863117846 6.6423141940679216 0 1 0 I I #
edge $-1 $756 -30.998748462669766 $635 -13.721221280378586 $634 $807 forward 7 unknown #
vertex $-1 $755 $808 #
straight-curve $-1 53.358733334193943 -24.093074601999753 34.117038946963291 0 -0.8660253999169214 0.50000000669873634 I I #
point $-1 53.358733334193943 23.494543743913539 6.6423141940679216 #
point $-1 36.081206151902762 32.911752309359237 1.2052861966697535 #
straight-curve $-1 0 32.911752309359237 6.6423141940679216 -1 0 0 I I #
vertex $-1 $641 $809 #
point $-1 42.517642489700251 25.474106576456787 -0.80303816786678439 #
vertex $-1 $645 $810 #
point $-1 49.922296996396454 25.474106576456787 -0.80303816786678439 #
edge $-1 $766 53.053823415637808 $769 56.911963177538631 $650 $811 forward 7 unknown #
vertex $-1 $664 $812 #
straight-curve $-1 -61.927807613831298 -52.888291006711896 6.6423141940679216 0 -1 0 I I #
edge $-1 $769 -34.909249921119837 $661 -19.127865464303074 $660 $813 forward 7 unknown #
vertex $-1 $768 $814 #
straight-curve $-1 -61.927807613831298 -32.91175230935923 2.7841744321671058 0 0.84804809178421925 0.52991927123019833 I I #
point $-1 -61.927807613831298 -26.737438143880443 6.6423141940679216 #
point $-1 -46.146423157014532 -32.911752309359237 2.7841744321671014 #
straight-curve $-1 0 -32.911752309359237 6.6423141940679216 1 0 0 I I #
vertex $-1 $667 $815 #
point $-1 -56.41884062616937 -27.994176727630723 1.7839624403698824 #
vertex $-1 $671 $816 #
point $-1 -49.655390144676467 -27.994176727630723 1.7839624403698824 #
straight-curve $-1 -68.750877407147442 32.911752309359237 0 0 0 -1 I I #
point $-1 -68.750877407147442 -32.911752309359237 -6.6423141940679216 #
straight-curve $-1 -68.750877407147442 0 -6.6423141940679216 0 1 0 I I #
point $-1 -68.750877407147442 32.911752309359237 -6.6423141940679216 #
straight-curve $-1 -68.750877407147442 0 -2.569203363267456 0 -1 0 I I #
point $-1 -68.750877407147442 -32.911752309359237 -2.569203363267456 #
point $-1 -68.750877407147442 32.911752309359237 -2.569203363267456 #
straight-curve $-1 -68.750877407147442 32.911752309359237 0 0 0 -1 I I #
straight-curve $-1 -68.750877407147442 -32.911752309359237 0 0 0 -1 I I #
straight-curve $-1 -44.650280431540118 32.911752309359237 76.598525574645748 0 0 -1 I I #
point $-1 -44.650280431540118 32.911752309359237 6.6423141940679216 #
straight-curve $-1 -26.644522011342854 32.911752309359237 1.2052861966697499 -1 0 0 I I #
point $-1 -44.650280431540118 32.911752309359237 1.2052861966697535 #
point $-1 -56.991371276033817 24.724106566408683 -2.1020762677421665 #
point $-1 -49.586716769337599 24.724106566408683 -2.1020762677421665 #
straight-curve $-1 -11.980609176295431 32.911752309359237 76.598525574645748 0 0 -1 I I #
point $-1 -11.980609176295431 32.911752309359237 6.6423141940679216 #
straight-curve $-1 -10.309686383720511 32.911752309359237 1.2052861966697499 -1 0 0 I I #
point $-1 -11.980609176295431 32.911752309359237 1.2052861966697535 #
point $-1 -24.32170002078913 24.724106566408683 -2.1020762677421665 #
point $-1 -16.917045514092912 24.724106566408683 -2.1020762677421665 #
straight-curve $-1 20.689062078949263 32.911752309359237 76.598525574645748 0 0 -1 I I #
point $-1 20.689062078949263 32.911752309359237 6.6423141940679216 #
straight-curve $-1 6.0251492439018364 32.911752309359237 1.2052861966697499 -1 0 0 I I #
point $-1 20.689062078949263 32.911752309359237 1.2052861966697535 #
point $-1 8.3479712344555566 24.724106566408683 -2.1020762677421665 #
point $-1 15.752625741151775 24.724106566408683 -2.1020762677421665 #
straight-curve $-1 53.358733334193943 32.911752309359237 76.598525574645748 0 0 -1 I I #
point $-1 53.358733334193943 32.911752309359237 6.6423141940679216 #
straight-curve $-1 22.359984871524176 32.911752309359237 1.2052861966697499 -1 0 0 I I #
point $-1 53.358733334193943 32.911752309359237 1.2052861966697535 #
point $-1 41.017642489700251 24.724106566408683 -2.1020762677421665 #
point $-1 48.422296996396454 24.724106566408683 -2.1020762677421665 #
straight-curve $-1 -61.927807613831298 -32.911752309359237 59.69613760970573 0 0 -1 I I #
point $-1 -61.927807613831298 -32.911752309359237 6.6423141940679216 #
straight-curve $-1 -27.018557692711457 -32.911752309359237 2.7841744321670996 1 0 0 I I #
point $-1 -61.927807613831298 -32.911752309359237 2.7841744321671014 #
point $-1 -57.41884062616937 -27.464257456400524 0.93591434858566314 #
point $-1 -50.655390144676467 -27.464257456400524 0.93591434858566314 #
End-of-ACIS-data 