500 0 9 0           
7 Unknown 11 ACIS 5.0 NT 24 Thu Mar 25 20:48:03 1999 
-1 9.9999999999999995e-007 1e-010 
body $-1 $9 $-1 $10 #
body $-1 $11 $-1 $12 #
body $-1 $13 $-1 $14 #
body $-1 $15 $-1 $16 #
body $-1 $17 $-1 $18 #
body $-1 $19 $-1 $20 #
body $-1 $21 $-1 $22 #
body $-1 $23 $-1 $24 #
body $-1 $25 $-1 $26 #
lump $-1 $-1 $27 $0 #
transform $-1 1 0 0 0 1 0 0 0 1 60.186162907803578 38.239437577819132 14.47069851000829 1 rotate no_reflect no_shear #
lump $-1 $-1 $28 $1 #
transform $-1 1 0 0 0 1 0 0 0 1 60.186162907803578 9.4594302997806921 26.458541888539251 1 rotate no_reflect no_shear #
lump $-1 $-1 $29 $2 #
transform $-1 1 0 0 0 1 0 0 0 1 60.186162907803578 67.521942478240703 12.167243275776594 1 rotate no_reflect no_shear #
lump $-1 $-1 $30 $3 #
transform $-1 0.85716729658548041 0 0.51503808176128008 0 1 0 -0.51503808176128008 0 0.85716729658548041 -61.996331785214132 54.831764213340229 126.79511227262837 1 rotate no_reflect no_shear #
lump $-1 $-1 $31 $4 #
transform $-1 0.85716729658548041 0 0.51503808176128008 0 -1 0 0.51503808176128008 0 -0.85716729658548041 5.1919680084787263 53.231801818696127 25.013120958743578 1 rotate no_reflect no_shear #
lump $-1 $-1 $32 $5 #
transform $-1 0.85716729658548041 0 0.51503808176128008 0 -1 0 0.51503808176128008 0 -0.85716729658548041 5.1919680084787263 56.431726607984331 25.013120958743578 1 rotate no_reflect no_shear #
lump $-1 $-1 $33 $6 #
transform $-1 0.71933979245794832 0 -0.69465837861970381 0 1 0 0.69465837861970381 0 0.71933979245794832 117.40136662748016 23.739698348191791 187.8006093683756 1 rotate no_reflect no_shear #
lump $-1 $-1 $34 $7 #
transform $-1 0.71933979245794832 0 -0.69465837861970381 0 -1 0 -0.69465837861970381 0 -0.71933979245794832 111.81601677093414 21.673625027350187 20.491405579300093 1 rotate no_reflect no_shear #
lump $-1 $-1 $35 $8 #
transform $-1 0.71933979245794832 0 -0.69465837861970381 0 -1 0 -0.69465837861970381 0 -0.71933979245794832 111.81601677093414 25.80577166903339 20.491405579300093 1 rotate no_reflect no_shear #
shell $-1 $-1 $-1 $36 $-1 $9 #
shell $-1 $-1 $-1 $37 $-1 $11 #
shell $-1 $-1 $-1 $38 $-1 $13 #
shell $-1 $-1 $-1 $39 $-1 $15 #
shell $-1 $-1 $-1 $40 $-1 $17 #
shell $-1 $-1 $-1 $41 $-1 $19 #
shell $-1 $-1 $-1 $42 $-1 $21 #
shell $-1 $-1 $-1 $43 $-1 $23 #
shell $-1 $-1 $-1 $44 $-1 $25 #
face $-1 $45 $46 $27 $-1 $47 forward single #
face $-1 $48 $49 $28 $-1 $50 forward single #
face $-1 $51 $52 $29 $-1 $53 forward single #
face $-1 $54 $55 $30 $-1 $56 forward single #
face $-1 $57 $58 $31 $-1 $59 forward single #
face $-1 $60 $61 $32 $-1 $62 forward single #
face $-1 $63 $64 $33 $-1 $65 forward single #
face $-1 $66 $67 $34 $-1 $68 forward single #
face $-1 $69 $70 $35 $-1 $71 forward single #
face $-1 $72 $73 $27 $-1 $74 reversed single #
loop $-1 $-1 $75 $36 #
plane-surface $-1 0 0 14.47069851000829 0 0 1 1 0 0 forward_v I I I I #
face $-1 $76 $77 $28 $-1 $78 reversed single #
loop $-1 $-1 $79 $37 #
plane-surface $-1 0 0 2.4828551314773275 0 0 1 1 0 0 forward_v I I I I #
face $-1 $80 $81 $29 $-1 $82 reversed single #
loop $-1 $-1 $83 $38 #
plane-surface $-1 0 0 2.4039810583584131 0 0 1 1 0 0 forward_v I I I I #
face $-1 $84 $85 $30 $-1 $86 reversed single #
loop $-1 $-1 $87 $39 #
plane-surface $-1 0 0 120.37232581560717 0 0 1 1 0 0 forward_v I I I I #
face $-1 $88 $89 $31 $-1 $90 forward single #
loop $-1 $91 $92 $40 #
cone-surface $-1 0 0 -0.86320078127384292 0 0 1 0.5 0 0 1 I I 0 1 0.5 forward I I I I #
face $-1 $93 $94 $32 $-1 $95 forward single #
loop $-1 $96 $97 $41 #
cone-surface $-1 0 0 -0.86320078127384292 0 0 1 0.5 0 0 1 I I 0 1 0.5 forward I I I I #
face $-1 $98 $99 $33 $-1 $100 reversed single #
loop $-1 $-1 $101 $42 #
plane-surface $-1 0 0 120.37232581560716 0 0 1 1 0 0 forward_v I I I I #
face $-1 $102 $103 $34 $-1 $104 forward single #
loop $-1 $105 $106 $43 #
cone-surface $-1 0 0 -2.1798760948515277 0 0 1 1 0 0 1 I I 0 1 1 forward I I I I #
face $-1 $107 $108 $35 $-1 $109 forward single #
loop $-1 $110 $111 $44 #
cone-surface $-1 0 0 -2.1798760948515277 0 0 1 1 0 0 1 I I 0 1 1 forward I I I I #
face $-1 $112 $113 $27 $-1 $114 reversed single #
loop $-1 $-1 $115 $45 #
plane-surface $-1 0 0 -14.47069851000829 0 0 1 1 0 0 forward_v I I I I #
coedge $-1 $116 $117 $118 $119 forward $46 $-1 #
face $-1 $120 $121 $28 $-1 $122 reversed single #
loop $-1 $-1 $123 $48 #
plane-surface $-1 0 0 -2.4828551314773275 0 0 1 1 0 0 forward_v I I I I #
coedge $-1 $124 $125 $126 $127 forward $49 $-1 #
face $-1 $128 $129 $29 $-1 $130 reversed single #
loop $-1 $-1 $131 $51 #
plane-surface $-1 0 0 -2.4039810583584131 0 0 1 1 0 0 forward_v I I I I #
coedge $-1 $132 $133 $134 $135 forward $52 $-1 #
face $-1 $136 $137 $30 $-1 $138 reversed single #
loop $-1 $-1 $139 $54 #
plane-surface $-1 0 0 -120.37232581560717 0 0 1 1 0 0 forward_v I I I I #
coedge $-1 $140 $141 $142 $143 forward $55 $-1 #
face $-1 $-1 $144 $31 $-1 $145 forward single #
loop $-1 $-1 $146 $57 #
plane-surface $-1 0 0 -1.4764015625476858 0 0 -1 -1 0 0 forward_v I I I I #
loop $-1 $-1 $147 $40 #
coedge $-1 $92 $92 $146 $148 reversed $58 $-1 #
face $-1 $-1 $149 $32 $-1 $150 forward single #
loop $-1 $-1 $151 $60 #
plane-surface $-1 0 0 -1.4764015625476858 0 0 -1 -1 0 0 forward_v I I I I #
loop $-1 $-1 $152 $41 #
coedge $-1 $97 $97 $151 $153 reversed $61 $-1 #
face $-1 $154 $155 $33 $-1 $156 reversed single #
loop $-1 $-1 $157 $63 #
plane-surface $-1 0 0 -120.37232581560716 0 0 1 1 0 0 forward_v I I I I #
coedge $-1 $158 $159 $160 $161 forward $64 $-1 #
face $-1 $-1 $162 $34 $-1 $163 forward single #
loop $-1 $-1 $164 $66 #
plane-surface $-1 0 0 -3.8597521897030553 0 0 -1 -1 0 0 forward_v I I I I #
loop $-1 $-1 $165 $43 #
coedge $-1 $106 $106 $164 $166 reversed $67 $-1 #
face $-1 $-1 $167 $35 $-1 $168 forward single #
loop $-1 $-1 $169 $69 #
plane-surface $-1 0 0 -3.8597521897030553 0 0 -1 -1 0 0 forward_v I I I I #
loop $-1 $-1 $170 $44 #
coedge $-1 $111 $111 $169 $171 reversed $70 $-1 #
face $-1 $172 $173 $27 $-1 $174 reversed single #
loop $-1 $-1 $175 $72 #
plane-surface $-1 0 -38.239437577819132 0 0 1 0 0 0 1 forward_v I I I I #
coedge $-1 $176 $177 $178 $179 forward $73 $-1 #
coedge $-1 $180 $75 $181 $182 forward $46 $-1 #
coedge $-1 $75 $180 $183 $184 forward $46 $-1 #
coedge $-1 $185 $186 $75 $119 reversed $187 $-1 #
edge $-1 $188 -38.239437577819132 $189 38.239437577819132 $118 $190 forward 7 unknown #
face $-1 $191 $192 $28 $-1 $193 reversed single #
loop $-1 $-1 $194 $76 #
plane-surface $-1 0 -9.4594302997806921 0 0 1 0 0 0 1 forward_v I I I I #
coedge $-1 $195 $196 $197 $198 forward $77 $-1 #
coedge $-1 $199 $79 $200 $201 forward $49 $-1 #
coedge $-1 $79 $199 $202 $203 forward $49 $-1 #
coedge $-1 $204 $205 $79 $127 reversed $206 $-1 #
edge $-1 $207 -9.4594302997806921 $208 9.4594302997806921 $126 $209 forward 7 unknown #
face $-1 $210 $211 $29 $-1 $212 reversed single #
loop $-1 $-1 $213 $80 #
plane-surface $-1 0 -8.9569326773975675 0 0 1 0 0 0 1 forward_v I I I I #
coedge $-1 $214 $215 $216 $217 forward $81 $-1 #
coedge $-1 $218 $83 $219 $220 forward $52 $-1 #
coedge $-1 $83 $218 $221 $222 forward $52 $-1 #
coedge $-1 $223 $224 $83 $135 reversed $225 $-1 #
edge $-1 $226 -8.9569326773975675 $227 8.9569326773975675 $134 $228 forward 7 unknown #
face $-1 $229 $230 $30 $-1 $231 reversed single #
loop $-1 $-1 $232 $84 #
plane-surface $-1 0 -3.7332455875028998 0 0 1 0 0 0 1 forward_v I I I I #
coedge $-1 $233 $234 $235 $236 forward $85 $-1 #
coedge $-1 $237 $87 $238 $239 forward $55 $-1 #
coedge $-1 $87 $237 $240 $241 forward $55 $-1 #
coedge $-1 $242 $243 $87 $143 reversed $244 $-1 #
edge $-1 $245 -3.7332455875028998 $246 3.7332455875028998 $142 $247 forward 7 unknown #
loop $-1 $248 $249 $88 #
cone-surface $-1 0 0 0 0 0 1 0.25 0 0 1 I I -0.70710678118654746 0.70710678118654746 0.25 forward I I I I #
coedge $-1 $146 $146 $92 $148 forward $89 $-1 #
coedge $-1 $147 $147 $249 $250 forward $91 $-1 #
edge $-1 $251 0 $251 6.2831853071796004 $146 $252 forward 7 unknown #
loop $-1 $253 $254 $93 #
cone-surface $-1 0 0 0 0 0 1 0.25 0 0 1 I I -0.70710678118654746 0.70710678118654746 0.25 forward I I I I #
coedge $-1 $151 $151 $97 $153 forward $94 $-1 #
coedge $-1 $152 $152 $254 $255 forward $96 $-1 #
edge $-1 $256 0 $256 6.2831853071796004 $151 $257 forward 7 unknown #
face $-1 $258 $259 $33 $-1 $260 reversed single #
loop $-1 $-1 $261 $98 #
plane-surface $-1 0 -4.8208377486304066 0 0 1 0 0 0 1 forward_v I I I I #
coedge $-1 $262 $263 $264 $265 forward $99 $-1 #
coedge $-1 $266 $101 $267 $268 forward $64 $-1 #
coedge $-1 $101 $266 $269 $270 forward $64 $-1 #
coedge $-1 $271 $272 $101 $161 reversed $273 $-1 #
edge $-1 $274 -4.8208377486304066 $275 4.8208377486304066 $160 $276 forward 7 unknown #
loop $-1 $277 $278 $102 #
cone-surface $-1 0 0 0 0 0 1 0.5 0 0 1 I I -0.70710678118654746 0.70710678118654746 0.5 forward I I I I #
coedge $-1 $164 $164 $106 $166 forward $103 $-1 #
coedge $-1 $165 $165 $278 $279 forward $105 $-1 #
edge $-1 $280 0 $280 6.2831853071796004 $164 $281 forward 7 unknown #
loop $-1 $282 $283 $107 #
cone-surface $-1 0 0 0 0 0 1 0.5 0 0 1 I I -0.70710678118654746 0.70710678118654746 0.5 forward I I I I #
coedge $-1 $169 $169 $111 $171 forward $108 $-1 #
coedge $-1 $170 $170 $283 $284 forward $110 $-1 #
edge $-1 $285 0 $285 6.2831853071796004 $169 $286 forward 7 unknown #
face $-1 $287 $288 $27 $-1 $289 reversed single #
loop $-1 $-1 $290 $112 #
plane-surface $-1 -60.186162907803578 0 0 1 0 0 0 0 -1 forward_v I I I I #
coedge $-1 $291 $183 $292 $293 forward $113 $-1 #
coedge $-1 $294 $115 $291 $295 forward $73 $-1 #
coedge $-1 $115 $294 $296 $297 forward $73 $-1 #
coedge $-1 $186 $185 $115 $179 reversed $187 $-1 #
edge $-1 $298 -38.239437577819132 $299 38.239437577819132 $178 $300 forward 7 unknown #
coedge $-1 $117 $116 $301 $302 forward $46 $-1 #
coedge $-1 $303 $304 $116 $182 reversed $288 $-1 #
edge $-1 $189 -60.186162907803578 $305 60.186162907803578 $181 $306 forward 7 unknown #
coedge $-1 $175 $307 $117 $184 reversed $113 $-1 #
edge $-1 $308 -60.186162907803578 $188 60.186162907803578 $183 $309 forward 7 unknown #
coedge $-1 $178 $118 $307 $310 forward $187 $-1 #
coedge $-1 $118 $178 $303 $311 reversed $187 $-1 #
loop $-1 $-1 $185 $287 #
vertex $-1 $119 $312 #
vertex $-1 $119 $313 #
straight-curve $-1 60.186162907803578 0 14.47069851000829 0 1 0 I I #
face $-1 $314 $315 $28 $-1 $316 reversed single #
loop $-1 $-1 $317 $120 #
plane-surface $-1 -60.186162907803578 0 0 1 0 0 0 0 -1 forward_v I I I I #
coedge $-1 $318 $202 $319 $320 forward $121 $-1 #
coedge $-1 $321 $123 $318 $322 forward $77 $-1 #
coedge $-1 $123 $321 $323 $324 forward $77 $-1 #
coedge $-1 $205 $204 $123 $198 reversed $206 $-1 #
edge $-1 $325 -9.4594302997806921 $326 9.4594302997806921 $197 $327 forward 7 unknown #
coedge $-1 $125 $124 $328 $329 forward $49 $-1 #
coedge $-1 $330 $331 $124 $201 reversed $315 $-1 #
edge $-1 $208 -60.186162907803578 $332 60.186162907803578 $200 $333 forward 7 unknown #
coedge $-1 $194 $334 $125 $203 reversed $121 $-1 #
edge $-1 $335 -60.186162907803578 $207 60.186162907803578 $202 $336 forward 7 unknown #
coedge $-1 $197 $126 $334 $337 forward $206 $-1 #
coedge $-1 $126 $197 $330 $338 reversed $206 $-1 #
loop $-1 $-1 $204 $314 #
vertex $-1 $127 $339 #
vertex $-1 $127 $340 #
straight-curve $-1 60.186162907803578 0 2.4828551314773275 0 1 0 I I #
face $-1 $341 $342 $29 $-1 $343 reversed single #
loop $-1 $-1 $344 $128 #
plane-surface $-1 -60.186162907803578 0 0 1 0 0 0 0 -1 forward_v I I I I #
coedge $-1 $345 $221 $346 $347 forward $129 $-1 #
coedge $-1 $348 $131 $345 $349 forward $81 $-1 #
coedge $-1 $131 $348 $350 $351 forward $81 $-1 #
coedge $-1 $224 $223 $131 $217 reversed $225 $-1 #
edge $-1 $352 -8.9569326773975675 $353 8.9569326773975675 $216 $354 forward 7 unknown #
coedge $-1 $133 $132 $355 $356 forward $52 $-1 #
coedge $-1 $357 $358 $132 $220 reversed $342 $-1 #
edge $-1 $227 -60.186162907803578 $359 60.186162907803578 $219 $360 forward 7 unknown #
coedge $-1 $213 $361 $133 $222 reversed $129 $-1 #
edge $-1 $362 -60.186162907803578 $226 60.186162907803578 $221 $363 forward 7 unknown #
coedge $-1 $216 $134 $361 $364 forward $225 $-1 #
coedge $-1 $134 $216 $357 $365 reversed $225 $-1 #
loop $-1 $-1 $223 $341 #
vertex $-1 $135 $366 #
vertex $-1 $135 $367 #
straight-curve $-1 60.186162907803578 0 2.4039810583584131 0 1 0 I I #
face $-1 $368 $369 $30 $-1 $370 reversed single #
loop $-1 $-1 $371 $136 #
plane-surface $-1 -240.74465163121431 0 0 1 0 0 0 0 -1 forward_v I I I I #
coedge $-1 $372 $240 $373 $374 forward $137 $-1 #
coedge $-1 $375 $139 $372 $376 forward $85 $-1 #
coedge $-1 $139 $375 $377 $378 forward $85 $-1 #
coedge $-1 $243 $242 $139 $236 reversed $244 $-1 #
edge $-1 $379 -3.7332455875028998 $380 3.7332455875028998 $235 $381 forward 7 unknown #
coedge $-1 $141 $140 $382 $383 forward $55 $-1 #
coedge $-1 $384 $385 $140 $239 reversed $369 $-1 #
edge $-1 $246 -240.74465163121431 $386 240.74465163121431 $238 $387 forward 7 unknown #
coedge $-1 $232 $388 $141 $241 reversed $137 $-1 #
edge $-1 $389 -240.74465163121431 $245 240.74465163121431 $240 $390 forward 7 unknown #
coedge $-1 $235 $142 $388 $391 forward $244 $-1 #
coedge $-1 $142 $235 $384 $392 reversed $244 $-1 #
loop $-1 $-1 $242 $368 #
vertex $-1 $143 $393 #
vertex $-1 $143 $394 #
straight-curve $-1 240.74465163121431 0 120.37232581560717 0 1 0 I I #
loop $-1 $-1 $395 $88 #
coedge $-1 $249 $249 $147 $250 reversed $144 $-1 #
edge $-1 $396 0 $396 6.2831853071796004 $249 $397 forward 7 unknown #
vertex $-1 $148 $398 #
ellipse-curve $-1 0 0 -1.4764015625476858 0 0 -1 0.5 0 0 1 I I #
loop $-1 $-1 $399 $93 #
coedge $-1 $254 $254 $152 $255 reversed $149 $-1 #
edge $-1 $400 0 $400 6.2831853071796004 $254 $401 forward 7 unknown #
vertex $-1 $153 $402 #
ellipse-curve $-1 0 0 -1.4764015625476858 0 0 -1 0.5 0 0 1 I I #
face $-1 $403 $404 $33 $-1 $405 reversed single #
loop $-1 $-1 $406 $154 #
plane-surface $-1 -240.74465163121431 0 0 1 0 0 0 0 -1 forward_v I I I I #
coedge $-1 $407 $269 $408 $409 forward $155 $-1 #
coedge $-1 $410 $157 $407 $411 forward $99 $-1 #
coedge $-1 $157 $410 $412 $413 forward $99 $-1 #
coedge $-1 $272 $271 $157 $265 reversed $273 $-1 #
edge $-1 $414 -4.8208377486304066 $415 4.8208377486304066 $264 $416 forward 7 unknown #
coedge $-1 $159 $158 $417 $418 forward $64 $-1 #
coedge $-1 $419 $420 $158 $268 reversed $404 $-1 #
edge $-1 $275 -240.74465163121431 $421 240.74465163121431 $267 $422 forward 7 unknown #
coedge $-1 $261 $423 $159 $270 reversed $155 $-1 #
edge $-1 $424 -240.74465163121431 $274 240.74465163121431 $269 $425 forward 7 unknown #
coedge $-1 $264 $160 $423 $426 forward $273 $-1 #
coedge $-1 $160 $264 $419 $427 reversed $273 $-1 #
loop $-1 $-1 $271 $403 #
vertex $-1 $161 $428 #
vertex $-1 $161 $429 #
straight-curve $-1 240.74465163121431 0 120.37232581560716 0 1 0 I I #
loop $-1 $-1 $430 $102 #
coedge $-1 $278 $278 $165 $279 reversed $162 $-1 #
edge $-1 $431 0 $431 6.2831853071796004 $278 $432 forward 7 unknown #
vertex $-1 $166 $433 #
ellipse-curve $-1 0 0 -3.8597521897030553 0 0 -1 1 0 0 1 I I #
loop $-1 $-1 $434 $107 #
coedge $-1 $283 $283 $170 $284 reversed $167 $-1 #
edge $-1 $435 0 $435 6.2831853071796004 $283 $436 forward 7 unknown #
vertex $-1 $171 $437 #
ellipse-curve $-1 0 0 -3.8597521897030553 0 0 -1 1 0 0 1 I I #
face $-1 $-1 $187 $27 $-1 $438 reversed single #
loop $-1 $-1 $303 $172 #
plane-surface $-1 0 38.239437577819132 0 0 -1 0 0 0 -1 forward_v I I I I #
coedge $-1 $439 $301 $304 $440 forward $173 $-1 #
coedge $-1 $307 $175 $176 $295 reversed $113 $-1 #
coedge $-1 $301 $439 $175 $293 reversed $173 $-1 #
edge $-1 $308 -14.47069851000829 $441 14.47069851000829 $292 $442 forward 7 unknown #
coedge $-1 $177 $176 $439 $443 forward $73 $-1 #
edge $-1 $299 -60.186162907803578 $441 60.186162907803578 $291 $444 forward 7 unknown #
coedge $-1 $304 $303 $177 $297 reversed $288 $-1 #
edge $-1 $445 -60.186162907803578 $298 60.186162907803578 $296 $446 forward 7 unknown #
vertex $-1 $179 $447 #
vertex $-1 $310 $448 #
straight-curve $-1 60.186162907803578 0 -14.47069851000829 0 -1 0 I I #
coedge $-1 $290 $292 $180 $302 reversed $173 $-1 #
edge $-1 $305 -38.239437577819132 $308 38.239437577819132 $301 $449 forward 7 unknown #
coedge $-1 $296 $181 $186 $311 forward $288 $-1 #
coedge $-1 $181 $296 $290 $440 reversed $288 $-1 #
vertex $-1 $182 $450 #
straight-curve $-1 0 38.239437577819132 14.47069851000829 -1 0 0 I I #
coedge $-1 $183 $291 $185 $310 reversed $113 $-1 #
vertex $-1 $302 $451 #
straight-curve $-1 0 -38.239437577819132 14.47069851000829 1 0 0 I I #
edge $-1 $188 -14.47069851000829 $299 14.47069851000829 $185 $452 forward 7 unknown #
edge $-1 $189 -14.47069851000829 $298 14.47069851000829 $186 $453 forward 7 unknown #
point $-1 60.186162907803578 -38.239437577819132 14.47069851000829 #
point $-1 60.186162907803578 38.239437577819132 14.47069851000829 #
face $-1 $-1 $206 $28 $-1 $454 reversed single #
loop $-1 $-1 $330 $191 #
plane-surface $-1 0 9.4594302997806921 0 0 -1 0 0 0 -1 forward_v I I I I #
coedge $-1 $455 $328 $331 $456 forward $192 $-1 #
coedge $-1 $334 $194 $195 $322 reversed $121 $-1 #
coedge $-1 $328 $455 $194 $320 reversed $192 $-1 #
edge $-1 $335 -2.4828551314773275 $457 2.4828551314773275 $319 $458 forward 7 unknown #
coedge $-1 $196 $195 $455 $459 forward $77 $-1 #
edge $-1 $326 -60.186162907803578 $457 60.186162907803578 $318 $460 forward 7 unknown #
coedge $-1 $331 $330 $196 $324 reversed $315 $-1 #
edge $-1 $461 -60.186162907803578 $325 60.186162907803578 $323 $462 forward 7 unknown #
vertex $-1 $198 $463 #
vertex $-1 $337 $464 #
straight-curve $-1 60.186162907803578 0 -2.4828551314773275 0 -1 0 I I #
coedge $-1 $317 $319 $199 $329 reversed $192 $-1 #
edge $-1 $332 -9.4594302997806921 $335 9.4594302997806921 $328 $465 forward 7 unknown #
coedge $-1 $323 $200 $205 $338 forward $315 $-1 #
coedge $-1 $200 $323 $317 $456 reversed $315 $-1 #
vertex $-1 $201 $466 #
straight-curve $-1 0 9.4594302997806921 2.4828551314773275 -1 0 0 I I #
coedge $-1 $202 $318 $204 $337 reversed $121 $-1 #
vertex $-1 $329 $467 #
straight-curve $-1 0 -9.4594302997806921 2.4828551314773275 1 0 0 I I #
edge $-1 $207 -2.4828551314773275 $326 2.4828551314773275 $204 $468 forward 7 unknown #
edge $-1 $208 -2.4828551314773275 $325 2.4828551314773275 $205 $469 forward 7 unknown #
point $-1 60.186162907803578 -9.4594302997806921 2.4828551314773275 #
point $-1 60.186162907803578 9.4594302997806921 2.4828551314773275 #
face $-1 $-1 $225 $29 $-1 $470 reversed single #
loop $-1 $-1 $357 $210 #
plane-surface $-1 0 8.9569326773975675 0 0 -1 0 0 0 -1 forward_v I I I I #
coedge $-1 $471 $355 $358 $472 forward $211 $-1 #
coedge $-1 $361 $213 $214 $349 reversed $129 $-1 #
coedge $-1 $355 $471 $213 $347 reversed $211 $-1 #
edge $-1 $362 -2.4039810583584131 $473 2.4039810583584131 $346 $474 forward 7 unknown #
coedge $-1 $215 $214 $471 $475 forward $81 $-1 #
edge $-1 $353 -60.186162907803578 $473 60.186162907803578 $345 $476 forward 7 unknown #
coedge $-1 $358 $357 $215 $351 reversed $342 $-1 #
edge $-1 $477 -60.186162907803578 $352 60.186162907803578 $350 $478 forward 7 unknown #
vertex $-1 $217 $479 #
vertex $-1 $364 $480 #
straight-curve $-1 60.186162907803578 0 -2.4039810583584131 0 -1 0 I I #
coedge $-1 $344 $346 $218 $356 reversed $211 $-1 #
edge $-1 $359 -8.9569326773975675 $362 8.9569326773975675 $355 $481 forward 7 unknown #
coedge $-1 $350 $219 $224 $365 forward $342 $-1 #
coedge $-1 $219 $350 $344 $472 reversed $342 $-1 #
vertex $-1 $220 $482 #
straight-curve $-1 0 8.9569326773975675 2.4039810583584131 -1 0 0 I I #
coedge $-1 $221 $345 $223 $364 reversed $129 $-1 #
vertex $-1 $356 $483 #
straight-curve $-1 0 -8.9569326773975675 2.4039810583584131 1 0 0 I I #
edge $-1 $226 -2.4039810583584131 $353 2.4039810583584131 $223 $484 forward 7 unknown #
edge $-1 $227 -2.4039810583584131 $352 2.4039810583584131 $224 $485 forward 7 unknown #
point $-1 60.186162907803578 -8.9569326773975675 2.4039810583584131 #
point $-1 60.186162907803578 8.9569326773975675 2.4039810583584131 #
face $-1 $-1 $244 $30 $-1 $486 reversed single #
loop $-1 $-1 $384 $229 #
plane-surface $-1 0 3.7332455875028998 0 0 -1 0 0 0 -1 forward_v I I I I #
coedge $-1 $487 $382 $385 $488 forward $230 $-1 #
coedge $-1 $388 $232 $233 $376 reversed $137 $-1 #
coedge $-1 $382 $487 $232 $374 reversed $230 $-1 #
edge $-1 $389 -120.37232581560717 $489 120.37232581560717 $373 $490 forward 7 unknown #
coedge $-1 $234 $233 $487 $491 forward $85 $-1 #
edge $-1 $380 -240.74465163121431 $489 240.74465163121431 $372 $492 forward 7 unknown #
coedge $-1 $385 $384 $234 $378 reversed $369 $-1 #
edge $-1 $493 -240.74465163121431 $379 240.74465163121431 $377 $494 forward 7 unknown #
vertex $-1 $236 $495 #
vertex $-1 $391 $496 #
straight-curve $-1 240.74465163121431 0 -120.37232581560717 0 -1 0 I I #
coedge $-1 $371 $373 $237 $383 reversed $230 $-1 #
edge $-1 $386 -3.7332455875028998 $389 3.7332455875028998 $382 $497 forward 7 unknown #
coedge $-1 $377 $238 $243 $392 forward $369 $-1 #
coedge $-1 $238 $377 $371 $488 reversed $369 $-1 #
vertex $-1 $239 $498 #
straight-curve $-1 0 3.7332455875028998 120.37232581560717 -1 0 0 I I #
coedge $-1 $240 $372 $242 $391 reversed $137 $-1 #
vertex $-1 $383 $499 #
straight-curve $-1 0 -3.7332455875028998 120.37232581560717 1 0 0 I I #
edge $-1 $245 -120.37232581560717 $380 120.37232581560717 $242 $500 forward 7 unknown #
edge $-1 $246 -120.37232581560717 $379 120.37232581560717 $243 $501 forward 7 unknown #
point $-1 240.74465163121431 -3.7332455875028998 120.37232581560717 #
point $-1 240.74465163121431 3.7332455875028998 120.37232581560717 #
coedge $-1 $395 $395 $-1 $502 reversed $248 $-1 #
vertex $-1 $250 $503 #
ellipse-curve $-1 0 0 -0.25 0 0 -1 0.5 0 0 1 I I #
point $-1 0.5 0 -1.4764015625476858 #
coedge $-1 $399 $399 $-1 $504 reversed $253 $-1 #
vertex $-1 $255 $505 #
ellipse-curve $-1 0 0 -0.25 0 0 -1 0.5 0 0 1 I I #
point $-1 0.5 0 -1.4764015625476858 #
face $-1 $-1 $273 $33 $-1 $506 reversed single #
loop $-1 $-1 $419 $258 #
plane-surface $-1 0 4.8208377486304066 0 0 -1 0 0 0 -1 forward_v I I I I #
coedge $-1 $507 $417 $420 $508 forward $259 $-1 #
coedge $-1 $423 $261 $262 $411 reversed $155 $-1 #
coedge $-1 $417 $507 $261 $409 reversed $259 $-1 #
edge $-1 $424 -120.37232581560716 $509 120.37232581560716 $408 $510 forward 7 unknown #
coedge $-1 $263 $262 $507 $511 forward $99 $-1 #
edge $-1 $415 -240.74465163121431 $509 240.74465163121431 $407 $512 forward 7 unknown #
coedge $-1 $420 $419 $263 $413 reversed $404 $-1 #
edge $-1 $513 -240.74465163121431 $414 240.74465163121431 $412 $514 forward 7 unknown #
vertex $-1 $265 $515 #
vertex $-1 $426 $516 #
straight-curve $-1 240.74465163121431 0 -120.37232581560716 0 -1 0 I I #
coedge $-1 $406 $408 $266 $418 reversed $259 $-1 #
edge $-1 $421 -4.8208377486304066 $424 4.8208377486304066 $417 $517 forward 7 unknown #
coedge $-1 $412 $267 $272 $427 forward $404 $-1 #
coedge $-1 $267 $412 $406 $508 reversed $404 $-1 #
vertex $-1 $268 $518 #
straight-curve $-1 0 4.8208377486304066 120.37232581560716 -1 0 0 I I #
coedge $-1 $269 $407 $271 $426 reversed $155 $-1 #
vertex $-1 $418 $519 #
straight-curve $-1 0 -4.8208377486304066 120.37232581560716 1 0 0 I I #
edge $-1 $274 -120.37232581560716 $415 120.37232581560716 $271 $520 forward 7 unknown #
edge $-1 $275 -120.37232581560716 $414 120.37232581560716 $272 $521 forward 7 unknown #
point $-1 240.74465163121431 -4.8208377486304066 120.37232581560716 #
point $-1 240.74465163121431 4.8208377486304066 120.37232581560716 #
coedge $-1 $430 $430 $-1 $522 reversed $277 $-1 #
vertex $-1 $279 $523 #
ellipse-curve $-1 0 0 -0.5 0 0 -1 1 0 0 1 I I #
point $-1 1 0 -3.8597521897030553 #
coedge $-1 $434 $434 $-1 $524 reversed $282 $-1 #
vertex $-1 $284 $525 #
ellipse-curve $-1 0 0 -0.5 0 0 -1 1 0 0 1 I I #
point $-1 1 0 -3.8597521897030553 #
plane-surface $-1 60.186162907803578 0 0 -1 0 0 0 0 1 forward_v I I I I #
coedge $-1 $292 $290 $294 $443 reversed $173 $-1 #
edge $-1 $305 -14.47069851000829 $445 14.47069851000829 $304 $526 forward 7 unknown #
vertex $-1 $443 $527 #
straight-curve $-1 -60.186162907803578 -38.239437577819132 0 0 0 -1 I I #
edge $-1 $441 -38.239437577819132 $445 38.239437577819132 $439 $528 forward 7 unknown #
straight-curve $-1 0 -38.239437577819132 -14.47069851000829 -1 0 0 I I #
vertex $-1 $297 $529 #
straight-curve $-1 0 38.239437577819132 -14.47069851000829 1 0 0 I I #
point $-1 60.186162907803578 38.239437577819132 -14.47069851000829 #
point $-1 60.186162907803578 -38.239437577819132 -14.47069851000829 #
straight-curve $-1 -60.186162907803578 0 14.47069851000829 0 -1 0 I I #
point $-1 -60.186162907803578 38.239437577819132 14.47069851000829 #
point $-1 -60.186162907803578 -38.239437577819132 14.47069851000829 #
straight-curve $-1 60.186162907803578 -38.239437577819132 0 0 0 -1 I I #
straight-curve $-1 60.186162907803578 38.239437577819132 0 0 0 -1 I I #
plane-surface $-1 60.186162907803578 0 0 -1 0 0 0 0 1 forward_v I I I I #
coedge $-1 $319 $317 $321 $459 reversed $192 $-1 #
edge $-1 $332 -2.4828551314773275 $461 2.4828551314773275 $331 $530 forward 7 unknown #
vertex $-1 $459 $531 #
straight-curve $-1 -60.186162907803578 -9.4594302997806921 0 0 0 -1 I I #
edge $-1 $457 -9.4594302997806921 $461 9.4594302997806921 $455 $532 forward 7 unknown #
straight-curve $-1 0 -9.4594302997806921 -2.4828551314773275 -1 0 0 I I #
vertex $-1 $324 $533 #
straight-curve $-1 0 9.4594302997806921 -2.4828551314773275 1 0 0 I I #
point $-1 60.186162907803578 9.4594302997806921 -2.4828551314773275 #
point $-1 60.186162907803578 -9.4594302997806921 -2.4828551314773275 #
straight-curve $-1 -60.186162907803578 0 2.4828551314773275 0 -1 0 I I #
point $-1 -60.186162907803578 9.4594302997806921 2.4828551314773275 #
point $-1 -60.186162907803578 -9.4594302997806921 2.4828551314773275 #
straight-curve $-1 60.186162907803578 -9.4594302997806921 0 0 0 -1 I I #
straight-curve $-1 60.186162907803578 9.4594302997806921 0 0 0 -1 I I #
plane-surface $-1 60.186162907803578 0 0 -1 0 0 0 0 1 forward_v I I I I #
coedge $-1 $346 $344 $348 $475 reversed $211 $-1 #
edge $-1 $359 -2.4039810583584131 $477 2.4039810583584131 $358 $534 forward 7 unknown #
vertex $-1 $475 $535 #
straight-curve $-1 -60.186162907803578 -8.9569326773975675 0 0 0 -1 I I #
edge $-1 $473 -8.9569326773975675 $477 8.9569326773975675 $471 $536 forward 7 unknown #
straight-curve $-1 0 -8.9569326773975675 -2.4039810583584131 -1 0 0 I I #
vertex $-1 $351 $537 #
straight-curve $-1 0 8.9569326773975675 -2.4039810583584131 1 0 0 I I #
point $-1 60.186162907803578 8.9569326773975675 -2.4039810583584131 #
point $-1 60.186162907803578 -8.9569326773975675 -2.4039810583584131 #
straight-curve $-1 -60.186162907803578 0 2.4039810583584131 0 -1 0 I I #
point $-1 -60.186162907803578 8.9569326773975675 2.4039810583584131 #
point $-1 -60.186162907803578 -8.9569326773975675 2.4039810583584131 #
straight-curve $-1 60.186162907803578 -8.9569326773975675 0 0 0 -1 I I #
straight-curve $-1 60.186162907803578 8.9569326773975675 0 0 0 -1 I I #
plane-surface $-1 240.74465163121431 0 0 -1 0 0 0 0 1 forward_v I I I I #
coedge $-1 $373 $371 $375 $491 reversed $230 $-1 #
edge $-1 $386 -120.37232581560717 $493 120.37232581560717 $385 $538 forward 7 unknown #
vertex $-1 $491 $539 #
straight-curve $-1 -240.74465163121431 -3.7332455875028998 0 0 0 -1 I I #
edge $-1 $489 -3.7332455875028998 $493 3.7332455875028998 $487 $540 forward 7 unknown #
straight-curve $-1 0 -3.7332455875028998 -120.37232581560717 -1 0 0 I I #
vertex $-1 $378 $541 #
straight-curve $-1 0 3.7332455875028998 -120.37232581560717 1 0 0 I I #
point $-1 240.74465163121431 3.7332455875028998 -120.37232581560717 #
point $-1 240.74465163121431 -3.7332455875028998 -120.37232581560717 #
straight-curve $-1 -240.74465163121431 0 120.37232581560717 0 -1 0 I I #
point $-1 -240.74465163121431 3.7332455875028998 120.37232581560717 #
point $-1 -240.74465163121431 -3.7332455875028998 120.37232581560717 #
straight-curve $-1 240.74465163121431 -3.7332455875028998 0 0 0 -1 I I #
straight-curve $-1 240.74465163121431 3.7332455875028998 0 0 0 -1 I I #
edge $-1 $542 1 $542 0 $395 $-1 forward 7 unknown #
point $-1 0.5 0 -0.25 #
edge $-1 $543 1 $543 0 $399 $-1 forward 7 unknown #
point $-1 0.5 0 -0.25 #
plane-surface $-1 240.74465163121431 0 0 -1 0 0 0 0 1 forward_v I I I I #
coedge $-1 $408 $406 $410 $511 reversed $259 $-1 #
edge $-1 $421 -120.37232581560716 $513 120.37232581560716 $420 $544 forward 7 unknown #
vertex $-1 $511 $545 #
straight-curve $-1 -240.74465163121431 -4.8208377486304066 0 0 0 -1 I I #
edge $-1 $509 -4.8208377486304066 $513 4.8208377486304066 $507 $546 forward 7 unknown #
straight-curve $-1 0 -4.8208377486304066 -120.37232581560716 -1 0 0 I I #
vertex $-1 $413 $547 #
straight-curve $-1 0 4.8208377486304066 -120.37232581560716 1 0 0 I I #
point $-1 240.74465163121431 4.8208377486304066 -120.37232581560716 #
point $-1 240.74465163121431 -4.8208377486304066 -120.37232581560716 #
straight-curve $-1 -240.74465163121431 0 120.37232581560716 0 -1 0 I I #
point $-1 -240.74465163121431 4.8208377486304066 120.37232581560716 #
point $-1 -240.74465163121431 -4.8208377486304066 120.37232581560716 #
straight-curve $-1 240.74465163121431 -4.8208377486304066 0 0 0 -1 I I #
straight-curve $-1 240.74465163121431 4.8208377486304066 0 0 0 -1 I I #
edge $-1 $548 1 $548 0 $430 $-1 forward 7 unknown #
point $-1 1 0 -0.5 #
edge $-1 $549 1 $549 0 $434 $-1 forward 7 unknown #
point $-1 1 0 -0.5 #
straight-curve $-1 -60.186162907803578 38.239437577819132 0 0 0 -1 I I #
point $-1 -60.186162907803578 -38.239437577819132 -14.47069851000829 #
straight-curve $-1 -60.186162907803578 0 -14.47069851000829 0 1 0 I I #
point $-1 -60.186162907803578 38.239437577819132 -14.47069851000829 #
straight-curve $-1 -60.186162907803578 9.4594302997806921 0 0 0 -1 I I #
point $-1 -60.186162907803578 -9.4594302997806921 -2.4828551314773275 #
straight-curve $-1 -60.186162907803578 0 -2.4828551314773275 0 1 0 I I #
point $-1 -60.186162907803578 9.4594302997806921 -2.4828551314773275 #
straight-curve $-1 -60.186162907803578 8.9569326773975675 0 0 0 -1 I I #
point $-1 -60.186162907803578 -8.9569326773975675 -2.4039810583584131 #
straight-curve $-1 -60.186162907803578 0 -2.4039810583584131 0 1 0 I I #
point $-1 -60.186162907803578 8.9569326773975675 -2.4039810583584131 #
straight-curve $-1 -240.74465163121431 3.7332455875028998 0 0 0 -1 I I #
point $-1 -240.74465163121431 -3.7332455875028998 -120.37232581560717 #
straight-curve $-1 -240.74465163121431 0 -120.37232581560717 0 1 0 I I #
point $-1 -240.74465163121431 3.7332455875028998 -120.37232581560717 #
vertex $-1 $502 $550 #
vertex $-1 $504 $551 #
straight-curve $-1 -240.74465163121431 4.8208377486304066 0 0 0 -1 I I #
point $-1 -240.74465163121431 -4.8208377486304066 -120.37232581560716 #
straight-curve $-1 -240.74465163121431 0 -120.37232581560716 0 1 0 I I #
point $-1 -240.74465163121431 4.8208377486304066 -120.37232581560716 #
vertex $-1 $522 $552 #
vertex $-1 $524 $553 #
point $-1 0 0 0.25 #
point $-1 0 0 0.25 #
point $-1 0 0 0.5 #
point $-1 0 0 0.5 #
End-of-ACIS-data 