500 0 8 0           
7 Unknown 11 ACIS 5.0 NT 24 Fri Mar 26 19:04:53 1999 
-1 9.9999999999999995e-007 1e-010 
body $-1 $8 $-1 $9 #
body $-1 $10 $-1 $11 #
body $-1 $12 $-1 $13 #
body $-1 $14 $-1 $15 #
body $-1 $16 $-1 $17 #
body $-1 $18 $-1 $19 #
body $-1 $20 $-1 $21 #
body $-1 $22 $-1 $23 #
lump $-1 $-1 $24 $0 #
transform $-1 1 0 0 0 1 0 0 0 1 65.128940702536084 36.17600894975152 8.2917660333937757 1 rotate no_reflect no_shear #
lump $-1 $-1 $25 $1 #
transform $-1 1 0 0 0 1 0 0 0 1 65.128940702536084 36.17600894975152 8.2917660333937757 1 rotate no_reflect no_shear #
lump $-1 $-1 $26 $2 #
transform $-1 1 0 0 0 1 0 0 0 1 65.128940702536084 36.17600894975152 8.2917660333937757 1 rotate no_reflect no_shear #
lump $-1 $-1 $27 $3 #
transform $-1 1 0 0 0 1 0 0 0 1 65.128940702536084 36.17600894975152 8.2917660333937757 1 rotate no_reflect no_shear #
lump $-1 $-1 $28 $4 #
transform $-1 1 0 0 0 1 0 0 0 1 65.128940702536084 36.17600894975152 8.2917660333937757 1 rotate no_reflect no_shear #
lump $-1 $-1 $29 $5 #
transform $-1 1 0 0 0 1 0 0 0 1 65.128940702536084 36.17600894975152 8.2917660333937757 1 rotate no_reflect no_shear #
lump $-1 $-1 $30 $6 #
transform $-1 1 0 0 0 1 0 0 0 1 65.128940702536084 36.17600894975152 8.2917660333937757 1 rotate no_reflect no_shear #
lump $-1 $-1 $31 $7 #
transform $-1 1 0 0 0 1 0 0 0 1 65.128940702536084 36.17600894975152 8.2917660333937757 1 rotate no_reflect no_shear #
shell $-1 $-1 $-1 $32 $-1 $8 #
shell $-1 $-1 $-1 $33 $-1 $10 #
shell $-1 $-1 $-1 $34 $-1 $12 #
shell $-1 $-1 $-1 $35 $-1 $14 #
shell $-1 $-1 $-1 $36 $-1 $16 #
shell $-1 $-1 $-1 $37 $-1 $18 #
shell $-1 $-1 $-1 $38 $-1 $20 #
shell $-1 $-1 $-1 $39 $-1 $22 #
face $-1 $40 $41 $24 $-1 $42 forward single #
face $-1 $43 $44 $25 $-1 $45 forward single #
face $-1 $46 $47 $26 $-1 $48 reversed single #
face $-1 $49 $50 $27 $-1 $51 forward single #
face $-1 $52 $53 $28 $-1 $54 forward single #
face $-1 $55 $56 $29 $-1 $57 reversed single #
face $-1 $58 $59 $30 $-1 $60 forward single #
face $-1 $61 $62 $31 $-1 $63 forward single #
face $-1 $64 $65 $24 $-1 $66 reversed single #
loop $-1 $-1 $67 $32 #
plane-surface $-1 0 0 8.2917660333937757 0 0 1 1 0 0 forward_v I I I I #
face $-1 $68 $69 $25 $-1 $70 reversed single #
loop $-1 $-1 $71 $33 #
plane-surface $-1 -61.381718873212741 0 -4.0332494200458804 0 0 1 1 0 0 forward_v I I I I #
face $-1 $72 $73 $26 $-1 $74 reversed single #
loop $-1 $-1 $75 $34 #
plane-surface $-1 90.766362835432403 -18.402064265331624 182.75401751730689 0 -1 0 -0.79863551827123203 0 -0.60181501223851219 forward_v I I I I #
face $-1 $76 $77 $27 $-1 $78 forward single #
loop $-1 $79 $80 $35 #
cone-surface $-1 60.009096204286621 -28.950830692295298 2.7142515978292856 -0.79863551827123203 0 -0.60181501223851219 0.90272251835776829 0 -1.197953277406848 1 I I 0 1 1.5 forward I I I I #
face $-1 $81 $82 $28 $-1 $83 forward single #
loop $-1 $84 $85 $36 #
cone-surface $-1 60.009096204286621 -22.621570836117094 2.7142515978292856 -0.79863551827123203 0 -0.60181501223851219 0.90272251835776829 0 -1.197953277406848 1 I I 0 1 1.5 forward I I I I #
face $-1 $86 $87 $29 $-1 $88 reversed single #
loop $-1 $-1 $89 $37 #
plane-surface $-1 90.766362835432403 17.773944684419892 182.75401751730689 0 -1 0 -0.79863551827123203 0 -0.60181501223851219 forward_v I I I I #
face $-1 $90 $91 $30 $-1 $92 forward single #
loop $-1 $93 $94 $38 #
cone-surface $-1 60.009096204286621 7.2251782574562213 2.7142515978292856 -0.79863551827123203 0 -0.60181501223851219 0.90272251835776829 0 -1.197953277406848 1 I I 0 1 1.5 forward I I I I #
face $-1 $95 $96 $31 $-1 $97 forward single #
loop $-1 $98 $99 $39 #
cone-surface $-1 60.009096204286621 13.554438113634426 2.7142515978292856 -0.79863551827123203 0 -0.60181501223851219 0.90272251835776829 0 -1.197953277406848 1 I I 0 1 1.5 forward I I I I #
face $-1 $100 $101 $24 $-1 $102 reversed single #
loop $-1 $-1 $103 $40 #
plane-surface $-1 0 0 -8.2917660333937757 0 0 1 1 0 0 forward_v I I I I #
coedge $-1 $104 $105 $106 $107 forward $41 $-1 #
face $-1 $108 $109 $25 $-1 $110 reversed single #
loop $-1 $-1 $111 $43 #
plane-surface $-1 -57.634497043889397 0 -6.162507726719828 -1 0 0 0 0 1 forward_v I I I I #
coedge $-1 $112 $113 $114 $115 forward $44 $-1 #
face $-1 $116 $117 $26 $-1 $118 reversed single #
loop $-1 $-1 $119 $46 #
plane-surface $-1 -13.262207789420088 -25.786200764206196 104.36286902535072 0.79863551827123203 0 0.60181501223851219 0.60181501223851219 0 -0.79863551827123203 forward_v I I I I #
coedge $-1 $120 $121 $122 $123 reversed $47 $-1 #
face $-1 $-1 $124 $27 $-1 $125 forward single #
loop $-1 $126 $127 $49 #
cone-surface $-1 57.288465963754746 -28.950830692295298 0.66410971953369291 -0.79863551827123203 0 -0.60181501223851219 0.45136125917888414 0 -0.59897663870342399 1 I I -0.70710678118654757 0.70710678118654757 0.75 forward I I I I #
loop $-1 $-1 $128 $35 #
coedge $-1 $80 $80 $129 $130 reversed $50 $-1 #
face $-1 $-1 $131 $28 $-1 $132 forward single #
loop $-1 $133 $134 $52 #
cone-surface $-1 57.288465963754746 -22.621570836117094 0.66410971953369291 -0.79863551827123203 0 -0.60181501223851219 0.45136125917888414 0 -0.59897663870342399 1 I I -0.70710678118654757 0.70710678118654757 0.75 forward I I I I #
loop $-1 $-1 $135 $36 #
coedge $-1 $85 $85 $136 $137 reversed $53 $-1 #
face $-1 $138 $139 $29 $-1 $140 reversed single #
loop $-1 $-1 $141 $55 #
plane-surface $-1 -13.262207789420088 10.38980818554532 104.36286902535072 0.79863551827123203 0 0.60181501223851219 0.60181501223851219 0 -0.79863551827123203 forward_v I I I I #
coedge $-1 $142 $143 $144 $145 reversed $56 $-1 #
face $-1 $-1 $146 $30 $-1 $147 forward single #
loop $-1 $148 $149 $58 #
cone-surface $-1 57.288465963754746 7.2251782574562213 0.66410971953369291 -0.79863551827123203 0 -0.60181501223851219 0.45136125917888414 0 -0.59897663870342399 1 I I -0.70710678118654757 0.70710678118654757 0.75 forward I I I I #
loop $-1 $-1 $150 $38 #
coedge $-1 $94 $94 $151 $152 reversed $59 $-1 #
face $-1 $-1 $153 $31 $-1 $154 forward single #
loop $-1 $155 $156 $61 #
cone-surface $-1 57.288465963754746 13.554438113634426 0.66410971953369291 -0.79863551827123203 0 -0.60181501223851219 0.45136125917888414 0 -0.59897663870342399 1 I I -0.70710678118654757 0.70710678118654757 0.75 forward I I I I #
loop $-1 $-1 $157 $39 #
coedge $-1 $99 $99 $158 $159 reversed $62 $-1 #
face $-1 $160 $161 $24 $-1 $162 reversed single #
loop $-1 $-1 $163 $64 #
plane-surface $-1 0 -36.17600894975152 0 0 1 0 0 0 1 forward_v I I I I #
coedge $-1 $164 $165 $166 $167 forward $65 $-1 #
coedge $-1 $168 $67 $169 $170 forward $41 $-1 #
coedge $-1 $67 $168 $171 $172 forward $41 $-1 #
coedge $-1 $173 $174 $67 $107 reversed $175 $-1 #
edge $-1 $176 -36.17600894975152 $177 36.17600894975152 $106 $178 forward 7 unknown #
face $-1 $179 $180 $25 $-1 $181 reversed single #
loop $-1 $-1 $182 $68 #
plane-surface $-1 0 0 -8.2917660333937757 0 0 1 1 0 0 forward_v I I I I #
coedge $-1 $183 $114 $184 $185 reversed $69 $-1 #
coedge $-1 $186 $71 $187 $188 reversed $44 $-1 #
coedge $-1 $71 $186 $189 $190 reversed $44 $-1 #
coedge $-1 $111 $191 $71 $115 reversed $69 $-1 #
edge $-1 $192 -36.17600894975152 $193 36.17600894975152 $114 $194 forward 7 unknown #
face $-1 $195 $196 $26 $-1 $197 forward single #
loop $-1 $-1 $198 $72 #
plane-surface $-1 90.766362835432403 -33.170337263080768 182.75401751730689 0 1 0 0.79863551827123203 0 0.60181501223851219 forward_v I I I I #
coedge $-1 $199 $200 $201 $202 reversed $73 $-1 #
coedge $-1 $121 $75 $203 $204 reversed $47 $-1 #
coedge $-1 $75 $120 $199 $205 reversed $47 $-1 #
coedge $-1 $201 $206 $75 $123 forward $196 $-1 #
edge $-1 $207 -19.745759284819883 $208 -13.749377491977839 $122 $209 forward 7 unknown #
loop $-1 $-1 $129 $76 #
plane-surface $-1 -13.262207789420088 -25.786200764206196 104.36286902535072 0.79863551827123203 0 0.60181501223851219 0.60181501223851219 0 -0.79863551827123203 forward_v I I I I #
loop $-1 $-1 $210 $49 #
coedge $-1 $127 $127 $128 $211 reversed $77 $-1 #
coedge $-1 $128 $128 $127 $211 forward $79 $-1 #
coedge $-1 $129 $129 $80 $130 forward $124 $-1 #
edge $-1 $212 0 $212 6.2831853071796004 $129 $213 forward 7 unknown #
loop $-1 $-1 $136 $81 #
plane-surface $-1 -13.262207789420088 -25.786200764206196 104.36286902535072 0.79863551827123203 0 0.60181501223851219 0.60181501223851219 0 -0.79863551827123203 forward_v I I I I #
loop $-1 $-1 $214 $52 #
coedge $-1 $134 $134 $135 $215 reversed $82 $-1 #
coedge $-1 $135 $135 $134 $215 forward $84 $-1 #
coedge $-1 $136 $136 $85 $137 forward $131 $-1 #
edge $-1 $216 0 $216 6.2831853071796004 $136 $217 forward 7 unknown #
face $-1 $218 $219 $29 $-1 $220 reversed single #
loop $-1 $-1 $221 $86 #
plane-surface $-1 90.766362835432403 3.0056716866707482 182.75401751730689 0 1 0 0.79863551827123203 0 0.60181501223851219 forward_v I I I I #
coedge $-1 $222 $223 $224 $225 reversed $87 $-1 #
coedge $-1 $143 $89 $226 $227 reversed $56 $-1 #
coedge $-1 $89 $142 $222 $228 reversed $56 $-1 #
coedge $-1 $224 $229 $89 $145 forward $230 $-1 #
edge $-1 $231 -19.745759284819883 $232 -13.749377491977839 $144 $233 forward 7 unknown #
loop $-1 $-1 $151 $90 #
plane-surface $-1 -13.262207789420088 10.38980818554532 104.36286902535072 0.79863551827123203 0 0.60181501223851219 0.60181501223851219 0 -0.79863551827123203 forward_v I I I I #
loop $-1 $-1 $234 $58 #
coedge $-1 $149 $149 $150 $235 reversed $91 $-1 #
coedge $-1 $150 $150 $149 $235 forward $93 $-1 #
coedge $-1 $151 $151 $94 $152 forward $146 $-1 #
edge $-1 $236 0 $236 6.2831853071796004 $151 $237 forward 7 unknown #
loop $-1 $-1 $158 $95 #
plane-surface $-1 -13.262207789420088 10.38980818554532 104.36286902535072 0.79863551827123203 0 0.60181501223851219 0.60181501223851219 0 -0.79863551827123203 forward_v I I I I #
loop $-1 $-1 $238 $61 #
coedge $-1 $156 $156 $157 $239 reversed $96 $-1 #
coedge $-1 $157 $157 $156 $239 forward $98 $-1 #
coedge $-1 $158 $158 $99 $159 forward $153 $-1 #
edge $-1 $240 0 $240 6.2831853071796004 $158 $241 forward 7 unknown #
face $-1 $242 $243 $24 $-1 $244 reversed single #
loop $-1 $-1 $245 $100 #
plane-surface $-1 -65.128940702536084 0 0 1 0 0 0 0 -1 forward_v I I I I #
coedge $-1 $246 $171 $247 $248 forward $101 $-1 #
coedge $-1 $249 $103 $246 $250 forward $65 $-1 #
coedge $-1 $103 $249 $251 $252 forward $65 $-1 #
coedge $-1 $174 $173 $103 $167 reversed $175 $-1 #
edge $-1 $253 -36.17600894975152 $254 36.17600894975152 $166 $255 forward 7 unknown #
coedge $-1 $105 $104 $256 $257 forward $41 $-1 #
coedge $-1 $258 $259 $104 $170 reversed $243 $-1 #
edge $-1 $177 -65.128940702536084 $260 65.128940702536084 $169 $261 forward 7 unknown #
coedge $-1 $163 $262 $105 $172 reversed $101 $-1 #
edge $-1 $263 -65.128940702536084 $176 65.128940702536084 $171 $264 forward 7 unknown #
coedge $-1 $166 $106 $262 $265 forward $175 $-1 #
coedge $-1 $106 $166 $258 $266 reversed $175 $-1 #
loop $-1 $-1 $173 $242 #
vertex $-1 $107 $267 #
vertex $-1 $107 $268 #
straight-curve $-1 65.128940702536084 0 8.2917660333937757 0 1 0 I I #
face $-1 $269 $270 $25 $-1 $271 reversed single #
loop $-1 $-1 $184 $108 #
plane-surface $-1 0 -36.17600894975152 0 0 1 0 0 0 1 forward_v I I I I #
coedge $-1 $272 $273 $183 $274 forward $109 $-1 #
coedge $-1 $191 $111 $182 $274 reversed $69 $-1 #
coedge $-1 $189 $275 $111 $185 forward $180 $-1 #
edge $-1 $276 -5.2105121700338621 $192 -0.95199555668596636 $184 $277 forward 7 unknown #
coedge $-1 $113 $112 $278 $279 reversed $44 $-1 #
coedge $-1 $280 $281 $112 $188 forward $282 $-1 #
edge $-1 $283 -34.438081265929711 $193 -26.943637607283026 $187 $284 forward 7 unknown #
coedge $-1 $285 $184 $113 $190 forward $180 $-1 #
edge $-1 $192 26.943637607283026 $286 34.438081265929711 $189 $287 forward 7 unknown #
coedge $-1 $114 $183 $280 $288 reversed $69 $-1 #
vertex $-1 $190 $289 #
vertex $-1 $188 $290 #
straight-curve $-1 -57.634497043889397 0 -4.0332494200458804 0 1 0 I I #
face $-1 $-1 $291 $26 $-1 $292 reversed single #
loop $-1 $-1 $122 $116 #
plane-surface $-1 0 0 8.2917660333937757 0 0 1 1 0 0 forward_v I I I I #
coedge $-1 $293 $294 $295 $296 reversed $117 $-1 #
coedge $-1 $297 $119 $121 $205 forward $73 $-1 #
coedge $-1 $119 $297 $293 $298 forward $73 $-1 #
coedge $-1 $295 $122 $119 $202 forward $196 $-1 #
edge $-1 $208 5.5089638832285264 $299 20.277236880977668 $201 $300 forward 7 unknown #
coedge $-1 $301 $302 $120 $204 forward $291 $-1 #
edge $-1 $303 -91.042710358155219 $207 -83.085242725259675 $203 $304 forward 7 unknown #
edge $-1 $208 120.29405253590204 $303 130.25788140507217 $121 $305 forward 7 unknown #
coedge $-1 $122 $295 $301 $306 forward $196 $-1 #
vertex $-1 $204 $307 #
vertex $-1 $123 $308 #
straight-curve $-1 45.383181417716202 -18.402064265331624 8.2917660333937704 -1 0 0 I I #
coedge $-1 $210 $210 $-1 $309 reversed $126 $-1 #
edge $-1 $310 0 $310 6.2831853071796004 $127 $311 forward 7 unknown #
vertex $-1 $130 $312 #
ellipse-curve $-1 62.13074980611507 -28.950830692295298 4.3130322169459916 0.79863551827123203 0 0.60181501223851219 0.90272251835776829 0 -1.197953277406848 1 I I #
coedge $-1 $214 $214 $-1 $313 reversed $133 $-1 #
edge $-1 $314 0 $314 6.2831853071796004 $134 $315 forward 7 unknown #
vertex $-1 $137 $316 #
ellipse-curve $-1 62.13074980611507 -22.621570836117094 4.3130322169459916 0.79863551827123203 0 0.60181501223851219 0.90272251835776829 0 -1.197953277406848 1 I I #
face $-1 $-1 $230 $29 $-1 $317 forward single #
loop $-1 $-1 $318 $138 #
plane-surface $-1 65.128940702536084 0 0 -1 0 0 0 0 1 forward_v I I I I #
coedge $-1 $319 $320 $321 $322 reversed $139 $-1 #
coedge $-1 $323 $141 $143 $228 forward $87 $-1 #
coedge $-1 $141 $323 $319 $324 forward $87 $-1 #
coedge $-1 $321 $144 $141 $225 forward $230 $-1 #
edge $-1 $232 -12.579040591647232 $325 2.1892324061019117 $224 $326 forward 7 unknown #
coedge $-1 $327 $328 $142 $227 forward $219 $-1 #
edge $-1 $329 -91.042710358155219 $231 -83.085242725259675 $226 $330 forward 7 unknown #
edge $-1 $232 120.29405253590204 $329 130.25788140507217 $143 $331 forward 7 unknown #
coedge $-1 $144 $321 $327 $332 forward $230 $-1 #
loop $-1 $-1 $321 $218 #
vertex $-1 $227 $333 #
vertex $-1 $145 $334 #
straight-curve $-1 45.383181417716202 17.773944684419892 8.2917660333937704 -1 0 0 I I #
coedge $-1 $234 $234 $-1 $335 reversed $148 $-1 #
edge $-1 $336 0 $336 6.2831853071796004 $149 $337 forward 7 unknown #
vertex $-1 $152 $338 #
ellipse-curve $-1 62.13074980611507 7.2251782574562213 4.3130322169459916 0.79863551827123203 0 0.60181501223851219 0.90272251835776829 0 -1.197953277406848 1 I I #
coedge $-1 $238 $238 $-1 $339 reversed $155 $-1 #
edge $-1 $340 0 $340 6.2831853071796004 $156 $341 forward 7 unknown #
vertex $-1 $159 $342 #
ellipse-curve $-1 62.13074980611507 13.554438113634426 4.3130322169459916 0.79863551827123203 0 0.60181501223851219 0.90272251835776829 0 -1.197953277406848 1 I I #
face $-1 $-1 $175 $24 $-1 $343 reversed single #
loop $-1 $-1 $258 $160 #
plane-surface $-1 0 36.17600894975152 0 0 -1 0 0 0 -1 forward_v I I I I #
coedge $-1 $344 $256 $259 $345 forward $161 $-1 #
coedge $-1 $262 $163 $164 $250 reversed $101 $-1 #
coedge $-1 $256 $344 $163 $248 reversed $161 $-1 #
edge $-1 $263 -8.2917660333937757 $346 8.2917660333937757 $247 $347 forward 7 unknown #
coedge $-1 $165 $164 $344 $348 forward $65 $-1 #
edge $-1 $254 -65.128940702536084 $346 65.128940702536084 $246 $349 forward 7 unknown #
coedge $-1 $259 $258 $165 $252 reversed $243 $-1 #
edge $-1 $350 -65.128940702536084 $253 65.128940702536084 $251 $351 forward 7 unknown #
vertex $-1 $167 $352 #
vertex $-1 $265 $353 #
straight-curve $-1 65.128940702536084 0 -8.2917660333937757 0 -1 0 I I #
coedge $-1 $245 $247 $168 $257 reversed $161 $-1 #
edge $-1 $260 -36.17600894975152 $263 36.17600894975152 $256 $354 forward 7 unknown #
coedge $-1 $251 $169 $174 $266 forward $243 $-1 #
coedge $-1 $169 $251 $245 $345 reversed $243 $-1 #
vertex $-1 $170 $355 #
straight-curve $-1 0 36.17600894975152 8.2917660333937757 -1 0 0 I I #
coedge $-1 $171 $246 $173 $265 reversed $101 $-1 #
vertex $-1 $257 $356 #
straight-curve $-1 0 -36.17600894975152 8.2917660333937757 1 0 0 I I #
edge $-1 $176 -8.2917660333937757 $254 8.2917660333937757 $173 $357 forward 7 unknown #
edge $-1 $177 -8.2917660333937757 $253 8.2917660333937757 $174 $358 forward 7 unknown #
point $-1 65.128940702536084 -36.17600894975152 8.2917660333937757 #
point $-1 65.128940702536084 36.17600894975152 8.2917660333937757 #
face $-1 $-1 $282 $25 $-1 $359 reversed single #
loop $-1 $-1 $278 $179 #
plane-surface $-1 -65.128940702536084 0 0 1 0 0 0 0 -1 forward_v I I I I #
coedge $-1 $360 $182 $275 $361 forward $109 $-1 #
coedge $-1 $182 $360 $362 $363 forward $109 $-1 #
edge $-1 $364 -36.17600894975152 $276 36.17600894975152 $182 $365 forward 7 unknown #
coedge $-1 $184 $285 $272 $361 reversed $180 $-1 #
vertex $-1 $361 $366 #
straight-curve $-1 -57.634497043889397 -36.17600894975152 -3.081253863359914 0 0 1 I I #
coedge $-1 $367 $368 $186 $279 forward $270 $-1 #
edge $-1 $286 -36.17600894975152 $283 36.17600894975152 $278 $369 forward 7 unknown #
coedge $-1 $362 $187 $191 $288 forward $282 $-1 #
coedge $-1 $187 $362 $367 $370 reversed $282 $-1 #
loop $-1 $-1 $280 $269 #
vertex $-1 $370 $371 #
straight-curve $-1 -30.69085943660637 36.17600894975152 -4.0332494200458804 1 0 0 I I #
coedge $-1 $275 $189 $368 $372 forward $180 $-1 #
vertex $-1 $372 $373 #
straight-curve $-1 -30.69085943660637 -36.17600894975152 -4.0332494200458804 -1 0 0 I I #
edge $-1 $193 0.95199555668596636 $364 5.2105121700338621 $280 $374 forward 7 unknown #
point $-1 -57.634497043889397 -36.17600894975152 -4.0332494200458804 #
point $-1 -57.634497043889397 36.17600894975152 -4.0332494200458804 #
loop $-1 $-1 $203 $195 #
plane-surface $-1 65.128940702536084 0 0 -1 0 0 0 0 1 forward_v I I I I #
coedge $-1 $294 $198 $200 $298 reversed $117 $-1 #
coedge $-1 $198 $293 $375 $376 reversed $117 $-1 #
coedge $-1 $206 $201 $198 $296 forward $196 $-1 #
edge $-1 $299 13.749377491977839 $377 19.745759284819883 $295 $378 forward 7 unknown #
coedge $-1 $200 $199 $302 $379 reversed $73 $-1 #
edge $-1 $380 -130.25788140507217 $299 -120.29405253590204 $293 $381 forward 7 unknown #
vertex $-1 $202 $382 #
straight-curve $-1 59.132558909694026 -12.893100382103098 8.2917660333937775 0 -1 0 I I #
coedge $-1 $375 $203 $206 $306 reversed $291 $-1 #
coedge $-1 $203 $375 $297 $379 forward $291 $-1 #
vertex $-1 $204 $383 #
straight-curve $-1 65.128940702536084 -18.402064265331624 91.377008758653446 0 0 1 I I #
straight-curve $-1 -13.262207789420088 -18.402064265331624 104.36286902535072 0.60181501223851219 0 -0.79863551827123203 I I #
edge $-1 $377 -33.170337263080768 $207 -18.402064265331624 $301 $384 forward 7 unknown #
point $-1 65.128940702536084 -18.402064265331624 8.2917660333937757 #
point $-1 59.13255890969404 -18.402064265331624 8.2917660333937704 #
edge $-1 $385 1 $385 0 $210 $-1 forward 7 unknown #
vertex $-1 $211 $386 #
ellipse-curve $-1 57.887442602458172 -28.950830692295298 1.1154709787125769 0.79863551827123203 0 0.60181501223851219 0.90272251835776829 0 -1.197953277406848 1 I I #
point $-1 63.033472324472839 -28.950830692295298 3.1150789395391465 #
edge $-1 $387 1 $387 0 $214 $-1 forward 7 unknown #
vertex $-1 $215 $388 #
ellipse-curve $-1 57.887442602458172 -22.621570836117094 1.1154709787125769 0.79863551827123203 0 0.60181501223851219 0.90272251835776829 0 -1.197953277406848 1 I I #
point $-1 63.033472324472839 -22.621570836117094 3.1150789395391465 #
plane-surface $-1 0 0 8.2917660333937757 0 0 1 1 0 0 forward_v I I I I #
coedge $-1 $328 $327 $320 $389 forward $219 $-1 #
coedge $-1 $320 $221 $223 $324 reversed $139 $-1 #
coedge $-1 $221 $319 $318 $389 reversed $139 $-1 #
coedge $-1 $229 $224 $221 $322 forward $230 $-1 #
edge $-1 $325 13.749377491977839 $390 19.745759284819883 $321 $391 forward 7 unknown #
coedge $-1 $223 $222 $328 $392 reversed $87 $-1 #
edge $-1 $393 -130.25788140507217 $325 -120.29405253590204 $319 $394 forward 7 unknown #
vertex $-1 $225 $395 #
straight-curve $-1 59.132558909694026 5.19490409277266 8.2917660333937775 0 -1 0 I I #
coedge $-1 $318 $226 $229 $332 reversed $219 $-1 #
coedge $-1 $226 $318 $323 $392 forward $219 $-1 #
vertex $-1 $227 $396 #
straight-curve $-1 65.128940702536084 17.773944684419892 91.377008758653446 0 0 1 I I #
straight-curve $-1 -13.262207789420088 17.773944684419892 104.36286902535072 0.60181501223851219 0 -0.79863551827123203 I I #
edge $-1 $390 3.0056716866707482 $231 17.773944684419892 $327 $397 forward 7 unknown #
point $-1 65.128940702536084 17.773944684419892 8.2917660333937757 #
point $-1 59.13255890969404 17.773944684419892 8.2917660333937704 #
edge $-1 $398 1 $398 0 $234 $-1 forward 7 unknown #
vertex $-1 $235 $399 #
ellipse-curve $-1 57.887442602458172 7.2251782574562213 1.1154709787125769 0.79863551827123203 0 0.60181501223851219 0.90272251835776829 0 -1.197953277406848 1 I I #
point $-1 63.033472324472839 7.2251782574562213 3.1150789395391465 #
edge $-1 $400 1 $400 0 $238 $-1 forward 7 unknown #
vertex $-1 $239 $401 #
ellipse-curve $-1 57.887442602458172 13.554438113634426 1.1154709787125769 0.79863551827123203 0 0.60181501223851219 0.90272251835776829 0 -1.197953277406848 1 I I #
point $-1 63.033472324472839 13.554438113634426 3.1150789395391465 #
plane-surface $-1 65.128940702536084 0 0 -1 0 0 0 0 1 forward_v I I I I #
coedge $-1 $247 $245 $249 $348 reversed $161 $-1 #
edge $-1 $260 -8.2917660333937757 $350 8.2917660333937757 $259 $402 forward 7 unknown #
vertex $-1 $348 $403 #
straight-curve $-1 -65.128940702536084 -36.17600894975152 0 0 0 -1 I I #
edge $-1 $346 -36.17600894975152 $350 36.17600894975152 $344 $404 forward 7 unknown #
straight-curve $-1 0 -36.17600894975152 -8.2917660333937757 -1 0 0 I I #
vertex $-1 $252 $405 #
straight-curve $-1 0 36.17600894975152 -8.2917660333937757 1 0 0 I I #
point $-1 65.128940702536084 36.17600894975152 -8.2917660333937757 #
point $-1 65.128940702536084 -36.17600894975152 -8.2917660333937757 #
straight-curve $-1 -65.128940702536084 0 8.2917660333937757 0 -1 0 I I #
point $-1 -65.128940702536084 36.17600894975152 8.2917660333937757 #
point $-1 -65.128940702536084 -36.17600894975152 8.2917660333937757 #
straight-curve $-1 65.128940702536084 -36.17600894975152 0 0 0 -1 I I #
straight-curve $-1 65.128940702536084 36.17600894975152 0 0 0 -1 I I #
plane-surface $-1 0 36.17600894975152 0 0 -1 0 0 0 -1 forward_v I I I I #
coedge $-1 $273 $272 $406 $407 forward $109 $-1 #
edge $-1 $276 57.634497043889397 $408 65.128940702536084 $275 $409 forward 7 unknown #
coedge $-1 $281 $280 $273 $363 reversed $282 $-1 #
edge $-1 $410 -65.128940702536084 $364 -57.634497043889397 $362 $411 forward 7 unknown #
vertex $-1 $288 $412 #
straight-curve $-1 -57.634497043889397 0 -8.2917660333937757 0 -1 0 I I #
point $-1 -57.634497043889397 -36.17600894975152 -8.2917660333937757 #
coedge $-1 $406 $278 $281 $370 forward $270 $-1 #
coedge $-1 $278 $406 $285 $372 reversed $270 $-1 #
straight-curve $-1 -65.128940702536084 0 -4.0332494200458804 0 1 0 I I #
edge $-1 $283 4.0332494200458804 $410 8.2917660333937757 $281 $413 forward 7 unknown #
point $-1 -65.128940702536084 36.17600894975152 -4.0332494200458804 #
edge $-1 $286 4.0332494200458804 $408 8.2917660333937757 $368 $414 forward 7 unknown #
point $-1 -65.128940702536084 -36.17600894975152 -4.0332494200458804 #
straight-curve $-1 -57.634497043889397 36.17600894975152 -3.081253863359914 0 0 -1 I I #
coedge $-1 $302 $301 $294 $376 forward $291 $-1 #
edge $-1 $377 83.085242725259675 $380 91.042710358155219 $375 $415 forward 7 unknown #
vertex $-1 $306 $416 #
straight-curve $-1 45.383181417716202 -33.170337263080768 8.2917660333937704 1 0 0 I I #
edge $-1 $380 -20.277236880977668 $303 -5.5089638832285264 $302 $417 forward 7 unknown #
vertex $-1 $379 $418 #
straight-curve $-1 -13.262207789420088 -33.170337263080768 104.36286902535072 -0.60181501223851219 0 0.79863551827123203 I I #
point $-1 59.13255890969404 -33.170337263080768 8.2917660333937704 #
point $-1 65.128940702536084 -18.402064265331624 0.33429840049822701 #
straight-curve $-1 65.128940702536084 0 8.2917660333937757 0 1 0 I I #
vertex $-1 $309 $419 #
point $-1 58.790165120815935 -28.950830692295298 -0.082482298694270928 #
vertex $-1 $313 $420 #
point $-1 58.790165120815935 -22.621570836117094 -0.082482298694270928 #
edge $-1 $390 83.085242725259675 $393 91.042710358155219 $318 $421 forward 7 unknown #
vertex $-1 $332 $422 #
straight-curve $-1 45.383181417716202 3.0056716866707482 8.2917660333937704 1 0 0 I I #
edge $-1 $393 -2.1892324061019117 $329 12.579040591647232 $328 $423 forward 7 unknown #
vertex $-1 $392 $424 #
straight-curve $-1 -13.262207789420088 3.0056716866707482 104.36286902535072 -0.60181501223851219 0 0.79863551827123203 I I #
point $-1 59.13255890969404 3.0056716866707482 8.2917660333937704 #
point $-1 65.128940702536084 17.773944684419892 0.33429840049822701 #
straight-curve $-1 65.128940702536084 0 8.2917660333937757 0 1 0 I I #
vertex $-1 $335 $425 #
point $-1 58.790165120815935 7.2251782574562213 -0.082482298694270928 #
vertex $-1 $339 $426 #
point $-1 58.790165120815935 13.554438113634426 -0.082482298694270928 #
straight-curve $-1 -65.128940702536084 36.17600894975152 0 0 0 -1 I I #
point $-1 -65.128940702536084 -36.17600894975152 -8.2917660333937757 #
straight-curve $-1 -65.128940702536084 0 -8.2917660333937757 0 1 0 I I #
point $-1 -65.128940702536084 36.17600894975152 -8.2917660333937757 #
coedge $-1 $368 $367 $360 $407 reversed $270 $-1 #
edge $-1 $408 -36.17600894975152 $410 36.17600894975152 $406 $427 forward 7 unknown #
vertex $-1 $407 $428 #
straight-curve $-1 0 -36.17600894975152 -8.2917660333937757 -1 0 0 I I #
vertex $-1 $363 $429 #
straight-curve $-1 0 36.17600894975152 -8.2917660333937757 1 0 0 I I #
point $-1 -57.634497043889397 36.17600894975152 -8.2917660333937757 #
straight-curve $-1 -65.128940702536084 36.17600894975152 0 0 0 -1 I I #
straight-curve $-1 -65.128940702536084 -36.17600894975152 0 0 0 -1 I I #
straight-curve $-1 65.128940702536084 -33.170337263080768 91.377008758653446 0 0 -1 I I #
point $-1 65.128940702536084 -33.170337263080768 8.2917660333937757 #
straight-curve $-1 65.128940702536084 -12.893100382103098 0.33429840049823412 0 1 0 I I #
point $-1 65.128940702536084 -33.170337263080768 0.33429840049822701 #
point $-1 56.689489325051319 -28.950830692295298 0.21274846035480877 #
point $-1 56.689489325051319 -22.621570836117094 0.21274846035480877 #
straight-curve $-1 65.128940702536084 3.0056716866707482 91.377008758653446 0 0 -1 I I #
point $-1 65.128940702536084 3.0056716866707482 8.2917660333937757 #
straight-curve $-1 65.128940702536084 5.19490409277266 0.33429840049823412 0 1 0 I I #
point $-1 65.128940702536084 3.0056716866707482 0.33429840049822701 #
point $-1 56.689489325051319 7.2251782574562213 0.21274846035480877 #
point $-1 56.689489325051319 13.554438113634426 0.21274846035480877 #
straight-curve $-1 -65.128940702536084 0 -8.2917660333937757 0 1 0 I I #
point $-1 -65.128940702536084 -36.17600894975152 -8.2917660333937757 #
point $-1 -65.128940702536084 36.17600894975152 -8.2917660333937757 #
End-of-ACIS-data 