500 0 5 0           
7 Unknown 11 ACIS 5.0 NT 24 Thu Mar 25 18:18:55 1999 
-1 9.9999999999999995e-007 1e-010 
body $-1 $5 $-1 $6 #
body $-1 $7 $-1 $8 #
body $-1 $9 $-1 $10 #
body $-1 $11 $-1 $12 #
body $-1 $13 $-1 $14 #
lump $-1 $-1 $15 $0 #
transform $-1 1 0 0 0 1 0 0 0 1 74.394360179448839 46.319213242865985 17.391297604469617 1 rotate no_reflect no_shear #
lump $-1 $-1 $16 $1 #
transform $-1 1 0 0 0 1 0 0 0 1 74.394360179448839 46.319213242865985 17.391297604469617 1 rotate no_reflect no_shear #
lump $-1 $-1 $17 $2 #
transform $-1 1 0 0 0 1 0 0 0 1 74.394360179448839 46.319213242865985 17.391297604469617 1 rotate no_reflect no_shear #
lump $-1 $-1 $18 $3 #
transform $-1 1 0 0 0 1 0 0 0 1 74.394360179448839 46.319213242865985 17.391297604469617 1 rotate no_reflect no_shear #
lump $-1 $-1 $19 $4 #
transform $-1 1 0 0 0 1 0 0 0 1 74.394360179448839 46.319213242865985 17.391297604469617 1 rotate no_reflect no_shear #
shell $-1 $-1 $-1 $20 $-1 $5 #
shell $-1 $-1 $-1 $21 $-1 $7 #
shell $-1 $-1 $-1 $22 $-1 $9 #
shell $-1 $-1 $-1 $23 $-1 $11 #
shell $-1 $-1 $-1 $24 $-1 $13 #
face $-1 $25 $26 $15 $-1 $27 forward single #
face $-1 $28 $29 $16 $-1 $30 forward single #
face $-1 $31 $32 $17 $-1 $33 reversed single #
face $-1 $34 $35 $18 $-1 $36 forward single #
face $-1 $37 $38 $19 $-1 $39 forward single #
face $-1 $40 $41 $15 $-1 $42 reversed single #
loop $-1 $-1 $43 $20 #
plane-surface $-1 0 0 17.391297604469617 0 0 1 1 0 0 forward_v I I I I #
face $-1 $44 $45 $16 $-1 $46 forward single #
loop $-1 $-1 $47 $21 #
plane-surface $-1 -74.394360179448839 0 0 1 0 0 0 0 -1 forward_v I I I I #
face $-1 $48 $49 $17 $-1 $50 reversed single #
loop $-1 $-1 $51 $22 #
plane-surface $-1 -12.811727879714137 115.06458144548422 162.26317370078158 1 0 0 0 -0.81915205242281985 -0.57357642473473569 forward_v I I I I #
face $-1 $52 $53 $18 $-1 $54 forward single #
loop $-1 $55 $56 $23 #
cone-surface $-1 -4.5186681353106906 38.238083099301491 7.564735855359622 0 -0.81915205242281985 -0.57357642473473569 2 0 0 1 I I 0 1 2 forward I I I I #
face $-1 $57 $58 $19 $-1 $59 forward single #
loop $-1 $60 $61 $24 #
cone-surface $-1 7.9209214812944708 38.238083099301491 7.564735855359622 0 -0.81915205242281985 -0.57357642473473569 2 0 0 1 I I 0 1 2 forward I I I I #
face $-1 $62 $63 $15 $-1 $64 reversed single #
loop $-1 $-1 $65 $25 #
plane-surface $-1 0 0 -17.391297604469617 0 0 1 1 0 0 forward_v I I I I #
coedge $-1 $66 $67 $68 $69 forward $26 $-1 #
face $-1 $70 $71 $16 $-1 $72 reversed single #
loop $-1 $-1 $73 $28 #
plane-surface $-1 0 0 17.391297604469617 0 0 1 1 0 0 forward_v I I I I #
coedge $-1 $74 $75 $76 $77 forward $29 $-1 #
face $-1 $78 $79 $17 $-1 $80 reversed single #
loop $-1 $-1 $81 $31 #
plane-surface $-1 1.7011266729918901 -6.8160042138718069 76.921471436468664 0 0.81915205242281985 0.57357642473473569 1 0 0 forward_v I I I I #
coedge $-1 $82 $83 $84 $85 reversed $32 $-1 #
face $-1 $-1 $86 $18 $-1 $87 forward single #
loop $-1 $88 $89 $34 #
cone-surface $-1 -4.5186681353106906 35.063672026678134 5.3419893600192871 0 -0.81915205242281985 -0.57357642473473569 1 0 0 1 I I -0.70710678118654746 0.70710678118654746 1 forward I I I I #
loop $-1 $-1 $90 $23 #
coedge $-1 $56 $56 $91 $92 reversed $35 $-1 #
face $-1 $-1 $93 $19 $-1 $94 forward single #
loop $-1 $95 $96 $37 #
cone-surface $-1 7.9209214812944708 35.063672026678134 5.3419893600192871 0 -0.81915205242281985 -0.57357642473473569 1 0 0 1 I I -0.70710678118654746 0.70710678118654746 1 forward I I I I #
loop $-1 $-1 $97 $24 #
coedge $-1 $61 $61 $98 $99 reversed $38 $-1 #
face $-1 $100 $101 $15 $-1 $102 reversed single #
loop $-1 $-1 $103 $40 #
plane-surface $-1 0 -46.319213242865985 0 0 1 0 0 0 1 forward_v I I I I #
coedge $-1 $104 $105 $106 $107 forward $41 $-1 #
coedge $-1 $108 $43 $109 $110 forward $26 $-1 #
coedge $-1 $43 $108 $111 $112 forward $26 $-1 #
coedge $-1 $113 $114 $43 $69 reversed $115 $-1 #
edge $-1 $116 -46.319213242865985 $117 46.319213242865985 $68 $118 forward 7 unknown #
face $-1 $119 $120 $16 $-1 $121 reversed single #
loop $-1 $-1 $122 $44 #
plane-surface $-1 -97.329855060711353 -41.457643106214462 0 1 0 0 0 0 -1 forward_v I I I I #
coedge $-1 $123 $124 $74 $125 forward $45 $-1 #
coedge $-1 $126 $47 $73 $125 reversed $29 $-1 #
coedge $-1 $47 $126 $127 $128 reversed $29 $-1 #
coedge $-1 $129 $130 $47 $77 reversed $120 $-1 #
edge $-1 $131 -17.391297604469617 $132 17.391297604469617 $76 $133 forward 7 unknown #
face $-1 $134 $135 $17 $-1 $136 forward single #
loop $-1 $-1 $137 $48 #
plane-surface $-1 16.213981225697918 115.06458144548422 162.26317370078158 -1 0 0 0 0.81915205242281985 0.57357642473473569 forward_v I I I I #
coedge $-1 $138 $139 $140 $141 reversed $49 $-1 #
coedge $-1 $83 $51 $142 $143 reversed $32 $-1 #
coedge $-1 $51 $82 $138 $144 reversed $32 $-1 #
coedge $-1 $140 $145 $51 $85 forward $135 $-1 #
edge $-1 $146 11.213077479876127 $147 22.66481972660403 $84 $148 forward 7 unknown #
loop $-1 $-1 $91 $52 #
plane-surface $-1 1.7011266729918901 -6.8160042138718069 76.921471436468664 0 0.81915205242281985 0.57357642473473569 1 0 0 forward_v I I I I #
loop $-1 $-1 $149 $34 #
coedge $-1 $89 $89 $90 $150 reversed $53 $-1 #
coedge $-1 $90 $90 $89 $150 forward $55 $-1 #
coedge $-1 $91 $91 $56 $92 forward $86 $-1 #
edge $-1 $151 -8.7245989166747535e-016 $151 6.2831853071795996 $91 $152 forward 7 unknown #
loop $-1 $-1 $98 $57 #
plane-surface $-1 1.7011266729918901 -6.8160042138718069 76.921471436468664 0 0.81915205242281985 0.57357642473473569 1 0 0 forward_v I I I I #
loop $-1 $-1 $153 $37 #
coedge $-1 $96 $96 $97 $154 reversed $58 $-1 #
coedge $-1 $97 $97 $96 $154 forward $60 $-1 #
coedge $-1 $98 $98 $61 $99 forward $93 $-1 #
edge $-1 $155 -8.7245989166747535e-016 $155 6.2831853071795996 $98 $156 forward 7 unknown #
face $-1 $157 $158 $15 $-1 $159 reversed single #
loop $-1 $-1 $160 $62 #
plane-surface $-1 -74.394360179448839 0 0 1 0 0 0 0 -1 forward_v I I I I #
coedge $-1 $161 $111 $162 $163 forward $63 $-1 #
coedge $-1 $164 $65 $161 $165 forward $41 $-1 #
coedge $-1 $65 $164 $166 $167 forward $41 $-1 #
coedge $-1 $114 $113 $65 $107 reversed $115 $-1 #
edge $-1 $168 -46.319213242865985 $169 46.319213242865985 $106 $170 forward 7 unknown #
coedge $-1 $67 $66 $171 $172 forward $26 $-1 #
coedge $-1 $173 $174 $66 $110 reversed $158 $-1 #
edge $-1 $117 -74.394360179448839 $175 74.394360179448839 $109 $176 forward 7 unknown #
coedge $-1 $103 $177 $67 $112 reversed $63 $-1 #
edge $-1 $178 -74.394360179448839 $116 74.394360179448839 $111 $179 forward 7 unknown #
coedge $-1 $106 $68 $177 $180 forward $115 $-1 #
coedge $-1 $68 $106 $173 $181 reversed $115 $-1 #
loop $-1 $-1 $113 $157 #
vertex $-1 $69 $182 #
vertex $-1 $69 $183 #
straight-curve $-1 74.394360179448839 0 17.391297604469617 0 1 0 I I #
face $-1 $184 $185 $16 $-1 $186 reversed single #
loop $-1 $-1 $76 $70 #
plane-surface $-1 -85.862107620080096 -36.59607296956294 0 0 -1 0 0 0 -1 forward_v I I I I #
coedge $-1 $187 $188 $189 $190 forward $71 $-1 #
coedge $-1 $191 $73 $130 $192 forward $45 $-1 #
coedge $-1 $73 $191 $193 $194 forward $45 $-1 #
edge $-1 $195 -46.319213242865985 $132 -36.59607296956294 $73 $196 forward 7 unknown #
coedge $-1 $75 $74 $197 $198 reversed $29 $-1 #
coedge $-1 $199 $200 $75 $128 forward $185 $-1 #
edge $-1 $131 36.59607296956294 $201 46.319213242865985 $127 $202 forward 7 unknown #
coedge $-1 $189 $76 $200 $203 reversed $120 $-1 #
coedge $-1 $76 $189 $123 $192 reversed $120 $-1 #
vertex $-1 $128 $204 #
vertex $-1 $192 $205 #
straight-curve $-1 -74.394360179448839 -36.59607296956294 0 0 0 1 I I #
face $-1 $-1 $206 $17 $-1 $207 reversed single #
loop $-1 $-1 $84 $78 #
plane-surface $-1 0 0 17.391297604469617 0 0 1 1 0 0 forward_v I I I I #
coedge $-1 $208 $209 $210 $211 reversed $79 $-1 #
coedge $-1 $212 $81 $83 $144 forward $49 $-1 #
coedge $-1 $81 $212 $208 $213 forward $49 $-1 #
coedge $-1 $210 $84 $81 $141 forward $135 $-1 #
edge $-1 $147 -13.662291216210082 $214 15.363417889201973 $140 $215 forward 7 unknown #
coedge $-1 $216 $217 $82 $143 forward $206 $-1 #
edge $-1 $218 -80.095072602929989 $146 -63.740289245921176 $142 $219 forward 7 unknown #
edge $-1 $147 72.672922757045711 $218 92.638426485731983 $83 $220 forward 7 unknown #
coedge $-1 $84 $210 $216 $221 forward $135 $-1 #
vertex $-1 $143 $222 #
vertex $-1 $85 $223 #
straight-curve $-1 -12.811727879714137 57.532290722742111 17.391297604469614 0 -1 0 I I #
coedge $-1 $149 $149 $-1 $224 reversed $88 $-1 #
edge $-1 $225 0 $225 6.2831853071796004 $89 $226 forward 7 unknown #
vertex $-1 $92 $227 #
ellipse-curve $-1 -4.5186681353106906 40.593342119502026 9.2139059259652143 0 0.81915205242281985 0.57357642473473569 2 0 0 1 I I #
coedge $-1 $153 $153 $-1 $228 reversed $95 $-1 #
edge $-1 $229 0 $229 6.2831853071796004 $96 $230 forward 7 unknown #
vertex $-1 $99 $231 #
ellipse-curve $-1 7.9209214812944708 40.593342119502026 9.2139059259652143 0 0.81915205242281985 0.57357642473473569 2 0 0 1 I I #
face $-1 $-1 $115 $15 $-1 $232 reversed single #
loop $-1 $-1 $173 $100 #
plane-surface $-1 0 46.319213242865985 0 0 -1 0 0 0 -1 forward_v I I I I #
coedge $-1 $233 $171 $174 $234 forward $101 $-1 #
coedge $-1 $177 $103 $104 $165 reversed $63 $-1 #
coedge $-1 $171 $233 $103 $163 reversed $101 $-1 #
edge $-1 $178 -17.391297604469617 $235 17.391297604469617 $162 $236 forward 7 unknown #
coedge $-1 $105 $104 $233 $237 forward $41 $-1 #
edge $-1 $169 -74.394360179448839 $235 74.394360179448839 $161 $238 forward 7 unknown #
coedge $-1 $174 $173 $105 $167 reversed $158 $-1 #
edge $-1 $239 -74.394360179448839 $168 74.394360179448839 $166 $240 forward 7 unknown #
vertex $-1 $107 $241 #
vertex $-1 $180 $242 #
straight-curve $-1 74.394360179448839 0 -17.391297604469617 0 -1 0 I I #
coedge $-1 $160 $162 $108 $172 reversed $101 $-1 #
edge $-1 $175 -46.319213242865985 $178 46.319213242865985 $171 $243 forward 7 unknown #
coedge $-1 $166 $109 $114 $181 forward $158 $-1 #
coedge $-1 $109 $166 $160 $234 reversed $158 $-1 #
vertex $-1 $110 $244 #
straight-curve $-1 0 46.319213242865985 17.391297604469617 -1 0 0 I I #
coedge $-1 $111 $161 $113 $180 reversed $63 $-1 #
vertex $-1 $172 $245 #
straight-curve $-1 0 -46.319213242865985 17.391297604469617 1 0 0 I I #
edge $-1 $116 -17.391297604469617 $169 17.391297604469617 $113 $246 forward 7 unknown #
edge $-1 $117 -17.391297604469617 $168 17.391297604469617 $114 $247 forward 7 unknown #
point $-1 74.394360179448839 -46.319213242865985 17.391297604469617 #
point $-1 74.394360179448839 46.319213242865985 17.391297604469617 #
face $-1 $-1 $248 $16 $-1 $249 reversed single #
loop $-1 $-1 $127 $119 #
plane-surface $-1 0 0 -17.391297604469617 0 0 1 1 0 0 forward_v I I I I #
coedge $-1 $250 $122 $251 $252 reversed $71 $-1 #
coedge $-1 $122 $250 $191 $253 reversed $71 $-1 #
coedge $-1 $130 $129 $122 $190 reversed $120 $-1 #
edge $-1 $254 -17.391297604469617 $255 17.391297604469617 $189 $256 forward 7 unknown #
coedge $-1 $124 $123 $188 $253 forward $45 $-1 #
edge $-1 $132 -11.467747440631257 $254 11.467747440631257 $130 $257 forward 7 unknown #
coedge $-1 $258 $197 $124 $194 reversed $248 $-1 #
edge $-1 $259 -97.329855060711353 $195 -74.394360179448839 $193 $260 forward 7 unknown #
vertex $-1 $198 $261 #
straight-curve $-1 -74.394360179448839 0 17.391297604469617 0 1 0 I I #
coedge $-1 $193 $262 $126 $198 forward $248 $-1 #
edge $-1 $201 -17.391297604469617 $195 17.391297604469617 $197 $263 forward 7 unknown #
coedge $-1 $251 $127 $262 $264 forward $185 $-1 #
coedge $-1 $127 $251 $129 $203 forward $185 $-1 #
vertex $-1 $264 $265 #
straight-curve $-1 -74.394360179448839 0 -17.391297604469617 0 -1 0 I I #
edge $-1 $255 -11.467747440631257 $131 11.467747440631257 $129 $266 forward 7 unknown #
point $-1 -74.394360179448839 -36.59607296956294 -17.391297604469617 #
point $-1 -74.394360179448839 -36.59607296956294 17.391297604469617 #
loop $-1 $-1 $142 $134 #
plane-surface $-1 0 46.319213242865985 0 0 -1 0 0 0 -1 forward_v I I I I #
coedge $-1 $209 $137 $139 $213 reversed $79 $-1 #
coedge $-1 $137 $208 $267 $268 reversed $79 $-1 #
coedge $-1 $145 $140 $137 $211 forward $135 $-1 #
edge $-1 $214 -22.66481972660403 $269 -11.213077479876127 $210 $270 forward 7 unknown #
coedge $-1 $139 $138 $217 $271 reversed $49 $-1 #
edge $-1 $272 -92.638426485731983 $214 -72.672922757045711 $208 $273 forward 7 unknown #
vertex $-1 $141 $274 #
straight-curve $-1 0.85056333649594507 34.867470996138088 17.391297604469621 1 0 0 I I #
coedge $-1 $267 $142 $145 $221 reversed $206 $-1 #
coedge $-1 $142 $267 $212 $271 forward $206 $-1 #
vertex $-1 $143 $275 #
straight-curve $-1 -12.811727879714137 46.319213242865985 81.131586850390789 0 0 1 I I #
straight-curve $-1 -12.811727879714137 -6.8160042138718069 76.921471436468664 0 0.57357642473473569 -0.81915205242281985 I I #
edge $-1 $269 -16.213981225697918 $146 12.811727879714137 $216 $276 forward 7 unknown #
point $-1 -12.811727879714137 46.319213242865985 17.391297604469617 #
point $-1 -12.811727879714137 34.867470996138081 17.391297604469621 #
edge $-1 $277 1 $277 0 $149 $-1 forward 7 unknown #
vertex $-1 $150 $278 #
ellipse-curve $-1 -4.5186681353106906 35.882824079100956 5.9155657847540226 0 0.81915205242281985 0.57357642473473569 2 0 0 1 I I #
point $-1 -2.5186681353106906 40.593342119502033 9.2139059259652214 #
edge $-1 $279 1 $279 0 $153 $-1 forward 7 unknown #
vertex $-1 $154 $280 #
ellipse-curve $-1 7.9209214812944708 35.882824079100956 5.9155657847540226 0 0.81915205242281985 0.57357642473473569 2 0 0 1 I I #
point $-1 9.9209214812944708 40.593342119502033 9.2139059259652214 #
plane-surface $-1 74.394360179448839 0 0 -1 0 0 0 0 1 forward_v I I I I #
coedge $-1 $162 $160 $164 $237 reversed $101 $-1 #
edge $-1 $175 -17.391297604469617 $239 17.391297604469617 $174 $281 forward 7 unknown #
vertex $-1 $237 $282 #
straight-curve $-1 -74.394360179448839 -46.319213242865985 0 0 0 -1 I I #
edge $-1 $235 -46.319213242865985 $239 46.319213242865985 $233 $283 forward 7 unknown #
straight-curve $-1 0 -46.319213242865985 -17.391297604469617 -1 0 0 I I #
vertex $-1 $167 $284 #
straight-curve $-1 0 46.319213242865985 -17.391297604469617 1 0 0 I I #
point $-1 74.394360179448839 46.319213242865985 -17.391297604469617 #
point $-1 74.394360179448839 -46.319213242865985 -17.391297604469617 #
straight-curve $-1 -74.394360179448839 0 17.391297604469617 0 -1 0 I I #
point $-1 -74.394360179448839 46.319213242865985 17.391297604469617 #
point $-1 -74.394360179448839 -46.319213242865985 17.391297604469617 #
straight-curve $-1 74.394360179448839 -46.319213242865985 0 0 0 -1 I I #
straight-curve $-1 74.394360179448839 46.319213242865985 0 0 0 -1 I I #
loop $-1 $-1 $197 $184 #
plane-surface $-1 0 -46.319213242865985 0 0 1 0 0 0 1 forward_v I I I I #
coedge $-1 $188 $187 $258 $285 reversed $71 $-1 #
coedge $-1 $200 $199 $187 $252 forward $185 $-1 #
edge $-1 $286 -4.8615701366515225 $255 4.8615701366515225 $187 $287 forward 7 unknown #
edge $-1 $254 -4.8615701366515225 $259 4.8615701366515225 $188 $288 forward 7 unknown #
vertex $-1 $192 $289 #
vertex $-1 $203 $290 #
straight-curve $-1 -97.329855060711353 -36.59607296956294 0 0 0 -1 I I #
straight-curve $-1 -85.862107620080096 -36.59607296956294 17.391297604469617 -1 0 0 I I #
coedge $-1 $262 $193 $250 $285 forward $248 $-1 #
vertex $-1 $253 $291 #
straight-curve $-1 0 -46.319213242865985 17.391297604469617 1 0 0 I I #
point $-1 -74.394360179448839 -46.319213242865985 17.391297604469617 #
coedge $-1 $197 $258 $199 $264 reversed $248 $-1 #
straight-curve $-1 -74.394360179448839 -46.319213242865985 0 0 0 1 I I #
edge $-1 $201 -11.467747440631257 $286 11.467747440631257 $262 $292 forward 7 unknown #
point $-1 -74.394360179448839 -46.319213242865985 -17.391297604469617 #
straight-curve $-1 -85.862107620080096 -36.59607296956294 -17.391297604469617 1 0 0 I I #
coedge $-1 $217 $216 $209 $268 forward $206 $-1 #
edge $-1 $269 63.740289245921176 $272 80.095072602929989 $267 $293 forward 7 unknown #
vertex $-1 $221 $294 #
straight-curve $-1 16.213981225697918 57.532290722742111 17.391297604469614 0 1 0 I I #
edge $-1 $272 -15.363417889201973 $218 13.662291216210082 $217 $295 forward 7 unknown #
vertex $-1 $271 $296 #
straight-curve $-1 16.213981225697918 -6.8160042138718069 76.921471436468664 0 -0.57357642473473569 0.81915205242281985 I I #
point $-1 16.213981225697918 34.867470996138081 17.391297604469621 #
point $-1 -12.811727879714137 46.319213242865985 1.0365142474608007 #
straight-curve $-1 0 46.319213242865985 17.391297604469617 -1 0 0 I I #
vertex $-1 $224 $297 #
point $-1 -2.5186681353106906 35.882824079100956 5.9155657847540226 #
vertex $-1 $228 $298 #
point $-1 9.9209214812944708 35.882824079100956 5.9155657847540226 #
straight-curve $-1 -74.394360179448839 46.319213242865985 0 0 0 -1 I I #
point $-1 -74.394360179448839 -46.319213242865985 -17.391297604469617 #
straight-curve $-1 -74.394360179448839 0 -17.391297604469617 0 1 0 I I #
point $-1 -74.394360179448839 46.319213242865985 -17.391297604469617 #
edge $-1 $259 -17.391297604469617 $286 17.391297604469617 $250 $299 forward 7 unknown #
vertex $-1 $252 $300 #
straight-curve $-1 -97.329855060711353 -41.457643106214462 -17.391297604469617 0 1 0 I I #
straight-curve $-1 -97.329855060711353 -41.457643106214462 17.391297604469617 0 -1 0 I I #
point $-1 -97.329855060711353 -36.59607296956294 17.391297604469617 #
point $-1 -97.329855060711353 -36.59607296956294 -17.391297604469617 #
point $-1 -97.329855060711353 -46.319213242865985 17.391297604469617 #
straight-curve $-1 -85.862107620080096 -46.319213242865985 -17.391297604469617 -1 0 0 I I #
straight-curve $-1 16.213981225697918 46.319213242865985 81.131586850390789 0 0 -1 I I #
point $-1 16.213981225697918 46.319213242865985 17.391297604469617 #
straight-curve $-1 0.85056333649594507 46.319213242865992 1.0365142474607936 -1 0 0 I I #
point $-1 16.213981225697918 46.319213242865985 1.0365142474608007 #
point $-1 -4.5186681353106906 34.244519974255311 4.7684129352845517 #
point $-1 7.9209214812944708 34.244519974255311 4.7684129352845517 #
straight-curve $-1 -97.329855060711353 -46.319213242865985 0 0 0 -1 I I #
point $-1 -97.329855060711353 -46.319213242865985 -17.391297604469617 #
End-of-ACIS-data 