500 0 11 0           
7 Unknown 11 ACIS 5.0 NT 24 Thu Mar 25 15:33:57 1999 
-1 9.9999999999999995e-007 1e-010 
body $-1 $11 $-1 $12 #
body $-1 $13 $-1 $14 #
body $-1 $15 $-1 $16 #
body $-1 $17 $-1 $18 #
body $-1 $19 $-1 $20 #
body $-1 $21 $-1 $22 #
body $-1 $23 $-1 $24 #
body $-1 $25 $-1 $26 #
body $-1 $27 $-1 $28 #
body $-1 $29 $-1 $30 #
body $-1 $31 $-1 $32 #
lump $-1 $-1 $33 $0 #
transform $-1 1 0 0 0 1 0 0 0 1 69.029206213568528 30.198460716868826 10.162339145686133 1 rotate no_reflect no_shear #
lump $-1 $-1 $34 $1 #
transform $-1 1 0 0 0 1 0 0 0 1 69.029206213568528 30.198460716868826 10.162339145686133 1 rotate no_reflect no_shear #
lump $-1 $-1 $35 $2 #
transform $-1 1 0 0 0 1 0 0 0 1 69.029206213568528 30.198460716868826 10.162339145686133 1 rotate no_reflect no_shear #
lump $-1 $-1 $36 $3 #
transform $-1 1 0 0 0 1 0 0 0 1 69.029206213568528 30.198460716868826 10.162339145686133 1 rotate no_reflect no_shear #
lump $-1 $-1 $37 $4 #
transform $-1 1 0 0 0 1 0 0 0 1 69.029206213568528 30.198460716868826 10.162339145686133 1 rotate no_reflect no_shear #
lump $-1 $-1 $38 $5 #
transform $-1 1 0 0 0 1 0 0 0 1 69.029206213568528 30.198460716868826 10.162339145686133 1 rotate no_reflect no_shear #
lump $-1 $-1 $39 $6 #
transform $-1 1 0 0 0 1 0 0 0 1 69.029206213568528 30.198460716868826 10.162339145686133 1 rotate no_reflect no_shear #
lump $-1 $-1 $40 $7 #
transform $-1 1 0 0 0 1 0 0 0 1 69.029206213568528 30.198460716868826 10.162339145686133 1 rotate no_reflect no_shear #
lump $-1 $-1 $41 $8 #
transform $-1 1 0 0 0 1 0 0 0 1 69.029206213568528 30.198460716868826 10.162339145686133 1 rotate no_reflect no_shear #
lump $-1 $-1 $42 $9 #
transform $-1 1 0 0 0 1 0 0 0 1 69.029206213568528 30.198460716868826 10.162339145686133 1 rotate no_reflect no_shear #
lump $-1 $-1 $43 $10 #
transform $-1 1 0 0 0 1 0 0 0 1 69.029206213568528 30.198460716868826 10.162339145686133 1 rotate no_reflect no_shear #
shell $-1 $-1 $-1 $44 $-1 $11 #
shell $-1 $-1 $-1 $45 $-1 $13 #
shell $-1 $-1 $-1 $46 $-1 $15 #
shell $-1 $-1 $-1 $47 $-1 $17 #
shell $-1 $-1 $-1 $48 $-1 $19 #
shell $-1 $-1 $-1 $49 $-1 $21 #
shell $-1 $-1 $-1 $50 $-1 $23 #
shell $-1 $-1 $-1 $51 $-1 $25 #
shell $-1 $-1 $-1 $52 $-1 $27 #
shell $-1 $-1 $-1 $53 $-1 $29 #
shell $-1 $-1 $-1 $54 $-1 $31 #
face $-1 $55 $56 $33 $-1 $57 forward single #
face $-1 $58 $59 $34 $-1 $60 forward single #
face $-1 $61 $62 $35 $-1 $63 reversed single #
face $-1 $64 $65 $36 $-1 $66 reversed single #
face $-1 $67 $68 $37 $-1 $69 forward single #
face $-1 $70 $71 $38 $-1 $72 forward single #
face $-1 $73 $74 $39 $-1 $75 forward single #
face $-1 $76 $77 $40 $-1 $78 reversed single #
face $-1 $79 $80 $41 $-1 $81 forward single #
face $-1 $82 $83 $42 $-1 $84 forward single #
face $-1 $85 $86 $43 $-1 $87 forward single #
face $-1 $88 $89 $33 $-1 $90 reversed single #
loop $-1 $-1 $91 $44 #
plane-surface $-1 0 0 10.162339145686133 0 0 1 1 0 0 forward_v I I I I #
face $-1 $92 $93 $34 $-1 $94 reversed single #
loop $-1 $-1 $95 $45 #
plane-surface $-1 0 -25.874853255729921 -6.9953812321676736 0 0 1 1 0 0 forward_v I I I I #
face $-1 $96 $97 $35 $-1 $98 reversed single #
loop $-1 $-1 $99 $46 #
plane-surface $-1 -51.170663735201799 22.452914198724844 0 0 1 0 0 0 1 forward_v I I I I #
face $-1 $100 $101 $36 $-1 $102 reversed single #
loop $-1 $-1 $103 $47 #
plane-surface $-1 119.56209528557034 -13.81944751509644 194.03928329952271 0 -1 0 -0.86602541151947299 0 -0.49999998660252726 forward_v I I I I #
face $-1 $104 $105 $37 $-1 $106 forward single #
loop $-1 $107 $108 $48 #
cone-surface $-1 66.931803257796062 -20.0048861386921 7.3799517563469106 -0.86602541151947299 0 -0.49999998660252726 0.24999999330126363 0 -0.43301270575973649 1 I I 0 1 0.5 forward I I I I #
face $-1 $109 $110 $38 $-1 $111 forward single #
loop $-1 $112 $113 $49 #
cone-surface $-1 66.931803257796062 -17.685346654843727 7.3799517563469106 -0.86602541151947299 0 -0.49999998660252726 0.24999999330126363 0 -0.43301270575973649 1 I I 0 1 0.5 forward I I I I #
face $-1 $114 $115 $39 $-1 $116 forward single #
loop $-1 $117 $118 $50 #
cone-surface $-1 66.931803257796062 -15.365807170995357 7.3799517563469106 -0.86602541151947299 0 -0.49999998660252726 0.24999999330126363 0 -0.43301270575973649 1 I I 0 1 0.5 forward I I I I #
face $-1 $119 $120 $40 $-1 $121 reversed single #
loop $-1 $-1 $122 $51 #
plane-surface $-1 -188.59129964950503 -21.551245794591011 74.477189863586219 0 1 0 -0.86602541151947299 0 0.49999998660252726 forward_v I I I I #
face $-1 $123 $124 $41 $-1 $125 forward single #
loop $-1 $126 $127 $52 #
cone-surface $-1 -66.931803257796048 -20.0048861386921 7.3799517563469319 0.86602541151947299 0 -0.49999998660252726 0.24999999330126363 0 0.43301270575973649 1 I I 0 1 0.5 forward I I I I #
face $-1 $128 $129 $42 $-1 $130 forward single #
loop $-1 $131 $132 $53 #
cone-surface $-1 -66.931803257796048 -17.685346654843727 7.3799517563469319 0.86602541151947299 0 -0.49999998660252726 0.24999999330126363 0 0.43301270575973649 1 I I 0 1 0.5 forward I I I I #
face $-1 $133 $134 $43 $-1 $135 forward single #
loop $-1 $136 $137 $54 #
cone-surface $-1 -66.931803257796048 -15.365807170995357 7.3799517563469319 0.86602541151947299 0 -0.49999998660252726 0.24999999330126363 0 0.43301270575973649 1 I I 0 1 0.5 forward I I I I #
face $-1 $138 $139 $33 $-1 $140 reversed single #
loop $-1 $-1 $141 $55 #
plane-surface $-1 0 0 -10.162339145686133 0 0 1 1 0 0 forward_v I I I I #
coedge $-1 $142 $143 $144 $145 forward $56 $-1 #
face $-1 $146 $147 $34 $-1 $148 reversed single #
loop $-1 $-1 $149 $58 #
plane-surface $-1 0 -21.551245794591015 -8.5788601889269032 0 -1 0 0 0 -1 forward_v I I I I #
coedge $-1 $150 $151 $152 $153 reversed $59 $-1 #
face $-1 $154 $155 $35 $-1 $156 reversed single #
loop $-1 $-1 $157 $61 #
plane-surface $-1 -53.636799548207335 26.325687457796835 0 1 0 0 0 0 -1 forward_v I I I I #
coedge $-1 $158 $159 $160 $161 forward $62 $-1 #
face $-1 $162 $163 $36 $-1 $164 reversed single #
loop $-1 $-1 $165 $64 #
plane-surface $-1 1.8496338469731199e-006 -17.685346654843727 125.010078935588 0.86602541151947299 0 0.49999998660252726 0.49999998660252726 0 -0.86602541151947299 forward_v I I I I #
coedge $-1 $166 $167 $168 $169 reversed $65 $-1 #
face $-1 $-1 $170 $37 $-1 $171 forward single #
loop $-1 $172 $173 $67 #
cone-surface $-1 65.978810573819402 -20.0048861386921 6.8297411933743888 -0.86602541151947299 0 -0.49999998660252726 0.12499999665063181 0 -0.21650635287986825 1 I I -0.70710678118654746 0.70710678118654746 0.25 forward I I I I #
loop $-1 $-1 $174 $48 #
coedge $-1 $108 $108 $175 $176 reversed $68 $-1 #
face $-1 $-1 $177 $38 $-1 $178 forward single #
loop $-1 $179 $180 $70 #
cone-surface $-1 65.978810573819402 -17.685346654843727 6.8297411933743888 -0.86602541151947299 0 -0.49999998660252726 0.12499999665063181 0 -0.21650635287986825 1 I I -0.70710678118654746 0.70710678118654746 0.25 forward I I I I #
loop $-1 $-1 $181 $49 #
coedge $-1 $113 $113 $182 $183 reversed $71 $-1 #
face $-1 $-1 $184 $39 $-1 $185 forward single #
loop $-1 $186 $187 $73 #
cone-surface $-1 65.978810573819402 -15.365807170995357 6.8297411933743888 -0.86602541151947299 0 -0.49999998660252726 0.12499999665063181 0 -0.21650635287986825 1 I I -0.70710678118654746 0.70710678118654746 0.25 forward I I I I #
loop $-1 $-1 $188 $50 #
coedge $-1 $118 $118 $189 $190 reversed $74 $-1 #
face $-1 $191 $192 $40 $-1 $193 reversed single #
loop $-1 $-1 $194 $76 #
plane-surface $-1 -69.029206213568543 -17.685346654843727 5.4479854996515087 -0.86602541151947299 0 0.49999998660252726 0.49999998660252726 0 0.86602541151947299 forward_v I I I I #
coedge $-1 $195 $196 $197 $198 reversed $77 $-1 #
face $-1 $-1 $199 $41 $-1 $200 forward single #
loop $-1 $201 $202 $79 #
cone-surface $-1 -65.978810573819388 -20.0048861386921 6.8297411933744101 0.86602541151947299 0 -0.49999998660252726 0.12499999665063181 0 0.21650635287986825 1 I I -0.70710678118654746 0.70710678118654746 0.25 forward I I I I #
loop $-1 $-1 $203 $52 #
coedge $-1 $127 $127 $204 $205 reversed $80 $-1 #
face $-1 $-1 $206 $42 $-1 $207 forward single #
loop $-1 $208 $209 $82 #
cone-surface $-1 -65.978810573819388 -17.685346654843727 6.8297411933744101 0.86602541151947299 0 -0.49999998660252726 0.12499999665063181 0 0.21650635287986825 1 I I -0.70710678118654746 0.70710678118654746 0.25 forward I I I I #
loop $-1 $-1 $210 $53 #
coedge $-1 $132 $132 $211 $212 reversed $83 $-1 #
face $-1 $-1 $213 $43 $-1 $214 forward single #
loop $-1 $215 $216 $85 #
cone-surface $-1 -65.978810573819388 -15.365807170995357 6.8297411933744101 0.86602541151947299 0 -0.49999998660252726 0.12499999665063181 0 0.21650635287986825 1 I I -0.70710678118654746 0.70710678118654746 0.25 forward I I I I #
loop $-1 $-1 $217 $54 #
coedge $-1 $137 $137 $218 $219 reversed $86 $-1 #
face $-1 $220 $221 $33 $-1 $222 reversed single #
loop $-1 $-1 $223 $88 #
plane-surface $-1 0 -30.198460716868826 0 0 1 0 0 0 1 forward_v I I I I #
coedge $-1 $224 $225 $226 $227 forward $89 $-1 #
coedge $-1 $228 $91 $229 $230 forward $56 $-1 #
coedge $-1 $91 $228 $231 $232 forward $56 $-1 #
coedge $-1 $233 $234 $91 $145 reversed $235 $-1 #
edge $-1 $236 -30.198460716868826 $237 30.198460716868826 $144 $238 forward 7 unknown #
face $-1 $239 $240 $34 $-1 $241 reversed single #
loop $-1 $-1 $242 $92 #
plane-surface $-1 0 0 -10.162339145686133 0 0 1 1 0 0 forward_v I I I I #
coedge $-1 $243 $244 $245 $246 reversed $93 $-1 #
coedge $-1 $247 $95 $244 $248 forward $59 $-1 #
coedge $-1 $95 $247 $249 $250 reversed $59 $-1 #
coedge $-1 $251 $245 $95 $153 forward $240 $-1 #
edge $-1 $252 8.6138191667260546 $253 17.261034089003864 $152 $254 forward 7 unknown #
face $-1 $255 $256 $35 $-1 $257 reversed single #
loop $-1 $-1 $258 $96 #
plane-surface $-1 -48.704527922196263 26.325687457796835 0 -1 0 0 0 0 1 forward_v I I I I #
coedge $-1 $259 $260 $261 $262 reversed $97 $-1 #
coedge $-1 $263 $99 $264 $265 reversed $62 $-1 #
coedge $-1 $99 $263 $266 $267 reversed $62 $-1 #
coedge $-1 $260 $259 $99 $161 reversed $97 $-1 #
edge $-1 $268 -10.162339145686133 $269 10.162339145686133 $160 $270 forward 7 unknown #
face $-1 $271 $272 $36 $-1 $273 forward single #
loop $-1 $-1 $274 $100 #
plane-surface $-1 119.56209528557034 -21.551245794591011 194.03928329952271 0 1 0 0.86602541151947299 0 0.49999998660252726 forward_v I I I I #
coedge $-1 $275 $276 $277 $278 reversed $101 $-1 #
coedge $-1 $167 $103 $279 $280 reversed $65 $-1 #
coedge $-1 $103 $166 $275 $281 reversed $65 $-1 #
coedge $-1 $277 $282 $103 $169 forward $272 $-1 #
edge $-1 $283 -9.2481585707833602 $284 -6.5263253214320258 $168 $285 forward 7 unknown #
loop $-1 $-1 $175 $104 #
plane-surface $-1 1.8496338469731199e-006 -17.685346654843727 125.010078935588 0.86602541151947299 0 0.49999998660252726 0.49999998660252726 0 -0.86602541151947299 forward_v I I I I #
loop $-1 $-1 $286 $67 #
coedge $-1 $173 $173 $174 $287 reversed $105 $-1 #
coedge $-1 $174 $174 $173 $287 forward $107 $-1 #
coedge $-1 $175 $175 $108 $176 forward $170 $-1 #
edge $-1 $288 0 $288 6.2831853071796004 $175 $289 forward 7 unknown #
loop $-1 $-1 $182 $109 #
plane-surface $-1 1.8496338469731199e-006 -17.685346654843727 125.010078935588 0.86602541151947299 0 0.49999998660252726 0.49999998660252726 0 -0.86602541151947299 forward_v I I I I #
loop $-1 $-1 $290 $70 #
coedge $-1 $180 $180 $181 $291 reversed $110 $-1 #
coedge $-1 $181 $181 $180 $291 forward $112 $-1 #
coedge $-1 $182 $182 $113 $183 forward $177 $-1 #
edge $-1 $292 0 $292 6.2831853071796004 $182 $293 forward 7 unknown #
loop $-1 $-1 $189 $114 #
plane-surface $-1 1.8496338469731199e-006 -17.685346654843727 125.010078935588 0.86602541151947299 0 0.49999998660252726 0.49999998660252726 0 -0.86602541151947299 forward_v I I I I #
loop $-1 $-1 $294 $73 #
coedge $-1 $187 $187 $188 $295 reversed $115 $-1 #
coedge $-1 $188 $188 $187 $295 forward $117 $-1 #
coedge $-1 $189 $189 $118 $190 forward $184 $-1 #
edge $-1 $296 0 $296 6.2831853071796004 $189 $297 forward 7 unknown #
face $-1 $298 $299 $40 $-1 $300 reversed single #
loop $-1 $-1 $301 $119 #
plane-surface $-1 -188.59129964950503 -13.81944751509644 74.477189863586219 0 -1 0 0.86602541151947299 0 -0.49999998660252726 forward_v I I I I #
coedge $-1 $302 $303 $304 $305 reversed $120 $-1 #
coedge $-1 $196 $122 $306 $307 reversed $77 $-1 #
coedge $-1 $122 $195 $302 $308 reversed $77 $-1 #
coedge $-1 $304 $309 $122 $198 forward $310 $-1 #
edge $-1 $311 25.266443611183988 $312 27.988276860535322 $197 $313 forward 7 unknown #
loop $-1 $-1 $204 $123 #
plane-surface $-1 -69.029206213568543 -17.685346654843727 5.4479854996515087 -0.86602541151947299 0 0.49999998660252726 0.49999998660252726 0 0.86602541151947299 forward_v I I I I #
loop $-1 $-1 $314 $79 #
coedge $-1 $202 $202 $203 $315 reversed $124 $-1 #
coedge $-1 $203 $203 $202 $315 forward $126 $-1 #
coedge $-1 $204 $204 $127 $205 forward $199 $-1 #
edge $-1 $316 0 $316 6.2831853071796004 $204 $317 forward 7 unknown #
loop $-1 $-1 $211 $128 #
plane-surface $-1 -69.029206213568543 -17.685346654843727 5.4479854996515087 -0.86602541151947299 0 0.49999998660252726 0.49999998660252726 0 0.86602541151947299 forward_v I I I I #
loop $-1 $-1 $318 $82 #
coedge $-1 $209 $209 $210 $319 reversed $129 $-1 #
coedge $-1 $210 $210 $209 $319 forward $131 $-1 #
coedge $-1 $211 $211 $132 $212 forward $206 $-1 #
edge $-1 $320 0 $320 6.2831853071796004 $211 $321 forward 7 unknown #
loop $-1 $-1 $218 $133 #
plane-surface $-1 -69.029206213568543 -17.685346654843727 5.4479854996515087 -0.86602541151947299 0 0.49999998660252726 0.49999998660252726 0 0.86602541151947299 forward_v I I I I #
loop $-1 $-1 $322 $85 #
coedge $-1 $216 $216 $217 $323 reversed $134 $-1 #
coedge $-1 $217 $217 $216 $323 forward $136 $-1 #
coedge $-1 $218 $218 $137 $219 forward $213 $-1 #
edge $-1 $324 0 $324 6.2831853071796004 $218 $325 forward 7 unknown #
face $-1 $326 $327 $33 $-1 $328 reversed single #
loop $-1 $-1 $329 $138 #
plane-surface $-1 -69.029206213568528 0 0 1 0 0 0 0 -1 forward_v I I I I #
coedge $-1 $330 $231 $331 $332 forward $139 $-1 #
coedge $-1 $333 $141 $330 $334 forward $89 $-1 #
coedge $-1 $141 $333 $335 $336 forward $89 $-1 #
coedge $-1 $234 $233 $141 $227 reversed $235 $-1 #
edge $-1 $337 -30.198460716868826 $338 30.198460716868826 $226 $339 forward 7 unknown #
coedge $-1 $143 $142 $340 $341 forward $56 $-1 #
coedge $-1 $342 $343 $142 $230 reversed $327 $-1 #
edge $-1 $237 -69.029206213568528 $344 69.029206213568528 $229 $345 forward 7 unknown #
coedge $-1 $223 $346 $143 $232 reversed $139 $-1 #
edge $-1 $347 -69.029206213568528 $236 69.029206213568528 $231 $348 forward 7 unknown #
coedge $-1 $226 $144 $346 $349 forward $235 $-1 #
coedge $-1 $144 $226 $342 $350 reversed $235 $-1 #
loop $-1 $-1 $233 $326 #
vertex $-1 $145 $351 #
vertex $-1 $145 $352 #
straight-curve $-1 69.029206213568528 0 10.162339145686133 0 1 0 I I #
face $-1 $353 $354 $34 $-1 $355 reversed single #
loop $-1 $-1 $245 $146 #
plane-surface $-1 69.029206213568528 0 0 -1 0 0 0 0 1 forward_v I I I I #
coedge $-1 $356 $357 $243 $358 forward $147 $-1 #
coedge $-1 $359 $149 $242 $358 reversed $93 $-1 #
coedge $-1 $149 $359 $150 $248 reversed $93 $-1 #
coedge $-1 $152 $360 $149 $246 forward $240 $-1 #
edge $-1 $361 -5.8729090512226811 $252 -2.705951137704222 $245 $362 forward 7 unknown #
coedge $-1 $151 $150 $363 $364 reversed $59 $-1 #
edge $-1 $252 -69.029206213568528 $365 69.029206213568528 $244 $366 forward 7 unknown #
coedge $-1 $367 $368 $151 $250 forward $354 $-1 #
edge $-1 $253 -69.029206213568528 $369 69.029206213568528 $249 $370 forward 7 unknown #
coedge $-1 $360 $152 $368 $371 forward $240 $-1 #
vertex $-1 $153 $372 #
vertex $-1 $371 $373 #
straight-curve $-1 69.029206213568528 -12.93742662786496 -6.9953812321676736 0 -1 0 I I #
face $-1 $374 $375 $35 $-1 $376 forward single #
loop $-1 $-1 $377 $154 #
plane-surface $-1 0 0 -10.162339145686133 0 0 1 1 0 0 forward_v I I I I #
coedge $-1 $378 $379 $263 $380 forward $155 $-1 #
coedge $-1 $160 $157 $381 $382 reversed $97 $-1 #
coedge $-1 $157 $160 $383 $384 reversed $97 $-1 #
coedge $-1 $385 $386 $157 $262 forward $387 $-1 #
edge $-1 $388 -10.162339145686133 $389 10.162339145686133 $261 $390 forward 7 unknown #
coedge $-1 $159 $158 $258 $380 reversed $62 $-1 #
coedge $-1 $381 $377 $158 $265 forward $256 $-1 #
edge $-1 $391 23.119196054595363 $269 28.051467680606436 $264 $392 forward 7 unknown #
coedge $-1 $393 $383 $159 $267 forward $375 $-1 #
edge $-1 $268 -28.051467680606436 $394 -23.119196054595363 $266 $395 forward 7 unknown #
vertex $-1 $267 $396 #
vertex $-1 $265 $397 #
straight-curve $-1 -53.636799548207335 22.452914198724844 0 0 0 -1 I I #
face $-1 $-1 $398 $36 $-1 $399 reversed single #
loop $-1 $-1 $168 $162 #
plane-surface $-1 0 0 10.162339145686133 0 0 1 1 0 0 forward_v I I I I #
coedge $-1 $400 $401 $402 $403 reversed $163 $-1 #
coedge $-1 $404 $165 $167 $281 forward $101 $-1 #
coedge $-1 $165 $404 $400 $405 forward $101 $-1 #
coedge $-1 $402 $168 $165 $278 forward $272 $-1 #
edge $-1 $284 4.976774187674577 $406 12.708572467169148 $277 $407 forward 7 unknown #
coedge $-1 $408 $409 $166 $280 forward $398 $-1 #
edge $-1 $410 -91.571656150109803 $283 -86.857302504075221 $279 $411 forward 7 unknown #
edge $-1 $284 132.61474578257159 $410 138.058412427137 $167 $412 forward 7 unknown #
coedge $-1 $168 $402 $408 $413 forward $272 $-1 #
vertex $-1 $169 $414 #
vertex $-1 $169 $415 #
straight-curve $-1 59.781047642785168 -13.81944751509644 10.162339145686133 -1 0 0 I I #
coedge $-1 $286 $286 $-1 $416 reversed $172 $-1 #
edge $-1 $417 0 $417 6.2831853071796004 $173 $418 forward 7 unknown #
vertex $-1 $176 $419 #
ellipse-curve $-1 67.66828958889289 -20.0048861386921 7.8051623226688172 0.86602541151947299 0 0.49999998660252726 0.24999999330126363 0 -0.43301270575973649 1 I I #
coedge $-1 $290 $290 $-1 $420 reversed $179 $-1 #
edge $-1 $421 0 $421 6.2831853071796004 $180 $422 forward 7 unknown #
vertex $-1 $183 $423 #
ellipse-curve $-1 67.66828958889289 -17.685346654843727 7.8051623226688172 0.86602541151947299 0 0.49999998660252726 0.24999999330126363 0 -0.43301270575973649 1 I I #
coedge $-1 $294 $294 $-1 $424 reversed $186 $-1 #
edge $-1 $425 0 $425 6.2831853071796004 $187 $426 forward 7 unknown #
vertex $-1 $190 $427 #
ellipse-curve $-1 67.66828958889289 -15.365807170995357 7.8051623226688172 0.86602541151947299 0 0.49999998660252726 0.24999999330126363 0 -0.43301270575973649 1 I I #
face $-1 $-1 $310 $40 $-1 $428 forward single #
loop $-1 $-1 $429 $191 #
plane-surface $-1 -69.029206213568528 0 0 1 0 0 0 0 -1 forward_v I I I I #
coedge $-1 $430 $431 $432 $433 reversed $192 $-1 #
coedge $-1 $434 $194 $196 $308 forward $120 $-1 #
coedge $-1 $194 $434 $430 $435 forward $120 $-1 #
coedge $-1 $432 $197 $194 $305 forward $310 $-1 #
edge $-1 $312 -12.708572467169148 $436 -4.976774187674577 $304 $437 forward 7 unknown #
coedge $-1 $438 $439 $195 $307 forward $299 $-1 #
edge $-1 $440 -31.790609432141576 $311 -27.076255786106977 $306 $441 forward 7 unknown #
edge $-1 $312 -5.4436666445654511 $440 -2.8642609447069912e-014 $196 $442 forward 7 unknown #
coedge $-1 $197 $432 $438 $443 forward $310 $-1 #
loop $-1 $-1 $432 $298 #
vertex $-1 $307 $444 #
vertex $-1 $198 $445 #
straight-curve $-1 -94.295649824752516 -21.551245794591011 10.162339145686133 1 0 0 I I #
coedge $-1 $314 $314 $-1 $446 reversed $201 $-1 #
edge $-1 $447 0 $447 6.2831853071796004 $202 $448 forward 7 unknown #
vertex $-1 $205 $449 #
ellipse-curve $-1 -67.668289588892861 -20.0048861386921 7.8051623226688314 -0.86602541151947299 0 0.49999998660252726 0.24999999330126363 0 0.43301270575973649 1 I I #
coedge $-1 $318 $318 $-1 $450 reversed $208 $-1 #
edge $-1 $451 0 $451 6.2831853071796004 $209 $452 forward 7 unknown #
vertex $-1 $212 $453 #
ellipse-curve $-1 -67.668289588892861 -17.685346654843727 7.8051623226688314 -0.86602541151947299 0 0.49999998660252726 0.24999999330126363 0 0.43301270575973649 1 I I #
coedge $-1 $322 $322 $-1 $454 reversed $215 $-1 #
edge $-1 $455 0 $455 6.2831853071796004 $216 $456 forward 7 unknown #
vertex $-1 $219 $457 #
ellipse-curve $-1 -67.668289588892861 -15.365807170995357 7.8051623226688314 -0.86602541151947299 0 0.49999998660252726 0.24999999330126363 0 0.43301270575973649 1 I I #
face $-1 $-1 $235 $33 $-1 $458 reversed single #
loop $-1 $-1 $342 $220 #
plane-surface $-1 0 30.198460716868826 0 0 -1 0 0 0 -1 forward_v I I I I #
coedge $-1 $459 $340 $343 $460 forward $221 $-1 #
coedge $-1 $346 $223 $224 $334 reversed $139 $-1 #
coedge $-1 $340 $459 $223 $332 reversed $221 $-1 #
edge $-1 $347 -10.162339145686133 $461 10.162339145686133 $331 $462 forward 7 unknown #
coedge $-1 $225 $224 $459 $463 forward $89 $-1 #
edge $-1 $338 -69.029206213568528 $461 69.029206213568528 $330 $464 forward 7 unknown #
coedge $-1 $343 $342 $225 $336 reversed $327 $-1 #
edge $-1 $465 -69.029206213568528 $337 69.029206213568528 $335 $466 forward 7 unknown #
vertex $-1 $227 $467 #
vertex $-1 $349 $468 #
straight-curve $-1 69.029206213568528 0 -10.162339145686133 0 -1 0 I I #
coedge $-1 $329 $331 $228 $341 reversed $221 $-1 #
edge $-1 $344 -30.198460716868826 $347 30.198460716868826 $340 $469 forward 7 unknown #
coedge $-1 $335 $229 $234 $350 forward $327 $-1 #
coedge $-1 $229 $335 $329 $460 reversed $327 $-1 #
vertex $-1 $230 $470 #
straight-curve $-1 0 30.198460716868826 10.162339145686133 -1 0 0 I I #
coedge $-1 $231 $330 $233 $349 reversed $139 $-1 #
vertex $-1 $341 $471 #
straight-curve $-1 0 -30.198460716868826 10.162339145686133 1 0 0 I I #
edge $-1 $236 -10.162339145686133 $338 10.162339145686133 $233 $472 forward 7 unknown #
edge $-1 $237 -10.162339145686133 $337 10.162339145686133 $234 $473 forward 7 unknown #
point $-1 69.029206213568528 -30.198460716868826 10.162339145686133 #
point $-1 69.029206213568528 30.198460716868826 10.162339145686133 #
face $-1 $-1 $474 $34 $-1 $475 reversed single #
loop $-1 $-1 $249 $239 #
plane-surface $-1 0 -30.198460716868826 0 0 1 0 0 0 1 forward_v I I I I #
coedge $-1 $476 $242 $360 $477 forward $147 $-1 #
coedge $-1 $242 $476 $478 $479 forward $147 $-1 #
edge $-1 $480 -69.029206213568528 $361 69.029206213568528 $242 $481 forward 7 unknown #
coedge $-1 $244 $243 $482 $483 reversed $93 $-1 #
coedge $-1 $245 $251 $356 $477 reversed $240 $-1 #
vertex $-1 $477 $484 #
straight-curve $-1 69.029206213568528 -21.551245794591015 -4.2894300944634516 0 0 1 I I #
coedge $-1 $482 $485 $247 $364 forward $474 $-1 #
edge $-1 $369 -17.261034089003864 $365 -8.6138191667260546 $363 $486 forward 7 unknown #
vertex $-1 $364 $487 #
straight-curve $-1 0 -21.551245794591015 -6.9953812321676736 -1 0 0 I I #
coedge $-1 $488 $249 $485 $489 forward $354 $-1 #
coedge $-1 $249 $488 $251 $371 reversed $354 $-1 #
vertex $-1 $489 $490 #
straight-curve $-1 0 -30.198460716868826 -6.9953812321676736 -1 0 0 I I #
edge $-1 $253 6.9953812321676736 $491 10.162339145686133 $251 $492 forward 7 unknown #
point $-1 69.029206213568528 -21.551245794591015 -6.9953812321676736 #
point $-1 69.029206213568528 -30.198460716868826 -6.9953812321676736 #
face $-1 $-1 $387 $35 $-1 $493 reversed single #
loop $-1 $-1 $393 $255 #
plane-surface $-1 0 0 10.162339145686133 0 0 1 1 0 0 forward_v I I I I #
coedge $-1 $264 $494 $378 $495 forward $256 $-1 #
coedge $-1 $496 $258 $377 $495 reversed $155 $-1 #
coedge $-1 $258 $496 $393 $497 reversed $155 $-1 #
edge $-1 $394 -10.162339145686133 $391 10.162339145686133 $258 $498 forward 7 unknown #
coedge $-1 $494 $264 $259 $382 forward $256 $-1 #
edge $-1 $269 9.2900704698264267 $388 17.035616987970407 $381 $499 forward 7 unknown #
coedge $-1 $266 $500 $260 $384 forward $375 $-1 #
edge $-1 $389 -17.035616987970407 $268 -9.2900704698264267 $383 $501 forward 7 unknown #
coedge $-1 $502 $261 $500 $503 reversed $387 $-1 #
coedge $-1 $261 $502 $494 $504 reversed $387 $-1 #
loop $-1 $-1 $502 $374 #
vertex $-1 $504 $505 #
vertex $-1 $262 $506 #
straight-curve $-1 -53.636799548207335 30.198460716868826 0 0 0 1 I I #
vertex $-1 $265 $507 #
straight-curve $-1 -25.5853318676009 22.452914198724844 -10.162339145686133 -1 0 0 I I #
coedge $-1 $500 $266 $379 $497 forward $375 $-1 #
vertex $-1 $267 $508 #
straight-curve $-1 -25.5853318676009 22.452914198724844 10.162339145686133 1 0 0 I I #
point $-1 -53.636799548207335 22.452914198724844 10.162339145686133 #
point $-1 -53.636799548207335 22.452914198724844 -10.162339145686133 #
loop $-1 $-1 $279 $271 #
plane-surface $-1 69.029206213568528 0 0 -1 0 0 0 0 1 forward_v I I I I #
coedge $-1 $401 $274 $276 $405 reversed $163 $-1 #
coedge $-1 $274 $400 $509 $510 reversed $163 $-1 #
coedge $-1 $282 $277 $274 $403 forward $272 $-1 #
edge $-1 $406 6.5263253214320258 $511 9.2481585707833602 $402 $512 forward 7 unknown #
coedge $-1 $276 $275 $409 $513 reversed $101 $-1 #
edge $-1 $514 -138.058412427137 $406 -132.61474578257159 $400 $515 forward 7 unknown #
vertex $-1 $278 $516 #
straight-curve $-1 66.307372964217222 -8.8426733274218634 10.162339145686133 0 -1 0 I I #
coedge $-1 $509 $279 $282 $413 reversed $398 $-1 #
coedge $-1 $279 $509 $404 $513 forward $398 $-1 #
vertex $-1 $280 $517 #
straight-curve $-1 69.029206213568528 -13.81944751509644 97.019641649761354 0 0 1 I I #
straight-curve $-1 1.8496338469731199e-006 -13.81944751509644 125.010078935588 0.49999998660252726 0 -0.86602541151947299 I I #
edge $-1 $511 -21.551245794591011 $283 -13.81944751509644 $408 $518 forward 7 unknown #
point $-1 69.029206213568528 -13.81944751509644 10.162339145686133 #
point $-1 66.307372964217194 -13.81944751509644 10.162339145686147 #
edge $-1 $519 1 $519 0 $286 $-1 forward 7 unknown #
vertex $-1 $287 $520 #
ellipse-curve $-1 66.195316926699263 -20.0048861386921 6.9547411900250209 0.86602541151947299 0 0.49999998660252726 0.24999999330126363 0 -0.43301270575973649 1 I I #
point $-1 67.918289582194134 -20.0048861386921 7.3721496169090646 #
edge $-1 $521 1 $521 0 $290 $-1 forward 7 unknown #
vertex $-1 $291 $522 #
ellipse-curve $-1 66.195316926699263 -17.685346654843727 6.9547411900250209 0.86602541151947299 0 0.49999998660252726 0.24999999330126363 0 -0.43301270575973649 1 I I #
point $-1 67.918289582194134 -17.685346654843727 7.3721496169090646 #
edge $-1 $523 1 $523 0 $294 $-1 forward 7 unknown #
vertex $-1 $295 $524 #
ellipse-curve $-1 66.195316926699263 -15.365807170995357 6.9547411900250209 0.86602541151947299 0 0.49999998660252726 0.24999999330126363 0 -0.43301270575973649 1 I I #
point $-1 67.918289582194134 -15.365807170995357 7.3721496169090646 #
plane-surface $-1 0 0 10.162339145686133 0 0 1 1 0 0 forward_v I I I I #
coedge $-1 $439 $438 $431 $525 forward $299 $-1 #
coedge $-1 $431 $301 $303 $435 reversed $192 $-1 #
coedge $-1 $301 $430 $429 $525 reversed $192 $-1 #
coedge $-1 $309 $304 $301 $433 forward $310 $-1 #
edge $-1 $436 -27.988276860535322 $526 -25.266443611183988 $432 $527 forward 7 unknown #
coedge $-1 $303 $302 $439 $528 reversed $120 $-1 #
edge $-1 $529 2.8642609447069912e-014 $436 5.4436666445654511 $430 $530 forward 7 unknown #
vertex $-1 $305 $531 #
straight-curve $-1 -66.307372964217194 -8.8426733274218634 10.162339145686133 0 1 0 I I #
coedge $-1 $429 $306 $309 $443 reversed $299 $-1 #
coedge $-1 $306 $429 $434 $528 forward $299 $-1 #
vertex $-1 $307 $532 #
straight-curve $-1 -69.029206213568528 -21.551245794591011 37.238594931793109 0 0 1 I I #
straight-curve $-1 -69.029206213568543 -21.551245794591011 5.4479854996515087 -0.49999998660252726 0 -0.86602541151947299 I I #
edge $-1 $526 13.81944751509644 $311 21.551245794591011 $438 $533 forward 7 unknown #
point $-1 -69.029206213568528 -21.551245794591011 10.162339145686133 #
point $-1 -66.307372964217194 -21.551245794591011 10.162339145686133 #
edge $-1 $534 1 $534 0 $314 $-1 forward 7 unknown #
vertex $-1 $315 $535 #
ellipse-curve $-1 -66.195316926699249 -20.0048861386921 6.9547411900250422 -0.86602541151947299 0 0.49999998660252726 0.24999999330126363 0 0.43301270575973649 1 I I #
point $-1 -67.418289595591588 -20.0048861386921 8.2381750284285591 #
edge $-1 $536 1 $536 0 $318 $-1 forward 7 unknown #
vertex $-1 $319 $537 #
ellipse-curve $-1 -66.195316926699249 -17.685346654843727 6.9547411900250422 -0.86602541151947299 0 0.49999998660252726 0.24999999330126363 0 0.43301270575973649 1 I I #
point $-1 -67.418289595591588 -17.685346654843727 8.2381750284285591 #
edge $-1 $538 1 $538 0 $322 $-1 forward 7 unknown #
vertex $-1 $323 $539 #
ellipse-curve $-1 -66.195316926699249 -15.365807170995357 6.9547411900250422 -0.86602541151947299 0 0.49999998660252726 0.24999999330126363 0 0.43301270575973649 1 I I #
point $-1 -67.418289595591588 -15.365807170995357 8.2381750284285591 #
plane-surface $-1 69.029206213568528 0 0 -1 0 0 0 0 1 forward_v I I I I #
coedge $-1 $331 $329 $333 $463 reversed $221 $-1 #
edge $-1 $344 -10.162339145686133 $465 10.162339145686133 $343 $540 forward 7 unknown #
vertex $-1 $463 $541 #
straight-curve $-1 -69.029206213568528 -30.198460716868826 0 0 0 -1 I I #
edge $-1 $461 -30.198460716868826 $465 30.198460716868826 $459 $542 forward 7 unknown #
straight-curve $-1 0 -30.198460716868826 -10.162339145686133 -1 0 0 I I #
vertex $-1 $336 $543 #
straight-curve $-1 0 30.198460716868826 -10.162339145686133 1 0 0 I I #
point $-1 69.029206213568528 30.198460716868826 -10.162339145686133 #
point $-1 69.029206213568528 -30.198460716868826 -10.162339145686133 #
straight-curve $-1 -69.029206213568528 0 10.162339145686133 0 -1 0 I I #
point $-1 -69.029206213568528 30.198460716868826 10.162339145686133 #
point $-1 -69.029206213568528 -30.198460716868826 10.162339145686133 #
straight-curve $-1 69.029206213568528 -30.198460716868826 0 0 0 -1 I I #
straight-curve $-1 69.029206213568528 30.198460716868826 0 0 0 -1 I I #
loop $-1 $-1 $482 $353 #
plane-surface $-1 -69.029206213568528 0 0 1 0 0 0 0 -1 forward_v I I I I #
coedge $-1 $357 $356 $488 $544 forward $147 $-1 #
edge $-1 $361 21.551245794591015 $491 30.198460716868826 $360 $545 forward 7 unknown #
coedge $-1 $485 $482 $357 $479 reversed $474 $-1 #
edge $-1 $546 -30.198460716868826 $480 -21.551245794591015 $478 $547 forward 7 unknown #
vertex $-1 $483 $548 #
straight-curve $-1 0 -21.551245794591015 -10.162339145686133 1 0 0 I I #
coedge $-1 $478 $363 $359 $483 forward $474 $-1 #
edge $-1 $365 2.705951137704222 $480 5.8729090512226811 $482 $549 forward 7 unknown #
point $-1 69.029206213568528 -21.551245794591015 -10.162339145686133 #
coedge $-1 $363 $478 $367 $489 reversed $474 $-1 #
straight-curve $-1 -69.029206213568528 -12.93742662786496 -6.9953812321676736 0 1 0 I I #
point $-1 -69.029206213568528 -21.551245794591015 -6.9953812321676736 #
coedge $-1 $368 $367 $476 $544 reversed $354 $-1 #
edge $-1 $369 6.9953812321676736 $546 10.162339145686133 $485 $550 forward 7 unknown #
point $-1 -69.029206213568528 -30.198460716868826 -6.9953812321676736 #
vertex $-1 $371 $551 #
straight-curve $-1 69.029206213568528 -30.198460716868826 0 0 0 -1 I I #
plane-surface $-1 0 30.198460716868826 0 0 -1 0 0 0 -1 forward_v I I I I #
coedge $-1 $377 $381 $386 $504 forward $256 $-1 #
edge $-1 $552 -17.035616987970407 $391 -9.2900704698264267 $377 $553 forward 7 unknown #
coedge $-1 $379 $378 $502 $554 reversed $155 $-1 #
edge $-1 $394 9.2900704698264267 $555 17.035616987970407 $393 $556 forward 7 unknown #
straight-curve $-1 -48.704527922196263 22.452914198724844 0 0 0 -1 I I #
straight-curve $-1 -53.636799548207335 13.162843728898418 -10.162339145686133 0 1 0 I I #
coedge $-1 $383 $393 $385 $503 forward $375 $-1 #
straight-curve $-1 -53.636799548207335 13.162843728898418 10.162339145686133 0 -1 0 I I #
coedge $-1 $386 $385 $496 $554 forward $387 $-1 #
edge $-1 $555 48.704527922196263 $389 53.636799548207335 $385 $557 forward 7 unknown #
edge $-1 $388 -53.636799548207335 $552 -48.704527922196263 $386 $558 forward 7 unknown #
point $-1 -53.636799548207335 30.198460716868826 -10.162339145686133 #
point $-1 -53.636799548207335 30.198460716868826 10.162339145686133 #
point $-1 -48.704527922196263 22.452914198724844 -10.162339145686133 #
point $-1 -48.704527922196263 22.452914198724844 10.162339145686133 #
coedge $-1 $409 $408 $401 $510 forward $398 $-1 #
edge $-1 $511 86.857302504075221 $514 91.571656150109803 $509 $559 forward 7 unknown #
vertex $-1 $413 $560 #
straight-curve $-1 59.781047642785168 -21.551245794591011 10.162339145686133 1 0 0 I I #
edge $-1 $514 -12.708572467169148 $410 -4.976774187674577 $409 $561 forward 7 unknown #
vertex $-1 $513 $562 #
straight-curve $-1 1.8496338469731199e-006 -21.551245794591011 125.010078935588 -0.49999998660252726 0 0.86602541151947299 I I #
point $-1 66.307372964217194 -21.551245794591011 10.162339145686147 #
point $-1 69.029206213568528 -13.81944751509644 5.4479854996515513 #
straight-curve $-1 69.029206213568528 0 10.162339145686133 0 1 0 I I #
vertex $-1 $416 $563 #
point $-1 66.445316920000536 -20.0048861386921 6.5217284842652843 #
vertex $-1 $420 $564 #
point $-1 66.445316920000536 -17.685346654843727 6.5217284842652843 #
vertex $-1 $424 $565 #
point $-1 66.445316920000536 -15.365807170995357 6.5217284842652843 #
edge $-1 $526 27.076255786106977 $529 31.790609432141576 $429 $566 forward 7 unknown #
vertex $-1 $443 $567 #
straight-curve $-1 -94.295649824752516 -13.81944751509644 10.162339145686133 -1 0 0 I I #
edge $-1 $529 4.976774187674577 $440 12.708572467169148 $439 $568 forward 7 unknown #
vertex $-1 $528 $569 #
straight-curve $-1 -69.029206213568543 -13.81944751509644 5.4479854996515087 0.49999998660252726 0 0.86602541151947299 I I #
point $-1 -66.307372964217194 -13.81944751509644 10.162339145686133 #
point $-1 -69.029206213568528 -21.551245794591011 5.4479854996515336 #
straight-curve $-1 -69.029206213568528 0 10.162339145686133 0 -1 0 I I #
vertex $-1 $446 $570 #
point $-1 -65.94531693339799 -20.0048861386921 7.3877538957847779 #
vertex $-1 $450 $571 #
point $-1 -65.94531693339799 -17.685346654843727 7.3877538957847779 #
vertex $-1 $454 $572 #
point $-1 -65.94531693339799 -15.365807170995357 7.3877538957847779 #
straight-curve $-1 -69.029206213568528 30.198460716868826 0 0 0 -1 I I #
point $-1 -69.029206213568528 -30.198460716868826 -10.162339145686133 #
straight-curve $-1 -69.029206213568528 0 -10.162339145686133 0 1 0 I I #
point $-1 -69.029206213568528 30.198460716868826 -10.162339145686133 #
edge $-1 $491 -69.029206213568528 $546 69.029206213568528 $488 $573 forward 7 unknown #
straight-curve $-1 69.029206213568528 0 -10.162339145686133 0 -1 0 I I #
vertex $-1 $479 $574 #
straight-curve $-1 -69.029206213568528 0 -10.162339145686133 0 1 0 I I #
point $-1 -69.029206213568528 -21.551245794591015 -10.162339145686133 #
straight-curve $-1 -69.029206213568528 -21.551245794591015 -4.2894300944634516 0 0 -1 I I #
straight-curve $-1 -69.029206213568528 -30.198460716868826 0 0 0 -1 I I #
point $-1 69.029206213568528 -30.198460716868826 -10.162339145686133 #
vertex $-1 $554 $575 #
straight-curve $-1 -48.704527922196263 13.162843728898418 -10.162339145686133 0 -1 0 I I #
edge $-1 $555 -10.162339145686133 $552 10.162339145686133 $502 $576 forward 7 unknown #
vertex $-1 $503 $577 #
straight-curve $-1 -48.704527922196263 13.162843728898418 10.162339145686133 0 1 0 I I #
straight-curve $-1 0 30.198460716868826 10.162339145686133 -1 0 0 I I #
straight-curve $-1 0 30.198460716868826 -10.162339145686133 1 0 0 I I #
straight-curve $-1 69.029206213568528 -21.551245794591011 97.019641649761354 0 0 -1 I I #
point $-1 69.029206213568528 -21.551245794591011 10.162339145686133 #
straight-curve $-1 69.029206213568528 -8.8426733274218634 5.4479854996515584 0 1 0 I I #
point $-1 69.029206213568528 -21.551245794591011 5.4479854996515513 #
point $-1 65.762304220939541 -20.0048861386921 6.7047411967237567 #
point $-1 65.762304220939541 -17.685346654843727 6.7047411967237567 #
point $-1 65.762304220939541 -15.365807170995357 6.7047411967237567 #
straight-curve $-1 -69.029206213568528 -13.81944751509644 37.238594931793109 0 0 -1 I I #
point $-1 -69.029206213568528 -13.81944751509644 10.162339145686133 #
straight-curve $-1 -69.029206213568528 -8.8426733274218634 5.4479854996515193 0 -1 0 I I #
point $-1 -69.029206213568528 -13.81944751509644 5.4479854996515336 #
point $-1 -65.762304220939527 -20.0048861386921 6.704741196723778 #
point $-1 -65.762304220939527 -17.685346654843727 6.704741196723778 #
point $-1 -65.762304220939527 -15.365807170995357 6.704741196723778 #
straight-curve $-1 0 -30.198460716868826 -10.162339145686133 -1 0 0 I I #
point $-1 -69.029206213568528 -30.198460716868826 -10.162339145686133 #
point $-1 -48.704527922196263 30.198460716868826 -10.162339145686133 #
straight-curve $-1 -48.704527922196263 30.198460716868826 0 0 0 -1 I I #
point $-1 -48.704527922196263 30.198460716868826 10.162339145686133 #
End-of-ACIS-data 