500 0 20 0           
7 Unknown 11 ACIS 5.0 NT 24 Thu Mar 25 23:43:40 1999 
-1 9.9999999999999995e-007 1e-010 
body $-1 $20 $-1 $21 #
body $-1 $22 $-1 $23 #
body $-1 $24 $-1 $25 #
body $-1 $26 $-1 $27 #
body $-1 $28 $-1 $29 #
body $-1 $30 $-1 $31 #
body $-1 $32 $-1 $33 #
body $-1 $34 $-1 $35 #
body $-1 $36 $-1 $37 #
body $-1 $38 $-1 $39 #
body $-1 $40 $-1 $41 #
body $-1 $42 $-1 $43 #
body $-1 $44 $-1 $45 #
body $-1 $46 $-1 $47 #
body $-1 $48 $-1 $49 #
body $-1 $50 $-1 $51 #
body $-1 $52 $-1 $53 #
body $-1 $54 $-1 $55 #
body $-1 $56 $-1 $57 #
body $-1 $58 $-1 $59 #
lump $-1 $-1 $60 $0 #
transform $-1 1 0 0 0 1 0 0 0 1 46.003601184118168 20.433253322966884 9.1033270869879814 1 rotate no_reflect no_shear #
lump $-1 $-1 $61 $1 #
transform $-1 1 0 0 0 1 0 0 0 1 46.003601184118168 20.433253322966884 9.1033270869879814 1 rotate no_reflect no_shear #
lump $-1 $-1 $62 $2 #
transform $-1 1 0 0 0 1 0 0 0 1 46.003601184118168 20.433253322966884 9.1033270869879814 1 rotate no_reflect no_shear #
lump $-1 $-1 $63 $3 #
transform $-1 1 0 0 0 1 0 0 0 1 46.003601184118168 20.433253322966884 9.1033270869879814 1 rotate no_reflect no_shear #
lump $-1 $-1 $64 $4 #
transform $-1 1 0 0 0 1 0 0 0 1 46.003601184118168 20.433253322966884 9.1033270869879814 1 rotate no_reflect no_shear #
lump $-1 $-1 $65 $5 #
transform $-1 1 0 0 0 1 0 0 0 1 46.003601184118168 20.433253322966884 9.1033270869879814 1 rotate no_reflect no_shear #
lump $-1 $-1 $66 $6 #
transform $-1 1 0 0 0 1 0 0 0 1 46.003601184118168 20.433253322966884 9.1033270869879814 1 rotate no_reflect no_shear #
lump $-1 $-1 $67 $7 #
transform $-1 1 0 0 0 1 0 0 0 1 46.003601184118168 20.433253322966884 9.1033270869879814 1 rotate no_reflect no_shear #
lump $-1 $-1 $68 $8 #
transform $-1 1 0 0 0 1 0 0 0 1 46.003601184118168 20.433253322966884 9.1033270869879814 1 rotate no_reflect no_shear #
lump $-1 $-1 $69 $9 #
transform $-1 1 0 0 0 1 0 0 0 1 46.003601184118168 20.433253322966884 9.1033270869879814 1 rotate no_reflect no_shear #
lump $-1 $-1 $70 $10 #
transform $-1 1 0 0 0 1 0 0 0 1 46.003601184118168 20.433253322966884 9.1033270869879814 1 rotate no_reflect no_shear #
lump $-1 $-1 $71 $11 #
transform $-1 1 0 0 0 1 0 0 0 1 46.003601184118168 20.433253322966884 9.1033270869879814 1 rotate no_reflect no_shear #
lump $-1 $-1 $72 $12 #
transform $-1 1 0 0 0 1 0 0 0 1 46.003601184118168 20.433253322966884 9.1033270869879814 1 rotate no_reflect no_shear #
lump $-1 $-1 $73 $13 #
transform $-1 1 0 0 0 1 0 0 0 1 46.003601184118168 20.433253322966884 9.1033270869879814 1 rotate no_reflect no_shear #
lump $-1 $-1 $74 $14 #
transform $-1 1 0 0 0 1 0 0 0 1 46.003601184118168 20.433253322966884 9.1033270869879814 1 rotate no_reflect no_shear #
lump $-1 $-1 $75 $15 #
transform $-1 1 0 0 0 1 0 0 0 1 46.003601184118168 20.433253322966884 9.1033270869879814 1 rotate no_reflect no_shear #
lump $-1 $-1 $76 $16 #
transform $-1 1 0 0 0 1 0 0 0 1 46.003601184118168 20.433253322966884 9.1033270869879814 1 rotate no_reflect no_shear #
lump $-1 $-1 $77 $17 #
transform $-1 1 0 0 0 1 0 0 0 1 46.003601184118168 20.433253322966884 9.1033270869879814 1 rotate no_reflect no_shear #
lump $-1 $-1 $78 $18 #
transform $-1 1 0 0 0 1 0 0 0 1 46.003601184118168 20.433253322966884 9.1033270869879814 1 rotate no_reflect no_shear #
lump $-1 $-1 $79 $19 #
transform $-1 1 0 0 0 1 0 0 0 1 46.003601184118168 20.433253322966884 9.1033270869879814 1 rotate no_reflect no_shear #
shell $-1 $-1 $-1 $80 $-1 $20 #
shell $-1 $-1 $-1 $81 $-1 $22 #
shell $-1 $-1 $-1 $82 $-1 $24 #
shell $-1 $-1 $-1 $83 $-1 $26 #
shell $-1 $-1 $-1 $84 $-1 $28 #
shell $-1 $-1 $-1 $85 $-1 $30 #
shell $-1 $-1 $-1 $86 $-1 $32 #
shell $-1 $-1 $-1 $87 $-1 $34 #
shell $-1 $-1 $-1 $88 $-1 $36 #
shell $-1 $-1 $-1 $89 $-1 $38 #
shell $-1 $-1 $-1 $90 $-1 $40 #
shell $-1 $-1 $-1 $91 $-1 $42 #
shell $-1 $-1 $-1 $92 $-1 $44 #
shell $-1 $-1 $-1 $93 $-1 $46 #
shell $-1 $-1 $-1 $94 $-1 $48 #
shell $-1 $-1 $-1 $95 $-1 $50 #
shell $-1 $-1 $-1 $96 $-1 $52 #
shell $-1 $-1 $-1 $97 $-1 $54 #
shell $-1 $-1 $-1 $98 $-1 $56 #
shell $-1 $-1 $-1 $99 $-1 $58 #
face $-1 $100 $101 $60 $-1 $102 forward single #
face $-1 $103 $104 $61 $-1 $105 reversed single #
face $-1 $106 $107 $62 $-1 $108 forward single #
face $-1 $109 $110 $63 $-1 $111 forward single #
face $-1 $112 $113 $64 $-1 $114 reversed single #
face $-1 $115 $116 $65 $-1 $117 forward single #
face $-1 $118 $119 $66 $-1 $120 forward single #
face $-1 $121 $122 $67 $-1 $123 forward single #
face $-1 $124 $125 $68 $-1 $126 reversed single #
face $-1 $127 $128 $69 $-1 $129 forward single #
face $-1 $130 $131 $70 $-1 $132 forward single #
face $-1 $133 $134 $71 $-1 $135 forward single #
face $-1 $136 $137 $72 $-1 $138 reversed single #
face $-1 $139 $140 $73 $-1 $141 forward single #
face $-1 $142 $143 $74 $-1 $144 forward single #
face $-1 $145 $146 $75 $-1 $147 forward single #
face $-1 $148 $149 $76 $-1 $150 reversed single #
face $-1 $151 $152 $77 $-1 $153 forward single #
face $-1 $154 $155 $78 $-1 $156 forward single #
face $-1 $157 $158 $79 $-1 $159 forward single #
face $-1 $160 $161 $60 $-1 $162 reversed single #
loop $-1 $-1 $163 $80 #
plane-surface $-1 0 0 9.1033270869879814 0 0 1 1 0 0 forward_v I I I I #
face $-1 $164 $165 $61 $-1 $166 reversed single #
loop $-1 $-1 $167 $81 #
plane-surface $-1 -94.759990811023329 -5.9200372492332827 80.877682266658184 0 1 0 -0.52991927123019833 0 0.84804809178421925 forward_v I I I I #
face $-1 $168 $169 $62 $-1 $170 forward single #
loop $-1 $171 $172 $82 #
cone-surface $-1 -40.417727873555087 -3.7010668030571132 5.0441060598985539 0.52991927123019833 0 -0.84804809178421925 0.84804809178421925 0 0.52991927123019833 1 I I 0 1 1 forward I I I I #
face $-1 $173 $174 $63 $-1 $175 forward single #
loop $-1 $176 $177 $83 #
cone-surface $-1 -40.417727873555087 -0.37261113379285504 5.0441060598985539 0.52991927123019833 0 -0.84804809178421925 0.84804809178421925 0 0.52991927123019833 1 I I 0 1 1 forward I I I I #
face $-1 $178 $179 $64 $-1 $180 reversed single #
loop $-1 $-1 $181 $84 #
plane-surface $-1 32.402585313707192 -12.230181925767482 135.28968708389957 0 -1 0 -0.62932039886446345 0 -0.77714595512881146 forward_v I I I I #
face $-1 $182 $183 $65 $-1 $184 forward single #
loop $-1 $185 $186 $85 #
cone-surface $-1 43.554006366298943 -17.192403013105842 6.9231847272313027 -0.62932039886446345 0 -0.77714595512881146 0.38857297756440573 0 -0.31466019943223172 1 I I 0 1 0.5 forward I I I I #
face $-1 $187 $188 $66 $-1 $189 forward single #
loop $-1 $190 $191 $86 #
cone-surface $-1 43.554006366298943 -15.331570105353958 6.9231847272313027 -0.62932039886446345 0 -0.77714595512881146 0.38857297756440573 0 -0.31466019943223172 1 I I 0 1 0.5 forward I I I I #
face $-1 $192 $193 $67 $-1 $194 forward single #
loop $-1 $195 $196 $87 #
cone-surface $-1 43.554006366298943 -13.470737197602071 6.9231847272313027 -0.62932039886446345 0 -0.77714595512881146 0.38857297756440573 0 -0.31466019943223172 1 I I 0 1 0.5 forward I I I I #
face $-1 $197 $198 $68 $-1 $199 reversed single #
loop $-1 $-1 $200 $88 #
plane-surface $-1 32.402585313707192 -2.0091351888648417 135.28968708389957 0 -1 0 -0.62932039886446345 0 -0.77714595512881146 forward_v I I I I #
face $-1 $201 $202 $69 $-1 $203 forward single #
loop $-1 $204 $205 $89 #
cone-surface $-1 43.554006366298943 -6.9713562762032044 6.9231847272313027 -0.62932039886446345 0 -0.77714595512881146 0.38857297756440573 0 -0.31466019943223172 1 I I 0 1 0.5 forward I I I I #
face $-1 $206 $207 $70 $-1 $208 forward single #
loop $-1 $209 $210 $90 #
cone-surface $-1 43.554006366298943 -5.110523368451318 6.9231847272313027 -0.62932039886446345 0 -0.77714595512881146 0.38857297756440573 0 -0.31466019943223172 1 I I 0 1 0.5 forward I I I I #
face $-1 $211 $212 $71 $-1 $213 forward single #
loop $-1 $214 $215 $91 #
cone-surface $-1 43.554006366298943 -3.2496904606994335 6.9231847272313027 -0.62932039886446345 0 -0.77714595512881146 0.38857297756440573 0 -0.31466019943223172 1 I I 0 1 0.5 forward I I I I #
face $-1 $216 $217 $72 $-1 $218 reversed single #
loop $-1 $-1 $219 $92 #
plane-surface $-1 32.402585313707192 8.2119115480377936 135.28968708389957 0 -1 0 -0.62932039886446345 0 -0.77714595512881146 forward_v I I I I #
face $-1 $220 $221 $73 $-1 $222 forward single #
loop $-1 $223 $224 $93 #
cone-surface $-1 43.554006366298943 3.2496904606994335 6.9231847272313027 -0.62932039886446345 0 -0.77714595512881146 0.38857297756440573 0 -0.31466019943223172 1 I I 0 1 0.5 forward I I I I #
face $-1 $225 $226 $74 $-1 $227 forward single #
loop $-1 $228 $229 $94 #
cone-surface $-1 43.554006366298943 5.110523368451318 6.9231847272313027 -0.62932039886446345 0 -0.77714595512881146 0.38857297756440573 0 -0.31466019943223172 1 I I 0 1 0.5 forward I I I I #
face $-1 $230 $231 $75 $-1 $232 forward single #
loop $-1 $233 $234 $95 #
cone-surface $-1 43.554006366298943 6.9713562762032026 6.9231847272313027 -0.62932039886446345 0 -0.77714595512881146 0.38857297756440573 0 -0.31466019943223172 1 I I 0 1 0.5 forward I I I I #
face $-1 $235 $236 $76 $-1 $237 reversed single #
loop $-1 $-1 $238 $96 #
plane-surface $-1 32.402585313707192 18.43295828494043 135.28968708389957 0 -1 0 -0.62932039886446345 0 -0.77714595512881146 forward_v I I I I #
face $-1 $239 $240 $77 $-1 $241 forward single #
loop $-1 $242 $243 $97 #
cone-surface $-1 43.554006366298943 13.47073719760207 6.9231847272313027 -0.62932039886446345 0 -0.77714595512881146 0.38857297756440573 0 -0.31466019943223172 1 I I 0 1 0.5 forward I I I I #
face $-1 $244 $245 $78 $-1 $246 forward single #
loop $-1 $247 $248 $98 #
cone-surface $-1 43.554006366298943 15.331570105353954 6.9231847272313027 -0.62932039886446345 0 -0.77714595512881146 0.38857297756440573 0 -0.31466019943223172 1 I I 0 1 0.5 forward I I I I #
face $-1 $249 $250 $79 $-1 $251 forward single #
loop $-1 $252 $253 $99 #
cone-surface $-1 43.554006366298943 17.192403013105839 6.9231847272313027 -0.62932039886446345 0 -0.77714595512881146 0.38857297756440573 0 -0.31466019943223172 1 I I 0 1 0.5 forward I I I I #
face $-1 $254 $255 $60 $-1 $256 reversed single #
loop $-1 $-1 $257 $100 #
plane-surface $-1 0 0 -9.1033270869879814 0 0 1 1 0 0 forward_v I I I I #
coedge $-1 $258 $259 $260 $261 forward $101 $-1 #
face $-1 $262 $263 $61 $-1 $264 reversed single #
loop $-1 $-1 $265 $103 #
plane-surface $-1 -46.003601184118153 -2.0368389684249841 2.8511498678708591 -0.52991927123019833 0 0.84804809178421925 0.84804809178421925 0 0.52991927123019833 forward_v I I I I #
coedge $-1 $266 $267 $268 $269 reversed $104 $-1 #
face $-1 $-1 $270 $62 $-1 $271 forward single #
loop $-1 $272 $273 $106 #
cone-surface $-1 -39.569682378246725 -3.7010668030571132 3.6869495964755714 0.52991927123019833 0 -0.84804809178421925 0.42402404589210962 0 0.26495963561509916 1 I I -0.70710678118654746 0.70710678118654746 0.5 forward I I I I #
loop $-1 $-1 $274 $82 #
coedge $-1 $172 $172 $275 $276 reversed $107 $-1 #
face $-1 $-1 $277 $63 $-1 $278 forward single #
loop $-1 $279 $280 $109 #
cone-surface $-1 -39.569682378246725 -0.37261113379285504 3.6869495964755714 0.52991927123019833 0 -0.84804809178421925 0.42402404589210962 0 0.26495963561509916 1 I I -0.70710678118654746 0.70710678118654746 0.5 forward I I I I #
loop $-1 $-1 $281 $83 #
coedge $-1 $177 $177 $282 $283 reversed $110 $-1 #
face $-1 $284 $285 $64 $-1 $286 reversed single #
loop $-1 $-1 $287 $112 #
plane-surface $-1 -25.499423979074706 -15.331570105353958 63.786661920706692 0.62932039886446345 0 0.77714595512881146 0.77714595512881146 0 -0.62932039886446345 forward_v I I I I #
coedge $-1 $288 $289 $290 $291 reversed $113 $-1 #
face $-1 $-1 $292 $65 $-1 $293 forward single #
loop $-1 $294 $295 $115 #
cone-surface $-1 42.934447376557159 -17.192403013105842 6.1580931082240227 -0.62932039886446345 0 -0.77714595512881146 0.19428648878220287 0 -0.15733009971611586 1 I I -0.70710678118654746 0.70710678118654746 0.25 forward I I I I #
loop $-1 $-1 $296 $85 #
coedge $-1 $186 $186 $297 $298 reversed $116 $-1 #
face $-1 $-1 $299 $66 $-1 $300 forward single #
loop $-1 $301 $302 $118 #
cone-surface $-1 42.934447376557159 -15.331570105353958 6.1580931082240227 -0.62932039886446345 0 -0.77714595512881146 0.19428648878220287 0 -0.15733009971611586 1 I I -0.70710678118654746 0.70710678118654746 0.25 forward I I I I #
loop $-1 $-1 $303 $86 #
coedge $-1 $191 $191 $304 $305 reversed $119 $-1 #
face $-1 $-1 $306 $67 $-1 $307 forward single #
loop $-1 $308 $309 $121 #
cone-surface $-1 42.934447376557159 -13.470737197602071 6.1580931082240227 -0.62932039886446345 0 -0.77714595512881146 0.19428648878220287 0 -0.15733009971611586 1 I I -0.70710678118654746 0.70710678118654746 0.25 forward I I I I #
loop $-1 $-1 $310 $87 #
coedge $-1 $196 $196 $311 $312 reversed $122 $-1 #
face $-1 $313 $314 $68 $-1 $315 reversed single #
loop $-1 $-1 $316 $124 #
plane-surface $-1 -25.499423979074706 -5.110523368451318 63.786661920706692 0.62932039886446345 0 0.77714595512881146 0.77714595512881146 0 -0.62932039886446345 forward_v I I I I #
coedge $-1 $317 $318 $319 $320 reversed $125 $-1 #
face $-1 $-1 $321 $69 $-1 $322 forward single #
loop $-1 $323 $324 $127 #
cone-surface $-1 42.934447376557159 -6.9713562762032044 6.1580931082240227 -0.62932039886446345 0 -0.77714595512881146 0.19428648878220287 0 -0.15733009971611586 1 I I -0.70710678118654746 0.70710678118654746 0.25 forward I I I I #
loop $-1 $-1 $325 $89 #
coedge $-1 $205 $205 $326 $327 reversed $128 $-1 #
face $-1 $-1 $328 $70 $-1 $329 forward single #
loop $-1 $330 $331 $130 #
cone-surface $-1 42.934447376557159 -5.110523368451318 6.1580931082240227 -0.62932039886446345 0 -0.77714595512881146 0.19428648878220287 0 -0.15733009971611586 1 I I -0.70710678118654746 0.70710678118654746 0.25 forward I I I I #
loop $-1 $-1 $332 $90 #
coedge $-1 $210 $210 $333 $334 reversed $131 $-1 #
face $-1 $-1 $335 $71 $-1 $336 forward single #
loop $-1 $337 $338 $133 #
cone-surface $-1 42.934447376557159 -3.2496904606994335 6.1580931082240227 -0.62932039886446345 0 -0.77714595512881146 0.19428648878220287 0 -0.15733009971611586 1 I I -0.70710678118654746 0.70710678118654746 0.25 forward I I I I #
loop $-1 $-1 $339 $91 #
coedge $-1 $215 $215 $340 $341 reversed $134 $-1 #
face $-1 $342 $343 $72 $-1 $344 reversed single #
loop $-1 $-1 $345 $136 #
plane-surface $-1 -25.499423979074706 5.110523368451318 63.786661920706692 0.62932039886446345 0 0.77714595512881146 0.77714595512881146 0 -0.62932039886446345 forward_v I I I I #
coedge $-1 $346 $347 $348 $349 reversed $137 $-1 #
face $-1 $-1 $350 $73 $-1 $351 forward single #
loop $-1 $352 $353 $139 #
cone-surface $-1 42.934447376557159 3.2496904606994335 6.1580931082240227 -0.62932039886446345 0 -0.77714595512881146 0.19428648878220287 0 -0.15733009971611586 1 I I -0.70710678118654746 0.70710678118654746 0.25 forward I I I I #
loop $-1 $-1 $354 $93 #
coedge $-1 $224 $224 $355 $356 reversed $140 $-1 #
face $-1 $-1 $357 $74 $-1 $358 forward single #
loop $-1 $359 $360 $142 #
cone-surface $-1 42.934447376557159 5.110523368451318 6.1580931082240227 -0.62932039886446345 0 -0.77714595512881146 0.19428648878220287 0 -0.15733009971611586 1 I I -0.70710678118654746 0.70710678118654746 0.25 forward I I I I #
loop $-1 $-1 $361 $94 #
coedge $-1 $229 $229 $362 $363 reversed $143 $-1 #
face $-1 $-1 $364 $75 $-1 $365 forward single #
loop $-1 $366 $367 $145 #
cone-surface $-1 42.934447376557159 6.9713562762032026 6.1580931082240227 -0.62932039886446345 0 -0.77714595512881146 0.19428648878220287 0 -0.15733009971611586 1 I I -0.70710678118654746 0.70710678118654746 0.25 forward I I I I #
loop $-1 $-1 $368 $95 #
coedge $-1 $234 $234 $369 $370 reversed $146 $-1 #
face $-1 $371 $372 $76 $-1 $373 reversed single #
loop $-1 $-1 $374 $148 #
plane-surface $-1 -25.499423979074706 15.331570105353954 63.786661920706692 0.62932039886446345 0 0.77714595512881146 0.77714595512881146 0 -0.62932039886446345 forward_v I I I I #
coedge $-1 $375 $376 $377 $378 reversed $149 $-1 #
face $-1 $-1 $379 $77 $-1 $380 forward single #
loop $-1 $381 $382 $151 #
cone-surface $-1 42.934447376557159 13.47073719760207 6.1580931082240227 -0.62932039886446345 0 -0.77714595512881146 0.19428648878220287 0 -0.15733009971611586 1 I I -0.70710678118654746 0.70710678118654746 0.25 forward I I I I #
loop $-1 $-1 $383 $97 #
coedge $-1 $243 $243 $384 $385 reversed $152 $-1 #
face $-1 $-1 $386 $78 $-1 $387 forward single #
loop $-1 $388 $389 $154 #
cone-surface $-1 42.934447376557159 15.331570105353954 6.1580931082240227 -0.62932039886446345 0 -0.77714595512881146 0.19428648878220287 0 -0.15733009971611586 1 I I -0.70710678118654746 0.70710678118654746 0.25 forward I I I I #
loop $-1 $-1 $390 $98 #
coedge $-1 $248 $248 $391 $392 reversed $155 $-1 #
face $-1 $-1 $393 $79 $-1 $394 forward single #
loop $-1 $395 $396 $157 #
cone-surface $-1 42.934447376557159 17.192403013105839 6.1580931082240227 -0.62932039886446345 0 -0.77714595512881146 0.19428648878220287 0 -0.15733009971611586 1 I I -0.70710678118654746 0.70710678118654746 0.25 forward I I I I #
loop $-1 $-1 $397 $99 #
coedge $-1 $253 $253 $398 $399 reversed $158 $-1 #
face $-1 $400 $401 $60 $-1 $402 reversed single #
loop $-1 $-1 $403 $160 #
plane-surface $-1 0 -20.433253322966884 0 0 1 0 0 0 1 forward_v I I I I #
coedge $-1 $404 $405 $406 $407 forward $161 $-1 #
coedge $-1 $408 $163 $409 $410 forward $101 $-1 #
coedge $-1 $163 $408 $411 $412 forward $101 $-1 #
coedge $-1 $413 $414 $163 $261 reversed $415 $-1 #
edge $-1 $416 -20.433253322966884 $417 20.433253322966884 $260 $418 forward 7 unknown #
face $-1 $419 $420 $61 $-1 $421 reversed single #
loop $-1 $-1 $422 $164 #
plane-surface $-1 -94.759990811023329 1.8463593123833144 80.877682266658184 0 -1 0 0.52991927123019833 0 -0.84804809178421925 forward_v I I I I #
coedge $-1 $423 $424 $425 $426 reversed $165 $-1 #
coedge $-1 $267 $167 $427 $428 reversed $104 $-1 #
coedge $-1 $167 $266 $423 $429 reversed $104 $-1 #
coedge $-1 $425 $430 $167 $269 forward $431 $-1 #
edge $-1 $432 1.3763942213934968 $433 11.381969123133167 $268 $434 forward 7 unknown #
loop $-1 $-1 $275 $168 #
plane-surface $-1 -46.003601184118153 -2.0368389684249841 2.8511498678708591 -0.52991927123019833 0 0.84804809178421925 0.84804809178421925 0 0.52991927123019833 forward_v I I I I #
loop $-1 $-1 $435 $106 #
coedge $-1 $273 $273 $274 $436 reversed $169 $-1 #
coedge $-1 $274 $274 $273 $436 forward $171 $-1 #
coedge $-1 $275 $275 $172 $276 forward $270 $-1 #
edge $-1 $437 0 $437 6.2831853071796004 $275 $438 forward 7 unknown #
loop $-1 $-1 $282 $173 #
plane-surface $-1 -46.003601184118153 -2.0368389684249841 2.8511498678708591 -0.52991927123019833 0 0.84804809178421925 0.84804809178421925 0 0.52991927123019833 forward_v I I I I #
loop $-1 $-1 $439 $109 #
coedge $-1 $280 $280 $281 $440 reversed $174 $-1 #
coedge $-1 $281 $281 $280 $440 forward $176 $-1 #
coedge $-1 $282 $282 $177 $283 forward $277 $-1 #
edge $-1 $441 0 $441 6.2831853071796004 $282 $442 forward 7 unknown #
face $-1 $443 $444 $64 $-1 $445 forward single #
loop $-1 $-1 $446 $178 #
plane-surface $-1 32.402585313707192 -18.432958284940433 135.28968708389957 0 1 0 0.62932039886446345 0 0.77714595512881146 forward_v I I I I #
coedge $-1 $447 $448 $449 $450 reversed $179 $-1 #
coedge $-1 $289 $181 $451 $452 reversed $113 $-1 #
coedge $-1 $181 $288 $447 $453 reversed $113 $-1 #
coedge $-1 $449 $454 $181 $291 forward $444 $-1 #
edge $-1 $455 -29.802308527264572 $456 -25.827576671677463 $290 $457 forward 7 unknown #
loop $-1 $-1 $297 $182 #
plane-surface $-1 -25.499423979074706 -15.331570105353958 63.786661920706692 0.62932039886446345 0 0.77714595512881146 0.77714595512881146 0 -0.62932039886446345 forward_v I I I I #
loop $-1 $-1 $458 $115 #
coedge $-1 $295 $295 $296 $459 reversed $183 $-1 #
coedge $-1 $296 $296 $295 $459 forward $185 $-1 #
coedge $-1 $297 $297 $186 $298 forward $292 $-1 #
edge $-1 $460 0 $460 6.2831853071796004 $297 $461 forward 7 unknown #
loop $-1 $-1 $304 $187 #
plane-surface $-1 -25.499423979074706 -15.331570105353958 63.786661920706692 0.62932039886446345 0 0.77714595512881146 0.77714595512881146 0 -0.62932039886446345 forward_v I I I I #
loop $-1 $-1 $462 $118 #
coedge $-1 $302 $302 $303 $463 reversed $188 $-1 #
coedge $-1 $303 $303 $302 $463 forward $190 $-1 #
coedge $-1 $304 $304 $191 $305 forward $299 $-1 #
edge $-1 $464 0 $464 6.2831853071796004 $304 $465 forward 7 unknown #
loop $-1 $-1 $311 $192 #
plane-surface $-1 -25.499423979074706 -15.331570105353958 63.786661920706692 0.62932039886446345 0 0.77714595512881146 0.77714595512881146 0 -0.62932039886446345 forward_v I I I I #
loop $-1 $-1 $466 $121 #
coedge $-1 $309 $309 $310 $467 reversed $193 $-1 #
coedge $-1 $310 $310 $309 $467 forward $195 $-1 #
coedge $-1 $311 $311 $196 $312 forward $306 $-1 #
edge $-1 $468 0 $468 6.2831853071796004 $311 $469 forward 7 unknown #
face $-1 $470 $471 $68 $-1 $472 reversed single #
loop $-1 $-1 $473 $197 #
plane-surface $-1 32.402585313707192 -8.2119115480377936 135.28968708389957 0 1 0 0.62932039886446345 0 0.77714595512881146 forward_v I I I I #
coedge $-1 $474 $475 $476 $477 reversed $198 $-1 #
coedge $-1 $318 $200 $478 $479 reversed $125 $-1 #
coedge $-1 $200 $317 $474 $480 reversed $125 $-1 #
coedge $-1 $476 $481 $200 $320 forward $482 $-1 #
edge $-1 $483 -29.802308527264572 $484 -25.827576671677463 $319 $485 forward 7 unknown #
loop $-1 $-1 $326 $201 #
plane-surface $-1 -25.499423979074706 -5.110523368451318 63.786661920706692 0.62932039886446345 0 0.77714595512881146 0.77714595512881146 0 -0.62932039886446345 forward_v I I I I #
loop $-1 $-1 $486 $127 #
coedge $-1 $324 $324 $325 $487 reversed $202 $-1 #
coedge $-1 $325 $325 $324 $487 forward $204 $-1 #
coedge $-1 $326 $326 $205 $327 forward $321 $-1 #
edge $-1 $488 0 $488 6.2831853071796004 $326 $489 forward 7 unknown #
loop $-1 $-1 $333 $206 #
plane-surface $-1 -25.499423979074706 -5.110523368451318 63.786661920706692 0.62932039886446345 0 0.77714595512881146 0.77714595512881146 0 -0.62932039886446345 forward_v I I I I #
loop $-1 $-1 $490 $130 #
coedge $-1 $331 $331 $332 $491 reversed $207 $-1 #
coedge $-1 $332 $332 $331 $491 forward $209 $-1 #
coedge $-1 $333 $333 $210 $334 forward $328 $-1 #
edge $-1 $492 0 $492 6.2831853071796004 $333 $493 forward 7 unknown #
loop $-1 $-1 $340 $211 #
plane-surface $-1 -25.499423979074706 -5.110523368451318 63.786661920706692 0.62932039886446345 0 0.77714595512881146 0.77714595512881146 0 -0.62932039886446345 forward_v I I I I #
loop $-1 $-1 $494 $133 #
coedge $-1 $338 $338 $339 $495 reversed $212 $-1 #
coedge $-1 $339 $339 $338 $495 forward $214 $-1 #
coedge $-1 $340 $340 $215 $341 forward $335 $-1 #
edge $-1 $496 0 $496 6.2831853071796004 $340 $497 forward 7 unknown #
face $-1 $498 $499 $72 $-1 $500 reversed single #
loop $-1 $-1 $501 $216 #
plane-surface $-1 32.402585313707192 2.0091351888648417 135.28968708389957 0 1 0 0.62932039886446345 0 0.77714595512881146 forward_v I I I I #
coedge $-1 $502 $503 $504 $505 reversed $217 $-1 #
coedge $-1 $347 $219 $506 $507 reversed $137 $-1 #
coedge $-1 $219 $346 $502 $508 reversed $137 $-1 #
coedge $-1 $504 $509 $219 $349 forward $510 $-1 #
edge $-1 $511 -29.802308527264572 $512 -25.827576671677463 $348 $513 forward 7 unknown #
loop $-1 $-1 $355 $220 #
plane-surface $-1 -25.499423979074706 5.110523368451318 63.786661920706692 0.62932039886446345 0 0.77714595512881146 0.77714595512881146 0 -0.62932039886446345 forward_v I I I I #
loop $-1 $-1 $514 $139 #
coedge $-1 $353 $353 $354 $515 reversed $221 $-1 #
coedge $-1 $354 $354 $353 $515 forward $223 $-1 #
coedge $-1 $355 $355 $224 $356 forward $350 $-1 #
edge $-1 $516 0 $516 6.2831853071796004 $355 $517 forward 7 unknown #
loop $-1 $-1 $362 $225 #
plane-surface $-1 -25.499423979074706 5.110523368451318 63.786661920706692 0.62932039886446345 0 0.77714595512881146 0.77714595512881146 0 -0.62932039886446345 forward_v I I I I #
loop $-1 $-1 $518 $142 #
coedge $-1 $360 $360 $361 $519 reversed $226 $-1 #
coedge $-1 $361 $361 $360 $519 forward $228 $-1 #
coedge $-1 $362 $362 $229 $363 forward $357 $-1 #
edge $-1 $520 0 $520 6.2831853071796004 $362 $521 forward 7 unknown #
loop $-1 $-1 $369 $230 #
plane-surface $-1 -25.499423979074706 5.110523368451318 63.786661920706692 0.62932039886446345 0 0.77714595512881146 0.77714595512881146 0 -0.62932039886446345 forward_v I I I I #
loop $-1 $-1 $522 $145 #
coedge $-1 $367 $367 $368 $523 reversed $231 $-1 #
coedge $-1 $368 $368 $367 $523 forward $233 $-1 #
coedge $-1 $369 $369 $234 $370 forward $364 $-1 #
edge $-1 $524 0 $524 6.2831853071796004 $369 $525 forward 7 unknown #
face $-1 $526 $527 $76 $-1 $528 reversed single #
loop $-1 $-1 $529 $235 #
plane-surface $-1 32.402585313707192 12.230181925767479 135.28968708389957 0 1 0 0.62932039886446345 0 0.77714595512881146 forward_v I I I I #
coedge $-1 $530 $531 $532 $533 reversed $236 $-1 #
coedge $-1 $376 $238 $534 $535 reversed $149 $-1 #
coedge $-1 $238 $375 $530 $536 reversed $149 $-1 #
coedge $-1 $532 $537 $238 $378 forward $538 $-1 #
edge $-1 $539 -29.802308527264572 $540 -25.827576671677463 $377 $541 forward 7 unknown #
loop $-1 $-1 $384 $239 #
plane-surface $-1 -25.499423979074706 15.331570105353954 63.786661920706692 0.62932039886446345 0 0.77714595512881146 0.77714595512881146 0 -0.62932039886446345 forward_v I I I I #
loop $-1 $-1 $542 $151 #
coedge $-1 $382 $382 $383 $543 reversed $240 $-1 #
coedge $-1 $383 $383 $382 $543 forward $242 $-1 #
coedge $-1 $384 $384 $243 $385 forward $379 $-1 #
edge $-1 $544 0 $544 6.2831853071796004 $384 $545 forward 7 unknown #
loop $-1 $-1 $391 $244 #
plane-surface $-1 -25.499423979074706 15.331570105353954 63.786661920706692 0.62932039886446345 0 0.77714595512881146 0.77714595512881146 0 -0.62932039886446345 forward_v I I I I #
loop $-1 $-1 $546 $154 #
coedge $-1 $389 $389 $390 $547 reversed $245 $-1 #
coedge $-1 $390 $390 $389 $547 forward $247 $-1 #
coedge $-1 $391 $391 $248 $392 forward $386 $-1 #
edge $-1 $548 0 $548 6.2831853071796004 $391 $549 forward 7 unknown #
loop $-1 $-1 $398 $249 #
plane-surface $-1 -25.499423979074706 15.331570105353954 63.786661920706692 0.62932039886446345 0 0.77714595512881146 0.77714595512881146 0 -0.62932039886446345 forward_v I I I I #
loop $-1 $-1 $550 $157 #
coedge $-1 $396 $396 $397 $551 reversed $250 $-1 #
coedge $-1 $397 $397 $396 $551 forward $252 $-1 #
coedge $-1 $398 $398 $253 $399 forward $393 $-1 #
edge $-1 $552 0 $552 6.2831853071796004 $398 $553 forward 7 unknown #
face $-1 $554 $555 $60 $-1 $556 reversed single #
loop $-1 $-1 $557 $254 #
plane-surface $-1 -46.003601184118168 0 0 1 0 0 0 0 -1 forward_v I I I I #
coedge $-1 $558 $411 $559 $560 forward $255 $-1 #
coedge $-1 $561 $257 $558 $562 forward $161 $-1 #
coedge $-1 $257 $561 $563 $564 forward $161 $-1 #
coedge $-1 $414 $413 $257 $407 reversed $415 $-1 #
edge $-1 $565 -20.433253322966884 $566 20.433253322966884 $406 $567 forward 7 unknown #
coedge $-1 $259 $258 $568 $569 forward $101 $-1 #
coedge $-1 $570 $571 $258 $410 reversed $555 $-1 #
edge $-1 $417 -46.003601184118168 $572 46.003601184118168 $409 $573 forward 7 unknown #
coedge $-1 $403 $574 $259 $412 reversed $255 $-1 #
edge $-1 $575 -46.003601184118168 $416 46.003601184118168 $411 $576 forward 7 unknown #
coedge $-1 $406 $260 $574 $577 forward $415 $-1 #
coedge $-1 $260 $406 $570 $578 reversed $415 $-1 #
loop $-1 $-1 $413 $554 #
vertex $-1 $261 $579 #
vertex $-1 $261 $580 #
straight-curve $-1 46.003601184118168 0 9.1033270869879814 0 1 0 I I #
face $-1 $-1 $431 $61 $-1 $581 forward single #
loop $-1 $-1 $582 $262 #
plane-surface $-1 -46.003601184118168 0 0 1 0 0 0 0 -1 forward_v I I I I #
coedge $-1 $583 $584 $585 $586 reversed $263 $-1 #
coedge $-1 $587 $265 $267 $429 forward $165 $-1 #
coedge $-1 $265 $587 $583 $588 forward $165 $-1 #
coedge $-1 $585 $268 $265 $426 forward $431 $-1 #
edge $-1 $433 -4.9016177650207906 $589 2.8647787965958065 $425 $590 forward 7 unknown #
coedge $-1 $591 $592 $266 $428 forward $420 $-1 #
edge $-1 $593 -37.58769126545824 $432 -31.33551404634111 $427 $594 forward 7 unknown #
edge $-1 $433 -11.798357898180985 $593 1.675811683274863e-014 $267 $595 forward 7 unknown #
coedge $-1 $268 $585 $591 $596 forward $431 $-1 #
loop $-1 $-1 $585 $419 #
vertex $-1 $428 $597 #
vertex $-1 $269 $598 #
straight-curve $-1 -47.379995405511664 -5.9200372492332827 9.1033270869879814 1 0 0 I I #
coedge $-1 $435 $435 $-1 $599 reversed $272 $-1 #
edge $-1 $600 0 $600 6.2831853071796004 $273 $601 forward 7 unknown #
vertex $-1 $276 $602 #
ellipse-curve $-1 -41.000813733248343 -3.7010668030571132 5.9772384774294105 -0.52991927123019833 0 0.84804809178421925 0.84804809178421925 0 0.52991927123019833 1 I I #
coedge $-1 $439 $439 $-1 $603 reversed $279 $-1 #
edge $-1 $604 0 $604 6.2831853071796004 $280 $605 forward 7 unknown #
vertex $-1 $283 $606 #
ellipse-curve $-1 -41.000813733248343 -0.37261113379285504 5.9772384774294105 -0.52991927123019833 0 0.84804809178421925 0.84804809178421925 0 0.52991927123019833 1 I I #
face $-1 $-1 $607 $64 $-1 $608 reversed single #
loop $-1 $-1 $290 $284 #
plane-surface $-1 0 0 9.1033270869879814 0 0 1 1 0 0 forward_v I I I I #
coedge $-1 $609 $610 $611 $612 reversed $285 $-1 #
coedge $-1 $613 $287 $289 $453 forward $179 $-1 #
coedge $-1 $287 $613 $609 $614 forward $179 $-1 #
coedge $-1 $611 $290 $287 $450 forward $444 $-1 #
edge $-1 $456 4.5643968730905033 $615 10.767173232263454 $449 $616 forward 7 unknown #
coedge $-1 $617 $618 $288 $452 forward $607 $-1 #
edge $-1 $619 -61.760190914024989 $455 -58.541516454961801 $451 $620 forward 7 unknown #
edge $-1 $456 86.892678089552675 $619 92.007202368236335 $289 $621 forward 7 unknown #
coedge $-1 $290 $611 $617 $622 forward $444 $-1 #
vertex $-1 $452 $623 #
vertex $-1 $291 $624 #
straight-curve $-1 16.201292656853596 -12.230181925767482 9.1033270869879814 -1 0 0 I I #
coedge $-1 $458 $458 $-1 $625 reversed $294 $-1 #
edge $-1 $626 0 $626 6.2831853071796004 $295 $627 forward 7 unknown #
vertex $-1 $298 $628 #
ellipse-curve $-1 44.01623525632462 -17.192403013105842 7.4939898574563912 0.62932039886446345 0 0.77714595512881146 0.38857297756440573 0 -0.31466019943223172 1 I I #
coedge $-1 $462 $462 $-1 $629 reversed $301 $-1 #
edge $-1 $630 0 $630 6.2831853071796004 $302 $631 forward 7 unknown #
vertex $-1 $305 $632 #
ellipse-curve $-1 44.01623525632462 -15.331570105353958 7.4939898574563912 0.62932039886446345 0 0.77714595512881146 0.38857297756440573 0 -0.31466019943223172 1 I I #
coedge $-1 $466 $466 $-1 $633 reversed $308 $-1 #
edge $-1 $634 0 $634 6.2831853071796004 $309 $635 forward 7 unknown #
vertex $-1 $312 $636 #
ellipse-curve $-1 44.01623525632462 -13.470737197602071 7.4939898574563912 0.62932039886446345 0 0.77714595512881146 0.38857297756440573 0 -0.31466019943223172 1 I I #
face $-1 $-1 $482 $68 $-1 $637 forward single #
loop $-1 $-1 $638 $313 #
plane-surface $-1 46.003601184118168 0 0 -1 0 0 0 0 1 forward_v I I I I #
coedge $-1 $639 $640 $641 $642 reversed $314 $-1 #
coedge $-1 $643 $316 $318 $480 forward $198 $-1 #
coedge $-1 $316 $643 $639 $644 forward $198 $-1 #
coedge $-1 $641 $319 $316 $477 forward $482 $-1 #
edge $-1 $484 -0.54612649536081737 $645 5.6566498638121345 $476 $646 forward 7 unknown #
coedge $-1 $647 $648 $317 $479 forward $471 $-1 #
edge $-1 $649 -61.760190914024989 $483 -58.541516454961801 $478 $650 forward 7 unknown #
edge $-1 $484 86.892678089552675 $649 92.007202368236335 $318 $651 forward 7 unknown #
coedge $-1 $319 $641 $647 $652 forward $482 $-1 #
loop $-1 $-1 $641 $470 #
vertex $-1 $479 $653 #
vertex $-1 $320 $654 #
straight-curve $-1 16.201292656853596 -2.0091351888648417 9.1033270869879814 -1 0 0 I I #
coedge $-1 $486 $486 $-1 $655 reversed $323 $-1 #
edge $-1 $656 0 $656 6.2831853071796004 $324 $657 forward 7 unknown #
vertex $-1 $327 $658 #
ellipse-curve $-1 44.01623525632462 -6.9713562762032044 7.4939898574563912 0.62932039886446345 0 0.77714595512881146 0.38857297756440573 0 -0.31466019943223172 1 I I #
coedge $-1 $490 $490 $-1 $659 reversed $330 $-1 #
edge $-1 $660 0 $660 6.2831853071796004 $331 $661 forward 7 unknown #
vertex $-1 $334 $662 #
ellipse-curve $-1 44.01623525632462 -5.110523368451318 7.4939898574563912 0.62932039886446345 0 0.77714595512881146 0.38857297756440573 0 -0.31466019943223172 1 I I #
coedge $-1 $494 $494 $-1 $663 reversed $337 $-1 #
edge $-1 $664 0 $664 6.2831853071796004 $338 $665 forward 7 unknown #
vertex $-1 $341 $666 #
ellipse-curve $-1 44.01623525632462 -3.2496904606994335 7.4939898574563912 0.62932039886446345 0 0.77714595512881146 0.38857297756440573 0 -0.31466019943223172 1 I I #
face $-1 $-1 $510 $72 $-1 $667 forward single #
loop $-1 $-1 $668 $342 #
plane-surface $-1 46.003601184118168 0 0 -1 0 0 0 0 1 forward_v I I I I #
coedge $-1 $669 $670 $671 $672 reversed $343 $-1 #
coedge $-1 $673 $345 $347 $508 forward $217 $-1 #
coedge $-1 $345 $673 $669 $674 forward $217 $-1 #
coedge $-1 $671 $348 $345 $505 forward $510 $-1 #
edge $-1 $512 -5.6566498638121345 $675 0.54612649536081737 $504 $676 forward 7 unknown #
coedge $-1 $677 $678 $346 $507 forward $499 $-1 #
edge $-1 $679 -61.760190914024989 $511 -58.541516454961801 $506 $680 forward 7 unknown #
edge $-1 $512 86.892678089552675 $679 92.007202368236335 $347 $681 forward 7 unknown #
coedge $-1 $348 $671 $677 $682 forward $510 $-1 #
loop $-1 $-1 $671 $498 #
vertex $-1 $507 $683 #
vertex $-1 $349 $684 #
straight-curve $-1 16.201292656853596 8.2119115480377936 9.1033270869879814 -1 0 0 I I #
coedge $-1 $514 $514 $-1 $685 reversed $352 $-1 #
edge $-1 $686 0 $686 6.2831853071796004 $353 $687 forward 7 unknown #
vertex $-1 $356 $688 #
ellipse-curve $-1 44.01623525632462 3.2496904606994335 7.4939898574563912 0.62932039886446345 0 0.77714595512881146 0.38857297756440573 0 -0.31466019943223172 1 I I #
coedge $-1 $518 $518 $-1 $689 reversed $359 $-1 #
edge $-1 $690 0 $690 6.2831853071796004 $360 $691 forward 7 unknown #
vertex $-1 $363 $692 #
ellipse-curve $-1 44.01623525632462 5.110523368451318 7.4939898574563912 0.62932039886446345 0 0.77714595512881146 0.38857297756440573 0 -0.31466019943223172 1 I I #
coedge $-1 $522 $522 $-1 $693 reversed $366 $-1 #
edge $-1 $694 0 $694 6.2831853071796004 $367 $695 forward 7 unknown #
vertex $-1 $370 $696 #
ellipse-curve $-1 44.01623525632462 6.9713562762032026 7.4939898574563912 0.62932039886446345 0 0.77714595512881146 0.38857297756440573 0 -0.31466019943223172 1 I I #
face $-1 $-1 $538 $76 $-1 $697 forward single #
loop $-1 $-1 $698 $371 #
plane-surface $-1 46.003601184118168 0 0 -1 0 0 0 0 1 forward_v I I I I #
coedge $-1 $699 $700 $701 $702 reversed $372 $-1 #
coedge $-1 $703 $374 $376 $536 forward $236 $-1 #
coedge $-1 $374 $703 $699 $704 forward $236 $-1 #
coedge $-1 $701 $377 $374 $533 forward $538 $-1 #
edge $-1 $540 -10.767173232263453 $705 -4.5643968730905016 $532 $706 forward 7 unknown #
coedge $-1 $707 $708 $375 $535 forward $527 $-1 #
edge $-1 $709 -61.760190914024989 $539 -58.541516454961801 $534 $710 forward 7 unknown #
edge $-1 $540 86.892678089552675 $709 92.007202368236335 $376 $711 forward 7 unknown #
coedge $-1 $377 $701 $707 $712 forward $538 $-1 #
loop $-1 $-1 $701 $526 #
vertex $-1 $535 $713 #
vertex $-1 $378 $714 #
straight-curve $-1 16.201292656853596 18.43295828494043 9.1033270869879814 -1 0 0 I I #
coedge $-1 $542 $542 $-1 $715 reversed $381 $-1 #
edge $-1 $716 0 $716 6.2831853071796004 $382 $717 forward 7 unknown #
vertex $-1 $385 $718 #
ellipse-curve $-1 44.01623525632462 13.47073719760207 7.4939898574563912 0.62932039886446345 0 0.77714595512881146 0.38857297756440573 0 -0.31466019943223172 1 I I #
coedge $-1 $546 $546 $-1 $719 reversed $388 $-1 #
edge $-1 $720 0 $720 6.2831853071796004 $389 $721 forward 7 unknown #
vertex $-1 $392 $722 #
ellipse-curve $-1 44.01623525632462 15.331570105353954 7.4939898574563912 0.62932039886446345 0 0.77714595512881146 0.38857297756440573 0 -0.31466019943223172 1 I I #
coedge $-1 $550 $550 $-1 $723 reversed $395 $-1 #
edge $-1 $724 0 $724 6.2831853071796004 $396 $725 forward 7 unknown #
vertex $-1 $399 $726 #
ellipse-curve $-1 44.01623525632462 17.192403013105839 7.4939898574563912 0.62932039886446345 0 0.77714595512881146 0.38857297756440573 0 -0.31466019943223172 1 I I #
face $-1 $-1 $415 $60 $-1 $727 reversed single #
loop $-1 $-1 $570 $400 #
plane-surface $-1 0 20.433253322966884 0 0 -1 0 0 0 -1 forward_v I I I I #
coedge $-1 $728 $568 $571 $729 forward $401 $-1 #
coedge $-1 $574 $403 $404 $562 reversed $255 $-1 #
coedge $-1 $568 $728 $403 $560 reversed $401 $-1 #
edge $-1 $575 -9.1033270869879814 $730 9.1033270869879814 $559 $731 forward 7 unknown #
coedge $-1 $405 $404 $728 $732 forward $161 $-1 #
edge $-1 $566 -46.003601184118168 $730 46.003601184118168 $558 $733 forward 7 unknown #
coedge $-1 $571 $570 $405 $564 reversed $555 $-1 #
edge $-1 $734 -46.003601184118168 $565 46.003601184118168 $563 $735 forward 7 unknown #
vertex $-1 $407 $736 #
vertex $-1 $577 $737 #
straight-curve $-1 46.003601184118168 0 -9.1033270869879814 0 -1 0 I I #
coedge $-1 $557 $559 $408 $569 reversed $401 $-1 #
edge $-1 $572 -20.433253322966884 $575 20.433253322966884 $568 $738 forward 7 unknown #
coedge $-1 $563 $409 $414 $578 forward $555 $-1 #
coedge $-1 $409 $563 $557 $729 reversed $555 $-1 #
vertex $-1 $410 $739 #
straight-curve $-1 0 20.433253322966884 9.1033270869879814 -1 0 0 I I #
coedge $-1 $411 $558 $413 $577 reversed $255 $-1 #
vertex $-1 $569 $740 #
straight-curve $-1 0 -20.433253322966884 9.1033270869879814 1 0 0 I I #
edge $-1 $416 -9.1033270869879814 $566 9.1033270869879814 $413 $741 forward 7 unknown #
edge $-1 $417 -9.1033270869879814 $565 9.1033270869879814 $414 $742 forward 7 unknown #
point $-1 46.003601184118168 -20.433253322966884 9.1033270869879814 #
point $-1 46.003601184118168 20.433253322966884 9.1033270869879814 #
plane-surface $-1 0 0 9.1033270869879814 0 0 1 1 0 0 forward_v I I I I #
coedge $-1 $592 $591 $584 $743 forward $420 $-1 #
coedge $-1 $584 $422 $424 $588 reversed $263 $-1 #
coedge $-1 $422 $583 $582 $743 reversed $263 $-1 #
coedge $-1 $430 $425 $422 $586 forward $431 $-1 #
edge $-1 $589 -11.381969123133167 $744 -1.3763942213934968 $585 $745 forward 7 unknown #
coedge $-1 $424 $423 $592 $746 reversed $165 $-1 #
edge $-1 $747 -1.675811683274863e-014 $589 11.798357898180985 $583 $748 forward 7 unknown #
vertex $-1 $426 $749 #
straight-curve $-1 -35.998026282378504 -1.0184194842124921 9.1033270869879814 0 1 0 I I #
coedge $-1 $582 $427 $430 $596 reversed $420 $-1 #
coedge $-1 $427 $582 $587 $746 forward $420 $-1 #
vertex $-1 $428 $750 #
straight-curve $-1 -46.003601184118168 -5.9200372492332827 40.438841133329092 0 0 1 I I #
straight-curve $-1 -46.003601184118153 -5.9200372492332827 2.8511498678708591 -0.84804809178421925 0 -0.52991927123019833 I I #
edge $-1 $744 -1.8463593123833144 $432 5.9200372492332827 $591 $751 forward 7 unknown #
point $-1 -46.003601184118168 -5.9200372492332827 9.1033270869879814 #
point $-1 -35.998026282378497 -5.9200372492332827 9.1033270869879814 #
edge $-1 $752 1 $752 0 $435 $-1 forward 7 unknown #
vertex $-1 $436 $753 #
ellipse-curve $-1 -39.834642013861824 -3.7010668030571132 4.1109736423676813 -0.52991927123019833 0 0.84804809178421925 0.84804809178421925 0 0.52991927123019833 1 I I #
point $-1 -40.152765641464136 -3.7010668030571132 6.5071577486596253 #
edge $-1 $754 1 $754 0 $439 $-1 forward 7 unknown #
vertex $-1 $440 $755 #
ellipse-curve $-1 -39.834642013861824 -0.37261113379285504 4.1109736423676813 -0.52991927123019833 0 0.84804809178421925 0.84804809178421925 0 0.52991927123019833 1 I I #
point $-1 -40.152765641464136 -0.37261113379285504 6.5071577486596253 #
loop $-1 $-1 $451 $443 #
plane-surface $-1 46.003601184118168 0 0 -1 0 0 0 0 1 forward_v I I I I #
coedge $-1 $610 $446 $448 $614 reversed $285 $-1 #
coedge $-1 $446 $609 $756 $757 reversed $285 $-1 #
coedge $-1 $454 $449 $446 $612 forward $444 $-1 #
edge $-1 $615 25.827576671677463 $758 29.802308527264572 $611 $759 forward 7 unknown #
coedge $-1 $448 $447 $618 $760 reversed $179 $-1 #
edge $-1 $761 -92.007202368236335 $615 -86.892678089552675 $609 $762 forward 7 unknown #
vertex $-1 $450 $763 #
straight-curve $-1 42.028869328531073 -7.6657850526769789 9.1033270869879743 0 -1 0 I I #
coedge $-1 $756 $451 $454 $622 reversed $607 $-1 #
coedge $-1 $451 $756 $613 $760 forward $607 $-1 #
vertex $-1 $452 $764 #
straight-curve $-1 46.003601184118168 -12.230181925767482 67.644843541949783 0 0 1 I I #
straight-curve $-1 -25.499423979074706 -12.230181925767482 63.786661920706692 0.77714595512881146 0 -0.62932039886446345 I I #
edge $-1 $758 -18.432958284940433 $455 -12.230181925767482 $617 $765 forward 7 unknown #
point $-1 46.003601184118168 -12.230181925767482 9.1033270869879814 #
point $-1 42.028869328531059 -12.230181925767482 9.1033270869879814 #
edge $-1 $766 1 $766 0 $458 $-1 forward 7 unknown #
vertex $-1 $459 $767 #
ellipse-curve $-1 43.091777476273272 -17.192403013105842 6.3523795970062258 0.62932039886446345 0 0.77714595512881146 0.38857297756440573 0 -0.31466019943223172 1 I I #
point $-1 44.404808233889014 -17.192403013105842 7.1793296580241481 #
edge $-1 $768 1 $768 0 $462 $-1 forward 7 unknown #
vertex $-1 $463 $769 #
ellipse-curve $-1 43.091777476273272 -15.331570105353958 6.3523795970062258 0.62932039886446345 0 0.77714595512881146 0.38857297756440573 0 -0.31466019943223172 1 I I #
point $-1 44.404808233889014 -15.331570105353958 7.1793296580241481 #
edge $-1 $770 1 $770 0 $466 $-1 forward 7 unknown #
vertex $-1 $467 $771 #
ellipse-curve $-1 43.091777476273272 -13.470737197602071 6.3523795970062258 0.62932039886446345 0 0.77714595512881146 0.38857297756440573 0 -0.31466019943223172 1 I I #
point $-1 44.404808233889014 -13.470737197602071 7.1793296580241481 #
plane-surface $-1 0 0 9.1033270869879814 0 0 1 1 0 0 forward_v I I I I #
coedge $-1 $648 $647 $640 $772 forward $471 $-1 #
coedge $-1 $640 $473 $475 $644 reversed $314 $-1 #
coedge $-1 $473 $639 $638 $772 reversed $314 $-1 #
coedge $-1 $481 $476 $473 $642 forward $482 $-1 #
edge $-1 $645 25.827576671677463 $773 29.802308527264572 $641 $774 forward 7 unknown #
coedge $-1 $475 $474 $648 $775 reversed $198 $-1 #
edge $-1 $776 -92.007202368236335 $645 -86.892678089552675 $639 $777 forward 7 unknown #
vertex $-1 $477 $778 #
straight-curve $-1 42.028869328531073 -2.555261684225659 9.1033270869879743 0 -1 0 I I #
coedge $-1 $638 $478 $481 $652 reversed $471 $-1 #
coedge $-1 $478 $638 $643 $775 forward $471 $-1 #
vertex $-1 $479 $779 #
straight-curve $-1 46.003601184118168 -2.0091351888648417 67.644843541949783 0 0 1 I I #
straight-curve $-1 -25.499423979074706 -2.0091351888648417 63.786661920706692 0.77714595512881146 0 -0.62932039886446345 I I #
edge $-1 $773 -8.2119115480377936 $483 -2.0091351888648417 $647 $780 forward 7 unknown #
point $-1 46.003601184118168 -2.0091351888648417 9.1033270869879814 #
point $-1 42.028869328531059 -2.0091351888648417 9.1033270869879814 #
edge $-1 $781 1 $781 0 $486 $-1 forward 7 unknown #
vertex $-1 $487 $782 #
ellipse-curve $-1 43.091777476273272 -6.9713562762032044 6.3523795970062258 0.62932039886446345 0 0.77714595512881146 0.38857297756440573 0 -0.31466019943223172 1 I I #
point $-1 44.404808233889014 -6.9713562762032044 7.1793296580241481 #
edge $-1 $783 1 $783 0 $490 $-1 forward 7 unknown #
vertex $-1 $491 $784 #
ellipse-curve $-1 43.091777476273272 -5.110523368451318 6.3523795970062258 0.62932039886446345 0 0.77714595512881146 0.38857297756440573 0 -0.31466019943223172 1 I I #
point $-1 44.404808233889014 -5.110523368451318 7.1793296580241481 #
edge $-1 $785 1 $785 0 $494 $-1 forward 7 unknown #
vertex $-1 $495 $786 #
ellipse-curve $-1 43.091777476273272 -3.2496904606994335 6.3523795970062258 0.62932039886446345 0 0.77714595512881146 0.38857297756440573 0 -0.31466019943223172 1 I I #
point $-1 44.404808233889014 -3.2496904606994335 7.1793296580241481 #
plane-surface $-1 0 0 9.1033270869879814 0 0 1 1 0 0 forward_v I I I I #
coedge $-1 $678 $677 $670 $787 forward $499 $-1 #
coedge $-1 $670 $501 $503 $674 reversed $343 $-1 #
coedge $-1 $501 $669 $668 $787 reversed $343 $-1 #
coedge $-1 $509 $504 $501 $672 forward $510 $-1 #
edge $-1 $675 25.827576671677463 $788 29.802308527264572 $671 $789 forward 7 unknown #
coedge $-1 $503 $502 $678 $790 reversed $217 $-1 #
edge $-1 $791 -92.007202368236335 $675 -86.892678089552675 $669 $792 forward 7 unknown #
vertex $-1 $505 $793 #
straight-curve $-1 42.028869328531073 2.555261684225659 9.1033270869879743 0 -1 0 I I #
coedge $-1 $668 $506 $509 $682 reversed $499 $-1 #
coedge $-1 $506 $668 $673 $790 forward $499 $-1 #
vertex $-1 $507 $794 #
straight-curve $-1 46.003601184118168 8.2119115480377936 67.644843541949783 0 0 1 I I #
straight-curve $-1 -25.499423979074706 8.2119115480377936 63.786661920706692 0.77714595512881146 0 -0.62932039886446345 I I #
edge $-1 $788 2.0091351888648417 $511 8.2119115480377936 $677 $795 forward 7 unknown #
point $-1 46.003601184118168 8.2119115480377936 9.1033270869879814 #
point $-1 42.028869328531059 8.2119115480377936 9.1033270869879814 #
edge $-1 $796 1 $796 0 $514 $-1 forward 7 unknown #
vertex $-1 $515 $797 #
ellipse-curve $-1 43.091777476273272 3.2496904606994335 6.3523795970062258 0.62932039886446345 0 0.77714595512881146 0.38857297756440573 0 -0.31466019943223172 1 I I #
point $-1 44.404808233889014 3.2496904606994335 7.1793296580241481 #
edge $-1 $798 1 $798 0 $518 $-1 forward 7 unknown #
vertex $-1 $519 $799 #
ellipse-curve $-1 43.091777476273272 5.110523368451318 6.3523795970062258 0.62932039886446345 0 0.77714595512881146 0.38857297756440573 0 -0.31466019943223172 1 I I #
point $-1 44.404808233889014 5.110523368451318 7.1793296580241481 #
edge $-1 $800 1 $800 0 $522 $-1 forward 7 unknown #
vertex $-1 $523 $801 #
ellipse-curve $-1 43.091777476273272 6.9713562762032026 6.3523795970062258 0.62932039886446345 0 0.77714595512881146 0.38857297756440573 0 -0.31466019943223172 1 I I #
point $-1 44.404808233889014 6.9713562762032026 7.1793296580241481 #
plane-surface $-1 0 0 9.1033270869879814 0 0 1 1 0 0 forward_v I I I I #
coedge $-1 $708 $707 $700 $802 forward $527 $-1 #
coedge $-1 $700 $529 $531 $704 reversed $372 $-1 #
coedge $-1 $529 $699 $698 $802 reversed $372 $-1 #
coedge $-1 $537 $532 $529 $702 forward $538 $-1 #
edge $-1 $705 25.827576671677463 $803 29.802308527264572 $701 $804 forward 7 unknown #
coedge $-1 $531 $530 $708 $805 reversed $236 $-1 #
edge $-1 $806 -92.007202368236335 $705 -86.892678089552675 $699 $807 forward 7 unknown #
vertex $-1 $533 $808 #
straight-curve $-1 42.028869328531073 7.6657850526769771 9.1033270869879743 0 -1 0 I I #
coedge $-1 $698 $534 $537 $712 reversed $527 $-1 #
coedge $-1 $534 $698 $703 $805 forward $527 $-1 #
vertex $-1 $535 $809 #
straight-curve $-1 46.003601184118168 18.43295828494043 67.644843541949783 0 0 1 I I #
straight-curve $-1 -25.499423979074706 18.43295828494043 63.786661920706692 0.77714595512881146 0 -0.62932039886446345 I I #
edge $-1 $803 12.230181925767479 $539 18.43295828494043 $707 $810 forward 7 unknown #
point $-1 46.003601184118168 18.43295828494043 9.1033270869879814 #
point $-1 42.028869328531059 18.43295828494043 9.1033270869879814 #
edge $-1 $811 1 $811 0 $542 $-1 forward 7 unknown #
vertex $-1 $543 $812 #
ellipse-curve $-1 43.091777476273272 13.47073719760207 6.3523795970062258 0.62932039886446345 0 0.77714595512881146 0.38857297756440573 0 -0.31466019943223172 1 I I #
point $-1 44.404808233889014 13.47073719760207 7.1793296580241481 #
edge $-1 $813 1 $813 0 $546 $-1 forward 7 unknown #
vertex $-1 $547 $814 #
ellipse-curve $-1 43.091777476273272 15.331570105353954 6.3523795970062258 0.62932039886446345 0 0.77714595512881146 0.38857297756440573 0 -0.31466019943223172 1 I I #
point $-1 44.404808233889014 15.331570105353954 7.1793296580241481 #
edge $-1 $815 1 $815 0 $550 $-1 forward 7 unknown #
vertex $-1 $551 $816 #
ellipse-curve $-1 43.091777476273272 17.192403013105839 6.3523795970062258 0.62932039886446345 0 0.77714595512881146 0.38857297756440573 0 -0.31466019943223172 1 I I #
point $-1 44.404808233889014 17.192403013105839 7.1793296580241481 #
plane-surface $-1 46.003601184118168 0 0 -1 0 0 0 0 1 forward_v I I I I #
coedge $-1 $559 $557 $561 $732 reversed $401 $-1 #
edge $-1 $572 -9.1033270869879814 $734 9.1033270869879814 $571 $817 forward 7 unknown #
vertex $-1 $732 $818 #
straight-curve $-1 -46.003601184118168 -20.433253322966884 0 0 0 -1 I I #
edge $-1 $730 -20.433253322966884 $734 20.433253322966884 $728 $819 forward 7 unknown #
straight-curve $-1 0 -20.433253322966884 -9.1033270869879814 -1 0 0 I I #
vertex $-1 $564 $820 #
straight-curve $-1 0 20.433253322966884 -9.1033270869879814 1 0 0 I I #
point $-1 46.003601184118168 20.433253322966884 -9.1033270869879814 #
point $-1 46.003601184118168 -20.433253322966884 -9.1033270869879814 #
straight-curve $-1 -46.003601184118168 0 9.1033270869879814 0 -1 0 I I #
point $-1 -46.003601184118168 20.433253322966884 9.1033270869879814 #
point $-1 -46.003601184118168 -20.433253322966884 9.1033270869879814 #
straight-curve $-1 46.003601184118168 -20.433253322966884 0 0 0 -1 I I #
straight-curve $-1 46.003601184118168 20.433253322966884 0 0 0 -1 I I #
edge $-1 $744 31.33551404634111 $747 37.58769126545824 $582 $821 forward 7 unknown #
vertex $-1 $596 $822 #
straight-curve $-1 -47.379995405511664 1.8463593123833144 9.1033270869879814 -1 0 0 I I #
edge $-1 $747 -2.8647787965958065 $593 4.9016177650207906 $592 $823 forward 7 unknown #
vertex $-1 $746 $824 #
straight-curve $-1 -46.003601184118153 1.8463593123833144 2.8511498678708591 0.84804809178421925 0 0.52991927123019833 I I #
point $-1 -35.998026282378497 1.8463593123833144 9.1033270869879814 #
point $-1 -46.003601184118168 -5.9200372492332827 2.8511498678708502 #
straight-curve $-1 -46.003601184118168 0 9.1033270869879814 0 -1 0 I I #
vertex $-1 $599 $825 #
point $-1 -38.986593922077603 -3.7010668030571132 4.6408929135978791 #
vertex $-1 $603 $826 #
point $-1 -38.986593922077603 -0.37261113379285504 4.6408929135978791 #
coedge $-1 $618 $617 $610 $757 forward $607 $-1 #
edge $-1 $758 58.541516454961801 $761 61.760190914024989 $756 $827 forward 7 unknown #
vertex $-1 $622 $828 #
straight-curve $-1 16.201292656853596 -18.432958284940433 9.1033270869879814 1 0 0 I I #
edge $-1 $761 -10.767173232263454 $619 -4.5643968730905033 $618 $829 forward 7 unknown #
vertex $-1 $760 $830 #
straight-curve $-1 -25.499423979074706 -18.432958284940433 63.786661920706692 -0.77714595512881146 0 0.62932039886446345 I I #
point $-1 42.028869328531059 -18.432958284940433 9.1033270869879814 #
point $-1 46.003601184118168 -12.230181925767482 5.8846526279247939 #
straight-curve $-1 46.003601184118168 0 9.1033270869879814 0 1 0 I I #
vertex $-1 $625 $831 #
point $-1 43.48035045383768 -17.192403013105842 6.0377193975739942 #
vertex $-1 $629 $832 #
point $-1 43.48035045383768 -15.331570105353958 6.0377193975739942 #
vertex $-1 $633 $833 #
point $-1 43.48035045383768 -13.470737197602071 6.0377193975739942 #
edge $-1 $773 58.541516454961801 $776 61.760190914024989 $638 $834 forward 7 unknown #
vertex $-1 $652 $835 #
straight-curve $-1 16.201292656853596 -8.2119115480377936 9.1033270869879814 1 0 0 I I #
edge $-1 $776 -5.6566498638121345 $649 0.54612649536081737 $648 $836 forward 7 unknown #
vertex $-1 $775 $837 #
straight-curve $-1 -25.499423979074706 -8.2119115480377936 63.786661920706692 -0.77714595512881146 0 0.62932039886446345 I I #
point $-1 42.028869328531059 -8.2119115480377936 9.1033270869879814 #
point $-1 46.003601184118168 -2.0091351888648417 5.8846526279247939 #
straight-curve $-1 46.003601184118168 0 9.1033270869879814 0 1 0 I I #
vertex $-1 $655 $838 #
point $-1 43.48035045383768 -6.9713562762032044 6.0377193975739942 #
vertex $-1 $659 $839 #
point $-1 43.48035045383768 -5.110523368451318 6.0377193975739942 #
vertex $-1 $663 $840 #
point $-1 43.48035045383768 -3.2496904606994335 6.0377193975739942 #
edge $-1 $788 58.541516454961801 $791 61.760190914024989 $668 $841 forward 7 unknown #
vertex $-1 $682 $842 #
straight-curve $-1 16.201292656853596 2.0091351888648417 9.1033270869879814 1 0 0 I I #
edge $-1 $791 -0.54612649536081737 $679 5.6566498638121345 $678 $843 forward 7 unknown #
vertex $-1 $790 $844 #
straight-curve $-1 -25.499423979074706 2.0091351888648417 63.786661920706692 -0.77714595512881146 0 0.62932039886446345 I I #
point $-1 42.028869328531059 2.0091351888648417 9.1033270869879814 #
point $-1 46.003601184118168 8.2119115480377936 5.8846526279247939 #
straight-curve $-1 46.003601184118168 0 9.1033270869879814 0 1 0 I I #
vertex $-1 $685 $845 #
point $-1 43.48035045383768 3.2496904606994335 6.0377193975739942 #
vertex $-1 $689 $846 #
point $-1 43.48035045383768 5.110523368451318 6.0377193975739942 #
vertex $-1 $693 $847 #
point $-1 43.48035045383768 6.9713562762032026 6.0377193975739942 #
edge $-1 $803 58.541516454961801 $806 61.760190914024989 $698 $848 forward 7 unknown #
vertex $-1 $712 $849 #
straight-curve $-1 16.201292656853596 12.230181925767479 9.1033270869879814 1 0 0 I I #
edge $-1 $806 4.5643968730905016 $709 10.767173232263453 $708 $850 forward 7 unknown #
vertex $-1 $805 $851 #
straight-curve $-1 -25.499423979074706 12.230181925767479 63.786661920706692 -0.77714595512881146 0 0.62932039886446345 I I #
point $-1 42.028869328531059 12.230181925767479 9.1033270869879814 #
point $-1 46.003601184118168 18.43295828494043 5.8846526279247939 #
straight-curve $-1 46.003601184118168 0 9.1033270869879814 0 1 0 I I #
vertex $-1 $715 $852 #
point $-1 43.48035045383768 13.47073719760207 6.0377193975739942 #
vertex $-1 $719 $853 #
point $-1 43.48035045383768 15.331570105353954 6.0377193975739942 #
vertex $-1 $723 $854 #
point $-1 43.48035045383768 17.192403013105839 6.0377193975739942 #
straight-curve $-1 -46.003601184118168 20.433253322966884 0 0 0 -1 I I #
point $-1 -46.003601184118168 -20.433253322966884 -9.1033270869879814 #
straight-curve $-1 -46.003601184118168 0 -9.1033270869879814 0 1 0 I I #
point $-1 -46.003601184118168 20.433253322966884 -9.1033270869879814 #
straight-curve $-1 -46.003601184118168 1.8463593123833144 40.438841133329092 0 0 -1 I I #
point $-1 -46.003601184118168 1.8463593123833144 9.1033270869879814 #
straight-curve $-1 -46.003601184118168 -1.0184194842124921 2.8511498678708498 0 -1 0 I I #
point $-1 -46.003601184118168 1.8463593123833144 2.8511498678708502 #
point $-1 -39.304722742631625 -3.7010668030571132 3.2629255505834616 #
point $-1 -39.304722742631625 -0.37261113379285504 3.2629255505834616 #
straight-curve $-1 46.003601184118168 -18.432958284940433 67.644843541949783 0 0 -1 I I #
point $-1 46.003601184118168 -18.432958284940433 9.1033270869879814 #
straight-curve $-1 46.003601184118168 -7.6657850526769789 5.8846526279247904 0 1 0 I I #
point $-1 46.003601184118168 -18.432958284940433 5.8846526279247939 #
point $-1 42.777117276841047 -17.192403013105842 5.9638066194418196 #
point $-1 42.777117276841047 -15.331570105353958 5.9638066194418196 #
point $-1 42.777117276841047 -13.470737197602071 5.9638066194418196 #
straight-curve $-1 46.003601184118168 -8.2119115480377936 67.644843541949783 0 0 -1 I I #
point $-1 46.003601184118168 -8.2119115480377936 9.1033270869879814 #
straight-curve $-1 46.003601184118168 -2.555261684225659 5.8846526279247904 0 1 0 I I #
point $-1 46.003601184118168 -8.2119115480377936 5.8846526279247939 #
point $-1 42.777117276841047 -6.9713562762032044 5.9638066194418196 #
point $-1 42.777117276841047 -5.110523368451318 5.9638066194418196 #
point $-1 42.777117276841047 -3.2496904606994335 5.9638066194418196 #
straight-curve $-1 46.003601184118168 2.0091351888648417 67.644843541949783 0 0 -1 I I #
point $-1 46.003601184118168 2.0091351888648417 9.1033270869879814 #
straight-curve $-1 46.003601184118168 2.555261684225659 5.8846526279247904 0 1 0 I I #
point $-1 46.003601184118168 2.0091351888648417 5.8846526279247939 #
point $-1 42.777117276841047 3.2496904606994335 5.9638066194418196 #
point $-1 42.777117276841047 5.110523368451318 5.9638066194418196 #
point $-1 42.777117276841047 6.9713562762032026 5.9638066194418196 #
straight-curve $-1 46.003601184118168 12.230181925767479 67.644843541949783 0 0 -1 I I #
point $-1 46.003601184118168 12.230181925767479 9.1033270869879814 #
straight-curve $-1 46.003601184118168 7.6657850526769771 5.8846526279247904 0 1 0 I I #
point $-1 46.003601184118168 12.230181925767479 5.8846526279247939 #
point $-1 42.777117276841047 13.47073719760207 5.9638066194418196 #
point $-1 42.777117276841047 15.331570105353954 5.9638066194418196 #
point $-1 42.777117276841047 17.192403013105839 5.9638066194418196 #
End-of-ACIS-data 