500 0 11 0           
7 Unknown 11 ACIS 5.0 NT 24 Fri Mar 26 16:40:44 1999 
-1 9.9999999999999995e-007 1e-010 
body $-1 $11 $-1 $12 #
body $-1 $13 $-1 $14 #
body $-1 $15 $-1 $16 #
body $-1 $17 $-1 $18 #
body $-1 $19 $-1 $20 #
body $-1 $21 $-1 $22 #
body $-1 $23 $-1 $24 #
body $-1 $25 $-1 $26 #
body $-1 $27 $-1 $28 #
body $-1 $29 $-1 $30 #
body $-1 $31 $-1 $32 #
lump $-1 $-1 $33 $0 #
transform $-1 1 0 0 0 1 0 0 0 1 43.410748619037449 21.180211165117761 9.6742377521241334 1 rotate no_reflect no_shear #
lump $-1 $-1 $34 $1 #
transform $-1 1 0 0 0 1 0 0 0 1 43.410748619037449 21.180211165117761 9.6742377521241334 1 rotate no_reflect no_shear #
lump $-1 $-1 $35 $2 #
transform $-1 1 0 0 0 1 0 0 0 1 43.410748619037449 21.180211165117761 9.6742377521241334 1 rotate no_reflect no_shear #
lump $-1 $-1 $36 $3 #
transform $-1 1 0 0 0 1 0 0 0 1 43.410748619037449 21.180211165117761 9.6742377521241334 1 rotate no_reflect no_shear #
lump $-1 $-1 $37 $4 #
transform $-1 1 0 0 0 1 0 0 0 1 43.410748619037449 21.180211165117761 9.6742377521241334 1 rotate no_reflect no_shear #
lump $-1 $-1 $38 $5 #
transform $-1 1 0 0 0 1 0 0 0 1 43.410748619037449 21.180211165117761 9.6742377521241334 1 rotate no_reflect no_shear #
lump $-1 $-1 $39 $6 #
transform $-1 1 0 0 0 1 0 0 0 1 43.410748619037449 21.180211165117761 9.6742377521241334 1 rotate no_reflect no_shear #
lump $-1 $-1 $40 $7 #
transform $-1 1 0 0 0 1 0 0 0 1 43.410748619037449 21.180211165117761 9.6742377521241334 1 rotate no_reflect no_shear #
lump $-1 $-1 $41 $8 #
transform $-1 1 0 0 0 1 0 0 0 1 43.410748619037449 21.180211165117761 9.6742377521241334 1 rotate no_reflect no_shear #
lump $-1 $-1 $42 $9 #
transform $-1 1 0 0 0 1 0 0 0 1 43.410748619037449 21.180211165117761 9.6742377521241334 1 rotate no_reflect no_shear #
lump $-1 $-1 $43 $10 #
transform $-1 1 0 0 0 1 0 0 0 1 43.410748619037449 21.180211165117761 9.6742377521241334 1 rotate no_reflect no_shear #
shell $-1 $-1 $-1 $44 $-1 $11 #
shell $-1 $-1 $-1 $45 $-1 $13 #
shell $-1 $-1 $-1 $46 $-1 $15 #
shell $-1 $-1 $-1 $47 $-1 $17 #
shell $-1 $-1 $-1 $48 $-1 $19 #
shell $-1 $-1 $-1 $49 $-1 $21 #
shell $-1 $-1 $-1 $50 $-1 $23 #
shell $-1 $-1 $-1 $51 $-1 $25 #
shell $-1 $-1 $-1 $52 $-1 $27 #
shell $-1 $-1 $-1 $53 $-1 $29 #
shell $-1 $-1 $-1 $54 $-1 $31 #
face $-1 $55 $56 $33 $-1 $57 forward single #
face $-1 $58 $59 $34 $-1 $60 forward single #
face $-1 $61 $62 $35 $-1 $63 reversed single #
face $-1 $64 $65 $36 $-1 $66 forward single #
face $-1 $67 $68 $37 $-1 $69 forward single #
face $-1 $70 $71 $38 $-1 $72 reversed single #
face $-1 $73 $74 $39 $-1 $75 forward single #
face $-1 $76 $77 $40 $-1 $78 forward single #
face $-1 $79 $80 $41 $-1 $81 reversed single #
face $-1 $82 $83 $42 $-1 $84 forward single #
face $-1 $85 $86 $43 $-1 $87 forward single #
face $-1 $88 $89 $33 $-1 $90 reversed single #
loop $-1 $-1 $91 $44 #
plane-surface $-1 0 0 9.6742377521241334 0 0 1 1 0 0 forward_v I I I I #
face $-1 $92 $93 $34 $-1 $94 reversed single #
loop $-1 $-1 $95 $45 #
plane-surface $-1 0 -15.505773386130294 -6.3923720944483788 0 0 1 1 0 0 forward_v I I I I #
face $-1 $96 $97 $35 $-1 $98 reversed single #
loop $-1 $-1 $99 $46 #
plane-surface $-1 -98.049287890912652 -0.67241611766482379 73.053002351338051 0 1 0 -0.62932039886446345 0 0.77714595512881146 forward_v I I I I #
face $-1 $100 $101 $36 $-1 $102 forward single #
loop $-1 $103 $104 $47 #
cone-surface $-1 -40.328914094958527 1.1370406542674303 6.9431599534490145 0.62932039886446345 0 -0.77714595512881146 0.38857297756440573 0 0.31466019943223172 1 I I 0 1 0.5 forward I I I I #
face $-1 $105 $106 $37 $-1 $107 forward single #
loop $-1 $108 $109 $48 #
cone-surface $-1 -40.328914094958527 3.8512258121658149 6.9431599534490145 0.62932039886446345 0 -0.77714595512881146 0.38857297756440573 0 0.31466019943223172 1 I I 0 1 0.5 forward I I I I #
face $-1 $110 $111 $38 $-1 $112 reversed single #
loop $-1 $-1 $113 $49 #
plane-surface $-1 68.939008308333186 1.8955763286005807 124.77014566388812 0 -1 0 -0.83867057594974714 0 -0.54463902268945019 forward_v I I I I #
face $-1 $114 $115 $39 $-1 $116 forward single #
loop $-1 $117 $118 $50 #
cone-surface $-1 41.366237571347007 -3.6112107080868086 6.8993669478336024 -0.83867057594974714 0 -0.54463902268945019 0.2723195113447251 0 -0.41933528797487357 1 I I 0 1 0.5 forward I I I I #
face $-1 $119 $120 $40 $-1 $121 forward single #
loop $-1 $122 $123 $51 #
cone-surface $-1 41.366237571347007 -0.30713848607437555 6.8993669478336024 -0.83867057594974714 0 -0.54463902268945019 0.2723195113447251 0 -0.41933528797487357 1 I I 0 1 0.5 forward I I I I #
face $-1 $124 $125 $41 $-1 $126 reversed single #
loop $-1 $-1 $127 $52 #
plane-surface $-1 68.939008308333186 17.401349714730873 124.77014566388812 0 -1 0 -0.83867057594974714 0 -0.54463902268945019 forward_v I I I I #
face $-1 $128 $129 $42 $-1 $130 forward single #
loop $-1 $131 $132 $53 #
cone-surface $-1 41.366237571347007 11.894562678043485 6.8993669478336024 -0.83867057594974714 0 -0.54463902268945019 0.2723195113447251 0 -0.41933528797487357 1 I I 0 1 0.5 forward I I I I #
face $-1 $133 $134 $43 $-1 $135 forward single #
loop $-1 $136 $137 $54 #
cone-surface $-1 41.366237571347007 15.198634900055914 6.8993669478336024 -0.83867057594974714 0 -0.54463902268945019 0.2723195113447251 0 -0.41933528797487357 1 I I 0 1 0.5 forward I I I I #
face $-1 $138 $139 $33 $-1 $140 reversed single #
loop $-1 $-1 $141 $55 #
plane-surface $-1 0 0 -9.6742377521241334 0 0 1 1 0 0 forward_v I I I I #
coedge $-1 $142 $143 $144 $145 forward $56 $-1 #
face $-1 $146 $147 $34 $-1 $148 reversed single #
loop $-1 $-1 $149 $58 #
plane-surface $-1 0 -9.8313356071428259 -8.0333049232862557 0 -1 0 0 0 -1 forward_v I I I I #
coedge $-1 $150 $151 $152 $153 reversed $59 $-1 #
face $-1 $154 $155 $35 $-1 $156 reversed single #
loop $-1 $-1 $157 $61 #
plane-surface $-1 -43.410748619037449 2.4941332332166226 5.5800269545408696 -0.62932039886446345 0 0.77714595512881146 0.77714595512881146 0 0.62932039886446345 forward_v I I I I #
coedge $-1 $158 $159 $160 $161 reversed $62 $-1 #
face $-1 $-1 $162 $36 $-1 $163 forward single #
loop $-1 $164 $165 $64 #
cone-surface $-1 -39.617714055282917 1.1370406542674303 6.0649010647833244 0.62932039886446345 0 -0.77714595512881146 0.19428648878220287 0 0.15733009971611586 1 I I -0.70710678118654746 0.70710678118654746 0.25 forward I I I I #
loop $-1 $-1 $166 $47 #
coedge $-1 $104 $104 $167 $168 reversed $65 $-1 #
face $-1 $-1 $169 $37 $-1 $170 forward single #
loop $-1 $171 $172 $67 #
cone-surface $-1 -39.617714055282917 3.8512258121658149 6.0649010647833244 0.62932039886446345 0 -0.77714595512881146 0.19428648878220287 0 0.15733009971611586 1 I I -0.70710678118654746 0.70710678118654746 0.25 forward I I I I #
loop $-1 $-1 $173 $48 #
coedge $-1 $109 $109 $174 $175 reversed $68 $-1 #
face $-1 $176 $177 $38 $-1 $178 reversed single #
loop $-1 $-1 $179 $70 #
plane-surface $-1 -3.8756267851424724 -1.9591745970805903 77.483770259708194 0.83867057594974714 0 0.54463902268945019 0.54463902268945019 0 -0.83867057594974714 forward_v I I I I #
coedge $-1 $180 $181 $182 $183 reversed $71 $-1 #
face $-1 $-1 $184 $39 $-1 $185 forward single #
loop $-1 $186 $187 $73 #
cone-surface $-1 40.737234639384695 -3.6112107080868086 6.490887680816515 -0.83867057594974714 0 -0.54463902268945019 0.13615975567236255 0 -0.20966764398743679 1 I I -0.70710678118654746 0.70710678118654746 0.25 forward I I I I #
loop $-1 $-1 $188 $50 #
coedge $-1 $118 $118 $189 $190 reversed $74 $-1 #
face $-1 $-1 $191 $40 $-1 $192 forward single #
loop $-1 $193 $194 $76 #
cone-surface $-1 40.737234639384695 -0.30713848607437555 6.490887680816515 -0.83867057594974714 0 -0.54463902268945019 0.13615975567236255 0 -0.20966764398743679 1 I I -0.70710678118654746 0.70710678118654746 0.25 forward I I I I #
loop $-1 $-1 $195 $51 #
coedge $-1 $123 $123 $196 $197 reversed $77 $-1 #
face $-1 $198 $199 $41 $-1 $200 reversed single #
loop $-1 $-1 $201 $79 #
plane-surface $-1 -3.8756267851424724 13.546598789049703 77.483770259708194 0.83867057594974714 0 0.54463902268945019 0.54463902268945019 0 -0.83867057594974714 forward_v I I I I #
coedge $-1 $202 $203 $204 $205 reversed $80 $-1 #
face $-1 $-1 $206 $42 $-1 $207 forward single #
loop $-1 $208 $209 $82 #
cone-surface $-1 40.737234639384695 11.894562678043485 6.490887680816515 -0.83867057594974714 0 -0.54463902268945019 0.13615975567236255 0 -0.20966764398743679 1 I I -0.70710678118654746 0.70710678118654746 0.25 forward I I I I #
loop $-1 $-1 $210 $53 #
coedge $-1 $132 $132 $211 $212 reversed $83 $-1 #
face $-1 $-1 $213 $43 $-1 $214 forward single #
loop $-1 $215 $216 $85 #
cone-surface $-1 40.737234639384695 15.198634900055914 6.490887680816515 -0.83867057594974714 0 -0.54463902268945019 0.13615975567236255 0 -0.20966764398743679 1 I I -0.70710678118654746 0.70710678118654746 0.25 forward I I I I #
loop $-1 $-1 $217 $54 #
coedge $-1 $137 $137 $218 $219 reversed $86 $-1 #
face $-1 $220 $221 $33 $-1 $222 reversed single #
loop $-1 $-1 $223 $88 #
plane-surface $-1 0 -21.180211165117761 0 0 1 0 0 0 1 forward_v I I I I #
coedge $-1 $224 $225 $226 $227 forward $89 $-1 #
coedge $-1 $228 $91 $229 $230 forward $56 $-1 #
coedge $-1 $91 $228 $231 $232 forward $56 $-1 #
coedge $-1 $233 $234 $91 $145 reversed $235 $-1 #
edge $-1 $236 -21.180211165117761 $237 21.180211165117761 $144 $238 forward 7 unknown #
face $-1 $239 $240 $34 $-1 $241 reversed single #
loop $-1 $-1 $242 $92 #
plane-surface $-1 0 0 -9.6742377521241334 0 0 1 1 0 0 forward_v I I I I #
coedge $-1 $243 $244 $245 $246 reversed $93 $-1 #
coedge $-1 $247 $95 $244 $248 forward $59 $-1 #
coedge $-1 $95 $247 $249 $250 reversed $59 $-1 #
coedge $-1 $251 $245 $95 $153 forward $240 $-1 #
edge $-1 $252 2.0784489140776792 $253 13.427324472052614 $152 $254 forward 7 unknown #
face $-1 $255 $256 $35 $-1 $257 forward single #
loop $-1 $-1 $258 $96 #
plane-surface $-1 -98.049287890912652 5.660682584098069 73.053002351338051 0 -1 0 0.62932039886446345 0 -0.77714595512881146 forward_v I I I I #
coedge $-1 $259 $260 $261 $262 reversed $97 $-1 #
coedge $-1 $159 $99 $263 $264 reversed $62 $-1 #
coedge $-1 $99 $158 $259 $265 reversed $62 $-1 #
coedge $-1 $261 $266 $99 $161 forward $256 $-1 #
edge $-1 $267 5.6138953264188771 $268 10.669824494657711 $160 $269 forward 7 unknown #
loop $-1 $-1 $167 $100 #
plane-surface $-1 -43.410748619037449 2.4941332332166226 5.5800269545408696 -0.62932039886446345 0 0.77714595512881146 0.77714595512881146 0 0.62932039886446345 forward_v I I I I #
loop $-1 $-1 $270 $64 #
coedge $-1 $165 $165 $166 $271 reversed $101 $-1 #
coedge $-1 $166 $166 $165 $271 forward $103 $-1 #
coedge $-1 $167 $167 $104 $168 forward $162 $-1 #
edge $-1 $272 0 $272 6.2831853071796004 $167 $273 forward 7 unknown #
loop $-1 $-1 $174 $105 #
plane-surface $-1 -43.410748619037449 2.4941332332166226 5.5800269545408696 -0.62932039886446345 0 0.77714595512881146 0.77714595512881146 0 0.62932039886446345 forward_v I I I I #
loop $-1 $-1 $274 $67 #
coedge $-1 $172 $172 $173 $275 reversed $106 $-1 #
coedge $-1 $173 $173 $172 $275 forward $108 $-1 #
coedge $-1 $174 $174 $109 $175 forward $169 $-1 #
edge $-1 $276 0 $276 6.2831853071796004 $174 $277 forward 7 unknown #
face $-1 $278 $279 $38 $-1 $280 reversed single #
loop $-1 $-1 $281 $110 #
plane-surface $-1 68.939008308333186 -5.8139255227617612 124.77014566388812 0 1 0 0.83867057594974714 0 0.54463902268945019 forward_v I I I I #
coedge $-1 $282 $283 $284 $285 reversed $111 $-1 #
coedge $-1 $181 $113 $286 $287 reversed $71 $-1 #
coedge $-1 $113 $180 $282 $288 reversed $71 $-1 #
coedge $-1 $284 $289 $113 $183 forward $290 $-1 #
edge $-1 $291 -8.9412444648708558 $292 -5.690892945439721 $182 $293 forward 7 unknown #
loop $-1 $-1 $189 $114 #
plane-surface $-1 -3.8756267851424724 -1.9591745970805903 77.483770259708194 0.83867057594974714 0 0.54463902268945019 0.54463902268945019 0 -0.83867057594974714 forward_v I I I I #
loop $-1 $-1 $294 $73 #
coedge $-1 $187 $187 $188 $295 reversed $115 $-1 #
coedge $-1 $188 $188 $187 $295 forward $117 $-1 #
coedge $-1 $189 $189 $118 $190 forward $184 $-1 #
edge $-1 $296 0 $296 6.2831853071796004 $189 $297 forward 7 unknown #
loop $-1 $-1 $196 $119 #
plane-surface $-1 -3.8756267851424724 -1.9591745970805903 77.483770259708194 0.83867057594974714 0 0.54463902268945019 0.54463902268945019 0 -0.83867057594974714 forward_v I I I I #
loop $-1 $-1 $298 $76 #
coedge $-1 $194 $194 $195 $299 reversed $120 $-1 #
coedge $-1 $195 $195 $194 $299 forward $122 $-1 #
coedge $-1 $196 $196 $123 $197 forward $191 $-1 #
edge $-1 $300 0 $300 6.2831853071796004 $196 $301 forward 7 unknown #
face $-1 $302 $303 $41 $-1 $304 reversed single #
loop $-1 $-1 $305 $124 #
plane-surface $-1 68.939008308333186 9.6918478633685332 124.77014566388812 0 1 0 0.83867057594974714 0 0.54463902268945019 forward_v I I I I #
coedge $-1 $306 $307 $308 $309 reversed $125 $-1 #
coedge $-1 $203 $127 $310 $311 reversed $80 $-1 #
coedge $-1 $127 $202 $306 $312 reversed $80 $-1 #
coedge $-1 $308 $313 $127 $205 forward $314 $-1 #
edge $-1 $315 -8.9412444648708558 $316 -5.690892945439721 $204 $317 forward 7 unknown #
loop $-1 $-1 $211 $128 #
plane-surface $-1 -3.8756267851424724 13.546598789049703 77.483770259708194 0.83867057594974714 0 0.54463902268945019 0.54463902268945019 0 -0.83867057594974714 forward_v I I I I #
loop $-1 $-1 $318 $82 #
coedge $-1 $209 $209 $210 $319 reversed $129 $-1 #
coedge $-1 $210 $210 $209 $319 forward $131 $-1 #
coedge $-1 $211 $211 $132 $212 forward $206 $-1 #
edge $-1 $320 0 $320 6.2831853071796004 $211 $321 forward 7 unknown #
loop $-1 $-1 $218 $133 #
plane-surface $-1 -3.8756267851424724 13.546598789049703 77.483770259708194 0.83867057594974714 0 0.54463902268945019 0.54463902268945019 0 -0.83867057594974714 forward_v I I I I #
loop $-1 $-1 $322 $85 #
coedge $-1 $216 $216 $217 $323 reversed $134 $-1 #
coedge $-1 $217 $217 $216 $323 forward $136 $-1 #
coedge $-1 $218 $218 $137 $219 forward $213 $-1 #
edge $-1 $324 0 $324 6.2831853071796004 $218 $325 forward 7 unknown #
face $-1 $326 $327 $33 $-1 $328 reversed single #
loop $-1 $-1 $329 $138 #
plane-surface $-1 -43.410748619037449 0 0 1 0 0 0 0 -1 forward_v I I I I #
coedge $-1 $330 $231 $331 $332 forward $139 $-1 #
coedge $-1 $333 $141 $330 $334 forward $89 $-1 #
coedge $-1 $141 $333 $335 $336 forward $89 $-1 #
coedge $-1 $234 $233 $141 $227 reversed $235 $-1 #
edge $-1 $337 -21.180211165117761 $338 21.180211165117761 $226 $339 forward 7 unknown #
coedge $-1 $143 $142 $340 $341 forward $56 $-1 #
coedge $-1 $342 $343 $142 $230 reversed $327 $-1 #
edge $-1 $237 -43.410748619037449 $344 43.410748619037449 $229 $345 forward 7 unknown #
coedge $-1 $223 $346 $143 $232 reversed $139 $-1 #
edge $-1 $347 -43.410748619037449 $236 43.410748619037449 $231 $348 forward 7 unknown #
coedge $-1 $226 $144 $346 $349 forward $235 $-1 #
coedge $-1 $144 $226 $342 $350 reversed $235 $-1 #
loop $-1 $-1 $233 $326 #
vertex $-1 $145 $351 #
vertex $-1 $145 $352 #
straight-curve $-1 43.410748619037449 0 9.6742377521241334 0 1 0 I I #
face $-1 $353 $354 $34 $-1 $355 reversed single #
loop $-1 $-1 $245 $146 #
plane-surface $-1 43.410748619037449 0 0 -1 0 0 0 0 1 forward_v I I I I #
coedge $-1 $356 $357 $243 $358 forward $147 $-1 #
coedge $-1 $359 $149 $242 $358 reversed $93 $-1 #
coedge $-1 $149 $359 $150 $248 reversed $93 $-1 #
coedge $-1 $152 $360 $149 $246 forward $240 $-1 #
edge $-1 $361 -5.6575852904810056 $252 -2.375719632805251 $245 $362 forward 7 unknown #
coedge $-1 $151 $150 $363 $364 reversed $59 $-1 #
edge $-1 $252 -43.410748619037449 $365 43.410748619037449 $244 $366 forward 7 unknown #
coedge $-1 $367 $368 $151 $250 forward $354 $-1 #
edge $-1 $253 -43.410748619037449 $369 43.410748619037449 $249 $370 forward 7 unknown #
coedge $-1 $360 $152 $368 $371 forward $240 $-1 #
vertex $-1 $153 $372 #
vertex $-1 $371 $373 #
straight-curve $-1 43.410748619037449 -7.7528866930651468 -6.3923720944483788 0 -1 0 I I #
face $-1 $-1 $374 $35 $-1 $375 reversed single #
loop $-1 $-1 $160 $154 #
plane-surface $-1 0 0 9.6742377521241334 0 0 1 1 0 0 forward_v I I I I #
coedge $-1 $376 $377 $378 $379 reversed $155 $-1 #
coedge $-1 $380 $157 $159 $265 forward $97 $-1 #
coedge $-1 $157 $380 $376 $381 forward $97 $-1 #
coedge $-1 $378 $160 $157 $262 forward $256 $-1 #
edge $-1 $268 -1.9194827342731351 $382 4.4136159674897577 $261 $383 forward 7 unknown #
coedge $-1 $384 $385 $158 $264 forward $374 $-1 #
edge $-1 $386 -30.946474221128156 $267 -26.85226342354489 $263 $387 forward 7 unknown #
edge $-1 $268 -6.5057652746848778 $386 0 $159 $388 forward 7 unknown #
coedge $-1 $160 $378 $384 $389 forward $256 $-1 #
vertex $-1 $264 $390 #
vertex $-1 $161 $391 #
straight-curve $-1 -49.024643945456326 -0.67241611766482379 9.6742377521241352 1 0 0 I I #
coedge $-1 $270 $270 $-1 $392 reversed $164 $-1 #
edge $-1 $393 0 $393 6.2831853071796004 $165 $394 forward 7 unknown #
vertex $-1 $168 $395 #
ellipse-curve $-1 -40.882784034918025 1.1370406542674303 7.6271323533325051 -0.62932039886446345 0 0.77714595512881146 0.38857297756440573 0 0.31466019943223172 1 I I #
coedge $-1 $274 $274 $-1 $396 reversed $171 $-1 #
edge $-1 $397 0 $397 6.2831853071796004 $172 $398 forward 7 unknown #
vertex $-1 $175 $399 #
ellipse-curve $-1 -40.882784034918025 3.8512258121658149 7.6271323533325051 -0.62932039886446345 0 0.77714595512881146 0.38857297756440573 0 0.31466019943223172 1 I I #
face $-1 $-1 $290 $38 $-1 $400 forward single #
loop $-1 $-1 $401 $176 #
plane-surface $-1 43.410748619037449 0 0 -1 0 0 0 0 1 forward_v I I I I #
coedge $-1 $402 $403 $404 $405 reversed $177 $-1 #
coedge $-1 $406 $179 $181 $288 forward $111 $-1 #
coedge $-1 $179 $406 $402 $407 forward $111 $-1 #
coedge $-1 $404 $182 $179 $285 forward $290 $-1 #
edge $-1 $292 -2.8751636271408758 $408 4.8343382242214661 $284 $409 forward 7 unknown #
coedge $-1 $410 $411 $180 $287 forward $279 $-1 #
edge $-1 $412 -57.715937665711536 $291 -52.710835079819923 $286 $413 forward 7 unknown #
edge $-1 $292 80.85359669473749 $412 86.821497238074926 $181 $414 forward 7 unknown #
coedge $-1 $182 $404 $410 $415 forward $290 $-1 #
loop $-1 $-1 $404 $278 #
vertex $-1 $287 $416 #
vertex $-1 $183 $417 #
straight-curve $-1 34.469504154166593 1.8955763286005807 9.6742377521241352 -1 0 0 I I #
coedge $-1 $294 $294 $-1 $418 reversed $186 $-1 #
edge $-1 $419 0 $419 6.2831853071796004 $187 $420 forward 7 unknown #
vertex $-1 $190 $421 #
ellipse-curve $-1 41.785572859321881 -3.6112107080868086 7.1716864591783276 0.83867057594974714 0 0.54463902268945019 0.2723195113447251 0 -0.41933528797487357 1 I I #
coedge $-1 $298 $298 $-1 $422 reversed $193 $-1 #
edge $-1 $423 0 $423 6.2831853071796004 $194 $424 forward 7 unknown #
vertex $-1 $197 $425 #
ellipse-curve $-1 41.785572859321881 -0.30713848607437555 7.1716864591783276 0.83867057594974714 0 0.54463902268945019 0.2723195113447251 0 -0.41933528797487357 1 I I #
face $-1 $-1 $314 $41 $-1 $426 forward single #
loop $-1 $-1 $427 $198 #
plane-surface $-1 43.410748619037449 0 0 -1 0 0 0 0 1 forward_v I I I I #
coedge $-1 $428 $429 $430 $431 reversed $199 $-1 #
coedge $-1 $432 $201 $203 $312 forward $125 $-1 #
coedge $-1 $201 $432 $428 $433 forward $125 $-1 #
coedge $-1 $430 $204 $201 $309 forward $314 $-1 #
edge $-1 $316 -10.628050320206022 $434 -2.9185484688436816 $308 $435 forward 7 unknown #
coedge $-1 $436 $437 $202 $311 forward $303 $-1 #
edge $-1 $438 -57.715937665711536 $315 -52.710835079819923 $310 $439 forward 7 unknown #
edge $-1 $316 80.85359669473749 $438 86.821497238074926 $203 $440 forward 7 unknown #
coedge $-1 $204 $430 $436 $441 forward $314 $-1 #
loop $-1 $-1 $430 $302 #
vertex $-1 $311 $442 #
vertex $-1 $205 $443 #
straight-curve $-1 34.469504154166593 17.401349714730873 9.6742377521241352 -1 0 0 I I #
coedge $-1 $318 $318 $-1 $444 reversed $208 $-1 #
edge $-1 $445 0 $445 6.2831853071796004 $209 $446 forward 7 unknown #
vertex $-1 $212 $447 #
ellipse-curve $-1 41.785572859321881 11.894562678043485 7.1716864591783276 0.83867057594974714 0 0.54463902268945019 0.2723195113447251 0 -0.41933528797487357 1 I I #
coedge $-1 $322 $322 $-1 $448 reversed $215 $-1 #
edge $-1 $449 0 $449 6.2831853071796004 $216 $450 forward 7 unknown #
vertex $-1 $219 $451 #
ellipse-curve $-1 41.785572859321881 15.198634900055914 7.1716864591783276 0.83867057594974714 0 0.54463902268945019 0.2723195113447251 0 -0.41933528797487357 1 I I #
face $-1 $-1 $235 $33 $-1 $452 reversed single #
loop $-1 $-1 $342 $220 #
plane-surface $-1 0 21.180211165117761 0 0 -1 0 0 0 -1 forward_v I I I I #
coedge $-1 $453 $340 $343 $454 forward $221 $-1 #
coedge $-1 $346 $223 $224 $334 reversed $139 $-1 #
coedge $-1 $340 $453 $223 $332 reversed $221 $-1 #
edge $-1 $347 -9.6742377521241334 $455 9.6742377521241334 $331 $456 forward 7 unknown #
coedge $-1 $225 $224 $453 $457 forward $89 $-1 #
edge $-1 $338 -43.410748619037449 $455 43.410748619037449 $330 $458 forward 7 unknown #
coedge $-1 $343 $342 $225 $336 reversed $327 $-1 #
edge $-1 $459 -43.410748619037449 $337 43.410748619037449 $335 $460 forward 7 unknown #
vertex $-1 $227 $461 #
vertex $-1 $349 $462 #
straight-curve $-1 43.410748619037449 0 -9.6742377521241334 0 -1 0 I I #
coedge $-1 $329 $331 $228 $341 reversed $221 $-1 #
edge $-1 $344 -21.180211165117761 $347 21.180211165117761 $340 $463 forward 7 unknown #
coedge $-1 $335 $229 $234 $350 forward $327 $-1 #
coedge $-1 $229 $335 $329 $454 reversed $327 $-1 #
vertex $-1 $230 $464 #
straight-curve $-1 0 21.180211165117761 9.6742377521241334 -1 0 0 I I #
coedge $-1 $231 $330 $233 $349 reversed $139 $-1 #
vertex $-1 $341 $465 #
straight-curve $-1 0 -21.180211165117761 9.6742377521241334 1 0 0 I I #
edge $-1 $236 -9.6742377521241334 $338 9.6742377521241334 $233 $466 forward 7 unknown #
edge $-1 $237 -9.6742377521241334 $337 9.6742377521241334 $234 $467 forward 7 unknown #
point $-1 43.410748619037449 -21.180211165117761 9.6742377521241334 #
point $-1 43.410748619037449 21.180211165117761 9.6742377521241334 #
face $-1 $-1 $468 $34 $-1 $469 reversed single #
loop $-1 $-1 $249 $239 #
plane-surface $-1 0 -21.180211165117761 0 0 1 0 0 0 1 forward_v I I I I #
coedge $-1 $470 $242 $360 $471 forward $147 $-1 #
coedge $-1 $242 $470 $472 $473 forward $147 $-1 #
edge $-1 $474 -43.410748619037449 $361 43.410748619037449 $242 $475 forward 7 unknown #
coedge $-1 $244 $243 $476 $477 reversed $93 $-1 #
coedge $-1 $245 $251 $356 $471 reversed $240 $-1 #
vertex $-1 $471 $478 #
straight-curve $-1 43.410748619037449 -9.8313356071428259 -4.0166524616431278 0 0 1 I I #
coedge $-1 $476 $479 $247 $364 forward $468 $-1 #
edge $-1 $369 -13.427324472052614 $365 -2.0784489140776792 $363 $480 forward 7 unknown #
vertex $-1 $364 $481 #
straight-curve $-1 0 -9.8313356071428259 -6.3923720944483788 -1 0 0 I I #
coedge $-1 $482 $249 $479 $483 forward $354 $-1 #
coedge $-1 $249 $482 $251 $371 reversed $354 $-1 #
vertex $-1 $483 $484 #
straight-curve $-1 0 -21.180211165117761 -6.3923720944483788 -1 0 0 I I #
edge $-1 $253 6.3923720944483788 $485 9.6742377521241334 $251 $486 forward 7 unknown #
point $-1 43.410748619037449 -9.8313356071428259 -6.3923720944483788 #
point $-1 43.410748619037449 -21.180211165117761 -6.3923720944483788 #
loop $-1 $-1 $263 $255 #
plane-surface $-1 -43.410748619037449 0 0 1 0 0 0 0 -1 forward_v I I I I #
coedge $-1 $377 $258 $260 $381 reversed $155 $-1 #
coedge $-1 $258 $376 $487 $488 reversed $155 $-1 #
coedge $-1 $266 $261 $258 $379 forward $256 $-1 #
edge $-1 $382 -10.669824494657711 $489 -5.6138953264188771 $378 $490 forward 7 unknown #
coedge $-1 $260 $259 $385 $491 reversed $97 $-1 #
edge $-1 $492 0 $382 6.5057652746848778 $376 $493 forward 7 unknown #
vertex $-1 $262 $494 #
straight-curve $-1 -38.354819450798615 1.2470666166083113 9.6742377521241316 0 1 0 I I #
coedge $-1 $487 $263 $266 $389 reversed $374 $-1 #
coedge $-1 $263 $487 $380 $491 forward $374 $-1 #
vertex $-1 $264 $495 #
straight-curve $-1 -43.410748619037449 -0.67241611766482379 36.526501175669026 0 0 1 I I #
straight-curve $-1 -43.410748619037449 -0.67241611766482379 5.5800269545408696 -0.77714595512881146 0 -0.62932039886446345 I I #
edge $-1 $489 -5.660682584098069 $267 0.67241611766482379 $384 $496 forward 7 unknown #
point $-1 -43.410748619037449 -0.67241611766482379 9.6742377521241334 #
point $-1 -38.354819450798615 -0.67241611766482379 9.6742377521241334 #
edge $-1 $497 1 $497 0 $270 $-1 forward 7 unknown #
vertex $-1 $271 $498 #
ellipse-curve $-1 -39.77504415499903 1.1370406542674303 6.2591875535655275 -0.62932039886446345 0 0.77714595512881146 0.38857297756440573 0 0.31466019943223172 1 I I #
point $-1 -40.494211057353624 1.1370406542674303 7.9417925527647331 #
edge $-1 $499 1 $499 0 $274 $-1 forward 7 unknown #
vertex $-1 $275 $500 #
ellipse-curve $-1 -39.77504415499903 3.8512258121658149 6.2591875535655275 -0.62932039886446345 0 0.77714595512881146 0.38857297756440573 0 0.31466019943223172 1 I I #
point $-1 -40.494211057353624 3.8512258121658149 7.9417925527647331 #
plane-surface $-1 0 0 9.6742377521241334 0 0 1 1 0 0 forward_v I I I I #
coedge $-1 $411 $410 $403 $501 forward $279 $-1 #
coedge $-1 $403 $281 $283 $407 reversed $177 $-1 #
coedge $-1 $281 $402 $401 $501 reversed $177 $-1 #
coedge $-1 $289 $284 $281 $405 forward $290 $-1 #
edge $-1 $408 5.690892945439721 $502 8.9412444648708558 $404 $503 forward 7 unknown #
coedge $-1 $283 $282 $411 $504 reversed $111 $-1 #
edge $-1 $505 -86.821497238074926 $408 -80.85359669473749 $402 $506 forward 7 unknown #
vertex $-1 $285 $507 #
straight-curve $-1 40.160397099606314 -0.97958729854029514 9.6742377521241352 0 -1 0 I I #
coedge $-1 $401 $286 $289 $415 reversed $279 $-1 #
coedge $-1 $286 $401 $406 $504 forward $279 $-1 #
vertex $-1 $287 $508 #
straight-curve $-1 43.410748619037449 1.8955763286005807 62.385072831944058 0 0 1 I I #
straight-curve $-1 -3.8756267851424724 1.8955763286005807 77.483770259708194 0.54463902268945019 0 -0.83867057594974714 I I #
edge $-1 $502 -5.8139255227617612 $291 1.8955763286005807 $410 $509 forward 7 unknown #
point $-1 43.410748619037449 1.8955763286005807 9.6742377521241334 #
point $-1 40.160397099606314 1.8955763286005807 9.6742377521241281 #
edge $-1 $510 1 $510 0 $294 $-1 forward 7 unknown #
vertex $-1 $295 $511 #
ellipse-curve $-1 40.946902283372133 -3.6112107080868086 6.6270474364888772 0.83867057594974714 0 0.54463902268945019 0.2723195113447251 0 -0.41933528797487357 1 I I #
point $-1 42.057892370666607 -3.6112107080868086 6.7523511712034541 #
edge $-1 $512 1 $512 0 $298 $-1 forward 7 unknown #
vertex $-1 $299 $513 #
ellipse-curve $-1 40.946902283372133 -0.30713848607437555 6.6270474364888772 0.83867057594974714 0 0.54463902268945019 0.2723195113447251 0 -0.41933528797487357 1 I I #
point $-1 42.057892370666607 -0.30713848607437555 6.7523511712034541 #
plane-surface $-1 0 0 9.6742377521241334 0 0 1 1 0 0 forward_v I I I I #
coedge $-1 $437 $436 $429 $514 forward $303 $-1 #
coedge $-1 $429 $305 $307 $433 reversed $199 $-1 #
coedge $-1 $305 $428 $427 $514 reversed $199 $-1 #
coedge $-1 $313 $308 $305 $431 forward $314 $-1 #
edge $-1 $434 5.690892945439721 $515 8.9412444648708558 $430 $516 forward 7 unknown #
coedge $-1 $307 $306 $437 $517 reversed $125 $-1 #
edge $-1 $518 -86.821497238074926 $434 -80.85359669473749 $428 $519 forward 7 unknown #
vertex $-1 $309 $520 #
straight-curve $-1 40.160397099606314 6.7732993945248516 9.6742377521241352 0 -1 0 I I #
coedge $-1 $427 $310 $313 $441 reversed $303 $-1 #
coedge $-1 $310 $427 $432 $517 forward $303 $-1 #
vertex $-1 $311 $521 #
straight-curve $-1 43.410748619037449 17.401349714730873 62.385072831944058 0 0 1 I I #
straight-curve $-1 -3.8756267851424724 17.401349714730873 77.483770259708194 0.54463902268945019 0 -0.83867057594974714 I I #
edge $-1 $515 9.6918478633685332 $315 17.401349714730873 $436 $522 forward 7 unknown #
point $-1 43.410748619037449 17.401349714730873 9.6742377521241334 #
point $-1 40.160397099606314 17.401349714730873 9.6742377521241281 #
edge $-1 $523 1 $523 0 $318 $-1 forward 7 unknown #
vertex $-1 $319 $524 #
ellipse-curve $-1 40.946902283372133 11.894562678043485 6.6270474364888772 0.83867057594974714 0 0.54463902268945019 0.2723195113447251 0 -0.41933528797487357 1 I I #
point $-1 42.057892370666607 11.894562678043485 6.7523511712034541 #
edge $-1 $525 1 $525 0 $322 $-1 forward 7 unknown #
vertex $-1 $323 $526 #
ellipse-curve $-1 40.946902283372133 15.198634900055914 6.6270474364888772 0.83867057594974714 0 0.54463902268945019 0.2723195113447251 0 -0.41933528797487357 1 I I #
point $-1 42.057892370666607 15.198634900055914 6.7523511712034541 #
plane-surface $-1 43.410748619037449 0 0 -1 0 0 0 0 1 forward_v I I I I #
coedge $-1 $331 $329 $333 $457 reversed $221 $-1 #
edge $-1 $344 -9.6742377521241334 $459 9.6742377521241334 $343 $527 forward 7 unknown #
vertex $-1 $457 $528 #
straight-curve $-1 -43.410748619037449 -21.180211165117761 0 0 0 -1 I I #
edge $-1 $455 -21.180211165117761 $459 21.180211165117761 $453 $529 forward 7 unknown #
straight-curve $-1 0 -21.180211165117761 -9.6742377521241334 -1 0 0 I I #
vertex $-1 $336 $530 #
straight-curve $-1 0 21.180211165117761 -9.6742377521241334 1 0 0 I I #
point $-1 43.410748619037449 21.180211165117761 -9.6742377521241334 #
point $-1 43.410748619037449 -21.180211165117761 -9.6742377521241334 #
straight-curve $-1 -43.410748619037449 0 9.6742377521241334 0 -1 0 I I #
point $-1 -43.410748619037449 21.180211165117761 9.6742377521241334 #
point $-1 -43.410748619037449 -21.180211165117761 9.6742377521241334 #
straight-curve $-1 43.410748619037449 -21.180211165117761 0 0 0 -1 I I #
straight-curve $-1 43.410748619037449 21.180211165117761 0 0 0 -1 I I #
loop $-1 $-1 $476 $353 #
plane-surface $-1 -43.410748619037449 0 0 1 0 0 0 0 -1 forward_v I I I I #
coedge $-1 $357 $356 $482 $531 forward $147 $-1 #
edge $-1 $361 9.8313356071428259 $485 21.180211165117761 $360 $532 forward 7 unknown #
coedge $-1 $479 $476 $357 $473 reversed $468 $-1 #
edge $-1 $533 -21.180211165117761 $474 -9.8313356071428259 $472 $534 forward 7 unknown #
vertex $-1 $477 $535 #
straight-curve $-1 0 -9.8313356071428259 -9.6742377521241334 1 0 0 I I #
coedge $-1 $472 $363 $359 $477 forward $468 $-1 #
edge $-1 $365 2.375719632805251 $474 5.6575852904810056 $476 $536 forward 7 unknown #
point $-1 43.410748619037449 -9.8313356071428259 -9.6742377521241334 #
coedge $-1 $363 $472 $367 $483 reversed $468 $-1 #
straight-curve $-1 -43.410748619037449 -7.7528866930651468 -6.3923720944483788 0 1 0 I I #
point $-1 -43.410748619037449 -9.8313356071428259 -6.3923720944483788 #
coedge $-1 $368 $367 $470 $531 reversed $354 $-1 #
edge $-1 $369 6.3923720944483788 $533 9.6742377521241334 $479 $537 forward 7 unknown #
point $-1 -43.410748619037449 -21.180211165117761 -6.3923720944483788 #
vertex $-1 $371 $538 #
straight-curve $-1 43.410748619037449 -21.180211165117761 0 0 0 -1 I I #
coedge $-1 $385 $384 $377 $488 forward $374 $-1 #
edge $-1 $489 26.85226342354489 $492 30.946474221128156 $487 $539 forward 7 unknown #
vertex $-1 $389 $540 #
straight-curve $-1 -49.024643945456326 5.660682584098069 9.6742377521241352 -1 0 0 I I #
edge $-1 $492 -4.4136159674897577 $386 1.9194827342731351 $385 $541 forward 7 unknown #
vertex $-1 $491 $542 #
straight-curve $-1 -43.410748619037449 5.660682584098069 5.5800269545408696 0.77714595512881146 0 0.62932039886446345 I I #
point $-1 -38.354819450798615 5.660682584098069 9.6742377521241334 #
point $-1 -43.410748619037449 -0.67241611766482379 5.5800269545408696 #
straight-curve $-1 -43.410748619037449 0 9.6742377521241334 0 -1 0 I I #
vertex $-1 $392 $543 #
point $-1 -39.386471177434629 1.1370406542674303 6.573847752997759 #
vertex $-1 $396 $544 #
point $-1 -39.386471177434629 3.8512258121658149 6.573847752997759 #
edge $-1 $502 52.710835079819923 $505 57.715937665711536 $401 $545 forward 7 unknown #
vertex $-1 $415 $546 #
straight-curve $-1 34.469504154166593 -5.8139255227617612 9.6742377521241352 1 0 0 I I #
edge $-1 $505 -4.8343382242214661 $412 2.8751636271408758 $411 $547 forward 7 unknown #
vertex $-1 $504 $548 #
straight-curve $-1 -3.8756267851424724 -5.8139255227617612 77.483770259708194 -0.54463902268945019 0 0.83867057594974714 I I #
point $-1 40.160397099606314 -5.8139255227617612 9.6742377521241281 #
point $-1 43.410748619037449 1.8955763286005807 4.6691351662325218 #
straight-curve $-1 43.410748619037449 0 9.6742377521241334 0 1 0 I I #
vertex $-1 $418 $549 #
point $-1 41.219221794716859 -3.6112107080868086 6.2077121485140037 #
vertex $-1 $422 $550 #
point $-1 41.219221794716859 -0.30713848607437555 6.2077121485140037 #
edge $-1 $515 52.710835079819923 $518 57.715937665711536 $427 $551 forward 7 unknown #
vertex $-1 $441 $552 #
straight-curve $-1 34.469504154166593 9.6918478633685332 9.6742377521241352 1 0 0 I I #
edge $-1 $518 2.9185484688436816 $438 10.628050320206022 $437 $553 forward 7 unknown #
vertex $-1 $517 $554 #
straight-curve $-1 -3.8756267851424724 9.6918478633685332 77.483770259708194 -0.54463902268945019 0 0.83867057594974714 I I #
point $-1 40.160397099606314 9.6918478633685332 9.6742377521241281 #
point $-1 43.410748619037449 17.401349714730873 4.6691351662325218 #
straight-curve $-1 43.410748619037449 0 9.6742377521241334 0 1 0 I I #
vertex $-1 $444 $555 #
point $-1 41.219221794716859 11.894562678043485 6.2077121485140037 #
vertex $-1 $448 $556 #
point $-1 41.219221794716859 15.198634900055914 6.2077121485140037 #
straight-curve $-1 -43.410748619037449 21.180211165117761 0 0 0 -1 I I #
point $-1 -43.410748619037449 -21.180211165117761 -9.6742377521241334 #
straight-curve $-1 -43.410748619037449 0 -9.6742377521241334 0 1 0 I I #
point $-1 -43.410748619037449 21.180211165117761 -9.6742377521241334 #
edge $-1 $485 -43.410748619037449 $533 43.410748619037449 $482 $557 forward 7 unknown #
straight-curve $-1 43.410748619037449 0 -9.6742377521241334 0 -1 0 I I #
vertex $-1 $473 $558 #
straight-curve $-1 -43.410748619037449 0 -9.6742377521241334 0 1 0 I I #
point $-1 -43.410748619037449 -9.8313356071428259 -9.6742377521241334 #
straight-curve $-1 -43.410748619037449 -9.8313356071428259 -4.0166524616431278 0 0 -1 I I #
straight-curve $-1 -43.410748619037449 -21.180211165117761 0 0 0 -1 I I #
point $-1 43.410748619037449 -21.180211165117761 -9.6742377521241334 #
straight-curve $-1 -43.410748619037449 5.660682584098069 36.526501175669026 0 0 -1 I I #
point $-1 -43.410748619037449 5.660682584098069 9.6742377521241334 #
straight-curve $-1 -43.410748619037449 1.2470666166083113 5.5800269545408678 0 -1 0 I I #
point $-1 -43.410748619037449 5.660682584098069 5.5800269545408696 #
point $-1 -39.460383955566805 1.1370406542674303 5.8706145760011212 #
point $-1 -39.460383955566805 3.8512258121658149 5.8706145760011212 #
straight-curve $-1 43.410748619037449 -5.8139255227617612 62.385072831944058 0 0 -1 I I #
point $-1 43.410748619037449 -5.8139255227617612 9.6742377521241334 #
straight-curve $-1 43.410748619037449 -0.97958729854029514 4.6691351662325218 0 1 0 I I #
point $-1 43.410748619037449 -5.8139255227617612 4.6691351662325218 #
point $-1 40.527566995397258 -3.6112107080868086 6.3547279251441529 #
point $-1 40.527566995397258 -0.30713848607437555 6.3547279251441529 #
straight-curve $-1 43.410748619037449 9.6918478633685332 62.385072831944058 0 0 -1 I I #
point $-1 43.410748619037449 9.6918478633685332 9.6742377521241334 #
straight-curve $-1 43.410748619037449 6.7732993945248516 4.6691351662325218 0 1 0 I I #
point $-1 43.410748619037449 9.6918478633685332 4.6691351662325218 #
point $-1 40.527566995397258 11.894562678043485 6.3547279251441529 #
point $-1 40.527566995397258 15.198634900055914 6.3547279251441529 #
straight-curve $-1 0 -21.180211165117761 -9.6742377521241334 -1 0 0 I I #
point $-1 -43.410748619037449 -21.180211165117761 -9.6742377521241334 #
End-of-ACIS-data 