500 0 6 0           
7 Unknown 11 ACIS 5.0 NT 24 Thu Mar 25 16:56:42 1999 
-1 9.9999999999999995e-007 1e-010 
body $-1 $6 $-1 $7 #
body $-1 $8 $-1 $9 #
body $-1 $10 $-1 $11 #
body $-1 $12 $-1 $13 #
body $-1 $14 $-1 $15 #
body $-1 $16 $-1 $17 #
lump $-1 $-1 $18 $0 #
transform $-1 1 0 0 0 1 0 0 0 1 70.237739188818011 46.897039873067357 21.404297332978206 1 rotate no_reflect no_shear #
lump $-1 $-1 $19 $1 #
transform $-1 1 0 0 0 1 0 0 0 1 70.237739188818011 46.897039873067357 21.404297332978206 1 rotate no_reflect no_shear #
lump $-1 $-1 $20 $2 #
transform $-1 1 0 0 0 1 0 0 0 1 70.237739188818011 46.897039873067357 21.404297332978206 1 rotate no_reflect no_shear #
lump $-1 $-1 $21 $3 #
transform $-1 1 0 0 0 1 0 0 0 1 70.237739188818011 46.897039873067357 21.404297332978206 1 rotate no_reflect no_shear #
lump $-1 $-1 $22 $4 #
transform $-1 1 0 0 0 1 0 0 0 1 70.237739188818011 46.897039873067357 21.404297332978206 1 rotate no_reflect no_shear #
lump $-1 $-1 $23 $5 #
transform $-1 1 0 0 0 1 0 0 0 1 70.237739188818011 46.897039873067357 21.404297332978206 1 rotate no_reflect no_shear #
shell $-1 $-1 $-1 $24 $-1 $6 #
shell $-1 $-1 $-1 $25 $-1 $8 #
shell $-1 $-1 $-1 $26 $-1 $10 #
shell $-1 $-1 $-1 $27 $-1 $12 #
shell $-1 $-1 $-1 $28 $-1 $14 #
shell $-1 $-1 $-1 $29 $-1 $16 #
face $-1 $30 $31 $18 $-1 $32 forward single #
face $-1 $33 $34 $19 $-1 $35 forward single #
face $-1 $36 $37 $20 $-1 $38 reversed single #
face $-1 $39 $40 $21 $-1 $41 forward single #
face $-1 $42 $43 $22 $-1 $44 reversed single #
face $-1 $45 $46 $23 $-1 $47 forward single #
face $-1 $48 $49 $18 $-1 $50 reversed single #
loop $-1 $-1 $51 $24 #
plane-surface $-1 0 0 21.404297332978206 0 0 1 1 0 0 forward_v I I I I #
face $-1 $52 $53 $19 $-1 $54 reversed single #
loop $-1 $-1 $55 $25 #
plane-surface $-1 -70.237739188818011 0 0 1 0 0 0 0 -1 forward_v I I I I #
face $-1 $56 $57 $20 $-1 $58 reversed single #
loop $-1 $-1 $59 $26 #
plane-surface $-1 -3.895925477696494 62.409434266619797 184.10189733225593 1 0 0 0 -0.62932039886446345 -0.77714595512881146 forward_v I I I I #
face $-1 $60 $61 $21 $-1 $62 forward single #
loop $-1 $63 $64 $27 #
cone-surface $-1 2.7900481159435628 42.49967774141475 17.417382852799658 0 -0.62932039886446345 -0.77714595512881146 1.5 0 0 1 I I 0 1 1.5 forward I I I I #
face $-1 $65 $66 $22 $-1 $67 reversed single #
loop $-1 $-1 $68 $28 #
plane-surface $-1 16.585785922907334 62.409434266619797 184.10189733225593 1 0 0 0 -0.62932039886446345 -0.77714595512881146 forward_v I I I I #
face $-1 $69 $70 $23 $-1 $71 forward single #
loop $-1 $72 $73 $29 #
cone-surface $-1 23.271759516547391 42.49967774141475 17.417382852799658 0 -0.62932039886446345 -0.77714595512881146 1.5 0 0 1 I I 0 1 1.5 forward I I I I #
face $-1 $74 $75 $18 $-1 $76 reversed single #
loop $-1 $-1 $77 $30 #
plane-surface $-1 0 0 -21.404297332978206 0 0 1 1 0 0 forward_v I I I I #
coedge $-1 $78 $79 $80 $81 forward $31 $-1 #
face $-1 $82 $83 $19 $-1 $84 reversed single #
loop $-1 $-1 $85 $33 #
plane-surface $-1 0 46.897039873067357 0 0 -1 0 0 0 -1 forward_v I I I I #
coedge $-1 $86 $87 $88 $89 forward $34 $-1 #
face $-1 $90 $91 $20 $-1 $92 reversed single #
loop $-1 $-1 $93 $36 #
plane-surface $-1 2.7900481159435628 -25.994649816670417 74.931947516291288 0 0.62932039886446345 0.77714595512881146 1 0 0 forward_v I I I I #
coedge $-1 $94 $95 $96 $97 reversed $37 $-1 #
face $-1 $-1 $98 $21 $-1 $99 forward single #
loop $-1 $100 $101 $39 #
cone-surface $-1 2.7900481159435628 41.025599331326973 15.597047653099342 0 -0.62932039886446345 -0.77714595512881146 0.75 0 0 1 I I -0.70710678118654757 0.70710678118654757 0.75 forward I I I I #
loop $-1 $-1 $102 $27 #
coedge $-1 $64 $64 $103 $104 reversed $40 $-1 #
face $-1 $105 $106 $22 $-1 $107 reversed single #
loop $-1 $-1 $108 $42 #
plane-surface $-1 23.271759516547391 -25.994649816670417 74.931947516291288 0 0.62932039886446345 0.77714595512881146 1 0 0 forward_v I I I I #
coedge $-1 $109 $110 $111 $112 reversed $43 $-1 #
face $-1 $-1 $113 $23 $-1 $114 forward single #
loop $-1 $115 $116 $45 #
cone-surface $-1 23.271759516547391 41.025599331326973 15.597047653099342 0 -0.62932039886446345 -0.77714595512881146 0.75 0 0 1 I I -0.70710678118654757 0.70710678118654757 0.75 forward I I I I #
loop $-1 $-1 $117 $29 #
coedge $-1 $73 $73 $118 $119 reversed $46 $-1 #
face $-1 $120 $121 $18 $-1 $122 reversed single #
loop $-1 $-1 $123 $48 #
plane-surface $-1 0 -46.897039873067357 0 0 1 0 0 0 1 forward_v I I I I #
coedge $-1 $124 $125 $126 $127 forward $49 $-1 #
coedge $-1 $128 $51 $129 $130 forward $31 $-1 #
coedge $-1 $51 $128 $131 $132 forward $31 $-1 #
coedge $-1 $133 $134 $51 $81 reversed $135 $-1 #
edge $-1 $136 -46.897039873067357 $137 46.897039873067357 $80 $138 forward 7 unknown #
face $-1 $139 $140 $19 $-1 $141 reversed single #
loop $-1 $-1 $88 $52 #
plane-surface $-1 -83.268643005063495 0 11.183773118639277 0 0 1 1 0 0 forward_v I I I I #
coedge $-1 $142 $143 $86 $144 forward $53 $-1 #
coedge $-1 $145 $55 $85 $144 reversed $34 $-1 #
coedge $-1 $55 $145 $146 $147 reversed $34 $-1 #
coedge $-1 $148 $149 $55 $89 reversed $83 $-1 #
edge $-1 $150 -46.897039873067357 $151 46.897039873067357 $88 $152 forward 7 unknown #
face $-1 $153 $154 $20 $-1 $155 forward single #
loop $-1 $-1 $156 $56 #
plane-surface $-1 9.4760217095836197 62.409434266619797 184.10189733225593 -1 0 0 0 0.62932039886446345 0.77714595512881146 forward_v I I I I #
coedge $-1 $157 $158 $159 $160 reversed $57 $-1 #
coedge $-1 $95 $59 $161 $162 reversed $37 $-1 #
coedge $-1 $59 $94 $157 $163 reversed $37 $-1 #
coedge $-1 $159 $164 $59 $97 forward $154 $-1 #
edge $-1 $165 -15.692322739757458 $166 -8.9017746983311241 $96 $167 forward 7 unknown #
loop $-1 $-1 $103 $60 #
plane-surface $-1 2.7900481159435628 -25.994649816670417 74.931947516291288 0 0.62932039886446345 0.77714595512881146 1 0 0 forward_v I I I I #
loop $-1 $-1 $168 $39 #
coedge $-1 $101 $101 $102 $169 reversed $61 $-1 #
coedge $-1 $102 $102 $101 $169 forward $63 $-1 #
coedge $-1 $103 $103 $64 $104 forward $98 $-1 #
edge $-1 $170 2.1907726273515007e-015 $170 6.2831853071796022 $103 $171 forward 7 unknown #
face $-1 $172 $173 $22 $-1 $174 forward single #
loop $-1 $-1 $175 $65 #
plane-surface $-1 29.957733110187448 62.409434266619797 184.10189733225593 -1 0 0 0 0.62932039886446345 0.77714595512881146 forward_v I I I I #
coedge $-1 $176 $177 $178 $179 reversed $66 $-1 #
coedge $-1 $110 $68 $180 $181 reversed $43 $-1 #
coedge $-1 $68 $109 $176 $182 reversed $43 $-1 #
coedge $-1 $178 $183 $68 $112 forward $173 $-1 #
edge $-1 $184 -15.692322739757458 $185 -8.9017746983311241 $111 $186 forward 7 unknown #
loop $-1 $-1 $118 $69 #
plane-surface $-1 23.271759516547391 -25.994649816670417 74.931947516291288 0 0.62932039886446345 0.77714595512881146 1 0 0 forward_v I I I I #
loop $-1 $-1 $187 $45 #
coedge $-1 $116 $116 $117 $188 reversed $70 $-1 #
coedge $-1 $117 $117 $116 $188 forward $72 $-1 #
coedge $-1 $118 $118 $73 $119 forward $113 $-1 #
edge $-1 $189 2.1907726273515007e-015 $189 6.2831853071796022 $118 $190 forward 7 unknown #
face $-1 $191 $192 $18 $-1 $193 reversed single #
loop $-1 $-1 $194 $74 #
plane-surface $-1 -70.237739188818011 0 0 1 0 0 0 0 -1 forward_v I I I I #
coedge $-1 $195 $131 $196 $197 forward $75 $-1 #
coedge $-1 $198 $77 $195 $199 forward $49 $-1 #
coedge $-1 $77 $198 $200 $201 forward $49 $-1 #
coedge $-1 $134 $133 $77 $127 reversed $135 $-1 #
edge $-1 $202 -46.897039873067357 $203 46.897039873067357 $126 $204 forward 7 unknown #
coedge $-1 $79 $78 $205 $206 forward $31 $-1 #
coedge $-1 $207 $208 $78 $130 reversed $192 $-1 #
edge $-1 $137 -70.237739188818011 $209 70.237739188818011 $129 $210 forward 7 unknown #
coedge $-1 $123 $211 $79 $132 reversed $75 $-1 #
edge $-1 $212 -70.237739188818011 $136 70.237739188818011 $131 $213 forward 7 unknown #
coedge $-1 $126 $80 $211 $214 forward $135 $-1 #
coedge $-1 $80 $126 $207 $215 reversed $135 $-1 #
loop $-1 $-1 $133 $191 #
vertex $-1 $81 $216 #
vertex $-1 $81 $217 #
straight-curve $-1 70.237739188818011 0 21.404297332978206 0 1 0 I I #
face $-1 $218 $219 $19 $-1 $220 forward single #
loop $-1 $-1 $221 $82 #
plane-surface $-1 -96.299546821308979 0 16.294035225808738 1 0 0 0 0 -1 forward_v I I I I #
coedge $-1 $222 $85 $149 $223 reversed $53 $-1 #
coedge $-1 $85 $222 $224 $225 reversed $53 $-1 #
edge $-1 $226 -21.404297332978206 $151 -11.183773118639277 $85 $227 forward 7 unknown #
coedge $-1 $87 $86 $228 $229 reversed $34 $-1 #
coedge $-1 $230 $231 $87 $147 forward $232 $-1 #
edge $-1 $150 11.183773118639277 $233 21.404297332978206 $146 $234 forward 7 unknown #
coedge $-1 $235 $88 $231 $236 forward $83 $-1 #
coedge $-1 $88 $235 $142 $223 forward $83 $-1 #
vertex $-1 $147 $237 #
vertex $-1 $144 $238 #
straight-curve $-1 -70.237739188818011 0 11.183773118639277 0 1 0 I I #
face $-1 $-1 $239 $20 $-1 $240 reversed single #
loop $-1 $-1 $96 $90 #
plane-surface $-1 0 0 21.404297332978206 0 0 1 1 0 0 forward_v I I I I #
coedge $-1 $241 $242 $243 $244 reversed $91 $-1 #
coedge $-1 $245 $93 $95 $163 forward $57 $-1 #
coedge $-1 $93 $245 $241 $246 forward $57 $-1 #
coedge $-1 $243 $96 $93 $160 forward $154 $-1 #
edge $-1 $166 -5.2909495356682754 $247 8.0809976516118383 $159 $248 forward 7 unknown #
coedge $-1 $249 $250 $94 $162 forward $239 $-1 #
edge $-1 $251 -76.145528826799477 $165 -70.646651333149762 $161 $252 forward 7 unknown #
edge $-1 $166 85.056277025021927 $251 93.794079746134713 $95 $253 forward 7 unknown #
coedge $-1 $96 $243 $249 $254 forward $154 $-1 #
vertex $-1 $162 $255 #
vertex $-1 $97 $256 #
straight-curve $-1 -3.895925477696494 31.204717133309899 21.404297332978203 0 -1 0 I I #
coedge $-1 $168 $168 $-1 $257 reversed $100 $-1 #
edge $-1 $258 0 $258 6.2831853071796004 $101 $259 forward 7 unknown #
vertex $-1 $104 $260 #
ellipse-curve $-1 2.7900481159435628 43.501765852354175 18.654858586153363 0 0.62932039886446345 0.77714595512881146 1.5 0 0 1 I I #
face $-1 $-1 $261 $22 $-1 $262 reversed single #
loop $-1 $-1 $111 $105 #
plane-surface $-1 0 0 21.404297332978206 0 0 1 1 0 0 forward_v I I I I #
coedge $-1 $263 $264 $265 $266 reversed $106 $-1 #
coedge $-1 $267 $108 $110 $182 forward $66 $-1 #
coedge $-1 $108 $267 $263 $268 forward $66 $-1 #
coedge $-1 $265 $111 $108 $179 forward $173 $-1 #
edge $-1 $185 4.9499061646336386 $269 18.321853351913752 $178 $270 forward 7 unknown #
coedge $-1 $271 $272 $109 $181 forward $261 $-1 #
edge $-1 $273 -76.145528826799477 $184 -70.646651333149762 $180 $274 forward 7 unknown #
edge $-1 $185 85.056277025021927 $273 93.794079746134713 $110 $275 forward 7 unknown #
coedge $-1 $111 $265 $271 $276 forward $173 $-1 #
vertex $-1 $112 $277 #
vertex $-1 $112 $278 #
straight-curve $-1 16.585785922907334 31.204717133309899 21.404297332978203 0 -1 0 I I #
coedge $-1 $187 $187 $-1 $279 reversed $115 $-1 #
edge $-1 $280 0 $280 6.2831853071796004 $116 $281 forward 7 unknown #
vertex $-1 $119 $282 #
ellipse-curve $-1 23.271759516547391 43.501765852354175 18.654858586153363 0 0.62932039886446345 0.77714595512881146 1.5 0 0 1 I I #
face $-1 $-1 $135 $18 $-1 $283 reversed single #
loop $-1 $-1 $207 $120 #
plane-surface $-1 0 46.897039873067357 0 0 -1 0 0 0 -1 forward_v I I I I #
coedge $-1 $284 $205 $208 $285 forward $121 $-1 #
coedge $-1 $211 $123 $124 $199 reversed $75 $-1 #
coedge $-1 $205 $284 $123 $197 reversed $121 $-1 #
edge $-1 $212 -21.404297332978206 $286 21.404297332978206 $196 $287 forward 7 unknown #
coedge $-1 $125 $124 $284 $288 forward $49 $-1 #
edge $-1 $203 -70.237739188818011 $286 70.237739188818011 $195 $289 forward 7 unknown #
coedge $-1 $208 $207 $125 $201 reversed $192 $-1 #
edge $-1 $290 -70.237739188818011 $202 70.237739188818011 $200 $291 forward 7 unknown #
vertex $-1 $127 $292 #
vertex $-1 $214 $293 #
straight-curve $-1 70.237739188818011 0 -21.404297332978206 0 -1 0 I I #
coedge $-1 $194 $196 $128 $206 reversed $121 $-1 #
edge $-1 $209 -46.897039873067357 $212 46.897039873067357 $205 $294 forward 7 unknown #
coedge $-1 $200 $129 $134 $215 forward $192 $-1 #
coedge $-1 $129 $200 $194 $285 reversed $192 $-1 #
vertex $-1 $130 $295 #
straight-curve $-1 0 46.897039873067357 21.404297332978206 -1 0 0 I I #
coedge $-1 $131 $195 $133 $214 reversed $75 $-1 #
vertex $-1 $206 $296 #
straight-curve $-1 0 -46.897039873067357 21.404297332978206 1 0 0 I I #
edge $-1 $136 -21.404297332978206 $203 21.404297332978206 $133 $297 forward 7 unknown #
edge $-1 $137 -21.404297332978206 $202 21.404297332978206 $134 $298 forward 7 unknown #
point $-1 70.237739188818011 -46.897039873067357 21.404297332978206 #
point $-1 70.237739188818011 46.897039873067357 21.404297332978206 #
face $-1 $-1 $232 $19 $-1 $299 reversed single #
loop $-1 $-1 $228 $139 #
plane-surface $-1 0 0 21.404297332978206 0 0 1 1 0 0 forward_v I I I I #
coedge $-1 $300 $301 $222 $302 forward $140 $-1 #
coedge $-1 $143 $142 $221 $302 reversed $53 $-1 #
edge $-1 $303 -13.030903816245484 $151 13.030903816245484 $142 $304 forward 7 unknown #
coedge $-1 $305 $228 $143 $225 forward $219 $-1 #
edge $-1 $226 70.237739188818011 $306 96.299546821308979 $143 $307 forward 7 unknown #
vertex $-1 $225 $308 #
straight-curve $-1 -70.237739188818011 46.897039873067357 0 0 0 -1 I I #
coedge $-1 $224 $309 $145 $229 forward $219 $-1 #
edge $-1 $233 -46.897039873067357 $226 46.897039873067357 $228 $310 forward 7 unknown #
coedge $-1 $311 $146 $309 $312 reversed $232 $-1 #
coedge $-1 $146 $311 $148 $236 reversed $232 $-1 #
loop $-1 $-1 $146 $218 #
vertex $-1 $147 $313 #
straight-curve $-1 -70.237739188818011 -46.897039873067357 0 0 0 1 I I #
coedge $-1 $149 $148 $300 $314 forward $83 $-1 #
edge $-1 $150 -13.030903816245484 $315 13.030903816245484 $231 $316 forward 7 unknown #
point $-1 -70.237739188818011 -46.897039873067357 11.183773118639277 #
point $-1 -70.237739188818011 46.897039873067357 11.183773118639277 #
loop $-1 $-1 $161 $153 #
plane-surface $-1 0 46.897039873067357 0 0 -1 0 0 0 -1 forward_v I I I I #
coedge $-1 $242 $156 $158 $246 reversed $91 $-1 #
coedge $-1 $156 $241 $317 $318 reversed $91 $-1 #
coedge $-1 $164 $159 $156 $244 forward $154 $-1 #
edge $-1 $247 8.9017746983311241 $319 15.692322739757458 $243 $320 forward 7 unknown #
coedge $-1 $158 $157 $250 $321 reversed $57 $-1 #
edge $-1 $322 -93.794079746134713 $247 -85.056277025021927 $241 $323 forward 7 unknown #
vertex $-1 $160 $324 #
straight-curve $-1 1.3950240579717814 40.106491831641023 21.404297332978203 1 0 0 I I #
coedge $-1 $317 $161 $164 $254 reversed $239 $-1 #
coedge $-1 $161 $317 $245 $321 forward $239 $-1 #
vertex $-1 $162 $325 #
straight-curve $-1 -3.895925477696494 46.897039873067357 92.050948666127965 0 0 1 I I #
straight-curve $-1 -3.895925477696494 -25.994649816670417 74.931947516291288 0 0.77714595512881146 -0.62932039886446345 I I #
edge $-1 $319 -9.4760217095836197 $165 3.895925477696494 $249 $326 forward 7 unknown #
point $-1 -3.895925477696494 46.897039873067357 21.404297332978206 #
point $-1 -3.895925477696494 40.106491831641023 21.404297332978196 #
edge $-1 $327 1 $327 0 $168 $-1 forward 7 unknown #
vertex $-1 $169 $328 #
ellipse-curve $-1 2.7900481159435628 41.497589630475318 16.17990711944595 0 0.62932039886446345 0.77714595512881146 1.5 0 0 1 I I #
point $-1 4.2900481159435628 43.501765852354183 18.654858586153367 #
loop $-1 $-1 $180 $172 #
plane-surface $-1 0 46.897039873067357 0 0 -1 0 0 0 -1 forward_v I I I I #
coedge $-1 $264 $175 $177 $268 reversed $106 $-1 #
coedge $-1 $175 $263 $329 $330 reversed $106 $-1 #
coedge $-1 $183 $178 $175 $266 forward $173 $-1 #
edge $-1 $269 8.9017746983311241 $331 15.692322739757458 $265 $332 forward 7 unknown #
coedge $-1 $177 $176 $272 $333 reversed $66 $-1 #
edge $-1 $334 -93.794079746134713 $269 -85.056277025021927 $263 $335 forward 7 unknown #
vertex $-1 $179 $336 #
straight-curve $-1 11.635879758273695 40.106491831641023 21.404297332978203 1 0 0 I I #
coedge $-1 $329 $180 $183 $276 reversed $261 $-1 #
coedge $-1 $180 $329 $267 $333 forward $261 $-1 #
vertex $-1 $181 $337 #
straight-curve $-1 16.585785922907334 46.897039873067357 92.050948666127965 0 0 1 I I #
straight-curve $-1 16.585785922907334 -25.994649816670417 74.931947516291288 0 0.77714595512881146 -0.62932039886446345 I I #
edge $-1 $331 -29.957733110187448 $184 -16.585785922907334 $271 $338 forward 7 unknown #
point $-1 16.585785922907334 46.897039873067357 21.404297332978206 #
point $-1 16.585785922907334 40.106491831641023 21.404297332978196 #
edge $-1 $339 1 $339 0 $187 $-1 forward 7 unknown #
vertex $-1 $188 $340 #
ellipse-curve $-1 23.271759516547391 41.497589630475318 16.17990711944595 0 0.62932039886446345 0.77714595512881146 1.5 0 0 1 I I #
point $-1 24.771759516547391 43.501765852354183 18.654858586153367 #
plane-surface $-1 70.237739188818011 0 0 -1 0 0 0 0 1 forward_v I I I I #
coedge $-1 $196 $194 $198 $288 reversed $121 $-1 #
edge $-1 $209 -21.404297332978206 $290 21.404297332978206 $208 $341 forward 7 unknown #
vertex $-1 $288 $342 #
straight-curve $-1 -70.237739188818011 -46.897039873067357 0 0 0 -1 I I #
edge $-1 $286 -46.897039873067357 $290 46.897039873067357 $284 $343 forward 7 unknown #
straight-curve $-1 0 -46.897039873067357 -21.404297332978206 -1 0 0 I I #
vertex $-1 $201 $344 #
straight-curve $-1 0 46.897039873067357 -21.404297332978206 1 0 0 I I #
point $-1 70.237739188818011 46.897039873067357 -21.404297332978206 #
point $-1 70.237739188818011 -46.897039873067357 -21.404297332978206 #
straight-curve $-1 -70.237739188818011 0 21.404297332978206 0 -1 0 I I #
point $-1 -70.237739188818011 46.897039873067357 21.404297332978206 #
point $-1 -70.237739188818011 -46.897039873067357 21.404297332978206 #
straight-curve $-1 70.237739188818011 -46.897039873067357 0 0 0 -1 I I #
straight-curve $-1 70.237739188818011 46.897039873067357 0 0 0 -1 I I #
plane-surface $-1 0 -46.897039873067357 0 0 1 0 0 0 1 forward_v I I I I #
coedge $-1 $345 $221 $235 $314 reversed $140 $-1 #
coedge $-1 $221 $345 $305 $346 reversed $140 $-1 #
edge $-1 $306 -5.1102621071694614 $303 5.1102621071694614 $222 $347 forward 7 unknown #
vertex $-1 $223 $348 #
straight-curve $-1 -83.268643005063495 46.897039873067357 11.183773118639277 1 0 0 I I #
coedge $-1 $309 $224 $301 $346 forward $219 $-1 #
vertex $-1 $225 $349 #
straight-curve $-1 0 46.897039873067357 21.404297332978206 -1 0 0 I I #
point $-1 -70.237739188818011 46.897039873067357 21.404297332978206 #
coedge $-1 $228 $305 $230 $312 forward $219 $-1 #
straight-curve $-1 -70.237739188818011 0 21.404297332978206 0 1 0 I I #
coedge $-1 $231 $230 $345 $350 forward $232 $-1 #
edge $-1 $351 -96.299546821308979 $233 -70.237739188818011 $230 $352 forward 7 unknown #
point $-1 -70.237739188818011 -46.897039873067357 21.404297332978206 #
edge $-1 $315 -46.897039873067357 $303 46.897039873067357 $300 $353 forward 7 unknown #
vertex $-1 $314 $354 #
straight-curve $-1 -83.268643005063495 -46.897039873067357 11.183773118639277 -1 0 0 I I #
coedge $-1 $250 $249 $242 $318 forward $239 $-1 #
edge $-1 $319 70.646651333149762 $322 76.145528826799477 $317 $355 forward 7 unknown #
vertex $-1 $254 $356 #
straight-curve $-1 9.4760217095836197 31.204717133309899 21.404297332978203 0 1 0 I I #
edge $-1 $322 -8.0809976516118383 $251 5.2909495356682754 $250 $357 forward 7 unknown #
vertex $-1 $321 $358 #
straight-curve $-1 9.4760217095836197 -25.994649816670417 74.931947516291288 0 -0.77714595512881146 0.62932039886446345 I I #
point $-1 9.4760217095836197 40.106491831641023 21.404297332978196 #
point $-1 -3.895925477696494 46.897039873067357 15.905419839328495 #
straight-curve $-1 0 46.897039873067357 21.404297332978206 -1 0 0 I I #
vertex $-1 $257 $359 #
point $-1 4.2900481159435628 41.497589630475318 16.17990711944595 #
coedge $-1 $272 $271 $264 $330 forward $261 $-1 #
edge $-1 $331 70.646651333149762 $334 76.145528826799477 $329 $360 forward 7 unknown #
vertex $-1 $276 $361 #
straight-curve $-1 29.957733110187448 31.204717133309899 21.404297332978203 0 1 0 I I #
edge $-1 $334 -18.321853351913752 $273 -4.9499061646336386 $272 $362 forward 7 unknown #
vertex $-1 $333 $363 #
straight-curve $-1 29.957733110187448 -25.994649816670417 74.931947516291288 0 -0.77714595512881146 0.62932039886446345 I I #
point $-1 29.957733110187448 40.106491831641023 21.404297332978196 #
point $-1 16.585785922907334 46.897039873067357 15.905419839328495 #
straight-curve $-1 0 46.897039873067357 21.404297332978206 -1 0 0 I I #
vertex $-1 $279 $364 #
point $-1 24.771759516547391 41.497589630475318 16.17990711944595 #
straight-curve $-1 -70.237739188818011 46.897039873067357 0 0 0 -1 I I #
point $-1 -70.237739188818011 -46.897039873067357 -21.404297332978206 #
straight-curve $-1 -70.237739188818011 0 -21.404297332978206 0 1 0 I I #
point $-1 -70.237739188818011 46.897039873067357 -21.404297332978206 #
coedge $-1 $301 $300 $311 $350 reversed $140 $-1 #
edge $-1 $306 -46.897039873067357 $351 46.897039873067357 $301 $365 forward 7 unknown #
straight-curve $-1 -96.299546821308979 46.897039873067357 16.294035225808738 0 0 -1 I I #
point $-1 -96.299546821308979 46.897039873067357 11.183773118639277 #
point $-1 -96.299546821308979 46.897039873067357 21.404297332978199 #
edge $-1 $351 -5.1102621071694614 $315 5.1102621071694614 $345 $366 forward 7 unknown #
vertex $-1 $346 $367 #
straight-curve $-1 0 -46.897039873067357 21.404297332978206 1 0 0 I I #
straight-curve $-1 -96.299546821308979 0 11.183773118639277 0 1 0 I I #
point $-1 -96.299546821308979 -46.897039873067357 11.183773118639277 #
straight-curve $-1 9.4760217095836197 46.897039873067357 92.050948666127965 0 0 -1 I I #
point $-1 9.4760217095836197 46.897039873067357 21.404297332978206 #
straight-curve $-1 1.3950240579717814 46.897039873067349 15.905419839328498 -1 0 0 I I #
point $-1 9.4760217095836197 46.897039873067357 15.905419839328495 #
point $-1 2.7900481159435628 40.553609032178628 15.014188186752733 #
straight-curve $-1 29.957733110187448 46.897039873067357 92.050948666127965 0 0 -1 I I #
point $-1 29.957733110187448 46.897039873067357 21.404297332978206 #
straight-curve $-1 11.635879758273695 46.897039873067349 15.905419839328498 -1 0 0 I I #
point $-1 29.957733110187448 46.897039873067357 15.905419839328495 #
point $-1 23.271759516547391 40.553609032178628 15.014188186752733 #
straight-curve $-1 -96.299546821308979 0 21.404297332978199 0 -1 0 I I #
straight-curve $-1 -96.299546821308979 -46.897039873067357 16.294035225808738 0 0 -1 I I #
point $-1 -96.299546821308979 -46.897039873067357 21.404297332978199 #
End-of-ACIS-data 